{"ticks_per_beat": -10096, "tracks": [[{"type": "track_name", "name": "Melody", "time": 0}, {"type": "set_tempo", "tempo": 800000, "time": 0}, {"type": "key_signature", "key": "Eb", "time": 0}, {"type": "time_signature", "numerator": 4, "denominator": 4, "clocks_per_click": 24, "notated_32nd_notes_per_beat": 8, "time": 0}, {"type": "note_on", "time": 600600, "note": 62, "velocity": 112, "channel": 0}, {"type": "note_off", "time": 7354, "note": 62, "velocity": 112, "channel": 0}, {"type": "note_on", "time": 5091, "note": 65, "velocity": 120, "channel": 0}, {"type": "note_off", "time": 15557, "note": 65, "velocity": 120, "channel": 0}, {"type": "note_on", "time": 3111, "note": 65, "velocity": 119, "channel": 0}, {"type": "note_off", "time": 11031, "note": 65, "velocity": 119, "channel": 0}, {"type": "note_on", "time": 21340, "note": 65, "velocity": 106, "channel": 0}, {"type": "note_off", "time": 21924, "note": 65, "velocity": 106, "channel": 0}, {"type": "note_on", "time": 82606, "note": 62, "velocity": 117, "channel": 0}, {"type": "note_off", "time": 5940, "note": 62, "velocity": 117, "channel": 0}, {"type": "note_on", "time": 1697, "note": 65, "velocity": 116, "channel": 0}, {"type": "note_off", "time": 20931, "note": 65, "velocity": 116, "channel": 0}, {"type": "note_on", "time": 5487, "note": 65, "velocity": 113, "channel": 0}, {"type": "note_off", "time": 12445, "note": 65, "velocity": 113, "channel": 0}, {"type": "note_on", "time": 48538, "note": 62, "velocity": 112, "channel": 0}, {"type": "note_off", "time": 5091, "note": 62, "velocity": 112, "channel": 0}, {"type": "note_on", "time": 1131, "note": 65, "velocity": 109, "channel": 0}, {"type": "note_off", "time": 20931, "note": 65, "velocity": 109, "channel": 0}, {"type": "note_on", "time": 1414, "note": 66, "velocity": 113, "channel": 0}, {"type": "note_off", "time": 10748, "note": 66, "velocity": 113, "channel": 0}, {"type": "note_on", "time": 14991, "note": 56, "velocity": 96, "channel": 0}, {"type": "note_off", "time": 27437, "note": 56, "velocity": 96, "channel": 0}, {"type": "note_on", "time": 37337, "note": 66, "velocity": 121, "channel": 0}, {"type": "note_off", "time": 6222, "note": 66, "velocity": 121, "channel": 0}, {"type": "note_on", "time": 848, "note": 62, "velocity": 113, "channel": 0}, {"type": "note_off", "time": 7920, "note": 62, "velocity": 113, "channel": 0}, {"type": "note_on", "time": 1697, "note": 56, "velocity": 102, "channel": 0}, {"type": "note_off", "time": 7637, "note": 56, "velocity": 102, "channel": 0}, {"type": "note_on", "time": 1979, "note": 54, "velocity": 103, "channel": 0}, {"type": "note_off", "time": 13860, "note": 54, "velocity": 103, "channel": 0}, {"type": "note_on", "time": 63642, "note": 53, "velocity": 106, "channel": 0}, {"type": "note_off", "time": 5657, "note": 53, "velocity": 106, "channel": 0}, {"type": "note_on", "time": 1131, "note": 49, "velocity": 103, "channel": 0}, {"type": "note_off", "time": 8202, "note": 49, "velocity": 103, "channel": 0}, {"type": "note_on", "time": 1697, "note": 51, "velocity": 95, "channel": 0}, {"type": "note_off", "time": 3111, "note": 51, "velocity": 95, "channel": 0}, {"type": "note_on", "time": 1398, "note": 53, "velocity": 100, "channel": 0}, {"type": "note_off", "time": 3353, "note": 53, "velocity": 100, "channel": 0}, {"type": "note_on", "time": 587, "note": 55, "velocity": 107, "channel": 0}, {"type": "note_off", "time": 4425, "note": 55, "velocity": 107, "channel": 0}, {"type": "note_on", "time": 1549, "note": 61, "velocity": 115, "channel": 0}, {"type": "note_off", "time": 3394, "note": 61, "velocity": 115, "channel": 0}, {"type": "note_on", "time": 1414, "note": 63, "velocity": 120, "channel": 0}, {"type": "note_off", "time": 5091, "note": 63, "velocity": 120, "channel": 0}, {"type": "note_on", "time": 1565, "note": 67, "velocity": 125, "channel": 0}, {"type": "note_off", "time": 13677, "note": 67, "velocity": 125, "channel": 0}, {"type": "note_on", "time": 8517, "note": 71, "velocity": 121, "channel": 0}, {"type": "note_off", "time": 16971, "note": 71, "velocity": 121, "channel": 0}, {"type": "note_on", "time": 1866, "note": 75, "velocity": 119, "channel": 0}, {"type": "note_off", "time": 14281, "note": 75, "velocity": 119, "channel": 0}, {"type": "note_on", "time": 9252, "note": 71, "velocity": 121, "channel": 0}, {"type": "note_off", "time": 13677, "note": 71, "velocity": 121, "channel": 0}, {"type": "note_on", "time": 8158, "note": 67, "velocity": 121, "channel": 0}, {"type": "note_off", "time": 10748, "note": 67, "velocity": 121, "channel": 0}, {"type": "note_on", "time": 1131, "note": 63, "velocity": 112, "channel": 0}, {"type": "note_off", "time": 6222, "note": 63, "velocity": 112, "channel": 0}, {"type": "note_on", "time": 1414, "note": 61, "velocity": 110, "channel": 0}, {"type": "note_off", "time": 7071, "note": 61, "velocity": 110, "channel": 0}, {"type": "note_on", "time": 3394, "note": 55, "velocity": 105, "channel": 0}, {"type": "note_off", "time": 5940, "note": 55, "velocity": 105, "channel": 0}, {"type": "note_on", "time": 1577, "note": 51, "velocity": 100, "channel": 0}, {"type": "note_off", "time": 4242, "note": 51, "velocity": 100, "channel": 0}, {"type": "note_on", "time": 3199, "note": 47, "velocity": 100, "channel": 0}, {"type": "note_off", "time": 12470, "note": 47, "velocity": 100, "channel": 0}, {"type": "note_on", "time": 88257, "note": 55, "velocity": 108, "channel": 0}, {"type": "note_off", "time": 3960, "note": 55, "velocity": 108, "channel": 0}, {"type": "note_on", "time": 1131, "note": 56, "velocity": 107, "channel": 0}, {"type": "note_off", "time": 5374, "note": 56, "velocity": 107, "channel": 0}, {"type": "note_on", "time": 848, "note": 58, "velocity": 106, "channel": 0}, {"type": "note_off", "time": 2828, "note": 58, "velocity": 106, "channel": 0}, {"type": "note_on", "time": 848, "note": 62, "velocity": 117, "channel": 0}, {"type": "note_off", "time": 2828, "note": 62, "velocity": 117, "channel": 0}, {"type": "note_on", "time": 282, "note": 65, "velocity": 122, "channel": 0}, {"type": "note_on", "time": 5940, "note": 62, "velocity": 117, "channel": 0}, {"type": "note_off", "time": 0, "note": 65, "velocity": 122, "channel": 0}, {"type": "note_off", "time": 4808, "note": 62, "velocity": 117, "channel": 0}, {"type": "note_on", "time": 848, "note": 63, "velocity": 119, "channel": 0}, {"type": "note_off", "time": 4525, "note": 63, "velocity": 119, "channel": 0}, {"type": "note_on", "time": 3960, "note": 65, "velocity": 115, "channel": 0}, {"type": "note_off", "time": 9051, "note": 65, "velocity": 115, "channel": 0}, {"type": "note_on", "time": 848, "note": 67, "velocity": 117, "channel": 0}, {"type": "note_off", "time": 5374, "note": 67, "velocity": 117, "channel": 0}, {"type": "note_on", "time": 848, "note": 69, "velocity": 110, "channel": 0}, {"type": "note_off", "time": 3394, "note": 69, "velocity": 110, "channel": 0}, {"type": "note_on", "time": 1131, "note": 70, "velocity": 118, "channel": 0}, {"type": "note_off", "time": 6505, "note": 70, "velocity": 118, "channel": 0}, {"type": "note_on", "time": 1414, "note": 69, "velocity": 122, "channel": 0}, {"type": "note_off", "time": 9900, "note": 69, "velocity": 122, "channel": 0}, {"type": "note_on", "time": 0, "note": 67, "velocity": 121, "channel": 0}, {"type": "note_off", "time": 4525, "note": 67, "velocity": 121, "channel": 0}, {"type": "note_on", "time": 1414, "note": 65, "velocity": 118, "channel": 0}, {"type": "note_off", "time": 5940, "note": 65, "velocity": 118, "channel": 0}, {"type": "note_on", "time": 848, "note": 62, "velocity": 114, "channel": 0}, {"type": "note_off", "time": 3960, "note": 62, "velocity": 114, "channel": 0}, {"type": "note_on", "time": 1979, "note": 63, "velocity": 114, "channel": 0}, {"type": "note_off", "time": 5091, "note": 63, "velocity": 114, "channel": 0}, {"type": "note_on", "time": 3394, "note": 64, "velocity": 118, "channel": 0}, {"type": "note_off", "time": 5374, "note": 64, "velocity": 118, "channel": 0}, {"type": "note_on", "time": 2545, "note": 62, "velocity": 118, "channel": 0}, {"type": "note_off", "time": 3960, "note": 62, "velocity": 118, "channel": 0}, {"type": "note_on", "time": 1979, "note": 61, "velocity": 103, "channel": 0}, {"type": "note_off", "time": 3677, "note": 61, "velocity": 103, "channel": 0}, {"type": "note_on", "time": 2803, "note": 64, "velocity": 109, "channel": 0}, {"type": "note_off", "time": 4425, "note": 64, "velocity": 109, "channel": 0}, {"type": "note_on", "time": 201, "note": 67, "velocity": 123, "channel": 0}, {"type": "note_off", "time": 6838, "note": 67, "velocity": 123, "channel": 0}, {"type": "note_on", "time": 1005, "note": 70, "velocity": 118, "channel": 0}, {"type": "note_off", "time": 8447, "note": 70, "velocity": 118, "channel": 0}, {"type": "note_on", "time": 2614, "note": 67, "velocity": 115, "channel": 0}, {"type": "note_off", "time": 6637, "note": 67, "velocity": 115, "channel": 0}, {"type": "note_on", "time": 6436, "note": 68, "velocity": 125, "channel": 0}, {"type": "note_off", "time": 6637, "note": 68, "velocity": 125, "channel": 0}, {"type": "note_on", "time": 9453, "note": 66, "velocity": 111, "channel": 0}, {"type": "note_off", "time": 5632, "note": 66, "velocity": 111, "channel": 0}, {"type": "note_on", "time": 11263, "note": 63, "velocity": 111, "channel": 0}, {"type": "note_off", "time": 14080, "note": 63, "velocity": 111, "channel": 0}, {"type": "note_on", "time": 76032, "note": 63, "velocity": 123, "channel": 0}, {"type": "note_off", "time": 5229, "note": 63, "velocity": 123, "channel": 0}, {"type": "note_on", "time": 1810, "note": 65, "velocity": 120, "channel": 0}, {"type": "note_off", "time": 7643, "note": 65, "velocity": 120, "channel": 0}, {"type": "note_on", "time": 2413, "note": 66, "velocity": 119, "channel": 0}, {"type": "note_off", "time": 7442, "note": 66, "velocity": 119, "channel": 0}, {"type": "note_on", "time": 1474, "note": 68, "velocity": 124, "channel": 0}, {"type": "note_off", "time": 24891, "note": 68, "velocity": 124, "channel": 0}, {"type": "note_on", "time": 43418, "note": 69, "velocity": 120, "channel": 0}, {"type": "note_off", "time": 7142, "note": 69, "velocity": 120, "channel": 0}, {"type": "note_on", "time": 312, "note": 70, "velocity": 117, "channel": 0}, {"type": "note_off", "time": 4827, "note": 70, "velocity": 117, "channel": 0}, {"type": "note_on", "time": 804, "note": 69, "velocity": 118, "channel": 0}, {"type": "note_off", "time": 5833, "note": 69, "velocity": 118, "channel": 0}, {"type": "note_on", "time": 1810, "note": 67, "velocity": 124, "channel": 0}, {"type": "note_off", "time": 5833, "note": 67, "velocity": 124, "channel": 0}, {"type": "note_on", "time": 1609, "note": 66, "velocity": 120, "channel": 0}, {"type": "note_off", "time": 8649, "note": 66, "velocity": 120, "channel": 0}, {"type": "note_on", "time": 603, "note": 69, "velocity": 116, "channel": 0}, {"type": "note_off", "time": 3419, "note": 69, "velocity": 116, "channel": 0}, {"type": "note_on", "time": 1206, "note": 66, "velocity": 120, "channel": 0}, {"type": "note_off", "time": 5229, "note": 66, "velocity": 120, "channel": 0}, {"type": "note_on", "time": 2212, "note": 65, "velocity": 113, "channel": 0}, {"type": "note_off", "time": 7040, "note": 65, "velocity": 113, "channel": 0}, {"type": "note_on", "time": 1609, "note": 64, "velocity": 118, "channel": 0}, {"type": "note_off", "time": 5632, "note": 64, "velocity": 118, "channel": 0}, {"type": "note_on", "time": 2011, "note": 65, "velocity": 120, "channel": 0}, {"type": "note_off", "time": 4224, "note": 65, "velocity": 120, "channel": 0}, {"type": "note_on", "time": 1609, "note": 64, "velocity": 120, "channel": 0}, {"type": "note_off", "time": 5632, "note": 64, "velocity": 120, "channel": 0}, {"type": "note_on", "time": 1810, "note": 63, "velocity": 120, "channel": 0}, {"type": "note_off", "time": 6637, "note": 63, "velocity": 120, "channel": 0}, {"type": "note_on", "time": 1609, "note": 62, "velocity": 121, "channel": 0}, {"type": "note_off", "time": 5632, "note": 62, "velocity": 121, "channel": 0}, {"type": "note_on", "time": 1408, "note": 63, "velocity": 119, "channel": 0}, {"type": "note_off", "time": 4224, "note": 63, "velocity": 119, "channel": 0}, {"type": "note_on", "time": 2011, "note": 62, "velocity": 115, "channel": 0}, {"type": "note_off", "time": 6235, "note": 62, "velocity": 115, "channel": 0}, {"type": "note_on", "time": 603, "note": 61, "velocity": 114, "channel": 0}, {"type": "note_off", "time": 6235, "note": 61, "velocity": 114, "channel": 0}, {"type": "note_on", "time": 1206, "note": 60, "velocity": 115, "channel": 0}, {"type": "note_off", "time": 9051, "note": 60, "velocity": 115, "channel": 0}, {"type": "note_on", "time": 804, "note": 58, "velocity": 110, "channel": 0}, {"type": "note_off", "time": 5632, "note": 58, "velocity": 110, "channel": 0}, {"type": "note_on", "time": 1206, "note": 57, "velocity": 103, "channel": 0}, {"type": "note_off", "time": 4626, "note": 57, "velocity": 103, "channel": 0}, {"type": "note_on", "time": 603, "note": 54, "velocity": 105, "channel": 0}, {"type": "note_off", "time": 9252, "note": 54, "velocity": 105, "channel": 0}, {"type": "note_on", "time": 95744, "note": 53, "velocity": 110, "channel": 0}, {"type": "note_off", "time": 8045, "note": 53, "velocity": 110, "channel": 0}, {"type": "note_on", "time": 603, "note": 51, "velocity": 102, "channel": 0}, {"type": "note_off", "time": 4022, "note": 51, "velocity": 102, "channel": 0}, {"type": "note_on", "time": 2212, "note": 50, "velocity": 108, "channel": 0}, {"type": "note_off", "time": 14281, "note": 50, "velocity": 108, "channel": 0}, {"type": "note_on", "time": 1206, "note": 53, "velocity": 108, "channel": 0}, {"type": "note_off", "time": 6235, "note": 53, "velocity": 108, "channel": 0}, {"type": "note_on", "time": 603, "note": 50, "velocity": 110, "channel": 0}, {"type": "note_off", "time": 5229, "note": 50, "velocity": 110, "channel": 0}, {"type": "note_on", "time": 1206, "note": 51, "velocity": 107, "channel": 0}, {"type": "note_off", "time": 5430, "note": 51, "velocity": 107, "channel": 0}, {"type": "note_on", "time": 1408, "note": 53, "velocity": 105, "channel": 0}, {"type": "note_off", "time": 6838, "note": 53, "velocity": 105, "channel": 0}, {"type": "note_on", "time": 2614, "note": 55, "velocity": 102, "channel": 0}, {"type": "note_off", "time": 5229, "note": 55, "velocity": 102, "channel": 0}, {"type": "note_on", "time": 4626, "note": 58, "velocity": 112, "channel": 0}, {"type": "note_off", "time": 7241, "note": 58, "velocity": 112, "channel": 0}, {"type": "note_on", "time": 201, "note": 53, "velocity": 106, "channel": 0}, {"type": "note_off", "time": 2816, "note": 53, "velocity": 106, "channel": 0}, {"type": "note_on", "time": 0, "note": 55, "velocity": 107, "channel": 0}, {"type": "note_off", "time": 3419, "note": 55, "velocity": 107, "channel": 0}, {"type": "note_on", "time": 804, "note": 56, "velocity": 108, "channel": 0}, {"type": "note_off", "time": 8045, "note": 56, "velocity": 108, "channel": 0}, {"type": "note_on", "time": 1407, "note": 58, "velocity": 113, "channel": 0}, {"type": "note_off", "time": 5028, "note": 58, "velocity": 113, "channel": 0}, {"type": "note_on", "time": 2011, "note": 62, "velocity": 111, "channel": 0}, {"type": "note_off", "time": 13878, "note": 62, "velocity": 111, "channel": 0}, {"type": "note_on", "time": 804, "note": 65, "velocity": 122, "channel": 0}, {"type": "note_off", "time": 5632, "note": 65, "velocity": 122, "channel": 0}, {"type": "note_on", "time": 402, "note": 62, "velocity": 117, "channel": 0}, {"type": "note_off", "time": 5430, "note": 62, "velocity": 117, "channel": 0}, {"type": "note_on", "time": 1206, "note": 63, "velocity": 121, "channel": 0}, {"type": "note_off", "time": 3620, "note": 63, "velocity": 121, "channel": 0}, {"type": "note_on", "time": 1206, "note": 65, "velocity": 118, "channel": 0}, {"type": "note_off", "time": 8448, "note": 65, "velocity": 118, "channel": 0}, {"type": "note_on", "time": 1408, "note": 67, "velocity": 120, "channel": 0}, {"type": "note_off", "time": 7241, "note": 67, "velocity": 120, "channel": 0}, {"type": "note_on", "time": 2816, "note": 70, "velocity": 111, "channel": 0}, {"type": "note_off", "time": 41636, "note": 70, "velocity": 111, "channel": 0}, {"type": "note_on", "time": 71003, "note": 76, "velocity": 122, "channel": 0}, {"type": "note_off", "time": 5430, "note": 76, "velocity": 122, "channel": 0}, {"type": "note_on", "time": 1609, "note": 75, "velocity": 116, "channel": 0}, {"type": "note_off", "time": 5833, "note": 75, "velocity": 116, "channel": 0}, {"type": "note_on", "time": 1408, "note": 74, "velocity": 117, "channel": 0}, {"type": "note_off", "time": 4626, "note": 74, "velocity": 117, "channel": 0}, {"type": "note_on", "time": 2212, "note": 73, "velocity": 118, "channel": 0}, {"type": "note_off", "time": 5632, "note": 73, "velocity": 118, "channel": 0}, {"type": "note_on", "time": 804, "note": 72, "velocity": 121, "channel": 0}, {"type": "note_off", "time": 6034, "note": 72, "velocity": 121, "channel": 0}, {"type": "note_on", "time": 1408, "note": 71, "velocity": 121, "channel": 0}, {"type": "note_off", "time": 6436, "note": 71, "velocity": 121, "channel": 0}, {"type": "note_on", "time": 1810, "note": 73, "velocity": 112, "channel": 0}, {"type": "note_off", "time": 7643, "note": 73, "velocity": 112, "channel": 0}, {"type": "note_on", "time": 2212, "note": 68, "velocity": 117, "channel": 0}, {"type": "note_off", "time": 7040, "note": 68, "velocity": 117, "channel": 0}, {"type": "note_on", "time": 1206, "note": 69, "velocity": 112, "channel": 0}, {"type": "note_off", "time": 7040, "note": 69, "velocity": 112, "channel": 0}, {"type": "note_on", "time": 1206, "note": 66, "velocity": 111, "channel": 0}, {"type": "note_off", "time": 5229, "note": 66, "velocity": 111, "channel": 0}, {"type": "note_on", "time": 1005, "note": 68, "velocity": 121, "channel": 0}, {"type": "note_off", "time": 5833, "note": 68, "velocity": 121, "channel": 0}, {"type": "note_on", "time": 1408, "note": 66, "velocity": 117, "channel": 0}, {"type": "note_off", "time": 4425, "note": 66, "velocity": 117, "channel": 0}, {"type": "note_on", "time": 1206, "note": 67, "velocity": 121, "channel": 0}, {"type": "note_off", "time": 8045, "note": 67, "velocity": 121, "channel": 0}, {"type": "note_on", "time": 402, "note": 65, "velocity": 119, "channel": 0}, {"type": "note_off", "time": 5632, "note": 65, "velocity": 119, "channel": 0}, {"type": "note_on", "time": 804, "note": 62, "velocity": 114, "channel": 0}, {"type": "note_off", "time": 4425, "note": 62, "velocity": 114, "channel": 0}, {"type": "note_on", "time": 1206, "note": 63, "velocity": 113, "channel": 0}, {"type": "note_off", "time": 6838, "note": 63, "velocity": 113, "channel": 0}, {"type": "note_on", "time": 1609, "note": 64, "velocity": 119, "channel": 0}, {"type": "note_off", "time": 4425, "note": 64, "velocity": 119, "channel": 0}, {"type": "note_on", "time": 1206, "note": 62, "velocity": 114, "channel": 0}, {"type": "note_off", "time": 6436, "note": 62, "velocity": 114, "channel": 0}, {"type": "note_on", "time": 2413, "note": 61, "velocity": 112, "channel": 0}, {"type": "note_off", "time": 4022, "note": 61, "velocity": 112, "channel": 0}, {"type": "note_on", "time": 1408, "note": 64, "velocity": 112, "channel": 0}, {"type": "note_off", "time": 6436, "note": 64, "velocity": 112, "channel": 0}, {"type": "note_on", "time": 201, "note": 67, "velocity": 124, "channel": 0}, {"type": "note_off", "time": 7241, "note": 67, "velocity": 124, "channel": 0}, {"type": "note_on", "time": 2614, "note": 70, "velocity": 117, "channel": 0}, {"type": "note_off", "time": 5833, "note": 70, "velocity": 117, "channel": 0}, {"type": "note_on", "time": 3017, "note": 67, "velocity": 117, "channel": 0}, {"type": "note_off", "time": 8448, "note": 67, "velocity": 117, "channel": 0}, {"type": "note_on", "time": 1005, "note": 68, "velocity": 123, "channel": 0}, {"type": "note_off", "time": 7844, "note": 68, "velocity": 123, "channel": 0}, {"type": "note_on", "time": 2816, "note": 60, "velocity": 114, "channel": 0}, {"type": "note_off", "time": 4626, "note": 60, "velocity": 114, "channel": 0}, {"type": "note_on", "time": 804, "note": 63, "velocity": 109, "channel": 0}, {"type": "note_off", "time": 6436, "note": 63, "velocity": 109, "channel": 0}, {"type": "note_on", "time": 0, "note": 67, "velocity": 124, "channel": 0}, {"type": "note_off", "time": 6235, "note": 67, "velocity": 124, "channel": 0}, {"type": "note_on", "time": 603, "note": 65, "velocity": 115, "channel": 0}, {"type": "note_off", "time": 5028, "note": 65, "velocity": 115, "channel": 0}, {"type": "note_on", "time": 804, "note": 63, "velocity": 112, "channel": 0}, {"type": "note_off", "time": 6838, "note": 63, "velocity": 112, "channel": 0}, {"type": "note_on", "time": 2212, "note": 65, "velocity": 118, "channel": 0}, {"type": "note_off", "time": 5229, "note": 65, "velocity": 118, "channel": 0}, {"type": "note_on", "time": 4626, "note": 63, "velocity": 117, "channel": 0}, {"type": "note_off", "time": 4425, "note": 63, "velocity": 117, "channel": 0}, {"type": "note_on", "time": 2212, "note": 62, "velocity": 117, "channel": 0}, {"type": "note_off", "time": 4425, "note": 62, "velocity": 117, "channel": 0}, {"type": "note_on", "time": 1609, "note": 60, "velocity": 119, "channel": 0}, {"type": "note_off", "time": 6838, "note": 60, "velocity": 119, "channel": 0}, {"type": "note_on", "time": 1206, "note": 58, "velocity": 104, "channel": 0}, {"type": "note_off", "time": 4827, "note": 58, "velocity": 104, "channel": 0}, {"type": "note_on", "time": 2413, "note": 56, "velocity": 111, "channel": 0}, {"type": "note_off", "time": 5028, "note": 56, "velocity": 111, "channel": 0}, {"type": "note_on", "time": 1206, "note": 55, "velocity": 107, "channel": 0}, {"type": "note_off", "time": 4425, "note": 55, "velocity": 107, "channel": 0}, {"type": "note_on", "time": 1206, "note": 53, "velocity": 106, "channel": 0}, {"type": "note_off", "time": 4626, "note": 53, "velocity": 106, "channel": 0}, {"type": "note_on", "time": 1206, "note": 51, "velocity": 103, "channel": 0}, {"type": "note_off", "time": 4827, "note": 51, "velocity": 103, "channel": 0}, {"type": "note_on", "time": 1810, "note": 48, "velocity": 116, "channel": 0}, {"type": "note_off", "time": 8850, "note": 48, "velocity": 116, "channel": 0}, {"type": "note_on", "time": 2614, "note": 51, "velocity": 110, "channel": 0}, {"type": "note_off", "time": 5430, "note": 51, "velocity": 110, "channel": 0}, {"type": "note_on", "time": 1810, "note": 48, "velocity": 108, "channel": 0}, {"type": "note_off", "time": 3821, "note": 48, "velocity": 108, "channel": 0}, {"type": "note_on", "time": 1609, "note": 50, "velocity": 109, "channel": 0}, {"type": "note_off", "time": 5833, "note": 50, "velocity": 109, "channel": 0}, {"type": "note_on", "time": 3821, "note": 41, "velocity": 104, "channel": 0}, {"type": "note_off", "time": 10459, "note": 41, "velocity": 104, "channel": 0}, {"type": "note_on", "time": 59821, "note": 51, "velocity": 120, "channel": 0}, {"type": "note_off", "time": 2192, "note": 51, "velocity": 120, "channel": 0}, {"type": "note_on", "time": 282, "note": 49, "velocity": 109, "channel": 0}, {"type": "note_off", "time": 2404, "note": 49, "velocity": 109, "channel": 0}, {"type": "note_on", "time": 733, "note": 46, "velocity": 111, "channel": 0}, {"type": "note_off", "time": 2816, "note": 46, "velocity": 111, "channel": 0}, {"type": "note_on", "time": 2149, "note": 44, "velocity": 111, "channel": 0}, {"type": "note_off", "time": 4626, "note": 44, "velocity": 111, "channel": 0}, {"type": "note_on", "time": 1408, "note": 48, "velocity": 110, "channel": 0}, {"type": "note_off", "time": 5430, "note": 48, "velocity": 110, "channel": 0}, {"type": "note_on", "time": 603, "note": 51, "velocity": 112, "channel": 0}, {"type": "note_off", "time": 5833, "note": 51, "velocity": 112, "channel": 0}, {"type": "note_on", "time": 804, "note": 48, "velocity": 113, "channel": 0}, {"type": "note_off", "time": 4022, "note": 48, "velocity": 113, "channel": 0}, {"type": "note_on", "time": 603, "note": 50, "velocity": 113, "channel": 0}, {"type": "note_off", "time": 5632, "note": 50, "velocity": 113, "channel": 0}, {"type": "note_on", "time": 1810, "note": 48, "velocity": 116, "channel": 0}, {"type": "note_off", "time": 6034, "note": 48, "velocity": 116, "channel": 0}, {"type": "note_on", "time": 1408, "note": 46, "velocity": 113, "channel": 0}, {"type": "note_off", "time": 4827, "note": 46, "velocity": 113, "channel": 0}, {"type": "note_on", "time": 603, "note": 45, "velocity": 106, "channel": 0}, {"type": "note_off", "time": 5632, "note": 45, "velocity": 106, "channel": 0}, {"type": "note_on", "time": 1408, "note": 43, "velocity": 125, "channel": 0}, {"type": "note_off", "time": 3017, "note": 43, "velocity": 125, "channel": 0}, {"type": "note_on", "time": 804, "note": 44, "velocity": 105, "channel": 0}, {"type": "note_off", "time": 63360, "note": 44, "velocity": 105, "channel": 0}, {"type": "note_on", "time": 463, "note": 51, "velocity": 108, "channel": 0}, {"type": "note_off", "time": 1508, "note": 51, "velocity": 108, "channel": 0}, {"type": "note_on", "time": 642, "note": 53, "velocity": 114, "channel": 0}, {"type": "note_off", "time": 5229, "note": 53, "velocity": 114, "channel": 0}, {"type": "note_on", "time": 2313, "note": 59, "velocity": 119, "channel": 0}, {"type": "note_off", "time": 3218, "note": 59, "velocity": 119, "channel": 0}, {"type": "note_on", "time": 704, "note": 63, "velocity": 124, "channel": 0}, {"type": "note_off", "time": 4626, "note": 63, "velocity": 124, "channel": 0}, {"type": "note_on", "time": 301, "note": 65, "velocity": 124, "channel": 0}, {"type": "note_off", "time": 4224, "note": 65, "velocity": 124, "channel": 0}, {"type": "note_on", "time": 704, "note": 67, "velocity": 127, "channel": 0}, {"type": "note_off", "time": 7341, "note": 67, "velocity": 127, "channel": 0}, {"type": "note_on", "time": 402, "note": 68, "velocity": 118, "channel": 0}, {"type": "note_off", "time": 39625, "note": 68, "velocity": 118, "channel": 0}, {"type": "note_on", "time": 84942, "note": 70, "velocity": 116, "channel": 0}, {"type": "note_off", "time": 5632, "note": 70, "velocity": 116, "channel": 0}, {"type": "note_on", "time": 2052, "note": 75, "velocity": 121, "channel": 0}, {"type": "note_off", "time": 15085, "note": 75, "velocity": 121, "channel": 0}, {"type": "note_on", "time": 2614, "note": 75, "velocity": 122, "channel": 0}, {"type": "note_off", "time": 13878, "note": 75, "velocity": 122, "channel": 0}, {"type": "note_on", "time": 2212, "note": 75, "velocity": 122, "channel": 0}, {"type": "note_off", "time": 10258, "note": 75, "velocity": 122, "channel": 0}, {"type": "note_on", "time": 3017, "note": 75, "velocity": 121, "channel": 0}, {"type": "note_off", "time": 11867, "note": 75, "velocity": 121, "channel": 0}, {"type": "note_on", "time": 2212, "note": 74, "velocity": 121, "channel": 0}, {"type": "note_off", "time": 4022, "note": 74, "velocity": 121, "channel": 0}, {"type": "note_on", "time": 201, "note": 75, "velocity": 122, "channel": 0}, {"type": "note_off", "time": 8045, "note": 75, "velocity": 122, "channel": 0}, {"type": "note_on", "time": 1407, "note": 73, "velocity": 118, "channel": 0}, {"type": "note_off", "time": 10459, "note": 73, "velocity": 118, "channel": 0}, {"type": "note_on", "time": 1081, "note": 72, "velocity": 112, "channel": 0}, {"type": "note_off", "time": 18315, "note": 72, "velocity": 112, "channel": 0}, {"type": "note_on", "time": 57038, "note": 75, "velocity": 119, "channel": 0}, {"type": "note_off", "time": 3218, "note": 75, "velocity": 119, "channel": 0}, {"type": "note_on", "time": 402, "note": 77, "velocity": 115, "channel": 0}, {"type": "note_off", "time": 8649, "note": 77, "velocity": 115, "channel": 0}, {"type": "note_on", "time": 2011, "note": 69, "velocity": 121, "channel": 0}, {"type": "note_off", "time": 5833, "note": 69, "velocity": 121, "channel": 0}, {"type": "note_on", "time": 1206, "note": 68, "velocity": 117, "channel": 0}, {"type": "note_off", "time": 6838, "note": 68, "velocity": 117, "channel": 0}, {"type": "note_on", "time": 603, "note": 66, "velocity": 117, "channel": 0}, {"type": "note_off", "time": 16493, "note": 66, "velocity": 117, "channel": 0}, {"type": "note_on", "time": 206774, "note": 78, "velocity": 119, "channel": 0}, {"type": "note_off", "time": 3017, "note": 78, "velocity": 119, "channel": 0}, {"type": "note_on", "time": 502, "note": 79, "velocity": 117, "channel": 0}, {"type": "note_off", "time": 53001, "note": 79, "velocity": 117, "channel": 0}, {"type": "note_on", "time": 301, "note": 78, "velocity": 113, "channel": 0}, {"type": "note_off", "time": 4626, "note": 78, "velocity": 113, "channel": 0}, {"type": "note_on", "time": 100, "note": 80, "velocity": 118, "channel": 0}, {"type": "note_off", "time": 34194, "note": 80, "velocity": 118, "channel": 0}, {"type": "note_on", "time": 905, "note": 77, "velocity": 119, "channel": 0}, {"type": "note_off", "time": 6034, "note": 77, "velocity": 119, "channel": 0}, {"type": "note_on", "time": 1106, "note": 79, "velocity": 113, "channel": 0}, {"type": "note_off", "time": 18505, "note": 79, "velocity": 113, "channel": 0}, {"type": "note_on", "time": 1901, "note": 69, "velocity": 119, "channel": 0}, {"type": "note_off", "time": 28497, "note": 69, "velocity": 119, "channel": 0}, {"type": "note_on", "time": 99141, "note": 77, "velocity": 117, "channel": 0}, {"type": "note_off", "time": 129972, "note": 77, "velocity": 117, "channel": 0}, {"type": "note_on", "time": 40993, "note": 76, "velocity": 124, "channel": 0}, {"type": "note_off", "time": 5028, "note": 76, "velocity": 124, "channel": 0}, {"type": "note_on", "time": 0, "note": 75, "velocity": 120, "channel": 0}, {"type": "note_off", "time": 4022, "note": 75, "velocity": 120, "channel": 0}, {"type": "note_on", "time": 1222, "note": 74, "velocity": 118, "channel": 0}, {"type": "note_off", "time": 3394, "note": 74, "velocity": 118, "channel": 0}, {"type": "note_on", "time": 707, "note": 73, "velocity": 117, "channel": 0}, {"type": "note_off", "time": 8485, "note": 73, "velocity": 117, "channel": 0}, {"type": "note_on", "time": 141, "note": 72, "velocity": 119, "channel": 0}, {"type": "note_off", "time": 6647, "note": 72, "velocity": 119, "channel": 0}, {"type": "note_on", "time": 424, "note": 71, "velocity": 118, "channel": 0}, {"type": "note_off", "time": 3111, "note": 71, "velocity": 118, "channel": 0}, {"type": "note_on", "time": 282, "note": 69, "velocity": 116, "channel": 0}, {"type": "note_off", "time": 7919, "note": 69, "velocity": 116, "channel": 0}, {"type": "note_on", "time": 424, "note": 68, "velocity": 117, "channel": 0}, {"type": "note_off", "time": 8485, "note": 68, "velocity": 117, "channel": 0}, {"type": "note_on", "time": 282, "note": 66, "velocity": 110, "channel": 0}, {"type": "note_off", "time": 7354, "note": 66, "velocity": 110, "channel": 0}, {"type": "note_on", "time": 1414, "note": 69, "velocity": 118, "channel": 0}, {"type": "note_off", "time": 6505, "note": 69, "velocity": 118, "channel": 0}, {"type": "note_on", "time": 707, "note": 66, "velocity": 114, "channel": 0}, {"type": "note_off", "time": 5657, "note": 66, "velocity": 114, "channel": 0}, {"type": "note_on", "time": 282, "note": 67, "velocity": 122, "channel": 0}, {"type": "note_off", "time": 7212, "note": 67, "velocity": 122, "channel": 0}, {"type": "note_on", "time": 707, "note": 63, "velocity": 115, "channel": 0}, {"type": "note_off", "time": 8202, "note": 63, "velocity": 115, "channel": 0}, {"type": "note_on", "time": 141, "note": 59, "velocity": 114, "channel": 0}, {"type": "note_off", "time": 4101, "note": 59, "velocity": 114, "channel": 0}, {"type": "note_on", "time": 1131, "note": 55, "velocity": 108, "channel": 0}, {"type": "note_off", "time": 8061, "note": 55, "velocity": 108, "channel": 0}, {"type": "note_on", "time": 141, "note": 51, "velocity": 111, "channel": 0}, {"type": "note_off", "time": 2828, "note": 51, "velocity": 111, "channel": 0}, {"type": "note_on", "time": 2687, "note": 47, "velocity": 116, "channel": 0}, {"type": "note_off", "time": 5657, "note": 47, "velocity": 116, "channel": 0}, {"type": "note_on", "time": 270, "note": 44, "velocity": 113, "channel": 0}, {"type": "note_off", "time": 3419, "note": 44, "velocity": 113, "channel": 0}, {"type": "note_on", "time": 270, "note": 37, "velocity": 110, "channel": 0}, {"type": "note_off", "time": 63784, "note": 37, "velocity": 110, "channel": 0}, {"type": "note_on", "time": 49146, "note": 37, "velocity": 111, "channel": 0}, {"type": "note_off", "time": 6364, "note": 37, "velocity": 111, "channel": 0}, {"type": "note_on", "time": 114, "note": 44, "velocity": 109, "channel": 0}, {"type": "note_off", "time": 3570, "note": 44, "velocity": 109, "channel": 0}, {"type": "note_on", "time": 553, "note": 46, "velocity": 110, "channel": 0}, {"type": "note_off", "time": 4101, "note": 46, "velocity": 110, "channel": 0}, {"type": "note_on", "time": 3391, "note": 51, "velocity": 117, "channel": 0}, {"type": "note_off", "time": 7643, "note": 51, "velocity": 117, "channel": 0}, {"type": "note_on", "time": 1609, "note": 48, "velocity": 116, "channel": 0}, {"type": "note_off", "time": 3419, "note": 48, "velocity": 116, "channel": 0}, {"type": "note_on", "time": 150, "note": 50, "velocity": 117, "channel": 0}, {"type": "note_off", "time": 6537, "note": 50, "velocity": 117, "channel": 0}, {"type": "note_on", "time": 2003, "note": 48, "velocity": 124, "channel": 0}, {"type": "note_off", "time": 5869, "note": 48, "velocity": 124, "channel": 0}, {"type": "note_on", "time": 848, "note": 46, "velocity": 111, "channel": 0}, {"type": "note_off", "time": 5798, "note": 46, "velocity": 111, "channel": 0}, {"type": "note_on", "time": 353, "note": 45, "velocity": 106, "channel": 0}, {"type": "note_off", "time": 4879, "note": 45, "velocity": 106, "channel": 0}, {"type": "note_on", "time": 1626, "note": 43, "velocity": 113, "channel": 0}, {"type": "note_off", "time": 2404, "note": 43, "velocity": 113, "channel": 0}, {"type": "note_on", "time": 565, "note": 44, "velocity": 109, "channel": 0}, {"type": "note_off", "time": 6152, "note": 44, "velocity": 109, "channel": 0}, {"type": "note_on", "time": 565, "note": 46, "velocity": 111, "channel": 0}, {"type": "note_off", "time": 4313, "note": 46, "velocity": 111, "channel": 0}, {"type": "note_on", "time": 212, "note": 48, "velocity": 118, "channel": 0}, {"type": "note_off", "time": 4950, "note": 48, "velocity": 118, "channel": 0}, {"type": "note_on", "time": 1202, "note": 51, "velocity": 115, "channel": 0}, {"type": "note_off", "time": 7032, "note": 51, "velocity": 115, "channel": 0}, {"type": "note_on", "time": 0, "note": 55, "velocity": 114, "channel": 0}, {"type": "note_off", "time": 8910, "note": 55, "velocity": 114, "channel": 0}, {"type": "note_on", "time": 392, "note": 56, "velocity": 108, "channel": 0}, {"type": "note_off", "time": 4525, "note": 56, "velocity": 108, "channel": 0}, {"type": "note_on", "time": 704, "note": 63, "velocity": 123, "channel": 0}, {"type": "note_off", "time": 6647, "note": 63, "velocity": 123, "channel": 0}, {"type": "note_on", "time": 443, "note": 58, "velocity": 110, "channel": 0}, {"type": "note_off", "time": 5869, "note": 58, "velocity": 110, "channel": 0}, {"type": "note_on", "time": 479, "note": 62, "velocity": 116, "channel": 0}, {"type": "note_off", "time": 3182, "note": 62, "velocity": 116, "channel": 0}, {"type": "note_on", "time": 777, "note": 63, "velocity": 123, "channel": 0}, {"type": "note_off", "time": 4313, "note": 63, "velocity": 123, "channel": 0}, {"type": "note_on", "time": 848, "note": 62, "velocity": 118, "channel": 0}, {"type": "note_off", "time": 1838, "note": 62, "velocity": 118, "channel": 0}, {"type": "note_on", "time": 353, "note": 64, "velocity": 119, "channel": 0}, {"type": "note_off", "time": 4172, "note": 64, "velocity": 119, "channel": 0}, {"type": "note_on", "time": 212, "note": 65, "velocity": 120, "channel": 0}, {"type": "note_off", "time": 7425, "note": 65, "velocity": 120, "channel": 0}, {"type": "note_on", "time": 141, "note": 69, "velocity": 118, "channel": 0}, {"type": "note_off", "time": 6788, "note": 69, "velocity": 118, "channel": 0}, {"type": "note_on", "time": 495, "note": 66, "velocity": 119, "channel": 0}, {"type": "note_off", "time": 4879, "note": 66, "velocity": 119, "channel": 0}, {"type": "note_on", "time": 282, "note": 67, "velocity": 126, "channel": 0}, {"type": "note_off", "time": 9334, "note": 67, "velocity": 126, "channel": 0}, {"type": "note_on", "time": 212, "note": 65, "velocity": 117, "channel": 0}, {"type": "note_off", "time": 5940, "note": 65, "velocity": 117, "channel": 0}, {"type": "note_on", "time": 636, "note": 62, "velocity": 114, "channel": 0}, {"type": "note_off", "time": 5020, "note": 62, "velocity": 114, "channel": 0}, {"type": "note_on", "time": 565, "note": 63, "velocity": 118, "channel": 0}, {"type": "note_off", "time": 6859, "note": 63, "velocity": 118, "channel": 0}, {"type": "note_on", "time": 989, "note": 64, "velocity": 123, "channel": 0}, {"type": "note_off", "time": 6859, "note": 64, "velocity": 123, "channel": 0}, {"type": "note_on", "time": 370, "note": 62, "velocity": 113, "channel": 0}, {"type": "note_off", "time": 6738, "note": 62, "velocity": 113, "channel": 0}, {"type": "note_on", "time": 804, "note": 63, "velocity": 123, "channel": 0}, {"type": "note_off", "time": 6939, "note": 63, "velocity": 123, "channel": 0}, {"type": "note_on", "time": 301, "note": 65, "velocity": 117, "channel": 0}, {"type": "note_off", "time": 10861, "note": 65, "velocity": 117, "channel": 0}, {"type": "note_on", "time": 1106, "note": 67, "velocity": 121, "channel": 0}, {"type": "note_off", "time": 6637, "note": 67, "velocity": 121, "channel": 0}, {"type": "note_on", "time": 905, "note": 70, "velocity": 121, "channel": 0}, {"type": "note_off", "time": 7744, "note": 70, "velocity": 121, "channel": 0}, {"type": "note_on", "time": 0, "note": 67, "velocity": 121, "channel": 0}, {"type": "note_off", "time": 4827, "note": 67, "velocity": 121, "channel": 0}, {"type": "note_on", "time": 100, "note": 69, "velocity": 121, "channel": 0}, {"type": "note_off", "time": 8548, "note": 69, "velocity": 121, "channel": 0}, {"type": "note_on", "time": 502, "note": 66, "velocity": 121, "channel": 0}, {"type": "note_off", "time": 12571, "note": 66, "velocity": 121, "channel": 0}, {"type": "note_on", "time": 66176, "note": 68, "velocity": 124, "channel": 0}, {"type": "note_off", "time": 5632, "note": 68, "velocity": 124, "channel": 0}, {"type": "note_on", "time": 402, "note": 69, "velocity": 118, "channel": 0}, {"type": "note_off", "time": 4425, "note": 69, "velocity": 118, "channel": 0}, {"type": "note_on", "time": 402, "note": 71, "velocity": 116, "channel": 0}, {"type": "note_off", "time": 6436, "note": 71, "velocity": 116, "channel": 0}, {"type": "note_on", "time": 804, "note": 73, "velocity": 121, "channel": 0}, {"type": "note_off", "time": 7844, "note": 73, "velocity": 121, "channel": 0}, {"type": "note_on", "time": 804, "note": 75, "velocity": 9, "channel": 0}, {"type": "note_off", "time": 37814, "note": 75, "velocity": 9, "channel": 0}, {"type": "note_on", "time": 98157, "note": 69, "velocity": 121, "channel": 0}, {"type": "note_off", "time": 5028, "note": 69, "velocity": 121, "channel": 0}, {"type": "note_on", "time": 898, "note": 70, "velocity": 119, "channel": 0}, {"type": "note_off", "time": 6364, "note": 70, "velocity": 119, "channel": 0}, {"type": "note_on", "time": 848, "note": 76, "velocity": 107, "channel": 0}, {"type": "note_off", "time": 6788, "note": 76, "velocity": 107, "channel": 0}, {"type": "note_on", "time": 424, "note": 73, "velocity": 120, "channel": 0}, {"type": "note_off", "time": 4242, "note": 73, "velocity": 120, "channel": 0}, {"type": "note_on", "time": 990, "note": 74, "velocity": 117, "channel": 0}, {"type": "note_off", "time": 7495, "note": 74, "velocity": 117, "channel": 0}, {"type": "note_on", "time": 565, "note": 73, "velocity": 115, "channel": 0}, {"type": "note_off", "time": 5374, "note": 73, "velocity": 115, "channel": 0}, {"type": "note_on", "time": 424, "note": 72, "velocity": 120, "channel": 0}, {"type": "note_off", "time": 7919, "note": 72, "velocity": 120, "channel": 0}, {"type": "note_on", "time": 1697, "note": 70, "velocity": 116, "channel": 0}, {"type": "note_off", "time": 7071, "note": 70, "velocity": 116, "channel": 0}, {"type": "note_on", "time": 707, "note": 69, "velocity": 115, "channel": 0}, {"type": "note_off", "time": 7495, "note": 69, "velocity": 115, "channel": 0}, {"type": "note_on", "time": 848, "note": 66, "velocity": 112, "channel": 0}, {"type": "note_off", "time": 5515, "note": 66, "velocity": 112, "channel": 0}, {"type": "note_on", "time": 848, "note": 69, "velocity": 119, "channel": 0}, {"type": "note_off", "time": 6364, "note": 69, "velocity": 119, "channel": 0}, {"type": "note_on", "time": 282, "note": 66, "velocity": 112, "channel": 0}, {"type": "note_off", "time": 4525, "note": 66, "velocity": 112, "channel": 0}, {"type": "note_on", "time": 848, "note": 67, "velocity": 124, "channel": 0}, {"type": "note_off", "time": 7071, "note": 67, "velocity": 124, "channel": 0}, {"type": "note_on", "time": 282, "note": 65, "velocity": 119, "channel": 0}, {"type": "note_off", "time": 5374, "note": 65, "velocity": 119, "channel": 0}, {"type": "note_on", "time": 141, "note": 62, "velocity": 112, "channel": 0}, {"type": "note_off", "time": 4950, "note": 62, "velocity": 112, "channel": 0}, {"type": "note_on", "time": 1414, "note": 63, "velocity": 115, "channel": 0}, {"type": "note_off", "time": 5515, "note": 63, "velocity": 115, "channel": 0}, {"type": "note_on", "time": 424, "note": 65, "velocity": 119, "channel": 0}, {"type": "note_off", "time": 8627, "note": 65, "velocity": 119, "channel": 0}, {"type": "note_on", "time": 282, "note": 63, "velocity": 120, "channel": 0}, {"type": "note_off", "time": 6364, "note": 63, "velocity": 120, "channel": 0}, {"type": "note_on", "time": 707, "note": 62, "velocity": 118, "channel": 0}, {"type": "note_off", "time": 6081, "note": 62, "velocity": 118, "channel": 0}, {"type": "note_on", "time": 848, "note": 60, "velocity": 121, "channel": 0}, {"type": "note_off", "time": 8202, "note": 60, "velocity": 121, "channel": 0}, {"type": "note_on", "time": 424, "note": 58, "velocity": 103, "channel": 0}, {"type": "note_off", "time": 4101, "note": 58, "velocity": 103, "channel": 0}, {"type": "note_on", "time": 707, "note": 56, "velocity": 112, "channel": 0}, {"type": "note_off", "time": 6647, "note": 56, "velocity": 112, "channel": 0}, {"type": "note_on", "time": 141, "note": 55, "velocity": 113, "channel": 0}, {"type": "note_off", "time": 4667, "note": 55, "velocity": 113, "channel": 0}, {"type": "note_on", "time": 1555, "note": 53, "velocity": 111, "channel": 0}, {"type": "note_off", "time": 3818, "note": 53, "velocity": 111, "channel": 0}, {"type": "note_on", "time": 1131, "note": 51, "velocity": 112, "channel": 0}, {"type": "note_off", "time": 7212, "note": 51, "velocity": 112, "channel": 0}, {"type": "note_on", "time": 990, "note": 50, "velocity": 107, "channel": 0}, {"type": "note_off", "time": 3535, "note": 50, "velocity": 107, "channel": 0}, {"type": "note_on", "time": 565, "note": 48, "velocity": 107, "channel": 0}, {"type": "note_off", "time": 4242, "note": 48, "velocity": 107, "channel": 0}, {"type": "note_on", "time": 848, "note": 53, "velocity": 109, "channel": 0}, {"type": "note_off", "time": 6647, "note": 53, "velocity": 109, "channel": 0}, {"type": "note_on", "time": 848, "note": 50, "velocity": 105, "channel": 0}, {"type": "note_off", "time": 2970, "note": 50, "velocity": 105, "channel": 0}, {"type": "note_on", "time": 1131, "note": 51, "velocity": 112, "channel": 0}, {"type": "note_off", "time": 5091, "note": 51, "velocity": 112, "channel": 0}, {"type": "note_on", "time": 424, "note": 52, "velocity": 104, "channel": 0}, {"type": "note_off", "time": 2404, "note": 52, "velocity": 104, "channel": 0}, {"type": "note_on", "time": 424, "note": 53, "velocity": 109, "channel": 0}, {"type": "note_off", "time": 5232, "note": 53, "velocity": 109, "channel": 0}, {"type": "note_on", "time": 707, "note": 55, "velocity": 106, "channel": 0}, {"type": "note_off", "time": 4950, "note": 55, "velocity": 106, "channel": 0}, {"type": "note_on", "time": 424, "note": 56, "velocity": 104, "channel": 0}, {"type": "note_off", "time": 4667, "note": 56, "velocity": 104, "channel": 0}, {"type": "note_on", "time": 2545, "note": 58, "velocity": 105, "channel": 0}, {"type": "note_off", "time": 6081, "note": 58, "velocity": 105, "channel": 0}, {"type": "note_on", "time": 1272, "note": 54, "velocity": 108, "channel": 0}, {"type": "note_off", "time": 2404, "note": 54, "velocity": 108, "channel": 0}, {"type": "note_on", "time": 282, "note": 55, "velocity": 110, "channel": 0}, {"type": "note_off", "time": 4808, "note": 55, "velocity": 110, "channel": 0}, {"type": "note_on", "time": 990, "note": 56, "velocity": 110, "channel": 0}, {"type": "note_off", "time": 2404, "note": 56, "velocity": 110, "channel": 0}, {"type": "note_on", "time": 707, "note": 55, "velocity": 110, "channel": 0}, {"type": "note_off", "time": 5515, "note": 55, "velocity": 110, "channel": 0}, {"type": "note_on", "time": 707, "note": 58, "velocity": 107, "channel": 0}, {"type": "note_off", "time": 3252, "note": 58, "velocity": 107, "channel": 0}, {"type": "note_on", "time": 707, "note": 62, "velocity": 112, "channel": 0}, {"type": "note_off", "time": 5091, "note": 62, "velocity": 112, "channel": 0}, {"type": "note_on", "time": 707, "note": 63, "velocity": 113, "channel": 0}, {"type": "note_off", "time": 5232, "note": 63, "velocity": 113, "channel": 0}, {"type": "note_on", "time": 848, "note": 65, "velocity": 123, "channel": 0}, {"type": "note_off", "time": 6081, "note": 65, "velocity": 123, "channel": 0}, {"type": "note_on", "time": 282, "note": 62, "velocity": 115, "channel": 0}, {"type": "note_off", "time": 4101, "note": 62, "velocity": 115, "channel": 0}, {"type": "note_on", "time": 848, "note": 63, "velocity": 115, "channel": 0}, {"type": "note_off", "time": 4667, "note": 63, "velocity": 115, "channel": 0}, {"type": "note_on", "time": 2687, "note": 65, "velocity": 117, "channel": 0}, {"type": "note_off", "time": 5374, "note": 65, "velocity": 117, "channel": 0}, {"type": "note_on", "time": 0, "note": 67, "velocity": 109, "channel": 0}, {"type": "note_off", "time": 2687, "note": 67, "velocity": 109, "channel": 0}, {"type": "note_on", "time": 990, "note": 68, "velocity": 95, "channel": 0}, {"type": "note_off", "time": 1697, "note": 68, "velocity": 95, "channel": 0}, {"type": "note_on", "time": 1697, "note": 70, "velocity": 114, "channel": 0}, {"type": "note_off", "time": 2262, "note": 70, "velocity": 114, "channel": 0}, {"type": "note_on", "time": 707, "note": 72, "velocity": 114, "channel": 0}, {"type": "note_off", "time": 4384, "note": 72, "velocity": 114, "channel": 0}, {"type": "note_on", "time": 282, "note": 74, "velocity": 120, "channel": 0}, {"type": "note_off", "time": 14284, "note": 74, "velocity": 120, "channel": 0}, {"type": "note_on", "time": 67885, "note": 75, "velocity": 118, "channel": 0}, {"type": "note_off", "time": 6081, "note": 75, "velocity": 118, "channel": 0}, {"type": "note_on", "time": 848, "note": 74, "velocity": 121, "channel": 0}, {"type": "note_off", "time": 3535, "note": 74, "velocity": 121, "channel": 0}, {"type": "note_on", "time": 1414, "note": 73, "velocity": 120, "channel": 0}, {"type": "note_off", "time": 6364, "note": 73, "velocity": 120, "channel": 0}, {"type": "note_on", "time": 565, "note": 72, "velocity": 119, "channel": 0}, {"type": "note_off", "time": 5515, "note": 72, "velocity": 119, "channel": 0}, {"type": "note_on", "time": 707, "note": 71, "velocity": 122, "channel": 0}, {"type": "note_off", "time": 6647, "note": 71, "velocity": 122, "channel": 0}, {"type": "note_on", "time": 5374, "note": 70, "velocity": 113, "channel": 0}, {"type": "note_off", "time": 5374, "note": 70, "velocity": 113, "channel": 0}, {"type": "note_on", "time": 848, "note": 69, "velocity": 110, "channel": 0}, {"type": "note_off", "time": 3677, "note": 69, "velocity": 110, "channel": 0}, {"type": "note_on", "time": 848, "note": 66, "velocity": 107, "channel": 0}, {"type": "note_off", "time": 5091, "note": 66, "velocity": 107, "channel": 0}, {"type": "note_on", "time": 565, "note": 69, "velocity": 118, "channel": 0}, {"type": "note_off", "time": 6788, "note": 69, "velocity": 118, "channel": 0}, {"type": "note_on", "time": 707, "note": 66, "velocity": 111, "channel": 0}, {"type": "note_off", "time": 5091, "note": 66, "velocity": 111, "channel": 0}, {"type": "note_on", "time": 1414, "note": 67, "velocity": 124, "channel": 0}, {"type": "note_off", "time": 6930, "note": 67, "velocity": 124, "channel": 0}, {"type": "note_on", "time": 141, "note": 65, "velocity": 117, "channel": 0}, {"type": "note_off", "time": 6930, "note": 65, "velocity": 117, "channel": 0}, {"type": "note_on", "time": 141, "note": 62, "velocity": 112, "channel": 0}, {"type": "note_off", "time": 5232, "note": 62, "velocity": 112, "channel": 0}, {"type": "note_on", "time": 1131, "note": 63, "velocity": 114, "channel": 0}, {"type": "note_off", "time": 5515, "note": 63, "velocity": 114, "channel": 0}, {"type": "note_on", "time": 2262, "note": 64, "velocity": 118, "channel": 0}, {"type": "note_off", "time": 4242, "note": 64, "velocity": 118, "channel": 0}, {"type": "note_on", "time": 1131, "note": 62, "velocity": 119, "channel": 0}, {"type": "note_off", "time": 6222, "note": 62, "velocity": 119, "channel": 0}, {"type": "note_on", "time": 707, "note": 61, "velocity": 116, "channel": 0}, {"type": "note_off", "time": 7354, "note": 61, "velocity": 116, "channel": 0}, {"type": "note_on", "time": 1697, "note": 64, "velocity": 110, "channel": 0}, {"type": "note_off", "time": 4384, "note": 64, "velocity": 110, "channel": 0}, {"type": "note_on", "time": 9475, "note": 56, "velocity": 98, "channel": 0}, {"type": "note_off", "time": 14142, "note": 56, "velocity": 98, "channel": 0}, {"type": "note_on", "time": 85422, "note": 65, "velocity": 121, "channel": 0}, {"type": "note_off", "time": 6505, "note": 65, "velocity": 121, "channel": 0}, {"type": "note_on", "time": 1555, "note": 67, "velocity": 120, "channel": 0}, {"type": "note_off", "time": 5515, "note": 67, "velocity": 120, "channel": 0}, {"type": "note_on", "time": 141, "note": 68, "velocity": 124, "channel": 0}, {"type": "note_off", "time": 6222, "note": 68, "velocity": 124, "channel": 0}, {"type": "note_on", "time": 34791, "note": 65, "velocity": 121, "channel": 0}, {"type": "note_off", "time": 5657, "note": 65, "velocity": 121, "channel": 0}, {"type": "note_on", "time": 990, "note": 67, "velocity": 121, "channel": 0}, {"type": "note_off", "time": 5798, "note": 67, "velocity": 121, "channel": 0}, {"type": "note_on", "time": 1131, "note": 68, "velocity": 123, "channel": 0}, {"type": "note_off", "time": 5515, "note": 68, "velocity": 123, "channel": 0}, {"type": "note_on", "time": 1414, "note": 67, "velocity": 123, "channel": 0}, {"type": "note_off", "time": 6364, "note": 67, "velocity": 123, "channel": 0}, {"type": "note_on", "time": 707, "note": 65, "velocity": 116, "channel": 0}, {"type": "note_off", "time": 5374, "note": 65, "velocity": 116, "channel": 0}, {"type": "note_on", "time": 565, "note": 63, "velocity": 115, "channel": 0}, {"type": "note_off", "time": 4667, "note": 63, "velocity": 115, "channel": 0}, {"type": "note_on", "time": 1980, "note": 62, "velocity": 113, "channel": 0}, {"type": "note_off", "time": 6222, "note": 62, "velocity": 113, "channel": 0}, {"type": "note_on", "time": 848, "note": 60, "velocity": 120, "channel": 0}, {"type": "note_off", "time": 7354, "note": 60, "velocity": 120, "channel": 0}, {"type": "note_on", "time": 707, "note": 58, "velocity": 108, "channel": 0}, {"type": "note_off", "time": 3394, "note": 58, "velocity": 108, "channel": 0}, {"type": "note_on", "time": 1555, "note": 56, "velocity": 111, "channel": 0}, {"type": "note_off", "time": 6364, "note": 56, "velocity": 111, "channel": 0}, {"type": "note_on", "time": 1272, "note": 55, "velocity": 111, "channel": 0}, {"type": "note_off", "time": 5657, "note": 55, "velocity": 111, "channel": 0}, {"type": "note_on", "time": 848, "note": 53, "velocity": 106, "channel": 0}, {"type": "note_off", "time": 3394, "note": 53, "velocity": 106, "channel": 0}, {"type": "note_on", "time": 1131, "note": 51, "velocity": 107, "channel": 0}, {"type": "note_off", "time": 6364, "note": 51, "velocity": 107, "channel": 0}, {"type": "note_on", "time": 1838, "note": 48, "velocity": 107, "channel": 0}, {"type": "note_off", "time": 4384, "note": 48, "velocity": 107, "channel": 0}, {"type": "note_on", "time": 4949, "note": 51, "velocity": 112, "channel": 0}, {"type": "note_off", "time": 5940, "note": 51, "velocity": 112, "channel": 0}, {"type": "note_on", "time": 1131, "note": 41, "velocity": 112, "channel": 0}, {"type": "note_off", "time": 5232, "note": 41, "velocity": 112, "channel": 0}, {"type": "note_on", "time": 1134, "note": 46, "velocity": 114, "channel": 0}, {"type": "note_off", "time": 4928, "note": 46, "velocity": 114, "channel": 0}, {"type": "note_on", "time": 1609, "note": 53, "velocity": 115, "channel": 0}, {"type": "note_off", "time": 4324, "note": 53, "velocity": 115, "channel": 0}, {"type": "note_on", "time": 2413, "note": 41, "velocity": 120, "channel": 0}, {"type": "note_off", "time": 5430, "note": 41, "velocity": 120, "channel": 0}, {"type": "note_on", "time": 1232, "note": 46, "velocity": 104, "channel": 0}, {"type": "note_off", "time": 4928, "note": 46, "velocity": 104, "channel": 0}, {"type": "note_on", "time": 2489, "note": 51, "velocity": 109, "channel": 0}, {"type": "note_off", "time": 8045, "note": 51, "velocity": 109, "channel": 0}, {"type": "note_on", "time": 21220, "note": 51, "velocity": 112, "channel": 0}, {"type": "note_off", "time": 5229, "note": 51, "velocity": 112, "channel": 0}, {"type": "note_on", "time": 1005, "note": 41, "velocity": 112, "channel": 0}, {"type": "note_off", "time": 4928, "note": 41, "velocity": 112, "channel": 0}, {"type": "note_on", "time": 1106, "note": 46, "velocity": 112, "channel": 0}, {"type": "note_off", "time": 4928, "note": 46, "velocity": 112, "channel": 0}, {"type": "note_on", "time": 1106, "note": 51, "velocity": 115, "channel": 0}, {"type": "note_off", "time": 6336, "note": 51, "velocity": 115, "channel": 0}, {"type": "note_on", "time": 603, "note": 41, "velocity": 106, "channel": 0}, {"type": "note_off", "time": 5028, "note": 41, "velocity": 106, "channel": 0}, {"type": "note_on", "time": 603, "note": 46, "velocity": 109, "channel": 0}, {"type": "note_off", "time": 5531, "note": 46, "velocity": 109, "channel": 0}, {"type": "note_on", "time": 301, "note": 51, "velocity": 117, "channel": 0}, {"type": "note_off", "time": 6436, "note": 51, "velocity": 117, "channel": 0}, {"type": "note_on", "time": 1005, "note": 41, "velocity": 118, "channel": 0}, {"type": "note_off", "time": 6336, "note": 41, "velocity": 118, "channel": 0}, {"type": "note_on", "time": 502, "note": 46, "velocity": 109, "channel": 0}, {"type": "note_off", "time": 4726, "note": 46, "velocity": 109, "channel": 0}, {"type": "note_on", "time": 804, "note": 51, "velocity": 116, "channel": 0}, {"type": "note_off", "time": 5732, "note": 51, "velocity": 116, "channel": 0}, {"type": "note_on", "time": 804, "note": 41, "velocity": 111, "channel": 0}, {"type": "note_off", "time": 6034, "note": 41, "velocity": 111, "channel": 0}, {"type": "note_on", "time": 704, "note": 46, "velocity": 112, "channel": 0}, {"type": "note_off", "time": 4525, "note": 46, "velocity": 112, "channel": 0}, {"type": "note_on", "time": 1005, "note": 51, "velocity": 116, "channel": 0}, {"type": "note_off", "time": 7341, "note": 51, "velocity": 116, "channel": 0}, {"type": "note_on", "time": 402, "note": 42, "velocity": 106, "channel": 0}, {"type": "note_off", "time": 5229, "note": 42, "velocity": 106, "channel": 0}, {"type": "note_on", "time": 502, "note": 47, "velocity": 118, "channel": 0}, {"type": "note_off", "time": 5531, "note": 47, "velocity": 118, "channel": 0}, {"type": "note_on", "time": 1307, "note": 52, "velocity": 111, "channel": 0}, {"type": "note_off", "time": 6436, "note": 52, "velocity": 111, "channel": 0}, {"type": "note_on", "time": 1206, "note": 42, "velocity": 114, "channel": 0}, {"type": "note_off", "time": 4726, "note": 42, "velocity": 114, "channel": 0}, {"type": "note_on", "time": 1910, "note": 47, "velocity": 113, "channel": 0}, {"type": "note_off", "time": 6034, "note": 47, "velocity": 113, "channel": 0}, {"type": "note_on", "time": 502, "note": 52, "velocity": 110, "channel": 0}, {"type": "note_off", "time": 7140, "note": 52, "velocity": 110, "channel": 0}, {"type": "note_on", "time": 1408, "note": 42, "velocity": 106, "channel": 0}, {"type": "note_off", "time": 4626, "note": 42, "velocity": 106, "channel": 0}, {"type": "note_on", "time": 502, "note": 47, "velocity": 106, "channel": 0}, {"type": "note_off", "time": 6738, "note": 47, "velocity": 106, "channel": 0}, {"type": "note_on", "time": 804, "note": 52, "velocity": 113, "channel": 0}, {"type": "note_off", "time": 7542, "note": 52, "velocity": 113, "channel": 0}, {"type": "note_on", "time": 1005, "note": 42, "velocity": 119, "channel": 0}, {"type": "note_off", "time": 5028, "note": 42, "velocity": 119, "channel": 0}, {"type": "note_on", "time": 1206, "note": 47, "velocity": 105, "channel": 0}, {"type": "note_off", "time": 5129, "note": 47, "velocity": 105, "channel": 0}, {"type": "note_on", "time": 1005, "note": 52, "velocity": 112, "channel": 0}, {"type": "note_off", "time": 7040, "note": 52, "velocity": 112, "channel": 0}, {"type": "note_on", "time": 402, "note": 42, "velocity": 105, "channel": 0}, {"type": "note_off", "time": 5229, "note": 42, "velocity": 105, "channel": 0}, {"type": "note_on", "time": 704, "note": 47, "velocity": 106, "channel": 0}, {"type": "note_off", "time": 3922, "note": 47, "velocity": 106, "channel": 0}, {"type": "note_on", "time": 1106, "note": 52, "velocity": 115, "channel": 0}, {"type": "note_off", "time": 6738, "note": 52, "velocity": 115, "channel": 0}, {"type": "note_on", "time": 703, "note": 42, "velocity": 106, "channel": 0}, {"type": "note_off", "time": 4827, "note": 42, "velocity": 106, "channel": 0}, {"type": "note_on", "time": 905, "note": 47, "velocity": 109, "channel": 0}, {"type": "note_off", "time": 5129, "note": 47, "velocity": 109, "channel": 0}, {"type": "note_on", "time": 1206, "note": 51, "velocity": 115, "channel": 0}, {"type": "note_off", "time": 6537, "note": 51, "velocity": 115, "channel": 0}, {"type": "note_on", "time": 1407, "note": 44, "velocity": 118, "channel": 0}, {"type": "note_off", "time": 5933, "note": 44, "velocity": 118, "channel": 0}, {"type": "note_on", "time": 301, "note": 46, "velocity": 111, "channel": 0}, {"type": "note_off", "time": 4726, "note": 46, "velocity": 111, "channel": 0}, {"type": "note_on", "time": 301, "note": 51, "velocity": 116, "channel": 0}, {"type": "note_off", "time": 7241, "note": 51, "velocity": 116, "channel": 0}, {"type": "note_on", "time": 905, "note": 44, "velocity": 105, "channel": 0}, {"type": "note_off", "time": 5632, "note": 44, "velocity": 105, "channel": 0}, {"type": "note_on", "time": 201, "note": 47, "velocity": 111, "channel": 0}, {"type": "note_off", "time": 4726, "note": 47, "velocity": 111, "channel": 0}, {"type": "note_on", "time": 402, "note": 51, "velocity": 117, "channel": 0}, {"type": "note_off", "time": 7241, "note": 51, "velocity": 117, "channel": 0}, {"type": "note_on", "time": 1269, "note": 42, "velocity": 107, "channel": 0}, {"type": "note_off", "time": 5091, "note": 42, "velocity": 107, "channel": 0}, {"type": "note_on", "time": 0, "note": 47, "velocity": 118, "channel": 0}, {"type": "note_off", "time": 6788, "note": 47, "velocity": 118, "channel": 0}, {"type": "note_on", "time": 1555, "note": 51, "velocity": 118, "channel": 0}, {"type": "note_off", "time": 5940, "note": 51, "velocity": 118, "channel": 0}, {"type": "note_on", "time": 1131, "note": 42, "velocity": 112, "channel": 0}, {"type": "note_off", "time": 5798, "note": 42, "velocity": 112, "channel": 0}, {"type": "note_on", "time": 848, "note": 47, "velocity": 112, "channel": 0}, {"type": "note_off", "time": 5940, "note": 47, "velocity": 112, "channel": 0}, {"type": "note_on", "time": 848, "note": 51, "velocity": 118, "channel": 0}, {"type": "note_off", "time": 6222, "note": 51, "velocity": 118, "channel": 0}, {"type": "note_on", "time": 1131, "note": 42, "velocity": 109, "channel": 0}, {"type": "note_off", "time": 4949, "note": 42, "velocity": 109, "channel": 0}, {"type": "note_on", "time": 848, "note": 47, "velocity": 116, "channel": 0}, {"type": "note_off", "time": 5091, "note": 47, "velocity": 116, "channel": 0}, {"type": "note_on", "time": 1838, "note": 51, "velocity": 119, "channel": 0}, {"type": "note_off", "time": 6222, "note": 51, "velocity": 119, "channel": 0}, {"type": "note_on", "time": 1909, "note": 39, "velocity": 122, "channel": 0}, {"type": "note_off", "time": 4257, "note": 39, "velocity": 122, "channel": 0}, {"type": "note_on", "time": 0, "note": 46, "velocity": 117, "channel": 0}, {"type": "note_off", "time": 5374, "note": 46, "velocity": 117, "channel": 0}, {"type": "note_on", "time": 2570, "note": 51, "velocity": 117, "channel": 0}, {"type": "note_off", "time": 8649, "note": 51, "velocity": 117, "channel": 0}, {"type": "note_on", "time": 29850, "note": 51, "velocity": 120, "channel": 0}, {"type": "note_off", "time": 5232, "note": 51, "velocity": 120, "channel": 0}, {"type": "note_on", "time": 565, "note": 43, "velocity": 124, "channel": 0}, {"type": "note_off", "time": 5091, "note": 43, "velocity": 124, "channel": 0}, {"type": "note_on", "time": 282, "note": 48, "velocity": 113, "channel": 0}, {"type": "note_off", "time": 2828, "note": 48, "velocity": 113, "channel": 0}, {"type": "note_on", "time": 282, "note": 53, "velocity": 116, "channel": 0}, {"type": "note_off", "time": 5232, "note": 53, "velocity": 116, "channel": 0}, {"type": "note_on", "time": 1131, "note": 59, "velocity": 108, "channel": 0}, {"type": "note_off", "time": 1838, "note": 59, "velocity": 108, "channel": 0}, {"type": "note_on", "time": 707, "note": 63, "velocity": 120, "channel": 0}, {"type": "note_off", "time": 3111, "note": 63, "velocity": 120, "channel": 0}, {"type": "note_on", "time": 0, "note": 67, "velocity": 122, "channel": 0}, {"type": "note_off", "time": 2687, "note": 67, "velocity": 122, "channel": 0}, {"type": "note_on", "time": 141, "note": 69, "velocity": 119, "channel": 0}, {"type": "note_off", "time": 4808, "note": 69, "velocity": 119, "channel": 0}, {"type": "note_on", "time": 424, "note": 66, "velocity": 119, "channel": 0}, {"type": "note_off", "time": 23618, "note": 66, "velocity": 119, "channel": 0}, {"type": "note_on", "time": 31441, "note": 62, "velocity": 111, "channel": 0}, {"type": "note_off", "time": 3111, "note": 62, "velocity": 111, "channel": 0}, {"type": "note_on", "time": 1313, "note": 63, "velocity": 121, "channel": 0}, {"type": "note_off", "time": 4425, "note": 63, "velocity": 121, "channel": 0}, {"type": "note_on", "time": 0, "note": 65, "velocity": 117, "channel": 0}, {"type": "note_off", "time": 3520, "note": 65, "velocity": 117, "channel": 0}, {"type": "note_on", "time": 1106, "note": 69, "velocity": 115, "channel": 0}, {"type": "note_off", "time": 5330, "note": 69, "velocity": 115, "channel": 0}, {"type": "note_on", "time": 1307, "note": 67, "velocity": 114, "channel": 0}, {"type": "note_off", "time": 41334, "note": 67, "velocity": 114, "channel": 0}, {"type": "note_on", "time": 30576, "note": 62, "velocity": 117, "channel": 0}, {"type": "note_off", "time": 3818, "note": 62, "velocity": 117, "channel": 0}, {"type": "note_on", "time": 565, "note": 63, "velocity": 120, "channel": 0}, {"type": "note_off", "time": 5091, "note": 63, "velocity": 120, "channel": 0}, {"type": "note_on", "time": 424, "note": 66, "velocity": 120, "channel": 0}, {"type": "note_off", "time": 3959, "note": 66, "velocity": 120, "channel": 0}, {"type": "note_on", "time": 707, "note": 68, "velocity": 119, "channel": 0}, {"type": "note_off", "time": 23335, "note": 68, "velocity": 119, "channel": 0}, {"type": "note_on", "time": 707, "note": 67, "velocity": 120, "channel": 0}, {"type": "note_off", "time": 22204, "note": 67, "velocity": 120, "channel": 0}, {"type": "note_on", "time": 22556, "note": 62, "velocity": 114, "channel": 0}, {"type": "note_off", "time": 2262, "note": 62, "velocity": 114, "channel": 0}, {"type": "note_on", "time": 1345, "note": 66, "velocity": 115, "channel": 0}, {"type": "note_off", "time": 2970, "note": 66, "velocity": 115, "channel": 0}, {"type": "note_on", "time": 282, "note": 69, "velocity": 115, "channel": 0}, {"type": "note_off", "time": 2828, "note": 69, "velocity": 115, "channel": 0}, {"type": "note_on", "time": 424, "note": 68, "velocity": 119, "channel": 0}, {"type": "note_off", "time": 5232, "note": 68, "velocity": 119, "channel": 0}, {"type": "note_on", "time": 282, "note": 65, "velocity": 118, "channel": 0}, {"type": "note_off", "time": 5657, "note": 65, "velocity": 118, "channel": 0}, {"type": "note_on", "time": 282, "note": 67, "velocity": 119, "channel": 0}, {"type": "note_off", "time": 42287, "note": 67, "velocity": 119, "channel": 0}, {"type": "note_on", "time": 25149, "note": 62, "velocity": 118, "channel": 0}, {"type": "note_off", "time": 3318, "note": 62, "velocity": 118, "channel": 0}, {"type": "note_on", "time": 1106, "note": 63, "velocity": 123, "channel": 0}, {"type": "note_off", "time": 3922, "note": 63, "velocity": 123, "channel": 0}, {"type": "note_on", "time": 704, "note": 69, "velocity": 115, "channel": 0}, {"type": "note_off", "time": 14381, "note": 69, "velocity": 115, "channel": 0}, {"type": "note_on", "time": 502, "note": 68, "velocity": 120, "channel": 0}, {"type": "note_off", "time": 3017, "note": 68, "velocity": 120, "channel": 0}, {"type": "note_on", "time": 301, "note": 69, "velocity": 117, "channel": 0}, {"type": "note_off", "time": 2313, "note": 69, "velocity": 117, "channel": 0}, {"type": "note_on", "time": 905, "note": 68, "velocity": 119, "channel": 0}, {"type": "note_off", "time": 19611, "note": 68, "velocity": 119, "channel": 0}, {"type": "note_on", "time": 18052, "note": 62, "velocity": 113, "channel": 0}, {"type": "note_off", "time": 7813, "note": 62, "velocity": 113, "channel": 0}, {"type": "note_on", "time": 785, "note": 63, "velocity": 116, "channel": 0}, {"type": "note_off", "time": 4048, "note": 63, "velocity": 116, "channel": 0}, {"type": "note_on", "time": 0, "note": 66, "velocity": 117, "channel": 0}, {"type": "note_off", "time": 2592, "note": 66, "velocity": 117, "channel": 0}, {"type": "note_on", "time": 876, "note": 68, "velocity": 122, "channel": 0}, {"type": "note_off", "time": 4943, "note": 68, "velocity": 122, "channel": 0}, {"type": "note_on", "time": 1367, "note": 68, "velocity": 124, "channel": 0}, {"type": "note_off", "time": 8146, "note": 68, "velocity": 124, "channel": 0}, {"type": "note_on", "time": 150, "note": 67, "velocity": 123, "channel": 0}, {"type": "note_off", "time": 20516, "note": 67, "velocity": 123, "channel": 0}, {"type": "note_on", "time": 176, "note": 70, "velocity": 116, "channel": 0}, {"type": "note_off", "time": 4928, "note": 70, "velocity": 116, "channel": 0}, {"type": "note_on", "time": 3243, "note": 62, "velocity": 111, "channel": 0}, {"type": "note_off", "time": 8221, "note": 62, "velocity": 111, "channel": 0}, {"type": "note_on", "time": 628, "note": 66, "velocity": 119, "channel": 0}, {"type": "note_off", "time": 3394, "note": 66, "velocity": 119, "channel": 0}, {"type": "note_on", "time": 729, "note": 68, "velocity": 120, "channel": 0}, {"type": "note_off", "time": 5028, "note": 68, "velocity": 120, "channel": 0}, {"type": "note_on", "time": 908, "note": 66, "velocity": 115, "channel": 0}, {"type": "note_off", "time": 35539, "note": 66, "velocity": 115, "channel": 0}, {"type": "note_on", "time": 25504, "note": 62, "velocity": 122, "channel": 0}, {"type": "note_off", "time": 2916, "note": 62, "velocity": 122, "channel": 0}, {"type": "note_on", "time": 402, "note": 63, "velocity": 124, "channel": 0}, {"type": "note_off", "time": 3821, "note": 63, "velocity": 124, "channel": 0}, {"type": "note_on", "time": 100, "note": 67, "velocity": 121, "channel": 0}, {"type": "note_off", "time": 2413, "note": 67, "velocity": 121, "channel": 0}, {"type": "note_on", "time": 1106, "note": 70, "velocity": 116, "channel": 0}, {"type": "note_off", "time": 5531, "note": 70, "velocity": 116, "channel": 0}, {"type": "note_on", "time": 603, "note": 69, "velocity": 118, "channel": 0}, {"type": "note_off", "time": 6436, "note": 69, "velocity": 118, "channel": 0}, {"type": "note_on", "time": 704, "note": 68, "velocity": 123, "channel": 0}, {"type": "note_off", "time": 16694, "note": 68, "velocity": 123, "channel": 0}, {"type": "note_on", "time": 6034, "note": 60, "velocity": 109, "channel": 0}, {"type": "note_off", "time": 2413, "note": 60, "velocity": 109, "channel": 0}, {"type": "note_on", "time": 804, "note": 63, "velocity": 118, "channel": 0}, {"type": "note_off", "time": 4525, "note": 63, "velocity": 118, "channel": 0}, {"type": "note_on", "time": 1599, "note": 68, "velocity": 120, "channel": 0}, {"type": "note_off", "time": 6435, "note": 68, "velocity": 120, "channel": 0}, {"type": "note_on", "time": 916, "note": 68, "velocity": 124, "channel": 0}, {"type": "note_off", "time": 5330, "note": 68, "velocity": 124, "channel": 0}, {"type": "note_on", "time": 502, "note": 66, "velocity": 119, "channel": 0}, {"type": "note_off", "time": 19913, "note": 66, "velocity": 119, "channel": 0}, {"type": "note_on", "time": 58124, "note": 71, "velocity": 126, "channel": 0}, {"type": "note_off", "time": 14425, "note": 71, "velocity": 126, "channel": 0}, {"type": "note_on", "time": 14142, "note": 75, "velocity": 121, "channel": 0}, {"type": "note_off", "time": 19234, "note": 75, "velocity": 121, "channel": 0}, {"type": "note_on", "time": 6009, "note": 79, "velocity": 119, "channel": 0}, {"type": "note_off", "time": 78848, "note": 79, "velocity": 119, "channel": 0}, {"type": "note_on", "time": 61662, "note": 71, "velocity": 125, "channel": 0}, {"type": "note_off", "time": 11597, "note": 71, "velocity": 125, "channel": 0}, {"type": "note_on", "time": 7901, "note": 75, "velocity": 118, "channel": 0}, {"type": "note_off", "time": 7354, "note": 75, "velocity": 118, "channel": 0}, {"type": "note_on", "time": 1395, "note": 79, "velocity": 119, "channel": 0}, {"type": "note_off", "time": 18605, "note": 79, "velocity": 119, "channel": 0}, {"type": "note_on", "time": 8548, "note": 77, "velocity": 120, "channel": 0}, {"type": "note_off", "time": 5430, "note": 77, "velocity": 120, "channel": 0}, {"type": "note_on", "time": 603, "note": 79, "velocity": 121, "channel": 0}, {"type": "note_off", "time": 12269, "note": 79, "velocity": 121, "channel": 0}, {"type": "note_on", "time": 8397, "note": 75, "velocity": 120, "channel": 0}, {"type": "note_off", "time": 19158, "note": 75, "velocity": 120, "channel": 0}, {"type": "note_on", "time": 8699, "note": 71, "velocity": 114, "channel": 0}, {"type": "note_off", "time": 20708, "note": 71, "velocity": 114, "channel": 0}, {"type": "note_on", "time": 361, "note": 73, "velocity": 96, "channel": 0}, {"type": "note_off", "time": 5531, "note": 73, "velocity": 96, "channel": 0}, {"type": "note_on", "time": 30875, "note": 73, "velocity": 118, "channel": 0}, {"type": "note_off", "time": 6034, "note": 73, "velocity": 118, "channel": 0}, {"type": "note_on", "time": 2614, "note": 69, "velocity": 117, "channel": 0}, {"type": "note_off", "time": 5028, "note": 69, "velocity": 117, "channel": 0}, {"type": "note_on", "time": 1206, "note": 67, "velocity": 124, "channel": 0}, {"type": "note_off", "time": 5632, "note": 67, "velocity": 124, "channel": 0}, {"type": "note_on", "time": 1206, "note": 63, "velocity": 117, "channel": 0}, {"type": "note_off", "time": 9252, "note": 63, "velocity": 117, "channel": 0}, {"type": "note_on", "time": 1408, "note": 60, "velocity": 111, "channel": 0}, {"type": "note_off", "time": 5028, "note": 60, "velocity": 111, "channel": 0}, {"type": "note_on", "time": 1810, "note": 52, "velocity": 108, "channel": 0}, {"type": "note_off", "time": 14884, "note": 52, "velocity": 108, "channel": 0}, {"type": "note_on", "time": 101174, "note": 65, "velocity": 119, "channel": 0}, {"type": "note_off", "time": 7241, "note": 65, "velocity": 119, "channel": 0}, {"type": "note_on", "time": 1005, "note": 66, "velocity": 122, "channel": 0}, {"type": "note_off", "time": 4827, "note": 66, "velocity": 122, "channel": 0}, {"type": "note_on", "time": 804, "note": 70, "velocity": 114, "channel": 0}, {"type": "note_off", "time": 6034, "note": 70, "velocity": 114, "channel": 0}, {"type": "note_on", "time": 0, "note": 66, "velocity": 120, "channel": 0}, {"type": "note_off", "time": 6235, "note": 66, "velocity": 120, "channel": 0}, {"type": "note_on", "time": 1408, "note": 65, "velocity": 120, "channel": 0}, {"type": "note_off", "time": 6838, "note": 65, "velocity": 120, "channel": 0}, {"type": "note_on", "time": 1408, "note": 63, "velocity": 121, "channel": 0}, {"type": "note_off", "time": 5229, "note": 63, "velocity": 121, "channel": 0}, {"type": "note_on", "time": 1609, "note": 65, "velocity": 108, "channel": 0}, {"type": "note_off", "time": 38820, "note": 65, "velocity": 108, "channel": 0}, {"type": "note_on", "time": 29568, "note": 65, "velocity": 121, "channel": 0}, {"type": "note_off", "time": 3620, "note": 65, "velocity": 121, "channel": 0}, {"type": "note_on", "time": 804, "note": 66, "velocity": 121, "channel": 0}, {"type": "note_off", "time": 4224, "note": 66, "velocity": 121, "channel": 0}, {"type": "note_on", "time": 804, "note": 70, "velocity": 114, "channel": 0}, {"type": "note_off", "time": 6637, "note": 70, "velocity": 114, "channel": 0}, {"type": "note_on", "time": 1005, "note": 66, "velocity": 112, "channel": 0}, {"type": "note_off", "time": 4022, "note": 66, "velocity": 112, "channel": 0}, {"type": "note_on", "time": 1206, "note": 65, "velocity": 115, "channel": 0}, {"type": "note_off", "time": 7442, "note": 65, "velocity": 115, "channel": 0}, {"type": "note_on", "time": 1206, "note": 63, "velocity": 115, "channel": 0}, {"type": "note_off", "time": 6436, "note": 63, "velocity": 115, "channel": 0}, {"type": "note_on", "time": 2816, "note": 69, "velocity": 110, "channel": 0}, {"type": "note_off", "time": 43647, "note": 69, "velocity": 110, "channel": 0}, {"type": "note_on", "time": 26953, "note": 65, "velocity": 124, "channel": 0}, {"type": "note_off", "time": 3821, "note": 65, "velocity": 124, "channel": 0}, {"type": "note_on", "time": 603, "note": 66, "velocity": 121, "channel": 0}, {"type": "note_off", "time": 5833, "note": 66, "velocity": 121, "channel": 0}, {"type": "note_on", "time": 603, "note": 69, "velocity": 116, "channel": 0}, {"type": "note_off", "time": 6235, "note": 69, "velocity": 116, "channel": 0}, {"type": "note_on", "time": 603, "note": 66, "velocity": 116, "channel": 0}, {"type": "note_off", "time": 4022, "note": 66, "velocity": 116, "channel": 0}, {"type": "note_on", "time": 1005, "note": 65, "velocity": 116, "channel": 0}, {"type": "note_off", "time": 4827, "note": 65, "velocity": 116, "channel": 0}, {"type": "note_on", "time": 402, "note": 62, "velocity": 118, "channel": 0}, {"type": "note_off", "time": 5430, "note": 62, "velocity": 118, "channel": 0}, {"type": "note_on", "time": 2413, "note": 65, "velocity": 114, "channel": 0}, {"type": "note_off", "time": 28361, "note": 65, "velocity": 114, "channel": 0}, {"type": "note_on", "time": 2816, "note": 66, "velocity": 118, "channel": 0}, {"type": "note_off", "time": 5229, "note": 66, "velocity": 118, "channel": 0}, {"type": "note_on", "time": 201, "note": 69, "velocity": 116, "channel": 0}, {"type": "note_off", "time": 3017, "note": 69, "velocity": 116, "channel": 0}, {"type": "note_on", "time": 603, "note": 70, "velocity": 120, "channel": 0}, {"type": "note_off", "time": 4827, "note": 70, "velocity": 120, "channel": 0}, {"type": "note_on", "time": 603, "note": 66, "velocity": 118, "channel": 0}, {"type": "note_off", "time": 4827, "note": 66, "velocity": 118, "channel": 0}, {"type": "note_on", "time": 1030, "note": 65, "velocity": 114, "channel": 0}, {"type": "note_off", "time": 26447, "note": 65, "velocity": 114, "channel": 0}, {"type": "note_on", "time": 47095, "note": 62, "velocity": 126, "channel": 0}, {"type": "note_off", "time": 3677, "note": 62, "velocity": 126, "channel": 0}, {"type": "note_on", "time": 1414, "note": 63, "velocity": 122, "channel": 0}, {"type": "note_off", "time": 5374, "note": 63, "velocity": 122, "channel": 0}, {"type": "note_on", "time": 1414, "note": 65, "velocity": 118, "channel": 0}, {"type": "note_off", "time": 7212, "note": 65, "velocity": 118, "channel": 0}, {"type": "note_on", "time": 565, "note": 63, "velocity": 118, "channel": 0}, {"type": "note_off", "time": 5515, "note": 63, "velocity": 118, "channel": 0}, {"type": "note_on", "time": 990, "note": 62, "velocity": 118, "channel": 0}, {"type": "note_off", "time": 4384, "note": 62, "velocity": 118, "channel": 0}, {"type": "note_on", "time": 1697, "note": 60, "velocity": 123, "channel": 0}, {"type": "note_off", "time": 7354, "note": 60, "velocity": 123, "channel": 0}, {"type": "note_on", "time": 1414, "note": 58, "velocity": 108, "channel": 0}, {"type": "note_off", "time": 5232, "note": 58, "velocity": 108, "channel": 0}, {"type": "note_on", "time": 1697, "note": 56, "velocity": 111, "channel": 0}, {"type": "note_off", "time": 5940, "note": 56, "velocity": 111, "channel": 0}, {"type": "note_on", "time": 424, "note": 55, "velocity": 112, "channel": 0}, {"type": "note_off", "time": 6081, "note": 55, "velocity": 112, "channel": 0}, {"type": "note_on", "time": 2121, "note": 53, "velocity": 110, "channel": 0}, {"type": "note_off", "time": 3960, "note": 53, "velocity": 110, "channel": 0}, {"type": "note_on", "time": 1838, "note": 51, "velocity": 108, "channel": 0}, {"type": "note_off", "time": 4525, "note": 51, "velocity": 108, "channel": 0}, {"type": "note_on", "time": 1414, "note": 50, "velocity": 106, "channel": 0}, {"type": "note_off", "time": 6222, "note": 50, "velocity": 106, "channel": 0}, {"type": "note_on", "time": 990, "note": 53, "velocity": 113, "channel": 0}, {"type": "note_off", "time": 5940, "note": 53, "velocity": 113, "channel": 0}, {"type": "note_on", "time": 1131, "note": 50, "velocity": 111, "channel": 0}, {"type": "note_off", "time": 4384, "note": 50, "velocity": 111, "channel": 0}, {"type": "note_on", "time": 1414, "note": 51, "velocity": 118, "channel": 0}, {"type": "note_off", "time": 5374, "note": 51, "velocity": 118, "channel": 0}, {"type": "note_on", "time": 1272, "note": 53, "velocity": 111, "channel": 0}, {"type": "note_off", "time": 5798, "note": 53, "velocity": 111, "channel": 0}, {"type": "note_on", "time": 565, "note": 55, "velocity": 109, "channel": 0}, {"type": "note_off", "time": 5515, "note": 55, "velocity": 109, "channel": 0}, {"type": "note_on", "time": 707, "note": 56, "velocity": 104, "channel": 0}, {"type": "note_off", "time": 6505, "note": 56, "velocity": 104, "channel": 0}, {"type": "note_on", "time": 1131, "note": 58, "velocity": 103, "channel": 0}, {"type": "note_off", "time": 3677, "note": 58, "velocity": 103, "channel": 0}, {"type": "note_on", "time": 3677, "note": 53, "velocity": 105, "channel": 0}, {"type": "note_off", "time": 1414, "note": 53, "velocity": 105, "channel": 0}, {"type": "note_on", "time": 707, "note": 55, "velocity": 108, "channel": 0}, {"type": "note_off", "time": 2970, "note": 55, "velocity": 108, "channel": 0}, {"type": "note_on", "time": 990, "note": 56, "velocity": 105, "channel": 0}, {"type": "note_off", "time": 5940, "note": 56, "velocity": 105, "channel": 0}, {"type": "note_on", "time": 848, "note": 58, "velocity": 105, "channel": 0}, {"type": "note_off", "time": 2404, "note": 58, "velocity": 105, "channel": 0}, {"type": "note_on", "time": 141, "note": 62, "velocity": 110, "channel": 0}, {"type": "note_off", "time": 6647, "note": 62, "velocity": 110, "channel": 0}, {"type": "note_on", "time": 565, "note": 63, "velocity": 110, "channel": 0}, {"type": "note_off", "time": 4808, "note": 63, "velocity": 110, "channel": 0}, {"type": "note_on", "time": 1555, "note": 62, "velocity": 111, "channel": 0}, {"type": "note_off", "time": 3111, "note": 62, "velocity": 111, "channel": 0}, {"type": "note_on", "time": 1131, "note": 65, "velocity": 119, "channel": 0}, {"type": "note_off", "time": 5657, "note": 65, "velocity": 119, "channel": 0}, {"type": "note_on", "time": 1272, "note": 62, "velocity": 116, "channel": 0}, {"type": "note_off", "time": 3818, "note": 62, "velocity": 116, "channel": 0}, {"type": "note_on", "time": 1414, "note": 63, "velocity": 120, "channel": 0}, {"type": "note_off", "time": 5940, "note": 63, "velocity": 120, "channel": 0}, {"type": "note_on", "time": 707, "note": 65, "velocity": 112, "channel": 0}, {"type": "note_off", "time": 8627, "note": 65, "velocity": 112, "channel": 0}, {"type": "note_on", "time": 282, "note": 67, "velocity": 118, "channel": 0}, {"type": "note_off", "time": 4667, "note": 67, "velocity": 118, "channel": 0}, {"type": "note_on", "time": 565, "note": 70, "velocity": 109, "channel": 0}, {"type": "note_off", "time": 3818, "note": 70, "velocity": 109, "channel": 0}, {"type": "note_on", "time": 707, "note": 67, "velocity": 115, "channel": 0}, {"type": "note_off", "time": 3535, "note": 67, "velocity": 115, "channel": 0}, {"type": "note_on", "time": 565, "note": 76, "velocity": 113, "channel": 0}, {"type": "note_off", "time": 51338, "note": 76, "velocity": 113, "channel": 0}, {"type": "note_on", "time": 1697, "note": 76, "velocity": 114, "channel": 0}, {"type": "note_off", "time": 7637, "note": 76, "velocity": 114, "channel": 0}, {"type": "note_on", "time": 707, "note": 75, "velocity": 117, "channel": 0}, {"type": "note_off", "time": 4525, "note": 75, "velocity": 117, "channel": 0}, {"type": "note_on", "time": 989, "note": 74, "velocity": 113, "channel": 0}, {"type": "note_off", "time": 6788, "note": 74, "velocity": 113, "channel": 0}, {"type": "note_on", "time": 565, "note": 72, "velocity": 118, "channel": 0}, {"type": "note_off", "time": 7071, "note": 72, "velocity": 118, "channel": 0}, {"type": "note_on", "time": 848, "note": 71, "velocity": 122, "channel": 0}, {"type": "note_off", "time": 6222, "note": 71, "velocity": 122, "channel": 0}, {"type": "note_on", "time": 777, "note": 69, "velocity": 115, "channel": 0}, {"type": "note_off", "time": 12516, "note": 69, "velocity": 115, "channel": 0}, {"type": "note_on", "time": 2262, "note": 66, "velocity": 111, "channel": 0}, {"type": "note_off", "time": 3252, "note": 66, "velocity": 111, "channel": 0}, {"type": "note_on", "time": 848, "note": 69, "velocity": 118, "channel": 0}, {"type": "note_off", "time": 8344, "note": 69, "velocity": 118, "channel": 0}, {"type": "note_on", "time": 282, "note": 66, "velocity": 113, "channel": 0}, {"type": "note_off", "time": 4101, "note": 66, "velocity": 113, "channel": 0}, {"type": "note_on", "time": 1131, "note": 67, "velocity": 120, "channel": 0}, {"type": "note_off", "time": 6788, "note": 67, "velocity": 120, "channel": 0}, {"type": "note_on", "time": 989, "note": 65, "velocity": 116, "channel": 0}, {"type": "note_off", "time": 7071, "note": 65, "velocity": 116, "channel": 0}, {"type": "note_on", "time": 990, "note": 63, "velocity": 112, "channel": 0}, {"type": "note_off", "time": 4950, "note": 63, "velocity": 112, "channel": 0}, {"type": "note_on", "time": 1272, "note": 62, "velocity": 119, "channel": 0}, {"type": "note_off", "time": 5091, "note": 62, "velocity": 119, "channel": 0}, {"type": "note_on", "time": 1555, "note": 60, "velocity": 119, "channel": 0}, {"type": "note_off", "time": 6081, "note": 60, "velocity": 119, "channel": 0}, {"type": "note_on", "time": 424, "note": 58, "velocity": 113, "channel": 0}, {"type": "note_off", "time": 3818, "note": 58, "velocity": 113, "channel": 0}, {"type": "note_on", "time": 4525, "note": 56, "velocity": 106, "channel": 0}, {"type": "note_off", "time": 5940, "note": 56, "velocity": 106, "channel": 0}, {"type": "note_on", "time": 707, "note": 55, "velocity": 106, "channel": 0}, {"type": "note_off", "time": 6647, "note": 55, "velocity": 106, "channel": 0}, {"type": "note_on", "time": 282, "note": 53, "velocity": 107, "channel": 0}, {"type": "note_off", "time": 3818, "note": 53, "velocity": 107, "channel": 0}, {"type": "note_on", "time": 282, "note": 51, "velocity": 106, "channel": 0}, {"type": "note_off", "time": 4525, "note": 51, "velocity": 106, "channel": 0}, {"type": "note_on", "time": 1272, "note": 48, "velocity": 104, "channel": 0}, {"type": "note_off", "time": 3818, "note": 48, "velocity": 104, "channel": 0}, {"type": "note_on", "time": 1697, "note": 51, "velocity": 108, "channel": 0}, {"type": "note_off", "time": 5798, "note": 51, "velocity": 108, "channel": 0}, {"type": "note_on", "time": 1838, "note": 48, "velocity": 103, "channel": 0}, {"type": "note_off", "time": 3960, "note": 48, "velocity": 103, "channel": 0}, {"type": "note_on", "time": 707, "note": 50, "velocity": 101, "channel": 0}, {"type": "note_off", "time": 7354, "note": 50, "velocity": 101, "channel": 0}, {"type": "note_on", "time": 565, "note": 46, "velocity": 103, "channel": 0}, {"type": "note_off", "time": 12162, "note": 46, "velocity": 103, "channel": 0}, {"type": "note_on", "time": 64208, "note": 55, "velocity": 109, "channel": 0}, {"type": "note_off", "time": 6788, "note": 55, "velocity": 109, "channel": 0}, {"type": "note_on", "time": 2970, "note": 58, "velocity": 113, "channel": 0}, {"type": "note_off", "time": 3394, "note": 58, "velocity": 113, "channel": 0}, {"type": "note_on", "time": 0, "note": 62, "velocity": 116, "channel": 0}, {"type": "note_off", "time": 3111, "note": 62, "velocity": 116, "channel": 0}, {"type": "note_on", "time": 141, "note": 67, "velocity": 121, "channel": 0}, {"type": "note_off", "time": 36347, "note": 67, "velocity": 121, "channel": 0}, {"type": "note_on", "time": 848, "note": 68, "velocity": 117, "channel": 0}, {"type": "note_off", "time": 15557, "note": 68, "velocity": 117, "channel": 0}, {"type": "note_on", "time": 707, "note": 71, "velocity": 114, "channel": 0}, {"type": "note_off", "time": 53742, "note": 71, "velocity": 114, "channel": 0}, {"type": "note_on", "time": 24042, "note": 71, "velocity": 117, "channel": 0}, {"type": "note_off", "time": 4384, "note": 71, "velocity": 117, "channel": 0}, {"type": "note_on", "time": 1555, "note": 72, "velocity": 114, "channel": 0}, {"type": "note_off", "time": 5232, "note": 72, "velocity": 114, "channel": 0}, {"type": "note_on", "time": 1414, "note": 73, "velocity": 106, "channel": 0}, {"type": "note_off", "time": 3252, "note": 73, "velocity": 106, "channel": 0}, {"type": "note_on", "time": 1555, "note": 74, "velocity": 121, "channel": 0}, {"type": "note_off", "time": 6930, "note": 74, "velocity": 121, "channel": 0}, {"type": "note_on", "time": 848, "note": 75, "velocity": 117, "channel": 0}, {"type": "note_off", "time": 4525, "note": 75, "velocity": 117, "channel": 0}, {"type": "note_on", "time": 2093, "note": 76, "velocity": 121, "channel": 0}, {"type": "note_off", "time": 7241, "note": 76, "velocity": 121, "channel": 0}, {"type": "note_on", "time": 603, "note": 77, "velocity": 117, "channel": 0}, {"type": "note_off", "time": 4123, "note": 77, "velocity": 117, "channel": 0}, {"type": "note_on", "time": 502, "note": 76, "velocity": 119, "channel": 0}, {"type": "note_off", "time": 5330, "note": 76, "velocity": 119, "channel": 0}, {"type": "note_on", "time": 1005, "note": 75, "velocity": 121, "channel": 0}, {"type": "note_off", "time": 4928, "note": 75, "velocity": 121, "channel": 0}, {"type": "note_on", "time": 703, "note": 74, "velocity": 120, "channel": 0}, {"type": "note_off", "time": 7442, "note": 74, "velocity": 120, "channel": 0}, {"type": "note_on", "time": 201, "note": 72, "velocity": 121, "channel": 0}, {"type": "note_off", "time": 6235, "note": 72, "velocity": 121, "channel": 0}, {"type": "note_on", "time": 704, "note": 71, "velocity": 121, "channel": 0}, {"type": "note_off", "time": 7643, "note": 71, "velocity": 121, "channel": 0}, {"type": "note_on", "time": 301, "note": 69, "velocity": 120, "channel": 0}, {"type": "note_off", "time": 6738, "note": 69, "velocity": 120, "channel": 0}, {"type": "note_on", "time": 278, "note": 70, "velocity": 109, "channel": 0}, {"type": "note_off", "time": 6776, "note": 70, "velocity": 109, "channel": 0}, {"type": "note_on", "time": 1293, "note": 66, "velocity": 109, "channel": 0}, {"type": "note_off", "time": 4022, "note": 66, "velocity": 109, "channel": 0}, {"type": "note_on", "time": 1609, "note": 69, "velocity": 119, "channel": 0}, {"type": "note_off", "time": 6336, "note": 69, "velocity": 119, "channel": 0}, {"type": "note_on", "time": 603, "note": 66, "velocity": 117, "channel": 0}, {"type": "note_off", "time": 3318, "note": 66, "velocity": 117, "channel": 0}, {"type": "note_on", "time": 905, "note": 67, "velocity": 121, "channel": 0}, {"type": "note_off", "time": 9051, "note": 67, "velocity": 121, "channel": 0}, {"type": "note_on", "time": 301, "note": 65, "velocity": 118, "channel": 0}, {"type": "note_off", "time": 5732, "note": 65, "velocity": 118, "channel": 0}, {"type": "note_on", "time": 603, "note": 62, "velocity": 112, "channel": 0}, {"type": "note_off", "time": 4224, "note": 62, "velocity": 112, "channel": 0}, {"type": "note_on", "time": 1681, "note": 63, "velocity": 116, "channel": 0}, {"type": "note_off", "time": 7040, "note": 63, "velocity": 116, "channel": 0}, {"type": "note_on", "time": 738, "note": 64, "velocity": 120, "channel": 0}, {"type": "note_off", "time": 5732, "note": 64, "velocity": 120, "channel": 0}, {"type": "note_on", "time": 1401, "note": 65, "velocity": 120, "channel": 0}, {"type": "note_off", "time": 4726, "note": 65, "velocity": 120, "channel": 0}, {"type": "note_on", "time": 603, "note": 64, "velocity": 118, "channel": 0}, {"type": "note_off", "time": 6436, "note": 64, "velocity": 118, "channel": 0}, {"type": "note_on", "time": 402, "note": 63, "velocity": 122, "channel": 0}, {"type": "note_off", "time": 5632, "note": 63, "velocity": 122, "channel": 0}, {"type": "note_on", "time": 1087, "note": 62, "velocity": 114, "channel": 0}, {"type": "note_off", "time": 4384, "note": 62, "velocity": 114, "channel": 0}, {"type": "note_on", "time": 4525, "note": 61, "velocity": 118, "channel": 0}, {"type": "note_off", "time": 6505, "note": 61, "velocity": 118, "channel": 0}, {"type": "note_on", "time": 1555, "note": 60, "velocity": 118, "channel": 0}, {"type": "note_off", "time": 6222, "note": 60, "velocity": 118, "channel": 0}, {"type": "note_on", "time": 1131, "note": 58, "velocity": 111, "channel": 0}, {"type": "note_off", "time": 4667, "note": 58, "velocity": 111, "channel": 0}, {"type": "note_on", "time": 848, "note": 56, "velocity": 106, "channel": 0}, {"type": "note_off", "time": 8061, "note": 56, "velocity": 106, "channel": 0}, {"type": "note_on", "time": 282, "note": 55, "velocity": 107, "channel": 0}, {"type": "note_off", "time": 5374, "note": 55, "velocity": 107, "channel": 0}, {"type": "note_on", "time": 282, "note": 53, "velocity": 102, "channel": 0}, {"type": "note_off", "time": 2121, "note": 53, "velocity": 102, "channel": 0}, {"type": "note_on", "time": 707, "note": 51, "velocity": 104, "channel": 0}, {"type": "note_off", "time": 1697, "note": 51, "velocity": 104, "channel": 0}, {"type": "note_on", "time": 848, "note": 48, "velocity": 106, "channel": 0}, {"type": "note_off", "time": 5091, "note": 48, "velocity": 106, "channel": 0}, {"type": "note_on", "time": 1697, "note": 51, "velocity": 110, "channel": 0}, {"type": "note_off", "time": 2121, "note": 51, "velocity": 110, "channel": 0}, {"type": "note_on", "time": 282, "note": 54, "velocity": 105, "channel": 0}, {"type": "note_off", "time": 24608, "note": 54, "velocity": 105, "channel": 0}, {"type": "note_on", "time": 27012, "note": 54, "velocity": 97, "channel": 0}, {"type": "note_off", "time": 71421, "note": 54, "velocity": 97, "channel": 0}, {"type": "note_on", "time": 707, "note": 55, "velocity": 113, "channel": 0}, {"type": "note_off", "time": 6364, "note": 55, "velocity": 113, "channel": 0}, {"type": "note_on", "time": 22628, "note": 73, "velocity": 120, "channel": 0}, {"type": "note_off", "time": 4950, "note": 73, "velocity": 120, "channel": 0}, {"type": "note_on", "time": 565, "note": 74, "velocity": 110, "channel": 0}, {"type": "note_off", "time": 3252, "note": 74, "velocity": 110, "channel": 0}, {"type": "note_on", "time": 2262, "note": 54, "velocity": 105, "channel": 0}, {"type": "note_off", "time": 18102, "note": 54, "velocity": 105, "channel": 0}, {"type": "note_on", "time": 0, "note": 57, "velocity": 115, "channel": 0}, {"type": "note_off", "time": 4101, "note": 57, "velocity": 115, "channel": 0}, {"type": "note_on", "time": 565, "note": 56, "velocity": 109, "channel": 0}, {"type": "note_off", "time": 2828, "note": 56, "velocity": 109, "channel": 0}, {"type": "note_on", "time": 11880, "note": 54, "velocity": 103, "channel": 0}, {"type": "note_off", "time": 28709, "note": 54, "velocity": 103, "channel": 0}, {"type": "note_on", "time": 141, "note": 57, "velocity": 115, "channel": 0}, {"type": "note_off", "time": 3111, "note": 57, "velocity": 115, "channel": 0}, {"type": "note_on", "time": 424, "note": 56, "velocity": 101, "channel": 0}, {"type": "note_off", "time": 3017, "note": 56, "velocity": 101, "channel": 0}, {"type": "note_on", "time": 7590, "note": 54, "velocity": 97, "channel": 0}, {"type": "note_off", "time": 81745, "note": 54, "velocity": 97, "channel": 0}, {"type": "note_on", "time": 565, "note": 53, "velocity": 9, "channel": 0}, {"type": "note_off", "time": 76230, "note": 53, "velocity": 9, "channel": 0}, {"type": "end_of_track", "time": 0}]]}