{"ticks_per_beat": 192, "tracks": [[{"type": "track_name", "name": "Melody", "time": 0}, {"type": "set_tempo", "tempo": 254237, "time": 0}, {"type": "key_signature", "key": "F", "time": 0}, {"type": "time_signature", "numerator": 4, "denominator": 4, "clocks_per_click": 24, "notated_32nd_notes_per_beat": 8, "time": 0}, {"type": "note_on", "time": 3454, "note": 72, "velocity": 113, "channel": 0}, {"type": "note_off", "time": 103, "note": 72, "velocity": 113, "channel": 0}, {"type": "note_on", "time": 4, "note": 73, "velocity": 116, "channel": 0}, {"type": "note_off", "time": 98, "note": 73, "velocity": 116, "channel": 0}, {"type": "note_on", "time": 8, "note": 70, "velocity": 115, "channel": 0}, {"type": "note_off", "time": 92, "note": 70, "velocity": 115, "channel": 0}, {"type": "note_on", "time": 6, "note": 66, "velocity": 114, "channel": 0}, {"type": "note_off", "time": 87, "note": 66, "velocity": 114, "channel": 0}, {"type": "note_on", "time": 6, "note": 61, "velocity": 103, "channel": 0}, {"type": "note_off", "time": 124, "note": 61, "velocity": 103, "channel": 0}, {"type": "note_on", "time": 6, "note": 57, "velocity": 94, "channel": 0}, {"type": "note_off", "time": 59, "note": 57, "velocity": 94, "channel": 0}, {"type": "note_on", "time": 10, "note": 61, "velocity": 111, "channel": 0}, {"type": "note_off", "time": 109, "note": 61, "velocity": 111, "channel": 0}, {"type": "note_on", "time": 8, "note": 59, "velocity": 95, "channel": 0}, {"type": "note_off", "time": 54, "note": 59, "velocity": 95, "channel": 0}, {"type": "note_on", "time": 4, "note": 60, "velocity": 110, "channel": 0}, {"type": "note_off", "time": 103, "note": 60, "velocity": 110, "channel": 0}, {"type": "note_on", "time": 56, "note": 60, "velocity": 104, "channel": 0}, {"type": "note_off", "time": 54, "note": 60, "velocity": 104, "channel": 0}, {"type": "note_on", "time": 17, "note": 56, "velocity": 94, "channel": 0}, {"type": "note_off", "time": 103, "note": 56, "velocity": 94, "channel": 0}, {"type": "note_on", "time": 15, "note": 64, "velocity": 101, "channel": 0}, {"type": "note_off", "time": 41, "note": 64, "velocity": 101, "channel": 0}, {"type": "note_on", "time": 10, "note": 68, "velocity": 122, "channel": 0}, {"type": "note_off", "time": 118, "note": 68, "velocity": 122, "channel": 0}, {"type": "note_on", "time": 13, "note": 70, "velocity": 115, "channel": 0}, {"type": "note_off", "time": 54, "note": 70, "velocity": 115, "channel": 0}, {"type": "note_on", "time": 8, "note": 66, "velocity": 117, "channel": 0}, {"type": "note_off", "time": 67, "note": 66, "velocity": 117, "channel": 0}, {"type": "note_on", "time": 24, "note": 63, "velocity": 110, "channel": 0}, {"type": "note_off", "time": 92, "note": 63, "velocity": 110, "channel": 0}, {"type": "note_on", "time": 10, "note": 58, "velocity": 100, "channel": 0}, {"type": "note_off", "time": 111, "note": 58, "velocity": 100, "channel": 0}, {"type": "note_on", "time": 94, "note": 61, "velocity": 112, "channel": 0}, {"type": "note_off", "time": 116, "note": 61, "velocity": 112, "channel": 0}, {"type": "note_on", "time": 50, "note": 57, "velocity": 91, "channel": 0}, {"type": "note_off", "time": 46, "note": 57, "velocity": 91, "channel": 0}, {"type": "note_on", "time": 4, "note": 58, "velocity": 97, "channel": 0}, {"type": "note_off", "time": 89, "note": 58, "velocity": 97, "channel": 0}, {"type": "note_on", "time": 2, "note": 61, "velocity": 112, "channel": 0}, {"type": "note_off", "time": 81, "note": 61, "velocity": 112, "channel": 0}, {"type": "note_on", "time": 265, "note": 61, "velocity": 103, "channel": 0}, {"type": "note_off", "time": 49, "note": 61, "velocity": 103, "channel": 0}, {"type": "note_on", "time": 0, "note": 63, "velocity": 111, "channel": 0}, {"type": "note_off", "time": 39, "note": 63, "velocity": 111, "channel": 0}, {"type": "note_on", "time": 15, "note": 66, "velocity": 109, "channel": 0}, {"type": "note_off", "time": 43, "note": 66, "velocity": 109, "channel": 0}, {"type": "note_on", "time": 2, "note": 67, "velocity": 112, "channel": 0}, {"type": "note_off", "time": 56, "note": 67, "velocity": 112, "channel": 0}, {"type": "note_on", "time": 10, "note": 68, "velocity": 109, "channel": 0}, {"type": "note_off", "time": 41, "note": 68, "velocity": 109, "channel": 0}, {"type": "note_on", "time": 1, "note": 71, "velocity": 115, "channel": 0}, {"type": "note_off", "time": 44, "note": 71, "velocity": 115, "channel": 0}, {"type": "note_on", "time": 15, "note": 75, "velocity": 110, "channel": 0}, {"type": "note_off", "time": 37, "note": 75, "velocity": 110, "channel": 0}, {"type": "note_on", "time": 6, "note": 77, "velocity": 111, "channel": 0}, {"type": "note_off", "time": 41, "note": 77, "velocity": 111, "channel": 0}, {"type": "note_on", "time": 8, "note": 78, "velocity": 109, "channel": 0}, {"type": "note_off", "time": 48, "note": 78, "velocity": 109, "channel": 0}, {"type": "note_on", "time": 4, "note": 79, "velocity": 112, "channel": 0}, {"type": "note_off", "time": 48, "note": 79, "velocity": 112, "channel": 0}, {"type": "note_on", "time": 0, "note": 77, "velocity": 101, "channel": 0}, {"type": "note_off", "time": 36, "note": 77, "velocity": 101, "channel": 0}, {"type": "note_on", "time": 5, "note": 75, "velocity": 111, "channel": 0}, {"type": "note_off", "time": 54, "note": 75, "velocity": 111, "channel": 0}, {"type": "note_on", "time": 13, "note": 72, "velocity": 108, "channel": 0}, {"type": "note_off", "time": 59, "note": 72, "velocity": 108, "channel": 0}, {"type": "note_on", "time": 10, "note": 76, "velocity": 109, "channel": 0}, {"type": "note_off", "time": 41, "note": 76, "velocity": 109, "channel": 0}, {"type": "note_on", "time": 10, "note": 75, "velocity": 110, "channel": 0}, {"type": "note_off", "time": 41, "note": 75, "velocity": 110, "channel": 0}, {"type": "note_on", "time": 4, "note": 74, "velocity": 112, "channel": 0}, {"type": "note_off", "time": 30, "note": 74, "velocity": 112, "channel": 0}, {"type": "note_on", "time": 0, "note": 72, "velocity": 111, "channel": 0}, {"type": "note_off", "time": 63, "note": 72, "velocity": 111, "channel": 0}, {"type": "note_on", "time": 4, "note": 68, "velocity": 113, "channel": 0}, {"type": "note_off", "time": 41, "note": 68, "velocity": 113, "channel": 0}, {"type": "note_on", "time": 8, "note": 67, "velocity": 115, "channel": 0}, {"type": "note_off", "time": 41, "note": 67, "velocity": 115, "channel": 0}, {"type": "note_on", "time": 10, "note": 63, "velocity": 103, "channel": 0}, {"type": "note_off", "time": 37, "note": 63, "velocity": 103, "channel": 0}, {"type": "note_on", "time": 8, "note": 61, "velocity": 96, "channel": 0}, {"type": "note_off", "time": 35, "note": 61, "velocity": 96, "channel": 0}, {"type": "note_on", "time": 6, "note": 63, "velocity": 105, "channel": 0}, {"type": "note_off", "time": 37, "note": 63, "velocity": 105, "channel": 0}, {"type": "note_on", "time": 4, "note": 67, "velocity": 114, "channel": 0}, {"type": "note_off", "time": 46, "note": 67, "velocity": 114, "channel": 0}, {"type": "note_on", "time": 6, "note": 63, "velocity": 112, "channel": 0}, {"type": "note_off", "time": 30, "note": 63, "velocity": 112, "channel": 0}, {"type": "note_on", "time": 6, "note": 65, "velocity": 113, "channel": 0}, {"type": "note_off", "time": 43, "note": 65, "velocity": 113, "channel": 0}, {"type": "note_on", "time": 8, "note": 66, "velocity": 104, "channel": 0}, {"type": "note_off", "time": 28, "note": 66, "velocity": 104, "channel": 0}, {"type": "note_on", "time": 21, "note": 67, "velocity": 110, "channel": 0}, {"type": "note_off", "time": 54, "note": 67, "velocity": 110, "channel": 0}, {"type": "note_on", "time": 8, "note": 68, "velocity": 97, "channel": 0}, {"type": "note_off", "time": 39, "note": 68, "velocity": 97, "channel": 0}, {"type": "note_on", "time": 13, "note": 71, "velocity": 113, "channel": 0}, {"type": "note_off", "time": 50, "note": 71, "velocity": 113, "channel": 0}, {"type": "note_on", "time": 9, "note": 68, "velocity": 112, "channel": 0}, {"type": "note_off", "time": 30, "note": 68, "velocity": 112, "channel": 0}, {"type": "note_on", "time": 6, "note": 67, "velocity": 113, "channel": 0}, {"type": "note_off", "time": 37, "note": 67, "velocity": 113, "channel": 0}, {"type": "note_on", "time": 4, "note": 65, "velocity": 108, "channel": 0}, {"type": "note_off", "time": 32, "note": 65, "velocity": 108, "channel": 0}, {"type": "note_on", "time": 8, "note": 63, "velocity": 104, "channel": 0}, {"type": "note_off", "time": 43, "note": 63, "velocity": 104, "channel": 0}, {"type": "note_on", "time": 4, "note": 61, "velocity": 103, "channel": 0}, {"type": "note_off", "time": 32, "note": 61, "velocity": 103, "channel": 0}, {"type": "note_on", "time": 9, "note": 59, "velocity": 99, "channel": 0}, {"type": "note_off", "time": 85, "note": 59, "velocity": 99, "channel": 0}, {"type": "note_on", "time": 2, "note": 63, "velocity": 93, "channel": 0}, {"type": "note_off", "time": 39, "note": 63, "velocity": 93, "channel": 0}, {"type": "note_on", "time": 0, "note": 68, "velocity": 116, "channel": 0}, {"type": "note_off", "time": 78, "note": 68, "velocity": 116, "channel": 0}, {"type": "note_on", "time": 227, "note": 63, "velocity": 112, "channel": 0}, {"type": "note_off", "time": 72, "note": 63, "velocity": 112, "channel": 0}, {"type": "note_on", "time": 10, "note": 66, "velocity": 118, "channel": 0}, {"type": "note_off", "time": 89, "note": 66, "velocity": 118, "channel": 0}, {"type": "note_on", "time": 24, "note": 72, "velocity": 116, "channel": 0}, {"type": "note_off", "time": 72, "note": 72, "velocity": 116, "channel": 0}, {"type": "note_on", "time": 8, "note": 70, "velocity": 115, "channel": 0}, {"type": "note_off", "time": 96, "note": 70, "velocity": 115, "channel": 0}, {"type": "note_on", "time": 13, "note": 66, "velocity": 115, "channel": 0}, {"type": "note_off", "time": 85, "note": 66, "velocity": 115, "channel": 0}, {"type": "note_on", "time": 6, "note": 61, "velocity": 110, "channel": 0}, {"type": "note_off", "time": 94, "note": 61, "velocity": 110, "channel": 0}, {"type": "note_on", "time": 4, "note": 57, "velocity": 95, "channel": 0}, {"type": "note_off", "time": 48, "note": 57, "velocity": 95, "channel": 0}, {"type": "note_on", "time": 17, "note": 61, "velocity": 113, "channel": 0}, {"type": "note_off", "time": 105, "note": 61, "velocity": 113, "channel": 0}, {"type": "note_on", "time": 8, "note": 58, "velocity": 106, "channel": 0}, {"type": "note_off", "time": 26, "note": 58, "velocity": 106, "channel": 0}, {"type": "note_on", "time": 8, "note": 54, "velocity": 108, "channel": 0}, {"type": "note_off", "time": 43, "note": 54, "velocity": 108, "channel": 0}, {"type": "note_on", "time": 8, "note": 55, "velocity": 103, "channel": 0}, {"type": "note_off", "time": 63, "note": 55, "velocity": 103, "channel": 0}, {"type": "note_on", "time": 17, "note": 54, "velocity": 110, "channel": 0}, {"type": "note_off", "time": 52, "note": 54, "velocity": 110, "channel": 0}, {"type": "note_on", "time": 13, "note": 56, "velocity": 106, "channel": 0}, {"type": "note_off", "time": 63, "note": 56, "velocity": 106, "channel": 0}, {"type": "note_on", "time": 13, "note": 60, "velocity": 105, "channel": 0}, {"type": "note_off", "time": 39, "note": 60, "velocity": 105, "channel": 0}, {"type": "note_on", "time": 6, "note": 63, "velocity": 102, "channel": 0}, {"type": "note_off", "time": 48, "note": 63, "velocity": 102, "channel": 0}, {"type": "note_on", "time": 0, "note": 66, "velocity": 117, "channel": 0}, {"type": "note_off", "time": 50, "note": 66, "velocity": 117, "channel": 0}, {"type": "note_on", "time": 0, "note": 67, "velocity": 116, "channel": 0}, {"type": "note_off", "time": 28, "note": 67, "velocity": 116, "channel": 0}, {"type": "note_on", "time": 10, "note": 68, "velocity": 109, "channel": 0}, {"type": "note_off", "time": 78, "note": 68, "velocity": 109, "channel": 0}, {"type": "note_on", "time": 4, "note": 72, "velocity": 111, "channel": 0}, {"type": "note_off", "time": 41, "note": 72, "velocity": 111, "channel": 0}, {"type": "note_on", "time": 0, "note": 75, "velocity": 113, "channel": 0}, {"type": "note_off", "time": 76, "note": 75, "velocity": 113, "channel": 0}, {"type": "note_on", "time": 6, "note": 73, "velocity": 109, "channel": 0}, {"type": "note_off", "time": 37, "note": 73, "velocity": 109, "channel": 0}, {"type": "note_on", "time": 2, "note": 70, "velocity": 113, "channel": 0}, {"type": "note_off", "time": 41, "note": 70, "velocity": 113, "channel": 0}, {"type": "note_on", "time": 0, "note": 72, "velocity": 103, "channel": 0}, {"type": "note_off", "time": 61, "note": 72, "velocity": 103, "channel": 0}, {"type": "note_on", "time": 13, "note": 73, "velocity": 121, "channel": 0}, {"type": "note_off", "time": 30, "note": 73, "velocity": 121, "channel": 0}, {"type": "note_on", "time": 6, "note": 75, "velocity": 107, "channel": 0}, {"type": "note_off", "time": 54, "note": 75, "velocity": 107, "channel": 0}, {"type": "note_on", "time": 13, "note": 72, "velocity": 117, "channel": 0}, {"type": "note_off", "time": 41, "note": 72, "velocity": 117, "channel": 0}, {"type": "note_on", "time": 0, "note": 67, "velocity": 111, "channel": 0}, {"type": "note_off", "time": 140, "note": 67, "velocity": 111, "channel": 0}, {"type": "note_on", "time": 4, "note": 68, "velocity": 110, "channel": 0}, {"type": "note_off", "time": 54, "note": 68, "velocity": 110, "channel": 0}, {"type": "note_on", "time": 9, "note": 69, "velocity": 115, "channel": 0}, {"type": "note_off", "time": 138, "note": 69, "velocity": 115, "channel": 0}, {"type": "note_on", "time": 3, "note": 66, "velocity": 117, "channel": 0}, {"type": "note_off", "time": 76, "note": 66, "velocity": 117, "channel": 0}, {"type": "note_on", "time": 13, "note": 62, "velocity": 100, "channel": 0}, {"type": "note_off", "time": 109, "note": 62, "velocity": 100, "channel": 0}, {"type": "note_on", "time": 32, "note": 56, "velocity": 107, "channel": 0}, {"type": "note_off", "time": 122, "note": 56, "velocity": 107, "channel": 0}, {"type": "note_on", "time": 10, "note": 58, "velocity": 108, "channel": 0}, {"type": "note_off", "time": 100, "note": 58, "velocity": 108, "channel": 0}, {"type": "note_on", "time": 0, "note": 59, "velocity": 97, "channel": 0}, {"type": "note_off", "time": 50, "note": 59, "velocity": 97, "channel": 0}, {"type": "note_on", "time": 16, "note": 60, "velocity": 96, "channel": 0}, {"type": "note_off", "time": 129, "note": 60, "velocity": 96, "channel": 0}, {"type": "note_on", "time": 12, "note": 63, "velocity": 113, "channel": 0}, {"type": "note_off", "time": 98, "note": 63, "velocity": 113, "channel": 0}, {"type": "note_on", "time": 2, "note": 60, "velocity": 105, "channel": 0}, {"type": "note_off", "time": 32, "note": 60, "velocity": 105, "channel": 0}, {"type": "note_on", "time": 6, "note": 58, "velocity": 101, "channel": 0}, {"type": "note_off", "time": 52, "note": 58, "velocity": 101, "channel": 0}, {"type": "note_on", "time": 0, "note": 61, "velocity": 113, "channel": 0}, {"type": "note_off", "time": 116, "note": 61, "velocity": 113, "channel": 0}, {"type": "note_on", "time": 0, "note": 53, "velocity": 104, "channel": 0}, {"type": "note_off", "time": 48, "note": 53, "velocity": 104, "channel": 0}, {"type": "note_on", "time": 4, "note": 56, "velocity": 104, "channel": 0}, {"type": "note_off", "time": 26, "note": 56, "velocity": 104, "channel": 0}, {"type": "note_on", "time": 10, "note": 58, "velocity": 106, "channel": 0}, {"type": "note_off", "time": 70, "note": 58, "velocity": 106, "channel": 0}, {"type": "note_on", "time": 8, "note": 61, "velocity": 107, "channel": 0}, {"type": "note_off", "time": 74, "note": 61, "velocity": 107, "channel": 0}, {"type": "note_on", "time": 15, "note": 60, "velocity": 107, "channel": 0}, {"type": "note_off", "time": 54, "note": 60, "velocity": 107, "channel": 0}, {"type": "note_on", "time": 6, "note": 61, "velocity": 97, "channel": 0}, {"type": "note_off", "time": 35, "note": 61, "velocity": 97, "channel": 0}, {"type": "note_on", "time": 4, "note": 60, "velocity": 103, "channel": 0}, {"type": "note_off", "time": 52, "note": 60, "velocity": 103, "channel": 0}, {"type": "note_on", "time": 8, "note": 58, "velocity": 99, "channel": 0}, {"type": "note_off", "time": 70, "note": 58, "velocity": 99, "channel": 0}, {"type": "note_on", "time": 6, "note": 57, "velocity": 99, "channel": 0}, {"type": "note_on", "time": 52, "note": 60, "velocity": 100, "channel": 0}, {"type": "note_off", "time": 0, "note": 57, "velocity": 99, "channel": 0}, {"type": "note_off", "time": 41, "note": 60, "velocity": 100, "channel": 0}, {"type": "note_on", "time": 4, "note": 64, "velocity": 102, "channel": 0}, {"type": "note_off", "time": 48, "note": 64, "velocity": 102, "channel": 0}, {"type": "note_on", "time": 8, "note": 67, "velocity": 118, "channel": 0}, {"type": "note_off", "time": 89, "note": 67, "velocity": 118, "channel": 0}, {"type": "note_on", "time": 29, "note": 64, "velocity": 100, "channel": 0}, {"type": "note_off", "time": 61, "note": 64, "velocity": 100, "channel": 0}, {"type": "note_on", "time": 5, "note": 66, "velocity": 115, "channel": 0}, {"type": "note_off", "time": 83, "note": 66, "velocity": 115, "channel": 0}, {"type": "note_on", "time": 57, "note": 76, "velocity": 86, "channel": 0}, {"type": "note_off", "time": 30, "note": 76, "velocity": 86, "channel": 0}, {"type": "note_on", "time": 9, "note": 78, "velocity": 114, "channel": 0}, {"type": "note_off", "time": 144, "note": 78, "velocity": 114, "channel": 0}, {"type": "note_on", "time": 9, "note": 74, "velocity": 104, "channel": 0}, {"type": "note_off", "time": 104, "note": 74, "velocity": 104, "channel": 0}, {"type": "note_on", "time": 47, "note": 70, "velocity": 110, "channel": 0}, {"type": "note_off", "time": 98, "note": 70, "velocity": 110, "channel": 0}, {"type": "note_on", "time": 4, "note": 66, "velocity": 115, "channel": 0}, {"type": "note_off", "time": 121, "note": 66, "velocity": 115, "channel": 0}, {"type": "note_on", "time": 286, "note": 75, "velocity": 115, "channel": 0}, {"type": "note_off", "time": 53, "note": 75, "velocity": 115, "channel": 0}, {"type": "note_on", "time": 4, "note": 76, "velocity": 115, "channel": 0}, {"type": "note_off", "time": 64, "note": 76, "velocity": 115, "channel": 0}, {"type": "note_on", "time": 10, "note": 79, "velocity": 116, "channel": 0}, {"type": "note_off", "time": 177, "note": 79, "velocity": 116, "channel": 0}, {"type": "note_on", "time": 15, "note": 78, "velocity": 120, "channel": 0}, {"type": "note_off", "time": 32, "note": 78, "velocity": 120, "channel": 0}, {"type": "note_on", "time": 3, "note": 77, "velocity": 106, "channel": 0}, {"type": "note_off", "time": 83, "note": 77, "velocity": 106, "channel": 0}, {"type": "note_on", "time": 6, "note": 74, "velocity": 110, "channel": 0}, {"type": "note_off", "time": 36, "note": 74, "velocity": 110, "channel": 0}, {"type": "note_on", "time": 6, "note": 72, "velocity": 108, "channel": 0}, {"type": "note_off", "time": 30, "note": 72, "velocity": 108, "channel": 0}, {"type": "note_on", "time": 9, "note": 69, "velocity": 113, "channel": 0}, {"type": "note_off", "time": 23, "note": 69, "velocity": 113, "channel": 0}, {"type": "note_on", "time": 4, "note": 67, "velocity": 117, "channel": 0}, {"type": "note_off", "time": 58, "note": 67, "velocity": 117, "channel": 0}, {"type": "note_on", "time": 9, "note": 68, "velocity": 115, "channel": 0}, {"type": "note_off", "time": 38, "note": 68, "velocity": 115, "channel": 0}, {"type": "note_on", "time": 3, "note": 69, "velocity": 115, "channel": 0}, {"type": "note_off", "time": 55, "note": 69, "velocity": 115, "channel": 0}, {"type": "note_on", "time": 7, "note": 70, "velocity": 112, "channel": 0}, {"type": "note_off", "time": 52, "note": 70, "velocity": 112, "channel": 0}, {"type": "note_on", "time": 18, "note": 67, "velocity": 119, "channel": 0}, {"type": "note_off", "time": 55, "note": 67, "velocity": 119, "channel": 0}, {"type": "note_on", "time": 4, "note": 66, "velocity": 116, "channel": 0}, {"type": "note_off", "time": 27, "note": 66, "velocity": 116, "channel": 0}, {"type": "note_on", "time": 6, "note": 63, "velocity": 109, "channel": 0}, {"type": "note_off", "time": 47, "note": 63, "velocity": 109, "channel": 0}, {"type": "note_on", "time": 3, "note": 60, "velocity": 101, "channel": 0}, {"type": "note_off", "time": 29, "note": 60, "velocity": 101, "channel": 0}, {"type": "note_on", "time": 6, "note": 58, "velocity": 106, "channel": 0}, {"type": "note_off", "time": 57, "note": 58, "velocity": 106, "channel": 0}, {"type": "note_on", "time": 13, "note": 54, "velocity": 109, "channel": 0}, {"type": "note_off", "time": 57, "note": 54, "velocity": 109, "channel": 0}, {"type": "note_on", "time": 3, "note": 61, "velocity": 108, "channel": 0}, {"type": "note_off", "time": 72, "note": 61, "velocity": 108, "channel": 0}, {"type": "note_on", "time": 6, "note": 59, "velocity": 103, "channel": 0}, {"type": "note_off", "time": 85, "note": 59, "velocity": 103, "channel": 0}, {"type": "note_on", "time": 3, "note": 60, "velocity": 109, "channel": 0}, {"type": "note_off", "time": 152, "note": 60, "velocity": 109, "channel": 0}, {"type": "note_on", "time": 6, "note": 67, "velocity": 113, "channel": 0}, {"type": "note_off", "time": 106, "note": 67, "velocity": 113, "channel": 0}, {"type": "note_on", "time": 53, "note": 60, "velocity": 93, "channel": 0}, {"type": "note_off", "time": 41, "note": 60, "velocity": 93, "channel": 0}, {"type": "note_on", "time": 33, "note": 65, "velocity": 123, "channel": 0}, {"type": "note_off", "time": 115, "note": 65, "velocity": 123, "channel": 0}, {"type": "note_on", "time": 628, "note": 63, "velocity": 101, "channel": 0}, {"type": "note_off", "time": 46, "note": 63, "velocity": 101, "channel": 0}, {"type": "note_on", "time": 8, "note": 65, "velocity": 117, "channel": 0}, {"type": "note_off", "time": 50, "note": 65, "velocity": 117, "channel": 0}, {"type": "note_on", "time": 10, "note": 68, "velocity": 117, "channel": 0}, {"type": "note_off", "time": 48, "note": 68, "velocity": 117, "channel": 0}, {"type": "note_on", "time": 6, "note": 70, "velocity": 115, "channel": 0}, {"type": "note_off", "time": 59, "note": 70, "velocity": 115, "channel": 0}, {"type": "note_on", "time": 0, "note": 72, "velocity": 117, "channel": 0}, {"type": "note_off", "time": 61, "note": 72, "velocity": 117, "channel": 0}, {"type": "note_on", "time": 8, "note": 77, "velocity": 112, "channel": 0}, {"type": "note_off", "time": 65, "note": 77, "velocity": 112, "channel": 0}, {"type": "note_on", "time": 6, "note": 72, "velocity": 115, "channel": 0}, {"type": "note_off", "time": 67, "note": 72, "velocity": 115, "channel": 0}, {"type": "note_on", "time": 0, "note": 71, "velocity": 120, "channel": 0}, {"type": "note_off", "time": 52, "note": 71, "velocity": 120, "channel": 0}, {"type": "note_on", "time": 6, "note": 72, "velocity": 116, "channel": 0}, {"type": "note_off", "time": 94, "note": 72, "velocity": 116, "channel": 0}, {"type": "note_on", "time": 4, "note": 77, "velocity": 101, "channel": 0}, {"type": "note_off", "time": 50, "note": 77, "velocity": 101, "channel": 0}, {"type": "note_on", "time": 24, "note": 70, "velocity": 113, "channel": 0}, {"type": "note_off", "time": 96, "note": 70, "velocity": 113, "channel": 0}, {"type": "note_on", "time": 10, "note": 72, "velocity": 111, "channel": 0}, {"type": "note_off", "time": 74, "note": 72, "velocity": 111, "channel": 0}, {"type": "note_on", "time": 19, "note": 77, "velocity": 99, "channel": 0}, {"type": "note_off", "time": 52, "note": 77, "velocity": 99, "channel": 0}, {"type": "note_on", "time": 0, "note": 70, "velocity": 118, "channel": 0}, {"type": "note_off", "time": 70, "note": 70, "velocity": 118, "channel": 0}, {"type": "note_on", "time": 19, "note": 72, "velocity": 103, "channel": 0}, {"type": "note_off", "time": 103, "note": 72, "velocity": 103, "channel": 0}, {"type": "note_on", "time": 26, "note": 77, "velocity": 99, "channel": 0}, {"type": "note_off", "time": 48, "note": 77, "velocity": 99, "channel": 0}, {"type": "note_on", "time": 17, "note": 70, "velocity": 119, "channel": 0}, {"type": "note_off", "time": 81, "note": 70, "velocity": 119, "channel": 0}, {"type": "note_on", "time": 10, "note": 72, "velocity": 94, "channel": 0}, {"type": "note_off", "time": 30, "note": 72, "velocity": 94, "channel": 0}, {"type": "note_on", "time": 41, "note": 77, "velocity": 95, "channel": 0}, {"type": "note_off", "time": 48, "note": 77, "velocity": 95, "channel": 0}, {"type": "note_on", "time": 8, "note": 70, "velocity": 116, "channel": 0}, {"type": "note_off", "time": 78, "note": 70, "velocity": 116, "channel": 0}, {"type": "note_on", "time": 24, "note": 72, "velocity": 92, "channel": 0}, {"type": "note_off", "time": 92, "note": 72, "velocity": 92, "channel": 0}, {"type": "note_on", "time": 30, "note": 77, "velocity": 101, "channel": 0}, {"type": "note_off", "time": 41, "note": 77, "velocity": 101, "channel": 0}, {"type": "note_on", "time": 0, "note": 70, "velocity": 112, "channel": 0}, {"type": "note_off", "time": 61, "note": 70, "velocity": 112, "channel": 0}, {"type": "note_on", "time": 17, "note": 71, "velocity": 111, "channel": 0}, {"type": "note_off", "time": 87, "note": 71, "velocity": 111, "channel": 0}, {"type": "note_on", "time": 466, "note": 74, "velocity": 79, "channel": 0}, {"type": "note_off", "time": 56, "note": 74, "velocity": 79, "channel": 0}, {"type": "note_on", "time": 15, "note": 70, "velocity": 116, "channel": 0}, {"type": "note_off", "time": 94, "note": 70, "velocity": 116, "channel": 0}, {"type": "note_on", "time": 8, "note": 68, "velocity": 114, "channel": 0}, {"type": "note_off", "time": 56, "note": 68, "velocity": 114, "channel": 0}, {"type": "note_on", "time": 6, "note": 65, "velocity": 119, "channel": 0}, {"type": "note_off", "time": 94, "note": 65, "velocity": 119, "channel": 0}, {"type": "note_on", "time": 0, "note": 63, "velocity": 112, "channel": 0}, {"type": "note_off", "time": 48, "note": 63, "velocity": 112, "channel": 0}, {"type": "note_on", "time": 0, "note": 58, "velocity": 107, "channel": 0}, {"type": "note_off", "time": 76, "note": 58, "velocity": 107, "channel": 0}, {"type": "note_on", "time": 173, "note": 62, "velocity": 110, "channel": 0}, {"type": "note_off", "time": 76, "note": 62, "velocity": 110, "channel": 0}, {"type": "note_on", "time": 6, "note": 60, "velocity": 111, "channel": 0}, {"type": "note_off", "time": 83, "note": 60, "velocity": 111, "channel": 0}, {"type": "note_on", "time": 6, "note": 59, "velocity": 103, "channel": 0}, {"type": "note_off", "time": 127, "note": 59, "velocity": 103, "channel": 0}, {"type": "note_on", "time": 15, "note": 62, "velocity": 106, "channel": 0}, {"type": "note_off", "time": 56, "note": 62, "velocity": 106, "channel": 0}, {"type": "note_on", "time": 0, "note": 68, "velocity": 118, "channel": 0}, {"type": "note_off", "time": 98, "note": 68, "velocity": 118, "channel": 0}, {"type": "note_on", "time": 6, "note": 67, "velocity": 116, "channel": 0}, {"type": "note_off", "time": 92, "note": 67, "velocity": 116, "channel": 0}, {"type": "note_on", "time": 4, "note": 65, "velocity": 117, "channel": 0}, {"type": "note_off", "time": 96, "note": 65, "velocity": 117, "channel": 0}, {"type": "note_on", "time": 17, "note": 63, "velocity": 109, "channel": 0}, {"type": "note_off", "time": 52, "note": 63, "velocity": 109, "channel": 0}, {"type": "note_on", "time": 17, "note": 64, "velocity": 104, "channel": 0}, {"type": "note_off", "time": 129, "note": 64, "velocity": 104, "channel": 0}, {"type": "note_on", "time": 56, "note": 58, "velocity": 100, "channel": 0}, {"type": "note_off", "time": 96, "note": 58, "velocity": 100, "channel": 0}, {"type": "note_on", "time": 35, "note": 62, "velocity": 107, "channel": 0}, {"type": "note_off", "time": 63, "note": 62, "velocity": 107, "channel": 0}, {"type": "note_on", "time": 6, "note": 60, "velocity": 107, "channel": 0}, {"type": "note_off", "time": 59, "note": 60, "velocity": 107, "channel": 0}, {"type": "note_on", "time": 0, "note": 64, "velocity": 107, "channel": 0}, {"type": "note_off", "time": 26, "note": 64, "velocity": 107, "channel": 0}, {"type": "note_on", "time": 13, "note": 60, "velocity": 105, "channel": 0}, {"type": "note_off", "time": 30, "note": 60, "velocity": 105, "channel": 0}, {"type": "note_on", "time": 6, "note": 58, "velocity": 111, "channel": 0}, {"type": "note_off", "time": 63, "note": 58, "velocity": 111, "channel": 0}, {"type": "note_on", "time": 0, "note": 56, "velocity": 108, "channel": 0}, {"type": "note_off", "time": 83, "note": 56, "velocity": 108, "channel": 0}, {"type": "note_on", "time": 39, "note": 61, "velocity": 102, "channel": 0}, {"type": "note_off", "time": 67, "note": 61, "velocity": 102, "channel": 0}, {"type": "note_on", "time": 13, "note": 64, "velocity": 104, "channel": 0}, {"type": "note_off", "time": 96, "note": 64, "velocity": 104, "channel": 0}, {"type": "note_on", "time": 8, "note": 66, "velocity": 113, "channel": 0}, {"type": "note_off", "time": 157, "note": 66, "velocity": 113, "channel": 0}, {"type": "note_on", "time": 2, "note": 63, "velocity": 96, "channel": 0}, {"type": "note_off", "time": 94, "note": 63, "velocity": 96, "channel": 0}, {"type": "note_on", "time": 405, "note": 73, "velocity": 119, "channel": 0}, {"type": "note_off", "time": 85, "note": 73, "velocity": 119, "channel": 0}, {"type": "note_on", "time": 109, "note": 74, "velocity": 116, "channel": 0}, {"type": "note_off", "time": 212, "note": 74, "velocity": 116, "channel": 0}, {"type": "note_on", "time": 13, "note": 76, "velocity": 96, "channel": 0}, {"type": "note_off", "time": 41, "note": 76, "velocity": 96, "channel": 0}, {"type": "note_on", "time": 2, "note": 72, "velocity": 106, "channel": 0}, {"type": "note_off", "time": 39, "note": 72, "velocity": 106, "channel": 0}, {"type": "note_on", "time": 8, "note": 70, "velocity": 114, "channel": 0}, {"type": "note_off", "time": 120, "note": 70, "velocity": 114, "channel": 0}, {"type": "note_on", "time": 6, "note": 73, "velocity": 110, "channel": 0}, {"type": "note_off", "time": 50, "note": 73, "velocity": 110, "channel": 0}, {"type": "note_on", "time": 50, "note": 73, "velocity": 119, "channel": 0}, {"type": "note_off", "time": 107, "note": 73, "velocity": 119, "channel": 0}, {"type": "note_on", "time": 6, "note": 66, "velocity": 107, "channel": 0}, {"type": "note_off", "time": 63, "note": 66, "velocity": 107, "channel": 0}, {"type": "note_on", "time": 6, "note": 70, "velocity": 114, "channel": 0}, {"type": "note_off", "time": 92, "note": 70, "velocity": 114, "channel": 0}, {"type": "note_on", "time": 19, "note": 73, "velocity": 118, "channel": 0}, {"type": "note_off", "time": 63, "note": 73, "velocity": 118, "channel": 0}, {"type": "note_on", "time": 2, "note": 72, "velocity": 118, "channel": 0}, {"type": "note_off", "time": 43, "note": 72, "velocity": 118, "channel": 0}, {"type": "note_on", "time": 10, "note": 73, "velocity": 119, "channel": 0}, {"type": "note_off", "time": 43, "note": 73, "velocity": 119, "channel": 0}, {"type": "note_on", "time": 4, "note": 72, "velocity": 115, "channel": 0}, {"type": "note_off", "time": 48, "note": 72, "velocity": 115, "channel": 0}, {"type": "note_on", "time": 15, "note": 70, "velocity": 101, "channel": 0}, {"type": "note_off", "time": 41, "note": 70, "velocity": 101, "channel": 0}, {"type": "note_on", "time": 15, "note": 69, "velocity": 114, "channel": 0}, {"type": "note_off", "time": 103, "note": 69, "velocity": 114, "channel": 0}, {"type": "note_on", "time": 8, "note": 72, "velocity": 113, "channel": 0}, {"type": "note_off", "time": 174, "note": 72, "velocity": 113, "channel": 0}, {"type": "note_on", "time": 49, "note": 68, "velocity": 107, "channel": 0}, {"type": "note_off", "time": 41, "note": 68, "velocity": 107, "channel": 0}, {"type": "note_on", "time": 4, "note": 69, "velocity": 116, "channel": 0}, {"type": "note_off", "time": 94, "note": 69, "velocity": 116, "channel": 0}, {"type": "note_on", "time": 21, "note": 66, "velocity": 114, "channel": 0}, {"type": "note_off", "time": 73, "note": 66, "velocity": 114, "channel": 0}, {"type": "note_on", "time": 15, "note": 63, "velocity": 104, "channel": 0}, {"type": "note_off", "time": 81, "note": 63, "velocity": 104, "channel": 0}, {"type": "note_on", "time": 4, "note": 60, "velocity": 102, "channel": 0}, {"type": "note_off", "time": 50, "note": 60, "velocity": 102, "channel": 0}, {"type": "note_on", "time": 23, "note": 62, "velocity": 111, "channel": 0}, {"type": "note_off", "time": 98, "note": 62, "velocity": 111, "channel": 0}, {"type": "note_on", "time": 9, "note": 60, "velocity": 106, "channel": 0}, {"type": "note_off", "time": 75, "note": 60, "velocity": 106, "channel": 0}, {"type": "note_on", "time": 4, "note": 58, "velocity": 104, "channel": 0}, {"type": "note_off", "time": 87, "note": 58, "velocity": 104, "channel": 0}, {"type": "note_on", "time": 27, "note": 57, "velocity": 102, "channel": 0}, {"type": "note_off", "time": 86, "note": 57, "velocity": 102, "channel": 0}, {"type": "note_on", "time": 9, "note": 56, "velocity": 109, "channel": 0}, {"type": "note_off", "time": 56, "note": 56, "velocity": 109, "channel": 0}, {"type": "note_on", "time": 10, "note": 59, "velocity": 94, "channel": 0}, {"type": "note_off", "time": 46, "note": 59, "velocity": 94, "channel": 0}, {"type": "note_on", "time": 15, "note": 62, "velocity": 105, "channel": 0}, {"type": "note_off", "time": 54, "note": 62, "velocity": 105, "channel": 0}, {"type": "note_on", "time": 0, "note": 66, "velocity": 117, "channel": 0}, {"type": "note_off", "time": 89, "note": 66, "velocity": 117, "channel": 0}, {"type": "note_on", "time": 8, "note": 70, "velocity": 114, "channel": 0}, {"type": "note_off", "time": 65, "note": 70, "velocity": 114, "channel": 0}, {"type": "note_on", "time": 13, "note": 74, "velocity": 113, "channel": 0}, {"type": "note_off", "time": 59, "note": 74, "velocity": 113, "channel": 0}, {"type": "note_on", "time": 6, "note": 72, "velocity": 109, "channel": 0}, {"type": "note_off", "time": 63, "note": 72, "velocity": 109, "channel": 0}, {"type": "note_on", "time": 13, "note": 66, "velocity": 111, "channel": 0}, {"type": "note_off", "time": 76, "note": 66, "velocity": 111, "channel": 0}, {"type": "note_on", "time": 15, "note": 73, "velocity": 117, "channel": 0}, {"type": "note_off", "time": 56, "note": 73, "velocity": 117, "channel": 0}, {"type": "note_on", "time": 0, "note": 74, "velocity": 114, "channel": 0}, {"type": "note_off", "time": 54, "note": 74, "velocity": 114, "channel": 0}, {"type": "note_on", "time": 0, "note": 72, "velocity": 102, "channel": 0}, {"type": "note_off", "time": 43, "note": 72, "velocity": 102, "channel": 0}, {"type": "note_on", "time": 6, "note": 71, "velocity": 100, "channel": 0}, {"type": "note_off", "time": 52, "note": 71, "velocity": 100, "channel": 0}, {"type": "note_on", "time": 8, "note": 72, "velocity": 118, "channel": 0}, {"type": "note_off", "time": 54, "note": 72, "velocity": 118, "channel": 0}, {"type": "note_on", "time": 2, "note": 75, "velocity": 111, "channel": 0}, {"type": "note_off", "time": 48, "note": 75, "velocity": 111, "channel": 0}, {"type": "note_on", "time": 8, "note": 72, "velocity": 107, "channel": 0}, {"type": "note_off", "time": 35, "note": 72, "velocity": 107, "channel": 0}, {"type": "note_on", "time": 6, "note": 70, "velocity": 109, "channel": 0}, {"type": "note_off", "time": 43, "note": 70, "velocity": 109, "channel": 0}, {"type": "note_on", "time": 10, "note": 67, "velocity": 111, "channel": 0}, {"type": "note_off", "time": 59, "note": 67, "velocity": 111, "channel": 0}, {"type": "note_on", "time": 13, "note": 68, "velocity": 108, "channel": 0}, {"type": "note_off", "time": 59, "note": 68, "velocity": 108, "channel": 0}, {"type": "note_on", "time": 13, "note": 69, "velocity": 115, "channel": 0}, {"type": "note_off", "time": 103, "note": 69, "velocity": 115, "channel": 0}, {"type": "note_on", "time": 10, "note": 65, "velocity": 114, "channel": 0}, {"type": "note_off", "time": 83, "note": 65, "velocity": 114, "channel": 0}, {"type": "note_on", "time": 10, "note": 62, "velocity": 93, "channel": 0}, {"type": "note_off", "time": 105, "note": 62, "velocity": 93, "channel": 0}, {"type": "note_on", "time": 95, "note": 68, "velocity": 118, "channel": 0}, {"type": "note_off", "time": 40, "note": 68, "velocity": 118, "channel": 0}, {"type": "note_on", "time": 0, "note": 67, "velocity": 115, "channel": 0}, {"type": "note_off", "time": 43, "note": 67, "velocity": 115, "channel": 0}, {"type": "note_on", "time": 9, "note": 65, "velocity": 106, "channel": 0}, {"type": "note_off", "time": 43, "note": 65, "velocity": 106, "channel": 0}, {"type": "note_on", "time": 12, "note": 64, "velocity": 102, "channel": 0}, {"type": "note_off", "time": 90, "note": 64, "velocity": 102, "channel": 0}, {"type": "note_on", "time": 7, "note": 62, "velocity": 100, "channel": 0}, {"type": "note_off", "time": 75, "note": 62, "velocity": 100, "channel": 0}, {"type": "note_on", "time": 10, "note": 60, "velocity": 105, "channel": 0}, {"type": "note_off", "time": 143, "note": 60, "velocity": 105, "channel": 0}, {"type": "note_on", "time": 6, "note": 57, "velocity": 105, "channel": 0}, {"type": "note_off", "time": 55, "note": 57, "velocity": 105, "channel": 0}, {"type": "note_on", "time": 20, "note": 59, "velocity": 91, "channel": 0}, {"type": "note_off", "time": 49, "note": 59, "velocity": 91, "channel": 0}, {"type": "note_on", "time": 6, "note": 62, "velocity": 92, "channel": 0}, {"type": "note_off", "time": 50, "note": 62, "velocity": 92, "channel": 0}, {"type": "note_on", "time": 6, "note": 64, "velocity": 96, "channel": 0}, {"type": "note_off", "time": 50, "note": 64, "velocity": 96, "channel": 0}, {"type": "note_on", "time": 10, "note": 67, "velocity": 116, "channel": 0}, {"type": "note_off", "time": 110, "note": 67, "velocity": 116, "channel": 0}, {"type": "note_on", "time": 4, "note": 64, "velocity": 105, "channel": 0}, {"type": "note_off", "time": 46, "note": 64, "velocity": 105, "channel": 0}, {"type": "note_on", "time": 12, "note": 65, "velocity": 117, "channel": 0}, {"type": "note_off", "time": 121, "note": 65, "velocity": 117, "channel": 0}, {"type": "note_on", "time": 27, "note": 67, "velocity": 109, "channel": 0}, {"type": "note_off", "time": 55, "note": 67, "velocity": 109, "channel": 0}, {"type": "note_on", "time": 7, "note": 70, "velocity": 97, "channel": 0}, {"type": "note_off", "time": 33, "note": 70, "velocity": 97, "channel": 0}, {"type": "note_on", "time": 12, "note": 72, "velocity": 105, "channel": 0}, {"type": "note_off", "time": 40, "note": 72, "velocity": 105, "channel": 0}, {"type": "note_on", "time": 12, "note": 74, "velocity": 116, "channel": 0}, {"type": "note_off", "time": 29, "note": 74, "velocity": 116, "channel": 0}, {"type": "note_on", "time": 6, "note": 76, "velocity": 106, "channel": 0}, {"type": "note_off", "time": 47, "note": 76, "velocity": 106, "channel": 0}, {"type": "note_on", "time": 38, "note": 79, "velocity": 115, "channel": 0}, {"type": "note_off", "time": 180, "note": 79, "velocity": 115, "channel": 0}, {"type": "note_on", "time": 6, "note": 77, "velocity": 109, "channel": 0}, {"type": "note_off", "time": 50, "note": 77, "velocity": 109, "channel": 0}, {"type": "note_on", "time": 1, "note": 76, "velocity": 112, "channel": 0}, {"type": "note_off", "time": 46, "note": 76, "velocity": 112, "channel": 0}, {"type": "note_on", "time": 12, "note": 72, "velocity": 111, "channel": 0}, {"type": "note_off", "time": 32, "note": 72, "velocity": 111, "channel": 0}, {"type": "note_on", "time": 16, "note": 69, "velocity": 106, "channel": 0}, {"type": "note_off", "time": 44, "note": 69, "velocity": 106, "channel": 0}, {"type": "note_on", "time": 13, "note": 72, "velocity": 106, "channel": 0}, {"type": "note_off", "time": 30, "note": 72, "velocity": 106, "channel": 0}, {"type": "note_on", "time": 10, "note": 76, "velocity": 105, "channel": 0}, {"type": "note_off", "time": 38, "note": 76, "velocity": 105, "channel": 0}, {"type": "note_on", "time": 21, "note": 79, "velocity": 113, "channel": 0}, {"type": "note_off", "time": 135, "note": 79, "velocity": 113, "channel": 0}, {"type": "note_on", "time": 7, "note": 76, "velocity": 110, "channel": 0}, {"type": "note_off", "time": 43, "note": 76, "velocity": 110, "channel": 0}, {"type": "note_on", "time": 10, "note": 72, "velocity": 100, "channel": 0}, {"type": "note_off", "time": 37, "note": 72, "velocity": 100, "channel": 0}, {"type": "note_on", "time": 17, "note": 68, "velocity": 106, "channel": 0}, {"type": "note_off", "time": 98, "note": 68, "velocity": 106, "channel": 0}, {"type": "note_on", "time": 0, "note": 72, "velocity": 99, "channel": 0}, {"type": "note_off", "time": 37, "note": 72, "velocity": 99, "channel": 0}, {"type": "note_on", "time": 4, "note": 76, "velocity": 110, "channel": 0}, {"type": "note_off", "time": 59, "note": 76, "velocity": 110, "channel": 0}, {"type": "note_on", "time": 26, "note": 79, "velocity": 119, "channel": 0}, {"type": "note_off", "time": 111, "note": 79, "velocity": 119, "channel": 0}, {"type": "note_on", "time": 13, "note": 76, "velocity": 100, "channel": 0}, {"type": "note_off", "time": 54, "note": 76, "velocity": 100, "channel": 0}, {"type": "note_on", "time": 2, "note": 72, "velocity": 108, "channel": 0}, {"type": "note_off", "time": 32, "note": 72, "velocity": 108, "channel": 0}, {"type": "note_on", "time": 10, "note": 68, "velocity": 109, "channel": 0}, {"type": "note_off", "time": 70, "note": 68, "velocity": 109, "channel": 0}, {"type": "note_on", "time": 13, "note": 77, "velocity": 93, "channel": 0}, {"type": "note_off", "time": 52, "note": 77, "velocity": 93, "channel": 0}, {"type": "note_on", "time": 19, "note": 79, "velocity": 116, "channel": 0}, {"type": "note_off", "time": 103, "note": 79, "velocity": 116, "channel": 0}, {"type": "note_on", "time": 31, "note": 75, "velocity": 103, "channel": 0}, {"type": "note_off", "time": 41, "note": 75, "velocity": 103, "channel": 0}, {"type": "note_on", "time": 1, "note": 73, "velocity": 106, "channel": 0}, {"type": "note_off", "time": 40, "note": 73, "velocity": 106, "channel": 0}, {"type": "note_on", "time": 3, "note": 72, "velocity": 106, "channel": 0}, {"type": "note_off", "time": 33, "note": 72, "velocity": 106, "channel": 0}, {"type": "note_on", "time": 0, "note": 67, "velocity": 106, "channel": 0}, {"type": "note_off", "time": 58, "note": 67, "velocity": 106, "channel": 0}, {"type": "note_on", "time": 3, "note": 63, "velocity": 106, "channel": 0}, {"type": "note_off", "time": 43, "note": 63, "velocity": 106, "channel": 0}, {"type": "note_on", "time": 11, "note": 62, "velocity": 101, "channel": 0}, {"type": "note_off", "time": 77, "note": 62, "velocity": 101, "channel": 0}, {"type": "note_on", "time": 10, "note": 63, "velocity": 99, "channel": 0}, {"type": "note_off", "time": 30, "note": 63, "velocity": 99, "channel": 0}, {"type": "note_on", "time": 5, "note": 60, "velocity": 100, "channel": 0}, {"type": "note_off", "time": 50, "note": 60, "velocity": 100, "channel": 0}, {"type": "note_on", "time": 55, "note": 60, "velocity": 94, "channel": 0}, {"type": "note_on", "time": 53, "note": 62, "velocity": 100, "channel": 0}, {"type": "note_off", "time": 0, "note": 60, "velocity": 94, "channel": 0}, {"type": "note_off", "time": 50, "note": 62, "velocity": 100, "channel": 0}, {"type": "note_on", "time": 26, "note": 65, "velocity": 112, "channel": 0}, {"type": "note_off", "time": 94, "note": 65, "velocity": 112, "channel": 0}, {"type": "note_on", "time": 489, "note": 68, "velocity": 120, "channel": 0}, {"type": "note_off", "time": 58, "note": 68, "velocity": 120, "channel": 0}, {"type": "note_on", "time": 12, "note": 70, "velocity": 120, "channel": 0}, {"type": "note_off", "time": 27, "note": 70, "velocity": 120, "channel": 0}, {"type": "note_on", "time": 6, "note": 68, "velocity": 119, "channel": 0}, {"type": "note_off", "time": 44, "note": 68, "velocity": 119, "channel": 0}, {"type": "note_on", "time": 3, "note": 67, "velocity": 119, "channel": 0}, {"type": "note_off", "time": 50, "note": 67, "velocity": 119, "channel": 0}, {"type": "note_on", "time": 4, "note": 66, "velocity": 124, "channel": 0}, {"type": "note_off", "time": 57, "note": 66, "velocity": 124, "channel": 0}, {"type": "note_on", "time": 7, "note": 65, "velocity": 120, "channel": 0}, {"type": "note_off", "time": 87, "note": 65, "velocity": 120, "channel": 0}, {"type": "note_on", "time": 10, "note": 63, "velocity": 111, "channel": 0}, {"type": "note_off", "time": 72, "note": 63, "velocity": 111, "channel": 0}, {"type": "note_on", "time": 7, "note": 60, "velocity": 113, "channel": 0}, {"type": "note_off", "time": 57, "note": 60, "velocity": 113, "channel": 0}, {"type": "note_on", "time": 6, "note": 61, "velocity": 105, "channel": 0}, {"type": "note_off", "time": 47, "note": 61, "velocity": 105, "channel": 0}, {"type": "note_on", "time": 12, "note": 63, "velocity": 99, "channel": 0}, {"type": "note_off", "time": 43, "note": 63, "velocity": 99, "channel": 0}, {"type": "note_on", "time": 27, "note": 66, "velocity": 107, "channel": 0}, {"type": "note_off", "time": 48, "note": 66, "velocity": 107, "channel": 0}, {"type": "note_on", "time": 8, "note": 63, "velocity": 118, "channel": 0}, {"type": "note_off", "time": 52, "note": 63, "velocity": 118, "channel": 0}, {"type": "note_on", "time": 10, "note": 56, "velocity": 108, "channel": 0}, {"type": "note_off", "time": 100, "note": 56, "velocity": 108, "channel": 0}, {"type": "note_on", "time": 26, "note": 59, "velocity": 113, "channel": 0}, {"type": "note_off", "time": 50, "note": 59, "velocity": 113, "channel": 0}, {"type": "note_on", "time": 10, "note": 61, "velocity": 102, "channel": 0}, {"type": "note_off", "time": 132, "note": 61, "velocity": 102, "channel": 0}, {"type": "note_on", "time": 7, "note": 65, "velocity": 115, "channel": 0}, {"type": "note_off", "time": 67, "note": 65, "velocity": 115, "channel": 0}, {"type": "note_on", "time": 30, "note": 71, "velocity": 110, "channel": 0}, {"type": "note_off", "time": 70, "note": 71, "velocity": 110, "channel": 0}, {"type": "note_on", "time": 24, "note": 74, "velocity": 117, "channel": 0}, {"type": "note_off", "time": 92, "note": 74, "velocity": 117, "channel": 0}, {"type": "note_on", "time": 19, "note": 72, "velocity": 108, "channel": 0}, {"type": "note_off", "time": 92, "note": 72, "velocity": 108, "channel": 0}, {"type": "note_on", "time": 6, "note": 71, "velocity": 108, "channel": 0}, {"type": "note_off", "time": 32, "note": 71, "velocity": 108, "channel": 0}, {"type": "note_on", "time": 15, "note": 72, "velocity": 123, "channel": 0}, {"type": "note_off", "time": 105, "note": 72, "velocity": 123, "channel": 0}, {"type": "note_on", "time": 15, "note": 75, "velocity": 104, "channel": 0}, {"type": "note_off", "time": 35, "note": 75, "velocity": 104, "channel": 0}, {"type": "note_on", "time": 0, "note": 72, "velocity": 115, "channel": 0}, {"type": "note_off", "time": 54, "note": 72, "velocity": 115, "channel": 0}, {"type": "note_on", "time": 4, "note": 70, "velocity": 119, "channel": 0}, {"type": "note_off", "time": 65, "note": 70, "velocity": 119, "channel": 0}, {"type": "note_on", "time": 26, "note": 68, "velocity": 111, "channel": 0}, {"type": "note_off", "time": 46, "note": 68, "velocity": 111, "channel": 0}, {"type": "note_on", "time": 2, "note": 67, "velocity": 113, "channel": 0}, {"type": "note_off", "time": 96, "note": 67, "velocity": 113, "channel": 0}, {"type": "note_on", "time": 8, "note": 68, "velocity": 115, "channel": 0}, {"type": "note_off", "time": 89, "note": 68, "velocity": 115, "channel": 0}, {"type": "note_on", "time": 24, "note": 71, "velocity": 121, "channel": 0}, {"type": "note_off", "time": 118, "note": 71, "velocity": 121, "channel": 0}, {"type": "note_on", "time": 4, "note": 73, "velocity": 114, "channel": 0}, {"type": "note_off", "time": 70, "note": 73, "velocity": 114, "channel": 0}, {"type": "note_on", "time": 4, "note": 78, "velocity": 120, "channel": 0}, {"type": "note_off", "time": 265, "note": 78, "velocity": 120, "channel": 0}, {"type": "note_on", "time": 7, "note": 77, "velocity": 120, "channel": 0}, {"type": "note_off", "time": 55, "note": 77, "velocity": 120, "channel": 0}, {"type": "note_on", "time": 0, "note": 76, "velocity": 113, "channel": 0}, {"type": "note_off", "time": 61, "note": 76, "velocity": 113, "channel": 0}, {"type": "note_on", "time": 0, "note": 73, "velocity": 111, "channel": 0}, {"type": "note_off", "time": 40, "note": 73, "velocity": 111, "channel": 0}, {"type": "note_on", "time": 0, "note": 70, "velocity": 113, "channel": 0}, {"type": "note_on", "time": 24, "note": 67, "velocity": 113, "channel": 0}, {"type": "note_off", "time": 0, "note": 70, "velocity": 113, "channel": 0}, {"type": "note_off", "time": 61, "note": 67, "velocity": 113, "channel": 0}, {"type": "note_on", "time": 3, "note": 68, "velocity": 116, "channel": 0}, {"type": "note_off", "time": 43, "note": 68, "velocity": 116, "channel": 0}, {"type": "note_on", "time": 12, "note": 70, "velocity": 97, "channel": 0}, {"type": "note_off", "time": 67, "note": 70, "velocity": 97, "channel": 0}, {"type": "note_on", "time": 9, "note": 73, "velocity": 107, "channel": 0}, {"type": "note_off", "time": 46, "note": 73, "velocity": 107, "channel": 0}, {"type": "note_on", "time": 15, "note": 76, "velocity": 111, "channel": 0}, {"type": "note_off", "time": 55, "note": 76, "velocity": 111, "channel": 0}, {"type": "note_on", "time": 9, "note": 78, "velocity": 114, "channel": 0}, {"type": "note_off", "time": 33, "note": 78, "velocity": 114, "channel": 0}, {"type": "note_on", "time": 15, "note": 79, "velocity": 123, "channel": 0}, {"type": "note_off", "time": 197, "note": 79, "velocity": 123, "channel": 0}, {"type": "note_on", "time": 7, "note": 78, "velocity": 118, "channel": 0}, {"type": "note_off", "time": 56, "note": 78, "velocity": 118, "channel": 0}, {"type": "note_on", "time": 6, "note": 76, "velocity": 105, "channel": 0}, {"type": "note_off", "time": 50, "note": 76, "velocity": 105, "channel": 0}, {"type": "note_on", "time": 4, "note": 73, "velocity": 108, "channel": 0}, {"type": "note_off", "time": 39, "note": 73, "velocity": 108, "channel": 0}, {"type": "note_on", "time": 6, "note": 71, "velocity": 110, "channel": 0}, {"type": "note_off", "time": 28, "note": 71, "velocity": 110, "channel": 0}, {"type": "note_on", "time": 0, "note": 69, "velocity": 116, "channel": 0}, {"type": "note_off", "time": 32, "note": 69, "velocity": 116, "channel": 0}, {"type": "note_on", "time": 4, "note": 68, "velocity": 113, "channel": 0}, {"type": "note_off", "time": 52, "note": 68, "velocity": 113, "channel": 0}, {"type": "note_on", "time": 0, "note": 70, "velocity": 109, "channel": 0}, {"type": "note_off", "time": 26, "note": 70, "velocity": 109, "channel": 0}, {"type": "note_on", "time": 0, "note": 73, "velocity": 107, "channel": 0}, {"type": "note_off", "time": 26, "note": 73, "velocity": 107, "channel": 0}, {"type": "note_on", "time": 8, "note": 77, "velocity": 117, "channel": 0}, {"type": "note_off", "time": 43, "note": 77, "velocity": 117, "channel": 0}, {"type": "note_on", "time": 10, "note": 79, "velocity": 117, "channel": 0}, {"type": "note_off", "time": 177, "note": 79, "velocity": 117, "channel": 0}, {"type": "note_on", "time": 13, "note": 80, "velocity": 118, "channel": 0}, {"type": "note_off", "time": 74, "note": 80, "velocity": 118, "channel": 0}, {"type": "note_on", "time": 21, "note": 81, "velocity": 113, "channel": 0}, {"type": "note_off", "time": 258, "note": 81, "velocity": 113, "channel": 0}, {"type": "note_on", "time": 17, "note": 77, "velocity": 111, "channel": 0}, {"type": "note_off", "time": 48, "note": 77, "velocity": 111, "channel": 0}, {"type": "note_on", "time": 6, "note": 76, "velocity": 104, "channel": 0}, {"type": "note_off", "time": 35, "note": 76, "velocity": 104, "channel": 0}, {"type": "note_on", "time": 6, "note": 73, "velocity": 97, "channel": 0}, {"type": "note_off", "time": 28, "note": 73, "velocity": 97, "channel": 0}, {"type": "note_on", "time": 0, "note": 70, "velocity": 100, "channel": 0}, {"type": "note_off", "time": 32, "note": 70, "velocity": 100, "channel": 0}, {"type": "note_on", "time": 9, "note": 68, "velocity": 113, "channel": 0}, {"type": "note_off", "time": 26, "note": 68, "velocity": 113, "channel": 0}, {"type": "note_on", "time": 3, "note": 67, "velocity": 113, "channel": 0}, {"type": "note_off", "time": 28, "note": 67, "velocity": 113, "channel": 0}, {"type": "note_on", "time": 3, "note": 65, "velocity": 112, "channel": 0}, {"type": "note_off", "time": 19, "note": 65, "velocity": 112, "channel": 0}, {"type": "note_on", "time": 7, "note": 63, "velocity": 102, "channel": 0}, {"type": "note_off", "time": 24, "note": 63, "velocity": 102, "channel": 0}, {"type": "note_on", "time": 4, "note": 60, "velocity": 95, "channel": 0}, {"type": "note_off", "time": 41, "note": 60, "velocity": 95, "channel": 0}, {"type": "note_on", "time": 7, "note": 59, "velocity": 105, "channel": 0}, {"type": "note_off", "time": 31, "note": 59, "velocity": 105, "channel": 0}, {"type": "note_on", "time": 4, "note": 58, "velocity": 105, "channel": 0}, {"type": "note_off", "time": 21, "note": 58, "velocity": 105, "channel": 0}, {"type": "note_on", "time": 0, "note": 57, "velocity": 112, "channel": 0}, {"type": "note_off", "time": 48, "note": 57, "velocity": 112, "channel": 0}, {"type": "note_on", "time": 15, "note": 60, "velocity": 97, "channel": 0}, {"type": "note_off", "time": 28, "note": 60, "velocity": 97, "channel": 0}, {"type": "note_on", "time": 0, "note": 63, "velocity": 108, "channel": 0}, {"type": "note_off", "time": 28, "note": 63, "velocity": 108, "channel": 0}, {"type": "note_on", "time": 6, "note": 66, "velocity": 116, "channel": 0}, {"type": "note_off", "time": 35, "note": 66, "velocity": 116, "channel": 0}, {"type": "note_on", "time": 13, "note": 67, "velocity": 120, "channel": 0}, {"type": "note_off", "time": 85, "note": 67, "velocity": 120, "channel": 0}, {"type": "note_on", "time": 265, "note": 73, "velocity": 120, "channel": 0}, {"type": "note_off", "time": 87, "note": 73, "velocity": 120, "channel": 0}, {"type": "note_on", "time": 10, "note": 69, "velocity": 111, "channel": 0}, {"type": "note_off", "time": 92, "note": 69, "velocity": 111, "channel": 0}, {"type": "note_on", "time": 4, "note": 66, "velocity": 121, "channel": 0}, {"type": "note_off", "time": 87, "note": 66, "velocity": 121, "channel": 0}, {"type": "note_on", "time": 4, "note": 62, "velocity": 113, "channel": 0}, {"type": "note_off", "time": 81, "note": 62, "velocity": 113, "channel": 0}, {"type": "note_on", "time": 6, "note": 58, "velocity": 103, "channel": 0}, {"type": "note_off", "time": 78, "note": 58, "velocity": 103, "channel": 0}, {"type": "note_on", "time": 15, "note": 54, "velocity": 106, "channel": 0}, {"type": "note_off", "time": 74, "note": 54, "velocity": 106, "channel": 0}, {"type": "note_on", "time": 10, "note": 62, "velocity": 114, "channel": 0}, {"type": "note_off", "time": 109, "note": 62, "velocity": 114, "channel": 0}, {"type": "note_on", "time": 10, "note": 59, "velocity": 105, "channel": 0}, {"type": "note_off", "time": 61, "note": 59, "velocity": 105, "channel": 0}, {"type": "note_on", "time": 4, "note": 60, "velocity": 112, "channel": 0}, {"type": "note_off", "time": 113, "note": 60, "velocity": 112, "channel": 0}, {"type": "note_on", "time": 8, "note": 58, "velocity": 115, "channel": 0}, {"type": "note_off", "time": 48, "note": 58, "velocity": 115, "channel": 0}, {"type": "note_on", "time": 6, "note": 57, "velocity": 110, "channel": 0}, {"type": "note_off", "time": 56, "note": 57, "velocity": 110, "channel": 0}, {"type": "note_on", "time": 6, "note": 60, "velocity": 108, "channel": 0}, {"type": "note_off", "time": 41, "note": 60, "velocity": 108, "channel": 0}, {"type": "note_on", "time": 21, "note": 64, "velocity": 107, "channel": 0}, {"type": "note_off", "time": 46, "note": 64, "velocity": 107, "channel": 0}, {"type": "note_on", "time": 8, "note": 67, "velocity": 118, "channel": 0}, {"type": "note_off", "time": 124, "note": 67, "velocity": 118, "channel": 0}, {"type": "note_on", "time": 8, "note": 74, "velocity": 120, "channel": 0}, {"type": "note_off", "time": 70, "note": 74, "velocity": 120, "channel": 0}, {"type": "note_on", "time": 10, "note": 76, "velocity": 116, "channel": 0}, {"type": "note_off", "time": 43, "note": 76, "velocity": 116, "channel": 0}, {"type": "note_on", "time": 4, "note": 74, "velocity": 114, "channel": 0}, {"type": "note_off", "time": 43, "note": 74, "velocity": 114, "channel": 0}, {"type": "note_on", "time": 24, "note": 76, "velocity": 104, "channel": 0}, {"type": "note_off", "time": 59, "note": 76, "velocity": 104, "channel": 0}, {"type": "note_on", "time": 39, "note": 76, "velocity": 119, "channel": 0}, {"type": "note_off", "time": 160, "note": 76, "velocity": 119, "channel": 0}, {"type": "note_on", "time": 37, "note": 79, "velocity": 109, "channel": 0}, {"type": "note_off", "time": 129, "note": 79, "velocity": 109, "channel": 0}, {"type": "note_on", "time": 629, "note": 79, "velocity": 127, "channel": 0}, {"type": "note_off", "time": 103, "note": 79, "velocity": 127, "channel": 0}, {"type": "note_on", "time": 10, "note": 77, "velocity": 119, "channel": 0}, {"type": "note_off", "time": 63, "note": 77, "velocity": 119, "channel": 0}, {"type": "note_on", "time": 37, "note": 76, "velocity": 112, "channel": 0}, {"type": "note_off", "time": 46, "note": 76, "velocity": 112, "channel": 0}, {"type": "note_on", "time": 0, "note": 69, "velocity": 115, "channel": 0}, {"type": "note_off", "time": 59, "note": 69, "velocity": 115, "channel": 0}, {"type": "note_on", "time": 25, "note": 75, "velocity": 121, "channel": 0}, {"type": "note_off", "time": 131, "note": 75, "velocity": 121, "channel": 0}, {"type": "note_on", "time": 9, "note": 76, "velocity": 118, "channel": 0}, {"type": "note_off", "time": 254, "note": 76, "velocity": 118, "channel": 0}, {"type": "note_on", "time": 4, "note": 74, "velocity": 108, "channel": 0}, {"type": "note_off", "time": 35, "note": 74, "velocity": 108, "channel": 0}, {"type": "note_on", "time": 13, "note": 72, "velocity": 122, "channel": 0}, {"type": "note_off", "time": 35, "note": 72, "velocity": 122, "channel": 0}, {"type": "note_on", "time": 6, "note": 70, "velocity": 115, "channel": 0}, {"type": "note_off", "time": 35, "note": 70, "velocity": 115, "channel": 0}, {"type": "note_on", "time": 2, "note": 69, "velocity": 113, "channel": 0}, {"type": "note_off", "time": 63, "note": 69, "velocity": 113, "channel": 0}, {"type": "note_on", "time": 17, "note": 71, "velocity": 94, "channel": 0}, {"type": "note_off", "time": 39, "note": 71, "velocity": 94, "channel": 0}, {"type": "note_on", "time": 19, "note": 75, "velocity": 98, "channel": 0}, {"type": "note_off", "time": 82, "note": 75, "velocity": 98, "channel": 0}, {"type": "note_on", "time": 1, "note": 76, "velocity": 116, "channel": 0}, {"type": "note_off", "time": 63, "note": 76, "velocity": 116, "channel": 0}, {"type": "note_on", "time": 4, "note": 74, "velocity": 114, "channel": 0}, {"type": "note_off", "time": 46, "note": 74, "velocity": 114, "channel": 0}, {"type": "note_on", "time": 4, "note": 72, "velocity": 117, "channel": 0}, {"type": "note_off", "time": 41, "note": 72, "velocity": 117, "channel": 0}, {"type": "note_on", "time": 15, "note": 67, "velocity": 116, "channel": 0}, {"type": "note_off", "time": 43, "note": 67, "velocity": 116, "channel": 0}, {"type": "note_on", "time": 19, "note": 69, "velocity": 115, "channel": 0}, {"type": "note_off", "time": 39, "note": 69, "velocity": 115, "channel": 0}, {"type": "note_on", "time": 24, "note": 72, "velocity": 108, "channel": 0}, {"type": "note_off", "time": 56, "note": 72, "velocity": 108, "channel": 0}, {"type": "note_on", "time": 8, "note": 77, "velocity": 116, "channel": 0}, {"type": "note_off", "time": 219, "note": 77, "velocity": 116, "channel": 0}, {"type": "note_on", "time": 28, "note": 75, "velocity": 116, "channel": 0}, {"type": "note_off", "time": 81, "note": 75, "velocity": 116, "channel": 0}, {"type": "note_on", "time": 15, "note": 74, "velocity": 110, "channel": 0}, {"type": "note_off", "time": 32, "note": 74, "velocity": 110, "channel": 0}, {"type": "note_on", "time": 4, "note": 72, "velocity": 109, "channel": 0}, {"type": "note_off", "time": 37, "note": 72, "velocity": 109, "channel": 0}, {"type": "note_on", "time": 4, "note": 68, "velocity": 114, "channel": 0}, {"type": "note_off", "time": 63, "note": 68, "velocity": 114, "channel": 0}, {"type": "note_on", "time": 0, "note": 66, "velocity": 113, "channel": 0}, {"type": "note_off", "time": 37, "note": 66, "velocity": 113, "channel": 0}, {"type": "note_on", "time": 4, "note": 64, "velocity": 108, "channel": 0}, {"type": "note_off", "time": 26, "note": 64, "velocity": 108, "channel": 0}, {"type": "note_on", "time": 8, "note": 62, "velocity": 98, "channel": 0}, {"type": "note_off", "time": 30, "note": 62, "velocity": 98, "channel": 0}, {"type": "note_on", "time": 2, "note": 61, "velocity": 104, "channel": 0}, {"type": "note_off", "time": 32, "note": 61, "velocity": 104, "channel": 0}, {"type": "note_on", "time": 6, "note": 60, "velocity": 112, "channel": 0}, {"type": "note_off", "time": 59, "note": 60, "velocity": 112, "channel": 0}, {"type": "note_on", "time": 8, "note": 58, "velocity": 104, "channel": 0}, {"type": "note_off", "time": 48, "note": 58, "velocity": 104, "channel": 0}, {"type": "note_on", "time": 19, "note": 55, "velocity": 103, "channel": 0}, {"type": "note_off", "time": 67, "note": 55, "velocity": 103, "channel": 0}, {"type": "note_on", "time": 15, "note": 60, "velocity": 107, "channel": 0}, {"type": "note_off", "time": 48, "note": 60, "velocity": 107, "channel": 0}, {"type": "note_on", "time": 6, "note": 63, "velocity": 105, "channel": 0}, {"type": "note_off", "time": 46, "note": 63, "velocity": 105, "channel": 0}, {"type": "note_on", "time": 8, "note": 67, "velocity": 118, "channel": 0}, {"type": "note_off", "time": 81, "note": 67, "velocity": 118, "channel": 0}, {"type": "note_on", "time": 2, "note": 65, "velocity": 119, "channel": 0}, {"type": "note_off", "time": 98, "note": 65, "velocity": 119, "channel": 0}, {"type": "note_on", "time": 423, "note": 68, "velocity": 119, "channel": 0}, {"type": "note_off", "time": 74, "note": 68, "velocity": 119, "channel": 0}, {"type": "note_on", "time": 28, "note": 71, "velocity": 118, "channel": 0}, {"type": "note_off", "time": 43, "note": 71, "velocity": 118, "channel": 0}, {"type": "note_on", "time": 4, "note": 68, "velocity": 116, "channel": 0}, {"type": "note_off", "time": 70, "note": 68, "velocity": 116, "channel": 0}, {"type": "note_on", "time": 10, "note": 71, "velocity": 110, "channel": 0}, {"type": "note_off", "time": 35, "note": 71, "velocity": 110, "channel": 0}, {"type": "note_on", "time": 13, "note": 68, "velocity": 114, "channel": 0}, {"type": "note_off", "time": 50, "note": 68, "velocity": 114, "channel": 0}, {"type": "note_on", "time": 15, "note": 71, "velocity": 116, "channel": 0}, {"type": "note_off", "time": 39, "note": 71, "velocity": 116, "channel": 0}, {"type": "note_on", "time": 6, "note": 68, "velocity": 114, "channel": 0}, {"type": "note_off", "time": 35, "note": 68, "velocity": 114, "channel": 0}, {"type": "note_on", "time": 8, "note": 71, "velocity": 113, "channel": 0}, {"type": "note_off", "time": 26, "note": 71, "velocity": 113, "channel": 0}, {"type": "note_on", "time": 17, "note": 68, "velocity": 116, "channel": 0}, {"type": "note_off", "time": 48, "note": 68, "velocity": 116, "channel": 0}, {"type": "note_on", "time": 15, "note": 69, "velocity": 117, "channel": 0}, {"type": "note_off", "time": 72, "note": 69, "velocity": 117, "channel": 0}, {"type": "note_on", "time": 4, "note": 71, "velocity": 114, "channel": 0}, {"type": "note_off", "time": 48, "note": 71, "velocity": 114, "channel": 0}, {"type": "note_on", "time": 2, "note": 69, "velocity": 112, "channel": 0}, {"type": "note_off", "time": 54, "note": 69, "velocity": 112, "channel": 0}, {"type": "note_on", "time": 10, "note": 71, "velocity": 115, "channel": 0}, {"type": "note_off", "time": 19, "note": 71, "velocity": 115, "channel": 0}, {"type": "note_on", "time": 6, "note": 69, "velocity": 113, "channel": 0}, {"type": "note_off", "time": 39, "note": 69, "velocity": 113, "channel": 0}, {"type": "note_on", "time": 8, "note": 71, "velocity": 117, "channel": 0}, {"type": "note_off", "time": 26, "note": 71, "velocity": 117, "channel": 0}, {"type": "note_on", "time": 8, "note": 69, "velocity": 107, "channel": 0}, {"type": "note_off", "time": 61, "note": 69, "velocity": 107, "channel": 0}, {"type": "note_on", "time": 28, "note": 70, "velocity": 112, "channel": 0}, {"type": "note_off", "time": 81, "note": 70, "velocity": 112, "channel": 0}, {"type": "note_on", "time": 6, "note": 69, "velocity": 108, "channel": 0}, {"type": "note_off", "time": 37, "note": 69, "velocity": 108, "channel": 0}, {"type": "note_on", "time": 13, "note": 68, "velocity": 116, "channel": 0}, {"type": "note_off", "time": 48, "note": 68, "velocity": 116, "channel": 0}, {"type": "note_on", "time": 0, "note": 72, "velocity": 112, "channel": 0}, {"type": "note_off", "time": 52, "note": 72, "velocity": 112, "channel": 0}, {"type": "note_on", "time": 8, "note": 70, "velocity": 114, "channel": 0}, {"type": "note_off", "time": 87, "note": 70, "velocity": 114, "channel": 0}, {"type": "note_on", "time": 10, "note": 72, "velocity": 106, "channel": 0}, {"type": "note_off", "time": 32, "note": 72, "velocity": 106, "channel": 0}, {"type": "note_on", "time": 10, "note": 71, "velocity": 121, "channel": 0}, {"type": "note_off", "time": 111, "note": 71, "velocity": 121, "channel": 0}, {"type": "note_on", "time": 10, "note": 72, "velocity": 113, "channel": 0}, {"type": "note_off", "time": 50, "note": 72, "velocity": 113, "channel": 0}, {"type": "note_on", "time": 13, "note": 71, "velocity": 115, "channel": 0}, {"type": "note_off", "time": 52, "note": 71, "velocity": 115, "channel": 0}, {"type": "note_on", "time": 4, "note": 72, "velocity": 108, "channel": 0}, {"type": "note_off", "time": 28, "note": 72, "velocity": 108, "channel": 0}, {"type": "note_on", "time": 8, "note": 71, "velocity": 113, "channel": 0}, {"type": "note_off", "time": 37, "note": 71, "velocity": 113, "channel": 0}, {"type": "note_on", "time": 10, "note": 72, "velocity": 105, "channel": 0}, {"type": "note_off", "time": 48, "note": 72, "velocity": 105, "channel": 0}, {"type": "note_on", "time": 35, "note": 72, "velocity": 124, "channel": 0}, {"type": "note_off", "time": 48, "note": 72, "velocity": 124, "channel": 0}, {"type": "note_on", "time": 35, "note": 73, "velocity": 119, "channel": 0}, {"type": "note_off", "time": 74, "note": 73, "velocity": 119, "channel": 0}, {"type": "note_on", "time": 15, "note": 70, "velocity": 116, "channel": 0}, {"type": "note_off", "time": 92, "note": 70, "velocity": 116, "channel": 0}, {"type": "note_on", "time": 26, "note": 66, "velocity": 116, "channel": 0}, {"type": "note_off", "time": 87, "note": 66, "velocity": 116, "channel": 0}, {"type": "note_on", "time": 4, "note": 61, "velocity": 106, "channel": 0}, {"type": "note_off", "time": 65, "note": 61, "velocity": 106, "channel": 0}, {"type": "note_on", "time": 15, "note": 58, "velocity": 97, "channel": 0}, {"type": "note_off", "time": 65, "note": 58, "velocity": 97, "channel": 0}, {"type": "note_on", "time": 4, "note": 62, "velocity": 108, "channel": 0}, {"type": "note_off", "time": 111, "note": 62, "velocity": 108, "channel": 0}, {"type": "note_on", "time": 2, "note": 59, "velocity": 103, "channel": 0}, {"type": "note_off", "time": 46, "note": 59, "velocity": 103, "channel": 0}, {"type": "note_on", "time": 17, "note": 60, "velocity": 118, "channel": 0}, {"type": "note_off", "time": 67, "note": 60, "velocity": 118, "channel": 0}, {"type": "note_on", "time": 10, "note": 64, "velocity": 109, "channel": 0}, {"type": "note_off", "time": 54, "note": 64, "velocity": 109, "channel": 0}, {"type": "note_on", "time": 8, "note": 60, "velocity": 107, "channel": 0}, {"type": "note_off", "time": 50, "note": 60, "velocity": 107, "channel": 0}, {"type": "note_on", "time": 4, "note": 57, "velocity": 117, "channel": 0}, {"type": "note_off", "time": 46, "note": 57, "velocity": 117, "channel": 0}, {"type": "note_on", "time": 24, "note": 63, "velocity": 97, "channel": 0}, {"type": "note_off", "time": 81, "note": 63, "velocity": 97, "channel": 0}, {"type": "note_on", "time": 10, "note": 69, "velocity": 106, "channel": 0}, {"type": "note_off", "time": 61, "note": 69, "velocity": 106, "channel": 0}, {"type": "note_on", "time": 32, "note": 70, "velocity": 114, "channel": 0}, {"type": "note_off", "time": 70, "note": 70, "velocity": 114, "channel": 0}, {"type": "note_on", "time": 6, "note": 66, "velocity": 120, "channel": 0}, {"type": "note_off", "time": 70, "note": 66, "velocity": 120, "channel": 0}, {"type": "note_on", "time": 13, "note": 67, "velocity": 117, "channel": 0}, {"type": "note_off", "time": 94, "note": 67, "velocity": 117, "channel": 0}, {"type": "note_on", "time": 6, "note": 69, "velocity": 110, "channel": 0}, {"type": "note_off", "time": 76, "note": 69, "velocity": 110, "channel": 0}, {"type": "note_on", "time": 2, "note": 70, "velocity": 115, "channel": 0}, {"type": "note_off", "time": 70, "note": 70, "velocity": 115, "channel": 0}, {"type": "note_on", "time": 24, "note": 72, "velocity": 117, "channel": 0}, {"type": "note_off", "time": 76, "note": 72, "velocity": 117, "channel": 0}, {"type": "note_on", "time": 15, "note": 74, "velocity": 114, "channel": 0}, {"type": "note_off", "time": 100, "note": 74, "velocity": 114, "channel": 0}, {"type": "note_on", "time": 24, "note": 71, "velocity": 115, "channel": 0}, {"type": "note_off", "time": 48, "note": 71, "velocity": 115, "channel": 0}, {"type": "note_on", "time": 4, "note": 73, "velocity": 119, "channel": 0}, {"type": "note_off", "time": 107, "note": 73, "velocity": 119, "channel": 0}, {"type": "note_on", "time": 15, "note": 70, "velocity": 111, "channel": 0}, {"type": "note_off", "time": 87, "note": 70, "velocity": 111, "channel": 0}, {"type": "note_on", "time": 6, "note": 66, "velocity": 113, "channel": 0}, {"type": "note_off", "time": 105, "note": 66, "velocity": 113, "channel": 0}, {"type": "note_on", "time": 17, "note": 63, "velocity": 99, "channel": 0}, {"type": "note_off", "time": 59, "note": 63, "velocity": 99, "channel": 0}, {"type": "note_on", "time": 0, "note": 69, "velocity": 109, "channel": 0}, {"type": "note_off", "time": 50, "note": 69, "velocity": 109, "channel": 0}, {"type": "note_on", "time": 2, "note": 70, "velocity": 116, "channel": 0}, {"type": "note_off", "time": 21, "note": 70, "velocity": 116, "channel": 0}, {"type": "note_on", "time": 4, "note": 69, "velocity": 114, "channel": 0}, {"type": "note_off", "time": 41, "note": 69, "velocity": 114, "channel": 0}, {"type": "note_on", "time": 13, "note": 66, "velocity": 117, "channel": 0}, {"type": "note_off", "time": 61, "note": 66, "velocity": 117, "channel": 0}, {"type": "note_on", "time": 6, "note": 67, "velocity": 117, "channel": 0}, {"type": "note_off", "time": 124, "note": 67, "velocity": 117, "channel": 0}, {"type": "note_on", "time": 8, "note": 69, "velocity": 114, "channel": 0}, {"type": "note_off", "time": 103, "note": 69, "velocity": 114, "channel": 0}, {"type": "note_on", "time": 2, "note": 70, "velocity": 110, "channel": 0}, {"type": "note_off", "time": 70, "note": 70, "velocity": 110, "channel": 0}, {"type": "note_on", "time": 28, "note": 72, "velocity": 106, "channel": 0}, {"type": "note_off", "time": 67, "note": 72, "velocity": 106, "channel": 0}, {"type": "note_on", "time": 6, "note": 74, "velocity": 117, "channel": 0}, {"type": "note_off", "time": 76, "note": 74, "velocity": 117, "channel": 0}, {"type": "note_on", "time": 15, "note": 71, "velocity": 115, "channel": 0}, {"type": "note_off", "time": 67, "note": 71, "velocity": 115, "channel": 0}, {"type": "note_on", "time": 28, "note": 72, "velocity": 117, "channel": 0}, {"type": "note_off", "time": 48, "note": 72, "velocity": 117, "channel": 0}, {"type": "note_on", "time": 8, "note": 74, "velocity": 117, "channel": 0}, {"type": "note_off", "time": 35, "note": 74, "velocity": 117, "channel": 0}, {"type": "note_on", "time": 6, "note": 70, "velocity": 107, "channel": 0}, {"type": "note_off", "time": 89, "note": 70, "velocity": 107, "channel": 0}, {"type": "note_on", "time": 21, "note": 66, "velocity": 115, "channel": 0}, {"type": "note_off", "time": 85, "note": 66, "velocity": 115, "channel": 0}, {"type": "note_on", "time": 8, "note": 62, "velocity": 105, "channel": 0}, {"type": "note_off", "time": 92, "note": 62, "velocity": 105, "channel": 0}, {"type": "note_on", "time": 8, "note": 58, "velocity": 106, "channel": 0}, {"type": "note_off", "time": 87, "note": 58, "velocity": 106, "channel": 0}, {"type": "note_on", "time": 13, "note": 55, "velocity": 111, "channel": 0}, {"type": "note_off", "time": 61, "note": 55, "velocity": 111, "channel": 0}, {"type": "note_on", "time": 6, "note": 62, "velocity": 111, "channel": 0}, {"type": "note_off", "time": 92, "note": 62, "velocity": 111, "channel": 0}, {"type": "note_on", "time": 6, "note": 59, "velocity": 103, "channel": 0}, {"type": "note_off", "time": 46, "note": 59, "velocity": 103, "channel": 0}, {"type": "note_on", "time": 2, "note": 60, "velocity": 109, "channel": 0}, {"type": "note_off", "time": 48, "note": 60, "velocity": 109, "channel": 0}, {"type": "note_on", "time": 13, "note": 62, "velocity": 102, "channel": 0}, {"type": "note_off", "time": 54, "note": 62, "velocity": 102, "channel": 0}, {"type": "note_on", "time": 6, "note": 60, "velocity": 105, "channel": 0}, {"type": "note_off", "time": 67, "note": 60, "velocity": 105, "channel": 0}, {"type": "note_on", "time": 8, "note": 57, "velocity": 9, "channel": 0}, {"type": "note_off", "time": 70, "note": 57, "velocity": 9, "channel": 0}, {"type": "note_on", "time": 6, "note": 60, "velocity": 101, "channel": 0}, {"type": "note_off", "time": 50, "note": 60, "velocity": 101, "channel": 0}, {"type": "note_on", "time": 21, "note": 64, "velocity": 106, "channel": 0}, {"type": "note_off", "time": 41, "note": 64, "velocity": 106, "channel": 0}, {"type": "note_on", "time": 0, "note": 67, "velocity": 119, "channel": 0}, {"type": "note_off", "time": 122, "note": 67, "velocity": 119, "channel": 0}, {"type": "note_on", "time": 10, "note": 64, "velocity": 112, "channel": 0}, {"type": "note_off", "time": 46, "note": 64, "velocity": 112, "channel": 0}, {"type": "note_on", "time": 3, "note": 65, "velocity": 123, "channel": 0}, {"type": "note_off", "time": 135, "note": 65, "velocity": 123, "channel": 0}, {"type": "note_on", "time": 0, "note": 67, "velocity": 116, "channel": 0}, {"type": "note_off", "time": 86, "note": 67, "velocity": 116, "channel": 0}, {"type": "note_on", "time": 174, "note": 72, "velocity": 126, "channel": 0}, {"type": "note_off", "time": 96, "note": 72, "velocity": 126, "channel": 0}, {"type": "note_on", "time": 0, "note": 75, "velocity": 116, "channel": 0}, {"type": "note_off", "time": 39, "note": 75, "velocity": 116, "channel": 0}, {"type": "note_on", "time": 0, "note": 72, "velocity": 104, "channel": 0}, {"type": "note_off", "time": 19, "note": 72, "velocity": 104, "channel": 0}, {"type": "note_on", "time": 13, "note": 70, "velocity": 120, "channel": 0}, {"type": "note_off", "time": 46, "note": 70, "velocity": 120, "channel": 0}, {"type": "note_on", "time": 8, "note": 69, "velocity": 119, "channel": 0}, {"type": "note_off", "time": 110, "note": 69, "velocity": 119, "channel": 0}, {"type": "note_on", "time": 0, "note": 65, "velocity": 117, "channel": 0}, {"type": "note_off", "time": 107, "note": 65, "velocity": 117, "channel": 0}, {"type": "note_on", "time": 0, "note": 61, "velocity": 111, "channel": 0}, {"type": "note_off", "time": 52, "note": 61, "velocity": 111, "channel": 0}, {"type": "note_on", "time": 12, "note": 58, "velocity": 106, "channel": 0}, {"type": "note_off", "time": 77, "note": 58, "velocity": 106, "channel": 0}, {"type": "note_on", "time": 18, "note": 67, "velocity": 120, "channel": 0}, {"type": "note_off", "time": 169, "note": 67, "velocity": 120, "channel": 0}, {"type": "note_on", "time": 12, "note": 64, "velocity": 103, "channel": 0}, {"type": "note_off", "time": 188, "note": 64, "velocity": 103, "channel": 0}, {"type": "note_on", "time": 33, "note": 67, "velocity": 119, "channel": 0}, {"type": "note_off", "time": 107, "note": 67, "velocity": 119, "channel": 0}, {"type": "note_on", "time": 18, "note": 64, "velocity": 101, "channel": 0}, {"type": "note_off", "time": 258, "note": 64, "velocity": 101, "channel": 0}, {"type": "end_of_track", "time": 0}]]}