{"ticks_per_beat": 192, "tracks": [[{"type": "track_name", "name": "Melody", "time": 0}, {"type": "set_tempo", "tempo": 200000, "time": 0}, {"type": "key_signature", "key": "Bb", "time": 0}, {"type": "time_signature", "numerator": 4, "denominator": 4, "clocks_per_click": 24, "notated_32nd_notes_per_beat": 8, "time": 0}, {"type": "note_on", "time": 3252, "note": 74, "velocity": 114, "channel": 0}, {"type": "note_off", "time": 89, "note": 74, "velocity": 114, "channel": 0}, {"type": "note_on", "time": 108, "note": 77, "velocity": 125, "channel": 0}, {"type": "note_off", "time": 231, "note": 77, "velocity": 125, "channel": 0}, {"type": "note_on", "time": 50, "note": 74, "velocity": 116, "channel": 0}, {"type": "note_off", "time": 103, "note": 74, "velocity": 116, "channel": 0}, {"type": "note_on", "time": 8, "note": 75, "velocity": 125, "channel": 0}, {"type": "note_off", "time": 111, "note": 75, "velocity": 125, "channel": 0}, {"type": "note_on", "time": 21, "note": 77, "velocity": 116, "channel": 0}, {"type": "note_off", "time": 94, "note": 77, "velocity": 116, "channel": 0}, {"type": "note_on", "time": 746, "note": 74, "velocity": 102, "channel": 0}, {"type": "note_off", "time": 93, "note": 74, "velocity": 102, "channel": 0}, {"type": "note_on", "time": 94, "note": 75, "velocity": 124, "channel": 0}, {"type": "note_off", "time": 259, "note": 75, "velocity": 124, "channel": 0}, {"type": "note_on", "time": 29, "note": 74, "velocity": 104, "channel": 0}, {"type": "note_off", "time": 69, "note": 74, "velocity": 104, "channel": 0}, {"type": "note_on", "time": 10, "note": 75, "velocity": 122, "channel": 0}, {"type": "note_off", "time": 125, "note": 75, "velocity": 122, "channel": 0}, {"type": "note_on", "time": 10, "note": 73, "velocity": 119, "channel": 0}, {"type": "note_off", "time": 75, "note": 73, "velocity": 119, "channel": 0}, {"type": "note_on", "time": 13, "note": 74, "velocity": 121, "channel": 0}, {"type": "note_off", "time": 83, "note": 74, "velocity": 121, "channel": 0}, {"type": "note_on", "time": 22, "note": 77, "velocity": 120, "channel": 0}, {"type": "note_off", "time": 72, "note": 77, "velocity": 120, "channel": 0}, {"type": "note_on", "time": 99, "note": 73, "velocity": 120, "channel": 0}, {"type": "note_off", "time": 91, "note": 73, "velocity": 120, "channel": 0}, {"type": "note_on", "time": 5, "note": 74, "velocity": 113, "channel": 0}, {"type": "note_off", "time": 71, "note": 74, "velocity": 113, "channel": 0}, {"type": "note_on", "time": 23, "note": 77, "velocity": 115, "channel": 0}, {"type": "note_off", "time": 90, "note": 77, "velocity": 115, "channel": 0}, {"type": "note_on", "time": 16, "note": 73, "velocity": 111, "channel": 0}, {"type": "note_off", "time": 52, "note": 73, "velocity": 111, "channel": 0}, {"type": "note_on", "time": 6, "note": 74, "velocity": 120, "channel": 0}, {"type": "note_off", "time": 43, "note": 74, "velocity": 120, "channel": 0}, {"type": "note_on", "time": 11, "note": 73, "velocity": 118, "channel": 0}, {"type": "note_off", "time": 78, "note": 73, "velocity": 118, "channel": 0}, {"type": "note_on", "time": 13, "note": 72, "velocity": 110, "channel": 0}, {"type": "note_off", "time": 83, "note": 72, "velocity": 110, "channel": 0}, {"type": "note_on", "time": 11, "note": 70, "velocity": 119, "channel": 0}, {"type": "note_off", "time": 84, "note": 70, "velocity": 119, "channel": 0}, {"type": "note_on", "time": 18, "note": 68, "velocity": 108, "channel": 0}, {"type": "note_off", "time": 52, "note": 68, "velocity": 108, "channel": 0}, {"type": "note_on", "time": 1, "note": 70, "velocity": 108, "channel": 0}, {"type": "note_off", "time": 59, "note": 70, "velocity": 108, "channel": 0}, {"type": "note_on", "time": 6, "note": 68, "velocity": 118, "channel": 0}, {"type": "note_off", "time": 134, "note": 68, "velocity": 118, "channel": 0}, {"type": "note_on", "time": 6, "note": 67, "velocity": 104, "channel": 0}, {"type": "note_off", "time": 54, "note": 67, "velocity": 104, "channel": 0}, {"type": "note_on", "time": 18, "note": 64, "velocity": 104, "channel": 0}, {"type": "note_off", "time": 79, "note": 64, "velocity": 104, "channel": 0}, {"type": "note_on", "time": 12, "note": 65, "velocity": 117, "channel": 0}, {"type": "note_off", "time": 90, "note": 65, "velocity": 117, "channel": 0}, {"type": "note_on", "time": 44, "note": 62, "velocity": 92, "channel": 0}, {"type": "note_off", "time": 47, "note": 62, "velocity": 92, "channel": 0}, {"type": "note_on", "time": 4, "note": 63, "velocity": 102, "channel": 0}, {"type": "note_off", "time": 83, "note": 63, "velocity": 102, "channel": 0}, {"type": "note_on", "time": 5, "note": 65, "velocity": 108, "channel": 0}, {"type": "note_off", "time": 95, "note": 65, "velocity": 108, "channel": 0}, {"type": "note_on", "time": 23, "note": 67, "velocity": 101, "channel": 0}, {"type": "note_off", "time": 82, "note": 67, "velocity": 101, "channel": 0}, {"type": "note_on", "time": 15, "note": 69, "velocity": 97, "channel": 0}, {"type": "note_off", "time": 45, "note": 69, "velocity": 97, "channel": 0}, {"type": "note_on", "time": 12, "note": 70, "velocity": 121, "channel": 0}, {"type": "note_off", "time": 114, "note": 70, "velocity": 121, "channel": 0}, {"type": "note_on", "time": 11, "note": 72, "velocity": 118, "channel": 0}, {"type": "note_off", "time": 91, "note": 72, "velocity": 118, "channel": 0}, {"type": "note_on", "time": 12, "note": 73, "velocity": 118, "channel": 0}, {"type": "note_off", "time": 69, "note": 73, "velocity": 118, "channel": 0}, {"type": "note_on", "time": 8, "note": 74, "velocity": 122, "channel": 0}, {"type": "note_off", "time": 91, "note": 74, "velocity": 122, "channel": 0}, {"type": "note_on", "time": 16, "note": 75, "velocity": 113, "channel": 0}, {"type": "note_off", "time": 92, "note": 75, "velocity": 113, "channel": 0}, {"type": "note_on", "time": 12, "note": 73, "velocity": 102, "channel": 0}, {"type": "note_off", "time": 64, "note": 73, "velocity": 102, "channel": 0}, {"type": "note_on", "time": 4, "note": 74, "velocity": 119, "channel": 0}, {"type": "note_off", "time": 109, "note": 74, "velocity": 119, "channel": 0}, {"type": "note_on", "time": 11, "note": 70, "velocity": 116, "channel": 0}, {"type": "note_off", "time": 93, "note": 70, "velocity": 116, "channel": 0}, {"type": "note_on", "time": 1218, "note": 84, "velocity": 104, "channel": 0}, {"type": "note_off", "time": 76, "note": 84, "velocity": 104, "channel": 0}, {"type": "note_on", "time": 6, "note": 81, "velocity": 119, "channel": 0}, {"type": "note_off", "time": 63, "note": 81, "velocity": 119, "channel": 0}, {"type": "note_on", "time": 5, "note": 79, "velocity": 120, "channel": 0}, {"type": "note_off", "time": 54, "note": 79, "velocity": 120, "channel": 0}, {"type": "note_on", "time": 3, "note": 77, "velocity": 121, "channel": 0}, {"type": "note_off", "time": 81, "note": 77, "velocity": 121, "channel": 0}, {"type": "note_on", "time": 13, "note": 75, "velocity": 118, "channel": 0}, {"type": "note_off", "time": 95, "note": 75, "velocity": 118, "channel": 0}, {"type": "note_on", "time": 13, "note": 73, "velocity": 117, "channel": 0}, {"type": "note_off", "time": 77, "note": 73, "velocity": 117, "channel": 0}, {"type": "note_on", "time": 3, "note": 74, "velocity": 116, "channel": 0}, {"type": "note_off", "time": 91, "note": 74, "velocity": 116, "channel": 0}, {"type": "note_on", "time": 5, "note": 70, "velocity": 115, "channel": 0}, {"type": "note_off", "time": 105, "note": 70, "velocity": 115, "channel": 0}, {"type": "note_on", "time": 10, "note": 67, "velocity": 98, "channel": 0}, {"type": "note_off", "time": 83, "note": 67, "velocity": 98, "channel": 0}, {"type": "note_on", "time": 37, "note": 70, "velocity": 91, "channel": 0}, {"type": "note_off", "time": 56, "note": 70, "velocity": 91, "channel": 0}, {"type": "note_on", "time": 5, "note": 72, "velocity": 109, "channel": 0}, {"type": "note_off", "time": 55, "note": 72, "velocity": 109, "channel": 0}, {"type": "note_on", "time": 7, "note": 73, "velocity": 112, "channel": 0}, {"type": "note_off", "time": 46, "note": 73, "velocity": 112, "channel": 0}, {"type": "note_on", "time": 4, "note": 72, "velocity": 119, "channel": 0}, {"type": "note_off", "time": 74, "note": 72, "velocity": 119, "channel": 0}, {"type": "note_on", "time": 7, "note": 71, "velocity": 105, "channel": 0}, {"type": "note_off", "time": 61, "note": 71, "velocity": 105, "channel": 0}, {"type": "note_on", "time": 9, "note": 69, "velocity": 96, "channel": 0}, {"type": "note_off", "time": 98, "note": 69, "velocity": 96, "channel": 0}, {"type": "note_on", "time": 10, "note": 70, "velocity": 116, "channel": 0}, {"type": "note_off", "time": 98, "note": 70, "velocity": 116, "channel": 0}, {"type": "note_on", "time": 4, "note": 69, "velocity": 108, "channel": 0}, {"type": "note_off", "time": 102, "note": 69, "velocity": 108, "channel": 0}, {"type": "note_on", "time": 19, "note": 65, "velocity": 91, "channel": 0}, {"type": "note_off", "time": 74, "note": 65, "velocity": 91, "channel": 0}, {"type": "note_on", "time": 27, "note": 62, "velocity": 85, "channel": 0}, {"type": "note_off", "time": 78, "note": 62, "velocity": 85, "channel": 0}, {"type": "note_on", "time": 7, "note": 68, "velocity": 111, "channel": 0}, {"type": "note_off", "time": 73, "note": 68, "velocity": 111, "channel": 0}, {"type": "note_on", "time": 16, "note": 67, "velocity": 112, "channel": 0}, {"type": "note_off", "time": 90, "note": 67, "velocity": 112, "channel": 0}, {"type": "note_on", "time": 10, "note": 65, "velocity": 105, "channel": 0}, {"type": "note_off", "time": 90, "note": 65, "velocity": 105, "channel": 0}, {"type": "note_on", "time": 28, "note": 62, "velocity": 88, "channel": 0}, {"type": "note_off", "time": 73, "note": 62, "velocity": 88, "channel": 0}, {"type": "note_on", "time": 14, "note": 63, "velocity": 104, "channel": 0}, {"type": "note_off", "time": 88, "note": 63, "velocity": 104, "channel": 0}, {"type": "note_on", "time": 1, "note": 65, "velocity": 110, "channel": 0}, {"type": "note_off", "time": 76, "note": 65, "velocity": 110, "channel": 0}, {"type": "note_on", "time": 24, "note": 67, "velocity": 99, "channel": 0}, {"type": "note_off", "time": 95, "note": 67, "velocity": 99, "channel": 0}, {"type": "note_on", "time": 16, "note": 69, "velocity": 89, "channel": 0}, {"type": "note_off", "time": 53, "note": 69, "velocity": 89, "channel": 0}, {"type": "note_on", "time": 5, "note": 70, "velocity": 107, "channel": 0}, {"type": "note_off", "time": 101, "note": 70, "velocity": 107, "channel": 0}, {"type": "note_on", "time": 16, "note": 72, "velocity": 120, "channel": 0}, {"type": "note_off", "time": 96, "note": 72, "velocity": 120, "channel": 0}, {"type": "note_on", "time": 7, "note": 73, "velocity": 115, "channel": 0}, {"type": "note_off", "time": 68, "note": 73, "velocity": 115, "channel": 0}, {"type": "note_on", "time": 8, "note": 74, "velocity": 118, "channel": 0}, {"type": "note_off", "time": 100, "note": 74, "velocity": 118, "channel": 0}, {"type": "note_on", "time": 11, "note": 75, "velocity": 106, "channel": 0}, {"type": "note_off", "time": 144, "note": 75, "velocity": 106, "channel": 0}, {"type": "note_on", "time": 7, "note": 74, "velocity": 116, "channel": 0}, {"type": "note_off", "time": 103, "note": 74, "velocity": 116, "channel": 0}, {"type": "note_on", "time": 130, "note": 86, "velocity": 122, "channel": 0}, {"type": "note_off", "time": 102, "note": 86, "velocity": 122, "channel": 0}, {"type": "note_on", "time": 20, "note": 85, "velocity": 127, "channel": 0}, {"type": "note_off", "time": 72, "note": 85, "velocity": 127, "channel": 0}, {"type": "note_on", "time": 5, "note": 84, "velocity": 122, "channel": 0}, {"type": "note_off", "time": 73, "note": 84, "velocity": 122, "channel": 0}, {"type": "note_on", "time": 6, "note": 82, "velocity": 120, "channel": 0}, {"type": "note_off", "time": 77, "note": 82, "velocity": 120, "channel": 0}, {"type": "note_on", "time": 16, "note": 81, "velocity": 114, "channel": 0}, {"type": "note_off", "time": 32, "note": 81, "velocity": 114, "channel": 0}, {"type": "note_on", "time": 7, "note": 79, "velocity": 109, "channel": 0}, {"type": "note_off", "time": 57, "note": 79, "velocity": 109, "channel": 0}, {"type": "note_on", "time": 6, "note": 77, "velocity": 113, "channel": 0}, {"type": "note_off", "time": 87, "note": 77, "velocity": 113, "channel": 0}, {"type": "note_on", "time": 16, "note": 75, "velocity": 115, "channel": 0}, {"type": "note_off", "time": 88, "note": 75, "velocity": 115, "channel": 0}, {"type": "note_on", "time": 4, "note": 73, "velocity": 116, "channel": 0}, {"type": "note_off", "time": 91, "note": 73, "velocity": 116, "channel": 0}, {"type": "note_on", "time": 6, "note": 74, "velocity": 111, "channel": 0}, {"type": "note_off", "time": 89, "note": 74, "velocity": 111, "channel": 0}, {"type": "note_on", "time": 3, "note": 77, "velocity": 110, "channel": 0}, {"type": "note_off", "time": 87, "note": 77, "velocity": 110, "channel": 0}, {"type": "note_on", "time": 15, "note": 72, "velocity": 100, "channel": 0}, {"type": "note_off", "time": 38, "note": 72, "velocity": 100, "channel": 0}, {"type": "note_on", "time": 17, "note": 74, "velocity": 107, "channel": 0}, {"type": "note_off", "time": 48, "note": 74, "velocity": 107, "channel": 0}, {"type": "note_on", "time": 6, "note": 73, "velocity": 115, "channel": 0}, {"type": "note_off", "time": 61, "note": 73, "velocity": 115, "channel": 0}, {"type": "note_on", "time": 13, "note": 72, "velocity": 117, "channel": 0}, {"type": "note_off", "time": 136, "note": 72, "velocity": 117, "channel": 0}, {"type": "note_on", "time": 0, "note": 70, "velocity": 107, "channel": 0}, {"type": "note_off", "time": 117, "note": 70, "velocity": 107, "channel": 0}, {"type": "note_on", "time": 1271, "note": 69, "velocity": 113, "channel": 0}, {"type": "note_off", "time": 66, "note": 69, "velocity": 113, "channel": 0}, {"type": "note_on", "time": 31, "note": 71, "velocity": 113, "channel": 0}, {"type": "note_off", "time": 71, "note": 71, "velocity": 113, "channel": 0}, {"type": "note_on", "time": 7, "note": 72, "velocity": 117, "channel": 0}, {"type": "note_off", "time": 96, "note": 72, "velocity": 117, "channel": 0}, {"type": "note_on", "time": 17, "note": 74, "velocity": 96, "channel": 0}, {"type": "note_off", "time": 81, "note": 74, "velocity": 96, "channel": 0}, {"type": "note_on", "time": 25, "note": 76, "velocity": 120, "channel": 0}, {"type": "note_off", "time": 80, "note": 76, "velocity": 120, "channel": 0}, {"type": "note_on", "time": 25, "note": 79, "velocity": 114, "channel": 0}, {"type": "note_off", "time": 86, "note": 79, "velocity": 114, "channel": 0}, {"type": "note_on", "time": 9, "note": 78, "velocity": 117, "channel": 0}, {"type": "note_off", "time": 83, "note": 78, "velocity": 117, "channel": 0}, {"type": "note_on", "time": 6, "note": 76, "velocity": 118, "channel": 0}, {"type": "note_off", "time": 71, "note": 76, "velocity": 118, "channel": 0}, {"type": "note_on", "time": 8, "note": 74, "velocity": 117, "channel": 0}, {"type": "note_off", "time": 85, "note": 74, "velocity": 117, "channel": 0}, {"type": "note_on", "time": 38, "note": 71, "velocity": 101, "channel": 0}, {"type": "note_off", "time": 64, "note": 71, "velocity": 101, "channel": 0}, {"type": "note_on", "time": 8, "note": 72, "velocity": 105, "channel": 0}, {"type": "note_off", "time": 81, "note": 72, "velocity": 105, "channel": 0}, {"type": "note_on", "time": 6, "note": 74, "velocity": 103, "channel": 0}, {"type": "note_off", "time": 73, "note": 74, "velocity": 103, "channel": 0}, {"type": "note_on", "time": 9, "note": 76, "velocity": 112, "channel": 0}, {"type": "note_off", "time": 57, "note": 76, "velocity": 112, "channel": 0}, {"type": "note_on", "time": 4, "note": 77, "velocity": 122, "channel": 0}, {"type": "note_off", "time": 61, "note": 77, "velocity": 122, "channel": 0}, {"type": "note_on", "time": 5, "note": 76, "velocity": 119, "channel": 0}, {"type": "note_off", "time": 70, "note": 76, "velocity": 119, "channel": 0}, {"type": "note_on", "time": 9, "note": 74, "velocity": 116, "channel": 0}, {"type": "note_off", "time": 101, "note": 74, "velocity": 116, "channel": 0}, {"type": "note_on", "time": 8, "note": 72, "velocity": 117, "channel": 0}, {"type": "note_off", "time": 80, "note": 72, "velocity": 117, "channel": 0}, {"type": "note_on", "time": 2, "note": 71, "velocity": 110, "channel": 0}, {"type": "note_off", "time": 60, "note": 71, "velocity": 110, "channel": 0}, {"type": "note_on", "time": 23, "note": 69, "velocity": 117, "channel": 0}, {"type": "note_off", "time": 83, "note": 69, "velocity": 117, "channel": 0}, {"type": "note_on", "time": 8, "note": 67, "velocity": 97, "channel": 0}, {"type": "note_off", "time": 82, "note": 67, "velocity": 97, "channel": 0}, {"type": "note_on", "time": 53, "note": 66, "velocity": 93, "channel": 0}, {"type": "note_off", "time": 50, "note": 66, "velocity": 93, "channel": 0}, {"type": "note_on", "time": 16, "note": 65, "velocity": 94, "channel": 0}, {"type": "note_off", "time": 81, "note": 65, "velocity": 94, "channel": 0}, {"type": "note_on", "time": 9, "note": 64, "velocity": 114, "channel": 0}, {"type": "note_off", "time": 89, "note": 64, "velocity": 114, "channel": 0}, {"type": "note_on", "time": 7, "note": 62, "velocity": 105, "channel": 0}, {"type": "note_off", "time": 57, "note": 62, "velocity": 105, "channel": 0}, {"type": "note_on", "time": 33, "note": 60, "velocity": 106, "channel": 0}, {"type": "note_off", "time": 117, "note": 60, "velocity": 106, "channel": 0}, {"type": "note_on", "time": 9, "note": 59, "velocity": 100, "channel": 0}, {"type": "note_off", "time": 61, "note": 59, "velocity": 100, "channel": 0}, {"type": "note_on", "time": 119, "note": 65, "velocity": 111, "channel": 0}, {"type": "note_off", "time": 65, "note": 65, "velocity": 111, "channel": 0}, {"type": "note_on", "time": 41, "note": 68, "velocity": 115, "channel": 0}, {"type": "note_off", "time": 71, "note": 68, "velocity": 115, "channel": 0}, {"type": "note_on", "time": 19, "note": 65, "velocity": 102, "channel": 0}, {"type": "note_off", "time": 87, "note": 65, "velocity": 102, "channel": 0}, {"type": "note_on", "time": 29, "note": 66, "velocity": 106, "channel": 0}, {"type": "note_off", "time": 34, "note": 66, "velocity": 106, "channel": 0}, {"type": "note_on", "time": 6, "note": 67, "velocity": 117, "channel": 0}, {"type": "note_off", "time": 96, "note": 67, "velocity": 117, "channel": 0}, {"type": "note_on", "time": 33, "note": 65, "velocity": 109, "channel": 0}, {"type": "note_off", "time": 70, "note": 65, "velocity": 109, "channel": 0}, {"type": "note_on", "time": 4, "note": 64, "velocity": 103, "channel": 0}, {"type": "note_off", "time": 109, "note": 64, "velocity": 103, "channel": 0}, {"type": "note_on", "time": 24, "note": 67, "velocity": 97, "channel": 0}, {"type": "note_off", "time": 57, "note": 67, "velocity": 97, "channel": 0}, {"type": "note_on", "time": 7, "note": 70, "velocity": 116, "channel": 0}, {"type": "note_off", "time": 68, "note": 70, "velocity": 116, "channel": 0}, {"type": "note_on", "time": 35, "note": 74, "velocity": 114, "channel": 0}, {"type": "note_off", "time": 56, "note": 74, "velocity": 114, "channel": 0}, {"type": "note_on", "time": 33, "note": 69, "velocity": 99, "channel": 0}, {"type": "note_off", "time": 36, "note": 69, "velocity": 99, "channel": 0}, {"type": "note_on", "time": 4, "note": 70, "velocity": 114, "channel": 0}, {"type": "note_off", "time": 68, "note": 70, "velocity": 114, "channel": 0}, {"type": "note_on", "time": 5, "note": 71, "velocity": 111, "channel": 0}, {"type": "note_off", "time": 74, "note": 71, "velocity": 111, "channel": 0}, {"type": "note_on", "time": 11, "note": 72, "velocity": 111, "channel": 0}, {"type": "note_off", "time": 54, "note": 72, "velocity": 111, "channel": 0}, {"type": "note_on", "time": 7, "note": 71, "velocity": 108, "channel": 0}, {"type": "note_off", "time": 56, "note": 71, "velocity": 108, "channel": 0}, {"type": "note_on", "time": 16, "note": 69, "velocity": 103, "channel": 0}, {"type": "note_off", "time": 55, "note": 69, "velocity": 103, "channel": 0}, {"type": "note_on", "time": 8, "note": 70, "velocity": 113, "channel": 0}, {"type": "note_off", "time": 80, "note": 70, "velocity": 113, "channel": 0}, {"type": "note_on", "time": 8, "note": 72, "velocity": 117, "channel": 0}, {"type": "note_off", "time": 77, "note": 72, "velocity": 117, "channel": 0}, {"type": "note_on", "time": 6, "note": 74, "velocity": 114, "channel": 0}, {"type": "note_off", "time": 83, "note": 74, "velocity": 114, "channel": 0}, {"type": "note_on", "time": 18, "note": 76, "velocity": 113, "channel": 0}, {"type": "note_off", "time": 75, "note": 76, "velocity": 113, "channel": 0}, {"type": "note_on", "time": 11, "note": 81, "velocity": 118, "channel": 0}, {"type": "note_off", "time": 63, "note": 81, "velocity": 118, "channel": 0}, {"type": "note_on", "time": 47, "note": 79, "velocity": 119, "channel": 0}, {"type": "note_off", "time": 73, "note": 79, "velocity": 119, "channel": 0}, {"type": "note_on", "time": 27, "note": 79, "velocity": 121, "channel": 0}, {"type": "note_off", "time": 56, "note": 79, "velocity": 121, "channel": 0}, {"type": "note_on", "time": 9, "note": 78, "velocity": 118, "channel": 0}, {"type": "note_off", "time": 42, "note": 78, "velocity": 118, "channel": 0}, {"type": "note_on", "time": 7, "note": 76, "velocity": 108, "channel": 0}, {"type": "note_off", "time": 56, "note": 76, "velocity": 108, "channel": 0}, {"type": "note_on", "time": 3, "note": 75, "velocity": 115, "channel": 0}, {"type": "note_off", "time": 95, "note": 75, "velocity": 115, "channel": 0}, {"type": "note_on", "time": 4, "note": 67, "velocity": 100, "channel": 0}, {"type": "note_off", "time": 67, "note": 67, "velocity": 100, "channel": 0}, {"type": "note_on", "time": 20, "note": 72, "velocity": 106, "channel": 0}, {"type": "note_off", "time": 52, "note": 72, "velocity": 106, "channel": 0}, {"type": "note_on", "time": 16, "note": 75, "velocity": 115, "channel": 0}, {"type": "note_off", "time": 70, "note": 75, "velocity": 115, "channel": 0}, {"type": "note_on", "time": 20, "note": 74, "velocity": 114, "channel": 0}, {"type": "note_off", "time": 87, "note": 74, "velocity": 114, "channel": 0}, {"type": "note_on", "time": 3, "note": 72, "velocity": 112, "channel": 0}, {"type": "note_off", "time": 77, "note": 72, "velocity": 112, "channel": 0}, {"type": "note_on", "time": 5, "note": 71, "velocity": 115, "channel": 0}, {"type": "note_off", "time": 78, "note": 71, "velocity": 115, "channel": 0}, {"type": "note_on", "time": 24, "note": 70, "velocity": 104, "channel": 0}, {"type": "note_off", "time": 63, "note": 70, "velocity": 104, "channel": 0}, {"type": "note_on", "time": 3, "note": 69, "velocity": 109, "channel": 0}, {"type": "note_off", "time": 97, "note": 69, "velocity": 109, "channel": 0}, {"type": "note_on", "time": 64, "note": 72, "velocity": 103, "channel": 0}, {"type": "note_off", "time": 89, "note": 72, "velocity": 103, "channel": 0}, {"type": "note_on", "time": 8, "note": 75, "velocity": 115, "channel": 0}, {"type": "note_off", "time": 62, "note": 75, "velocity": 115, "channel": 0}, {"type": "note_on", "time": 0, "note": 78, "velocity": 121, "channel": 0}, {"type": "note_off", "time": 81, "note": 78, "velocity": 121, "channel": 0}, {"type": "note_on", "time": 9, "note": 75, "velocity": 112, "channel": 0}, {"type": "note_off", "time": 108, "note": 75, "velocity": 112, "channel": 0}, {"type": "note_on", "time": 31, "note": 76, "velocity": 117, "channel": 0}, {"type": "note_off", "time": 71, "note": 76, "velocity": 117, "channel": 0}, {"type": "note_on", "time": 6, "note": 77, "velocity": 120, "channel": 0}, {"type": "note_off", "time": 89, "note": 77, "velocity": 120, "channel": 0}, {"type": "note_on", "time": 39, "note": 68, "velocity": 102, "channel": 0}, {"type": "note_off", "time": 64, "note": 68, "velocity": 102, "channel": 0}, {"type": "note_on", "time": 15, "note": 70, "velocity": 107, "channel": 0}, {"type": "note_off", "time": 72, "note": 70, "velocity": 107, "channel": 0}, {"type": "note_on", "time": 14, "note": 75, "velocity": 123, "channel": 0}, {"type": "note_off", "time": 123, "note": 75, "velocity": 123, "channel": 0}, {"type": "note_on", "time": 1, "note": 72, "velocity": 98, "channel": 0}, {"type": "note_off", "time": 74, "note": 72, "velocity": 98, "channel": 0}, {"type": "note_on", "time": 9, "note": 73, "velocity": 108, "channel": 0}, {"type": "note_off", "time": 64, "note": 73, "velocity": 108, "channel": 0}, {"type": "note_on", "time": 4, "note": 74, "velocity": 113, "channel": 0}, {"type": "note_off", "time": 87, "note": 74, "velocity": 113, "channel": 0}, {"type": "note_on", "time": 16, "note": 70, "velocity": 114, "channel": 0}, {"type": "note_off", "time": 71, "note": 70, "velocity": 114, "channel": 0}, {"type": "note_on", "time": 27, "note": 67, "velocity": 94, "channel": 0}, {"type": "note_off", "time": 67, "note": 67, "velocity": 94, "channel": 0}, {"type": "note_on", "time": 26, "note": 65, "velocity": 88, "channel": 0}, {"type": "note_off", "time": 66, "note": 65, "velocity": 88, "channel": 0}, {"type": "note_on", "time": 14, "note": 72, "velocity": 109, "channel": 0}, {"type": "note_off", "time": 97, "note": 72, "velocity": 109, "channel": 0}, {"type": "note_on", "time": 8, "note": 70, "velocity": 117, "channel": 0}, {"type": "note_off", "time": 80, "note": 70, "velocity": 117, "channel": 0}, {"type": "note_on", "time": 5, "note": 67, "velocity": 89, "channel": 0}, {"type": "note_off", "time": 59, "note": 67, "velocity": 89, "channel": 0}, {"type": "note_on", "time": 11, "note": 64, "velocity": 84, "channel": 0}, {"type": "note_off", "time": 57, "note": 64, "velocity": 84, "channel": 0}, {"type": "note_on", "time": 25, "note": 66, "velocity": 95, "channel": 0}, {"type": "note_off", "time": 45, "note": 66, "velocity": 95, "channel": 0}, {"type": "note_on", "time": 11, "note": 69, "velocity": 111, "channel": 0}, {"type": "note_off", "time": 86, "note": 69, "velocity": 111, "channel": 0}, {"type": "note_on", "time": 8, "note": 68, "velocity": 109, "channel": 0}, {"type": "note_off", "time": 73, "note": 68, "velocity": 109, "channel": 0}, {"type": "note_on", "time": 4, "note": 67, "velocity": 111, "channel": 0}, {"type": "note_off", "time": 105, "note": 67, "velocity": 111, "channel": 0}, {"type": "note_on", "time": 4, "note": 66, "velocity": 115, "channel": 0}, {"type": "note_off", "time": 91, "note": 66, "velocity": 115, "channel": 0}, {"type": "note_on", "time": 9, "note": 65, "velocity": 107, "channel": 0}, {"type": "note_off", "time": 63, "note": 65, "velocity": 107, "channel": 0}, {"type": "note_on", "time": 18, "note": 64, "velocity": 98, "channel": 0}, {"type": "note_off", "time": 83, "note": 64, "velocity": 98, "channel": 0}, {"type": "note_on", "time": 16, "note": 63, "velocity": 90, "channel": 0}, {"type": "note_off", "time": 95, "note": 63, "velocity": 90, "channel": 0}, {"type": "note_on", "time": 11, "note": 67, "velocity": 115, "channel": 0}, {"type": "note_off", "time": 96, "note": 67, "velocity": 115, "channel": 0}, {"type": "note_on", "time": 107, "note": 64, "velocity": 84, "channel": 0}, {"type": "note_off", "time": 73, "note": 64, "velocity": 84, "channel": 0}, {"type": "note_on", "time": 8, "note": 65, "velocity": 108, "channel": 0}, {"type": "note_off", "time": 94, "note": 65, "velocity": 108, "channel": 0}, {"type": "note_on", "time": 57, "note": 62, "velocity": 90, "channel": 0}, {"type": "note_off", "time": 32, "note": 62, "velocity": 90, "channel": 0}, {"type": "note_on", "time": 5, "note": 63, "velocity": 96, "channel": 0}, {"type": "note_off", "time": 101, "note": 63, "velocity": 96, "channel": 0}, {"type": "note_on", "time": 13, "note": 65, "velocity": 113, "channel": 0}, {"type": "note_off", "time": 88, "note": 65, "velocity": 113, "channel": 0}, {"type": "note_on", "time": 7, "note": 67, "velocity": 95, "channel": 0}, {"type": "note_off", "time": 110, "note": 67, "velocity": 95, "channel": 0}, {"type": "note_on", "time": 6, "note": 69, "velocity": 99, "channel": 0}, {"type": "note_off", "time": 50, "note": 69, "velocity": 99, "channel": 0}, {"type": "note_on", "time": 7, "note": 70, "velocity": 109, "channel": 0}, {"type": "note_off", "time": 109, "note": 70, "velocity": 109, "channel": 0}, {"type": "note_on", "time": 4, "note": 72, "velocity": 118, "channel": 0}, {"type": "note_off", "time": 90, "note": 72, "velocity": 118, "channel": 0}, {"type": "note_on", "time": 12, "note": 73, "velocity": 110, "channel": 0}, {"type": "note_off", "time": 87, "note": 73, "velocity": 110, "channel": 0}, {"type": "note_on", "time": 6, "note": 74, "velocity": 113, "channel": 0}, {"type": "note_off", "time": 68, "note": 74, "velocity": 113, "channel": 0}, {"type": "note_on", "time": 7, "note": 75, "velocity": 109, "channel": 0}, {"type": "note_off", "time": 118, "note": 75, "velocity": 109, "channel": 0}, {"type": "note_on", "time": 8, "note": 73, "velocity": 104, "channel": 0}, {"type": "note_off", "time": 51, "note": 73, "velocity": 104, "channel": 0}, {"type": "note_on", "time": 5, "note": 74, "velocity": 116, "channel": 0}, {"type": "note_off", "time": 110, "note": 74, "velocity": 116, "channel": 0}, {"type": "note_on", "time": 21, "note": 68, "velocity": 112, "channel": 0}, {"type": "note_off", "time": 103, "note": 68, "velocity": 112, "channel": 0}, {"type": "note_on", "time": 1861, "note": 77, "velocity": 115, "channel": 0}, {"type": "note_off", "time": 121, "note": 77, "velocity": 115, "channel": 0}, {"type": "note_on", "time": 85, "note": 79, "velocity": 119, "channel": 0}, {"type": "note_off", "time": 110, "note": 79, "velocity": 119, "channel": 0}, {"type": "note_on", "time": 78, "note": 82, "velocity": 121, "channel": 0}, {"type": "note_off", "time": 107, "note": 82, "velocity": 121, "channel": 0}, {"type": "note_on", "time": 58, "note": 84, "velocity": 124, "channel": 0}, {"type": "note_off", "time": 136, "note": 84, "velocity": 124, "channel": 0}, {"type": "note_on", "time": 11, "note": 85, "velocity": 119, "channel": 0}, {"type": "note_off", "time": 127, "note": 85, "velocity": 119, "channel": 0}, {"type": "note_on", "time": 92, "note": 86, "velocity": 123, "channel": 0}, {"type": "note_off", "time": 253, "note": 86, "velocity": 123, "channel": 0}, {"type": "note_on", "time": 22, "note": 70, "velocity": 90, "channel": 0}, {"type": "note_off", "time": 52, "note": 70, "velocity": 90, "channel": 0}, {"type": "note_on", "time": 1163, "note": 88, "velocity": 103, "channel": 0}, {"type": "note_off", "time": 80, "note": 88, "velocity": 103, "channel": 0}, {"type": "note_on", "time": 14, "note": 84, "velocity": 120, "channel": 0}, {"type": "note_off", "time": 75, "note": 84, "velocity": 120, "channel": 0}, {"type": "note_on", "time": 10, "note": 82, "velocity": 113, "channel": 0}, {"type": "note_off", "time": 71, "note": 82, "velocity": 113, "channel": 0}, {"type": "note_on", "time": 3, "note": 81, "velocity": 114, "channel": 0}, {"type": "note_off", "time": 82, "note": 81, "velocity": 114, "channel": 0}, {"type": "note_on", "time": 5, "note": 84, "velocity": 116, "channel": 0}, {"type": "note_off", "time": 83, "note": 84, "velocity": 116, "channel": 0}, {"type": "note_on", "time": 6, "note": 80, "velocity": 109, "channel": 0}, {"type": "note_off", "time": 109, "note": 80, "velocity": 109, "channel": 0}, {"type": "note_on", "time": 7, "note": 74, "velocity": 103, "channel": 0}, {"type": "note_off", "time": 68, "note": 74, "velocity": 103, "channel": 0}, {"type": "note_on", "time": 7, "note": 81, "velocity": 114, "channel": 0}, {"type": "note_off", "time": 61, "note": 81, "velocity": 114, "channel": 0}, {"type": "note_on", "time": 3, "note": 82, "velocity": 116, "channel": 0}, {"type": "note_off", "time": 51, "note": 82, "velocity": 116, "channel": 0}, {"type": "note_on", "time": 2, "note": 81, "velocity": 115, "channel": 0}, {"type": "note_off", "time": 79, "note": 81, "velocity": 115, "channel": 0}, {"type": "note_on", "time": 0, "note": 79, "velocity": 105, "channel": 0}, {"type": "note_off", "time": 72, "note": 79, "velocity": 105, "channel": 0}, {"type": "note_on", "time": 6, "note": 77, "velocity": 124, "channel": 0}, {"type": "note_off", "time": 78, "note": 77, "velocity": 124, "channel": 0}, {"type": "note_on", "time": 10, "note": 75, "velocity": 112, "channel": 0}, {"type": "note_off", "time": 70, "note": 75, "velocity": 112, "channel": 0}, {"type": "note_on", "time": 44, "note": 73, "velocity": 115, "channel": 0}, {"type": "note_off", "time": 84, "note": 73, "velocity": 115, "channel": 0}, {"type": "note_on", "time": 6, "note": 74, "velocity": 101, "channel": 0}, {"type": "note_off", "time": 56, "note": 74, "velocity": 101, "channel": 0}, {"type": "note_on", "time": 50, "note": 76, "velocity": 111, "channel": 0}, {"type": "note_off", "time": 44, "note": 76, "velocity": 111, "channel": 0}, {"type": "note_on", "time": 2, "note": 77, "velocity": 119, "channel": 0}, {"type": "note_off", "time": 390, "note": 77, "velocity": 119, "channel": 0}, {"type": "note_on", "time": 14, "note": 74, "velocity": 115, "channel": 0}, {"type": "note_off", "time": 91, "note": 74, "velocity": 115, "channel": 0}, {"type": "note_on", "time": 232, "note": 76, "velocity": 122, "channel": 0}, {"type": "note_off", "time": 82, "note": 76, "velocity": 122, "channel": 0}, {"type": "note_on", "time": 11, "note": 75, "velocity": 114, "channel": 0}, {"type": "note_off", "time": 78, "note": 75, "velocity": 114, "channel": 0}, {"type": "note_on", "time": 3, "note": 74, "velocity": 111, "channel": 0}, {"type": "note_off", "time": 75, "note": 74, "velocity": 111, "channel": 0}, {"type": "note_on", "time": 4, "note": 72, "velocity": 113, "channel": 0}, {"type": "note_off", "time": 92, "note": 72, "velocity": 113, "channel": 0}, {"type": "note_on", "time": 22, "note": 73, "velocity": 109, "channel": 0}, {"type": "note_off", "time": 81, "note": 73, "velocity": 109, "channel": 0}, {"type": "note_on", "time": 4, "note": 74, "velocity": 110, "channel": 0}, {"type": "note_off", "time": 92, "note": 74, "velocity": 110, "channel": 0}, {"type": "note_on", "time": 4, "note": 70, "velocity": 109, "channel": 0}, {"type": "note_off", "time": 92, "note": 70, "velocity": 109, "channel": 0}, {"type": "note_on", "time": 12, "note": 67, "velocity": 92, "channel": 0}, {"type": "note_off", "time": 80, "note": 67, "velocity": 92, "channel": 0}, {"type": "note_on", "time": 32, "note": 65, "velocity": 90, "channel": 0}, {"type": "note_off", "time": 62, "note": 65, "velocity": 90, "channel": 0}, {"type": "note_on", "time": 30, "note": 72, "velocity": 109, "channel": 0}, {"type": "note_off", "time": 29, "note": 72, "velocity": 109, "channel": 0}, {"type": "note_on", "time": 7, "note": 74, "velocity": 108, "channel": 0}, {"type": "note_off", "time": 49, "note": 74, "velocity": 108, "channel": 0}, {"type": "note_on", "time": 10, "note": 72, "velocity": 108, "channel": 0}, {"type": "note_off", "time": 49, "note": 72, "velocity": 108, "channel": 0}, {"type": "note_on", "time": 23, "note": 70, "velocity": 95, "channel": 0}, {"type": "note_off", "time": 57, "note": 70, "velocity": 95, "channel": 0}, {"type": "note_on", "time": 26, "note": 65, "velocity": 95, "channel": 0}, {"type": "note_off", "time": 89, "note": 65, "velocity": 95, "channel": 0}, {"type": "note_on", "time": 14, "note": 69, "velocity": 99, "channel": 0}, {"type": "note_off", "time": 36, "note": 69, "velocity": 99, "channel": 0}, {"type": "note_on", "time": 8, "note": 70, "velocity": 113, "channel": 0}, {"type": "note_off", "time": 61, "note": 70, "velocity": 113, "channel": 0}, {"type": "note_on", "time": 10, "note": 69, "velocity": 103, "channel": 0}, {"type": "note_off", "time": 51, "note": 69, "velocity": 103, "channel": 0}, {"type": "note_on", "time": 5, "note": 67, "velocity": 106, "channel": 0}, {"type": "note_off", "time": 91, "note": 67, "velocity": 106, "channel": 0}, {"type": "note_on", "time": 902, "note": 77, "velocity": 119, "channel": 0}, {"type": "note_off", "time": 329, "note": 77, "velocity": 119, "channel": 0}, {"type": "note_on", "time": 26, "note": 74, "velocity": 113, "channel": 0}, {"type": "note_off", "time": 127, "note": 74, "velocity": 113, "channel": 0}, {"type": "note_on", "time": 123, "note": 77, "velocity": 122, "channel": 0}, {"type": "note_off", "time": 107, "note": 77, "velocity": 122, "channel": 0}, {"type": "note_on", "time": 11, "note": 75, "velocity": 119, "channel": 0}, {"type": "note_off", "time": 112, "note": 75, "velocity": 119, "channel": 0}, {"type": "note_on", "time": 16, "note": 70, "velocity": 103, "channel": 0}, {"type": "note_off", "time": 74, "note": 70, "velocity": 103, "channel": 0}, {"type": "note_on", "time": 5, "note": 67, "velocity": 107, "channel": 0}, {"type": "note_off", "time": 97, "note": 67, "velocity": 107, "channel": 0}, {"type": "note_on", "time": 39, "note": 66, "velocity": 100, "channel": 0}, {"type": "note_off", "time": 168, "note": 66, "velocity": 100, "channel": 0}, {"type": "note_on", "time": 198, "note": 74, "velocity": 112, "channel": 0}, {"type": "note_off", "time": 247, "note": 74, "velocity": 112, "channel": 0}, {"type": "note_on", "time": 5, "note": 72, "velocity": 112, "channel": 0}, {"type": "note_off", "time": 94, "note": 72, "velocity": 112, "channel": 0}, {"type": "note_on", "time": 2, "note": 70, "velocity": 113, "channel": 0}, {"type": "note_off", "time": 86, "note": 70, "velocity": 113, "channel": 0}, {"type": "note_on", "time": 5, "note": 69, "velocity": 103, "channel": 0}, {"type": "note_off", "time": 83, "note": 69, "velocity": 103, "channel": 0}, {"type": "note_on", "time": 5, "note": 68, "velocity": 104, "channel": 0}, {"type": "note_off", "time": 73, "note": 68, "velocity": 104, "channel": 0}, {"type": "note_on", "time": 4, "note": 67, "velocity": 108, "channel": 0}, {"type": "note_off", "time": 85, "note": 67, "velocity": 108, "channel": 0}, {"type": "note_on", "time": 11, "note": 66, "velocity": 101, "channel": 0}, {"type": "note_off", "time": 95, "note": 66, "velocity": 101, "channel": 0}, {"type": "note_on", "time": 10, "note": 65, "velocity": 104, "channel": 0}, {"type": "note_off", "time": 74, "note": 65, "velocity": 104, "channel": 0}, {"type": "note_on", "time": 47, "note": 62, "velocity": 91, "channel": 0}, {"type": "note_off", "time": 74, "note": 62, "velocity": 91, "channel": 0}, {"type": "note_on", "time": 8, "note": 63, "velocity": 91, "channel": 0}, {"type": "note_off", "time": 73, "note": 63, "velocity": 91, "channel": 0}, {"type": "note_on", "time": 18, "note": 65, "velocity": 105, "channel": 0}, {"type": "note_off", "time": 91, "note": 65, "velocity": 105, "channel": 0}, {"type": "note_on", "time": 14, "note": 67, "velocity": 91, "channel": 0}, {"type": "note_off", "time": 89, "note": 67, "velocity": 91, "channel": 0}, {"type": "note_on", "time": 24, "note": 69, "velocity": 92, "channel": 0}, {"type": "note_off", "time": 49, "note": 69, "velocity": 92, "channel": 0}, {"type": "note_on", "time": 2, "note": 70, "velocity": 112, "channel": 0}, {"type": "note_off", "time": 78, "note": 70, "velocity": 112, "channel": 0}, {"type": "note_on", "time": 21, "note": 72, "velocity": 115, "channel": 0}, {"type": "note_off", "time": 94, "note": 72, "velocity": 115, "channel": 0}, {"type": "note_on", "time": 10, "note": 73, "velocity": 113, "channel": 0}, {"type": "note_off", "time": 81, "note": 73, "velocity": 113, "channel": 0}, {"type": "note_on", "time": 13, "note": 74, "velocity": 114, "channel": 0}, {"type": "note_off", "time": 73, "note": 74, "velocity": 114, "channel": 0}, {"type": "note_on", "time": 8, "note": 75, "velocity": 115, "channel": 0}, {"type": "note_off", "time": 94, "note": 75, "velocity": 115, "channel": 0}, {"type": "note_on", "time": 39, "note": 73, "velocity": 96, "channel": 0}, {"type": "note_off", "time": 71, "note": 73, "velocity": 96, "channel": 0}, {"type": "note_on", "time": 14, "note": 74, "velocity": 109, "channel": 0}, {"type": "note_off", "time": 111, "note": 74, "velocity": 109, "channel": 0}, {"type": "note_on", "time": 198, "note": 79, "velocity": 105, "channel": 0}, {"type": "note_off", "time": 47, "note": 79, "velocity": 105, "channel": 0}, {"type": "note_on", "time": 4, "note": 77, "velocity": 113, "channel": 0}, {"type": "note_off", "time": 192, "note": 77, "velocity": 113, "channel": 0}, {"type": "note_on", "time": 11, "note": 75, "velocity": 116, "channel": 0}, {"type": "note_off", "time": 117, "note": 75, "velocity": 116, "channel": 0}, {"type": "note_on", "time": 4, "note": 74, "velocity": 112, "channel": 0}, {"type": "note_off", "time": 89, "note": 74, "velocity": 112, "channel": 0}, {"type": "note_on", "time": 2, "note": 72, "velocity": 112, "channel": 0}, {"type": "note_off", "time": 92, "note": 72, "velocity": 112, "channel": 0}, {"type": "note_on", "time": 3, "note": 73, "velocity": 114, "channel": 0}, {"type": "note_off", "time": 74, "note": 73, "velocity": 114, "channel": 0}, {"type": "note_on", "time": 3, "note": 74, "velocity": 111, "channel": 0}, {"type": "note_off", "time": 79, "note": 74, "velocity": 111, "channel": 0}, {"type": "note_on", "time": 8, "note": 70, "velocity": 109, "channel": 0}, {"type": "note_off", "time": 86, "note": 70, "velocity": 109, "channel": 0}, {"type": "note_on", "time": 11, "note": 67, "velocity": 92, "channel": 0}, {"type": "note_off", "time": 67, "note": 67, "velocity": 92, "channel": 0}, {"type": "note_on", "time": 36, "note": 65, "velocity": 91, "channel": 0}, {"type": "note_off", "time": 65, "note": 65, "velocity": 91, "channel": 0}, {"type": "note_on", "time": 5, "note": 72, "velocity": 111, "channel": 0}, {"type": "note_off", "time": 112, "note": 72, "velocity": 111, "channel": 0}, {"type": "note_on", "time": 36, "note": 69, "velocity": 88, "channel": 0}, {"type": "note_off", "time": 53, "note": 69, "velocity": 88, "channel": 0}, {"type": "note_on", "time": 8, "note": 70, "velocity": 115, "channel": 0}, {"type": "note_off", "time": 101, "note": 70, "velocity": 115, "channel": 0}, {"type": "note_on", "time": 22, "note": 65, "velocity": 109, "channel": 0}, {"type": "note_off", "time": 91, "note": 65, "velocity": 109, "channel": 0}, {"type": "note_on", "time": 906, "note": 81, "velocity": 114, "channel": 0}, {"type": "note_off", "time": 79, "note": 81, "velocity": 114, "channel": 0}, {"type": "note_on", "time": 3, "note": 82, "velocity": 124, "channel": 0}, {"type": "note_off", "time": 46, "note": 82, "velocity": 124, "channel": 0}, {"type": "note_on", "time": 3, "note": 81, "velocity": 117, "channel": 0}, {"type": "note_off", "time": 62, "note": 81, "velocity": 117, "channel": 0}, {"type": "note_on", "time": 15, "note": 79, "velocity": 118, "channel": 0}, {"type": "note_off", "time": 111, "note": 79, "velocity": 118, "channel": 0}, {"type": "note_on", "time": 3, "note": 78, "velocity": 110, "channel": 0}, {"type": "note_off", "time": 101, "note": 78, "velocity": 110, "channel": 0}, {"type": "note_on", "time": 61, "note": 76, "velocity": 115, "channel": 0}, {"type": "note_off", "time": 85, "note": 76, "velocity": 115, "channel": 0}, {"type": "note_on", "time": 11, "note": 74, "velocity": 107, "channel": 0}, {"type": "note_off", "time": 48, "note": 74, "velocity": 107, "channel": 0}, {"type": "note_on", "time": 25, "note": 73, "velocity": 97, "channel": 0}, {"type": "note_off", "time": 58, "note": 73, "velocity": 97, "channel": 0}, {"type": "note_on", "time": 13, "note": 72, "velocity": 115, "channel": 0}, {"type": "note_off", "time": 96, "note": 72, "velocity": 115, "channel": 0}, {"type": "note_on", "time": 26, "note": 76, "velocity": 113, "channel": 0}, {"type": "note_off", "time": 82, "note": 76, "velocity": 113, "channel": 0}, {"type": "note_on", "time": 9, "note": 74, "velocity": 109, "channel": 0}, {"type": "note_off", "time": 39, "note": 74, "velocity": 109, "channel": 0}, {"type": "note_on", "time": 10, "note": 71, "velocity": 90, "channel": 0}, {"type": "note_off", "time": 30, "note": 71, "velocity": 90, "channel": 0}, {"type": "note_on", "time": 2, "note": 69, "velocity": 95, "channel": 0}, {"type": "note_off", "time": 77, "note": 69, "velocity": 95, "channel": 0}, {"type": "note_on", "time": 12, "note": 74, "velocity": 114, "channel": 0}, {"type": "note_off", "time": 83, "note": 74, "velocity": 114, "channel": 0}, {"type": "note_on", "time": 8, "note": 72, "velocity": 113, "channel": 0}, {"type": "note_off", "time": 94, "note": 72, "velocity": 113, "channel": 0}, {"type": "note_on", "time": 6, "note": 71, "velocity": 110, "channel": 0}, {"type": "note_off", "time": 60, "note": 71, "velocity": 110, "channel": 0}, {"type": "note_on", "time": 19, "note": 69, "velocity": 112, "channel": 0}, {"type": "note_off", "time": 64, "note": 69, "velocity": 112, "channel": 0}, {"type": "note_on", "time": 8, "note": 67, "velocity": 108, "channel": 0}, {"type": "note_off", "time": 53, "note": 67, "velocity": 108, "channel": 0}, {"type": "note_on", "time": 76, "note": 66, "velocity": 94, "channel": 0}, {"type": "note_off", "time": 60, "note": 66, "velocity": 94, "channel": 0}, {"type": "note_on", "time": 9, "note": 65, "velocity": 108, "channel": 0}, {"type": "note_off", "time": 71, "note": 65, "velocity": 108, "channel": 0}, {"type": "note_on", "time": 42, "note": 69, "velocity": 112, "channel": 0}, {"type": "note_off", "time": 90, "note": 69, "velocity": 112, "channel": 0}, {"type": "note_on", "time": 6, "note": 64, "velocity": 106, "channel": 0}, {"type": "note_off", "time": 103, "note": 64, "velocity": 106, "channel": 0}, {"type": "note_on", "time": 15, "note": 62, "velocity": 97, "channel": 0}, {"type": "note_off", "time": 109, "note": 62, "velocity": 97, "channel": 0}, {"type": "note_on", "time": 1013, "note": 62, "velocity": 102, "channel": 0}, {"type": "note_off", "time": 57, "note": 62, "velocity": 102, "channel": 0}, {"type": "note_on", "time": 12, "note": 67, "velocity": 106, "channel": 0}, {"type": "note_off", "time": 97, "note": 67, "velocity": 106, "channel": 0}, {"type": "note_on", "time": 9, "note": 70, "velocity": 96, "channel": 0}, {"type": "note_off", "time": 97, "note": 70, "velocity": 96, "channel": 0}, {"type": "note_on", "time": 53, "note": 66, "velocity": 84, "channel": 0}, {"type": "note_off", "time": 61, "note": 66, "velocity": 84, "channel": 0}, {"type": "note_on", "time": 6, "note": 70, "velocity": 98, "channel": 0}, {"type": "note_off", "time": 91, "note": 70, "velocity": 98, "channel": 0}, {"type": "note_on", "time": 2, "note": 74, "velocity": 110, "channel": 0}, {"type": "note_off", "time": 70, "note": 74, "velocity": 110, "channel": 0}, {"type": "note_on", "time": 6, "note": 78, "velocity": 122, "channel": 0}, {"type": "note_off", "time": 94, "note": 78, "velocity": 122, "channel": 0}, {"type": "note_on", "time": 2, "note": 77, "velocity": 114, "channel": 0}, {"type": "note_off", "time": 82, "note": 77, "velocity": 114, "channel": 0}, {"type": "note_on", "time": 13, "note": 74, "velocity": 114, "channel": 0}, {"type": "note_off", "time": 70, "note": 74, "velocity": 114, "channel": 0}, {"type": "note_on", "time": 14, "note": 70, "velocity": 104, "channel": 0}, {"type": "note_off", "time": 79, "note": 70, "velocity": 104, "channel": 0}, {"type": "note_on", "time": 30, "note": 67, "velocity": 97, "channel": 0}, {"type": "note_off", "time": 82, "note": 67, "velocity": 97, "channel": 0}, {"type": "note_on", "time": 0, "note": 76, "velocity": 118, "channel": 0}, {"type": "note_off", "time": 87, "note": 76, "velocity": 118, "channel": 0}, {"type": "note_on", "time": 38, "note": 75, "velocity": 118, "channel": 0}, {"type": "note_off", "time": 93, "note": 75, "velocity": 118, "channel": 0}, {"type": "note_on", "time": 4, "note": 74, "velocity": 108, "channel": 0}, {"type": "note_off", "time": 72, "note": 74, "velocity": 108, "channel": 0}, {"type": "note_on", "time": 26, "note": 68, "velocity": 99, "channel": 0}, {"type": "note_off", "time": 46, "note": 68, "velocity": 99, "channel": 0}, {"type": "note_on", "time": 32, "note": 75, "velocity": 115, "channel": 0}, {"type": "note_off", "time": 89, "note": 75, "velocity": 115, "channel": 0}, {"type": "note_on", "time": 6, "note": 72, "velocity": 73, "channel": 0}, {"type": "note_off", "time": 49, "note": 72, "velocity": 73, "channel": 0}, {"type": "note_on", "time": 90, "note": 75, "velocity": 117, "channel": 0}, {"type": "note_off", "time": 148, "note": 75, "velocity": 117, "channel": 0}, {"type": "note_on", "time": 3, "note": 74, "velocity": 110, "channel": 0}, {"type": "note_off", "time": 72, "note": 74, "velocity": 110, "channel": 0}, {"type": "note_on", "time": 3, "note": 72, "velocity": 114, "channel": 0}, {"type": "note_off", "time": 88, "note": 72, "velocity": 114, "channel": 0}, {"type": "note_on", "time": 6, "note": 71, "velocity": 110, "channel": 0}, {"type": "note_off", "time": 92, "note": 71, "velocity": 110, "channel": 0}, {"type": "note_on", "time": 7, "note": 70, "velocity": 111, "channel": 0}, {"type": "note_off", "time": 65, "note": 70, "velocity": 111, "channel": 0}, {"type": "note_on", "time": 7, "note": 69, "velocity": 105, "channel": 0}, {"type": "note_off", "time": 97, "note": 69, "velocity": 105, "channel": 0}, {"type": "note_on", "time": 47, "note": 72, "velocity": 94, "channel": 0}, {"type": "note_off", "time": 49, "note": 72, "velocity": 94, "channel": 0}, {"type": "note_on", "time": 8, "note": 75, "velocity": 117, "channel": 0}, {"type": "note_off", "time": 88, "note": 75, "velocity": 117, "channel": 0}, {"type": "note_on", "time": 12, "note": 78, "velocity": 119, "channel": 0}, {"type": "note_off", "time": 270, "note": 78, "velocity": 119, "channel": 0}, {"type": "note_on", "time": 7, "note": 77, "velocity": 112, "channel": 0}, {"type": "note_off", "time": 92, "note": 77, "velocity": 112, "channel": 0}, {"type": "note_on", "time": 21, "note": 75, "velocity": 114, "channel": 0}, {"type": "note_off", "time": 78, "note": 75, "velocity": 114, "channel": 0}, {"type": "note_on", "time": 11, "note": 73, "velocity": 114, "channel": 0}, {"type": "note_off", "time": 75, "note": 73, "velocity": 114, "channel": 0}, {"type": "note_on", "time": 8, "note": 74, "velocity": 111, "channel": 0}, {"type": "note_off", "time": 213, "note": 74, "velocity": 111, "channel": 0}, {"type": "note_on", "time": 11, "note": 77, "velocity": 119, "channel": 0}, {"type": "note_off", "time": 130, "note": 77, "velocity": 119, "channel": 0}, {"type": "note_on", "time": 203, "note": 74, "velocity": 118, "channel": 0}, {"type": "note_off", "time": 90, "note": 74, "velocity": 118, "channel": 0}, {"type": "note_on", "time": 10, "note": 75, "velocity": 109, "channel": 0}, {"type": "note_off", "time": 80, "note": 75, "velocity": 109, "channel": 0}, {"type": "note_on", "time": 52, "note": 70, "velocity": 109, "channel": 0}, {"type": "note_off", "time": 74, "note": 70, "velocity": 109, "channel": 0}, {"type": "note_on", "time": 4, "note": 67, "velocity": 94, "channel": 0}, {"type": "note_off", "time": 100, "note": 67, "velocity": 94, "channel": 0}, {"type": "note_on", "time": 6, "note": 66, "velocity": 88, "channel": 0}, {"type": "note_off", "time": 57, "note": 66, "velocity": 88, "channel": 0}, {"type": "note_on", "time": 54, "note": 74, "velocity": 107, "channel": 0}, {"type": "note_off", "time": 544, "note": 74, "velocity": 107, "channel": 0}, {"type": "note_on", "time": 4, "note": 72, "velocity": 108, "channel": 0}, {"type": "note_off", "time": 105, "note": 72, "velocity": 108, "channel": 0}, {"type": "note_on", "time": 5, "note": 70, "velocity": 114, "channel": 0}, {"type": "note_off", "time": 89, "note": 70, "velocity": 114, "channel": 0}, {"type": "note_on", "time": 9, "note": 69, "velocity": 109, "channel": 0}, {"type": "note_off", "time": 80, "note": 69, "velocity": 109, "channel": 0}, {"type": "note_on", "time": 7, "note": 68, "velocity": 107, "channel": 0}, {"type": "note_off", "time": 97, "note": 68, "velocity": 107, "channel": 0}, {"type": "note_on", "time": 2, "note": 67, "velocity": 104, "channel": 0}, {"type": "note_off", "time": 70, "note": 67, "velocity": 104, "channel": 0}, {"type": "note_on", "time": 6, "note": 66, "velocity": 101, "channel": 0}, {"type": "note_off", "time": 93, "note": 66, "velocity": 101, "channel": 0}, {"type": "note_on", "time": 1, "note": 65, "velocity": 107, "channel": 0}, {"type": "note_off", "time": 92, "note": 65, "velocity": 107, "channel": 0}, {"type": "note_on", "time": 29, "note": 62, "velocity": 91, "channel": 0}, {"type": "note_off", "time": 53, "note": 62, "velocity": 91, "channel": 0}, {"type": "note_on", "time": 3, "note": 63, "velocity": 88, "channel": 0}, {"type": "note_off", "time": 91, "note": 63, "velocity": 88, "channel": 0}, {"type": "note_on", "time": 5, "note": 65, "velocity": 109, "channel": 0}, {"type": "note_off", "time": 84, "note": 65, "velocity": 109, "channel": 0}, {"type": "note_on", "time": 8, "note": 67, "velocity": 92, "channel": 0}, {"type": "note_off", "time": 93, "note": 67, "velocity": 92, "channel": 0}, {"type": "note_on", "time": 4, "note": 69, "velocity": 94, "channel": 0}, {"type": "note_off", "time": 68, "note": 69, "velocity": 94, "channel": 0}, {"type": "note_on", "time": 5, "note": 70, "velocity": 117, "channel": 0}, {"type": "note_off", "time": 98, "note": 70, "velocity": 117, "channel": 0}, {"type": "note_on", "time": 4, "note": 72, "velocity": 115, "channel": 0}, {"type": "note_off", "time": 93, "note": 72, "velocity": 115, "channel": 0}, {"type": "note_on", "time": 4, "note": 73, "velocity": 113, "channel": 0}, {"type": "note_off", "time": 88, "note": 73, "velocity": 113, "channel": 0}, {"type": "note_on", "time": 2, "note": 74, "velocity": 114, "channel": 0}, {"type": "note_off", "time": 87, "note": 74, "velocity": 114, "channel": 0}, {"type": "note_on", "time": 3, "note": 70, "velocity": 110, "channel": 0}, {"type": "note_off", "time": 113, "note": 70, "velocity": 110, "channel": 0}, {"type": "note_on", "time": 5, "note": 67, "velocity": 90, "channel": 0}, {"type": "note_off", "time": 69, "note": 67, "velocity": 90, "channel": 0}, {"type": "note_on", "time": 40, "note": 72, "velocity": 106, "channel": 0}, {"type": "note_off", "time": 39, "note": 72, "velocity": 106, "channel": 0}, {"type": "note_on", "time": 3, "note": 74, "velocity": 109, "channel": 0}, {"type": "note_off", "time": 32, "note": 74, "velocity": 109, "channel": 0}, {"type": "note_on", "time": 10, "note": 72, "velocity": 115, "channel": 0}, {"type": "note_off", "time": 76, "note": 72, "velocity": 115, "channel": 0}, {"type": "note_on", "time": 8, "note": 70, "velocity": 112, "channel": 0}, {"type": "note_off", "time": 80, "note": 70, "velocity": 112, "channel": 0}, {"type": "note_on", "time": 24, "note": 65, "velocity": 101, "channel": 0}, {"type": "note_off", "time": 59, "note": 65, "velocity": 101, "channel": 0}, {"type": "note_on", "time": 63, "note": 68, "velocity": 101, "channel": 0}, {"type": "note_off", "time": 42, "note": 68, "velocity": 101, "channel": 0}, {"type": "note_on", "time": 9, "note": 70, "velocity": 108, "channel": 0}, {"type": "note_off", "time": 58, "note": 70, "velocity": 108, "channel": 0}, {"type": "note_on", "time": 4, "note": 68, "velocity": 109, "channel": 0}, {"type": "note_off", "time": 41, "note": 68, "velocity": 109, "channel": 0}, {"type": "note_on", "time": 10, "note": 67, "velocity": 103, "channel": 0}, {"type": "note_off", "time": 84, "note": 67, "velocity": 103, "channel": 0}, {"type": "note_on", "time": 24, "note": 65, "velocity": 107, "channel": 0}, {"type": "note_off", "time": 62, "note": 65, "velocity": 107, "channel": 0}, {"type": "note_on", "time": 13, "note": 64, "velocity": 94, "channel": 0}, {"type": "note_off", "time": 81, "note": 64, "velocity": 94, "channel": 0}, {"type": "note_on", "time": 28, "note": 67, "velocity": 95, "channel": 0}, {"type": "note_off", "time": 37, "note": 67, "velocity": 95, "channel": 0}, {"type": "note_on", "time": 19, "note": 70, "velocity": 106, "channel": 0}, {"type": "note_off", "time": 84, "note": 70, "velocity": 106, "channel": 0}, {"type": "note_on", "time": 10, "note": 74, "velocity": 111, "channel": 0}, {"type": "note_off", "time": 266, "note": 74, "velocity": 111, "channel": 0}, {"type": "note_on", "time": 17, "note": 72, "velocity": 108, "channel": 0}, {"type": "note_off", "time": 96, "note": 72, "velocity": 108, "channel": 0}, {"type": "note_on", "time": 15, "note": 70, "velocity": 112, "channel": 0}, {"type": "note_off", "time": 71, "note": 70, "velocity": 112, "channel": 0}, {"type": "note_on", "time": 5, "note": 69, "velocity": 99, "channel": 0}, {"type": "note_off", "time": 85, "note": 69, "velocity": 99, "channel": 0}, {"type": "note_on", "time": 25, "note": 72, "velocity": 112, "channel": 0}, {"type": "note_off", "time": 69, "note": 72, "velocity": 112, "channel": 0}, {"type": "note_on", "time": 6, "note": 71, "velocity": 102, "channel": 0}, {"type": "note_off", "time": 71, "note": 71, "velocity": 102, "channel": 0}, {"type": "note_on", "time": 6, "note": 69, "velocity": 99, "channel": 0}, {"type": "note_off", "time": 84, "note": 69, "velocity": 99, "channel": 0}, {"type": "note_on", "time": 8, "note": 70, "velocity": 111, "channel": 0}, {"type": "note_off", "time": 99, "note": 70, "velocity": 111, "channel": 0}, {"type": "note_on", "time": 28, "note": 67, "velocity": 110, "channel": 0}, {"type": "note_off", "time": 89, "note": 67, "velocity": 110, "channel": 0}, {"type": "note_on", "time": 9, "note": 66, "velocity": 96, "channel": 0}, {"type": "note_off", "time": 65, "note": 66, "velocity": 96, "channel": 0}, {"type": "note_on", "time": 15, "note": 64, "velocity": 97, "channel": 0}, {"type": "note_off", "time": 113, "note": 64, "velocity": 97, "channel": 0}, {"type": "note_on", "time": 7, "note": 65, "velocity": 109, "channel": 0}, {"type": "note_off", "time": 64, "note": 65, "velocity": 109, "channel": 0}, {"type": "note_on", "time": 53, "note": 58, "velocity": 104, "channel": 0}, {"type": "note_off", "time": 109, "note": 58, "velocity": 104, "channel": 0}, {"type": "end_of_track", "time": 0}]]}