{"ticks_per_beat": 192, "tracks": [[{"type": "track_name", "name": "Melody", "time": 0}, {"type": "set_tempo", "tempo": 368098, "time": 0}, {"type": "key_signature", "key": "Db", "time": 0}, {"type": "time_signature", "numerator": 4, "denominator": 4, "clocks_per_click": 24, "notated_32nd_notes_per_beat": 8, "time": 0}, {"type": "note_on", "time": 2019, "note": 68, "velocity": 106, "channel": 0}, {"type": "note_off", "time": 47, "note": 68, "velocity": 106, "channel": 0}, {"type": "note_on", "time": 6, "note": 70, "velocity": 116, "channel": 0}, {"type": "note_off", "time": 34, "note": 70, "velocity": 116, "channel": 0}, {"type": "note_on", "time": 5, "note": 68, "velocity": 112, "channel": 0}, {"type": "note_off", "time": 54, "note": 68, "velocity": 112, "channel": 0}, {"type": "note_on", "time": 40, "note": 65, "velocity": 104, "channel": 0}, {"type": "note_off", "time": 80, "note": 65, "velocity": 104, "channel": 0}, {"type": "note_on", "time": 9, "note": 70, "velocity": 120, "channel": 0}, {"type": "note_off", "time": 73, "note": 70, "velocity": 120, "channel": 0}, {"type": "note_on", "time": 31, "note": 68, "velocity": 116, "channel": 0}, {"type": "note_off", "time": 70, "note": 68, "velocity": 116, "channel": 0}, {"type": "note_on", "time": 595, "note": 65, "velocity": 118, "channel": 0}, {"type": "note_off", "time": 78, "note": 65, "velocity": 118, "channel": 0}, {"type": "note_on", "time": 13, "note": 66, "velocity": 116, "channel": 0}, {"type": "note_off", "time": 75, "note": 66, "velocity": 116, "channel": 0}, {"type": "note_on", "time": 17, "note": 68, "velocity": 111, "channel": 0}, {"type": "note_off", "time": 74, "note": 68, "velocity": 111, "channel": 0}, {"type": "note_on", "time": 23, "note": 70, "velocity": 122, "channel": 0}, {"type": "note_off", "time": 72, "note": 70, "velocity": 122, "channel": 0}, {"type": "note_on", "time": 21, "note": 72, "velocity": 125, "channel": 0}, {"type": "note_off", "time": 76, "note": 72, "velocity": 125, "channel": 0}, {"type": "note_on", "time": 19, "note": 73, "velocity": 124, "channel": 0}, {"type": "note_off", "time": 70, "note": 73, "velocity": 124, "channel": 0}, {"type": "note_on", "time": 28, "note": 75, "velocity": 123, "channel": 0}, {"type": "note_off", "time": 69, "note": 75, "velocity": 123, "channel": 0}, {"type": "note_on", "time": 66, "note": 76, "velocity": 122, "channel": 0}, {"type": "note_off", "time": 30, "note": 76, "velocity": 122, "channel": 0}, {"type": "note_on", "time": 4, "note": 77, "velocity": 124, "channel": 0}, {"type": "note_off", "time": 61, "note": 77, "velocity": 124, "channel": 0}, {"type": "note_on", "time": 93, "note": 72, "velocity": 121, "channel": 0}, {"type": "note_off", "time": 68, "note": 72, "velocity": 121, "channel": 0}, {"type": "note_on", "time": 37, "note": 75, "velocity": 99, "channel": 0}, {"type": "note_off", "time": 19, "note": 75, "velocity": 99, "channel": 0}, {"type": "note_on", "time": 3, "note": 74, "velocity": 122, "channel": 0}, {"type": "note_off", "time": 44, "note": 74, "velocity": 122, "channel": 0}, {"type": "note_on", "time": 7, "note": 73, "velocity": 121, "channel": 0}, {"type": "note_off", "time": 104, "note": 73, "velocity": 121, "channel": 0}, {"type": "note_on", "time": 14, "note": 71, "velocity": 122, "channel": 0}, {"type": "note_off", "time": 103, "note": 71, "velocity": 122, "channel": 0}, {"type": "note_on", "time": 79, "note": 63, "velocity": 115, "channel": 0}, {"type": "note_off", "time": 62, "note": 63, "velocity": 115, "channel": 0}, {"type": "note_on", "time": 111, "note": 65, "velocity": 116, "channel": 0}, {"type": "note_off", "time": 55, "note": 65, "velocity": 116, "channel": 0}, {"type": "note_on", "time": 114, "note": 70, "velocity": 120, "channel": 0}, {"type": "note_off", "time": 73, "note": 70, "velocity": 120, "channel": 0}, {"type": "note_on", "time": 3, "note": 69, "velocity": 112, "channel": 0}, {"type": "note_off", "time": 41, "note": 69, "velocity": 112, "channel": 0}, {"type": "note_on", "time": 28, "note": 65, "velocity": 105, "channel": 0}, {"type": "note_off", "time": 26, "note": 65, "velocity": 105, "channel": 0}, {"type": "note_on", "time": 14, "note": 61, "velocity": 97, "channel": 0}, {"type": "note_off", "time": 50, "note": 61, "velocity": 97, "channel": 0}, {"type": "note_on", "time": 69, "note": 67, "velocity": 124, "channel": 0}, {"type": "note_off", "time": 45, "note": 67, "velocity": 124, "channel": 0}, {"type": "note_on", "time": 2, "note": 68, "velocity": 121, "channel": 0}, {"type": "note_off", "time": 44, "note": 68, "velocity": 121, "channel": 0}, {"type": "note_on", "time": 2, "note": 70, "velocity": 118, "channel": 0}, {"type": "note_off", "time": 35, "note": 70, "velocity": 118, "channel": 0}, {"type": "note_on", "time": 16, "note": 68, "velocity": 117, "channel": 0}, {"type": "note_off", "time": 36, "note": 68, "velocity": 117, "channel": 0}, {"type": "note_on", "time": 12, "note": 66, "velocity": 115, "channel": 0}, {"type": "note_off", "time": 93, "note": 66, "velocity": 115, "channel": 0}, {"type": "note_on", "time": 17, "note": 63, "velocity": 118, "channel": 0}, {"type": "note_off", "time": 72, "note": 63, "velocity": 118, "channel": 0}, {"type": "note_on", "time": 9, "note": 64, "velocity": 120, "channel": 0}, {"type": "note_off", "time": 93, "note": 64, "velocity": 120, "channel": 0}, {"type": "note_on", "time": 7, "note": 62, "velocity": 101, "channel": 0}, {"type": "note_off", "time": 37, "note": 62, "velocity": 101, "channel": 0}, {"type": "note_on", "time": 337, "note": 61, "velocity": 94, "channel": 0}, {"type": "note_off", "time": 36, "note": 61, "velocity": 94, "channel": 0}, {"type": "note_on", "time": 36, "note": 64, "velocity": 123, "channel": 0}, {"type": "note_off", "time": 92, "note": 64, "velocity": 123, "channel": 0}, {"type": "note_on", "time": 30, "note": 66, "velocity": 122, "channel": 0}, {"type": "note_off", "time": 112, "note": 66, "velocity": 122, "channel": 0}, {"type": "note_on", "time": 4, "note": 69, "velocity": 112, "channel": 0}, {"type": "note_off", "time": 31, "note": 69, "velocity": 112, "channel": 0}, {"type": "note_on", "time": 5, "note": 67, "velocity": 117, "channel": 0}, {"type": "note_off", "time": 46, "note": 67, "velocity": 117, "channel": 0}, {"type": "note_on", "time": 5, "note": 66, "velocity": 114, "channel": 0}, {"type": "note_off", "time": 65, "note": 66, "velocity": 114, "channel": 0}, {"type": "note_on", "time": 12, "note": 64, "velocity": 116, "channel": 0}, {"type": "note_off", "time": 97, "note": 64, "velocity": 116, "channel": 0}, {"type": "note_on", "time": 19, "note": 61, "velocity": 88, "channel": 0}, {"type": "note_off", "time": 42, "note": 61, "velocity": 88, "channel": 0}, {"type": "note_on", "time": 35, "note": 65, "velocity": 118, "channel": 0}, {"type": "note_off", "time": 68, "note": 65, "velocity": 118, "channel": 0}, {"type": "note_on", "time": 2, "note": 66, "velocity": 120, "channel": 0}, {"type": "note_off", "time": 87, "note": 66, "velocity": 120, "channel": 0}, {"type": "note_on", "time": 13, "note": 65, "velocity": 118, "channel": 0}, {"type": "note_off", "time": 97, "note": 65, "velocity": 118, "channel": 0}, {"type": "note_on", "time": 21, "note": 56, "velocity": 104, "channel": 0}, {"type": "note_off", "time": 236, "note": 56, "velocity": 104, "channel": 0}, {"type": "note_on", "time": 1060, "note": 71, "velocity": 122, "channel": 0}, {"type": "note_off", "time": 59, "note": 71, "velocity": 122, "channel": 0}, {"type": "note_on", "time": 38, "note": 73, "velocity": 119, "channel": 0}, {"type": "note_off", "time": 42, "note": 73, "velocity": 119, "channel": 0}, {"type": "note_on", "time": 12, "note": 77, "velocity": 103, "channel": 0}, {"type": "note_off", "time": 29, "note": 77, "velocity": 103, "channel": 0}, {"type": "note_on", "time": 8, "note": 80, "velocity": 121, "channel": 0}, {"type": "note_off", "time": 71, "note": 80, "velocity": 121, "channel": 0}, {"type": "note_on", "time": 39, "note": 84, "velocity": 125, "channel": 0}, {"type": "note_off", "time": 81, "note": 84, "velocity": 125, "channel": 0}, {"type": "note_on", "time": 8, "note": 83, "velocity": 124, "channel": 0}, {"type": "note_off", "time": 74, "note": 83, "velocity": 124, "channel": 0}, {"type": "note_on", "time": 19, "note": 82, "velocity": 124, "channel": 0}, {"type": "note_off", "time": 76, "note": 82, "velocity": 124, "channel": 0}, {"type": "note_on", "time": 32, "note": 81, "velocity": 124, "channel": 0}, {"type": "note_off", "time": 69, "note": 81, "velocity": 124, "channel": 0}, {"type": "note_on", "time": 21, "note": 80, "velocity": 120, "channel": 0}, {"type": "note_off", "time": 36, "note": 80, "velocity": 120, "channel": 0}, {"type": "note_on", "time": 3, "note": 82, "velocity": 123, "channel": 0}, {"type": "note_off", "time": 40, "note": 82, "velocity": 123, "channel": 0}, {"type": "note_on", "time": 1, "note": 80, "velocity": 118, "channel": 0}, {"type": "note_off", "time": 19, "note": 80, "velocity": 118, "channel": 0}, {"type": "note_on", "time": 4, "note": 79, "velocity": 121, "channel": 0}, {"type": "note_off", "time": 71, "note": 79, "velocity": 121, "channel": 0}, {"type": "note_on", "time": 8, "note": 78, "velocity": 120, "channel": 0}, {"type": "note_off", "time": 94, "note": 78, "velocity": 120, "channel": 0}, {"type": "note_on", "time": 7, "note": 77, "velocity": 122, "channel": 0}, {"type": "note_off", "time": 63, "note": 77, "velocity": 122, "channel": 0}, {"type": "note_on", "time": 8, "note": 76, "velocity": 121, "channel": 0}, {"type": "note_off", "time": 35, "note": 76, "velocity": 121, "channel": 0}, {"type": "note_on", "time": 5, "note": 77, "velocity": 123, "channel": 0}, {"type": "note_off", "time": 20, "note": 77, "velocity": 123, "channel": 0}, {"type": "note_on", "time": 3, "note": 76, "velocity": 123, "channel": 0}, {"type": "note_off", "time": 42, "note": 76, "velocity": 123, "channel": 0}, {"type": "note_on", "time": 7, "note": 74, "velocity": 121, "channel": 0}, {"type": "note_off", "time": 71, "note": 74, "velocity": 121, "channel": 0}, {"type": "note_on", "time": 18, "note": 71, "velocity": 117, "channel": 0}, {"type": "note_off", "time": 36, "note": 71, "velocity": 117, "channel": 0}, {"type": "note_on", "time": 9, "note": 73, "velocity": 98, "channel": 0}, {"type": "note_off", "time": 18, "note": 73, "velocity": 98, "channel": 0}, {"type": "note_on", "time": 8, "note": 71, "velocity": 114, "channel": 0}, {"type": "note_off", "time": 31, "note": 71, "velocity": 114, "channel": 0}, {"type": "note_on", "time": 3, "note": 69, "velocity": 116, "channel": 0}, {"type": "note_off", "time": 23, "note": 69, "velocity": 116, "channel": 0}, {"type": "note_on", "time": 15, "note": 69, "velocity": 113, "channel": 0}, {"type": "note_off", "time": 39, "note": 69, "velocity": 113, "channel": 0}, {"type": "note_on", "time": 30, "note": 68, "velocity": 117, "channel": 0}, {"type": "note_off", "time": 77, "note": 68, "velocity": 117, "channel": 0}, {"type": "note_on", "time": 13, "note": 65, "velocity": 112, "channel": 0}, {"type": "note_off", "time": 62, "note": 65, "velocity": 112, "channel": 0}, {"type": "note_on", "time": 9, "note": 66, "velocity": 102, "channel": 0}, {"type": "note_off", "time": 75, "note": 66, "velocity": 102, "channel": 0}, {"type": "note_on", "time": 15, "note": 67, "velocity": 118, "channel": 0}, {"type": "note_off", "time": 64, "note": 67, "velocity": 118, "channel": 0}, {"type": "note_on", "time": 27, "note": 68, "velocity": 104, "channel": 0}, {"type": "note_off", "time": 85, "note": 68, "velocity": 104, "channel": 0}, {"type": "note_on", "time": 6, "note": 70, "velocity": 120, "channel": 0}, {"type": "note_off", "time": 74, "note": 70, "velocity": 120, "channel": 0}, {"type": "note_on", "time": 14, "note": 72, "velocity": 108, "channel": 0}, {"type": "note_off", "time": 79, "note": 72, "velocity": 108, "channel": 0}, {"type": "note_on", "time": 20, "note": 73, "velocity": 122, "channel": 0}, {"type": "note_off", "time": 78, "note": 73, "velocity": 122, "channel": 0}, {"type": "note_on", "time": 12, "note": 75, "velocity": 123, "channel": 0}, {"type": "note_off", "time": 81, "note": 75, "velocity": 123, "channel": 0}, {"type": "note_on", "time": 6, "note": 77, "velocity": 118, "channel": 0}, {"type": "note_off", "time": 67, "note": 77, "velocity": 118, "channel": 0}, {"type": "note_on", "time": 18, "note": 78, "velocity": 121, "channel": 0}, {"type": "note_off", "time": 89, "note": 78, "velocity": 121, "channel": 0}, {"type": "note_on", "time": 9, "note": 79, "velocity": 124, "channel": 0}, {"type": "note_off", "time": 75, "note": 79, "velocity": 124, "channel": 0}, {"type": "note_on", "time": 16, "note": 80, "velocity": 119, "channel": 0}, {"type": "note_off", "time": 85, "note": 80, "velocity": 119, "channel": 0}, {"type": "note_on", "time": 67, "note": 72, "velocity": 95, "channel": 0}, {"type": "note_off", "time": 28, "note": 72, "velocity": 95, "channel": 0}, {"type": "note_on", "time": 17, "note": 73, "velocity": 124, "channel": 0}, {"type": "note_off", "time": 87, "note": 73, "velocity": 124, "channel": 0}, {"type": "note_on", "time": 17, "note": 78, "velocity": 122, "channel": 0}, {"type": "note_off", "time": 85, "note": 78, "velocity": 122, "channel": 0}, {"type": "note_on", "time": 4, "note": 77, "velocity": 118, "channel": 0}, {"type": "note_off", "time": 70, "note": 77, "velocity": 118, "channel": 0}, {"type": "note_on", "time": 23, "note": 73, "velocity": 123, "channel": 0}, {"type": "note_off", "time": 58, "note": 73, "velocity": 123, "channel": 0}, {"type": "note_on", "time": 15, "note": 70, "velocity": 117, "channel": 0}, {"type": "note_off", "time": 95, "note": 70, "velocity": 117, "channel": 0}, {"type": "note_on", "time": 25, "note": 68, "velocity": 98, "channel": 0}, {"type": "note_off", "time": 34, "note": 68, "velocity": 98, "channel": 0}, {"type": "note_on", "time": 40, "note": 73, "velocity": 108, "channel": 0}, {"type": "note_off", "time": 203, "note": 73, "velocity": 108, "channel": 0}, {"type": "note_on", "time": 486, "note": 73, "velocity": 125, "channel": 0}, {"type": "note_off", "time": 73, "note": 73, "velocity": 125, "channel": 0}, {"type": "note_on", "time": 21, "note": 76, "velocity": 120, "channel": 0}, {"type": "note_off", "time": 29, "note": 76, "velocity": 120, "channel": 0}, {"type": "note_on", "time": 4, "note": 77, "velocity": 124, "channel": 0}, {"type": "note_off", "time": 74, "note": 77, "velocity": 124, "channel": 0}, {"type": "note_on", "time": 6, "note": 80, "velocity": 125, "channel": 0}, {"type": "note_off", "time": 68, "note": 80, "velocity": 125, "channel": 0}, {"type": "note_on", "time": 14, "note": 82, "velocity": 125, "channel": 0}, {"type": "note_off", "time": 103, "note": 82, "velocity": 125, "channel": 0}, {"type": "note_on", "time": 87, "note": 85, "velocity": 127, "channel": 0}, {"type": "note_off", "time": 130, "note": 85, "velocity": 127, "channel": 0}, {"type": "note_on", "time": 71, "note": 85, "velocity": 124, "channel": 0}, {"type": "note_off", "time": 95, "note": 85, "velocity": 124, "channel": 0}, {"type": "note_on", "time": 3, "note": 87, "velocity": 100, "channel": 0}, {"type": "note_off", "time": 115, "note": 87, "velocity": 100, "channel": 0}, {"type": "note_on", "time": 1062, "note": 86, "velocity": 126, "channel": 0}, {"type": "note_off", "time": 67, "note": 86, "velocity": 126, "channel": 0}, {"type": "note_on", "time": 4, "note": 85, "velocity": 125, "channel": 0}, {"type": "note_off", "time": 50, "note": 85, "velocity": 125, "channel": 0}, {"type": "note_on", "time": 68, "note": 84, "velocity": 123, "channel": 0}, {"type": "note_off", "time": 78, "note": 84, "velocity": 123, "channel": 0}, {"type": "note_on", "time": 92, "note": 83, "velocity": 122, "channel": 0}, {"type": "note_off", "time": 63, "note": 83, "velocity": 122, "channel": 0}, {"type": "note_on", "time": 3, "note": 81, "velocity": 117, "channel": 0}, {"type": "note_off", "time": 29, "note": 81, "velocity": 117, "channel": 0}, {"type": "note_on", "time": 6, "note": 80, "velocity": 124, "channel": 0}, {"type": "note_off", "time": 84, "note": 80, "velocity": 124, "channel": 0}, {"type": "note_on", "time": 3, "note": 78, "velocity": 124, "channel": 0}, {"type": "note_off", "time": 64, "note": 78, "velocity": 124, "channel": 0}, {"type": "note_on", "time": 26, "note": 76, "velocity": 125, "channel": 0}, {"type": "note_off", "time": 90, "note": 76, "velocity": 125, "channel": 0}, {"type": "note_on", "time": 7, "note": 75, "velocity": 124, "channel": 0}, {"type": "note_off", "time": 72, "note": 75, "velocity": 124, "channel": 0}, {"type": "note_on", "time": 23, "note": 73, "velocity": 117, "channel": 0}, {"type": "note_off", "time": 83, "note": 73, "velocity": 117, "channel": 0}, {"type": "note_on", "time": 10, "note": 71, "velocity": 119, "channel": 0}, {"type": "note_off", "time": 79, "note": 71, "velocity": 119, "channel": 0}, {"type": "note_on", "time": 18, "note": 70, "velocity": 119, "channel": 0}, {"type": "note_off", "time": 76, "note": 70, "velocity": 119, "channel": 0}, {"type": "note_on", "time": 4, "note": 69, "velocity": 121, "channel": 0}, {"type": "note_off", "time": 62, "note": 69, "velocity": 121, "channel": 0}, {"type": "note_on", "time": 27, "note": 68, "velocity": 105, "channel": 0}, {"type": "note_off", "time": 35, "note": 68, "velocity": 105, "channel": 0}, {"type": "note_on", "time": 20, "note": 68, "velocity": 121, "channel": 0}, {"type": "note_off", "time": 39, "note": 68, "velocity": 121, "channel": 0}, {"type": "note_on", "time": 9, "note": 67, "velocity": 118, "channel": 0}, {"type": "note_off", "time": 67, "note": 67, "velocity": 118, "channel": 0}, {"type": "note_on", "time": 28, "note": 65, "velocity": 114, "channel": 0}, {"type": "note_off", "time": 26, "note": 65, "velocity": 114, "channel": 0}, {"type": "note_on", "time": 1, "note": 66, "velocity": 117, "channel": 0}, {"type": "note_off", "time": 53, "note": 66, "velocity": 117, "channel": 0}, {"type": "note_on", "time": 40, "note": 61, "velocity": 87, "channel": 0}, {"type": "note_off", "time": 31, "note": 61, "velocity": 87, "channel": 0}, {"type": "note_on", "time": 164, "note": 63, "velocity": 124, "channel": 0}, {"type": "note_off", "time": 27, "note": 63, "velocity": 124, "channel": 0}, {"type": "note_on", "time": 1, "note": 64, "velocity": 121, "channel": 0}, {"type": "note_off", "time": 62, "note": 64, "velocity": 121, "channel": 0}, {"type": "note_on", "time": 5, "note": 65, "velocity": 118, "channel": 0}, {"type": "note_off", "time": 70, "note": 65, "velocity": 118, "channel": 0}, {"type": "note_on", "time": 19, "note": 60, "velocity": 97, "channel": 0}, {"type": "note_off", "time": 28, "note": 60, "velocity": 97, "channel": 0}, {"type": "note_on", "time": 12, "note": 63, "velocity": 110, "channel": 0}, {"type": "note_off", "time": 130, "note": 63, "velocity": 110, "channel": 0}, {"type": "note_on", "time": 81, "note": 63, "velocity": 98, "channel": 0}, {"type": "note_off", "time": 37, "note": 63, "velocity": 98, "channel": 0}, {"type": "note_on", "time": 37, "note": 65, "velocity": 98, "channel": 0}, {"type": "note_off", "time": 28, "note": 65, "velocity": 98, "channel": 0}, {"type": "note_on", "time": 7, "note": 68, "velocity": 119, "channel": 0}, {"type": "note_off", "time": 52, "note": 68, "velocity": 119, "channel": 0}, {"type": "note_on", "time": 31, "note": 72, "velocity": 122, "channel": 0}, {"type": "note_off", "time": 98, "note": 72, "velocity": 122, "channel": 0}, {"type": "note_on", "time": 9, "note": 75, "velocity": 122, "channel": 0}, {"type": "note_off", "time": 74, "note": 75, "velocity": 122, "channel": 0}, {"type": "note_on", "time": 31, "note": 80, "velocity": 122, "channel": 0}, {"type": "note_off", "time": 78, "note": 80, "velocity": 122, "channel": 0}, {"type": "note_on", "time": 10, "note": 75, "velocity": 121, "channel": 0}, {"type": "note_off", "time": 71, "note": 75, "velocity": 121, "channel": 0}, {"type": "note_on", "time": 30, "note": 74, "velocity": 121, "channel": 0}, {"type": "note_off", "time": 86, "note": 74, "velocity": 121, "channel": 0}, {"type": "note_on", "time": 32, "note": 79, "velocity": 122, "channel": 0}, {"type": "note_off", "time": 92, "note": 79, "velocity": 122, "channel": 0}, {"type": "note_on", "time": 63, "note": 77, "velocity": 123, "channel": 0}, {"type": "note_off", "time": 81, "note": 77, "velocity": 123, "channel": 0}, {"type": "note_on", "time": 7, "note": 78, "velocity": 124, "channel": 0}, {"type": "note_off", "time": 77, "note": 78, "velocity": 124, "channel": 0}, {"type": "note_on", "time": 30, "note": 66, "velocity": 95, "channel": 0}, {"type": "note_off", "time": 37, "note": 66, "velocity": 95, "channel": 0}, {"type": "note_on", "time": 42, "note": 73, "velocity": 121, "channel": 0}, {"type": "note_off", "time": 82, "note": 73, "velocity": 121, "channel": 0}, {"type": "note_on", "time": 2, "note": 77, "velocity": 124, "channel": 0}, {"type": "note_off", "time": 79, "note": 77, "velocity": 124, "channel": 0}, {"type": "note_on", "time": 17, "note": 76, "velocity": 115, "channel": 0}, {"type": "note_off", "time": 15, "note": 76, "velocity": 115, "channel": 0}, {"type": "note_on", "time": 3, "note": 77, "velocity": 120, "channel": 0}, {"type": "note_off", "time": 35, "note": 77, "velocity": 120, "channel": 0}, {"type": "note_on", "time": 3, "note": 76, "velocity": 120, "channel": 0}, {"type": "note_off", "time": 43, "note": 76, "velocity": 120, "channel": 0}, {"type": "note_on", "time": 5, "note": 74, "velocity": 123, "channel": 0}, {"type": "note_off", "time": 60, "note": 74, "velocity": 123, "channel": 0}, {"type": "note_on", "time": 35, "note": 75, "velocity": 118, "channel": 0}, {"type": "note_off", "time": 71, "note": 75, "velocity": 118, "channel": 0}, {"type": "note_on", "time": 13, "note": 73, "velocity": 114, "channel": 0}, {"type": "note_off", "time": 70, "note": 73, "velocity": 114, "channel": 0}, {"type": "note_on", "time": 22, "note": 72, "velocity": 117, "channel": 0}, {"type": "note_off", "time": 87, "note": 72, "velocity": 117, "channel": 0}, {"type": "note_on", "time": 11, "note": 70, "velocity": 121, "channel": 0}, {"type": "note_off", "time": 67, "note": 70, "velocity": 121, "channel": 0}, {"type": "note_on", "time": 3, "note": 69, "velocity": 107, "channel": 0}, {"type": "note_off", "time": 33, "note": 69, "velocity": 107, "channel": 0}, {"type": "note_on", "time": 3, "note": 70, "velocity": 116, "channel": 0}, {"type": "note_off", "time": 39, "note": 70, "velocity": 116, "channel": 0}, {"type": "note_on", "time": 1, "note": 69, "velocity": 117, "channel": 0}, {"type": "note_off", "time": 41, "note": 69, "velocity": 117, "channel": 0}, {"type": "note_on", "time": 4, "note": 67, "velocity": 114, "channel": 0}, {"type": "note_off", "time": 62, "note": 67, "velocity": 114, "channel": 0}, {"type": "note_on", "time": 21, "note": 68, "velocity": 111, "channel": 0}, {"type": "note_off", "time": 58, "note": 68, "velocity": 111, "channel": 0}, {"type": "note_on", "time": 50, "note": 66, "velocity": 116, "channel": 0}, {"type": "note_off", "time": 37, "note": 66, "velocity": 116, "channel": 0}, {"type": "note_on", "time": 56, "note": 63, "velocity": 99, "channel": 0}, {"type": "note_off", "time": 56, "note": 63, "velocity": 99, "channel": 0}, {"type": "note_on", "time": 21, "note": 64, "velocity": 115, "channel": 0}, {"type": "note_off", "time": 68, "note": 64, "velocity": 115, "channel": 0}, {"type": "note_on", "time": 23, "note": 65, "velocity": 113, "channel": 0}, {"type": "note_off", "time": 83, "note": 65, "velocity": 113, "channel": 0}, {"type": "note_on", "time": 29, "note": 68, "velocity": 100, "channel": 0}, {"type": "note_off", "time": 43, "note": 68, "velocity": 100, "channel": 0}, {"type": "note_on", "time": 26, "note": 70, "velocity": 120, "channel": 0}, {"type": "note_off", "time": 94, "note": 70, "velocity": 120, "channel": 0}, {"type": "note_on", "time": 100, "note": 73, "velocity": 123, "channel": 0}, {"type": "note_off", "time": 124, "note": 73, "velocity": 123, "channel": 0}, {"type": "note_on", "time": 264, "note": 70, "velocity": 122, "channel": 0}, {"type": "note_off", "time": 52, "note": 70, "velocity": 122, "channel": 0}, {"type": "note_on", "time": 4, "note": 71, "velocity": 119, "channel": 0}, {"type": "note_off", "time": 47, "note": 71, "velocity": 119, "channel": 0}, {"type": "note_on", "time": 11, "note": 70, "velocity": 120, "channel": 0}, {"type": "note_off", "time": 57, "note": 70, "velocity": 120, "channel": 0}, {"type": "note_on", "time": 16, "note": 69, "velocity": 116, "channel": 0}, {"type": "note_off", "time": 83, "note": 69, "velocity": 116, "channel": 0}, {"type": "note_on", "time": 5, "note": 68, "velocity": 118, "channel": 0}, {"type": "note_off", "time": 63, "note": 68, "velocity": 118, "channel": 0}, {"type": "note_on", "time": 14, "note": 67, "velocity": 111, "channel": 0}, {"type": "note_off", "time": 98, "note": 67, "velocity": 111, "channel": 0}, {"type": "end_of_track", "time": 0}]]}