{"ticks_per_beat": 192, "tracks": [[{"type": "track_name", "name": "Melody", "time": 0}, {"type": "set_tempo", "tempo": 267857, "time": 0}, {"type": "key_signature", "key": "F", "time": 0}, {"type": "time_signature", "numerator": 4, "denominator": 4, "clocks_per_click": 24, "notated_32nd_notes_per_beat": 8, "time": 0}, {"type": "note_on", "time": 2582, "note": 62, "velocity": 107, "channel": 0}, {"type": "note_off", "time": 48, "note": 62, "velocity": 107, "channel": 0}, {"type": "note_on", "time": 15, "note": 65, "velocity": 118, "channel": 0}, {"type": "note_off", "time": 70, "note": 65, "velocity": 118, "channel": 0}, {"type": "note_on", "time": 39, "note": 63, "velocity": 94, "channel": 0}, {"type": "note_off", "time": 39, "note": 63, "velocity": 94, "channel": 0}, {"type": "note_on", "time": 3, "note": 64, "velocity": 107, "channel": 0}, {"type": "note_off", "time": 76, "note": 64, "velocity": 107, "channel": 0}, {"type": "note_on", "time": 10, "note": 65, "velocity": 111, "channel": 0}, {"type": "note_off", "time": 56, "note": 65, "velocity": 111, "channel": 0}, {"type": "note_on", "time": 12, "note": 66, "velocity": 110, "channel": 0}, {"type": "note_off", "time": 60, "note": 66, "velocity": 110, "channel": 0}, {"type": "note_on", "time": 12, "note": 67, "velocity": 120, "channel": 0}, {"type": "note_off", "time": 85, "note": 67, "velocity": 120, "channel": 0}, {"type": "note_on", "time": 10, "note": 69, "velocity": 117, "channel": 0}, {"type": "note_off", "time": 85, "note": 69, "velocity": 117, "channel": 0}, {"type": "note_on", "time": 7, "note": 70, "velocity": 117, "channel": 0}, {"type": "note_off", "time": 84, "note": 70, "velocity": 117, "channel": 0}, {"type": "note_on", "time": 8, "note": 72, "velocity": 125, "channel": 0}, {"type": "note_off", "time": 91, "note": 72, "velocity": 125, "channel": 0}, {"type": "note_on", "time": 8, "note": 74, "velocity": 116, "channel": 0}, {"type": "note_off", "time": 79, "note": 74, "velocity": 116, "channel": 0}, {"type": "note_on", "time": 2, "note": 77, "velocity": 122, "channel": 0}, {"type": "note_off", "time": 87, "note": 77, "velocity": 122, "channel": 0}, {"type": "note_on", "time": 8, "note": 76, "velocity": 113, "channel": 0}, {"type": "note_off", "time": 93, "note": 76, "velocity": 113, "channel": 0}, {"type": "note_on", "time": 21, "note": 75, "velocity": 122, "channel": 0}, {"type": "note_off", "time": 83, "note": 75, "velocity": 122, "channel": 0}, {"type": "note_on", "time": 5, "note": 74, "velocity": 112, "channel": 0}, {"type": "note_off", "time": 97, "note": 74, "velocity": 112, "channel": 0}, {"type": "note_on", "time": 9, "note": 73, "velocity": 116, "channel": 0}, {"type": "note_off", "time": 65, "note": 73, "velocity": 116, "channel": 0}, {"type": "note_on", "time": 4, "note": 72, "velocity": 107, "channel": 0}, {"type": "note_off", "time": 118, "note": 72, "velocity": 107, "channel": 0}, {"type": "note_on", "time": 18, "note": 64, "velocity": 98, "channel": 0}, {"type": "note_off", "time": 89, "note": 64, "velocity": 98, "channel": 0}, {"type": "note_on", "time": 8, "note": 65, "velocity": 104, "channel": 0}, {"type": "note_off", "time": 78, "note": 65, "velocity": 104, "channel": 0}, {"type": "note_on", "time": 31, "note": 70, "velocity": 122, "channel": 0}, {"type": "note_off", "time": 84, "note": 70, "velocity": 122, "channel": 0}, {"type": "note_on", "time": 2, "note": 69, "velocity": 109, "channel": 0}, {"type": "note_off", "time": 96, "note": 69, "velocity": 109, "channel": 0}, {"type": "note_on", "time": 26, "note": 65, "velocity": 109, "channel": 0}, {"type": "note_off", "time": 58, "note": 65, "velocity": 109, "channel": 0}, {"type": "note_on", "time": 4, "note": 62, "velocity": 90, "channel": 0}, {"type": "note_off", "time": 58, "note": 62, "velocity": 90, "channel": 0}, {"type": "note_on", "time": 162, "note": 67, "velocity": 118, "channel": 0}, {"type": "note_off", "time": 99, "note": 67, "velocity": 118, "channel": 0}, {"type": "note_on", "time": 4, "note": 64, "velocity": 97, "channel": 0}, {"type": "note_off", "time": 60, "note": 64, "velocity": 97, "channel": 0}, {"type": "note_on", "time": 11, "note": 62, "velocity": 114, "channel": 0}, {"type": "note_off", "time": 92, "note": 62, "velocity": 114, "channel": 0}, {"type": "note_on", "time": 18, "note": 67, "velocity": 120, "channel": 0}, {"type": "note_off", "time": 64, "note": 67, "velocity": 120, "channel": 0}, {"type": "note_on", "time": 14, "note": 69, "velocity": 100, "channel": 0}, {"type": "note_off", "time": 99, "note": 69, "velocity": 100, "channel": 0}, {"type": "note_on", "time": 16, "note": 72, "velocity": 119, "channel": 0}, {"type": "note_off", "time": 68, "note": 72, "velocity": 119, "channel": 0}, {"type": "note_on", "time": 0, "note": 74, "velocity": 117, "channel": 0}, {"type": "note_off", "time": 119, "note": 74, "velocity": 117, "channel": 0}, {"type": "note_on", "time": 19, "note": 77, "velocity": 120, "channel": 0}, {"type": "note_off", "time": 382, "note": 77, "velocity": 120, "channel": 0}, {"type": "note_on", "time": 3, "note": 80, "velocity": 119, "channel": 0}, {"type": "note_off", "time": 22, "note": 80, "velocity": 119, "channel": 0}, {"type": "note_on", "time": 0, "note": 77, "velocity": 120, "channel": 0}, {"type": "note_off", "time": 24, "note": 77, "velocity": 120, "channel": 0}, {"type": "note_on", "time": 10, "note": 72, "velocity": 108, "channel": 0}, {"type": "note_off", "time": 13, "note": 72, "velocity": 108, "channel": 0}, {"type": "note_on", "time": 18, "note": 68, "velocity": 111, "channel": 0}, {"type": "note_off", "time": 149, "note": 68, "velocity": 111, "channel": 0}, {"type": "note_on", "time": 0, "note": 65, "velocity": 109, "channel": 0}, {"type": "note_off", "time": 114, "note": 65, "velocity": 109, "channel": 0}, {"type": "note_on", "time": 1065, "note": 67, "velocity": 113, "channel": 0}, {"type": "note_off", "time": 109, "note": 67, "velocity": 113, "channel": 0}, {"type": "note_on", "time": 14, "note": 69, "velocity": 120, "channel": 0}, {"type": "note_off", "time": 71, "note": 69, "velocity": 120, "channel": 0}, {"type": "note_on", "time": 3, "note": 70, "velocity": 114, "channel": 0}, {"type": "note_off", "time": 101, "note": 70, "velocity": 114, "channel": 0}, {"type": "note_on", "time": 6, "note": 72, "velocity": 124, "channel": 0}, {"type": "note_off", "time": 73, "note": 72, "velocity": 124, "channel": 0}, {"type": "note_on", "time": 3, "note": 74, "velocity": 119, "channel": 0}, {"type": "note_off", "time": 79, "note": 74, "velocity": 119, "channel": 0}, {"type": "note_on", "time": 29, "note": 77, "velocity": 126, "channel": 0}, {"type": "note_off", "time": 77, "note": 77, "velocity": 126, "channel": 0}, {"type": "note_on", "time": 10, "note": 81, "velocity": 117, "channel": 0}, {"type": "note_off", "time": 33, "note": 81, "velocity": 117, "channel": 0}, {"type": "note_on", "time": 8, "note": 82, "velocity": 122, "channel": 0}, {"type": "note_off", "time": 106, "note": 82, "velocity": 122, "channel": 0}, {"type": "note_on", "time": 1, "note": 81, "velocity": 115, "channel": 0}, {"type": "note_off", "time": 44, "note": 81, "velocity": 115, "channel": 0}, {"type": "note_on", "time": 3, "note": 79, "velocity": 120, "channel": 0}, {"type": "note_off", "time": 81, "note": 79, "velocity": 120, "channel": 0}, {"type": "note_on", "time": 36, "note": 77, "velocity": 119, "channel": 0}, {"type": "note_off", "time": 90, "note": 77, "velocity": 119, "channel": 0}, {"type": "note_on", "time": 7, "note": 76, "velocity": 119, "channel": 0}, {"type": "note_off", "time": 89, "note": 76, "velocity": 119, "channel": 0}, {"type": "note_on", "time": 8, "note": 75, "velocity": 121, "channel": 0}, {"type": "note_off", "time": 76, "note": 75, "velocity": 121, "channel": 0}, {"type": "note_on", "time": 8, "note": 74, "velocity": 122, "channel": 0}, {"type": "note_off", "time": 74, "note": 74, "velocity": 122, "channel": 0}, {"type": "note_on", "time": 16, "note": 73, "velocity": 120, "channel": 0}, {"type": "note_off", "time": 87, "note": 73, "velocity": 120, "channel": 0}, {"type": "note_on", "time": 11, "note": 72, "velocity": 117, "channel": 0}, {"type": "note_off", "time": 99, "note": 72, "velocity": 117, "channel": 0}, {"type": "note_on", "time": 6, "note": 69, "velocity": 116, "channel": 0}, {"type": "note_off", "time": 87, "note": 69, "velocity": 116, "channel": 0}, {"type": "note_on", "time": 119, "note": 67, "velocity": 120, "channel": 0}, {"type": "note_off", "time": 79, "note": 67, "velocity": 120, "channel": 0}, {"type": "note_on", "time": 9, "note": 68, "velocity": 107, "channel": 0}, {"type": "note_off", "time": 88, "note": 68, "velocity": 107, "channel": 0}, {"type": "note_on", "time": 35, "note": 75, "velocity": 124, "channel": 0}, {"type": "note_off", "time": 65, "note": 75, "velocity": 124, "channel": 0}, {"type": "note_on", "time": 16, "note": 72, "velocity": 104, "channel": 0}, {"type": "note_off", "time": 62, "note": 72, "velocity": 104, "channel": 0}, {"type": "note_on", "time": 21, "note": 73, "velocity": 117, "channel": 0}, {"type": "note_off", "time": 62, "note": 73, "velocity": 117, "channel": 0}, {"type": "note_on", "time": 4, "note": 74, "velocity": 119, "channel": 0}, {"type": "note_off", "time": 95, "note": 74, "velocity": 119, "channel": 0}, {"type": "note_on", "time": 3, "note": 70, "velocity": 116, "channel": 0}, {"type": "note_off", "time": 74, "note": 70, "velocity": 116, "channel": 0}, {"type": "note_on", "time": 0, "note": 67, "velocity": 113, "channel": 0}, {"type": "note_off", "time": 106, "note": 67, "velocity": 113, "channel": 0}, {"type": "note_on", "time": 18, "note": 65, "velocity": 115, "channel": 0}, {"type": "note_off", "time": 82, "note": 65, "velocity": 115, "channel": 0}, {"type": "note_on", "time": 3, "note": 64, "velocity": 112, "channel": 0}, {"type": "note_off", "time": 67, "note": 64, "velocity": 112, "channel": 0}, {"type": "note_on", "time": 57, "note": 73, "velocity": 119, "channel": 0}, {"type": "note_off", "time": 81, "note": 73, "velocity": 119, "channel": 0}, {"type": "note_on", "time": 26, "note": 70, "velocity": 100, "channel": 0}, {"type": "note_off", "time": 66, "note": 70, "velocity": 100, "channel": 0}, {"type": "note_on", "time": 11, "note": 71, "velocity": 120, "channel": 0}, {"type": "note_off", "time": 74, "note": 71, "velocity": 120, "channel": 0}, {"type": "note_on", "time": 14, "note": 72, "velocity": 108, "channel": 0}, {"type": "note_off", "time": 104, "note": 72, "velocity": 108, "channel": 0}, {"type": "note_on", "time": 74, "note": 64, "velocity": 116, "channel": 0}, {"type": "note_off", "time": 43, "note": 64, "velocity": 116, "channel": 0}, {"type": "note_on", "time": 18, "note": 67, "velocity": 110, "channel": 0}, {"type": "note_off", "time": 43, "note": 67, "velocity": 110, "channel": 0}, {"type": "note_on", "time": 25, "note": 70, "velocity": 123, "channel": 0}, {"type": "note_off", "time": 52, "note": 70, "velocity": 123, "channel": 0}, {"type": "note_on", "time": 11, "note": 69, "velocity": 115, "channel": 0}, {"type": "note_off", "time": 95, "note": 69, "velocity": 115, "channel": 0}, {"type": "note_on", "time": 382, "note": 60, "velocity": 110, "channel": 0}, {"type": "note_on", "time": 66, "note": 62, "velocity": 110, "channel": 0}, {"type": "note_off", "time": 0, "note": 60, "velocity": 110, "channel": 0}, {"type": "note_off", "time": 83, "note": 62, "velocity": 110, "channel": 0}, {"type": "note_on", "time": 49, "note": 65, "velocity": 99, "channel": 0}, {"type": "note_off", "time": 54, "note": 65, "velocity": 99, "channel": 0}, {"type": "note_on", "time": 28, "note": 67, "velocity": 117, "channel": 0}, {"type": "note_off", "time": 118, "note": 67, "velocity": 117, "channel": 0}, {"type": "note_on", "time": 6, "note": 64, "velocity": 106, "channel": 0}, {"type": "note_off", "time": 72, "note": 64, "velocity": 106, "channel": 0}, {"type": "note_on", "time": 8, "note": 65, "velocity": 101, "channel": 0}, {"type": "note_off", "time": 85, "note": 65, "velocity": 101, "channel": 0}, {"type": "note_on", "time": 8, "note": 67, "velocity": 115, "channel": 0}, {"type": "note_off", "time": 85, "note": 67, "velocity": 115, "channel": 0}, {"type": "note_on", "time": 3, "note": 68, "velocity": 112, "channel": 0}, {"type": "note_off", "time": 51, "note": 68, "velocity": 112, "channel": 0}, {"type": "note_on", "time": 6, "note": 70, "velocity": 111, "channel": 0}, {"type": "note_off", "time": 47, "note": 70, "velocity": 111, "channel": 0}, {"type": "note_on", "time": 7, "note": 68, "velocity": 117, "channel": 0}, {"type": "note_off", "time": 55, "note": 68, "velocity": 117, "channel": 0}, {"type": "note_on", "time": 25, "note": 67, "velocity": 117, "channel": 0}, {"type": "note_off", "time": 99, "note": 67, "velocity": 117, "channel": 0}, {"type": "note_on", "time": 29, "note": 65, "velocity": 99, "channel": 0}, {"type": "note_off", "time": 58, "note": 65, "velocity": 99, "channel": 0}, {"type": "note_on", "time": 5, "note": 70, "velocity": 122, "channel": 0}, {"type": "note_off", "time": 118, "note": 70, "velocity": 122, "channel": 0}, {"type": "note_on", "time": 21, "note": 65, "velocity": 107, "channel": 0}, {"type": "note_off", "time": 103, "note": 65, "velocity": 107, "channel": 0}, {"type": "note_on", "time": 1387, "note": 84, "velocity": 126, "channel": 0}, {"type": "note_off", "time": 32, "note": 84, "velocity": 126, "channel": 0}, {"type": "note_on", "time": 0, "note": 83, "velocity": 121, "channel": 0}, {"type": "note_off", "time": 13, "note": 83, "velocity": 121, "channel": 0}, {"type": "note_on", "time": 16, "note": 82, "velocity": 118, "channel": 0}, {"type": "note_off", "time": 16, "note": 82, "velocity": 118, "channel": 0}, {"type": "note_on", "time": 1, "note": 81, "velocity": 119, "channel": 0}, {"type": "note_off", "time": 10, "note": 81, "velocity": 119, "channel": 0}, {"type": "note_on", "time": 4, "note": 79, "velocity": 115, "channel": 0}, {"type": "note_off", "time": 90, "note": 79, "velocity": 115, "channel": 0}, {"type": "note_on", "time": 6, "note": 77, "velocity": 120, "channel": 0}, {"type": "note_off", "time": 74, "note": 77, "velocity": 120, "channel": 0}, {"type": "note_on", "time": 4, "note": 76, "velocity": 118, "channel": 0}, {"type": "note_off", "time": 93, "note": 76, "velocity": 118, "channel": 0}, {"type": "note_on", "time": 8, "note": 75, "velocity": 119, "channel": 0}, {"type": "note_off", "time": 90, "note": 75, "velocity": 119, "channel": 0}, {"type": "note_on", "time": 8, "note": 74, "velocity": 120, "channel": 0}, {"type": "note_off", "time": 94, "note": 74, "velocity": 120, "channel": 0}, {"type": "note_on", "time": 7, "note": 73, "velocity": 119, "channel": 0}, {"type": "note_off", "time": 74, "note": 73, "velocity": 119, "channel": 0}, {"type": "note_on", "time": 9, "note": 72, "velocity": 114, "channel": 0}, {"type": "note_off", "time": 83, "note": 72, "velocity": 114, "channel": 0}, {"type": "note_on", "time": 8, "note": 71, "velocity": 118, "channel": 0}, {"type": "note_off", "time": 93, "note": 71, "velocity": 118, "channel": 0}, {"type": "note_on", "time": 18, "note": 70, "velocity": 104, "channel": 0}, {"type": "note_off", "time": 65, "note": 70, "velocity": 104, "channel": 0}, {"type": "note_on", "time": 12, "note": 69, "velocity": 118, "channel": 0}, {"type": "note_off", "time": 66, "note": 69, "velocity": 118, "channel": 0}, {"type": "note_on", "time": 8, "note": 68, "velocity": 107, "channel": 0}, {"type": "note_off", "time": 82, "note": 68, "velocity": 107, "channel": 0}, {"type": "note_on", "time": 5, "note": 67, "velocity": 110, "channel": 0}, {"type": "note_off", "time": 109, "note": 67, "velocity": 110, "channel": 0}, {"type": "note_on", "time": 6, "note": 66, "velocity": 113, "channel": 0}, {"type": "note_off", "time": 65, "note": 66, "velocity": 113, "channel": 0}, {"type": "note_on", "time": 27, "note": 65, "velocity": 99, "channel": 0}, {"type": "note_off", "time": 64, "note": 65, "velocity": 99, "channel": 0}, {"type": "note_on", "time": 10, "note": 64, "velocity": 103, "channel": 0}, {"type": "note_off", "time": 80, "note": 64, "velocity": 103, "channel": 0}, {"type": "note_on", "time": 11, "note": 62, "velocity": 101, "channel": 0}, {"type": "note_off", "time": 99, "note": 62, "velocity": 101, "channel": 0}, {"type": "note_on", "time": 66, "note": 65, "velocity": 113, "channel": 0}, {"type": "note_off", "time": 61, "note": 65, "velocity": 113, "channel": 0}, {"type": "note_on", "time": 6, "note": 62, "velocity": 95, "channel": 0}, {"type": "note_off", "time": 63, "note": 62, "velocity": 95, "channel": 0}, {"type": "note_on", "time": 7, "note": 63, "velocity": 112, "channel": 0}, {"type": "note_off", "time": 99, "note": 63, "velocity": 112, "channel": 0}, {"type": "note_on", "time": 2, "note": 65, "velocity": 110, "channel": 0}, {"type": "note_off", "time": 81, "note": 65, "velocity": 110, "channel": 0}, {"type": "note_on", "time": 23, "note": 66, "velocity": 111, "channel": 0}, {"type": "note_off", "time": 72, "note": 66, "velocity": 111, "channel": 0}, {"type": "note_on", "time": 39, "note": 68, "velocity": 115, "channel": 0}, {"type": "note_off", "time": 68, "note": 68, "velocity": 115, "channel": 0}, {"type": "note_on", "time": 10, "note": 70, "velocity": 117, "channel": 0}, {"type": "note_off", "time": 89, "note": 70, "velocity": 117, "channel": 0}, {"type": "note_on", "time": 3, "note": 73, "velocity": 115, "channel": 0}, {"type": "note_off", "time": 68, "note": 73, "velocity": 115, "channel": 0}, {"type": "note_on", "time": 16, "note": 72, "velocity": 108, "channel": 0}, {"type": "note_off", "time": 79, "note": 72, "velocity": 108, "channel": 0}, {"type": "note_on", "time": 22, "note": 70, "velocity": 94, "channel": 0}, {"type": "note_off", "time": 54, "note": 70, "velocity": 94, "channel": 0}, {"type": "note_on", "time": 10, "note": 68, "velocity": 112, "channel": 0}, {"type": "note_off", "time": 66, "note": 68, "velocity": 112, "channel": 0}, {"type": "note_on", "time": 19, "note": 66, "velocity": 113, "channel": 0}, {"type": "note_off", "time": 85, "note": 66, "velocity": 113, "channel": 0}, {"type": "note_on", "time": 125, "note": 72, "velocity": 101, "channel": 0}, {"type": "note_off", "time": 70, "note": 72, "velocity": 101, "channel": 0}, {"type": "note_on", "time": 13, "note": 75, "velocity": 121, "channel": 0}, {"type": "note_off", "time": 99, "note": 75, "velocity": 121, "channel": 0}, {"type": "note_on", "time": 12, "note": 72, "velocity": 112, "channel": 0}, {"type": "note_off", "time": 83, "note": 72, "velocity": 112, "channel": 0}, {"type": "note_on", "time": 6, "note": 70, "velocity": 99, "channel": 0}, {"type": "note_off", "time": 40, "note": 70, "velocity": 99, "channel": 0}, {"type": "note_on", "time": 14, "note": 68, "velocity": 99, "channel": 0}, {"type": "note_off", "time": 40, "note": 68, "velocity": 99, "channel": 0}, {"type": "note_on", "time": 38, "note": 64, "velocity": 108, "channel": 0}, {"type": "note_off", "time": 45, "note": 64, "velocity": 108, "channel": 0}, {"type": "note_on", "time": 24, "note": 71, "velocity": 105, "channel": 0}, {"type": "note_off", "time": 26, "note": 71, "velocity": 105, "channel": 0}, {"type": "note_on", "time": 7, "note": 72, "velocity": 117, "channel": 0}, {"type": "note_off", "time": 59, "note": 72, "velocity": 117, "channel": 0}, {"type": "note_on", "time": 12, "note": 71, "velocity": 114, "channel": 0}, {"type": "note_off", "time": 66, "note": 71, "velocity": 114, "channel": 0}, {"type": "note_on", "time": 12, "note": 69, "velocity": 112, "channel": 0}, {"type": "note_off", "time": 74, "note": 69, "velocity": 112, "channel": 0}, {"type": "note_on", "time": 33, "note": 64, "velocity": 98, "channel": 0}, {"type": "note_off", "time": 291, "note": 64, "velocity": 98, "channel": 0}, {"type": "note_on", "time": 97, "note": 62, "velocity": 119, "channel": 0}, {"type": "note_off", "time": 72, "note": 62, "velocity": 119, "channel": 0}, {"type": "note_on", "time": 6, "note": 63, "velocity": 113, "channel": 0}, {"type": "note_off", "time": 86, "note": 63, "velocity": 113, "channel": 0}, {"type": "note_on", "time": 11, "note": 65, "velocity": 114, "channel": 0}, {"type": "note_off", "time": 60, "note": 65, "velocity": 114, "channel": 0}, {"type": "note_on", "time": 14, "note": 66, "velocity": 107, "channel": 0}, {"type": "note_off", "time": 87, "note": 66, "velocity": 107, "channel": 0}, {"type": "note_on", "time": 10, "note": 68, "velocity": 108, "channel": 0}, {"type": "note_off", "time": 81, "note": 68, "velocity": 108, "channel": 0}, {"type": "note_on", "time": 15, "note": 70, "velocity": 120, "channel": 0}, {"type": "note_off", "time": 93, "note": 70, "velocity": 120, "channel": 0}, {"type": "note_on", "time": 19, "note": 73, "velocity": 122, "channel": 0}, {"type": "note_off", "time": 67, "note": 73, "velocity": 122, "channel": 0}, {"type": "note_on", "time": 6, "note": 72, "velocity": 108, "channel": 0}, {"type": "note_off", "time": 109, "note": 72, "velocity": 108, "channel": 0}, {"type": "note_on", "time": 10, "note": 70, "velocity": 120, "channel": 0}, {"type": "note_off", "time": 58, "note": 70, "velocity": 120, "channel": 0}, {"type": "note_on", "time": 17, "note": 69, "velocity": 106, "channel": 0}, {"type": "note_off", "time": 36, "note": 69, "velocity": 106, "channel": 0}, {"type": "note_on", "time": 13, "note": 70, "velocity": 112, "channel": 0}, {"type": "note_off", "time": 38, "note": 70, "velocity": 112, "channel": 0}, {"type": "note_on", "time": 5, "note": 69, "velocity": 116, "channel": 0}, {"type": "note_off", "time": 62, "note": 69, "velocity": 116, "channel": 0}, {"type": "note_on", "time": 27, "note": 66, "velocity": 110, "channel": 0}, {"type": "note_off", "time": 140, "note": 66, "velocity": 110, "channel": 0}, {"type": "note_on", "time": 367, "note": 60, "velocity": 107, "channel": 0}, {"type": "note_off", "time": 58, "note": 60, "velocity": 107, "channel": 0}, {"type": "note_on", "time": 45, "note": 65, "velocity": 116, "channel": 0}, {"type": "note_off", "time": 67, "note": 65, "velocity": 116, "channel": 0}, {"type": "note_on", "time": 17, "note": 67, "velocity": 118, "channel": 0}, {"type": "note_off", "time": 76, "note": 67, "velocity": 118, "channel": 0}, {"type": "note_on", "time": 6, "note": 68, "velocity": 104, "channel": 0}, {"type": "note_off", "time": 85, "note": 68, "velocity": 104, "channel": 0}, {"type": "note_on", "time": 7, "note": 70, "velocity": 119, "channel": 0}, {"type": "note_off", "time": 74, "note": 70, "velocity": 119, "channel": 0}, {"type": "note_on", "time": 16, "note": 69, "velocity": 117, "channel": 0}, {"type": "note_off", "time": 65, "note": 69, "velocity": 117, "channel": 0}, {"type": "note_on", "time": 10, "note": 67, "velocity": 113, "channel": 0}, {"type": "note_off", "time": 87, "note": 67, "velocity": 113, "channel": 0}, {"type": "note_on", "time": 11, "note": 66, "velocity": 114, "channel": 0}, {"type": "note_off", "time": 70, "note": 66, "velocity": 114, "channel": 0}, {"type": "note_on", "time": 792, "note": 76, "velocity": 125, "channel": 0}, {"type": "note_off", "time": 37, "note": 76, "velocity": 125, "channel": 0}, {"type": "note_on", "time": 7, "note": 77, "velocity": 117, "channel": 0}, {"type": "note_off", "time": 125, "note": 77, "velocity": 117, "channel": 0}, {"type": "note_on", "time": 52, "note": 72, "velocity": 120, "channel": 0}, {"type": "note_off", "time": 80, "note": 72, "velocity": 120, "channel": 0}, {"type": "note_on", "time": 87, "note": 75, "velocity": 123, "channel": 0}, {"type": "note_off", "time": 67, "note": 75, "velocity": 123, "channel": 0}, {"type": "note_on", "time": 20, "note": 73, "velocity": 120, "channel": 0}, {"type": "note_off", "time": 52, "note": 73, "velocity": 120, "channel": 0}, {"type": "note_on", "time": 49, "note": 65, "velocity": 106, "channel": 0}, {"type": "note_off", "time": 49, "note": 65, "velocity": 106, "channel": 0}, {"type": "note_on", "time": 46, "note": 68, "velocity": 118, "channel": 0}, {"type": "note_off", "time": 54, "note": 68, "velocity": 118, "channel": 0}, {"type": "note_on", "time": 19, "note": 72, "velocity": 118, "channel": 0}, {"type": "note_off", "time": 55, "note": 72, "velocity": 118, "channel": 0}, {"type": "note_on", "time": 8, "note": 73, "velocity": 108, "channel": 0}, {"type": "note_off", "time": 54, "note": 73, "velocity": 108, "channel": 0}, {"type": "note_on", "time": 36, "note": 68, "velocity": 118, "channel": 0}, {"type": "note_off", "time": 62, "note": 68, "velocity": 118, "channel": 0}, {"type": "note_on", "time": 24, "note": 67, "velocity": 107, "channel": 0}, {"type": "note_off", "time": 80, "note": 67, "velocity": 107, "channel": 0}, {"type": "note_on", "time": 23, "note": 65, "velocity": 116, "channel": 0}, {"type": "note_off", "time": 68, "note": 65, "velocity": 116, "channel": 0}, {"type": "note_on", "time": 10, "note": 64, "velocity": 113, "channel": 0}, {"type": "note_off", "time": 58, "note": 64, "velocity": 113, "channel": 0}, {"type": "note_on", "time": 59, "note": 73, "velocity": 119, "channel": 0}, {"type": "note_off", "time": 67, "note": 73, "velocity": 119, "channel": 0}, {"type": "note_on", "time": 20, "note": 70, "velocity": 98, "channel": 0}, {"type": "note_off", "time": 73, "note": 70, "velocity": 98, "channel": 0}, {"type": "note_on", "time": 13, "note": 71, "velocity": 115, "channel": 0}, {"type": "note_off", "time": 58, "note": 71, "velocity": 115, "channel": 0}, {"type": "note_on", "time": 24, "note": 72, "velocity": 119, "channel": 0}, {"type": "note_off", "time": 106, "note": 72, "velocity": 119, "channel": 0}, {"type": "note_on", "time": 20, "note": 64, "velocity": 111, "channel": 0}, {"type": "note_off", "time": 90, "note": 64, "velocity": 111, "channel": 0}, {"type": "note_on", "time": 14, "note": 65, "velocity": 106, "channel": 0}, {"type": "note_off", "time": 55, "note": 65, "velocity": 106, "channel": 0}, {"type": "note_on", "time": 29, "note": 69, "velocity": 121, "channel": 0}, {"type": "note_off", "time": 74, "note": 69, "velocity": 121, "channel": 0}, {"type": "note_on", "time": 8, "note": 70, "velocity": 115, "channel": 0}, {"type": "note_off", "time": 80, "note": 70, "velocity": 115, "channel": 0}, {"type": "note_on", "time": 20, "note": 69, "velocity": 118, "channel": 0}, {"type": "note_off", "time": 73, "note": 69, "velocity": 118, "channel": 0}, {"type": "note_on", "time": 21, "note": 63, "velocity": 113, "channel": 0}, {"type": "note_off", "time": 54, "note": 63, "velocity": 113, "channel": 0}, {"type": "note_on", "time": 16, "note": 64, "velocity": 96, "channel": 0}, {"type": "note_off", "time": 73, "note": 64, "velocity": 96, "channel": 0}, {"type": "note_on", "time": 39, "note": 67, "velocity": 114, "channel": 0}, {"type": "note_off", "time": 86, "note": 67, "velocity": 114, "channel": 0}, {"type": "note_on", "time": 26, "note": 64, "velocity": 103, "channel": 0}, {"type": "note_off", "time": 71, "note": 64, "velocity": 103, "channel": 0}, {"type": "note_on", "time": 10, "note": 65, "velocity": 102, "channel": 0}, {"type": "note_off", "time": 67, "note": 65, "velocity": 102, "channel": 0}, {"type": "note_on", "time": 32, "note": 67, "velocity": 121, "channel": 0}, {"type": "note_off", "time": 67, "note": 67, "velocity": 121, "channel": 0}, {"type": "note_on", "time": 21, "note": 69, "velocity": 117, "channel": 0}, {"type": "note_off", "time": 40, "note": 69, "velocity": 117, "channel": 0}, {"type": "note_on", "time": 13, "note": 73, "velocity": 101, "channel": 0}, {"type": "note_off", "time": 40, "note": 73, "velocity": 101, "channel": 0}, {"type": "note_on", "time": 20, "note": 72, "velocity": 120, "channel": 0}, {"type": "note_off", "time": 64, "note": 72, "velocity": 120, "channel": 0}, {"type": "note_on", "time": 14, "note": 74, "velocity": 123, "channel": 0}, {"type": "note_off", "time": 87, "note": 74, "velocity": 123, "channel": 0}, {"type": "note_on", "time": 20, "note": 77, "velocity": 122, "channel": 0}, {"type": "note_off", "time": 76, "note": 77, "velocity": 122, "channel": 0}, {"type": "note_on", "time": 20, "note": 79, "velocity": 123, "channel": 0}, {"type": "note_off", "time": 95, "note": 79, "velocity": 123, "channel": 0}, {"type": "note_on", "time": 17, "note": 80, "velocity": 117, "channel": 0}, {"type": "note_off", "time": 244, "note": 80, "velocity": 117, "channel": 0}, {"type": "note_on", "time": 19, "note": 74, "velocity": 120, "channel": 0}, {"type": "note_off", "time": 181, "note": 74, "velocity": 120, "channel": 0}, {"type": "note_on", "time": 1293, "note": 79, "velocity": 119, "channel": 0}, {"type": "note_off", "time": 36, "note": 79, "velocity": 119, "channel": 0}, {"type": "note_on", "time": 4, "note": 77, "velocity": 117, "channel": 0}, {"type": "note_off", "time": 40, "note": 77, "velocity": 117, "channel": 0}, {"type": "note_on", "time": 4, "note": 76, "velocity": 119, "channel": 0}, {"type": "note_off", "time": 90, "note": 76, "velocity": 119, "channel": 0}, {"type": "note_on", "time": 21, "note": 74, "velocity": 118, "channel": 0}, {"type": "note_off", "time": 68, "note": 74, "velocity": 118, "channel": 0}, {"type": "note_on", "time": 6, "note": 72, "velocity": 118, "channel": 0}, {"type": "note_off", "time": 59, "note": 72, "velocity": 118, "channel": 0}, {"type": "note_on", "time": 62, "note": 69, "velocity": 118, "channel": 0}, {"type": "note_off", "time": 42, "note": 69, "velocity": 118, "channel": 0}, {"type": "note_on", "time": 9, "note": 70, "velocity": 117, "channel": 0}, {"type": "note_off", "time": 120, "note": 70, "velocity": 117, "channel": 0}, {"type": "note_on", "time": 107, "note": 67, "velocity": 114, "channel": 0}, {"type": "note_off", "time": 84, "note": 67, "velocity": 114, "channel": 0}, {"type": "note_on", "time": 10, "note": 70, "velocity": 112, "channel": 0}, {"type": "note_off", "time": 87, "note": 70, "velocity": 112, "channel": 0}, {"type": "note_on", "time": 2, "note": 69, "velocity": 117, "channel": 0}, {"type": "note_off", "time": 76, "note": 69, "velocity": 117, "channel": 0}, {"type": "note_on", "time": 4, "note": 67, "velocity": 117, "channel": 0}, {"type": "note_off", "time": 68, "note": 67, "velocity": 117, "channel": 0}, {"type": "note_on", "time": 7, "note": 66, "velocity": 114, "channel": 0}, {"type": "note_off", "time": 89, "note": 66, "velocity": 114, "channel": 0}, {"type": "note_on", "time": 26, "note": 64, "velocity": 104, "channel": 0}, {"type": "note_off", "time": 64, "note": 64, "velocity": 104, "channel": 0}, {"type": "note_on", "time": 16, "note": 65, "velocity": 107, "channel": 0}, {"type": "note_off", "time": 92, "note": 65, "velocity": 107, "channel": 0}, {"type": "note_on", "time": 21, "note": 67, "velocity": 118, "channel": 0}, {"type": "note_off", "time": 76, "note": 67, "velocity": 118, "channel": 0}, {"type": "note_on", "time": 38, "note": 69, "velocity": 100, "channel": 0}, {"type": "note_off", "time": 77, "note": 69, "velocity": 100, "channel": 0}, {"type": "note_on", "time": 11, "note": 72, "velocity": 118, "channel": 0}, {"type": "note_off", "time": 78, "note": 72, "velocity": 118, "channel": 0}, {"type": "note_on", "time": 20, "note": 74, "velocity": 115, "channel": 0}, {"type": "note_off", "time": 84, "note": 74, "velocity": 115, "channel": 0}, {"type": "note_on", "time": 86, "note": 77, "velocity": 121, "channel": 0}, {"type": "note_off", "time": 92, "note": 77, "velocity": 121, "channel": 0}, {"type": "note_on", "time": 19, "note": 75, "velocity": 121, "channel": 0}, {"type": "note_off", "time": 87, "note": 75, "velocity": 121, "channel": 0}, {"type": "note_on", "time": 8, "note": 76, "velocity": 115, "channel": 0}, {"type": "note_off", "time": 62, "note": 76, "velocity": 115, "channel": 0}, {"type": "note_on", "time": 5, "note": 75, "velocity": 109, "channel": 0}, {"type": "note_off", "time": 23, "note": 75, "velocity": 109, "channel": 0}, {"type": "note_on", "time": 17, "note": 72, "velocity": 114, "channel": 0}, {"type": "note_off", "time": 64, "note": 72, "velocity": 114, "channel": 0}, {"type": "note_on", "time": 24, "note": 69, "velocity": 113, "channel": 0}, {"type": "note_off", "time": 84, "note": 69, "velocity": 113, "channel": 0}, {"type": "note_on", "time": 64, "note": 68, "velocity": 94, "channel": 0}, {"type": "note_off", "time": 26, "note": 68, "velocity": 94, "channel": 0}, {"type": "note_on", "time": 26, "note": 73, "velocity": 118, "channel": 0}, {"type": "note_off", "time": 45, "note": 73, "velocity": 118, "channel": 0}, {"type": "note_on", "time": 17, "note": 74, "velocity": 114, "channel": 0}, {"type": "note_off", "time": 169, "note": 74, "velocity": 114, "channel": 0}, {"type": "note_on", "time": 166, "note": 69, "velocity": 103, "channel": 0}, {"type": "note_off", "time": 76, "note": 69, "velocity": 103, "channel": 0}, {"type": "note_on", "time": 17, "note": 70, "velocity": 100, "channel": 0}, {"type": "note_off", "time": 61, "note": 70, "velocity": 100, "channel": 0}, {"type": "note_on", "time": 7, "note": 71, "velocity": 109, "channel": 0}, {"type": "note_off", "time": 90, "note": 71, "velocity": 109, "channel": 0}, {"type": "note_on", "time": 1, "note": 72, "velocity": 110, "channel": 0}, {"type": "note_off", "time": 80, "note": 72, "velocity": 110, "channel": 0}, {"type": "note_on", "time": 4, "note": 73, "velocity": 119, "channel": 0}, {"type": "note_off", "time": 81, "note": 73, "velocity": 119, "channel": 0}, {"type": "note_on", "time": 23, "note": 74, "velocity": 122, "channel": 0}, {"type": "note_off", "time": 86, "note": 74, "velocity": 122, "channel": 0}, {"type": "note_on", "time": 11, "note": 70, "velocity": 109, "channel": 0}, {"type": "note_off", "time": 76, "note": 70, "velocity": 109, "channel": 0}, {"type": "note_on", "time": 38, "note": 67, "velocity": 112, "channel": 0}, {"type": "note_off", "time": 51, "note": 67, "velocity": 112, "channel": 0}, {"type": "note_on", "time": 33, "note": 72, "velocity": 123, "channel": 0}, {"type": "note_off", "time": 93, "note": 72, "velocity": 123, "channel": 0}, {"type": "note_on", "time": 11, "note": 70, "velocity": 119, "channel": 0}, {"type": "note_off", "time": 73, "note": 70, "velocity": 119, "channel": 0}, {"type": "note_on", "time": 122, "note": 65, "velocity": 113, "channel": 0}, {"type": "note_off", "time": 65, "note": 65, "velocity": 113, "channel": 0}, {"type": "note_on", "time": 10, "note": 69, "velocity": 120, "channel": 0}, {"type": "note_off", "time": 83, "note": 69, "velocity": 120, "channel": 0}, {"type": "note_on", "time": 7, "note": 68, "velocity": 119, "channel": 0}, {"type": "note_off", "time": 86, "note": 68, "velocity": 119, "channel": 0}, {"type": "note_on", "time": 8, "note": 67, "velocity": 116, "channel": 0}, {"type": "note_off", "time": 81, "note": 67, "velocity": 116, "channel": 0}, {"type": "note_on", "time": 7, "note": 66, "velocity": 113, "channel": 0}, {"type": "note_off", "time": 90, "note": 66, "velocity": 113, "channel": 0}, {"type": "note_on", "time": 11, "note": 65, "velocity": 116, "channel": 0}, {"type": "note_off", "time": 103, "note": 65, "velocity": 116, "channel": 0}, {"type": "note_on", "time": 2, "note": 67, "velocity": 111, "channel": 0}, {"type": "note_off", "time": 65, "note": 67, "velocity": 111, "channel": 0}, {"type": "note_on", "time": 14, "note": 68, "velocity": 114, "channel": 0}, {"type": "note_off", "time": 74, "note": 68, "velocity": 114, "channel": 0}, {"type": "note_on", "time": 43, "note": 70, "velocity": 119, "channel": 0}, {"type": "note_off", "time": 49, "note": 70, "velocity": 119, "channel": 0}, {"type": "note_on", "time": 4, "note": 72, "velocity": 112, "channel": 0}, {"type": "note_off", "time": 43, "note": 72, "velocity": 112, "channel": 0}, {"type": "note_on", "time": 1, "note": 74, "velocity": 116, "channel": 0}, {"type": "note_off", "time": 45, "note": 74, "velocity": 116, "channel": 0}, {"type": "note_on", "time": 11, "note": 72, "velocity": 115, "channel": 0}, {"type": "note_off", "time": 76, "note": 72, "velocity": 115, "channel": 0}, {"type": "note_on", "time": 19, "note": 70, "velocity": 117, "channel": 0}, {"type": "note_off", "time": 100, "note": 70, "velocity": 117, "channel": 0}, {"type": "note_on", "time": 19, "note": 67, "velocity": 103, "channel": 0}, {"type": "note_off", "time": 70, "note": 67, "velocity": 103, "channel": 0}, {"type": "note_on", "time": 14, "note": 68, "velocity": 119, "channel": 0}, {"type": "note_off", "time": 84, "note": 68, "velocity": 119, "channel": 0}, {"type": "note_on", "time": 30, "note": 65, "velocity": 108, "channel": 0}, {"type": "note_off", "time": 61, "note": 65, "velocity": 108, "channel": 0}, {"type": "note_on", "time": 115, "note": 63, "velocity": 100, "channel": 0}, {"type": "note_off", "time": 57, "note": 63, "velocity": 100, "channel": 0}, {"type": "note_on", "time": 7, "note": 67, "velocity": 117, "channel": 0}, {"type": "note_off", "time": 117, "note": 67, "velocity": 117, "channel": 0}, {"type": "note_on", "time": 20, "note": 65, "velocity": 114, "channel": 0}, {"type": "note_off", "time": 61, "note": 65, "velocity": 114, "channel": 0}, {"type": "note_on", "time": 144, "note": 62, "velocity": 108, "channel": 0}, {"type": "note_off", "time": 83, "note": 62, "velocity": 108, "channel": 0}, {"type": "note_on", "time": 11, "note": 64, "velocity": 108, "channel": 0}, {"type": "note_off", "time": 77, "note": 64, "velocity": 108, "channel": 0}, {"type": "note_on", "time": 21, "note": 67, "velocity": 111, "channel": 0}, {"type": "note_off", "time": 49, "note": 67, "velocity": 111, "channel": 0}, {"type": "note_on", "time": 8, "note": 69, "velocity": 115, "channel": 0}, {"type": "note_off", "time": 95, "note": 69, "velocity": 115, "channel": 0}, {"type": "note_on", "time": 7, "note": 70, "velocity": 121, "channel": 0}, {"type": "note_off", "time": 99, "note": 70, "velocity": 121, "channel": 0}, {"type": "note_on", "time": 500, "note": 69, "velocity": 119, "channel": 0}, {"type": "note_off", "time": 43, "note": 69, "velocity": 119, "channel": 0}, {"type": "note_on", "time": 4, "note": 68, "velocity": 124, "channel": 0}, {"type": "note_off", "time": 40, "note": 68, "velocity": 124, "channel": 0}, {"type": "note_on", "time": 10, "note": 67, "velocity": 117, "channel": 0}, {"type": "note_off", "time": 43, "note": 67, "velocity": 117, "channel": 0}, {"type": "note_on", "time": 57, "note": 65, "velocity": 115, "channel": 0}, {"type": "note_off", "time": 38, "note": 65, "velocity": 115, "channel": 0}, {"type": "note_on", "time": 1, "note": 64, "velocity": 113, "channel": 0}, {"type": "note_off", "time": 96, "note": 64, "velocity": 113, "channel": 0}, {"type": "note_on", "time": 36, "note": 67, "velocity": 107, "channel": 0}, {"type": "note_off", "time": 42, "note": 67, "velocity": 107, "channel": 0}, {"type": "note_on", "time": 24, "note": 74, "velocity": 117, "channel": 0}, {"type": "note_off", "time": 73, "note": 74, "velocity": 117, "channel": 0}, {"type": "note_on", "time": 43, "note": 77, "velocity": 126, "channel": 0}, {"type": "note_off", "time": 74, "note": 77, "velocity": 126, "channel": 0}, {"type": "note_on", "time": 2, "note": 76, "velocity": 123, "channel": 0}, {"type": "note_off", "time": 27, "note": 76, "velocity": 123, "channel": 0}, {"type": "note_on", "time": 14, "note": 77, "velocity": 117, "channel": 0}, {"type": "note_off", "time": 29, "note": 77, "velocity": 117, "channel": 0}, {"type": "note_on", "time": 0, "note": 76, "velocity": 117, "channel": 0}, {"type": "note_off", "time": 52, "note": 76, "velocity": 117, "channel": 0}, {"type": "note_on", "time": 8, "note": 74, "velocity": 119, "channel": 0}, {"type": "note_off", "time": 46, "note": 74, "velocity": 119, "channel": 0}, {"type": "note_on", "time": 7, "note": 73, "velocity": 122, "channel": 0}, {"type": "note_off", "time": 103, "note": 73, "velocity": 122, "channel": 0}, {"type": "note_on", "time": 11, "note": 71, "velocity": 112, "channel": 0}, {"type": "note_off", "time": 74, "note": 71, "velocity": 112, "channel": 0}, {"type": "note_on", "time": 7, "note": 72, "velocity": 117, "channel": 0}, {"type": "note_off", "time": 86, "note": 72, "velocity": 117, "channel": 0}, {"type": "note_on", "time": 11, "note": 68, "velocity": 117, "channel": 0}, {"type": "note_off", "time": 92, "note": 68, "velocity": 117, "channel": 0}, {"type": "note_on", "time": 16, "note": 64, "velocity": 116, "channel": 0}, {"type": "note_off", "time": 86, "note": 64, "velocity": 116, "channel": 0}, {"type": "note_on", "time": 23, "note": 60, "velocity": 106, "channel": 0}, {"type": "note_off", "time": 62, "note": 60, "velocity": 106, "channel": 0}, {"type": "note_on", "time": 23, "note": 68, "velocity": 109, "channel": 0}, {"type": "note_off", "time": 33, "note": 68, "velocity": 109, "channel": 0}, {"type": "note_on", "time": 7, "note": 70, "velocity": 119, "channel": 0}, {"type": "note_off", "time": 43, "note": 70, "velocity": 119, "channel": 0}, {"type": "note_on", "time": 11, "note": 69, "velocity": 116, "channel": 0}, {"type": "note_off", "time": 29, "note": 69, "velocity": 116, "channel": 0}, {"type": "note_on", "time": 16, "note": 68, "velocity": 117, "channel": 0}, {"type": "note_off", "time": 40, "note": 68, "velocity": 117, "channel": 0}, {"type": "note_on", "time": 2, "note": 66, "velocity": 119, "channel": 0}, {"type": "note_off", "time": 109, "note": 66, "velocity": 119, "channel": 0}, {"type": "note_on", "time": 10, "note": 65, "velocity": 119, "channel": 0}, {"type": "note_off", "time": 84, "note": 65, "velocity": 119, "channel": 0}, {"type": "note_on", "time": 11, "note": 64, "velocity": 114, "channel": 0}, {"type": "note_off", "time": 77, "note": 64, "velocity": 114, "channel": 0}, {"type": "note_on", "time": 14, "note": 68, "velocity": 103, "channel": 0}, {"type": "note_off", "time": 36, "note": 68, "velocity": 103, "channel": 0}, {"type": "note_on", "time": 7, "note": 70, "velocity": 100, "channel": 0}, {"type": "note_off", "time": 35, "note": 70, "velocity": 100, "channel": 0}, {"type": "note_on", "time": 16, "note": 75, "velocity": 122, "channel": 0}, {"type": "note_off", "time": 111, "note": 75, "velocity": 122, "channel": 0}, {"type": "note_on", "time": 11, "note": 73, "velocity": 121, "channel": 0}, {"type": "note_off", "time": 67, "note": 73, "velocity": 121, "channel": 0}, {"type": "note_on", "time": 23, "note": 72, "velocity": 117, "channel": 0}, {"type": "note_off", "time": 29, "note": 72, "velocity": 117, "channel": 0}, {"type": "note_on", "time": 13, "note": 74, "velocity": 114, "channel": 0}, {"type": "note_off", "time": 42, "note": 74, "velocity": 114, "channel": 0}, {"type": "note_on", "time": 17, "note": 72, "velocity": 118, "channel": 0}, {"type": "note_off", "time": 40, "note": 72, "velocity": 118, "channel": 0}, {"type": "note_on", "time": 20, "note": 69, "velocity": 112, "channel": 0}, {"type": "note_off", "time": 96, "note": 69, "velocity": 112, "channel": 0}, {"type": "note_on", "time": 90, "note": 72, "velocity": 107, "channel": 0}, {"type": "note_off", "time": 187, "note": 72, "velocity": 107, "channel": 0}, {"type": "note_on", "time": 561, "note": 72, "velocity": 119, "channel": 0}, {"type": "note_off", "time": 39, "note": 72, "velocity": 119, "channel": 0}, {"type": "note_on", "time": 1, "note": 73, "velocity": 120, "channel": 0}, {"type": "note_off", "time": 45, "note": 73, "velocity": 120, "channel": 0}, {"type": "note_on", "time": 4, "note": 74, "velocity": 112, "channel": 0}, {"type": "note_off", "time": 28, "note": 74, "velocity": 112, "channel": 0}, {"type": "note_on", "time": 3, "note": 75, "velocity": 123, "channel": 0}, {"type": "note_off", "time": 40, "note": 75, "velocity": 123, "channel": 0}, {"type": "note_on", "time": 1, "note": 77, "velocity": 115, "channel": 0}, {"type": "note_off", "time": 19, "note": 77, "velocity": 115, "channel": 0}, {"type": "note_on", "time": 7, "note": 76, "velocity": 121, "channel": 0}, {"type": "note_off", "time": 20, "note": 76, "velocity": 121, "channel": 0}, {"type": "note_on", "time": 5, "note": 77, "velocity": 123, "channel": 0}, {"type": "note_off", "time": 21, "note": 77, "velocity": 123, "channel": 0}, {"type": "note_on", "time": 10, "note": 76, "velocity": 119, "channel": 0}, {"type": "note_off", "time": 57, "note": 76, "velocity": 119, "channel": 0}, {"type": "note_on", "time": 13, "note": 75, "velocity": 113, "channel": 0}, {"type": "note_off", "time": 59, "note": 75, "velocity": 113, "channel": 0}, {"type": "note_on", "time": 13, "note": 73, "velocity": 119, "channel": 0}, {"type": "note_off", "time": 48, "note": 73, "velocity": 119, "channel": 0}, {"type": "note_on", "time": 3, "note": 72, "velocity": 107, "channel": 0}, {"type": "note_off", "time": 34, "note": 72, "velocity": 107, "channel": 0}, {"type": "note_on", "time": 0, "note": 75, "velocity": 118, "channel": 0}, {"type": "note_off", "time": 28, "note": 75, "velocity": 118, "channel": 0}, {"type": "note_on", "time": 8, "note": 74, "velocity": 120, "channel": 0}, {"type": "note_off", "time": 31, "note": 74, "velocity": 120, "channel": 0}, {"type": "note_on", "time": 10, "note": 72, "velocity": 118, "channel": 0}, {"type": "note_off", "time": 47, "note": 72, "velocity": 118, "channel": 0}, {"type": "note_on", "time": 6, "note": 68, "velocity": 108, "channel": 0}, {"type": "note_off", "time": 54, "note": 68, "velocity": 108, "channel": 0}, {"type": "note_on", "time": 10, "note": 69, "velocity": 114, "channel": 0}, {"type": "note_off", "time": 65, "note": 69, "velocity": 114, "channel": 0}, {"type": "note_on", "time": 46, "note": 72, "velocity": 123, "channel": 0}, {"type": "note_off", "time": 84, "note": 72, "velocity": 123, "channel": 0}, {"type": "note_on", "time": 16, "note": 68, "velocity": 118, "channel": 0}, {"type": "note_off", "time": 65, "note": 68, "velocity": 118, "channel": 0}, {"type": "note_on", "time": 3, "note": 67, "velocity": 109, "channel": 0}, {"type": "note_off", "time": 99, "note": 67, "velocity": 109, "channel": 0}, {"type": "note_on", "time": 10, "note": 65, "velocity": 116, "channel": 0}, {"type": "note_off", "time": 57, "note": 65, "velocity": 116, "channel": 0}, {"type": "note_on", "time": 39, "note": 70, "velocity": 118, "channel": 0}, {"type": "note_off", "time": 96, "note": 70, "velocity": 118, "channel": 0}, {"type": "note_on", "time": 13, "note": 68, "velocity": 110, "channel": 0}, {"type": "note_off", "time": 24, "note": 68, "velocity": 110, "channel": 0}, {"type": "note_on", "time": 7, "note": 70, "velocity": 112, "channel": 0}, {"type": "note_off", "time": 34, "note": 70, "velocity": 112, "channel": 0}, {"type": "note_on", "time": 11, "note": 68, "velocity": 113, "channel": 0}, {"type": "note_off", "time": 65, "note": 68, "velocity": 113, "channel": 0}, {"type": "note_on", "time": 29, "note": 65, "velocity": 109, "channel": 0}, {"type": "note_off", "time": 276, "note": 65, "velocity": 109, "channel": 0}, {"type": "note_on", "time": 106, "note": 65, "velocity": 114, "channel": 0}, {"type": "note_off", "time": 55, "note": 65, "velocity": 114, "channel": 0}, {"type": "note_on", "time": 8, "note": 68, "velocity": 111, "channel": 0}, {"type": "note_off", "time": 58, "note": 68, "velocity": 111, "channel": 0}, {"type": "note_on", "time": 4, "note": 69, "velocity": 107, "channel": 0}, {"type": "note_off", "time": 41, "note": 69, "velocity": 107, "channel": 0}, {"type": "note_on", "time": 4, "note": 68, "velocity": 110, "channel": 0}, {"type": "note_off", "time": 52, "note": 68, "velocity": 110, "channel": 0}, {"type": "note_on", "time": 17, "note": 67, "velocity": 110, "channel": 0}, {"type": "note_off", "time": 71, "note": 67, "velocity": 110, "channel": 0}, {"type": "note_on", "time": 25, "note": 65, "velocity": 112, "channel": 0}, {"type": "note_off", "time": 97, "note": 65, "velocity": 112, "channel": 0}, {"type": "note_on", "time": 7, "note": 64, "velocity": 106, "channel": 0}, {"type": "note_off", "time": 76, "note": 64, "velocity": 106, "channel": 0}, {"type": "note_on", "time": 42, "note": 67, "velocity": 115, "channel": 0}, {"type": "note_off", "time": 69, "note": 67, "velocity": 115, "channel": 0}, {"type": "note_on", "time": 0, "note": 70, "velocity": 118, "channel": 0}, {"type": "note_off", "time": 82, "note": 70, "velocity": 118, "channel": 0}, {"type": "note_on", "time": 39, "note": 72, "velocity": 100, "channel": 0}, {"type": "note_off", "time": 60, "note": 72, "velocity": 100, "channel": 0}, {"type": "note_on", "time": 45, "note": 73, "velocity": 123, "channel": 0}, {"type": "note_off", "time": 74, "note": 73, "velocity": 123, "channel": 0}, {"type": "note_on", "time": 0, "note": 75, "velocity": 116, "channel": 0}, {"type": "note_off", "time": 35, "note": 75, "velocity": 116, "channel": 0}, {"type": "note_on", "time": 0, "note": 74, "velocity": 118, "channel": 0}, {"type": "note_off", "time": 44, "note": 74, "velocity": 118, "channel": 0}, {"type": "note_on", "time": 7, "note": 72, "velocity": 120, "channel": 0}, {"type": "note_off", "time": 63, "note": 72, "velocity": 120, "channel": 0}, {"type": "note_on", "time": 65, "note": 70, "velocity": 112, "channel": 0}, {"type": "note_off", "time": 43, "note": 70, "velocity": 112, "channel": 0}, {"type": "note_on", "time": 7, "note": 69, "velocity": 105, "channel": 0}, {"type": "note_off", "time": 75, "note": 69, "velocity": 105, "channel": 0}, {"type": "note_on", "time": 122, "note": 79, "velocity": 120, "channel": 0}, {"type": "note_off", "time": 117, "note": 79, "velocity": 120, "channel": 0}, {"type": "note_on", "time": 83, "note": 77, "velocity": 121, "channel": 0}, {"type": "note_off", "time": 105, "note": 77, "velocity": 121, "channel": 0}, {"type": "note_on", "time": 106, "note": 72, "velocity": 114, "channel": 0}, {"type": "note_off", "time": 85, "note": 72, "velocity": 114, "channel": 0}, {"type": "note_on", "time": 6, "note": 74, "velocity": 116, "channel": 0}, {"type": "note_off", "time": 69, "note": 74, "velocity": 116, "channel": 0}, {"type": "note_on", "time": 2, "note": 75, "velocity": 118, "channel": 0}, {"type": "note_off", "time": 118, "note": 75, "velocity": 118, "channel": 0}, {"type": "note_on", "time": 93, "note": 73, "velocity": 122, "channel": 0}, {"type": "note_off", "time": 93, "note": 73, "velocity": 122, "channel": 0}, {"type": "note_on", "time": 5, "note": 72, "velocity": 111, "channel": 0}, {"type": "note_off", "time": 26, "note": 72, "velocity": 111, "channel": 0}, {"type": "note_on", "time": 4, "note": 73, "velocity": 119, "channel": 0}, {"type": "note_off", "time": 21, "note": 73, "velocity": 119, "channel": 0}, {"type": "note_on", "time": 16, "note": 72, "velocity": 113, "channel": 0}, {"type": "note_off", "time": 70, "note": 72, "velocity": 113, "channel": 0}, {"type": "note_on", "time": 35, "note": 70, "velocity": 116, "channel": 0}, {"type": "note_off", "time": 64, "note": 70, "velocity": 116, "channel": 0}, {"type": "note_on", "time": 20, "note": 68, "velocity": 113, "channel": 0}, {"type": "note_off", "time": 77, "note": 68, "velocity": 113, "channel": 0}, {"type": "note_on", "time": 17, "note": 67, "velocity": 113, "channel": 0}, {"type": "note_off", "time": 70, "note": 67, "velocity": 113, "channel": 0}, {"type": "note_on", "time": 29, "note": 65, "velocity": 114, "channel": 0}, {"type": "note_off", "time": 70, "note": 65, "velocity": 114, "channel": 0}, {"type": "note_on", "time": 87, "note": 63, "velocity": 109, "channel": 0}, {"type": "note_off", "time": 111, "note": 63, "velocity": 109, "channel": 0}, {"type": "note_on", "time": 10, "note": 65, "velocity": 110, "channel": 0}, {"type": "note_off", "time": 59, "note": 65, "velocity": 110, "channel": 0}, {"type": "note_on", "time": 51, "note": 60, "velocity": 106, "channel": 0}, {"type": "note_off", "time": 81, "note": 60, "velocity": 106, "channel": 0}, {"type": "note_on", "time": 10, "note": 61, "velocity": 106, "channel": 0}, {"type": "note_off", "time": 69, "note": 61, "velocity": 106, "channel": 0}, {"type": "note_on", "time": 21, "note": 64, "velocity": 110, "channel": 0}, {"type": "note_off", "time": 95, "note": 64, "velocity": 110, "channel": 0}, {"type": "note_on", "time": 13, "note": 68, "velocity": 96, "channel": 0}, {"type": "note_off", "time": 43, "note": 68, "velocity": 96, "channel": 0}, {"type": "note_on", "time": 26, "note": 72, "velocity": 120, "channel": 0}, {"type": "note_off", "time": 84, "note": 72, "velocity": 120, "channel": 0}, {"type": "note_on", "time": 10, "note": 70, "velocity": 121, "channel": 0}, {"type": "note_off", "time": 71, "note": 70, "velocity": 121, "channel": 0}, {"type": "note_on", "time": 4, "note": 68, "velocity": 109, "channel": 0}, {"type": "note_off", "time": 33, "note": 68, "velocity": 109, "channel": 0}, {"type": "note_on", "time": 0, "note": 70, "velocity": 104, "channel": 0}, {"type": "note_off", "time": 30, "note": 70, "velocity": 104, "channel": 0}, {"type": "note_on", "time": 1, "note": 67, "velocity": 104, "channel": 0}, {"type": "note_off", "time": 52, "note": 67, "velocity": 104, "channel": 0}, {"type": "note_on", "time": 3, "note": 65, "velocity": 117, "channel": 0}, {"type": "note_off", "time": 55, "note": 65, "velocity": 117, "channel": 0}, {"type": "note_on", "time": 29, "note": 62, "velocity": 115, "channel": 0}, {"type": "note_off", "time": 86, "note": 62, "velocity": 115, "channel": 0}, {"type": "note_on", "time": 36, "note": 65, "velocity": 113, "channel": 0}, {"type": "note_off", "time": 71, "note": 65, "velocity": 113, "channel": 0}, {"type": "note_on", "time": 34, "note": 69, "velocity": 105, "channel": 0}, {"type": "note_off", "time": 61, "note": 69, "velocity": 105, "channel": 0}, {"type": "note_on", "time": 22, "note": 72, "velocity": 110, "channel": 0}, {"type": "note_off", "time": 57, "note": 72, "velocity": 110, "channel": 0}, {"type": "note_on", "time": 20, "note": 76, "velocity": 125, "channel": 0}, {"type": "note_off", "time": 87, "note": 76, "velocity": 125, "channel": 0}, {"type": "note_on", "time": 10, "note": 75, "velocity": 119, "channel": 0}, {"type": "note_off", "time": 71, "note": 75, "velocity": 119, "channel": 0}, {"type": "note_on", "time": 11, "note": 74, "velocity": 121, "channel": 0}, {"type": "note_off", "time": 80, "note": 74, "velocity": 121, "channel": 0}, {"type": "note_on", "time": 11, "note": 73, "velocity": 123, "channel": 0}, {"type": "note_off", "time": 62, "note": 73, "velocity": 123, "channel": 0}, {"type": "note_on", "time": 17, "note": 72, "velocity": 10, "channel": 0}, {"type": "note_off", "time": 84, "note": 72, "velocity": 10, "channel": 0}, {"type": "note_on", "time": 52, "note": 77, "velocity": 122, "channel": 0}, {"type": "note_off", "time": 166, "note": 77, "velocity": 122, "channel": 0}, {"type": "note_on", "time": 19, "note": 75, "velocity": 115, "channel": 0}, {"type": "note_off", "time": 32, "note": 75, "velocity": 115, "channel": 0}, {"type": "note_on", "time": 10, "note": 76, "velocity": 112, "channel": 0}, {"type": "note_off", "time": 17, "note": 76, "velocity": 112, "channel": 0}, {"type": "note_on", "time": 11, "note": 75, "velocity": 120, "channel": 0}, {"type": "note_off", "time": 74, "note": 75, "velocity": 120, "channel": 0}, {"type": "note_on", "time": 26, "note": 73, "velocity": 124, "channel": 0}, {"type": "note_off", "time": 81, "note": 73, "velocity": 124, "channel": 0}, {"type": "note_on", "time": 17, "note": 71, "velocity": 121, "channel": 0}, {"type": "note_off", "time": 73, "note": 71, "velocity": 121, "channel": 0}, {"type": "note_on", "time": 26, "note": 69, "velocity": 120, "channel": 0}, {"type": "note_off", "time": 65, "note": 69, "velocity": 120, "channel": 0}, {"type": "note_on", "time": 19, "note": 68, "velocity": 113, "channel": 0}, {"type": "note_off", "time": 24, "note": 68, "velocity": 113, "channel": 0}, {"type": "note_on", "time": 13, "note": 69, "velocity": 109, "channel": 0}, {"type": "note_off", "time": 14, "note": 69, "velocity": 109, "channel": 0}, {"type": "note_on", "time": 33, "note": 68, "velocity": 114, "channel": 0}, {"type": "note_off", "time": 51, "note": 68, "velocity": 114, "channel": 0}, {"type": "note_on", "time": 61, "note": 66, "velocity": 115, "channel": 0}, {"type": "note_off", "time": 94, "note": 66, "velocity": 115, "channel": 0}, {"type": "note_on", "time": 70, "note": 68, "velocity": 118, "channel": 0}, {"type": "note_off", "time": 138, "note": 68, "velocity": 118, "channel": 0}, {"type": "note_on", "time": 21, "note": 66, "velocity": 120, "channel": 0}, {"type": "note_off", "time": 83, "note": 66, "velocity": 120, "channel": 0}, {"type": "note_on", "time": 536, "note": 80, "velocity": 122, "channel": 0}, {"type": "note_off", "time": 23, "note": 80, "velocity": 122, "channel": 0}, {"type": "note_on", "time": 6, "note": 81, "velocity": 122, "channel": 0}, {"type": "note_off", "time": 40, "note": 81, "velocity": 122, "channel": 0}, {"type": "note_on", "time": 3, "note": 80, "velocity": 119, "channel": 0}, {"type": "note_off", "time": 62, "note": 80, "velocity": 119, "channel": 0}, {"type": "note_on", "time": 5, "note": 79, "velocity": 122, "channel": 0}, {"type": "note_off", "time": 84, "note": 79, "velocity": 122, "channel": 0}, {"type": "note_on", "time": 62, "note": 77, "velocity": 122, "channel": 0}, {"type": "note_off", "time": 40, "note": 77, "velocity": 122, "channel": 0}, {"type": "note_on", "time": 7, "note": 76, "velocity": 123, "channel": 0}, {"type": "note_off", "time": 28, "note": 76, "velocity": 123, "channel": 0}, {"type": "note_on", "time": 3, "note": 77, "velocity": 117, "channel": 0}, {"type": "note_off", "time": 20, "note": 77, "velocity": 117, "channel": 0}, {"type": "note_on", "time": 17, "note": 76, "velocity": 120, "channel": 0}, {"type": "note_off", "time": 33, "note": 76, "velocity": 120, "channel": 0}, {"type": "note_on", "time": 13, "note": 74, "velocity": 121, "channel": 0}, {"type": "note_off", "time": 67, "note": 74, "velocity": 121, "channel": 0}, {"type": "note_on", "time": 5, "note": 73, "velocity": 122, "channel": 0}, {"type": "note_off", "time": 102, "note": 73, "velocity": 122, "channel": 0}, {"type": "note_on", "time": 8, "note": 71, "velocity": 120, "channel": 0}, {"type": "note_off", "time": 71, "note": 71, "velocity": 120, "channel": 0}, {"type": "note_on", "time": 17, "note": 69, "velocity": 118, "channel": 0}, {"type": "note_off", "time": 264, "note": 69, "velocity": 118, "channel": 0}, {"type": "note_on", "time": 39, "note": 67, "velocity": 112, "channel": 0}, {"type": "note_off", "time": 64, "note": 67, "velocity": 112, "channel": 0}, {"type": "note_on", "time": 5, "note": 68, "velocity": 122, "channel": 0}, {"type": "note_off", "time": 62, "note": 68, "velocity": 122, "channel": 0}, {"type": "note_on", "time": 8, "note": 70, "velocity": 116, "channel": 0}, {"type": "note_off", "time": 24, "note": 70, "velocity": 116, "channel": 0}, {"type": "note_on", "time": 8, "note": 68, "velocity": 117, "channel": 0}, {"type": "note_off", "time": 51, "note": 68, "velocity": 117, "channel": 0}, {"type": "note_on", "time": 16, "note": 65, "velocity": 118, "channel": 0}, {"type": "note_off", "time": 90, "note": 65, "velocity": 118, "channel": 0}, {"type": "note_on", "time": 46, "note": 60, "velocity": 103, "channel": 0}, {"type": "note_off", "time": 61, "note": 60, "velocity": 103, "channel": 0}, {"type": "note_on", "time": 10, "note": 63, "velocity": 109, "channel": 0}, {"type": "note_off", "time": 222, "note": 63, "velocity": 109, "channel": 0}, {"type": "note_on", "time": 191, "note": 60, "velocity": 103, "channel": 0}, {"type": "note_off", "time": 26, "note": 60, "velocity": 103, "channel": 0}, {"type": "note_on", "time": 17, "note": 64, "velocity": 119, "channel": 0}, {"type": "note_off", "time": 42, "note": 64, "velocity": 119, "channel": 0}, {"type": "note_on", "time": 30, "note": 68, "velocity": 115, "channel": 0}, {"type": "note_off", "time": 39, "note": 68, "velocity": 115, "channel": 0}, {"type": "note_on", "time": 25, "note": 70, "velocity": 116, "channel": 0}, {"type": "note_off", "time": 78, "note": 70, "velocity": 116, "channel": 0}, {"type": "note_on", "time": 6, "note": 72, "velocity": 124, "channel": 0}, {"type": "note_off", "time": 73, "note": 72, "velocity": 124, "channel": 0}, {"type": "note_on", "time": 14, "note": 73, "velocity": 117, "channel": 0}, {"type": "note_off", "time": 83, "note": 73, "velocity": 117, "channel": 0}, {"type": "note_on", "time": 14, "note": 74, "velocity": 107, "channel": 0}, {"type": "note_off", "time": 45, "note": 74, "velocity": 107, "channel": 0}, {"type": "note_on", "time": 19, "note": 72, "velocity": 118, "channel": 0}, {"type": "note_off", "time": 84, "note": 72, "velocity": 118, "channel": 0}, {"type": "note_on", "time": 30, "note": 70, "velocity": 113, "channel": 0}, {"type": "note_off", "time": 64, "note": 70, "velocity": 113, "channel": 0}, {"type": "note_on", "time": 10, "note": 69, "velocity": 102, "channel": 0}, {"type": "note_off", "time": 81, "note": 69, "velocity": 102, "channel": 0}, {"type": "note_on", "time": 33, "note": 72, "velocity": 100, "channel": 0}, {"type": "note_off", "time": 67, "note": 72, "velocity": 100, "channel": 0}, {"type": "note_on", "time": 13, "note": 79, "velocity": 123, "channel": 0}, {"type": "note_off", "time": 116, "note": 79, "velocity": 123, "channel": 0}, {"type": "note_on", "time": 98, "note": 77, "velocity": 124, "channel": 0}, {"type": "note_off", "time": 136, "note": 77, "velocity": 124, "channel": 0}, {"type": "note_on", "time": 165, "note": 76, "velocity": 122, "channel": 0}, {"type": "note_off", "time": 259, "note": 76, "velocity": 122, "channel": 0}, {"type": "note_on", "time": 10, "note": 72, "velocity": 109, "channel": 0}, {"type": "note_off", "time": 65, "note": 72, "velocity": 109, "channel": 0}, {"type": "note_on", "time": 115, "note": 74, "velocity": 112, "channel": 0}, {"type": "note_off", "time": 188, "note": 74, "velocity": 112, "channel": 0}, {"type": "note_on", "time": 24, "note": 72, "velocity": 109, "channel": 0}, {"type": "note_off", "time": 74, "note": 72, "velocity": 109, "channel": 0}, {"type": "note_on", "time": 105, "note": 80, "velocity": 121, "channel": 0}, {"type": "note_off", "time": 61, "note": 80, "velocity": 121, "channel": 0}, {"type": "note_on", "time": 3, "note": 79, "velocity": 120, "channel": 0}, {"type": "note_off", "time": 41, "note": 79, "velocity": 120, "channel": 0}, {"type": "note_on", "time": 3, "note": 80, "velocity": 122, "channel": 0}, {"type": "note_off", "time": 66, "note": 80, "velocity": 122, "channel": 0}, {"type": "note_on", "time": 1, "note": 79, "velocity": 120, "channel": 0}, {"type": "note_off", "time": 73, "note": 79, "velocity": 120, "channel": 0}, {"type": "note_on", "time": 65, "note": 77, "velocity": 105, "channel": 0}, {"type": "note_off", "time": 50, "note": 77, "velocity": 105, "channel": 0}, {"type": "note_on", "time": 52, "note": 80, "velocity": 125, "channel": 0}, {"type": "note_off", "time": 113, "note": 80, "velocity": 125, "channel": 0}, {"type": "note_on", "time": 17, "note": 72, "velocity": 116, "channel": 0}, {"type": "note_off", "time": 124, "note": 72, "velocity": 116, "channel": 0}, {"type": "note_on", "time": 834, "note": 86, "velocity": 123, "channel": 0}, {"type": "note_off", "time": 57, "note": 86, "velocity": 123, "channel": 0}, {"type": "note_on", "time": 0, "note": 84, "velocity": 121, "channel": 0}, {"type": "note_off", "time": 37, "note": 84, "velocity": 121, "channel": 0}, {"type": "note_on", "time": 8, "note": 84, "velocity": 125, "channel": 0}, {"type": "note_off", "time": 38, "note": 84, "velocity": 125, "channel": 0}, {"type": "note_on", "time": 4, "note": 83, "velocity": 122, "channel": 0}, {"type": "note_off", "time": 76, "note": 83, "velocity": 122, "channel": 0}, {"type": "note_on", "time": 34, "note": 82, "velocity": 121, "channel": 0}, {"type": "note_off", "time": 83, "note": 82, "velocity": 121, "channel": 0}, {"type": "note_on", "time": 6, "note": 81, "velocity": 119, "channel": 0}, {"type": "note_off", "time": 85, "note": 81, "velocity": 119, "channel": 0}, {"type": "note_on", "time": 40, "note": 77, "velocity": 116, "channel": 0}, {"type": "note_off", "time": 58, "note": 77, "velocity": 116, "channel": 0}, {"type": "note_on", "time": 16, "note": 77, "velocity": 122, "channel": 0}, {"type": "note_off", "time": 94, "note": 77, "velocity": 122, "channel": 0}, {"type": "note_on", "time": 10, "note": 76, "velocity": 119, "channel": 0}, {"type": "note_off", "time": 84, "note": 76, "velocity": 119, "channel": 0}, {"type": "note_on", "time": 121, "note": 67, "velocity": 106, "channel": 0}, {"type": "note_off", "time": 74, "note": 67, "velocity": 106, "channel": 0}, {"type": "note_on", "time": 12, "note": 70, "velocity": 115, "channel": 0}, {"type": "note_off", "time": 73, "note": 70, "velocity": 115, "channel": 0}, {"type": "note_on", "time": 22, "note": 72, "velocity": 120, "channel": 0}, {"type": "note_off", "time": 83, "note": 72, "velocity": 120, "channel": 0}, {"type": "note_on", "time": 3, "note": 73, "velocity": 118, "channel": 0}, {"type": "note_off", "time": 88, "note": 73, "velocity": 118, "channel": 0}, {"type": "note_on", "time": 6, "note": 75, "velocity": 112, "channel": 0}, {"type": "note_off", "time": 42, "note": 75, "velocity": 112, "channel": 0}, {"type": "note_on", "time": 6, "note": 74, "velocity": 117, "channel": 0}, {"type": "note_off", "time": 46, "note": 74, "velocity": 117, "channel": 0}, {"type": "note_on", "time": 0, "note": 72, "velocity": 119, "channel": 0}, {"type": "note_off", "time": 80, "note": 72, "velocity": 119, "channel": 0}, {"type": "note_on", "time": 26, "note": 70, "velocity": 113, "channel": 0}, {"type": "note_off", "time": 71, "note": 70, "velocity": 113, "channel": 0}, {"type": "note_on", "time": 11, "note": 69, "velocity": 106, "channel": 0}, {"type": "note_off", "time": 43, "note": 69, "velocity": 106, "channel": 0}, {"type": "note_on", "time": 2, "note": 70, "velocity": 110, "channel": 0}, {"type": "note_off", "time": 29, "note": 70, "velocity": 110, "channel": 0}, {"type": "note_on", "time": 10, "note": 69, "velocity": 106, "channel": 0}, {"type": "note_off", "time": 36, "note": 69, "velocity": 106, "channel": 0}, {"type": "note_on", "time": 20, "note": 71, "velocity": 115, "channel": 0}, {"type": "note_off", "time": 52, "note": 71, "velocity": 115, "channel": 0}, {"type": "note_on", "time": 5, "note": 72, "velocity": 114, "channel": 0}, {"type": "note_off", "time": 109, "note": 72, "velocity": 114, "channel": 0}, {"type": "note_on", "time": 87, "note": 73, "velocity": 120, "channel": 0}, {"type": "note_off", "time": 86, "note": 73, "velocity": 120, "channel": 0}, {"type": "note_on", "time": 11, "note": 74, "velocity": 114, "channel": 0}, {"type": "note_off", "time": 75, "note": 74, "velocity": 114, "channel": 0}, {"type": "note_on", "time": 6, "note": 70, "velocity": 115, "channel": 0}, {"type": "note_off", "time": 81, "note": 70, "velocity": 115, "channel": 0}, {"type": "note_on", "time": 17, "note": 68, "velocity": 83, "channel": 0}, {"type": "note_off", "time": 71, "note": 68, "velocity": 83, "channel": 0}, {"type": "note_on", "time": 32, "note": 72, "velocity": 120, "channel": 0}, {"type": "note_off", "time": 86, "note": 72, "velocity": 120, "channel": 0}, {"type": "note_on", "time": 14, "note": 70, "velocity": 117, "channel": 0}, {"type": "note_off", "time": 62, "note": 70, "velocity": 117, "channel": 0}, {"type": "note_on", "time": 154, "note": 65, "velocity": 111, "channel": 0}, {"type": "note_off", "time": 35, "note": 65, "velocity": 111, "channel": 0}, {"type": "note_on", "time": 10, "note": 68, "velocity": 112, "channel": 0}, {"type": "note_off", "time": 94, "note": 68, "velocity": 112, "channel": 0}, {"type": "note_on", "time": 6, "note": 75, "velocity": 108, "channel": 0}, {"type": "note_off", "time": 30, "note": 75, "velocity": 108, "channel": 0}, {"type": "note_on", "time": 8, "note": 70, "velocity": 102, "channel": 0}, {"type": "note_off", "time": 29, "note": 70, "velocity": 102, "channel": 0}, {"type": "note_on", "time": 16, "note": 68, "velocity": 115, "channel": 0}, {"type": "note_off", "time": 99, "note": 68, "velocity": 115, "channel": 0}, {"type": "note_on", "time": 32, "note": 67, "velocity": 114, "channel": 0}, {"type": "note_off", "time": 93, "note": 67, "velocity": 114, "channel": 0}, {"type": "note_on", "time": 344, "note": 71, "velocity": 118, "channel": 0}, {"type": "note_off", "time": 49, "note": 71, "velocity": 118, "channel": 0}, {"type": "note_on", "time": 9, "note": 72, "velocity": 104, "channel": 0}, {"type": "note_off", "time": 56, "note": 72, "velocity": 104, "channel": 0}, {"type": "note_on", "time": 12, "note": 74, "velocity": 112, "channel": 0}, {"type": "note_off", "time": 60, "note": 74, "velocity": 112, "channel": 0}, {"type": "note_on", "time": 16, "note": 77, "velocity": 122, "channel": 0}, {"type": "note_off", "time": 140, "note": 77, "velocity": 122, "channel": 0}, {"type": "note_on", "time": 3, "note": 80, "velocity": 122, "channel": 0}, {"type": "note_off", "time": 102, "note": 80, "velocity": 122, "channel": 0}, {"type": "note_on", "time": 85, "note": 81, "velocity": 121, "channel": 0}, {"type": "note_off", "time": 114, "note": 81, "velocity": 121, "channel": 0}, {"type": "note_on", "time": 97, "note": 83, "velocity": 118, "channel": 0}, {"type": "note_off", "time": 134, "note": 83, "velocity": 118, "channel": 0}, {"type": "note_on", "time": 52, "note": 84, "velocity": 120, "channel": 0}, {"type": "note_off", "time": 143, "note": 84, "velocity": 120, "channel": 0}, {"type": "note_on", "time": 112, "note": 88, "velocity": 123, "channel": 0}, {"type": "note_off", "time": 86, "note": 88, "velocity": 123, "channel": 0}, {"type": "note_on", "time": 3, "note": 89, "velocity": 122, "channel": 0}, {"type": "note_off", "time": 558, "note": 89, "velocity": 122, "channel": 0}, {"type": "note_on", "time": 14, "note": 88, "velocity": 120, "channel": 0}, {"type": "note_off", "time": 125, "note": 88, "velocity": 120, "channel": 0}, {"type": "note_on", "time": 84, "note": 87, "velocity": 120, "channel": 0}, {"type": "note_off", "time": 36, "note": 87, "velocity": 120, "channel": 0}, {"type": "note_on", "time": 5, "note": 86, "velocity": 115, "channel": 0}, {"type": "note_off", "time": 45, "note": 86, "velocity": 115, "channel": 0}, {"type": "note_on", "time": 68, "note": 85, "velocity": 125, "channel": 0}, {"type": "note_off", "time": 100, "note": 85, "velocity": 125, "channel": 0}, {"type": "note_on", "time": 10, "note": 82, "velocity": 121, "channel": 0}, {"type": "note_off", "time": 116, "note": 82, "velocity": 121, "channel": 0}, {"type": "note_on", "time": 710, "note": 82, "velocity": 120, "channel": 0}, {"type": "note_off", "time": 59, "note": 82, "velocity": 120, "channel": 0}, {"type": "note_on", "time": 9, "note": 81, "velocity": 119, "channel": 0}, {"type": "note_off", "time": 66, "note": 81, "velocity": 119, "channel": 0}, {"type": "note_on", "time": 1, "note": 80, "velocity": 111, "channel": 0}, {"type": "note_off", "time": 35, "note": 80, "velocity": 111, "channel": 0}, {"type": "note_on", "time": 37, "note": 77, "velocity": 123, "channel": 0}, {"type": "note_off", "time": 74, "note": 77, "velocity": 123, "channel": 0}, {"type": "note_on", "time": 5, "note": 76, "velocity": 119, "channel": 0}, {"type": "note_off", "time": 81, "note": 76, "velocity": 119, "channel": 0}, {"type": "note_on", "time": 16, "note": 75, "velocity": 111, "channel": 0}, {"type": "note_off", "time": 72, "note": 75, "velocity": 111, "channel": 0}, {"type": "note_on", "time": 3, "note": 74, "velocity": 116, "channel": 0}, {"type": "note_off", "time": 83, "note": 74, "velocity": 116, "channel": 0}, {"type": "note_on", "time": 13, "note": 73, "velocity": 116, "channel": 0}, {"type": "note_off", "time": 75, "note": 73, "velocity": 116, "channel": 0}, {"type": "note_on", "time": 6, "note": 72, "velocity": 115, "channel": 0}, {"type": "note_off", "time": 98, "note": 72, "velocity": 115, "channel": 0}, {"type": "note_on", "time": 13, "note": 70, "velocity": 118, "channel": 0}, {"type": "note_off", "time": 77, "note": 70, "velocity": 118, "channel": 0}, {"type": "note_on", "time": 21, "note": 67, "velocity": 102, "channel": 0}, {"type": "note_off", "time": 68, "note": 67, "velocity": 102, "channel": 0}, {"type": "note_on", "time": 23, "note": 68, "velocity": 117, "channel": 0}, {"type": "note_off", "time": 65, "note": 68, "velocity": 117, "channel": 0}, {"type": "note_on", "time": 5, "note": 69, "velocity": 112, "channel": 0}, {"type": "note_off", "time": 26, "note": 69, "velocity": 112, "channel": 0}, {"type": "note_on", "time": 7, "note": 70, "velocity": 95, "channel": 0}, {"type": "note_off", "time": 35, "note": 70, "velocity": 95, "channel": 0}, {"type": "note_on", "time": 2, "note": 69, "velocity": 103, "channel": 0}, {"type": "note_off", "time": 23, "note": 69, "velocity": 103, "channel": 0}, {"type": "note_on", "time": 0, "note": 68, "velocity": 96, "channel": 0}, {"type": "note_off", "time": 21, "note": 68, "velocity": 96, "channel": 0}, {"type": "note_on", "time": 8, "note": 72, "velocity": 119, "channel": 0}, {"type": "note_off", "time": 70, "note": 72, "velocity": 119, "channel": 0}, {"type": "note_on", "time": 38, "note": 67, "velocity": 111, "channel": 0}, {"type": "note_off", "time": 73, "note": 67, "velocity": 111, "channel": 0}, {"type": "note_on", "time": 39, "note": 64, "velocity": 94, "channel": 0}, {"type": "note_off", "time": 56, "note": 64, "velocity": 94, "channel": 0}, {"type": "note_on", "time": 8, "note": 65, "velocity": 107, "channel": 0}, {"type": "note_off", "time": 66, "note": 65, "velocity": 107, "channel": 0}, {"type": "note_on", "time": 46, "note": 67, "velocity": 117, "channel": 0}, {"type": "note_off", "time": 60, "note": 67, "velocity": 117, "channel": 0}, {"type": "note_on", "time": 28, "note": 69, "velocity": 103, "channel": 0}, {"type": "note_off", "time": 33, "note": 69, "velocity": 103, "channel": 0}, {"type": "note_on", "time": 41, "note": 72, "velocity": 121, "channel": 0}, {"type": "note_off", "time": 98, "note": 72, "velocity": 121, "channel": 0}, {"type": "note_on", "time": 11, "note": 68, "velocity": 92, "channel": 0}, {"type": "note_off", "time": 77, "note": 68, "velocity": 92, "channel": 0}, {"type": "note_on", "time": 4, "note": 70, "velocity": 108, "channel": 0}, {"type": "note_off", "time": 68, "note": 70, "velocity": 108, "channel": 0}, {"type": "note_on", "time": 27, "note": 77, "velocity": 118, "channel": 0}, {"type": "note_off", "time": 75, "note": 77, "velocity": 118, "channel": 0}, {"type": "note_on", "time": 21, "note": 80, "velocity": 119, "channel": 0}, {"type": "note_off", "time": 68, "note": 80, "velocity": 119, "channel": 0}, {"type": "note_on", "time": 28, "note": 83, "velocity": 113, "channel": 0}, {"type": "note_off", "time": 33, "note": 83, "velocity": 113, "channel": 0}, {"type": "note_on", "time": 0, "note": 84, "velocity": 119, "channel": 0}, {"type": "note_off", "time": 68, "note": 84, "velocity": 119, "channel": 0}, {"type": "note_on", "time": 3, "note": 83, "velocity": 113, "channel": 0}, {"type": "note_off", "time": 31, "note": 83, "velocity": 113, "channel": 0}, {"type": "note_on", "time": 2, "note": 81, "velocity": 115, "channel": 0}, {"type": "note_off", "time": 34, "note": 81, "velocity": 115, "channel": 0}, {"type": "note_on", "time": 11, "note": 79, "velocity": 116, "channel": 0}, {"type": "note_off", "time": 87, "note": 79, "velocity": 116, "channel": 0}, {"type": "note_on", "time": 21, "note": 77, "velocity": 117, "channel": 0}, {"type": "note_off", "time": 68, "note": 77, "velocity": 117, "channel": 0}, {"type": "note_on", "time": 10, "note": 76, "velocity": 115, "channel": 0}, {"type": "note_off", "time": 95, "note": 76, "velocity": 115, "channel": 0}, {"type": "note_on", "time": 17, "note": 75, "velocity": 121, "channel": 0}, {"type": "note_off", "time": 66, "note": 75, "velocity": 121, "channel": 0}, {"type": "note_on", "time": 10, "note": 74, "velocity": 114, "channel": 0}, {"type": "note_off", "time": 86, "note": 74, "velocity": 114, "channel": 0}, {"type": "note_on", "time": 13, "note": 73, "velocity": 117, "channel": 0}, {"type": "note_off", "time": 67, "note": 73, "velocity": 117, "channel": 0}, {"type": "note_on", "time": 8, "note": 72, "velocity": 117, "channel": 0}, {"type": "note_off", "time": 98, "note": 72, "velocity": 117, "channel": 0}, {"type": "note_on", "time": 35, "note": 64, "velocity": 102, "channel": 0}, {"type": "note_off", "time": 70, "note": 64, "velocity": 102, "channel": 0}, {"type": "note_on", "time": 16, "note": 65, "velocity": 99, "channel": 0}, {"type": "note_off", "time": 81, "note": 65, "velocity": 99, "channel": 0}, {"type": "note_on", "time": 14, "note": 71, "velocity": 111, "channel": 0}, {"type": "note_off", "time": 39, "note": 71, "velocity": 111, "channel": 0}, {"type": "note_on", "time": 15, "note": 69, "velocity": 116, "channel": 0}, {"type": "note_off", "time": 102, "note": 69, "velocity": 116, "channel": 0}, {"type": "note_on", "time": 18, "note": 67, "velocity": 118, "channel": 0}, {"type": "note_off", "time": 83, "note": 67, "velocity": 118, "channel": 0}, {"type": "note_on", "time": 43, "note": 65, "velocity": 95, "channel": 0}, {"type": "note_off", "time": 83, "note": 65, "velocity": 95, "channel": 0}, {"type": "note_on", "time": 57, "note": 67, "velocity": 112, "channel": 0}, {"type": "note_off", "time": 86, "note": 67, "velocity": 112, "channel": 0}, {"type": "note_on", "time": 32, "note": 64, "velocity": 108, "channel": 0}, {"type": "note_off", "time": 64, "note": 64, "velocity": 108, "channel": 0}, {"type": "note_on", "time": 16, "note": 65, "velocity": 102, "channel": 0}, {"type": "note_off", "time": 74, "note": 65, "velocity": 102, "channel": 0}, {"type": "note_on", "time": 13, "note": 67, "velocity": 119, "channel": 0}, {"type": "note_off", "time": 80, "note": 67, "velocity": 119, "channel": 0}, {"type": "note_on", "time": 4, "note": 68, "velocity": 116, "channel": 0}, {"type": "note_off", "time": 67, "note": 68, "velocity": 116, "channel": 0}, {"type": "note_on", "time": 13, "note": 69, "velocity": 108, "channel": 0}, {"type": "note_off", "time": 32, "note": 69, "velocity": 108, "channel": 0}, {"type": "note_on", "time": 10, "note": 68, "velocity": 119, "channel": 0}, {"type": "note_off", "time": 74, "note": 68, "velocity": 119, "channel": 0}, {"type": "note_on", "time": 16, "note": 67, "velocity": 112, "channel": 0}, {"type": "note_off", "time": 58, "note": 67, "velocity": 112, "channel": 0}, {"type": "note_on", "time": 58, "note": 65, "velocity": 104, "channel": 0}, {"type": "note_off", "time": 70, "note": 65, "velocity": 104, "channel": 0}, {"type": "note_on", "time": 11, "note": 68, "velocity": 117, "channel": 0}, {"type": "note_off", "time": 27, "note": 68, "velocity": 117, "channel": 0}, {"type": "note_on", "time": 11, "note": 69, "velocity": 104, "channel": 0}, {"type": "note_off", "time": 27, "note": 69, "velocity": 104, "channel": 0}, {"type": "note_on", "time": 16, "note": 68, "velocity": 118, "channel": 0}, {"type": "note_off", "time": 57, "note": 68, "velocity": 118, "channel": 0}, {"type": "note_on", "time": 15, "note": 67, "velocity": 113, "channel": 0}, {"type": "note_off", "time": 106, "note": 67, "velocity": 113, "channel": 0}, {"type": "note_on", "time": 27, "note": 65, "velocity": 97, "channel": 0}, {"type": "note_off", "time": 44, "note": 65, "velocity": 97, "channel": 0}, {"type": "note_on", "time": 7, "note": 68, "velocity": 104, "channel": 0}, {"type": "note_off", "time": 45, "note": 68, "velocity": 104, "channel": 0}, {"type": "note_on", "time": 7, "note": 69, "velocity": 104, "channel": 0}, {"type": "note_off", "time": 39, "note": 69, "velocity": 104, "channel": 0}, {"type": "note_on", "time": 20, "note": 68, "velocity": 119, "channel": 0}, {"type": "note_off", "time": 68, "note": 68, "velocity": 119, "channel": 0}, {"type": "note_on", "time": 8, "note": 67, "velocity": 109, "channel": 0}, {"type": "note_off", "time": 108, "note": 67, "velocity": 109, "channel": 0}, {"type": "note_on", "time": 92, "note": 72, "velocity": 118, "channel": 0}, {"type": "note_off", "time": 58, "note": 72, "velocity": 118, "channel": 0}, {"type": "note_on", "time": 2, "note": 74, "velocity": 118, "channel": 0}, {"type": "note_off", "time": 58, "note": 74, "velocity": 118, "channel": 0}, {"type": "note_on", "time": 6, "note": 72, "velocity": 118, "channel": 0}, {"type": "note_off", "time": 64, "note": 72, "velocity": 118, "channel": 0}, {"type": "note_on", "time": 3, "note": 71, "velocity": 113, "channel": 0}, {"type": "note_off", "time": 81, "note": 71, "velocity": 113, "channel": 0}, {"type": "note_on", "time": 32, "note": 69, "velocity": 104, "channel": 0}, {"type": "note_off", "time": 57, "note": 69, "velocity": 104, "channel": 0}, {"type": "note_on", "time": 8, "note": 70, "velocity": 118, "channel": 0}, {"type": "note_off", "time": 92, "note": 70, "velocity": 118, "channel": 0}, {"type": "note_on", "time": 42, "note": 61, "velocity": 94, "channel": 0}, {"type": "note_off", "time": 45, "note": 61, "velocity": 94, "channel": 0}, {"type": "note_on", "time": 35, "note": 65, "velocity": 107, "channel": 0}, {"type": "note_off", "time": 67, "note": 65, "velocity": 107, "channel": 0}, {"type": "note_on", "time": 36, "note": 69, "velocity": 117, "channel": 0}, {"type": "note_off", "time": 78, "note": 69, "velocity": 117, "channel": 0}, {"type": "note_on", "time": 10, "note": 67, "velocity": 96, "channel": 0}, {"type": "note_off", "time": 198, "note": 67, "velocity": 96, "channel": 0}, {"type": "note_on", "time": 1050, "note": 85, "velocity": 127, "channel": 0}, {"type": "note_off", "time": 86, "note": 85, "velocity": 127, "channel": 0}, {"type": "note_on", "time": 0, "note": 84, "velocity": 119, "channel": 0}, {"type": "note_off", "time": 38, "note": 84, "velocity": 119, "channel": 0}, {"type": "note_on", "time": 2, "note": 82, "velocity": 117, "channel": 0}, {"type": "note_off", "time": 61, "note": 82, "velocity": 117, "channel": 0}, {"type": "note_on", "time": 7, "note": 81, "velocity": 124, "channel": 0}, {"type": "note_off", "time": 83, "note": 81, "velocity": 124, "channel": 0}, {"type": "note_on", "time": 10, "note": 80, "velocity": 118, "channel": 0}, {"type": "note_off", "time": 80, "note": 80, "velocity": 118, "channel": 0}, {"type": "note_on", "time": 8, "note": 79, "velocity": 118, "channel": 0}, {"type": "note_off", "time": 78, "note": 79, "velocity": 118, "channel": 0}, {"type": "note_on", "time": 4, "note": 78, "velocity": 120, "channel": 0}, {"type": "note_off", "time": 97, "note": 78, "velocity": 120, "channel": 0}, {"type": "note_on", "time": 4, "note": 77, "velocity": 119, "channel": 0}, {"type": "note_off", "time": 47, "note": 77, "velocity": 119, "channel": 0}, {"type": "note_on", "time": 7, "note": 75, "velocity": 118, "channel": 0}, {"type": "note_off", "time": 105, "note": 75, "velocity": 118, "channel": 0}, {"type": "note_on", "time": 9, "note": 73, "velocity": 113, "channel": 0}, {"type": "note_off", "time": 78, "note": 73, "velocity": 113, "channel": 0}, {"type": "note_on", "time": 17, "note": 72, "velocity": 118, "channel": 0}, {"type": "note_off", "time": 77, "note": 72, "velocity": 118, "channel": 0}, {"type": "note_on", "time": 30, "note": 70, "velocity": 91, "channel": 0}, {"type": "note_off", "time": 58, "note": 70, "velocity": 91, "channel": 0}, {"type": "note_on", "time": 31, "note": 71, "velocity": 117, "channel": 0}, {"type": "note_off", "time": 90, "note": 71, "velocity": 117, "channel": 0}, {"type": "note_on", "time": 17, "note": 69, "velocity": 116, "channel": 0}, {"type": "note_off", "time": 52, "note": 69, "velocity": 116, "channel": 0}, {"type": "note_on", "time": 3, "note": 68, "velocity": 117, "channel": 0}, {"type": "note_off", "time": 98, "note": 68, "velocity": 117, "channel": 0}, {"type": "note_on", "time": 35, "note": 66, "velocity": 118, "channel": 0}, {"type": "note_off", "time": 67, "note": 66, "velocity": 118, "channel": 0}, {"type": "note_on", "time": 9, "note": 65, "velocity": 113, "channel": 0}, {"type": "note_off", "time": 43, "note": 65, "velocity": 113, "channel": 0}, {"type": "note_on", "time": 35, "note": 72, "velocity": 114, "channel": 0}, {"type": "note_off", "time": 38, "note": 72, "velocity": 114, "channel": 0}, {"type": "note_on", "time": 17, "note": 74, "velocity": 111, "channel": 0}, {"type": "note_off", "time": 51, "note": 74, "velocity": 111, "channel": 0}, {"type": "note_on", "time": 11, "note": 75, "velocity": 116, "channel": 0}, {"type": "note_off", "time": 159, "note": 75, "velocity": 116, "channel": 0}, {"type": "note_on", "time": 30, "note": 73, "velocity": 124, "channel": 0}, {"type": "note_off", "time": 90, "note": 73, "velocity": 124, "channel": 0}, {"type": "note_on", "time": 20, "note": 68, "velocity": 117, "channel": 0}, {"type": "note_off", "time": 75, "note": 68, "velocity": 117, "channel": 0}, {"type": "note_on", "time": 43, "note": 64, "velocity": 107, "channel": 0}, {"type": "note_off", "time": 65, "note": 64, "velocity": 107, "channel": 0}, {"type": "note_on", "time": 7, "note": 65, "velocity": 116, "channel": 0}, {"type": "note_off", "time": 64, "note": 65, "velocity": 116, "channel": 0}, {"type": "note_on", "time": 19, "note": 62, "velocity": 116, "channel": 0}, {"type": "note_off", "time": 90, "note": 62, "velocity": 116, "channel": 0}, {"type": "note_on", "time": 14, "note": 65, "velocity": 110, "channel": 0}, {"type": "note_off", "time": 74, "note": 65, "velocity": 110, "channel": 0}, {"type": "note_on", "time": 19, "note": 69, "velocity": 116, "channel": 0}, {"type": "note_off", "time": 71, "note": 69, "velocity": 116, "channel": 0}, {"type": "note_on", "time": 27, "note": 72, "velocity": 105, "channel": 0}, {"type": "note_off", "time": 72, "note": 72, "velocity": 105, "channel": 0}, {"type": "note_on", "time": 14, "note": 74, "velocity": 122, "channel": 0}, {"type": "note_off", "time": 97, "note": 74, "velocity": 122, "channel": 0}, {"type": "note_on", "time": 2, "note": 73, "velocity": 121, "channel": 0}, {"type": "note_off", "time": 47, "note": 73, "velocity": 121, "channel": 0}, {"type": "note_on", "time": 5, "note": 72, "velocity": 109, "channel": 0}, {"type": "note_off", "time": 33, "note": 72, "velocity": 109, "channel": 0}, {"type": "note_on", "time": 9, "note": 71, "velocity": 121, "channel": 0}, {"type": "note_off", "time": 96, "note": 71, "velocity": 121, "channel": 0}, {"type": "note_on", "time": 14, "note": 67, "velocity": 105, "channel": 0}, {"type": "note_off", "time": 66, "note": 67, "velocity": 105, "channel": 0}, {"type": "note_on", "time": 14, "note": 70, "velocity": 113, "channel": 0}, {"type": "note_off", "time": 87, "note": 70, "velocity": 113, "channel": 0}, {"type": "note_on", "time": 13, "note": 58, "velocity": 94, "channel": 0}, {"type": "note_off", "time": 56, "note": 58, "velocity": 94, "channel": 0}, {"type": "note_on", "time": 9, "note": 63, "velocity": 120, "channel": 0}, {"type": "note_off", "time": 108, "note": 63, "velocity": 120, "channel": 0}, {"type": "note_on", "time": 22, "note": 65, "velocity": 108, "channel": 0}, {"type": "note_off", "time": 58, "note": 65, "velocity": 108, "channel": 0}, {"type": "note_on", "time": 29, "note": 66, "velocity": 112, "channel": 0}, {"type": "note_off", "time": 116, "note": 66, "velocity": 112, "channel": 0}, {"type": "note_on", "time": 11, "note": 68, "velocity": 109, "channel": 0}, {"type": "note_off", "time": 60, "note": 68, "velocity": 109, "channel": 0}, {"type": "note_on", "time": 3, "note": 70, "velocity": 118, "channel": 0}, {"type": "note_off", "time": 89, "note": 70, "velocity": 118, "channel": 0}, {"type": "note_on", "time": 8, "note": 69, "velocity": 116, "channel": 0}, {"type": "note_off", "time": 149, "note": 69, "velocity": 116, "channel": 0}, {"type": "note_on", "time": 63, "note": 80, "velocity": 118, "channel": 0}, {"type": "note_off", "time": 416, "note": 80, "velocity": 118, "channel": 0}, {"type": "note_on", "time": 3, "note": 78, "velocity": 106, "channel": 0}, {"type": "note_off", "time": 20, "note": 78, "velocity": 106, "channel": 0}, {"type": "note_on", "time": 5, "note": 79, "velocity": 118, "channel": 0}, {"type": "note_off", "time": 43, "note": 79, "velocity": 118, "channel": 0}, {"type": "note_on", "time": 7, "note": 78, "velocity": 119, "channel": 0}, {"type": "note_off", "time": 62, "note": 78, "velocity": 119, "channel": 0}, {"type": "note_on", "time": 85, "note": 77, "velocity": 119, "channel": 0}, {"type": "note_off", "time": 61, "note": 77, "velocity": 119, "channel": 0}, {"type": "note_on", "time": 114, "note": 72, "velocity": 110, "channel": 0}, {"type": "note_off", "time": 74, "note": 72, "velocity": 110, "channel": 0}, {"type": "note_on", "time": 13, "note": 77, "velocity": 122, "channel": 0}, {"type": "note_off", "time": 89, "note": 77, "velocity": 122, "channel": 0}, {"type": "note_on", "time": 7, "note": 76, "velocity": 120, "channel": 0}, {"type": "note_off", "time": 91, "note": 76, "velocity": 120, "channel": 0}, {"type": "note_on", "time": 10, "note": 74, "velocity": 117, "channel": 0}, {"type": "note_off", "time": 69, "note": 74, "velocity": 117, "channel": 0}, {"type": "note_on", "time": 9, "note": 73, "velocity": 120, "channel": 0}, {"type": "note_off", "time": 88, "note": 73, "velocity": 120, "channel": 0}, {"type": "note_on", "time": 7, "note": 71, "velocity": 105, "channel": 0}, {"type": "note_off", "time": 70, "note": 71, "velocity": 105, "channel": 0}, {"type": "note_on", "time": 3, "note": 70, "velocity": 111, "channel": 0}, {"type": "note_off", "time": 87, "note": 70, "velocity": 111, "channel": 0}, {"type": "note_on", "time": 247, "note": 70, "velocity": 109, "channel": 0}, {"type": "note_off", "time": 54, "note": 70, "velocity": 109, "channel": 0}, {"type": "note_on", "time": 15, "note": 73, "velocity": 116, "channel": 0}, {"type": "note_off", "time": 193, "note": 73, "velocity": 116, "channel": 0}, {"type": "note_on", "time": 7, "note": 71, "velocity": 114, "channel": 0}, {"type": "note_off", "time": 29, "note": 71, "velocity": 114, "channel": 0}, {"type": "note_on", "time": 7, "note": 72, "velocity": 108, "channel": 0}, {"type": "note_off", "time": 32, "note": 72, "velocity": 108, "channel": 0}, {"type": "note_on", "time": 11, "note": 71, "velocity": 101, "channel": 0}, {"type": "note_off", "time": 27, "note": 71, "velocity": 101, "channel": 0}, {"type": "note_on", "time": 13, "note": 69, "velocity": 107, "channel": 0}, {"type": "note_off", "time": 46, "note": 69, "velocity": 107, "channel": 0}, {"type": "note_on", "time": 21, "note": 68, "velocity": 110, "channel": 0}, {"type": "note_off", "time": 122, "note": 68, "velocity": 110, "channel": 0}, {"type": "note_on", "time": 17, "note": 65, "velocity": 94, "channel": 0}, {"type": "note_off", "time": 199, "note": 65, "velocity": 94, "channel": 0}, {"type": "note_on", "time": 471, "note": 80, "velocity": 109, "channel": 0}, {"type": "note_off", "time": 22, "note": 80, "velocity": 109, "channel": 0}, {"type": "note_on", "time": 1, "note": 81, "velocity": 119, "channel": 0}, {"type": "note_off", "time": 23, "note": 81, "velocity": 119, "channel": 0}, {"type": "note_on", "time": 9, "note": 80, "velocity": 126, "channel": 0}, {"type": "note_off", "time": 47, "note": 80, "velocity": 126, "channel": 0}, {"type": "note_on", "time": 2, "note": 79, "velocity": 116, "channel": 0}, {"type": "note_off", "time": 57, "note": 79, "velocity": 116, "channel": 0}, {"type": "note_on", "time": 43, "note": 77, "velocity": 112, "channel": 0}, {"type": "note_off", "time": 55, "note": 77, "velocity": 112, "channel": 0}, {"type": "note_on", "time": 6, "note": 76, "velocity": 121, "channel": 0}, {"type": "note_off", "time": 132, "note": 76, "velocity": 121, "channel": 0}, {"type": "note_on", "time": 19, "note": 72, "velocity": 114, "channel": 0}, {"type": "note_off", "time": 62, "note": 72, "velocity": 114, "channel": 0}, {"type": "note_on", "time": 198, "note": 77, "velocity": 120, "channel": 0}, {"type": "note_off", "time": 84, "note": 77, "velocity": 120, "channel": 0}, {"type": "note_on", "time": 88, "note": 72, "velocity": 104, "channel": 0}, {"type": "note_off", "time": 72, "note": 72, "velocity": 104, "channel": 0}, {"type": "note_on", "time": 137, "note": 77, "velocity": 122, "channel": 0}, {"type": "note_off", "time": 82, "note": 77, "velocity": 122, "channel": 0}, {"type": "note_on", "time": 109, "note": 72, "velocity": 90, "channel": 0}, {"type": "note_off", "time": 83, "note": 72, "velocity": 90, "channel": 0}, {"type": "note_on", "time": 46, "note": 77, "velocity": 123, "channel": 0}, {"type": "note_off", "time": 91, "note": 77, "velocity": 123, "channel": 0}, {"type": "note_on", "time": 79, "note": 72, "velocity": 94, "channel": 0}, {"type": "note_off", "time": 70, "note": 72, "velocity": 94, "channel": 0}, {"type": "note_on", "time": 16, "note": 77, "velocity": 124, "channel": 0}, {"type": "note_off", "time": 67, "note": 77, "velocity": 124, "channel": 0}, {"type": "note_on", "time": 12, "note": 77, "velocity": 123, "channel": 0}, {"type": "note_off", "time": 74, "note": 77, "velocity": 123, "channel": 0}, {"type": "note_on", "time": 18, "note": 76, "velocity": 120, "channel": 0}, {"type": "note_off", "time": 90, "note": 76, "velocity": 120, "channel": 0}, {"type": "note_on", "time": 15, "note": 77, "velocity": 120, "channel": 0}, {"type": "note_off", "time": 59, "note": 77, "velocity": 120, "channel": 0}, {"type": "note_on", "time": 121, "note": 75, "velocity": 107, "channel": 0}, {"type": "note_off", "time": 79, "note": 75, "velocity": 107, "channel": 0}, {"type": "note_on", "time": 7, "note": 77, "velocity": 115, "channel": 0}, {"type": "note_off", "time": 78, "note": 77, "velocity": 115, "channel": 0}, {"type": "note_on", "time": 8, "note": 76, "velocity": 116, "channel": 0}, {"type": "note_off", "time": 24, "note": 76, "velocity": 116, "channel": 0}, {"type": "note_on", "time": 1, "note": 77, "velocity": 115, "channel": 0}, {"type": "note_off", "time": 21, "note": 77, "velocity": 115, "channel": 0}, {"type": "note_on", "time": 6, "note": 79, "velocity": 109, "channel": 0}, {"type": "note_off", "time": 41, "note": 79, "velocity": 109, "channel": 0}, {"type": "note_on", "time": 4, "note": 80, "velocity": 118, "channel": 0}, {"type": "note_off", "time": 33, "note": 80, "velocity": 118, "channel": 0}, {"type": "note_on", "time": 9, "note": 81, "velocity": 111, "channel": 0}, {"type": "note_off", "time": 20, "note": 81, "velocity": 111, "channel": 0}, {"type": "note_on", "time": 13, "note": 80, "velocity": 112, "channel": 0}, {"type": "note_off", "time": 24, "note": 80, "velocity": 112, "channel": 0}, {"type": "note_on", "time": 13, "note": 81, "velocity": 108, "channel": 0}, {"type": "note_off", "time": 27, "note": 81, "velocity": 108, "channel": 0}, {"type": "note_on", "time": 7, "note": 80, "velocity": 122, "channel": 0}, {"type": "note_off", "time": 35, "note": 80, "velocity": 122, "channel": 0}, {"type": "note_on", "time": 16, "note": 79, "velocity": 118, "channel": 0}, {"type": "note_off", "time": 74, "note": 79, "velocity": 118, "channel": 0}, {"type": "note_on", "time": 13, "note": 77, "velocity": 122, "channel": 0}, {"type": "note_off", "time": 67, "note": 77, "velocity": 122, "channel": 0}, {"type": "note_on", "time": 16, "note": 75, "velocity": 120, "channel": 0}, {"type": "note_off", "time": 77, "note": 75, "velocity": 120, "channel": 0}, {"type": "note_on", "time": 27, "note": 74, "velocity": 114, "channel": 0}, {"type": "note_off", "time": 74, "note": 74, "velocity": 114, "channel": 0}, {"type": "note_on", "time": 4, "note": 72, "velocity": 111, "channel": 0}, {"type": "note_off", "time": 19, "note": 72, "velocity": 111, "channel": 0}, {"type": "note_on", "time": 17, "note": 74, "velocity": 117, "channel": 0}, {"type": "note_off", "time": 21, "note": 74, "velocity": 117, "channel": 0}, {"type": "note_on", "time": 17, "note": 72, "velocity": 117, "channel": 0}, {"type": "note_off", "time": 27, "note": 72, "velocity": 117, "channel": 0}, {"type": "note_on", "time": 14, "note": 71, "velocity": 109, "channel": 0}, {"type": "note_off", "time": 40, "note": 71, "velocity": 109, "channel": 0}, {"type": "note_on", "time": 20, "note": 68, "velocity": 114, "channel": 0}, {"type": "note_off", "time": 108, "note": 68, "velocity": 114, "channel": 0}, {"type": "note_on", "time": 24, "note": 67, "velocity": 108, "channel": 0}, {"type": "note_off", "time": 71, "note": 67, "velocity": 108, "channel": 0}, {"type": "note_on", "time": 134, "note": 62, "velocity": 94, "channel": 0}, {"type": "note_off", "time": 73, "note": 62, "velocity": 94, "channel": 0}, {"type": "note_on", "time": 166, "note": 65, "velocity": 110, "channel": 0}, {"type": "note_off", "time": 76, "note": 65, "velocity": 110, "channel": 0}, {"type": "note_on", "time": 18, "note": 67, "velocity": 110, "channel": 0}, {"type": "note_off", "time": 74, "note": 67, "velocity": 110, "channel": 0}, {"type": "note_on", "time": 21, "note": 69, "velocity": 112, "channel": 0}, {"type": "note_off", "time": 68, "note": 69, "velocity": 112, "channel": 0}, {"type": "note_on", "time": 5, "note": 70, "velocity": 106, "channel": 0}, {"type": "note_off", "time": 88, "note": 70, "velocity": 106, "channel": 0}, {"type": "note_on", "time": 7, "note": 72, "velocity": 117, "channel": 0}, {"type": "note_off", "time": 108, "note": 72, "velocity": 117, "channel": 0}, {"type": "note_on", "time": 9, "note": 73, "velocity": 115, "channel": 0}, {"type": "note_off", "time": 57, "note": 73, "velocity": 115, "channel": 0}, {"type": "note_on", "time": 8, "note": 74, "velocity": 119, "channel": 0}, {"type": "note_off", "time": 83, "note": 74, "velocity": 119, "channel": 0}, {"type": "note_on", "time": 21, "note": 70, "velocity": 103, "channel": 0}, {"type": "note_off", "time": 86, "note": 70, "velocity": 103, "channel": 0}, {"type": "note_on", "time": 47, "note": 67, "velocity": 96, "channel": 0}, {"type": "note_off", "time": 152, "note": 67, "velocity": 96, "channel": 0}, {"type": "note_on", "time": 111, "note": 65, "velocity": 110, "channel": 0}, {"type": "note_off", "time": 71, "note": 65, "velocity": 110, "channel": 0}, {"type": "note_on", "time": 32, "note": 64, "velocity": 107, "channel": 0}, {"type": "note_off", "time": 98, "note": 64, "velocity": 107, "channel": 0}, {"type": "note_on", "time": 6, "note": 61, "velocity": 93, "channel": 0}, {"type": "note_off", "time": 43, "note": 61, "velocity": 93, "channel": 0}, {"type": "note_on", "time": 7, "note": 67, "velocity": 116, "channel": 0}, {"type": "note_off", "time": 97, "note": 67, "velocity": 116, "channel": 0}, {"type": "note_on", "time": 14, "note": 64, "velocity": 100, "channel": 0}, {"type": "note_off", "time": 64, "note": 64, "velocity": 100, "channel": 0}, {"type": "note_on", "time": 30, "note": 65, "velocity": 112, "channel": 0}, {"type": "note_off", "time": 46, "note": 65, "velocity": 112, "channel": 0}, {"type": "note_on", "time": 14, "note": 64, "velocity": 103, "channel": 0}, {"type": "note_off", "time": 11, "note": 64, "velocity": 103, "channel": 0}, {"type": "note_on", "time": 7, "note": 65, "velocity": 104, "channel": 0}, {"type": "note_off", "time": 17, "note": 65, "velocity": 104, "channel": 0}, {"type": "note_on", "time": 7, "note": 64, "velocity": 103, "channel": 0}, {"type": "note_off", "time": 59, "note": 64, "velocity": 103, "channel": 0}, {"type": "note_on", "time": 21, "note": 62, "velocity": 100, "channel": 0}, {"type": "note_off", "time": 77, "note": 62, "velocity": 100, "channel": 0}, {"type": "note_on", "time": 43, "note": 65, "velocity": 110, "channel": 0}, {"type": "note_off", "time": 74, "note": 65, "velocity": 110, "channel": 0}, {"type": "note_on", "time": 5, "note": 69, "velocity": 115, "channel": 0}, {"type": "note_off", "time": 116, "note": 69, "velocity": 115, "channel": 0}, {"type": "note_on", "time": 6, "note": 72, "velocity": 119, "channel": 0}, {"type": "note_off", "time": 215, "note": 72, "velocity": 119, "channel": 0}, {"type": "note_on", "time": 19, "note": 68, "velocity": 117, "channel": 0}, {"type": "note_off", "time": 84, "note": 68, "velocity": 117, "channel": 0}, {"type": "note_on", "time": 16, "note": 65, "velocity": 94, "channel": 0}, {"type": "note_off", "time": 36, "note": 65, "velocity": 94, "channel": 0}, {"type": "note_on", "time": 4, "note": 64, "velocity": 95, "channel": 0}, {"type": "note_off", "time": 42, "note": 64, "velocity": 95, "channel": 0}, {"type": "note_on", "time": 5, "note": 61, "velocity": 88, "channel": 0}, {"type": "note_off", "time": 111, "note": 61, "velocity": 88, "channel": 0}, {"type": "note_on", "time": 101, "note": 67, "velocity": 114, "channel": 0}, {"type": "note_off", "time": 146, "note": 67, "velocity": 114, "channel": 0}, {"type": "note_on", "time": 51, "note": 64, "velocity": 88, "channel": 0}, {"type": "note_off", "time": 84, "note": 64, "velocity": 88, "channel": 0}, {"type": "note_on", "time": 68, "note": 65, "velocity": 103, "channel": 0}, {"type": "note_off", "time": 70, "note": 65, "velocity": 103, "channel": 0}, {"type": "end_of_track", "time": 0}]]}