{"ticks_per_beat": 192, "tracks": [[{"type": "track_name", "name": "Melody", "time": 0}, {"type": "set_tempo", "tempo": 419580, "time": 0}, {"type": "key_signature", "key": "Eb", "time": 0}, {"type": "time_signature", "numerator": 4, "denominator": 4, "clocks_per_click": 24, "notated_32nd_notes_per_beat": 8, "time": 0}, {"type": "note_on", "time": 4065, "note": 78, "velocity": 121, "channel": 0}, {"type": "note_off", "time": 75, "note": 78, "velocity": 121, "channel": 0}, {"type": "note_on", "time": 7, "note": 77, "velocity": 119, "channel": 0}, {"type": "note_off", "time": 79, "note": 77, "velocity": 119, "channel": 0}, {"type": "note_on", "time": 14, "note": 78, "velocity": 120, "channel": 0}, {"type": "note_off", "time": 93, "note": 78, "velocity": 120, "channel": 0}, {"type": "note_on", "time": 7, "note": 77, "velocity": 120, "channel": 0}, {"type": "note_off", "time": 49, "note": 77, "velocity": 120, "channel": 0}, {"type": "note_on", "time": 9, "note": 75, "velocity": 115, "channel": 0}, {"type": "note_off", "time": 47, "note": 75, "velocity": 115, "channel": 0}, {"type": "note_on", "time": 16, "note": 72, "velocity": 117, "channel": 0}, {"type": "note_off", "time": 49, "note": 72, "velocity": 117, "channel": 0}, {"type": "note_on", "time": 26, "note": 75, "velocity": 116, "channel": 0}, {"type": "note_off", "time": 111, "note": 75, "velocity": 116, "channel": 0}, {"type": "note_on", "time": 31, "note": 77, "velocity": 122, "channel": 0}, {"type": "note_off", "time": 132, "note": 77, "velocity": 122, "channel": 0}, {"type": "note_on", "time": 351, "note": 78, "velocity": 120, "channel": 0}, {"type": "note_off", "time": 87, "note": 78, "velocity": 120, "channel": 0}, {"type": "note_on", "time": 8, "note": 77, "velocity": 122, "channel": 0}, {"type": "note_off", "time": 100, "note": 77, "velocity": 122, "channel": 0}, {"type": "note_on", "time": 34, "note": 78, "velocity": 120, "channel": 0}, {"type": "note_off", "time": 120, "note": 78, "velocity": 120, "channel": 0}, {"type": "note_on", "time": 7, "note": 77, "velocity": 121, "channel": 0}, {"type": "note_off", "time": 80, "note": 77, "velocity": 121, "channel": 0}, {"type": "note_on", "time": 54, "note": 78, "velocity": 121, "channel": 0}, {"type": "note_off", "time": 146, "note": 78, "velocity": 121, "channel": 0}, {"type": "note_on", "time": 12, "note": 77, "velocity": 122, "channel": 0}, {"type": "note_off", "time": 77, "note": 77, "velocity": 122, "channel": 0}, {"type": "note_on", "time": 11, "note": 77, "velocity": 109, "channel": 0}, {"type": "note_off", "time": 61, "note": 77, "velocity": 109, "channel": 0}, {"type": "note_on", "time": 13, "note": 72, "velocity": 115, "channel": 0}, {"type": "note_off", "time": 65, "note": 72, "velocity": 115, "channel": 0}, {"type": "note_on", "time": 11, "note": 75, "velocity": 118, "channel": 0}, {"type": "note_off", "time": 126, "note": 75, "velocity": 118, "channel": 0}, {"type": "note_on", "time": 4, "note": 77, "velocity": 120, "channel": 0}, {"type": "note_off", "time": 84, "note": 77, "velocity": 120, "channel": 0}, {"type": "note_on", "time": 475, "note": 78, "velocity": 119, "channel": 0}, {"type": "note_off", "time": 175, "note": 78, "velocity": 119, "channel": 0}, {"type": "note_on", "time": 6, "note": 77, "velocity": 101, "channel": 0}, {"type": "note_off", "time": 51, "note": 77, "velocity": 101, "channel": 0}, {"type": "note_on", "time": 24, "note": 75, "velocity": 116, "channel": 0}, {"type": "note_off", "time": 130, "note": 75, "velocity": 116, "channel": 0}, {"type": "note_on", "time": 7, "note": 72, "velocity": 82, "channel": 0}, {"type": "note_off", "time": 39, "note": 72, "velocity": 82, "channel": 0}, {"type": "note_on", "time": 15, "note": 77, "velocity": 118, "channel": 0}, {"type": "note_off", "time": 128, "note": 77, "velocity": 118, "channel": 0}, {"type": "note_on", "time": 6, "note": 75, "velocity": 113, "channel": 0}, {"type": "note_off", "time": 64, "note": 75, "velocity": 113, "channel": 0}, {"type": "note_on", "time": 4, "note": 72, "velocity": 114, "channel": 0}, {"type": "note_off", "time": 120, "note": 72, "velocity": 114, "channel": 0}, {"type": "note_on", "time": 8, "note": 68, "velocity": 86, "channel": 0}, {"type": "note_off", "time": 37, "note": 68, "velocity": 86, "channel": 0}, {"type": "note_on", "time": 39, "note": 71, "velocity": 94, "channel": 0}, {"type": "note_off", "time": 77, "note": 71, "velocity": 94, "channel": 0}, {"type": "note_on", "time": 8, "note": 70, "velocity": 97, "channel": 0}, {"type": "note_off", "time": 82, "note": 70, "velocity": 97, "channel": 0}, {"type": "note_on", "time": 14, "note": 72, "velocity": 104, "channel": 0}, {"type": "note_off", "time": 355, "note": 72, "velocity": 104, "channel": 0}, {"type": "note_on", "time": 14, "note": 70, "velocity": 108, "channel": 0}, {"type": "note_off", "time": 113, "note": 70, "velocity": 108, "channel": 0}, {"type": "note_on", "time": 15, "note": 67, "velocity": 101, "channel": 0}, {"type": "note_off", "time": 244, "note": 67, "velocity": 101, "channel": 0}, {"type": "note_on", "time": 326, "note": 81, "velocity": 120, "channel": 0}, {"type": "note_off", "time": 83, "note": 81, "velocity": 120, "channel": 0}, {"type": "note_on", "time": 8, "note": 80, "velocity": 118, "channel": 0}, {"type": "note_off", "time": 92, "note": 80, "velocity": 118, "channel": 0}, {"type": "note_on", "time": 10, "note": 79, "velocity": 117, "channel": 0}, {"type": "note_off", "time": 83, "note": 79, "velocity": 117, "channel": 0}, {"type": "note_on", "time": 19, "note": 78, "velocity": 119, "channel": 0}, {"type": "note_off", "time": 81, "note": 78, "velocity": 119, "channel": 0}, {"type": "note_on", "time": 14, "note": 76, "velocity": 116, "channel": 0}, {"type": "note_off", "time": 34, "note": 76, "velocity": 116, "channel": 0}, {"type": "note_on", "time": 7, "note": 74, "velocity": 117, "channel": 0}, {"type": "note_off", "time": 65, "note": 74, "velocity": 117, "channel": 0}, {"type": "note_on", "time": 3, "note": 73, "velocity": 116, "channel": 0}, {"type": "note_off", "time": 70, "note": 73, "velocity": 116, "channel": 0}, {"type": "note_on", "time": 14, "note": 71, "velocity": 114, "channel": 0}, {"type": "note_off", "time": 77, "note": 71, "velocity": 114, "channel": 0}, {"type": "note_on", "time": 5, "note": 72, "velocity": 116, "channel": 0}, {"type": "note_off", "time": 86, "note": 72, "velocity": 116, "channel": 0}, {"type": "note_on", "time": 14, "note": 70, "velocity": 106, "channel": 0}, {"type": "note_off", "time": 64, "note": 70, "velocity": 106, "channel": 0}, {"type": "note_on", "time": 31, "note": 63, "velocity": 108, "channel": 0}, {"type": "note_off", "time": 92, "note": 63, "velocity": 108, "channel": 0}, {"type": "note_on", "time": 17, "note": 65, "velocity": 95, "channel": 0}, {"type": "note_off", "time": 40, "note": 65, "velocity": 95, "channel": 0}, {"type": "note_on", "time": 20, "note": 66, "velocity": 93, "channel": 0}, {"type": "note_on", "time": 20, "note": 67, "velocity": 107, "channel": 0}, {"type": "note_off", "time": 0, "note": 66, "velocity": 93, "channel": 0}, {"type": "note_off", "time": 13, "note": 67, "velocity": 107, "channel": 0}, {"type": "note_on", "time": 0, "note": 69, "velocity": 114, "channel": 0}, {"type": "note_off", "time": 144, "note": 69, "velocity": 114, "channel": 0}, {"type": "note_on", "time": 14, "note": 65, "velocity": 108, "channel": 0}, {"type": "note_off", "time": 110, "note": 65, "velocity": 108, "channel": 0}, {"type": "note_on", "time": 32, "note": 62, "velocity": 91, "channel": 0}, {"type": "note_off", "time": 28, "note": 62, "velocity": 91, "channel": 0}, {"type": "note_on", "time": 26, "note": 72, "velocity": 108, "channel": 0}, {"type": "note_off", "time": 169, "note": 72, "velocity": 108, "channel": 0}, {"type": "note_on", "time": 14, "note": 68, "velocity": 107, "channel": 0}, {"type": "note_off", "time": 99, "note": 68, "velocity": 107, "channel": 0}, {"type": "note_on", "time": 19, "note": 67, "velocity": 97, "channel": 0}, {"type": "note_off", "time": 847, "note": 67, "velocity": 97, "channel": 0}, {"type": "note_on", "time": 252, "note": 68, "velocity": 111, "channel": 0}, {"type": "note_off", "time": 61, "note": 68, "velocity": 111, "channel": 0}, {"type": "note_on", "time": 8, "note": 70, "velocity": 114, "channel": 0}, {"type": "note_off", "time": 58, "note": 70, "velocity": 114, "channel": 0}, {"type": "note_on", "time": 24, "note": 72, "velocity": 117, "channel": 0}, {"type": "note_off", "time": 177, "note": 72, "velocity": 117, "channel": 0}, {"type": "note_on", "time": 8, "note": 70, "velocity": 113, "channel": 0}, {"type": "note_off", "time": 57, "note": 70, "velocity": 113, "channel": 0}, {"type": "note_on", "time": 14, "note": 68, "velocity": 110, "channel": 0}, {"type": "note_off", "time": 76, "note": 68, "velocity": 110, "channel": 0}, {"type": "note_on", "time": 10, "note": 67, "velocity": 99, "channel": 0}, {"type": "note_off", "time": 576, "note": 67, "velocity": 99, "channel": 0}, {"type": "note_on", "time": 455, "note": 77, "velocity": 118, "channel": 0}, {"type": "note_off", "time": 51, "note": 77, "velocity": 118, "channel": 0}, {"type": "note_on", "time": 13, "note": 75, "velocity": 115, "channel": 0}, {"type": "note_off", "time": 49, "note": 75, "velocity": 115, "channel": 0}, {"type": "note_on", "time": 14, "note": 77, "velocity": 116, "channel": 0}, {"type": "note_off", "time": 50, "note": 77, "velocity": 116, "channel": 0}, {"type": "note_on", "time": 9, "note": 75, "velocity": 117, "channel": 0}, {"type": "note_off", "time": 51, "note": 75, "velocity": 117, "channel": 0}, {"type": "note_on", "time": 11, "note": 77, "velocity": 116, "channel": 0}, {"type": "note_off", "time": 56, "note": 77, "velocity": 116, "channel": 0}, {"type": "note_on", "time": 7, "note": 75, "velocity": 116, "channel": 0}, {"type": "note_off", "time": 57, "note": 75, "velocity": 116, "channel": 0}, {"type": "note_on", "time": 9, "note": 77, "velocity": 118, "channel": 0}, {"type": "note_off", "time": 43, "note": 77, "velocity": 118, "channel": 0}, {"type": "note_on", "time": 12, "note": 75, "velocity": 117, "channel": 0}, {"type": "note_off", "time": 44, "note": 75, "velocity": 117, "channel": 0}, {"type": "note_on", "time": 28, "note": 77, "velocity": 116, "channel": 0}, {"type": "note_off", "time": 266, "note": 77, "velocity": 116, "channel": 0}, {"type": "note_on", "time": 220, "note": 72, "velocity": 116, "channel": 0}, {"type": "note_off", "time": 53, "note": 72, "velocity": 116, "channel": 0}, {"type": "note_on", "time": 18, "note": 75, "velocity": 118, "channel": 0}, {"type": "note_off", "time": 103, "note": 75, "velocity": 118, "channel": 0}, {"type": "note_on", "time": 16, "note": 77, "velocity": 117, "channel": 0}, {"type": "note_off", "time": 65, "note": 77, "velocity": 117, "channel": 0}, {"type": "note_on", "time": 328, "note": 77, "velocity": 119, "channel": 0}, {"type": "note_off", "time": 1075, "note": 77, "velocity": 119, "channel": 0}, {"type": "note_on", "time": 18, "note": 75, "velocity": 114, "channel": 0}, {"type": "note_off", "time": 48, "note": 75, "velocity": 114, "channel": 0}, {"type": "note_on", "time": 6, "note": 72, "velocity": 110, "channel": 0}, {"type": "note_off", "time": 46, "note": 72, "velocity": 110, "channel": 0}, {"type": "note_on", "time": 5, "note": 75, "velocity": 114, "channel": 0}, {"type": "note_off", "time": 44, "note": 75, "velocity": 114, "channel": 0}, {"type": "note_on", "time": 10, "note": 77, "velocity": 99, "channel": 0}, {"type": "note_off", "time": 53, "note": 77, "velocity": 99, "channel": 0}, {"type": "note_on", "time": 425, "note": 80, "velocity": 114, "channel": 0}, {"type": "note_off", "time": 49, "note": 80, "velocity": 114, "channel": 0}, {"type": "note_on", "time": 11, "note": 78, "velocity": 118, "channel": 0}, {"type": "note_off", "time": 74, "note": 78, "velocity": 118, "channel": 0}, {"type": "note_on", "time": 238, "note": 70, "velocity": 83, "channel": 0}, {"type": "note_off", "time": 32, "note": 70, "velocity": 83, "channel": 0}, {"type": "note_on", "time": 13, "note": 77, "velocity": 116, "channel": 0}, {"type": "note_off", "time": 130, "note": 77, "velocity": 116, "channel": 0}, {"type": "note_on", "time": 38, "note": 75, "velocity": 116, "channel": 0}, {"type": "note_off", "time": 73, "note": 75, "velocity": 116, "channel": 0}, {"type": "note_on", "time": 114, "note": 72, "velocity": 111, "channel": 0}, {"type": "note_off", "time": 103, "note": 72, "velocity": 111, "channel": 0}, {"type": "note_on", "time": 4, "note": 71, "velocity": 96, "channel": 0}, {"type": "note_off", "time": 80, "note": 71, "velocity": 96, "channel": 0}, {"type": "note_on", "time": 77, "note": 70, "velocity": 103, "channel": 0}, {"type": "note_off", "time": 102, "note": 70, "velocity": 103, "channel": 0}, {"type": "note_on", "time": 11, "note": 67, "velocity": 101, "channel": 0}, {"type": "note_off", "time": 44, "note": 67, "velocity": 101, "channel": 0}, {"type": "note_on", "time": 32, "note": 63, "velocity": 97, "channel": 0}, {"type": "note_off", "time": 34, "note": 63, "velocity": 97, "channel": 0}, {"type": "note_on", "time": 19, "note": 60, "velocity": 83, "channel": 0}, {"type": "note_off", "time": 39, "note": 60, "velocity": 83, "channel": 0}, {"type": "note_on", "time": 34, "note": 56, "velocity": 84, "channel": 0}, {"type": "note_off", "time": 30, "note": 56, "velocity": 84, "channel": 0}, {"type": "note_on", "time": 39, "note": 65, "velocity": 94, "channel": 0}, {"type": "note_off", "time": 303, "note": 65, "velocity": 94, "channel": 0}, {"type": "note_on", "time": 84, "note": 66, "velocity": 98, "channel": 0}, {"type": "note_off", "time": 14, "note": 66, "velocity": 98, "channel": 0}, {"type": "note_on", "time": 5, "note": 67, "velocity": 98, "channel": 0}, {"type": "note_off", "time": 146, "note": 67, "velocity": 98, "channel": 0}, {"type": "note_on", "time": 14, "note": 72, "velocity": 116, "channel": 0}, {"type": "note_off", "time": 119, "note": 72, "velocity": 116, "channel": 0}, {"type": "note_on", "time": 10, "note": 74, "velocity": 115, "channel": 0}, {"type": "note_off", "time": 264, "note": 74, "velocity": 115, "channel": 0}, {"type": "note_on", "time": 15, "note": 75, "velocity": 106, "channel": 0}, {"type": "note_off", "time": 105, "note": 75, "velocity": 106, "channel": 0}, {"type": "note_on", "time": 21, "note": 70, "velocity": 98, "channel": 0}, {"type": "note_off", "time": 42, "note": 70, "velocity": 98, "channel": 0}, {"type": "note_on", "time": 535, "note": 77, "velocity": 119, "channel": 0}, {"type": "note_off", "time": 76, "note": 77, "velocity": 119, "channel": 0}, {"type": "note_on", "time": 12, "note": 80, "velocity": 116, "channel": 0}, {"type": "note_off", "time": 85, "note": 80, "velocity": 116, "channel": 0}, {"type": "note_on", "time": 28, "note": 81, "velocity": 112, "channel": 0}, {"type": "note_off", "time": 57, "note": 81, "velocity": 112, "channel": 0}, {"type": "note_on", "time": 19, "note": 82, "velocity": 115, "channel": 0}, {"type": "note_off", "time": 103, "note": 82, "velocity": 115, "channel": 0}, {"type": "note_on", "time": 5, "note": 81, "velocity": 118, "channel": 0}, {"type": "note_off", "time": 69, "note": 81, "velocity": 118, "channel": 0}, {"type": "note_on", "time": 32, "note": 80, "velocity": 117, "channel": 0}, {"type": "note_off", "time": 101, "note": 80, "velocity": 117, "channel": 0}, {"type": "note_on", "time": 7, "note": 82, "velocity": 104, "channel": 0}, {"type": "note_off", "time": 42, "note": 82, "velocity": 104, "channel": 0}, {"type": "note_on", "time": 7, "note": 81, "velocity": 110, "channel": 0}, {"type": "note_off", "time": 21, "note": 81, "velocity": 110, "channel": 0}, {"type": "note_on", "time": 10, "note": 79, "velocity": 113, "channel": 0}, {"type": "note_off", "time": 87, "note": 79, "velocity": 113, "channel": 0}, {"type": "note_on", "time": 21, "note": 75, "velocity": 117, "channel": 0}, {"type": "note_off", "time": 36, "note": 75, "velocity": 117, "channel": 0}, {"type": "note_on", "time": 6, "note": 72, "velocity": 112, "channel": 0}, {"type": "note_off", "time": 30, "note": 72, "velocity": 112, "channel": 0}, {"type": "note_on", "time": 10, "note": 74, "velocity": 110, "channel": 0}, {"type": "note_off", "time": 35, "note": 74, "velocity": 110, "channel": 0}, {"type": "note_on", "time": 8, "note": 72, "velocity": 113, "channel": 0}, {"type": "note_off", "time": 53, "note": 72, "velocity": 113, "channel": 0}, {"type": "note_on", "time": 95, "note": 76, "velocity": 116, "channel": 0}, {"type": "note_off", "time": 104, "note": 76, "velocity": 116, "channel": 0}, {"type": "note_on", "time": 7, "note": 72, "velocity": 114, "channel": 0}, {"type": "note_off", "time": 71, "note": 72, "velocity": 114, "channel": 0}, {"type": "note_on", "time": 13, "note": 69, "velocity": 113, "channel": 0}, {"type": "note_off", "time": 98, "note": 69, "velocity": 113, "channel": 0}, {"type": "note_on", "time": 25, "note": 66, "velocity": 98, "channel": 0}, {"type": "note_off", "time": 18, "note": 66, "velocity": 98, "channel": 0}, {"type": "note_on", "time": 13, "note": 63, "velocity": 98, "channel": 0}, {"type": "note_off", "time": 18, "note": 63, "velocity": 98, "channel": 0}, {"type": "note_on", "time": 18, "note": 68, "velocity": 103, "channel": 0}, {"type": "note_off", "time": 29, "note": 68, "velocity": 103, "channel": 0}, {"type": "note_on", "time": 17, "note": 71, "velocity": 102, "channel": 0}, {"type": "note_off", "time": 25, "note": 71, "velocity": 102, "channel": 0}, {"type": "note_on", "time": 11, "note": 68, "velocity": 108, "channel": 0}, {"type": "note_off", "time": 35, "note": 68, "velocity": 108, "channel": 0}, {"type": "note_on", "time": 6, "note": 65, "velocity": 93, "channel": 0}, {"type": "note_off", "time": 25, "note": 65, "velocity": 93, "channel": 0}, {"type": "note_on", "time": 35, "note": 61, "velocity": 104, "channel": 0}, {"type": "note_off", "time": 111, "note": 61, "velocity": 104, "channel": 0}, {"type": "note_on", "time": 76, "note": 68, "velocity": 110, "channel": 0}, {"type": "note_off", "time": 31, "note": 68, "velocity": 110, "channel": 0}, {"type": "note_on", "time": 2, "note": 70, "velocity": 110, "channel": 0}, {"type": "note_off", "time": 25, "note": 70, "velocity": 110, "channel": 0}, {"type": "note_on", "time": 11, "note": 68, "velocity": 100, "channel": 0}, {"type": "note_off", "time": 32, "note": 68, "velocity": 100, "channel": 0}, {"type": "note_on", "time": 15, "note": 66, "velocity": 100, "channel": 0}, {"type": "note_off", "time": 59, "note": 66, "velocity": 100, "channel": 0}, {"type": "note_on", "time": 31, "note": 62, "velocity": 100, "channel": 0}, {"type": "note_off", "time": 116, "note": 62, "velocity": 100, "channel": 0}, {"type": "note_on", "time": 57, "note": 63, "velocity": 95, "channel": 0}, {"type": "note_off", "time": 162, "note": 63, "velocity": 95, "channel": 0}, {"type": "note_on", "time": 3, "note": 65, "velocity": 97, "channel": 0}, {"type": "note_off", "time": 108, "note": 65, "velocity": 97, "channel": 0}, {"type": "note_on", "time": 389, "note": 72, "velocity": 105, "channel": 0}, {"type": "note_off", "time": 37, "note": 72, "velocity": 105, "channel": 0}, {"type": "note_on", "time": 15, "note": 72, "velocity": 108, "channel": 0}, {"type": "note_off", "time": 33, "note": 72, "velocity": 108, "channel": 0}, {"type": "note_on", "time": 23, "note": 72, "velocity": 99, "channel": 0}, {"type": "note_off", "time": 37, "note": 72, "velocity": 99, "channel": 0}, {"type": "note_on", "time": 41, "note": 72, "velocity": 111, "channel": 0}, {"type": "note_off", "time": 42, "note": 72, "velocity": 111, "channel": 0}, {"type": "note_on", "time": 23, "note": 72, "velocity": 108, "channel": 0}, {"type": "note_off", "time": 34, "note": 72, "velocity": 108, "channel": 0}, {"type": "note_on", "time": 18, "note": 72, "velocity": 103, "channel": 0}, {"type": "note_off", "time": 49, "note": 72, "velocity": 103, "channel": 0}, {"type": "note_on", "time": 19, "note": 72, "velocity": 109, "channel": 0}, {"type": "note_off", "time": 42, "note": 72, "velocity": 109, "channel": 0}, {"type": "note_on", "time": 13, "note": 73, "velocity": 108, "channel": 0}, {"type": "note_off", "time": 61, "note": 73, "velocity": 108, "channel": 0}, {"type": "note_on", "time": 7, "note": 72, "velocity": 103, "channel": 0}, {"type": "note_off", "time": 55, "note": 72, "velocity": 103, "channel": 0}, {"type": "note_on", "time": 5, "note": 70, "velocity": 99, "channel": 0}, {"type": "note_off", "time": 177, "note": 70, "velocity": 99, "channel": 0}, {"type": "note_on", "time": 1215, "note": 63, "velocity": 110, "channel": 0}, {"type": "note_off", "time": 128, "note": 63, "velocity": 110, "channel": 0}, {"type": "note_on", "time": 6, "note": 60, "velocity": 85, "channel": 0}, {"type": "note_off", "time": 22, "note": 60, "velocity": 85, "channel": 0}, {"type": "note_on", "time": 34, "note": 65, "velocity": 115, "channel": 0}, {"type": "note_off", "time": 132, "note": 65, "velocity": 115, "channel": 0}, {"type": "note_on", "time": 47, "note": 63, "velocity": 112, "channel": 0}, {"type": "note_off", "time": 131, "note": 63, "velocity": 112, "channel": 0}, {"type": "note_on", "time": 12, "note": 60, "velocity": 96, "channel": 0}, {"type": "note_off", "time": 27, "note": 60, "velocity": 96, "channel": 0}, {"type": "note_on", "time": 23, "note": 65, "velocity": 114, "channel": 0}, {"type": "note_off", "time": 130, "note": 65, "velocity": 114, "channel": 0}, {"type": "note_on", "time": 58, "note": 66, "velocity": 110, "channel": 0}, {"type": "note_off", "time": 123, "note": 66, "velocity": 110, "channel": 0}, {"type": "note_on", "time": 15, "note": 63, "velocity": 97, "channel": 0}, {"type": "note_off", "time": 27, "note": 63, "velocity": 97, "channel": 0}, {"type": "note_on", "time": 25, "note": 65, "velocity": 113, "channel": 0}, {"type": "note_off", "time": 128, "note": 65, "velocity": 113, "channel": 0}, {"type": "note_on", "time": 17, "note": 60, "velocity": 90, "channel": 0}, {"type": "note_off", "time": 25, "note": 60, "velocity": 90, "channel": 0}, {"type": "note_on", "time": 22, "note": 63, "velocity": 107, "channel": 0}, {"type": "note_off", "time": 166, "note": 63, "velocity": 107, "channel": 0}, {"type": "note_on", "time": 9, "note": 65, "velocity": 109, "channel": 0}, {"type": "note_off", "time": 90, "note": 65, "velocity": 109, "channel": 0}, {"type": "note_on", "time": 239, "note": 67, "velocity": 106, "channel": 0}, {"type": "note_off", "time": 24, "note": 67, "velocity": 106, "channel": 0}, {"type": "note_on", "time": 12, "note": 69, "velocity": 114, "channel": 0}, {"type": "note_off", "time": 169, "note": 69, "velocity": 114, "channel": 0}, {"type": "note_on", "time": 3, "note": 68, "velocity": 109, "channel": 0}, {"type": "note_off", "time": 27, "note": 68, "velocity": 109, "channel": 0}, {"type": "note_on", "time": 15, "note": 65, "velocity": 103, "channel": 0}, {"type": "note_off", "time": 36, "note": 65, "velocity": 103, "channel": 0}, {"type": "note_on", "time": 6, "note": 67, "velocity": 114, "channel": 0}, {"type": "note_off", "time": 98, "note": 67, "velocity": 114, "channel": 0}, {"type": "note_on", "time": 5, "note": 69, "velocity": 115, "channel": 0}, {"type": "note_off", "time": 75, "note": 69, "velocity": 115, "channel": 0}, {"type": "note_on", "time": 14, "note": 70, "velocity": 114, "channel": 0}, {"type": "note_off", "time": 78, "note": 70, "velocity": 114, "channel": 0}, {"type": "note_on", "time": 15, "note": 72, "velocity": 116, "channel": 0}, {"type": "note_off", "time": 86, "note": 72, "velocity": 116, "channel": 0}, {"type": "note_on", "time": 7, "note": 73, "velocity": 117, "channel": 0}, {"type": "note_off", "time": 85, "note": 73, "velocity": 117, "channel": 0}, {"type": "note_on", "time": 19, "note": 75, "velocity": 115, "channel": 0}, {"type": "note_off", "time": 72, "note": 75, "velocity": 115, "channel": 0}, {"type": "note_on", "time": 16, "note": 77, "velocity": 118, "channel": 0}, {"type": "note_off", "time": 90, "note": 77, "velocity": 118, "channel": 0}, {"type": "note_on", "time": 1, "note": 78, "velocity": 116, "channel": 0}, {"type": "note_off", "time": 73, "note": 78, "velocity": 116, "channel": 0}, {"type": "note_on", "time": 25, "note": 80, "velocity": 121, "channel": 0}, {"type": "note_off", "time": 94, "note": 80, "velocity": 121, "channel": 0}, {"type": "note_on", "time": 12, "note": 77, "velocity": 117, "channel": 0}, {"type": "note_off", "time": 71, "note": 77, "velocity": 117, "channel": 0}, {"type": "note_on", "time": 7, "note": 73, "velocity": 115, "channel": 0}, {"type": "note_off", "time": 102, "note": 73, "velocity": 115, "channel": 0}, {"type": "note_on", "time": 215, "note": 78, "velocity": 20, "channel": 0}, {"type": "note_off", "time": 16, "note": 78, "velocity": 20, "channel": 0}, {"type": "note_on", "time": 2, "note": 79, "velocity": 122, "channel": 0}, {"type": "note_off", "time": 109, "note": 79, "velocity": 122, "channel": 0}, {"type": "note_on", "time": 10, "note": 80, "velocity": 121, "channel": 0}, {"type": "note_off", "time": 53, "note": 80, "velocity": 121, "channel": 0}, {"type": "note_on", "time": 8, "note": 81, "velocity": 122, "channel": 0}, {"type": "note_off", "time": 71, "note": 81, "velocity": 122, "channel": 0}, {"type": "note_on", "time": 20, "note": 82, "velocity": 121, "channel": 0}, {"type": "note_off", "time": 85, "note": 82, "velocity": 121, "channel": 0}, {"type": "note_on", "time": 8, "note": 81, "velocity": 120, "channel": 0}, {"type": "note_off", "time": 75, "note": 81, "velocity": 120, "channel": 0}, {"type": "note_on", "time": 10, "note": 80, "velocity": 121, "channel": 0}, {"type": "note_off", "time": 110, "note": 80, "velocity": 121, "channel": 0}, {"type": "note_on", "time": 187, "note": 77, "velocity": 112, "channel": 0}, {"type": "note_off", "time": 23, "note": 77, "velocity": 112, "channel": 0}, {"type": "note_on", "time": 6, "note": 79, "velocity": 121, "channel": 0}, {"type": "note_off", "time": 45, "note": 79, "velocity": 121, "channel": 0}, {"type": "note_on", "time": 15, "note": 77, "velocity": 118, "channel": 0}, {"type": "note_off", "time": 81, "note": 77, "velocity": 118, "channel": 0}, {"type": "note_on", "time": 19, "note": 79, "velocity": 121, "channel": 0}, {"type": "note_off", "time": 76, "note": 79, "velocity": 121, "channel": 0}, {"type": "note_on", "time": 15, "note": 80, "velocity": 122, "channel": 0}, {"type": "note_off", "time": 79, "note": 80, "velocity": 122, "channel": 0}, {"type": "note_on", "time": 4, "note": 82, "velocity": 119, "channel": 0}, {"type": "note_off", "time": 77, "note": 82, "velocity": 119, "channel": 0}, {"type": "note_on", "time": 16, "note": 84, "velocity": 127, "channel": 0}, {"type": "note_off", "time": 79, "note": 84, "velocity": 127, "channel": 0}, {"type": "note_on", "time": 13, "note": 87, "velocity": 121, "channel": 0}, {"type": "note_off", "time": 99, "note": 87, "velocity": 121, "channel": 0}, {"type": "note_on", "time": 8, "note": 86, "velocity": 115, "channel": 0}, {"type": "note_off", "time": 297, "note": 86, "velocity": 115, "channel": 0}, {"type": "note_on", "time": 7, "note": 83, "velocity": 116, "channel": 0}, {"type": "note_off", "time": 93, "note": 83, "velocity": 116, "channel": 0}, {"type": "note_on", "time": 470, "note": 83, "velocity": 119, "channel": 0}, {"type": "note_off", "time": 34, "note": 83, "velocity": 119, "channel": 0}, {"type": "note_on", "time": 6, "note": 84, "velocity": 118, "channel": 0}, {"type": "note_off", "time": 774, "note": 84, "velocity": 118, "channel": 0}, {"type": "note_on", "time": 22, "note": 82, "velocity": 113, "channel": 0}, {"type": "note_off", "time": 58, "note": 82, "velocity": 113, "channel": 0}, {"type": "note_on", "time": 12, "note": 82, "velocity": 113, "channel": 0}, {"type": "note_off", "time": 39, "note": 82, "velocity": 113, "channel": 0}, {"type": "note_on", "time": 5, "note": 79, "velocity": 114, "channel": 0}, {"type": "note_off", "time": 50, "note": 79, "velocity": 114, "channel": 0}, {"type": "note_on", "time": 8, "note": 82, "velocity": 115, "channel": 0}, {"type": "note_off", "time": 52, "note": 82, "velocity": 115, "channel": 0}, {"type": "note_on", "time": 12, "note": 86, "velocity": 85, "channel": 0}, {"type": "note_off", "time": 92, "note": 86, "velocity": 85, "channel": 0}, {"type": "note_on", "time": 369, "note": 83, "velocity": 115, "channel": 0}, {"type": "note_off", "time": 33, "note": 83, "velocity": 115, "channel": 0}, {"type": "note_on", "time": 7, "note": 84, "velocity": 119, "channel": 0}, {"type": "note_off", "time": 847, "note": 84, "velocity": 119, "channel": 0}, {"type": "note_on", "time": 6, "note": 82, "velocity": 114, "channel": 0}, {"type": "note_off", "time": 17, "note": 82, "velocity": 114, "channel": 0}, {"type": "note_on", "time": 8, "note": 82, "velocity": 118, "channel": 0}, {"type": "note_off", "time": 29, "note": 82, "velocity": 118, "channel": 0}, {"type": "note_on", "time": 35, "note": 79, "velocity": 115, "channel": 0}, {"type": "note_off", "time": 47, "note": 79, "velocity": 115, "channel": 0}, {"type": "note_on", "time": 7, "note": 82, "velocity": 116, "channel": 0}, {"type": "note_off", "time": 42, "note": 82, "velocity": 116, "channel": 0}, {"type": "note_on", "time": 15, "note": 79, "velocity": 84, "channel": 0}, {"type": "note_off", "time": 83, "note": 79, "velocity": 84, "channel": 0}, {"type": "note_on", "time": 392, "note": 84, "velocity": 118, "channel": 0}, {"type": "note_off", "time": 787, "note": 84, "velocity": 118, "channel": 0}, {"type": "note_on", "time": 30, "note": 82, "velocity": 112, "channel": 0}, {"type": "note_off", "time": 106, "note": 82, "velocity": 112, "channel": 0}, {"type": "note_on", "time": 8, "note": 84, "velocity": 105, "channel": 0}, {"type": "note_off", "time": 60, "note": 84, "velocity": 105, "channel": 0}, {"type": "note_on", "time": 24, "note": 79, "velocity": 112, "channel": 0}, {"type": "note_off", "time": 120, "note": 79, "velocity": 112, "channel": 0}, {"type": "note_on", "time": 17, "note": 83, "velocity": 109, "channel": 0}, {"type": "note_off", "time": 28, "note": 83, "velocity": 109, "channel": 0}, {"type": "note_on", "time": 17, "note": 77, "velocity": 117, "channel": 0}, {"type": "note_off", "time": 113, "note": 77, "velocity": 117, "channel": 0}, {"type": "note_on", "time": 16, "note": 82, "velocity": 109, "channel": 0}, {"type": "note_off", "time": 32, "note": 82, "velocity": 109, "channel": 0}, {"type": "note_on", "time": 32, "note": 73, "velocity": 107, "channel": 0}, {"type": "note_off", "time": 152, "note": 73, "velocity": 107, "channel": 0}, {"type": "note_on", "time": 18, "note": 77, "velocity": 101, "channel": 0}, {"type": "note_off", "time": 57, "note": 77, "velocity": 101, "channel": 0}, {"type": "note_on", "time": 9, "note": 76, "velocity": 97, "channel": 0}, {"type": "note_off", "time": 90, "note": 76, "velocity": 97, "channel": 0}, {"type": "note_on", "time": 39, "note": 73, "velocity": 103, "channel": 0}, {"type": "note_off", "time": 183, "note": 73, "velocity": 103, "channel": 0}, {"type": "note_on", "time": 17, "note": 78, "velocity": 93, "channel": 0}, {"type": "note_off", "time": 66, "note": 78, "velocity": 93, "channel": 0}, {"type": "note_on", "time": 5, "note": 79, "velocity": 86, "channel": 0}, {"type": "note_off", "time": 51, "note": 79, "velocity": 86, "channel": 0}, {"type": "note_on", "time": 10, "note": 74, "velocity": 99, "channel": 0}, {"type": "note_off", "time": 51, "note": 74, "velocity": 99, "channel": 0}, {"type": "note_on", "time": 33, "note": 73, "velocity": 102, "channel": 0}, {"type": "note_off", "time": 88, "note": 73, "velocity": 102, "channel": 0}, {"type": "note_on", "time": 7, "note": 75, "velocity": 95, "channel": 0}, {"type": "note_off", "time": 139, "note": 75, "velocity": 95, "channel": 0}, {"type": "note_on", "time": 9, "note": 80, "velocity": 98, "channel": 0}, {"type": "note_off", "time": 71, "note": 80, "velocity": 98, "channel": 0}, {"type": "note_on", "time": 23, "note": 73, "velocity": 111, "channel": 0}, {"type": "note_off", "time": 17, "note": 73, "velocity": 111, "channel": 0}, {"type": "note_on", "time": 1, "note": 72, "velocity": 122, "channel": 0}, {"type": "note_off", "time": 104, "note": 72, "velocity": 122, "channel": 0}, {"type": "note_on", "time": 15, "note": 66, "velocity": 116, "channel": 0}, {"type": "note_off", "time": 75, "note": 66, "velocity": 116, "channel": 0}, {"type": "note_on", "time": 11, "note": 65, "velocity": 115, "channel": 0}, {"type": "note_off", "time": 46, "note": 65, "velocity": 115, "channel": 0}, {"type": "note_on", "time": 10, "note": 63, "velocity": 114, "channel": 0}, {"type": "note_off", "time": 29, "note": 63, "velocity": 114, "channel": 0}, {"type": "note_on", "time": 7, "note": 61, "velocity": 106, "channel": 0}, {"type": "note_off", "time": 39, "note": 61, "velocity": 106, "channel": 0}, {"type": "note_on", "time": 9, "note": 63, "velocity": 108, "channel": 0}, {"type": "note_off", "time": 9, "note": 63, "velocity": 108, "channel": 0}, {"type": "note_on", "time": 5, "note": 65, "velocity": 118, "channel": 0}, {"type": "note_off", "time": 146, "note": 65, "velocity": 118, "channel": 0}, {"type": "note_on", "time": 21, "note": 63, "velocity": 118, "channel": 0}, {"type": "note_off", "time": 94, "note": 63, "velocity": 118, "channel": 0}, {"type": "note_on", "time": 18, "note": 60, "velocity": 109, "channel": 0}, {"type": "note_off", "time": 152, "note": 60, "velocity": 109, "channel": 0}, {"type": "note_on", "time": 98, "note": 69, "velocity": 118, "channel": 0}, {"type": "note_off", "time": 44, "note": 69, "velocity": 118, "channel": 0}, {"type": "note_on", "time": 17, "note": 67, "velocity": 116, "channel": 0}, {"type": "note_off", "time": 38, "note": 67, "velocity": 116, "channel": 0}, {"type": "note_on", "time": 8, "note": 68, "velocity": 115, "channel": 0}, {"type": "note_off", "time": 50, "note": 68, "velocity": 115, "channel": 0}, {"type": "note_on", "time": 11, "note": 66, "velocity": 119, "channel": 0}, {"type": "note_off", "time": 33, "note": 66, "velocity": 119, "channel": 0}, {"type": "note_on", "time": 19, "note": 63, "velocity": 114, "channel": 0}, {"type": "note_off", "time": 38, "note": 63, "velocity": 114, "channel": 0}, {"type": "note_on", "time": 24, "note": 61, "velocity": 101, "channel": 0}, {"type": "note_off", "time": 27, "note": 61, "velocity": 101, "channel": 0}, {"type": "note_on", "time": 5, "note": 65, "velocity": 109, "channel": 0}, {"type": "note_off", "time": 51, "note": 65, "velocity": 109, "channel": 0}, {"type": "note_on", "time": 500, "note": 77, "velocity": 117, "channel": 0}, {"type": "note_off", "time": 22, "note": 77, "velocity": 117, "channel": 0}, {"type": "note_on", "time": 7, "note": 79, "velocity": 120, "channel": 0}, {"type": "note_off", "time": 39, "note": 79, "velocity": 120, "channel": 0}, {"type": "note_on", "time": 131, "note": 76, "velocity": 116, "channel": 0}, {"type": "note_off", "time": 207, "note": 76, "velocity": 116, "channel": 0}, {"type": "note_on", "time": 55, "note": 77, "velocity": 120, "channel": 0}, {"type": "note_off", "time": 81, "note": 77, "velocity": 120, "channel": 0}, {"type": "note_on", "time": 17, "note": 76, "velocity": 116, "channel": 0}, {"type": "note_off", "time": 64, "note": 76, "velocity": 116, "channel": 0}, {"type": "note_on", "time": 17, "note": 75, "velocity": 121, "channel": 0}, {"type": "note_off", "time": 90, "note": 75, "velocity": 121, "channel": 0}, {"type": "note_on", "time": 92, "note": 71, "velocity": 116, "channel": 0}, {"type": "note_off", "time": 112, "note": 71, "velocity": 116, "channel": 0}, {"type": "note_on", "time": 83, "note": 72, "velocity": 115, "channel": 0}, {"type": "note_off", "time": 104, "note": 72, "velocity": 115, "channel": 0}, {"type": "note_on", "time": 74, "note": 69, "velocity": 113, "channel": 0}, {"type": "note_off", "time": 173, "note": 69, "velocity": 113, "channel": 0}, {"type": "note_on", "time": 21, "note": 67, "velocity": 107, "channel": 0}, {"type": "note_off", "time": 98, "note": 67, "velocity": 107, "channel": 0}, {"type": "note_on", "time": 11, "note": 61, "velocity": 96, "channel": 0}, {"type": "note_off", "time": 76, "note": 61, "velocity": 96, "channel": 0}, {"type": "note_on", "time": 11, "note": 68, "velocity": 107, "channel": 0}, {"type": "note_off", "time": 169, "note": 68, "velocity": 107, "channel": 0}, {"type": "note_on", "time": 25, "note": 65, "velocity": 110, "channel": 0}, {"type": "note_off", "time": 104, "note": 65, "velocity": 110, "channel": 0}, {"type": "note_on", "time": 29, "note": 61, "velocity": 110, "channel": 0}, {"type": "note_off", "time": 89, "note": 61, "velocity": 110, "channel": 0}, {"type": "note_on", "time": 9, "note": 60, "velocity": 103, "channel": 0}, {"type": "note_off", "time": 150, "note": 60, "velocity": 103, "channel": 0}, {"type": "note_on", "time": 17, "note": 58, "velocity": 103, "channel": 0}, {"type": "note_off", "time": 81, "note": 58, "velocity": 103, "channel": 0}, {"type": "note_on", "time": 122, "note": 67, "velocity": 107, "channel": 0}, {"type": "note_off", "time": 187, "note": 67, "velocity": 107, "channel": 0}, {"type": "note_on", "time": 11, "note": 68, "velocity": 99, "channel": 0}, {"type": "note_off", "time": 74, "note": 68, "velocity": 99, "channel": 0}, {"type": "note_on", "time": 120, "note": 64, "velocity": 101, "channel": 0}, {"type": "note_off", "time": 304, "note": 64, "velocity": 101, "channel": 0}, {"type": "note_on", "time": 385, "note": 66, "velocity": 111, "channel": 0}, {"type": "note_off", "time": 15, "note": 66, "velocity": 111, "channel": 0}, {"type": "note_on", "time": 4, "note": 67, "velocity": 119, "channel": 0}, {"type": "note_off", "time": 17, "note": 67, "velocity": 119, "channel": 0}, {"type": "note_on", "time": 7, "note": 68, "velocity": 117, "channel": 0}, {"type": "note_off", "time": 280, "note": 68, "velocity": 117, "channel": 0}, {"type": "note_on", "time": 4, "note": 67, "velocity": 115, "channel": 0}, {"type": "note_off", "time": 60, "note": 67, "velocity": 115, "channel": 0}, {"type": "note_on", "time": 5, "note": 65, "velocity": 110, "channel": 0}, {"type": "note_off", "time": 52, "note": 65, "velocity": 110, "channel": 0}, {"type": "note_on", "time": 13, "note": 67, "velocity": 115, "channel": 0}, {"type": "note_off", "time": 138, "note": 67, "velocity": 115, "channel": 0}, {"type": "note_on", "time": 10, "note": 63, "velocity": 107, "channel": 0}, {"type": "note_off", "time": 203, "note": 63, "velocity": 107, "channel": 0}, {"type": "end_of_track", "time": 0}]]}