{"ticks_per_beat": 840, "tracks": [[{"type": "track_name", "name": "Melody", "time": 0}, {"type": "set_tempo", "tempo": 508474, "time": 0}, {"type": "time_signature", "numerator": 4, "denominator": 4, "clocks_per_click": 24, "notated_32nd_notes_per_beat": 8, "time": 0}, {"type": "note_on", "time": 11270, "note": 62, "velocity": 88, "channel": 0}, {"type": "note_off", "time": 215, "note": 62, "velocity": 88, "channel": 0}, {"type": "note_on", "time": 40, "note": 63, "velocity": 93, "channel": 0}, {"type": "note_off", "time": 171, "note": 63, "velocity": 93, "channel": 0}, {"type": "note_on", "time": 70, "note": 65, "velocity": 93, "channel": 0}, {"type": "note_off", "time": 209, "note": 65, "velocity": 93, "channel": 0}, {"type": "note_on", "time": 37, "note": 67, "velocity": 100, "channel": 0}, {"type": "note_off", "time": 610, "note": 67, "velocity": 100, "channel": 0}, {"type": "note_on", "time": 70, "note": 67, "velocity": 101, "channel": 0}, {"type": "note_off", "time": 107, "note": 67, "velocity": 101, "channel": 0}, {"type": "note_on", "time": 1776, "note": 80, "velocity": 117, "channel": 0}, {"type": "note_off", "time": 149, "note": 80, "velocity": 117, "channel": 0}, {"type": "note_on", "time": 26, "note": 82, "velocity": 108, "channel": 0}, {"type": "note_off", "time": 98, "note": 82, "velocity": 108, "channel": 0}, {"type": "note_on", "time": 19, "note": 79, "velocity": 114, "channel": 0}, {"type": "note_off", "time": 135, "note": 79, "velocity": 114, "channel": 0}, {"type": "note_on", "time": 43, "note": 77, "velocity": 121, "channel": 0}, {"type": "note_off", "time": 160, "note": 77, "velocity": 121, "channel": 0}, {"type": "note_on", "time": 77, "note": 75, "velocity": 120, "channel": 0}, {"type": "note_off", "time": 169, "note": 75, "velocity": 120, "channel": 0}, {"type": "note_on", "time": 20, "note": 74, "velocity": 122, "channel": 0}, {"type": "note_off", "time": 213, "note": 74, "velocity": 122, "channel": 0}, {"type": "note_on", "time": 11, "note": 72, "velocity": 120, "channel": 0}, {"type": "note_off", "time": 179, "note": 72, "velocity": 120, "channel": 0}, {"type": "note_on", "time": 31, "note": 71, "velocity": 111, "channel": 0}, {"type": "note_off", "time": 157, "note": 71, "velocity": 111, "channel": 0}, {"type": "note_on", "time": 47, "note": 68, "velocity": 115, "channel": 0}, {"type": "note_off", "time": 155, "note": 68, "velocity": 115, "channel": 0}, {"type": "note_on", "time": 20, "note": 67, "velocity": 115, "channel": 0}, {"type": "note_off", "time": 216, "note": 67, "velocity": 115, "channel": 0}, {"type": "note_on", "time": 38, "note": 65, "velocity": 110, "channel": 0}, {"type": "note_off", "time": 184, "note": 65, "velocity": 110, "channel": 0}, {"type": "note_on", "time": 43, "note": 63, "velocity": 108, "channel": 0}, {"type": "note_off", "time": 220, "note": 63, "velocity": 108, "channel": 0}, {"type": "note_on", "time": 57, "note": 62, "velocity": 102, "channel": 0}, {"type": "note_off", "time": 215, "note": 62, "velocity": 102, "channel": 0}, {"type": "note_on", "time": 33, "note": 60, "velocity": 91, "channel": 0}, {"type": "note_off", "time": 358, "note": 60, "velocity": 91, "channel": 0}, {"type": "note_on", "time": 281, "note": 60, "velocity": 89, "channel": 0}, {"type": "note_off", "time": 676, "note": 60, "velocity": 89, "channel": 0}, {"type": "note_on", "time": 151, "note": 62, "velocity": 92, "channel": 0}, {"type": "note_off", "time": 779, "note": 62, "velocity": 92, "channel": 0}, {"type": "note_on", "time": 38, "note": 63, "velocity": 96, "channel": 0}, {"type": "note_off", "time": 517, "note": 63, "velocity": 96, "channel": 0}, {"type": "note_on", "time": 71, "note": 62, "velocity": 86, "channel": 0}, {"type": "note_off", "time": 1440, "note": 62, "velocity": 86, "channel": 0}, {"type": "note_on", "time": 43, "note": 69, "velocity": 102, "channel": 0}, {"type": "note_off", "time": 73, "note": 69, "velocity": 102, "channel": 0}, {"type": "note_on", "time": 9, "note": 70, "velocity": 107, "channel": 0}, {"type": "note_off", "time": 101, "note": 70, "velocity": 107, "channel": 0}, {"type": "note_on", "time": 10, "note": 69, "velocity": 108, "channel": 0}, {"type": "note_off", "time": 68, "note": 69, "velocity": 108, "channel": 0}, {"type": "note_on", "time": 26, "note": 67, "velocity": 106, "channel": 0}, {"type": "note_off", "time": 167, "note": 67, "velocity": 106, "channel": 0}, {"type": "note_on", "time": 37, "note": 66, "velocity": 103, "channel": 0}, {"type": "note_off", "time": 151, "note": 66, "velocity": 103, "channel": 0}, {"type": "note_on", "time": 115, "note": 57, "velocity": 102, "channel": 0}, {"type": "note_off", "time": 134, "note": 57, "velocity": 102, "channel": 0}, {"type": "note_on", "time": 73, "note": 60, "velocity": 86, "channel": 0}, {"type": "note_off", "time": 121, "note": 60, "velocity": 86, "channel": 0}, {"type": "note_on", "time": 21, "note": 62, "velocity": 91, "channel": 0}, {"type": "note_off", "time": 147, "note": 62, "velocity": 91, "channel": 0}, {"type": "note_on", "time": 43, "note": 65, "velocity": 102, "channel": 0}, {"type": "note_off", "time": 420, "note": 65, "velocity": 102, "channel": 0}, {"type": "note_on", "time": 34, "note": 63, "velocity": 98, "channel": 0}, {"type": "note_off", "time": 136, "note": 63, "velocity": 98, "channel": 0}, {"type": "note_on", "time": 35, "note": 65, "velocity": 105, "channel": 0}, {"type": "note_off", "time": 139, "note": 65, "velocity": 105, "channel": 0}, {"type": "note_on", "time": 117, "note": 61, "velocity": 87, "channel": 0}, {"type": "note_off", "time": 451, "note": 61, "velocity": 87, "channel": 0}, {"type": "note_on", "time": 18, "note": 62, "velocity": 77, "channel": 0}, {"type": "note_off", "time": 1026, "note": 62, "velocity": 77, "channel": 0}, {"type": "note_on", "time": 1866, "note": 77, "velocity": 121, "channel": 0}, {"type": "note_off", "time": 228, "note": 77, "velocity": 121, "channel": 0}, {"type": "note_on", "time": 14, "note": 78, "velocity": 117, "channel": 0}, {"type": "note_off", "time": 180, "note": 78, "velocity": 117, "channel": 0}, {"type": "note_on", "time": 23, "note": 77, "velocity": 118, "channel": 0}, {"type": "note_off", "time": 216, "note": 77, "velocity": 118, "channel": 0}, {"type": "note_on", "time": 27, "note": 75, "velocity": 117, "channel": 0}, {"type": "note_off", "time": 216, "note": 75, "velocity": 117, "channel": 0}, {"type": "note_on", "time": 9, "note": 73, "velocity": 121, "channel": 0}, {"type": "note_off", "time": 178, "note": 73, "velocity": 121, "channel": 0}, {"type": "note_on", "time": 30, "note": 72, "velocity": 116, "channel": 0}, {"type": "note_off", "time": 180, "note": 72, "velocity": 116, "channel": 0}, {"type": "note_on", "time": 20, "note": 71, "velocity": 116, "channel": 0}, {"type": "note_off", "time": 176, "note": 71, "velocity": 116, "channel": 0}, {"type": "note_on", "time": 22, "note": 70, "velocity": 114, "channel": 0}, {"type": "note_off", "time": 189, "note": 70, "velocity": 114, "channel": 0}, {"type": "note_on", "time": 22, "note": 68, "velocity": 115, "channel": 0}, {"type": "note_off", "time": 191, "note": 68, "velocity": 115, "channel": 0}, {"type": "note_on", "time": 27, "note": 65, "velocity": 107, "channel": 0}, {"type": "note_off", "time": 178, "note": 65, "velocity": 107, "channel": 0}, {"type": "note_on", "time": 49, "note": 61, "velocity": 103, "channel": 0}, {"type": "note_off", "time": 203, "note": 61, "velocity": 103, "channel": 0}, {"type": "note_on", "time": 13, "note": 58, "velocity": 88, "channel": 0}, {"type": "note_off", "time": 162, "note": 58, "velocity": 88, "channel": 0}, {"type": "note_on", "time": 48, "note": 63, "velocity": 106, "channel": 0}, {"type": "note_off", "time": 1148, "note": 63, "velocity": 106, "channel": 0}, {"type": "note_on", "time": 12, "note": 73, "velocity": 121, "channel": 0}, {"type": "note_off", "time": 227, "note": 73, "velocity": 121, "channel": 0}, {"type": "note_on", "time": 19, "note": 71, "velocity": 117, "channel": 0}, {"type": "note_off", "time": 187, "note": 71, "velocity": 117, "channel": 0}, {"type": "note_on", "time": 19, "note": 72, "velocity": 119, "channel": 0}, {"type": "note_off", "time": 183, "note": 72, "velocity": 119, "channel": 0}, {"type": "note_on", "time": 10, "note": 68, "velocity": 115, "channel": 0}, {"type": "note_off", "time": 175, "note": 68, "velocity": 115, "channel": 0}, {"type": "note_on", "time": 9, "note": 65, "velocity": 106, "channel": 0}, {"type": "note_off", "time": 258, "note": 65, "velocity": 106, "channel": 0}, {"type": "note_on", "time": 123, "note": 70, "velocity": 113, "channel": 0}, {"type": "note_off", "time": 619, "note": 70, "velocity": 113, "channel": 0}, {"type": "note_on", "time": 10, "note": 67, "velocity": 98, "channel": 0}, {"type": "note_off", "time": 143, "note": 67, "velocity": 98, "channel": 0}, {"type": "note_on", "time": 45, "note": 68, "velocity": 111, "channel": 0}, {"type": "note_off", "time": 216, "note": 68, "velocity": 111, "channel": 0}, {"type": "note_on", "time": 62, "note": 65, "velocity": 99, "channel": 0}, {"type": "note_off", "time": 182, "note": 65, "velocity": 99, "channel": 0}, {"type": "note_on", "time": 4237, "note": 79, "velocity": 117, "channel": 0}, {"type": "note_off", "time": 394, "note": 79, "velocity": 117, "channel": 0}, {"type": "note_on", "time": 208, "note": 79, "velocity": 114, "channel": 0}, {"type": "note_off", "time": 415, "note": 79, "velocity": 114, "channel": 0}, {"type": "note_on", "time": 161, "note": 79, "velocity": 117, "channel": 0}, {"type": "note_off", "time": 782, "note": 79, "velocity": 117, "channel": 0}, {"type": "note_on", "time": 50, "note": 79, "velocity": 119, "channel": 0}, {"type": "note_off", "time": 529, "note": 79, "velocity": 119, "channel": 0}, {"type": "note_on", "time": 220, "note": 79, "velocity": 116, "channel": 0}, {"type": "note_off", "time": 856, "note": 79, "velocity": 116, "channel": 0}, {"type": "note_on", "time": 42, "note": 79, "velocity": 120, "channel": 0}, {"type": "note_off", "time": 527, "note": 79, "velocity": 120, "channel": 0}, {"type": "note_on", "time": 207, "note": 79, "velocity": 118, "channel": 0}, {"type": "note_off", "time": 839, "note": 79, "velocity": 118, "channel": 0}, {"type": "note_on", "time": 42, "note": 79, "velocity": 121, "channel": 0}, {"type": "note_off", "time": 647, "note": 79, "velocity": 121, "channel": 0}, {"type": "note_on", "time": 145, "note": 79, "velocity": 122, "channel": 0}, {"type": "note_off", "time": 220, "note": 79, "velocity": 122, "channel": 0}, {"type": "note_on", "time": 17, "note": 77, "velocity": 125, "channel": 0}, {"type": "note_off", "time": 173, "note": 77, "velocity": 125, "channel": 0}, {"type": "note_on", "time": 38, "note": 75, "velocity": 124, "channel": 0}, {"type": "note_off", "time": 214, "note": 75, "velocity": 124, "channel": 0}, {"type": "note_on", "time": 14, "note": 74, "velocity": 124, "channel": 0}, {"type": "note_off", "time": 311, "note": 74, "velocity": 124, "channel": 0}, {"type": "note_on", "time": 6, "note": 72, "velocity": 117, "channel": 0}, {"type": "note_off", "time": 1567, "note": 72, "velocity": 117, "channel": 0}, {"type": "note_on", "time": 37, "note": 70, "velocity": 114, "channel": 0}, {"type": "note_off", "time": 101, "note": 70, "velocity": 114, "channel": 0}, {"type": "note_on", "time": 28, "note": 69, "velocity": 114, "channel": 0}, {"type": "note_off", "time": 117, "note": 69, "velocity": 114, "channel": 0}, {"type": "note_on", "time": 22, "note": 67, "velocity": 114, "channel": 0}, {"type": "note_off", "time": 146, "note": 67, "velocity": 114, "channel": 0}, {"type": "note_on", "time": 26, "note": 66, "velocity": 111, "channel": 0}, {"type": "note_off", "time": 185, "note": 66, "velocity": 111, "channel": 0}, {"type": "note_on", "time": 59, "note": 75, "velocity": 120, "channel": 0}, {"type": "note_off", "time": 244, "note": 75, "velocity": 120, "channel": 0}, {"type": "note_on", "time": 19, "note": 74, "velocity": 122, "channel": 0}, {"type": "note_off", "time": 479, "note": 74, "velocity": 122, "channel": 0}, {"type": "note_on", "time": 4, "note": 66, "velocity": 103, "channel": 0}, {"type": "note_off", "time": 316, "note": 66, "velocity": 103, "channel": 0}, {"type": "note_on", "time": 2409, "note": 62, "velocity": 87, "channel": 0}, {"type": "note_off", "time": 565, "note": 62, "velocity": 87, "channel": 0}, {"type": "note_on", "time": 205, "note": 69, "velocity": 106, "channel": 0}, {"type": "note_off", "time": 421, "note": 69, "velocity": 106, "channel": 0}, {"type": "note_on", "time": 411, "note": 69, "velocity": 105, "channel": 0}, {"type": "note_off", "time": 343, "note": 69, "velocity": 105, "channel": 0}, {"type": "note_on", "time": 455, "note": 69, "velocity": 108, "channel": 0}, {"type": "note_off", "time": 519, "note": 69, "velocity": 108, "channel": 0}, {"type": "note_on", "time": 296, "note": 69, "velocity": 107, "channel": 0}, {"type": "note_off", "time": 445, "note": 69, "velocity": 107, "channel": 0}, {"type": "note_on", "time": 380, "note": 69, "velocity": 107, "channel": 0}, {"type": "note_off", "time": 536, "note": 69, "velocity": 107, "channel": 0}, {"type": "note_on", "time": 353, "note": 69, "velocity": 104, "channel": 0}, {"type": "note_off", "time": 445, "note": 69, "velocity": 104, "channel": 0}, {"type": "note_on", "time": 397, "note": 69, "velocity": 105, "channel": 0}, {"type": "note_off", "time": 475, "note": 69, "velocity": 105, "channel": 0}, {"type": "note_on", "time": 433, "note": 69, "velocity": 110, "channel": 0}, {"type": "note_off", "time": 158, "note": 69, "velocity": 110, "channel": 0}, {"type": "note_on", "time": 40, "note": 71, "velocity": 105, "channel": 0}, {"type": "note_off", "time": 256, "note": 71, "velocity": 105, "channel": 0}, {"type": "note_on", "time": 74, "note": 68, "velocity": 96, "channel": 0}, {"type": "note_off", "time": 4301, "note": 68, "velocity": 96, "channel": 0}, {"type": "note_on", "time": 69, "note": 67, "velocity": 98, "channel": 0}, {"type": "note_off", "time": 207, "note": 67, "velocity": 98, "channel": 0}, {"type": "note_on", "time": 59, "note": 65, "velocity": 100, "channel": 0}, {"type": "note_off", "time": 191, "note": 65, "velocity": 100, "channel": 0}, {"type": "note_on", "time": 34, "note": 63, "velocity": 104, "channel": 0}, {"type": "note_off", "time": 196, "note": 63, "velocity": 104, "channel": 0}, {"type": "note_on", "time": 15, "note": 62, "velocity": 96, "channel": 0}, {"type": "note_off", "time": 121, "note": 62, "velocity": 96, "channel": 0}, {"type": "note_on", "time": 13, "note": 60, "velocity": 92, "channel": 0}, {"type": "note_off", "time": 134, "note": 60, "velocity": 92, "channel": 0}, {"type": "note_on", "time": 28, "note": 62, "velocity": 97, "channel": 0}, {"type": "note_off", "time": 173, "note": 62, "velocity": 97, "channel": 0}, {"type": "note_on", "time": 43, "note": 63, "velocity": 101, "channel": 0}, {"type": "note_off", "time": 172, "note": 63, "velocity": 101, "channel": 0}, {"type": "note_on", "time": 33, "note": 65, "velocity": 97, "channel": 0}, {"type": "note_off", "time": 122, "note": 65, "velocity": 97, "channel": 0}, {"type": "note_on", "time": 55, "note": 67, "velocity": 104, "channel": 0}, {"type": "note_off", "time": 197, "note": 67, "velocity": 104, "channel": 0}, {"type": "note_on", "time": 17, "note": 63, "velocity": 99, "channel": 0}, {"type": "note_off", "time": 146, "note": 63, "velocity": 99, "channel": 0}, {"type": "note_on", "time": 39, "note": 60, "velocity": 88, "channel": 0}, {"type": "note_off", "time": 149, "note": 60, "velocity": 88, "channel": 0}, {"type": "note_on", "time": 58, "note": 65, "velocity": 106, "channel": 0}, {"type": "note_off", "time": 173, "note": 65, "velocity": 106, "channel": 0}, {"type": "note_on", "time": 47, "note": 63, "velocity": 94, "channel": 0}, {"type": "note_off", "time": 142, "note": 63, "velocity": 94, "channel": 0}, {"type": "note_on", "time": 31, "note": 65, "velocity": 99, "channel": 0}, {"type": "note_off", "time": 153, "note": 65, "velocity": 99, "channel": 0}, {"type": "note_on", "time": 15, "note": 67, "velocity": 100, "channel": 0}, {"type": "note_off", "time": 181, "note": 67, "velocity": 100, "channel": 0}, {"type": "note_on", "time": 65, "note": 70, "velocity": 85, "channel": 0}, {"type": "note_off", "time": 81, "note": 70, "velocity": 85, "channel": 0}, {"type": "note_on", "time": 55, "note": 74, "velocity": 115, "channel": 0}, {"type": "note_off", "time": 207, "note": 74, "velocity": 115, "channel": 0}, {"type": "note_on", "time": 27, "note": 70, "velocity": 106, "channel": 0}, {"type": "note_off", "time": 164, "note": 70, "velocity": 106, "channel": 0}, {"type": "note_on", "time": 50, "note": 67, "velocity": 107, "channel": 0}, {"type": "note_off", "time": 191, "note": 67, "velocity": 107, "channel": 0}, {"type": "note_on", "time": 60, "note": 63, "velocity": 74, "channel": 0}, {"type": "note_off", "time": 76, "note": 63, "velocity": 74, "channel": 0}, {"type": "note_on", "time": 102, "note": 72, "velocity": 108, "channel": 0}, {"type": "note_off", "time": 157, "note": 72, "velocity": 108, "channel": 0}, {"type": "note_on", "time": 70, "note": 72, "velocity": 102, "channel": 0}, {"type": "note_off", "time": 187, "note": 72, "velocity": 102, "channel": 0}, {"type": "note_on", "time": 2843, "note": 66, "velocity": 106, "channel": 0}, {"type": "note_off", "time": 227, "note": 66, "velocity": 106, "channel": 0}, {"type": "note_on", "time": 99, "note": 65, "velocity": 102, "channel": 0}, {"type": "note_off", "time": 156, "note": 65, "velocity": 102, "channel": 0}, {"type": "note_on", "time": 81, "note": 67, "velocity": 106, "channel": 0}, {"type": "note_off", "time": 187, "note": 67, "velocity": 106, "channel": 0}, {"type": "note_on", "time": 57, "note": 65, "velocity": 107, "channel": 0}, {"type": "note_off", "time": 149, "note": 65, "velocity": 107, "channel": 0}, {"type": "note_on", "time": 87, "note": 67, "velocity": 105, "channel": 0}, {"type": "note_off", "time": 192, "note": 67, "velocity": 105, "channel": 0}, {"type": "note_on", "time": 93, "note": 60, "velocity": 90, "channel": 0}, {"type": "note_off", "time": 153, "note": 60, "velocity": 90, "channel": 0}, {"type": "note_on", "time": 51, "note": 63, "velocity": 88, "channel": 0}, {"type": "note_off", "time": 942, "note": 63, "velocity": 88, "channel": 0}, {"type": "note_on", "time": 5579, "note": 77, "velocity": 116, "channel": 0}, {"type": "note_off", "time": 276, "note": 77, "velocity": 116, "channel": 0}, {"type": "note_on", "time": 32, "note": 73, "velocity": 117, "channel": 0}, {"type": "note_off", "time": 527, "note": 73, "velocity": 117, "channel": 0}, {"type": "note_on", "time": 25, "note": 72, "velocity": 116, "channel": 0}, {"type": "note_off", "time": 1055, "note": 72, "velocity": 116, "channel": 0}, {"type": "note_on", "time": 64, "note": 70, "velocity": 117, "channel": 0}, {"type": "note_off", "time": 370, "note": 70, "velocity": 117, "channel": 0}, {"type": "note_on", "time": 450, "note": 76, "velocity": 118, "channel": 0}, {"type": "note_off", "time": 483, "note": 76, "velocity": 118, "channel": 0}, {"type": "note_on", "time": 40, "note": 72, "velocity": 117, "channel": 0}, {"type": "note_off", "time": 284, "note": 72, "velocity": 117, "channel": 0}, {"type": "note_on", "time": 35, "note": 69, "velocity": 113, "channel": 0}, {"type": "note_off", "time": 559, "note": 69, "velocity": 113, "channel": 0}, {"type": "note_on", "time": 23, "note": 64, "velocity": 103, "channel": 0}, {"type": "note_off", "time": 251, "note": 64, "velocity": 103, "channel": 0}, {"type": "note_on", "time": 25, "note": 67, "velocity": 115, "channel": 0}, {"type": "note_off", "time": 482, "note": 67, "velocity": 115, "channel": 0}, {"type": "note_on", "time": 114, "note": 64, "velocity": 103, "channel": 0}, {"type": "note_off", "time": 131, "note": 64, "velocity": 103, "channel": 0}, {"type": "note_on", "time": 96, "note": 66, "velocity": 110, "channel": 0}, {"type": "note_off", "time": 333, "note": 66, "velocity": 110, "channel": 0}, {"type": "note_on", "time": 151, "note": 74, "velocity": 125, "channel": 0}, {"type": "note_off", "time": 433, "note": 74, "velocity": 125, "channel": 0}, {"type": "note_on", "time": 106, "note": 74, "velocity": 125, "channel": 0}, {"type": "note_off", "time": 230, "note": 74, "velocity": 125, "channel": 0}, {"type": "note_on", "time": 23, "note": 76, "velocity": 117, "channel": 0}, {"type": "note_off", "time": 239, "note": 76, "velocity": 117, "channel": 0}, {"type": "note_on", "time": 18, "note": 74, "velocity": 123, "channel": 0}, {"type": "note_off", "time": 290, "note": 74, "velocity": 123, "channel": 0}, {"type": "note_on", "time": 28, "note": 71, "velocity": 110, "channel": 0}, {"type": "note_off", "time": 1493, "note": 71, "velocity": 110, "channel": 0}, {"type": "note_on", "time": 32, "note": 69, "velocity": 108, "channel": 0}, {"type": "note_off", "time": 182, "note": 69, "velocity": 108, "channel": 0}, {"type": "note_on", "time": 14, "note": 70, "velocity": 108, "channel": 0}, {"type": "note_off", "time": 69, "note": 70, "velocity": 108, "channel": 0}, {"type": "note_on", "time": 19, "note": 69, "velocity": 109, "channel": 0}, {"type": "note_off", "time": 135, "note": 69, "velocity": 109, "channel": 0}, {"type": "note_on", "time": 27, "note": 66, "velocity": 102, "channel": 0}, {"type": "note_off", "time": 182, "note": 66, "velocity": 102, "channel": 0}, {"type": "note_on", "time": 74, "note": 69, "velocity": 110, "channel": 0}, {"type": "note_off", "time": 179, "note": 69, "velocity": 110, "channel": 0}, {"type": "note_on", "time": 262, "note": 68, "velocity": 107, "channel": 0}, {"type": "note_off", "time": 451, "note": 68, "velocity": 107, "channel": 0}, {"type": "note_on", "time": 299, "note": 59, "velocity": 100, "channel": 0}, {"type": "note_off", "time": 107, "note": 59, "velocity": 100, "channel": 0}, {"type": "note_on", "time": 37, "note": 62, "velocity": 97, "channel": 0}, {"type": "note_off", "time": 221, "note": 62, "velocity": 97, "channel": 0}, {"type": "note_on", "time": 23, "note": 64, "velocity": 102, "channel": 0}, {"type": "note_off", "time": 228, "note": 64, "velocity": 102, "channel": 0}, {"type": "note_on", "time": 71, "note": 65, "velocity": 127, "channel": 0}, {"type": "note_off", "time": 539, "note": 65, "velocity": 127, "channel": 0}, {"type": "note_on", "time": 21, "note": 64, "velocity": 104, "channel": 0}, {"type": "note_off", "time": 809, "note": 64, "velocity": 104, "channel": 0}, {"type": "note_on", "time": 123, "note": 62, "velocity": 101, "channel": 0}, {"type": "note_off", "time": 187, "note": 62, "velocity": 101, "channel": 0}, {"type": "note_on", "time": 45, "note": 64, "velocity": 89, "channel": 0}, {"type": "note_off", "time": 416, "note": 64, "velocity": 89, "channel": 0}, {"type": "note_on", "time": 112, "note": 69, "velocity": 100, "channel": 0}, {"type": "note_off", "time": 772, "note": 69, "velocity": 100, "channel": 0}, {"type": "note_on", "time": 3205, "note": 78, "velocity": 117, "channel": 0}, {"type": "note_off", "time": 210, "note": 78, "velocity": 117, "channel": 0}, {"type": "note_on", "time": 28, "note": 80, "velocity": 118, "channel": 0}, {"type": "note_off", "time": 166, "note": 80, "velocity": 118, "channel": 0}, {"type": "note_on", "time": 37, "note": 82, "velocity": 119, "channel": 0}, {"type": "note_off", "time": 185, "note": 82, "velocity": 119, "channel": 0}, {"type": "note_on", "time": 33, "note": 80, "velocity": 118, "channel": 0}, {"type": "note_off", "time": 179, "note": 80, "velocity": 118, "channel": 0}, {"type": "note_on", "time": 17, "note": 78, "velocity": 115, "channel": 0}, {"type": "note_off", "time": 192, "note": 78, "velocity": 115, "channel": 0}, {"type": "note_on", "time": 16, "note": 77, "velocity": 121, "channel": 0}, {"type": "note_off", "time": 195, "note": 77, "velocity": 121, "channel": 0}, {"type": "note_on", "time": 29, "note": 76, "velocity": 119, "channel": 0}, {"type": "note_off", "time": 212, "note": 76, "velocity": 119, "channel": 0}, {"type": "note_on", "time": 20, "note": 75, "velocity": 117, "channel": 0}, {"type": "note_off", "time": 201, "note": 75, "velocity": 117, "channel": 0}, {"type": "note_on", "time": 15, "note": 74, "velocity": 122, "channel": 0}, {"type": "note_off", "time": 207, "note": 74, "velocity": 122, "channel": 0}, {"type": "note_on", "time": 14, "note": 73, "velocity": 117, "channel": 0}, {"type": "note_off", "time": 173, "note": 73, "velocity": 117, "channel": 0}, {"type": "note_on", "time": 27, "note": 71, "velocity": 114, "channel": 0}, {"type": "note_off", "time": 165, "note": 71, "velocity": 114, "channel": 0}, {"type": "note_on", "time": 45, "note": 67, "velocity": 113, "channel": 0}, {"type": "note_off", "time": 124, "note": 67, "velocity": 113, "channel": 0}, {"type": "note_on", "time": 44, "note": 62, "velocity": 95, "channel": 0}, {"type": "note_off", "time": 299, "note": 62, "velocity": 95, "channel": 0}, {"type": "note_on", "time": 111, "note": 69, "velocity": 107, "channel": 0}, {"type": "note_off", "time": 55, "note": 69, "velocity": 107, "channel": 0}, {"type": "note_on", "time": 12, "note": 70, "velocity": 114, "channel": 0}, {"type": "note_off", "time": 67, "note": 70, "velocity": 114, "channel": 0}, {"type": "note_on", "time": 5, "note": 69, "velocity": 115, "channel": 0}, {"type": "note_off", "time": 79, "note": 69, "velocity": 115, "channel": 0}, {"type": "note_on", "time": 14, "note": 66, "velocity": 107, "channel": 0}, {"type": "note_off", "time": 155, "note": 66, "velocity": 107, "channel": 0}, {"type": "note_on", "time": 41, "note": 62, "velocity": 101, "channel": 0}, {"type": "note_off", "time": 224, "note": 62, "velocity": 101, "channel": 0}, {"type": "note_on", "time": 25, "note": 59, "velocity": 83, "channel": 0}, {"type": "note_off", "time": 130, "note": 59, "velocity": 83, "channel": 0}, {"type": "note_on", "time": 34, "note": 68, "velocity": 9, "channel": 0}, {"type": "note_off", "time": 216, "note": 68, "velocity": 9, "channel": 0}, {"type": "note_on", "time": 16, "note": 64, "velocity": 9, "channel": 0}, {"type": "note_off", "time": 176, "note": 64, "velocity": 9, "channel": 0}, {"type": "note_on", "time": 61, "note": 61, "velocity": 99, "channel": 0}, {"type": "note_off", "time": 151, "note": 61, "velocity": 99, "channel": 0}, {"type": "note_on", "time": 79, "note": 57, "velocity": 93, "channel": 0}, {"type": "note_off", "time": 93, "note": 57, "velocity": 93, "channel": 0}, {"type": "note_on", "time": 83, "note": 66, "velocity": 107, "channel": 0}, {"type": "note_off", "time": 869, "note": 66, "velocity": 107, "channel": 0}, {"type": "note_on", "time": 1829, "note": 74, "velocity": 122, "channel": 0}, {"type": "note_off", "time": 225, "note": 74, "velocity": 122, "channel": 0}, {"type": "note_on", "time": 55, "note": 74, "velocity": 119, "channel": 0}, {"type": "note_off", "time": 158, "note": 74, "velocity": 119, "channel": 0}, {"type": "note_on", "time": 47, "note": 74, "velocity": 124, "channel": 0}, {"type": "note_off", "time": 289, "note": 74, "velocity": 124, "channel": 0}, {"type": "note_on", "time": 74, "note": 74, "velocity": 120, "channel": 0}, {"type": "note_off", "time": 160, "note": 74, "velocity": 120, "channel": 0}, {"type": "note_on", "time": 57, "note": 74, "velocity": 124, "channel": 0}, {"type": "note_off", "time": 288, "note": 74, "velocity": 124, "channel": 0}, {"type": "note_on", "time": 80, "note": 74, "velocity": 124, "channel": 0}, {"type": "note_off", "time": 217, "note": 74, "velocity": 124, "channel": 0}, {"type": "note_on", "time": 67, "note": 74, "velocity": 126, "channel": 0}, {"type": "note_off", "time": 203, "note": 74, "velocity": 126, "channel": 0}, {"type": "note_on", "time": 31, "note": 71, "velocity": 116, "channel": 0}, {"type": "note_off", "time": 275, "note": 71, "velocity": 116, "channel": 0}, {"type": "note_on", "time": 38, "note": 69, "velocity": 109, "channel": 0}, {"type": "note_off", "time": 2181, "note": 69, "velocity": 109, "channel": 0}, {"type": "note_on", "time": 17, "note": 66, "velocity": 101, "channel": 0}, {"type": "note_off", "time": 175, "note": 66, "velocity": 101, "channel": 0}, {"type": "note_on", "time": 67, "note": 62, "velocity": 95, "channel": 0}, {"type": "note_off", "time": 128, "note": 62, "velocity": 95, "channel": 0}, {"type": "note_on", "time": 40, "note": 64, "velocity": 93, "channel": 0}, {"type": "note_off", "time": 809, "note": 64, "velocity": 93, "channel": 0}, {"type": "note_on", "time": 2992, "note": 58, "velocity": 101, "channel": 0}, {"type": "note_off", "time": 116, "note": 58, "velocity": 101, "channel": 0}, {"type": "note_on", "time": 30, "note": 60, "velocity": 100, "channel": 0}, {"type": "note_off", "time": 157, "note": 60, "velocity": 100, "channel": 0}, {"type": "note_on", "time": 40, "note": 61, "velocity": 96, "channel": 0}, {"type": "note_off", "time": 156, "note": 61, "velocity": 96, "channel": 0}, {"type": "note_on", "time": 66, "note": 63, "velocity": 108, "channel": 0}, {"type": "note_off", "time": 196, "note": 63, "velocity": 108, "channel": 0}, {"type": "note_on", "time": 13, "note": 65, "velocity": 107, "channel": 0}, {"type": "note_off", "time": 151, "note": 65, "velocity": 107, "channel": 0}, {"type": "note_on", "time": 19, "note": 67, "velocity": 113, "channel": 0}, {"type": "note_off", "time": 201, "note": 67, "velocity": 113, "channel": 0}, {"type": "note_on", "time": 13, "note": 68, "velocity": 112, "channel": 0}, {"type": "note_off", "time": 147, "note": 68, "velocity": 112, "channel": 0}, {"type": "note_on", "time": 42, "note": 70, "velocity": 106, "channel": 0}, {"type": "note_off", "time": 164, "note": 70, "velocity": 106, "channel": 0}, {"type": "note_on", "time": 31, "note": 72, "velocity": 113, "channel": 0}, {"type": "note_off", "time": 213, "note": 72, "velocity": 113, "channel": 0}, {"type": "note_on", "time": 18, "note": 68, "velocity": 100, "channel": 0}, {"type": "note_off", "time": 148, "note": 68, "velocity": 100, "channel": 0}, {"type": "note_on", "time": 27, "note": 70, "velocity": 114, "channel": 0}, {"type": "note_off", "time": 157, "note": 70, "velocity": 114, "channel": 0}, {"type": "note_on", "time": 41, "note": 67, "velocity": 107, "channel": 0}, {"type": "note_off", "time": 185, "note": 67, "velocity": 107, "channel": 0}, {"type": "note_on", "time": 31, "note": 63, "velocity": 108, "channel": 0}, {"type": "note_off", "time": 142, "note": 63, "velocity": 108, "channel": 0}, {"type": "note_on", "time": 263, "note": 70, "velocity": 112, "channel": 0}, {"type": "note_off", "time": 273, "note": 70, "velocity": 112, "channel": 0}, {"type": "note_on", "time": 182, "note": 70, "velocity": 108, "channel": 0}, {"type": "note_off", "time": 287, "note": 70, "velocity": 108, "channel": 0}, {"type": "note_on", "time": 122, "note": 70, "velocity": 114, "channel": 0}, {"type": "note_off", "time": 322, "note": 70, "velocity": 114, "channel": 0}, {"type": "note_on", "time": 130, "note": 70, "velocity": 116, "channel": 0}, {"type": "note_off", "time": 334, "note": 70, "velocity": 116, "channel": 0}, {"type": "note_on", "time": 67, "note": 70, "velocity": 116, "channel": 0}, {"type": "note_off", "time": 257, "note": 70, "velocity": 116, "channel": 0}, {"type": "note_on", "time": 15, "note": 71, "velocity": 112, "channel": 0}, {"type": "note_off", "time": 275, "note": 71, "velocity": 112, "channel": 0}, {"type": "note_on", "time": 15, "note": 70, "velocity": 115, "channel": 0}, {"type": "note_off", "time": 800, "note": 70, "velocity": 115, "channel": 0}, {"type": "note_on", "time": 43, "note": 67, "velocity": 108, "channel": 0}, {"type": "note_off", "time": 167, "note": 67, "velocity": 108, "channel": 0}, {"type": "note_on", "time": 39, "note": 70, "velocity": 116, "channel": 0}, {"type": "note_off", "time": 242, "note": 70, "velocity": 116, "channel": 0}, {"type": "note_on", "time": 38, "note": 67, "velocity": 116, "channel": 0}, {"type": "note_off", "time": 200, "note": 67, "velocity": 116, "channel": 0}, {"type": "note_on", "time": 34, "note": 63, "velocity": 109, "channel": 0}, {"type": "note_off", "time": 269, "note": 63, "velocity": 109, "channel": 0}, {"type": "note_on", "time": 26, "note": 58, "velocity": 99, "channel": 0}, {"type": "note_off", "time": 158, "note": 58, "velocity": 99, "channel": 0}, {"type": "note_on", "time": 95, "note": 70, "velocity": 116, "channel": 0}, {"type": "note_off", "time": 195, "note": 70, "velocity": 116, "channel": 0}, {"type": "note_on", "time": 34, "note": 67, "velocity": 111, "channel": 0}, {"type": "note_off", "time": 237, "note": 67, "velocity": 111, "channel": 0}, {"type": "note_on", "time": 40, "note": 63, "velocity": 110, "channel": 0}, {"type": "note_off", "time": 175, "note": 63, "velocity": 110, "channel": 0}, {"type": "note_on", "time": 77, "note": 58, "velocity": 96, "channel": 0}, {"type": "note_off", "time": 153, "note": 58, "velocity": 96, "channel": 0}, {"type": "note_on", "time": 56, "note": 70, "velocity": 111, "channel": 0}, {"type": "note_off", "time": 267, "note": 70, "velocity": 111, "channel": 0}, {"type": "note_on", "time": 19, "note": 67, "velocity": 112, "channel": 0}, {"type": "note_off", "time": 228, "note": 67, "velocity": 112, "channel": 0}, {"type": "note_on", "time": 31, "note": 63, "velocity": 110, "channel": 0}, {"type": "note_off", "time": 221, "note": 63, "velocity": 110, "channel": 0}, {"type": "note_on", "time": 37, "note": 58, "velocity": 94, "channel": 0}, {"type": "note_off", "time": 112, "note": 58, "velocity": 94, "channel": 0}, {"type": "note_on", "time": 148, "note": 70, "velocity": 114, "channel": 0}, {"type": "note_off", "time": 266, "note": 70, "velocity": 114, "channel": 0}, {"type": "note_on", "time": 23, "note": 67, "velocity": 108, "channel": 0}, {"type": "note_off", "time": 191, "note": 67, "velocity": 108, "channel": 0}, {"type": "note_on", "time": 27, "note": 63, "velocity": 113, "channel": 0}, {"type": "note_off", "time": 237, "note": 63, "velocity": 113, "channel": 0}, {"type": "note_on", "time": 52, "note": 58, "velocity": 97, "channel": 0}, {"type": "note_off", "time": 170, "note": 58, "velocity": 97, "channel": 0}, {"type": "note_on", "time": 69, "note": 70, "velocity": 114, "channel": 0}, {"type": "note_off", "time": 198, "note": 70, "velocity": 114, "channel": 0}, {"type": "note_on", "time": 23, "note": 67, "velocity": 113, "channel": 0}, {"type": "note_off", "time": 226, "note": 67, "velocity": 113, "channel": 0}, {"type": "note_on", "time": 17, "note": 63, "velocity": 112, "channel": 0}, {"type": "note_off", "time": 185, "note": 63, "velocity": 112, "channel": 0}, {"type": "note_on", "time": 71, "note": 58, "velocity": 99, "channel": 0}, {"type": "note_off", "time": 166, "note": 58, "velocity": 99, "channel": 0}, {"type": "note_on", "time": 97, "note": 70, "velocity": 113, "channel": 0}, {"type": "note_off", "time": 222, "note": 70, "velocity": 113, "channel": 0}, {"type": "note_on", "time": 23, "note": 67, "velocity": 110, "channel": 0}, {"type": "note_off", "time": 221, "note": 67, "velocity": 110, "channel": 0}, {"type": "note_on", "time": 62, "note": 63, "velocity": 107, "channel": 0}, {"type": "note_off", "time": 230, "note": 63, "velocity": 107, "channel": 0}, {"type": "note_on", "time": 240, "note": 65, "velocity": 104, "channel": 0}, {"type": "note_off", "time": 1262, "note": 65, "velocity": 104, "channel": 0}, {"type": "note_on", "time": 67, "note": 63, "velocity": 101, "channel": 0}, {"type": "note_off", "time": 481, "note": 63, "velocity": 101, "channel": 0}, {"type": "note_on", "time": 15, "note": 60, "velocity": 110, "channel": 0}, {"type": "note_off", "time": 79, "note": 60, "velocity": 110, "channel": 0}, {"type": "note_on", "time": 13, "note": 63, "velocity": 101, "channel": 0}, {"type": "note_off", "time": 98, "note": 63, "velocity": 101, "channel": 0}, {"type": "note_on", "time": 8, "note": 65, "velocity": 100, "channel": 0}, {"type": "note_off", "time": 565, "note": 65, "velocity": 100, "channel": 0}, {"type": "note_on", "time": 2846, "note": 77, "velocity": 120, "channel": 0}, {"type": "note_off", "time": 110, "note": 77, "velocity": 120, "channel": 0}, {"type": "note_on", "time": 12, "note": 76, "velocity": 119, "channel": 0}, {"type": "note_off", "time": 112, "note": 76, "velocity": 119, "channel": 0}, {"type": "note_on", "time": 20, "note": 75, "velocity": 117, "channel": 0}, {"type": "note_off", "time": 148, "note": 75, "velocity": 117, "channel": 0}, {"type": "note_on", "time": 18, "note": 74, "velocity": 117, "channel": 0}, {"type": "note_off", "time": 173, "note": 74, "velocity": 117, "channel": 0}, {"type": "note_on", "time": 21, "note": 69, "velocity": 107, "channel": 0}, {"type": "note_off", "time": 152, "note": 69, "velocity": 107, "channel": 0}, {"type": "note_on", "time": 46, "note": 70, "velocity": 110, "channel": 0}, {"type": "note_off", "time": 166, "note": 70, "velocity": 110, "channel": 0}, {"type": "note_on", "time": 17, "note": 68, "velocity": 115, "channel": 0}, {"type": "note_off", "time": 198, "note": 68, "velocity": 115, "channel": 0}, {"type": "note_on", "time": 19, "note": 67, "velocity": 115, "channel": 0}, {"type": "note_off", "time": 196, "note": 67, "velocity": 115, "channel": 0}, {"type": "note_on", "time": 43, "note": 66, "velocity": 114, "channel": 0}, {"type": "note_off", "time": 161, "note": 66, "velocity": 114, "channel": 0}, {"type": "note_on", "time": 28, "note": 65, "velocity": 116, "channel": 0}, {"type": "note_off", "time": 195, "note": 65, "velocity": 116, "channel": 0}, {"type": "note_on", "time": 23, "note": 63, "velocity": 111, "channel": 0}, {"type": "note_off", "time": 196, "note": 63, "velocity": 111, "channel": 0}, {"type": "note_on", "time": 28, "note": 62, "velocity": 103, "channel": 0}, {"type": "note_off", "time": 174, "note": 62, "velocity": 103, "channel": 0}, {"type": "note_on", "time": 45, "note": 61, "velocity": 82, "channel": 0}, {"type": "note_off", "time": 355, "note": 61, "velocity": 82, "channel": 0}, {"type": "note_on", "time": 18, "note": 64, "velocity": 99, "channel": 0}, {"type": "note_off", "time": 67, "note": 64, "velocity": 99, "channel": 0}, {"type": "note_on", "time": 4, "note": 66, "velocity": 103, "channel": 0}, {"type": "note_off", "time": 62, "note": 66, "velocity": 103, "channel": 0}, {"type": "note_on", "time": 6, "note": 68, "velocity": 115, "channel": 0}, {"type": "note_off", "time": 112, "note": 68, "velocity": 115, "channel": 0}, {"type": "note_on", "time": 8, "note": 67, "velocity": 110, "channel": 0}, {"type": "note_off", "time": 301, "note": 67, "velocity": 110, "channel": 0}, {"type": "note_on", "time": 10, "note": 62, "velocity": 85, "channel": 0}, {"type": "note_off", "time": 125, "note": 62, "velocity": 85, "channel": 0}, {"type": "note_on", "time": 27, "note": 65, "velocity": 107, "channel": 0}, {"type": "note_off", "time": 245, "note": 65, "velocity": 107, "channel": 0}, {"type": "note_on", "time": 23, "note": 63, "velocity": 103, "channel": 0}, {"type": "note_off", "time": 245, "note": 63, "velocity": 103, "channel": 0}, {"type": "note_on", "time": 62, "note": 60, "velocity": 87, "channel": 0}, {"type": "note_off", "time": 927, "note": 60, "velocity": 87, "channel": 0}, {"type": "note_on", "time": 1602, "note": 75, "velocity": 111, "channel": 0}, {"type": "note_off", "time": 1201, "note": 75, "velocity": 111, "channel": 0}, {"type": "note_on", "time": 40, "note": 74, "velocity": 105, "channel": 0}, {"type": "note_off", "time": 179, "note": 74, "velocity": 105, "channel": 0}, {"type": "note_on", "time": 38, "note": 72, "velocity": 108, "channel": 0}, {"type": "note_off", "time": 244, "note": 72, "velocity": 108, "channel": 0}, {"type": "note_on", "time": 27, "note": 71, "velocity": 108, "channel": 0}, {"type": "note_off", "time": 393, "note": 71, "velocity": 108, "channel": 0}, {"type": "note_on", "time": 133, "note": 62, "velocity": 86, "channel": 0}, {"type": "note_off", "time": 261, "note": 62, "velocity": 86, "channel": 0}, {"type": "note_on", "time": 25, "note": 64, "velocity": 92, "channel": 0}, {"type": "note_off", "time": 433, "note": 64, "velocity": 92, "channel": 0}, {"type": "note_on", "time": 40, "note": 66, "velocity": 103, "channel": 0}, {"type": "note_off", "time": 250, "note": 66, "velocity": 103, "channel": 0}, {"type": "note_on", "time": 93, "note": 67, "velocity": 108, "channel": 0}, {"type": "note_off", "time": 394, "note": 67, "velocity": 108, "channel": 0}, {"type": "note_on", "time": 83, "note": 69, "velocity": 109, "channel": 0}, {"type": "note_off", "time": 293, "note": 69, "velocity": 109, "channel": 0}, {"type": "note_on", "time": 88, "note": 71, "velocity": 108, "channel": 0}, {"type": "note_off", "time": 497, "note": 71, "velocity": 108, "channel": 0}, {"type": "note_on", "time": 25, "note": 73, "velocity": 109, "channel": 0}, {"type": "note_off", "time": 1395, "note": 73, "velocity": 109, "channel": 0}, {"type": "note_on", "time": 61, "note": 70, "velocity": 102, "channel": 0}, {"type": "note_off", "time": 212, "note": 70, "velocity": 102, "channel": 0}, {"type": "note_on", "time": 15, "note": 68, "velocity": 98, "channel": 0}, {"type": "note_off", "time": 271, "note": 68, "velocity": 98, "channel": 0}, {"type": "note_on", "time": 42, "note": 70, "velocity": 100, "channel": 0}, {"type": "note_off", "time": 970, "note": 70, "velocity": 100, "channel": 0}, {"type": "note_on", "time": 722, "note": 72, "velocity": 111, "channel": 0}, {"type": "note_off", "time": 254, "note": 72, "velocity": 111, "channel": 0}, {"type": "note_on", "time": 28, "note": 67, "velocity": 105, "channel": 0}, {"type": "note_off", "time": 214, "note": 67, "velocity": 105, "channel": 0}, {"type": "note_on", "time": 37, "note": 67, "velocity": 105, "channel": 0}, {"type": "note_off", "time": 222, "note": 67, "velocity": 105, "channel": 0}, {"type": "note_on", "time": 80, "note": 67, "velocity": 108, "channel": 0}, {"type": "note_off", "time": 279, "note": 67, "velocity": 108, "channel": 0}, {"type": "note_on", "time": 164, "note": 67, "velocity": 109, "channel": 0}, {"type": "note_off", "time": 309, "note": 67, "velocity": 109, "channel": 0}, {"type": "note_on", "time": 166, "note": 67, "velocity": 110, "channel": 0}, {"type": "note_off", "time": 535, "note": 67, "velocity": 110, "channel": 0}, {"type": "note_on", "time": 11, "note": 68, "velocity": 108, "channel": 0}, {"type": "note_off", "time": 256, "note": 68, "velocity": 108, "channel": 0}, {"type": "note_on", "time": 21, "note": 70, "velocity": 108, "channel": 0}, {"type": "note_off", "time": 246, "note": 70, "velocity": 108, "channel": 0}, {"type": "note_on", "time": 34, "note": 65, "velocity": 89, "channel": 0}, {"type": "note_off", "time": 786, "note": 65, "velocity": 89, "channel": 0}, {"type": "note_on", "time": 2644, "note": 79, "velocity": 66, "channel": 0}, {"type": "note_off", "time": 111, "note": 79, "velocity": 66, "channel": 0}, {"type": "note_on", "time": 0, "note": 84, "velocity": 89, "channel": 0}, {"type": "note_off", "time": 680, "note": 84, "velocity": 89, "channel": 0}, {"type": "note_on", "time": 2030, "note": 79, "velocity": 115, "channel": 0}, {"type": "note_off", "time": 176, "note": 79, "velocity": 115, "channel": 0}, {"type": "note_on", "time": 16, "note": 78, "velocity": 117, "channel": 0}, {"type": "note_off", "time": 69, "note": 78, "velocity": 117, "channel": 0}, {"type": "note_on", "time": 16, "note": 77, "velocity": 118, "channel": 0}, {"type": "note_off", "time": 171, "note": 77, "velocity": 118, "channel": 0}, {"type": "note_on", "time": 20, "note": 75, "velocity": 114, "channel": 0}, {"type": "note_off", "time": 257, "note": 75, "velocity": 114, "channel": 0}, {"type": "note_on", "time": 21, "note": 77, "velocity": 116, "channel": 0}, {"type": "note_off", "time": 246, "note": 77, "velocity": 116, "channel": 0}, {"type": "note_on", "time": 19, "note": 79, "velocity": 113, "channel": 0}, {"type": "note_off", "time": 309, "note": 79, "velocity": 113, "channel": 0}, {"type": "note_on", "time": 394, "note": 72, "velocity": 112, "channel": 0}, {"type": "note_off", "time": 218, "note": 72, "velocity": 112, "channel": 0}, {"type": "note_on", "time": 27, "note": 74, "velocity": 124, "channel": 0}, {"type": "note_off", "time": 226, "note": 74, "velocity": 124, "channel": 0}, {"type": "note_on", "time": 29, "note": 75, "velocity": 115, "channel": 0}, {"type": "note_off", "time": 210, "note": 75, "velocity": 115, "channel": 0}, {"type": "note_on", "time": 28, "note": 74, "velocity": 119, "channel": 0}, {"type": "note_off", "time": 231, "note": 74, "velocity": 119, "channel": 0}, {"type": "note_on", "time": 39, "note": 72, "velocity": 114, "channel": 0}, {"type": "note_off", "time": 208, "note": 72, "velocity": 114, "channel": 0}, {"type": "note_on", "time": 73, "note": 67, "velocity": 107, "channel": 0}, {"type": "note_off", "time": 202, "note": 67, "velocity": 107, "channel": 0}, {"type": "note_on", "time": 35, "note": 63, "velocity": 104, "channel": 0}, {"type": "note_off", "time": 222, "note": 63, "velocity": 104, "channel": 0}, {"type": "note_on", "time": 23, "note": 62, "velocity": 102, "channel": 0}, {"type": "note_off", "time": 227, "note": 62, "velocity": 102, "channel": 0}, {"type": "note_on", "time": 942, "note": 74, "velocity": 119, "channel": 0}, {"type": "note_off", "time": 510, "note": 74, "velocity": 119, "channel": 0}, {"type": "note_on", "time": 317, "note": 74, "velocity": 118, "channel": 0}, {"type": "note_off", "time": 535, "note": 74, "velocity": 118, "channel": 0}, {"type": "note_on", "time": 284, "note": 74, "velocity": 120, "channel": 0}, {"type": "note_off", "time": 574, "note": 74, "velocity": 120, "channel": 0}, {"type": "note_on", "time": 233, "note": 74, "velocity": 117, "channel": 0}, {"type": "note_off", "time": 526, "note": 74, "velocity": 117, "channel": 0}, {"type": "note_on", "time": 70, "note": 72, "velocity": 115, "channel": 0}, {"type": "note_off", "time": 328, "note": 72, "velocity": 115, "channel": 0}, {"type": "note_on", "time": 26, "note": 67, "velocity": 110, "channel": 0}, {"type": "note_off", "time": 377, "note": 67, "velocity": 110, "channel": 0}, {"type": "note_on", "time": 86, "note": 63, "velocity": 106, "channel": 0}, {"type": "note_off", "time": 378, "note": 63, "velocity": 106, "channel": 0}, {"type": "note_on", "time": 20, "note": 62, "velocity": 99, "channel": 0}, {"type": "note_off", "time": 495, "note": 62, "velocity": 99, "channel": 0}, {"type": "note_on", "time": 239, "note": 70, "velocity": 106, "channel": 0}, {"type": "note_off", "time": 123, "note": 70, "velocity": 106, "channel": 0}, {"type": "note_on", "time": 20, "note": 71, "velocity": 101, "channel": 0}, {"type": "note_off", "time": 160, "note": 71, "velocity": 101, "channel": 0}, {"type": "note_on", "time": 32, "note": 72, "velocity": 114, "channel": 0}, {"type": "note_off", "time": 218, "note": 72, "velocity": 114, "channel": 0}, {"type": "note_on", "time": 49, "note": 71, "velocity": 109, "channel": 0}, {"type": "note_off", "time": 1632, "note": 71, "velocity": 109, "channel": 0}, {"type": "note_on", "time": 89, "note": 62, "velocity": 95, "channel": 0}, {"type": "note_off", "time": 92, "note": 62, "velocity": 95, "channel": 0}, {"type": "note_on", "time": 143, "note": 69, "velocity": 105, "channel": 0}, {"type": "note_off", "time": 175, "note": 69, "velocity": 105, "channel": 0}, {"type": "note_on", "time": 50, "note": 66, "velocity": 103, "channel": 0}, {"type": "note_off", "time": 194, "note": 66, "velocity": 103, "channel": 0}, {"type": "note_on", "time": 31, "note": 62, "velocity": 93, "channel": 0}, {"type": "note_off", "time": 204, "note": 62, "velocity": 93, "channel": 0}, {"type": "note_on", "time": 35, "note": 64, "velocity": 101, "channel": 0}, {"type": "note_off", "time": 166, "note": 64, "velocity": 101, "channel": 0}, {"type": "note_on", "time": 16, "note": 65, "velocity": 104, "channel": 0}, {"type": "note_off", "time": 188, "note": 65, "velocity": 104, "channel": 0}, {"type": "note_on", "time": 57, "note": 67, "velocity": 110, "channel": 0}, {"type": "note_off", "time": 152, "note": 67, "velocity": 110, "channel": 0}, {"type": "note_on", "time": 53, "note": 71, "velocity": 83, "channel": 0}, {"type": "note_off", "time": 148, "note": 71, "velocity": 83, "channel": 0}, {"type": "note_on", "time": 37, "note": 72, "velocity": 109, "channel": 0}, {"type": "note_off", "time": 133, "note": 72, "velocity": 109, "channel": 0}, {"type": "note_on", "time": 55, "note": 71, "velocity": 113, "channel": 0}, {"type": "note_off", "time": 173, "note": 71, "velocity": 113, "channel": 0}, {"type": "note_on", "time": 64, "note": 69, "velocity": 109, "channel": 0}, {"type": "note_off", "time": 146, "note": 69, "velocity": 109, "channel": 0}, {"type": "note_on", "time": 20, "note": 67, "velocity": 112, "channel": 0}, {"type": "note_off", "time": 203, "note": 67, "velocity": 112, "channel": 0}, {"type": "note_on", "time": 26, "note": 66, "velocity": 104, "channel": 0}, {"type": "note_off", "time": 188, "note": 66, "velocity": 104, "channel": 0}, {"type": "note_on", "time": 15, "note": 65, "velocity": 101, "channel": 0}, {"type": "note_off", "time": 698, "note": 65, "velocity": 101, "channel": 0}, {"type": "note_on", "time": 26, "note": 64, "velocity": 98, "channel": 0}, {"type": "note_off", "time": 1426, "note": 64, "velocity": 98, "channel": 0}, {"type": "note_on", "time": 104, "note": 60, "velocity": 92, "channel": 0}, {"type": "note_off", "time": 125, "note": 60, "velocity": 92, "channel": 0}, {"type": "note_on", "time": 13, "note": 62, "velocity": 97, "channel": 0}, {"type": "note_off", "time": 275, "note": 62, "velocity": 97, "channel": 0}, {"type": "note_on", "time": 39, "note": 64, "velocity": 92, "channel": 0}, {"type": "note_off", "time": 2236, "note": 64, "velocity": 92, "channel": 0}, {"type": "note_on", "time": 30, "note": 61, "velocity": 97, "channel": 0}, {"type": "note_off", "time": 291, "note": 61, "velocity": 97, "channel": 0}, {"type": "note_on", "time": 87, "note": 64, "velocity": 86, "channel": 0}, {"type": "note_off", "time": 151, "note": 64, "velocity": 86, "channel": 0}, {"type": "note_on", "time": 87, "note": 69, "velocity": 97, "channel": 0}, {"type": "note_off", "time": 305, "note": 69, "velocity": 97, "channel": 0}, {"type": "note_on", "time": 57, "note": 67, "velocity": 99, "channel": 0}, {"type": "note_off", "time": 207, "note": 67, "velocity": 99, "channel": 0}, {"type": "note_on", "time": 43, "note": 63, "velocity": 96, "channel": 0}, {"type": "note_off", "time": 166, "note": 63, "velocity": 96, "channel": 0}, {"type": "note_on", "time": 28, "note": 60, "velocity": 84, "channel": 0}, {"type": "note_off", "time": 799, "note": 60, "velocity": 84, "channel": 0}, {"type": "note_on", "time": 2058, "note": 66, "velocity": 97, "channel": 0}, {"type": "note_off", "time": 93, "note": 66, "velocity": 97, "channel": 0}, {"type": "note_on", "time": 23, "note": 63, "velocity": 95, "channel": 0}, {"type": "note_off", "time": 92, "note": 63, "velocity": 95, "channel": 0}, {"type": "note_on", "time": 11, "note": 60, "velocity": 99, "channel": 0}, {"type": "note_off", "time": 93, "note": 60, "velocity": 99, "channel": 0}, {"type": "note_on", "time": 2, "note": 62, "velocity": 97, "channel": 0}, {"type": "note_off", "time": 50, "note": 62, "velocity": 97, "channel": 0}, {"type": "note_on", "time": 9, "note": 63, "velocity": 96, "channel": 0}, {"type": "note_off", "time": 80, "note": 63, "velocity": 96, "channel": 0}, {"type": "note_on", "time": 34, "note": 69, "velocity": 88, "channel": 0}, {"type": "note_off", "time": 117, "note": 69, "velocity": 88, "channel": 0}, {"type": "note_on", "time": 41, "note": 67, "velocity": 95, "channel": 0}, {"type": "note_off", "time": 109, "note": 67, "velocity": 95, "channel": 0}, {"type": "note_on", "time": 14, "note": 62, "velocity": 95, "channel": 0}, {"type": "note_off", "time": 86, "note": 62, "velocity": 95, "channel": 0}, {"type": "note_on", "time": 8, "note": 60, "velocity": 93, "channel": 0}, {"type": "note_off", "time": 103, "note": 60, "velocity": 93, "channel": 0}, {"type": "note_on", "time": 17, "note": 67, "velocity": 110, "channel": 0}, {"type": "note_off", "time": 77, "note": 67, "velocity": 110, "channel": 0}, {"type": "note_on", "time": 7, "note": 69, "velocity": 112, "channel": 0}, {"type": "note_off", "time": 59, "note": 69, "velocity": 112, "channel": 0}, {"type": "note_on", "time": 14, "note": 70, "velocity": 116, "channel": 0}, {"type": "note_off", "time": 69, "note": 70, "velocity": 116, "channel": 0}, {"type": "note_on", "time": 17, "note": 69, "velocity": 113, "channel": 0}, {"type": "note_off", "time": 246, "note": 69, "velocity": 113, "channel": 0}, {"type": "note_on", "time": 4401, "note": 78, "velocity": 120, "channel": 0}, {"type": "note_off", "time": 283, "note": 78, "velocity": 120, "channel": 0}, {"type": "note_on", "time": 42, "note": 77, "velocity": 121, "channel": 0}, {"type": "note_off", "time": 178, "note": 77, "velocity": 121, "channel": 0}, {"type": "note_on", "time": 48, "note": 75, "velocity": 113, "channel": 0}, {"type": "note_off", "time": 232, "note": 75, "velocity": 113, "channel": 0}, {"type": "note_on", "time": 45, "note": 77, "velocity": 120, "channel": 0}, {"type": "note_off", "time": 232, "note": 77, "velocity": 120, "channel": 0}, {"type": "note_on", "time": 75, "note": 65, "velocity": 92, "channel": 0}, {"type": "note_off", "time": 244, "note": 65, "velocity": 92, "channel": 0}, {"type": "note_on", "time": 18, "note": 65, "velocity": 109, "channel": 0}, {"type": "note_off", "time": 268, "note": 65, "velocity": 109, "channel": 0}, {"type": "note_on", "time": 45, "note": 65, "velocity": 113, "channel": 0}, {"type": "note_off", "time": 202, "note": 65, "velocity": 113, "channel": 0}, {"type": "note_on", "time": 60, "note": 65, "velocity": 115, "channel": 0}, {"type": "note_off", "time": 214, "note": 65, "velocity": 115, "channel": 0}, {"type": "note_on", "time": 52, "note": 65, "velocity": 112, "channel": 0}, {"type": "note_off", "time": 230, "note": 65, "velocity": 112, "channel": 0}, {"type": "note_on", "time": 48, "note": 65, "velocity": 114, "channel": 0}, {"type": "note_off", "time": 242, "note": 65, "velocity": 114, "channel": 0}, {"type": "note_on", "time": 55, "note": 65, "velocity": 112, "channel": 0}, {"type": "note_off", "time": 225, "note": 65, "velocity": 112, "channel": 0}, {"type": "note_on", "time": 38, "note": 65, "velocity": 112, "channel": 0}, {"type": "note_off", "time": 230, "note": 65, "velocity": 112, "channel": 0}, {"type": "note_on", "time": 67, "note": 65, "velocity": 108, "channel": 0}, {"type": "note_off", "time": 195, "note": 65, "velocity": 108, "channel": 0}, {"type": "note_on", "time": 60, "note": 65, "velocity": 111, "channel": 0}, {"type": "note_off", "time": 215, "note": 65, "velocity": 111, "channel": 0}, {"type": "note_on", "time": 72, "note": 65, "velocity": 109, "channel": 0}, {"type": "note_off", "time": 225, "note": 65, "velocity": 109, "channel": 0}, {"type": "note_on", "time": 57, "note": 65, "velocity": 110, "channel": 0}, {"type": "note_off", "time": 219, "note": 65, "velocity": 110, "channel": 0}, {"type": "note_on", "time": 77, "note": 63, "velocity": 106, "channel": 0}, {"type": "note_off", "time": 212, "note": 63, "velocity": 106, "channel": 0}, {"type": "note_on", "time": 50, "note": 65, "velocity": 110, "channel": 0}, {"type": "note_off", "time": 210, "note": 65, "velocity": 110, "channel": 0}, {"type": "note_on", "time": 47, "note": 67, "velocity": 118, "channel": 0}, {"type": "note_off", "time": 227, "note": 67, "velocity": 118, "channel": 0}, {"type": "note_on", "time": 32, "note": 70, "velocity": 116, "channel": 0}, {"type": "note_off", "time": 249, "note": 70, "velocity": 116, "channel": 0}, {"type": "note_on", "time": 21, "note": 69, "velocity": 109, "channel": 0}, {"type": "note_off", "time": 254, "note": 69, "velocity": 109, "channel": 0}, {"type": "note_on", "time": 37, "note": 67, "velocity": 114, "channel": 0}, {"type": "note_off", "time": 281, "note": 67, "velocity": 114, "channel": 0}, {"type": "note_on", "time": 64, "note": 64, "velocity": 99, "channel": 0}, {"type": "note_off", "time": 121, "note": 64, "velocity": 99, "channel": 0}, {"type": "note_on", "time": 96, "note": 66, "velocity": 116, "channel": 0}, {"type": "note_off", "time": 229, "note": 66, "velocity": 116, "channel": 0}, {"type": "note_on", "time": 264, "note": 73, "velocity": 119, "channel": 0}, {"type": "note_off", "time": 273, "note": 73, "velocity": 119, "channel": 0}, {"type": "note_on", "time": 33, "note": 73, "velocity": 117, "channel": 0}, {"type": "note_off", "time": 278, "note": 73, "velocity": 117, "channel": 0}, {"type": "note_on", "time": 59, "note": 73, "velocity": 118, "channel": 0}, {"type": "note_off", "time": 1529, "note": 73, "velocity": 118, "channel": 0}, {"type": "note_on", "time": 232, "note": 72, "velocity": 110, "channel": 0}, {"type": "note_off", "time": 338, "note": 72, "velocity": 110, "channel": 0}, {"type": "note_on", "time": 103, "note": 69, "velocity": 106, "channel": 0}, {"type": "note_off", "time": 246, "note": 69, "velocity": 106, "channel": 0}, {"type": "note_on", "time": 71, "note": 65, "velocity": 98, "channel": 0}, {"type": "note_off", "time": 318, "note": 65, "velocity": 98, "channel": 0}, {"type": "note_on", "time": 431, "note": 69, "velocity": 94, "channel": 0}, {"type": "note_off", "time": 111, "note": 69, "velocity": 94, "channel": 0}, {"type": "note_on", "time": 15, "note": 70, "velocity": 98, "channel": 0}, {"type": "note_off", "time": 81, "note": 70, "velocity": 98, "channel": 0}, {"type": "note_on", "time": 17, "note": 69, "velocity": 88, "channel": 0}, {"type": "note_off", "time": 240, "note": 69, "velocity": 88, "channel": 0}, {"type": "note_on", "time": 47, "note": 66, "velocity": 87, "channel": 0}, {"type": "note_off", "time": 185, "note": 66, "velocity": 87, "channel": 0}, {"type": "note_on", "time": 63, "note": 62, "velocity": 80, "channel": 0}, {"type": "note_off", "time": 1078, "note": 62, "velocity": 80, "channel": 0}, {"type": "note_on", "time": 43, "note": 63, "velocity": 92, "channel": 0}, {"type": "note_off", "time": 565, "note": 63, "velocity": 92, "channel": 0}, {"type": "note_on", "time": 26, "note": 62, "velocity": 82, "channel": 0}, {"type": "note_off", "time": 479, "note": 62, "velocity": 82, "channel": 0}, {"type": "note_on", "time": 40, "note": 61, "velocity": 80, "channel": 0}, {"type": "note_off", "time": 1541, "note": 61, "velocity": 80, "channel": 0}, {"type": "note_on", "time": 57, "note": 64, "velocity": 9, "channel": 0}, {"type": "note_off", "time": 474, "note": 64, "velocity": 9, "channel": 0}, {"type": "note_on", "time": 3560, "note": 78, "velocity": 118, "channel": 0}, {"type": "note_off", "time": 587, "note": 78, "velocity": 118, "channel": 0}, {"type": "note_on", "time": 47, "note": 78, "velocity": 119, "channel": 0}, {"type": "note_off", "time": 491, "note": 78, "velocity": 119, "channel": 0}, {"type": "note_on", "time": 71, "note": 78, "velocity": 117, "channel": 0}, {"type": "note_off", "time": 1098, "note": 78, "velocity": 117, "channel": 0}, {"type": "note_on", "time": 28, "note": 75, "velocity": 113, "channel": 0}, {"type": "note_off", "time": 254, "note": 75, "velocity": 113, "channel": 0}, {"type": "note_on", "time": 23, "note": 76, "velocity": 109, "channel": 0}, {"type": "note_off", "time": 232, "note": 76, "velocity": 109, "channel": 0}, {"type": "note_on", "time": 79, "note": 75, "velocity": 113, "channel": 0}, {"type": "note_off", "time": 690, "note": 75, "velocity": 113, "channel": 0}, {"type": "note_on", "time": 83, "note": 73, "velocity": 116, "channel": 0}, {"type": "note_off", "time": 702, "note": 73, "velocity": 116, "channel": 0}, {"type": "note_on", "time": 115, "note": 73, "velocity": 116, "channel": 0}, {"type": "note_off", "time": 792, "note": 73, "velocity": 116, "channel": 0}, {"type": "note_on", "time": 11, "note": 72, "velocity": 105, "channel": 0}, {"type": "note_off", "time": 94, "note": 72, "velocity": 105, "channel": 0}, {"type": "note_on", "time": 33, "note": 71, "velocity": 110, "channel": 0}, {"type": "note_off", "time": 411, "note": 71, "velocity": 110, "channel": 0}, {"type": "note_on", "time": 116, "note": 66, "velocity": 85, "channel": 0}, {"type": "note_off", "time": 456, "note": 66, "velocity": 85, "channel": 0}, {"type": "note_on", "time": 1653, "note": 76, "velocity": 117, "channel": 0}, {"type": "note_off", "time": 278, "note": 76, "velocity": 117, "channel": 0}, {"type": "note_on", "time": 23, "note": 74, "velocity": 119, "channel": 0}, {"type": "note_off", "time": 276, "note": 74, "velocity": 119, "channel": 0}, {"type": "note_on", "time": 55, "note": 76, "velocity": 117, "channel": 0}, {"type": "note_off", "time": 247, "note": 76, "velocity": 117, "channel": 0}, {"type": "note_on", "time": 6, "note": 74, "velocity": 119, "channel": 0}, {"type": "note_off", "time": 254, "note": 74, "velocity": 119, "channel": 0}, {"type": "note_on", "time": 35, "note": 76, "velocity": 118, "channel": 0}, {"type": "note_off", "time": 257, "note": 76, "velocity": 118, "channel": 0}, {"type": "note_on", "time": 28, "note": 74, "velocity": 119, "channel": 0}, {"type": "note_off", "time": 244, "note": 74, "velocity": 119, "channel": 0}, {"type": "note_on", "time": 28, "note": 76, "velocity": 118, "channel": 0}, {"type": "note_off", "time": 257, "note": 76, "velocity": 118, "channel": 0}, {"type": "note_on", "time": 23, "note": 74, "velocity": 122, "channel": 0}, {"type": "note_off", "time": 183, "note": 74, "velocity": 122, "channel": 0}, {"type": "note_on", "time": 134, "note": 76, "velocity": 116, "channel": 0}, {"type": "note_off", "time": 246, "note": 76, "velocity": 116, "channel": 0}, {"type": "note_on", "time": 21, "note": 74, "velocity": 122, "channel": 0}, {"type": "note_off", "time": 192, "note": 74, "velocity": 122, "channel": 0}, {"type": "note_on", "time": 133, "note": 76, "velocity": 116, "channel": 0}, {"type": "note_off", "time": 244, "note": 76, "velocity": 116, "channel": 0}, {"type": "note_on", "time": 10, "note": 74, "velocity": 120, "channel": 0}, {"type": "note_off", "time": 219, "note": 74, "velocity": 120, "channel": 0}, {"type": "note_on", "time": 42, "note": 76, "velocity": 118, "channel": 0}, {"type": "note_off", "time": 273, "note": 76, "velocity": 118, "channel": 0}, {"type": "note_on", "time": 21, "note": 74, "velocity": 117, "channel": 0}, {"type": "note_off", "time": 230, "note": 74, "velocity": 117, "channel": 0}, {"type": "note_on", "time": 57, "note": 76, "velocity": 116, "channel": 0}, {"type": "note_off", "time": 274, "note": 76, "velocity": 116, "channel": 0}, {"type": "note_on", "time": 10, "note": 74, "velocity": 118, "channel": 0}, {"type": "note_off", "time": 207, "note": 74, "velocity": 118, "channel": 0}, {"type": "note_on", "time": 75, "note": 76, "velocity": 115, "channel": 0}, {"type": "note_off", "time": 273, "note": 76, "velocity": 115, "channel": 0}, {"type": "note_on", "time": 32, "note": 77, "velocity": 116, "channel": 0}, {"type": "note_off", "time": 252, "note": 77, "velocity": 116, "channel": 0}, {"type": "note_on", "time": 30, "note": 76, "velocity": 115, "channel": 0}, {"type": "note_off", "time": 264, "note": 76, "velocity": 115, "channel": 0}, {"type": "note_on", "time": 28, "note": 74, "velocity": 118, "channel": 0}, {"type": "note_off", "time": 932, "note": 74, "velocity": 118, "channel": 0}, {"type": "note_on", "time": 922, "note": 71, "velocity": 106, "channel": 0}, {"type": "note_off", "time": 74, "note": 71, "velocity": 106, "channel": 0}, {"type": "note_on", "time": 23, "note": 68, "velocity": 99, "channel": 0}, {"type": "note_off", "time": 101, "note": 68, "velocity": 99, "channel": 0}, {"type": "note_on", "time": 17, "note": 73, "velocity": 106, "channel": 0}, {"type": "note_off", "time": 158, "note": 73, "velocity": 106, "channel": 0}, {"type": "note_on", "time": 40, "note": 73, "velocity": 110, "channel": 0}, {"type": "note_off", "time": 1992, "note": 73, "velocity": 110, "channel": 0}, {"type": "note_on", "time": 15, "note": 71, "velocity": 103, "channel": 0}, {"type": "note_off", "time": 191, "note": 71, "velocity": 103, "channel": 0}, {"type": "note_on", "time": 31, "note": 69, "velocity": 99, "channel": 0}, {"type": "note_off", "time": 2943, "note": 69, "velocity": 99, "channel": 0}, {"type": "note_on", "time": 11, "note": 66, "velocity": 96, "channel": 0}, {"type": "note_off", "time": 158, "note": 66, "velocity": 96, "channel": 0}, {"type": "note_on", "time": 55, "note": 65, "velocity": 109, "channel": 0}, {"type": "note_off", "time": 781, "note": 65, "velocity": 109, "channel": 0}, {"type": "note_on", "time": 26, "note": 63, "velocity": 81, "channel": 0}, {"type": "note_off", "time": 1903, "note": 63, "velocity": 81, "channel": 0}, {"type": "end_of_track", "time": 0}]]}