{"ticks_per_beat": 840, "tracks": [[{"type": "track_name", "name": "Melody", "time": 0}, {"type": "set_tempo", "tempo": 476190, "time": 0}, {"type": "time_signature", "numerator": 4, "denominator": 4, "clocks_per_click": 24, "notated_32nd_notes_per_beat": 8, "time": 0}, {"type": "note_on", "time": 14688, "note": 62, "velocity": 117, "channel": 0}, {"type": "note_off", "time": 295, "note": 62, "velocity": 117, "channel": 0}, {"type": "note_on", "time": 0, "note": 60, "velocity": 115, "channel": 0}, {"type": "note_off", "time": 223, "note": 60, "velocity": 115, "channel": 0}, {"type": "note_on", "time": 50, "note": 59, "velocity": 89, "channel": 0}, {"type": "note_off", "time": 302, "note": 59, "velocity": 89, "channel": 0}, {"type": "note_on", "time": 14, "note": 60, "velocity": 96, "channel": 0}, {"type": "note_off", "time": 266, "note": 60, "velocity": 96, "channel": 0}, {"type": "note_on", "time": 14, "note": 64, "velocity": 101, "channel": 0}, {"type": "note_off", "time": 252, "note": 64, "velocity": 101, "channel": 0}, {"type": "note_on", "time": 0, "note": 67, "velocity": 101, "channel": 0}, {"type": "note_off", "time": 583, "note": 67, "velocity": 101, "channel": 0}, {"type": "note_on", "time": 21, "note": 69, "velocity": 99, "channel": 0}, {"type": "note_off", "time": 712, "note": 69, "velocity": 99, "channel": 0}, {"type": "note_on", "time": 0, "note": 74, "velocity": 107, "channel": 0}, {"type": "note_off", "time": 1072, "note": 74, "velocity": 107, "channel": 0}, {"type": "note_on", "time": 14, "note": 72, "velocity": 106, "channel": 0}, {"type": "note_off", "time": 216, "note": 72, "velocity": 106, "channel": 0}, {"type": "note_on", "time": 7, "note": 71, "velocity": 103, "channel": 0}, {"type": "note_off", "time": 252, "note": 71, "velocity": 103, "channel": 0}, {"type": "note_on", "time": 0, "note": 67, "velocity": 102, "channel": 0}, {"type": "note_off", "time": 1101, "note": 67, "velocity": 102, "channel": 0}, {"type": "note_on", "time": 0, "note": 69, "velocity": 99, "channel": 0}, {"type": "note_off", "time": 280, "note": 69, "velocity": 99, "channel": 0}, {"type": "note_on", "time": 14, "note": 67, "velocity": 104, "channel": 0}, {"type": "note_off", "time": 252, "note": 67, "velocity": 104, "channel": 0}, {"type": "note_on", "time": 21, "note": 62, "velocity": 99, "channel": 0}, {"type": "note_off", "time": 2246, "note": 62, "velocity": 99, "channel": 0}, {"type": "note_on", "time": 14, "note": 67, "velocity": 107, "channel": 0}, {"type": "note_off", "time": 273, "note": 67, "velocity": 107, "channel": 0}, {"type": "note_on", "time": 7, "note": 62, "velocity": 107, "channel": 0}, {"type": "note_off", "time": 223, "note": 62, "velocity": 107, "channel": 0}, {"type": "note_on", "time": 0, "note": 60, "velocity": 103, "channel": 0}, {"type": "note_off", "time": 2908, "note": 60, "velocity": 103, "channel": 0}, {"type": "note_on", "time": 36, "note": 62, "velocity": 98, "channel": 0}, {"type": "note_off", "time": 266, "note": 62, "velocity": 98, "channel": 0}, {"type": "note_on", "time": 28, "note": 63, "velocity": 91, "channel": 0}, {"type": "note_off", "time": 302, "note": 63, "velocity": 91, "channel": 0}, {"type": "note_on", "time": 21, "note": 64, "velocity": 110, "channel": 0}, {"type": "note_off", "time": 172, "note": 64, "velocity": 110, "channel": 0}, {"type": "note_on", "time": 36, "note": 65, "velocity": 97, "channel": 0}, {"type": "note_off", "time": 1015, "note": 65, "velocity": 97, "channel": 0}, {"type": "note_on", "time": 7, "note": 63, "velocity": 97, "channel": 0}, {"type": "note_off", "time": 230, "note": 63, "velocity": 97, "channel": 0}, {"type": "note_on", "time": 14, "note": 62, "velocity": 106, "channel": 0}, {"type": "note_off", "time": 216, "note": 62, "velocity": 106, "channel": 0}, {"type": "note_on", "time": 14, "note": 60, "velocity": 85, "channel": 0}, {"type": "note_off", "time": 2174, "note": 60, "velocity": 85, "channel": 0}, {"type": "note_on", "time": 3276, "note": 60, "velocity": 127, "channel": 0}, {"type": "note_off", "time": 180, "note": 60, "velocity": 127, "channel": 0}, {"type": "note_on", "time": 0, "note": 65, "velocity": 124, "channel": 0}, {"type": "note_off", "time": 230, "note": 65, "velocity": 124, "channel": 0}, {"type": "note_on", "time": 0, "note": 70, "velocity": 117, "channel": 0}, {"type": "note_off", "time": 1713, "note": 70, "velocity": 117, "channel": 0}, {"type": "note_on", "time": 7, "note": 72, "velocity": 122, "channel": 0}, {"type": "note_off", "time": 273, "note": 72, "velocity": 122, "channel": 0}, {"type": "note_on", "time": 0, "note": 65, "velocity": 114, "channel": 0}, {"type": "note_off", "time": 2016, "note": 65, "velocity": 114, "channel": 0}, {"type": "note_on", "time": 21, "note": 70, "velocity": 115, "channel": 0}, {"type": "note_off", "time": 172, "note": 70, "velocity": 115, "channel": 0}, {"type": "note_on", "time": 79, "note": 65, "velocity": 114, "channel": 0}, {"type": "note_off", "time": 208, "note": 65, "velocity": 114, "channel": 0}, {"type": "note_on", "time": 28, "note": 68, "velocity": 122, "channel": 0}, {"type": "note_off", "time": 144, "note": 68, "velocity": 122, "channel": 0}, {"type": "note_on", "time": 21, "note": 70, "velocity": 118, "channel": 0}, {"type": "note_off", "time": 828, "note": 70, "velocity": 118, "channel": 0}, {"type": "note_on", "time": 28, "note": 69, "velocity": 115, "channel": 0}, {"type": "note_off", "time": 410, "note": 69, "velocity": 115, "channel": 0}, {"type": "note_on", "time": 36, "note": 65, "velocity": 117, "channel": 0}, {"type": "note_off", "time": 280, "note": 65, "velocity": 117, "channel": 0}, {"type": "note_on", "time": 43, "note": 62, "velocity": 115, "channel": 0}, {"type": "note_off", "time": 266, "note": 62, "velocity": 115, "channel": 0}, {"type": "note_on", "time": 0, "note": 60, "velocity": 104, "channel": 0}, {"type": "note_off", "time": 2368, "note": 60, "velocity": 104, "channel": 0}, {"type": "note_on", "time": 3189, "note": 50, "velocity": 112, "channel": 0}, {"type": "note_off", "time": 180, "note": 50, "velocity": 112, "channel": 0}, {"type": "note_on", "time": 7, "note": 59, "velocity": 108, "channel": 0}, {"type": "note_off", "time": 180, "note": 59, "velocity": 108, "channel": 0}, {"type": "note_on", "time": 21, "note": 60, "velocity": 72, "channel": 0}, {"type": "note_off", "time": 108, "note": 60, "velocity": 72, "channel": 0}, {"type": "note_on", "time": 21, "note": 64, "velocity": 112, "channel": 0}, {"type": "note_off", "time": 201, "note": 64, "velocity": 112, "channel": 0}, {"type": "note_on", "time": 14, "note": 67, "velocity": 108, "channel": 0}, {"type": "note_off", "time": 136, "note": 67, "velocity": 108, "channel": 0}, {"type": "note_on", "time": 0, "note": 71, "velocity": 117, "channel": 0}, {"type": "note_off", "time": 115, "note": 71, "velocity": 117, "channel": 0}, {"type": "note_on", "time": 28, "note": 74, "velocity": 118, "channel": 0}, {"type": "note_off", "time": 1476, "note": 74, "velocity": 118, "channel": 0}, {"type": "note_on", "time": 0, "note": 72, "velocity": 117, "channel": 0}, {"type": "note_off", "time": 187, "note": 72, "velocity": 117, "channel": 0}, {"type": "note_on", "time": 28, "note": 71, "velocity": 116, "channel": 0}, {"type": "note_off", "time": 230, "note": 71, "velocity": 116, "channel": 0}, {"type": "note_on", "time": 14, "note": 69, "velocity": 114, "channel": 0}, {"type": "note_off", "time": 2563, "note": 69, "velocity": 114, "channel": 0}, {"type": "note_on", "time": 0, "note": 71, "velocity": 113, "channel": 0}, {"type": "note_off", "time": 230, "note": 71, "velocity": 113, "channel": 0}, {"type": "note_on", "time": 28, "note": 69, "velocity": 110, "channel": 0}, {"type": "note_off", "time": 201, "note": 69, "velocity": 110, "channel": 0}, {"type": "note_on", "time": 7, "note": 67, "velocity": 113, "channel": 0}, {"type": "note_off", "time": 172, "note": 67, "velocity": 113, "channel": 0}, {"type": "note_on", "time": 0, "note": 66, "velocity": 110, "channel": 0}, {"type": "note_off", "time": 187, "note": 66, "velocity": 110, "channel": 0}, {"type": "note_on", "time": 28, "note": 64, "velocity": 109, "channel": 0}, {"type": "note_off", "time": 180, "note": 64, "velocity": 109, "channel": 0}, {"type": "note_on", "time": 21, "note": 62, "velocity": 106, "channel": 0}, {"type": "note_off", "time": 208, "note": 62, "velocity": 106, "channel": 0}, {"type": "note_on", "time": 14, "note": 60, "velocity": 100, "channel": 0}, {"type": "note_off", "time": 180, "note": 60, "velocity": 100, "channel": 0}, {"type": "note_on", "time": 14, "note": 59, "velocity": 105, "channel": 0}, {"type": "note_off", "time": 180, "note": 59, "velocity": 105, "channel": 0}, {"type": "note_on", "time": 14, "note": 57, "velocity": 103, "channel": 0}, {"type": "note_off", "time": 194, "note": 57, "velocity": 103, "channel": 0}, {"type": "note_on", "time": 0, "note": 55, "velocity": 108, "channel": 0}, {"type": "note_off", "time": 194, "note": 55, "velocity": 108, "channel": 0}, {"type": "note_on", "time": 21, "note": 53, "velocity": 91, "channel": 0}, {"type": "note_off", "time": 3009, "note": 53, "velocity": 91, "channel": 0}, {"type": "note_on", "time": 0, "note": 58, "velocity": 80, "channel": 0}, {"type": "note_off", "time": 201, "note": 58, "velocity": 80, "channel": 0}, {"type": "note_on", "time": 28, "note": 53, "velocity": 76, "channel": 0}, {"type": "note_off", "time": 158, "note": 53, "velocity": 76, "channel": 0}, {"type": "note_on", "time": 0, "note": 60, "velocity": 100, "channel": 0}, {"type": "note_off", "time": 338, "note": 60, "velocity": 100, "channel": 0}, {"type": "note_on", "time": 57, "note": 65, "velocity": 99, "channel": 0}, {"type": "note_off", "time": 201, "note": 65, "velocity": 99, "channel": 0}, {"type": "note_on", "time": 1533, "note": 58, "velocity": 9, "channel": 0}, {"type": "note_off", "time": 215, "note": 58, "velocity": 9, "channel": 0}, {"type": "note_on", "time": 86, "note": 53, "velocity": 9, "channel": 0}, {"type": "note_off", "time": 122, "note": 53, "velocity": 9, "channel": 0}, {"type": "note_on", "time": 21, "note": 60, "velocity": 9, "channel": 0}, {"type": "note_off", "time": 338, "note": 60, "velocity": 9, "channel": 0}, {"type": "note_on", "time": 14, "note": 65, "velocity": 9, "channel": 0}, {"type": "note_off", "time": 201, "note": 65, "velocity": 9, "channel": 0}, {"type": "note_on", "time": 230, "note": 70, "velocity": 71, "channel": 0}, {"type": "note_off", "time": 237, "note": 70, "velocity": 71, "channel": 0}, {"type": "note_on", "time": 1224, "note": 58, "velocity": 109, "channel": 0}, {"type": "note_off", "time": 194, "note": 58, "velocity": 109, "channel": 0}, {"type": "note_on", "time": 0, "note": 53, "velocity": 110, "channel": 0}, {"type": "note_off", "time": 215, "note": 53, "velocity": 110, "channel": 0}, {"type": "note_on", "time": 0, "note": 60, "velocity": 96, "channel": 0}, {"type": "note_off", "time": 345, "note": 60, "velocity": 96, "channel": 0}, {"type": "note_on", "time": 14, "note": 65, "velocity": 110, "channel": 0}, {"type": "note_off", "time": 216, "note": 65, "velocity": 110, "channel": 0}, {"type": "note_on", "time": 1860, "note": 61, "velocity": 113, "channel": 0}, {"type": "note_off", "time": 165, "note": 61, "velocity": 113, "channel": 0}, {"type": "note_on", "time": 28, "note": 64, "velocity": 106, "channel": 0}, {"type": "note_off", "time": 129, "note": 64, "velocity": 106, "channel": 0}, {"type": "note_on", "time": 18, "note": 62, "velocity": 114, "channel": 0}, {"type": "note_off", "time": 138, "note": 62, "velocity": 114, "channel": 0}, {"type": "note_on", "time": 0, "note": 59, "velocity": 105, "channel": 0}, {"type": "note_off", "time": 158, "note": 59, "velocity": 105, "channel": 0}, {"type": "note_on", "time": 30, "note": 55, "velocity": 114, "channel": 0}, {"type": "note_off", "time": 148, "note": 55, "velocity": 114, "channel": 0}, {"type": "note_on", "time": 25, "note": 54, "velocity": 116, "channel": 0}, {"type": "note_off", "time": 122, "note": 54, "velocity": 116, "channel": 0}, {"type": "note_on", "time": 20, "note": 57, "velocity": 116, "channel": 0}, {"type": "note_off", "time": 128, "note": 57, "velocity": 116, "channel": 0}, {"type": "note_on", "time": 20, "note": 54, "velocity": 106, "channel": 0}, {"type": "note_off", "time": 148, "note": 54, "velocity": 106, "channel": 0}, {"type": "note_on", "time": 15, "note": 56, "velocity": 116, "channel": 0}, {"type": "note_off", "time": 138, "note": 56, "velocity": 116, "channel": 0}, {"type": "note_on", "time": 179, "note": 59, "velocity": 88, "channel": 0}, {"type": "note_off", "time": 117, "note": 59, "velocity": 88, "channel": 0}, {"type": "note_on", "time": 25, "note": 61, "velocity": 116, "channel": 0}, {"type": "note_off", "time": 163, "note": 61, "velocity": 116, "channel": 0}, {"type": "note_on", "time": 0, "note": 66, "velocity": 118, "channel": 0}, {"type": "note_off", "time": 235, "note": 66, "velocity": 118, "channel": 0}, {"type": "note_on", "time": 15, "note": 64, "velocity": 72, "channel": 0}, {"type": "note_off", "time": 230, "note": 64, "velocity": 72, "channel": 0}, {"type": "note_on", "time": 87, "note": 62, "velocity": 114, "channel": 0}, {"type": "note_on", "time": 148, "note": 63, "velocity": 113, "channel": 0}, {"type": "note_off", "time": 0, "note": 62, "velocity": 114, "channel": 0}, {"type": "note_off", "time": 179, "note": 63, "velocity": 113, "channel": 0}, {"type": "note_on", "time": 0, "note": 61, "velocity": 100, "channel": 0}, {"type": "note_off", "time": 245, "note": 61, "velocity": 100, "channel": 0}, {"type": "note_on", "time": 404, "note": 60, "velocity": 103, "channel": 0}, {"type": "note_off", "time": 184, "note": 60, "velocity": 103, "channel": 0}, {"type": "note_on", "time": 35, "note": 61, "velocity": 102, "channel": 0}, {"type": "note_off", "time": 76, "note": 61, "velocity": 102, "channel": 0}, {"type": "note_on", "time": 0, "note": 62, "velocity": 102, "channel": 0}, {"type": "note_off", "time": 102, "note": 62, "velocity": 102, "channel": 0}, {"type": "note_on", "time": 5, "note": 63, "velocity": 101, "channel": 0}, {"type": "note_on", "time": 215, "note": 60, "velocity": 99, "channel": 0}, {"type": "note_off", "time": 0, "note": 63, "velocity": 101, "channel": 0}, {"type": "note_off", "time": 148, "note": 60, "velocity": 99, "channel": 0}, {"type": "note_on", "time": 46, "note": 61, "velocity": 97, "channel": 0}, {"type": "note_off", "time": 112, "note": 61, "velocity": 97, "channel": 0}, {"type": "note_on", "time": 25, "note": 63, "velocity": 94, "channel": 0}, {"type": "note_off", "time": 199, "note": 63, "velocity": 94, "channel": 0}, {"type": "note_on", "time": 40, "note": 65, "velocity": 94, "channel": 0}, {"type": "note_off", "time": 153, "note": 65, "velocity": 94, "channel": 0}, {"type": "note_on", "time": 15, "note": 68, "velocity": 89, "channel": 0}, {"type": "note_off", "time": 184, "note": 68, "velocity": 89, "channel": 0}, {"type": "note_on", "time": 10, "note": 72, "velocity": 91, "channel": 0}, {"type": "note_off", "time": 184, "note": 72, "velocity": 91, "channel": 0}, {"type": "note_on", "time": 5, "note": 73, "velocity": 89, "channel": 0}, {"type": "note_off", "time": 201, "note": 73, "velocity": 89, "channel": 0}, {"type": "note_on", "time": 21, "note": 72, "velocity": 90, "channel": 0}, {"type": "note_off", "time": 158, "note": 72, "velocity": 90, "channel": 0}, {"type": "note_on", "time": 21, "note": 71, "velocity": 88, "channel": 0}, {"type": "note_off", "time": 201, "note": 71, "velocity": 88, "channel": 0}, {"type": "note_on", "time": 28, "note": 70, "velocity": 88, "channel": 0}, {"type": "note_off", "time": 172, "note": 70, "velocity": 88, "channel": 0}, {"type": "note_on", "time": 14, "note": 68, "velocity": 90, "channel": 0}, {"type": "note_off", "time": 172, "note": 68, "velocity": 90, "channel": 0}, {"type": "note_on", "time": 7, "note": 67, "velocity": 87, "channel": 0}, {"type": "note_off", "time": 223, "note": 67, "velocity": 87, "channel": 0}, {"type": "note_on", "time": 21, "note": 65, "velocity": 88, "channel": 0}, {"type": "note_off", "time": 144, "note": 65, "velocity": 88, "channel": 0}, {"type": "note_on", "time": 7, "note": 63, "velocity": 87, "channel": 0}, {"type": "note_off", "time": 261, "note": 63, "velocity": 87, "channel": 0}, {"type": "note_on", "time": 0, "note": 61, "velocity": 97, "channel": 0}, {"type": "note_off", "time": 163, "note": 61, "velocity": 97, "channel": 0}, {"type": "note_on", "time": 0, "note": 58, "velocity": 103, "channel": 0}, {"type": "note_off", "time": 172, "note": 58, "velocity": 103, "channel": 0}, {"type": "note_on", "time": 28, "note": 53, "velocity": 97, "channel": 0}, {"type": "note_off", "time": 194, "note": 53, "velocity": 97, "channel": 0}, {"type": "note_on", "time": 34, "note": 60, "velocity": 93, "channel": 0}, {"type": "note_off", "time": 230, "note": 60, "velocity": 93, "channel": 0}, {"type": "note_on", "time": 35, "note": 61, "velocity": 86, "channel": 0}, {"type": "note_off", "time": 215, "note": 61, "velocity": 86, "channel": 0}, {"type": "note_on", "time": 0, "note": 60, "velocity": 85, "channel": 0}, {"type": "note_off", "time": 179, "note": 60, "velocity": 85, "channel": 0}, {"type": "note_on", "time": 15, "note": 59, "velocity": 84, "channel": 0}, {"type": "note_off", "time": 153, "note": 59, "velocity": 84, "channel": 0}, {"type": "note_on", "time": 10, "note": 58, "velocity": 86, "channel": 0}, {"type": "note_off", "time": 204, "note": 58, "velocity": 86, "channel": 0}, {"type": "note_on", "time": 25, "note": 53, "velocity": 88, "channel": 0}, {"type": "note_off", "time": 153, "note": 53, "velocity": 88, "channel": 0}, {"type": "note_on", "time": 122, "note": 56, "velocity": 75, "channel": 0}, {"type": "note_off", "time": 250, "note": 56, "velocity": 75, "channel": 0}, {"type": "note_on", "time": 15, "note": 55, "velocity": 92, "channel": 0}, {"type": "note_off", "time": 184, "note": 55, "velocity": 92, "channel": 0}, {"type": "note_on", "time": 25, "note": 53, "velocity": 94, "channel": 0}, {"type": "note_off", "time": 276, "note": 53, "velocity": 94, "channel": 0}, {"type": "note_on", "time": 20, "note": 51, "velocity": 68, "channel": 0}, {"type": "note_off", "time": 148, "note": 51, "velocity": 68, "channel": 0}, {"type": "note_on", "time": 35, "note": 50, "velocity": 9, "channel": 0}, {"type": "note_off", "time": 92, "note": 50, "velocity": 9, "channel": 0}, {"type": "note_on", "time": 30, "note": 49, "velocity": 96, "channel": 0}, {"type": "note_off", "time": 261, "note": 49, "velocity": 96, "channel": 0}, {"type": "note_on", "time": 35, "note": 51, "velocity": 96, "channel": 0}, {"type": "note_off", "time": 153, "note": 51, "velocity": 96, "channel": 0}, {"type": "note_on", "time": 30, "note": 53, "velocity": 54, "channel": 0}, {"type": "note_off", "time": 204, "note": 53, "velocity": 54, "channel": 0}, {"type": "note_on", "time": 25, "note": 56, "velocity": 69, "channel": 0}, {"type": "note_off", "time": 179, "note": 56, "velocity": 69, "channel": 0}, {"type": "note_on", "time": 5, "note": 60, "velocity": 92, "channel": 0}, {"type": "note_off", "time": 476, "note": 60, "velocity": 92, "channel": 0}, {"type": "note_on", "time": 102, "note": 57, "velocity": 83, "channel": 0}, {"type": "note_off", "time": 220, "note": 57, "velocity": 83, "channel": 0}, {"type": "note_on", "time": 35, "note": 58, "velocity": 97, "channel": 0}, {"type": "note_off", "time": 588, "note": 58, "velocity": 97, "channel": 0}, {"type": "note_on", "time": 30, "note": 60, "velocity": 63, "channel": 0}, {"type": "note_off", "time": 184, "note": 60, "velocity": 63, "channel": 0}, {"type": "note_on", "time": 30, "note": 61, "velocity": 96, "channel": 0}, {"type": "note_off", "time": 199, "note": 61, "velocity": 96, "channel": 0}, {"type": "note_on", "time": 25, "note": 63, "velocity": 98, "channel": 0}, {"type": "note_off", "time": 179, "note": 63, "velocity": 98, "channel": 0}, {"type": "note_on", "time": 0, "note": 65, "velocity": 80, "channel": 0}, {"type": "note_off", "time": 245, "note": 65, "velocity": 80, "channel": 0}, {"type": "note_on", "time": 0, "note": 67, "velocity": 75, "channel": 0}, {"type": "note_off", "time": 209, "note": 67, "velocity": 75, "channel": 0}, {"type": "note_on", "time": 20, "note": 68, "velocity": 98, "channel": 0}, {"type": "note_off", "time": 174, "note": 68, "velocity": 98, "channel": 0}, {"type": "note_on", "time": 15, "note": 70, "velocity": 98, "channel": 0}, {"type": "note_off", "time": 152, "note": 70, "velocity": 98, "channel": 0}, {"type": "note_on", "time": 0, "note": 72, "velocity": 89, "channel": 0}, {"type": "note_off", "time": 223, "note": 72, "velocity": 89, "channel": 0}, {"type": "note_on", "time": 0, "note": 73, "velocity": 89, "channel": 0}, {"type": "note_off", "time": 108, "note": 73, "velocity": 89, "channel": 0}, {"type": "note_on", "time": 21, "note": 72, "velocity": 88, "channel": 0}, {"type": "note_off", "time": 648, "note": 72, "velocity": 88, "channel": 0}, {"type": "note_on", "time": 14, "note": 68, "velocity": 89, "channel": 0}, {"type": "note_off", "time": 158, "note": 68, "velocity": 89, "channel": 0}, {"type": "note_on", "time": 0, "note": 70, "velocity": 93, "channel": 0}, {"type": "note_off", "time": 237, "note": 70, "velocity": 93, "channel": 0}, {"type": "note_on", "time": 3528, "note": 74, "velocity": 62, "channel": 0}, {"type": "note_off", "time": 122, "note": 74, "velocity": 62, "channel": 0}, {"type": "note_on", "time": 28, "note": 75, "velocity": 9, "channel": 0}, {"type": "note_off", "time": 1864, "note": 75, "velocity": 9, "channel": 0}, {"type": "note_on", "time": 0, "note": 73, "velocity": 9, "channel": 0}, {"type": "note_off", "time": 1576, "note": 73, "velocity": 9, "channel": 0}, {"type": "note_on", "time": 0, "note": 71, "velocity": 9, "channel": 0}, {"type": "note_off", "time": 230, "note": 71, "velocity": 9, "channel": 0}, {"type": "note_on", "time": 34, "note": 70, "velocity": 9, "channel": 0}, {"type": "note_off", "time": 215, "note": 70, "velocity": 9, "channel": 0}, {"type": "note_on", "time": 40, "note": 68, "velocity": 9, "channel": 0}, {"type": "note_off", "time": 143, "note": 68, "velocity": 9, "channel": 0}, {"type": "note_on", "time": 25, "note": 66, "velocity": 20, "channel": 0}, {"type": "note_off", "time": 179, "note": 66, "velocity": 20, "channel": 0}, {"type": "note_on", "time": 25, "note": 65, "velocity": 86, "channel": 0}, {"type": "note_off", "time": 168, "note": 65, "velocity": 86, "channel": 0}, {"type": "note_on", "time": 35, "note": 64, "velocity": 45, "channel": 0}, {"type": "note_off", "time": 143, "note": 64, "velocity": 45, "channel": 0}, {"type": "note_on", "time": 10, "note": 65, "velocity": 9, "channel": 0}, {"type": "note_off", "time": 76, "note": 65, "velocity": 9, "channel": 0}, {"type": "note_on", "time": 35, "note": 66, "velocity": 89, "channel": 0}, {"type": "note_off", "time": 138, "note": 66, "velocity": 89, "channel": 0}, {"type": "note_on", "time": 25, "note": 68, "velocity": 88, "channel": 0}, {"type": "note_off", "time": 168, "note": 68, "velocity": 88, "channel": 0}, {"type": "note_on", "time": 51, "note": 64, "velocity": 85, "channel": 0}, {"type": "note_off", "time": 179, "note": 64, "velocity": 85, "channel": 0}, {"type": "note_on", "time": 20, "note": 63, "velocity": 75, "channel": 0}, {"type": "note_on", "time": 220, "note": 61, "velocity": 93, "channel": 0}, {"type": "note_off", "time": 0, "note": 63, "velocity": 75, "channel": 0}, {"type": "note_off", "time": 174, "note": 61, "velocity": 93, "channel": 0}, {"type": "note_on", "time": 174, "note": 63, "velocity": 93, "channel": 0}, {"type": "note_off", "time": 199, "note": 63, "velocity": 93, "channel": 0}, {"type": "note_on", "time": 20, "note": 61, "velocity": 90, "channel": 0}, {"type": "note_off", "time": 179, "note": 61, "velocity": 90, "channel": 0}, {"type": "note_on", "time": 76, "note": 59, "velocity": 90, "channel": 0}, {"type": "note_off", "time": 168, "note": 59, "velocity": 90, "channel": 0}, {"type": "note_on", "time": 10, "note": 58, "velocity": 88, "channel": 0}, {"type": "note_off", "time": 184, "note": 58, "velocity": 88, "channel": 0}, {"type": "note_on", "time": 81, "note": 56, "velocity": 87, "channel": 0}, {"type": "note_off", "time": 158, "note": 56, "velocity": 87, "channel": 0}, {"type": "note_on", "time": 15, "note": 54, "velocity": 86, "channel": 0}, {"type": "note_off", "time": 174, "note": 54, "velocity": 86, "channel": 0}, {"type": "note_on", "time": 506, "note": 51, "velocity": 86, "channel": 0}, {"type": "note_off", "time": 153, "note": 51, "velocity": 86, "channel": 0}, {"type": "note_on", "time": 40, "note": 52, "velocity": 85, "channel": 0}, {"type": "note_off", "time": 174, "note": 52, "velocity": 85, "channel": 0}, {"type": "note_on", "time": 911, "note": 56, "velocity": 94, "channel": 0}, {"type": "note_off", "time": 158, "note": 56, "velocity": 94, "channel": 0}, {"type": "note_on", "time": 35, "note": 59, "velocity": 94, "channel": 0}, {"type": "note_off", "time": 163, "note": 59, "velocity": 94, "channel": 0}, {"type": "note_on", "time": 97, "note": 56, "velocity": 95, "channel": 0}, {"type": "note_off", "time": 71, "note": 56, "velocity": 95, "channel": 0}, {"type": "note_on", "time": 0, "note": 63, "velocity": 92, "channel": 0}, {"type": "note_off", "time": 215, "note": 63, "velocity": 92, "channel": 0}, {"type": "note_on", "time": 30, "note": 61, "velocity": 84, "channel": 0}, {"type": "note_off", "time": 143, "note": 61, "velocity": 84, "channel": 0}, {"type": "note_on", "time": 2913, "note": 69, "velocity": 94, "channel": 0}, {"type": "note_off", "time": 225, "note": 69, "velocity": 94, "channel": 0}, {"type": "note_on", "time": 0, "note": 71, "velocity": 95, "channel": 0}, {"type": "note_off", "time": 189, "note": 71, "velocity": 95, "channel": 0}, {"type": "note_on", "time": 76, "note": 74, "velocity": 88, "channel": 0}, {"type": "note_off", "time": 220, "note": 74, "velocity": 88, "channel": 0}, {"type": "note_on", "time": 25, "note": 72, "velocity": 83, "channel": 0}, {"type": "note_off", "time": 153, "note": 72, "velocity": 83, "channel": 0}, {"type": "note_on", "time": 35, "note": 71, "velocity": 83, "channel": 0}, {"type": "note_off", "time": 168, "note": 71, "velocity": 83, "channel": 0}, {"type": "note_on", "time": 15, "note": 69, "velocity": 85, "channel": 0}, {"type": "note_off", "time": 225, "note": 69, "velocity": 85, "channel": 0}, {"type": "note_on", "time": 51, "note": 68, "velocity": 81, "channel": 0}, {"type": "note_off", "time": 163, "note": 68, "velocity": 81, "channel": 0}, {"type": "note_on", "time": 0, "note": 71, "velocity": 80, "channel": 0}, {"type": "note_on", "time": 184, "note": 69, "velocity": 81, "channel": 0}, {"type": "note_off", "time": 0, "note": 71, "velocity": 80, "channel": 0}, {"type": "note_off", "time": 209, "note": 69, "velocity": 81, "channel": 0}, {"type": "note_on", "time": 40, "note": 67, "velocity": 77, "channel": 0}, {"type": "note_off", "time": 174, "note": 67, "velocity": 77, "channel": 0}, {"type": "note_on", "time": 10, "note": 66, "velocity": 81, "channel": 0}, {"type": "note_off", "time": 133, "note": 66, "velocity": 81, "channel": 0}, {"type": "note_on", "time": 15, "note": 64, "velocity": 80, "channel": 0}, {"type": "note_off", "time": 174, "note": 64, "velocity": 80, "channel": 0}, {"type": "note_on", "time": 15, "note": 62, "velocity": 84, "channel": 0}, {"type": "note_off", "time": 204, "note": 62, "velocity": 84, "channel": 0}, {"type": "note_on", "time": 20, "note": 61, "velocity": 85, "channel": 0}, {"type": "note_off", "time": 158, "note": 61, "velocity": 85, "channel": 0}, {"type": "note_on", "time": 0, "note": 60, "velocity": 105, "channel": 0}, {"type": "note_on", "time": 194, "note": 64, "velocity": 87, "channel": 0}, {"type": "note_off", "time": 0, "note": 60, "velocity": 105, "channel": 0}, {"type": "note_off", "time": 194, "note": 64, "velocity": 87, "channel": 0}, {"type": "note_on", "time": 72, "note": 59, "velocity": 9, "channel": 0}, {"type": "note_off", "time": 871, "note": 59, "velocity": 9, "channel": 0}, {"type": "note_on", "time": 136, "note": 55, "velocity": 9, "channel": 0}, {"type": "note_off", "time": 102, "note": 55, "velocity": 9, "channel": 0}, {"type": "note_on", "time": 15, "note": 53, "velocity": 9, "channel": 0}, {"type": "note_off", "time": 97, "note": 53, "velocity": 9, "channel": 0}, {"type": "note_on", "time": 40, "note": 48, "velocity": 74, "channel": 0}, {"type": "note_off", "time": 563, "note": 48, "velocity": 74, "channel": 0}, {"type": "note_on", "time": 97, "note": 52, "velocity": 96, "channel": 0}, {"type": "note_off", "time": 76, "note": 52, "velocity": 96, "channel": 0}, {"type": "note_on", "time": 40, "note": 55, "velocity": 86, "channel": 0}, {"type": "note_off", "time": 81, "note": 55, "velocity": 86, "channel": 0}, {"type": "note_on", "time": 66, "note": 59, "velocity": 53, "channel": 0}, {"type": "note_off", "time": 153, "note": 59, "velocity": 53, "channel": 0}, {"type": "note_on", "time": 81, "note": 63, "velocity": 74, "channel": 0}, {"type": "note_off", "time": 97, "note": 63, "velocity": 74, "channel": 0}, {"type": "note_on", "time": 0, "note": 67, "velocity": 90, "channel": 0}, {"type": "note_off", "time": 76, "note": 67, "velocity": 90, "channel": 0}, {"type": "note_on", "time": 10, "note": 71, "velocity": 89, "channel": 0}, {"type": "note_off", "time": 133, "note": 71, "velocity": 89, "channel": 0}, {"type": "note_on", "time": 0, "note": 74, "velocity": 91, "channel": 0}, {"type": "note_off", "time": 158, "note": 74, "velocity": 91, "channel": 0}, {"type": "note_on", "time": 10, "note": 71, "velocity": 102, "channel": 0}, {"type": "note_off", "time": 133, "note": 71, "velocity": 102, "channel": 0}, {"type": "note_on", "time": 20, "note": 67, "velocity": 92, "channel": 0}, {"type": "note_off", "time": 122, "note": 67, "velocity": 92, "channel": 0}, {"type": "note_on", "time": 40, "note": 64, "velocity": 89, "channel": 0}, {"type": "note_off", "time": 107, "note": 64, "velocity": 89, "channel": 0}, {"type": "note_on", "time": 35, "note": 59, "velocity": 104, "channel": 0}, {"type": "note_off", "time": 184, "note": 59, "velocity": 104, "channel": 0}, {"type": "note_on", "time": 0, "note": 55, "velocity": 107, "channel": 0}, {"type": "note_off", "time": 117, "note": 55, "velocity": 107, "channel": 0}, {"type": "note_on", "time": 10, "note": 52, "velocity": 107, "channel": 0}, {"type": "note_off", "time": 97, "note": 52, "velocity": 107, "channel": 0}, {"type": "note_on", "time": 25, "note": 48, "velocity": 112, "channel": 0}, {"type": "note_off", "time": 609, "note": 48, "velocity": 112, "channel": 0}, {"type": "note_on", "time": 4869, "note": 60, "velocity": 105, "channel": 0}, {"type": "note_off", "time": 280, "note": 60, "velocity": 105, "channel": 0}, {"type": "note_on", "time": 424, "note": 65, "velocity": 93, "channel": 0}, {"type": "note_off", "time": 244, "note": 65, "velocity": 93, "channel": 0}, {"type": "note_on", "time": 612, "note": 67, "velocity": 9, "channel": 0}, {"type": "note_off", "time": 302, "note": 67, "velocity": 9, "channel": 0}, {"type": "note_on", "time": 1339, "note": 70, "velocity": 9, "channel": 0}, {"type": "note_off", "time": 184, "note": 70, "velocity": 9, "channel": 0}, {"type": "note_on", "time": 20, "note": 72, "velocity": 9, "channel": 0}, {"type": "note_off", "time": 194, "note": 72, "velocity": 9, "channel": 0}, {"type": "note_on", "time": 0, "note": 65, "velocity": 9, "channel": 0}, {"type": "note_off", "time": 168, "note": 65, "velocity": 9, "channel": 0}, {"type": "note_on", "time": 855, "note": 65, "velocity": 85, "channel": 0}, {"type": "note_off", "time": 128, "note": 65, "velocity": 85, "channel": 0}, {"type": "note_on", "time": 25, "note": 70, "velocity": 110, "channel": 0}, {"type": "note_off", "time": 143, "note": 70, "velocity": 110, "channel": 0}, {"type": "note_on", "time": 0, "note": 65, "velocity": 111, "channel": 0}, {"type": "note_off", "time": 128, "note": 65, "velocity": 111, "channel": 0}, {"type": "note_on", "time": 5, "note": 60, "velocity": 101, "channel": 0}, {"type": "note_off", "time": 209, "note": 60, "velocity": 101, "channel": 0}, {"type": "note_on", "time": 527, "note": 60, "velocity": 66, "channel": 0}, {"type": "note_off", "time": 92, "note": 60, "velocity": 66, "channel": 0}, {"type": "note_on", "time": 5, "note": 65, "velocity": 67, "channel": 0}, {"type": "note_off", "time": 112, "note": 65, "velocity": 67, "channel": 0}, {"type": "note_on", "time": 20, "note": 70, "velocity": 114, "channel": 0}, {"type": "note_off", "time": 107, "note": 70, "velocity": 114, "channel": 0}, {"type": "note_on", "time": 10, "note": 65, "velocity": 118, "channel": 0}, {"type": "note_off", "time": 99, "note": 65, "velocity": 118, "channel": 0}, {"type": "note_on", "time": 0, "note": 58, "velocity": 85, "channel": 0}, {"type": "note_off", "time": 71, "note": 58, "velocity": 85, "channel": 0}, {"type": "note_on", "time": 49, "note": 55, "velocity": 113, "channel": 0}, {"type": "note_off", "time": 102, "note": 55, "velocity": 113, "channel": 0}, {"type": "note_on", "time": 30, "note": 53, "velocity": 60, "channel": 0}, {"type": "note_off", "time": 184, "note": 53, "velocity": 60, "channel": 0}, {"type": "note_on", "time": 0, "note": 48, "velocity": 104, "channel": 0}, {"type": "note_off", "time": 307, "note": 48, "velocity": 104, "channel": 0}, {"type": "note_on", "time": 634, "note": 53, "velocity": 120, "channel": 0}, {"type": "note_off", "time": 122, "note": 53, "velocity": 120, "channel": 0}, {"type": "note_on", "time": 10, "note": 58, "velocity": 94, "channel": 0}, {"type": "note_off", "time": 122, "note": 58, "velocity": 94, "channel": 0}, {"type": "note_on", "time": 10, "note": 63, "velocity": 9, "channel": 0}, {"type": "note_off", "time": 102, "note": 63, "velocity": 9, "channel": 0}, {"type": "note_on", "time": 56, "note": 70, "velocity": 76, "channel": 0}, {"type": "note_off", "time": 143, "note": 70, "velocity": 76, "channel": 0}, {"type": "note_on", "time": 0, "note": 65, "velocity": 105, "channel": 0}, {"type": "note_off", "time": 3415, "note": 65, "velocity": 105, "channel": 0}, {"type": "note_on", "time": 76, "note": 62, "velocity": 96, "channel": 0}, {"type": "note_off", "time": 3307, "note": 62, "velocity": 96, "channel": 0}, {"type": "end_of_track", "time": 0}]]}