{"ticks_per_beat": 192, "tracks": [[{"type": "track_name", "name": "Melody", "time": 0}, {"type": "set_tempo", "tempo": 348837, "time": 0}, {"type": "key_signature", "key": "Bb", "time": 0}, {"type": "time_signature", "numerator": 4, "denominator": 4, "clocks_per_click": 24, "notated_32nd_notes_per_beat": 8, "time": 0}, {"type": "note_on", "time": 2084, "note": 57, "velocity": 118, "channel": 0}, {"type": "note_off", "time": 40, "note": 57, "velocity": 118, "channel": 0}, {"type": "note_on", "time": 14, "note": 58, "velocity": 104, "channel": 0}, {"type": "note_off", "time": 94, "note": 58, "velocity": 104, "channel": 0}, {"type": "note_on", "time": 47, "note": 55, "velocity": 109, "channel": 0}, {"type": "note_off", "time": 33, "note": 55, "velocity": 109, "channel": 0}, {"type": "note_on", "time": 24, "note": 57, "velocity": 111, "channel": 0}, {"type": "note_off", "time": 88, "note": 57, "velocity": 111, "channel": 0}, {"type": "note_on", "time": 11, "note": 58, "velocity": 102, "channel": 0}, {"type": "note_off", "time": 84, "note": 58, "velocity": 102, "channel": 0}, {"type": "note_on", "time": 19, "note": 60, "velocity": 111, "channel": 0}, {"type": "note_off", "time": 103, "note": 60, "velocity": 111, "channel": 0}, {"type": "note_on", "time": 196, "note": 57, "velocity": 121, "channel": 0}, {"type": "note_off", "time": 40, "note": 57, "velocity": 121, "channel": 0}, {"type": "note_on", "time": 24, "note": 58, "velocity": 96, "channel": 0}, {"type": "note_off", "time": 89, "note": 58, "velocity": 96, "channel": 0}, {"type": "note_on", "time": 45, "note": 60, "velocity": 96, "channel": 0}, {"type": "note_off", "time": 37, "note": 60, "velocity": 96, "channel": 0}, {"type": "note_on", "time": 18, "note": 62, "velocity": 110, "channel": 0}, {"type": "note_off", "time": 96, "note": 62, "velocity": 110, "channel": 0}, {"type": "note_on", "time": 29, "note": 58, "velocity": 109, "channel": 0}, {"type": "note_off", "time": 43, "note": 58, "velocity": 109, "channel": 0}, {"type": "note_on", "time": 14, "note": 60, "velocity": 110, "channel": 0}, {"type": "note_off", "time": 93, "note": 60, "velocity": 110, "channel": 0}, {"type": "note_on", "time": 39, "note": 57, "velocity": 96, "channel": 0}, {"type": "note_off", "time": 54, "note": 57, "velocity": 96, "channel": 0}, {"type": "note_on", "time": 24, "note": 58, "velocity": 114, "channel": 0}, {"type": "note_off", "time": 98, "note": 58, "velocity": 114, "channel": 0}, {"type": "note_on", "time": 17, "note": 60, "velocity": 110, "channel": 0}, {"type": "note_off", "time": 90, "note": 60, "velocity": 110, "channel": 0}, {"type": "note_on", "time": 5, "note": 62, "velocity": 88, "channel": 0}, {"type": "note_off", "time": 121, "note": 62, "velocity": 88, "channel": 0}, {"type": "note_on", "time": 9, "note": 63, "velocity": 92, "channel": 0}, {"type": "note_off", "time": 41, "note": 63, "velocity": 92, "channel": 0}, {"type": "note_on", "time": 15, "note": 65, "velocity": 107, "channel": 0}, {"type": "note_off", "time": 146, "note": 65, "velocity": 107, "channel": 0}, {"type": "note_on", "time": 6, "note": 63, "velocity": 100, "channel": 0}, {"type": "note_off", "time": 74, "note": 63, "velocity": 100, "channel": 0}, {"type": "note_on", "time": 69, "note": 54, "velocity": 95, "channel": 0}, {"type": "note_off", "time": 315, "note": 54, "velocity": 95, "channel": 0}, {"type": "note_on", "time": 40, "note": 63, "velocity": 113, "channel": 0}, {"type": "note_off", "time": 83, "note": 63, "velocity": 113, "channel": 0}, {"type": "note_on", "time": 36, "note": 62, "velocity": 109, "channel": 0}, {"type": "note_off", "time": 91, "note": 62, "velocity": 109, "channel": 0}, {"type": "note_on", "time": 42, "note": 58, "velocity": 114, "channel": 0}, {"type": "note_off", "time": 83, "note": 58, "velocity": 114, "channel": 0}, {"type": "note_on", "time": 44, "note": 53, "velocity": 112, "channel": 0}, {"type": "note_off", "time": 54, "note": 53, "velocity": 112, "channel": 0}, {"type": "note_on", "time": 6, "note": 51, "velocity": 107, "channel": 0}, {"type": "note_off", "time": 48, "note": 51, "velocity": 107, "channel": 0}, {"type": "note_on", "time": 12, "note": 52, "velocity": 106, "channel": 0}, {"type": "note_off", "time": 92, "note": 52, "velocity": 106, "channel": 0}, {"type": "note_on", "time": 30, "note": 61, "velocity": 111, "channel": 0}, {"type": "note_off", "time": 81, "note": 61, "velocity": 111, "channel": 0}, {"type": "note_on", "time": 123, "note": 60, "velocity": 108, "channel": 0}, {"type": "note_off", "time": 201, "note": 60, "velocity": 108, "channel": 0}, {"type": "note_on", "time": 9, "note": 58, "velocity": 103, "channel": 0}, {"type": "note_off", "time": 81, "note": 58, "velocity": 103, "channel": 0}, {"type": "note_on", "time": 44, "note": 57, "velocity": 109, "channel": 0}, {"type": "note_off", "time": 87, "note": 57, "velocity": 109, "channel": 0}, {"type": "note_on", "time": 68, "note": 55, "velocity": 115, "channel": 0}, {"type": "note_off", "time": 69, "note": 55, "velocity": 115, "channel": 0}, {"type": "note_on", "time": 24, "note": 53, "velocity": 104, "channel": 0}, {"type": "note_off", "time": 72, "note": 53, "velocity": 104, "channel": 0}, {"type": "note_on", "time": 37, "note": 51, "velocity": 109, "channel": 0}, {"type": "note_off", "time": 59, "note": 51, "velocity": 109, "channel": 0}, {"type": "note_on", "time": 14, "note": 50, "velocity": 103, "channel": 0}, {"type": "note_off", "time": 101, "note": 50, "velocity": 103, "channel": 0}, {"type": "note_on", "time": 22, "note": 60, "velocity": 104, "channel": 0}, {"type": "note_off", "time": 108, "note": 60, "velocity": 104, "channel": 0}, {"type": "note_on", "time": 132, "note": 55, "velocity": 101, "channel": 0}, {"type": "note_off", "time": 167, "note": 55, "velocity": 101, "channel": 0}, {"type": "note_on", "time": 516, "note": 55, "velocity": 123, "channel": 0}, {"type": "note_off", "time": 62, "note": 55, "velocity": 123, "channel": 0}, {"type": "note_on", "time": 11, "note": 60, "velocity": 115, "channel": 0}, {"type": "note_off", "time": 87, "note": 60, "velocity": 115, "channel": 0}, {"type": "note_on", "time": 28, "note": 55, "velocity": 112, "channel": 0}, {"type": "note_off", "time": 47, "note": 55, "velocity": 112, "channel": 0}, {"type": "note_on", "time": 15, "note": 58, "velocity": 123, "channel": 0}, {"type": "note_off", "time": 95, "note": 58, "velocity": 123, "channel": 0}, {"type": "note_on", "time": 21, "note": 57, "velocity": 122, "channel": 0}, {"type": "note_off", "time": 84, "note": 57, "velocity": 122, "channel": 0}, {"type": "note_on", "time": 111, "note": 53, "velocity": 89, "channel": 0}, {"type": "note_off", "time": 247, "note": 53, "velocity": 89, "channel": 0}, {"type": "note_on", "time": 9, "note": 56, "velocity": 120, "channel": 0}, {"type": "note_off", "time": 97, "note": 56, "velocity": 120, "channel": 0}, {"type": "note_on", "time": 14, "note": 55, "velocity": 118, "channel": 0}, {"type": "note_off", "time": 81, "note": 55, "velocity": 118, "channel": 0}, {"type": "note_on", "time": 10, "note": 54, "velocity": 95, "channel": 0}, {"type": "note_off", "time": 117, "note": 54, "velocity": 95, "channel": 0}, {"type": "note_on", "time": 16, "note": 55, "velocity": 108, "channel": 0}, {"type": "note_off", "time": 44, "note": 55, "velocity": 108, "channel": 0}, {"type": "note_on", "time": 5, "note": 60, "velocity": 109, "channel": 0}, {"type": "note_off", "time": 195, "note": 60, "velocity": 109, "channel": 0}, {"type": "note_on", "time": 11, "note": 58, "velocity": 113, "channel": 0}, {"type": "note_off", "time": 84, "note": 58, "velocity": 113, "channel": 0}, {"type": "note_on", "time": 28, "note": 56, "velocity": 105, "channel": 0}, {"type": "note_off", "time": 42, "note": 56, "velocity": 105, "channel": 0}, {"type": "note_on", "time": 14, "note": 57, "velocity": 118, "channel": 0}, {"type": "note_off", "time": 121, "note": 57, "velocity": 118, "channel": 0}, {"type": "note_on", "time": 10, "note": 60, "velocity": 107, "channel": 0}, {"type": "note_off", "time": 32, "note": 60, "velocity": 107, "channel": 0}, {"type": "note_on", "time": 7, "note": 63, "velocity": 107, "channel": 0}, {"type": "note_off", "time": 38, "note": 63, "velocity": 107, "channel": 0}, {"type": "note_on", "time": 12, "note": 67, "velocity": 108, "channel": 0}, {"type": "note_off", "time": 148, "note": 67, "velocity": 108, "channel": 0}, {"type": "note_on", "time": 35, "note": 65, "velocity": 96, "channel": 0}, {"type": "note_off", "time": 339, "note": 65, "velocity": 96, "channel": 0}, {"type": "note_on", "time": 343, "note": 53, "velocity": 116, "channel": 0}, {"type": "note_off", "time": 59, "note": 53, "velocity": 116, "channel": 0}, {"type": "note_on", "time": 10, "note": 54, "velocity": 117, "channel": 0}, {"type": "note_off", "time": 105, "note": 54, "velocity": 117, "channel": 0}, {"type": "note_on", "time": 4, "note": 58, "velocity": 118, "channel": 0}, {"type": "note_off", "time": 59, "note": 58, "velocity": 118, "channel": 0}, {"type": "note_on", "time": 20, "note": 60, "velocity": 113, "channel": 0}, {"type": "note_off", "time": 99, "note": 60, "velocity": 113, "channel": 0}, {"type": "note_on", "time": 21, "note": 64, "velocity": 111, "channel": 0}, {"type": "note_off", "time": 64, "note": 64, "velocity": 111, "channel": 0}, {"type": "note_on", "time": 10, "note": 65, "velocity": 120, "channel": 0}, {"type": "note_off", "time": 156, "note": 65, "velocity": 120, "channel": 0}, {"type": "note_on", "time": 5, "note": 63, "velocity": 114, "channel": 0}, {"type": "note_off", "time": 101, "note": 63, "velocity": 114, "channel": 0}, {"type": "note_on", "time": 49, "note": 63, "velocity": 110, "channel": 0}, {"type": "note_off", "time": 94, "note": 63, "velocity": 110, "channel": 0}, {"type": "note_on", "time": 73, "note": 62, "velocity": 118, "channel": 0}, {"type": "note_off", "time": 64, "note": 62, "velocity": 118, "channel": 0}, {"type": "note_on", "time": 7, "note": 61, "velocity": 102, "channel": 0}, {"type": "note_off", "time": 117, "note": 61, "velocity": 102, "channel": 0}, {"type": "note_on", "time": 14, "note": 62, "velocity": 102, "channel": 0}, {"type": "note_off", "time": 83, "note": 62, "velocity": 102, "channel": 0}, {"type": "note_on", "time": 6, "note": 63, "velocity": 109, "channel": 0}, {"type": "note_off", "time": 146, "note": 63, "velocity": 109, "channel": 0}, {"type": "note_on", "time": 29, "note": 59, "velocity": 106, "channel": 0}, {"type": "note_off", "time": 61, "note": 59, "velocity": 106, "channel": 0}, {"type": "note_on", "time": 45, "note": 62, "velocity": 112, "channel": 0}, {"type": "note_off", "time": 61, "note": 62, "velocity": 112, "channel": 0}, {"type": "note_on", "time": 12, "note": 60, "velocity": 108, "channel": 0}, {"type": "note_off", "time": 57, "note": 60, "velocity": 108, "channel": 0}, {"type": "note_on", "time": 6, "note": 62, "velocity": 104, "channel": 0}, {"type": "note_off", "time": 43, "note": 62, "velocity": 104, "channel": 0}, {"type": "note_on", "time": 5, "note": 60, "velocity": 104, "channel": 0}, {"type": "note_off", "time": 50, "note": 60, "velocity": 104, "channel": 0}, {"type": "note_on", "time": 27, "note": 55, "velocity": 98, "channel": 0}, {"type": "note_off", "time": 93, "note": 55, "velocity": 98, "channel": 0}, {"type": "note_on", "time": 11, "note": 58, "velocity": 116, "channel": 0}, {"type": "note_off", "time": 80, "note": 58, "velocity": 116, "channel": 0}, {"type": "note_on", "time": 16, "note": 57, "velocity": 105, "channel": 0}, {"type": "note_off", "time": 87, "note": 57, "velocity": 105, "channel": 0}, {"type": "note_on", "time": 16, "note": 53, "velocity": 106, "channel": 0}, {"type": "note_off", "time": 47, "note": 53, "velocity": 106, "channel": 0}, {"type": "note_on", "time": 13, "note": 55, "velocity": 98, "channel": 0}, {"type": "note_off", "time": 130, "note": 55, "velocity": 98, "channel": 0}, {"type": "note_on", "time": 22, "note": 53, "velocity": 94, "channel": 0}, {"type": "note_off", "time": 30, "note": 53, "velocity": 94, "channel": 0}, {"type": "note_on", "time": 28, "note": 62, "velocity": 111, "channel": 0}, {"type": "note_off", "time": 97, "note": 62, "velocity": 111, "channel": 0}, {"type": "note_on", "time": 42, "note": 58, "velocity": 99, "channel": 0}, {"type": "note_off", "time": 92, "note": 58, "velocity": 99, "channel": 0}, {"type": "note_on", "time": 276, "note": 53, "velocity": 117, "channel": 0}, {"type": "note_off", "time": 31, "note": 53, "velocity": 117, "channel": 0}, {"type": "note_on", "time": 6, "note": 55, "velocity": 104, "channel": 0}, {"type": "note_off", "time": 130, "note": 55, "velocity": 104, "channel": 0}, {"type": "note_on", "time": 28, "note": 53, "velocity": 96, "channel": 0}, {"type": "note_off", "time": 35, "note": 53, "velocity": 96, "channel": 0}, {"type": "note_on", "time": 31, "note": 63, "velocity": 113, "channel": 0}, {"type": "note_off", "time": 138, "note": 63, "velocity": 113, "channel": 0}, {"type": "note_on", "time": 25, "note": 60, "velocity": 88, "channel": 0}, {"type": "note_off", "time": 111, "note": 60, "velocity": 88, "channel": 0}, {"type": "note_on", "time": 15, "note": 57, "velocity": 120, "channel": 0}, {"type": "note_off", "time": 113, "note": 57, "velocity": 120, "channel": 0}, {"type": "note_on", "time": 80, "note": 53, "velocity": 115, "channel": 0}, {"type": "note_off", "time": 46, "note": 53, "velocity": 115, "channel": 0}, {"type": "note_on", "time": 25, "note": 55, "velocity": 101, "channel": 0}, {"type": "note_off", "time": 103, "note": 55, "velocity": 101, "channel": 0}, {"type": "note_on", "time": 26, "note": 53, "velocity": 101, "channel": 0}, {"type": "note_off", "time": 35, "note": 53, "velocity": 101, "channel": 0}, {"type": "note_on", "time": 28, "note": 65, "velocity": 113, "channel": 0}, {"type": "note_off", "time": 100, "note": 65, "velocity": 113, "channel": 0}, {"type": "note_on", "time": 33, "note": 58, "velocity": 99, "channel": 0}, {"type": "note_off", "time": 94, "note": 58, "velocity": 99, "channel": 0}, {"type": "note_on", "time": 440, "note": 58, "velocity": 125, "channel": 0}, {"type": "note_off", "time": 32, "note": 58, "velocity": 125, "channel": 0}, {"type": "note_on", "time": 8, "note": 57, "velocity": 123, "channel": 0}, {"type": "note_off", "time": 42, "note": 57, "velocity": 123, "channel": 0}, {"type": "note_on", "time": 12, "note": 56, "velocity": 109, "channel": 0}, {"type": "note_off", "time": 86, "note": 56, "velocity": 109, "channel": 0}, {"type": "note_on", "time": 20, "note": 60, "velocity": 122, "channel": 0}, {"type": "note_off", "time": 53, "note": 60, "velocity": 122, "channel": 0}, {"type": "note_on", "time": 26, "note": 53, "velocity": 99, "channel": 0}, {"type": "note_off", "time": 76, "note": 53, "velocity": 99, "channel": 0}, {"type": "note_on", "time": 28, "note": 56, "velocity": 126, "channel": 0}, {"type": "note_off", "time": 57, "note": 56, "velocity": 126, "channel": 0}, {"type": "note_on", "time": 29, "note": 50, "velocity": 109, "channel": 0}, {"type": "note_off", "time": 93, "note": 50, "velocity": 109, "channel": 0}, {"type": "note_on", "time": 22, "note": 45, "velocity": 127, "channel": 0}, {"type": "note_off", "time": 48, "note": 45, "velocity": 127, "channel": 0}, {"type": "note_on", "time": 16, "note": 48, "velocity": 102, "channel": 0}, {"type": "note_off", "time": 43, "note": 48, "velocity": 102, "channel": 0}, {"type": "note_on", "time": 23, "note": 46, "velocity": 118, "channel": 0}, {"type": "note_off", "time": 44, "note": 46, "velocity": 118, "channel": 0}, {"type": "note_on", "time": 11, "note": 48, "velocity": 110, "channel": 0}, {"type": "note_off", "time": 57, "note": 48, "velocity": 110, "channel": 0}, {"type": "note_on", "time": 19, "note": 51, "velocity": 109, "channel": 0}, {"type": "note_off", "time": 78, "note": 51, "velocity": 109, "channel": 0}, {"type": "note_on", "time": 39, "note": 53, "velocity": 115, "channel": 0}, {"type": "note_off", "time": 44, "note": 53, "velocity": 115, "channel": 0}, {"type": "note_on", "time": 26, "note": 55, "velocity": 89, "channel": 0}, {"type": "note_off", "time": 125, "note": 55, "velocity": 89, "channel": 0}, {"type": "note_on", "time": 7, "note": 56, "velocity": 98, "channel": 0}, {"type": "note_off", "time": 40, "note": 56, "velocity": 98, "channel": 0}, {"type": "note_on", "time": 25, "note": 58, "velocity": 118, "channel": 0}, {"type": "note_off", "time": 107, "note": 58, "velocity": 118, "channel": 0}, {"type": "note_on", "time": 13, "note": 60, "velocity": 101, "channel": 0}, {"type": "note_off", "time": 48, "note": 60, "velocity": 101, "channel": 0}, {"type": "note_on", "time": 20, "note": 62, "velocity": 116, "channel": 0}, {"type": "note_off", "time": 111, "note": 62, "velocity": 116, "channel": 0}, {"type": "note_on", "time": 20, "note": 62, "velocity": 119, "channel": 0}, {"type": "note_off", "time": 29, "note": 62, "velocity": 119, "channel": 0}, {"type": "note_on", "time": 2, "note": 64, "velocity": 117, "channel": 0}, {"type": "note_off", "time": 194, "note": 64, "velocity": 117, "channel": 0}, {"type": "note_on", "time": 20, "note": 62, "velocity": 107, "channel": 0}, {"type": "note_off", "time": 80, "note": 62, "velocity": 107, "channel": 0}, {"type": "note_on", "time": 46, "note": 61, "velocity": 97, "channel": 0}, {"type": "note_off", "time": 174, "note": 61, "velocity": 97, "channel": 0}, {"type": "note_on", "time": 11, "note": 62, "velocity": 92, "channel": 0}, {"type": "note_off", "time": 43, "note": 62, "velocity": 92, "channel": 0}, {"type": "note_on", "time": 15, "note": 64, "velocity": 115, "channel": 0}, {"type": "note_off", "time": 120, "note": 64, "velocity": 115, "channel": 0}, {"type": "note_on", "time": 18, "note": 65, "velocity": 115, "channel": 0}, {"type": "note_off", "time": 90, "note": 65, "velocity": 115, "channel": 0}, {"type": "note_on", "time": 97, "note": 60, "velocity": 93, "channel": 0}, {"type": "note_off", "time": 229, "note": 60, "velocity": 93, "channel": 0}, {"type": "note_on", "time": 528, "note": 62, "velocity": 117, "channel": 0}, {"type": "note_off", "time": 30, "note": 62, "velocity": 117, "channel": 0}, {"type": "note_on", "time": 3, "note": 60, "velocity": 113, "channel": 0}, {"type": "note_off", "time": 32, "note": 60, "velocity": 113, "channel": 0}, {"type": "note_on", "time": 16, "note": 59, "velocity": 107, "channel": 0}, {"type": "note_off", "time": 99, "note": 59, "velocity": 107, "channel": 0}, {"type": "note_on", "time": 27, "note": 60, "velocity": 114, "channel": 0}, {"type": "note_off", "time": 55, "note": 60, "velocity": 114, "channel": 0}, {"type": "note_on", "time": 8, "note": 62, "velocity": 117, "channel": 0}, {"type": "note_off", "time": 105, "note": 62, "velocity": 117, "channel": 0}, {"type": "note_on", "time": 18, "note": 63, "velocity": 101, "channel": 0}, {"type": "note_off", "time": 42, "note": 63, "velocity": 101, "channel": 0}, {"type": "note_on", "time": 10, "note": 65, "velocity": 117, "channel": 0}, {"type": "note_off", "time": 114, "note": 65, "velocity": 117, "channel": 0}, {"type": "note_on", "time": 19, "note": 67, "velocity": 116, "channel": 0}, {"type": "note_off", "time": 78, "note": 67, "velocity": 116, "channel": 0}, {"type": "note_on", "time": 92, "note": 60, "velocity": 104, "channel": 0}, {"type": "note_off", "time": 271, "note": 60, "velocity": 104, "channel": 0}, {"type": "note_on", "time": 8, "note": 59, "velocity": 105, "channel": 0}, {"type": "note_off", "time": 104, "note": 59, "velocity": 105, "channel": 0}, {"type": "note_on", "time": 77, "note": 62, "velocity": 115, "channel": 0}, {"type": "note_off", "time": 119, "note": 62, "velocity": 115, "channel": 0}, {"type": "note_on", "time": 30, "note": 63, "velocity": 120, "channel": 0}, {"type": "note_off", "time": 93, "note": 63, "velocity": 120, "channel": 0}, {"type": "note_on", "time": 85, "note": 55, "velocity": 96, "channel": 0}, {"type": "note_off", "time": 139, "note": 55, "velocity": 96, "channel": 0}, {"type": "note_on", "time": 36, "note": 53, "velocity": 91, "channel": 0}, {"type": "note_off", "time": 64, "note": 53, "velocity": 91, "channel": 0}, {"type": "note_on", "time": 11, "note": 54, "velocity": 114, "channel": 0}, {"type": "note_off", "time": 119, "note": 54, "velocity": 114, "channel": 0}, {"type": "note_on", "time": 4, "note": 56, "velocity": 100, "channel": 0}, {"type": "note_off", "time": 49, "note": 56, "velocity": 100, "channel": 0}, {"type": "note_on", "time": 16, "note": 57, "velocity": 111, "channel": 0}, {"type": "note_off", "time": 120, "note": 57, "velocity": 111, "channel": 0}, {"type": "note_on", "time": 12, "note": 60, "velocity": 112, "channel": 0}, {"type": "note_off", "time": 104, "note": 60, "velocity": 112, "channel": 0}, {"type": "note_on", "time": 76, "note": 58, "velocity": 110, "channel": 0}, {"type": "note_off", "time": 56, "note": 58, "velocity": 110, "channel": 0}, {"type": "note_on", "time": 20, "note": 57, "velocity": 96, "channel": 0}, {"type": "note_off", "time": 75, "note": 57, "velocity": 96, "channel": 0}, {"type": "note_on", "time": 25, "note": 58, "velocity": 86, "channel": 0}, {"type": "note_off", "time": 75, "note": 58, "velocity": 86, "channel": 0}, {"type": "note_on", "time": 23, "note": 62, "velocity": 112, "channel": 0}, {"type": "note_off", "time": 95, "note": 62, "velocity": 112, "channel": 0}, {"type": "note_on", "time": 34, "note": 65, "velocity": 108, "channel": 0}, {"type": "note_off", "time": 64, "note": 65, "velocity": 108, "channel": 0}, {"type": "note_on", "time": 3, "note": 67, "velocity": 106, "channel": 0}, {"type": "note_off", "time": 104, "note": 67, "velocity": 106, "channel": 0}, {"type": "note_on", "time": 7, "note": 65, "velocity": 90, "channel": 0}, {"type": "note_off", "time": 292, "note": 65, "velocity": 90, "channel": 0}, {"type": "note_on", "time": 456, "note": 65, "velocity": 119, "channel": 0}, {"type": "note_off", "time": 51, "note": 65, "velocity": 119, "channel": 0}, {"type": "note_on", "time": 1, "note": 67, "velocity": 109, "channel": 0}, {"type": "note_off", "time": 21, "note": 67, "velocity": 109, "channel": 0}, {"type": "note_on", "time": 5, "note": 69, "velocity": 114, "channel": 0}, {"type": "note_off", "time": 107, "note": 69, "velocity": 114, "channel": 0}, {"type": "note_on", "time": 66, "note": 62, "velocity": 102, "channel": 0}, {"type": "note_off", "time": 106, "note": 62, "velocity": 102, "channel": 0}, {"type": "note_on", "time": 33, "note": 65, "velocity": 114, "channel": 0}, {"type": "note_off", "time": 113, "note": 65, "velocity": 114, "channel": 0}, {"type": "note_on", "time": 76, "note": 58, "velocity": 115, "channel": 0}, {"type": "note_off", "time": 43, "note": 58, "velocity": 115, "channel": 0}, {"type": "note_on", "time": 32, "note": 62, "velocity": 108, "channel": 0}, {"type": "note_off", "time": 184, "note": 62, "velocity": 108, "channel": 0}, {"type": "note_on", "time": 6, "note": 65, "velocity": 115, "channel": 0}, {"type": "note_off", "time": 95, "note": 65, "velocity": 115, "channel": 0}, {"type": "note_on", "time": 32, "note": 68, "velocity": 115, "channel": 0}, {"type": "note_off", "time": 67, "note": 68, "velocity": 115, "channel": 0}, {"type": "note_on", "time": 22, "note": 61, "velocity": 107, "channel": 0}, {"type": "note_off", "time": 77, "note": 61, "velocity": 107, "channel": 0}, {"type": "note_on", "time": 20, "note": 65, "velocity": 113, "channel": 0}, {"type": "note_off", "time": 56, "note": 65, "velocity": 113, "channel": 0}, {"type": "note_on", "time": 38, "note": 58, "velocity": 96, "channel": 0}, {"type": "note_off", "time": 67, "note": 58, "velocity": 96, "channel": 0}, {"type": "note_on", "time": 20, "note": 61, "velocity": 111, "channel": 0}, {"type": "note_off", "time": 40, "note": 61, "velocity": 111, "channel": 0}, {"type": "note_on", "time": 51, "note": 54, "velocity": 93, "channel": 0}, {"type": "note_off", "time": 133, "note": 54, "velocity": 93, "channel": 0}, {"type": "note_on", "time": 3, "note": 51, "velocity": 98, "channel": 0}, {"type": "note_off", "time": 49, "note": 51, "velocity": 98, "channel": 0}, {"type": "note_on", "time": 7, "note": 53, "velocity": 105, "channel": 0}, {"type": "note_off", "time": 74, "note": 53, "velocity": 105, "channel": 0}, {"type": "note_on", "time": 26, "note": 55, "velocity": 115, "channel": 0}, {"type": "note_off", "time": 67, "note": 55, "velocity": 115, "channel": 0}, {"type": "note_on", "time": 122, "note": 58, "velocity": 103, "channel": 0}, {"type": "note_off", "time": 53, "note": 58, "velocity": 103, "channel": 0}, {"type": "note_on", "time": 14, "note": 59, "velocity": 114, "channel": 0}, {"type": "note_off", "time": 103, "note": 59, "velocity": 114, "channel": 0}, {"type": "note_on", "time": 19, "note": 60, "velocity": 101, "channel": 0}, {"type": "note_off", "time": 47, "note": 60, "velocity": 101, "channel": 0}, {"type": "note_on", "time": 10, "note": 62, "velocity": 118, "channel": 0}, {"type": "note_off", "time": 114, "note": 62, "velocity": 118, "channel": 0}, {"type": "note_on", "time": 25, "note": 63, "velocity": 115, "channel": 0}, {"type": "note_off", "time": 93, "note": 63, "velocity": 115, "channel": 0}, {"type": "note_on", "time": 69, "note": 67, "velocity": 108, "channel": 0}, {"type": "note_off", "time": 80, "note": 67, "velocity": 108, "channel": 0}, {"type": "note_on", "time": 19, "note": 60, "velocity": 107, "channel": 0}, {"type": "note_off", "time": 79, "note": 60, "velocity": 107, "channel": 0}, {"type": "note_on", "time": 19, "note": 63, "velocity": 115, "channel": 0}, {"type": "note_off", "time": 41, "note": 63, "velocity": 115, "channel": 0}, {"type": "note_on", "time": 14, "note": 57, "velocity": 102, "channel": 0}, {"type": "note_off", "time": 97, "note": 57, "velocity": 102, "channel": 0}, {"type": "note_on", "time": 33, "note": 60, "velocity": 111, "channel": 0}, {"type": "note_off", "time": 51, "note": 60, "velocity": 111, "channel": 0}, {"type": "note_on", "time": 14, "note": 53, "velocity": 94, "channel": 0}, {"type": "note_off", "time": 113, "note": 53, "velocity": 94, "channel": 0}, {"type": "note_on", "time": 18, "note": 55, "velocity": 106, "channel": 0}, {"type": "note_off", "time": 49, "note": 55, "velocity": 106, "channel": 0}, {"type": "note_on", "time": 5, "note": 57, "velocity": 96, "channel": 0}, {"type": "note_off", "time": 111, "note": 57, "velocity": 96, "channel": 0}, {"type": "note_on", "time": 12, "note": 58, "velocity": 100, "channel": 0}, {"type": "note_off", "time": 57, "note": 58, "velocity": 100, "channel": 0}, {"type": "note_on", "time": 11, "note": 59, "velocity": 108, "channel": 0}, {"type": "note_off", "time": 110, "note": 59, "velocity": 108, "channel": 0}, {"type": "note_on", "time": 16, "note": 60, "velocity": 89, "channel": 0}, {"type": "note_off", "time": 51, "note": 60, "velocity": 89, "channel": 0}, {"type": "note_on", "time": 12, "note": 62, "velocity": 119, "channel": 0}, {"type": "note_off", "time": 90, "note": 62, "velocity": 119, "channel": 0}, {"type": "note_on", "time": 24, "note": 60, "velocity": 110, "channel": 0}, {"type": "note_off", "time": 76, "note": 60, "velocity": 110, "channel": 0}, {"type": "note_on", "time": 81, "note": 59, "velocity": 93, "channel": 0}, {"type": "note_off", "time": 35, "note": 59, "velocity": 93, "channel": 0}, {"type": "note_on", "time": 1, "note": 60, "velocity": 99, "channel": 0}, {"type": "note_off", "time": 43, "note": 60, "velocity": 99, "channel": 0}, {"type": "note_on", "time": 21, "note": 63, "velocity": 121, "channel": 0}, {"type": "note_off", "time": 86, "note": 63, "velocity": 121, "channel": 0}, {"type": "note_on", "time": 33, "note": 55, "velocity": 105, "channel": 0}, {"type": "note_off", "time": 55, "note": 55, "velocity": 105, "channel": 0}, {"type": "note_on", "time": 6, "note": 58, "velocity": 116, "channel": 0}, {"type": "note_off", "time": 108, "note": 58, "velocity": 116, "channel": 0}, {"type": "note_on", "time": 40, "note": 55, "velocity": 105, "channel": 0}, {"type": "note_off", "time": 36, "note": 55, "velocity": 105, "channel": 0}, {"type": "note_on", "time": 15, "note": 57, "velocity": 113, "channel": 0}, {"type": "note_off", "time": 106, "note": 57, "velocity": 113, "channel": 0}, {"type": "note_on", "time": 21, "note": 58, "velocity": 107, "channel": 0}, {"type": "note_off", "time": 47, "note": 58, "velocity": 107, "channel": 0}, {"type": "note_on", "time": 8, "note": 60, "velocity": 107, "channel": 0}, {"type": "note_off", "time": 100, "note": 60, "velocity": 107, "channel": 0}, {"type": "note_on", "time": 13, "note": 58, "velocity": 93, "channel": 0}, {"type": "note_off", "time": 265, "note": 58, "velocity": 93, "channel": 0}, {"type": "note_on", "time": 333, "note": 58, "velocity": 114, "channel": 0}, {"type": "note_off", "time": 27, "note": 58, "velocity": 114, "channel": 0}, {"type": "note_on", "time": 3, "note": 62, "velocity": 112, "channel": 0}, {"type": "note_off", "time": 26, "note": 62, "velocity": 112, "channel": 0}, {"type": "note_on", "time": 11, "note": 67, "velocity": 123, "channel": 0}, {"type": "note_off", "time": 177, "note": 67, "velocity": 123, "channel": 0}, {"type": "note_on", "time": 8, "note": 65, "velocity": 94, "channel": 0}, {"type": "note_off", "time": 319, "note": 65, "velocity": 94, "channel": 0}, {"type": "note_on", "time": 45, "note": 62, "velocity": 115, "channel": 0}, {"type": "note_off", "time": 60, "note": 62, "velocity": 115, "channel": 0}, {"type": "note_on", "time": 2, "note": 63, "velocity": 104, "channel": 0}, {"type": "note_off", "time": 42, "note": 63, "velocity": 104, "channel": 0}, {"type": "note_on", "time": 5, "note": 60, "velocity": 108, "channel": 0}, {"type": "note_off", "time": 38, "note": 60, "velocity": 108, "channel": 0}, {"type": "note_on", "time": 5, "note": 58, "velocity": 107, "channel": 0}, {"type": "note_off", "time": 51, "note": 58, "velocity": 107, "channel": 0}, {"type": "note_on", "time": 5, "note": 57, "velocity": 107, "channel": 0}, {"type": "note_off", "time": 67, "note": 57, "velocity": 107, "channel": 0}, {"type": "note_on", "time": 6, "note": 55, "velocity": 98, "channel": 0}, {"type": "note_off", "time": 45, "note": 55, "velocity": 98, "channel": 0}, {"type": "note_on", "time": 9, "note": 53, "velocity": 99, "channel": 0}, {"type": "note_off", "time": 53, "note": 53, "velocity": 99, "channel": 0}, {"type": "note_on", "time": 19, "note": 50, "velocity": 100, "channel": 0}, {"type": "note_off", "time": 154, "note": 50, "velocity": 100, "channel": 0}, {"type": "end_of_track", "time": 0}]]}