{"ticks_per_beat": 192, "tracks": [[{"type": "track_name", "name": "Melody", "time": 0}, {"type": "set_tempo", "tempo": 253164, "time": 0}, {"type": "key_signature", "key": "G", "time": 0}, {"type": "time_signature", "numerator": 4, "denominator": 4, "clocks_per_click": 24, "notated_32nd_notes_per_beat": 8, "time": 0}, {"type": "note_on", "time": 4929, "note": 50, "velocity": 108, "channel": 0}, {"type": "note_off", "time": 68, "note": 50, "velocity": 108, "channel": 0}, {"type": "note_on", "time": 116, "note": 52, "velocity": 107, "channel": 0}, {"type": "note_off", "time": 72, "note": 52, "velocity": 107, "channel": 0}, {"type": "note_on", "time": 125, "note": 55, "velocity": 109, "channel": 0}, {"type": "note_off", "time": 79, "note": 55, "velocity": 109, "channel": 0}, {"type": "note_on", "time": 313, "note": 55, "velocity": 104, "channel": 0}, {"type": "note_off", "time": 111, "note": 55, "velocity": 104, "channel": 0}, {"type": "note_on", "time": 37, "note": 55, "velocity": 106, "channel": 0}, {"type": "note_off", "time": 63, "note": 55, "velocity": 106, "channel": 0}, {"type": "note_on", "time": 77, "note": 58, "velocity": 112, "channel": 0}, {"type": "note_off", "time": 88, "note": 58, "velocity": 112, "channel": 0}, {"type": "note_on", "time": 112, "note": 55, "velocity": 100, "channel": 0}, {"type": "note_off", "time": 239, "note": 55, "velocity": 100, "channel": 0}, {"type": "note_on", "time": 17, "note": 50, "velocity": 103, "channel": 0}, {"type": "note_off", "time": 74, "note": 50, "velocity": 103, "channel": 0}, {"type": "note_on", "time": 118, "note": 52, "velocity": 108, "channel": 0}, {"type": "note_off", "time": 88, "note": 52, "velocity": 108, "channel": 0}, {"type": "note_on", "time": 110, "note": 55, "velocity": 104, "channel": 0}, {"type": "note_off", "time": 68, "note": 55, "velocity": 104, "channel": 0}, {"type": "note_on", "time": 325, "note": 55, "velocity": 106, "channel": 0}, {"type": "note_off", "time": 101, "note": 55, "velocity": 106, "channel": 0}, {"type": "note_on", "time": 88, "note": 55, "velocity": 110, "channel": 0}, {"type": "note_off", "time": 91, "note": 55, "velocity": 110, "channel": 0}, {"type": "note_on", "time": 34, "note": 61, "velocity": 112, "channel": 0}, {"type": "note_off", "time": 93, "note": 61, "velocity": 112, "channel": 0}, {"type": "note_on", "time": 93, "note": 60, "velocity": 114, "channel": 0}, {"type": "note_off", "time": 118, "note": 60, "velocity": 114, "channel": 0}, {"type": "note_on", "time": 59, "note": 60, "velocity": 115, "channel": 0}, {"type": "note_off", "time": 88, "note": 60, "velocity": 115, "channel": 0}, {"type": "note_on", "time": 13, "note": 58, "velocity": 107, "channel": 0}, {"type": "note_off", "time": 94, "note": 58, "velocity": 107, "channel": 0}, {"type": "note_on", "time": 9, "note": 55, "velocity": 102, "channel": 0}, {"type": "note_off", "time": 73, "note": 55, "velocity": 102, "channel": 0}, {"type": "note_on", "time": 0, "note": 51, "velocity": 97, "channel": 0}, {"type": "note_off", "time": 88, "note": 51, "velocity": 97, "channel": 0}, {"type": "note_on", "time": 11, "note": 48, "velocity": 99, "channel": 0}, {"type": "note_off", "time": 96, "note": 48, "velocity": 99, "channel": 0}, {"type": "note_on", "time": 11, "note": 49, "velocity": 100, "channel": 0}, {"type": "note_off", "time": 84, "note": 49, "velocity": 100, "channel": 0}, {"type": "note_on", "time": 14, "note": 50, "velocity": 98, "channel": 0}, {"type": "note_off", "time": 90, "note": 50, "velocity": 98, "channel": 0}, {"type": "note_on", "time": 11, "note": 53, "velocity": 93, "channel": 0}, {"type": "note_off", "time": 112, "note": 53, "velocity": 93, "channel": 0}, {"type": "note_on", "time": 64, "note": 53, "velocity": 107, "channel": 0}, {"type": "note_off", "time": 100, "note": 53, "velocity": 107, "channel": 0}, {"type": "note_on", "time": 8, "note": 50, "velocity": 100, "channel": 0}, {"type": "note_off", "time": 49, "note": 50, "velocity": 100, "channel": 0}, {"type": "note_on", "time": 13, "note": 44, "velocity": 97, "channel": 0}, {"type": "note_off", "time": 81, "note": 44, "velocity": 97, "channel": 0}, {"type": "note_on", "time": 22, "note": 43, "velocity": 90, "channel": 0}, {"type": "note_off", "time": 62, "note": 43, "velocity": 90, "channel": 0}, {"type": "note_on", "time": 18, "note": 45, "velocity": 106, "channel": 0}, {"type": "note_off", "time": 101, "note": 45, "velocity": 106, "channel": 0}, {"type": "note_on", "time": 17, "note": 48, "velocity": 103, "channel": 0}, {"type": "note_off", "time": 117, "note": 48, "velocity": 103, "channel": 0}, {"type": "note_on", "time": 8, "note": 52, "velocity": 96, "channel": 0}, {"type": "note_off", "time": 60, "note": 52, "velocity": 96, "channel": 0}, {"type": "note_on", "time": 23, "note": 55, "velocity": 110, "channel": 0}, {"type": "note_off", "time": 56, "note": 55, "velocity": 110, "channel": 0}, {"type": "note_on", "time": 14, "note": 54, "velocity": 109, "channel": 0}, {"type": "note_off", "time": 94, "note": 54, "velocity": 109, "channel": 0}, {"type": "note_on", "time": 2, "note": 55, "velocity": 103, "channel": 0}, {"type": "note_off", "time": 61, "note": 55, "velocity": 103, "channel": 0}, {"type": "note_on", "time": 15, "note": 57, "velocity": 115, "channel": 0}, {"type": "note_off", "time": 114, "note": 57, "velocity": 115, "channel": 0}, {"type": "note_on", "time": 12, "note": 54, "velocity": 122, "channel": 0}, {"type": "note_off", "time": 77, "note": 54, "velocity": 122, "channel": 0}, {"type": "note_on", "time": 23, "note": 55, "velocity": 110, "channel": 0}, {"type": "note_off", "time": 88, "note": 55, "velocity": 110, "channel": 0}, {"type": "note_on", "time": 23, "note": 57, "velocity": 104, "channel": 0}, {"type": "note_off", "time": 62, "note": 57, "velocity": 104, "channel": 0}, {"type": "note_on", "time": 19, "note": 59, "velocity": 115, "channel": 0}, {"type": "note_off", "time": 97, "note": 59, "velocity": 115, "channel": 0}, {"type": "note_on", "time": 15, "note": 60, "velocity": 104, "channel": 0}, {"type": "note_off", "time": 62, "note": 60, "velocity": 104, "channel": 0}, {"type": "note_on", "time": 14, "note": 62, "velocity": 110, "channel": 0}, {"type": "note_off", "time": 89, "note": 62, "velocity": 110, "channel": 0}, {"type": "note_on", "time": 24, "note": 67, "velocity": 86, "channel": 0}, {"type": "note_off", "time": 449, "note": 67, "velocity": 86, "channel": 0}, {"type": "note_on", "time": 573, "note": 67, "velocity": 105, "channel": 0}, {"type": "note_off", "time": 40, "note": 67, "velocity": 105, "channel": 0}, {"type": "note_on", "time": 8, "note": 66, "velocity": 114, "channel": 0}, {"type": "note_off", "time": 52, "note": 66, "velocity": 114, "channel": 0}, {"type": "note_on", "time": 6, "note": 64, "velocity": 117, "channel": 0}, {"type": "note_off", "time": 45, "note": 64, "velocity": 117, "channel": 0}, {"type": "note_on", "time": 11, "note": 62, "velocity": 112, "channel": 0}, {"type": "note_off", "time": 41, "note": 62, "velocity": 112, "channel": 0}, {"type": "note_on", "time": 13, "note": 60, "velocity": 117, "channel": 0}, {"type": "note_off", "time": 102, "note": 60, "velocity": 117, "channel": 0}, {"type": "note_on", "time": 17, "note": 59, "velocity": 118, "channel": 0}, {"type": "note_off", "time": 75, "note": 59, "velocity": 118, "channel": 0}, {"type": "note_on", "time": 15, "note": 57, "velocity": 115, "channel": 0}, {"type": "note_off", "time": 78, "note": 57, "velocity": 115, "channel": 0}, {"type": "note_on", "time": 15, "note": 55, "velocity": 111, "channel": 0}, {"type": "note_off", "time": 64, "note": 55, "velocity": 111, "channel": 0}, {"type": "note_on", "time": 7, "note": 54, "velocity": 89, "channel": 0}, {"type": "note_off", "time": 99, "note": 54, "velocity": 89, "channel": 0}, {"type": "note_on", "time": 16, "note": 55, "velocity": 99, "channel": 0}, {"type": "note_off", "time": 50, "note": 55, "velocity": 99, "channel": 0}, {"type": "note_on", "time": 14, "note": 57, "velocity": 119, "channel": 0}, {"type": "note_off", "time": 118, "note": 57, "velocity": 119, "channel": 0}, {"type": "note_on", "time": 1, "note": 54, "velocity": 111, "channel": 0}, {"type": "note_off", "time": 66, "note": 54, "velocity": 111, "channel": 0}, {"type": "note_on", "time": 128, "note": 57, "velocity": 119, "channel": 0}, {"type": "note_off", "time": 84, "note": 57, "velocity": 119, "channel": 0}, {"type": "note_on", "time": 7, "note": 58, "velocity": 116, "channel": 0}, {"type": "note_off", "time": 77, "note": 58, "velocity": 116, "channel": 0}, {"type": "note_on", "time": 17, "note": 55, "velocity": 112, "channel": 0}, {"type": "note_off", "time": 79, "note": 55, "velocity": 112, "channel": 0}, {"type": "note_on", "time": 17, "note": 51, "velocity": 102, "channel": 0}, {"type": "note_off", "time": 71, "note": 51, "velocity": 102, "channel": 0}, {"type": "note_on", "time": 20, "note": 48, "velocity": 105, "channel": 0}, {"type": "note_off", "time": 91, "note": 48, "velocity": 105, "channel": 0}, {"type": "note_on", "time": 11, "note": 49, "velocity": 106, "channel": 0}, {"type": "note_off", "time": 92, "note": 49, "velocity": 106, "channel": 0}, {"type": "note_on", "time": 22, "note": 50, "velocity": 91, "channel": 0}, {"type": "note_off", "time": 57, "note": 50, "velocity": 91, "channel": 0}, {"type": "note_on", "time": 13, "note": 52, "velocity": 109, "channel": 0}, {"type": "note_off", "time": 112, "note": 52, "velocity": 109, "channel": 0}, {"type": "note_on", "time": 5, "note": 49, "velocity": 112, "channel": 0}, {"type": "note_off", "time": 72, "note": 49, "velocity": 112, "channel": 0}, {"type": "note_on", "time": 15, "note": 50, "velocity": 99, "channel": 0}, {"type": "note_off", "time": 86, "note": 50, "velocity": 99, "channel": 0}, {"type": "note_on", "time": 18, "note": 52, "velocity": 109, "channel": 0}, {"type": "note_off", "time": 61, "note": 52, "velocity": 109, "channel": 0}, {"type": "note_on", "time": 6, "note": 54, "velocity": 105, "channel": 0}, {"type": "note_off", "time": 75, "note": 54, "velocity": 105, "channel": 0}, {"type": "note_on", "time": 18, "note": 55, "velocity": 93, "channel": 0}, {"type": "note_off", "time": 68, "note": 55, "velocity": 93, "channel": 0}, {"type": "note_on", "time": 15, "note": 57, "velocity": 113, "channel": 0}, {"type": "note_off", "time": 119, "note": 57, "velocity": 113, "channel": 0}, {"type": "note_on", "time": 4, "note": 54, "velocity": 116, "channel": 0}, {"type": "note_off", "time": 82, "note": 54, "velocity": 116, "channel": 0}, {"type": "note_on", "time": 15, "note": 55, "velocity": 97, "channel": 0}, {"type": "note_off", "time": 93, "note": 55, "velocity": 97, "channel": 0}, {"type": "note_on", "time": 14, "note": 57, "velocity": 116, "channel": 0}, {"type": "note_off", "time": 79, "note": 57, "velocity": 116, "channel": 0}, {"type": "note_on", "time": 11, "note": 58, "velocity": 111, "channel": 0}, {"type": "note_off", "time": 97, "note": 58, "velocity": 111, "channel": 0}, {"type": "note_on", "time": 2, "note": 55, "velocity": 111, "channel": 0}, {"type": "note_off", "time": 94, "note": 55, "velocity": 111, "channel": 0}, {"type": "note_on", "time": 7, "note": 51, "velocity": 98, "channel": 0}, {"type": "note_off", "time": 89, "note": 51, "velocity": 98, "channel": 0}, {"type": "note_on", "time": 3, "note": 49, "velocity": 109, "channel": 0}, {"type": "note_off", "time": 72, "note": 49, "velocity": 109, "channel": 0}, {"type": "note_on", "time": 15, "note": 50, "velocity": 101, "channel": 0}, {"type": "note_off", "time": 132, "note": 50, "velocity": 101, "channel": 0}, {"type": "note_on", "time": 63, "note": 53, "velocity": 120, "channel": 0}, {"type": "note_off", "time": 85, "note": 53, "velocity": 120, "channel": 0}, {"type": "note_on", "time": 105, "note": 58, "velocity": 118, "channel": 0}, {"type": "note_off", "time": 77, "note": 58, "velocity": 118, "channel": 0}, {"type": "note_on", "time": 125, "note": 62, "velocity": 111, "channel": 0}, {"type": "note_off", "time": 88, "note": 62, "velocity": 111, "channel": 0}, {"type": "note_on", "time": 74, "note": 60, "velocity": 105, "channel": 0}, {"type": "note_off", "time": 245, "note": 60, "velocity": 105, "channel": 0}, {"type": "note_on", "time": 62, "note": 51, "velocity": 105, "channel": 0}, {"type": "note_off", "time": 85, "note": 51, "velocity": 105, "channel": 0}, {"type": "note_on", "time": 31, "note": 57, "velocity": 110, "channel": 0}, {"type": "note_off", "time": 105, "note": 57, "velocity": 110, "channel": 0}, {"type": "note_on", "time": 18, "note": 60, "velocity": 116, "channel": 0}, {"type": "note_off", "time": 85, "note": 60, "velocity": 116, "channel": 0}, {"type": "note_on", "time": 61, "note": 59, "velocity": 114, "channel": 0}, {"type": "note_off", "time": 81, "note": 59, "velocity": 114, "channel": 0}, {"type": "note_on", "time": 114, "note": 55, "velocity": 97, "channel": 0}, {"type": "note_off", "time": 176, "note": 55, "velocity": 97, "channel": 0}, {"type": "note_on", "time": 1341, "note": 55, "velocity": 110, "channel": 0}, {"type": "note_off", "time": 77, "note": 55, "velocity": 110, "channel": 0}, {"type": "note_on", "time": 11, "note": 60, "velocity": 117, "channel": 0}, {"type": "note_off", "time": 100, "note": 60, "velocity": 117, "channel": 0}, {"type": "note_on", "time": 5, "note": 62, "velocity": 109, "channel": 0}, {"type": "note_off", "time": 71, "note": 62, "velocity": 109, "channel": 0}, {"type": "note_on", "time": 14, "note": 63, "velocity": 109, "channel": 0}, {"type": "note_off", "time": 94, "note": 63, "velocity": 109, "channel": 0}, {"type": "note_on", "time": 11, "note": 60, "velocity": 110, "channel": 0}, {"type": "note_off", "time": 70, "note": 60, "velocity": 110, "channel": 0}, {"type": "note_on", "time": 5, "note": 55, "velocity": 101, "channel": 0}, {"type": "note_off", "time": 83, "note": 55, "velocity": 101, "channel": 0}, {"type": "note_on", "time": 58, "note": 51, "velocity": 95, "channel": 0}, {"type": "note_off", "time": 52, "note": 51, "velocity": 95, "channel": 0}, {"type": "note_on", "time": 1, "note": 54, "velocity": 120, "channel": 0}, {"type": "note_off", "time": 130, "note": 54, "velocity": 120, "channel": 0}, {"type": "note_on", "time": 5, "note": 57, "velocity": 113, "channel": 0}, {"type": "note_off", "time": 44, "note": 57, "velocity": 113, "channel": 0}, {"type": "note_on", "time": 8, "note": 60, "velocity": 108, "channel": 0}, {"type": "note_off", "time": 127, "note": 60, "velocity": 108, "channel": 0}, {"type": "note_on", "time": 4, "note": 62, "velocity": 93, "channel": 0}, {"type": "note_off", "time": 64, "note": 62, "velocity": 93, "channel": 0}, {"type": "note_on", "time": 34, "note": 63, "velocity": 109, "channel": 0}, {"type": "note_off", "time": 86, "note": 63, "velocity": 109, "channel": 0}, {"type": "note_on", "time": 13, "note": 59, "velocity": 110, "channel": 0}, {"type": "note_on", "time": 80, "note": 55, "velocity": 98, "channel": 0}, {"type": "note_off", "time": 0, "note": 59, "velocity": 110, "channel": 0}, {"type": "note_off", "time": 68, "note": 55, "velocity": 98, "channel": 0}, {"type": "note_on", "time": 62, "note": 54, "velocity": 112, "channel": 0}, {"type": "note_off", "time": 63, "note": 54, "velocity": 112, "channel": 0}, {"type": "note_on", "time": 4, "note": 55, "velocity": 113, "channel": 0}, {"type": "note_off", "time": 94, "note": 55, "velocity": 113, "channel": 0}, {"type": "note_on", "time": 9, "note": 57, "velocity": 109, "channel": 0}, {"type": "note_off", "time": 75, "note": 57, "velocity": 109, "channel": 0}, {"type": "note_on", "time": 16, "note": 59, "velocity": 105, "channel": 0}, {"type": "note_off", "time": 81, "note": 59, "velocity": 105, "channel": 0}, {"type": "note_on", "time": 6, "note": 60, "velocity": 99, "channel": 0}, {"type": "note_off", "time": 50, "note": 60, "velocity": 99, "channel": 0}, {"type": "note_on", "time": 11, "note": 62, "velocity": 104, "channel": 0}, {"type": "note_off", "time": 119, "note": 62, "velocity": 104, "channel": 0}, {"type": "note_on", "time": 24, "note": 59, "velocity": 104, "channel": 0}, {"type": "note_off", "time": 66, "note": 59, "velocity": 104, "channel": 0}, {"type": "note_on", "time": 11, "note": 61, "velocity": 98, "channel": 0}, {"type": "note_off", "time": 99, "note": 61, "velocity": 98, "channel": 0}, {"type": "note_on", "time": 16, "note": 62, "velocity": 104, "channel": 0}, {"type": "note_off", "time": 67, "note": 62, "velocity": 104, "channel": 0}, {"type": "note_on", "time": 12, "note": 63, "velocity": 108, "channel": 0}, {"type": "note_off", "time": 81, "note": 63, "velocity": 108, "channel": 0}, {"type": "note_on", "time": 18, "note": 65, "velocity": 119, "channel": 0}, {"type": "note_off", "time": 106, "note": 65, "velocity": 119, "channel": 0}, {"type": "note_on", "time": 7, "note": 66, "velocity": 111, "channel": 0}, {"type": "note_off", "time": 89, "note": 66, "velocity": 111, "channel": 0}, {"type": "note_on", "time": 2, "note": 62, "velocity": 106, "channel": 0}, {"type": "note_off", "time": 59, "note": 62, "velocity": 106, "channel": 0}, {"type": "note_on", "time": 13, "note": 59, "velocity": 106, "channel": 0}, {"type": "note_off", "time": 101, "note": 59, "velocity": 106, "channel": 0}, {"type": "note_on", "time": 11, "note": 56, "velocity": 105, "channel": 0}, {"type": "note_off", "time": 89, "note": 56, "velocity": 105, "channel": 0}, {"type": "note_on", "time": 4, "note": 54, "velocity": 98, "channel": 0}, {"type": "note_off", "time": 111, "note": 54, "velocity": 98, "channel": 0}, {"type": "note_on", "time": 7, "note": 51, "velocity": 89, "channel": 0}, {"type": "note_off", "time": 172, "note": 51, "velocity": 89, "channel": 0}, {"type": "note_on", "time": 188, "note": 51, "velocity": 109, "channel": 0}, {"type": "note_off", "time": 64, "note": 51, "velocity": 109, "channel": 0}, {"type": "note_on", "time": 9, "note": 54, "velocity": 118, "channel": 0}, {"type": "note_off", "time": 55, "note": 54, "velocity": 118, "channel": 0}, {"type": "note_on", "time": 4, "note": 55, "velocity": 102, "channel": 0}, {"type": "note_off", "time": 123, "note": 55, "velocity": 102, "channel": 0}, {"type": "note_on", "time": 18, "note": 58, "velocity": 117, "channel": 0}, {"type": "note_off", "time": 121, "note": 58, "velocity": 117, "channel": 0}, {"type": "note_on", "time": 78, "note": 51, "velocity": 93, "channel": 0}, {"type": "note_off", "time": 159, "note": 51, "velocity": 93, "channel": 0}, {"type": "note_on", "time": 111, "note": 51, "velocity": 105, "channel": 0}, {"type": "note_off", "time": 83, "note": 51, "velocity": 105, "channel": 0}, {"type": "note_on", "time": 11, "note": 54, "velocity": 106, "channel": 0}, {"type": "note_off", "time": 176, "note": 54, "velocity": 106, "channel": 0}, {"type": "note_on", "time": 22, "note": 60, "velocity": 112, "channel": 0}, {"type": "note_off", "time": 133, "note": 60, "velocity": 112, "channel": 0}, {"type": "note_on", "time": 51, "note": 58, "velocity": 113, "channel": 0}, {"type": "note_off", "time": 126, "note": 58, "velocity": 113, "channel": 0}, {"type": "note_on", "time": 3, "note": 60, "velocity": 98, "channel": 0}, {"type": "note_off", "time": 60, "note": 60, "velocity": 98, "channel": 0}, {"type": "note_on", "time": 11, "note": 63, "velocity": 109, "channel": 0}, {"type": "note_off", "time": 99, "note": 63, "velocity": 109, "channel": 0}, {"type": "note_on", "time": 12, "note": 60, "velocity": 115, "channel": 0}, {"type": "note_off", "time": 81, "note": 60, "velocity": 115, "channel": 0}, {"type": "note_on", "time": 4, "note": 58, "velocity": 110, "channel": 0}, {"type": "note_off", "time": 89, "note": 58, "velocity": 110, "channel": 0}, {"type": "note_on", "time": 4, "note": 55, "velocity": 97, "channel": 0}, {"type": "note_off", "time": 83, "note": 55, "velocity": 97, "channel": 0}, {"type": "note_on", "time": 24, "note": 51, "velocity": 86, "channel": 0}, {"type": "note_off", "time": 127, "note": 51, "velocity": 86, "channel": 0}, {"type": "note_on", "time": 418, "note": 50, "velocity": 109, "channel": 0}, {"type": "note_off", "time": 135, "note": 50, "velocity": 109, "channel": 0}, {"type": "note_on", "time": 6, "note": 51, "velocity": 102, "channel": 0}, {"type": "note_off", "time": 520, "note": 51, "velocity": 102, "channel": 0}, {"type": "note_on", "time": 20, "note": 50, "velocity": 108, "channel": 0}, {"type": "note_off", "time": 80, "note": 50, "velocity": 108, "channel": 0}, {"type": "note_on", "time": 13, "note": 49, "velocity": 104, "channel": 0}, {"type": "note_off", "time": 150, "note": 49, "velocity": 104, "channel": 0}, {"type": "note_on", "time": 16, "note": 50, "velocity": 104, "channel": 0}, {"type": "note_off", "time": 82, "note": 50, "velocity": 104, "channel": 0}, {"type": "note_on", "time": 47, "note": 58, "velocity": 107, "channel": 0}, {"type": "note_off", "time": 170, "note": 58, "velocity": 107, "channel": 0}, {"type": "note_on", "time": 14, "note": 57, "velocity": 119, "channel": 0}, {"type": "note_off", "time": 99, "note": 57, "velocity": 119, "channel": 0}, {"type": "note_on", "time": 5, "note": 55, "velocity": 86, "channel": 0}, {"type": "note_off", "time": 316, "note": 55, "velocity": 86, "channel": 0}, {"type": "note_on", "time": 574, "note": 55, "velocity": 115, "channel": 0}, {"type": "note_off", "time": 62, "note": 55, "velocity": 115, "channel": 0}, {"type": "note_on", "time": 6, "note": 54, "velocity": 120, "channel": 0}, {"type": "note_off", "time": 157, "note": 54, "velocity": 120, "channel": 0}, {"type": "note_on", "time": 7, "note": 55, "velocity": 114, "channel": 0}, {"type": "note_off", "time": 91, "note": 55, "velocity": 114, "channel": 0}, {"type": "note_on", "time": 48, "note": 63, "velocity": 110, "channel": 0}, {"type": "note_off", "time": 112, "note": 63, "velocity": 110, "channel": 0}, {"type": "note_on", "time": 51, "note": 62, "velocity": 110, "channel": 0}, {"type": "note_off", "time": 88, "note": 62, "velocity": 110, "channel": 0}, {"type": "note_on", "time": 13, "note": 60, "velocity": 109, "channel": 0}, {"type": "note_off", "time": 188, "note": 60, "velocity": 109, "channel": 0}, {"type": "note_on", "time": 47, "note": 60, "velocity": 106, "channel": 0}, {"type": "note_off", "time": 44, "note": 60, "velocity": 106, "channel": 0}, {"type": "note_on", "time": 5, "note": 62, "velocity": 85, "channel": 0}, {"type": "note_off", "time": 28, "note": 62, "velocity": 85, "channel": 0}, {"type": "note_on", "time": 1, "note": 64, "velocity": 111, "channel": 0}, {"type": "note_off", "time": 52, "note": 64, "velocity": 111, "channel": 0}, {"type": "note_on", "time": 12, "note": 67, "velocity": 113, "channel": 0}, {"type": "note_off", "time": 102, "note": 67, "velocity": 113, "channel": 0}, {"type": "note_on", "time": 6, "note": 66, "velocity": 119, "channel": 0}, {"type": "note_off", "time": 83, "note": 66, "velocity": 119, "channel": 0}, {"type": "note_on", "time": 6, "note": 65, "velocity": 122, "channel": 0}, {"type": "note_off", "time": 96, "note": 65, "velocity": 122, "channel": 0}, {"type": "note_on", "time": 3, "note": 62, "velocity": 116, "channel": 0}, {"type": "note_off", "time": 70, "note": 62, "velocity": 116, "channel": 0}, {"type": "note_on", "time": 15, "note": 58, "velocity": 108, "channel": 0}, {"type": "note_off", "time": 77, "note": 58, "velocity": 108, "channel": 0}, {"type": "note_on", "time": 16, "note": 55, "velocity": 108, "channel": 0}, {"type": "note_off", "time": 94, "note": 55, "velocity": 108, "channel": 0}, {"type": "note_on", "time": 9, "note": 51, "velocity": 97, "channel": 0}, {"type": "note_off", "time": 111, "note": 51, "velocity": 97, "channel": 0}, {"type": "note_on", "time": 5, "note": 52, "velocity": 103, "channel": 0}, {"type": "note_off", "time": 58, "note": 52, "velocity": 103, "channel": 0}, {"type": "note_on", "time": 7, "note": 53, "velocity": 120, "channel": 0}, {"type": "note_off", "time": 97, "note": 53, "velocity": 120, "channel": 0}, {"type": "note_on", "time": 20, "note": 54, "velocity": 113, "channel": 0}, {"type": "note_off", "time": 56, "note": 54, "velocity": 113, "channel": 0}, {"type": "note_on", "time": 15, "note": 57, "velocity": 109, "channel": 0}, {"type": "note_off", "time": 97, "note": 57, "velocity": 109, "channel": 0}, {"type": "note_on", "time": 8, "note": 60, "velocity": 102, "channel": 0}, {"type": "note_off", "time": 90, "note": 60, "velocity": 102, "channel": 0}, {"type": "note_on", "time": 7, "note": 65, "velocity": 115, "channel": 0}, {"type": "note_off", "time": 110, "note": 65, "velocity": 115, "channel": 0}, {"type": "note_on", "time": 11, "note": 63, "velocity": 111, "channel": 0}, {"type": "note_off", "time": 37, "note": 63, "velocity": 111, "channel": 0}, {"type": "note_on", "time": 4, "note": 64, "velocity": 117, "channel": 0}, {"type": "note_off", "time": 39, "note": 64, "velocity": 117, "channel": 0}, {"type": "note_on", "time": 17, "note": 63, "velocity": 103, "channel": 0}, {"type": "note_off", "time": 234, "note": 63, "velocity": 103, "channel": 0}, {"type": "note_on", "time": 45, "note": 62, "velocity": 108, "channel": 0}, {"type": "note_off", "time": 68, "note": 62, "velocity": 108, "channel": 0}, {"type": "note_on", "time": 112, "note": 62, "velocity": 108, "channel": 0}, {"type": "note_off", "time": 58, "note": 62, "velocity": 108, "channel": 0}, {"type": "note_on", "time": 4, "note": 63, "velocity": 112, "channel": 0}, {"type": "note_off", "time": 217, "note": 63, "velocity": 112, "channel": 0}, {"type": "note_on", "time": 15, "note": 62, "velocity": 102, "channel": 0}, {"type": "note_off", "time": 297, "note": 62, "velocity": 102, "channel": 0}, {"type": "note_on", "time": 423, "note": 62, "velocity": 116, "channel": 0}, {"type": "note_off", "time": 73, "note": 62, "velocity": 116, "channel": 0}, {"type": "note_on", "time": 8, "note": 63, "velocity": 118, "channel": 0}, {"type": "note_off", "time": 33, "note": 63, "velocity": 118, "channel": 0}, {"type": "note_on", "time": 11, "note": 62, "velocity": 114, "channel": 0}, {"type": "note_off", "time": 38, "note": 62, "velocity": 114, "channel": 0}, {"type": "note_on", "time": 12, "note": 60, "velocity": 118, "channel": 0}, {"type": "note_off", "time": 75, "note": 60, "velocity": 118, "channel": 0}, {"type": "note_on", "time": 9, "note": 62, "velocity": 111, "channel": 0}, {"type": "note_off", "time": 40, "note": 62, "velocity": 111, "channel": 0}, {"type": "note_on", "time": 15, "note": 60, "velocity": 115, "channel": 0}, {"type": "note_off", "time": 49, "note": 60, "velocity": 115, "channel": 0}, {"type": "note_on", "time": 20, "note": 59, "velocity": 117, "channel": 0}, {"type": "note_off", "time": 52, "note": 59, "velocity": 117, "channel": 0}, {"type": "note_on", "time": 137, "note": 62, "velocity": 109, "channel": 0}, {"type": "note_off", "time": 73, "note": 62, "velocity": 109, "channel": 0}, {"type": "note_on", "time": 134, "note": 67, "velocity": 110, "channel": 0}, {"type": "note_off", "time": 89, "note": 67, "velocity": 110, "channel": 0}, {"type": "note_on", "time": 300, "note": 55, "velocity": 109, "channel": 0}, {"type": "note_off", "time": 80, "note": 55, "velocity": 109, "channel": 0}, {"type": "note_on", "time": 10, "note": 58, "velocity": 104, "channel": 0}, {"type": "note_off", "time": 88, "note": 58, "velocity": 104, "channel": 0}, {"type": "note_on", "time": 1, "note": 63, "velocity": 106, "channel": 0}, {"type": "note_off", "time": 96, "note": 63, "velocity": 106, "channel": 0}, {"type": "note_on", "time": 28, "note": 57, "velocity": 106, "channel": 0}, {"type": "note_off", "time": 48, "note": 57, "velocity": 106, "channel": 0}, {"type": "note_on", "time": 10, "note": 60, "velocity": 116, "channel": 0}, {"type": "note_off", "time": 122, "note": 60, "velocity": 116, "channel": 0}, {"type": "note_on", "time": 4, "note": 65, "velocity": 116, "channel": 0}, {"type": "note_off", "time": 95, "note": 65, "velocity": 116, "channel": 0}, {"type": "note_on", "time": 3, "note": 63, "velocity": 106, "channel": 0}, {"type": "note_off", "time": 91, "note": 63, "velocity": 106, "channel": 0}, {"type": "note_on", "time": 12, "note": 60, "velocity": 118, "channel": 0}, {"type": "note_off", "time": 71, "note": 60, "velocity": 118, "channel": 0}, {"type": "note_on", "time": 9, "note": 62, "velocity": 103, "channel": 0}, {"type": "note_off", "time": 172, "note": 62, "velocity": 103, "channel": 0}, {"type": "note_on", "time": 20, "note": 59, "velocity": 112, "channel": 0}, {"type": "note_off", "time": 92, "note": 59, "velocity": 112, "channel": 0}, {"type": "note_on", "time": 96, "note": 50, "velocity": 98, "channel": 0}, {"type": "note_off", "time": 126, "note": 50, "velocity": 98, "channel": 0}, {"type": "note_on", "time": 191, "note": 50, "velocity": 108, "channel": 0}, {"type": "note_off", "time": 69, "note": 50, "velocity": 108, "channel": 0}, {"type": "note_on", "time": 13, "note": 51, "velocity": 102, "channel": 0}, {"type": "note_off", "time": 66, "note": 51, "velocity": 102, "channel": 0}, {"type": "note_on", "time": 15, "note": 55, "velocity": 104, "channel": 0}, {"type": "note_off", "time": 72, "note": 55, "velocity": 104, "channel": 0}, {"type": "note_on", "time": 10, "note": 58, "velocity": 115, "channel": 0}, {"type": "note_off", "time": 100, "note": 58, "velocity": 115, "channel": 0}, {"type": "note_on", "time": 12, "note": 60, "velocity": 117, "channel": 0}, {"type": "note_off", "time": 74, "note": 60, "velocity": 117, "channel": 0}, {"type": "note_on", "time": 11, "note": 61, "velocity": 116, "channel": 0}, {"type": "note_off", "time": 94, "note": 61, "velocity": 116, "channel": 0}, {"type": "note_on", "time": 15, "note": 57, "velocity": 114, "channel": 0}, {"type": "note_off", "time": 60, "note": 57, "velocity": 114, "channel": 0}, {"type": "note_on", "time": 11, "note": 54, "velocity": 101, "channel": 0}, {"type": "note_off", "time": 130, "note": 54, "velocity": 101, "channel": 0}, {"type": "note_on", "time": 57, "note": 60, "velocity": 120, "channel": 0}, {"type": "note_off", "time": 123, "note": 60, "velocity": 120, "channel": 0}, {"type": "note_on", "time": 10, "note": 57, "velocity": 114, "channel": 0}, {"type": "note_off", "time": 71, "note": 57, "velocity": 114, "channel": 0}, {"type": "note_on", "time": 7, "note": 53, "velocity": 115, "channel": 0}, {"type": "note_off", "time": 94, "note": 53, "velocity": 115, "channel": 0}, {"type": "note_on", "time": 10, "note": 50, "velocity": 91, "channel": 0}, {"type": "note_off", "time": 189, "note": 50, "velocity": 91, "channel": 0}, {"type": "note_on", "time": 58, "note": 49, "velocity": 109, "channel": 0}, {"type": "note_off", "time": 126, "note": 49, "velocity": 109, "channel": 0}, {"type": "note_on", "time": 17, "note": 51, "velocity": 107, "channel": 0}, {"type": "note_off", "time": 66, "note": 51, "velocity": 107, "channel": 0}, {"type": "note_on", "time": 17, "note": 52, "velocity": 106, "channel": 0}, {"type": "note_off", "time": 69, "note": 52, "velocity": 106, "channel": 0}, {"type": "note_on", "time": 19, "note": 54, "velocity": 127, "channel": 0}, {"type": "note_off", "time": 81, "note": 54, "velocity": 127, "channel": 0}, {"type": "note_on", "time": 4, "note": 55, "velocity": 110, "channel": 0}, {"type": "note_off", "time": 91, "note": 55, "velocity": 110, "channel": 0}, {"type": "note_on", "time": 23, "note": 57, "velocity": 109, "channel": 0}, {"type": "note_off", "time": 77, "note": 57, "velocity": 109, "channel": 0}, {"type": "note_on", "time": 20, "note": 58, "velocity": 117, "channel": 0}, {"type": "note_off", "time": 97, "note": 58, "velocity": 117, "channel": 0}, {"type": "note_on", "time": 4, "note": 55, "velocity": 113, "channel": 0}, {"type": "note_off", "time": 57, "note": 55, "velocity": 113, "channel": 0}, {"type": "note_on", "time": 3, "note": 57, "velocity": 115, "channel": 0}, {"type": "note_off", "time": 138, "note": 57, "velocity": 115, "channel": 0}, {"type": "note_on", "time": 8, "note": 55, "velocity": 110, "channel": 0}, {"type": "note_off", "time": 243, "note": 55, "velocity": 110, "channel": 0}, {"type": "note_on", "time": 15, "note": 56, "velocity": 108, "channel": 0}, {"type": "note_off", "time": 52, "note": 56, "velocity": 108, "channel": 0}, {"type": "note_on", "time": 4, "note": 58, "velocity": 116, "channel": 0}, {"type": "note_off", "time": 16, "note": 58, "velocity": 116, "channel": 0}, {"type": "note_on", "time": 14, "note": 60, "velocity": 119, "channel": 0}, {"type": "note_off", "time": 38, "note": 60, "velocity": 119, "channel": 0}, {"type": "note_on", "time": 7, "note": 62, "velocity": 113, "channel": 0}, {"type": "note_off", "time": 47, "note": 62, "velocity": 113, "channel": 0}, {"type": "note_on", "time": 1, "note": 64, "velocity": 113, "channel": 0}, {"type": "note_off", "time": 135, "note": 64, "velocity": 113, "channel": 0}, {"type": "note_on", "time": 936, "note": 55, "velocity": 113, "channel": 0}, {"type": "note_off", "time": 56, "note": 55, "velocity": 113, "channel": 0}, {"type": "note_on", "time": 12, "note": 64, "velocity": 110, "channel": 0}, {"type": "note_off", "time": 72, "note": 64, "velocity": 110, "channel": 0}, {"type": "note_on", "time": 40, "note": 62, "velocity": 115, "channel": 0}, {"type": "note_off", "time": 69, "note": 62, "velocity": 115, "channel": 0}, {"type": "note_on", "time": 8, "note": 63, "velocity": 102, "channel": 0}, {"type": "note_off", "time": 81, "note": 63, "velocity": 102, "channel": 0}, {"type": "note_on", "time": 7, "note": 62, "velocity": 112, "channel": 0}, {"type": "note_off", "time": 81, "note": 62, "velocity": 112, "channel": 0}, {"type": "note_on", "time": 35, "note": 62, "velocity": 105, "channel": 0}, {"type": "note_off", "time": 90, "note": 62, "velocity": 105, "channel": 0}, {"type": "note_on", "time": 8, "note": 59, "velocity": 113, "channel": 0}, {"type": "note_off", "time": 82, "note": 59, "velocity": 113, "channel": 0}, {"type": "note_on", "time": 8, "note": 55, "velocity": 97, "channel": 0}, {"type": "note_off", "time": 91, "note": 55, "velocity": 97, "channel": 0}, {"type": "note_on", "time": 56, "note": 55, "velocity": 98, "channel": 0}, {"type": "note_off", "time": 42, "note": 55, "velocity": 98, "channel": 0}, {"type": "note_on", "time": 6, "note": 60, "velocity": 118, "channel": 0}, {"type": "note_off", "time": 81, "note": 60, "velocity": 118, "channel": 0}, {"type": "note_on", "time": 107, "note": 60, "velocity": 114, "channel": 0}, {"type": "note_off", "time": 31, "note": 60, "velocity": 114, "channel": 0}, {"type": "note_on", "time": 8, "note": 61, "velocity": 112, "channel": 0}, {"type": "note_off", "time": 73, "note": 61, "velocity": 112, "channel": 0}, {"type": "note_on", "time": 8, "note": 60, "velocity": 113, "channel": 0}, {"type": "note_off", "time": 53, "note": 60, "velocity": 113, "channel": 0}, {"type": "note_on", "time": 11, "note": 54, "velocity": 105, "channel": 0}, {"type": "note_off", "time": 112, "note": 54, "velocity": 105, "channel": 0}, {"type": "note_on", "time": 26, "note": 51, "velocity": 95, "channel": 0}, {"type": "note_off", "time": 145, "note": 51, "velocity": 95, "channel": 0}, {"type": "note_on", "time": 61, "note": 49, "velocity": 103, "channel": 0}, {"type": "note_off", "time": 57, "note": 49, "velocity": 103, "channel": 0}, {"type": "note_on", "time": 6, "note": 50, "velocity": 98, "channel": 0}, {"type": "note_off", "time": 114, "note": 50, "velocity": 98, "channel": 0}, {"type": "note_on", "time": 11, "note": 54, "velocity": 109, "channel": 0}, {"type": "note_off", "time": 61, "note": 54, "velocity": 109, "channel": 0}, {"type": "note_on", "time": 12, "note": 55, "velocity": 99, "channel": 0}, {"type": "note_off", "time": 93, "note": 55, "velocity": 99, "channel": 0}, {"type": "note_on", "time": 9, "note": 57, "velocity": 104, "channel": 0}, {"type": "note_off", "time": 52, "note": 57, "velocity": 104, "channel": 0}, {"type": "note_on", "time": 12, "note": 58, "velocity": 118, "channel": 0}, {"type": "note_off", "time": 109, "note": 58, "velocity": 118, "channel": 0}, {"type": "note_on", "time": 11, "note": 54, "velocity": 115, "channel": 0}, {"type": "note_off", "time": 74, "note": 54, "velocity": 115, "channel": 0}, {"type": "note_on", "time": 100, "note": 57, "velocity": 116, "channel": 0}, {"type": "note_off", "time": 95, "note": 57, "velocity": 116, "channel": 0}, {"type": "note_on", "time": 5, "note": 58, "velocity": 109, "channel": 0}, {"type": "note_off", "time": 81, "note": 58, "velocity": 109, "channel": 0}, {"type": "note_on", "time": 2, "note": 60, "velocity": 109, "channel": 0}, {"type": "note_off", "time": 91, "note": 60, "velocity": 109, "channel": 0}, {"type": "note_on", "time": 5, "note": 62, "velocity": 108, "channel": 0}, {"type": "note_off", "time": 73, "note": 62, "velocity": 108, "channel": 0}, {"type": "note_on", "time": 5, "note": 60, "velocity": 109, "channel": 0}, {"type": "note_off", "time": 92, "note": 60, "velocity": 109, "channel": 0}, {"type": "note_on", "time": 12, "note": 61, "velocity": 110, "channel": 0}, {"type": "note_off", "time": 106, "note": 61, "velocity": 110, "channel": 0}, {"type": "note_on", "time": 12, "note": 57, "velocity": 110, "channel": 0}, {"type": "note_off", "time": 45, "note": 57, "velocity": 110, "channel": 0}, {"type": "note_on", "time": 9, "note": 54, "velocity": 115, "channel": 0}, {"type": "note_off", "time": 79, "note": 54, "velocity": 115, "channel": 0}, {"type": "note_on", "time": 320, "note": 61, "velocity": 116, "channel": 0}, {"type": "note_off", "time": 100, "note": 61, "velocity": 116, "channel": 0}, {"type": "note_on", "time": 5, "note": 62, "velocity": 105, "channel": 0}, {"type": "note_off", "time": 73, "note": 62, "velocity": 105, "channel": 0}, {"type": "note_on", "time": 13, "note": 67, "velocity": 112, "channel": 0}, {"type": "note_off", "time": 106, "note": 67, "velocity": 112, "channel": 0}, {"type": "note_on", "time": 23, "note": 65, "velocity": 117, "channel": 0}, {"type": "note_off", "time": 73, "note": 65, "velocity": 117, "channel": 0}, {"type": "note_on", "time": 25, "note": 61, "velocity": 97, "channel": 0}, {"type": "note_off", "time": 43, "note": 61, "velocity": 97, "channel": 0}, {"type": "note_on", "time": 9, "note": 58, "velocity": 100, "channel": 0}, {"type": "note_off", "time": 62, "note": 58, "velocity": 100, "channel": 0}, {"type": "note_on", "time": 9, "note": 59, "velocity": 110, "channel": 0}, {"type": "note_off", "time": 101, "note": 59, "velocity": 110, "channel": 0}, {"type": "note_on", "time": 9, "note": 60, "velocity": 110, "channel": 0}, {"type": "note_off", "time": 94, "note": 60, "velocity": 110, "channel": 0}, {"type": "note_on", "time": 15, "note": 65, "velocity": 113, "channel": 0}, {"type": "note_off", "time": 101, "note": 65, "velocity": 113, "channel": 0}, {"type": "note_on", "time": 15, "note": 64, "velocity": 120, "channel": 0}, {"type": "note_off", "time": 79, "note": 64, "velocity": 120, "channel": 0}, {"type": "note_on", "time": 14, "note": 63, "velocity": 107, "channel": 0}, {"type": "note_off", "time": 78, "note": 63, "velocity": 107, "channel": 0}, {"type": "note_on", "time": 32, "note": 60, "velocity": 115, "channel": 0}, {"type": "note_off", "time": 49, "note": 60, "velocity": 115, "channel": 0}, {"type": "note_on", "time": 9, "note": 57, "velocity": 104, "channel": 0}, {"type": "note_off", "time": 125, "note": 57, "velocity": 104, "channel": 0}, {"type": "note_on", "time": 10, "note": 54, "velocity": 97, "channel": 0}, {"type": "note_off", "time": 69, "note": 54, "velocity": 97, "channel": 0}, {"type": "note_on", "time": 17, "note": 55, "velocity": 106, "channel": 0}, {"type": "note_off", "time": 105, "note": 55, "velocity": 106, "channel": 0}, {"type": "note_on", "time": 13, "note": 57, "velocity": 114, "channel": 0}, {"type": "note_off", "time": 91, "note": 57, "velocity": 114, "channel": 0}, {"type": "note_on", "time": 8, "note": 59, "velocity": 105, "channel": 0}, {"type": "note_off", "time": 104, "note": 59, "velocity": 105, "channel": 0}, {"type": "note_on", "time": 8, "note": 61, "velocity": 95, "channel": 0}, {"type": "note_off", "time": 50, "note": 61, "velocity": 95, "channel": 0}, {"type": "note_on", "time": 8, "note": 62, "velocity": 108, "channel": 0}, {"type": "note_off", "time": 110, "note": 62, "velocity": 108, "channel": 0}, {"type": "note_on", "time": 11, "note": 64, "velocity": 97, "channel": 0}, {"type": "note_off", "time": 28, "note": 64, "velocity": 97, "channel": 0}, {"type": "note_on", "time": 14, "note": 66, "velocity": 103, "channel": 0}, {"type": "note_off", "time": 128, "note": 66, "velocity": 103, "channel": 0}, {"type": "note_on", "time": 8, "note": 67, "velocity": 119, "channel": 0}, {"type": "note_off", "time": 323, "note": 67, "velocity": 119, "channel": 0}, {"type": "note_on", "time": 123, "note": 55, "velocity": 113, "channel": 0}, {"type": "note_off", "time": 102, "note": 55, "velocity": 113, "channel": 0}, {"type": "note_on", "time": 91, "note": 60, "velocity": 110, "channel": 0}, {"type": "note_off", "time": 129, "note": 60, "velocity": 110, "channel": 0}, {"type": "note_on", "time": 70, "note": 63, "velocity": 113, "channel": 0}, {"type": "note_off", "time": 102, "note": 63, "velocity": 113, "channel": 0}, {"type": "note_on", "time": 3, "note": 65, "velocity": 112, "channel": 0}, {"type": "note_off", "time": 230, "note": 65, "velocity": 112, "channel": 0}, {"type": "note_on", "time": 21, "note": 63, "velocity": 101, "channel": 0}, {"type": "note_off", "time": 49, "note": 63, "velocity": 101, "channel": 0}, {"type": "note_on", "time": 7, "note": 65, "velocity": 116, "channel": 0}, {"type": "note_off", "time": 177, "note": 65, "velocity": 116, "channel": 0}, {"type": "note_on", "time": 36, "note": 63, "velocity": 99, "channel": 0}, {"type": "note_off", "time": 44, "note": 63, "velocity": 99, "channel": 0}, {"type": "note_on", "time": 13, "note": 60, "velocity": 104, "channel": 0}, {"type": "note_off", "time": 338, "note": 60, "velocity": 104, "channel": 0}, {"type": "note_on", "time": 272, "note": 55, "velocity": 112, "channel": 0}, {"type": "note_off", "time": 75, "note": 55, "velocity": 112, "channel": 0}, {"type": "note_on", "time": 16, "note": 60, "velocity": 113, "channel": 0}, {"type": "note_off", "time": 90, "note": 60, "velocity": 113, "channel": 0}, {"type": "note_on", "time": 19, "note": 63, "velocity": 97, "channel": 0}, {"type": "note_off", "time": 44, "note": 63, "velocity": 97, "channel": 0}, {"type": "note_on", "time": 9, "note": 65, "velocity": 121, "channel": 0}, {"type": "note_off", "time": 102, "note": 65, "velocity": 121, "channel": 0}, {"type": "note_on", "time": 7, "note": 66, "velocity": 116, "channel": 0}, {"type": "note_off", "time": 56, "note": 66, "velocity": 116, "channel": 0}, {"type": "note_on", "time": 12, "note": 65, "velocity": 118, "channel": 0}, {"type": "note_off", "time": 82, "note": 65, "velocity": 118, "channel": 0}, {"type": "note_on", "time": 24, "note": 63, "velocity": 105, "channel": 0}, {"type": "note_off", "time": 57, "note": 63, "velocity": 105, "channel": 0}, {"type": "note_on", "time": 56, "note": 65, "velocity": 112, "channel": 0}, {"type": "note_off", "time": 148, "note": 65, "velocity": 112, "channel": 0}, {"type": "note_on", "time": 27, "note": 63, "velocity": 107, "channel": 0}, {"type": "note_off", "time": 110, "note": 63, "velocity": 107, "channel": 0}, {"type": "note_on", "time": 34, "note": 60, "velocity": 116, "channel": 0}, {"type": "note_off", "time": 92, "note": 60, "velocity": 116, "channel": 0}, {"type": "note_on", "time": 86, "note": 60, "velocity": 109, "channel": 0}, {"type": "note_off", "time": 316, "note": 60, "velocity": 109, "channel": 0}, {"type": "note_on", "time": 60, "note": 55, "velocity": 113, "channel": 0}, {"type": "note_off", "time": 90, "note": 55, "velocity": 113, "channel": 0}, {"type": "note_on", "time": 19, "note": 60, "velocity": 110, "channel": 0}, {"type": "note_off", "time": 55, "note": 60, "velocity": 110, "channel": 0}, {"type": "note_on", "time": 50, "note": 63, "velocity": 101, "channel": 0}, {"type": "note_off", "time": 36, "note": 63, "velocity": 101, "channel": 0}, {"type": "note_on", "time": 12, "note": 65, "velocity": 112, "channel": 0}, {"type": "note_off", "time": 50, "note": 65, "velocity": 112, "channel": 0}, {"type": "note_on", "time": 8, "note": 66, "velocity": 109, "channel": 0}, {"type": "note_off", "time": 61, "note": 66, "velocity": 109, "channel": 0}, {"type": "note_on", "time": 16, "note": 65, "velocity": 113, "channel": 0}, {"type": "note_off", "time": 91, "note": 65, "velocity": 113, "channel": 0}, {"type": "note_on", "time": 20, "note": 63, "velocity": 112, "channel": 0}, {"type": "note_off", "time": 80, "note": 63, "velocity": 112, "channel": 0}, {"type": "note_on", "time": 99, "note": 65, "velocity": 118, "channel": 0}, {"type": "note_off", "time": 69, "note": 65, "velocity": 118, "channel": 0}, {"type": "note_on", "time": 126, "note": 63, "velocity": 106, "channel": 0}, {"type": "note_off", "time": 77, "note": 63, "velocity": 106, "channel": 0}, {"type": "note_on", "time": 77, "note": 60, "velocity": 111, "channel": 0}, {"type": "note_off", "time": 118, "note": 60, "velocity": 111, "channel": 0}, {"type": "note_on", "time": 6, "note": 56, "velocity": 115, "channel": 0}, {"type": "note_off", "time": 66, "note": 56, "velocity": 115, "channel": 0}, {"type": "note_on", "time": 12, "note": 55, "velocity": 100, "channel": 0}, {"type": "note_off", "time": 93, "note": 55, "velocity": 100, "channel": 0}, {"type": "note_on", "time": 6, "note": 53, "velocity": 106, "channel": 0}, {"type": "note_off", "time": 56, "note": 53, "velocity": 106, "channel": 0}, {"type": "note_on", "time": 28, "note": 58, "velocity": 114, "channel": 0}, {"type": "note_off", "time": 96, "note": 58, "velocity": 114, "channel": 0}, {"type": "note_on", "time": 12, "note": 57, "velocity": 115, "channel": 0}, {"type": "note_off", "time": 70, "note": 57, "velocity": 115, "channel": 0}, {"type": "note_on", "time": 15, "note": 56, "velocity": 101, "channel": 0}, {"type": "note_off", "time": 80, "note": 56, "velocity": 101, "channel": 0}, {"type": "note_on", "time": 30, "note": 54, "velocity": 125, "channel": 0}, {"type": "note_off", "time": 81, "note": 54, "velocity": 125, "channel": 0}, {"type": "note_on", "time": 4, "note": 55, "velocity": 124, "channel": 0}, {"type": "note_off", "time": 95, "note": 55, "velocity": 124, "channel": 0}, {"type": "note_on", "time": 24, "note": 58, "velocity": 112, "channel": 0}, {"type": "note_off", "time": 60, "note": 58, "velocity": 112, "channel": 0}, {"type": "note_on", "time": 8, "note": 60, "velocity": 118, "channel": 0}, {"type": "note_off", "time": 137, "note": 60, "velocity": 118, "channel": 0}, {"type": "note_on", "time": 4, "note": 63, "velocity": 93, "channel": 0}, {"type": "note_off", "time": 40, "note": 63, "velocity": 93, "channel": 0}, {"type": "note_on", "time": 8, "note": 65, "velocity": 119, "channel": 0}, {"type": "note_off", "time": 112, "note": 65, "velocity": 119, "channel": 0}, {"type": "note_on", "time": 19, "note": 63, "velocity": 92, "channel": 0}, {"type": "note_off", "time": 122, "note": 63, "velocity": 92, "channel": 0}, {"type": "note_on", "time": 612, "note": 67, "velocity": 124, "channel": 0}, {"type": "note_off", "time": 91, "note": 67, "velocity": 124, "channel": 0}, {"type": "note_on", "time": 79, "note": 67, "velocity": 121, "channel": 0}, {"type": "note_off", "time": 86, "note": 67, "velocity": 121, "channel": 0}, {"type": "note_on", "time": 9, "note": 66, "velocity": 116, "channel": 0}, {"type": "note_off", "time": 72, "note": 66, "velocity": 116, "channel": 0}, {"type": "note_on", "time": 16, "note": 66, "velocity": 108, "channel": 0}, {"type": "note_off", "time": 56, "note": 66, "velocity": 108, "channel": 0}, {"type": "note_on", "time": 23, "note": 62, "velocity": 104, "channel": 0}, {"type": "note_off", "time": 99, "note": 62, "velocity": 104, "channel": 0}, {"type": "note_on", "time": 36, "note": 62, "velocity": 105, "channel": 0}, {"type": "note_off", "time": 53, "note": 62, "velocity": 105, "channel": 0}, {"type": "note_on", "time": 10, "note": 59, "velocity": 107, "channel": 0}, {"type": "note_off", "time": 156, "note": 59, "velocity": 107, "channel": 0}, {"type": "note_on", "time": 57, "note": 65, "velocity": 112, "channel": 0}, {"type": "note_off", "time": 84, "note": 65, "velocity": 112, "channel": 0}, {"type": "note_on", "time": 26, "note": 65, "velocity": 112, "channel": 0}, {"type": "note_off", "time": 69, "note": 65, "velocity": 112, "channel": 0}, {"type": "note_on", "time": 6, "note": 63, "velocity": 104, "channel": 0}, {"type": "note_off", "time": 77, "note": 63, "velocity": 104, "channel": 0}, {"type": "note_on", "time": 24, "note": 63, "velocity": 109, "channel": 0}, {"type": "note_off", "time": 65, "note": 63, "velocity": 109, "channel": 0}, {"type": "note_on", "time": 12, "note": 60, "velocity": 114, "channel": 0}, {"type": "note_off", "time": 123, "note": 60, "velocity": 114, "channel": 0}, {"type": "note_on", "time": 69, "note": 57, "velocity": 118, "channel": 0}, {"type": "note_off", "time": 138, "note": 57, "velocity": 118, "channel": 0}, {"type": "note_on", "time": 72, "note": 66, "velocity": 120, "channel": 0}, {"type": "note_off", "time": 100, "note": 66, "velocity": 120, "channel": 0}, {"type": "note_on", "time": 15, "note": 66, "velocity": 116, "channel": 0}, {"type": "note_off", "time": 68, "note": 66, "velocity": 116, "channel": 0}, {"type": "note_on", "time": 11, "note": 62, "velocity": 110, "channel": 0}, {"type": "note_off", "time": 93, "note": 62, "velocity": 110, "channel": 0}, {"type": "note_on", "time": 14, "note": 62, "velocity": 110, "channel": 0}, {"type": "note_off", "time": 59, "note": 62, "velocity": 110, "channel": 0}, {"type": "note_on", "time": 18, "note": 59, "velocity": 117, "channel": 0}, {"type": "note_off", "time": 120, "note": 59, "velocity": 117, "channel": 0}, {"type": "note_on", "time": 58, "note": 55, "velocity": 121, "channel": 0}, {"type": "note_off", "time": 132, "note": 55, "velocity": 121, "channel": 0}, {"type": "note_on", "time": 77, "note": 63, "velocity": 115, "channel": 0}, {"type": "note_off", "time": 48, "note": 63, "velocity": 115, "channel": 0}, {"type": "note_on", "time": 11, "note": 64, "velocity": 113, "channel": 0}, {"type": "note_off", "time": 39, "note": 64, "velocity": 113, "channel": 0}, {"type": "note_on", "time": 12, "note": 63, "velocity": 112, "channel": 0}, {"type": "note_off", "time": 51, "note": 63, "velocity": 112, "channel": 0}, {"type": "note_on", "time": 31, "note": 60, "velocity": 115, "channel": 0}, {"type": "note_off", "time": 119, "note": 60, "velocity": 115, "channel": 0}, {"type": "note_on", "time": 18, "note": 62, "velocity": 109, "channel": 0}, {"type": "note_off", "time": 70, "note": 62, "velocity": 109, "channel": 0}, {"type": "note_on", "time": 13, "note": 63, "velocity": 111, "channel": 0}, {"type": "note_off", "time": 69, "note": 63, "velocity": 111, "channel": 0}, {"type": "note_on", "time": 21, "note": 64, "velocity": 110, "channel": 0}, {"type": "note_off", "time": 83, "note": 64, "velocity": 110, "channel": 0}, {"type": "note_on", "time": 9, "note": 65, "velocity": 111, "channel": 0}, {"type": "note_off", "time": 102, "note": 65, "velocity": 111, "channel": 0}, {"type": "note_on", "time": 6, "note": 63, "velocity": 110, "channel": 0}, {"type": "note_off", "time": 79, "note": 63, "velocity": 110, "channel": 0}, {"type": "note_on", "time": 8, "note": 60, "velocity": 114, "channel": 0}, {"type": "note_off", "time": 52, "note": 60, "velocity": 114, "channel": 0}, {"type": "note_on", "time": 10, "note": 57, "velocity": 107, "channel": 0}, {"type": "note_off", "time": 68, "note": 57, "velocity": 107, "channel": 0}, {"type": "note_on", "time": 3, "note": 53, "velocity": 118, "channel": 0}, {"type": "note_off", "time": 114, "note": 53, "velocity": 118, "channel": 0}, {"type": "note_on", "time": 20, "note": 55, "velocity": 106, "channel": 0}, {"type": "note_off", "time": 85, "note": 55, "velocity": 106, "channel": 0}, {"type": "note_on", "time": 11, "note": 57, "velocity": 111, "channel": 0}, {"type": "note_off", "time": 68, "note": 57, "velocity": 111, "channel": 0}, {"type": "note_on", "time": 16, "note": 58, "velocity": 112, "channel": 0}, {"type": "note_off", "time": 92, "note": 58, "velocity": 112, "channel": 0}, {"type": "note_on", "time": 8, "note": 61, "velocity": 110, "channel": 0}, {"type": "note_off", "time": 35, "note": 61, "velocity": 110, "channel": 0}, {"type": "note_on", "time": 11, "note": 62, "velocity": 103, "channel": 0}, {"type": "note_off", "time": 141, "note": 62, "velocity": 103, "channel": 0}, {"type": "note_on", "time": 12, "note": 58, "velocity": 116, "channel": 0}, {"type": "note_off", "time": 86, "note": 58, "velocity": 116, "channel": 0}, {"type": "note_on", "time": 88, "note": 60, "velocity": 113, "channel": 0}, {"type": "note_off", "time": 136, "note": 60, "velocity": 113, "channel": 0}, {"type": "note_on", "time": 5, "note": 61, "velocity": 104, "channel": 0}, {"type": "note_off", "time": 169, "note": 61, "velocity": 104, "channel": 0}, {"type": "note_on", "time": 11, "note": 61, "velocity": 112, "channel": 0}, {"type": "note_off", "time": 85, "note": 61, "velocity": 112, "channel": 0}, {"type": "note_on", "time": 12, "note": 60, "velocity": 108, "channel": 0}, {"type": "note_off", "time": 143, "note": 60, "velocity": 108, "channel": 0}, {"type": "note_on", "time": 20, "note": 58, "velocity": 108, "channel": 0}, {"type": "note_off", "time": 125, "note": 58, "velocity": 108, "channel": 0}, {"type": "note_on", "time": 20, "note": 55, "velocity": 115, "channel": 0}, {"type": "note_off", "time": 77, "note": 55, "velocity": 115, "channel": 0}, {"type": "note_on", "time": 101, "note": 55, "velocity": 99, "channel": 0}, {"type": "note_off", "time": 261, "note": 55, "velocity": 99, "channel": 0}, {"type": "note_on", "time": 506, "note": 61, "velocity": 115, "channel": 0}, {"type": "note_off", "time": 117, "note": 61, "velocity": 115, "channel": 0}, {"type": "note_on", "time": 137, "note": 60, "velocity": 110, "channel": 0}, {"type": "note_off", "time": 94, "note": 60, "velocity": 110, "channel": 0}, {"type": "note_on", "time": 111, "note": 58, "velocity": 118, "channel": 0}, {"type": "note_off", "time": 89, "note": 58, "velocity": 118, "channel": 0}, {"type": "note_on", "time": 100, "note": 55, "velocity": 114, "channel": 0}, {"type": "note_off", "time": 95, "note": 55, "velocity": 114, "channel": 0}, {"type": "note_on", "time": 35, "note": 55, "velocity": 116, "channel": 0}, {"type": "note_off", "time": 57, "note": 55, "velocity": 116, "channel": 0}, {"type": "note_on", "time": 212, "note": 55, "velocity": 101, "channel": 0}, {"type": "note_off", "time": 68, "note": 55, "velocity": 101, "channel": 0}, {"type": "note_on", "time": 233, "note": 55, "velocity": 103, "channel": 0}, {"type": "note_off", "time": 65, "note": 55, "velocity": 103, "channel": 0}, {"type": "note_on", "time": 211, "note": 55, "velocity": 101, "channel": 0}, {"type": "note_off", "time": 100, "note": 55, "velocity": 101, "channel": 0}, {"type": "end_of_track", "time": 0}]]}