{"ticks_per_beat": 192, "tracks": [[{"type": "track_name", "name": "Melody", "time": 0}, {"type": "set_tempo", "tempo": 236220, "time": 0}, {"type": "key_signature", "key": "Bb", "time": 0}, {"type": "time_signature", "numerator": 4, "denominator": 4, "clocks_per_click": 24, "notated_32nd_notes_per_beat": 8, "time": 0}, {"type": "note_on", "time": 5864, "note": 60, "velocity": 93, "channel": 0}, {"type": "note_off", "time": 401, "note": 60, "velocity": 93, "channel": 0}, {"type": "note_on", "time": 18, "note": 60, "velocity": 116, "channel": 0}, {"type": "note_off", "time": 123, "note": 60, "velocity": 116, "channel": 0}, {"type": "note_on", "time": 17, "note": 62, "velocity": 114, "channel": 0}, {"type": "note_off", "time": 63, "note": 62, "velocity": 114, "channel": 0}, {"type": "note_on", "time": 21, "note": 64, "velocity": 117, "channel": 0}, {"type": "note_off", "time": 85, "note": 64, "velocity": 117, "channel": 0}, {"type": "note_on", "time": 11, "note": 65, "velocity": 117, "channel": 0}, {"type": "note_off", "time": 85, "note": 65, "velocity": 117, "channel": 0}, {"type": "note_on", "time": 15, "note": 60, "velocity": 106, "channel": 0}, {"type": "note_off", "time": 107, "note": 60, "velocity": 106, "channel": 0}, {"type": "note_on", "time": 11, "note": 59, "velocity": 112, "channel": 0}, {"type": "note_off", "time": 68, "note": 59, "velocity": 112, "channel": 0}, {"type": "note_on", "time": 15, "note": 58, "velocity": 105, "channel": 0}, {"type": "note_off", "time": 97, "note": 58, "velocity": 105, "channel": 0}, {"type": "note_on", "time": 98, "note": 60, "velocity": 96, "channel": 0}, {"type": "note_off", "time": 379, "note": 60, "velocity": 96, "channel": 0}, {"type": "note_on", "time": 23, "note": 60, "velocity": 95, "channel": 0}, {"type": "note_off", "time": 369, "note": 60, "velocity": 95, "channel": 0}, {"type": "note_on", "time": 28, "note": 60, "velocity": 111, "channel": 0}, {"type": "note_off", "time": 127, "note": 60, "velocity": 111, "channel": 0}, {"type": "note_on", "time": 77, "note": 58, "velocity": 117, "channel": 0}, {"type": "note_off", "time": 69, "note": 58, "velocity": 117, "channel": 0}, {"type": "note_on", "time": 8, "note": 60, "velocity": 112, "channel": 0}, {"type": "note_off", "time": 56, "note": 60, "velocity": 112, "channel": 0}, {"type": "note_on", "time": 10, "note": 58, "velocity": 115, "channel": 0}, {"type": "note_off", "time": 76, "note": 58, "velocity": 115, "channel": 0}, {"type": "note_on", "time": 16, "note": 56, "velocity": 105, "channel": 0}, {"type": "note_off", "time": 77, "note": 56, "velocity": 105, "channel": 0}, {"type": "note_on", "time": 16, "note": 53, "velocity": 114, "channel": 0}, {"type": "note_off", "time": 61, "note": 53, "velocity": 114, "channel": 0}, {"type": "note_on", "time": 5, "note": 50, "velocity": 98, "channel": 0}, {"type": "note_off", "time": 72, "note": 50, "velocity": 98, "channel": 0}, {"type": "note_on", "time": 157, "note": 53, "velocity": 113, "channel": 0}, {"type": "note_off", "time": 98, "note": 53, "velocity": 113, "channel": 0}, {"type": "note_on", "time": 7, "note": 56, "velocity": 112, "channel": 0}, {"type": "note_off", "time": 54, "note": 56, "velocity": 112, "channel": 0}, {"type": "note_on", "time": 13, "note": 57, "velocity": 102, "channel": 0}, {"type": "note_off", "time": 109, "note": 57, "velocity": 102, "channel": 0}, {"type": "note_on", "time": 20, "note": 60, "velocity": 91, "channel": 0}, {"type": "note_off", "time": 60, "note": 60, "velocity": 91, "channel": 0}, {"type": "note_on", "time": 24, "note": 62, "velocity": 118, "channel": 0}, {"type": "note_off", "time": 98, "note": 62, "velocity": 118, "channel": 0}, {"type": "note_on", "time": 107, "note": 63, "velocity": 120, "channel": 0}, {"type": "note_off", "time": 94, "note": 63, "velocity": 120, "channel": 0}, {"type": "note_on", "time": 112, "note": 62, "velocity": 98, "channel": 0}, {"type": "note_off", "time": 81, "note": 62, "velocity": 98, "channel": 0}, {"type": "note_on", "time": 19, "note": 60, "velocity": 114, "channel": 0}, {"type": "note_off", "time": 66, "note": 60, "velocity": 114, "channel": 0}, {"type": "note_on", "time": 22, "note": 58, "velocity": 105, "channel": 0}, {"type": "note_off", "time": 70, "note": 58, "velocity": 105, "channel": 0}, {"type": "note_on", "time": 507, "note": 60, "velocity": 124, "channel": 0}, {"type": "note_off", "time": 95, "note": 60, "velocity": 124, "channel": 0}, {"type": "note_on", "time": 12, "note": 58, "velocity": 119, "channel": 0}, {"type": "note_off", "time": 79, "note": 58, "velocity": 119, "channel": 0}, {"type": "note_on", "time": 20, "note": 57, "velocity": 105, "channel": 0}, {"type": "note_off", "time": 110, "note": 57, "velocity": 105, "channel": 0}, {"type": "note_on", "time": 68, "note": 58, "velocity": 120, "channel": 0}, {"type": "note_off", "time": 122, "note": 58, "velocity": 120, "channel": 0}, {"type": "note_on", "time": 11, "note": 57, "velocity": 115, "channel": 0}, {"type": "note_off", "time": 71, "note": 57, "velocity": 115, "channel": 0}, {"type": "note_on", "time": 19, "note": 55, "velocity": 107, "channel": 0}, {"type": "note_off", "time": 89, "note": 55, "velocity": 107, "channel": 0}, {"type": "note_on", "time": 11, "note": 57, "velocity": 117, "channel": 0}, {"type": "note_off", "time": 104, "note": 57, "velocity": 117, "channel": 0}, {"type": "note_on", "time": 112, "note": 53, "velocity": 111, "channel": 0}, {"type": "note_off", "time": 167, "note": 53, "velocity": 111, "channel": 0}, {"type": "note_on", "time": 17, "note": 53, "velocity": 119, "channel": 0}, {"type": "note_off", "time": 82, "note": 53, "velocity": 119, "channel": 0}, {"type": "note_on", "time": 2, "note": 57, "velocity": 117, "channel": 0}, {"type": "note_off", "time": 135, "note": 57, "velocity": 117, "channel": 0}, {"type": "note_on", "time": 56, "note": 62, "velocity": 120, "channel": 0}, {"type": "note_off", "time": 134, "note": 62, "velocity": 120, "channel": 0}, {"type": "note_on", "time": 78, "note": 59, "velocity": 111, "channel": 0}, {"type": "note_off", "time": 84, "note": 59, "velocity": 111, "channel": 0}, {"type": "note_on", "time": 4, "note": 60, "velocity": 109, "channel": 0}, {"type": "note_off", "time": 268, "note": 60, "velocity": 109, "channel": 0}, {"type": "note_on", "time": 11, "note": 55, "velocity": 96, "channel": 0}, {"type": "note_off", "time": 380, "note": 55, "velocity": 96, "channel": 0}, {"type": "note_on", "time": 546, "note": 62, "velocity": 114, "channel": 0}, {"type": "note_off", "time": 170, "note": 62, "velocity": 114, "channel": 0}, {"type": "note_on", "time": 19, "note": 60, "velocity": 106, "channel": 0}, {"type": "note_off", "time": 70, "note": 60, "velocity": 106, "channel": 0}, {"type": "note_on", "time": 12, "note": 63, "velocity": 118, "channel": 0}, {"type": "note_off", "time": 100, "note": 63, "velocity": 118, "channel": 0}, {"type": "note_on", "time": 14, "note": 60, "velocity": 110, "channel": 0}, {"type": "note_off", "time": 66, "note": 60, "velocity": 110, "channel": 0}, {"type": "note_on", "time": 9, "note": 62, "velocity": 113, "channel": 0}, {"type": "note_off", "time": 122, "note": 62, "velocity": 113, "channel": 0}, {"type": "note_on", "time": 94, "note": 60, "velocity": 116, "channel": 0}, {"type": "note_off", "time": 83, "note": 60, "velocity": 116, "channel": 0}, {"type": "note_on", "time": 36, "note": 53, "velocity": 115, "channel": 0}, {"type": "note_off", "time": 60, "note": 53, "velocity": 115, "channel": 0}, {"type": "note_on", "time": 9, "note": 55, "velocity": 104, "channel": 0}, {"type": "note_off", "time": 97, "note": 55, "velocity": 104, "channel": 0}, {"type": "note_on", "time": 15, "note": 53, "velocity": 103, "channel": 0}, {"type": "note_off", "time": 71, "note": 53, "velocity": 103, "channel": 0}, {"type": "note_on", "time": 48, "note": 59, "velocity": 115, "channel": 0}, {"type": "note_off", "time": 97, "note": 59, "velocity": 115, "channel": 0}, {"type": "note_on", "time": 18, "note": 60, "velocity": 109, "channel": 0}, {"type": "note_off", "time": 42, "note": 60, "velocity": 109, "channel": 0}, {"type": "note_on", "time": 4, "note": 59, "velocity": 113, "channel": 0}, {"type": "note_off", "time": 31, "note": 59, "velocity": 113, "channel": 0}, {"type": "note_on", "time": 7, "note": 58, "velocity": 113, "channel": 0}, {"type": "note_off", "time": 64, "note": 58, "velocity": 113, "channel": 0}, {"type": "note_on", "time": 3, "note": 53, "velocity": 101, "channel": 0}, {"type": "note_off", "time": 69, "note": 53, "velocity": 101, "channel": 0}, {"type": "note_on", "time": 31, "note": 56, "velocity": 112, "channel": 0}, {"type": "note_off", "time": 111, "note": 56, "velocity": 112, "channel": 0}, {"type": "note_on", "time": 19, "note": 53, "velocity": 115, "channel": 0}, {"type": "note_off", "time": 58, "note": 53, "velocity": 115, "channel": 0}, {"type": "note_on", "time": 20, "note": 50, "velocity": 100, "channel": 0}, {"type": "note_off", "time": 69, "note": 50, "velocity": 100, "channel": 0}, {"type": "note_on", "time": 6, "note": 48, "velocity": 106, "channel": 0}, {"type": "note_off", "time": 69, "note": 48, "velocity": 106, "channel": 0}, {"type": "note_on", "time": 55, "note": 53, "velocity": 118, "channel": 0}, {"type": "note_off", "time": 96, "note": 53, "velocity": 118, "channel": 0}, {"type": "note_on", "time": 22, "note": 56, "velocity": 108, "channel": 0}, {"type": "note_off", "time": 68, "note": 56, "velocity": 108, "channel": 0}, {"type": "note_on", "time": 5, "note": 57, "velocity": 102, "channel": 0}, {"type": "note_off", "time": 92, "note": 57, "velocity": 102, "channel": 0}, {"type": "note_on", "time": 47, "note": 60, "velocity": 93, "channel": 0}, {"type": "note_off", "time": 34, "note": 60, "velocity": 93, "channel": 0}, {"type": "note_on", "time": 25, "note": 64, "velocity": 110, "channel": 0}, {"type": "note_off", "time": 53, "note": 64, "velocity": 110, "channel": 0}, {"type": "note_on", "time": 48, "note": 63, "velocity": 117, "channel": 0}, {"type": "note_off", "time": 65, "note": 63, "velocity": 117, "channel": 0}, {"type": "note_on", "time": 778, "note": 65, "velocity": 121, "channel": 0}, {"type": "note_off", "time": 74, "note": 65, "velocity": 121, "channel": 0}, {"type": "note_on", "time": 7, "note": 64, "velocity": 119, "channel": 0}, {"type": "note_off", "time": 55, "note": 64, "velocity": 119, "channel": 0}, {"type": "note_on", "time": 12, "note": 62, "velocity": 103, "channel": 0}, {"type": "note_off", "time": 53, "note": 62, "velocity": 103, "channel": 0}, {"type": "note_on", "time": 11, "note": 60, "velocity": 115, "channel": 0}, {"type": "note_off", "time": 81, "note": 60, "velocity": 115, "channel": 0}, {"type": "note_on", "time": 310, "note": 60, "velocity": 114, "channel": 0}, {"type": "note_off", "time": 56, "note": 60, "velocity": 114, "channel": 0}, {"type": "note_on", "time": 7, "note": 58, "velocity": 116, "channel": 0}, {"type": "note_off", "time": 92, "note": 58, "velocity": 116, "channel": 0}, {"type": "note_on", "time": 12, "note": 57, "velocity": 111, "channel": 0}, {"type": "note_off", "time": 47, "note": 57, "velocity": 111, "channel": 0}, {"type": "note_on", "time": 2, "note": 55, "velocity": 105, "channel": 0}, {"type": "note_off", "time": 72, "note": 55, "velocity": 105, "channel": 0}, {"type": "note_on", "time": 318, "note": 55, "velocity": 113, "channel": 0}, {"type": "note_off", "time": 78, "note": 55, "velocity": 113, "channel": 0}, {"type": "note_on", "time": 9, "note": 53, "velocity": 110, "channel": 0}, {"type": "note_off", "time": 69, "note": 53, "velocity": 110, "channel": 0}, {"type": "note_on", "time": 5, "note": 52, "velocity": 104, "channel": 0}, {"type": "note_off", "time": 97, "note": 52, "velocity": 104, "channel": 0}, {"type": "note_on", "time": 36, "note": 53, "velocity": 114, "channel": 0}, {"type": "note_off", "time": 69, "note": 53, "velocity": 114, "channel": 0}, {"type": "note_on", "time": 203, "note": 50, "velocity": 112, "channel": 0}, {"type": "note_off", "time": 94, "note": 50, "velocity": 112, "channel": 0}, {"type": "note_on", "time": 15, "note": 48, "velocity": 112, "channel": 0}, {"type": "note_off", "time": 69, "note": 48, "velocity": 112, "channel": 0}, {"type": "note_on", "time": 16, "note": 49, "velocity": 111, "channel": 0}, {"type": "note_off", "time": 97, "note": 49, "velocity": 111, "channel": 0}, {"type": "note_on", "time": 40, "note": 51, "velocity": 111, "channel": 0}, {"type": "note_off", "time": 53, "note": 51, "velocity": 111, "channel": 0}, {"type": "note_on", "time": 7, "note": 52, "velocity": 105, "channel": 0}, {"type": "note_off", "time": 98, "note": 52, "velocity": 105, "channel": 0}, {"type": "note_on", "time": 28, "note": 54, "velocity": 113, "channel": 0}, {"type": "note_off", "time": 68, "note": 54, "velocity": 113, "channel": 0}, {"type": "note_on", "time": 12, "note": 55, "velocity": 98, "channel": 0}, {"type": "note_off", "time": 75, "note": 55, "velocity": 98, "channel": 0}, {"type": "note_on", "time": 19, "note": 57, "velocity": 107, "channel": 0}, {"type": "note_off", "time": 86, "note": 57, "velocity": 107, "channel": 0}, {"type": "note_on", "time": 28, "note": 58, "velocity": 119, "channel": 0}, {"type": "note_off", "time": 77, "note": 58, "velocity": 119, "channel": 0}, {"type": "note_on", "time": 7, "note": 56, "velocity": 113, "channel": 0}, {"type": "note_off", "time": 70, "note": 56, "velocity": 113, "channel": 0}, {"type": "note_on", "time": 20, "note": 57, "velocity": 107, "channel": 0}, {"type": "note_off", "time": 79, "note": 57, "velocity": 107, "channel": 0}, {"type": "note_on", "time": 20, "note": 60, "velocity": 107, "channel": 0}, {"type": "note_off", "time": 51, "note": 60, "velocity": 107, "channel": 0}, {"type": "note_on", "time": 0, "note": 64, "velocity": 116, "channel": 0}, {"type": "note_off", "time": 41, "note": 64, "velocity": 116, "channel": 0}, {"type": "note_on", "time": 3, "note": 65, "velocity": 119, "channel": 0}, {"type": "note_off", "time": 91, "note": 65, "velocity": 119, "channel": 0}, {"type": "note_on", "time": 24, "note": 61, "velocity": 99, "channel": 0}, {"type": "note_off", "time": 53, "note": 61, "velocity": 99, "channel": 0}, {"type": "note_on", "time": 13, "note": 64, "velocity": 120, "channel": 0}, {"type": "note_off", "time": 101, "note": 64, "velocity": 120, "channel": 0}, {"type": "note_on", "time": 12, "note": 61, "velocity": 110, "channel": 0}, {"type": "note_off", "time": 63, "note": 61, "velocity": 110, "channel": 0}, {"type": "note_on", "time": 14, "note": 62, "velocity": 108, "channel": 0}, {"type": "note_off", "time": 115, "note": 62, "velocity": 108, "channel": 0}, {"type": "note_on", "time": 6, "note": 61, "velocity": 109, "channel": 0}, {"type": "note_off", "time": 90, "note": 61, "velocity": 109, "channel": 0}, {"type": "note_on", "time": 4, "note": 60, "velocity": 109, "channel": 0}, {"type": "note_off", "time": 85, "note": 60, "velocity": 109, "channel": 0}, {"type": "note_on", "time": 11, "note": 58, "velocity": 117, "channel": 0}, {"type": "note_off", "time": 67, "note": 58, "velocity": 117, "channel": 0}, {"type": "note_on", "time": 13, "note": 59, "velocity": 106, "channel": 0}, {"type": "note_off", "time": 177, "note": 59, "velocity": 106, "channel": 0}, {"type": "note_on", "time": 36, "note": 57, "velocity": 104, "channel": 0}, {"type": "note_off", "time": 104, "note": 57, "velocity": 104, "channel": 0}, {"type": "note_on", "time": 93, "note": 59, "velocity": 104, "channel": 0}, {"type": "note_off", "time": 281, "note": 59, "velocity": 104, "channel": 0}, {"type": "note_on", "time": 30, "note": 57, "velocity": 112, "channel": 0}, {"type": "note_off", "time": 97, "note": 57, "velocity": 112, "channel": 0}, {"type": "note_on", "time": 11, "note": 54, "velocity": 102, "channel": 0}, {"type": "note_off", "time": 89, "note": 54, "velocity": 102, "channel": 0}, {"type": "note_on", "time": 5, "note": 52, "velocity": 101, "channel": 0}, {"type": "note_off", "time": 116, "note": 52, "velocity": 101, "channel": 0}, {"type": "note_on", "time": 499, "note": 52, "velocity": 115, "channel": 0}, {"type": "note_off", "time": 89, "note": 52, "velocity": 115, "channel": 0}, {"type": "note_on", "time": 18, "note": 50, "velocity": 109, "channel": 0}, {"type": "note_off", "time": 90, "note": 50, "velocity": 109, "channel": 0}, {"type": "note_on", "time": 5, "note": 49, "velocity": 105, "channel": 0}, {"type": "note_off", "time": 105, "note": 49, "velocity": 105, "channel": 0}, {"type": "note_on", "time": 1, "note": 50, "velocity": 102, "channel": 0}, {"type": "note_off", "time": 65, "note": 50, "velocity": 102, "channel": 0}, {"type": "note_on", "time": 6, "note": 52, "velocity": 111, "channel": 0}, {"type": "note_off", "time": 112, "note": 52, "velocity": 111, "channel": 0}, {"type": "note_on", "time": 5, "note": 49, "velocity": 106, "channel": 0}, {"type": "note_off", "time": 56, "note": 49, "velocity": 106, "channel": 0}, {"type": "note_on", "time": 5, "note": 47, "velocity": 114, "channel": 0}, {"type": "note_off", "time": 53, "note": 47, "velocity": 114, "channel": 0}, {"type": "note_on", "time": 13, "note": 41, "velocity": 115, "channel": 0}, {"type": "note_off", "time": 57, "note": 41, "velocity": 115, "channel": 0}, {"type": "note_on", "time": 19, "note": 57, "velocity": 114, "channel": 0}, {"type": "note_off", "time": 49, "note": 57, "velocity": 114, "channel": 0}, {"type": "note_on", "time": 6, "note": 59, "velocity": 116, "channel": 0}, {"type": "note_off", "time": 46, "note": 59, "velocity": 116, "channel": 0}, {"type": "note_on", "time": 4, "note": 64, "velocity": 122, "channel": 0}, {"type": "note_off", "time": 175, "note": 64, "velocity": 122, "channel": 0}, {"type": "note_on", "time": 7, "note": 62, "velocity": 111, "channel": 0}, {"type": "note_off", "time": 95, "note": 62, "velocity": 111, "channel": 0}, {"type": "note_on", "time": 100, "note": 55, "velocity": 98, "channel": 0}, {"type": "note_off", "time": 264, "note": 55, "velocity": 98, "channel": 0}, {"type": "note_on", "time": 31, "note": 57, "velocity": 114, "channel": 0}, {"type": "note_off", "time": 95, "note": 57, "velocity": 114, "channel": 0}, {"type": "note_on", "time": 7, "note": 58, "velocity": 107, "channel": 0}, {"type": "note_off", "time": 101, "note": 58, "velocity": 107, "channel": 0}, {"type": "note_on", "time": 9, "note": 60, "velocity": 103, "channel": 0}, {"type": "note_off", "time": 45, "note": 60, "velocity": 103, "channel": 0}, {"type": "note_on", "time": 2, "note": 62, "velocity": 110, "channel": 0}, {"type": "note_off", "time": 109, "note": 62, "velocity": 110, "channel": 0}, {"type": "note_on", "time": 18, "note": 60, "velocity": 115, "channel": 0}, {"type": "note_off", "time": 96, "note": 60, "velocity": 115, "channel": 0}, {"type": "note_on", "time": 939, "note": 60, "velocity": 117, "channel": 0}, {"type": "note_off", "time": 113, "note": 60, "velocity": 117, "channel": 0}, {"type": "note_on", "time": 18, "note": 62, "velocity": 99, "channel": 0}, {"type": "note_off", "time": 90, "note": 62, "velocity": 99, "channel": 0}, {"type": "note_on", "time": 7, "note": 65, "velocity": 123, "channel": 0}, {"type": "note_off", "time": 102, "note": 65, "velocity": 123, "channel": 0}, {"type": "note_on", "time": 28, "note": 67, "velocity": 124, "channel": 0}, {"type": "note_off", "time": 132, "note": 67, "velocity": 124, "channel": 0}, {"type": "note_on", "time": 120, "note": 55, "velocity": 100, "channel": 0}, {"type": "note_off", "time": 108, "note": 55, "velocity": 100, "channel": 0}, {"type": "note_on", "time": 16, "note": 57, "velocity": 105, "channel": 0}, {"type": "note_off", "time": 77, "note": 57, "velocity": 105, "channel": 0}, {"type": "note_on", "time": 14, "note": 60, "velocity": 114, "channel": 0}, {"type": "note_off", "time": 94, "note": 60, "velocity": 114, "channel": 0}, {"type": "note_on", "time": 37, "note": 62, "velocity": 110, "channel": 0}, {"type": "note_off", "time": 121, "note": 62, "velocity": 110, "channel": 0}, {"type": "note_on", "time": 102, "note": 48, "velocity": 112, "channel": 0}, {"type": "note_off", "time": 136, "note": 48, "velocity": 112, "channel": 0}, {"type": "note_on", "time": 9, "note": 50, "velocity": 104, "channel": 0}, {"type": "note_off", "time": 67, "note": 50, "velocity": 104, "channel": 0}, {"type": "note_on", "time": 12, "note": 53, "velocity": 114, "channel": 0}, {"type": "note_off", "time": 122, "note": 53, "velocity": 114, "channel": 0}, {"type": "note_on", "time": 21, "note": 55, "velocity": 111, "channel": 0}, {"type": "note_off", "time": 123, "note": 55, "velocity": 111, "channel": 0}, {"type": "note_on", "time": 138, "note": 57, "velocity": 118, "channel": 0}, {"type": "note_off", "time": 97, "note": 57, "velocity": 118, "channel": 0}, {"type": "note_on", "time": 12, "note": 58, "velocity": 110, "channel": 0}, {"type": "note_off", "time": 59, "note": 58, "velocity": 110, "channel": 0}, {"type": "note_on", "time": 28, "note": 60, "velocity": 112, "channel": 0}, {"type": "note_off", "time": 114, "note": 60, "velocity": 112, "channel": 0}, {"type": "note_on", "time": 20, "note": 62, "velocity": 112, "channel": 0}, {"type": "note_off", "time": 249, "note": 62, "velocity": 112, "channel": 0}, {"type": "note_on", "time": 21, "note": 58, "velocity": 111, "channel": 0}, {"type": "note_off", "time": 106, "note": 58, "velocity": 111, "channel": 0}, {"type": "note_on", "time": 18, "note": 55, "velocity": 108, "channel": 0}, {"type": "note_off", "time": 100, "note": 55, "velocity": 108, "channel": 0}, {"type": "note_on", "time": 66, "note": 60, "velocity": 113, "channel": 0}, {"type": "note_off", "time": 113, "note": 60, "velocity": 113, "channel": 0}, {"type": "note_on", "time": 110, "note": 60, "velocity": 109, "channel": 0}, {"type": "note_off", "time": 195, "note": 60, "velocity": 109, "channel": 0}, {"type": "note_on", "time": 55, "note": 57, "velocity": 112, "channel": 0}, {"type": "note_off", "time": 109, "note": 57, "velocity": 112, "channel": 0}, {"type": "note_on", "time": 104, "note": 53, "velocity": 103, "channel": 0}, {"type": "note_off", "time": 273, "note": 53, "velocity": 103, "channel": 0}, {"type": "note_on", "time": 19, "note": 58, "velocity": 114, "channel": 0}, {"type": "note_off", "time": 61, "note": 58, "velocity": 114, "channel": 0}, {"type": "note_on", "time": 8, "note": 60, "velocity": 108, "channel": 0}, {"type": "note_off", "time": 188, "note": 60, "velocity": 108, "channel": 0}, {"type": "note_on", "time": 19, "note": 58, "velocity": 111, "channel": 0}, {"type": "note_off", "time": 71, "note": 58, "velocity": 111, "channel": 0}, {"type": "note_on", "time": 28, "note": 59, "velocity": 107, "channel": 0}, {"type": "note_off", "time": 25, "note": 59, "velocity": 107, "channel": 0}, {"type": "note_on", "time": 2, "note": 58, "velocity": 112, "channel": 0}, {"type": "note_off", "time": 42, "note": 58, "velocity": 112, "channel": 0}, {"type": "note_on", "time": 11, "note": 56, "velocity": 104, "channel": 0}, {"type": "note_off", "time": 109, "note": 56, "velocity": 104, "channel": 0}, {"type": "note_on", "time": 23, "note": 53, "velocity": 110, "channel": 0}, {"type": "note_off", "time": 53, "note": 53, "velocity": 110, "channel": 0}, {"type": "note_on", "time": 16, "note": 50, "velocity": 102, "channel": 0}, {"type": "note_off", "time": 94, "note": 50, "velocity": 102, "channel": 0}, {"type": "note_on", "time": 18, "note": 48, "velocity": 97, "channel": 0}, {"type": "note_off", "time": 67, "note": 48, "velocity": 97, "channel": 0}, {"type": "note_on", "time": 25, "note": 53, "velocity": 102, "channel": 0}, {"type": "note_off", "time": 288, "note": 53, "velocity": 102, "channel": 0}, {"type": "note_on", "time": 15, "note": 53, "velocity": 118, "channel": 0}, {"type": "note_off", "time": 92, "note": 53, "velocity": 118, "channel": 0}, {"type": "note_on", "time": 1114, "note": 53, "velocity": 115, "channel": 0}, {"type": "note_off", "time": 107, "note": 53, "velocity": 115, "channel": 0}, {"type": "note_on", "time": 95, "note": 57, "velocity": 114, "channel": 0}, {"type": "note_off", "time": 112, "note": 57, "velocity": 114, "channel": 0}, {"type": "note_on", "time": 14, "note": 62, "velocity": 110, "channel": 0}, {"type": "note_off", "time": 64, "note": 62, "velocity": 110, "channel": 0}, {"type": "note_on", "time": 18, "note": 60, "velocity": 101, "channel": 0}, {"type": "note_off", "time": 180, "note": 60, "velocity": 101, "channel": 0}, {"type": "note_on", "time": 23, "note": 62, "velocity": 108, "channel": 0}, {"type": "note_off", "time": 92, "note": 62, "velocity": 108, "channel": 0}, {"type": "note_on", "time": 100, "note": 55, "velocity": 106, "channel": 0}, {"type": "note_off", "time": 106, "note": 55, "velocity": 106, "channel": 0}, {"type": "note_on", "time": 10, "note": 57, "velocity": 112, "channel": 0}, {"type": "note_off", "time": 58, "note": 57, "velocity": 112, "channel": 0}, {"type": "note_on", "time": 19, "note": 58, "velocity": 108, "channel": 0}, {"type": "note_off", "time": 126, "note": 58, "velocity": 108, "channel": 0}, {"type": "note_on", "time": 17, "note": 60, "velocity": 103, "channel": 0}, {"type": "note_off", "time": 40, "note": 60, "velocity": 103, "channel": 0}, {"type": "note_on", "time": 5, "note": 62, "velocity": 98, "channel": 0}, {"type": "note_off", "time": 193, "note": 62, "velocity": 98, "channel": 0}, {"type": "note_on", "time": 18, "note": 60, "velocity": 110, "channel": 0}, {"type": "note_off", "time": 101, "note": 60, "velocity": 110, "channel": 0}, {"type": "note_on", "time": 96, "note": 62, "velocity": 97, "channel": 0}, {"type": "note_off", "time": 303, "note": 62, "velocity": 97, "channel": 0}, {"type": "note_on", "time": 13, "note": 60, "velocity": 111, "channel": 0}, {"type": "note_off", "time": 101, "note": 60, "velocity": 111, "channel": 0}, {"type": "note_on", "time": 17, "note": 57, "velocity": 112, "channel": 0}, {"type": "note_off", "time": 83, "note": 57, "velocity": 112, "channel": 0}, {"type": "note_on", "time": 25, "note": 55, "velocity": 109, "channel": 0}, {"type": "note_off", "time": 81, "note": 55, "velocity": 109, "channel": 0}, {"type": "note_on", "time": 634, "note": 59, "velocity": 114, "channel": 0}, {"type": "note_off", "time": 94, "note": 59, "velocity": 114, "channel": 0}, {"type": "note_on", "time": 8, "note": 60, "velocity": 108, "channel": 0}, {"type": "note_off", "time": 187, "note": 60, "velocity": 108, "channel": 0}, {"type": "note_on", "time": 0, "note": 53, "velocity": 110, "channel": 0}, {"type": "note_off", "time": 138, "note": 53, "velocity": 110, "channel": 0}, {"type": "note_on", "time": 57, "note": 57, "velocity": 112, "channel": 0}, {"type": "note_off", "time": 113, "note": 57, "velocity": 112, "channel": 0}, {"type": "note_on", "time": 7, "note": 62, "velocity": 106, "channel": 0}, {"type": "note_off", "time": 77, "note": 62, "velocity": 106, "channel": 0}, {"type": "note_on", "time": 18, "note": 60, "velocity": 100, "channel": 0}, {"type": "note_off", "time": 171, "note": 60, "velocity": 100, "channel": 0}, {"type": "note_on", "time": 9, "note": 62, "velocity": 108, "channel": 0}, {"type": "note_off", "time": 112, "note": 62, "velocity": 108, "channel": 0}, {"type": "note_on", "time": 89, "note": 65, "velocity": 106, "channel": 0}, {"type": "note_off", "time": 248, "note": 65, "velocity": 106, "channel": 0}, {"type": "note_on", "time": 49, "note": 61, "velocity": 116, "channel": 0}, {"type": "note_off", "time": 84, "note": 61, "velocity": 116, "channel": 0}, {"type": "note_on", "time": 20, "note": 60, "velocity": 105, "channel": 0}, {"type": "note_off", "time": 70, "note": 60, "velocity": 105, "channel": 0}, {"type": "note_on", "time": 22, "note": 58, "velocity": 113, "channel": 0}, {"type": "note_off", "time": 79, "note": 58, "velocity": 113, "channel": 0}, {"type": "note_on", "time": 21, "note": 55, "velocity": 94, "channel": 0}, {"type": "note_off", "time": 70, "note": 55, "velocity": 94, "channel": 0}, {"type": "note_on", "time": 25, "note": 56, "velocity": 103, "channel": 0}, {"type": "note_off", "time": 74, "note": 56, "velocity": 103, "channel": 0}, {"type": "note_on", "time": 17, "note": 57, "velocity": 107, "channel": 0}, {"type": "note_off", "time": 106, "note": 57, "velocity": 107, "channel": 0}, {"type": "note_on", "time": 16, "note": 60, "velocity": 101, "channel": 0}, {"type": "note_off", "time": 47, "note": 60, "velocity": 101, "channel": 0}, {"type": "note_on", "time": 30, "note": 62, "velocity": 109, "channel": 0}, {"type": "note_off", "time": 91, "note": 62, "velocity": 109, "channel": 0}, {"type": "note_on", "time": 110, "note": 63, "velocity": 122, "channel": 0}, {"type": "note_off", "time": 72, "note": 63, "velocity": 122, "channel": 0}, {"type": "note_on", "time": 4, "note": 64, "velocity": 113, "channel": 0}, {"type": "note_off", "time": 74, "note": 64, "velocity": 113, "channel": 0}, {"type": "note_on", "time": 33, "note": 62, "velocity": 104, "channel": 0}, {"type": "note_off", "time": 84, "note": 62, "velocity": 104, "channel": 0}, {"type": "note_on", "time": 21, "note": 60, "velocity": 110, "channel": 0}, {"type": "note_off", "time": 104, "note": 60, "velocity": 110, "channel": 0}, {"type": "note_on", "time": 100, "note": 53, "velocity": 109, "channel": 0}, {"type": "note_off", "time": 148, "note": 53, "velocity": 109, "channel": 0}, {"type": "note_on", "time": 29, "note": 53, "velocity": 113, "channel": 0}, {"type": "note_off", "time": 72, "note": 53, "velocity": 113, "channel": 0}, {"type": "note_on", "time": 0, "note": 60, "velocity": 112, "channel": 0}, {"type": "note_off", "time": 107, "note": 60, "velocity": 112, "channel": 0}, {"type": "note_on", "time": 76, "note": 53, "velocity": 108, "channel": 0}, {"type": "note_off", "time": 118, "note": 53, "velocity": 108, "channel": 0}, {"type": "note_on", "time": 89, "note": 58, "velocity": 99, "channel": 0}, {"type": "note_off", "time": 304, "note": 58, "velocity": 99, "channel": 0}, {"type": "note_on", "time": 99, "note": 60, "velocity": 106, "channel": 0}, {"type": "note_off", "time": 290, "note": 60, "velocity": 106, "channel": 0}, {"type": "note_on", "time": 16, "note": 55, "velocity": 101, "channel": 0}, {"type": "note_off", "time": 69, "note": 55, "velocity": 101, "channel": 0}, {"type": "note_on", "time": 708, "note": 60, "velocity": 111, "channel": 0}, {"type": "note_off", "time": 67, "note": 60, "velocity": 111, "channel": 0}, {"type": "note_on", "time": 5, "note": 58, "velocity": 115, "channel": 0}, {"type": "note_off", "time": 96, "note": 58, "velocity": 115, "channel": 0}, {"type": "note_on", "time": 10, "note": 60, "velocity": 108, "channel": 0}, {"type": "note_off", "time": 62, "note": 60, "velocity": 108, "channel": 0}, {"type": "note_on", "time": 32, "note": 57, "velocity": 111, "channel": 0}, {"type": "note_off", "time": 76, "note": 57, "velocity": 111, "channel": 0}, {"type": "note_on", "time": 12, "note": 58, "velocity": 114, "channel": 0}, {"type": "note_off", "time": 77, "note": 58, "velocity": 114, "channel": 0}, {"type": "note_on", "time": 12, "note": 57, "velocity": 108, "channel": 0}, {"type": "note_off", "time": 75, "note": 57, "velocity": 108, "channel": 0}, {"type": "note_on", "time": 29, "note": 55, "velocity": 108, "channel": 0}, {"type": "note_off", "time": 55, "note": 55, "velocity": 108, "channel": 0}, {"type": "note_on", "time": 40, "note": 53, "velocity": 111, "channel": 0}, {"type": "note_off", "time": 99, "note": 53, "velocity": 111, "channel": 0}, {"type": "note_on", "time": 14, "note": 51, "velocity": 98, "channel": 0}, {"type": "note_off", "time": 71, "note": 51, "velocity": 98, "channel": 0}, {"type": "note_on", "time": 28, "note": 52, "velocity": 104, "channel": 0}, {"type": "note_off", "time": 82, "note": 52, "velocity": 104, "channel": 0}, {"type": "note_on", "time": 5, "note": 55, "velocity": 106, "channel": 0}, {"type": "note_off", "time": 77, "note": 55, "velocity": 106, "channel": 0}, {"type": "note_on", "time": 38, "note": 57, "velocity": 97, "channel": 0}, {"type": "note_off", "time": 66, "note": 57, "velocity": 97, "channel": 0}, {"type": "note_on", "time": 82, "note": 60, "velocity": 107, "channel": 0}, {"type": "note_off", "time": 27, "note": 60, "velocity": 107, "channel": 0}, {"type": "note_on", "time": 0, "note": 63, "velocity": 115, "channel": 0}, {"type": "note_off", "time": 74, "note": 63, "velocity": 115, "channel": 0}, {"type": "note_on", "time": 27, "note": 61, "velocity": 115, "channel": 0}, {"type": "note_off", "time": 69, "note": 61, "velocity": 115, "channel": 0}, {"type": "note_on", "time": 19, "note": 60, "velocity": 113, "channel": 0}, {"type": "note_off", "time": 79, "note": 60, "velocity": 113, "channel": 0}, {"type": "note_on", "time": 28, "note": 58, "velocity": 115, "channel": 0}, {"type": "note_off", "time": 79, "note": 58, "velocity": 115, "channel": 0}, {"type": "note_on", "time": 202, "note": 62, "velocity": 110, "channel": 0}, {"type": "note_off", "time": 77, "note": 62, "velocity": 110, "channel": 0}, {"type": "note_on", "time": 23, "note": 59, "velocity": 95, "channel": 0}, {"type": "note_off", "time": 69, "note": 59, "velocity": 95, "channel": 0}, {"type": "note_on", "time": 10, "note": 60, "velocity": 109, "channel": 0}, {"type": "note_off", "time": 103, "note": 60, "velocity": 109, "channel": 0}, {"type": "note_on", "time": 4, "note": 57, "velocity": 109, "channel": 0}, {"type": "note_off", "time": 86, "note": 57, "velocity": 109, "channel": 0}, {"type": "note_on", "time": 24, "note": 53, "velocity": 94, "channel": 0}, {"type": "note_off", "time": 88, "note": 53, "velocity": 94, "channel": 0}, {"type": "note_on", "time": 77, "note": 58, "velocity": 113, "channel": 0}, {"type": "note_off", "time": 112, "note": 58, "velocity": 113, "channel": 0}, {"type": "note_on", "time": 101, "note": 58, "velocity": 115, "channel": 0}, {"type": "note_off", "time": 92, "note": 58, "velocity": 115, "channel": 0}, {"type": "note_on", "time": 5, "note": 56, "velocity": 112, "channel": 0}, {"type": "note_off", "time": 86, "note": 56, "velocity": 112, "channel": 0}, {"type": "note_on", "time": 14, "note": 55, "velocity": 102, "channel": 0}, {"type": "note_off", "time": 69, "note": 55, "velocity": 102, "channel": 0}, {"type": "note_on", "time": 11, "note": 53, "velocity": 114, "channel": 0}, {"type": "note_off", "time": 89, "note": 53, "velocity": 114, "channel": 0}, {"type": "note_on", "time": 17, "note": 52, "velocity": 101, "channel": 0}, {"type": "note_off", "time": 64, "note": 52, "velocity": 101, "channel": 0}, {"type": "note_on", "time": 21, "note": 50, "velocity": 110, "channel": 0}, {"type": "note_off", "time": 58, "note": 50, "velocity": 110, "channel": 0}, {"type": "note_on", "time": 8, "note": 48, "velocity": 109, "channel": 0}, {"type": "note_off", "time": 33, "note": 48, "velocity": 109, "channel": 0}, {"type": "note_on", "time": 15, "note": 47, "velocity": 93, "channel": 0}, {"type": "note_off", "time": 106, "note": 47, "velocity": 93, "channel": 0}, {"type": "note_on", "time": 28, "note": 50, "velocity": 103, "channel": 0}, {"type": "note_off", "time": 102, "note": 50, "velocity": 103, "channel": 0}, {"type": "note_on", "time": 31, "note": 47, "velocity": 105, "channel": 0}, {"type": "note_off", "time": 49, "note": 47, "velocity": 105, "channel": 0}, {"type": "note_on", "time": 9, "note": 48, "velocity": 107, "channel": 0}, {"type": "note_off", "time": 113, "note": 48, "velocity": 107, "channel": 0}, {"type": "note_on", "time": 7, "note": 50, "velocity": 113, "channel": 0}, {"type": "note_off", "time": 94, "note": 50, "velocity": 113, "channel": 0}, {"type": "note_on", "time": 7, "note": 52, "velocity": 102, "channel": 0}, {"type": "note_off", "time": 68, "note": 52, "velocity": 102, "channel": 0}, {"type": "note_on", "time": 29, "note": 53, "velocity": 102, "channel": 0}, {"type": "note_off", "time": 64, "note": 53, "velocity": 102, "channel": 0}, {"type": "note_on", "time": 23, "note": 55, "velocity": 111, "channel": 0}, {"type": "note_off", "time": 112, "note": 55, "velocity": 111, "channel": 0}, {"type": "note_on", "time": 11, "note": 51, "velocity": 108, "channel": 0}, {"type": "note_off", "time": 41, "note": 51, "velocity": 108, "channel": 0}, {"type": "note_on", "time": 16, "note": 53, "velocity": 115, "channel": 0}, {"type": "note_off", "time": 107, "note": 53, "velocity": 115, "channel": 0}, {"type": "note_on", "time": 21, "note": 57, "velocity": 113, "channel": 0}, {"type": "note_off", "time": 67, "note": 57, "velocity": 113, "channel": 0}, {"type": "note_on", "time": 25, "note": 60, "velocity": 101, "channel": 0}, {"type": "note_off", "time": 42, "note": 60, "velocity": 101, "channel": 0}, {"type": "note_on", "time": 10, "note": 62, "velocity": 104, "channel": 0}, {"type": "note_off", "time": 29, "note": 62, "velocity": 104, "channel": 0}, {"type": "note_on", "time": 7, "note": 64, "velocity": 113, "channel": 0}, {"type": "note_off", "time": 61, "note": 64, "velocity": 113, "channel": 0}, {"type": "note_on", "time": 7, "note": 65, "velocity": 119, "channel": 0}, {"type": "note_off", "time": 113, "note": 65, "velocity": 119, "channel": 0}, {"type": "note_on", "time": 77, "note": 61, "velocity": 108, "channel": 0}, {"type": "note_off", "time": 96, "note": 61, "velocity": 108, "channel": 0}, {"type": "note_on", "time": 688, "note": 53, "velocity": 118, "channel": 0}, {"type": "note_off", "time": 63, "note": 53, "velocity": 118, "channel": 0}, {"type": "note_on", "time": 12, "note": 55, "velocity": 107, "channel": 0}, {"type": "note_off", "time": 37, "note": 55, "velocity": 107, "channel": 0}, {"type": "note_on", "time": 18, "note": 60, "velocity": 111, "channel": 0}, {"type": "note_off", "time": 51, "note": 60, "velocity": 111, "channel": 0}, {"type": "note_on", "time": 14, "note": 65, "velocity": 116, "channel": 0}, {"type": "note_off", "time": 102, "note": 65, "velocity": 116, "channel": 0}, {"type": "note_on", "time": 72, "note": 61, "velocity": 108, "channel": 0}, {"type": "note_off", "time": 113, "note": 61, "velocity": 108, "channel": 0}, {"type": "note_on", "time": 111, "note": 58, "velocity": 108, "channel": 0}, {"type": "note_off", "time": 103, "note": 58, "velocity": 108, "channel": 0}, {"type": "note_on", "time": 76, "note": 64, "velocity": 101, "channel": 0}, {"type": "note_off", "time": 272, "note": 64, "velocity": 101, "channel": 0}, {"type": "note_on", "time": 35, "note": 60, "velocity": 111, "channel": 0}, {"type": "note_off", "time": 77, "note": 60, "velocity": 111, "channel": 0}, {"type": "note_on", "time": 26, "note": 57, "velocity": 105, "channel": 0}, {"type": "note_off", "time": 96, "note": 57, "velocity": 105, "channel": 0}, {"type": "note_on", "time": 6, "note": 54, "velocity": 106, "channel": 0}, {"type": "note_off", "time": 71, "note": 54, "velocity": 106, "channel": 0}, {"type": "note_on", "time": 550, "note": 54, "velocity": 103, "channel": 0}, {"type": "note_off", "time": 69, "note": 54, "velocity": 103, "channel": 0}, {"type": "note_on", "time": 13, "note": 57, "velocity": 111, "channel": 0}, {"type": "note_off", "time": 51, "note": 57, "velocity": 111, "channel": 0}, {"type": "note_on", "time": 9, "note": 60, "velocity": 109, "channel": 0}, {"type": "note_off", "time": 41, "note": 60, "velocity": 109, "channel": 0}, {"type": "note_on", "time": 10, "note": 63, "velocity": 120, "channel": 0}, {"type": "note_off", "time": 84, "note": 63, "velocity": 120, "channel": 0}, {"type": "note_on", "time": 116, "note": 62, "velocity": 109, "channel": 0}, {"type": "note_off", "time": 67, "note": 62, "velocity": 109, "channel": 0}, {"type": "note_on", "time": 21, "note": 61, "velocity": 113, "channel": 0}, {"type": "note_off", "time": 92, "note": 61, "velocity": 113, "channel": 0}, {"type": "note_on", "time": 5, "note": 60, "velocity": 109, "channel": 0}, {"type": "note_off", "time": 64, "note": 60, "velocity": 109, "channel": 0}, {"type": "note_on", "time": 12, "note": 58, "velocity": 112, "channel": 0}, {"type": "note_off", "time": 101, "note": 58, "velocity": 112, "channel": 0}, {"type": "note_on", "time": 8, "note": 59, "velocity": 104, "channel": 0}, {"type": "note_off", "time": 83, "note": 59, "velocity": 104, "channel": 0}, {"type": "note_on", "time": 24, "note": 62, "velocity": 94, "channel": 0}, {"type": "note_off", "time": 49, "note": 62, "velocity": 94, "channel": 0}, {"type": "note_on", "time": 8, "note": 64, "velocity": 112, "channel": 0}, {"type": "note_off", "time": 94, "note": 64, "velocity": 112, "channel": 0}, {"type": "note_on", "time": 18, "note": 62, "velocity": 96, "channel": 0}, {"type": "note_off", "time": 56, "note": 62, "velocity": 96, "channel": 0}, {"type": "note_on", "time": 55, "note": 67, "velocity": 116, "channel": 0}, {"type": "note_off", "time": 86, "note": 67, "velocity": 116, "channel": 0}, {"type": "note_on", "time": 22, "note": 64, "velocity": 104, "channel": 0}, {"type": "note_off", "time": 49, "note": 64, "velocity": 104, "channel": 0}, {"type": "note_on", "time": 11, "note": 65, "velocity": 115, "channel": 0}, {"type": "note_off", "time": 91, "note": 65, "velocity": 115, "channel": 0}, {"type": "note_on", "time": 9, "note": 64, "velocity": 108, "channel": 0}, {"type": "note_off", "time": 66, "note": 64, "velocity": 108, "channel": 0}, {"type": "note_on", "time": 24, "note": 62, "velocity": 101, "channel": 0}, {"type": "note_off", "time": 61, "note": 62, "velocity": 101, "channel": 0}, {"type": "note_on", "time": 6, "note": 64, "velocity": 101, "channel": 0}, {"type": "note_off", "time": 101, "note": 64, "velocity": 101, "channel": 0}, {"type": "note_on", "time": 48, "note": 60, "velocity": 104, "channel": 0}, {"type": "note_off", "time": 44, "note": 60, "velocity": 104, "channel": 0}, {"type": "note_on", "time": 4, "note": 62, "velocity": 111, "channel": 0}, {"type": "note_off", "time": 87, "note": 62, "velocity": 111, "channel": 0}, {"type": "note_on", "time": 237, "note": 60, "velocity": 110, "channel": 0}, {"type": "note_off", "time": 95, "note": 60, "velocity": 110, "channel": 0}, {"type": "note_on", "time": 14, "note": 59, "velocity": 112, "channel": 0}, {"type": "note_off", "time": 70, "note": 59, "velocity": 112, "channel": 0}, {"type": "note_on", "time": 11, "note": 58, "velocity": 112, "channel": 0}, {"type": "note_off", "time": 81, "note": 58, "velocity": 112, "channel": 0}, {"type": "note_on", "time": 11, "note": 56, "velocity": 108, "channel": 0}, {"type": "note_off", "time": 71, "note": 56, "velocity": 108, "channel": 0}, {"type": "note_on", "time": 20, "note": 57, "velocity": 115, "channel": 0}, {"type": "note_off", "time": 95, "note": 57, "velocity": 115, "channel": 0}, {"type": "note_on", "time": 8, "note": 55, "velocity": 109, "channel": 0}, {"type": "note_off", "time": 62, "note": 55, "velocity": 109, "channel": 0}, {"type": "note_on", "time": 17, "note": 53, "velocity": 108, "channel": 0}, {"type": "note_off", "time": 87, "note": 53, "velocity": 108, "channel": 0}, {"type": "note_on", "time": 9, "note": 51, "velocity": 105, "channel": 0}, {"type": "note_off", "time": 102, "note": 51, "velocity": 105, "channel": 0}, {"type": "note_on", "time": 9, "note": 52, "velocity": 108, "channel": 0}, {"type": "note_off", "time": 77, "note": 52, "velocity": 108, "channel": 0}, {"type": "note_on", "time": 24, "note": 55, "velocity": 112, "channel": 0}, {"type": "note_off", "time": 70, "note": 55, "velocity": 112, "channel": 0}, {"type": "note_on", "time": 17, "note": 58, "velocity": 111, "channel": 0}, {"type": "note_off", "time": 92, "note": 58, "velocity": 111, "channel": 0}, {"type": "note_on", "time": 9, "note": 60, "velocity": 103, "channel": 0}, {"type": "note_off", "time": 75, "note": 60, "velocity": 103, "channel": 0}, {"type": "note_on", "time": 21, "note": 62, "velocity": 113, "channel": 0}, {"type": "note_off", "time": 83, "note": 62, "velocity": 113, "channel": 0}, {"type": "note_on", "time": 15, "note": 61, "velocity": 108, "channel": 0}, {"type": "note_off", "time": 67, "note": 61, "velocity": 108, "channel": 0}, {"type": "note_on", "time": 9, "note": 60, "velocity": 111, "channel": 0}, {"type": "note_off", "time": 101, "note": 60, "velocity": 111, "channel": 0}, {"type": "note_on", "time": 13, "note": 55, "velocity": 110, "channel": 0}, {"type": "note_off", "time": 82, "note": 55, "velocity": 110, "channel": 0}, {"type": "note_on", "time": 200, "note": 60, "velocity": 114, "channel": 0}, {"type": "note_off", "time": 110, "note": 60, "velocity": 114, "channel": 0}, {"type": "note_on", "time": 6, "note": 65, "velocity": 118, "channel": 0}, {"type": "note_off", "time": 106, "note": 65, "velocity": 118, "channel": 0}, {"type": "note_on", "time": 168, "note": 60, "velocity": 114, "channel": 0}, {"type": "note_off", "time": 87, "note": 60, "velocity": 114, "channel": 0}, {"type": "note_on", "time": 200, "note": 55, "velocity": 107, "channel": 0}, {"type": "note_off", "time": 86, "note": 55, "velocity": 107, "channel": 0}, {"type": "note_on", "time": 16, "note": 60, "velocity": 108, "channel": 0}, {"type": "note_off", "time": 90, "note": 60, "velocity": 108, "channel": 0}, {"type": "note_on", "time": 24, "note": 65, "velocity": 112, "channel": 0}, {"type": "note_off", "time": 244, "note": 65, "velocity": 112, "channel": 0}, {"type": "note_on", "time": 19, "note": 60, "velocity": 107, "channel": 0}, {"type": "note_off", "time": 92, "note": 60, "velocity": 107, "channel": 0}, {"type": "note_on", "time": 99, "note": 55, "velocity": 102, "channel": 0}, {"type": "note_off", "time": 115, "note": 55, "velocity": 102, "channel": 0}, {"type": "note_on", "time": 86, "note": 58, "velocity": 117, "channel": 0}, {"type": "note_off", "time": 101, "note": 58, "velocity": 117, "channel": 0}, {"type": "note_on", "time": 9, "note": 57, "velocity": 104, "channel": 0}, {"type": "note_off", "time": 49, "note": 57, "velocity": 104, "channel": 0}, {"type": "note_on", "time": 14, "note": 55, "velocity": 107, "channel": 0}, {"type": "note_off", "time": 96, "note": 55, "velocity": 107, "channel": 0}, {"type": "note_on", "time": 15, "note": 53, "velocity": 111, "channel": 0}, {"type": "note_off", "time": 82, "note": 53, "velocity": 111, "channel": 0}, {"type": "note_on", "time": 9, "note": 52, "velocity": 111, "channel": 0}, {"type": "note_off", "time": 97, "note": 52, "velocity": 111, "channel": 0}, {"type": "note_on", "time": 8, "note": 48, "velocity": 111, "channel": 0}, {"type": "note_off", "time": 90, "note": 48, "velocity": 111, "channel": 0}, {"type": "note_on", "time": 296, "note": 61, "velocity": 115, "channel": 0}, {"type": "note_off", "time": 195, "note": 61, "velocity": 115, "channel": 0}, {"type": "note_on", "time": 2, "note": 62, "velocity": 115, "channel": 0}, {"type": "note_off", "time": 77, "note": 62, "velocity": 115, "channel": 0}, {"type": "note_on", "time": 11, "note": 60, "velocity": 93, "channel": 0}, {"type": "note_off", "time": 320, "note": 60, "velocity": 93, "channel": 0}, {"type": "note_on", "time": 423, "note": 65, "velocity": 117, "channel": 0}, {"type": "note_off", "time": 109, "note": 65, "velocity": 117, "channel": 0}, {"type": "note_on", "time": 99, "note": 55, "velocity": 110, "channel": 0}, {"type": "note_off", "time": 92, "note": 55, "velocity": 110, "channel": 0}, {"type": "note_on", "time": 21, "note": 65, "velocity": 109, "channel": 0}, {"type": "note_off", "time": 57, "note": 65, "velocity": 109, "channel": 0}, {"type": "note_on", "time": 15, "note": 68, "velocity": 116, "channel": 0}, {"type": "note_off", "time": 113, "note": 68, "velocity": 116, "channel": 0}, {"type": "note_on", "time": 18, "note": 68, "velocity": 118, "channel": 0}, {"type": "note_off", "time": 72, "note": 68, "velocity": 118, "channel": 0}, {"type": "note_on", "time": 8, "note": 67, "velocity": 117, "channel": 0}, {"type": "note_off", "time": 90, "note": 67, "velocity": 117, "channel": 0}, {"type": "note_on", "time": 15, "note": 67, "velocity": 121, "channel": 0}, {"type": "note_off", "time": 98, "note": 67, "velocity": 121, "channel": 0}, {"type": "note_on", "time": 7, "note": 65, "velocity": 113, "channel": 0}, {"type": "note_off", "time": 83, "note": 65, "velocity": 113, "channel": 0}, {"type": "note_on", "time": 9, "note": 65, "velocity": 112, "channel": 0}, {"type": "note_off", "time": 55, "note": 65, "velocity": 112, "channel": 0}, {"type": "note_on", "time": 18, "note": 60, "velocity": 110, "channel": 0}, {"type": "note_off", "time": 98, "note": 60, "velocity": 110, "channel": 0}, {"type": "note_on", "time": 107, "note": 62, "velocity": 110, "channel": 0}, {"type": "note_off", "time": 172, "note": 62, "velocity": 110, "channel": 0}, {"type": "note_on", "time": 9, "note": 60, "velocity": 90, "channel": 0}, {"type": "note_off", "time": 330, "note": 60, "velocity": 90, "channel": 0}, {"type": "note_on", "time": 743, "note": 60, "velocity": 98, "channel": 0}, {"type": "note_off", "time": 92, "note": 60, "velocity": 98, "channel": 0}, {"type": "note_on", "time": 91, "note": 60, "velocity": 116, "channel": 0}, {"type": "note_off", "time": 64, "note": 60, "velocity": 116, "channel": 0}, {"type": "note_on", "time": 21, "note": 62, "velocity": 112, "channel": 0}, {"type": "note_off", "time": 836, "note": 62, "velocity": 112, "channel": 0}, {"type": "note_on", "time": 21, "note": 67, "velocity": 113, "channel": 0}, {"type": "note_off", "time": 44, "note": 67, "velocity": 113, "channel": 0}, {"type": "note_on", "time": 17, "note": 69, "velocity": 119, "channel": 0}, {"type": "note_off", "time": 122, "note": 69, "velocity": 119, "channel": 0}, {"type": "note_on", "time": 129, "note": 62, "velocity": 111, "channel": 0}, {"type": "note_off", "time": 263, "note": 62, "velocity": 111, "channel": 0}, {"type": "note_on", "time": 35, "note": 69, "velocity": 114, "channel": 0}, {"type": "note_off", "time": 724, "note": 69, "velocity": 114, "channel": 0}, {"type": "note_on", "time": 109, "note": 62, "velocity": 111, "channel": 0}, {"type": "note_off", "time": 113, "note": 62, "velocity": 111, "channel": 0}, {"type": "note_on", "time": 81, "note": 68, "velocity": 114, "channel": 0}, {"type": "note_off", "time": 125, "note": 68, "velocity": 114, "channel": 0}, {"type": "note_on", "time": 75, "note": 67, "velocity": 119, "channel": 0}, {"type": "note_off", "time": 96, "note": 67, "velocity": 119, "channel": 0}, {"type": "note_on", "time": 25, "note": 65, "velocity": 105, "channel": 0}, {"type": "note_off", "time": 71, "note": 65, "velocity": 105, "channel": 0}, {"type": "note_on", "time": 11, "note": 67, "velocity": 118, "channel": 0}, {"type": "note_off", "time": 89, "note": 67, "velocity": 118, "channel": 0}, {"type": "note_on", "time": 6, "note": 65, "velocity": 117, "channel": 0}, {"type": "note_off", "time": 68, "note": 65, "velocity": 117, "channel": 0}, {"type": "note_on", "time": 30, "note": 63, "velocity": 114, "channel": 0}, {"type": "note_off", "time": 77, "note": 63, "velocity": 114, "channel": 0}, {"type": "note_on", "time": 20, "note": 60, "velocity": 116, "channel": 0}, {"type": "note_off", "time": 69, "note": 60, "velocity": 116, "channel": 0}, {"type": "note_on", "time": 12, "note": 57, "velocity": 107, "channel": 0}, {"type": "note_off", "time": 119, "note": 57, "velocity": 107, "channel": 0}, {"type": "note_on", "time": 30, "note": 53, "velocity": 114, "channel": 0}, {"type": "note_off", "time": 94, "note": 53, "velocity": 114, "channel": 0}, {"type": "note_on", "time": 14, "note": 55, "velocity": 105, "channel": 0}, {"type": "note_off", "time": 59, "note": 55, "velocity": 105, "channel": 0}, {"type": "note_on", "time": 11, "note": 56, "velocity": 112, "channel": 0}, {"type": "note_off", "time": 93, "note": 56, "velocity": 112, "channel": 0}, {"type": "note_on", "time": 23, "note": 58, "velocity": 110, "channel": 0}, {"type": "note_off", "time": 129, "note": 58, "velocity": 110, "channel": 0}, {"type": "note_on", "time": 21, "note": 59, "velocity": 109, "channel": 0}, {"type": "note_off", "time": 89, "note": 59, "velocity": 109, "channel": 0}, {"type": "note_on", "time": 98, "note": 62, "velocity": 107, "channel": 0}, {"type": "note_off", "time": 88, "note": 62, "velocity": 107, "channel": 0}, {"type": "note_on", "time": 11, "note": 59, "velocity": 110, "channel": 0}, {"type": "note_off", "time": 67, "note": 59, "velocity": 110, "channel": 0}, {"type": "note_on", "time": 10, "note": 60, "velocity": 101, "channel": 0}, {"type": "note_off", "time": 85, "note": 60, "velocity": 101, "channel": 0}, {"type": "note_on", "time": 20, "note": 62, "velocity": 109, "channel": 0}, {"type": "note_off", "time": 74, "note": 62, "velocity": 109, "channel": 0}, {"type": "note_on", "time": 21, "note": 64, "velocity": 113, "channel": 0}, {"type": "note_off", "time": 71, "note": 64, "velocity": 113, "channel": 0}, {"type": "note_on", "time": 22, "note": 65, "velocity": 100, "channel": 0}, {"type": "note_off", "time": 74, "note": 65, "velocity": 100, "channel": 0}, {"type": "note_on", "time": 5, "note": 67, "velocity": 113, "channel": 0}, {"type": "note_off", "time": 109, "note": 67, "velocity": 113, "channel": 0}, {"type": "note_on", "time": 30, "note": 65, "velocity": 101, "channel": 0}, {"type": "note_off", "time": 49, "note": 65, "velocity": 101, "channel": 0}, {"type": "note_on", "time": 17, "note": 67, "velocity": 111, "channel": 0}, {"type": "note_off", "time": 111, "note": 67, "velocity": 111, "channel": 0}, {"type": "note_on", "time": 10, "note": 65, "velocity": 113, "channel": 0}, {"type": "note_off", "time": 84, "note": 65, "velocity": 113, "channel": 0}, {"type": "note_on", "time": 553, "note": 62, "velocity": 110, "channel": 0}, {"type": "note_off", "time": 125, "note": 62, "velocity": 110, "channel": 0}, {"type": "note_on", "time": 2, "note": 64, "velocity": 114, "channel": 0}, {"type": "note_off", "time": 40, "note": 64, "velocity": 114, "channel": 0}, {"type": "note_on", "time": 8, "note": 65, "velocity": 112, "channel": 0}, {"type": "note_off", "time": 31, "note": 65, "velocity": 112, "channel": 0}, {"type": "note_on", "time": 2, "note": 69, "velocity": 116, "channel": 0}, {"type": "note_off", "time": 82, "note": 69, "velocity": 116, "channel": 0}, {"type": "note_on", "time": 31, "note": 60, "velocity": 108, "channel": 0}, {"type": "note_off", "time": 73, "note": 60, "velocity": 108, "channel": 0}, {"type": "note_on", "time": 20, "note": 62, "velocity": 109, "channel": 0}, {"type": "note_off", "time": 158, "note": 62, "velocity": 109, "channel": 0}, {"type": "note_on", "time": 10, "note": 67, "velocity": 109, "channel": 0}, {"type": "note_off", "time": 396, "note": 67, "velocity": 109, "channel": 0}, {"type": "note_on", "time": 214, "note": 62, "velocity": 109, "channel": 0}, {"type": "note_off", "time": 94, "note": 62, "velocity": 109, "channel": 0}, {"type": "note_on", "time": 6, "note": 65, "velocity": 111, "channel": 0}, {"type": "note_off", "time": 28, "note": 65, "velocity": 111, "channel": 0}, {"type": "note_on", "time": 5, "note": 67, "velocity": 113, "channel": 0}, {"type": "note_off", "time": 23, "note": 67, "velocity": 113, "channel": 0}, {"type": "note_on", "time": 4, "note": 69, "velocity": 116, "channel": 0}, {"type": "note_off", "time": 98, "note": 69, "velocity": 116, "channel": 0}, {"type": "note_on", "time": 109, "note": 62, "velocity": 105, "channel": 0}, {"type": "note_off", "time": 91, "note": 62, "velocity": 105, "channel": 0}, {"type": "note_on", "time": 106, "note": 67, "velocity": 117, "channel": 0}, {"type": "note_off", "time": 97, "note": 67, "velocity": 117, "channel": 0}, {"type": "note_on", "time": 14, "note": 65, "velocity": 111, "channel": 0}, {"type": "note_off", "time": 44, "note": 65, "velocity": 111, "channel": 0}, {"type": "note_on", "time": 33, "note": 67, "velocity": 115, "channel": 0}, {"type": "note_off", "time": 97, "note": 67, "velocity": 115, "channel": 0}, {"type": "note_on", "time": 8, "note": 65, "velocity": 113, "channel": 0}, {"type": "note_off", "time": 80, "note": 65, "velocity": 113, "channel": 0}, {"type": "note_on", "time": 15, "note": 64, "velocity": 110, "channel": 0}, {"type": "note_off", "time": 102, "note": 64, "velocity": 110, "channel": 0}, {"type": "note_on", "time": 7, "note": 62, "velocity": 110, "channel": 0}, {"type": "note_off", "time": 80, "note": 62, "velocity": 110, "channel": 0}, {"type": "note_on", "time": 379, "note": 65, "velocity": 116, "channel": 0}, {"type": "note_off", "time": 100, "note": 65, "velocity": 116, "channel": 0}, {"type": "note_on", "time": 10, "note": 62, "velocity": 96, "channel": 0}, {"type": "note_off", "time": 63, "note": 62, "velocity": 96, "channel": 0}, {"type": "note_on", "time": 15, "note": 64, "velocity": 114, "channel": 0}, {"type": "note_off", "time": 91, "note": 64, "velocity": 114, "channel": 0}, {"type": "note_on", "time": 16, "note": 62, "velocity": 111, "channel": 0}, {"type": "note_off", "time": 73, "note": 62, "velocity": 111, "channel": 0}, {"type": "note_on", "time": 12, "note": 60, "velocity": 110, "channel": 0}, {"type": "note_off", "time": 118, "note": 60, "velocity": 110, "channel": 0}, {"type": "note_on", "time": 9, "note": 59, "velocity": 113, "channel": 0}, {"type": "note_off", "time": 64, "note": 59, "velocity": 113, "channel": 0}, {"type": "note_on", "time": 6, "note": 58, "velocity": 113, "channel": 0}, {"type": "note_off", "time": 111, "note": 58, "velocity": 113, "channel": 0}, {"type": "note_on", "time": 15, "note": 56, "velocity": 109, "channel": 0}, {"type": "note_off", "time": 63, "note": 56, "velocity": 109, "channel": 0}, {"type": "note_on", "time": 13, "note": 57, "velocity": 106, "channel": 0}, {"type": "note_off", "time": 102, "note": 57, "velocity": 106, "channel": 0}, {"type": "note_on", "time": 17, "note": 58, "velocity": 112, "channel": 0}, {"type": "note_off", "time": 65, "note": 58, "velocity": 112, "channel": 0}, {"type": "note_on", "time": 10, "note": 59, "velocity": 110, "channel": 0}, {"type": "note_off", "time": 95, "note": 59, "velocity": 110, "channel": 0}, {"type": "note_on", "time": 16, "note": 60, "velocity": 108, "channel": 0}, {"type": "note_off", "time": 68, "note": 60, "velocity": 108, "channel": 0}, {"type": "note_on", "time": 10, "note": 62, "velocity": 106, "channel": 0}, {"type": "note_off", "time": 100, "note": 62, "velocity": 106, "channel": 0}, {"type": "note_on", "time": 24, "note": 59, "velocity": 96, "channel": 0}, {"type": "note_off", "time": 61, "note": 59, "velocity": 96, "channel": 0}, {"type": "note_on", "time": 14, "note": 60, "velocity": 113, "channel": 0}, {"type": "note_off", "time": 93, "note": 60, "velocity": 113, "channel": 0}, {"type": "note_on", "time": 15, "note": 62, "velocity": 107, "channel": 0}, {"type": "note_off", "time": 52, "note": 62, "velocity": 107, "channel": 0}, {"type": "note_on", "time": 15, "note": 63, "velocity": 112, "channel": 0}, {"type": "note_off", "time": 122, "note": 63, "velocity": 112, "channel": 0}, {"type": "note_on", "time": 6, "note": 64, "velocity": 100, "channel": 0}, {"type": "note_off", "time": 38, "note": 64, "velocity": 100, "channel": 0}, {"type": "note_on", "time": 14, "note": 63, "velocity": 113, "channel": 0}, {"type": "note_off", "time": 68, "note": 63, "velocity": 113, "channel": 0}, {"type": "note_on", "time": 27, "note": 62, "velocity": 104, "channel": 0}, {"type": "note_off", "time": 85, "note": 62, "velocity": 104, "channel": 0}, {"type": "note_on", "time": 12, "note": 61, "velocity": 109, "channel": 0}, {"type": "note_off", "time": 91, "note": 61, "velocity": 109, "channel": 0}, {"type": "note_on", "time": 10, "note": 60, "velocity": 90, "channel": 0}, {"type": "note_off", "time": 74, "note": 60, "velocity": 90, "channel": 0}, {"type": "note_on", "time": 238, "note": 59, "velocity": 111, "channel": 0}, {"type": "note_off", "time": 86, "note": 59, "velocity": 111, "channel": 0}, {"type": "note_on", "time": 77, "note": 62, "velocity": 111, "channel": 0}, {"type": "note_off", "time": 122, "note": 62, "velocity": 111, "channel": 0}, {"type": "note_on", "time": 57, "note": 60, "velocity": 110, "channel": 0}, {"type": "note_off", "time": 119, "note": 60, "velocity": 110, "channel": 0}, {"type": "note_on", "time": 20, "note": 57, "velocity": 111, "channel": 0}, {"type": "note_off", "time": 68, "note": 57, "velocity": 111, "channel": 0}, {"type": "note_on", "time": 24, "note": 53, "velocity": 102, "channel": 0}, {"type": "note_off", "time": 90, "note": 53, "velocity": 102, "channel": 0}, {"type": "note_on", "time": 88, "note": 58, "velocity": 114, "channel": 0}, {"type": "note_off", "time": 99, "note": 58, "velocity": 114, "channel": 0}, {"type": "note_on", "time": 13, "note": 57, "velocity": 112, "channel": 0}, {"type": "note_off", "time": 67, "note": 57, "velocity": 112, "channel": 0}, {"type": "note_on", "time": 14, "note": 55, "velocity": 108, "channel": 0}, {"type": "note_off", "time": 104, "note": 55, "velocity": 108, "channel": 0}, {"type": "note_on", "time": 7, "note": 53, "velocity": 109, "channel": 0}, {"type": "note_off", "time": 81, "note": 53, "velocity": 109, "channel": 0}, {"type": "note_on", "time": 28, "note": 51, "velocity": 104, "channel": 0}, {"type": "note_off", "time": 87, "note": 51, "velocity": 104, "channel": 0}, {"type": "note_on", "time": 15, "note": 52, "velocity": 106, "channel": 0}, {"type": "note_off", "time": 227, "note": 52, "velocity": 106, "channel": 0}, {"type": "note_on", "time": 14, "note": 55, "velocity": 104, "channel": 0}, {"type": "note_off", "time": 102, "note": 55, "velocity": 104, "channel": 0}, {"type": "note_on", "time": 96, "note": 59, "velocity": 109, "channel": 0}, {"type": "note_off", "time": 111, "note": 59, "velocity": 109, "channel": 0}, {"type": "note_on", "time": 74, "note": 62, "velocity": 110, "channel": 0}, {"type": "note_off", "time": 122, "note": 62, "velocity": 110, "channel": 0}, {"type": "note_on", "time": 73, "note": 66, "velocity": 106, "channel": 0}, {"type": "note_off", "time": 289, "note": 66, "velocity": 106, "channel": 0}, {"type": "note_on", "time": 42, "note": 62, "velocity": 107, "channel": 0}, {"type": "note_off", "time": 80, "note": 62, "velocity": 107, "channel": 0}, {"type": "note_on", "time": 14, "note": 65, "velocity": 113, "channel": 0}, {"type": "note_off", "time": 153, "note": 65, "velocity": 113, "channel": 0}, {"type": "note_on", "time": 9, "note": 61, "velocity": 111, "channel": 0}, {"type": "note_off", "time": 92, "note": 61, "velocity": 111, "channel": 0}, {"type": "note_on", "time": 43, "note": 63, "velocity": 112, "channel": 0}, {"type": "note_off", "time": 60, "note": 63, "velocity": 112, "channel": 0}, {"type": "note_on", "time": 8, "note": 64, "velocity": 108, "channel": 0}, {"type": "note_off", "time": 203, "note": 64, "velocity": 108, "channel": 0}, {"type": "note_on", "time": 9, "note": 60, "velocity": 109, "channel": 0}, {"type": "note_off", "time": 101, "note": 60, "velocity": 109, "channel": 0}, {"type": "note_on", "time": 5, "note": 57, "velocity": 113, "channel": 0}, {"type": "note_off", "time": 92, "note": 57, "velocity": 113, "channel": 0}, {"type": "note_on", "time": 485, "note": 57, "velocity": 110, "channel": 0}, {"type": "note_off", "time": 72, "note": 57, "velocity": 110, "channel": 0}, {"type": "note_on", "time": 27, "note": 60, "velocity": 109, "channel": 0}, {"type": "note_off", "time": 95, "note": 60, "velocity": 109, "channel": 0}, {"type": "note_on", "time": 14, "note": 64, "velocity": 116, "channel": 0}, {"type": "note_off", "time": 73, "note": 64, "velocity": 116, "channel": 0}, {"type": "note_on", "time": 7, "note": 63, "velocity": 117, "channel": 0}, {"type": "note_off", "time": 75, "note": 63, "velocity": 117, "channel": 0}, {"type": "note_on", "time": 12, "note": 60, "velocity": 118, "channel": 0}, {"type": "note_off", "time": 68, "note": 60, "velocity": 118, "channel": 0}, {"type": "note_on", "time": 7, "note": 57, "velocity": 111, "channel": 0}, {"type": "note_off", "time": 50, "note": 57, "velocity": 111, "channel": 0}, {"type": "note_on", "time": 166, "note": 61, "velocity": 119, "channel": 0}, {"type": "note_off", "time": 76, "note": 61, "velocity": 119, "channel": 0}, {"type": "note_on", "time": 5, "note": 62, "velocity": 107, "channel": 0}, {"type": "note_off", "time": 92, "note": 62, "velocity": 107, "channel": 0}, {"type": "note_on", "time": 10, "note": 59, "velocity": 108, "channel": 0}, {"type": "note_off", "time": 73, "note": 59, "velocity": 108, "channel": 0}, {"type": "note_on", "time": 27, "note": 55, "velocity": 104, "channel": 0}, {"type": "note_off", "time": 111, "note": 55, "velocity": 104, "channel": 0}, {"type": "note_on", "time": 428, "note": 55, "velocity": 108, "channel": 0}, {"type": "note_off", "time": 88, "note": 55, "velocity": 108, "channel": 0}, {"type": "note_on", "time": 8, "note": 59, "velocity": 107, "channel": 0}, {"type": "note_off", "time": 92, "note": 59, "velocity": 107, "channel": 0}, {"type": "note_on", "time": 4, "note": 62, "velocity": 116, "channel": 0}, {"type": "note_off", "time": 83, "note": 62, "velocity": 116, "channel": 0}, {"type": "note_on", "time": 7, "note": 61, "velocity": 106, "channel": 0}, {"type": "note_off", "time": 75, "note": 61, "velocity": 106, "channel": 0}, {"type": "note_on", "time": 26, "note": 59, "velocity": 113, "channel": 0}, {"type": "note_off", "time": 80, "note": 59, "velocity": 113, "channel": 0}, {"type": "note_on", "time": 199, "note": 60, "velocity": 113, "channel": 0}, {"type": "note_off", "time": 116, "note": 60, "velocity": 113, "channel": 0}, {"type": "note_on", "time": 7, "note": 59, "velocity": 103, "channel": 0}, {"type": "note_off", "time": 79, "note": 59, "velocity": 103, "channel": 0}, {"type": "note_on", "time": 10, "note": 58, "velocity": 101, "channel": 0}, {"type": "note_off", "time": 82, "note": 58, "velocity": 101, "channel": 0}, {"type": "note_on", "time": 15, "note": 56, "velocity": 110, "channel": 0}, {"type": "note_off", "time": 72, "note": 56, "velocity": 110, "channel": 0}, {"type": "note_on", "time": 10, "note": 57, "velocity": 104, "channel": 0}, {"type": "note_off", "time": 102, "note": 57, "velocity": 104, "channel": 0}, {"type": "note_on", "time": 19, "note": 60, "velocity": 108, "channel": 0}, {"type": "note_off", "time": 48, "note": 60, "velocity": 108, "channel": 0}, {"type": "note_on", "time": 7, "note": 62, "velocity": 111, "channel": 0}, {"type": "note_off", "time": 118, "note": 62, "velocity": 111, "channel": 0}, {"type": "note_on", "time": 279, "note": 54, "velocity": 113, "channel": 0}, {"type": "note_off", "time": 74, "note": 54, "velocity": 113, "channel": 0}, {"type": "note_on", "time": 24, "note": 57, "velocity": 107, "channel": 0}, {"type": "note_off", "time": 87, "note": 57, "velocity": 107, "channel": 0}, {"type": "note_on", "time": 20, "note": 60, "velocity": 104, "channel": 0}, {"type": "note_off", "time": 87, "note": 60, "velocity": 104, "channel": 0}, {"type": "note_on", "time": 7, "note": 63, "velocity": 112, "channel": 0}, {"type": "note_off", "time": 80, "note": 63, "velocity": 112, "channel": 0}, {"type": "note_on", "time": 7, "note": 60, "velocity": 96, "channel": 0}, {"type": "note_off", "time": 75, "note": 60, "velocity": 96, "channel": 0}, {"type": "note_on", "time": 8, "note": 61, "velocity": 92, "channel": 0}, {"type": "note_off", "time": 77, "note": 61, "velocity": 92, "channel": 0}, {"type": "note_on", "time": 12, "note": 62, "velocity": 108, "channel": 0}, {"type": "note_off", "time": 88, "note": 62, "velocity": 108, "channel": 0}, {"type": "note_on", "time": 22, "note": 61, "velocity": 108, "channel": 0}, {"type": "note_off", "time": 86, "note": 61, "velocity": 108, "channel": 0}, {"type": "note_on", "time": 9, "note": 60, "velocity": 108, "channel": 0}, {"type": "note_off", "time": 88, "note": 60, "velocity": 108, "channel": 0}, {"type": "note_on", "time": 12, "note": 59, "velocity": 113, "channel": 0}, {"type": "note_off", "time": 72, "note": 59, "velocity": 113, "channel": 0}, {"type": "note_on", "time": 7, "note": 58, "velocity": 111, "channel": 0}, {"type": "note_off", "time": 99, "note": 58, "velocity": 111, "channel": 0}, {"type": "note_on", "time": 20, "note": 56, "velocity": 102, "channel": 0}, {"type": "note_off", "time": 60, "note": 56, "velocity": 102, "channel": 0}, {"type": "note_on", "time": 6, "note": 57, "velocity": 117, "channel": 0}, {"type": "note_off", "time": 94, "note": 57, "velocity": 117, "channel": 0}, {"type": "note_on", "time": 18, "note": 55, "velocity": 113, "channel": 0}, {"type": "note_off", "time": 72, "note": 55, "velocity": 113, "channel": 0}, {"type": "note_on", "time": 17, "note": 53, "velocity": 110, "channel": 0}, {"type": "note_off", "time": 91, "note": 53, "velocity": 110, "channel": 0}, {"type": "note_on", "time": 22, "note": 51, "velocity": 111, "channel": 0}, {"type": "note_off", "time": 96, "note": 51, "velocity": 111, "channel": 0}, {"type": "note_on", "time": 4, "note": 52, "velocity": 102, "channel": 0}, {"type": "note_off", "time": 94, "note": 52, "velocity": 102, "channel": 0}, {"type": "note_on", "time": 11, "note": 55, "velocity": 109, "channel": 0}, {"type": "note_off", "time": 70, "note": 55, "velocity": 109, "channel": 0}, {"type": "note_on", "time": 15, "note": 57, "velocity": 106, "channel": 0}, {"type": "note_off", "time": 86, "note": 57, "velocity": 106, "channel": 0}, {"type": "note_on", "time": 7, "note": 60, "velocity": 95, "channel": 0}, {"type": "note_off", "time": 75, "note": 60, "velocity": 95, "channel": 0}, {"type": "note_on", "time": 11, "note": 63, "velocity": 114, "channel": 0}, {"type": "note_off", "time": 106, "note": 63, "velocity": 114, "channel": 0}, {"type": "note_on", "time": 109, "note": 63, "velocity": 115, "channel": 0}, {"type": "note_off", "time": 70, "note": 63, "velocity": 115, "channel": 0}, {"type": "note_on", "time": 6, "note": 61, "velocity": 115, "channel": 0}, {"type": "note_off", "time": 100, "note": 61, "velocity": 115, "channel": 0}, {"type": "note_on", "time": 4, "note": 60, "velocity": 113, "channel": 0}, {"type": "note_off", "time": 60, "note": 60, "velocity": 113, "channel": 0}, {"type": "note_on", "time": 25, "note": 58, "velocity": 105, "channel": 0}, {"type": "note_off", "time": 76, "note": 58, "velocity": 105, "channel": 0}, {"type": "note_on", "time": 12, "note": 60, "velocity": 113, "channel": 0}, {"type": "note_off", "time": 97, "note": 60, "velocity": 113, "channel": 0}, {"type": "note_on", "time": 32, "note": 58, "velocity": 112, "channel": 0}, {"type": "note_off", "time": 101, "note": 58, "velocity": 112, "channel": 0}, {"type": "note_on", "time": 317, "note": 60, "velocity": 115, "channel": 0}, {"type": "note_off", "time": 103, "note": 60, "velocity": 115, "channel": 0}, {"type": "note_on", "time": 6, "note": 59, "velocity": 119, "channel": 0}, {"type": "note_off", "time": 60, "note": 59, "velocity": 119, "channel": 0}, {"type": "note_on", "time": 8, "note": 58, "velocity": 117, "channel": 0}, {"type": "note_off", "time": 94, "note": 58, "velocity": 117, "channel": 0}, {"type": "note_on", "time": 22, "note": 56, "velocity": 112, "channel": 0}, {"type": "note_off", "time": 56, "note": 56, "velocity": 112, "channel": 0}, {"type": "note_on", "time": 27, "note": 57, "velocity": 112, "channel": 0}, {"type": "note_off", "time": 63, "note": 57, "velocity": 112, "channel": 0}, {"type": "note_on", "time": 19, "note": 60, "velocity": 103, "channel": 0}, {"type": "note_off", "time": 53, "note": 60, "velocity": 103, "channel": 0}, {"type": "note_on", "time": 9, "note": 62, "velocity": 112, "channel": 0}, {"type": "note_off", "time": 54, "note": 62, "velocity": 112, "channel": 0}, {"type": "note_on", "time": 8, "note": 65, "velocity": 115, "channel": 0}, {"type": "note_off", "time": 104, "note": 65, "velocity": 115, "channel": 0}, {"type": "note_on", "time": 16, "note": 65, "velocity": 122, "channel": 0}, {"type": "note_off", "time": 98, "note": 65, "velocity": 122, "channel": 0}, {"type": "note_on", "time": 156, "note": 53, "velocity": 106, "channel": 0}, {"type": "note_off", "time": 89, "note": 53, "velocity": 106, "channel": 0}, {"type": "note_on", "time": 203, "note": 65, "velocity": 118, "channel": 0}, {"type": "note_off", "time": 119, "note": 65, "velocity": 118, "channel": 0}, {"type": "note_on", "time": 154, "note": 65, "velocity": 120, "channel": 0}, {"type": "note_off", "time": 97, "note": 65, "velocity": 120, "channel": 0}, {"type": "note_on", "time": 16, "note": 65, "velocity": 120, "channel": 0}, {"type": "note_off", "time": 73, "note": 65, "velocity": 120, "channel": 0}, {"type": "note_on", "time": 15, "note": 65, "velocity": 119, "channel": 0}, {"type": "note_off", "time": 88, "note": 65, "velocity": 119, "channel": 0}, {"type": "note_on", "time": 13, "note": 65, "velocity": 117, "channel": 0}, {"type": "note_off", "time": 106, "note": 65, "velocity": 117, "channel": 0}, {"type": "note_on", "time": 155, "note": 65, "velocity": 119, "channel": 0}, {"type": "note_off", "time": 108, "note": 65, "velocity": 119, "channel": 0}, {"type": "note_on", "time": 25, "note": 65, "velocity": 103, "channel": 0}, {"type": "note_off", "time": 159, "note": 65, "velocity": 103, "channel": 0}, {"type": "note_on", "time": 7, "note": 65, "velocity": 121, "channel": 0}, {"type": "note_off", "time": 118, "note": 65, "velocity": 121, "channel": 0}, {"type": "note_on", "time": 687, "note": 60, "velocity": 115, "channel": 0}, {"type": "note_off", "time": 106, "note": 60, "velocity": 115, "channel": 0}, {"type": "note_on", "time": 17, "note": 62, "velocity": 116, "channel": 0}, {"type": "note_off", "time": 64, "note": 62, "velocity": 116, "channel": 0}, {"type": "note_on", "time": 12, "note": 64, "velocity": 110, "channel": 0}, {"type": "note_off", "time": 76, "note": 64, "velocity": 110, "channel": 0}, {"type": "note_on", "time": 21, "note": 65, "velocity": 122, "channel": 0}, {"type": "note_off", "time": 84, "note": 65, "velocity": 122, "channel": 0}, {"type": "note_on", "time": 57, "note": 58, "velocity": 96, "channel": 0}, {"type": "note_off", "time": 46, "note": 58, "velocity": 96, "channel": 0}, {"type": "note_on", "time": 26, "note": 60, "velocity": 92, "channel": 0}, {"type": "note_off", "time": 51, "note": 60, "velocity": 92, "channel": 0}, {"type": "note_on", "time": 14, "note": 62, "velocity": 111, "channel": 0}, {"type": "note_off", "time": 64, "note": 62, "velocity": 111, "channel": 0}, {"type": "note_on", "time": 48, "note": 64, "velocity": 114, "channel": 0}, {"type": "note_off", "time": 49, "note": 64, "velocity": 114, "channel": 0}, {"type": "note_on", "time": 14, "note": 55, "velocity": 98, "channel": 0}, {"type": "note_off", "time": 90, "note": 55, "velocity": 98, "channel": 0}, {"type": "note_on", "time": 17, "note": 57, "velocity": 98, "channel": 0}, {"type": "note_off", "time": 70, "note": 57, "velocity": 98, "channel": 0}, {"type": "note_on", "time": 18, "note": 58, "velocity": 115, "channel": 0}, {"type": "note_off", "time": 106, "note": 58, "velocity": 115, "channel": 0}, {"type": "note_on", "time": 97, "note": 62, "velocity": 107, "channel": 0}, {"type": "note_off", "time": 84, "note": 62, "velocity": 107, "channel": 0}, {"type": "note_on", "time": 25, "note": 60, "velocity": 96, "channel": 0}, {"type": "note_off", "time": 68, "note": 60, "velocity": 96, "channel": 0}, {"type": "note_on", "time": 17, "note": 58, "velocity": 105, "channel": 0}, {"type": "note_off", "time": 86, "note": 58, "velocity": 105, "channel": 0}, {"type": "note_on", "time": 20, "note": 57, "velocity": 115, "channel": 0}, {"type": "note_off", "time": 54, "note": 57, "velocity": 115, "channel": 0}, {"type": "note_on", "time": 20, "note": 55, "velocity": 106, "channel": 0}, {"type": "note_off", "time": 84, "note": 55, "velocity": 106, "channel": 0}, {"type": "note_on", "time": 41, "note": 53, "velocity": 110, "channel": 0}, {"type": "note_off", "time": 72, "note": 53, "velocity": 110, "channel": 0}, {"type": "note_on", "time": 5, "note": 50, "velocity": 99, "channel": 0}, {"type": "note_off", "time": 111, "note": 50, "velocity": 99, "channel": 0}, {"type": "note_on", "time": 3, "note": 51, "velocity": 110, "channel": 0}, {"type": "note_off", "time": 70, "note": 51, "velocity": 110, "channel": 0}, {"type": "note_on", "time": 6, "note": 52, "velocity": 104, "channel": 0}, {"type": "note_off", "time": 56, "note": 52, "velocity": 104, "channel": 0}, {"type": "note_on", "time": 51, "note": 55, "velocity": 109, "channel": 0}, {"type": "note_off", "time": 67, "note": 55, "velocity": 109, "channel": 0}, {"type": "note_on", "time": 2, "note": 57, "velocity": 109, "channel": 0}, {"type": "note_off", "time": 104, "note": 57, "velocity": 109, "channel": 0}, {"type": "note_on", "time": 25, "note": 62, "velocity": 93, "channel": 0}, {"type": "note_off", "time": 31, "note": 62, "velocity": 93, "channel": 0}, {"type": "note_on", "time": 45, "note": 66, "velocity": 117, "channel": 0}, {"type": "note_off", "time": 97, "note": 66, "velocity": 117, "channel": 0}, {"type": "note_on", "time": 11, "note": 62, "velocity": 110, "channel": 0}, {"type": "note_off", "time": 66, "note": 62, "velocity": 110, "channel": 0}, {"type": "note_on", "time": 6, "note": 58, "velocity": 100, "channel": 0}, {"type": "note_off", "time": 84, "note": 58, "velocity": 100, "channel": 0}, {"type": "note_on", "time": 108, "note": 65, "velocity": 116, "channel": 0}, {"type": "note_off", "time": 94, "note": 65, "velocity": 116, "channel": 0}, {"type": "note_on", "time": 97, "note": 63, "velocity": 103, "channel": 0}, {"type": "note_off", "time": 81, "note": 63, "velocity": 103, "channel": 0}, {"type": "note_on", "time": 12, "note": 64, "velocity": 113, "channel": 0}, {"type": "note_off", "time": 64, "note": 64, "velocity": 113, "channel": 0}, {"type": "note_on", "time": 23, "note": 60, "velocity": 96, "channel": 0}, {"type": "note_off", "time": 88, "note": 60, "velocity": 96, "channel": 0}, {"type": "note_on", "time": 8, "note": 61, "velocity": 89, "channel": 0}, {"type": "note_off", "time": 68, "note": 61, "velocity": 89, "channel": 0}, {"type": "note_on", "time": 24, "note": 62, "velocity": 112, "channel": 0}, {"type": "note_off", "time": 81, "note": 62, "velocity": 112, "channel": 0}, {"type": "note_on", "time": 8, "note": 61, "velocity": 115, "channel": 0}, {"type": "note_off", "time": 89, "note": 61, "velocity": 115, "channel": 0}, {"type": "note_on", "time": 8, "note": 60, "velocity": 112, "channel": 0}, {"type": "note_off", "time": 81, "note": 60, "velocity": 112, "channel": 0}, {"type": "note_on", "time": 7, "note": 59, "velocity": 111, "channel": 0}, {"type": "note_off", "time": 81, "note": 59, "velocity": 111, "channel": 0}, {"type": "note_on", "time": 5, "note": 58, "velocity": 110, "channel": 0}, {"type": "note_off", "time": 114, "note": 58, "velocity": 110, "channel": 0}, {"type": "note_on", "time": 3, "note": 56, "velocity": 94, "channel": 0}, {"type": "note_off", "time": 61, "note": 56, "velocity": 94, "channel": 0}, {"type": "note_on", "time": 27, "note": 57, "velocity": 115, "channel": 0}, {"type": "note_off", "time": 96, "note": 57, "velocity": 115, "channel": 0}, {"type": "note_on", "time": 5, "note": 55, "velocity": 110, "channel": 0}, {"type": "note_off", "time": 69, "note": 55, "velocity": 110, "channel": 0}, {"type": "note_on", "time": 11, "note": 53, "velocity": 108, "channel": 0}, {"type": "note_off", "time": 80, "note": 53, "velocity": 108, "channel": 0}, {"type": "note_on", "time": 153, "note": 56, "velocity": 101, "channel": 0}, {"type": "note_off", "time": 187, "note": 56, "velocity": 101, "channel": 0}, {"type": "note_on", "time": 12, "note": 55, "velocity": 93, "channel": 0}, {"type": "note_off", "time": 57, "note": 55, "velocity": 93, "channel": 0}, {"type": "note_on", "time": 63, "note": 53, "velocity": 109, "channel": 0}, {"type": "note_off", "time": 200, "note": 53, "velocity": 109, "channel": 0}, {"type": "note_on", "time": 666, "note": 56, "velocity": 117, "channel": 0}, {"type": "note_off", "time": 80, "note": 56, "velocity": 117, "channel": 0}, {"type": "note_on", "time": 13, "note": 55, "velocity": 106, "channel": 0}, {"type": "note_off", "time": 87, "note": 55, "velocity": 106, "channel": 0}, {"type": "note_on", "time": 18, "note": 53, "velocity": 114, "channel": 0}, {"type": "note_off", "time": 103, "note": 53, "velocity": 114, "channel": 0}, {"type": "note_on", "time": 3, "note": 51, "velocity": 107, "channel": 0}, {"type": "note_off", "time": 88, "note": 51, "velocity": 107, "channel": 0}, {"type": "note_on", "time": 20, "note": 52, "velocity": 106, "channel": 0}, {"type": "note_off", "time": 41, "note": 52, "velocity": 106, "channel": 0}, {"type": "note_on", "time": 31, "note": 50, "velocity": 107, "channel": 0}, {"type": "note_off", "time": 54, "note": 50, "velocity": 107, "channel": 0}, {"type": "note_on", "time": 31, "note": 48, "velocity": 106, "channel": 0}, {"type": "note_off", "time": 80, "note": 48, "velocity": 106, "channel": 0}, {"type": "note_on", "time": 465, "note": 48, "velocity": 110, "channel": 0}, {"type": "note_off", "time": 70, "note": 48, "velocity": 110, "channel": 0}, {"type": "note_on", "time": 20, "note": 49, "velocity": 103, "channel": 0}, {"type": "note_off", "time": 86, "note": 49, "velocity": 103, "channel": 0}, {"type": "note_on", "time": 10, "note": 50, "velocity": 111, "channel": 0}, {"type": "note_off", "time": 68, "note": 50, "velocity": 111, "channel": 0}, {"type": "note_on", "time": 18, "note": 53, "velocity": 111, "channel": 0}, {"type": "note_off", "time": 114, "note": 53, "velocity": 111, "channel": 0}, {"type": "note_on", "time": 5, "note": 55, "velocity": 109, "channel": 0}, {"type": "note_off", "time": 50, "note": 55, "velocity": 109, "channel": 0}, {"type": "note_on", "time": 28, "note": 57, "velocity": 114, "channel": 0}, {"type": "note_off", "time": 79, "note": 57, "velocity": 114, "channel": 0}, {"type": "note_on", "time": 102, "note": 60, "velocity": 101, "channel": 0}, {"type": "note_off", "time": 240, "note": 60, "velocity": 101, "channel": 0}, {"type": "note_on", "time": 37, "note": 59, "velocity": 112, "channel": 0}, {"type": "note_off", "time": 73, "note": 59, "velocity": 112, "channel": 0}, {"type": "note_on", "time": 11, "note": 58, "velocity": 113, "channel": 0}, {"type": "note_off", "time": 101, "note": 58, "velocity": 113, "channel": 0}, {"type": "note_on", "time": 36, "note": 55, "velocity": 109, "channel": 0}, {"type": "note_off", "time": 92, "note": 55, "velocity": 109, "channel": 0}, {"type": "note_on", "time": 242, "note": 48, "velocity": 110, "channel": 0}, {"type": "note_off", "time": 77, "note": 48, "velocity": 110, "channel": 0}, {"type": "note_on", "time": 10, "note": 49, "velocity": 102, "channel": 0}, {"type": "note_off", "time": 100, "note": 49, "velocity": 102, "channel": 0}, {"type": "note_on", "time": 7, "note": 50, "velocity": 103, "channel": 0}, {"type": "note_off", "time": 74, "note": 50, "velocity": 103, "channel": 0}, {"type": "note_on", "time": 34, "note": 53, "velocity": 110, "channel": 0}, {"type": "note_off", "time": 77, "note": 53, "velocity": 110, "channel": 0}, {"type": "note_on", "time": 31, "note": 57, "velocity": 114, "channel": 0}, {"type": "note_off", "time": 64, "note": 57, "velocity": 114, "channel": 0}, {"type": "note_on", "time": 9, "note": 60, "velocity": 107, "channel": 0}, {"type": "note_off", "time": 88, "note": 60, "velocity": 107, "channel": 0}, {"type": "note_on", "time": 102, "note": 57, "velocity": 110, "channel": 0}, {"type": "note_off", "time": 185, "note": 57, "velocity": 110, "channel": 0}, {"type": "note_on", "time": 23, "note": 58, "velocity": 118, "channel": 0}, {"type": "note_off", "time": 71, "note": 58, "velocity": 118, "channel": 0}, {"type": "note_on", "time": 109, "note": 55, "velocity": 99, "channel": 0}, {"type": "note_off", "time": 230, "note": 55, "velocity": 99, "channel": 0}, {"type": "note_on", "time": 41, "note": 56, "velocity": 108, "channel": 0}, {"type": "note_off", "time": 96, "note": 56, "velocity": 108, "channel": 0}, {"type": "note_on", "time": 10, "note": 57, "velocity": 109, "channel": 0}, {"type": "note_off", "time": 116, "note": 57, "velocity": 109, "channel": 0}, {"type": "note_on", "time": 11, "note": 60, "velocity": 98, "channel": 0}, {"type": "note_off", "time": 47, "note": 60, "velocity": 98, "channel": 0}, {"type": "note_on", "time": 23, "note": 62, "velocity": 112, "channel": 0}, {"type": "note_off", "time": 82, "note": 62, "velocity": 112, "channel": 0}, {"type": "note_on", "time": 22, "note": 61, "velocity": 114, "channel": 0}, {"type": "note_off", "time": 57, "note": 61, "velocity": 114, "channel": 0}, {"type": "note_on", "time": 12, "note": 60, "velocity": 109, "channel": 0}, {"type": "note_off", "time": 83, "note": 60, "velocity": 109, "channel": 0}, {"type": "note_on", "time": 41, "note": 57, "velocity": 114, "channel": 0}, {"type": "note_off", "time": 74, "note": 57, "velocity": 114, "channel": 0}, {"type": "note_on", "time": 10, "note": 53, "velocity": 100, "channel": 0}, {"type": "note_off", "time": 80, "note": 53, "velocity": 100, "channel": 0}, {"type": "note_on", "time": 108, "note": 58, "velocity": 113, "channel": 0}, {"type": "note_off", "time": 87, "note": 58, "velocity": 113, "channel": 0}, {"type": "note_on", "time": 14, "note": 56, "velocity": 94, "channel": 0}, {"type": "note_off", "time": 42, "note": 56, "velocity": 94, "channel": 0}, {"type": "note_on", "time": 50, "note": 58, "velocity": 118, "channel": 0}, {"type": "note_off", "time": 77, "note": 58, "velocity": 118, "channel": 0}, {"type": "note_on", "time": 14, "note": 56, "velocity": 113, "channel": 0}, {"type": "note_off", "time": 71, "note": 56, "velocity": 113, "channel": 0}, {"type": "note_on", "time": 20, "note": 55, "velocity": 107, "channel": 0}, {"type": "note_off", "time": 84, "note": 55, "velocity": 107, "channel": 0}, {"type": "note_on", "time": 28, "note": 53, "velocity": 116, "channel": 0}, {"type": "note_off", "time": 64, "note": 53, "velocity": 116, "channel": 0}, {"type": "note_on", "time": 8, "note": 52, "velocity": 109, "channel": 0}, {"type": "note_off", "time": 61, "note": 52, "velocity": 109, "channel": 0}, {"type": "note_on", "time": 21, "note": 50, "velocity": 111, "channel": 0}, {"type": "note_off", "time": 72, "note": 50, "velocity": 111, "channel": 0}, {"type": "note_on", "time": 15, "note": 48, "velocity": 110, "channel": 0}, {"type": "note_off", "time": 86, "note": 48, "velocity": 110, "channel": 0}, {"type": "note_on", "time": 14, "note": 47, "velocity": 92, "channel": 0}, {"type": "note_off", "time": 56, "note": 47, "velocity": 92, "channel": 0}, {"type": "note_on", "time": 26, "note": 50, "velocity": 111, "channel": 0}, {"type": "note_off", "time": 132, "note": 50, "velocity": 111, "channel": 0}, {"type": "note_on", "time": 12, "note": 47, "velocity": 106, "channel": 0}, {"type": "note_off", "time": 60, "note": 47, "velocity": 106, "channel": 0}, {"type": "note_on", "time": 19, "note": 48, "velocity": 103, "channel": 0}, {"type": "note_off", "time": 86, "note": 48, "velocity": 103, "channel": 0}, {"type": "note_on", "time": 3, "note": 50, "velocity": 108, "channel": 0}, {"type": "note_off", "time": 49, "note": 50, "velocity": 108, "channel": 0}, {"type": "note_on", "time": 13, "note": 52, "velocity": 106, "channel": 0}, {"type": "note_off", "time": 81, "note": 52, "velocity": 106, "channel": 0}, {"type": "note_on", "time": 69, "note": 53, "velocity": 99, "channel": 0}, {"type": "note_off", "time": 54, "note": 53, "velocity": 99, "channel": 0}, {"type": "note_on", "time": 4, "note": 55, "velocity": 110, "channel": 0}, {"type": "note_off", "time": 67, "note": 55, "velocity": 110, "channel": 0}, {"type": "note_on", "time": 65, "note": 53, "velocity": 113, "channel": 0}, {"type": "note_off", "time": 90, "note": 53, "velocity": 113, "channel": 0}, {"type": "note_on", "time": 88, "note": 61, "velocity": 111, "channel": 0}, {"type": "note_off", "time": 37, "note": 61, "velocity": 111, "channel": 0}, {"type": "note_on", "time": 7, "note": 62, "velocity": 114, "channel": 0}, {"type": "note_off", "time": 424, "note": 62, "velocity": 114, "channel": 0}, {"type": "note_on", "time": 365, "note": 49, "velocity": 108, "channel": 0}, {"type": "note_off", "time": 88, "note": 49, "velocity": 108, "channel": 0}, {"type": "note_on", "time": 24, "note": 52, "velocity": 109, "channel": 0}, {"type": "note_off", "time": 57, "note": 52, "velocity": 109, "channel": 0}, {"type": "note_on", "time": 17, "note": 55, "velocity": 103, "channel": 0}, {"type": "note_off", "time": 94, "note": 55, "velocity": 103, "channel": 0}, {"type": "note_on", "time": 5, "note": 57, "velocity": 105, "channel": 0}, {"type": "note_off", "time": 82, "note": 57, "velocity": 105, "channel": 0}, {"type": "note_on", "time": 30, "note": 60, "velocity": 113, "channel": 0}, {"type": "note_off", "time": 88, "note": 60, "velocity": 113, "channel": 0}, {"type": "note_on", "time": 13, "note": 58, "velocity": 117, "channel": 0}, {"type": "note_off", "time": 74, "note": 58, "velocity": 117, "channel": 0}, {"type": "note_on", "time": 369, "note": 49, "velocity": 109, "channel": 0}, {"type": "note_off", "time": 95, "note": 49, "velocity": 109, "channel": 0}, {"type": "note_on", "time": 116, "note": 50, "velocity": 110, "channel": 0}, {"type": "note_off", "time": 232, "note": 50, "velocity": 110, "channel": 0}, {"type": "note_on", "time": 68, "note": 62, "velocity": 116, "channel": 0}, {"type": "note_off", "time": 364, "note": 62, "velocity": 116, "channel": 0}, {"type": "note_on", "time": 35, "note": 59, "velocity": 111, "channel": 0}, {"type": "note_off", "time": 68, "note": 59, "velocity": 111, "channel": 0}, {"type": "note_on", "time": 21, "note": 57, "velocity": 111, "channel": 0}, {"type": "note_off", "time": 74, "note": 57, "velocity": 111, "channel": 0}, {"type": "note_on", "time": 22, "note": 50, "velocity": 98, "channel": 0}, {"type": "note_off", "time": 146, "note": 50, "velocity": 98, "channel": 0}, {"type": "note_on", "time": 447, "note": 50, "velocity": 111, "channel": 0}, {"type": "note_off", "time": 117, "note": 50, "velocity": 111, "channel": 0}, {"type": "note_on", "time": 96, "note": 62, "velocity": 119, "channel": 0}, {"type": "note_off", "time": 115, "note": 62, "velocity": 119, "channel": 0}, {"type": "note_on", "time": 87, "note": 61, "velocity": 107, "channel": 0}, {"type": "note_off", "time": 50, "note": 61, "velocity": 107, "channel": 0}, {"type": "note_on", "time": 8, "note": 60, "velocity": 106, "channel": 0}, {"type": "note_off", "time": 42, "note": 60, "velocity": 106, "channel": 0}, {"type": "note_on", "time": 4, "note": 58, "velocity": 116, "channel": 0}, {"type": "note_off", "time": 31, "note": 58, "velocity": 116, "channel": 0}, {"type": "note_on", "time": 9, "note": 57, "velocity": 114, "channel": 0}, {"type": "note_off", "time": 57, "note": 57, "velocity": 114, "channel": 0}, {"type": "note_on", "time": 39, "note": 53, "velocity": 108, "channel": 0}, {"type": "note_off", "time": 67, "note": 53, "velocity": 108, "channel": 0}, {"type": "note_on", "time": 7, "note": 51, "velocity": 100, "channel": 0}, {"type": "note_off", "time": 50, "note": 51, "velocity": 100, "channel": 0}, {"type": "note_on", "time": 47, "note": 60, "velocity": 111, "channel": 0}, {"type": "note_off", "time": 90, "note": 60, "velocity": 111, "channel": 0}, {"type": "note_on", "time": 59, "note": 57, "velocity": 107, "channel": 0}, {"type": "note_off", "time": 45, "note": 57, "velocity": 107, "channel": 0}, {"type": "note_on", "time": 3, "note": 58, "velocity": 105, "channel": 0}, {"type": "note_off", "time": 66, "note": 58, "velocity": 105, "channel": 0}, {"type": "note_on", "time": 11, "note": 59, "velocity": 110, "channel": 0}, {"type": "note_off", "time": 83, "note": 59, "velocity": 110, "channel": 0}, {"type": "note_on", "time": 202, "note": 57, "velocity": 116, "channel": 0}, {"type": "note_off", "time": 89, "note": 57, "velocity": 116, "channel": 0}, {"type": "note_on", "time": 8, "note": 56, "velocity": 112, "channel": 0}, {"type": "note_off", "time": 66, "note": 56, "velocity": 112, "channel": 0}, {"type": "note_on", "time": 7, "note": 55, "velocity": 103, "channel": 0}, {"type": "note_off", "time": 70, "note": 55, "velocity": 103, "channel": 0}, {"type": "note_on", "time": 15, "note": 54, "velocity": 109, "channel": 0}, {"type": "note_off", "time": 75, "note": 54, "velocity": 109, "channel": 0}, {"type": "note_on", "time": 8, "note": 53, "velocity": 113, "channel": 0}, {"type": "note_off", "time": 135, "note": 53, "velocity": 113, "channel": 0}, {"type": "note_on", "time": 4, "note": 51, "velocity": 104, "channel": 0}, {"type": "note_off", "time": 71, "note": 51, "velocity": 104, "channel": 0}, {"type": "note_on", "time": 26, "note": 52, "velocity": 101, "channel": 0}, {"type": "note_off", "time": 82, "note": 52, "velocity": 101, "channel": 0}, {"type": "note_on", "time": 26, "note": 55, "velocity": 107, "channel": 0}, {"type": "note_off", "time": 44, "note": 55, "velocity": 107, "channel": 0}, {"type": "note_on", "time": 20, "note": 57, "velocity": 116, "channel": 0}, {"type": "note_off", "time": 99, "note": 57, "velocity": 116, "channel": 0}, {"type": "note_on", "time": 80, "note": 60, "velocity": 111, "channel": 0}, {"type": "note_off", "time": 99, "note": 60, "velocity": 111, "channel": 0}, {"type": "note_on", "time": 87, "note": 54, "velocity": 119, "channel": 0}, {"type": "note_off", "time": 72, "note": 54, "velocity": 119, "channel": 0}, {"type": "note_on", "time": 30, "note": 58, "velocity": 108, "channel": 0}, {"type": "note_off", "time": 70, "note": 58, "velocity": 108, "channel": 0}, {"type": "note_on", "time": 10, "note": 62, "velocity": 104, "channel": 0}, {"type": "note_off", "time": 75, "note": 62, "velocity": 104, "channel": 0}, {"type": "note_on", "time": 27, "note": 66, "velocity": 115, "channel": 0}, {"type": "note_off", "time": 77, "note": 66, "velocity": 115, "channel": 0}, {"type": "note_on", "time": 16, "note": 62, "velocity": 94, "channel": 0}, {"type": "note_off", "time": 58, "note": 62, "velocity": 94, "channel": 0}, {"type": "note_on", "time": 147, "note": 65, "velocity": 118, "channel": 0}, {"type": "note_off", "time": 86, "note": 65, "velocity": 118, "channel": 0}, {"type": "note_on", "time": 86, "note": 63, "velocity": 104, "channel": 0}, {"type": "note_off", "time": 83, "note": 63, "velocity": 104, "channel": 0}, {"type": "note_on", "time": 14, "note": 64, "velocity": 113, "channel": 0}, {"type": "note_off", "time": 87, "note": 64, "velocity": 113, "channel": 0}, {"type": "note_on", "time": 17, "note": 60, "velocity": 93, "channel": 0}, {"type": "note_off", "time": 81, "note": 60, "velocity": 93, "channel": 0}, {"type": "note_on", "time": 22, "note": 61, "velocity": 92, "channel": 0}, {"type": "note_off", "time": 74, "note": 61, "velocity": 92, "channel": 0}, {"type": "note_on", "time": 12, "note": 62, "velocity": 116, "channel": 0}, {"type": "note_off", "time": 92, "note": 62, "velocity": 116, "channel": 0}, {"type": "note_on", "time": 18, "note": 61, "velocity": 118, "channel": 0}, {"type": "note_off", "time": 64, "note": 61, "velocity": 118, "channel": 0}, {"type": "note_on", "time": 17, "note": 60, "velocity": 112, "channel": 0}, {"type": "note_off", "time": 79, "note": 60, "velocity": 112, "channel": 0}, {"type": "note_on", "time": 14, "note": 59, "velocity": 114, "channel": 0}, {"type": "note_off", "time": 76, "note": 59, "velocity": 114, "channel": 0}, {"type": "note_on", "time": 4, "note": 58, "velocity": 114, "channel": 0}, {"type": "note_off", "time": 71, "note": 58, "velocity": 114, "channel": 0}, {"type": "note_on", "time": 6, "note": 56, "velocity": 95, "channel": 0}, {"type": "note_off", "time": 75, "note": 56, "velocity": 95, "channel": 0}, {"type": "note_on", "time": 30, "note": 57, "velocity": 117, "channel": 0}, {"type": "note_off", "time": 85, "note": 57, "velocity": 117, "channel": 0}, {"type": "note_on", "time": 15, "note": 55, "velocity": 112, "channel": 0}, {"type": "note_off", "time": 79, "note": 55, "velocity": 112, "channel": 0}, {"type": "note_on", "time": 12, "note": 54, "velocity": 100, "channel": 0}, {"type": "note_off", "time": 67, "note": 54, "velocity": 100, "channel": 0}, {"type": "note_on", "time": 43, "note": 55, "velocity": 95, "channel": 0}, {"type": "note_off", "time": 44, "note": 55, "velocity": 95, "channel": 0}, {"type": "note_on", "time": 50, "note": 57, "velocity": 117, "channel": 0}, {"type": "note_off", "time": 102, "note": 57, "velocity": 117, "channel": 0}, {"type": "note_on", "time": 24, "note": 54, "velocity": 114, "channel": 0}, {"type": "note_off", "time": 61, "note": 54, "velocity": 114, "channel": 0}, {"type": "note_on", "time": 44, "note": 57, "velocity": 105, "channel": 0}, {"type": "note_off", "time": 69, "note": 57, "velocity": 105, "channel": 0}, {"type": "note_on", "time": 13, "note": 60, "velocity": 107, "channel": 0}, {"type": "note_off", "time": 30, "note": 60, "velocity": 107, "channel": 0}, {"type": "note_on", "time": 12, "note": 62, "velocity": 108, "channel": 0}, {"type": "note_off", "time": 28, "note": 62, "velocity": 108, "channel": 0}, {"type": "note_on", "time": 26, "note": 65, "velocity": 115, "channel": 0}, {"type": "note_off", "time": 147, "note": 65, "velocity": 115, "channel": 0}, {"type": "note_on", "time": 7, "note": 62, "velocity": 110, "channel": 0}, {"type": "note_off", "time": 73, "note": 62, "velocity": 110, "channel": 0}, {"type": "note_on", "time": 41, "note": 55, "velocity": 107, "channel": 0}, {"type": "note_off", "time": 69, "note": 55, "velocity": 107, "channel": 0}, {"type": "note_on", "time": 461, "note": 55, "velocity": 112, "channel": 0}, {"type": "note_off", "time": 77, "note": 55, "velocity": 112, "channel": 0}, {"type": "note_on", "time": 3, "note": 56, "velocity": 115, "channel": 0}, {"type": "note_off", "time": 96, "note": 56, "velocity": 115, "channel": 0}, {"type": "note_on", "time": 10, "note": 57, "velocity": 106, "channel": 0}, {"type": "note_off", "time": 81, "note": 57, "velocity": 106, "channel": 0}, {"type": "note_on", "time": 13, "note": 62, "velocity": 112, "channel": 0}, {"type": "note_off", "time": 89, "note": 62, "velocity": 112, "channel": 0}, {"type": "note_on", "time": 16, "note": 60, "velocity": 116, "channel": 0}, {"type": "note_off", "time": 62, "note": 60, "velocity": 116, "channel": 0}, {"type": "note_on", "time": 25, "note": 57, "velocity": 111, "channel": 0}, {"type": "note_off", "time": 50, "note": 57, "velocity": 111, "channel": 0}, {"type": "note_on", "time": 25, "note": 53, "velocity": 107, "channel": 0}, {"type": "note_off", "time": 77, "note": 53, "velocity": 107, "channel": 0}, {"type": "note_on", "time": 44, "note": 58, "velocity": 116, "channel": 0}, {"type": "note_off", "time": 94, "note": 58, "velocity": 116, "channel": 0}, {"type": "note_on", "time": 12, "note": 56, "velocity": 107, "channel": 0}, {"type": "note_off", "time": 48, "note": 56, "velocity": 107, "channel": 0}, {"type": "note_on", "time": 38, "note": 58, "velocity": 114, "channel": 0}, {"type": "note_off", "time": 86, "note": 58, "velocity": 114, "channel": 0}, {"type": "note_on", "time": 14, "note": 56, "velocity": 101, "channel": 0}, {"type": "note_off", "time": 49, "note": 56, "velocity": 101, "channel": 0}, {"type": "note_on", "time": 34, "note": 58, "velocity": 118, "channel": 0}, {"type": "note_off", "time": 83, "note": 58, "velocity": 118, "channel": 0}, {"type": "note_on", "time": 8, "note": 56, "velocity": 95, "channel": 0}, {"type": "note_off", "time": 70, "note": 56, "velocity": 95, "channel": 0}, {"type": "note_on", "time": 25, "note": 58, "velocity": 117, "channel": 0}, {"type": "note_off", "time": 94, "note": 58, "velocity": 117, "channel": 0}, {"type": "note_on", "time": 14, "note": 56, "velocity": 105, "channel": 0}, {"type": "note_off", "time": 71, "note": 56, "velocity": 105, "channel": 0}, {"type": "note_on", "time": 41, "note": 58, "velocity": 118, "channel": 0}, {"type": "note_off", "time": 84, "note": 58, "velocity": 118, "channel": 0}, {"type": "note_on", "time": 17, "note": 56, "velocity": 113, "channel": 0}, {"type": "note_off", "time": 73, "note": 56, "velocity": 113, "channel": 0}, {"type": "note_on", "time": 25, "note": 53, "velocity": 107, "channel": 0}, {"type": "note_off", "time": 73, "note": 53, "velocity": 107, "channel": 0}, {"type": "note_on", "time": 107, "note": 56, "velocity": 110, "channel": 0}, {"type": "note_off", "time": 106, "note": 56, "velocity": 110, "channel": 0}, {"type": "note_on", "time": 16, "note": 57, "velocity": 115, "channel": 0}, {"type": "note_off", "time": 55, "note": 57, "velocity": 115, "channel": 0}, {"type": "note_on", "time": 17, "note": 58, "velocity": 116, "channel": 0}, {"type": "note_off", "time": 75, "note": 58, "velocity": 116, "channel": 0}, {"type": "note_on", "time": 7, "note": 59, "velocity": 102, "channel": 0}, {"type": "note_off", "time": 49, "note": 59, "velocity": 102, "channel": 0}, {"type": "note_on", "time": 48, "note": 60, "velocity": 100, "channel": 0}, {"type": "note_off", "time": 108, "note": 60, "velocity": 100, "channel": 0}, {"type": "note_on", "time": 21, "note": 65, "velocity": 127, "channel": 0}, {"type": "note_off", "time": 60, "note": 65, "velocity": 127, "channel": 0}, {"type": "note_on", "time": 4, "note": 66, "velocity": 125, "channel": 0}, {"type": "note_off", "time": 37, "note": 66, "velocity": 125, "channel": 0}, {"type": "note_on", "time": 7, "note": 65, "velocity": 107, "channel": 0}, {"type": "note_off", "time": 439, "note": 65, "velocity": 107, "channel": 0}, {"type": "note_on", "time": 5, "note": 64, "velocity": 114, "channel": 0}, {"type": "note_off", "time": 66, "note": 64, "velocity": 114, "channel": 0}, {"type": "note_on", "time": 3, "note": 62, "velocity": 118, "channel": 0}, {"type": "note_off", "time": 57, "note": 62, "velocity": 118, "channel": 0}, {"type": "note_on", "time": 5, "note": 60, "velocity": 116, "channel": 0}, {"type": "note_off", "time": 57, "note": 60, "velocity": 116, "channel": 0}, {"type": "note_on", "time": 4, "note": 58, "velocity": 118, "channel": 0}, {"type": "note_off", "time": 54, "note": 58, "velocity": 118, "channel": 0}, {"type": "note_on", "time": 8, "note": 57, "velocity": 115, "channel": 0}, {"type": "note_off", "time": 44, "note": 57, "velocity": 115, "channel": 0}, {"type": "note_on", "time": 5, "note": 55, "velocity": 109, "channel": 0}, {"type": "note_off", "time": 43, "note": 55, "velocity": 109, "channel": 0}, {"type": "note_on", "time": 17, "note": 53, "velocity": 113, "channel": 0}, {"type": "note_off", "time": 50, "note": 53, "velocity": 113, "channel": 0}, {"type": "note_on", "time": 12, "note": 51, "velocity": 111, "channel": 0}, {"type": "note_off", "time": 39, "note": 51, "velocity": 111, "channel": 0}, {"type": "note_on", "time": 7, "note": 50, "velocity": 106, "channel": 0}, {"type": "note_off", "time": 90, "note": 50, "velocity": 106, "channel": 0}, {"type": "end_of_track", "time": 0}]]}