{"ticks_per_beat": 192, "tracks": [[{"type": "track_name", "name": "Melody", "time": 0}, {"type": "set_tempo", "tempo": 223048, "time": 0}, {"type": "key_signature", "key": "Ab", "time": 0}, {"type": "time_signature", "numerator": 4, "denominator": 4, "clocks_per_click": 24, "notated_32nd_notes_per_beat": 8, "time": 0}, {"type": "note_on", "time": 4244, "note": 60, "velocity": 106, "channel": 0}, {"type": "note_off", "time": 93, "note": 60, "velocity": 106, "channel": 0}, {"type": "note_on", "time": 99, "note": 61, "velocity": 103, "channel": 0}, {"type": "note_off", "time": 119, "note": 61, "velocity": 103, "channel": 0}, {"type": "note_on", "time": 64, "note": 60, "velocity": 104, "channel": 0}, {"type": "note_off", "time": 117, "note": 60, "velocity": 104, "channel": 0}, {"type": "note_on", "time": 12, "note": 56, "velocity": 100, "channel": 0}, {"type": "note_off", "time": 69, "note": 56, "velocity": 100, "channel": 0}, {"type": "note_on", "time": 23, "note": 51, "velocity": 86, "channel": 0}, {"type": "note_off", "time": 75, "note": 51, "velocity": 86, "channel": 0}, {"type": "note_on", "time": 106, "note": 60, "velocity": 101, "channel": 0}, {"type": "note_off", "time": 262, "note": 60, "velocity": 101, "channel": 0}, {"type": "note_on", "time": 24, "note": 61, "velocity": 104, "channel": 0}, {"type": "note_off", "time": 139, "note": 61, "velocity": 104, "channel": 0}, {"type": "note_on", "time": 0, "note": 60, "velocity": 100, "channel": 0}, {"type": "note_off", "time": 134, "note": 60, "velocity": 100, "channel": 0}, {"type": "note_on", "time": 17, "note": 56, "velocity": 103, "channel": 0}, {"type": "note_off", "time": 122, "note": 56, "velocity": 103, "channel": 0}, {"type": "note_on", "time": 8, "note": 58, "velocity": 103, "channel": 0}, {"type": "note_off", "time": 112, "note": 58, "velocity": 103, "channel": 0}, {"type": "note_on", "time": 56, "note": 63, "velocity": 99, "channel": 0}, {"type": "note_off", "time": 274, "note": 63, "velocity": 99, "channel": 0}, {"type": "note_on", "time": 574, "note": 51, "velocity": 112, "channel": 0}, {"type": "note_off", "time": 84, "note": 51, "velocity": 112, "channel": 0}, {"type": "note_on", "time": 15, "note": 52, "velocity": 102, "channel": 0}, {"type": "note_off", "time": 89, "note": 52, "velocity": 102, "channel": 0}, {"type": "note_on", "time": 15, "note": 53, "velocity": 101, "channel": 0}, {"type": "note_off", "time": 101, "note": 53, "velocity": 101, "channel": 0}, {"type": "note_on", "time": 15, "note": 56, "velocity": 92, "channel": 0}, {"type": "note_off", "time": 66, "note": 56, "velocity": 92, "channel": 0}, {"type": "note_on", "time": 21, "note": 58, "velocity": 107, "channel": 0}, {"type": "note_off", "time": 72, "note": 58, "velocity": 107, "channel": 0}, {"type": "note_on", "time": 18, "note": 56, "velocity": 101, "channel": 0}, {"type": "note_off", "time": 84, "note": 56, "velocity": 101, "channel": 0}, {"type": "note_on", "time": 12, "note": 55, "velocity": 93, "channel": 0}, {"type": "note_off", "time": 72, "note": 55, "velocity": 93, "channel": 0}, {"type": "note_on", "time": 9, "note": 56, "velocity": 95, "channel": 0}, {"type": "note_off", "time": 79, "note": 56, "velocity": 95, "channel": 0}, {"type": "note_on", "time": 12, "note": 59, "velocity": 104, "channel": 0}, {"type": "note_off", "time": 89, "note": 59, "velocity": 104, "channel": 0}, {"type": "note_on", "time": 12, "note": 60, "velocity": 96, "channel": 0}, {"type": "note_off", "time": 94, "note": 60, "velocity": 96, "channel": 0}, {"type": "note_on", "time": 17, "note": 61, "velocity": 102, "channel": 0}, {"type": "note_off", "time": 74, "note": 61, "velocity": 102, "channel": 0}, {"type": "note_on", "time": 12, "note": 62, "velocity": 93, "channel": 0}, {"type": "note_off", "time": 82, "note": 62, "velocity": 93, "channel": 0}, {"type": "note_on", "time": 19, "note": 63, "velocity": 111, "channel": 0}, {"type": "note_off", "time": 97, "note": 63, "velocity": 111, "channel": 0}, {"type": "note_on", "time": 92, "note": 61, "velocity": 102, "channel": 0}, {"type": "note_off", "time": 34, "note": 61, "velocity": 102, "channel": 0}, {"type": "note_on", "time": 13, "note": 60, "velocity": 102, "channel": 0}, {"type": "note_off", "time": 36, "note": 60, "velocity": 102, "channel": 0}, {"type": "note_on", "time": 18, "note": 58, "velocity": 108, "channel": 0}, {"type": "note_off", "time": 76, "note": 58, "velocity": 108, "channel": 0}, {"type": "note_on", "time": 12, "note": 54, "velocity": 98, "channel": 0}, {"type": "note_off", "time": 102, "note": 54, "velocity": 98, "channel": 0}, {"type": "note_on", "time": 19, "note": 51, "velocity": 92, "channel": 0}, {"type": "note_off", "time": 69, "note": 51, "velocity": 92, "channel": 0}, {"type": "note_on", "time": 37, "note": 60, "velocity": 108, "channel": 0}, {"type": "note_off", "time": 97, "note": 60, "velocity": 108, "channel": 0}, {"type": "note_on", "time": 12, "note": 59, "velocity": 105, "channel": 0}, {"type": "note_off", "time": 77, "note": 59, "velocity": 105, "channel": 0}, {"type": "note_on", "time": 9, "note": 58, "velocity": 102, "channel": 0}, {"type": "note_off", "time": 92, "note": 58, "velocity": 102, "channel": 0}, {"type": "note_on", "time": 4, "note": 57, "velocity": 104, "channel": 0}, {"type": "note_off", "time": 74, "note": 57, "velocity": 104, "channel": 0}, {"type": "note_on", "time": 14, "note": 56, "velocity": 104, "channel": 0}, {"type": "note_off", "time": 106, "note": 56, "velocity": 104, "channel": 0}, {"type": "note_on", "time": 1, "note": 54, "velocity": 102, "channel": 0}, {"type": "note_off", "time": 72, "note": 54, "velocity": 102, "channel": 0}, {"type": "note_on", "time": 19, "note": 53, "velocity": 109, "channel": 0}, {"type": "note_off", "time": 94, "note": 53, "velocity": 109, "channel": 0}, {"type": "note_on", "time": 12, "note": 56, "velocity": 104, "channel": 0}, {"type": "note_off", "time": 67, "note": 56, "velocity": 104, "channel": 0}, {"type": "note_on", "time": 9, "note": 58, "velocity": 103, "channel": 0}, {"type": "note_off", "time": 69, "note": 58, "velocity": 103, "channel": 0}, {"type": "note_on", "time": 9, "note": 60, "velocity": 104, "channel": 0}, {"type": "note_off", "time": 76, "note": 60, "velocity": 104, "channel": 0}, {"type": "note_on", "time": 16, "note": 58, "velocity": 101, "channel": 0}, {"type": "note_off", "time": 106, "note": 58, "velocity": 101, "channel": 0}, {"type": "note_on", "time": 101, "note": 60, "velocity": 101, "channel": 0}, {"type": "note_off", "time": 282, "note": 60, "velocity": 101, "channel": 0}, {"type": "note_on", "time": 9, "note": 58, "velocity": 109, "channel": 0}, {"type": "note_off", "time": 89, "note": 58, "velocity": 109, "channel": 0}, {"type": "note_on", "time": 8, "note": 56, "velocity": 107, "channel": 0}, {"type": "note_off", "time": 97, "note": 56, "velocity": 107, "channel": 0}, {"type": "note_on", "time": 13, "note": 52, "velocity": 102, "channel": 0}, {"type": "note_off", "time": 74, "note": 52, "velocity": 102, "channel": 0}, {"type": "note_on", "time": 12, "note": 51, "velocity": 99, "channel": 0}, {"type": "note_off", "time": 72, "note": 51, "velocity": 99, "channel": 0}, {"type": "note_on", "time": 109, "note": 51, "velocity": 102, "channel": 0}, {"type": "note_off", "time": 224, "note": 51, "velocity": 102, "channel": 0}, {"type": "note_on", "time": 158, "note": 55, "velocity": 104, "channel": 0}, {"type": "note_off", "time": 62, "note": 55, "velocity": 104, "channel": 0}, {"type": "note_on", "time": 22, "note": 56, "velocity": 106, "channel": 0}, {"type": "note_off", "time": 239, "note": 56, "velocity": 106, "channel": 0}, {"type": "note_on", "time": 82, "note": 58, "velocity": 108, "channel": 0}, {"type": "note_off", "time": 88, "note": 58, "velocity": 108, "channel": 0}, {"type": "note_on", "time": 97, "note": 63, "velocity": 112, "channel": 0}, {"type": "note_off", "time": 109, "note": 63, "velocity": 112, "channel": 0}, {"type": "note_on", "time": 8, "note": 62, "velocity": 108, "channel": 0}, {"type": "note_off", "time": 86, "note": 62, "velocity": 108, "channel": 0}, {"type": "note_on", "time": 12, "note": 61, "velocity": 103, "channel": 0}, {"type": "note_off", "time": 82, "note": 61, "velocity": 103, "channel": 0}, {"type": "note_on", "time": 26, "note": 58, "velocity": 107, "channel": 0}, {"type": "note_off", "time": 64, "note": 58, "velocity": 107, "channel": 0}, {"type": "note_on", "time": 21, "note": 60, "velocity": 96, "channel": 0}, {"type": "note_off", "time": 44, "note": 60, "velocity": 96, "channel": 0}, {"type": "note_on", "time": 21, "note": 63, "velocity": 103, "channel": 0}, {"type": "note_off", "time": 32, "note": 63, "velocity": 103, "channel": 0}, {"type": "note_on", "time": 24, "note": 65, "velocity": 97, "channel": 0}, {"type": "note_off", "time": 34, "note": 65, "velocity": 97, "channel": 0}, {"type": "note_on", "time": 26, "note": 68, "velocity": 109, "channel": 0}, {"type": "note_off", "time": 241, "note": 68, "velocity": 109, "channel": 0}, {"type": "note_on", "time": 46, "note": 68, "velocity": 113, "channel": 0}, {"type": "note_off", "time": 132, "note": 68, "velocity": 113, "channel": 0}, {"type": "note_on", "time": 516, "note": 56, "velocity": 103, "channel": 0}, {"type": "note_off", "time": 98, "note": 56, "velocity": 103, "channel": 0}, {"type": "note_on", "time": 14, "note": 56, "velocity": 98, "channel": 0}, {"type": "note_off", "time": 84, "note": 56, "velocity": 98, "channel": 0}, {"type": "note_on", "time": 48, "note": 66, "velocity": 98, "channel": 0}, {"type": "note_off", "time": 67, "note": 66, "velocity": 98, "channel": 0}, {"type": "note_on", "time": 7, "note": 66, "velocity": 105, "channel": 0}, {"type": "note_off", "time": 59, "note": 66, "velocity": 105, "channel": 0}, {"type": "note_on", "time": 12, "note": 65, "velocity": 105, "channel": 0}, {"type": "note_off", "time": 97, "note": 65, "velocity": 105, "channel": 0}, {"type": "note_on", "time": 7, "note": 65, "velocity": 108, "channel": 0}, {"type": "note_off", "time": 79, "note": 65, "velocity": 108, "channel": 0}, {"type": "note_on", "time": 28, "note": 64, "velocity": 110, "channel": 0}, {"type": "note_off", "time": 88, "note": 64, "velocity": 110, "channel": 0}, {"type": "note_on", "time": 18, "note": 64, "velocity": 112, "channel": 0}, {"type": "note_off", "time": 61, "note": 64, "velocity": 112, "channel": 0}, {"type": "note_on", "time": 19, "note": 61, "velocity": 100, "channel": 0}, {"type": "note_off", "time": 81, "note": 61, "velocity": 100, "channel": 0}, {"type": "note_on", "time": 99, "note": 60, "velocity": 95, "channel": 0}, {"type": "note_off", "time": 284, "note": 60, "velocity": 95, "channel": 0}, {"type": "note_on", "time": 103, "note": 58, "velocity": 102, "channel": 0}, {"type": "note_off", "time": 101, "note": 58, "velocity": 102, "channel": 0}, {"type": "note_on", "time": 9, "note": 60, "velocity": 100, "channel": 0}, {"type": "note_off", "time": 71, "note": 60, "velocity": 100, "channel": 0}, {"type": "note_on", "time": 24, "note": 58, "velocity": 101, "channel": 0}, {"type": "note_off", "time": 87, "note": 58, "velocity": 101, "channel": 0}, {"type": "note_on", "time": 9, "note": 56, "velocity": 107, "channel": 0}, {"type": "note_off", "time": 79, "note": 56, "velocity": 107, "channel": 0}, {"type": "note_on", "time": 17, "note": 52, "velocity": 107, "channel": 0}, {"type": "note_off", "time": 87, "note": 52, "velocity": 107, "channel": 0}, {"type": "note_on", "time": 22, "note": 49, "velocity": 104, "channel": 0}, {"type": "note_off", "time": 64, "note": 49, "velocity": 104, "channel": 0}, {"type": "note_on", "time": 12, "note": 48, "velocity": 108, "channel": 0}, {"type": "note_off", "time": 104, "note": 48, "velocity": 108, "channel": 0}, {"type": "note_on", "time": 9, "note": 50, "velocity": 96, "channel": 0}, {"type": "note_off", "time": 89, "note": 50, "velocity": 96, "channel": 0}, {"type": "note_on", "time": 12, "note": 52, "velocity": 95, "channel": 0}, {"type": "note_off", "time": 107, "note": 52, "velocity": 95, "channel": 0}, {"type": "note_on", "time": 7, "note": 54, "velocity": 94, "channel": 0}, {"type": "note_off", "time": 74, "note": 54, "velocity": 94, "channel": 0}, {"type": "note_on", "time": 13, "note": 55, "velocity": 98, "channel": 0}, {"type": "note_off", "time": 76, "note": 55, "velocity": 98, "channel": 0}, {"type": "note_on", "time": 9, "note": 52, "velocity": 87, "channel": 0}, {"type": "note_off", "time": 77, "note": 52, "velocity": 87, "channel": 0}, {"type": "note_on", "time": 14, "note": 53, "velocity": 100, "channel": 0}, {"type": "note_off", "time": 93, "note": 53, "velocity": 100, "channel": 0}, {"type": "note_on", "time": 21, "note": 55, "velocity": 97, "channel": 0}, {"type": "note_off", "time": 79, "note": 55, "velocity": 97, "channel": 0}, {"type": "note_on", "time": 7, "note": 56, "velocity": 100, "channel": 0}, {"type": "note_off", "time": 97, "note": 56, "velocity": 100, "channel": 0}, {"type": "note_on", "time": 19, "note": 58, "velocity": 96, "channel": 0}, {"type": "note_off", "time": 59, "note": 58, "velocity": 96, "channel": 0}, {"type": "note_on", "time": 4, "note": 59, "velocity": 104, "channel": 0}, {"type": "note_off", "time": 87, "note": 59, "velocity": 104, "channel": 0}, {"type": "note_on", "time": 14, "note": 60, "velocity": 91, "channel": 0}, {"type": "note_off", "time": 62, "note": 60, "velocity": 91, "channel": 0}, {"type": "note_on", "time": 12, "note": 61, "velocity": 100, "channel": 0}, {"type": "note_off", "time": 123, "note": 61, "velocity": 100, "channel": 0}, {"type": "note_on", "time": 22, "note": 59, "velocity": 108, "channel": 0}, {"type": "note_off", "time": 47, "note": 59, "velocity": 108, "channel": 0}, {"type": "note_on", "time": 13, "note": 60, "velocity": 102, "channel": 0}, {"type": "note_off", "time": 88, "note": 60, "velocity": 102, "channel": 0}, {"type": "note_on", "time": 28, "note": 56, "velocity": 108, "channel": 0}, {"type": "note_off", "time": 64, "note": 56, "velocity": 108, "channel": 0}, {"type": "note_on", "time": 13, "note": 55, "velocity": 93, "channel": 0}, {"type": "note_off", "time": 93, "note": 55, "velocity": 93, "channel": 0}, {"type": "note_on", "time": 14, "note": 53, "velocity": 90, "channel": 0}, {"type": "note_off", "time": 61, "note": 53, "velocity": 90, "channel": 0}, {"type": "note_on", "time": 8, "note": 58, "velocity": 104, "channel": 0}, {"type": "note_off", "time": 123, "note": 58, "velocity": 104, "channel": 0}, {"type": "note_on", "time": 17, "note": 56, "velocity": 91, "channel": 0}, {"type": "note_off", "time": 49, "note": 56, "velocity": 91, "channel": 0}, {"type": "note_on", "time": 21, "note": 58, "velocity": 106, "channel": 0}, {"type": "note_off", "time": 89, "note": 58, "velocity": 106, "channel": 0}, {"type": "note_on", "time": 24, "note": 56, "velocity": 106, "channel": 0}, {"type": "note_off", "time": 72, "note": 56, "velocity": 106, "channel": 0}, {"type": "note_on", "time": 4, "note": 55, "velocity": 99, "channel": 0}, {"type": "note_off", "time": 74, "note": 55, "velocity": 99, "channel": 0}, {"type": "note_on", "time": 17, "note": 53, "velocity": 100, "channel": 0}, {"type": "note_off", "time": 64, "note": 53, "velocity": 100, "channel": 0}, {"type": "note_on", "time": 19, "note": 64, "velocity": 103, "channel": 0}, {"type": "note_off", "time": 102, "note": 64, "velocity": 103, "channel": 0}, {"type": "note_on", "time": 66, "note": 55, "velocity": 101, "channel": 0}, {"type": "note_off", "time": 87, "note": 55, "velocity": 101, "channel": 0}, {"type": "note_on", "time": 133, "note": 53, "velocity": 103, "channel": 0}, {"type": "note_off", "time": 113, "note": 53, "velocity": 103, "channel": 0}, {"type": "note_on", "time": 11, "note": 55, "velocity": 102, "channel": 0}, {"type": "note_off", "time": 62, "note": 55, "velocity": 102, "channel": 0}, {"type": "note_on", "time": 16, "note": 57, "velocity": 101, "channel": 0}, {"type": "note_off", "time": 97, "note": 57, "velocity": 101, "channel": 0}, {"type": "note_on", "time": 7, "note": 58, "velocity": 103, "channel": 0}, {"type": "note_off", "time": 78, "note": 58, "velocity": 103, "channel": 0}, {"type": "note_on", "time": 22, "note": 60, "velocity": 104, "channel": 0}, {"type": "note_off", "time": 108, "note": 60, "velocity": 104, "channel": 0}, {"type": "note_on", "time": 8, "note": 57, "velocity": 97, "channel": 0}, {"type": "note_off", "time": 72, "note": 57, "velocity": 97, "channel": 0}, {"type": "note_on", "time": 4, "note": 58, "velocity": 107, "channel": 0}, {"type": "note_off", "time": 87, "note": 58, "velocity": 107, "channel": 0}, {"type": "note_on", "time": 3, "note": 60, "velocity": 103, "channel": 0}, {"type": "note_off", "time": 86, "note": 60, "velocity": 103, "channel": 0}, {"type": "note_on", "time": 27, "note": 62, "velocity": 107, "channel": 0}, {"type": "note_off", "time": 82, "note": 62, "velocity": 107, "channel": 0}, {"type": "note_on", "time": 7, "note": 58, "velocity": 101, "channel": 0}, {"type": "note_off", "time": 92, "note": 58, "velocity": 101, "channel": 0}, {"type": "note_on", "time": 522, "note": 58, "velocity": 108, "channel": 0}, {"type": "note_off", "time": 109, "note": 58, "velocity": 108, "channel": 0}, {"type": "note_on", "time": 19, "note": 60, "velocity": 97, "channel": 0}, {"type": "note_off", "time": 67, "note": 60, "velocity": 97, "channel": 0}, {"type": "note_on", "time": 22, "note": 61, "velocity": 106, "channel": 0}, {"type": "note_off", "time": 112, "note": 61, "velocity": 106, "channel": 0}, {"type": "note_on", "time": 12, "note": 58, "velocity": 111, "channel": 0}, {"type": "note_off", "time": 57, "note": 58, "velocity": 111, "channel": 0}, {"type": "note_on", "time": 19, "note": 55, "velocity": 101, "channel": 0}, {"type": "note_off", "time": 64, "note": 55, "velocity": 101, "channel": 0}, {"type": "note_on", "time": 14, "note": 53, "velocity": 92, "channel": 0}, {"type": "note_off", "time": 82, "note": 53, "velocity": 92, "channel": 0}, {"type": "note_on", "time": 7, "note": 56, "velocity": 108, "channel": 0}, {"type": "note_off", "time": 111, "note": 56, "velocity": 108, "channel": 0}, {"type": "note_on", "time": 186, "note": 56, "velocity": 105, "channel": 0}, {"type": "note_off", "time": 118, "note": 56, "velocity": 105, "channel": 0}, {"type": "note_on", "time": 174, "note": 56, "velocity": 108, "channel": 0}, {"type": "note_off", "time": 104, "note": 56, "velocity": 108, "channel": 0}, {"type": "note_on", "time": 22, "note": 58, "velocity": 95, "channel": 0}, {"type": "note_off", "time": 66, "note": 58, "velocity": 95, "channel": 0}, {"type": "note_on", "time": 19, "note": 60, "velocity": 105, "channel": 0}, {"type": "note_off", "time": 74, "note": 60, "velocity": 105, "channel": 0}, {"type": "note_on", "time": 39, "note": 54, "velocity": 104, "channel": 0}, {"type": "note_off", "time": 114, "note": 54, "velocity": 104, "channel": 0}, {"type": "note_on", "time": 139, "note": 56, "velocity": 103, "channel": 0}, {"type": "note_off", "time": 102, "note": 56, "velocity": 103, "channel": 0}, {"type": "note_on", "time": 19, "note": 58, "velocity": 95, "channel": 0}, {"type": "note_off", "time": 69, "note": 58, "velocity": 95, "channel": 0}, {"type": "note_on", "time": 12, "note": 60, "velocity": 105, "channel": 0}, {"type": "note_off", "time": 79, "note": 60, "velocity": 105, "channel": 0}, {"type": "note_on", "time": 12, "note": 56, "velocity": 97, "channel": 0}, {"type": "note_off", "time": 66, "note": 56, "velocity": 97, "channel": 0}, {"type": "note_on", "time": 8, "note": 58, "velocity": 102, "channel": 0}, {"type": "note_off", "time": 46, "note": 58, "velocity": 102, "channel": 0}, {"type": "note_on", "time": 4, "note": 60, "velocity": 102, "channel": 0}, {"type": "note_off", "time": 63, "note": 60, "velocity": 102, "channel": 0}, {"type": "note_on", "time": 14, "note": 58, "velocity": 105, "channel": 0}, {"type": "note_off", "time": 57, "note": 58, "velocity": 105, "channel": 0}, {"type": "note_on", "time": 6, "note": 56, "velocity": 101, "channel": 0}, {"type": "note_off", "time": 158, "note": 56, "velocity": 101, "channel": 0}, {"type": "note_on", "time": 47, "note": 58, "velocity": 105, "channel": 0}, {"type": "note_off", "time": 107, "note": 58, "velocity": 105, "channel": 0}, {"type": "note_on", "time": 12, "note": 54, "velocity": 87, "channel": 0}, {"type": "note_off", "time": 54, "note": 54, "velocity": 87, "channel": 0}, {"type": "note_on", "time": 19, "note": 56, "velocity": 104, "channel": 0}, {"type": "note_off", "time": 84, "note": 56, "velocity": 104, "channel": 0}, {"type": "note_on", "time": 98, "note": 59, "velocity": 103, "channel": 0}, {"type": "note_off", "time": 291, "note": 59, "velocity": 103, "channel": 0}, {"type": "note_on", "time": 17, "note": 58, "velocity": 108, "channel": 0}, {"type": "note_off", "time": 93, "note": 58, "velocity": 108, "channel": 0}, {"type": "note_on", "time": 26, "note": 56, "velocity": 105, "channel": 0}, {"type": "note_off", "time": 99, "note": 56, "velocity": 105, "channel": 0}, {"type": "note_on", "time": 12, "note": 52, "velocity": 103, "channel": 0}, {"type": "note_off", "time": 58, "note": 52, "velocity": 103, "channel": 0}, {"type": "note_on", "time": 14, "note": 49, "velocity": 101, "channel": 0}, {"type": "note_off", "time": 89, "note": 49, "velocity": 101, "channel": 0}, {"type": "note_on", "time": 77, "note": 51, "velocity": 109, "channel": 0}, {"type": "note_off", "time": 144, "note": 51, "velocity": 109, "channel": 0}, {"type": "note_on", "time": 52, "note": 56, "velocity": 99, "channel": 0}, {"type": "note_off", "time": 126, "note": 56, "velocity": 99, "channel": 0}, {"type": "note_on", "time": 89, "note": 60, "velocity": 93, "channel": 0}, {"type": "note_off", "time": 308, "note": 60, "velocity": 93, "channel": 0}, {"type": "note_on", "time": 1125, "note": 60, "velocity": 117, "channel": 0}, {"type": "note_off", "time": 138, "note": 60, "velocity": 117, "channel": 0}, {"type": "note_on", "time": 8, "note": 61, "velocity": 114, "channel": 0}, {"type": "note_off", "time": 148, "note": 61, "velocity": 114, "channel": 0}, {"type": "note_on", "time": 21, "note": 60, "velocity": 105, "channel": 0}, {"type": "note_off", "time": 112, "note": 60, "velocity": 105, "channel": 0}, {"type": "note_on", "time": 57, "note": 63, "velocity": 109, "channel": 0}, {"type": "note_off", "time": 349, "note": 63, "velocity": 109, "channel": 0}, {"type": "note_on", "time": 34, "note": 60, "velocity": 103, "channel": 0}, {"type": "note_off", "time": 43, "note": 60, "velocity": 103, "channel": 0}, {"type": "note_on", "time": 11, "note": 61, "velocity": 100, "channel": 0}, {"type": "note_off", "time": 292, "note": 61, "velocity": 100, "channel": 0}, {"type": "note_on", "time": 23, "note": 60, "velocity": 103, "channel": 0}, {"type": "note_off", "time": 298, "note": 60, "velocity": 103, "channel": 0}, {"type": "note_on", "time": 19, "note": 56, "velocity": 97, "channel": 0}, {"type": "note_off", "time": 139, "note": 56, "velocity": 97, "channel": 0}, {"type": "note_on", "time": 697, "note": 63, "velocity": 116, "channel": 0}, {"type": "note_off", "time": 88, "note": 63, "velocity": 116, "channel": 0}, {"type": "note_on", "time": 27, "note": 63, "velocity": 117, "channel": 0}, {"type": "note_off", "time": 83, "note": 63, "velocity": 117, "channel": 0}, {"type": "note_on", "time": 4, "note": 61, "velocity": 106, "channel": 0}, {"type": "note_off", "time": 101, "note": 61, "velocity": 106, "channel": 0}, {"type": "note_on", "time": 104, "note": 59, "velocity": 113, "channel": 0}, {"type": "note_off", "time": 86, "note": 59, "velocity": 113, "channel": 0}, {"type": "note_on", "time": 11, "note": 60, "velocity": 105, "channel": 0}, {"type": "note_off", "time": 89, "note": 60, "velocity": 105, "channel": 0}, {"type": "note_on", "time": 13, "note": 56, "velocity": 100, "channel": 0}, {"type": "note_off", "time": 84, "note": 56, "velocity": 100, "channel": 0}, {"type": "note_on", "time": 93, "note": 58, "velocity": 101, "channel": 0}, {"type": "note_off", "time": 153, "note": 58, "velocity": 101, "channel": 0}, {"type": "note_on", "time": 26, "note": 56, "velocity": 86, "channel": 0}, {"type": "note_off", "time": 323, "note": 56, "velocity": 86, "channel": 0}, {"type": "note_on", "time": 359, "note": 63, "velocity": 110, "channel": 0}, {"type": "note_off", "time": 72, "note": 63, "velocity": 110, "channel": 0}, {"type": "note_on", "time": 74, "note": 61, "velocity": 107, "channel": 0}, {"type": "note_off", "time": 72, "note": 61, "velocity": 107, "channel": 0}, {"type": "note_on", "time": 9, "note": 60, "velocity": 101, "channel": 0}, {"type": "note_off", "time": 114, "note": 60, "velocity": 101, "channel": 0}, {"type": "note_on", "time": 6, "note": 56, "velocity": 96, "channel": 0}, {"type": "note_off", "time": 84, "note": 56, "velocity": 96, "channel": 0}, {"type": "note_on", "time": 19, "note": 53, "velocity": 104, "channel": 0}, {"type": "note_off", "time": 84, "note": 53, "velocity": 104, "channel": 0}, {"type": "note_on", "time": 109, "note": 56, "velocity": 102, "channel": 0}, {"type": "note_off", "time": 94, "note": 56, "velocity": 102, "channel": 0}, {"type": "note_on", "time": 92, "note": 53, "velocity": 104, "channel": 0}, {"type": "note_off", "time": 92, "note": 53, "velocity": 104, "channel": 0}, {"type": "note_on", "time": 114, "note": 56, "velocity": 102, "channel": 0}, {"type": "note_off", "time": 84, "note": 56, "velocity": 102, "channel": 0}, {"type": "note_on", "time": 67, "note": 59, "velocity": 97, "channel": 0}, {"type": "note_off", "time": 119, "note": 59, "velocity": 97, "channel": 0}, {"type": "note_on", "time": 24, "note": 63, "velocity": 103, "channel": 0}, {"type": "note_off", "time": 63, "note": 63, "velocity": 103, "channel": 0}, {"type": "note_on", "time": 19, "note": 65, "velocity": 108, "channel": 0}, {"type": "note_off", "time": 84, "note": 65, "velocity": 108, "channel": 0}, {"type": "note_on", "time": 19, "note": 64, "velocity": 115, "channel": 0}, {"type": "note_off", "time": 71, "note": 64, "velocity": 115, "channel": 0}, {"type": "note_on", "time": 9, "note": 63, "velocity": 113, "channel": 0}, {"type": "note_off", "time": 81, "note": 63, "velocity": 113, "channel": 0}, {"type": "note_on", "time": 17, "note": 61, "velocity": 114, "channel": 0}, {"type": "note_off", "time": 83, "note": 61, "velocity": 114, "channel": 0}, {"type": "note_on", "time": 22, "note": 60, "velocity": 107, "channel": 0}, {"type": "note_off", "time": 79, "note": 60, "velocity": 107, "channel": 0}, {"type": "note_on", "time": 17, "note": 58, "velocity": 103, "channel": 0}, {"type": "note_off", "time": 92, "note": 58, "velocity": 103, "channel": 0}, {"type": "note_on", "time": 4, "note": 57, "velocity": 86, "channel": 0}, {"type": "note_off", "time": 92, "note": 57, "velocity": 86, "channel": 0}, {"type": "note_on", "time": 19, "note": 58, "velocity": 93, "channel": 0}, {"type": "note_off", "time": 67, "note": 58, "velocity": 93, "channel": 0}, {"type": "note_on", "time": 14, "note": 60, "velocity": 102, "channel": 0}, {"type": "note_off", "time": 97, "note": 60, "velocity": 102, "channel": 0}, {"type": "note_on", "time": 4, "note": 57, "velocity": 88, "channel": 0}, {"type": "note_off", "time": 67, "note": 57, "velocity": 88, "channel": 0}, {"type": "note_on", "time": 14, "note": 58, "velocity": 94, "channel": 0}, {"type": "note_off", "time": 87, "note": 58, "velocity": 94, "channel": 0}, {"type": "note_on", "time": 12, "note": 60, "velocity": 104, "channel": 0}, {"type": "note_off", "time": 72, "note": 60, "velocity": 104, "channel": 0}, {"type": "note_on", "time": 12, "note": 61, "velocity": 100, "channel": 0}, {"type": "note_off", "time": 84, "note": 61, "velocity": 100, "channel": 0}, {"type": "note_on", "time": 14, "note": 58, "velocity": 110, "channel": 0}, {"type": "note_off", "time": 77, "note": 58, "velocity": 110, "channel": 0}, {"type": "note_on", "time": 9, "note": 56, "velocity": 98, "channel": 0}, {"type": "note_off", "time": 74, "note": 56, "velocity": 98, "channel": 0}, {"type": "note_on", "time": 18, "note": 51, "velocity": 88, "channel": 0}, {"type": "note_off", "time": 78, "note": 51, "velocity": 88, "channel": 0}, {"type": "note_on", "time": 8, "note": 53, "velocity": 102, "channel": 0}, {"type": "note_off", "time": 109, "note": 53, "velocity": 102, "channel": 0}, {"type": "note_on", "time": 13, "note": 55, "velocity": 102, "channel": 0}, {"type": "note_off", "time": 77, "note": 55, "velocity": 102, "channel": 0}, {"type": "note_on", "time": 9, "note": 56, "velocity": 105, "channel": 0}, {"type": "note_off", "time": 97, "note": 56, "velocity": 105, "channel": 0}, {"type": "note_on", "time": 7, "note": 58, "velocity": 106, "channel": 0}, {"type": "note_off", "time": 72, "note": 58, "velocity": 106, "channel": 0}, {"type": "note_on", "time": 24, "note": 59, "velocity": 105, "channel": 0}, {"type": "note_off", "time": 99, "note": 59, "velocity": 105, "channel": 0}, {"type": "note_on", "time": 11, "note": 60, "velocity": 103, "channel": 0}, {"type": "note_off", "time": 73, "note": 60, "velocity": 103, "channel": 0}, {"type": "note_on", "time": 14, "note": 61, "velocity": 95, "channel": 0}, {"type": "note_off", "time": 72, "note": 61, "velocity": 95, "channel": 0}, {"type": "note_on", "time": 17, "note": 62, "velocity": 91, "channel": 0}, {"type": "note_off", "time": 59, "note": 62, "velocity": 91, "channel": 0}, {"type": "note_on", "time": 29, "note": 63, "velocity": 109, "channel": 0}, {"type": "note_off", "time": 91, "note": 63, "velocity": 109, "channel": 0}, {"type": "note_on", "time": 61, "note": 59, "velocity": 92, "channel": 0}, {"type": "note_off", "time": 49, "note": 59, "velocity": 92, "channel": 0}, {"type": "note_on", "time": 7, "note": 61, "velocity": 101, "channel": 0}, {"type": "note_off", "time": 64, "note": 61, "velocity": 101, "channel": 0}, {"type": "note_on", "time": 14, "note": 58, "velocity": 92, "channel": 0}, {"type": "note_off", "time": 84, "note": 58, "velocity": 92, "channel": 0}, {"type": "note_on", "time": 12, "note": 60, "velocity": 103, "channel": 0}, {"type": "note_off", "time": 87, "note": 60, "velocity": 103, "channel": 0}, {"type": "note_on", "time": 7, "note": 58, "velocity": 109, "channel": 0}, {"type": "note_off", "time": 96, "note": 58, "velocity": 109, "channel": 0}, {"type": "note_on", "time": 13, "note": 56, "velocity": 101, "channel": 0}, {"type": "note_off", "time": 99, "note": 56, "velocity": 101, "channel": 0}, {"type": "note_on", "time": 22, "note": 54, "velocity": 105, "channel": 0}, {"type": "note_off", "time": 69, "note": 54, "velocity": 105, "channel": 0}, {"type": "note_on", "time": 3, "note": 51, "velocity": 102, "channel": 0}, {"type": "note_off", "time": 86, "note": 51, "velocity": 102, "channel": 0}, {"type": "note_on", "time": 28, "note": 48, "velocity": 105, "channel": 0}, {"type": "note_off", "time": 63, "note": 48, "velocity": 105, "channel": 0}, {"type": "note_on", "time": 189, "note": 46, "velocity": 107, "channel": 0}, {"type": "note_off", "time": 327, "note": 46, "velocity": 107, "channel": 0}, {"type": "note_on", "time": 18, "note": 49, "velocity": 99, "channel": 0}, {"type": "note_off", "time": 263, "note": 49, "velocity": 99, "channel": 0}, {"type": "note_on", "time": 39, "note": 50, "velocity": 104, "channel": 0}, {"type": "note_off", "time": 87, "note": 50, "velocity": 104, "channel": 0}, {"type": "note_on", "time": 22, "note": 53, "velocity": 98, "channel": 0}, {"type": "note_off", "time": 177, "note": 53, "velocity": 98, "channel": 0}, {"type": "note_on", "time": 22, "note": 56, "velocity": 104, "channel": 0}, {"type": "note_off", "time": 87, "note": 56, "velocity": 104, "channel": 0}, {"type": "note_on", "time": 97, "note": 58, "velocity": 110, "channel": 0}, {"type": "note_off", "time": 89, "note": 58, "velocity": 110, "channel": 0}, {"type": "note_on", "time": 94, "note": 56, "velocity": 108, "channel": 0}, {"type": "note_off", "time": 79, "note": 56, "velocity": 108, "channel": 0}, {"type": "note_on", "time": 117, "note": 58, "velocity": 111, "channel": 0}, {"type": "note_off", "time": 82, "note": 58, "velocity": 111, "channel": 0}, {"type": "note_on", "time": 12, "note": 60, "velocity": 103, "channel": 0}, {"type": "note_off", "time": 192, "note": 60, "velocity": 103, "channel": 0}, {"type": "note_on", "time": 6, "note": 65, "velocity": 115, "channel": 0}, {"type": "note_off", "time": 262, "note": 65, "velocity": 115, "channel": 0}, {"type": "note_on", "time": 775, "note": 68, "velocity": 106, "channel": 0}, {"type": "note_off", "time": 79, "note": 68, "velocity": 106, "channel": 0}, {"type": "note_on", "time": 27, "note": 68, "velocity": 111, "channel": 0}, {"type": "note_off", "time": 89, "note": 68, "velocity": 111, "channel": 0}, {"type": "note_on", "time": 8, "note": 67, "velocity": 112, "channel": 0}, {"type": "note_off", "time": 83, "note": 67, "velocity": 112, "channel": 0}, {"type": "note_on", "time": 12, "note": 67, "velocity": 112, "channel": 0}, {"type": "note_off", "time": 64, "note": 67, "velocity": 112, "channel": 0}, {"type": "note_on", "time": 9, "note": 65, "velocity": 109, "channel": 0}, {"type": "note_off", "time": 82, "note": 65, "velocity": 109, "channel": 0}, {"type": "note_on", "time": 27, "note": 65, "velocity": 106, "channel": 0}, {"type": "note_off", "time": 74, "note": 65, "velocity": 106, "channel": 0}, {"type": "note_on", "time": 4, "note": 63, "velocity": 110, "channel": 0}, {"type": "note_off", "time": 177, "note": 63, "velocity": 110, "channel": 0}, {"type": "note_on", "time": 25, "note": 57, "velocity": 99, "channel": 0}, {"type": "note_off", "time": 100, "note": 57, "velocity": 99, "channel": 0}, {"type": "note_on", "time": 818, "note": 56, "velocity": 106, "channel": 0}, {"type": "note_off", "time": 99, "note": 56, "velocity": 106, "channel": 0}, {"type": "note_on", "time": 31, "note": 60, "velocity": 106, "channel": 0}, {"type": "note_off", "time": 58, "note": 60, "velocity": 106, "channel": 0}, {"type": "note_on", "time": 19, "note": 64, "velocity": 117, "channel": 0}, {"type": "note_off", "time": 102, "note": 64, "velocity": 117, "channel": 0}, {"type": "note_on", "time": 82, "note": 66, "velocity": 111, "channel": 0}, {"type": "note_off", "time": 99, "note": 66, "velocity": 111, "channel": 0}, {"type": "note_on", "time": 14, "note": 64, "velocity": 104, "channel": 0}, {"type": "note_off", "time": 73, "note": 64, "velocity": 104, "channel": 0}, {"type": "note_on", "time": 27, "note": 66, "velocity": 107, "channel": 0}, {"type": "note_off", "time": 94, "note": 66, "velocity": 107, "channel": 0}, {"type": "note_on", "time": 13, "note": 64, "velocity": 111, "channel": 0}, {"type": "note_off", "time": 104, "note": 64, "velocity": 111, "channel": 0}, {"type": "note_on", "time": 17, "note": 63, "velocity": 105, "channel": 0}, {"type": "note_off", "time": 77, "note": 63, "velocity": 105, "channel": 0}, {"type": "note_on", "time": 12, "note": 62, "velocity": 97, "channel": 0}, {"type": "note_off", "time": 64, "note": 62, "velocity": 97, "channel": 0}, {"type": "note_on", "time": 14, "note": 63, "velocity": 111, "channel": 0}, {"type": "note_off", "time": 89, "note": 63, "velocity": 111, "channel": 0}, {"type": "note_on", "time": 4, "note": 61, "velocity": 99, "channel": 0}, {"type": "note_off", "time": 77, "note": 61, "velocity": 99, "channel": 0}, {"type": "note_on", "time": 19, "note": 60, "velocity": 98, "channel": 0}, {"type": "note_off", "time": 84, "note": 60, "velocity": 98, "channel": 0}, {"type": "note_on", "time": 3, "note": 58, "velocity": 106, "channel": 0}, {"type": "note_off", "time": 72, "note": 58, "velocity": 106, "channel": 0}, {"type": "note_on", "time": 23, "note": 60, "velocity": 99, "channel": 0}, {"type": "note_off", "time": 97, "note": 60, "velocity": 99, "channel": 0}, {"type": "note_on", "time": 73, "note": 59, "velocity": 99, "channel": 0}, {"type": "note_off", "time": 291, "note": 59, "velocity": 99, "channel": 0}, {"type": "note_on", "time": 8, "note": 60, "velocity": 102, "channel": 0}, {"type": "note_off", "time": 433, "note": 60, "velocity": 102, "channel": 0}, {"type": "note_on", "time": 247, "note": 59, "velocity": 112, "channel": 0}, {"type": "note_off", "time": 97, "note": 59, "velocity": 112, "channel": 0}, {"type": "note_on", "time": 7, "note": 60, "velocity": 96, "channel": 0}, {"type": "note_off", "time": 72, "note": 60, "velocity": 96, "channel": 0}, {"type": "note_on", "time": 22, "note": 65, "velocity": 112, "channel": 0}, {"type": "note_off", "time": 92, "note": 65, "velocity": 112, "channel": 0}, {"type": "note_on", "time": 12, "note": 60, "velocity": 107, "channel": 0}, {"type": "note_off", "time": 87, "note": 60, "velocity": 107, "channel": 0}, {"type": "note_on", "time": 17, "note": 56, "velocity": 97, "channel": 0}, {"type": "note_off", "time": 69, "note": 56, "velocity": 97, "channel": 0}, {"type": "note_on", "time": 7, "note": 53, "velocity": 99, "channel": 0}, {"type": "note_off", "time": 69, "note": 53, "velocity": 99, "channel": 0}, {"type": "note_on", "time": 41, "note": 59, "velocity": 98, "channel": 0}, {"type": "note_off", "time": 304, "note": 59, "velocity": 98, "channel": 0}, {"type": "note_on", "time": 24, "note": 60, "velocity": 109, "channel": 0}, {"type": "note_off", "time": 126, "note": 60, "velocity": 109, "channel": 0}, {"type": "note_on", "time": 57, "note": 64, "velocity": 116, "channel": 0}, {"type": "note_off", "time": 133, "note": 64, "velocity": 116, "channel": 0}, {"type": "note_on", "time": 69, "note": 63, "velocity": 105, "channel": 0}, {"type": "note_off", "time": 321, "note": 63, "velocity": 105, "channel": 0}, {"type": "note_on", "time": 8, "note": 60, "velocity": 106, "channel": 0}, {"type": "note_off", "time": 68, "note": 60, "velocity": 106, "channel": 0}, {"type": "note_on", "time": 12, "note": 57, "velocity": 105, "channel": 0}, {"type": "note_off", "time": 101, "note": 57, "velocity": 105, "channel": 0}, {"type": "note_on", "time": 38, "note": 53, "velocity": 103, "channel": 0}, {"type": "note_off", "time": 89, "note": 53, "velocity": 103, "channel": 0}, {"type": "note_on", "time": 318, "note": 62, "velocity": 110, "channel": 0}, {"type": "note_off", "time": 89, "note": 62, "velocity": 110, "channel": 0}, {"type": "note_on", "time": 21, "note": 60, "velocity": 110, "channel": 0}, {"type": "note_off", "time": 67, "note": 60, "velocity": 110, "channel": 0}, {"type": "note_on", "time": 29, "note": 58, "velocity": 106, "channel": 0}, {"type": "note_off", "time": 62, "note": 58, "velocity": 106, "channel": 0}, {"type": "note_on", "time": 19, "note": 56, "velocity": 104, "channel": 0}, {"type": "note_off", "time": 72, "note": 56, "velocity": 104, "channel": 0}, {"type": "note_on", "time": 19, "note": 53, "velocity": 103, "channel": 0}, {"type": "note_off", "time": 77, "note": 53, "velocity": 103, "channel": 0}, {"type": "note_on", "time": 18, "note": 51, "velocity": 92, "channel": 0}, {"type": "note_off", "time": 67, "note": 51, "velocity": 92, "channel": 0}, {"type": "note_on", "time": 28, "note": 61, "velocity": 104, "channel": 0}, {"type": "note_off", "time": 102, "note": 61, "velocity": 104, "channel": 0}, {"type": "note_on", "time": 32, "note": 60, "velocity": 92, "channel": 0}, {"type": "note_off", "time": 67, "note": 60, "velocity": 92, "channel": 0}, {"type": "note_on", "time": 4, "note": 58, "velocity": 93, "channel": 0}, {"type": "note_off", "time": 92, "note": 58, "velocity": 93, "channel": 0}, {"type": "note_on", "time": 19, "note": 56, "velocity": 106, "channel": 0}, {"type": "note_off", "time": 82, "note": 56, "velocity": 106, "channel": 0}, {"type": "note_on", "time": 14, "note": 55, "velocity": 101, "channel": 0}, {"type": "note_off", "time": 69, "note": 55, "velocity": 101, "channel": 0}, {"type": "note_on", "time": 14, "note": 53, "velocity": 106, "channel": 0}, {"type": "note_off", "time": 87, "note": 53, "velocity": 106, "channel": 0}, {"type": "note_on", "time": 15, "note": 51, "velocity": 104, "channel": 0}, {"type": "note_off", "time": 79, "note": 51, "velocity": 104, "channel": 0}, {"type": "note_on", "time": 11, "note": 49, "velocity": 98, "channel": 0}, {"type": "note_off", "time": 64, "note": 49, "velocity": 98, "channel": 0}, {"type": "note_on", "time": 16, "note": 48, "velocity": 103, "channel": 0}, {"type": "note_off", "time": 126, "note": 48, "velocity": 103, "channel": 0}, {"type": "note_on", "time": 21, "note": 51, "velocity": 97, "channel": 0}, {"type": "note_off", "time": 118, "note": 51, "velocity": 97, "channel": 0}, {"type": "note_on", "time": 102, "note": 56, "velocity": 110, "channel": 0}, {"type": "note_off", "time": 104, "note": 56, "velocity": 110, "channel": 0}, {"type": "note_on", "time": 86, "note": 58, "velocity": 107, "channel": 0}, {"type": "note_off", "time": 93, "note": 58, "velocity": 107, "channel": 0}, {"type": "note_on", "time": 107, "note": 59, "velocity": 104, "channel": 0}, {"type": "note_off", "time": 87, "note": 59, "velocity": 104, "channel": 0}, {"type": "note_on", "time": 9, "note": 60, "velocity": 103, "channel": 0}, {"type": "note_off", "time": 69, "note": 60, "velocity": 103, "channel": 0}, {"type": "note_on", "time": 12, "note": 61, "velocity": 102, "channel": 0}, {"type": "note_off", "time": 92, "note": 61, "velocity": 102, "channel": 0}, {"type": "note_on", "time": 9, "note": 62, "velocity": 98, "channel": 0}, {"type": "note_off", "time": 86, "note": 62, "velocity": 98, "channel": 0}, {"type": "note_on", "time": 14, "note": 63, "velocity": 111, "channel": 0}, {"type": "note_off", "time": 94, "note": 63, "velocity": 111, "channel": 0}, {"type": "note_on", "time": 19, "note": 60, "velocity": 105, "channel": 0}, {"type": "note_off", "time": 64, "note": 60, "velocity": 105, "channel": 0}, {"type": "note_on", "time": 13, "note": 56, "velocity": 100, "channel": 0}, {"type": "note_off", "time": 79, "note": 56, "velocity": 100, "channel": 0}, {"type": "note_on", "time": 12, "note": 52, "velocity": 89, "channel": 0}, {"type": "note_off", "time": 82, "note": 52, "velocity": 89, "channel": 0}, {"type": "note_on", "time": 9, "note": 53, "velocity": 104, "channel": 0}, {"type": "note_off", "time": 284, "note": 53, "velocity": 104, "channel": 0}, {"type": "note_on", "time": 41, "note": 56, "velocity": 104, "channel": 0}, {"type": "note_off", "time": 131, "note": 56, "velocity": 104, "channel": 0}, {"type": "note_on", "time": 477, "note": 58, "velocity": 117, "channel": 0}, {"type": "note_off", "time": 72, "note": 58, "velocity": 117, "channel": 0}, {"type": "note_on", "time": 14, "note": 59, "velocity": 113, "channel": 0}, {"type": "note_off", "time": 113, "note": 59, "velocity": 113, "channel": 0}, {"type": "note_on", "time": 13, "note": 58, "velocity": 110, "channel": 0}, {"type": "note_off", "time": 64, "note": 58, "velocity": 110, "channel": 0}, {"type": "note_on", "time": 19, "note": 58, "velocity": 109, "channel": 0}, {"type": "note_off", "time": 74, "note": 58, "velocity": 109, "channel": 0}, {"type": "note_on", "time": 13, "note": 56, "velocity": 109, "channel": 0}, {"type": "note_off", "time": 57, "note": 56, "velocity": 109, "channel": 0}, {"type": "note_on", "time": 19, "note": 56, "velocity": 98, "channel": 0}, {"type": "note_off", "time": 59, "note": 56, "velocity": 98, "channel": 0}, {"type": "note_on", "time": 47, "note": 58, "velocity": 101, "channel": 0}, {"type": "note_off", "time": 48, "note": 58, "velocity": 101, "channel": 0}, {"type": "note_on", "time": 12, "note": 59, "velocity": 107, "channel": 0}, {"type": "note_off", "time": 68, "note": 59, "velocity": 107, "channel": 0}, {"type": "note_on", "time": 18, "note": 59, "velocity": 108, "channel": 0}, {"type": "note_off", "time": 56, "note": 59, "velocity": 108, "channel": 0}, {"type": "note_on", "time": 19, "note": 58, "velocity": 103, "channel": 0}, {"type": "note_off", "time": 82, "note": 58, "velocity": 103, "channel": 0}, {"type": "note_on", "time": 22, "note": 58, "velocity": 104, "channel": 0}, {"type": "note_off", "time": 74, "note": 58, "velocity": 104, "channel": 0}, {"type": "note_on", "time": 24, "note": 56, "velocity": 96, "channel": 0}, {"type": "note_off", "time": 116, "note": 56, "velocity": 96, "channel": 0}, {"type": "note_on", "time": 57, "note": 62, "velocity": 109, "channel": 0}, {"type": "note_off", "time": 76, "note": 62, "velocity": 109, "channel": 0}, {"type": "note_on", "time": 19, "note": 62, "velocity": 107, "channel": 0}, {"type": "note_off", "time": 79, "note": 62, "velocity": 107, "channel": 0}, {"type": "note_on", "time": 9, "note": 61, "velocity": 103, "channel": 0}, {"type": "note_off", "time": 62, "note": 61, "velocity": 103, "channel": 0}, {"type": "note_on", "time": 29, "note": 61, "velocity": 106, "channel": 0}, {"type": "note_off", "time": 64, "note": 61, "velocity": 106, "channel": 0}, {"type": "note_on", "time": 14, "note": 59, "velocity": 108, "channel": 0}, {"type": "note_off", "time": 74, "note": 59, "velocity": 108, "channel": 0}, {"type": "note_on", "time": 17, "note": 59, "velocity": 105, "channel": 0}, {"type": "note_off", "time": 77, "note": 59, "velocity": 105, "channel": 0}, {"type": "note_on", "time": 36, "note": 58, "velocity": 106, "channel": 0}, {"type": "note_off", "time": 83, "note": 58, "velocity": 106, "channel": 0}, {"type": "note_on", "time": 22, "note": 58, "velocity": 107, "channel": 0}, {"type": "note_off", "time": 72, "note": 58, "velocity": 107, "channel": 0}, {"type": "note_on", "time": 21, "note": 56, "velocity": 107, "channel": 0}, {"type": "note_off", "time": 78, "note": 56, "velocity": 107, "channel": 0}, {"type": "note_on", "time": 19, "note": 56, "velocity": 110, "channel": 0}, {"type": "note_off", "time": 67, "note": 56, "velocity": 110, "channel": 0}, {"type": "note_on", "time": 22, "note": 54, "velocity": 98, "channel": 0}, {"type": "note_off", "time": 62, "note": 54, "velocity": 98, "channel": 0}, {"type": "note_on", "time": 132, "note": 56, "velocity": 106, "channel": 0}, {"type": "note_off", "time": 94, "note": 56, "velocity": 106, "channel": 0}, {"type": "note_on", "time": 83, "note": 54, "velocity": 99, "channel": 0}, {"type": "note_off", "time": 98, "note": 54, "velocity": 99, "channel": 0}, {"type": "note_on", "time": 74, "note": 56, "velocity": 93, "channel": 0}, {"type": "note_off", "time": 303, "note": 56, "velocity": 93, "channel": 0}, {"type": "note_on", "time": 198, "note": 59, "velocity": 115, "channel": 0}, {"type": "note_off", "time": 99, "note": 59, "velocity": 115, "channel": 0}, {"type": "note_on", "time": 14, "note": 60, "velocity": 102, "channel": 0}, {"type": "note_off", "time": 137, "note": 60, "velocity": 102, "channel": 0}, {"type": "note_on", "time": 29, "note": 65, "velocity": 112, "channel": 0}, {"type": "note_off", "time": 89, "note": 65, "velocity": 112, "channel": 0}, {"type": "note_on", "time": 107, "note": 63, "velocity": 98, "channel": 0}, {"type": "note_off", "time": 287, "note": 63, "velocity": 98, "channel": 0}, {"type": "note_on", "time": 17, "note": 55, "velocity": 101, "channel": 0}, {"type": "note_off", "time": 114, "note": 55, "velocity": 101, "channel": 0}, {"type": "note_on", "time": 17, "note": 56, "velocity": 98, "channel": 0}, {"type": "note_off", "time": 104, "note": 56, "velocity": 98, "channel": 0}, {"type": "note_on", "time": 18, "note": 61, "velocity": 99, "channel": 0}, {"type": "note_off", "time": 102, "note": 61, "velocity": 99, "channel": 0}, {"type": "note_on", "time": 23, "note": 60, "velocity": 104, "channel": 0}, {"type": "note_off", "time": 98, "note": 60, "velocity": 104, "channel": 0}, {"type": "note_on", "time": 277, "note": 58, "velocity": 9, "channel": 0}, {"type": "note_off", "time": 84, "note": 58, "velocity": 9, "channel": 0}, {"type": "note_on", "time": 33, "note": 60, "velocity": 102, "channel": 0}, {"type": "note_off", "time": 144, "note": 60, "velocity": 102, "channel": 0}, {"type": "note_on", "time": 19, "note": 65, "velocity": 115, "channel": 0}, {"type": "note_off", "time": 89, "note": 65, "velocity": 115, "channel": 0}, {"type": "note_on", "time": 89, "note": 63, "velocity": 116, "channel": 0}, {"type": "note_off", "time": 102, "note": 63, "velocity": 116, "channel": 0}, {"type": "note_on", "time": 96, "note": 59, "velocity": 109, "channel": 0}, {"type": "note_off", "time": 101, "note": 59, "velocity": 109, "channel": 0}, {"type": "note_on", "time": 89, "note": 63, "velocity": 118, "channel": 0}, {"type": "note_off", "time": 77, "note": 63, "velocity": 118, "channel": 0}, {"type": "note_on", "time": 7, "note": 59, "velocity": 105, "channel": 0}, {"type": "note_off", "time": 74, "note": 59, "velocity": 105, "channel": 0}, {"type": "note_on", "time": 14, "note": 56, "velocity": 111, "channel": 0}, {"type": "note_off", "time": 92, "note": 56, "velocity": 111, "channel": 0}, {"type": "note_on", "time": 14, "note": 53, "velocity": 108, "channel": 0}, {"type": "note_off", "time": 244, "note": 53, "velocity": 108, "channel": 0}, {"type": "note_on", "time": 407, "note": 59, "velocity": 113, "channel": 0}, {"type": "note_off", "time": 87, "note": 59, "velocity": 113, "channel": 0}, {"type": "note_on", "time": 7, "note": 60, "velocity": 92, "channel": 0}, {"type": "note_off", "time": 87, "note": 60, "velocity": 92, "channel": 0}, {"type": "note_on", "time": 8, "note": 65, "velocity": 114, "channel": 0}, {"type": "note_off", "time": 123, "note": 65, "velocity": 114, "channel": 0}, {"type": "note_on", "time": 8, "note": 64, "velocity": 111, "channel": 0}, {"type": "note_off", "time": 61, "note": 64, "velocity": 111, "channel": 0}, {"type": "note_on", "time": 4, "note": 65, "velocity": 113, "channel": 0}, {"type": "note_off", "time": 103, "note": 65, "velocity": 113, "channel": 0}, {"type": "note_on", "time": 18, "note": 64, "velocity": 122, "channel": 0}, {"type": "note_off", "time": 66, "note": 64, "velocity": 122, "channel": 0}, {"type": "note_on", "time": 24, "note": 63, "velocity": 115, "channel": 0}, {"type": "note_off", "time": 89, "note": 63, "velocity": 115, "channel": 0}, {"type": "note_on", "time": 23, "note": 55, "velocity": 104, "channel": 0}, {"type": "note_off", "time": 69, "note": 55, "velocity": 104, "channel": 0}, {"type": "note_on", "time": 22, "note": 56, "velocity": 92, "channel": 0}, {"type": "note_off", "time": 139, "note": 56, "velocity": 92, "channel": 0}, {"type": "note_on", "time": 9, "note": 61, "velocity": 104, "channel": 0}, {"type": "note_off", "time": 109, "note": 61, "velocity": 104, "channel": 0}, {"type": "note_on", "time": 7, "note": 60, "velocity": 95, "channel": 0}, {"type": "note_off", "time": 97, "note": 60, "velocity": 95, "channel": 0}, {"type": "note_on", "time": 9, "note": 58, "velocity": 110, "channel": 0}, {"type": "note_off", "time": 81, "note": 58, "velocity": 110, "channel": 0}, {"type": "note_on", "time": 28, "note": 56, "velocity": 108, "channel": 0}, {"type": "note_off", "time": 73, "note": 56, "velocity": 108, "channel": 0}, {"type": "note_on", "time": 8, "note": 57, "velocity": 108, "channel": 0}, {"type": "note_off", "time": 97, "note": 57, "velocity": 108, "channel": 0}, {"type": "note_on", "time": 12, "note": 54, "velocity": 113, "channel": 0}, {"type": "note_off", "time": 70, "note": 54, "velocity": 113, "channel": 0}, {"type": "note_on", "time": 14, "note": 53, "velocity": 110, "channel": 0}, {"type": "note_off", "time": 79, "note": 53, "velocity": 110, "channel": 0}, {"type": "note_on", "time": 15, "note": 51, "velocity": 111, "channel": 0}, {"type": "note_off", "time": 73, "note": 51, "velocity": 111, "channel": 0}, {"type": "note_on", "time": 14, "note": 49, "velocity": 107, "channel": 0}, {"type": "note_off", "time": 82, "note": 49, "velocity": 107, "channel": 0}, {"type": "note_on", "time": 21, "note": 41, "velocity": 107, "channel": 0}, {"type": "note_off", "time": 87, "note": 41, "velocity": 107, "channel": 0}, {"type": "note_on", "time": 10, "note": 44, "velocity": 102, "channel": 0}, {"type": "note_off", "time": 79, "note": 44, "velocity": 102, "channel": 0}, {"type": "note_on", "time": 80, "note": 59, "velocity": 103, "channel": 0}, {"type": "note_off", "time": 154, "note": 59, "velocity": 103, "channel": 0}, {"type": "note_on", "time": 11, "note": 60, "velocity": 104, "channel": 0}, {"type": "note_off", "time": 74, "note": 60, "velocity": 104, "channel": 0}, {"type": "note_on", "time": 10, "note": 61, "velocity": 96, "channel": 0}, {"type": "note_off", "time": 73, "note": 61, "velocity": 96, "channel": 0}, {"type": "note_on", "time": 14, "note": 62, "velocity": 93, "channel": 0}, {"type": "note_off", "time": 49, "note": 62, "velocity": 93, "channel": 0}, {"type": "note_on", "time": 10, "note": 63, "velocity": 112, "channel": 0}, {"type": "note_off", "time": 101, "note": 63, "velocity": 112, "channel": 0}, {"type": "note_on", "time": 29, "note": 56, "velocity": 96, "channel": 0}, {"type": "note_off", "time": 49, "note": 56, "velocity": 96, "channel": 0}, {"type": "note_on", "time": 25, "note": 61, "velocity": 101, "channel": 0}, {"type": "note_off", "time": 69, "note": 61, "velocity": 101, "channel": 0}, {"type": "note_on", "time": 50, "note": 58, "velocity": 97, "channel": 0}, {"type": "note_off", "time": 59, "note": 58, "velocity": 97, "channel": 0}, {"type": "note_on", "time": 20, "note": 60, "velocity": 108, "channel": 0}, {"type": "note_off", "time": 79, "note": 60, "velocity": 108, "channel": 0}, {"type": "note_on", "time": 34, "note": 56, "velocity": 101, "channel": 0}, {"type": "note_off", "time": 57, "note": 56, "velocity": 101, "channel": 0}, {"type": "note_on", "time": 18, "note": 58, "velocity": 111, "channel": 0}, {"type": "note_off", "time": 94, "note": 58, "velocity": 111, "channel": 0}, {"type": "note_on", "time": 47, "note": 55, "velocity": 98, "channel": 0}, {"type": "note_off", "time": 79, "note": 55, "velocity": 98, "channel": 0}, {"type": "note_on", "time": 14, "note": 56, "velocity": 101, "channel": 0}, {"type": "note_off", "time": 423, "note": 56, "velocity": 101, "channel": 0}, {"type": "note_on", "time": 28, "note": 60, "velocity": 105, "channel": 0}, {"type": "note_off", "time": 27, "note": 60, "velocity": 105, "channel": 0}, {"type": "note_on", "time": 7, "note": 61, "velocity": 102, "channel": 0}, {"type": "note_off", "time": 14, "note": 61, "velocity": 102, "channel": 0}, {"type": "note_on", "time": 4, "note": 63, "velocity": 104, "channel": 0}, {"type": "note_off", "time": 23, "note": 63, "velocity": 104, "channel": 0}, {"type": "note_on", "time": 13, "note": 65, "velocity": 110, "channel": 0}, {"type": "note_off", "time": 108, "note": 65, "velocity": 110, "channel": 0}, {"type": "note_on", "time": 21, "note": 63, "velocity": 104, "channel": 0}, {"type": "note_off", "time": 53, "note": 63, "velocity": 104, "channel": 0}, {"type": "note_on", "time": 37, "note": 66, "velocity": 117, "channel": 0}, {"type": "note_off", "time": 131, "note": 66, "velocity": 117, "channel": 0}, {"type": "note_on", "time": 14, "note": 65, "velocity": 114, "channel": 0}, {"type": "note_off", "time": 108, "note": 65, "velocity": 114, "channel": 0}, {"type": "note_on", "time": 28, "note": 63, "velocity": 112, "channel": 0}, {"type": "note_off", "time": 87, "note": 63, "velocity": 112, "channel": 0}, {"type": "note_on", "time": 104, "note": 56, "velocity": 111, "channel": 0}, {"type": "note_off", "time": 52, "note": 56, "velocity": 111, "channel": 0}, {"type": "note_on", "time": 16, "note": 58, "velocity": 108, "channel": 0}, {"type": "note_off", "time": 103, "note": 58, "velocity": 108, "channel": 0}, {"type": "note_on", "time": 16, "note": 56, "velocity": 94, "channel": 0}, {"type": "note_off", "time": 63, "note": 56, "velocity": 94, "channel": 0}, {"type": "note_on", "time": 0, "note": 59, "velocity": 106, "channel": 0}, {"type": "note_off", "time": 182, "note": 59, "velocity": 106, "channel": 0}, {"type": "note_on", "time": 9, "note": 58, "velocity": 106, "channel": 0}, {"type": "note_off", "time": 94, "note": 58, "velocity": 106, "channel": 0}, {"type": "note_on", "time": 2, "note": 56, "velocity": 113, "channel": 0}, {"type": "note_off", "time": 94, "note": 56, "velocity": 113, "channel": 0}, {"type": "note_on", "time": 104, "note": 49, "velocity": 94, "channel": 0}, {"type": "note_off", "time": 281, "note": 49, "velocity": 94, "channel": 0}, {"type": "note_on", "time": 548, "note": 50, "velocity": 114, "channel": 0}, {"type": "note_off", "time": 82, "note": 50, "velocity": 114, "channel": 0}, {"type": "note_on", "time": 17, "note": 53, "velocity": 105, "channel": 0}, {"type": "note_off", "time": 67, "note": 53, "velocity": 105, "channel": 0}, {"type": "note_on", "time": 0, "note": 56, "velocity": 107, "channel": 0}, {"type": "note_off", "time": 112, "note": 56, "velocity": 107, "channel": 0}, {"type": "note_on", "time": 14, "note": 59, "velocity": 116, "channel": 0}, {"type": "note_off", "time": 102, "note": 59, "velocity": 116, "channel": 0}, {"type": "note_on", "time": 4, "note": 58, "velocity": 111, "channel": 0}, {"type": "note_off", "time": 86, "note": 58, "velocity": 111, "channel": 0}, {"type": "note_on", "time": 21, "note": 56, "velocity": 100, "channel": 0}, {"type": "note_off", "time": 62, "note": 56, "velocity": 100, "channel": 0}, {"type": "note_on", "time": 9, "note": 57, "velocity": 113, "channel": 0}, {"type": "note_off", "time": 92, "note": 57, "velocity": 113, "channel": 0}, {"type": "note_on", "time": 7, "note": 54, "velocity": 104, "channel": 0}, {"type": "note_off", "time": 82, "note": 54, "velocity": 104, "channel": 0}, {"type": "note_on", "time": 12, "note": 53, "velocity": 107, "channel": 0}, {"type": "note_off", "time": 97, "note": 53, "velocity": 107, "channel": 0}, {"type": "note_on", "time": 17, "note": 51, "velocity": 104, "channel": 0}, {"type": "note_off", "time": 64, "note": 51, "velocity": 104, "channel": 0}, {"type": "note_on", "time": 27, "note": 49, "velocity": 103, "channel": 0}, {"type": "note_off", "time": 79, "note": 49, "velocity": 103, "channel": 0}, {"type": "note_on", "time": 36, "note": 53, "velocity": 109, "channel": 0}, {"type": "note_off", "time": 82, "note": 53, "velocity": 109, "channel": 0}, {"type": "note_on", "time": 11, "note": 56, "velocity": 101, "channel": 0}, {"type": "note_off", "time": 81, "note": 56, "velocity": 101, "channel": 0}, {"type": "note_on", "time": 23, "note": 59, "velocity": 106, "channel": 0}, {"type": "note_off", "time": 78, "note": 59, "velocity": 106, "channel": 0}, {"type": "note_on", "time": 14, "note": 60, "velocity": 99, "channel": 0}, {"type": "note_off", "time": 73, "note": 60, "velocity": 99, "channel": 0}, {"type": "note_on", "time": 22, "note": 63, "velocity": 106, "channel": 0}, {"type": "note_off", "time": 47, "note": 63, "velocity": 106, "channel": 0}, {"type": "note_on", "time": 24, "note": 65, "velocity": 109, "channel": 0}, {"type": "note_off", "time": 87, "note": 65, "velocity": 109, "channel": 0}, {"type": "note_on", "time": 48, "note": 68, "velocity": 115, "channel": 0}, {"type": "note_off", "time": 131, "note": 68, "velocity": 115, "channel": 0}, {"type": "note_on", "time": 19, "note": 65, "velocity": 105, "channel": 0}, {"type": "note_off", "time": 67, "note": 65, "velocity": 105, "channel": 0}, {"type": "note_on", "time": 23, "note": 68, "velocity": 109, "channel": 0}, {"type": "note_off", "time": 378, "note": 68, "velocity": 109, "channel": 0}, {"type": "note_on", "time": 394, "note": 68, "velocity": 111, "channel": 0}, {"type": "note_off", "time": 747, "note": 68, "velocity": 111, "channel": 0}, {"type": "note_on", "time": 21, "note": 64, "velocity": 112, "channel": 0}, {"type": "note_off", "time": 103, "note": 64, "velocity": 112, "channel": 0}, {"type": "note_on", "time": 117, "note": 60, "velocity": 110, "channel": 0}, {"type": "note_off", "time": 87, "note": 60, "velocity": 110, "channel": 0}, {"type": "note_on", "time": 119, "note": 56, "velocity": 90, "channel": 0}, {"type": "note_off", "time": 413, "note": 56, "velocity": 90, "channel": 0}, {"type": "note_on", "time": 9, "note": 67, "velocity": 100, "channel": 0}, {"type": "note_off", "time": 31, "note": 67, "velocity": 100, "channel": 0}, {"type": "note_on", "time": 8, "note": 68, "velocity": 116, "channel": 0}, {"type": "note_off", "time": 254, "note": 68, "velocity": 116, "channel": 0}, {"type": "note_on", "time": 6, "note": 65, "velocity": 116, "channel": 0}, {"type": "note_off", "time": 82, "note": 65, "velocity": 116, "channel": 0}, {"type": "note_on", "time": 7, "note": 62, "velocity": 106, "channel": 0}, {"type": "note_off", "time": 87, "note": 62, "velocity": 106, "channel": 0}, {"type": "note_on", "time": 22, "note": 60, "velocity": 113, "channel": 0}, {"type": "note_off", "time": 99, "note": 60, "velocity": 113, "channel": 0}, {"type": "note_on", "time": 46, "note": 56, "velocity": 90, "channel": 0}, {"type": "note_off", "time": 568, "note": 56, "velocity": 90, "channel": 0}, {"type": "note_on", "time": 12, "note": 68, "velocity": 99, "channel": 0}, {"type": "note_off", "time": 192, "note": 68, "velocity": 99, "channel": 0}, {"type": "note_on", "time": 24, "note": 65, "velocity": 110, "channel": 0}, {"type": "note_off", "time": 107, "note": 65, "velocity": 110, "channel": 0}, {"type": "note_on", "time": 87, "note": 60, "velocity": 112, "channel": 0}, {"type": "note_off", "time": 82, "note": 60, "velocity": 112, "channel": 0}, {"type": "note_on", "time": 114, "note": 56, "velocity": 109, "channel": 0}, {"type": "note_off", "time": 77, "note": 56, "velocity": 109, "channel": 0}, {"type": "note_on", "time": 106, "note": 60, "velocity": 111, "channel": 0}, {"type": "note_off", "time": 74, "note": 60, "velocity": 111, "channel": 0}, {"type": "note_on", "time": 19, "note": 64, "velocity": 119, "channel": 0}, {"type": "note_off", "time": 76, "note": 64, "velocity": 119, "channel": 0}, {"type": "note_on", "time": 26, "note": 68, "velocity": 111, "channel": 0}, {"type": "note_off", "time": 127, "note": 68, "velocity": 111, "channel": 0}, {"type": "note_on", "time": 44, "note": 64, "velocity": 117, "channel": 0}, {"type": "note_off", "time": 93, "note": 64, "velocity": 117, "channel": 0}, {"type": "note_on", "time": 32, "note": 60, "velocity": 106, "channel": 0}, {"type": "note_off", "time": 71, "note": 60, "velocity": 106, "channel": 0}, {"type": "note_on", "time": 31, "note": 56, "velocity": 102, "channel": 0}, {"type": "note_off", "time": 102, "note": 56, "velocity": 102, "channel": 0}, {"type": "note_on", "time": 227, "note": 56, "velocity": 104, "channel": 0}, {"type": "note_off", "time": 47, "note": 56, "velocity": 104, "channel": 0}, {"type": "note_on", "time": 8, "note": 58, "velocity": 109, "channel": 0}, {"type": "note_off", "time": 39, "note": 58, "velocity": 109, "channel": 0}, {"type": "note_on", "time": 11, "note": 60, "velocity": 105, "channel": 0}, {"type": "note_off", "time": 41, "note": 60, "velocity": 105, "channel": 0}, {"type": "note_on", "time": 22, "note": 63, "velocity": 115, "channel": 0}, {"type": "note_off", "time": 38, "note": 63, "velocity": 115, "channel": 0}, {"type": "note_on", "time": 26, "note": 68, "velocity": 112, "channel": 0}, {"type": "note_off", "time": 108, "note": 68, "velocity": 112, "channel": 0}, {"type": "note_on", "time": 84, "note": 65, "velocity": 113, "channel": 0}, {"type": "note_off", "time": 102, "note": 65, "velocity": 113, "channel": 0}, {"type": "note_on", "time": 74, "note": 56, "velocity": 100, "channel": 0}, {"type": "note_off", "time": 197, "note": 56, "velocity": 100, "channel": 0}, {"type": "note_on", "time": 103, "note": 65, "velocity": 109, "channel": 0}, {"type": "note_off", "time": 98, "note": 65, "velocity": 109, "channel": 0}, {"type": "note_on", "time": 8, "note": 62, "velocity": 104, "channel": 0}, {"type": "note_off", "time": 62, "note": 62, "velocity": 104, "channel": 0}, {"type": "note_on", "time": 39, "note": 58, "velocity": 105, "channel": 0}, {"type": "note_off", "time": 87, "note": 58, "velocity": 105, "channel": 0}, {"type": "note_on", "time": 359, "note": 61, "velocity": 112, "channel": 0}, {"type": "note_off", "time": 87, "note": 61, "velocity": 112, "channel": 0}, {"type": "note_on", "time": 11, "note": 60, "velocity": 103, "channel": 0}, {"type": "note_off", "time": 74, "note": 60, "velocity": 103, "channel": 0}, {"type": "note_on", "time": 14, "note": 58, "velocity": 114, "channel": 0}, {"type": "note_off", "time": 89, "note": 58, "velocity": 114, "channel": 0}, {"type": "note_on", "time": 7, "note": 56, "velocity": 109, "channel": 0}, {"type": "note_off", "time": 74, "note": 56, "velocity": 109, "channel": 0}, {"type": "note_on", "time": 14, "note": 55, "velocity": 101, "channel": 0}, {"type": "note_off", "time": 97, "note": 55, "velocity": 101, "channel": 0}, {"type": "note_on", "time": 9, "note": 56, "velocity": 100, "channel": 0}, {"type": "note_off", "time": 72, "note": 56, "velocity": 100, "channel": 0}, {"type": "note_on", "time": 17, "note": 58, "velocity": 112, "channel": 0}, {"type": "note_off", "time": 114, "note": 58, "velocity": 112, "channel": 0}, {"type": "note_on", "time": 12, "note": 55, "velocity": 103, "channel": 0}, {"type": "note_off", "time": 44, "note": 55, "velocity": 103, "channel": 0}, {"type": "note_on", "time": 22, "note": 56, "velocity": 109, "channel": 0}, {"type": "note_off", "time": 49, "note": 56, "velocity": 109, "channel": 0}, {"type": "note_on", "time": 4, "note": 60, "velocity": 103, "channel": 0}, {"type": "note_off", "time": 38, "note": 60, "velocity": 103, "channel": 0}, {"type": "note_on", "time": 22, "note": 63, "velocity": 116, "channel": 0}, {"type": "note_off", "time": 66, "note": 63, "velocity": 116, "channel": 0}, {"type": "note_on", "time": 18, "note": 67, "velocity": 115, "channel": 0}, {"type": "note_off", "time": 97, "note": 67, "velocity": 115, "channel": 0}, {"type": "note_on", "time": 12, "note": 68, "velocity": 113, "channel": 0}, {"type": "note_off", "time": 151, "note": 68, "velocity": 113, "channel": 0}, {"type": "note_on", "time": 322, "note": 62, "velocity": 107, "channel": 0}, {"type": "note_off", "time": 79, "note": 62, "velocity": 107, "channel": 0}, {"type": "note_on", "time": 14, "note": 63, "velocity": 111, "channel": 0}, {"type": "note_off", "time": 89, "note": 63, "velocity": 111, "channel": 0}, {"type": "note_on", "time": 89, "note": 59, "velocity": 110, "channel": 0}, {"type": "note_off", "time": 88, "note": 59, "velocity": 110, "channel": 0}, {"type": "note_on", "time": 9, "note": 60, "velocity": 107, "channel": 0}, {"type": "note_off", "time": 103, "note": 60, "velocity": 107, "channel": 0}, {"type": "note_on", "time": 117, "note": 56, "velocity": 108, "channel": 0}, {"type": "note_off", "time": 82, "note": 56, "velocity": 108, "channel": 0}, {"type": "note_on", "time": 114, "note": 56, "velocity": 110, "channel": 0}, {"type": "note_off", "time": 77, "note": 56, "velocity": 110, "channel": 0}, {"type": "note_on", "time": 92, "note": 56, "velocity": 114, "channel": 0}, {"type": "note_off", "time": 109, "note": 56, "velocity": 114, "channel": 0}, {"type": "note_on", "time": 9, "note": 58, "velocity": 102, "channel": 0}, {"type": "note_off", "time": 78, "note": 58, "velocity": 102, "channel": 0}, {"type": "note_on", "time": 12, "note": 59, "velocity": 112, "channel": 0}, {"type": "note_off", "time": 66, "note": 59, "velocity": 112, "channel": 0}, {"type": "note_on", "time": 48, "note": 53, "velocity": 103, "channel": 0}, {"type": "note_off", "time": 101, "note": 53, "velocity": 103, "channel": 0}, {"type": "note_on", "time": 495, "note": 54, "velocity": 108, "channel": 0}, {"type": "note_off", "time": 59, "note": 54, "velocity": 108, "channel": 0}, {"type": "note_on", "time": 16, "note": 56, "velocity": 113, "channel": 0}, {"type": "note_off", "time": 54, "note": 56, "velocity": 113, "channel": 0}, {"type": "note_on", "time": 21, "note": 59, "velocity": 112, "channel": 0}, {"type": "note_off", "time": 53, "note": 59, "velocity": 112, "channel": 0}, {"type": "note_on", "time": 14, "note": 63, "velocity": 116, "channel": 0}, {"type": "note_off", "time": 118, "note": 63, "velocity": 116, "channel": 0}, {"type": "note_on", "time": 3, "note": 61, "velocity": 106, "channel": 0}, {"type": "note_off", "time": 74, "note": 61, "velocity": 106, "channel": 0}, {"type": "note_on", "time": 22, "note": 60, "velocity": 107, "channel": 0}, {"type": "note_off", "time": 84, "note": 60, "velocity": 107, "channel": 0}, {"type": "note_on", "time": 2, "note": 58, "velocity": 111, "channel": 0}, {"type": "note_off", "time": 72, "note": 58, "velocity": 111, "channel": 0}, {"type": "note_on", "time": 26, "note": 57, "velocity": 102, "channel": 0}, {"type": "note_off", "time": 98, "note": 57, "velocity": 102, "channel": 0}, {"type": "note_on", "time": 9, "note": 58, "velocity": 100, "channel": 0}, {"type": "note_off", "time": 54, "note": 58, "velocity": 100, "channel": 0}, {"type": "note_on", "time": 16, "note": 60, "velocity": 109, "channel": 0}, {"type": "note_off", "time": 98, "note": 60, "velocity": 109, "channel": 0}, {"type": "note_on", "time": 18, "note": 57, "velocity": 100, "channel": 0}, {"type": "note_off", "time": 66, "note": 57, "velocity": 100, "channel": 0}, {"type": "note_on", "time": 8, "note": 58, "velocity": 103, "channel": 0}, {"type": "note_off", "time": 97, "note": 58, "velocity": 103, "channel": 0}, {"type": "note_on", "time": 7, "note": 60, "velocity": 109, "channel": 0}, {"type": "note_off", "time": 66, "note": 60, "velocity": 109, "channel": 0}, {"type": "note_on", "time": 17, "note": 61, "velocity": 101, "channel": 0}, {"type": "note_off", "time": 87, "note": 61, "velocity": 101, "channel": 0}, {"type": "note_on", "time": 14, "note": 64, "velocity": 102, "channel": 0}, {"type": "note_off", "time": 72, "note": 64, "velocity": 102, "channel": 0}, {"type": "note_on", "time": 11, "note": 65, "velocity": 109, "channel": 0}, {"type": "note_off", "time": 102, "note": 65, "velocity": 109, "channel": 0}, {"type": "note_on", "time": 16, "note": 63, "velocity": 101, "channel": 0}, {"type": "note_off", "time": 49, "note": 63, "velocity": 101, "channel": 0}, {"type": "note_on", "time": 12, "note": 68, "velocity": 112, "channel": 0}, {"type": "note_off", "time": 89, "note": 68, "velocity": 112, "channel": 0}, {"type": "note_on", "time": 119, "note": 63, "velocity": 99, "channel": 0}, {"type": "note_off", "time": 274, "note": 63, "velocity": 99, "channel": 0}, {"type": "note_on", "time": 27, "note": 63, "velocity": 115, "channel": 0}, {"type": "note_off", "time": 112, "note": 63, "velocity": 115, "channel": 0}, {"type": "note_on", "time": 642, "note": 64, "velocity": 115, "channel": 0}, {"type": "note_off", "time": 87, "note": 64, "velocity": 115, "channel": 0}, {"type": "note_on", "time": 4, "note": 65, "velocity": 114, "channel": 0}, {"type": "note_off", "time": 93, "note": 65, "velocity": 114, "channel": 0}, {"type": "note_on", "time": 43, "note": 65, "velocity": 109, "channel": 0}, {"type": "note_off", "time": 164, "note": 65, "velocity": 109, "channel": 0}, {"type": "note_on", "time": 67, "note": 65, "velocity": 110, "channel": 0}, {"type": "note_off", "time": 124, "note": 65, "velocity": 110, "channel": 0}, {"type": "note_on", "time": 259, "note": 65, "velocity": 108, "channel": 0}, {"type": "note_off", "time": 139, "note": 65, "velocity": 108, "channel": 0}, {"type": "note_on", "time": 163, "note": 65, "velocity": 108, "channel": 0}, {"type": "note_off", "time": 46, "note": 65, "velocity": 108, "channel": 0}, {"type": "note_on", "time": 4, "note": 66, "velocity": 113, "channel": 0}, {"type": "note_off", "time": 119, "note": 66, "velocity": 113, "channel": 0}, {"type": "note_on", "time": 21, "note": 66, "velocity": 112, "channel": 0}, {"type": "note_off", "time": 67, "note": 66, "velocity": 112, "channel": 0}, {"type": "note_on", "time": 19, "note": 65, "velocity": 110, "channel": 0}, {"type": "note_off", "time": 98, "note": 65, "velocity": 110, "channel": 0}, {"type": "note_on", "time": 77, "note": 62, "velocity": 104, "channel": 0}, {"type": "note_off", "time": 24, "note": 62, "velocity": 104, "channel": 0}, {"type": "note_on", "time": 8, "note": 63, "velocity": 113, "channel": 0}, {"type": "note_off", "time": 72, "note": 63, "velocity": 113, "channel": 0}, {"type": "note_on", "time": 93, "note": 56, "velocity": 104, "channel": 0}, {"type": "note_off", "time": 108, "note": 56, "velocity": 104, "channel": 0}, {"type": "note_on", "time": 91, "note": 58, "velocity": 109, "channel": 0}, {"type": "note_off", "time": 57, "note": 58, "velocity": 109, "channel": 0}, {"type": "note_on", "time": 9, "note": 59, "velocity": 107, "channel": 0}, {"type": "note_off", "time": 99, "note": 59, "velocity": 107, "channel": 0}, {"type": "note_on", "time": 24, "note": 58, "velocity": 108, "channel": 0}, {"type": "note_off", "time": 74, "note": 58, "velocity": 108, "channel": 0}, {"type": "note_on", "time": 133, "note": 56, "velocity": 92, "channel": 0}, {"type": "note_off", "time": 312, "note": 56, "velocity": 92, "channel": 0}, {"type": "note_on", "time": 355, "note": 64, "velocity": 114, "channel": 0}, {"type": "note_off", "time": 60, "note": 64, "velocity": 114, "channel": 0}, {"type": "note_on", "time": 7, "note": 65, "velocity": 109, "channel": 0}, {"type": "note_off", "time": 102, "note": 65, "velocity": 109, "channel": 0}, {"type": "note_on", "time": 15, "note": 65, "velocity": 108, "channel": 0}, {"type": "note_off", "time": 154, "note": 65, "velocity": 108, "channel": 0}, {"type": "note_on", "time": 135, "note": 65, "velocity": 111, "channel": 0}, {"type": "note_off", "time": 97, "note": 65, "velocity": 111, "channel": 0}, {"type": "note_on", "time": 89, "note": 65, "velocity": 112, "channel": 0}, {"type": "note_off", "time": 99, "note": 65, "velocity": 112, "channel": 0}, {"type": "note_on", "time": 89, "note": 65, "velocity": 107, "channel": 0}, {"type": "note_off", "time": 102, "note": 65, "velocity": 107, "channel": 0}, {"type": "note_on", "time": 82, "note": 65, "velocity": 113, "channel": 0}, {"type": "note_off", "time": 107, "note": 65, "velocity": 113, "channel": 0}, {"type": "note_on", "time": 91, "note": 68, "velocity": 107, "channel": 0}, {"type": "note_off", "time": 259, "note": 68, "velocity": 107, "channel": 0}, {"type": "note_on", "time": 55, "note": 65, "velocity": 108, "channel": 0}, {"type": "note_off", "time": 99, "note": 65, "velocity": 108, "channel": 0}, {"type": "note_on", "time": 22, "note": 63, "velocity": 106, "channel": 0}, {"type": "note_off", "time": 74, "note": 63, "velocity": 106, "channel": 0}, {"type": "note_on", "time": 27, "note": 59, "velocity": 103, "channel": 0}, {"type": "note_off", "time": 59, "note": 59, "velocity": 103, "channel": 0}, {"type": "note_on", "time": 17, "note": 56, "velocity": 105, "channel": 0}, {"type": "note_off", "time": 67, "note": 56, "velocity": 105, "channel": 0}, {"type": "note_on", "time": 127, "note": 59, "velocity": 103, "channel": 0}, {"type": "note_off", "time": 209, "note": 59, "velocity": 103, "channel": 0}, {"type": "note_on", "time": 36, "note": 58, "velocity": 105, "channel": 0}, {"type": "note_off", "time": 246, "note": 58, "velocity": 105, "channel": 0}, {"type": "note_on", "time": 683, "note": 65, "velocity": 111, "channel": 0}, {"type": "note_off", "time": 202, "note": 65, "velocity": 111, "channel": 0}, {"type": "note_on", "time": 5, "note": 63, "velocity": 105, "channel": 0}, {"type": "note_off", "time": 79, "note": 63, "velocity": 105, "channel": 0}, {"type": "note_on", "time": 45, "note": 65, "velocity": 118, "channel": 0}, {"type": "note_off", "time": 68, "note": 65, "velocity": 118, "channel": 0}, {"type": "note_on", "time": 10, "note": 66, "velocity": 113, "channel": 0}, {"type": "note_off", "time": 56, "note": 66, "velocity": 113, "channel": 0}, {"type": "note_on", "time": 15, "note": 65, "velocity": 106, "channel": 0}, {"type": "note_off", "time": 94, "note": 65, "velocity": 106, "channel": 0}, {"type": "note_on", "time": 8, "note": 63, "velocity": 113, "channel": 0}, {"type": "note_off", "time": 68, "note": 63, "velocity": 113, "channel": 0}, {"type": "note_on", "time": 101, "note": 56, "velocity": 103, "channel": 0}, {"type": "note_off", "time": 81, "note": 56, "velocity": 103, "channel": 0}, {"type": "note_on", "time": 10, "note": 58, "velocity": 105, "channel": 0}, {"type": "note_off", "time": 93, "note": 58, "velocity": 105, "channel": 0}, {"type": "note_on", "time": 14, "note": 56, "velocity": 95, "channel": 0}, {"type": "note_off", "time": 54, "note": 56, "velocity": 95, "channel": 0}, {"type": "note_on", "time": 26, "note": 58, "velocity": 112, "channel": 0}, {"type": "note_off", "time": 109, "note": 58, "velocity": 112, "channel": 0}, {"type": "note_on", "time": 14, "note": 59, "velocity": 111, "channel": 0}, {"type": "note_off", "time": 54, "note": 59, "velocity": 111, "channel": 0}, {"type": "note_on", "time": 1, "note": 58, "velocity": 107, "channel": 0}, {"type": "note_off", "time": 94, "note": 58, "velocity": 107, "channel": 0}, {"type": "note_on", "time": 16, "note": 56, "velocity": 110, "channel": 0}, {"type": "note_off", "time": 138, "note": 56, "velocity": 110, "channel": 0}, {"type": "note_on", "time": 48, "note": 51, "velocity": 107, "channel": 0}, {"type": "note_off", "time": 50, "note": 51, "velocity": 107, "channel": 0}, {"type": "note_on", "time": 17, "note": 53, "velocity": 112, "channel": 0}, {"type": "note_off", "time": 154, "note": 53, "velocity": 112, "channel": 0}, {"type": "note_on", "time": 7, "note": 51, "velocity": 103, "channel": 0}, {"type": "note_off", "time": 42, "note": 51, "velocity": 103, "channel": 0}, {"type": "note_on", "time": 7, "note": 54, "velocity": 108, "channel": 0}, {"type": "note_off", "time": 187, "note": 54, "velocity": 108, "channel": 0}, {"type": "note_on", "time": 49, "note": 53, "velocity": 106, "channel": 0}, {"type": "note_off", "time": 108, "note": 53, "velocity": 106, "channel": 0}, {"type": "note_on", "time": 61, "note": 51, "velocity": 108, "channel": 0}, {"type": "note_off", "time": 108, "note": 51, "velocity": 108, "channel": 0}, {"type": "note_on", "time": 92, "note": 53, "velocity": 111, "channel": 0}, {"type": "note_off", "time": 105, "note": 53, "velocity": 111, "channel": 0}, {"type": "note_on", "time": 88, "note": 56, "velocity": 109, "channel": 0}, {"type": "note_off", "time": 104, "note": 56, "velocity": 109, "channel": 0}, {"type": "note_on", "time": 89, "note": 58, "velocity": 116, "channel": 0}, {"type": "note_off", "time": 108, "note": 58, "velocity": 116, "channel": 0}, {"type": "note_on", "time": 77, "note": 59, "velocity": 115, "channel": 0}, {"type": "note_off", "time": 82, "note": 59, "velocity": 115, "channel": 0}, {"type": "note_on", "time": 15, "note": 58, "velocity": 114, "channel": 0}, {"type": "note_off", "time": 76, "note": 58, "velocity": 114, "channel": 0}, {"type": "note_on", "time": 12, "note": 56, "velocity": 105, "channel": 0}, {"type": "note_off", "time": 141, "note": 56, "velocity": 105, "channel": 0}, {"type": "note_on", "time": 67, "note": 54, "velocity": 109, "channel": 0}, {"type": "note_off", "time": 50, "note": 54, "velocity": 109, "channel": 0}, {"type": "note_on", "time": 12, "note": 55, "velocity": 102, "channel": 0}, {"type": "note_off", "time": 47, "note": 55, "velocity": 102, "channel": 0}, {"type": "note_on", "time": 21, "note": 56, "velocity": 103, "channel": 0}, {"type": "note_off", "time": 119, "note": 56, "velocity": 103, "channel": 0}, {"type": "note_on", "time": 48, "note": 56, "velocity": 96, "channel": 0}, {"type": "note_off", "time": 59, "note": 56, "velocity": 96, "channel": 0}, {"type": "note_on", "time": 4, "note": 58, "velocity": 113, "channel": 0}, {"type": "note_off", "time": 94, "note": 58, "velocity": 113, "channel": 0}, {"type": "note_on", "time": 24, "note": 56, "velocity": 103, "channel": 0}, {"type": "note_off", "time": 64, "note": 56, "velocity": 103, "channel": 0}, {"type": "note_on", "time": 9, "note": 57, "velocity": 113, "channel": 0}, {"type": "note_off", "time": 103, "note": 57, "velocity": 113, "channel": 0}, {"type": "note_on", "time": 7, "note": 58, "velocity": 111, "channel": 0}, {"type": "note_off", "time": 42, "note": 58, "velocity": 111, "channel": 0}, {"type": "note_on", "time": 16, "note": 60, "velocity": 113, "channel": 0}, {"type": "note_off", "time": 139, "note": 60, "velocity": 113, "channel": 0}, {"type": "note_on", "time": 14, "note": 57, "velocity": 108, "channel": 0}, {"type": "note_off", "time": 47, "note": 57, "velocity": 108, "channel": 0}, {"type": "note_on", "time": 6, "note": 58, "velocity": 112, "channel": 0}, {"type": "note_off", "time": 90, "note": 58, "velocity": 112, "channel": 0}, {"type": "note_on", "time": 18, "note": 58, "velocity": 112, "channel": 0}, {"type": "note_off", "time": 65, "note": 58, "velocity": 112, "channel": 0}, {"type": "note_on", "time": 13, "note": 61, "velocity": 104, "channel": 0}, {"type": "note_off", "time": 115, "note": 61, "velocity": 104, "channel": 0}, {"type": "note_on", "time": 23, "note": 63, "velocity": 110, "channel": 0}, {"type": "note_off", "time": 61, "note": 63, "velocity": 110, "channel": 0}, {"type": "note_on", "time": 3, "note": 65, "velocity": 118, "channel": 0}, {"type": "note_off", "time": 47, "note": 65, "velocity": 118, "channel": 0}, {"type": "note_on", "time": 64, "note": 67, "velocity": 96, "channel": 0}, {"type": "note_off", "time": 38, "note": 67, "velocity": 96, "channel": 0}, {"type": "note_on", "time": 0, "note": 68, "velocity": 120, "channel": 0}, {"type": "note_off", "time": 245, "note": 68, "velocity": 120, "channel": 0}, {"type": "note_on", "time": 10, "note": 67, "velocity": 102, "channel": 0}, {"type": "note_off", "time": 85, "note": 67, "velocity": 102, "channel": 0}, {"type": "note_on", "time": 20, "note": 68, "velocity": 111, "channel": 0}, {"type": "note_off", "time": 417, "note": 68, "velocity": 111, "channel": 0}, {"type": "note_on", "time": 405, "note": 67, "velocity": 117, "channel": 0}, {"type": "note_off", "time": 80, "note": 67, "velocity": 117, "channel": 0}, {"type": "note_on", "time": 108, "note": 65, "velocity": 116, "channel": 0}, {"type": "note_off", "time": 91, "note": 65, "velocity": 116, "channel": 0}, {"type": "note_on", "time": 108, "note": 63, "velocity": 120, "channel": 0}, {"type": "note_off", "time": 112, "note": 63, "velocity": 120, "channel": 0}, {"type": "note_on", "time": 10, "note": 64, "velocity": 113, "channel": 0}, {"type": "note_off", "time": 71, "note": 64, "velocity": 113, "channel": 0}, {"type": "note_on", "time": 9, "note": 67, "velocity": 106, "channel": 0}, {"type": "note_off", "time": 79, "note": 67, "velocity": 106, "channel": 0}, {"type": "note_on", "time": 22, "note": 60, "velocity": 95, "channel": 0}, {"type": "note_off", "time": 220, "note": 60, "velocity": 95, "channel": 0}, {"type": "note_on", "time": 221, "note": 60, "velocity": 106, "channel": 0}, {"type": "note_off", "time": 91, "note": 60, "velocity": 106, "channel": 0}, {"type": "note_on", "time": 8, "note": 64, "velocity": 111, "channel": 0}, {"type": "note_off", "time": 68, "note": 64, "velocity": 111, "channel": 0}, {"type": "note_on", "time": 8, "note": 63, "velocity": 110, "channel": 0}, {"type": "note_off", "time": 90, "note": 63, "velocity": 110, "channel": 0}, {"type": "note_on", "time": 24, "note": 60, "velocity": 103, "channel": 0}, {"type": "note_off", "time": 78, "note": 60, "velocity": 103, "channel": 0}, {"type": "note_on", "time": 24, "note": 53, "velocity": 103, "channel": 0}, {"type": "note_off", "time": 122, "note": 53, "velocity": 103, "channel": 0}, {"type": "note_on", "time": 4, "note": 55, "velocity": 102, "channel": 0}, {"type": "note_off", "time": 64, "note": 55, "velocity": 102, "channel": 0}, {"type": "note_on", "time": 8, "note": 56, "velocity": 100, "channel": 0}, {"type": "note_off", "time": 73, "note": 56, "velocity": 100, "channel": 0}, {"type": "note_on", "time": 40, "note": 58, "velocity": 94, "channel": 0}, {"type": "note_off", "time": 68, "note": 58, "velocity": 94, "channel": 0}, {"type": "note_on", "time": 14, "note": 60, "velocity": 104, "channel": 0}, {"type": "note_off", "time": 76, "note": 60, "velocity": 104, "channel": 0}, {"type": "note_on", "time": 19, "note": 58, "velocity": 102, "channel": 0}, {"type": "note_off", "time": 66, "note": 58, "velocity": 102, "channel": 0}, {"type": "note_on", "time": 19, "note": 60, "velocity": 107, "channel": 0}, {"type": "note_off", "time": 96, "note": 60, "velocity": 107, "channel": 0}, {"type": "note_on", "time": 9, "note": 58, "velocity": 108, "channel": 0}, {"type": "note_off", "time": 89, "note": 58, "velocity": 108, "channel": 0}, {"type": "note_on", "time": 7, "note": 56, "velocity": 105, "channel": 0}, {"type": "note_off", "time": 77, "note": 56, "velocity": 105, "channel": 0}, {"type": "note_on", "time": 8, "note": 55, "velocity": 102, "channel": 0}, {"type": "note_off", "time": 93, "note": 55, "velocity": 102, "channel": 0}, {"type": "note_on", "time": 16, "note": 53, "velocity": 106, "channel": 0}, {"type": "note_off", "time": 98, "note": 53, "velocity": 106, "channel": 0}, {"type": "note_on", "time": 79, "note": 55, "velocity": 102, "channel": 0}, {"type": "note_off", "time": 127, "note": 55, "velocity": 102, "channel": 0}, {"type": "note_on", "time": 38, "note": 52, "velocity": 99, "channel": 0}, {"type": "note_off", "time": 36, "note": 52, "velocity": 99, "channel": 0}, {"type": "note_on", "time": 1, "note": 53, "velocity": 111, "channel": 0}, {"type": "note_off", "time": 98, "note": 53, "velocity": 111, "channel": 0}, {"type": "note_on", "time": 12, "note": 55, "velocity": 108, "channel": 0}, {"type": "note_off", "time": 70, "note": 55, "velocity": 108, "channel": 0}, {"type": "note_on", "time": 7, "note": 56, "velocity": 106, "channel": 0}, {"type": "note_off", "time": 86, "note": 56, "velocity": 106, "channel": 0}, {"type": "note_on", "time": 27, "note": 58, "velocity": 110, "channel": 0}, {"type": "note_off", "time": 80, "note": 58, "velocity": 110, "channel": 0}, {"type": "note_on", "time": 9, "note": 58, "velocity": 98, "channel": 0}, {"type": "note_off", "time": 79, "note": 58, "velocity": 98, "channel": 0}, {"type": "note_on", "time": 15, "note": 59, "velocity": 94, "channel": 0}, {"type": "note_off", "time": 68, "note": 59, "velocity": 94, "channel": 0}, {"type": "note_on", "time": 15, "note": 60, "velocity": 109, "channel": 0}, {"type": "note_off", "time": 71, "note": 60, "velocity": 109, "channel": 0}, {"type": "note_on", "time": 7, "note": 61, "velocity": 90, "channel": 0}, {"type": "note_off", "time": 76, "note": 61, "velocity": 90, "channel": 0}, {"type": "note_on", "time": 51, "note": 60, "velocity": 106, "channel": 0}, {"type": "note_off", "time": 91, "note": 60, "velocity": 106, "channel": 0}, {"type": "note_on", "time": 8, "note": 59, "velocity": 110, "channel": 0}, {"type": "note_off", "time": 87, "note": 59, "velocity": 110, "channel": 0}, {"type": "note_on", "time": 8, "note": 58, "velocity": 107, "channel": 0}, {"type": "note_off", "time": 96, "note": 58, "velocity": 107, "channel": 0}, {"type": "note_on", "time": 7, "note": 56, "velocity": 112, "channel": 0}, {"type": "note_off", "time": 75, "note": 56, "velocity": 112, "channel": 0}, {"type": "note_on", "time": 15, "note": 52, "velocity": 106, "channel": 0}, {"type": "note_off", "time": 77, "note": 52, "velocity": 106, "channel": 0}, {"type": "note_on", "time": 287, "note": 55, "velocity": 108, "channel": 0}, {"type": "note_off", "time": 97, "note": 55, "velocity": 108, "channel": 0}, {"type": "note_on", "time": 36, "note": 52, "velocity": 99, "channel": 0}, {"type": "note_off", "time": 61, "note": 52, "velocity": 99, "channel": 0}, {"type": "note_on", "time": 5, "note": 53, "velocity": 114, "channel": 0}, {"type": "note_off", "time": 110, "note": 53, "velocity": 114, "channel": 0}, {"type": "note_on", "time": 10, "note": 55, "velocity": 107, "channel": 0}, {"type": "note_off", "time": 68, "note": 55, "velocity": 107, "channel": 0}, {"type": "note_on", "time": 8, "note": 57, "velocity": 114, "channel": 0}, {"type": "note_off", "time": 87, "note": 57, "velocity": 114, "channel": 0}, {"type": "note_on", "time": 314, "note": 55, "velocity": 108, "channel": 0}, {"type": "note_off", "time": 68, "note": 55, "velocity": 108, "channel": 0}, {"type": "note_on", "time": 8, "note": 56, "velocity": 113, "channel": 0}, {"type": "note_off", "time": 77, "note": 56, "velocity": 113, "channel": 0}, {"type": "note_on", "time": 14, "note": 58, "velocity": 112, "channel": 0}, {"type": "note_off", "time": 82, "note": 58, "velocity": 112, "channel": 0}, {"type": "note_on", "time": 12, "note": 59, "velocity": 113, "channel": 0}, {"type": "note_off", "time": 79, "note": 59, "velocity": 113, "channel": 0}, {"type": "note_on", "time": 7, "note": 60, "velocity": 108, "channel": 0}, {"type": "note_off", "time": 90, "note": 60, "velocity": 108, "channel": 0}, {"type": "note_on", "time": 5, "note": 59, "velocity": 115, "channel": 0}, {"type": "note_off", "time": 84, "note": 59, "velocity": 115, "channel": 0}, {"type": "note_on", "time": 8, "note": 58, "velocity": 114, "channel": 0}, {"type": "note_off", "time": 94, "note": 58, "velocity": 114, "channel": 0}, {"type": "note_on", "time": 5, "note": 57, "velocity": 109, "channel": 0}, {"type": "note_off", "time": 73, "note": 57, "velocity": 109, "channel": 0}, {"type": "note_on", "time": 12, "note": 56, "velocity": 111, "channel": 0}, {"type": "note_off", "time": 87, "note": 56, "velocity": 111, "channel": 0}, {"type": "note_on", "time": 25, "note": 53, "velocity": 112, "channel": 0}, {"type": "note_off", "time": 93, "note": 53, "velocity": 112, "channel": 0}, {"type": "note_on", "time": 17, "note": 49, "velocity": 105, "channel": 0}, {"type": "note_off", "time": 119, "note": 49, "velocity": 105, "channel": 0}, {"type": "note_on", "time": 19, "note": 46, "velocity": 110, "channel": 0}, {"type": "note_off", "time": 82, "note": 46, "velocity": 110, "channel": 0}, {"type": "note_on", "time": 10, "note": 47, "velocity": 105, "channel": 0}, {"type": "note_off", "time": 277, "note": 47, "velocity": 105, "channel": 0}, {"type": "note_on", "time": 17, "note": 48, "velocity": 106, "channel": 0}, {"type": "note_off", "time": 103, "note": 48, "velocity": 106, "channel": 0}, {"type": "note_on", "time": 114, "note": 47, "velocity": 106, "channel": 0}, {"type": "note_off", "time": 202, "note": 47, "velocity": 106, "channel": 0}, {"type": "note_on", "time": 15, "note": 48, "velocity": 112, "channel": 0}, {"type": "note_off", "time": 98, "note": 48, "velocity": 112, "channel": 0}, {"type": "note_on", "time": 94, "note": 53, "velocity": 115, "channel": 0}, {"type": "note_off", "time": 89, "note": 53, "velocity": 115, "channel": 0}, {"type": "note_on", "time": 12, "note": 50, "velocity": 107, "channel": 0}, {"type": "note_off", "time": 64, "note": 50, "velocity": 107, "channel": 0}, {"type": "note_on", "time": 24, "note": 51, "velocity": 111, "channel": 0}, {"type": "note_off", "time": 79, "note": 51, "velocity": 111, "channel": 0}, {"type": "note_on", "time": 10, "note": 53, "velocity": 114, "channel": 0}, {"type": "note_off", "time": 86, "note": 53, "velocity": 114, "channel": 0}, {"type": "note_on", "time": 19, "note": 54, "velocity": 108, "channel": 0}, {"type": "note_off", "time": 73, "note": 54, "velocity": 108, "channel": 0}, {"type": "note_on", "time": 21, "note": 56, "velocity": 103, "channel": 0}, {"type": "note_off", "time": 81, "note": 56, "velocity": 103, "channel": 0}, {"type": "note_on", "time": 14, "note": 60, "velocity": 110, "channel": 0}, {"type": "note_off", "time": 337, "note": 60, "velocity": 110, "channel": 0}, {"type": "note_on", "time": 52, "note": 56, "velocity": 109, "channel": 0}, {"type": "note_off", "time": 93, "note": 56, "velocity": 109, "channel": 0}, {"type": "note_on", "time": 96, "note": 58, "velocity": 104, "channel": 0}, {"type": "note_off", "time": 168, "note": 58, "velocity": 104, "channel": 0}, {"type": "note_on", "time": 13, "note": 56, "velocity": 106, "channel": 0}, {"type": "note_off", "time": 102, "note": 56, "velocity": 106, "channel": 0}, {"type": "note_on", "time": 28, "note": 53, "velocity": 100, "channel": 0}, {"type": "note_off", "time": 351, "note": 53, "velocity": 100, "channel": 0}, {"type": "note_on", "time": 384, "note": 58, "velocity": 113, "channel": 0}, {"type": "note_off", "time": 87, "note": 58, "velocity": 113, "channel": 0}, {"type": "note_on", "time": 21, "note": 60, "velocity": 109, "channel": 0}, {"type": "note_off", "time": 340, "note": 60, "velocity": 109, "channel": 0}, {"type": "note_on", "time": 593, "note": 60, "velocity": 110, "channel": 0}, {"type": "note_off", "time": 77, "note": 60, "velocity": 110, "channel": 0}, {"type": "note_on", "time": 17, "note": 61, "velocity": 107, "channel": 0}, {"type": "note_off", "time": 68, "note": 61, "velocity": 107, "channel": 0}, {"type": "note_on", "time": 12, "note": 62, "velocity": 110, "channel": 0}, {"type": "note_off", "time": 122, "note": 62, "velocity": 110, "channel": 0}, {"type": "note_on", "time": 14, "note": 63, "velocity": 115, "channel": 0}, {"type": "note_off", "time": 84, "note": 63, "velocity": 115, "channel": 0}, {"type": "note_on", "time": 94, "note": 68, "velocity": 96, "channel": 0}, {"type": "note_off", "time": 82, "note": 68, "velocity": 96, "channel": 0}, {"type": "note_on", "time": 117, "note": 68, "velocity": 95, "channel": 0}, {"type": "note_off", "time": 94, "note": 68, "velocity": 95, "channel": 0}, {"type": "note_on", "time": 661, "note": 60, "velocity": 112, "channel": 0}, {"type": "note_off", "time": 79, "note": 60, "velocity": 112, "channel": 0}, {"type": "note_on", "time": 63, "note": 61, "velocity": 111, "channel": 0}, {"type": "note_off", "time": 94, "note": 61, "velocity": 111, "channel": 0}, {"type": "note_on", "time": 11, "note": 62, "velocity": 107, "channel": 0}, {"type": "note_off", "time": 114, "note": 62, "velocity": 107, "channel": 0}, {"type": "note_on", "time": 61, "note": 63, "velocity": 113, "channel": 0}, {"type": "note_off", "time": 106, "note": 63, "velocity": 113, "channel": 0}, {"type": "note_on", "time": 93, "note": 56, "velocity": 99, "channel": 0}, {"type": "note_off", "time": 249, "note": 56, "velocity": 99, "channel": 0}, {"type": "note_on", "time": 62, "note": 60, "velocity": 112, "channel": 0}, {"type": "note_off", "time": 83, "note": 60, "velocity": 112, "channel": 0}, {"type": "note_on", "time": 13, "note": 61, "velocity": 108, "channel": 0}, {"type": "note_off", "time": 116, "note": 61, "velocity": 108, "channel": 0}, {"type": "note_on", "time": 33, "note": 62, "velocity": 111, "channel": 0}, {"type": "note_off", "time": 92, "note": 62, "velocity": 111, "channel": 0}, {"type": "note_on", "time": 57, "note": 63, "velocity": 107, "channel": 0}, {"type": "note_off", "time": 76, "note": 63, "velocity": 107, "channel": 0}, {"type": "note_on", "time": 106, "note": 68, "velocity": 114, "channel": 0}, {"type": "note_off", "time": 100, "note": 68, "velocity": 114, "channel": 0}, {"type": "note_on", "time": 167, "note": 63, "velocity": 109, "channel": 0}, {"type": "note_off", "time": 99, "note": 63, "velocity": 109, "channel": 0}, {"type": "note_on", "time": 93, "note": 61, "velocity": 101, "channel": 0}, {"type": "note_off", "time": 98, "note": 61, "velocity": 101, "channel": 0}, {"type": "note_on", "time": 100, "note": 59, "velocity": 111, "channel": 0}, {"type": "note_off", "time": 61, "note": 59, "velocity": 111, "channel": 0}, {"type": "note_on", "time": 10, "note": 60, "velocity": 108, "channel": 0}, {"type": "note_off", "time": 63, "note": 60, "velocity": 108, "channel": 0}, {"type": "note_on", "time": 1, "note": 59, "velocity": 111, "channel": 0}, {"type": "note_off", "time": 57, "note": 59, "velocity": 111, "channel": 0}, {"type": "note_on", "time": 8, "note": 56, "velocity": 98, "channel": 0}, {"type": "note_off", "time": 149, "note": 56, "velocity": 98, "channel": 0}, {"type": "note_on", "time": 26, "note": 59, "velocity": 106, "channel": 0}, {"type": "note_off", "time": 140, "note": 59, "velocity": 106, "channel": 0}, {"type": "note_on", "time": 15, "note": 61, "velocity": 107, "channel": 0}, {"type": "note_off", "time": 129, "note": 61, "velocity": 107, "channel": 0}, {"type": "note_on", "time": 19, "note": 63, "velocity": 114, "channel": 0}, {"type": "note_off", "time": 103, "note": 63, "velocity": 114, "channel": 0}, {"type": "note_on", "time": 82, "note": 56, "velocity": 100, "channel": 0}, {"type": "note_off", "time": 104, "note": 56, "velocity": 100, "channel": 0}, {"type": "note_on", "time": 68, "note": 63, "velocity": 112, "channel": 0}, {"type": "note_off", "time": 67, "note": 63, "velocity": 112, "channel": 0}, {"type": "note_on", "time": 29, "note": 61, "velocity": 108, "channel": 0}, {"type": "note_off", "time": 84, "note": 61, "velocity": 108, "channel": 0}, {"type": "note_on", "time": 17, "note": 59, "velocity": 111, "channel": 0}, {"type": "note_off", "time": 72, "note": 59, "velocity": 111, "channel": 0}, {"type": "note_on", "time": 4, "note": 56, "velocity": 107, "channel": 0}, {"type": "note_off", "time": 73, "note": 56, "velocity": 107, "channel": 0}, {"type": "note_on", "time": 15, "note": 53, "velocity": 112, "channel": 0}, {"type": "note_off", "time": 68, "note": 53, "velocity": 112, "channel": 0}, {"type": "note_on", "time": 65, "note": 56, "velocity": 111, "channel": 0}, {"type": "note_off", "time": 93, "note": 56, "velocity": 111, "channel": 0}, {"type": "note_on", "time": 82, "note": 56, "velocity": 113, "channel": 0}, {"type": "note_off", "time": 94, "note": 56, "velocity": 113, "channel": 0}, {"type": "note_on", "time": 98, "note": 56, "velocity": 116, "channel": 0}, {"type": "note_off", "time": 89, "note": 56, "velocity": 116, "channel": 0}, {"type": "note_on", "time": 14, "note": 58, "velocity": 107, "channel": 0}, {"type": "note_off", "time": 64, "note": 58, "velocity": 107, "channel": 0}, {"type": "note_on", "time": 15, "note": 59, "velocity": 36, "channel": 0}, {"type": "note_off", "time": 89, "note": 59, "velocity": 36, "channel": 0}, {"type": "note_on", "time": 26, "note": 60, "velocity": 100, "channel": 0}, {"type": "note_off", "time": 73, "note": 60, "velocity": 100, "channel": 0}, {"type": "note_on", "time": 24, "note": 65, "velocity": 107, "channel": 0}, {"type": "note_off", "time": 97, "note": 65, "velocity": 107, "channel": 0}, {"type": "note_on", "time": 7, "note": 64, "velocity": 121, "channel": 0}, {"type": "note_off", "time": 88, "note": 64, "velocity": 121, "channel": 0}, {"type": "note_on", "time": 12, "note": 63, "velocity": 112, "channel": 0}, {"type": "note_off", "time": 64, "note": 63, "velocity": 112, "channel": 0}, {"type": "note_on", "time": 15, "note": 60, "velocity": 112, "channel": 0}, {"type": "note_off", "time": 82, "note": 60, "velocity": 112, "channel": 0}, {"type": "note_on", "time": 12, "note": 57, "velocity": 109, "channel": 0}, {"type": "note_off", "time": 69, "note": 57, "velocity": 109, "channel": 0}, {"type": "note_on", "time": 21, "note": 54, "velocity": 99, "channel": 0}, {"type": "note_off", "time": 79, "note": 54, "velocity": 99, "channel": 0}, {"type": "note_on", "time": 9, "note": 61, "velocity": 101, "channel": 0}, {"type": "note_off", "time": 88, "note": 61, "velocity": 101, "channel": 0}, {"type": "note_on", "time": 9, "note": 60, "velocity": 105, "channel": 0}, {"type": "note_off", "time": 86, "note": 60, "velocity": 105, "channel": 0}, {"type": "note_on", "time": 19, "note": 58, "velocity": 102, "channel": 0}, {"type": "note_off", "time": 94, "note": 58, "velocity": 102, "channel": 0}, {"type": "note_on", "time": 11, "note": 56, "velocity": 107, "channel": 0}, {"type": "note_off", "time": 81, "note": 56, "velocity": 107, "channel": 0}, {"type": "note_on", "time": 7, "note": 55, "velocity": 100, "channel": 0}, {"type": "note_off", "time": 98, "note": 55, "velocity": 100, "channel": 0}, {"type": "note_on", "time": 8, "note": 53, "velocity": 110, "channel": 0}, {"type": "note_off", "time": 89, "note": 53, "velocity": 110, "channel": 0}, {"type": "note_on", "time": 16, "note": 51, "velocity": 93, "channel": 0}, {"type": "note_off", "time": 121, "note": 51, "velocity": 93, "channel": 0}, {"type": "note_on", "time": 429, "note": 52, "velocity": 108, "channel": 0}, {"type": "note_off", "time": 61, "note": 52, "velocity": 108, "channel": 0}, {"type": "note_on", "time": 6, "note": 50, "velocity": 102, "channel": 0}, {"type": "note_off", "time": 76, "note": 50, "velocity": 102, "channel": 0}, {"type": "note_on", "time": 9, "note": 49, "velocity": 111, "channel": 0}, {"type": "note_off", "time": 79, "note": 49, "velocity": 111, "channel": 0}, {"type": "note_on", "time": 12, "note": 47, "velocity": 105, "channel": 0}, {"type": "note_off", "time": 99, "note": 47, "velocity": 105, "channel": 0}, {"type": "note_on", "time": 8, "note": 48, "velocity": 107, "channel": 0}, {"type": "note_off", "time": 87, "note": 48, "velocity": 107, "channel": 0}, {"type": "note_on", "time": 12, "note": 51, "velocity": 114, "channel": 0}, {"type": "note_off", "time": 78, "note": 51, "velocity": 114, "channel": 0}, {"type": "note_on", "time": 12, "note": 53, "velocity": 104, "channel": 0}, {"type": "note_off", "time": 89, "note": 53, "velocity": 104, "channel": 0}, {"type": "note_on", "time": 19, "note": 56, "velocity": 108, "channel": 0}, {"type": "note_off", "time": 72, "note": 56, "velocity": 108, "channel": 0}, {"type": "note_on", "time": 17, "note": 53, "velocity": 109, "channel": 0}, {"type": "note_off", "time": 72, "note": 53, "velocity": 109, "channel": 0}, {"type": "note_on", "time": 87, "note": 56, "velocity": 101, "channel": 0}, {"type": "note_off", "time": 292, "note": 56, "velocity": 101, "channel": 0}, {"type": "note_on", "time": 23, "note": 59, "velocity": 106, "channel": 0}, {"type": "note_off", "time": 86, "note": 59, "velocity": 106, "channel": 0}, {"type": "note_on", "time": 9, "note": 60, "velocity": 102, "channel": 0}, {"type": "note_off", "time": 89, "note": 60, "velocity": 102, "channel": 0}, {"type": "note_on", "time": 6, "note": 65, "velocity": 107, "channel": 0}, {"type": "note_off", "time": 81, "note": 65, "velocity": 107, "channel": 0}, {"type": "note_on", "time": 22, "note": 60, "velocity": 107, "channel": 0}, {"type": "note_off", "time": 68, "note": 60, "velocity": 107, "channel": 0}, {"type": "note_on", "time": 73, "note": 65, "velocity": 101, "channel": 0}, {"type": "note_off", "time": 298, "note": 65, "velocity": 101, "channel": 0}, {"type": "note_on", "time": 41, "note": 59, "velocity": 100, "channel": 0}, {"type": "note_off", "time": 97, "note": 59, "velocity": 100, "channel": 0}, {"type": "note_on", "time": 79, "note": 59, "velocity": 108, "channel": 0}, {"type": "note_off", "time": 98, "note": 59, "velocity": 108, "channel": 0}, {"type": "note_on", "time": 91, "note": 56, "velocity": 107, "channel": 0}, {"type": "note_off", "time": 44, "note": 56, "velocity": 107, "channel": 0}, {"type": "note_on", "time": 9, "note": 58, "velocity": 104, "channel": 0}, {"type": "note_off", "time": 34, "note": 58, "velocity": 104, "channel": 0}, {"type": "note_on", "time": 8, "note": 60, "velocity": 105, "channel": 0}, {"type": "note_off", "time": 62, "note": 60, "velocity": 105, "channel": 0}, {"type": "note_on", "time": 21, "note": 59, "velocity": 112, "channel": 0}, {"type": "note_off", "time": 69, "note": 59, "velocity": 112, "channel": 0}, {"type": "note_on", "time": 3, "note": 56, "velocity": 107, "channel": 0}, {"type": "note_off", "time": 74, "note": 56, "velocity": 107, "channel": 0}, {"type": "note_on", "time": 122, "note": 58, "velocity": 108, "channel": 0}, {"type": "note_off", "time": 159, "note": 58, "velocity": 108, "channel": 0}, {"type": "note_on", "time": 18, "note": 56, "velocity": 98, "channel": 0}, {"type": "note_off", "time": 76, "note": 56, "velocity": 98, "channel": 0}, {"type": "note_on", "time": 23, "note": 58, "velocity": 113, "channel": 0}, {"type": "note_off", "time": 92, "note": 58, "velocity": 113, "channel": 0}, {"type": "note_on", "time": 97, "note": 56, "velocity": 111, "channel": 0}, {"type": "note_off", "time": 64, "note": 56, "velocity": 111, "channel": 0}, {"type": "note_on", "time": 24, "note": 53, "velocity": 107, "channel": 0}, {"type": "note_off", "time": 124, "note": 53, "velocity": 107, "channel": 0}, {"type": "note_on", "time": 251, "note": 51, "velocity": 108, "channel": 0}, {"type": "note_off", "time": 84, "note": 51, "velocity": 108, "channel": 0}, {"type": "note_on", "time": 12, "note": 53, "velocity": 114, "channel": 0}, {"type": "note_off", "time": 116, "note": 53, "velocity": 114, "channel": 0}, {"type": "note_on", "time": 4, "note": 55, "velocity": 106, "channel": 0}, {"type": "note_off", "time": 67, "note": 55, "velocity": 106, "channel": 0}, {"type": "note_on", "time": 11, "note": 56, "velocity": 112, "channel": 0}, {"type": "note_off", "time": 86, "note": 56, "velocity": 112, "channel": 0}, {"type": "note_on", "time": 11, "note": 57, "velocity": 110, "channel": 0}, {"type": "note_off", "time": 97, "note": 57, "velocity": 110, "channel": 0}, {"type": "note_on", "time": 12, "note": 58, "velocity": 101, "channel": 0}, {"type": "note_off", "time": 88, "note": 58, "velocity": 101, "channel": 0}, {"type": "note_on", "time": 8, "note": 60, "velocity": 112, "channel": 0}, {"type": "note_off", "time": 108, "note": 60, "velocity": 112, "channel": 0}, {"type": "note_on", "time": 6, "note": 57, "velocity": 103, "channel": 0}, {"type": "note_off", "time": 66, "note": 57, "velocity": 103, "channel": 0}, {"type": "note_on", "time": 17, "note": 58, "velocity": 105, "channel": 0}, {"type": "note_off", "time": 82, "note": 58, "velocity": 105, "channel": 0}, {"type": "note_on", "time": 9, "note": 60, "velocity": 114, "channel": 0}, {"type": "note_off", "time": 67, "note": 60, "velocity": 114, "channel": 0}, {"type": "note_on", "time": 14, "note": 61, "velocity": 103, "channel": 0}, {"type": "note_off", "time": 99, "note": 61, "velocity": 103, "channel": 0}, {"type": "note_on", "time": 9, "note": 63, "velocity": 108, "channel": 0}, {"type": "note_off", "time": 57, "note": 63, "velocity": 108, "channel": 0}, {"type": "note_on", "time": 6, "note": 65, "velocity": 110, "channel": 0}, {"type": "note_off", "time": 108, "note": 65, "velocity": 110, "channel": 0}, {"type": "note_on", "time": 6, "note": 67, "velocity": 100, "channel": 0}, {"type": "note_off", "time": 48, "note": 67, "velocity": 100, "channel": 0}, {"type": "note_on", "time": 17, "note": 68, "velocity": 116, "channel": 0}, {"type": "note_off", "time": 96, "note": 68, "velocity": 116, "channel": 0}, {"type": "note_on", "time": 18, "note": 67, "velocity": 106, "channel": 0}, {"type": "note_off", "time": 64, "note": 67, "velocity": 106, "channel": 0}, {"type": "note_on", "time": 9, "note": 68, "velocity": 111, "channel": 0}, {"type": "note_off", "time": 123, "note": 68, "velocity": 111, "channel": 0}, {"type": "note_on", "time": 8, "note": 67, "velocity": 107, "channel": 0}, {"type": "note_off", "time": 48, "note": 67, "velocity": 107, "channel": 0}, {"type": "note_on", "time": 9, "note": 66, "velocity": 111, "channel": 0}, {"type": "note_off", "time": 51, "note": 66, "velocity": 111, "channel": 0}, {"type": "note_on", "time": 4, "note": 65, "velocity": 109, "channel": 0}, {"type": "note_off", "time": 107, "note": 65, "velocity": 109, "channel": 0}, {"type": "note_on", "time": 17, "note": 63, "velocity": 108, "channel": 0}, {"type": "note_off", "time": 88, "note": 63, "velocity": 108, "channel": 0}, {"type": "note_on", "time": 815, "note": 63, "velocity": 106, "channel": 0}, {"type": "note_off", "time": 107, "note": 63, "velocity": 106, "channel": 0}, {"type": "note_on", "time": 12, "note": 64, "velocity": 113, "channel": 0}, {"type": "note_off", "time": 81, "note": 64, "velocity": 113, "channel": 0}, {"type": "note_on", "time": 19, "note": 60, "velocity": 104, "channel": 0}, {"type": "note_off", "time": 56, "note": 60, "velocity": 104, "channel": 0}, {"type": "note_on", "time": 11, "note": 62, "velocity": 99, "channel": 0}, {"type": "note_off", "time": 108, "note": 62, "velocity": 99, "channel": 0}, {"type": "note_on", "time": 63, "note": 64, "velocity": 110, "channel": 0}, {"type": "note_off", "time": 97, "note": 64, "velocity": 110, "channel": 0}, {"type": "note_on", "time": 29, "note": 60, "velocity": 100, "channel": 0}, {"type": "note_off", "time": 69, "note": 60, "velocity": 100, "channel": 0}, {"type": "note_on", "time": 18, "note": 62, "velocity": 102, "channel": 0}, {"type": "note_off", "time": 98, "note": 62, "velocity": 102, "channel": 0}, {"type": "note_on", "time": 10, "note": 60, "velocity": 100, "channel": 0}, {"type": "note_off", "time": 66, "note": 60, "velocity": 100, "channel": 0}, {"type": "note_on", "time": 3, "note": 62, "velocity": 101, "channel": 0}, {"type": "note_off", "time": 94, "note": 62, "velocity": 101, "channel": 0}, {"type": "note_on", "time": 16, "note": 60, "velocity": 107, "channel": 0}, {"type": "note_off", "time": 64, "note": 60, "velocity": 107, "channel": 0}, {"type": "note_on", "time": 18, "note": 58, "velocity": 106, "channel": 0}, {"type": "note_off", "time": 70, "note": 58, "velocity": 106, "channel": 0}, {"type": "note_on", "time": 8, "note": 56, "velocity": 102, "channel": 0}, {"type": "note_off", "time": 70, "note": 56, "velocity": 102, "channel": 0}, {"type": "note_on", "time": 10, "note": 54, "velocity": 103, "channel": 0}, {"type": "note_off", "time": 66, "note": 54, "velocity": 103, "channel": 0}, {"type": "note_on", "time": 15, "note": 53, "velocity": 97, "channel": 0}, {"type": "note_off", "time": 72, "note": 53, "velocity": 97, "channel": 0}, {"type": "note_on", "time": 372, "note": 60, "velocity": 109, "channel": 0}, {"type": "note_off", "time": 84, "note": 60, "velocity": 109, "channel": 0}, {"type": "note_on", "time": 4, "note": 62, "velocity": 105, "channel": 0}, {"type": "note_off", "time": 69, "note": 62, "velocity": 105, "channel": 0}, {"type": "note_on", "time": 11, "note": 60, "velocity": 96, "channel": 0}, {"type": "note_off", "time": 86, "note": 60, "velocity": 96, "channel": 0}, {"type": "note_on", "time": 17, "note": 65, "velocity": 112, "channel": 0}, {"type": "note_off", "time": 63, "note": 65, "velocity": 112, "channel": 0}, {"type": "note_on", "time": 217, "note": 60, "velocity": 110, "channel": 0}, {"type": "note_off", "time": 71, "note": 60, "velocity": 110, "channel": 0}, {"type": "note_on", "time": 14, "note": 62, "velocity": 106, "channel": 0}, {"type": "note_off", "time": 62, "note": 62, "velocity": 106, "channel": 0}, {"type": "note_on", "time": 13, "note": 60, "velocity": 108, "channel": 0}, {"type": "note_off", "time": 80, "note": 60, "velocity": 108, "channel": 0}, {"type": "note_on", "time": 5, "note": 56, "velocity": 105, "channel": 0}, {"type": "note_off", "time": 89, "note": 56, "velocity": 105, "channel": 0}, {"type": "note_on", "time": 9, "note": 53, "velocity": 112, "channel": 0}, {"type": "note_off", "time": 97, "note": 53, "velocity": 112, "channel": 0}, {"type": "note_on", "time": 492, "note": 60, "velocity": 107, "channel": 0}, {"type": "note_off", "time": 76, "note": 60, "velocity": 107, "channel": 0}, {"type": "note_on", "time": 16, "note": 62, "velocity": 110, "channel": 0}, {"type": "note_off", "time": 76, "note": 62, "velocity": 110, "channel": 0}, {"type": "note_on", "time": 19, "note": 60, "velocity": 97, "channel": 0}, {"type": "note_off", "time": 61, "note": 60, "velocity": 97, "channel": 0}, {"type": "note_on", "time": 17, "note": 64, "velocity": 117, "channel": 0}, {"type": "note_off", "time": 96, "note": 64, "velocity": 117, "channel": 0}, {"type": "note_on", "time": 11, "note": 62, "velocity": 110, "channel": 0}, {"type": "note_off", "time": 62, "note": 62, "velocity": 110, "channel": 0}, {"type": "note_on", "time": 21, "note": 60, "velocity": 109, "channel": 0}, {"type": "note_off", "time": 91, "note": 60, "velocity": 109, "channel": 0}, {"type": "note_on", "time": 32, "note": 61, "velocity": 90, "channel": 0}, {"type": "note_off", "time": 52, "note": 61, "velocity": 90, "channel": 0}, {"type": "note_on", "time": 19, "note": 63, "velocity": 111, "channel": 0}, {"type": "note_off", "time": 89, "note": 63, "velocity": 111, "channel": 0}, {"type": "note_on", "time": 46, "note": 61, "velocity": 97, "channel": 0}, {"type": "note_off", "time": 77, "note": 61, "velocity": 97, "channel": 0}, {"type": "note_on", "time": 17, "note": 60, "velocity": 102, "channel": 0}, {"type": "note_off", "time": 79, "note": 60, "velocity": 102, "channel": 0}, {"type": "note_on", "time": 5, "note": 58, "velocity": 110, "channel": 0}, {"type": "note_off", "time": 100, "note": 58, "velocity": 110, "channel": 0}, {"type": "note_on", "time": 10, "note": 57, "velocity": 104, "channel": 0}, {"type": "note_off", "time": 86, "note": 57, "velocity": 104, "channel": 0}, {"type": "note_on", "time": 8, "note": 58, "velocity": 102, "channel": 0}, {"type": "note_off", "time": 59, "note": 58, "velocity": 102, "channel": 0}, {"type": "note_on", "time": 9, "note": 60, "velocity": 111, "channel": 0}, {"type": "note_off", "time": 109, "note": 60, "velocity": 111, "channel": 0}, {"type": "note_on", "time": 19, "note": 56, "velocity": 97, "channel": 0}, {"type": "note_off", "time": 37, "note": 56, "velocity": 97, "channel": 0}, {"type": "note_on", "time": 12, "note": 58, "velocity": 101, "channel": 0}, {"type": "note_off", "time": 94, "note": 58, "velocity": 101, "channel": 0}, {"type": "note_on", "time": 9, "note": 60, "velocity": 110, "channel": 0}, {"type": "note_off", "time": 66, "note": 60, "velocity": 110, "channel": 0}, {"type": "note_on", "time": 27, "note": 62, "velocity": 106, "channel": 0}, {"type": "note_off", "time": 97, "note": 62, "velocity": 106, "channel": 0}, {"type": "note_on", "time": 78, "note": 56, "velocity": 106, "channel": 0}, {"type": "note_off", "time": 106, "note": 56, "velocity": 106, "channel": 0}, {"type": "note_on", "time": 7, "note": 58, "velocity": 102, "channel": 0}, {"type": "note_off", "time": 74, "note": 58, "velocity": 102, "channel": 0}, {"type": "note_on", "time": 13, "note": 60, "velocity": 109, "channel": 0}, {"type": "note_off", "time": 97, "note": 60, "velocity": 109, "channel": 0}, {"type": "note_on", "time": 28, "note": 55, "velocity": 93, "channel": 0}, {"type": "note_off", "time": 75, "note": 55, "velocity": 93, "channel": 0}, {"type": "note_on", "time": 8, "note": 56, "velocity": 102, "channel": 0}, {"type": "note_off", "time": 84, "note": 56, "velocity": 102, "channel": 0}, {"type": "note_on", "time": 15, "note": 58, "velocity": 103, "channel": 0}, {"type": "note_off", "time": 59, "note": 58, "velocity": 103, "channel": 0}, {"type": "note_on", "time": 12, "note": 59, "velocity": 112, "channel": 0}, {"type": "note_off", "time": 105, "note": 59, "velocity": 112, "channel": 0}, {"type": "note_on", "time": 11, "note": 60, "velocity": 111, "channel": 0}, {"type": "note_off", "time": 84, "note": 60, "velocity": 111, "channel": 0}, {"type": "note_on", "time": 17, "note": 61, "velocity": 107, "channel": 0}, {"type": "note_off", "time": 73, "note": 61, "velocity": 107, "channel": 0}, {"type": "note_on", "time": 28, "note": 58, "velocity": 113, "channel": 0}, {"type": "note_off", "time": 71, "note": 58, "velocity": 113, "channel": 0}, {"type": "note_on", "time": 12, "note": 55, "velocity": 101, "channel": 0}, {"type": "note_off", "time": 91, "note": 55, "velocity": 101, "channel": 0}, {"type": "note_on", "time": 31, "note": 51, "velocity": 108, "channel": 0}, {"type": "note_off", "time": 84, "note": 51, "velocity": 108, "channel": 0}, {"type": "note_on", "time": 3, "note": 53, "velocity": 106, "channel": 0}, {"type": "note_off", "time": 121, "note": 53, "velocity": 106, "channel": 0}, {"type": "note_on", "time": 45, "note": 56, "velocity": 111, "channel": 0}, {"type": "note_off", "time": 73, "note": 56, "velocity": 111, "channel": 0}, {"type": "note_on", "time": 121, "note": 60, "velocity": 112, "channel": 0}, {"type": "note_off", "time": 79, "note": 60, "velocity": 112, "channel": 0}, {"type": "note_on", "time": 115, "note": 65, "velocity": 112, "channel": 0}, {"type": "note_off", "time": 93, "note": 65, "velocity": 112, "channel": 0}, {"type": "note_on", "time": 74, "note": 66, "velocity": 109, "channel": 0}, {"type": "note_off", "time": 152, "note": 66, "velocity": 109, "channel": 0}, {"type": "note_on", "time": 8, "note": 65, "velocity": 104, "channel": 0}, {"type": "note_off", "time": 114, "note": 65, "velocity": 104, "channel": 0}, {"type": "note_on", "time": 34, "note": 63, "velocity": 110, "channel": 0}, {"type": "note_off", "time": 124, "note": 63, "velocity": 110, "channel": 0}, {"type": "note_on", "time": 58, "note": 56, "velocity": 106, "channel": 0}, {"type": "note_off", "time": 78, "note": 56, "velocity": 106, "channel": 0}, {"type": "note_on", "time": 19, "note": 58, "velocity": 108, "channel": 0}, {"type": "note_off", "time": 83, "note": 58, "velocity": 108, "channel": 0}, {"type": "note_on", "time": 11, "note": 56, "velocity": 99, "channel": 0}, {"type": "note_off", "time": 68, "note": 56, "velocity": 99, "channel": 0}, {"type": "note_on", "time": 28, "note": 59, "velocity": 105, "channel": 0}, {"type": "note_off", "time": 92, "note": 59, "velocity": 105, "channel": 0}, {"type": "note_on", "time": 6, "note": 60, "velocity": 111, "channel": 0}, {"type": "note_off", "time": 47, "note": 60, "velocity": 111, "channel": 0}, {"type": "note_on", "time": 15, "note": 61, "velocity": 110, "channel": 0}, {"type": "note_off", "time": 98, "note": 61, "velocity": 110, "channel": 0}, {"type": "note_on", "time": 14, "note": 62, "velocity": 94, "channel": 0}, {"type": "note_off", "time": 63, "note": 62, "velocity": 94, "channel": 0}, {"type": "note_on", "time": 19, "note": 63, "velocity": 113, "channel": 0}, {"type": "note_off", "time": 98, "note": 63, "velocity": 113, "channel": 0}, {"type": "note_on", "time": 10, "note": 59, "velocity": 108, "channel": 0}, {"type": "note_off", "time": 54, "note": 59, "velocity": 108, "channel": 0}, {"type": "note_on", "time": 12, "note": 56, "velocity": 113, "channel": 0}, {"type": "note_off", "time": 57, "note": 56, "velocity": 113, "channel": 0}, {"type": "note_on", "time": 8, "note": 53, "velocity": 103, "channel": 0}, {"type": "note_off", "time": 89, "note": 53, "velocity": 103, "channel": 0}, {"type": "note_on", "time": 14, "note": 58, "velocity": 104, "channel": 0}, {"type": "note_off", "time": 175, "note": 58, "velocity": 104, "channel": 0}, {"type": "note_on", "time": 10, "note": 56, "velocity": 97, "channel": 0}, {"type": "note_off", "time": 96, "note": 56, "velocity": 97, "channel": 0}, {"type": "note_on", "time": 26, "note": 58, "velocity": 113, "channel": 0}, {"type": "note_off", "time": 79, "note": 58, "velocity": 113, "channel": 0}, {"type": "note_on", "time": 80, "note": 56, "velocity": 112, "channel": 0}, {"type": "note_off", "time": 67, "note": 56, "velocity": 112, "channel": 0}, {"type": "note_on", "time": 22, "note": 53, "velocity": 106, "channel": 0}, {"type": "note_off", "time": 106, "note": 53, "velocity": 106, "channel": 0}, {"type": "note_on", "time": 96, "note": 56, "velocity": 109, "channel": 0}, {"type": "note_off", "time": 124, "note": 56, "velocity": 109, "channel": 0}, {"type": "note_on", "time": 67, "note": 63, "velocity": 107, "channel": 0}, {"type": "note_off", "time": 116, "note": 63, "velocity": 107, "channel": 0}, {"type": "note_on", "time": 91, "note": 56, "velocity": 95, "channel": 0}, {"type": "note_off", "time": 358, "note": 56, "velocity": 95, "channel": 0}, {"type": "note_on", "time": 337, "note": 65, "velocity": 114, "channel": 0}, {"type": "note_off", "time": 79, "note": 65, "velocity": 114, "channel": 0}, {"type": "note_on", "time": 11, "note": 63, "velocity": 113, "channel": 0}, {"type": "note_off", "time": 127, "note": 63, "velocity": 113, "channel": 0}, {"type": "note_on", "time": 27, "note": 65, "velocity": 116, "channel": 0}, {"type": "note_off", "time": 114, "note": 65, "velocity": 116, "channel": 0}, {"type": "note_on", "time": 14, "note": 63, "velocity": 110, "channel": 0}, {"type": "note_off", "time": 103, "note": 63, "velocity": 110, "channel": 0}, {"type": "note_on", "time": 84, "note": 56, "velocity": 109, "channel": 0}, {"type": "note_off", "time": 223, "note": 56, "velocity": 109, "channel": 0}, {"type": "note_on", "time": 746, "note": 64, "velocity": 117, "channel": 0}, {"type": "note_off", "time": 43, "note": 64, "velocity": 117, "channel": 0}, {"type": "note_on", "time": 1, "note": 65, "velocity": 115, "channel": 0}, {"type": "note_off", "time": 207, "note": 65, "velocity": 115, "channel": 0}, {"type": "note_on", "time": 15, "note": 68, "velocity": 117, "channel": 0}, {"type": "note_off", "time": 89, "note": 68, "velocity": 117, "channel": 0}, {"type": "note_on", "time": 87, "note": 60, "velocity": 96, "channel": 0}, {"type": "note_off", "time": 291, "note": 60, "velocity": 96, "channel": 0}, {"type": "note_on", "time": 10, "note": 64, "velocity": 111, "channel": 0}, {"type": "note_off", "time": 107, "note": 64, "velocity": 111, "channel": 0}, {"type": "note_on", "time": 6, "note": 65, "velocity": 106, "channel": 0}, {"type": "note_off", "time": 149, "note": 65, "velocity": 106, "channel": 0}, {"type": "note_on", "time": 12, "note": 68, "velocity": 112, "channel": 0}, {"type": "note_off", "time": 89, "note": 68, "velocity": 112, "channel": 0}, {"type": "note_on", "time": 110, "note": 60, "velocity": 102, "channel": 0}, {"type": "note_off", "time": 286, "note": 60, "velocity": 102, "channel": 0}, {"type": "note_on", "time": 14, "note": 64, "velocity": 115, "channel": 0}, {"type": "note_off", "time": 75, "note": 64, "velocity": 115, "channel": 0}, {"type": "note_on", "time": 14, "note": 65, "velocity": 110, "channel": 0}, {"type": "note_off", "time": 163, "note": 65, "velocity": 110, "channel": 0}, {"type": "note_on", "time": 13, "note": 68, "velocity": 115, "channel": 0}, {"type": "note_off", "time": 112, "note": 68, "velocity": 115, "channel": 0}, {"type": "note_on", "time": 49, "note": 59, "velocity": 94, "channel": 0}, {"type": "note_off", "time": 97, "note": 59, "velocity": 94, "channel": 0}, {"type": "note_on", "time": 58, "note": 59, "velocity": 107, "channel": 0}, {"type": "note_off", "time": 189, "note": 59, "velocity": 107, "channel": 0}, {"type": "note_on", "time": 737, "note": 63, "velocity": 119, "channel": 0}, {"type": "note_off", "time": 59, "note": 63, "velocity": 119, "channel": 0}, {"type": "note_on", "time": 3, "note": 65, "velocity": 112, "channel": 0}, {"type": "note_off", "time": 189, "note": 65, "velocity": 112, "channel": 0}, {"type": "note_on", "time": 10, "note": 68, "velocity": 119, "channel": 0}, {"type": "note_off", "time": 86, "note": 68, "velocity": 119, "channel": 0}, {"type": "note_on", "time": 103, "note": 60, "velocity": 98, "channel": 0}, {"type": "note_off", "time": 295, "note": 60, "velocity": 98, "channel": 0}, {"type": "note_on", "time": 17, "note": 64, "velocity": 112, "channel": 0}, {"type": "note_off", "time": 91, "note": 64, "velocity": 112, "channel": 0}, {"type": "note_on", "time": 12, "note": 65, "velocity": 104, "channel": 0}, {"type": "note_off", "time": 140, "note": 65, "velocity": 104, "channel": 0}, {"type": "note_on", "time": 5, "note": 68, "velocity": 115, "channel": 0}, {"type": "note_off", "time": 91, "note": 68, "velocity": 115, "channel": 0}, {"type": "note_on", "time": 126, "note": 59, "velocity": 108, "channel": 0}, {"type": "note_off", "time": 133, "note": 59, "velocity": 108, "channel": 0}, {"type": "note_on", "time": 3, "note": 60, "velocity": 106, "channel": 0}, {"type": "note_off", "time": 147, "note": 60, "velocity": 106, "channel": 0}, {"type": "note_on", "time": 17, "note": 64, "velocity": 111, "channel": 0}, {"type": "note_off", "time": 94, "note": 64, "velocity": 111, "channel": 0}, {"type": "note_on", "time": 17, "note": 65, "velocity": 105, "channel": 0}, {"type": "note_off", "time": 132, "note": 65, "velocity": 105, "channel": 0}, {"type": "note_on", "time": 22, "note": 68, "velocity": 112, "channel": 0}, {"type": "note_off", "time": 96, "note": 68, "velocity": 112, "channel": 0}, {"type": "note_on", "time": 21, "note": 68, "velocity": 103, "channel": 0}, {"type": "note_off", "time": 124, "note": 68, "velocity": 103, "channel": 0}, {"type": "note_on", "time": 76, "note": 61, "velocity": 106, "channel": 0}, {"type": "note_off", "time": 217, "note": 61, "velocity": 106, "channel": 0}, {"type": "note_on", "time": 750, "note": 63, "velocity": 100, "channel": 0}, {"type": "note_off", "time": 59, "note": 63, "velocity": 100, "channel": 0}, {"type": "note_on", "time": 12, "note": 65, "velocity": 106, "channel": 0}, {"type": "note_off", "time": 131, "note": 65, "velocity": 106, "channel": 0}, {"type": "note_on", "time": 22, "note": 68, "velocity": 114, "channel": 0}, {"type": "note_off", "time": 82, "note": 68, "velocity": 114, "channel": 0}, {"type": "note_on", "time": 49, "note": 65, "velocity": 109, "channel": 0}, {"type": "note_off", "time": 106, "note": 65, "velocity": 109, "channel": 0}, {"type": "note_on", "time": 13, "note": 60, "velocity": 92, "channel": 0}, {"type": "note_off", "time": 114, "note": 60, "velocity": 92, "channel": 0}, {"type": "note_on", "time": 47, "note": 65, "velocity": 110, "channel": 0}, {"type": "note_off", "time": 78, "note": 65, "velocity": 110, "channel": 0}, {"type": "note_on", "time": 19, "note": 60, "velocity": 108, "channel": 0}, {"type": "note_off", "time": 57, "note": 60, "velocity": 108, "channel": 0}, {"type": "note_on", "time": 22, "note": 56, "velocity": 98, "channel": 0}, {"type": "note_off", "time": 109, "note": 56, "velocity": 98, "channel": 0}, {"type": "note_on", "time": 94, "note": 60, "velocity": 110, "channel": 0}, {"type": "note_off", "time": 73, "note": 60, "velocity": 110, "channel": 0}, {"type": "note_on", "time": 15, "note": 56, "velocity": 104, "channel": 0}, {"type": "note_off", "time": 86, "note": 56, "velocity": 104, "channel": 0}, {"type": "note_on", "time": 12, "note": 54, "velocity": 108, "channel": 0}, {"type": "note_off", "time": 82, "note": 54, "velocity": 108, "channel": 0}, {"type": "note_on", "time": 21, "note": 56, "velocity": 102, "channel": 0}, {"type": "note_off", "time": 81, "note": 56, "velocity": 102, "channel": 0}, {"type": "note_on", "time": 17, "note": 58, "velocity": 105, "channel": 0}, {"type": "note_off", "time": 61, "note": 58, "velocity": 105, "channel": 0}, {"type": "note_on", "time": 29, "note": 60, "velocity": 101, "channel": 0}, {"type": "note_off", "time": 64, "note": 60, "velocity": 101, "channel": 0}, {"type": "note_on", "time": 10, "note": 65, "velocity": 108, "channel": 0}, {"type": "note_off", "time": 116, "note": 65, "velocity": 108, "channel": 0}, {"type": "note_on", "time": 9, "note": 60, "velocity": 93, "channel": 0}, {"type": "note_off", "time": 49, "note": 60, "velocity": 93, "channel": 0}, {"type": "note_on", "time": 23, "note": 64, "velocity": 112, "channel": 0}, {"type": "note_off", "time": 91, "note": 64, "velocity": 112, "channel": 0}, {"type": "note_on", "time": 18, "note": 63, "velocity": 110, "channel": 0}, {"type": "note_off", "time": 82, "note": 63, "velocity": 110, "channel": 0}, {"type": "note_on", "time": 6, "note": 62, "velocity": 104, "channel": 0}, {"type": "note_off", "time": 66, "note": 62, "velocity": 104, "channel": 0}, {"type": "note_on", "time": 12, "note": 61, "velocity": 106, "channel": 0}, {"type": "note_off", "time": 86, "note": 61, "velocity": 106, "channel": 0}, {"type": "note_on", "time": 13, "note": 60, "velocity": 109, "channel": 0}, {"type": "note_off", "time": 93, "note": 60, "velocity": 109, "channel": 0}, {"type": "note_on", "time": 15, "note": 58, "velocity": 110, "channel": 0}, {"type": "note_off", "time": 93, "note": 58, "velocity": 110, "channel": 0}, {"type": "note_on", "time": 15, "note": 56, "velocity": 108, "channel": 0}, {"type": "note_off", "time": 84, "note": 56, "velocity": 108, "channel": 0}, {"type": "note_on", "time": 16, "note": 53, "velocity": 111, "channel": 0}, {"type": "note_off", "time": 78, "note": 53, "velocity": 111, "channel": 0}, {"type": "note_on", "time": 16, "note": 56, "velocity": 96, "channel": 0}, {"type": "note_off", "time": 91, "note": 56, "velocity": 96, "channel": 0}, {"type": "note_on", "time": 14, "note": 59, "velocity": 99, "channel": 0}, {"type": "note_off", "time": 53, "note": 59, "velocity": 99, "channel": 0}, {"type": "note_on", "time": 29, "note": 63, "velocity": 106, "channel": 0}, {"type": "note_off", "time": 77, "note": 63, "velocity": 106, "channel": 0}, {"type": "note_on", "time": 86, "note": 59, "velocity": 105, "channel": 0}, {"type": "note_off", "time": 103, "note": 59, "velocity": 105, "channel": 0}, {"type": "note_on", "time": 12, "note": 63, "velocity": 104, "channel": 0}, {"type": "note_off", "time": 63, "note": 63, "velocity": 104, "channel": 0}, {"type": "note_on", "time": 48, "note": 62, "velocity": 102, "channel": 0}, {"type": "note_off", "time": 66, "note": 62, "velocity": 102, "channel": 0}, {"type": "note_on", "time": 17, "note": 59, "velocity": 107, "channel": 0}, {"type": "note_off", "time": 61, "note": 59, "velocity": 107, "channel": 0}, {"type": "note_on", "time": 15, "note": 56, "velocity": 106, "channel": 0}, {"type": "note_off", "time": 79, "note": 56, "velocity": 106, "channel": 0}, {"type": "note_on", "time": 25, "note": 53, "velocity": 97, "channel": 0}, {"type": "note_off", "time": 89, "note": 53, "velocity": 97, "channel": 0}, {"type": "note_on", "time": 12, "note": 61, "velocity": 105, "channel": 0}, {"type": "note_off", "time": 94, "note": 61, "velocity": 105, "channel": 0}, {"type": "note_on", "time": 10, "note": 60, "velocity": 103, "channel": 0}, {"type": "note_off", "time": 73, "note": 60, "velocity": 103, "channel": 0}, {"type": "note_on", "time": 10, "note": 58, "velocity": 109, "channel": 0}, {"type": "note_off", "time": 103, "note": 58, "velocity": 109, "channel": 0}, {"type": "note_on", "time": 21, "note": 56, "velocity": 106, "channel": 0}, {"type": "note_off", "time": 57, "note": 56, "velocity": 106, "channel": 0}, {"type": "note_on", "time": 18, "note": 57, "velocity": 106, "channel": 0}, {"type": "note_off", "time": 96, "note": 57, "velocity": 106, "channel": 0}, {"type": "note_on", "time": 31, "note": 54, "velocity": 112, "channel": 0}, {"type": "note_off", "time": 58, "note": 54, "velocity": 112, "channel": 0}, {"type": "note_on", "time": 13, "note": 53, "velocity": 108, "channel": 0}, {"type": "note_off", "time": 81, "note": 53, "velocity": 108, "channel": 0}, {"type": "note_on", "time": 12, "note": 51, "velocity": 103, "channel": 0}, {"type": "note_off", "time": 53, "note": 51, "velocity": 103, "channel": 0}, {"type": "note_on", "time": 16, "note": 49, "velocity": 107, "channel": 0}, {"type": "note_off", "time": 67, "note": 49, "velocity": 107, "channel": 0}, {"type": "note_on", "time": 32, "note": 48, "velocity": 97, "channel": 0}, {"type": "note_off", "time": 67, "note": 48, "velocity": 97, "channel": 0}, {"type": "note_on", "time": 17, "note": 46, "velocity": 103, "channel": 0}, {"type": "note_off", "time": 108, "note": 46, "velocity": 103, "channel": 0}, {"type": "note_on", "time": 19, "note": 45, "velocity": 90, "channel": 0}, {"type": "note_off", "time": 63, "note": 45, "velocity": 90, "channel": 0}, {"type": "note_on", "time": 24, "note": 44, "velocity": 104, "channel": 0}, {"type": "note_off", "time": 214, "note": 44, "velocity": 104, "channel": 0}, {"type": "note_on", "time": 17, "note": 45, "velocity": 127, "channel": 0}, {"type": "note_off", "time": 82, "note": 45, "velocity": 127, "channel": 0}, {"type": "note_on", "time": 7, "note": 43, "velocity": 118, "channel": 0}, {"type": "note_off", "time": 62, "note": 43, "velocity": 118, "channel": 0}, {"type": "note_on", "time": 9, "note": 44, "velocity": 121, "channel": 0}, {"type": "note_off", "time": 72, "note": 44, "velocity": 121, "channel": 0}, {"type": "note_on", "time": 2, "note": 46, "velocity": 107, "channel": 0}, {"type": "note_off", "time": 84, "note": 46, "velocity": 107, "channel": 0}, {"type": "note_on", "time": 13, "note": 47, "velocity": 107, "channel": 0}, {"type": "note_off", "time": 81, "note": 47, "velocity": 107, "channel": 0}, {"type": "note_on", "time": 12, "note": 48, "velocity": 96, "channel": 0}, {"type": "note_off", "time": 50, "note": 48, "velocity": 96, "channel": 0}, {"type": "note_on", "time": 15, "note": 49, "velocity": 108, "channel": 0}, {"type": "note_off", "time": 73, "note": 49, "velocity": 108, "channel": 0}, {"type": "note_on", "time": 10, "note": 47, "velocity": 98, "channel": 0}, {"type": "note_off", "time": 100, "note": 47, "velocity": 98, "channel": 0}, {"type": "note_on", "time": 19, "note": 48, "velocity": 104, "channel": 0}, {"type": "note_off", "time": 92, "note": 48, "velocity": 104, "channel": 0}, {"type": "note_on", "time": 9, "note": 51, "velocity": 105, "channel": 0}, {"type": "note_off", "time": 79, "note": 51, "velocity": 105, "channel": 0}, {"type": "note_on", "time": 1, "note": 53, "velocity": 112, "channel": 0}, {"type": "note_off", "time": 113, "note": 53, "velocity": 112, "channel": 0}, {"type": "note_on", "time": 22, "note": 56, "velocity": 111, "channel": 0}, {"type": "note_off", "time": 57, "note": 56, "velocity": 111, "channel": 0}, {"type": "note_on", "time": 12, "note": 57, "velocity": 111, "channel": 0}, {"type": "note_off", "time": 54, "note": 57, "velocity": 111, "channel": 0}, {"type": "note_on", "time": 9, "note": 58, "velocity": 117, "channel": 0}, {"type": "note_off", "time": 58, "note": 58, "velocity": 117, "channel": 0}, {"type": "note_on", "time": 17, "note": 59, "velocity": 115, "channel": 0}, {"type": "note_off", "time": 49, "note": 59, "velocity": 115, "channel": 0}, {"type": "note_on", "time": 19, "note": 60, "velocity": 109, "channel": 0}, {"type": "note_off", "time": 56, "note": 60, "velocity": 109, "channel": 0}, {"type": "note_on", "time": 15, "note": 62, "velocity": 110, "channel": 0}, {"type": "note_off", "time": 50, "note": 62, "velocity": 110, "channel": 0}, {"type": "note_on", "time": 7, "note": 64, "velocity": 104, "channel": 0}, {"type": "note_off", "time": 70, "note": 64, "velocity": 104, "channel": 0}, {"type": "note_on", "time": 128, "note": 65, "velocity": 115, "channel": 0}, {"type": "note_off", "time": 131, "note": 65, "velocity": 115, "channel": 0}, {"type": "note_on", "time": 650, "note": 64, "velocity": 116, "channel": 0}, {"type": "note_off", "time": 98, "note": 64, "velocity": 116, "channel": 0}, {"type": "note_on", "time": 20, "note": 65, "velocity": 111, "channel": 0}, {"type": "note_off", "time": 56, "note": 65, "velocity": 111, "channel": 0}, {"type": "note_on", "time": 12, "note": 67, "velocity": 113, "channel": 0}, {"type": "note_off", "time": 93, "note": 67, "velocity": 113, "channel": 0}, {"type": "note_on", "time": 111, "note": 60, "velocity": 108, "channel": 0}, {"type": "note_off", "time": 91, "note": 60, "velocity": 108, "channel": 0}, {"type": "note_on", "time": 98, "note": 60, "velocity": 112, "channel": 0}, {"type": "note_off", "time": 112, "note": 60, "velocity": 112, "channel": 0}, {"type": "note_on", "time": 79, "note": 60, "velocity": 113, "channel": 0}, {"type": "note_off", "time": 165, "note": 60, "velocity": 113, "channel": 0}, {"type": "note_on", "time": 12, "note": 58, "velocity": 112, "channel": 0}, {"type": "note_off", "time": 98, "note": 58, "velocity": 112, "channel": 0}, {"type": "note_on", "time": 6, "note": 56, "velocity": 108, "channel": 0}, {"type": "note_off", "time": 73, "note": 56, "velocity": 108, "channel": 0}, {"type": "note_on", "time": 97, "note": 53, "velocity": 108, "channel": 0}, {"type": "note_off", "time": 264, "note": 53, "velocity": 108, "channel": 0}, {"type": "note_on", "time": 584, "note": 53, "velocity": 109, "channel": 0}, {"type": "note_off", "time": 58, "note": 53, "velocity": 109, "channel": 0}, {"type": "note_on", "time": 18, "note": 56, "velocity": 106, "channel": 0}, {"type": "note_off", "time": 37, "note": 56, "velocity": 106, "channel": 0}, {"type": "note_on", "time": 23, "note": 60, "velocity": 106, "channel": 0}, {"type": "note_off", "time": 54, "note": 60, "velocity": 106, "channel": 0}, {"type": "note_on", "time": 27, "note": 65, "velocity": 114, "channel": 0}, {"type": "note_off", "time": 73, "note": 65, "velocity": 114, "channel": 0}, {"type": "note_on", "time": 98, "note": 60, "velocity": 106, "channel": 0}, {"type": "note_off", "time": 94, "note": 60, "velocity": 106, "channel": 0}, {"type": "note_on", "time": 14, "note": 64, "velocity": 111, "channel": 0}, {"type": "note_off", "time": 86, "note": 64, "velocity": 111, "channel": 0}, {"type": "note_on", "time": 86, "note": 60, "velocity": 108, "channel": 0}, {"type": "note_off", "time": 79, "note": 60, "velocity": 108, "channel": 0}, {"type": "note_on", "time": 10, "note": 56, "velocity": 107, "channel": 0}, {"type": "note_off", "time": 87, "note": 56, "velocity": 107, "channel": 0}, {"type": "note_on", "time": 14, "note": 53, "velocity": 95, "channel": 0}, {"type": "note_off", "time": 91, "note": 53, "velocity": 95, "channel": 0}, {"type": "note_on", "time": 47, "note": 63, "velocity": 113, "channel": 0}, {"type": "note_off", "time": 68, "note": 63, "velocity": 113, "channel": 0}, {"type": "note_on", "time": 68, "note": 60, "velocity": 112, "channel": 0}, {"type": "note_off", "time": 110, "note": 60, "velocity": 112, "channel": 0}, {"type": "note_on", "time": 16, "note": 62, "velocity": 113, "channel": 0}, {"type": "note_off", "time": 78, "note": 62, "velocity": 113, "channel": 0}, {"type": "note_on", "time": 94, "note": 60, "velocity": 111, "channel": 0}, {"type": "note_off", "time": 58, "note": 60, "velocity": 111, "channel": 0}, {"type": "note_on", "time": 9, "note": 57, "velocity": 109, "channel": 0}, {"type": "note_off", "time": 84, "note": 57, "velocity": 109, "channel": 0}, {"type": "note_on", "time": 33, "note": 53, "velocity": 104, "channel": 0}, {"type": "note_off", "time": 87, "note": 53, "velocity": 104, "channel": 0}, {"type": "note_on", "time": 19, "note": 61, "velocity": 105, "channel": 0}, {"type": "note_off", "time": 103, "note": 61, "velocity": 105, "channel": 0}, {"type": "note_on", "time": 52, "note": 57, "velocity": 107, "channel": 0}, {"type": "note_off", "time": 99, "note": 57, "velocity": 107, "channel": 0}, {"type": "note_on", "time": 23, "note": 54, "velocity": 105, "channel": 0}, {"type": "note_off", "time": 93, "note": 54, "velocity": 105, "channel": 0}, {"type": "note_on", "time": 191, "note": 60, "velocity": 106, "channel": 0}, {"type": "note_off", "time": 100, "note": 60, "velocity": 106, "channel": 0}, {"type": "note_on", "time": 22, "note": 56, "velocity": 106, "channel": 0}, {"type": "note_off", "time": 66, "note": 56, "velocity": 106, "channel": 0}, {"type": "note_on", "time": 33, "note": 53, "velocity": 104, "channel": 0}, {"type": "note_off", "time": 87, "note": 53, "velocity": 104, "channel": 0}, {"type": "note_on", "time": 68, "note": 59, "velocity": 113, "channel": 0}, {"type": "note_off", "time": 96, "note": 59, "velocity": 113, "channel": 0}, {"type": "note_on", "time": 7, "note": 55, "velocity": 101, "channel": 0}, {"type": "note_off", "time": 66, "note": 55, "velocity": 101, "channel": 0}, {"type": "note_on", "time": 15, "note": 51, "velocity": 105, "channel": 0}, {"type": "note_off", "time": 93, "note": 51, "velocity": 105, "channel": 0}, {"type": "note_on", "time": 23, "note": 49, "velocity": 109, "channel": 0}, {"type": "note_off", "time": 72, "note": 49, "velocity": 109, "channel": 0}, {"type": "note_on", "time": 34, "note": 46, "velocity": 103, "channel": 0}, {"type": "note_off", "time": 82, "note": 46, "velocity": 103, "channel": 0}, {"type": "note_on", "time": 16, "note": 47, "velocity": 100, "channel": 0}, {"type": "note_off", "time": 79, "note": 47, "velocity": 100, "channel": 0}, {"type": "note_on", "time": 12, "note": 48, "velocity": 107, "channel": 0}, {"type": "note_off", "time": 138, "note": 48, "velocity": 107, "channel": 0}, {"type": "note_on", "time": 32, "note": 51, "velocity": 109, "channel": 0}, {"type": "note_off", "time": 72, "note": 51, "velocity": 109, "channel": 0}, {"type": "note_on", "time": 122, "note": 53, "velocity": 116, "channel": 0}, {"type": "note_off", "time": 94, "note": 53, "velocity": 116, "channel": 0}, {"type": "note_on", "time": 84, "note": 56, "velocity": 112, "channel": 0}, {"type": "note_off", "time": 86, "note": 56, "velocity": 112, "channel": 0}, {"type": "note_on", "time": 93, "note": 59, "velocity": 110, "channel": 0}, {"type": "note_off", "time": 103, "note": 59, "velocity": 110, "channel": 0}, {"type": "note_on", "time": 17, "note": 60, "velocity": 113, "channel": 0}, {"type": "note_off", "time": 51, "note": 60, "velocity": 113, "channel": 0}, {"type": "note_on", "time": 13, "note": 61, "velocity": 107, "channel": 0}, {"type": "note_off", "time": 92, "note": 61, "velocity": 107, "channel": 0}, {"type": "note_on", "time": 18, "note": 62, "velocity": 106, "channel": 0}, {"type": "note_off", "time": 81, "note": 62, "velocity": 106, "channel": 0}, {"type": "note_on", "time": 8, "note": 63, "velocity": 110, "channel": 0}, {"type": "note_off", "time": 89, "note": 63, "velocity": 110, "channel": 0}, {"type": "note_on", "time": 13, "note": 60, "velocity": 106, "channel": 0}, {"type": "note_off", "time": 54, "note": 60, "velocity": 106, "channel": 0}, {"type": "note_on", "time": 12, "note": 57, "velocity": 100, "channel": 0}, {"type": "note_off", "time": 59, "note": 57, "velocity": 100, "channel": 0}, {"type": "note_on", "time": 19, "note": 54, "velocity": 96, "channel": 0}, {"type": "note_off", "time": 84, "note": 54, "velocity": 96, "channel": 0}, {"type": "note_on", "time": 22, "note": 52, "velocity": 109, "channel": 0}, {"type": "note_off", "time": 48, "note": 52, "velocity": 109, "channel": 0}, {"type": "note_on", "time": 7, "note": 53, "velocity": 105, "channel": 0}, {"type": "note_off", "time": 305, "note": 53, "velocity": 105, "channel": 0}, {"type": "note_on", "time": 75, "note": 63, "velocity": 110, "channel": 0}, {"type": "note_off", "time": 61, "note": 63, "velocity": 110, "channel": 0}, {"type": "note_on", "time": 98, "note": 61, "velocity": 109, "channel": 0}, {"type": "note_off", "time": 108, "note": 61, "velocity": 109, "channel": 0}, {"type": "note_on", "time": 21, "note": 63, "velocity": 114, "channel": 0}, {"type": "note_off", "time": 70, "note": 63, "velocity": 114, "channel": 0}, {"type": "note_on", "time": 89, "note": 61, "velocity": 96, "channel": 0}, {"type": "note_off", "time": 295, "note": 61, "velocity": 96, "channel": 0}, {"type": "note_on", "time": 381, "note": 59, "velocity": 115, "channel": 0}, {"type": "note_off", "time": 84, "note": 59, "velocity": 115, "channel": 0}, {"type": "note_on", "time": 15, "note": 61, "velocity": 102, "channel": 0}, {"type": "note_off", "time": 70, "note": 61, "velocity": 102, "channel": 0}, {"type": "note_on", "time": 10, "note": 63, "velocity": 110, "channel": 0}, {"type": "note_off", "time": 21, "note": 63, "velocity": 110, "channel": 0}, {"type": "note_on", "time": 17, "note": 65, "velocity": 115, "channel": 0}, {"type": "note_off", "time": 79, "note": 65, "velocity": 115, "channel": 0}, {"type": "note_on", "time": 10, "note": 64, "velocity": 122, "channel": 0}, {"type": "note_off", "time": 57, "note": 64, "velocity": 122, "channel": 0}, {"type": "note_on", "time": 7, "note": 63, "velocity": 108, "channel": 0}, {"type": "note_off", "time": 73, "note": 63, "velocity": 108, "channel": 0}, {"type": "note_on", "time": 506, "note": 59, "velocity": 110, "channel": 0}, {"type": "note_off", "time": 69, "note": 59, "velocity": 110, "channel": 0}, {"type": "note_on", "time": 16, "note": 60, "velocity": 102, "channel": 0}, {"type": "note_off", "time": 63, "note": 60, "velocity": 102, "channel": 0}, {"type": "note_on", "time": 26, "note": 65, "velocity": 113, "channel": 0}, {"type": "note_off", "time": 107, "note": 65, "velocity": 113, "channel": 0}, {"type": "note_on", "time": 18, "note": 64, "velocity": 119, "channel": 0}, {"type": "note_off", "time": 87, "note": 64, "velocity": 119, "channel": 0}, {"type": "note_on", "time": 17, "note": 63, "velocity": 114, "channel": 0}, {"type": "note_off", "time": 48, "note": 63, "velocity": 114, "channel": 0}, {"type": "note_on", "time": 94, "note": 59, "velocity": 112, "channel": 0}, {"type": "note_off", "time": 84, "note": 59, "velocity": 112, "channel": 0}, {"type": "note_on", "time": 28, "note": 60, "velocity": 97, "channel": 0}, {"type": "note_off", "time": 82, "note": 60, "velocity": 97, "channel": 0}, {"type": "note_on", "time": 20, "note": 59, "velocity": 114, "channel": 0}, {"type": "note_off", "time": 75, "note": 59, "velocity": 114, "channel": 0}, {"type": "note_on", "time": 17, "note": 60, "velocity": 97, "channel": 0}, {"type": "note_off", "time": 75, "note": 60, "velocity": 97, "channel": 0}, {"type": "note_on", "time": 12, "note": 65, "velocity": 110, "channel": 0}, {"type": "note_off", "time": 87, "note": 65, "velocity": 110, "channel": 0}, {"type": "note_on", "time": 9, "note": 64, "velocity": 111, "channel": 0}, {"type": "note_off", "time": 89, "note": 64, "velocity": 111, "channel": 0}, {"type": "note_on", "time": 13, "note": 63, "velocity": 113, "channel": 0}, {"type": "note_off", "time": 74, "note": 63, "velocity": 113, "channel": 0}, {"type": "note_on", "time": 27, "note": 60, "velocity": 111, "channel": 0}, {"type": "note_off", "time": 57, "note": 60, "velocity": 111, "channel": 0}, {"type": "note_on", "time": 26, "note": 56, "velocity": 114, "channel": 0}, {"type": "note_off", "time": 84, "note": 56, "velocity": 114, "channel": 0}, {"type": "note_on", "time": 14, "note": 53, "velocity": 100, "channel": 0}, {"type": "note_off", "time": 66, "note": 53, "velocity": 100, "channel": 0}, {"type": "note_on", "time": 31, "note": 61, "velocity": 108, "channel": 0}, {"type": "note_off", "time": 106, "note": 61, "velocity": 108, "channel": 0}, {"type": "note_on", "time": 17, "note": 60, "velocity": 105, "channel": 0}, {"type": "note_off", "time": 57, "note": 60, "velocity": 105, "channel": 0}, {"type": "note_on", "time": 6, "note": 58, "velocity": 111, "channel": 0}, {"type": "note_off", "time": 112, "note": 58, "velocity": 111, "channel": 0}, {"type": "note_on", "time": 14, "note": 56, "velocity": 108, "channel": 0}, {"type": "note_off", "time": 86, "note": 56, "velocity": 108, "channel": 0}, {"type": "note_on", "time": 8, "note": 55, "velocity": 106, "channel": 0}, {"type": "note_off", "time": 71, "note": 55, "velocity": 106, "channel": 0}, {"type": "note_on", "time": 11, "note": 53, "velocity": 107, "channel": 0}, {"type": "note_off", "time": 77, "note": 53, "velocity": 107, "channel": 0}, {"type": "note_on", "time": 18, "note": 51, "velocity": 99, "channel": 0}, {"type": "note_off", "time": 207, "note": 51, "velocity": 99, "channel": 0}, {"type": "end_of_track", "time": 0}]]}