{"ticks_per_beat": 192, "tracks": [[{"type": "track_name", "name": "Melody", "time": 0}, {"type": "set_tempo", "tempo": 521739, "time": 0}, {"type": "key_signature", "key": "C", "time": 0}, {"type": "time_signature", "numerator": 4, "denominator": 4, "clocks_per_click": 24, "notated_32nd_notes_per_beat": 8, "time": 0}, {"type": "note_on", "time": 2443, "note": 55, "velocity": 98, "channel": 0}, {"type": "note_off", "time": 33, "note": 55, "velocity": 98, "channel": 0}, {"type": "note_on", "time": 19, "note": 57, "velocity": 103, "channel": 0}, {"type": "note_off", "time": 43, "note": 57, "velocity": 103, "channel": 0}, {"type": "note_on", "time": 34, "note": 48, "velocity": 93, "channel": 0}, {"type": "note_off", "time": 81, "note": 48, "velocity": 93, "channel": 0}, {"type": "note_on", "time": 7, "note": 43, "velocity": 107, "channel": 0}, {"type": "note_off", "time": 56, "note": 43, "velocity": 107, "channel": 0}, {"type": "note_on", "time": 13, "note": 45, "velocity": 95, "channel": 0}, {"type": "note_off", "time": 124, "note": 45, "velocity": 95, "channel": 0}, {"type": "note_on", "time": 50, "note": 50, "velocity": 96, "channel": 0}, {"type": "note_off", "time": 105, "note": 50, "velocity": 96, "channel": 0}, {"type": "note_on", "time": 46, "note": 42, "velocity": 102, "channel": 0}, {"type": "note_off", "time": 46, "note": 42, "velocity": 102, "channel": 0}, {"type": "note_on", "time": 6, "note": 45, "velocity": 89, "channel": 0}, {"type": "note_off", "time": 130, "note": 45, "velocity": 89, "channel": 0}, {"type": "note_on", "time": 53, "note": 51, "velocity": 94, "channel": 0}, {"type": "note_off", "time": 108, "note": 51, "velocity": 94, "channel": 0}, {"type": "note_on", "time": 20, "note": 43, "velocity": 111, "channel": 0}, {"type": "note_off", "time": 67, "note": 43, "velocity": 111, "channel": 0}, {"type": "note_on", "time": 12, "note": 45, "velocity": 96, "channel": 0}, {"type": "note_off", "time": 119, "note": 45, "velocity": 96, "channel": 0}, {"type": "note_on", "time": 76, "note": 52, "velocity": 96, "channel": 0}, {"type": "note_off", "time": 86, "note": 52, "velocity": 96, "channel": 0}, {"type": "note_on", "time": 37, "note": 43, "velocity": 88, "channel": 0}, {"type": "note_off", "time": 40, "note": 43, "velocity": 88, "channel": 0}, {"type": "note_on", "time": 18, "note": 45, "velocity": 91, "channel": 0}, {"type": "note_off", "time": 146, "note": 45, "velocity": 91, "channel": 0}, {"type": "note_on", "time": 61, "note": 53, "velocity": 92, "channel": 0}, {"type": "note_off", "time": 107, "note": 53, "velocity": 92, "channel": 0}, {"type": "note_on", "time": 33, "note": 54, "velocity": 87, "channel": 0}, {"type": "note_off", "time": 115, "note": 54, "velocity": 87, "channel": 0}, {"type": "note_on", "time": 57, "note": 55, "velocity": 90, "channel": 0}, {"type": "note_off", "time": 139, "note": 55, "velocity": 90, "channel": 0}, {"type": "note_on", "time": 38, "note": 43, "velocity": 115, "channel": 0}, {"type": "note_off", "time": 53, "note": 43, "velocity": 115, "channel": 0}, {"type": "note_on", "time": 8, "note": 45, "velocity": 100, "channel": 0}, {"type": "note_off", "time": 64, "note": 45, "velocity": 100, "channel": 0}, {"type": "note_on", "time": 0, "note": 48, "velocity": 100, "channel": 0}, {"type": "note_off", "time": 36, "note": 48, "velocity": 100, "channel": 0}, {"type": "note_on", "time": 6, "note": 50, "velocity": 105, "channel": 0}, {"type": "note_off", "time": 85, "note": 50, "velocity": 105, "channel": 0}, {"type": "note_on", "time": 10, "note": 48, "velocity": 96, "channel": 0}, {"type": "note_off", "time": 110, "note": 48, "velocity": 96, "channel": 0}, {"type": "note_on", "time": 18, "note": 48, "velocity": 91, "channel": 0}, {"type": "note_off", "time": 167, "note": 48, "velocity": 91, "channel": 0}, {"type": "note_on", "time": 198, "note": 57, "velocity": 119, "channel": 0}, {"type": "note_off", "time": 53, "note": 57, "velocity": 119, "channel": 0}, {"type": "note_on", "time": 10, "note": 55, "velocity": 108, "channel": 0}, {"type": "note_off", "time": 53, "note": 55, "velocity": 108, "channel": 0}, {"type": "note_on", "time": 3, "note": 52, "velocity": 108, "channel": 0}, {"type": "note_off", "time": 55, "note": 52, "velocity": 108, "channel": 0}, {"type": "note_on", "time": 16, "note": 45, "velocity": 105, "channel": 0}, {"type": "note_off", "time": 64, "note": 45, "velocity": 105, "channel": 0}, {"type": "note_on", "time": 6, "note": 48, "velocity": 92, "channel": 0}, {"type": "note_off", "time": 105, "note": 48, "velocity": 92, "channel": 0}, {"type": "note_on", "time": 11, "note": 48, "velocity": 97, "channel": 0}, {"type": "note_off", "time": 84, "note": 48, "velocity": 97, "channel": 0}, {"type": "note_on", "time": 305, "note": 55, "velocity": 114, "channel": 0}, {"type": "note_off", "time": 51, "note": 55, "velocity": 114, "channel": 0}, {"type": "note_on", "time": 16, "note": 53, "velocity": 106, "channel": 0}, {"type": "note_off", "time": 48, "note": 53, "velocity": 106, "channel": 0}, {"type": "note_on", "time": 6, "note": 51, "velocity": 99, "channel": 0}, {"type": "note_off", "time": 46, "note": 51, "velocity": 99, "channel": 0}, {"type": "note_on", "time": 11, "note": 48, "velocity": 105, "channel": 0}, {"type": "note_off", "time": 69, "note": 48, "velocity": 105, "channel": 0}, {"type": "note_on", "time": 11, "note": 45, "velocity": 97, "channel": 0}, {"type": "note_off", "time": 107, "note": 45, "velocity": 97, "channel": 0}, {"type": "note_on", "time": 25, "note": 43, "velocity": 92, "channel": 0}, {"type": "note_off", "time": 169, "note": 43, "velocity": 92, "channel": 0}, {"type": "note_on", "time": 44, "note": 43, "velocity": 85, "channel": 0}, {"type": "note_off", "time": 30, "note": 43, "velocity": 85, "channel": 0}, {"type": "note_on", "time": 3, "note": 46, "velocity": 99, "channel": 0}, {"type": "note_off", "time": 105, "note": 46, "velocity": 99, "channel": 0}, {"type": "note_on", "time": 18, "note": 43, "velocity": 94, "channel": 0}, {"type": "note_off", "time": 195, "note": 43, "velocity": 94, "channel": 0}, {"type": "note_on", "time": 356, "note": 43, "velocity": 115, "channel": 0}, {"type": "note_off", "time": 67, "note": 43, "velocity": 115, "channel": 0}, {"type": "note_on", "time": 24, "note": 48, "velocity": 105, "channel": 0}, {"type": "note_off", "time": 26, "note": 48, "velocity": 105, "channel": 0}, {"type": "note_on", "time": 1, "note": 46, "velocity": 95, "channel": 0}, {"type": "note_off", "time": 39, "note": 46, "velocity": 95, "channel": 0}, {"type": "note_on", "time": 30, "note": 43, "velocity": 95, "channel": 0}, {"type": "note_off", "time": 79, "note": 43, "velocity": 95, "channel": 0}, {"type": "note_on", "time": 10, "note": 47, "velocity": 102, "channel": 0}, {"type": "note_off", "time": 87, "note": 47, "velocity": 102, "channel": 0}, {"type": "note_on", "time": 21, "note": 43, "velocity": 97, "channel": 0}, {"type": "note_off", "time": 43, "note": 43, "velocity": 97, "channel": 0}, {"type": "note_on", "time": 20, "note": 48, "velocity": 93, "channel": 0}, {"type": "note_off", "time": 120, "note": 48, "velocity": 93, "channel": 0}, {"type": "note_on", "time": 202, "note": 57, "velocity": 117, "channel": 0}, {"type": "note_off", "time": 90, "note": 57, "velocity": 117, "channel": 0}, {"type": "note_on", "time": 10, "note": 55, "velocity": 90, "channel": 0}, {"type": "note_off", "time": 126, "note": 55, "velocity": 90, "channel": 0}, {"type": "note_on", "time": 153, "note": 52, "velocity": 111, "channel": 0}, {"type": "note_off", "time": 72, "note": 52, "velocity": 111, "channel": 0}, {"type": "note_on", "time": 28, "note": 50, "velocity": 100, "channel": 0}, {"type": "note_off", "time": 98, "note": 50, "velocity": 100, "channel": 0}, {"type": "note_on", "time": 12, "note": 50, "velocity": 97, "channel": 0}, {"type": "note_off", "time": 36, "note": 50, "velocity": 97, "channel": 0}, {"type": "note_on", "time": 35, "note": 45, "velocity": 104, "channel": 0}, {"type": "note_off", "time": 96, "note": 45, "velocity": 104, "channel": 0}, {"type": "note_on", "time": 20, "note": 43, "velocity": 93, "channel": 0}, {"type": "note_off", "time": 155, "note": 43, "velocity": 93, "channel": 0}, {"type": "note_on", "time": 24, "note": 45, "velocity": 94, "channel": 0}, {"type": "note_off", "time": 56, "note": 45, "velocity": 94, "channel": 0}, {"type": "note_on", "time": 10, "note": 55, "velocity": 84, "channel": 0}, {"type": "note_off", "time": 117, "note": 55, "velocity": 84, "channel": 0}, {"type": "note_on", "time": 14, "note": 53, "velocity": 114, "channel": 0}, {"type": "note_off", "time": 66, "note": 53, "velocity": 114, "channel": 0}, {"type": "note_on", "time": 10, "note": 52, "velocity": 98, "channel": 0}, {"type": "note_off", "time": 80, "note": 52, "velocity": 98, "channel": 0}, {"type": "note_on", "time": 40, "note": 50, "velocity": 110, "channel": 0}, {"type": "note_off", "time": 59, "note": 50, "velocity": 110, "channel": 0}, {"type": "note_on", "time": 6, "note": 48, "velocity": 94, "channel": 0}, {"type": "note_off", "time": 135, "note": 48, "velocity": 94, "channel": 0}, {"type": "note_on", "time": 634, "note": 50, "velocity": 107, "channel": 0}, {"type": "note_off", "time": 92, "note": 50, "velocity": 107, "channel": 0}, {"type": "note_on", "time": 17, "note": 49, "velocity": 108, "channel": 0}, {"type": "note_off", "time": 59, "note": 49, "velocity": 108, "channel": 0}, {"type": "note_on", "time": 13, "note": 50, "velocity": 107, "channel": 0}, {"type": "note_off", "time": 85, "note": 50, "velocity": 107, "channel": 0}, {"type": "note_on", "time": 30, "note": 52, "velocity": 109, "channel": 0}, {"type": "note_off", "time": 70, "note": 52, "velocity": 109, "channel": 0}, {"type": "note_on", "time": 7, "note": 53, "velocity": 106, "channel": 0}, {"type": "note_off", "time": 90, "note": 53, "velocity": 106, "channel": 0}, {"type": "note_on", "time": 28, "note": 57, "velocity": 117, "channel": 0}, {"type": "note_off", "time": 65, "note": 57, "velocity": 117, "channel": 0}, {"type": "note_on", "time": 19, "note": 55, "velocity": 103, "channel": 0}, {"type": "note_off", "time": 117, "note": 55, "velocity": 103, "channel": 0}, {"type": "note_on", "time": 6, "note": 52, "velocity": 99, "channel": 0}, {"type": "note_off", "time": 60, "note": 52, "velocity": 99, "channel": 0}, {"type": "note_on", "time": 19, "note": 48, "velocity": 86, "channel": 0}, {"type": "note_off", "time": 118, "note": 48, "velocity": 86, "channel": 0}, {"type": "note_on", "time": 180, "note": 57, "velocity": 118, "channel": 0}, {"type": "note_off", "time": 57, "note": 57, "velocity": 118, "channel": 0}, {"type": "note_on", "time": 16, "note": 55, "velocity": 112, "channel": 0}, {"type": "note_off", "time": 51, "note": 55, "velocity": 112, "channel": 0}, {"type": "note_on", "time": 8, "note": 52, "velocity": 103, "channel": 0}, {"type": "note_off", "time": 48, "note": 52, "velocity": 103, "channel": 0}, {"type": "note_on", "time": 16, "note": 48, "velocity": 92, "channel": 0}, {"type": "note_off", "time": 179, "note": 48, "velocity": 92, "channel": 0}, {"type": "note_on", "time": 10, "note": 50, "velocity": 105, "channel": 0}, {"type": "note_off", "time": 37, "note": 50, "velocity": 105, "channel": 0}, {"type": "note_on", "time": 14, "note": 48, "velocity": 89, "channel": 0}, {"type": "note_off", "time": 132, "note": 48, "velocity": 89, "channel": 0}, {"type": "note_on", "time": 23, "note": 48, "velocity": 110, "channel": 0}, {"type": "note_off", "time": 61, "note": 48, "velocity": 110, "channel": 0}, {"type": "note_on", "time": 14, "note": 52, "velocity": 99, "channel": 0}, {"type": "note_off", "time": 67, "note": 52, "velocity": 99, "channel": 0}, {"type": "note_on", "time": 8, "note": 51, "velocity": 97, "channel": 0}, {"type": "note_off", "time": 27, "note": 51, "velocity": 97, "channel": 0}, {"type": "note_on", "time": 22, "note": 48, "velocity": 96, "channel": 0}, {"type": "note_off", "time": 43, "note": 48, "velocity": 96, "channel": 0}, {"type": "note_on", "time": 10, "note": 50, "velocity": 97, "channel": 0}, {"type": "note_off", "time": 86, "note": 50, "velocity": 97, "channel": 0}, {"type": "note_on", "time": 34, "note": 48, "velocity": 90, "channel": 0}, {"type": "note_off", "time": 169, "note": 48, "velocity": 90, "channel": 0}, {"type": "note_on", "time": 22, "note": 48, "velocity": 97, "channel": 0}, {"type": "note_off", "time": 73, "note": 48, "velocity": 97, "channel": 0}, {"type": "note_on", "time": 9, "note": 50, "velocity": 94, "channel": 0}, {"type": "note_off", "time": 75, "note": 50, "velocity": 94, "channel": 0}, {"type": "note_on", "time": 22, "note": 48, "velocity": 85, "channel": 0}, {"type": "note_off", "time": 43, "note": 48, "velocity": 85, "channel": 0}, {"type": "note_on", "time": 19, "note": 50, "velocity": 92, "channel": 0}, {"type": "note_off", "time": 21, "note": 50, "velocity": 92, "channel": 0}, {"type": "note_on", "time": 2, "note": 52, "velocity": 92, "channel": 0}, {"type": "note_off", "time": 100, "note": 52, "velocity": 92, "channel": 0}, {"type": "note_on", "time": 11, "note": 55, "velocity": 87, "channel": 0}, {"type": "note_off", "time": 122, "note": 55, "velocity": 87, "channel": 0}, {"type": "note_on", "time": 1084, "note": 60, "velocity": 127, "channel": 0}, {"type": "note_off", "time": 105, "note": 60, "velocity": 127, "channel": 0}, {"type": "note_on", "time": 6, "note": 60, "velocity": 119, "channel": 0}, {"type": "note_off", "time": 22, "note": 60, "velocity": 119, "channel": 0}, {"type": "note_on", "time": 6, "note": 59, "velocity": 117, "channel": 0}, {"type": "note_off", "time": 26, "note": 59, "velocity": 117, "channel": 0}, {"type": "note_on", "time": 3, "note": 58, "velocity": 115, "channel": 0}, {"type": "note_off", "time": 31, "note": 58, "velocity": 115, "channel": 0}, {"type": "note_on", "time": 4, "note": 57, "velocity": 113, "channel": 0}, {"type": "note_off", "time": 111, "note": 57, "velocity": 113, "channel": 0}, {"type": "note_on", "time": 18, "note": 53, "velocity": 109, "channel": 0}, {"type": "note_off", "time": 54, "note": 53, "velocity": 109, "channel": 0}, {"type": "note_on", "time": 22, "note": 50, "velocity": 84, "channel": 0}, {"type": "note_off", "time": 83, "note": 50, "velocity": 84, "channel": 0}, {"type": "note_on", "time": 28, "note": 48, "velocity": 86, "channel": 0}, {"type": "note_off", "time": 39, "note": 48, "velocity": 86, "channel": 0}, {"type": "note_on", "time": 21, "note": 62, "velocity": 117, "channel": 0}, {"type": "note_off", "time": 80, "note": 62, "velocity": 117, "channel": 0}, {"type": "note_on", "time": 4, "note": 61, "velocity": 119, "channel": 0}, {"type": "note_off", "time": 43, "note": 61, "velocity": 119, "channel": 0}, {"type": "note_on", "time": 2, "note": 60, "velocity": 109, "channel": 0}, {"type": "note_off", "time": 29, "note": 60, "velocity": 109, "channel": 0}, {"type": "note_on", "time": 4, "note": 59, "velocity": 105, "channel": 0}, {"type": "note_off", "time": 40, "note": 59, "velocity": 105, "channel": 0}, {"type": "note_on", "time": 3, "note": 58, "velocity": 98, "channel": 0}, {"type": "note_off", "time": 79, "note": 58, "velocity": 98, "channel": 0}, {"type": "note_on", "time": 27, "note": 55, "velocity": 100, "channel": 0}, {"type": "note_off", "time": 55, "note": 55, "velocity": 100, "channel": 0}, {"type": "note_on", "time": 23, "note": 52, "velocity": 91, "channel": 0}, {"type": "note_off", "time": 99, "note": 52, "velocity": 91, "channel": 0}, {"type": "note_on", "time": 79, "note": 64, "velocity": 115, "channel": 0}, {"type": "note_off", "time": 92, "note": 64, "velocity": 115, "channel": 0}, {"type": "note_on", "time": 26, "note": 62, "velocity": 110, "channel": 0}, {"type": "note_off", "time": 60, "note": 62, "velocity": 110, "channel": 0}, {"type": "note_on", "time": 22, "note": 60, "velocity": 91, "channel": 0}, {"type": "note_off", "time": 96, "note": 60, "velocity": 91, "channel": 0}, {"type": "note_on", "time": 20, "note": 57, "velocity": 110, "channel": 0}, {"type": "note_off", "time": 45, "note": 57, "velocity": 110, "channel": 0}, {"type": "note_on", "time": 30, "note": 53, "velocity": 89, "channel": 0}, {"type": "note_off", "time": 97, "note": 53, "velocity": 89, "channel": 0}, {"type": "note_on", "time": 24, "note": 50, "velocity": 84, "channel": 0}, {"type": "note_off", "time": 57, "note": 50, "velocity": 84, "channel": 0}, {"type": "note_on", "time": 192, "note": 54, "velocity": 101, "channel": 0}, {"type": "note_off", "time": 42, "note": 54, "velocity": 101, "channel": 0}, {"type": "note_on", "time": 9, "note": 57, "velocity": 103, "channel": 0}, {"type": "note_off", "time": 26, "note": 57, "velocity": 103, "channel": 0}, {"type": "note_on", "time": 26, "note": 60, "velocity": 108, "channel": 0}, {"type": "note_off", "time": 44, "note": 60, "velocity": 108, "channel": 0}, {"type": "note_on", "time": 2, "note": 63, "velocity": 113, "channel": 0}, {"type": "note_off", "time": 55, "note": 63, "velocity": 113, "channel": 0}, {"type": "note_on", "time": 9, "note": 62, "velocity": 106, "channel": 0}, {"type": "note_off", "time": 69, "note": 62, "velocity": 106, "channel": 0}, {"type": "note_on", "time": 24, "note": 60, "velocity": 108, "channel": 0}, {"type": "note_off", "time": 69, "note": 60, "velocity": 108, "channel": 0}, {"type": "note_on", "time": 8, "note": 59, "velocity": 105, "channel": 0}, {"type": "note_off", "time": 32, "note": 59, "velocity": 105, "channel": 0}, {"type": "note_on", "time": 9, "note": 60, "velocity": 100, "channel": 0}, {"type": "note_off", "time": 28, "note": 60, "velocity": 100, "channel": 0}, {"type": "note_on", "time": 7, "note": 59, "velocity": 92, "channel": 0}, {"type": "note_off", "time": 21, "note": 59, "velocity": 92, "channel": 0}, {"type": "note_on", "time": 11, "note": 57, "velocity": 93, "channel": 0}, {"type": "note_off", "time": 48, "note": 57, "velocity": 93, "channel": 0}, {"type": "note_on", "time": 27, "note": 58, "velocity": 94, "channel": 0}, {"type": "note_off", "time": 79, "note": 58, "velocity": 94, "channel": 0}, {"type": "note_on", "time": 28, "note": 55, "velocity": 102, "channel": 0}, {"type": "note_off", "time": 48, "note": 55, "velocity": 102, "channel": 0}, {"type": "note_on", "time": 10, "note": 52, "velocity": 87, "channel": 0}, {"type": "note_off", "time": 96, "note": 52, "velocity": 87, "channel": 0}, {"type": "note_on", "time": 28, "note": 48, "velocity": 89, "channel": 0}, {"type": "note_off", "time": 49, "note": 48, "velocity": 89, "channel": 0}, {"type": "note_on", "time": 22, "note": 50, "velocity": 91, "channel": 0}, {"type": "note_off", "time": 93, "note": 50, "velocity": 91, "channel": 0}, {"type": "note_on", "time": 32, "note": 57, "velocity": 88, "channel": 0}, {"type": "note_off", "time": 180, "note": 57, "velocity": 88, "channel": 0}, {"type": "note_on", "time": 268, "note": 56, "velocity": 108, "channel": 0}, {"type": "note_off", "time": 48, "note": 56, "velocity": 108, "channel": 0}, {"type": "note_on", "time": 6, "note": 53, "velocity": 98, "channel": 0}, {"type": "note_off", "time": 32, "note": 53, "velocity": 98, "channel": 0}, {"type": "note_on", "time": 7, "note": 55, "velocity": 109, "channel": 0}, {"type": "note_off", "time": 44, "note": 55, "velocity": 109, "channel": 0}, {"type": "note_on", "time": 12, "note": 53, "velocity": 94, "channel": 0}, {"type": "note_off", "time": 34, "note": 53, "velocity": 94, "channel": 0}, {"type": "note_on", "time": 26, "note": 62, "velocity": 110, "channel": 0}, {"type": "note_off", "time": 41, "note": 62, "velocity": 110, "channel": 0}, {"type": "note_on", "time": 12, "note": 56, "velocity": 96, "channel": 0}, {"type": "note_off", "time": 67, "note": 56, "velocity": 96, "channel": 0}, {"type": "note_on", "time": 260, "note": 50, "velocity": 98, "channel": 0}, {"type": "note_off", "time": 105, "note": 50, "velocity": 98, "channel": 0}, {"type": "note_on", "time": 79, "note": 53, "velocity": 89, "channel": 0}, {"type": "note_off", "time": 103, "note": 53, "velocity": 89, "channel": 0}, {"type": "note_on", "time": 27, "note": 55, "velocity": 105, "channel": 0}, {"type": "note_off", "time": 57, "note": 55, "velocity": 105, "channel": 0}, {"type": "note_on", "time": 9, "note": 56, "velocity": 101, "channel": 0}, {"type": "note_off", "time": 48, "note": 56, "velocity": 101, "channel": 0}, {"type": "note_on", "time": 17, "note": 55, "velocity": 96, "channel": 0}, {"type": "note_off", "time": 41, "note": 55, "velocity": 96, "channel": 0}, {"type": "note_on", "time": 8, "note": 53, "velocity": 106, "channel": 0}, {"type": "note_off", "time": 56, "note": 53, "velocity": 106, "channel": 0}, {"type": "note_on", "time": 27, "note": 60, "velocity": 111, "channel": 0}, {"type": "note_off", "time": 65, "note": 60, "velocity": 111, "channel": 0}, {"type": "note_on", "time": 53, "note": 57, "velocity": 112, "channel": 0}, {"type": "note_off", "time": 56, "note": 57, "velocity": 112, "channel": 0}, {"type": "note_on", "time": 23, "note": 53, "velocity": 98, "channel": 0}, {"type": "note_off", "time": 83, "note": 53, "velocity": 98, "channel": 0}, {"type": "note_on", "time": 28, "note": 50, "velocity": 93, "channel": 0}, {"type": "note_off", "time": 57, "note": 50, "velocity": 93, "channel": 0}, {"type": "note_on", "time": 597, "note": 50, "velocity": 107, "channel": 0}, {"type": "note_off", "time": 34, "note": 50, "velocity": 107, "channel": 0}, {"type": "note_on", "time": 8, "note": 50, "velocity": 104, "channel": 0}, {"type": "note_off", "time": 46, "note": 50, "velocity": 104, "channel": 0}, {"type": "note_on", "time": 2, "note": 48, "velocity": 97, "channel": 0}, {"type": "note_off", "time": 36, "note": 48, "velocity": 97, "channel": 0}, {"type": "note_on", "time": 4, "note": 48, "velocity": 95, "channel": 0}, {"type": "note_off", "time": 33, "note": 48, "velocity": 95, "channel": 0}, {"type": "note_on", "time": 16, "note": 50, "velocity": 103, "channel": 0}, {"type": "note_off", "time": 32, "note": 50, "velocity": 103, "channel": 0}, {"type": "note_on", "time": 11, "note": 50, "velocity": 99, "channel": 0}, {"type": "note_off", "time": 34, "note": 50, "velocity": 99, "channel": 0}, {"type": "note_on", "time": 4, "note": 48, "velocity": 99, "channel": 0}, {"type": "note_off", "time": 57, "note": 48, "velocity": 99, "channel": 0}, {"type": "note_on", "time": 52, "note": 50, "velocity": 85, "channel": 0}, {"type": "note_off", "time": 150, "note": 50, "velocity": 85, "channel": 0}, {"type": "note_on", "time": 216, "note": 50, "velocity": 109, "channel": 0}, {"type": "note_off", "time": 36, "note": 50, "velocity": 109, "channel": 0}, {"type": "note_on", "time": 13, "note": 50, "velocity": 106, "channel": 0}, {"type": "note_off", "time": 32, "note": 50, "velocity": 106, "channel": 0}, {"type": "note_on", "time": 9, "note": 48, "velocity": 100, "channel": 0}, {"type": "note_off", "time": 43, "note": 48, "velocity": 100, "channel": 0}, {"type": "note_on", "time": 10, "note": 48, "velocity": 99, "channel": 0}, {"type": "note_off", "time": 37, "note": 48, "velocity": 99, "channel": 0}, {"type": "note_on", "time": 8, "note": 50, "velocity": 105, "channel": 0}, {"type": "note_off", "time": 40, "note": 50, "velocity": 105, "channel": 0}, {"type": "note_on", "time": 4, "note": 50, "velocity": 103, "channel": 0}, {"type": "note_off", "time": 40, "note": 50, "velocity": 103, "channel": 0}, {"type": "note_on", "time": 4, "note": 48, "velocity": 99, "channel": 0}, {"type": "note_off", "time": 38, "note": 48, "velocity": 99, "channel": 0}, {"type": "note_on", "time": 66, "note": 51, "velocity": 108, "channel": 0}, {"type": "note_off", "time": 35, "note": 51, "velocity": 108, "channel": 0}, {"type": "note_on", "time": 6, "note": 52, "velocity": 109, "channel": 0}, {"type": "note_off", "time": 22, "note": 52, "velocity": 109, "channel": 0}, {"type": "note_on", "time": 5, "note": 51, "velocity": 105, "channel": 0}, {"type": "note_off", "time": 29, "note": 51, "velocity": 105, "channel": 0}, {"type": "note_on", "time": 10, "note": 48, "velocity": 96, "channel": 0}, {"type": "note_off", "time": 50, "note": 48, "velocity": 96, "channel": 0}, {"type": "note_on", "time": 36, "note": 50, "velocity": 88, "channel": 0}, {"type": "note_off", "time": 131, "note": 50, "velocity": 88, "channel": 0}, {"type": "note_on", "time": 258, "note": 50, "velocity": 106, "channel": 0}, {"type": "note_off", "time": 21, "note": 50, "velocity": 106, "channel": 0}, {"type": "note_on", "time": 12, "note": 50, "velocity": 101, "channel": 0}, {"type": "note_off", "time": 24, "note": 50, "velocity": 101, "channel": 0}, {"type": "note_on", "time": 19, "note": 48, "velocity": 100, "channel": 0}, {"type": "note_off", "time": 54, "note": 48, "velocity": 100, "channel": 0}, {"type": "note_on", "time": 50, "note": 57, "velocity": 116, "channel": 0}, {"type": "note_off", "time": 93, "note": 57, "velocity": 116, "channel": 0}, {"type": "note_on", "time": 90, "note": 57, "velocity": 9, "channel": 0}, {"type": "note_off", "time": 188, "note": 57, "velocity": 9, "channel": 0}, {"type": "note_on", "time": 11, "note": 55, "velocity": 106, "channel": 0}, {"type": "note_off", "time": 97, "note": 55, "velocity": 106, "channel": 0}, {"type": "note_on", "time": 17, "note": 52, "velocity": 109, "channel": 0}, {"type": "note_off", "time": 63, "note": 52, "velocity": 109, "channel": 0}, {"type": "note_on", "time": 9, "note": 48, "velocity": 97, "channel": 0}, {"type": "note_off", "time": 89, "note": 48, "velocity": 97, "channel": 0}, {"type": "note_on", "time": 17, "note": 45, "velocity": 103, "channel": 0}, {"type": "note_off", "time": 61, "note": 45, "velocity": 103, "channel": 0}, {"type": "note_on", "time": 34, "note": 50, "velocity": 108, "channel": 0}, {"type": "note_off", "time": 37, "note": 50, "velocity": 108, "channel": 0}, {"type": "note_on", "time": 10, "note": 50, "velocity": 105, "channel": 0}, {"type": "note_off", "time": 30, "note": 50, "velocity": 105, "channel": 0}, {"type": "note_on", "time": 9, "note": 48, "velocity": 99, "channel": 0}, {"type": "note_off", "time": 30, "note": 48, "velocity": 99, "channel": 0}, {"type": "note_on", "time": 5, "note": 48, "velocity": 100, "channel": 0}, {"type": "note_off", "time": 33, "note": 48, "velocity": 100, "channel": 0}, {"type": "note_on", "time": 24, "note": 50, "velocity": 116, "channel": 0}, {"type": "note_off", "time": 33, "note": 50, "velocity": 116, "channel": 0}, {"type": "note_on", "time": 12, "note": 50, "velocity": 114, "channel": 0}, {"type": "note_off", "time": 33, "note": 50, "velocity": 114, "channel": 0}, {"type": "note_on", "time": 9, "note": 48, "velocity": 111, "channel": 0}, {"type": "note_off", "time": 35, "note": 48, "velocity": 111, "channel": 0}, {"type": "note_on", "time": 14, "note": 48, "velocity": 104, "channel": 0}, {"type": "note_off", "time": 31, "note": 48, "velocity": 104, "channel": 0}, {"type": "note_on", "time": 5, "note": 51, "velocity": 112, "channel": 0}, {"type": "note_off", "time": 39, "note": 51, "velocity": 112, "channel": 0}, {"type": "note_on", "time": 15, "note": 51, "velocity": 110, "channel": 0}, {"type": "note_off", "time": 29, "note": 51, "velocity": 110, "channel": 0}, {"type": "note_on", "time": 10, "note": 48, "velocity": 106, "channel": 0}, {"type": "note_off", "time": 41, "note": 48, "velocity": 106, "channel": 0}, {"type": "note_on", "time": 9, "note": 48, "velocity": 100, "channel": 0}, {"type": "note_off", "time": 27, "note": 48, "velocity": 100, "channel": 0}, {"type": "note_on", "time": 16, "note": 57, "velocity": 113, "channel": 0}, {"type": "note_off", "time": 44, "note": 57, "velocity": 113, "channel": 0}, {"type": "note_on", "time": 12, "note": 55, "velocity": 107, "channel": 0}, {"type": "note_off", "time": 39, "note": 55, "velocity": 107, "channel": 0}, {"type": "note_on", "time": 8, "note": 51, "velocity": 102, "channel": 0}, {"type": "note_off", "time": 33, "note": 51, "velocity": 102, "channel": 0}, {"type": "note_on", "time": 15, "note": 48, "velocity": 96, "channel": 0}, {"type": "note_off", "time": 27, "note": 48, "velocity": 96, "channel": 0}, {"type": "note_on", "time": 317, "note": 46, "velocity": 117, "channel": 0}, {"type": "note_off", "time": 28, "note": 46, "velocity": 117, "channel": 0}, {"type": "note_on", "time": 6, "note": 48, "velocity": 105, "channel": 0}, {"type": "note_off", "time": 48, "note": 48, "velocity": 105, "channel": 0}, {"type": "note_on", "time": 13, "note": 52, "velocity": 104, "channel": 0}, {"type": "note_off", "time": 40, "note": 52, "velocity": 104, "channel": 0}, {"type": "note_on", "time": 4, "note": 55, "velocity": 110, "channel": 0}, {"type": "note_off", "time": 51, "note": 55, "velocity": 110, "channel": 0}, {"type": "note_on", "time": 6, "note": 57, "velocity": 104, "channel": 0}, {"type": "note_off", "time": 48, "note": 57, "velocity": 104, "channel": 0}, {"type": "note_on", "time": 4, "note": 58, "velocity": 103, "channel": 0}, {"type": "note_off", "time": 19, "note": 58, "velocity": 103, "channel": 0}, {"type": "note_on", "time": 4, "note": 62, "velocity": 113, "channel": 0}, {"type": "note_off", "time": 49, "note": 62, "velocity": 113, "channel": 0}, {"type": "note_on", "time": 12, "note": 58, "velocity": 106, "channel": 0}, {"type": "note_off", "time": 40, "note": 58, "velocity": 106, "channel": 0}, {"type": "note_on", "time": 4, "note": 55, "velocity": 92, "channel": 0}, {"type": "note_off", "time": 28, "note": 55, "velocity": 92, "channel": 0}, {"type": "note_on", "time": 49, "note": 60, "velocity": 114, "channel": 0}, {"type": "note_off", "time": 46, "note": 60, "velocity": 114, "channel": 0}, {"type": "note_on", "time": 10, "note": 57, "velocity": 115, "channel": 0}, {"type": "note_off", "time": 33, "note": 57, "velocity": 115, "channel": 0}, {"type": "note_on", "time": 13, "note": 53, "velocity": 96, "channel": 0}, {"type": "note_off", "time": 33, "note": 53, "velocity": 96, "channel": 0}, {"type": "note_on", "time": 14, "note": 50, "velocity": 97, "channel": 0}, {"type": "note_off", "time": 34, "note": 50, "velocity": 97, "channel": 0}, {"type": "note_on", "time": 315, "note": 48, "velocity": 106, "channel": 0}, {"type": "note_off", "time": 42, "note": 48, "velocity": 106, "channel": 0}, {"type": "note_on", "time": 3, "note": 50, "velocity": 108, "channel": 0}, {"type": "note_off", "time": 42, "note": 50, "velocity": 108, "channel": 0}, {"type": "note_on", "time": 7, "note": 51, "velocity": 110, "channel": 0}, {"type": "note_off", "time": 30, "note": 51, "velocity": 110, "channel": 0}, {"type": "note_on", "time": 9, "note": 53, "velocity": 112, "channel": 0}, {"type": "note_off", "time": 34, "note": 53, "velocity": 112, "channel": 0}, {"type": "note_on", "time": 11, "note": 50, "velocity": 103, "channel": 0}, {"type": "note_off", "time": 29, "note": 50, "velocity": 103, "channel": 0}, {"type": "note_on", "time": 7, "note": 51, "velocity": 98, "channel": 0}, {"type": "note_off", "time": 34, "note": 51, "velocity": 98, "channel": 0}, {"type": "note_on", "time": 12, "note": 48, "velocity": 101, "channel": 0}, {"type": "note_off", "time": 69, "note": 48, "velocity": 101, "channel": 0}, {"type": "note_on", "time": 134, "note": 47, "velocity": 114, "channel": 0}, {"type": "note_off", "time": 49, "note": 47, "velocity": 114, "channel": 0}, {"type": "note_on", "time": 4, "note": 48, "velocity": 103, "channel": 0}, {"type": "note_off", "time": 22, "note": 48, "velocity": 103, "channel": 0}, {"type": "note_on", "time": 11, "note": 50, "velocity": 115, "channel": 0}, {"type": "note_off", "time": 35, "note": 50, "velocity": 115, "channel": 0}, {"type": "note_on", "time": 18, "note": 47, "velocity": 113, "channel": 0}, {"type": "note_off", "time": 36, "note": 47, "velocity": 113, "channel": 0}, {"type": "note_on", "time": 7, "note": 48, "velocity": 108, "channel": 0}, {"type": "note_off", "time": 32, "note": 48, "velocity": 108, "channel": 0}, {"type": "note_on", "time": 6, "note": 50, "velocity": 115, "channel": 0}, {"type": "note_off", "time": 38, "note": 50, "velocity": 115, "channel": 0}, {"type": "note_on", "time": 11, "note": 51, "velocity": 109, "channel": 0}, {"type": "note_off", "time": 29, "note": 51, "velocity": 109, "channel": 0}, {"type": "note_on", "time": 12, "note": 52, "velocity": 103, "channel": 0}, {"type": "note_off", "time": 37, "note": 52, "velocity": 103, "channel": 0}, {"type": "note_on", "time": 4, "note": 53, "velocity": 110, "channel": 0}, {"type": "note_off", "time": 51, "note": 53, "velocity": 110, "channel": 0}, {"type": "note_on", "time": 16, "note": 51, "velocity": 110, "channel": 0}, {"type": "note_off", "time": 25, "note": 51, "velocity": 110, "channel": 0}, {"type": "note_on", "time": 4, "note": 52, "velocity": 110, "channel": 0}, {"type": "note_off", "time": 43, "note": 52, "velocity": 110, "channel": 0}, {"type": "note_on", "time": 15, "note": 55, "velocity": 96, "channel": 0}, {"type": "note_off", "time": 21, "note": 55, "velocity": 96, "channel": 0}, {"type": "note_on", "time": 6, "note": 57, "velocity": 110, "channel": 0}, {"type": "note_off", "time": 38, "note": 57, "velocity": 110, "channel": 0}, {"type": "note_on", "time": 4, "note": 55, "velocity": 109, "channel": 0}, {"type": "note_off", "time": 33, "note": 55, "velocity": 109, "channel": 0}, {"type": "note_on", "time": 23, "note": 60, "velocity": 116, "channel": 0}, {"type": "note_off", "time": 58, "note": 60, "velocity": 116, "channel": 0}, {"type": "note_on", "time": 6, "note": 62, "velocity": 120, "channel": 0}, {"type": "note_off", "time": 53, "note": 62, "velocity": 120, "channel": 0}, {"type": "note_on", "time": 5, "note": 64, "velocity": 117, "channel": 0}, {"type": "note_off", "time": 25, "note": 64, "velocity": 117, "channel": 0}, {"type": "note_on", "time": 7, "note": 63, "velocity": 119, "channel": 0}, {"type": "note_off", "time": 24, "note": 63, "velocity": 119, "channel": 0}, {"type": "note_on", "time": 12, "note": 60, "velocity": 110, "channel": 0}, {"type": "note_off", "time": 33, "note": 60, "velocity": 110, "channel": 0}, {"type": "note_on", "time": 7, "note": 58, "velocity": 114, "channel": 0}, {"type": "note_off", "time": 49, "note": 58, "velocity": 114, "channel": 0}, {"type": "note_on", "time": 2, "note": 55, "velocity": 110, "channel": 0}, {"type": "note_off", "time": 43, "note": 55, "velocity": 110, "channel": 0}, {"type": "note_on", "time": 25, "note": 53, "velocity": 105, "channel": 0}, {"type": "note_off", "time": 27, "note": 53, "velocity": 105, "channel": 0}, {"type": "note_on", "time": 11, "note": 51, "velocity": 103, "channel": 0}, {"type": "note_off", "time": 42, "note": 51, "velocity": 103, "channel": 0}, {"type": "note_on", "time": 5, "note": 52, "velocity": 101, "channel": 0}, {"type": "note_off", "time": 45, "note": 52, "velocity": 101, "channel": 0}, {"type": "note_on", "time": 23, "note": 55, "velocity": 103, "channel": 0}, {"type": "note_off", "time": 42, "note": 55, "velocity": 103, "channel": 0}, {"type": "note_on", "time": 3, "note": 57, "velocity": 108, "channel": 0}, {"type": "note_off", "time": 46, "note": 57, "velocity": 108, "channel": 0}, {"type": "note_on", "time": 4, "note": 60, "velocity": 103, "channel": 0}, {"type": "note_off", "time": 57, "note": 60, "velocity": 103, "channel": 0}, {"type": "note_on", "time": 25, "note": 48, "velocity": 79, "channel": 0}, {"type": "note_off", "time": 105, "note": 48, "velocity": 79, "channel": 0}, {"type": "end_of_track", "time": 0}]]}