{"ticks_per_beat": 840, "tracks": [[{"type": "track_name", "name": "Melody", "time": 0}, {"type": "set_tempo", "tempo": 495867, "time": 0}, {"type": "key_signature", "key": "Db", "time": 0}, {"type": "time_signature", "numerator": 4, "denominator": 4, "clocks_per_click": 24, "notated_32nd_notes_per_beat": 8, "time": 0}, {"type": "note_on", "time": 22185, "note": 56, "velocity": 117, "channel": 0}, {"type": "note_off", "time": 245, "note": 56, "velocity": 117, "channel": 0}, {"type": "note_on", "time": 124, "note": 61, "velocity": 119, "channel": 0}, {"type": "note_off", "time": 255, "note": 61, "velocity": 119, "channel": 0}, {"type": "note_on", "time": 13, "note": 65, "velocity": 120, "channel": 0}, {"type": "note_off", "time": 186, "note": 65, "velocity": 120, "channel": 0}, {"type": "note_on", "time": 314, "note": 63, "velocity": 121, "channel": 0}, {"type": "note_off", "time": 221, "note": 63, "velocity": 121, "channel": 0}, {"type": "note_on", "time": 38, "note": 61, "velocity": 117, "channel": 0}, {"type": "note_off", "time": 345, "note": 61, "velocity": 117, "channel": 0}, {"type": "note_on", "time": 629, "note": 58, "velocity": 100, "channel": 0}, {"type": "note_off", "time": 127, "note": 58, "velocity": 100, "channel": 0}, {"type": "note_on", "time": 19, "note": 59, "velocity": 106, "channel": 0}, {"type": "note_off", "time": 79, "note": 59, "velocity": 106, "channel": 0}, {"type": "note_on", "time": 19, "note": 63, "velocity": 124, "channel": 0}, {"type": "note_off", "time": 136, "note": 63, "velocity": 124, "channel": 0}, {"type": "note_on", "time": 46, "note": 67, "velocity": 104, "channel": 0}, {"type": "note_off", "time": 124, "note": 67, "velocity": 104, "channel": 0}, {"type": "note_on", "time": 84, "note": 70, "velocity": 122, "channel": 0}, {"type": "note_off", "time": 331, "note": 70, "velocity": 122, "channel": 0}, {"type": "note_on", "time": 79, "note": 69, "velocity": 120, "channel": 0}, {"type": "note_off", "time": 378, "note": 69, "velocity": 120, "channel": 0}, {"type": "note_on", "time": 50, "note": 68, "velocity": 118, "channel": 0}, {"type": "note_off", "time": 383, "note": 68, "velocity": 118, "channel": 0}, {"type": "note_on", "time": 51, "note": 67, "velocity": 120, "channel": 0}, {"type": "note_off", "time": 357, "note": 67, "velocity": 120, "channel": 0}, {"type": "note_on", "time": 84, "note": 66, "velocity": 117, "channel": 0}, {"type": "note_off", "time": 487, "note": 66, "velocity": 117, "channel": 0}, {"type": "note_on", "time": 181, "note": 63, "velocity": 120, "channel": 0}, {"type": "note_off", "time": 556, "note": 63, "velocity": 120, "channel": 0}, {"type": "note_on", "time": 110, "note": 64, "velocity": 107, "channel": 0}, {"type": "note_off", "time": 973, "note": 64, "velocity": 107, "channel": 0}, {"type": "note_on", "time": 419, "note": 61, "velocity": 102, "channel": 0}, {"type": "note_off", "time": 174, "note": 61, "velocity": 102, "channel": 0}, {"type": "note_on", "time": 34, "note": 65, "velocity": 120, "channel": 0}, {"type": "note_off", "time": 302, "note": 65, "velocity": 120, "channel": 0}, {"type": "note_on", "time": 100, "note": 66, "velocity": 116, "channel": 0}, {"type": "note_off", "time": 398, "note": 66, "velocity": 116, "channel": 0}, {"type": "note_on", "time": 76, "note": 65, "velocity": 115, "channel": 0}, {"type": "note_off", "time": 243, "note": 65, "velocity": 115, "channel": 0}, {"type": "note_on", "time": 46, "note": 61, "velocity": 116, "channel": 0}, {"type": "note_off", "time": 143, "note": 61, "velocity": 116, "channel": 0}, {"type": "note_on", "time": 22, "note": 62, "velocity": 110, "channel": 0}, {"type": "note_off", "time": 89, "note": 62, "velocity": 110, "channel": 0}, {"type": "note_on", "time": 44, "note": 61, "velocity": 111, "channel": 0}, {"type": "note_off", "time": 153, "note": 61, "velocity": 111, "channel": 0}, {"type": "note_on", "time": 50, "note": 59, "velocity": 101, "channel": 0}, {"type": "note_off", "time": 221, "note": 59, "velocity": 101, "channel": 0}, {"type": "note_on", "time": 65, "note": 63, "velocity": 122, "channel": 0}, {"type": "note_off", "time": 625, "note": 63, "velocity": 122, "channel": 0}, {"type": "note_on", "time": 51, "note": 59, "velocity": 105, "channel": 0}, {"type": "note_off", "time": 698, "note": 59, "velocity": 105, "channel": 0}, {"type": "note_on", "time": 3044, "note": 61, "velocity": 120, "channel": 0}, {"type": "note_off", "time": 263, "note": 61, "velocity": 120, "channel": 0}, {"type": "note_on", "time": 44, "note": 59, "velocity": 110, "channel": 0}, {"type": "note_off", "time": 319, "note": 59, "velocity": 110, "channel": 0}, {"type": "note_on", "time": 68, "note": 58, "velocity": 96, "channel": 0}, {"type": "note_off", "time": 277, "note": 58, "velocity": 96, "channel": 0}, {"type": "note_on", "time": 105, "note": 61, "velocity": 121, "channel": 0}, {"type": "note_off", "time": 336, "note": 61, "velocity": 121, "channel": 0}, {"type": "note_on", "time": 49, "note": 63, "velocity": 125, "channel": 0}, {"type": "note_off", "time": 415, "note": 63, "velocity": 125, "channel": 0}, {"type": "note_on", "time": 63, "note": 65, "velocity": 121, "channel": 0}, {"type": "note_off", "time": 334, "note": 65, "velocity": 121, "channel": 0}, {"type": "note_on", "time": 145, "note": 68, "velocity": 115, "channel": 0}, {"type": "note_off", "time": 202, "note": 68, "velocity": 115, "channel": 0}, {"type": "note_on", "time": 15, "note": 70, "velocity": 119, "channel": 0}, {"type": "note_off", "time": 140, "note": 70, "velocity": 119, "channel": 0}, {"type": "note_on", "time": 19, "note": 68, "velocity": 117, "channel": 0}, {"type": "note_off", "time": 93, "note": 68, "velocity": 117, "channel": 0}, {"type": "note_on", "time": 25, "note": 67, "velocity": 116, "channel": 0}, {"type": "note_off", "time": 304, "note": 67, "velocity": 116, "channel": 0}, {"type": "note_on", "time": 33, "note": 66, "velocity": 112, "channel": 0}, {"type": "note_off", "time": 373, "note": 66, "velocity": 112, "channel": 0}, {"type": "note_on", "time": 61, "note": 65, "velocity": 114, "channel": 0}, {"type": "note_off", "time": 331, "note": 65, "velocity": 114, "channel": 0}, {"type": "note_on", "time": 83, "note": 64, "velocity": 110, "channel": 0}, {"type": "note_off", "time": 1034, "note": 64, "velocity": 110, "channel": 0}, {"type": "note_on", "time": 71, "note": 63, "velocity": 116, "channel": 0}, {"type": "note_off", "time": 299, "note": 63, "velocity": 116, "channel": 0}, {"type": "note_on", "time": 86, "note": 62, "velocity": 116, "channel": 0}, {"type": "note_off", "time": 177, "note": 62, "velocity": 116, "channel": 0}, {"type": "note_on", "time": 90, "note": 61, "velocity": 114, "channel": 0}, {"type": "note_off", "time": 145, "note": 61, "velocity": 114, "channel": 0}, {"type": "note_on", "time": 49, "note": 57, "velocity": 107, "channel": 0}, {"type": "note_off", "time": 186, "note": 57, "velocity": 107, "channel": 0}, {"type": "note_on", "time": 44, "note": 54, "velocity": 107, "channel": 0}, {"type": "note_off", "time": 255, "note": 54, "velocity": 107, "channel": 0}, {"type": "note_on", "time": 24, "note": 56, "velocity": 110, "channel": 0}, {"type": "note_off", "time": 236, "note": 56, "velocity": 110, "channel": 0}, {"type": "note_on", "time": 30, "note": 54, "velocity": 117, "channel": 0}, {"type": "note_off", "time": 93, "note": 54, "velocity": 117, "channel": 0}, {"type": "note_on", "time": 29, "note": 53, "velocity": 109, "channel": 0}, {"type": "note_off", "time": 89, "note": 53, "velocity": 109, "channel": 0}, {"type": "note_on", "time": 141, "note": 49, "velocity": 106, "channel": 0}, {"type": "note_off", "time": 86, "note": 49, "velocity": 106, "channel": 0}, {"type": "note_on", "time": 29, "note": 51, "velocity": 103, "channel": 0}, {"type": "note_off", "time": 114, "note": 51, "velocity": 103, "channel": 0}, {"type": "note_on", "time": 8, "note": 53, "velocity": 110, "channel": 0}, {"type": "note_off", "time": 807, "note": 53, "velocity": 110, "channel": 0}, {"type": "note_on", "time": 2378, "note": 72, "velocity": 124, "channel": 0}, {"type": "note_off", "time": 236, "note": 72, "velocity": 124, "channel": 0}, {"type": "note_on", "time": 27, "note": 71, "velocity": 122, "channel": 0}, {"type": "note_off", "time": 191, "note": 71, "velocity": 122, "channel": 0}, {"type": "note_on", "time": 39, "note": 70, "velocity": 98, "channel": 0}, {"type": "note_off", "time": 233, "note": 70, "velocity": 98, "channel": 0}, {"type": "note_on", "time": 20, "note": 69, "velocity": 114, "channel": 0}, {"type": "note_off", "time": 203, "note": 69, "velocity": 114, "channel": 0}, {"type": "note_on", "time": 31, "note": 68, "velocity": 113, "channel": 0}, {"type": "note_off", "time": 214, "note": 68, "velocity": 113, "channel": 0}, {"type": "note_on", "time": 43, "note": 66, "velocity": 115, "channel": 0}, {"type": "note_off", "time": 172, "note": 66, "velocity": 115, "channel": 0}, {"type": "note_on", "time": 32, "note": 65, "velocity": 107, "channel": 0}, {"type": "note_off", "time": 160, "note": 65, "velocity": 107, "channel": 0}, {"type": "note_on", "time": 19, "note": 63, "velocity": 116, "channel": 0}, {"type": "note_off", "time": 205, "note": 63, "velocity": 116, "channel": 0}, {"type": "note_on", "time": 25, "note": 62, "velocity": 118, "channel": 0}, {"type": "note_off", "time": 183, "note": 62, "velocity": 118, "channel": 0}, {"type": "note_on", "time": 22, "note": 65, "velocity": 99, "channel": 0}, {"type": "note_off", "time": 134, "note": 65, "velocity": 99, "channel": 0}, {"type": "note_on", "time": 43, "note": 59, "velocity": 107, "channel": 0}, {"type": "note_off", "time": 219, "note": 59, "velocity": 107, "channel": 0}, {"type": "note_on", "time": 131, "note": 58, "velocity": 94, "channel": 0}, {"type": "note_off", "time": 126, "note": 58, "velocity": 94, "channel": 0}, {"type": "note_on", "time": 29, "note": 59, "velocity": 89, "channel": 0}, {"type": "note_off", "time": 105, "note": 59, "velocity": 89, "channel": 0}, {"type": "note_on", "time": 20, "note": 66, "velocity": 115, "channel": 0}, {"type": "note_off", "time": 167, "note": 66, "velocity": 115, "channel": 0}, {"type": "note_on", "time": 24, "note": 65, "velocity": 111, "channel": 0}, {"type": "note_off", "time": 138, "note": 65, "velocity": 111, "channel": 0}, {"type": "note_on", "time": 29, "note": 63, "velocity": 115, "channel": 0}, {"type": "note_off", "time": 247, "note": 63, "velocity": 115, "channel": 0}, {"type": "note_on", "time": 41, "note": 62, "velocity": 101, "channel": 0}, {"type": "note_off", "time": 107, "note": 62, "velocity": 101, "channel": 0}, {"type": "note_on", "time": 17, "note": 63, "velocity": 102, "channel": 0}, {"type": "note_off", "time": 115, "note": 63, "velocity": 102, "channel": 0}, {"type": "note_on", "time": 44, "note": 65, "velocity": 113, "channel": 0}, {"type": "note_off", "time": 271, "note": 65, "velocity": 113, "channel": 0}, {"type": "note_on", "time": 22, "note": 62, "velocity": 103, "channel": 0}, {"type": "note_off", "time": 103, "note": 62, "velocity": 103, "channel": 0}, {"type": "note_on", "time": 25, "note": 63, "velocity": 115, "channel": 0}, {"type": "note_off", "time": 247, "note": 63, "velocity": 115, "channel": 0}, {"type": "note_on", "time": 41, "note": 58, "velocity": 97, "channel": 0}, {"type": "note_off", "time": 188, "note": 58, "velocity": 97, "channel": 0}, {"type": "note_on", "time": 57, "note": 54, "velocity": 109, "channel": 0}, {"type": "note_off", "time": 247, "note": 54, "velocity": 109, "channel": 0}, {"type": "note_on", "time": 69, "note": 58, "velocity": 94, "channel": 0}, {"type": "note_off", "time": 745, "note": 58, "velocity": 94, "channel": 0}, {"type": "note_on", "time": 1213, "note": 51, "velocity": 108, "channel": 0}, {"type": "note_off", "time": 165, "note": 51, "velocity": 108, "channel": 0}, {"type": "note_on", "time": 6, "note": 57, "velocity": 101, "channel": 0}, {"type": "note_off", "time": 65, "note": 57, "velocity": 101, "channel": 0}, {"type": "note_on", "time": 11, "note": 62, "velocity": 104, "channel": 0}, {"type": "note_off", "time": 109, "note": 62, "velocity": 104, "channel": 0}, {"type": "note_on", "time": 23, "note": 67, "velocity": 112, "channel": 0}, {"type": "note_off", "time": 84, "note": 67, "velocity": 112, "channel": 0}, {"type": "note_on", "time": 14, "note": 70, "velocity": 111, "channel": 0}, {"type": "note_off", "time": 185, "note": 70, "velocity": 111, "channel": 0}, {"type": "note_on", "time": 39, "note": 64, "velocity": 118, "channel": 0}, {"type": "note_off", "time": 1170, "note": 64, "velocity": 118, "channel": 0}, {"type": "note_on", "time": 91, "note": 70, "velocity": 103, "channel": 0}, {"type": "note_off", "time": 105, "note": 70, "velocity": 103, "channel": 0}, {"type": "note_on", "time": 13, "note": 67, "velocity": 103, "channel": 0}, {"type": "note_off", "time": 88, "note": 67, "velocity": 103, "channel": 0}, {"type": "note_on", "time": 153, "note": 63, "velocity": 106, "channel": 0}, {"type": "note_off", "time": 660, "note": 63, "velocity": 106, "channel": 0}, {"type": "note_on", "time": 867, "note": 63, "velocity": 121, "channel": 0}, {"type": "note_off", "time": 319, "note": 63, "velocity": 121, "channel": 0}, {"type": "note_on", "time": 43, "note": 60, "velocity": 98, "channel": 0}, {"type": "note_off", "time": 155, "note": 60, "velocity": 98, "channel": 0}, {"type": "note_on", "time": 44, "note": 61, "velocity": 101, "channel": 0}, {"type": "note_off", "time": 169, "note": 61, "velocity": 101, "channel": 0}, {"type": "note_on", "time": 103, "note": 63, "velocity": 105, "channel": 0}, {"type": "note_off", "time": 98, "note": 63, "velocity": 105, "channel": 0}, {"type": "note_on", "time": 25, "note": 64, "velocity": 116, "channel": 0}, {"type": "note_off", "time": 103, "note": 64, "velocity": 116, "channel": 0}, {"type": "note_on", "time": 13, "note": 65, "velocity": 111, "channel": 0}, {"type": "note_off", "time": 184, "note": 65, "velocity": 111, "channel": 0}, {"type": "note_on", "time": 82, "note": 70, "velocity": 105, "channel": 0}, {"type": "note_off", "time": 242, "note": 70, "velocity": 105, "channel": 0}, {"type": "note_on", "time": 51, "note": 69, "velocity": 115, "channel": 0}, {"type": "note_off", "time": 236, "note": 69, "velocity": 115, "channel": 0}, {"type": "note_on", "time": 29, "note": 68, "velocity": 110, "channel": 0}, {"type": "note_off", "time": 162, "note": 68, "velocity": 110, "channel": 0}, {"type": "note_on", "time": 29, "note": 67, "velocity": 109, "channel": 0}, {"type": "note_off", "time": 235, "note": 67, "velocity": 109, "channel": 0}, {"type": "note_on", "time": 62, "note": 66, "velocity": 111, "channel": 0}, {"type": "note_off", "time": 101, "note": 66, "velocity": 111, "channel": 0}, {"type": "note_on", "time": 22, "note": 65, "velocity": 105, "channel": 0}, {"type": "note_off", "time": 86, "note": 65, "velocity": 105, "channel": 0}, {"type": "note_on", "time": 41, "note": 62, "velocity": 111, "channel": 0}, {"type": "note_off", "time": 240, "note": 62, "velocity": 111, "channel": 0}, {"type": "note_on", "time": 568, "note": 65, "velocity": 113, "channel": 0}, {"type": "note_off", "time": 171, "note": 65, "velocity": 113, "channel": 0}, {"type": "note_on", "time": 39, "note": 62, "velocity": 105, "channel": 0}, {"type": "note_off", "time": 146, "note": 62, "velocity": 105, "channel": 0}, {"type": "note_on", "time": 39, "note": 63, "velocity": 119, "channel": 0}, {"type": "note_off", "time": 226, "note": 63, "velocity": 119, "channel": 0}, {"type": "note_on", "time": 41, "note": 61, "velocity": 116, "channel": 0}, {"type": "note_off", "time": 209, "note": 61, "velocity": 116, "channel": 0}, {"type": "note_on", "time": 29, "note": 60, "velocity": 106, "channel": 0}, {"type": "note_off", "time": 141, "note": 60, "velocity": 106, "channel": 0}, {"type": "note_on", "time": 51, "note": 58, "velocity": 100, "channel": 0}, {"type": "note_off", "time": 126, "note": 58, "velocity": 100, "channel": 0}, {"type": "note_on", "time": 95, "note": 57, "velocity": 103, "channel": 0}, {"type": "note_off", "time": 122, "note": 57, "velocity": 103, "channel": 0}, {"type": "note_on", "time": 29, "note": 58, "velocity": 91, "channel": 0}, {"type": "note_off", "time": 114, "note": 58, "velocity": 91, "channel": 0}, {"type": "note_on", "time": 100, "note": 61, "velocity": 122, "channel": 0}, {"type": "note_off", "time": 176, "note": 61, "velocity": 122, "channel": 0}, {"type": "note_on", "time": 53, "note": 57, "velocity": 108, "channel": 0}, {"type": "note_off", "time": 174, "note": 57, "velocity": 108, "channel": 0}, {"type": "note_on", "time": 51, "note": 54, "velocity": 107, "channel": 0}, {"type": "note_off", "time": 290, "note": 54, "velocity": 107, "channel": 0}, {"type": "note_on", "time": 29, "note": 56, "velocity": 115, "channel": 0}, {"type": "note_off", "time": 546, "note": 56, "velocity": 115, "channel": 0}, {"type": "note_on", "time": 651, "note": 61, "velocity": 120, "channel": 0}, {"type": "note_off", "time": 395, "note": 61, "velocity": 120, "channel": 0}, {"type": "note_on", "time": 228, "note": 63, "velocity": 123, "channel": 0}, {"type": "note_off", "time": 558, "note": 63, "velocity": 123, "channel": 0}, {"type": "note_on", "time": 39, "note": 65, "velocity": 116, "channel": 0}, {"type": "note_off", "time": 860, "note": 65, "velocity": 116, "channel": 0}, {"type": "note_on", "time": 1071, "note": 54, "velocity": 105, "channel": 0}, {"type": "note_off", "time": 309, "note": 54, "velocity": 105, "channel": 0}, {"type": "note_on", "time": 74, "note": 61, "velocity": 121, "channel": 0}, {"type": "note_off", "time": 288, "note": 61, "velocity": 121, "channel": 0}, {"type": "note_on", "time": 273, "note": 63, "velocity": 120, "channel": 0}, {"type": "note_off", "time": 484, "note": 63, "velocity": 120, "channel": 0}, {"type": "note_on", "time": 41, "note": 64, "velocity": 109, "channel": 0}, {"type": "note_off", "time": 857, "note": 64, "velocity": 109, "channel": 0}, {"type": "note_on", "time": 2642, "note": 56, "velocity": 116, "channel": 0}, {"type": "note_off", "time": 266, "note": 56, "velocity": 116, "channel": 0}, {"type": "note_on", "time": 36, "note": 61, "velocity": 119, "channel": 0}, {"type": "note_off", "time": 305, "note": 61, "velocity": 119, "channel": 0}, {"type": "note_on", "time": 60, "note": 63, "velocity": 125, "channel": 0}, {"type": "note_off", "time": 319, "note": 63, "velocity": 125, "channel": 0}, {"type": "note_on", "time": 44, "note": 65, "velocity": 121, "channel": 0}, {"type": "note_off", "time": 319, "note": 65, "velocity": 121, "channel": 0}, {"type": "note_on", "time": 98, "note": 66, "velocity": 119, "channel": 0}, {"type": "note_off", "time": 307, "note": 66, "velocity": 119, "channel": 0}, {"type": "note_on", "time": 57, "note": 65, "velocity": 117, "channel": 0}, {"type": "note_off", "time": 222, "note": 65, "velocity": 117, "channel": 0}, {"type": "note_on", "time": 63, "note": 61, "velocity": 114, "channel": 0}, {"type": "note_off", "time": 219, "note": 61, "velocity": 114, "channel": 0}, {"type": "note_on", "time": 38, "note": 62, "velocity": 95, "channel": 0}, {"type": "note_off", "time": 331, "note": 62, "velocity": 95, "channel": 0}, {"type": "note_on", "time": 25, "note": 63, "velocity": 120, "channel": 0}, {"type": "note_off", "time": 235, "note": 63, "velocity": 120, "channel": 0}, {"type": "note_on", "time": 62, "note": 59, "velocity": 108, "channel": 0}, {"type": "note_off", "time": 214, "note": 59, "velocity": 108, "channel": 0}, {"type": "note_on", "time": 359, "note": 61, "velocity": 114, "channel": 0}, {"type": "note_off", "time": 283, "note": 61, "velocity": 114, "channel": 0}, {"type": "note_on", "time": 38, "note": 59, "velocity": 105, "channel": 0}, {"type": "note_off", "time": 238, "note": 59, "velocity": 105, "channel": 0}, {"type": "note_on", "time": 121, "note": 58, "velocity": 95, "channel": 0}, {"type": "note_off", "time": 912, "note": 58, "velocity": 95, "channel": 0}, {"type": "note_on", "time": 2827, "note": 73, "velocity": 121, "channel": 0}, {"type": "note_off", "time": 285, "note": 73, "velocity": 121, "channel": 0}, {"type": "note_on", "time": 72, "note": 71, "velocity": 118, "channel": 0}, {"type": "note_off", "time": 261, "note": 71, "velocity": 118, "channel": 0}, {"type": "note_on", "time": 22, "note": 68, "velocity": 114, "channel": 0}, {"type": "note_off", "time": 297, "note": 68, "velocity": 114, "channel": 0}, {"type": "note_on", "time": 27, "note": 67, "velocity": 112, "channel": 0}, {"type": "note_off", "time": 293, "note": 67, "velocity": 112, "channel": 0}, {"type": "note_on", "time": 34, "note": 66, "velocity": 114, "channel": 0}, {"type": "note_off", "time": 222, "note": 66, "velocity": 114, "channel": 0}, {"type": "note_on", "time": 48, "note": 64, "velocity": 116, "channel": 0}, {"type": "note_off", "time": 261, "note": 64, "velocity": 116, "channel": 0}, {"type": "note_on", "time": 38, "note": 61, "velocity": 103, "channel": 0}, {"type": "note_off", "time": 146, "note": 61, "velocity": 103, "channel": 0}, {"type": "note_on", "time": 82, "note": 65, "velocity": 113, "channel": 0}, {"type": "note_off", "time": 1248, "note": 65, "velocity": 113, "channel": 0}, {"type": "note_on", "time": 1027, "note": 63, "velocity": 118, "channel": 0}, {"type": "note_off", "time": 280, "note": 63, "velocity": 118, "channel": 0}, {"type": "note_on", "time": 783, "note": 66, "velocity": 107, "channel": 0}, {"type": "note_off", "time": 563, "note": 66, "velocity": 107, "channel": 0}, {"type": "note_on", "time": 70, "note": 68, "velocity": 119, "channel": 0}, {"type": "note_off", "time": 204, "note": 68, "velocity": 119, "channel": 0}, {"type": "note_on", "time": 24, "note": 66, "velocity": 121, "channel": 0}, {"type": "note_off", "time": 122, "note": 66, "velocity": 121, "channel": 0}, {"type": "note_on", "time": 34, "note": 65, "velocity": 108, "channel": 0}, {"type": "note_off", "time": 212, "note": 65, "velocity": 108, "channel": 0}, {"type": "note_on", "time": 31, "note": 63, "velocity": 120, "channel": 0}, {"type": "note_off", "time": 145, "note": 63, "velocity": 120, "channel": 0}, {"type": "note_on", "time": 17, "note": 62, "velocity": 121, "channel": 0}, {"type": "note_off", "time": 212, "note": 62, "velocity": 121, "channel": 0}, {"type": "note_on", "time": 119, "note": 56, "velocity": 107, "channel": 0}, {"type": "note_off", "time": 291, "note": 56, "velocity": 107, "channel": 0}, {"type": "note_on", "time": 162, "note": 59, "velocity": 111, "channel": 0}, {"type": "note_off", "time": 228, "note": 59, "velocity": 111, "channel": 0}, {"type": "note_on", "time": 19, "note": 58, "velocity": 103, "channel": 0}, {"type": "note_off", "time": 83, "note": 58, "velocity": 103, "channel": 0}, {"type": "note_on", "time": 47, "note": 57, "velocity": 100, "channel": 0}, {"type": "note_off", "time": 223, "note": 57, "velocity": 100, "channel": 0}, {"type": "note_on", "time": 178, "note": 65, "velocity": 118, "channel": 0}, {"type": "note_off", "time": 196, "note": 65, "velocity": 118, "channel": 0}, {"type": "note_on", "time": 17, "note": 66, "velocity": 118, "channel": 0}, {"type": "note_off", "time": 242, "note": 66, "velocity": 118, "channel": 0}, {"type": "note_on", "time": 28, "note": 62, "velocity": 117, "channel": 0}, {"type": "note_off", "time": 200, "note": 62, "velocity": 117, "channel": 0}, {"type": "note_on", "time": 50, "note": 65, "velocity": 118, "channel": 0}, {"type": "note_off", "time": 234, "note": 65, "velocity": 118, "channel": 0}, {"type": "note_on", "time": 15, "note": 63, "velocity": 111, "channel": 0}, {"type": "note_off", "time": 808, "note": 63, "velocity": 111, "channel": 0}, {"type": "note_on", "time": 582, "note": 70, "velocity": 112, "channel": 0}, {"type": "note_off", "time": 115, "note": 70, "velocity": 112, "channel": 0}, {"type": "note_on", "time": 19, "note": 65, "velocity": 117, "channel": 0}, {"type": "note_off", "time": 135, "note": 65, "velocity": 117, "channel": 0}, {"type": "note_on", "time": 19, "note": 63, "velocity": 122, "channel": 0}, {"type": "note_off", "time": 143, "note": 63, "velocity": 122, "channel": 0}, {"type": "note_on", "time": 12, "note": 62, "velocity": 122, "channel": 0}, {"type": "note_off", "time": 276, "note": 62, "velocity": 122, "channel": 0}, {"type": "note_on", "time": 194, "note": 58, "velocity": 102, "channel": 0}, {"type": "note_off", "time": 175, "note": 58, "velocity": 102, "channel": 0}, {"type": "note_on", "time": 86, "note": 61, "velocity": 110, "channel": 0}, {"type": "note_off", "time": 102, "note": 61, "velocity": 110, "channel": 0}, {"type": "note_on", "time": 18, "note": 62, "velocity": 111, "channel": 0}, {"type": "note_off", "time": 114, "note": 62, "velocity": 111, "channel": 0}, {"type": "note_on", "time": 35, "note": 61, "velocity": 110, "channel": 0}, {"type": "note_off", "time": 165, "note": 61, "velocity": 110, "channel": 0}, {"type": "note_on", "time": 38, "note": 58, "velocity": 98, "channel": 0}, {"type": "note_off", "time": 118, "note": 58, "velocity": 98, "channel": 0}, {"type": "note_on", "time": 122, "note": 60, "velocity": 109, "channel": 0}, {"type": "note_off", "time": 501, "note": 60, "velocity": 109, "channel": 0}, {"type": "note_on", "time": 69, "note": 65, "velocity": 111, "channel": 0}, {"type": "note_off", "time": 625, "note": 65, "velocity": 111, "channel": 0}, {"type": "note_on", "time": 1006, "note": 67, "velocity": 118, "channel": 0}, {"type": "note_off", "time": 318, "note": 67, "velocity": 118, "channel": 0}, {"type": "note_on", "time": 88, "note": 68, "velocity": 115, "channel": 0}, {"type": "note_off", "time": 413, "note": 68, "velocity": 115, "channel": 0}, {"type": "note_on", "time": 51, "note": 66, "velocity": 117, "channel": 0}, {"type": "note_off", "time": 331, "note": 66, "velocity": 117, "channel": 0}, {"type": "note_on", "time": 112, "note": 65, "velocity": 113, "channel": 0}, {"type": "note_off", "time": 641, "note": 65, "velocity": 113, "channel": 0}, {"type": "note_on", "time": 134, "note": 61, "velocity": 118, "channel": 0}, {"type": "note_off", "time": 240, "note": 61, "velocity": 118, "channel": 0}, {"type": "note_on", "time": 183, "note": 61, "velocity": 98, "channel": 0}, {"type": "note_off", "time": 1045, "note": 61, "velocity": 98, "channel": 0}, {"type": "note_on", "time": 4262, "note": 71, "velocity": 9, "channel": 0}, {"type": "note_off", "time": 413, "note": 71, "velocity": 9, "channel": 0}, {"type": "note_on", "time": 44, "note": 70, "velocity": 118, "channel": 0}, {"type": "note_off", "time": 235, "note": 70, "velocity": 118, "channel": 0}, {"type": "note_on", "time": 55, "note": 68, "velocity": 121, "channel": 0}, {"type": "note_off", "time": 350, "note": 68, "velocity": 121, "channel": 0}, {"type": "note_on", "time": 205, "note": 71, "velocity": 118, "channel": 0}, {"type": "note_off", "time": 363, "note": 71, "velocity": 118, "channel": 0}, {"type": "note_on", "time": 98, "note": 70, "velocity": 116, "channel": 0}, {"type": "note_off", "time": 146, "note": 70, "velocity": 116, "channel": 0}, {"type": "note_on", "time": 20, "note": 68, "velocity": 120, "channel": 0}, {"type": "note_off", "time": 214, "note": 68, "velocity": 120, "channel": 0}, {"type": "note_on", "time": 31, "note": 67, "velocity": 116, "channel": 0}, {"type": "note_off", "time": 222, "note": 67, "velocity": 116, "channel": 0}, {"type": "note_on", "time": 188, "note": 71, "velocity": 110, "channel": 0}, {"type": "note_off", "time": 314, "note": 71, "velocity": 110, "channel": 0}, {"type": "note_on", "time": 38, "note": 70, "velocity": 112, "channel": 0}, {"type": "note_off", "time": 136, "note": 70, "velocity": 112, "channel": 0}, {"type": "note_on", "time": 34, "note": 70, "velocity": 111, "channel": 0}, {"type": "note_off", "time": 119, "note": 70, "velocity": 111, "channel": 0}, {"type": "note_on", "time": 32, "note": 68, "velocity": 119, "channel": 0}, {"type": "note_off", "time": 165, "note": 68, "velocity": 119, "channel": 0}, {"type": "note_on", "time": 27, "note": 67, "velocity": 123, "channel": 0}, {"type": "note_off", "time": 269, "note": 67, "velocity": 123, "channel": 0}, {"type": "note_on", "time": 411, "note": 63, "velocity": 124, "channel": 0}, {"type": "note_off", "time": 205, "note": 63, "velocity": 124, "channel": 0}, {"type": "note_on", "time": 16, "note": 65, "velocity": 117, "channel": 0}, {"type": "note_off", "time": 65, "note": 65, "velocity": 117, "channel": 0}, {"type": "note_on", "time": 2, "note": 64, "velocity": 119, "channel": 0}, {"type": "note_off", "time": 136, "note": 64, "velocity": 119, "channel": 0}, {"type": "note_on", "time": 39, "note": 63, "velocity": 125, "channel": 0}, {"type": "note_off", "time": 248, "note": 63, "velocity": 125, "channel": 0}, {"type": "note_on", "time": 30, "note": 61, "velocity": 125, "channel": 0}, {"type": "note_off", "time": 159, "note": 61, "velocity": 125, "channel": 0}, {"type": "note_on", "time": 38, "note": 60, "velocity": 112, "channel": 0}, {"type": "note_off", "time": 282, "note": 60, "velocity": 112, "channel": 0}, {"type": "note_on", "time": 71, "note": 63, "velocity": 125, "channel": 0}, {"type": "note_off", "time": 238, "note": 63, "velocity": 125, "channel": 0}, {"type": "note_on", "time": 41, "note": 60, "velocity": 109, "channel": 0}, {"type": "note_off", "time": 195, "note": 60, "velocity": 109, "channel": 0}, {"type": "note_on", "time": 24, "note": 61, "velocity": 124, "channel": 0}, {"type": "note_off", "time": 164, "note": 61, "velocity": 124, "channel": 0}, {"type": "note_on", "time": 47, "note": 58, "velocity": 105, "channel": 0}, {"type": "note_off", "time": 145, "note": 58, "velocity": 105, "channel": 0}, {"type": "note_on", "time": 33, "note": 54, "velocity": 113, "channel": 0}, {"type": "note_off", "time": 156, "note": 54, "velocity": 113, "channel": 0}, {"type": "note_on", "time": 29, "note": 51, "velocity": 111, "channel": 0}, {"type": "note_off", "time": 188, "note": 51, "velocity": 111, "channel": 0}, {"type": "note_on", "time": 29, "note": 52, "velocity": 106, "channel": 0}, {"type": "note_off", "time": 238, "note": 52, "velocity": 106, "channel": 0}, {"type": "note_on", "time": 615, "note": 60, "velocity": 110, "channel": 0}, {"type": "note_off", "time": 194, "note": 60, "velocity": 110, "channel": 0}, {"type": "note_on", "time": 19, "note": 58, "velocity": 102, "channel": 0}, {"type": "note_off", "time": 65, "note": 58, "velocity": 102, "channel": 0}, {"type": "note_on", "time": 33, "note": 56, "velocity": 110, "channel": 0}, {"type": "note_off", "time": 211, "note": 56, "velocity": 110, "channel": 0}, {"type": "note_on", "time": 61, "note": 66, "velocity": 102, "channel": 0}, {"type": "note_off", "time": 152, "note": 66, "velocity": 102, "channel": 0}, {"type": "note_on", "time": 34, "note": 64, "velocity": 112, "channel": 0}, {"type": "note_off", "time": 165, "note": 64, "velocity": 112, "channel": 0}, {"type": "note_on", "time": 282, "note": 60, "velocity": 118, "channel": 0}, {"type": "note_off", "time": 168, "note": 60, "velocity": 118, "channel": 0}, {"type": "note_on", "time": 28, "note": 63, "velocity": 127, "channel": 0}, {"type": "note_off", "time": 194, "note": 63, "velocity": 127, "channel": 0}, {"type": "note_on", "time": 33, "note": 61, "velocity": 119, "channel": 0}, {"type": "note_off", "time": 197, "note": 61, "velocity": 119, "channel": 0}, {"type": "note_on", "time": 25, "note": 63, "velocity": 120, "channel": 0}, {"type": "note_off", "time": 210, "note": 63, "velocity": 120, "channel": 0}, {"type": "note_on", "time": 36, "note": 66, "velocity": 110, "channel": 0}, {"type": "note_off", "time": 277, "note": 66, "velocity": 110, "channel": 0}, {"type": "note_on", "time": 24, "note": 68, "velocity": 119, "channel": 0}, {"type": "note_off", "time": 312, "note": 68, "velocity": 119, "channel": 0}, {"type": "note_on", "time": 566, "note": 66, "velocity": 121, "channel": 0}, {"type": "note_off", "time": 198, "note": 66, "velocity": 121, "channel": 0}, {"type": "note_on", "time": 23, "note": 67, "velocity": 119, "channel": 0}, {"type": "note_off", "time": 69, "note": 67, "velocity": 119, "channel": 0}, {"type": "note_on", "time": 5, "note": 66, "velocity": 124, "channel": 0}, {"type": "note_off", "time": 114, "note": 66, "velocity": 124, "channel": 0}, {"type": "note_on", "time": 16, "note": 65, "velocity": 121, "channel": 0}, {"type": "note_off", "time": 210, "note": 65, "velocity": 121, "channel": 0}, {"type": "note_on", "time": 41, "note": 61, "velocity": 115, "channel": 0}, {"type": "note_off", "time": 236, "note": 61, "velocity": 115, "channel": 0}, {"type": "note_on", "time": 19, "note": 62, "velocity": 107, "channel": 0}, {"type": "note_off", "time": 136, "note": 62, "velocity": 107, "channel": 0}, {"type": "note_on", "time": 30, "note": 63, "velocity": 122, "channel": 0}, {"type": "note_off", "time": 239, "note": 63, "velocity": 122, "channel": 0}, {"type": "note_on", "time": 283, "note": 60, "velocity": 103, "channel": 0}, {"type": "note_off", "time": 124, "note": 60, "velocity": 103, "channel": 0}, {"type": "note_on", "time": 21, "note": 61, "velocity": 125, "channel": 0}, {"type": "note_off", "time": 173, "note": 61, "velocity": 125, "channel": 0}, {"type": "note_on", "time": 52, "note": 59, "velocity": 113, "channel": 0}, {"type": "note_off", "time": 222, "note": 59, "velocity": 113, "channel": 0}, {"type": "note_on", "time": 25, "note": 56, "velocity": 116, "channel": 0}, {"type": "note_off", "time": 145, "note": 56, "velocity": 116, "channel": 0}, {"type": "note_on", "time": 147, "note": 58, "velocity": 104, "channel": 0}, {"type": "note_off", "time": 447, "note": 58, "velocity": 104, "channel": 0}, {"type": "note_on", "time": 993, "note": 61, "velocity": 123, "channel": 0}, {"type": "note_off", "time": 287, "note": 61, "velocity": 123, "channel": 0}, {"type": "note_on", "time": 164, "note": 73, "velocity": 126, "channel": 0}, {"type": "note_off", "time": 274, "note": 73, "velocity": 126, "channel": 0}, {"type": "note_on", "time": 31, "note": 71, "velocity": 120, "channel": 0}, {"type": "note_off", "time": 259, "note": 71, "velocity": 120, "channel": 0}, {"type": "note_on", "time": 25, "note": 68, "velocity": 115, "channel": 0}, {"type": "note_off", "time": 385, "note": 68, "velocity": 115, "channel": 0}, {"type": "note_on", "time": 34, "note": 67, "velocity": 114, "channel": 0}, {"type": "note_off", "time": 232, "note": 67, "velocity": 114, "channel": 0}, {"type": "note_on", "time": 43, "note": 66, "velocity": 114, "channel": 0}, {"type": "note_off", "time": 234, "note": 66, "velocity": 114, "channel": 0}, {"type": "note_on", "time": 104, "note": 64, "velocity": 114, "channel": 0}, {"type": "note_off", "time": 330, "note": 64, "velocity": 114, "channel": 0}, {"type": "note_on", "time": 49, "note": 61, "velocity": 113, "channel": 0}, {"type": "note_off", "time": 260, "note": 61, "velocity": 113, "channel": 0}, {"type": "note_on", "time": 115, "note": 56, "velocity": 114, "channel": 0}, {"type": "note_off", "time": 283, "note": 56, "velocity": 114, "channel": 0}, {"type": "note_on", "time": 32, "note": 54, "velocity": 106, "channel": 0}, {"type": "note_off", "time": 981, "note": 54, "velocity": 106, "channel": 0}, {"type": "note_on", "time": 2544, "note": 49, "velocity": 101, "channel": 0}, {"type": "note_off", "time": 264, "note": 49, "velocity": 101, "channel": 0}, {"type": "note_on", "time": 27, "note": 52, "velocity": 104, "channel": 0}, {"type": "note_off", "time": 340, "note": 52, "velocity": 104, "channel": 0}, {"type": "note_on", "time": 29, "note": 55, "velocity": 107, "channel": 0}, {"type": "note_off", "time": 133, "note": 55, "velocity": 107, "channel": 0}, {"type": "note_on", "time": 20, "note": 58, "velocity": 95, "channel": 0}, {"type": "note_off", "time": 124, "note": 58, "velocity": 95, "channel": 0}, {"type": "note_on", "time": 32, "note": 64, "velocity": 103, "channel": 0}, {"type": "note_off", "time": 105, "note": 64, "velocity": 103, "channel": 0}, {"type": "note_on", "time": 58, "note": 61, "velocity": 116, "channel": 0}, {"type": "note_off", "time": 399, "note": 61, "velocity": 116, "channel": 0}, {"type": "note_on", "time": 124, "note": 65, "velocity": 113, "channel": 0}, {"type": "note_off", "time": 394, "note": 65, "velocity": 113, "channel": 0}, {"type": "note_on", "time": 84, "note": 68, "velocity": 114, "channel": 0}, {"type": "note_off", "time": 359, "note": 68, "velocity": 114, "channel": 0}, {"type": "note_on", "time": 76, "note": 73, "velocity": 117, "channel": 0}, {"type": "note_off", "time": 307, "note": 73, "velocity": 117, "channel": 0}, {"type": "note_on", "time": 86, "note": 68, "velocity": 116, "channel": 0}, {"type": "note_off", "time": 324, "note": 68, "velocity": 116, "channel": 0}, {"type": "note_on", "time": 27, "note": 67, "velocity": 116, "channel": 0}, {"type": "note_off", "time": 259, "note": 67, "velocity": 116, "channel": 0}, {"type": "note_on", "time": 17, "note": 66, "velocity": 111, "channel": 0}, {"type": "note_off", "time": 165, "note": 66, "velocity": 111, "channel": 0}, {"type": "note_on", "time": 96, "note": 64, "velocity": 108, "channel": 0}, {"type": "note_off", "time": 183, "note": 64, "velocity": 108, "channel": 0}, {"type": "note_on", "time": 46, "note": 59, "velocity": 106, "channel": 0}, {"type": "note_off", "time": 162, "note": 59, "velocity": 106, "channel": 0}, {"type": "note_on", "time": 24, "note": 56, "velocity": 104, "channel": 0}, {"type": "note_off", "time": 102, "note": 56, "velocity": 104, "channel": 0}, {"type": "note_on", "time": 23, "note": 55, "velocity": 104, "channel": 0}, {"type": "note_off", "time": 162, "note": 55, "velocity": 104, "channel": 0}, {"type": "note_on", "time": 72, "note": 52, "velocity": 92, "channel": 0}, {"type": "note_off", "time": 405, "note": 52, "velocity": 92, "channel": 0}, {"type": "note_on", "time": 925, "note": 51, "velocity": 98, "channel": 0}, {"type": "note_off", "time": 92, "note": 51, "velocity": 98, "channel": 0}, {"type": "note_on", "time": 31, "note": 56, "velocity": 94, "channel": 0}, {"type": "note_off", "time": 79, "note": 56, "velocity": 94, "channel": 0}, {"type": "note_on", "time": 22, "note": 61, "velocity": 99, "channel": 0}, {"type": "note_off", "time": 103, "note": 61, "velocity": 99, "channel": 0}, {"type": "note_on", "time": 61, "note": 68, "velocity": 118, "channel": 0}, {"type": "note_off", "time": 302, "note": 68, "velocity": 118, "channel": 0}, {"type": "note_on", "time": 19, "note": 66, "velocity": 118, "channel": 0}, {"type": "note_off", "time": 196, "note": 66, "velocity": 118, "channel": 0}, {"type": "note_on", "time": 109, "note": 58, "velocity": 97, "channel": 0}, {"type": "note_off", "time": 122, "note": 58, "velocity": 97, "channel": 0}, {"type": "note_on", "time": 41, "note": 61, "velocity": 102, "channel": 0}, {"type": "note_off", "time": 103, "note": 61, "velocity": 102, "channel": 0}, {"type": "note_on", "time": 27, "note": 65, "velocity": 121, "channel": 0}, {"type": "note_off", "time": 359, "note": 65, "velocity": 121, "channel": 0}, {"type": "note_on", "time": 29, "note": 63, "velocity": 122, "channel": 0}, {"type": "note_off", "time": 463, "note": 63, "velocity": 122, "channel": 0}, {"type": "note_on", "time": 931, "note": 63, "velocity": 106, "channel": 0}, {"type": "note_off", "time": 153, "note": 63, "velocity": 106, "channel": 0}, {"type": "note_on", "time": 45, "note": 67, "velocity": 96, "channel": 0}, {"type": "note_off", "time": 126, "note": 67, "velocity": 96, "channel": 0}, {"type": "note_on", "time": 89, "note": 71, "velocity": 117, "channel": 0}, {"type": "note_off", "time": 250, "note": 71, "velocity": 117, "channel": 0}, {"type": "note_on", "time": 71, "note": 69, "velocity": 116, "channel": 0}, {"type": "note_off", "time": 260, "note": 69, "velocity": 116, "channel": 0}, {"type": "note_on", "time": 426, "note": 68, "velocity": 112, "channel": 0}, {"type": "note_off", "time": 310, "note": 68, "velocity": 112, "channel": 0}, {"type": "note_on", "time": 31, "note": 66, "velocity": 116, "channel": 0}, {"type": "note_off", "time": 326, "note": 66, "velocity": 116, "channel": 0}, {"type": "note_on", "time": 1688, "note": 63, "velocity": 114, "channel": 0}, {"type": "note_off", "time": 102, "note": 63, "velocity": 114, "channel": 0}, {"type": "note_on", "time": 9, "note": 64, "velocity": 116, "channel": 0}, {"type": "note_off", "time": 92, "note": 64, "velocity": 116, "channel": 0}, {"type": "note_on", "time": 21, "note": 65, "velocity": 114, "channel": 0}, {"type": "note_off", "time": 95, "note": 65, "velocity": 114, "channel": 0}, {"type": "note_on", "time": 66, "note": 66, "velocity": 116, "channel": 0}, {"type": "note_off", "time": 197, "note": 66, "velocity": 116, "channel": 0}, {"type": "note_on", "time": 50, "note": 67, "velocity": 111, "channel": 0}, {"type": "note_off", "time": 133, "note": 67, "velocity": 111, "channel": 0}, {"type": "note_on", "time": 20, "note": 68, "velocity": 119, "channel": 0}, {"type": "note_off", "time": 179, "note": 68, "velocity": 119, "channel": 0}, {"type": "note_on", "time": 50, "note": 66, "velocity": 113, "channel": 0}, {"type": "note_off", "time": 119, "note": 66, "velocity": 113, "channel": 0}, {"type": "note_on", "time": 50, "note": 65, "velocity": 106, "channel": 0}, {"type": "note_off", "time": 220, "note": 65, "velocity": 106, "channel": 0}, {"type": "note_on", "time": 29, "note": 63, "velocity": 112, "channel": 0}, {"type": "note_off", "time": 172, "note": 63, "velocity": 112, "channel": 0}, {"type": "note_on", "time": 46, "note": 62, "velocity": 111, "channel": 0}, {"type": "note_off", "time": 205, "note": 62, "velocity": 111, "channel": 0}, {"type": "note_on", "time": 29, "note": 59, "velocity": 106, "channel": 0}, {"type": "note_off", "time": 169, "note": 59, "velocity": 106, "channel": 0}, {"type": "note_on", "time": 41, "note": 56, "velocity": 102, "channel": 0}, {"type": "note_off", "time": 192, "note": 56, "velocity": 102, "channel": 0}, {"type": "note_on", "time": 34, "note": 57, "velocity": 90, "channel": 0}, {"type": "note_off", "time": 131, "note": 57, "velocity": 90, "channel": 0}, {"type": "note_on", "time": 53, "note": 58, "velocity": 103, "channel": 0}, {"type": "note_off", "time": 204, "note": 58, "velocity": 103, "channel": 0}, {"type": "note_on", "time": 17, "note": 57, "velocity": 104, "channel": 0}, {"type": "note_off", "time": 170, "note": 57, "velocity": 104, "channel": 0}, {"type": "note_on", "time": 7, "note": 56, "velocity": 108, "channel": 0}, {"type": "note_off", "time": 194, "note": 56, "velocity": 108, "channel": 0}, {"type": "note_on", "time": 23, "note": 55, "velocity": 102, "channel": 0}, {"type": "note_off", "time": 110, "note": 55, "velocity": 102, "channel": 0}, {"type": "note_on", "time": 41, "note": 54, "velocity": 106, "channel": 0}, {"type": "note_off", "time": 140, "note": 54, "velocity": 106, "channel": 0}, {"type": "note_on", "time": 97, "note": 65, "velocity": 110, "channel": 0}, {"type": "note_off", "time": 148, "note": 65, "velocity": 110, "channel": 0}, {"type": "note_on", "time": 28, "note": 63, "velocity": 110, "channel": 0}, {"type": "note_off", "time": 199, "note": 63, "velocity": 110, "channel": 0}, {"type": "note_on", "time": 25, "note": 61, "velocity": 88, "channel": 0}, {"type": "note_off", "time": 98, "note": 61, "velocity": 88, "channel": 0}, {"type": "note_on", "time": 1231, "note": 56, "velocity": 88, "channel": 0}, {"type": "note_off", "time": 248, "note": 56, "velocity": 88, "channel": 0}, {"type": "note_on", "time": 163, "note": 54, "velocity": 92, "channel": 0}, {"type": "note_off", "time": 110, "note": 54, "velocity": 92, "channel": 0}, {"type": "note_on", "time": 172, "note": 53, "velocity": 114, "channel": 0}, {"type": "note_off", "time": 193, "note": 53, "velocity": 114, "channel": 0}, {"type": "end_of_track", "time": 0}]]}