{"ticks_per_beat": 192, "tracks": [[{"type": "track_name", "name": "Melody", "time": 0}, {"type": "set_tempo", "tempo": 269058, "time": 0}, {"type": "key_signature", "key": "C", "time": 0}, {"type": "time_signature", "numerator": 4, "denominator": 4, "clocks_per_click": 24, "notated_32nd_notes_per_beat": 8, "time": 0}, {"type": "note_on", "time": 1760, "note": 67, "velocity": 95, "channel": 0}, {"type": "note_off", "time": 124, "note": 67, "velocity": 95, "channel": 0}, {"type": "note_on", "time": 0, "note": 64, "velocity": 101, "channel": 0}, {"type": "note_off", "time": 136, "note": 64, "velocity": 101, "channel": 0}, {"type": "note_on", "time": 265, "note": 67, "velocity": 109, "channel": 0}, {"type": "note_off", "time": 144, "note": 67, "velocity": 109, "channel": 0}, {"type": "note_on", "time": 28, "note": 63, "velocity": 121, "channel": 0}, {"type": "note_off", "time": 136, "note": 63, "velocity": 121, "channel": 0}, {"type": "note_on", "time": 335, "note": 62, "velocity": 108, "channel": 0}, {"type": "note_off", "time": 99, "note": 62, "velocity": 108, "channel": 0}, {"type": "note_on", "time": 0, "note": 60, "velocity": 104, "channel": 0}, {"type": "note_off", "time": 128, "note": 60, "velocity": 104, "channel": 0}, {"type": "note_on", "time": 339, "note": 58, "velocity": 102, "channel": 0}, {"type": "note_off", "time": 202, "note": 58, "velocity": 102, "channel": 0}, {"type": "note_on", "time": 178, "note": 60, "velocity": 105, "channel": 0}, {"type": "note_off", "time": 132, "note": 60, "velocity": 105, "channel": 0}, {"type": "note_on", "time": 24, "note": 55, "velocity": 113, "channel": 0}, {"type": "note_off", "time": 115, "note": 55, "velocity": 113, "channel": 0}, {"type": "note_on", "time": 273, "note": 64, "velocity": 118, "channel": 0}, {"type": "note_off", "time": 165, "note": 64, "velocity": 118, "channel": 0}, {"type": "note_on", "time": 227, "note": 59, "velocity": 108, "channel": 0}, {"type": "note_off", "time": 115, "note": 59, "velocity": 108, "channel": 0}, {"type": "note_on", "time": 136, "note": 62, "velocity": 105, "channel": 0}, {"type": "note_off", "time": 124, "note": 62, "velocity": 105, "channel": 0}, {"type": "note_on", "time": 4, "note": 59, "velocity": 94, "channel": 0}, {"type": "note_off", "time": 103, "note": 59, "velocity": 94, "channel": 0}, {"type": "note_on", "time": 0, "note": 60, "velocity": 108, "channel": 0}, {"type": "note_off", "time": 107, "note": 60, "velocity": 108, "channel": 0}, {"type": "note_on", "time": 0, "note": 67, "velocity": 118, "channel": 0}, {"type": "note_off", "time": 111, "note": 67, "velocity": 118, "channel": 0}, {"type": "note_on", "time": 0, "note": 65, "velocity": 117, "channel": 0}, {"type": "note_off", "time": 120, "note": 65, "velocity": 117, "channel": 0}, {"type": "note_on", "time": 8, "note": 63, "velocity": 106, "channel": 0}, {"type": "note_off", "time": 78, "note": 63, "velocity": 106, "channel": 0}, {"type": "note_on", "time": 8, "note": 64, "velocity": 120, "channel": 0}, {"type": "note_off", "time": 111, "note": 64, "velocity": 120, "channel": 0}, {"type": "note_on", "time": 4, "note": 62, "velocity": 110, "channel": 0}, {"type": "note_off", "time": 107, "note": 62, "velocity": 110, "channel": 0}, {"type": "note_on", "time": 144, "note": 61, "velocity": 111, "channel": 0}, {"type": "note_off", "time": 124, "note": 61, "velocity": 111, "channel": 0}, {"type": "note_on", "time": 20, "note": 59, "velocity": 107, "channel": 0}, {"type": "note_off", "time": 91, "note": 59, "velocity": 107, "channel": 0}, {"type": "note_on", "time": 78, "note": 57, "velocity": 108, "channel": 0}, {"type": "note_off", "time": 107, "note": 57, "velocity": 108, "channel": 0}, {"type": "note_on", "time": 4, "note": 58, "velocity": 109, "channel": 0}, {"type": "note_off", "time": 128, "note": 58, "velocity": 109, "channel": 0}, {"type": "note_on", "time": 33, "note": 60, "velocity": 110, "channel": 0}, {"type": "note_off", "time": 66, "note": 60, "velocity": 110, "channel": 0}, {"type": "note_on", "time": 0, "note": 61, "velocity": 107, "channel": 0}, {"type": "note_off", "time": 103, "note": 61, "velocity": 107, "channel": 0}, {"type": "note_on", "time": 0, "note": 63, "velocity": 105, "channel": 0}, {"type": "note_off", "time": 70, "note": 63, "velocity": 105, "channel": 0}, {"type": "note_on", "time": 4, "note": 65, "velocity": 112, "channel": 0}, {"type": "note_off", "time": 86, "note": 65, "velocity": 112, "channel": 0}, {"type": "note_on", "time": 16, "note": 68, "velocity": 111, "channel": 0}, {"type": "note_off", "time": 91, "note": 68, "velocity": 111, "channel": 0}, {"type": "note_on", "time": 16, "note": 67, "velocity": 102, "channel": 0}, {"type": "note_off", "time": 86, "note": 67, "velocity": 102, "channel": 0}, {"type": "note_on", "time": 0, "note": 65, "velocity": 115, "channel": 0}, {"type": "note_off", "time": 82, "note": 65, "velocity": 115, "channel": 0}, {"type": "note_on", "time": 12, "note": 63, "velocity": 113, "channel": 0}, {"type": "note_off", "time": 91, "note": 63, "velocity": 113, "channel": 0}, {"type": "note_on", "time": 0, "note": 61, "velocity": 110, "channel": 0}, {"type": "note_off", "time": 99, "note": 61, "velocity": 110, "channel": 0}, {"type": "note_on", "time": 0, "note": 58, "velocity": 100, "channel": 0}, {"type": "note_off", "time": 95, "note": 58, "velocity": 100, "channel": 0}, {"type": "note_on", "time": 4, "note": 59, "velocity": 98, "channel": 0}, {"type": "note_off", "time": 45, "note": 59, "velocity": 98, "channel": 0}, {"type": "note_on", "time": 4, "note": 60, "velocity": 110, "channel": 0}, {"type": "note_off", "time": 120, "note": 60, "velocity": 110, "channel": 0}, {"type": "note_on", "time": 4, "note": 63, "velocity": 97, "channel": 0}, {"type": "note_off", "time": 99, "note": 63, "velocity": 97, "channel": 0}, {"type": "note_on", "time": 12, "note": 58, "velocity": 100, "channel": 0}, {"type": "note_off", "time": 95, "note": 58, "velocity": 100, "channel": 0}, {"type": "note_on", "time": 8, "note": 55, "velocity": 97, "channel": 0}, {"type": "note_off", "time": 66, "note": 55, "velocity": 97, "channel": 0}, {"type": "note_on", "time": 4, "note": 56, "velocity": 102, "channel": 0}, {"type": "note_off", "time": 231, "note": 56, "velocity": 102, "channel": 0}, {"type": "note_on", "time": 853, "note": 69, "velocity": 116, "channel": 0}, {"type": "note_off", "time": 70, "note": 69, "velocity": 116, "channel": 0}, {"type": "note_on", "time": 12, "note": 71, "velocity": 113, "channel": 0}, {"type": "note_off", "time": 194, "note": 71, "velocity": 113, "channel": 0}, {"type": "note_on", "time": 4, "note": 69, "velocity": 100, "channel": 0}, {"type": "note_off", "time": 124, "note": 69, "velocity": 100, "channel": 0}, {"type": "note_on", "time": 0, "note": 67, "velocity": 112, "channel": 0}, {"type": "note_off", "time": 91, "note": 67, "velocity": 112, "channel": 0}, {"type": "note_on", "time": 12, "note": 66, "velocity": 110, "channel": 0}, {"type": "note_off", "time": 128, "note": 66, "velocity": 110, "channel": 0}, {"type": "note_on", "time": 8, "note": 64, "velocity": 107, "channel": 0}, {"type": "note_off", "time": 53, "note": 64, "velocity": 107, "channel": 0}, {"type": "note_on", "time": 8, "note": 62, "velocity": 111, "channel": 0}, {"type": "note_off", "time": 70, "note": 62, "velocity": 111, "channel": 0}, {"type": "note_on", "time": 8, "note": 61, "velocity": 111, "channel": 0}, {"type": "note_off", "time": 95, "note": 61, "velocity": 111, "channel": 0}, {"type": "note_on", "time": 4, "note": 60, "velocity": 107, "channel": 0}, {"type": "note_off", "time": 53, "note": 60, "velocity": 107, "channel": 0}, {"type": "note_on", "time": 24, "note": 59, "velocity": 104, "channel": 0}, {"type": "note_off", "time": 103, "note": 59, "velocity": 104, "channel": 0}, {"type": "note_on", "time": 8, "note": 57, "velocity": 102, "channel": 0}, {"type": "note_off", "time": 70, "note": 57, "velocity": 102, "channel": 0}, {"type": "note_on", "time": 12, "note": 55, "velocity": 97, "channel": 0}, {"type": "note_off", "time": 70, "note": 55, "velocity": 97, "channel": 0}, {"type": "note_on", "time": 20, "note": 53, "velocity": 105, "channel": 0}, {"type": "note_off", "time": 103, "note": 53, "velocity": 105, "channel": 0}, {"type": "note_on", "time": 0, "note": 55, "velocity": 103, "channel": 0}, {"type": "note_off", "time": 53, "note": 55, "velocity": 103, "channel": 0}, {"type": "note_on", "time": 33, "note": 57, "velocity": 104, "channel": 0}, {"type": "note_off", "time": 99, "note": 57, "velocity": 104, "channel": 0}, {"type": "note_on", "time": 16, "note": 60, "velocity": 105, "channel": 0}, {"type": "note_off", "time": 95, "note": 60, "velocity": 105, "channel": 0}, {"type": "note_on", "time": 0, "note": 64, "velocity": 112, "channel": 0}, {"type": "note_off", "time": 91, "note": 64, "velocity": 112, "channel": 0}, {"type": "note_on", "time": 12, "note": 65, "velocity": 108, "channel": 0}, {"type": "note_off", "time": 95, "note": 65, "velocity": 108, "channel": 0}, {"type": "note_on", "time": 0, "note": 61, "velocity": 104, "channel": 0}, {"type": "note_off", "time": 103, "note": 61, "velocity": 104, "channel": 0}, {"type": "note_on", "time": 0, "note": 64, "velocity": 109, "channel": 0}, {"type": "note_off", "time": 91, "note": 64, "velocity": 109, "channel": 0}, {"type": "note_on", "time": 12, "note": 62, "velocity": 111, "channel": 0}, {"type": "note_off", "time": 99, "note": 62, "velocity": 111, "channel": 0}, {"type": "note_on", "time": 0, "note": 64, "velocity": 115, "channel": 0}, {"type": "note_off", "time": 95, "note": 64, "velocity": 115, "channel": 0}, {"type": "note_on", "time": 12, "note": 65, "velocity": 98, "channel": 0}, {"type": "note_off", "time": 53, "note": 65, "velocity": 98, "channel": 0}, {"type": "note_on", "time": 28, "note": 67, "velocity": 102, "channel": 0}, {"type": "note_off", "time": 74, "note": 67, "velocity": 102, "channel": 0}, {"type": "note_on", "time": 0, "note": 69, "velocity": 101, "channel": 0}, {"type": "note_off", "time": 82, "note": 69, "velocity": 101, "channel": 0}, {"type": "note_on", "time": 37, "note": 72, "velocity": 110, "channel": 0}, {"type": "note_off", "time": 115, "note": 72, "velocity": 110, "channel": 0}, {"type": "note_on", "time": 12, "note": 71, "velocity": 99, "channel": 0}, {"type": "note_off", "time": 70, "note": 71, "velocity": 99, "channel": 0}, {"type": "note_on", "time": 8, "note": 69, "velocity": 98, "channel": 0}, {"type": "note_off", "time": 70, "note": 69, "velocity": 98, "channel": 0}, {"type": "note_on", "time": 8, "note": 67, "velocity": 102, "channel": 0}, {"type": "note_off", "time": 132, "note": 67, "velocity": 102, "channel": 0}, {"type": "note_on", "time": 244, "note": 66, "velocity": 114, "channel": 0}, {"type": "note_off", "time": 99, "note": 66, "velocity": 114, "channel": 0}, {"type": "note_on", "time": 12, "note": 67, "velocity": 110, "channel": 0}, {"type": "note_off", "time": 82, "note": 67, "velocity": 110, "channel": 0}, {"type": "note_on", "time": 20, "note": 70, "velocity": 99, "channel": 0}, {"type": "note_off", "time": 120, "note": 70, "velocity": 99, "channel": 0}, {"type": "note_on", "time": 8, "note": 69, "velocity": 103, "channel": 0}, {"type": "note_off", "time": 57, "note": 69, "velocity": 103, "channel": 0}, {"type": "note_on", "time": 4, "note": 68, "velocity": 98, "channel": 0}, {"type": "note_off", "time": 86, "note": 68, "velocity": 98, "channel": 0}, {"type": "note_on", "time": 33, "note": 59, "velocity": 100, "channel": 0}, {"type": "note_off", "time": 74, "note": 59, "velocity": 100, "channel": 0}, {"type": "note_on", "time": 8, "note": 60, "velocity": 109, "channel": 0}, {"type": "note_off", "time": 103, "note": 60, "velocity": 109, "channel": 0}, {"type": "note_on", "time": 4, "note": 63, "velocity": 117, "channel": 0}, {"type": "note_off", "time": 74, "note": 63, "velocity": 117, "channel": 0}, {"type": "note_on", "time": 8, "note": 65, "velocity": 113, "channel": 0}, {"type": "note_off", "time": 124, "note": 65, "velocity": 113, "channel": 0}, {"type": "note_on", "time": 16, "note": 66, "velocity": 115, "channel": 0}, {"type": "note_off", "time": 91, "note": 66, "velocity": 115, "channel": 0}, {"type": "note_on", "time": 12, "note": 67, "velocity": 112, "channel": 0}, {"type": "note_off", "time": 70, "note": 67, "velocity": 112, "channel": 0}, {"type": "note_on", "time": 16, "note": 65, "velocity": 118, "channel": 0}, {"type": "note_off", "time": 107, "note": 65, "velocity": 118, "channel": 0}, {"type": "note_on", "time": 12, "note": 64, "velocity": 109, "channel": 0}, {"type": "note_off", "time": 115, "note": 64, "velocity": 109, "channel": 0}, {"type": "note_on", "time": 107, "note": 55, "velocity": 96, "channel": 0}, {"type": "note_off", "time": 57, "note": 55, "velocity": 96, "channel": 0}, {"type": "note_on", "time": 0, "note": 57, "velocity": 91, "channel": 0}, {"type": "note_off", "time": 49, "note": 57, "velocity": 91, "channel": 0}, {"type": "note_on", "time": 8, "note": 62, "velocity": 108, "channel": 0}, {"type": "note_off", "time": 115, "note": 62, "velocity": 108, "channel": 0}, {"type": "note_on", "time": 4, "note": 59, "velocity": 99, "channel": 0}, {"type": "note_off", "time": 70, "note": 59, "velocity": 99, "channel": 0}, {"type": "note_on", "time": 4, "note": 60, "velocity": 106, "channel": 0}, {"type": "note_off", "time": 103, "note": 60, "velocity": 106, "channel": 0}, {"type": "note_on", "time": 16, "note": 62, "velocity": 109, "channel": 0}, {"type": "note_off", "time": 82, "note": 62, "velocity": 109, "channel": 0}, {"type": "note_on", "time": 4, "note": 63, "velocity": 97, "channel": 0}, {"type": "note_off", "time": 70, "note": 63, "velocity": 97, "channel": 0}, {"type": "note_on", "time": 4, "note": 64, "velocity": 90, "channel": 0}, {"type": "note_off", "time": 49, "note": 64, "velocity": 90, "channel": 0}, {"type": "note_on", "time": 8, "note": 65, "velocity": 111, "channel": 0}, {"type": "note_off", "time": 99, "note": 65, "velocity": 111, "channel": 0}, {"type": "note_on", "time": 0, "note": 64, "velocity": 98, "channel": 0}, {"type": "note_off", "time": 70, "note": 64, "velocity": 98, "channel": 0}, {"type": "note_on", "time": 12, "note": 62, "velocity": 112, "channel": 0}, {"type": "note_off", "time": 91, "note": 62, "velocity": 112, "channel": 0}, {"type": "note_on", "time": 0, "note": 60, "velocity": 109, "channel": 0}, {"type": "note_off", "time": 66, "note": 60, "velocity": 109, "channel": 0}, {"type": "note_on", "time": 20, "note": 55, "velocity": 96, "channel": 0}, {"type": "note_off", "time": 103, "note": 55, "velocity": 96, "channel": 0}, {"type": "note_on", "time": 0, "note": 58, "velocity": 105, "channel": 0}, {"type": "note_on", "time": 111, "note": 55, "velocity": 103, "channel": 0}, {"type": "note_off", "time": 0, "note": 58, "velocity": 105, "channel": 0}, {"type": "note_off", "time": 53, "note": 55, "velocity": 103, "channel": 0}, {"type": "note_on", "time": 24, "note": 56, "velocity": 101, "channel": 0}, {"type": "note_on", "time": 115, "note": 58, "velocity": 104, "channel": 0}, {"type": "note_off", "time": 0, "note": 56, "velocity": 101, "channel": 0}, {"type": "note_off", "time": 70, "note": 58, "velocity": 104, "channel": 0}, {"type": "note_on", "time": 4, "note": 60, "velocity": 104, "channel": 0}, {"type": "note_on", "time": 120, "note": 63, "velocity": 111, "channel": 0}, {"type": "note_off", "time": 0, "note": 60, "velocity": 104, "channel": 0}, {"type": "note_off", "time": 74, "note": 63, "velocity": 111, "channel": 0}, {"type": "note_on", "time": 16, "note": 67, "velocity": 101, "channel": 0}, {"type": "note_off", "time": 149, "note": 67, "velocity": 101, "channel": 0}, {"type": "note_on", "time": 62, "note": 67, "velocity": 107, "channel": 0}, {"type": "note_off", "time": 111, "note": 67, "velocity": 107, "channel": 0}, {"type": "note_on", "time": 66, "note": 67, "velocity": 110, "channel": 0}, {"type": "note_off", "time": 111, "note": 67, "velocity": 110, "channel": 0}, {"type": "note_on", "time": 0, "note": 68, "velocity": 105, "channel": 0}, {"type": "note_off", "time": 66, "note": 68, "velocity": 105, "channel": 0}, {"type": "note_on", "time": 16, "note": 67, "velocity": 107, "channel": 0}, {"type": "note_off", "time": 103, "note": 67, "velocity": 107, "channel": 0}, {"type": "note_on", "time": 28, "note": 68, "velocity": 98, "channel": 0}, {"type": "note_off", "time": 41, "note": 68, "velocity": 98, "channel": 0}, {"type": "note_on", "time": 8, "note": 67, "velocity": 110, "channel": 0}, {"type": "note_off", "time": 24, "note": 67, "velocity": 110, "channel": 0}, {"type": "note_on", "time": 0, "note": 65, "velocity": 106, "channel": 0}, {"type": "note_off", "time": 289, "note": 65, "velocity": 106, "channel": 0}, {"type": "note_on", "time": 439, "note": 69, "velocity": 94, "channel": 0}, {"type": "note_off", "time": 66, "note": 69, "velocity": 94, "channel": 0}, {"type": "note_on", "time": 20, "note": 71, "velocity": 116, "channel": 0}, {"type": "note_off", "time": 215, "note": 71, "velocity": 116, "channel": 0}, {"type": "note_on", "time": 12, "note": 69, "velocity": 101, "channel": 0}, {"type": "note_off", "time": 41, "note": 69, "velocity": 101, "channel": 0}, {"type": "note_on", "time": 0, "note": 67, "velocity": 114, "channel": 0}, {"type": "note_off", "time": 57, "note": 67, "velocity": 114, "channel": 0}, {"type": "note_on", "time": 12, "note": 66, "velocity": 122, "channel": 0}, {"type": "note_off", "time": 248, "note": 66, "velocity": 122, "channel": 0}, {"type": "note_on", "time": 33, "note": 62, "velocity": 114, "channel": 0}, {"type": "note_off", "time": 41, "note": 62, "velocity": 114, "channel": 0}, {"type": "note_on", "time": 16, "note": 61, "velocity": 103, "channel": 0}, {"type": "note_off", "time": 33, "note": 61, "velocity": 103, "channel": 0}, {"type": "note_on", "time": 12, "note": 59, "velocity": 104, "channel": 0}, {"type": "note_off", "time": 285, "note": 59, "velocity": 104, "channel": 0}, {"type": "note_on", "time": 265, "note": 61, "velocity": 100, "channel": 0}, {"type": "note_off", "time": 28, "note": 61, "velocity": 100, "channel": 0}, {"type": "note_on", "time": 12, "note": 62, "velocity": 106, "channel": 0}, {"type": "note_off", "time": 37, "note": 62, "velocity": 106, "channel": 0}, {"type": "note_on", "time": 0, "note": 64, "velocity": 108, "channel": 0}, {"type": "note_off", "time": 66, "note": 64, "velocity": 108, "channel": 0}, {"type": "note_on", "time": 20, "note": 66, "velocity": 111, "channel": 0}, {"type": "note_off", "time": 111, "note": 66, "velocity": 111, "channel": 0}, {"type": "note_on", "time": 20, "note": 62, "velocity": 109, "channel": 0}, {"type": "note_off", "time": 82, "note": 62, "velocity": 109, "channel": 0}, {"type": "note_on", "time": 0, "note": 61, "velocity": 108, "channel": 0}, {"type": "note_off", "time": 37, "note": 61, "velocity": 108, "channel": 0}, {"type": "note_on", "time": 33, "note": 62, "velocity": 106, "channel": 0}, {"type": "note_off", "time": 45, "note": 62, "velocity": 106, "channel": 0}, {"type": "note_on", "time": 16, "note": 59, "velocity": 105, "channel": 0}, {"type": "note_off", "time": 49, "note": 59, "velocity": 105, "channel": 0}, {"type": "note_on", "time": 16, "note": 58, "velocity": 108, "channel": 0}, {"type": "note_off", "time": 149, "note": 58, "velocity": 108, "channel": 0}, {"type": "note_on", "time": 8, "note": 60, "velocity": 99, "channel": 0}, {"type": "note_off", "time": 66, "note": 60, "velocity": 99, "channel": 0}, {"type": "note_on", "time": 28, "note": 61, "velocity": 109, "channel": 0}, {"type": "note_on", "time": 53, "note": 63, "velocity": 106, "channel": 0}, {"type": "note_off", "time": 0, "note": 61, "velocity": 109, "channel": 0}, {"type": "note_off", "time": 74, "note": 63, "velocity": 106, "channel": 0}, {"type": "note_on", "time": 8, "note": 65, "velocity": 113, "channel": 0}, {"type": "note_off", "time": 78, "note": 65, "velocity": 113, "channel": 0}, {"type": "note_on", "time": 28, "note": 68, "velocity": 110, "channel": 0}, {"type": "note_off", "time": 107, "note": 68, "velocity": 110, "channel": 0}, {"type": "note_on", "time": 0, "note": 67, "velocity": 109, "channel": 0}, {"type": "note_off", "time": 53, "note": 67, "velocity": 109, "channel": 0}, {"type": "note_on", "time": 24, "note": 65, "velocity": 118, "channel": 0}, {"type": "note_off", "time": 70, "note": 65, "velocity": 118, "channel": 0}, {"type": "note_on", "time": 0, "note": 63, "velocity": 119, "channel": 0}, {"type": "note_off", "time": 128, "note": 63, "velocity": 119, "channel": 0}, {"type": "note_on", "time": 12, "note": 60, "velocity": 115, "channel": 0}, {"type": "note_off", "time": 74, "note": 60, "velocity": 115, "channel": 0}, {"type": "note_on", "time": 173, "note": 60, "velocity": 99, "channel": 0}, {"type": "note_off", "time": 352, "note": 60, "velocity": 99, "channel": 0}, {"type": "note_on", "time": 530, "note": 56, "velocity": 109, "channel": 0}, {"type": "note_off", "time": 157, "note": 56, "velocity": 109, "channel": 0}, {"type": "note_on", "time": 49, "note": 57, "velocity": 111, "channel": 0}, {"type": "note_off", "time": 190, "note": 57, "velocity": 111, "channel": 0}, {"type": "note_on", "time": 8, "note": 59, "velocity": 109, "channel": 0}, {"type": "note_off", "time": 161, "note": 59, "velocity": 109, "channel": 0}, {"type": "note_on", "time": 37, "note": 60, "velocity": 106, "channel": 0}, {"type": "note_off", "time": 153, "note": 60, "velocity": 106, "channel": 0}, {"type": "note_on", "time": 28, "note": 62, "velocity": 114, "channel": 0}, {"type": "note_off", "time": 165, "note": 62, "velocity": 114, "channel": 0}, {"type": "note_on", "time": 28, "note": 64, "velocity": 110, "channel": 0}, {"type": "note_off", "time": 91, "note": 64, "velocity": 110, "channel": 0}, {"type": "note_on", "time": 70, "note": 67, "velocity": 109, "channel": 0}, {"type": "note_off", "time": 95, "note": 67, "velocity": 109, "channel": 0}, {"type": "note_on", "time": 4, "note": 66, "velocity": 114, "channel": 0}, {"type": "note_off", "time": 107, "note": 66, "velocity": 114, "channel": 0}, {"type": "note_on", "time": 8, "note": 64, "velocity": 107, "channel": 0}, {"type": "note_off", "time": 41, "note": 64, "velocity": 107, "channel": 0}, {"type": "note_on", "time": 0, "note": 62, "velocity": 111, "channel": 0}, {"type": "note_off", "time": 124, "note": 62, "velocity": 111, "channel": 0}, {"type": "note_on", "time": 12, "note": 61, "velocity": 111, "channel": 0}, {"type": "note_off", "time": 99, "note": 61, "velocity": 111, "channel": 0}, {"type": "note_on", "time": 0, "note": 60, "velocity": 110, "channel": 0}, {"type": "note_off", "time": 78, "note": 60, "velocity": 110, "channel": 0}, {"type": "note_on", "time": 4, "note": 59, "velocity": 110, "channel": 0}, {"type": "note_off", "time": 99, "note": 59, "velocity": 110, "channel": 0}, {"type": "note_on", "time": 16, "note": 57, "velocity": 107, "channel": 0}, {"type": "note_on", "time": 95, "note": 55, "velocity": 108, "channel": 0}, {"type": "note_off", "time": 0, "note": 57, "velocity": 107, "channel": 0}, {"type": "note_off", "time": 62, "note": 55, "velocity": 108, "channel": 0}, {"type": "note_on", "time": 20, "note": 53, "velocity": 114, "channel": 0}, {"type": "note_off", "time": 57, "note": 53, "velocity": 114, "channel": 0}, {"type": "note_on", "time": 66, "note": 52, "velocity": 89, "channel": 0}, {"type": "note_off", "time": 82, "note": 52, "velocity": 89, "channel": 0}, {"type": "note_on", "time": 20, "note": 53, "velocity": 107, "channel": 0}, {"type": "note_off", "time": 82, "note": 53, "velocity": 107, "channel": 0}, {"type": "note_on", "time": 0, "note": 55, "velocity": 111, "channel": 0}, {"type": "note_off", "time": 99, "note": 55, "velocity": 111, "channel": 0}, {"type": "note_on", "time": 0, "note": 57, "velocity": 102, "channel": 0}, {"type": "note_off", "time": 74, "note": 57, "velocity": 102, "channel": 0}, {"type": "note_on", "time": 4, "note": 60, "velocity": 106, "channel": 0}, {"type": "note_off", "time": 86, "note": 60, "velocity": 106, "channel": 0}, {"type": "note_on", "time": 49, "note": 64, "velocity": 110, "channel": 0}, {"type": "note_off", "time": 107, "note": 64, "velocity": 110, "channel": 0}, {"type": "note_on", "time": 0, "note": 61, "velocity": 110, "channel": 0}, {"type": "note_off", "time": 53, "note": 61, "velocity": 110, "channel": 0}, {"type": "note_on", "time": 0, "note": 62, "velocity": 109, "channel": 0}, {"type": "note_off", "time": 95, "note": 62, "velocity": 109, "channel": 0}, {"type": "note_on", "time": 20, "note": 67, "velocity": 103, "channel": 0}, {"type": "note_off", "time": 240, "note": 67, "velocity": 103, "channel": 0}, {"type": "note_on", "time": 596, "note": 59, "velocity": 107, "channel": 0}, {"type": "note_off", "time": 95, "note": 59, "velocity": 107, "channel": 0}, {"type": "note_on", "time": 4, "note": 60, "velocity": 109, "channel": 0}, {"type": "note_on", "time": 107, "note": 65, "velocity": 114, "channel": 0}, {"type": "note_off", "time": 0, "note": 60, "velocity": 109, "channel": 0}, {"type": "note_off", "time": 128, "note": 65, "velocity": 114, "channel": 0}, {"type": "note_on", "time": 0, "note": 64, "velocity": 113, "channel": 0}, {"type": "note_off", "time": 74, "note": 64, "velocity": 113, "channel": 0}, {"type": "note_on", "time": 12, "note": 63, "velocity": 109, "channel": 0}, {"type": "note_off", "time": 111, "note": 63, "velocity": 109, "channel": 0}, {"type": "note_on", "time": 0, "note": 61, "velocity": 113, "channel": 0}, {"type": "note_off", "time": 66, "note": 61, "velocity": 113, "channel": 0}, {"type": "note_on", "time": 8, "note": 60, "velocity": 107, "channel": 0}, {"type": "note_off", "time": 66, "note": 60, "velocity": 107, "channel": 0}, {"type": "note_on", "time": 8, "note": 58, "velocity": 111, "channel": 0}, {"type": "note_off", "time": 78, "note": 58, "velocity": 111, "channel": 0}, {"type": "note_on", "time": 20, "note": 56, "velocity": 107, "channel": 0}, {"type": "note_off", "time": 115, "note": 56, "velocity": 107, "channel": 0}, {"type": "note_on", "time": 0, "note": 54, "velocity": 116, "channel": 0}, {"type": "note_off", "time": 99, "note": 54, "velocity": 116, "channel": 0}, {"type": "note_on", "time": 4, "note": 53, "velocity": 101, "channel": 0}, {"type": "note_off", "time": 331, "note": 53, "velocity": 101, "channel": 0}, {"type": "note_on", "time": 41, "note": 55, "velocity": 113, "channel": 0}, {"type": "note_off", "time": 207, "note": 55, "velocity": 113, "channel": 0}, {"type": "note_on", "time": 24, "note": 59, "velocity": 106, "channel": 0}, {"type": "note_off", "time": 248, "note": 59, "velocity": 106, "channel": 0}, {"type": "note_on", "time": 12, "note": 57, "velocity": 109, "channel": 0}, {"type": "note_off", "time": 103, "note": 57, "velocity": 109, "channel": 0}, {"type": "note_on", "time": 24, "note": 56, "velocity": 106, "channel": 0}, {"type": "note_off", "time": 107, "note": 56, "velocity": 106, "channel": 0}, {"type": "note_on", "time": 28, "note": 57, "velocity": 110, "channel": 0}, {"type": "note_off", "time": 111, "note": 57, "velocity": 110, "channel": 0}, {"type": "note_on", "time": 41, "note": 60, "velocity": 106, "channel": 0}, {"type": "note_off", "time": 244, "note": 60, "velocity": 106, "channel": 0}, {"type": "note_on", "time": 12, "note": 58, "velocity": 111, "channel": 0}, {"type": "note_off", "time": 124, "note": 58, "velocity": 111, "channel": 0}, {"type": "note_on", "time": 0, "note": 56, "velocity": 107, "channel": 0}, {"type": "note_off", "time": 86, "note": 56, "velocity": 107, "channel": 0}, {"type": "note_on", "time": 397, "note": 67, "velocity": 116, "channel": 0}, {"type": "note_off", "time": 124, "note": 67, "velocity": 116, "channel": 0}, {"type": "note_on", "time": 28, "note": 67, "velocity": 111, "channel": 0}, {"type": "note_off", "time": 120, "note": 67, "velocity": 111, "channel": 0}, {"type": "note_on", "time": 20, "note": 67, "velocity": 90, "channel": 0}, {"type": "note_off", "time": 62, "note": 67, "velocity": 90, "channel": 0}, {"type": "note_on", "time": 8, "note": 65, "velocity": 117, "channel": 0}, {"type": "note_off", "time": 66, "note": 65, "velocity": 117, "channel": 0}, {"type": "note_on", "time": 37, "note": 58, "velocity": 110, "channel": 0}, {"type": "note_off", "time": 70, "note": 58, "velocity": 110, "channel": 0}, {"type": "note_on", "time": 28, "note": 70, "velocity": 109, "channel": 0}, {"type": "note_off", "time": 95, "note": 70, "velocity": 109, "channel": 0}, {"type": "note_on", "time": 24, "note": 68, "velocity": 109, "channel": 0}, {"type": "note_off", "time": 120, "note": 68, "velocity": 109, "channel": 0}, {"type": "note_on", "time": 12, "note": 67, "velocity": 114, "channel": 0}, {"type": "note_off", "time": 103, "note": 67, "velocity": 114, "channel": 0}, {"type": "note_on", "time": 33, "note": 65, "velocity": 112, "channel": 0}, {"type": "note_off", "time": 252, "note": 65, "velocity": 112, "channel": 0}, {"type": "note_on", "time": 4, "note": 64, "velocity": 115, "channel": 0}, {"type": "note_on", "time": 86, "note": 55, "velocity": 105, "channel": 0}, {"type": "note_off", "time": 0, "note": 64, "velocity": 115, "channel": 0}, {"type": "note_off", "time": 194, "note": 55, "velocity": 105, "channel": 0}, {"type": "note_on", "time": 28, "note": 57, "velocity": 103, "channel": 0}, {"type": "note_off", "time": 248, "note": 57, "velocity": 103, "channel": 0}, {"type": "note_on", "time": 865, "note": 64, "velocity": 113, "channel": 0}, {"type": "note_off", "time": 95, "note": 64, "velocity": 113, "channel": 0}, {"type": "note_on", "time": 4, "note": 62, "velocity": 118, "channel": 0}, {"type": "note_off", "time": 86, "note": 62, "velocity": 118, "channel": 0}, {"type": "note_on", "time": 66, "note": 54, "velocity": 110, "channel": 0}, {"type": "note_off", "time": 49, "note": 54, "velocity": 110, "channel": 0}, {"type": "note_on", "time": 12, "note": 57, "velocity": 106, "channel": 0}, {"type": "note_off", "time": 82, "note": 57, "velocity": 106, "channel": 0}, {"type": "note_on", "time": 20, "note": 61, "velocity": 116, "channel": 0}, {"type": "note_off", "time": 107, "note": 61, "velocity": 116, "channel": 0}, {"type": "note_on", "time": 70, "note": 59, "velocity": 109, "channel": 0}, {"type": "note_off", "time": 82, "note": 59, "velocity": 109, "channel": 0}, {"type": "note_on", "time": 115, "note": 63, "velocity": 118, "channel": 0}, {"type": "note_off", "time": 86, "note": 63, "velocity": 118, "channel": 0}, {"type": "note_on", "time": 4, "note": 61, "velocity": 115, "channel": 0}, {"type": "note_off", "time": 91, "note": 61, "velocity": 115, "channel": 0}, {"type": "note_on", "time": 37, "note": 53, "velocity": 96, "channel": 0}, {"type": "note_off", "time": 62, "note": 53, "velocity": 96, "channel": 0}, {"type": "note_on", "time": 4, "note": 56, "velocity": 106, "channel": 0}, {"type": "note_off", "time": 124, "note": 56, "velocity": 106, "channel": 0}, {"type": "note_on", "time": 4, "note": 58, "velocity": 115, "channel": 0}, {"type": "note_off", "time": 45, "note": 58, "velocity": 115, "channel": 0}, {"type": "note_on", "time": 0, "note": 60, "velocity": 113, "channel": 0}, {"type": "note_off", "time": 157, "note": 60, "velocity": 113, "channel": 0}, {"type": "note_on", "time": 124, "note": 52, "velocity": 93, "channel": 0}, {"type": "note_off", "time": 66, "note": 52, "velocity": 93, "channel": 0}, {"type": "note_on", "time": 0, "note": 55, "velocity": 102, "channel": 0}, {"type": "note_off", "time": 57, "note": 55, "velocity": 102, "channel": 0}, {"type": "note_on", "time": 0, "note": 58, "velocity": 113, "channel": 0}, {"type": "note_off", "time": 120, "note": 58, "velocity": 113, "channel": 0}, {"type": "note_on", "time": 4, "note": 55, "velocity": 104, "channel": 0}, {"type": "note_on", "time": 62, "note": 56, "velocity": 100, "channel": 0}, {"type": "note_off", "time": 0, "note": 55, "velocity": 104, "channel": 0}, {"type": "note_off", "time": 62, "note": 56, "velocity": 100, "channel": 0}, {"type": "note_on", "time": 0, "note": 58, "velocity": 109, "channel": 0}, {"type": "note_on", "time": 70, "note": 59, "velocity": 111, "channel": 0}, {"type": "note_off", "time": 0, "note": 58, "velocity": 109, "channel": 0}, {"type": "note_off", "time": 111, "note": 59, "velocity": 111, "channel": 0}, {"type": "note_on", "time": 0, "note": 60, "velocity": 118, "channel": 0}, {"type": "note_off", "time": 95, "note": 60, "velocity": 118, "channel": 0}, {"type": "note_on", "time": 0, "note": 61, "velocity": 113, "channel": 0}, {"type": "note_off", "time": 95, "note": 61, "velocity": 113, "channel": 0}, {"type": "note_on", "time": 4, "note": 59, "velocity": 111, "channel": 0}, {"type": "note_on", "time": 78, "note": 60, "velocity": 115, "channel": 0}, {"type": "note_off", "time": 0, "note": 59, "velocity": 111, "channel": 0}, {"type": "note_off", "time": 149, "note": 60, "velocity": 115, "channel": 0}, {"type": "note_on", "time": 0, "note": 63, "velocity": 115, "channel": 0}, {"type": "note_off", "time": 128, "note": 63, "velocity": 115, "channel": 0}, {"type": "note_on", "time": 4, "note": 65, "velocity": 101, "channel": 0}, {"type": "note_off", "time": 57, "note": 65, "velocity": 101, "channel": 0}, {"type": "note_on", "time": 0, "note": 67, "velocity": 106, "channel": 0}, {"type": "note_off", "time": 62, "note": 67, "velocity": 106, "channel": 0}, {"type": "note_on", "time": 0, "note": 70, "velocity": 112, "channel": 0}, {"type": "note_off", "time": 128, "note": 70, "velocity": 112, "channel": 0}, {"type": "note_on", "time": 16, "note": 68, "velocity": 103, "channel": 0}, {"type": "note_off", "time": 62, "note": 68, "velocity": 103, "channel": 0}, {"type": "note_on", "time": 559, "note": 68, "velocity": 105, "channel": 0}, {"type": "note_off", "time": 82, "note": 68, "velocity": 105, "channel": 0}, {"type": "note_on", "time": 8, "note": 71, "velocity": 117, "channel": 0}, {"type": "note_off", "time": 99, "note": 71, "velocity": 117, "channel": 0}, {"type": "note_on", "time": 0, "note": 68, "velocity": 102, "channel": 0}, {"type": "note_off", "time": 107, "note": 68, "velocity": 102, "channel": 0}, {"type": "note_on", "time": 4, "note": 65, "velocity": 92, "channel": 0}, {"type": "note_off", "time": 74, "note": 65, "velocity": 92, "channel": 0}, {"type": "note_on", "time": 28, "note": 68, "velocity": 109, "channel": 0}, {"type": "note_off", "time": 161, "note": 68, "velocity": 109, "channel": 0}, {"type": "note_on", "time": 0, "note": 64, "velocity": 109, "channel": 0}, {"type": "note_off", "time": 111, "note": 64, "velocity": 109, "channel": 0}, {"type": "note_on", "time": 8, "note": 68, "velocity": 103, "channel": 0}, {"type": "note_off", "time": 91, "note": 68, "velocity": 103, "channel": 0}, {"type": "note_on", "time": 20, "note": 64, "velocity": 115, "channel": 0}, {"type": "note_off", "time": 91, "note": 64, "velocity": 115, "channel": 0}, {"type": "note_on", "time": 8, "note": 60, "velocity": 112, "channel": 0}, {"type": "note_off", "time": 82, "note": 60, "velocity": 112, "channel": 0}, {"type": "note_on", "time": 538, "note": 67, "velocity": 120, "channel": 0}, {"type": "note_off", "time": 111, "note": 67, "velocity": 120, "channel": 0}, {"type": "note_on", "time": 0, "note": 68, "velocity": 106, "channel": 0}, {"type": "note_off", "time": 62, "note": 68, "velocity": 106, "channel": 0}, {"type": "note_on", "time": 0, "note": 69, "velocity": 105, "channel": 0}, {"type": "note_off", "time": 33, "note": 69, "velocity": 105, "channel": 0}, {"type": "note_on", "time": 16, "note": 70, "velocity": 120, "channel": 0}, {"type": "note_off", "time": 95, "note": 70, "velocity": 120, "channel": 0}, {"type": "note_on", "time": 4, "note": 68, "velocity": 108, "channel": 0}, {"type": "note_off", "time": 49, "note": 68, "velocity": 108, "channel": 0}, {"type": "note_on", "time": 8, "note": 67, "velocity": 118, "channel": 0}, {"type": "note_off", "time": 103, "note": 67, "velocity": 118, "channel": 0}, {"type": "note_on", "time": 20, "note": 63, "velocity": 119, "channel": 0}, {"type": "note_off", "time": 115, "note": 63, "velocity": 119, "channel": 0}, {"type": "note_on", "time": 0, "note": 59, "velocity": 107, "channel": 0}, {"type": "note_off", "time": 74, "note": 59, "velocity": 107, "channel": 0}, {"type": "note_on", "time": 0, "note": 55, "velocity": 102, "channel": 0}, {"type": "note_off", "time": 103, "note": 55, "velocity": 102, "channel": 0}, {"type": "note_on", "time": 0, "note": 61, "velocity": 111, "channel": 0}, {"type": "note_off", "time": 107, "note": 61, "velocity": 111, "channel": 0}, {"type": "note_on", "time": 33, "note": 65, "velocity": 116, "channel": 0}, {"type": "note_off", "time": 78, "note": 65, "velocity": 116, "channel": 0}, {"type": "note_on", "time": 0, "note": 61, "velocity": 104, "channel": 0}, {"type": "note_off", "time": 37, "note": 61, "velocity": 104, "channel": 0}, {"type": "note_on", "time": 16, "note": 63, "velocity": 102, "channel": 0}, {"type": "note_off", "time": 45, "note": 63, "velocity": 102, "channel": 0}, {"type": "note_on", "time": 8, "note": 61, "velocity": 115, "channel": 0}, {"type": "note_off", "time": 78, "note": 61, "velocity": 115, "channel": 0}, {"type": "note_on", "time": 8, "note": 60, "velocity": 114, "channel": 0}, {"type": "note_off", "time": 95, "note": 60, "velocity": 114, "channel": 0}, {"type": "note_on", "time": 277, "note": 65, "velocity": 114, "channel": 0}, {"type": "note_off", "time": 107, "note": 65, "velocity": 114, "channel": 0}, {"type": "note_on", "time": 0, "note": 64, "velocity": 116, "channel": 0}, {"type": "note_off", "time": 95, "note": 64, "velocity": 116, "channel": 0}, {"type": "note_on", "time": 4, "note": 63, "velocity": 115, "channel": 0}, {"type": "note_off", "time": 82, "note": 63, "velocity": 115, "channel": 0}, {"type": "note_on", "time": 33, "note": 70, "velocity": 104, "channel": 0}, {"type": "note_off", "time": 57, "note": 70, "velocity": 104, "channel": 0}, {"type": "note_on", "time": 4, "note": 69, "velocity": 109, "channel": 0}, {"type": "note_off", "time": 49, "note": 69, "velocity": 109, "channel": 0}, {"type": "note_on", "time": 8, "note": 68, "velocity": 111, "channel": 0}, {"type": "note_off", "time": 115, "note": 68, "velocity": 111, "channel": 0}, {"type": "note_on", "time": 128, "note": 60, "velocity": 109, "channel": 0}, {"type": "note_off", "time": 62, "note": 60, "velocity": 109, "channel": 0}, {"type": "note_on", "time": 0, "note": 63, "velocity": 105, "channel": 0}, {"type": "note_off", "time": 57, "note": 63, "velocity": 105, "channel": 0}, {"type": "note_on", "time": 16, "note": 67, "velocity": 116, "channel": 0}, {"type": "note_off", "time": 111, "note": 67, "velocity": 116, "channel": 0}, {"type": "note_on", "time": 0, "note": 65, "velocity": 118, "channel": 0}, {"type": "note_on", "time": 66, "note": 62, "velocity": 106, "channel": 0}, {"type": "note_off", "time": 0, "note": 65, "velocity": 118, "channel": 0}, {"type": "note_off", "time": 66, "note": 62, "velocity": 106, "channel": 0}, {"type": "note_on", "time": 0, "note": 63, "velocity": 109, "channel": 0}, {"type": "note_off", "time": 103, "note": 63, "velocity": 109, "channel": 0}, {"type": "note_on", "time": 12, "note": 64, "velocity": 114, "channel": 0}, {"type": "note_off", "time": 149, "note": 64, "velocity": 114, "channel": 0}, {"type": "note_on", "time": 49, "note": 67, "velocity": 107, "channel": 0}, {"type": "note_off", "time": 149, "note": 67, "velocity": 107, "channel": 0}, {"type": "note_on", "time": 62, "note": 70, "velocity": 111, "channel": 0}, {"type": "note_on", "time": 82, "note": 72, "velocity": 112, "channel": 0}, {"type": "note_off", "time": 0, "note": 70, "velocity": 111, "channel": 0}, {"type": "note_off", "time": 149, "note": 72, "velocity": 112, "channel": 0}, {"type": "note_on", "time": 12, "note": 71, "velocity": 108, "channel": 0}, {"type": "note_off", "time": 70, "note": 71, "velocity": 108, "channel": 0}, {"type": "note_on", "time": 0, "note": 69, "velocity": 102, "channel": 0}, {"type": "note_off", "time": 57, "note": 69, "velocity": 102, "channel": 0}, {"type": "note_on", "time": 16, "note": 67, "velocity": 106, "channel": 0}, {"type": "note_off", "time": 111, "note": 67, "velocity": 106, "channel": 0}, {"type": "note_on", "time": 24, "note": 65, "velocity": 116, "channel": 0}, {"type": "note_off", "time": 86, "note": 65, "velocity": 116, "channel": 0}, {"type": "note_on", "time": 0, "note": 63, "velocity": 109, "channel": 0}, {"type": "note_off", "time": 66, "note": 63, "velocity": 109, "channel": 0}, {"type": "note_on", "time": 0, "note": 62, "velocity": 112, "channel": 0}, {"type": "note_off", "time": 103, "note": 62, "velocity": 112, "channel": 0}, {"type": "note_on", "time": 0, "note": 60, "velocity": 113, "channel": 0}, {"type": "note_off", "time": 91, "note": 60, "velocity": 113, "channel": 0}, {"type": "note_on", "time": 16, "note": 59, "velocity": 109, "channel": 0}, {"type": "note_off", "time": 107, "note": 59, "velocity": 109, "channel": 0}, {"type": "note_on", "time": 12, "note": 58, "velocity": 108, "channel": 0}, {"type": "note_off", "time": 86, "note": 58, "velocity": 108, "channel": 0}, {"type": "note_on", "time": 4, "note": 57, "velocity": 109, "channel": 0}, {"type": "note_off", "time": 82, "note": 57, "velocity": 109, "channel": 0}, {"type": "note_on", "time": 16, "note": 56, "velocity": 108, "channel": 0}, {"type": "note_off", "time": 124, "note": 56, "velocity": 108, "channel": 0}, {"type": "note_on", "time": 273, "note": 67, "velocity": 116, "channel": 0}, {"type": "note_off", "time": 66, "note": 67, "velocity": 116, "channel": 0}, {"type": "note_on", "time": 12, "note": 68, "velocity": 106, "channel": 0}, {"type": "note_off", "time": 45, "note": 68, "velocity": 106, "channel": 0}, {"type": "note_on", "time": 0, "note": 67, "velocity": 121, "channel": 0}, {"type": "note_off", "time": 49, "note": 67, "velocity": 121, "channel": 0}, {"type": "note_on", "time": 0, "note": 65, "velocity": 118, "channel": 0}, {"type": "note_off", "time": 277, "note": 65, "velocity": 118, "channel": 0}, {"type": "note_on", "time": 642, "note": 66, "velocity": 119, "channel": 0}, {"type": "note_off", "time": 124, "note": 66, "velocity": 119, "channel": 0}, {"type": "note_on", "time": 4, "note": 67, "velocity": 114, "channel": 0}, {"type": "note_off", "time": 82, "note": 67, "velocity": 114, "channel": 0}, {"type": "note_on", "time": 12, "note": 71, "velocity": 110, "channel": 0}, {"type": "note_off", "time": 111, "note": 71, "velocity": 110, "channel": 0}, {"type": "note_on", "time": 0, "note": 69, "velocity": 103, "channel": 0}, {"type": "note_off", "time": 57, "note": 69, "velocity": 103, "channel": 0}, {"type": "note_on", "time": 161, "note": 66, "velocity": 114, "channel": 0}, {"type": "note_off", "time": 82, "note": 66, "velocity": 114, "channel": 0}, {"type": "note_on", "time": 24, "note": 67, "velocity": 107, "channel": 0}, {"type": "note_off", "time": 78, "note": 67, "velocity": 107, "channel": 0}, {"type": "note_on", "time": 41, "note": 71, "velocity": 109, "channel": 0}, {"type": "note_off", "time": 128, "note": 71, "velocity": 109, "channel": 0}, {"type": "note_on", "time": 4, "note": 69, "velocity": 101, "channel": 0}, {"type": "note_off", "time": 95, "note": 69, "velocity": 101, "channel": 0}, {"type": "note_on", "time": 0, "note": 67, "velocity": 81, "channel": 0}, {"type": "note_off", "time": 53, "note": 67, "velocity": 81, "channel": 0}, {"type": "note_on", "time": 33, "note": 68, "velocity": 96, "channel": 0}, {"type": "note_off", "time": 66, "note": 68, "velocity": 96, "channel": 0}, {"type": "note_on", "time": 33, "note": 71, "velocity": 9, "channel": 0}, {"type": "note_off", "time": 95, "note": 71, "velocity": 9, "channel": 0}, {"type": "note_on", "time": 12, "note": 69, "velocity": 103, "channel": 0}, {"type": "note_off", "time": 91, "note": 69, "velocity": 103, "channel": 0}, {"type": "note_on", "time": 82, "note": 69, "velocity": 98, "channel": 0}, {"type": "note_off", "time": 57, "note": 69, "velocity": 98, "channel": 0}, {"type": "note_on", "time": 8, "note": 67, "velocity": 113, "channel": 0}, {"type": "note_off", "time": 24, "note": 67, "velocity": 113, "channel": 0}, {"type": "note_on", "time": 8, "note": 66, "velocity": 124, "channel": 0}, {"type": "note_off", "time": 107, "note": 66, "velocity": 124, "channel": 0}, {"type": "note_on", "time": 16, "note": 69, "velocity": 94, "channel": 0}, {"type": "note_off", "time": 45, "note": 69, "velocity": 94, "channel": 0}, {"type": "note_on", "time": 99, "note": 62, "velocity": 112, "channel": 0}, {"type": "note_off", "time": 103, "note": 62, "velocity": 112, "channel": 0}, {"type": "note_on", "time": 8, "note": 59, "velocity": 105, "channel": 0}, {"type": "note_off", "time": 78, "note": 59, "velocity": 105, "channel": 0}, {"type": "note_on", "time": 16, "note": 57, "velocity": 102, "channel": 0}, {"type": "note_on", "time": 95, "note": 58, "velocity": 99, "channel": 0}, {"type": "note_off", "time": 0, "note": 57, "velocity": 102, "channel": 0}, {"type": "note_off", "time": 82, "note": 58, "velocity": 99, "channel": 0}, {"type": "note_on", "time": 4, "note": 60, "velocity": 111, "channel": 0}, {"type": "note_off", "time": 78, "note": 60, "velocity": 111, "channel": 0}, {"type": "note_on", "time": 16, "note": 61, "velocity": 108, "channel": 0}, {"type": "note_off", "time": 120, "note": 61, "velocity": 108, "channel": 0}, {"type": "note_on", "time": 256, "note": 66, "velocity": 124, "channel": 0}, {"type": "note_off", "time": 103, "note": 66, "velocity": 124, "channel": 0}, {"type": "note_on", "time": 8, "note": 65, "velocity": 118, "channel": 0}, {"type": "note_off", "time": 107, "note": 65, "velocity": 118, "channel": 0}, {"type": "note_on", "time": 0, "note": 64, "velocity": 115, "channel": 0}, {"type": "note_on", "time": 70, "note": 62, "velocity": 109, "channel": 0}, {"type": "note_off", "time": 0, "note": 64, "velocity": 115, "channel": 0}, {"type": "note_off", "time": 99, "note": 62, "velocity": 109, "channel": 0}, {"type": "note_on", "time": 16, "note": 63, "velocity": 116, "channel": 0}, {"type": "note_off", "time": 103, "note": 63, "velocity": 116, "channel": 0}, {"type": "note_on", "time": 149, "note": 60, "velocity": 116, "channel": 0}, {"type": "note_off", "time": 86, "note": 60, "velocity": 116, "channel": 0}, {"type": "note_on", "time": 12, "note": 55, "velocity": 112, "channel": 0}, {"type": "note_off", "time": 120, "note": 55, "velocity": 112, "channel": 0}, {"type": "note_on", "time": 248, "note": 58, "velocity": 109, "channel": 0}, {"type": "note_off", "time": 165, "note": 58, "velocity": 109, "channel": 0}, {"type": "note_on", "time": 0, "note": 56, "velocity": 98, "channel": 0}, {"type": "note_off", "time": 95, "note": 56, "velocity": 98, "channel": 0}, {"type": "note_on", "time": 0, "note": 53, "velocity": 100, "channel": 0}, {"type": "note_off", "time": 78, "note": 53, "velocity": 100, "channel": 0}, {"type": "note_on", "time": 4, "note": 60, "velocity": 115, "channel": 0}, {"type": "note_off", "time": 120, "note": 60, "velocity": 115, "channel": 0}, {"type": "note_on", "time": 12, "note": 63, "velocity": 116, "channel": 0}, {"type": "note_off", "time": 124, "note": 63, "velocity": 116, "channel": 0}, {"type": "note_on", "time": 356, "note": 45, "velocity": 114, "channel": 0}, {"type": "note_off", "time": 149, "note": 45, "velocity": 114, "channel": 0}, {"type": "note_on", "time": 0, "note": 52, "velocity": 100, "channel": 0}, {"type": "note_off", "time": 107, "note": 52, "velocity": 100, "channel": 0}, {"type": "note_on", "time": 12, "note": 55, "velocity": 113, "channel": 0}, {"type": "note_off", "time": 124, "note": 55, "velocity": 113, "channel": 0}, {"type": "note_on", "time": 0, "note": 52, "velocity": 93, "channel": 0}, {"type": "note_off", "time": 99, "note": 52, "velocity": 93, "channel": 0}, {"type": "note_on", "time": 20, "note": 54, "velocity": 107, "channel": 0}, {"type": "note_off", "time": 99, "note": 54, "velocity": 107, "channel": 0}, {"type": "note_on", "time": 16, "note": 57, "velocity": 102, "channel": 0}, {"type": "note_off", "time": 66, "note": 57, "velocity": 102, "channel": 0}, {"type": "note_on", "time": 4, "note": 60, "velocity": 103, "channel": 0}, {"type": "note_off", "time": 132, "note": 60, "velocity": 103, "channel": 0}, {"type": "note_on", "time": 4, "note": 64, "velocity": 127, "channel": 0}, {"type": "note_off", "time": 99, "note": 64, "velocity": 127, "channel": 0}, {"type": "note_on", "time": 37, "note": 66, "velocity": 117, "channel": 0}, {"type": "note_off", "time": 115, "note": 66, "velocity": 117, "channel": 0}, {"type": "note_on", "time": 0, "note": 71, "velocity": 109, "channel": 0}, {"type": "note_off", "time": 128, "note": 71, "velocity": 109, "channel": 0}, {"type": "note_on", "time": 8, "note": 70, "velocity": 112, "channel": 0}, {"type": "note_off", "time": 70, "note": 70, "velocity": 112, "channel": 0}, {"type": "note_on", "time": 12, "note": 69, "velocity": 95, "channel": 0}, {"type": "note_off", "time": 103, "note": 69, "velocity": 95, "channel": 0}, {"type": "note_on", "time": 4, "note": 65, "velocity": 114, "channel": 0}, {"type": "note_off", "time": 95, "note": 65, "velocity": 114, "channel": 0}, {"type": "note_on", "time": 0, "note": 62, "velocity": 109, "channel": 0}, {"type": "note_off", "time": 70, "note": 62, "velocity": 109, "channel": 0}, {"type": "note_on", "time": 0, "note": 58, "velocity": 85, "channel": 0}, {"type": "note_off", "time": 66, "note": 58, "velocity": 85, "channel": 0}, {"type": "note_on", "time": 8, "note": 61, "velocity": 110, "channel": 0}, {"type": "note_off", "time": 115, "note": 61, "velocity": 110, "channel": 0}, {"type": "note_on", "time": 0, "note": 64, "velocity": 115, "channel": 0}, {"type": "note_on", "time": 82, "note": 62, "velocity": 105, "channel": 0}, {"type": "note_off", "time": 0, "note": 64, "velocity": 115, "channel": 0}, {"type": "note_off", "time": 86, "note": 62, "velocity": 105, "channel": 0}, {"type": "note_on", "time": 0, "note": 60, "velocity": 107, "channel": 0}, {"type": "note_off", "time": 91, "note": 60, "velocity": 107, "channel": 0}, {"type": "note_on", "time": 4, "note": 59, "velocity": 99, "channel": 0}, {"type": "note_off", "time": 107, "note": 59, "velocity": 99, "channel": 0}, {"type": "note_on", "time": 8, "note": 62, "velocity": 112, "channel": 0}, {"type": "note_off", "time": 86, "note": 62, "velocity": 112, "channel": 0}, {"type": "note_on", "time": 12, "note": 65, "velocity": 104, "channel": 0}, {"type": "note_off", "time": 74, "note": 65, "velocity": 104, "channel": 0}, {"type": "note_on", "time": 33, "note": 68, "velocity": 106, "channel": 0}, {"type": "note_off", "time": 45, "note": 68, "velocity": 106, "channel": 0}, {"type": "note_on", "time": 12, "note": 65, "velocity": 110, "channel": 0}, {"type": "note_off", "time": 107, "note": 65, "velocity": 110, "channel": 0}, {"type": "note_on", "time": 12, "note": 66, "velocity": 119, "channel": 0}, {"type": "note_on", "time": 74, "note": 67, "velocity": 113, "channel": 0}, {"type": "note_off", "time": 0, "note": 66, "velocity": 119, "channel": 0}, {"type": "note_off", "time": 115, "note": 67, "velocity": 113, "channel": 0}, {"type": "note_on", "time": 0, "note": 65, "velocity": 109, "channel": 0}, {"type": "note_off", "time": 78, "note": 65, "velocity": 109, "channel": 0}, {"type": "note_on", "time": 8, "note": 64, "velocity": 110, "channel": 0}, {"type": "note_off", "time": 95, "note": 64, "velocity": 110, "channel": 0}, {"type": "note_on", "time": 0, "note": 60, "velocity": 105, "channel": 0}, {"type": "note_off", "time": 107, "note": 60, "velocity": 105, "channel": 0}, {"type": "note_on", "time": 472, "note": 70, "velocity": 119, "channel": 0}, {"type": "note_off", "time": 78, "note": 70, "velocity": 119, "channel": 0}, {"type": "note_on", "time": 0, "note": 72, "velocity": 119, "channel": 0}, {"type": "note_off", "time": 165, "note": 72, "velocity": 119, "channel": 0}, {"type": "note_on", "time": 0, "note": 70, "velocity": 105, "channel": 0}, {"type": "note_off", "time": 115, "note": 70, "velocity": 105, "channel": 0}, {"type": "note_on", "time": 12, "note": 68, "velocity": 109, "channel": 0}, {"type": "note_off", "time": 111, "note": 68, "velocity": 109, "channel": 0}, {"type": "note_on", "time": 12, "note": 67, "velocity": 109, "channel": 0}, {"type": "note_off", "time": 57, "note": 67, "velocity": 109, "channel": 0}, {"type": "note_on", "time": 0, "note": 65, "velocity": 115, "channel": 0}, {"type": "note_off", "time": 111, "note": 65, "velocity": 115, "channel": 0}, {"type": "note_on", "time": 0, "note": 62, "velocity": 106, "channel": 0}, {"type": "note_off", "time": 70, "note": 62, "velocity": 106, "channel": 0}, {"type": "note_on", "time": 0, "note": 63, "velocity": 103, "channel": 0}, {"type": "note_off", "time": 86, "note": 63, "velocity": 103, "channel": 0}, {"type": "note_on", "time": 66, "note": 64, "velocity": 99, "channel": 0}, {"type": "note_off", "time": 111, "note": 64, "velocity": 99, "channel": 0}, {"type": "note_on", "time": 82, "note": 64, "velocity": 104, "channel": 0}, {"type": "note_off", "time": 124, "note": 64, "velocity": 104, "channel": 0}, {"type": "note_on", "time": 41, "note": 64, "velocity": 114, "channel": 0}, {"type": "note_off", "time": 62, "note": 64, "velocity": 114, "channel": 0}, {"type": "note_on", "time": 20, "note": 65, "velocity": 119, "channel": 0}, {"type": "note_off", "time": 82, "note": 65, "velocity": 119, "channel": 0}, {"type": "note_on", "time": 12, "note": 64, "velocity": 107, "channel": 0}, {"type": "note_off", "time": 103, "note": 64, "velocity": 107, "channel": 0}, {"type": "note_on", "time": 12, "note": 60, "velocity": 111, "channel": 0}, {"type": "note_off", "time": 103, "note": 60, "velocity": 111, "channel": 0}, {"type": "note_on", "time": 33, "note": 55, "velocity": 108, "channel": 0}, {"type": "note_off", "time": 281, "note": 55, "velocity": 108, "channel": 0}, {"type": "note_on", "time": 0, "note": 58, "velocity": 110, "channel": 0}, {"type": "note_off", "time": 132, "note": 58, "velocity": 110, "channel": 0}, {"type": "note_on", "time": 4, "note": 60, "velocity": 110, "channel": 0}, {"type": "note_off", "time": 202, "note": 60, "velocity": 110, "channel": 0}, {"type": "note_on", "time": 4, "note": 58, "velocity": 112, "channel": 0}, {"type": "note_off", "time": 99, "note": 58, "velocity": 112, "channel": 0}, {"type": "note_on", "time": 0, "note": 56, "velocity": 100, "channel": 0}, {"type": "note_off", "time": 331, "note": 56, "velocity": 100, "channel": 0}, {"type": "note_on", "time": 12, "note": 66, "velocity": 107, "channel": 0}, {"type": "note_off", "time": 107, "note": 66, "velocity": 107, "channel": 0}, {"type": "note_on", "time": 8, "note": 67, "velocity": 115, "channel": 0}, {"type": "note_off", "time": 182, "note": 67, "velocity": 115, "channel": 0}, {"type": "note_on", "time": 12, "note": 68, "velocity": 108, "channel": 0}, {"type": "note_off", "time": 41, "note": 68, "velocity": 108, "channel": 0}, {"type": "note_on", "time": 12, "note": 67, "velocity": 107, "channel": 0}, {"type": "note_off", "time": 33, "note": 67, "velocity": 107, "channel": 0}, {"type": "note_on", "time": 8, "note": 65, "velocity": 118, "channel": 0}, {"type": "note_off", "time": 198, "note": 65, "velocity": 118, "channel": 0}, {"type": "note_on", "time": 977, "note": 71, "velocity": 118, "channel": 0}, {"type": "note_off", "time": 91, "note": 71, "velocity": 118, "channel": 0}, {"type": "note_on", "time": 12, "note": 72, "velocity": 116, "channel": 0}, {"type": "note_off", "time": 95, "note": 72, "velocity": 116, "channel": 0}, {"type": "note_on", "time": 8, "note": 71, "velocity": 106, "channel": 0}, {"type": "note_off", "time": 82, "note": 71, "velocity": 106, "channel": 0}, {"type": "note_on", "time": 0, "note": 69, "velocity": 100, "channel": 0}, {"type": "note_off", "time": 62, "note": 69, "velocity": 100, "channel": 0}, {"type": "note_on", "time": 16, "note": 67, "velocity": 112, "channel": 0}, {"type": "note_off", "time": 120, "note": 67, "velocity": 112, "channel": 0}, {"type": "note_on", "time": 24, "note": 64, "velocity": 112, "channel": 0}, {"type": "note_off", "time": 132, "note": 64, "velocity": 112, "channel": 0}, {"type": "note_on", "time": 194, "note": 58, "velocity": 113, "channel": 0}, {"type": "note_off", "time": 78, "note": 58, "velocity": 113, "channel": 0}, {"type": "note_on", "time": 4, "note": 60, "velocity": 93, "channel": 0}, {"type": "note_off", "time": 33, "note": 60, "velocity": 93, "channel": 0}, {"type": "note_on", "time": 4, "note": 62, "velocity": 106, "channel": 0}, {"type": "note_off", "time": 49, "note": 62, "velocity": 106, "channel": 0}, {"type": "note_on", "time": 16, "note": 66, "velocity": 104, "channel": 0}, {"type": "note_off", "time": 74, "note": 66, "velocity": 104, "channel": 0}, {"type": "note_on", "time": 8, "note": 73, "velocity": 118, "channel": 0}, {"type": "note_off", "time": 161, "note": 73, "velocity": 118, "channel": 0}, {"type": "note_on", "time": 33, "note": 71, "velocity": 113, "channel": 0}, {"type": "note_off", "time": 115, "note": 71, "velocity": 113, "channel": 0}, {"type": "note_on", "time": 8, "note": 69, "velocity": 102, "channel": 0}, {"type": "note_off", "time": 103, "note": 69, "velocity": 102, "channel": 0}, {"type": "note_on", "time": 4, "note": 68, "velocity": 95, "channel": 0}, {"type": "note_off", "time": 120, "note": 68, "velocity": 95, "channel": 0}, {"type": "note_on", "time": 0, "note": 64, "velocity": 107, "channel": 0}, {"type": "note_off", "time": 95, "note": 64, "velocity": 107, "channel": 0}, {"type": "note_on", "time": 78, "note": 70, "velocity": 111, "channel": 0}, {"type": "note_off", "time": 82, "note": 70, "velocity": 111, "channel": 0}, {"type": "note_on", "time": 0, "note": 72, "velocity": 111, "channel": 0}, {"type": "note_off", "time": 310, "note": 72, "velocity": 111, "channel": 0}, {"type": "note_on", "time": 3, "note": 70, "velocity": 105, "channel": 0}, {"type": "note_off", "time": 29, "note": 70, "velocity": 105, "channel": 0}, {"type": "note_on", "time": 4, "note": 68, "velocity": 95, "channel": 0}, {"type": "note_off", "time": 37, "note": 68, "velocity": 95, "channel": 0}, {"type": "note_on", "time": 8, "note": 67, "velocity": 113, "channel": 0}, {"type": "note_off", "time": 223, "note": 67, "velocity": 113, "channel": 0}, {"type": "note_on", "time": 12, "note": 65, "velocity": 113, "channel": 0}, {"type": "note_off", "time": 82, "note": 65, "velocity": 113, "channel": 0}, {"type": "note_on", "time": 8, "note": 63, "velocity": 107, "channel": 0}, {"type": "note_off", "time": 91, "note": 63, "velocity": 107, "channel": 0}, {"type": "note_on", "time": 4, "note": 60, "velocity": 100, "channel": 0}, {"type": "note_off", "time": 335, "note": 60, "velocity": 100, "channel": 0}, {"type": "note_on", "time": 405, "note": 70, "velocity": 109, "channel": 0}, {"type": "note_off", "time": 115, "note": 70, "velocity": 109, "channel": 0}, {"type": "note_on", "time": 4, "note": 67, "velocity": 98, "channel": 0}, {"type": "note_off", "time": 86, "note": 67, "velocity": 98, "channel": 0}, {"type": "note_on", "time": 8, "note": 68, "velocity": 103, "channel": 0}, {"type": "note_off", "time": 103, "note": 68, "velocity": 103, "channel": 0}, {"type": "note_on", "time": 8, "note": 70, "velocity": 107, "channel": 0}, {"type": "note_off", "time": 62, "note": 70, "velocity": 107, "channel": 0}, {"type": "note_on", "time": 12, "note": 68, "velocity": 102, "channel": 0}, {"type": "note_off", "time": 49, "note": 68, "velocity": 102, "channel": 0}, {"type": "note_on", "time": 0, "note": 67, "velocity": 113, "channel": 0}, {"type": "note_off", "time": 95, "note": 67, "velocity": 113, "channel": 0}, {"type": "note_on", "time": 0, "note": 65, "velocity": 114, "channel": 0}, {"type": "note_off", "time": 111, "note": 65, "velocity": 114, "channel": 0}, {"type": "note_on", "time": 426, "note": 69, "velocity": 111, "channel": 0}, {"type": "note_off", "time": 66, "note": 69, "velocity": 111, "channel": 0}, {"type": "note_on", "time": 4, "note": 71, "velocity": 111, "channel": 0}, {"type": "note_off", "time": 182, "note": 71, "velocity": 111, "channel": 0}, {"type": "note_on", "time": 0, "note": 74, "velocity": 120, "channel": 0}, {"type": "note_off", "time": 120, "note": 74, "velocity": 120, "channel": 0}, {"type": "note_on", "time": 12, "note": 73, "velocity": 123, "channel": 0}, {"type": "note_off", "time": 99, "note": 73, "velocity": 123, "channel": 0}, {"type": "note_on", "time": 8, "note": 72, "velocity": 111, "channel": 0}, {"type": "note_off", "time": 91, "note": 72, "velocity": 111, "channel": 0}, {"type": "note_on", "time": 0, "note": 71, "velocity": 106, "channel": 0}, {"type": "note_off", "time": 78, "note": 71, "velocity": 106, "channel": 0}, {"type": "note_on", "time": 4, "note": 69, "velocity": 95, "channel": 0}, {"type": "note_off", "time": 82, "note": 69, "velocity": 95, "channel": 0}, {"type": "note_on", "time": 20, "note": 67, "velocity": 108, "channel": 0}, {"type": "note_off", "time": 111, "note": 67, "velocity": 108, "channel": 0}, {"type": "note_on", "time": 8, "note": 66, "velocity": 110, "channel": 0}, {"type": "note_on", "time": 86, "note": 64, "velocity": 103, "channel": 0}, {"type": "note_off", "time": 0, "note": 66, "velocity": 110, "channel": 0}, {"type": "note_off", "time": 82, "note": 64, "velocity": 103, "channel": 0}, {"type": "note_on", "time": 12, "note": 62, "velocity": 90, "channel": 0}, {"type": "note_off", "time": 66, "note": 62, "velocity": 90, "channel": 0}, {"type": "note_on", "time": 8, "note": 64, "velocity": 106, "channel": 0}, {"type": "note_off", "time": 70, "note": 64, "velocity": 106, "channel": 0}, {"type": "note_on", "time": 16, "note": 65, "velocity": 111, "channel": 0}, {"type": "note_off", "time": 99, "note": 65, "velocity": 111, "channel": 0}, {"type": "note_on", "time": 4, "note": 67, "velocity": 110, "channel": 0}, {"type": "note_off", "time": 86, "note": 67, "velocity": 110, "channel": 0}, {"type": "note_on", "time": 0, "note": 64, "velocity": 93, "channel": 0}, {"type": "note_off", "time": 70, "note": 64, "velocity": 93, "channel": 0}, {"type": "note_on", "time": 0, "note": 65, "velocity": 109, "channel": 0}, {"type": "note_off", "time": 107, "note": 65, "velocity": 109, "channel": 0}, {"type": "note_on", "time": 12, "note": 62, "velocity": 108, "channel": 0}, {"type": "note_off", "time": 124, "note": 62, "velocity": 108, "channel": 0}, {"type": "note_on", "time": 4, "note": 64, "velocity": 98, "channel": 0}, {"type": "note_off", "time": 99, "note": 64, "velocity": 98, "channel": 0}, {"type": "note_on", "time": 4, "note": 65, "velocity": 95, "channel": 0}, {"type": "note_on", "time": 37, "note": 67, "velocity": 98, "channel": 0}, {"type": "note_off", "time": 0, "note": 65, "velocity": 95, "channel": 0}, {"type": "note_off", "time": 57, "note": 67, "velocity": 98, "channel": 0}, {"type": "note_on", "time": 24, "note": 70, "velocity": 94, "channel": 0}, {"type": "note_off", "time": 120, "note": 70, "velocity": 94, "channel": 0}, {"type": "note_on", "time": 41, "note": 68, "velocity": 97, "channel": 0}, {"type": "note_off", "time": 95, "note": 68, "velocity": 97, "channel": 0}, {"type": "note_on", "time": 4, "note": 66, "velocity": 86, "channel": 0}, {"type": "note_off", "time": 78, "note": 66, "velocity": 86, "channel": 0}, {"type": "note_on", "time": 0, "note": 63, "velocity": 119, "channel": 0}, {"type": "note_off", "time": 91, "note": 63, "velocity": 119, "channel": 0}, {"type": "note_on", "time": 16, "note": 60, "velocity": 103, "channel": 0}, {"type": "note_off", "time": 82, "note": 60, "velocity": 103, "channel": 0}, {"type": "note_on", "time": 0, "note": 58, "velocity": 103, "channel": 0}, {"type": "note_off", "time": 74, "note": 58, "velocity": 103, "channel": 0}, {"type": "note_on", "time": 0, "note": 56, "velocity": 109, "channel": 0}, {"type": "note_off", "time": 120, "note": 56, "velocity": 109, "channel": 0}, {"type": "note_on", "time": 0, "note": 55, "velocity": 106, "channel": 0}, {"type": "note_off", "time": 107, "note": 55, "velocity": 106, "channel": 0}, {"type": "note_on", "time": 310, "note": 64, "velocity": 86, "channel": 0}, {"type": "note_off", "time": 78, "note": 64, "velocity": 86, "channel": 0}, {"type": "note_on", "time": 16, "note": 65, "velocity": 117, "channel": 0}, {"type": "note_off", "time": 240, "note": 65, "velocity": 117, "channel": 0}, {"type": "note_on", "time": 16, "note": 63, "velocity": 112, "channel": 0}, {"type": "note_off", "time": 231, "note": 63, "velocity": 112, "channel": 0}, {"type": "note_on", "time": 4, "note": 60, "velocity": 108, "channel": 0}, {"type": "note_off", "time": 157, "note": 60, "velocity": 108, "channel": 0}, {"type": "note_on", "time": 20, "note": 56, "velocity": 110, "channel": 0}, {"type": "note_off", "time": 186, "note": 56, "velocity": 110, "channel": 0}, {"type": "note_on", "time": 0, "note": 53, "velocity": 105, "channel": 0}, {"type": "note_off", "time": 161, "note": 53, "velocity": 105, "channel": 0}, {"type": "note_on", "time": 86, "note": 55, "velocity": 107, "channel": 0}, {"type": "note_off", "time": 111, "note": 55, "velocity": 107, "channel": 0}, {"type": "note_on", "time": 70, "note": 64, "velocity": 98, "channel": 0}, {"type": "note_off", "time": 153, "note": 64, "velocity": 98, "channel": 0}, {"type": "note_on", "time": 70, "note": 64, "velocity": 103, "channel": 0}, {"type": "note_off", "time": 111, "note": 64, "velocity": 103, "channel": 0}, {"type": "note_on", "time": 86, "note": 64, "velocity": 105, "channel": 0}, {"type": "note_off", "time": 115, "note": 64, "velocity": 105, "channel": 0}, {"type": "note_on", "time": 41, "note": 64, "velocity": 106, "channel": 0}, {"type": "note_off", "time": 95, "note": 64, "velocity": 106, "channel": 0}, {"type": "note_on", "time": 4, "note": 67, "velocity": 116, "channel": 0}, {"type": "note_off", "time": 37, "note": 67, "velocity": 116, "channel": 0}, {"type": "note_on", "time": 15, "note": 64, "velocity": 109, "channel": 0}, {"type": "note_off", "time": 24, "note": 64, "velocity": 109, "channel": 0}, {"type": "note_on", "time": 0, "note": 62, "velocity": 111, "channel": 0}, {"type": "note_off", "time": 136, "note": 62, "velocity": 111, "channel": 0}, {"type": "note_on", "time": 0, "note": 60, "velocity": 107, "channel": 0}, {"type": "note_off", "time": 252, "note": 60, "velocity": 107, "channel": 0}, {"type": "note_on", "time": 571, "note": 55, "velocity": 109, "channel": 0}, {"type": "note_off", "time": 115, "note": 55, "velocity": 109, "channel": 0}, {"type": "note_on", "time": 0, "note": 58, "velocity": 101, "channel": 0}, {"type": "note_off", "time": 82, "note": 58, "velocity": 101, "channel": 0}, {"type": "note_on", "time": 0, "note": 60, "velocity": 108, "channel": 0}, {"type": "note_off", "time": 107, "note": 60, "velocity": 108, "channel": 0}, {"type": "note_on", "time": 4, "note": 63, "velocity": 114, "channel": 0}, {"type": "note_off", "time": 82, "note": 63, "velocity": 114, "channel": 0}, {"type": "note_on", "time": 24, "note": 67, "velocity": 113, "channel": 0}, {"type": "note_off", "time": 99, "note": 67, "velocity": 113, "channel": 0}, {"type": "note_on", "time": 37, "note": 67, "velocity": 111, "channel": 0}, {"type": "note_off", "time": 99, "note": 67, "velocity": 111, "channel": 0}, {"type": "note_on", "time": 28, "note": 65, "velocity": 112, "channel": 0}, {"type": "note_off", "time": 103, "note": 65, "velocity": 112, "channel": 0}, {"type": "note_on", "time": 4, "note": 67, "velocity": 113, "channel": 0}, {"type": "note_off", "time": 115, "note": 67, "velocity": 113, "channel": 0}, {"type": "note_on", "time": 0, "note": 65, "velocity": 112, "channel": 0}, {"type": "note_off", "time": 144, "note": 65, "velocity": 112, "channel": 0}, {"type": "note_on", "time": 521, "note": 64, "velocity": 111, "channel": 0}, {"type": "note_off", "time": 91, "note": 64, "velocity": 111, "channel": 0}, {"type": "note_on", "time": 24, "note": 69, "velocity": 104, "channel": 0}, {"type": "note_off", "time": 103, "note": 69, "velocity": 104, "channel": 0}, {"type": "note_on", "time": 53, "note": 62, "velocity": 108, "channel": 0}, {"type": "note_off", "time": 111, "note": 62, "velocity": 108, "channel": 0}, {"type": "note_on", "time": 16, "note": 67, "velocity": 111, "channel": 0}, {"type": "note_off", "time": 99, "note": 67, "velocity": 111, "channel": 0}, {"type": "note_on", "time": 28, "note": 60, "velocity": 106, "channel": 0}, {"type": "note_off", "time": 111, "note": 60, "velocity": 106, "channel": 0}, {"type": "note_on", "time": 16, "note": 65, "velocity": 105, "channel": 0}, {"type": "note_off", "time": 95, "note": 65, "velocity": 105, "channel": 0}, {"type": "note_on", "time": 16, "note": 64, "velocity": 109, "channel": 0}, {"type": "note_off", "time": 269, "note": 64, "velocity": 109, "channel": 0}, {"type": "note_on", "time": 8, "note": 62, "velocity": 109, "channel": 0}, {"type": "note_off", "time": 115, "note": 62, "velocity": 109, "channel": 0}, {"type": "note_on", "time": 4, "note": 61, "velocity": 110, "channel": 0}, {"type": "note_off", "time": 202, "note": 61, "velocity": 110, "channel": 0}, {"type": "note_on", "time": 0, "note": 59, "velocity": 97, "channel": 0}, {"type": "note_off", "time": 74, "note": 59, "velocity": 97, "channel": 0}, {"type": "note_on", "time": 0, "note": 57, "velocity": 116, "channel": 0}, {"type": "note_off", "time": 74, "note": 57, "velocity": 116, "channel": 0}, {"type": "note_on", "time": 12, "note": 58, "velocity": 102, "channel": 0}, {"type": "note_off", "time": 99, "note": 58, "velocity": 102, "channel": 0}, {"type": "note_on", "time": 8, "note": 60, "velocity": 108, "channel": 0}, {"type": "note_off", "time": 74, "note": 60, "velocity": 108, "channel": 0}, {"type": "note_on", "time": 0, "note": 61, "velocity": 104, "channel": 0}, {"type": "note_off", "time": 95, "note": 61, "velocity": 104, "channel": 0}, {"type": "note_on", "time": 16, "note": 63, "velocity": 105, "channel": 0}, {"type": "note_off", "time": 78, "note": 63, "velocity": 105, "channel": 0}, {"type": "note_on", "time": 8, "note": 65, "velocity": 106, "channel": 0}, {"type": "note_off", "time": 62, "note": 65, "velocity": 106, "channel": 0}, {"type": "note_on", "time": 16, "note": 67, "velocity": 101, "channel": 0}, {"type": "note_off", "time": 86, "note": 67, "velocity": 101, "channel": 0}, {"type": "note_on", "time": 0, "note": 72, "velocity": 110, "channel": 0}, {"type": "note_off", "time": 173, "note": 72, "velocity": 110, "channel": 0}, {"type": "note_on", "time": 0, "note": 70, "velocity": 101, "channel": 0}, {"type": "note_off", "time": 231, "note": 70, "velocity": 101, "channel": 0}, {"type": "note_on", "time": 0, "note": 67, "velocity": 100, "channel": 0}, {"type": "note_off", "time": 128, "note": 67, "velocity": 100, "channel": 0}, {"type": "note_on", "time": 124, "note": 70, "velocity": 104, "channel": 0}, {"type": "note_off", "time": 327, "note": 70, "velocity": 104, "channel": 0}, {"type": "note_on", "time": 37, "note": 67, "velocity": 105, "channel": 0}, {"type": "note_off", "time": 103, "note": 67, "velocity": 105, "channel": 0}, {"type": "note_on", "time": 74, "note": 63, "velocity": 116, "channel": 0}, {"type": "note_off", "time": 161, "note": 63, "velocity": 116, "channel": 0}, {"type": "note_on", "time": 0, "note": 60, "velocity": 93, "channel": 0}, {"type": "note_off", "time": 95, "note": 60, "velocity": 93, "channel": 0}, {"type": "note_on", "time": 708, "note": 69, "velocity": 107, "channel": 0}, {"type": "note_off", "time": 66, "note": 69, "velocity": 107, "channel": 0}, {"type": "note_on", "time": 24, "note": 71, "velocity": 105, "channel": 0}, {"type": "note_off", "time": 178, "note": 71, "velocity": 105, "channel": 0}, {"type": "note_on", "time": 8, "note": 69, "velocity": 79, "channel": 0}, {"type": "note_off", "time": 74, "note": 69, "velocity": 79, "channel": 0}, {"type": "note_on", "time": 4, "note": 67, "velocity": 109, "channel": 0}, {"type": "note_off", "time": 86, "note": 67, "velocity": 109, "channel": 0}, {"type": "note_on", "time": 0, "note": 66, "velocity": 108, "channel": 0}, {"type": "note_off", "time": 95, "note": 66, "velocity": 108, "channel": 0}, {"type": "note_on", "time": 37, "note": 64, "velocity": 114, "channel": 0}, {"type": "note_off", "time": 82, "note": 64, "velocity": 114, "channel": 0}, {"type": "note_on", "time": 0, "note": 62, "velocity": 101, "channel": 0}, {"type": "note_off", "time": 74, "note": 62, "velocity": 101, "channel": 0}, {"type": "note_on", "time": 0, "note": 61, "velocity": 100, "channel": 0}, {"type": "note_off", "time": 86, "note": 61, "velocity": 100, "channel": 0}, {"type": "note_on", "time": 4, "note": 60, "velocity": 101, "channel": 0}, {"type": "note_off", "time": 82, "note": 60, "velocity": 101, "channel": 0}, {"type": "note_on", "time": 0, "note": 59, "velocity": 92, "channel": 0}, {"type": "note_off", "time": 132, "note": 59, "velocity": 92, "channel": 0}, {"type": "note_on", "time": 0, "note": 57, "velocity": 92, "channel": 0}, {"type": "note_off", "time": 82, "note": 57, "velocity": 92, "channel": 0}, {"type": "note_on", "time": 0, "note": 55, "velocity": 96, "channel": 0}, {"type": "note_off", "time": 99, "note": 55, "velocity": 96, "channel": 0}, {"type": "note_on", "time": 4, "note": 53, "velocity": 99, "channel": 0}, {"type": "note_off", "time": 99, "note": 53, "velocity": 99, "channel": 0}, {"type": "note_on", "time": 4, "note": 64, "velocity": 107, "channel": 0}, {"type": "note_off", "time": 236, "note": 64, "velocity": 107, "channel": 0}, {"type": "note_on", "time": 4, "note": 62, "velocity": 104, "channel": 0}, {"type": "note_off", "time": 244, "note": 62, "velocity": 104, "channel": 0}, {"type": "note_on", "time": 78, "note": 67, "velocity": 109, "channel": 0}, {"type": "note_off", "time": 157, "note": 67, "velocity": 109, "channel": 0}, {"type": "note_on", "time": 1006, "note": 62, "velocity": 103, "channel": 0}, {"type": "note_off", "time": 124, "note": 62, "velocity": 103, "channel": 0}, {"type": "note_on", "time": 41, "note": 61, "velocity": 98, "channel": 0}, {"type": "note_off", "time": 70, "note": 61, "velocity": 98, "channel": 0}, {"type": "note_on", "time": 0, "note": 60, "velocity": 95, "channel": 0}, {"type": "note_off", "time": 111, "note": 60, "velocity": 95, "channel": 0}, {"type": "note_on", "time": 16, "note": 65, "velocity": 107, "channel": 0}, {"type": "note_off", "time": 99, "note": 65, "velocity": 107, "channel": 0}, {"type": "note_on", "time": 53, "note": 64, "velocity": 108, "channel": 0}, {"type": "note_off", "time": 78, "note": 64, "velocity": 108, "channel": 0}, {"type": "note_on", "time": 20, "note": 63, "velocity": 112, "channel": 0}, {"type": "note_off", "time": 78, "note": 63, "velocity": 112, "channel": 0}, {"type": "note_on", "time": 53, "note": 58, "velocity": 108, "channel": 0}, {"type": "note_off", "time": 91, "note": 58, "velocity": 108, "channel": 0}, {"type": "note_on", "time": 33, "note": 57, "velocity": 89, "channel": 0}, {"type": "note_off", "time": 74, "note": 57, "velocity": 89, "channel": 0}, {"type": "note_on", "time": 12, "note": 56, "velocity": 107, "channel": 0}, {"type": "note_off", "time": 86, "note": 56, "velocity": 107, "channel": 0}, {"type": "note_on", "time": 91, "note": 62, "velocity": 112, "channel": 0}, {"type": "note_off", "time": 57, "note": 62, "velocity": 112, "channel": 0}, {"type": "note_on", "time": 16, "note": 63, "velocity": 116, "channel": 0}, {"type": "note_off", "time": 157, "note": 63, "velocity": 116, "channel": 0}, {"type": "note_on", "time": 28, "note": 59, "velocity": 96, "channel": 0}, {"type": "note_off", "time": 103, "note": 59, "velocity": 96, "channel": 0}, {"type": "note_on", "time": 115, "note": 62, "velocity": 110, "channel": 0}, {"type": "note_off", "time": 53, "note": 62, "velocity": 110, "channel": 0}, {"type": "note_on", "time": 24, "note": 62, "velocity": 107, "channel": 0}, {"type": "note_off", "time": 91, "note": 62, "velocity": 107, "channel": 0}, {"type": "note_on", "time": 16, "note": 59, "velocity": 86, "channel": 0}, {"type": "note_off", "time": 140, "note": 59, "velocity": 86, "channel": 0}, {"type": "note_on", "time": 28, "note": 62, "velocity": 102, "channel": 0}, {"type": "note_off", "time": 273, "note": 62, "velocity": 102, "channel": 0}, {"type": "end_of_track", "time": 0}]]}