{"ticks_per_beat": 2520, "tracks": [[{"type": "note_on", "time": 0, "note": 63, "velocity": 88, "channel": 0}, {"type": "note_off", "time": 1503, "note": 63, "velocity": 88, "channel": 0}, {"type": "note_on", "time": 820, "note": 60, "velocity": 93, "channel": 0}, {"type": "note_off", "time": 969, "note": 60, "velocity": 93, "channel": 0}, {"type": "note_on", "time": 49, "note": 61, "velocity": 95, "channel": 0}, {"type": "note_off", "time": 945, "note": 61, "velocity": 95, "channel": 0}, {"type": "note_on", "time": 344, "note": 58, "velocity": 101, "channel": 0}, {"type": "note_off", "time": 1818, "note": 58, "velocity": 101, "channel": 0}, {"type": "note_on", "time": 0, "note": 56, "velocity": 106, "channel": 0}, {"type": "track_name", "name": "Melody", "time": 655}, {"type": "set_tempo", "tempo": 588235, "time": 0}, {"type": "key_signature", "key": "Eb", "time": 0}, {"type": "time_signature", "numerator": 4, "denominator": 4, "clocks_per_click": 24, "notated_32nd_notes_per_beat": 8, "time": 0}, {"type": "note_off", "time": 568, "note": 56, "velocity": 106, "channel": 0}, {"type": "note_on", "time": 3526, "note": 70, "velocity": 111, "channel": 0}, {"type": "note_off", "time": 596, "note": 70, "velocity": 111, "channel": 0}, {"type": "note_on", "time": 49, "note": 72, "velocity": 110, "channel": 0}, {"type": "note_off", "time": 1865, "note": 72, "velocity": 110, "channel": 0}, {"type": "note_on", "time": 24, "note": 70, "velocity": 103, "channel": 0}, {"type": "note_off", "time": 845, "note": 70, "velocity": 103, "channel": 0}, {"type": "note_on", "time": 49, "note": 63, "velocity": 117, "channel": 0}, {"type": "note_off", "time": 845, "note": 63, "velocity": 117, "channel": 0}, {"type": "note_on", "time": 99, "note": 68, "velocity": 100, "channel": 0}, {"type": "note_off", "time": 821, "note": 68, "velocity": 100, "channel": 0}, {"type": "note_on", "time": 209, "note": 67, "velocity": 107, "channel": 0}, {"type": "note_off", "time": 472, "note": 67, "velocity": 107, "channel": 0}, {"type": "note_on", "time": 87, "note": 63, "velocity": 102, "channel": 0}, {"type": "note_off", "time": 699, "note": 63, "velocity": 102, "channel": 0}, {"type": "note_on", "time": 192, "note": 58, "velocity": 104, "channel": 0}, {"type": "note_off", "time": 524, "note": 58, "velocity": 104, "channel": 0}, {"type": "note_on", "time": 262, "note": 56, "velocity": 107, "channel": 0}, {"type": "note_off", "time": 577, "note": 56, "velocity": 107, "channel": 0}, {"type": "note_on", "time": 157, "note": 55, "velocity": 102, "channel": 0}, {"type": "note_off", "time": 1905, "note": 55, "velocity": 102, "channel": 0}, {"type": "note_on", "time": 0, "note": 63, "velocity": 107, "channel": 0}, {"type": "note_off", "time": 5857, "note": 63, "velocity": 107, "channel": 0}, {"type": "note_on", "time": 2854, "note": 68, "velocity": 102, "channel": 0}, {"type": "note_off", "time": 642, "note": 68, "velocity": 102, "channel": 0}, {"type": "note_on", "time": 0, "note": 70, "velocity": 105, "channel": 0}, {"type": "note_off", "time": 384, "note": 70, "velocity": 105, "channel": 0}, {"type": "note_on", "time": 69, "note": 68, "velocity": 101, "channel": 0}, {"type": "note_off", "time": 437, "note": 68, "velocity": 101, "channel": 0}, {"type": "note_on", "time": 34, "note": 63, "velocity": 112, "channel": 0}, {"type": "note_off", "time": 3252, "note": 63, "velocity": 112, "channel": 0}, {"type": "note_on", "time": 0, "note": 68, "velocity": 108, "channel": 0}, {"type": "note_off", "time": 961, "note": 68, "velocity": 108, "channel": 0}, {"type": "note_on", "time": 0, "note": 67, "velocity": 107, "channel": 0}, {"type": "note_off", "time": 734, "note": 67, "velocity": 107, "channel": 0}, {"type": "note_on", "time": 0, "note": 63, "velocity": 117, "channel": 0}, {"type": "note_off", "time": 2797, "note": 63, "velocity": 117, "channel": 0}, {"type": "note_on", "time": 52, "note": 60, "velocity": 94, "channel": 0}, {"type": "note_off", "time": 559, "note": 60, "velocity": 94, "channel": 0}, {"type": "note_on", "time": 318, "note": 63, "velocity": 114, "channel": 0}, {"type": "note_off", "time": 795, "note": 63, "velocity": 114, "channel": 0}, {"type": "note_on", "time": 49, "note": 63, "velocity": 114, "channel": 0}, {"type": "note_off", "time": 734, "note": 63, "velocity": 114, "channel": 0}, {"type": "note_on", "time": 4686, "note": 55, "velocity": 101, "channel": 0}, {"type": "note_off", "time": 497, "note": 55, "velocity": 101, "channel": 0}, {"type": "note_on", "time": 0, "note": 58, "velocity": 95, "channel": 0}, {"type": "note_off", "time": 298, "note": 58, "velocity": 95, "channel": 0}, {"type": "note_on", "time": 0, "note": 61, "velocity": 105, "channel": 0}, {"type": "note_off", "time": 1069, "note": 61, "velocity": 105, "channel": 0}, {"type": "note_on", "time": 0, "note": 65, "velocity": 111, "channel": 0}, {"type": "note_off", "time": 820, "note": 65, "velocity": 111, "channel": 0}, {"type": "note_on", "time": 0, "note": 67, "velocity": 113, "channel": 0}, {"type": "note_off", "time": 1193, "note": 67, "velocity": 113, "channel": 0}, {"type": "note_on", "time": 323, "note": 70, "velocity": 108, "channel": 0}, {"type": "note_off", "time": 497, "note": 70, "velocity": 108, "channel": 0}, {"type": "note_on", "time": 0, "note": 72, "velocity": 106, "channel": 0}, {"type": "note_off", "time": 2835, "note": 72, "velocity": 106, "channel": 0}, {"type": "note_on", "time": 198, "note": 67, "velocity": 107, "channel": 0}, {"type": "note_off", "time": 795, "note": 67, "velocity": 107, "channel": 0}, {"type": "note_on", "time": 621, "note": 69, "velocity": 99, "channel": 0}, {"type": "note_off", "time": 323, "note": 69, "velocity": 99, "channel": 0}, {"type": "note_on", "time": 99, "note": 70, "velocity": 103, "channel": 0}, {"type": "note_off", "time": 679, "note": 70, "velocity": 103, "channel": 0}, {"type": "note_on", "time": 0, "note": 67, "velocity": 89, "channel": 0}, {"type": "note_off", "time": 384, "note": 67, "velocity": 89, "channel": 0}, {"type": "note_on", "time": 0, "note": 63, "velocity": 93, "channel": 0}, {"type": "note_on", "time": 314, "note": 61, "velocity": 102, "channel": 0}, {"type": "note_off", "time": 0, "note": 63, "velocity": 93, "channel": 0}, {"type": "note_off", "time": 1853, "note": 61, "velocity": 102, "channel": 0}, {"type": "note_on", "time": 209, "note": 63, "velocity": 117, "channel": 0}, {"type": "note_off", "time": 1189, "note": 63, "velocity": 117, "channel": 0}, {"type": "note_on", "time": 104, "note": 59, "velocity": 94, "channel": 0}, {"type": "note_off", "time": 559, "note": 59, "velocity": 94, "channel": 0}, {"type": "note_on", "time": 0, "note": 60, "velocity": 97, "channel": 0}, {"type": "note_off", "time": 2797, "note": 60, "velocity": 97, "channel": 0}, {"type": "note_on", "time": 454, "note": 68, "velocity": 104, "channel": 0}, {"type": "note_off", "time": 2867, "note": 68, "velocity": 104, "channel": 0}, {"type": "note_on", "time": 4624, "note": 68, "velocity": 112, "channel": 0}, {"type": "note_off", "time": 497, "note": 68, "velocity": 112, "channel": 0}, {"type": "note_on", "time": 788, "note": 68, "velocity": 111, "channel": 0}, {"type": "note_off", "time": 1049, "note": 68, "velocity": 111, "channel": 0}, {"type": "note_on", "time": 34, "note": 70, "velocity": 107, "channel": 0}, {"type": "note_off", "time": 629, "note": 70, "velocity": 107, "channel": 0}, {"type": "note_on", "time": 507, "note": 66, "velocity": 112, "channel": 0}, {"type": "note_off", "time": 422, "note": 66, "velocity": 112, "channel": 0}, {"type": "note_on", "time": 0, "note": 65, "velocity": 112, "channel": 0}, {"type": "note_off", "time": 621, "note": 65, "velocity": 112, "channel": 0}, {"type": "note_on", "time": 49, "note": 63, "velocity": 114, "channel": 0}, {"type": "note_off", "time": 2835, "note": 63, "velocity": 114, "channel": 0}, {"type": "note_on", "time": 2557, "note": 69, "velocity": 77, "channel": 0}, {"type": "note_off", "time": 227, "note": 69, "velocity": 77, "channel": 0}, {"type": "note_on", "time": 69, "note": 68, "velocity": 114, "channel": 0}, {"type": "note_off", "time": 489, "note": 68, "velocity": 114, "channel": 0}, {"type": "note_on", "time": 0, "note": 70, "velocity": 102, "channel": 0}, {"type": "note_off", "time": 4301, "note": 70, "velocity": 102, "channel": 0}, {"type": "note_on", "time": 34, "note": 68, "velocity": 109, "channel": 0}, {"type": "note_off", "time": 646, "note": 68, "velocity": 109, "channel": 0}, {"type": "note_on", "time": 69, "note": 68, "velocity": 107, "channel": 0}, {"type": "note_off", "time": 804, "note": 68, "velocity": 107, "channel": 0}, {"type": "note_on", "time": 0, "note": 67, "velocity": 109, "channel": 0}, {"type": "note_off", "time": 524, "note": 67, "velocity": 109, "channel": 0}, {"type": "note_on", "time": 0, "note": 65, "velocity": 106, "channel": 0}, {"type": "note_off", "time": 646, "note": 65, "velocity": 106, "channel": 0}, {"type": "note_on", "time": 17, "note": 63, "velocity": 112, "channel": 0}, {"type": "note_off", "time": 734, "note": 63, "velocity": 112, "channel": 0}, {"type": "note_on", "time": 52, "note": 62, "velocity": 113, "channel": 0}, {"type": "note_off", "time": 524, "note": 62, "velocity": 113, "channel": 0}, {"type": "note_on", "time": 0, "note": 60, "velocity": 108, "channel": 0}, {"type": "note_off", "time": 646, "note": 60, "velocity": 108, "channel": 0}, {"type": "note_on", "time": 0, "note": 58, "velocity": 104, "channel": 0}, {"type": "note_off", "time": 629, "note": 58, "velocity": 104, "channel": 0}, {"type": "note_on", "time": 279, "note": 55, "velocity": 96, "channel": 0}, {"type": "note_off", "time": 419, "note": 55, "velocity": 96, "channel": 0}, {"type": "note_on", "time": 157, "note": 56, "velocity": 104, "channel": 0}, {"type": "note_off", "time": 664, "note": 56, "velocity": 104, "channel": 0}, {"type": "note_on", "time": 104, "note": 57, "velocity": 96, "channel": 0}, {"type": "note_off", "time": 244, "note": 57, "velocity": 96, "channel": 0}, {"type": "note_on", "time": 0, "note": 60, "velocity": 111, "channel": 0}, {"type": "note_off", "time": 664, "note": 60, "velocity": 111, "channel": 0}, {"type": "note_on", "time": 0, "note": 62, "velocity": 98, "channel": 0}, {"type": "note_off", "time": 559, "note": 62, "velocity": 98, "channel": 0}, {"type": "note_on", "time": 87, "note": 67, "velocity": 113, "channel": 0}, {"type": "note_off", "time": 751, "note": 67, "velocity": 113, "channel": 0}, {"type": "note_on", "time": 0, "note": 65, "velocity": 110, "channel": 0}, {"type": "note_off", "time": 454, "note": 65, "velocity": 110, "channel": 0}, {"type": "note_on", "time": 52, "note": 62, "velocity": 107, "channel": 0}, {"type": "note_off", "time": 944, "note": 62, "velocity": 107, "channel": 0}, {"type": "note_on", "time": 4464, "note": 60, "velocity": 96, "channel": 0}, {"type": "note_off", "time": 348, "note": 60, "velocity": 96, "channel": 0}, {"type": "note_on", "time": 49, "note": 58, "velocity": 104, "channel": 0}, {"type": "note_off", "time": 323, "note": 58, "velocity": 104, "channel": 0}, {"type": "note_on", "time": 0, "note": 63, "velocity": 116, "channel": 0}, {"type": "note_off", "time": 969, "note": 63, "velocity": 116, "channel": 0}, {"type": "note_on", "time": 0, "note": 65, "velocity": 109, "channel": 0}, {"type": "note_off", "time": 820, "note": 65, "velocity": 109, "channel": 0}, {"type": "note_on", "time": 223, "note": 66, "velocity": 107, "channel": 0}, {"type": "note_off", "time": 373, "note": 66, "velocity": 107, "channel": 0}, {"type": "note_on", "time": 0, "note": 67, "velocity": 108, "channel": 0}, {"type": "note_off", "time": 721, "note": 67, "velocity": 108, "channel": 0}, {"type": "note_on", "time": 49, "note": 68, "velocity": 98, "channel": 0}, {"type": "note_off", "time": 969, "note": 68, "velocity": 98, "channel": 0}, {"type": "note_on", "time": 596, "note": 70, "velocity": 102, "channel": 0}, {"type": "note_off", "time": 994, "note": 70, "velocity": 102, "channel": 0}, {"type": "note_on", "time": 99, "note": 66, "velocity": 106, "channel": 0}, {"type": "note_off", "time": 248, "note": 66, "velocity": 106, "channel": 0}, {"type": "note_on", "time": 0, "note": 67, "velocity": 106, "channel": 0}, {"type": "note_on", "time": 721, "note": 63, "velocity": 115, "channel": 0}, {"type": "note_off", "time": 0, "note": 67, "velocity": 106, "channel": 0}, {"type": "note_off", "time": 920, "note": 63, "velocity": 115, "channel": 0}, {"type": "note_on", "time": 1827, "note": 57, "velocity": 86, "channel": 0}, {"type": "note_off", "time": 310, "note": 57, "velocity": 86, "channel": 0}, {"type": "note_on", "time": 0, "note": 59, "velocity": 102, "channel": 0}, {"type": "note_off", "time": 161, "note": 59, "velocity": 102, "channel": 0}, {"type": "note_on", "time": 0, "note": 62, "velocity": 102, "channel": 0}, {"type": "note_off", "time": 298, "note": 62, "velocity": 102, "channel": 0}, {"type": "note_on", "time": 74, "note": 63, "velocity": 119, "channel": 0}, {"type": "note_off", "time": 733, "note": 63, "velocity": 119, "channel": 0}, {"type": "note_on", "time": 99, "note": 65, "velocity": 113, "channel": 0}, {"type": "note_off", "time": 609, "note": 65, "velocity": 113, "channel": 0}, {"type": "note_on", "time": 49, "note": 66, "velocity": 107, "channel": 0}, {"type": "note_off", "time": 683, "note": 66, "velocity": 107, "channel": 0}, {"type": "note_on", "time": 0, "note": 67, "velocity": 109, "channel": 0}, {"type": "note_off", "time": 833, "note": 67, "velocity": 109, "channel": 0}, {"type": "note_on", "time": 87, "note": 72, "velocity": 112, "channel": 0}, {"type": "note_off", "time": 845, "note": 72, "velocity": 112, "channel": 0}, {"type": "note_on", "time": 248, "note": 65, "velocity": 107, "channel": 0}, {"type": "note_off", "time": 460, "note": 65, "velocity": 107, "channel": 0}, {"type": "note_on", "time": 12, "note": 67, "velocity": 102, "channel": 0}, {"type": "note_off", "time": 870, "note": 67, "velocity": 102, "channel": 0}, {"type": "note_on", "time": 12, "note": 63, "velocity": 113, "channel": 0}, {"type": "note_off", "time": 1641, "note": 63, "velocity": 113, "channel": 0}, {"type": "note_on", "time": 1305, "note": 56, "velocity": 78, "channel": 0}, {"type": "note_off", "time": 422, "note": 56, "velocity": 78, "channel": 0}, {"type": "note_on", "time": 335, "note": 59, "velocity": 92, "channel": 0}, {"type": "note_off", "time": 497, "note": 59, "velocity": 92, "channel": 0}, {"type": "note_on", "time": 348, "note": 60, "velocity": 99, "channel": 0}, {"type": "note_off", "time": 683, "note": 60, "velocity": 99, "channel": 0}, {"type": "note_on", "time": 62, "note": 63, "velocity": 115, "channel": 0}, {"type": "note_on", "time": 857, "note": 65, "velocity": 112, "channel": 0}, {"type": "note_off", "time": 0, "note": 63, "velocity": 115, "channel": 0}, {"type": "note_off", "time": 957, "note": 65, "velocity": 112, "channel": 0}, {"type": "note_on", "time": 37, "note": 66, "velocity": 108, "channel": 0}, {"type": "note_off", "time": 870, "note": 66, "velocity": 108, "channel": 0}, {"type": "note_on", "time": 37, "note": 63, "velocity": 93, "channel": 0}, {"type": "note_off", "time": 783, "note": 63, "velocity": 93, "channel": 0}, {"type": "note_on", "time": 0, "note": 67, "velocity": 103, "channel": 0}, {"type": "note_off", "time": 223, "note": 67, "velocity": 103, "channel": 0}, {"type": "note_on", "time": 62, "note": 69, "velocity": 106, "channel": 0}, {"type": "note_off", "time": 795, "note": 69, "velocity": 106, "channel": 0}, {"type": "note_on", "time": 0, "note": 68, "velocity": 113, "channel": 0}, {"type": "note_off", "time": 1865, "note": 68, "velocity": 113, "channel": 0}, {"type": "note_on", "time": 373, "note": 66, "velocity": 108, "channel": 0}, {"type": "note_off", "time": 758, "note": 66, "velocity": 108, "channel": 0}, {"type": "note_on", "time": 111, "note": 63, "velocity": 116, "channel": 0}, {"type": "note_off", "time": 770, "note": 63, "velocity": 116, "channel": 0}, {"type": "note_on", "time": 12, "note": 58, "velocity": 100, "channel": 0}, {"type": "note_off", "time": 783, "note": 58, "velocity": 100, "channel": 0}, {"type": "note_on", "time": 186, "note": 56, "velocity": 104, "channel": 0}, {"type": "note_off", "time": 584, "note": 56, "velocity": 104, "channel": 0}, {"type": "note_on", "time": 62, "note": 51, "velocity": 87, "channel": 0}, {"type": "note_off", "time": 497, "note": 51, "velocity": 87, "channel": 0}, {"type": "note_on", "time": 49, "note": 54, "velocity": 96, "channel": 0}, {"type": "note_off", "time": 2549, "note": 54, "velocity": 96, "channel": 0}, {"type": "note_on", "time": 7895, "note": 72, "velocity": 81, "channel": 0}, {"type": "note_off", "time": 273, "note": 72, "velocity": 81, "channel": 0}, {"type": "note_on", "time": 49, "note": 71, "velocity": 114, "channel": 0}, {"type": "note_off", "time": 509, "note": 71, "velocity": 114, "channel": 0}, {"type": "note_on", "time": 37, "note": 70, "velocity": 108, "channel": 0}, {"type": "note_off", "time": 571, "note": 70, "velocity": 108, "channel": 0}, {"type": "note_on", "time": 99, "note": 68, "velocity": 112, "channel": 0}, {"type": "note_off", "time": 584, "note": 68, "velocity": 112, "channel": 0}, {"type": "note_on", "time": 124, "note": 67, "velocity": 109, "channel": 0}, {"type": "note_off", "time": 534, "note": 67, "velocity": 109, "channel": 0}, {"type": "note_on", "time": 24, "note": 65, "velocity": 110, "channel": 0}, {"type": "note_off", "time": 696, "note": 65, "velocity": 110, "channel": 0}, {"type": "note_on", "time": 12, "note": 64, "velocity": 114, "channel": 0}, {"type": "note_off", "time": 671, "note": 64, "velocity": 114, "channel": 0}, {"type": "note_on", "time": 0, "note": 61, "velocity": 112, "channel": 0}, {"type": "note_off", "time": 435, "note": 61, "velocity": 112, "channel": 0}, {"type": "note_on", "time": 37, "note": 60, "velocity": 108, "channel": 0}, {"type": "note_off", "time": 534, "note": 60, "velocity": 108, "channel": 0}, {"type": "note_on", "time": 87, "note": 58, "velocity": 103, "channel": 0}, {"type": "note_off", "time": 522, "note": 58, "velocity": 103, "channel": 0}, {"type": "note_on", "time": 248, "note": 57, "velocity": 97, "channel": 0}, {"type": "note_off", "time": 721, "note": 57, "velocity": 97, "channel": 0}, {"type": "note_on", "time": 0, "note": 60, "velocity": 91, "channel": 0}, {"type": "note_off", "time": 472, "note": 60, "velocity": 91, "channel": 0}, {"type": "note_on", "time": 0, "note": 63, "velocity": 112, "channel": 0}, {"type": "note_off", "time": 969, "note": 63, "velocity": 112, "channel": 0}, {"type": "note_on", "time": 323, "note": 67, "velocity": 100, "channel": 0}, {"type": "note_off", "time": 2337, "note": 67, "velocity": 100, "channel": 0}, {"type": "note_on", "time": 149, "note": 56, "velocity": 101, "channel": 0}, {"type": "note_off", "time": 758, "note": 56, "velocity": 101, "channel": 0}, {"type": "note_on", "time": 410, "note": 67, "velocity": 107, "channel": 0}, {"type": "note_off", "time": 559, "note": 67, "velocity": 107, "channel": 0}, {"type": "note_on", "time": 87, "note": 68, "velocity": 101, "channel": 0}, {"type": "note_off", "time": 435, "note": 68, "velocity": 101, "channel": 0}, {"type": "note_on", "time": 24, "note": 67, "velocity": 110, "channel": 0}, {"type": "note_on", "time": 335, "note": 65, "velocity": 105, "channel": 0}, {"type": "note_off", "time": 0, "note": 67, "velocity": 110, "channel": 0}, {"type": "note_off", "time": 385, "note": 65, "velocity": 105, "channel": 0}, {"type": "note_on", "time": 348, "note": 62, "velocity": 113, "channel": 0}, {"type": "note_off", "time": 547, "note": 62, "velocity": 113, "channel": 0}, {"type": "note_on", "time": 49, "note": 59, "velocity": 96, "channel": 0}, {"type": "note_off", "time": 683, "note": 59, "velocity": 96, "channel": 0}, {"type": "note_on", "time": 484, "note": 58, "velocity": 102, "channel": 0}, {"type": "note_off", "time": 696, "note": 58, "velocity": 102, "channel": 0}, {"type": "note_on", "time": 0, "note": 63, "velocity": 112, "channel": 0}, {"type": "note_off", "time": 770, "note": 63, "velocity": 112, "channel": 0}, {"type": "note_on", "time": 1007, "note": 63, "velocity": 101, "channel": 0}, {"type": "note_off", "time": 2039, "note": 63, "velocity": 101, "channel": 0}, {"type": "note_on", "time": 24, "note": 58, "velocity": 86, "channel": 0}, {"type": "note_off", "time": 447, "note": 58, "velocity": 86, "channel": 0}, {"type": "note_on", "time": 37, "note": 56, "velocity": 107, "channel": 0}, {"type": "note_off", "time": 609, "note": 56, "velocity": 107, "channel": 0}, {"type": "note_on", "time": 62, "note": 63, "velocity": 117, "channel": 0}, {"type": "note_off", "time": 621, "note": 63, "velocity": 117, "channel": 0}, {"type": "note_on", "time": 870, "note": 57, "velocity": 104, "channel": 0}, {"type": "note_off", "time": 1019, "note": 57, "velocity": 104, "channel": 0}, {"type": "note_on", "time": 24, "note": 63, "velocity": 100, "channel": 0}, {"type": "note_off", "time": 795, "note": 63, "velocity": 100, "channel": 0}, {"type": "note_on", "time": 783, "note": 58, "velocity": 101, "channel": 0}, {"type": "note_off", "time": 845, "note": 58, "velocity": 101, "channel": 0}, {"type": "note_on", "time": 0, "note": 63, "velocity": 101, "channel": 0}, {"type": "note_off", "time": 2163, "note": 63, "velocity": 101, "channel": 0}, {"type": "note_on", "time": 3245, "note": 63, "velocity": 114, "channel": 0}, {"type": "note_off", "time": 671, "note": 63, "velocity": 114, "channel": 0}, {"type": "note_on", "time": 298, "note": 63, "velocity": 115, "channel": 0}, {"type": "note_off", "time": 770, "note": 63, "velocity": 115, "channel": 0}, {"type": "note_on", "time": 323, "note": 67, "velocity": 100, "channel": 0}, {"type": "note_off", "time": 186, "note": 67, "velocity": 100, "channel": 0}, {"type": "note_on", "time": 24, "note": 68, "velocity": 113, "channel": 0}, {"type": "note_on", "time": 659, "note": 67, "velocity": 108, "channel": 0}, {"type": "note_off", "time": 0, "note": 68, "velocity": 113, "channel": 0}, {"type": "note_off", "time": 746, "note": 67, "velocity": 108, "channel": 0}, {"type": "note_on", "time": 99, "note": 63, "velocity": 110, "channel": 0}, {"type": "note_off", "time": 870, "note": 63, "velocity": 110, "channel": 0}, {"type": "note_on", "time": 186, "note": 63, "velocity": 115, "channel": 0}, {"type": "note_off", "time": 1318, "note": 63, "velocity": 115, "channel": 0}, {"type": "note_on", "time": 273, "note": 63, "velocity": 113, "channel": 0}, {"type": "note_off", "time": 758, "note": 63, "velocity": 113, "channel": 0}, {"type": "note_on", "time": 2737, "note": 63, "velocity": 117, "channel": 0}, {"type": "note_off", "time": 437, "note": 63, "velocity": 117, "channel": 0}, {"type": "note_on", "time": 542, "note": 63, "velocity": 118, "channel": 0}, {"type": "note_off", "time": 664, "note": 63, "velocity": 118, "channel": 0}, {"type": "note_on", "time": 716, "note": 68, "velocity": 109, "channel": 0}, {"type": "note_off", "time": 367, "note": 68, "velocity": 109, "channel": 0}, {"type": "note_on", "time": 52, "note": 70, "velocity": 107, "channel": 0}, {"type": "note_off", "time": 891, "note": 70, "velocity": 107, "channel": 0}, {"type": "note_on", "time": 52, "note": 68, "velocity": 108, "channel": 0}, {"type": "note_off", "time": 489, "note": 68, "velocity": 108, "channel": 0}, {"type": "note_on", "time": 52, "note": 66, "velocity": 108, "channel": 0}, {"type": "note_off", "time": 244, "note": 66, "velocity": 108, "channel": 0}, {"type": "note_on", "time": 0, "note": 63, "velocity": 114, "channel": 0}, {"type": "note_off", "time": 1293, "note": 63, "velocity": 114, "channel": 0}, {"type": "note_on", "time": 279, "note": 63, "velocity": 119, "channel": 0}, {"type": "note_off", "time": 454, "note": 63, "velocity": 119, "channel": 0}, {"type": "note_on", "time": 3549, "note": 63, "velocity": 115, "channel": 0}, {"type": "note_off", "time": 454, "note": 63, "velocity": 115, "channel": 0}, {"type": "note_on", "time": 419, "note": 63, "velocity": 112, "channel": 0}, {"type": "note_off", "time": 664, "note": 63, "velocity": 112, "channel": 0}, {"type": "note_on", "time": 443, "note": 67, "velocity": 100, "channel": 0}, {"type": "note_off", "time": 174, "note": 67, "velocity": 100, "channel": 0}, {"type": "note_on", "time": 37, "note": 68, "velocity": 108, "channel": 0}, {"type": "note_off", "time": 634, "note": 68, "velocity": 108, "channel": 0}, {"type": "note_on", "time": 49, "note": 67, "velocity": 107, "channel": 0}, {"type": "note_off", "time": 236, "note": 67, "velocity": 107, "channel": 0}, {"type": "note_on", "time": 0, "note": 63, "velocity": 111, "channel": 0}, {"type": "note_off", "time": 2461, "note": 63, "velocity": 111, "channel": 0}, {"type": "note_on", "time": 62, "note": 62, "velocity": 112, "channel": 0}, {"type": "note_off", "time": 484, "note": 62, "velocity": 112, "channel": 0}, {"type": "note_on", "time": 348, "note": 63, "velocity": 109, "channel": 0}, {"type": "note_off", "time": 484, "note": 63, "velocity": 109, "channel": 0}, {"type": "note_on", "time": 186, "note": 63, "velocity": 110, "channel": 0}, {"type": "note_off", "time": 721, "note": 63, "velocity": 110, "channel": 0}, {"type": "note_on", "time": 1229, "note": 63, "velocity": 117, "channel": 0}, {"type": "note_off", "time": 460, "note": 63, "velocity": 117, "channel": 0}, {"type": "note_on", "time": 101, "note": 63, "velocity": 115, "channel": 0}, {"type": "note_off", "time": 696, "note": 63, "velocity": 115, "channel": 0}, {"type": "note_on", "time": 1207, "note": 63, "velocity": 113, "channel": 0}, {"type": "note_off", "time": 2099, "note": 63, "velocity": 113, "channel": 0}, {"type": "note_on", "time": 0, "note": 61, "velocity": 100, "channel": 0}, {"type": "note_off", "time": 596, "note": 61, "velocity": 100, "channel": 0}, {"type": "note_on", "time": 24, "note": 67, "velocity": 107, "channel": 0}, {"type": "note_off", "time": 696, "note": 67, "velocity": 107, "channel": 0}, {"type": "note_on", "time": 62, "note": 63, "velocity": 115, "channel": 0}, {"type": "note_off", "time": 770, "note": 63, "velocity": 115, "channel": 0}, {"type": "note_on", "time": 802, "note": 63, "velocity": 99, "channel": 0}, {"type": "note_off", "time": 2622, "note": 63, "velocity": 99, "channel": 0}, {"type": "note_on", "time": 2655, "note": 72, "velocity": 109, "channel": 0}, {"type": "note_off", "time": 920, "note": 72, "velocity": 109, "channel": 0}, {"type": "note_on", "time": 497, "note": 63, "velocity": 113, "channel": 0}, {"type": "note_off", "time": 2909, "note": 63, "velocity": 113, "channel": 0}, {"type": "note_on", "time": 5992, "note": 63, "velocity": 119, "channel": 0}, {"type": "note_off", "time": 577, "note": 63, "velocity": 119, "channel": 0}, {"type": "note_on", "time": 0, "note": 65, "velocity": 106, "channel": 0}, {"type": "note_off", "time": 524, "note": 65, "velocity": 106, "channel": 0}, {"type": "note_on", "time": 227, "note": 68, "velocity": 114, "channel": 0}, {"type": "note_off", "time": 681, "note": 68, "velocity": 114, "channel": 0}, {"type": "note_on", "time": 69, "note": 70, "velocity": 106, "channel": 0}, {"type": "note_off", "time": 751, "note": 70, "velocity": 106, "channel": 0}, {"type": "note_on", "time": 437, "note": 70, "velocity": 112, "channel": 0}, {"type": "note_off", "time": 174, "note": 70, "velocity": 112, "channel": 0}, {"type": "note_on", "time": 87, "note": 72, "velocity": 104, "channel": 0}, {"type": "note_off", "time": 839, "note": 72, "velocity": 104, "channel": 0}, {"type": "note_on", "time": 349, "note": 70, "velocity": 111, "channel": 0}, {"type": "note_off", "time": 314, "note": 70, "velocity": 111, "channel": 0}, {"type": "note_on", "time": 0, "note": 72, "velocity": 100, "channel": 0}, {"type": "note_off", "time": 1014, "note": 72, "velocity": 100, "channel": 0}, {"type": "note_on", "time": 174, "note": 70, "velocity": 113, "channel": 0}, {"type": "note_off", "time": 489, "note": 70, "velocity": 113, "channel": 0}, {"type": "note_on", "time": 122, "note": 72, "velocity": 107, "channel": 0}, {"type": "note_off", "time": 559, "note": 72, "velocity": 107, "channel": 0}, {"type": "note_on", "time": 122, "note": 68, "velocity": 115, "channel": 0}, {"type": "note_off", "time": 821, "note": 68, "velocity": 115, "channel": 0}, {"type": "note_on", "time": 122, "note": 63, "velocity": 117, "channel": 0}, {"type": "note_off", "time": 839, "note": 63, "velocity": 117, "channel": 0}, {"type": "note_on", "time": 559, "note": 63, "velocity": 105, "channel": 0}, {"type": "note_off", "time": 2587, "note": 63, "velocity": 105, "channel": 0}, {"type": "note_on", "time": 5053, "note": 74, "velocity": 95, "channel": 0}, {"type": "note_off", "time": 524, "note": 74, "velocity": 95, "channel": 0}, {"type": "note_on", "time": 454, "note": 72, "velocity": 111, "channel": 0}, {"type": "note_on", "time": 402, "note": 70, "velocity": 108, "channel": 0}, {"type": "note_off", "time": 0, "note": 72, "velocity": 111, "channel": 0}, {"type": "note_off", "time": 594, "note": 70, "velocity": 108, "channel": 0}, {"type": "note_on", "time": 192, "note": 69, "velocity": 110, "channel": 0}, {"type": "note_off", "time": 454, "note": 69, "velocity": 110, "channel": 0}, {"type": "note_on", "time": 139, "note": 68, "velocity": 112, "channel": 0}, {"type": "note_off", "time": 594, "note": 68, "velocity": 112, "channel": 0}, {"type": "note_on", "time": 279, "note": 67, "velocity": 114, "channel": 0}, {"type": "note_off", "time": 489, "note": 67, "velocity": 114, "channel": 0}, {"type": "note_on", "time": 69, "note": 65, "velocity": 107, "channel": 0}, {"type": "note_off", "time": 507, "note": 65, "velocity": 107, "channel": 0}, {"type": "note_on", "time": 419, "note": 64, "velocity": 114, "channel": 0}, {"type": "note_off", "time": 577, "note": 64, "velocity": 114, "channel": 0}, {"type": "note_on", "time": 384, "note": 67, "velocity": 9, "channel": 0}, {"type": "note_off", "time": 611, "note": 67, "velocity": 9, "channel": 0}, {"type": "note_on", "time": 0, "note": 65, "velocity": 94, "channel": 0}, {"type": "note_off", "time": 821, "note": 65, "velocity": 94, "channel": 0}, {"type": "note_on", "time": 174, "note": 63, "velocity": 112, "channel": 0}, {"type": "note_off", "time": 909, "note": 63, "velocity": 112, "channel": 0}, {"type": "note_on", "time": 0, "note": 61, "velocity": 97, "channel": 0}, {"type": "note_off", "time": 437, "note": 61, "velocity": 97, "channel": 0}, {"type": "note_on", "time": 17, "note": 62, "velocity": 107, "channel": 0}, {"type": "note_off", "time": 262, "note": 62, "velocity": 107, "channel": 0}, {"type": "note_on", "time": 104, "note": 65, "velocity": 96, "channel": 0}, {"type": "note_off", "time": 244, "note": 65, "velocity": 96, "channel": 0}, {"type": "note_on", "time": 0, "note": 72, "velocity": 110, "channel": 0}, {"type": "note_off", "time": 629, "note": 72, "velocity": 110, "channel": 0}, {"type": "note_on", "time": 52, "note": 70, "velocity": 103, "channel": 0}, {"type": "note_off", "time": 524, "note": 70, "velocity": 103, "channel": 0}, {"type": "note_on", "time": 192, "note": 69, "velocity": 105, "channel": 0}, {"type": "note_off", "time": 646, "note": 69, "velocity": 105, "channel": 0}, {"type": "note_on", "time": 87, "note": 68, "velocity": 107, "channel": 0}, {"type": "note_off", "time": 472, "note": 68, "velocity": 107, "channel": 0}, {"type": "note_on", "time": 69, "note": 63, "velocity": 92, "channel": 0}, {"type": "note_off", "time": 437, "note": 63, "velocity": 92, "channel": 0}, {"type": "note_on", "time": 209, "note": 65, "velocity": 108, "channel": 0}, {"type": "note_off", "time": 392, "note": 65, "velocity": 108, "channel": 0}, {"type": "note_on", "time": 0, "note": 67, "velocity": 109, "channel": 0}, {"type": "note_off", "time": 1740, "note": 67, "velocity": 109, "channel": 0}, {"type": "note_on", "time": 49, "note": 68, "velocity": 105, "channel": 0}, {"type": "note_off", "time": 198, "note": 68, "velocity": 105, "channel": 0}, {"type": "note_on", "time": 0, "note": 65, "velocity": 106, "channel": 0}, {"type": "note_off", "time": 174, "note": 65, "velocity": 106, "channel": 0}, {"type": "note_on", "time": 0, "note": 63, "velocity": 103, "channel": 0}, {"type": "note_off", "time": 2461, "note": 63, "velocity": 103, "channel": 0}, {"type": "note_on", "time": 2098, "note": 63, "velocity": 119, "channel": 0}, {"type": "note_off", "time": 524, "note": 63, "velocity": 119, "channel": 0}, {"type": "note_on", "time": 139, "note": 65, "velocity": 105, "channel": 0}, {"type": "note_off", "time": 454, "note": 65, "velocity": 105, "channel": 0}, {"type": "note_on", "time": 192, "note": 67, "velocity": 111, "channel": 0}, {"type": "note_off", "time": 1398, "note": 67, "velocity": 111, "channel": 0}, {"type": "note_on", "time": 17, "note": 70, "velocity": 98, "channel": 0}, {"type": "note_off", "time": 629, "note": 70, "velocity": 98, "channel": 0}, {"type": "note_on", "time": 0, "note": 75, "velocity": 109, "channel": 0}, {"type": "note_off", "time": 1363, "note": 75, "velocity": 109, "channel": 0}, {"type": "note_on", "time": 314, "note": 72, "velocity": 111, "channel": 0}, {"type": "note_off", "time": 874, "note": 72, "velocity": 111, "channel": 0}, {"type": "note_on", "time": 104, "note": 73, "velocity": 108, "channel": 0}, {"type": "note_off", "time": 1818, "note": 73, "velocity": 108, "channel": 0}, {"type": "note_on", "time": 69, "note": 72, "velocity": 110, "channel": 0}, {"type": "note_off", "time": 227, "note": 72, "velocity": 110, "channel": 0}, {"type": "note_on", "time": 0, "note": 71, "velocity": 107, "channel": 0}, {"type": "note_off", "time": 262, "note": 71, "velocity": 107, "channel": 0}, {"type": "note_on", "time": 52, "note": 70, "velocity": 105, "channel": 0}, {"type": "note_off", "time": 612, "note": 70, "velocity": 105, "channel": 0}, {"type": "note_on", "time": 0, "note": 68, "velocity": 115, "channel": 0}, {"type": "note_off", "time": 594, "note": 68, "velocity": 115, "channel": 0}, {"type": "note_on", "time": 104, "note": 67, "velocity": 108, "channel": 0}, {"type": "note_off", "time": 437, "note": 67, "velocity": 108, "channel": 0}, {"type": "note_on", "time": 0, "note": 65, "velocity": 109, "channel": 0}, {"type": "note_off", "time": 891, "note": 65, "velocity": 109, "channel": 0}, {"type": "note_on", "time": 0, "note": 63, "velocity": 112, "channel": 0}, {"type": "note_off", "time": 419, "note": 63, "velocity": 112, "channel": 0}, {"type": "note_on", "time": 87, "note": 62, "velocity": 113, "channel": 0}, {"type": "note_off", "time": 646, "note": 62, "velocity": 113, "channel": 0}, {"type": "note_on", "time": 69, "note": 61, "velocity": 102, "channel": 0}, {"type": "note_off", "time": 699, "note": 61, "velocity": 102, "channel": 0}, {"type": "note_on", "time": 192, "note": 66, "velocity": 99, "channel": 0}, {"type": "note_off", "time": 384, "note": 66, "velocity": 99, "channel": 0}, {"type": "note_on", "time": 0, "note": 72, "velocity": 110, "channel": 0}, {"type": "note_off", "time": 979, "note": 72, "velocity": 110, "channel": 0}, {"type": "note_on", "time": 192, "note": 70, "velocity": 111, "channel": 0}, {"type": "note_off", "time": 507, "note": 70, "velocity": 111, "channel": 0}, {"type": "note_on", "time": 157, "note": 72, "velocity": 105, "channel": 0}, {"type": "note_off", "time": 297, "note": 72, "velocity": 105, "channel": 0}, {"type": "note_on", "time": 104, "note": 71, "velocity": 110, "channel": 0}, {"type": "note_off", "time": 314, "note": 71, "velocity": 110, "channel": 0}, {"type": "note_on", "time": 0, "note": 67, "velocity": 108, "channel": 0}, {"type": "note_off", "time": 454, "note": 67, "velocity": 108, "channel": 0}, {"type": "note_on", "time": 227, "note": 65, "velocity": 107, "channel": 0}, {"type": "note_off", "time": 437, "note": 65, "velocity": 107, "channel": 0}, {"type": "note_on", "time": 0, "note": 63, "velocity": 115, "channel": 0}, {"type": "note_off", "time": 664, "note": 63, "velocity": 115, "channel": 0}, {"type": "note_on", "time": 174, "note": 61, "velocity": 109, "channel": 0}, {"type": "note_off", "time": 454, "note": 61, "velocity": 109, "channel": 0}, {"type": "note_on", "time": 0, "note": 60, "velocity": 100, "channel": 0}, {"type": "note_off", "time": 559, "note": 60, "velocity": 100, "channel": 0}, {"type": "note_on", "time": 52, "note": 63, "velocity": 112, "channel": 0}, {"type": "note_off", "time": 489, "note": 63, "velocity": 112, "channel": 0}, {"type": "note_on", "time": 0, "note": 65, "velocity": 107, "channel": 0}, {"type": "note_off", "time": 996, "note": 65, "velocity": 107, "channel": 0}, {"type": "note_on", "time": 244, "note": 68, "velocity": 98, "channel": 0}, {"type": "note_off", "time": 2536, "note": 68, "velocity": 98, "channel": 0}, {"type": "note_on", "time": 3513, "note": 70, "velocity": 110, "channel": 0}, {"type": "note_off", "time": 594, "note": 70, "velocity": 110, "channel": 0}, {"type": "note_on", "time": 69, "note": 72, "velocity": 112, "channel": 0}, {"type": "note_off", "time": 2028, "note": 72, "velocity": 112, "channel": 0}, {"type": "note_on", "time": 0, "note": 67, "velocity": 111, "channel": 0}, {"type": "note_off", "time": 542, "note": 67, "velocity": 111, "channel": 0}, {"type": "note_on", "time": 17, "note": 69, "velocity": 107, "channel": 0}, {"type": "note_off", "time": 664, "note": 69, "velocity": 107, "channel": 0}, {"type": "note_on", "time": 69, "note": 65, "velocity": 111, "channel": 0}, {"type": "note_off", "time": 594, "note": 65, "velocity": 111, "channel": 0}, {"type": "note_on", "time": 34, "note": 66, "velocity": 109, "channel": 0}, {"type": "note_off", "time": 542, "note": 66, "velocity": 109, "channel": 0}, {"type": "note_on", "time": 192, "note": 62, "velocity": 116, "channel": 0}, {"type": "note_off", "time": 349, "note": 62, "velocity": 116, "channel": 0}, {"type": "note_on", "time": 0, "note": 63, "velocity": 118, "channel": 0}, {"type": "note_off", "time": 594, "note": 63, "velocity": 118, "channel": 0}, {"type": "note_on", "time": 34, "note": 58, "velocity": 101, "channel": 0}, {"type": "note_off", "time": 419, "note": 58, "velocity": 101, "channel": 0}, {"type": "note_on", "time": 0, "note": 60, "velocity": 103, "channel": 0}, {"type": "note_off", "time": 874, "note": 60, "velocity": 103, "channel": 0}, {"type": "note_on", "time": 0, "note": 56, "velocity": 105, "channel": 0}, {"type": "note_off", "time": 472, "note": 56, "velocity": 105, "channel": 0}, {"type": "note_on", "time": 69, "note": 57, "velocity": 108, "channel": 0}, {"type": "note_off", "time": 839, "note": 57, "velocity": 108, "channel": 0}, {"type": "note_on", "time": 0, "note": 58, "velocity": 101, "channel": 0}, {"type": "note_off", "time": 1119, "note": 58, "velocity": 101, "channel": 0}, {"type": "note_on", "time": 0, "note": 67, "velocity": 116, "channel": 0}, {"type": "note_off", "time": 874, "note": 67, "velocity": 116, "channel": 0}, {"type": "note_on", "time": 3340, "note": 67, "velocity": 113, "channel": 0}, {"type": "note_off", "time": 895, "note": 67, "velocity": 113, "channel": 0}, {"type": "note_on", "time": 62, "note": 64, "velocity": 115, "channel": 0}, {"type": "note_off", "time": 808, "note": 64, "velocity": 115, "channel": 0}, {"type": "note_on", "time": 1852, "note": 67, "velocity": 112, "channel": 0}, {"type": "note_off", "time": 882, "note": 67, "velocity": 112, "channel": 0}, {"type": "note_on", "time": 37, "note": 64, "velocity": 104, "channel": 0}, {"type": "note_off", "time": 397, "note": 64, "velocity": 104, "channel": 0}, {"type": "note_on", "time": 62, "note": 65, "velocity": 111, "channel": 0}, {"type": "note_off", "time": 795, "note": 65, "velocity": 111, "channel": 0}, {"type": "note_on", "time": 62, "note": 60, "velocity": 103, "channel": 0}, {"type": "note_off", "time": 795, "note": 60, "velocity": 103, "channel": 0}, {"type": "note_on", "time": 945, "note": 63, "velocity": 119, "channel": 0}, {"type": "note_off", "time": 509, "note": 63, "velocity": 119, "channel": 0}, {"type": "note_on", "time": 37, "note": 64, "velocity": 117, "channel": 0}, {"type": "note_off", "time": 1367, "note": 64, "velocity": 117, "channel": 0}, {"type": "note_on", "time": 49, "note": 60, "velocity": 93, "channel": 0}, {"type": "note_off", "time": 385, "note": 60, "velocity": 93, "channel": 0}, {"type": "note_on", "time": 0, "note": 63, "velocity": 114, "channel": 0}, {"type": "note_off", "time": 833, "note": 63, "velocity": 114, "channel": 0}, {"type": "note_on", "time": 87, "note": 60, "velocity": 94, "channel": 0}, {"type": "note_off", "time": 385, "note": 60, "velocity": 94, "channel": 0}, {"type": "note_on", "time": 0, "note": 62, "velocity": 113, "channel": 0}, {"type": "note_off", "time": 1081, "note": 62, "velocity": 113, "channel": 0}, {"type": "note_on", "time": 149, "note": 70, "velocity": 106, "channel": 0}, {"type": "note_off", "time": 1181, "note": 70, "velocity": 106, "channel": 0}, {"type": "note_on", "time": 0, "note": 70, "velocity": 80, "channel": 0}, {"type": "note_off", "time": 0, "note": 70, "velocity": 80, "channel": 0}, {"type": "note_on", "time": 74, "note": 66, "velocity": 110, "channel": 0}, {"type": "note_off", "time": 733, "note": 66, "velocity": 110, "channel": 0}, {"type": "note_on", "time": 659, "note": 63, "velocity": 105, "channel": 0}, {"type": "note_off", "time": 2362, "note": 63, "velocity": 105, "channel": 0}, {"type": "note_on", "time": 2648, "note": 63, "velocity": 113, "channel": 0}, {"type": "note_off", "time": 1069, "note": 63, "velocity": 113, "channel": 0}, {"type": "note_on", "time": 1243, "note": 67, "velocity": 74, "channel": 0}, {"type": "note_off", "time": 310, "note": 67, "velocity": 74, "channel": 0}, {"type": "note_on", "time": 12, "note": 68, "velocity": 116, "channel": 0}, {"type": "note_off", "time": 596, "note": 68, "velocity": 116, "channel": 0}, {"type": "note_on", "time": 136, "note": 67, "velocity": 109, "channel": 0}, {"type": "note_off", "time": 571, "note": 67, "velocity": 109, "channel": 0}, {"type": "note_on", "time": 0, "note": 63, "velocity": 116, "channel": 0}, {"type": "note_off", "time": 907, "note": 63, "velocity": 116, "channel": 0}, {"type": "note_on", "time": 87, "note": 58, "velocity": 94, "channel": 0}, {"type": "note_off", "time": 360, "note": 58, "velocity": 94, "channel": 0}, {"type": "note_on", "time": 0, "note": 63, "velocity": 114, "channel": 0}, {"type": "note_off", "time": 2188, "note": 63, "velocity": 114, "channel": 0}, {"type": "note_on", "time": 5557, "note": 60, "velocity": 108, "channel": 0}, {"type": "note_on", "time": 577, "note": 63, "velocity": 115, "channel": 0}, {"type": "note_off", "time": 0, "note": 60, "velocity": 108, "channel": 0}, {"type": "note_off", "time": 629, "note": 63, "velocity": 115, "channel": 0}, {"type": "note_on", "time": 104, "note": 65, "velocity": 111, "channel": 0}, {"type": "note_off", "time": 1066, "note": 65, "velocity": 111, "channel": 0}, {"type": "note_on", "time": 0, "note": 60, "velocity": 97, "channel": 0}, {"type": "note_off", "time": 402, "note": 60, "velocity": 97, "channel": 0}, {"type": "note_on", "time": 0, "note": 63, "velocity": 114, "channel": 0}, {"type": "note_off", "time": 2955, "note": 63, "velocity": 114, "channel": 0}, {"type": "note_on", "time": 954, "note": 58, "velocity": 110, "channel": 0}, {"type": "note_off", "time": 945, "note": 58, "velocity": 110, "channel": 0}, {"type": "note_on", "time": 198, "note": 56, "velocity": 106, "channel": 0}, {"type": "note_off", "time": 2312, "note": 56, "velocity": 106, "channel": 0}, {"type": "note_on", "time": 0, "note": 63, "velocity": 117, "channel": 0}, {"type": "note_off", "time": 1790, "note": 63, "velocity": 117, "channel": 0}, {"type": "note_on", "time": 49, "note": 53, "velocity": 104, "channel": 0}, {"type": "note_off", "time": 547, "note": 53, "velocity": 104, "channel": 0}, {"type": "note_on", "time": 0, "note": 55, "velocity": 103, "channel": 0}, {"type": "note_off", "time": 2461, "note": 55, "velocity": 103, "channel": 0}, {"type": "note_on", "time": 5073, "note": 60, "velocity": 106, "channel": 0}, {"type": "note_off", "time": 870, "note": 60, "velocity": 106, "channel": 0}, {"type": "note_on", "time": 124, "note": 63, "velocity": 120, "channel": 0}, {"type": "note_off", "time": 795, "note": 63, "velocity": 120, "channel": 0}, {"type": "note_on", "time": 0, "note": 65, "velocity": 113, "channel": 0}, {"type": "note_off", "time": 795, "note": 65, "velocity": 113, "channel": 0}, {"type": "note_on", "time": 0, "note": 60, "velocity": 97, "channel": 0}, {"type": "note_off", "time": 646, "note": 60, "velocity": 97, "channel": 0}, {"type": "note_on", "time": 0, "note": 63, "velocity": 112, "channel": 0}, {"type": "note_off", "time": 3431, "note": 63, "velocity": 112, "channel": 0}, {"type": "note_on", "time": 223, "note": 58, "velocity": 104, "channel": 0}, {"type": "note_off", "time": 969, "note": 58, "velocity": 104, "channel": 0}, {"type": "note_on", "time": 0, "note": 56, "velocity": 106, "channel": 0}, {"type": "note_off", "time": 2412, "note": 56, "velocity": 106, "channel": 0}, {"type": "note_on", "time": 323, "note": 63, "velocity": 116, "channel": 0}, {"type": "note_off", "time": 1417, "note": 63, "velocity": 116, "channel": 0}, {"type": "note_on", "time": 298, "note": 53, "velocity": 100, "channel": 0}, {"type": "note_off", "time": 323, "note": 53, "velocity": 100, "channel": 0}, {"type": "note_on", "time": 0, "note": 55, "velocity": 103, "channel": 0}, {"type": "note_off", "time": 2536, "note": 55, "velocity": 103, "channel": 0}, {"type": "note_on", "time": 5275, "note": 65, "velocity": 108, "channel": 0}, {"type": "note_off", "time": 769, "note": 65, "velocity": 108, "channel": 0}, {"type": "note_on", "time": 0, "note": 68, "velocity": 112, "channel": 0}, {"type": "note_off", "time": 839, "note": 68, "velocity": 112, "channel": 0}, {"type": "note_on", "time": 0, "note": 70, "velocity": 108, "channel": 0}, {"type": "note_off", "time": 944, "note": 70, "velocity": 108, "channel": 0}, {"type": "note_on", "time": 0, "note": 65, "velocity": 110, "channel": 0}, {"type": "note_off", "time": 699, "note": 65, "velocity": 110, "channel": 0}, {"type": "note_on", "time": 0, "note": 68, "velocity": 114, "channel": 0}, {"type": "note_off", "time": 3497, "note": 68, "velocity": 114, "channel": 0}, {"type": "note_on", "time": 69, "note": 63, "velocity": 117, "channel": 0}, {"type": "note_off", "time": 1328, "note": 63, "velocity": 117, "channel": 0}, {"type": "note_on", "time": 0, "note": 61, "velocity": 113, "channel": 0}, {"type": "note_off", "time": 1923, "note": 61, "velocity": 113, "channel": 0}, {"type": "note_on", "time": 0, "note": 66, "velocity": 95, "channel": 0}, {"type": "note_off", "time": 314, "note": 66, "velocity": 95, "channel": 0}, {"type": "note_on", "time": 69, "note": 68, "velocity": 111, "channel": 0}, {"type": "note_off", "time": 1538, "note": 68, "velocity": 111, "channel": 0}, {"type": "note_on", "time": 0, "note": 60, "velocity": 98, "channel": 0}, {"type": "note_off", "time": 2762, "note": 60, "velocity": 98, "channel": 0}, {"type": "note_on", "time": 5910, "note": 62, "velocity": 111, "channel": 0}, {"type": "note_off", "time": 559, "note": 62, "velocity": 111, "channel": 0}, {"type": "note_on", "time": 0, "note": 64, "velocity": 118, "channel": 0}, {"type": "note_on", "time": 349, "note": 65, "velocity": 107, "channel": 0}, {"type": "note_off", "time": 0, "note": 64, "velocity": 118, "channel": 0}, {"type": "note_off", "time": 874, "note": 65, "velocity": 107, "channel": 0}, {"type": "note_on", "time": 0, "note": 67, "velocity": 114, "channel": 0}, {"type": "note_off", "time": 1154, "note": 67, "velocity": 114, "channel": 0}, {"type": "note_on", "time": 0, "note": 68, "velocity": 117, "channel": 0}, {"type": "note_off", "time": 909, "note": 68, "velocity": 117, "channel": 0}, {"type": "note_on", "time": 0, "note": 70, "velocity": 110, "channel": 0}, {"type": "note_off", "time": 874, "note": 70, "velocity": 110, "channel": 0}, {"type": "note_on", "time": 559, "note": 70, "velocity": 117, "channel": 0}, {"type": "note_off", "time": 559, "note": 70, "velocity": 117, "channel": 0}, {"type": "note_on", "time": 0, "note": 72, "velocity": 113, "channel": 0}, {"type": "note_off", "time": 2028, "note": 72, "velocity": 113, "channel": 0}, {"type": "note_on", "time": 0, "note": 68, "velocity": 113, "channel": 0}, {"type": "note_off", "time": 664, "note": 68, "velocity": 113, "channel": 0}, {"type": "note_on", "time": 34, "note": 67, "velocity": 109, "channel": 0}, {"type": "note_off", "time": 559, "note": 67, "velocity": 109, "channel": 0}, {"type": "note_on", "time": 104, "note": 65, "velocity": 110, "channel": 0}, {"type": "note_off", "time": 734, "note": 65, "velocity": 110, "channel": 0}, {"type": "note_on", "time": 34, "note": 64, "velocity": 112, "channel": 0}, {"type": "note_off", "time": 524, "note": 64, "velocity": 112, "channel": 0}, {"type": "note_on", "time": 0, "note": 60, "velocity": 93, "channel": 0}, {"type": "note_off", "time": 559, "note": 60, "velocity": 93, "channel": 0}, {"type": "note_on", "time": 0, "note": 63, "velocity": 116, "channel": 0}, {"type": "note_on", "time": 874, "note": 61, "velocity": 96, "channel": 0}, {"type": "note_off", "time": 0, "note": 63, "velocity": 116, "channel": 0}, {"type": "note_off", "time": 394, "note": 61, "velocity": 96, "channel": 0}, {"type": "note_on", "time": 0, "note": 62, "velocity": 103, "channel": 0}, {"type": "note_off", "time": 1666, "note": 62, "velocity": 103, "channel": 0}, {"type": "note_on", "time": 0, "note": 67, "velocity": 85, "channel": 0}, {"type": "note_off", "time": 198, "note": 67, "velocity": 85, "channel": 0}, {"type": "note_on", "time": 0, "note": 71, "velocity": 107, "channel": 0}, {"type": "note_off", "time": 596, "note": 71, "velocity": 107, "channel": 0}, {"type": "note_on", "time": 0, "note": 70, "velocity": 107, "channel": 0}, {"type": "note_off", "time": 945, "note": 70, "velocity": 107, "channel": 0}, {"type": "note_on", "time": 7634, "note": 71, "velocity": 93, "channel": 0}, {"type": "note_off", "time": 497, "note": 71, "velocity": 93, "channel": 0}, {"type": "note_on", "time": 0, "note": 73, "velocity": 110, "channel": 0}, {"type": "note_off", "time": 945, "note": 73, "velocity": 110, "channel": 0}, {"type": "note_on", "time": 0, "note": 71, "velocity": 93, "channel": 0}, {"type": "note_off", "time": 397, "note": 71, "velocity": 93, "channel": 0}, {"type": "note_on", "time": 198, "note": 73, "velocity": 108, "channel": 0}, {"type": "note_off", "time": 696, "note": 73, "velocity": 108, "channel": 0}, {"type": "note_on", "time": 0, "note": 70, "velocity": 102, "channel": 0}, {"type": "note_off", "time": 795, "note": 70, "velocity": 102, "channel": 0}, {"type": "note_on", "time": 0, "note": 63, "velocity": 107, "channel": 0}, {"type": "note_off", "time": 1143, "note": 63, "velocity": 107, "channel": 0}, {"type": "note_on", "time": 49, "note": 68, "velocity": 102, "channel": 0}, {"type": "note_off", "time": 845, "note": 68, "velocity": 102, "channel": 0}, {"type": "note_on", "time": 497, "note": 68, "velocity": 108, "channel": 0}, {"type": "note_off", "time": 696, "note": 68, "velocity": 108, "channel": 0}, {"type": "note_on", "time": 49, "note": 66, "velocity": 102, "channel": 0}, {"type": "note_off", "time": 895, "note": 66, "velocity": 102, "channel": 0}, {"type": "note_on", "time": 49, "note": 63, "velocity": 113, "channel": 0}, {"type": "note_off", "time": 1094, "note": 63, "velocity": 113, "channel": 0}, {"type": "note_on", "time": 298, "note": 65, "velocity": 109, "channel": 0}, {"type": "note_off", "time": 646, "note": 65, "velocity": 109, "channel": 0}, {"type": "note_on", "time": 49, "note": 67, "velocity": 109, "channel": 0}, {"type": "note_off", "time": 1193, "note": 67, "velocity": 109, "channel": 0}, {"type": "note_on", "time": 9, "note": 68, "velocity": 111, "channel": 0}, {"type": "note_off", "time": 559, "note": 68, "velocity": 111, "channel": 0}, {"type": "note_on", "time": 0, "note": 67, "velocity": 107, "channel": 0}, {"type": "note_off", "time": 559, "note": 67, "velocity": 107, "channel": 0}, {"type": "note_on", "time": 244, "note": 63, "velocity": 111, "channel": 0}, {"type": "note_off", "time": 559, "note": 63, "velocity": 111, "channel": 0}, {"type": "note_on", "time": 0, "note": 62, "velocity": 114, "channel": 0}, {"type": "note_off", "time": 524, "note": 62, "velocity": 114, "channel": 0}, {"type": "note_on", "time": 0, "note": 66, "velocity": 89, "channel": 0}, {"type": "note_off", "time": 664, "note": 66, "velocity": 89, "channel": 0}, {"type": "note_on", "time": 69, "note": 67, "velocity": 86, "channel": 0}, {"type": "note_off", "time": 489, "note": 67, "velocity": 86, "channel": 0}, {"type": "note_on", "time": 69, "note": 72, "velocity": 114, "channel": 0}, {"type": "note_off", "time": 699, "note": 72, "velocity": 114, "channel": 0}, {"type": "note_on", "time": 349, "note": 70, "velocity": 113, "channel": 0}, {"type": "note_off", "time": 489, "note": 70, "velocity": 113, "channel": 0}, {"type": "note_on", "time": 139, "note": 72, "velocity": 105, "channel": 0}, {"type": "note_off", "time": 559, "note": 72, "velocity": 105, "channel": 0}, {"type": "note_on", "time": 69, "note": 67, "velocity": 109, "channel": 0}, {"type": "note_off", "time": 734, "note": 67, "velocity": 109, "channel": 0}, {"type": "note_on", "time": 0, "note": 65, "velocity": 99, "channel": 0}, {"type": "note_off", "time": 419, "note": 65, "velocity": 99, "channel": 0}, {"type": "note_on", "time": 209, "note": 63, "velocity": 116, "channel": 0}, {"type": "note_off", "time": 594, "note": 63, "velocity": 116, "channel": 0}, {"type": "note_on", "time": 69, "note": 61, "velocity": 112, "channel": 0}, {"type": "note_off", "time": 384, "note": 61, "velocity": 112, "channel": 0}, {"type": "note_on", "time": 104, "note": 60, "velocity": 108, "channel": 0}, {"type": "note_off", "time": 524, "note": 60, "velocity": 108, "channel": 0}, {"type": "note_on", "time": 0, "note": 63, "velocity": 110, "channel": 0}, {"type": "note_off", "time": 699, "note": 63, "velocity": 110, "channel": 0}, {"type": "note_on", "time": 0, "note": 65, "velocity": 102, "channel": 0}, {"type": "note_off", "time": 454, "note": 65, "velocity": 102, "channel": 0}, {"type": "note_on", "time": 0, "note": 67, "velocity": 93, "channel": 0}, {"type": "note_off", "time": 664, "note": 67, "velocity": 93, "channel": 0}, {"type": "note_on", "time": 0, "note": 70, "velocity": 105, "channel": 0}, {"type": "note_off", "time": 3287, "note": 70, "velocity": 105, "channel": 0}, {"type": "note_on", "time": 0, "note": 68, "velocity": 110, "channel": 0}, {"type": "note_off", "time": 489, "note": 68, "velocity": 110, "channel": 0}, {"type": "note_on", "time": 34, "note": 67, "velocity": 108, "channel": 0}, {"type": "note_off", "time": 454, "note": 67, "velocity": 108, "channel": 0}, {"type": "note_on", "time": 0, "note": 65, "velocity": 108, "channel": 0}, {"type": "note_off", "time": 629, "note": 65, "velocity": 108, "channel": 0}, {"type": "note_on", "time": 0, "note": 63, "velocity": 114, "channel": 0}, {"type": "note_off", "time": 1014, "note": 63, "velocity": 114, "channel": 0}, {"type": "note_on", "time": 5105, "note": 72, "velocity": 113, "channel": 0}, {"type": "note_off", "time": 804, "note": 72, "velocity": 113, "channel": 0}, {"type": "note_on", "time": 0, "note": 70, "velocity": 110, "channel": 0}, {"type": "note_off", "time": 489, "note": 70, "velocity": 110, "channel": 0}, {"type": "note_on", "time": 0, "note": 69, "velocity": 110, "channel": 0}, {"type": "note_off", "time": 821, "note": 69, "velocity": 110, "channel": 0}, {"type": "note_on", "time": 0, "note": 67, "velocity": 115, "channel": 0}, {"type": "note_off", "time": 646, "note": 67, "velocity": 115, "channel": 0}, {"type": "note_on", "time": 104, "note": 66, "velocity": 111, "channel": 0}, {"type": "note_off", "time": 646, "note": 66, "velocity": 111, "channel": 0}, {"type": "note_on", "time": 69, "note": 61, "velocity": 78, "channel": 0}, {"type": "note_off", "time": 349, "note": 61, "velocity": 78, "channel": 0}, {"type": "note_on", "time": 69, "note": 60, "velocity": 111, "channel": 0}, {"type": "note_off", "time": 646, "note": 60, "velocity": 111, "channel": 0}, {"type": "note_on", "time": 0, "note": 63, "velocity": 117, "channel": 0}, {"type": "note_off", "time": 664, "note": 63, "velocity": 117, "channel": 0}, {"type": "note_on", "time": 0, "note": 62, "velocity": 113, "channel": 0}, {"type": "note_off", "time": 507, "note": 62, "velocity": 113, "channel": 0}, {"type": "note_on", "time": 69, "note": 60, "velocity": 107, "channel": 0}, {"type": "note_off", "time": 559, "note": 60, "velocity": 107, "channel": 0}, {"type": "note_on", "time": 17, "note": 58, "velocity": 100, "channel": 0}, {"type": "note_off", "time": 472, "note": 58, "velocity": 100, "channel": 0}, {"type": "note_on", "time": 209, "note": 60, "velocity": 99, "channel": 0}, {"type": "note_off", "time": 524, "note": 60, "velocity": 99, "channel": 0}, {"type": "note_on", "time": 0, "note": 63, "velocity": 118, "channel": 0}, {"type": "note_off", "time": 786, "note": 63, "velocity": 118, "channel": 0}, {"type": "note_on", "time": 0, "note": 65, "velocity": 111, "channel": 0}, {"type": "note_off", "time": 559, "note": 65, "velocity": 111, "channel": 0}, {"type": "note_on", "time": 52, "note": 66, "velocity": 110, "channel": 0}, {"type": "note_off", "time": 454, "note": 66, "velocity": 110, "channel": 0}, {"type": "note_on", "time": 52, "note": 67, "velocity": 107, "channel": 0}, {"type": "note_on", "time": 17, "note": 67, "velocity": 111, "channel": 0}, {"type": "note_off", "time": 0, "note": 67, "velocity": 107, "channel": 0}, {"type": "note_off", "time": 821, "note": 67, "velocity": 111, "channel": 0}, {"type": "note_on", "time": 0, "note": 68, "velocity": 114, "channel": 0}, {"type": "note_off", "time": 559, "note": 68, "velocity": 114, "channel": 0}, {"type": "note_on", "time": 52, "note": 69, "velocity": 108, "channel": 0}, {"type": "note_off", "time": 552, "note": 69, "velocity": 108, "channel": 0}, {"type": "note_on", "time": 0, "note": 70, "velocity": 106, "channel": 0}, {"type": "note_off", "time": 547, "note": 70, "velocity": 106, "channel": 0}, {"type": "note_on", "time": 176, "note": 67, "velocity": 100, "channel": 0}, {"type": "note_on", "time": 314, "note": 68, "velocity": 112, "channel": 0}, {"type": "note_off", "time": 0, "note": 67, "velocity": 100, "channel": 0}, {"type": "note_off", "time": 874, "note": 68, "velocity": 112, "channel": 0}, {"type": "note_on", "time": 34, "note": 70, "velocity": 104, "channel": 0}, {"type": "note_off", "time": 349, "note": 70, "velocity": 104, "channel": 0}, {"type": "note_on", "time": 0, "note": 67, "velocity": 109, "channel": 0}, {"type": "note_off", "time": 856, "note": 67, "velocity": 109, "channel": 0}, {"type": "note_on", "time": 69, "note": 65, "velocity": 110, "channel": 0}, {"type": "note_off", "time": 594, "note": 65, "velocity": 110, "channel": 0}, {"type": "note_on", "time": 0, "note": 64, "velocity": 102, "channel": 0}, {"type": "note_off", "time": 454, "note": 64, "velocity": 102, "channel": 0}, {"type": "note_on", "time": 34, "note": 67, "velocity": 106, "channel": 0}, {"type": "note_off", "time": 612, "note": 67, "velocity": 106, "channel": 0}, {"type": "note_on", "time": 0, "note": 65, "velocity": 111, "channel": 0}, {"type": "note_off", "time": 664, "note": 65, "velocity": 111, "channel": 0}, {"type": "note_on", "time": 0, "note": 60, "velocity": 111, "channel": 0}, {"type": "note_off", "time": 839, "note": 60, "velocity": 111, "channel": 0}, {"type": "note_on", "time": 716, "note": 58, "velocity": 97, "channel": 0}, {"type": "note_off", "time": 367, "note": 58, "velocity": 97, "channel": 0}, {"type": "note_on", "time": 279, "note": 60, "velocity": 103, "channel": 0}, {"type": "note_off", "time": 1731, "note": 60, "velocity": 103, "channel": 0}, {"type": "note_on", "time": 1672, "note": 64, "velocity": 118, "channel": 0}, {"type": "note_off", "time": 795, "note": 64, "velocity": 118, "channel": 0}, {"type": "note_on", "time": 0, "note": 65, "velocity": 114, "channel": 0}, {"type": "note_off", "time": 571, "note": 65, "velocity": 114, "channel": 0}, {"type": "note_on", "time": 124, "note": 59, "velocity": 99, "channel": 0}, {"type": "note_off", "time": 746, "note": 59, "velocity": 99, "channel": 0}, {"type": "note_on", "time": 49, "note": 61, "velocity": 107, "channel": 0}, {"type": "note_off", "time": 770, "note": 61, "velocity": 107, "channel": 0}, {"type": "note_on", "time": 571, "note": 58, "velocity": 107, "channel": 0}, {"type": "note_off", "time": 945, "note": 58, "velocity": 107, "channel": 0}, {"type": "note_on", "time": 198, "note": 63, "velocity": 114, "channel": 0}, {"type": "note_off", "time": 870, "note": 63, "velocity": 114, "channel": 0}, {"type": "note_on", "time": 2760, "note": 67, "velocity": 85, "channel": 0}, {"type": "note_off", "time": 571, "note": 67, "velocity": 85, "channel": 0}, {"type": "note_on", "time": 198, "note": 68, "velocity": 112, "channel": 0}, {"type": "note_off", "time": 895, "note": 68, "velocity": 112, "channel": 0}, {"type": "note_on", "time": 24, "note": 67, "velocity": 113, "channel": 0}, {"type": "note_on", "time": 522, "note": 63, "velocity": 118, "channel": 0}, {"type": "note_off", "time": 0, "note": 67, "velocity": 113, "channel": 0}, {"type": "note_off", "time": 770, "note": 63, "velocity": 118, "channel": 0}, {"type": "note_on", "time": 74, "note": 58, "velocity": 108, "channel": 0}, {"type": "note_off", "time": 422, "note": 58, "velocity": 108, "channel": 0}, {"type": "note_on", "time": 223, "note": 56, "velocity": 106, "channel": 0}, {"type": "note_off", "time": 994, "note": 56, "velocity": 106, "channel": 0}, {"type": "note_on", "time": 0, "note": 55, "velocity": 103, "channel": 0}, {"type": "note_off", "time": 447, "note": 55, "velocity": 103, "channel": 0}, {"type": "note_on", "time": 0, "note": 58, "velocity": 102, "channel": 0}, {"type": "note_off", "time": 522, "note": 58, "velocity": 102, "channel": 0}, {"type": "note_on", "time": 895, "note": 63, "velocity": 117, "channel": 0}, {"type": "note_off", "time": 721, "note": 63, "velocity": 117, "channel": 0}, {"type": "note_on", "time": 5893, "note": 63, "velocity": 117, "channel": 0}, {"type": "note_off", "time": 795, "note": 63, "velocity": 117, "channel": 0}, {"type": "note_on", "time": 223, "note": 63, "velocity": 118, "channel": 0}, {"type": "note_off", "time": 422, "note": 63, "velocity": 118, "channel": 0}, {"type": "note_on", "time": 596, "note": 60, "velocity": 79, "channel": 0}, {"type": "note_off", "time": 447, "note": 60, "velocity": 79, "channel": 0}, {"type": "note_on", "time": 174, "note": 63, "velocity": 114, "channel": 0}, {"type": "note_off", "time": 820, "note": 63, "velocity": 114, "channel": 0}, {"type": "note_on", "time": 74, "note": 63, "velocity": 104, "channel": 0}, {"type": "note_off", "time": 721, "note": 63, "velocity": 104, "channel": 0}, {"type": "note_on", "time": 522, "note": 60, "velocity": 103, "channel": 0}, {"type": "note_off", "time": 646, "note": 60, "velocity": 103, "channel": 0}, {"type": "note_on", "time": 547, "note": 63, "velocity": 113, "channel": 0}, {"type": "note_off", "time": 795, "note": 63, "velocity": 113, "channel": 0}, {"type": "note_on", "time": 571, "note": 60, "velocity": 100, "channel": 0}, {"type": "note_off", "time": 770, "note": 60, "velocity": 100, "channel": 0}, {"type": "note_on", "time": 373, "note": 63, "velocity": 111, "channel": 0}, {"type": "note_off", "time": 696, "note": 63, "velocity": 111, "channel": 0}, {"type": "note_on", "time": 472, "note": 60, "velocity": 95, "channel": 0}, {"type": "note_off", "time": 646, "note": 60, "velocity": 95, "channel": 0}, {"type": "note_on", "time": 0, "note": 63, "velocity": 117, "channel": 0}, {"type": "note_off", "time": 646, "note": 63, "velocity": 117, "channel": 0}, {"type": "note_on", "time": 571, "note": 63, "velocity": 115, "channel": 0}, {"type": "note_off", "time": 1044, "note": 63, "velocity": 115, "channel": 0}, {"type": "note_on", "time": 373, "note": 60, "velocity": 102, "channel": 0}, {"type": "note_off", "time": 820, "note": 60, "velocity": 102, "channel": 0}, {"type": "note_on", "time": 99, "note": 63, "velocity": 113, "channel": 0}, {"type": "note_off", "time": 646, "note": 63, "velocity": 113, "channel": 0}, {"type": "note_on", "time": 2859, "note": 63, "velocity": 86, "channel": 0}, {"type": "note_off", "time": 671, "note": 63, "velocity": 86, "channel": 0}, {"type": "note_on", "time": 373, "note": 68, "velocity": 113, "channel": 0}, {"type": "note_on", "time": 547, "note": 69, "velocity": 106, "channel": 0}, {"type": "note_off", "time": 0, "note": 68, "velocity": 113, "channel": 0}, {"type": "note_off", "time": 547, "note": 69, "velocity": 106, "channel": 0}, {"type": "note_on", "time": 0, "note": 68, "velocity": 112, "channel": 0}, {"type": "note_off", "time": 671, "note": 68, "velocity": 112, "channel": 0}, {"type": "note_on", "time": 895, "note": 67, "velocity": 110, "channel": 0}, {"type": "note_off", "time": 547, "note": 67, "velocity": 110, "channel": 0}, {"type": "note_on", "time": 124, "note": 68, "velocity": 109, "channel": 0}, {"type": "note_off", "time": 845, "note": 68, "velocity": 109, "channel": 0}, {"type": "note_on", "time": 373, "note": 65, "velocity": 97, "channel": 0}, {"type": "note_off", "time": 298, "note": 65, "velocity": 97, "channel": 0}, {"type": "note_on", "time": 0, "note": 63, "velocity": 116, "channel": 0}, {"type": "note_off", "time": 945, "note": 63, "velocity": 116, "channel": 0}, {"type": "note_on", "time": 223, "note": 63, "velocity": 117, "channel": 0}, {"type": "note_off", "time": 522, "note": 63, "velocity": 117, "channel": 0}, {"type": "note_on", "time": 447, "note": 60, "velocity": 102, "channel": 0}, {"type": "note_off", "time": 721, "note": 60, "velocity": 102, "channel": 0}, {"type": "note_on", "time": 397, "note": 63, "velocity": 101, "channel": 0}, {"type": "note_off", "time": 920, "note": 63, "velocity": 101, "channel": 0}, {"type": "note_on", "time": 198, "note": 60, "velocity": 95, "channel": 0}, {"type": "note_off", "time": 422, "note": 60, "velocity": 95, "channel": 0}, {"type": "note_on", "time": 149, "note": 63, "velocity": 114, "channel": 0}, {"type": "note_off", "time": 820, "note": 63, "velocity": 114, "channel": 0}, {"type": "note_on", "time": 397, "note": 67, "velocity": 112, "channel": 0}, {"type": "note_off", "time": 870, "note": 67, "velocity": 112, "channel": 0}, {"type": "note_on", "time": 149, "note": 68, "velocity": 109, "channel": 0}, {"type": "note_off", "time": 1566, "note": 68, "velocity": 109, "channel": 0}, {"type": "note_on", "time": 0, "note": 66, "velocity": 105, "channel": 0}, {"type": "note_off", "time": 845, "note": 66, "velocity": 105, "channel": 0}, {"type": "note_on", "time": 124, "note": 63, "velocity": 116, "channel": 0}, {"type": "note_off", "time": 571, "note": 63, "velocity": 116, "channel": 0}, {"type": "note_on", "time": 646, "note": 63, "velocity": 85, "channel": 0}, {"type": "note_off", "time": 1541, "note": 63, "velocity": 85, "channel": 0}, {"type": "note_on", "time": 1715, "note": 63, "velocity": 97, "channel": 0}, {"type": "note_off", "time": 522, "note": 63, "velocity": 97, "channel": 0}, {"type": "note_on", "time": 422, "note": 67, "velocity": 110, "channel": 0}, {"type": "note_off", "time": 596, "note": 67, "velocity": 110, "channel": 0}, {"type": "note_on", "time": 0, "note": 70, "velocity": 107, "channel": 0}, {"type": "note_off", "time": 845, "note": 70, "velocity": 107, "channel": 0}, {"type": "note_on", "time": 0, "note": 68, "velocity": 108, "channel": 0}, {"type": "note_off", "time": 373, "note": 68, "velocity": 108, "channel": 0}, {"type": "note_on", "time": 49, "note": 65, "velocity": 102, "channel": 0}, {"type": "note_off", "time": 223, "note": 65, "velocity": 102, "channel": 0}, {"type": "note_on", "time": 0, "note": 63, "velocity": 110, "channel": 0}, {"type": "note_off", "time": 348, "note": 63, "velocity": 110, "channel": 0}, {"type": "note_on", "time": 0, "note": 61, "velocity": 104, "channel": 0}, {"type": "note_off", "time": 198, "note": 61, "velocity": 104, "channel": 0}, {"type": "note_on", "time": 0, "note": 68, "velocity": 111, "channel": 0}, {"type": "note_off", "time": 870, "note": 68, "velocity": 111, "channel": 0}, {"type": "note_on", "time": 0, "note": 65, "velocity": 104, "channel": 0}, {"type": "note_off", "time": 373, "note": 65, "velocity": 104, "channel": 0}, {"type": "note_on", "time": 49, "note": 63, "velocity": 114, "channel": 0}, {"type": "note_off", "time": 920, "note": 63, "velocity": 114, "channel": 0}, {"type": "note_on", "time": 646, "note": 63, "velocity": 115, "channel": 0}, {"type": "note_off", "time": 447, "note": 63, "velocity": 115, "channel": 0}, {"type": "note_on", "time": 298, "note": 63, "velocity": 101, "channel": 0}, {"type": "note_off", "time": 770, "note": 63, "velocity": 101, "channel": 0}, {"type": "note_on", "time": 2810, "note": 63, "velocity": 116, "channel": 0}, {"type": "note_off", "time": 547, "note": 63, "velocity": 116, "channel": 0}, {"type": "note_on", "time": 696, "note": 66, "velocity": 109, "channel": 0}, {"type": "note_off", "time": 348, "note": 66, "velocity": 109, "channel": 0}, {"type": "note_on", "time": 571, "note": 63, "velocity": 100, "channel": 0}, {"type": "note_off", "time": 596, "note": 63, "velocity": 100, "channel": 0}, {"type": "note_on", "time": 99, "note": 66, "velocity": 107, "channel": 0}, {"type": "note_off", "time": 671, "note": 66, "velocity": 107, "channel": 0}, {"type": "note_on", "time": 373, "note": 65, "velocity": 108, "channel": 0}, {"type": "note_off", "time": 671, "note": 65, "velocity": 108, "channel": 0}, {"type": "note_on", "time": 0, "note": 66, "velocity": 109, "channel": 0}, {"type": "note_off", "time": 945, "note": 66, "velocity": 109, "channel": 0}, {"type": "note_on", "time": 0, "note": 63, "velocity": 116, "channel": 0}, {"type": "note_off", "time": 472, "note": 63, "velocity": 116, "channel": 0}, {"type": "note_on", "time": 373, "note": 63, "velocity": 114, "channel": 0}, {"type": "note_off", "time": 547, "note": 63, "velocity": 114, "channel": 0}, {"type": "note_on", "time": 2760, "note": 63, "velocity": 71, "channel": 0}, {"type": "note_off", "time": 547, "note": 63, "velocity": 71, "channel": 0}, {"type": "note_on", "time": 49, "note": 68, "velocity": 110, "channel": 0}, {"type": "note_off", "time": 696, "note": 68, "velocity": 110, "channel": 0}, {"type": "note_on", "time": 124, "note": 66, "velocity": 107, "channel": 0}, {"type": "note_on", "time": 422, "note": 63, "velocity": 114, "channel": 0}, {"type": "note_off", "time": 0, "note": 66, "velocity": 107, "channel": 0}, {"type": "note_off", "time": 969, "note": 63, "velocity": 114, "channel": 0}, {"type": "note_on", "time": 422, "note": 63, "velocity": 106, "channel": 0}, {"type": "note_off", "time": 1790, "note": 63, "velocity": 106, "channel": 0}, {"type": "note_on", "time": 621, "note": 65, "velocity": 106, "channel": 0}, {"type": "note_off", "time": 621, "note": 65, "velocity": 106, "channel": 0}, {"type": "note_on", "time": 248, "note": 65, "velocity": 104, "channel": 0}, {"type": "note_off", "time": 696, "note": 65, "velocity": 104, "channel": 0}, {"type": "note_on", "time": 2337, "note": 61, "velocity": 79, "channel": 0}, {"type": "note_off", "time": 373, "note": 61, "velocity": 79, "channel": 0}, {"type": "note_on", "time": 149, "note": 64, "velocity": 118, "channel": 0}, {"type": "note_off", "time": 795, "note": 64, "velocity": 118, "channel": 0}, {"type": "note_on", "time": 99, "note": 67, "velocity": 110, "channel": 0}, {"type": "note_off", "time": 397, "note": 67, "velocity": 110, "channel": 0}, {"type": "note_on", "time": 223, "note": 65, "velocity": 105, "channel": 0}, {"type": "note_off", "time": 646, "note": 65, "velocity": 105, "channel": 0}, {"type": "note_on", "time": 99, "note": 61, "velocity": 84, "channel": 0}, {"type": "note_off", "time": 298, "note": 61, "velocity": 84, "channel": 0}, {"type": "note_on", "time": 24, "note": 63, "velocity": 113, "channel": 0}, {"type": "note_off", "time": 870, "note": 63, "velocity": 113, "channel": 0}, {"type": "note_on", "time": 149, "note": 61, "velocity": 98, "channel": 0}, {"type": "note_off", "time": 248, "note": 61, "velocity": 98, "channel": 0}, {"type": "note_on", "time": 174, "note": 62, "velocity": 114, "channel": 0}, {"type": "note_off", "time": 721, "note": 62, "velocity": 114, "channel": 0}, {"type": "note_on", "time": 24, "note": 60, "velocity": 110, "channel": 0}, {"type": "note_off", "time": 497, "note": 60, "velocity": 110, "channel": 0}, {"type": "note_on", "time": 0, "note": 58, "velocity": 95, "channel": 0}, {"type": "note_off", "time": 2238, "note": 58, "velocity": 95, "channel": 0}, {"type": "note_on", "time": 3406, "note": 58, "velocity": 103, "channel": 0}, {"type": "note_off", "time": 422, "note": 58, "velocity": 103, "channel": 0}, {"type": "note_on", "time": 0, "note": 60, "velocity": 99, "channel": 0}, {"type": "note_off", "time": 522, "note": 60, "velocity": 99, "channel": 0}, {"type": "note_on", "time": 24, "note": 63, "velocity": 112, "channel": 0}, {"type": "note_off", "time": 795, "note": 63, "velocity": 112, "channel": 0}, {"type": "note_on", "time": 497, "note": 68, "velocity": 100, "channel": 0}, {"type": "note_off", "time": 522, "note": 68, "velocity": 100, "channel": 0}, {"type": "note_on", "time": 770, "note": 65, "velocity": 97, "channel": 0}, {"type": "note_off", "time": 895, "note": 65, "velocity": 97, "channel": 0}, {"type": "note_on", "time": 447, "note": 63, "velocity": 116, "channel": 0}, {"type": "note_off", "time": 547, "note": 63, "velocity": 116, "channel": 0}, {"type": "note_on", "time": 373, "note": 63, "velocity": 113, "channel": 0}, {"type": "note_off", "time": 447, "note": 63, "velocity": 113, "channel": 0}, {"type": "note_on", "time": 1666, "note": 68, "velocity": 113, "channel": 0}, {"type": "note_off", "time": 646, "note": 68, "velocity": 113, "channel": 0}, {"type": "note_on", "time": 198, "note": 65, "velocity": 104, "channel": 0}, {"type": "note_off", "time": 298, "note": 65, "velocity": 104, "channel": 0}, {"type": "note_on", "time": 0, "note": 67, "velocity": 105, "channel": 0}, {"type": "note_off", "time": 721, "note": 67, "velocity": 105, "channel": 0}, {"type": "note_on", "time": 0, "note": 63, "velocity": 115, "channel": 0}, {"type": "note_off", "time": 497, "note": 63, "velocity": 115, "channel": 0}, {"type": "note_on", "time": 298, "note": 63, "velocity": 112, "channel": 0}, {"type": "note_off", "time": 522, "note": 63, "velocity": 112, "channel": 0}, {"type": "note_on", "time": 497, "note": 66, "velocity": 77, "channel": 0}, {"type": "note_off", "time": 248, "note": 66, "velocity": 77, "channel": 0}, {"type": "note_on", "time": 298, "note": 63, "velocity": 91, "channel": 0}, {"type": "note_off", "time": 273, "note": 63, "velocity": 91, "channel": 0}, {"type": "note_on", "time": 49, "note": 67, "velocity": 111, "channel": 0}, {"type": "note_off", "time": 671, "note": 67, "velocity": 111, "channel": 0}, {"type": "note_on", "time": 397, "note": 66, "velocity": 97, "channel": 0}, {"type": "note_off", "time": 198, "note": 66, "velocity": 97, "channel": 0}, {"type": "note_on", "time": 0, "note": 67, "velocity": 109, "channel": 0}, {"type": "note_off", "time": 621, "note": 67, "velocity": 109, "channel": 0}, {"type": "note_on", "time": 223, "note": 63, "velocity": 116, "channel": 0}, {"type": "note_off", "time": 596, "note": 63, "velocity": 116, "channel": 0}, {"type": "note_on", "time": 1699, "note": 70, "velocity": 108, "channel": 0}, {"type": "note_off", "time": 839, "note": 70, "velocity": 108, "channel": 0}, {"type": "note_on", "time": 0, "note": 72, "velocity": 111, "channel": 0}, {"type": "note_off", "time": 1503, "note": 72, "velocity": 111, "channel": 0}, {"type": "note_on", "time": 0, "note": 70, "velocity": 103, "channel": 0}, {"type": "note_off", "time": 489, "note": 70, "velocity": 103, "channel": 0}, {"type": "note_on", "time": 244, "note": 68, "velocity": 113, "channel": 0}, {"type": "note_off", "time": 594, "note": 68, "velocity": 113, "channel": 0}, {"type": "note_on", "time": 0, "note": 67, "velocity": 100, "channel": 0}, {"type": "note_off", "time": 437, "note": 67, "velocity": 100, "channel": 0}, {"type": "note_on", "time": 87, "note": 65, "velocity": 107, "channel": 0}, {"type": "note_off", "time": 594, "note": 65, "velocity": 107, "channel": 0}, {"type": "note_on", "time": 0, "note": 63, "velocity": 102, "channel": 0}, {"type": "note_off", "time": 507, "note": 63, "velocity": 102, "channel": 0}, {"type": "note_on", "time": 384, "note": 62, "velocity": 108, "channel": 0}, {"type": "note_off", "time": 489, "note": 62, "velocity": 108, "channel": 0}, {"type": "note_on", "time": 0, "note": 61, "velocity": 92, "channel": 0}, {"type": "note_off", "time": 472, "note": 61, "velocity": 92, "channel": 0}, {"type": "note_on", "time": 209, "note": 65, "velocity": 108, "channel": 0}, {"type": "note_off", "time": 646, "note": 65, "velocity": 108, "channel": 0}, {"type": "note_on", "time": 87, "note": 63, "velocity": 110, "channel": 0}, {"type": "note_off", "time": 681, "note": 63, "velocity": 110, "channel": 0}, {"type": "note_on", "time": 157, "note": 61, "velocity": 101, "channel": 0}, {"type": "note_off", "time": 472, "note": 61, "velocity": 101, "channel": 0}, {"type": "note_on", "time": 34, "note": 60, "velocity": 92, "channel": 0}, {"type": "note_off", "time": 384, "note": 60, "velocity": 92, "channel": 0}, {"type": "note_on", "time": 69, "note": 65, "velocity": 93, "channel": 0}, {"type": "note_off", "time": 349, "note": 65, "velocity": 93, "channel": 0}, {"type": "note_on", "time": 157, "note": 70, "velocity": 101, "channel": 0}, {"type": "note_off", "time": 979, "note": 70, "velocity": 101, "channel": 0}, {"type": "note_on", "time": 279, "note": 69, "velocity": 108, "channel": 0}, {"type": "note_off", "time": 769, "note": 69, "velocity": 108, "channel": 0}, {"type": "note_on", "time": 69, "note": 67, "velocity": 94, "channel": 0}, {"type": "note_off", "time": 402, "note": 67, "velocity": 94, "channel": 0}, {"type": "note_on", "time": 0, "note": 68, "velocity": 111, "channel": 0}, {"type": "note_off", "time": 891, "note": 68, "velocity": 111, "channel": 0}, {"type": "note_on", "time": 0, "note": 67, "velocity": 110, "channel": 0}, {"type": "note_off", "time": 489, "note": 67, "velocity": 110, "channel": 0}, {"type": "note_on", "time": 0, "note": 65, "velocity": 97, "channel": 0}, {"type": "note_off", "time": 612, "note": 65, "velocity": 97, "channel": 0}, {"type": "note_on", "time": 139, "note": 64, "velocity": 113, "channel": 0}, {"type": "note_off", "time": 524, "note": 64, "velocity": 113, "channel": 0}, {"type": "note_on", "time": 87, "note": 63, "velocity": 109, "channel": 0}, {"type": "note_off", "time": 2010, "note": 63, "velocity": 109, "channel": 0}, {"type": "note_on", "time": 3619, "note": 70, "velocity": 94, "channel": 0}, {"type": "note_off", "time": 402, "note": 70, "velocity": 94, "channel": 0}, {"type": "note_on", "time": 34, "note": 72, "velocity": 112, "channel": 0}, {"type": "note_off", "time": 804, "note": 72, "velocity": 112, "channel": 0}, {"type": "note_on", "time": 122, "note": 65, "velocity": 112, "channel": 0}, {"type": "note_off", "time": 419, "note": 65, "velocity": 112, "channel": 0}, {"type": "note_on", "time": 34, "note": 66, "velocity": 112, "channel": 0}, {"type": "note_off", "time": 664, "note": 66, "velocity": 112, "channel": 0}, {"type": "note_on", "time": 157, "note": 67, "velocity": 103, "channel": 0}, {"type": "note_off", "time": 384, "note": 67, "velocity": 103, "channel": 0}, {"type": "note_on", "time": 69, "note": 69, "velocity": 109, "channel": 0}, {"type": "note_off", "time": 664, "note": 69, "velocity": 109, "channel": 0}, {"type": "note_on", "time": 0, "note": 62, "velocity": 111, "channel": 0}, {"type": "note_off", "time": 646, "note": 62, "velocity": 111, "channel": 0}, {"type": "note_on", "time": 17, "note": 63, "velocity": 112, "channel": 0}, {"type": "note_off", "time": 716, "note": 63, "velocity": 112, "channel": 0}, {"type": "note_on", "time": 0, "note": 59, "velocity": 104, "channel": 0}, {"type": "note_off", "time": 472, "note": 59, "velocity": 104, "channel": 0}, {"type": "note_on", "time": 17, "note": 60, "velocity": 101, "channel": 0}, {"type": "note_off", "time": 594, "note": 60, "velocity": 101, "channel": 0}, {"type": "note_on", "time": 2920, "note": 58, "velocity": 104, "channel": 0}, {"type": "note_off", "time": 577, "note": 58, "velocity": 104, "channel": 0}, {"type": "note_on", "time": 122, "note": 60, "velocity": 105, "channel": 0}, {"type": "note_off", "time": 577, "note": 60, "velocity": 105, "channel": 0}, {"type": "note_on", "time": 0, "note": 63, "velocity": 118, "channel": 0}, {"type": "note_off", "time": 489, "note": 63, "velocity": 118, "channel": 0}, {"type": "note_on", "time": 192, "note": 65, "velocity": 111, "channel": 0}, {"type": "note_off", "time": 594, "note": 65, "velocity": 111, "channel": 0}, {"type": "note_on", "time": 157, "note": 66, "velocity": 112, "channel": 0}, {"type": "note_off", "time": 279, "note": 66, "velocity": 112, "channel": 0}, {"type": "note_on", "time": 34, "note": 67, "velocity": 106, "channel": 0}, {"type": "note_off", "time": 804, "note": 67, "velocity": 106, "channel": 0}, {"type": "note_on", "time": 34, "note": 72, "velocity": 114, "channel": 0}, {"type": "note_off", "time": 542, "note": 72, "velocity": 114, "channel": 0}, {"type": "note_on", "time": 244, "note": 71, "velocity": 111, "channel": 0}, {"type": "note_off", "time": 279, "note": 71, "velocity": 111, "channel": 0}, {"type": "note_on", "time": 52, "note": 70, "velocity": 105, "channel": 0}, {"type": "note_on", "time": 786, "note": 67, "velocity": 110, "channel": 0}, {"type": "note_off", "time": 0, "note": 70, "velocity": 105, "channel": 0}, {"type": "note_off", "time": 664, "note": 67, "velocity": 110, "channel": 0}, {"type": "note_on", "time": 0, "note": 64, "velocity": 116, "channel": 0}, {"type": "note_off", "time": 716, "note": 64, "velocity": 116, "channel": 0}, {"type": "note_on", "time": 69, "note": 61, "velocity": 91, "channel": 0}, {"type": "note_off", "time": 454, "note": 61, "velocity": 91, "channel": 0}, {"type": "note_on", "time": 314, "note": 66, "velocity": 113, "channel": 0}, {"type": "note_off", "time": 279, "note": 66, "velocity": 113, "channel": 0}, {"type": "note_on", "time": 34, "note": 67, "velocity": 111, "channel": 0}, {"type": "note_on", "time": 332, "note": 68, "velocity": 110, "channel": 0}, {"type": "note_off", "time": 0, "note": 67, "velocity": 111, "channel": 0}, {"type": "note_off", "time": 821, "note": 68, "velocity": 110, "channel": 0}, {"type": "note_on", "time": 192, "note": 68, "velocity": 110, "channel": 0}, {"type": "note_off", "time": 402, "note": 68, "velocity": 110, "channel": 0}, {"type": "note_on", "time": 0, "note": 66, "velocity": 109, "channel": 0}, {"type": "note_off", "time": 349, "note": 66, "velocity": 109, "channel": 0}, {"type": "note_on", "time": 52, "note": 65, "velocity": 110, "channel": 0}, {"type": "note_off", "time": 367, "note": 65, "velocity": 110, "channel": 0}, {"type": "note_on", "time": 227, "note": 60, "velocity": 109, "channel": 0}, {"type": "note_off", "time": 524, "note": 60, "velocity": 109, "channel": 0}, {"type": "note_on", "time": 384, "note": 60, "velocity": 92, "channel": 0}, {"type": "note_off", "time": 559, "note": 60, "velocity": 92, "channel": 0}, {"type": "note_on", "time": 122, "note": 67, "velocity": 82, "channel": 0}, {"type": "note_off", "time": 279, "note": 67, "velocity": 82, "channel": 0}, {"type": "note_on", "time": 157, "note": 68, "velocity": 112, "channel": 0}, {"type": "note_off", "time": 839, "note": 68, "velocity": 112, "channel": 0}, {"type": "note_on", "time": 122, "note": 66, "velocity": 111, "channel": 0}, {"type": "note_off", "time": 594, "note": 66, "velocity": 111, "channel": 0}, {"type": "note_on", "time": 157, "note": 64, "velocity": 114, "channel": 0}, {"type": "note_off", "time": 507, "note": 64, "velocity": 114, "channel": 0}, {"type": "note_on", "time": 507, "note": 59, "velocity": 102, "channel": 0}, {"type": "note_off", "time": 559, "note": 59, "velocity": 102, "channel": 0}, {"type": "note_on", "time": 69, "note": 58, "velocity": 102, "channel": 0}, {"type": "note_off", "time": 716, "note": 58, "velocity": 102, "channel": 0}, {"type": "note_on", "time": 87, "note": 56, "velocity": 106, "channel": 0}, {"type": "note_off", "time": 472, "note": 56, "velocity": 106, "channel": 0}, {"type": "note_on", "time": 17, "note": 55, "velocity": 98, "channel": 0}, {"type": "note_on", "time": 2605, "note": 63, "velocity": 116, "channel": 0}, {"type": "note_off", "time": 0, "note": 55, "velocity": 98, "channel": 0}, {"type": "note_off", "time": 996, "note": 63, "velocity": 116, "channel": 0}, {"type": "note_on", "time": 2273, "note": 56, "velocity": 111, "channel": 0}, {"type": "note_off", "time": 646, "note": 56, "velocity": 111, "channel": 0}, {"type": "note_on", "time": 349, "note": 63, "velocity": 114, "channel": 0}, {"type": "note_off", "time": 716, "note": 63, "velocity": 114, "channel": 0}, {"type": "note_on", "time": 437, "note": 55, "velocity": 104, "channel": 0}, {"type": "note_off", "time": 454, "note": 55, "velocity": 104, "channel": 0}, {"type": "note_on", "time": 34, "note": 57, "velocity": 105, "channel": 0}, {"type": "note_off", "time": 926, "note": 57, "velocity": 105, "channel": 0}, {"type": "note_on", "time": 104, "note": 63, "velocity": 112, "channel": 0}, {"type": "note_off", "time": 559, "note": 63, "velocity": 112, "channel": 0}, {"type": "note_on", "time": 192, "note": 58, "velocity": 95, "channel": 0}, {"type": "note_off", "time": 1888, "note": 58, "velocity": 95, "channel": 0}, {"type": "note_on", "time": 3986, "note": 62, "velocity": 103, "channel": 0}, {"type": "note_off", "time": 478, "note": 62, "velocity": 103, "channel": 0}, {"type": "note_on", "time": 0, "note": 65, "velocity": 107, "channel": 0}, {"type": "note_off", "time": 5116, "note": 65, "velocity": 107, "channel": 0}, {"type": "note_on", "time": 0, "note": 63, "velocity": 102, "channel": 0}, {"type": "note_off", "time": 559, "note": 63, "velocity": 102, "channel": 0}, {"type": "note_on", "time": 69, "note": 65, "velocity": 112, "channel": 0}, {"type": "note_off", "time": 1958, "note": 65, "velocity": 112, "channel": 0}, {"type": "note_on", "time": 0, "note": 63, "velocity": 98, "channel": 0}, {"type": "note_off", "time": 454, "note": 63, "velocity": 98, "channel": 0}, {"type": "note_on", "time": 174, "note": 65, "velocity": 114, "channel": 0}, {"type": "note_off", "time": 1818, "note": 65, "velocity": 114, "channel": 0}, {"type": "note_on", "time": 0, "note": 63, "velocity": 100, "channel": 0}, {"type": "note_off", "time": 559, "note": 63, "velocity": 100, "channel": 0}, {"type": "note_on", "time": 69, "note": 65, "velocity": 111, "channel": 0}, {"type": "note_off", "time": 1853, "note": 65, "velocity": 111, "channel": 0}, {"type": "note_on", "time": 629, "note": 65, "velocity": 111, "channel": 0}, {"type": "note_off", "time": 769, "note": 65, "velocity": 111, "channel": 0}, {"type": "note_on", "time": 209, "note": 65, "velocity": 114, "channel": 0}, {"type": "note_off", "time": 594, "note": 65, "velocity": 114, "channel": 0}, {"type": "note_on", "time": 4651, "note": 68, "velocity": 113, "channel": 0}, {"type": "note_off", "time": 839, "note": 68, "velocity": 113, "channel": 0}, {"type": "note_on", "time": 174, "note": 67, "velocity": 114, "channel": 0}, {"type": "note_off", "time": 909, "note": 67, "velocity": 114, "channel": 0}, {"type": "note_on", "time": 321, "note": 64, "velocity": 113, "channel": 0}, {"type": "note_off", "time": 559, "note": 64, "velocity": 113, "channel": 0}, {"type": "note_on", "time": 27, "note": 65, "velocity": 110, "channel": 0}, {"type": "note_off", "time": 2238, "note": 65, "velocity": 110, "channel": 0}, {"type": "note_on", "time": 0, "note": 63, "velocity": 117, "channel": 0}, {"type": "note_off", "time": 944, "note": 63, "velocity": 117, "channel": 0}, {"type": "note_on", "time": 69, "note": 62, "velocity": 114, "channel": 0}, {"type": "note_off", "time": 559, "note": 62, "velocity": 114, "channel": 0}, {"type": "note_on", "time": 69, "note": 61, "velocity": 110, "channel": 0}, {"type": "note_off", "time": 664, "note": 61, "velocity": 110, "channel": 0}, {"type": "note_on", "time": 174, "note": 58, "velocity": 106, "channel": 0}, {"type": "note_off", "time": 594, "note": 58, "velocity": 106, "channel": 0}, {"type": "note_on", "time": 34, "note": 63, "velocity": 115, "channel": 0}, {"type": "note_on", "time": 699, "note": 65, "velocity": 107, "channel": 0}, {"type": "note_off", "time": 0, "note": 63, "velocity": 115, "channel": 0}, {"type": "note_off", "time": 6469, "note": 65, "velocity": 107, "channel": 0}, {"type": "note_on", "time": 0, "note": 61, "velocity": 109, "channel": 0}, {"type": "note_on", "time": 699, "note": 58, "velocity": 104, "channel": 0}, {"type": "note_off", "time": 0, "note": 61, "velocity": 109, "channel": 0}, {"type": "note_off", "time": 699, "note": 58, "velocity": 104, "channel": 0}, {"type": "note_on", "time": 139, "note": 57, "velocity": 110, "channel": 0}, {"type": "note_off", "time": 559, "note": 57, "velocity": 110, "channel": 0}, {"type": "note_on", "time": 244, "note": 53, "velocity": 100, "channel": 0}, {"type": "note_on", "time": 314, "note": 56, "velocity": 111, "channel": 0}, {"type": "note_off", "time": 0, "note": 53, "velocity": 100, "channel": 0}, {"type": "note_off", "time": 1014, "note": 56, "velocity": 111, "channel": 0}, {"type": "note_on", "time": 384, "note": 55, "velocity": 110, "channel": 0}, {"type": "note_off", "time": 734, "note": 55, "velocity": 110, "channel": 0}, {"type": "note_on", "time": 0, "note": 51, "velocity": 104, "channel": 0}, {"type": "note_off", "time": 1433, "note": 51, "velocity": 104, "channel": 0}, {"type": "note_on", "time": 5287, "note": 44, "velocity": 117, "channel": 0}, {"type": "note_off", "time": 895, "note": 44, "velocity": 117, "channel": 0}, {"type": "note_on", "time": 248, "note": 51, "velocity": 103, "channel": 0}, {"type": "note_off", "time": 845, "note": 51, "velocity": 103, "channel": 0}, {"type": "note_on", "time": 0, "note": 56, "velocity": 110, "channel": 0}, {"type": "note_off", "time": 1044, "note": 56, "velocity": 110, "channel": 0}, {"type": "note_on", "time": 99, "note": 58, "velocity": 108, "channel": 0}, {"type": "note_off", "time": 646, "note": 58, "velocity": 108, "channel": 0}, {"type": "note_on", "time": 198, "note": 59, "velocity": 106, "channel": 0}, {"type": "note_off", "time": 596, "note": 59, "velocity": 106, "channel": 0}, {"type": "note_on", "time": 99, "note": 60, "velocity": 106, "channel": 0}, {"type": "note_off", "time": 547, "note": 60, "velocity": 106, "channel": 0}, {"type": "note_on", "time": 149, "note": 65, "velocity": 111, "channel": 0}, {"type": "note_off", "time": 696, "note": 65, "velocity": 111, "channel": 0}, {"type": "note_on", "time": 0, "note": 64, "velocity": 117, "channel": 0}, {"type": "note_off", "time": 671, "note": 64, "velocity": 117, "channel": 0}, {"type": "note_on", "time": 74, "note": 63, "velocity": 118, "channel": 0}, {"type": "note_off", "time": 671, "note": 63, "velocity": 118, "channel": 0}, {"type": "note_on", "time": 0, "note": 61, "velocity": 112, "channel": 0}, {"type": "note_off", "time": 397, "note": 61, "velocity": 112, "channel": 0}, {"type": "note_on", "time": 124, "note": 60, "velocity": 109, "channel": 0}, {"type": "note_off", "time": 547, "note": 60, "velocity": 109, "channel": 0}, {"type": "note_on", "time": 0, "note": 63, "velocity": 119, "channel": 0}, {"type": "note_off", "time": 721, "note": 63, "velocity": 119, "channel": 0}, {"type": "note_on", "time": 0, "note": 65, "velocity": 109, "channel": 0}, {"type": "note_off", "time": 596, "note": 65, "velocity": 109, "channel": 0}, {"type": "note_on", "time": 0, "note": 67, "velocity": 111, "channel": 0}, {"type": "note_off", "time": 696, "note": 67, "velocity": 111, "channel": 0}, {"type": "note_on", "time": 24, "note": 70, "velocity": 112, "channel": 0}, {"type": "note_off", "time": 1168, "note": 70, "velocity": 112, "channel": 0}, {"type": "note_on", "time": 0, "note": 67, "velocity": 105, "channel": 0}, {"type": "note_off", "time": 671, "note": 67, "velocity": 105, "channel": 0}, {"type": "note_on", "time": 124, "note": 68, "velocity": 116, "channel": 0}, {"type": "note_off", "time": 646, "note": 68, "velocity": 116, "channel": 0}, {"type": "note_on", "time": 99, "note": 63, "velocity": 117, "channel": 0}, {"type": "note_off", "time": 1293, "note": 63, "velocity": 117, "channel": 0}, {"type": "note_on", "time": 6515, "note": 75, "velocity": 99, "channel": 0}, {"type": "note_off", "time": 547, "note": 75, "velocity": 99, "channel": 0}, {"type": "note_on", "time": 0, "note": 74, "velocity": 112, "channel": 0}, {"type": "note_off", "time": 198, "note": 74, "velocity": 112, "channel": 0}, {"type": "note_on", "time": 99, "note": 73, "velocity": 114, "channel": 0}, {"type": "note_off", "time": 223, "note": 73, "velocity": 114, "channel": 0}, {"type": "note_on", "time": 49, "note": 72, "velocity": 114, "channel": 0}, {"type": "note_off", "time": 223, "note": 72, "velocity": 114, "channel": 0}, {"type": "note_on", "time": 24, "note": 70, "velocity": 108, "channel": 0}, {"type": "note_off", "time": 373, "note": 70, "velocity": 108, "channel": 0}, {"type": "note_on", "time": 0, "note": 68, "velocity": 108, "channel": 0}, {"type": "note_off", "time": 721, "note": 68, "velocity": 108, "channel": 0}, {"type": "note_on", "time": 74, "note": 67, "velocity": 113, "channel": 0}, {"type": "note_off", "time": 447, "note": 67, "velocity": 113, "channel": 0}, {"type": "note_on", "time": 49, "note": 65, "velocity": 107, "channel": 0}, {"type": "note_off", "time": 596, "note": 65, "velocity": 107, "channel": 0}, {"type": "note_on", "time": 0, "note": 63, "velocity": 113, "channel": 0}, {"type": "note_off", "time": 522, "note": 63, "velocity": 113, "channel": 0}, {"type": "note_on", "time": 124, "note": 62, "velocity": 113, "channel": 0}, {"type": "note_off", "time": 770, "note": 62, "velocity": 113, "channel": 0}, {"type": "note_on", "time": 0, "note": 72, "velocity": 104, "channel": 0}, {"type": "note_off", "time": 497, "note": 72, "velocity": 104, "channel": 0}, {"type": "note_on", "time": 223, "note": 67, "velocity": 103, "channel": 0}, {"type": "note_off", "time": 945, "note": 67, "velocity": 103, "channel": 0}, {"type": "note_on", "time": 74, "note": 69, "velocity": 103, "channel": 0}, {"type": "note_off", "time": 547, "note": 69, "velocity": 103, "channel": 0}, {"type": "note_on", "time": 99, "note": 70, "velocity": 110, "channel": 0}, {"type": "note_off", "time": 820, "note": 70, "velocity": 110, "channel": 0}, {"type": "note_on", "time": 49, "note": 69, "velocity": 111, "channel": 0}, {"type": "note_off", "time": 646, "note": 69, "velocity": 111, "channel": 0}, {"type": "note_on", "time": 0, "note": 68, "velocity": 112, "channel": 0}, {"type": "note_off", "time": 721, "note": 68, "velocity": 112, "channel": 0}, {"type": "note_on", "time": 49, "note": 67, "velocity": 112, "channel": 0}, {"type": "note_off", "time": 447, "note": 67, "velocity": 112, "channel": 0}, {"type": "note_on", "time": 74, "note": 65, "velocity": 109, "channel": 0}, {"type": "note_off", "time": 348, "note": 65, "velocity": 109, "channel": 0}, {"type": "note_on", "time": 99, "note": 63, "velocity": 116, "channel": 0}, {"type": "note_off", "time": 547, "note": 63, "velocity": 116, "channel": 0}, {"type": "note_on", "time": 0, "note": 62, "velocity": 111, "channel": 0}, {"type": "note_off", "time": 522, "note": 62, "velocity": 111, "channel": 0}, {"type": "note_on", "time": 0, "note": 64, "velocity": 108, "channel": 0}, {"type": "note_off", "time": 149, "note": 64, "velocity": 108, "channel": 0}, {"type": "note_on", "time": 0, "note": 68, "velocity": 107, "channel": 0}, {"type": "note_off", "time": 621, "note": 68, "velocity": 107, "channel": 0}, {"type": "note_on", "time": 0, "note": 70, "velocity": 115, "channel": 0}, {"type": "note_off", "time": 497, "note": 70, "velocity": 115, "channel": 0}, {"type": "note_on", "time": 0, "note": 72, "velocity": 116, "channel": 0}, {"type": "note_off", "time": 820, "note": 72, "velocity": 116, "channel": 0}, {"type": "note_on", "time": 0, "note": 70, "velocity": 106, "channel": 0}, {"type": "note_off", "time": 721, "note": 70, "velocity": 106, "channel": 0}, {"type": "note_on", "time": 24, "note": 68, "velocity": 109, "channel": 0}, {"type": "note_off", "time": 547, "note": 68, "velocity": 109, "channel": 0}, {"type": "note_on", "time": 99, "note": 67, "velocity": 110, "channel": 0}, {"type": "note_off", "time": 671, "note": 67, "velocity": 110, "channel": 0}, {"type": "note_on", "time": 0, "note": 65, "velocity": 108, "channel": 0}, {"type": "note_off", "time": 522, "note": 65, "velocity": 108, "channel": 0}, {"type": "note_on", "time": 24, "note": 63, "velocity": 105, "channel": 0}, {"type": "note_off", "time": 397, "note": 63, "velocity": 105, "channel": 0}, {"type": "note_on", "time": 969, "note": 66, "velocity": 108, "channel": 0}, {"type": "note_off", "time": 397, "note": 66, "velocity": 108, "channel": 0}, {"type": "note_on", "time": 49, "note": 68, "velocity": 113, "channel": 0}, {"type": "note_on", "time": 2337, "note": 65, "velocity": 110, "channel": 0}, {"type": "note_off", "time": 0, "note": 68, "velocity": 113, "channel": 0}, {"type": "note_off", "time": 646, "note": 65, "velocity": 110, "channel": 0}, {"type": "note_on", "time": 99, "note": 63, "velocity": 108, "channel": 0}, {"type": "note_off", "time": 547, "note": 63, "velocity": 108, "channel": 0}, {"type": "note_on", "time": 497, "note": 63, "velocity": 111, "channel": 0}, {"type": "note_off", "time": 1541, "note": 63, "velocity": 111, "channel": 0}, {"type": "note_on", "time": 3481, "note": 71, "velocity": 82, "channel": 0}, {"type": "note_off", "time": 373, "note": 71, "velocity": 82, "channel": 0}, {"type": "note_on", "time": 99, "note": 72, "velocity": 113, "channel": 0}, {"type": "note_off", "time": 1218, "note": 72, "velocity": 113, "channel": 0}, {"type": "note_on", "time": 174, "note": 69, "velocity": 107, "channel": 0}, {"type": "note_off", "time": 422, "note": 69, "velocity": 107, "channel": 0}, {"type": "note_on", "time": 696, "note": 65, "velocity": 108, "channel": 0}, {"type": "note_off", "time": 522, "note": 65, "velocity": 108, "channel": 0}, {"type": "note_on", "time": 0, "note": 67, "velocity": 113, "channel": 0}, {"type": "note_off", "time": 671, "note": 67, "velocity": 113, "channel": 0}, {"type": "note_on", "time": 74, "note": 63, "velocity": 118, "channel": 0}, {"type": "note_off", "time": 845, "note": 63, "velocity": 118, "channel": 0}, {"type": "note_on", "time": 198, "note": 63, "velocity": 117, "channel": 0}, {"type": "note_off", "time": 447, "note": 63, "velocity": 117, "channel": 0}, {"type": "note_on", "time": 1044, "note": 68, "velocity": 108, "channel": 0}, {"type": "note_off", "time": 596, "note": 68, "velocity": 108, "channel": 0}, {"type": "note_on", "time": 74, "note": 67, "velocity": 107, "channel": 0}, {"type": "note_off", "time": 671, "note": 67, "velocity": 107, "channel": 0}, {"type": "note_on", "time": 198, "note": 63, "velocity": 9, "channel": 0}, {"type": "note_on", "time": 820, "note": 58, "velocity": 100, "channel": 0}, {"type": "note_off", "time": 0, "note": 63, "velocity": 9, "channel": 0}, {"type": "note_off", "time": 248, "note": 58, "velocity": 100, "channel": 0}, {"type": "note_on", "time": 248, "note": 63, "velocity": 118, "channel": 0}, {"type": "note_off", "time": 795, "note": 63, "velocity": 118, "channel": 0}, {"type": "note_on", "time": 248, "note": 63, "velocity": 119, "channel": 0}, {"type": "note_off", "time": 472, "note": 63, "velocity": 119, "channel": 0}, {"type": "note_on", "time": 845, "note": 68, "velocity": 113, "channel": 0}, {"type": "note_off", "time": 795, "note": 68, "velocity": 113, "channel": 0}, {"type": "note_on", "time": 74, "note": 63, "velocity": 118, "channel": 0}, {"type": "note_off", "time": 571, "note": 63, "velocity": 118, "channel": 0}, {"type": "note_on", "time": 571, "note": 67, "velocity": 73, "channel": 0}, {"type": "note_off", "time": 149, "note": 67, "velocity": 73, "channel": 0}, {"type": "note_on", "time": 99, "note": 66, "velocity": 110, "channel": 0}, {"type": "note_off", "time": 447, "note": 66, "velocity": 110, "channel": 0}, {"type": "note_on", "time": 497, "note": 63, "velocity": 101, "channel": 0}, {"type": "note_off", "time": 547, "note": 63, "velocity": 101, "channel": 0}, {"type": "note_on", "time": 696, "note": 63, "velocity": 106, "channel": 0}, {"type": "note_off", "time": 522, "note": 63, "velocity": 106, "channel": 0}, {"type": "note_on", "time": 298, "note": 68, "velocity": 101, "channel": 0}, {"type": "note_off", "time": 1044, "note": 68, "velocity": 101, "channel": 0}, {"type": "note_on", "time": 223, "note": 65, "velocity": 115, "channel": 0}, {"type": "note_off", "time": 497, "note": 65, "velocity": 115, "channel": 0}, {"type": "note_on", "time": 124, "note": 66, "velocity": 97, "channel": 0}, {"type": "note_off", "time": 547, "note": 66, "velocity": 97, "channel": 0}, {"type": "note_on", "time": 223, "note": 63, "velocity": 118, "channel": 0}, {"type": "note_off", "time": 621, "note": 63, "velocity": 118, "channel": 0}, {"type": "note_on", "time": 323, "note": 63, "velocity": 121, "channel": 0}, {"type": "note_off", "time": 447, "note": 63, "velocity": 121, "channel": 0}, {"type": "note_on", "time": 547, "note": 67, "velocity": 90, "channel": 0}, {"type": "note_off", "time": 248, "note": 67, "velocity": 90, "channel": 0}, {"type": "note_on", "time": 0, "note": 68, "velocity": 115, "channel": 0}, {"type": "note_off", "time": 721, "note": 68, "velocity": 115, "channel": 0}, {"type": "note_on", "time": 323, "note": 63, "velocity": 116, "channel": 0}, {"type": "note_off", "time": 373, "note": 63, "velocity": 116, "channel": 0}, {"type": "note_on", "time": 969, "note": 66, "velocity": 114, "channel": 0}, {"type": "note_off", "time": 497, "note": 66, "velocity": 114, "channel": 0}, {"type": "note_on", "time": 596, "note": 63, "velocity": 113, "channel": 0}, {"type": "note_off", "time": 397, "note": 63, "velocity": 113, "channel": 0}, {"type": "note_on", "time": 646, "note": 63, "velocity": 109, "channel": 0}, {"type": "note_off", "time": 571, "note": 63, "velocity": 109, "channel": 0}, {"type": "note_on", "time": 0, "note": 68, "velocity": 117, "channel": 0}, {"type": "note_off", "time": 671, "note": 68, "velocity": 117, "channel": 0}, {"type": "note_on", "time": 522, "note": 65, "velocity": 115, "channel": 0}, {"type": "note_off", "time": 945, "note": 65, "velocity": 115, "channel": 0}, {"type": "note_on", "time": 422, "note": 63, "velocity": 119, "channel": 0}, {"type": "note_off", "time": 721, "note": 63, "velocity": 119, "channel": 0}, {"type": "note_on", "time": 2859, "note": 72, "velocity": 116, "channel": 0}, {"type": "note_off", "time": 646, "note": 72, "velocity": 116, "channel": 0}, {"type": "note_on", "time": 99, "note": 71, "velocity": 117, "channel": 0}, {"type": "note_off", "time": 397, "note": 71, "velocity": 117, "channel": 0}, {"type": "note_on", "time": 49, "note": 70, "velocity": 111, "channel": 0}, {"type": "note_off", "time": 646, "note": 70, "velocity": 111, "channel": 0}, {"type": "note_on", "time": 74, "note": 68, "velocity": 117, "channel": 0}, {"type": "note_off", "time": 522, "note": 68, "velocity": 117, "channel": 0}, {"type": "note_on", "time": 49, "note": 67, "velocity": 107, "channel": 0}, {"type": "note_off", "time": 621, "note": 67, "velocity": 107, "channel": 0}, {"type": "note_on", "time": 0, "note": 65, "velocity": 113, "channel": 0}, {"type": "note_off", "time": 621, "note": 65, "velocity": 113, "channel": 0}, {"type": "note_on", "time": 0, "note": 64, "velocity": 116, "channel": 0}, {"type": "note_off", "time": 721, "note": 64, "velocity": 116, "channel": 0}, {"type": "note_on", "time": 49, "note": 61, "velocity": 115, "channel": 0}, {"type": "note_off", "time": 348, "note": 61, "velocity": 115, "channel": 0}, {"type": "note_on", "time": 99, "note": 60, "velocity": 111, "channel": 0}, {"type": "note_off", "time": 621, "note": 60, "velocity": 111, "channel": 0}, {"type": "note_on", "time": 0, "note": 58, "velocity": 111, "channel": 0}, {"type": "note_off", "time": 571, "note": 58, "velocity": 111, "channel": 0}, {"type": "note_on", "time": 24, "note": 57, "velocity": 109, "channel": 0}, {"type": "note_off", "time": 845, "note": 57, "velocity": 109, "channel": 0}, {"type": "note_on", "time": 671, "note": 67, "velocity": 116, "channel": 0}, {"type": "note_off", "time": 671, "note": 67, "velocity": 116, "channel": 0}, {"type": "note_on", "time": 696, "note": 67, "velocity": 112, "channel": 0}, {"type": "note_off", "time": 746, "note": 67, "velocity": 112, "channel": 0}, {"type": "note_on", "time": 596, "note": 57, "velocity": 108, "channel": 0}, {"type": "note_off", "time": 721, "note": 57, "velocity": 108, "channel": 0}, {"type": "note_on", "time": 49, "note": 56, "velocity": 106, "channel": 0}, {"type": "note_off", "time": 621, "note": 56, "velocity": 106, "channel": 0}, {"type": "note_on", "time": 373, "note": 66, "velocity": 113, "channel": 0}, {"type": "note_off", "time": 721, "note": 66, "velocity": 113, "channel": 0}, {"type": "note_on", "time": 1119, "note": 66, "velocity": 114, "channel": 0}, {"type": "note_off", "time": 1218, "note": 66, "velocity": 114, "channel": 0}, {"type": "note_on", "time": 0, "note": 62, "velocity": 117, "channel": 0}, {"type": "note_off", "time": 571, "note": 62, "velocity": 117, "channel": 0}, {"type": "note_on", "time": 693, "note": 63, "velocity": 117, "channel": 0}, {"type": "note_off", "time": 1066, "note": 63, "velocity": 117, "channel": 0}, {"type": "note_on", "time": 4282, "note": 61, "velocity": 112, "channel": 0}, {"type": "note_off", "time": 547, "note": 61, "velocity": 112, "channel": 0}, {"type": "note_on", "time": 0, "note": 63, "velocity": 116, "channel": 0}, {"type": "note_off", "time": 1666, "note": 63, "velocity": 116, "channel": 0}, {"type": "note_on", "time": 273, "note": 60, "velocity": 110, "channel": 0}, {"type": "note_off", "time": 323, "note": 60, "velocity": 110, "channel": 0}, {"type": "note_on", "time": 74, "note": 63, "velocity": 111, "channel": 0}, {"type": "note_on", "time": 870, "note": 59, "velocity": 101, "channel": 0}, {"type": "note_off", "time": 0, "note": 63, "velocity": 111, "channel": 0}, {"type": "note_off", "time": 522, "note": 59, "velocity": 101, "channel": 0}, {"type": "note_on", "time": 0, "note": 63, "velocity": 119, "channel": 0}, {"type": "note_off", "time": 721, "note": 63, "velocity": 119, "channel": 0}, {"type": "note_on", "time": 0, "note": 58, "velocity": 103, "channel": 0}, {"type": "note_off", "time": 1342, "note": 58, "velocity": 103, "channel": 0}, {"type": "note_on", "time": 1143, "note": 55, "velocity": 104, "channel": 0}, {"type": "note_off", "time": 696, "note": 55, "velocity": 104, "channel": 0}, {"type": "note_on", "time": 0, "note": 58, "velocity": 105, "channel": 0}, {"type": "note_off", "time": 895, "note": 58, "velocity": 105, "channel": 0}, {"type": "note_on", "time": 0, "note": 55, "velocity": 94, "channel": 0}, {"type": "note_off", "time": 348, "note": 55, "velocity": 94, "channel": 0}, {"type": "note_on", "time": 174, "note": 56, "velocity": 111, "channel": 0}, {"type": "note_off", "time": 770, "note": 56, "velocity": 111, "channel": 0}, {"type": "note_on", "time": 447, "note": 60, "velocity": 85, "channel": 0}, {"type": "note_off", "time": 298, "note": 60, "velocity": 85, "channel": 0}, {"type": "note_on", "time": 0, "note": 63, "velocity": 109, "channel": 0}, {"type": "note_off", "time": 945, "note": 63, "velocity": 109, "channel": 0}, {"type": "note_on", "time": 74, "note": 67, "velocity": 98, "channel": 0}, {"type": "note_off", "time": 522, "note": 67, "velocity": 98, "channel": 0}, {"type": "note_on", "time": 223, "note": 66, "velocity": 112, "channel": 0}, {"type": "note_off", "time": 895, "note": 66, "velocity": 112, "channel": 0}, {"type": "end_of_track", "time": 0}]]}