{"ticks_per_beat": 840, "tracks": [[{"type": "track_name", "name": "Melody", "time": 0}, {"type": "set_tempo", "tempo": 361445, "time": 0}, {"type": "key_signature", "key": "Ab", "time": 0}, {"type": "time_signature", "numerator": 4, "denominator": 4, "clocks_per_click": 24, "notated_32nd_notes_per_beat": 8, "time": 0}, {"type": "note_on", "time": 9449, "note": 58, "velocity": 95, "channel": 0}, {"type": "note_off", "time": 170, "note": 58, "velocity": 95, "channel": 0}, {"type": "note_on", "time": 79, "note": 60, "velocity": 103, "channel": 0}, {"type": "note_off", "time": 182, "note": 60, "velocity": 103, "channel": 0}, {"type": "note_on", "time": 25, "note": 62, "velocity": 108, "channel": 0}, {"type": "note_off", "time": 212, "note": 62, "velocity": 108, "channel": 0}, {"type": "note_on", "time": 40, "note": 70, "velocity": 117, "channel": 0}, {"type": "note_off", "time": 369, "note": 70, "velocity": 117, "channel": 0}, {"type": "note_on", "time": 30, "note": 68, "velocity": 118, "channel": 0}, {"type": "note_off", "time": 384, "note": 68, "velocity": 118, "channel": 0}, {"type": "note_on", "time": 40, "note": 67, "velocity": 115, "channel": 0}, {"type": "note_off", "time": 308, "note": 67, "velocity": 115, "channel": 0}, {"type": "note_on", "time": 40, "note": 66, "velocity": 112, "channel": 0}, {"type": "note_off", "time": 303, "note": 66, "velocity": 112, "channel": 0}, {"type": "note_on", "time": 135, "note": 65, "velocity": 118, "channel": 0}, {"type": "note_off", "time": 417, "note": 65, "velocity": 118, "channel": 0}, {"type": "note_on", "time": 0, "note": 63, "velocity": 122, "channel": 0}, {"type": "note_off", "time": 419, "note": 63, "velocity": 122, "channel": 0}, {"type": "note_on", "time": 45, "note": 61, "velocity": 123, "channel": 0}, {"type": "note_off", "time": 303, "note": 61, "velocity": 123, "channel": 0}, {"type": "note_on", "time": 85, "note": 60, "velocity": 116, "channel": 0}, {"type": "note_off", "time": 359, "note": 60, "velocity": 116, "channel": 0}, {"type": "note_on", "time": 14, "note": 58, "velocity": 115, "channel": 0}, {"type": "note_off", "time": 308, "note": 58, "velocity": 115, "channel": 0}, {"type": "note_on", "time": 55, "note": 56, "velocity": 110, "channel": 0}, {"type": "note_off", "time": 404, "note": 56, "velocity": 110, "channel": 0}, {"type": "note_on", "time": 70, "note": 55, "velocity": 113, "channel": 0}, {"type": "note_off", "time": 431, "note": 55, "velocity": 113, "channel": 0}, {"type": "note_on", "time": 64, "note": 54, "velocity": 114, "channel": 0}, {"type": "note_off", "time": 377, "note": 54, "velocity": 114, "channel": 0}, {"type": "note_on", "time": 53, "note": 56, "velocity": 107, "channel": 0}, {"type": "note_off", "time": 377, "note": 56, "velocity": 107, "channel": 0}, {"type": "note_on", "time": 202, "note": 52, "velocity": 110, "channel": 0}, {"type": "note_off", "time": 161, "note": 52, "velocity": 110, "channel": 0}, {"type": "note_on", "time": 48, "note": 53, "velocity": 105, "channel": 0}, {"type": "note_off", "time": 853, "note": 53, "velocity": 105, "channel": 0}, {"type": "note_on", "time": 53, "note": 63, "velocity": 123, "channel": 0}, {"type": "note_off", "time": 436, "note": 63, "velocity": 123, "channel": 0}, {"type": "note_on", "time": 24, "note": 61, "velocity": 120, "channel": 0}, {"type": "note_off", "time": 458, "note": 61, "velocity": 120, "channel": 0}, {"type": "note_on", "time": 221, "note": 56, "velocity": 112, "channel": 0}, {"type": "note_off", "time": 539, "note": 56, "velocity": 112, "channel": 0}, {"type": "note_on", "time": 7, "note": 53, "velocity": 111, "channel": 0}, {"type": "note_off", "time": 350, "note": 53, "velocity": 111, "channel": 0}, {"type": "note_on", "time": 67, "note": 52, "velocity": 108, "channel": 0}, {"type": "note_off", "time": 1214, "note": 52, "velocity": 108, "channel": 0}, {"type": "note_on", "time": 102, "note": 61, "velocity": 118, "channel": 0}, {"type": "note_off", "time": 365, "note": 61, "velocity": 118, "channel": 0}, {"type": "note_on", "time": 27, "note": 60, "velocity": 116, "channel": 0}, {"type": "note_off", "time": 588, "note": 60, "velocity": 116, "channel": 0}, {"type": "note_on", "time": 110, "note": 55, "velocity": 108, "channel": 0}, {"type": "note_off", "time": 485, "note": 55, "velocity": 108, "channel": 0}, {"type": "note_on", "time": 53, "note": 52, "velocity": 112, "channel": 0}, {"type": "note_off", "time": 344, "note": 52, "velocity": 112, "channel": 0}, {"type": "note_on", "time": 68, "note": 51, "velocity": 109, "channel": 0}, {"type": "note_off", "time": 1309, "note": 51, "velocity": 109, "channel": 0}, {"type": "note_on", "time": 94, "note": 59, "velocity": 105, "channel": 0}, {"type": "note_off", "time": 1081, "note": 59, "velocity": 105, "channel": 0}, {"type": "note_on", "time": 70, "note": 51, "velocity": 107, "channel": 0}, {"type": "note_off", "time": 550, "note": 51, "velocity": 107, "channel": 0}, {"type": "note_on", "time": 341, "note": 50, "velocity": 107, "channel": 0}, {"type": "note_off", "time": 790, "note": 50, "velocity": 107, "channel": 0}, {"type": "note_on", "time": 55, "note": 50, "velocity": 105, "channel": 0}, {"type": "note_off", "time": 306, "note": 50, "velocity": 105, "channel": 0}, {"type": "note_on", "time": 5, "note": 58, "velocity": 112, "channel": 0}, {"type": "note_off", "time": 330, "note": 58, "velocity": 112, "channel": 0}, {"type": "note_on", "time": 2215, "note": 58, "velocity": 111, "channel": 0}, {"type": "note_off", "time": 341, "note": 58, "velocity": 111, "channel": 0}, {"type": "note_on", "time": 56, "note": 61, "velocity": 109, "channel": 0}, {"type": "note_off", "time": 275, "note": 61, "velocity": 109, "channel": 0}, {"type": "note_on", "time": 0, "note": 65, "velocity": 98, "channel": 0}, {"type": "note_off", "time": 128, "note": 65, "velocity": 98, "channel": 0}, {"type": "note_on", "time": 36, "note": 68, "velocity": 115, "channel": 0}, {"type": "note_off", "time": 550, "note": 68, "velocity": 115, "channel": 0}, {"type": "note_on", "time": 15, "note": 72, "velocity": 115, "channel": 0}, {"type": "note_off", "time": 550, "note": 72, "velocity": 115, "channel": 0}, {"type": "note_on", "time": 18, "note": 65, "velocity": 114, "channel": 0}, {"type": "note_off", "time": 417, "note": 65, "velocity": 114, "channel": 0}, {"type": "note_on", "time": 104, "note": 72, "velocity": 114, "channel": 0}, {"type": "note_off", "time": 436, "note": 72, "velocity": 114, "channel": 0}, {"type": "note_on", "time": 9, "note": 71, "velocity": 113, "channel": 0}, {"type": "note_off", "time": 607, "note": 71, "velocity": 113, "channel": 0}, {"type": "note_on", "time": 151, "note": 64, "velocity": 124, "channel": 0}, {"type": "note_off", "time": 1100, "note": 64, "velocity": 124, "channel": 0}, {"type": "note_on", "time": 1623, "note": 70, "velocity": 113, "channel": 0}, {"type": "note_off", "time": 298, "note": 70, "velocity": 113, "channel": 0}, {"type": "note_on", "time": 26, "note": 68, "velocity": 111, "channel": 0}, {"type": "note_off", "time": 310, "note": 68, "velocity": 111, "channel": 0}, {"type": "note_on", "time": 40, "note": 70, "velocity": 116, "channel": 0}, {"type": "note_off", "time": 411, "note": 70, "velocity": 116, "channel": 0}, {"type": "note_on", "time": 58, "note": 68, "velocity": 120, "channel": 0}, {"type": "note_off", "time": 379, "note": 68, "velocity": 120, "channel": 0}, {"type": "note_on", "time": 75, "note": 67, "velocity": 113, "channel": 0}, {"type": "note_off", "time": 310, "note": 67, "velocity": 113, "channel": 0}, {"type": "note_on", "time": 40, "note": 65, "velocity": 112, "channel": 0}, {"type": "note_off", "time": 364, "note": 65, "velocity": 112, "channel": 0}, {"type": "note_on", "time": 25, "note": 63, "velocity": 121, "channel": 0}, {"type": "note_off", "time": 360, "note": 63, "velocity": 121, "channel": 0}, {"type": "note_on", "time": 92, "note": 65, "velocity": 111, "channel": 0}, {"type": "note_off", "time": 364, "note": 65, "velocity": 111, "channel": 0}, {"type": "note_on", "time": 60, "note": 66, "velocity": 112, "channel": 0}, {"type": "note_off", "time": 364, "note": 66, "velocity": 112, "channel": 0}, {"type": "note_on", "time": 66, "note": 68, "velocity": 95, "channel": 0}, {"type": "note_off", "time": 322, "note": 68, "velocity": 95, "channel": 0}, {"type": "note_on", "time": 24, "note": 69, "velocity": 115, "channel": 0}, {"type": "note_off", "time": 374, "note": 69, "velocity": 115, "channel": 0}, {"type": "note_on", "time": 0, "note": 67, "velocity": 99, "channel": 0}, {"type": "note_off", "time": 360, "note": 67, "velocity": 99, "channel": 0}, {"type": "note_on", "time": 75, "note": 68, "velocity": 120, "channel": 0}, {"type": "note_off", "time": 474, "note": 68, "velocity": 120, "channel": 0}, {"type": "note_on", "time": 55, "note": 66, "velocity": 114, "channel": 0}, {"type": "note_off", "time": 341, "note": 66, "velocity": 114, "channel": 0}, {"type": "note_on", "time": 56, "note": 65, "velocity": 111, "channel": 0}, {"type": "note_off", "time": 350, "note": 65, "velocity": 111, "channel": 0}, {"type": "note_on", "time": 68, "note": 63, "velocity": 119, "channel": 0}, {"type": "note_off", "time": 493, "note": 63, "velocity": 119, "channel": 0}, {"type": "note_on", "time": 0, "note": 61, "velocity": 103, "channel": 0}, {"type": "note_off", "time": 1100, "note": 61, "velocity": 103, "channel": 0}, {"type": "note_on", "time": 172, "note": 68, "velocity": 118, "channel": 0}, {"type": "note_off", "time": 323, "note": 68, "velocity": 118, "channel": 0}, {"type": "note_on", "time": 1628, "note": 65, "velocity": 111, "channel": 0}, {"type": "note_off", "time": 303, "note": 65, "velocity": 111, "channel": 0}, {"type": "note_on", "time": 0, "note": 67, "velocity": 120, "channel": 0}, {"type": "note_off", "time": 1081, "note": 67, "velocity": 120, "channel": 0}, {"type": "note_on", "time": 13, "note": 66, "velocity": 119, "channel": 0}, {"type": "note_off", "time": 91, "note": 66, "velocity": 119, "channel": 0}, {"type": "note_on", "time": 18, "note": 65, "velocity": 117, "channel": 0}, {"type": "note_off", "time": 142, "note": 65, "velocity": 117, "channel": 0}, {"type": "note_on", "time": 28, "note": 64, "velocity": 123, "channel": 0}, {"type": "note_off", "time": 474, "note": 64, "velocity": 123, "channel": 0}, {"type": "note_on", "time": 28, "note": 60, "velocity": 114, "channel": 0}, {"type": "note_off", "time": 436, "note": 60, "velocity": 114, "channel": 0}, {"type": "note_on", "time": 0, "note": 55, "velocity": 112, "channel": 0}, {"type": "note_off", "time": 493, "note": 55, "velocity": 112, "channel": 0}, {"type": "note_on", "time": 289, "note": 65, "velocity": 115, "channel": 0}, {"type": "note_off", "time": 281, "note": 65, "velocity": 115, "channel": 0}, {"type": "note_on", "time": 20, "note": 66, "velocity": 118, "channel": 0}, {"type": "note_off", "time": 876, "note": 66, "velocity": 118, "channel": 0}, {"type": "note_on", "time": 30, "note": 64, "velocity": 122, "channel": 0}, {"type": "note_off", "time": 360, "note": 64, "velocity": 122, "channel": 0}, {"type": "note_on", "time": 0, "note": 63, "velocity": 124, "channel": 0}, {"type": "note_off", "time": 398, "note": 63, "velocity": 124, "channel": 0}, {"type": "note_on", "time": 118, "note": 59, "velocity": 109, "channel": 0}, {"type": "note_off", "time": 284, "note": 59, "velocity": 109, "channel": 0}, {"type": "note_on", "time": 52, "note": 54, "velocity": 111, "channel": 0}, {"type": "note_off", "time": 569, "note": 54, "velocity": 111, "channel": 0}, {"type": "note_on", "time": 18, "note": 52, "velocity": 103, "channel": 0}, {"type": "note_off", "time": 197, "note": 52, "velocity": 103, "channel": 0}, {"type": "note_on", "time": 119, "note": 53, "velocity": 104, "channel": 0}, {"type": "note_off", "time": 1268, "note": 53, "velocity": 104, "channel": 0}, {"type": "note_on", "time": 4890, "note": 63, "velocity": 125, "channel": 0}, {"type": "note_off", "time": 424, "note": 63, "velocity": 125, "channel": 0}, {"type": "note_on", "time": 57, "note": 68, "velocity": 120, "channel": 0}, {"type": "note_off", "time": 550, "note": 68, "velocity": 120, "channel": 0}, {"type": "note_on", "time": 33, "note": 63, "velocity": 109, "channel": 0}, {"type": "note_off", "time": 184, "note": 63, "velocity": 109, "channel": 0}, {"type": "note_on", "time": 37, "note": 67, "velocity": 111, "channel": 0}, {"type": "note_off", "time": 488, "note": 67, "velocity": 111, "channel": 0}, {"type": "note_on", "time": 14, "note": 70, "velocity": 109, "channel": 0}, {"type": "note_off", "time": 341, "note": 70, "velocity": 109, "channel": 0}, {"type": "note_on", "time": 14, "note": 68, "velocity": 114, "channel": 0}, {"type": "note_off", "time": 512, "note": 68, "velocity": 114, "channel": 0}, {"type": "note_on", "time": 28, "note": 63, "velocity": 119, "channel": 0}, {"type": "note_off", "time": 265, "note": 63, "velocity": 119, "channel": 0}, {"type": "note_on", "time": 94, "note": 62, "velocity": 106, "channel": 0}, {"type": "note_off", "time": 431, "note": 62, "velocity": 106, "channel": 0}, {"type": "note_on", "time": 23, "note": 65, "velocity": 107, "channel": 0}, {"type": "note_off", "time": 341, "note": 65, "velocity": 107, "channel": 0}, {"type": "note_on", "time": 113, "note": 63, "velocity": 111, "channel": 0}, {"type": "note_off", "time": 303, "note": 63, "velocity": 111, "channel": 0}, {"type": "note_on", "time": 56, "note": 60, "velocity": 106, "channel": 0}, {"type": "note_off", "time": 360, "note": 60, "velocity": 106, "channel": 0}, {"type": "note_on", "time": 71, "note": 59, "velocity": 97, "channel": 0}, {"type": "note_off", "time": 332, "note": 59, "velocity": 97, "channel": 0}, {"type": "note_on", "time": 37, "note": 61, "velocity": 118, "channel": 0}, {"type": "note_off", "time": 436, "note": 61, "velocity": 118, "channel": 0}, {"type": "note_on", "time": 71, "note": 60, "velocity": 110, "channel": 0}, {"type": "note_off", "time": 360, "note": 60, "velocity": 110, "channel": 0}, {"type": "note_on", "time": 0, "note": 56, "velocity": 111, "channel": 0}, {"type": "note_off", "time": 341, "note": 56, "velocity": 111, "channel": 0}, {"type": "note_on", "time": 75, "note": 55, "velocity": 105, "channel": 0}, {"type": "note_off", "time": 360, "note": 55, "velocity": 105, "channel": 0}, {"type": "note_on", "time": 18, "note": 58, "velocity": 109, "channel": 0}, {"type": "note_off", "time": 455, "note": 58, "velocity": 109, "channel": 0}, {"type": "note_on", "time": 56, "note": 56, "velocity": 110, "channel": 0}, {"type": "note_off", "time": 341, "note": 56, "velocity": 110, "channel": 0}, {"type": "note_on", "time": 66, "note": 53, "velocity": 107, "channel": 0}, {"type": "note_off", "time": 265, "note": 53, "velocity": 107, "channel": 0}, {"type": "note_on", "time": 61, "note": 54, "velocity": 109, "channel": 0}, {"type": "note_off", "time": 218, "note": 54, "velocity": 109, "channel": 0}, {"type": "note_on", "time": 33, "note": 57, "velocity": 101, "channel": 0}, {"type": "note_off", "time": 208, "note": 57, "velocity": 101, "channel": 0}, {"type": "note_on", "time": 18, "note": 61, "velocity": 111, "channel": 0}, {"type": "note_off", "time": 170, "note": 61, "velocity": 111, "channel": 0}, {"type": "note_on", "time": 251, "note": 65, "velocity": 113, "channel": 0}, {"type": "note_off", "time": 360, "note": 65, "velocity": 113, "channel": 0}, {"type": "note_on", "time": 14, "note": 63, "velocity": 107, "channel": 0}, {"type": "note_off", "time": 265, "note": 63, "velocity": 107, "channel": 0}, {"type": "note_on", "time": 123, "note": 68, "velocity": 116, "channel": 0}, {"type": "note_off", "time": 474, "note": 68, "velocity": 116, "channel": 0}, {"type": "note_on", "time": 4, "note": 66, "velocity": 113, "channel": 0}, {"type": "note_off", "time": 332, "note": 66, "velocity": 113, "channel": 0}, {"type": "note_on", "time": 94, "note": 64, "velocity": 118, "channel": 0}, {"type": "note_off", "time": 417, "note": 64, "velocity": 118, "channel": 0}, {"type": "note_on", "time": 14, "note": 65, "velocity": 111, "channel": 0}, {"type": "note_off", "time": 720, "note": 65, "velocity": 111, "channel": 0}, {"type": "note_on", "time": 75, "note": 67, "velocity": 106, "channel": 0}, {"type": "note_off", "time": 265, "note": 67, "velocity": 106, "channel": 0}, {"type": "note_on", "time": 37, "note": 65, "velocity": 112, "channel": 0}, {"type": "note_on", "time": 170, "note": 63, "velocity": 116, "channel": 0}, {"type": "note_off", "time": 0, "note": 65, "velocity": 112, "channel": 0}, {"type": "note_off", "time": 455, "note": 63, "velocity": 116, "channel": 0}, {"type": "note_on", "time": 37, "note": 61, "velocity": 119, "channel": 0}, {"type": "note_off", "time": 208, "note": 61, "velocity": 119, "channel": 0}, {"type": "note_on", "time": 758, "note": 61, "velocity": 114, "channel": 0}, {"type": "note_off", "time": 455, "note": 61, "velocity": 114, "channel": 0}, {"type": "note_on", "time": 455, "note": 61, "velocity": 108, "channel": 0}, {"type": "note_off", "time": 1062, "note": 61, "velocity": 108, "channel": 0}, {"type": "note_on", "time": 745, "note": 61, "velocity": 112, "channel": 0}, {"type": "note_off", "time": 829, "note": 61, "velocity": 112, "channel": 0}, {"type": "note_on", "time": 3162, "note": 63, "velocity": 122, "channel": 0}, {"type": "note_off", "time": 270, "note": 63, "velocity": 122, "channel": 0}, {"type": "note_on", "time": 52, "note": 66, "velocity": 101, "channel": 0}, {"type": "note_off", "time": 123, "note": 66, "velocity": 101, "channel": 0}, {"type": "note_on", "time": 23, "note": 63, "velocity": 114, "channel": 0}, {"type": "note_off", "time": 104, "note": 63, "velocity": 114, "channel": 0}, {"type": "note_on", "time": 18, "note": 61, "velocity": 113, "channel": 0}, {"type": "note_off", "time": 355, "note": 61, "velocity": 113, "channel": 0}, {"type": "note_on", "time": 33, "note": 68, "velocity": 117, "channel": 0}, {"type": "note_off", "time": 436, "note": 68, "velocity": 117, "channel": 0}, {"type": "note_on", "time": 18, "note": 64, "velocity": 124, "channel": 0}, {"type": "note_off", "time": 483, "note": 64, "velocity": 124, "channel": 0}, {"type": "note_on", "time": 28, "note": 63, "velocity": 117, "channel": 0}, {"type": "note_off", "time": 550, "note": 63, "velocity": 117, "channel": 0}, {"type": "note_on", "time": 137, "note": 61, "velocity": 113, "channel": 0}, {"type": "note_off", "time": 483, "note": 61, "velocity": 113, "channel": 0}, {"type": "note_on", "time": 52, "note": 60, "velocity": 107, "channel": 0}, {"type": "note_off", "time": 1005, "note": 60, "velocity": 107, "channel": 0}, {"type": "note_on", "time": 94, "note": 63, "velocity": 100, "channel": 0}, {"type": "note_off", "time": 265, "note": 63, "velocity": 100, "channel": 0}, {"type": "note_on", "time": 9, "note": 67, "velocity": 91, "channel": 0}, {"type": "note_off", "time": 109, "note": 67, "velocity": 91, "channel": 0}, {"type": "note_on", "time": 18, "note": 70, "velocity": 107, "channel": 0}, {"type": "note_off", "time": 455, "note": 70, "velocity": 107, "channel": 0}, {"type": "note_on", "time": 28, "note": 68, "velocity": 115, "channel": 0}, {"type": "note_off", "time": 360, "note": 68, "velocity": 115, "channel": 0}, {"type": "note_on", "time": 23, "note": 67, "velocity": 112, "channel": 0}, {"type": "note_off", "time": 355, "note": 67, "velocity": 112, "channel": 0}, {"type": "note_on", "time": 37, "note": 65, "velocity": 111, "channel": 0}, {"type": "note_off", "time": 422, "note": 65, "velocity": 111, "channel": 0}, {"type": "note_on", "time": 48, "note": 64, "velocity": 118, "channel": 0}, {"type": "note_off", "time": 370, "note": 64, "velocity": 118, "channel": 0}, {"type": "note_on", "time": 168, "note": 63, "velocity": 114, "channel": 0}, {"type": "note_off", "time": 398, "note": 63, "velocity": 114, "channel": 0}, {"type": "note_on", "time": 18, "note": 60, "velocity": 105, "channel": 0}, {"type": "note_off", "time": 787, "note": 60, "velocity": 105, "channel": 0}, {"type": "note_on", "time": 3519, "note": 73, "velocity": 117, "channel": 0}, {"type": "note_off", "time": 550, "note": 73, "velocity": 117, "channel": 0}, {"type": "note_on", "time": 37, "note": 72, "velocity": 118, "channel": 0}, {"type": "note_off", "time": 448, "note": 72, "velocity": 118, "channel": 0}, {"type": "note_on", "time": 0, "note": 66, "velocity": 112, "channel": 0}, {"type": "note_off", "time": 474, "note": 66, "velocity": 112, "channel": 0}, {"type": "note_on", "time": 30, "note": 67, "velocity": 111, "channel": 0}, {"type": "note_off", "time": 232, "note": 67, "velocity": 111, "channel": 0}, {"type": "note_on", "time": 180, "note": 70, "velocity": 111, "channel": 0}, {"type": "note_off", "time": 1821, "note": 70, "velocity": 111, "channel": 0}, {"type": "note_on", "time": 42, "note": 69, "velocity": 116, "channel": 0}, {"type": "note_off", "time": 336, "note": 69, "velocity": 116, "channel": 0}, {"type": "note_on", "time": 23, "note": 68, "velocity": 113, "channel": 0}, {"type": "note_off", "time": 403, "note": 68, "velocity": 113, "channel": 0}, {"type": "note_on", "time": 156, "note": 66, "velocity": 112, "channel": 0}, {"type": "note_off", "time": 360, "note": 66, "velocity": 112, "channel": 0}, {"type": "note_on", "time": 0, "note": 64, "velocity": 117, "channel": 0}, {"type": "note_off", "time": 379, "note": 64, "velocity": 117, "channel": 0}, {"type": "note_on", "time": 85, "note": 65, "velocity": 111, "channel": 0}, {"type": "note_off", "time": 687, "note": 65, "velocity": 111, "channel": 0}, {"type": "note_on", "time": 47, "note": 67, "velocity": 105, "channel": 0}, {"type": "note_off", "time": 213, "note": 67, "velocity": 105, "channel": 0}, {"type": "note_on", "time": 28, "note": 65, "velocity": 114, "channel": 0}, {"type": "note_off", "time": 161, "note": 65, "velocity": 114, "channel": 0}, {"type": "note_on", "time": 9, "note": 63, "velocity": 115, "channel": 0}, {"type": "note_off", "time": 573, "note": 63, "velocity": 115, "channel": 0}, {"type": "note_on", "time": 33, "note": 61, "velocity": 119, "channel": 0}, {"type": "note_off", "time": 251, "note": 61, "velocity": 119, "channel": 0}, {"type": "note_on", "time": 967, "note": 62, "velocity": 114, "channel": 0}, {"type": "note_off", "time": 360, "note": 62, "velocity": 114, "channel": 0}, {"type": "note_on", "time": 18, "note": 64, "velocity": 123, "channel": 0}, {"type": "note_off", "time": 758, "note": 64, "velocity": 123, "channel": 0}, {"type": "note_on", "time": 37, "note": 67, "velocity": 106, "channel": 0}, {"type": "note_off", "time": 265, "note": 67, "velocity": 106, "channel": 0}, {"type": "note_on", "time": 28, "note": 64, "velocity": 122, "channel": 0}, {"type": "note_off", "time": 275, "note": 64, "velocity": 122, "channel": 0}, {"type": "note_on", "time": 33, "note": 62, "velocity": 119, "channel": 0}, {"type": "note_off", "time": 388, "note": 62, "velocity": 119, "channel": 0}, {"type": "note_on", "time": 18, "note": 60, "velocity": 114, "channel": 0}, {"type": "note_off", "time": 227, "note": 60, "velocity": 114, "channel": 0}, {"type": "note_on", "time": 1256, "note": 68, "velocity": 113, "channel": 0}, {"type": "note_off", "time": 246, "note": 68, "velocity": 113, "channel": 0}, {"type": "note_on", "time": 33, "note": 67, "velocity": 118, "channel": 0}, {"type": "note_off", "time": 90, "note": 67, "velocity": 118, "channel": 0}, {"type": "note_on", "time": 18, "note": 66, "velocity": 115, "channel": 0}, {"type": "note_off", "time": 260, "note": 66, "velocity": 115, "channel": 0}, {"type": "note_on", "time": 222, "note": 64, "velocity": 123, "channel": 0}, {"type": "note_off", "time": 379, "note": 64, "velocity": 123, "channel": 0}, {"type": "note_on", "time": 37, "note": 63, "velocity": 116, "channel": 0}, {"type": "note_off", "time": 445, "note": 63, "velocity": 116, "channel": 0}, {"type": "note_on", "time": 61, "note": 61, "velocity": 117, "channel": 0}, {"type": "note_off", "time": 332, "note": 61, "velocity": 117, "channel": 0}, {"type": "note_on", "time": 85, "note": 59, "velocity": 106, "channel": 0}, {"type": "note_off", "time": 422, "note": 59, "velocity": 106, "channel": 0}, {"type": "note_on", "time": 341, "note": 65, "velocity": 105, "channel": 0}, {"type": "note_off", "time": 123, "note": 65, "velocity": 105, "channel": 0}, {"type": "note_on", "time": 18, "note": 67, "velocity": 116, "channel": 0}, {"type": "note_off", "time": 588, "note": 67, "velocity": 116, "channel": 0}, {"type": "note_on", "time": 94, "note": 65, "velocity": 111, "channel": 0}, {"type": "note_off", "time": 398, "note": 65, "velocity": 111, "channel": 0}, {"type": "note_on", "time": 113, "note": 63, "velocity": 119, "channel": 0}, {"type": "note_off", "time": 322, "note": 63, "velocity": 119, "channel": 0}, {"type": "note_on", "time": 118, "note": 62, "velocity": 118, "channel": 0}, {"type": "note_off", "time": 308, "note": 62, "velocity": 118, "channel": 0}, {"type": "note_on", "time": 52, "note": 60, "velocity": 114, "channel": 0}, {"type": "note_off", "time": 294, "note": 60, "velocity": 114, "channel": 0}, {"type": "note_on", "time": 37, "note": 59, "velocity": 102, "channel": 0}, {"type": "note_off", "time": 668, "note": 59, "velocity": 102, "channel": 0}, {"type": "note_on", "time": 265, "note": 58, "velocity": 105, "channel": 0}, {"type": "note_off", "time": 1043, "note": 58, "velocity": 105, "channel": 0}, {"type": "note_on", "time": 1043, "note": 58, "velocity": 111, "channel": 0}, {"type": "note_off", "time": 436, "note": 58, "velocity": 111, "channel": 0}, {"type": "note_on", "time": 11, "note": 61, "velocity": 110, "channel": 0}, {"type": "note_off", "time": 293, "note": 61, "velocity": 110, "channel": 0}, {"type": "note_on", "time": 10, "note": 65, "velocity": 100, "channel": 0}, {"type": "note_off", "time": 146, "note": 65, "velocity": 100, "channel": 0}, {"type": "note_on", "time": 12, "note": 68, "velocity": 113, "channel": 0}, {"type": "note_on", "time": 422, "note": 72, "velocity": 118, "channel": 0}, {"type": "note_off", "time": 0, "note": 68, "velocity": 113, "channel": 0}, {"type": "note_off", "time": 573, "note": 72, "velocity": 118, "channel": 0}, {"type": "note_on", "time": 28, "note": 68, "velocity": 108, "channel": 0}, {"type": "note_off", "time": 184, "note": 68, "velocity": 108, "channel": 0}, {"type": "note_on", "time": 47, "note": 72, "velocity": 120, "channel": 0}, {"type": "note_off", "time": 573, "note": 72, "velocity": 120, "channel": 0}, {"type": "note_on", "time": 284, "note": 70, "velocity": 119, "channel": 0}, {"type": "note_off", "time": 275, "note": 70, "velocity": 119, "channel": 0}, {"type": "note_on", "time": 56, "note": 72, "velocity": 105, "channel": 0}, {"type": "note_off", "time": 170, "note": 72, "velocity": 105, "channel": 0}, {"type": "note_on", "time": 37, "note": 71, "velocity": 112, "channel": 0}, {"type": "note_off", "time": 284, "note": 71, "velocity": 112, "channel": 0}, {"type": "note_on", "time": 75, "note": 67, "velocity": 112, "channel": 0}, {"type": "note_off", "time": 474, "note": 67, "velocity": 112, "channel": 0}, {"type": "note_on", "time": 379, "note": 68, "velocity": 112, "channel": 0}, {"type": "note_off", "time": 550, "note": 68, "velocity": 112, "channel": 0}, {"type": "note_on", "time": 294, "note": 68, "velocity": 99, "channel": 0}, {"type": "note_off", "time": 1422, "note": 68, "velocity": 99, "channel": 0}, {"type": "note_on", "time": 1081, "note": 72, "velocity": 116, "channel": 0}, {"type": "note_off", "time": 276, "note": 72, "velocity": 116, "channel": 0}, {"type": "note_on", "time": 53, "note": 73, "velocity": 116, "channel": 0}, {"type": "note_off", "time": 215, "note": 73, "velocity": 116, "channel": 0}, {"type": "note_on", "time": 47, "note": 72, "velocity": 114, "channel": 0}, {"type": "note_off", "time": 209, "note": 72, "velocity": 114, "channel": 0}, {"type": "note_on", "time": 87, "note": 68, "velocity": 117, "channel": 0}, {"type": "note_off", "time": 1571, "note": 68, "velocity": 117, "channel": 0}, {"type": "note_on", "time": 47, "note": 65, "velocity": 115, "channel": 0}, {"type": "note_off", "time": 499, "note": 65, "velocity": 115, "channel": 0}, {"type": "note_on", "time": 364, "note": 68, "velocity": 113, "channel": 0}, {"type": "note_off", "time": 512, "note": 68, "velocity": 113, "channel": 0}, {"type": "note_on", "time": 168, "note": 68, "velocity": 113, "channel": 0}, {"type": "note_off", "time": 283, "note": 68, "velocity": 113, "channel": 0}, {"type": "note_on", "time": 1767, "note": 70, "velocity": 115, "channel": 0}, {"type": "note_off", "time": 148, "note": 70, "velocity": 115, "channel": 0}, {"type": "note_on", "time": 94, "note": 72, "velocity": 116, "channel": 0}, {"type": "note_off", "time": 296, "note": 72, "velocity": 116, "channel": 0}, {"type": "note_on", "time": 242, "note": 67, "velocity": 110, "channel": 0}, {"type": "note_off", "time": 667, "note": 67, "velocity": 110, "channel": 0}, {"type": "note_on", "time": 114, "note": 67, "velocity": 112, "channel": 0}, {"type": "note_off", "time": 249, "note": 67, "velocity": 112, "channel": 0}, {"type": "note_on", "time": 2411, "note": 73, "velocity": 114, "channel": 0}, {"type": "note_off", "time": 834, "note": 73, "velocity": 114, "channel": 0}, {"type": "note_on", "time": 106, "note": 71, "velocity": 111, "channel": 0}, {"type": "note_off", "time": 276, "note": 71, "velocity": 111, "channel": 0}, {"type": "note_on", "time": 114, "note": 66, "velocity": 115, "channel": 0}, {"type": "note_off", "time": 424, "note": 66, "velocity": 115, "channel": 0}, {"type": "note_on", "time": 47, "note": 61, "velocity": 119, "channel": 0}, {"type": "note_off", "time": 559, "note": 61, "velocity": 119, "channel": 0}, {"type": "note_on", "time": 134, "note": 59, "velocity": 106, "channel": 0}, {"type": "note_off", "time": 323, "note": 59, "velocity": 106, "channel": 0}, {"type": "note_on", "time": 458, "note": 70, "velocity": 110, "channel": 0}, {"type": "note_off", "time": 209, "note": 70, "velocity": 110, "channel": 0}, {"type": "note_on", "time": 87, "note": 72, "velocity": 116, "channel": 0}, {"type": "note_off", "time": 458, "note": 72, "velocity": 116, "channel": 0}, {"type": "note_on", "time": 67, "note": 70, "velocity": 108, "channel": 0}, {"type": "note_off", "time": 397, "note": 70, "velocity": 108, "channel": 0}, {"type": "note_on", "time": 87, "note": 65, "velocity": 117, "channel": 0}, {"type": "note_off", "time": 418, "note": 65, "velocity": 117, "channel": 0}, {"type": "note_on", "time": 101, "note": 60, "velocity": 110, "channel": 0}, {"type": "note_off", "time": 458, "note": 60, "velocity": 110, "channel": 0}, {"type": "note_on", "time": 47, "note": 58, "velocity": 100, "channel": 0}, {"type": "note_off", "time": 890, "note": 58, "velocity": 100, "channel": 0}, {"type": "note_on", "time": 1556, "note": 53, "velocity": 105, "channel": 0}, {"type": "note_off", "time": 341, "note": 53, "velocity": 105, "channel": 0}, {"type": "note_on", "time": 172, "note": 58, "velocity": 106, "channel": 0}, {"type": "note_off", "time": 236, "note": 58, "velocity": 106, "channel": 0}, {"type": "note_on", "time": 87, "note": 61, "velocity": 115, "channel": 0}, {"type": "note_off", "time": 249, "note": 61, "velocity": 115, "channel": 0}, {"type": "note_on", "time": 182, "note": 65, "velocity": 114, "channel": 0}, {"type": "note_off", "time": 357, "note": 65, "velocity": 114, "channel": 0}, {"type": "note_on", "time": 80, "note": 68, "velocity": 116, "channel": 0}, {"type": "note_off", "time": 398, "note": 68, "velocity": 116, "channel": 0}, {"type": "note_on", "time": 108, "note": 72, "velocity": 115, "channel": 0}, {"type": "note_off", "time": 283, "note": 72, "velocity": 115, "channel": 0}, {"type": "note_on", "time": 60, "note": 70, "velocity": 110, "channel": 0}, {"type": "note_off", "time": 303, "note": 70, "velocity": 110, "channel": 0}, {"type": "note_on", "time": 135, "note": 68, "velocity": 117, "channel": 0}, {"type": "note_off", "time": 512, "note": 68, "velocity": 117, "channel": 0}, {"type": "note_on", "time": 127, "note": 65, "velocity": 103, "channel": 0}, {"type": "note_off", "time": 123, "note": 65, "velocity": 103, "channel": 0}, {"type": "note_on", "time": 109, "note": 67, "velocity": 114, "channel": 0}, {"type": "note_off", "time": 569, "note": 67, "velocity": 114, "channel": 0}, {"type": "note_on", "time": 108, "note": 70, "velocity": 109, "channel": 0}, {"type": "note_off", "time": 600, "note": 70, "velocity": 109, "channel": 0}, {"type": "note_on", "time": 26, "note": 68, "velocity": 119, "channel": 0}, {"type": "note_off", "time": 322, "note": 68, "velocity": 119, "channel": 0}, {"type": "note_on", "time": 2180, "note": 62, "velocity": 116, "channel": 0}, {"type": "note_off", "time": 337, "note": 62, "velocity": 116, "channel": 0}, {"type": "note_on", "time": 53, "note": 63, "velocity": 116, "channel": 0}, {"type": "note_off", "time": 276, "note": 63, "velocity": 116, "channel": 0}, {"type": "note_on", "time": 13, "note": 66, "velocity": 101, "channel": 0}, {"type": "note_off", "time": 141, "note": 66, "velocity": 101, "channel": 0}, {"type": "note_on", "time": 47, "note": 70, "velocity": 108, "channel": 0}, {"type": "note_off", "time": 263, "note": 70, "velocity": 108, "channel": 0}, {"type": "note_on", "time": 175, "note": 73, "velocity": 118, "channel": 0}, {"type": "note_off", "time": 350, "note": 73, "velocity": 118, "channel": 0}, {"type": "note_on", "time": 87, "note": 70, "velocity": 101, "channel": 0}, {"type": "note_off", "time": 188, "note": 70, "velocity": 101, "channel": 0}, {"type": "note_on", "time": 60, "note": 72, "velocity": 115, "channel": 0}, {"type": "note_off", "time": 485, "note": 72, "velocity": 115, "channel": 0}, {"type": "note_on", "time": 47, "note": 70, "velocity": 114, "channel": 0}, {"type": "note_off", "time": 263, "note": 70, "velocity": 114, "channel": 0}, {"type": "note_on", "time": 175, "note": 68, "velocity": 117, "channel": 0}, {"type": "note_off", "time": 364, "note": 68, "velocity": 117, "channel": 0}, {"type": "note_on", "time": 53, "note": 65, "velocity": 116, "channel": 0}, {"type": "note_off", "time": 296, "note": 65, "velocity": 116, "channel": 0}, {"type": "note_on", "time": 40, "note": 66, "velocity": 110, "channel": 0}, {"type": "note_off", "time": 284, "note": 66, "velocity": 110, "channel": 0}, {"type": "note_on", "time": 199, "note": 66, "velocity": 115, "channel": 0}, {"type": "note_off", "time": 263, "note": 66, "velocity": 115, "channel": 0}, {"type": "note_on", "time": 87, "note": 65, "velocity": 103, "channel": 0}, {"type": "note_off", "time": 189, "note": 65, "velocity": 103, "channel": 0}, {"type": "note_on", "time": 75, "note": 65, "velocity": 111, "channel": 0}, {"type": "note_off", "time": 265, "note": 65, "velocity": 111, "channel": 0}, {"type": "note_on", "time": 29, "note": 68, "velocity": 115, "channel": 0}, {"type": "note_off", "time": 263, "note": 68, "velocity": 115, "channel": 0}, {"type": "note_on", "time": 87, "note": 70, "velocity": 112, "channel": 0}, {"type": "note_off", "time": 411, "note": 70, "velocity": 112, "channel": 0}, {"type": "note_on", "time": 80, "note": 65, "velocity": 104, "channel": 0}, {"type": "note_off", "time": 303, "note": 65, "velocity": 104, "channel": 0}, {"type": "note_on", "time": 0, "note": 68, "velocity": 112, "channel": 0}, {"type": "note_off", "time": 853, "note": 68, "velocity": 112, "channel": 0}, {"type": "note_on", "time": 16, "note": 70, "velocity": 113, "channel": 0}, {"type": "note_off", "time": 377, "note": 70, "velocity": 113, "channel": 0}, {"type": "note_on", "time": 534, "note": 64, "velocity": 126, "channel": 0}, {"type": "note_off", "time": 455, "note": 64, "velocity": 126, "channel": 0}, {"type": "note_on", "time": 303, "note": 69, "velocity": 113, "channel": 0}, {"type": "note_off", "time": 531, "note": 69, "velocity": 113, "channel": 0}, {"type": "note_on", "time": 372, "note": 67, "velocity": 108, "channel": 0}, {"type": "note_off", "time": 652, "note": 67, "velocity": 108, "channel": 0}, {"type": "note_on", "time": 131, "note": 69, "velocity": 106, "channel": 0}, {"type": "note_off", "time": 377, "note": 69, "velocity": 106, "channel": 0}, {"type": "note_on", "time": 485, "note": 63, "velocity": 120, "channel": 0}, {"type": "note_off", "time": 424, "note": 63, "velocity": 120, "channel": 0}, {"type": "note_on", "time": 438, "note": 68, "velocity": 115, "channel": 0}, {"type": "note_off", "time": 626, "note": 68, "velocity": 115, "channel": 0}, {"type": "note_on", "time": 246, "note": 66, "velocity": 108, "channel": 0}, {"type": "note_off", "time": 739, "note": 66, "velocity": 108, "channel": 0}, {"type": "note_on", "time": 151, "note": 68, "velocity": 114, "channel": 0}, {"type": "note_off", "time": 455, "note": 68, "velocity": 114, "channel": 0}, {"type": "note_on", "time": 56, "note": 62, "velocity": 113, "channel": 0}, {"type": "note_off", "time": 569, "note": 62, "velocity": 113, "channel": 0}, {"type": "note_on", "time": 290, "note": 67, "velocity": 113, "channel": 0}, {"type": "note_off", "time": 777, "note": 67, "velocity": 113, "channel": 0}, {"type": "note_on", "time": 28, "note": 65, "velocity": 106, "channel": 0}, {"type": "note_off", "time": 189, "note": 65, "velocity": 106, "channel": 0}, {"type": "note_on", "time": 193, "note": 65, "velocity": 101, "channel": 0}, {"type": "note_off", "time": 1536, "note": 65, "velocity": 101, "channel": 0}, {"type": "note_on", "time": 451, "note": 58, "velocity": 106, "channel": 0}, {"type": "note_off", "time": 431, "note": 58, "velocity": 106, "channel": 0}, {"type": "note_on", "time": 40, "note": 61, "velocity": 108, "channel": 0}, {"type": "note_off", "time": 276, "note": 61, "velocity": 108, "channel": 0}, {"type": "note_on", "time": 0, "note": 65, "velocity": 96, "channel": 0}, {"type": "note_off", "time": 134, "note": 65, "velocity": 96, "channel": 0}, {"type": "note_on", "time": 26, "note": 68, "velocity": 115, "channel": 0}, {"type": "note_off", "time": 222, "note": 68, "velocity": 115, "channel": 0}, {"type": "note_on", "time": 217, "note": 72, "velocity": 116, "channel": 0}, {"type": "note_off", "time": 341, "note": 72, "velocity": 116, "channel": 0}, {"type": "note_on", "time": 18, "note": 73, "velocity": 114, "channel": 0}, {"type": "note_off", "time": 379, "note": 73, "velocity": 114, "channel": 0}, {"type": "note_on", "time": 60, "note": 69, "velocity": 109, "channel": 0}, {"type": "note_off", "time": 357, "note": 69, "velocity": 109, "channel": 0}, {"type": "note_on", "time": 53, "note": 72, "velocity": 117, "channel": 0}, {"type": "note_off", "time": 283, "note": 72, "velocity": 117, "channel": 0}, {"type": "note_on", "time": 40, "note": 70, "velocity": 107, "channel": 0}, {"type": "note_off", "time": 377, "note": 70, "velocity": 107, "channel": 0}, {"type": "note_on", "time": 97, "note": 65, "velocity": 96, "channel": 0}, {"type": "note_off", "time": 322, "note": 65, "velocity": 96, "channel": 0}, {"type": "note_on", "time": 113, "note": 68, "velocity": 117, "channel": 0}, {"type": "note_off", "time": 341, "note": 68, "velocity": 117, "channel": 0}, {"type": "note_on", "time": 75, "note": 70, "velocity": 109, "channel": 0}, {"type": "note_off", "time": 206, "note": 70, "velocity": 109, "channel": 0}, {"type": "note_on", "time": 0, "note": 68, "velocity": 113, "channel": 0}, {"type": "note_off", "time": 265, "note": 68, "velocity": 113, "channel": 0}, {"type": "note_on", "time": 74, "note": 67, "velocity": 110, "channel": 0}, {"type": "note_off", "time": 283, "note": 67, "velocity": 110, "channel": 0}, {"type": "note_on", "time": 24, "note": 65, "velocity": 111, "channel": 0}, {"type": "note_off", "time": 474, "note": 65, "velocity": 111, "channel": 0}, {"type": "note_on", "time": 68, "note": 63, "velocity": 120, "channel": 0}, {"type": "note_off", "time": 337, "note": 63, "velocity": 120, "channel": 0}, {"type": "note_on", "time": 33, "note": 61, "velocity": 118, "channel": 0}, {"type": "note_off", "time": 303, "note": 61, "velocity": 118, "channel": 0}, {"type": "note_on", "time": 168, "note": 60, "velocity": 111, "channel": 0}, {"type": "note_off", "time": 337, "note": 60, "velocity": 111, "channel": 0}, {"type": "note_on", "time": 26, "note": 58, "velocity": 106, "channel": 0}, {"type": "note_off", "time": 377, "note": 58, "velocity": 106, "channel": 0}, {"type": "note_on", "time": 20, "note": 56, "velocity": 108, "channel": 0}, {"type": "note_off", "time": 404, "note": 56, "velocity": 108, "channel": 0}, {"type": "note_on", "time": 27, "note": 55, "velocity": 109, "channel": 0}, {"type": "note_off", "time": 322, "note": 55, "velocity": 109, "channel": 0}, {"type": "note_on", "time": 37, "note": 54, "velocity": 102, "channel": 0}, {"type": "note_off", "time": 531, "note": 54, "velocity": 102, "channel": 0}, {"type": "note_on", "time": 1489, "note": 54, "velocity": 106, "channel": 0}, {"type": "note_off", "time": 148, "note": 54, "velocity": 106, "channel": 0}, {"type": "note_on", "time": 20, "note": 58, "velocity": 102, "channel": 0}, {"type": "note_off", "time": 94, "note": 58, "velocity": 102, "channel": 0}, {"type": "note_on", "time": 53, "note": 61, "velocity": 112, "channel": 0}, {"type": "note_off", "time": 94, "note": 61, "velocity": 112, "channel": 0}, {"type": "note_on", "time": 26, "note": 65, "velocity": 109, "channel": 0}, {"type": "note_off", "time": 215, "note": 65, "velocity": 109, "channel": 0}, {"type": "note_on", "time": 175, "note": 63, "velocity": 107, "channel": 0}, {"type": "note_off", "time": 168, "note": 63, "velocity": 107, "channel": 0}, {"type": "note_on", "time": 67, "note": 68, "velocity": 109, "channel": 0}, {"type": "note_off", "time": 377, "note": 68, "velocity": 109, "channel": 0}, {"type": "note_on", "time": 102, "note": 66, "velocity": 105, "channel": 0}, {"type": "note_off", "time": 206, "note": 66, "velocity": 105, "channel": 0}, {"type": "note_on", "time": 0, "note": 69, "velocity": 105, "channel": 0}, {"type": "note_off", "time": 113, "note": 69, "velocity": 105, "channel": 0}, {"type": "note_on", "time": 13, "note": 71, "velocity": 115, "channel": 0}, {"type": "note_off", "time": 698, "note": 71, "velocity": 115, "channel": 0}, {"type": "note_on", "time": 49, "note": 69, "velocity": 114, "channel": 0}, {"type": "note_off", "time": 455, "note": 69, "velocity": 114, "channel": 0}, {"type": "note_on", "time": 56, "note": 68, "velocity": 110, "channel": 0}, {"type": "note_off", "time": 853, "note": 68, "velocity": 110, "channel": 0}, {"type": "note_on", "time": 991, "note": 64, "velocity": 110, "channel": 0}, {"type": "note_off", "time": 236, "note": 64, "velocity": 110, "channel": 0}, {"type": "note_on", "time": 26, "note": 65, "velocity": 103, "channel": 0}, {"type": "note_off", "time": 94, "note": 65, "velocity": 103, "channel": 0}, {"type": "note_on", "time": 13, "note": 70, "velocity": 99, "channel": 0}, {"type": "note_off", "time": 242, "note": 70, "velocity": 99, "channel": 0}, {"type": "note_on", "time": 53, "note": 69, "velocity": 112, "channel": 0}, {"type": "note_off", "time": 222, "note": 69, "velocity": 112, "channel": 0}, {"type": "note_on", "time": 72, "note": 68, "velocity": 116, "channel": 0}, {"type": "note_off", "time": 872, "note": 68, "velocity": 116, "channel": 0}, {"type": "note_on", "time": 32, "note": 70, "velocity": 106, "channel": 0}, {"type": "note_off", "time": 249, "note": 70, "velocity": 106, "channel": 0}, {"type": "note_on", "time": 33, "note": 69, "velocity": 111, "channel": 0}, {"type": "note_off", "time": 195, "note": 69, "velocity": 111, "channel": 0}, {"type": "note_on", "time": 26, "note": 68, "velocity": 114, "channel": 0}, {"type": "note_off", "time": 445, "note": 68, "velocity": 114, "channel": 0}, {"type": "note_on", "time": 60, "note": 70, "velocity": 106, "channel": 0}, {"type": "note_off", "time": 222, "note": 70, "velocity": 106, "channel": 0}, {"type": "note_on", "time": 40, "note": 69, "velocity": 111, "channel": 0}, {"type": "note_off", "time": 256, "note": 69, "velocity": 111, "channel": 0}, {"type": "note_on", "time": 47, "note": 68, "velocity": 106, "channel": 0}, {"type": "note_off", "time": 789, "note": 68, "velocity": 106, "channel": 0}, {"type": "note_on", "time": 46, "note": 66, "velocity": 107, "channel": 0}, {"type": "note_off", "time": 113, "note": 66, "velocity": 107, "channel": 0}, {"type": "note_on", "time": 18, "note": 65, "velocity": 113, "channel": 0}, {"type": "note_off", "time": 360, "note": 65, "velocity": 113, "channel": 0}, {"type": "note_on", "time": 75, "note": 61, "velocity": 114, "channel": 0}, {"type": "note_off", "time": 208, "note": 61, "velocity": 114, "channel": 0}, {"type": "note_on", "time": 0, "note": 58, "velocity": 109, "channel": 0}, {"type": "note_off", "time": 303, "note": 58, "velocity": 109, "channel": 0}, {"type": "note_on", "time": 0, "note": 57, "velocity": 111, "channel": 0}, {"type": "note_off", "time": 208, "note": 57, "velocity": 111, "channel": 0}, {"type": "note_on", "time": 37, "note": 56, "velocity": 109, "channel": 0}, {"type": "note_off", "time": 417, "note": 56, "velocity": 109, "channel": 0}, {"type": "note_on", "time": 18, "note": 54, "velocity": 110, "channel": 0}, {"type": "note_off", "time": 246, "note": 54, "velocity": 110, "channel": 0}, {"type": "note_on", "time": 37, "note": 53, "velocity": 107, "channel": 0}, {"type": "note_off", "time": 337, "note": 53, "velocity": 107, "channel": 0}, {"type": "note_on", "time": 0, "note": 55, "velocity": 103, "channel": 0}, {"type": "note_off", "time": 86, "note": 55, "velocity": 103, "channel": 0}, {"type": "note_on", "time": 40, "note": 57, "velocity": 107, "channel": 0}, {"type": "note_off", "time": 86, "note": 57, "velocity": 107, "channel": 0}, {"type": "note_on", "time": 18, "note": 58, "velocity": 105, "channel": 0}, {"type": "note_off", "time": 94, "note": 58, "velocity": 105, "channel": 0}, {"type": "note_on", "time": 7, "note": 61, "velocity": 103, "channel": 0}, {"type": "note_off", "time": 65, "note": 61, "velocity": 103, "channel": 0}, {"type": "note_on", "time": 20, "note": 63, "velocity": 120, "channel": 0}, {"type": "note_off", "time": 202, "note": 63, "velocity": 120, "channel": 0}, {"type": "note_on", "time": 7, "note": 60, "velocity": 111, "channel": 0}, {"type": "note_off", "time": 170, "note": 60, "velocity": 111, "channel": 0}, {"type": "note_on", "time": 56, "note": 61, "velocity": 108, "channel": 0}, {"type": "note_off", "time": 227, "note": 61, "velocity": 108, "channel": 0}, {"type": "note_on", "time": 18, "note": 63, "velocity": 114, "channel": 0}, {"type": "note_off", "time": 246, "note": 63, "velocity": 114, "channel": 0}, {"type": "note_on", "time": 18, "note": 64, "velocity": 116, "channel": 0}, {"type": "note_off", "time": 208, "note": 64, "velocity": 116, "channel": 0}, {"type": "note_on", "time": 0, "note": 66, "velocity": 110, "channel": 0}, {"type": "note_off", "time": 189, "note": 66, "velocity": 110, "channel": 0}, {"type": "note_on", "time": 0, "note": 68, "velocity": 102, "channel": 0}, {"type": "note_off", "time": 227, "note": 68, "velocity": 102, "channel": 0}, {"type": "note_on", "time": 0, "note": 70, "velocity": 102, "channel": 0}, {"type": "note_off", "time": 170, "note": 70, "velocity": 102, "channel": 0}, {"type": "note_on", "time": 0, "note": 75, "velocity": 111, "channel": 0}, {"type": "note_off", "time": 531, "note": 75, "velocity": 111, "channel": 0}, {"type": "note_on", "time": 13, "note": 73, "velocity": 114, "channel": 0}, {"type": "note_off", "time": 389, "note": 73, "velocity": 114, "channel": 0}, {"type": "note_on", "time": 35, "note": 68, "velocity": 117, "channel": 0}, {"type": "note_off", "time": 460, "note": 68, "velocity": 117, "channel": 0}, {"type": "note_on", "time": 11, "note": 64, "velocity": 119, "channel": 0}, {"type": "note_off", "time": 417, "note": 64, "velocity": 119, "channel": 0}, {"type": "note_on", "time": 37, "note": 63, "velocity": 116, "channel": 0}, {"type": "note_off", "time": 436, "note": 63, "velocity": 116, "channel": 0}, {"type": "note_on", "time": 0, "note": 61, "velocity": 114, "channel": 0}, {"type": "note_off", "time": 303, "note": 61, "velocity": 114, "channel": 0}, {"type": "note_on", "time": 47, "note": 60, "velocity": 114, "channel": 0}, {"type": "note_off", "time": 388, "note": 60, "velocity": 114, "channel": 0}, {"type": "note_on", "time": 1498, "note": 63, "velocity": 116, "channel": 0}, {"type": "note_off", "time": 436, "note": 63, "velocity": 116, "channel": 0}, {"type": "note_on", "time": 0, "note": 68, "velocity": 110, "channel": 0}, {"type": "note_off", "time": 388, "note": 68, "velocity": 110, "channel": 0}, {"type": "note_on", "time": 180, "note": 72, "velocity": 115, "channel": 0}, {"type": "note_off", "time": 360, "note": 72, "velocity": 115, "channel": 0}, {"type": "note_on", "time": 227, "note": 72, "velocity": 120, "channel": 0}, {"type": "note_off", "time": 170, "note": 72, "velocity": 120, "channel": 0}, {"type": "note_on", "time": 18, "note": 73, "velocity": 115, "channel": 0}, {"type": "note_off", "time": 284, "note": 73, "velocity": 115, "channel": 0}, {"type": "note_on", "time": 18, "note": 72, "velocity": 112, "channel": 0}, {"type": "note_off", "time": 246, "note": 72, "velocity": 112, "channel": 0}, {"type": "note_on", "time": 94, "note": 68, "velocity": 113, "channel": 0}, {"type": "note_off", "time": 417, "note": 68, "velocity": 113, "channel": 0}, {"type": "note_on", "time": 0, "note": 63, "velocity": 121, "channel": 0}, {"type": "note_off", "time": 398, "note": 63, "velocity": 121, "channel": 0}, {"type": "note_on", "time": 18, "note": 61, "velocity": 112, "channel": 0}, {"type": "note_off", "time": 227, "note": 61, "velocity": 112, "channel": 0}, {"type": "note_on", "time": 25, "note": 63, "velocity": 118, "channel": 0}, {"type": "note_off", "time": 183, "note": 63, "velocity": 118, "channel": 0}, {"type": "note_on", "time": 0, "note": 60, "velocity": 112, "channel": 0}, {"type": "note_off", "time": 607, "note": 60, "velocity": 112, "channel": 0}, {"type": "note_on", "time": 1754, "note": 73, "velocity": 100, "channel": 0}, {"type": "note_off", "time": 208, "note": 73, "velocity": 100, "channel": 0}, {"type": "note_on", "time": 9, "note": 71, "velocity": 119, "channel": 0}, {"type": "note_off", "time": 142, "note": 71, "velocity": 119, "channel": 0}, {"type": "note_on", "time": 47, "note": 70, "velocity": 110, "channel": 0}, {"type": "note_off", "time": 1157, "note": 70, "velocity": 110, "channel": 0}, {"type": "note_on", "time": 75, "note": 68, "velocity": 116, "channel": 0}, {"type": "note_off", "time": 332, "note": 68, "velocity": 116, "channel": 0}, {"type": "note_on", "time": 47, "note": 67, "velocity": 113, "channel": 0}, {"type": "note_off", "time": 493, "note": 67, "velocity": 113, "channel": 0}, {"type": "note_on", "time": 18, "note": 66, "velocity": 108, "channel": 0}, {"type": "note_off", "time": 161, "note": 66, "velocity": 108, "channel": 0}, {"type": "note_on", "time": 28, "note": 65, "velocity": 112, "channel": 0}, {"type": "note_off", "time": 180, "note": 65, "velocity": 112, "channel": 0}, {"type": "note_on", "time": 37, "note": 64, "velocity": 119, "channel": 0}, {"type": "note_off", "time": 388, "note": 64, "velocity": 119, "channel": 0}, {"type": "note_on", "time": 66, "note": 61, "velocity": 117, "channel": 0}, {"type": "note_off", "time": 350, "note": 61, "velocity": 117, "channel": 0}, {"type": "note_on", "time": 75, "note": 60, "velocity": 114, "channel": 0}, {"type": "note_off", "time": 417, "note": 60, "velocity": 114, "channel": 0}, {"type": "note_on", "time": 47, "note": 58, "velocity": 114, "channel": 0}, {"type": "note_off", "time": 237, "note": 58, "velocity": 114, "channel": 0}, {"type": "note_on", "time": 56, "note": 56, "velocity": 113, "channel": 0}, {"type": "note_off", "time": 436, "note": 56, "velocity": 113, "channel": 0}, {"type": "note_on", "time": 75, "note": 54, "velocity": 109, "channel": 0}, {"type": "note_off", "time": 322, "note": 54, "velocity": 109, "channel": 0}, {"type": "note_on", "time": 21, "note": 53, "velocity": 103, "channel": 0}, {"type": "note_off", "time": 611, "note": 53, "velocity": 103, "channel": 0}, {"type": "note_on", "time": 429, "note": 58, "velocity": 104, "channel": 0}, {"type": "note_off", "time": 189, "note": 58, "velocity": 104, "channel": 0}, {"type": "note_on", "time": 18, "note": 60, "velocity": 99, "channel": 0}, {"type": "note_off", "time": 121, "note": 60, "velocity": 99, "channel": 0}, {"type": "note_on", "time": 11, "note": 63, "velocity": 118, "channel": 0}, {"type": "note_off", "time": 284, "note": 63, "velocity": 118, "channel": 0}, {"type": "note_on", "time": 75, "note": 61, "velocity": 108, "channel": 0}, {"type": "note_off", "time": 208, "note": 61, "velocity": 108, "channel": 0}, {"type": "note_on", "time": 0, "note": 63, "velocity": 111, "channel": 0}, {"type": "note_off", "time": 265, "note": 63, "velocity": 111, "channel": 0}, {"type": "note_on", "time": 39, "note": 65, "velocity": 105, "channel": 0}, {"type": "note_off", "time": 116, "note": 65, "velocity": 105, "channel": 0}, {"type": "note_on", "time": 15, "note": 68, "velocity": 114, "channel": 0}, {"type": "note_off", "time": 398, "note": 68, "velocity": 114, "channel": 0}, {"type": "note_on", "time": 18, "note": 65, "velocity": 107, "channel": 0}, {"type": "note_off", "time": 322, "note": 65, "velocity": 107, "channel": 0}, {"type": "note_on", "time": 56, "note": 65, "velocity": 118, "channel": 0}, {"type": "note_off", "time": 170, "note": 65, "velocity": 118, "channel": 0}, {"type": "note_on", "time": 56, "note": 67, "velocity": 114, "channel": 0}, {"type": "note_off", "time": 436, "note": 67, "velocity": 114, "channel": 0}, {"type": "note_on", "time": 47, "note": 62, "velocity": 117, "channel": 0}, {"type": "note_off", "time": 227, "note": 62, "velocity": 117, "channel": 0}, {"type": "note_on", "time": 85, "note": 58, "velocity": 103, "channel": 0}, {"type": "note_off", "time": 161, "note": 58, "velocity": 103, "channel": 0}, {"type": "note_on", "time": 85, "note": 66, "velocity": 111, "channel": 0}, {"type": "note_off", "time": 246, "note": 66, "velocity": 111, "channel": 0}, {"type": "note_on", "time": 47, "note": 62, "velocity": 111, "channel": 0}, {"type": "note_off", "time": 132, "note": 62, "velocity": 111, "channel": 0}, {"type": "note_on", "time": 66, "note": 58, "velocity": 105, "channel": 0}, {"type": "note_off", "time": 94, "note": 58, "velocity": 105, "channel": 0}, {"type": "note_on", "time": 85, "note": 65, "velocity": 111, "channel": 0}, {"type": "note_off", "time": 275, "note": 65, "velocity": 111, "channel": 0}, {"type": "note_on", "time": 47, "note": 62, "velocity": 108, "channel": 0}, {"type": "note_off", "time": 256, "note": 62, "velocity": 108, "channel": 0}, {"type": "note_on", "time": 199, "note": 64, "velocity": 118, "channel": 0}, {"type": "note_off", "time": 521, "note": 64, "velocity": 118, "channel": 0}, {"type": "note_on", "time": 754, "note": 58, "velocity": 106, "channel": 0}, {"type": "note_off", "time": 151, "note": 58, "velocity": 106, "channel": 0}, {"type": "note_on", "time": 23, "note": 61, "velocity": 101, "channel": 0}, {"type": "note_off", "time": 170, "note": 61, "velocity": 101, "channel": 0}, {"type": "note_on", "time": 75, "note": 68, "velocity": 118, "channel": 0}, {"type": "note_off", "time": 265, "note": 68, "velocity": 118, "channel": 0}, {"type": "note_on", "time": 85, "note": 71, "velocity": 117, "channel": 0}, {"type": "note_off", "time": 246, "note": 71, "velocity": 117, "channel": 0}, {"type": "note_on", "time": 47, "note": 69, "velocity": 110, "channel": 0}, {"type": "note_off", "time": 294, "note": 69, "velocity": 110, "channel": 0}, {"type": "note_on", "time": 94, "note": 61, "velocity": 107, "channel": 0}, {"type": "note_off", "time": 170, "note": 61, "velocity": 107, "channel": 0}, {"type": "note_on", "time": 42, "note": 64, "velocity": 105, "channel": 0}, {"type": "note_off", "time": 128, "note": 64, "velocity": 105, "channel": 0}, {"type": "note_on", "time": 4, "note": 68, "velocity": 114, "channel": 0}, {"type": "note_off", "time": 289, "note": 68, "velocity": 114, "channel": 0}, {"type": "note_on", "time": 56, "note": 66, "velocity": 110, "channel": 0}, {"type": "note_off", "time": 313, "note": 66, "velocity": 110, "channel": 0}, {"type": "note_on", "time": 905, "note": 68, "velocity": 83, "channel": 0}, {"type": "note_off", "time": 104, "note": 68, "velocity": 83, "channel": 0}, {"type": "note_on", "time": 37, "note": 70, "velocity": 111, "channel": 0}, {"type": "note_off", "time": 564, "note": 70, "velocity": 111, "channel": 0}, {"type": "note_on", "time": 23, "note": 69, "velocity": 112, "channel": 0}, {"type": "note_off", "time": 189, "note": 69, "velocity": 112, "channel": 0}, {"type": "note_on", "time": 23, "note": 68, "velocity": 120, "channel": 0}, {"type": "note_off", "time": 203, "note": 68, "velocity": 120, "channel": 0}, {"type": "note_on", "time": 49, "note": 67, "velocity": 111, "channel": 0}, {"type": "note_off", "time": 155, "note": 67, "velocity": 111, "channel": 0}, {"type": "note_on", "time": 26, "note": 65, "velocity": 114, "channel": 0}, {"type": "note_off", "time": 215, "note": 65, "velocity": 114, "channel": 0}, {"type": "note_on", "time": 20, "note": 63, "velocity": 122, "channel": 0}, {"type": "note_off", "time": 263, "note": 63, "velocity": 122, "channel": 0}, {"type": "note_on", "time": 53, "note": 62, "velocity": 118, "channel": 0}, {"type": "note_off", "time": 182, "note": 62, "velocity": 118, "channel": 0}, {"type": "note_on", "time": 33, "note": 60, "velocity": 110, "channel": 0}, {"type": "note_off", "time": 195, "note": 60, "velocity": 110, "channel": 0}, {"type": "note_on", "time": 47, "note": 59, "velocity": 108, "channel": 0}, {"type": "note_off", "time": 148, "note": 59, "velocity": 108, "channel": 0}, {"type": "note_on", "time": 26, "note": 57, "velocity": 108, "channel": 0}, {"type": "note_off", "time": 155, "note": 57, "velocity": 108, "channel": 0}, {"type": "note_on", "time": 60, "note": 58, "velocity": 108, "channel": 0}, {"type": "note_off", "time": 175, "note": 58, "velocity": 108, "channel": 0}, {"type": "note_on", "time": 87, "note": 60, "velocity": 109, "channel": 0}, {"type": "note_off", "time": 175, "note": 60, "velocity": 109, "channel": 0}, {"type": "note_on", "time": 20, "note": 61, "velocity": 107, "channel": 0}, {"type": "note_off", "time": 134, "note": 61, "velocity": 107, "channel": 0}, {"type": "note_on", "time": 62, "note": 63, "velocity": 111, "channel": 0}, {"type": "note_off", "time": 106, "note": 63, "velocity": 111, "channel": 0}, {"type": "note_on", "time": 0, "note": 65, "velocity": 111, "channel": 0}, {"type": "note_off", "time": 121, "note": 65, "velocity": 111, "channel": 0}, {"type": "note_on", "time": 10, "note": 68, "velocity": 116, "channel": 0}, {"type": "note_off", "time": 284, "note": 68, "velocity": 116, "channel": 0}, {"type": "note_on", "time": 37, "note": 67, "velocity": 113, "channel": 0}, {"type": "note_off", "time": 227, "note": 67, "velocity": 113, "channel": 0}, {"type": "note_on", "time": 13, "note": 65, "velocity": 111, "channel": 0}, {"type": "note_off", "time": 168, "note": 65, "velocity": 111, "channel": 0}, {"type": "note_on", "time": 64, "note": 63, "velocity": 119, "channel": 0}, {"type": "note_off", "time": 151, "note": 63, "velocity": 119, "channel": 0}, {"type": "note_on", "time": 94, "note": 62, "velocity": 115, "channel": 0}, {"type": "note_off", "time": 208, "note": 62, "velocity": 115, "channel": 0}, {"type": "note_on", "time": 37, "note": 61, "velocity": 103, "channel": 0}, {"type": "note_off", "time": 121, "note": 61, "velocity": 103, "channel": 0}, {"type": "note_on", "time": 11, "note": 63, "velocity": 110, "channel": 0}, {"type": "note_off", "time": 151, "note": 63, "velocity": 110, "channel": 0}, {"type": "note_on", "time": 132, "note": 72, "velocity": 117, "channel": 0}, {"type": "note_off", "time": 417, "note": 72, "velocity": 117, "channel": 0}, {"type": "note_on", "time": 2020, "note": 73, "velocity": 108, "channel": 0}, {"type": "note_off", "time": 418, "note": 73, "velocity": 108, "channel": 0}, {"type": "note_on", "time": 161, "note": 68, "velocity": 111, "channel": 0}, {"type": "note_off", "time": 215, "note": 68, "velocity": 111, "channel": 0}, {"type": "note_on", "time": 48, "note": 63, "velocity": 113, "channel": 0}, {"type": "note_off", "time": 218, "note": 63, "velocity": 113, "channel": 0}, {"type": "note_on", "time": 23, "note": 62, "velocity": 119, "channel": 0}, {"type": "note_off", "time": 236, "note": 62, "velocity": 119, "channel": 0}, {"type": "note_on", "time": 40, "note": 61, "velocity": 110, "channel": 0}, {"type": "note_off", "time": 276, "note": 61, "velocity": 110, "channel": 0}, {"type": "note_on", "time": 68, "note": 58, "velocity": 98, "channel": 0}, {"type": "note_off", "time": 142, "note": 58, "velocity": 98, "channel": 0}, {"type": "note_on", "time": 104, "note": 60, "velocity": 106, "channel": 0}, {"type": "note_off", "time": 654, "note": 60, "velocity": 106, "channel": 0}, {"type": "note_on", "time": 104, "note": 68, "velocity": 100, "channel": 0}, {"type": "note_off", "time": 1546, "note": 68, "velocity": 100, "channel": 0}, {"type": "note_on", "time": 1710, "note": 73, "velocity": 115, "channel": 0}, {"type": "note_off", "time": 364, "note": 73, "velocity": 115, "channel": 0}, {"type": "note_on", "time": 69, "note": 72, "velocity": 117, "channel": 0}, {"type": "note_off", "time": 151, "note": 72, "velocity": 117, "channel": 0}, {"type": "note_on", "time": 42, "note": 71, "velocity": 118, "channel": 0}, {"type": "note_off", "time": 107, "note": 71, "velocity": 118, "channel": 0}, {"type": "note_on", "time": 40, "note": 68, "velocity": 115, "channel": 0}, {"type": "note_off", "time": 370, "note": 68, "velocity": 115, "channel": 0}, {"type": "note_on", "time": 73, "note": 73, "velocity": 117, "channel": 0}, {"type": "note_off", "time": 388, "note": 73, "velocity": 117, "channel": 0}, {"type": "note_on", "time": 69, "note": 72, "velocity": 114, "channel": 0}, {"type": "note_off", "time": 155, "note": 72, "velocity": 114, "channel": 0}, {"type": "note_on", "time": 30, "note": 68, "velocity": 107, "channel": 0}, {"type": "note_off", "time": 455, "note": 68, "velocity": 107, "channel": 0}, {"type": "note_on", "time": 0, "note": 73, "velocity": 113, "channel": 0}, {"type": "note_off", "time": 360, "note": 73, "velocity": 113, "channel": 0}, {"type": "note_on", "time": 50, "note": 72, "velocity": 114, "channel": 0}, {"type": "note_off", "time": 168, "note": 72, "velocity": 114, "channel": 0}, {"type": "note_on", "time": 46, "note": 68, "velocity": 110, "channel": 0}, {"type": "note_off", "time": 379, "note": 68, "velocity": 110, "channel": 0}, {"type": "note_on", "time": 0, "note": 73, "velocity": 115, "channel": 0}, {"type": "note_off", "time": 369, "note": 73, "velocity": 115, "channel": 0}, {"type": "note_on", "time": 28, "note": 72, "velocity": 115, "channel": 0}, {"type": "note_off", "time": 180, "note": 72, "velocity": 115, "channel": 0}, {"type": "note_on", "time": 13, "note": 68, "velocity": 118, "channel": 0}, {"type": "note_off", "time": 802, "note": 68, "velocity": 118, "channel": 0}, {"type": "note_on", "time": 27, "note": 73, "velocity": 113, "channel": 0}, {"type": "note_off", "time": 512, "note": 73, "velocity": 113, "channel": 0}, {"type": "note_on", "time": 26, "note": 72, "velocity": 108, "channel": 0}, {"type": "note_off", "time": 107, "note": 72, "velocity": 108, "channel": 0}, {"type": "note_on", "time": 83, "note": 68, "velocity": 109, "channel": 0}, {"type": "note_off", "time": 445, "note": 68, "velocity": 109, "channel": 0}, {"type": "note_on", "time": 66, "note": 73, "velocity": 111, "channel": 0}, {"type": "note_off", "time": 246, "note": 73, "velocity": 111, "channel": 0}, {"type": "note_on", "time": 18, "note": 72, "velocity": 116, "channel": 0}, {"type": "note_off", "time": 313, "note": 72, "velocity": 116, "channel": 0}, {"type": "note_on", "time": 0, "note": 67, "velocity": 107, "channel": 0}, {"type": "note_off", "time": 1043, "note": 67, "velocity": 107, "channel": 0}, {"type": "note_on", "time": 2238, "note": 73, "velocity": 109, "channel": 0}, {"type": "note_off", "time": 132, "note": 73, "velocity": 109, "channel": 0}, {"type": "note_on", "time": 9, "note": 72, "velocity": 115, "channel": 0}, {"type": "note_off", "time": 113, "note": 72, "velocity": 115, "channel": 0}, {"type": "note_on", "time": 28, "note": 71, "velocity": 116, "channel": 0}, {"type": "note_off", "time": 189, "note": 71, "velocity": 116, "channel": 0}, {"type": "note_on", "time": 142, "note": 68, "velocity": 111, "channel": 0}, {"type": "note_off", "time": 284, "note": 68, "velocity": 111, "channel": 0}, {"type": "note_on", "time": 9, "note": 67, "velocity": 111, "channel": 0}, {"type": "note_off", "time": 123, "note": 67, "velocity": 111, "channel": 0}, {"type": "note_on", "time": 20, "note": 66, "velocity": 114, "channel": 0}, {"type": "note_off", "time": 222, "note": 66, "velocity": 114, "channel": 0}, {"type": "note_on", "time": 155, "note": 61, "velocity": 114, "channel": 0}, {"type": "note_off", "time": 341, "note": 61, "velocity": 114, "channel": 0}, {"type": "note_on", "time": 17, "note": 60, "velocity": 116, "channel": 0}, {"type": "note_off", "time": 177, "note": 60, "velocity": 116, "channel": 0}, {"type": "note_on", "time": 13, "note": 59, "velocity": 105, "channel": 0}, {"type": "note_off", "time": 360, "note": 59, "velocity": 105, "channel": 0}, {"type": "note_on", "time": 901, "note": 71, "velocity": 113, "channel": 0}, {"type": "note_off", "time": 104, "note": 71, "velocity": 113, "channel": 0}, {"type": "note_on", "time": 28, "note": 72, "velocity": 117, "channel": 0}, {"type": "note_off", "time": 730, "note": 72, "velocity": 117, "channel": 0}, {"type": "note_on", "time": 90, "note": 70, "velocity": 108, "channel": 0}, {"type": "note_off", "time": 195, "note": 70, "velocity": 108, "channel": 0}, {"type": "note_on", "time": 36, "note": 69, "velocity": 109, "channel": 0}, {"type": "note_off", "time": 132, "note": 69, "velocity": 109, "channel": 0}, {"type": "note_on", "time": 9, "note": 68, "velocity": 114, "channel": 0}, {"type": "note_off", "time": 256, "note": 68, "velocity": 114, "channel": 0}, {"type": "note_on", "time": 18, "note": 67, "velocity": 112, "channel": 0}, {"type": "note_off", "time": 151, "note": 67, "velocity": 112, "channel": 0}, {"type": "note_on", "time": 8, "note": 65, "velocity": 116, "channel": 0}, {"type": "note_off", "time": 161, "note": 65, "velocity": 116, "channel": 0}, {"type": "note_on", "time": 38, "note": 63, "velocity": 114, "channel": 0}, {"type": "note_off", "time": 189, "note": 63, "velocity": 114, "channel": 0}, {"type": "note_on", "time": 8, "note": 62, "velocity": 116, "channel": 0}, {"type": "note_off", "time": 182, "note": 62, "velocity": 116, "channel": 0}, {"type": "note_on", "time": 13, "note": 60, "velocity": 111, "channel": 0}, {"type": "note_off", "time": 175, "note": 60, "velocity": 111, "channel": 0}, {"type": "note_on", "time": 14, "note": 59, "velocity": 106, "channel": 0}, {"type": "note_off", "time": 180, "note": 59, "velocity": 106, "channel": 0}, {"type": "note_on", "time": 23, "note": 56, "velocity": 106, "channel": 0}, {"type": "note_off", "time": 109, "note": 56, "velocity": 106, "channel": 0}, {"type": "note_on", "time": 47, "note": 58, "velocity": 104, "channel": 0}, {"type": "note_off", "time": 208, "note": 58, "velocity": 104, "channel": 0}, {"type": "note_on", "time": 80, "note": 60, "velocity": 104, "channel": 0}, {"type": "note_off", "time": 132, "note": 60, "velocity": 104, "channel": 0}, {"type": "note_on", "time": 33, "note": 61, "velocity": 102, "channel": 0}, {"type": "note_off", "time": 147, "note": 61, "velocity": 102, "channel": 0}, {"type": "note_on", "time": 14, "note": 63, "velocity": 97, "channel": 0}, {"type": "note_off", "time": 75, "note": 63, "velocity": 97, "channel": 0}, {"type": "note_on", "time": 33, "note": 65, "velocity": 104, "channel": 0}, {"type": "note_off", "time": 175, "note": 65, "velocity": 104, "channel": 0}, {"type": "note_on", "time": 61, "note": 68, "velocity": 112, "channel": 0}, {"type": "note_off", "time": 199, "note": 68, "velocity": 112, "channel": 0}, {"type": "note_on", "time": 9, "note": 67, "velocity": 106, "channel": 0}, {"type": "note_off", "time": 237, "note": 67, "velocity": 106, "channel": 0}, {"type": "note_on", "time": 18, "note": 65, "velocity": 107, "channel": 0}, {"type": "note_off", "time": 246, "note": 65, "velocity": 107, "channel": 0}, {"type": "note_on", "time": 18, "note": 63, "velocity": 114, "channel": 0}, {"type": "note_off", "time": 199, "note": 63, "velocity": 114, "channel": 0}, {"type": "note_on", "time": 28, "note": 62, "velocity": 106, "channel": 0}, {"type": "note_off", "time": 180, "note": 62, "velocity": 106, "channel": 0}, {"type": "note_on", "time": 66, "note": 61, "velocity": 105, "channel": 0}, {"type": "note_off", "time": 227, "note": 61, "velocity": 105, "channel": 0}, {"type": "note_on", "time": 9, "note": 63, "velocity": 109, "channel": 0}, {"type": "note_off", "time": 199, "note": 63, "velocity": 109, "channel": 0}, {"type": "note_on", "time": 33, "note": 65, "velocity": 98, "channel": 0}, {"type": "note_off", "time": 85, "note": 65, "velocity": 98, "channel": 0}, {"type": "note_on", "time": 59, "note": 68, "velocity": 105, "channel": 0}, {"type": "note_off", "time": 256, "note": 68, "velocity": 105, "channel": 0}, {"type": "note_on", "time": 134, "note": 71, "velocity": 110, "channel": 0}, {"type": "note_off", "time": 227, "note": 71, "velocity": 110, "channel": 0}, {"type": "note_on", "time": 37, "note": 72, "velocity": 113, "channel": 0}, {"type": "note_off", "time": 246, "note": 72, "velocity": 113, "channel": 0}, {"type": "note_on", "time": 23, "note": 68, "velocity": 115, "channel": 0}, {"type": "note_off", "time": 132, "note": 68, "velocity": 115, "channel": 0}, {"type": "note_on", "time": 37, "note": 65, "velocity": 99, "channel": 0}, {"type": "note_off", "time": 194, "note": 65, "velocity": 99, "channel": 0}, {"type": "note_on", "time": 47, "note": 68, "velocity": 109, "channel": 0}, {"type": "note_off", "time": 194, "note": 68, "velocity": 109, "channel": 0}, {"type": "note_on", "time": 28, "note": 70, "velocity": 108, "channel": 0}, {"type": "note_off", "time": 156, "note": 70, "velocity": 108, "channel": 0}, {"type": "note_on", "time": 18, "note": 67, "velocity": 109, "channel": 0}, {"type": "note_off", "time": 170, "note": 67, "velocity": 109, "channel": 0}, {"type": "note_on", "time": 113, "note": 63, "velocity": 105, "channel": 0}, {"type": "note_off", "time": 151, "note": 63, "velocity": 105, "channel": 0}, {"type": "note_on", "time": 18, "note": 66, "velocity": 111, "channel": 0}, {"type": "note_off", "time": 246, "note": 66, "velocity": 111, "channel": 0}, {"type": "note_on", "time": 9, "note": 68, "velocity": 112, "channel": 0}, {"type": "note_off", "time": 184, "note": 68, "velocity": 112, "channel": 0}, {"type": "note_on", "time": 28, "note": 67, "velocity": 112, "channel": 0}, {"type": "note_off", "time": 222, "note": 67, "velocity": 112, "channel": 0}, {"type": "note_on", "time": 14, "note": 65, "velocity": 111, "channel": 0}, {"type": "note_off", "time": 184, "note": 65, "velocity": 111, "channel": 0}, {"type": "note_on", "time": 14, "note": 63, "velocity": 116, "channel": 0}, {"type": "note_off", "time": 203, "note": 63, "velocity": 116, "channel": 0}, {"type": "note_on", "time": 33, "note": 61, "velocity": 101, "channel": 0}, {"type": "note_off", "time": 156, "note": 61, "velocity": 101, "channel": 0}, {"type": "note_on", "time": 18, "note": 60, "velocity": 113, "channel": 0}, {"type": "note_off", "time": 151, "note": 60, "velocity": 113, "channel": 0}, {"type": "note_on", "time": 28, "note": 58, "velocity": 100, "channel": 0}, {"type": "note_off", "time": 199, "note": 58, "velocity": 100, "channel": 0}, {"type": "note_on", "time": 27, "note": 56, "velocity": 112, "channel": 0}, {"type": "note_off", "time": 161, "note": 56, "velocity": 112, "channel": 0}, {"type": "note_on", "time": 6, "note": 55, "velocity": 106, "channel": 0}, {"type": "note_off", "time": 175, "note": 55, "velocity": 106, "channel": 0}, {"type": "note_on", "time": 17, "note": 54, "velocity": 101, "channel": 0}, {"type": "note_off", "time": 711, "note": 54, "velocity": 101, "channel": 0}, {"type": "note_on", "time": 1261, "note": 65, "velocity": 101, "channel": 0}, {"type": "note_off", "time": 279, "note": 65, "velocity": 101, "channel": 0}, {"type": "note_on", "time": 52, "note": 63, "velocity": 116, "channel": 0}, {"type": "note_off", "time": 227, "note": 63, "velocity": 116, "channel": 0}, {"type": "note_on", "time": 56, "note": 62, "velocity": 108, "channel": 0}, {"type": "note_off", "time": 180, "note": 62, "velocity": 108, "channel": 0}, {"type": "note_on", "time": 151, "note": 68, "velocity": 116, "channel": 0}, {"type": "note_off", "time": 1242, "note": 68, "velocity": 116, "channel": 0}, {"type": "note_on", "time": 42, "note": 67, "velocity": 110, "channel": 0}, {"type": "note_off", "time": 170, "note": 67, "velocity": 110, "channel": 0}, {"type": "note_on", "time": 28, "note": 65, "velocity": 113, "channel": 0}, {"type": "note_off", "time": 132, "note": 65, "velocity": 113, "channel": 0}, {"type": "note_on", "time": 28, "note": 64, "velocity": 118, "channel": 0}, {"type": "note_off", "time": 251, "note": 64, "velocity": 118, "channel": 0}, {"type": "note_on", "time": 33, "note": 60, "velocity": 112, "channel": 0}, {"type": "note_off", "time": 232, "note": 60, "velocity": 112, "channel": 0}, {"type": "note_on", "time": 37, "note": 56, "velocity": 103, "channel": 0}, {"type": "note_off", "time": 1119, "note": 56, "velocity": 103, "channel": 0}, {"type": "note_on", "time": 996, "note": 49, "velocity": 116, "channel": 0}, {"type": "note_off", "time": 455, "note": 49, "velocity": 116, "channel": 0}, {"type": "note_on", "time": 56, "note": 56, "velocity": 99, "channel": 0}, {"type": "note_off", "time": 246, "note": 56, "velocity": 99, "channel": 0}, {"type": "note_on", "time": 94, "note": 61, "velocity": 117, "channel": 0}, {"type": "note_off", "time": 474, "note": 61, "velocity": 117, "channel": 0}, {"type": "note_on", "time": 9, "note": 63, "velocity": 123, "channel": 0}, {"type": "note_off", "time": 284, "note": 63, "velocity": 123, "channel": 0}, {"type": "note_on", "time": 66, "note": 65, "velocity": 115, "channel": 0}, {"type": "note_off", "time": 583, "note": 65, "velocity": 115, "channel": 0}, {"type": "note_on", "time": 23, "note": 64, "velocity": 93, "channel": 0}, {"type": "note_off", "time": 237, "note": 64, "velocity": 93, "channel": 0}, {"type": "note_on", "time": 61, "note": 65, "velocity": 115, "channel": 0}, {"type": "note_off", "time": 166, "note": 65, "velocity": 115, "channel": 0}, {"type": "note_on", "time": 61, "note": 67, "velocity": 117, "channel": 0}, {"type": "note_off", "time": 1100, "note": 67, "velocity": 117, "channel": 0}, {"type": "note_on", "time": 42, "note": 65, "velocity": 113, "channel": 0}, {"type": "note_off", "time": 194, "note": 65, "velocity": 113, "channel": 0}, {"type": "note_on", "time": 23, "note": 64, "velocity": 119, "channel": 0}, {"type": "note_off", "time": 474, "note": 64, "velocity": 119, "channel": 0}, {"type": "note_on", "time": 47, "note": 60, "velocity": 114, "channel": 0}, {"type": "note_off", "time": 445, "note": 60, "velocity": 114, "channel": 0}, {"type": "note_on", "time": 23, "note": 55, "velocity": 106, "channel": 0}, {"type": "note_off", "time": 507, "note": 55, "velocity": 106, "channel": 0}, {"type": "note_on", "time": 938, "note": 47, "velocity": 117, "channel": 0}, {"type": "note_off", "time": 426, "note": 47, "velocity": 117, "channel": 0}, {"type": "note_on", "time": 474, "note": 59, "velocity": 108, "channel": 0}, {"type": "note_off", "time": 464, "note": 59, "velocity": 108, "channel": 0}, {"type": "note_on", "time": 37, "note": 61, "velocity": 109, "channel": 0}, {"type": "note_off", "time": 388, "note": 61, "velocity": 109, "channel": 0}, {"type": "note_on", "time": 9, "note": 63, "velocity": 118, "channel": 0}, {"type": "note_off", "time": 407, "note": 63, "velocity": 118, "channel": 0}, {"type": "note_on", "time": 28, "note": 66, "velocity": 112, "channel": 0}, {"type": "note_off", "time": 455, "note": 66, "velocity": 112, "channel": 0}, {"type": "note_on", "time": 52, "note": 65, "velocity": 111, "channel": 0}, {"type": "note_off", "time": 419, "note": 65, "velocity": 111, "channel": 0}, {"type": "note_on", "time": 30, "note": 60, "velocity": 94, "channel": 0}, {"type": "note_off", "time": 85, "note": 60, "velocity": 94, "channel": 0}, {"type": "note_on", "time": 56, "note": 63, "velocity": 112, "channel": 0}, {"type": "note_off", "time": 578, "note": 63, "velocity": 112, "channel": 0}, {"type": "note_on", "time": 85, "note": 63, "velocity": 119, "channel": 0}, {"type": "note_off", "time": 227, "note": 63, "velocity": 119, "channel": 0}, {"type": "note_on", "time": 18, "note": 62, "velocity": 116, "channel": 0}, {"type": "note_off", "time": 493, "note": 62, "velocity": 116, "channel": 0}, {"type": "note_on", "time": 5, "note": 72, "velocity": 92, "channel": 0}, {"type": "note_off", "time": 789, "note": 72, "velocity": 92, "channel": 0}, {"type": "note_on", "time": 2089, "note": 70, "velocity": 107, "channel": 0}, {"type": "note_off", "time": 170, "note": 70, "velocity": 107, "channel": 0}, {"type": "note_on", "time": 73, "note": 72, "velocity": 117, "channel": 0}, {"type": "note_off", "time": 795, "note": 72, "velocity": 117, "channel": 0}, {"type": "note_on", "time": 84, "note": 68, "velocity": 111, "channel": 0}, {"type": "note_off", "time": 141, "note": 68, "velocity": 111, "channel": 0}, {"type": "note_on", "time": 3, "note": 65, "velocity": 112, "channel": 0}, {"type": "note_off", "time": 161, "note": 65, "velocity": 112, "channel": 0}, {"type": "note_on", "time": 40, "note": 61, "velocity": 91, "channel": 0}, {"type": "note_off", "time": 222, "note": 61, "velocity": 91, "channel": 0}, {"type": "note_on", "time": 80, "note": 70, "velocity": 109, "channel": 0}, {"type": "note_off", "time": 634, "note": 70, "velocity": 109, "channel": 0}, {"type": "note_on", "time": 116, "note": 65, "velocity": 93, "channel": 0}, {"type": "note_off", "time": 75, "note": 65, "velocity": 93, "channel": 0}, {"type": "note_on", "time": 63, "note": 63, "velocity": 106, "channel": 0}, {"type": "note_off", "time": 218, "note": 63, "velocity": 106, "channel": 0}, {"type": "note_on", "time": 85, "note": 60, "velocity": 14, "channel": 0}, {"type": "note_off", "time": 180, "note": 60, "velocity": 14, "channel": 0}, {"type": "note_on", "time": 90, "note": 68, "velocity": 116, "channel": 0}, {"type": "note_off", "time": 424, "note": 68, "velocity": 116, "channel": 0}, {"type": "note_on", "time": 53, "note": 63, "velocity": 107, "channel": 0}, {"type": "note_off", "time": 209, "note": 63, "velocity": 107, "channel": 0}, {"type": "note_on", "time": 47, "note": 67, "velocity": 114, "channel": 0}, {"type": "note_off", "time": 532, "note": 67, "velocity": 114, "channel": 0}, {"type": "note_on", "time": 13, "note": 65, "velocity": 115, "channel": 0}, {"type": "note_off", "time": 424, "note": 65, "velocity": 115, "channel": 0}, {"type": "note_on", "time": 24, "note": 63, "velocity": 121, "channel": 0}, {"type": "note_off", "time": 426, "note": 63, "velocity": 121, "channel": 0}, {"type": "note_on", "time": 27, "note": 62, "velocity": 118, "channel": 0}, {"type": "note_off", "time": 330, "note": 62, "velocity": 118, "channel": 0}, {"type": "note_on", "time": 20, "note": 61, "velocity": 110, "channel": 0}, {"type": "note_off", "time": 370, "note": 61, "velocity": 110, "channel": 0}, {"type": "note_on", "time": 180, "note": 61, "velocity": 111, "channel": 0}, {"type": "note_off", "time": 142, "note": 61, "velocity": 111, "channel": 0}, {"type": "note_on", "time": 66, "note": 60, "velocity": 110, "channel": 0}, {"type": "note_off", "time": 521, "note": 60, "velocity": 110, "channel": 0}, {"type": "note_on", "time": 81, "note": 58, "velocity": 113, "channel": 0}, {"type": "note_off", "time": 294, "note": 58, "velocity": 113, "channel": 0}, {"type": "note_on", "time": 118, "note": 56, "velocity": 111, "channel": 0}, {"type": "note_off", "time": 322, "note": 56, "velocity": 111, "channel": 0}, {"type": "note_on", "time": 27, "note": 55, "velocity": 105, "channel": 0}, {"type": "note_off", "time": 182, "note": 55, "velocity": 105, "channel": 0}, {"type": "note_on", "time": 107, "note": 54, "velocity": 107, "channel": 0}, {"type": "note_off", "time": 849, "note": 54, "velocity": 107, "channel": 0}, {"type": "note_on", "time": 2219, "note": 61, "velocity": 113, "channel": 0}, {"type": "note_off", "time": 310, "note": 61, "velocity": 113, "channel": 0}, {"type": "note_on", "time": 87, "note": 64, "velocity": 122, "channel": 0}, {"type": "note_off", "time": 344, "note": 64, "velocity": 122, "channel": 0}, {"type": "note_on", "time": 101, "note": 65, "velocity": 113, "channel": 0}, {"type": "note_off", "time": 388, "note": 65, "velocity": 113, "channel": 0}, {"type": "note_on", "time": 28, "note": 66, "velocity": 114, "channel": 0}, {"type": "note_off", "time": 350, "note": 66, "velocity": 114, "channel": 0}, {"type": "note_on", "time": 66, "note": 67, "velocity": 119, "channel": 0}, {"type": "note_off", "time": 436, "note": 67, "velocity": 119, "channel": 0}, {"type": "note_on", "time": 170, "note": 68, "velocity": 120, "channel": 0}, {"type": "note_off", "time": 426, "note": 68, "velocity": 120, "channel": 0}, {"type": "note_on", "time": 227, "note": 61, "velocity": 113, "channel": 0}, {"type": "note_off", "time": 464, "note": 61, "velocity": 113, "channel": 0}, {"type": "note_on", "time": 227, "note": 63, "velocity": 123, "channel": 0}, {"type": "note_off", "time": 341, "note": 63, "velocity": 123, "channel": 0}, {"type": "note_on", "time": 56, "note": 65, "velocity": 114, "channel": 0}, {"type": "note_off", "time": 996, "note": 65, "velocity": 114, "channel": 0}, {"type": "note_on", "time": 85, "note": 68, "velocity": 116, "channel": 0}, {"type": "note_off", "time": 455, "note": 68, "velocity": 116, "channel": 0}, {"type": "note_on", "time": 826, "note": 55, "velocity": 101, "channel": 0}, {"type": "note_off", "time": 94, "note": 55, "velocity": 101, "channel": 0}, {"type": "note_on", "time": 33, "note": 58, "velocity": 102, "channel": 0}, {"type": "note_off", "time": 155, "note": 58, "velocity": 102, "channel": 0}, {"type": "note_on", "time": 37, "note": 61, "velocity": 113, "channel": 0}, {"type": "note_off", "time": 256, "note": 61, "velocity": 113, "channel": 0}, {"type": "note_on", "time": 218, "note": 64, "velocity": 121, "channel": 0}, {"type": "note_off", "time": 294, "note": 64, "velocity": 121, "channel": 0}, {"type": "note_on", "time": 37, "note": 65, "velocity": 109, "channel": 0}, {"type": "note_off", "time": 379, "note": 65, "velocity": 109, "channel": 0}, {"type": "note_on", "time": 66, "note": 66, "velocity": 111, "channel": 0}, {"type": "note_off", "time": 322, "note": 66, "velocity": 111, "channel": 0}, {"type": "note_on", "time": 28, "note": 67, "velocity": 113, "channel": 0}, {"type": "note_off", "time": 350, "note": 67, "velocity": 113, "channel": 0}, {"type": "note_on", "time": 75, "note": 68, "velocity": 117, "channel": 0}, {"type": "note_off", "time": 407, "note": 68, "velocity": 117, "channel": 0}, {"type": "note_on", "time": 9, "note": 67, "velocity": 115, "channel": 0}, {"type": "note_off", "time": 426, "note": 67, "velocity": 115, "channel": 0}, {"type": "note_on", "time": 47, "note": 66, "velocity": 115, "channel": 0}, {"type": "note_off", "time": 227, "note": 66, "velocity": 115, "channel": 0}, {"type": "note_on", "time": 47, "note": 67, "velocity": 112, "channel": 0}, {"type": "note_off", "time": 123, "note": 67, "velocity": 112, "channel": 0}, {"type": "note_on", "time": 28, "note": 66, "velocity": 119, "channel": 0}, {"type": "note_off", "time": 104, "note": 66, "velocity": 119, "channel": 0}, {"type": "note_on", "time": 18, "note": 65, "velocity": 119, "channel": 0}, {"type": "note_off", "time": 170, "note": 65, "velocity": 119, "channel": 0}, {"type": "note_on", "time": 36, "note": 64, "velocity": 127, "channel": 0}, {"type": "note_off", "time": 472, "note": 64, "velocity": 127, "channel": 0}, {"type": "note_on", "time": 382, "note": 75, "velocity": 122, "channel": 0}, {"type": "note_off", "time": 455, "note": 75, "velocity": 122, "channel": 0}, {"type": "note_on", "time": 25, "note": 73, "velocity": 120, "channel": 0}, {"type": "note_off", "time": 370, "note": 73, "velocity": 120, "channel": 0}, {"type": "note_on", "time": 80, "note": 68, "velocity": 114, "channel": 0}, {"type": "note_off", "time": 337, "note": 68, "velocity": 114, "channel": 0}, {"type": "note_on", "time": 67, "note": 64, "velocity": 120, "channel": 0}, {"type": "note_off", "time": 436, "note": 64, "velocity": 120, "channel": 0}, {"type": "note_on", "time": 37, "note": 63, "velocity": 120, "channel": 0}, {"type": "note_off", "time": 426, "note": 63, "velocity": 120, "channel": 0}, {"type": "note_on", "time": 28, "note": 61, "velocity": 112, "channel": 0}, {"type": "note_off", "time": 332, "note": 61, "velocity": 112, "channel": 0}, {"type": "note_on", "time": 46, "note": 60, "velocity": 107, "channel": 0}, {"type": "note_off", "time": 330, "note": 60, "velocity": 107, "channel": 0}, {"type": "note_on", "time": 1774, "note": 73, "velocity": 120, "channel": 0}, {"type": "note_off", "time": 370, "note": 73, "velocity": 120, "channel": 0}, {"type": "note_on", "time": 48, "note": 72, "velocity": 113, "channel": 0}, {"type": "note_off", "time": 398, "note": 72, "velocity": 113, "channel": 0}, {"type": "note_on", "time": 9, "note": 70, "velocity": 107, "channel": 0}, {"type": "note_off", "time": 341, "note": 70, "velocity": 107, "channel": 0}, {"type": "note_on", "time": 32, "note": 68, "velocity": 117, "channel": 0}, {"type": "note_off", "time": 364, "note": 68, "velocity": 117, "channel": 0}, {"type": "note_on", "time": 67, "note": 70, "velocity": 110, "channel": 0}, {"type": "note_off", "time": 188, "note": 70, "velocity": 110, "channel": 0}, {"type": "note_on", "time": 67, "note": 68, "velocity": 119, "channel": 0}, {"type": "note_off", "time": 215, "note": 68, "velocity": 119, "channel": 0}, {"type": "note_on", "time": 33, "note": 67, "velocity": 113, "channel": 0}, {"type": "note_off", "time": 310, "note": 67, "velocity": 113, "channel": 0}, {"type": "note_on", "time": 33, "note": 65, "velocity": 115, "channel": 0}, {"type": "note_off", "time": 357, "note": 65, "velocity": 115, "channel": 0}, {"type": "note_on", "time": 40, "note": 63, "velocity": 122, "channel": 0}, {"type": "note_off", "time": 384, "note": 63, "velocity": 122, "channel": 0}, {"type": "note_on", "time": 40, "note": 60, "velocity": 115, "channel": 0}, {"type": "note_off", "time": 337, "note": 60, "velocity": 115, "channel": 0}, {"type": "note_on", "time": 107, "note": 56, "velocity": 109, "channel": 0}, {"type": "note_off", "time": 377, "note": 56, "velocity": 109, "channel": 0}, {"type": "note_on", "time": 53, "note": 53, "velocity": 99, "channel": 0}, {"type": "note_off", "time": 202, "note": 53, "velocity": 99, "channel": 0}, {"type": "note_on", "time": 107, "note": 58, "velocity": 115, "channel": 0}, {"type": "note_off", "time": 539, "note": 58, "velocity": 115, "channel": 0}, {"type": "note_on", "time": 13, "note": 54, "velocity": 115, "channel": 0}, {"type": "note_off", "time": 229, "note": 54, "velocity": 115, "channel": 0}, {"type": "note_on", "time": 53, "note": 55, "velocity": 107, "channel": 0}, {"type": "note_off", "time": 472, "note": 55, "velocity": 107, "channel": 0}, {"type": "note_on", "time": 47, "note": 57, "velocity": 112, "channel": 0}, {"type": "note_off", "time": 276, "note": 57, "velocity": 112, "channel": 0}, {"type": "note_on", "time": 37, "note": 58, "velocity": 110, "channel": 0}, {"type": "note_off", "time": 377, "note": 58, "velocity": 110, "channel": 0}, {"type": "note_on", "time": 6, "note": 60, "velocity": 109, "channel": 0}, {"type": "note_off", "time": 445, "note": 60, "velocity": 109, "channel": 0}, {"type": "note_on", "time": 37, "note": 61, "velocity": 118, "channel": 0}, {"type": "note_off", "time": 256, "note": 61, "velocity": 118, "channel": 0}, {"type": "note_on", "time": 134, "note": 57, "velocity": 111, "channel": 0}, {"type": "note_off", "time": 236, "note": 57, "velocity": 111, "channel": 0}, {"type": "note_on", "time": 155, "note": 58, "velocity": 109, "channel": 0}, {"type": "note_off", "time": 296, "note": 58, "velocity": 109, "channel": 0}, {"type": "note_on", "time": 128, "note": 60, "velocity": 113, "channel": 0}, {"type": "note_off", "time": 323, "note": 60, "velocity": 113, "channel": 0}, {"type": "note_on", "time": 128, "note": 61, "velocity": 108, "channel": 0}, {"type": "note_off", "time": 364, "note": 61, "velocity": 108, "channel": 0}, {"type": "note_on", "time": 40, "note": 63, "velocity": 117, "channel": 0}, {"type": "note_off", "time": 418, "note": 63, "velocity": 117, "channel": 0}, {"type": "note_on", "time": 60, "note": 64, "velocity": 122, "channel": 0}, {"type": "note_off", "time": 350, "note": 64, "velocity": 122, "channel": 0}, {"type": "note_on", "time": 60, "note": 66, "velocity": 98, "channel": 0}, {"type": "note_off", "time": 337, "note": 66, "velocity": 98, "channel": 0}, {"type": "note_on", "time": 67, "note": 67, "velocity": 106, "channel": 0}, {"type": "note_off", "time": 404, "note": 67, "velocity": 106, "channel": 0}, {"type": "note_on", "time": 67, "note": 64, "velocity": 106, "channel": 0}, {"type": "note_off", "time": 229, "note": 64, "velocity": 106, "channel": 0}, {"type": "note_on", "time": 60, "note": 65, "velocity": 112, "channel": 0}, {"type": "note_off", "time": 492, "note": 65, "velocity": 112, "channel": 0}, {"type": "note_on", "time": 60, "note": 68, "velocity": 115, "channel": 0}, {"type": "note_off", "time": 350, "note": 68, "velocity": 115, "channel": 0}, {"type": "note_on", "time": 1497, "note": 68, "velocity": 120, "channel": 0}, {"type": "note_off", "time": 600, "note": 68, "velocity": 120, "channel": 0}, {"type": "note_on", "time": 26, "note": 65, "velocity": 114, "channel": 0}, {"type": "note_off", "time": 256, "note": 65, "velocity": 114, "channel": 0}, {"type": "note_on", "time": 40, "note": 64, "velocity": 123, "channel": 0}, {"type": "note_off", "time": 458, "note": 64, "velocity": 123, "channel": 0}, {"type": "note_on", "time": 107, "note": 67, "velocity": 113, "channel": 0}, {"type": "note_off", "time": 431, "note": 67, "velocity": 113, "channel": 0}, {"type": "note_on", "time": 1625, "note": 67, "velocity": 118, "channel": 0}, {"type": "note_off", "time": 182, "note": 67, "velocity": 118, "channel": 0}, {"type": "note_on", "time": 40, "note": 68, "velocity": 115, "channel": 0}, {"type": "note_off", "time": 148, "note": 68, "velocity": 115, "channel": 0}, {"type": "note_on", "time": 26, "note": 67, "velocity": 116, "channel": 0}, {"type": "note_on", "time": 107, "note": 64, "velocity": 120, "channel": 0}, {"type": "note_off", "time": 0, "note": 67, "velocity": 116, "channel": 0}, {"type": "note_off", "time": 283, "note": 64, "velocity": 120, "channel": 0}, {"type": "note_on", "time": 53, "note": 63, "velocity": 123, "channel": 0}, {"type": "note_off", "time": 512, "note": 63, "velocity": 123, "channel": 0}, {"type": "note_on", "time": 13, "note": 66, "velocity": 111, "channel": 0}, {"type": "note_off", "time": 269, "note": 66, "velocity": 111, "channel": 0}, {"type": "note_on", "time": 903, "note": 65, "velocity": 115, "channel": 0}, {"type": "note_off", "time": 202, "note": 65, "velocity": 115, "channel": 0}, {"type": "note_on", "time": 26, "note": 66, "velocity": 113, "channel": 0}, {"type": "note_off", "time": 876, "note": 66, "velocity": 113, "channel": 0}, {"type": "note_on", "time": 13, "note": 67, "velocity": 106, "channel": 0}, {"type": "note_off", "time": 161, "note": 67, "velocity": 106, "channel": 0}, {"type": "note_on", "time": 13, "note": 66, "velocity": 106, "channel": 0}, {"type": "note_off", "time": 148, "note": 66, "velocity": 106, "channel": 0}, {"type": "note_on", "time": 40, "note": 62, "velocity": 116, "channel": 0}, {"type": "note_off", "time": 539, "note": 62, "velocity": 116, "channel": 0}, {"type": "note_on", "time": 26, "note": 65, "velocity": 114, "channel": 0}, {"type": "note_off", "time": 350, "note": 65, "velocity": 114, "channel": 0}, {"type": "note_on", "time": 2671, "note": 70, "velocity": 112, "channel": 0}, {"type": "note_off", "time": 161, "note": 70, "velocity": 112, "channel": 0}, {"type": "note_on", "time": 40, "note": 72, "velocity": 117, "channel": 0}, {"type": "note_off", "time": 404, "note": 72, "velocity": 117, "channel": 0}, {"type": "note_on", "time": 215, "note": 68, "velocity": 118, "channel": 0}, {"type": "note_off", "time": 499, "note": 68, "velocity": 118, "channel": 0}, {"type": "note_on", "time": 53, "note": 65, "velocity": 101, "channel": 0}, {"type": "note_off", "time": 161, "note": 65, "velocity": 101, "channel": 0}, {"type": "note_on", "time": 161, "note": 68, "velocity": 106, "channel": 0}, {"type": "note_off", "time": 661, "note": 68, "velocity": 106, "channel": 0}, {"type": "note_on", "time": 134, "note": 65, "velocity": 104, "channel": 0}, {"type": "note_off", "time": 188, "note": 65, "velocity": 104, "channel": 0}, {"type": "note_on", "time": 26, "note": 68, "velocity": 102, "channel": 0}, {"type": "note_off", "time": 141, "note": 68, "velocity": 102, "channel": 0}, {"type": "note_on", "time": 33, "note": 72, "velocity": 116, "channel": 0}, {"type": "note_off", "time": 357, "note": 72, "velocity": 116, "channel": 0}, {"type": "note_on", "time": 101, "note": 70, "velocity": 103, "channel": 0}, {"type": "note_off", "time": 323, "note": 70, "velocity": 103, "channel": 0}, {"type": "note_on", "time": 13, "note": 71, "velocity": 112, "channel": 0}, {"type": "note_off", "time": 296, "note": 71, "velocity": 112, "channel": 0}, {"type": "note_on", "time": 229, "note": 66, "velocity": 109, "channel": 0}, {"type": "note_off", "time": 364, "note": 66, "velocity": 109, "channel": 0}, {"type": "note_on", "time": 13, "note": 64, "velocity": 125, "channel": 0}, {"type": "note_off", "time": 323, "note": 64, "velocity": 125, "channel": 0}, {"type": "note_on", "time": 229, "note": 59, "velocity": 105, "channel": 0}, {"type": "note_off", "time": 472, "note": 59, "velocity": 105, "channel": 0}, {"type": "note_on", "time": 256, "note": 61, "velocity": 106, "channel": 0}, {"type": "note_off", "time": 350, "note": 61, "velocity": 106, "channel": 0}, {"type": "note_on", "time": 67, "note": 63, "velocity": 120, "channel": 0}, {"type": "note_off", "time": 256, "note": 63, "velocity": 120, "channel": 0}, {"type": "note_on", "time": 1389, "note": 68, "velocity": 118, "channel": 0}, {"type": "note_off", "time": 229, "note": 68, "velocity": 118, "channel": 0}, {"type": "note_on", "time": 40, "note": 67, "velocity": 117, "channel": 0}, {"type": "note_off", "time": 242, "note": 67, "velocity": 117, "channel": 0}, {"type": "note_on", "time": 40, "note": 66, "velocity": 115, "channel": 0}, {"type": "note_off", "time": 175, "note": 66, "velocity": 115, "channel": 0}, {"type": "note_on", "time": 47, "note": 65, "velocity": 118, "channel": 0}, {"type": "note_off", "time": 350, "note": 65, "velocity": 118, "channel": 0}, {"type": "note_on", "time": 74, "note": 63, "velocity": 121, "channel": 0}, {"type": "note_off", "time": 499, "note": 63, "velocity": 121, "channel": 0}, {"type": "note_on", "time": 40, "note": 61, "velocity": 117, "channel": 0}, {"type": "note_off", "time": 377, "note": 61, "velocity": 117, "channel": 0}, {"type": "note_on", "time": 107, "note": 59, "velocity": 110, "channel": 0}, {"type": "note_off", "time": 229, "note": 59, "velocity": 110, "channel": 0}, {"type": "note_on", "time": 53, "note": 60, "velocity": 110, "channel": 0}, {"type": "note_off", "time": 418, "note": 60, "velocity": 110, "channel": 0}, {"type": "note_on", "time": 80, "note": 63, "velocity": 117, "channel": 0}, {"type": "note_off", "time": 155, "note": 63, "velocity": 117, "channel": 0}, {"type": "note_on", "time": 26, "note": 66, "velocity": 102, "channel": 0}, {"type": "note_off", "time": 134, "note": 66, "velocity": 102, "channel": 0}, {"type": "note_on", "time": 26, "note": 70, "velocity": 111, "channel": 0}, {"type": "note_off", "time": 168, "note": 70, "velocity": 111, "channel": 0}, {"type": "note_on", "time": 283, "note": 68, "velocity": 115, "channel": 0}, {"type": "note_off", "time": 445, "note": 68, "velocity": 115, "channel": 0}, {"type": "note_on", "time": 26, "note": 65, "velocity": 104, "channel": 0}, {"type": "note_off", "time": 269, "note": 65, "velocity": 104, "channel": 0}, {"type": "note_on", "time": 53, "note": 66, "velocity": 114, "channel": 0}, {"type": "note_off", "time": 357, "note": 66, "velocity": 114, "channel": 0}, {"type": "note_on", "time": 20, "note": 67, "velocity": 115, "channel": 0}, {"type": "note_off", "time": 161, "note": 67, "velocity": 115, "channel": 0}, {"type": "note_on", "time": 26, "note": 66, "velocity": 114, "channel": 0}, {"type": "note_off", "time": 161, "note": 66, "velocity": 114, "channel": 0}, {"type": "note_on", "time": 107, "note": 65, "velocity": 108, "channel": 0}, {"type": "note_off", "time": 418, "note": 65, "velocity": 108, "channel": 0}, {"type": "note_on", "time": 53, "note": 61, "velocity": 117, "channel": 0}, {"type": "note_off", "time": 188, "note": 61, "velocity": 117, "channel": 0}, {"type": "end_of_track", "time": 0}]]}