{"ticks_per_beat": 192, "tracks": [[{"type": "track_name", "name": "Melody", "time": 0}, {"type": "set_tempo", "tempo": 504201, "time": 0}, {"type": "key_signature", "key": "Ab", "time": 0}, {"type": "time_signature", "numerator": 4, "denominator": 4, "clocks_per_click": 24, "notated_32nd_notes_per_beat": 8, "time": 0}, {"type": "note_on", "time": 2420, "note": 80, "velocity": 108, "channel": 0}, {"type": "note_off", "time": 108, "note": 80, "velocity": 108, "channel": 0}, {"type": "note_on", "time": 82, "note": 78, "velocity": 103, "channel": 0}, {"type": "note_off", "time": 109, "note": 78, "velocity": 103, "channel": 0}, {"type": "note_on", "time": 74, "note": 75, "velocity": 103, "channel": 0}, {"type": "note_off", "time": 105, "note": 75, "velocity": 103, "channel": 0}, {"type": "note_on", "time": 82, "note": 73, "velocity": 111, "channel": 0}, {"type": "note_off", "time": 93, "note": 73, "velocity": 111, "channel": 0}, {"type": "note_on", "time": 73, "note": 68, "velocity": 113, "channel": 0}, {"type": "note_off", "time": 79, "note": 68, "velocity": 113, "channel": 0}, {"type": "note_on", "time": 52, "note": 72, "velocity": 101, "channel": 0}, {"type": "note_off", "time": 30, "note": 72, "velocity": 101, "channel": 0}, {"type": "note_on", "time": 2, "note": 73, "velocity": 116, "channel": 0}, {"type": "note_off", "time": 26, "note": 73, "velocity": 116, "channel": 0}, {"type": "note_on", "time": 6, "note": 72, "velocity": 121, "channel": 0}, {"type": "note_off", "time": 24, "note": 72, "velocity": 121, "channel": 0}, {"type": "note_on", "time": 15, "note": 71, "velocity": 120, "channel": 0}, {"type": "note_off", "time": 35, "note": 71, "velocity": 120, "channel": 0}, {"type": "note_on", "time": 22, "note": 68, "velocity": 99, "channel": 0}, {"type": "note_off", "time": 110, "note": 68, "velocity": 99, "channel": 0}, {"type": "note_on", "time": 68, "note": 70, "velocity": 117, "channel": 0}, {"type": "note_off", "time": 28, "note": 70, "velocity": 117, "channel": 0}, {"type": "note_on", "time": 6, "note": 72, "velocity": 107, "channel": 0}, {"type": "note_off", "time": 106, "note": 72, "velocity": 107, "channel": 0}, {"type": "note_on", "time": 6, "note": 70, "velocity": 105, "channel": 0}, {"type": "note_off", "time": 17, "note": 70, "velocity": 105, "channel": 0}, {"type": "note_on", "time": 7, "note": 72, "velocity": 115, "channel": 0}, {"type": "note_off", "time": 69, "note": 72, "velocity": 115, "channel": 0}, {"type": "note_on", "time": 734, "note": 65, "velocity": 87, "channel": 0}, {"type": "note_off", "time": 125, "note": 65, "velocity": 87, "channel": 0}, {"type": "note_on", "time": 68, "note": 77, "velocity": 112, "channel": 0}, {"type": "note_off", "time": 99, "note": 77, "velocity": 112, "channel": 0}, {"type": "note_on", "time": 20, "note": 75, "velocity": 112, "channel": 0}, {"type": "note_off", "time": 40, "note": 75, "velocity": 112, "channel": 0}, {"type": "note_on", "time": 24, "note": 70, "velocity": 121, "channel": 0}, {"type": "note_off", "time": 54, "note": 70, "velocity": 121, "channel": 0}, {"type": "note_on", "time": 3, "note": 71, "velocity": 111, "channel": 0}, {"type": "note_off", "time": 63, "note": 71, "velocity": 111, "channel": 0}, {"type": "note_on", "time": 10, "note": 68, "velocity": 88, "channel": 0}, {"type": "note_off", "time": 223, "note": 68, "velocity": 88, "channel": 0}, {"type": "note_on", "time": 38, "note": 65, "velocity": 97, "channel": 0}, {"type": "note_off", "time": 80, "note": 65, "velocity": 97, "channel": 0}, {"type": "note_on", "time": 4, "note": 64, "velocity": 69, "channel": 0}, {"type": "note_off", "time": 20, "note": 64, "velocity": 69, "channel": 0}, {"type": "note_on", "time": 845, "note": 82, "velocity": 103, "channel": 0}, {"type": "note_off", "time": 105, "note": 82, "velocity": 103, "channel": 0}, {"type": "note_on", "time": 88, "note": 81, "velocity": 101, "channel": 0}, {"type": "note_off", "time": 93, "note": 81, "velocity": 101, "channel": 0}, {"type": "note_on", "time": 34, "note": 80, "velocity": 108, "channel": 0}, {"type": "note_off", "time": 54, "note": 80, "velocity": 108, "channel": 0}, {"type": "note_on", "time": 46, "note": 77, "velocity": 109, "channel": 0}, {"type": "note_off", "time": 66, "note": 77, "velocity": 109, "channel": 0}, {"type": "note_on", "time": 10, "note": 76, "velocity": 112, "channel": 0}, {"type": "note_off", "time": 57, "note": 76, "velocity": 112, "channel": 0}, {"type": "note_on", "time": 13, "note": 75, "velocity": 110, "channel": 0}, {"type": "note_off", "time": 82, "note": 75, "velocity": 110, "channel": 0}, {"type": "note_on", "time": 35, "note": 71, "velocity": 122, "channel": 0}, {"type": "note_off", "time": 34, "note": 71, "velocity": 122, "channel": 0}, {"type": "note_on", "time": 10, "note": 72, "velocity": 118, "channel": 0}, {"type": "note_off", "time": 40, "note": 72, "velocity": 118, "channel": 0}, {"type": "note_on", "time": 9, "note": 68, "velocity": 112, "channel": 0}, {"type": "note_off", "time": 80, "note": 68, "velocity": 112, "channel": 0}, {"type": "note_on", "time": 20, "note": 67, "velocity": 103, "channel": 0}, {"type": "note_off", "time": 37, "note": 67, "velocity": 103, "channel": 0}, {"type": "note_on", "time": 28, "note": 66, "velocity": 100, "channel": 0}, {"type": "note_off", "time": 55, "note": 66, "velocity": 100, "channel": 0}, {"type": "note_on", "time": 6, "note": 70, "velocity": 113, "channel": 0}, {"type": "note_off", "time": 52, "note": 70, "velocity": 113, "channel": 0}, {"type": "note_on", "time": 18, "note": 73, "velocity": 121, "channel": 0}, {"type": "note_off", "time": 66, "note": 73, "velocity": 121, "channel": 0}, {"type": "note_on", "time": 23, "note": 77, "velocity": 112, "channel": 0}, {"type": "note_off", "time": 91, "note": 77, "velocity": 112, "channel": 0}, {"type": "note_on", "time": 9, "note": 80, "velocity": 104, "channel": 0}, {"type": "note_off", "time": 46, "note": 80, "velocity": 104, "channel": 0}, {"type": "note_on", "time": 34, "note": 75, "velocity": 113, "channel": 0}, {"type": "note_off", "time": 37, "note": 75, "velocity": 113, "channel": 0}, {"type": "note_on", "time": 6, "note": 76, "velocity": 112, "channel": 0}, {"type": "note_off", "time": 48, "note": 76, "velocity": 112, "channel": 0}, {"type": "note_on", "time": 31, "note": 75, "velocity": 106, "channel": 0}, {"type": "note_off", "time": 74, "note": 75, "velocity": 106, "channel": 0}, {"type": "note_on", "time": 24, "note": 70, "velocity": 106, "channel": 0}, {"type": "note_off", "time": 73, "note": 70, "velocity": 106, "channel": 0}, {"type": "note_on", "time": 24, "note": 65, "velocity": 94, "channel": 0}, {"type": "note_off", "time": 21, "note": 65, "velocity": 94, "channel": 0}, {"type": "note_on", "time": 24, "note": 68, "velocity": 106, "channel": 0}, {"type": "note_off", "time": 87, "note": 68, "velocity": 106, "channel": 0}, {"type": "note_on", "time": 24, "note": 70, "velocity": 107, "channel": 0}, {"type": "note_off", "time": 46, "note": 70, "velocity": 107, "channel": 0}, {"type": "note_on", "time": 27, "note": 64, "velocity": 94, "channel": 0}, {"type": "note_off", "time": 38, "note": 64, "velocity": 94, "channel": 0}, {"type": "note_on", "time": 10, "note": 65, "velocity": 86, "channel": 0}, {"type": "note_off", "time": 71, "note": 65, "velocity": 86, "channel": 0}, {"type": "note_on", "time": 6, "note": 68, "velocity": 89, "channel": 0}, {"type": "note_off", "time": 236, "note": 68, "velocity": 89, "channel": 0}, {"type": "note_on", "time": 903, "note": 63, "velocity": 94, "channel": 0}, {"type": "note_off", "time": 15, "note": 63, "velocity": 94, "channel": 0}, {"type": "note_on", "time": 6, "note": 64, "velocity": 107, "channel": 0}, {"type": "note_off", "time": 38, "note": 64, "velocity": 107, "channel": 0}, {"type": "note_on", "time": 6, "note": 65, "velocity": 95, "channel": 0}, {"type": "note_off", "time": 63, "note": 65, "velocity": 95, "channel": 0}, {"type": "note_on", "time": 9, "note": 68, "velocity": 106, "channel": 0}, {"type": "note_off", "time": 40, "note": 68, "velocity": 106, "channel": 0}, {"type": "note_on", "time": 17, "note": 70, "velocity": 110, "channel": 0}, {"type": "note_off", "time": 48, "note": 70, "velocity": 110, "channel": 0}, {"type": "note_on", "time": 12, "note": 71, "velocity": 117, "channel": 0}, {"type": "note_off", "time": 119, "note": 71, "velocity": 117, "channel": 0}, {"type": "note_on", "time": 20, "note": 65, "velocity": 100, "channel": 0}, {"type": "note_off", "time": 41, "note": 65, "velocity": 100, "channel": 0}, {"type": "note_on", "time": 13, "note": 70, "velocity": 117, "channel": 0}, {"type": "note_off", "time": 54, "note": 70, "velocity": 117, "channel": 0}, {"type": "note_on", "time": 9, "note": 71, "velocity": 113, "channel": 0}, {"type": "note_off", "time": 65, "note": 71, "velocity": 113, "channel": 0}, {"type": "note_on", "time": 63, "note": 68, "velocity": 98, "channel": 0}, {"type": "note_off", "time": 115, "note": 68, "velocity": 98, "channel": 0}, {"type": "note_on", "time": 9, "note": 70, "velocity": 107, "channel": 0}, {"type": "note_off", "time": 62, "note": 70, "velocity": 107, "channel": 0}, {"type": "note_on", "time": 21, "note": 68, "velocity": 103, "channel": 0}, {"type": "note_off", "time": 96, "note": 68, "velocity": 103, "channel": 0}, {"type": "note_on", "time": 18, "note": 65, "velocity": 84, "channel": 0}, {"type": "note_off", "time": 77, "note": 65, "velocity": 84, "channel": 0}, {"type": "note_on", "time": 108, "note": 70, "velocity": 118, "channel": 0}, {"type": "note_off", "time": 65, "note": 70, "velocity": 118, "channel": 0}, {"type": "note_on", "time": 20, "note": 68, "velocity": 91, "channel": 0}, {"type": "note_off", "time": 76, "note": 68, "velocity": 91, "channel": 0}, {"type": "note_on", "time": 29, "note": 70, "velocity": 102, "channel": 0}, {"type": "note_off", "time": 212, "note": 70, "velocity": 102, "channel": 0}, {"type": "note_on", "time": 122, "note": 65, "velocity": 85, "channel": 0}, {"type": "note_off", "time": 38, "note": 65, "velocity": 85, "channel": 0}, {"type": "note_on", "time": 10, "note": 68, "velocity": 105, "channel": 0}, {"type": "note_off", "time": 54, "note": 68, "velocity": 105, "channel": 0}, {"type": "note_on", "time": 12, "note": 70, "velocity": 122, "channel": 0}, {"type": "note_off", "time": 57, "note": 70, "velocity": 122, "channel": 0}, {"type": "note_on", "time": 9, "note": 71, "velocity": 117, "channel": 0}, {"type": "note_off", "time": 68, "note": 71, "velocity": 117, "channel": 0}, {"type": "note_on", "time": 63, "note": 70, "velocity": 119, "channel": 0}, {"type": "note_off", "time": 59, "note": 70, "velocity": 119, "channel": 0}, {"type": "note_on", "time": 12, "note": 71, "velocity": 121, "channel": 0}, {"type": "note_off", "time": 83, "note": 71, "velocity": 121, "channel": 0}, {"type": "note_on", "time": 31, "note": 68, "velocity": 102, "channel": 0}, {"type": "note_off", "time": 101, "note": 68, "velocity": 102, "channel": 0}, {"type": "note_on", "time": 21, "note": 70, "velocity": 115, "channel": 0}, {"type": "note_off", "time": 66, "note": 70, "velocity": 115, "channel": 0}, {"type": "note_on", "time": 21, "note": 68, "velocity": 108, "channel": 0}, {"type": "note_off", "time": 85, "note": 68, "velocity": 108, "channel": 0}, {"type": "note_on", "time": 24, "note": 65, "velocity": 107, "channel": 0}, {"type": "note_off", "time": 57, "note": 65, "velocity": 107, "channel": 0}, {"type": "note_on", "time": 102, "note": 72, "velocity": 120, "channel": 0}, {"type": "note_off", "time": 93, "note": 72, "velocity": 120, "channel": 0}, {"type": "note_on", "time": 10, "note": 70, "velocity": 115, "channel": 0}, {"type": "note_off", "time": 93, "note": 70, "velocity": 115, "channel": 0}, {"type": "note_on", "time": 31, "note": 67, "velocity": 102, "channel": 0}, {"type": "note_off", "time": 24, "note": 67, "velocity": 102, "channel": 0}, {"type": "note_on", "time": 21, "note": 69, "velocity": 112, "channel": 0}, {"type": "note_off", "time": 60, "note": 69, "velocity": 112, "channel": 0}, {"type": "note_on", "time": 20, "note": 65, "velocity": 101, "channel": 0}, {"type": "note_off", "time": 49, "note": 65, "velocity": 101, "channel": 0}, {"type": "note_on", "time": 9, "note": 64, "velocity": 105, "channel": 0}, {"type": "note_off", "time": 43, "note": 64, "velocity": 105, "channel": 0}, {"type": "note_on", "time": 10, "note": 63, "velocity": 103, "channel": 0}, {"type": "note_off", "time": 87, "note": 63, "velocity": 103, "channel": 0}, {"type": "note_on", "time": 36, "note": 60, "velocity": 107, "channel": 0}, {"type": "note_off", "time": 61, "note": 60, "velocity": 107, "channel": 0}, {"type": "note_on", "time": 13, "note": 62, "velocity": 96, "channel": 0}, {"type": "note_off", "time": 169, "note": 62, "velocity": 96, "channel": 0}, {"type": "note_on", "time": 13, "note": 65, "velocity": 103, "channel": 0}, {"type": "note_off", "time": 55, "note": 65, "velocity": 103, "channel": 0}, {"type": "note_on", "time": 17, "note": 68, "velocity": 111, "channel": 0}, {"type": "note_off", "time": 48, "note": 68, "velocity": 111, "channel": 0}, {"type": "note_on", "time": 10, "note": 71, "velocity": 116, "channel": 0}, {"type": "note_off", "time": 51, "note": 71, "velocity": 116, "channel": 0}, {"type": "note_on", "time": 15, "note": 67, "velocity": 92, "channel": 0}, {"type": "note_off", "time": 98, "note": 67, "velocity": 92, "channel": 0}, {"type": "note_on", "time": 29, "note": 65, "velocity": 85, "channel": 0}, {"type": "note_off", "time": 246, "note": 65, "velocity": 85, "channel": 0}, {"type": "note_on", "time": 442, "note": 64, "velocity": 115, "channel": 0}, {"type": "note_off", "time": 51, "note": 64, "velocity": 115, "channel": 0}, {"type": "note_on", "time": 17, "note": 65, "velocity": 115, "channel": 0}, {"type": "note_off", "time": 66, "note": 65, "velocity": 115, "channel": 0}, {"type": "note_on", "time": 5, "note": 67, "velocity": 113, "channel": 0}, {"type": "note_off", "time": 45, "note": 67, "velocity": 113, "channel": 0}, {"type": "note_on", "time": 7, "note": 68, "velocity": 122, "channel": 0}, {"type": "note_off", "time": 57, "note": 68, "velocity": 122, "channel": 0}, {"type": "note_on", "time": 16, "note": 69, "velocity": 125, "channel": 0}, {"type": "note_off", "time": 57, "note": 69, "velocity": 125, "channel": 0}, {"type": "note_on", "time": 4, "note": 70, "velocity": 122, "channel": 0}, {"type": "note_off", "time": 56, "note": 70, "velocity": 122, "channel": 0}, {"type": "note_on", "time": 22, "note": 73, "velocity": 121, "channel": 0}, {"type": "note_off", "time": 56, "note": 73, "velocity": 121, "channel": 0}, {"type": "note_on", "time": 8, "note": 74, "velocity": 113, "channel": 0}, {"type": "note_off", "time": 67, "note": 74, "velocity": 113, "channel": 0}, {"type": "note_on", "time": 6, "note": 76, "velocity": 113, "channel": 0}, {"type": "note_off", "time": 57, "note": 76, "velocity": 113, "channel": 0}, {"type": "note_on", "time": 7, "note": 77, "velocity": 109, "channel": 0}, {"type": "note_off", "time": 45, "note": 77, "velocity": 109, "channel": 0}, {"type": "note_on", "time": 36, "note": 79, "velocity": 110, "channel": 0}, {"type": "note_off", "time": 50, "note": 79, "velocity": 110, "channel": 0}, {"type": "note_on", "time": 7, "note": 80, "velocity": 101, "channel": 0}, {"type": "note_off", "time": 54, "note": 80, "velocity": 101, "channel": 0}, {"type": "note_on", "time": 29, "note": 83, "velocity": 117, "channel": 0}, {"type": "note_off", "time": 58, "note": 83, "velocity": 117, "channel": 0}, {"type": "note_on", "time": 3, "note": 84, "velocity": 116, "channel": 0}, {"type": "note_off", "time": 65, "note": 84, "velocity": 116, "channel": 0}, {"type": "note_on", "time": 493, "note": 80, "velocity": 107, "channel": 0}, {"type": "note_off", "time": 114, "note": 80, "velocity": 107, "channel": 0}, {"type": "note_on", "time": 18, "note": 75, "velocity": 94, "channel": 0}, {"type": "note_off", "time": 56, "note": 75, "velocity": 94, "channel": 0}, {"type": "note_on", "time": 13, "note": 80, "velocity": 101, "channel": 0}, {"type": "note_off", "time": 131, "note": 80, "velocity": 101, "channel": 0}, {"type": "note_on", "time": 59, "note": 80, "velocity": 91, "channel": 0}, {"type": "note_off", "time": 155, "note": 80, "velocity": 91, "channel": 0}, {"type": "note_on", "time": 35, "note": 80, "velocity": 97, "channel": 0}, {"type": "note_off", "time": 147, "note": 80, "velocity": 97, "channel": 0}, {"type": "note_on", "time": 48, "note": 80, "velocity": 91, "channel": 0}, {"type": "note_off", "time": 144, "note": 80, "velocity": 91, "channel": 0}, {"type": "note_on", "time": 41, "note": 80, "velocity": 101, "channel": 0}, {"type": "note_off", "time": 142, "note": 80, "velocity": 101, "channel": 0}, {"type": "note_on", "time": 55, "note": 80, "velocity": 97, "channel": 0}, {"type": "note_off", "time": 155, "note": 80, "velocity": 97, "channel": 0}, {"type": "note_on", "time": 37, "note": 80, "velocity": 102, "channel": 0}, {"type": "note_off", "time": 155, "note": 80, "velocity": 102, "channel": 0}, {"type": "note_on", "time": 32, "note": 80, "velocity": 102, "channel": 0}, {"type": "note_off", "time": 101, "note": 80, "velocity": 102, "channel": 0}, {"type": "note_on", "time": 37, "note": 75, "velocity": 114, "channel": 0}, {"type": "note_off", "time": 69, "note": 75, "velocity": 114, "channel": 0}, {"type": "note_on", "time": 20, "note": 71, "velocity": 115, "channel": 0}, {"type": "note_off", "time": 90, "note": 71, "velocity": 115, "channel": 0}, {"type": "note_on", "time": 10, "note": 68, "velocity": 98, "channel": 0}, {"type": "note_off", "time": 58, "note": 68, "velocity": 98, "channel": 0}, {"type": "note_on", "time": 25, "note": 71, "velocity": 123, "channel": 0}, {"type": "note_off", "time": 86, "note": 71, "velocity": 123, "channel": 0}, {"type": "note_on", "time": 7, "note": 72, "velocity": 126, "channel": 0}, {"type": "note_off", "time": 80, "note": 72, "velocity": 126, "channel": 0}, {"type": "note_on", "time": 17, "note": 73, "velocity": 116, "channel": 0}, {"type": "note_off", "time": 97, "note": 73, "velocity": 116, "channel": 0}, {"type": "note_on", "time": 13, "note": 74, "velocity": 114, "channel": 0}, {"type": "note_off", "time": 91, "note": 74, "velocity": 114, "channel": 0}, {"type": "note_on", "time": 24, "note": 73, "velocity": 120, "channel": 0}, {"type": "note_off", "time": 45, "note": 73, "velocity": 120, "channel": 0}, {"type": "note_on", "time": 5, "note": 74, "velocity": 120, "channel": 0}, {"type": "note_off", "time": 55, "note": 74, "velocity": 120, "channel": 0}, {"type": "note_on", "time": 26, "note": 73, "velocity": 117, "channel": 0}, {"type": "note_off", "time": 42, "note": 73, "velocity": 117, "channel": 0}, {"type": "note_on", "time": 2, "note": 74, "velocity": 119, "channel": 0}, {"type": "note_off", "time": 45, "note": 74, "velocity": 119, "channel": 0}, {"type": "note_on", "time": 33, "note": 74, "velocity": 117, "channel": 0}, {"type": "note_off", "time": 82, "note": 74, "velocity": 117, "channel": 0}, {"type": "note_on", "time": 7, "note": 73, "velocity": 112, "channel": 0}, {"type": "note_off", "time": 60, "note": 73, "velocity": 112, "channel": 0}, {"type": "note_on", "time": 18, "note": 71, "velocity": 114, "channel": 0}, {"type": "note_off", "time": 91, "note": 71, "velocity": 114, "channel": 0}, {"type": "note_on", "time": 16, "note": 68, "velocity": 104, "channel": 0}, {"type": "note_off", "time": 80, "note": 68, "velocity": 104, "channel": 0}, {"type": "note_on", "time": 25, "note": 77, "velocity": 105, "channel": 0}, {"type": "note_off", "time": 72, "note": 77, "velocity": 105, "channel": 0}, {"type": "note_on", "time": 15, "note": 75, "velocity": 114, "channel": 0}, {"type": "note_off", "time": 67, "note": 75, "velocity": 114, "channel": 0}, {"type": "note_on", "time": 9, "note": 70, "velocity": 122, "channel": 0}, {"type": "note_off", "time": 32, "note": 70, "velocity": 122, "channel": 0}, {"type": "note_on", "time": 5, "note": 71, "velocity": 109, "channel": 0}, {"type": "note_off", "time": 42, "note": 71, "velocity": 109, "channel": 0}, {"type": "note_on", "time": 16, "note": 68, "velocity": 103, "channel": 0}, {"type": "note_off", "time": 32, "note": 68, "velocity": 103, "channel": 0}, {"type": "note_on", "time": 29, "note": 67, "velocity": 98, "channel": 0}, {"type": "note_off", "time": 36, "note": 67, "velocity": 98, "channel": 0}, {"type": "note_on", "time": 32, "note": 63, "velocity": 96, "channel": 0}, {"type": "note_off", "time": 35, "note": 63, "velocity": 96, "channel": 0}, {"type": "note_on", "time": 34, "note": 58, "velocity": 97, "channel": 0}, {"type": "note_off", "time": 68, "note": 58, "velocity": 97, "channel": 0}, {"type": "note_on", "time": 19, "note": 64, "velocity": 97, "channel": 0}, {"type": "note_off", "time": 25, "note": 64, "velocity": 97, "channel": 0}, {"type": "note_on", "time": 7, "note": 65, "velocity": 97, "channel": 0}, {"type": "note_off", "time": 28, "note": 65, "velocity": 97, "channel": 0}, {"type": "note_on", "time": 21, "note": 63, "velocity": 80, "channel": 0}, {"type": "note_off", "time": 400, "note": 63, "velocity": 80, "channel": 0}, {"type": "note_on", "time": 553, "note": 75, "velocity": 113, "channel": 0}, {"type": "note_off", "time": 39, "note": 75, "velocity": 113, "channel": 0}, {"type": "note_on", "time": 5, "note": 77, "velocity": 107, "channel": 0}, {"type": "note_off", "time": 75, "note": 77, "velocity": 107, "channel": 0}, {"type": "note_on", "time": 17, "note": 80, "velocity": 106, "channel": 0}, {"type": "note_off", "time": 64, "note": 80, "velocity": 106, "channel": 0}, {"type": "note_on", "time": 22, "note": 75, "velocity": 116, "channel": 0}, {"type": "note_off", "time": 30, "note": 75, "velocity": 116, "channel": 0}, {"type": "note_on", "time": 4, "note": 76, "velocity": 114, "channel": 0}, {"type": "note_off", "time": 49, "note": 76, "velocity": 114, "channel": 0}, {"type": "note_on", "time": 12, "note": 75, "velocity": 112, "channel": 0}, {"type": "note_off", "time": 67, "note": 75, "velocity": 112, "channel": 0}, {"type": "note_on", "time": 24, "note": 70, "velocity": 112, "channel": 0}, {"type": "note_off", "time": 99, "note": 70, "velocity": 112, "channel": 0}, {"type": "note_on", "time": 14, "note": 68, "velocity": 92, "channel": 0}, {"type": "note_off", "time": 228, "note": 68, "velocity": 92, "channel": 0}, {"type": "note_on", "time": 26, "note": 65, "velocity": 97, "channel": 0}, {"type": "note_off", "time": 71, "note": 65, "velocity": 97, "channel": 0}, {"type": "note_on", "time": 5, "note": 64, "velocity": 84, "channel": 0}, {"type": "note_off", "time": 28, "note": 64, "velocity": 84, "channel": 0}, {"type": "note_on", "time": 594, "note": 70, "velocity": 124, "channel": 0}, {"type": "note_off", "time": 56, "note": 70, "velocity": 124, "channel": 0}, {"type": "note_on", "time": 4, "note": 71, "velocity": 127, "channel": 0}, {"type": "note_off", "time": 130, "note": 71, "velocity": 127, "channel": 0}, {"type": "note_on", "time": 56, "note": 70, "velocity": 122, "channel": 0}, {"type": "note_off", "time": 72, "note": 70, "velocity": 122, "channel": 0}, {"type": "note_on", "time": 4, "note": 71, "velocity": 114, "channel": 0}, {"type": "note_off", "time": 99, "note": 71, "velocity": 114, "channel": 0}, {"type": "note_on", "time": 11, "note": 68, "velocity": 97, "channel": 0}, {"type": "note_off", "time": 106, "note": 68, "velocity": 97, "channel": 0}, {"type": "note_on", "time": 647, "note": 70, "velocity": 118, "channel": 0}, {"type": "note_off", "time": 50, "note": 70, "velocity": 118, "channel": 0}, {"type": "note_on", "time": 4, "note": 71, "velocity": 123, "channel": 0}, {"type": "note_off", "time": 75, "note": 71, "velocity": 123, "channel": 0}, {"type": "note_on", "time": 11, "note": 68, "velocity": 99, "channel": 0}, {"type": "note_off", "time": 81, "note": 68, "velocity": 99, "channel": 0}, {"type": "note_on", "time": 18, "note": 71, "velocity": 125, "channel": 0}, {"type": "note_off", "time": 99, "note": 71, "velocity": 125, "channel": 0}, {"type": "note_on", "time": 32, "note": 73, "velocity": 117, "channel": 0}, {"type": "note_off", "time": 64, "note": 73, "velocity": 117, "channel": 0}, {"type": "note_on", "time": 9, "note": 74, "velocity": 118, "channel": 0}, {"type": "note_off", "time": 66, "note": 74, "velocity": 118, "channel": 0}, {"type": "note_on", "time": 9, "note": 73, "velocity": 114, "channel": 0}, {"type": "note_off", "time": 64, "note": 73, "velocity": 114, "channel": 0}, {"type": "note_on", "time": 453, "note": 68, "velocity": 107, "channel": 0}, {"type": "note_off", "time": 67, "note": 68, "velocity": 107, "channel": 0}, {"type": "note_on", "time": 19, "note": 71, "velocity": 124, "channel": 0}, {"type": "note_off", "time": 77, "note": 71, "velocity": 124, "channel": 0}, {"type": "note_on", "time": 45, "note": 73, "velocity": 120, "channel": 0}, {"type": "note_off", "time": 64, "note": 73, "velocity": 120, "channel": 0}, {"type": "note_on", "time": 9, "note": 74, "velocity": 113, "channel": 0}, {"type": "note_off", "time": 95, "note": 74, "velocity": 113, "channel": 0}, {"type": "note_on", "time": 6, "note": 73, "velocity": 75, "channel": 0}, {"type": "note_off", "time": 29, "note": 73, "velocity": 75, "channel": 0}, {"type": "note_on", "time": 232, "note": 70, "velocity": 114, "channel": 0}, {"type": "note_off", "time": 175, "note": 70, "velocity": 114, "channel": 0}, {"type": "note_on", "time": 22, "note": 68, "velocity": 109, "channel": 0}, {"type": "note_off", "time": 27, "note": 68, "velocity": 109, "channel": 0}, {"type": "note_on", "time": 8, "note": 69, "velocity": 113, "channel": 0}, {"type": "note_off", "time": 54, "note": 69, "velocity": 113, "channel": 0}, {"type": "note_on", "time": 12, "note": 68, "velocity": 107, "channel": 0}, {"type": "note_off", "time": 34, "note": 68, "velocity": 107, "channel": 0}, {"type": "note_on", "time": 59, "note": 65, "velocity": 94, "channel": 0}, {"type": "note_off", "time": 49, "note": 65, "velocity": 94, "channel": 0}, {"type": "note_on", "time": 22, "note": 68, "velocity": 100, "channel": 0}, {"type": "note_off", "time": 108, "note": 68, "velocity": 100, "channel": 0}, {"type": "note_on", "time": 80, "note": 70, "velocity": 105, "channel": 0}, {"type": "note_off", "time": 34, "note": 70, "velocity": 105, "channel": 0}, {"type": "note_on", "time": 7, "note": 71, "velocity": 116, "channel": 0}, {"type": "note_off", "time": 40, "note": 71, "velocity": 116, "channel": 0}, {"type": "note_on", "time": 2, "note": 72, "velocity": 114, "channel": 0}, {"type": "note_off", "time": 77, "note": 72, "velocity": 114, "channel": 0}, {"type": "note_on", "time": 29, "note": 65, "velocity": 90, "channel": 0}, {"type": "note_off", "time": 99, "note": 65, "velocity": 90, "channel": 0}, {"type": "note_on", "time": 86, "note": 68, "velocity": 89, "channel": 0}, {"type": "note_off", "time": 265, "note": 68, "velocity": 89, "channel": 0}, {"type": "note_on", "time": 460, "note": 80, "velocity": 102, "channel": 0}, {"type": "note_off", "time": 735, "note": 80, "velocity": 102, "channel": 0}, {"type": "note_on", "time": 87, "note": 80, "velocity": 98, "channel": 0}, {"type": "note_off", "time": 133, "note": 80, "velocity": 98, "channel": 0}, {"type": "note_on", "time": 17, "note": 80, "velocity": 103, "channel": 0}, {"type": "note_off", "time": 54, "note": 80, "velocity": 103, "channel": 0}, {"type": "note_on", "time": 513, "note": 83, "velocity": 116, "channel": 0}, {"type": "note_off", "time": 151, "note": 83, "velocity": 116, "channel": 0}, {"type": "note_on", "time": 77, "note": 83, "velocity": 116, "channel": 0}, {"type": "note_off", "time": 132, "note": 83, "velocity": 116, "channel": 0}, {"type": "note_on", "time": 56, "note": 80, "velocity": 99, "channel": 0}, {"type": "note_off", "time": 83, "note": 80, "velocity": 99, "channel": 0}, {"type": "note_on", "time": 27, "note": 78, "velocity": 100, "channel": 0}, {"type": "note_off", "time": 62, "note": 78, "velocity": 100, "channel": 0}, {"type": "note_on", "time": 25, "note": 75, "velocity": 104, "channel": 0}, {"type": "note_off", "time": 94, "note": 75, "velocity": 104, "channel": 0}, {"type": "note_on", "time": 14, "note": 73, "velocity": 111, "channel": 0}, {"type": "note_off", "time": 91, "note": 73, "velocity": 111, "channel": 0}, {"type": "note_on", "time": 27, "note": 71, "velocity": 120, "channel": 0}, {"type": "note_off", "time": 108, "note": 71, "velocity": 120, "channel": 0}, {"type": "note_on", "time": 39, "note": 68, "velocity": 93, "channel": 0}, {"type": "note_off", "time": 101, "note": 68, "velocity": 93, "channel": 0}, {"type": "note_on", "time": 13, "note": 70, "velocity": 110, "channel": 0}, {"type": "note_off", "time": 45, "note": 70, "velocity": 110, "channel": 0}, {"type": "note_on", "time": 6, "note": 71, "velocity": 125, "channel": 0}, {"type": "note_off", "time": 52, "note": 71, "velocity": 125, "channel": 0}, {"type": "note_on", "time": 17, "note": 68, "velocity": 93, "channel": 0}, {"type": "note_off", "time": 53, "note": 68, "velocity": 93, "channel": 0}, {"type": "note_on", "time": 13, "note": 71, "velocity": 122, "channel": 0}, {"type": "note_off", "time": 77, "note": 71, "velocity": 122, "channel": 0}, {"type": "note_on", "time": 4, "note": 72, "velocity": 121, "channel": 0}, {"type": "note_off", "time": 98, "note": 72, "velocity": 121, "channel": 0}, {"type": "note_on", "time": 16, "note": 73, "velocity": 120, "channel": 0}, {"type": "note_off", "time": 95, "note": 73, "velocity": 120, "channel": 0}, {"type": "note_on", "time": 15, "note": 74, "velocity": 116, "channel": 0}, {"type": "note_off", "time": 83, "note": 74, "velocity": 116, "channel": 0}, {"type": "note_on", "time": 11, "note": 75, "velocity": 108, "channel": 0}, {"type": "note_off", "time": 65, "note": 75, "velocity": 108, "channel": 0}, {"type": "note_on", "time": 27, "note": 71, "velocity": 113, "channel": 0}, {"type": "note_off", "time": 38, "note": 71, "velocity": 113, "channel": 0}, {"type": "note_on", "time": 3, "note": 72, "velocity": 109, "channel": 0}, {"type": "note_off", "time": 55, "note": 72, "velocity": 109, "channel": 0}, {"type": "note_on", "time": 11, "note": 68, "velocity": 107, "channel": 0}, {"type": "note_off", "time": 54, "note": 68, "velocity": 107, "channel": 0}, {"type": "note_on", "time": 21, "note": 63, "velocity": 95, "channel": 0}, {"type": "note_off", "time": 55, "note": 63, "velocity": 95, "channel": 0}, {"type": "note_on", "time": 8, "note": 60, "velocity": 94, "channel": 0}, {"type": "note_off", "time": 24, "note": 60, "velocity": 94, "channel": 0}, {"type": "note_on", "time": 1, "note": 61, "velocity": 91, "channel": 0}, {"type": "note_off", "time": 38, "note": 61, "velocity": 91, "channel": 0}, {"type": "note_on", "time": 6, "note": 57, "velocity": 97, "channel": 0}, {"type": "note_off", "time": 48, "note": 57, "velocity": 97, "channel": 0}, {"type": "note_on", "time": 13, "note": 59, "velocity": 100, "channel": 0}, {"type": "note_off", "time": 45, "note": 59, "velocity": 100, "channel": 0}, {"type": "note_on", "time": 5, "note": 60, "velocity": 90, "channel": 0}, {"type": "note_off", "time": 46, "note": 60, "velocity": 90, "channel": 0}, {"type": "note_on", "time": 22, "note": 63, "velocity": 105, "channel": 0}, {"type": "note_off", "time": 80, "note": 63, "velocity": 105, "channel": 0}, {"type": "note_on", "time": 20, "note": 63, "velocity": 98, "channel": 0}, {"type": "note_off", "time": 17, "note": 63, "velocity": 98, "channel": 0}, {"type": "note_on", "time": 7, "note": 64, "velocity": 106, "channel": 0}, {"type": "note_off", "time": 20, "note": 64, "velocity": 106, "channel": 0}, {"type": "note_on", "time": 4, "note": 65, "velocity": 98, "channel": 0}, {"type": "note_off", "time": 69, "note": 65, "velocity": 98, "channel": 0}, {"type": "note_on", "time": 17, "note": 68, "velocity": 93, "channel": 0}, {"type": "note_off", "time": 113, "note": 68, "velocity": 93, "channel": 0}, {"type": "note_on", "time": 14, "note": 70, "velocity": 115, "channel": 0}, {"type": "note_off", "time": 38, "note": 70, "velocity": 115, "channel": 0}, {"type": "note_on", "time": 7, "note": 72, "velocity": 119, "channel": 0}, {"type": "note_off", "time": 69, "note": 72, "velocity": 119, "channel": 0}, {"type": "note_on", "time": 7, "note": 75, "velocity": 110, "channel": 0}, {"type": "note_off", "time": 129, "note": 75, "velocity": 110, "channel": 0}, {"type": "note_on", "time": 17, "note": 76, "velocity": 108, "channel": 0}, {"type": "note_off", "time": 37, "note": 76, "velocity": 108, "channel": 0}, {"type": "note_on", "time": 3, "note": 77, "velocity": 102, "channel": 0}, {"type": "note_off", "time": 73, "note": 77, "velocity": 102, "channel": 0}, {"type": "note_on", "time": 24, "note": 80, "velocity": 103, "channel": 0}, {"type": "note_off", "time": 77, "note": 80, "velocity": 103, "channel": 0}, {"type": "note_on", "time": 31, "note": 75, "velocity": 104, "channel": 0}, {"type": "note_off", "time": 37, "note": 75, "velocity": 104, "channel": 0}, {"type": "note_on", "time": 6, "note": 77, "velocity": 103, "channel": 0}, {"type": "note_off", "time": 51, "note": 77, "velocity": 103, "channel": 0}, {"type": "note_on", "time": 48, "note": 75, "velocity": 107, "channel": 0}, {"type": "note_off", "time": 70, "note": 75, "velocity": 107, "channel": 0}, {"type": "note_on", "time": 49, "note": 71, "velocity": 116, "channel": 0}, {"type": "note_off", "time": 84, "note": 71, "velocity": 116, "channel": 0}, {"type": "note_on", "time": 15, "note": 70, "velocity": 107, "channel": 0}, {"type": "note_off", "time": 108, "note": 70, "velocity": 107, "channel": 0}, {"type": "note_on", "time": 20, "note": 70, "velocity": 94, "channel": 0}, {"type": "note_off", "time": 456, "note": 70, "velocity": 94, "channel": 0}, {"type": "note_on", "time": 566, "note": 70, "velocity": 116, "channel": 0}, {"type": "note_off", "time": 140, "note": 70, "velocity": 116, "channel": 0}, {"type": "note_on", "time": 38, "note": 65, "velocity": 98, "channel": 0}, {"type": "note_off", "time": 110, "note": 65, "velocity": 98, "channel": 0}, {"type": "note_on", "time": 9, "note": 70, "velocity": 114, "channel": 0}, {"type": "note_off", "time": 69, "note": 70, "velocity": 114, "channel": 0}, {"type": "note_on", "time": 5, "note": 68, "velocity": 108, "channel": 0}, {"type": "note_off", "time": 84, "note": 68, "velocity": 108, "channel": 0}, {"type": "note_on", "time": 43, "note": 60, "velocity": 98, "channel": 0}, {"type": "note_off", "time": 60, "note": 60, "velocity": 98, "channel": 0}, {"type": "note_on", "time": 2, "note": 61, "velocity": 91, "channel": 0}, {"type": "note_off", "time": 53, "note": 61, "velocity": 91, "channel": 0}, {"type": "note_on", "time": 12, "note": 65, "velocity": 89, "channel": 0}, {"type": "note_off", "time": 33, "note": 65, "velocity": 89, "channel": 0}, {"type": "note_on", "time": 11, "note": 68, "velocity": 110, "channel": 0}, {"type": "note_off", "time": 97, "note": 68, "velocity": 110, "channel": 0}, {"type": "note_on", "time": 19, "note": 70, "velocity": 108, "channel": 0}, {"type": "note_off", "time": 28, "note": 70, "velocity": 108, "channel": 0}, {"type": "note_on", "time": 8, "note": 72, "velocity": 118, "channel": 0}, {"type": "note_off", "time": 81, "note": 72, "velocity": 118, "channel": 0}, {"type": "note_on", "time": 30, "note": 68, "velocity": 109, "channel": 0}, {"type": "note_off", "time": 91, "note": 68, "velocity": 109, "channel": 0}, {"type": "note_on", "time": 45, "note": 65, "velocity": 89, "channel": 0}, {"type": "note_off", "time": 51, "note": 65, "velocity": 89, "channel": 0}, {"type": "note_on", "time": 9, "note": 70, "velocity": 112, "channel": 0}, {"type": "note_off", "time": 113, "note": 70, "velocity": 112, "channel": 0}, {"type": "note_on", "time": 16, "note": 65, "velocity": 75, "channel": 0}, {"type": "note_off", "time": 44, "note": 65, "velocity": 75, "channel": 0}, {"type": "note_on", "time": 16, "note": 68, "velocity": 87, "channel": 0}, {"type": "note_off", "time": 247, "note": 68, "velocity": 87, "channel": 0}, {"type": "note_on", "time": 447, "note": 69, "velocity": 109, "channel": 0}, {"type": "note_off", "time": 69, "note": 69, "velocity": 109, "channel": 0}, {"type": "note_on", "time": 9, "note": 73, "velocity": 117, "channel": 0}, {"type": "note_off", "time": 111, "note": 73, "velocity": 117, "channel": 0}, {"type": "note_on", "time": 12, "note": 77, "velocity": 110, "channel": 0}, {"type": "note_off", "time": 68, "note": 77, "velocity": 110, "channel": 0}, {"type": "note_on", "time": 19, "note": 80, "velocity": 101, "channel": 0}, {"type": "note_off", "time": 102, "note": 80, "velocity": 101, "channel": 0}, {"type": "note_on", "time": 70, "note": 70, "velocity": 80, "channel": 0}, {"type": "note_off", "time": 183, "note": 70, "velocity": 80, "channel": 0}, {"type": "note_on", "time": 21, "note": 73, "velocity": 95, "channel": 0}, {"type": "note_off", "time": 153, "note": 73, "velocity": 95, "channel": 0}, {"type": "note_on", "time": 42, "note": 76, "velocity": 108, "channel": 0}, {"type": "note_off", "time": 61, "note": 76, "velocity": 108, "channel": 0}, {"type": "note_on", "time": 6, "note": 77, "velocity": 93, "channel": 0}, {"type": "note_off", "time": 53, "note": 77, "velocity": 93, "channel": 0}, {"type": "note_on", "time": 14, "note": 73, "velocity": 111, "channel": 0}, {"type": "note_off", "time": 67, "note": 73, "velocity": 111, "channel": 0}, {"type": "note_on", "time": 501, "note": 65, "velocity": 94, "channel": 0}, {"type": "note_off", "time": 54, "note": 65, "velocity": 94, "channel": 0}, {"type": "note_on", "time": 16, "note": 68, "velocity": 99, "channel": 0}, {"type": "note_off", "time": 106, "note": 68, "velocity": 99, "channel": 0}, {"type": "note_on", "time": 13, "note": 72, "velocity": 121, "channel": 0}, {"type": "note_off", "time": 88, "note": 72, "velocity": 121, "channel": 0}, {"type": "note_on", "time": 12, "note": 77, "velocity": 109, "channel": 0}, {"type": "note_off", "time": 87, "note": 77, "velocity": 109, "channel": 0}, {"type": "note_on", "time": 66, "note": 65, "velocity": 83, "channel": 0}, {"type": "note_off", "time": 101, "note": 65, "velocity": 83, "channel": 0}, {"type": "note_on", "time": 83, "note": 68, "velocity": 103, "channel": 0}, {"type": "note_off", "time": 129, "note": 68, "velocity": 103, "channel": 0}, {"type": "note_on", "time": 30, "note": 65, "velocity": 76, "channel": 0}, {"type": "note_off", "time": 27, "note": 65, "velocity": 76, "channel": 0}, {"type": "note_on", "time": 7, "note": 68, "velocity": 97, "channel": 0}, {"type": "note_off", "time": 127, "note": 68, "velocity": 97, "channel": 0}, {"type": "note_on", "time": 15, "note": 71, "velocity": 115, "channel": 0}, {"type": "note_off", "time": 32, "note": 71, "velocity": 115, "channel": 0}, {"type": "note_on", "time": 0, "note": 72, "velocity": 114, "channel": 0}, {"type": "note_off", "time": 67, "note": 72, "velocity": 114, "channel": 0}, {"type": "note_on", "time": 18, "note": 69, "velocity": 104, "channel": 0}, {"type": "note_off", "time": 48, "note": 69, "velocity": 104, "channel": 0}, {"type": "note_on", "time": 20, "note": 65, "velocity": 97, "channel": 0}, {"type": "note_off", "time": 47, "note": 65, "velocity": 97, "channel": 0}, {"type": "note_on", "time": 9, "note": 63, "velocity": 89, "channel": 0}, {"type": "note_off", "time": 117, "note": 63, "velocity": 89, "channel": 0}, {"type": "note_on", "time": 31, "note": 62, "velocity": 99, "channel": 0}, {"type": "note_off", "time": 230, "note": 62, "velocity": 99, "channel": 0}, {"type": "note_on", "time": 200, "note": 65, "velocity": 102, "channel": 0}, {"type": "note_off", "time": 104, "note": 65, "velocity": 102, "channel": 0}, {"type": "note_on", "time": 5, "note": 68, "velocity": 122, "channel": 0}, {"type": "note_off", "time": 97, "note": 68, "velocity": 122, "channel": 0}, {"type": "note_on", "time": 10, "note": 72, "velocity": 121, "channel": 0}, {"type": "note_off", "time": 97, "note": 72, "velocity": 121, "channel": 0}, {"type": "note_on", "time": 12, "note": 77, "velocity": 109, "channel": 0}, {"type": "note_off", "time": 62, "note": 77, "velocity": 109, "channel": 0}, {"type": "note_on", "time": 8, "note": 72, "velocity": 111, "channel": 0}, {"type": "note_off", "time": 132, "note": 72, "velocity": 111, "channel": 0}, {"type": "note_on", "time": 59, "note": 65, "velocity": 83, "channel": 0}, {"type": "note_off", "time": 79, "note": 65, "velocity": 83, "channel": 0}, {"type": "note_on", "time": 26, "note": 68, "velocity": 111, "channel": 0}, {"type": "note_off", "time": 76, "note": 68, "velocity": 111, "channel": 0}, {"type": "note_on", "time": 23, "note": 70, "velocity": 107, "channel": 0}, {"type": "note_off", "time": 21, "note": 70, "velocity": 107, "channel": 0}, {"type": "note_on", "time": 8, "note": 72, "velocity": 119, "channel": 0}, {"type": "note_off", "time": 94, "note": 72, "velocity": 119, "channel": 0}, {"type": "note_on", "time": 26, "note": 70, "velocity": 109, "channel": 0}, {"type": "note_off", "time": 29, "note": 70, "velocity": 109, "channel": 0}, {"type": "note_on", "time": 5, "note": 72, "velocity": 116, "channel": 0}, {"type": "note_off", "time": 90, "note": 72, "velocity": 116, "channel": 0}, {"type": "note_on", "time": 10, "note": 70, "velocity": 106, "channel": 0}, {"type": "note_off", "time": 20, "note": 70, "velocity": 106, "channel": 0}, {"type": "note_on", "time": 3, "note": 72, "velocity": 114, "channel": 0}, {"type": "note_off", "time": 68, "note": 72, "velocity": 114, "channel": 0}, {"type": "note_on", "time": 31, "note": 65, "velocity": 86, "channel": 0}, {"type": "note_off", "time": 65, "note": 65, "velocity": 86, "channel": 0}, {"type": "note_on", "time": 16, "note": 70, "velocity": 95, "channel": 0}, {"type": "note_off", "time": 246, "note": 70, "velocity": 95, "channel": 0}, {"type": "note_on", "time": 27, "note": 65, "velocity": 87, "channel": 0}, {"type": "note_off", "time": 56, "note": 65, "velocity": 87, "channel": 0}, {"type": "note_on", "time": 6, "note": 64, "velocity": 82, "channel": 0}, {"type": "note_off", "time": 29, "note": 64, "velocity": 82, "channel": 0}, {"type": "note_on", "time": 877, "note": 68, "velocity": 110, "channel": 0}, {"type": "note_off", "time": 116, "note": 68, "velocity": 110, "channel": 0}, {"type": "note_on", "time": 4, "note": 67, "velocity": 98, "channel": 0}, {"type": "note_off", "time": 47, "note": 67, "velocity": 98, "channel": 0}, {"type": "note_on", "time": 14, "note": 73, "velocity": 96, "channel": 0}, {"type": "note_off", "time": 65, "note": 73, "velocity": 96, "channel": 0}, {"type": "note_on", "time": 9, "note": 74, "velocity": 111, "channel": 0}, {"type": "note_off", "time": 28, "note": 74, "velocity": 111, "channel": 0}, {"type": "note_on", "time": 11, "note": 75, "velocity": 107, "channel": 0}, {"type": "note_off", "time": 1366, "note": 75, "velocity": 107, "channel": 0}, {"type": "note_on", "time": 28, "note": 80, "velocity": 103, "channel": 0}, {"type": "note_off", "time": 75, "note": 80, "velocity": 103, "channel": 0}, {"type": "note_on", "time": 39, "note": 75, "velocity": 99, "channel": 0}, {"type": "note_off", "time": 433, "note": 75, "velocity": 99, "channel": 0}, {"type": "note_on", "time": 6, "note": 74, "velocity": 90, "channel": 0}, {"type": "note_off", "time": 30, "note": 74, "velocity": 90, "channel": 0}, {"type": "note_on", "time": 8, "note": 71, "velocity": 105, "channel": 0}, {"type": "note_off", "time": 66, "note": 71, "velocity": 105, "channel": 0}, {"type": "note_on", "time": 15, "note": 68, "velocity": 100, "channel": 0}, {"type": "note_off", "time": 59, "note": 68, "velocity": 100, "channel": 0}, {"type": "note_on", "time": 10, "note": 72, "velocity": 111, "channel": 0}, {"type": "note_off", "time": 26, "note": 72, "velocity": 111, "channel": 0}, {"type": "note_on", "time": 1, "note": 73, "velocity": 114, "channel": 0}, {"type": "note_off", "time": 37, "note": 73, "velocity": 114, "channel": 0}, {"type": "note_on", "time": 6, "note": 75, "velocity": 111, "channel": 0}, {"type": "note_off", "time": 45, "note": 75, "velocity": 111, "channel": 0}, {"type": "note_on", "time": 18, "note": 71, "velocity": 116, "channel": 0}, {"type": "note_off", "time": 52, "note": 71, "velocity": 116, "channel": 0}, {"type": "note_on", "time": 9, "note": 72, "velocity": 107, "channel": 0}, {"type": "note_off", "time": 52, "note": 72, "velocity": 107, "channel": 0}, {"type": "note_on", "time": 7, "note": 68, "velocity": 101, "channel": 0}, {"type": "note_off", "time": 57, "note": 68, "velocity": 101, "channel": 0}, {"type": "note_on", "time": 18, "note": 63, "velocity": 96, "channel": 0}, {"type": "note_off", "time": 43, "note": 63, "velocity": 96, "channel": 0}, {"type": "note_on", "time": 24, "note": 61, "velocity": 94, "channel": 0}, {"type": "note_off", "time": 49, "note": 61, "velocity": 94, "channel": 0}, {"type": "note_on", "time": 86, "note": 59, "velocity": 98, "channel": 0}, {"type": "note_off", "time": 34, "note": 59, "velocity": 98, "channel": 0}, {"type": "note_on", "time": 8, "note": 60, "velocity": 91, "channel": 0}, {"type": "note_off", "time": 65, "note": 60, "velocity": 91, "channel": 0}, {"type": "note_on", "time": 7, "note": 63, "velocity": 92, "channel": 0}, {"type": "note_off", "time": 103, "note": 63, "velocity": 92, "channel": 0}, {"type": "note_on", "time": 23, "note": 65, "velocity": 98, "channel": 0}, {"type": "note_off", "time": 50, "note": 65, "velocity": 98, "channel": 0}, {"type": "note_on", "time": 11, "note": 68, "velocity": 92, "channel": 0}, {"type": "note_off", "time": 21, "note": 68, "velocity": 92, "channel": 0}, {"type": "note_on", "time": 15, "note": 70, "velocity": 117, "channel": 0}, {"type": "note_off", "time": 85, "note": 70, "velocity": 117, "channel": 0}, {"type": "note_on", "time": 9, "note": 69, "velocity": 98, "channel": 0}, {"type": "note_off", "time": 29, "note": 69, "velocity": 98, "channel": 0}, {"type": "note_on", "time": 4, "note": 70, "velocity": 112, "channel": 0}, {"type": "note_off", "time": 140, "note": 70, "velocity": 112, "channel": 0}, {"type": "note_on", "time": 29, "note": 70, "velocity": 108, "channel": 0}, {"type": "note_off", "time": 49, "note": 70, "velocity": 108, "channel": 0}, {"type": "note_on", "time": 12, "note": 65, "velocity": 86, "channel": 0}, {"type": "note_off", "time": 110, "note": 65, "velocity": 86, "channel": 0}, {"type": "note_on", "time": 274, "note": 70, "velocity": 114, "channel": 0}, {"type": "note_off", "time": 122, "note": 70, "velocity": 114, "channel": 0}, {"type": "note_on", "time": 68, "note": 70, "velocity": 118, "channel": 0}, {"type": "note_off", "time": 117, "note": 70, "velocity": 118, "channel": 0}, {"type": "note_on", "time": 24, "note": 70, "velocity": 117, "channel": 0}, {"type": "note_off", "time": 77, "note": 70, "velocity": 117, "channel": 0}, {"type": "note_on", "time": 47, "note": 64, "velocity": 92, "channel": 0}, {"type": "note_off", "time": 76, "note": 64, "velocity": 92, "channel": 0}, {"type": "note_on", "time": 55, "note": 70, "velocity": 118, "channel": 0}, {"type": "note_off", "time": 110, "note": 70, "velocity": 118, "channel": 0}, {"type": "note_on", "time": 29, "note": 65, "velocity": 86, "channel": 0}, {"type": "note_off", "time": 28, "note": 65, "velocity": 86, "channel": 0}, {"type": "note_on", "time": 6, "note": 68, "velocity": 9, "channel": 0}, {"type": "note_off", "time": 190, "note": 68, "velocity": 9, "channel": 0}, {"type": "note_on", "time": 23, "note": 63, "velocity": 95, "channel": 0}, {"type": "note_off", "time": 54, "note": 63, "velocity": 95, "channel": 0}, {"type": "note_on", "time": 26, "note": 60, "velocity": 78, "channel": 0}, {"type": "note_off", "time": 33, "note": 60, "velocity": 78, "channel": 0}, {"type": "note_on", "time": 13, "note": 61, "velocity": 84, "channel": 0}, {"type": "note_off", "time": 38, "note": 61, "velocity": 84, "channel": 0}, {"type": "note_on", "time": 34, "note": 70, "velocity": 112, "channel": 0}, {"type": "note_off", "time": 109, "note": 70, "velocity": 112, "channel": 0}, {"type": "note_on", "time": 16, "note": 68, "velocity": 88, "channel": 0}, {"type": "note_off", "time": 234, "note": 68, "velocity": 88, "channel": 0}, {"type": "note_on", "time": 780, "note": 83, "velocity": 115, "channel": 0}, {"type": "note_off", "time": 153, "note": 83, "velocity": 115, "channel": 0}, {"type": "note_on", "time": 26, "note": 83, "velocity": 113, "channel": 0}, {"type": "note_off", "time": 192, "note": 83, "velocity": 113, "channel": 0}, {"type": "note_on", "time": 26, "note": 80, "velocity": 105, "channel": 0}, {"type": "note_off", "time": 113, "note": 80, "velocity": 105, "channel": 0}, {"type": "note_on", "time": 12, "note": 78, "velocity": 103, "channel": 0}, {"type": "note_off", "time": 61, "note": 78, "velocity": 103, "channel": 0}, {"type": "note_on", "time": 14, "note": 75, "velocity": 113, "channel": 0}, {"type": "note_off", "time": 101, "note": 75, "velocity": 113, "channel": 0}, {"type": "note_on", "time": 15, "note": 73, "velocity": 116, "channel": 0}, {"type": "note_off", "time": 64, "note": 73, "velocity": 116, "channel": 0}, {"type": "note_on", "time": 27, "note": 71, "velocity": 119, "channel": 0}, {"type": "note_off", "time": 122, "note": 71, "velocity": 119, "channel": 0}, {"type": "note_on", "time": 43, "note": 71, "velocity": 115, "channel": 0}, {"type": "note_off", "time": 121, "note": 71, "velocity": 115, "channel": 0}, {"type": "note_on", "time": 14, "note": 70, "velocity": 102, "channel": 0}, {"type": "note_off", "time": 266, "note": 70, "velocity": 102, "channel": 0}, {"type": "note_on", "time": 121, "note": 68, "velocity": 110, "channel": 0}, {"type": "note_off", "time": 66, "note": 68, "velocity": 110, "channel": 0}, {"type": "note_on", "time": 17, "note": 71, "velocity": 119, "channel": 0}, {"type": "note_off", "time": 35, "note": 71, "velocity": 119, "channel": 0}, {"type": "note_on", "time": 8, "note": 72, "velocity": 118, "channel": 0}, {"type": "note_off", "time": 59, "note": 72, "velocity": 118, "channel": 0}, {"type": "note_on", "time": 13, "note": 75, "velocity": 116, "channel": 0}, {"type": "note_off", "time": 61, "note": 75, "velocity": 116, "channel": 0}, {"type": "note_on", "time": 15, "note": 77, "velocity": 107, "channel": 0}, {"type": "note_off", "time": 86, "note": 77, "velocity": 107, "channel": 0}, {"type": "note_on", "time": 13, "note": 75, "velocity": 111, "channel": 0}, {"type": "note_off", "time": 64, "note": 75, "velocity": 111, "channel": 0}, {"type": "note_on", "time": 44, "note": 78, "velocity": 104, "channel": 0}, {"type": "note_off", "time": 67, "note": 78, "velocity": 104, "channel": 0}, {"type": "note_on", "time": 22, "note": 75, "velocity": 112, "channel": 0}, {"type": "note_off", "time": 65, "note": 75, "velocity": 112, "channel": 0}, {"type": "note_on", "time": 12, "note": 72, "velocity": 117, "channel": 0}, {"type": "note_off", "time": 90, "note": 72, "velocity": 117, "channel": 0}, {"type": "note_on", "time": 14, "note": 70, "velocity": 116, "channel": 0}, {"type": "note_off", "time": 82, "note": 70, "velocity": 116, "channel": 0}, {"type": "note_on", "time": 13, "note": 69, "velocity": 102, "channel": 0}, {"type": "note_off", "time": 144, "note": 69, "velocity": 102, "channel": 0}, {"type": "note_on", "time": 22, "note": 72, "velocity": 123, "channel": 0}, {"type": "note_off", "time": 58, "note": 72, "velocity": 123, "channel": 0}, {"type": "note_on", "time": 14, "note": 75, "velocity": 119, "channel": 0}, {"type": "note_off", "time": 55, "note": 75, "velocity": 119, "channel": 0}, {"type": "note_on", "time": 5, "note": 77, "velocity": 110, "channel": 0}, {"type": "note_off", "time": 88, "note": 77, "velocity": 110, "channel": 0}, {"type": "note_on", "time": 13, "note": 78, "velocity": 108, "channel": 0}, {"type": "note_off", "time": 49, "note": 78, "velocity": 108, "channel": 0}, {"type": "note_on", "time": 8, "note": 80, "velocity": 104, "channel": 0}, {"type": "note_off", "time": 45, "note": 80, "velocity": 104, "channel": 0}, {"type": "note_on", "time": 11, "note": 77, "velocity": 109, "channel": 0}, {"type": "note_off", "time": 72, "note": 77, "velocity": 109, "channel": 0}, {"type": "note_on", "time": 21, "note": 75, "velocity": 114, "channel": 0}, {"type": "note_off", "time": 61, "note": 75, "velocity": 114, "channel": 0}, {"type": "note_on", "time": 6, "note": 77, "velocity": 108, "channel": 0}, {"type": "note_off", "time": 35, "note": 77, "velocity": 108, "channel": 0}, {"type": "note_on", "time": 21, "note": 74, "velocity": 110, "channel": 0}, {"type": "note_off", "time": 101, "note": 74, "velocity": 110, "channel": 0}, {"type": "note_on", "time": 34, "note": 65, "velocity": 94, "channel": 0}, {"type": "note_off", "time": 49, "note": 65, "velocity": 94, "channel": 0}, {"type": "note_on", "time": 17, "note": 68, "velocity": 99, "channel": 0}, {"type": "note_off", "time": 123, "note": 68, "velocity": 99, "channel": 0}, {"type": "note_on", "time": 5, "note": 70, "velocity": 109, "channel": 0}, {"type": "note_off", "time": 21, "note": 70, "velocity": 109, "channel": 0}, {"type": "note_on", "time": 9, "note": 72, "velocity": 102, "channel": 0}, {"type": "note_off", "time": 321, "note": 72, "velocity": 102, "channel": 0}, {"type": "note_on", "time": 248, "note": 80, "velocity": 104, "channel": 0}, {"type": "note_off", "time": 170, "note": 80, "velocity": 104, "channel": 0}, {"type": "note_on", "time": 83, "note": 80, "velocity": 101, "channel": 0}, {"type": "note_off", "time": 101, "note": 80, "velocity": 101, "channel": 0}, {"type": "note_on", "time": 20, "note": 75, "velocity": 112, "channel": 0}, {"type": "note_off", "time": 41, "note": 75, "velocity": 112, "channel": 0}, {"type": "note_on", "time": 18, "note": 71, "velocity": 105, "channel": 0}, {"type": "note_off", "time": 123, "note": 71, "velocity": 105, "channel": 0}, {"type": "note_on", "time": 51, "note": 70, "velocity": 105, "channel": 0}, {"type": "note_off", "time": 204, "note": 70, "velocity": 105, "channel": 0}, {"type": "note_on", "time": 8, "note": 65, "velocity": 96, "channel": 0}, {"type": "note_off", "time": 112, "note": 65, "velocity": 96, "channel": 0}, {"type": "note_on", "time": 60, "note": 68, "velocity": 97, "channel": 0}, {"type": "note_off", "time": 179, "note": 68, "velocity": 97, "channel": 0}, {"type": "note_on", "time": 34, "note": 65, "velocity": 93, "channel": 0}, {"type": "note_off", "time": 98, "note": 65, "velocity": 93, "channel": 0}, {"type": "note_on", "time": 28, "note": 68, "velocity": 112, "channel": 0}, {"type": "note_off", "time": 81, "note": 68, "velocity": 112, "channel": 0}, {"type": "note_on", "time": 21, "note": 72, "velocity": 120, "channel": 0}, {"type": "note_off", "time": 108, "note": 72, "velocity": 120, "channel": 0}, {"type": "note_on", "time": 25, "note": 75, "velocity": 109, "channel": 0}, {"type": "note_off", "time": 69, "note": 75, "velocity": 109, "channel": 0}, {"type": "note_on", "time": 11, "note": 72, "velocity": 115, "channel": 0}, {"type": "note_off", "time": 69, "note": 72, "velocity": 115, "channel": 0}, {"type": "note_on", "time": 14, "note": 70, "velocity": 118, "channel": 0}, {"type": "note_off", "time": 68, "note": 70, "velocity": 118, "channel": 0}, {"type": "note_on", "time": 11, "note": 67, "velocity": 101, "channel": 0}, {"type": "note_off", "time": 26, "note": 67, "velocity": 101, "channel": 0}, {"type": "note_on", "time": 10, "note": 69, "velocity": 112, "channel": 0}, {"type": "note_off", "time": 59, "note": 69, "velocity": 112, "channel": 0}, {"type": "note_on", "time": 6, "note": 72, "velocity": 108, "channel": 0}, {"type": "note_off", "time": 65, "note": 72, "velocity": 108, "channel": 0}, {"type": "note_on", "time": 5, "note": 66, "velocity": 88, "channel": 0}, {"type": "note_off", "time": 122, "note": 66, "velocity": 88, "channel": 0}, {"type": "note_on", "time": 51, "note": 65, "velocity": 75, "channel": 0}, {"type": "note_off", "time": 177, "note": 65, "velocity": 75, "channel": 0}, {"type": "end_of_track", "time": 0}]]}