{"ticks_per_beat": 192, "tracks": [[{"type": "track_name", "name": "Melody", "time": 0}, {"type": "set_tempo", "tempo": 229007, "time": 0}, {"type": "time_signature", "numerator": 4, "denominator": 4, "clocks_per_click": 24, "notated_32nd_notes_per_beat": 8, "time": 0}, {"type": "note_on", "time": 4578, "note": 60, "velocity": 104, "channel": 0}, {"type": "note_off", "time": 294, "note": 60, "velocity": 104, "channel": 0}, {"type": "note_on", "time": 27, "note": 65, "velocity": 95, "channel": 0}, {"type": "note_off", "time": 427, "note": 65, "velocity": 95, "channel": 0}, {"type": "note_on", "time": 23, "note": 61, "velocity": 111, "channel": 0}, {"type": "note_off", "time": 290, "note": 61, "velocity": 111, "channel": 0}, {"type": "note_on", "time": 27, "note": 66, "velocity": 104, "channel": 0}, {"type": "note_off", "time": 369, "note": 66, "velocity": 104, "channel": 0}, {"type": "note_on", "time": 41, "note": 68, "velocity": 101, "channel": 0}, {"type": "note_off", "time": 301, "note": 68, "velocity": 101, "channel": 0}, {"type": "note_on", "time": 20, "note": 63, "velocity": 95, "channel": 0}, {"type": "note_off", "time": 633, "note": 63, "velocity": 95, "channel": 0}, {"type": "note_on", "time": 63, "note": 62, "velocity": 108, "channel": 0}, {"type": "note_off", "time": 148, "note": 62, "velocity": 108, "channel": 0}, {"type": "note_on", "time": 37, "note": 67, "velocity": 106, "channel": 0}, {"type": "note_off", "time": 225, "note": 67, "velocity": 106, "channel": 0}, {"type": "note_on", "time": 82, "note": 72, "velocity": 116, "channel": 0}, {"type": "note_off", "time": 99, "note": 72, "velocity": 116, "channel": 0}, {"type": "note_on", "time": 99, "note": 69, "velocity": 95, "channel": 0}, {"type": "note_off", "time": 232, "note": 69, "velocity": 95, "channel": 0}, {"type": "note_on", "time": 34, "note": 64, "velocity": 93, "channel": 0}, {"type": "note_off", "time": 205, "note": 64, "velocity": 93, "channel": 0}, {"type": "note_on", "time": 13, "note": 65, "velocity": 95, "channel": 0}, {"type": "note_off", "time": 246, "note": 65, "velocity": 95, "channel": 0}, {"type": "note_on", "time": 17, "note": 64, "velocity": 92, "channel": 0}, {"type": "note_off", "time": 143, "note": 64, "velocity": 92, "channel": 0}, {"type": "note_on", "time": 68, "note": 74, "velocity": 115, "channel": 0}, {"type": "note_off", "time": 256, "note": 74, "velocity": 115, "channel": 0}, {"type": "note_on", "time": 10, "note": 72, "velocity": 107, "channel": 0}, {"type": "note_off", "time": 143, "note": 72, "velocity": 107, "channel": 0}, {"type": "note_on", "time": 68, "note": 66, "velocity": 111, "channel": 0}, {"type": "note_off", "time": 164, "note": 66, "velocity": 111, "channel": 0}, {"type": "note_on", "time": 284, "note": 77, "velocity": 112, "channel": 0}, {"type": "note_off", "time": 118, "note": 77, "velocity": 112, "channel": 0}, {"type": "note_on", "time": 8, "note": 75, "velocity": 103, "channel": 0}, {"type": "note_off", "time": 99, "note": 75, "velocity": 103, "channel": 0}, {"type": "note_on", "time": 3, "note": 73, "velocity": 96, "channel": 0}, {"type": "note_off", "time": 85, "note": 73, "velocity": 96, "channel": 0}, {"type": "note_on", "time": 737, "note": 71, "velocity": 107, "channel": 0}, {"type": "note_off", "time": 114, "note": 71, "velocity": 107, "channel": 0}, {"type": "note_on", "time": 10, "note": 69, "velocity": 88, "channel": 0}, {"type": "note_off", "time": 75, "note": 69, "velocity": 88, "channel": 0}, {"type": "note_on", "time": 6, "note": 71, "velocity": 98, "channel": 0}, {"type": "note_off", "time": 153, "note": 71, "velocity": 98, "channel": 0}, {"type": "note_on", "time": 438, "note": 68, "velocity": 107, "channel": 0}, {"type": "note_off", "time": 147, "note": 68, "velocity": 107, "channel": 0}, {"type": "note_on", "time": 0, "note": 66, "velocity": 95, "channel": 0}, {"type": "note_off", "time": 78, "note": 66, "velocity": 95, "channel": 0}, {"type": "note_on", "time": 0, "note": 68, "velocity": 103, "channel": 0}, {"type": "note_off", "time": 150, "note": 68, "velocity": 103, "channel": 0}, {"type": "note_on", "time": 198, "note": 61, "velocity": 119, "channel": 0}, {"type": "note_off", "time": 126, "note": 61, "velocity": 119, "channel": 0}, {"type": "note_on", "time": 0, "note": 59, "velocity": 96, "channel": 0}, {"type": "note_off", "time": 82, "note": 59, "velocity": 96, "channel": 0}, {"type": "note_on", "time": 0, "note": 61, "velocity": 118, "channel": 0}, {"type": "note_off", "time": 205, "note": 61, "velocity": 118, "channel": 0}, {"type": "note_on", "time": 672, "note": 55, "velocity": 99, "channel": 0}, {"type": "note_off", "time": 97, "note": 55, "velocity": 99, "channel": 0}, {"type": "note_on", "time": 9, "note": 56, "velocity": 105, "channel": 0}, {"type": "note_off", "time": 116, "note": 56, "velocity": 105, "channel": 0}, {"type": "note_on", "time": 155, "note": 58, "velocity": 111, "channel": 0}, {"type": "note_off", "time": 66, "note": 58, "velocity": 111, "channel": 0}, {"type": "note_on", "time": 1, "note": 60, "velocity": 110, "channel": 0}, {"type": "note_off", "time": 92, "note": 60, "velocity": 110, "channel": 0}, {"type": "note_on", "time": 205, "note": 62, "velocity": 124, "channel": 0}, {"type": "note_off", "time": 87, "note": 62, "velocity": 124, "channel": 0}, {"type": "note_on", "time": 4, "note": 63, "velocity": 105, "channel": 0}, {"type": "note_off", "time": 116, "note": 63, "velocity": 105, "channel": 0}, {"type": "note_on", "time": 144, "note": 65, "velocity": 107, "channel": 0}, {"type": "note_off", "time": 90, "note": 65, "velocity": 107, "channel": 0}, {"type": "note_on", "time": 1, "note": 66, "velocity": 112, "channel": 0}, {"type": "note_off", "time": 116, "note": 66, "velocity": 112, "channel": 0}, {"type": "note_on", "time": 425, "note": 69, "velocity": 105, "channel": 0}, {"type": "note_off", "time": 94, "note": 69, "velocity": 105, "channel": 0}, {"type": "note_on", "time": 53, "note": 66, "velocity": 108, "channel": 0}, {"type": "note_off", "time": 105, "note": 66, "velocity": 108, "channel": 0}, {"type": "note_on", "time": 0, "note": 62, "velocity": 104, "channel": 0}, {"type": "note_off", "time": 87, "note": 62, "velocity": 104, "channel": 0}, {"type": "note_on", "time": 4, "note": 59, "velocity": 99, "channel": 0}, {"type": "note_off", "time": 77, "note": 59, "velocity": 99, "channel": 0}, {"type": "note_on", "time": 781, "note": 59, "velocity": 108, "channel": 0}, {"type": "note_off", "time": 140, "note": 59, "velocity": 108, "channel": 0}, {"type": "note_on", "time": 61, "note": 64, "velocity": 99, "channel": 0}, {"type": "note_off", "time": 111, "note": 64, "velocity": 99, "channel": 0}, {"type": "note_on", "time": 0, "note": 66, "velocity": 113, "channel": 0}, {"type": "note_off", "time": 87, "note": 66, "velocity": 113, "channel": 0}, {"type": "note_on", "time": 89, "note": 68, "velocity": 111, "channel": 0}, {"type": "note_off", "time": 90, "note": 68, "velocity": 111, "channel": 0}, {"type": "note_on", "time": 97, "note": 69, "velocity": 106, "channel": 0}, {"type": "note_off", "time": 78, "note": 69, "velocity": 106, "channel": 0}, {"type": "note_on", "time": 110, "note": 67, "velocity": 110, "channel": 0}, {"type": "note_off", "time": 92, "note": 67, "velocity": 110, "channel": 0}, {"type": "note_on", "time": 0, "note": 64, "velocity": 98, "channel": 0}, {"type": "note_off", "time": 121, "note": 64, "velocity": 98, "channel": 0}, {"type": "note_on", "time": 0, "note": 59, "velocity": 105, "channel": 0}, {"type": "note_off", "time": 107, "note": 59, "velocity": 105, "channel": 0}, {"type": "note_on", "time": 4, "note": 62, "velocity": 113, "channel": 0}, {"type": "note_off", "time": 107, "note": 62, "velocity": 113, "channel": 0}, {"type": "note_on", "time": 38, "note": 62, "velocity": 116, "channel": 0}, {"type": "note_off", "time": 170, "note": 62, "velocity": 116, "channel": 0}, {"type": "note_on", "time": 793, "note": 60, "velocity": 108, "channel": 0}, {"type": "note_off", "time": 253, "note": 60, "velocity": 108, "channel": 0}, {"type": "note_on", "time": 48, "note": 65, "velocity": 89, "channel": 0}, {"type": "note_off", "time": 491, "note": 65, "velocity": 89, "channel": 0}, {"type": "note_on", "time": 76, "note": 58, "velocity": 105, "channel": 0}, {"type": "note_off", "time": 65, "note": 58, "velocity": 105, "channel": 0}, {"type": "note_on", "time": 111, "note": 63, "velocity": 103, "channel": 0}, {"type": "note_off", "time": 438, "note": 63, "velocity": 103, "channel": 0}, {"type": "note_on", "time": 47, "note": 59, "velocity": 107, "channel": 0}, {"type": "note_off", "time": 102, "note": 59, "velocity": 107, "channel": 0}, {"type": "note_on", "time": 92, "note": 66, "velocity": 99, "channel": 0}, {"type": "note_off", "time": 458, "note": 66, "velocity": 99, "channel": 0}, {"type": "note_on", "time": 33, "note": 67, "velocity": 100, "channel": 0}, {"type": "note_off", "time": 146, "note": 67, "velocity": 100, "channel": 0}, {"type": "note_on", "time": 77, "note": 59, "velocity": 107, "channel": 0}, {"type": "note_off", "time": 243, "note": 59, "velocity": 107, "channel": 0}, {"type": "note_on", "time": 13, "note": 58, "velocity": 100, "channel": 0}, {"type": "note_off", "time": 92, "note": 58, "velocity": 100, "channel": 0}, {"type": "note_on", "time": 5, "note": 59, "velocity": 100, "channel": 0}, {"type": "note_off", "time": 165, "note": 59, "velocity": 100, "channel": 0}, {"type": "note_on", "time": 978, "note": 67, "velocity": 110, "channel": 0}, {"type": "note_off", "time": 116, "note": 67, "velocity": 110, "channel": 0}, {"type": "note_on", "time": 0, "note": 69, "velocity": 99, "channel": 0}, {"type": "note_off", "time": 82, "note": 69, "velocity": 99, "channel": 0}, {"type": "note_on", "time": 19, "note": 71, "velocity": 108, "channel": 0}, {"type": "note_off", "time": 131, "note": 71, "velocity": 108, "channel": 0}, {"type": "note_on", "time": 38, "note": 69, "velocity": 102, "channel": 0}, {"type": "note_off", "time": 111, "note": 69, "velocity": 102, "channel": 0}, {"type": "note_on", "time": 4, "note": 67, "velocity": 96, "channel": 0}, {"type": "note_off", "time": 87, "note": 67, "velocity": 96, "channel": 0}, {"type": "note_on", "time": 14, "note": 65, "velocity": 95, "channel": 0}, {"type": "note_off", "time": 43, "note": 65, "velocity": 95, "channel": 0}, {"type": "note_on", "time": 41, "note": 71, "velocity": 110, "channel": 0}, {"type": "note_off", "time": 157, "note": 71, "velocity": 110, "channel": 0}, {"type": "note_on", "time": 1459, "note": 69, "velocity": 105, "channel": 0}, {"type": "note_off", "time": 104, "note": 69, "velocity": 105, "channel": 0}, {"type": "note_on", "time": 6, "note": 70, "velocity": 91, "channel": 0}, {"type": "note_off", "time": 90, "note": 70, "velocity": 91, "channel": 0}, {"type": "note_on", "time": 0, "note": 72, "velocity": 106, "channel": 0}, {"type": "note_off", "time": 111, "note": 72, "velocity": 106, "channel": 0}, {"type": "note_on", "time": 4, "note": 74, "velocity": 113, "channel": 0}, {"type": "note_off", "time": 77, "note": 74, "velocity": 113, "channel": 0}, {"type": "note_on", "time": 9, "note": 76, "velocity": 115, "channel": 0}, {"type": "note_off", "time": 102, "note": 76, "velocity": 115, "channel": 0}, {"type": "note_on", "time": 4, "note": 74, "velocity": 115, "channel": 0}, {"type": "note_off", "time": 77, "note": 74, "velocity": 115, "channel": 0}, {"type": "note_on", "time": 14, "note": 72, "velocity": 112, "channel": 0}, {"type": "note_off", "time": 102, "note": 72, "velocity": 112, "channel": 0}, {"type": "note_on", "time": 1, "note": 69, "velocity": 92, "channel": 0}, {"type": "note_off", "time": 70, "note": 69, "velocity": 92, "channel": 0}, {"type": "note_on", "time": 1, "note": 67, "velocity": 97, "channel": 0}, {"type": "note_on", "time": 85, "note": 69, "velocity": 101, "channel": 0}, {"type": "note_off", "time": 0, "note": 67, "velocity": 97, "channel": 0}, {"type": "note_off", "time": 111, "note": 69, "velocity": 101, "channel": 0}, {"type": "note_on", "time": 81, "note": 67, "velocity": 101, "channel": 0}, {"type": "note_off", "time": 130, "note": 67, "velocity": 101, "channel": 0}, {"type": "note_on", "time": 1890, "note": 75, "velocity": 112, "channel": 0}, {"type": "note_off", "time": 90, "note": 75, "velocity": 112, "channel": 0}, {"type": "note_on", "time": 107, "note": 71, "velocity": 109, "channel": 0}, {"type": "note_off", "time": 123, "note": 71, "velocity": 109, "channel": 0}, {"type": "note_on", "time": 61, "note": 67, "velocity": 107, "channel": 0}, {"type": "note_off", "time": 99, "note": 67, "velocity": 107, "channel": 0}, {"type": "note_on", "time": 111, "note": 73, "velocity": 101, "channel": 0}, {"type": "note_off", "time": 107, "note": 73, "velocity": 101, "channel": 0}, {"type": "note_on", "time": 55, "note": 69, "velocity": 102, "channel": 0}, {"type": "note_off", "time": 121, "note": 69, "velocity": 102, "channel": 0}, {"type": "note_on", "time": 111, "note": 65, "velocity": 93, "channel": 0}, {"type": "note_off", "time": 73, "note": 65, "velocity": 93, "channel": 0}, {"type": "note_on", "time": 14, "note": 71, "velocity": 105, "channel": 0}, {"type": "note_off", "time": 199, "note": 71, "velocity": 105, "channel": 0}, {"type": "note_on", "time": 4, "note": 68, "velocity": 107, "channel": 0}, {"type": "note_off", "time": 102, "note": 68, "velocity": 107, "channel": 0}, {"type": "note_on", "time": 0, "note": 65, "velocity": 93, "channel": 0}, {"type": "note_off", "time": 73, "note": 65, "velocity": 93, "channel": 0}, {"type": "note_on", "time": 12, "note": 69, "velocity": 101, "channel": 0}, {"type": "note_off", "time": 143, "note": 69, "velocity": 101, "channel": 0}, {"type": "note_on", "time": 4, "note": 66, "velocity": 103, "channel": 0}, {"type": "note_off", "time": 53, "note": 66, "velocity": 103, "channel": 0}, {"type": "note_on", "time": 29, "note": 62, "velocity": 97, "channel": 0}, {"type": "note_off", "time": 77, "note": 62, "velocity": 97, "channel": 0}, {"type": "note_on", "time": 0, "note": 66, "velocity": 117, "channel": 0}, {"type": "note_off", "time": 121, "note": 66, "velocity": 117, "channel": 0}, {"type": "note_on", "time": 4, "note": 62, "velocity": 95, "channel": 0}, {"type": "note_off", "time": 73, "note": 62, "velocity": 95, "channel": 0}, {"type": "note_on", "time": 19, "note": 66, "velocity": 117, "channel": 0}, {"type": "note_off", "time": 92, "note": 66, "velocity": 117, "channel": 0}, {"type": "note_on", "time": 4, "note": 62, "velocity": 103, "channel": 0}, {"type": "note_off", "time": 107, "note": 62, "velocity": 103, "channel": 0}, {"type": "note_on", "time": 0, "note": 59, "velocity": 95, "channel": 0}, {"type": "note_off", "time": 68, "note": 59, "velocity": 95, "channel": 0}, {"type": "note_on", "time": 0, "note": 67, "velocity": 111, "channel": 0}, {"type": "note_off", "time": 146, "note": 67, "velocity": 111, "channel": 0}, {"type": "note_on", "time": 0, "note": 64, "velocity": 99, "channel": 0}, {"type": "note_off", "time": 77, "note": 64, "velocity": 99, "channel": 0}, {"type": "note_on", "time": 2, "note": 65, "velocity": 94, "channel": 0}, {"type": "note_off", "time": 63, "note": 65, "velocity": 94, "channel": 0}, {"type": "note_on", "time": 19, "note": 67, "velocity": 111, "channel": 0}, {"type": "note_off", "time": 116, "note": 67, "velocity": 111, "channel": 0}, {"type": "note_on", "time": 31, "note": 68, "velocity": 104, "channel": 0}, {"type": "note_off", "time": 68, "note": 68, "velocity": 104, "channel": 0}, {"type": "note_on", "time": 14, "note": 70, "velocity": 94, "channel": 0}, {"type": "note_off", "time": 75, "note": 70, "velocity": 94, "channel": 0}, {"type": "note_on", "time": 7, "note": 71, "velocity": 105, "channel": 0}, {"type": "note_off", "time": 75, "note": 71, "velocity": 105, "channel": 0}, {"type": "note_on", "time": 21, "note": 68, "velocity": 103, "channel": 0}, {"type": "note_off", "time": 53, "note": 68, "velocity": 103, "channel": 0}, {"type": "note_on", "time": 14, "note": 70, "velocity": 104, "channel": 0}, {"type": "note_off", "time": 111, "note": 70, "velocity": 104, "channel": 0}, {"type": "note_on", "time": 4, "note": 67, "velocity": 109, "channel": 0}, {"type": "note_off", "time": 82, "note": 67, "velocity": 109, "channel": 0}, {"type": "note_on", "time": 19, "note": 63, "velocity": 104, "channel": 0}, {"type": "note_off", "time": 116, "note": 63, "velocity": 104, "channel": 0}, {"type": "note_on", "time": 7, "note": 60, "velocity": 95, "channel": 0}, {"type": "note_off", "time": 63, "note": 60, "velocity": 95, "channel": 0}, {"type": "note_on", "time": 0, "note": 62, "velocity": 119, "channel": 0}, {"type": "note_off", "time": 102, "note": 62, "velocity": 119, "channel": 0}, {"type": "note_on", "time": 12, "note": 63, "velocity": 106, "channel": 0}, {"type": "note_off", "time": 82, "note": 63, "velocity": 106, "channel": 0}, {"type": "note_on", "time": 11, "note": 65, "velocity": 101, "channel": 0}, {"type": "note_off", "time": 82, "note": 65, "velocity": 101, "channel": 0}, {"type": "note_on", "time": 11, "note": 67, "velocity": 112, "channel": 0}, {"type": "note_off", "time": 97, "note": 67, "velocity": 112, "channel": 0}, {"type": "note_on", "time": 20, "note": 68, "velocity": 100, "channel": 0}, {"type": "note_off", "time": 88, "note": 68, "velocity": 100, "channel": 0}, {"type": "note_on", "time": 42, "note": 70, "velocity": 93, "channel": 0}, {"type": "note_off", "time": 49, "note": 70, "velocity": 93, "channel": 0}, {"type": "note_on", "time": 6, "note": 71, "velocity": 104, "channel": 0}, {"type": "note_on", "time": 88, "note": 72, "velocity": 108, "channel": 0}, {"type": "note_off", "time": 0, "note": 71, "velocity": 104, "channel": 0}, {"type": "note_off", "time": 82, "note": 72, "velocity": 108, "channel": 0}, {"type": "note_on", "time": 3, "note": 73, "velocity": 96, "channel": 0}, {"type": "note_off", "time": 49, "note": 73, "velocity": 96, "channel": 0}, {"type": "note_on", "time": 11, "note": 74, "velocity": 114, "channel": 0}, {"type": "note_off", "time": 54, "note": 74, "velocity": 114, "channel": 0}, {"type": "note_on", "time": 14, "note": 75, "velocity": 105, "channel": 0}, {"type": "note_off", "time": 102, "note": 75, "velocity": 105, "channel": 0}, {"type": "note_on", "time": 13, "note": 77, "velocity": 98, "channel": 0}, {"type": "note_off", "time": 46, "note": 77, "velocity": 98, "channel": 0}, {"type": "note_on", "time": 18, "note": 78, "velocity": 123, "channel": 0}, {"type": "note_off", "time": 74, "note": 78, "velocity": 123, "channel": 0}, {"type": "note_on", "time": 1, "note": 74, "velocity": 116, "channel": 0}, {"type": "note_off", "time": 148, "note": 74, "velocity": 116, "channel": 0}, {"type": "note_on", "time": 1421, "note": 83, "velocity": 124, "channel": 0}, {"type": "note_on", "time": 59, "note": 82, "velocity": 109, "channel": 0}, {"type": "note_off", "time": 0, "note": 83, "velocity": 124, "channel": 0}, {"type": "note_off", "time": 65, "note": 82, "velocity": 109, "channel": 0}, {"type": "note_on", "time": 3, "note": 80, "velocity": 107, "channel": 0}, {"type": "note_off", "time": 75, "note": 80, "velocity": 107, "channel": 0}, {"type": "note_on", "time": 13, "note": 76, "velocity": 114, "channel": 0}, {"type": "note_off", "time": 90, "note": 76, "velocity": 114, "channel": 0}, {"type": "note_on", "time": 1, "note": 75, "velocity": 107, "channel": 0}, {"type": "note_off", "time": 114, "note": 75, "velocity": 107, "channel": 0}, {"type": "note_on", "time": 10, "note": 73, "velocity": 97, "channel": 0}, {"type": "note_off", "time": 76, "note": 73, "velocity": 97, "channel": 0}, {"type": "note_on", "time": 8, "note": 72, "velocity": 100, "channel": 0}, {"type": "note_off", "time": 80, "note": 72, "velocity": 100, "channel": 0}, {"type": "note_on", "time": 11, "note": 71, "velocity": 114, "channel": 0}, {"type": "note_off", "time": 90, "note": 71, "velocity": 114, "channel": 0}, {"type": "note_on", "time": 8, "note": 69, "velocity": 100, "channel": 0}, {"type": "note_off", "time": 80, "note": 69, "velocity": 100, "channel": 0}, {"type": "note_on", "time": 5, "note": 67, "velocity": 105, "channel": 0}, {"type": "note_off", "time": 106, "note": 67, "velocity": 105, "channel": 0}, {"type": "note_on", "time": 0, "note": 68, "velocity": 102, "channel": 0}, {"type": "note_off", "time": 85, "note": 68, "velocity": 102, "channel": 0}, {"type": "note_on", "time": 3, "note": 71, "velocity": 106, "channel": 0}, {"type": "note_off", "time": 159, "note": 71, "velocity": 106, "channel": 0}, {"type": "note_on", "time": 256, "note": 59, "velocity": 94, "channel": 0}, {"type": "note_off", "time": 63, "note": 59, "velocity": 94, "channel": 0}, {"type": "note_on", "time": 6, "note": 67, "velocity": 107, "channel": 0}, {"type": "note_off", "time": 253, "note": 67, "velocity": 107, "channel": 0}, {"type": "note_on", "time": 49, "note": 64, "velocity": 107, "channel": 0}, {"type": "note_off", "time": 85, "note": 64, "velocity": 107, "channel": 0}, {"type": "note_on", "time": 17, "note": 66, "velocity": 105, "channel": 0}, {"type": "note_off", "time": 87, "note": 66, "velocity": 105, "channel": 0}, {"type": "note_on", "time": 7, "note": 69, "velocity": 108, "channel": 0}, {"type": "note_off", "time": 97, "note": 69, "velocity": 108, "channel": 0}, {"type": "note_on", "time": 0, "note": 68, "velocity": 107, "channel": 0}, {"type": "note_off", "time": 87, "note": 68, "velocity": 107, "channel": 0}, {"type": "note_on", "time": 2, "note": 66, "velocity": 101, "channel": 0}, {"type": "note_off", "time": 58, "note": 66, "velocity": 101, "channel": 0}, {"type": "note_on", "time": 46, "note": 67, "velocity": 92, "channel": 0}, {"type": "note_off", "time": 73, "note": 67, "velocity": 92, "channel": 0}, {"type": "note_on", "time": 4, "note": 69, "velocity": 99, "channel": 0}, {"type": "note_off", "time": 109, "note": 69, "velocity": 99, "channel": 0}, {"type": "note_on", "time": 2, "note": 71, "velocity": 100, "channel": 0}, {"type": "note_off", "time": 114, "note": 71, "velocity": 100, "channel": 0}, {"type": "note_on", "time": 65, "note": 74, "velocity": 118, "channel": 0}, {"type": "note_off", "time": 192, "note": 74, "velocity": 118, "channel": 0}, {"type": "note_on", "time": 17, "note": 71, "velocity": 106, "channel": 0}, {"type": "note_off", "time": 143, "note": 71, "velocity": 106, "channel": 0}, {"type": "note_on", "time": 77, "note": 71, "velocity": 108, "channel": 0}, {"type": "note_off", "time": 65, "note": 71, "velocity": 108, "channel": 0}, {"type": "note_on", "time": 0, "note": 72, "velocity": 97, "channel": 0}, {"type": "note_off", "time": 413, "note": 72, "velocity": 97, "channel": 0}, {"type": "note_on", "time": 7, "note": 68, "velocity": 112, "channel": 0}, {"type": "note_off", "time": 85, "note": 68, "velocity": 112, "channel": 0}, {"type": "note_on", "time": 101, "note": 65, "velocity": 107, "channel": 0}, {"type": "note_off", "time": 75, "note": 65, "velocity": 107, "channel": 0}, {"type": "note_on", "time": 126, "note": 65, "velocity": 109, "channel": 0}, {"type": "note_off", "time": 95, "note": 65, "velocity": 109, "channel": 0}, {"type": "note_on", "time": 85, "note": 63, "velocity": 104, "channel": 0}, {"type": "note_off", "time": 77, "note": 63, "velocity": 104, "channel": 0}, {"type": "note_on", "time": 4, "note": 65, "velocity": 99, "channel": 0}, {"type": "note_off", "time": 155, "note": 65, "velocity": 99, "channel": 0}, {"type": "note_on", "time": 531, "note": 59, "velocity": 89, "channel": 0}, {"type": "note_off", "time": 63, "note": 59, "velocity": 89, "channel": 0}, {"type": "note_on", "time": 15, "note": 63, "velocity": 117, "channel": 0}, {"type": "note_off", "time": 106, "note": 63, "velocity": 117, "channel": 0}, {"type": "note_on", "time": 0, "note": 59, "velocity": 96, "channel": 0}, {"type": "note_off", "time": 78, "note": 59, "velocity": 96, "channel": 0}, {"type": "note_on", "time": 0, "note": 61, "velocity": 104, "channel": 0}, {"type": "note_off", "time": 99, "note": 61, "velocity": 104, "channel": 0}, {"type": "note_on", "time": 6, "note": 63, "velocity": 115, "channel": 0}, {"type": "note_off", "time": 94, "note": 63, "velocity": 115, "channel": 0}, {"type": "note_on", "time": 3, "note": 64, "velocity": 97, "channel": 0}, {"type": "note_off", "time": 111, "note": 64, "velocity": 97, "channel": 0}, {"type": "note_on", "time": 8, "note": 66, "velocity": 111, "channel": 0}, {"type": "note_off", "time": 142, "note": 66, "velocity": 111, "channel": 0}, {"type": "note_on", "time": 46, "note": 69, "velocity": 106, "channel": 0}, {"type": "note_off", "time": 94, "note": 69, "velocity": 106, "channel": 0}, {"type": "note_on", "time": 4, "note": 71, "velocity": 103, "channel": 0}, {"type": "note_off", "time": 82, "note": 71, "velocity": 103, "channel": 0}, {"type": "note_on", "time": 4, "note": 72, "velocity": 106, "channel": 0}, {"type": "note_off", "time": 85, "note": 72, "velocity": 106, "channel": 0}, {"type": "note_on", "time": 2, "note": 74, "velocity": 106, "channel": 0}, {"type": "note_off", "time": 163, "note": 74, "velocity": 106, "channel": 0}, {"type": "note_on", "time": 12, "note": 75, "velocity": 107, "channel": 0}, {"type": "note_off", "time": 163, "note": 75, "velocity": 107, "channel": 0}, {"type": "note_on", "time": 530, "note": 64, "velocity": 88, "channel": 0}, {"type": "note_off", "time": 58, "note": 64, "velocity": 88, "channel": 0}, {"type": "note_on", "time": 12, "note": 75, "velocity": 111, "channel": 0}, {"type": "note_off", "time": 124, "note": 75, "velocity": 111, "channel": 0}, {"type": "note_on", "time": 0, "note": 74, "velocity": 113, "channel": 0}, {"type": "note_off", "time": 87, "note": 74, "velocity": 113, "channel": 0}, {"type": "note_on", "time": 7, "note": 73, "velocity": 103, "channel": 0}, {"type": "note_off", "time": 58, "note": 73, "velocity": 103, "channel": 0}, {"type": "note_on", "time": 0, "note": 72, "velocity": 115, "channel": 0}, {"type": "note_off", "time": 104, "note": 72, "velocity": 115, "channel": 0}, {"type": "note_on", "time": 17, "note": 70, "velocity": 98, "channel": 0}, {"type": "note_off", "time": 63, "note": 70, "velocity": 98, "channel": 0}, {"type": "note_on", "time": 0, "note": 68, "velocity": 111, "channel": 0}, {"type": "note_off", "time": 109, "note": 68, "velocity": 111, "channel": 0}, {"type": "note_on", "time": 2, "note": 67, "velocity": 98, "channel": 0}, {"type": "note_off", "time": 82, "note": 67, "velocity": 98, "channel": 0}, {"type": "note_on", "time": 31, "note": 66, "velocity": 115, "channel": 0}, {"type": "note_off", "time": 163, "note": 66, "velocity": 115, "channel": 0}, {"type": "note_on", "time": 4, "note": 64, "velocity": 109, "channel": 0}, {"type": "note_off", "time": 102, "note": 64, "velocity": 109, "channel": 0}, {"type": "note_on", "time": 0, "note": 63, "velocity": 108, "channel": 0}, {"type": "note_off", "time": 94, "note": 63, "velocity": 108, "channel": 0}, {"type": "note_on", "time": 7, "note": 61, "velocity": 111, "channel": 0}, {"type": "note_off", "time": 90, "note": 61, "velocity": 111, "channel": 0}, {"type": "note_on", "time": 9, "note": 62, "velocity": 105, "channel": 0}, {"type": "note_off", "time": 92, "note": 62, "velocity": 105, "channel": 0}, {"type": "note_on", "time": 14, "note": 64, "velocity": 104, "channel": 0}, {"type": "note_off", "time": 160, "note": 64, "velocity": 104, "channel": 0}, {"type": "note_on", "time": 43, "note": 67, "velocity": 100, "channel": 0}, {"type": "note_off", "time": 90, "note": 67, "velocity": 100, "channel": 0}, {"type": "note_on", "time": 2, "note": 69, "velocity": 99, "channel": 0}, {"type": "note_off", "time": 170, "note": 69, "velocity": 99, "channel": 0}, {"type": "note_on", "time": 15, "note": 66, "velocity": 108, "channel": 0}, {"type": "note_off", "time": 89, "note": 66, "velocity": 108, "channel": 0}, {"type": "note_on", "time": 0, "note": 64, "velocity": 99, "channel": 0}, {"type": "note_off", "time": 41, "note": 64, "velocity": 99, "channel": 0}, {"type": "note_on", "time": 0, "note": 62, "velocity": 100, "channel": 0}, {"type": "note_off", "time": 77, "note": 62, "velocity": 100, "channel": 0}, {"type": "note_on", "time": 0, "note": 68, "velocity": 105, "channel": 0}, {"type": "note_off", "time": 165, "note": 68, "velocity": 105, "channel": 0}, {"type": "note_on", "time": 0, "note": 64, "velocity": 103, "channel": 0}, {"type": "note_off", "time": 70, "note": 64, "velocity": 103, "channel": 0}, {"type": "note_on", "time": 6, "note": 62, "velocity": 113, "channel": 0}, {"type": "note_off", "time": 70, "note": 62, "velocity": 113, "channel": 0}, {"type": "note_on", "time": 4, "note": 59, "velocity": 102, "channel": 0}, {"type": "note_off", "time": 55, "note": 59, "velocity": 102, "channel": 0}, {"type": "note_on", "time": 0, "note": 66, "velocity": 111, "channel": 0}, {"type": "note_off", "time": 177, "note": 66, "velocity": 111, "channel": 0}, {"type": "note_on", "time": 7, "note": 62, "velocity": 112, "channel": 0}, {"type": "note_off", "time": 80, "note": 62, "velocity": 112, "channel": 0}, {"type": "note_on", "time": 4, "note": 61, "velocity": 112, "channel": 0}, {"type": "note_off", "time": 51, "note": 61, "velocity": 112, "channel": 0}, {"type": "note_on", "time": 0, "note": 59, "velocity": 99, "channel": 0}, {"type": "note_off", "time": 51, "note": 59, "velocity": 99, "channel": 0}, {"type": "note_on", "time": 6, "note": 64, "velocity": 108, "channel": 0}, {"type": "note_off", "time": 171, "note": 64, "velocity": 108, "channel": 0}, {"type": "note_on", "time": 0, "note": 61, "velocity": 107, "channel": 0}, {"type": "note_off", "time": 90, "note": 61, "velocity": 107, "channel": 0}, {"type": "note_on", "time": 10, "note": 59, "velocity": 88, "channel": 0}, {"type": "note_on", "time": 48, "note": 57, "velocity": 87, "channel": 0}, {"type": "note_off", "time": 0, "note": 59, "velocity": 88, "channel": 0}, {"type": "note_off", "time": 43, "note": 57, "velocity": 87, "channel": 0}, {"type": "note_on", "time": 8, "note": 60, "velocity": 111, "channel": 0}, {"type": "note_off", "time": 216, "note": 60, "velocity": 111, "channel": 0}, {"type": "note_on", "time": 90, "note": 58, "velocity": 105, "channel": 0}, {"type": "note_off", "time": 92, "note": 58, "velocity": 105, "channel": 0}, {"type": "note_on", "time": 19, "note": 57, "velocity": 90, "channel": 0}, {"type": "note_off", "time": 68, "note": 57, "velocity": 90, "channel": 0}, {"type": "note_on", "time": 0, "note": 58, "velocity": 112, "channel": 0}, {"type": "note_off", "time": 121, "note": 58, "velocity": 112, "channel": 0}, {"type": "note_on", "time": 0, "note": 62, "velocity": 106, "channel": 0}, {"type": "note_off", "time": 90, "note": 62, "velocity": 106, "channel": 0}, {"type": "note_on", "time": 2, "note": 65, "velocity": 91, "channel": 0}, {"type": "note_off", "time": 60, "note": 65, "velocity": 91, "channel": 0}, {"type": "note_on", "time": 17, "note": 69, "velocity": 104, "channel": 0}, {"type": "note_off", "time": 97, "note": 69, "velocity": 104, "channel": 0}, {"type": "note_on", "time": 2, "note": 72, "velocity": 114, "channel": 0}, {"type": "note_off", "time": 106, "note": 72, "velocity": 114, "channel": 0}, {"type": "note_on", "time": 5, "note": 67, "velocity": 100, "channel": 0}, {"type": "note_off", "time": 76, "note": 67, "velocity": 100, "channel": 0}, {"type": "note_on", "time": 10, "note": 70, "velocity": 104, "channel": 0}, {"type": "note_off", "time": 73, "note": 70, "velocity": 104, "channel": 0}, {"type": "note_on", "time": 7, "note": 69, "velocity": 102, "channel": 0}, {"type": "note_off", "time": 143, "note": 69, "velocity": 102, "channel": 0}, {"type": "note_on", "time": 723, "note": 64, "velocity": 109, "channel": 0}, {"type": "note_off", "time": 91, "note": 64, "velocity": 109, "channel": 0}, {"type": "note_on", "time": 0, "note": 69, "velocity": 100, "channel": 0}, {"type": "note_off", "time": 70, "note": 69, "velocity": 100, "channel": 0}, {"type": "note_on", "time": 31, "note": 74, "velocity": 118, "channel": 0}, {"type": "note_off", "time": 99, "note": 74, "velocity": 118, "channel": 0}, {"type": "note_on", "time": 9, "note": 69, "velocity": 97, "channel": 0}, {"type": "note_off", "time": 136, "note": 69, "velocity": 97, "channel": 0}, {"type": "note_on", "time": 53, "note": 74, "velocity": 111, "channel": 0}, {"type": "note_off", "time": 102, "note": 74, "velocity": 111, "channel": 0}, {"type": "note_on", "time": 9, "note": 79, "velocity": 112, "channel": 0}, {"type": "note_off", "time": 90, "note": 79, "velocity": 112, "channel": 0}, {"type": "note_on", "time": 2, "note": 78, "velocity": 113, "channel": 0}, {"type": "note_off", "time": 102, "note": 78, "velocity": 113, "channel": 0}, {"type": "note_on", "time": 0, "note": 76, "velocity": 105, "channel": 0}, {"type": "note_off", "time": 70, "note": 76, "velocity": 105, "channel": 0}, {"type": "note_on", "time": 0, "note": 72, "velocity": 105, "channel": 0}, {"type": "note_off", "time": 153, "note": 72, "velocity": 105, "channel": 0}, {"type": "note_on", "time": 584, "note": 82, "velocity": 121, "channel": 0}, {"type": "note_off", "time": 100, "note": 82, "velocity": 121, "channel": 0}, {"type": "note_on", "time": 1, "note": 81, "velocity": 113, "channel": 0}, {"type": "note_off", "time": 95, "note": 81, "velocity": 113, "channel": 0}, {"type": "note_on", "time": 5, "note": 80, "velocity": 114, "channel": 0}, {"type": "note_off", "time": 76, "note": 80, "velocity": 114, "channel": 0}, {"type": "note_on", "time": 8, "note": 77, "velocity": 113, "channel": 0}, {"type": "note_off", "time": 94, "note": 77, "velocity": 113, "channel": 0}, {"type": "note_on", "time": 6, "note": 75, "velocity": 114, "channel": 0}, {"type": "note_off", "time": 97, "note": 75, "velocity": 114, "channel": 0}, {"type": "note_on", "time": 11, "note": 73, "velocity": 100, "channel": 0}, {"type": "note_on", "time": 76, "note": 71, "velocity": 105, "channel": 0}, {"type": "note_off", "time": 0, "note": 73, "velocity": 100, "channel": 0}, {"type": "note_off", "time": 112, "note": 71, "velocity": 105, "channel": 0}, {"type": "note_on", "time": 0, "note": 70, "velocity": 100, "channel": 0}, {"type": "note_off", "time": 95, "note": 70, "velocity": 100, "channel": 0}, {"type": "note_on", "time": 92, "note": 73, "velocity": 97, "channel": 0}, {"type": "note_off", "time": 107, "note": 73, "velocity": 97, "channel": 0}, {"type": "note_on", "time": 508, "note": 64, "velocity": 112, "channel": 0}, {"type": "note_off", "time": 106, "note": 64, "velocity": 112, "channel": 0}, {"type": "note_on", "time": 0, "note": 69, "velocity": 97, "channel": 0}, {"type": "note_off", "time": 92, "note": 69, "velocity": 97, "channel": 0}, {"type": "note_on", "time": 0, "note": 73, "velocity": 103, "channel": 0}, {"type": "note_off", "time": 107, "note": 73, "velocity": 103, "channel": 0}, {"type": "note_on", "time": 13, "note": 66, "velocity": 102, "channel": 0}, {"type": "note_off", "time": 92, "note": 66, "velocity": 102, "channel": 0}, {"type": "note_on", "time": 0, "note": 71, "velocity": 98, "channel": 0}, {"type": "note_off", "time": 66, "note": 71, "velocity": 98, "channel": 0}, {"type": "note_on", "time": 11, "note": 76, "velocity": 118, "channel": 0}, {"type": "note_off", "time": 124, "note": 76, "velocity": 118, "channel": 0}, {"type": "note_on", "time": 8, "note": 71, "velocity": 93, "channel": 0}, {"type": "note_off", "time": 65, "note": 71, "velocity": 93, "channel": 0}, {"type": "note_on", "time": 1, "note": 76, "velocity": 121, "channel": 0}, {"type": "note_off", "time": 83, "note": 76, "velocity": 121, "channel": 0}, {"type": "note_on", "time": 8, "note": 71, "velocity": 103, "channel": 0}, {"type": "note_off", "time": 94, "note": 71, "velocity": 103, "channel": 0}, {"type": "note_on", "time": 18, "note": 64, "velocity": 100, "channel": 0}, {"type": "note_off", "time": 78, "note": 64, "velocity": 100, "channel": 0}, {"type": "note_on", "time": 559, "note": 64, "velocity": 111, "channel": 0}, {"type": "note_off", "time": 88, "note": 64, "velocity": 111, "channel": 0}, {"type": "note_on", "time": 6, "note": 69, "velocity": 99, "channel": 0}, {"type": "note_off", "time": 87, "note": 69, "velocity": 99, "channel": 0}, {"type": "note_on", "time": 8, "note": 73, "velocity": 93, "channel": 0}, {"type": "note_off", "time": 90, "note": 73, "velocity": 93, "channel": 0}, {"type": "note_on", "time": 100, "note": 81, "velocity": 109, "channel": 0}, {"type": "note_off", "time": 97, "note": 81, "velocity": 109, "channel": 0}, {"type": "note_on", "time": 6, "note": 85, "velocity": 106, "channel": 0}, {"type": "note_off", "time": 88, "note": 85, "velocity": 106, "channel": 0}, {"type": "note_on", "time": 8, "note": 88, "velocity": 97, "channel": 0}, {"type": "note_off", "time": 99, "note": 88, "velocity": 97, "channel": 0}, {"type": "note_on", "time": 76, "note": 88, "velocity": 101, "channel": 0}, {"type": "note_off", "time": 90, "note": 88, "velocity": 101, "channel": 0}, {"type": "note_on", "time": 3, "note": 85, "velocity": 104, "channel": 0}, {"type": "note_off", "time": 90, "note": 85, "velocity": 104, "channel": 0}, {"type": "note_on", "time": 3, "note": 87, "velocity": 106, "channel": 0}, {"type": "note_off", "time": 373, "note": 87, "velocity": 106, "channel": 0}, {"type": "note_on", "time": 3, "note": 86, "velocity": 103, "channel": 0}, {"type": "note_off", "time": 106, "note": 86, "velocity": 103, "channel": 0}, {"type": "note_on", "time": 220, "note": 87, "velocity": 100, "channel": 0}, {"type": "note_on", "time": 302, "note": 85, "velocity": 109, "channel": 0}, {"type": "note_off", "time": 0, "note": 87, "velocity": 100, "channel": 0}, {"type": "note_off", "time": 114, "note": 85, "velocity": 109, "channel": 0}, {"type": "note_on", "time": 150, "note": 87, "velocity": 102, "channel": 0}, {"type": "note_off", "time": 296, "note": 87, "velocity": 102, "channel": 0}, {"type": "note_on", "time": 8, "note": 84, "velocity": 100, "channel": 0}, {"type": "note_off", "time": 75, "note": 84, "velocity": 100, "channel": 0}, {"type": "note_on", "time": 88, "note": 87, "velocity": 112, "channel": 0}, {"type": "note_off", "time": 123, "note": 87, "velocity": 112, "channel": 0}, {"type": "note_on", "time": 0, "note": 83, "velocity": 116, "channel": 0}, {"type": "note_off", "time": 246, "note": 83, "velocity": 116, "channel": 0}, {"type": "note_on", "time": 41, "note": 82, "velocity": 117, "channel": 0}, {"type": "note_off", "time": 92, "note": 82, "velocity": 117, "channel": 0}, {"type": "note_on", "time": 83, "note": 83, "velocity": 126, "channel": 0}, {"type": "note_off", "time": 135, "note": 83, "velocity": 126, "channel": 0}, {"type": "note_on", "time": 6, "note": 81, "velocity": 103, "channel": 0}, {"type": "note_off", "time": 225, "note": 81, "velocity": 103, "channel": 0}, {"type": "note_on", "time": 58, "note": 80, "velocity": 120, "channel": 0}, {"type": "note_off", "time": 92, "note": 80, "velocity": 120, "channel": 0}, {"type": "note_on", "time": 90, "note": 81, "velocity": 114, "channel": 0}, {"type": "note_off", "time": 114, "note": 81, "velocity": 114, "channel": 0}, {"type": "note_on", "time": 3, "note": 79, "velocity": 97, "channel": 0}, {"type": "note_off", "time": 266, "note": 79, "velocity": 97, "channel": 0}, {"type": "note_on", "time": 32, "note": 75, "velocity": 91, "channel": 0}, {"type": "note_off", "time": 45, "note": 75, "velocity": 91, "channel": 0}, {"type": "note_on", "time": 155, "note": 75, "velocity": 97, "channel": 0}, {"type": "note_off", "time": 54, "note": 75, "velocity": 97, "channel": 0}, {"type": "note_on", "time": 18, "note": 78, "velocity": 117, "channel": 0}, {"type": "note_off", "time": 114, "note": 78, "velocity": 117, "channel": 0}, {"type": "note_on", "time": 13, "note": 79, "velocity": 109, "channel": 0}, {"type": "note_off", "time": 73, "note": 79, "velocity": 109, "channel": 0}, {"type": "note_on", "time": 6, "note": 77, "velocity": 111, "channel": 0}, {"type": "note_off", "time": 92, "note": 77, "velocity": 111, "channel": 0}, {"type": "note_on", "time": 102, "note": 76, "velocity": 117, "channel": 0}, {"type": "note_off", "time": 99, "note": 76, "velocity": 117, "channel": 0}, {"type": "note_on", "time": 1, "note": 77, "velocity": 114, "channel": 0}, {"type": "note_off", "time": 92, "note": 77, "velocity": 114, "channel": 0}, {"type": "note_on", "time": 0, "note": 75, "velocity": 101, "channel": 0}, {"type": "note_off", "time": 143, "note": 75, "velocity": 101, "channel": 0}, {"type": "note_on", "time": 37, "note": 74, "velocity": 117, "channel": 0}, {"type": "note_off", "time": 133, "note": 74, "velocity": 117, "channel": 0}, {"type": "note_on", "time": 1, "note": 75, "velocity": 106, "channel": 0}, {"type": "note_off", "time": 114, "note": 75, "velocity": 106, "channel": 0}, {"type": "note_on", "time": 5, "note": 72, "velocity": 94, "channel": 0}, {"type": "note_off", "time": 70, "note": 72, "velocity": 94, "channel": 0}, {"type": "note_on", "time": 517, "note": 74, "velocity": 118, "channel": 0}, {"type": "note_off", "time": 80, "note": 74, "velocity": 118, "channel": 0}, {"type": "note_on", "time": 0, "note": 73, "velocity": 111, "channel": 0}, {"type": "note_off", "time": 64, "note": 73, "velocity": 111, "channel": 0}, {"type": "note_on", "time": 2, "note": 72, "velocity": 105, "channel": 0}, {"type": "note_off", "time": 88, "note": 72, "velocity": 105, "channel": 0}, {"type": "note_on", "time": 0, "note": 71, "velocity": 103, "channel": 0}, {"type": "note_off", "time": 82, "note": 71, "velocity": 103, "channel": 0}, {"type": "note_on", "time": 6, "note": 70, "velocity": 94, "channel": 0}, {"type": "note_off", "time": 103, "note": 70, "velocity": 94, "channel": 0}, {"type": "note_on", "time": 19, "note": 68, "velocity": 90, "channel": 0}, {"type": "note_off", "time": 34, "note": 68, "velocity": 90, "channel": 0}, {"type": "note_on", "time": 0, "note": 69, "velocity": 101, "channel": 0}, {"type": "note_off", "time": 142, "note": 69, "velocity": 101, "channel": 0}, {"type": "note_on", "time": 8, "note": 67, "velocity": 92, "channel": 0}, {"type": "note_off", "time": 58, "note": 67, "velocity": 92, "channel": 0}, {"type": "note_on", "time": 6, "note": 68, "velocity": 102, "channel": 0}, {"type": "note_off", "time": 86, "note": 68, "velocity": 102, "channel": 0}, {"type": "note_on", "time": 6, "note": 71, "velocity": 110, "channel": 0}, {"type": "note_off", "time": 115, "note": 71, "velocity": 110, "channel": 0}, {"type": "note_on", "time": 4, "note": 70, "velocity": 93, "channel": 0}, {"type": "note_off", "time": 68, "note": 70, "velocity": 93, "channel": 0}, {"type": "note_on", "time": 0, "note": 68, "velocity": 103, "channel": 0}, {"type": "note_off", "time": 97, "note": 68, "velocity": 103, "channel": 0}, {"type": "note_on", "time": 4, "note": 67, "velocity": 92, "channel": 0}, {"type": "note_off", "time": 90, "note": 67, "velocity": 92, "channel": 0}, {"type": "note_on", "time": 17, "note": 66, "velocity": 117, "channel": 0}, {"type": "note_off", "time": 100, "note": 66, "velocity": 117, "channel": 0}, {"type": "note_on", "time": 2, "note": 65, "velocity": 99, "channel": 0}, {"type": "note_off", "time": 87, "note": 65, "velocity": 99, "channel": 0}, {"type": "note_on", "time": 75, "note": 63, "velocity": 115, "channel": 0}, {"type": "note_off", "time": 113, "note": 63, "velocity": 115, "channel": 0}, {"type": "note_on", "time": 0, "note": 59, "velocity": 98, "channel": 0}, {"type": "note_off", "time": 60, "note": 59, "velocity": 98, "channel": 0}, {"type": "note_on", "time": 58, "note": 63, "velocity": 85, "channel": 0}, {"type": "note_off", "time": 59, "note": 63, "velocity": 85, "channel": 0}, {"type": "note_on", "time": 2105, "note": 60, "velocity": 106, "channel": 0}, {"type": "note_off", "time": 79, "note": 60, "velocity": 106, "channel": 0}, {"type": "note_on", "time": 6, "note": 62, "velocity": 95, "channel": 0}, {"type": "note_off", "time": 46, "note": 62, "velocity": 95, "channel": 0}, {"type": "note_on", "time": 3, "note": 64, "velocity": 103, "channel": 0}, {"type": "note_off", "time": 41, "note": 64, "velocity": 103, "channel": 0}, {"type": "note_on", "time": 13, "note": 67, "velocity": 102, "channel": 0}, {"type": "note_off", "time": 125, "note": 67, "velocity": 102, "channel": 0}, {"type": "note_on", "time": 0, "note": 63, "velocity": 100, "channel": 0}, {"type": "note_off", "time": 180, "note": 63, "velocity": 100, "channel": 0}, {"type": "note_on", "time": 100, "note": 58, "velocity": 90, "channel": 0}, {"type": "note_off", "time": 47, "note": 58, "velocity": 90, "channel": 0}, {"type": "note_on", "time": 6, "note": 65, "velocity": 103, "channel": 0}, {"type": "note_off", "time": 135, "note": 65, "velocity": 103, "channel": 0}, {"type": "note_on", "time": 7, "note": 62, "velocity": 115, "channel": 0}, {"type": "note_off", "time": 75, "note": 62, "velocity": 115, "channel": 0}, {"type": "note_on", "time": 14, "note": 58, "velocity": 93, "channel": 0}, {"type": "note_off", "time": 146, "note": 58, "velocity": 93, "channel": 0}, {"type": "note_on", "time": 27, "note": 60, "velocity": 113, "channel": 0}, {"type": "note_off", "time": 180, "note": 60, "velocity": 113, "channel": 0}, {"type": "note_on", "time": 7, "note": 58, "velocity": 100, "channel": 0}, {"type": "note_off", "time": 99, "note": 58, "velocity": 100, "channel": 0}, {"type": "note_on", "time": 0, "note": 60, "velocity": 110, "channel": 0}, {"type": "note_off", "time": 200, "note": 60, "velocity": 110, "channel": 0}, {"type": "note_on", "time": 0, "note": 65, "velocity": 94, "channel": 0}, {"type": "note_off", "time": 57, "note": 65, "velocity": 94, "channel": 0}, {"type": "note_on", "time": 15, "note": 69, "velocity": 100, "channel": 0}, {"type": "note_off", "time": 99, "note": 69, "velocity": 100, "channel": 0}, {"type": "note_on", "time": 1, "note": 68, "velocity": 95, "channel": 0}, {"type": "note_off", "time": 92, "note": 68, "velocity": 95, "channel": 0}, {"type": "note_on", "time": 12, "note": 67, "velocity": 89, "channel": 0}, {"type": "note_off", "time": 85, "note": 67, "velocity": 89, "channel": 0}, {"type": "note_on", "time": 4, "note": 63, "velocity": 115, "channel": 0}, {"type": "note_off", "time": 131, "note": 63, "velocity": 115, "channel": 0}, {"type": "note_on", "time": 1, "note": 62, "velocity": 112, "channel": 0}, {"type": "note_off", "time": 85, "note": 62, "velocity": 112, "channel": 0}, {"type": "note_on", "time": 0, "note": 60, "velocity": 94, "channel": 0}, {"type": "note_off", "time": 68, "note": 60, "velocity": 94, "channel": 0}, {"type": "note_on", "time": 8, "note": 65, "velocity": 104, "channel": 0}, {"type": "note_off", "time": 105, "note": 65, "velocity": 104, "channel": 0}, {"type": "note_on", "time": 4, "note": 62, "velocity": 98, "channel": 0}, {"type": "note_off", "time": 76, "note": 62, "velocity": 98, "channel": 0}, {"type": "note_on", "time": 0, "note": 63, "velocity": 105, "channel": 0}, {"type": "note_off", "time": 91, "note": 63, "velocity": 105, "channel": 0}, {"type": "note_on", "time": 5, "note": 65, "velocity": 99, "channel": 0}, {"type": "note_off", "time": 124, "note": 65, "velocity": 99, "channel": 0}, {"type": "note_on", "time": 3, "note": 67, "velocity": 99, "channel": 0}, {"type": "note_off", "time": 87, "note": 67, "velocity": 99, "channel": 0}, {"type": "note_on", "time": 5, "note": 68, "velocity": 106, "channel": 0}, {"type": "note_off", "time": 100, "note": 68, "velocity": 106, "channel": 0}, {"type": "note_on", "time": 2, "note": 70, "velocity": 92, "channel": 0}, {"type": "note_off", "time": 63, "note": 70, "velocity": 92, "channel": 0}, {"type": "note_on", "time": 1, "note": 71, "velocity": 108, "channel": 0}, {"type": "note_off", "time": 107, "note": 71, "velocity": 108, "channel": 0}, {"type": "note_on", "time": 0, "note": 73, "velocity": 100, "channel": 0}, {"type": "note_on", "time": 92, "note": 74, "velocity": 110, "channel": 0}, {"type": "note_off", "time": 0, "note": 73, "velocity": 100, "channel": 0}, {"type": "note_off", "time": 76, "note": 74, "velocity": 110, "channel": 0}, {"type": "note_on", "time": 3, "note": 76, "velocity": 106, "channel": 0}, {"type": "note_off", "time": 105, "note": 76, "velocity": 106, "channel": 0}, {"type": "note_on", "time": 2, "note": 77, "velocity": 112, "channel": 0}, {"type": "note_off", "time": 107, "note": 77, "velocity": 112, "channel": 0}, {"type": "note_on", "time": 330, "note": 80, "velocity": 108, "channel": 0}, {"type": "note_off", "time": 176, "note": 80, "velocity": 108, "channel": 0}, {"type": "note_on", "time": 103, "note": 74, "velocity": 87, "channel": 0}, {"type": "note_off", "time": 68, "note": 74, "velocity": 87, "channel": 0}, {"type": "note_on", "time": 19, "note": 79, "velocity": 107, "channel": 0}, {"type": "note_off", "time": 118, "note": 79, "velocity": 107, "channel": 0}, {"type": "note_on", "time": 1, "note": 80, "velocity": 115, "channel": 0}, {"type": "note_off", "time": 76, "note": 80, "velocity": 115, "channel": 0}, {"type": "note_on", "time": 1, "note": 79, "velocity": 101, "channel": 0}, {"type": "note_off", "time": 90, "note": 79, "velocity": 101, "channel": 0}, {"type": "note_on", "time": 6, "note": 78, "velocity": 116, "channel": 0}, {"type": "note_off", "time": 87, "note": 78, "velocity": 116, "channel": 0}, {"type": "note_on", "time": 3, "note": 77, "velocity": 97, "channel": 0}, {"type": "note_off", "time": 76, "note": 77, "velocity": 97, "channel": 0}, {"type": "note_on", "time": 6, "note": 76, "velocity": 114, "channel": 0}, {"type": "note_off", "time": 114, "note": 76, "velocity": 114, "channel": 0}, {"type": "note_on", "time": 8, "note": 74, "velocity": 105, "channel": 0}, {"type": "note_off", "time": 100, "note": 74, "velocity": 105, "channel": 0}, {"type": "note_on", "time": 0, "note": 72, "velocity": 92, "channel": 0}, {"type": "note_off", "time": 61, "note": 72, "velocity": 92, "channel": 0}, {"type": "note_on", "time": 0, "note": 77, "velocity": 112, "channel": 0}, {"type": "note_off", "time": 123, "note": 77, "velocity": 112, "channel": 0}, {"type": "note_on", "time": 11, "note": 72, "velocity": 97, "channel": 0}, {"type": "note_off", "time": 100, "note": 72, "velocity": 97, "channel": 0}, {"type": "note_on", "time": 0, "note": 73, "velocity": 93, "channel": 0}, {"type": "note_off", "time": 70, "note": 73, "velocity": 93, "channel": 0}, {"type": "note_on", "time": 0, "note": 75, "velocity": 109, "channel": 0}, {"type": "note_off", "time": 104, "note": 75, "velocity": 109, "channel": 0}, {"type": "note_on", "time": 0, "note": 76, "velocity": 104, "channel": 0}, {"type": "note_off", "time": 73, "note": 76, "velocity": 104, "channel": 0}, {"type": "note_on", "time": 0, "note": 78, "velocity": 119, "channel": 0}, {"type": "note_off", "time": 131, "note": 78, "velocity": 119, "channel": 0}, {"type": "note_on", "time": 59, "note": 81, "velocity": 117, "channel": 0}, {"type": "note_off", "time": 106, "note": 81, "velocity": 117, "channel": 0}, {"type": "note_on", "time": 1, "note": 83, "velocity": 114, "channel": 0}, {"type": "note_off", "time": 90, "note": 83, "velocity": 114, "channel": 0}, {"type": "note_on", "time": 8, "note": 84, "velocity": 97, "channel": 0}, {"type": "note_off", "time": 65, "note": 84, "velocity": 97, "channel": 0}, {"type": "note_on", "time": 6, "note": 86, "velocity": 98, "channel": 0}, {"type": "note_off", "time": 111, "note": 86, "velocity": 98, "channel": 0}, {"type": "note_on", "time": 97, "note": 88, "velocity": 79, "channel": 0}, {"type": "note_off", "time": 550, "note": 88, "velocity": 79, "channel": 0}, {"type": "note_on", "time": 25, "note": 86, "velocity": 101, "channel": 0}, {"type": "note_off", "time": 107, "note": 86, "velocity": 101, "channel": 0}, {"type": "note_on", "time": 0, "note": 88, "velocity": 93, "channel": 0}, {"type": "note_off", "time": 76, "note": 88, "velocity": 93, "channel": 0}, {"type": "note_on", "time": 13, "note": 83, "velocity": 109, "channel": 0}, {"type": "note_off", "time": 246, "note": 83, "velocity": 109, "channel": 0}, {"type": "note_on", "time": 46, "note": 81, "velocity": 117, "channel": 0}, {"type": "note_off", "time": 119, "note": 81, "velocity": 117, "channel": 0}, {"type": "note_on", "time": 73, "note": 83, "velocity": 105, "channel": 0}, {"type": "note_off", "time": 369, "note": 83, "velocity": 105, "channel": 0}, {"type": "note_on", "time": 0, "note": 78, "velocity": 105, "channel": 0}, {"type": "note_off", "time": 449, "note": 78, "velocity": 105, "channel": 0}, {"type": "note_on", "time": 29, "note": 76, "velocity": 112, "channel": 0}, {"type": "note_off", "time": 94, "note": 76, "velocity": 112, "channel": 0}, {"type": "note_on", "time": 0, "note": 78, "velocity": 121, "channel": 0}, {"type": "note_off", "time": 126, "note": 78, "velocity": 121, "channel": 0}, {"type": "note_on", "time": 1, "note": 71, "velocity": 91, "channel": 0}, {"type": "note_off", "time": 254, "note": 71, "velocity": 91, "channel": 0}, {"type": "note_on", "time": 8, "note": 64, "velocity": 91, "channel": 0}, {"type": "note_off", "time": 83, "note": 64, "velocity": 91, "channel": 0}, {"type": "note_on", "time": 1, "note": 69, "velocity": 100, "channel": 0}, {"type": "note_off", "time": 85, "note": 69, "velocity": 100, "channel": 0}, {"type": "note_on", "time": 5, "note": 71, "velocity": 103, "channel": 0}, {"type": "note_off", "time": 92, "note": 71, "velocity": 103, "channel": 0}, {"type": "note_on", "time": 0, "note": 66, "velocity": 108, "channel": 0}, {"type": "note_off", "time": 109, "note": 66, "velocity": 108, "channel": 0}, {"type": "note_on", "time": 3, "note": 59, "velocity": 91, "channel": 0}, {"type": "note_off", "time": 66, "note": 59, "velocity": 91, "channel": 0}, {"type": "note_on", "time": 6, "note": 64, "velocity": 106, "channel": 0}, {"type": "note_off", "time": 90, "note": 64, "velocity": 106, "channel": 0}, {"type": "note_on", "time": 8, "note": 66, "velocity": 107, "channel": 0}, {"type": "note_off", "time": 80, "note": 66, "velocity": 107, "channel": 0}, {"type": "note_on", "time": 6, "note": 59, "velocity": 98, "channel": 0}, {"type": "note_off", "time": 150, "note": 59, "velocity": 98, "channel": 0}, {"type": "note_on", "time": 508, "note": 58, "velocity": 111, "channel": 0}, {"type": "note_off", "time": 106, "note": 58, "velocity": 111, "channel": 0}, {"type": "note_on", "time": 0, "note": 60, "velocity": 103, "channel": 0}, {"type": "note_off", "time": 94, "note": 60, "velocity": 103, "channel": 0}, {"type": "note_on", "time": 1, "note": 65, "velocity": 101, "channel": 0}, {"type": "note_off", "time": 104, "note": 65, "velocity": 101, "channel": 0}, {"type": "note_on", "time": 1, "note": 60, "velocity": 101, "channel": 0}, {"type": "note_off", "time": 431, "note": 60, "velocity": 101, "channel": 0}, {"type": "note_on", "time": 29, "note": 63, "velocity": 113, "channel": 0}, {"type": "note_off", "time": 100, "note": 63, "velocity": 113, "channel": 0}, {"type": "note_on", "time": 0, "note": 68, "velocity": 109, "channel": 0}, {"type": "note_off", "time": 92, "note": 68, "velocity": 109, "channel": 0}, {"type": "note_on", "time": 0, "note": 62, "velocity": 113, "channel": 0}, {"type": "note_off", "time": 249, "note": 62, "velocity": 113, "channel": 0}, {"type": "note_on", "time": 44, "note": 66, "velocity": 106, "channel": 0}, {"type": "note_off", "time": 75, "note": 66, "velocity": 106, "channel": 0}, {"type": "note_on", "time": 6, "note": 69, "velocity": 107, "channel": 0}, {"type": "note_off", "time": 90, "note": 69, "velocity": 107, "channel": 0}, {"type": "note_on", "time": 5, "note": 66, "velocity": 98, "channel": 0}, {"type": "note_off", "time": 73, "note": 66, "velocity": 98, "channel": 0}, {"type": "note_on", "time": 1, "note": 67, "velocity": 104, "channel": 0}, {"type": "note_off", "time": 112, "note": 67, "velocity": 104, "channel": 0}, {"type": "note_on", "time": 43, "note": 69, "velocity": 84, "channel": 0}, {"type": "note_off", "time": 44, "note": 69, "velocity": 84, "channel": 0}, {"type": "note_on", "time": 18, "note": 71, "velocity": 96, "channel": 0}, {"type": "note_off", "time": 54, "note": 71, "velocity": 96, "channel": 0}, {"type": "note_on", "time": 11, "note": 74, "velocity": 118, "channel": 0}, {"type": "note_off", "time": 121, "note": 74, "velocity": 118, "channel": 0}, {"type": "note_on", "time": 0, "note": 71, "velocity": 104, "channel": 0}, {"type": "note_off", "time": 82, "note": 71, "velocity": 104, "channel": 0}, {"type": "note_on", "time": 10, "note": 69, "velocity": 95, "channel": 0}, {"type": "note_off", "time": 76, "note": 69, "velocity": 95, "channel": 0}, {"type": "note_on", "time": 8, "note": 67, "velocity": 89, "channel": 0}, {"type": "note_off", "time": 83, "note": 67, "velocity": 89, "channel": 0}, {"type": "note_on", "time": 22, "note": 73, "velocity": 106, "channel": 0}, {"type": "note_off", "time": 102, "note": 73, "velocity": 106, "channel": 0}, {"type": "note_on", "time": 0, "note": 71, "velocity": 108, "channel": 0}, {"type": "note_off", "time": 97, "note": 71, "velocity": 108, "channel": 0}, {"type": "note_on", "time": 10, "note": 69, "velocity": 96, "channel": 0}, {"type": "note_off", "time": 82, "note": 69, "velocity": 96, "channel": 0}, {"type": "note_on", "time": 1, "note": 67, "velocity": 96, "channel": 0}, {"type": "note_off", "time": 88, "note": 67, "velocity": 96, "channel": 0}, {"type": "note_on", "time": 5, "note": 70, "velocity": 101, "channel": 0}, {"type": "note_off", "time": 83, "note": 70, "velocity": 101, "channel": 0}, {"type": "note_on", "time": 0, "note": 67, "velocity": 94, "channel": 0}, {"type": "note_off", "time": 83, "note": 67, "velocity": 94, "channel": 0}, {"type": "note_on", "time": 5, "note": 68, "velocity": 98, "channel": 0}, {"type": "note_off", "time": 111, "note": 68, "velocity": 98, "channel": 0}, {"type": "note_on", "time": 6, "note": 70, "velocity": 96, "channel": 0}, {"type": "note_off", "time": 104, "note": 70, "velocity": 96, "channel": 0}, {"type": "note_on", "time": 2706, "note": 70, "velocity": 97, "channel": 0}, {"type": "note_off", "time": 61, "note": 70, "velocity": 97, "channel": 0}, {"type": "note_on", "time": 131, "note": 82, "velocity": 115, "channel": 0}, {"type": "note_off", "time": 97, "note": 82, "velocity": 115, "channel": 0}, {"type": "note_on", "time": 83, "note": 82, "velocity": 111, "channel": 0}, {"type": "note_off", "time": 95, "note": 82, "velocity": 111, "channel": 0}, {"type": "note_on", "time": 104, "note": 80, "velocity": 85, "channel": 0}, {"type": "note_off", "time": 85, "note": 80, "velocity": 85, "channel": 0}, {"type": "note_on", "time": 5, "note": 82, "velocity": 110, "channel": 0}, {"type": "note_off", "time": 153, "note": 82, "velocity": 110, "channel": 0}, {"type": "note_on", "time": 30, "note": 80, "velocity": 107, "channel": 0}, {"type": "note_off", "time": 123, "note": 80, "velocity": 107, "channel": 0}, {"type": "note_on", "time": 6, "note": 77, "velocity": 98, "channel": 0}, {"type": "note_off", "time": 56, "note": 77, "velocity": 98, "channel": 0}, {"type": "note_on", "time": 662, "note": 79, "velocity": 102, "channel": 0}, {"type": "note_off", "time": 289, "note": 79, "velocity": 102, "channel": 0}, {"type": "note_on", "time": 18, "note": 77, "velocity": 115, "channel": 0}, {"type": "note_off", "time": 97, "note": 77, "velocity": 115, "channel": 0}, {"type": "note_on", "time": 11, "note": 79, "velocity": 106, "channel": 0}, {"type": "note_off", "time": 95, "note": 79, "velocity": 106, "channel": 0}, {"type": "note_on", "time": 5, "note": 77, "velocity": 106, "channel": 0}, {"type": "note_off", "time": 92, "note": 77, "velocity": 106, "channel": 0}, {"type": "note_on", "time": 3, "note": 74, "velocity": 114, "channel": 0}, {"type": "note_off", "time": 104, "note": 74, "velocity": 114, "channel": 0}, {"type": "note_on", "time": 1, "note": 72, "velocity": 97, "channel": 0}, {"type": "note_off", "time": 119, "note": 72, "velocity": 97, "channel": 0}, {"type": "note_on", "time": 39, "note": 69, "velocity": 95, "channel": 0}, {"type": "note_off", "time": 145, "note": 69, "velocity": 95, "channel": 0}, {"type": "note_on", "time": 46, "note": 72, "velocity": 104, "channel": 0}, {"type": "note_off", "time": 181, "note": 72, "velocity": 104, "channel": 0}, {"type": "note_on", "time": 489, "note": 69, "velocity": 102, "channel": 0}, {"type": "note_off", "time": 124, "note": 69, "velocity": 102, "channel": 0}, {"type": "note_on", "time": 3, "note": 70, "velocity": 95, "channel": 0}, {"type": "note_off", "time": 88, "note": 70, "velocity": 95, "channel": 0}, {"type": "note_on", "time": 0, "note": 71, "velocity": 103, "channel": 0}, {"type": "note_off", "time": 145, "note": 71, "velocity": 103, "channel": 0}, {"type": "note_on", "time": 22, "note": 67, "velocity": 111, "channel": 0}, {"type": "note_off", "time": 73, "note": 67, "velocity": 111, "channel": 0}, {"type": "note_on", "time": 17, "note": 64, "velocity": 94, "channel": 0}, {"type": "note_off", "time": 95, "note": 64, "velocity": 94, "channel": 0}, {"type": "note_on", "time": 13, "note": 60, "velocity": 93, "channel": 0}, {"type": "note_off", "time": 75, "note": 60, "velocity": 93, "channel": 0}, {"type": "note_on", "time": 1, "note": 65, "velocity": 103, "channel": 0}, {"type": "note_off", "time": 106, "note": 65, "velocity": 103, "channel": 0}, {"type": "note_on", "time": 6, "note": 63, "velocity": 110, "channel": 0}, {"type": "note_off", "time": 76, "note": 63, "velocity": 110, "channel": 0}, {"type": "note_on", "time": 257, "note": 61, "velocity": 80, "channel": 0}, {"type": "note_off", "time": 20, "note": 61, "velocity": 80, "channel": 0}, {"type": "note_on", "time": 8, "note": 62, "velocity": 111, "channel": 0}, {"type": "note_off", "time": 147, "note": 62, "velocity": 111, "channel": 0}, {"type": "note_on", "time": 34, "note": 61, "velocity": 120, "channel": 0}, {"type": "note_off", "time": 109, "note": 61, "velocity": 120, "channel": 0}, {"type": "note_on", "time": 6, "note": 65, "velocity": 96, "channel": 0}, {"type": "note_off", "time": 82, "note": 65, "velocity": 96, "channel": 0}, {"type": "note_on", "time": 0, "note": 68, "velocity": 96, "channel": 0}, {"type": "note_off", "time": 75, "note": 68, "velocity": 96, "channel": 0}, {"type": "note_on", "time": 1, "note": 72, "velocity": 107, "channel": 0}, {"type": "note_off", "time": 126, "note": 72, "velocity": 107, "channel": 0}, {"type": "note_on", "time": 5, "note": 70, "velocity": 92, "channel": 0}, {"type": "note_off", "time": 71, "note": 70, "velocity": 92, "channel": 0}, {"type": "note_on", "time": 5, "note": 71, "velocity": 103, "channel": 0}, {"type": "note_off", "time": 95, "note": 71, "velocity": 103, "channel": 0}, {"type": "note_on", "time": 5, "note": 67, "velocity": 109, "channel": 0}, {"type": "note_off", "time": 88, "note": 67, "velocity": 109, "channel": 0}, {"type": "note_on", "time": 5, "note": 66, "velocity": 102, "channel": 0}, {"type": "note_off", "time": 95, "note": 66, "velocity": 102, "channel": 0}, {"type": "note_on", "time": 1, "note": 64, "velocity": 95, "channel": 0}, {"type": "note_off", "time": 53, "note": 64, "velocity": 95, "channel": 0}, {"type": "note_on", "time": 0, "note": 69, "velocity": 102, "channel": 0}, {"type": "note_off", "time": 109, "note": 69, "velocity": 102, "channel": 0}, {"type": "note_on", "time": 0, "note": 66, "velocity": 101, "channel": 0}, {"type": "note_off", "time": 73, "note": 66, "velocity": 101, "channel": 0}, {"type": "note_on", "time": 0, "note": 67, "velocity": 101, "channel": 0}, {"type": "note_off", "time": 104, "note": 67, "velocity": 101, "channel": 0}, {"type": "note_on", "time": 3, "note": 69, "velocity": 105, "channel": 0}, {"type": "note_off", "time": 97, "note": 69, "velocity": 105, "channel": 0}, {"type": "note_on", "time": 0, "note": 70, "velocity": 89, "channel": 0}, {"type": "note_off", "time": 102, "note": 70, "velocity": 89, "channel": 0}, {"type": "note_on", "time": 8, "note": 71, "velocity": 106, "channel": 0}, {"type": "note_off", "time": 98, "note": 71, "velocity": 106, "channel": 0}, {"type": "note_on", "time": 0, "note": 74, "velocity": 109, "channel": 0}, {"type": "note_off", "time": 82, "note": 74, "velocity": 109, "channel": 0}, {"type": "note_on", "time": 8, "note": 78, "velocity": 109, "channel": 0}, {"type": "note_off", "time": 75, "note": 78, "velocity": 109, "channel": 0}, {"type": "note_on", "time": 3, "note": 81, "velocity": 117, "channel": 0}, {"type": "note_off", "time": 100, "note": 81, "velocity": 117, "channel": 0}, {"type": "note_on", "time": 8, "note": 78, "velocity": 112, "channel": 0}, {"type": "note_off", "time": 104, "note": 78, "velocity": 112, "channel": 0}, {"type": "note_on", "time": 11, "note": 74, "velocity": 105, "channel": 0}, {"type": "note_off", "time": 78, "note": 74, "velocity": 105, "channel": 0}, {"type": "note_on", "time": 10, "note": 71, "velocity": 91, "channel": 0}, {"type": "note_off", "time": 49, "note": 71, "velocity": 91, "channel": 0}, {"type": "note_on", "time": 0, "note": 78, "velocity": 117, "channel": 0}, {"type": "note_off", "time": 121, "note": 78, "velocity": 117, "channel": 0}, {"type": "note_on", "time": 1, "note": 76, "velocity": 110, "channel": 0}, {"type": "note_off", "time": 116, "note": 76, "velocity": 110, "channel": 0}, {"type": "note_on", "time": 15, "note": 73, "velocity": 91, "channel": 0}, {"type": "note_off", "time": 70, "note": 73, "velocity": 91, "channel": 0}, {"type": "note_on", "time": 6, "note": 71, "velocity": 102, "channel": 0}, {"type": "note_off", "time": 83, "note": 71, "velocity": 102, "channel": 0}, {"type": "note_on", "time": 3, "note": 70, "velocity": 95, "channel": 0}, {"type": "note_off", "time": 88, "note": 70, "velocity": 95, "channel": 0}, {"type": "note_on", "time": 1, "note": 71, "velocity": 100, "channel": 0}, {"type": "note_off", "time": 128, "note": 71, "velocity": 100, "channel": 0}, {"type": "note_on", "time": 1923, "note": 63, "velocity": 88, "channel": 0}, {"type": "note_off", "time": 85, "note": 63, "velocity": 88, "channel": 0}, {"type": "note_on", "time": 13, "note": 73, "velocity": 110, "channel": 0}, {"type": "note_off", "time": 143, "note": 73, "velocity": 110, "channel": 0}, {"type": "note_on", "time": 10, "note": 69, "velocity": 89, "channel": 0}, {"type": "note_off", "time": 328, "note": 69, "velocity": 89, "channel": 0}, {"type": "note_on", "time": 27, "note": 64, "velocity": 87, "channel": 0}, {"type": "note_off", "time": 54, "note": 64, "velocity": 87, "channel": 0}, {"type": "note_on", "time": 0, "note": 71, "velocity": 110, "channel": 0}, {"type": "note_off", "time": 143, "note": 71, "velocity": 110, "channel": 0}, {"type": "note_on", "time": 13, "note": 67, "velocity": 96, "channel": 0}, {"type": "note_off", "time": 270, "note": 67, "velocity": 96, "channel": 0}, {"type": "note_on", "time": 73, "note": 64, "velocity": 91, "channel": 0}, {"type": "note_off", "time": 47, "note": 64, "velocity": 91, "channel": 0}, {"type": "note_on", "time": 1, "note": 69, "velocity": 101, "channel": 0}, {"type": "note_off", "time": 150, "note": 69, "velocity": 101, "channel": 0}, {"type": "note_on", "time": 3, "note": 66, "velocity": 102, "channel": 0}, {"type": "note_off", "time": 342, "note": 66, "velocity": 102, "channel": 0}, {"type": "note_on", "time": 10, "note": 64, "velocity": 83, "channel": 0}, {"type": "note_off", "time": 68, "note": 64, "velocity": 83, "channel": 0}, {"type": "note_on", "time": 0, "note": 67, "velocity": 109, "channel": 0}, {"type": "note_off", "time": 138, "note": 67, "velocity": 109, "channel": 0}, {"type": "note_on", "time": 6, "note": 65, "velocity": 94, "channel": 0}, {"type": "note_off", "time": 229, "note": 65, "velocity": 94, "channel": 0}, {"type": "note_on", "time": 145, "note": 58, "velocity": 90, "channel": 0}, {"type": "note_off", "time": 58, "note": 58, "velocity": 90, "channel": 0}, {"type": "note_on", "time": 0, "note": 65, "velocity": 104, "channel": 0}, {"type": "note_off", "time": 99, "note": 65, "velocity": 104, "channel": 0}, {"type": "note_on", "time": 0, "note": 63, "velocity": 100, "channel": 0}, {"type": "note_off", "time": 222, "note": 63, "velocity": 100, "channel": 0}, {"type": "note_on", "time": 0, "note": 59, "velocity": 98, "channel": 0}, {"type": "note_off", "time": 68, "note": 59, "velocity": 98, "channel": 0}, {"type": "note_on", "time": 3, "note": 62, "velocity": 119, "channel": 0}, {"type": "note_off", "time": 164, "note": 62, "velocity": 119, "channel": 0}, {"type": "note_on", "time": 10, "note": 64, "velocity": 98, "channel": 0}, {"type": "note_off", "time": 157, "note": 64, "velocity": 98, "channel": 0}, {"type": "note_on", "time": 6, "note": 59, "velocity": 99, "channel": 0}, {"type": "note_off", "time": 37, "note": 59, "velocity": 99, "channel": 0}, {"type": "note_on", "time": 3, "note": 66, "velocity": 111, "channel": 0}, {"type": "note_on", "time": 133, "note": 69, "velocity": 100, "channel": 0}, {"type": "note_off", "time": 0, "note": 66, "velocity": 111, "channel": 0}, {"type": "note_off", "time": 167, "note": 69, "velocity": 100, "channel": 0}, {"type": "note_on", "time": 0, "note": 64, "velocity": 93, "channel": 0}, {"type": "note_off", "time": 78, "note": 64, "velocity": 93, "channel": 0}, {"type": "note_on", "time": 0, "note": 71, "velocity": 109, "channel": 0}, {"type": "note_off", "time": 140, "note": 71, "velocity": 109, "channel": 0}, {"type": "note_on", "time": 0, "note": 73, "velocity": 100, "channel": 0}, {"type": "note_on", "time": 153, "note": 61, "velocity": 96, "channel": 0}, {"type": "note_off", "time": 0, "note": 73, "velocity": 100, "channel": 0}, {"type": "note_off", "time": 88, "note": 61, "velocity": 96, "channel": 0}, {"type": "note_on", "time": 3, "note": 68, "velocity": 110, "channel": 0}, {"type": "note_on", "time": 123, "note": 66, "velocity": 110, "channel": 0}, {"type": "note_off", "time": 0, "note": 68, "velocity": 110, "channel": 0}, {"type": "note_off", "time": 177, "note": 66, "velocity": 110, "channel": 0}, {"type": "note_on", "time": 13, "note": 61, "velocity": 111, "channel": 0}, {"type": "note_off", "time": 61, "note": 61, "velocity": 111, "channel": 0}, {"type": "note_on", "time": 0, "note": 69, "velocity": 104, "channel": 0}, {"type": "note_on", "time": 102, "note": 74, "velocity": 116, "channel": 0}, {"type": "note_off", "time": 0, "note": 69, "velocity": 104, "channel": 0}, {"type": "note_off", "time": 219, "note": 74, "velocity": 116, "channel": 0}, {"type": "note_on", "time": 10, "note": 63, "velocity": 97, "channel": 0}, {"type": "note_off", "time": 71, "note": 63, "velocity": 97, "channel": 0}, {"type": "note_on", "time": 167, "note": 79, "velocity": 102, "channel": 0}, {"type": "note_off", "time": 290, "note": 79, "velocity": 102, "channel": 0}, {"type": "note_on", "time": 6, "note": 74, "velocity": 117, "channel": 0}, {"type": "note_off", "time": 195, "note": 74, "velocity": 117, "channel": 0}, {"type": "note_on", "time": 0, "note": 77, "velocity": 110, "channel": 0}, {"type": "note_off", "time": 184, "note": 77, "velocity": 110, "channel": 0}, {"type": "note_on", "time": 13, "note": 72, "velocity": 110, "channel": 0}, {"type": "note_off", "time": 167, "note": 72, "velocity": 110, "channel": 0}, {"type": "note_on", "time": 6, "note": 74, "velocity": 117, "channel": 0}, {"type": "note_off", "time": 119, "note": 74, "velocity": 117, "channel": 0}, {"type": "note_on", "time": 3, "note": 72, "velocity": 108, "channel": 0}, {"type": "note_off", "time": 82, "note": 72, "velocity": 108, "channel": 0}, {"type": "note_on", "time": 3, "note": 69, "velocity": 99, "channel": 0}, {"type": "note_off", "time": 95, "note": 69, "velocity": 99, "channel": 0}, {"type": "note_on", "time": 3, "note": 67, "velocity": 100, "channel": 0}, {"type": "note_off", "time": 71, "note": 67, "velocity": 100, "channel": 0}, {"type": "note_on", "time": 17, "note": 62, "velocity": 98, "channel": 0}, {"type": "note_off", "time": 68, "note": 62, "velocity": 98, "channel": 0}, {"type": "note_on", "time": 0, "note": 69, "velocity": 105, "channel": 0}, {"type": "note_off", "time": 119, "note": 69, "velocity": 105, "channel": 0}, {"type": "note_on", "time": 0, "note": 62, "velocity": 92, "channel": 0}, {"type": "note_off", "time": 88, "note": 62, "velocity": 92, "channel": 0}, {"type": "note_on", "time": 3, "note": 67, "velocity": 104, "channel": 0}, {"type": "note_off", "time": 133, "note": 67, "velocity": 104, "channel": 0}, {"type": "note_on", "time": 537, "note": 76, "velocity": 113, "channel": 0}, {"type": "note_off", "time": 123, "note": 76, "velocity": 113, "channel": 0}, {"type": "note_on", "time": 0, "note": 79, "velocity": 96, "channel": 0}, {"type": "note_off", "time": 68, "note": 79, "velocity": 96, "channel": 0}, {"type": "note_on", "time": 10, "note": 83, "velocity": 108, "channel": 0}, {"type": "note_off", "time": 47, "note": 83, "velocity": 108, "channel": 0}, {"type": "note_on", "time": 23, "note": 86, "velocity": 109, "channel": 0}, {"type": "note_off", "time": 82, "note": 86, "velocity": 109, "channel": 0}, {"type": "note_on", "time": 10, "note": 85, "velocity": 104, "channel": 0}, {"type": "note_off", "time": 82, "note": 85, "velocity": 104, "channel": 0}, {"type": "note_on", "time": 20, "note": 84, "velocity": 93, "channel": 0}, {"type": "note_off", "time": 65, "note": 84, "velocity": 93, "channel": 0}, {"type": "note_on", "time": 10, "note": 83, "velocity": 122, "channel": 0}, {"type": "note_off", "time": 99, "note": 83, "velocity": 122, "channel": 0}, {"type": "note_on", "time": 17, "note": 82, "velocity": 109, "channel": 0}, {"type": "note_off", "time": 68, "note": 82, "velocity": 109, "channel": 0}, {"type": "note_on", "time": 13, "note": 80, "velocity": 116, "channel": 0}, {"type": "note_off", "time": 88, "note": 80, "velocity": 116, "channel": 0}, {"type": "note_on", "time": 17, "note": 79, "velocity": 103, "channel": 0}, {"type": "note_off", "time": 82, "note": 79, "velocity": 103, "channel": 0}, {"type": "note_on", "time": 0, "note": 78, "velocity": 127, "channel": 0}, {"type": "note_off", "time": 109, "note": 78, "velocity": 127, "channel": 0}, {"type": "note_on", "time": 6, "note": 77, "velocity": 103, "channel": 0}, {"type": "note_off", "time": 65, "note": 77, "velocity": 103, "channel": 0}, {"type": "note_on", "time": 13, "note": 76, "velocity": 115, "channel": 0}, {"type": "note_off", "time": 102, "note": 76, "velocity": 115, "channel": 0}, {"type": "note_on", "time": 10, "note": 75, "velocity": 105, "channel": 0}, {"type": "note_off", "time": 78, "note": 75, "velocity": 105, "channel": 0}, {"type": "note_on", "time": 20, "note": 73, "velocity": 99, "channel": 0}, {"type": "note_off", "time": 65, "note": 73, "velocity": 99, "channel": 0}, {"type": "note_on", "time": 17, "note": 72, "velocity": 94, "channel": 0}, {"type": "note_off", "time": 85, "note": 72, "velocity": 94, "channel": 0}, {"type": "note_on", "time": 10, "note": 70, "velocity": 104, "channel": 0}, {"type": "note_off", "time": 106, "note": 70, "velocity": 104, "channel": 0}, {"type": "note_on", "time": 10, "note": 69, "velocity": 97, "channel": 0}, {"type": "note_off", "time": 75, "note": 69, "velocity": 97, "channel": 0}, {"type": "note_on", "time": 13, "note": 67, "velocity": 94, "channel": 0}, {"type": "note_off", "time": 71, "note": 67, "velocity": 94, "channel": 0}, {"type": "note_on", "time": 34, "note": 70, "velocity": 100, "channel": 0}, {"type": "note_off", "time": 75, "note": 70, "velocity": 100, "channel": 0}, {"type": "note_on", "time": 0, "note": 67, "velocity": 98, "channel": 0}, {"type": "note_off", "time": 75, "note": 67, "velocity": 98, "channel": 0}, {"type": "note_on", "time": 3, "note": 68, "velocity": 90, "channel": 0}, {"type": "note_off", "time": 68, "note": 68, "velocity": 90, "channel": 0}, {"type": "note_on", "time": 23, "note": 70, "velocity": 96, "channel": 0}, {"type": "note_off", "time": 95, "note": 70, "velocity": 96, "channel": 0}, {"type": "note_on", "time": 126, "note": 73, "velocity": 100, "channel": 0}, {"type": "note_off", "time": 78, "note": 73, "velocity": 100, "channel": 0}, {"type": "note_on", "time": 0, "note": 75, "velocity": 101, "channel": 0}, {"type": "note_off", "time": 92, "note": 75, "velocity": 101, "channel": 0}, {"type": "note_on", "time": 20, "note": 78, "velocity": 95, "channel": 0}, {"type": "note_off", "time": 396, "note": 78, "velocity": 95, "channel": 0}, {"type": "note_on", "time": 1465, "note": 71, "velocity": 87, "channel": 0}, {"type": "note_off", "time": 53, "note": 71, "velocity": 87, "channel": 0}, {"type": "note_on", "time": 7, "note": 82, "velocity": 105, "channel": 0}, {"type": "note_off", "time": 184, "note": 82, "velocity": 105, "channel": 0}, {"type": "note_on", "time": 48, "note": 79, "velocity": 96, "channel": 0}, {"type": "note_off", "time": 85, "note": 79, "velocity": 96, "channel": 0}, {"type": "note_on", "time": 6, "note": 75, "velocity": 104, "channel": 0}, {"type": "note_off", "time": 60, "note": 75, "velocity": 104, "channel": 0}, {"type": "note_on", "time": 0, "note": 71, "velocity": 104, "channel": 0}, {"type": "note_off", "time": 92, "note": 71, "velocity": 104, "channel": 0}, {"type": "note_on", "time": 17, "note": 70, "velocity": 102, "channel": 0}, {"type": "note_off", "time": 71, "note": 70, "velocity": 102, "channel": 0}, {"type": "note_on", "time": 6, "note": 69, "velocity": 90, "channel": 0}, {"type": "note_off", "time": 85, "note": 69, "velocity": 90, "channel": 0}, {"type": "note_on", "time": 9, "note": 67, "velocity": 103, "channel": 0}, {"type": "note_off", "time": 109, "note": 67, "velocity": 103, "channel": 0}, {"type": "note_on", "time": 12, "note": 68, "velocity": 100, "channel": 0}, {"type": "note_off", "time": 97, "note": 68, "velocity": 100, "channel": 0}, {"type": "note_on", "time": 24, "note": 72, "velocity": 118, "channel": 0}, {"type": "note_off", "time": 107, "note": 72, "velocity": 118, "channel": 0}, {"type": "note_on", "time": 0, "note": 67, "velocity": 96, "channel": 0}, {"type": "note_off", "time": 94, "note": 67, "velocity": 96, "channel": 0}, {"type": "note_on", "time": 0, "note": 65, "velocity": 92, "channel": 0}, {"type": "note_off", "time": 55, "note": 65, "velocity": 92, "channel": 0}, {"type": "note_on", "time": 0, "note": 70, "velocity": 100, "channel": 0}, {"type": "note_off", "time": 92, "note": 70, "velocity": 100, "channel": 0}, {"type": "note_on", "time": 36, "note": 68, "velocity": 96, "channel": 0}, {"type": "note_off", "time": 68, "note": 68, "velocity": 96, "channel": 0}, {"type": "note_on", "time": 9, "note": 72, "velocity": 111, "channel": 0}, {"type": "note_off", "time": 107, "note": 72, "velocity": 111, "channel": 0}, {"type": "note_on", "time": 4, "note": 67, "velocity": 105, "channel": 0}, {"type": "note_off", "time": 97, "note": 67, "velocity": 105, "channel": 0}, {"type": "note_on", "time": 0, "note": 63, "velocity": 102, "channel": 0}, {"type": "note_off", "time": 85, "note": 63, "velocity": 102, "channel": 0}, {"type": "note_on", "time": 4, "note": 60, "velocity": 93, "channel": 0}, {"type": "note_off", "time": 55, "note": 60, "velocity": 93, "channel": 0}, {"type": "note_on", "time": 7, "note": 65, "velocity": 101, "channel": 0}, {"type": "note_off", "time": 94, "note": 65, "velocity": 101, "channel": 0}, {"type": "note_on", "time": 14, "note": 61, "velocity": 109, "channel": 0}, {"type": "note_off", "time": 85, "note": 61, "velocity": 109, "channel": 0}, {"type": "note_on", "time": 0, "note": 62, "velocity": 104, "channel": 0}, {"type": "note_off", "time": 82, "note": 62, "velocity": 104, "channel": 0}, {"type": "note_on", "time": 19, "note": 66, "velocity": 114, "channel": 0}, {"type": "note_off", "time": 90, "note": 66, "velocity": 114, "channel": 0}, {"type": "note_on", "time": 7, "note": 69, "velocity": 89, "channel": 0}, {"type": "note_off", "time": 87, "note": 69, "velocity": 89, "channel": 0}, {"type": "note_on", "time": 12, "note": 73, "velocity": 89, "channel": 0}, {"type": "note_off", "time": 55, "note": 73, "velocity": 89, "channel": 0}, {"type": "note_on", "time": 9, "note": 76, "velocity": 114, "channel": 0}, {"type": "note_off", "time": 97, "note": 76, "velocity": 114, "channel": 0}, {"type": "note_on", "time": 12, "note": 74, "velocity": 112, "channel": 0}, {"type": "note_on", "time": 97, "note": 73, "velocity": 96, "channel": 0}, {"type": "note_off", "time": 0, "note": 74, "velocity": 112, "channel": 0}, {"type": "note_off", "time": 80, "note": 73, "velocity": 96, "channel": 0}, {"type": "note_on", "time": 13, "note": 71, "velocity": 107, "channel": 0}, {"type": "note_off", "time": 82, "note": 71, "velocity": 107, "channel": 0}, {"type": "note_on", "time": 5, "note": 70, "velocity": 80, "channel": 0}, {"type": "note_off", "time": 462, "note": 70, "velocity": 80, "channel": 0}, {"type": "note_on", "time": 144, "note": 68, "velocity": 102, "channel": 0}, {"type": "note_off", "time": 92, "note": 68, "velocity": 102, "channel": 0}, {"type": "note_on", "time": 9, "note": 70, "velocity": 96, "channel": 0}, {"type": "note_off", "time": 114, "note": 70, "velocity": 96, "channel": 0}, {"type": "note_on", "time": 29, "note": 61, "velocity": 9, "channel": 0}, {"type": "note_off", "time": 413, "note": 61, "velocity": 9, "channel": 0}, {"type": "note_on", "time": 367, "note": 64, "velocity": 107, "channel": 0}, {"type": "note_off", "time": 142, "note": 64, "velocity": 107, "channel": 0}, {"type": "note_on", "time": 1, "note": 66, "velocity": 112, "channel": 0}, {"type": "note_off", "time": 136, "note": 66, "velocity": 112, "channel": 0}, {"type": "note_on", "time": 14, "note": 67, "velocity": 108, "channel": 0}, {"type": "note_off", "time": 119, "note": 67, "velocity": 108, "channel": 0}, {"type": "note_on", "time": 0, "note": 69, "velocity": 98, "channel": 0}, {"type": "note_off", "time": 107, "note": 69, "velocity": 98, "channel": 0}, {"type": "note_on", "time": 7, "note": 71, "velocity": 99, "channel": 0}, {"type": "note_off", "time": 99, "note": 71, "velocity": 99, "channel": 0}, {"type": "note_on", "time": 14, "note": 74, "velocity": 106, "channel": 0}, {"type": "note_off", "time": 294, "note": 74, "velocity": 106, "channel": 0}, {"type": "note_on", "time": 513, "note": 75, "velocity": 100, "channel": 0}, {"type": "note_off", "time": 289, "note": 75, "velocity": 100, "channel": 0}, {"type": "note_on", "time": 19, "note": 72, "velocity": 91, "channel": 0}, {"type": "note_off", "time": 566, "note": 72, "velocity": 91, "channel": 0}, {"type": "note_on", "time": 255, "note": 62, "velocity": 94, "channel": 0}, {"type": "note_off", "time": 49, "note": 62, "velocity": 94, "channel": 0}, {"type": "note_on", "time": 0, "note": 74, "velocity": 117, "channel": 0}, {"type": "note_off", "time": 165, "note": 74, "velocity": 117, "channel": 0}, {"type": "note_on", "time": 3, "note": 71, "velocity": 87, "channel": 0}, {"type": "note_off", "time": 515, "note": 71, "velocity": 87, "channel": 0}, {"type": "note_on", "time": 33, "note": 63, "velocity": 93, "channel": 0}, {"type": "note_off", "time": 72, "note": 63, "velocity": 93, "channel": 0}, {"type": "note_on", "time": 22, "note": 73, "velocity": 104, "channel": 0}, {"type": "note_off", "time": 107, "note": 73, "velocity": 104, "channel": 0}, {"type": "note_on", "time": 7, "note": 70, "velocity": 81, "channel": 0}, {"type": "note_off", "time": 513, "note": 70, "velocity": 81, "channel": 0}, {"type": "note_on", "time": 31, "note": 69, "velocity": 103, "channel": 0}, {"type": "note_off", "time": 104, "note": 69, "velocity": 103, "channel": 0}, {"type": "note_on", "time": 94, "note": 72, "velocity": 109, "channel": 0}, {"type": "note_off", "time": 162, "note": 72, "velocity": 109, "channel": 0}, {"type": "note_on", "time": 527, "note": 71, "velocity": 118, "channel": 0}, {"type": "note_off", "time": 107, "note": 71, "velocity": 118, "channel": 0}, {"type": "note_on", "time": 5, "note": 68, "velocity": 107, "channel": 0}, {"type": "note_off", "time": 92, "note": 68, "velocity": 107, "channel": 0}, {"type": "note_on", "time": 875, "note": 63, "velocity": 94, "channel": 0}, {"type": "note_off", "time": 73, "note": 63, "velocity": 94, "channel": 0}, {"type": "note_on", "time": 12, "note": 71, "velocity": 108, "channel": 0}, {"type": "note_off", "time": 146, "note": 71, "velocity": 108, "channel": 0}, {"type": "note_on", "time": 36, "note": 71, "velocity": 112, "channel": 0}, {"type": "note_off", "time": 107, "note": 71, "velocity": 112, "channel": 0}, {"type": "note_on", "time": 5, "note": 68, "velocity": 97, "channel": 0}, {"type": "note_off", "time": 88, "note": 68, "velocity": 97, "channel": 0}, {"type": "note_on", "time": 3, "note": 71, "velocity": 101, "channel": 0}, {"type": "note_off", "time": 71, "note": 71, "velocity": 101, "channel": 0}, {"type": "note_on", "time": 6, "note": 73, "velocity": 108, "channel": 0}, {"type": "note_off", "time": 102, "note": 73, "velocity": 108, "channel": 0}, {"type": "note_on", "time": 0, "note": 71, "velocity": 102, "channel": 0}, {"type": "note_off", "time": 85, "note": 71, "velocity": 102, "channel": 0}, {"type": "note_on", "time": 10, "note": 68, "velocity": 96, "channel": 0}, {"type": "note_off", "time": 82, "note": 68, "velocity": 96, "channel": 0}, {"type": "note_on", "time": 23, "note": 71, "velocity": 107, "channel": 0}, {"type": "note_off", "time": 142, "note": 71, "velocity": 107, "channel": 0}, {"type": "note_on", "time": 687, "note": 64, "velocity": 107, "channel": 0}, {"type": "note_on", "time": 27, "note": 69, "velocity": 119, "channel": 0}, {"type": "note_off", "time": 0, "note": 64, "velocity": 107, "channel": 0}, {"type": "note_off", "time": 70, "note": 69, "velocity": 119, "channel": 0}, {"type": "note_on", "time": 92, "note": 60, "velocity": 103, "channel": 0}, {"type": "note_off", "time": 42, "note": 60, "velocity": 103, "channel": 0}, {"type": "note_on", "time": 7, "note": 66, "velocity": 103, "channel": 0}, {"type": "note_off", "time": 70, "note": 66, "velocity": 103, "channel": 0}, {"type": "note_on", "time": 0, "note": 69, "velocity": 114, "channel": 0}, {"type": "note_off", "time": 92, "note": 69, "velocity": 114, "channel": 0}, {"type": "note_on", "time": 27, "note": 71, "velocity": 115, "channel": 0}, {"type": "note_off", "time": 88, "note": 71, "velocity": 115, "channel": 0}, {"type": "note_on", "time": 10, "note": 69, "velocity": 107, "channel": 0}, {"type": "note_off", "time": 78, "note": 69, "velocity": 107, "channel": 0}, {"type": "note_on", "time": 0, "note": 65, "velocity": 108, "channel": 0}, {"type": "note_off", "time": 83, "note": 65, "velocity": 108, "channel": 0}, {"type": "note_on", "time": 0, "note": 69, "velocity": 113, "channel": 0}, {"type": "note_off", "time": 121, "note": 69, "velocity": 113, "channel": 0}, {"type": "note_on", "time": 2965, "note": 84, "velocity": 100, "channel": 0}, {"type": "note_off", "time": 106, "note": 84, "velocity": 100, "channel": 0}, {"type": "note_on", "time": 7, "note": 83, "velocity": 114, "channel": 0}, {"type": "note_off", "time": 88, "note": 83, "velocity": 114, "channel": 0}, {"type": "note_on", "time": 3, "note": 81, "velocity": 111, "channel": 0}, {"type": "note_off", "time": 71, "note": 81, "velocity": 111, "channel": 0}, {"type": "note_on", "time": 20, "note": 79, "velocity": 112, "channel": 0}, {"type": "note_off", "time": 82, "note": 79, "velocity": 112, "channel": 0}, {"type": "note_on", "time": 10, "note": 77, "velocity": 114, "channel": 0}, {"type": "note_off", "time": 92, "note": 77, "velocity": 114, "channel": 0}, {"type": "note_on", "time": 10, "note": 74, "velocity": 114, "channel": 0}, {"type": "note_off", "time": 99, "note": 74, "velocity": 114, "channel": 0}, {"type": "note_on", "time": 6, "note": 72, "velocity": 108, "channel": 0}, {"type": "note_off", "time": 82, "note": 72, "velocity": 108, "channel": 0}, {"type": "note_on", "time": 13, "note": 70, "velocity": 106, "channel": 0}, {"type": "note_off", "time": 65, "note": 70, "velocity": 106, "channel": 0}, {"type": "note_on", "time": 0, "note": 69, "velocity": 100, "channel": 0}, {"type": "note_off", "time": 102, "note": 69, "velocity": 100, "channel": 0}, {"type": "note_on", "time": 6, "note": 70, "velocity": 105, "channel": 0}, {"type": "note_off", "time": 61, "note": 70, "velocity": 105, "channel": 0}, {"type": "note_on", "time": 3, "note": 72, "velocity": 110, "channel": 0}, {"type": "note_off", "time": 107, "note": 72, "velocity": 110, "channel": 0}, {"type": "note_on", "time": 0, "note": 74, "velocity": 117, "channel": 0}, {"type": "note_off", "time": 90, "note": 74, "velocity": 117, "channel": 0}, {"type": "note_on", "time": 0, "note": 69, "velocity": 101, "channel": 0}, {"type": "note_off", "time": 222, "note": 69, "velocity": 101, "channel": 0}, {"type": "note_on", "time": 51, "note": 69, "velocity": 100, "channel": 0}, {"type": "note_off", "time": 188, "note": 69, "velocity": 100, "channel": 0}, {"type": "note_on", "time": 23, "note": 72, "velocity": 113, "channel": 0}, {"type": "note_off", "time": 160, "note": 72, "velocity": 113, "channel": 0}, {"type": "note_on", "time": 0, "note": 76, "velocity": 103, "channel": 0}, {"type": "note_off", "time": 181, "note": 76, "velocity": 103, "channel": 0}, {"type": "note_on", "time": 3, "note": 79, "velocity": 113, "channel": 0}, {"type": "note_off", "time": 184, "note": 79, "velocity": 113, "channel": 0}, {"type": "note_on", "time": 20, "note": 78, "velocity": 125, "channel": 0}, {"type": "note_off", "time": 184, "note": 78, "velocity": 125, "channel": 0}, {"type": "note_on", "time": 0, "note": 75, "velocity": 113, "channel": 0}, {"type": "note_off", "time": 106, "note": 75, "velocity": 113, "channel": 0}, {"type": "note_on", "time": 6, "note": 74, "velocity": 111, "channel": 0}, {"type": "note_off", "time": 82, "note": 74, "velocity": 111, "channel": 0}, {"type": "note_on", "time": 6, "note": 72, "velocity": 116, "channel": 0}, {"type": "note_off", "time": 123, "note": 72, "velocity": 116, "channel": 0}, {"type": "note_on", "time": 6, "note": 71, "velocity": 108, "channel": 0}, {"type": "note_off", "time": 85, "note": 71, "velocity": 108, "channel": 0}, {"type": "note_on", "time": 0, "note": 68, "velocity": 111, "channel": 0}, {"type": "note_off", "time": 94, "note": 68, "velocity": 111, "channel": 0}, {"type": "note_on", "time": 0, "note": 67, "velocity": 102, "channel": 0}, {"type": "note_off", "time": 87, "note": 67, "velocity": 102, "channel": 0}, {"type": "note_on", "time": 2, "note": 66, "velocity": 119, "channel": 0}, {"type": "note_off", "time": 92, "note": 66, "velocity": 119, "channel": 0}, {"type": "note_on", "time": 1, "note": 65, "velocity": 109, "channel": 0}, {"type": "note_off", "time": 75, "note": 65, "velocity": 109, "channel": 0}, {"type": "note_on", "time": 6, "note": 64, "velocity": 95, "channel": 0}, {"type": "note_off", "time": 70, "note": 64, "velocity": 95, "channel": 0}, {"type": "note_on", "time": 1, "note": 63, "velocity": 113, "channel": 0}, {"type": "note_off", "time": 131, "note": 63, "velocity": 113, "channel": 0}, {"type": "note_on", "time": 9, "note": 59, "velocity": 106, "channel": 0}, {"type": "note_off", "time": 75, "note": 59, "velocity": 106, "channel": 0}, {"type": "note_on", "time": 7, "note": 61, "velocity": 114, "channel": 0}, {"type": "note_off", "time": 100, "note": 61, "velocity": 114, "channel": 0}, {"type": "note_on", "time": 3, "note": 62, "velocity": 101, "channel": 0}, {"type": "note_off", "time": 119, "note": 62, "velocity": 101, "channel": 0}, {"type": "note_on", "time": 11, "note": 59, "velocity": 95, "channel": 0}, {"type": "note_off", "time": 92, "note": 59, "velocity": 95, "channel": 0}, {"type": "note_on", "time": 0, "note": 69, "velocity": 108, "channel": 0}, {"type": "note_off", "time": 126, "note": 69, "velocity": 108, "channel": 0}, {"type": "note_on", "time": 5, "note": 66, "velocity": 117, "channel": 0}, {"type": "note_off", "time": 102, "note": 66, "velocity": 117, "channel": 0}, {"type": "note_on", "time": 1, "note": 64, "velocity": 104, "channel": 0}, {"type": "note_off", "time": 75, "note": 64, "velocity": 104, "channel": 0}, {"type": "note_on", "time": 9, "note": 62, "velocity": 104, "channel": 0}, {"type": "note_off", "time": 75, "note": 62, "velocity": 104, "channel": 0}, {"type": "note_on", "time": 12, "note": 66, "velocity": 117, "channel": 0}, {"type": "note_off", "time": 114, "note": 66, "velocity": 117, "channel": 0}, {"type": "note_on", "time": 12, "note": 62, "velocity": 103, "channel": 0}, {"type": "note_off", "time": 60, "note": 62, "velocity": 103, "channel": 0}, {"type": "note_on", "time": 2, "note": 64, "velocity": 100, "channel": 0}, {"type": "note_off", "time": 82, "note": 64, "velocity": 100, "channel": 0}, {"type": "note_on", "time": 12, "note": 66, "velocity": 110, "channel": 0}, {"type": "note_off", "time": 77, "note": 66, "velocity": 110, "channel": 0}, {"type": "note_on", "time": 20, "note": 71, "velocity": 116, "channel": 0}, {"type": "note_off", "time": 117, "note": 71, "velocity": 116, "channel": 0}, {"type": "note_on", "time": 0, "note": 69, "velocity": 99, "channel": 0}, {"type": "note_off", "time": 82, "note": 69, "velocity": 99, "channel": 0}, {"type": "note_on", "time": 78, "note": 64, "velocity": 106, "channel": 0}, {"type": "note_off", "time": 85, "note": 64, "velocity": 106, "channel": 0}, {"type": "note_on", "time": 2, "note": 63, "velocity": 113, "channel": 0}, {"type": "note_off", "time": 97, "note": 63, "velocity": 113, "channel": 0}, {"type": "note_on", "time": 4, "note": 64, "velocity": 107, "channel": 0}, {"type": "note_off", "time": 87, "note": 64, "velocity": 107, "channel": 0}, {"type": "note_on", "time": 4, "note": 66, "velocity": 102, "channel": 0}, {"type": "note_off", "time": 111, "note": 66, "velocity": 102, "channel": 0}, {"type": "note_on", "time": 0, "note": 68, "velocity": 91, "channel": 0}, {"type": "note_off", "time": 73, "note": 68, "velocity": 91, "channel": 0}, {"type": "note_on", "time": 19, "note": 71, "velocity": 110, "channel": 0}, {"type": "note_off", "time": 99, "note": 71, "velocity": 110, "channel": 0}, {"type": "note_on", "time": 9, "note": 67, "velocity": 112, "channel": 0}, {"type": "note_off", "time": 85, "note": 67, "velocity": 112, "channel": 0}, {"type": "note_on", "time": 9, "note": 64, "velocity": 93, "channel": 0}, {"type": "note_off", "time": 82, "note": 64, "velocity": 93, "channel": 0}, {"type": "note_on", "time": 104, "note": 63, "velocity": 116, "channel": 0}, {"type": "note_off", "time": 92, "note": 63, "velocity": 116, "channel": 0}, {"type": "note_on", "time": 7, "note": 59, "velocity": 104, "channel": 0}, {"type": "note_off", "time": 58, "note": 59, "velocity": 104, "channel": 0}, {"type": "note_on", "time": 14, "note": 61, "velocity": 101, "channel": 0}, {"type": "note_off", "time": 75, "note": 61, "velocity": 101, "channel": 0}, {"type": "note_on", "time": 14, "note": 63, "velocity": 113, "channel": 0}, {"type": "note_off", "time": 80, "note": 63, "velocity": 113, "channel": 0}, {"type": "note_on", "time": 17, "note": 60, "velocity": 94, "channel": 0}, {"type": "note_on", "time": 87, "note": 63, "velocity": 116, "channel": 0}, {"type": "note_off", "time": 0, "note": 60, "velocity": 94, "channel": 0}, {"type": "note_off", "time": 104, "note": 63, "velocity": 116, "channel": 0}, {"type": "note_on", "time": 17, "note": 67, "velocity": 102, "channel": 0}, {"type": "note_off", "time": 104, "note": 67, "velocity": 102, "channel": 0}, {"type": "note_on", "time": 11, "note": 70, "velocity": 104, "channel": 0}, {"type": "note_off", "time": 73, "note": 70, "velocity": 104, "channel": 0}, {"type": "note_on", "time": 32, "note": 65, "velocity": 90, "channel": 0}, {"type": "note_off", "time": 75, "note": 65, "velocity": 90, "channel": 0}, {"type": "note_on", "time": 13, "note": 68, "velocity": 110, "channel": 0}, {"type": "note_off", "time": 83, "note": 68, "velocity": 110, "channel": 0}, {"type": "note_on", "time": 10, "note": 72, "velocity": 107, "channel": 0}, {"type": "note_off", "time": 102, "note": 72, "velocity": 107, "channel": 0}, {"type": "note_on", "time": 10, "note": 75, "velocity": 99, "channel": 0}, {"type": "note_off", "time": 71, "note": 75, "velocity": 99, "channel": 0}, {"type": "note_on", "time": 5, "note": 77, "velocity": 114, "channel": 0}, {"type": "note_off", "time": 160, "note": 77, "velocity": 114, "channel": 0}, {"type": "note_on", "time": 34, "note": 74, "velocity": 116, "channel": 0}, {"type": "note_off", "time": 111, "note": 74, "velocity": 116, "channel": 0}, {"type": "note_on", "time": 0, "note": 77, "velocity": 117, "channel": 0}, {"type": "note_off", "time": 104, "note": 77, "velocity": 117, "channel": 0}, {"type": "note_on", "time": 6, "note": 74, "velocity": 113, "channel": 0}, {"type": "note_off", "time": 90, "note": 74, "velocity": 113, "channel": 0}, {"type": "note_on", "time": 3, "note": 70, "velocity": 98, "channel": 0}, {"type": "note_off", "time": 59, "note": 70, "velocity": 98, "channel": 0}, {"type": "note_on", "time": 23, "note": 67, "velocity": 94, "channel": 0}, {"type": "note_off", "time": 80, "note": 67, "velocity": 94, "channel": 0}, {"type": "note_on", "time": 17, "note": 67, "velocity": 106, "channel": 0}, {"type": "note_off", "time": 78, "note": 67, "velocity": 106, "channel": 0}, {"type": "note_on", "time": 8, "note": 69, "velocity": 94, "channel": 0}, {"type": "note_off", "time": 73, "note": 69, "velocity": 94, "channel": 0}, {"type": "note_on", "time": 10, "note": 74, "velocity": 120, "channel": 0}, {"type": "note_off", "time": 128, "note": 74, "velocity": 120, "channel": 0}, {"type": "note_on", "time": 0, "note": 78, "velocity": 100, "channel": 0}, {"type": "note_off", "time": 75, "note": 78, "velocity": 100, "channel": 0}, {"type": "note_on", "time": 5, "note": 81, "velocity": 113, "channel": 0}, {"type": "note_off", "time": 143, "note": 81, "velocity": 113, "channel": 0}, {"type": "note_on", "time": 0, "note": 73, "velocity": 103, "channel": 0}, {"type": "note_off", "time": 78, "note": 73, "velocity": 103, "channel": 0}, {"type": "end_of_track", "time": 0}]]}