{"ticks_per_beat": 192, "tracks": [[{"type": "track_name", "name": "Melody", "time": 0}, {"type": "set_tempo", "tempo": 213523, "time": 0}, {"type": "time_signature", "numerator": 4, "denominator": 4, "clocks_per_click": 24, "notated_32nd_notes_per_beat": 8, "time": 0}, {"type": "note_on", "time": 3640, "note": 65, "velocity": 118, "channel": 0}, {"type": "note_off", "time": 119, "note": 65, "velocity": 118, "channel": 0}, {"type": "note_on", "time": 5, "note": 63, "velocity": 116, "channel": 0}, {"type": "note_off", "time": 99, "note": 63, "velocity": 116, "channel": 0}, {"type": "note_on", "time": 5, "note": 62, "velocity": 110, "channel": 0}, {"type": "note_off", "time": 73, "note": 62, "velocity": 110, "channel": 0}, {"type": "note_on", "time": 5, "note": 60, "velocity": 108, "channel": 0}, {"type": "note_off", "time": 62, "note": 60, "velocity": 108, "channel": 0}, {"type": "note_on", "time": 0, "note": 63, "velocity": 114, "channel": 0}, {"type": "note_off", "time": 119, "note": 63, "velocity": 114, "channel": 0}, {"type": "note_on", "time": 12, "note": 59, "velocity": 104, "channel": 0}, {"type": "note_off", "time": 60, "note": 59, "velocity": 104, "channel": 0}, {"type": "note_on", "time": 9, "note": 62, "velocity": 118, "channel": 0}, {"type": "note_off", "time": 124, "note": 62, "velocity": 118, "channel": 0}, {"type": "note_on", "time": 3, "note": 59, "velocity": 96, "channel": 0}, {"type": "note_on", "time": 58, "note": 60, "velocity": 109, "channel": 0}, {"type": "note_off", "time": 0, "note": 59, "velocity": 96, "channel": 0}, {"type": "note_off", "time": 108, "note": 60, "velocity": 109, "channel": 0}, {"type": "note_on", "time": 3, "note": 62, "velocity": 109, "channel": 0}, {"type": "note_off", "time": 100, "note": 62, "velocity": 109, "channel": 0}, {"type": "note_on", "time": 0, "note": 63, "velocity": 108, "channel": 0}, {"type": "note_on", "time": 90, "note": 65, "velocity": 102, "channel": 0}, {"type": "note_off", "time": 0, "note": 63, "velocity": 108, "channel": 0}, {"type": "note_off", "time": 108, "note": 65, "velocity": 102, "channel": 0}, {"type": "note_on", "time": 0, "note": 66, "velocity": 96, "channel": 0}, {"type": "note_off", "time": 100, "note": 66, "velocity": 96, "channel": 0}, {"type": "note_on", "time": 1, "note": 63, "velocity": 95, "channel": 0}, {"type": "note_off", "time": 82, "note": 63, "velocity": 95, "channel": 0}, {"type": "note_on", "time": 7, "note": 67, "velocity": 109, "channel": 0}, {"type": "note_off", "time": 93, "note": 67, "velocity": 109, "channel": 0}, {"type": "note_on", "time": 5, "note": 64, "velocity": 104, "channel": 0}, {"type": "note_off", "time": 90, "note": 64, "velocity": 104, "channel": 0}, {"type": "note_on", "time": 13, "note": 60, "velocity": 108, "channel": 0}, {"type": "note_off", "time": 67, "note": 60, "velocity": 108, "channel": 0}, {"type": "note_on", "time": 20, "note": 56, "velocity": 104, "channel": 0}, {"type": "note_off", "time": 65, "note": 56, "velocity": 104, "channel": 0}, {"type": "note_on", "time": 555, "note": 63, "velocity": 124, "channel": 0}, {"type": "note_off", "time": 137, "note": 63, "velocity": 124, "channel": 0}, {"type": "note_on", "time": 2, "note": 62, "velocity": 120, "channel": 0}, {"type": "note_off", "time": 82, "note": 62, "velocity": 120, "channel": 0}, {"type": "note_on", "time": 2, "note": 61, "velocity": 117, "channel": 0}, {"type": "note_off", "time": 100, "note": 61, "velocity": 117, "channel": 0}, {"type": "note_on", "time": 2, "note": 60, "velocity": 118, "channel": 0}, {"type": "note_off", "time": 90, "note": 60, "velocity": 118, "channel": 0}, {"type": "note_on", "time": 5, "note": 58, "velocity": 108, "channel": 0}, {"type": "note_off", "time": 75, "note": 58, "velocity": 108, "channel": 0}, {"type": "note_on", "time": 13, "note": 56, "velocity": 115, "channel": 0}, {"type": "note_off", "time": 95, "note": 56, "velocity": 115, "channel": 0}, {"type": "note_on", "time": 2, "note": 55, "velocity": 107, "channel": 0}, {"type": "note_off", "time": 76, "note": 55, "velocity": 107, "channel": 0}, {"type": "note_on", "time": 5, "note": 54, "velocity": 117, "channel": 0}, {"type": "note_off", "time": 112, "note": 54, "velocity": 117, "channel": 0}, {"type": "note_on", "time": 3, "note": 53, "velocity": 111, "channel": 0}, {"type": "note_off", "time": 148, "note": 53, "velocity": 111, "channel": 0}, {"type": "note_on", "time": 991, "note": 57, "velocity": 110, "channel": 0}, {"type": "note_off", "time": 90, "note": 57, "velocity": 110, "channel": 0}, {"type": "note_on", "time": 2, "note": 54, "velocity": 107, "channel": 0}, {"type": "note_off", "time": 48, "note": 54, "velocity": 107, "channel": 0}, {"type": "note_on", "time": 2, "note": 55, "velocity": 103, "channel": 0}, {"type": "note_off", "time": 126, "note": 55, "velocity": 103, "channel": 0}, {"type": "note_on", "time": 6, "note": 57, "velocity": 105, "channel": 0}, {"type": "note_off", "time": 76, "note": 57, "velocity": 105, "channel": 0}, {"type": "note_on", "time": 5, "note": 58, "velocity": 105, "channel": 0}, {"type": "note_off", "time": 91, "note": 58, "velocity": 105, "channel": 0}, {"type": "note_on", "time": 5, "note": 60, "velocity": 115, "channel": 0}, {"type": "note_off", "time": 103, "note": 60, "velocity": 115, "channel": 0}, {"type": "note_on", "time": 9, "note": 61, "velocity": 108, "channel": 0}, {"type": "note_off", "time": 78, "note": 61, "velocity": 108, "channel": 0}, {"type": "note_on", "time": 3, "note": 62, "velocity": 118, "channel": 0}, {"type": "note_off", "time": 107, "note": 62, "velocity": 118, "channel": 0}, {"type": "note_on", "time": 9, "note": 63, "velocity": 119, "channel": 0}, {"type": "note_off", "time": 177, "note": 63, "velocity": 119, "channel": 0}, {"type": "note_on", "time": 5, "note": 62, "velocity": 119, "channel": 0}, {"type": "note_off", "time": 97, "note": 62, "velocity": 119, "channel": 0}, {"type": "note_on", "time": 5, "note": 60, "velocity": 115, "channel": 0}, {"type": "note_off", "time": 92, "note": 60, "velocity": 115, "channel": 0}, {"type": "note_on", "time": 6, "note": 59, "velocity": 102, "channel": 0}, {"type": "note_off", "time": 95, "note": 59, "velocity": 102, "channel": 0}, {"type": "note_on", "time": 93, "note": 62, "velocity": 122, "channel": 0}, {"type": "note_off", "time": 174, "note": 62, "velocity": 122, "channel": 0}, {"type": "note_on", "time": 5, "note": 60, "velocity": 111, "channel": 0}, {"type": "note_off", "time": 123, "note": 60, "velocity": 111, "channel": 0}, {"type": "note_on", "time": 5, "note": 58, "velocity": 106, "channel": 0}, {"type": "note_off", "time": 90, "note": 58, "velocity": 106, "channel": 0}, {"type": "note_on", "time": 3, "note": 57, "velocity": 97, "channel": 0}, {"type": "note_off", "time": 78, "note": 57, "velocity": 97, "channel": 0}, {"type": "note_on", "time": 96, "note": 60, "velocity": 120, "channel": 0}, {"type": "note_off", "time": 146, "note": 60, "velocity": 120, "channel": 0}, {"type": "note_on", "time": 1, "note": 58, "velocity": 109, "channel": 0}, {"type": "note_off", "time": 75, "note": 58, "velocity": 109, "channel": 0}, {"type": "note_on", "time": 2, "note": 57, "velocity": 103, "channel": 0}, {"type": "note_off", "time": 66, "note": 57, "velocity": 103, "channel": 0}, {"type": "note_on", "time": 6, "note": 55, "velocity": 106, "channel": 0}, {"type": "note_off", "time": 80, "note": 55, "velocity": 106, "channel": 0}, {"type": "note_on", "time": 7, "note": 58, "velocity": 111, "channel": 0}, {"type": "note_off", "time": 150, "note": 58, "velocity": 111, "channel": 0}, {"type": "note_on", "time": 139, "note": 57, "velocity": 104, "channel": 0}, {"type": "note_off", "time": 73, "note": 57, "velocity": 104, "channel": 0}, {"type": "note_on", "time": 3, "note": 56, "velocity": 108, "channel": 0}, {"type": "note_off", "time": 84, "note": 56, "velocity": 108, "channel": 0}, {"type": "note_on", "time": 2, "note": 60, "velocity": 117, "channel": 0}, {"type": "note_off", "time": 97, "note": 60, "velocity": 117, "channel": 0}, {"type": "note_on", "time": 11, "note": 55, "velocity": 103, "channel": 0}, {"type": "note_off", "time": 80, "note": 55, "velocity": 103, "channel": 0}, {"type": "note_on", "time": 73, "note": 58, "velocity": 114, "channel": 0}, {"type": "note_off", "time": 133, "note": 58, "velocity": 114, "channel": 0}, {"type": "note_on", "time": 0, "note": 54, "velocity": 108, "channel": 0}, {"type": "note_off", "time": 56, "note": 54, "velocity": 108, "channel": 0}, {"type": "note_on", "time": 0, "note": 57, "velocity": 109, "channel": 0}, {"type": "note_off", "time": 93, "note": 57, "velocity": 109, "channel": 0}, {"type": "note_on", "time": 3, "note": 54, "velocity": 108, "channel": 0}, {"type": "note_off", "time": 76, "note": 54, "velocity": 108, "channel": 0}, {"type": "note_on", "time": 18, "note": 55, "velocity": 100, "channel": 0}, {"type": "note_off", "time": 83, "note": 55, "velocity": 100, "channel": 0}, {"type": "note_on", "time": 15, "note": 57, "velocity": 104, "channel": 0}, {"type": "note_off", "time": 79, "note": 57, "velocity": 104, "channel": 0}, {"type": "note_on", "time": 14, "note": 58, "velocity": 116, "channel": 0}, {"type": "note_on", "time": 74, "note": 60, "velocity": 116, "channel": 0}, {"type": "note_off", "time": 0, "note": 58, "velocity": 116, "channel": 0}, {"type": "note_off", "time": 125, "note": 60, "velocity": 116, "channel": 0}, {"type": "note_on", "time": 1, "note": 61, "velocity": 111, "channel": 0}, {"type": "note_off", "time": 74, "note": 61, "velocity": 111, "channel": 0}, {"type": "note_on", "time": 0, "note": 65, "velocity": 110, "channel": 0}, {"type": "note_off", "time": 57, "note": 65, "velocity": 110, "channel": 0}, {"type": "note_on", "time": 2, "note": 69, "velocity": 117, "channel": 0}, {"type": "note_off", "time": 118, "note": 69, "velocity": 117, "channel": 0}, {"type": "note_on", "time": 1, "note": 67, "velocity": 114, "channel": 0}, {"type": "note_off", "time": 71, "note": 67, "velocity": 114, "channel": 0}, {"type": "note_on", "time": 7, "note": 65, "velocity": 110, "channel": 0}, {"type": "note_off", "time": 93, "note": 65, "velocity": 110, "channel": 0}, {"type": "note_on", "time": 3, "note": 61, "velocity": 118, "channel": 0}, {"type": "note_off", "time": 96, "note": 61, "velocity": 118, "channel": 0}, {"type": "note_on", "time": 5, "note": 60, "velocity": 95, "channel": 0}, {"type": "note_off", "time": 70, "note": 60, "velocity": 95, "channel": 0}, {"type": "note_on", "time": 3, "note": 58, "velocity": 109, "channel": 0}, {"type": "note_off", "time": 97, "note": 58, "velocity": 109, "channel": 0}, {"type": "note_on", "time": 9, "note": 57, "velocity": 96, "channel": 0}, {"type": "note_off", "time": 86, "note": 57, "velocity": 96, "channel": 0}, {"type": "note_on", "time": 0, "note": 58, "velocity": 103, "channel": 0}, {"type": "note_off", "time": 101, "note": 58, "velocity": 103, "channel": 0}, {"type": "note_on", "time": 11, "note": 62, "velocity": 109, "channel": 0}, {"type": "note_off", "time": 84, "note": 62, "velocity": 109, "channel": 0}, {"type": "note_on", "time": 9, "note": 67, "velocity": 111, "channel": 0}, {"type": "note_off", "time": 86, "note": 67, "velocity": 111, "channel": 0}, {"type": "note_on", "time": 0, "note": 60, "velocity": 111, "channel": 0}, {"type": "note_off", "time": 147, "note": 60, "velocity": 111, "channel": 0}, {"type": "note_on", "time": 626, "note": 65, "velocity": 123, "channel": 0}, {"type": "note_off", "time": 117, "note": 65, "velocity": 123, "channel": 0}, {"type": "note_on", "time": 5, "note": 64, "velocity": 114, "channel": 0}, {"type": "note_off", "time": 73, "note": 64, "velocity": 114, "channel": 0}, {"type": "note_on", "time": 0, "note": 62, "velocity": 112, "channel": 0}, {"type": "note_on", "time": 104, "note": 60, "velocity": 114, "channel": 0}, {"type": "note_off", "time": 0, "note": 62, "velocity": 112, "channel": 0}, {"type": "note_off", "time": 72, "note": 60, "velocity": 114, "channel": 0}, {"type": "note_on", "time": 0, "note": 63, "velocity": 117, "channel": 0}, {"type": "note_off", "time": 87, "note": 63, "velocity": 117, "channel": 0}, {"type": "note_on", "time": 1, "note": 64, "velocity": 115, "channel": 0}, {"type": "note_off", "time": 91, "note": 64, "velocity": 115, "channel": 0}, {"type": "note_on", "time": 1, "note": 63, "velocity": 114, "channel": 0}, {"type": "note_off", "time": 106, "note": 63, "velocity": 114, "channel": 0}, {"type": "note_on", "time": 1, "note": 61, "velocity": 122, "channel": 0}, {"type": "note_off", "time": 89, "note": 61, "velocity": 122, "channel": 0}, {"type": "note_on", "time": 8, "note": 60, "velocity": 104, "channel": 0}, {"type": "note_off", "time": 76, "note": 60, "velocity": 104, "channel": 0}, {"type": "note_on", "time": 22, "note": 58, "velocity": 114, "channel": 0}, {"type": "note_off", "time": 176, "note": 58, "velocity": 114, "channel": 0}, {"type": "note_on", "time": 13, "note": 55, "velocity": 108, "channel": 0}, {"type": "note_off", "time": 174, "note": 55, "velocity": 108, "channel": 0}, {"type": "note_on", "time": 6, "note": 57, "velocity": 106, "channel": 0}, {"type": "note_off", "time": 109, "note": 57, "velocity": 106, "channel": 0}, {"type": "note_on", "time": 2, "note": 56, "velocity": 113, "channel": 0}, {"type": "note_off", "time": 153, "note": 56, "velocity": 113, "channel": 0}, {"type": "note_on", "time": 24, "note": 55, "velocity": 108, "channel": 0}, {"type": "note_off", "time": 109, "note": 55, "velocity": 108, "channel": 0}, {"type": "note_on", "time": 3, "note": 57, "velocity": 109, "channel": 0}, {"type": "note_off", "time": 83, "note": 57, "velocity": 109, "channel": 0}, {"type": "note_on", "time": 3, "note": 58, "velocity": 108, "channel": 0}, {"type": "note_off", "time": 79, "note": 58, "velocity": 108, "channel": 0}, {"type": "note_on", "time": 1, "note": 60, "velocity": 115, "channel": 0}, {"type": "note_off", "time": 91, "note": 60, "velocity": 115, "channel": 0}, {"type": "note_on", "time": 5, "note": 61, "velocity": 120, "channel": 0}, {"type": "note_off", "time": 120, "note": 61, "velocity": 120, "channel": 0}, {"type": "note_on", "time": 7, "note": 59, "velocity": 108, "channel": 0}, {"type": "note_off", "time": 82, "note": 59, "velocity": 108, "channel": 0}, {"type": "note_on", "time": 1, "note": 60, "velocity": 117, "channel": 0}, {"type": "note_off", "time": 109, "note": 60, "velocity": 117, "channel": 0}, {"type": "note_on", "time": 0, "note": 57, "velocity": 110, "channel": 0}, {"type": "note_off", "time": 76, "note": 57, "velocity": 110, "channel": 0}, {"type": "note_on", "time": 2, "note": 58, "velocity": 110, "channel": 0}, {"type": "note_off", "time": 105, "note": 58, "velocity": 110, "channel": 0}, {"type": "note_on", "time": 6, "note": 55, "velocity": 99, "channel": 0}, {"type": "note_off", "time": 71, "note": 55, "velocity": 99, "channel": 0}, {"type": "note_on", "time": 30, "note": 57, "velocity": 104, "channel": 0}, {"type": "note_on", "time": 75, "note": 56, "velocity": 110, "channel": 0}, {"type": "note_off", "time": 0, "note": 57, "velocity": 104, "channel": 0}, {"type": "note_off", "time": 93, "note": 56, "velocity": 110, "channel": 0}, {"type": "note_on", "time": 5, "note": 55, "velocity": 109, "channel": 0}, {"type": "note_off", "time": 80, "note": 55, "velocity": 109, "channel": 0}, {"type": "note_on", "time": 6, "note": 54, "velocity": 121, "channel": 0}, {"type": "note_off", "time": 112, "note": 54, "velocity": 121, "channel": 0}, {"type": "note_on", "time": 9, "note": 53, "velocity": 110, "channel": 0}, {"type": "note_off", "time": 80, "note": 53, "velocity": 110, "channel": 0}, {"type": "note_on", "time": 3, "note": 52, "velocity": 115, "channel": 0}, {"type": "note_off", "time": 87, "note": 52, "velocity": 115, "channel": 0}, {"type": "note_on", "time": 5, "note": 50, "velocity": 113, "channel": 0}, {"type": "note_off", "time": 91, "note": 50, "velocity": 113, "channel": 0}, {"type": "note_on", "time": 75, "note": 51, "velocity": 114, "channel": 0}, {"type": "note_off", "time": 86, "note": 51, "velocity": 114, "channel": 0}, {"type": "note_on", "time": 8, "note": 49, "velocity": 107, "channel": 0}, {"type": "note_off", "time": 117, "note": 49, "velocity": 107, "channel": 0}, {"type": "note_on", "time": 93, "note": 49, "velocity": 110, "channel": 0}, {"type": "note_off", "time": 87, "note": 49, "velocity": 110, "channel": 0}, {"type": "note_on", "time": 13, "note": 52, "velocity": 109, "channel": 0}, {"type": "note_off", "time": 79, "note": 52, "velocity": 109, "channel": 0}, {"type": "note_on", "time": 10, "note": 56, "velocity": 113, "channel": 0}, {"type": "note_off", "time": 71, "note": 56, "velocity": 113, "channel": 0}, {"type": "note_on", "time": 7, "note": 60, "velocity": 114, "channel": 0}, {"type": "note_off", "time": 118, "note": 60, "velocity": 114, "channel": 0}, {"type": "note_on", "time": 5, "note": 55, "velocity": 103, "channel": 0}, {"type": "note_off", "time": 66, "note": 55, "velocity": 103, "channel": 0}, {"type": "note_on", "time": 8, "note": 56, "velocity": 113, "channel": 0}, {"type": "note_off", "time": 89, "note": 56, "velocity": 113, "channel": 0}, {"type": "note_on", "time": 3, "note": 58, "velocity": 114, "channel": 0}, {"type": "note_off", "time": 94, "note": 58, "velocity": 114, "channel": 0}, {"type": "note_on", "time": 94, "note": 61, "velocity": 120, "channel": 0}, {"type": "note_off", "time": 93, "note": 61, "velocity": 120, "channel": 0}, {"type": "note_on", "time": 1, "note": 63, "velocity": 118, "channel": 0}, {"type": "note_off", "time": 92, "note": 63, "velocity": 118, "channel": 0}, {"type": "note_on", "time": 4, "note": 65, "velocity": 117, "channel": 0}, {"type": "note_off", "time": 96, "note": 65, "velocity": 117, "channel": 0}, {"type": "note_on", "time": 4, "note": 66, "velocity": 107, "channel": 0}, {"type": "note_off", "time": 117, "note": 66, "velocity": 107, "channel": 0}, {"type": "note_on", "time": 1875, "note": 60, "velocity": 116, "channel": 0}, {"type": "note_off", "time": 102, "note": 60, "velocity": 116, "channel": 0}, {"type": "note_on", "time": 0, "note": 65, "velocity": 108, "channel": 0}, {"type": "note_off", "time": 69, "note": 65, "velocity": 108, "channel": 0}, {"type": "note_on", "time": 0, "note": 70, "velocity": 120, "channel": 0}, {"type": "note_off", "time": 120, "note": 70, "velocity": 120, "channel": 0}, {"type": "note_on", "time": 10, "note": 69, "velocity": 118, "channel": 0}, {"type": "note_off", "time": 73, "note": 69, "velocity": 118, "channel": 0}, {"type": "note_on", "time": 0, "note": 65, "velocity": 114, "channel": 0}, {"type": "note_off", "time": 83, "note": 65, "velocity": 114, "channel": 0}, {"type": "note_on", "time": 0, "note": 60, "velocity": 118, "channel": 0}, {"type": "note_off", "time": 109, "note": 60, "velocity": 118, "channel": 0}, {"type": "note_on", "time": 210, "note": 59, "velocity": 115, "channel": 0}, {"type": "note_off", "time": 104, "note": 59, "velocity": 115, "channel": 0}, {"type": "note_on", "time": 4, "note": 64, "velocity": 109, "channel": 0}, {"type": "note_off", "time": 57, "note": 64, "velocity": 109, "channel": 0}, {"type": "note_on", "time": 5, "note": 69, "velocity": 119, "channel": 0}, {"type": "note_off", "time": 99, "note": 69, "velocity": 119, "channel": 0}, {"type": "note_on", "time": 3, "note": 68, "velocity": 112, "channel": 0}, {"type": "note_off", "time": 88, "note": 68, "velocity": 112, "channel": 0}, {"type": "note_on", "time": 7, "note": 63, "velocity": 120, "channel": 0}, {"type": "note_off", "time": 95, "note": 63, "velocity": 120, "channel": 0}, {"type": "note_on", "time": 3, "note": 62, "velocity": 112, "channel": 0}, {"type": "note_off", "time": 124, "note": 62, "velocity": 112, "channel": 0}, {"type": "note_on", "time": 155, "note": 58, "velocity": 113, "channel": 0}, {"type": "note_off", "time": 117, "note": 58, "velocity": 113, "channel": 0}, {"type": "note_on", "time": 0, "note": 63, "velocity": 114, "channel": 0}, {"type": "note_off", "time": 88, "note": 63, "velocity": 114, "channel": 0}, {"type": "note_on", "time": 0, "note": 68, "velocity": 114, "channel": 0}, {"type": "note_off", "time": 93, "note": 68, "velocity": 114, "channel": 0}, {"type": "note_on", "time": 1, "note": 67, "velocity": 112, "channel": 0}, {"type": "note_off", "time": 86, "note": 67, "velocity": 112, "channel": 0}, {"type": "note_on", "time": 0, "note": 68, "velocity": 110, "channel": 0}, {"type": "note_off", "time": 82, "note": 68, "velocity": 110, "channel": 0}, {"type": "note_on", "time": 0, "note": 67, "velocity": 105, "channel": 0}, {"type": "note_off", "time": 93, "note": 67, "velocity": 105, "channel": 0}, {"type": "note_on", "time": 3, "note": 63, "velocity": 123, "channel": 0}, {"type": "note_off", "time": 104, "note": 63, "velocity": 123, "channel": 0}, {"type": "note_on", "time": 1, "note": 62, "velocity": 112, "channel": 0}, {"type": "note_off", "time": 66, "note": 62, "velocity": 112, "channel": 0}, {"type": "note_on", "time": 5, "note": 61, "velocity": 121, "channel": 0}, {"type": "note_off", "time": 108, "note": 61, "velocity": 121, "channel": 0}, {"type": "note_on", "time": 5, "note": 60, "velocity": 100, "channel": 0}, {"type": "note_off", "time": 71, "note": 60, "velocity": 100, "channel": 0}, {"type": "note_on", "time": 7, "note": 59, "velocity": 115, "channel": 0}, {"type": "note_off", "time": 115, "note": 59, "velocity": 115, "channel": 0}, {"type": "note_on", "time": 0, "note": 57, "velocity": 108, "channel": 0}, {"type": "note_off", "time": 106, "note": 57, "velocity": 108, "channel": 0}, {"type": "note_on", "time": 3, "note": 55, "velocity": 111, "channel": 0}, {"type": "note_off", "time": 55, "note": 55, "velocity": 111, "channel": 0}, {"type": "note_on", "time": 0, "note": 58, "velocity": 114, "channel": 0}, {"type": "note_off", "time": 121, "note": 58, "velocity": 114, "channel": 0}, {"type": "note_on", "time": 500, "note": 57, "velocity": 110, "channel": 0}, {"type": "note_off", "time": 106, "note": 57, "velocity": 110, "channel": 0}, {"type": "note_on", "time": 3, "note": 56, "velocity": 104, "channel": 0}, {"type": "note_off", "time": 56, "note": 56, "velocity": 104, "channel": 0}, {"type": "note_on", "time": 7, "note": 57, "velocity": 107, "channel": 0}, {"type": "note_off", "time": 82, "note": 57, "velocity": 107, "channel": 0}, {"type": "note_on", "time": 3, "note": 62, "velocity": 123, "channel": 0}, {"type": "note_off", "time": 89, "note": 62, "velocity": 123, "channel": 0}, {"type": "note_on", "time": 11, "note": 61, "velocity": 123, "channel": 0}, {"type": "note_off", "time": 104, "note": 61, "velocity": 123, "channel": 0}, {"type": "note_on", "time": 25, "note": 58, "velocity": 109, "channel": 0}, {"type": "note_off", "time": 71, "note": 58, "velocity": 109, "channel": 0}, {"type": "note_on", "time": 0, "note": 57, "velocity": 115, "channel": 0}, {"type": "note_off", "time": 84, "note": 57, "velocity": 115, "channel": 0}, {"type": "note_on", "time": 3, "note": 58, "velocity": 114, "channel": 0}, {"type": "note_off", "time": 97, "note": 58, "velocity": 114, "channel": 0}, {"type": "note_on", "time": 0, "note": 57, "velocity": 100, "channel": 0}, {"type": "note_off", "time": 80, "note": 57, "velocity": 100, "channel": 0}, {"type": "note_on", "time": 9, "note": 58, "velocity": 105, "channel": 0}, {"type": "note_off", "time": 93, "note": 58, "velocity": 105, "channel": 0}, {"type": "note_on", "time": 983, "note": 57, "velocity": 105, "channel": 0}, {"type": "note_off", "time": 165, "note": 57, "velocity": 105, "channel": 0}, {"type": "note_on", "time": 9, "note": 58, "velocity": 105, "channel": 0}, {"type": "note_off", "time": 64, "note": 58, "velocity": 105, "channel": 0}, {"type": "note_on", "time": 7, "note": 59, "velocity": 110, "channel": 0}, {"type": "note_off", "time": 80, "note": 59, "velocity": 110, "channel": 0}, {"type": "note_on", "time": 25, "note": 60, "velocity": 113, "channel": 0}, {"type": "note_off", "time": 238, "note": 60, "velocity": 113, "channel": 0}, {"type": "note_on", "time": 3, "note": 59, "velocity": 110, "channel": 0}, {"type": "note_off", "time": 55, "note": 59, "velocity": 110, "channel": 0}, {"type": "note_on", "time": 1, "note": 58, "velocity": 113, "channel": 0}, {"type": "note_off", "time": 58, "note": 58, "velocity": 113, "channel": 0}, {"type": "note_on", "time": 12, "note": 57, "velocity": 107, "channel": 0}, {"type": "note_off", "time": 80, "note": 57, "velocity": 107, "channel": 0}, {"type": "note_on", "time": 12, "note": 56, "velocity": 117, "channel": 0}, {"type": "note_off", "time": 108, "note": 56, "velocity": 117, "channel": 0}, {"type": "note_on", "time": 0, "note": 55, "velocity": 110, "channel": 0}, {"type": "note_off", "time": 77, "note": 55, "velocity": 110, "channel": 0}, {"type": "note_on", "time": 11, "note": 54, "velocity": 101, "channel": 0}, {"type": "note_off", "time": 45, "note": 54, "velocity": 101, "channel": 0}, {"type": "note_on", "time": 154, "note": 57, "velocity": 110, "channel": 0}, {"type": "note_off", "time": 176, "note": 57, "velocity": 110, "channel": 0}, {"type": "note_on", "time": 10, "note": 54, "velocity": 114, "channel": 0}, {"type": "note_off", "time": 97, "note": 54, "velocity": 114, "channel": 0}, {"type": "note_on", "time": 5, "note": 55, "velocity": 101, "channel": 0}, {"type": "note_on", "time": 103, "note": 57, "velocity": 106, "channel": 0}, {"type": "note_off", "time": 0, "note": 55, "velocity": 101, "channel": 0}, {"type": "note_off", "time": 73, "note": 57, "velocity": 106, "channel": 0}, {"type": "note_on", "time": 5, "note": 58, "velocity": 108, "channel": 0}, {"type": "note_off", "time": 95, "note": 58, "velocity": 108, "channel": 0}, {"type": "note_on", "time": 2, "note": 60, "velocity": 116, "channel": 0}, {"type": "note_off", "time": 113, "note": 60, "velocity": 116, "channel": 0}, {"type": "note_on", "time": 7, "note": 62, "velocity": 115, "channel": 0}, {"type": "note_off", "time": 95, "note": 62, "velocity": 115, "channel": 0}, {"type": "note_on", "time": 0, "note": 65, "velocity": 107, "channel": 0}, {"type": "note_off", "time": 87, "note": 65, "velocity": 107, "channel": 0}, {"type": "note_on", "time": 11, "note": 69, "velocity": 109, "channel": 0}, {"type": "note_off", "time": 157, "note": 69, "velocity": 109, "channel": 0}, {"type": "note_on", "time": 48, "note": 69, "velocity": 108, "channel": 0}, {"type": "note_off", "time": 159, "note": 69, "velocity": 108, "channel": 0}, {"type": "note_on", "time": 31, "note": 69, "velocity": 111, "channel": 0}, {"type": "note_off", "time": 125, "note": 69, "velocity": 111, "channel": 0}, {"type": "note_on", "time": 2, "note": 70, "velocity": 107, "channel": 0}, {"type": "note_off", "time": 112, "note": 70, "velocity": 107, "channel": 0}, {"type": "note_on", "time": 133, "note": 66, "velocity": 102, "channel": 0}, {"type": "note_off", "time": 109, "note": 66, "velocity": 102, "channel": 0}, {"type": "note_on", "time": 5, "note": 69, "velocity": 115, "channel": 0}, {"type": "note_off", "time": 190, "note": 69, "velocity": 115, "channel": 0}, {"type": "note_on", "time": 13, "note": 67, "velocity": 116, "channel": 0}, {"type": "note_off", "time": 80, "note": 67, "velocity": 116, "channel": 0}, {"type": "note_on", "time": 23, "note": 62, "velocity": 110, "channel": 0}, {"type": "note_off", "time": 73, "note": 62, "velocity": 110, "channel": 0}, {"type": "note_on", "time": 7, "note": 60, "velocity": 98, "channel": 0}, {"type": "note_off", "time": 258, "note": 60, "velocity": 98, "channel": 0}, {"type": "note_on", "time": 653, "note": 60, "velocity": 115, "channel": 0}, {"type": "note_off", "time": 95, "note": 60, "velocity": 115, "channel": 0}, {"type": "note_on", "time": 16, "note": 65, "velocity": 102, "channel": 0}, {"type": "note_off", "time": 67, "note": 65, "velocity": 102, "channel": 0}, {"type": "note_on", "time": 5, "note": 69, "velocity": 105, "channel": 0}, {"type": "note_off", "time": 82, "note": 69, "velocity": 105, "channel": 0}, {"type": "note_on", "time": 0, "note": 74, "velocity": 111, "channel": 0}, {"type": "note_off", "time": 115, "note": 74, "velocity": 111, "channel": 0}, {"type": "note_on", "time": 9, "note": 69, "velocity": 102, "channel": 0}, {"type": "note_off", "time": 66, "note": 69, "velocity": 102, "channel": 0}, {"type": "note_on", "time": 7, "note": 72, "velocity": 112, "channel": 0}, {"type": "note_off", "time": 115, "note": 72, "velocity": 112, "channel": 0}, {"type": "note_on", "time": 14, "note": 65, "velocity": 111, "channel": 0}, {"type": "note_off", "time": 75, "note": 65, "velocity": 111, "channel": 0}, {"type": "note_on", "time": 0, "note": 69, "velocity": 102, "channel": 0}, {"type": "note_off", "time": 91, "note": 69, "velocity": 102, "channel": 0}, {"type": "note_on", "time": 23, "note": 58, "velocity": 106, "channel": 0}, {"type": "note_off", "time": 150, "note": 58, "velocity": 106, "channel": 0}, {"type": "note_on", "time": 524, "note": 58, "velocity": 116, "channel": 0}, {"type": "note_off", "time": 82, "note": 58, "velocity": 116, "channel": 0}, {"type": "note_on", "time": 11, "note": 63, "velocity": 111, "channel": 0}, {"type": "note_on", "time": 82, "note": 67, "velocity": 106, "channel": 0}, {"type": "note_off", "time": 0, "note": 63, "velocity": 111, "channel": 0}, {"type": "note_off", "time": 89, "note": 67, "velocity": 106, "channel": 0}, {"type": "note_on", "time": 12, "note": 72, "velocity": 116, "channel": 0}, {"type": "note_off", "time": 93, "note": 72, "velocity": 116, "channel": 0}, {"type": "note_on", "time": 5, "note": 70, "velocity": 107, "channel": 0}, {"type": "note_off", "time": 84, "note": 70, "velocity": 107, "channel": 0}, {"type": "note_on", "time": 0, "note": 72, "velocity": 108, "channel": 0}, {"type": "note_on", "time": 88, "note": 70, "velocity": 109, "channel": 0}, {"type": "note_off", "time": 0, "note": 72, "velocity": 108, "channel": 0}, {"type": "note_off", "time": 67, "note": 70, "velocity": 109, "channel": 0}, {"type": "note_on", "time": 5, "note": 66, "velocity": 105, "channel": 0}, {"type": "note_off", "time": 75, "note": 66, "velocity": 105, "channel": 0}, {"type": "note_on", "time": 9, "note": 65, "velocity": 98, "channel": 0}, {"type": "note_off", "time": 86, "note": 65, "velocity": 98, "channel": 0}, {"type": "note_on", "time": 10, "note": 63, "velocity": 119, "channel": 0}, {"type": "note_off", "time": 133, "note": 63, "velocity": 119, "channel": 0}, {"type": "note_on", "time": 1, "note": 60, "velocity": 105, "channel": 0}, {"type": "note_off", "time": 62, "note": 60, "velocity": 105, "channel": 0}, {"type": "note_on", "time": 2, "note": 61, "velocity": 104, "channel": 0}, {"type": "note_off", "time": 80, "note": 61, "velocity": 104, "channel": 0}, {"type": "note_on", "time": 14, "note": 62, "velocity": 121, "channel": 0}, {"type": "note_off", "time": 102, "note": 62, "velocity": 121, "channel": 0}, {"type": "note_on", "time": 5, "note": 57, "velocity": 103, "channel": 0}, {"type": "note_off", "time": 71, "note": 57, "velocity": 103, "channel": 0}, {"type": "note_on", "time": 9, "note": 60, "velocity": 120, "channel": 0}, {"type": "note_off", "time": 106, "note": 60, "velocity": 120, "channel": 0}, {"type": "note_on", "time": 7, "note": 57, "velocity": 107, "channel": 0}, {"type": "note_off", "time": 71, "note": 57, "velocity": 107, "channel": 0}, {"type": "note_on", "time": 9, "note": 58, "velocity": 106, "channel": 0}, {"type": "note_off", "time": 86, "note": 58, "velocity": 106, "channel": 0}, {"type": "note_on", "time": 56, "note": 50, "velocity": 98, "channel": 0}, {"type": "note_off", "time": 63, "note": 50, "velocity": 98, "channel": 0}, {"type": "note_on", "time": 5, "note": 54, "velocity": 107, "channel": 0}, {"type": "note_off", "time": 67, "note": 54, "velocity": 107, "channel": 0}, {"type": "note_on", "time": 4, "note": 57, "velocity": 107, "channel": 0}, {"type": "note_off", "time": 82, "note": 57, "velocity": 107, "channel": 0}, {"type": "note_on", "time": 30, "note": 56, "velocity": 116, "channel": 0}, {"type": "note_off", "time": 107, "note": 56, "velocity": 116, "channel": 0}, {"type": "note_on", "time": 1, "note": 54, "velocity": 107, "channel": 0}, {"type": "note_off", "time": 73, "note": 54, "velocity": 107, "channel": 0}, {"type": "note_on", "time": 2, "note": 55, "velocity": 110, "channel": 0}, {"type": "note_off", "time": 108, "note": 55, "velocity": 110, "channel": 0}, {"type": "note_on", "time": 9, "note": 57, "velocity": 103, "channel": 0}, {"type": "note_off", "time": 84, "note": 57, "velocity": 103, "channel": 0}, {"type": "note_on", "time": 1, "note": 58, "velocity": 107, "channel": 0}, {"type": "note_off", "time": 80, "note": 58, "velocity": 107, "channel": 0}, {"type": "note_on", "time": 0, "note": 60, "velocity": 120, "channel": 0}, {"type": "note_off", "time": 109, "note": 60, "velocity": 120, "channel": 0}, {"type": "note_on", "time": 9, "note": 61, "velocity": 117, "channel": 0}, {"type": "note_off", "time": 92, "note": 61, "velocity": 117, "channel": 0}, {"type": "note_on", "time": 10, "note": 62, "velocity": 112, "channel": 0}, {"type": "note_off", "time": 69, "note": 62, "velocity": 112, "channel": 0}, {"type": "note_on", "time": 10, "note": 63, "velocity": 121, "channel": 0}, {"type": "note_off", "time": 120, "note": 63, "velocity": 121, "channel": 0}, {"type": "note_on", "time": 0, "note": 62, "velocity": 119, "channel": 0}, {"type": "note_off", "time": 92, "note": 62, "velocity": 119, "channel": 0}, {"type": "note_on", "time": 6, "note": 61, "velocity": 118, "channel": 0}, {"type": "note_off", "time": 99, "note": 61, "velocity": 118, "channel": 0}, {"type": "note_on", "time": 1, "note": 60, "velocity": 111, "channel": 0}, {"type": "note_off", "time": 74, "note": 60, "velocity": 111, "channel": 0}, {"type": "note_on", "time": 2, "note": 64, "velocity": 114, "channel": 0}, {"type": "note_off", "time": 93, "note": 64, "velocity": 114, "channel": 0}, {"type": "note_on", "time": 1, "note": 63, "velocity": 121, "channel": 0}, {"type": "note_off", "time": 86, "note": 63, "velocity": 121, "channel": 0}, {"type": "note_on", "time": 3, "note": 62, "velocity": 109, "channel": 0}, {"type": "note_off", "time": 88, "note": 62, "velocity": 109, "channel": 0}, {"type": "note_on", "time": 80, "note": 62, "velocity": 123, "channel": 0}, {"type": "note_off", "time": 118, "note": 62, "velocity": 123, "channel": 0}, {"type": "note_on", "time": 1, "note": 61, "velocity": 123, "channel": 0}, {"type": "note_off", "time": 97, "note": 61, "velocity": 123, "channel": 0}, {"type": "note_on", "time": 1, "note": 60, "velocity": 108, "channel": 0}, {"type": "note_off", "time": 93, "note": 60, "velocity": 108, "channel": 0}, {"type": "note_on", "time": 1, "note": 59, "velocity": 108, "channel": 0}, {"type": "note_off", "time": 73, "note": 59, "velocity": 108, "channel": 0}, {"type": "note_on", "time": 3, "note": 63, "velocity": 121, "channel": 0}, {"type": "note_off", "time": 121, "note": 63, "velocity": 121, "channel": 0}, {"type": "note_on", "time": 3, "note": 62, "velocity": 117, "channel": 0}, {"type": "note_off", "time": 65, "note": 62, "velocity": 117, "channel": 0}, {"type": "note_on", "time": 0, "note": 61, "velocity": 120, "channel": 0}, {"type": "note_off", "time": 108, "note": 61, "velocity": 120, "channel": 0}, {"type": "note_on", "time": 2, "note": 60, "velocity": 107, "channel": 0}, {"type": "note_off", "time": 91, "note": 60, "velocity": 107, "channel": 0}, {"type": "note_on", "time": 10, "note": 60, "velocity": 118, "channel": 0}, {"type": "note_off", "time": 101, "note": 60, "velocity": 118, "channel": 0}, {"type": "note_on", "time": 2, "note": 59, "velocity": 114, "channel": 0}, {"type": "note_off", "time": 80, "note": 59, "velocity": 114, "channel": 0}, {"type": "note_on", "time": 2, "note": 58, "velocity": 105, "channel": 0}, {"type": "note_off", "time": 90, "note": 58, "velocity": 105, "channel": 0}, {"type": "note_on", "time": 5, "note": 57, "velocity": 94, "channel": 0}, {"type": "note_off", "time": 74, "note": 57, "velocity": 94, "channel": 0}, {"type": "note_on", "time": 9, "note": 62, "velocity": 121, "channel": 0}, {"type": "note_off", "time": 112, "note": 62, "velocity": 121, "channel": 0}, {"type": "note_on", "time": 3, "note": 61, "velocity": 120, "channel": 0}, {"type": "note_off", "time": 107, "note": 61, "velocity": 120, "channel": 0}, {"type": "note_on", "time": 6, "note": 60, "velocity": 110, "channel": 0}, {"type": "note_off", "time": 90, "note": 60, "velocity": 110, "channel": 0}, {"type": "note_on", "time": 3, "note": 59, "velocity": 103, "channel": 0}, {"type": "note_off", "time": 83, "note": 59, "velocity": 103, "channel": 0}, {"type": "note_on", "time": 172, "note": 59, "velocity": 120, "channel": 0}, {"type": "note_off", "time": 104, "note": 59, "velocity": 120, "channel": 0}, {"type": "note_on", "time": 1, "note": 58, "velocity": 113, "channel": 0}, {"type": "note_off", "time": 118, "note": 58, "velocity": 113, "channel": 0}, {"type": "note_on", "time": 3, "note": 57, "velocity": 104, "channel": 0}, {"type": "note_off", "time": 86, "note": 57, "velocity": 104, "channel": 0}, {"type": "note_on", "time": 3, "note": 56, "velocity": 104, "channel": 0}, {"type": "note_off", "time": 78, "note": 56, "velocity": 104, "channel": 0}, {"type": "note_on", "time": 6, "note": 60, "velocity": 118, "channel": 0}, {"type": "note_off", "time": 125, "note": 60, "velocity": 118, "channel": 0}, {"type": "note_on", "time": 1, "note": 59, "velocity": 114, "channel": 0}, {"type": "note_off", "time": 92, "note": 59, "velocity": 114, "channel": 0}, {"type": "note_on", "time": 0, "note": 58, "velocity": 107, "channel": 0}, {"type": "note_on", "time": 103, "note": 57, "velocity": 102, "channel": 0}, {"type": "note_off", "time": 0, "note": 58, "velocity": 107, "channel": 0}, {"type": "note_off", "time": 53, "note": 57, "velocity": 102, "channel": 0}, {"type": "note_on", "time": 18, "note": 58, "velocity": 115, "channel": 0}, {"type": "note_off", "time": 107, "note": 58, "velocity": 115, "channel": 0}, {"type": "note_on", "time": 6, "note": 56, "velocity": 110, "channel": 0}, {"type": "note_off", "time": 152, "note": 56, "velocity": 110, "channel": 0}, {"type": "note_on", "time": 50, "note": 55, "velocity": 107, "channel": 0}, {"type": "note_off", "time": 56, "note": 55, "velocity": 107, "channel": 0}, {"type": "note_on", "time": 0, "note": 59, "velocity": 117, "channel": 0}, {"type": "note_on", "time": 113, "note": 58, "velocity": 114, "channel": 0}, {"type": "note_off", "time": 0, "note": 59, "velocity": 117, "channel": 0}, {"type": "note_off", "time": 60, "note": 58, "velocity": 114, "channel": 0}, {"type": "note_on", "time": 0, "note": 57, "velocity": 111, "channel": 0}, {"type": "note_off", "time": 52, "note": 57, "velocity": 111, "channel": 0}, {"type": "note_on", "time": 6, "note": 56, "velocity": 105, "channel": 0}, {"type": "note_off", "time": 39, "note": 56, "velocity": 105, "channel": 0}, {"type": "note_on", "time": 0, "note": 60, "velocity": 117, "channel": 0}, {"type": "note_off", "time": 95, "note": 60, "velocity": 117, "channel": 0}, {"type": "note_on", "time": 2, "note": 59, "velocity": 113, "channel": 0}, {"type": "note_off", "time": 56, "note": 59, "velocity": 113, "channel": 0}, {"type": "note_on", "time": 0, "note": 58, "velocity": 110, "channel": 0}, {"type": "note_off", "time": 45, "note": 58, "velocity": 110, "channel": 0}, {"type": "note_on", "time": 6, "note": 57, "velocity": 101, "channel": 0}, {"type": "note_off", "time": 41, "note": 57, "velocity": 101, "channel": 0}, {"type": "note_on", "time": 22, "note": 61, "velocity": 123, "channel": 0}, {"type": "note_off", "time": 67, "note": 61, "velocity": 123, "channel": 0}, {"type": "note_on", "time": 0, "note": 62, "velocity": 116, "channel": 0}, {"type": "note_off", "time": 62, "note": 62, "velocity": 116, "channel": 0}, {"type": "note_on", "time": 1, "note": 61, "velocity": 115, "channel": 0}, {"type": "note_off", "time": 50, "note": 61, "velocity": 115, "channel": 0}, {"type": "note_on", "time": 0, "note": 60, "velocity": 110, "channel": 0}, {"type": "note_off", "time": 58, "note": 60, "velocity": 110, "channel": 0}, {"type": "note_on", "time": 1, "note": 59, "velocity": 108, "channel": 0}, {"type": "note_off", "time": 74, "note": 59, "velocity": 108, "channel": 0}, {"type": "note_on", "time": 10, "note": 63, "velocity": 120, "channel": 0}, {"type": "note_off", "time": 99, "note": 63, "velocity": 120, "channel": 0}, {"type": "note_on", "time": 1, "note": 62, "velocity": 117, "channel": 0}, {"type": "note_off", "time": 39, "note": 62, "velocity": 117, "channel": 0}, {"type": "note_on", "time": 0, "note": 61, "velocity": 121, "channel": 0}, {"type": "note_off", "time": 66, "note": 61, "velocity": 121, "channel": 0}, {"type": "note_on", "time": 1, "note": 60, "velocity": 109, "channel": 0}, {"type": "note_off", "time": 67, "note": 60, "velocity": 109, "channel": 0}, {"type": "note_on", "time": 2, "note": 65, "velocity": 116, "channel": 0}, {"type": "note_off", "time": 110, "note": 65, "velocity": 116, "channel": 0}, {"type": "note_on", "time": 5, "note": 64, "velocity": 112, "channel": 0}, {"type": "note_off", "time": 46, "note": 64, "velocity": 112, "channel": 0}, {"type": "note_on", "time": 5, "note": 63, "velocity": 111, "channel": 0}, {"type": "note_off", "time": 54, "note": 63, "velocity": 111, "channel": 0}, {"type": "note_on", "time": 1, "note": 62, "velocity": 114, "channel": 0}, {"type": "note_off", "time": 80, "note": 62, "velocity": 114, "channel": 0}, {"type": "note_on", "time": 0, "note": 66, "velocity": 108, "channel": 0}, {"type": "note_off", "time": 87, "note": 66, "velocity": 108, "channel": 0}, {"type": "note_on", "time": 2, "note": 65, "velocity": 111, "channel": 0}, {"type": "note_off", "time": 61, "note": 65, "velocity": 111, "channel": 0}, {"type": "note_on", "time": 10, "note": 64, "velocity": 107, "channel": 0}, {"type": "note_off", "time": 39, "note": 64, "velocity": 107, "channel": 0}, {"type": "note_on", "time": 9, "note": 62, "velocity": 112, "channel": 0}, {"type": "note_off", "time": 61, "note": 62, "velocity": 112, "channel": 0}, {"type": "note_on", "time": 2, "note": 69, "velocity": 115, "channel": 0}, {"type": "note_off", "time": 170, "note": 69, "velocity": 115, "channel": 0}, {"type": "note_on", "time": 405, "note": 67, "velocity": 118, "channel": 0}, {"type": "note_off", "time": 113, "note": 67, "velocity": 118, "channel": 0}, {"type": "note_on", "time": 1, "note": 69, "velocity": 109, "channel": 0}, {"type": "note_off", "time": 78, "note": 69, "velocity": 109, "channel": 0}, {"type": "note_on", "time": 2, "note": 67, "velocity": 106, "channel": 0}, {"type": "note_off", "time": 83, "note": 67, "velocity": 106, "channel": 0}, {"type": "note_on", "time": 0, "note": 66, "velocity": 106, "channel": 0}, {"type": "note_off", "time": 71, "note": 66, "velocity": 106, "channel": 0}, {"type": "note_on", "time": 2, "note": 65, "velocity": 100, "channel": 0}, {"type": "note_off", "time": 95, "note": 65, "velocity": 100, "channel": 0}, {"type": "note_on", "time": 13, "note": 64, "velocity": 115, "channel": 0}, {"type": "note_off", "time": 131, "note": 64, "velocity": 115, "channel": 0}, {"type": "note_on", "time": 7, "note": 62, "velocity": 115, "channel": 0}, {"type": "note_off", "time": 93, "note": 62, "velocity": 115, "channel": 0}, {"type": "note_on", "time": 53, "note": 65, "velocity": 118, "channel": 0}, {"type": "note_off", "time": 96, "note": 65, "velocity": 118, "channel": 0}, {"type": "note_on", "time": 5, "note": 61, "velocity": 120, "channel": 0}, {"type": "note_off", "time": 101, "note": 61, "velocity": 120, "channel": 0}, {"type": "note_on", "time": 87, "note": 61, "velocity": 123, "channel": 0}, {"type": "note_off", "time": 135, "note": 61, "velocity": 123, "channel": 0}, {"type": "note_on", "time": 0, "note": 65, "velocity": 103, "channel": 0}, {"type": "note_off", "time": 92, "note": 65, "velocity": 103, "channel": 0}, {"type": "note_on", "time": 0, "note": 68, "velocity": 97, "channel": 0}, {"type": "note_off", "time": 73, "note": 68, "velocity": 97, "channel": 0}, {"type": "note_on", "time": 0, "note": 72, "velocity": 103, "channel": 0}, {"type": "note_off", "time": 133, "note": 72, "velocity": 103, "channel": 0}, {"type": "note_on", "time": 5, "note": 69, "velocity": 99, "channel": 0}, {"type": "note_on", "time": 50, "note": 70, "velocity": 104, "channel": 0}, {"type": "note_off", "time": 0, "note": 69, "velocity": 99, "channel": 0}, {"type": "note_off", "time": 83, "note": 70, "velocity": 104, "channel": 0}, {"type": "note_on", "time": 0, "note": 72, "velocity": 110, "channel": 0}, {"type": "note_off", "time": 113, "note": 72, "velocity": 110, "channel": 0}, {"type": "note_on", "time": 7, "note": 73, "velocity": 103, "channel": 0}, {"type": "note_off", "time": 67, "note": 73, "velocity": 103, "channel": 0}, {"type": "note_on", "time": 3, "note": 74, "velocity": 109, "channel": 0}, {"type": "note_off", "time": 82, "note": 74, "velocity": 109, "channel": 0}, {"type": "note_on", "time": 5, "note": 75, "velocity": 119, "channel": 0}, {"type": "note_off", "time": 109, "note": 75, "velocity": 119, "channel": 0}, {"type": "note_on", "time": 9, "note": 74, "velocity": 105, "channel": 0}, {"type": "note_off", "time": 104, "note": 74, "velocity": 105, "channel": 0}, {"type": "note_on", "time": 5, "note": 73, "velocity": 110, "channel": 0}, {"type": "note_off", "time": 71, "note": 73, "velocity": 110, "channel": 0}, {"type": "note_on", "time": 2, "note": 72, "velocity": 110, "channel": 0}, {"type": "note_off", "time": 104, "note": 72, "velocity": 110, "channel": 0}, {"type": "note_on", "time": 6, "note": 70, "velocity": 113, "channel": 0}, {"type": "note_off", "time": 75, "note": 70, "velocity": 113, "channel": 0}, {"type": "note_on", "time": 5, "note": 68, "velocity": 112, "channel": 0}, {"type": "note_off", "time": 101, "note": 68, "velocity": 112, "channel": 0}, {"type": "note_on", "time": 5, "note": 67, "velocity": 102, "channel": 0}, {"type": "note_off", "time": 87, "note": 67, "velocity": 102, "channel": 0}, {"type": "note_on", "time": 5, "note": 66, "velocity": 108, "channel": 0}, {"type": "note_off", "time": 104, "note": 66, "velocity": 108, "channel": 0}, {"type": "note_on", "time": 3, "note": 65, "velocity": 102, "channel": 0}, {"type": "note_off", "time": 62, "note": 65, "velocity": 102, "channel": 0}, {"type": "note_on", "time": 1, "note": 64, "velocity": 109, "channel": 0}, {"type": "note_off", "time": 107, "note": 64, "velocity": 109, "channel": 0}, {"type": "note_on", "time": 2, "note": 63, "velocity": 110, "channel": 0}, {"type": "note_off", "time": 129, "note": 63, "velocity": 110, "channel": 0}, {"type": "note_on", "time": 0, "note": 69, "velocity": 112, "channel": 0}, {"type": "note_off", "time": 63, "note": 69, "velocity": 112, "channel": 0}, {"type": "note_on", "time": 6, "note": 62, "velocity": 112, "channel": 0}, {"type": "note_off", "time": 113, "note": 62, "velocity": 112, "channel": 0}, {"type": "note_on", "time": 88, "note": 62, "velocity": 121, "channel": 0}, {"type": "note_off", "time": 169, "note": 62, "velocity": 121, "channel": 0}, {"type": "note_on", "time": 1023, "note": 60, "velocity": 116, "channel": 0}, {"type": "note_off", "time": 113, "note": 60, "velocity": 116, "channel": 0}, {"type": "note_on", "time": 1, "note": 62, "velocity": 105, "channel": 0}, {"type": "note_off", "time": 93, "note": 62, "velocity": 105, "channel": 0}, {"type": "note_on", "time": 5, "note": 60, "velocity": 105, "channel": 0}, {"type": "note_off", "time": 102, "note": 60, "velocity": 105, "channel": 0}, {"type": "note_on", "time": 7, "note": 57, "velocity": 102, "channel": 0}, {"type": "note_off", "time": 71, "note": 57, "velocity": 102, "channel": 0}, {"type": "note_on", "time": 18, "note": 55, "velocity": 107, "channel": 0}, {"type": "note_off", "time": 80, "note": 55, "velocity": 107, "channel": 0}, {"type": "note_on", "time": 9, "note": 57, "velocity": 104, "channel": 0}, {"type": "note_off", "time": 84, "note": 57, "velocity": 104, "channel": 0}, {"type": "note_on", "time": 15, "note": 55, "velocity": 108, "channel": 0}, {"type": "note_off", "time": 155, "note": 55, "velocity": 108, "channel": 0}, {"type": "note_on", "time": 814, "note": 62, "velocity": 120, "channel": 0}, {"type": "note_off", "time": 110, "note": 62, "velocity": 120, "channel": 0}, {"type": "note_on", "time": 7, "note": 61, "velocity": 117, "channel": 0}, {"type": "note_off", "time": 78, "note": 61, "velocity": 117, "channel": 0}, {"type": "note_on", "time": 6, "note": 60, "velocity": 111, "channel": 0}, {"type": "note_off", "time": 83, "note": 60, "velocity": 111, "channel": 0}, {"type": "note_on", "time": 2, "note": 59, "velocity": 109, "channel": 0}, {"type": "note_off", "time": 91, "note": 59, "velocity": 109, "channel": 0}, {"type": "note_on", "time": 3, "note": 58, "velocity": 103, "channel": 0}, {"type": "note_off", "time": 75, "note": 58, "velocity": 103, "channel": 0}, {"type": "note_on", "time": 0, "note": 62, "velocity": 115, "channel": 0}, {"type": "note_off", "time": 96, "note": 62, "velocity": 115, "channel": 0}, {"type": "note_on", "time": 0, "note": 57, "velocity": 105, "channel": 0}, {"type": "note_off", "time": 57, "note": 57, "velocity": 105, "channel": 0}, {"type": "note_on", "time": 521, "note": 62, "velocity": 120, "channel": 0}, {"type": "note_off", "time": 112, "note": 62, "velocity": 120, "channel": 0}, {"type": "note_on", "time": 5, "note": 59, "velocity": 108, "channel": 0}, {"type": "note_off", "time": 86, "note": 59, "velocity": 108, "channel": 0}, {"type": "note_on", "time": 0, "note": 60, "velocity": 111, "channel": 0}, {"type": "note_off", "time": 88, "note": 60, "velocity": 111, "channel": 0}, {"type": "note_on", "time": 2, "note": 62, "velocity": 119, "channel": 0}, {"type": "note_off", "time": 95, "note": 62, "velocity": 119, "channel": 0}, {"type": "note_on", "time": 1, "note": 63, "velocity": 114, "channel": 0}, {"type": "note_off", "time": 78, "note": 63, "velocity": 114, "channel": 0}, {"type": "note_on", "time": 0, "note": 65, "velocity": 113, "channel": 0}, {"type": "note_off", "time": 108, "note": 65, "velocity": 113, "channel": 0}, {"type": "note_on", "time": 2, "note": 66, "velocity": 99, "channel": 0}, {"type": "note_off", "time": 88, "note": 66, "velocity": 99, "channel": 0}, {"type": "note_on", "time": 1, "note": 69, "velocity": 103, "channel": 0}, {"type": "note_off", "time": 78, "note": 69, "velocity": 103, "channel": 0}, {"type": "note_on", "time": 0, "note": 74, "velocity": 109, "channel": 0}, {"type": "note_off", "time": 108, "note": 74, "velocity": 109, "channel": 0}, {"type": "note_on", "time": 1, "note": 73, "velocity": 100, "channel": 0}, {"type": "note_off", "time": 88, "note": 73, "velocity": 100, "channel": 0}, {"type": "note_on", "time": 6, "note": 72, "velocity": 95, "channel": 0}, {"type": "note_off", "time": 84, "note": 72, "velocity": 95, "channel": 0}, {"type": "note_on", "time": 5, "note": 68, "velocity": 113, "channel": 0}, {"type": "note_off", "time": 116, "note": 68, "velocity": 113, "channel": 0}, {"type": "note_on", "time": 5, "note": 67, "velocity": 107, "channel": 0}, {"type": "note_off", "time": 61, "note": 67, "velocity": 107, "channel": 0}, {"type": "note_on", "time": 0, "note": 65, "velocity": 113, "channel": 0}, {"type": "note_off", "time": 88, "note": 65, "velocity": 113, "channel": 0}, {"type": "note_on", "time": 5, "note": 63, "velocity": 109, "channel": 0}, {"type": "note_off", "time": 108, "note": 63, "velocity": 109, "channel": 0}, {"type": "note_on", "time": 848, "note": 62, "velocity": 121, "channel": 0}, {"type": "note_off", "time": 110, "note": 62, "velocity": 121, "channel": 0}, {"type": "note_on", "time": 5, "note": 59, "velocity": 103, "channel": 0}, {"type": "note_off", "time": 80, "note": 59, "velocity": 103, "channel": 0}, {"type": "note_on", "time": 1, "note": 60, "velocity": 106, "channel": 0}, {"type": "note_off", "time": 96, "note": 60, "velocity": 106, "channel": 0}, {"type": "note_on", "time": 0, "note": 62, "velocity": 112, "channel": 0}, {"type": "note_off", "time": 86, "note": 62, "velocity": 112, "channel": 0}, {"type": "note_on", "time": 0, "note": 63, "velocity": 107, "channel": 0}, {"type": "note_off", "time": 82, "note": 63, "velocity": 107, "channel": 0}, {"type": "note_on", "time": 2, "note": 65, "velocity": 113, "channel": 0}, {"type": "note_off", "time": 90, "note": 65, "velocity": 113, "channel": 0}, {"type": "note_on", "time": 0, "note": 66, "velocity": 94, "channel": 0}, {"type": "note_off", "time": 101, "note": 66, "velocity": 94, "channel": 0}, {"type": "note_on", "time": 3, "note": 67, "velocity": 91, "channel": 0}, {"type": "note_off", "time": 70, "note": 67, "velocity": 91, "channel": 0}, {"type": "note_on", "time": 0, "note": 72, "velocity": 110, "channel": 0}, {"type": "note_off", "time": 108, "note": 72, "velocity": 110, "channel": 0}, {"type": "note_on", "time": 0, "note": 71, "velocity": 103, "channel": 0}, {"type": "note_off", "time": 79, "note": 71, "velocity": 103, "channel": 0}, {"type": "note_on", "time": 3, "note": 70, "velocity": 109, "channel": 0}, {"type": "note_off", "time": 103, "note": 70, "velocity": 109, "channel": 0}, {"type": "note_on", "time": 1, "note": 68, "velocity": 109, "channel": 0}, {"type": "note_off", "time": 97, "note": 68, "velocity": 109, "channel": 0}, {"type": "note_on", "time": 0, "note": 67, "velocity": 103, "channel": 0}, {"type": "note_off", "time": 84, "note": 67, "velocity": 103, "channel": 0}, {"type": "note_on", "time": 2, "note": 66, "velocity": 105, "channel": 0}, {"type": "note_off", "time": 90, "note": 66, "velocity": 105, "channel": 0}, {"type": "note_on", "time": 2, "note": 65, "velocity": 104, "channel": 0}, {"type": "note_off", "time": 104, "note": 65, "velocity": 104, "channel": 0}, {"type": "note_on", "time": 3, "note": 64, "velocity": 110, "channel": 0}, {"type": "note_off", "time": 82, "note": 64, "velocity": 110, "channel": 0}, {"type": "note_on", "time": 5, "note": 62, "velocity": 89, "channel": 0}, {"type": "note_off", "time": 83, "note": 62, "velocity": 89, "channel": 0}, {"type": "note_on", "time": 1246, "note": 62, "velocity": 123, "channel": 0}, {"type": "note_off", "time": 124, "note": 62, "velocity": 123, "channel": 0}, {"type": "note_on", "time": 0, "note": 61, "velocity": 114, "channel": 0}, {"type": "note_off", "time": 104, "note": 61, "velocity": 114, "channel": 0}, {"type": "note_on", "time": 0, "note": 60, "velocity": 109, "channel": 0}, {"type": "note_off", "time": 104, "note": 60, "velocity": 109, "channel": 0}, {"type": "note_on", "time": 89, "note": 64, "velocity": 112, "channel": 0}, {"type": "note_off", "time": 115, "note": 64, "velocity": 112, "channel": 0}, {"type": "note_on", "time": 0, "note": 63, "velocity": 115, "channel": 0}, {"type": "note_off", "time": 104, "note": 63, "velocity": 115, "channel": 0}, {"type": "note_on", "time": 3, "note": 62, "velocity": 108, "channel": 0}, {"type": "note_off", "time": 126, "note": 62, "velocity": 108, "channel": 0}, {"type": "note_on", "time": 31, "note": 67, "velocity": 116, "channel": 0}, {"type": "note_off", "time": 132, "note": 67, "velocity": 116, "channel": 0}, {"type": "note_on", "time": 0, "note": 66, "velocity": 107, "channel": 0}, {"type": "note_on", "time": 89, "note": 65, "velocity": 101, "channel": 0}, {"type": "note_off", "time": 0, "note": 66, "velocity": 107, "channel": 0}, {"type": "note_off", "time": 106, "note": 65, "velocity": 101, "channel": 0}, {"type": "note_on", "time": 56, "note": 65, "velocity": 116, "channel": 0}, {"type": "note_off", "time": 121, "note": 65, "velocity": 116, "channel": 0}, {"type": "note_on", "time": 3, "note": 64, "velocity": 112, "channel": 0}, {"type": "note_off", "time": 95, "note": 64, "velocity": 112, "channel": 0}, {"type": "note_on", "time": 7, "note": 63, "velocity": 105, "channel": 0}, {"type": "note_off", "time": 106, "note": 63, "velocity": 105, "channel": 0}, {"type": "note_on", "time": 236, "note": 62, "velocity": 9, "channel": 0}, {"type": "note_off", "time": 343, "note": 62, "velocity": 9, "channel": 0}, {"type": "note_on", "time": 12, "note": 65, "velocity": 104, "channel": 0}, {"type": "note_off", "time": 269, "note": 65, "velocity": 104, "channel": 0}, {"type": "note_on", "time": 3, "note": 60, "velocity": 91, "channel": 0}, {"type": "note_off", "time": 269, "note": 60, "velocity": 91, "channel": 0}, {"type": "note_on", "time": 111, "note": 63, "velocity": 115, "channel": 0}, {"type": "note_off", "time": 196, "note": 63, "velocity": 115, "channel": 0}, {"type": "note_on", "time": 7, "note": 60, "velocity": 102, "channel": 0}, {"type": "note_off", "time": 78, "note": 60, "velocity": 102, "channel": 0}, {"type": "note_on", "time": 3, "note": 62, "velocity": 118, "channel": 0}, {"type": "note_off", "time": 200, "note": 62, "velocity": 118, "channel": 0}, {"type": "note_on", "time": 88, "note": 58, "velocity": 99, "channel": 0}, {"type": "note_off", "time": 106, "note": 58, "velocity": 99, "channel": 0}, {"type": "note_on", "time": 0, "note": 60, "velocity": 114, "channel": 0}, {"type": "note_off", "time": 179, "note": 60, "velocity": 114, "channel": 0}, {"type": "note_on", "time": 130, "note": 57, "velocity": 105, "channel": 0}, {"type": "note_off", "time": 95, "note": 57, "velocity": 105, "channel": 0}, {"type": "note_on", "time": 108, "note": 58, "velocity": 109, "channel": 0}, {"type": "note_off", "time": 122, "note": 58, "velocity": 109, "channel": 0}, {"type": "note_on", "time": 42, "note": 54, "velocity": 89, "channel": 0}, {"type": "note_off", "time": 71, "note": 54, "velocity": 89, "channel": 0}, {"type": "note_on", "time": 22, "note": 57, "velocity": 110, "channel": 0}, {"type": "note_off", "time": 80, "note": 57, "velocity": 110, "channel": 0}, {"type": "note_on", "time": 1, "note": 54, "velocity": 112, "channel": 0}, {"type": "note_off", "time": 86, "note": 54, "velocity": 112, "channel": 0}, {"type": "note_on", "time": 62, "note": 55, "velocity": 112, "channel": 0}, {"type": "note_off", "time": 77, "note": 55, "velocity": 112, "channel": 0}, {"type": "note_on", "time": 1, "note": 57, "velocity": 103, "channel": 0}, {"type": "note_off", "time": 60, "note": 57, "velocity": 103, "channel": 0}, {"type": "note_on", "time": 3, "note": 58, "velocity": 104, "channel": 0}, {"type": "note_off", "time": 91, "note": 58, "velocity": 104, "channel": 0}, {"type": "note_on", "time": 25, "note": 60, "velocity": 118, "channel": 0}, {"type": "note_off", "time": 108, "note": 60, "velocity": 118, "channel": 0}, {"type": "note_on", "time": 7, "note": 62, "velocity": 96, "channel": 0}, {"type": "note_off", "time": 93, "note": 62, "velocity": 96, "channel": 0}, {"type": "note_on", "time": 49, "note": 69, "velocity": 117, "channel": 0}, {"type": "note_off", "time": 108, "note": 69, "velocity": 117, "channel": 0}, {"type": "note_on", "time": 1, "note": 70, "velocity": 111, "channel": 0}, {"type": "note_off", "time": 99, "note": 70, "velocity": 111, "channel": 0}, {"type": "note_on", "time": 5, "note": 69, "velocity": 110, "channel": 0}, {"type": "note_off", "time": 77, "note": 69, "velocity": 110, "channel": 0}, {"type": "note_on", "time": 0, "note": 68, "velocity": 112, "channel": 0}, {"type": "note_off", "time": 106, "note": 68, "velocity": 112, "channel": 0}, {"type": "note_on", "time": 1, "note": 67, "velocity": 106, "channel": 0}, {"type": "note_off", "time": 89, "note": 67, "velocity": 106, "channel": 0}, {"type": "note_on", "time": 6, "note": 66, "velocity": 112, "channel": 0}, {"type": "note_off", "time": 100, "note": 66, "velocity": 112, "channel": 0}, {"type": "note_on", "time": 2, "note": 65, "velocity": 109, "channel": 0}, {"type": "note_off", "time": 78, "note": 65, "velocity": 109, "channel": 0}, {"type": "note_on", "time": 0, "note": 64, "velocity": 111, "channel": 0}, {"type": "note_off", "time": 95, "note": 64, "velocity": 111, "channel": 0}, {"type": "note_on", "time": 3, "note": 63, "velocity": 119, "channel": 0}, {"type": "note_off", "time": 75, "note": 63, "velocity": 119, "channel": 0}, {"type": "note_on", "time": 1, "note": 61, "velocity": 126, "channel": 0}, {"type": "note_off", "time": 79, "note": 61, "velocity": 126, "channel": 0}, {"type": "note_on", "time": 3, "note": 60, "velocity": 116, "channel": 0}, {"type": "note_off", "time": 91, "note": 60, "velocity": 116, "channel": 0}, {"type": "note_on", "time": 5, "note": 58, "velocity": 121, "channel": 0}, {"type": "note_off", "time": 96, "note": 58, "velocity": 121, "channel": 0}, {"type": "note_on", "time": 7, "note": 57, "velocity": 115, "channel": 0}, {"type": "note_off", "time": 71, "note": 57, "velocity": 115, "channel": 0}, {"type": "note_on", "time": 5, "note": 55, "velocity": 108, "channel": 0}, {"type": "note_off", "time": 104, "note": 55, "velocity": 108, "channel": 0}, {"type": "note_on", "time": 11, "note": 54, "velocity": 105, "channel": 0}, {"type": "note_off", "time": 65, "note": 54, "velocity": 105, "channel": 0}, {"type": "note_on", "time": 10, "note": 56, "velocity": 109, "channel": 0}, {"type": "note_off", "time": 215, "note": 56, "velocity": 109, "channel": 0}, {"type": "note_on", "time": 18, "note": 54, "velocity": 101, "channel": 0}, {"type": "note_off", "time": 46, "note": 54, "velocity": 101, "channel": 0}, {"type": "note_on", "time": 0, "note": 55, "velocity": 110, "channel": 0}, {"type": "note_off", "time": 105, "note": 55, "velocity": 110, "channel": 0}, {"type": "note_on", "time": 0, "note": 57, "velocity": 103, "channel": 0}, {"type": "note_off", "time": 82, "note": 57, "velocity": 103, "channel": 0}, {"type": "note_on", "time": 14, "note": 58, "velocity": 106, "channel": 0}, {"type": "note_off", "time": 91, "note": 58, "velocity": 106, "channel": 0}, {"type": "note_on", "time": 0, "note": 59, "velocity": 115, "channel": 0}, {"type": "note_off", "time": 105, "note": 59, "velocity": 115, "channel": 0}, {"type": "note_on", "time": 2, "note": 61, "velocity": 123, "channel": 0}, {"type": "note_off", "time": 101, "note": 61, "velocity": 123, "channel": 0}, {"type": "note_on", "time": 0, "note": 63, "velocity": 115, "channel": 0}, {"type": "note_off", "time": 134, "note": 63, "velocity": 115, "channel": 0}, {"type": "note_on", "time": 46, "note": 66, "velocity": 111, "channel": 0}, {"type": "note_off", "time": 37, "note": 66, "velocity": 111, "channel": 0}, {"type": "note_on", "time": 10, "note": 67, "velocity": 111, "channel": 0}, {"type": "note_off", "time": 31, "note": 67, "velocity": 111, "channel": 0}, {"type": "note_on", "time": 9, "note": 68, "velocity": 112, "channel": 0}, {"type": "note_off", "time": 87, "note": 68, "velocity": 112, "channel": 0}, {"type": "note_on", "time": 0, "note": 73, "velocity": 120, "channel": 0}, {"type": "note_off", "time": 113, "note": 73, "velocity": 120, "channel": 0}, {"type": "note_on", "time": 10, "note": 68, "velocity": 99, "channel": 0}, {"type": "note_off", "time": 80, "note": 68, "velocity": 99, "channel": 0}, {"type": "note_on", "time": 91, "note": 72, "velocity": 120, "channel": 0}, {"type": "note_off", "time": 168, "note": 72, "velocity": 120, "channel": 0}, {"type": "note_on", "time": 36, "note": 69, "velocity": 110, "channel": 0}, {"type": "note_off", "time": 79, "note": 69, "velocity": 110, "channel": 0}, {"type": "note_on", "time": 11, "note": 65, "velocity": 108, "channel": 0}, {"type": "note_off", "time": 86, "note": 65, "velocity": 108, "channel": 0}, {"type": "note_on", "time": 13, "note": 62, "velocity": 115, "channel": 0}, {"type": "note_off", "time": 67, "note": 62, "velocity": 115, "channel": 0}, {"type": "note_on", "time": 284, "note": 67, "velocity": 118, "channel": 0}, {"type": "note_off", "time": 177, "note": 67, "velocity": 118, "channel": 0}, {"type": "note_on", "time": 41, "note": 64, "velocity": 109, "channel": 0}, {"type": "note_off", "time": 65, "note": 64, "velocity": 109, "channel": 0}, {"type": "note_on", "time": 1, "note": 61, "velocity": 116, "channel": 0}, {"type": "note_off", "time": 96, "note": 61, "velocity": 116, "channel": 0}, {"type": "note_on", "time": 3, "note": 59, "velocity": 110, "channel": 0}, {"type": "note_off", "time": 112, "note": 59, "velocity": 110, "channel": 0}, {"type": "note_on", "time": 177, "note": 65, "velocity": 111, "channel": 0}, {"type": "note_off", "time": 123, "note": 65, "velocity": 111, "channel": 0}, {"type": "note_on", "time": 48, "note": 62, "velocity": 118, "channel": 0}, {"type": "note_off", "time": 165, "note": 62, "velocity": 118, "channel": 0}, {"type": "note_on", "time": 5, "note": 58, "velocity": 110, "channel": 0}, {"type": "note_off", "time": 137, "note": 58, "velocity": 110, "channel": 0}, {"type": "note_on", "time": 9, "note": 55, "velocity": 98, "channel": 0}, {"type": "note_off", "time": 70, "note": 55, "velocity": 98, "channel": 0}, {"type": "note_on", "time": 260, "note": 58, "velocity": 116, "channel": 0}, {"type": "note_off", "time": 121, "note": 58, "velocity": 116, "channel": 0}, {"type": "note_on", "time": 1, "note": 57, "velocity": 106, "channel": 0}, {"type": "note_off", "time": 84, "note": 57, "velocity": 106, "channel": 0}, {"type": "note_on", "time": 1, "note": 56, "velocity": 114, "channel": 0}, {"type": "note_off", "time": 88, "note": 56, "velocity": 114, "channel": 0}, {"type": "note_on", "time": 0, "note": 58, "velocity": 112, "channel": 0}, {"type": "note_off", "time": 75, "note": 58, "velocity": 112, "channel": 0}, {"type": "note_on", "time": 6, "note": 59, "velocity": 106, "channel": 0}, {"type": "note_off", "time": 101, "note": 59, "velocity": 106, "channel": 0}, {"type": "note_on", "time": 1, "note": 60, "velocity": 116, "channel": 0}, {"type": "note_off", "time": 101, "note": 60, "velocity": 116, "channel": 0}, {"type": "note_on", "time": 3, "note": 61, "velocity": 122, "channel": 0}, {"type": "note_off", "time": 90, "note": 61, "velocity": 122, "channel": 0}, {"type": "note_on", "time": 3, "note": 62, "velocity": 118, "channel": 0}, {"type": "note_off", "time": 207, "note": 62, "velocity": 118, "channel": 0}, {"type": "note_on", "time": 5, "note": 65, "velocity": 106, "channel": 0}, {"type": "note_off", "time": 73, "note": 65, "velocity": 106, "channel": 0}, {"type": "note_on", "time": 3, "note": 69, "velocity": 117, "channel": 0}, {"type": "note_off", "time": 88, "note": 69, "velocity": 117, "channel": 0}, {"type": "note_on", "time": 10, "note": 67, "velocity": 109, "channel": 0}, {"type": "note_off", "time": 74, "note": 67, "velocity": 109, "channel": 0}, {"type": "note_on", "time": 7, "note": 65, "velocity": 106, "channel": 0}, {"type": "note_off", "time": 76, "note": 65, "velocity": 106, "channel": 0}, {"type": "note_on", "time": 2, "note": 61, "velocity": 127, "channel": 0}, {"type": "note_off", "time": 113, "note": 61, "velocity": 127, "channel": 0}, {"type": "note_on", "time": 1, "note": 60, "velocity": 96, "channel": 0}, {"type": "note_off", "time": 78, "note": 60, "velocity": 96, "channel": 0}, {"type": "note_on", "time": 0, "note": 58, "velocity": 112, "channel": 0}, {"type": "note_off", "time": 99, "note": 58, "velocity": 112, "channel": 0}, {"type": "note_on", "time": 1, "note": 57, "velocity": 100, "channel": 0}, {"type": "note_off", "time": 86, "note": 57, "velocity": 100, "channel": 0}, {"type": "note_on", "time": 1, "note": 58, "velocity": 107, "channel": 0}, {"type": "note_off", "time": 101, "note": 58, "velocity": 107, "channel": 0}, {"type": "note_on", "time": 3, "note": 62, "velocity": 110, "channel": 0}, {"type": "note_off", "time": 172, "note": 62, "velocity": 110, "channel": 0}, {"type": "note_on", "time": 2329, "note": 67, "velocity": 115, "channel": 0}, {"type": "note_off", "time": 114, "note": 67, "velocity": 115, "channel": 0}, {"type": "note_on", "time": 2, "note": 72, "velocity": 105, "channel": 0}, {"type": "note_off", "time": 87, "note": 72, "velocity": 105, "channel": 0}, {"type": "note_on", "time": 6, "note": 77, "velocity": 119, "channel": 0}, {"type": "note_off", "time": 150, "note": 77, "velocity": 119, "channel": 0}, {"type": "note_on", "time": 401, "note": 75, "velocity": 123, "channel": 0}, {"type": "note_off", "time": 121, "note": 75, "velocity": 123, "channel": 0}, {"type": "note_on", "time": 1, "note": 76, "velocity": 104, "channel": 0}, {"type": "note_off", "time": 105, "note": 76, "velocity": 104, "channel": 0}, {"type": "note_on", "time": 3, "note": 75, "velocity": 113, "channel": 0}, {"type": "note_off", "time": 86, "note": 75, "velocity": 113, "channel": 0}, {"type": "note_on", "time": 5, "note": 73, "velocity": 115, "channel": 0}, {"type": "note_off", "time": 99, "note": 73, "velocity": 115, "channel": 0}, {"type": "note_on", "time": 0, "note": 72, "velocity": 98, "channel": 0}, {"type": "note_off", "time": 76, "note": 72, "velocity": 98, "channel": 0}, {"type": "note_on", "time": 2, "note": 70, "velocity": 118, "channel": 0}, {"type": "note_off", "time": 104, "note": 70, "velocity": 118, "channel": 0}, {"type": "note_on", "time": 0, "note": 69, "velocity": 112, "channel": 0}, {"type": "note_off", "time": 75, "note": 69, "velocity": 112, "channel": 0}, {"type": "note_on", "time": 0, "note": 67, "velocity": 112, "channel": 0}, {"type": "note_on", "time": 91, "note": 68, "velocity": 109, "channel": 0}, {"type": "note_off", "time": 0, "note": 67, "velocity": 112, "channel": 0}, {"type": "note_off", "time": 92, "note": 68, "velocity": 109, "channel": 0}, {"type": "note_on", "time": 0, "note": 66, "velocity": 107, "channel": 0}, {"type": "note_off", "time": 92, "note": 66, "velocity": 107, "channel": 0}, {"type": "note_on", "time": 0, "note": 65, "velocity": 103, "channel": 0}, {"type": "note_off", "time": 95, "note": 65, "velocity": 103, "channel": 0}, {"type": "note_on", "time": 2, "note": 63, "velocity": 124, "channel": 0}, {"type": "note_off", "time": 104, "note": 63, "velocity": 124, "channel": 0}, {"type": "note_on", "time": 2, "note": 60, "velocity": 113, "channel": 0}, {"type": "note_off", "time": 84, "note": 60, "velocity": 113, "channel": 0}, {"type": "note_on", "time": 0, "note": 61, "velocity": 116, "channel": 0}, {"type": "note_off", "time": 87, "note": 61, "velocity": 116, "channel": 0}, {"type": "note_on", "time": 1, "note": 62, "velocity": 121, "channel": 0}, {"type": "note_off", "time": 105, "note": 62, "velocity": 121, "channel": 0}, {"type": "note_on", "time": 3, "note": 61, "velocity": 122, "channel": 0}, {"type": "note_off", "time": 108, "note": 61, "velocity": 122, "channel": 0}, {"type": "note_on", "time": 3, "note": 60, "velocity": 111, "channel": 0}, {"type": "note_off", "time": 69, "note": 60, "velocity": 111, "channel": 0}, {"type": "note_on", "time": 0, "note": 59, "velocity": 113, "channel": 0}, {"type": "note_off", "time": 103, "note": 59, "velocity": 113, "channel": 0}, {"type": "note_on", "time": 5, "note": 58, "velocity": 104, "channel": 0}, {"type": "note_off", "time": 108, "note": 58, "velocity": 104, "channel": 0}, {"type": "note_on", "time": 5, "note": 56, "velocity": 109, "channel": 0}, {"type": "note_off", "time": 92, "note": 56, "velocity": 109, "channel": 0}, {"type": "note_on", "time": 0, "note": 57, "velocity": 96, "channel": 0}, {"type": "note_off", "time": 315, "note": 57, "velocity": 96, "channel": 0}, {"type": "note_on", "time": 52, "note": 62, "velocity": 109, "channel": 0}, {"type": "note_off", "time": 399, "note": 62, "velocity": 109, "channel": 0}, {"type": "note_on", "time": 1, "note": 58, "velocity": 111, "channel": 0}, {"type": "note_off", "time": 262, "note": 58, "velocity": 111, "channel": 0}, {"type": "note_on", "time": 2, "note": 63, "velocity": 118, "channel": 0}, {"type": "note_off", "time": 214, "note": 63, "velocity": 118, "channel": 0}, {"type": "note_on", "time": 20, "note": 56, "velocity": 115, "channel": 0}, {"type": "note_off", "time": 134, "note": 56, "velocity": 115, "channel": 0}, {"type": "note_on", "time": 476, "note": 54, "velocity": 116, "channel": 0}, {"type": "note_off", "time": 99, "note": 54, "velocity": 116, "channel": 0}, {"type": "note_on", "time": 1, "note": 55, "velocity": 112, "channel": 0}, {"type": "note_off", "time": 93, "note": 55, "velocity": 112, "channel": 0}, {"type": "note_on", "time": 413, "note": 56, "velocity": 120, "channel": 0}, {"type": "note_off", "time": 120, "note": 56, "velocity": 120, "channel": 0}, {"type": "note_on", "time": 1, "note": 57, "velocity": 114, "channel": 0}, {"type": "note_off", "time": 79, "note": 57, "velocity": 114, "channel": 0}, {"type": "note_on", "time": 61, "note": 58, "velocity": 113, "channel": 0}, {"type": "note_off", "time": 88, "note": 58, "velocity": 113, "channel": 0}, {"type": "note_on", "time": 0, "note": 59, "velocity": 107, "channel": 0}, {"type": "note_off", "time": 107, "note": 59, "velocity": 107, "channel": 0}, {"type": "note_on", "time": 1, "note": 60, "velocity": 116, "channel": 0}, {"type": "note_off", "time": 101, "note": 60, "velocity": 116, "channel": 0}, {"type": "note_on", "time": 0, "note": 61, "velocity": 118, "channel": 0}, {"type": "note_off", "time": 86, "note": 61, "velocity": 118, "channel": 0}, {"type": "note_on", "time": 0, "note": 62, "velocity": 113, "channel": 0}, {"type": "note_off", "time": 84, "note": 62, "velocity": 113, "channel": 0}, {"type": "note_on", "time": 2, "note": 63, "velocity": 117, "channel": 0}, {"type": "note_off", "time": 93, "note": 63, "velocity": 117, "channel": 0}, {"type": "note_on", "time": 6, "note": 61, "velocity": 117, "channel": 0}, {"type": "note_off", "time": 92, "note": 61, "velocity": 117, "channel": 0}, {"type": "note_on", "time": 0, "note": 62, "velocity": 120, "channel": 0}, {"type": "note_off", "time": 104, "note": 62, "velocity": 120, "channel": 0}, {"type": "note_on", "time": 5, "note": 61, "velocity": 119, "channel": 0}, {"type": "note_off", "time": 96, "note": 61, "velocity": 119, "channel": 0}, {"type": "note_on", "time": 3, "note": 60, "velocity": 116, "channel": 0}, {"type": "note_off", "time": 74, "note": 60, "velocity": 116, "channel": 0}, {"type": "note_on", "time": 2, "note": 59, "velocity": 114, "channel": 0}, {"type": "note_off", "time": 104, "note": 59, "velocity": 114, "channel": 0}, {"type": "note_on", "time": 10, "note": 58, "velocity": 109, "channel": 0}, {"type": "note_off", "time": 87, "note": 58, "velocity": 109, "channel": 0}, {"type": "note_on", "time": 3, "note": 56, "velocity": 112, "channel": 0}, {"type": "note_off", "time": 90, "note": 56, "velocity": 112, "channel": 0}, {"type": "note_on", "time": 3, "note": 55, "velocity": 107, "channel": 0}, {"type": "note_off", "time": 93, "note": 55, "velocity": 107, "channel": 0}, {"type": "note_on", "time": 1, "note": 57, "velocity": 103, "channel": 0}, {"type": "note_off", "time": 92, "note": 57, "velocity": 103, "channel": 0}, {"type": "note_on", "time": 2, "note": 58, "velocity": 113, "channel": 0}, {"type": "note_off", "time": 84, "note": 58, "velocity": 113, "channel": 0}, {"type": "note_on", "time": 5, "note": 60, "velocity": 115, "channel": 0}, {"type": "note_off", "time": 110, "note": 60, "velocity": 115, "channel": 0}, {"type": "note_on", "time": 7, "note": 62, "velocity": 104, "channel": 0}, {"type": "note_off", "time": 91, "note": 62, "velocity": 104, "channel": 0}, {"type": "note_on", "time": 3, "note": 65, "velocity": 100, "channel": 0}, {"type": "note_off", "time": 80, "note": 65, "velocity": 100, "channel": 0}, {"type": "note_on", "time": 2, "note": 69, "velocity": 116, "channel": 0}, {"type": "note_off", "time": 92, "note": 69, "velocity": 116, "channel": 0}, {"type": "note_on", "time": 3, "note": 65, "velocity": 112, "channel": 0}, {"type": "note_off", "time": 88, "note": 65, "velocity": 112, "channel": 0}, {"type": "note_on", "time": 11, "note": 62, "velocity": 114, "channel": 0}, {"type": "note_off", "time": 95, "note": 62, "velocity": 114, "channel": 0}, {"type": "note_on", "time": 0, "note": 60, "velocity": 107, "channel": 0}, {"type": "note_off", "time": 76, "note": 60, "velocity": 107, "channel": 0}, {"type": "note_on", "time": 0, "note": 70, "velocity": 109, "channel": 0}, {"type": "note_off", "time": 97, "note": 70, "velocity": 109, "channel": 0}, {"type": "note_on", "time": 3, "note": 66, "velocity": 105, "channel": 0}, {"type": "note_off", "time": 87, "note": 66, "velocity": 105, "channel": 0}, {"type": "note_on", "time": 7, "note": 63, "velocity": 115, "channel": 0}, {"type": "note_off", "time": 90, "note": 63, "velocity": 115, "channel": 0}, {"type": "note_on", "time": 15, "note": 59, "velocity": 100, "channel": 0}, {"type": "note_off", "time": 278, "note": 59, "velocity": 100, "channel": 0}, {"type": "note_on", "time": 900, "note": 72, "velocity": 112, "channel": 0}, {"type": "note_off", "time": 131, "note": 72, "velocity": 112, "channel": 0}, {"type": "note_on", "time": 0, "note": 69, "velocity": 99, "channel": 0}, {"type": "note_off", "time": 109, "note": 69, "velocity": 99, "channel": 0}, {"type": "note_on", "time": 0, "note": 65, "velocity": 98, "channel": 0}, {"type": "note_off", "time": 75, "note": 65, "velocity": 98, "channel": 0}, {"type": "note_on", "time": 1, "note": 62, "velocity": 106, "channel": 0}, {"type": "note_off", "time": 82, "note": 62, "velocity": 106, "channel": 0}, {"type": "note_on", "time": 0, "note": 74, "velocity": 111, "channel": 0}, {"type": "note_off", "time": 251, "note": 74, "velocity": 111, "channel": 0}, {"type": "note_on", "time": 13, "note": 69, "velocity": 119, "channel": 0}, {"type": "note_off", "time": 100, "note": 69, "velocity": 119, "channel": 0}, {"type": "note_on", "time": 5, "note": 67, "velocity": 107, "channel": 0}, {"type": "note_off", "time": 95, "note": 67, "velocity": 107, "channel": 0}, {"type": "note_on", "time": 7, "note": 64, "velocity": 103, "channel": 0}, {"type": "note_off", "time": 53, "note": 64, "velocity": 103, "channel": 0}, {"type": "note_on", "time": 579, "note": 72, "velocity": 112, "channel": 0}, {"type": "note_off", "time": 131, "note": 72, "velocity": 112, "channel": 0}, {"type": "note_on", "time": 9, "note": 69, "velocity": 108, "channel": 0}, {"type": "note_off", "time": 83, "note": 69, "velocity": 108, "channel": 0}, {"type": "note_on", "time": 5, "note": 65, "velocity": 103, "channel": 0}, {"type": "note_off", "time": 86, "note": 65, "velocity": 103, "channel": 0}, {"type": "note_on", "time": 6, "note": 62, "velocity": 101, "channel": 0}, {"type": "note_off", "time": 87, "note": 62, "velocity": 101, "channel": 0}, {"type": "note_on", "time": 0, "note": 70, "velocity": 113, "channel": 0}, {"type": "note_off", "time": 114, "note": 70, "velocity": 113, "channel": 0}, {"type": "note_on", "time": 2, "note": 67, "velocity": 107, "channel": 0}, {"type": "note_off", "time": 100, "note": 67, "velocity": 107, "channel": 0}, {"type": "note_on", "time": 3, "note": 63, "velocity": 115, "channel": 0}, {"type": "note_off", "time": 67, "note": 63, "velocity": 115, "channel": 0}, {"type": "note_on", "time": 3, "note": 60, "velocity": 105, "channel": 0}, {"type": "note_off", "time": 62, "note": 60, "velocity": 105, "channel": 0}, {"type": "note_on", "time": 35, "note": 58, "velocity": 107, "channel": 0}, {"type": "note_off", "time": 93, "note": 58, "velocity": 107, "channel": 0}, {"type": "note_on", "time": 1, "note": 57, "velocity": 104, "channel": 0}, {"type": "note_off", "time": 88, "note": 57, "velocity": 104, "channel": 0}, {"type": "note_on", "time": 0, "note": 56, "velocity": 110, "channel": 0}, {"type": "note_off", "time": 65, "note": 56, "velocity": 110, "channel": 0}, {"type": "note_on", "time": 0, "note": 61, "velocity": 124, "channel": 0}, {"type": "note_off", "time": 133, "note": 61, "velocity": 124, "channel": 0}, {"type": "note_on", "time": 5, "note": 55, "velocity": 109, "channel": 0}, {"type": "note_off", "time": 67, "note": 55, "velocity": 109, "channel": 0}, {"type": "note_on", "time": 6, "note": 53, "velocity": 102, "channel": 0}, {"type": "note_off", "time": 70, "note": 53, "velocity": 102, "channel": 0}, {"type": "note_on", "time": 9, "note": 58, "velocity": 114, "channel": 0}, {"type": "note_off", "time": 88, "note": 58, "velocity": 114, "channel": 0}, {"type": "note_on", "time": 7, "note": 54, "velocity": 110, "channel": 0}, {"type": "note_off", "time": 90, "note": 54, "velocity": 110, "channel": 0}, {"type": "note_on", "time": 2, "note": 57, "velocity": 108, "channel": 0}, {"type": "note_off", "time": 82, "note": 57, "velocity": 108, "channel": 0}, {"type": "note_on", "time": 7, "note": 54, "velocity": 105, "channel": 0}, {"type": "note_off", "time": 60, "note": 54, "velocity": 105, "channel": 0}, {"type": "note_on", "time": 39, "note": 55, "velocity": 108, "channel": 0}, {"type": "note_off", "time": 86, "note": 55, "velocity": 108, "channel": 0}, {"type": "note_on", "time": 7, "note": 57, "velocity": 99, "channel": 0}, {"type": "note_off", "time": 90, "note": 57, "velocity": 99, "channel": 0}, {"type": "note_on", "time": 3, "note": 58, "velocity": 109, "channel": 0}, {"type": "note_off", "time": 96, "note": 58, "velocity": 109, "channel": 0}, {"type": "note_on", "time": 0, "note": 60, "velocity": 116, "channel": 0}, {"type": "note_off", "time": 120, "note": 60, "velocity": 116, "channel": 0}, {"type": "note_on", "time": 6, "note": 61, "velocity": 113, "channel": 0}, {"type": "note_off", "time": 99, "note": 61, "velocity": 113, "channel": 0}, {"type": "note_on", "time": 3, "note": 65, "velocity": 103, "channel": 0}, {"type": "note_off", "time": 73, "note": 65, "velocity": 103, "channel": 0}, {"type": "note_on", "time": 0, "note": 69, "velocity": 116, "channel": 0}, {"type": "note_off", "time": 88, "note": 69, "velocity": 116, "channel": 0}, {"type": "note_on", "time": 3, "note": 67, "velocity": 110, "channel": 0}, {"type": "note_off", "time": 113, "note": 67, "velocity": 110, "channel": 0}, {"type": "note_on", "time": 3, "note": 65, "velocity": 110, "channel": 0}, {"type": "note_off", "time": 62, "note": 65, "velocity": 110, "channel": 0}, {"type": "note_on", "time": 0, "note": 61, "velocity": 116, "channel": 0}, {"type": "note_off", "time": 73, "note": 61, "velocity": 116, "channel": 0}, {"type": "note_on", "time": 28, "note": 60, "velocity": 98, "channel": 0}, {"type": "note_off", "time": 191, "note": 60, "velocity": 98, "channel": 0}, {"type": "note_on", "time": 1337, "note": 62, "velocity": 103, "channel": 0}, {"type": "note_off", "time": 730, "note": 62, "velocity": 103, "channel": 0}, {"type": "note_on", "time": 398, "note": 63, "velocity": 124, "channel": 0}, {"type": "note_off", "time": 131, "note": 63, "velocity": 124, "channel": 0}, {"type": "note_on", "time": 2, "note": 64, "velocity": 112, "channel": 0}, {"type": "note_off", "time": 110, "note": 64, "velocity": 112, "channel": 0}, {"type": "note_on", "time": 3, "note": 65, "velocity": 104, "channel": 0}, {"type": "note_off", "time": 110, "note": 65, "velocity": 104, "channel": 0}, {"type": "note_on", "time": 433, "note": 61, "velocity": 123, "channel": 0}, {"type": "note_off", "time": 107, "note": 61, "velocity": 123, "channel": 0}, {"type": "note_on", "time": 1, "note": 62, "velocity": 122, "channel": 0}, {"type": "note_off", "time": 91, "note": 62, "velocity": 122, "channel": 0}, {"type": "note_on", "time": 0, "note": 63, "velocity": 112, "channel": 0}, {"type": "note_off", "time": 120, "note": 63, "velocity": 112, "channel": 0}, {"type": "note_on", "time": 69, "note": 60, "velocity": 118, "channel": 0}, {"type": "note_off", "time": 100, "note": 60, "velocity": 118, "channel": 0}, {"type": "note_on", "time": 0, "note": 61, "velocity": 113, "channel": 0}, {"type": "note_off", "time": 83, "note": 61, "velocity": 113, "channel": 0}, {"type": "note_on", "time": 1, "note": 62, "velocity": 112, "channel": 0}, {"type": "note_off", "time": 137, "note": 62, "velocity": 112, "channel": 0}, {"type": "note_on", "time": 45, "note": 59, "velocity": 114, "channel": 0}, {"type": "note_off", "time": 97, "note": 59, "velocity": 114, "channel": 0}, {"type": "note_on", "time": 0, "note": 60, "velocity": 111, "channel": 0}, {"type": "note_off", "time": 90, "note": 60, "velocity": 111, "channel": 0}, {"type": "note_on", "time": 0, "note": 61, "velocity": 117, "channel": 0}, {"type": "note_off", "time": 118, "note": 61, "velocity": 117, "channel": 0}, {"type": "note_on", "time": 456, "note": 62, "velocity": 124, "channel": 0}, {"type": "note_off", "time": 122, "note": 62, "velocity": 124, "channel": 0}, {"type": "note_on", "time": 0, "note": 59, "velocity": 106, "channel": 0}, {"type": "note_on", "time": 80, "note": 60, "velocity": 110, "channel": 0}, {"type": "note_off", "time": 0, "note": 59, "velocity": 106, "channel": 0}, {"type": "note_off", "time": 92, "note": 60, "velocity": 110, "channel": 0}, {"type": "note_on", "time": 1, "note": 62, "velocity": 115, "channel": 0}, {"type": "note_off", "time": 105, "note": 62, "velocity": 115, "channel": 0}, {"type": "note_on", "time": 1, "note": 63, "velocity": 114, "channel": 0}, {"type": "note_off", "time": 80, "note": 63, "velocity": 114, "channel": 0}, {"type": "note_on", "time": 0, "note": 65, "velocity": 113, "channel": 0}, {"type": "note_off", "time": 108, "note": 65, "velocity": 113, "channel": 0}, {"type": "note_on", "time": 0, "note": 66, "velocity": 101, "channel": 0}, {"type": "note_off", "time": 114, "note": 66, "velocity": 101, "channel": 0}, {"type": "note_on", "time": 79, "note": 74, "velocity": 117, "channel": 0}, {"type": "note_off", "time": 87, "note": 74, "velocity": 117, "channel": 0}, {"type": "note_on", "time": 2, "note": 75, "velocity": 120, "channel": 0}, {"type": "note_off", "time": 99, "note": 75, "velocity": 120, "channel": 0}, {"type": "note_on", "time": 0, "note": 74, "velocity": 111, "channel": 0}, {"type": "note_off", "time": 67, "note": 74, "velocity": 111, "channel": 0}, {"type": "note_on", "time": 0, "note": 73, "velocity": 100, "channel": 0}, {"type": "note_off", "time": 101, "note": 73, "velocity": 100, "channel": 0}, {"type": "note_on", "time": 0, "note": 72, "velocity": 98, "channel": 0}, {"type": "note_off", "time": 83, "note": 72, "velocity": 98, "channel": 0}, {"type": "note_on", "time": 0, "note": 70, "velocity": 113, "channel": 0}, {"type": "note_off", "time": 105, "note": 70, "velocity": 113, "channel": 0}, {"type": "note_on", "time": 10, "note": 69, "velocity": 108, "channel": 0}, {"type": "note_off", "time": 71, "note": 69, "velocity": 108, "channel": 0}, {"type": "note_on", "time": 2, "note": 67, "velocity": 101, "channel": 0}, {"type": "note_off", "time": 90, "note": 67, "velocity": 101, "channel": 0}, {"type": "note_on", "time": 7, "note": 70, "velocity": 109, "channel": 0}, {"type": "note_off", "time": 114, "note": 70, "velocity": 109, "channel": 0}, {"type": "note_on", "time": 9, "note": 62, "velocity": 102, "channel": 0}, {"type": "note_off", "time": 65, "note": 62, "velocity": 102, "channel": 0}, {"type": "note_on", "time": 7, "note": 69, "velocity": 111, "channel": 0}, {"type": "note_off", "time": 157, "note": 69, "velocity": 111, "channel": 0}, {"type": "note_on", "time": 165, "note": 69, "velocity": 117, "channel": 0}, {"type": "note_off", "time": 140, "note": 69, "velocity": 117, "channel": 0}, {"type": "note_on", "time": 2, "note": 70, "velocity": 111, "channel": 0}, {"type": "note_off", "time": 88, "note": 70, "velocity": 111, "channel": 0}, {"type": "note_on", "time": 0, "note": 69, "velocity": 105, "channel": 0}, {"type": "note_off", "time": 76, "note": 69, "velocity": 105, "channel": 0}, {"type": "note_on", "time": 1, "note": 68, "velocity": 108, "channel": 0}, {"type": "note_off", "time": 100, "note": 68, "velocity": 108, "channel": 0}, {"type": "note_on", "time": 5, "note": 67, "velocity": 100, "channel": 0}, {"type": "note_off", "time": 92, "note": 67, "velocity": 100, "channel": 0}, {"type": "note_on", "time": 1, "note": 66, "velocity": 109, "channel": 0}, {"type": "note_off", "time": 107, "note": 66, "velocity": 109, "channel": 0}, {"type": "note_on", "time": 5, "note": 65, "velocity": 107, "channel": 0}, {"type": "note_off", "time": 67, "note": 65, "velocity": 107, "channel": 0}, {"type": "note_on", "time": 7, "note": 64, "velocity": 110, "channel": 0}, {"type": "note_off", "time": 91, "note": 64, "velocity": 110, "channel": 0}, {"type": "note_on", "time": 0, "note": 63, "velocity": 114, "channel": 0}, {"type": "note_off", "time": 91, "note": 63, "velocity": 114, "channel": 0}, {"type": "note_on", "time": 2, "note": 61, "velocity": 119, "channel": 0}, {"type": "note_off", "time": 113, "note": 61, "velocity": 119, "channel": 0}, {"type": "note_on", "time": 3, "note": 60, "velocity": 97, "channel": 0}, {"type": "note_off", "time": 74, "note": 60, "velocity": 97, "channel": 0}, {"type": "note_on", "time": 7, "note": 58, "velocity": 114, "channel": 0}, {"type": "note_off", "time": 110, "note": 58, "velocity": 114, "channel": 0}, {"type": "note_on", "time": 6, "note": 57, "velocity": 108, "channel": 0}, {"type": "note_off", "time": 90, "note": 57, "velocity": 108, "channel": 0}, {"type": "note_on", "time": 6, "note": 55, "velocity": 107, "channel": 0}, {"type": "note_off", "time": 99, "note": 55, "velocity": 107, "channel": 0}, {"type": "note_on", "time": 2, "note": 54, "velocity": 100, "channel": 0}, {"type": "note_off", "time": 138, "note": 54, "velocity": 100, "channel": 0}, {"type": "note_on", "time": 36, "note": 54, "velocity": 111, "channel": 0}, {"type": "note_off", "time": 93, "note": 54, "velocity": 111, "channel": 0}, {"type": "note_on", "time": 2, "note": 57, "velocity": 104, "channel": 0}, {"type": "note_off", "time": 99, "note": 57, "velocity": 104, "channel": 0}, {"type": "note_on", "time": 10, "note": 55, "velocity": 104, "channel": 0}, {"type": "note_off", "time": 74, "note": 55, "velocity": 104, "channel": 0}, {"type": "note_on", "time": 690, "note": 58, "velocity": 113, "channel": 0}, {"type": "note_off", "time": 112, "note": 58, "velocity": 113, "channel": 0}, {"type": "note_on", "time": 9, "note": 54, "velocity": 107, "channel": 0}, {"type": "note_off", "time": 48, "note": 54, "velocity": 107, "channel": 0}, {"type": "note_on", "time": 4, "note": 57, "velocity": 108, "channel": 0}, {"type": "note_off", "time": 100, "note": 57, "velocity": 108, "channel": 0}, {"type": "note_on", "time": 25, "note": 54, "velocity": 108, "channel": 0}, {"type": "note_off", "time": 74, "note": 54, "velocity": 108, "channel": 0}, {"type": "note_on", "time": 2, "note": 55, "velocity": 109, "channel": 0}, {"type": "note_off", "time": 96, "note": 55, "velocity": 109, "channel": 0}, {"type": "note_on", "time": 1, "note": 57, "velocity": 103, "channel": 0}, {"type": "note_off", "time": 89, "note": 57, "velocity": 103, "channel": 0}, {"type": "note_on", "time": 2, "note": 58, "velocity": 105, "channel": 0}, {"type": "note_off", "time": 101, "note": 58, "velocity": 105, "channel": 0}, {"type": "note_on", "time": 3, "note": 60, "velocity": 106, "channel": 0}, {"type": "note_off", "time": 70, "note": 60, "velocity": 106, "channel": 0}, {"type": "note_on", "time": 5, "note": 62, "velocity": 112, "channel": 0}, {"type": "note_off", "time": 82, "note": 62, "velocity": 112, "channel": 0}, {"type": "note_on", "time": 4, "note": 65, "velocity": 109, "channel": 0}, {"type": "note_off", "time": 100, "note": 65, "velocity": 109, "channel": 0}, {"type": "note_on", "time": 1, "note": 69, "velocity": 108, "channel": 0}, {"type": "note_off", "time": 137, "note": 69, "velocity": 108, "channel": 0}, {"type": "note_on", "time": 822, "note": 70, "velocity": 116, "channel": 0}, {"type": "note_off", "time": 119, "note": 70, "velocity": 116, "channel": 0}, {"type": "note_on", "time": 5, "note": 66, "velocity": 100, "channel": 0}, {"type": "note_off", "time": 50, "note": 66, "velocity": 100, "channel": 0}, {"type": "note_on", "time": 3, "note": 69, "velocity": 116, "channel": 0}, {"type": "note_off", "time": 102, "note": 69, "velocity": 116, "channel": 0}, {"type": "note_on", "time": 1, "note": 68, "velocity": 110, "channel": 0}, {"type": "note_off", "time": 116, "note": 68, "velocity": 110, "channel": 0}, {"type": "note_on", "time": 3, "note": 67, "velocity": 108, "channel": 0}, {"type": "note_off", "time": 72, "note": 67, "velocity": 108, "channel": 0}, {"type": "note_on", "time": 4, "note": 65, "velocity": 114, "channel": 0}, {"type": "note_on", "time": 111, "note": 63, "velocity": 108, "channel": 0}, {"type": "note_off", "time": 0, "note": 65, "velocity": 114, "channel": 0}, {"type": "note_off", "time": 89, "note": 63, "velocity": 108, "channel": 0}, {"type": "note_on", "time": 0, "note": 61, "velocity": 118, "channel": 0}, {"type": "note_off", "time": 90, "note": 61, "velocity": 118, "channel": 0}, {"type": "note_on", "time": 3, "note": 62, "velocity": 108, "channel": 0}, {"type": "note_off", "time": 255, "note": 62, "velocity": 108, "channel": 0}, {"type": "note_on", "time": 1, "note": 72, "velocity": 103, "channel": 0}, {"type": "note_off", "time": 194, "note": 72, "velocity": 103, "channel": 0}, {"type": "note_on", "time": 17, "note": 62, "velocity": 106, "channel": 0}, {"type": "note_off", "time": 66, "note": 62, "velocity": 106, "channel": 0}, {"type": "note_on", "time": 5, "note": 60, "velocity": 107, "channel": 0}, {"type": "note_off", "time": 257, "note": 60, "velocity": 107, "channel": 0}, {"type": "note_on", "time": 61, "note": 70, "velocity": 108, "channel": 0}, {"type": "note_off", "time": 181, "note": 70, "velocity": 108, "channel": 0}, {"type": "note_on", "time": 35, "note": 60, "velocity": 95, "channel": 0}, {"type": "note_off", "time": 50, "note": 60, "velocity": 95, "channel": 0}, {"type": "note_on", "time": 2, "note": 58, "velocity": 104, "channel": 0}, {"type": "note_off", "time": 164, "note": 58, "velocity": 104, "channel": 0}, {"type": "end_of_track", "time": 0}]]}