{"ticks_per_beat": 192, "tracks": [[{"type": "track_name", "name": "Melody", "time": 0}, {"type": "set_tempo", "tempo": 285714, "time": 0}, {"type": "key_signature", "key": "Bb", "time": 0}, {"type": "time_signature", "numerator": 4, "denominator": 4, "clocks_per_click": 24, "notated_32nd_notes_per_beat": 8, "time": 0}, {"type": "note_on", "time": 2798, "note": 65, "velocity": 118, "channel": 0}, {"type": "note_off", "time": 97, "note": 65, "velocity": 118, "channel": 0}, {"type": "note_on", "time": 7, "note": 67, "velocity": 122, "channel": 0}, {"type": "note_off", "time": 62, "note": 67, "velocity": 122, "channel": 0}, {"type": "note_on", "time": 46, "note": 69, "velocity": 124, "channel": 0}, {"type": "note_off", "time": 101, "note": 69, "velocity": 124, "channel": 0}, {"type": "note_on", "time": 24, "note": 67, "velocity": 115, "channel": 0}, {"type": "note_off", "time": 79, "note": 67, "velocity": 115, "channel": 0}, {"type": "note_on", "time": 8, "note": 70, "velocity": 121, "channel": 0}, {"type": "note_off", "time": 171, "note": 70, "velocity": 121, "channel": 0}, {"type": "note_on", "time": 0, "note": 67, "velocity": 120, "channel": 0}, {"type": "note_off", "time": 132, "note": 67, "velocity": 120, "channel": 0}, {"type": "note_on", "time": 3, "note": 69, "velocity": 121, "channel": 0}, {"type": "note_off", "time": 132, "note": 69, "velocity": 121, "channel": 0}, {"type": "note_on", "time": 31, "note": 65, "velocity": 109, "channel": 0}, {"type": "note_off", "time": 85, "note": 65, "velocity": 109, "channel": 0}, {"type": "note_on", "time": 23, "note": 67, "velocity": 119, "channel": 0}, {"type": "note_off", "time": 113, "note": 67, "velocity": 119, "channel": 0}, {"type": "note_on", "time": 27, "note": 65, "velocity": 114, "channel": 0}, {"type": "note_off", "time": 128, "note": 65, "velocity": 114, "channel": 0}, {"type": "note_on", "time": 15, "note": 64, "velocity": 119, "channel": 0}, {"type": "note_off", "time": 70, "note": 64, "velocity": 119, "channel": 0}, {"type": "note_on", "time": 19, "note": 63, "velocity": 113, "channel": 0}, {"type": "note_off", "time": 93, "note": 63, "velocity": 113, "channel": 0}, {"type": "note_on", "time": 15, "note": 62, "velocity": 112, "channel": 0}, {"type": "note_off", "time": 109, "note": 62, "velocity": 112, "channel": 0}, {"type": "note_on", "time": 93, "note": 62, "velocity": 115, "channel": 0}, {"type": "note_off", "time": 97, "note": 62, "velocity": 115, "channel": 0}, {"type": "note_on", "time": 74, "note": 55, "velocity": 100, "channel": 0}, {"type": "note_off", "time": 234, "note": 55, "velocity": 100, "channel": 0}, {"type": "note_on", "time": 11, "note": 62, "velocity": 112, "channel": 0}, {"type": "note_off", "time": 136, "note": 62, "velocity": 112, "channel": 0}, {"type": "note_on", "time": 46, "note": 62, "velocity": 114, "channel": 0}, {"type": "note_off", "time": 81, "note": 62, "velocity": 114, "channel": 0}, {"type": "note_on", "time": 89, "note": 62, "velocity": 104, "channel": 0}, {"type": "note_off", "time": 393, "note": 62, "velocity": 104, "channel": 0}, {"type": "note_on", "time": 393, "note": 59, "velocity": 113, "channel": 0}, {"type": "note_off", "time": 137, "note": 59, "velocity": 113, "channel": 0}, {"type": "note_on", "time": 23, "note": 62, "velocity": 122, "channel": 0}, {"type": "note_off", "time": 171, "note": 62, "velocity": 122, "channel": 0}, {"type": "note_on", "time": 70, "note": 62, "velocity": 117, "channel": 0}, {"type": "note_off", "time": 120, "note": 62, "velocity": 117, "channel": 0}, {"type": "note_on", "time": 39, "note": 63, "velocity": 118, "channel": 0}, {"type": "note_off", "time": 85, "note": 63, "velocity": 118, "channel": 0}, {"type": "note_on", "time": 15, "note": 62, "velocity": 119, "channel": 0}, {"type": "note_off", "time": 85, "note": 62, "velocity": 119, "channel": 0}, {"type": "note_on", "time": 11, "note": 60, "velocity": 109, "channel": 0}, {"type": "note_off", "time": 74, "note": 60, "velocity": 109, "channel": 0}, {"type": "note_on", "time": 7, "note": 58, "velocity": 115, "channel": 0}, {"type": "note_off", "time": 136, "note": 58, "velocity": 115, "channel": 0}, {"type": "note_on", "time": 31, "note": 55, "velocity": 105, "channel": 0}, {"type": "note_off", "time": 191, "note": 55, "velocity": 105, "channel": 0}, {"type": "note_on", "time": 245, "note": 67, "velocity": 124, "channel": 0}, {"type": "note_off", "time": 85, "note": 67, "velocity": 124, "channel": 0}, {"type": "note_on", "time": 3, "note": 69, "velocity": 123, "channel": 0}, {"type": "note_off", "time": 81, "note": 69, "velocity": 123, "channel": 0}, {"type": "note_on", "time": 23, "note": 70, "velocity": 123, "channel": 0}, {"type": "note_off", "time": 257, "note": 70, "velocity": 123, "channel": 0}, {"type": "note_on", "time": 7, "note": 69, "velocity": 91, "channel": 0}, {"type": "note_off", "time": 19, "note": 69, "velocity": 91, "channel": 0}, {"type": "note_on", "time": 23, "note": 70, "velocity": 124, "channel": 0}, {"type": "note_off", "time": 62, "note": 70, "velocity": 124, "channel": 0}, {"type": "note_on", "time": 39, "note": 69, "velocity": 122, "channel": 0}, {"type": "note_off", "time": 156, "note": 69, "velocity": 122, "channel": 0}, {"type": "note_on", "time": 0, "note": 67, "velocity": 120, "channel": 0}, {"type": "note_off", "time": 156, "note": 67, "velocity": 120, "channel": 0}, {"type": "note_on", "time": 78, "note": 65, "velocity": 118, "channel": 0}, {"type": "note_off", "time": 81, "note": 65, "velocity": 118, "channel": 0}, {"type": "note_on", "time": 7, "note": 64, "velocity": 117, "channel": 0}, {"type": "note_off", "time": 70, "note": 64, "velocity": 117, "channel": 0}, {"type": "note_on", "time": 23, "note": 63, "velocity": 118, "channel": 0}, {"type": "note_off", "time": 89, "note": 63, "velocity": 118, "channel": 0}, {"type": "note_on", "time": 7, "note": 67, "velocity": 121, "channel": 0}, {"type": "note_off", "time": 70, "note": 67, "velocity": 121, "channel": 0}, {"type": "note_on", "time": 0, "note": 55, "velocity": 111, "channel": 0}, {"type": "note_off", "time": 113, "note": 55, "velocity": 111, "channel": 0}, {"type": "note_on", "time": 7, "note": 56, "velocity": 127, "channel": 0}, {"type": "note_on", "time": 101, "note": 57, "velocity": 114, "channel": 0}, {"type": "note_off", "time": 0, "note": 56, "velocity": 127, "channel": 0}, {"type": "note_off", "time": 74, "note": 57, "velocity": 114, "channel": 0}, {"type": "note_on", "time": 23, "note": 65, "velocity": 112, "channel": 0}, {"type": "note_off", "time": 66, "note": 65, "velocity": 112, "channel": 0}, {"type": "note_on", "time": 23, "note": 62, "velocity": 116, "channel": 0}, {"type": "note_off", "time": 78, "note": 62, "velocity": 116, "channel": 0}, {"type": "note_on", "time": 29, "note": 55, "velocity": 104, "channel": 0}, {"type": "note_off", "time": 60, "note": 55, "velocity": 104, "channel": 0}, {"type": "note_on", "time": 0, "note": 53, "velocity": 110, "channel": 0}, {"type": "note_off", "time": 339, "note": 53, "velocity": 110, "channel": 0}, {"type": "note_on", "time": 23, "note": 58, "velocity": 108, "channel": 0}, {"type": "note_off", "time": 89, "note": 58, "velocity": 108, "channel": 0}, {"type": "note_on", "time": 19, "note": 62, "velocity": 101, "channel": 0}, {"type": "note_off", "time": 97, "note": 62, "velocity": 101, "channel": 0}, {"type": "note_on", "time": 14, "note": 65, "velocity": 115, "channel": 0}, {"type": "note_off", "time": 148, "note": 65, "velocity": 115, "channel": 0}, {"type": "note_on", "time": 24, "note": 62, "velocity": 108, "channel": 0}, {"type": "note_off", "time": 214, "note": 62, "velocity": 108, "channel": 0}, {"type": "note_on", "time": 269, "note": 60, "velocity": 119, "channel": 0}, {"type": "note_off", "time": 120, "note": 60, "velocity": 119, "channel": 0}, {"type": "note_on", "time": 66, "note": 58, "velocity": 113, "channel": 0}, {"type": "note_off", "time": 85, "note": 58, "velocity": 113, "channel": 0}, {"type": "note_on", "time": 27, "note": 55, "velocity": 114, "channel": 0}, {"type": "note_off", "time": 132, "note": 55, "velocity": 114, "channel": 0}, {"type": "note_on", "time": 11, "note": 58, "velocity": 118, "channel": 0}, {"type": "note_off", "time": 120, "note": 58, "velocity": 118, "channel": 0}, {"type": "note_on", "time": 27, "note": 60, "velocity": 116, "channel": 0}, {"type": "note_off", "time": 109, "note": 60, "velocity": 116, "channel": 0}, {"type": "note_on", "time": 15, "note": 58, "velocity": 118, "channel": 0}, {"type": "note_off", "time": 97, "note": 58, "velocity": 118, "channel": 0}, {"type": "note_on", "time": 23, "note": 57, "velocity": 113, "channel": 0}, {"type": "note_off", "time": 323, "note": 57, "velocity": 113, "channel": 0}, {"type": "note_on", "time": 331, "note": 62, "velocity": 121, "channel": 0}, {"type": "note_off", "time": 109, "note": 62, "velocity": 121, "channel": 0}, {"type": "note_on", "time": 0, "note": 60, "velocity": 118, "channel": 0}, {"type": "note_off", "time": 109, "note": 60, "velocity": 118, "channel": 0}, {"type": "note_on", "time": 15, "note": 58, "velocity": 105, "channel": 0}, {"type": "note_off", "time": 93, "note": 58, "velocity": 105, "channel": 0}, {"type": "note_on", "time": 3, "note": 60, "velocity": 118, "channel": 0}, {"type": "note_off", "time": 113, "note": 60, "velocity": 118, "channel": 0}, {"type": "note_on", "time": 19, "note": 58, "velocity": 113, "channel": 0}, {"type": "note_off", "time": 70, "note": 58, "velocity": 113, "channel": 0}, {"type": "note_on", "time": 0, "note": 61, "velocity": 122, "channel": 0}, {"type": "note_off", "time": 101, "note": 61, "velocity": 122, "channel": 0}, {"type": "note_on", "time": 7, "note": 58, "velocity": 109, "channel": 0}, {"type": "note_off", "time": 58, "note": 58, "velocity": 109, "channel": 0}, {"type": "note_on", "time": 7, "note": 61, "velocity": 120, "channel": 0}, {"type": "note_off", "time": 109, "note": 61, "velocity": 120, "channel": 0}, {"type": "note_on", "time": 3, "note": 58, "velocity": 109, "channel": 0}, {"type": "note_off", "time": 78, "note": 58, "velocity": 109, "channel": 0}, {"type": "note_on", "time": 23, "note": 62, "velocity": 121, "channel": 0}, {"type": "note_off", "time": 97, "note": 62, "velocity": 121, "channel": 0}, {"type": "note_on", "time": 11, "note": 65, "velocity": 116, "channel": 0}, {"type": "note_off", "time": 152, "note": 65, "velocity": 116, "channel": 0}, {"type": "note_on", "time": 15, "note": 64, "velocity": 121, "channel": 0}, {"type": "note_off", "time": 81, "note": 64, "velocity": 121, "channel": 0}, {"type": "note_on", "time": 39, "note": 63, "velocity": 116, "channel": 0}, {"type": "note_off", "time": 81, "note": 63, "velocity": 116, "channel": 0}, {"type": "note_on", "time": 179, "note": 62, "velocity": 111, "channel": 0}, {"type": "note_off", "time": 85, "note": 62, "velocity": 111, "channel": 0}, {"type": "note_on", "time": 101, "note": 55, "velocity": 115, "channel": 0}, {"type": "note_off", "time": 97, "note": 55, "velocity": 115, "channel": 0}, {"type": "note_on", "time": 3, "note": 54, "velocity": 115, "channel": 0}, {"type": "note_off", "time": 62, "note": 54, "velocity": 115, "channel": 0}, {"type": "note_on", "time": 19, "note": 55, "velocity": 102, "channel": 0}, {"type": "note_off", "time": 81, "note": 55, "velocity": 102, "channel": 0}, {"type": "note_on", "time": 0, "note": 60, "velocity": 108, "channel": 0}, {"type": "note_off", "time": 54, "note": 60, "velocity": 108, "channel": 0}, {"type": "note_on", "time": 11, "note": 62, "velocity": 113, "channel": 0}, {"type": "note_off", "time": 97, "note": 62, "velocity": 113, "channel": 0}, {"type": "note_on", "time": 7, "note": 53, "velocity": 114, "channel": 0}, {"type": "note_off", "time": 113, "note": 53, "velocity": 114, "channel": 0}, {"type": "note_on", "time": 124, "note": 58, "velocity": 116, "channel": 0}, {"type": "note_off", "time": 120, "note": 58, "velocity": 116, "channel": 0}, {"type": "note_on", "time": 0, "note": 62, "velocity": 117, "channel": 0}, {"type": "note_off", "time": 66, "note": 62, "velocity": 117, "channel": 0}, {"type": "note_on", "time": 15, "note": 65, "velocity": 110, "channel": 0}, {"type": "note_off", "time": 109, "note": 65, "velocity": 110, "channel": 0}, {"type": "note_on", "time": 7, "note": 69, "velocity": 122, "channel": 0}, {"type": "note_off", "time": 132, "note": 69, "velocity": 122, "channel": 0}, {"type": "note_on", "time": 7, "note": 67, "velocity": 124, "channel": 0}, {"type": "note_off", "time": 113, "note": 67, "velocity": 124, "channel": 0}, {"type": "note_on", "time": 39, "note": 66, "velocity": 118, "channel": 0}, {"type": "note_off", "time": 78, "note": 66, "velocity": 118, "channel": 0}, {"type": "note_on", "time": 124, "note": 55, "velocity": 110, "channel": 0}, {"type": "note_off", "time": 81, "note": 55, "velocity": 110, "channel": 0}, {"type": "note_on", "time": 11, "note": 56, "velocity": 115, "channel": 0}, {"type": "note_off", "time": 89, "note": 56, "velocity": 115, "channel": 0}, {"type": "note_on", "time": 11, "note": 58, "velocity": 115, "channel": 0}, {"type": "note_off", "time": 89, "note": 58, "velocity": 115, "channel": 0}, {"type": "note_on", "time": 15, "note": 62, "velocity": 106, "channel": 0}, {"type": "note_off", "time": 171, "note": 62, "velocity": 106, "channel": 0}, {"type": "note_on", "time": 74, "note": 53, "velocity": 119, "channel": 0}, {"type": "note_off", "time": 109, "note": 53, "velocity": 119, "channel": 0}, {"type": "note_on", "time": 0, "note": 58, "velocity": 110, "channel": 0}, {"type": "note_off", "time": 249, "note": 58, "velocity": 110, "channel": 0}, {"type": "note_on", "time": 378, "note": 67, "velocity": 125, "channel": 0}, {"type": "note_off", "time": 85, "note": 67, "velocity": 125, "channel": 0}, {"type": "note_on", "time": 31, "note": 67, "velocity": 124, "channel": 0}, {"type": "note_off", "time": 70, "note": 67, "velocity": 124, "channel": 0}, {"type": "note_on", "time": 18, "note": 67, "velocity": 124, "channel": 0}, {"type": "note_off", "time": 82, "note": 67, "velocity": 124, "channel": 0}, {"type": "note_on", "time": 16, "note": 67, "velocity": 120, "channel": 0}, {"type": "note_off", "time": 81, "note": 67, "velocity": 120, "channel": 0}, {"type": "note_on", "time": 14, "note": 67, "velocity": 126, "channel": 0}, {"type": "note_off", "time": 79, "note": 67, "velocity": 126, "channel": 0}, {"type": "note_on", "time": 11, "note": 67, "velocity": 120, "channel": 0}, {"type": "note_off", "time": 66, "note": 67, "velocity": 120, "channel": 0}, {"type": "note_on", "time": 18, "note": 67, "velocity": 120, "channel": 0}, {"type": "note_off", "time": 85, "note": 67, "velocity": 120, "channel": 0}, {"type": "note_on", "time": 21, "note": 67, "velocity": 123, "channel": 0}, {"type": "note_off", "time": 81, "note": 67, "velocity": 123, "channel": 0}, {"type": "note_on", "time": 39, "note": 67, "velocity": 122, "channel": 0}, {"type": "note_off", "time": 85, "note": 67, "velocity": 122, "channel": 0}, {"type": "note_on", "time": 27, "note": 67, "velocity": 121, "channel": 0}, {"type": "note_off", "time": 62, "note": 67, "velocity": 121, "channel": 0}, {"type": "note_on", "time": 16, "note": 67, "velocity": 123, "channel": 0}, {"type": "note_off", "time": 74, "note": 67, "velocity": 123, "channel": 0}, {"type": "note_on", "time": 13, "note": 67, "velocity": 118, "channel": 0}, {"type": "note_off", "time": 82, "note": 67, "velocity": 118, "channel": 0}, {"type": "note_on", "time": 0, "note": 69, "velocity": 123, "channel": 0}, {"type": "note_off", "time": 222, "note": 69, "velocity": 123, "channel": 0}, {"type": "note_on", "time": 4, "note": 67, "velocity": 122, "channel": 0}, {"type": "note_off", "time": 101, "note": 67, "velocity": 122, "channel": 0}, {"type": "note_on", "time": 0, "note": 69, "velocity": 121, "channel": 0}, {"type": "note_off", "time": 60, "note": 69, "velocity": 121, "channel": 0}, {"type": "note_on", "time": 16, "note": 67, "velocity": 116, "channel": 0}, {"type": "note_off", "time": 101, "note": 67, "velocity": 116, "channel": 0}, {"type": "note_on", "time": 16, "note": 62, "velocity": 116, "channel": 0}, {"type": "note_off", "time": 98, "note": 62, "velocity": 116, "channel": 0}, {"type": "note_on", "time": 0, "note": 61, "velocity": 110, "channel": 0}, {"type": "note_off", "time": 98, "note": 61, "velocity": 110, "channel": 0}, {"type": "note_on", "time": 13, "note": 60, "velocity": 107, "channel": 0}, {"type": "note_off", "time": 205, "note": 60, "velocity": 107, "channel": 0}, {"type": "note_on", "time": 71, "note": 61, "velocity": 114, "channel": 0}, {"type": "note_off", "time": 126, "note": 61, "velocity": 114, "channel": 0}, {"type": "note_on", "time": 0, "note": 62, "velocity": 109, "channel": 0}, {"type": "note_off", "time": 156, "note": 62, "velocity": 109, "channel": 0}, {"type": "note_on", "time": 5, "note": 58, "velocity": 118, "channel": 0}, {"type": "note_off", "time": 82, "note": 58, "velocity": 118, "channel": 0}, {"type": "note_on", "time": 115, "note": 55, "velocity": 106, "channel": 0}, {"type": "note_off", "time": 364, "note": 55, "velocity": 106, "channel": 0}, {"type": "note_on", "time": 378, "note": 62, "velocity": 119, "channel": 0}, {"type": "note_off", "time": 76, "note": 62, "velocity": 119, "channel": 0}, {"type": "note_on", "time": 134, "note": 61, "velocity": 122, "channel": 0}, {"type": "note_off", "time": 71, "note": 61, "velocity": 122, "channel": 0}, {"type": "note_on", "time": 115, "note": 60, "velocity": 117, "channel": 0}, {"type": "note_off", "time": 79, "note": 60, "velocity": 117, "channel": 0}, {"type": "note_on", "time": 112, "note": 58, "velocity": 118, "channel": 0}, {"type": "note_off", "time": 60, "note": 58, "velocity": 118, "channel": 0}, {"type": "note_on", "time": 134, "note": 55, "velocity": 116, "channel": 0}, {"type": "note_off", "time": 74, "note": 55, "velocity": 116, "channel": 0}, {"type": "note_on", "time": 112, "note": 58, "velocity": 117, "channel": 0}, {"type": "note_off", "time": 65, "note": 58, "velocity": 117, "channel": 0}, {"type": "note_on", "time": 104, "note": 55, "velocity": 119, "channel": 0}, {"type": "note_off", "time": 65, "note": 55, "velocity": 119, "channel": 0}, {"type": "note_on", "time": 134, "note": 60, "velocity": 115, "channel": 0}, {"type": "note_off", "time": 85, "note": 60, "velocity": 115, "channel": 0}, {"type": "note_on", "time": 112, "note": 58, "velocity": 118, "channel": 0}, {"type": "note_off", "time": 74, "note": 58, "velocity": 118, "channel": 0}, {"type": "note_on", "time": 112, "note": 57, "velocity": 119, "channel": 0}, {"type": "note_off", "time": 71, "note": 57, "velocity": 119, "channel": 0}, {"type": "note_on", "time": 139, "note": 55, "velocity": 115, "channel": 0}, {"type": "note_off", "time": 87, "note": 55, "velocity": 115, "channel": 0}, {"type": "note_on", "time": 87, "note": 57, "velocity": 122, "channel": 0}, {"type": "note_off", "time": 71, "note": 57, "velocity": 122, "channel": 0}, {"type": "note_on", "time": 106, "note": 53, "velocity": 111, "channel": 0}, {"type": "note_off", "time": 79, "note": 53, "velocity": 111, "channel": 0}, {"type": "note_on", "time": 101, "note": 65, "velocity": 120, "channel": 0}, {"type": "note_off", "time": 87, "note": 65, "velocity": 120, "channel": 0}, {"type": "note_on", "time": 19, "note": 64, "velocity": 120, "channel": 0}, {"type": "note_off", "time": 74, "note": 64, "velocity": 120, "channel": 0}, {"type": "note_on", "time": 24, "note": 61, "velocity": 108, "channel": 0}, {"type": "note_off", "time": 131, "note": 61, "velocity": 108, "channel": 0}, {"type": "note_on", "time": 478, "note": 53, "velocity": 121, "channel": 0}, {"type": "note_off", "time": 74, "note": 53, "velocity": 121, "channel": 0}, {"type": "note_on", "time": 0, "note": 58, "velocity": 120, "channel": 0}, {"type": "note_off", "time": 81, "note": 58, "velocity": 120, "channel": 0}, {"type": "note_on", "time": 0, "note": 62, "velocity": 106, "channel": 0}, {"type": "note_off", "time": 81, "note": 62, "velocity": 106, "channel": 0}, {"type": "note_on", "time": 0, "note": 65, "velocity": 118, "channel": 0}, {"type": "note_off", "time": 93, "note": 65, "velocity": 118, "channel": 0}, {"type": "note_on", "time": 30, "note": 67, "velocity": 122, "channel": 0}, {"type": "note_off", "time": 115, "note": 67, "velocity": 122, "channel": 0}, {"type": "note_on", "time": 46, "note": 69, "velocity": 126, "channel": 0}, {"type": "note_off", "time": 298, "note": 69, "velocity": 126, "channel": 0}, {"type": "note_on", "time": 10, "note": 67, "velocity": 120, "channel": 0}, {"type": "note_on", "time": 103, "note": 65, "velocity": 113, "channel": 0}, {"type": "note_off", "time": 0, "note": 67, "velocity": 120, "channel": 0}, {"type": "note_off", "time": 66, "note": 65, "velocity": 113, "channel": 0}, {"type": "note_on", "time": 35, "note": 62, "velocity": 113, "channel": 0}, {"type": "note_off", "time": 93, "note": 62, "velocity": 113, "channel": 0}, {"type": "note_on", "time": 50, "note": 60, "velocity": 112, "channel": 0}, {"type": "note_off", "time": 222, "note": 60, "velocity": 112, "channel": 0}, {"type": "note_on", "time": 171, "note": 58, "velocity": 118, "channel": 0}, {"type": "note_off", "time": 120, "note": 58, "velocity": 118, "channel": 0}, {"type": "note_on", "time": 46, "note": 55, "velocity": 110, "channel": 0}, {"type": "note_off", "time": 97, "note": 55, "velocity": 110, "channel": 0}, {"type": "note_on", "time": 42, "note": 62, "velocity": 114, "channel": 0}, {"type": "note_off", "time": 230, "note": 62, "velocity": 114, "channel": 0}, {"type": "note_on", "time": 413, "note": 73, "velocity": 126, "channel": 0}, {"type": "note_off", "time": 74, "note": 73, "velocity": 126, "channel": 0}, {"type": "note_on", "time": 11, "note": 74, "velocity": 125, "channel": 0}, {"type": "note_off", "time": 347, "note": 74, "velocity": 125, "channel": 0}, {"type": "note_on", "time": 15, "note": 71, "velocity": 110, "channel": 0}, {"type": "note_off", "time": 42, "note": 71, "velocity": 110, "channel": 0}, {"type": "note_on", "time": 0, "note": 72, "velocity": 122, "channel": 0}, {"type": "note_off", "time": 15, "note": 72, "velocity": 122, "channel": 0}, {"type": "note_on", "time": 3, "note": 75, "velocity": 116, "channel": 0}, {"type": "note_off", "time": 46, "note": 75, "velocity": 116, "channel": 0}, {"type": "note_on", "time": 19, "note": 72, "velocity": 120, "channel": 0}, {"type": "note_off", "time": 132, "note": 72, "velocity": 120, "channel": 0}, {"type": "note_on", "time": 11, "note": 70, "velocity": 125, "channel": 0}, {"type": "note_off", "time": 202, "note": 70, "velocity": 125, "channel": 0}, {"type": "note_on", "time": 66, "note": 67, "velocity": 116, "channel": 0}, {"type": "note_off", "time": 93, "note": 67, "velocity": 116, "channel": 0}, {"type": "note_on", "time": 105, "note": 65, "velocity": 112, "channel": 0}, {"type": "note_off", "time": 113, "note": 65, "velocity": 112, "channel": 0}, {"type": "note_on", "time": 7, "note": 64, "velocity": 118, "channel": 0}, {"type": "note_off", "time": 58, "note": 64, "velocity": 118, "channel": 0}, {"type": "note_on", "time": 0, "note": 63, "velocity": 117, "channel": 0}, {"type": "note_off", "time": 89, "note": 63, "velocity": 117, "channel": 0}, {"type": "note_on", "time": 23, "note": 62, "velocity": 114, "channel": 0}, {"type": "note_off", "time": 89, "note": 62, "velocity": 114, "channel": 0}, {"type": "note_on", "time": 93, "note": 62, "velocity": 118, "channel": 0}, {"type": "note_off", "time": 109, "note": 62, "velocity": 118, "channel": 0}, {"type": "note_on", "time": 46, "note": 55, "velocity": 105, "channel": 0}, {"type": "note_off", "time": 78, "note": 55, "velocity": 105, "channel": 0}, {"type": "note_on", "time": 15, "note": 54, "velocity": 114, "channel": 0}, {"type": "note_off", "time": 65, "note": 54, "velocity": 114, "channel": 0}, {"type": "note_on", "time": 0, "note": 55, "velocity": 101, "channel": 0}, {"type": "note_off", "time": 81, "note": 55, "velocity": 101, "channel": 0}, {"type": "note_on", "time": 60, "note": 62, "velocity": 117, "channel": 0}, {"type": "note_off", "time": 100, "note": 62, "velocity": 117, "channel": 0}, {"type": "note_on", "time": 0, "note": 53, "velocity": 112, "channel": 0}, {"type": "note_off", "time": 97, "note": 53, "velocity": 112, "channel": 0}, {"type": "note_on", "time": 85, "note": 53, "velocity": 96, "channel": 0}, {"type": "note_off", "time": 74, "note": 53, "velocity": 96, "channel": 0}, {"type": "note_on", "time": 11, "note": 58, "velocity": 121, "channel": 0}, {"type": "note_off", "time": 113, "note": 58, "velocity": 121, "channel": 0}, {"type": "note_on", "time": 0, "note": 53, "velocity": 104, "channel": 0}, {"type": "note_off", "time": 117, "note": 53, "velocity": 104, "channel": 0}, {"type": "note_on", "time": 19, "note": 58, "velocity": 117, "channel": 0}, {"type": "note_off", "time": 97, "note": 58, "velocity": 117, "channel": 0}, {"type": "note_on", "time": 0, "note": 62, "velocity": 108, "channel": 0}, {"type": "note_off", "time": 81, "note": 62, "velocity": 108, "channel": 0}, {"type": "note_on", "time": 3, "note": 65, "velocity": 118, "channel": 0}, {"type": "note_off", "time": 93, "note": 65, "velocity": 118, "channel": 0}, {"type": "note_on", "time": 35, "note": 64, "velocity": 115, "channel": 0}, {"type": "note_off", "time": 89, "note": 64, "velocity": 115, "channel": 0}, {"type": "note_on", "time": 70, "note": 63, "velocity": 115, "channel": 0}, {"type": "note_off", "time": 81, "note": 63, "velocity": 115, "channel": 0}, {"type": "note_on", "time": 11, "note": 62, "velocity": 110, "channel": 0}, {"type": "note_off", "time": 128, "note": 62, "velocity": 110, "channel": 0}, {"type": "note_on", "time": 35, "note": 65, "velocity": 117, "channel": 0}, {"type": "note_off", "time": 132, "note": 65, "velocity": 117, "channel": 0}, {"type": "note_on", "time": 3, "note": 62, "velocity": 113, "channel": 0}, {"type": "note_off", "time": 81, "note": 62, "velocity": 113, "channel": 0}, {"type": "note_on", "time": 19, "note": 61, "velocity": 116, "channel": 0}, {"type": "note_off", "time": 249, "note": 61, "velocity": 116, "channel": 0}, {"type": "note_on", "time": 58, "note": 58, "velocity": 112, "channel": 0}, {"type": "note_off", "time": 284, "note": 58, "velocity": 112, "channel": 0}, {"type": "end_of_track", "time": 0}]]}