{"ticks_per_beat": 9240, "tracks": [[{"type": "track_name", "name": "Melody", "time": 0}, {"type": "set_tempo", "tempo": 937500, "time": 0}, {"type": "key_signature", "key": "Bb", "time": 0}, {"type": "time_signature", "numerator": 4, "denominator": 4, "clocks_per_click": 24, "notated_32nd_notes_per_beat": 8, "time": 0}, {"type": "note_on", "time": 82793, "note": 60, "velocity": 110, "channel": 0}, {"type": "note_off", "time": 958, "note": 60, "velocity": 110, "channel": 0}, {"type": "note_on", "time": 243, "note": 62, "velocity": 100, "channel": 0}, {"type": "note_off", "time": 1115, "note": 62, "velocity": 100, "channel": 0}, {"type": "note_on", "time": 286, "note": 65, "velocity": 92, "channel": 0}, {"type": "note_off", "time": 800, "note": 65, "velocity": 92, "channel": 0}, {"type": "note_on", "time": 85, "note": 67, "velocity": 120, "channel": 0}, {"type": "note_off", "time": 1258, "note": 67, "velocity": 120, "channel": 0}, {"type": "note_on", "time": 1273, "note": 70, "velocity": 121, "channel": 0}, {"type": "note_off", "time": 2288, "note": 70, "velocity": 121, "channel": 0}, {"type": "note_on", "time": 572, "note": 70, "velocity": 125, "channel": 0}, {"type": "note_off", "time": 1430, "note": 70, "velocity": 125, "channel": 0}, {"type": "note_on", "time": 572, "note": 70, "velocity": 124, "channel": 0}, {"type": "note_off", "time": 1601, "note": 70, "velocity": 124, "channel": 0}, {"type": "note_on", "time": 457, "note": 70, "velocity": 121, "channel": 0}, {"type": "note_off", "time": 1487, "note": 70, "velocity": 121, "channel": 0}, {"type": "note_on", "time": 114, "note": 68, "velocity": 108, "channel": 0}, {"type": "note_off", "time": 1773, "note": 68, "velocity": 108, "channel": 0}, {"type": "note_on", "time": 214, "note": 65, "velocity": 107, "channel": 0}, {"type": "note_off", "time": 1773, "note": 65, "velocity": 107, "channel": 0}, {"type": "note_on", "time": 529, "note": 63, "velocity": 101, "channel": 0}, {"type": "note_off", "time": 1716, "note": 63, "velocity": 101, "channel": 0}, {"type": "note_on", "time": 343, "note": 58, "velocity": 90, "channel": 0}, {"type": "note_off", "time": 2116, "note": 58, "velocity": 90, "channel": 0}, {"type": "note_on", "time": 114, "note": 61, "velocity": 97, "channel": 0}, {"type": "note_off", "time": 1244, "note": 61, "velocity": 97, "channel": 0}, {"type": "note_on", "time": 157, "note": 62, "velocity": 83, "channel": 0}, {"type": "note_off", "time": 1988, "note": 62, "velocity": 83, "channel": 0}, {"type": "note_on", "time": 185, "note": 65, "velocity": 107, "channel": 0}, {"type": "note_off", "time": 4977, "note": 65, "velocity": 107, "channel": 0}, {"type": "note_on", "time": 357, "note": 65, "velocity": 105, "channel": 0}, {"type": "note_off", "time": 4448, "note": 65, "velocity": 105, "channel": 0}, {"type": "note_on", "time": 182, "note": 64, "velocity": 106, "channel": 0}, {"type": "note_off", "time": 1448, "note": 64, "velocity": 106, "channel": 0}, {"type": "note_on", "time": 160, "note": 63, "velocity": 102, "channel": 0}, {"type": "note_off", "time": 1689, "note": 63, "velocity": 102, "channel": 0}, {"type": "note_on", "time": 241, "note": 62, "velocity": 106, "channel": 0}, {"type": "note_off", "time": 2011, "note": 62, "velocity": 106, "channel": 0}, {"type": "note_on", "time": 244, "note": 61, "velocity": 104, "channel": 0}, {"type": "note_off", "time": 1873, "note": 61, "velocity": 104, "channel": 0}, {"type": "note_on", "time": 2846, "note": 51, "velocity": 95, "channel": 0}, {"type": "note_off", "time": 2031, "note": 51, "velocity": 95, "channel": 0}, {"type": "note_on", "time": 2105, "note": 60, "velocity": 96, "channel": 0}, {"type": "note_off", "time": 9413, "note": 60, "velocity": 96, "channel": 0}, {"type": "note_on", "time": 19877, "note": 60, "velocity": 109, "channel": 0}, {"type": "note_off", "time": 1859, "note": 60, "velocity": 109, "channel": 0}, {"type": "note_on", "time": 268, "note": 58, "velocity": 106, "channel": 0}, {"type": "note_off", "time": 1377, "note": 58, "velocity": 106, "channel": 0}, {"type": "note_on", "time": 261, "note": 57, "velocity": 90, "channel": 0}, {"type": "note_off", "time": 2624, "note": 57, "velocity": 90, "channel": 0}, {"type": "note_on", "time": 221, "note": 58, "velocity": 73, "channel": 0}, {"type": "note_off", "time": 623, "note": 58, "velocity": 73, "channel": 0}, {"type": "note_on", "time": 754, "note": 62, "velocity": 93, "channel": 0}, {"type": "note_off", "time": 2484, "note": 62, "velocity": 93, "channel": 0}, {"type": "note_on", "time": 94, "note": 65, "velocity": 109, "channel": 0}, {"type": "note_off", "time": 5950, "note": 65, "velocity": 109, "channel": 0}, {"type": "note_on", "time": 1165, "note": 63, "velocity": 104, "channel": 0}, {"type": "note_off", "time": 2774, "note": 63, "velocity": 104, "channel": 0}, {"type": "note_on", "time": 6940, "note": 61, "velocity": 110, "channel": 0}, {"type": "note_off", "time": 2051, "note": 61, "velocity": 110, "channel": 0}, {"type": "note_on", "time": 2252, "note": 69, "velocity": 118, "channel": 0}, {"type": "note_off", "time": 1951, "note": 69, "velocity": 118, "channel": 0}, {"type": "note_on", "time": 201, "note": 67, "velocity": 115, "channel": 0}, {"type": "note_off", "time": 1830, "note": 67, "velocity": 115, "channel": 0}, {"type": "note_on", "time": 100, "note": 65, "velocity": 108, "channel": 0}, {"type": "note_off", "time": 2152, "note": 65, "velocity": 108, "channel": 0}, {"type": "note_on", "time": 80, "note": 64, "velocity": 100, "channel": 0}, {"type": "note_off", "time": 1548, "note": 64, "velocity": 100, "channel": 0}, {"type": "note_on", "time": 40, "note": 62, "velocity": 102, "channel": 0}, {"type": "note_off", "time": 2313, "note": 62, "velocity": 102, "channel": 0}, {"type": "note_on", "time": 149, "note": 60, "velocity": 107, "channel": 0}, {"type": "note_off", "time": 1468, "note": 60, "velocity": 107, "channel": 0}, {"type": "note_on", "time": 272, "note": 58, "velocity": 98, "channel": 0}, {"type": "note_off", "time": 2675, "note": 58, "velocity": 98, "channel": 0}, {"type": "note_on", "time": 221, "note": 56, "velocity": 105, "channel": 0}, {"type": "note_off", "time": 854, "note": 56, "velocity": 105, "channel": 0}, {"type": "note_on", "time": 533, "note": 56, "velocity": 103, "channel": 0}, {"type": "note_off", "time": 1045, "note": 56, "velocity": 103, "channel": 0}, {"type": "note_on", "time": 492, "note": 60, "velocity": 97, "channel": 0}, {"type": "note_off", "time": 1045, "note": 60, "velocity": 97, "channel": 0}, {"type": "note_on", "time": 211, "note": 63, "velocity": 93, "channel": 0}, {"type": "note_off", "time": 1387, "note": 63, "velocity": 93, "channel": 0}, {"type": "note_on", "time": 40, "note": 66, "velocity": 105, "channel": 0}, {"type": "note_off", "time": 1408, "note": 66, "velocity": 105, "channel": 0}, {"type": "note_on", "time": 120, "note": 67, "velocity": 106, "channel": 0}, {"type": "note_off", "time": 1820, "note": 67, "velocity": 106, "channel": 0}, {"type": "note_on", "time": 502, "note": 60, "velocity": 85, "channel": 0}, {"type": "note_off", "time": 603, "note": 60, "velocity": 85, "channel": 0}, {"type": "note_on", "time": 836, "note": 66, "velocity": 103, "channel": 0}, {"type": "note_off", "time": 1416, "note": 66, "velocity": 103, "channel": 0}, {"type": "note_on", "time": 150, "note": 67, "velocity": 105, "channel": 0}, {"type": "note_off", "time": 1566, "note": 67, "velocity": 105, "channel": 0}, {"type": "note_on", "time": 185, "note": 66, "velocity": 90, "channel": 0}, {"type": "note_off", "time": 3490, "note": 66, "velocity": 90, "channel": 0}, {"type": "note_on", "time": 552, "note": 70, "velocity": 97, "channel": 0}, {"type": "note_off", "time": 724, "note": 70, "velocity": 97, "channel": 0}, {"type": "note_on", "time": 271, "note": 56, "velocity": 98, "channel": 0}, {"type": "note_off", "time": 2181, "note": 56, "velocity": 98, "channel": 0}, {"type": "note_on", "time": 1606, "note": 65, "velocity": 105, "channel": 0}, {"type": "note_off", "time": 5606, "note": 65, "velocity": 105, "channel": 0}, {"type": "note_on", "time": 85, "note": 60, "velocity": 109, "channel": 0}, {"type": "note_off", "time": 2832, "note": 60, "velocity": 109, "channel": 0}, {"type": "note_on", "time": 1773, "note": 63, "velocity": 102, "channel": 0}, {"type": "note_off", "time": 2946, "note": 63, "velocity": 102, "channel": 0}, {"type": "note_on", "time": 343, "note": 61, "velocity": 94, "channel": 0}, {"type": "note_off", "time": 4176, "note": 61, "velocity": 94, "channel": 0}, {"type": "note_on", "time": 17457, "note": 61, "velocity": 113, "channel": 0}, {"type": "note_off", "time": 1308, "note": 61, "velocity": 113, "channel": 0}, {"type": "note_on", "time": 28, "note": 60, "velocity": 98, "channel": 0}, {"type": "note_off", "time": 958, "note": 60, "velocity": 98, "channel": 0}, {"type": "note_on", "time": 28, "note": 61, "velocity": 94, "channel": 0}, {"type": "note_off", "time": 2059, "note": 61, "velocity": 94, "channel": 0}, {"type": "note_on", "time": 286, "note": 58, "velocity": 97, "channel": 0}, {"type": "note_off", "time": 1702, "note": 58, "velocity": 97, "channel": 0}, {"type": "note_on", "time": 57, "note": 61, "velocity": 114, "channel": 0}, {"type": "note_off", "time": 786, "note": 61, "velocity": 114, "channel": 0}, {"type": "note_on", "time": 185, "note": 60, "velocity": 105, "channel": 0}, {"type": "note_off", "time": 1129, "note": 60, "velocity": 105, "channel": 0}, {"type": "note_on", "time": 300, "note": 61, "velocity": 89, "channel": 0}, {"type": "note_off", "time": 1787, "note": 61, "velocity": 89, "channel": 0}, {"type": "note_on", "time": 8367, "note": 64, "velocity": 103, "channel": 0}, {"type": "note_off", "time": 4305, "note": 64, "velocity": 103, "channel": 0}, {"type": "note_on", "time": 157, "note": 61, "velocity": 95, "channel": 0}, {"type": "note_off", "time": 1015, "note": 61, "velocity": 95, "channel": 0}, {"type": "note_on", "time": 376, "note": 64, "velocity": 102, "channel": 0}, {"type": "note_off", "time": 3218, "note": 64, "velocity": 102, "channel": 0}, {"type": "note_on", "time": 5959, "note": 67, "velocity": 114, "channel": 0}, {"type": "note_off", "time": 2431, "note": 67, "velocity": 114, "channel": 0}, {"type": "note_on", "time": 300, "note": 66, "velocity": 104, "channel": 0}, {"type": "note_off", "time": 1297, "note": 66, "velocity": 104, "channel": 0}, {"type": "note_on", "time": 118, "note": 65, "velocity": 108, "channel": 0}, {"type": "note_off", "time": 2906, "note": 65, "velocity": 108, "channel": 0}, {"type": "note_on", "time": 7191, "note": 62, "velocity": 108, "channel": 0}, {"type": "note_off", "time": 3118, "note": 62, "velocity": 108, "channel": 0}, {"type": "note_on", "time": 6164, "note": 63, "velocity": 109, "channel": 0}, {"type": "note_off", "time": 2460, "note": 63, "velocity": 109, "channel": 0}, {"type": "note_on", "time": 1644, "note": 58, "velocity": 110, "channel": 0}, {"type": "note_off", "time": 2531, "note": 58, "velocity": 110, "channel": 0}, {"type": "note_on", "time": 185, "note": 62, "velocity": 101, "channel": 0}, {"type": "note_off", "time": 7008, "note": 62, "velocity": 101, "channel": 0}, {"type": "note_on", "time": 3012, "note": 57, "velocity": 108, "channel": 0}, {"type": "note_off", "time": 1297, "note": 57, "velocity": 108, "channel": 0}, {"type": "note_on", "time": 152, "note": 60, "velocity": 109, "channel": 0}, {"type": "note_off", "time": 2517, "note": 60, "velocity": 109, "channel": 0}, {"type": "note_on", "time": 57, "note": 57, "velocity": 107, "channel": 0}, {"type": "note_off", "time": 1273, "note": 57, "velocity": 107, "channel": 0}, {"type": "note_on", "time": 203, "note": 58, "velocity": 107, "channel": 0}, {"type": "note_off", "time": 1226, "note": 58, "velocity": 107, "channel": 0}, {"type": "note_on", "time": 428, "note": 62, "velocity": 92, "channel": 0}, {"type": "note_off", "time": 1044, "note": 62, "velocity": 92, "channel": 0}, {"type": "note_on", "time": 78, "note": 65, "velocity": 105, "channel": 0}, {"type": "note_off", "time": 1888, "note": 65, "velocity": 105, "channel": 0}, {"type": "note_on", "time": 507, "note": 69, "velocity": 113, "channel": 0}, {"type": "note_off", "time": 2116, "note": 69, "velocity": 113, "channel": 0}, {"type": "note_on", "time": 42, "note": 67, "velocity": 121, "channel": 0}, {"type": "note_off", "time": 2174, "note": 67, "velocity": 121, "channel": 0}, {"type": "note_on", "time": 46, "note": 67, "velocity": 104, "channel": 0}, {"type": "note_off", "time": 633, "note": 67, "velocity": 104, "channel": 0}, {"type": "note_on", "time": 150, "note": 65, "velocity": 106, "channel": 0}, {"type": "note_off", "time": 1418, "note": 65, "velocity": 106, "channel": 0}, {"type": "note_on", "time": 111, "note": 64, "velocity": 100, "channel": 0}, {"type": "note_off", "time": 1573, "note": 64, "velocity": 100, "channel": 0}, {"type": "note_on", "time": 128, "note": 62, "velocity": 101, "channel": 0}, {"type": "note_off", "time": 3389, "note": 62, "velocity": 101, "channel": 0}, {"type": "note_on", "time": 1029, "note": 60, "velocity": 107, "channel": 0}, {"type": "note_off", "time": 3633, "note": 60, "velocity": 107, "channel": 0}, {"type": "note_on", "time": 42, "note": 59, "velocity": 108, "channel": 0}, {"type": "note_off", "time": 2660, "note": 59, "velocity": 108, "channel": 0}, {"type": "note_on", "time": 1873, "note": 68, "velocity": 124, "channel": 0}, {"type": "note_off", "time": 1559, "note": 68, "velocity": 124, "channel": 0}, {"type": "note_on", "time": 42, "note": 67, "velocity": 119, "channel": 0}, {"type": "note_off", "time": 2903, "note": 67, "velocity": 119, "channel": 0}, {"type": "note_on", "time": 257, "note": 62, "velocity": 83, "channel": 0}, {"type": "note_off", "time": 1015, "note": 62, "velocity": 83, "channel": 0}, {"type": "note_on", "time": 386, "note": 65, "velocity": 110, "channel": 0}, {"type": "note_off", "time": 2417, "note": 65, "velocity": 110, "channel": 0}, {"type": "note_on", "time": 28, "note": 63, "velocity": 102, "channel": 0}, {"type": "note_off", "time": 1702, "note": 63, "velocity": 102, "channel": 0}, {"type": "note_on", "time": 85, "note": 58, "velocity": 103, "channel": 0}, {"type": "note_off", "time": 2460, "note": 58, "velocity": 103, "channel": 0}, {"type": "note_on", "time": 264, "note": 55, "velocity": 78, "channel": 0}, {"type": "note_off", "time": 1498, "note": 55, "velocity": 78, "channel": 0}, {"type": "note_on", "time": 68, "note": 60, "velocity": 94, "channel": 0}, {"type": "note_off", "time": 686, "note": 60, "velocity": 94, "channel": 0}, {"type": "note_on", "time": 28, "note": 62, "velocity": 87, "channel": 0}, {"type": "note_off", "time": 2388, "note": 62, "velocity": 87, "channel": 0}, {"type": "note_on", "time": 200, "note": 60, "velocity": 95, "channel": 0}, {"type": "note_off", "time": 11929, "note": 60, "velocity": 95, "channel": 0}, {"type": "note_on", "time": 20894, "note": 62, "velocity": 100, "channel": 0}, {"type": "note_off", "time": 1850, "note": 62, "velocity": 100, "channel": 0}, {"type": "note_on", "time": 60, "note": 63, "velocity": 102, "channel": 0}, {"type": "note_off", "time": 2373, "note": 63, "velocity": 102, "channel": 0}, {"type": "note_on", "time": 1649, "note": 58, "velocity": 108, "channel": 0}, {"type": "note_off", "time": 2262, "note": 58, "velocity": 108, "channel": 0}, {"type": "note_on", "time": 251, "note": 62, "velocity": 110, "channel": 0}, {"type": "note_off", "time": 1930, "note": 62, "velocity": 110, "channel": 0}, {"type": "note_on", "time": 40, "note": 60, "velocity": 109, "channel": 0}, {"type": "note_off", "time": 1971, "note": 60, "velocity": 109, "channel": 0}, {"type": "note_on", "time": 352, "note": 58, "velocity": 104, "channel": 0}, {"type": "note_off", "time": 1639, "note": 58, "velocity": 104, "channel": 0}, {"type": "note_on", "time": 100, "note": 57, "velocity": 103, "channel": 0}, {"type": "note_off", "time": 1307, "note": 57, "velocity": 103, "channel": 0}, {"type": "note_on", "time": 472, "note": 60, "velocity": 100, "channel": 0}, {"type": "note_off", "time": 794, "note": 60, "velocity": 100, "channel": 0}, {"type": "note_on", "time": 120, "note": 63, "velocity": 114, "channel": 0}, {"type": "note_off", "time": 1307, "note": 63, "velocity": 114, "channel": 0}, {"type": "note_on", "time": 1166, "note": 68, "velocity": 112, "channel": 0}, {"type": "note_off", "time": 4163, "note": 68, "velocity": 112, "channel": 0}, {"type": "note_on", "time": 60, "note": 66, "velocity": 111, "channel": 0}, {"type": "note_off", "time": 3077, "note": 66, "velocity": 111, "channel": 0}, {"type": "note_on", "time": 181, "note": 60, "velocity": 87, "channel": 0}, {"type": "note_off", "time": 1387, "note": 60, "velocity": 87, "channel": 0}, {"type": "note_on", "time": 2, "note": 64, "velocity": 98, "channel": 0}, {"type": "note_off", "time": 1344, "note": 64, "velocity": 98, "channel": 0}, {"type": "note_on", "time": 114, "note": 65, "velocity": 108, "channel": 0}, {"type": "note_off", "time": 9554, "note": 65, "velocity": 108, "channel": 0}, {"type": "note_on", "time": 539, "note": 58, "velocity": 106, "channel": 0}, {"type": "note_off", "time": 1790, "note": 58, "velocity": 106, "channel": 0}, {"type": "note_on", "time": 216, "note": 58, "velocity": 104, "channel": 0}, {"type": "note_off", "time": 2031, "note": 58, "velocity": 104, "channel": 0}, {"type": "note_on", "time": 257, "note": 58, "velocity": 102, "channel": 0}, {"type": "note_off", "time": 2617, "note": 58, "velocity": 102, "channel": 0}, {"type": "note_on", "time": 7469, "note": 63, "velocity": 99, "channel": 0}, {"type": "note_off", "time": 1327, "note": 63, "velocity": 99, "channel": 0}, {"type": "note_on", "time": 1106, "note": 55, "velocity": 99, "channel": 0}, {"type": "note_off", "time": 704, "note": 55, "velocity": 99, "channel": 0}, {"type": "note_on", "time": 834, "note": 58, "velocity": 100, "channel": 0}, {"type": "note_off", "time": 1528, "note": 58, "velocity": 100, "channel": 0}, {"type": "note_on", "time": 201, "note": 62, "velocity": 108, "channel": 0}, {"type": "note_off", "time": 1749, "note": 62, "velocity": 108, "channel": 0}, {"type": "note_on", "time": 191, "note": 65, "velocity": 104, "channel": 0}, {"type": "note_off", "time": 1629, "note": 65, "velocity": 104, "channel": 0}, {"type": "note_on", "time": 573, "note": 60, "velocity": 110, "channel": 0}, {"type": "note_off", "time": 1287, "note": 60, "velocity": 110, "channel": 0}, {"type": "note_on", "time": 603, "note": 58, "velocity": 93, "channel": 0}, {"type": "note_off", "time": 935, "note": 58, "velocity": 93, "channel": 0}, {"type": "note_on", "time": 452, "note": 60, "velocity": 100, "channel": 0}, {"type": "note_off", "time": 6456, "note": 60, "velocity": 100, "channel": 0}, {"type": "note_on", "time": 29909, "note": 65, "velocity": 110, "channel": 0}, {"type": "note_off", "time": 8045, "note": 65, "velocity": 110, "channel": 0}, {"type": "note_on", "time": 1086, "note": 70, "velocity": 120, "channel": 0}, {"type": "note_off", "time": 3379, "note": 70, "velocity": 120, "channel": 0}, {"type": "note_on", "time": 6476, "note": 69, "velocity": 117, "channel": 0}, {"type": "note_off", "time": 2112, "note": 69, "velocity": 117, "channel": 0}, {"type": "note_on", "time": 60, "note": 67, "velocity": 122, "channel": 0}, {"type": "note_off", "time": 1689, "note": 67, "velocity": 122, "channel": 0}, {"type": "note_on", "time": 120, "note": 65, "velocity": 109, "channel": 0}, {"type": "note_off", "time": 2031, "note": 65, "velocity": 109, "channel": 0}, {"type": "note_on", "time": 120, "note": 63, "velocity": 108, "channel": 0}, {"type": "note_off", "time": 1568, "note": 63, "velocity": 108, "channel": 0}, {"type": "note_on", "time": 120, "note": 62, "velocity": 105, "channel": 0}, {"type": "note_off", "time": 4686, "note": 62, "velocity": 105, "channel": 0}, {"type": "note_on", "time": 60, "note": 65, "velocity": 115, "channel": 0}, {"type": "note_off", "time": 2896, "note": 65, "velocity": 115, "channel": 0}, {"type": "note_on", "time": 2574, "note": 57, "velocity": 110, "channel": 0}, {"type": "note_off", "time": 8528, "note": 57, "velocity": 110, "channel": 0}, {"type": "note_on", "time": 985, "note": 64, "velocity": 111, "channel": 0}, {"type": "note_off", "time": 3137, "note": 64, "velocity": 111, "channel": 0}, {"type": "note_on", "time": 7012, "note": 63, "velocity": 111, "channel": 0}, {"type": "note_off", "time": 1759, "note": 63, "velocity": 111, "channel": 0}, {"type": "note_on", "time": 42, "note": 60, "velocity": 113, "channel": 0}, {"type": "note_off", "time": 2059, "note": 60, "velocity": 113, "channel": 0}, {"type": "note_on", "time": 143, "note": 57, "velocity": 105, "channel": 0}, {"type": "note_off", "time": 1787, "note": 57, "velocity": 105, "channel": 0}, {"type": "note_on", "time": 610, "note": 55, "velocity": 106, "channel": 0}, {"type": "note_off", "time": 1473, "note": 55, "velocity": 106, "channel": 0}, {"type": "note_on", "time": 55, "note": 54, "velocity": 98, "channel": 0}, {"type": "note_off", "time": 2360, "note": 54, "velocity": 98, "channel": 0}, {"type": "note_on", "time": 435, "note": 63, "velocity": 115, "channel": 0}, {"type": "note_off", "time": 1516, "note": 63, "velocity": 115, "channel": 0}, {"type": "note_on", "time": 183, "note": 60, "velocity": 110, "channel": 0}, {"type": "note_off", "time": 2423, "note": 60, "velocity": 110, "channel": 0}, {"type": "note_on", "time": 170, "note": 61, "velocity": 100, "channel": 0}, {"type": "note_off", "time": 1377, "note": 61, "velocity": 100, "channel": 0}, {"type": "note_on", "time": 221, "note": 62, "velocity": 104, "channel": 0}, {"type": "note_off", "time": 2172, "note": 62, "velocity": 104, "channel": 0}, {"type": "note_on", "time": 321, "note": 60, "velocity": 107, "channel": 0}, {"type": "note_off", "time": 1428, "note": 60, "velocity": 107, "channel": 0}, {"type": "note_on", "time": 301, "note": 58, "velocity": 107, "channel": 0}, {"type": "note_off", "time": 2906, "note": 58, "velocity": 107, "channel": 0}, {"type": "note_on", "time": 363, "note": 57, "velocity": 95, "channel": 0}, {"type": "note_off", "time": 972, "note": 57, "velocity": 95, "channel": 0}, {"type": "note_on", "time": 143, "note": 60, "velocity": 104, "channel": 0}, {"type": "note_off", "time": 2735, "note": 60, "velocity": 104, "channel": 0}, {"type": "note_on", "time": 210, "note": 58, "velocity": 106, "channel": 0}, {"type": "note_off", "time": 2383, "note": 58, "velocity": 106, "channel": 0}, {"type": "note_on", "time": 14724, "note": 72, "velocity": 125, "channel": 0}, {"type": "note_off", "time": 2302, "note": 72, "velocity": 125, "channel": 0}, {"type": "note_on", "time": 107, "note": 71, "velocity": 124, "channel": 0}, {"type": "note_off", "time": 1687, "note": 71, "velocity": 124, "channel": 0}, {"type": "note_on", "time": 121, "note": 70, "velocity": 115, "channel": 0}, {"type": "note_off", "time": 2245, "note": 70, "velocity": 115, "channel": 0}, {"type": "note_on", "time": 157, "note": 69, "velocity": 118, "channel": 0}, {"type": "note_off", "time": 1559, "note": 69, "velocity": 118, "channel": 0}, {"type": "note_on", "time": 527, "note": 68, "velocity": 116, "channel": 0}, {"type": "note_off", "time": 2916, "note": 68, "velocity": 116, "channel": 0}, {"type": "note_on", "time": 1233, "note": 60, "velocity": 108, "channel": 0}, {"type": "note_off", "time": 3332, "note": 60, "velocity": 108, "channel": 0}, {"type": "note_on", "time": 211, "note": 65, "velocity": 102, "channel": 0}, {"type": "note_off", "time": 1337, "note": 65, "velocity": 102, "channel": 0}, {"type": "note_on", "time": 110, "note": 67, "velocity": 98, "channel": 0}, {"type": "note_off", "time": 1488, "note": 67, "velocity": 98, "channel": 0}, {"type": "note_on", "time": 1500, "note": 60, "velocity": 97, "channel": 0}, {"type": "note_off", "time": 3161, "note": 60, "velocity": 97, "channel": 0}, {"type": "note_on", "time": 872, "note": 66, "velocity": 92, "channel": 0}, {"type": "note_off", "time": 3876, "note": 66, "velocity": 92, "channel": 0}, {"type": "note_on", "time": 204, "note": 70, "velocity": 99, "channel": 0}, {"type": "note_off", "time": 1357, "note": 70, "velocity": 99, "channel": 0}, {"type": "note_on", "time": 251, "note": 56, "velocity": 82, "channel": 0}, {"type": "note_off", "time": 7945, "note": 56, "velocity": 82, "channel": 0}, {"type": "note_on", "time": 14514, "note": 72, "velocity": 116, "channel": 0}, {"type": "note_off", "time": 1101, "note": 72, "velocity": 116, "channel": 0}, {"type": "note_on", "time": 143, "note": 73, "velocity": 110, "channel": 0}, {"type": "note_off", "time": 1530, "note": 73, "velocity": 110, "channel": 0}, {"type": "note_on", "time": 1873, "note": 72, "velocity": 124, "channel": 0}, {"type": "note_off", "time": 3661, "note": 72, "velocity": 124, "channel": 0}, {"type": "note_on", "time": 944, "note": 70, "velocity": 99, "channel": 0}, {"type": "note_off", "time": 1058, "note": 70, "velocity": 99, "channel": 0}, {"type": "note_on", "time": 57, "note": 72, "velocity": 120, "channel": 0}, {"type": "note_off", "time": 2975, "note": 72, "velocity": 120, "channel": 0}, {"type": "note_on", "time": 100, "note": 73, "velocity": 108, "channel": 0}, {"type": "note_off", "time": 3490, "note": 73, "velocity": 108, "channel": 0}, {"type": "note_on", "time": 19324, "note": 72, "velocity": 126, "channel": 0}, {"type": "note_off", "time": 715, "note": 72, "velocity": 126, "channel": 0}, {"type": "note_on", "time": 114, "note": 73, "velocity": 115, "channel": 0}, {"type": "note_off", "time": 2217, "note": 73, "velocity": 115, "channel": 0}, {"type": "note_on", "time": 1873, "note": 72, "velocity": 127, "channel": 0}, {"type": "note_off", "time": 2631, "note": 72, "velocity": 127, "channel": 0}, {"type": "note_on", "time": 1501, "note": 70, "velocity": 119, "channel": 0}, {"type": "note_off", "time": 1973, "note": 70, "velocity": 119, "channel": 0}, {"type": "note_on", "time": 1501, "note": 68, "velocity": 116, "channel": 0}, {"type": "note_off", "time": 1516, "note": 68, "velocity": 116, "channel": 0}, {"type": "note_on", "time": 822, "note": 65, "velocity": 109, "channel": 0}, {"type": "note_off", "time": 1920, "note": 65, "velocity": 109, "channel": 0}, {"type": "note_on", "time": 110, "note": 63, "velocity": 104, "channel": 0}, {"type": "note_off", "time": 1448, "note": 63, "velocity": 104, "channel": 0}, {"type": "note_on", "time": 140, "note": 58, "velocity": 103, "channel": 0}, {"type": "note_off", "time": 1669, "note": 58, "velocity": 103, "channel": 0}, {"type": "note_on", "time": 323, "note": 60, "velocity": 109, "channel": 0}, {"type": "note_off", "time": 1487, "note": 60, "velocity": 109, "channel": 0}, {"type": "note_on", "time": 79, "note": 62, "velocity": 107, "channel": 0}, {"type": "note_off", "time": 2695, "note": 62, "velocity": 107, "channel": 0}, {"type": "note_on", "time": 243, "note": 65, "velocity": 112, "channel": 0}, {"type": "note_off", "time": 2594, "note": 65, "velocity": 112, "channel": 0}, {"type": "note_on", "time": 2082, "note": 60, "velocity": 110, "channel": 0}, {"type": "note_off", "time": 7623, "note": 60, "velocity": 110, "channel": 0}, {"type": "note_on", "time": 168, "note": 58, "velocity": 95, "channel": 0}, {"type": "note_off", "time": 1146, "note": 58, "velocity": 95, "channel": 0}, {"type": "note_on", "time": 40, "note": 60, "velocity": 109, "channel": 0}, {"type": "note_off", "time": 2132, "note": 60, "velocity": 109, "channel": 0}, {"type": "note_on", "time": 623, "note": 62, "velocity": 110, "channel": 0}, {"type": "note_off", "time": 6677, "note": 62, "velocity": 110, "channel": 0}, {"type": "note_on", "time": 160, "note": 53, "velocity": 104, "channel": 0}, {"type": "note_off", "time": 5410, "note": 53, "velocity": 104, "channel": 0}, {"type": "note_on", "time": 23818, "note": 65, "velocity": 109, "channel": 0}, {"type": "note_off", "time": 2660, "note": 65, "velocity": 109, "channel": 0}, {"type": "note_on", "time": 1416, "note": 63, "velocity": 107, "channel": 0}, {"type": "note_off", "time": 2331, "note": 63, "velocity": 107, "channel": 0}, {"type": "note_on", "time": 915, "note": 62, "velocity": 106, "channel": 0}, {"type": "note_off", "time": 2774, "note": 62, "velocity": 106, "channel": 0}, {"type": "note_on", "time": 858, "note": 60, "velocity": 108, "channel": 0}, {"type": "note_off", "time": 1559, "note": 60, "velocity": 108, "channel": 0}, {"type": "note_on", "time": 100, "note": 59, "velocity": 109, "channel": 0}, {"type": "note_off", "time": 1273, "note": 59, "velocity": 109, "channel": 0}, {"type": "note_on", "time": 2762, "note": 53, "velocity": 106, "channel": 0}, {"type": "note_off", "time": 2755, "note": 53, "velocity": 106, "channel": 0}, {"type": "note_on", "time": 201, "note": 56, "velocity": 106, "channel": 0}, {"type": "note_off", "time": 1327, "note": 56, "velocity": 106, "channel": 0}, {"type": "note_on", "time": 181, "note": 55, "velocity": 109, "channel": 0}, {"type": "note_off", "time": 1971, "note": 55, "velocity": 109, "channel": 0}, {"type": "note_on", "time": 2500, "note": 53, "velocity": 110, "channel": 0}, {"type": "note_off", "time": 2603, "note": 53, "velocity": 110, "channel": 0}, {"type": "note_on", "time": 343, "note": 51, "velocity": 97, "channel": 0}, {"type": "note_off", "time": 6508, "note": 51, "velocity": 97, "channel": 0}, {"type": "note_on", "time": 18508, "note": 54, "velocity": 92, "channel": 0}, {"type": "note_off", "time": 944, "note": 54, "velocity": 92, "channel": 0}, {"type": "note_on", "time": 85, "note": 55, "velocity": 95, "channel": 0}, {"type": "note_off", "time": 1845, "note": 55, "velocity": 95, "channel": 0}, {"type": "note_on", "time": 432, "note": 58, "velocity": 91, "channel": 0}, {"type": "note_off", "time": 1086, "note": 58, "velocity": 91, "channel": 0}, {"type": "note_on", "time": 40, "note": 60, "velocity": 112, "channel": 0}, {"type": "note_off", "time": 2494, "note": 60, "velocity": 112, "channel": 0}, {"type": "note_on", "time": 280, "note": 58, "velocity": 101, "channel": 0}, {"type": "note_off", "time": 1589, "note": 58, "velocity": 101, "channel": 0}, {"type": "note_on", "time": 433, "note": 60, "velocity": 105, "channel": 0}, {"type": "note_off", "time": 1418, "note": 60, "velocity": 105, "channel": 0}, {"type": "note_on", "time": 110, "note": 61, "velocity": 99, "channel": 0}, {"type": "note_off", "time": 2031, "note": 61, "velocity": 99, "channel": 0}, {"type": "note_on", "time": 814, "note": 61, "velocity": 100, "channel": 0}, {"type": "note_off", "time": 2856, "note": 61, "velocity": 100, "channel": 0}, {"type": "note_on", "time": 80, "note": 60, "velocity": 99, "channel": 0}, {"type": "note_off", "time": 7542, "note": 60, "velocity": 99, "channel": 0}, {"type": "note_on", "time": 23533, "note": 65, "velocity": 108, "channel": 0}, {"type": "note_off", "time": 2956, "note": 65, "velocity": 108, "channel": 0}, {"type": "note_on", "time": 1528, "note": 62, "velocity": 103, "channel": 0}, {"type": "note_off", "time": 3218, "note": 62, "velocity": 103, "channel": 0}, {"type": "note_on", "time": 181, "note": 63, "velocity": 79, "channel": 0}, {"type": "note_off", "time": 844, "note": 63, "velocity": 79, "channel": 0}, {"type": "note_on", "time": 643, "note": 65, "velocity": 104, "channel": 0}, {"type": "note_off", "time": 2212, "note": 65, "velocity": 104, "channel": 0}, {"type": "note_on", "time": 311, "note": 70, "velocity": 115, "channel": 0}, {"type": "note_off", "time": 1689, "note": 70, "velocity": 115, "channel": 0}, {"type": "note_on", "time": 221, "note": 69, "velocity": 123, "channel": 0}, {"type": "note_off", "time": 2212, "note": 69, "velocity": 123, "channel": 0}, {"type": "note_on", "time": 110, "note": 67, "velocity": 119, "channel": 0}, {"type": "note_off", "time": 1981, "note": 67, "velocity": 119, "channel": 0}, {"type": "note_on", "time": 150, "note": 65, "velocity": 107, "channel": 0}, {"type": "note_off", "time": 2433, "note": 65, "velocity": 107, "channel": 0}, {"type": "note_on", "time": 231, "note": 64, "velocity": 106, "channel": 0}, {"type": "note_off", "time": 1629, "note": 64, "velocity": 106, "channel": 0}, {"type": "note_on", "time": 130, "note": 63, "velocity": 104, "channel": 0}, {"type": "note_off", "time": 1438, "note": 63, "velocity": 104, "channel": 0}, {"type": "note_on", "time": 442, "note": 56, "velocity": 74, "channel": 0}, {"type": "note_off", "time": 703, "note": 56, "velocity": 74, "channel": 0}, {"type": "note_on", "time": 190, "note": 58, "velocity": 99, "channel": 0}, {"type": "note_off", "time": 1466, "note": 58, "velocity": 99, "channel": 0}, {"type": "note_on", "time": 42, "note": 62, "velocity": 108, "channel": 0}, {"type": "note_off", "time": 2775, "note": 62, "velocity": 108, "channel": 0}, {"type": "note_on", "time": 160, "note": 61, "velocity": 110, "channel": 0}, {"type": "note_off", "time": 1307, "note": 61, "velocity": 110, "channel": 0}, {"type": "note_on", "time": 301, "note": 57, "velocity": 111, "channel": 0}, {"type": "note_off", "time": 2484, "note": 57, "velocity": 111, "channel": 0}, {"type": "note_on", "time": 170, "note": 56, "velocity": 101, "channel": 0}, {"type": "note_off", "time": 1045, "note": 56, "velocity": 101, "channel": 0}, {"type": "note_on", "time": 160, "note": 58, "velocity": 85, "channel": 0}, {"type": "note_off", "time": 915, "note": 58, "velocity": 85, "channel": 0}, {"type": "note_on", "time": 191, "note": 60, "velocity": 110, "channel": 0}, {"type": "note_off", "time": 7844, "note": 60, "velocity": 110, "channel": 0}, {"type": "note_on", "time": 80, "note": 57, "velocity": 91, "channel": 0}, {"type": "note_off", "time": 1387, "note": 57, "velocity": 91, "channel": 0}, {"type": "note_on", "time": 160, "note": 60, "velocity": 111, "channel": 0}, {"type": "note_off", "time": 2634, "note": 60, "velocity": 111, "channel": 0}, {"type": "note_on", "time": 362, "note": 62, "velocity": 106, "channel": 0}, {"type": "note_off", "time": 6496, "note": 62, "velocity": 106, "channel": 0}, {"type": "note_on", "time": 1186, "note": 63, "velocity": 100, "channel": 0}, {"type": "note_off", "time": 2353, "note": 63, "velocity": 100, "channel": 0}, {"type": "note_on", "time": 1709, "note": 58, "velocity": 99, "channel": 0}, {"type": "note_off", "time": 2474, "note": 58, "velocity": 99, "channel": 0}, {"type": "note_on", "time": 80, "note": 61, "velocity": 101, "channel": 0}, {"type": "note_off", "time": 965, "note": 61, "velocity": 101, "channel": 0}, {"type": "note_on", "time": 2856, "note": 62, "velocity": 96, "channel": 0}, {"type": "note_off", "time": 2775, "note": 62, "velocity": 96, "channel": 0}, {"type": "note_on", "time": 80, "note": 65, "velocity": 108, "channel": 0}, {"type": "note_off", "time": 2293, "note": 65, "velocity": 108, "channel": 0}, {"type": "end_of_track", "time": 0}]]}