{"ticks_per_beat": 840, "tracks": [[{"type": "note_on", "time": 0, "note": 72, "velocity": 84, "channel": 0}, {"type": "note_off", "time": 1798, "note": 72, "velocity": 84, "channel": 0}, {"type": "note_on", "time": 116, "note": 70, "velocity": 99, "channel": 0}, {"type": "note_off", "time": 235, "note": 70, "velocity": 99, "channel": 0}, {"type": "note_on", "time": 32, "note": 70, "velocity": 105, "channel": 0}, {"type": "note_off", "time": 169, "note": 70, "velocity": 105, "channel": 0}, {"type": "note_on", "time": 46, "note": 70, "velocity": 110, "channel": 0}, {"type": "note_off", "time": 194, "note": 70, "velocity": 110, "channel": 0}, {"type": "note_on", "time": 76, "note": 69, "velocity": 112, "channel": 0}, {"type": "note_off", "time": 200, "note": 69, "velocity": 112, "channel": 0}, {"type": "note_on", "time": 60, "note": 69, "velocity": 115, "channel": 0}, {"type": "note_off", "time": 192, "note": 69, "velocity": 115, "channel": 0}, {"type": "note_on", "time": 86, "note": 69, "velocity": 117, "channel": 0}, {"type": "note_off", "time": 228, "note": 69, "velocity": 117, "channel": 0}, {"type": "note_on", "time": 20, "note": 67, "velocity": 110, "channel": 0}, {"type": "note_off", "time": 217, "note": 67, "velocity": 110, "channel": 0}, {"type": "note_on", "time": 33, "note": 67, "velocity": 111, "channel": 0}, {"type": "note_off", "time": 241, "note": 67, "velocity": 111, "channel": 0}, {"type": "note_on", "time": 45, "note": 67, "velocity": 109, "channel": 0}, {"type": "note_off", "time": 236, "note": 67, "velocity": 109, "channel": 0}, {"type": "note_on", "time": 30, "note": 65, "velocity": 109, "channel": 0}, {"type": "track_name", "name": "Melody", "time": 220}, {"type": "set_tempo", "tempo": 480000, "time": 0}, {"type": "key_signature", "key": "F", "time": 0}, {"type": "time_signature", "numerator": 4, "denominator": 4, "clocks_per_click": 24, "notated_32nd_notes_per_beat": 8, "time": 0}, {"type": "note_off", "time": 54, "note": 65, "velocity": 109, "channel": 0}, {"type": "note_on", "time": 19, "note": 65, "velocity": 109, "channel": 0}, {"type": "note_off", "time": 236, "note": 65, "velocity": 109, "channel": 0}, {"type": "note_on", "time": 28, "note": 65, "velocity": 105, "channel": 0}, {"type": "note_off", "time": 253, "note": 65, "velocity": 105, "channel": 0}, {"type": "note_on", "time": 32, "note": 64, "velocity": 107, "channel": 0}, {"type": "note_off", "time": 268, "note": 64, "velocity": 107, "channel": 0}, {"type": "note_on", "time": 15, "note": 64, "velocity": 108, "channel": 0}, {"type": "note_off", "time": 245, "note": 64, "velocity": 108, "channel": 0}, {"type": "note_on", "time": 18, "note": 64, "velocity": 104, "channel": 0}, {"type": "note_off", "time": 254, "note": 64, "velocity": 104, "channel": 0}, {"type": "note_on", "time": 27, "note": 62, "velocity": 105, "channel": 0}, {"type": "note_off", "time": 267, "note": 62, "velocity": 105, "channel": 0}, {"type": "note_on", "time": 16, "note": 62, "velocity": 103, "channel": 0}, {"type": "note_off", "time": 255, "note": 62, "velocity": 103, "channel": 0}, {"type": "note_on", "time": 23, "note": 62, "velocity": 103, "channel": 0}, {"type": "note_off", "time": 206, "note": 62, "velocity": 103, "channel": 0}, {"type": "note_on", "time": 69, "note": 61, "velocity": 96, "channel": 0}, {"type": "note_off", "time": 239, "note": 61, "velocity": 96, "channel": 0}, {"type": "note_on", "time": 19, "note": 61, "velocity": 97, "channel": 0}, {"type": "note_off", "time": 275, "note": 61, "velocity": 97, "channel": 0}, {"type": "note_on", "time": 41, "note": 61, "velocity": 98, "channel": 0}, {"type": "note_off", "time": 243, "note": 61, "velocity": 98, "channel": 0}, {"type": "note_on", "time": 7, "note": 64, "velocity": 106, "channel": 0}, {"type": "note_off", "time": 214, "note": 64, "velocity": 106, "channel": 0}, {"type": "note_on", "time": 12, "note": 61, "velocity": 96, "channel": 0}, {"type": "note_off", "time": 250, "note": 61, "velocity": 96, "channel": 0}, {"type": "note_on", "time": 35, "note": 62, "velocity": 104, "channel": 0}, {"type": "note_off", "time": 221, "note": 62, "velocity": 104, "channel": 0}, {"type": "note_on", "time": 133, "note": 64, "velocity": 104, "channel": 0}, {"type": "note_off", "time": 182, "note": 64, "velocity": 104, "channel": 0}, {"type": "note_on", "time": 29, "note": 65, "velocity": 105, "channel": 0}, {"type": "note_off", "time": 270, "note": 65, "velocity": 105, "channel": 0}, {"type": "note_on", "time": 29, "note": 67, "velocity": 108, "channel": 0}, {"type": "note_off", "time": 253, "note": 67, "velocity": 108, "channel": 0}, {"type": "note_on", "time": 1311, "note": 65, "velocity": 107, "channel": 0}, {"type": "note_off", "time": 235, "note": 65, "velocity": 107, "channel": 0}, {"type": "note_on", "time": 75, "note": 64, "velocity": 103, "channel": 0}, {"type": "note_off", "time": 195, "note": 64, "velocity": 103, "channel": 0}, {"type": "note_on", "time": 297, "note": 62, "velocity": 102, "channel": 0}, {"type": "note_off", "time": 214, "note": 62, "velocity": 102, "channel": 0}, {"type": "note_on", "time": 81, "note": 60, "velocity": 99, "channel": 0}, {"type": "note_off", "time": 223, "note": 60, "velocity": 99, "channel": 0}, {"type": "note_on", "time": 69, "note": 57, "velocity": 87, "channel": 0}, {"type": "note_off", "time": 181, "note": 57, "velocity": 87, "channel": 0}, {"type": "note_on", "time": 22, "note": 58, "velocity": 96, "channel": 0}, {"type": "note_off", "time": 227, "note": 58, "velocity": 96, "channel": 0}, {"type": "note_on", "time": 90, "note": 60, "velocity": 97, "channel": 0}, {"type": "note_off", "time": 280, "note": 60, "velocity": 97, "channel": 0}, {"type": "note_on", "time": 27, "note": 57, "velocity": 93, "channel": 0}, {"type": "note_off", "time": 212, "note": 57, "velocity": 93, "channel": 0}, {"type": "note_on", "time": 43, "note": 58, "velocity": 98, "channel": 0}, {"type": "note_off", "time": 198, "note": 58, "velocity": 98, "channel": 0}, {"type": "note_on", "time": 119, "note": 63, "velocity": 108, "channel": 0}, {"type": "note_off", "time": 252, "note": 63, "velocity": 108, "channel": 0}, {"type": "note_on", "time": 23, "note": 60, "velocity": 95, "channel": 0}, {"type": "note_off", "time": 178, "note": 60, "velocity": 95, "channel": 0}, {"type": "note_on", "time": 37, "note": 61, "velocity": 100, "channel": 0}, {"type": "note_off", "time": 236, "note": 61, "velocity": 100, "channel": 0}, {"type": "note_on", "time": 93, "note": 63, "velocity": 109, "channel": 0}, {"type": "note_off", "time": 242, "note": 63, "velocity": 109, "channel": 0}, {"type": "note_on", "time": 75, "note": 60, "velocity": 91, "channel": 0}, {"type": "note_off", "time": 132, "note": 60, "velocity": 91, "channel": 0}, {"type": "note_on", "time": 82, "note": 61, "velocity": 102, "channel": 0}, {"type": "note_off", "time": 194, "note": 61, "velocity": 102, "channel": 0}, {"type": "note_on", "time": 116, "note": 64, "velocity": 109, "channel": 0}, {"type": "note_off", "time": 1033, "note": 64, "velocity": 109, "channel": 0}, {"type": "note_on", "time": 91, "note": 61, "velocity": 101, "channel": 0}, {"type": "note_off", "time": 166, "note": 61, "velocity": 101, "channel": 0}, {"type": "note_on", "time": 34, "note": 62, "velocity": 105, "channel": 0}, {"type": "note_off", "time": 157, "note": 62, "velocity": 105, "channel": 0}, {"type": "note_on", "time": 134, "note": 64, "velocity": 109, "channel": 0}, {"type": "note_off", "time": 178, "note": 64, "velocity": 109, "channel": 0}, {"type": "note_on", "time": 916, "note": 62, "velocity": 104, "channel": 0}, {"type": "note_off", "time": 178, "note": 62, "velocity": 104, "channel": 0}, {"type": "note_on", "time": 71, "note": 57, "velocity": 100, "channel": 0}, {"type": "note_off", "time": 207, "note": 57, "velocity": 100, "channel": 0}, {"type": "note_on", "time": 112, "note": 55, "velocity": 91, "channel": 0}, {"type": "note_off", "time": 473, "note": 55, "velocity": 91, "channel": 0}, {"type": "note_on", "time": 41, "note": 55, "velocity": 90, "channel": 0}, {"type": "note_off", "time": 798, "note": 55, "velocity": 90, "channel": 0}, {"type": "note_on", "time": 1818, "note": 57, "velocity": 84, "channel": 0}, {"type": "note_off", "time": 121, "note": 57, "velocity": 84, "channel": 0}, {"type": "note_on", "time": 217, "note": 59, "velocity": 99, "channel": 0}, {"type": "note_off", "time": 106, "note": 59, "velocity": 99, "channel": 0}, {"type": "note_on", "time": 286, "note": 59, "velocity": 94, "channel": 0}, {"type": "note_off", "time": 132, "note": 59, "velocity": 94, "channel": 0}, {"type": "note_on", "time": 23, "note": 61, "velocity": 92, "channel": 0}, {"type": "note_off", "time": 96, "note": 61, "velocity": 92, "channel": 0}, {"type": "note_on", "time": 66, "note": 62, "velocity": 100, "channel": 0}, {"type": "note_off", "time": 175, "note": 62, "velocity": 100, "channel": 0}, {"type": "note_on", "time": 251, "note": 62, "velocity": 99, "channel": 0}, {"type": "note_off", "time": 126, "note": 62, "velocity": 99, "channel": 0}, {"type": "note_on", "time": 55, "note": 64, "velocity": 100, "channel": 0}, {"type": "note_off", "time": 147, "note": 64, "velocity": 100, "channel": 0}, {"type": "note_on", "time": 26, "note": 65, "velocity": 99, "channel": 0}, {"type": "note_off", "time": 215, "note": 65, "velocity": 99, "channel": 0}, {"type": "note_on", "time": 14, "note": 64, "velocity": 105, "channel": 0}, {"type": "note_off", "time": 163, "note": 64, "velocity": 105, "channel": 0}, {"type": "note_on", "time": 8, "note": 62, "velocity": 97, "channel": 0}, {"type": "note_off", "time": 213, "note": 62, "velocity": 97, "channel": 0}, {"type": "note_on", "time": 98, "note": 61, "velocity": 81, "channel": 0}, {"type": "note_off", "time": 79, "note": 61, "velocity": 81, "channel": 0}, {"type": "note_on", "time": 5, "note": 64, "velocity": 104, "channel": 0}, {"type": "note_off", "time": 231, "note": 64, "velocity": 104, "channel": 0}, {"type": "note_on", "time": 35, "note": 61, "velocity": 96, "channel": 0}, {"type": "note_off", "time": 152, "note": 61, "velocity": 96, "channel": 0}, {"type": "note_on", "time": 19, "note": 62, "velocity": 98, "channel": 0}, {"type": "note_off", "time": 168, "note": 62, "velocity": 98, "channel": 0}, {"type": "note_on", "time": 34, "note": 64, "velocity": 99, "channel": 0}, {"type": "note_off", "time": 175, "note": 64, "velocity": 99, "channel": 0}, {"type": "note_on", "time": 24, "note": 65, "velocity": 107, "channel": 0}, {"type": "note_off", "time": 212, "note": 65, "velocity": 107, "channel": 0}, {"type": "note_on", "time": 34, "note": 68, "velocity": 96, "channel": 0}, {"type": "note_off", "time": 128, "note": 68, "velocity": 96, "channel": 0}, {"type": "note_on", "time": 33, "note": 69, "velocity": 112, "channel": 0}, {"type": "note_off", "time": 255, "note": 69, "velocity": 112, "channel": 0}, {"type": "note_on", "time": 12, "note": 66, "velocity": 92, "channel": 0}, {"type": "note_off", "time": 116, "note": 66, "velocity": 92, "channel": 0}, {"type": "note_on", "time": 12, "note": 67, "velocity": 107, "channel": 0}, {"type": "note_off", "time": 205, "note": 67, "velocity": 107, "channel": 0}, {"type": "note_on", "time": 7, "note": 65, "velocity": 105, "channel": 0}, {"type": "note_off", "time": 178, "note": 65, "velocity": 105, "channel": 0}, {"type": "note_on", "time": 19, "note": 64, "velocity": 99, "channel": 0}, {"type": "note_off", "time": 165, "note": 64, "velocity": 99, "channel": 0}, {"type": "note_on", "time": 8, "note": 62, "velocity": 102, "channel": 0}, {"type": "note_off", "time": 198, "note": 62, "velocity": 102, "channel": 0}, {"type": "note_on", "time": 30, "note": 61, "velocity": 101, "channel": 0}, {"type": "note_off", "time": 135, "note": 61, "velocity": 101, "channel": 0}, {"type": "note_on", "time": 272, "note": 64, "velocity": 111, "channel": 0}, {"type": "note_off", "time": 208, "note": 64, "velocity": 111, "channel": 0}, {"type": "note_on", "time": 15, "note": 61, "velocity": 86, "channel": 0}, {"type": "note_off", "time": 114, "note": 61, "velocity": 86, "channel": 0}, {"type": "note_on", "time": 65, "note": 62, "velocity": 107, "channel": 0}, {"type": "note_off", "time": 189, "note": 62, "velocity": 107, "channel": 0}, {"type": "note_on", "time": 48, "note": 64, "velocity": 103, "channel": 0}, {"type": "note_off", "time": 147, "note": 64, "velocity": 103, "channel": 0}, {"type": "note_on", "time": 26, "note": 65, "velocity": 103, "channel": 0}, {"type": "note_off", "time": 224, "note": 65, "velocity": 103, "channel": 0}, {"type": "note_on", "time": 40, "note": 67, "velocity": 96, "channel": 0}, {"type": "note_off", "time": 131, "note": 67, "velocity": 96, "channel": 0}, {"type": "note_on", "time": 5, "note": 69, "velocity": 115, "channel": 0}, {"type": "note_off", "time": 389, "note": 69, "velocity": 115, "channel": 0}, {"type": "note_on", "time": 11, "note": 67, "velocity": 102, "channel": 0}, {"type": "note_off", "time": 295, "note": 67, "velocity": 102, "channel": 0}, {"type": "note_on", "time": 17, "note": 65, "velocity": 82, "channel": 0}, {"type": "note_off", "time": 93, "note": 65, "velocity": 82, "channel": 0}, {"type": "note_on", "time": 25, "note": 67, "velocity": 106, "channel": 0}, {"type": "note_off", "time": 343, "note": 67, "velocity": 106, "channel": 0}, {"type": "note_on", "time": 35, "note": 65, "velocity": 107, "channel": 0}, {"type": "note_off", "time": 218, "note": 65, "velocity": 107, "channel": 0}, {"type": "note_on", "time": 106, "note": 64, "velocity": 74, "channel": 0}, {"type": "note_off", "time": 117, "note": 64, "velocity": 74, "channel": 0}, {"type": "note_on", "time": 50, "note": 65, "velocity": 105, "channel": 0}, {"type": "note_off", "time": 289, "note": 65, "velocity": 105, "channel": 0}, {"type": "note_on", "time": 55, "note": 64, "velocity": 104, "channel": 0}, {"type": "note_off", "time": 228, "note": 64, "velocity": 104, "channel": 0}, {"type": "note_on", "time": 55, "note": 62, "velocity": 82, "channel": 0}, {"type": "note_off", "time": 104, "note": 62, "velocity": 82, "channel": 0}, {"type": "note_on", "time": 44, "note": 64, "velocity": 106, "channel": 0}, {"type": "note_off", "time": 349, "note": 64, "velocity": 106, "channel": 0}, {"type": "note_on", "time": 68, "note": 62, "velocity": 105, "channel": 0}, {"type": "note_off", "time": 193, "note": 62, "velocity": 105, "channel": 0}, {"type": "note_on", "time": 107, "note": 59, "velocity": 81, "channel": 0}, {"type": "note_off", "time": 68, "note": 59, "velocity": 81, "channel": 0}, {"type": "note_on", "time": 5, "note": 62, "velocity": 102, "channel": 0}, {"type": "note_off", "time": 414, "note": 62, "velocity": 102, "channel": 0}, {"type": "note_on", "time": 32, "note": 61, "velocity": 102, "channel": 0}, {"type": "note_off", "time": 223, "note": 61, "velocity": 102, "channel": 0}, {"type": "note_on", "time": 68, "note": 58, "velocity": 89, "channel": 0}, {"type": "note_off", "time": 71, "note": 58, "velocity": 89, "channel": 0}, {"type": "note_on", "time": 52, "note": 61, "velocity": 102, "channel": 0}, {"type": "note_off", "time": 335, "note": 61, "velocity": 102, "channel": 0}, {"type": "note_on", "time": 80, "note": 59, "velocity": 101, "channel": 0}, {"type": "note_off", "time": 206, "note": 59, "velocity": 101, "channel": 0}, {"type": "note_on", "time": 54, "note": 57, "velocity": 83, "channel": 0}, {"type": "note_off", "time": 110, "note": 57, "velocity": 83, "channel": 0}, {"type": "note_on", "time": 36, "note": 59, "velocity": 100, "channel": 0}, {"type": "note_off", "time": 321, "note": 59, "velocity": 100, "channel": 0}, {"type": "note_on", "time": 42, "note": 59, "velocity": 92, "channel": 0}, {"type": "note_off", "time": 150, "note": 59, "velocity": 92, "channel": 0}, {"type": "note_on", "time": 1190, "note": 64, "velocity": 106, "channel": 0}, {"type": "note_off", "time": 187, "note": 64, "velocity": 106, "channel": 0}, {"type": "note_on", "time": 17, "note": 65, "velocity": 106, "channel": 0}, {"type": "note_off", "time": 128, "note": 65, "velocity": 106, "channel": 0}, {"type": "note_on", "time": 34, "note": 64, "velocity": 109, "channel": 0}, {"type": "note_off", "time": 185, "note": 64, "velocity": 109, "channel": 0}, {"type": "note_on", "time": 6, "note": 62, "velocity": 103, "channel": 0}, {"type": "note_off", "time": 163, "note": 62, "velocity": 103, "channel": 0}, {"type": "note_on", "time": 94, "note": 61, "velocity": 91, "channel": 0}, {"type": "note_off", "time": 111, "note": 61, "velocity": 91, "channel": 0}, {"type": "note_on", "time": 90, "note": 64, "velocity": 101, "channel": 0}, {"type": "note_off", "time": 158, "note": 64, "velocity": 101, "channel": 0}, {"type": "note_on", "time": 9, "note": 67, "velocity": 115, "channel": 0}, {"type": "note_on", "time": 235, "note": 69, "velocity": 109, "channel": 0}, {"type": "note_off", "time": 0, "note": 67, "velocity": 115, "channel": 0}, {"type": "note_off", "time": 147, "note": 69, "velocity": 109, "channel": 0}, {"type": "note_on", "time": 20, "note": 70, "velocity": 123, "channel": 0}, {"type": "note_off", "time": 421, "note": 70, "velocity": 123, "channel": 0}, {"type": "note_on", "time": 71, "note": 64, "velocity": 90, "channel": 0}, {"type": "note_off", "time": 111, "note": 64, "velocity": 90, "channel": 0}, {"type": "note_on", "time": 86, "note": 69, "velocity": 109, "channel": 0}, {"type": "note_off", "time": 782, "note": 69, "velocity": 109, "channel": 0}, {"type": "note_on", "time": 142, "note": 67, "velocity": 106, "channel": 0}, {"type": "note_off", "time": 142, "note": 67, "velocity": 106, "channel": 0}, {"type": "note_on", "time": 55, "note": 66, "velocity": 110, "channel": 0}, {"type": "note_off", "time": 116, "note": 66, "velocity": 110, "channel": 0}, {"type": "note_on", "time": 30, "note": 66, "velocity": 110, "channel": 0}, {"type": "note_off", "time": 157, "note": 66, "velocity": 110, "channel": 0}, {"type": "note_on", "time": 47, "note": 64, "velocity": 104, "channel": 0}, {"type": "note_off", "time": 193, "note": 64, "velocity": 104, "channel": 0}, {"type": "note_on", "time": 244, "note": 62, "velocity": 102, "channel": 0}, {"type": "note_off", "time": 154, "note": 62, "velocity": 102, "channel": 0}, {"type": "note_on", "time": 225, "note": 61, "velocity": 100, "channel": 0}, {"type": "note_off", "time": 209, "note": 61, "velocity": 100, "channel": 0}, {"type": "note_on", "time": 25, "note": 60, "velocity": 94, "channel": 0}, {"type": "note_off", "time": 182, "note": 60, "velocity": 94, "channel": 0}, {"type": "note_on", "time": 220, "note": 64, "velocity": 112, "channel": 0}, {"type": "note_off", "time": 467, "note": 64, "velocity": 112, "channel": 0}, {"type": "note_on", "time": 140, "note": 62, "velocity": 105, "channel": 0}, {"type": "note_off", "time": 533, "note": 62, "velocity": 105, "channel": 0}, {"type": "note_on", "time": 113, "note": 60, "velocity": 100, "channel": 0}, {"type": "note_off", "time": 142, "note": 60, "velocity": 100, "channel": 0}, {"type": "note_on", "time": 39, "note": 59, "velocity": 93, "channel": 0}, {"type": "note_off", "time": 152, "note": 59, "velocity": 93, "channel": 0}, {"type": "note_on", "time": 265, "note": 59, "velocity": 95, "channel": 0}, {"type": "note_off", "time": 171, "note": 59, "velocity": 95, "channel": 0}, {"type": "note_on", "time": 25, "note": 60, "velocity": 95, "channel": 0}, {"type": "note_off", "time": 137, "note": 60, "velocity": 95, "channel": 0}, {"type": "note_on", "time": 13, "note": 62, "velocity": 108, "channel": 0}, {"type": "note_off", "time": 195, "note": 62, "velocity": 108, "channel": 0}, {"type": "note_on", "time": 54, "note": 64, "velocity": 109, "channel": 0}, {"type": "note_off", "time": 152, "note": 64, "velocity": 109, "channel": 0}, {"type": "note_on", "time": 19, "note": 65, "velocity": 109, "channel": 0}, {"type": "note_off", "time": 243, "note": 65, "velocity": 109, "channel": 0}, {"type": "note_on", "time": 3, "note": 67, "velocity": 105, "channel": 0}, {"type": "note_off", "time": 156, "note": 67, "velocity": 105, "channel": 0}, {"type": "note_on", "time": 15, "note": 69, "velocity": 117, "channel": 0}, {"type": "note_off", "time": 203, "note": 69, "velocity": 117, "channel": 0}, {"type": "note_on", "time": 220, "note": 72, "velocity": 123, "channel": 0}, {"type": "note_off", "time": 398, "note": 72, "velocity": 123, "channel": 0}, {"type": "note_on", "time": 42, "note": 71, "velocity": 119, "channel": 0}, {"type": "note_off", "time": 428, "note": 71, "velocity": 119, "channel": 0}, {"type": "note_on", "time": 9, "note": 69, "velocity": 113, "channel": 0}, {"type": "note_off", "time": 360, "note": 69, "velocity": 113, "channel": 0}, {"type": "note_on", "time": 11, "note": 70, "velocity": 112, "channel": 0}, {"type": "note_off", "time": 309, "note": 70, "velocity": 112, "channel": 0}, {"type": "note_on", "time": 1169, "note": 62, "velocity": 85, "channel": 0}, {"type": "note_off", "time": 172, "note": 62, "velocity": 85, "channel": 0}, {"type": "note_on", "time": 146, "note": 69, "velocity": 120, "channel": 0}, {"type": "note_off", "time": 492, "note": 69, "velocity": 120, "channel": 0}, {"type": "note_on", "time": 40, "note": 67, "velocity": 114, "channel": 0}, {"type": "note_off", "time": 782, "note": 67, "velocity": 114, "channel": 0}, {"type": "note_on", "time": 441, "note": 70, "velocity": 115, "channel": 0}, {"type": "note_off", "time": 244, "note": 70, "velocity": 115, "channel": 0}, {"type": "note_on", "time": 9, "note": 67, "velocity": 106, "channel": 0}, {"type": "note_off", "time": 213, "note": 67, "velocity": 106, "channel": 0}, {"type": "note_on", "time": 6, "note": 64, "velocity": 102, "channel": 0}, {"type": "note_off", "time": 206, "note": 64, "velocity": 102, "channel": 0}, {"type": "note_on", "time": 47, "note": 60, "velocity": 95, "channel": 0}, {"type": "note_off", "time": 161, "note": 60, "velocity": 95, "channel": 0}, {"type": "note_on", "time": 129, "note": 69, "velocity": 105, "channel": 0}, {"type": "note_off", "time": 169, "note": 69, "velocity": 105, "channel": 0}, {"type": "note_on", "time": 65, "note": 65, "velocity": 107, "channel": 0}, {"type": "note_off", "time": 218, "note": 65, "velocity": 107, "channel": 0}, {"type": "note_on", "time": 34, "note": 62, "velocity": 104, "channel": 0}, {"type": "note_off", "time": 204, "note": 62, "velocity": 104, "channel": 0}, {"type": "note_on", "time": 28, "note": 58, "velocity": 96, "channel": 0}, {"type": "note_off", "time": 179, "note": 58, "velocity": 96, "channel": 0}, {"type": "note_on", "time": 159, "note": 67, "velocity": 113, "channel": 0}, {"type": "note_off", "time": 232, "note": 67, "velocity": 113, "channel": 0}, {"type": "note_on", "time": 69, "note": 63, "velocity": 105, "channel": 0}, {"type": "note_off", "time": 176, "note": 63, "velocity": 105, "channel": 0}, {"type": "note_on", "time": 47, "note": 60, "velocity": 99, "channel": 0}, {"type": "note_off", "time": 175, "note": 60, "velocity": 99, "channel": 0}, {"type": "note_on", "time": 29, "note": 57, "velocity": 97, "channel": 0}, {"type": "note_off", "time": 182, "note": 57, "velocity": 97, "channel": 0}, {"type": "note_on", "time": 159, "note": 65, "velocity": 110, "channel": 0}, {"type": "note_off", "time": 309, "note": 65, "velocity": 110, "channel": 0}, {"type": "note_on", "time": 1162, "note": 62, "velocity": 113, "channel": 0}, {"type": "note_off", "time": 238, "note": 62, "velocity": 113, "channel": 0}, {"type": "note_on", "time": 119, "note": 60, "velocity": 101, "channel": 0}, {"type": "note_off", "time": 222, "note": 60, "velocity": 101, "channel": 0}, {"type": "note_on", "time": 273, "note": 58, "velocity": 105, "channel": 0}, {"type": "note_off", "time": 203, "note": 58, "velocity": 105, "channel": 0}, {"type": "note_on", "time": 121, "note": 60, "velocity": 105, "channel": 0}, {"type": "note_off", "time": 152, "note": 60, "velocity": 105, "channel": 0}, {"type": "note_on", "time": 345, "note": 58, "velocity": 108, "channel": 0}, {"type": "note_off", "time": 228, "note": 58, "velocity": 108, "channel": 0}, {"type": "note_on", "time": 82, "note": 57, "velocity": 106, "channel": 0}, {"type": "note_off", "time": 2331, "note": 57, "velocity": 106, "channel": 0}, {"type": "note_on", "time": 938, "note": 72, "velocity": 127, "channel": 0}, {"type": "note_off", "time": 328, "note": 72, "velocity": 127, "channel": 0}, {"type": "note_on", "time": 1398, "note": 57, "velocity": 103, "channel": 0}, {"type": "note_off", "time": 1828, "note": 57, "velocity": 103, "channel": 0}, {"type": "note_on", "time": 253, "note": 60, "velocity": 101, "channel": 0}, {"type": "note_off", "time": 190, "note": 60, "velocity": 101, "channel": 0}, {"type": "note_on", "time": 11, "note": 61, "velocity": 96, "channel": 0}, {"type": "note_off", "time": 158, "note": 61, "velocity": 96, "channel": 0}, {"type": "note_on", "time": 16, "note": 62, "velocity": 102, "channel": 0}, {"type": "note_off", "time": 177, "note": 62, "velocity": 102, "channel": 0}, {"type": "note_on", "time": 39, "note": 64, "velocity": 111, "channel": 0}, {"type": "note_off", "time": 160, "note": 64, "velocity": 111, "channel": 0}, {"type": "note_on", "time": 14, "note": 65, "velocity": 111, "channel": 0}, {"type": "note_off", "time": 201, "note": 65, "velocity": 111, "channel": 0}, {"type": "note_on", "time": 41, "note": 67, "velocity": 109, "channel": 0}, {"type": "note_off", "time": 165, "note": 67, "velocity": 109, "channel": 0}, {"type": "note_on", "time": 3, "note": 69, "velocity": 115, "channel": 0}, {"type": "note_off", "time": 130, "note": 69, "velocity": 115, "channel": 0}, {"type": "note_on", "time": 300, "note": 70, "velocity": 120, "channel": 0}, {"type": "note_off", "time": 340, "note": 70, "velocity": 120, "channel": 0}, {"type": "note_on", "time": 87, "note": 72, "velocity": 120, "channel": 0}, {"type": "note_off", "time": 526, "note": 72, "velocity": 120, "channel": 0}, {"type": "note_on", "time": 64, "note": 70, "velocity": 114, "channel": 0}, {"type": "note_off", "time": 194, "note": 70, "velocity": 114, "channel": 0}, {"type": "note_on", "time": 56, "note": 69, "velocity": 113, "channel": 0}, {"type": "note_off", "time": 212, "note": 69, "velocity": 113, "channel": 0}, {"type": "note_on", "time": 44, "note": 70, "velocity": 111, "channel": 0}, {"type": "note_off", "time": 213, "note": 70, "velocity": 111, "channel": 0}, {"type": "note_on", "time": 137, "note": 67, "velocity": 104, "channel": 0}, {"type": "note_off", "time": 186, "note": 67, "velocity": 104, "channel": 0}, {"type": "note_on", "time": 7, "note": 69, "velocity": 113, "channel": 0}, {"type": "note_off", "time": 218, "note": 69, "velocity": 113, "channel": 0}, {"type": "note_on", "time": 158, "note": 65, "velocity": 104, "channel": 0}, {"type": "note_off", "time": 236, "note": 65, "velocity": 104, "channel": 0}, {"type": "note_on", "time": 8, "note": 67, "velocity": 115, "channel": 0}, {"type": "note_off", "time": 196, "note": 67, "velocity": 115, "channel": 0}, {"type": "note_on", "time": 202, "note": 64, "velocity": 105, "channel": 0}, {"type": "note_off", "time": 152, "note": 64, "velocity": 105, "channel": 0}, {"type": "note_on", "time": 23, "note": 65, "velocity": 114, "channel": 0}, {"type": "note_off", "time": 371, "note": 65, "velocity": 114, "channel": 0}, {"type": "note_on", "time": 95, "note": 61, "velocity": 105, "channel": 0}, {"type": "note_off", "time": 194, "note": 61, "velocity": 105, "channel": 0}, {"type": "note_on", "time": 13, "note": 64, "velocity": 105, "channel": 0}, {"type": "note_off", "time": 233, "note": 64, "velocity": 105, "channel": 0}, {"type": "note_on", "time": 129, "note": 61, "velocity": 97, "channel": 0}, {"type": "note_off", "time": 169, "note": 61, "velocity": 97, "channel": 0}, {"type": "note_on", "time": 6, "note": 62, "velocity": 104, "channel": 0}, {"type": "note_off", "time": 240, "note": 62, "velocity": 104, "channel": 0}, {"type": "note_on", "time": 26, "note": 57, "velocity": 97, "channel": 0}, {"type": "note_off", "time": 181, "note": 57, "velocity": 97, "channel": 0}, {"type": "note_on", "time": 379, "note": 57, "velocity": 90, "channel": 0}, {"type": "note_off", "time": 676, "note": 57, "velocity": 90, "channel": 0}, {"type": "note_on", "time": 1579, "note": 55, "velocity": 83, "channel": 0}, {"type": "note_off", "time": 167, "note": 55, "velocity": 83, "channel": 0}, {"type": "note_on", "time": 10, "note": 57, "velocity": 92, "channel": 0}, {"type": "note_off", "time": 113, "note": 57, "velocity": 92, "channel": 0}, {"type": "note_on", "time": 21, "note": 58, "velocity": 99, "channel": 0}, {"type": "note_off", "time": 215, "note": 58, "velocity": 99, "channel": 0}, {"type": "note_on", "time": 191, "note": 58, "velocity": 94, "channel": 0}, {"type": "note_off", "time": 182, "note": 58, "velocity": 94, "channel": 0}, {"type": "note_on", "time": 41, "note": 60, "velocity": 90, "channel": 0}, {"type": "note_off", "time": 163, "note": 60, "velocity": 90, "channel": 0}, {"type": "note_on", "time": 17, "note": 61, "velocity": 99, "channel": 0}, {"type": "note_off", "time": 187, "note": 61, "velocity": 99, "channel": 0}, {"type": "note_on", "time": 39, "note": 60, "velocity": 101, "channel": 0}, {"type": "note_off", "time": 194, "note": 60, "velocity": 101, "channel": 0}, {"type": "note_on", "time": 5, "note": 58, "velocity": 101, "channel": 0}, {"type": "note_off", "time": 246, "note": 58, "velocity": 101, "channel": 0}, {"type": "note_on", "time": 17, "note": 57, "velocity": 98, "channel": 0}, {"type": "note_off", "time": 120, "note": 57, "velocity": 98, "channel": 0}, {"type": "note_on", "time": 10, "note": 56, "velocity": 96, "channel": 0}, {"type": "note_off", "time": 247, "note": 56, "velocity": 96, "channel": 0}, {"type": "note_on", "time": 28, "note": 53, "velocity": 95, "channel": 0}, {"type": "note_off", "time": 144, "note": 53, "velocity": 95, "channel": 0}, {"type": "note_on", "time": 55, "note": 52, "velocity": 92, "channel": 0}, {"type": "note_off", "time": 161, "note": 52, "velocity": 92, "channel": 0}, {"type": "note_on", "time": 642, "note": 55, "velocity": 102, "channel": 0}, {"type": "note_off", "time": 210, "note": 55, "velocity": 102, "channel": 0}, {"type": "note_on", "time": 7, "note": 57, "velocity": 105, "channel": 0}, {"type": "note_off", "time": 893, "note": 57, "velocity": 105, "channel": 0}, {"type": "note_on", "time": 205, "note": 59, "velocity": 103, "channel": 0}, {"type": "note_off", "time": 487, "note": 59, "velocity": 103, "channel": 0}, {"type": "note_on", "time": 73, "note": 61, "velocity": 100, "channel": 0}, {"type": "note_off", "time": 149, "note": 61, "velocity": 100, "channel": 0}, {"type": "note_on", "time": 15, "note": 62, "velocity": 104, "channel": 0}, {"type": "note_off", "time": 176, "note": 62, "velocity": 104, "channel": 0}, {"type": "note_on", "time": 122, "note": 61, "velocity": 91, "channel": 0}, {"type": "note_off", "time": 89, "note": 61, "velocity": 91, "channel": 0}, {"type": "note_on", "time": 67, "note": 62, "velocity": 103, "channel": 0}, {"type": "note_off", "time": 167, "note": 62, "velocity": 103, "channel": 0}, {"type": "note_on", "time": 49, "note": 64, "velocity": 102, "channel": 0}, {"type": "note_off", "time": 165, "note": 64, "velocity": 102, "channel": 0}, {"type": "note_on", "time": 15, "note": 65, "velocity": 111, "channel": 0}, {"type": "note_off", "time": 172, "note": 65, "velocity": 111, "channel": 0}, {"type": "note_on", "time": 31, "note": 64, "velocity": 104, "channel": 0}, {"type": "note_off", "time": 155, "note": 64, "velocity": 104, "channel": 0}, {"type": "note_on", "time": 21, "note": 65, "velocity": 103, "channel": 0}, {"type": "note_off", "time": 185, "note": 65, "velocity": 103, "channel": 0}, {"type": "note_on", "time": 24, "note": 65, "velocity": 103, "channel": 0}, {"type": "note_off", "time": 169, "note": 65, "velocity": 103, "channel": 0}, {"type": "note_on", "time": 46, "note": 65, "velocity": 108, "channel": 0}, {"type": "note_off", "time": 164, "note": 65, "velocity": 108, "channel": 0}, {"type": "note_on", "time": 37, "note": 64, "velocity": 102, "channel": 0}, {"type": "note_off", "time": 133, "note": 64, "velocity": 102, "channel": 0}, {"type": "note_on", "time": 39, "note": 65, "velocity": 110, "channel": 0}, {"type": "note_off", "time": 182, "note": 65, "velocity": 110, "channel": 0}, {"type": "note_on", "time": 34, "note": 64, "velocity": 96, "channel": 0}, {"type": "note_off", "time": 151, "note": 64, "velocity": 96, "channel": 0}, {"type": "note_on", "time": 34, "note": 65, "velocity": 104, "channel": 0}, {"type": "note_off", "time": 210, "note": 65, "velocity": 104, "channel": 0}, {"type": "note_on", "time": 15, "note": 67, "velocity": 111, "channel": 0}, {"type": "note_off", "time": 162, "note": 67, "velocity": 111, "channel": 0}, {"type": "note_on", "time": 18, "note": 68, "velocity": 116, "channel": 0}, {"type": "note_off", "time": 159, "note": 68, "velocity": 116, "channel": 0}, {"type": "note_on", "time": 50, "note": 67, "velocity": 106, "channel": 0}, {"type": "note_off", "time": 173, "note": 67, "velocity": 106, "channel": 0}, {"type": "note_on", "time": 31, "note": 68, "velocity": 117, "channel": 0}, {"type": "note_off", "time": 166, "note": 68, "velocity": 117, "channel": 0}, {"type": "note_on", "time": 53, "note": 67, "velocity": 108, "channel": 0}, {"type": "note_off", "time": 171, "note": 67, "velocity": 108, "channel": 0}, {"type": "note_on", "time": 19, "note": 68, "velocity": 112, "channel": 0}, {"type": "note_off", "time": 168, "note": 68, "velocity": 112, "channel": 0}, {"type": "note_on", "time": 34, "note": 67, "velocity": 98, "channel": 0}, {"type": "note_off", "time": 156, "note": 67, "velocity": 98, "channel": 0}, {"type": "note_on", "time": 20, "note": 68, "velocity": 118, "channel": 0}, {"type": "note_off", "time": 163, "note": 68, "velocity": 118, "channel": 0}, {"type": "note_on", "time": 50, "note": 67, "velocity": 108, "channel": 0}, {"type": "note_off", "time": 153, "note": 67, "velocity": 108, "channel": 0}, {"type": "note_on", "time": 6, "note": 65, "velocity": 107, "channel": 0}, {"type": "note_off", "time": 203, "note": 65, "velocity": 107, "channel": 0}, {"type": "note_on", "time": 788, "note": 69, "velocity": 111, "channel": 0}, {"type": "note_off", "time": 274, "note": 69, "velocity": 111, "channel": 0}, {"type": "note_on", "time": 68, "note": 67, "velocity": 112, "channel": 0}, {"type": "note_off", "time": 523, "note": 67, "velocity": 112, "channel": 0}, {"type": "note_on", "time": 67, "note": 65, "velocity": 97, "channel": 0}, {"type": "note_off", "time": 162, "note": 65, "velocity": 97, "channel": 0}, {"type": "note_on", "time": 33, "note": 67, "velocity": 113, "channel": 0}, {"type": "note_off", "time": 1147, "note": 67, "velocity": 113, "channel": 0}, {"type": "note_on", "time": 266, "note": 65, "velocity": 110, "channel": 0}, {"type": "note_off", "time": 147, "note": 65, "velocity": 110, "channel": 0}, {"type": "note_on", "time": 50, "note": 64, "velocity": 112, "channel": 0}, {"type": "note_off", "time": 132, "note": 64, "velocity": 112, "channel": 0}, {"type": "note_on", "time": 147, "note": 58, "velocity": 101, "channel": 0}, {"type": "note_off", "time": 167, "note": 58, "velocity": 101, "channel": 0}, {"type": "note_on", "time": 454, "note": 58, "velocity": 94, "channel": 0}, {"type": "note_off", "time": 657, "note": 58, "velocity": 94, "channel": 0}, {"type": "note_on", "time": 2819, "note": 65, "velocity": 108, "channel": 0}, {"type": "note_off", "time": 162, "note": 65, "velocity": 108, "channel": 0}, {"type": "note_on", "time": 88, "note": 64, "velocity": 109, "channel": 0}, {"type": "note_off", "time": 202, "note": 64, "velocity": 109, "channel": 0}, {"type": "note_on", "time": 34, "note": 62, "velocity": 107, "channel": 0}, {"type": "note_off", "time": 203, "note": 62, "velocity": 107, "channel": 0}, {"type": "note_on", "time": 147, "note": 61, "velocity": 104, "channel": 0}, {"type": "note_off", "time": 295, "note": 61, "velocity": 104, "channel": 0}, {"type": "note_on", "time": 184, "note": 58, "velocity": 105, "channel": 0}, {"type": "note_off", "time": 288, "note": 58, "velocity": 105, "channel": 0}, {"type": "note_on", "time": 80, "note": 57, "velocity": 104, "channel": 0}, {"type": "note_off", "time": 275, "note": 57, "velocity": 104, "channel": 0}, {"type": "note_on", "time": 216, "note": 55, "velocity": 100, "channel": 0}, {"type": "note_off", "time": 254, "note": 55, "velocity": 100, "channel": 0}, {"type": "note_on", "time": 62, "note": 54, "velocity": 96, "channel": 0}, {"type": "note_off", "time": 264, "note": 54, "velocity": 96, "channel": 0}, {"type": "note_on", "time": 209, "note": 57, "velocity": 107, "channel": 0}, {"type": "note_off", "time": 198, "note": 57, "velocity": 107, "channel": 0}, {"type": "note_on", "time": 139, "note": 60, "velocity": 101, "channel": 0}, {"type": "note_off", "time": 243, "note": 60, "velocity": 101, "channel": 0}, {"type": "note_on", "time": 195, "note": 64, "velocity": 115, "channel": 0}, {"type": "note_off", "time": 304, "note": 64, "velocity": 115, "channel": 0}, {"type": "note_on", "time": 220, "note": 71, "velocity": 126, "channel": 0}, {"type": "note_off", "time": 294, "note": 71, "velocity": 126, "channel": 0}, {"type": "note_on", "time": 16, "note": 72, "velocity": 123, "channel": 0}, {"type": "note_off", "time": 289, "note": 72, "velocity": 123, "channel": 0}, {"type": "note_on", "time": 203, "note": 69, "velocity": 118, "channel": 0}, {"type": "note_off", "time": 314, "note": 69, "velocity": 118, "channel": 0}, {"type": "note_on", "time": 15, "note": 71, "velocity": 118, "channel": 0}, {"type": "note_off", "time": 264, "note": 71, "velocity": 118, "channel": 0}, {"type": "note_on", "time": 254, "note": 67, "velocity": 117, "channel": 0}, {"type": "note_off", "time": 244, "note": 67, "velocity": 117, "channel": 0}, {"type": "note_on", "time": 24, "note": 69, "velocity": 114, "channel": 0}, {"type": "note_off", "time": 264, "note": 69, "velocity": 114, "channel": 0}, {"type": "note_on", "time": 223, "note": 65, "velocity": 111, "channel": 0}, {"type": "note_off", "time": 266, "note": 65, "velocity": 111, "channel": 0}, {"type": "note_on", "time": 25, "note": 67, "velocity": 115, "channel": 0}, {"type": "note_off", "time": 301, "note": 67, "velocity": 115, "channel": 0}, {"type": "note_on", "time": 173, "note": 64, "velocity": 112, "channel": 0}, {"type": "note_off", "time": 243, "note": 64, "velocity": 112, "channel": 0}, {"type": "note_on", "time": 45, "note": 65, "velocity": 109, "channel": 0}, {"type": "note_off", "time": 289, "note": 65, "velocity": 109, "channel": 0}, {"type": "note_on", "time": 170, "note": 62, "velocity": 105, "channel": 0}, {"type": "note_off", "time": 261, "note": 62, "velocity": 105, "channel": 0}, {"type": "note_on", "time": 48, "note": 64, "velocity": 114, "channel": 0}, {"type": "note_off", "time": 309, "note": 64, "velocity": 114, "channel": 0}, {"type": "note_on", "time": 266, "note": 60, "velocity": 104, "channel": 0}, {"type": "note_off", "time": 655, "note": 60, "velocity": 104, "channel": 0}, {"type": "note_on", "time": 284, "note": 55, "velocity": 93, "channel": 0}, {"type": "note_off", "time": 222, "note": 55, "velocity": 93, "channel": 0}, {"type": "note_on", "time": 190, "note": 57, "velocity": 97, "channel": 0}, {"type": "note_off", "time": 308, "note": 57, "velocity": 97, "channel": 0}, {"type": "note_on", "time": 17, "note": 58, "velocity": 101, "channel": 0}, {"type": "note_off", "time": 472, "note": 58, "velocity": 101, "channel": 0}, {"type": "note_on", "time": 19, "note": 62, "velocity": 110, "channel": 0}, {"type": "note_off", "time": 259, "note": 62, "velocity": 110, "channel": 0}, {"type": "note_on", "time": 171, "note": 69, "velocity": 114, "channel": 0}, {"type": "note_off", "time": 391, "note": 69, "velocity": 114, "channel": 0}, {"type": "note_on", "time": 53, "note": 67, "velocity": 115, "channel": 0}, {"type": "note_off", "time": 320, "note": 67, "velocity": 115, "channel": 0}, {"type": "note_on", "time": 103, "note": 65, "velocity": 105, "channel": 0}, {"type": "note_off", "time": 91, "note": 65, "velocity": 105, "channel": 0}, {"type": "note_on", "time": 12, "note": 64, "velocity": 106, "channel": 0}, {"type": "note_off", "time": 126, "note": 64, "velocity": 106, "channel": 0}, {"type": "note_on", "time": 18, "note": 65, "velocity": 111, "channel": 0}, {"type": "note_off", "time": 929, "note": 65, "velocity": 111, "channel": 0}, {"type": "note_on", "time": 111, "note": 64, "velocity": 112, "channel": 0}, {"type": "note_off", "time": 259, "note": 64, "velocity": 112, "channel": 0}, {"type": "note_on", "time": 63, "note": 63, "velocity": 108, "channel": 0}, {"type": "note_off", "time": 307, "note": 63, "velocity": 108, "channel": 0}, {"type": "note_on", "time": 248, "note": 58, "velocity": 102, "channel": 0}, {"type": "note_off", "time": 205, "note": 58, "velocity": 102, "channel": 0}, {"type": "note_on", "time": 52, "note": 62, "velocity": 110, "channel": 0}, {"type": "note_off", "time": 262, "note": 62, "velocity": 110, "channel": 0}, {"type": "note_on", "time": 312, "note": 57, "velocity": 102, "channel": 0}, {"type": "note_off", "time": 172, "note": 57, "velocity": 102, "channel": 0}, {"type": "note_on", "time": 58, "note": 60, "velocity": 108, "channel": 0}, {"type": "note_off", "time": 266, "note": 60, "velocity": 108, "channel": 0}, {"type": "note_on", "time": 1163, "note": 58, "velocity": 114, "channel": 0}, {"type": "note_off", "time": 233, "note": 58, "velocity": 114, "channel": 0}, {"type": "note_on", "time": 123, "note": 57, "velocity": 107, "channel": 0}, {"type": "note_off", "time": 326, "note": 57, "velocity": 107, "channel": 0}, {"type": "note_on", "time": 180, "note": 58, "velocity": 111, "channel": 0}, {"type": "note_off", "time": 238, "note": 58, "velocity": 111, "channel": 0}, {"type": "note_on", "time": 85, "note": 62, "velocity": 110, "channel": 0}, {"type": "note_off", "time": 243, "note": 62, "velocity": 110, "channel": 0}, {"type": "note_on", "time": 201, "note": 64, "velocity": 118, "channel": 0}, {"type": "note_off", "time": 286, "note": 64, "velocity": 118, "channel": 0}, {"type": "note_on", "time": 29, "note": 65, "velocity": 118, "channel": 0}, {"type": "note_off", "time": 298, "note": 65, "velocity": 118, "channel": 0}, {"type": "note_on", "time": 631, "note": 57, "velocity": 109, "channel": 0}, {"type": "note_off", "time": 560, "note": 57, "velocity": 109, "channel": 0}, {"type": "note_on", "time": 249, "note": 62, "velocity": 115, "channel": 0}, {"type": "note_off", "time": 230, "note": 62, "velocity": 115, "channel": 0}, {"type": "note_on", "time": 10, "note": 64, "velocity": 116, "channel": 0}, {"type": "note_off", "time": 175, "note": 64, "velocity": 116, "channel": 0}, {"type": "note_on", "time": 20, "note": 65, "velocity": 114, "channel": 0}, {"type": "note_off", "time": 225, "note": 65, "velocity": 114, "channel": 0}, {"type": "note_on", "time": 678, "note": 58, "velocity": 112, "channel": 0}, {"type": "note_off", "time": 198, "note": 58, "velocity": 112, "channel": 0}, {"type": "note_on", "time": 187, "note": 63, "velocity": 118, "channel": 0}, {"type": "note_off", "time": 162, "note": 63, "velocity": 118, "channel": 0}, {"type": "note_on", "time": 57, "note": 65, "velocity": 116, "channel": 0}, {"type": "note_off", "time": 132, "note": 65, "velocity": 116, "channel": 0}, {"type": "note_on", "time": 73, "note": 67, "velocity": 116, "channel": 0}, {"type": "note_off", "time": 223, "note": 67, "velocity": 116, "channel": 0}, {"type": "note_on", "time": 707, "note": 58, "velocity": 112, "channel": 0}, {"type": "note_off", "time": 187, "note": 58, "velocity": 112, "channel": 0}, {"type": "note_on", "time": 138, "note": 63, "velocity": 123, "channel": 0}, {"type": "note_off", "time": 162, "note": 63, "velocity": 123, "channel": 0}, {"type": "note_on", "time": 73, "note": 65, "velocity": 115, "channel": 0}, {"type": "note_off", "time": 167, "note": 65, "velocity": 115, "channel": 0}, {"type": "note_on", "time": 40, "note": 67, "velocity": 117, "channel": 0}, {"type": "note_off", "time": 242, "note": 67, "velocity": 117, "channel": 0}, {"type": "note_on", "time": 803, "note": 57, "velocity": 101, "channel": 0}, {"type": "note_off", "time": 114, "note": 57, "velocity": 101, "channel": 0}, {"type": "note_on", "time": 48, "note": 62, "velocity": 105, "channel": 0}, {"type": "note_off", "time": 147, "note": 62, "velocity": 105, "channel": 0}, {"type": "note_on", "time": 25, "note": 64, "velocity": 111, "channel": 0}, {"type": "note_off", "time": 200, "note": 64, "velocity": 111, "channel": 0}, {"type": "note_on", "time": 11, "note": 65, "velocity": 106, "channel": 0}, {"type": "note_off", "time": 220, "note": 65, "velocity": 106, "channel": 0}, {"type": "note_on", "time": 22, "note": 67, "velocity": 102, "channel": 0}, {"type": "note_off", "time": 139, "note": 67, "velocity": 102, "channel": 0}, {"type": "note_on", "time": 14, "note": 69, "velocity": 111, "channel": 0}, {"type": "note_off", "time": 184, "note": 69, "velocity": 111, "channel": 0}, {"type": "note_on", "time": 195, "note": 69, "velocity": 106, "channel": 0}, {"type": "note_off", "time": 208, "note": 69, "velocity": 106, "channel": 0}, {"type": "note_on", "time": 221, "note": 69, "velocity": 109, "channel": 0}, {"type": "note_off", "time": 172, "note": 69, "velocity": 109, "channel": 0}, {"type": "note_on", "time": 202, "note": 69, "velocity": 119, "channel": 0}, {"type": "note_off", "time": 218, "note": 69, "velocity": 119, "channel": 0}, {"type": "note_on", "time": 43, "note": 69, "velocity": 123, "channel": 0}, {"type": "note_off", "time": 198, "note": 69, "velocity": 123, "channel": 0}, {"type": "note_on", "time": 200, "note": 70, "velocity": 121, "channel": 0}, {"type": "note_off", "time": 492, "note": 70, "velocity": 121, "channel": 0}, {"type": "note_on", "time": 150, "note": 69, "velocity": 119, "channel": 0}, {"type": "note_off", "time": 180, "note": 69, "velocity": 119, "channel": 0}, {"type": "note_on", "time": 9, "note": 67, "velocity": 108, "channel": 0}, {"type": "note_off", "time": 163, "note": 67, "velocity": 108, "channel": 0}, {"type": "note_on", "time": 12, "note": 65, "velocity": 102, "channel": 0}, {"type": "note_off", "time": 212, "note": 65, "velocity": 102, "channel": 0}, {"type": "note_on", "time": 236, "note": 67, "velocity": 119, "channel": 0}, {"type": "note_off", "time": 538, "note": 67, "velocity": 119, "channel": 0}, {"type": "note_on", "time": 55, "note": 65, "velocity": 112, "channel": 0}, {"type": "note_off", "time": 162, "note": 65, "velocity": 112, "channel": 0}, {"type": "note_on", "time": 27, "note": 64, "velocity": 111, "channel": 0}, {"type": "note_off", "time": 176, "note": 64, "velocity": 111, "channel": 0}, {"type": "note_on", "time": 24, "note": 62, "velocity": 110, "channel": 0}, {"type": "note_off", "time": 176, "note": 62, "velocity": 110, "channel": 0}, {"type": "note_on", "time": 31, "note": 61, "velocity": 102, "channel": 0}, {"type": "note_off", "time": 162, "note": 61, "velocity": 102, "channel": 0}, {"type": "note_on", "time": 109, "note": 67, "velocity": 103, "channel": 0}, {"type": "note_off", "time": 87, "note": 67, "velocity": 103, "channel": 0}, {"type": "note_on", "time": 44, "note": 67, "velocity": 120, "channel": 0}, {"type": "note_off", "time": 163, "note": 67, "velocity": 120, "channel": 0}, {"type": "note_on", "time": 1113, "note": 69, "velocity": 119, "channel": 0}, {"type": "note_off", "time": 193, "note": 69, "velocity": 119, "channel": 0}, {"type": "note_on", "time": 227, "note": 74, "velocity": 123, "channel": 0}, {"type": "note_off", "time": 266, "note": 74, "velocity": 123, "channel": 0}, {"type": "note_on", "time": 210, "note": 73, "velocity": 122, "channel": 0}, {"type": "note_off", "time": 253, "note": 73, "velocity": 122, "channel": 0}, {"type": "note_on", "time": 208, "note": 69, "velocity": 118, "channel": 0}, {"type": "note_off", "time": 199, "note": 69, "velocity": 118, "channel": 0}, {"type": "note_on", "time": 215, "note": 72, "velocity": 121, "channel": 0}, {"type": "note_off", "time": 187, "note": 72, "velocity": 121, "channel": 0}, {"type": "note_on", "time": 83, "note": 71, "velocity": 124, "channel": 0}, {"type": "note_off", "time": 187, "note": 71, "velocity": 124, "channel": 0}, {"type": "note_on", "time": 274, "note": 67, "velocity": 113, "channel": 0}, {"type": "note_off", "time": 126, "note": 67, "velocity": 113, "channel": 0}, {"type": "note_on", "time": 236, "note": 70, "velocity": 120, "channel": 0}, {"type": "note_off", "time": 193, "note": 70, "velocity": 120, "channel": 0}, {"type": "note_on", "time": 259, "note": 69, "velocity": 119, "channel": 0}, {"type": "note_off", "time": 238, "note": 69, "velocity": 119, "channel": 0}, {"type": "note_on", "time": 184, "note": 67, "velocity": 117, "channel": 0}, {"type": "note_off", "time": 193, "note": 67, "velocity": 117, "channel": 0}, {"type": "note_on", "time": 171, "note": 65, "velocity": 115, "channel": 0}, {"type": "note_off", "time": 137, "note": 65, "velocity": 115, "channel": 0}, {"type": "note_on", "time": 27, "note": 64, "velocity": 108, "channel": 0}, {"type": "note_off", "time": 187, "note": 64, "velocity": 108, "channel": 0}, {"type": "note_on", "time": 17, "note": 62, "velocity": 103, "channel": 0}, {"type": "note_off", "time": 103, "note": 62, "velocity": 103, "channel": 0}, {"type": "note_on", "time": 168, "note": 65, "velocity": 116, "channel": 0}, {"type": "note_off", "time": 436, "note": 65, "velocity": 116, "channel": 0}, {"type": "note_on", "time": 147, "note": 61, "velocity": 103, "channel": 0}, {"type": "note_off", "time": 167, "note": 61, "velocity": 103, "channel": 0}, {"type": "note_on", "time": 17, "note": 60, "velocity": 105, "channel": 0}, {"type": "note_off", "time": 266, "note": 60, "velocity": 105, "channel": 0}, {"type": "note_on", "time": 13, "note": 58, "velocity": 104, "channel": 0}, {"type": "note_off", "time": 187, "note": 58, "velocity": 104, "channel": 0}, {"type": "note_on", "time": 221, "note": 56, "velocity": 101, "channel": 0}, {"type": "note_off", "time": 157, "note": 56, "velocity": 101, "channel": 0}, {"type": "note_on", "time": 6, "note": 57, "velocity": 100, "channel": 0}, {"type": "note_off", "time": 213, "note": 57, "velocity": 100, "channel": 0}, {"type": "note_on", "time": 213, "note": 64, "velocity": 110, "channel": 0}, {"type": "note_off", "time": 243, "note": 64, "velocity": 110, "channel": 0}, {"type": "note_on", "time": 24, "note": 61, "velocity": 87, "channel": 0}, {"type": "note_off", "time": 126, "note": 61, "velocity": 87, "channel": 0}, {"type": "note_on", "time": 121, "note": 62, "velocity": 111, "channel": 0}, {"type": "note_off", "time": 853, "note": 62, "velocity": 111, "channel": 0}, {"type": "note_on", "time": 167, "note": 64, "velocity": 113, "channel": 0}, {"type": "note_off", "time": 139, "note": 64, "velocity": 113, "channel": 0}, {"type": "note_on", "time": 14, "note": 65, "velocity": 112, "channel": 0}, {"type": "note_off", "time": 193, "note": 65, "velocity": 112, "channel": 0}, {"type": "note_on", "time": 19, "note": 67, "velocity": 107, "channel": 0}, {"type": "note_off", "time": 153, "note": 67, "velocity": 107, "channel": 0}, {"type": "note_on", "time": 17, "note": 68, "velocity": 118, "channel": 0}, {"type": "note_off", "time": 238, "note": 68, "velocity": 118, "channel": 0}, {"type": "note_on", "time": 896, "note": 67, "velocity": 117, "channel": 0}, {"type": "note_off", "time": 299, "note": 67, "velocity": 117, "channel": 0}, {"type": "note_on", "time": 57, "note": 65, "velocity": 103, "channel": 0}, {"type": "note_off", "time": 154, "note": 65, "velocity": 103, "channel": 0}, {"type": "note_on", "time": 19, "note": 67, "velocity": 116, "channel": 0}, {"type": "note_off", "time": 346, "note": 67, "velocity": 116, "channel": 0}, {"type": "note_on", "time": 5, "note": 65, "velocity": 112, "channel": 0}, {"type": "note_off", "time": 259, "note": 65, "velocity": 112, "channel": 0}, {"type": "note_on", "time": 13, "note": 64, "velocity": 102, "channel": 0}, {"type": "note_off", "time": 140, "note": 64, "velocity": 102, "channel": 0}, {"type": "note_on", "time": 13, "note": 65, "velocity": 114, "channel": 0}, {"type": "note_off", "time": 349, "note": 65, "velocity": 114, "channel": 0}, {"type": "note_on", "time": 74, "note": 64, "velocity": 112, "channel": 0}, {"type": "note_off", "time": 233, "note": 64, "velocity": 112, "channel": 0}, {"type": "note_on", "time": 58, "note": 62, "velocity": 86, "channel": 0}, {"type": "note_off", "time": 66, "note": 62, "velocity": 86, "channel": 0}, {"type": "note_on", "time": 82, "note": 64, "velocity": 114, "channel": 0}, {"type": "note_off", "time": 308, "note": 64, "velocity": 114, "channel": 0}, {"type": "note_on", "time": 118, "note": 62, "velocity": 106, "channel": 0}, {"type": "note_off", "time": 228, "note": 62, "velocity": 106, "channel": 0}, {"type": "note_on", "time": 36, "note": 59, "velocity": 84, "channel": 0}, {"type": "note_off", "time": 76, "note": 59, "velocity": 84, "channel": 0}, {"type": "note_on", "time": 64, "note": 62, "velocity": 104, "channel": 0}, {"type": "note_off", "time": 293, "note": 62, "velocity": 104, "channel": 0}, {"type": "note_on", "time": 16, "note": 62, "velocity": 98, "channel": 0}, {"type": "note_off", "time": 275, "note": 62, "velocity": 98, "channel": 0}, {"type": "note_on", "time": 1057, "note": 62, "velocity": 108, "channel": 0}, {"type": "note_off", "time": 144, "note": 62, "velocity": 108, "channel": 0}, {"type": "note_on", "time": 38, "note": 64, "velocity": 107, "channel": 0}, {"type": "note_off", "time": 151, "note": 64, "velocity": 107, "channel": 0}, {"type": "note_on", "time": 14, "note": 65, "velocity": 107, "channel": 0}, {"type": "note_off", "time": 240, "note": 65, "velocity": 107, "channel": 0}, {"type": "note_on", "time": 5, "note": 67, "velocity": 102, "channel": 0}, {"type": "note_off", "time": 149, "note": 67, "velocity": 102, "channel": 0}, {"type": "note_on", "time": 11, "note": 69, "velocity": 117, "channel": 0}, {"type": "note_off", "time": 1030, "note": 69, "velocity": 117, "channel": 0}, {"type": "note_on", "time": 96, "note": 67, "velocity": 115, "channel": 0}, {"type": "note_off", "time": 208, "note": 67, "velocity": 115, "channel": 0}, {"type": "note_on", "time": 155, "note": 65, "velocity": 88, "channel": 0}, {"type": "note_off", "time": 109, "note": 65, "velocity": 88, "channel": 0}, {"type": "note_on", "time": 26, "note": 67, "velocity": 115, "channel": 0}, {"type": "note_off", "time": 379, "note": 67, "velocity": 115, "channel": 0}, {"type": "note_on", "time": 12, "note": 65, "velocity": 109, "channel": 0}, {"type": "note_off", "time": 256, "note": 65, "velocity": 109, "channel": 0}, {"type": "note_on", "time": 12, "note": 64, "velocity": 91, "channel": 0}, {"type": "note_off", "time": 117, "note": 64, "velocity": 91, "channel": 0}, {"type": "note_on", "time": 28, "note": 65, "velocity": 110, "channel": 0}, {"type": "note_off", "time": 405, "note": 65, "velocity": 110, "channel": 0}, {"type": "note_on", "time": 38, "note": 64, "velocity": 113, "channel": 0}, {"type": "note_off", "time": 238, "note": 64, "velocity": 113, "channel": 0}, {"type": "note_on", "time": 8, "note": 62, "velocity": 94, "channel": 0}, {"type": "note_off", "time": 176, "note": 62, "velocity": 94, "channel": 0}, {"type": "note_on", "time": 7, "note": 64, "velocity": 108, "channel": 0}, {"type": "note_off", "time": 297, "note": 64, "velocity": 108, "channel": 0}, {"type": "note_on", "time": 28, "note": 64, "velocity": 108, "channel": 0}, {"type": "note_off", "time": 203, "note": 64, "velocity": 108, "channel": 0}, {"type": "note_on", "time": 351, "note": 64, "velocity": 105, "channel": 0}, {"type": "note_off", "time": 132, "note": 64, "velocity": 105, "channel": 0}, {"type": "note_on", "time": 32, "note": 65, "velocity": 110, "channel": 0}, {"type": "note_off", "time": 152, "note": 65, "velocity": 110, "channel": 0}, {"type": "note_on", "time": 23, "note": 64, "velocity": 111, "channel": 0}, {"type": "note_off", "time": 162, "note": 64, "velocity": 111, "channel": 0}, {"type": "note_on", "time": 15, "note": 62, "velocity": 106, "channel": 0}, {"type": "note_off", "time": 196, "note": 62, "velocity": 106, "channel": 0}, {"type": "note_on", "time": 13, "note": 61, "velocity": 97, "channel": 0}, {"type": "note_off", "time": 111, "note": 61, "velocity": 97, "channel": 0}, {"type": "note_on", "time": 2616, "note": 57, "velocity": 111, "channel": 0}, {"type": "note_off", "time": 240, "note": 57, "velocity": 111, "channel": 0}, {"type": "note_on", "time": 39, "note": 56, "velocity": 98, "channel": 0}, {"type": "note_off", "time": 171, "note": 56, "velocity": 98, "channel": 0}, {"type": "note_on", "time": 34, "note": 57, "velocity": 107, "channel": 0}, {"type": "note_off", "time": 206, "note": 57, "velocity": 107, "channel": 0}, {"type": "note_on", "time": 111, "note": 59, "velocity": 105, "channel": 0}, {"type": "note_off", "time": 259, "note": 59, "velocity": 105, "channel": 0}, {"type": "note_on", "time": 46, "note": 58, "velocity": 95, "channel": 0}, {"type": "note_off", "time": 151, "note": 58, "velocity": 95, "channel": 0}, {"type": "note_on", "time": 25, "note": 59, "velocity": 105, "channel": 0}, {"type": "note_off", "time": 249, "note": 59, "velocity": 105, "channel": 0}, {"type": "note_on", "time": 73, "note": 60, "velocity": 100, "channel": 0}, {"type": "note_off", "time": 731, "note": 60, "velocity": 100, "channel": 0}, {"type": "note_on", "time": 970, "note": 62, "velocity": 107, "channel": 0}, {"type": "note_off", "time": 143, "note": 62, "velocity": 107, "channel": 0}, {"type": "note_on", "time": 59, "note": 63, "velocity": 112, "channel": 0}, {"type": "note_off", "time": 151, "note": 63, "velocity": 112, "channel": 0}, {"type": "note_on", "time": 48, "note": 62, "velocity": 110, "channel": 0}, {"type": "note_off", "time": 185, "note": 62, "velocity": 110, "channel": 0}, {"type": "note_on", "time": 60, "note": 61, "velocity": 103, "channel": 0}, {"type": "note_off", "time": 147, "note": 61, "velocity": 103, "channel": 0}, {"type": "note_on", "time": 61, "note": 59, "velocity": 99, "channel": 0}, {"type": "note_off", "time": 304, "note": 59, "velocity": 99, "channel": 0}, {"type": "note_on", "time": 2260, "note": 55, "velocity": 99, "channel": 0}, {"type": "note_off", "time": 248, "note": 55, "velocity": 99, "channel": 0}, {"type": "note_on", "time": 52, "note": 54, "velocity": 86, "channel": 0}, {"type": "note_off", "time": 119, "note": 54, "velocity": 86, "channel": 0}, {"type": "note_on", "time": 53, "note": 55, "velocity": 99, "channel": 0}, {"type": "note_off", "time": 190, "note": 55, "velocity": 99, "channel": 0}, {"type": "note_on", "time": 166, "note": 57, "velocity": 106, "channel": 0}, {"type": "note_off", "time": 242, "note": 57, "velocity": 106, "channel": 0}, {"type": "note_on", "time": 66, "note": 56, "velocity": 93, "channel": 0}, {"type": "note_off", "time": 154, "note": 56, "velocity": 93, "channel": 0}, {"type": "note_on", "time": 32, "note": 57, "velocity": 107, "channel": 0}, {"type": "note_off", "time": 227, "note": 57, "velocity": 107, "channel": 0}, {"type": "note_on", "time": 141, "note": 58, "velocity": 108, "channel": 0}, {"type": "note_off", "time": 1168, "note": 58, "velocity": 108, "channel": 0}, {"type": "note_on", "time": 375, "note": 60, "velocity": 107, "channel": 0}, {"type": "note_off", "time": 142, "note": 60, "velocity": 107, "channel": 0}, {"type": "note_on", "time": 73, "note": 62, "velocity": 104, "channel": 0}, {"type": "note_off", "time": 116, "note": 62, "velocity": 104, "channel": 0}, {"type": "note_on", "time": 74, "note": 60, "velocity": 104, "channel": 0}, {"type": "note_off", "time": 157, "note": 60, "velocity": 104, "channel": 0}, {"type": "note_on", "time": 50, "note": 58, "velocity": 95, "channel": 0}, {"type": "note_off", "time": 142, "note": 58, "velocity": 95, "channel": 0}, {"type": "note_on", "time": 35, "note": 57, "velocity": 106, "channel": 0}, {"type": "note_off", "time": 157, "note": 57, "velocity": 106, "channel": 0}, {"type": "note_on", "time": 345, "note": 67, "velocity": 116, "channel": 0}, {"type": "note_off", "time": 396, "note": 67, "velocity": 116, "channel": 0}, {"type": "note_on", "time": 60, "note": 65, "velocity": 115, "channel": 0}, {"type": "note_off", "time": 482, "note": 65, "velocity": 115, "channel": 0}, {"type": "note_on", "time": 873, "note": 62, "velocity": 114, "channel": 0}, {"type": "note_off", "time": 213, "note": 62, "velocity": 114, "channel": 0}, {"type": "note_on", "time": 120, "note": 60, "velocity": 111, "channel": 0}, {"type": "note_off", "time": 360, "note": 60, "velocity": 111, "channel": 0}, {"type": "note_on", "time": 1053, "note": 72, "velocity": 122, "channel": 0}, {"type": "note_off", "time": 365, "note": 72, "velocity": 122, "channel": 0}, {"type": "note_on", "time": 1588, "note": 72, "velocity": 117, "channel": 0}, {"type": "note_off", "time": 142, "note": 72, "velocity": 117, "channel": 0}, {"type": "note_on", "time": 264, "note": 72, "velocity": 114, "channel": 0}, {"type": "note_off", "time": 95, "note": 72, "velocity": 114, "channel": 0}, {"type": "note_on", "time": 56, "note": 72, "velocity": 122, "channel": 0}, {"type": "note_off", "time": 78, "note": 72, "velocity": 122, "channel": 0}, {"type": "note_on", "time": 58, "note": 72, "velocity": 115, "channel": 0}, {"type": "note_off", "time": 89, "note": 72, "velocity": 115, "channel": 0}, {"type": "note_on", "time": 48, "note": 72, "velocity": 125, "channel": 0}, {"type": "note_off", "time": 363, "note": 72, "velocity": 125, "channel": 0}, {"type": "note_on", "time": 61, "note": 72, "velocity": 117, "channel": 0}, {"type": "note_off", "time": 83, "note": 72, "velocity": 117, "channel": 0}, {"type": "note_on", "time": 59, "note": 72, "velocity": 111, "channel": 0}, {"type": "note_off", "time": 86, "note": 72, "velocity": 111, "channel": 0}, {"type": "note_on", "time": 66, "note": 72, "velocity": 114, "channel": 0}, {"type": "note_off", "time": 88, "note": 72, "velocity": 114, "channel": 0}, {"type": "note_on", "time": 62, "note": 72, "velocity": 113, "channel": 0}, {"type": "note_off", "time": 102, "note": 72, "velocity": 113, "channel": 0}, {"type": "note_on", "time": 248, "note": 72, "velocity": 111, "channel": 0}, {"type": "note_off", "time": 109, "note": 72, "velocity": 111, "channel": 0}, {"type": "note_on", "time": 54, "note": 72, "velocity": 108, "channel": 0}, {"type": "note_off", "time": 85, "note": 72, "velocity": 108, "channel": 0}, {"type": "note_on", "time": 58, "note": 72, "velocity": 108, "channel": 0}, {"type": "note_off", "time": 71, "note": 72, "velocity": 108, "channel": 0}, {"type": "note_on", "time": 62, "note": 72, "velocity": 125, "channel": 0}, {"type": "note_off", "time": 330, "note": 72, "velocity": 125, "channel": 0}, {"type": "note_on", "time": 68, "note": 69, "velocity": 106, "channel": 0}, {"type": "note_off", "time": 83, "note": 69, "velocity": 106, "channel": 0}, {"type": "note_on", "time": 36, "note": 69, "velocity": 108, "channel": 0}, {"type": "note_off", "time": 92, "note": 69, "velocity": 108, "channel": 0}, {"type": "note_on", "time": 55, "note": 69, "velocity": 115, "channel": 0}, {"type": "note_off", "time": 109, "note": 69, "velocity": 115, "channel": 0}, {"type": "note_on", "time": 59, "note": 69, "velocity": 120, "channel": 0}, {"type": "note_off", "time": 304, "note": 69, "velocity": 120, "channel": 0}, {"type": "note_on", "time": 69, "note": 65, "velocity": 90, "channel": 0}, {"type": "note_off", "time": 90, "note": 65, "velocity": 90, "channel": 0}, {"type": "note_on", "time": 33, "note": 65, "velocity": 101, "channel": 0}, {"type": "note_off", "time": 111, "note": 65, "velocity": 101, "channel": 0}, {"type": "note_on", "time": 51, "note": 66, "velocity": 114, "channel": 0}, {"type": "note_off", "time": 90, "note": 66, "velocity": 114, "channel": 0}, {"type": "note_on", "time": 70, "note": 66, "velocity": 119, "channel": 0}, {"type": "note_off", "time": 392, "note": 66, "velocity": 119, "channel": 0}, {"type": "note_on", "time": 32, "note": 63, "velocity": 103, "channel": 0}, {"type": "note_off", "time": 116, "note": 63, "velocity": 103, "channel": 0}, {"type": "note_on", "time": 33, "note": 63, "velocity": 104, "channel": 0}, {"type": "note_off", "time": 115, "note": 63, "velocity": 104, "channel": 0}, {"type": "note_on", "time": 33, "note": 63, "velocity": 109, "channel": 0}, {"type": "note_off", "time": 125, "note": 63, "velocity": 109, "channel": 0}, {"type": "note_on", "time": 51, "note": 63, "velocity": 113, "channel": 0}, {"type": "note_off", "time": 329, "note": 63, "velocity": 113, "channel": 0}, {"type": "note_on", "time": 35, "note": 60, "velocity": 105, "channel": 0}, {"type": "note_off", "time": 408, "note": 60, "velocity": 105, "channel": 0}, {"type": "note_on", "time": 26, "note": 60, "velocity": 102, "channel": 0}, {"type": "note_off", "time": 385, "note": 60, "velocity": 102, "channel": 0}, {"type": "note_on", "time": 75, "note": 61, "velocity": 107, "channel": 0}, {"type": "note_off", "time": 271, "note": 61, "velocity": 107, "channel": 0}, {"type": "note_on", "time": 80, "note": 62, "velocity": 112, "channel": 0}, {"type": "note_off", "time": 748, "note": 62, "velocity": 112, "channel": 0}, {"type": "note_on", "time": 39, "note": 64, "velocity": 117, "channel": 0}, {"type": "note_off", "time": 619, "note": 64, "velocity": 117, "channel": 0}, {"type": "note_on", "time": 83, "note": 60, "velocity": 82, "channel": 0}, {"type": "note_off", "time": 71, "note": 60, "velocity": 82, "channel": 0}, {"type": "note_on", "time": 92, "note": 65, "velocity": 115, "channel": 0}, {"type": "note_off", "time": 775, "note": 65, "velocity": 115, "channel": 0}, {"type": "note_on", "time": 92, "note": 67, "velocity": 119, "channel": 0}, {"type": "note_off", "time": 471, "note": 67, "velocity": 119, "channel": 0}, {"type": "note_on", "time": 428, "note": 69, "velocity": 112, "channel": 0}, {"type": "note_off", "time": 435, "note": 69, "velocity": 112, "channel": 0}, {"type": "note_on", "time": 62, "note": 70, "velocity": 119, "channel": 0}, {"type": "note_off", "time": 332, "note": 70, "velocity": 119, "channel": 0}, {"type": "note_on", "time": 44, "note": 69, "velocity": 119, "channel": 0}, {"type": "note_off", "time": 375, "note": 69, "velocity": 119, "channel": 0}, {"type": "note_on", "time": 82, "note": 67, "velocity": 118, "channel": 0}, {"type": "note_off", "time": 260, "note": 67, "velocity": 118, "channel": 0}, {"type": "note_on", "time": 69, "note": 65, "velocity": 123, "channel": 0}, {"type": "note_off", "time": 110, "note": 65, "velocity": 123, "channel": 0}, {"type": "note_on", "time": 6, "note": 66, "velocity": 117, "channel": 0}, {"type": "note_off", "time": 140, "note": 66, "velocity": 117, "channel": 0}, {"type": "note_on", "time": 10, "note": 65, "velocity": 110, "channel": 0}, {"type": "note_off", "time": 118, "note": 65, "velocity": 110, "channel": 0}, {"type": "note_on", "time": 980, "note": 58, "velocity": 93, "channel": 0}, {"type": "note_off", "time": 191, "note": 58, "velocity": 93, "channel": 0}, {"type": "note_on", "time": 184, "note": 62, "velocity": 89, "channel": 0}, {"type": "note_off", "time": 182, "note": 62, "velocity": 89, "channel": 0}, {"type": "note_on", "time": 59, "note": 64, "velocity": 118, "channel": 0}, {"type": "note_off", "time": 1789, "note": 64, "velocity": 118, "channel": 0}, {"type": "note_on", "time": 92, "note": 62, "velocity": 111, "channel": 0}, {"type": "note_off", "time": 217, "note": 62, "velocity": 111, "channel": 0}, {"type": "note_on", "time": 117, "note": 57, "velocity": 99, "channel": 0}, {"type": "note_off", "time": 196, "note": 57, "velocity": 99, "channel": 0}, {"type": "note_on", "time": 399, "note": 53, "velocity": 102, "channel": 0}, {"type": "note_off", "time": 114, "note": 53, "velocity": 102, "channel": 0}, {"type": "note_on", "time": 142, "note": 55, "velocity": 99, "channel": 0}, {"type": "note_off", "time": 478, "note": 55, "velocity": 99, "channel": 0}, {"type": "note_on", "time": 100, "note": 55, "velocity": 98, "channel": 0}, {"type": "note_off", "time": 685, "note": 55, "velocity": 98, "channel": 0}, {"type": "note_on", "time": 771, "note": 54, "velocity": 102, "channel": 0}, {"type": "note_off", "time": 105, "note": 54, "velocity": 102, "channel": 0}, {"type": "note_on", "time": 11, "note": 57, "velocity": 119, "channel": 0}, {"type": "note_off", "time": 262, "note": 57, "velocity": 119, "channel": 0}, {"type": "note_on", "time": 20, "note": 54, "velocity": 103, "channel": 0}, {"type": "note_off", "time": 158, "note": 54, "velocity": 103, "channel": 0}, {"type": "note_on", "time": 1549, "note": 49, "velocity": 94, "channel": 0}, {"type": "note_off", "time": 232, "note": 49, "velocity": 94, "channel": 0}, {"type": "note_on", "time": 44, "note": 50, "velocity": 100, "channel": 0}, {"type": "note_off", "time": 210, "note": 50, "velocity": 100, "channel": 0}, {"type": "note_on", "time": 39, "note": 52, "velocity": 98, "channel": 0}, {"type": "note_off", "time": 267, "note": 52, "velocity": 98, "channel": 0}, {"type": "note_on", "time": 60, "note": 53, "velocity": 104, "channel": 0}, {"type": "note_off", "time": 1160, "note": 53, "velocity": 104, "channel": 0}, {"type": "note_on", "time": 135, "note": 55, "velocity": 107, "channel": 0}, {"type": "note_off", "time": 296, "note": 55, "velocity": 107, "channel": 0}, {"type": "note_on", "time": 107, "note": 56, "velocity": 113, "channel": 0}, {"type": "note_off", "time": 355, "note": 56, "velocity": 113, "channel": 0}, {"type": "note_on", "time": 919, "note": 57, "velocity": 109, "channel": 0}, {"type": "note_off", "time": 253, "note": 57, "velocity": 109, "channel": 0}, {"type": "note_on", "time": 155, "note": 59, "velocity": 106, "channel": 0}, {"type": "note_off", "time": 664, "note": 59, "velocity": 106, "channel": 0}, {"type": "note_on", "time": 59, "note": 60, "velocity": 106, "channel": 0}, {"type": "note_off", "time": 434, "note": 60, "velocity": 106, "channel": 0}, {"type": "note_on", "time": 198, "note": 64, "velocity": 109, "channel": 0}, {"type": "note_off", "time": 193, "note": 64, "velocity": 109, "channel": 0}, {"type": "note_on", "time": 66, "note": 65, "velocity": 109, "channel": 0}, {"type": "note_off", "time": 2346, "note": 65, "velocity": 109, "channel": 0}, {"type": "note_on", "time": 146, "note": 67, "velocity": 108, "channel": 0}, {"type": "note_off", "time": 436, "note": 67, "velocity": 108, "channel": 0}, {"type": "note_on", "time": 56, "note": 64, "velocity": 102, "channel": 0}, {"type": "note_off", "time": 2400, "note": 64, "velocity": 102, "channel": 0}, {"type": "note_on", "time": 1323, "note": 64, "velocity": 112, "channel": 0}, {"type": "note_off", "time": 187, "note": 64, "velocity": 112, "channel": 0}, {"type": "note_on", "time": 40, "note": 65, "velocity": 105, "channel": 0}, {"type": "note_off", "time": 2270, "note": 65, "velocity": 105, "channel": 0}, {"type": "note_on", "time": 61, "note": 57, "velocity": 101, "channel": 0}, {"type": "note_off", "time": 557, "note": 57, "velocity": 101, "channel": 0}, {"type": "note_on", "time": 33, "note": 64, "velocity": 98, "channel": 0}, {"type": "note_off", "time": 4532, "note": 64, "velocity": 98, "channel": 0}, {"type": "note_on", "time": 83, "note": 64, "velocity": 103, "channel": 0}, {"type": "note_off", "time": 259, "note": 64, "velocity": 103, "channel": 0}, {"type": "note_on", "time": 43, "note": 64, "velocity": 111, "channel": 0}, {"type": "note_off", "time": 233, "note": 64, "velocity": 111, "channel": 0}, {"type": "note_on", "time": 30, "note": 64, "velocity": 116, "channel": 0}, {"type": "note_off", "time": 279, "note": 64, "velocity": 116, "channel": 0}, {"type": "note_on", "time": 36, "note": 64, "velocity": 109, "channel": 0}, {"type": "note_off", "time": 270, "note": 64, "velocity": 109, "channel": 0}, {"type": "note_on", "time": 1127, "note": 55, "velocity": 92, "channel": 0}, {"type": "note_off", "time": 208, "note": 55, "velocity": 92, "channel": 0}, {"type": "note_on", "time": 253, "note": 62, "velocity": 101, "channel": 0}, {"type": "note_off", "time": 426, "note": 62, "velocity": 101, "channel": 0}, {"type": "note_on", "time": 116, "note": 62, "velocity": 102, "channel": 0}, {"type": "note_off", "time": 1701, "note": 62, "velocity": 102, "channel": 0}, {"type": "note_on", "time": 1069, "note": 61, "velocity": 105, "channel": 0}, {"type": "note_off", "time": 172, "note": 61, "velocity": 105, "channel": 0}, {"type": "note_on", "time": 33, "note": 62, "velocity": 10, "channel": 0}, {"type": "note_off", "time": 1970, "note": 62, "velocity": 10, "channel": 0}, {"type": "note_on", "time": 988, "note": 57, "velocity": 110, "channel": 0}, {"type": "note_off", "time": 274, "note": 57, "velocity": 110, "channel": 0}, {"type": "note_on", "time": 204, "note": 60, "velocity": 111, "channel": 0}, {"type": "note_off", "time": 365, "note": 60, "velocity": 111, "channel": 0}, {"type": "note_on", "time": 67, "note": 58, "velocity": 116, "channel": 0}, {"type": "note_off", "time": 692, "note": 58, "velocity": 116, "channel": 0}, {"type": "note_on", "time": 495, "note": 57, "velocity": 110, "channel": 0}, {"type": "note_off", "time": 369, "note": 57, "velocity": 110, "channel": 0}, {"type": "note_on", "time": 44, "note": 58, "velocity": 113, "channel": 0}, {"type": "note_off", "time": 152, "note": 58, "velocity": 113, "channel": 0}, {"type": "note_on", "time": 304, "note": 62, "velocity": 114, "channel": 0}, {"type": "note_off", "time": 157, "note": 62, "velocity": 114, "channel": 0}, {"type": "note_on", "time": 335, "note": 64, "velocity": 117, "channel": 0}, {"type": "note_off", "time": 264, "note": 64, "velocity": 117, "channel": 0}, {"type": "note_on", "time": 373, "note": 69, "velocity": 124, "channel": 0}, {"type": "note_off", "time": 2052, "note": 69, "velocity": 124, "channel": 0}, {"type": "note_on", "time": 96, "note": 67, "velocity": 109, "channel": 0}, {"type": "note_off", "time": 203, "note": 67, "velocity": 109, "channel": 0}, {"type": "note_on", "time": 218, "note": 65, "velocity": 105, "channel": 0}, {"type": "note_off", "time": 259, "note": 65, "velocity": 105, "channel": 0}, {"type": "note_on", "time": 46, "note": 67, "velocity": 101, "channel": 0}, {"type": "note_off", "time": 296, "note": 67, "velocity": 101, "channel": 0}, {"type": "note_on", "time": 44, "note": 65, "velocity": 93, "channel": 0}, {"type": "note_off", "time": 193, "note": 65, "velocity": 93, "channel": 0}, {"type": "note_on", "time": 144, "note": 64, "velocity": 92, "channel": 0}, {"type": "note_off", "time": 265, "note": 64, "velocity": 92, "channel": 0}, {"type": "note_on", "time": 11, "note": 65, "velocity": 84, "channel": 0}, {"type": "note_off", "time": 303, "note": 65, "velocity": 84, "channel": 0}, {"type": "note_on", "time": 22, "note": 64, "velocity": 81, "channel": 0}, {"type": "note_off", "time": 265, "note": 64, "velocity": 81, "channel": 0}, {"type": "note_on", "time": 77, "note": 62, "velocity": 71, "channel": 0}, {"type": "note_off", "time": 266, "note": 62, "velocity": 71, "channel": 0}, {"type": "note_on", "time": 169, "note": 63, "velocity": 57, "channel": 0}, {"type": "note_off", "time": 1871, "note": 63, "velocity": 57, "channel": 0}, {"type": "end_of_track", "time": 0}]]}