{"ticks_per_beat": 192, "tracks": [[{"type": "track_name", "name": "Melody", "time": 0}, {"type": "set_tempo", "tempo": 255319, "time": 0}, {"type": "key_signature", "key": "Bb", "time": 0}, {"type": "time_signature", "numerator": 4, "denominator": 4, "clocks_per_click": 24, "notated_32nd_notes_per_beat": 8, "time": 0}, {"type": "note_on", "time": 5029, "note": 63, "velocity": 115, "channel": 0}, {"type": "note_off", "time": 48, "note": 63, "velocity": 115, "channel": 0}, {"type": "note_on", "time": 37, "note": 62, "velocity": 109, "channel": 0}, {"type": "note_off", "time": 85, "note": 62, "velocity": 109, "channel": 0}, {"type": "note_on", "time": 98, "note": 58, "velocity": 95, "channel": 0}, {"type": "note_off", "time": 488, "note": 58, "velocity": 95, "channel": 0}, {"type": "note_on", "time": 48, "note": 63, "velocity": 105, "channel": 0}, {"type": "note_off", "time": 67, "note": 63, "velocity": 105, "channel": 0}, {"type": "note_on", "time": 10, "note": 62, "velocity": 103, "channel": 0}, {"type": "note_off", "time": 98, "note": 62, "velocity": 103, "channel": 0}, {"type": "note_on", "time": 19, "note": 58, "velocity": 116, "channel": 0}, {"type": "note_off", "time": 65, "note": 58, "velocity": 116, "channel": 0}, {"type": "note_on", "time": 122, "note": 58, "velocity": 97, "channel": 0}, {"type": "note_off", "time": 278, "note": 58, "velocity": 97, "channel": 0}, {"type": "note_on", "time": 131, "note": 63, "velocity": 114, "channel": 0}, {"type": "note_off", "time": 52, "note": 63, "velocity": 114, "channel": 0}, {"type": "note_on", "time": 43, "note": 62, "velocity": 100, "channel": 0}, {"type": "note_off", "time": 85, "note": 62, "velocity": 100, "channel": 0}, {"type": "note_on", "time": 96, "note": 58, "velocity": 111, "channel": 0}, {"type": "note_off", "time": 323, "note": 58, "velocity": 111, "channel": 0}, {"type": "note_on", "time": 90, "note": 63, "velocity": 113, "channel": 0}, {"type": "note_off", "time": 162, "note": 63, "velocity": 113, "channel": 0}, {"type": "note_on", "time": 24, "note": 62, "velocity": 110, "channel": 0}, {"type": "note_off", "time": 93, "note": 62, "velocity": 110, "channel": 0}, {"type": "note_on", "time": 41, "note": 58, "velocity": 116, "channel": 0}, {"type": "note_off", "time": 113, "note": 58, "velocity": 116, "channel": 0}, {"type": "note_on", "time": 467, "note": 63, "velocity": 108, "channel": 0}, {"type": "note_off", "time": 194, "note": 63, "velocity": 108, "channel": 0}, {"type": "note_on", "time": 34, "note": 61, "velocity": 98, "channel": 0}, {"type": "note_off", "time": 63, "note": 61, "velocity": 98, "channel": 0}, {"type": "note_on", "time": 35, "note": 63, "velocity": 114, "channel": 0}, {"type": "note_off", "time": 120, "note": 63, "velocity": 114, "channel": 0}, {"type": "note_on", "time": 34, "note": 61, "velocity": 113, "channel": 0}, {"type": "note_off", "time": 109, "note": 61, "velocity": 113, "channel": 0}, {"type": "note_on", "time": 91, "note": 61, "velocity": 106, "channel": 0}, {"type": "note_off", "time": 170, "note": 61, "velocity": 106, "channel": 0}, {"type": "note_on", "time": 32, "note": 58, "velocity": 110, "channel": 0}, {"type": "note_off", "time": 111, "note": 58, "velocity": 110, "channel": 0}, {"type": "note_on", "time": 98, "note": 58, "velocity": 98, "channel": 0}, {"type": "note_off", "time": 259, "note": 58, "velocity": 98, "channel": 0}, {"type": "note_on", "time": 451, "note": 63, "velocity": 108, "channel": 0}, {"type": "note_off", "time": 76, "note": 63, "velocity": 108, "channel": 0}, {"type": "note_on", "time": 9, "note": 62, "velocity": 110, "channel": 0}, {"type": "note_off", "time": 96, "note": 62, "velocity": 110, "channel": 0}, {"type": "note_on", "time": 39, "note": 58, "velocity": 112, "channel": 0}, {"type": "note_off", "time": 52, "note": 58, "velocity": 112, "channel": 0}, {"type": "note_on", "time": 126, "note": 63, "velocity": 115, "channel": 0}, {"type": "note_off", "time": 58, "note": 63, "velocity": 115, "channel": 0}, {"type": "note_on", "time": 15, "note": 62, "velocity": 109, "channel": 0}, {"type": "note_off", "time": 106, "note": 62, "velocity": 109, "channel": 0}, {"type": "note_on", "time": 34, "note": 58, "velocity": 109, "channel": 0}, {"type": "note_off", "time": 43, "note": 58, "velocity": 109, "channel": 0}, {"type": "note_on", "time": 328, "note": 67, "velocity": 119, "channel": 0}, {"type": "note_off", "time": 74, "note": 67, "velocity": 119, "channel": 0}, {"type": "note_on", "time": 6, "note": 65, "velocity": 111, "channel": 0}, {"type": "note_off", "time": 108, "note": 65, "velocity": 111, "channel": 0}, {"type": "note_on", "time": 11, "note": 62, "velocity": 113, "channel": 0}, {"type": "note_off", "time": 91, "note": 62, "velocity": 113, "channel": 0}, {"type": "note_on", "time": 302, "note": 63, "velocity": 119, "channel": 0}, {"type": "note_off", "time": 74, "note": 63, "velocity": 119, "channel": 0}, {"type": "note_on", "time": 8, "note": 62, "velocity": 112, "channel": 0}, {"type": "note_off", "time": 100, "note": 62, "velocity": 112, "channel": 0}, {"type": "note_on", "time": 7, "note": 58, "velocity": 114, "channel": 0}, {"type": "note_off", "time": 96, "note": 58, "velocity": 114, "channel": 0}, {"type": "note_on", "time": 187, "note": 53, "velocity": 103, "channel": 0}, {"type": "note_off", "time": 211, "note": 53, "velocity": 103, "channel": 0}, {"type": "note_on", "time": 295, "note": 62, "velocity": 114, "channel": 0}, {"type": "note_off", "time": 63, "note": 62, "velocity": 114, "channel": 0}, {"type": "note_on", "time": 13, "note": 60, "velocity": 106, "channel": 0}, {"type": "note_off", "time": 102, "note": 60, "velocity": 106, "channel": 0}, {"type": "note_on", "time": 28, "note": 53, "velocity": 103, "channel": 0}, {"type": "note_off", "time": 78, "note": 53, "velocity": 103, "channel": 0}, {"type": "note_on", "time": 339, "note": 64, "velocity": 104, "channel": 0}, {"type": "note_off", "time": 27, "note": 64, "velocity": 104, "channel": 0}, {"type": "note_on", "time": 4, "note": 63, "velocity": 110, "channel": 0}, {"type": "note_off", "time": 27, "note": 63, "velocity": 110, "channel": 0}, {"type": "note_on", "time": 12, "note": 62, "velocity": 114, "channel": 0}, {"type": "note_off", "time": 72, "note": 62, "velocity": 114, "channel": 0}, {"type": "note_on", "time": 36, "note": 58, "velocity": 116, "channel": 0}, {"type": "note_off", "time": 96, "note": 58, "velocity": 116, "channel": 0}, {"type": "note_on", "time": 177, "note": 58, "velocity": 103, "channel": 0}, {"type": "note_off", "time": 221, "note": 58, "velocity": 103, "channel": 0}, {"type": "note_on", "time": 491, "note": 62, "velocity": 109, "channel": 0}, {"type": "note_off", "time": 48, "note": 62, "velocity": 109, "channel": 0}, {"type": "note_on", "time": 6, "note": 63, "velocity": 107, "channel": 0}, {"type": "note_off", "time": 173, "note": 63, "velocity": 107, "channel": 0}, {"type": "note_on", "time": 41, "note": 62, "velocity": 113, "channel": 0}, {"type": "note_off", "time": 72, "note": 62, "velocity": 113, "channel": 0}, {"type": "note_on", "time": 114, "note": 63, "velocity": 111, "channel": 0}, {"type": "note_off", "time": 181, "note": 63, "velocity": 111, "channel": 0}, {"type": "note_on", "time": 8, "note": 62, "velocity": 110, "channel": 0}, {"type": "note_off", "time": 100, "note": 62, "velocity": 110, "channel": 0}, {"type": "note_on", "time": 25, "note": 58, "velocity": 109, "channel": 0}, {"type": "note_off", "time": 726, "note": 58, "velocity": 109, "channel": 0}, {"type": "note_on", "time": 73, "note": 61, "velocity": 99, "channel": 0}, {"type": "note_off", "time": 47, "note": 61, "velocity": 99, "channel": 0}, {"type": "note_on", "time": 9, "note": 62, "velocity": 105, "channel": 0}, {"type": "note_off", "time": 118, "note": 62, "velocity": 105, "channel": 0}, {"type": "note_on", "time": 22, "note": 65, "velocity": 107, "channel": 0}, {"type": "note_off", "time": 48, "note": 65, "velocity": 107, "channel": 0}, {"type": "note_on", "time": 22, "note": 67, "velocity": 103, "channel": 0}, {"type": "note_off", "time": 102, "note": 67, "velocity": 103, "channel": 0}, {"type": "note_on", "time": 20, "note": 72, "velocity": 106, "channel": 0}, {"type": "note_off", "time": 103, "note": 72, "velocity": 106, "channel": 0}, {"type": "note_on", "time": 5, "note": 70, "velocity": 121, "channel": 0}, {"type": "note_off", "time": 438, "note": 70, "velocity": 121, "channel": 0}, {"type": "note_on", "time": 69, "note": 68, "velocity": 114, "channel": 0}, {"type": "note_off", "time": 113, "note": 68, "velocity": 114, "channel": 0}, {"type": "note_on", "time": 76, "note": 65, "velocity": 96, "channel": 0}, {"type": "note_off", "time": 43, "note": 65, "velocity": 96, "channel": 0}, {"type": "note_on", "time": 31, "note": 68, "velocity": 118, "channel": 0}, {"type": "note_off", "time": 111, "note": 68, "velocity": 118, "channel": 0}, {"type": "note_on", "time": 8, "note": 65, "velocity": 105, "channel": 0}, {"type": "note_off", "time": 72, "note": 65, "velocity": 105, "channel": 0}, {"type": "note_on", "time": 204, "note": 65, "velocity": 107, "channel": 0}, {"type": "note_off", "time": 77, "note": 65, "velocity": 107, "channel": 0}, {"type": "note_on", "time": 133, "note": 58, "velocity": 94, "channel": 0}, {"type": "note_off", "time": 46, "note": 58, "velocity": 94, "channel": 0}, {"type": "note_on", "time": 130, "note": 63, "velocity": 106, "channel": 0}, {"type": "note_off", "time": 90, "note": 63, "velocity": 106, "channel": 0}, {"type": "note_on", "time": 10, "note": 65, "velocity": 102, "channel": 0}, {"type": "note_off", "time": 237, "note": 65, "velocity": 102, "channel": 0}, {"type": "note_on", "time": 65, "note": 63, "velocity": 110, "channel": 0}, {"type": "note_off", "time": 102, "note": 63, "velocity": 110, "channel": 0}, {"type": "note_on", "time": 26, "note": 65, "velocity": 101, "channel": 0}, {"type": "note_off", "time": 296, "note": 65, "velocity": 101, "channel": 0}, {"type": "note_on", "time": 755, "note": 65, "velocity": 104, "channel": 0}, {"type": "note_off", "time": 79, "note": 65, "velocity": 104, "channel": 0}, {"type": "note_on", "time": 44, "note": 67, "velocity": 108, "channel": 0}, {"type": "note_off", "time": 42, "note": 67, "velocity": 108, "channel": 0}, {"type": "note_on", "time": 18, "note": 69, "velocity": 115, "channel": 0}, {"type": "note_off", "time": 103, "note": 69, "velocity": 115, "channel": 0}, {"type": "note_on", "time": 16, "note": 70, "velocity": 119, "channel": 0}, {"type": "note_off", "time": 78, "note": 70, "velocity": 119, "channel": 0}, {"type": "note_on", "time": 13, "note": 69, "velocity": 118, "channel": 0}, {"type": "note_off", "time": 87, "note": 69, "velocity": 118, "channel": 0}, {"type": "note_on", "time": 20, "note": 67, "velocity": 108, "channel": 0}, {"type": "note_off", "time": 58, "note": 67, "velocity": 108, "channel": 0}, {"type": "note_on", "time": 16, "note": 65, "velocity": 100, "channel": 0}, {"type": "note_off", "time": 87, "note": 65, "velocity": 100, "channel": 0}, {"type": "note_on", "time": 38, "note": 64, "velocity": 110, "channel": 0}, {"type": "note_off", "time": 67, "note": 64, "velocity": 110, "channel": 0}, {"type": "note_on", "time": 37, "note": 62, "velocity": 105, "channel": 0}, {"type": "note_off", "time": 76, "note": 62, "velocity": 105, "channel": 0}, {"type": "note_on", "time": 122, "note": 62, "velocity": 107, "channel": 0}, {"type": "note_off", "time": 246, "note": 62, "velocity": 107, "channel": 0}, {"type": "note_on", "time": 59, "note": 67, "velocity": 108, "channel": 0}, {"type": "note_off", "time": 89, "note": 67, "velocity": 108, "channel": 0}, {"type": "note_on", "time": 64, "note": 65, "velocity": 103, "channel": 0}, {"type": "note_off", "time": 87, "note": 65, "velocity": 103, "channel": 0}, {"type": "note_on", "time": 46, "note": 63, "velocity": 112, "channel": 0}, {"type": "note_off", "time": 91, "note": 63, "velocity": 112, "channel": 0}, {"type": "note_on", "time": 96, "note": 63, "velocity": 111, "channel": 0}, {"type": "note_off", "time": 481, "note": 63, "velocity": 111, "channel": 0}, {"type": "note_on", "time": 477, "note": 69, "velocity": 121, "channel": 0}, {"type": "note_off", "time": 100, "note": 69, "velocity": 121, "channel": 0}, {"type": "note_on", "time": 8, "note": 70, "velocity": 120, "channel": 0}, {"type": "note_off", "time": 58, "note": 70, "velocity": 120, "channel": 0}, {"type": "note_on", "time": 76, "note": 67, "velocity": 116, "channel": 0}, {"type": "note_off", "time": 61, "note": 67, "velocity": 116, "channel": 0}, {"type": "note_on", "time": 12, "note": 69, "velocity": 119, "channel": 0}, {"type": "note_off", "time": 111, "note": 69, "velocity": 119, "channel": 0}, {"type": "note_on", "time": 20, "note": 65, "velocity": 112, "channel": 0}, {"type": "note_off", "time": 141, "note": 65, "velocity": 112, "channel": 0}, {"type": "note_on", "time": 12, "note": 65, "velocity": 102, "channel": 0}, {"type": "note_off", "time": 351, "note": 65, "velocity": 102, "channel": 0}, {"type": "note_on", "time": 752, "note": 67, "velocity": 112, "channel": 0}, {"type": "note_off", "time": 65, "note": 67, "velocity": 112, "channel": 0}, {"type": "note_on", "time": 13, "note": 67, "velocity": 109, "channel": 0}, {"type": "note_off", "time": 78, "note": 67, "velocity": 109, "channel": 0}, {"type": "note_on", "time": 17, "note": 69, "velocity": 112, "channel": 0}, {"type": "note_off", "time": 67, "note": 69, "velocity": 112, "channel": 0}, {"type": "note_on", "time": 9, "note": 70, "velocity": 121, "channel": 0}, {"type": "note_off", "time": 104, "note": 70, "velocity": 121, "channel": 0}, {"type": "note_on", "time": 12, "note": 72, "velocity": 124, "channel": 0}, {"type": "note_off", "time": 65, "note": 72, "velocity": 124, "channel": 0}, {"type": "note_on", "time": 5, "note": 69, "velocity": 116, "channel": 0}, {"type": "note_off", "time": 89, "note": 69, "velocity": 116, "channel": 0}, {"type": "note_on", "time": 93, "note": 70, "velocity": 123, "channel": 0}, {"type": "note_off", "time": 116, "note": 70, "velocity": 123, "channel": 0}, {"type": "note_on", "time": 83, "note": 65, "velocity": 104, "channel": 0}, {"type": "note_off", "time": 70, "note": 65, "velocity": 104, "channel": 0}, {"type": "note_on", "time": 131, "note": 69, "velocity": 121, "channel": 0}, {"type": "note_off", "time": 100, "note": 69, "velocity": 121, "channel": 0}, {"type": "note_on", "time": 9, "note": 70, "velocity": 119, "channel": 0}, {"type": "note_off", "time": 79, "note": 70, "velocity": 119, "channel": 0}, {"type": "note_on", "time": 12, "note": 69, "velocity": 119, "channel": 0}, {"type": "note_off", "time": 79, "note": 69, "velocity": 119, "channel": 0}, {"type": "note_on", "time": 25, "note": 67, "velocity": 112, "channel": 0}, {"type": "note_off", "time": 82, "note": 67, "velocity": 112, "channel": 0}, {"type": "note_on", "time": 15, "note": 65, "velocity": 103, "channel": 0}, {"type": "note_off", "time": 101, "note": 65, "velocity": 103, "channel": 0}, {"type": "note_on", "time": 8, "note": 64, "velocity": 109, "channel": 0}, {"type": "note_off", "time": 64, "note": 64, "velocity": 109, "channel": 0}, {"type": "note_on", "time": 9, "note": 63, "velocity": 109, "channel": 0}, {"type": "note_off", "time": 102, "note": 63, "velocity": 109, "channel": 0}, {"type": "note_on", "time": 92, "note": 62, "velocity": 101, "channel": 0}, {"type": "note_off", "time": 100, "note": 62, "velocity": 101, "channel": 0}, {"type": "note_on", "time": 11, "note": 61, "velocity": 100, "channel": 0}, {"type": "note_off", "time": 73, "note": 61, "velocity": 100, "channel": 0}, {"type": "note_on", "time": 13, "note": 58, "velocity": 108, "channel": 0}, {"type": "note_off", "time": 96, "note": 58, "velocity": 108, "channel": 0}, {"type": "note_on", "time": 20, "note": 57, "velocity": 103, "channel": 0}, {"type": "note_off", "time": 44, "note": 57, "velocity": 103, "channel": 0}, {"type": "note_on", "time": 18, "note": 56, "velocity": 98, "channel": 0}, {"type": "note_off", "time": 109, "note": 56, "velocity": 98, "channel": 0}, {"type": "note_on", "time": 15, "note": 58, "velocity": 104, "channel": 0}, {"type": "note_off", "time": 76, "note": 58, "velocity": 104, "channel": 0}, {"type": "note_on", "time": 17, "note": 60, "velocity": 100, "channel": 0}, {"type": "note_off", "time": 104, "note": 60, "velocity": 100, "channel": 0}, {"type": "note_on", "time": 34, "note": 65, "velocity": 104, "channel": 0}, {"type": "note_off", "time": 46, "note": 65, "velocity": 104, "channel": 0}, {"type": "note_on", "time": 4, "note": 67, "velocity": 109, "channel": 0}, {"type": "note_off", "time": 102, "note": 67, "velocity": 109, "channel": 0}, {"type": "note_on", "time": 81, "note": 67, "velocity": 110, "channel": 0}, {"type": "note_off", "time": 112, "note": 67, "velocity": 110, "channel": 0}, {"type": "note_on", "time": 9, "note": 66, "velocity": 107, "channel": 0}, {"type": "note_off", "time": 73, "note": 66, "velocity": 107, "channel": 0}, {"type": "note_on", "time": 264, "note": 58, "velocity": 93, "channel": 0}, {"type": "note_off", "time": 61, "note": 58, "velocity": 93, "channel": 0}, {"type": "note_on", "time": 31, "note": 64, "velocity": 111, "channel": 0}, {"type": "note_off", "time": 87, "note": 64, "velocity": 111, "channel": 0}, {"type": "note_on", "time": 13, "note": 65, "velocity": 102, "channel": 0}, {"type": "note_off", "time": 474, "note": 65, "velocity": 102, "channel": 0}, {"type": "note_on", "time": 58, "note": 63, "velocity": 115, "channel": 0}, {"type": "note_off", "time": 115, "note": 63, "velocity": 115, "channel": 0}, {"type": "note_on", "time": 13, "note": 61, "velocity": 88, "channel": 0}, {"type": "note_off", "time": 49, "note": 61, "velocity": 88, "channel": 0}, {"type": "note_on", "time": 13, "note": 63, "velocity": 113, "channel": 0}, {"type": "note_off", "time": 108, "note": 63, "velocity": 113, "channel": 0}, {"type": "note_on", "time": 18, "note": 61, "velocity": 101, "channel": 0}, {"type": "note_off", "time": 94, "note": 61, "velocity": 101, "channel": 0}, {"type": "note_on", "time": 580, "note": 71, "velocity": 114, "channel": 0}, {"type": "note_off", "time": 102, "note": 71, "velocity": 114, "channel": 0}, {"type": "note_on", "time": 15, "note": 72, "velocity": 123, "channel": 0}, {"type": "note_off", "time": 59, "note": 72, "velocity": 123, "channel": 0}, {"type": "note_on", "time": 33, "note": 69, "velocity": 121, "channel": 0}, {"type": "note_off", "time": 76, "note": 69, "velocity": 121, "channel": 0}, {"type": "note_on", "time": 25, "note": 65, "velocity": 107, "channel": 0}, {"type": "note_off", "time": 71, "note": 65, "velocity": 107, "channel": 0}, {"type": "note_on", "time": 15, "note": 62, "velocity": 112, "channel": 0}, {"type": "note_off", "time": 99, "note": 62, "velocity": 112, "channel": 0}, {"type": "note_on", "time": 165, "note": 70, "velocity": 118, "channel": 0}, {"type": "note_off", "time": 110, "note": 70, "velocity": 118, "channel": 0}, {"type": "note_on", "time": 85, "note": 71, "velocity": 124, "channel": 0}, {"type": "note_off", "time": 103, "note": 71, "velocity": 124, "channel": 0}, {"type": "note_on", "time": 93, "note": 68, "velocity": 125, "channel": 0}, {"type": "note_off", "time": 64, "note": 68, "velocity": 125, "channel": 0}, {"type": "note_on", "time": 38, "note": 64, "velocity": 112, "channel": 0}, {"type": "note_off", "time": 87, "note": 64, "velocity": 112, "channel": 0}, {"type": "note_on", "time": 24, "note": 61, "velocity": 108, "channel": 0}, {"type": "note_off", "time": 93, "note": 61, "velocity": 108, "channel": 0}, {"type": "note_on", "time": 309, "note": 70, "velocity": 123, "channel": 0}, {"type": "note_off", "time": 76, "note": 70, "velocity": 123, "channel": 0}, {"type": "note_on", "time": 7, "note": 69, "velocity": 119, "channel": 0}, {"type": "note_off", "time": 79, "note": 69, "velocity": 119, "channel": 0}, {"type": "note_on", "time": 18, "note": 67, "velocity": 108, "channel": 0}, {"type": "note_off", "time": 65, "note": 67, "velocity": 108, "channel": 0}, {"type": "note_on", "time": 8, "note": 65, "velocity": 106, "channel": 0}, {"type": "note_off", "time": 95, "note": 65, "velocity": 106, "channel": 0}, {"type": "note_on", "time": 34, "note": 64, "velocity": 107, "channel": 0}, {"type": "note_off", "time": 55, "note": 64, "velocity": 107, "channel": 0}, {"type": "note_on", "time": 4, "note": 63, "velocity": 112, "channel": 0}, {"type": "note_off", "time": 103, "note": 63, "velocity": 112, "channel": 0}, {"type": "note_on", "time": 32, "note": 58, "velocity": 89, "channel": 0}, {"type": "note_off", "time": 53, "note": 58, "velocity": 89, "channel": 0}, {"type": "note_on", "time": 33, "note": 62, "velocity": 105, "channel": 0}, {"type": "note_off", "time": 82, "note": 62, "velocity": 105, "channel": 0}, {"type": "note_on", "time": 7, "note": 65, "velocity": 105, "channel": 0}, {"type": "note_off", "time": 191, "note": 65, "velocity": 105, "channel": 0}, {"type": "note_on", "time": 72, "note": 61, "velocity": 104, "channel": 0}, {"type": "note_off", "time": 85, "note": 61, "velocity": 104, "channel": 0}, {"type": "note_on", "time": 36, "note": 65, "velocity": 113, "channel": 0}, {"type": "note_off", "time": 109, "note": 65, "velocity": 113, "channel": 0}, {"type": "note_on", "time": 173, "note": 60, "velocity": 104, "channel": 0}, {"type": "note_off", "time": 150, "note": 60, "velocity": 104, "channel": 0}, {"type": "note_on", "time": 11, "note": 60, "velocity": 101, "channel": 0}, {"type": "note_off", "time": 122, "note": 60, "velocity": 101, "channel": 0}, {"type": "note_on", "time": 14, "note": 60, "velocity": 107, "channel": 0}, {"type": "note_off", "time": 125, "note": 60, "velocity": 107, "channel": 0}, {"type": "note_on", "time": 690, "note": 61, "velocity": 102, "channel": 0}, {"type": "note_off", "time": 52, "note": 61, "velocity": 102, "channel": 0}, {"type": "note_on", "time": 7, "note": 62, "velocity": 110, "channel": 0}, {"type": "note_off", "time": 113, "note": 62, "velocity": 110, "channel": 0}, {"type": "note_on", "time": 15, "note": 65, "velocity": 99, "channel": 0}, {"type": "note_off", "time": 45, "note": 65, "velocity": 99, "channel": 0}, {"type": "note_on", "time": 15, "note": 67, "velocity": 113, "channel": 0}, {"type": "note_off", "time": 56, "note": 67, "velocity": 113, "channel": 0}, {"type": "note_on", "time": 120, "note": 70, "velocity": 114, "channel": 0}, {"type": "note_off", "time": 96, "note": 70, "velocity": 114, "channel": 0}, {"type": "note_on", "time": 94, "note": 70, "velocity": 119, "channel": 0}, {"type": "note_off", "time": 118, "note": 70, "velocity": 119, "channel": 0}, {"type": "note_on", "time": 89, "note": 70, "velocity": 121, "channel": 0}, {"type": "note_off", "time": 313, "note": 70, "velocity": 121, "channel": 0}, {"type": "note_on", "time": 18, "note": 70, "velocity": 122, "channel": 0}, {"type": "note_off", "time": 97, "note": 70, "velocity": 122, "channel": 0}, {"type": "note_on", "time": 92, "note": 70, "velocity": 120, "channel": 0}, {"type": "note_off", "time": 104, "note": 70, "velocity": 120, "channel": 0}, {"type": "note_on", "time": 88, "note": 70, "velocity": 121, "channel": 0}, {"type": "note_off", "time": 74, "note": 70, "velocity": 121, "channel": 0}, {"type": "note_on", "time": 15, "note": 70, "velocity": 124, "channel": 0}, {"type": "note_off", "time": 257, "note": 70, "velocity": 124, "channel": 0}, {"type": "note_on", "time": 53, "note": 70, "velocity": 123, "channel": 0}, {"type": "note_off", "time": 240, "note": 70, "velocity": 123, "channel": 0}, {"type": "note_on", "time": 18, "note": 68, "velocity": 123, "channel": 0}, {"type": "note_off", "time": 120, "note": 68, "velocity": 123, "channel": 0}, {"type": "note_on", "time": 12, "note": 65, "velocity": 100, "channel": 0}, {"type": "note_off", "time": 46, "note": 65, "velocity": 100, "channel": 0}, {"type": "note_on", "time": 6, "note": 68, "velocity": 122, "channel": 0}, {"type": "note_off", "time": 123, "note": 68, "velocity": 122, "channel": 0}, {"type": "note_on", "time": 10, "note": 70, "velocity": 121, "channel": 0}, {"type": "note_off", "time": 455, "note": 70, "velocity": 121, "channel": 0}, {"type": "note_on", "time": 661, "note": 72, "velocity": 117, "channel": 0}, {"type": "note_off", "time": 72, "note": 72, "velocity": 117, "channel": 0}, {"type": "note_on", "time": 12, "note": 73, "velocity": 122, "channel": 0}, {"type": "note_off", "time": 69, "note": 73, "velocity": 122, "channel": 0}, {"type": "note_on", "time": 19, "note": 73, "velocity": 120, "channel": 0}, {"type": "note_off", "time": 64, "note": 73, "velocity": 120, "channel": 0}, {"type": "note_on", "time": 21, "note": 73, "velocity": 122, "channel": 0}, {"type": "note_off", "time": 73, "note": 73, "velocity": 122, "channel": 0}, {"type": "note_on", "time": 44, "note": 69, "velocity": 118, "channel": 0}, {"type": "note_off", "time": 64, "note": 69, "velocity": 118, "channel": 0}, {"type": "note_on", "time": 15, "note": 70, "velocity": 117, "channel": 0}, {"type": "note_off", "time": 67, "note": 70, "velocity": 117, "channel": 0}, {"type": "note_on", "time": 15, "note": 70, "velocity": 123, "channel": 0}, {"type": "note_off", "time": 77, "note": 70, "velocity": 123, "channel": 0}, {"type": "note_on", "time": 16, "note": 70, "velocity": 124, "channel": 0}, {"type": "note_off", "time": 64, "note": 70, "velocity": 124, "channel": 0}, {"type": "note_on", "time": 52, "note": 66, "velocity": 109, "channel": 0}, {"type": "note_off", "time": 65, "note": 66, "velocity": 109, "channel": 0}, {"type": "note_on", "time": 12, "note": 67, "velocity": 110, "channel": 0}, {"type": "note_off", "time": 62, "note": 67, "velocity": 110, "channel": 0}, {"type": "note_on", "time": 29, "note": 67, "velocity": 111, "channel": 0}, {"type": "note_off", "time": 66, "note": 67, "velocity": 111, "channel": 0}, {"type": "note_on", "time": 20, "note": 67, "velocity": 112, "channel": 0}, {"type": "note_off", "time": 75, "note": 67, "velocity": 112, "channel": 0}, {"type": "note_on", "time": 33, "note": 63, "velocity": 116, "channel": 0}, {"type": "note_off", "time": 80, "note": 63, "velocity": 116, "channel": 0}, {"type": "note_on", "time": 15, "note": 64, "velocity": 108, "channel": 0}, {"type": "note_off", "time": 78, "note": 64, "velocity": 108, "channel": 0}, {"type": "note_on", "time": 14, "note": 64, "velocity": 112, "channel": 0}, {"type": "note_off", "time": 79, "note": 64, "velocity": 112, "channel": 0}, {"type": "note_on", "time": 17, "note": 64, "velocity": 112, "channel": 0}, {"type": "note_off", "time": 75, "note": 64, "velocity": 112, "channel": 0}, {"type": "note_on", "time": 4, "note": 61, "velocity": 101, "channel": 0}, {"type": "note_off", "time": 74, "note": 61, "velocity": 101, "channel": 0}, {"type": "note_on", "time": 344, "note": 69, "velocity": 117, "channel": 0}, {"type": "note_off", "time": 101, "note": 69, "velocity": 117, "channel": 0}, {"type": "note_on", "time": 19, "note": 70, "velocity": 99, "channel": 0}, {"type": "note_off", "time": 40, "note": 70, "velocity": 99, "channel": 0}, {"type": "note_on", "time": 28, "note": 72, "velocity": 111, "channel": 0}, {"type": "note_off", "time": 75, "note": 72, "velocity": 111, "channel": 0}, {"type": "note_on", "time": 43, "note": 67, "velocity": 113, "channel": 0}, {"type": "note_off", "time": 64, "note": 67, "velocity": 113, "channel": 0}, {"type": "note_on", "time": 79, "note": 69, "velocity": 116, "channel": 0}, {"type": "note_off", "time": 80, "note": 69, "velocity": 116, "channel": 0}, {"type": "note_on", "time": 9, "note": 70, "velocity": 119, "channel": 0}, {"type": "note_off", "time": 111, "note": 70, "velocity": 119, "channel": 0}, {"type": "note_on", "time": 24, "note": 69, "velocity": 121, "channel": 0}, {"type": "note_off", "time": 85, "note": 69, "velocity": 121, "channel": 0}, {"type": "note_on", "time": 85, "note": 67, "velocity": 110, "channel": 0}, {"type": "note_off", "time": 72, "note": 67, "velocity": 110, "channel": 0}, {"type": "note_on", "time": 19, "note": 65, "velocity": 106, "channel": 0}, {"type": "note_off", "time": 77, "note": 65, "velocity": 106, "channel": 0}, {"type": "note_on", "time": 16, "note": 64, "velocity": 112, "channel": 0}, {"type": "note_off", "time": 69, "note": 64, "velocity": 112, "channel": 0}, {"type": "note_on", "time": 25, "note": 63, "velocity": 121, "channel": 0}, {"type": "note_off", "time": 116, "note": 63, "velocity": 121, "channel": 0}, {"type": "note_on", "time": 18, "note": 63, "velocity": 118, "channel": 0}, {"type": "note_off", "time": 234, "note": 63, "velocity": 118, "channel": 0}, {"type": "note_on", "time": 19, "note": 63, "velocity": 117, "channel": 0}, {"type": "note_off", "time": 118, "note": 63, "velocity": 117, "channel": 0}, {"type": "note_on", "time": 569, "note": 62, "velocity": 109, "channel": 0}, {"type": "note_off", "time": 89, "note": 62, "velocity": 109, "channel": 0}, {"type": "note_on", "time": 18, "note": 59, "velocity": 106, "channel": 0}, {"type": "note_off", "time": 134, "note": 59, "velocity": 106, "channel": 0}, {"type": "note_on", "time": 8, "note": 60, "velocity": 110, "channel": 0}, {"type": "note_off", "time": 140, "note": 60, "velocity": 110, "channel": 0}, {"type": "note_on", "time": 101, "note": 63, "velocity": 117, "channel": 0}, {"type": "note_off", "time": 109, "note": 63, "velocity": 117, "channel": 0}, {"type": "note_on", "time": 82, "note": 67, "velocity": 115, "channel": 0}, {"type": "note_off", "time": 101, "note": 67, "velocity": 115, "channel": 0}, {"type": "note_on", "time": 99, "note": 72, "velocity": 116, "channel": 0}, {"type": "note_off", "time": 104, "note": 72, "velocity": 116, "channel": 0}, {"type": "note_on", "time": 91, "note": 69, "velocity": 123, "channel": 0}, {"type": "note_off", "time": 85, "note": 69, "velocity": 123, "channel": 0}, {"type": "note_on", "time": 16, "note": 67, "velocity": 120, "channel": 0}, {"type": "note_off", "time": 69, "note": 67, "velocity": 120, "channel": 0}, {"type": "note_on", "time": 7, "note": 65, "velocity": 113, "channel": 0}, {"type": "note_off", "time": 102, "note": 65, "velocity": 113, "channel": 0}, {"type": "note_on", "time": 12, "note": 64, "velocity": 116, "channel": 0}, {"type": "note_off", "time": 57, "note": 64, "velocity": 116, "channel": 0}, {"type": "note_on", "time": 25, "note": 63, "velocity": 118, "channel": 0}, {"type": "note_off", "time": 86, "note": 63, "velocity": 118, "channel": 0}, {"type": "note_on", "time": 78, "note": 62, "velocity": 116, "channel": 0}, {"type": "note_off", "time": 98, "note": 62, "velocity": 116, "channel": 0}, {"type": "note_on", "time": 10, "note": 61, "velocity": 106, "channel": 0}, {"type": "note_off", "time": 64, "note": 61, "velocity": 106, "channel": 0}, {"type": "note_on", "time": 13, "note": 57, "velocity": 106, "channel": 0}, {"type": "note_off", "time": 97, "note": 57, "velocity": 106, "channel": 0}, {"type": "note_on", "time": 142, "note": 60, "velocity": 105, "channel": 0}, {"type": "note_off", "time": 76, "note": 60, "velocity": 105, "channel": 0}, {"type": "note_on", "time": 12, "note": 58, "velocity": 102, "channel": 0}, {"type": "note_off", "time": 72, "note": 58, "velocity": 102, "channel": 0}, {"type": "note_on", "time": 11, "note": 57, "velocity": 103, "channel": 0}, {"type": "note_off", "time": 116, "note": 57, "velocity": 103, "channel": 0}, {"type": "note_on", "time": 12, "note": 58, "velocity": 92, "channel": 0}, {"type": "note_off", "time": 53, "note": 58, "velocity": 92, "channel": 0}, {"type": "note_on", "time": 1, "note": 62, "velocity": 109, "channel": 0}, {"type": "note_off", "time": 108, "note": 62, "velocity": 109, "channel": 0}, {"type": "note_on", "time": 6, "note": 65, "velocity": 103, "channel": 0}, {"type": "note_off", "time": 269, "note": 65, "velocity": 103, "channel": 0}, {"type": "note_on", "time": 530, "note": 64, "velocity": 91, "channel": 0}, {"type": "note_off", "time": 51, "note": 64, "velocity": 91, "channel": 0}, {"type": "note_on", "time": 3, "note": 67, "velocity": 108, "channel": 0}, {"type": "note_off", "time": 87, "note": 67, "velocity": 108, "channel": 0}, {"type": "note_on", "time": 26, "note": 70, "velocity": 122, "channel": 0}, {"type": "note_off", "time": 390, "note": 70, "velocity": 122, "channel": 0}, {"type": "note_on", "time": 79, "note": 68, "velocity": 121, "channel": 0}, {"type": "note_off", "time": 111, "note": 68, "velocity": 121, "channel": 0}, {"type": "note_on", "time": 22, "note": 65, "velocity": 101, "channel": 0}, {"type": "note_off", "time": 193, "note": 65, "velocity": 101, "channel": 0}, {"type": "note_on", "time": 396, "note": 64, "velocity": 110, "channel": 0}, {"type": "note_off", "time": 62, "note": 64, "velocity": 110, "channel": 0}, {"type": "note_on", "time": 3, "note": 65, "velocity": 93, "channel": 0}, {"type": "note_off", "time": 148, "note": 65, "velocity": 93, "channel": 0}, {"type": "note_on", "time": 6, "note": 58, "velocity": 99, "channel": 0}, {"type": "note_off", "time": 62, "note": 58, "velocity": 99, "channel": 0}, {"type": "note_on", "time": 156, "note": 63, "velocity": 110, "channel": 0}, {"type": "note_off", "time": 56, "note": 63, "velocity": 110, "channel": 0}, {"type": "note_on", "time": 6, "note": 65, "velocity": 101, "channel": 0}, {"type": "note_off", "time": 141, "note": 65, "velocity": 101, "channel": 0}, {"type": "note_on", "time": 3, "note": 62, "velocity": 98, "channel": 0}, {"type": "note_off", "time": 61, "note": 62, "velocity": 98, "channel": 0}, {"type": "note_on", "time": 825, "note": 63, "velocity": 111, "channel": 0}, {"type": "note_off", "time": 74, "note": 63, "velocity": 111, "channel": 0}, {"type": "note_on", "time": 7, "note": 65, "velocity": 95, "channel": 0}, {"type": "note_off", "time": 544, "note": 65, "velocity": 95, "channel": 0}, {"type": "note_on", "time": 207, "note": 65, "velocity": 103, "channel": 0}, {"type": "note_off", "time": 150, "note": 65, "velocity": 103, "channel": 0}, {"type": "note_on", "time": 7, "note": 62, "velocity": 89, "channel": 0}, {"type": "note_off", "time": 42, "note": 62, "velocity": 89, "channel": 0}, {"type": "note_on", "time": 511, "note": 65, "velocity": 100, "channel": 0}, {"type": "note_off", "time": 62, "note": 65, "velocity": 100, "channel": 0}, {"type": "note_on", "time": 24, "note": 64, "velocity": 106, "channel": 0}, {"type": "note_off", "time": 70, "note": 64, "velocity": 106, "channel": 0}, {"type": "note_on", "time": 24, "note": 65, "velocity": 102, "channel": 0}, {"type": "note_off", "time": 56, "note": 65, "velocity": 102, "channel": 0}, {"type": "note_on", "time": 21, "note": 65, "velocity": 95, "channel": 0}, {"type": "note_off", "time": 72, "note": 65, "velocity": 95, "channel": 0}, {"type": "note_on", "time": 20, "note": 65, "velocity": 95, "channel": 0}, {"type": "note_off", "time": 79, "note": 65, "velocity": 95, "channel": 0}, {"type": "note_on", "time": 71, "note": 64, "velocity": 100, "channel": 0}, {"type": "note_off", "time": 50, "note": 64, "velocity": 100, "channel": 0}, {"type": "note_on", "time": 18, "note": 65, "velocity": 97, "channel": 0}, {"type": "note_off", "time": 73, "note": 65, "velocity": 97, "channel": 0}, {"type": "note_on", "time": 14, "note": 65, "velocity": 94, "channel": 0}, {"type": "note_off", "time": 65, "note": 65, "velocity": 94, "channel": 0}, {"type": "note_on", "time": 17, "note": 65, "velocity": 97, "channel": 0}, {"type": "note_off", "time": 40, "note": 65, "velocity": 97, "channel": 0}, {"type": "note_on", "time": 79, "note": 64, "velocity": 104, "channel": 0}, {"type": "note_off", "time": 75, "note": 64, "velocity": 104, "channel": 0}, {"type": "note_on", "time": 10, "note": 65, "velocity": 103, "channel": 0}, {"type": "note_off", "time": 77, "note": 65, "velocity": 103, "channel": 0}, {"type": "note_on", "time": 16, "note": 65, "velocity": 96, "channel": 0}, {"type": "note_off", "time": 70, "note": 65, "velocity": 96, "channel": 0}, {"type": "note_on", "time": 17, "note": 65, "velocity": 96, "channel": 0}, {"type": "note_off", "time": 66, "note": 65, "velocity": 96, "channel": 0}, {"type": "note_on", "time": 44, "note": 66, "velocity": 98, "channel": 0}, {"type": "note_off", "time": 148, "note": 66, "velocity": 98, "channel": 0}, {"type": "note_on", "time": 24, "note": 67, "velocity": 106, "channel": 0}, {"type": "note_off", "time": 80, "note": 67, "velocity": 106, "channel": 0}, {"type": "note_on", "time": 16, "note": 57, "velocity": 109, "channel": 0}, {"type": "note_off", "time": 96, "note": 57, "velocity": 109, "channel": 0}, {"type": "note_on", "time": 494, "note": 57, "velocity": 100, "channel": 0}, {"type": "note_off", "time": 39, "note": 57, "velocity": 100, "channel": 0}, {"type": "note_on", "time": 9, "note": 58, "velocity": 96, "channel": 0}, {"type": "note_off", "time": 52, "note": 58, "velocity": 96, "channel": 0}, {"type": "note_on", "time": 16, "note": 62, "velocity": 85, "channel": 0}, {"type": "note_off", "time": 45, "note": 62, "velocity": 85, "channel": 0}, {"type": "note_on", "time": 19, "note": 65, "velocity": 82, "channel": 0}, {"type": "note_off", "time": 61, "note": 65, "velocity": 82, "channel": 0}, {"type": "note_on", "time": 46, "note": 69, "velocity": 115, "channel": 0}, {"type": "note_off", "time": 81, "note": 69, "velocity": 115, "channel": 0}, {"type": "note_on", "time": 18, "note": 70, "velocity": 113, "channel": 0}, {"type": "note_off", "time": 82, "note": 70, "velocity": 113, "channel": 0}, {"type": "note_on", "time": 12, "note": 67, "velocity": 106, "channel": 0}, {"type": "note_off", "time": 65, "note": 67, "velocity": 106, "channel": 0}, {"type": "note_on", "time": 22, "note": 69, "velocity": 114, "channel": 0}, {"type": "note_off", "time": 68, "note": 69, "velocity": 114, "channel": 0}, {"type": "note_on", "time": 33, "note": 65, "velocity": 91, "channel": 0}, {"type": "note_off", "time": 58, "note": 65, "velocity": 91, "channel": 0}, {"type": "note_on", "time": 17, "note": 68, "velocity": 112, "channel": 0}, {"type": "note_off", "time": 75, "note": 68, "velocity": 112, "channel": 0}, {"type": "note_on", "time": 38, "note": 63, "velocity": 100, "channel": 0}, {"type": "note_off", "time": 72, "note": 63, "velocity": 100, "channel": 0}, {"type": "note_on", "time": 40, "note": 64, "velocity": 98, "channel": 0}, {"type": "note_off", "time": 56, "note": 64, "velocity": 98, "channel": 0}, {"type": "note_on", "time": 24, "note": 62, "velocity": 99, "channel": 0}, {"type": "note_off", "time": 50, "note": 62, "velocity": 99, "channel": 0}, {"type": "note_on", "time": 99, "note": 63, "velocity": 107, "channel": 0}, {"type": "note_off", "time": 131, "note": 63, "velocity": 107, "channel": 0}, {"type": "note_on", "time": 85, "note": 60, "velocity": 100, "channel": 0}, {"type": "note_off", "time": 336, "note": 60, "velocity": 100, "channel": 0}, {"type": "note_on", "time": 41, "note": 60, "velocity": 94, "channel": 0}, {"type": "note_off", "time": 376, "note": 60, "velocity": 94, "channel": 0}, {"type": "note_on", "time": 19, "note": 60, "velocity": 93, "channel": 0}, {"type": "note_off", "time": 79, "note": 60, "velocity": 93, "channel": 0}, {"type": "note_on", "time": 92, "note": 67, "velocity": 107, "channel": 0}, {"type": "note_off", "time": 187, "note": 67, "velocity": 107, "channel": 0}, {"type": "note_on", "time": 46, "note": 65, "velocity": 97, "channel": 0}, {"type": "note_off", "time": 155, "note": 65, "velocity": 97, "channel": 0}, {"type": "note_on", "time": 13, "note": 62, "velocity": 101, "channel": 0}, {"type": "note_off", "time": 99, "note": 62, "velocity": 101, "channel": 0}, {"type": "note_on", "time": 32, "note": 60, "velocity": 99, "channel": 0}, {"type": "note_off", "time": 90, "note": 60, "velocity": 99, "channel": 0}, {"type": "note_on", "time": 104, "note": 60, "velocity": 95, "channel": 0}, {"type": "note_off", "time": 221, "note": 60, "velocity": 95, "channel": 0}, {"type": "note_on", "time": 24, "note": 60, "velocity": 96, "channel": 0}, {"type": "note_off", "time": 117, "note": 60, "velocity": 96, "channel": 0}, {"type": "note_on", "time": 310, "note": 58, "velocity": 106, "channel": 0}, {"type": "note_off", "time": 130, "note": 58, "velocity": 106, "channel": 0}, {"type": "note_on", "time": 36, "note": 55, "velocity": 101, "channel": 0}, {"type": "note_off", "time": 76, "note": 55, "velocity": 101, "channel": 0}, {"type": "note_on", "time": 392, "note": 58, "velocity": 96, "channel": 0}, {"type": "note_off", "time": 285, "note": 58, "velocity": 96, "channel": 0}, {"type": "note_on", "time": 14, "note": 60, "velocity": 94, "channel": 0}, {"type": "note_off", "time": 106, "note": 60, "velocity": 94, "channel": 0}, {"type": "note_on", "time": 4, "note": 58, "velocity": 87, "channel": 0}, {"type": "note_off", "time": 47, "note": 58, "velocity": 87, "channel": 0}, {"type": "note_on", "time": 4, "note": 61, "velocity": 102, "channel": 0}, {"type": "note_off", "time": 110, "note": 61, "velocity": 102, "channel": 0}, {"type": "note_on", "time": 266, "note": 61, "velocity": 106, "channel": 0}, {"type": "note_off", "time": 201, "note": 61, "velocity": 106, "channel": 0}, {"type": "note_on", "time": 9, "note": 63, "velocity": 108, "channel": 0}, {"type": "note_off", "time": 121, "note": 63, "velocity": 108, "channel": 0}, {"type": "note_on", "time": 7, "note": 64, "velocity": 108, "channel": 0}, {"type": "note_off", "time": 115, "note": 64, "velocity": 108, "channel": 0}, {"type": "note_on", "time": 267, "note": 58, "velocity": 106, "channel": 0}, {"type": "note_off", "time": 61, "note": 58, "velocity": 106, "channel": 0}, {"type": "note_on", "time": 15, "note": 61, "velocity": 98, "channel": 0}, {"type": "note_off", "time": 104, "note": 61, "velocity": 98, "channel": 0}, {"type": "note_on", "time": 14, "note": 62, "velocity": 101, "channel": 0}, {"type": "note_off", "time": 62, "note": 62, "velocity": 101, "channel": 0}, {"type": "note_on", "time": 15, "note": 63, "velocity": 106, "channel": 0}, {"type": "note_off", "time": 112, "note": 63, "velocity": 106, "channel": 0}, {"type": "note_on", "time": 12, "note": 64, "velocity": 99, "channel": 0}, {"type": "note_off", "time": 75, "note": 64, "velocity": 99, "channel": 0}, {"type": "note_on", "time": 5, "note": 65, "velocity": 92, "channel": 0}, {"type": "note_off", "time": 70, "note": 65, "velocity": 92, "channel": 0}, {"type": "note_on", "time": 27, "note": 67, "velocity": 96, "channel": 0}, {"type": "note_off", "time": 61, "note": 67, "velocity": 96, "channel": 0}, {"type": "note_on", "time": 10, "note": 69, "velocity": 116, "channel": 0}, {"type": "note_off", "time": 84, "note": 69, "velocity": 116, "channel": 0}, {"type": "note_on", "time": 38, "note": 70, "velocity": 114, "channel": 0}, {"type": "note_off", "time": 74, "note": 70, "velocity": 114, "channel": 0}, {"type": "note_on", "time": 9, "note": 69, "velocity": 115, "channel": 0}, {"type": "note_off", "time": 90, "note": 69, "velocity": 115, "channel": 0}, {"type": "note_on", "time": 19, "note": 67, "velocity": 104, "channel": 0}, {"type": "note_off", "time": 56, "note": 67, "velocity": 104, "channel": 0}, {"type": "note_on", "time": 29, "note": 65, "velocity": 95, "channel": 0}, {"type": "note_off", "time": 69, "note": 65, "velocity": 95, "channel": 0}, {"type": "note_on", "time": 54, "note": 64, "velocity": 102, "channel": 0}, {"type": "note_off", "time": 48, "note": 64, "velocity": 102, "channel": 0}, {"type": "note_on", "time": 16, "note": 63, "velocity": 106, "channel": 0}, {"type": "note_off", "time": 90, "note": 63, "velocity": 106, "channel": 0}, {"type": "note_on", "time": 32, "note": 57, "velocity": 93, "channel": 0}, {"type": "note_off", "time": 43, "note": 57, "velocity": 93, "channel": 0}, {"type": "note_on", "time": 21, "note": 58, "velocity": 101, "channel": 0}, {"type": "note_off", "time": 72, "note": 58, "velocity": 101, "channel": 0}, {"type": "note_on", "time": 58, "note": 61, "velocity": 104, "channel": 0}, {"type": "note_off", "time": 50, "note": 61, "velocity": 104, "channel": 0}, {"type": "note_on", "time": 8, "note": 62, "velocity": 94, "channel": 0}, {"type": "note_off", "time": 168, "note": 62, "velocity": 94, "channel": 0}, {"type": "note_on", "time": 12, "note": 65, "velocity": 91, "channel": 0}, {"type": "note_off", "time": 485, "note": 65, "velocity": 91, "channel": 0}, {"type": "note_on", "time": 526, "note": 68, "velocity": 112, "channel": 0}, {"type": "note_off", "time": 87, "note": 68, "velocity": 112, "channel": 0}, {"type": "note_on", "time": 16, "note": 68, "velocity": 114, "channel": 0}, {"type": "note_off", "time": 56, "note": 68, "velocity": 114, "channel": 0}, {"type": "note_on", "time": 16, "note": 68, "velocity": 114, "channel": 0}, {"type": "note_off", "time": 89, "note": 68, "velocity": 114, "channel": 0}, {"type": "note_on", "time": 23, "note": 68, "velocity": 113, "channel": 0}, {"type": "note_off", "time": 74, "note": 68, "velocity": 113, "channel": 0}, {"type": "note_on", "time": 11, "note": 68, "velocity": 114, "channel": 0}, {"type": "note_off", "time": 93, "note": 68, "velocity": 114, "channel": 0}, {"type": "note_on", "time": 19, "note": 65, "velocity": 101, "channel": 0}, {"type": "note_off", "time": 64, "note": 65, "velocity": 101, "channel": 0}, {"type": "note_on", "time": 191, "note": 65, "velocity": 95, "channel": 0}, {"type": "note_off", "time": 168, "note": 65, "velocity": 95, "channel": 0}, {"type": "note_on", "time": 20, "note": 65, "velocity": 97, "channel": 0}, {"type": "note_off", "time": 72, "note": 65, "velocity": 97, "channel": 0}, {"type": "note_on", "time": 783, "note": 62, "velocity": 99, "channel": 0}, {"type": "note_off", "time": 118, "note": 62, "velocity": 99, "channel": 0}, {"type": "note_on", "time": 9, "note": 57, "velocity": 104, "channel": 0}, {"type": "note_off", "time": 438, "note": 57, "velocity": 104, "channel": 0}, {"type": "note_on", "time": 129, "note": 63, "velocity": 112, "channel": 0}, {"type": "note_off", "time": 93, "note": 63, "velocity": 112, "channel": 0}, {"type": "note_on", "time": 16, "note": 58, "velocity": 104, "channel": 0}, {"type": "note_off", "time": 200, "note": 58, "velocity": 104, "channel": 0}, {"type": "note_on", "time": 76, "note": 64, "velocity": 105, "channel": 0}, {"type": "note_off", "time": 104, "note": 64, "velocity": 105, "channel": 0}, {"type": "note_on", "time": 24, "note": 59, "velocity": 96, "channel": 0}, {"type": "note_off", "time": 167, "note": 59, "velocity": 96, "channel": 0}, {"type": "note_on", "time": 97, "note": 65, "velocity": 101, "channel": 0}, {"type": "note_off", "time": 74, "note": 65, "velocity": 101, "channel": 0}, {"type": "note_on", "time": 47, "note": 60, "velocity": 103, "channel": 0}, {"type": "note_off", "time": 64, "note": 60, "velocity": 103, "channel": 0}, {"type": "note_on", "time": 381, "note": 65, "velocity": 89, "channel": 0}, {"type": "note_off", "time": 102, "note": 65, "velocity": 89, "channel": 0}, {"type": "note_on", "time": 14, "note": 67, "velocity": 87, "channel": 0}, {"type": "note_off", "time": 55, "note": 67, "velocity": 87, "channel": 0}, {"type": "note_on", "time": 10, "note": 68, "velocity": 110, "channel": 0}, {"type": "note_off", "time": 90, "note": 68, "velocity": 110, "channel": 0}, {"type": "note_on", "time": 15, "note": 70, "velocity": 108, "channel": 0}, {"type": "note_off", "time": 84, "note": 70, "velocity": 108, "channel": 0}, {"type": "note_on", "time": 21, "note": 68, "velocity": 107, "channel": 0}, {"type": "note_off", "time": 84, "note": 68, "velocity": 107, "channel": 0}, {"type": "note_on", "time": 311, "note": 67, "velocity": 102, "channel": 0}, {"type": "note_off", "time": 62, "note": 67, "velocity": 102, "channel": 0}, {"type": "note_on", "time": 21, "note": 66, "velocity": 102, "channel": 0}, {"type": "note_off", "time": 68, "note": 66, "velocity": 102, "channel": 0}, {"type": "note_on", "time": 15, "note": 65, "velocity": 93, "channel": 0}, {"type": "note_off", "time": 102, "note": 65, "velocity": 93, "channel": 0}, {"type": "note_on", "time": 30, "note": 64, "velocity": 98, "channel": 0}, {"type": "note_off", "time": 47, "note": 64, "velocity": 98, "channel": 0}, {"type": "note_on", "time": 16, "note": 63, "velocity": 105, "channel": 0}, {"type": "note_off", "time": 103, "note": 63, "velocity": 105, "channel": 0}, {"type": "note_on", "time": 22, "note": 58, "velocity": 95, "channel": 0}, {"type": "note_off", "time": 42, "note": 58, "velocity": 95, "channel": 0}, {"type": "note_on", "time": 9, "note": 58, "velocity": 94, "channel": 0}, {"type": "note_off", "time": 115, "note": 58, "velocity": 94, "channel": 0}, {"type": "note_on", "time": 19, "note": 60, "velocity": 92, "channel": 0}, {"type": "note_off", "time": 69, "note": 60, "velocity": 92, "channel": 0}, {"type": "note_on", "time": 4, "note": 61, "velocity": 94, "channel": 0}, {"type": "note_off", "time": 92, "note": 61, "velocity": 94, "channel": 0}, {"type": "note_on", "time": 14, "note": 63, "velocity": 100, "channel": 0}, {"type": "note_off", "time": 59, "note": 63, "velocity": 100, "channel": 0}, {"type": "note_on", "time": 6, "note": 64, "velocity": 100, "channel": 0}, {"type": "note_off", "time": 61, "note": 64, "velocity": 100, "channel": 0}, {"type": "note_on", "time": 294, "note": 58, "velocity": 97, "channel": 0}, {"type": "note_off", "time": 97, "note": 58, "velocity": 97, "channel": 0}, {"type": "note_on", "time": 63, "note": 60, "velocity": 94, "channel": 0}, {"type": "note_off", "time": 62, "note": 60, "velocity": 94, "channel": 0}, {"type": "note_on", "time": 4, "note": 61, "velocity": 96, "channel": 0}, {"type": "note_off", "time": 79, "note": 61, "velocity": 96, "channel": 0}, {"type": "note_on", "time": 30, "note": 63, "velocity": 100, "channel": 0}, {"type": "note_off", "time": 67, "note": 63, "velocity": 100, "channel": 0}, {"type": "note_on", "time": 9, "note": 64, "velocity": 98, "channel": 0}, {"type": "note_off", "time": 92, "note": 64, "velocity": 98, "channel": 0}, {"type": "note_on", "time": 14, "note": 66, "velocity": 105, "channel": 0}, {"type": "note_off", "time": 60, "note": 66, "velocity": 105, "channel": 0}, {"type": "note_on", "time": 6, "note": 67, "velocity": 105, "channel": 0}, {"type": "note_off", "time": 91, "note": 67, "velocity": 105, "channel": 0}, {"type": "note_on", "time": 808, "note": 69, "velocity": 113, "channel": 0}, {"type": "note_off", "time": 60, "note": 69, "velocity": 113, "channel": 0}, {"type": "note_on", "time": 8, "note": 70, "velocity": 108, "channel": 0}, {"type": "note_off", "time": 102, "note": 70, "velocity": 108, "channel": 0}, {"type": "note_on", "time": 30, "note": 72, "velocity": 120, "channel": 0}, {"type": "note_off", "time": 55, "note": 72, "velocity": 120, "channel": 0}, {"type": "note_on", "time": 14, "note": 73, "velocity": 115, "channel": 0}, {"type": "note_off", "time": 82, "note": 73, "velocity": 115, "channel": 0}, {"type": "note_on", "time": 101, "note": 69, "velocity": 110, "channel": 0}, {"type": "note_off", "time": 108, "note": 69, "velocity": 110, "channel": 0}, {"type": "note_on", "time": 97, "note": 70, "velocity": 114, "channel": 0}, {"type": "note_off", "time": 105, "note": 70, "velocity": 114, "channel": 0}, {"type": "note_on", "time": 69, "note": 66, "velocity": 104, "channel": 0}, {"type": "note_off", "time": 122, "note": 66, "velocity": 104, "channel": 0}, {"type": "note_on", "time": 81, "note": 67, "velocity": 105, "channel": 0}, {"type": "note_off", "time": 121, "note": 67, "velocity": 105, "channel": 0}, {"type": "note_on", "time": 88, "note": 63, "velocity": 107, "channel": 0}, {"type": "note_off", "time": 79, "note": 63, "velocity": 107, "channel": 0}, {"type": "note_on", "time": 14, "note": 64, "velocity": 101, "channel": 0}, {"type": "note_off", "time": 91, "note": 64, "velocity": 101, "channel": 0}, {"type": "note_on", "time": 181, "note": 61, "velocity": 97, "channel": 0}, {"type": "note_off", "time": 75, "note": 61, "velocity": 97, "channel": 0}, {"type": "note_on", "time": 124, "note": 69, "velocity": 110, "channel": 0}, {"type": "note_off", "time": 101, "note": 69, "velocity": 110, "channel": 0}, {"type": "note_on", "time": 4, "note": 70, "velocity": 112, "channel": 0}, {"type": "note_off", "time": 75, "note": 70, "velocity": 112, "channel": 0}, {"type": "note_on", "time": 23, "note": 67, "velocity": 104, "channel": 0}, {"type": "note_off", "time": 70, "note": 67, "velocity": 104, "channel": 0}, {"type": "note_on", "time": 37, "note": 69, "velocity": 108, "channel": 0}, {"type": "note_off", "time": 72, "note": 69, "velocity": 108, "channel": 0}, {"type": "note_on", "time": 14, "note": 65, "velocity": 94, "channel": 0}, {"type": "note_off", "time": 72, "note": 65, "velocity": 94, "channel": 0}, {"type": "note_on", "time": 39, "note": 67, "velocity": 100, "channel": 0}, {"type": "note_off", "time": 73, "note": 67, "velocity": 100, "channel": 0}, {"type": "note_on", "time": 13, "note": 63, "velocity": 100, "channel": 0}, {"type": "note_off", "time": 90, "note": 63, "velocity": 100, "channel": 0}, {"type": "note_on", "time": 9, "note": 65, "velocity": 97, "channel": 0}, {"type": "note_off", "time": 69, "note": 65, "velocity": 97, "channel": 0}, {"type": "note_on", "time": 22, "note": 62, "velocity": 100, "channel": 0}, {"type": "note_off", "time": 55, "note": 62, "velocity": 100, "channel": 0}, {"type": "note_on", "time": 510, "note": 60, "velocity": 98, "channel": 0}, {"type": "note_off", "time": 93, "note": 60, "velocity": 98, "channel": 0}, {"type": "note_on", "time": 21, "note": 60, "velocity": 95, "channel": 0}, {"type": "note_off", "time": 57, "note": 60, "velocity": 95, "channel": 0}, {"type": "note_on", "time": 21, "note": 60, "velocity": 99, "channel": 0}, {"type": "note_off", "time": 75, "note": 60, "velocity": 99, "channel": 0}, {"type": "note_on", "time": 24, "note": 60, "velocity": 101, "channel": 0}, {"type": "note_off", "time": 50, "note": 60, "velocity": 101, "channel": 0}, {"type": "note_on", "time": 20, "note": 60, "velocity": 93, "channel": 0}, {"type": "note_off", "time": 115, "note": 60, "velocity": 93, "channel": 0}, {"type": "note_on", "time": 24, "note": 60, "velocity": 100, "channel": 0}, {"type": "note_off", "time": 57, "note": 60, "velocity": 100, "channel": 0}, {"type": "note_on", "time": 10, "note": 60, "velocity": 103, "channel": 0}, {"type": "note_off", "time": 81, "note": 60, "velocity": 103, "channel": 0}, {"type": "note_on", "time": 28, "note": 60, "velocity": 100, "channel": 0}, {"type": "note_off", "time": 51, "note": 60, "velocity": 100, "channel": 0}, {"type": "note_on", "time": 158, "note": 60, "velocity": 108, "channel": 0}, {"type": "note_off", "time": 195, "note": 60, "velocity": 108, "channel": 0}, {"type": "note_on", "time": 29, "note": 60, "velocity": 95, "channel": 0}, {"type": "note_off", "time": 51, "note": 60, "velocity": 95, "channel": 0}, {"type": "note_on", "time": 46, "note": 61, "velocity": 107, "channel": 0}, {"type": "note_off", "time": 74, "note": 61, "velocity": 107, "channel": 0}, {"type": "note_on", "time": 21, "note": 60, "velocity": 102, "channel": 0}, {"type": "note_off", "time": 105, "note": 60, "velocity": 102, "channel": 0}, {"type": "note_on", "time": 13, "note": 60, "velocity": 99, "channel": 0}, {"type": "note_off", "time": 60, "note": 60, "velocity": 99, "channel": 0}, {"type": "note_on", "time": 27, "note": 60, "velocity": 95, "channel": 0}, {"type": "note_off", "time": 184, "note": 60, "velocity": 95, "channel": 0}, {"type": "note_on", "time": 14, "note": 60, "velocity": 101, "channel": 0}, {"type": "note_off", "time": 125, "note": 60, "velocity": 101, "channel": 0}, {"type": "note_on", "time": 23, "note": 60, "velocity": 102, "channel": 0}, {"type": "note_off", "time": 61, "note": 60, "velocity": 102, "channel": 0}, {"type": "note_on", "time": 29, "note": 60, "velocity": 101, "channel": 0}, {"type": "note_off", "time": 72, "note": 60, "velocity": 101, "channel": 0}, {"type": "note_on", "time": 33, "note": 60, "velocity": 102, "channel": 0}, {"type": "note_off", "time": 94, "note": 60, "velocity": 102, "channel": 0}, {"type": "note_on", "time": 20, "note": 60, "velocity": 101, "channel": 0}, {"type": "note_off", "time": 77, "note": 60, "velocity": 101, "channel": 0}, {"type": "note_on", "time": 193, "note": 60, "velocity": 95, "channel": 0}, {"type": "note_off", "time": 290, "note": 60, "velocity": 95, "channel": 0}, {"type": "note_on", "time": 16, "note": 60, "velocity": 105, "channel": 0}, {"type": "note_off", "time": 71, "note": 60, "velocity": 105, "channel": 0}, {"type": "note_on", "time": 317, "note": 67, "velocity": 109, "channel": 0}, {"type": "note_off", "time": 253, "note": 67, "velocity": 109, "channel": 0}, {"type": "note_on", "time": 25, "note": 65, "velocity": 108, "channel": 0}, {"type": "note_off", "time": 66, "note": 65, "velocity": 108, "channel": 0}, {"type": "note_on", "time": 150, "note": 60, "velocity": 97, "channel": 0}, {"type": "note_off", "time": 313, "note": 60, "velocity": 97, "channel": 0}, {"type": "note_on", "time": 588, "note": 57, "velocity": 100, "channel": 0}, {"type": "note_off", "time": 61, "note": 57, "velocity": 100, "channel": 0}, {"type": "note_on", "time": 9, "note": 58, "velocity": 98, "channel": 0}, {"type": "note_off", "time": 59, "note": 58, "velocity": 98, "channel": 0}, {"type": "note_on", "time": 27, "note": 60, "velocity": 96, "channel": 0}, {"type": "note_off", "time": 75, "note": 60, "velocity": 96, "channel": 0}, {"type": "note_on", "time": 9, "note": 61, "velocity": 102, "channel": 0}, {"type": "note_off", "time": 82, "note": 61, "velocity": 102, "channel": 0}, {"type": "note_on", "time": 23, "note": 63, "velocity": 107, "channel": 0}, {"type": "note_off", "time": 68, "note": 63, "velocity": 107, "channel": 0}, {"type": "note_on", "time": 11, "note": 60, "velocity": 96, "channel": 0}, {"type": "note_off", "time": 101, "note": 60, "velocity": 96, "channel": 0}, {"type": "note_on", "time": 35, "note": 61, "velocity": 103, "channel": 0}, {"type": "note_off", "time": 67, "note": 61, "velocity": 103, "channel": 0}, {"type": "note_on", "time": 6, "note": 58, "velocity": 96, "channel": 0}, {"type": "note_off", "time": 89, "note": 58, "velocity": 96, "channel": 0}, {"type": "note_on", "time": 30, "note": 60, "velocity": 97, "channel": 0}, {"type": "note_off", "time": 44, "note": 60, "velocity": 97, "channel": 0}, {"type": "note_on", "time": 17, "note": 61, "velocity": 101, "channel": 0}, {"type": "note_off", "time": 98, "note": 61, "velocity": 101, "channel": 0}, {"type": "note_on", "time": 18, "note": 63, "velocity": 101, "channel": 0}, {"type": "note_off", "time": 63, "note": 63, "velocity": 101, "channel": 0}, {"type": "note_on", "time": 6, "note": 65, "velocity": 97, "channel": 0}, {"type": "note_off", "time": 76, "note": 65, "velocity": 97, "channel": 0}, {"type": "note_on", "time": 551, "note": 67, "velocity": 108, "channel": 0}, {"type": "note_off", "time": 165, "note": 67, "velocity": 108, "channel": 0}, {"type": "note_on", "time": 9, "note": 65, "velocity": 99, "channel": 0}, {"type": "note_off", "time": 151, "note": 65, "velocity": 99, "channel": 0}, {"type": "note_on", "time": 8, "note": 62, "velocity": 106, "channel": 0}, {"type": "note_off", "time": 59, "note": 62, "velocity": 106, "channel": 0}, {"type": "note_on", "time": 135, "note": 63, "velocity": 111, "channel": 0}, {"type": "note_off", "time": 339, "note": 63, "velocity": 111, "channel": 0}, {"type": "note_on", "time": 27, "note": 63, "velocity": 98, "channel": 0}, {"type": "note_off", "time": 69, "note": 63, "velocity": 98, "channel": 0}, {"type": "note_on", "time": 731, "note": 67, "velocity": 105, "channel": 0}, {"type": "note_off", "time": 46, "note": 67, "velocity": 105, "channel": 0}, {"type": "note_on", "time": 121, "note": 70, "velocity": 111, "channel": 0}, {"type": "note_off", "time": 79, "note": 70, "velocity": 111, "channel": 0}, {"type": "note_on", "time": 118, "note": 72, "velocity": 120, "channel": 0}, {"type": "note_off", "time": 253, "note": 72, "velocity": 120, "channel": 0}, {"type": "note_on", "time": 53, "note": 73, "velocity": 124, "channel": 0}, {"type": "note_off", "time": 76, "note": 73, "velocity": 124, "channel": 0}, {"type": "note_on", "time": 14, "note": 72, "velocity": 118, "channel": 0}, {"type": "note_off", "time": 153, "note": 72, "velocity": 118, "channel": 0}, {"type": "note_on", "time": 25, "note": 70, "velocity": 118, "channel": 0}, {"type": "note_off", "time": 113, "note": 70, "velocity": 118, "channel": 0}, {"type": "note_on", "time": 9, "note": 67, "velocity": 112, "channel": 0}, {"type": "note_off", "time": 225, "note": 67, "velocity": 112, "channel": 0}, {"type": "note_on", "time": 34, "note": 67, "velocity": 111, "channel": 0}, {"type": "note_off", "time": 66, "note": 67, "velocity": 111, "channel": 0}, {"type": "note_on", "time": 27, "note": 67, "velocity": 111, "channel": 0}, {"type": "note_off", "time": 59, "note": 67, "velocity": 111, "channel": 0}, {"type": "note_on", "time": 25, "note": 67, "velocity": 110, "channel": 0}, {"type": "note_off", "time": 89, "note": 67, "velocity": 110, "channel": 0}, {"type": "note_on", "time": 18, "note": 67, "velocity": 110, "channel": 0}, {"type": "note_off", "time": 60, "note": 67, "velocity": 110, "channel": 0}, {"type": "note_on", "time": 26, "note": 67, "velocity": 111, "channel": 0}, {"type": "note_off", "time": 79, "note": 67, "velocity": 111, "channel": 0}, {"type": "note_on", "time": 22, "note": 67, "velocity": 107, "channel": 0}, {"type": "note_off", "time": 69, "note": 67, "velocity": 107, "channel": 0}, {"type": "note_on", "time": 19, "note": 67, "velocity": 109, "channel": 0}, {"type": "note_off", "time": 72, "note": 67, "velocity": 109, "channel": 0}, {"type": "note_on", "time": 37, "note": 67, "velocity": 110, "channel": 0}, {"type": "note_off", "time": 47, "note": 67, "velocity": 110, "channel": 0}, {"type": "note_on", "time": 36, "note": 67, "velocity": 108, "channel": 0}, {"type": "note_off", "time": 65, "note": 67, "velocity": 108, "channel": 0}, {"type": "note_on", "time": 138, "note": 67, "velocity": 106, "channel": 0}, {"type": "note_off", "time": 256, "note": 67, "velocity": 106, "channel": 0}, {"type": "note_on", "time": 34, "note": 67, "velocity": 105, "channel": 0}, {"type": "note_off", "time": 181, "note": 67, "velocity": 105, "channel": 0}, {"type": "note_on", "time": 30, "note": 65, "velocity": 94, "channel": 0}, {"type": "note_off", "time": 47, "note": 65, "velocity": 94, "channel": 0}, {"type": "note_on", "time": 21, "note": 67, "velocity": 105, "channel": 0}, {"type": "note_off", "time": 234, "note": 67, "velocity": 105, "channel": 0}, {"type": "note_on", "time": 47, "note": 67, "velocity": 105, "channel": 0}, {"type": "note_off", "time": 196, "note": 67, "velocity": 105, "channel": 0}, {"type": "note_on", "time": 13, "note": 65, "velocity": 87, "channel": 0}, {"type": "note_off", "time": 50, "note": 65, "velocity": 87, "channel": 0}, {"type": "note_on", "time": 13, "note": 67, "velocity": 106, "channel": 0}, {"type": "note_off", "time": 91, "note": 67, "velocity": 106, "channel": 0}, {"type": "note_on", "time": 19, "note": 65, "velocity": 102, "channel": 0}, {"type": "note_off", "time": 67, "note": 65, "velocity": 102, "channel": 0}, {"type": "note_on", "time": 10, "note": 62, "velocity": 103, "channel": 0}, {"type": "note_off", "time": 65, "note": 62, "velocity": 103, "channel": 0}, {"type": "note_on", "time": 142, "note": 60, "velocity": 94, "channel": 0}, {"type": "note_off", "time": 176, "note": 60, "velocity": 94, "channel": 0}, {"type": "note_on", "time": 11, "note": 60, "velocity": 95, "channel": 0}, {"type": "note_off", "time": 72, "note": 60, "velocity": 95, "channel": 0}, {"type": "note_on", "time": 643, "note": 58, "velocity": 97, "channel": 0}, {"type": "note_off", "time": 35, "note": 58, "velocity": 97, "channel": 0}, {"type": "note_on", "time": 18, "note": 61, "velocity": 100, "channel": 0}, {"type": "note_off", "time": 47, "note": 61, "velocity": 100, "channel": 0}, {"type": "note_on", "time": 31, "note": 63, "velocity": 94, "channel": 0}, {"type": "note_off", "time": 47, "note": 63, "velocity": 94, "channel": 0}, {"type": "note_on", "time": 16, "note": 65, "velocity": 102, "channel": 0}, {"type": "note_off", "time": 65, "note": 65, "velocity": 102, "channel": 0}, {"type": "note_on", "time": 17, "note": 63, "velocity": 107, "channel": 0}, {"type": "note_off", "time": 285, "note": 63, "velocity": 107, "channel": 0}, {"type": "note_on", "time": 24, "note": 62, "velocity": 98, "channel": 0}, {"type": "note_off", "time": 39, "note": 62, "velocity": 98, "channel": 0}, {"type": "note_on", "time": 6, "note": 63, "velocity": 106, "channel": 0}, {"type": "note_off", "time": 278, "note": 63, "velocity": 106, "channel": 0}, {"type": "note_on", "time": 45, "note": 61, "velocity": 96, "channel": 0}, {"type": "note_off", "time": 53, "note": 61, "velocity": 96, "channel": 0}, {"type": "note_on", "time": 10, "note": 63, "velocity": 110, "channel": 0}, {"type": "note_off", "time": 84, "note": 63, "velocity": 110, "channel": 0}, {"type": "note_on", "time": 17, "note": 65, "velocity": 105, "channel": 0}, {"type": "note_off", "time": 82, "note": 65, "velocity": 105, "channel": 0}, {"type": "note_on", "time": 322, "note": 58, "velocity": 84, "channel": 0}, {"type": "note_off", "time": 36, "note": 58, "velocity": 84, "channel": 0}, {"type": "note_on", "time": 9, "note": 61, "velocity": 90, "channel": 0}, {"type": "note_off", "time": 67, "note": 61, "velocity": 90, "channel": 0}, {"type": "note_on", "time": 15, "note": 63, "velocity": 86, "channel": 0}, {"type": "note_off", "time": 42, "note": 63, "velocity": 86, "channel": 0}, {"type": "note_on", "time": 12, "note": 65, "velocity": 101, "channel": 0}, {"type": "note_off", "time": 79, "note": 65, "velocity": 101, "channel": 0}, {"type": "note_on", "time": 13, "note": 63, "velocity": 108, "channel": 0}, {"type": "note_off", "time": 236, "note": 63, "velocity": 108, "channel": 0}, {"type": "note_on", "time": 37, "note": 61, "velocity": 96, "channel": 0}, {"type": "note_off", "time": 56, "note": 61, "velocity": 96, "channel": 0}, {"type": "note_on", "time": 10, "note": 63, "velocity": 106, "channel": 0}, {"type": "note_off", "time": 98, "note": 63, "velocity": 106, "channel": 0}, {"type": "note_on", "time": 12, "note": 61, "velocity": 95, "channel": 0}, {"type": "note_off", "time": 50, "note": 61, "velocity": 95, "channel": 0}, {"type": "note_on", "time": 13, "note": 58, "velocity": 92, "channel": 0}, {"type": "note_off", "time": 108, "note": 58, "velocity": 92, "channel": 0}, {"type": "note_on", "time": 111, "note": 58, "velocity": 88, "channel": 0}, {"type": "note_off", "time": 165, "note": 58, "velocity": 88, "channel": 0}, {"type": "note_on", "time": 16, "note": 58, "velocity": 97, "channel": 0}, {"type": "note_off", "time": 73, "note": 58, "velocity": 97, "channel": 0}, {"type": "note_on", "time": 635, "note": 60, "velocity": 94, "channel": 0}, {"type": "note_off", "time": 92, "note": 60, "velocity": 94, "channel": 0}, {"type": "note_on", "time": 64, "note": 62, "velocity": 95, "channel": 0}, {"type": "note_off", "time": 62, "note": 62, "velocity": 95, "channel": 0}, {"type": "note_on", "time": 13, "note": 63, "velocity": 101, "channel": 0}, {"type": "note_off", "time": 92, "note": 63, "velocity": 101, "channel": 0}, {"type": "note_on", "time": 32, "note": 65, "velocity": 93, "channel": 0}, {"type": "note_off", "time": 53, "note": 65, "velocity": 93, "channel": 0}, {"type": "note_on", "time": 15, "note": 67, "velocity": 106, "channel": 0}, {"type": "note_off", "time": 101, "note": 67, "velocity": 106, "channel": 0}, {"type": "note_on", "time": 6, "note": 70, "velocity": 105, "channel": 0}, {"type": "note_off", "time": 97, "note": 70, "velocity": 105, "channel": 0}, {"type": "note_on", "time": 17, "note": 69, "velocity": 113, "channel": 0}, {"type": "note_off", "time": 89, "note": 69, "velocity": 113, "channel": 0}, {"type": "note_on", "time": 23, "note": 69, "velocity": 113, "channel": 0}, {"type": "note_off", "time": 89, "note": 69, "velocity": 113, "channel": 0}, {"type": "note_on", "time": 85, "note": 68, "velocity": 106, "channel": 0}, {"type": "note_off", "time": 67, "note": 68, "velocity": 106, "channel": 0}, {"type": "note_on", "time": 23, "note": 67, "velocity": 108, "channel": 0}, {"type": "note_off", "time": 119, "note": 67, "velocity": 108, "channel": 0}, {"type": "note_on", "time": 19, "note": 67, "velocity": 108, "channel": 0}, {"type": "note_off", "time": 96, "note": 67, "velocity": 108, "channel": 0}, {"type": "note_on", "time": 55, "note": 68, "velocity": 112, "channel": 0}, {"type": "note_off", "time": 89, "note": 68, "velocity": 112, "channel": 0}, {"type": "note_on", "time": 5, "note": 69, "velocity": 114, "channel": 0}, {"type": "note_off", "time": 115, "note": 69, "velocity": 114, "channel": 0}, {"type": "note_on", "time": 27, "note": 69, "velocity": 114, "channel": 0}, {"type": "note_off", "time": 74, "note": 69, "velocity": 114, "channel": 0}, {"type": "note_on", "time": 83, "note": 68, "velocity": 109, "channel": 0}, {"type": "note_off", "time": 70, "note": 68, "velocity": 109, "channel": 0}, {"type": "note_on", "time": 16, "note": 67, "velocity": 108, "channel": 0}, {"type": "note_off", "time": 108, "note": 67, "velocity": 108, "channel": 0}, {"type": "note_on", "time": 33, "note": 67, "velocity": 109, "channel": 0}, {"type": "note_off", "time": 78, "note": 67, "velocity": 109, "channel": 0}, {"type": "note_on", "time": 79, "note": 68, "velocity": 113, "channel": 0}, {"type": "note_off", "time": 76, "note": 68, "velocity": 113, "channel": 0}, {"type": "note_on", "time": 5, "note": 69, "velocity": 113, "channel": 0}, {"type": "note_off", "time": 106, "note": 69, "velocity": 113, "channel": 0}, {"type": "note_on", "time": 25, "note": 69, "velocity": 113, "channel": 0}, {"type": "note_off", "time": 79, "note": 69, "velocity": 113, "channel": 0}, {"type": "note_on", "time": 79, "note": 69, "velocity": 111, "channel": 0}, {"type": "note_off", "time": 70, "note": 69, "velocity": 111, "channel": 0}, {"type": "note_on", "time": 11, "note": 67, "velocity": 110, "channel": 0}, {"type": "note_off", "time": 101, "note": 67, "velocity": 110, "channel": 0}, {"type": "note_on", "time": 18, "note": 67, "velocity": 108, "channel": 0}, {"type": "note_off", "time": 89, "note": 67, "velocity": 108, "channel": 0}, {"type": "note_on", "time": 85, "note": 67, "velocity": 103, "channel": 0}, {"type": "note_off", "time": 72, "note": 67, "velocity": 103, "channel": 0}, {"type": "note_on", "time": 18, "note": 65, "velocity": 105, "channel": 0}, {"type": "note_off", "time": 73, "note": 65, "velocity": 105, "channel": 0}, {"type": "note_on", "time": 125, "note": 62, "velocity": 89, "channel": 0}, {"type": "note_off", "time": 83, "note": 62, "velocity": 89, "channel": 0}, {"type": "note_on", "time": 16, "note": 64, "velocity": 94, "channel": 0}, {"type": "note_off", "time": 62, "note": 64, "velocity": 94, "channel": 0}, {"type": "note_on", "time": 9, "note": 65, "velocity": 104, "channel": 0}, {"type": "note_off", "time": 82, "note": 65, "velocity": 104, "channel": 0}, {"type": "note_on", "time": 41, "note": 70, "velocity": 113, "channel": 0}, {"type": "note_off", "time": 82, "note": 70, "velocity": 113, "channel": 0}, {"type": "note_on", "time": 214, "note": 63, "velocity": 98, "channel": 0}, {"type": "note_off", "time": 81, "note": 63, "velocity": 98, "channel": 0}, {"type": "note_on", "time": 18, "note": 65, "velocity": 91, "channel": 0}, {"type": "note_off", "time": 52, "note": 65, "velocity": 91, "channel": 0}, {"type": "note_on", "time": 6, "note": 67, "velocity": 105, "channel": 0}, {"type": "note_off", "time": 99, "note": 67, "velocity": 105, "channel": 0}, {"type": "note_on", "time": 10, "note": 69, "velocity": 108, "channel": 0}, {"type": "note_off", "time": 102, "note": 69, "velocity": 108, "channel": 0}, {"type": "note_on", "time": 310, "note": 67, "velocity": 9, "channel": 0}, {"type": "note_off", "time": 49, "note": 67, "velocity": 9, "channel": 0}, {"type": "note_on", "time": 23, "note": 65, "velocity": 101, "channel": 0}, {"type": "note_off", "time": 76, "note": 65, "velocity": 101, "channel": 0}, {"type": "note_on", "time": 34, "note": 67, "velocity": 103, "channel": 0}, {"type": "note_off", "time": 55, "note": 67, "velocity": 103, "channel": 0}, {"type": "note_on", "time": 11, "note": 63, "velocity": 106, "channel": 0}, {"type": "note_off", "time": 95, "note": 63, "velocity": 106, "channel": 0}, {"type": "note_on", "time": 30, "note": 65, "velocity": 104, "channel": 0}, {"type": "note_off", "time": 62, "note": 65, "velocity": 104, "channel": 0}, {"type": "note_on", "time": 17, "note": 62, "velocity": 94, "channel": 0}, {"type": "note_off", "time": 55, "note": 62, "velocity": 94, "channel": 0}, {"type": "note_on", "time": 55, "note": 63, "velocity": 99, "channel": 0}, {"type": "note_off", "time": 59, "note": 63, "velocity": 99, "channel": 0}, {"type": "note_on", "time": 2, "note": 60, "velocity": 99, "channel": 0}, {"type": "note_off", "time": 94, "note": 60, "velocity": 99, "channel": 0}, {"type": "note_on", "time": 29, "note": 62, "velocity": 103, "channel": 0}, {"type": "note_off", "time": 55, "note": 62, "velocity": 103, "channel": 0}, {"type": "note_on", "time": 10, "note": 58, "velocity": 101, "channel": 0}, {"type": "note_off", "time": 165, "note": 58, "velocity": 101, "channel": 0}, {"type": "note_on", "time": 30, "note": 60, "velocity": 99, "channel": 0}, {"type": "note_off", "time": 65, "note": 60, "velocity": 99, "channel": 0}, {"type": "note_on", "time": 9, "note": 56, "velocity": 102, "channel": 0}, {"type": "note_off", "time": 124, "note": 56, "velocity": 102, "channel": 0}, {"type": "note_on", "time": 374, "note": 55, "velocity": 96, "channel": 0}, {"type": "note_off", "time": 23, "note": 55, "velocity": 96, "channel": 0}, {"type": "note_on", "time": 7, "note": 56, "velocity": 96, "channel": 0}, {"type": "note_off", "time": 58, "note": 56, "velocity": 96, "channel": 0}, {"type": "note_on", "time": 4, "note": 58, "velocity": 93, "channel": 0}, {"type": "note_off", "time": 72, "note": 58, "velocity": 93, "channel": 0}, {"type": "note_on", "time": 4, "note": 58, "velocity": 99, "channel": 0}, {"type": "note_off", "time": 64, "note": 58, "velocity": 99, "channel": 0}, {"type": "note_on", "time": 3, "note": 57, "velocity": 101, "channel": 0}, {"type": "note_off", "time": 57, "note": 57, "velocity": 101, "channel": 0}, {"type": "note_on", "time": 9, "note": 55, "velocity": 97, "channel": 0}, {"type": "note_off", "time": 59, "note": 55, "velocity": 97, "channel": 0}, {"type": "note_on", "time": 23, "note": 55, "velocity": 93, "channel": 0}, {"type": "note_off", "time": 54, "note": 55, "velocity": 93, "channel": 0}, {"type": "note_on", "time": 357, "note": 58, "velocity": 97, "channel": 0}, {"type": "note_off", "time": 116, "note": 58, "velocity": 97, "channel": 0}, {"type": "note_on", "time": 14, "note": 60, "velocity": 96, "channel": 0}, {"type": "note_off", "time": 110, "note": 60, "velocity": 96, "channel": 0}, {"type": "note_on", "time": 33, "note": 61, "velocity": 98, "channel": 0}, {"type": "note_off", "time": 78, "note": 61, "velocity": 98, "channel": 0}, {"type": "note_on", "time": 83, "note": 63, "velocity": 107, "channel": 0}, {"type": "note_off", "time": 62, "note": 63, "velocity": 107, "channel": 0}, {"type": "note_on", "time": 13, "note": 64, "velocity": 103, "channel": 0}, {"type": "note_off", "time": 92, "note": 64, "velocity": 103, "channel": 0}, {"type": "note_on", "time": 40, "note": 67, "velocity": 106, "channel": 0}, {"type": "note_off", "time": 65, "note": 67, "velocity": 106, "channel": 0}, {"type": "note_on", "time": 11, "note": 65, "velocity": 101, "channel": 0}, {"type": "note_off", "time": 102, "note": 65, "velocity": 101, "channel": 0}, {"type": "note_on", "time": 28, "note": 62, "velocity": 100, "channel": 0}, {"type": "note_off", "time": 72, "note": 62, "velocity": 100, "channel": 0}, {"type": "note_on", "time": 183, "note": 62, "velocity": 100, "channel": 0}, {"type": "note_off", "time": 282, "note": 62, "velocity": 100, "channel": 0}, {"type": "note_on", "time": 894, "note": 73, "velocity": 117, "channel": 0}, {"type": "note_off", "time": 72, "note": 73, "velocity": 117, "channel": 0}, {"type": "note_on", "time": 2, "note": 74, "velocity": 118, "channel": 0}, {"type": "note_off", "time": 731, "note": 74, "velocity": 118, "channel": 0}, {"type": "note_on", "time": 50, "note": 72, "velocity": 117, "channel": 0}, {"type": "note_off", "time": 124, "note": 72, "velocity": 117, "channel": 0}, {"type": "note_on", "time": 43, "note": 70, "velocity": 113, "channel": 0}, {"type": "note_off", "time": 78, "note": 70, "velocity": 113, "channel": 0}, {"type": "note_on", "time": 39, "note": 69, "velocity": 112, "channel": 0}, {"type": "note_off", "time": 76, "note": 69, "velocity": 112, "channel": 0}, {"type": "note_on", "time": 21, "note": 67, "velocity": 102, "channel": 0}, {"type": "note_off", "time": 67, "note": 67, "velocity": 102, "channel": 0}, {"type": "note_on", "time": 24, "note": 65, "velocity": 108, "channel": 0}, {"type": "note_off", "time": 79, "note": 65, "velocity": 108, "channel": 0}, {"type": "note_on", "time": 46, "note": 63, "velocity": 103, "channel": 0}, {"type": "note_off", "time": 34, "note": 63, "velocity": 103, "channel": 0}, {"type": "note_on", "time": 32, "note": 62, "velocity": 98, "channel": 0}, {"type": "note_off", "time": 82, "note": 62, "velocity": 98, "channel": 0}, {"type": "note_on", "time": 28, "note": 65, "velocity": 101, "channel": 0}, {"type": "note_off", "time": 44, "note": 65, "velocity": 101, "channel": 0}, {"type": "note_on", "time": 12, "note": 67, "velocity": 102, "channel": 0}, {"type": "note_off", "time": 94, "note": 67, "velocity": 102, "channel": 0}, {"type": "note_on", "time": 88, "note": 70, "velocity": 110, "channel": 0}, {"type": "note_off", "time": 222, "note": 70, "velocity": 110, "channel": 0}, {"type": "note_on", "time": 15, "note": 70, "velocity": 101, "channel": 0}, {"type": "note_off", "time": 96, "note": 70, "velocity": 101, "channel": 0}, {"type": "note_on", "time": 349, "note": 68, "velocity": 112, "channel": 0}, {"type": "note_off", "time": 232, "note": 68, "velocity": 112, "channel": 0}, {"type": "note_on", "time": 13, "note": 65, "velocity": 102, "channel": 0}, {"type": "note_off", "time": 88, "note": 65, "velocity": 102, "channel": 0}, {"type": "note_on", "time": 122, "note": 68, "velocity": 112, "channel": 0}, {"type": "note_off", "time": 108, "note": 68, "velocity": 112, "channel": 0}, {"type": "note_on", "time": 11, "note": 69, "velocity": 106, "channel": 0}, {"type": "note_off", "time": 32, "note": 69, "velocity": 106, "channel": 0}, {"type": "note_on", "time": 21, "note": 70, "velocity": 112, "channel": 0}, {"type": "note_off", "time": 79, "note": 70, "velocity": 112, "channel": 0}, {"type": "note_on", "time": 105, "note": 70, "velocity": 118, "channel": 0}, {"type": "note_off", "time": 87, "note": 70, "velocity": 118, "channel": 0}, {"type": "note_on", "time": 15, "note": 69, "velocity": 92, "channel": 0}, {"type": "note_off", "time": 42, "note": 69, "velocity": 92, "channel": 0}, {"type": "note_on", "time": 186, "note": 65, "velocity": 92, "channel": 0}, {"type": "note_off", "time": 40, "note": 65, "velocity": 92, "channel": 0}, {"type": "note_on", "time": 14, "note": 67, "velocity": 103, "channel": 0}, {"type": "note_off", "time": 140, "note": 67, "velocity": 103, "channel": 0}, {"type": "note_on", "time": 34, "note": 70, "velocity": 112, "channel": 0}, {"type": "note_off", "time": 100, "note": 70, "velocity": 112, "channel": 0}, {"type": "note_on", "time": 16, "note": 70, "velocity": 122, "channel": 0}, {"type": "note_off", "time": 85, "note": 70, "velocity": 122, "channel": 0}, {"type": "note_on", "time": 138, "note": 65, "velocity": 93, "channel": 0}, {"type": "note_off", "time": 32, "note": 65, "velocity": 93, "channel": 0}, {"type": "note_on", "time": 33, "note": 67, "velocity": 109, "channel": 0}, {"type": "note_off", "time": 171, "note": 67, "velocity": 109, "channel": 0}, {"type": "note_on", "time": 22, "note": 68, "velocity": 110, "channel": 0}, {"type": "note_off", "time": 96, "note": 68, "velocity": 110, "channel": 0}, {"type": "note_on", "time": 15, "note": 70, "velocity": 117, "channel": 0}, {"type": "note_off", "time": 104, "note": 70, "velocity": 117, "channel": 0}, {"type": "note_on", "time": 538, "note": 68, "velocity": 108, "channel": 0}, {"type": "note_off", "time": 105, "note": 68, "velocity": 108, "channel": 0}, {"type": "note_on", "time": 40, "note": 58, "velocity": 86, "channel": 0}, {"type": "note_off", "time": 42, "note": 58, "velocity": 86, "channel": 0}, {"type": "note_on", "time": 4, "note": 62, "velocity": 101, "channel": 0}, {"type": "note_off", "time": 58, "note": 62, "velocity": 101, "channel": 0}, {"type": "note_on", "time": 34, "note": 67, "velocity": 113, "channel": 0}, {"type": "note_off", "time": 50, "note": 67, "velocity": 113, "channel": 0}, {"type": "note_on", "time": 5, "note": 66, "velocity": 103, "channel": 0}, {"type": "note_off", "time": 43, "note": 66, "velocity": 103, "channel": 0}, {"type": "note_on", "time": 2, "note": 67, "velocity": 106, "channel": 0}, {"type": "note_off", "time": 142, "note": 67, "velocity": 106, "channel": 0}, {"type": "note_on", "time": 35, "note": 58, "velocity": 101, "channel": 0}, {"type": "note_off", "time": 62, "note": 58, "velocity": 101, "channel": 0}, {"type": "note_on", "time": 106, "note": 64, "velocity": 95, "channel": 0}, {"type": "note_off", "time": 95, "note": 64, "velocity": 95, "channel": 0}, {"type": "note_on", "time": 10, "note": 65, "velocity": 101, "channel": 0}, {"type": "note_off", "time": 966, "note": 65, "velocity": 101, "channel": 0}, {"type": "note_on", "time": 112, "note": 63, "velocity": 98, "channel": 0}, {"type": "note_off", "time": 84, "note": 63, "velocity": 98, "channel": 0}, {"type": "note_on", "time": 7, "note": 65, "velocity": 90, "channel": 0}, {"type": "note_off", "time": 55, "note": 65, "velocity": 90, "channel": 0}, {"type": "note_on", "time": 15, "note": 67, "velocity": 106, "channel": 0}, {"type": "note_off", "time": 93, "note": 67, "velocity": 106, "channel": 0}, {"type": "note_on", "time": 8, "note": 65, "velocity": 100, "channel": 0}, {"type": "note_off", "time": 70, "note": 65, "velocity": 100, "channel": 0}, {"type": "note_on", "time": 120, "note": 65, "velocity": 96, "channel": 0}, {"type": "note_off", "time": 271, "note": 65, "velocity": 96, "channel": 0}, {"type": "note_on", "time": 7, "note": 65, "velocity": 98, "channel": 0}, {"type": "note_off", "time": 106, "note": 65, "velocity": 98, "channel": 0}, {"type": "note_on", "time": 923, "note": 65, "velocity": 103, "channel": 0}, {"type": "note_off", "time": 74, "note": 65, "velocity": 103, "channel": 0}, {"type": "note_on", "time": 16, "note": 64, "velocity": 102, "channel": 0}, {"type": "note_off", "time": 97, "note": 64, "velocity": 102, "channel": 0}, {"type": "note_on", "time": 10, "note": 65, "velocity": 101, "channel": 0}, {"type": "note_off", "time": 100, "note": 65, "velocity": 101, "channel": 0}, {"type": "note_on", "time": 448, "note": 65, "velocity": 100, "channel": 0}, {"type": "note_off", "time": 90, "note": 65, "velocity": 100, "channel": 0}, {"type": "note_on", "time": 14, "note": 64, "velocity": 106, "channel": 0}, {"type": "note_off", "time": 87, "note": 64, "velocity": 106, "channel": 0}, {"type": "note_on", "time": 16, "note": 65, "velocity": 95, "channel": 0}, {"type": "note_off", "time": 102, "note": 65, "velocity": 95, "channel": 0}, {"type": "note_on", "time": 473, "note": 65, "velocity": 98, "channel": 0}, {"type": "note_off", "time": 54, "note": 65, "velocity": 98, "channel": 0}, {"type": "note_on", "time": 8, "note": 63, "velocity": 103, "channel": 0}, {"type": "note_off", "time": 57, "note": 63, "velocity": 103, "channel": 0}, {"type": "note_on", "time": 6, "note": 64, "velocity": 100, "channel": 0}, {"type": "note_off", "time": 58, "note": 64, "velocity": 100, "channel": 0}, {"type": "note_on", "time": 3, "note": 65, "velocity": 105, "channel": 0}, {"type": "note_off", "time": 57, "note": 65, "velocity": 105, "channel": 0}, {"type": "note_on", "time": 16, "note": 65, "velocity": 104, "channel": 0}, {"type": "note_off", "time": 65, "note": 65, "velocity": 104, "channel": 0}, {"type": "note_on", "time": 132, "note": 63, "velocity": 97, "channel": 0}, {"type": "note_off", "time": 45, "note": 63, "velocity": 97, "channel": 0}, {"type": "note_on", "time": 5, "note": 64, "velocity": 97, "channel": 0}, {"type": "note_off", "time": 62, "note": 64, "velocity": 97, "channel": 0}, {"type": "note_on", "time": 3, "note": 65, "velocity": 105, "channel": 0}, {"type": "note_off", "time": 63, "note": 65, "velocity": 105, "channel": 0}, {"type": "note_on", "time": 5, "note": 65, "velocity": 110, "channel": 0}, {"type": "note_off", "time": 70, "note": 65, "velocity": 110, "channel": 0}, {"type": "note_on", "time": 132, "note": 63, "velocity": 100, "channel": 0}, {"type": "note_off", "time": 40, "note": 63, "velocity": 100, "channel": 0}, {"type": "note_on", "time": 6, "note": 64, "velocity": 101, "channel": 0}, {"type": "note_off", "time": 54, "note": 64, "velocity": 101, "channel": 0}, {"type": "note_on", "time": 9, "note": 65, "velocity": 107, "channel": 0}, {"type": "note_off", "time": 56, "note": 65, "velocity": 107, "channel": 0}, {"type": "note_on", "time": 6, "note": 65, "velocity": 108, "channel": 0}, {"type": "note_off", "time": 81, "note": 65, "velocity": 108, "channel": 0}, {"type": "note_on", "time": 101, "note": 63, "velocity": 99, "channel": 0}, {"type": "note_off", "time": 63, "note": 63, "velocity": 99, "channel": 0}, {"type": "note_on", "time": 4, "note": 64, "velocity": 102, "channel": 0}, {"type": "note_off", "time": 43, "note": 64, "velocity": 102, "channel": 0}, {"type": "note_on", "time": 14, "note": 65, "velocity": 110, "channel": 0}, {"type": "note_off", "time": 50, "note": 65, "velocity": 110, "channel": 0}, {"type": "note_on", "time": 30, "note": 65, "velocity": 108, "channel": 0}, {"type": "note_off", "time": 67, "note": 65, "velocity": 108, "channel": 0}, {"type": "note_on", "time": 317, "note": 65, "velocity": 107, "channel": 0}, {"type": "note_off", "time": 89, "note": 65, "velocity": 107, "channel": 0}, {"type": "note_on", "time": 28, "note": 64, "velocity": 98, "channel": 0}, {"type": "note_off", "time": 47, "note": 64, "velocity": 98, "channel": 0}, {"type": "note_on", "time": 16, "note": 65, "velocity": 109, "channel": 0}, {"type": "note_off", "time": 92, "note": 65, "velocity": 109, "channel": 0}, {"type": "note_on", "time": 15, "note": 67, "velocity": 107, "channel": 0}, {"type": "note_off", "time": 70, "note": 67, "velocity": 107, "channel": 0}, {"type": "note_on", "time": 201, "note": 65, "velocity": 102, "channel": 0}, {"type": "note_off", "time": 253, "note": 65, "velocity": 102, "channel": 0}, {"type": "note_on", "time": 20, "note": 62, "velocity": 96, "channel": 0}, {"type": "note_off", "time": 85, "note": 62, "velocity": 96, "channel": 0}, {"type": "note_on", "time": 311, "note": 63, "velocity": 99, "channel": 0}, {"type": "note_off", "time": 65, "note": 63, "velocity": 99, "channel": 0}, {"type": "note_on", "time": 16, "note": 62, "velocity": 100, "channel": 0}, {"type": "note_off", "time": 79, "note": 62, "velocity": 100, "channel": 0}, {"type": "note_on", "time": 14, "note": 62, "velocity": 100, "channel": 0}, {"type": "note_off", "time": 62, "note": 62, "velocity": 100, "channel": 0}, {"type": "note_on", "time": 22, "note": 60, "velocity": 98, "channel": 0}, {"type": "note_off", "time": 64, "note": 60, "velocity": 98, "channel": 0}, {"type": "note_on", "time": 41, "note": 60, "velocity": 91, "channel": 0}, {"type": "note_off", "time": 62, "note": 60, "velocity": 91, "channel": 0}, {"type": "note_on", "time": 11, "note": 58, "velocity": 100, "channel": 0}, {"type": "note_off", "time": 174, "note": 58, "velocity": 100, "channel": 0}, {"type": "note_on", "time": 21, "note": 57, "velocity": 105, "channel": 0}, {"type": "note_off", "time": 116, "note": 57, "velocity": 105, "channel": 0}, {"type": "note_on", "time": 10, "note": 56, "velocity": 100, "channel": 0}, {"type": "note_off", "time": 59, "note": 56, "velocity": 100, "channel": 0}, {"type": "note_on", "time": 899, "note": 58, "velocity": 94, "channel": 0}, {"type": "note_off", "time": 51, "note": 58, "velocity": 94, "channel": 0}, {"type": "note_on", "time": 9, "note": 60, "velocity": 99, "channel": 0}, {"type": "note_off", "time": 111, "note": 60, "velocity": 99, "channel": 0}, {"type": "note_on", "time": 25, "note": 57, "velocity": 83, "channel": 0}, {"type": "note_off", "time": 46, "note": 57, "velocity": 83, "channel": 0}, {"type": "note_on", "time": 13, "note": 58, "velocity": 104, "channel": 0}, {"type": "note_off", "time": 159, "note": 58, "velocity": 104, "channel": 0}, {"type": "note_on", "time": 50, "note": 60, "velocity": 100, "channel": 0}, {"type": "note_off", "time": 69, "note": 60, "velocity": 100, "channel": 0}, {"type": "note_on", "time": 16, "note": 57, "velocity": 103, "channel": 0}, {"type": "note_off", "time": 53, "note": 57, "velocity": 103, "channel": 0}, {"type": "note_on", "time": 12, "note": 58, "velocity": 100, "channel": 0}, {"type": "note_off", "time": 161, "note": 58, "velocity": 100, "channel": 0}, {"type": "note_on", "time": 26, "note": 60, "velocity": 104, "channel": 0}, {"type": "note_off", "time": 118, "note": 60, "velocity": 104, "channel": 0}, {"type": "note_on", "time": 11, "note": 58, "velocity": 104, "channel": 0}, {"type": "note_off", "time": 108, "note": 58, "velocity": 104, "channel": 0}, {"type": "note_on", "time": 280, "note": 61, "velocity": 102, "channel": 0}, {"type": "note_off", "time": 48, "note": 61, "velocity": 102, "channel": 0}, {"type": "note_on", "time": 12, "note": 62, "velocity": 98, "channel": 0}, {"type": "note_off", "time": 126, "note": 62, "velocity": 98, "channel": 0}, {"type": "note_on", "time": 2, "note": 65, "velocity": 90, "channel": 0}, {"type": "note_off", "time": 52, "note": 65, "velocity": 90, "channel": 0}, {"type": "note_on", "time": 3, "note": 67, "velocity": 106, "channel": 0}, {"type": "note_off", "time": 108, "note": 67, "velocity": 106, "channel": 0}, {"type": "note_on", "time": 86, "note": 65, "velocity": 100, "channel": 0}, {"type": "note_off", "time": 169, "note": 65, "velocity": 100, "channel": 0}, {"type": "note_on", "time": 17, "note": 67, "velocity": 109, "channel": 0}, {"type": "note_off", "time": 123, "note": 67, "velocity": 109, "channel": 0}, {"type": "note_on", "time": 6, "note": 65, "velocity": 92, "channel": 0}, {"type": "note_off", "time": 66, "note": 65, "velocity": 92, "channel": 0}, {"type": "note_on", "time": 11, "note": 68, "velocity": 113, "channel": 0}, {"type": "note_off", "time": 114, "note": 68, "velocity": 113, "channel": 0}, {"type": "note_on", "time": 33, "note": 67, "velocity": 92, "channel": 0}, {"type": "note_off", "time": 40, "note": 67, "velocity": 92, "channel": 0}, {"type": "note_on", "time": 10, "note": 67, "velocity": 111, "channel": 0}, {"type": "note_off", "time": 108, "note": 67, "velocity": 111, "channel": 0}, {"type": "note_on", "time": 7, "note": 65, "velocity": 105, "channel": 0}, {"type": "note_off", "time": 85, "note": 65, "velocity": 105, "channel": 0}, {"type": "note_on", "time": 305, "note": 74, "velocity": 112, "channel": 0}, {"type": "note_off", "time": 84, "note": 74, "velocity": 112, "channel": 0}, {"type": "note_on", "time": 4, "note": 72, "velocity": 108, "channel": 0}, {"type": "note_off", "time": 129, "note": 72, "velocity": 108, "channel": 0}, {"type": "note_on", "time": 123, "note": 70, "velocity": 111, "channel": 0}, {"type": "note_off", "time": 110, "note": 70, "velocity": 111, "channel": 0}, {"type": "note_on", "time": 24, "note": 69, "velocity": 112, "channel": 0}, {"type": "note_off", "time": 135, "note": 69, "velocity": 112, "channel": 0}, {"type": "note_on", "time": 99, "note": 67, "velocity": 102, "channel": 0}, {"type": "note_off", "time": 92, "note": 67, "velocity": 102, "channel": 0}, {"type": "note_on", "time": 6, "note": 65, "velocity": 102, "channel": 0}, {"type": "note_off", "time": 137, "note": 65, "velocity": 102, "channel": 0}, {"type": "note_on", "time": 25, "note": 67, "velocity": 103, "channel": 0}, {"type": "note_off", "time": 112, "note": 67, "velocity": 103, "channel": 0}, {"type": "note_on", "time": 10, "note": 63, "velocity": 108, "channel": 0}, {"type": "note_off", "time": 123, "note": 63, "velocity": 108, "channel": 0}, {"type": "note_on", "time": 372, "note": 61, "velocity": 91, "channel": 0}, {"type": "note_off", "time": 71, "note": 61, "velocity": 91, "channel": 0}, {"type": "note_on", "time": 4, "note": 62, "velocity": 92, "channel": 0}, {"type": "note_off", "time": 64, "note": 62, "velocity": 92, "channel": 0}, {"type": "note_on", "time": 5, "note": 63, "velocity": 102, "channel": 0}, {"type": "note_off", "time": 114, "note": 63, "velocity": 102, "channel": 0}, {"type": "note_on", "time": 15, "note": 65, "velocity": 98, "channel": 0}, {"type": "note_off", "time": 61, "note": 65, "velocity": 98, "channel": 0}, {"type": "note_on", "time": 11, "note": 66, "velocity": 101, "channel": 0}, {"type": "note_off", "time": 81, "note": 66, "velocity": 101, "channel": 0}, {"type": "note_on", "time": 22, "note": 70, "velocity": 107, "channel": 0}, {"type": "note_off", "time": 90, "note": 70, "velocity": 107, "channel": 0}, {"type": "note_on", "time": 165, "note": 70, "velocity": 103, "channel": 0}, {"type": "note_off", "time": 343, "note": 70, "velocity": 103, "channel": 0}, {"type": "note_on", "time": 418, "note": 61, "velocity": 104, "channel": 0}, {"type": "note_off", "time": 46, "note": 61, "velocity": 104, "channel": 0}, {"type": "note_on", "time": 3, "note": 62, "velocity": 96, "channel": 0}, {"type": "note_off", "time": 286, "note": 62, "velocity": 96, "channel": 0}, {"type": "note_on", "time": 19, "note": 65, "velocity": 106, "channel": 0}, {"type": "note_off", "time": 125, "note": 65, "velocity": 106, "channel": 0}, {"type": "note_on", "time": 221, "note": 62, "velocity": 90, "channel": 0}, {"type": "note_off", "time": 58, "note": 62, "velocity": 90, "channel": 0}, {"type": "note_on", "time": 20, "note": 63, "velocity": 102, "channel": 0}, {"type": "note_off", "time": 110, "note": 63, "velocity": 102, "channel": 0}, {"type": "note_on", "time": 9, "note": 67, "velocity": 87, "channel": 0}, {"type": "note_off", "time": 44, "note": 67, "velocity": 87, "channel": 0}, {"type": "note_on", "time": 8, "note": 70, "velocity": 110, "channel": 0}, {"type": "note_off", "time": 110, "note": 70, "velocity": 110, "channel": 0}, {"type": "note_on", "time": 35, "note": 74, "velocity": 114, "channel": 0}, {"type": "note_off", "time": 135, "note": 74, "velocity": 114, "channel": 0}, {"type": "note_on", "time": 60, "note": 72, "velocity": 115, "channel": 0}, {"type": "note_off", "time": 118, "note": 72, "velocity": 115, "channel": 0}, {"type": "note_on", "time": 66, "note": 70, "velocity": 111, "channel": 0}, {"type": "note_off", "time": 106, "note": 70, "velocity": 111, "channel": 0}, {"type": "note_on", "time": 68, "note": 69, "velocity": 114, "channel": 0}, {"type": "note_off", "time": 69, "note": 69, "velocity": 114, "channel": 0}, {"type": "note_on", "time": 20, "note": 68, "velocity": 106, "channel": 0}, {"type": "note_off", "time": 82, "note": 68, "velocity": 106, "channel": 0}, {"type": "note_on", "time": 99, "note": 67, "velocity": 107, "channel": 0}, {"type": "note_off", "time": 100, "note": 67, "velocity": 107, "channel": 0}, {"type": "note_on", "time": 10, "note": 65, "velocity": 107, "channel": 0}, {"type": "note_off", "time": 111, "note": 65, "velocity": 107, "channel": 0}, {"type": "note_on", "time": 70, "note": 64, "velocity": 109, "channel": 0}, {"type": "note_off", "time": 123, "note": 64, "velocity": 109, "channel": 0}, {"type": "note_on", "time": 48, "note": 66, "velocity": 104, "channel": 0}, {"type": "note_off", "time": 70, "note": 66, "velocity": 104, "channel": 0}, {"type": "note_on", "time": 6, "note": 68, "velocity": 112, "channel": 0}, {"type": "note_off", "time": 116, "note": 68, "velocity": 112, "channel": 0}, {"type": "note_on", "time": 89, "note": 66, "velocity": 106, "channel": 0}, {"type": "note_off", "time": 105, "note": 66, "velocity": 106, "channel": 0}, {"type": "note_on", "time": 9, "note": 64, "velocity": 111, "channel": 0}, {"type": "note_off", "time": 95, "note": 64, "velocity": 111, "channel": 0}, {"type": "note_on", "time": 0, "note": 58, "velocity": 84, "channel": 0}, {"type": "note_off", "time": 42, "note": 58, "velocity": 84, "channel": 0}, {"type": "note_on", "time": 149, "note": 63, "velocity": 102, "channel": 0}, {"type": "note_off", "time": 85, "note": 63, "velocity": 102, "channel": 0}, {"type": "note_on", "time": 5, "note": 65, "velocity": 103, "channel": 0}, {"type": "note_off", "time": 66, "note": 65, "velocity": 103, "channel": 0}, {"type": "note_on", "time": 12, "note": 67, "velocity": 105, "channel": 0}, {"type": "note_off", "time": 129, "note": 67, "velocity": 105, "channel": 0}, {"type": "note_on", "time": 49, "note": 65, "velocity": 106, "channel": 0}, {"type": "note_off", "time": 115, "note": 65, "velocity": 106, "channel": 0}, {"type": "note_on", "time": 15, "note": 63, "velocity": 99, "channel": 0}, {"type": "note_off", "time": 284, "note": 63, "velocity": 99, "channel": 0}, {"type": "note_on", "time": 765, "note": 72, "velocity": 111, "channel": 0}, {"type": "note_off", "time": 90, "note": 72, "velocity": 111, "channel": 0}, {"type": "note_on", "time": 8, "note": 70, "velocity": 110, "channel": 0}, {"type": "note_off", "time": 60, "note": 70, "velocity": 110, "channel": 0}, {"type": "note_on", "time": 21, "note": 69, "velocity": 110, "channel": 0}, {"type": "note_off", "time": 96, "note": 69, "velocity": 110, "channel": 0}, {"type": "note_on", "time": 6, "note": 67, "velocity": 103, "channel": 0}, {"type": "note_off", "time": 63, "note": 67, "velocity": 103, "channel": 0}, {"type": "note_on", "time": 23, "note": 65, "velocity": 109, "channel": 0}, {"type": "note_off", "time": 79, "note": 65, "velocity": 109, "channel": 0}, {"type": "note_on", "time": 8, "note": 64, "velocity": 105, "channel": 0}, {"type": "note_off", "time": 85, "note": 64, "velocity": 105, "channel": 0}, {"type": "note_on", "time": 16, "note": 62, "velocity": 97, "channel": 0}, {"type": "note_off", "time": 81, "note": 62, "velocity": 97, "channel": 0}, {"type": "note_on", "time": 13, "note": 60, "velocity": 94, "channel": 0}, {"type": "note_off", "time": 59, "note": 60, "velocity": 94, "channel": 0}, {"type": "note_on", "time": 54, "note": 59, "velocity": 92, "channel": 0}, {"type": "note_off", "time": 38, "note": 59, "velocity": 92, "channel": 0}, {"type": "note_on", "time": 421, "note": 68, "velocity": 109, "channel": 0}, {"type": "note_off", "time": 61, "note": 68, "velocity": 109, "channel": 0}, {"type": "note_on", "time": 16, "note": 67, "velocity": 102, "channel": 0}, {"type": "note_off", "time": 73, "note": 67, "velocity": 102, "channel": 0}, {"type": "note_on", "time": 36, "note": 65, "velocity": 107, "channel": 0}, {"type": "note_off", "time": 50, "note": 65, "velocity": 107, "channel": 0}, {"type": "note_on", "time": 33, "note": 63, "velocity": 105, "channel": 0}, {"type": "note_off", "time": 129, "note": 63, "velocity": 105, "channel": 0}, {"type": "note_on", "time": 91, "note": 63, "velocity": 106, "channel": 0}, {"type": "note_off", "time": 357, "note": 63, "velocity": 106, "channel": 0}, {"type": "note_on", "time": 32, "note": 63, "velocity": 108, "channel": 0}, {"type": "note_off", "time": 405, "note": 63, "velocity": 108, "channel": 0}, {"type": "note_on", "time": 58, "note": 62, "velocity": 102, "channel": 0}, {"type": "note_off", "time": 55, "note": 62, "velocity": 102, "channel": 0}, {"type": "note_on", "time": 6, "note": 63, "velocity": 107, "channel": 0}, {"type": "note_off", "time": 92, "note": 63, "velocity": 107, "channel": 0}, {"type": "note_on", "time": 8, "note": 62, "velocity": 94, "channel": 0}, {"type": "note_off", "time": 63, "note": 62, "velocity": 94, "channel": 0}, {"type": "note_on", "time": 12, "note": 63, "velocity": 107, "channel": 0}, {"type": "note_off", "time": 105, "note": 63, "velocity": 107, "channel": 0}, {"type": "note_on", "time": 15, "note": 62, "velocity": 98, "channel": 0}, {"type": "note_off", "time": 68, "note": 62, "velocity": 98, "channel": 0}, {"type": "note_on", "time": 10, "note": 63, "velocity": 106, "channel": 0}, {"type": "note_off", "time": 90, "note": 63, "velocity": 106, "channel": 0}, {"type": "note_on", "time": 32, "note": 63, "velocity": 108, "channel": 0}, {"type": "note_off", "time": 48, "note": 63, "velocity": 108, "channel": 0}, {"type": "note_on", "time": 19, "note": 62, "velocity": 100, "channel": 0}, {"type": "note_off", "time": 35, "note": 62, "velocity": 100, "channel": 0}, {"type": "note_on", "time": 139, "note": 63, "velocity": 107, "channel": 0}, {"type": "note_off", "time": 100, "note": 63, "velocity": 107, "channel": 0}, {"type": "note_on", "time": 1013, "note": 63, "velocity": 103, "channel": 0}, {"type": "note_off", "time": 317, "note": 63, "velocity": 103, "channel": 0}, {"type": "note_on", "time": 84, "note": 62, "velocity": 101, "channel": 0}, {"type": "note_off", "time": 97, "note": 62, "velocity": 101, "channel": 0}, {"type": "note_on", "time": 11, "note": 63, "velocity": 96, "channel": 0}, {"type": "note_off", "time": 39, "note": 63, "velocity": 96, "channel": 0}, {"type": "note_on", "time": 9, "note": 65, "velocity": 100, "channel": 0}, {"type": "note_off", "time": 101, "note": 65, "velocity": 100, "channel": 0}, {"type": "note_on", "time": 28, "note": 60, "velocity": 105, "channel": 0}, {"type": "note_off", "time": 77, "note": 60, "velocity": 105, "channel": 0}, {"type": "note_on", "time": 115, "note": 58, "velocity": 103, "channel": 0}, {"type": "note_off", "time": 246, "note": 58, "velocity": 103, "channel": 0}, {"type": "note_on", "time": 41, "note": 58, "velocity": 101, "channel": 0}, {"type": "note_off", "time": 90, "note": 58, "velocity": 101, "channel": 0}, {"type": "note_on", "time": 364, "note": 63, "velocity": 103, "channel": 0}, {"type": "note_off", "time": 214, "note": 63, "velocity": 103, "channel": 0}, {"type": "note_on", "time": 67, "note": 62, "velocity": 96, "channel": 0}, {"type": "note_off", "time": 89, "note": 62, "velocity": 96, "channel": 0}, {"type": "note_on", "time": 22, "note": 64, "velocity": 108, "channel": 0}, {"type": "note_off", "time": 64, "note": 64, "velocity": 108, "channel": 0}, {"type": "note_on", "time": 16, "note": 65, "velocity": 104, "channel": 0}, {"type": "note_off", "time": 68, "note": 65, "velocity": 104, "channel": 0}, {"type": "note_on", "time": 103, "note": 60, "velocity": 93, "channel": 0}, {"type": "note_off", "time": 319, "note": 60, "velocity": 93, "channel": 0}, {"type": "note_on", "time": 573, "note": 68, "velocity": 103, "channel": 0}, {"type": "note_off", "time": 128, "note": 68, "velocity": 103, "channel": 0}, {"type": "note_on", "time": 21, "note": 61, "velocity": 95, "channel": 0}, {"type": "note_off", "time": 42, "note": 61, "velocity": 95, "channel": 0}, {"type": "note_on", "time": 117, "note": 67, "velocity": 106, "channel": 0}, {"type": "note_off", "time": 68, "note": 67, "velocity": 106, "channel": 0}, {"type": "note_on", "time": 10, "note": 66, "velocity": 102, "channel": 0}, {"type": "note_off", "time": 58, "note": 66, "velocity": 102, "channel": 0}, {"type": "note_on", "time": 17, "note": 65, "velocity": 107, "channel": 0}, {"type": "note_off", "time": 95, "note": 65, "velocity": 107, "channel": 0}, {"type": "note_on", "time": 15, "note": 64, "velocity": 110, "channel": 0}, {"type": "note_off", "time": 53, "note": 64, "velocity": 110, "channel": 0}, {"type": "note_on", "time": 12, "note": 63, "velocity": 108, "channel": 0}, {"type": "note_off", "time": 84, "note": 63, "velocity": 108, "channel": 0}, {"type": "note_on", "time": 10, "note": 62, "velocity": 103, "channel": 0}, {"type": "note_off", "time": 67, "note": 62, "velocity": 103, "channel": 0}, {"type": "note_on", "time": 18, "note": 61, "velocity": 99, "channel": 0}, {"type": "note_off", "time": 70, "note": 61, "velocity": 99, "channel": 0}, {"type": "note_on", "time": 127, "note": 60, "velocity": 101, "channel": 0}, {"type": "note_off", "time": 73, "note": 60, "velocity": 101, "channel": 0}, {"type": "note_on", "time": 26, "note": 57, "velocity": 107, "channel": 0}, {"type": "note_off", "time": 45, "note": 57, "velocity": 107, "channel": 0}, {"type": "note_on", "time": 17, "note": 58, "velocity": 105, "channel": 0}, {"type": "note_off", "time": 66, "note": 58, "velocity": 105, "channel": 0}, {"type": "note_on", "time": 16, "note": 62, "velocity": 94, "channel": 0}, {"type": "note_off", "time": 46, "note": 62, "velocity": 94, "channel": 0}, {"type": "note_on", "time": 11, "note": 65, "velocity": 102, "channel": 0}, {"type": "note_off", "time": 53, "note": 65, "velocity": 102, "channel": 0}, {"type": "note_on", "time": 41, "note": 69, "velocity": 112, "channel": 0}, {"type": "note_off", "time": 101, "note": 69, "velocity": 112, "channel": 0}, {"type": "note_on", "time": 15, "note": 67, "velocity": 111, "channel": 0}, {"type": "note_off", "time": 69, "note": 67, "velocity": 111, "channel": 0}, {"type": "note_on", "time": 85, "note": 67, "velocity": 112, "channel": 0}, {"type": "note_off", "time": 115, "note": 67, "velocity": 112, "channel": 0}, {"type": "note_on", "time": 36, "note": 65, "velocity": 103, "channel": 0}, {"type": "note_off", "time": 1438, "note": 65, "velocity": 103, "channel": 0}, {"type": "note_on", "time": 485, "note": 67, "velocity": 108, "channel": 0}, {"type": "note_off", "time": 64, "note": 67, "velocity": 108, "channel": 0}, {"type": "note_on", "time": 29, "note": 69, "velocity": 113, "channel": 0}, {"type": "note_off", "time": 87, "note": 69, "velocity": 113, "channel": 0}, {"type": "note_on", "time": 26, "note": 70, "velocity": 117, "channel": 0}, {"type": "note_off", "time": 87, "note": 70, "velocity": 117, "channel": 0}, {"type": "note_on", "time": 80, "note": 72, "velocity": 118, "channel": 0}, {"type": "note_off", "time": 101, "note": 72, "velocity": 118, "channel": 0}, {"type": "note_on", "time": 30, "note": 74, "velocity": 122, "channel": 0}, {"type": "note_off", "time": 102, "note": 74, "velocity": 122, "channel": 0}, {"type": "note_on", "time": 33, "note": 72, "velocity": 114, "channel": 0}, {"type": "note_off", "time": 82, "note": 72, "velocity": 114, "channel": 0}, {"type": "note_on", "time": 21, "note": 70, "velocity": 112, "channel": 0}, {"type": "note_off", "time": 78, "note": 70, "velocity": 112, "channel": 0}, {"type": "note_on", "time": 53, "note": 69, "velocity": 115, "channel": 0}, {"type": "note_off", "time": 89, "note": 69, "velocity": 115, "channel": 0}, {"type": "note_on", "time": 19, "note": 70, "velocity": 115, "channel": 0}, {"type": "note_off", "time": 59, "note": 70, "velocity": 115, "channel": 0}, {"type": "note_on", "time": 41, "note": 67, "velocity": 105, "channel": 0}, {"type": "note_off", "time": 78, "note": 67, "velocity": 105, "channel": 0}, {"type": "note_on", "time": 9, "note": 69, "velocity": 111, "channel": 0}, {"type": "note_off", "time": 55, "note": 69, "velocity": 111, "channel": 0}, {"type": "note_on", "time": 23, "note": 65, "velocity": 102, "channel": 0}, {"type": "note_off", "time": 69, "note": 65, "velocity": 102, "channel": 0}, {"type": "note_on", "time": 823, "note": 70, "velocity": 118, "channel": 0}, {"type": "note_off", "time": 58, "note": 70, "velocity": 118, "channel": 0}, {"type": "note_on", "time": 114, "note": 70, "velocity": 110, "channel": 0}, {"type": "note_off", "time": 52, "note": 70, "velocity": 110, "channel": 0}, {"type": "note_on", "time": 12, "note": 70, "velocity": 115, "channel": 0}, {"type": "note_off", "time": 50, "note": 70, "velocity": 115, "channel": 0}, {"type": "note_on", "time": 15, "note": 70, "velocity": 119, "channel": 0}, {"type": "note_off", "time": 53, "note": 70, "velocity": 119, "channel": 0}, {"type": "note_on", "time": 26, "note": 70, "velocity": 115, "channel": 0}, {"type": "note_off", "time": 521, "note": 70, "velocity": 115, "channel": 0}, {"type": "note_on", "time": 109, "note": 69, "velocity": 116, "channel": 0}, {"type": "note_off", "time": 73, "note": 69, "velocity": 116, "channel": 0}, {"type": "note_on", "time": 23, "note": 67, "velocity": 9, "channel": 0}, {"type": "note_off", "time": 50, "note": 67, "velocity": 9, "channel": 0}, {"type": "note_on", "time": 36, "note": 65, "velocity": 104, "channel": 0}, {"type": "note_off", "time": 65, "note": 65, "velocity": 104, "channel": 0}, {"type": "note_on", "time": 29, "note": 64, "velocity": 109, "channel": 0}, {"type": "note_off", "time": 72, "note": 64, "velocity": 109, "channel": 0}, {"type": "note_on", "time": 21, "note": 62, "velocity": 102, "channel": 0}, {"type": "note_off", "time": 73, "note": 62, "velocity": 102, "channel": 0}, {"type": "note_on", "time": 33, "note": 60, "velocity": 97, "channel": 0}, {"type": "note_off", "time": 59, "note": 60, "velocity": 97, "channel": 0}, {"type": "note_on", "time": 23, "note": 58, "velocity": 105, "channel": 0}, {"type": "note_off", "time": 86, "note": 58, "velocity": 105, "channel": 0}, {"type": "note_on", "time": 18, "note": 57, "velocity": 97, "channel": 0}, {"type": "note_off", "time": 32, "note": 57, "velocity": 97, "channel": 0}, {"type": "note_on", "time": 18, "note": 56, "velocity": 104, "channel": 0}, {"type": "note_off", "time": 91, "note": 56, "velocity": 104, "channel": 0}, {"type": "note_on", "time": 63, "note": 61, "velocity": 94, "channel": 0}, {"type": "note_off", "time": 36, "note": 61, "velocity": 94, "channel": 0}, {"type": "note_on", "time": 6, "note": 63, "velocity": 103, "channel": 0}, {"type": "note_off", "time": 95, "note": 63, "velocity": 103, "channel": 0}, {"type": "note_on", "time": 9, "note": 67, "velocity": 108, "channel": 0}, {"type": "note_off", "time": 58, "note": 67, "velocity": 108, "channel": 0}, {"type": "note_on", "time": 18, "note": 65, "velocity": 109, "channel": 0}, {"type": "note_off", "time": 79, "note": 65, "velocity": 109, "channel": 0}, {"type": "note_on", "time": 31, "note": 63, "velocity": 108, "channel": 0}, {"type": "note_off", "time": 50, "note": 63, "velocity": 108, "channel": 0}, {"type": "note_on", "time": 44, "note": 62, "velocity": 105, "channel": 0}, {"type": "note_off", "time": 82, "note": 62, "velocity": 105, "channel": 0}, {"type": "note_on", "time": 521, "note": 55, "velocity": 92, "channel": 0}, {"type": "note_off", "time": 50, "note": 55, "velocity": 92, "channel": 0}, {"type": "note_on", "time": 23, "note": 58, "velocity": 103, "channel": 0}, {"type": "note_off", "time": 38, "note": 58, "velocity": 103, "channel": 0}, {"type": "note_on", "time": 32, "note": 61, "velocity": 108, "channel": 0}, {"type": "note_off", "time": 72, "note": 61, "velocity": 108, "channel": 0}, {"type": "note_on", "time": 26, "note": 63, "velocity": 108, "channel": 0}, {"type": "note_off", "time": 70, "note": 63, "velocity": 108, "channel": 0}, {"type": "note_on", "time": 15, "note": 60, "velocity": 98, "channel": 0}, {"type": "note_off", "time": 76, "note": 60, "velocity": 98, "channel": 0}, {"type": "note_on", "time": 30, "note": 61, "velocity": 102, "channel": 0}, {"type": "note_off", "time": 42, "note": 61, "velocity": 102, "channel": 0}, {"type": "note_on", "time": 27, "note": 58, "velocity": 110, "channel": 0}, {"type": "note_off", "time": 79, "note": 58, "velocity": 110, "channel": 0}, {"type": "note_on", "time": 606, "note": 64, "velocity": 104, "channel": 0}, {"type": "note_off", "time": 250, "note": 64, "velocity": 104, "channel": 0}, {"type": "note_on", "time": 13, "note": 61, "velocity": 108, "channel": 0}, {"type": "note_off", "time": 78, "note": 61, "velocity": 108, "channel": 0}, {"type": "note_on", "time": 33, "note": 64, "velocity": 117, "channel": 0}, {"type": "note_off", "time": 93, "note": 64, "velocity": 117, "channel": 0}, {"type": "note_on", "time": 164, "note": 64, "velocity": 118, "channel": 0}, {"type": "note_off", "time": 90, "note": 64, "velocity": 118, "channel": 0}, {"type": "note_on", "time": 13, "note": 64, "velocity": 113, "channel": 0}, {"type": "note_off", "time": 71, "note": 64, "velocity": 113, "channel": 0}, {"type": "note_on", "time": 23, "note": 61, "velocity": 109, "channel": 0}, {"type": "note_off", "time": 75, "note": 61, "velocity": 109, "channel": 0}, {"type": "note_on", "time": 12, "note": 64, "velocity": 117, "channel": 0}, {"type": "note_off", "time": 69, "note": 64, "velocity": 117, "channel": 0}, {"type": "note_on", "time": 30, "note": 61, "velocity": 95, "channel": 0}, {"type": "note_off", "time": 70, "note": 61, "velocity": 95, "channel": 0}, {"type": "note_on", "time": 105, "note": 64, "velocity": 115, "channel": 0}, {"type": "note_off", "time": 75, "note": 64, "velocity": 115, "channel": 0}, {"type": "note_on", "time": 128, "note": 61, "velocity": 102, "channel": 0}, {"type": "note_off", "time": 52, "note": 61, "velocity": 102, "channel": 0}, {"type": "note_on", "time": 133, "note": 64, "velocity": 116, "channel": 0}, {"type": "note_off", "time": 89, "note": 64, "velocity": 116, "channel": 0}, {"type": "note_on", "time": 90, "note": 61, "velocity": 101, "channel": 0}, {"type": "note_off", "time": 107, "note": 61, "velocity": 101, "channel": 0}, {"type": "note_on", "time": 12, "note": 64, "velocity": 118, "channel": 0}, {"type": "note_off", "time": 95, "note": 64, "velocity": 118, "channel": 0}, {"type": "note_on", "time": 166, "note": 64, "velocity": 115, "channel": 0}, {"type": "note_off", "time": 81, "note": 64, "velocity": 115, "channel": 0}, {"type": "note_on", "time": 17, "note": 64, "velocity": 114, "channel": 0}, {"type": "note_off", "time": 65, "note": 64, "velocity": 114, "channel": 0}, {"type": "note_on", "time": 20, "note": 61, "velocity": 103, "channel": 0}, {"type": "note_off", "time": 73, "note": 61, "velocity": 103, "channel": 0}, {"type": "note_on", "time": 21, "note": 64, "velocity": 115, "channel": 0}, {"type": "note_off", "time": 98, "note": 64, "velocity": 115, "channel": 0}, {"type": "note_on", "time": 169, "note": 64, "velocity": 114, "channel": 0}, {"type": "note_off", "time": 89, "note": 64, "velocity": 114, "channel": 0}, {"type": "note_on", "time": 107, "note": 64, "velocity": 105, "channel": 0}, {"type": "note_off", "time": 333, "note": 64, "velocity": 105, "channel": 0}, {"type": "note_on", "time": 9, "note": 61, "velocity": 105, "channel": 0}, {"type": "note_off", "time": 102, "note": 61, "velocity": 105, "channel": 0}, {"type": "note_on", "time": 31, "note": 64, "velocity": 113, "channel": 0}, {"type": "note_off", "time": 197, "note": 64, "velocity": 113, "channel": 0}, {"type": "note_on", "time": 37, "note": 61, "velocity": 95, "channel": 0}, {"type": "note_off", "time": 52, "note": 61, "velocity": 95, "channel": 0}, {"type": "note_on", "time": 5, "note": 64, "velocity": 115, "channel": 0}, {"type": "note_off", "time": 187, "note": 64, "velocity": 115, "channel": 0}, {"type": "note_on", "time": 15, "note": 61, "velocity": 104, "channel": 0}, {"type": "note_off", "time": 75, "note": 61, "velocity": 104, "channel": 0}, {"type": "note_on", "time": 594, "note": 61, "velocity": 104, "channel": 0}, {"type": "note_off", "time": 66, "note": 61, "velocity": 104, "channel": 0}, {"type": "note_on", "time": 7, "note": 62, "velocity": 100, "channel": 0}, {"type": "note_off", "time": 80, "note": 62, "velocity": 100, "channel": 0}, {"type": "note_on", "time": 29, "note": 65, "velocity": 98, "channel": 0}, {"type": "note_off", "time": 38, "note": 65, "velocity": 98, "channel": 0}, {"type": "note_on", "time": 17, "note": 67, "velocity": 114, "channel": 0}, {"type": "note_off", "time": 84, "note": 67, "velocity": 114, "channel": 0}, {"type": "note_on", "time": 19, "note": 70, "velocity": 123, "channel": 0}, {"type": "note_off", "time": 167, "note": 70, "velocity": 123, "channel": 0}, {"type": "note_on", "time": 52, "note": 67, "velocity": 102, "channel": 0}, {"type": "note_off", "time": 54, "note": 67, "velocity": 102, "channel": 0}, {"type": "note_on", "time": 5, "note": 70, "velocity": 122, "channel": 0}, {"type": "note_off", "time": 165, "note": 70, "velocity": 122, "channel": 0}, {"type": "note_on", "time": 38, "note": 67, "velocity": 107, "channel": 0}, {"type": "note_off", "time": 67, "note": 67, "velocity": 107, "channel": 0}, {"type": "note_on", "time": 13, "note": 70, "velocity": 122, "channel": 0}, {"type": "note_off", "time": 178, "note": 70, "velocity": 122, "channel": 0}, {"type": "note_on", "time": 53, "note": 67, "velocity": 96, "channel": 0}, {"type": "note_off", "time": 32, "note": 67, "velocity": 96, "channel": 0}, {"type": "note_on", "time": 30, "note": 70, "velocity": 123, "channel": 0}, {"type": "note_off", "time": 159, "note": 70, "velocity": 123, "channel": 0}, {"type": "note_on", "time": 38, "note": 67, "velocity": 95, "channel": 0}, {"type": "note_off", "time": 69, "note": 67, "velocity": 95, "channel": 0}, {"type": "note_on", "time": 8, "note": 70, "velocity": 123, "channel": 0}, {"type": "note_off", "time": 185, "note": 70, "velocity": 123, "channel": 0}, {"type": "note_on", "time": 35, "note": 67, "velocity": 100, "channel": 0}, {"type": "note_off", "time": 50, "note": 67, "velocity": 100, "channel": 0}, {"type": "note_on", "time": 16, "note": 70, "velocity": 120, "channel": 0}, {"type": "note_off", "time": 152, "note": 70, "velocity": 120, "channel": 0}, {"type": "note_on", "time": 32, "note": 67, "velocity": 101, "channel": 0}, {"type": "note_off", "time": 79, "note": 67, "velocity": 101, "channel": 0}, {"type": "note_on", "time": 15, "note": 70, "velocity": 120, "channel": 0}, {"type": "note_off", "time": 199, "note": 70, "velocity": 120, "channel": 0}, {"type": "note_on", "time": 72, "note": 67, "velocity": 111, "channel": 0}, {"type": "note_off", "time": 159, "note": 67, "velocity": 111, "channel": 0}, {"type": "note_on", "time": 3, "note": 63, "velocity": 93, "channel": 0}, {"type": "note_off", "time": 48, "note": 63, "velocity": 93, "channel": 0}, {"type": "note_on", "time": 587, "note": 73, "velocity": 116, "channel": 0}, {"type": "note_off", "time": 104, "note": 73, "velocity": 116, "channel": 0}, {"type": "note_on", "time": 12, "note": 71, "velocity": 90, "channel": 0}, {"type": "note_off", "time": 38, "note": 71, "velocity": 90, "channel": 0}, {"type": "note_on", "time": 9, "note": 72, "velocity": 115, "channel": 0}, {"type": "note_off", "time": 98, "note": 72, "velocity": 115, "channel": 0}, {"type": "note_on", "time": 15, "note": 70, "velocity": 113, "channel": 0}, {"type": "note_off", "time": 84, "note": 70, "velocity": 113, "channel": 0}, {"type": "note_on", "time": 885, "note": 68, "velocity": 110, "channel": 0}, {"type": "note_off", "time": 133, "note": 68, "velocity": 110, "channel": 0}, {"type": "note_on", "time": 55, "note": 65, "velocity": 100, "channel": 0}, {"type": "note_off", "time": 35, "note": 65, "velocity": 100, "channel": 0}, {"type": "note_on", "time": 14, "note": 67, "velocity": 113, "channel": 0}, {"type": "note_off", "time": 214, "note": 67, "velocity": 113, "channel": 0}, {"type": "note_on", "time": 92, "note": 66, "velocity": 105, "channel": 0}, {"type": "note_off", "time": 173, "note": 66, "velocity": 105, "channel": 0}, {"type": "note_on", "time": 25, "note": 62, "velocity": 97, "channel": 0}, {"type": "note_off", "time": 38, "note": 62, "velocity": 97, "channel": 0}, {"type": "note_on", "time": 11, "note": 65, "velocity": 110, "channel": 0}, {"type": "note_off", "time": 258, "note": 65, "velocity": 110, "channel": 0}, {"type": "note_on", "time": 49, "note": 64, "velocity": 109, "channel": 0}, {"type": "note_off", "time": 181, "note": 64, "velocity": 109, "channel": 0}, {"type": "note_on", "time": 29, "note": 61, "velocity": 90, "channel": 0}, {"type": "note_off", "time": 45, "note": 61, "velocity": 90, "channel": 0}, {"type": "note_on", "time": 24, "note": 63, "velocity": 101, "channel": 0}, {"type": "note_off", "time": 204, "note": 63, "velocity": 101, "channel": 0}, {"type": "note_on", "time": 84, "note": 62, "velocity": 110, "channel": 0}, {"type": "note_off", "time": 161, "note": 62, "velocity": 110, "channel": 0}, {"type": "note_on", "time": 20, "note": 60, "velocity": 96, "channel": 0}, {"type": "note_off", "time": 46, "note": 60, "velocity": 96, "channel": 0}, {"type": "note_on", "time": 26, "note": 62, "velocity": 104, "channel": 0}, {"type": "note_off", "time": 87, "note": 62, "velocity": 104, "channel": 0}, {"type": "note_on", "time": 235, "note": 60, "velocity": 104, "channel": 0}, {"type": "note_off", "time": 184, "note": 60, "velocity": 104, "channel": 0}, {"type": "note_on", "time": 89, "note": 59, "velocity": 102, "channel": 0}, {"type": "note_off", "time": 96, "note": 59, "velocity": 102, "channel": 0}, {"type": "note_on", "time": 277, "note": 58, "velocity": 105, "channel": 0}, {"type": "note_off", "time": 78, "note": 58, "velocity": 105, "channel": 0}, {"type": "note_on", "time": 36, "note": 61, "velocity": 103, "channel": 0}, {"type": "note_off", "time": 55, "note": 61, "velocity": 103, "channel": 0}, {"type": "note_on", "time": 18, "note": 62, "velocity": 104, "channel": 0}, {"type": "note_off", "time": 79, "note": 62, "velocity": 104, "channel": 0}, {"type": "note_on", "time": 28, "note": 64, "velocity": 112, "channel": 0}, {"type": "note_off", "time": 65, "note": 64, "velocity": 112, "channel": 0}, {"type": "note_on", "time": 5, "note": 65, "velocity": 107, "channel": 0}, {"type": "note_off", "time": 36, "note": 65, "velocity": 107, "channel": 0}, {"type": "note_on", "time": 148, "note": 65, "velocity": 110, "channel": 0}, {"type": "note_off", "time": 164, "note": 65, "velocity": 110, "channel": 0}, {"type": "note_on", "time": 29, "note": 67, "velocity": 103, "channel": 0}, {"type": "note_off", "time": 260, "note": 67, "velocity": 103, "channel": 0}, {"type": "note_on", "time": 67, "note": 65, "velocity": 112, "channel": 0}, {"type": "note_off", "time": 75, "note": 65, "velocity": 112, "channel": 0}, {"type": "note_on", "time": 294, "note": 64, "velocity": 105, "channel": 0}, {"type": "note_off", "time": 73, "note": 64, "velocity": 105, "channel": 0}, {"type": "note_on", "time": 8, "note": 63, "velocity": 110, "channel": 0}, {"type": "note_off", "time": 104, "note": 63, "velocity": 110, "channel": 0}, {"type": "note_on", "time": 83, "note": 58, "velocity": 101, "channel": 0}, {"type": "note_off", "time": 106, "note": 58, "velocity": 101, "channel": 0}, {"type": "note_on", "time": 8, "note": 61, "velocity": 100, "channel": 0}, {"type": "note_off", "time": 46, "note": 61, "velocity": 100, "channel": 0}, {"type": "note_on", "time": 4, "note": 62, "velocity": 106, "channel": 0}, {"type": "note_off", "time": 126, "note": 62, "velocity": 106, "channel": 0}, {"type": "note_on", "time": 7, "note": 65, "velocity": 101, "channel": 0}, {"type": "note_off", "time": 50, "note": 65, "velocity": 101, "channel": 0}, {"type": "note_on", "time": 3, "note": 67, "velocity": 108, "channel": 0}, {"type": "note_off", "time": 89, "note": 67, "velocity": 108, "channel": 0}, {"type": "note_on", "time": 130, "note": 70, "velocity": 127, "channel": 0}, {"type": "note_off", "time": 228, "note": 70, "velocity": 127, "channel": 0}, {"type": "note_on", "time": 2, "note": 67, "velocity": 118, "channel": 0}, {"type": "note_off", "time": 49, "note": 67, "velocity": 118, "channel": 0}, {"type": "note_on", "time": 7, "note": 65, "velocity": 103, "channel": 0}, {"type": "note_off", "time": 23, "note": 65, "velocity": 103, "channel": 0}, {"type": "note_on", "time": 3, "note": 62, "velocity": 100, "channel": 0}, {"type": "note_off", "time": 30, "note": 62, "velocity": 100, "channel": 0}, {"type": "note_on", "time": 13, "note": 58, "velocity": 85, "channel": 0}, {"type": "note_off", "time": 227, "note": 58, "velocity": 85, "channel": 0}, {"type": "note_on", "time": 9, "note": 53, "velocity": 96, "channel": 0}, {"type": "note_off", "time": 55, "note": 53, "velocity": 96, "channel": 0}, {"type": "end_of_track", "time": 0}]]}