{"ticks_per_beat": 840, "tracks": [[{"type": "track_name", "name": "Melody", "time": 0}, {"type": "set_tempo", "tempo": 465116, "time": 0}, {"type": "key_signature", "key": "F", "time": 0}, {"type": "time_signature", "numerator": 4, "denominator": 4, "clocks_per_click": 24, "notated_32nd_notes_per_beat": 8, "time": 0}, {"type": "note_on", "time": 15736, "note": 58, "velocity": 114, "channel": 0}, {"type": "note_off", "time": 461, "note": 58, "velocity": 114, "channel": 0}, {"type": "note_on", "time": 52, "note": 57, "velocity": 112, "channel": 0}, {"type": "note_off", "time": 419, "note": 57, "velocity": 112, "channel": 0}, {"type": "note_on", "time": 2411, "note": 58, "velocity": 112, "channel": 0}, {"type": "note_off", "time": 432, "note": 58, "velocity": 112, "channel": 0}, {"type": "note_on", "time": 28, "note": 57, "velocity": 113, "channel": 0}, {"type": "note_off", "time": 390, "note": 57, "velocity": 113, "channel": 0}, {"type": "note_on", "time": 81, "note": 58, "velocity": 111, "channel": 0}, {"type": "note_off", "time": 420, "note": 58, "velocity": 111, "channel": 0}, {"type": "note_on", "time": 14, "note": 57, "velocity": 114, "channel": 0}, {"type": "note_off", "time": 302, "note": 57, "velocity": 114, "channel": 0}, {"type": "note_on", "time": 103, "note": 58, "velocity": 99, "channel": 0}, {"type": "note_off", "time": 501, "note": 58, "velocity": 99, "channel": 0}, {"type": "note_on", "time": 14, "note": 57, "velocity": 106, "channel": 0}, {"type": "note_off", "time": 361, "note": 57, "velocity": 106, "channel": 0}, {"type": "note_on", "time": 305, "note": 53, "velocity": 104, "channel": 0}, {"type": "note_off", "time": 484, "note": 53, "velocity": 104, "channel": 0}, {"type": "note_on", "time": 18, "note": 51, "velocity": 107, "channel": 0}, {"type": "note_off", "time": 393, "note": 51, "velocity": 107, "channel": 0}, {"type": "note_on", "time": 1467, "note": 61, "velocity": 114, "channel": 0}, {"type": "note_off", "time": 327, "note": 61, "velocity": 114, "channel": 0}, {"type": "note_on", "time": 26, "note": 62, "velocity": 118, "channel": 0}, {"type": "note_off", "time": 943, "note": 62, "velocity": 118, "channel": 0}, {"type": "note_on", "time": 49, "note": 60, "velocity": 115, "channel": 0}, {"type": "note_off", "time": 335, "note": 60, "velocity": 115, "channel": 0}, {"type": "note_on", "time": 283, "note": 53, "velocity": 101, "channel": 0}, {"type": "note_off", "time": 340, "note": 53, "velocity": 101, "channel": 0}, {"type": "note_on", "time": 26, "note": 53, "velocity": 104, "channel": 0}, {"type": "note_off", "time": 301, "note": 53, "velocity": 104, "channel": 0}, {"type": "note_on", "time": 52, "note": 53, "velocity": 101, "channel": 0}, {"type": "note_off", "time": 484, "note": 53, "velocity": 101, "channel": 0}, {"type": "note_on", "time": 222, "note": 53, "velocity": 96, "channel": 0}, {"type": "note_off", "time": 576, "note": 53, "velocity": 96, "channel": 0}, {"type": "note_on", "time": 1077, "note": 53, "velocity": 94, "channel": 0}, {"type": "note_off", "time": 715, "note": 53, "velocity": 94, "channel": 0}, {"type": "note_on", "time": 1025, "note": 53, "velocity": 94, "channel": 0}, {"type": "note_off", "time": 419, "note": 53, "velocity": 94, "channel": 0}, {"type": "note_on", "time": 14, "note": 55, "velocity": 112, "channel": 0}, {"type": "note_off", "time": 250, "note": 55, "velocity": 112, "channel": 0}, {"type": "note_on", "time": 58, "note": 56, "velocity": 112, "channel": 0}, {"type": "note_off", "time": 427, "note": 56, "velocity": 112, "channel": 0}, {"type": "note_on", "time": 22, "note": 58, "velocity": 113, "channel": 0}, {"type": "note_off", "time": 361, "note": 58, "velocity": 113, "channel": 0}, {"type": "note_on", "time": 427, "note": 59, "velocity": 106, "channel": 0}, {"type": "note_off", "time": 206, "note": 59, "velocity": 106, "channel": 0}, {"type": "note_on", "time": 51, "note": 59, "velocity": 118, "channel": 0}, {"type": "note_off", "time": 287, "note": 59, "velocity": 118, "channel": 0}, {"type": "note_on", "time": 110, "note": 59, "velocity": 118, "channel": 0}, {"type": "note_off", "time": 434, "note": 59, "velocity": 118, "channel": 0}, {"type": "note_on", "time": 368, "note": 59, "velocity": 118, "channel": 0}, {"type": "note_off", "time": 309, "note": 59, "velocity": 118, "channel": 0}, {"type": "note_on", "time": 767, "note": 62, "velocity": 119, "channel": 0}, {"type": "note_off", "time": 398, "note": 62, "velocity": 119, "channel": 0}, {"type": "note_on", "time": 41, "note": 60, "velocity": 118, "channel": 0}, {"type": "note_off", "time": 484, "note": 60, "velocity": 118, "channel": 0}, {"type": "note_on", "time": 18, "note": 57, "velocity": 118, "channel": 0}, {"type": "note_off", "time": 272, "note": 57, "velocity": 118, "channel": 0}, {"type": "note_on", "time": 839, "note": 58, "velocity": 119, "channel": 0}, {"type": "note_off", "time": 501, "note": 58, "velocity": 119, "channel": 0}, {"type": "note_on", "time": 1646, "note": 59, "velocity": 118, "channel": 0}, {"type": "note_off", "time": 283, "note": 59, "velocity": 118, "channel": 0}, {"type": "note_on", "time": 148, "note": 60, "velocity": 116, "channel": 0}, {"type": "note_off", "time": 486, "note": 60, "velocity": 116, "channel": 0}, {"type": "note_on", "time": 943, "note": 57, "velocity": 95, "channel": 0}, {"type": "note_off", "time": 235, "note": 57, "velocity": 95, "channel": 0}, {"type": "note_on", "time": 17, "note": 58, "velocity": 103, "channel": 0}, {"type": "note_off", "time": 248, "note": 58, "velocity": 103, "channel": 0}, {"type": "note_on", "time": 28, "note": 62, "velocity": 91, "channel": 0}, {"type": "note_off", "time": 169, "note": 62, "velocity": 91, "channel": 0}, {"type": "note_on", "time": 44, "note": 65, "velocity": 121, "channel": 0}, {"type": "note_off", "time": 228, "note": 65, "velocity": 121, "channel": 0}, {"type": "note_on", "time": 243, "note": 69, "velocity": 119, "channel": 0}, {"type": "note_off", "time": 619, "note": 69, "velocity": 119, "channel": 0}, {"type": "note_on", "time": 108, "note": 67, "velocity": 114, "channel": 0}, {"type": "note_off", "time": 393, "note": 67, "velocity": 114, "channel": 0}, {"type": "note_on", "time": 89, "note": 65, "velocity": 106, "channel": 0}, {"type": "note_off", "time": 366, "note": 65, "velocity": 106, "channel": 0}, {"type": "note_on", "time": 67, "note": 64, "velocity": 111, "channel": 0}, {"type": "note_off", "time": 486, "note": 64, "velocity": 111, "channel": 0}, {"type": "note_on", "time": 195, "note": 58, "velocity": 106, "channel": 0}, {"type": "note_off", "time": 497, "note": 58, "velocity": 106, "channel": 0}, {"type": "note_on", "time": 65, "note": 62, "velocity": 112, "channel": 0}, {"type": "note_off", "time": 353, "note": 62, "velocity": 112, "channel": 0}, {"type": "note_on", "time": 22, "note": 60, "velocity": 112, "channel": 0}, {"type": "note_off", "time": 501, "note": 60, "velocity": 112, "channel": 0}, {"type": "note_on", "time": 29, "note": 57, "velocity": 102, "channel": 0}, {"type": "note_off", "time": 641, "note": 57, "velocity": 102, "channel": 0}, {"type": "note_on", "time": 464, "note": 57, "velocity": 102, "channel": 0}, {"type": "note_off", "time": 615, "note": 57, "velocity": 102, "channel": 0}, {"type": "note_on", "time": 4934, "note": 60, "velocity": 93, "channel": 0}, {"type": "note_off", "time": 213, "note": 60, "velocity": 93, "channel": 0}, {"type": "note_on", "time": 59, "note": 65, "velocity": 110, "channel": 0}, {"type": "note_off", "time": 642, "note": 65, "velocity": 110, "channel": 0}, {"type": "note_on", "time": 0, "note": 57, "velocity": 86, "channel": 0}, {"type": "note_off", "time": 183, "note": 57, "velocity": 86, "channel": 0}, {"type": "note_on", "time": 52, "note": 63, "velocity": 99, "channel": 0}, {"type": "note_off", "time": 707, "note": 63, "velocity": 99, "channel": 0}, {"type": "note_on", "time": 52, "note": 67, "velocity": 111, "channel": 0}, {"type": "note_off", "time": 406, "note": 67, "velocity": 111, "channel": 0}, {"type": "note_on", "time": 26, "note": 65, "velocity": 96, "channel": 0}, {"type": "note_off", "time": 280, "note": 65, "velocity": 96, "channel": 0}, {"type": "note_on", "time": 938, "note": 60, "velocity": 107, "channel": 0}, {"type": "note_off", "time": 668, "note": 60, "velocity": 107, "channel": 0}, {"type": "note_on", "time": 0, "note": 57, "velocity": 78, "channel": 0}, {"type": "note_off", "time": 162, "note": 57, "velocity": 78, "channel": 0}, {"type": "note_on", "time": 44, "note": 58, "velocity": 112, "channel": 0}, {"type": "note_off", "time": 629, "note": 58, "velocity": 112, "channel": 0}, {"type": "note_on", "time": 11, "note": 56, "velocity": 116, "channel": 0}, {"type": "note_off", "time": 383, "note": 56, "velocity": 116, "channel": 0}, {"type": "note_on", "time": 1235, "note": 60, "velocity": 98, "channel": 0}, {"type": "note_off", "time": 250, "note": 60, "velocity": 98, "channel": 0}, {"type": "note_on", "time": 76, "note": 65, "velocity": 120, "channel": 0}, {"type": "note_off", "time": 538, "note": 65, "velocity": 120, "channel": 0}, {"type": "note_on", "time": 98, "note": 61, "velocity": 92, "channel": 0}, {"type": "note_off", "time": 136, "note": 61, "velocity": 92, "channel": 0}, {"type": "note_on", "time": 0, "note": 63, "velocity": 112, "channel": 0}, {"type": "note_off", "time": 545, "note": 63, "velocity": 112, "channel": 0}, {"type": "note_on", "time": 14, "note": 65, "velocity": 114, "channel": 0}, {"type": "note_off", "time": 302, "note": 65, "velocity": 114, "channel": 0}, {"type": "note_on", "time": 523, "note": 64, "velocity": 116, "channel": 0}, {"type": "note_off", "time": 287, "note": 64, "velocity": 116, "channel": 0}, {"type": "note_on", "time": 27, "note": 63, "velocity": 111, "channel": 0}, {"type": "note_off", "time": 524, "note": 63, "velocity": 111, "channel": 0}, {"type": "note_on", "time": 45, "note": 56, "velocity": 94, "channel": 0}, {"type": "note_off", "time": 147, "note": 56, "velocity": 94, "channel": 0}, {"type": "note_on", "time": 7, "note": 58, "velocity": 103, "channel": 0}, {"type": "note_off", "time": 537, "note": 58, "velocity": 103, "channel": 0}, {"type": "note_on", "time": 0, "note": 62, "velocity": 114, "channel": 0}, {"type": "note_off", "time": 420, "note": 62, "velocity": 114, "channel": 0}, {"type": "note_on", "time": 7, "note": 60, "velocity": 107, "channel": 0}, {"type": "note_off", "time": 275, "note": 60, "velocity": 107, "channel": 0}, {"type": "note_on", "time": 78, "note": 61, "velocity": 115, "channel": 0}, {"type": "note_off", "time": 398, "note": 61, "velocity": 115, "channel": 0}, {"type": "note_on", "time": 0, "note": 57, "velocity": 113, "channel": 0}, {"type": "note_on", "time": 589, "note": 52, "velocity": 91, "channel": 0}, {"type": "note_off", "time": 0, "note": 57, "velocity": 113, "channel": 0}, {"type": "note_off", "time": 199, "note": 52, "velocity": 91, "channel": 0}, {"type": "note_on", "time": 0, "note": 60, "velocity": 116, "channel": 0}, {"type": "note_on", "time": 597, "note": 58, "velocity": 97, "channel": 0}, {"type": "note_off", "time": 0, "note": 60, "velocity": 116, "channel": 0}, {"type": "note_off", "time": 1149, "note": 58, "velocity": 97, "channel": 0}, {"type": "note_on", "time": 2697, "note": 60, "velocity": 108, "channel": 0}, {"type": "note_off", "time": 405, "note": 60, "velocity": 108, "channel": 0}, {"type": "note_on", "time": 36, "note": 61, "velocity": 113, "channel": 0}, {"type": "note_off", "time": 243, "note": 61, "velocity": 113, "channel": 0}, {"type": "note_on", "time": 58, "note": 62, "velocity": 109, "channel": 0}, {"type": "note_off", "time": 567, "note": 62, "velocity": 109, "channel": 0}, {"type": "note_on", "time": 14, "note": 65, "velocity": 117, "channel": 0}, {"type": "note_off", "time": 196, "note": 65, "velocity": 117, "channel": 0}, {"type": "note_on", "time": 9, "note": 67, "velocity": 125, "channel": 0}, {"type": "note_off", "time": 589, "note": 67, "velocity": 125, "channel": 0}, {"type": "note_on", "time": 16, "note": 65, "velocity": 108, "channel": 0}, {"type": "note_off", "time": 144, "note": 65, "velocity": 108, "channel": 0}, {"type": "note_on", "time": 75, "note": 67, "velocity": 124, "channel": 0}, {"type": "note_off", "time": 331, "note": 67, "velocity": 124, "channel": 0}, {"type": "note_on", "time": 58, "note": 68, "velocity": 104, "channel": 0}, {"type": "note_off", "time": 235, "note": 68, "velocity": 104, "channel": 0}, {"type": "note_on", "time": 0, "note": 58, "velocity": 104, "channel": 0}, {"type": "note_off", "time": 265, "note": 58, "velocity": 104, "channel": 0}, {"type": "note_on", "time": 88, "note": 67, "velocity": 122, "channel": 0}, {"type": "note_off", "time": 1466, "note": 67, "velocity": 122, "channel": 0}, {"type": "note_on", "time": 1769, "note": 65, "velocity": 79, "channel": 0}, {"type": "note_off", "time": 191, "note": 65, "velocity": 79, "channel": 0}, {"type": "note_on", "time": 22, "note": 66, "velocity": 118, "channel": 0}, {"type": "note_off", "time": 213, "note": 66, "velocity": 118, "channel": 0}, {"type": "note_on", "time": 14, "note": 64, "velocity": 111, "channel": 0}, {"type": "note_off", "time": 221, "note": 64, "velocity": 111, "channel": 0}, {"type": "note_on", "time": 191, "note": 65, "velocity": 110, "channel": 0}, {"type": "note_off", "time": 162, "note": 65, "velocity": 110, "channel": 0}, {"type": "note_on", "time": 22, "note": 66, "velocity": 112, "channel": 0}, {"type": "note_off", "time": 213, "note": 66, "velocity": 112, "channel": 0}, {"type": "note_on", "time": 22, "note": 63, "velocity": 109, "channel": 0}, {"type": "note_off", "time": 213, "note": 63, "velocity": 109, "channel": 0}, {"type": "note_on", "time": 1828, "note": 63, "velocity": 90, "channel": 0}, {"type": "note_off", "time": 162, "note": 63, "velocity": 90, "channel": 0}, {"type": "note_on", "time": 22, "note": 64, "velocity": 103, "channel": 0}, {"type": "note_off", "time": 199, "note": 64, "velocity": 103, "channel": 0}, {"type": "note_on", "time": 22, "note": 62, "velocity": 110, "channel": 0}, {"type": "note_off", "time": 162, "note": 62, "velocity": 110, "channel": 0}, {"type": "note_on", "time": 243, "note": 63, "velocity": 107, "channel": 0}, {"type": "note_off", "time": 176, "note": 63, "velocity": 107, "channel": 0}, {"type": "note_on", "time": 14, "note": 64, "velocity": 103, "channel": 0}, {"type": "note_on", "time": 154, "note": 60, "velocity": 104, "channel": 0}, {"type": "note_off", "time": 0, "note": 64, "velocity": 103, "channel": 0}, {"type": "note_off", "time": 228, "note": 60, "velocity": 104, "channel": 0}, {"type": "note_on", "time": 243, "note": 60, "velocity": 107, "channel": 0}, {"type": "note_on", "time": 199, "note": 61, "velocity": 105, "channel": 0}, {"type": "note_off", "time": 0, "note": 60, "velocity": 107, "channel": 0}, {"type": "note_off", "time": 176, "note": 61, "velocity": 105, "channel": 0}, {"type": "note_on", "time": 0, "note": 58, "velocity": 101, "channel": 0}, {"type": "note_off", "time": 125, "note": 58, "velocity": 101, "channel": 0}, {"type": "note_on", "time": 66, "note": 58, "velocity": 85, "channel": 0}, {"type": "note_off", "time": 147, "note": 58, "velocity": 85, "channel": 0}, {"type": "note_on", "time": 22, "note": 60, "velocity": 86, "channel": 0}, {"type": "note_off", "time": 545, "note": 60, "velocity": 86, "channel": 0}, {"type": "note_on", "time": 1039, "note": 57, "velocity": 93, "channel": 0}, {"type": "note_off", "time": 221, "note": 57, "velocity": 93, "channel": 0}, {"type": "note_on", "time": 58, "note": 58, "velocity": 118, "channel": 0}, {"type": "note_off", "time": 449, "note": 58, "velocity": 118, "channel": 0}, {"type": "note_on", "time": 162, "note": 60, "velocity": 113, "channel": 0}, {"type": "note_off", "time": 243, "note": 60, "velocity": 113, "channel": 0}, {"type": "note_on", "time": 29, "note": 57, "velocity": 112, "channel": 0}, {"type": "note_off", "time": 545, "note": 57, "velocity": 112, "channel": 0}, {"type": "note_on", "time": 147, "note": 55, "velocity": 104, "channel": 0}, {"type": "note_off", "time": 899, "note": 55, "velocity": 104, "channel": 0}, {"type": "note_on", "time": 88, "note": 55, "velocity": 114, "channel": 0}, {"type": "note_off", "time": 678, "note": 55, "velocity": 114, "channel": 0}, {"type": "note_on", "time": 5167, "note": 61, "velocity": 105, "channel": 0}, {"type": "note_off", "time": 169, "note": 61, "velocity": 105, "channel": 0}, {"type": "note_on", "time": 51, "note": 62, "velocity": 116, "channel": 0}, {"type": "note_off", "time": 228, "note": 62, "velocity": 116, "channel": 0}, {"type": "note_on", "time": 22, "note": 65, "velocity": 91, "channel": 0}, {"type": "note_off", "time": 184, "note": 65, "velocity": 91, "channel": 0}, {"type": "note_on", "time": 22, "note": 69, "velocity": 122, "channel": 0}, {"type": "note_off", "time": 398, "note": 69, "velocity": 122, "channel": 0}, {"type": "note_on", "time": 22, "note": 72, "velocity": 123, "channel": 0}, {"type": "note_off", "time": 523, "note": 72, "velocity": 123, "channel": 0}, {"type": "note_on", "time": 51, "note": 70, "velocity": 122, "channel": 0}, {"type": "note_off", "time": 524, "note": 70, "velocity": 122, "channel": 0}, {"type": "note_on", "time": 389, "note": 62, "velocity": 96, "channel": 0}, {"type": "note_off", "time": 243, "note": 62, "velocity": 96, "channel": 0}, {"type": "note_on", "time": 29, "note": 65, "velocity": 115, "channel": 0}, {"type": "note_off", "time": 471, "note": 65, "velocity": 115, "channel": 0}, {"type": "note_on", "time": 51, "note": 69, "velocity": 111, "channel": 0}, {"type": "note_off", "time": 1192, "note": 69, "velocity": 111, "channel": 0}, {"type": "note_on", "time": 32, "note": 67, "velocity": 113, "channel": 0}, {"type": "note_off", "time": 117, "note": 67, "velocity": 113, "channel": 0}, {"type": "note_on", "time": 13, "note": 69, "velocity": 113, "channel": 0}, {"type": "note_off", "time": 117, "note": 69, "velocity": 113, "channel": 0}, {"type": "note_on", "time": 13, "note": 67, "velocity": 111, "channel": 0}, {"type": "note_off", "time": 131, "note": 67, "velocity": 111, "channel": 0}, {"type": "note_on", "time": 0, "note": 65, "velocity": 114, "channel": 0}, {"type": "note_off", "time": 301, "note": 65, "velocity": 114, "channel": 0}, {"type": "note_on", "time": 144, "note": 64, "velocity": 109, "channel": 0}, {"type": "note_off", "time": 380, "note": 64, "velocity": 109, "channel": 0}, {"type": "note_on", "time": 47, "note": 62, "velocity": 112, "channel": 0}, {"type": "note_off", "time": 339, "note": 62, "velocity": 112, "channel": 0}, {"type": "note_on", "time": 45, "note": 60, "velocity": 104, "channel": 0}, {"type": "note_off", "time": 419, "note": 60, "velocity": 104, "channel": 0}, {"type": "note_on", "time": 21, "note": 58, "velocity": 103, "channel": 0}, {"type": "note_off", "time": 353, "note": 58, "velocity": 103, "channel": 0}, {"type": "note_on", "time": 83, "note": 57, "velocity": 107, "channel": 0}, {"type": "note_off", "time": 366, "note": 57, "velocity": 107, "channel": 0}, {"type": "note_on", "time": 13, "note": 55, "velocity": 104, "channel": 0}, {"type": "note_off", "time": 406, "note": 55, "velocity": 104, "channel": 0}, {"type": "note_on", "time": 39, "note": 53, "velocity": 105, "channel": 0}, {"type": "note_off", "time": 406, "note": 53, "velocity": 105, "channel": 0}, {"type": "note_on", "time": 26, "note": 52, "velocity": 106, "channel": 0}, {"type": "note_off", "time": 353, "note": 52, "velocity": 106, "channel": 0}, {"type": "note_on", "time": 91, "note": 51, "velocity": 96, "channel": 0}, {"type": "note_off", "time": 537, "note": 51, "velocity": 96, "channel": 0}, {"type": "note_on", "time": 0, "note": 57, "velocity": 83, "channel": 0}, {"type": "note_off", "time": 146, "note": 57, "velocity": 83, "channel": 0}, {"type": "note_on", "time": 20, "note": 58, "velocity": 114, "channel": 0}, {"type": "note_off", "time": 368, "note": 58, "velocity": 114, "channel": 0}, {"type": "note_on", "time": 44, "note": 62, "velocity": 100, "channel": 0}, {"type": "note_off", "time": 412, "note": 62, "velocity": 100, "channel": 0}, {"type": "note_on", "time": 184, "note": 63, "velocity": 122, "channel": 0}, {"type": "note_off", "time": 390, "note": 63, "velocity": 122, "channel": 0}, {"type": "note_on", "time": 41, "note": 63, "velocity": 127, "channel": 0}, {"type": "note_off", "time": 193, "note": 63, "velocity": 127, "channel": 0}, {"type": "note_on", "time": 52, "note": 63, "velocity": 125, "channel": 0}, {"type": "note_off", "time": 550, "note": 63, "velocity": 125, "channel": 0}, {"type": "note_on", "time": 62, "note": 63, "velocity": 126, "channel": 0}, {"type": "note_off", "time": 225, "note": 63, "velocity": 126, "channel": 0}, {"type": "note_on", "time": 47, "note": 63, "velocity": 123, "channel": 0}, {"type": "note_off", "time": 492, "note": 63, "velocity": 123, "channel": 0}, {"type": "note_on", "time": 55, "note": 62, "velocity": 120, "channel": 0}, {"type": "note_off", "time": 288, "note": 62, "velocity": 120, "channel": 0}, {"type": "note_on", "time": 0, "note": 58, "velocity": 116, "channel": 0}, {"type": "note_off", "time": 511, "note": 58, "velocity": 116, "channel": 0}, {"type": "note_on", "time": 65, "note": 55, "velocity": 97, "channel": 0}, {"type": "note_off", "time": 235, "note": 55, "velocity": 97, "channel": 0}, {"type": "note_on", "time": 78, "note": 58, "velocity": 95, "channel": 0}, {"type": "note_off", "time": 733, "note": 58, "velocity": 95, "channel": 0}, {"type": "note_on", "time": 820, "note": 62, "velocity": 117, "channel": 0}, {"type": "note_off", "time": 639, "note": 62, "velocity": 117, "channel": 0}, {"type": "note_on", "time": 73, "note": 65, "velocity": 82, "channel": 0}, {"type": "note_off", "time": 78, "note": 65, "velocity": 82, "channel": 0}, {"type": "note_on", "time": 0, "note": 67, "velocity": 124, "channel": 0}, {"type": "note_off", "time": 786, "note": 67, "velocity": 124, "channel": 0}, {"type": "note_on", "time": 0, "note": 65, "velocity": 104, "channel": 0}, {"type": "note_off", "time": 91, "note": 65, "velocity": 104, "channel": 0}, {"type": "note_on", "time": 39, "note": 67, "velocity": 120, "channel": 0}, {"type": "note_off", "time": 340, "note": 67, "velocity": 120, "channel": 0}, {"type": "note_on", "time": 36, "note": 68, "velocity": 115, "channel": 0}, {"type": "note_off", "time": 382, "note": 68, "velocity": 115, "channel": 0}, {"type": "note_on", "time": 10, "note": 67, "velocity": 89, "channel": 0}, {"type": "note_off", "time": 251, "note": 67, "velocity": 89, "channel": 0}, {"type": "note_on", "time": 10, "note": 68, "velocity": 109, "channel": 0}, {"type": "note_off", "time": 450, "note": 68, "velocity": 109, "channel": 0}, {"type": "note_on", "time": 77, "note": 67, "velocity": 119, "channel": 0}, {"type": "note_off", "time": 1061, "note": 67, "velocity": 119, "channel": 0}, {"type": "note_on", "time": 14, "note": 65, "velocity": 110, "channel": 0}, {"type": "note_off", "time": 471, "note": 65, "velocity": 110, "channel": 0}, {"type": "note_on", "time": 57, "note": 62, "velocity": 108, "channel": 0}, {"type": "note_off", "time": 356, "note": 62, "velocity": 108, "channel": 0}, {"type": "note_on", "time": 26, "note": 60, "velocity": 106, "channel": 0}, {"type": "note_off", "time": 545, "note": 60, "velocity": 106, "channel": 0}, {"type": "note_on", "time": 6405, "note": 57, "velocity": 99, "channel": 0}, {"type": "note_off", "time": 272, "note": 57, "velocity": 99, "channel": 0}, {"type": "note_on", "time": 5, "note": 58, "velocity": 106, "channel": 0}, {"type": "note_off", "time": 267, "note": 58, "velocity": 106, "channel": 0}, {"type": "note_on", "time": 157, "note": 62, "velocity": 114, "channel": 0}, {"type": "note_off", "time": 387, "note": 62, "velocity": 114, "channel": 0}, {"type": "note_on", "time": 0, "note": 65, "velocity": 109, "channel": 0}, {"type": "note_off", "time": 387, "note": 65, "velocity": 109, "channel": 0}, {"type": "note_on", "time": 141, "note": 57, "velocity": 91, "channel": 0}, {"type": "note_off", "time": 298, "note": 57, "velocity": 91, "channel": 0}, {"type": "note_on", "time": 10, "note": 58, "velocity": 109, "channel": 0}, {"type": "note_off", "time": 272, "note": 58, "velocity": 109, "channel": 0}, {"type": "note_on", "time": 209, "note": 62, "velocity": 110, "channel": 0}, {"type": "note_off", "time": 366, "note": 62, "velocity": 110, "channel": 0}, {"type": "note_on", "time": 15, "note": 65, "velocity": 114, "channel": 0}, {"type": "note_off", "time": 330, "note": 65, "velocity": 114, "channel": 0}, {"type": "note_on", "time": 96, "note": 57, "velocity": 102, "channel": 0}, {"type": "note_off", "time": 340, "note": 57, "velocity": 102, "channel": 0}, {"type": "note_on", "time": 26, "note": 58, "velocity": 108, "channel": 0}, {"type": "note_off", "time": 340, "note": 58, "velocity": 108, "channel": 0}, {"type": "note_on", "time": 81, "note": 62, "velocity": 115, "channel": 0}, {"type": "note_off", "time": 450, "note": 62, "velocity": 115, "channel": 0}, {"type": "note_on", "time": 31, "note": 65, "velocity": 106, "channel": 0}, {"type": "note_off", "time": 262, "note": 65, "velocity": 106, "channel": 0}, {"type": "note_on", "time": 121, "note": 69, "velocity": 124, "channel": 0}, {"type": "note_off", "time": 796, "note": 69, "velocity": 124, "channel": 0}, {"type": "note_on", "time": 78, "note": 64, "velocity": 107, "channel": 0}, {"type": "note_off", "time": 380, "note": 64, "velocity": 107, "channel": 0}, {"type": "note_on", "time": 65, "note": 67, "velocity": 108, "channel": 0}, {"type": "note_off", "time": 356, "note": 67, "velocity": 108, "channel": 0}, {"type": "note_on", "time": 57, "note": 65, "velocity": 113, "channel": 0}, {"type": "note_off", "time": 382, "note": 65, "velocity": 113, "channel": 0}, {"type": "note_on", "time": 787, "note": 60, "velocity": 110, "channel": 0}, {"type": "note_off", "time": 275, "note": 60, "velocity": 110, "channel": 0}, {"type": "note_on", "time": 34, "note": 62, "velocity": 104, "channel": 0}, {"type": "note_off", "time": 668, "note": 62, "velocity": 104, "channel": 0}, {"type": "note_on", "time": 124, "note": 57, "velocity": 101, "channel": 0}, {"type": "note_off", "time": 471, "note": 57, "velocity": 101, "channel": 0}, {"type": "note_on", "time": 60, "note": 60, "velocity": 108, "channel": 0}, {"type": "note_off", "time": 327, "note": 60, "velocity": 108, "channel": 0}, {"type": "note_on", "time": 13, "note": 58, "velocity": 101, "channel": 0}, {"type": "note_off", "time": 524, "note": 58, "velocity": 101, "channel": 0}, {"type": "note_on", "time": 833, "note": 65, "velocity": 119, "channel": 0}, {"type": "note_off", "time": 440, "note": 65, "velocity": 119, "channel": 0}, {"type": "note_on", "time": 2, "note": 64, "velocity": 115, "channel": 0}, {"type": "note_off", "time": 380, "note": 64, "velocity": 115, "channel": 0}, {"type": "note_on", "time": 117, "note": 64, "velocity": 122, "channel": 0}, {"type": "note_off", "time": 275, "note": 64, "velocity": 122, "channel": 0}, {"type": "note_on", "time": 13, "note": 62, "velocity": 120, "channel": 0}, {"type": "note_off", "time": 432, "note": 62, "velocity": 120, "channel": 0}, {"type": "note_on", "time": 110, "note": 62, "velocity": 108, "channel": 0}, {"type": "note_off", "time": 345, "note": 62, "velocity": 108, "channel": 0}, {"type": "note_on", "time": 20, "note": 60, "velocity": 116, "channel": 0}, {"type": "note_off", "time": 592, "note": 60, "velocity": 116, "channel": 0}, {"type": "note_on", "time": 909, "note": 65, "velocity": 120, "channel": 0}, {"type": "note_off", "time": 707, "note": 65, "velocity": 120, "channel": 0}, {"type": "note_on", "time": 1223, "note": 55, "velocity": 101, "channel": 0}, {"type": "note_off", "time": 324, "note": 55, "velocity": 101, "channel": 0}, {"type": "note_on", "time": 63, "note": 57, "velocity": 111, "channel": 0}, {"type": "note_off", "time": 361, "note": 57, "velocity": 111, "channel": 0}, {"type": "note_on", "time": 20, "note": 58, "velocity": 108, "channel": 0}, {"type": "note_off", "time": 382, "note": 58, "velocity": 108, "channel": 0}, {"type": "note_on", "time": 15, "note": 62, "velocity": 104, "channel": 0}, {"type": "note_off", "time": 419, "note": 62, "velocity": 104, "channel": 0}, {"type": "note_on", "time": 36, "note": 60, "velocity": 110, "channel": 0}, {"type": "note_off", "time": 508, "note": 60, "velocity": 110, "channel": 0}, {"type": "note_on", "time": 220, "note": 53, "velocity": 103, "channel": 0}, {"type": "note_off", "time": 419, "note": 53, "velocity": 103, "channel": 0}, {"type": "note_on", "time": 131, "note": 58, "velocity": 105, "channel": 0}, {"type": "note_off", "time": 393, "note": 58, "velocity": 105, "channel": 0}, {"type": "note_on", "time": 5, "note": 57, "velocity": 112, "channel": 0}, {"type": "note_off", "time": 670, "note": 57, "velocity": 112, "channel": 0}, {"type": "note_on", "time": 51, "note": 53, "velocity": 101, "channel": 0}, {"type": "note_off", "time": 615, "note": 53, "velocity": 101, "channel": 0}, {"type": "note_on", "time": 9, "note": 51, "velocity": 91, "channel": 0}, {"type": "note_off", "time": 990, "note": 51, "velocity": 91, "channel": 0}, {"type": "note_on", "time": 2309, "note": 58, "velocity": 107, "channel": 0}, {"type": "note_off", "time": 366, "note": 58, "velocity": 107, "channel": 0}, {"type": "note_on", "time": 39, "note": 61, "velocity": 112, "channel": 0}, {"type": "note_off", "time": 429, "note": 61, "velocity": 112, "channel": 0}, {"type": "note_on", "time": 47, "note": 62, "velocity": 108, "channel": 0}, {"type": "note_off", "time": 403, "note": 62, "velocity": 108, "channel": 0}, {"type": "note_on", "time": 52, "note": 63, "velocity": 114, "channel": 0}, {"type": "note_off", "time": 408, "note": 63, "velocity": 114, "channel": 0}, {"type": "note_on", "time": 34, "note": 64, "velocity": 112, "channel": 0}, {"type": "note_off", "time": 235, "note": 64, "velocity": 112, "channel": 0}, {"type": "note_on", "time": 117, "note": 65, "velocity": 113, "channel": 0}, {"type": "note_off", "time": 461, "note": 65, "velocity": 113, "channel": 0}, {"type": "note_on", "time": 20, "note": 62, "velocity": 114, "channel": 0}, {"type": "note_off", "time": 298, "note": 62, "velocity": 114, "channel": 0}, {"type": "note_on", "time": 13, "note": 58, "velocity": 113, "channel": 0}, {"type": "note_off", "time": 427, "note": 58, "velocity": 113, "channel": 0}, {"type": "note_on", "time": 58, "note": 57, "velocity": 117, "channel": 0}, {"type": "note_off", "time": 368, "note": 57, "velocity": 117, "channel": 0}, {"type": "note_on", "time": 137, "note": 56, "velocity": 92, "channel": 0}, {"type": "note_off", "time": 786, "note": 56, "velocity": 92, "channel": 0}, {"type": "note_on", "time": 26, "note": 56, "velocity": 121, "channel": 0}, {"type": "note_off", "time": 566, "note": 56, "velocity": 121, "channel": 0}, {"type": "note_on", "time": 68, "note": 56, "velocity": 88, "channel": 0}, {"type": "note_off", "time": 822, "note": 56, "velocity": 88, "channel": 0}, {"type": "note_on", "time": 89, "note": 56, "velocity": 120, "channel": 0}, {"type": "note_off", "time": 723, "note": 56, "velocity": 120, "channel": 0}, {"type": "note_on", "time": 31, "note": 56, "velocity": 106, "channel": 0}, {"type": "note_off", "time": 432, "note": 56, "velocity": 106, "channel": 0}, {"type": "note_on", "time": 340, "note": 62, "velocity": 110, "channel": 0}, {"type": "note_off", "time": 524, "note": 62, "velocity": 110, "channel": 0}, {"type": "note_on", "time": 0, "note": 65, "velocity": 121, "channel": 0}, {"type": "note_off", "time": 380, "note": 65, "velocity": 121, "channel": 0}, {"type": "note_on", "time": 65, "note": 64, "velocity": 115, "channel": 0}, {"type": "note_off", "time": 694, "note": 64, "velocity": 115, "channel": 0}, {"type": "note_on", "time": 60, "note": 60, "velocity": 111, "channel": 0}, {"type": "note_off", "time": 633, "note": 60, "velocity": 111, "channel": 0}, {"type": "note_on", "time": 14, "note": 60, "velocity": 93, "channel": 0}, {"type": "note_off", "time": 1046, "note": 60, "velocity": 93, "channel": 0}, {"type": "note_on", "time": 4652, "note": 54, "velocity": 98, "channel": 0}, {"type": "note_off", "time": 288, "note": 54, "velocity": 98, "channel": 0}, {"type": "note_on", "time": 26, "note": 55, "velocity": 100, "channel": 0}, {"type": "note_off", "time": 209, "note": 55, "velocity": 100, "channel": 0}, {"type": "note_on", "time": 0, "note": 58, "velocity": 105, "channel": 0}, {"type": "note_off", "time": 262, "note": 58, "velocity": 105, "channel": 0}, {"type": "note_on", "time": 23, "note": 55, "velocity": 97, "channel": 0}, {"type": "note_off", "time": 146, "note": 55, "velocity": 97, "channel": 0}, {"type": "note_on", "time": 36, "note": 58, "velocity": 108, "channel": 0}, {"type": "note_off", "time": 214, "note": 58, "velocity": 108, "channel": 0}, {"type": "note_on", "time": 36, "note": 62, "velocity": 106, "channel": 0}, {"type": "note_off", "time": 335, "note": 62, "velocity": 106, "channel": 0}, {"type": "note_on", "time": 15, "note": 58, "velocity": 105, "channel": 0}, {"type": "note_off", "time": 152, "note": 58, "velocity": 105, "channel": 0}, {"type": "note_on", "time": 15, "note": 62, "velocity": 112, "channel": 0}, {"type": "note_off", "time": 309, "note": 62, "velocity": 112, "channel": 0}, {"type": "note_on", "time": 26, "note": 67, "velocity": 106, "channel": 0}, {"type": "note_off", "time": 293, "note": 67, "velocity": 106, "channel": 0}, {"type": "note_on", "time": 18, "note": 62, "velocity": 94, "channel": 0}, {"type": "note_off", "time": 131, "note": 62, "velocity": 94, "channel": 0}, {"type": "note_on", "time": 107, "note": 65, "velocity": 108, "channel": 0}, {"type": "note_off", "time": 246, "note": 65, "velocity": 108, "channel": 0}, {"type": "note_on", "time": 31, "note": 69, "velocity": 123, "channel": 0}, {"type": "note_off", "time": 324, "note": 69, "velocity": 123, "channel": 0}, {"type": "note_on", "time": 26, "note": 65, "velocity": 98, "channel": 0}, {"type": "note_off", "time": 167, "note": 65, "velocity": 98, "channel": 0}, {"type": "note_on", "time": 15, "note": 69, "velocity": 112, "channel": 0}, {"type": "note_off", "time": 390, "note": 69, "velocity": 112, "channel": 0}, {"type": "note_on", "time": 0, "note": 72, "velocity": 119, "channel": 0}, {"type": "note_off", "time": 563, "note": 72, "velocity": 119, "channel": 0}, {"type": "note_on", "time": 864, "note": 64, "velocity": 110, "channel": 0}, {"type": "note_off", "time": 183, "note": 64, "velocity": 110, "channel": 0}, {"type": "note_on", "time": 52, "note": 65, "velocity": 92, "channel": 0}, {"type": "note_off", "time": 458, "note": 65, "velocity": 92, "channel": 0}, {"type": "note_on", "time": 39, "note": 69, "velocity": 68, "channel": 0}, {"type": "note_off", "time": 235, "note": 69, "velocity": 68, "channel": 0}, {"type": "note_on", "time": 293, "note": 70, "velocity": 122, "channel": 0}, {"type": "note_off", "time": 450, "note": 70, "velocity": 122, "channel": 0}, {"type": "note_on", "time": 2, "note": 69, "velocity": 123, "channel": 0}, {"type": "note_off", "time": 301, "note": 69, "velocity": 123, "channel": 0}, {"type": "note_on", "time": 57, "note": 70, "velocity": 121, "channel": 0}, {"type": "note_off", "time": 414, "note": 70, "velocity": 121, "channel": 0}, {"type": "note_on", "time": 0, "note": 69, "velocity": 121, "channel": 0}, {"type": "note_off", "time": 288, "note": 69, "velocity": 121, "channel": 0}, {"type": "note_on", "time": 52, "note": 65, "velocity": 111, "channel": 0}, {"type": "note_off", "time": 537, "note": 65, "velocity": 111, "channel": 0}, {"type": "note_on", "time": 0, "note": 62, "velocity": 96, "channel": 0}, {"type": "note_off", "time": 209, "note": 62, "velocity": 96, "channel": 0}, {"type": "note_on", "time": 104, "note": 65, "velocity": 112, "channel": 0}, {"type": "note_off", "time": 393, "note": 65, "velocity": 112, "channel": 0}, {"type": "note_on", "time": 104, "note": 65, "velocity": 116, "channel": 0}, {"type": "note_off", "time": 380, "note": 65, "velocity": 116, "channel": 0}, {"type": "note_on", "time": 2039, "note": 60, "velocity": 110, "channel": 0}, {"type": "note_off", "time": 288, "note": 60, "velocity": 110, "channel": 0}, {"type": "note_on", "time": 372, "note": 65, "velocity": 111, "channel": 0}, {"type": "note_off", "time": 235, "note": 65, "velocity": 111, "channel": 0}, {"type": "note_on", "time": 52, "note": 69, "velocity": 103, "channel": 0}, {"type": "note_off", "time": 209, "note": 69, "velocity": 103, "channel": 0}, {"type": "note_on", "time": 209, "note": 70, "velocity": 120, "channel": 0}, {"type": "note_off", "time": 157, "note": 70, "velocity": 120, "channel": 0}, {"type": "note_on", "time": 78, "note": 69, "velocity": 121, "channel": 0}, {"type": "note_off", "time": 131, "note": 69, "velocity": 121, "channel": 0}, {"type": "note_on", "time": 65, "note": 70, "velocity": 121, "channel": 0}, {"type": "note_off", "time": 209, "note": 70, "velocity": 121, "channel": 0}, {"type": "note_on", "time": 131, "note": 69, "velocity": 100, "channel": 0}, {"type": "note_off", "time": 366, "note": 69, "velocity": 100, "channel": 0}, {"type": "note_on", "time": 2613, "note": 60, "velocity": 103, "channel": 0}, {"type": "note_off", "time": 327, "note": 60, "velocity": 103, "channel": 0}, {"type": "note_on", "time": 311, "note": 65, "velocity": 117, "channel": 0}, {"type": "note_off", "time": 209, "note": 65, "velocity": 117, "channel": 0}, {"type": "note_on", "time": 324, "note": 69, "velocity": 125, "channel": 0}, {"type": "note_off", "time": 230, "note": 69, "velocity": 125, "channel": 0}, {"type": "note_on", "time": 228, "note": 70, "velocity": 103, "channel": 0}, {"type": "note_off", "time": 222, "note": 70, "velocity": 103, "channel": 0}, {"type": "note_on", "time": 78, "note": 69, "velocity": 118, "channel": 0}, {"type": "note_off", "time": 183, "note": 69, "velocity": 118, "channel": 0}, {"type": "note_on", "time": 117, "note": 70, "velocity": 108, "channel": 0}, {"type": "note_off", "time": 209, "note": 70, "velocity": 108, "channel": 0}, {"type": "note_on", "time": 65, "note": 69, "velocity": 120, "channel": 0}, {"type": "note_off", "time": 157, "note": 69, "velocity": 120, "channel": 0}, {"type": "note_on", "time": 78, "note": 70, "velocity": 119, "channel": 0}, {"type": "note_off", "time": 183, "note": 70, "velocity": 119, "channel": 0}, {"type": "note_on", "time": 65, "note": 69, "velocity": 113, "channel": 0}, {"type": "note_off", "time": 222, "note": 69, "velocity": 113, "channel": 0}, {"type": "note_on", "time": 39, "note": 70, "velocity": 121, "channel": 0}, {"type": "note_off", "time": 248, "note": 70, "velocity": 121, "channel": 0}, {"type": "note_on", "time": 52, "note": 69, "velocity": 120, "channel": 0}, {"type": "note_off", "time": 196, "note": 69, "velocity": 120, "channel": 0}, {"type": "note_on", "time": 26, "note": 70, "velocity": 118, "channel": 0}, {"type": "note_off", "time": 183, "note": 70, "velocity": 118, "channel": 0}, {"type": "note_on", "time": 13, "note": 69, "velocity": 114, "channel": 0}, {"type": "note_off", "time": 222, "note": 69, "velocity": 114, "channel": 0}, {"type": "note_on", "time": 78, "note": 65, "velocity": 105, "channel": 0}, {"type": "note_off", "time": 380, "note": 65, "velocity": 105, "channel": 0}, {"type": "note_on", "time": 31, "note": 62, "velocity": 90, "channel": 0}, {"type": "note_off", "time": 170, "note": 62, "velocity": 90, "channel": 0}, {"type": "note_on", "time": 20, "note": 65, "velocity": 114, "channel": 0}, {"type": "note_off", "time": 183, "note": 65, "velocity": 114, "channel": 0}, {"type": "note_on", "time": 26, "note": 65, "velocity": 106, "channel": 0}, {"type": "note_off", "time": 288, "note": 65, "velocity": 106, "channel": 0}, {"type": "note_on", "time": 5386, "note": 65, "velocity": 112, "channel": 0}, {"type": "note_off", "time": 196, "note": 65, "velocity": 112, "channel": 0}, {"type": "note_on", "time": 233, "note": 68, "velocity": 114, "channel": 0}, {"type": "note_off", "time": 230, "note": 68, "velocity": 114, "channel": 0}, {"type": "note_on", "time": 36, "note": 70, "velocity": 122, "channel": 0}, {"type": "note_off", "time": 587, "note": 70, "velocity": 122, "channel": 0}, {"type": "note_on", "time": 20, "note": 68, "velocity": 126, "channel": 0}, {"type": "note_off", "time": 267, "note": 68, "velocity": 126, "channel": 0}, {"type": "note_on", "time": 13, "note": 65, "velocity": 107, "channel": 0}, {"type": "note_off", "time": 432, "note": 65, "velocity": 107, "channel": 0}, {"type": "note_on", "time": 146, "note": 62, "velocity": 96, "channel": 0}, {"type": "note_off", "time": 157, "note": 62, "velocity": 96, "channel": 0}, {"type": "note_on", "time": 36, "note": 65, "velocity": 108, "channel": 0}, {"type": "note_off", "time": 655, "note": 65, "velocity": 108, "channel": 0}, {"type": "note_on", "time": 91, "note": 65, "velocity": 108, "channel": 0}, {"type": "note_off", "time": 825, "note": 65, "velocity": 108, "channel": 0}, {"type": "note_on", "time": 78, "note": 65, "velocity": 105, "channel": 0}, {"type": "note_off", "time": 681, "note": 65, "velocity": 105, "channel": 0}, {"type": "note_on", "time": 131, "note": 65, "velocity": 114, "channel": 0}, {"type": "note_off", "time": 393, "note": 65, "velocity": 114, "channel": 0}, {"type": "note_on", "time": 1520, "note": 65, "velocity": 107, "channel": 0}, {"type": "note_off", "time": 327, "note": 65, "velocity": 107, "channel": 0}, {"type": "note_on", "time": 39, "note": 69, "velocity": 115, "channel": 0}, {"type": "note_off", "time": 319, "note": 69, "velocity": 115, "channel": 0}, {"type": "note_on", "time": 89, "note": 70, "velocity": 115, "channel": 0}, {"type": "note_off", "time": 461, "note": 70, "velocity": 115, "channel": 0}, {"type": "note_on", "time": 20, "note": 68, "velocity": 123, "channel": 0}, {"type": "note_off", "time": 361, "note": 68, "velocity": 123, "channel": 0}, {"type": "note_on", "time": 18, "note": 65, "velocity": 116, "channel": 0}, {"type": "note_off", "time": 484, "note": 65, "velocity": 116, "channel": 0}, {"type": "note_on", "time": 0, "note": 62, "velocity": 87, "channel": 0}, {"type": "note_off", "time": 144, "note": 62, "velocity": 87, "channel": 0}, {"type": "note_on", "time": 131, "note": 65, "velocity": 111, "channel": 0}, {"type": "note_off", "time": 563, "note": 65, "velocity": 111, "channel": 0}, {"type": "note_on", "time": 760, "note": 69, "velocity": 105, "channel": 0}, {"type": "note_on", "time": 406, "note": 65, "velocity": 113, "channel": 0}, {"type": "note_off", "time": 0, "note": 69, "velocity": 105, "channel": 0}, {"type": "note_off", "time": 393, "note": 65, "velocity": 113, "channel": 0}, {"type": "note_on", "time": 301, "note": 65, "velocity": 108, "channel": 0}, {"type": "note_off", "time": 406, "note": 65, "velocity": 108, "channel": 0}, {"type": "note_on", "time": 65, "note": 69, "velocity": 117, "channel": 0}, {"type": "note_off", "time": 353, "note": 69, "velocity": 117, "channel": 0}, {"type": "note_on", "time": 39, "note": 65, "velocity": 102, "channel": 0}, {"type": "note_off", "time": 615, "note": 65, "velocity": 102, "channel": 0}, {"type": "note_on", "time": 689, "note": 69, "velocity": 103, "channel": 0}, {"type": "note_off", "time": 450, "note": 69, "velocity": 103, "channel": 0}, {"type": "note_on", "time": 39, "note": 65, "velocity": 115, "channel": 0}, {"type": "note_off", "time": 497, "note": 65, "velocity": 115, "channel": 0}, {"type": "note_on", "time": 726, "note": 69, "velocity": 115, "channel": 0}, {"type": "note_off", "time": 345, "note": 69, "velocity": 115, "channel": 0}, {"type": "note_on", "time": 41, "note": 65, "velocity": 114, "channel": 0}, {"type": "note_off", "time": 432, "note": 65, "velocity": 114, "channel": 0}, {"type": "note_on", "time": 314, "note": 65, "velocity": 97, "channel": 0}, {"type": "note_off", "time": 353, "note": 65, "velocity": 97, "channel": 0}, {"type": "note_on", "time": 235, "note": 69, "velocity": 115, "channel": 0}, {"type": "note_off", "time": 380, "note": 69, "velocity": 115, "channel": 0}, {"type": "note_on", "time": 26, "note": 70, "velocity": 113, "channel": 0}, {"type": "note_off", "time": 471, "note": 70, "velocity": 113, "channel": 0}, {"type": "note_on", "time": 0, "note": 69, "velocity": 109, "channel": 0}, {"type": "note_off", "time": 366, "note": 69, "velocity": 109, "channel": 0}, {"type": "note_on", "time": 13, "note": 65, "velocity": 113, "channel": 0}, {"type": "note_off", "time": 563, "note": 65, "velocity": 113, "channel": 0}, {"type": "note_on", "time": 104, "note": 62, "velocity": 85, "channel": 0}, {"type": "note_off", "time": 91, "note": 62, "velocity": 85, "channel": 0}, {"type": "note_on", "time": 39, "note": 65, "velocity": 102, "channel": 0}, {"type": "note_off", "time": 733, "note": 65, "velocity": 102, "channel": 0}, {"type": "note_on", "time": 65, "note": 63, "velocity": 111, "channel": 0}, {"type": "note_off", "time": 602, "note": 63, "velocity": 111, "channel": 0}, {"type": "note_on", "time": 0, "note": 60, "velocity": 90, "channel": 0}, {"type": "note_off", "time": 157, "note": 60, "velocity": 90, "channel": 0}, {"type": "note_on", "time": 39, "note": 63, "velocity": 106, "channel": 0}, {"type": "note_off", "time": 589, "note": 63, "velocity": 106, "channel": 0}, {"type": "note_on", "time": 13, "note": 65, "velocity": 116, "channel": 0}, {"type": "note_off", "time": 353, "note": 65, "velocity": 116, "channel": 0}, {"type": "note_on", "time": 4198, "note": 69, "velocity": 120, "channel": 0}, {"type": "note_off", "time": 450, "note": 69, "velocity": 120, "channel": 0}, {"type": "note_on", "time": 2, "note": 67, "velocity": 121, "channel": 0}, {"type": "note_off", "time": 314, "note": 67, "velocity": 121, "channel": 0}, {"type": "note_on", "time": 0, "note": 65, "velocity": 108, "channel": 0}, {"type": "note_off", "time": 589, "note": 65, "velocity": 108, "channel": 0}, {"type": "note_on", "time": 57, "note": 64, "velocity": 98, "channel": 0}, {"type": "note_off", "time": 157, "note": 64, "velocity": 98, "channel": 0}, {"type": "note_on", "time": 0, "note": 67, "velocity": 9, "channel": 0}, {"type": "note_off", "time": 613, "note": 67, "velocity": 9, "channel": 0}, {"type": "note_on", "time": 36, "note": 65, "velocity": 115, "channel": 0}, {"type": "note_off", "time": 275, "note": 65, "velocity": 115, "channel": 0}, {"type": "note_on", "time": 222, "note": 64, "velocity": 113, "channel": 0}, {"type": "note_off", "time": 327, "note": 64, "velocity": 113, "channel": 0}, {"type": "note_on", "time": 0, "note": 62, "velocity": 100, "channel": 0}, {"type": "note_off", "time": 380, "note": 62, "velocity": 100, "channel": 0}, {"type": "note_on", "time": 204, "note": 65, "velocity": 115, "channel": 0}, {"type": "note_off", "time": 366, "note": 65, "velocity": 115, "channel": 0}, {"type": "note_on", "time": 20, "note": 62, "velocity": 116, "channel": 0}, {"type": "note_off", "time": 324, "note": 62, "velocity": 116, "channel": 0}, {"type": "note_on", "time": 52, "note": 58, "velocity": 110, "channel": 0}, {"type": "note_off", "time": 380, "note": 58, "velocity": 110, "channel": 0}, {"type": "note_on", "time": 28, "note": 57, "velocity": 112, "channel": 0}, {"type": "note_off", "time": 361, "note": 57, "velocity": 112, "channel": 0}, {"type": "note_on", "time": 55, "note": 56, "velocity": 110, "channel": 0}, {"type": "note_off", "time": 419, "note": 56, "velocity": 110, "channel": 0}, {"type": "note_on", "time": 201, "note": 62, "velocity": 110, "channel": 0}, {"type": "note_off", "time": 141, "note": 62, "velocity": 110, "channel": 0}, {"type": "note_on", "time": 31, "note": 64, "velocity": 105, "channel": 0}, {"type": "note_off", "time": 634, "note": 64, "velocity": 105, "channel": 0}, {"type": "note_on", "time": 62, "note": 60, "velocity": 101, "channel": 0}, {"type": "note_off", "time": 655, "note": 60, "velocity": 101, "channel": 0}, {"type": "note_on", "time": 26, "note": 62, "velocity": 110, "channel": 0}, {"type": "note_off", "time": 398, "note": 62, "velocity": 110, "channel": 0}, {"type": "note_on", "time": 57, "note": 63, "velocity": 107, "channel": 0}, {"type": "note_off", "time": 366, "note": 63, "velocity": 107, "channel": 0}, {"type": "note_on", "time": 36, "note": 65, "velocity": 114, "channel": 0}, {"type": "note_off", "time": 304, "note": 65, "velocity": 114, "channel": 0}, {"type": "note_on", "time": 149, "note": 67, "velocity": 118, "channel": 0}, {"type": "note_off", "time": 340, "note": 67, "velocity": 118, "channel": 0}, {"type": "note_on", "time": 112, "note": 70, "velocity": 121, "channel": 0}, {"type": "note_off", "time": 319, "note": 70, "velocity": 121, "channel": 0}, {"type": "note_on", "time": 13, "note": 69, "velocity": 121, "channel": 0}, {"type": "note_off", "time": 497, "note": 69, "velocity": 121, "channel": 0}, {"type": "note_on", "time": 13, "note": 67, "velocity": 116, "channel": 0}, {"type": "note_off", "time": 419, "note": 67, "velocity": 116, "channel": 0}, {"type": "note_on", "time": 20, "note": 65, "velocity": 103, "channel": 0}, {"type": "note_off", "time": 136, "note": 65, "velocity": 103, "channel": 0}, {"type": "note_on", "time": 31, "note": 67, "velocity": 104, "channel": 0}, {"type": "note_off", "time": 136, "note": 67, "velocity": 104, "channel": 0}, {"type": "note_on", "time": 0, "note": 65, "velocity": 100, "channel": 0}, {"type": "note_off", "time": 136, "note": 65, "velocity": 100, "channel": 0}, {"type": "note_on", "time": 36, "note": 62, "velocity": 104, "channel": 0}, {"type": "note_off", "time": 309, "note": 62, "velocity": 104, "channel": 0}, {"type": "note_on", "time": 83, "note": 63, "velocity": 96, "channel": 0}, {"type": "note_off", "time": 136, "note": 63, "velocity": 96, "channel": 0}, {"type": "note_on", "time": 10, "note": 65, "velocity": 97, "channel": 0}, {"type": "note_off", "time": 125, "note": 65, "velocity": 97, "channel": 0}, {"type": "note_on", "time": 20, "note": 63, "velocity": 104, "channel": 0}, {"type": "note_off", "time": 167, "note": 63, "velocity": 104, "channel": 0}, {"type": "note_on", "time": 26, "note": 60, "velocity": 100, "channel": 0}, {"type": "note_off", "time": 314, "note": 60, "velocity": 100, "channel": 0}, {"type": "note_on", "time": 89, "note": 62, "velocity": 108, "channel": 0}, {"type": "note_off", "time": 136, "note": 62, "velocity": 108, "channel": 0}, {"type": "note_on", "time": 0, "note": 64, "velocity": 102, "channel": 0}, {"type": "note_off", "time": 125, "note": 64, "velocity": 102, "channel": 0}, {"type": "note_on", "time": 20, "note": 61, "velocity": 98, "channel": 0}, {"type": "note_off", "time": 167, "note": 61, "velocity": 98, "channel": 0}, {"type": "note_on", "time": 60, "note": 58, "velocity": 105, "channel": 0}, {"type": "note_off", "time": 196, "note": 58, "velocity": 105, "channel": 0}, {"type": "note_on", "time": 26, "note": 60, "velocity": 105, "channel": 0}, {"type": "note_off", "time": 115, "note": 60, "velocity": 105, "channel": 0}, {"type": "note_on", "time": 20, "note": 62, "velocity": 106, "channel": 0}, {"type": "note_off", "time": 157, "note": 62, "velocity": 106, "channel": 0}, {"type": "note_on", "time": 10, "note": 60, "velocity": 112, "channel": 0}, {"type": "note_off", "time": 104, "note": 60, "velocity": 112, "channel": 0}, {"type": "note_on", "time": 23, "note": 57, "velocity": 102, "channel": 0}, {"type": "note_off", "time": 406, "note": 57, "velocity": 102, "channel": 0}, {"type": "note_on", "time": 78, "note": 58, "velocity": 115, "channel": 0}, {"type": "note_off", "time": 458, "note": 58, "velocity": 115, "channel": 0}, {"type": "note_on", "time": 1821, "note": 52, "velocity": 101, "channel": 0}, {"type": "note_off", "time": 293, "note": 52, "velocity": 101, "channel": 0}, {"type": "note_on", "time": 83, "note": 53, "velocity": 99, "channel": 0}, {"type": "note_off", "time": 314, "note": 53, "velocity": 99, "channel": 0}, {"type": "note_on", "time": 172, "note": 55, "velocity": 114, "channel": 0}, {"type": "note_off", "time": 293, "note": 55, "velocity": 114, "channel": 0}, {"type": "note_on", "time": 20, "note": 56, "velocity": 110, "channel": 0}, {"type": "note_off", "time": 429, "note": 56, "velocity": 110, "channel": 0}, {"type": "note_on", "time": 104, "note": 59, "velocity": 116, "channel": 0}, {"type": "note_off", "time": 172, "note": 59, "velocity": 116, "channel": 0}, {"type": "note_on", "time": 73, "note": 62, "velocity": 114, "channel": 0}, {"type": "note_on", "time": 566, "note": 65, "velocity": 118, "channel": 0}, {"type": "note_off", "time": 0, "note": 62, "velocity": 114, "channel": 0}, {"type": "note_off", "time": 387, "note": 65, "velocity": 118, "channel": 0}, {"type": "note_on", "time": 125, "note": 64, "velocity": 114, "channel": 0}, {"type": "note_off", "time": 660, "note": 64, "velocity": 114, "channel": 0}, {"type": "note_on", "time": 115, "note": 62, "velocity": 90, "channel": 0}, {"type": "note_on", "time": 482, "note": 65, "velocity": 110, "channel": 0}, {"type": "note_off", "time": 0, "note": 62, "velocity": 90, "channel": 0}, {"type": "note_off", "time": 387, "note": 65, "velocity": 110, "channel": 0}, {"type": "note_on", "time": 10, "note": 64, "velocity": 112, "channel": 0}, {"type": "note_off", "time": 885, "note": 64, "velocity": 112, "channel": 0}, {"type": "note_on", "time": 83, "note": 62, "velocity": 89, "channel": 0}, {"type": "note_off", "time": 241, "note": 62, "velocity": 89, "channel": 0}, {"type": "note_on", "time": 57, "note": 65, "velocity": 106, "channel": 0}, {"type": "note_off", "time": 387, "note": 65, "velocity": 106, "channel": 0}, {"type": "note_on", "time": 0, "note": 64, "velocity": 108, "channel": 0}, {"type": "note_off", "time": 398, "note": 64, "velocity": 108, "channel": 0}, {"type": "note_on", "time": 78, "note": 62, "velocity": 105, "channel": 0}, {"type": "note_off", "time": 497, "note": 62, "velocity": 105, "channel": 0}, {"type": "note_on", "time": 649, "note": 62, "velocity": 114, "channel": 0}, {"type": "note_off", "time": 403, "note": 62, "velocity": 114, "channel": 0}, {"type": "note_on", "time": 3045, "note": 69, "velocity": 112, "channel": 0}, {"type": "note_off", "time": 178, "note": 69, "velocity": 112, "channel": 0}, {"type": "note_on", "time": 57, "note": 67, "velocity": 106, "channel": 0}, {"type": "note_off", "time": 220, "note": 67, "velocity": 106, "channel": 0}, {"type": "note_on", "time": 10, "note": 65, "velocity": 106, "channel": 0}, {"type": "note_off", "time": 193, "note": 65, "velocity": 106, "channel": 0}, {"type": "note_on", "time": 235, "note": 67, "velocity": 116, "channel": 0}, {"type": "note_off", "time": 183, "note": 67, "velocity": 116, "channel": 0}, {"type": "note_on", "time": 36, "note": 65, "velocity": 110, "channel": 0}, {"type": "note_off", "time": 193, "note": 65, "velocity": 110, "channel": 0}, {"type": "note_on", "time": 5, "note": 64, "velocity": 83, "channel": 0}, {"type": "note_off", "time": 172, "note": 64, "velocity": 83, "channel": 0}, {"type": "note_on", "time": 120, "note": 65, "velocity": 104, "channel": 0}, {"type": "note_off", "time": 199, "note": 65, "velocity": 104, "channel": 0}, {"type": "note_on", "time": 47, "note": 64, "velocity": 103, "channel": 0}, {"type": "note_off", "time": 157, "note": 64, "velocity": 103, "channel": 0}, {"type": "note_on", "time": 10, "note": 62, "velocity": 98, "channel": 0}, {"type": "note_off", "time": 272, "note": 62, "velocity": 98, "channel": 0}, {"type": "note_on", "time": 188, "note": 64, "velocity": 111, "channel": 0}, {"type": "note_off", "time": 178, "note": 64, "velocity": 111, "channel": 0}, {"type": "note_on", "time": 83, "note": 65, "velocity": 100, "channel": 0}, {"type": "note_off", "time": 157, "note": 65, "velocity": 100, "channel": 0}, {"type": "note_on", "time": 10, "note": 64, "velocity": 107, "channel": 0}, {"type": "note_off", "time": 157, "note": 64, "velocity": 107, "channel": 0}, {"type": "note_on", "time": 41, "note": 62, "velocity": 114, "channel": 0}, {"type": "note_off", "time": 167, "note": 62, "velocity": 114, "channel": 0}, {"type": "note_on", "time": 0, "note": 60, "velocity": 103, "channel": 0}, {"type": "note_off", "time": 167, "note": 60, "velocity": 103, "channel": 0}, {"type": "note_on", "time": 31, "note": 61, "velocity": 97, "channel": 0}, {"type": "note_off", "time": 136, "note": 61, "velocity": 97, "channel": 0}, {"type": "note_on", "time": 31, "note": 62, "velocity": 95, "channel": 0}, {"type": "note_off", "time": 157, "note": 62, "velocity": 95, "channel": 0}, {"type": "note_on", "time": 31, "note": 58, "velocity": 92, "channel": 0}, {"type": "note_off", "time": 157, "note": 58, "velocity": 92, "channel": 0}, {"type": "note_on", "time": 31, "note": 57, "velocity": 106, "channel": 0}, {"type": "note_off", "time": 241, "note": 57, "velocity": 106, "channel": 0}, {"type": "note_on", "time": 304, "note": 60, "velocity": 104, "channel": 0}, {"type": "note_off", "time": 152, "note": 60, "velocity": 104, "channel": 0}, {"type": "note_on", "time": 15, "note": 60, "velocity": 99, "channel": 0}, {"type": "note_off", "time": 167, "note": 60, "velocity": 99, "channel": 0}, {"type": "note_on", "time": 52, "note": 58, "velocity": 108, "channel": 0}, {"type": "note_off", "time": 214, "note": 58, "velocity": 108, "channel": 0}, {"type": "note_on", "time": 31, "note": 55, "velocity": 99, "channel": 0}, {"type": "note_off", "time": 199, "note": 55, "velocity": 99, "channel": 0}, {"type": "note_on", "time": 31, "note": 56, "velocity": 99, "channel": 0}, {"type": "note_off", "time": 199, "note": 56, "velocity": 99, "channel": 0}, {"type": "note_on", "time": 26, "note": 53, "velocity": 91, "channel": 0}, {"type": "note_off", "time": 162, "note": 53, "velocity": 91, "channel": 0}, {"type": "note_on", "time": 31, "note": 52, "velocity": 107, "channel": 0}, {"type": "note_off", "time": 178, "note": 52, "velocity": 107, "channel": 0}, {"type": "note_on", "time": 136, "note": 62, "velocity": 121, "channel": 0}, {"type": "note_off", "time": 503, "note": 62, "velocity": 121, "channel": 0}, {"type": "note_on", "time": 20, "note": 60, "velocity": 113, "channel": 0}, {"type": "note_off", "time": 901, "note": 60, "velocity": 113, "channel": 0}, {"type": "note_on", "time": 3160, "note": 65, "velocity": 114, "channel": 0}, {"type": "note_off", "time": 251, "note": 65, "velocity": 114, "channel": 0}, {"type": "note_on", "time": 41, "note": 68, "velocity": 120, "channel": 0}, {"type": "note_off", "time": 492, "note": 68, "velocity": 120, "channel": 0}, {"type": "note_on", "time": 57, "note": 70, "velocity": 118, "channel": 0}, {"type": "note_off", "time": 288, "note": 70, "velocity": 118, "channel": 0}, {"type": "note_on", "time": 73, "note": 71, "velocity": 122, "channel": 0}, {"type": "note_off", "time": 461, "note": 71, "velocity": 122, "channel": 0}, {"type": "note_on", "time": 52, "note": 71, "velocity": 125, "channel": 0}, {"type": "note_off", "time": 356, "note": 71, "velocity": 125, "channel": 0}, {"type": "note_on", "time": 78, "note": 70, "velocity": 116, "channel": 0}, {"type": "note_off", "time": 408, "note": 70, "velocity": 116, "channel": 0}, {"type": "note_on", "time": 68, "note": 70, "velocity": 119, "channel": 0}, {"type": "note_off", "time": 314, "note": 70, "velocity": 119, "channel": 0}, {"type": "note_on", "time": 104, "note": 68, "velocity": 118, "channel": 0}, {"type": "note_off", "time": 414, "note": 68, "velocity": 118, "channel": 0}, {"type": "note_on", "time": 57, "note": 68, "velocity": 116, "channel": 0}, {"type": "note_off", "time": 225, "note": 68, "velocity": 116, "channel": 0}, {"type": "note_on", "time": 172, "note": 65, "velocity": 108, "channel": 0}, {"type": "note_off", "time": 335, "note": 65, "velocity": 108, "channel": 0}, {"type": "note_on", "time": 62, "note": 65, "velocity": 103, "channel": 0}, {"type": "note_off", "time": 304, "note": 65, "velocity": 103, "channel": 0}, {"type": "note_on", "time": 162, "note": 63, "velocity": 107, "channel": 0}, {"type": "note_off", "time": 330, "note": 63, "velocity": 107, "channel": 0}, {"type": "note_on", "time": 20, "note": 60, "velocity": 100, "channel": 0}, {"type": "note_off", "time": 199, "note": 60, "velocity": 100, "channel": 0}, {"type": "note_on", "time": 78, "note": 58, "velocity": 101, "channel": 0}, {"type": "note_off", "time": 649, "note": 58, "velocity": 101, "channel": 0}, {"type": "note_on", "time": 15, "note": 55, "velocity": 80, "channel": 0}, {"type": "note_off", "time": 104, "note": 55, "velocity": 80, "channel": 0}, {"type": "note_on", "time": 20, "note": 58, "velocity": 100, "channel": 0}, {"type": "note_off", "time": 2306, "note": 58, "velocity": 100, "channel": 0}, {"type": "note_on", "time": 387, "note": 58, "velocity": 107, "channel": 0}, {"type": "note_off", "time": 356, "note": 58, "velocity": 107, "channel": 0}, {"type": "note_on", "time": 94, "note": 58, "velocity": 121, "channel": 0}, {"type": "note_off", "time": 366, "note": 58, "velocity": 121, "channel": 0}, {"type": "note_on", "time": 1530, "note": 58, "velocity": 120, "channel": 0}, {"type": "note_off", "time": 361, "note": 58, "velocity": 120, "channel": 0}, {"type": "note_on", "time": 3819, "note": 57, "velocity": 73, "channel": 0}, {"type": "note_off", "time": 147, "note": 57, "velocity": 73, "channel": 0}, {"type": "note_on", "time": 74, "note": 58, "velocity": 104, "channel": 0}, {"type": "note_off", "time": 387, "note": 58, "velocity": 104, "channel": 0}, {"type": "note_on", "time": 83, "note": 59, "velocity": 114, "channel": 0}, {"type": "note_off", "time": 356, "note": 59, "velocity": 114, "channel": 0}, {"type": "note_on", "time": 718, "note": 60, "velocity": 109, "channel": 0}, {"type": "note_off", "time": 670, "note": 60, "velocity": 109, "channel": 0}, {"type": "note_on", "time": 3517, "note": 65, "velocity": 111, "channel": 0}, {"type": "note_off", "time": 398, "note": 65, "velocity": 111, "channel": 0}, {"type": "note_on", "time": 20, "note": 64, "velocity": 105, "channel": 0}, {"type": "note_off", "time": 298, "note": 64, "velocity": 105, "channel": 0}, {"type": "note_on", "time": 120, "note": 62, "velocity": 115, "channel": 0}, {"type": "note_off", "time": 272, "note": 62, "velocity": 115, "channel": 0}, {"type": "note_on", "time": 73, "note": 60, "velocity": 106, "channel": 0}, {"type": "note_off", "time": 461, "note": 60, "velocity": 106, "channel": 0}, {"type": "note_on", "time": 47, "note": 57, "velocity": 112, "channel": 0}, {"type": "note_off", "time": 309, "note": 57, "velocity": 112, "channel": 0}, {"type": "note_on", "time": 167, "note": 55, "velocity": 107, "channel": 0}, {"type": "note_off", "time": 435, "note": 55, "velocity": 107, "channel": 0}, {"type": "note_on", "time": 99, "note": 55, "velocity": 101, "channel": 0}, {"type": "note_off", "time": 1043, "note": 55, "velocity": 101, "channel": 0}, {"type": "note_on", "time": 78, "note": 55, "velocity": 102, "channel": 0}, {"type": "note_off", "time": 529, "note": 55, "velocity": 102, "channel": 0}, {"type": "note_on", "time": 4932, "note": 74, "velocity": 124, "channel": 0}, {"type": "note_off", "time": 419, "note": 74, "velocity": 124, "channel": 0}, {"type": "note_on", "time": 41, "note": 72, "velocity": 118, "channel": 0}, {"type": "note_off", "time": 545, "note": 72, "velocity": 118, "channel": 0}, {"type": "note_on", "time": 0, "note": 70, "velocity": 115, "channel": 0}, {"type": "note_off", "time": 492, "note": 70, "velocity": 115, "channel": 0}, {"type": "note_on", "time": 629, "note": 65, "velocity": 109, "channel": 0}, {"type": "note_off", "time": 251, "note": 65, "velocity": 109, "channel": 0}, {"type": "note_on", "time": 115, "note": 69, "velocity": 116, "channel": 0}, {"type": "note_off", "time": 345, "note": 69, "velocity": 116, "channel": 0}, {"type": "note_on", "time": 31, "note": 67, "velocity": 99, "channel": 0}, {"type": "note_off", "time": 157, "note": 67, "velocity": 99, "channel": 0}, {"type": "note_on", "time": 83, "note": 69, "velocity": 107, "channel": 0}, {"type": "note_off", "time": 157, "note": 69, "velocity": 107, "channel": 0}, {"type": "note_on", "time": 41, "note": 67, "velocity": 107, "channel": 0}, {"type": "note_off", "time": 157, "note": 67, "velocity": 107, "channel": 0}, {"type": "note_on", "time": 0, "note": 65, "velocity": 105, "channel": 0}, {"type": "note_off", "time": 230, "note": 65, "velocity": 105, "channel": 0}, {"type": "note_on", "time": 230, "note": 64, "velocity": 104, "channel": 0}, {"type": "note_off", "time": 324, "note": 64, "velocity": 104, "channel": 0}, {"type": "note_on", "time": 20, "note": 62, "velocity": 105, "channel": 0}, {"type": "note_off", "time": 314, "note": 62, "velocity": 105, "channel": 0}, {"type": "note_on", "time": 104, "note": 60, "velocity": 99, "channel": 0}, {"type": "note_off", "time": 429, "note": 60, "velocity": 99, "channel": 0}, {"type": "note_on", "time": 20, "note": 58, "velocity": 100, "channel": 0}, {"type": "note_off", "time": 283, "note": 58, "velocity": 100, "channel": 0}, {"type": "note_on", "time": 471, "note": 57, "velocity": 102, "channel": 0}, {"type": "note_off", "time": 241, "note": 57, "velocity": 102, "channel": 0}, {"type": "note_on", "time": 41, "note": 57, "velocity": 103, "channel": 0}, {"type": "note_off", "time": 477, "note": 57, "velocity": 103, "channel": 0}, {"type": "note_on", "time": 31, "note": 60, "velocity": 111, "channel": 0}, {"type": "note_off", "time": 272, "note": 60, "velocity": 111, "channel": 0}, {"type": "note_on", "time": 57, "note": 62, "velocity": 108, "channel": 0}, {"type": "note_off", "time": 608, "note": 62, "velocity": 108, "channel": 0}, {"type": "note_on", "time": 209, "note": 65, "velocity": 112, "channel": 0}, {"type": "note_off", "time": 712, "note": 65, "velocity": 112, "channel": 0}, {"type": "note_on", "time": 1326, "note": 64, "velocity": 105, "channel": 0}, {"type": "note_off", "time": 366, "note": 64, "velocity": 105, "channel": 0}, {"type": "note_on", "time": 57, "note": 64, "velocity": 100, "channel": 0}, {"type": "note_off", "time": 330, "note": 64, "velocity": 100, "channel": 0}, {"type": "note_on", "time": 120, "note": 62, "velocity": 105, "channel": 0}, {"type": "note_off", "time": 340, "note": 62, "velocity": 105, "channel": 0}, {"type": "note_on", "time": 62, "note": 62, "velocity": 102, "channel": 0}, {"type": "note_off", "time": 351, "note": 62, "velocity": 102, "channel": 0}, {"type": "note_on", "time": 68, "note": 60, "velocity": 105, "channel": 0}, {"type": "note_off", "time": 361, "note": 60, "velocity": 105, "channel": 0}, {"type": "note_on", "time": 20, "note": 60, "velocity": 102, "channel": 0}, {"type": "note_off", "time": 262, "note": 60, "velocity": 102, "channel": 0}, {"type": "note_on", "time": 0, "note": 57, "velocity": 98, "channel": 0}, {"type": "note_off", "time": 545, "note": 57, "velocity": 98, "channel": 0}, {"type": "note_on", "time": 20, "note": 55, "velocity": 82, "channel": 0}, {"type": "note_off", "time": 1583, "note": 55, "velocity": 82, "channel": 0}, {"type": "end_of_track", "time": 0}]]}