{"ticks_per_beat": 192, "tracks": [[{"type": "track_name", "name": "Melody", "time": 0}, {"type": "set_tempo", "tempo": 214285, "time": 0}, {"type": "key_signature", "key": "F", "time": 0}, {"type": "time_signature", "numerator": 4, "denominator": 4, "clocks_per_click": 24, "notated_32nd_notes_per_beat": 8, "time": 0}, {"type": "note_on", "time": 5152, "note": 65, "velocity": 99, "channel": 0}, {"type": "note_off", "time": 47, "note": 65, "velocity": 99, "channel": 0}, {"type": "note_on", "time": 21, "note": 65, "velocity": 99, "channel": 0}, {"type": "note_off", "time": 54, "note": 65, "velocity": 99, "channel": 0}, {"type": "note_on", "time": 142, "note": 65, "velocity": 104, "channel": 0}, {"type": "note_off", "time": 266, "note": 65, "velocity": 104, "channel": 0}, {"type": "note_on", "time": 29, "note": 65, "velocity": 106, "channel": 0}, {"type": "note_off", "time": 261, "note": 65, "velocity": 106, "channel": 0}, {"type": "note_on", "time": 31, "note": 62, "velocity": 100, "channel": 0}, {"type": "note_off", "time": 87, "note": 62, "velocity": 100, "channel": 0}, {"type": "note_on", "time": 21, "note": 65, "velocity": 90, "channel": 0}, {"type": "note_off", "time": 62, "note": 65, "velocity": 90, "channel": 0}, {"type": "note_on", "time": 12, "note": 67, "velocity": 114, "channel": 0}, {"type": "note_off", "time": 104, "note": 67, "velocity": 114, "channel": 0}, {"type": "note_on", "time": 23, "note": 64, "velocity": 99, "channel": 0}, {"type": "note_off", "time": 106, "note": 64, "velocity": 99, "channel": 0}, {"type": "note_on", "time": 24, "note": 62, "velocity": 87, "channel": 0}, {"type": "note_off", "time": 93, "note": 62, "velocity": 87, "channel": 0}, {"type": "note_on", "time": 93, "note": 65, "velocity": 107, "channel": 0}, {"type": "note_off", "time": 356, "note": 65, "velocity": 107, "channel": 0}, {"type": "note_on", "time": 48, "note": 65, "velocity": 100, "channel": 0}, {"type": "note_off", "time": 353, "note": 65, "velocity": 100, "channel": 0}, {"type": "note_on", "time": 154, "note": 68, "velocity": 114, "channel": 0}, {"type": "note_off", "time": 93, "note": 68, "velocity": 114, "channel": 0}, {"type": "note_on", "time": 10, "note": 69, "velocity": 112, "channel": 0}, {"type": "note_off", "time": 177, "note": 69, "velocity": 112, "channel": 0}, {"type": "note_on", "time": 14, "note": 60, "velocity": 92, "channel": 0}, {"type": "note_off", "time": 129, "note": 60, "velocity": 92, "channel": 0}, {"type": "note_on", "time": 58, "note": 62, "velocity": 98, "channel": 0}, {"type": "note_off", "time": 91, "note": 62, "velocity": 98, "channel": 0}, {"type": "note_on", "time": 159, "note": 65, "velocity": 108, "channel": 0}, {"type": "note_off", "time": 181, "note": 65, "velocity": 108, "channel": 0}, {"type": "note_on", "time": 126, "note": 60, "velocity": 94, "channel": 0}, {"type": "note_off", "time": 327, "note": 60, "velocity": 94, "channel": 0}, {"type": "note_on", "time": 522, "note": 62, "velocity": 103, "channel": 0}, {"type": "note_off", "time": 113, "note": 62, "velocity": 103, "channel": 0}, {"type": "note_on", "time": 76, "note": 57, "velocity": 96, "channel": 0}, {"type": "note_off", "time": 78, "note": 57, "velocity": 96, "channel": 0}, {"type": "note_on", "time": 31, "note": 60, "velocity": 92, "channel": 0}, {"type": "note_off", "time": 65, "note": 60, "velocity": 92, "channel": 0}, {"type": "note_on", "time": 32, "note": 58, "velocity": 97, "channel": 0}, {"type": "note_off", "time": 256, "note": 58, "velocity": 97, "channel": 0}, {"type": "note_on", "time": 85, "note": 60, "velocity": 94, "channel": 0}, {"type": "note_off", "time": 60, "note": 60, "velocity": 94, "channel": 0}, {"type": "note_on", "time": 16, "note": 61, "velocity": 100, "channel": 0}, {"type": "note_off", "time": 146, "note": 61, "velocity": 100, "channel": 0}, {"type": "note_on", "time": 12, "note": 62, "velocity": 107, "channel": 0}, {"type": "note_off", "time": 102, "note": 62, "velocity": 107, "channel": 0}, {"type": "note_on", "time": 124, "note": 69, "velocity": 112, "channel": 0}, {"type": "note_off", "time": 246, "note": 69, "velocity": 112, "channel": 0}, {"type": "note_on", "time": 70, "note": 64, "velocity": 98, "channel": 0}, {"type": "note_off", "time": 361, "note": 64, "velocity": 98, "channel": 0}, {"type": "note_on", "time": 287, "note": 67, "velocity": 108, "channel": 0}, {"type": "note_off", "time": 71, "note": 67, "velocity": 108, "channel": 0}, {"type": "note_on", "time": 18, "note": 64, "velocity": 103, "channel": 0}, {"type": "note_off", "time": 111, "note": 64, "velocity": 103, "channel": 0}, {"type": "note_on", "time": 5, "note": 65, "velocity": 107, "channel": 0}, {"type": "note_off", "time": 91, "note": 65, "velocity": 107, "channel": 0}, {"type": "note_on", "time": 120, "note": 62, "velocity": 106, "channel": 0}, {"type": "note_off", "time": 53, "note": 62, "velocity": 106, "channel": 0}, {"type": "note_on", "time": 14, "note": 64, "velocity": 103, "channel": 0}, {"type": "note_off", "time": 122, "note": 64, "velocity": 103, "channel": 0}, {"type": "note_on", "time": 20, "note": 60, "velocity": 101, "channel": 0}, {"type": "note_off", "time": 67, "note": 60, "velocity": 101, "channel": 0}, {"type": "note_on", "time": 89, "note": 62, "velocity": 103, "channel": 0}, {"type": "note_off", "time": 102, "note": 62, "velocity": 103, "channel": 0}, {"type": "note_on", "time": 73, "note": 58, "velocity": 93, "channel": 0}, {"type": "note_off", "time": 80, "note": 58, "velocity": 93, "channel": 0}, {"type": "note_on", "time": 23, "note": 60, "velocity": 101, "channel": 0}, {"type": "note_off", "time": 102, "note": 60, "velocity": 101, "channel": 0}, {"type": "note_on", "time": 65, "note": 56, "velocity": 100, "channel": 0}, {"type": "note_off", "time": 58, "note": 56, "velocity": 100, "channel": 0}, {"type": "note_on", "time": 25, "note": 58, "velocity": 101, "channel": 0}, {"type": "note_off", "time": 87, "note": 58, "velocity": 101, "channel": 0}, {"type": "note_on", "time": 131, "note": 56, "velocity": 103, "channel": 0}, {"type": "note_off", "time": 56, "note": 56, "velocity": 103, "channel": 0}, {"type": "note_on", "time": 29, "note": 57, "velocity": 100, "channel": 0}, {"type": "note_off", "time": 151, "note": 57, "velocity": 100, "channel": 0}, {"type": "note_on", "time": 62, "note": 53, "velocity": 88, "channel": 0}, {"type": "note_off", "time": 58, "note": 53, "velocity": 88, "channel": 0}, {"type": "note_on", "time": 23, "note": 55, "velocity": 100, "channel": 0}, {"type": "note_off", "time": 113, "note": 55, "velocity": 100, "channel": 0}, {"type": "note_on", "time": 120, "note": 52, "velocity": 92, "channel": 0}, {"type": "note_off", "time": 45, "note": 52, "velocity": 92, "channel": 0}, {"type": "note_on", "time": 30, "note": 53, "velocity": 95, "channel": 0}, {"type": "note_off", "time": 146, "note": 53, "velocity": 95, "channel": 0}, {"type": "note_on", "time": 12, "note": 55, "velocity": 98, "channel": 0}, {"type": "note_off", "time": 104, "note": 55, "velocity": 98, "channel": 0}, {"type": "note_on", "time": 19, "note": 57, "velocity": 95, "channel": 0}, {"type": "note_off", "time": 85, "note": 57, "velocity": 95, "channel": 0}, {"type": "note_on", "time": 96, "note": 57, "velocity": 95, "channel": 0}, {"type": "note_off", "time": 43, "note": 57, "velocity": 95, "channel": 0}, {"type": "note_on", "time": 44, "note": 60, "velocity": 97, "channel": 0}, {"type": "note_off", "time": 138, "note": 60, "velocity": 97, "channel": 0}, {"type": "note_on", "time": 915, "note": 66, "velocity": 107, "channel": 0}, {"type": "note_off", "time": 69, "note": 66, "velocity": 107, "channel": 0}, {"type": "note_on", "time": 15, "note": 67, "velocity": 102, "channel": 0}, {"type": "note_off", "time": 63, "note": 67, "velocity": 102, "channel": 0}, {"type": "note_on", "time": 38, "note": 64, "velocity": 103, "channel": 0}, {"type": "note_off", "time": 124, "note": 64, "velocity": 103, "channel": 0}, {"type": "note_on", "time": 82, "note": 64, "velocity": 102, "channel": 0}, {"type": "note_off", "time": 80, "note": 64, "velocity": 102, "channel": 0}, {"type": "note_on", "time": 0, "note": 65, "velocity": 103, "channel": 0}, {"type": "note_off", "time": 87, "note": 65, "velocity": 103, "channel": 0}, {"type": "note_on", "time": 20, "note": 62, "velocity": 110, "channel": 0}, {"type": "note_off", "time": 100, "note": 62, "velocity": 110, "channel": 0}, {"type": "note_on", "time": 29, "note": 60, "velocity": 85, "channel": 0}, {"type": "note_off", "time": 51, "note": 60, "velocity": 85, "channel": 0}, {"type": "note_on", "time": 32, "note": 64, "velocity": 103, "channel": 0}, {"type": "note_off", "time": 85, "note": 64, "velocity": 103, "channel": 0}, {"type": "note_on", "time": 23, "note": 64, "velocity": 107, "channel": 0}, {"type": "note_off", "time": 47, "note": 64, "velocity": 107, "channel": 0}, {"type": "note_on", "time": 31, "note": 60, "velocity": 99, "channel": 0}, {"type": "note_off", "time": 84, "note": 60, "velocity": 99, "channel": 0}, {"type": "note_on", "time": 43, "note": 57, "velocity": 88, "channel": 0}, {"type": "note_off", "time": 55, "note": 57, "velocity": 88, "channel": 0}, {"type": "note_on", "time": 36, "note": 61, "velocity": 111, "channel": 0}, {"type": "note_off", "time": 37, "note": 61, "velocity": 111, "channel": 0}, {"type": "note_on", "time": 11, "note": 62, "velocity": 106, "channel": 0}, {"type": "note_off", "time": 101, "note": 62, "velocity": 106, "channel": 0}, {"type": "note_on", "time": 20, "note": 58, "velocity": 93, "channel": 0}, {"type": "note_off", "time": 111, "note": 58, "velocity": 93, "channel": 0}, {"type": "note_on", "time": 109, "note": 60, "velocity": 99, "channel": 0}, {"type": "note_off", "time": 160, "note": 60, "velocity": 99, "channel": 0}, {"type": "note_on", "time": 21, "note": 60, "velocity": 95, "channel": 0}, {"type": "note_off", "time": 146, "note": 60, "velocity": 95, "channel": 0}, {"type": "note_on", "time": 45, "note": 60, "velocity": 99, "channel": 0}, {"type": "note_off", "time": 266, "note": 60, "velocity": 99, "channel": 0}, {"type": "note_on", "time": 43, "note": 58, "velocity": 90, "channel": 0}, {"type": "note_off", "time": 64, "note": 58, "velocity": 90, "channel": 0}, {"type": "note_on", "time": 23, "note": 57, "velocity": 84, "channel": 0}, {"type": "note_off", "time": 104, "note": 57, "velocity": 84, "channel": 0}, {"type": "note_on", "time": 5, "note": 58, "velocity": 84, "channel": 0}, {"type": "note_off", "time": 42, "note": 58, "velocity": 84, "channel": 0}, {"type": "note_on", "time": 15, "note": 62, "velocity": 106, "channel": 0}, {"type": "note_off", "time": 104, "note": 62, "velocity": 106, "channel": 0}, {"type": "note_on", "time": 20, "note": 65, "velocity": 101, "channel": 0}, {"type": "note_off", "time": 422, "note": 65, "velocity": 101, "channel": 0}, {"type": "note_on", "time": 618, "note": 65, "velocity": 104, "channel": 0}, {"type": "note_off", "time": 65, "note": 65, "velocity": 104, "channel": 0}, {"type": "note_on", "time": 117, "note": 66, "velocity": 106, "channel": 0}, {"type": "note_off", "time": 69, "note": 66, "velocity": 106, "channel": 0}, {"type": "note_on", "time": 27, "note": 67, "velocity": 108, "channel": 0}, {"type": "note_off", "time": 71, "note": 67, "velocity": 108, "channel": 0}, {"type": "note_on", "time": 29, "note": 67, "velocity": 100, "channel": 0}, {"type": "note_off", "time": 142, "note": 67, "velocity": 100, "channel": 0}, {"type": "note_on", "time": 38, "note": 62, "velocity": 104, "channel": 0}, {"type": "note_off", "time": 84, "note": 62, "velocity": 104, "channel": 0}, {"type": "note_on", "time": 25, "note": 65, "velocity": 109, "channel": 0}, {"type": "note_off", "time": 107, "note": 65, "velocity": 109, "channel": 0}, {"type": "note_on", "time": 27, "note": 65, "velocity": 111, "channel": 0}, {"type": "note_off", "time": 78, "note": 65, "velocity": 111, "channel": 0}, {"type": "note_on", "time": 113, "note": 60, "velocity": 101, "channel": 0}, {"type": "note_off", "time": 54, "note": 60, "velocity": 101, "channel": 0}, {"type": "note_on", "time": 29, "note": 63, "velocity": 105, "channel": 0}, {"type": "note_off", "time": 100, "note": 63, "velocity": 105, "channel": 0}, {"type": "note_on", "time": 32, "note": 63, "velocity": 110, "channel": 0}, {"type": "note_off", "time": 69, "note": 63, "velocity": 110, "channel": 0}, {"type": "note_on", "time": 82, "note": 60, "velocity": 91, "channel": 0}, {"type": "note_off", "time": 53, "note": 60, "velocity": 91, "channel": 0}, {"type": "note_on", "time": 39, "note": 62, "velocity": 107, "channel": 0}, {"type": "note_off", "time": 111, "note": 62, "velocity": 107, "channel": 0}, {"type": "note_on", "time": 21, "note": 62, "velocity": 108, "channel": 0}, {"type": "note_off", "time": 89, "note": 62, "velocity": 108, "channel": 0}, {"type": "note_on", "time": 53, "note": 57, "velocity": 99, "channel": 0}, {"type": "note_off", "time": 51, "note": 57, "velocity": 99, "channel": 0}, {"type": "note_on", "time": 29, "note": 60, "velocity": 102, "channel": 0}, {"type": "note_off", "time": 87, "note": 60, "velocity": 102, "channel": 0}, {"type": "note_on", "time": 32, "note": 58, "velocity": 98, "channel": 0}, {"type": "note_off", "time": 100, "note": 58, "velocity": 98, "channel": 0}, {"type": "note_on", "time": 18, "note": 57, "velocity": 93, "channel": 0}, {"type": "note_off", "time": 65, "note": 57, "velocity": 93, "channel": 0}, {"type": "note_on", "time": 27, "note": 58, "velocity": 83, "channel": 0}, {"type": "note_off", "time": 64, "note": 58, "velocity": 83, "channel": 0}, {"type": "note_on", "time": 18, "note": 62, "velocity": 109, "channel": 0}, {"type": "note_off", "time": 80, "note": 62, "velocity": 109, "channel": 0}, {"type": "note_on", "time": 29, "note": 65, "velocity": 110, "channel": 0}, {"type": "note_off", "time": 570, "note": 65, "velocity": 110, "channel": 0}, {"type": "note_on", "time": 512, "note": 63, "velocity": 111, "channel": 0}, {"type": "note_off", "time": 89, "note": 63, "velocity": 111, "channel": 0}, {"type": "note_on", "time": 27, "note": 63, "velocity": 103, "channel": 0}, {"type": "note_off", "time": 102, "note": 63, "velocity": 103, "channel": 0}, {"type": "note_on", "time": 74, "note": 60, "velocity": 98, "channel": 0}, {"type": "note_off", "time": 69, "note": 60, "velocity": 98, "channel": 0}, {"type": "note_on", "time": 9, "note": 61, "velocity": 107, "channel": 0}, {"type": "note_off", "time": 85, "note": 61, "velocity": 107, "channel": 0}, {"type": "note_on", "time": 10, "note": 61, "velocity": 98, "channel": 0}, {"type": "note_off", "time": 118, "note": 61, "velocity": 98, "channel": 0}, {"type": "note_on", "time": 96, "note": 63, "velocity": 106, "channel": 0}, {"type": "note_off", "time": 69, "note": 63, "velocity": 106, "channel": 0}, {"type": "note_on", "time": 9, "note": 65, "velocity": 109, "channel": 0}, {"type": "note_off", "time": 80, "note": 65, "velocity": 109, "channel": 0}, {"type": "note_on", "time": 31, "note": 65, "velocity": 104, "channel": 0}, {"type": "note_off", "time": 120, "note": 65, "velocity": 104, "channel": 0}, {"type": "note_on", "time": 65, "note": 68, "velocity": 114, "channel": 0}, {"type": "note_off", "time": 73, "note": 68, "velocity": 114, "channel": 0}, {"type": "note_on", "time": 31, "note": 67, "velocity": 113, "channel": 0}, {"type": "note_off", "time": 100, "note": 67, "velocity": 113, "channel": 0}, {"type": "note_on", "time": 36, "note": 67, "velocity": 114, "channel": 0}, {"type": "note_off", "time": 91, "note": 67, "velocity": 114, "channel": 0}, {"type": "note_on", "time": 65, "note": 65, "velocity": 109, "channel": 0}, {"type": "note_off", "time": 56, "note": 65, "velocity": 109, "channel": 0}, {"type": "note_on", "time": 38, "note": 63, "velocity": 107, "channel": 0}, {"type": "note_off", "time": 93, "note": 63, "velocity": 107, "channel": 0}, {"type": "note_on", "time": 38, "note": 60, "velocity": 100, "channel": 0}, {"type": "note_off", "time": 221, "note": 60, "velocity": 100, "channel": 0}, {"type": "note_on", "time": 42, "note": 60, "velocity": 92, "channel": 0}, {"type": "note_off", "time": 310, "note": 60, "velocity": 92, "channel": 0}, {"type": "note_on", "time": 384, "note": 65, "velocity": 100, "channel": 0}, {"type": "note_off", "time": 323, "note": 65, "velocity": 100, "channel": 0}, {"type": "note_on", "time": 32, "note": 64, "velocity": 96, "channel": 0}, {"type": "note_off", "time": 80, "note": 64, "velocity": 96, "channel": 0}, {"type": "note_on", "time": 18, "note": 65, "velocity": 109, "channel": 0}, {"type": "note_off", "time": 91, "note": 65, "velocity": 109, "channel": 0}, {"type": "note_on", "time": 43, "note": 60, "velocity": 99, "channel": 0}, {"type": "note_off", "time": 74, "note": 60, "velocity": 99, "channel": 0}, {"type": "note_on", "time": 256, "note": 65, "velocity": 103, "channel": 0}, {"type": "note_off", "time": 84, "note": 65, "velocity": 103, "channel": 0}, {"type": "note_on", "time": 104, "note": 65, "velocity": 101, "channel": 0}, {"type": "note_off", "time": 82, "note": 65, "velocity": 101, "channel": 0}, {"type": "note_on", "time": 21, "note": 60, "velocity": 101, "channel": 0}, {"type": "note_off", "time": 62, "note": 60, "velocity": 101, "channel": 0}, {"type": "note_on", "time": 235, "note": 69, "velocity": 112, "channel": 0}, {"type": "note_off", "time": 71, "note": 69, "velocity": 112, "channel": 0}, {"type": "note_on", "time": 54, "note": 69, "velocity": 93, "channel": 0}, {"type": "note_off", "time": 89, "note": 69, "velocity": 93, "channel": 0}, {"type": "note_on", "time": 755, "note": 69, "velocity": 114, "channel": 0}, {"type": "note_off", "time": 85, "note": 69, "velocity": 114, "channel": 0}, {"type": "note_on", "time": 69, "note": 69, "velocity": 110, "channel": 0}, {"type": "note_off", "time": 76, "note": 69, "velocity": 110, "channel": 0}, {"type": "note_on", "time": 55, "note": 62, "velocity": 109, "channel": 0}, {"type": "note_off", "time": 67, "note": 62, "velocity": 109, "channel": 0}, {"type": "note_on", "time": 216, "note": 69, "velocity": 109, "channel": 0}, {"type": "note_off", "time": 106, "note": 69, "velocity": 109, "channel": 0}, {"type": "note_on", "time": 71, "note": 69, "velocity": 107, "channel": 0}, {"type": "note_off", "time": 85, "note": 69, "velocity": 107, "channel": 0}, {"type": "note_on", "time": 42, "note": 62, "velocity": 104, "channel": 0}, {"type": "note_off", "time": 65, "note": 62, "velocity": 104, "channel": 0}, {"type": "note_on", "time": 216, "note": 65, "velocity": 100, "channel": 0}, {"type": "note_off", "time": 89, "note": 65, "velocity": 100, "channel": 0}, {"type": "note_on", "time": 38, "note": 65, "velocity": 110, "channel": 0}, {"type": "note_off", "time": 100, "note": 65, "velocity": 110, "channel": 0}, {"type": "note_on", "time": 54, "note": 60, "velocity": 97, "channel": 0}, {"type": "note_off", "time": 352, "note": 60, "velocity": 97, "channel": 0}, {"type": "note_on", "time": 504, "note": 65, "velocity": 107, "channel": 0}, {"type": "note_off", "time": 276, "note": 65, "velocity": 107, "channel": 0}, {"type": "note_on", "time": 10, "note": 64, "velocity": 101, "channel": 0}, {"type": "note_off", "time": 76, "note": 64, "velocity": 101, "channel": 0}, {"type": "note_on", "time": 14, "note": 65, "velocity": 112, "channel": 0}, {"type": "note_off", "time": 76, "note": 65, "velocity": 112, "channel": 0}, {"type": "note_on", "time": 138, "note": 60, "velocity": 92, "channel": 0}, {"type": "note_off", "time": 80, "note": 60, "velocity": 92, "channel": 0}, {"type": "note_on", "time": 113, "note": 62, "velocity": 105, "channel": 0}, {"type": "note_off", "time": 212, "note": 62, "velocity": 105, "channel": 0}, {"type": "note_on", "time": 21, "note": 62, "velocity": 107, "channel": 0}, {"type": "note_off", "time": 166, "note": 62, "velocity": 107, "channel": 0}, {"type": "note_on", "time": 773, "note": 71, "velocity": 120, "channel": 0}, {"type": "note_off", "time": 71, "note": 71, "velocity": 120, "channel": 0}, {"type": "note_on", "time": 10, "note": 72, "velocity": 118, "channel": 0}, {"type": "note_off", "time": 179, "note": 72, "velocity": 118, "channel": 0}, {"type": "note_on", "time": 129, "note": 60, "velocity": 107, "channel": 0}, {"type": "note_off", "time": 215, "note": 60, "velocity": 107, "channel": 0}, {"type": "note_on", "time": 124, "note": 62, "velocity": 113, "channel": 0}, {"type": "note_off", "time": 650, "note": 62, "velocity": 113, "channel": 0}, {"type": "note_on", "time": 117, "note": 69, "velocity": 109, "channel": 0}, {"type": "note_off", "time": 62, "note": 69, "velocity": 109, "channel": 0}, {"type": "note_on", "time": 20, "note": 67, "velocity": 114, "channel": 0}, {"type": "note_off", "time": 82, "note": 67, "velocity": 114, "channel": 0}, {"type": "note_on", "time": 27, "note": 69, "velocity": 113, "channel": 0}, {"type": "note_off", "time": 51, "note": 69, "velocity": 113, "channel": 0}, {"type": "note_on", "time": 40, "note": 67, "velocity": 115, "channel": 0}, {"type": "note_off", "time": 76, "note": 67, "velocity": 115, "channel": 0}, {"type": "note_on", "time": 29, "note": 67, "velocity": 110, "channel": 0}, {"type": "note_off", "time": 95, "note": 67, "velocity": 110, "channel": 0}, {"type": "note_on", "time": 102, "note": 69, "velocity": 109, "channel": 0}, {"type": "note_off", "time": 69, "note": 69, "velocity": 109, "channel": 0}, {"type": "note_on", "time": 31, "note": 67, "velocity": 112, "channel": 0}, {"type": "note_off", "time": 84, "note": 67, "velocity": 112, "channel": 0}, {"type": "note_on", "time": 36, "note": 67, "velocity": 109, "channel": 0}, {"type": "note_off", "time": 100, "note": 67, "velocity": 109, "channel": 0}, {"type": "note_on", "time": 78, "note": 69, "velocity": 107, "channel": 0}, {"type": "note_off", "time": 53, "note": 69, "velocity": 107, "channel": 0}, {"type": "note_on", "time": 31, "note": 67, "velocity": 112, "channel": 0}, {"type": "note_off", "time": 80, "note": 67, "velocity": 112, "channel": 0}, {"type": "note_on", "time": 43, "note": 67, "velocity": 114, "channel": 0}, {"type": "note_off", "time": 82, "note": 67, "velocity": 114, "channel": 0}, {"type": "note_on", "time": 96, "note": 69, "velocity": 110, "channel": 0}, {"type": "note_off", "time": 45, "note": 69, "velocity": 110, "channel": 0}, {"type": "note_on", "time": 31, "note": 67, "velocity": 110, "channel": 0}, {"type": "note_off", "time": 100, "note": 67, "velocity": 110, "channel": 0}, {"type": "note_on", "time": 29, "note": 65, "velocity": 112, "channel": 0}, {"type": "note_off", "time": 78, "note": 65, "velocity": 112, "channel": 0}, {"type": "note_on", "time": 391, "note": 64, "velocity": 105, "channel": 0}, {"type": "note_off", "time": 56, "note": 64, "velocity": 105, "channel": 0}, {"type": "note_on", "time": 18, "note": 65, "velocity": 106, "channel": 0}, {"type": "note_off", "time": 74, "note": 65, "velocity": 106, "channel": 0}, {"type": "note_on", "time": 40, "note": 62, "velocity": 106, "channel": 0}, {"type": "note_off", "time": 67, "note": 62, "velocity": 106, "channel": 0}, {"type": "note_on", "time": 36, "note": 64, "velocity": 100, "channel": 0}, {"type": "note_off", "time": 94, "note": 64, "velocity": 100, "channel": 0}, {"type": "note_on", "time": 15, "note": 60, "velocity": 93, "channel": 0}, {"type": "note_off", "time": 64, "note": 60, "velocity": 93, "channel": 0}, {"type": "note_on", "time": 115, "note": 62, "velocity": 100, "channel": 0}, {"type": "note_off", "time": 190, "note": 62, "velocity": 100, "channel": 0}, {"type": "note_on", "time": 38, "note": 58, "velocity": 97, "channel": 0}, {"type": "note_off", "time": 131, "note": 58, "velocity": 97, "channel": 0}, {"type": "note_on", "time": 93, "note": 60, "velocity": 100, "channel": 0}, {"type": "note_off", "time": 49, "note": 60, "velocity": 100, "channel": 0}, {"type": "note_on", "time": 25, "note": 58, "velocity": 97, "channel": 0}, {"type": "note_off", "time": 80, "note": 58, "velocity": 97, "channel": 0}, {"type": "note_on", "time": 21, "note": 57, "velocity": 88, "channel": 0}, {"type": "note_off", "time": 62, "note": 57, "velocity": 88, "channel": 0}, {"type": "note_on", "time": 27, "note": 60, "velocity": 97, "channel": 0}, {"type": "note_off", "time": 82, "note": 60, "velocity": 97, "channel": 0}, {"type": "note_on", "time": 164, "note": 60, "velocity": 92, "channel": 0}, {"type": "note_off", "time": 369, "note": 60, "velocity": 92, "channel": 0}, {"type": "note_on", "time": 479, "note": 60, "velocity": 97, "channel": 0}, {"type": "note_off", "time": 74, "note": 60, "velocity": 97, "channel": 0}, {"type": "note_on", "time": 12, "note": 62, "velocity": 104, "channel": 0}, {"type": "note_off", "time": 82, "note": 62, "velocity": 104, "channel": 0}, {"type": "note_on", "time": 20, "note": 64, "velocity": 99, "channel": 0}, {"type": "note_off", "time": 42, "note": 64, "velocity": 99, "channel": 0}, {"type": "note_on", "time": 34, "note": 65, "velocity": 104, "channel": 0}, {"type": "note_off", "time": 98, "note": 65, "velocity": 104, "channel": 0}, {"type": "note_on", "time": 117, "note": 67, "velocity": 109, "channel": 0}, {"type": "note_off", "time": 64, "note": 67, "velocity": 109, "channel": 0}, {"type": "note_on", "time": 36, "note": 65, "velocity": 104, "channel": 0}, {"type": "note_off", "time": 74, "note": 65, "velocity": 104, "channel": 0}, {"type": "note_on", "time": 31, "note": 64, "velocity": 102, "channel": 0}, {"type": "note_off", "time": 76, "note": 64, "velocity": 102, "channel": 0}, {"type": "note_on", "time": 9, "note": 65, "velocity": 101, "channel": 0}, {"type": "note_off", "time": 104, "note": 65, "velocity": 101, "channel": 0}, {"type": "note_on", "time": 14, "note": 64, "velocity": 105, "channel": 0}, {"type": "note_off", "time": 58, "note": 64, "velocity": 105, "channel": 0}, {"type": "note_on", "time": 43, "note": 62, "velocity": 113, "channel": 0}, {"type": "note_off", "time": 73, "note": 62, "velocity": 113, "channel": 0}, {"type": "note_on", "time": 27, "note": 60, "velocity": 103, "channel": 0}, {"type": "note_off", "time": 56, "note": 60, "velocity": 103, "channel": 0}, {"type": "note_on", "time": 241, "note": 62, "velocity": 108, "channel": 0}, {"type": "note_off", "time": 85, "note": 62, "velocity": 108, "channel": 0}, {"type": "note_on", "time": 23, "note": 58, "velocity": 96, "channel": 0}, {"type": "note_off", "time": 137, "note": 58, "velocity": 96, "channel": 0}, {"type": "note_on", "time": 25, "note": 60, "velocity": 102, "channel": 0}, {"type": "note_off", "time": 64, "note": 60, "velocity": 102, "channel": 0}, {"type": "note_on", "time": 53, "note": 57, "velocity": 94, "channel": 0}, {"type": "note_off", "time": 65, "note": 57, "velocity": 94, "channel": 0}, {"type": "note_on", "time": 118, "note": 58, "velocity": 98, "channel": 0}, {"type": "note_off", "time": 54, "note": 58, "velocity": 98, "channel": 0}, {"type": "note_on", "time": 64, "note": 60, "velocity": 101, "channel": 0}, {"type": "note_off", "time": 64, "note": 60, "velocity": 101, "channel": 0}, {"type": "note_on", "time": 23, "note": 62, "velocity": 106, "channel": 0}, {"type": "note_off", "time": 62, "note": 62, "velocity": 106, "channel": 0}, {"type": "note_on", "time": 39, "note": 63, "velocity": 98, "channel": 0}, {"type": "note_off", "time": 62, "note": 63, "velocity": 98, "channel": 0}, {"type": "note_on", "time": 4, "note": 65, "velocity": 101, "channel": 0}, {"type": "note_off", "time": 96, "note": 65, "velocity": 101, "channel": 0}, {"type": "note_on", "time": 21, "note": 67, "velocity": 106, "channel": 0}, {"type": "note_off", "time": 177, "note": 67, "velocity": 106, "channel": 0}, {"type": "note_on", "time": 438, "note": 67, "velocity": 115, "channel": 0}, {"type": "note_off", "time": 76, "note": 67, "velocity": 115, "channel": 0}, {"type": "note_on", "time": 21, "note": 65, "velocity": 107, "channel": 0}, {"type": "note_off", "time": 53, "note": 65, "velocity": 107, "channel": 0}, {"type": "note_on", "time": 14, "note": 64, "velocity": 100, "channel": 0}, {"type": "note_off", "time": 58, "note": 64, "velocity": 100, "channel": 0}, {"type": "note_on", "time": 23, "note": 62, "velocity": 110, "channel": 0}, {"type": "note_off", "time": 95, "note": 62, "velocity": 110, "channel": 0}, {"type": "note_on", "time": 20, "note": 61, "velocity": 103, "channel": 0}, {"type": "note_off", "time": 122, "note": 61, "velocity": 103, "channel": 0}, {"type": "note_on", "time": 7, "note": 62, "velocity": 112, "channel": 0}, {"type": "note_off", "time": 250, "note": 62, "velocity": 112, "channel": 0}, {"type": "note_on", "time": 49, "note": 64, "velocity": 107, "channel": 0}, {"type": "note_off", "time": 107, "note": 64, "velocity": 107, "channel": 0}, {"type": "note_on", "time": 10, "note": 65, "velocity": 108, "channel": 0}, {"type": "note_off", "time": 217, "note": 65, "velocity": 108, "channel": 0}, {"type": "note_on", "time": 736, "note": 64, "velocity": 108, "channel": 0}, {"type": "note_off", "time": 49, "note": 64, "velocity": 108, "channel": 0}, {"type": "note_on", "time": 9, "note": 65, "velocity": 109, "channel": 0}, {"type": "note_off", "time": 177, "note": 65, "velocity": 109, "channel": 0}, {"type": "note_on", "time": 60, "note": 60, "velocity": 99, "channel": 0}, {"type": "note_off", "time": 78, "note": 60, "velocity": 99, "channel": 0}, {"type": "note_on", "time": 102, "note": 62, "velocity": 104, "channel": 0}, {"type": "note_off", "time": 413, "note": 62, "velocity": 104, "channel": 0}, {"type": "note_on", "time": 760, "note": 69, "velocity": 115, "channel": 0}, {"type": "note_off", "time": 40, "note": 69, "velocity": 115, "channel": 0}, {"type": "note_on", "time": 10, "note": 70, "velocity": 118, "channel": 0}, {"type": "note_off", "time": 319, "note": 70, "velocity": 118, "channel": 0}, {"type": "note_on", "time": 56, "note": 65, "velocity": 109, "channel": 0}, {"type": "note_off", "time": 223, "note": 65, "velocity": 109, "channel": 0}, {"type": "note_on", "time": 43, "note": 64, "velocity": 103, "channel": 0}, {"type": "note_off", "time": 42, "note": 64, "velocity": 103, "channel": 0}, {"type": "note_on", "time": 16, "note": 63, "velocity": 103, "channel": 0}, {"type": "note_off", "time": 109, "note": 63, "velocity": 103, "channel": 0}, {"type": "note_on", "time": 38, "note": 55, "velocity": 87, "channel": 0}, {"type": "note_off", "time": 58, "note": 55, "velocity": 87, "channel": 0}, {"type": "note_on", "time": 20, "note": 58, "velocity": 100, "channel": 0}, {"type": "note_off", "time": 65, "note": 58, "velocity": 100, "channel": 0}, {"type": "note_on", "time": 20, "note": 62, "velocity": 110, "channel": 0}, {"type": "note_off", "time": 343, "note": 62, "velocity": 110, "channel": 0}, {"type": "note_on", "time": 104, "note": 60, "velocity": 95, "channel": 0}, {"type": "note_off", "time": 62, "note": 60, "velocity": 95, "channel": 0}, {"type": "note_on", "time": 43, "note": 58, "velocity": 102, "channel": 0}, {"type": "note_off", "time": 80, "note": 58, "velocity": 102, "channel": 0}, {"type": "note_on", "time": 25, "note": 57, "velocity": 97, "channel": 0}, {"type": "note_off", "time": 89, "note": 57, "velocity": 97, "channel": 0}, {"type": "note_on", "time": 48, "note": 60, "velocity": 79, "channel": 0}, {"type": "note_off", "time": 54, "note": 60, "velocity": 79, "channel": 0}, {"type": "note_on", "time": 10, "note": 62, "velocity": 107, "channel": 0}, {"type": "note_off", "time": 82, "note": 62, "velocity": 107, "channel": 0}, {"type": "note_on", "time": 16, "note": 65, "velocity": 104, "channel": 0}, {"type": "note_off", "time": 369, "note": 65, "velocity": 104, "channel": 0}, {"type": "note_on", "time": 486, "note": 58, "velocity": 103, "channel": 0}, {"type": "note_off", "time": 104, "note": 58, "velocity": 103, "channel": 0}, {"type": "note_on", "time": 42, "note": 60, "velocity": 102, "channel": 0}, {"type": "note_off", "time": 62, "note": 60, "velocity": 102, "channel": 0}, {"type": "note_on", "time": 49, "note": 61, "velocity": 102, "channel": 0}, {"type": "note_off", "time": 85, "note": 61, "velocity": 102, "channel": 0}, {"type": "note_on", "time": 20, "note": 63, "velocity": 107, "channel": 0}, {"type": "note_off", "time": 234, "note": 63, "velocity": 107, "channel": 0}, {"type": "note_on", "time": 36, "note": 65, "velocity": 106, "channel": 0}, {"type": "note_off", "time": 204, "note": 65, "velocity": 106, "channel": 0}, {"type": "note_on", "time": 77, "note": 61, "velocity": 101, "channel": 0}, {"type": "note_off", "time": 39, "note": 61, "velocity": 101, "channel": 0}, {"type": "note_on", "time": 22, "note": 63, "velocity": 111, "channel": 0}, {"type": "note_off", "time": 179, "note": 63, "velocity": 111, "channel": 0}, {"type": "note_on", "time": 31, "note": 61, "velocity": 102, "channel": 0}, {"type": "note_off", "time": 118, "note": 61, "velocity": 102, "channel": 0}, {"type": "note_on", "time": 12, "note": 60, "velocity": 99, "channel": 0}, {"type": "note_off", "time": 76, "note": 60, "velocity": 99, "channel": 0}, {"type": "note_on", "time": 109, "note": 58, "velocity": 104, "channel": 0}, {"type": "note_off", "time": 65, "note": 58, "velocity": 104, "channel": 0}, {"type": "note_on", "time": 12, "note": 57, "velocity": 102, "channel": 0}, {"type": "note_off", "time": 389, "note": 57, "velocity": 102, "channel": 0}, {"type": "note_on", "time": 190, "note": 62, "velocity": 109, "channel": 0}, {"type": "note_off", "time": 230, "note": 62, "velocity": 109, "channel": 0}, {"type": "note_on", "time": 109, "note": 55, "velocity": 100, "channel": 0}, {"type": "note_off", "time": 261, "note": 55, "velocity": 100, "channel": 0}, {"type": "note_on", "time": 552, "note": 62, "velocity": 110, "channel": 0}, {"type": "note_off", "time": 312, "note": 62, "velocity": 110, "channel": 0}, {"type": "note_on", "time": 20, "note": 61, "velocity": 97, "channel": 0}, {"type": "note_off", "time": 53, "note": 61, "velocity": 97, "channel": 0}, {"type": "note_on", "time": 3, "note": 62, "velocity": 111, "channel": 0}, {"type": "note_off", "time": 290, "note": 62, "velocity": 111, "channel": 0}, {"type": "note_on", "time": 63, "note": 60, "velocity": 102, "channel": 0}, {"type": "note_off", "time": 51, "note": 60, "velocity": 102, "channel": 0}, {"type": "note_on", "time": 18, "note": 62, "velocity": 106, "channel": 0}, {"type": "note_off", "time": 87, "note": 62, "velocity": 106, "channel": 0}, {"type": "note_on", "time": 10, "note": 64, "velocity": 101, "channel": 0}, {"type": "note_off", "time": 67, "note": 64, "velocity": 101, "channel": 0}, {"type": "note_on", "time": 20, "note": 65, "velocity": 113, "channel": 0}, {"type": "note_off", "time": 53, "note": 65, "velocity": 113, "channel": 0}, {"type": "note_on", "time": 25, "note": 67, "velocity": 101, "channel": 0}, {"type": "note_off", "time": 63, "note": 67, "velocity": 101, "channel": 0}, {"type": "note_on", "time": 25, "note": 68, "velocity": 115, "channel": 0}, {"type": "note_off", "time": 100, "note": 68, "velocity": 115, "channel": 0}, {"type": "note_on", "time": 14, "note": 67, "velocity": 121, "channel": 0}, {"type": "note_off", "time": 65, "note": 67, "velocity": 121, "channel": 0}, {"type": "note_on", "time": 21, "note": 65, "velocity": 114, "channel": 0}, {"type": "note_off", "time": 84, "note": 65, "velocity": 114, "channel": 0}, {"type": "note_on", "time": 28, "note": 64, "velocity": 103, "channel": 0}, {"type": "note_off", "time": 65, "note": 64, "velocity": 103, "channel": 0}, {"type": "note_on", "time": 19, "note": 65, "velocity": 99, "channel": 0}, {"type": "note_off", "time": 64, "note": 65, "velocity": 99, "channel": 0}, {"type": "note_on", "time": 31, "note": 62, "velocity": 103, "channel": 0}, {"type": "note_off", "time": 58, "note": 62, "velocity": 103, "channel": 0}, {"type": "note_on", "time": 219, "note": 62, "velocity": 9, "channel": 0}, {"type": "note_off", "time": 398, "note": 62, "velocity": 9, "channel": 0}, {"type": "note_on", "time": 386, "note": 68, "velocity": 116, "channel": 0}, {"type": "note_off", "time": 61, "note": 68, "velocity": 116, "channel": 0}, {"type": "note_on", "time": 18, "note": 68, "velocity": 116, "channel": 0}, {"type": "note_off", "time": 53, "note": 68, "velocity": 116, "channel": 0}, {"type": "note_on", "time": 29, "note": 68, "velocity": 114, "channel": 0}, {"type": "note_off", "time": 79, "note": 68, "velocity": 114, "channel": 0}, {"type": "note_on", "time": 26, "note": 68, "velocity": 115, "channel": 0}, {"type": "note_off", "time": 62, "note": 68, "velocity": 115, "channel": 0}, {"type": "note_on", "time": 36, "note": 68, "velocity": 115, "channel": 0}, {"type": "note_off", "time": 84, "note": 68, "velocity": 115, "channel": 0}, {"type": "note_on", "time": 542, "note": 68, "velocity": 116, "channel": 0}, {"type": "note_off", "time": 264, "note": 68, "velocity": 116, "channel": 0}, {"type": "note_on", "time": 1, "note": 65, "velocity": 87, "channel": 0}, {"type": "note_off", "time": 61, "note": 65, "velocity": 87, "channel": 0}, {"type": "note_on", "time": 233, "note": 67, "velocity": 112, "channel": 0}, {"type": "note_off", "time": 62, "note": 67, "velocity": 112, "channel": 0}, {"type": "note_on", "time": 7, "note": 68, "velocity": 107, "channel": 0}, {"type": "note_off", "time": 60, "note": 68, "velocity": 107, "channel": 0}, {"type": "note_on", "time": 36, "note": 68, "velocity": 116, "channel": 0}, {"type": "note_off", "time": 65, "note": 68, "velocity": 116, "channel": 0}, {"type": "note_on", "time": 38, "note": 68, "velocity": 118, "channel": 0}, {"type": "note_off", "time": 69, "note": 68, "velocity": 118, "channel": 0}, {"type": "note_on", "time": 29, "note": 68, "velocity": 116, "channel": 0}, {"type": "note_off", "time": 91, "note": 68, "velocity": 116, "channel": 0}, {"type": "note_on", "time": 31, "note": 65, "velocity": 107, "channel": 0}, {"type": "note_off", "time": 107, "note": 65, "velocity": 107, "channel": 0}, {"type": "note_on", "time": 217, "note": 65, "velocity": 104, "channel": 0}, {"type": "note_off", "time": 329, "note": 65, "velocity": 104, "channel": 0}, {"type": "note_on", "time": 693, "note": 74, "velocity": 127, "channel": 0}, {"type": "note_off", "time": 87, "note": 74, "velocity": 127, "channel": 0}, {"type": "note_on", "time": 21, "note": 72, "velocity": 117, "channel": 0}, {"type": "note_off", "time": 120, "note": 72, "velocity": 117, "channel": 0}, {"type": "note_on", "time": 268, "note": 65, "velocity": 116, "channel": 0}, {"type": "note_off", "time": 162, "note": 65, "velocity": 116, "channel": 0}, {"type": "note_on", "time": 173, "note": 70, "velocity": 107, "channel": 0}, {"type": "note_off", "time": 102, "note": 70, "velocity": 107, "channel": 0}, {"type": "note_on", "time": 18, "note": 69, "velocity": 111, "channel": 0}, {"type": "note_off", "time": 126, "note": 69, "velocity": 111, "channel": 0}, {"type": "note_on", "time": 215, "note": 60, "velocity": 82, "channel": 0}, {"type": "note_off", "time": 102, "note": 60, "velocity": 82, "channel": 0}, {"type": "note_on", "time": 93, "note": 67, "velocity": 113, "channel": 0}, {"type": "note_off", "time": 168, "note": 67, "velocity": 113, "channel": 0}, {"type": "note_on", "time": 23, "note": 65, "velocity": 112, "channel": 0}, {"type": "note_off", "time": 221, "note": 65, "velocity": 112, "channel": 0}, {"type": "note_on", "time": 82, "note": 57, "velocity": 91, "channel": 0}, {"type": "note_off", "time": 239, "note": 57, "velocity": 91, "channel": 0}, {"type": "note_on", "time": 58, "note": 62, "velocity": 104, "channel": 0}, {"type": "note_off", "time": 111, "note": 62, "velocity": 104, "channel": 0}, {"type": "note_on", "time": 80, "note": 60, "velocity": 100, "channel": 0}, {"type": "note_off", "time": 219, "note": 60, "velocity": 100, "channel": 0}, {"type": "note_on", "time": 89, "note": 53, "velocity": 96, "channel": 0}, {"type": "note_off", "time": 93, "note": 53, "velocity": 96, "channel": 0}, {"type": "note_on", "time": 120, "note": 58, "velocity": 93, "channel": 0}, {"type": "note_off", "time": 100, "note": 58, "velocity": 93, "channel": 0}, {"type": "note_on", "time": 27, "note": 57, "velocity": 92, "channel": 0}, {"type": "note_off", "time": 87, "note": 57, "velocity": 92, "channel": 0}, {"type": "note_on", "time": 111, "note": 60, "velocity": 96, "channel": 0}, {"type": "note_off", "time": 219, "note": 60, "velocity": 96, "channel": 0}, {"type": "note_on", "time": 78, "note": 55, "velocity": 94, "channel": 0}, {"type": "note_off", "time": 391, "note": 55, "velocity": 94, "channel": 0}, {"type": "note_on", "time": 387, "note": 65, "velocity": 103, "channel": 0}, {"type": "note_off", "time": 241, "note": 65, "velocity": 103, "channel": 0}, {"type": "note_on", "time": 34, "note": 64, "velocity": 105, "channel": 0}, {"type": "note_off", "time": 65, "note": 64, "velocity": 105, "channel": 0}, {"type": "note_on", "time": 54, "note": 60, "velocity": 102, "channel": 0}, {"type": "note_off", "time": 195, "note": 60, "velocity": 102, "channel": 0}, {"type": "note_on", "time": 190, "note": 60, "velocity": 94, "channel": 0}, {"type": "note_off", "time": 274, "note": 60, "velocity": 94, "channel": 0}, {"type": "note_on", "time": 883, "note": 69, "velocity": 108, "channel": 0}, {"type": "note_off", "time": 73, "note": 69, "velocity": 108, "channel": 0}, {"type": "note_on", "time": 29, "note": 72, "velocity": 108, "channel": 0}, {"type": "note_off", "time": 102, "note": 72, "velocity": 108, "channel": 0}, {"type": "note_on", "time": 102, "note": 67, "velocity": 109, "channel": 0}, {"type": "note_off", "time": 71, "note": 67, "velocity": 109, "channel": 0}, {"type": "note_on", "time": 14, "note": 70, "velocity": 100, "channel": 0}, {"type": "note_off", "time": 159, "note": 70, "velocity": 100, "channel": 0}, {"type": "note_on", "time": 243, "note": 65, "velocity": 103, "channel": 0}, {"type": "note_off", "time": 65, "note": 65, "velocity": 103, "channel": 0}, {"type": "note_on", "time": 32, "note": 69, "velocity": 109, "channel": 0}, {"type": "note_off", "time": 89, "note": 69, "velocity": 109, "channel": 0}, {"type": "note_on", "time": 102, "note": 64, "velocity": 97, "channel": 0}, {"type": "note_off", "time": 58, "note": 64, "velocity": 97, "channel": 0}, {"type": "note_on", "time": 16, "note": 67, "velocity": 110, "channel": 0}, {"type": "note_off", "time": 111, "note": 67, "velocity": 110, "channel": 0}, {"type": "note_on", "time": 246, "note": 62, "velocity": 102, "channel": 0}, {"type": "note_off", "time": 60, "note": 62, "velocity": 102, "channel": 0}, {"type": "note_on", "time": 34, "note": 65, "velocity": 111, "channel": 0}, {"type": "note_off", "time": 96, "note": 65, "velocity": 111, "channel": 0}, {"type": "note_on", "time": 137, "note": 61, "velocity": 100, "channel": 0}, {"type": "note_off", "time": 34, "note": 61, "velocity": 100, "channel": 0}, {"type": "note_on", "time": 34, "note": 64, "velocity": 109, "channel": 0}, {"type": "note_off", "time": 111, "note": 64, "velocity": 109, "channel": 0}, {"type": "note_on", "time": 96, "note": 58, "velocity": 99, "channel": 0}, {"type": "note_off", "time": 73, "note": 58, "velocity": 99, "channel": 0}, {"type": "note_on", "time": 25, "note": 62, "velocity": 103, "channel": 0}, {"type": "note_off", "time": 246, "note": 62, "velocity": 103, "channel": 0}, {"type": "note_on", "time": 12, "note": 57, "velocity": 97, "channel": 0}, {"type": "note_off", "time": 78, "note": 57, "velocity": 97, "channel": 0}, {"type": "note_on", "time": 135, "note": 60, "velocity": 99, "channel": 0}, {"type": "note_off", "time": 153, "note": 60, "velocity": 99, "channel": 0}, {"type": "note_on", "time": 661, "note": 55, "velocity": 97, "channel": 0}, {"type": "note_off", "time": 49, "note": 55, "velocity": 97, "channel": 0}, {"type": "note_on", "time": 49, "note": 57, "velocity": 98, "channel": 0}, {"type": "note_off", "time": 45, "note": 57, "velocity": 98, "channel": 0}, {"type": "note_on", "time": 18, "note": 58, "velocity": 99, "channel": 0}, {"type": "note_off", "time": 73, "note": 58, "velocity": 99, "channel": 0}, {"type": "note_on", "time": 27, "note": 61, "velocity": 100, "channel": 0}, {"type": "note_off", "time": 53, "note": 61, "velocity": 100, "channel": 0}, {"type": "note_on", "time": 29, "note": 62, "velocity": 109, "channel": 0}, {"type": "note_off", "time": 49, "note": 62, "velocity": 109, "channel": 0}, {"type": "note_on", "time": 76, "note": 64, "velocity": 99, "channel": 0}, {"type": "note_off", "time": 54, "note": 64, "velocity": 99, "channel": 0}, {"type": "note_on", "time": 20, "note": 65, "velocity": 108, "channel": 0}, {"type": "note_off", "time": 65, "note": 65, "velocity": 108, "channel": 0}, {"type": "note_on", "time": 47, "note": 67, "velocity": 103, "channel": 0}, {"type": "note_off", "time": 49, "note": 67, "velocity": 103, "channel": 0}, {"type": "note_on", "time": 9, "note": 68, "velocity": 113, "channel": 0}, {"type": "note_off", "time": 87, "note": 68, "velocity": 113, "channel": 0}, {"type": "note_on", "time": 10, "note": 67, "velocity": 105, "channel": 0}, {"type": "note_off", "time": 76, "note": 67, "velocity": 105, "channel": 0}, {"type": "note_on", "time": 10, "note": 68, "velocity": 112, "channel": 0}, {"type": "note_off", "time": 76, "note": 68, "velocity": 112, "channel": 0}, {"type": "note_on", "time": 29, "note": 67, "velocity": 102, "channel": 0}, {"type": "note_off", "time": 73, "note": 67, "velocity": 102, "channel": 0}, {"type": "note_on", "time": 21, "note": 68, "velocity": 110, "channel": 0}, {"type": "note_off", "time": 74, "note": 68, "velocity": 110, "channel": 0}, {"type": "note_on", "time": 10, "note": 67, "velocity": 103, "channel": 0}, {"type": "note_off", "time": 85, "note": 67, "velocity": 103, "channel": 0}, {"type": "note_on", "time": 7, "note": 68, "velocity": 110, "channel": 0}, {"type": "note_off", "time": 62, "note": 68, "velocity": 110, "channel": 0}, {"type": "note_on", "time": 27, "note": 67, "velocity": 99, "channel": 0}, {"type": "note_off", "time": 104, "note": 67, "velocity": 99, "channel": 0}, {"type": "note_on", "time": 27, "note": 68, "velocity": 104, "channel": 0}, {"type": "note_off", "time": 175, "note": 68, "velocity": 104, "channel": 0}, {"type": "note_on", "time": 9, "note": 67, "velocity": 104, "channel": 0}, {"type": "note_off", "time": 80, "note": 67, "velocity": 104, "channel": 0}, {"type": "note_on", "time": 29, "note": 65, "velocity": 107, "channel": 0}, {"type": "note_off", "time": 106, "note": 65, "velocity": 107, "channel": 0}, {"type": "note_on", "time": 102, "note": 62, "velocity": 99, "channel": 0}, {"type": "note_off", "time": 407, "note": 62, "velocity": 99, "channel": 0}, {"type": "note_on", "time": 610, "note": 65, "velocity": 102, "channel": 0}, {"type": "note_off", "time": 67, "note": 65, "velocity": 102, "channel": 0}, {"type": "note_on", "time": 67, "note": 68, "velocity": 89, "channel": 0}, {"type": "note_off", "time": 48, "note": 68, "velocity": 89, "channel": 0}, {"type": "note_on", "time": 11, "note": 70, "velocity": 100, "channel": 0}, {"type": "note_off", "time": 69, "note": 70, "velocity": 100, "channel": 0}, {"type": "note_on", "time": 51, "note": 72, "velocity": 95, "channel": 0}, {"type": "note_off", "time": 56, "note": 72, "velocity": 95, "channel": 0}, {"type": "note_on", "time": 14, "note": 73, "velocity": 102, "channel": 0}, {"type": "note_off", "time": 129, "note": 73, "velocity": 102, "channel": 0}, {"type": "note_on", "time": 16, "note": 72, "velocity": 91, "channel": 0}, {"type": "note_off", "time": 32, "note": 72, "velocity": 91, "channel": 0}, {"type": "note_on", "time": 20, "note": 73, "velocity": 108, "channel": 0}, {"type": "note_off", "time": 107, "note": 73, "velocity": 108, "channel": 0}, {"type": "note_on", "time": 18, "note": 72, "velocity": 93, "channel": 0}, {"type": "note_off", "time": 36, "note": 72, "velocity": 93, "channel": 0}, {"type": "note_on", "time": 31, "note": 73, "velocity": 117, "channel": 0}, {"type": "note_off", "time": 129, "note": 73, "velocity": 117, "channel": 0}, {"type": "note_on", "time": 58, "note": 72, "velocity": 108, "channel": 0}, {"type": "note_off", "time": 65, "note": 72, "velocity": 108, "channel": 0}, {"type": "note_on", "time": 25, "note": 70, "velocity": 104, "channel": 0}, {"type": "note_off", "time": 89, "note": 70, "velocity": 104, "channel": 0}, {"type": "note_on", "time": 109, "note": 65, "velocity": 106, "channel": 0}, {"type": "note_off", "time": 193, "note": 65, "velocity": 106, "channel": 0}, {"type": "note_on", "time": 87, "note": 67, "velocity": 103, "channel": 0}, {"type": "note_off", "time": 433, "note": 67, "velocity": 103, "channel": 0}, {"type": "note_on", "time": 466, "note": 63, "velocity": 106, "channel": 0}, {"type": "note_off", "time": 74, "note": 63, "velocity": 106, "channel": 0}, {"type": "note_on", "time": 91, "note": 62, "velocity": 100, "channel": 0}, {"type": "note_off", "time": 80, "note": 62, "velocity": 100, "channel": 0}, {"type": "note_on", "time": 10, "note": 61, "velocity": 95, "channel": 0}, {"type": "note_off", "time": 106, "note": 61, "velocity": 95, "channel": 0}, {"type": "note_on", "time": 74, "note": 63, "velocity": 107, "channel": 0}, {"type": "note_off", "time": 201, "note": 63, "velocity": 107, "channel": 0}, {"type": "note_on", "time": 40, "note": 60, "velocity": 96, "channel": 0}, {"type": "note_off", "time": 117, "note": 60, "velocity": 96, "channel": 0}, {"type": "note_on", "time": 17, "note": 61, "velocity": 97, "channel": 0}, {"type": "note_off", "time": 87, "note": 61, "velocity": 97, "channel": 0}, {"type": "note_on", "time": 37, "note": 58, "velocity": 98, "channel": 0}, {"type": "note_off", "time": 96, "note": 58, "velocity": 98, "channel": 0}, {"type": "note_on", "time": 95, "note": 60, "velocity": 98, "channel": 0}, {"type": "note_off", "time": 47, "note": 60, "velocity": 98, "channel": 0}, {"type": "note_on", "time": 10, "note": 61, "velocity": 99, "channel": 0}, {"type": "note_off", "time": 69, "note": 61, "velocity": 99, "channel": 0}, {"type": "note_on", "time": 34, "note": 63, "velocity": 83, "channel": 0}, {"type": "note_off", "time": 43, "note": 63, "velocity": 83, "channel": 0}, {"type": "note_on", "time": 53, "note": 65, "velocity": 105, "channel": 0}, {"type": "note_off", "time": 84, "note": 65, "velocity": 105, "channel": 0}, {"type": "note_on", "time": 21, "note": 67, "velocity": 107, "channel": 0}, {"type": "note_off", "time": 60, "note": 67, "velocity": 107, "channel": 0}, {"type": "note_on", "time": 38, "note": 67, "velocity": 110, "channel": 0}, {"type": "note_off", "time": 67, "note": 67, "velocity": 110, "channel": 0}, {"type": "note_on", "time": 32, "note": 65, "velocity": 109, "channel": 0}, {"type": "note_off", "time": 71, "note": 65, "velocity": 109, "channel": 0}, {"type": "note_on", "time": 47, "note": 64, "velocity": 108, "channel": 0}, {"type": "note_off", "time": 89, "note": 64, "velocity": 108, "channel": 0}, {"type": "note_on", "time": 641, "note": 62, "velocity": 101, "channel": 0}, {"type": "note_off", "time": 73, "note": 62, "velocity": 101, "channel": 0}, {"type": "note_on", "time": 162, "note": 64, "velocity": 104, "channel": 0}, {"type": "note_off", "time": 371, "note": 64, "velocity": 104, "channel": 0}, {"type": "note_on", "time": 14, "note": 65, "velocity": 105, "channel": 0}, {"type": "note_off", "time": 76, "note": 65, "velocity": 105, "channel": 0}, {"type": "note_on", "time": 113, "note": 62, "velocity": 106, "channel": 0}, {"type": "note_off", "time": 448, "note": 62, "velocity": 106, "channel": 0}, {"type": "note_on", "time": 42, "note": 64, "velocity": 100, "channel": 0}, {"type": "note_off", "time": 74, "note": 64, "velocity": 100, "channel": 0}, {"type": "note_on", "time": 21, "note": 65, "velocity": 110, "channel": 0}, {"type": "note_off", "time": 84, "note": 65, "velocity": 110, "channel": 0}, {"type": "note_on", "time": 27, "note": 62, "velocity": 107, "channel": 0}, {"type": "note_off", "time": 60, "note": 62, "velocity": 107, "channel": 0}, {"type": "note_on", "time": 128, "note": 64, "velocity": 104, "channel": 0}, {"type": "note_off", "time": 215, "note": 64, "velocity": 104, "channel": 0}, {"type": "note_on", "time": 14, "note": 65, "velocity": 108, "channel": 0}, {"type": "note_off", "time": 195, "note": 65, "velocity": 108, "channel": 0}, {"type": "note_on", "time": 78, "note": 62, "velocity": 104, "channel": 0}, {"type": "note_off", "time": 279, "note": 62, "velocity": 104, "channel": 0}, {"type": "note_on", "time": 29, "note": 64, "velocity": 100, "channel": 0}, {"type": "note_off", "time": 195, "note": 64, "velocity": 100, "channel": 0}, {"type": "note_on", "time": 18, "note": 65, "velocity": 105, "channel": 0}, {"type": "note_off", "time": 171, "note": 65, "velocity": 105, "channel": 0}, {"type": "note_on", "time": 38, "note": 62, "velocity": 100, "channel": 0}, {"type": "note_off", "time": 345, "note": 62, "velocity": 100, "channel": 0}, {"type": "note_on", "time": 235, "note": 64, "velocity": 108, "channel": 0}, {"type": "note_off", "time": 62, "note": 64, "velocity": 108, "channel": 0}, {"type": "note_on", "time": 18, "note": 65, "velocity": 108, "channel": 0}, {"type": "note_off", "time": 71, "note": 65, "velocity": 108, "channel": 0}, {"type": "note_on", "time": 36, "note": 62, "velocity": 102, "channel": 0}, {"type": "note_off", "time": 65, "note": 62, "velocity": 102, "channel": 0}, {"type": "note_on", "time": 36, "note": 64, "velocity": 110, "channel": 0}, {"type": "note_off", "time": 45, "note": 64, "velocity": 110, "channel": 0}, {"type": "note_on", "time": 16, "note": 65, "velocity": 106, "channel": 0}, {"type": "note_off", "time": 82, "note": 65, "velocity": 106, "channel": 0}, {"type": "note_on", "time": 41, "note": 62, "velocity": 87, "channel": 0}, {"type": "note_off", "time": 51, "note": 62, "velocity": 87, "channel": 0}, {"type": "note_on", "time": 9, "note": 64, "velocity": 103, "channel": 0}, {"type": "note_off", "time": 69, "note": 64, "velocity": 103, "channel": 0}, {"type": "note_on", "time": 21, "note": 65, "velocity": 104, "channel": 0}, {"type": "note_off", "time": 58, "note": 65, "velocity": 104, "channel": 0}, {"type": "note_on", "time": 25, "note": 62, "velocity": 101, "channel": 0}, {"type": "note_off", "time": 106, "note": 62, "velocity": 101, "channel": 0}, {"type": "note_on", "time": 23, "note": 64, "velocity": 97, "channel": 0}, {"type": "note_off", "time": 47, "note": 64, "velocity": 97, "channel": 0}, {"type": "note_on", "time": 20, "note": 65, "velocity": 104, "channel": 0}, {"type": "note_off", "time": 67, "note": 65, "velocity": 104, "channel": 0}, {"type": "note_on", "time": 73, "note": 62, "velocity": 99, "channel": 0}, {"type": "note_off", "time": 49, "note": 62, "velocity": 99, "channel": 0}, {"type": "note_on", "time": 23, "note": 64, "velocity": 109, "channel": 0}, {"type": "note_off", "time": 62, "note": 64, "velocity": 109, "channel": 0}, {"type": "note_on", "time": 18, "note": 65, "velocity": 102, "channel": 0}, {"type": "note_off", "time": 60, "note": 65, "velocity": 102, "channel": 0}, {"type": "note_on", "time": 43, "note": 62, "velocity": 97, "channel": 0}, {"type": "note_off", "time": 84, "note": 62, "velocity": 97, "channel": 0}, {"type": "note_on", "time": 57, "note": 64, "velocity": 94, "channel": 0}, {"type": "note_off", "time": 34, "note": 64, "velocity": 94, "channel": 0}, {"type": "note_on", "time": 10, "note": 65, "velocity": 107, "channel": 0}, {"type": "note_off", "time": 76, "note": 65, "velocity": 107, "channel": 0}, {"type": "note_on", "time": 49, "note": 62, "velocity": 86, "channel": 0}, {"type": "note_off", "time": 36, "note": 62, "velocity": 86, "channel": 0}, {"type": "note_on", "time": 29, "note": 64, "velocity": 102, "channel": 0}, {"type": "note_off", "time": 65, "note": 64, "velocity": 102, "channel": 0}, {"type": "note_on", "time": 12, "note": 65, "velocity": 104, "channel": 0}, {"type": "note_off", "time": 95, "note": 65, "velocity": 104, "channel": 0}, {"type": "note_on", "time": 384, "note": 65, "velocity": 107, "channel": 0}, {"type": "note_off", "time": 287, "note": 65, "velocity": 107, "channel": 0}, {"type": "note_on", "time": 10, "note": 64, "velocity": 94, "channel": 0}, {"type": "note_off", "time": 60, "note": 64, "velocity": 94, "channel": 0}, {"type": "note_on", "time": 14, "note": 65, "velocity": 107, "channel": 0}, {"type": "note_off", "time": 104, "note": 65, "velocity": 107, "channel": 0}, {"type": "note_on", "time": 738, "note": 69, "velocity": 107, "channel": 0}, {"type": "note_off", "time": 95, "note": 69, "velocity": 107, "channel": 0}, {"type": "note_on", "time": 10, "note": 67, "velocity": 112, "channel": 0}, {"type": "note_off", "time": 32, "note": 67, "velocity": 112, "channel": 0}, {"type": "note_on", "time": 32, "note": 65, "velocity": 103, "channel": 0}, {"type": "note_off", "time": 87, "note": 65, "velocity": 103, "channel": 0}, {"type": "note_on", "time": 67, "note": 67, "velocity": 110, "channel": 0}, {"type": "note_off", "time": 64, "note": 67, "velocity": 110, "channel": 0}, {"type": "note_on", "time": 21, "note": 65, "velocity": 109, "channel": 0}, {"type": "note_off", "time": 87, "note": 65, "velocity": 109, "channel": 0}, {"type": "note_on", "time": 142, "note": 64, "velocity": 103, "channel": 0}, {"type": "note_off", "time": 65, "note": 64, "velocity": 103, "channel": 0}, {"type": "note_on", "time": 137, "note": 65, "velocity": 106, "channel": 0}, {"type": "note_off", "time": 202, "note": 65, "velocity": 106, "channel": 0}, {"type": "note_on", "time": 47, "note": 62, "velocity": 103, "channel": 0}, {"type": "note_off", "time": 159, "note": 62, "velocity": 103, "channel": 0}, {"type": "note_on", "time": 18, "note": 64, "velocity": 85, "channel": 0}, {"type": "note_off", "time": 71, "note": 64, "velocity": 85, "channel": 0}, {"type": "note_on", "time": 173, "note": 60, "velocity": 97, "channel": 0}, {"type": "note_off", "time": 263, "note": 60, "velocity": 97, "channel": 0}, {"type": "note_on", "time": 37, "note": 60, "velocity": 91, "channel": 0}, {"type": "note_off", "time": 345, "note": 60, "velocity": 91, "channel": 0}, {"type": "note_on", "time": 898, "note": 67, "velocity": 103, "channel": 0}, {"type": "note_off", "time": 53, "note": 67, "velocity": 103, "channel": 0}, {"type": "note_on", "time": 111, "note": 67, "velocity": 101, "channel": 0}, {"type": "note_off", "time": 45, "note": 67, "velocity": 101, "channel": 0}, {"type": "note_on", "time": 25, "note": 67, "velocity": 99, "channel": 0}, {"type": "note_off", "time": 51, "note": 67, "velocity": 99, "channel": 0}, {"type": "note_on", "time": 20, "note": 67, "velocity": 104, "channel": 0}, {"type": "note_off", "time": 49, "note": 67, "velocity": 104, "channel": 0}, {"type": "note_on", "time": 40, "note": 67, "velocity": 111, "channel": 0}, {"type": "note_off", "time": 473, "note": 67, "velocity": 111, "channel": 0}, {"type": "note_on", "time": 38, "note": 67, "velocity": 105, "channel": 0}, {"type": "note_off", "time": 45, "note": 67, "velocity": 105, "channel": 0}, {"type": "note_on", "time": 32, "note": 67, "velocity": 106, "channel": 0}, {"type": "note_off", "time": 47, "note": 67, "velocity": 106, "channel": 0}, {"type": "note_on", "time": 25, "note": 67, "velocity": 111, "channel": 0}, {"type": "note_off", "time": 47, "note": 67, "velocity": 111, "channel": 0}, {"type": "note_on", "time": 45, "note": 67, "velocity": 114, "channel": 0}, {"type": "note_off", "time": 111, "note": 67, "velocity": 114, "channel": 0}, {"type": "note_on", "time": 49, "note": 72, "velocity": 108, "channel": 0}, {"type": "note_off", "time": 42, "note": 72, "velocity": 108, "channel": 0}, {"type": "note_on", "time": 23, "note": 72, "velocity": 101, "channel": 0}, {"type": "note_off", "time": 49, "note": 72, "velocity": 101, "channel": 0}, {"type": "note_on", "time": 31, "note": 72, "velocity": 109, "channel": 0}, {"type": "note_off", "time": 32, "note": 72, "velocity": 109, "channel": 0}, {"type": "note_on", "time": 21, "note": 72, "velocity": 112, "channel": 0}, {"type": "note_off", "time": 64, "note": 72, "velocity": 112, "channel": 0}, {"type": "note_on", "time": 47, "note": 67, "velocity": 107, "channel": 0}, {"type": "note_off", "time": 89, "note": 67, "velocity": 107, "channel": 0}, {"type": "note_on", "time": 170, "note": 67, "velocity": 105, "channel": 0}, {"type": "note_off", "time": 91, "note": 67, "velocity": 105, "channel": 0}, {"type": "note_on", "time": 1115, "note": 72, "velocity": 110, "channel": 0}, {"type": "note_off", "time": 334, "note": 72, "velocity": 110, "channel": 0}, {"type": "note_on", "time": 25, "note": 70, "velocity": 104, "channel": 0}, {"type": "note_off", "time": 87, "note": 70, "velocity": 104, "channel": 0}, {"type": "note_on", "time": 20, "note": 69, "velocity": 91, "channel": 0}, {"type": "note_off", "time": 45, "note": 69, "velocity": 91, "channel": 0}, {"type": "note_on", "time": 40, "note": 70, "velocity": 100, "channel": 0}, {"type": "note_off", "time": 53, "note": 70, "velocity": 100, "channel": 0}, {"type": "note_on", "time": 51, "note": 72, "velocity": 103, "channel": 0}, {"type": "note_off", "time": 96, "note": 72, "velocity": 103, "channel": 0}, {"type": "note_on", "time": 109, "note": 72, "velocity": 108, "channel": 0}, {"type": "note_off", "time": 237, "note": 72, "velocity": 108, "channel": 0}, {"type": "note_on", "time": 20, "note": 70, "velocity": 106, "channel": 0}, {"type": "note_off", "time": 100, "note": 70, "velocity": 106, "channel": 0}, {"type": "note_on", "time": 23, "note": 69, "velocity": 92, "channel": 0}, {"type": "note_off", "time": 64, "note": 69, "velocity": 92, "channel": 0}, {"type": "note_on", "time": 14, "note": 70, "velocity": 107, "channel": 0}, {"type": "note_off", "time": 85, "note": 70, "velocity": 107, "channel": 0}, {"type": "note_on", "time": 31, "note": 72, "velocity": 100, "channel": 0}, {"type": "note_off", "time": 113, "note": 72, "velocity": 100, "channel": 0}, {"type": "note_on", "time": 1131, "note": 70, "velocity": 101, "channel": 0}, {"type": "note_off", "time": 85, "note": 70, "velocity": 101, "channel": 0}, {"type": "note_on", "time": 18, "note": 69, "velocity": 82, "channel": 0}, {"type": "note_off", "time": 60, "note": 69, "velocity": 82, "channel": 0}, {"type": "note_on", "time": 20, "note": 70, "velocity": 103, "channel": 0}, {"type": "note_off", "time": 78, "note": 70, "velocity": 103, "channel": 0}, {"type": "note_on", "time": 21, "note": 72, "velocity": 110, "channel": 0}, {"type": "note_off", "time": 89, "note": 72, "velocity": 110, "channel": 0}, {"type": "note_on", "time": 98, "note": 71, "velocity": 110, "channel": 0}, {"type": "note_off", "time": 62, "note": 71, "velocity": 110, "channel": 0}, {"type": "note_on", "time": 23, "note": 70, "velocity": 102, "channel": 0}, {"type": "note_off", "time": 118, "note": 70, "velocity": 102, "channel": 0}, {"type": "note_on", "time": 76, "note": 69, "velocity": 108, "channel": 0}, {"type": "note_off", "time": 82, "note": 69, "velocity": 108, "channel": 0}, {"type": "note_on", "time": 32, "note": 67, "velocity": 109, "channel": 0}, {"type": "note_off", "time": 87, "note": 67, "velocity": 109, "channel": 0}, {"type": "note_on", "time": 109, "note": 65, "velocity": 102, "channel": 0}, {"type": "note_off", "time": 96, "note": 65, "velocity": 102, "channel": 0}, {"type": "note_on", "time": 20, "note": 64, "velocity": 86, "channel": 0}, {"type": "note_off", "time": 71, "note": 64, "velocity": 86, "channel": 0}, {"type": "note_on", "time": 89, "note": 58, "velocity": 94, "channel": 0}, {"type": "note_off", "time": 65, "note": 58, "velocity": 94, "channel": 0}, {"type": "note_on", "time": 46, "note": 63, "velocity": 102, "channel": 0}, {"type": "note_off", "time": 202, "note": 63, "velocity": 102, "channel": 0}, {"type": "note_on", "time": 32, "note": 61, "velocity": 100, "channel": 0}, {"type": "note_off", "time": 96, "note": 61, "velocity": 100, "channel": 0}, {"type": "note_on", "time": 40, "note": 59, "velocity": 91, "channel": 0}, {"type": "note_off", "time": 84, "note": 59, "velocity": 91, "channel": 0}, {"type": "note_on", "time": 14, "note": 60, "velocity": 98, "channel": 0}, {"type": "note_off", "time": 117, "note": 60, "velocity": 98, "channel": 0}, {"type": "note_on", "time": 32, "note": 57, "velocity": 95, "channel": 0}, {"type": "note_off", "time": 74, "note": 57, "velocity": 95, "channel": 0}, {"type": "note_on", "time": 74, "note": 58, "velocity": 87, "channel": 0}, {"type": "note_off", "time": 96, "note": 58, "velocity": 87, "channel": 0}, {"type": "note_on", "time": 3, "note": 60, "velocity": 93, "channel": 0}, {"type": "note_off", "time": 43, "note": 60, "velocity": 93, "channel": 0}, {"type": "note_on", "time": 30, "note": 65, "velocity": 110, "channel": 0}, {"type": "note_off", "time": 89, "note": 65, "velocity": 110, "channel": 0}, {"type": "note_on", "time": 974, "note": 65, "velocity": 103, "channel": 0}, {"type": "note_off", "time": 290, "note": 65, "velocity": 103, "channel": 0}, {"type": "note_on", "time": 76, "note": 63, "velocity": 102, "channel": 0}, {"type": "note_off", "time": 95, "note": 63, "velocity": 102, "channel": 0}, {"type": "note_on", "time": 87, "note": 60, "velocity": 95, "channel": 0}, {"type": "note_off", "time": 80, "note": 60, "velocity": 95, "channel": 0}, {"type": "note_on", "time": 47, "note": 62, "velocity": 109, "channel": 0}, {"type": "note_off", "time": 93, "note": 62, "velocity": 109, "channel": 0}, {"type": "note_on", "time": 82, "note": 65, "velocity": 104, "channel": 0}, {"type": "note_off", "time": 252, "note": 65, "velocity": 104, "channel": 0}, {"type": "note_on", "time": 53, "note": 61, "velocity": 97, "channel": 0}, {"type": "note_off", "time": 146, "note": 61, "velocity": 97, "channel": 0}, {"type": "note_on", "time": 21, "note": 65, "velocity": 108, "channel": 0}, {"type": "note_off", "time": 74, "note": 65, "velocity": 108, "channel": 0}, {"type": "note_on", "time": 188, "note": 60, "velocity": 90, "channel": 0}, {"type": "note_off", "time": 124, "note": 60, "velocity": 90, "channel": 0}, {"type": "note_on", "time": 111, "note": 65, "velocity": 108, "channel": 0}, {"type": "note_off", "time": 63, "note": 65, "velocity": 108, "channel": 0}, {"type": "note_on", "time": 51, "note": 58, "velocity": 97, "channel": 0}, {"type": "note_off", "time": 129, "note": 58, "velocity": 97, "channel": 0}, {"type": "note_on", "time": 36, "note": 65, "velocity": 107, "channel": 0}, {"type": "note_off", "time": 89, "note": 65, "velocity": 107, "channel": 0}, {"type": "note_on", "time": 67, "note": 57, "velocity": 96, "channel": 0}, {"type": "note_off", "time": 146, "note": 57, "velocity": 96, "channel": 0}, {"type": "note_on", "time": 34, "note": 65, "velocity": 98, "channel": 0}, {"type": "note_off", "time": 102, "note": 65, "velocity": 98, "channel": 0}, {"type": "note_on", "time": 91, "note": 56, "velocity": 96, "channel": 0}, {"type": "note_off", "time": 140, "note": 56, "velocity": 96, "channel": 0}, {"type": "note_on", "time": 435, "note": 63, "velocity": 103, "channel": 0}, {"type": "note_off", "time": 118, "note": 63, "velocity": 103, "channel": 0}, {"type": "note_on", "time": 56, "note": 60, "velocity": 91, "channel": 0}, {"type": "note_off", "time": 54, "note": 60, "velocity": 91, "channel": 0}, {"type": "note_on", "time": 12, "note": 61, "velocity": 95, "channel": 0}, {"type": "note_off", "time": 87, "note": 61, "velocity": 95, "channel": 0}, {"type": "note_on", "time": 14, "note": 63, "velocity": 109, "channel": 0}, {"type": "note_off", "time": 65, "note": 63, "velocity": 109, "channel": 0}, {"type": "note_on", "time": 27, "note": 60, "velocity": 96, "channel": 0}, {"type": "note_off", "time": 65, "note": 60, "velocity": 96, "channel": 0}, {"type": "note_on", "time": 32, "note": 61, "velocity": 96, "channel": 0}, {"type": "note_off", "time": 82, "note": 61, "velocity": 96, "channel": 0}, {"type": "note_on", "time": 10, "note": 58, "velocity": 95, "channel": 0}, {"type": "note_off", "time": 84, "note": 58, "velocity": 95, "channel": 0}, {"type": "note_on", "time": 479, "note": 64, "velocity": 109, "channel": 0}, {"type": "note_off", "time": 84, "note": 64, "velocity": 109, "channel": 0}, {"type": "note_on", "time": 23, "note": 60, "velocity": 101, "channel": 0}, {"type": "note_off", "time": 40, "note": 60, "velocity": 101, "channel": 0}, {"type": "note_on", "time": 45, "note": 57, "velocity": 95, "channel": 0}, {"type": "note_off", "time": 73, "note": 57, "velocity": 95, "channel": 0}, {"type": "note_on", "time": 47, "note": 55, "velocity": 101, "channel": 0}, {"type": "note_off", "time": 69, "note": 55, "velocity": 101, "channel": 0}, {"type": "note_on", "time": 25, "note": 54, "velocity": 93, "channel": 0}, {"type": "note_off", "time": 73, "note": 54, "velocity": 93, "channel": 0}, {"type": "note_on", "time": 53, "note": 56, "velocity": 82, "channel": 0}, {"type": "note_off", "time": 53, "note": 56, "velocity": 82, "channel": 0}, {"type": "note_on", "time": 20, "note": 60, "velocity": 99, "channel": 0}, {"type": "note_off", "time": 53, "note": 60, "velocity": 99, "channel": 0}, {"type": "note_on", "time": 18, "note": 63, "velocity": 100, "channel": 0}, {"type": "note_off", "time": 60, "note": 63, "velocity": 100, "channel": 0}, {"type": "note_on", "time": 14, "note": 60, "velocity": 95, "channel": 0}, {"type": "note_off", "time": 54, "note": 60, "velocity": 95, "channel": 0}, {"type": "note_on", "time": 83, "note": 61, "velocity": 98, "channel": 0}, {"type": "note_off", "time": 58, "note": 61, "velocity": 98, "channel": 0}, {"type": "note_on", "time": 4, "note": 62, "velocity": 102, "channel": 0}, {"type": "note_off", "time": 67, "note": 62, "velocity": 102, "channel": 0}, {"type": "note_on", "time": 36, "note": 64, "velocity": 102, "channel": 0}, {"type": "note_off", "time": 45, "note": 64, "velocity": 102, "channel": 0}, {"type": "note_on", "time": 18, "note": 65, "velocity": 105, "channel": 0}, {"type": "note_off", "time": 87, "note": 65, "velocity": 105, "channel": 0}, {"type": "note_on", "time": 40, "note": 67, "velocity": 96, "channel": 0}, {"type": "note_off", "time": 43, "note": 67, "velocity": 96, "channel": 0}, {"type": "note_on", "time": 38, "note": 69, "velocity": 113, "channel": 0}, {"type": "note_off", "time": 109, "note": 69, "velocity": 113, "channel": 0}, {"type": "note_on", "time": 290, "note": 67, "velocity": 105, "channel": 0}, {"type": "note_off", "time": 268, "note": 67, "velocity": 105, "channel": 0}, {"type": "note_on", "time": 21, "note": 65, "velocity": 88, "channel": 0}, {"type": "note_off", "time": 45, "note": 65, "velocity": 88, "channel": 0}, {"type": "note_on", "time": 16, "note": 67, "velocity": 109, "channel": 0}, {"type": "note_off", "time": 109, "note": 67, "velocity": 109, "channel": 0}, {"type": "note_on", "time": 16, "note": 65, "velocity": 105, "channel": 0}, {"type": "note_off", "time": 96, "note": 65, "velocity": 105, "channel": 0}, {"type": "note_on", "time": 109, "note": 64, "velocity": 102, "channel": 0}, {"type": "note_off", "time": 126, "note": 64, "velocity": 102, "channel": 0}, {"type": "note_on", "time": 73, "note": 64, "velocity": 104, "channel": 0}, {"type": "note_off", "time": 166, "note": 64, "velocity": 104, "channel": 0}, {"type": "note_on", "time": 42, "note": 62, "velocity": 95, "channel": 0}, {"type": "note_off", "time": 43, "note": 62, "velocity": 95, "channel": 0}, {"type": "note_on", "time": 23, "note": 64, "velocity": 103, "channel": 0}, {"type": "note_off", "time": 148, "note": 64, "velocity": 103, "channel": 0}, {"type": "note_on", "time": 38, "note": 62, "velocity": 103, "channel": 0}, {"type": "note_off", "time": 76, "note": 62, "velocity": 103, "channel": 0}, {"type": "note_on", "time": 149, "note": 59, "velocity": 96, "channel": 0}, {"type": "note_off", "time": 102, "note": 59, "velocity": 96, "channel": 0}, {"type": "note_on", "time": 142, "note": 67, "velocity": 111, "channel": 0}, {"type": "note_off", "time": 106, "note": 67, "velocity": 111, "channel": 0}, {"type": "note_on", "time": 17, "note": 69, "velocity": 107, "channel": 0}, {"type": "note_off", "time": 313, "note": 69, "velocity": 107, "channel": 0}, {"type": "note_on", "time": 464, "note": 65, "velocity": 85, "channel": 0}, {"type": "note_off", "time": 142, "note": 65, "velocity": 85, "channel": 0}, {"type": "note_on", "time": 53, "note": 62, "velocity": 107, "channel": 0}, {"type": "note_off", "time": 135, "note": 62, "velocity": 107, "channel": 0}, {"type": "note_on", "time": 74, "note": 58, "velocity": 96, "channel": 0}, {"type": "note_off", "time": 151, "note": 58, "velocity": 96, "channel": 0}, {"type": "note_on", "time": 144, "note": 69, "velocity": 101, "channel": 0}, {"type": "note_off", "time": 391, "note": 69, "velocity": 101, "channel": 0}, {"type": "note_on", "time": 782, "note": 69, "velocity": 111, "channel": 0}, {"type": "note_off", "time": 168, "note": 69, "velocity": 111, "channel": 0}, {"type": "note_on", "time": 36, "note": 67, "velocity": 105, "channel": 0}, {"type": "note_off", "time": 38, "note": 67, "velocity": 105, "channel": 0}, {"type": "note_on", "time": 31, "note": 65, "velocity": 89, "channel": 0}, {"type": "note_off", "time": 78, "note": 65, "velocity": 89, "channel": 0}, {"type": "note_on", "time": 60, "note": 69, "velocity": 108, "channel": 0}, {"type": "note_off", "time": 173, "note": 69, "velocity": 108, "channel": 0}, {"type": "note_on", "time": 23, "note": 65, "velocity": 102, "channel": 0}, {"type": "note_off", "time": 47, "note": 65, "velocity": 102, "channel": 0}, {"type": "note_on", "time": 171, "note": 69, "velocity": 113, "channel": 0}, {"type": "note_off", "time": 54, "note": 69, "velocity": 113, "channel": 0}, {"type": "note_on", "time": 25, "note": 68, "velocity": 90, "channel": 0}, {"type": "note_off", "time": 60, "note": 68, "velocity": 90, "channel": 0}, {"type": "note_on", "time": 32, "note": 69, "velocity": 113, "channel": 0}, {"type": "note_off", "time": 62, "note": 69, "velocity": 113, "channel": 0}, {"type": "note_on", "time": 53, "note": 65, "velocity": 94, "channel": 0}, {"type": "note_off", "time": 53, "note": 65, "velocity": 94, "channel": 0}, {"type": "note_on", "time": 234, "note": 69, "velocity": 115, "channel": 0}, {"type": "note_off", "time": 65, "note": 69, "velocity": 115, "channel": 0}, {"type": "note_on", "time": 17, "note": 68, "velocity": 89, "channel": 0}, {"type": "note_off", "time": 65, "note": 68, "velocity": 89, "channel": 0}, {"type": "note_on", "time": 15, "note": 69, "velocity": 110, "channel": 0}, {"type": "note_off", "time": 56, "note": 69, "velocity": 110, "channel": 0}, {"type": "note_on", "time": 36, "note": 65, "velocity": 97, "channel": 0}, {"type": "note_off", "time": 74, "note": 65, "velocity": 97, "channel": 0}, {"type": "note_on", "time": 197, "note": 69, "velocity": 113, "channel": 0}, {"type": "note_off", "time": 78, "note": 69, "velocity": 113, "channel": 0}, {"type": "note_on", "time": 20, "note": 68, "velocity": 9, "channel": 0}, {"type": "note_off", "time": 43, "note": 68, "velocity": 9, "channel": 0}, {"type": "note_on", "time": 21, "note": 69, "velocity": 113, "channel": 0}, {"type": "note_off", "time": 64, "note": 69, "velocity": 113, "channel": 0}, {"type": "note_on", "time": 42, "note": 65, "velocity": 96, "channel": 0}, {"type": "note_off", "time": 109, "note": 65, "velocity": 96, "channel": 0}, {"type": "note_on", "time": 170, "note": 69, "velocity": 115, "channel": 0}, {"type": "note_off", "time": 71, "note": 69, "velocity": 115, "channel": 0}, {"type": "note_on", "time": 25, "note": 70, "velocity": 111, "channel": 0}, {"type": "note_off", "time": 76, "note": 70, "velocity": 111, "channel": 0}, {"type": "note_on", "time": 25, "note": 69, "velocity": 111, "channel": 0}, {"type": "note_off", "time": 74, "note": 69, "velocity": 111, "channel": 0}, {"type": "note_on", "time": 23, "note": 70, "velocity": 112, "channel": 0}, {"type": "note_off", "time": 73, "note": 70, "velocity": 112, "channel": 0}, {"type": "note_on", "time": 29, "note": 70, "velocity": 114, "channel": 0}, {"type": "note_off", "time": 60, "note": 70, "velocity": 114, "channel": 0}, {"type": "note_on", "time": 31, "note": 70, "velocity": 110, "channel": 0}, {"type": "note_off", "time": 106, "note": 70, "velocity": 110, "channel": 0}, {"type": "note_on", "time": 20, "note": 69, "velocity": 102, "channel": 0}, {"type": "note_off", "time": 67, "note": 69, "velocity": 102, "channel": 0}, {"type": "note_on", "time": 18, "note": 70, "velocity": 113, "channel": 0}, {"type": "note_off", "time": 67, "note": 70, "velocity": 113, "channel": 0}, {"type": "note_on", "time": 32, "note": 70, "velocity": 113, "channel": 0}, {"type": "note_off", "time": 65, "note": 70, "velocity": 113, "channel": 0}, {"type": "note_on", "time": 21, "note": 70, "velocity": 111, "channel": 0}, {"type": "note_off", "time": 89, "note": 70, "velocity": 111, "channel": 0}, {"type": "note_on", "time": 20, "note": 70, "velocity": 118, "channel": 0}, {"type": "note_off", "time": 71, "note": 70, "velocity": 118, "channel": 0}, {"type": "note_on", "time": 31, "note": 70, "velocity": 111, "channel": 0}, {"type": "note_off", "time": 65, "note": 70, "velocity": 111, "channel": 0}, {"type": "note_on", "time": 124, "note": 70, "velocity": 111, "channel": 0}, {"type": "note_off", "time": 279, "note": 70, "velocity": 111, "channel": 0}, {"type": "note_on", "time": 9, "note": 69, "velocity": 116, "channel": 0}, {"type": "note_off", "time": 71, "note": 69, "velocity": 116, "channel": 0}, {"type": "note_on", "time": 38, "note": 68, "velocity": 97, "channel": 0}, {"type": "note_off", "time": 56, "note": 68, "velocity": 97, "channel": 0}, {"type": "note_on", "time": 23, "note": 70, "velocity": 114, "channel": 0}, {"type": "note_off", "time": 164, "note": 70, "velocity": 114, "channel": 0}, {"type": "note_on", "time": 18, "note": 69, "velocity": 112, "channel": 0}, {"type": "note_off", "time": 64, "note": 69, "velocity": 112, "channel": 0}, {"type": "note_on", "time": 137, "note": 65, "velocity": 107, "channel": 0}, {"type": "note_off", "time": 168, "note": 65, "velocity": 107, "channel": 0}, {"type": "note_on", "time": 148, "note": 60, "velocity": 96, "channel": 0}, {"type": "note_off", "time": 360, "note": 60, "velocity": 96, "channel": 0}, {"type": "note_on", "time": 1007, "note": 60, "velocity": 98, "channel": 0}, {"type": "note_off", "time": 45, "note": 60, "velocity": 98, "channel": 0}, {"type": "note_on", "time": 29, "note": 62, "velocity": 91, "channel": 0}, {"type": "note_off", "time": 80, "note": 62, "velocity": 91, "channel": 0}, {"type": "note_on", "time": 109, "note": 64, "velocity": 100, "channel": 0}, {"type": "note_off", "time": 120, "note": 64, "velocity": 100, "channel": 0}, {"type": "note_on", "time": 45, "note": 65, "velocity": 101, "channel": 0}, {"type": "note_off", "time": 135, "note": 65, "velocity": 101, "channel": 0}, {"type": "note_on", "time": 31, "note": 67, "velocity": 113, "channel": 0}, {"type": "note_off", "time": 155, "note": 67, "velocity": 113, "channel": 0}, {"type": "note_on", "time": 25, "note": 68, "velocity": 113, "channel": 0}, {"type": "note_off", "time": 128, "note": 68, "velocity": 113, "channel": 0}, {"type": "note_on", "time": 56, "note": 69, "velocity": 116, "channel": 0}, {"type": "note_off", "time": 166, "note": 69, "velocity": 116, "channel": 0}, {"type": "note_on", "time": 38, "note": 70, "velocity": 116, "channel": 0}, {"type": "note_off", "time": 153, "note": 70, "velocity": 116, "channel": 0}, {"type": "note_on", "time": 56, "note": 71, "velocity": 107, "channel": 0}, {"type": "note_off", "time": 155, "note": 71, "velocity": 107, "channel": 0}, {"type": "note_on", "time": 25, "note": 72, "velocity": 110, "channel": 0}, {"type": "note_off", "time": 128, "note": 72, "velocity": 110, "channel": 0}, {"type": "note_on", "time": 303, "note": 57, "velocity": 100, "channel": 0}, {"type": "note_off", "time": 131, "note": 57, "velocity": 100, "channel": 0}, {"type": "note_on", "time": 24, "note": 58, "velocity": 96, "channel": 0}, {"type": "note_off", "time": 159, "note": 58, "velocity": 96, "channel": 0}, {"type": "note_on", "time": 63, "note": 59, "velocity": 101, "channel": 0}, {"type": "note_off", "time": 142, "note": 59, "velocity": 101, "channel": 0}, {"type": "note_on", "time": 56, "note": 60, "velocity": 97, "channel": 0}, {"type": "note_off", "time": 140, "note": 60, "velocity": 97, "channel": 0}, {"type": "note_on", "time": 32, "note": 61, "velocity": 100, "channel": 0}, {"type": "note_off", "time": 126, "note": 61, "velocity": 100, "channel": 0}, {"type": "note_on", "time": 40, "note": 62, "velocity": 102, "channel": 0}, {"type": "note_off", "time": 142, "note": 62, "velocity": 102, "channel": 0}, {"type": "note_on", "time": 38, "note": 63, "velocity": 103, "channel": 0}, {"type": "note_off", "time": 138, "note": 63, "velocity": 103, "channel": 0}, {"type": "note_on", "time": 21, "note": 64, "velocity": 101, "channel": 0}, {"type": "note_off", "time": 155, "note": 64, "velocity": 101, "channel": 0}, {"type": "note_on", "time": 42, "note": 65, "velocity": 105, "channel": 0}, {"type": "note_off", "time": 131, "note": 65, "velocity": 105, "channel": 0}, {"type": "note_on", "time": 64, "note": 66, "velocity": 109, "channel": 0}, {"type": "note_off", "time": 148, "note": 66, "velocity": 109, "channel": 0}, {"type": "note_on", "time": 34, "note": 67, "velocity": 111, "channel": 0}, {"type": "note_off", "time": 102, "note": 67, "velocity": 111, "channel": 0}, {"type": "note_on", "time": 637, "note": 55, "velocity": 95, "channel": 0}, {"type": "note_off", "time": 62, "note": 55, "velocity": 95, "channel": 0}, {"type": "note_on", "time": 75, "note": 57, "velocity": 100, "channel": 0}, {"type": "note_off", "time": 96, "note": 57, "velocity": 100, "channel": 0}, {"type": "note_on", "time": 9, "note": 58, "velocity": 92, "channel": 0}, {"type": "note_off", "time": 151, "note": 58, "velocity": 92, "channel": 0}, {"type": "note_on", "time": 56, "note": 60, "velocity": 94, "channel": 0}, {"type": "note_off", "time": 153, "note": 60, "velocity": 94, "channel": 0}, {"type": "note_on", "time": 25, "note": 61, "velocity": 96, "channel": 0}, {"type": "note_off", "time": 138, "note": 61, "velocity": 96, "channel": 0}, {"type": "note_on", "time": 29, "note": 62, "velocity": 99, "channel": 0}, {"type": "note_off", "time": 148, "note": 62, "velocity": 99, "channel": 0}, {"type": "note_on", "time": 47, "note": 63, "velocity": 101, "channel": 0}, {"type": "note_off", "time": 135, "note": 63, "velocity": 101, "channel": 0}, {"type": "note_on", "time": 18, "note": 64, "velocity": 96, "channel": 0}, {"type": "note_off", "time": 151, "note": 64, "velocity": 96, "channel": 0}, {"type": "note_on", "time": 58, "note": 65, "velocity": 103, "channel": 0}, {"type": "note_off", "time": 142, "note": 65, "velocity": 103, "channel": 0}, {"type": "note_on", "time": 23, "note": 67, "velocity": 112, "channel": 0}, {"type": "note_off", "time": 173, "note": 67, "velocity": 112, "channel": 0}, {"type": "note_on", "time": 23, "note": 69, "velocity": 114, "channel": 0}, {"type": "note_off", "time": 160, "note": 69, "velocity": 114, "channel": 0}, {"type": "note_on", "time": 31, "note": 70, "velocity": 113, "channel": 0}, {"type": "note_off", "time": 181, "note": 70, "velocity": 113, "channel": 0}, {"type": "note_on", "time": 27, "note": 72, "velocity": 97, "channel": 0}, {"type": "note_off", "time": 153, "note": 72, "velocity": 97, "channel": 0}, {"type": "note_on", "time": 632, "note": 70, "velocity": 105, "channel": 0}, {"type": "note_off", "time": 151, "note": 70, "velocity": 105, "channel": 0}, {"type": "note_on", "time": 29, "note": 69, "velocity": 111, "channel": 0}, {"type": "note_off", "time": 151, "note": 69, "velocity": 111, "channel": 0}, {"type": "note_on", "time": 23, "note": 67, "velocity": 111, "channel": 0}, {"type": "note_off", "time": 155, "note": 67, "velocity": 111, "channel": 0}, {"type": "note_on", "time": 18, "note": 65, "velocity": 108, "channel": 0}, {"type": "note_off", "time": 76, "note": 65, "velocity": 108, "channel": 0}, {"type": "note_on", "time": 34, "note": 63, "velocity": 100, "channel": 0}, {"type": "note_off", "time": 117, "note": 63, "velocity": 100, "channel": 0}, {"type": "note_on", "time": 277, "note": 61, "velocity": 100, "channel": 0}, {"type": "note_off", "time": 95, "note": 61, "velocity": 100, "channel": 0}, {"type": "note_on", "time": 9, "note": 62, "velocity": 96, "channel": 0}, {"type": "note_off", "time": 144, "note": 62, "velocity": 96, "channel": 0}, {"type": "note_on", "time": 21, "note": 65, "velocity": 105, "channel": 0}, {"type": "note_off", "time": 76, "note": 65, "velocity": 105, "channel": 0}, {"type": "note_on", "time": 127, "note": 60, "velocity": 97, "channel": 0}, {"type": "note_off", "time": 210, "note": 60, "velocity": 97, "channel": 0}, {"type": "note_on", "time": 19, "note": 58, "velocity": 81, "channel": 0}, {"type": "note_off", "time": 96, "note": 58, "velocity": 81, "channel": 0}, {"type": "note_on", "time": 25, "note": 60, "velocity": 103, "channel": 0}, {"type": "note_off", "time": 60, "note": 60, "velocity": 103, "channel": 0}, {"type": "note_on", "time": 17, "note": 58, "velocity": 94, "channel": 0}, {"type": "note_off", "time": 381, "note": 58, "velocity": 94, "channel": 0}, {"type": "note_on", "time": 689, "note": 63, "velocity": 98, "channel": 0}, {"type": "note_off", "time": 113, "note": 63, "velocity": 98, "channel": 0}, {"type": "note_on", "time": 29, "note": 61, "velocity": 95, "channel": 0}, {"type": "note_off", "time": 31, "note": 61, "velocity": 95, "channel": 0}, {"type": "note_on", "time": 18, "note": 63, "velocity": 104, "channel": 0}, {"type": "note_off", "time": 82, "note": 63, "velocity": 104, "channel": 0}, {"type": "note_on", "time": 14, "note": 61, "velocity": 98, "channel": 0}, {"type": "note_off", "time": 62, "note": 61, "velocity": 98, "channel": 0}, {"type": "note_on", "time": 27, "note": 60, "velocity": 87, "channel": 0}, {"type": "note_off", "time": 45, "note": 60, "velocity": 87, "channel": 0}, {"type": "note_on", "time": 50, "note": 58, "velocity": 93, "channel": 0}, {"type": "note_off", "time": 80, "note": 58, "velocity": 93, "channel": 0}, {"type": "note_on", "time": 144, "note": 63, "velocity": 106, "channel": 0}, {"type": "note_off", "time": 100, "note": 63, "velocity": 106, "channel": 0}, {"type": "note_on", "time": 51, "note": 61, "velocity": 96, "channel": 0}, {"type": "note_off", "time": 47, "note": 61, "velocity": 96, "channel": 0}, {"type": "note_on", "time": 18, "note": 63, "velocity": 99, "channel": 0}, {"type": "note_off", "time": 76, "note": 63, "velocity": 99, "channel": 0}, {"type": "note_on", "time": 14, "note": 61, "velocity": 95, "channel": 0}, {"type": "note_off", "time": 102, "note": 61, "velocity": 95, "channel": 0}, {"type": "note_on", "time": 10, "note": 60, "velocity": 92, "channel": 0}, {"type": "note_off", "time": 58, "note": 60, "velocity": 92, "channel": 0}, {"type": "note_on", "time": 33, "note": 58, "velocity": 94, "channel": 0}, {"type": "note_off", "time": 87, "note": 58, "velocity": 94, "channel": 0}, {"type": "note_on", "time": 129, "note": 64, "velocity": 105, "channel": 0}, {"type": "note_off", "time": 78, "note": 64, "velocity": 105, "channel": 0}, {"type": "note_on", "time": 124, "note": 60, "velocity": 97, "channel": 0}, {"type": "note_off", "time": 58, "note": 60, "velocity": 97, "channel": 0}, {"type": "note_on", "time": 18, "note": 57, "velocity": 97, "channel": 0}, {"type": "note_off", "time": 93, "note": 57, "velocity": 97, "channel": 0}, {"type": "note_on", "time": 16, "note": 55, "velocity": 97, "channel": 0}, {"type": "note_off", "time": 40, "note": 55, "velocity": 97, "channel": 0}, {"type": "note_on", "time": 25, "note": 54, "velocity": 96, "channel": 0}, {"type": "note_off", "time": 93, "note": 54, "velocity": 96, "channel": 0}, {"type": "note_on", "time": 78, "note": 63, "velocity": 105, "channel": 0}, {"type": "note_off", "time": 100, "note": 63, "velocity": 105, "channel": 0}, {"type": "note_on", "time": 25, "note": 60, "velocity": 92, "channel": 0}, {"type": "note_off", "time": 51, "note": 60, "velocity": 92, "channel": 0}, {"type": "note_on", "time": 18, "note": 62, "velocity": 101, "channel": 0}, {"type": "note_off", "time": 58, "note": 62, "velocity": 101, "channel": 0}, {"type": "note_on", "time": 42, "note": 64, "velocity": 103, "channel": 0}, {"type": "note_off", "time": 58, "note": 64, "velocity": 103, "channel": 0}, {"type": "note_on", "time": 32, "note": 65, "velocity": 106, "channel": 0}, {"type": "note_off", "time": 80, "note": 65, "velocity": 106, "channel": 0}, {"type": "note_on", "time": 18, "note": 67, "velocity": 102, "channel": 0}, {"type": "note_off", "time": 58, "note": 67, "velocity": 102, "channel": 0}, {"type": "note_on", "time": 25, "note": 69, "velocity": 112, "channel": 0}, {"type": "note_off", "time": 87, "note": 69, "velocity": 112, "channel": 0}, {"type": "note_on", "time": 29, "note": 67, "velocity": 114, "channel": 0}, {"type": "note_off", "time": 34, "note": 67, "velocity": 114, "channel": 0}, {"type": "note_on", "time": 36, "note": 65, "velocity": 109, "channel": 0}, {"type": "note_off", "time": 85, "note": 65, "velocity": 109, "channel": 0}, {"type": "note_on", "time": 118, "note": 67, "velocity": 113, "channel": 0}, {"type": "note_off", "time": 274, "note": 67, "velocity": 113, "channel": 0}, {"type": "note_on", "time": 20, "note": 65, "velocity": 92, "channel": 0}, {"type": "note_off", "time": 71, "note": 65, "velocity": 92, "channel": 0}, {"type": "note_on", "time": 12, "note": 67, "velocity": 113, "channel": 0}, {"type": "note_off", "time": 74, "note": 67, "velocity": 113, "channel": 0}, {"type": "note_on", "time": 16, "note": 65, "velocity": 102, "channel": 0}, {"type": "note_off", "time": 109, "note": 65, "velocity": 102, "channel": 0}, {"type": "note_on", "time": 373, "note": 67, "velocity": 102, "channel": 0}, {"type": "note_off", "time": 113, "note": 67, "velocity": 102, "channel": 0}, {"type": "note_on", "time": 45, "note": 67, "velocity": 114, "channel": 0}, {"type": "note_off", "time": 96, "note": 67, "velocity": 114, "channel": 0}, {"type": "note_on", "time": 25, "note": 65, "velocity": 107, "channel": 0}, {"type": "note_off", "time": 84, "note": 65, "velocity": 107, "channel": 0}, {"type": "note_on", "time": 202, "note": 64, "velocity": 102, "channel": 0}, {"type": "note_off", "time": 235, "note": 64, "velocity": 102, "channel": 0}, {"type": "note_on", "time": 36, "note": 62, "velocity": 89, "channel": 0}, {"type": "note_off", "time": 53, "note": 62, "velocity": 89, "channel": 0}, {"type": "note_on", "time": 9, "note": 64, "velocity": 104, "channel": 0}, {"type": "note_off", "time": 98, "note": 64, "velocity": 104, "channel": 0}, {"type": "note_on", "time": 20, "note": 62, "velocity": 96, "channel": 0}, {"type": "note_off", "time": 349, "note": 62, "velocity": 96, "channel": 0}, {"type": "note_on", "time": 561, "note": 68, "velocity": 112, "channel": 0}, {"type": "note_off", "time": 65, "note": 68, "velocity": 112, "channel": 0}, {"type": "note_on", "time": 23, "note": 68, "velocity": 111, "channel": 0}, {"type": "note_off", "time": 73, "note": 68, "velocity": 111, "channel": 0}, {"type": "note_on", "time": 21, "note": 68, "velocity": 113, "channel": 0}, {"type": "note_off", "time": 69, "note": 68, "velocity": 113, "channel": 0}, {"type": "note_on", "time": 31, "note": 68, "velocity": 111, "channel": 0}, {"type": "note_off", "time": 71, "note": 68, "velocity": 111, "channel": 0}, {"type": "note_on", "time": 23, "note": 68, "velocity": 113, "channel": 0}, {"type": "note_off", "time": 71, "note": 68, "velocity": 113, "channel": 0}, {"type": "note_on", "time": 129, "note": 68, "velocity": 103, "channel": 0}, {"type": "note_off", "time": 131, "note": 68, "velocity": 103, "channel": 0}, {"type": "note_on", "time": 265, "note": 68, "velocity": 111, "channel": 0}, {"type": "note_off", "time": 85, "note": 68, "velocity": 111, "channel": 0}, {"type": "note_on", "time": 224, "note": 68, "velocity": 107, "channel": 0}, {"type": "note_off", "time": 80, "note": 68, "velocity": 107, "channel": 0}, {"type": "note_on", "time": 146, "note": 73, "velocity": 96, "channel": 0}, {"type": "note_off", "time": 80, "note": 73, "velocity": 96, "channel": 0}, {"type": "note_on", "time": 93, "note": 71, "velocity": 113, "channel": 0}, {"type": "note_off", "time": 159, "note": 71, "velocity": 113, "channel": 0}, {"type": "note_on", "time": 45, "note": 68, "velocity": 99, "channel": 0}, {"type": "note_off", "time": 96, "note": 68, "velocity": 99, "channel": 0}, {"type": "note_on", "time": 107, "note": 68, "velocity": 111, "channel": 0}, {"type": "note_off", "time": 124, "note": 68, "velocity": 111, "channel": 0}, {"type": "note_on", "time": 47, "note": 65, "velocity": 100, "channel": 0}, {"type": "note_off", "time": 84, "note": 65, "velocity": 100, "channel": 0}, {"type": "note_on", "time": 102, "note": 65, "velocity": 108, "channel": 0}, {"type": "note_off", "time": 137, "note": 65, "velocity": 108, "channel": 0}, {"type": "note_on", "time": 38, "note": 62, "velocity": 107, "channel": 0}, {"type": "note_off", "time": 60, "note": 62, "velocity": 107, "channel": 0}, {"type": "note_on", "time": 40, "note": 62, "velocity": 97, "channel": 0}, {"type": "note_off", "time": 93, "note": 62, "velocity": 97, "channel": 0}, {"type": "note_on", "time": 82, "note": 64, "velocity": 109, "channel": 0}, {"type": "note_off", "time": 160, "note": 64, "velocity": 109, "channel": 0}, {"type": "note_on", "time": 168, "note": 60, "velocity": 101, "channel": 0}, {"type": "note_off", "time": 446, "note": 60, "velocity": 101, "channel": 0}, {"type": "end_of_track", "time": 0}]]}