{"ticks_per_beat": 420, "tracks": [[{"type": "track_name", "name": "Melody", "time": 0}, {"type": "set_tempo", "tempo": 377358, "time": 0}, {"type": "key_signature", "key": "D", "time": 0}, {"type": "time_signature", "numerator": 4, "denominator": 4, "clocks_per_click": 24, "notated_32nd_notes_per_beat": 8, "time": 0}, {"type": "note_on", "time": 5701, "note": 61, "velocity": 110, "channel": 0}, {"type": "note_off", "time": 86, "note": 61, "velocity": 110, "channel": 0}, {"type": "note_on", "time": 11, "note": 62, "velocity": 119, "channel": 0}, {"type": "note_off", "time": 77, "note": 62, "velocity": 119, "channel": 0}, {"type": "note_on", "time": 18, "note": 66, "velocity": 118, "channel": 0}, {"type": "note_off", "time": 90, "note": 66, "velocity": 118, "channel": 0}, {"type": "note_on", "time": 21, "note": 69, "velocity": 107, "channel": 0}, {"type": "note_off", "time": 61, "note": 69, "velocity": 107, "channel": 0}, {"type": "note_on", "time": 9, "note": 73, "velocity": 109, "channel": 0}, {"type": "note_off", "time": 74, "note": 73, "velocity": 109, "channel": 0}, {"type": "note_on", "time": 65, "note": 76, "velocity": 121, "channel": 0}, {"type": "note_off", "time": 628, "note": 76, "velocity": 121, "channel": 0}, {"type": "note_on", "time": 160, "note": 73, "velocity": 111, "channel": 0}, {"type": "note_off", "time": 56, "note": 73, "velocity": 111, "channel": 0}, {"type": "note_on", "time": 26, "note": 69, "velocity": 113, "channel": 0}, {"type": "note_off", "time": 61, "note": 69, "velocity": 113, "channel": 0}, {"type": "note_on", "time": 28, "note": 66, "velocity": 116, "channel": 0}, {"type": "note_off", "time": 69, "note": 66, "velocity": 116, "channel": 0}, {"type": "note_on", "time": 9, "note": 62, "velocity": 118, "channel": 0}, {"type": "note_off", "time": 88, "note": 62, "velocity": 118, "channel": 0}, {"type": "note_on", "time": 16, "note": 61, "velocity": 104, "channel": 0}, {"type": "note_off", "time": 88, "note": 61, "velocity": 104, "channel": 0}, {"type": "note_on", "time": 22, "note": 59, "velocity": 108, "channel": 0}, {"type": "note_off", "time": 92, "note": 59, "velocity": 108, "channel": 0}, {"type": "note_on", "time": 54, "note": 58, "velocity": 109, "channel": 0}, {"type": "note_off", "time": 584, "note": 58, "velocity": 109, "channel": 0}, {"type": "note_on", "time": 548, "note": 46, "velocity": 111, "channel": 0}, {"type": "note_off", "time": 93, "note": 46, "velocity": 111, "channel": 0}, {"type": "note_on", "time": 3, "note": 47, "velocity": 111, "channel": 0}, {"type": "note_off", "time": 57, "note": 47, "velocity": 111, "channel": 0}, {"type": "note_on", "time": 5, "note": 51, "velocity": 109, "channel": 0}, {"type": "note_off", "time": 75, "note": 51, "velocity": 109, "channel": 0}, {"type": "note_on", "time": 9, "note": 54, "velocity": 120, "channel": 0}, {"type": "note_off", "time": 58, "note": 54, "velocity": 120, "channel": 0}, {"type": "note_on", "time": 25, "note": 58, "velocity": 114, "channel": 0}, {"type": "note_off", "time": 87, "note": 58, "velocity": 114, "channel": 0}, {"type": "note_on", "time": 14, "note": 55, "velocity": 110, "channel": 0}, {"type": "note_off", "time": 95, "note": 55, "velocity": 110, "channel": 0}, {"type": "note_on", "time": 4, "note": 56, "velocity": 104, "channel": 0}, {"type": "note_off", "time": 103, "note": 56, "velocity": 104, "channel": 0}, {"type": "note_on", "time": 8, "note": 58, "velocity": 106, "channel": 0}, {"type": "note_off", "time": 56, "note": 58, "velocity": 106, "channel": 0}, {"type": "note_on", "time": 4, "note": 59, "velocity": 112, "channel": 0}, {"type": "note_off", "time": 71, "note": 59, "velocity": 112, "channel": 0}, {"type": "note_on", "time": 4, "note": 60, "velocity": 110, "channel": 0}, {"type": "note_off", "time": 121, "note": 60, "velocity": 110, "channel": 0}, {"type": "note_on", "time": 56, "note": 63, "velocity": 114, "channel": 0}, {"type": "note_off", "time": 88, "note": 63, "velocity": 114, "channel": 0}, {"type": "note_on", "time": 16, "note": 65, "velocity": 108, "channel": 0}, {"type": "note_off", "time": 88, "note": 65, "velocity": 108, "channel": 0}, {"type": "note_on", "time": 15, "note": 70, "velocity": 125, "channel": 0}, {"type": "note_off", "time": 121, "note": 70, "velocity": 125, "channel": 0}, {"type": "note_on", "time": 1, "note": 68, "velocity": 120, "channel": 0}, {"type": "note_off", "time": 98, "note": 68, "velocity": 120, "channel": 0}, {"type": "note_on", "time": 4, "note": 67, "velocity": 115, "channel": 0}, {"type": "note_off", "time": 115, "note": 67, "velocity": 115, "channel": 0}, {"type": "note_on", "time": 5, "note": 65, "velocity": 117, "channel": 0}, {"type": "note_off", "time": 100, "note": 65, "velocity": 117, "channel": 0}, {"type": "note_on", "time": 5, "note": 63, "velocity": 116, "channel": 0}, {"type": "note_off", "time": 85, "note": 63, "velocity": 116, "channel": 0}, {"type": "note_on", "time": 5, "note": 61, "velocity": 114, "channel": 0}, {"type": "note_off", "time": 82, "note": 61, "velocity": 114, "channel": 0}, {"type": "note_on", "time": 1, "note": 60, "velocity": 114, "channel": 0}, {"type": "note_off", "time": 91, "note": 60, "velocity": 114, "channel": 0}, {"type": "note_on", "time": 59, "note": 58, "velocity": 99, "channel": 0}, {"type": "note_off", "time": 74, "note": 58, "velocity": 99, "channel": 0}, {"type": "note_on", "time": 11, "note": 55, "velocity": 99, "channel": 0}, {"type": "note_off", "time": 211, "note": 55, "velocity": 99, "channel": 0}, {"type": "note_on", "time": 1257, "note": 70, "velocity": 110, "channel": 0}, {"type": "note_off", "time": 89, "note": 70, "velocity": 110, "channel": 0}, {"type": "note_on", "time": 2, "note": 71, "velocity": 114, "channel": 0}, {"type": "note_off", "time": 92, "note": 71, "velocity": 114, "channel": 0}, {"type": "note_on", "time": 1, "note": 70, "velocity": 111, "channel": 0}, {"type": "note_off", "time": 223, "note": 70, "velocity": 111, "channel": 0}, {"type": "note_on", "time": 58, "note": 68, "velocity": 122, "channel": 0}, {"type": "note_off", "time": 166, "note": 68, "velocity": 122, "channel": 0}, {"type": "note_on", "time": 13, "note": 66, "velocity": 116, "channel": 0}, {"type": "note_off", "time": 169, "note": 66, "velocity": 116, "channel": 0}, {"type": "note_on", "time": 11, "note": 67, "velocity": 104, "channel": 0}, {"type": "note_off", "time": 79, "note": 67, "velocity": 104, "channel": 0}, {"type": "note_on", "time": 9, "note": 66, "velocity": 114, "channel": 0}, {"type": "note_off", "time": 115, "note": 66, "velocity": 114, "channel": 0}, {"type": "note_on", "time": 9, "note": 65, "velocity": 114, "channel": 0}, {"type": "note_off", "time": 233, "note": 65, "velocity": 114, "channel": 0}, {"type": "note_on", "time": 7, "note": 63, "velocity": 117, "channel": 0}, {"type": "note_off", "time": 193, "note": 63, "velocity": 117, "channel": 0}, {"type": "note_on", "time": 37, "note": 61, "velocity": 113, "channel": 0}, {"type": "note_off", "time": 159, "note": 61, "velocity": 113, "channel": 0}, {"type": "note_on", "time": 45, "note": 59, "velocity": 111, "channel": 0}, {"type": "note_off", "time": 152, "note": 59, "velocity": 111, "channel": 0}, {"type": "note_on", "time": 25, "note": 54, "velocity": 108, "channel": 0}, {"type": "note_off", "time": 197, "note": 54, "velocity": 108, "channel": 0}, {"type": "note_on", "time": 73, "note": 51, "velocity": 97, "channel": 0}, {"type": "note_off", "time": 76, "note": 51, "velocity": 97, "channel": 0}, {"type": "note_on", "time": 75, "note": 58, "velocity": 101, "channel": 0}, {"type": "note_off", "time": 428, "note": 58, "velocity": 101, "channel": 0}, {"type": "note_on", "time": 11, "note": 59, "velocity": 100, "channel": 0}, {"type": "note_off", "time": 186, "note": 59, "velocity": 100, "channel": 0}, {"type": "note_on", "time": 36, "note": 56, "velocity": 104, "channel": 0}, {"type": "note_off", "time": 446, "note": 56, "velocity": 104, "channel": 0}, {"type": "note_on", "time": 1318, "note": 68, "velocity": 119, "channel": 0}, {"type": "note_off", "time": 104, "note": 68, "velocity": 119, "channel": 0}, {"type": "note_on", "time": 14, "note": 70, "velocity": 116, "channel": 0}, {"type": "note_off", "time": 161, "note": 70, "velocity": 116, "channel": 0}, {"type": "note_on", "time": 7, "note": 66, "velocity": 113, "channel": 0}, {"type": "note_off", "time": 96, "note": 66, "velocity": 113, "channel": 0}, {"type": "note_on", "time": 9, "note": 68, "velocity": 117, "channel": 0}, {"type": "note_off", "time": 119, "note": 68, "velocity": 117, "channel": 0}, {"type": "note_on", "time": 16, "note": 64, "velocity": 119, "channel": 0}, {"type": "note_off", "time": 132, "note": 64, "velocity": 119, "channel": 0}, {"type": "note_on", "time": 28, "note": 66, "velocity": 114, "channel": 0}, {"type": "note_off", "time": 104, "note": 66, "velocity": 114, "channel": 0}, {"type": "note_on", "time": 25, "note": 61, "velocity": 106, "channel": 0}, {"type": "note_off", "time": 120, "note": 61, "velocity": 106, "channel": 0}, {"type": "note_on", "time": 27, "note": 64, "velocity": 117, "channel": 0}, {"type": "note_off", "time": 137, "note": 64, "velocity": 117, "channel": 0}, {"type": "note_on", "time": 26, "note": 59, "velocity": 98, "channel": 0}, {"type": "note_off", "time": 84, "note": 59, "velocity": 98, "channel": 0}, {"type": "note_on", "time": 6, "note": 61, "velocity": 104, "channel": 0}, {"type": "note_off", "time": 125, "note": 61, "velocity": 104, "channel": 0}, {"type": "note_on", "time": 96, "note": 56, "velocity": 97, "channel": 0}, {"type": "note_off", "time": 91, "note": 56, "velocity": 97, "channel": 0}, {"type": "note_on", "time": 14, "note": 58, "velocity": 104, "channel": 0}, {"type": "note_off", "time": 77, "note": 58, "velocity": 104, "channel": 0}, {"type": "note_on", "time": 23, "note": 54, "velocity": 118, "channel": 0}, {"type": "note_off", "time": 110, "note": 54, "velocity": 118, "channel": 0}, {"type": "note_on", "time": 56, "note": 56, "velocity": 111, "channel": 0}, {"type": "note_off", "time": 134, "note": 56, "velocity": 111, "channel": 0}, {"type": "note_on", "time": 36, "note": 52, "velocity": 106, "channel": 0}, {"type": "note_off", "time": 67, "note": 52, "velocity": 106, "channel": 0}, {"type": "note_on", "time": 15, "note": 54, "velocity": 106, "channel": 0}, {"type": "note_off", "time": 100, "note": 54, "velocity": 106, "channel": 0}, {"type": "note_on", "time": 14, "note": 49, "velocity": 117, "channel": 0}, {"type": "note_off", "time": 160, "note": 49, "velocity": 117, "channel": 0}, {"type": "note_on", "time": 20, "note": 52, "velocity": 114, "channel": 0}, {"type": "note_off", "time": 116, "note": 52, "velocity": 114, "channel": 0}, {"type": "note_on", "time": 0, "note": 54, "velocity": 105, "channel": 0}, {"type": "note_off", "time": 104, "note": 54, "velocity": 105, "channel": 0}, {"type": "note_on", "time": 6, "note": 56, "velocity": 107, "channel": 0}, {"type": "note_off", "time": 113, "note": 56, "velocity": 107, "channel": 0}, {"type": "note_on", "time": 20, "note": 58, "velocity": 105, "channel": 0}, {"type": "note_off", "time": 114, "note": 58, "velocity": 105, "channel": 0}, {"type": "note_on", "time": 20, "note": 59, "velocity": 101, "channel": 0}, {"type": "note_off", "time": 119, "note": 59, "velocity": 101, "channel": 0}, {"type": "note_on", "time": 14, "note": 61, "velocity": 103, "channel": 0}, {"type": "note_off", "time": 128, "note": 61, "velocity": 103, "channel": 0}, {"type": "note_on", "time": 54, "note": 64, "velocity": 97, "channel": 0}, {"type": "note_off", "time": 90, "note": 64, "velocity": 97, "channel": 0}, {"type": "note_on", "time": 31, "note": 67, "velocity": 107, "channel": 0}, {"type": "note_off", "time": 113, "note": 67, "velocity": 107, "channel": 0}, {"type": "note_on", "time": 81, "note": 68, "velocity": 105, "channel": 0}, {"type": "note_off", "time": 45, "note": 68, "velocity": 105, "channel": 0}, {"type": "note_on", "time": 14, "note": 70, "velocity": 113, "channel": 0}, {"type": "note_off", "time": 206, "note": 70, "velocity": 113, "channel": 0}, {"type": "note_on", "time": 176, "note": 68, "velocity": 120, "channel": 0}, {"type": "note_off", "time": 239, "note": 68, "velocity": 120, "channel": 0}, {"type": "note_on", "time": 30, "note": 66, "velocity": 120, "channel": 0}, {"type": "note_off", "time": 69, "note": 66, "velocity": 120, "channel": 0}, {"type": "note_on", "time": 5, "note": 67, "velocity": 114, "channel": 0}, {"type": "note_off", "time": 241, "note": 67, "velocity": 114, "channel": 0}, {"type": "note_on", "time": 76, "note": 65, "velocity": 116, "channel": 0}, {"type": "note_off", "time": 155, "note": 65, "velocity": 116, "channel": 0}, {"type": "note_on", "time": 32, "note": 63, "velocity": 118, "channel": 0}, {"type": "note_off", "time": 207, "note": 63, "velocity": 118, "channel": 0}, {"type": "note_on", "time": 11, "note": 60, "velocity": 108, "channel": 0}, {"type": "note_off", "time": 130, "note": 60, "velocity": 108, "channel": 0}, {"type": "note_on", "time": 29, "note": 58, "velocity": 105, "channel": 0}, {"type": "note_off", "time": 216, "note": 58, "velocity": 105, "channel": 0}, {"type": "note_on", "time": 35, "note": 56, "velocity": 109, "channel": 0}, {"type": "note_off", "time": 115, "note": 56, "velocity": 109, "channel": 0}, {"type": "note_on", "time": 47, "note": 55, "velocity": 105, "channel": 0}, {"type": "note_off", "time": 281, "note": 55, "velocity": 105, "channel": 0}, {"type": "note_on", "time": 5, "note": 51, "velocity": 115, "channel": 0}, {"type": "note_off", "time": 101, "note": 51, "velocity": 115, "channel": 0}, {"type": "note_on", "time": 13, "note": 60, "velocity": 110, "channel": 0}, {"type": "note_off", "time": 197, "note": 60, "velocity": 110, "channel": 0}, {"type": "note_on", "time": 38, "note": 57, "velocity": 103, "channel": 0}, {"type": "note_off", "time": 89, "note": 57, "velocity": 103, "channel": 0}, {"type": "note_on", "time": 14, "note": 53, "velocity": 106, "channel": 0}, {"type": "note_off", "time": 110, "note": 53, "velocity": 106, "channel": 0}, {"type": "note_on", "time": 5, "note": 50, "velocity": 100, "channel": 0}, {"type": "note_off", "time": 252, "note": 50, "velocity": 100, "channel": 0}, {"type": "note_on", "time": 55, "note": 58, "velocity": 108, "channel": 0}, {"type": "note_off", "time": 71, "note": 58, "velocity": 108, "channel": 0}, {"type": "note_on", "time": 7, "note": 59, "velocity": 101, "channel": 0}, {"type": "note_off", "time": 341, "note": 59, "velocity": 101, "channel": 0}, {"type": "note_on", "time": 984, "note": 61, "velocity": 109, "channel": 0}, {"type": "note_off", "time": 97, "note": 61, "velocity": 109, "channel": 0}, {"type": "note_on", "time": 58, "note": 64, "velocity": 103, "channel": 0}, {"type": "note_off", "time": 69, "note": 64, "velocity": 103, "channel": 0}, {"type": "note_on", "time": 27, "note": 68, "velocity": 109, "channel": 0}, {"type": "note_off", "time": 68, "note": 68, "velocity": 109, "channel": 0}, {"type": "note_on", "time": 13, "note": 71, "velocity": 112, "channel": 0}, {"type": "note_off", "time": 73, "note": 71, "velocity": 112, "channel": 0}, {"type": "note_on", "time": 15, "note": 70, "velocity": 112, "channel": 0}, {"type": "note_off", "time": 233, "note": 70, "velocity": 112, "channel": 0}, {"type": "note_on", "time": 16, "note": 68, "velocity": 116, "channel": 0}, {"type": "note_off", "time": 176, "note": 68, "velocity": 116, "channel": 0}, {"type": "note_on", "time": 19, "note": 66, "velocity": 111, "channel": 0}, {"type": "note_off", "time": 195, "note": 66, "velocity": 111, "channel": 0}, {"type": "note_on", "time": 12, "note": 64, "velocity": 120, "channel": 0}, {"type": "note_off", "time": 179, "note": 64, "velocity": 120, "channel": 0}, {"type": "note_on", "time": 48, "note": 63, "velocity": 117, "channel": 0}, {"type": "note_off", "time": 74, "note": 63, "velocity": 117, "channel": 0}, {"type": "note_on", "time": 5, "note": 66, "velocity": 102, "channel": 0}, {"type": "note_off", "time": 52, "note": 66, "velocity": 102, "channel": 0}, {"type": "note_on", "time": 12, "note": 63, "velocity": 108, "channel": 0}, {"type": "note_off", "time": 54, "note": 63, "velocity": 108, "channel": 0}, {"type": "note_on", "time": 22, "note": 61, "velocity": 107, "channel": 0}, {"type": "note_off", "time": 111, "note": 61, "velocity": 107, "channel": 0}, {"type": "note_on", "time": 25, "note": 60, "velocity": 103, "channel": 0}, {"type": "note_off", "time": 231, "note": 60, "velocity": 103, "channel": 0}, {"type": "note_on", "time": 27, "note": 58, "velocity": 101, "channel": 0}, {"type": "note_off", "time": 131, "note": 58, "velocity": 101, "channel": 0}, {"type": "note_on", "time": 26, "note": 56, "velocity": 95, "channel": 0}, {"type": "note_off", "time": 87, "note": 56, "velocity": 95, "channel": 0}, {"type": "note_on", "time": 12, "note": 60, "velocity": 98, "channel": 0}, {"type": "note_off", "time": 72, "note": 60, "velocity": 98, "channel": 0}, {"type": "note_on", "time": 16, "note": 63, "velocity": 108, "channel": 0}, {"type": "note_off", "time": 94, "note": 63, "velocity": 108, "channel": 0}, {"type": "note_on", "time": 0, "note": 67, "velocity": 114, "channel": 0}, {"type": "note_off", "time": 83, "note": 67, "velocity": 114, "channel": 0}, {"type": "note_on", "time": 66, "note": 62, "velocity": 114, "channel": 0}, {"type": "note_off", "time": 292, "note": 62, "velocity": 114, "channel": 0}, {"type": "note_on", "time": 8, "note": 60, "velocity": 94, "channel": 0}, {"type": "note_off", "time": 65, "note": 60, "velocity": 94, "channel": 0}, {"type": "note_on", "time": 31, "note": 65, "velocity": 118, "channel": 0}, {"type": "note_off", "time": 323, "note": 65, "velocity": 118, "channel": 0}, {"type": "note_on", "time": 49, "note": 63, "velocity": 112, "channel": 0}, {"type": "note_off", "time": 222, "note": 63, "velocity": 112, "channel": 0}, {"type": "note_on", "time": 179, "note": 55, "velocity": 99, "channel": 0}, {"type": "note_off", "time": 159, "note": 55, "velocity": 99, "channel": 0}, {"type": "note_on", "time": 8, "note": 54, "velocity": 88, "channel": 0}, {"type": "note_off", "time": 227, "note": 54, "velocity": 88, "channel": 0}, {"type": "note_on", "time": 28, "note": 55, "velocity": 104, "channel": 0}, {"type": "note_off", "time": 93, "note": 55, "velocity": 104, "channel": 0}, {"type": "note_on", "time": 11, "note": 62, "velocity": 113, "channel": 0}, {"type": "note_off", "time": 273, "note": 62, "velocity": 113, "channel": 0}, {"type": "note_on", "time": 17, "note": 60, "velocity": 108, "channel": 0}, {"type": "note_off", "time": 119, "note": 60, "velocity": 108, "channel": 0}, {"type": "note_on", "time": 46, "note": 57, "velocity": 99, "channel": 0}, {"type": "note_off", "time": 222, "note": 57, "velocity": 99, "channel": 0}, {"type": "note_on", "time": 63, "note": 47, "velocity": 95, "channel": 0}, {"type": "note_off", "time": 101, "note": 47, "velocity": 95, "channel": 0}, {"type": "note_on", "time": 15, "note": 51, "velocity": 108, "channel": 0}, {"type": "note_off", "time": 250, "note": 51, "velocity": 108, "channel": 0}, {"type": "note_on", "time": 17, "note": 55, "velocity": 109, "channel": 0}, {"type": "note_off", "time": 134, "note": 55, "velocity": 109, "channel": 0}, {"type": "note_on", "time": 25, "note": 54, "velocity": 98, "channel": 0}, {"type": "note_off", "time": 243, "note": 54, "velocity": 98, "channel": 0}, {"type": "note_on", "time": 59, "note": 57, "velocity": 99, "channel": 0}, {"type": "note_off", "time": 101, "note": 57, "velocity": 99, "channel": 0}, {"type": "note_on", "time": 51, "note": 61, "velocity": 95, "channel": 0}, {"type": "note_off", "time": 210, "note": 61, "velocity": 95, "channel": 0}, {"type": "note_on", "time": 41, "note": 64, "velocity": 112, "channel": 0}, {"type": "note_off", "time": 169, "note": 64, "velocity": 112, "channel": 0}, {"type": "note_on", "time": 31, "note": 66, "velocity": 106, "channel": 0}, {"type": "note_off", "time": 392, "note": 66, "velocity": 106, "channel": 0}, {"type": "note_on", "time": 3, "note": 61, "velocity": 98, "channel": 0}, {"type": "note_off", "time": 235, "note": 61, "velocity": 98, "channel": 0}, {"type": "note_on", "time": 28, "note": 68, "velocity": 114, "channel": 0}, {"type": "note_off", "time": 461, "note": 68, "velocity": 114, "channel": 0}, {"type": "note_on", "time": 446, "note": 70, "velocity": 118, "channel": 0}, {"type": "note_off", "time": 114, "note": 70, "velocity": 118, "channel": 0}, {"type": "note_on", "time": 13, "note": 63, "velocity": 107, "channel": 0}, {"type": "note_off", "time": 67, "note": 63, "velocity": 107, "channel": 0}, {"type": "note_on", "time": 22, "note": 58, "velocity": 95, "channel": 0}, {"type": "note_off", "time": 59, "note": 58, "velocity": 95, "channel": 0}, {"type": "note_on", "time": 25, "note": 56, "velocity": 96, "channel": 0}, {"type": "note_off", "time": 171, "note": 56, "velocity": 96, "channel": 0}, {"type": "note_on", "time": 42, "note": 58, "velocity": 100, "channel": 0}, {"type": "note_off", "time": 159, "note": 58, "velocity": 100, "channel": 0}, {"type": "note_on", "time": 1305, "note": 72, "velocity": 102, "channel": 0}, {"type": "note_off", "time": 41, "note": 72, "velocity": 102, "channel": 0}, {"type": "note_on", "time": 10, "note": 73, "velocity": 118, "channel": 0}, {"type": "note_off", "time": 263, "note": 73, "velocity": 118, "channel": 0}, {"type": "note_on", "time": 28, "note": 66, "velocity": 102, "channel": 0}, {"type": "note_off", "time": 43, "note": 66, "velocity": 102, "channel": 0}, {"type": "note_on", "time": 3, "note": 63, "velocity": 109, "channel": 0}, {"type": "note_off", "time": 52, "note": 63, "velocity": 109, "channel": 0}, {"type": "note_on", "time": 41, "note": 61, "velocity": 107, "channel": 0}, {"type": "note_off", "time": 104, "note": 61, "velocity": 107, "channel": 0}, {"type": "note_on", "time": 37, "note": 59, "velocity": 100, "channel": 0}, {"type": "note_off", "time": 198, "note": 59, "velocity": 100, "channel": 0}, {"type": "note_on", "time": 36, "note": 61, "velocity": 101, "channel": 0}, {"type": "note_off", "time": 1301, "note": 61, "velocity": 101, "channel": 0}, {"type": "note_on", "time": 453, "note": 70, "velocity": 116, "channel": 0}, {"type": "note_off", "time": 149, "note": 70, "velocity": 116, "channel": 0}, {"type": "note_on", "time": 239, "note": 70, "velocity": 116, "channel": 0}, {"type": "note_off", "time": 335, "note": 70, "velocity": 116, "channel": 0}, {"type": "note_on", "time": 7, "note": 68, "velocity": 103, "channel": 0}, {"type": "note_off", "time": 49, "note": 68, "velocity": 103, "channel": 0}, {"type": "note_on", "time": 23, "note": 63, "velocity": 110, "channel": 0}, {"type": "note_off", "time": 66, "note": 63, "velocity": 110, "channel": 0}, {"type": "note_on", "time": 18, "note": 58, "velocity": 97, "channel": 0}, {"type": "note_off", "time": 68, "note": 58, "velocity": 97, "channel": 0}, {"type": "note_on", "time": 33, "note": 56, "velocity": 93, "channel": 0}, {"type": "note_off", "time": 188, "note": 56, "velocity": 93, "channel": 0}, {"type": "note_on", "time": 67, "note": 58, "velocity": 97, "channel": 0}, {"type": "note_off", "time": 575, "note": 58, "velocity": 97, "channel": 0}, {"type": "note_on", "time": 236, "note": 67, "velocity": 115, "channel": 0}, {"type": "note_off", "time": 235, "note": 67, "velocity": 115, "channel": 0}, {"type": "note_on", "time": 27, "note": 62, "velocity": 105, "channel": 0}, {"type": "note_off", "time": 61, "note": 62, "velocity": 105, "channel": 0}, {"type": "note_on", "time": 25, "note": 58, "velocity": 97, "channel": 0}, {"type": "note_off", "time": 55, "note": 58, "velocity": 97, "channel": 0}, {"type": "note_on", "time": 20, "note": 55, "velocity": 93, "channel": 0}, {"type": "note_off", "time": 57, "note": 55, "velocity": 93, "channel": 0}, {"type": "note_on", "time": 8, "note": 53, "velocity": 96, "channel": 0}, {"type": "note_off", "time": 146, "note": 53, "velocity": 96, "channel": 0}, {"type": "note_on", "time": 12, "note": 55, "velocity": 97, "channel": 0}, {"type": "note_off", "time": 178, "note": 55, "velocity": 97, "channel": 0}, {"type": "note_on", "time": 460, "note": 55, "velocity": 107, "channel": 0}, {"type": "note_off", "time": 60, "note": 55, "velocity": 107, "channel": 0}, {"type": "note_on", "time": 106, "note": 51, "velocity": 92, "channel": 0}, {"type": "note_off", "time": 222, "note": 51, "velocity": 92, "channel": 0}, {"type": "note_on", "time": 14, "note": 53, "velocity": 100, "channel": 0}, {"type": "note_off", "time": 390, "note": 53, "velocity": 100, "channel": 0}, {"type": "note_on", "time": 1245, "note": 59, "velocity": 108, "channel": 0}, {"type": "note_off", "time": 88, "note": 59, "velocity": 108, "channel": 0}, {"type": "note_on", "time": 20, "note": 58, "velocity": 106, "channel": 0}, {"type": "note_off", "time": 98, "note": 58, "velocity": 106, "channel": 0}, {"type": "note_on", "time": 0, "note": 56, "velocity": 100, "channel": 0}, {"type": "note_off", "time": 309, "note": 56, "velocity": 100, "channel": 0}, {"type": "note_on", "time": 10, "note": 53, "velocity": 112, "channel": 0}, {"type": "note_off", "time": 46, "note": 53, "velocity": 112, "channel": 0}, {"type": "note_on", "time": 6, "note": 56, "velocity": 109, "channel": 0}, {"type": "note_off", "time": 102, "note": 56, "velocity": 109, "channel": 0}, {"type": "note_on", "time": 10, "note": 54, "velocity": 102, "channel": 0}, {"type": "note_off", "time": 99, "note": 54, "velocity": 102, "channel": 0}, {"type": "note_on", "time": 4, "note": 53, "velocity": 102, "channel": 0}, {"type": "note_off", "time": 109, "note": 53, "velocity": 102, "channel": 0}, {"type": "note_on", "time": 8, "note": 56, "velocity": 97, "channel": 0}, {"type": "note_off", "time": 61, "note": 56, "velocity": 97, "channel": 0}, {"type": "note_on", "time": 20, "note": 59, "velocity": 102, "channel": 0}, {"type": "note_off", "time": 105, "note": 59, "velocity": 102, "channel": 0}, {"type": "note_on", "time": 0, "note": 56, "velocity": 96, "channel": 0}, {"type": "note_off", "time": 78, "note": 56, "velocity": 96, "channel": 0}, {"type": "note_on", "time": 14, "note": 63, "velocity": 114, "channel": 0}, {"type": "note_off", "time": 96, "note": 63, "velocity": 114, "channel": 0}, {"type": "note_on", "time": 6, "note": 62, "velocity": 113, "channel": 0}, {"type": "note_off", "time": 101, "note": 62, "velocity": 113, "channel": 0}, {"type": "note_on", "time": 0, "note": 61, "velocity": 102, "channel": 0}, {"type": "note_off", "time": 114, "note": 61, "velocity": 102, "channel": 0}, {"type": "note_on", "time": 17, "note": 59, "velocity": 106, "channel": 0}, {"type": "note_off", "time": 71, "note": 59, "velocity": 106, "channel": 0}, {"type": "note_on", "time": 13, "note": 58, "velocity": 103, "channel": 0}, {"type": "note_off", "time": 104, "note": 58, "velocity": 103, "channel": 0}, {"type": "note_on", "time": 35, "note": 54, "velocity": 95, "channel": 0}, {"type": "note_off", "time": 94, "note": 54, "velocity": 95, "channel": 0}, {"type": "note_on", "time": 23, "note": 56, "velocity": 104, "channel": 0}, {"type": "note_off", "time": 188, "note": 56, "velocity": 104, "channel": 0}, {"type": "note_on", "time": 12, "note": 52, "velocity": 101, "channel": 0}, {"type": "note_off", "time": 66, "note": 52, "velocity": 101, "channel": 0}, {"type": "note_on", "time": 131, "note": 52, "velocity": 106, "channel": 0}, {"type": "note_off", "time": 224, "note": 52, "velocity": 106, "channel": 0}, {"type": "note_on", "time": 1428, "note": 47, "velocity": 111, "channel": 0}, {"type": "note_off", "time": 108, "note": 47, "velocity": 111, "channel": 0}, {"type": "note_on", "time": 18, "note": 52, "velocity": 109, "channel": 0}, {"type": "note_off", "time": 101, "note": 52, "velocity": 109, "channel": 0}, {"type": "note_on", "time": 36, "note": 57, "velocity": 114, "channel": 0}, {"type": "note_off", "time": 140, "note": 57, "velocity": 114, "channel": 0}, {"type": "note_on", "time": 3, "note": 54, "velocity": 98, "channel": 0}, {"type": "note_off", "time": 116, "note": 54, "velocity": 98, "channel": 0}, {"type": "note_on", "time": 66, "note": 59, "velocity": 97, "channel": 0}, {"type": "note_off", "time": 64, "note": 59, "velocity": 97, "channel": 0}, {"type": "note_on", "time": 8, "note": 64, "velocity": 123, "channel": 0}, {"type": "note_off", "time": 128, "note": 64, "velocity": 123, "channel": 0}, {"type": "note_on", "time": 221, "note": 66, "velocity": 101, "channel": 0}, {"type": "note_off", "time": 69, "note": 66, "velocity": 101, "channel": 0}, {"type": "note_on", "time": 12, "note": 71, "velocity": 113, "channel": 0}, {"type": "note_off", "time": 114, "note": 71, "velocity": 113, "channel": 0}, {"type": "note_on", "time": 15, "note": 68, "velocity": 117, "channel": 0}, {"type": "note_off", "time": 204, "note": 68, "velocity": 117, "channel": 0}, {"type": "note_on", "time": 459, "note": 63, "velocity": 119, "channel": 0}, {"type": "note_off", "time": 109, "note": 63, "velocity": 119, "channel": 0}, {"type": "note_on", "time": 8, "note": 66, "velocity": 114, "channel": 0}, {"type": "note_off", "time": 114, "note": 66, "velocity": 114, "channel": 0}, {"type": "note_on", "time": 42, "note": 63, "velocity": 114, "channel": 0}, {"type": "note_off", "time": 93, "note": 63, "velocity": 114, "channel": 0}, {"type": "note_on", "time": 21, "note": 64, "velocity": 119, "channel": 0}, {"type": "note_off", "time": 156, "note": 64, "velocity": 119, "channel": 0}, {"type": "note_on", "time": 4, "note": 61, "velocity": 111, "channel": 0}, {"type": "note_off", "time": 109, "note": 61, "velocity": 111, "channel": 0}, {"type": "note_on", "time": 17, "note": 59, "velocity": 105, "channel": 0}, {"type": "note_off", "time": 109, "note": 59, "velocity": 105, "channel": 0}, {"type": "note_on", "time": 56, "note": 56, "velocity": 106, "channel": 0}, {"type": "note_off", "time": 101, "note": 56, "velocity": 106, "channel": 0}, {"type": "note_on", "time": 3, "note": 52, "velocity": 99, "channel": 0}, {"type": "note_off", "time": 89, "note": 52, "velocity": 99, "channel": 0}, {"type": "note_on", "time": 435, "note": 52, "velocity": 111, "channel": 0}, {"type": "note_off", "time": 122, "note": 52, "velocity": 111, "channel": 0}, {"type": "note_on", "time": 22, "note": 54, "velocity": 108, "channel": 0}, {"type": "note_off", "time": 96, "note": 54, "velocity": 108, "channel": 0}, {"type": "note_on", "time": 12, "note": 56, "velocity": 115, "channel": 0}, {"type": "note_off", "time": 102, "note": 56, "velocity": 115, "channel": 0}, {"type": "note_on", "time": 9, "note": 59, "velocity": 111, "channel": 0}, {"type": "note_off", "time": 110, "note": 59, "velocity": 111, "channel": 0}, {"type": "note_on", "time": 14, "note": 56, "velocity": 108, "channel": 0}, {"type": "note_off", "time": 112, "note": 56, "velocity": 108, "channel": 0}, {"type": "note_on", "time": 32, "note": 58, "velocity": 101, "channel": 0}, {"type": "note_off", "time": 88, "note": 58, "velocity": 101, "channel": 0}, {"type": "note_on", "time": 287, "note": 58, "velocity": 111, "channel": 0}, {"type": "note_off", "time": 126, "note": 58, "velocity": 111, "channel": 0}, {"type": "note_on", "time": 0, "note": 55, "velocity": 104, "channel": 0}, {"type": "note_off", "time": 159, "note": 55, "velocity": 104, "channel": 0}, {"type": "note_on", "time": 624, "note": 55, "velocity": 113, "channel": 0}, {"type": "note_off", "time": 130, "note": 55, "velocity": 113, "channel": 0}, {"type": "note_on", "time": 20, "note": 58, "velocity": 110, "channel": 0}, {"type": "note_off", "time": 92, "note": 58, "velocity": 110, "channel": 0}, {"type": "note_on", "time": 1, "note": 59, "velocity": 107, "channel": 0}, {"type": "note_off", "time": 74, "note": 59, "velocity": 107, "channel": 0}, {"type": "note_on", "time": 6, "note": 58, "velocity": 112, "channel": 0}, {"type": "note_off", "time": 95, "note": 58, "velocity": 112, "channel": 0}, {"type": "note_on", "time": 17, "note": 55, "velocity": 107, "channel": 0}, {"type": "note_off", "time": 88, "note": 55, "velocity": 107, "channel": 0}, {"type": "note_on", "time": 20, "note": 56, "velocity": 103, "channel": 0}, {"type": "note_off", "time": 272, "note": 56, "velocity": 103, "channel": 0}, {"type": "note_on", "time": 21, "note": 58, "velocity": 109, "channel": 0}, {"type": "note_off", "time": 114, "note": 58, "velocity": 109, "channel": 0}, {"type": "note_on", "time": 50, "note": 59, "velocity": 106, "channel": 0}, {"type": "note_off", "time": 220, "note": 59, "velocity": 106, "channel": 0}, {"type": "note_on", "time": 0, "note": 62, "velocity": 109, "channel": 0}, {"type": "note_off", "time": 147, "note": 62, "velocity": 109, "channel": 0}, {"type": "note_on", "time": 4, "note": 65, "velocity": 112, "channel": 0}, {"type": "note_off", "time": 247, "note": 65, "velocity": 112, "channel": 0}, {"type": "note_on", "time": 37, "note": 62, "velocity": 99, "channel": 0}, {"type": "note_off", "time": 104, "note": 62, "velocity": 99, "channel": 0}, {"type": "note_on", "time": 24, "note": 69, "velocity": 121, "channel": 0}, {"type": "note_off", "time": 222, "note": 69, "velocity": 121, "channel": 0}, {"type": "note_on", "time": 2, "note": 67, "velocity": 116, "channel": 0}, {"type": "note_off", "time": 177, "note": 67, "velocity": 116, "channel": 0}, {"type": "note_on", "time": 11, "note": 65, "velocity": 115, "channel": 0}, {"type": "note_off", "time": 268, "note": 65, "velocity": 115, "channel": 0}, {"type": "note_on", "time": 7, "note": 62, "velocity": 103, "channel": 0}, {"type": "note_off", "time": 119, "note": 62, "velocity": 103, "channel": 0}, {"type": "note_on", "time": 36, "note": 64, "velocity": 119, "channel": 0}, {"type": "note_off", "time": 245, "note": 64, "velocity": 119, "channel": 0}, {"type": "note_on", "time": 0, "note": 66, "velocity": 113, "channel": 0}, {"type": "note_off", "time": 165, "note": 66, "velocity": 113, "channel": 0}, {"type": "note_on", "time": 27, "note": 68, "velocity": 119, "channel": 0}, {"type": "note_off", "time": 174, "note": 68, "velocity": 119, "channel": 0}, {"type": "note_on", "time": 18, "note": 70, "velocity": 114, "channel": 0}, {"type": "note_off", "time": 181, "note": 70, "velocity": 114, "channel": 0}, {"type": "note_on", "time": 30, "note": 63, "velocity": 116, "channel": 0}, {"type": "note_off", "time": 201, "note": 63, "velocity": 116, "channel": 0}, {"type": "note_on", "time": 47, "note": 65, "velocity": 114, "channel": 0}, {"type": "note_off", "time": 162, "note": 65, "velocity": 114, "channel": 0}, {"type": "note_on", "time": 22, "note": 67, "velocity": 115, "channel": 0}, {"type": "note_off", "time": 197, "note": 67, "velocity": 115, "channel": 0}, {"type": "note_on", "time": 31, "note": 69, "velocity": 115, "channel": 0}, {"type": "note_off", "time": 137, "note": 69, "velocity": 115, "channel": 0}, {"type": "note_on", "time": 107, "note": 60, "velocity": 102, "channel": 0}, {"type": "note_off", "time": 155, "note": 60, "velocity": 102, "channel": 0}, {"type": "note_on", "time": 64, "note": 62, "velocity": 119, "channel": 0}, {"type": "note_off", "time": 164, "note": 62, "velocity": 119, "channel": 0}, {"type": "note_on", "time": 18, "note": 63, "velocity": 119, "channel": 0}, {"type": "note_off", "time": 189, "note": 63, "velocity": 119, "channel": 0}, {"type": "note_on", "time": 21, "note": 65, "velocity": 117, "channel": 0}, {"type": "note_off", "time": 133, "note": 65, "velocity": 117, "channel": 0}, {"type": "note_on", "time": 52, "note": 67, "velocity": 120, "channel": 0}, {"type": "note_off", "time": 230, "note": 67, "velocity": 120, "channel": 0}, {"type": "note_on", "time": 39, "note": 63, "velocity": 116, "channel": 0}, {"type": "note_off", "time": 103, "note": 63, "velocity": 116, "channel": 0}, {"type": "note_on", "time": 6, "note": 62, "velocity": 113, "channel": 0}, {"type": "note_off", "time": 267, "note": 62, "velocity": 113, "channel": 0}, {"type": "note_on", "time": 8, "note": 60, "velocity": 100, "channel": 0}, {"type": "note_off", "time": 111, "note": 60, "velocity": 100, "channel": 0}, {"type": "note_on", "time": 25, "note": 65, "velocity": 121, "channel": 0}, {"type": "note_off", "time": 44, "note": 65, "velocity": 121, "channel": 0}, {"type": "note_on", "time": 2, "note": 66, "velocity": 107, "channel": 0}, {"type": "note_off", "time": 539, "note": 66, "velocity": 107, "channel": 0}, {"type": "note_on", "time": 292, "note": 65, "velocity": 105, "channel": 0}, {"type": "note_off", "time": 645, "note": 65, "velocity": 105, "channel": 0}, {"type": "note_on", "time": 0, "note": 63, "velocity": 115, "channel": 0}, {"type": "note_off", "time": 146, "note": 63, "velocity": 115, "channel": 0}, {"type": "note_on", "time": 17, "note": 63, "velocity": 112, "channel": 0}, {"type": "note_off", "time": 145, "note": 63, "velocity": 112, "channel": 0}, {"type": "note_on", "time": 13, "note": 62, "velocity": 111, "channel": 0}, {"type": "note_off", "time": 98, "note": 62, "velocity": 111, "channel": 0}, {"type": "note_on", "time": 4, "note": 60, "velocity": 104, "channel": 0}, {"type": "note_off", "time": 122, "note": 60, "velocity": 104, "channel": 0}, {"type": "note_on", "time": 29, "note": 58, "velocity": 100, "channel": 0}, {"type": "note_off", "time": 248, "note": 58, "velocity": 100, "channel": 0}, {"type": "note_on", "time": 7, "note": 55, "velocity": 108, "channel": 0}, {"type": "note_off", "time": 97, "note": 55, "velocity": 108, "channel": 0}, {"type": "note_on", "time": 43, "note": 57, "velocity": 102, "channel": 0}, {"type": "note_off", "time": 302, "note": 57, "velocity": 102, "channel": 0}, {"type": "note_on", "time": 6, "note": 53, "velocity": 107, "channel": 0}, {"type": "note_off", "time": 66, "note": 53, "velocity": 107, "channel": 0}, {"type": "note_on", "time": 851, "note": 69, "velocity": 120, "channel": 0}, {"type": "note_off", "time": 64, "note": 69, "velocity": 120, "channel": 0}, {"type": "note_on", "time": 8, "note": 66, "velocity": 114, "channel": 0}, {"type": "note_off", "time": 62, "note": 66, "velocity": 114, "channel": 0}, {"type": "note_on", "time": 11, "note": 62, "velocity": 109, "channel": 0}, {"type": "note_off", "time": 95, "note": 62, "velocity": 109, "channel": 0}, {"type": "note_on", "time": 20, "note": 59, "velocity": 105, "channel": 0}, {"type": "note_off", "time": 140, "note": 59, "velocity": 105, "channel": 0}, {"type": "note_on", "time": 180, "note": 71, "velocity": 112, "channel": 0}, {"type": "note_off", "time": 80, "note": 71, "velocity": 112, "channel": 0}, {"type": "note_on", "time": 7, "note": 68, "velocity": 118, "channel": 0}, {"type": "note_off", "time": 87, "note": 68, "velocity": 118, "channel": 0}, {"type": "note_on", "time": 0, "note": 64, "velocity": 114, "channel": 0}, {"type": "note_off", "time": 82, "note": 64, "velocity": 114, "channel": 0}, {"type": "note_on", "time": 6, "note": 61, "velocity": 107, "channel": 0}, {"type": "note_off", "time": 144, "note": 61, "velocity": 107, "channel": 0}, {"type": "note_on", "time": 3361, "note": 71, "velocity": 106, "channel": 0}, {"type": "note_off", "time": 58, "note": 71, "velocity": 106, "channel": 0}, {"type": "note_on", "time": 3, "note": 69, "velocity": 119, "channel": 0}, {"type": "note_off", "time": 67, "note": 69, "velocity": 119, "channel": 0}, {"type": "note_on", "time": 7, "note": 68, "velocity": 9, "channel": 0}, {"type": "note_off", "time": 334, "note": 68, "velocity": 9, "channel": 0}, {"type": "note_on", "time": 4, "note": 71, "velocity": 111, "channel": 0}, {"type": "note_off", "time": 66, "note": 71, "velocity": 111, "channel": 0}, {"type": "note_on", "time": 8, "note": 69, "velocity": 114, "channel": 0}, {"type": "note_off", "time": 57, "note": 69, "velocity": 114, "channel": 0}, {"type": "note_on", "time": 5, "note": 68, "velocity": 114, "channel": 0}, {"type": "note_off", "time": 222, "note": 68, "velocity": 114, "channel": 0}, {"type": "note_on", "time": 16, "note": 71, "velocity": 118, "channel": 0}, {"type": "note_off", "time": 78, "note": 71, "velocity": 118, "channel": 0}, {"type": "note_on", "time": 9, "note": 69, "velocity": 114, "channel": 0}, {"type": "note_off", "time": 72, "note": 69, "velocity": 114, "channel": 0}, {"type": "note_on", "time": 8, "note": 68, "velocity": 116, "channel": 0}, {"type": "note_off", "time": 232, "note": 68, "velocity": 116, "channel": 0}, {"type": "note_on", "time": 13, "note": 66, "velocity": 110, "channel": 0}, {"type": "note_off", "time": 59, "note": 66, "velocity": 110, "channel": 0}, {"type": "note_on", "time": 0, "note": 65, "velocity": 111, "channel": 0}, {"type": "note_off", "time": 320, "note": 65, "velocity": 111, "channel": 0}, {"type": "note_on", "time": 9, "note": 68, "velocity": 115, "channel": 0}, {"type": "note_off", "time": 77, "note": 68, "velocity": 115, "channel": 0}, {"type": "note_on", "time": 0, "note": 66, "velocity": 112, "channel": 0}, {"type": "note_off", "time": 69, "note": 66, "velocity": 112, "channel": 0}, {"type": "note_on", "time": 6, "note": 65, "velocity": 114, "channel": 0}, {"type": "note_off", "time": 301, "note": 65, "velocity": 114, "channel": 0}, {"type": "note_on", "time": 10, "note": 68, "velocity": 118, "channel": 0}, {"type": "note_off", "time": 63, "note": 68, "velocity": 118, "channel": 0}, {"type": "note_on", "time": 9, "note": 66, "velocity": 107, "channel": 0}, {"type": "note_off", "time": 114, "note": 66, "velocity": 107, "channel": 0}, {"type": "note_on", "time": 1, "note": 65, "velocity": 113, "channel": 0}, {"type": "note_off", "time": 226, "note": 65, "velocity": 113, "channel": 0}, {"type": "note_on", "time": 14, "note": 67, "velocity": 115, "channel": 0}, {"type": "note_off", "time": 50, "note": 67, "velocity": 115, "channel": 0}, {"type": "note_on", "time": 6, "note": 66, "velocity": 110, "channel": 0}, {"type": "note_off", "time": 85, "note": 66, "velocity": 110, "channel": 0}, {"type": "note_on", "time": 16, "note": 65, "velocity": 112, "channel": 0}, {"type": "note_off", "time": 203, "note": 65, "velocity": 112, "channel": 0}, {"type": "note_on", "time": 33, "note": 65, "velocity": 116, "channel": 0}, {"type": "note_off", "time": 91, "note": 65, "velocity": 116, "channel": 0}, {"type": "note_on", "time": 11, "note": 63, "velocity": 112, "channel": 0}, {"type": "note_off", "time": 67, "note": 63, "velocity": 112, "channel": 0}, {"type": "note_on", "time": 7, "note": 62, "velocity": 109, "channel": 0}, {"type": "note_off", "time": 270, "note": 62, "velocity": 109, "channel": 0}, {"type": "note_on", "time": 0, "note": 65, "velocity": 119, "channel": 0}, {"type": "note_on", "time": 70, "note": 63, "velocity": 115, "channel": 0}, {"type": "note_off", "time": 0, "note": 65, "velocity": 119, "channel": 0}, {"type": "note_off", "time": 83, "note": 63, "velocity": 115, "channel": 0}, {"type": "note_on", "time": 1, "note": 62, "velocity": 115, "channel": 0}, {"type": "note_off", "time": 241, "note": 62, "velocity": 115, "channel": 0}, {"type": "note_on", "time": 8, "note": 65, "velocity": 118, "channel": 0}, {"type": "note_off", "time": 77, "note": 65, "velocity": 118, "channel": 0}, {"type": "note_on", "time": 8, "note": 63, "velocity": 113, "channel": 0}, {"type": "note_off", "time": 61, "note": 63, "velocity": 113, "channel": 0}, {"type": "note_on", "time": 7, "note": 62, "velocity": 115, "channel": 0}, {"type": "note_off", "time": 240, "note": 62, "velocity": 115, "channel": 0}, {"type": "note_on", "time": 9, "note": 65, "velocity": 113, "channel": 0}, {"type": "note_off", "time": 65, "note": 65, "velocity": 113, "channel": 0}, {"type": "note_on", "time": 5, "note": 63, "velocity": 115, "channel": 0}, {"type": "note_off", "time": 92, "note": 63, "velocity": 115, "channel": 0}, {"type": "note_on", "time": 7, "note": 62, "velocity": 116, "channel": 0}, {"type": "note_off", "time": 242, "note": 62, "velocity": 116, "channel": 0}, {"type": "note_on", "time": 12, "note": 58, "velocity": 97, "channel": 0}, {"type": "note_off", "time": 423, "note": 58, "velocity": 97, "channel": 0}, {"type": "note_on", "time": 192, "note": 58, "velocity": 105, "channel": 0}, {"type": "note_off", "time": 258, "note": 58, "velocity": 105, "channel": 0}, {"type": "note_on", "time": 100, "note": 58, "velocity": 102, "channel": 0}, {"type": "note_off", "time": 293, "note": 58, "velocity": 102, "channel": 0}, {"type": "note_on", "time": 147, "note": 59, "velocity": 101, "channel": 0}, {"type": "note_off", "time": 271, "note": 59, "velocity": 101, "channel": 0}, {"type": "note_on", "time": 4, "note": 53, "velocity": 109, "channel": 0}, {"type": "note_off", "time": 267, "note": 53, "velocity": 109, "channel": 0}, {"type": "note_on", "time": 360, "note": 53, "velocity": 113, "channel": 0}, {"type": "note_off", "time": 223, "note": 53, "velocity": 113, "channel": 0}, {"type": "note_on", "time": 2, "note": 51, "velocity": 109, "channel": 0}, {"type": "note_off", "time": 139, "note": 51, "velocity": 109, "channel": 0}, {"type": "note_on", "time": 20, "note": 46, "velocity": 106, "channel": 0}, {"type": "note_off", "time": 226, "note": 46, "velocity": 106, "channel": 0}, {"type": "note_on", "time": 1, "note": 44, "velocity": 110, "channel": 0}, {"type": "note_off", "time": 165, "note": 44, "velocity": 110, "channel": 0}, {"type": "note_on", "time": 311, "note": 58, "velocity": 102, "channel": 0}, {"type": "note_off", "time": 116, "note": 58, "velocity": 102, "channel": 0}, {"type": "note_on", "time": 27, "note": 56, "velocity": 105, "channel": 0}, {"type": "note_off", "time": 289, "note": 56, "velocity": 105, "channel": 0}, {"type": "note_on", "time": 116, "note": 54, "velocity": 102, "channel": 0}, {"type": "note_off", "time": 407, "note": 54, "velocity": 102, "channel": 0}, {"type": "note_on", "time": 16, "note": 56, "velocity": 104, "channel": 0}, {"type": "note_off", "time": 276, "note": 56, "velocity": 104, "channel": 0}, {"type": "note_on", "time": 0, "note": 52, "velocity": 106, "channel": 0}, {"type": "note_off", "time": 506, "note": 52, "velocity": 106, "channel": 0}, {"type": "note_on", "time": 958, "note": 64, "velocity": 119, "channel": 0}, {"type": "note_off", "time": 117, "note": 64, "velocity": 119, "channel": 0}, {"type": "note_on", "time": 8, "note": 66, "velocity": 120, "channel": 0}, {"type": "note_off", "time": 117, "note": 66, "velocity": 120, "channel": 0}, {"type": "note_on", "time": 3, "note": 68, "velocity": 117, "channel": 0}, {"type": "note_off", "time": 102, "note": 68, "velocity": 117, "channel": 0}, {"type": "note_on", "time": 17, "note": 70, "velocity": 113, "channel": 0}, {"type": "note_off", "time": 189, "note": 70, "velocity": 113, "channel": 0}, {"type": "note_on", "time": 880, "note": 70, "velocity": 111, "channel": 0}, {"type": "note_off", "time": 80, "note": 70, "velocity": 111, "channel": 0}, {"type": "note_on", "time": 3, "note": 68, "velocity": 119, "channel": 0}, {"type": "note_off", "time": 85, "note": 68, "velocity": 119, "channel": 0}, {"type": "note_on", "time": 5, "note": 66, "velocity": 114, "channel": 0}, {"type": "note_off", "time": 59, "note": 66, "velocity": 114, "channel": 0}, {"type": "note_on", "time": 12, "note": 64, "velocity": 120, "channel": 0}, {"type": "note_off", "time": 129, "note": 64, "velocity": 120, "channel": 0}, {"type": "note_on", "time": 9, "note": 70, "velocity": 104, "channel": 0}, {"type": "note_off", "time": 75, "note": 70, "velocity": 104, "channel": 0}, {"type": "note_on", "time": 1, "note": 68, "velocity": 110, "channel": 0}, {"type": "note_off", "time": 71, "note": 68, "velocity": 110, "channel": 0}, {"type": "note_on", "time": 6, "note": 66, "velocity": 112, "channel": 0}, {"type": "note_off", "time": 78, "note": 66, "velocity": 112, "channel": 0}, {"type": "note_on", "time": 3, "note": 64, "velocity": 114, "channel": 0}, {"type": "note_off", "time": 107, "note": 64, "velocity": 114, "channel": 0}, {"type": "note_on", "time": 10, "note": 70, "velocity": 117, "channel": 0}, {"type": "note_off", "time": 63, "note": 70, "velocity": 117, "channel": 0}, {"type": "note_on", "time": 16, "note": 67, "velocity": 115, "channel": 0}, {"type": "note_off", "time": 36, "note": 67, "velocity": 115, "channel": 0}, {"type": "note_on", "time": 4, "note": 68, "velocity": 117, "channel": 0}, {"type": "note_off", "time": 60, "note": 68, "velocity": 117, "channel": 0}, {"type": "note_on", "time": 6, "note": 66, "velocity": 102, "channel": 0}, {"type": "note_off", "time": 70, "note": 66, "velocity": 102, "channel": 0}, {"type": "note_on", "time": 1, "note": 64, "velocity": 111, "channel": 0}, {"type": "note_off", "time": 87, "note": 64, "velocity": 111, "channel": 0}, {"type": "note_on", "time": 17, "note": 70, "velocity": 116, "channel": 0}, {"type": "note_off", "time": 73, "note": 70, "velocity": 116, "channel": 0}, {"type": "note_on", "time": 2, "note": 68, "velocity": 119, "channel": 0}, {"type": "note_off", "time": 83, "note": 68, "velocity": 119, "channel": 0}, {"type": "note_on", "time": 2, "note": 66, "velocity": 118, "channel": 0}, {"type": "note_off", "time": 86, "note": 66, "velocity": 118, "channel": 0}, {"type": "note_on", "time": 17, "note": 64, "velocity": 108, "channel": 0}, {"type": "note_off", "time": 65, "note": 64, "velocity": 108, "channel": 0}, {"type": "note_on", "time": 24, "note": 70, "velocity": 112, "channel": 0}, {"type": "note_off", "time": 62, "note": 70, "velocity": 112, "channel": 0}, {"type": "note_on", "time": 16, "note": 68, "velocity": 116, "channel": 0}, {"type": "note_off", "time": 66, "note": 68, "velocity": 116, "channel": 0}, {"type": "note_on", "time": 7, "note": 66, "velocity": 110, "channel": 0}, {"type": "note_off", "time": 83, "note": 66, "velocity": 110, "channel": 0}, {"type": "note_on", "time": 10, "note": 64, "velocity": 108, "channel": 0}, {"type": "note_off", "time": 95, "note": 64, "velocity": 108, "channel": 0}, {"type": "note_on", "time": 8, "note": 70, "velocity": 111, "channel": 0}, {"type": "note_off", "time": 92, "note": 70, "velocity": 111, "channel": 0}, {"type": "note_on", "time": 4, "note": 68, "velocity": 117, "channel": 0}, {"type": "note_off", "time": 63, "note": 68, "velocity": 117, "channel": 0}, {"type": "note_on", "time": 26, "note": 66, "velocity": 110, "channel": 0}, {"type": "note_off", "time": 92, "note": 66, "velocity": 110, "channel": 0}, {"type": "note_on", "time": 9, "note": 64, "velocity": 111, "channel": 0}, {"type": "note_off", "time": 113, "note": 64, "velocity": 111, "channel": 0}, {"type": "note_on", "time": 26, "note": 69, "velocity": 106, "channel": 0}, {"type": "note_off", "time": 44, "note": 69, "velocity": 106, "channel": 0}, {"type": "note_on", "time": 3, "note": 68, "velocity": 119, "channel": 0}, {"type": "note_off", "time": 81, "note": 68, "velocity": 119, "channel": 0}, {"type": "note_on", "time": 0, "note": 66, "velocity": 117, "channel": 0}, {"type": "note_off", "time": 110, "note": 66, "velocity": 117, "channel": 0}, {"type": "note_on", "time": 13, "note": 64, "velocity": 108, "channel": 0}, {"type": "note_off", "time": 96, "note": 64, "velocity": 108, "channel": 0}, {"type": "note_on", "time": 4, "note": 70, "velocity": 110, "channel": 0}, {"type": "note_off", "time": 84, "note": 70, "velocity": 110, "channel": 0}, {"type": "note_on", "time": 4, "note": 68, "velocity": 115, "channel": 0}, {"type": "note_off", "time": 75, "note": 68, "velocity": 115, "channel": 0}, {"type": "note_on", "time": 10, "note": 66, "velocity": 118, "channel": 0}, {"type": "note_off", "time": 126, "note": 66, "velocity": 118, "channel": 0}, {"type": "note_on", "time": 7, "note": 64, "velocity": 110, "channel": 0}, {"type": "note_off", "time": 75, "note": 64, "velocity": 110, "channel": 0}, {"type": "note_on", "time": 33, "note": 70, "velocity": 119, "channel": 0}, {"type": "note_off", "time": 58, "note": 70, "velocity": 119, "channel": 0}, {"type": "note_on", "time": 12, "note": 68, "velocity": 122, "channel": 0}, {"type": "note_off", "time": 57, "note": 68, "velocity": 122, "channel": 0}, {"type": "note_on", "time": 5, "note": 67, "velocity": 119, "channel": 0}, {"type": "note_off", "time": 72, "note": 67, "velocity": 119, "channel": 0}, {"type": "note_on", "time": 10, "note": 65, "velocity": 116, "channel": 0}, {"type": "note_off", "time": 67, "note": 65, "velocity": 116, "channel": 0}, {"type": "note_on", "time": 16, "note": 63, "velocity": 116, "channel": 0}, {"type": "note_off", "time": 96, "note": 63, "velocity": 116, "channel": 0}, {"type": "note_on", "time": 184, "note": 70, "velocity": 111, "channel": 0}, {"type": "note_off", "time": 48, "note": 70, "velocity": 111, "channel": 0}, {"type": "note_on", "time": 10, "note": 68, "velocity": 122, "channel": 0}, {"type": "note_off", "time": 70, "note": 68, "velocity": 122, "channel": 0}, {"type": "note_on", "time": 4, "note": 67, "velocity": 116, "channel": 0}, {"type": "note_off", "time": 74, "note": 67, "velocity": 116, "channel": 0}, {"type": "note_on", "time": 6, "note": 65, "velocity": 112, "channel": 0}, {"type": "note_off", "time": 78, "note": 65, "velocity": 112, "channel": 0}, {"type": "note_on", "time": 8, "note": 63, "velocity": 103, "channel": 0}, {"type": "note_off", "time": 55, "note": 63, "velocity": 103, "channel": 0}, {"type": "note_on", "time": 69, "note": 70, "velocity": 113, "channel": 0}, {"type": "note_off", "time": 59, "note": 70, "velocity": 113, "channel": 0}, {"type": "note_on", "time": 8, "note": 68, "velocity": 116, "channel": 0}, {"type": "note_off", "time": 55, "note": 68, "velocity": 116, "channel": 0}, {"type": "note_on", "time": 2, "note": 67, "velocity": 115, "channel": 0}, {"type": "note_off", "time": 89, "note": 67, "velocity": 115, "channel": 0}, {"type": "note_on", "time": 13, "note": 65, "velocity": 111, "channel": 0}, {"type": "note_off", "time": 64, "note": 65, "velocity": 111, "channel": 0}, {"type": "note_on", "time": 10, "note": 63, "velocity": 106, "channel": 0}, {"type": "note_off", "time": 105, "note": 63, "velocity": 106, "channel": 0}, {"type": "note_on", "time": 7, "note": 69, "velocity": 113, "channel": 0}, {"type": "note_off", "time": 63, "note": 69, "velocity": 113, "channel": 0}, {"type": "note_on", "time": 9, "note": 68, "velocity": 121, "channel": 0}, {"type": "note_off", "time": 58, "note": 68, "velocity": 121, "channel": 0}, {"type": "note_on", "time": 3, "note": 67, "velocity": 117, "channel": 0}, {"type": "note_off", "time": 75, "note": 67, "velocity": 117, "channel": 0}, {"type": "note_on", "time": 0, "note": 65, "velocity": 110, "channel": 0}, {"type": "note_off", "time": 63, "note": 65, "velocity": 110, "channel": 0}, {"type": "note_on", "time": 4, "note": 63, "velocity": 113, "channel": 0}, {"type": "note_off", "time": 92, "note": 63, "velocity": 113, "channel": 0}, {"type": "note_on", "time": 0, "note": 62, "velocity": 117, "channel": 0}, {"type": "note_off", "time": 125, "note": 62, "velocity": 117, "channel": 0}, {"type": "note_on", "time": 155, "note": 68, "velocity": 120, "channel": 0}, {"type": "note_off", "time": 77, "note": 68, "velocity": 120, "channel": 0}, {"type": "note_on", "time": 9, "note": 67, "velocity": 116, "channel": 0}, {"type": "note_off", "time": 73, "note": 67, "velocity": 116, "channel": 0}, {"type": "note_on", "time": 4, "note": 65, "velocity": 113, "channel": 0}, {"type": "note_off", "time": 72, "note": 65, "velocity": 113, "channel": 0}, {"type": "note_on", "time": 6, "note": 63, "velocity": 112, "channel": 0}, {"type": "note_off", "time": 62, "note": 63, "velocity": 112, "channel": 0}, {"type": "note_on", "time": 5, "note": 62, "velocity": 114, "channel": 0}, {"type": "note_off", "time": 66, "note": 62, "velocity": 114, "channel": 0}, {"type": "note_on", "time": 0, "note": 68, "velocity": 117, "channel": 0}, {"type": "note_off", "time": 82, "note": 68, "velocity": 117, "channel": 0}, {"type": "note_on", "time": 5, "note": 67, "velocity": 114, "channel": 0}, {"type": "note_off", "time": 62, "note": 67, "velocity": 114, "channel": 0}, {"type": "note_on", "time": 0, "note": 65, "velocity": 119, "channel": 0}, {"type": "note_off", "time": 79, "note": 65, "velocity": 119, "channel": 0}, {"type": "note_on", "time": 4, "note": 63, "velocity": 109, "channel": 0}, {"type": "note_off", "time": 43, "note": 63, "velocity": 109, "channel": 0}, {"type": "note_on", "time": 4, "note": 62, "velocity": 112, "channel": 0}, {"type": "note_off", "time": 89, "note": 62, "velocity": 112, "channel": 0}, {"type": "note_on", "time": 28, "note": 68, "velocity": 120, "channel": 0}, {"type": "note_off", "time": 88, "note": 68, "velocity": 120, "channel": 0}, {"type": "note_on", "time": 15, "note": 65, "velocity": 113, "channel": 0}, {"type": "note_off", "time": 46, "note": 65, "velocity": 113, "channel": 0}, {"type": "note_on", "time": 13, "note": 63, "velocity": 115, "channel": 0}, {"type": "note_off", "time": 62, "note": 63, "velocity": 115, "channel": 0}, {"type": "note_on", "time": 0, "note": 62, "velocity": 117, "channel": 0}, {"type": "note_off", "time": 70, "note": 62, "velocity": 117, "channel": 0}, {"type": "note_on", "time": 33, "note": 68, "velocity": 115, "channel": 0}, {"type": "note_off", "time": 85, "note": 68, "velocity": 115, "channel": 0}, {"type": "note_on", "time": 0, "note": 67, "velocity": 114, "channel": 0}, {"type": "note_off", "time": 78, "note": 67, "velocity": 114, "channel": 0}, {"type": "note_on", "time": 0, "note": 66, "velocity": 108, "channel": 0}, {"type": "note_off", "time": 78, "note": 66, "velocity": 108, "channel": 0}, {"type": "note_on", "time": 0, "note": 64, "velocity": 108, "channel": 0}, {"type": "note_off", "time": 486, "note": 64, "velocity": 108, "channel": 0}, {"type": "note_on", "time": 1971, "note": 62, "velocity": 110, "channel": 0}, {"type": "note_off", "time": 75, "note": 62, "velocity": 110, "channel": 0}, {"type": "note_on", "time": 25, "note": 66, "velocity": 109, "channel": 0}, {"type": "note_off", "time": 75, "note": 66, "velocity": 109, "channel": 0}, {"type": "note_on", "time": 14, "note": 61, "velocity": 101, "channel": 0}, {"type": "note_off", "time": 89, "note": 61, "velocity": 101, "channel": 0}, {"type": "note_on", "time": 6, "note": 62, "velocity": 109, "channel": 0}, {"type": "note_off", "time": 96, "note": 62, "velocity": 109, "channel": 0}, {"type": "note_on", "time": 20, "note": 65, "velocity": 110, "channel": 0}, {"type": "note_off", "time": 58, "note": 65, "velocity": 110, "channel": 0}, {"type": "note_on", "time": 10, "note": 63, "velocity": 110, "channel": 0}, {"type": "note_off", "time": 144, "note": 63, "velocity": 110, "channel": 0}, {"type": "note_on", "time": 403, "note": 62, "velocity": 118, "channel": 0}, {"type": "note_off", "time": 110, "note": 62, "velocity": 118, "channel": 0}, {"type": "note_on", "time": 0, "note": 60, "velocity": 108, "channel": 0}, {"type": "note_off", "time": 101, "note": 60, "velocity": 108, "channel": 0}, {"type": "note_on", "time": 4, "note": 55, "velocity": 97, "channel": 0}, {"type": "note_off", "time": 200, "note": 55, "velocity": 97, "channel": 0}, {"type": "note_on", "time": 81, "note": 57, "velocity": 113, "channel": 0}, {"type": "note_off", "time": 50, "note": 57, "velocity": 113, "channel": 0}, {"type": "note_on", "time": 39, "note": 48, "velocity": 111, "channel": 0}, {"type": "note_off", "time": 102, "note": 48, "velocity": 111, "channel": 0}, {"type": "note_on", "time": 19, "note": 63, "velocity": 118, "channel": 0}, {"type": "note_off", "time": 74, "note": 63, "velocity": 118, "channel": 0}, {"type": "note_on", "time": 3, "note": 67, "velocity": 112, "channel": 0}, {"type": "note_off", "time": 79, "note": 67, "velocity": 112, "channel": 0}, {"type": "note_on", "time": 5, "note": 65, "velocity": 116, "channel": 0}, {"type": "note_off", "time": 73, "note": 65, "velocity": 116, "channel": 0}, {"type": "note_on", "time": 13, "note": 62, "velocity": 113, "channel": 0}, {"type": "note_off", "time": 96, "note": 62, "velocity": 113, "channel": 0}, {"type": "note_on", "time": 14, "note": 58, "velocity": 107, "channel": 0}, {"type": "note_off", "time": 71, "note": 58, "velocity": 107, "channel": 0}, {"type": "note_on", "time": 6, "note": 63, "velocity": 117, "channel": 0}, {"type": "note_off", "time": 99, "note": 63, "velocity": 117, "channel": 0}, {"type": "note_on", "time": 8, "note": 62, "velocity": 109, "channel": 0}, {"type": "note_off", "time": 82, "note": 62, "velocity": 109, "channel": 0}, {"type": "note_on", "time": 9, "note": 58, "velocity": 101, "channel": 0}, {"type": "note_off", "time": 96, "note": 58, "velocity": 101, "channel": 0}, {"type": "note_on", "time": 11, "note": 55, "velocity": 102, "channel": 0}, {"type": "note_off", "time": 46, "note": 55, "velocity": 102, "channel": 0}, {"type": "note_on", "time": 9, "note": 53, "velocity": 100, "channel": 0}, {"type": "note_off", "time": 54, "note": 53, "velocity": 100, "channel": 0}, {"type": "note_on", "time": 77, "note": 60, "velocity": 108, "channel": 0}, {"type": "note_off", "time": 129, "note": 60, "velocity": 108, "channel": 0}, {"type": "note_on", "time": 5, "note": 57, "velocity": 99, "channel": 0}, {"type": "note_off", "time": 80, "note": 57, "velocity": 99, "channel": 0}, {"type": "note_on", "time": 2, "note": 58, "velocity": 94, "channel": 0}, {"type": "note_off", "time": 67, "note": 58, "velocity": 94, "channel": 0}, {"type": "note_on", "time": 14, "note": 62, "velocity": 112, "channel": 0}, {"type": "note_off", "time": 103, "note": 62, "velocity": 112, "channel": 0}, {"type": "note_on", "time": 58, "note": 69, "velocity": 114, "channel": 0}, {"type": "note_off", "time": 96, "note": 69, "velocity": 114, "channel": 0}, {"type": "note_on", "time": 14, "note": 67, "velocity": 109, "channel": 0}, {"type": "note_off", "time": 78, "note": 67, "velocity": 109, "channel": 0}, {"type": "note_on", "time": 8, "note": 65, "velocity": 110, "channel": 0}, {"type": "note_off", "time": 92, "note": 65, "velocity": 110, "channel": 0}, {"type": "note_on", "time": 9, "note": 63, "velocity": 113, "channel": 0}, {"type": "note_off", "time": 102, "note": 63, "velocity": 113, "channel": 0}, {"type": "note_on", "time": 0, "note": 62, "velocity": 117, "channel": 0}, {"type": "note_off", "time": 118, "note": 62, "velocity": 117, "channel": 0}, {"type": "note_on", "time": 12, "note": 60, "velocity": 105, "channel": 0}, {"type": "note_off", "time": 98, "note": 60, "velocity": 105, "channel": 0}, {"type": "note_on", "time": 6, "note": 58, "velocity": 100, "channel": 0}, {"type": "note_off", "time": 111, "note": 58, "velocity": 100, "channel": 0}, {"type": "note_on", "time": 7, "note": 59, "velocity": 99, "channel": 0}, {"type": "note_off", "time": 246, "note": 59, "velocity": 99, "channel": 0}, {"type": "note_on", "time": 20, "note": 54, "velocity": 104, "channel": 0}, {"type": "note_off", "time": 298, "note": 54, "velocity": 104, "channel": 0}, {"type": "note_on", "time": 53, "note": 50, "velocity": 109, "channel": 0}, {"type": "note_off", "time": 146, "note": 50, "velocity": 109, "channel": 0}, {"type": "note_on", "time": 242, "note": 56, "velocity": 105, "channel": 0}, {"type": "note_off", "time": 421, "note": 56, "velocity": 105, "channel": 0}, {"type": "note_on", "time": 1414, "note": 70, "velocity": 118, "channel": 0}, {"type": "note_off", "time": 99, "note": 70, "velocity": 118, "channel": 0}, {"type": "note_on", "time": 11, "note": 71, "velocity": 122, "channel": 0}, {"type": "note_off", "time": 1070, "note": 71, "velocity": 122, "channel": 0}, {"type": "note_on", "time": 49, "note": 69, "velocity": 123, "channel": 0}, {"type": "note_off", "time": 213, "note": 69, "velocity": 123, "channel": 0}, {"type": "note_on", "time": 7, "note": 71, "velocity": 117, "channel": 0}, {"type": "note_off", "time": 63, "note": 71, "velocity": 117, "channel": 0}, {"type": "note_on", "time": 2, "note": 73, "velocity": 121, "channel": 0}, {"type": "note_off", "time": 1198, "note": 73, "velocity": 121, "channel": 0}, {"type": "note_on", "time": 20, "note": 71, "velocity": 120, "channel": 0}, {"type": "note_off", "time": 186, "note": 71, "velocity": 120, "channel": 0}, {"type": "note_on", "time": 31, "note": 69, "velocity": 123, "channel": 0}, {"type": "note_off", "time": 208, "note": 69, "velocity": 123, "channel": 0}, {"type": "note_on", "time": 1, "note": 68, "velocity": 121, "channel": 0}, {"type": "note_off", "time": 166, "note": 68, "velocity": 121, "channel": 0}, {"type": "note_on", "time": 51, "note": 66, "velocity": 118, "channel": 0}, {"type": "note_off", "time": 81, "note": 66, "velocity": 118, "channel": 0}, {"type": "note_on", "time": 15, "note": 64, "velocity": 127, "channel": 0}, {"type": "note_off", "time": 224, "note": 64, "velocity": 127, "channel": 0}, {"type": "note_on", "time": 2, "note": 62, "velocity": 124, "channel": 0}, {"type": "note_off", "time": 182, "note": 62, "velocity": 124, "channel": 0}, {"type": "note_on", "time": 1, "note": 61, "velocity": 119, "channel": 0}, {"type": "note_off", "time": 201, "note": 61, "velocity": 119, "channel": 0}, {"type": "note_on", "time": 47, "note": 59, "velocity": 112, "channel": 0}, {"type": "note_off", "time": 163, "note": 59, "velocity": 112, "channel": 0}, {"type": "note_on", "time": 10, "note": 58, "velocity": 109, "channel": 0}, {"type": "note_off", "time": 196, "note": 58, "velocity": 109, "channel": 0}, {"type": "note_on", "time": 20, "note": 56, "velocity": 110, "channel": 0}, {"type": "note_off", "time": 152, "note": 56, "velocity": 110, "channel": 0}, {"type": "note_on", "time": 44, "note": 54, "velocity": 116, "channel": 0}, {"type": "note_off", "time": 180, "note": 54, "velocity": 116, "channel": 0}, {"type": "note_on", "time": 20, "note": 52, "velocity": 115, "channel": 0}, {"type": "note_off", "time": 147, "note": 52, "velocity": 115, "channel": 0}, {"type": "note_on", "time": 17, "note": 51, "velocity": 111, "channel": 0}, {"type": "note_off", "time": 209, "note": 51, "velocity": 111, "channel": 0}, {"type": "note_on", "time": 20, "note": 49, "velocity": 118, "channel": 0}, {"type": "note_off", "time": 112, "note": 49, "velocity": 118, "channel": 0}, {"type": "note_on", "time": 16, "note": 48, "velocity": 112, "channel": 0}, {"type": "note_off", "time": 161, "note": 48, "velocity": 112, "channel": 0}, {"type": "note_on", "time": 9, "note": 50, "velocity": 108, "channel": 0}, {"type": "note_off", "time": 72, "note": 50, "velocity": 108, "channel": 0}, {"type": "note_on", "time": 11, "note": 51, "velocity": 110, "channel": 0}, {"type": "note_off", "time": 88, "note": 51, "velocity": 110, "channel": 0}, {"type": "note_on", "time": 25, "note": 53, "velocity": 106, "channel": 0}, {"type": "note_off", "time": 53, "note": 53, "velocity": 106, "channel": 0}, {"type": "note_on", "time": 1, "note": 55, "velocity": 108, "channel": 0}, {"type": "note_off", "time": 36, "note": 55, "velocity": 108, "channel": 0}, {"type": "note_on", "time": 5, "note": 58, "velocity": 110, "channel": 0}, {"type": "note_off", "time": 252, "note": 58, "velocity": 110, "channel": 0}, {"type": "note_on", "time": 57, "note": 56, "velocity": 114, "channel": 0}, {"type": "note_off", "time": 206, "note": 56, "velocity": 114, "channel": 0}, {"type": "note_on", "time": 183, "note": 59, "velocity": 115, "channel": 0}, {"type": "note_off", "time": 86, "note": 59, "velocity": 115, "channel": 0}, {"type": "note_on", "time": 4, "note": 60, "velocity": 104, "channel": 0}, {"type": "note_off", "time": 281, "note": 60, "velocity": 104, "channel": 0}, {"type": "note_on", "time": 44, "note": 66, "velocity": 106, "channel": 0}, {"type": "note_off", "time": 87, "note": 66, "velocity": 106, "channel": 0}, {"type": "note_on", "time": 103, "note": 70, "velocity": 119, "channel": 0}, {"type": "note_off", "time": 226, "note": 70, "velocity": 119, "channel": 0}, {"type": "note_on", "time": 18, "note": 68, "velocity": 123, "channel": 0}, {"type": "note_off", "time": 132, "note": 68, "velocity": 123, "channel": 0}, {"type": "note_on", "time": 25, "note": 63, "velocity": 118, "channel": 0}, {"type": "note_off", "time": 266, "note": 63, "velocity": 118, "channel": 0}, {"type": "note_on", "time": 10, "note": 59, "velocity": 98, "channel": 0}, {"type": "note_off", "time": 74, "note": 59, "velocity": 98, "channel": 0}, {"type": "note_on", "time": 36, "note": 65, "velocity": 117, "channel": 0}, {"type": "note_off", "time": 81, "note": 65, "velocity": 117, "channel": 0}, {"type": "note_on", "time": 4, "note": 66, "velocity": 114, "channel": 0}, {"type": "note_off", "time": 130, "note": 66, "velocity": 114, "channel": 0}, {"type": "note_on", "time": 63, "note": 63, "velocity": 114, "channel": 0}, {"type": "note_off", "time": 78, "note": 63, "velocity": 114, "channel": 0}, {"type": "note_on", "time": 12, "note": 65, "velocity": 115, "channel": 0}, {"type": "note_off", "time": 518, "note": 65, "velocity": 115, "channel": 0}, {"type": "note_on", "time": 424, "note": 65, "velocity": 121, "channel": 0}, {"type": "note_off", "time": 77, "note": 65, "velocity": 121, "channel": 0}, {"type": "note_on", "time": 4, "note": 63, "velocity": 121, "channel": 0}, {"type": "note_off", "time": 74, "note": 63, "velocity": 121, "channel": 0}, {"type": "note_on", "time": 1, "note": 61, "velocity": 114, "channel": 0}, {"type": "note_off", "time": 98, "note": 61, "velocity": 114, "channel": 0}, {"type": "note_on", "time": 26, "note": 70, "velocity": 103, "channel": 0}, {"type": "note_off", "time": 192, "note": 70, "velocity": 103, "channel": 0}, {"type": "note_on", "time": 45, "note": 58, "velocity": 104, "channel": 0}, {"type": "note_off", "time": 64, "note": 58, "velocity": 104, "channel": 0}, {"type": "note_on", "time": 5, "note": 59, "velocity": 108, "channel": 0}, {"type": "note_off", "time": 122, "note": 59, "velocity": 108, "channel": 0}, {"type": "note_on", "time": 19, "note": 52, "velocity": 108, "channel": 0}, {"type": "note_off", "time": 88, "note": 52, "velocity": 108, "channel": 0}, {"type": "note_on", "time": 33, "note": 53, "velocity": 106, "channel": 0}, {"type": "note_off", "time": 106, "note": 53, "velocity": 106, "channel": 0}, {"type": "note_on", "time": 2842, "note": 68, "velocity": 122, "channel": 0}, {"type": "note_off", "time": 96, "note": 68, "velocity": 122, "channel": 0}, {"type": "note_on", "time": 45, "note": 70, "velocity": 107, "channel": 0}, {"type": "note_off", "time": 101, "note": 70, "velocity": 107, "channel": 0}, {"type": "note_on", "time": 38, "note": 70, "velocity": 113, "channel": 0}, {"type": "note_off", "time": 78, "note": 70, "velocity": 113, "channel": 0}, {"type": "note_on", "time": 52, "note": 70, "velocity": 111, "channel": 0}, {"type": "note_off", "time": 79, "note": 70, "velocity": 111, "channel": 0}, {"type": "note_on", "time": 54, "note": 70, "velocity": 104, "channel": 0}, {"type": "note_off", "time": 83, "note": 70, "velocity": 104, "channel": 0}, {"type": "note_on", "time": 40, "note": 70, "velocity": 102, "channel": 0}, {"type": "note_off", "time": 94, "note": 70, "velocity": 102, "channel": 0}, {"type": "note_on", "time": 38, "note": 70, "velocity": 95, "channel": 0}, {"type": "note_off", "time": 80, "note": 70, "velocity": 95, "channel": 0}, {"type": "note_on", "time": 37, "note": 70, "velocity": 103, "channel": 0}, {"type": "note_off", "time": 83, "note": 70, "velocity": 103, "channel": 0}, {"type": "note_on", "time": 52, "note": 70, "velocity": 101, "channel": 0}, {"type": "note_off", "time": 88, "note": 70, "velocity": 101, "channel": 0}, {"type": "note_on", "time": 32, "note": 70, "velocity": 104, "channel": 0}, {"type": "note_off", "time": 75, "note": 70, "velocity": 104, "channel": 0}, {"type": "note_on", "time": 61, "note": 70, "velocity": 98, "channel": 0}, {"type": "note_off", "time": 93, "note": 70, "velocity": 98, "channel": 0}, {"type": "note_on", "time": 65, "note": 70, "velocity": 112, "channel": 0}, {"type": "note_off", "time": 93, "note": 70, "velocity": 112, "channel": 0}, {"type": "note_on", "time": 4, "note": 73, "velocity": 112, "channel": 0}, {"type": "note_off", "time": 88, "note": 73, "velocity": 112, "channel": 0}, {"type": "note_on", "time": 57, "note": 73, "velocity": 113, "channel": 0}, {"type": "note_off", "time": 79, "note": 73, "velocity": 113, "channel": 0}, {"type": "note_on", "time": 61, "note": 73, "velocity": 107, "channel": 0}, {"type": "note_off", "time": 88, "note": 73, "velocity": 107, "channel": 0}, {"type": "note_on", "time": 37, "note": 73, "velocity": 102, "channel": 0}, {"type": "note_off", "time": 89, "note": 73, "velocity": 102, "channel": 0}, {"type": "note_on", "time": 29, "note": 73, "velocity": 111, "channel": 0}, {"type": "note_off", "time": 85, "note": 73, "velocity": 111, "channel": 0}, {"type": "note_on", "time": 53, "note": 73, "velocity": 105, "channel": 0}, {"type": "note_off", "time": 79, "note": 73, "velocity": 105, "channel": 0}, {"type": "note_on", "time": 781, "note": 68, "velocity": 121, "channel": 0}, {"type": "note_off", "time": 117, "note": 68, "velocity": 121, "channel": 0}, {"type": "note_on", "time": 15, "note": 73, "velocity": 117, "channel": 0}, {"type": "note_off", "time": 80, "note": 73, "velocity": 117, "channel": 0}, {"type": "note_on", "time": 21, "note": 71, "velocity": 117, "channel": 0}, {"type": "note_off", "time": 127, "note": 71, "velocity": 117, "channel": 0}, {"type": "note_on", "time": 17, "note": 68, "velocity": 112, "channel": 0}, {"type": "note_off", "time": 110, "note": 68, "velocity": 112, "channel": 0}, {"type": "note_on", "time": 0, "note": 70, "velocity": 109, "channel": 0}, {"type": "note_off", "time": 130, "note": 70, "velocity": 109, "channel": 0}, {"type": "note_on", "time": 1, "note": 67, "velocity": 111, "channel": 0}, {"type": "note_off", "time": 120, "note": 67, "velocity": 111, "channel": 0}, {"type": "note_on", "time": 1599, "note": 71, "velocity": 117, "channel": 0}, {"type": "note_off", "time": 54, "note": 71, "velocity": 117, "channel": 0}, {"type": "note_on", "time": 2, "note": 72, "velocity": 114, "channel": 0}, {"type": "note_off", "time": 529, "note": 72, "velocity": 114, "channel": 0}, {"type": "note_on", "time": 13, "note": 69, "velocity": 113, "channel": 0}, {"type": "note_on", "time": 85, "note": 67, "velocity": 112, "channel": 0}, {"type": "note_off", "time": 0, "note": 69, "velocity": 113, "channel": 0}, {"type": "note_off", "time": 50, "note": 67, "velocity": 112, "channel": 0}, {"type": "note_on", "time": 8, "note": 65, "velocity": 114, "channel": 0}, {"type": "note_off", "time": 58, "note": 65, "velocity": 114, "channel": 0}, {"type": "note_on", "time": 8, "note": 64, "velocity": 122, "channel": 0}, {"type": "note_off", "time": 98, "note": 64, "velocity": 122, "channel": 0}, {"type": "note_on", "time": 4, "note": 62, "velocity": 121, "channel": 0}, {"type": "note_off", "time": 56, "note": 62, "velocity": 121, "channel": 0}, {"type": "note_on", "time": 5, "note": 60, "velocity": 107, "channel": 0}, {"type": "note_off", "time": 79, "note": 60, "velocity": 107, "channel": 0}, {"type": "note_on", "time": 0, "note": 59, "velocity": 108, "channel": 0}, {"type": "note_off", "time": 70, "note": 59, "velocity": 108, "channel": 0}, {"type": "note_on", "time": 3, "note": 57, "velocity": 98, "channel": 0}, {"type": "note_off", "time": 47, "note": 57, "velocity": 98, "channel": 0}, {"type": "note_on", "time": 5, "note": 55, "velocity": 106, "channel": 0}, {"type": "note_off", "time": 52, "note": 55, "velocity": 106, "channel": 0}, {"type": "note_on", "time": 7, "note": 54, "velocity": 105, "channel": 0}, {"type": "note_off", "time": 157, "note": 54, "velocity": 105, "channel": 0}, {"type": "note_on", "time": 31, "note": 55, "velocity": 105, "channel": 0}, {"type": "note_off", "time": 46, "note": 55, "velocity": 105, "channel": 0}, {"type": "note_on", "time": 10, "note": 57, "velocity": 95, "channel": 0}, {"type": "note_off", "time": 55, "note": 57, "velocity": 95, "channel": 0}, {"type": "note_on", "time": 27, "note": 58, "velocity": 107, "channel": 0}, {"type": "note_off", "time": 61, "note": 58, "velocity": 107, "channel": 0}, {"type": "note_on", "time": 19, "note": 63, "velocity": 120, "channel": 0}, {"type": "note_off", "time": 72, "note": 63, "velocity": 120, "channel": 0}, {"type": "note_on", "time": 0, "note": 61, "velocity": 105, "channel": 0}, {"type": "note_off", "time": 78, "note": 61, "velocity": 105, "channel": 0}, {"type": "note_on", "time": 3, "note": 62, "velocity": 107, "channel": 0}, {"type": "note_off", "time": 83, "note": 62, "velocity": 107, "channel": 0}, {"type": "note_on", "time": 14, "note": 65, "velocity": 100, "channel": 0}, {"type": "note_off", "time": 83, "note": 65, "velocity": 100, "channel": 0}, {"type": "note_on", "time": 2, "note": 67, "velocity": 108, "channel": 0}, {"type": "note_off", "time": 50, "note": 67, "velocity": 108, "channel": 0}, {"type": "note_on", "time": 4, "note": 68, "velocity": 107, "channel": 0}, {"type": "note_off", "time": 49, "note": 68, "velocity": 107, "channel": 0}, {"type": "note_on", "time": 10, "note": 71, "velocity": 108, "channel": 0}, {"type": "note_off", "time": 78, "note": 71, "velocity": 108, "channel": 0}, {"type": "note_on", "time": 4, "note": 68, "velocity": 99, "channel": 0}, {"type": "note_off", "time": 98, "note": 68, "velocity": 99, "channel": 0}, {"type": "note_on", "time": 9, "note": 69, "velocity": 96, "channel": 0}, {"type": "note_off", "time": 144, "note": 69, "velocity": 96, "channel": 0}, {"type": "note_on", "time": 25, "note": 66, "velocity": 101, "channel": 0}, {"type": "note_off", "time": 103, "note": 66, "velocity": 101, "channel": 0}, {"type": "note_on", "time": 96, "note": 68, "velocity": 113, "channel": 0}, {"type": "note_off", "time": 100, "note": 68, "velocity": 113, "channel": 0}, {"type": "note_on", "time": 4, "note": 64, "velocity": 113, "channel": 0}, {"type": "note_off", "time": 117, "note": 64, "velocity": 113, "channel": 0}, {"type": "note_on", "time": 0, "note": 63, "velocity": 113, "channel": 0}, {"type": "note_off", "time": 80, "note": 63, "velocity": 113, "channel": 0}, {"type": "note_on", "time": 0, "note": 61, "velocity": 110, "channel": 0}, {"type": "note_off", "time": 100, "note": 61, "velocity": 110, "channel": 0}, {"type": "note_on", "time": 2, "note": 66, "velocity": 104, "channel": 0}, {"type": "note_off", "time": 77, "note": 66, "velocity": 104, "channel": 0}, {"type": "note_on", "time": 12, "note": 59, "velocity": 105, "channel": 0}, {"type": "note_off", "time": 90, "note": 59, "velocity": 105, "channel": 0}, {"type": "note_on", "time": 6, "note": 56, "velocity": 98, "channel": 0}, {"type": "note_off", "time": 102, "note": 56, "velocity": 98, "channel": 0}, {"type": "note_on", "time": 157, "note": 58, "velocity": 101, "channel": 0}, {"type": "note_off", "time": 103, "note": 58, "velocity": 101, "channel": 0}, {"type": "note_on", "time": 11, "note": 54, "velocity": 94, "channel": 0}, {"type": "note_off", "time": 84, "note": 54, "velocity": 94, "channel": 0}, {"type": "note_on", "time": 8, "note": 55, "velocity": 94, "channel": 0}, {"type": "note_off", "time": 107, "note": 55, "velocity": 94, "channel": 0}, {"type": "note_on", "time": 17, "note": 56, "velocity": 108, "channel": 0}, {"type": "note_off", "time": 99, "note": 56, "velocity": 108, "channel": 0}, {"type": "note_on", "time": 0, "note": 52, "velocity": 104, "channel": 0}, {"type": "note_off", "time": 92, "note": 52, "velocity": 104, "channel": 0}, {"type": "note_on", "time": 0, "note": 51, "velocity": 104, "channel": 0}, {"type": "note_off", "time": 58, "note": 51, "velocity": 104, "channel": 0}, {"type": "note_on", "time": 1, "note": 49, "velocity": 118, "channel": 0}, {"type": "note_off", "time": 136, "note": 49, "velocity": 118, "channel": 0}, {"type": "note_on", "time": 29, "note": 48, "velocity": 98, "channel": 0}, {"type": "note_off", "time": 147, "note": 48, "velocity": 98, "channel": 0}, {"type": "note_on", "time": 33, "note": 51, "velocity": 98, "channel": 0}, {"type": "note_off", "time": 50, "note": 51, "velocity": 98, "channel": 0}, {"type": "note_on", "time": 12, "note": 52, "velocity": 104, "channel": 0}, {"type": "note_off", "time": 84, "note": 52, "velocity": 104, "channel": 0}, {"type": "note_on", "time": 22, "note": 58, "velocity": 103, "channel": 0}, {"type": "note_off", "time": 55, "note": 58, "velocity": 103, "channel": 0}, {"type": "note_on", "time": 151, "note": 51, "velocity": 96, "channel": 0}, {"type": "note_off", "time": 62, "note": 51, "velocity": 96, "channel": 0}, {"type": "note_on", "time": 13, "note": 53, "velocity": 113, "channel": 0}, {"type": "note_off", "time": 83, "note": 53, "velocity": 113, "channel": 0}, {"type": "note_on", "time": 178, "note": 51, "velocity": 110, "channel": 0}, {"type": "note_off", "time": 78, "note": 51, "velocity": 110, "channel": 0}, {"type": "note_on", "time": 30, "note": 53, "velocity": 108, "channel": 0}, {"type": "note_off", "time": 67, "note": 53, "velocity": 108, "channel": 0}, {"type": "note_on", "time": 4, "note": 55, "velocity": 107, "channel": 0}, {"type": "note_off", "time": 78, "note": 55, "velocity": 107, "channel": 0}, {"type": "note_on", "time": 0, "note": 58, "velocity": 103, "channel": 0}, {"type": "note_off", "time": 68, "note": 58, "velocity": 103, "channel": 0}, {"type": "note_on", "time": 5, "note": 62, "velocity": 116, "channel": 0}, {"type": "note_off", "time": 93, "note": 62, "velocity": 116, "channel": 0}, {"type": "note_on", "time": 7, "note": 60, "velocity": 103, "channel": 0}, {"type": "note_off", "time": 88, "note": 60, "velocity": 103, "channel": 0}, {"type": "note_on", "time": 1, "note": 57, "velocity": 96, "channel": 0}, {"type": "note_off", "time": 84, "note": 57, "velocity": 96, "channel": 0}, {"type": "note_on", "time": 3, "note": 55, "velocity": 100, "channel": 0}, {"type": "note_off", "time": 116, "note": 55, "velocity": 100, "channel": 0}, {"type": "note_on", "time": 0, "note": 57, "velocity": 108, "channel": 0}, {"type": "note_off", "time": 85, "note": 57, "velocity": 108, "channel": 0}, {"type": "note_on", "time": 18, "note": 60, "velocity": 101, "channel": 0}, {"type": "note_off", "time": 102, "note": 60, "velocity": 101, "channel": 0}, {"type": "note_on", "time": 7, "note": 63, "velocity": 111, "channel": 0}, {"type": "note_off", "time": 84, "note": 63, "velocity": 111, "channel": 0}, {"type": "note_on", "time": 10, "note": 65, "velocity": 100, "channel": 0}, {"type": "note_off", "time": 54, "note": 65, "velocity": 100, "channel": 0}, {"type": "note_on", "time": 4, "note": 62, "velocity": 110, "channel": 0}, {"type": "note_off", "time": 71, "note": 62, "velocity": 110, "channel": 0}, {"type": "note_on", "time": 355, "note": 70, "velocity": 94, "channel": 0}, {"type": "note_off", "time": 46, "note": 70, "velocity": 94, "channel": 0}, {"type": "note_on", "time": 16, "note": 74, "velocity": 107, "channel": 0}, {"type": "note_off", "time": 120, "note": 74, "velocity": 107, "channel": 0}, {"type": "note_on", "time": 0, "note": 72, "velocity": 107, "channel": 0}, {"type": "note_off", "time": 110, "note": 72, "velocity": 107, "channel": 0}, {"type": "note_on", "time": 1, "note": 67, "velocity": 107, "channel": 0}, {"type": "note_off", "time": 157, "note": 67, "velocity": 107, "channel": 0}, {"type": "note_on", "time": 9, "note": 63, "velocity": 104, "channel": 0}, {"type": "note_off", "time": 95, "note": 63, "velocity": 104, "channel": 0}, {"type": "note_on", "time": 5, "note": 70, "velocity": 115, "channel": 0}, {"type": "note_off", "time": 117, "note": 70, "velocity": 115, "channel": 0}, {"type": "note_on", "time": 0, "note": 67, "velocity": 109, "channel": 0}, {"type": "note_off", "time": 113, "note": 67, "velocity": 109, "channel": 0}, {"type": "note_on", "time": 0, "note": 68, "velocity": 105, "channel": 0}, {"type": "note_off", "time": 59, "note": 68, "velocity": 105, "channel": 0}, {"type": "note_on", "time": 2, "note": 69, "velocity": 105, "channel": 0}, {"type": "note_off", "time": 95, "note": 69, "velocity": 105, "channel": 0}, {"type": "note_on", "time": 19, "note": 65, "velocity": 101, "channel": 0}, {"type": "note_off", "time": 152, "note": 65, "velocity": 101, "channel": 0}, {"type": "note_on", "time": 8, "note": 66, "velocity": 99, "channel": 0}, {"type": "note_off", "time": 44, "note": 66, "velocity": 99, "channel": 0}, {"type": "note_on", "time": 4, "note": 67, "velocity": 112, "channel": 0}, {"type": "note_off", "time": 100, "note": 67, "velocity": 112, "channel": 0}, {"type": "note_on", "time": 36, "note": 63, "velocity": 114, "channel": 0}, {"type": "note_off", "time": 82, "note": 63, "velocity": 114, "channel": 0}, {"type": "note_on", "time": 7, "note": 62, "velocity": 114, "channel": 0}, {"type": "note_off", "time": 108, "note": 62, "velocity": 114, "channel": 0}, {"type": "note_on", "time": 4, "note": 60, "velocity": 101, "channel": 0}, {"type": "note_off", "time": 50, "note": 60, "velocity": 101, "channel": 0}, {"type": "note_on", "time": 17, "note": 65, "velocity": 116, "channel": 0}, {"type": "note_off", "time": 50, "note": 65, "velocity": 116, "channel": 0}, {"type": "note_on", "time": 8, "note": 66, "velocity": 110, "channel": 0}, {"type": "note_off", "time": 348, "note": 66, "velocity": 110, "channel": 0}, {"type": "note_on", "time": 59, "note": 61, "velocity": 105, "channel": 0}, {"type": "note_off", "time": 219, "note": 61, "velocity": 105, "channel": 0}, {"type": "note_on", "time": 212, "note": 68, "velocity": 113, "channel": 0}, {"type": "note_off", "time": 384, "note": 68, "velocity": 113, "channel": 0}, {"type": "note_on", "time": 13, "note": 64, "velocity": 114, "channel": 0}, {"type": "note_off", "time": 167, "note": 64, "velocity": 114, "channel": 0}, {"type": "note_on", "time": 239, "note": 68, "velocity": 117, "channel": 0}, {"type": "note_off", "time": 41, "note": 68, "velocity": 117, "channel": 0}, {"type": "note_on", "time": 13, "note": 70, "velocity": 103, "channel": 0}, {"type": "note_off", "time": 357, "note": 70, "velocity": 103, "channel": 0}, {"type": "note_on", "time": 0, "note": 66, "velocity": 102, "channel": 0}, {"type": "note_off", "time": 65, "note": 66, "velocity": 102, "channel": 0}, {"type": "note_on", "time": 340, "note": 69, "velocity": 111, "channel": 0}, {"type": "note_off", "time": 64, "note": 69, "velocity": 111, "channel": 0}, {"type": "note_on", "time": 6, "note": 71, "velocity": 103, "channel": 0}, {"type": "note_off", "time": 772, "note": 71, "velocity": 103, "channel": 0}, {"type": "note_on", "time": 25, "note": 69, "velocity": 93, "channel": 0}, {"type": "note_off", "time": 77, "note": 69, "velocity": 93, "channel": 0}, {"type": "note_on", "time": 48, "note": 71, "velocity": 100, "channel": 0}, {"type": "note_off", "time": 1208, "note": 71, "velocity": 100, "channel": 0}, {"type": "note_on", "time": 719, "note": 71, "velocity": 120, "channel": 0}, {"type": "note_off", "time": 156, "note": 71, "velocity": 120, "channel": 0}, {"type": "note_on", "time": 4, "note": 69, "velocity": 120, "channel": 0}, {"type": "note_off", "time": 202, "note": 69, "velocity": 120, "channel": 0}, {"type": "note_on", "time": 81, "note": 71, "velocity": 115, "channel": 0}, {"type": "note_off", "time": 66, "note": 71, "velocity": 115, "channel": 0}, {"type": "note_on", "time": 19, "note": 73, "velocity": 117, "channel": 0}, {"type": "note_off", "time": 1704, "note": 73, "velocity": 117, "channel": 0}, {"type": "note_on", "time": 629, "note": 73, "velocity": 96, "channel": 0}, {"type": "note_off", "time": 124, "note": 73, "velocity": 96, "channel": 0}, {"type": "note_on", "time": 998, "note": 79, "velocity": 116, "channel": 0}, {"type": "note_off", "time": 211, "note": 79, "velocity": 116, "channel": 0}, {"type": "note_on", "time": 631, "note": 75, "velocity": 111, "channel": 0}, {"type": "note_off", "time": 214, "note": 75, "velocity": 111, "channel": 0}, {"type": "note_on", "time": 549, "note": 71, "velocity": 121, "channel": 0}, {"type": "note_off", "time": 176, "note": 71, "velocity": 121, "channel": 0}, {"type": "note_on", "time": 14, "note": 68, "velocity": 120, "channel": 0}, {"type": "note_off", "time": 147, "note": 68, "velocity": 120, "channel": 0}, {"type": "note_on", "time": 16, "note": 63, "velocity": 118, "channel": 0}, {"type": "note_off", "time": 208, "note": 63, "velocity": 118, "channel": 0}, {"type": "note_on", "time": 37, "note": 66, "velocity": 119, "channel": 0}, {"type": "note_off", "time": 165, "note": 66, "velocity": 119, "channel": 0}, {"type": "note_on", "time": 22, "note": 65, "velocity": 118, "channel": 0}, {"type": "note_off", "time": 235, "note": 65, "velocity": 118, "channel": 0}, {"type": "note_on", "time": 0, "note": 63, "velocity": 114, "channel": 0}, {"type": "note_off", "time": 151, "note": 63, "velocity": 114, "channel": 0}, {"type": "note_on", "time": 45, "note": 61, "velocity": 9, "channel": 0}, {"type": "note_off", "time": 221, "note": 61, "velocity": 9, "channel": 0}, {"type": "note_on", "time": 23, "note": 59, "velocity": 103, "channel": 0}, {"type": "note_off", "time": 135, "note": 59, "velocity": 103, "channel": 0}, {"type": "note_on", "time": 17, "note": 56, "velocity": 103, "channel": 0}, {"type": "note_off", "time": 278, "note": 56, "velocity": 103, "channel": 0}, {"type": "note_on", "time": 65, "note": 51, "velocity": 90, "channel": 0}, {"type": "note_off", "time": 102, "note": 51, "velocity": 90, "channel": 0}, {"type": "note_on", "time": 10, "note": 58, "velocity": 95, "channel": 0}, {"type": "note_off", "time": 228, "note": 58, "velocity": 95, "channel": 0}, {"type": "note_on", "time": 49, "note": 56, "velocity": 105, "channel": 0}, {"type": "note_off", "time": 123, "note": 56, "velocity": 105, "channel": 0}, {"type": "note_on", "time": 19, "note": 54, "velocity": 103, "channel": 0}, {"type": "note_off", "time": 260, "note": 54, "velocity": 103, "channel": 0}, {"type": "note_on", "time": 17, "note": 52, "velocity": 102, "channel": 0}, {"type": "note_off", "time": 168, "note": 52, "velocity": 102, "channel": 0}, {"type": "note_on", "time": 46, "note": 51, "velocity": 100, "channel": 0}, {"type": "note_off", "time": 159, "note": 51, "velocity": 100, "channel": 0}, {"type": "note_on", "time": 856, "note": 49, "velocity": 112, "channel": 0}, {"type": "note_off", "time": 91, "note": 49, "velocity": 112, "channel": 0}, {"type": "note_on", "time": 0, "note": 51, "velocity": 104, "channel": 0}, {"type": "note_off", "time": 579, "note": 51, "velocity": 104, "channel": 0}, {"type": "note_on", "time": 44, "note": 46, "velocity": 104, "channel": 0}, {"type": "note_off", "time": 157, "note": 46, "velocity": 104, "channel": 0}, {"type": "note_on", "time": 27, "note": 47, "velocity": 104, "channel": 0}, {"type": "note_off", "time": 138, "note": 47, "velocity": 104, "channel": 0}, {"type": "note_on", "time": 15, "note": 51, "velocity": 104, "channel": 0}, {"type": "note_off", "time": 156, "note": 51, "velocity": 104, "channel": 0}, {"type": "note_on", "time": 8, "note": 54, "velocity": 115, "channel": 0}, {"type": "note_off", "time": 67, "note": 54, "velocity": 115, "channel": 0}, {"type": "note_on", "time": 9, "note": 52, "velocity": 118, "channel": 0}, {"type": "note_off", "time": 80, "note": 52, "velocity": 118, "channel": 0}, {"type": "note_on", "time": 16, "note": 54, "velocity": 105, "channel": 0}, {"type": "note_off", "time": 133, "note": 54, "velocity": 105, "channel": 0}, {"type": "note_on", "time": 12, "note": 56, "velocity": 107, "channel": 0}, {"type": "note_off", "time": 115, "note": 56, "velocity": 107, "channel": 0}, {"type": "note_on", "time": 6, "note": 58, "velocity": 112, "channel": 0}, {"type": "note_off", "time": 117, "note": 58, "velocity": 112, "channel": 0}, {"type": "note_on", "time": 3, "note": 59, "velocity": 108, "channel": 0}, {"type": "note_off", "time": 135, "note": 59, "velocity": 108, "channel": 0}, {"type": "note_on", "time": 10, "note": 61, "velocity": 110, "channel": 0}, {"type": "note_off", "time": 134, "note": 61, "velocity": 110, "channel": 0}, {"type": "note_on", "time": 1, "note": 63, "velocity": 110, "channel": 0}, {"type": "note_off", "time": 84, "note": 63, "velocity": 110, "channel": 0}, {"type": "note_on", "time": 1, "note": 64, "velocity": 116, "channel": 0}, {"type": "note_off", "time": 113, "note": 64, "velocity": 116, "channel": 0}, {"type": "note_on", "time": 0, "note": 66, "velocity": 111, "channel": 0}, {"type": "note_off", "time": 80, "note": 66, "velocity": 111, "channel": 0}, {"type": "note_on", "time": 12, "note": 68, "velocity": 111, "channel": 0}, {"type": "note_on", "time": 104, "note": 70, "velocity": 106, "channel": 0}, {"type": "note_off", "time": 0, "note": 68, "velocity": 111, "channel": 0}, {"type": "note_off", "time": 71, "note": 70, "velocity": 106, "channel": 0}, {"type": "note_on", "time": 0, "note": 71, "velocity": 112, "channel": 0}, {"type": "note_off", "time": 92, "note": 71, "velocity": 112, "channel": 0}, {"type": "note_on", "time": 0, "note": 70, "velocity": 112, "channel": 0}, {"type": "note_off", "time": 101, "note": 70, "velocity": 112, "channel": 0}, {"type": "note_on", "time": 4, "note": 68, "velocity": 110, "channel": 0}, {"type": "note_off", "time": 113, "note": 68, "velocity": 110, "channel": 0}, {"type": "note_on", "time": 0, "note": 66, "velocity": 106, "channel": 0}, {"type": "note_off", "time": 100, "note": 66, "velocity": 106, "channel": 0}, {"type": "note_on", "time": 0, "note": 64, "velocity": 107, "channel": 0}, {"type": "note_off", "time": 99, "note": 64, "velocity": 107, "channel": 0}, {"type": "note_on", "time": 0, "note": 63, "velocity": 112, "channel": 0}, {"type": "note_off", "time": 65, "note": 63, "velocity": 112, "channel": 0}, {"type": "note_on", "time": 10, "note": 61, "velocity": 113, "channel": 0}, {"type": "note_off", "time": 72, "note": 61, "velocity": 113, "channel": 0}, {"type": "note_on", "time": 4, "note": 59, "velocity": 110, "channel": 0}, {"type": "note_off", "time": 48, "note": 59, "velocity": 110, "channel": 0}, {"type": "note_on", "time": 0, "note": 58, "velocity": 102, "channel": 0}, {"type": "note_off", "time": 76, "note": 58, "velocity": 102, "channel": 0}, {"type": "note_on", "time": 30, "note": 56, "velocity": 102, "channel": 0}, {"type": "note_off", "time": 105, "note": 56, "velocity": 102, "channel": 0}, {"type": "note_on", "time": 0, "note": 54, "velocity": 97, "channel": 0}, {"type": "note_off", "time": 97, "note": 54, "velocity": 97, "channel": 0}, {"type": "note_on", "time": 5, "note": 56, "velocity": 95, "channel": 0}, {"type": "note_off", "time": 105, "note": 56, "velocity": 95, "channel": 0}, {"type": "note_on", "time": 2, "note": 58, "velocity": 98, "channel": 0}, {"type": "note_off", "time": 79, "note": 58, "velocity": 98, "channel": 0}, {"type": "note_on", "time": 1164, "note": 44, "velocity": 115, "channel": 0}, {"type": "note_off", "time": 83, "note": 44, "velocity": 115, "channel": 0}, {"type": "note_on", "time": 24, "note": 55, "velocity": 112, "channel": 0}, {"type": "note_off", "time": 71, "note": 55, "velocity": 112, "channel": 0}, {"type": "note_on", "time": 6, "note": 52, "velocity": 104, "channel": 0}, {"type": "note_off", "time": 67, "note": 52, "velocity": 104, "channel": 0}, {"type": "note_on", "time": 25, "note": 48, "velocity": 103, "channel": 0}, {"type": "note_off", "time": 71, "note": 48, "velocity": 103, "channel": 0}, {"type": "note_on", "time": 16, "note": 51, "velocity": 97, "channel": 0}, {"type": "note_off", "time": 62, "note": 51, "velocity": 97, "channel": 0}, {"type": "note_on", "time": 34, "note": 58, "velocity": 97, "channel": 0}, {"type": "note_off", "time": 167, "note": 58, "velocity": 97, "channel": 0}, {"type": "note_on", "time": 76, "note": 56, "velocity": 98, "channel": 0}, {"type": "note_off", "time": 62, "note": 56, "velocity": 98, "channel": 0}, {"type": "note_on", "time": 149, "note": 63, "velocity": 101, "channel": 0}, {"type": "note_off", "time": 97, "note": 63, "velocity": 101, "channel": 0}, {"type": "note_on", "time": 6, "note": 67, "velocity": 110, "channel": 0}, {"type": "note_off", "time": 82, "note": 67, "velocity": 110, "channel": 0}, {"type": "note_on", "time": 16, "note": 70, "velocity": 109, "channel": 0}, {"type": "note_off", "time": 41, "note": 70, "velocity": 109, "channel": 0}, {"type": "note_on", "time": 6, "note": 69, "velocity": 107, "channel": 0}, {"type": "note_off", "time": 42, "note": 69, "velocity": 107, "channel": 0}, {"type": "note_on", "time": 7, "note": 68, "velocity": 110, "channel": 0}, {"type": "note_off", "time": 93, "note": 68, "velocity": 110, "channel": 0}, {"type": "note_on", "time": 8, "note": 65, "velocity": 108, "channel": 0}, {"type": "note_off", "time": 62, "note": 65, "velocity": 108, "channel": 0}, {"type": "note_on", "time": 8, "note": 63, "velocity": 111, "channel": 0}, {"type": "note_off", "time": 107, "note": 63, "velocity": 111, "channel": 0}, {"type": "note_on", "time": 35, "note": 67, "velocity": 112, "channel": 0}, {"type": "note_off", "time": 94, "note": 67, "velocity": 112, "channel": 0}, {"type": "note_on", "time": 1, "note": 65, "velocity": 108, "channel": 0}, {"type": "note_off", "time": 59, "note": 65, "velocity": 108, "channel": 0}, {"type": "note_on", "time": 7, "note": 61, "velocity": 107, "channel": 0}, {"type": "note_off", "time": 102, "note": 61, "velocity": 107, "channel": 0}, {"type": "note_on", "time": 22, "note": 59, "velocity": 96, "channel": 0}, {"type": "note_off", "time": 92, "note": 59, "velocity": 96, "channel": 0}, {"type": "note_on", "time": 293, "note": 64, "velocity": 120, "channel": 0}, {"type": "note_off", "time": 84, "note": 64, "velocity": 120, "channel": 0}, {"type": "note_on", "time": 17, "note": 65, "velocity": 120, "channel": 0}, {"type": "note_off", "time": 48, "note": 65, "velocity": 120, "channel": 0}, {"type": "note_on", "time": 6, "note": 64, "velocity": 117, "channel": 0}, {"type": "note_off", "time": 93, "note": 64, "velocity": 117, "channel": 0}, {"type": "note_on", "time": 12, "note": 62, "velocity": 113, "channel": 0}, {"type": "note_off", "time": 105, "note": 62, "velocity": 113, "channel": 0}, {"type": "note_on", "time": 8, "note": 60, "velocity": 105, "channel": 0}, {"type": "note_off", "time": 85, "note": 60, "velocity": 105, "channel": 0}, {"type": "note_on", "time": 4, "note": 59, "velocity": 99, "channel": 0}, {"type": "note_off", "time": 100, "note": 59, "velocity": 99, "channel": 0}, {"type": "note_on", "time": 1, "note": 62, "velocity": 106, "channel": 0}, {"type": "note_off", "time": 90, "note": 62, "velocity": 106, "channel": 0}, {"type": "note_on", "time": 4, "note": 63, "velocity": 103, "channel": 0}, {"type": "note_off", "time": 68, "note": 63, "velocity": 103, "channel": 0}, {"type": "note_on", "time": 12, "note": 65, "velocity": 99, "channel": 0}, {"type": "note_off", "time": 39, "note": 65, "velocity": 99, "channel": 0}, {"type": "note_on", "time": 0, "note": 68, "velocity": 107, "channel": 0}, {"type": "note_off", "time": 61, "note": 68, "velocity": 107, "channel": 0}, {"type": "note_on", "time": 8, "note": 64, "velocity": 106, "channel": 0}, {"type": "note_off", "time": 127, "note": 64, "velocity": 106, "channel": 0}, {"type": "note_on", "time": 12, "note": 62, "velocity": 99, "channel": 0}, {"type": "note_off", "time": 80, "note": 62, "velocity": 99, "channel": 0}, {"type": "note_on", "time": 17, "note": 67, "velocity": 109, "channel": 0}, {"type": "note_off", "time": 73, "note": 67, "velocity": 109, "channel": 0}, {"type": "note_on", "time": 8, "note": 68, "velocity": 110, "channel": 0}, {"type": "note_off", "time": 45, "note": 68, "velocity": 110, "channel": 0}, {"type": "note_on", "time": 0, "note": 66, "velocity": 102, "channel": 0}, {"type": "note_off", "time": 96, "note": 66, "velocity": 102, "channel": 0}, {"type": "note_on", "time": 9, "note": 64, "velocity": 105, "channel": 0}, {"type": "note_off", "time": 101, "note": 64, "velocity": 105, "channel": 0}, {"type": "note_on", "time": 11, "note": 63, "velocity": 108, "channel": 0}, {"type": "note_off", "time": 85, "note": 63, "velocity": 108, "channel": 0}, {"type": "note_on", "time": 20, "note": 61, "velocity": 104, "channel": 0}, {"type": "note_off", "time": 103, "note": 61, "velocity": 104, "channel": 0}, {"type": "note_on", "time": 0, "note": 59, "velocity": 105, "channel": 0}, {"type": "note_off", "time": 64, "note": 59, "velocity": 105, "channel": 0}, {"type": "note_on", "time": 4, "note": 58, "velocity": 98, "channel": 0}, {"type": "note_off", "time": 118, "note": 58, "velocity": 98, "channel": 0}, {"type": "note_on", "time": 50, "note": 54, "velocity": 95, "channel": 0}, {"type": "note_off", "time": 58, "note": 54, "velocity": 95, "channel": 0}, {"type": "note_on", "time": 0, "note": 55, "velocity": 102, "channel": 0}, {"type": "note_on", "time": 83, "note": 56, "velocity": 103, "channel": 0}, {"type": "note_off", "time": 0, "note": 55, "velocity": 102, "channel": 0}, {"type": "note_off", "time": 70, "note": 56, "velocity": 103, "channel": 0}, {"type": "note_on", "time": 26, "note": 52, "velocity": 103, "channel": 0}, {"type": "note_off", "time": 74, "note": 52, "velocity": 103, "channel": 0}, {"type": "note_on", "time": 6, "note": 49, "velocity": 100, "channel": 0}, {"type": "note_off", "time": 85, "note": 49, "velocity": 100, "channel": 0}, {"type": "note_on", "time": 39, "note": 54, "velocity": 106, "channel": 0}, {"type": "note_off", "time": 69, "note": 54, "velocity": 106, "channel": 0}, {"type": "note_on", "time": 18, "note": 52, "velocity": 108, "channel": 0}, {"type": "note_off", "time": 62, "note": 52, "velocity": 108, "channel": 0}, {"type": "note_on", "time": 0, "note": 53, "velocity": 110, "channel": 0}, {"type": "note_off", "time": 60, "note": 53, "velocity": 110, "channel": 0}, {"type": "note_on", "time": 8, "note": 54, "velocity": 99, "channel": 0}, {"type": "note_off", "time": 78, "note": 54, "velocity": 99, "channel": 0}, {"type": "note_on", "time": 105, "note": 58, "velocity": 99, "channel": 0}, {"type": "note_off", "time": 83, "note": 58, "velocity": 99, "channel": 0}, {"type": "note_on", "time": 88, "note": 63, "velocity": 109, "channel": 0}, {"type": "note_off", "time": 90, "note": 63, "velocity": 109, "channel": 0}, {"type": "note_on", "time": 8, "note": 61, "velocity": 101, "channel": 0}, {"type": "note_off", "time": 88, "note": 61, "velocity": 101, "channel": 0}, {"type": "note_on", "time": 8, "note": 60, "velocity": 97, "channel": 0}, {"type": "note_off", "time": 77, "note": 60, "velocity": 97, "channel": 0}, {"type": "note_on", "time": 53, "note": 58, "velocity": 99, "channel": 0}, {"type": "note_off", "time": 73, "note": 58, "velocity": 99, "channel": 0}, {"type": "note_on", "time": 11, "note": 57, "velocity": 97, "channel": 0}, {"type": "note_off", "time": 87, "note": 57, "velocity": 97, "channel": 0}, {"type": "note_on", "time": 31, "note": 60, "velocity": 95, "channel": 0}, {"type": "note_off", "time": 85, "note": 60, "velocity": 95, "channel": 0}, {"type": "note_on", "time": 25, "note": 63, "velocity": 104, "channel": 0}, {"type": "note_off", "time": 88, "note": 63, "velocity": 104, "channel": 0}, {"type": "note_on", "time": 0, "note": 67, "velocity": 108, "channel": 0}, {"type": "note_off", "time": 76, "note": 67, "velocity": 108, "channel": 0}, {"type": "note_on", "time": 32, "note": 62, "velocity": 110, "channel": 0}, {"type": "note_off", "time": 100, "note": 62, "velocity": 110, "channel": 0}, {"type": "note_on", "time": 5, "note": 63, "velocity": 100, "channel": 0}, {"type": "note_off", "time": 73, "note": 63, "velocity": 100, "channel": 0}, {"type": "note_on", "time": 50, "note": 67, "velocity": 94, "channel": 0}, {"type": "note_off", "time": 51, "note": 67, "velocity": 94, "channel": 0}, {"type": "note_on", "time": 32, "note": 70, "velocity": 91, "channel": 0}, {"type": "note_off", "time": 74, "note": 70, "velocity": 91, "channel": 0}, {"type": "note_on", "time": 12, "note": 74, "velocity": 102, "channel": 0}, {"type": "note_off", "time": 109, "note": 74, "velocity": 102, "channel": 0}, {"type": "note_on", "time": 0, "note": 72, "velocity": 106, "channel": 0}, {"type": "note_off", "time": 108, "note": 72, "velocity": 106, "channel": 0}, {"type": "note_on", "time": 6, "note": 67, "velocity": 106, "channel": 0}, {"type": "note_off", "time": 167, "note": 67, "velocity": 106, "channel": 0}, {"type": "note_on", "time": 6, "note": 63, "velocity": 108, "channel": 0}, {"type": "note_off", "time": 100, "note": 63, "velocity": 108, "channel": 0}, {"type": "note_on", "time": 17, "note": 70, "velocity": 112, "channel": 0}, {"type": "note_off", "time": 83, "note": 70, "velocity": 112, "channel": 0}, {"type": "note_on", "time": 0, "note": 71, "velocity": 109, "channel": 0}, {"type": "note_off", "time": 58, "note": 71, "velocity": 109, "channel": 0}, {"type": "note_on", "time": 4, "note": 70, "velocity": 106, "channel": 0}, {"type": "note_off", "time": 72, "note": 70, "velocity": 106, "channel": 0}, {"type": "note_on", "time": 12, "note": 67, "velocity": 102, "channel": 0}, {"type": "note_off", "time": 111, "note": 67, "velocity": 102, "channel": 0}, {"type": "note_on", "time": 24, "note": 69, "velocity": 113, "channel": 0}, {"type": "note_off", "time": 135, "note": 69, "velocity": 113, "channel": 0}, {"type": "note_on", "time": 0, "note": 71, "velocity": 101, "channel": 0}, {"type": "note_off", "time": 47, "note": 71, "velocity": 101, "channel": 0}, {"type": "note_on", "time": 4, "note": 69, "velocity": 104, "channel": 0}, {"type": "note_off", "time": 65, "note": 69, "velocity": 104, "channel": 0}, {"type": "note_on", "time": 4, "note": 65, "velocity": 104, "channel": 0}, {"type": "note_off", "time": 144, "note": 65, "velocity": 104, "channel": 0}, {"type": "note_on", "time": 11, "note": 67, "velocity": 103, "channel": 0}, {"type": "note_off", "time": 86, "note": 67, "velocity": 103, "channel": 0}, {"type": "note_on", "time": 0, "note": 69, "velocity": 106, "channel": 0}, {"type": "note_off", "time": 48, "note": 69, "velocity": 106, "channel": 0}, {"type": "note_on", "time": 0, "note": 67, "velocity": 107, "channel": 0}, {"type": "note_off", "time": 70, "note": 67, "velocity": 107, "channel": 0}, {"type": "note_on", "time": 14, "note": 63, "velocity": 109, "channel": 0}, {"type": "note_off", "time": 136, "note": 63, "velocity": 109, "channel": 0}, {"type": "note_on", "time": 0, "note": 65, "velocity": 107, "channel": 0}, {"type": "note_off", "time": 121, "note": 65, "velocity": 107, "channel": 0}, {"type": "note_on", "time": 9, "note": 67, "velocity": 107, "channel": 0}, {"type": "note_off", "time": 73, "note": 67, "velocity": 107, "channel": 0}, {"type": "note_on", "time": 3, "note": 65, "velocity": 99, "channel": 0}, {"type": "note_off", "time": 57, "note": 65, "velocity": 99, "channel": 0}, {"type": "note_on", "time": 2, "note": 62, "velocity": 106, "channel": 0}, {"type": "note_off", "time": 159, "note": 62, "velocity": 106, "channel": 0}, {"type": "note_on", "time": 2, "note": 63, "velocity": 99, "channel": 0}, {"type": "note_off", "time": 109, "note": 63, "velocity": 99, "channel": 0}, {"type": "note_on", "time": 0, "note": 67, "velocity": 97, "channel": 0}, {"type": "note_off", "time": 53, "note": 67, "velocity": 97, "channel": 0}, {"type": "note_on", "time": 16, "note": 63, "velocity": 96, "channel": 0}, {"type": "note_off", "time": 62, "note": 63, "velocity": 96, "channel": 0}, {"type": "note_on", "time": 4, "note": 60, "velocity": 95, "channel": 0}, {"type": "note_off", "time": 59, "note": 60, "velocity": 95, "channel": 0}, {"type": "note_on", "time": 88, "note": 62, "velocity": 113, "channel": 0}, {"type": "note_off", "time": 309, "note": 62, "velocity": 113, "channel": 0}, {"type": "note_on", "time": 117, "note": 66, "velocity": 112, "channel": 0}, {"type": "note_off", "time": 252, "note": 66, "velocity": 112, "channel": 0}, {"type": "note_on", "time": 38, "note": 56, "velocity": 102, "channel": 0}, {"type": "note_off", "time": 84, "note": 56, "velocity": 102, "channel": 0}, {"type": "note_on", "time": 16, "note": 54, "velocity": 98, "channel": 0}, {"type": "note_off", "time": 296, "note": 54, "velocity": 98, "channel": 0}, {"type": "note_on", "time": 157, "note": 56, "velocity": 91, "channel": 0}, {"type": "note_off", "time": 263, "note": 56, "velocity": 91, "channel": 0}, {"type": "note_on", "time": 112, "note": 57, "velocity": 101, "channel": 0}, {"type": "note_off", "time": 189, "note": 57, "velocity": 101, "channel": 0}, {"type": "note_on", "time": 338, "note": 54, "velocity": 100, "channel": 0}, {"type": "note_off", "time": 196, "note": 54, "velocity": 100, "channel": 0}, {"type": "note_on", "time": 2, "note": 58, "velocity": 101, "channel": 0}, {"type": "note_off", "time": 127, "note": 58, "velocity": 101, "channel": 0}, {"type": "note_on", "time": 10, "note": 59, "velocity": 103, "channel": 0}, {"type": "note_off", "time": 311, "note": 59, "velocity": 103, "channel": 0}, {"type": "note_on", "time": 977, "note": 69, "velocity": 112, "channel": 0}, {"type": "note_off", "time": 79, "note": 69, "velocity": 112, "channel": 0}, {"type": "note_on", "time": 11, "note": 71, "velocity": 108, "channel": 0}, {"type": "note_off", "time": 564, "note": 71, "velocity": 108, "channel": 0}, {"type": "note_on", "time": 22, "note": 68, "velocity": 105, "channel": 0}, {"type": "note_off", "time": 121, "note": 68, "velocity": 105, "channel": 0}, {"type": "note_on", "time": 16, "note": 69, "velocity": 97, "channel": 0}, {"type": "note_off", "time": 618, "note": 69, "velocity": 97, "channel": 0}, {"type": "note_on", "time": 57, "note": 66, "velocity": 98, "channel": 0}, {"type": "note_off", "time": 119, "note": 66, "velocity": 98, "channel": 0}, {"type": "note_on", "time": 28, "note": 61, "velocity": 101, "channel": 0}, {"type": "note_off", "time": 387, "note": 61, "velocity": 101, "channel": 0}, {"type": "end_of_track", "time": 0}]]}