{"ticks_per_beat": 2520, "tracks": [[{"type": "track_name", "name": "Melody", "time": 0}, {"type": "set_tempo", "tempo": 437956, "time": 0}, {"type": "key_signature", "key": "F#", "time": 0}, {"type": "time_signature", "numerator": 4, "denominator": 4, "clocks_per_click": 24, "notated_32nd_notes_per_beat": 8, "time": 0}, {"type": "note_on", "time": 21732, "note": 58, "velocity": 100, "channel": 0}, {"type": "note_off", "time": 1841, "note": 58, "velocity": 100, "channel": 0}, {"type": "note_on", "time": 208, "note": 70, "velocity": 97, "channel": 0}, {"type": "note_off", "time": 7081, "note": 70, "velocity": 97, "channel": 0}, {"type": "note_on", "time": 467, "note": 68, "velocity": 111, "channel": 0}, {"type": "note_off", "time": 901, "note": 68, "velocity": 111, "channel": 0}, {"type": "note_on", "time": 20, "note": 66, "velocity": 100, "channel": 0}, {"type": "note_off", "time": 901, "note": 66, "velocity": 100, "channel": 0}, {"type": "note_on", "time": 100, "note": 68, "velocity": 112, "channel": 0}, {"type": "note_off", "time": 1052, "note": 68, "velocity": 112, "channel": 0}, {"type": "note_on", "time": 513, "note": 70, "velocity": 109, "channel": 0}, {"type": "note_off", "time": 730, "note": 70, "velocity": 109, "channel": 0}, {"type": "note_on", "time": 421, "note": 66, "velocity": 106, "channel": 0}, {"type": "note_off", "time": 1039, "note": 66, "velocity": 106, "channel": 0}, {"type": "note_on", "time": 156, "note": 63, "velocity": 110, "channel": 0}, {"type": "note_off", "time": 908, "note": 63, "velocity": 110, "channel": 0}, {"type": "note_on", "time": 0, "note": 69, "velocity": 109, "channel": 0}, {"type": "note_off", "time": 3607, "note": 69, "velocity": 109, "channel": 0}, {"type": "note_on", "time": 118, "note": 72, "velocity": 111, "channel": 0}, {"type": "note_off", "time": 2935, "note": 72, "velocity": 111, "channel": 0}, {"type": "note_on", "time": 9579, "note": 72, "velocity": 109, "channel": 0}, {"type": "note_off", "time": 864, "note": 72, "velocity": 109, "channel": 0}, {"type": "note_on", "time": 54, "note": 70, "velocity": 111, "channel": 0}, {"type": "note_off", "time": 540, "note": 70, "velocity": 111, "channel": 0}, {"type": "note_on", "time": 65, "note": 69, "velocity": 113, "channel": 0}, {"type": "note_off", "time": 864, "note": 69, "velocity": 113, "channel": 0}, {"type": "note_on", "time": 252, "note": 65, "velocity": 109, "channel": 0}, {"type": "note_off", "time": 1240, "note": 65, "velocity": 109, "channel": 0}, {"type": "note_on", "time": 983, "note": 71, "velocity": 115, "channel": 0}, {"type": "note_off", "time": 2677, "note": 71, "velocity": 115, "channel": 0}, {"type": "note_on", "time": 128, "note": 69, "velocity": 114, "channel": 0}, {"type": "note_off", "time": 939, "note": 69, "velocity": 114, "channel": 0}, {"type": "note_on", "time": 82, "note": 68, "velocity": 112, "channel": 0}, {"type": "note_off", "time": 704, "note": 68, "velocity": 112, "channel": 0}, {"type": "note_on", "time": 70, "note": 66, "velocity": 101, "channel": 0}, {"type": "note_off", "time": 1954, "note": 66, "velocity": 101, "channel": 0}, {"type": "note_on", "time": 4486, "note": 62, "velocity": 118, "channel": 0}, {"type": "note_off", "time": 594, "note": 62, "velocity": 118, "channel": 0}, {"type": "note_on", "time": 33, "note": 61, "velocity": 110, "channel": 0}, {"type": "note_off", "time": 422, "note": 61, "velocity": 110, "channel": 0}, {"type": "note_on", "time": 75, "note": 59, "velocity": 99, "channel": 0}, {"type": "note_off", "time": 1398, "note": 59, "velocity": 99, "channel": 0}, {"type": "note_on", "time": 233, "note": 62, "velocity": 111, "channel": 0}, {"type": "note_off", "time": 678, "note": 62, "velocity": 111, "channel": 0}, {"type": "note_on", "time": 55, "note": 61, "velocity": 105, "channel": 0}, {"type": "note_off", "time": 610, "note": 61, "velocity": 105, "channel": 0}, {"type": "note_on", "time": 91, "note": 59, "velocity": 103, "channel": 0}, {"type": "note_off", "time": 542, "note": 59, "velocity": 103, "channel": 0}, {"type": "note_on", "time": 114, "note": 62, "velocity": 114, "channel": 0}, {"type": "note_off", "time": 584, "note": 62, "velocity": 114, "channel": 0}, {"type": "note_on", "time": 0, "note": 61, "velocity": 105, "channel": 0}, {"type": "note_off", "time": 459, "note": 61, "velocity": 105, "channel": 0}, {"type": "note_on", "time": 39, "note": 59, "velocity": 101, "channel": 0}, {"type": "note_off", "time": 540, "note": 59, "velocity": 101, "channel": 0}, {"type": "note_on", "time": 86, "note": 58, "velocity": 97, "channel": 0}, {"type": "note_off", "time": 3624, "note": 58, "velocity": 97, "channel": 0}, {"type": "note_on", "time": 2828, "note": 56, "velocity": 103, "channel": 0}, {"type": "note_off", "time": 501, "note": 56, "velocity": 103, "channel": 0}, {"type": "note_on", "time": 14, "note": 54, "velocity": 96, "channel": 0}, {"type": "note_off", "time": 951, "note": 54, "velocity": 96, "channel": 0}, {"type": "note_on", "time": 0, "note": 56, "velocity": 102, "channel": 0}, {"type": "note_off", "time": 939, "note": 56, "velocity": 102, "channel": 0}, {"type": "note_on", "time": 66, "note": 58, "velocity": 100, "channel": 0}, {"type": "note_off", "time": 553, "note": 58, "velocity": 100, "channel": 0}, {"type": "note_on", "time": 3280, "note": 58, "velocity": 100, "channel": 0}, {"type": "note_off", "time": 901, "note": 58, "velocity": 100, "channel": 0}, {"type": "note_on", "time": 45, "note": 56, "velocity": 104, "channel": 0}, {"type": "note_off", "time": 672, "note": 56, "velocity": 104, "channel": 0}, {"type": "note_on", "time": 68, "note": 54, "velocity": 97, "channel": 0}, {"type": "note_off", "time": 847, "note": 54, "velocity": 97, "channel": 0}, {"type": "note_on", "time": 340, "note": 58, "velocity": 107, "channel": 0}, {"type": "note_off", "time": 551, "note": 58, "velocity": 107, "channel": 0}, {"type": "note_on", "time": 0, "note": 56, "velocity": 104, "channel": 0}, {"type": "note_off", "time": 776, "note": 56, "velocity": 104, "channel": 0}, {"type": "note_on", "time": 20, "note": 54, "velocity": 110, "channel": 0}, {"type": "note_off", "time": 672, "note": 54, "velocity": 110, "channel": 0}, {"type": "note_on", "time": 329, "note": 58, "velocity": 101, "channel": 0}, {"type": "note_on", "time": 688, "note": 56, "velocity": 107, "channel": 0}, {"type": "note_off", "time": 0, "note": 58, "velocity": 101, "channel": 0}, {"type": "note_off", "time": 467, "note": 56, "velocity": 107, "channel": 0}, {"type": "note_on", "time": 25, "note": 54, "velocity": 108, "channel": 0}, {"type": "note_off", "time": 601, "note": 54, "velocity": 108, "channel": 0}, {"type": "note_on", "time": 82, "note": 51, "velocity": 98, "channel": 0}, {"type": "note_off", "time": 2559, "note": 51, "velocity": 98, "channel": 0}, {"type": "note_on", "time": 2070, "note": 69, "velocity": 80, "channel": 0}, {"type": "note_off", "time": 167, "note": 69, "velocity": 80, "channel": 0}, {"type": "note_on", "time": 133, "note": 70, "velocity": 105, "channel": 0}, {"type": "note_off", "time": 601, "note": 70, "velocity": 105, "channel": 0}, {"type": "note_on", "time": 1066, "note": 66, "velocity": 94, "channel": 0}, {"type": "note_off", "time": 2466, "note": 66, "velocity": 94, "channel": 0}, {"type": "note_on", "time": 6093, "note": 58, "velocity": 106, "channel": 0}, {"type": "note_off", "time": 390, "note": 58, "velocity": 106, "channel": 0}, {"type": "note_on", "time": 0, "note": 63, "velocity": 116, "channel": 0}, {"type": "note_off", "time": 680, "note": 63, "velocity": 116, "channel": 0}, {"type": "note_on", "time": 0, "note": 62, "velocity": 118, "channel": 0}, {"type": "note_off", "time": 526, "note": 62, "velocity": 118, "channel": 0}, {"type": "note_on", "time": 0, "note": 63, "velocity": 116, "channel": 0}, {"type": "note_off", "time": 672, "note": 63, "velocity": 116, "channel": 0}, {"type": "note_on", "time": 112, "note": 65, "velocity": 113, "channel": 0}, {"type": "note_off", "time": 488, "note": 65, "velocity": 113, "channel": 0}, {"type": "note_on", "time": 12, "note": 66, "velocity": 114, "channel": 0}, {"type": "note_off", "time": 526, "note": 66, "velocity": 114, "channel": 0}, {"type": "note_on", "time": 37, "note": 65, "velocity": 106, "channel": 0}, {"type": "note_off", "time": 576, "note": 65, "velocity": 106, "channel": 0}, {"type": "note_on", "time": 0, "note": 66, "velocity": 110, "channel": 0}, {"type": "note_off", "time": 601, "note": 66, "velocity": 110, "channel": 0}, {"type": "note_on", "time": 31, "note": 68, "velocity": 109, "channel": 0}, {"type": "note_off", "time": 555, "note": 68, "velocity": 109, "channel": 0}, {"type": "note_on", "time": 39, "note": 69, "velocity": 113, "channel": 0}, {"type": "note_off", "time": 730, "note": 69, "velocity": 113, "channel": 0}, {"type": "note_on", "time": 29, "note": 68, "velocity": 104, "channel": 0}, {"type": "note_off", "time": 584, "note": 68, "velocity": 104, "channel": 0}, {"type": "note_on", "time": 0, "note": 69, "velocity": 109, "channel": 0}, {"type": "note_off", "time": 789, "note": 69, "velocity": 109, "channel": 0}, {"type": "note_on", "time": 29, "note": 70, "velocity": 94, "channel": 0}, {"type": "note_off", "time": 584, "note": 70, "velocity": 94, "channel": 0}, {"type": "note_on", "time": 0, "note": 72, "velocity": 111, "channel": 0}, {"type": "note_off", "time": 563, "note": 72, "velocity": 111, "channel": 0}, {"type": "note_on", "time": 49, "note": 70, "velocity": 93, "channel": 0}, {"type": "note_off", "time": 459, "note": 70, "velocity": 93, "channel": 0}, {"type": "note_on", "time": 0, "note": 72, "velocity": 110, "channel": 0}, {"type": "note_off", "time": 1081, "note": 72, "velocity": 110, "channel": 0}, {"type": "note_on", "time": 2200, "note": 70, "velocity": 108, "channel": 0}, {"type": "note_off", "time": 300, "note": 70, "velocity": 108, "channel": 0}, {"type": "note_on", "time": 33, "note": 69, "velocity": 111, "channel": 0}, {"type": "note_off", "time": 517, "note": 69, "velocity": 111, "channel": 0}, {"type": "note_on", "time": 125, "note": 65, "velocity": 107, "channel": 0}, {"type": "note_off", "time": 538, "note": 65, "velocity": 107, "channel": 0}, {"type": "note_on", "time": 4, "note": 67, "velocity": 109, "channel": 0}, {"type": "note_off", "time": 672, "note": 67, "velocity": 109, "channel": 0}, {"type": "note_on", "time": 225, "note": 63, "velocity": 113, "channel": 0}, {"type": "note_off", "time": 638, "note": 63, "velocity": 113, "channel": 0}, {"type": "note_on", "time": 12, "note": 60, "velocity": 104, "channel": 0}, {"type": "note_off", "time": 805, "note": 60, "velocity": 104, "channel": 0}, {"type": "note_on", "time": 0, "note": 57, "velocity": 97, "channel": 0}, {"type": "note_off", "time": 258, "note": 57, "velocity": 97, "channel": 0}, {"type": "note_on", "time": 0, "note": 65, "velocity": 110, "channel": 0}, {"type": "note_off", "time": 613, "note": 65, "velocity": 110, "channel": 0}, {"type": "note_on", "time": 37, "note": 62, "velocity": 114, "channel": 0}, {"type": "note_off", "time": 759, "note": 62, "velocity": 114, "channel": 0}, {"type": "note_on", "time": 4, "note": 60, "velocity": 107, "channel": 0}, {"type": "note_off", "time": 759, "note": 60, "velocity": 107, "channel": 0}, {"type": "note_on", "time": 29, "note": 58, "velocity": 101, "channel": 0}, {"type": "note_off", "time": 438, "note": 58, "velocity": 101, "channel": 0}, {"type": "note_on", "time": 910, "note": 58, "velocity": 105, "channel": 0}, {"type": "note_off", "time": 526, "note": 58, "velocity": 105, "channel": 0}, {"type": "note_on", "time": 54, "note": 57, "velocity": 104, "channel": 0}, {"type": "note_off", "time": 718, "note": 57, "velocity": 104, "channel": 0}, {"type": "note_on", "time": 133, "note": 53, "velocity": 101, "channel": 0}, {"type": "note_off", "time": 1022, "note": 53, "velocity": 101, "channel": 0}, {"type": "note_on", "time": 642, "note": 55, "velocity": 104, "channel": 0}, {"type": "note_off", "time": 672, "note": 55, "velocity": 104, "channel": 0}, {"type": "note_on", "time": 41, "note": 51, "velocity": 114, "channel": 0}, {"type": "note_off", "time": 584, "note": 51, "velocity": 114, "channel": 0}, {"type": "note_on", "time": 41, "note": 50, "velocity": 112, "channel": 0}, {"type": "note_off", "time": 642, "note": 50, "velocity": 112, "channel": 0}, {"type": "note_on", "time": 58, "note": 54, "velocity": 98, "channel": 0}, {"type": "note_off", "time": 2768, "note": 54, "velocity": 98, "channel": 0}, {"type": "note_on", "time": 3131, "note": 53, "velocity": 97, "channel": 0}, {"type": "note_off", "time": 651, "note": 53, "velocity": 97, "channel": 0}, {"type": "note_on", "time": 36, "note": 54, "velocity": 114, "channel": 0}, {"type": "note_off", "time": 563, "note": 54, "velocity": 114, "channel": 0}, {"type": "note_on", "time": 114, "note": 56, "velocity": 109, "channel": 0}, {"type": "note_off", "time": 601, "note": 56, "velocity": 109, "channel": 0}, {"type": "note_on", "time": 0, "note": 57, "velocity": 105, "channel": 0}, {"type": "note_off", "time": 496, "note": 57, "velocity": 105, "channel": 0}, {"type": "note_on", "time": 0, "note": 59, "velocity": 100, "channel": 0}, {"type": "note_off", "time": 613, "note": 59, "velocity": 100, "channel": 0}, {"type": "note_on", "time": 5, "note": 61, "velocity": 109, "channel": 0}, {"type": "note_off", "time": 563, "note": 61, "velocity": 109, "channel": 0}, {"type": "note_on", "time": 54, "note": 62, "velocity": 115, "channel": 0}, {"type": "note_off", "time": 672, "note": 62, "velocity": 115, "channel": 0}, {"type": "note_on", "time": 31, "note": 64, "velocity": 121, "channel": 0}, {"type": "note_off", "time": 551, "note": 64, "velocity": 121, "channel": 0}, {"type": "note_on", "time": 29, "note": 66, "velocity": 110, "channel": 0}, {"type": "note_off", "time": 613, "note": 66, "velocity": 110, "channel": 0}, {"type": "note_on", "time": 22, "note": 68, "velocity": 112, "channel": 0}, {"type": "note_off", "time": 496, "note": 68, "velocity": 112, "channel": 0}, {"type": "note_on", "time": 73, "note": 69, "velocity": 100, "channel": 0}, {"type": "note_off", "time": 450, "note": 69, "velocity": 100, "channel": 0}, {"type": "note_on", "time": 12, "note": 71, "velocity": 114, "channel": 0}, {"type": "note_off", "time": 1081, "note": 71, "velocity": 114, "channel": 0}, {"type": "note_on", "time": 977, "note": 69, "velocity": 115, "channel": 0}, {"type": "note_off", "time": 484, "note": 69, "velocity": 115, "channel": 0}, {"type": "note_on", "time": 66, "note": 68, "velocity": 110, "channel": 0}, {"type": "note_off", "time": 818, "note": 68, "velocity": 110, "channel": 0}, {"type": "note_on", "time": 1102, "note": 62, "velocity": 111, "channel": 0}, {"type": "note_off", "time": 672, "note": 62, "velocity": 111, "channel": 0}, {"type": "note_on", "time": 16, "note": 66, "velocity": 115, "channel": 0}, {"type": "note_off", "time": 642, "note": 66, "velocity": 115, "channel": 0}, {"type": "note_on", "time": 6, "note": 62, "velocity": 118, "channel": 0}, {"type": "note_off", "time": 352, "note": 62, "velocity": 118, "channel": 0}, {"type": "note_on", "time": 52, "note": 65, "velocity": 111, "channel": 0}, {"type": "note_off", "time": 818, "note": 65, "velocity": 111, "channel": 0}, {"type": "note_on", "time": 3868, "note": 65, "velocity": 116, "channel": 0}, {"type": "note_off", "time": 672, "note": 65, "velocity": 116, "channel": 0}, {"type": "note_on", "time": 6, "note": 62, "velocity": 118, "channel": 0}, {"type": "note_off", "time": 701, "note": 62, "velocity": 118, "channel": 0}, {"type": "note_on", "time": 56, "note": 60, "velocity": 110, "channel": 0}, {"type": "note_off", "time": 1285, "note": 60, "velocity": 110, "channel": 0}, {"type": "note_on", "time": 4928, "note": 69, "velocity": 106, "channel": 0}, {"type": "note_off", "time": 379, "note": 69, "velocity": 106, "channel": 0}, {"type": "note_on", "time": 48, "note": 65, "velocity": 112, "channel": 0}, {"type": "note_off", "time": 379, "note": 65, "velocity": 112, "channel": 0}, {"type": "note_on", "time": 41, "note": 62, "velocity": 116, "channel": 0}, {"type": "note_off", "time": 400, "note": 62, "velocity": 116, "channel": 0}, {"type": "note_on", "time": 12, "note": 60, "velocity": 107, "channel": 0}, {"type": "note_off", "time": 1110, "note": 60, "velocity": 107, "channel": 0}, {"type": "note_on", "time": 329, "note": 69, "velocity": 108, "channel": 0}, {"type": "note_off", "time": 300, "note": 69, "velocity": 108, "channel": 0}, {"type": "note_on", "time": 66, "note": 65, "velocity": 114, "channel": 0}, {"type": "note_off", "time": 367, "note": 65, "velocity": 114, "channel": 0}, {"type": "note_on", "time": 29, "note": 62, "velocity": 116, "channel": 0}, {"type": "note_off", "time": 488, "note": 62, "velocity": 116, "channel": 0}, {"type": "note_on", "time": 0, "note": 60, "velocity": 111, "channel": 0}, {"type": "note_off", "time": 1022, "note": 60, "velocity": 111, "channel": 0}, {"type": "note_on", "time": 240, "note": 69, "velocity": 108, "channel": 0}, {"type": "note_off", "time": 263, "note": 69, "velocity": 108, "channel": 0}, {"type": "note_on", "time": 60, "note": 65, "velocity": 105, "channel": 0}, {"type": "note_off", "time": 187, "note": 65, "velocity": 105, "channel": 0}, {"type": "note_on", "time": 0, "note": 62, "velocity": 115, "channel": 0}, {"type": "note_off", "time": 496, "note": 62, "velocity": 115, "channel": 0}, {"type": "note_on", "time": 108, "note": 60, "velocity": 107, "channel": 0}, {"type": "note_off", "time": 964, "note": 60, "velocity": 107, "channel": 0}, {"type": "note_on", "time": 212, "note": 69, "velocity": 105, "channel": 0}, {"type": "note_off", "time": 233, "note": 69, "velocity": 105, "channel": 0}, {"type": "note_on", "time": 66, "note": 65, "velocity": 110, "channel": 0}, {"type": "note_off", "time": 300, "note": 65, "velocity": 110, "channel": 0}, {"type": "note_on", "time": 25, "note": 63, "velocity": 113, "channel": 0}, {"type": "note_off", "time": 321, "note": 63, "velocity": 113, "channel": 0}, {"type": "note_on", "time": 121, "note": 61, "velocity": 103, "channel": 0}, {"type": "note_off", "time": 2794, "note": 61, "velocity": 103, "channel": 0}, {"type": "note_on", "time": 1592, "note": 72, "velocity": 111, "channel": 0}, {"type": "note_off", "time": 1285, "note": 72, "velocity": 111, "channel": 0}, {"type": "note_on", "time": 0, "note": 70, "velocity": 107, "channel": 0}, {"type": "note_off", "time": 1139, "note": 70, "velocity": 107, "channel": 0}, {"type": "note_on", "time": 467, "note": 65, "velocity": 106, "channel": 0}, {"type": "note_off", "time": 200, "note": 65, "velocity": 106, "channel": 0}, {"type": "note_on", "time": 42, "note": 61, "velocity": 117, "channel": 0}, {"type": "note_off", "time": 839, "note": 61, "velocity": 117, "channel": 0}, {"type": "note_on", "time": 1452, "note": 61, "velocity": 110, "channel": 0}, {"type": "note_off", "time": 613, "note": 61, "velocity": 110, "channel": 0}, {"type": "note_on", "time": 749, "note": 68, "velocity": 115, "channel": 0}, {"type": "note_off", "time": 964, "note": 68, "velocity": 115, "channel": 0}, {"type": "note_on", "time": 222, "note": 61, "velocity": 99, "channel": 0}, {"type": "note_off", "time": 636, "note": 61, "velocity": 99, "channel": 0}, {"type": "note_on", "time": 0, "note": 65, "velocity": 107, "channel": 0}, {"type": "note_off", "time": 1198, "note": 65, "velocity": 107, "channel": 0}, {"type": "note_on", "time": 586, "note": 67, "velocity": 107, "channel": 0}, {"type": "note_off", "time": 4997, "note": 67, "velocity": 107, "channel": 0}, {"type": "note_on", "time": 463, "note": 65, "velocity": 111, "channel": 0}, {"type": "note_off", "time": 839, "note": 65, "velocity": 111, "channel": 0}, {"type": "note_on", "time": 77, "note": 63, "velocity": 112, "channel": 0}, {"type": "note_off", "time": 1169, "note": 63, "velocity": 112, "channel": 0}, {"type": "note_on", "time": 348, "note": 60, "velocity": 108, "channel": 0}, {"type": "note_off", "time": 672, "note": 60, "velocity": 108, "channel": 0}, {"type": "note_on", "time": 237, "note": 58, "velocity": 103, "channel": 0}, {"type": "note_off", "time": 551, "note": 58, "velocity": 103, "channel": 0}, {"type": "note_on", "time": 45, "note": 59, "velocity": 99, "channel": 0}, {"type": "note_off", "time": 399, "note": 59, "velocity": 99, "channel": 0}, {"type": "note_on", "time": 31, "note": 58, "velocity": 98, "channel": 0}, {"type": "note_off", "time": 488, "note": 58, "velocity": 98, "channel": 0}, {"type": "note_on", "time": 37, "note": 56, "velocity": 93, "channel": 0}, {"type": "note_off", "time": 801, "note": 56, "velocity": 93, "channel": 0}, {"type": "note_on", "time": 12, "note": 58, "velocity": 100, "channel": 0}, {"type": "note_off", "time": 1766, "note": 58, "velocity": 100, "channel": 0}, {"type": "note_on", "time": 0, "note": 60, "velocity": 97, "channel": 0}, {"type": "note_off", "time": 2530, "note": 60, "velocity": 97, "channel": 0}, {"type": "note_on", "time": 4171, "note": 55, "velocity": 98, "channel": 0}, {"type": "note_off", "time": 313, "note": 55, "velocity": 98, "channel": 0}, {"type": "note_on", "time": 37, "note": 56, "velocity": 97, "channel": 0}, {"type": "note_off", "time": 338, "note": 56, "velocity": 97, "channel": 0}, {"type": "note_on", "time": 0, "note": 60, "velocity": 108, "channel": 0}, {"type": "note_on", "time": 425, "note": 63, "velocity": 112, "channel": 0}, {"type": "note_off", "time": 0, "note": 60, "velocity": 108, "channel": 0}, {"type": "note_off", "time": 576, "note": 63, "velocity": 112, "channel": 0}, {"type": "note_on", "time": 0, "note": 67, "velocity": 98, "channel": 0}, {"type": "note_off", "time": 200, "note": 67, "velocity": 98, "channel": 0}, {"type": "note_on", "time": 112, "note": 70, "velocity": 109, "channel": 0}, {"type": "note_off", "time": 672, "note": 70, "velocity": 109, "channel": 0}, {"type": "note_on", "time": 45, "note": 68, "velocity": 114, "channel": 0}, {"type": "note_off", "time": 467, "note": 68, "velocity": 114, "channel": 0}, {"type": "note_on", "time": 29, "note": 63, "velocity": 119, "channel": 0}, {"type": "note_off", "time": 868, "note": 63, "velocity": 119, "channel": 0}, {"type": "note_on", "time": 57, "note": 60, "velocity": 102, "channel": 0}, {"type": "note_off", "time": 555, "note": 60, "velocity": 102, "channel": 0}, {"type": "note_on", "time": 10, "note": 67, "velocity": 107, "channel": 0}, {"type": "note_off", "time": 730, "note": 67, "velocity": 107, "channel": 0}, {"type": "note_on", "time": 0, "note": 65, "velocity": 112, "channel": 0}, {"type": "note_off", "time": 465, "note": 65, "velocity": 112, "channel": 0}, {"type": "note_on", "time": 0, "note": 61, "velocity": 108, "channel": 0}, {"type": "note_on", "time": 642, "note": 58, "velocity": 106, "channel": 0}, {"type": "note_off", "time": 0, "note": 61, "velocity": 108, "channel": 0}, {"type": "note_off", "time": 555, "note": 58, "velocity": 106, "channel": 0}, {"type": "note_on", "time": 58, "note": 63, "velocity": 113, "channel": 0}, {"type": "note_off", "time": 657, "note": 63, "velocity": 113, "channel": 0}, {"type": "note_on", "time": 83, "note": 61, "velocity": 105, "channel": 0}, {"type": "note_off", "time": 993, "note": 61, "velocity": 105, "channel": 0}, {"type": "note_on", "time": 3325, "note": 63, "velocity": 112, "channel": 0}, {"type": "note_off", "time": 730, "note": 63, "velocity": 112, "channel": 0}, {"type": "note_on", "time": 8, "note": 61, "velocity": 107, "channel": 0}, {"type": "note_off", "time": 701, "note": 61, "velocity": 107, "channel": 0}, {"type": "note_on", "time": 51, "note": 59, "velocity": 99, "channel": 0}, {"type": "note_off", "time": 3334, "note": 59, "velocity": 99, "channel": 0}, {"type": "note_on", "time": 3692, "note": 50, "velocity": 107, "channel": 0}, {"type": "note_off", "time": 647, "note": 50, "velocity": 107, "channel": 0}, {"type": "note_on", "time": 52, "note": 51, "velocity": 113, "channel": 0}, {"type": "note_off", "time": 469, "note": 51, "velocity": 113, "channel": 0}, {"type": "note_on", "time": 93, "note": 53, "velocity": 100, "channel": 0}, {"type": "note_off", "time": 605, "note": 53, "velocity": 100, "channel": 0}, {"type": "note_on", "time": 99, "note": 54, "velocity": 105, "channel": 0}, {"type": "note_off", "time": 600, "note": 54, "velocity": 105, "channel": 0}, {"type": "note_on", "time": 0, "note": 56, "velocity": 106, "channel": 0}, {"type": "note_off", "time": 688, "note": 56, "velocity": 106, "channel": 0}, {"type": "note_on", "time": 10, "note": 58, "velocity": 104, "channel": 0}, {"type": "note_off", "time": 584, "note": 58, "velocity": 104, "channel": 0}, {"type": "note_on", "time": 18, "note": 61, "velocity": 112, "channel": 0}, {"type": "note_off", "time": 657, "note": 61, "velocity": 112, "channel": 0}, {"type": "note_on", "time": 67, "note": 60, "velocity": 107, "channel": 0}, {"type": "note_off", "time": 701, "note": 60, "velocity": 107, "channel": 0}, {"type": "note_on", "time": 0, "note": 57, "velocity": 97, "channel": 0}, {"type": "note_off", "time": 555, "note": 57, "velocity": 97, "channel": 0}, {"type": "note_on", "time": 38, "note": 58, "velocity": 101, "channel": 0}, {"type": "note_off", "time": 728, "note": 58, "velocity": 101, "channel": 0}, {"type": "note_on", "time": 3701, "note": 54, "velocity": 111, "channel": 0}, {"type": "note_off", "time": 772, "note": 54, "velocity": 111, "channel": 0}, {"type": "note_on", "time": 35, "note": 53, "velocity": 109, "channel": 0}, {"type": "note_off", "time": 399, "note": 53, "velocity": 109, "channel": 0}, {"type": "note_on", "time": 45, "note": 51, "velocity": 105, "channel": 0}, {"type": "note_off", "time": 626, "note": 51, "velocity": 105, "channel": 0}, {"type": "note_on", "time": 37, "note": 56, "velocity": 106, "channel": 0}, {"type": "note_off", "time": 584, "note": 56, "velocity": 106, "channel": 0}, {"type": "note_on", "time": 50, "note": 53, "velocity": 97, "channel": 0}, {"type": "note_off", "time": 501, "note": 53, "velocity": 97, "channel": 0}, {"type": "note_on", "time": 292, "note": 58, "velocity": 103, "channel": 0}, {"type": "note_off", "time": 513, "note": 58, "velocity": 103, "channel": 0}, {"type": "note_on", "time": 3, "note": 61, "velocity": 112, "channel": 0}, {"type": "note_off", "time": 469, "note": 61, "velocity": 112, "channel": 0}, {"type": "note_on", "time": 26, "note": 64, "velocity": 117, "channel": 0}, {"type": "note_off", "time": 563, "note": 64, "velocity": 117, "channel": 0}, {"type": "note_on", "time": 0, "note": 66, "velocity": 109, "channel": 0}, {"type": "note_off", "time": 354, "note": 66, "velocity": 109, "channel": 0}, {"type": "note_on", "time": 52, "note": 67, "velocity": 114, "channel": 0}, {"type": "note_off", "time": 250, "note": 67, "velocity": 114, "channel": 0}, {"type": "note_on", "time": 96, "note": 68, "velocity": 117, "channel": 0}, {"type": "note_on", "time": 363, "note": 67, "velocity": 116, "channel": 0}, {"type": "note_off", "time": 0, "note": 68, "velocity": 117, "channel": 0}, {"type": "note_off", "time": 338, "note": 67, "velocity": 116, "channel": 0}, {"type": "note_on", "time": 0, "note": 66, "velocity": 106, "channel": 0}, {"type": "note_off", "time": 488, "note": 66, "velocity": 106, "channel": 0}, {"type": "note_on", "time": 0, "note": 65, "velocity": 113, "channel": 0}, {"type": "note_off", "time": 400, "note": 65, "velocity": 113, "channel": 0}, {"type": "note_on", "time": 0, "note": 64, "velocity": 117, "channel": 0}, {"type": "note_off", "time": 526, "note": 64, "velocity": 117, "channel": 0}, {"type": "note_on", "time": 0, "note": 63, "velocity": 111, "channel": 0}, {"type": "note_off", "time": 425, "note": 63, "velocity": 111, "channel": 0}, {"type": "note_on", "time": 0, "note": 62, "velocity": 114, "channel": 0}, {"type": "note_on", "time": 363, "note": 61, "velocity": 111, "channel": 0}, {"type": "note_off", "time": 0, "note": 62, "velocity": 114, "channel": 0}, {"type": "note_off", "time": 425, "note": 61, "velocity": 111, "channel": 0}, {"type": "note_on", "time": 0, "note": 60, "velocity": 107, "channel": 0}, {"type": "note_off", "time": 313, "note": 60, "velocity": 107, "channel": 0}, {"type": "note_on", "time": 137, "note": 59, "velocity": 103, "channel": 0}, {"type": "note_off", "time": 363, "note": 59, "velocity": 103, "channel": 0}, {"type": "note_on", "time": 0, "note": 58, "velocity": 105, "channel": 0}, {"type": "note_off", "time": 338, "note": 58, "velocity": 105, "channel": 0}, {"type": "note_on", "time": 0, "note": 57, "velocity": 109, "channel": 0}, {"type": "note_off", "time": 388, "note": 57, "velocity": 109, "channel": 0}, {"type": "note_on", "time": 25, "note": 56, "velocity": 108, "channel": 0}, {"type": "note_off", "time": 576, "note": 56, "velocity": 108, "channel": 0}, {"type": "note_on", "time": 37, "note": 55, "velocity": 114, "channel": 0}, {"type": "note_off", "time": 472, "note": 55, "velocity": 114, "channel": 0}, {"type": "note_on", "time": 0, "note": 54, "velocity": 106, "channel": 0}, {"type": "note_off", "time": 450, "note": 54, "velocity": 106, "channel": 0}, {"type": "note_on", "time": 65, "note": 50, "velocity": 104, "channel": 0}, {"type": "note_off", "time": 288, "note": 50, "velocity": 104, "channel": 0}, {"type": "note_on", "time": 37, "note": 49, "velocity": 112, "channel": 0}, {"type": "note_off", "time": 300, "note": 49, "velocity": 112, "channel": 0}, {"type": "note_on", "time": 54, "note": 48, "velocity": 111, "channel": 0}, {"type": "note_off", "time": 587, "note": 48, "velocity": 111, "channel": 0}, {"type": "note_on", "time": 46, "note": 47, "velocity": 106, "channel": 0}, {"type": "note_off", "time": 1240, "note": 47, "velocity": 106, "channel": 0}, {"type": "note_on", "time": 288, "note": 46, "velocity": 109, "channel": 0}, {"type": "note_off", "time": 1164, "note": 46, "velocity": 109, "channel": 0}, {"type": "note_on", "time": 87, "note": 58, "velocity": 96, "channel": 0}, {"type": "note_off", "time": 3757, "note": 58, "velocity": 96, "channel": 0}, {"type": "note_on", "time": 450, "note": 53, "velocity": 105, "channel": 0}, {"type": "note_off", "time": 657, "note": 53, "velocity": 105, "channel": 0}, {"type": "note_on", "time": 56, "note": 51, "velocity": 105, "channel": 0}, {"type": "note_off", "time": 1701, "note": 51, "velocity": 105, "channel": 0}, {"type": "note_on", "time": 4185, "note": 50, "velocity": 104, "channel": 0}, {"type": "note_off", "time": 526, "note": 50, "velocity": 104, "channel": 0}, {"type": "note_on", "time": 92, "note": 51, "velocity": 105, "channel": 0}, {"type": "note_off", "time": 701, "note": 51, "velocity": 105, "channel": 0}, {"type": "note_on", "time": 50, "note": 54, "velocity": 100, "channel": 0}, {"type": "note_off", "time": 657, "note": 54, "velocity": 100, "channel": 0}, {"type": "note_on", "time": 51, "note": 56, "velocity": 99, "channel": 0}, {"type": "note_off", "time": 663, "note": 56, "velocity": 99, "channel": 0}, {"type": "note_on", "time": 0, "note": 58, "velocity": 106, "channel": 0}, {"type": "note_off", "time": 739, "note": 58, "velocity": 106, "channel": 0}, {"type": "note_on", "time": 0, "note": 62, "velocity": 109, "channel": 0}, {"type": "note_off", "time": 626, "note": 62, "velocity": 109, "channel": 0}, {"type": "note_on", "time": 0, "note": 65, "velocity": 116, "channel": 0}, {"type": "note_off", "time": 824, "note": 65, "velocity": 116, "channel": 0}, {"type": "note_on", "time": 321, "note": 65, "velocity": 114, "channel": 0}, {"type": "note_off", "time": 761, "note": 65, "velocity": 114, "channel": 0}, {"type": "note_on", "time": 8, "note": 63, "velocity": 119, "channel": 0}, {"type": "note_off", "time": 793, "note": 63, "velocity": 119, "channel": 0}, {"type": "note_on", "time": 421, "note": 63, "velocity": 117, "channel": 0}, {"type": "note_off", "time": 682, "note": 63, "velocity": 117, "channel": 0}, {"type": "note_on", "time": 0, "note": 68, "velocity": 101, "channel": 0}, {"type": "note_off", "time": 709, "note": 68, "velocity": 101, "channel": 0}, {"type": "note_on", "time": 361, "note": 58, "velocity": 105, "channel": 0}, {"type": "note_off", "time": 864, "note": 58, "velocity": 105, "channel": 0}, {"type": "note_on", "time": 56, "note": 57, "velocity": 101, "channel": 0}, {"type": "note_off", "time": 695, "note": 57, "velocity": 101, "channel": 0}, {"type": "note_on", "time": 394, "note": 57, "velocity": 100, "channel": 0}, {"type": "note_off", "time": 657, "note": 57, "velocity": 100, "channel": 0}, {"type": "note_on", "time": 0, "note": 53, "velocity": 104, "channel": 0}, {"type": "note_off", "time": 845, "note": 53, "velocity": 104, "channel": 0}, {"type": "note_on", "time": 263, "note": 53, "velocity": 110, "channel": 0}, {"type": "note_off", "time": 620, "note": 53, "velocity": 110, "channel": 0}, {"type": "note_on", "time": 93, "note": 51, "velocity": 116, "channel": 0}, {"type": "note_off", "time": 770, "note": 51, "velocity": 116, "channel": 0}, {"type": "note_on", "time": 313, "note": 51, "velocity": 108, "channel": 0}, {"type": "note_off", "time": 770, "note": 51, "velocity": 108, "channel": 0}, {"type": "note_on", "time": 25, "note": 48, "velocity": 111, "channel": 0}, {"type": "note_off", "time": 807, "note": 48, "velocity": 111, "channel": 0}, {"type": "note_on", "time": 4809, "note": 60, "velocity": 109, "channel": 0}, {"type": "note_off", "time": 413, "note": 60, "velocity": 109, "channel": 0}, {"type": "note_on", "time": 169, "note": 69, "velocity": 115, "channel": 0}, {"type": "note_off", "time": 419, "note": 69, "velocity": 115, "channel": 0}, {"type": "note_on", "time": 0, "note": 60, "velocity": 99, "channel": 0}, {"type": "note_off", "time": 601, "note": 60, "velocity": 99, "channel": 0}, {"type": "note_on", "time": 237, "note": 65, "velocity": 106, "channel": 0}, {"type": "note_off", "time": 394, "note": 65, "velocity": 106, "channel": 0}, {"type": "note_on", "time": 356, "note": 69, "velocity": 111, "channel": 0}, {"type": "note_off", "time": 601, "note": 69, "velocity": 111, "channel": 0}, {"type": "note_on", "time": 50, "note": 67, "velocity": 109, "channel": 0}, {"type": "note_on", "time": 576, "note": 65, "velocity": 101, "channel": 0}, {"type": "note_off", "time": 0, "note": 67, "velocity": 109, "channel": 0}, {"type": "note_on", "time": 576, "note": 69, "velocity": 112, "channel": 0}, {"type": "note_off", "time": 0, "note": 65, "velocity": 101, "channel": 0}, {"type": "note_off", "time": 688, "note": 69, "velocity": 112, "channel": 0}, {"type": "note_on", "time": 0, "note": 60, "velocity": 96, "channel": 0}, {"type": "note_off", "time": 601, "note": 60, "velocity": 96, "channel": 0}, {"type": "note_on", "time": 0, "note": 65, "velocity": 103, "channel": 0}, {"type": "note_off", "time": 626, "note": 65, "velocity": 103, "channel": 0}, {"type": "note_on", "time": 0, "note": 69, "velocity": 110, "channel": 0}, {"type": "note_off", "time": 695, "note": 69, "velocity": 110, "channel": 0}, {"type": "note_on", "time": 0, "note": 67, "velocity": 102, "channel": 0}, {"type": "note_off", "time": 695, "note": 67, "velocity": 102, "channel": 0}, {"type": "note_on", "time": 0, "note": 65, "velocity": 102, "channel": 0}, {"type": "note_off", "time": 375, "note": 65, "velocity": 102, "channel": 0}, {"type": "note_on", "time": 187, "note": 68, "velocity": 115, "channel": 0}, {"type": "note_off", "time": 713, "note": 68, "velocity": 115, "channel": 0}, {"type": "note_on", "time": 0, "note": 59, "velocity": 98, "channel": 0}, {"type": "note_off", "time": 507, "note": 59, "velocity": 98, "channel": 0}, {"type": "note_on", "time": 0, "note": 64, "velocity": 114, "channel": 0}, {"type": "note_off", "time": 770, "note": 64, "velocity": 114, "channel": 0}, {"type": "note_on", "time": 0, "note": 68, "velocity": 112, "channel": 0}, {"type": "note_off", "time": 544, "note": 68, "velocity": 112, "channel": 0}, {"type": "note_on", "time": 70, "note": 66, "velocity": 101, "channel": 0}, {"type": "note_off", "time": 446, "note": 66, "velocity": 101, "channel": 0}, {"type": "note_on", "time": 65, "note": 64, "velocity": 98, "channel": 0}, {"type": "note_off", "time": 488, "note": 64, "velocity": 98, "channel": 0}, {"type": "note_on", "time": 137, "note": 68, "velocity": 113, "channel": 0}, {"type": "note_off", "time": 751, "note": 68, "velocity": 113, "channel": 0}, {"type": "note_on", "time": 75, "note": 59, "velocity": 98, "channel": 0}, {"type": "note_off", "time": 588, "note": 59, "velocity": 98, "channel": 0}, {"type": "note_on", "time": 0, "note": 64, "velocity": 115, "channel": 0}, {"type": "note_off", "time": 551, "note": 64, "velocity": 115, "channel": 0}, {"type": "note_on", "time": 29, "note": 68, "velocity": 112, "channel": 0}, {"type": "note_off", "time": 626, "note": 68, "velocity": 112, "channel": 0}, {"type": "note_on", "time": 44, "note": 66, "velocity": 100, "channel": 0}, {"type": "note_off", "time": 563, "note": 66, "velocity": 100, "channel": 0}, {"type": "note_on", "time": 89, "note": 64, "velocity": 95, "channel": 0}, {"type": "note_off", "time": 338, "note": 64, "velocity": 95, "channel": 0}, {"type": "note_on", "time": 288, "note": 68, "velocity": 110, "channel": 0}, {"type": "note_on", "time": 751, "note": 59, "velocity": 98, "channel": 0}, {"type": "note_off", "time": 0, "note": 68, "velocity": 110, "channel": 0}, {"type": "note_off", "time": 388, "note": 59, "velocity": 98, "channel": 0}, {"type": "note_on", "time": 0, "note": 64, "velocity": 110, "channel": 0}, {"type": "note_off", "time": 701, "note": 64, "velocity": 110, "channel": 0}, {"type": "note_on", "time": 0, "note": 68, "velocity": 112, "channel": 0}, {"type": "note_off", "time": 726, "note": 68, "velocity": 112, "channel": 0}, {"type": "note_on", "time": 0, "note": 66, "velocity": 99, "channel": 0}, {"type": "note_off", "time": 526, "note": 66, "velocity": 99, "channel": 0}, {"type": "note_on", "time": 0, "note": 64, "velocity": 102, "channel": 0}, {"type": "note_on", "time": 413, "note": 68, "velocity": 110, "channel": 0}, {"type": "note_off", "time": 0, "note": 64, "velocity": 102, "channel": 0}, {"type": "note_off", "time": 588, "note": 68, "velocity": 110, "channel": 0}, {"type": "note_on", "time": 325, "note": 59, "velocity": 98, "channel": 0}, {"type": "note_off", "time": 388, "note": 59, "velocity": 98, "channel": 0}, {"type": "note_on", "time": 0, "note": 64, "velocity": 106, "channel": 0}, {"type": "note_off", "time": 638, "note": 64, "velocity": 106, "channel": 0}, {"type": "note_on", "time": 100, "note": 68, "velocity": 111, "channel": 0}, {"type": "note_off", "time": 764, "note": 68, "velocity": 111, "channel": 0}, {"type": "note_on", "time": 17, "note": 66, "velocity": 97, "channel": 0}, {"type": "note_off", "time": 422, "note": 66, "velocity": 97, "channel": 0}, {"type": "note_on", "time": 111, "note": 65, "velocity": 98, "channel": 0}, {"type": "note_off", "time": 288, "note": 65, "velocity": 98, "channel": 0}, {"type": "note_on", "time": 0, "note": 68, "velocity": 112, "channel": 0}, {"type": "note_off", "time": 713, "note": 68, "velocity": 112, "channel": 0}, {"type": "note_on", "time": 300, "note": 59, "velocity": 94, "channel": 0}, {"type": "note_off", "time": 475, "note": 59, "velocity": 94, "channel": 0}, {"type": "note_on", "time": 0, "note": 64, "velocity": 108, "channel": 0}, {"type": "note_on", "time": 638, "note": 68, "velocity": 108, "channel": 0}, {"type": "note_off", "time": 0, "note": 64, "velocity": 108, "channel": 0}, {"type": "note_off", "time": 626, "note": 68, "velocity": 108, "channel": 0}, {"type": "note_on", "time": 0, "note": 66, "velocity": 98, "channel": 0}, {"type": "note_on", "time": 538, "note": 64, "velocity": 105, "channel": 0}, {"type": "note_off", "time": 0, "note": 66, "velocity": 98, "channel": 0}, {"type": "note_off", "time": 551, "note": 64, "velocity": 105, "channel": 0}, {"type": "note_on", "time": 53, "note": 65, "velocity": 106, "channel": 0}, {"type": "note_off", "time": 3922, "note": 65, "velocity": 106, "channel": 0}, {"type": "note_on", "time": 1448, "note": 62, "velocity": 109, "channel": 0}, {"type": "note_off", "time": 513, "note": 62, "velocity": 109, "channel": 0}, {"type": "note_on", "time": 104, "note": 65, "velocity": 106, "channel": 0}, {"type": "note_off", "time": 422, "note": 65, "velocity": 106, "channel": 0}, {"type": "note_on", "time": 111, "note": 62, "velocity": 101, "channel": 0}, {"type": "note_off", "time": 526, "note": 62, "velocity": 101, "channel": 0}, {"type": "note_on", "time": 43, "note": 63, "velocity": 108, "channel": 0}, {"type": "note_off", "time": 540, "note": 63, "velocity": 108, "channel": 0}, {"type": "note_on", "time": 42, "note": 65, "velocity": 110, "channel": 0}, {"type": "note_off", "time": 688, "note": 65, "velocity": 110, "channel": 0}, {"type": "note_on", "time": 0, "note": 62, "velocity": 110, "channel": 0}, {"type": "note_off", "time": 726, "note": 62, "velocity": 110, "channel": 0}, {"type": "note_on", "time": 25, "note": 58, "velocity": 94, "channel": 0}, {"type": "note_off", "time": 688, "note": 58, "velocity": 94, "channel": 0}, {"type": "note_on", "time": 59, "note": 60, "velocity": 106, "channel": 0}, {"type": "note_off", "time": 516, "note": 60, "velocity": 106, "channel": 0}, {"type": "note_on", "time": 50, "note": 62, "velocity": 105, "channel": 0}, {"type": "note_off", "time": 450, "note": 62, "velocity": 105, "channel": 0}, {"type": "note_on", "time": 0, "note": 58, "velocity": 101, "channel": 0}, {"type": "note_off", "time": 726, "note": 58, "velocity": 101, "channel": 0}, {"type": "note_on", "time": 12, "note": 54, "velocity": 103, "channel": 0}, {"type": "note_off", "time": 475, "note": 54, "velocity": 103, "channel": 0}, {"type": "note_on", "time": 68, "note": 53, "velocity": 103, "channel": 0}, {"type": "note_off", "time": 610, "note": 53, "velocity": 103, "channel": 0}, {"type": "note_on", "time": 46, "note": 51, "velocity": 93, "channel": 0}, {"type": "note_off", "time": 475, "note": 51, "velocity": 93, "channel": 0}, {"type": "note_on", "time": 0, "note": 56, "velocity": 102, "channel": 0}, {"type": "note_off", "time": 814, "note": 56, "velocity": 102, "channel": 0}, {"type": "note_on", "time": 62, "note": 54, "velocity": 89, "channel": 0}, {"type": "note_off", "time": 889, "note": 54, "velocity": 89, "channel": 0}, {"type": "note_on", "time": 3381, "note": 66, "velocity": 113, "channel": 0}, {"type": "note_off", "time": 588, "note": 66, "velocity": 113, "channel": 0}, {"type": "note_on", "time": 162, "note": 68, "velocity": 117, "channel": 0}, {"type": "note_off", "time": 425, "note": 68, "velocity": 117, "channel": 0}, {"type": "note_on", "time": 325, "note": 70, "velocity": 109, "channel": 0}, {"type": "note_off", "time": 513, "note": 70, "velocity": 109, "channel": 0}, {"type": "note_on", "time": 350, "note": 72, "velocity": 111, "channel": 0}, {"type": "note_off", "time": 551, "note": 72, "velocity": 111, "channel": 0}, {"type": "note_on", "time": 212, "note": 72, "velocity": 107, "channel": 0}, {"type": "note_off", "time": 601, "note": 72, "velocity": 107, "channel": 0}, {"type": "note_on", "time": 250, "note": 72, "velocity": 112, "channel": 0}, {"type": "note_off", "time": 701, "note": 72, "velocity": 112, "channel": 0}, {"type": "note_on", "time": 150, "note": 72, "velocity": 113, "channel": 0}, {"type": "note_off", "time": 638, "note": 72, "velocity": 113, "channel": 0}, {"type": "note_on", "time": 125, "note": 72, "velocity": 111, "channel": 0}, {"type": "note_off", "time": 588, "note": 72, "velocity": 111, "channel": 0}, {"type": "note_on", "time": 225, "note": 72, "velocity": 114, "channel": 0}, {"type": "note_off", "time": 638, "note": 72, "velocity": 114, "channel": 0}, {"type": "note_on", "time": 212, "note": 72, "velocity": 116, "channel": 0}, {"type": "note_off", "time": 739, "note": 72, "velocity": 116, "channel": 0}, {"type": "note_on", "time": 50, "note": 72, "velocity": 86, "channel": 0}, {"type": "note_off", "time": 676, "note": 72, "velocity": 86, "channel": 0}, {"type": "note_on", "time": 8179, "note": 70, "velocity": 110, "channel": 0}, {"type": "note_off", "time": 526, "note": 70, "velocity": 110, "channel": 0}, {"type": "note_on", "time": 363, "note": 72, "velocity": 116, "channel": 0}, {"type": "note_off", "time": 613, "note": 72, "velocity": 116, "channel": 0}, {"type": "note_on", "time": 112, "note": 68, "velocity": 112, "channel": 0}, {"type": "note_off", "time": 538, "note": 68, "velocity": 112, "channel": 0}, {"type": "note_on", "time": 50, "note": 70, "velocity": 112, "channel": 0}, {"type": "note_off", "time": 701, "note": 70, "velocity": 112, "channel": 0}, {"type": "note_on", "time": 200, "note": 66, "velocity": 111, "channel": 0}, {"type": "note_off", "time": 739, "note": 66, "velocity": 111, "channel": 0}, {"type": "note_on", "time": 0, "note": 63, "velocity": 109, "channel": 0}, {"type": "note_off", "time": 638, "note": 63, "velocity": 109, "channel": 0}, {"type": "note_on", "time": 3870, "note": 69, "velocity": 115, "channel": 0}, {"type": "note_off", "time": 739, "note": 69, "velocity": 115, "channel": 0}, {"type": "note_on", "time": 75, "note": 72, "velocity": 106, "channel": 0}, {"type": "note_off", "time": 613, "note": 72, "velocity": 106, "channel": 0}, {"type": "note_on", "time": 112, "note": 72, "velocity": 114, "channel": 0}, {"type": "note_off", "time": 613, "note": 72, "velocity": 114, "channel": 0}, {"type": "note_on", "time": 200, "note": 72, "velocity": 115, "channel": 0}, {"type": "note_off", "time": 638, "note": 72, "velocity": 115, "channel": 0}, {"type": "note_on", "time": 150, "note": 72, "velocity": 111, "channel": 0}, {"type": "note_off", "time": 501, "note": 72, "velocity": 111, "channel": 0}, {"type": "note_on", "time": 6225, "note": 72, "velocity": 117, "channel": 0}, {"type": "note_off", "time": 501, "note": 72, "velocity": 117, "channel": 0}, {"type": "note_on", "time": 50, "note": 70, "velocity": 112, "channel": 0}, {"type": "note_off", "time": 588, "note": 70, "velocity": 112, "channel": 0}, {"type": "note_on", "time": 112, "note": 69, "velocity": 114, "channel": 0}, {"type": "note_off", "time": 688, "note": 69, "velocity": 114, "channel": 0}, {"type": "note_on", "time": 12, "note": 65, "velocity": 110, "channel": 0}, {"type": "note_off", "time": 338, "note": 65, "velocity": 110, "channel": 0}, {"type": "note_on", "time": 2329, "note": 67, "velocity": 118, "channel": 0}, {"type": "note_off", "time": 751, "note": 67, "velocity": 118, "channel": 0}, {"type": "note_on", "time": 25, "note": 63, "velocity": 118, "channel": 0}, {"type": "note_off", "time": 701, "note": 63, "velocity": 118, "channel": 0}, {"type": "note_on", "time": 62, "note": 60, "velocity": 106, "channel": 0}, {"type": "note_off", "time": 638, "note": 60, "velocity": 106, "channel": 0}, {"type": "note_on", "time": 1690, "note": 66, "velocity": 109, "channel": 0}, {"type": "note_off", "time": 501, "note": 66, "velocity": 109, "channel": 0}, {"type": "note_on", "time": 125, "note": 71, "velocity": 110, "channel": 0}, {"type": "note_off", "time": 551, "note": 71, "velocity": 110, "channel": 0}, {"type": "note_on", "time": 350, "note": 71, "velocity": 112, "channel": 0}, {"type": "note_off", "time": 638, "note": 71, "velocity": 112, "channel": 0}, {"type": "note_on", "time": 87, "note": 71, "velocity": 110, "channel": 0}, {"type": "note_off", "time": 626, "note": 71, "velocity": 110, "channel": 0}, {"type": "note_on", "time": 137, "note": 71, "velocity": 110, "channel": 0}, {"type": "note_off", "time": 713, "note": 71, "velocity": 110, "channel": 0}, {"type": "note_on", "time": 125, "note": 71, "velocity": 111, "channel": 0}, {"type": "note_off", "time": 626, "note": 71, "velocity": 111, "channel": 0}, {"type": "note_on", "time": 125, "note": 71, "velocity": 108, "channel": 0}, {"type": "note_off", "time": 400, "note": 71, "velocity": 108, "channel": 0}, {"type": "note_on", "time": 4747, "note": 71, "velocity": 110, "channel": 0}, {"type": "note_off", "time": 488, "note": 71, "velocity": 110, "channel": 0}, {"type": "note_on", "time": 0, "note": 70, "velocity": 107, "channel": 0}, {"type": "note_off", "time": 388, "note": 70, "velocity": 107, "channel": 0}, {"type": "note_on", "time": 50, "note": 68, "velocity": 112, "channel": 0}, {"type": "note_off", "time": 501, "note": 68, "velocity": 112, "channel": 0}, {"type": "note_on", "time": 212, "note": 64, "velocity": 118, "channel": 0}, {"type": "note_off", "time": 551, "note": 64, "velocity": 118, "channel": 0}, {"type": "note_on", "time": 73, "note": 59, "velocity": 104, "channel": 0}, {"type": "note_off", "time": 775, "note": 59, "velocity": 104, "channel": 0}, {"type": "note_on", "time": 28, "note": 58, "velocity": 105, "channel": 0}, {"type": "note_off", "time": 613, "note": 58, "velocity": 105, "channel": 0}, {"type": "note_on", "time": 39, "note": 56, "velocity": 104, "channel": 0}, {"type": "note_off", "time": 587, "note": 56, "velocity": 104, "channel": 0}, {"type": "note_on", "time": 112, "note": 52, "velocity": 112, "channel": 0}, {"type": "note_off", "time": 1791, "note": 52, "velocity": 112, "channel": 0}, {"type": "note_on", "time": 1603, "note": 46, "velocity": 109, "channel": 0}, {"type": "note_off", "time": 4095, "note": 46, "velocity": 109, "channel": 0}, {"type": "note_on", "time": 25, "note": 47, "velocity": 105, "channel": 0}, {"type": "note_off", "time": 663, "note": 47, "velocity": 105, "channel": 0}, {"type": "note_on", "time": 50, "note": 52, "velocity": 109, "channel": 0}, {"type": "note_off", "time": 1089, "note": 52, "velocity": 109, "channel": 0}, {"type": "note_on", "time": 75, "note": 56, "velocity": 101, "channel": 0}, {"type": "note_off", "time": 3895, "note": 56, "velocity": 101, "channel": 0}, {"type": "note_on", "time": 75, "note": 52, "velocity": 105, "channel": 0}, {"type": "note_off", "time": 551, "note": 52, "velocity": 105, "channel": 0}, {"type": "note_on", "time": 12, "note": 56, "velocity": 105, "channel": 0}, {"type": "note_off", "time": 663, "note": 56, "velocity": 105, "channel": 0}, {"type": "note_on", "time": 0, "note": 54, "velocity": 104, "channel": 0}, {"type": "note_off", "time": 626, "note": 54, "velocity": 104, "channel": 0}, {"type": "note_on", "time": 25, "note": 51, "velocity": 105, "channel": 0}, {"type": "note_off", "time": 2530, "note": 51, "velocity": 105, "channel": 0}, {"type": "note_on", "time": 1089, "note": 50, "velocity": 115, "channel": 0}, {"type": "note_off", "time": 601, "note": 50, "velocity": 115, "channel": 0}, {"type": "note_on", "time": 37, "note": 51, "velocity": 115, "channel": 0}, {"type": "note_off", "time": 438, "note": 51, "velocity": 115, "channel": 0}, {"type": "note_on", "time": 26, "note": 53, "velocity": 108, "channel": 0}, {"type": "note_off", "time": 516, "note": 53, "velocity": 108, "channel": 0}, {"type": "note_on", "time": 46, "note": 54, "velocity": 109, "channel": 0}, {"type": "note_off", "time": 469, "note": 54, "velocity": 109, "channel": 0}, {"type": "note_on", "time": 54, "note": 56, "velocity": 109, "channel": 0}, {"type": "note_off", "time": 839, "note": 56, "velocity": 109, "channel": 0}, {"type": "note_on", "time": 21, "note": 58, "velocity": 110, "channel": 0}, {"type": "note_off", "time": 587, "note": 58, "velocity": 110, "channel": 0}, {"type": "note_on", "time": 180, "note": 61, "velocity": 121, "channel": 0}, {"type": "note_off", "time": 350, "note": 61, "velocity": 121, "channel": 0}, {"type": "note_on", "time": 0, "note": 60, "velocity": 118, "channel": 0}, {"type": "note_off", "time": 2116, "note": 60, "velocity": 118, "channel": 0}, {"type": "note_on", "time": 237, "note": 60, "velocity": 106, "channel": 0}, {"type": "note_off", "time": 726, "note": 60, "velocity": 106, "channel": 0}, {"type": "note_on", "time": 876, "note": 60, "velocity": 116, "channel": 0}, {"type": "note_off", "time": 801, "note": 60, "velocity": 116, "channel": 0}, {"type": "note_on", "time": 75, "note": 60, "velocity": 112, "channel": 0}, {"type": "note_off", "time": 501, "note": 60, "velocity": 112, "channel": 0}, {"type": "note_on", "time": 6225, "note": 58, "velocity": 103, "channel": 0}, {"type": "note_off", "time": 313, "note": 58, "velocity": 103, "channel": 0}, {"type": "note_on", "time": 65, "note": 60, "velocity": 114, "channel": 0}, {"type": "note_off", "time": 305, "note": 60, "velocity": 114, "channel": 0}, {"type": "note_on", "time": 104, "note": 61, "velocity": 112, "channel": 0}, {"type": "note_off", "time": 388, "note": 61, "velocity": 112, "channel": 0}, {"type": "note_on", "time": 0, "note": 63, "velocity": 115, "channel": 0}, {"type": "note_off", "time": 601, "note": 63, "velocity": 115, "channel": 0}, {"type": "note_on", "time": 0, "note": 65, "velocity": 113, "channel": 0}, {"type": "note_off", "time": 513, "note": 65, "velocity": 113, "channel": 0}, {"type": "note_on", "time": 0, "note": 63, "velocity": 116, "channel": 0}, {"type": "note_off", "time": 438, "note": 63, "velocity": 116, "channel": 0}, {"type": "note_on", "time": 0, "note": 61, "velocity": 115, "channel": 0}, {"type": "note_off", "time": 413, "note": 61, "velocity": 115, "channel": 0}, {"type": "note_on", "time": 0, "note": 60, "velocity": 114, "channel": 0}, {"type": "note_off", "time": 1177, "note": 60, "velocity": 114, "channel": 0}, {"type": "note_on", "time": 187, "note": 60, "velocity": 113, "channel": 0}, {"type": "note_off", "time": 438, "note": 60, "velocity": 113, "channel": 0}, {"type": "note_on", "time": 25, "note": 61, "velocity": 112, "channel": 0}, {"type": "note_off", "time": 300, "note": 61, "velocity": 112, "channel": 0}, {"type": "note_on", "time": 84, "note": 63, "velocity": 114, "channel": 0}, {"type": "note_off", "time": 399, "note": 63, "velocity": 114, "channel": 0}, {"type": "note_on", "time": 142, "note": 65, "velocity": 117, "channel": 0}, {"type": "note_off", "time": 338, "note": 65, "velocity": 117, "channel": 0}, {"type": "note_on", "time": 0, "note": 63, "velocity": 119, "channel": 0}, {"type": "note_on", "time": 425, "note": 61, "velocity": 116, "channel": 0}, {"type": "note_off", "time": 0, "note": 63, "velocity": 119, "channel": 0}, {"type": "note_off", "time": 450, "note": 61, "velocity": 116, "channel": 0}, {"type": "note_on", "time": 0, "note": 60, "velocity": 110, "channel": 0}, {"type": "note_off", "time": 876, "note": 60, "velocity": 110, "channel": 0}, {"type": "note_on", "time": 125, "note": 60, "velocity": 110, "channel": 0}, {"type": "note_off", "time": 651, "note": 60, "velocity": 110, "channel": 0}, {"type": "note_on", "time": 25, "note": 62, "velocity": 115, "channel": 0}, {"type": "note_off", "time": 450, "note": 62, "velocity": 115, "channel": 0}, {"type": "note_on", "time": 0, "note": 63, "velocity": 115, "channel": 0}, {"type": "note_off", "time": 413, "note": 63, "velocity": 115, "channel": 0}, {"type": "note_on", "time": 0, "note": 65, "velocity": 114, "channel": 0}, {"type": "note_off", "time": 413, "note": 65, "velocity": 114, "channel": 0}, {"type": "note_on", "time": 0, "note": 63, "velocity": 117, "channel": 0}, {"type": "note_off", "time": 363, "note": 63, "velocity": 117, "channel": 0}, {"type": "note_on", "time": 0, "note": 62, "velocity": 117, "channel": 0}, {"type": "note_off", "time": 526, "note": 62, "velocity": 117, "channel": 0}, {"type": "note_on", "time": 0, "note": 60, "velocity": 109, "channel": 0}, {"type": "note_off", "time": 726, "note": 60, "velocity": 109, "channel": 0}, {"type": "note_on", "time": 400, "note": 60, "velocity": 108, "channel": 0}, {"type": "note_off", "time": 413, "note": 60, "velocity": 108, "channel": 0}, {"type": "note_on", "time": 0, "note": 62, "velocity": 112, "channel": 0}, {"type": "note_off", "time": 263, "note": 62, "velocity": 112, "channel": 0}, {"type": "note_on", "time": 0, "note": 63, "velocity": 113, "channel": 0}, {"type": "note_off", "time": 388, "note": 63, "velocity": 113, "channel": 0}, {"type": "note_on", "time": 0, "note": 65, "velocity": 110, "channel": 0}, {"type": "note_off", "time": 513, "note": 65, "velocity": 110, "channel": 0}, {"type": "note_on", "time": 0, "note": 63, "velocity": 114, "channel": 0}, {"type": "note_off", "time": 413, "note": 63, "velocity": 114, "channel": 0}, {"type": "note_on", "time": 0, "note": 62, "velocity": 115, "channel": 0}, {"type": "note_off", "time": 501, "note": 62, "velocity": 115, "channel": 0}, {"type": "note_on", "time": 0, "note": 60, "velocity": 106, "channel": 0}, {"type": "note_off", "time": 739, "note": 60, "velocity": 106, "channel": 0}, {"type": "note_on", "time": 2680, "note": 60, "velocity": 101, "channel": 0}, {"type": "note_off", "time": 325, "note": 60, "velocity": 101, "channel": 0}, {"type": "note_on", "time": 438, "note": 58, "velocity": 106, "channel": 0}, {"type": "note_off", "time": 475, "note": 58, "velocity": 106, "channel": 0}, {"type": "note_on", "time": 75, "note": 57, "velocity": 100, "channel": 0}, {"type": "note_off", "time": 488, "note": 57, "velocity": 100, "channel": 0}, {"type": "note_on", "time": 50, "note": 60, "velocity": 105, "channel": 0}, {"type": "note_off", "time": 501, "note": 60, "velocity": 105, "channel": 0}, {"type": "note_on", "time": 12, "note": 63, "velocity": 103, "channel": 0}, {"type": "note_off", "time": 626, "note": 63, "velocity": 103, "channel": 0}, {"type": "note_on", "time": 237, "note": 67, "velocity": 111, "channel": 0}, {"type": "note_off", "time": 450, "note": 67, "velocity": 111, "channel": 0}, {"type": "note_on", "time": 0, "note": 62, "velocity": 117, "channel": 0}, {"type": "note_off", "time": 663, "note": 62, "velocity": 117, "channel": 0}, {"type": "note_on", "time": 62, "note": 63, "velocity": 118, "channel": 0}, {"type": "note_off", "time": 764, "note": 63, "velocity": 118, "channel": 0}, {"type": "note_on", "time": 50, "note": 67, "velocity": 102, "channel": 0}, {"type": "note_off", "time": 463, "note": 67, "velocity": 102, "channel": 0}, {"type": "note_on", "time": 75, "note": 70, "velocity": 89, "channel": 0}, {"type": "note_off", "time": 450, "note": 70, "velocity": 89, "channel": 0}, {"type": "note_on", "time": 12, "note": 74, "velocity": 97, "channel": 0}, {"type": "note_off", "time": 701, "note": 74, "velocity": 97, "channel": 0}, {"type": "note_on", "time": 62, "note": 72, "velocity": 107, "channel": 0}, {"type": "note_off", "time": 413, "note": 72, "velocity": 107, "channel": 0}, {"type": "note_on", "time": 0, "note": 67, "velocity": 106, "channel": 0}, {"type": "note_off", "time": 651, "note": 67, "velocity": 106, "channel": 0}, {"type": "note_on", "time": 137, "note": 63, "velocity": 98, "channel": 0}, {"type": "note_off", "time": 563, "note": 63, "velocity": 98, "channel": 0}, {"type": "note_on", "time": 25, "note": 70, "velocity": 106, "channel": 0}, {"type": "note_off", "time": 588, "note": 70, "velocity": 106, "channel": 0}, {"type": "note_on", "time": 363, "note": 67, "velocity": 104, "channel": 0}, {"type": "note_off", "time": 438, "note": 67, "velocity": 104, "channel": 0}, {"type": "note_on", "time": 39, "note": 68, "velocity": 106, "channel": 0}, {"type": "note_off", "time": 610, "note": 68, "velocity": 106, "channel": 0}, {"type": "note_on", "time": 51, "note": 69, "velocity": 103, "channel": 0}, {"type": "note_off", "time": 501, "note": 69, "velocity": 103, "channel": 0}, {"type": "note_on", "time": 151, "note": 73, "velocity": 103, "channel": 0}, {"type": "note_off", "time": 1766, "note": 73, "velocity": 103, "channel": 0}, {"type": "note_on", "time": 98, "note": 69, "velocity": 103, "channel": 0}, {"type": "note_off", "time": 488, "note": 69, "velocity": 103, "channel": 0}, {"type": "note_on", "time": 18, "note": 68, "velocity": 109, "channel": 0}, {"type": "note_off", "time": 375, "note": 68, "velocity": 109, "channel": 0}, {"type": "note_on", "time": 64, "note": 66, "velocity": 102, "channel": 0}, {"type": "note_off", "time": 1127, "note": 66, "velocity": 102, "channel": 0}, {"type": "note_on", "time": 8283, "note": 73, "velocity": 111, "channel": 0}, {"type": "note_off", "time": 1152, "note": 73, "velocity": 111, "channel": 0}, {"type": "note_on", "time": 187, "note": 71, "velocity": 114, "channel": 0}, {"type": "note_off", "time": 475, "note": 71, "velocity": 114, "channel": 0}, {"type": "note_on", "time": 187, "note": 69, "velocity": 109, "channel": 0}, {"type": "note_off", "time": 864, "note": 69, "velocity": 109, "channel": 0}, {"type": "note_on", "time": 0, "note": 68, "velocity": 109, "channel": 0}, {"type": "note_on", "time": 463, "note": 66, "velocity": 112, "channel": 0}, {"type": "note_off", "time": 0, "note": 68, "velocity": 109, "channel": 0}, {"type": "note_off", "time": 538, "note": 66, "velocity": 112, "channel": 0}, {"type": "note_on", "time": 0, "note": 62, "velocity": 118, "channel": 0}, {"type": "note_off", "time": 889, "note": 62, "velocity": 118, "channel": 0}, {"type": "note_on", "time": 12, "note": 61, "velocity": 111, "channel": 0}, {"type": "note_off", "time": 613, "note": 61, "velocity": 111, "channel": 0}, {"type": "note_on", "time": 475, "note": 59, "velocity": 104, "channel": 0}, {"type": "note_off", "time": 475, "note": 59, "velocity": 104, "channel": 0}, {"type": "note_on", "time": 801, "note": 57, "velocity": 103, "channel": 0}, {"type": "note_off", "time": 576, "note": 57, "velocity": 103, "channel": 0}, {"type": "note_on", "time": 0, "note": 58, "velocity": 104, "channel": 0}, {"type": "note_off", "time": 551, "note": 58, "velocity": 104, "channel": 0}, {"type": "note_on", "time": 62, "note": 54, "velocity": 103, "channel": 0}, {"type": "note_off", "time": 400, "note": 54, "velocity": 103, "channel": 0}, {"type": "note_on", "time": 0, "note": 53, "velocity": 105, "channel": 0}, {"type": "note_off", "time": 764, "note": 53, "velocity": 105, "channel": 0}, {"type": "note_on", "time": 0, "note": 51, "velocity": 99, "channel": 0}, {"type": "note_off", "time": 513, "note": 51, "velocity": 99, "channel": 0}, {"type": "note_on", "time": 50, "note": 67, "velocity": 109, "channel": 0}, {"type": "note_off", "time": 864, "note": 67, "velocity": 109, "channel": 0}, {"type": "note_on", "time": 162, "note": 53, "velocity": 108, "channel": 0}, {"type": "note_off", "time": 814, "note": 53, "velocity": 108, "channel": 0}, {"type": "note_on", "time": 12, "note": 54, "velocity": 102, "channel": 0}, {"type": "note_off", "time": 1678, "note": 54, "velocity": 102, "channel": 0}, {"type": "note_on", "time": 175, "note": 54, "velocity": 90, "channel": 0}, {"type": "note_off", "time": 613, "note": 54, "velocity": 90, "channel": 0}, {"type": "note_on", "time": 3632, "note": 53, "velocity": 108, "channel": 0}, {"type": "note_off", "time": 388, "note": 53, "velocity": 108, "channel": 0}, {"type": "note_on", "time": 0, "note": 54, "velocity": 104, "channel": 0}, {"type": "note_off", "time": 263, "note": 54, "velocity": 104, "channel": 0}, {"type": "note_on", "time": 75, "note": 58, "velocity": 113, "channel": 0}, {"type": "note_off", "time": 313, "note": 58, "velocity": 113, "channel": 0}, {"type": "note_on", "time": 0, "note": 61, "velocity": 119, "channel": 0}, {"type": "note_off", "time": 613, "note": 61, "velocity": 119, "channel": 0}, {"type": "note_on", "time": 150, "note": 65, "velocity": 108, "channel": 0}, {"type": "note_off", "time": 6446, "note": 65, "velocity": 108, "channel": 0}, {"type": "note_on", "time": 292, "note": 61, "velocity": 111, "channel": 0}, {"type": "note_off", "time": 463, "note": 61, "velocity": 111, "channel": 0}, {"type": "note_on", "time": 25, "note": 58, "velocity": 104, "channel": 0}, {"type": "note_on", "time": 1853, "note": 60, "velocity": 111, "channel": 0}, {"type": "note_off", "time": 0, "note": 58, "velocity": 104, "channel": 0}, {"type": "note_off", "time": 876, "note": 60, "velocity": 111, "channel": 0}, {"type": "note_on", "time": 0, "note": 53, "velocity": 106, "channel": 0}, {"type": "note_off", "time": 1878, "note": 53, "velocity": 106, "channel": 0}, {"type": "note_on", "time": 87, "note": 56, "velocity": 110, "channel": 0}, {"type": "note_off", "time": 768, "note": 56, "velocity": 110, "channel": 0}, {"type": "note_on", "time": 45, "note": 58, "velocity": 95, "channel": 0}, {"type": "note_off", "time": 1402, "note": 58, "velocity": 95, "channel": 0}, {"type": "note_on", "time": 526, "note": 60, "velocity": 91, "channel": 0}, {"type": "note_off", "time": 2304, "note": 60, "velocity": 91, "channel": 0}, {"type": "note_on", "time": 1690, "note": 57, "velocity": 98, "channel": 0}, {"type": "note_off", "time": 350, "note": 57, "velocity": 98, "channel": 0}, {"type": "note_on", "time": 0, "note": 58, "velocity": 101, "channel": 0}, {"type": "note_off", "time": 338, "note": 58, "velocity": 101, "channel": 0}, {"type": "note_on", "time": 0, "note": 61, "velocity": 110, "channel": 0}, {"type": "note_off", "time": 551, "note": 61, "velocity": 110, "channel": 0}, {"type": "note_on", "time": 0, "note": 64, "velocity": 109, "channel": 0}, {"type": "note_off", "time": 463, "note": 64, "velocity": 109, "channel": 0}, {"type": "note_on", "time": 0, "note": 67, "velocity": 112, "channel": 0}, {"type": "note_off", "time": 375, "note": 67, "velocity": 112, "channel": 0}, {"type": "note_on", "time": 12, "note": 65, "velocity": 103, "channel": 0}, {"type": "note_off", "time": 200, "note": 65, "velocity": 103, "channel": 0}, {"type": "note_on", "time": 12, "note": 64, "velocity": 119, "channel": 0}, {"type": "note_off", "time": 352, "note": 64, "velocity": 119, "channel": 0}, {"type": "note_on", "time": 98, "note": 62, "velocity": 113, "channel": 0}, {"type": "note_off", "time": 313, "note": 62, "velocity": 113, "channel": 0}, {"type": "note_on", "time": 0, "note": 61, "velocity": 111, "channel": 0}, {"type": "note_off", "time": 338, "note": 61, "velocity": 111, "channel": 0}, {"type": "note_on", "time": 0, "note": 62, "velocity": 115, "channel": 0}, {"type": "note_off", "time": 300, "note": 62, "velocity": 115, "channel": 0}, {"type": "note_on", "time": 0, "note": 64, "velocity": 109, "channel": 0}, {"type": "note_off", "time": 338, "note": 64, "velocity": 109, "channel": 0}, {"type": "note_on", "time": 0, "note": 71, "velocity": 108, "channel": 0}, {"type": "note_off", "time": 551, "note": 71, "velocity": 108, "channel": 0}, {"type": "note_on", "time": 103, "note": 69, "velocity": 108, "channel": 0}, {"type": "note_off", "time": 1290, "note": 69, "velocity": 108, "channel": 0}, {"type": "note_on", "time": 21, "note": 71, "velocity": 104, "channel": 0}, {"type": "note_off", "time": 475, "note": 71, "velocity": 104, "channel": 0}, {"type": "note_on", "time": 150, "note": 64, "velocity": 116, "channel": 0}, {"type": "note_off", "time": 588, "note": 64, "velocity": 116, "channel": 0}, {"type": "note_on", "time": 513, "note": 56, "velocity": 101, "channel": 0}, {"type": "note_off", "time": 538, "note": 56, "velocity": 101, "channel": 0}, {"type": "note_on", "time": 29, "note": 58, "velocity": 90, "channel": 0}, {"type": "note_off", "time": 250, "note": 58, "velocity": 90, "channel": 0}, {"type": "note_on", "time": 58, "note": 60, "velocity": 104, "channel": 0}, {"type": "note_off", "time": 263, "note": 60, "velocity": 104, "channel": 0}, {"type": "note_on", "time": 0, "note": 61, "velocity": 111, "channel": 0}, {"type": "note_off", "time": 241, "note": 61, "velocity": 111, "channel": 0}, {"type": "note_on", "time": 55, "note": 64, "velocity": 109, "channel": 0}, {"type": "note_off", "time": 200, "note": 64, "velocity": 109, "channel": 0}, {"type": "note_on", "time": 54, "note": 65, "velocity": 112, "channel": 0}, {"type": "note_off", "time": 225, "note": 65, "velocity": 112, "channel": 0}, {"type": "note_on", "time": 0, "note": 67, "velocity": 117, "channel": 0}, {"type": "note_off", "time": 475, "note": 67, "velocity": 117, "channel": 0}, {"type": "note_on", "time": 29, "note": 66, "velocity": 109, "channel": 0}, {"type": "note_off", "time": 283, "note": 66, "velocity": 109, "channel": 0}, {"type": "note_on", "time": 33, "note": 65, "velocity": 110, "channel": 0}, {"type": "note_off", "time": 217, "note": 65, "velocity": 110, "channel": 0}, {"type": "note_on", "time": 37, "note": 63, "velocity": 111, "channel": 0}, {"type": "note_off", "time": 463, "note": 63, "velocity": 111, "channel": 0}, {"type": "note_on", "time": 0, "note": 61, "velocity": 106, "channel": 0}, {"type": "note_off", "time": 250, "note": 61, "velocity": 106, "channel": 0}, {"type": "note_on", "time": 33, "note": 60, "velocity": 103, "channel": 0}, {"type": "note_off", "time": 283, "note": 60, "velocity": 103, "channel": 0}, {"type": "note_on", "time": 50, "note": 58, "velocity": 98, "channel": 0}, {"type": "note_off", "time": 217, "note": 58, "velocity": 98, "channel": 0}, {"type": "note_on", "time": 4, "note": 56, "velocity": 103, "channel": 0}, {"type": "note_off", "time": 270, "note": 56, "velocity": 103, "channel": 0}, {"type": "note_on", "time": 30, "note": 55, "velocity": 102, "channel": 0}, {"type": "note_off", "time": 1965, "note": 55, "velocity": 102, "channel": 0}, {"type": "note_on", "time": 1, "note": 56, "velocity": 95, "channel": 0}, {"type": "note_off", "time": 372, "note": 56, "velocity": 95, "channel": 0}, {"type": "note_on", "time": 28, "note": 60, "velocity": 94, "channel": 0}, {"type": "note_off", "time": 267, "note": 60, "velocity": 94, "channel": 0}, {"type": "note_on", "time": 16, "note": 62, "velocity": 104, "channel": 0}, {"type": "note_off", "time": 200, "note": 62, "velocity": 104, "channel": 0}, {"type": "note_on", "time": 79, "note": 63, "velocity": 106, "channel": 0}, {"type": "note_off", "time": 526, "note": 63, "velocity": 106, "channel": 0}, {"type": "note_on", "time": 0, "note": 67, "velocity": 98, "channel": 0}, {"type": "note_off", "time": 321, "note": 67, "velocity": 98, "channel": 0}, {"type": "note_on", "time": 115, "note": 70, "velocity": 106, "channel": 0}, {"type": "note_off", "time": 305, "note": 70, "velocity": 106, "channel": 0}, {"type": "note_on", "time": 38, "note": 65, "velocity": 104, "channel": 0}, {"type": "note_off", "time": 217, "note": 65, "velocity": 104, "channel": 0}, {"type": "note_on", "time": 16, "note": 63, "velocity": 110, "channel": 0}, {"type": "note_off", "time": 1190, "note": 63, "velocity": 110, "channel": 0}, {"type": "note_on", "time": 4832, "note": 67, "velocity": 90, "channel": 0}, {"type": "note_on", "time": 379, "note": 70, "velocity": 104, "channel": 0}, {"type": "note_off", "time": 0, "note": 67, "velocity": 90, "channel": 0}, {"type": "note_off", "time": 547, "note": 70, "velocity": 104, "channel": 0}, {"type": "note_on", "time": 187, "note": 68, "velocity": 107, "channel": 0}, {"type": "note_off", "time": 726, "note": 68, "velocity": 107, "channel": 0}, {"type": "note_on", "time": 0, "note": 63, "velocity": 112, "channel": 0}, {"type": "note_on", "time": 726, "note": 60, "velocity": 103, "channel": 0}, {"type": "note_off", "time": 0, "note": 63, "velocity": 112, "channel": 0}, {"type": "note_off", "time": 599, "note": 60, "velocity": 103, "channel": 0}, {"type": "note_on", "time": 258, "note": 67, "velocity": 106, "channel": 0}, {"type": "note_off", "time": 562, "note": 67, "velocity": 106, "channel": 0}, {"type": "note_on", "time": 0, "note": 68, "velocity": 97, "channel": 0}, {"type": "note_off", "time": 328, "note": 68, "velocity": 97, "channel": 0}, {"type": "note_on", "time": 1598, "note": 67, "velocity": 112, "channel": 0}, {"type": "note_off", "time": 469, "note": 67, "velocity": 112, "channel": 0}, {"type": "note_on", "time": 29, "note": 68, "velocity": 114, "channel": 0}, {"type": "note_off", "time": 299, "note": 68, "velocity": 114, "channel": 0}, {"type": "note_on", "time": 0, "note": 67, "velocity": 109, "channel": 0}, {"type": "note_off", "time": 423, "note": 67, "velocity": 109, "channel": 0}, {"type": "note_on", "time": 0, "note": 65, "velocity": 112, "channel": 0}, {"type": "note_off", "time": 796, "note": 65, "velocity": 112, "channel": 0}, {"type": "note_on", "time": 131, "note": 63, "velocity": 114, "channel": 0}, {"type": "note_off", "time": 796, "note": 63, "velocity": 114, "channel": 0}, {"type": "note_on", "time": 36, "note": 59, "velocity": 99, "channel": 0}, {"type": "note_off", "time": 2630, "note": 59, "velocity": 99, "channel": 0}, {"type": "note_on", "time": 6591, "note": 59, "velocity": 104, "channel": 0}, {"type": "note_off", "time": 518, "note": 59, "velocity": 104, "channel": 0}, {"type": "note_on", "time": 0, "note": 63, "velocity": 117, "channel": 0}, {"type": "note_off", "time": 745, "note": 63, "velocity": 117, "channel": 0}, {"type": "note_on", "time": 82, "note": 61, "velocity": 110, "channel": 0}, {"type": "note_off", "time": 540, "note": 61, "velocity": 110, "channel": 0}, {"type": "note_on", "time": 107, "note": 59, "velocity": 95, "channel": 0}, {"type": "note_off", "time": 569, "note": 59, "velocity": 95, "channel": 0}, {"type": "note_on", "time": 102, "note": 56, "velocity": 111, "channel": 0}, {"type": "note_off", "time": 445, "note": 56, "velocity": 111, "channel": 0}, {"type": "note_on", "time": 102, "note": 63, "velocity": 119, "channel": 0}, {"type": "note_off", "time": 657, "note": 63, "velocity": 119, "channel": 0}, {"type": "note_on", "time": 87, "note": 61, "velocity": 114, "channel": 0}, {"type": "note_off", "time": 650, "note": 61, "velocity": 114, "channel": 0}, {"type": "note_on", "time": 0, "note": 59, "velocity": 105, "channel": 0}, {"type": "note_off", "time": 606, "note": 59, "velocity": 105, "channel": 0}, {"type": "note_on", "time": 21, "note": 57, "velocity": 97, "channel": 0}, {"type": "note_off", "time": 499, "note": 57, "velocity": 97, "channel": 0}, {"type": "note_on", "time": 0, "note": 64, "velocity": 121, "channel": 0}, {"type": "note_off", "time": 822, "note": 64, "velocity": 121, "channel": 0}, {"type": "note_on", "time": 95, "note": 61, "velocity": 110, "channel": 0}, {"type": "note_off", "time": 453, "note": 61, "velocity": 110, "channel": 0}, {"type": "note_on", "time": 0, "note": 56, "velocity": 107, "channel": 0}, {"type": "note_off", "time": 241, "note": 56, "velocity": 107, "channel": 0}, {"type": "note_on", "time": 0, "note": 57, "velocity": 104, "channel": 0}, {"type": "note_off", "time": 548, "note": 57, "velocity": 104, "channel": 0}, {"type": "note_on", "time": 204, "note": 53, "velocity": 108, "channel": 0}, {"type": "note_on", "time": 526, "note": 64, "velocity": 117, "channel": 0}, {"type": "note_off", "time": 0, "note": 53, "velocity": 108, "channel": 0}, {"type": "note_off", "time": 840, "note": 64, "velocity": 117, "channel": 0}, {"type": "note_on", "time": 0, "note": 61, "velocity": 110, "channel": 0}, {"type": "note_off", "time": 555, "note": 61, "velocity": 110, "channel": 0}, {"type": "note_on", "time": 314, "note": 56, "velocity": 112, "channel": 0}, {"type": "note_off", "time": 211, "note": 56, "velocity": 112, "channel": 0}, {"type": "note_on", "time": 0, "note": 57, "velocity": 108, "channel": 0}, {"type": "note_off", "time": 526, "note": 57, "velocity": 108, "channel": 0}, {"type": "note_on", "time": 175, "note": 53, "velocity": 103, "channel": 0}, {"type": "note_off", "time": 577, "note": 53, "velocity": 103, "channel": 0}, {"type": "note_on", "time": 679, "note": 64, "velocity": 120, "channel": 0}, {"type": "note_off", "time": 438, "note": 64, "velocity": 120, "channel": 0}, {"type": "note_on", "time": 48, "note": 65, "velocity": 109, "channel": 0}, {"type": "note_off", "time": 3734, "note": 65, "velocity": 109, "channel": 0}, {"type": "note_on", "time": 148, "note": 61, "velocity": 106, "channel": 0}, {"type": "note_off", "time": 540, "note": 61, "velocity": 106, "channel": 0}, {"type": "note_on", "time": 0, "note": 58, "velocity": 99, "channel": 0}, {"type": "note_on", "time": 445, "note": 56, "velocity": 105, "channel": 0}, {"type": "note_off", "time": 0, "note": 58, "velocity": 99, "channel": 0}, {"type": "note_off", "time": 1278, "note": 56, "velocity": 105, "channel": 0}, {"type": "note_on", "time": 0, "note": 63, "velocity": 115, "channel": 0}, {"type": "note_off", "time": 1169, "note": 63, "velocity": 115, "channel": 0}, {"type": "note_on", "time": 5984, "note": 65, "velocity": 113, "channel": 0}, {"type": "note_off", "time": 284, "note": 65, "velocity": 113, "channel": 0}, {"type": "note_on", "time": 263, "note": 68, "velocity": 109, "channel": 0}, {"type": "note_off", "time": 511, "note": 68, "velocity": 109, "channel": 0}, {"type": "note_on", "time": 0, "note": 73, "velocity": 112, "channel": 0}, {"type": "note_off", "time": 1059, "note": 73, "velocity": 112, "channel": 0}, {"type": "note_on", "time": 57, "note": 71, "velocity": 114, "channel": 0}, {"type": "note_off", "time": 2278, "note": 71, "velocity": 114, "channel": 0}, {"type": "note_on", "time": 97, "note": 68, "velocity": 105, "channel": 0}, {"type": "note_off", "time": 621, "note": 68, "velocity": 105, "channel": 0}, {"type": "note_on", "time": 146, "note": 70, "velocity": 114, "channel": 0}, {"type": "note_off", "time": 796, "note": 70, "velocity": 114, "channel": 0}, {"type": "note_on", "time": 194, "note": 63, "velocity": 109, "channel": 0}, {"type": "note_off", "time": 2818, "note": 63, "velocity": 109, "channel": 0}, {"type": "note_on", "time": 2526, "note": 70, "velocity": 117, "channel": 0}, {"type": "note_off", "time": 832, "note": 70, "velocity": 117, "channel": 0}, {"type": "note_on", "time": 979, "note": 70, "velocity": 116, "channel": 0}, {"type": "note_off", "time": 898, "note": 70, "velocity": 116, "channel": 0}, {"type": "note_on", "time": 80, "note": 70, "velocity": 116, "channel": 0}, {"type": "note_off", "time": 679, "note": 70, "velocity": 116, "channel": 0}, {"type": "note_on", "time": 694, "note": 70, "velocity": 115, "channel": 0}, {"type": "note_off", "time": 730, "note": 70, "velocity": 115, "channel": 0}, {"type": "note_on", "time": 599, "note": 75, "velocity": 107, "channel": 0}, {"type": "note_off", "time": 979, "note": 75, "velocity": 107, "channel": 0}, {"type": "note_on", "time": 679, "note": 75, "velocity": 109, "channel": 0}, {"type": "note_off", "time": 716, "note": 75, "velocity": 109, "channel": 0}, {"type": "note_on", "time": 267, "note": 77, "velocity": 85, "channel": 0}, {"type": "note_off", "time": 1268, "note": 77, "velocity": 85, "channel": 0}, {"type": "note_on", "time": 375, "note": 77, "velocity": 96, "channel": 0}, {"type": "note_off", "time": 1127, "note": 77, "velocity": 96, "channel": 0}, {"type": "note_on", "time": 907, "note": 75, "velocity": 112, "channel": 0}, {"type": "note_off", "time": 789, "note": 75, "velocity": 112, "channel": 0}, {"type": "note_on", "time": 0, "note": 73, "velocity": 116, "channel": 0}, {"type": "note_off", "time": 737, "note": 73, "velocity": 116, "channel": 0}, {"type": "note_on", "time": 31, "note": 72, "velocity": 114, "channel": 0}, {"type": "note_off", "time": 4016, "note": 72, "velocity": 114, "channel": 0}, {"type": "note_on", "time": 8724, "note": 72, "velocity": 115, "channel": 0}, {"type": "note_off", "time": 767, "note": 72, "velocity": 115, "channel": 0}, {"type": "note_on", "time": 36, "note": 70, "velocity": 112, "channel": 0}, {"type": "note_off", "time": 496, "note": 70, "velocity": 112, "channel": 0}, {"type": "note_on", "time": 65, "note": 69, "velocity": 112, "channel": 0}, {"type": "note_off", "time": 781, "note": 69, "velocity": 112, "channel": 0}, {"type": "note_on", "time": 0, "note": 67, "velocity": 110, "channel": 0}, {"type": "note_off", "time": 657, "note": 67, "velocity": 110, "channel": 0}, {"type": "note_on", "time": 0, "note": 65, "velocity": 113, "channel": 0}, {"type": "note_off", "time": 496, "note": 65, "velocity": 113, "channel": 0}, {"type": "note_on", "time": 7, "note": 64, "velocity": 127, "channel": 0}, {"type": "note_off", "time": 474, "note": 64, "velocity": 127, "channel": 0}, {"type": "note_on", "time": 87, "note": 63, "velocity": 119, "channel": 0}, {"type": "note_on", "time": 701, "note": 62, "velocity": 121, "channel": 0}, {"type": "note_off", "time": 0, "note": 63, "velocity": 119, "channel": 0}, {"type": "note_off", "time": 453, "note": 62, "velocity": 121, "channel": 0}, {"type": "note_on", "time": 0, "note": 60, "velocity": 114, "channel": 0}, {"type": "note_off", "time": 657, "note": 60, "velocity": 114, "channel": 0}, {"type": "note_on", "time": 0, "note": 58, "velocity": 106, "channel": 0}, {"type": "note_off", "time": 708, "note": 58, "velocity": 106, "channel": 0}, {"type": "note_on", "time": 7, "note": 57, "velocity": 105, "channel": 0}, {"type": "note_off", "time": 504, "note": 57, "velocity": 105, "channel": 0}, {"type": "note_on", "time": 81, "note": 48, "velocity": 107, "channel": 0}, {"type": "note_off", "time": 1039, "note": 48, "velocity": 107, "channel": 0}, {"type": "note_on", "time": 18, "note": 51, "velocity": 101, "channel": 0}, {"type": "note_off", "time": 971, "note": 51, "velocity": 101, "channel": 0}, {"type": "note_on", "time": 14, "note": 54, "velocity": 99, "channel": 0}, {"type": "note_off", "time": 3875, "note": 54, "velocity": 99, "channel": 0}, {"type": "note_on", "time": 518, "note": 50, "velocity": 103, "channel": 0}, {"type": "note_off", "time": 425, "note": 50, "velocity": 103, "channel": 0}, {"type": "note_on", "time": 0, "note": 52, "velocity": 104, "channel": 0}, {"type": "note_off", "time": 513, "note": 52, "velocity": 104, "channel": 0}, {"type": "note_on", "time": 0, "note": 54, "velocity": 98, "channel": 0}, {"type": "note_off", "time": 501, "note": 54, "velocity": 98, "channel": 0}, {"type": "note_on", "time": 18, "note": 56, "velocity": 108, "channel": 0}, {"type": "note_off", "time": 504, "note": 56, "velocity": 108, "channel": 0}, {"type": "note_on", "time": 0, "note": 59, "velocity": 104, "channel": 0}, {"type": "note_off", "time": 365, "note": 59, "velocity": 104, "channel": 0}, {"type": "note_on", "time": 0, "note": 61, "velocity": 111, "channel": 0}, {"type": "note_off", "time": 540, "note": 61, "velocity": 111, "channel": 0}, {"type": "note_on", "time": 0, "note": 62, "velocity": 116, "channel": 0}, {"type": "note_off", "time": 350, "note": 62, "velocity": 116, "channel": 0}, {"type": "note_on", "time": 0, "note": 64, "velocity": 122, "channel": 0}, {"type": "note_off", "time": 394, "note": 64, "velocity": 122, "channel": 0}, {"type": "note_on", "time": 0, "note": 65, "velocity": 114, "channel": 0}, {"type": "note_off", "time": 443, "note": 65, "velocity": 114, "channel": 0}, {"type": "note_on", "time": 0, "note": 67, "velocity": 116, "channel": 0}, {"type": "note_off", "time": 540, "note": 67, "velocity": 116, "channel": 0}, {"type": "note_on", "time": 24, "note": 66, "velocity": 107, "channel": 0}, {"type": "note_off", "time": 2170, "note": 66, "velocity": 107, "channel": 0}, {"type": "note_on", "time": 0, "note": 61, "velocity": 113, "channel": 0}, {"type": "note_off", "time": 1658, "note": 61, "velocity": 113, "channel": 0}, {"type": "note_on", "time": 72, "note": 59, "velocity": 99, "channel": 0}, {"type": "note_off", "time": 2653, "note": 59, "velocity": 99, "channel": 0}, {"type": "note_on", "time": 65, "note": 54, "velocity": 97, "channel": 0}, {"type": "note_off", "time": 811, "note": 54, "velocity": 97, "channel": 0}, {"type": "note_on", "time": 204, "note": 58, "velocity": 105, "channel": 0}, {"type": "note_off", "time": 935, "note": 58, "velocity": 105, "channel": 0}, {"type": "note_on", "time": 102, "note": 56, "velocity": 108, "channel": 0}, {"type": "note_off", "time": 847, "note": 56, "velocity": 108, "channel": 0}, {"type": "note_on", "time": 36, "note": 54, "velocity": 100, "channel": 0}, {"type": "note_off", "time": 1234, "note": 54, "velocity": 100, "channel": 0}, {"type": "note_on", "time": 0, "note": 50, "velocity": 101, "channel": 0}, {"type": "note_off", "time": 796, "note": 50, "velocity": 101, "channel": 0}, {"type": "note_on", "time": 211, "note": 53, "velocity": 114, "channel": 0}, {"type": "note_off", "time": 642, "note": 53, "velocity": 114, "channel": 0}, {"type": "note_on", "time": 0, "note": 50, "velocity": 107, "channel": 0}, {"type": "note_off", "time": 445, "note": 50, "velocity": 107, "channel": 0}, {"type": "note_on", "time": 53, "note": 51, "velocity": 102, "channel": 0}, {"type": "note_off", "time": 2419, "note": 51, "velocity": 102, "channel": 0}, {"type": "note_on", "time": 55, "note": 53, "velocity": 109, "channel": 0}, {"type": "note_off", "time": 467, "note": 53, "velocity": 109, "channel": 0}, {"type": "note_on", "time": 0, "note": 54, "velocity": 102, "channel": 0}, {"type": "note_off", "time": 533, "note": 54, "velocity": 102, "channel": 0}, {"type": "note_on", "time": 110, "note": 56, "velocity": 103, "channel": 0}, {"type": "note_off", "time": 242, "note": 56, "velocity": 103, "channel": 0}, {"type": "note_on", "time": 50, "note": 54, "velocity": 106, "channel": 0}, {"type": "note_off", "time": 225, "note": 54, "velocity": 106, "channel": 0}, {"type": "note_on", "time": 41, "note": 57, "velocity": 89, "channel": 0}, {"type": "note_off", "time": 359, "note": 57, "velocity": 89, "channel": 0}, {"type": "note_on", "time": 125, "note": 59, "velocity": 96, "channel": 0}, {"type": "note_off", "time": 248, "note": 59, "velocity": 96, "channel": 0}, {"type": "note_on", "time": 0, "note": 61, "velocity": 106, "channel": 0}, {"type": "note_off", "time": 657, "note": 61, "velocity": 106, "channel": 0}, {"type": "note_on", "time": 0, "note": 60, "velocity": 106, "channel": 0}, {"type": "note_off", "time": 2681, "note": 60, "velocity": 106, "channel": 0}, {"type": "note_on", "time": 49, "note": 61, "velocity": 105, "channel": 0}, {"type": "note_off", "time": 563, "note": 61, "velocity": 105, "channel": 0}, {"type": "note_on", "time": 73, "note": 60, "velocity": 104, "channel": 0}, {"type": "note_off", "time": 1607, "note": 60, "velocity": 104, "channel": 0}, {"type": "note_on", "time": 116, "note": 61, "velocity": 110, "channel": 0}, {"type": "note_off", "time": 343, "note": 61, "velocity": 110, "channel": 0}, {"type": "note_on", "time": 43, "note": 60, "velocity": 107, "channel": 0}, {"type": "note_off", "time": 752, "note": 60, "velocity": 107, "channel": 0}, {"type": "note_on", "time": 277, "note": 58, "velocity": 101, "channel": 0}, {"type": "note_off", "time": 431, "note": 58, "velocity": 101, "channel": 0}, {"type": "note_on", "time": 131, "note": 56, "velocity": 98, "channel": 0}, {"type": "note_off", "time": 672, "note": 56, "velocity": 98, "channel": 0}, {"type": "note_on", "time": 0, "note": 58, "velocity": 93, "channel": 0}, {"type": "note_off", "time": 358, "note": 58, "velocity": 93, "channel": 0}, {"type": "note_on", "time": 34, "note": 60, "velocity": 101, "channel": 0}, {"type": "note_off", "time": 1803, "note": 60, "velocity": 101, "channel": 0}, {"type": "note_on", "time": 66, "note": 60, "velocity": 90, "channel": 0}, {"type": "note_off", "time": 4208, "note": 60, "velocity": 90, "channel": 0}, {"type": "end_of_track", "time": 0}]]}