{"ticks_per_beat": 192, "tracks": [[{"type": "track_name", "name": "Melody", "time": 0}, {"type": "set_tempo", "tempo": 217391, "time": 0}, {"type": "key_signature", "key": "Eb", "time": 0}, {"type": "time_signature", "numerator": 4, "denominator": 4, "clocks_per_click": 24, "notated_32nd_notes_per_beat": 8, "time": 0}, {"type": "note_on", "time": 2660, "note": 72, "velocity": 120, "channel": 0}, {"type": "note_off", "time": 151, "note": 72, "velocity": 120, "channel": 0}, {"type": "note_on", "time": 24, "note": 65, "velocity": 107, "channel": 0}, {"type": "note_off", "time": 106, "note": 65, "velocity": 107, "channel": 0}, {"type": "note_on", "time": 543, "note": 70, "velocity": 117, "channel": 0}, {"type": "note_off", "time": 95, "note": 70, "velocity": 117, "channel": 0}, {"type": "note_on", "time": 0, "note": 68, "velocity": 118, "channel": 0}, {"type": "note_off", "time": 93, "note": 68, "velocity": 118, "channel": 0}, {"type": "note_on", "time": 0, "note": 65, "velocity": 112, "channel": 0}, {"type": "note_off", "time": 176, "note": 65, "velocity": 112, "channel": 0}, {"type": "note_on", "time": 450, "note": 60, "velocity": 111, "channel": 0}, {"type": "note_off", "time": 97, "note": 60, "velocity": 111, "channel": 0}, {"type": "note_on", "time": 0, "note": 63, "velocity": 104, "channel": 0}, {"type": "note_off", "time": 55, "note": 63, "velocity": 104, "channel": 0}, {"type": "note_on", "time": 7, "note": 67, "velocity": 118, "channel": 0}, {"type": "note_off", "time": 97, "note": 67, "velocity": 118, "channel": 0}, {"type": "note_on", "time": 9, "note": 63, "velocity": 113, "channel": 0}, {"type": "note_off", "time": 57, "note": 63, "velocity": 113, "channel": 0}, {"type": "note_on", "time": 47, "note": 65, "velocity": 120, "channel": 0}, {"type": "note_off", "time": 125, "note": 65, "velocity": 120, "channel": 0}, {"type": "note_on", "time": 17, "note": 60, "velocity": 105, "channel": 0}, {"type": "note_off", "time": 52, "note": 60, "velocity": 105, "channel": 0}, {"type": "note_on", "time": 21, "note": 58, "velocity": 100, "channel": 0}, {"type": "note_off", "time": 107, "note": 58, "velocity": 100, "channel": 0}, {"type": "note_on", "time": 82, "note": 64, "velocity": 113, "channel": 0}, {"type": "note_off", "time": 128, "note": 64, "velocity": 113, "channel": 0}, {"type": "note_on", "time": 1, "note": 61, "velocity": 106, "channel": 0}, {"type": "note_off", "time": 73, "note": 61, "velocity": 106, "channel": 0}, {"type": "note_on", "time": 16, "note": 59, "velocity": 103, "channel": 0}, {"type": "note_off", "time": 101, "note": 59, "velocity": 103, "channel": 0}, {"type": "note_on", "time": 24, "note": 54, "velocity": 94, "channel": 0}, {"type": "note_off", "time": 49, "note": 54, "velocity": 94, "channel": 0}, {"type": "note_on", "time": 12, "note": 55, "velocity": 104, "channel": 0}, {"type": "note_off", "time": 207, "note": 55, "velocity": 104, "channel": 0}, {"type": "note_on", "time": 237, "note": 66, "velocity": 112, "channel": 0}, {"type": "note_off", "time": 115, "note": 66, "velocity": 112, "channel": 0}, {"type": "note_on", "time": 334, "note": 53, "velocity": 104, "channel": 0}, {"type": "note_off", "time": 64, "note": 53, "velocity": 104, "channel": 0}, {"type": "note_on", "time": 12, "note": 55, "velocity": 105, "channel": 0}, {"type": "note_off", "time": 57, "note": 55, "velocity": 105, "channel": 0}, {"type": "note_on", "time": 73, "note": 61, "velocity": 102, "channel": 0}, {"type": "note_off", "time": 58, "note": 61, "velocity": 102, "channel": 0}, {"type": "note_on", "time": 25, "note": 66, "velocity": 116, "channel": 0}, {"type": "note_on", "time": 98, "note": 64, "velocity": 115, "channel": 0}, {"type": "note_off", "time": 0, "note": 66, "velocity": 116, "channel": 0}, {"type": "note_off", "time": 119, "note": 64, "velocity": 115, "channel": 0}, {"type": "note_on", "time": 0, "note": 63, "velocity": 116, "channel": 0}, {"type": "note_off", "time": 98, "note": 63, "velocity": 116, "channel": 0}, {"type": "note_on", "time": 8, "note": 61, "velocity": 110, "channel": 0}, {"type": "note_off", "time": 87, "note": 61, "velocity": 110, "channel": 0}, {"type": "note_on", "time": 1, "note": 60, "velocity": 108, "channel": 0}, {"type": "note_off", "time": 87, "note": 60, "velocity": 108, "channel": 0}, {"type": "note_on", "time": 29, "note": 58, "velocity": 110, "channel": 0}, {"type": "note_off", "time": 65, "note": 58, "velocity": 110, "channel": 0}, {"type": "note_on", "time": 17, "note": 55, "velocity": 101, "channel": 0}, {"type": "note_off", "time": 166, "note": 55, "velocity": 101, "channel": 0}, {"type": "note_on", "time": 25, "note": 57, "velocity": 108, "channel": 0}, {"type": "note_off", "time": 89, "note": 57, "velocity": 108, "channel": 0}, {"type": "note_on", "time": 5, "note": 48, "velocity": 101, "channel": 0}, {"type": "note_off", "time": 66, "note": 48, "velocity": 101, "channel": 0}, {"type": "note_on", "time": 35, "note": 51, "velocity": 94, "channel": 0}, {"type": "note_off", "time": 73, "note": 51, "velocity": 94, "channel": 0}, {"type": "note_on", "time": 33, "note": 55, "velocity": 109, "channel": 0}, {"type": "note_off", "time": 75, "note": 55, "velocity": 109, "channel": 0}, {"type": "note_on", "time": 15, "note": 54, "velocity": 98, "channel": 0}, {"type": "note_off", "time": 83, "note": 54, "velocity": 98, "channel": 0}, {"type": "note_on", "time": 14, "note": 57, "velocity": 101, "channel": 0}, {"type": "note_off", "time": 78, "note": 57, "velocity": 101, "channel": 0}, {"type": "note_on", "time": 6, "note": 60, "velocity": 107, "channel": 0}, {"type": "note_off", "time": 99, "note": 60, "velocity": 107, "channel": 0}, {"type": "note_on", "time": 2, "note": 62, "velocity": 107, "channel": 0}, {"type": "note_off", "time": 102, "note": 62, "velocity": 107, "channel": 0}, {"type": "note_on", "time": 1, "note": 63, "velocity": 116, "channel": 0}, {"type": "note_off", "time": 91, "note": 63, "velocity": 116, "channel": 0}, {"type": "note_on", "time": 10, "note": 62, "velocity": 117, "channel": 0}, {"type": "note_off", "time": 84, "note": 62, "velocity": 117, "channel": 0}, {"type": "note_on", "time": 3, "note": 61, "velocity": 105, "channel": 0}, {"type": "note_off", "time": 83, "note": 61, "velocity": 105, "channel": 0}, {"type": "note_on", "time": 12, "note": 62, "velocity": 113, "channel": 0}, {"type": "note_off", "time": 97, "note": 62, "velocity": 113, "channel": 0}, {"type": "note_on", "time": 5, "note": 58, "velocity": 98, "channel": 0}, {"type": "note_off", "time": 276, "note": 58, "velocity": 98, "channel": 0}, {"type": "note_on", "time": 0, "note": 62, "velocity": 114, "channel": 0}, {"type": "note_off", "time": 305, "note": 62, "velocity": 114, "channel": 0}, {"type": "note_on", "time": 5, "note": 65, "velocity": 115, "channel": 0}, {"type": "note_off", "time": 365, "note": 65, "velocity": 115, "channel": 0}, {"type": "note_on", "time": 17, "note": 62, "velocity": 94, "channel": 0}, {"type": "note_off", "time": 62, "note": 62, "velocity": 94, "channel": 0}, {"type": "note_on", "time": 10, "note": 63, "velocity": 99, "channel": 0}, {"type": "note_off", "time": 43, "note": 63, "velocity": 99, "channel": 0}, {"type": "note_on", "time": 14, "note": 65, "velocity": 91, "channel": 0}, {"type": "note_off", "time": 56, "note": 65, "velocity": 91, "channel": 0}, {"type": "note_on", "time": 0, "note": 69, "velocity": 98, "channel": 0}, {"type": "note_off", "time": 42, "note": 69, "velocity": 98, "channel": 0}, {"type": "note_on", "time": 12, "note": 75, "velocity": 109, "channel": 0}, {"type": "note_off", "time": 85, "note": 75, "velocity": 109, "channel": 0}, {"type": "note_on", "time": 0, "note": 74, "velocity": 106, "channel": 0}, {"type": "note_off", "time": 120, "note": 74, "velocity": 106, "channel": 0}, {"type": "note_on", "time": 619, "note": 74, "velocity": 113, "channel": 0}, {"type": "note_off", "time": 115, "note": 74, "velocity": 113, "channel": 0}, {"type": "note_on", "time": 607, "note": 60, "velocity": 119, "channel": 0}, {"type": "note_off", "time": 67, "note": 60, "velocity": 119, "channel": 0}, {"type": "note_on", "time": 322, "note": 72, "velocity": 114, "channel": 0}, {"type": "note_off", "time": 64, "note": 72, "velocity": 114, "channel": 0}, {"type": "note_on", "time": 133, "note": 75, "velocity": 108, "channel": 0}, {"type": "note_off", "time": 121, "note": 75, "velocity": 108, "channel": 0}, {"type": "note_on", "time": 0, "note": 72, "velocity": 107, "channel": 0}, {"type": "note_off", "time": 351, "note": 72, "velocity": 107, "channel": 0}, {"type": "note_on", "time": 149, "note": 68, "velocity": 119, "channel": 0}, {"type": "note_off", "time": 87, "note": 68, "velocity": 119, "channel": 0}, {"type": "note_on", "time": 8, "note": 70, "velocity": 103, "channel": 0}, {"type": "note_off", "time": 61, "note": 70, "velocity": 103, "channel": 0}, {"type": "note_on", "time": 20, "note": 65, "velocity": 111, "channel": 0}, {"type": "note_off", "time": 153, "note": 65, "velocity": 111, "channel": 0}, {"type": "note_on", "time": 344, "note": 67, "velocity": 121, "channel": 0}, {"type": "note_off", "time": 119, "note": 67, "velocity": 121, "channel": 0}, {"type": "note_on", "time": 69, "note": 67, "velocity": 118, "channel": 0}, {"type": "note_off", "time": 93, "note": 67, "velocity": 118, "channel": 0}, {"type": "note_on", "time": 0, "note": 66, "velocity": 113, "channel": 0}, {"type": "note_off", "time": 87, "note": 66, "velocity": 113, "channel": 0}, {"type": "note_on", "time": 12, "note": 65, "velocity": 115, "channel": 0}, {"type": "note_off", "time": 76, "note": 65, "velocity": 115, "channel": 0}, {"type": "note_on", "time": 11, "note": 64, "velocity": 119, "channel": 0}, {"type": "note_off", "time": 96, "note": 64, "velocity": 119, "channel": 0}, {"type": "note_on", "time": 2, "note": 63, "velocity": 116, "channel": 0}, {"type": "note_off", "time": 76, "note": 63, "velocity": 116, "channel": 0}, {"type": "note_on", "time": 16, "note": 62, "velocity": 118, "channel": 0}, {"type": "note_off", "time": 117, "note": 62, "velocity": 118, "channel": 0}, {"type": "note_on", "time": 0, "note": 61, "velocity": 102, "channel": 0}, {"type": "note_off", "time": 92, "note": 61, "velocity": 102, "channel": 0}, {"type": "note_on", "time": 5, "note": 59, "velocity": 109, "channel": 0}, {"type": "note_off", "time": 80, "note": 59, "velocity": 109, "channel": 0}, {"type": "note_on", "time": 32, "note": 53, "velocity": 97, "channel": 0}, {"type": "note_off", "time": 71, "note": 53, "velocity": 97, "channel": 0}, {"type": "note_on", "time": 10, "note": 54, "velocity": 105, "channel": 0}, {"type": "note_off", "time": 83, "note": 54, "velocity": 105, "channel": 0}, {"type": "note_on", "time": 6, "note": 50, "velocity": 97, "channel": 0}, {"type": "note_off", "time": 83, "note": 50, "velocity": 97, "channel": 0}, {"type": "note_on", "time": 16, "note": 56, "velocity": 108, "channel": 0}, {"type": "note_off", "time": 96, "note": 56, "velocity": 108, "channel": 0}, {"type": "note_on", "time": 6, "note": 54, "velocity": 99, "channel": 0}, {"type": "note_off", "time": 94, "note": 54, "velocity": 99, "channel": 0}, {"type": "note_on", "time": 8, "note": 55, "velocity": 101, "channel": 0}, {"type": "note_off", "time": 93, "note": 55, "velocity": 101, "channel": 0}, {"type": "note_on", "time": 14, "note": 56, "velocity": 107, "channel": 0}, {"type": "note_off", "time": 84, "note": 56, "velocity": 107, "channel": 0}, {"type": "note_on", "time": 3, "note": 53, "velocity": 104, "channel": 0}, {"type": "note_off", "time": 123, "note": 53, "velocity": 104, "channel": 0}, {"type": "note_on", "time": 251, "note": 56, "velocity": 105, "channel": 0}, {"type": "note_off", "time": 322, "note": 56, "velocity": 105, "channel": 0}, {"type": "note_on", "time": 7, "note": 54, "velocity": 109, "channel": 0}, {"type": "note_off", "time": 69, "note": 54, "velocity": 109, "channel": 0}, {"type": "note_on", "time": 0, "note": 53, "velocity": 106, "channel": 0}, {"type": "note_off", "time": 80, "note": 53, "velocity": 106, "channel": 0}, {"type": "note_on", "time": 44, "note": 51, "velocity": 108, "channel": 0}, {"type": "note_off", "time": 67, "note": 51, "velocity": 108, "channel": 0}, {"type": "note_on", "time": 11, "note": 49, "velocity": 120, "channel": 0}, {"type": "note_off", "time": 73, "note": 49, "velocity": 120, "channel": 0}, {"type": "note_on", "time": 16, "note": 48, "velocity": 111, "channel": 0}, {"type": "note_off", "time": 60, "note": 48, "velocity": 111, "channel": 0}, {"type": "note_on", "time": 17, "note": 47, "velocity": 109, "channel": 0}, {"type": "note_off", "time": 87, "note": 47, "velocity": 109, "channel": 0}, {"type": "note_on", "time": 431, "note": 46, "velocity": 111, "channel": 0}, {"type": "note_off", "time": 88, "note": 46, "velocity": 111, "channel": 0}, {"type": "note_on", "time": 114, "note": 55, "velocity": 108, "channel": 0}, {"type": "note_off", "time": 87, "note": 55, "velocity": 108, "channel": 0}, {"type": "note_on", "time": 5, "note": 53, "velocity": 113, "channel": 0}, {"type": "note_off", "time": 92, "note": 53, "velocity": 113, "channel": 0}, {"type": "note_on", "time": 8, "note": 55, "velocity": 99, "channel": 0}, {"type": "note_off", "time": 76, "note": 55, "velocity": 99, "channel": 0}, {"type": "note_on", "time": 0, "note": 57, "velocity": 109, "channel": 0}, {"type": "note_off", "time": 85, "note": 57, "velocity": 109, "channel": 0}, {"type": "note_on", "time": 16, "note": 53, "velocity": 98, "channel": 0}, {"type": "note_off", "time": 78, "note": 53, "velocity": 98, "channel": 0}, {"type": "note_on", "time": 11, "note": 58, "velocity": 110, "channel": 0}, {"type": "note_off", "time": 105, "note": 58, "velocity": 110, "channel": 0}, {"type": "note_on", "time": 0, "note": 60, "velocity": 107, "channel": 0}, {"type": "note_off", "time": 76, "note": 60, "velocity": 107, "channel": 0}, {"type": "note_on", "time": 5, "note": 62, "velocity": 111, "channel": 0}, {"type": "note_off", "time": 87, "note": 62, "velocity": 111, "channel": 0}, {"type": "note_on", "time": 8, "note": 65, "velocity": 122, "channel": 0}, {"type": "note_off", "time": 89, "note": 65, "velocity": 122, "channel": 0}, {"type": "note_on", "time": 0, "note": 63, "velocity": 120, "channel": 0}, {"type": "note_off", "time": 103, "note": 63, "velocity": 120, "channel": 0}, {"type": "note_on", "time": 16, "note": 65, "velocity": 104, "channel": 0}, {"type": "note_off", "time": 103, "note": 65, "velocity": 104, "channel": 0}, {"type": "note_on", "time": 14, "note": 67, "velocity": 106, "channel": 0}, {"type": "note_off", "time": 65, "note": 67, "velocity": 106, "channel": 0}, {"type": "note_on", "time": 10, "note": 70, "velocity": 117, "channel": 0}, {"type": "note_off", "time": 84, "note": 70, "velocity": 117, "channel": 0}, {"type": "note_on", "time": 67, "note": 67, "velocity": 108, "channel": 0}, {"type": "note_off", "time": 94, "note": 67, "velocity": 108, "channel": 0}, {"type": "note_on", "time": 8, "note": 68, "velocity": 120, "channel": 0}, {"type": "note_off", "time": 105, "note": 68, "velocity": 120, "channel": 0}, {"type": "note_on", "time": 12, "note": 66, "velocity": 102, "channel": 0}, {"type": "note_off", "time": 84, "note": 66, "velocity": 102, "channel": 0}, {"type": "note_on", "time": 8, "note": 67, "velocity": 105, "channel": 0}, {"type": "note_off", "time": 97, "note": 67, "velocity": 105, "channel": 0}, {"type": "note_on", "time": 6, "note": 62, "velocity": 117, "channel": 0}, {"type": "note_off", "time": 92, "note": 62, "velocity": 117, "channel": 0}, {"type": "note_on", "time": 0, "note": 65, "velocity": 115, "channel": 0}, {"type": "note_off", "time": 108, "note": 65, "velocity": 115, "channel": 0}, {"type": "note_on", "time": 2, "note": 63, "velocity": 120, "channel": 0}, {"type": "note_off", "time": 126, "note": 63, "velocity": 120, "channel": 0}, {"type": "note_on", "time": 101, "note": 58, "velocity": 96, "channel": 0}, {"type": "note_off", "time": 53, "note": 58, "velocity": 96, "channel": 0}, {"type": "note_on", "time": 219, "note": 62, "velocity": 117, "channel": 0}, {"type": "note_off", "time": 97, "note": 62, "velocity": 117, "channel": 0}, {"type": "note_on", "time": 6, "note": 61, "velocity": 110, "channel": 0}, {"type": "note_off", "time": 84, "note": 61, "velocity": 110, "channel": 0}, {"type": "note_on", "time": 2, "note": 60, "velocity": 108, "channel": 0}, {"type": "note_off", "time": 91, "note": 60, "velocity": 108, "channel": 0}, {"type": "note_on", "time": 10, "note": 59, "velocity": 106, "channel": 0}, {"type": "note_off", "time": 89, "note": 59, "velocity": 106, "channel": 0}, {"type": "note_on", "time": 2, "note": 58, "velocity": 106, "channel": 0}, {"type": "note_off", "time": 88, "note": 58, "velocity": 106, "channel": 0}, {"type": "note_on", "time": 24, "note": 56, "velocity": 107, "channel": 0}, {"type": "note_off", "time": 82, "note": 56, "velocity": 107, "channel": 0}, {"type": "note_on", "time": 10, "note": 55, "velocity": 117, "channel": 0}, {"type": "note_off", "time": 82, "note": 55, "velocity": 117, "channel": 0}, {"type": "note_on", "time": 16, "note": 53, "velocity": 115, "channel": 0}, {"type": "note_off", "time": 71, "note": 53, "velocity": 115, "channel": 0}, {"type": "note_on", "time": 19, "note": 51, "velocity": 110, "channel": 0}, {"type": "note_off", "time": 124, "note": 51, "velocity": 110, "channel": 0}, {"type": "note_on", "time": 651, "note": 63, "velocity": 118, "channel": 0}, {"type": "note_off", "time": 111, "note": 63, "velocity": 118, "channel": 0}, {"type": "note_on", "time": 7, "note": 65, "velocity": 106, "channel": 0}, {"type": "note_off", "time": 49, "note": 65, "velocity": 106, "channel": 0}, {"type": "note_on", "time": 8, "note": 67, "velocity": 117, "channel": 0}, {"type": "note_off", "time": 101, "note": 67, "velocity": 117, "channel": 0}, {"type": "note_on", "time": 6, "note": 63, "velocity": 116, "channel": 0}, {"type": "note_off", "time": 58, "note": 63, "velocity": 116, "channel": 0}, {"type": "note_on", "time": 28, "note": 65, "velocity": 115, "channel": 0}, {"type": "note_off", "time": 107, "note": 65, "velocity": 115, "channel": 0}, {"type": "note_on", "time": 10, "note": 67, "velocity": 107, "channel": 0}, {"type": "note_off", "time": 73, "note": 67, "velocity": 107, "channel": 0}, {"type": "note_on", "time": 12, "note": 69, "velocity": 119, "channel": 0}, {"type": "note_off", "time": 115, "note": 69, "velocity": 119, "channel": 0}, {"type": "note_on", "time": 0, "note": 65, "velocity": 100, "channel": 0}, {"type": "note_off", "time": 69, "note": 65, "velocity": 100, "channel": 0}, {"type": "note_on", "time": 2, "note": 67, "velocity": 113, "channel": 0}, {"type": "note_off", "time": 126, "note": 67, "velocity": 113, "channel": 0}, {"type": "note_on", "time": 0, "note": 65, "velocity": 115, "channel": 0}, {"type": "note_off", "time": 62, "note": 65, "velocity": 115, "channel": 0}, {"type": "note_on", "time": 0, "note": 63, "velocity": 113, "channel": 0}, {"type": "note_off", "time": 123, "note": 63, "velocity": 113, "channel": 0}, {"type": "note_on", "time": 0, "note": 67, "velocity": 121, "channel": 0}, {"type": "note_off", "time": 91, "note": 67, "velocity": 121, "channel": 0}, {"type": "note_on", "time": 0, "note": 65, "velocity": 117, "channel": 0}, {"type": "note_off", "time": 119, "note": 65, "velocity": 117, "channel": 0}, {"type": "note_on", "time": 2, "note": 60, "velocity": 103, "channel": 0}, {"type": "note_off", "time": 108, "note": 60, "velocity": 103, "channel": 0}, {"type": "note_on", "time": 170, "note": 65, "velocity": 118, "channel": 0}, {"type": "note_off", "time": 107, "note": 65, "velocity": 118, "channel": 0}, {"type": "note_on", "time": 0, "note": 67, "velocity": 107, "channel": 0}, {"type": "note_off", "time": 62, "note": 67, "velocity": 107, "channel": 0}, {"type": "note_on", "time": 21, "note": 69, "velocity": 117, "channel": 0}, {"type": "note_off", "time": 85, "note": 69, "velocity": 117, "channel": 0}, {"type": "note_on", "time": 8, "note": 65, "velocity": 97, "channel": 0}, {"type": "note_off", "time": 73, "note": 65, "velocity": 97, "channel": 0}, {"type": "note_on", "time": 17, "note": 67, "velocity": 114, "channel": 0}, {"type": "note_off", "time": 125, "note": 67, "velocity": 114, "channel": 0}, {"type": "note_on", "time": 11, "note": 65, "velocity": 115, "channel": 0}, {"type": "note_off", "time": 53, "note": 65, "velocity": 115, "channel": 0}, {"type": "note_on", "time": 19, "note": 60, "velocity": 105, "channel": 0}, {"type": "note_off", "time": 64, "note": 60, "velocity": 105, "channel": 0}, {"type": "note_on", "time": 29, "note": 65, "velocity": 115, "channel": 0}, {"type": "note_off", "time": 66, "note": 65, "velocity": 115, "channel": 0}, {"type": "note_on", "time": 6, "note": 63, "velocity": 110, "channel": 0}, {"type": "note_off", "time": 114, "note": 63, "velocity": 110, "channel": 0}, {"type": "note_on", "time": 0, "note": 65, "velocity": 99, "channel": 0}, {"type": "note_off", "time": 73, "note": 65, "velocity": 99, "channel": 0}, {"type": "note_on", "time": 7, "note": 67, "velocity": 115, "channel": 0}, {"type": "note_off", "time": 102, "note": 67, "velocity": 115, "channel": 0}, {"type": "note_on", "time": 8, "note": 63, "velocity": 102, "channel": 0}, {"type": "note_off", "time": 78, "note": 63, "velocity": 102, "channel": 0}, {"type": "note_on", "time": 7, "note": 65, "velocity": 114, "channel": 0}, {"type": "note_off", "time": 53, "note": 65, "velocity": 114, "channel": 0}, {"type": "note_on", "time": 1, "note": 66, "velocity": 113, "channel": 0}, {"type": "note_off", "time": 44, "note": 66, "velocity": 113, "channel": 0}, {"type": "note_on", "time": 20, "note": 61, "velocity": 104, "channel": 0}, {"type": "note_off", "time": 83, "note": 61, "velocity": 104, "channel": 0}, {"type": "note_on", "time": 15, "note": 59, "velocity": 93, "channel": 0}, {"type": "note_off", "time": 101, "note": 59, "velocity": 93, "channel": 0}, {"type": "note_on", "time": 60, "note": 63, "velocity": 118, "channel": 0}, {"type": "note_off", "time": 125, "note": 63, "velocity": 118, "channel": 0}, {"type": "note_on", "time": 12, "note": 65, "velocity": 108, "channel": 0}, {"type": "note_off", "time": 57, "note": 65, "velocity": 108, "channel": 0}, {"type": "note_on", "time": 15, "note": 68, "velocity": 118, "channel": 0}, {"type": "note_off", "time": 123, "note": 68, "velocity": 118, "channel": 0}, {"type": "note_on", "time": 472, "note": 72, "velocity": 118, "channel": 0}, {"type": "note_off", "time": 94, "note": 72, "velocity": 118, "channel": 0}, {"type": "note_on", "time": 0, "note": 70, "velocity": 114, "channel": 0}, {"type": "note_off", "time": 74, "note": 70, "velocity": 114, "channel": 0}, {"type": "note_on", "time": 2, "note": 68, "velocity": 117, "channel": 0}, {"type": "note_off", "time": 120, "note": 68, "velocity": 117, "channel": 0}, {"type": "note_on", "time": 6, "note": 63, "velocity": 113, "channel": 0}, {"type": "note_off", "time": 147, "note": 63, "velocity": 113, "channel": 0}, {"type": "note_on", "time": 342, "note": 67, "velocity": 121, "channel": 0}, {"type": "note_off", "time": 102, "note": 67, "velocity": 121, "channel": 0}, {"type": "note_on", "time": 6, "note": 66, "velocity": 110, "channel": 0}, {"type": "note_off", "time": 67, "note": 66, "velocity": 110, "channel": 0}, {"type": "note_on", "time": 7, "note": 63, "velocity": 110, "channel": 0}, {"type": "note_off", "time": 105, "note": 63, "velocity": 110, "channel": 0}, {"type": "note_on", "time": 18, "note": 59, "velocity": 93, "channel": 0}, {"type": "note_off", "time": 103, "note": 59, "velocity": 93, "channel": 0}, {"type": "note_on", "time": 12, "note": 71, "velocity": 110, "channel": 0}, {"type": "note_off", "time": 66, "note": 71, "velocity": 110, "channel": 0}, {"type": "note_on", "time": 11, "note": 69, "velocity": 109, "channel": 0}, {"type": "note_off", "time": 64, "note": 69, "velocity": 109, "channel": 0}, {"type": "note_on", "time": 21, "note": 67, "velocity": 103, "channel": 0}, {"type": "note_off", "time": 96, "note": 67, "velocity": 103, "channel": 0}, {"type": "note_on", "time": 91, "note": 70, "velocity": 110, "channel": 0}, {"type": "note_off", "time": 92, "note": 70, "velocity": 110, "channel": 0}, {"type": "note_on", "time": 21, "note": 68, "velocity": 109, "channel": 0}, {"type": "note_off", "time": 76, "note": 68, "velocity": 109, "channel": 0}, {"type": "note_on", "time": 16, "note": 66, "velocity": 106, "channel": 0}, {"type": "note_off", "time": 89, "note": 66, "velocity": 106, "channel": 0}, {"type": "note_on", "time": 19, "note": 61, "velocity": 91, "channel": 0}, {"type": "note_off", "time": 44, "note": 61, "velocity": 91, "channel": 0}, {"type": "note_on", "time": 15, "note": 68, "velocity": 110, "channel": 0}, {"type": "note_off", "time": 42, "note": 68, "velocity": 110, "channel": 0}, {"type": "note_on", "time": 0, "note": 69, "velocity": 112, "channel": 0}, {"type": "note_off", "time": 85, "note": 69, "velocity": 112, "channel": 0}, {"type": "note_on", "time": 8, "note": 67, "velocity": 110, "channel": 0}, {"type": "note_off", "time": 58, "note": 67, "velocity": 110, "channel": 0}, {"type": "note_on", "time": 10, "note": 64, "velocity": 109, "channel": 0}, {"type": "note_off", "time": 101, "note": 64, "velocity": 109, "channel": 0}, {"type": "note_on", "time": 91, "note": 68, "velocity": 116, "channel": 0}, {"type": "note_off", "time": 106, "note": 68, "velocity": 116, "channel": 0}, {"type": "note_on", "time": 23, "note": 66, "velocity": 111, "channel": 0}, {"type": "note_off", "time": 67, "note": 66, "velocity": 111, "channel": 0}, {"type": "note_on", "time": 3, "note": 62, "velocity": 110, "channel": 0}, {"type": "note_off", "time": 137, "note": 62, "velocity": 110, "channel": 0}, {"type": "note_on", "time": 52, "note": 67, "velocity": 113, "channel": 0}, {"type": "note_off", "time": 182, "note": 67, "velocity": 113, "channel": 0}, {"type": "note_on", "time": 198, "note": 67, "velocity": 110, "channel": 0}, {"type": "note_off", "time": 62, "note": 67, "velocity": 110, "channel": 0}, {"type": "note_on", "time": 14, "note": 70, "velocity": 105, "channel": 0}, {"type": "note_off", "time": 66, "note": 70, "velocity": 105, "channel": 0}, {"type": "note_on", "time": 6, "note": 67, "velocity": 110, "channel": 0}, {"type": "note_off", "time": 151, "note": 67, "velocity": 110, "channel": 0}, {"type": "note_on", "time": 501, "note": 70, "velocity": 113, "channel": 0}, {"type": "note_off", "time": 109, "note": 70, "velocity": 113, "channel": 0}, {"type": "note_on", "time": 0, "note": 67, "velocity": 101, "channel": 0}, {"type": "note_off", "time": 77, "note": 67, "velocity": 101, "channel": 0}, {"type": "note_on", "time": 1, "note": 68, "velocity": 119, "channel": 0}, {"type": "note_off", "time": 115, "note": 68, "velocity": 119, "channel": 0}, {"type": "note_on", "time": 28, "note": 68, "velocity": 111, "channel": 0}, {"type": "note_off", "time": 52, "note": 68, "velocity": 111, "channel": 0}, {"type": "note_on", "time": 3, "note": 67, "velocity": 111, "channel": 0}, {"type": "note_off", "time": 100, "note": 67, "velocity": 111, "channel": 0}, {"type": "note_on", "time": 27, "note": 66, "velocity": 110, "channel": 0}, {"type": "note_off", "time": 73, "note": 66, "velocity": 110, "channel": 0}, {"type": "note_on", "time": 5, "note": 65, "velocity": 109, "channel": 0}, {"type": "note_off", "time": 99, "note": 65, "velocity": 109, "channel": 0}, {"type": "note_on", "time": 10, "note": 64, "velocity": 113, "channel": 0}, {"type": "note_off", "time": 75, "note": 64, "velocity": 113, "channel": 0}, {"type": "note_on", "time": 9, "note": 63, "velocity": 111, "channel": 0}, {"type": "note_off", "time": 106, "note": 63, "velocity": 111, "channel": 0}, {"type": "note_on", "time": 18, "note": 60, "velocity": 103, "channel": 0}, {"type": "note_off", "time": 50, "note": 60, "velocity": 103, "channel": 0}, {"type": "note_on", "time": 18, "note": 56, "velocity": 100, "channel": 0}, {"type": "note_off", "time": 194, "note": 56, "velocity": 100, "channel": 0}, {"type": "note_on", "time": 0, "note": 62, "velocity": 116, "channel": 0}, {"type": "note_off", "time": 120, "note": 62, "velocity": 116, "channel": 0}, {"type": "note_on", "time": 3, "note": 60, "velocity": 104, "channel": 0}, {"type": "note_off", "time": 61, "note": 60, "velocity": 104, "channel": 0}, {"type": "note_on", "time": 23, "note": 58, "velocity": 102, "channel": 0}, {"type": "note_off", "time": 77, "note": 58, "velocity": 102, "channel": 0}, {"type": "note_on", "time": 28, "note": 56, "velocity": 107, "channel": 0}, {"type": "note_off", "time": 129, "note": 56, "velocity": 107, "channel": 0}, {"type": "note_on", "time": 15, "note": 57, "velocity": 106, "channel": 0}, {"type": "note_off", "time": 46, "note": 57, "velocity": 106, "channel": 0}, {"type": "note_on", "time": 13, "note": 60, "velocity": 107, "channel": 0}, {"type": "note_off", "time": 120, "note": 60, "velocity": 107, "channel": 0}, {"type": "note_on", "time": 145, "note": 65, "velocity": 117, "channel": 0}, {"type": "note_off", "time": 385, "note": 65, "velocity": 117, "channel": 0}, {"type": "note_on", "time": 7, "note": 63, "velocity": 112, "channel": 0}, {"type": "note_off", "time": 120, "note": 63, "velocity": 112, "channel": 0}, {"type": "note_on", "time": 19, "note": 65, "velocity": 111, "channel": 0}, {"type": "note_off", "time": 86, "note": 65, "velocity": 111, "channel": 0}, {"type": "note_on", "time": 106, "note": 65, "velocity": 123, "channel": 0}, {"type": "note_off", "time": 64, "note": 65, "velocity": 123, "channel": 0}, {"type": "note_on", "time": 104, "note": 65, "velocity": 119, "channel": 0}, {"type": "note_off", "time": 77, "note": 65, "velocity": 119, "channel": 0}, {"type": "note_on", "time": 97, "note": 63, "velocity": 99, "channel": 0}, {"type": "note_off", "time": 66, "note": 63, "velocity": 99, "channel": 0}, {"type": "note_on", "time": 14, "note": 65, "velocity": 111, "channel": 0}, {"type": "note_off", "time": 259, "note": 65, "velocity": 111, "channel": 0}, {"type": "note_on", "time": 54, "note": 63, "velocity": 105, "channel": 0}, {"type": "note_off", "time": 57, "note": 63, "velocity": 105, "channel": 0}, {"type": "note_on", "time": 16, "note": 65, "velocity": 113, "channel": 0}, {"type": "note_off", "time": 88, "note": 65, "velocity": 113, "channel": 0}, {"type": "note_on", "time": 102, "note": 60, "velocity": 105, "channel": 0}, {"type": "note_off", "time": 113, "note": 60, "velocity": 105, "channel": 0}, {"type": "note_on", "time": 358, "note": 60, "velocity": 101, "channel": 0}, {"type": "note_off", "time": 59, "note": 60, "velocity": 101, "channel": 0}, {"type": "note_on", "time": 36, "note": 68, "velocity": 119, "channel": 0}, {"type": "note_off", "time": 82, "note": 68, "velocity": 119, "channel": 0}, {"type": "note_on", "time": 12, "note": 67, "velocity": 107, "channel": 0}, {"type": "note_off", "time": 73, "note": 67, "velocity": 107, "channel": 0}, {"type": "note_on", "time": 32, "note": 65, "velocity": 98, "channel": 0}, {"type": "note_off", "time": 64, "note": 65, "velocity": 98, "channel": 0}, {"type": "note_on", "time": 23, "note": 69, "velocity": 118, "channel": 0}, {"type": "note_off", "time": 95, "note": 69, "velocity": 118, "channel": 0}, {"type": "note_on", "time": 1, "note": 67, "velocity": 113, "channel": 0}, {"type": "note_off", "time": 81, "note": 67, "velocity": 113, "channel": 0}, {"type": "note_on", "time": 43, "note": 66, "velocity": 110, "channel": 0}, {"type": "note_off", "time": 77, "note": 66, "velocity": 110, "channel": 0}, {"type": "note_on", "time": 856, "note": 71, "velocity": 112, "channel": 0}, {"type": "note_off", "time": 59, "note": 71, "velocity": 112, "channel": 0}, {"type": "note_on", "time": 10, "note": 72, "velocity": 117, "channel": 0}, {"type": "note_off", "time": 708, "note": 72, "velocity": 117, "channel": 0}, {"type": "note_on", "time": 45, "note": 70, "velocity": 116, "channel": 0}, {"type": "note_off", "time": 68, "note": 70, "velocity": 116, "channel": 0}, {"type": "note_on", "time": 16, "note": 69, "velocity": 110, "channel": 0}, {"type": "note_off", "time": 93, "note": 69, "velocity": 110, "channel": 0}, {"type": "note_on", "time": 16, "note": 65, "velocity": 92, "channel": 0}, {"type": "note_off", "time": 64, "note": 65, "velocity": 92, "channel": 0}, {"type": "note_on", "time": 52, "note": 69, "velocity": 91, "channel": 0}, {"type": "note_off", "time": 57, "note": 69, "velocity": 91, "channel": 0}, {"type": "note_on", "time": 155, "note": 72, "velocity": 112, "channel": 0}, {"type": "note_off", "time": 99, "note": 72, "velocity": 112, "channel": 0}, {"type": "note_on", "time": 711, "note": 69, "velocity": 119, "channel": 0}, {"type": "note_off", "time": 79, "note": 69, "velocity": 119, "channel": 0}, {"type": "note_on", "time": 104, "note": 70, "velocity": 117, "channel": 0}, {"type": "note_off", "time": 91, "note": 70, "velocity": 117, "channel": 0}, {"type": "note_on", "time": 117, "note": 67, "velocity": 115, "channel": 0}, {"type": "note_off", "time": 82, "note": 67, "velocity": 115, "channel": 0}, {"type": "note_on", "time": 109, "note": 68, "velocity": 119, "channel": 0}, {"type": "note_off", "time": 88, "note": 68, "velocity": 119, "channel": 0}, {"type": "note_on", "time": 97, "note": 66, "velocity": 100, "channel": 0}, {"type": "note_off", "time": 64, "note": 66, "velocity": 100, "channel": 0}, {"type": "note_on", "time": 0, "note": 67, "velocity": 104, "channel": 0}, {"type": "note_off", "time": 72, "note": 67, "velocity": 104, "channel": 0}, {"type": "note_on", "time": 23, "note": 70, "velocity": 116, "channel": 0}, {"type": "note_off", "time": 72, "note": 70, "velocity": 116, "channel": 0}, {"type": "note_on", "time": 21, "note": 66, "velocity": 112, "channel": 0}, {"type": "note_off", "time": 86, "note": 66, "velocity": 112, "channel": 0}, {"type": "note_on", "time": 39, "note": 62, "velocity": 100, "channel": 0}, {"type": "note_off", "time": 64, "note": 62, "velocity": 100, "channel": 0}, {"type": "note_on", "time": 5, "note": 65, "velocity": 115, "channel": 0}, {"type": "note_off", "time": 82, "note": 65, "velocity": 115, "channel": 0}, {"type": "note_on", "time": 0, "note": 64, "velocity": 114, "channel": 0}, {"type": "note_off", "time": 86, "note": 64, "velocity": 114, "channel": 0}, {"type": "note_on", "time": 23, "note": 63, "velocity": 114, "channel": 0}, {"type": "note_off", "time": 122, "note": 63, "velocity": 114, "channel": 0}, {"type": "note_on", "time": 23, "note": 60, "velocity": 105, "channel": 0}, {"type": "note_off", "time": 63, "note": 60, "velocity": 105, "channel": 0}, {"type": "note_on", "time": 39, "note": 67, "velocity": 98, "channel": 0}, {"type": "note_off", "time": 95, "note": 67, "velocity": 98, "channel": 0}, {"type": "note_on", "time": 61, "note": 63, "velocity": 107, "channel": 0}, {"type": "note_off", "time": 61, "note": 63, "velocity": 107, "channel": 0}, {"type": "note_on", "time": 0, "note": 62, "velocity": 116, "channel": 0}, {"type": "note_off", "time": 97, "note": 62, "velocity": 116, "channel": 0}, {"type": "note_on", "time": 21, "note": 61, "velocity": 105, "channel": 0}, {"type": "note_off", "time": 73, "note": 61, "velocity": 105, "channel": 0}, {"type": "note_on", "time": 12, "note": 60, "velocity": 104, "channel": 0}, {"type": "note_off", "time": 79, "note": 60, "velocity": 104, "channel": 0}, {"type": "note_on", "time": 25, "note": 59, "velocity": 106, "channel": 0}, {"type": "note_off", "time": 46, "note": 59, "velocity": 106, "channel": 0}, {"type": "note_on", "time": 3, "note": 58, "velocity": 104, "channel": 0}, {"type": "note_off", "time": 102, "note": 58, "velocity": 104, "channel": 0}, {"type": "note_on", "time": 52, "note": 56, "velocity": 111, "channel": 0}, {"type": "note_off", "time": 59, "note": 56, "velocity": 111, "channel": 0}, {"type": "note_on", "time": 5, "note": 55, "velocity": 104, "channel": 0}, {"type": "note_off", "time": 104, "note": 55, "velocity": 104, "channel": 0}, {"type": "note_on", "time": 30, "note": 53, "velocity": 101, "channel": 0}, {"type": "note_off", "time": 45, "note": 53, "velocity": 101, "channel": 0}, {"type": "note_on", "time": 12, "note": 52, "velocity": 97, "channel": 0}, {"type": "note_off", "time": 111, "note": 52, "velocity": 97, "channel": 0}, {"type": "note_on", "time": 82, "note": 55, "velocity": 109, "channel": 0}, {"type": "note_off", "time": 100, "note": 55, "velocity": 109, "channel": 0}, {"type": "note_on", "time": 0, "note": 52, "velocity": 99, "channel": 0}, {"type": "note_off", "time": 41, "note": 52, "velocity": 99, "channel": 0}, {"type": "note_on", "time": 9, "note": 53, "velocity": 114, "channel": 0}, {"type": "note_off", "time": 120, "note": 53, "velocity": 114, "channel": 0}, {"type": "note_on", "time": 37, "note": 55, "velocity": 112, "channel": 0}, {"type": "note_off", "time": 90, "note": 55, "velocity": 112, "channel": 0}, {"type": "note_on", "time": 9, "note": 56, "velocity": 100, "channel": 0}, {"type": "note_off", "time": 77, "note": 56, "velocity": 100, "channel": 0}, {"type": "note_on", "time": 0, "note": 58, "velocity": 100, "channel": 0}, {"type": "note_off", "time": 64, "note": 58, "velocity": 100, "channel": 0}, {"type": "note_on", "time": 18, "note": 60, "velocity": 107, "channel": 0}, {"type": "note_off", "time": 120, "note": 60, "velocity": 107, "channel": 0}, {"type": "note_on", "time": 9, "note": 62, "velocity": 113, "channel": 0}, {"type": "note_off", "time": 82, "note": 62, "velocity": 113, "channel": 0}, {"type": "note_on", "time": 21, "note": 63, "velocity": 103, "channel": 0}, {"type": "note_off", "time": 86, "note": 63, "velocity": 103, "channel": 0}, {"type": "note_on", "time": 12, "note": 65, "velocity": 102, "channel": 0}, {"type": "note_off", "time": 45, "note": 65, "velocity": 102, "channel": 0}, {"type": "note_on", "time": 28, "note": 67, "velocity": 113, "channel": 0}, {"type": "note_off", "time": 104, "note": 67, "velocity": 113, "channel": 0}, {"type": "note_on", "time": 0, "note": 63, "velocity": 112, "channel": 0}, {"type": "note_off", "time": 84, "note": 63, "velocity": 112, "channel": 0}, {"type": "note_on", "time": 0, "note": 65, "velocity": 108, "channel": 0}, {"type": "note_off", "time": 95, "note": 65, "velocity": 108, "channel": 0}, {"type": "note_on", "time": 5, "note": 67, "velocity": 117, "channel": 0}, {"type": "note_off", "time": 273, "note": 67, "velocity": 117, "channel": 0}, {"type": "note_on", "time": 182, "note": 67, "velocity": 117, "channel": 0}, {"type": "note_off", "time": 115, "note": 67, "velocity": 117, "channel": 0}, {"type": "note_on", "time": 16, "note": 63, "velocity": 113, "channel": 0}, {"type": "note_off", "time": 52, "note": 63, "velocity": 113, "channel": 0}, {"type": "note_on", "time": 7, "note": 65, "velocity": 111, "channel": 0}, {"type": "note_off", "time": 102, "note": 65, "velocity": 111, "channel": 0}, {"type": "note_on", "time": 23, "note": 67, "velocity": 118, "channel": 0}, {"type": "note_off", "time": 167, "note": 67, "velocity": 118, "channel": 0}, {"type": "note_on", "time": 97, "note": 67, "velocity": 115, "channel": 0}, {"type": "note_off", "time": 120, "note": 67, "velocity": 115, "channel": 0}, {"type": "note_on", "time": 7, "note": 63, "velocity": 97, "channel": 0}, {"type": "note_off", "time": 55, "note": 63, "velocity": 97, "channel": 0}, {"type": "note_on", "time": 12, "note": 65, "velocity": 112, "channel": 0}, {"type": "note_off", "time": 117, "note": 65, "velocity": 112, "channel": 0}, {"type": "note_on", "time": 10, "note": 67, "velocity": 115, "channel": 0}, {"type": "note_off", "time": 113, "note": 67, "velocity": 115, "channel": 0}, {"type": "note_on", "time": 68, "note": 65, "velocity": 118, "channel": 0}, {"type": "note_off", "time": 55, "note": 65, "velocity": 118, "channel": 0}, {"type": "note_on", "time": 7, "note": 63, "velocity": 114, "channel": 0}, {"type": "note_off", "time": 50, "note": 63, "velocity": 114, "channel": 0}, {"type": "note_on", "time": 3, "note": 61, "velocity": 105, "channel": 0}, {"type": "note_off", "time": 66, "note": 61, "velocity": 105, "channel": 0}, {"type": "note_on", "time": 3, "note": 59, "velocity": 106, "channel": 0}, {"type": "note_off", "time": 108, "note": 59, "velocity": 106, "channel": 0}, {"type": "note_on", "time": 72, "note": 65, "velocity": 118, "channel": 0}, {"type": "note_off", "time": 68, "note": 65, "velocity": 118, "channel": 0}, {"type": "note_on", "time": 3, "note": 63, "velocity": 112, "channel": 0}, {"type": "note_off", "time": 54, "note": 63, "velocity": 112, "channel": 0}, {"type": "note_on", "time": 3, "note": 61, "velocity": 104, "channel": 0}, {"type": "note_off", "time": 57, "note": 61, "velocity": 104, "channel": 0}, {"type": "note_on", "time": 0, "note": 59, "velocity": 102, "channel": 0}, {"type": "note_off", "time": 133, "note": 59, "velocity": 102, "channel": 0}, {"type": "note_on", "time": 517, "note": 67, "velocity": 122, "channel": 0}, {"type": "note_off", "time": 109, "note": 67, "velocity": 122, "channel": 0}, {"type": "note_on", "time": 5, "note": 63, "velocity": 108, "channel": 0}, {"type": "note_off", "time": 43, "note": 63, "velocity": 108, "channel": 0}, {"type": "note_on", "time": 18, "note": 65, "velocity": 117, "channel": 0}, {"type": "note_off", "time": 120, "note": 65, "velocity": 117, "channel": 0}, {"type": "note_on", "time": 19, "note": 67, "velocity": 122, "channel": 0}, {"type": "note_off", "time": 232, "note": 67, "velocity": 122, "channel": 0}, {"type": "note_on", "time": 183, "note": 67, "velocity": 121, "channel": 0}, {"type": "note_off", "time": 140, "note": 67, "velocity": 121, "channel": 0}, {"type": "note_on", "time": 9, "note": 63, "velocity": 104, "channel": 0}, {"type": "note_off", "time": 45, "note": 63, "velocity": 104, "channel": 0}, {"type": "note_on", "time": 7, "note": 65, "velocity": 111, "channel": 0}, {"type": "note_off", "time": 117, "note": 65, "velocity": 111, "channel": 0}, {"type": "note_on", "time": 14, "note": 67, "velocity": 109, "channel": 0}, {"type": "note_off", "time": 115, "note": 67, "velocity": 109, "channel": 0}, {"type": "note_on", "time": 61, "note": 67, "velocity": 113, "channel": 0}, {"type": "note_off", "time": 81, "note": 67, "velocity": 113, "channel": 0}, {"type": "note_on", "time": 99, "note": 67, "velocity": 113, "channel": 0}, {"type": "note_off", "time": 104, "note": 67, "velocity": 113, "channel": 0}, {"type": "note_on", "time": 43, "note": 63, "velocity": 108, "channel": 0}, {"type": "note_off", "time": 50, "note": 63, "velocity": 108, "channel": 0}, {"type": "note_on", "time": 1, "note": 61, "velocity": 103, "channel": 0}, {"type": "note_off", "time": 46, "note": 61, "velocity": 103, "channel": 0}, {"type": "note_on", "time": 7, "note": 59, "velocity": 102, "channel": 0}, {"type": "note_off", "time": 84, "note": 59, "velocity": 102, "channel": 0}, {"type": "note_on", "time": 23, "note": 65, "velocity": 106, "channel": 0}, {"type": "note_off", "time": 54, "note": 65, "velocity": 106, "channel": 0}, {"type": "note_on", "time": 3, "note": 63, "velocity": 109, "channel": 0}, {"type": "note_off", "time": 50, "note": 63, "velocity": 109, "channel": 0}, {"type": "note_on", "time": 18, "note": 61, "velocity": 99, "channel": 0}, {"type": "note_off", "time": 57, "note": 61, "velocity": 99, "channel": 0}, {"type": "note_on", "time": 14, "note": 59, "velocity": 93, "channel": 0}, {"type": "note_off", "time": 180, "note": 59, "velocity": 93, "channel": 0}, {"type": "note_on", "time": 623, "note": 54, "velocity": 114, "channel": 0}, {"type": "note_off", "time": 72, "note": 54, "velocity": 114, "channel": 0}, {"type": "note_on", "time": 0, "note": 55, "velocity": 110, "channel": 0}, {"type": "note_off", "time": 43, "note": 55, "velocity": 110, "channel": 0}, {"type": "note_on", "time": 9, "note": 57, "velocity": 104, "channel": 0}, {"type": "note_on", "time": 52, "note": 60, "velocity": 105, "channel": 0}, {"type": "note_off", "time": 0, "note": 57, "velocity": 104, "channel": 0}, {"type": "note_off", "time": 97, "note": 60, "velocity": 105, "channel": 0}, {"type": "note_on", "time": 16, "note": 58, "velocity": 106, "channel": 0}, {"type": "note_off", "time": 95, "note": 58, "velocity": 106, "channel": 0}, {"type": "note_on", "time": 10, "note": 60, "velocity": 103, "channel": 0}, {"type": "note_off", "time": 72, "note": 60, "velocity": 103, "channel": 0}, {"type": "note_on", "time": 201, "note": 69, "velocity": 117, "channel": 0}, {"type": "note_off", "time": 90, "note": 69, "velocity": 117, "channel": 0}, {"type": "note_on", "time": 28, "note": 67, "velocity": 113, "channel": 0}, {"type": "note_off", "time": 54, "note": 67, "velocity": 113, "channel": 0}, {"type": "note_on", "time": 25, "note": 65, "velocity": 113, "channel": 0}, {"type": "note_off", "time": 100, "note": 65, "velocity": 113, "channel": 0}, {"type": "note_on", "time": 30, "note": 62, "velocity": 105, "channel": 0}, {"type": "note_off", "time": 54, "note": 62, "velocity": 105, "channel": 0}, {"type": "note_on", "time": 12, "note": 64, "velocity": 117, "channel": 0}, {"type": "note_off", "time": 144, "note": 64, "velocity": 117, "channel": 0}, {"type": "note_on", "time": 158, "note": 72, "velocity": 109, "channel": 0}, {"type": "note_off", "time": 126, "note": 72, "velocity": 109, "channel": 0}, {"type": "note_on", "time": 63, "note": 69, "velocity": 117, "channel": 0}, {"type": "note_off", "time": 81, "note": 69, "velocity": 117, "channel": 0}, {"type": "note_on", "time": 126, "note": 70, "velocity": 117, "channel": 0}, {"type": "note_off", "time": 66, "note": 70, "velocity": 117, "channel": 0}, {"type": "note_on", "time": 191, "note": 69, "velocity": 118, "channel": 0}, {"type": "note_off", "time": 95, "note": 69, "velocity": 118, "channel": 0}, {"type": "note_on", "time": 18, "note": 67, "velocity": 110, "channel": 0}, {"type": "note_off", "time": 126, "note": 67, "velocity": 110, "channel": 0}, {"type": "note_on", "time": 127, "note": 67, "velocity": 118, "channel": 0}, {"type": "note_off", "time": 118, "note": 67, "velocity": 118, "channel": 0}, {"type": "note_on", "time": 16, "note": 67, "velocity": 110, "channel": 0}, {"type": "note_off", "time": 55, "note": 67, "velocity": 110, "channel": 0}, {"type": "note_on", "time": 3, "note": 66, "velocity": 107, "channel": 0}, {"type": "note_off", "time": 95, "note": 66, "velocity": 107, "channel": 0}, {"type": "note_on", "time": 36, "note": 65, "velocity": 114, "channel": 0}, {"type": "note_off", "time": 68, "note": 65, "velocity": 114, "channel": 0}, {"type": "note_on", "time": 10, "note": 64, "velocity": 113, "channel": 0}, {"type": "note_off", "time": 115, "note": 64, "velocity": 113, "channel": 0}, {"type": "note_on", "time": 12, "note": 61, "velocity": 105, "channel": 0}, {"type": "note_off", "time": 75, "note": 61, "velocity": 105, "channel": 0}, {"type": "note_on", "time": 27, "note": 60, "velocity": 98, "channel": 0}, {"type": "note_off", "time": 81, "note": 60, "velocity": 98, "channel": 0}, {"type": "note_on", "time": 19, "note": 58, "velocity": 103, "channel": 0}, {"type": "note_off", "time": 70, "note": 58, "velocity": 103, "channel": 0}, {"type": "note_on", "time": 196, "note": 57, "velocity": 110, "channel": 0}, {"type": "note_off", "time": 117, "note": 57, "velocity": 110, "channel": 0}, {"type": "note_on", "time": 12, "note": 50, "velocity": 95, "channel": 0}, {"type": "note_off", "time": 43, "note": 50, "velocity": 95, "channel": 0}, {"type": "note_on", "time": 171, "note": 55, "velocity": 111, "channel": 0}, {"type": "note_off", "time": 66, "note": 55, "velocity": 111, "channel": 0}, {"type": "note_on", "time": 16, "note": 50, "velocity": 112, "channel": 0}, {"type": "note_off", "time": 64, "note": 50, "velocity": 112, "channel": 0}, {"type": "note_on", "time": 99, "note": 53, "velocity": 109, "channel": 0}, {"type": "note_off", "time": 104, "note": 53, "velocity": 109, "channel": 0}, {"type": "note_on", "time": 0, "note": 50, "velocity": 101, "channel": 0}, {"type": "note_off", "time": 59, "note": 50, "velocity": 101, "channel": 0}, {"type": "note_on", "time": 12, "note": 51, "velocity": 112, "channel": 0}, {"type": "note_off", "time": 97, "note": 51, "velocity": 112, "channel": 0}, {"type": "note_on", "time": 14, "note": 53, "velocity": 101, "channel": 0}, {"type": "note_off", "time": 84, "note": 53, "velocity": 101, "channel": 0}, {"type": "note_on", "time": 12, "note": 55, "velocity": 93, "channel": 0}, {"type": "note_off", "time": 131, "note": 55, "velocity": 93, "channel": 0}, {"type": "note_on", "time": 23, "note": 61, "velocity": 108, "channel": 0}, {"type": "note_off", "time": 72, "note": 61, "velocity": 108, "channel": 0}, {"type": "note_on", "time": 0, "note": 62, "velocity": 111, "channel": 0}, {"type": "note_off", "time": 135, "note": 62, "velocity": 111, "channel": 0}, {"type": "note_on", "time": 0, "note": 65, "velocity": 115, "channel": 0}, {"type": "note_off", "time": 113, "note": 65, "velocity": 115, "channel": 0}, {"type": "note_on", "time": 0, "note": 62, "velocity": 98, "channel": 0}, {"type": "note_off", "time": 84, "note": 62, "velocity": 98, "channel": 0}, {"type": "note_on", "time": 0, "note": 63, "velocity": 115, "channel": 0}, {"type": "note_off", "time": 90, "note": 63, "velocity": 115, "channel": 0}, {"type": "note_on", "time": 12, "note": 65, "velocity": 112, "channel": 0}, {"type": "note_off", "time": 106, "note": 65, "velocity": 112, "channel": 0}, {"type": "note_on", "time": 10, "note": 67, "velocity": 95, "channel": 0}, {"type": "note_off", "time": 39, "note": 67, "velocity": 95, "channel": 0}, {"type": "note_on", "time": 18, "note": 69, "velocity": 95, "channel": 0}, {"type": "note_off", "time": 75, "note": 69, "velocity": 95, "channel": 0}, {"type": "note_on", "time": 21, "note": 74, "velocity": 100, "channel": 0}, {"type": "note_on", "time": 124, "note": 73, "velocity": 107, "channel": 0}, {"type": "note_off", "time": 0, "note": 74, "velocity": 100, "channel": 0}, {"type": "note_off", "time": 250, "note": 73, "velocity": 107, "channel": 0}, {"type": "note_on", "time": 16, "note": 71, "velocity": 102, "channel": 0}, {"type": "note_off", "time": 126, "note": 71, "velocity": 102, "channel": 0}, {"type": "note_on", "time": 3, "note": 68, "velocity": 105, "channel": 0}, {"type": "note_off", "time": 93, "note": 68, "velocity": 105, "channel": 0}, {"type": "note_on", "time": 127, "note": 71, "velocity": 112, "channel": 0}, {"type": "note_off", "time": 39, "note": 71, "velocity": 112, "channel": 0}, {"type": "note_on", "time": 5, "note": 72, "velocity": 108, "channel": 0}, {"type": "note_off", "time": 425, "note": 72, "velocity": 108, "channel": 0}, {"type": "note_on", "time": 337, "note": 72, "velocity": 116, "channel": 0}, {"type": "note_off", "time": 86, "note": 72, "velocity": 116, "channel": 0}, {"type": "note_on", "time": 5, "note": 70, "velocity": 113, "channel": 0}, {"type": "note_off", "time": 171, "note": 70, "velocity": 113, "channel": 0}, {"type": "note_on", "time": 95, "note": 68, "velocity": 116, "channel": 0}, {"type": "note_off", "time": 140, "note": 68, "velocity": 116, "channel": 0}, {"type": "note_on", "time": 0, "note": 65, "velocity": 106, "channel": 0}, {"type": "note_off", "time": 54, "note": 65, "velocity": 106, "channel": 0}, {"type": "note_on", "time": 120, "note": 70, "velocity": 109, "channel": 0}, {"type": "note_off", "time": 88, "note": 70, "velocity": 109, "channel": 0}, {"type": "note_on", "time": 84, "note": 71, "velocity": 105, "channel": 0}, {"type": "note_off", "time": 81, "note": 71, "velocity": 105, "channel": 0}, {"type": "note_on", "time": 216, "note": 68, "velocity": 114, "channel": 0}, {"type": "note_off", "time": 126, "note": 68, "velocity": 114, "channel": 0}, {"type": "note_on", "time": 27, "note": 65, "velocity": 106, "channel": 0}, {"type": "note_off", "time": 50, "note": 65, "velocity": 106, "channel": 0}, {"type": "note_on", "time": 100, "note": 65, "velocity": 87, "channel": 0}, {"type": "note_off", "time": 43, "note": 65, "velocity": 87, "channel": 0}, {"type": "note_on", "time": 50, "note": 70, "velocity": 109, "channel": 0}, {"type": "note_off", "time": 102, "note": 70, "velocity": 109, "channel": 0}, {"type": "note_on", "time": 0, "note": 68, "velocity": 101, "channel": 0}, {"type": "note_off", "time": 59, "note": 68, "velocity": 101, "channel": 0}, {"type": "note_on", "time": 12, "note": 65, "velocity": 102, "channel": 0}, {"type": "note_off", "time": 82, "note": 65, "velocity": 102, "channel": 0}, {"type": "note_on", "time": 102, "note": 67, "velocity": 107, "channel": 0}, {"type": "note_off", "time": 77, "note": 67, "velocity": 107, "channel": 0}, {"type": "note_on", "time": 27, "note": 64, "velocity": 106, "channel": 0}, {"type": "note_off", "time": 64, "note": 64, "velocity": 106, "channel": 0}, {"type": "note_on", "time": 19, "note": 65, "velocity": 107, "channel": 0}, {"type": "note_off", "time": 100, "note": 65, "velocity": 107, "channel": 0}, {"type": "note_on", "time": 9, "note": 67, "velocity": 95, "channel": 0}, {"type": "note_off", "time": 43, "note": 67, "velocity": 95, "channel": 0}, {"type": "note_on", "time": 1, "note": 65, "velocity": 107, "channel": 0}, {"type": "note_off", "time": 48, "note": 65, "velocity": 107, "channel": 0}, {"type": "note_on", "time": 3, "note": 63, "velocity": 102, "channel": 0}, {"type": "note_off", "time": 115, "note": 63, "velocity": 102, "channel": 0}, {"type": "note_on", "time": 14, "note": 60, "velocity": 95, "channel": 0}, {"type": "note_off", "time": 106, "note": 60, "velocity": 95, "channel": 0}, {"type": "note_on", "time": 544, "note": 60, "velocity": 107, "channel": 0}, {"type": "note_off", "time": 88, "note": 60, "velocity": 107, "channel": 0}, {"type": "note_on", "time": 72, "note": 67, "velocity": 110, "channel": 0}, {"type": "note_off", "time": 117, "note": 67, "velocity": 110, "channel": 0}, {"type": "note_on", "time": 0, "note": 64, "velocity": 98, "channel": 0}, {"type": "note_off", "time": 68, "note": 64, "velocity": 98, "channel": 0}, {"type": "note_on", "time": 10, "note": 65, "velocity": 112, "channel": 0}, {"type": "note_off", "time": 99, "note": 65, "velocity": 112, "channel": 0}, {"type": "note_on", "time": 48, "note": 63, "velocity": 110, "channel": 0}, {"type": "note_off", "time": 57, "note": 63, "velocity": 110, "channel": 0}, {"type": "note_on", "time": 10, "note": 60, "velocity": 100, "channel": 0}, {"type": "note_off", "time": 95, "note": 60, "velocity": 100, "channel": 0}, {"type": "note_on", "time": 25, "note": 58, "velocity": 99, "channel": 0}, {"type": "note_off", "time": 50, "note": 58, "velocity": 99, "channel": 0}, {"type": "note_on", "time": 16, "note": 62, "velocity": 110, "channel": 0}, {"type": "note_off", "time": 187, "note": 62, "velocity": 110, "channel": 0}, {"type": "note_on", "time": 3, "note": 63, "velocity": 108, "channel": 0}, {"type": "note_off", "time": 77, "note": 63, "velocity": 108, "channel": 0}, {"type": "note_on", "time": 892, "note": 62, "velocity": 114, "channel": 0}, {"type": "note_off", "time": 84, "note": 62, "velocity": 114, "channel": 0}, {"type": "note_on", "time": 0, "note": 65, "velocity": 111, "channel": 0}, {"type": "note_off", "time": 28, "note": 65, "velocity": 111, "channel": 0}, {"type": "note_on", "time": 9, "note": 63, "velocity": 112, "channel": 0}, {"type": "note_off", "time": 144, "note": 63, "velocity": 112, "channel": 0}, {"type": "note_on", "time": 9, "note": 60, "velocity": 103, "channel": 0}, {"type": "note_off", "time": 81, "note": 60, "velocity": 103, "channel": 0}, {"type": "note_on", "time": 349, "note": 62, "velocity": 113, "channel": 0}, {"type": "note_off", "time": 135, "note": 62, "velocity": 113, "channel": 0}, {"type": "note_on", "time": 0, "note": 65, "velocity": 111, "channel": 0}, {"type": "note_off", "time": 126, "note": 65, "velocity": 111, "channel": 0}, {"type": "note_on", "time": 3, "note": 63, "velocity": 108, "channel": 0}, {"type": "note_off", "time": 45, "note": 63, "velocity": 108, "channel": 0}, {"type": "note_on", "time": 9, "note": 60, "velocity": 100, "channel": 0}, {"type": "note_off", "time": 21, "note": 60, "velocity": 100, "channel": 0}, {"type": "note_on", "time": 86, "note": 62, "velocity": 112, "channel": 0}, {"type": "note_off", "time": 113, "note": 62, "velocity": 112, "channel": 0}, {"type": "note_on", "time": 36, "note": 65, "velocity": 115, "channel": 0}, {"type": "note_off", "time": 64, "note": 65, "velocity": 115, "channel": 0}, {"type": "note_on", "time": 3, "note": 63, "velocity": 112, "channel": 0}, {"type": "note_off", "time": 97, "note": 63, "velocity": 112, "channel": 0}, {"type": "note_on", "time": 10, "note": 60, "velocity": 100, "channel": 0}, {"type": "note_off", "time": 88, "note": 60, "velocity": 100, "channel": 0}, {"type": "note_on", "time": 88, "note": 62, "velocity": 112, "channel": 0}, {"type": "note_off", "time": 88, "note": 62, "velocity": 112, "channel": 0}, {"type": "note_on", "time": 84, "note": 65, "velocity": 110, "channel": 0}, {"type": "note_off", "time": 64, "note": 65, "velocity": 110, "channel": 0}, {"type": "note_on", "time": 1, "note": 63, "velocity": 111, "channel": 0}, {"type": "note_off", "time": 127, "note": 63, "velocity": 111, "channel": 0}, {"type": "note_on", "time": 0, "note": 60, "velocity": 92, "channel": 0}, {"type": "note_off", "time": 50, "note": 60, "velocity": 92, "channel": 0}, {"type": "note_on", "time": 7, "note": 62, "velocity": 112, "channel": 0}, {"type": "note_off", "time": 129, "note": 62, "velocity": 112, "channel": 0}, {"type": "note_on", "time": 5, "note": 65, "velocity": 112, "channel": 0}, {"type": "note_off", "time": 70, "note": 65, "velocity": 112, "channel": 0}, {"type": "note_on", "time": 18, "note": 63, "velocity": 111, "channel": 0}, {"type": "note_off", "time": 118, "note": 63, "velocity": 111, "channel": 0}, {"type": "note_on", "time": 0, "note": 60, "velocity": 95, "channel": 0}, {"type": "note_off", "time": 37, "note": 60, "velocity": 95, "channel": 0}, {"type": "note_on", "time": 28, "note": 62, "velocity": 115, "channel": 0}, {"type": "note_off", "time": 81, "note": 62, "velocity": 115, "channel": 0}, {"type": "note_on", "time": 46, "note": 68, "velocity": 113, "channel": 0}, {"type": "note_off", "time": 109, "note": 68, "velocity": 113, "channel": 0}, {"type": "note_on", "time": 64, "note": 71, "velocity": 109, "channel": 0}, {"type": "note_off", "time": 63, "note": 71, "velocity": 109, "channel": 0}, {"type": "note_on", "time": 0, "note": 69, "velocity": 113, "channel": 0}, {"type": "note_off", "time": 117, "note": 69, "velocity": 113, "channel": 0}, {"type": "note_on", "time": 45, "note": 66, "velocity": 108, "channel": 0}, {"type": "note_off", "time": 64, "note": 66, "velocity": 108, "channel": 0}, {"type": "note_on", "time": 12, "note": 68, "velocity": 107, "channel": 0}, {"type": "note_off", "time": 75, "note": 68, "velocity": 107, "channel": 0}, {"type": "note_on", "time": 32, "note": 71, "velocity": 108, "channel": 0}, {"type": "note_off", "time": 113, "note": 71, "velocity": 108, "channel": 0}, {"type": "note_on", "time": 868, "note": 66, "velocity": 109, "channel": 0}, {"type": "note_off", "time": 93, "note": 66, "velocity": 109, "channel": 0}, {"type": "note_on", "time": 34, "note": 70, "velocity": 107, "channel": 0}, {"type": "note_off", "time": 68, "note": 70, "velocity": 107, "channel": 0}, {"type": "note_on", "time": 0, "note": 68, "velocity": 110, "channel": 0}, {"type": "note_off", "time": 127, "note": 68, "velocity": 110, "channel": 0}, {"type": "note_on", "time": 0, "note": 66, "velocity": 89, "channel": 0}, {"type": "note_off", "time": 46, "note": 66, "velocity": 89, "channel": 0}, {"type": "note_on", "time": 45, "note": 69, "velocity": 108, "channel": 0}, {"type": "note_off", "time": 48, "note": 69, "velocity": 108, "channel": 0}, {"type": "note_on", "time": 3, "note": 70, "velocity": 93, "channel": 0}, {"type": "note_off", "time": 50, "note": 70, "velocity": 93, "channel": 0}, {"type": "note_on", "time": 16, "note": 68, "velocity": 108, "channel": 0}, {"type": "note_off", "time": 86, "note": 68, "velocity": 108, "channel": 0}, {"type": "note_on", "time": 881, "note": 69, "velocity": 114, "channel": 0}, {"type": "note_off", "time": 106, "note": 69, "velocity": 114, "channel": 0}, {"type": "note_on", "time": 0, "note": 68, "velocity": 100, "channel": 0}, {"type": "note_off", "time": 28, "note": 68, "velocity": 100, "channel": 0}, {"type": "note_on", "time": 3, "note": 67, "velocity": 108, "channel": 0}, {"type": "note_off", "time": 77, "note": 67, "velocity": 108, "channel": 0}, {"type": "note_on", "time": 3, "note": 65, "velocity": 112, "channel": 0}, {"type": "note_off", "time": 84, "note": 65, "velocity": 112, "channel": 0}, {"type": "note_on", "time": 10, "note": 62, "velocity": 102, "channel": 0}, {"type": "note_off", "time": 72, "note": 62, "velocity": 102, "channel": 0}, {"type": "note_on", "time": 14, "note": 68, "velocity": 113, "channel": 0}, {"type": "note_off", "time": 104, "note": 68, "velocity": 113, "channel": 0}, {"type": "note_on", "time": 37, "note": 66, "velocity": 104, "channel": 0}, {"type": "note_off", "time": 45, "note": 66, "velocity": 104, "channel": 0}, {"type": "note_on", "time": 9, "note": 64, "velocity": 110, "channel": 0}, {"type": "note_off", "time": 111, "note": 64, "velocity": 110, "channel": 0}, {"type": "note_on", "time": 1, "note": 61, "velocity": 92, "channel": 0}, {"type": "note_off", "time": 50, "note": 61, "velocity": 92, "channel": 0}, {"type": "note_on", "time": 21, "note": 67, "velocity": 108, "channel": 0}, {"type": "note_off", "time": 104, "note": 67, "velocity": 108, "channel": 0}, {"type": "note_on", "time": 25, "note": 65, "velocity": 108, "channel": 0}, {"type": "note_off", "time": 64, "note": 65, "velocity": 108, "channel": 0}, {"type": "note_on", "time": 3, "note": 63, "velocity": 110, "channel": 0}, {"type": "note_off", "time": 120, "note": 63, "velocity": 110, "channel": 0}, {"type": "note_on", "time": 16, "note": 60, "velocity": 94, "channel": 0}, {"type": "note_off", "time": 52, "note": 60, "velocity": 94, "channel": 0}, {"type": "note_on", "time": 14, "note": 66, "velocity": 111, "channel": 0}, {"type": "note_off", "time": 64, "note": 66, "velocity": 111, "channel": 0}, {"type": "note_on", "time": 0, "note": 64, "velocity": 109, "channel": 0}, {"type": "note_off", "time": 43, "note": 64, "velocity": 109, "channel": 0}, {"type": "note_on", "time": 18, "note": 64, "velocity": 117, "channel": 0}, {"type": "note_off", "time": 52, "note": 64, "velocity": 117, "channel": 0}, {"type": "note_on", "time": 5, "note": 62, "velocity": 115, "channel": 0}, {"type": "note_off", "time": 131, "note": 62, "velocity": 115, "channel": 0}, {"type": "note_on", "time": 0, "note": 59, "velocity": 93, "channel": 0}, {"type": "note_off", "time": 54, "note": 59, "velocity": 93, "channel": 0}, {"type": "note_on", "time": 9, "note": 65, "velocity": 115, "channel": 0}, {"type": "note_off", "time": 142, "note": 65, "velocity": 115, "channel": 0}, {"type": "note_on", "time": 2972, "note": 45, "velocity": 116, "channel": 0}, {"type": "note_off", "time": 118, "note": 45, "velocity": 116, "channel": 0}, {"type": "note_on", "time": 16, "note": 53, "velocity": 108, "channel": 0}, {"type": "note_off", "time": 63, "note": 53, "velocity": 108, "channel": 0}, {"type": "note_on", "time": 14, "note": 56, "velocity": 114, "channel": 0}, {"type": "note_off", "time": 70, "note": 56, "velocity": 114, "channel": 0}, {"type": "note_on", "time": 7, "note": 57, "velocity": 108, "channel": 0}, {"type": "note_off", "time": 169, "note": 57, "velocity": 108, "channel": 0}, {"type": "note_on", "time": 122, "note": 45, "velocity": 110, "channel": 0}, {"type": "note_off", "time": 117, "note": 45, "velocity": 110, "channel": 0}, {"type": "note_on", "time": 14, "note": 48, "velocity": 110, "channel": 0}, {"type": "note_off", "time": 52, "note": 48, "velocity": 110, "channel": 0}, {"type": "note_on", "time": 10, "note": 53, "velocity": 104, "channel": 0}, {"type": "note_off", "time": 70, "note": 53, "velocity": 104, "channel": 0}, {"type": "note_on", "time": 12, "note": 55, "velocity": 105, "channel": 0}, {"type": "note_off", "time": 50, "note": 55, "velocity": 105, "channel": 0}, {"type": "note_on", "time": 0, "note": 57, "velocity": 104, "channel": 0}, {"type": "note_off", "time": 124, "note": 57, "velocity": 104, "channel": 0}, {"type": "note_on", "time": 156, "note": 45, "velocity": 107, "channel": 0}, {"type": "note_off", "time": 99, "note": 45, "velocity": 107, "channel": 0}, {"type": "note_on", "time": 0, "note": 50, "velocity": 100, "channel": 0}, {"type": "note_off", "time": 61, "note": 50, "velocity": 100, "channel": 0}, {"type": "note_on", "time": 7, "note": 53, "velocity": 105, "channel": 0}, {"type": "note_off", "time": 72, "note": 53, "velocity": 105, "channel": 0}, {"type": "note_on", "time": 10, "note": 56, "velocity": 104, "channel": 0}, {"type": "note_off", "time": 75, "note": 56, "velocity": 104, "channel": 0}, {"type": "note_on", "time": 0, "note": 57, "velocity": 104, "channel": 0}, {"type": "note_off", "time": 124, "note": 57, "velocity": 104, "channel": 0}, {"type": "note_on", "time": 126, "note": 45, "velocity": 102, "channel": 0}, {"type": "note_off", "time": 102, "note": 45, "velocity": 102, "channel": 0}, {"type": "note_on", "time": 0, "note": 50, "velocity": 101, "channel": 0}, {"type": "note_off", "time": 57, "note": 50, "velocity": 101, "channel": 0}, {"type": "note_on", "time": 7, "note": 53, "velocity": 103, "channel": 0}, {"type": "note_off", "time": 61, "note": 53, "velocity": 103, "channel": 0}, {"type": "note_on", "time": 9, "note": 55, "velocity": 107, "channel": 0}, {"type": "note_off", "time": 84, "note": 55, "velocity": 107, "channel": 0}, {"type": "note_on", "time": 10, "note": 57, "velocity": 106, "channel": 0}, {"type": "note_off", "time": 111, "note": 57, "velocity": 106, "channel": 0}, {"type": "note_on", "time": 899, "note": 57, "velocity": 98, "channel": 0}, {"type": "note_off", "time": 79, "note": 57, "velocity": 98, "channel": 0}, {"type": "note_on", "time": 9, "note": 58, "velocity": 95, "channel": 0}, {"type": "note_off", "time": 90, "note": 58, "velocity": 95, "channel": 0}, {"type": "note_on", "time": 5, "note": 60, "velocity": 102, "channel": 0}, {"type": "note_off", "time": 79, "note": 60, "velocity": 102, "channel": 0}, {"type": "note_on", "time": 12, "note": 61, "velocity": 102, "channel": 0}, {"type": "note_off", "time": 75, "note": 61, "velocity": 102, "channel": 0}, {"type": "note_on", "time": 0, "note": 63, "velocity": 97, "channel": 0}, {"type": "note_off", "time": 77, "note": 63, "velocity": 97, "channel": 0}, {"type": "note_on", "time": 0, "note": 64, "velocity": 112, "channel": 0}, {"type": "note_off", "time": 135, "note": 64, "velocity": 112, "channel": 0}, {"type": "note_on", "time": 0, "note": 68, "velocity": 113, "channel": 0}, {"type": "note_off", "time": 93, "note": 68, "velocity": 113, "channel": 0}, {"type": "note_on", "time": 0, "note": 66, "velocity": 101, "channel": 0}, {"type": "note_off", "time": 54, "note": 66, "velocity": 101, "channel": 0}, {"type": "note_on", "time": 28, "note": 64, "velocity": 114, "channel": 0}, {"type": "note_off", "time": 75, "note": 64, "velocity": 114, "channel": 0}, {"type": "note_on", "time": 10, "note": 63, "velocity": 113, "channel": 0}, {"type": "note_off", "time": 106, "note": 63, "velocity": 113, "channel": 0}, {"type": "note_on", "time": 9, "note": 61, "velocity": 104, "channel": 0}, {"type": "note_off", "time": 63, "note": 61, "velocity": 104, "channel": 0}, {"type": "note_on", "time": 9, "note": 60, "velocity": 99, "channel": 0}, {"type": "note_off", "time": 93, "note": 60, "velocity": 99, "channel": 0}, {"type": "note_on", "time": 1, "note": 58, "velocity": 100, "channel": 0}, {"type": "note_off", "time": 77, "note": 58, "velocity": 100, "channel": 0}, {"type": "note_on", "time": 28, "note": 55, "velocity": 96, "channel": 0}, {"type": "note_off", "time": 117, "note": 55, "velocity": 96, "channel": 0}, {"type": "note_on", "time": 37, "note": 57, "velocity": 105, "channel": 0}, {"type": "note_off", "time": 86, "note": 57, "velocity": 105, "channel": 0}, {"type": "note_on", "time": 14, "note": 48, "velocity": 107, "channel": 0}, {"type": "note_off", "time": 82, "note": 48, "velocity": 107, "channel": 0}, {"type": "note_on", "time": 10, "note": 50, "velocity": 103, "channel": 0}, {"type": "note_off", "time": 90, "note": 50, "velocity": 103, "channel": 0}, {"type": "note_on", "time": 7, "note": 52, "velocity": 100, "channel": 0}, {"type": "note_off", "time": 97, "note": 52, "velocity": 100, "channel": 0}, {"type": "note_on", "time": 19, "note": 55, "velocity": 107, "channel": 0}, {"type": "note_off", "time": 100, "note": 55, "velocity": 107, "channel": 0}, {"type": "note_on", "time": 0, "note": 52, "velocity": 105, "channel": 0}, {"type": "note_off", "time": 79, "note": 52, "velocity": 105, "channel": 0}, {"type": "note_on", "time": 5, "note": 54, "velocity": 100, "channel": 0}, {"type": "note_off", "time": 91, "note": 54, "velocity": 100, "channel": 0}, {"type": "note_on", "time": 200, "note": 63, "velocity": 117, "channel": 0}, {"type": "note_off", "time": 79, "note": 63, "velocity": 117, "channel": 0}, {"type": "note_on", "time": 3, "note": 62, "velocity": 112, "channel": 0}, {"type": "note_off", "time": 113, "note": 62, "velocity": 112, "channel": 0}, {"type": "note_on", "time": 5, "note": 60, "velocity": 103, "channel": 0}, {"type": "note_off", "time": 79, "note": 60, "velocity": 103, "channel": 0}, {"type": "note_on", "time": 3, "note": 58, "velocity": 98, "channel": 0}, {"type": "note_off", "time": 79, "note": 58, "velocity": 98, "channel": 0}, {"type": "note_on", "time": 264, "note": 55, "velocity": 108, "channel": 0}, {"type": "note_off", "time": 39, "note": 55, "velocity": 108, "channel": 0}, {"type": "note_on", "time": 3, "note": 57, "velocity": 106, "channel": 0}, {"type": "note_off", "time": 64, "note": 57, "velocity": 106, "channel": 0}, {"type": "note_on", "time": 0, "note": 55, "velocity": 102, "channel": 0}, {"type": "note_off", "time": 55, "note": 55, "velocity": 102, "channel": 0}, {"type": "note_on", "time": 18, "note": 53, "velocity": 104, "channel": 0}, {"type": "note_off", "time": 104, "note": 53, "velocity": 104, "channel": 0}, {"type": "note_on", "time": 32, "note": 50, "velocity": 90, "channel": 0}, {"type": "note_off", "time": 86, "note": 50, "velocity": 90, "channel": 0}, {"type": "note_on", "time": 1, "note": 52, "velocity": 102, "channel": 0}, {"type": "note_off", "time": 102, "note": 52, "velocity": 102, "channel": 0}, {"type": "note_on", "time": 28, "note": 55, "velocity": 100, "channel": 0}, {"type": "note_off", "time": 72, "note": 55, "velocity": 100, "channel": 0}, {"type": "note_on", "time": 1, "note": 58, "velocity": 92, "channel": 0}, {"type": "note_off", "time": 52, "note": 58, "velocity": 92, "channel": 0}, {"type": "note_on", "time": 0, "note": 61, "velocity": 107, "channel": 0}, {"type": "note_off", "time": 82, "note": 61, "velocity": 107, "channel": 0}, {"type": "note_on", "time": 7, "note": 60, "velocity": 107, "channel": 0}, {"type": "note_off", "time": 95, "note": 60, "velocity": 107, "channel": 0}, {"type": "note_on", "time": 21, "note": 58, "velocity": 107, "channel": 0}, {"type": "note_off", "time": 79, "note": 58, "velocity": 107, "channel": 0}, {"type": "note_on", "time": 0, "note": 55, "velocity": 102, "channel": 0}, {"type": "note_off", "time": 164, "note": 55, "velocity": 102, "channel": 0}, {"type": "note_on", "time": 18, "note": 57, "velocity": 107, "channel": 0}, {"type": "note_off", "time": 79, "note": 57, "velocity": 107, "channel": 0}, {"type": "note_on", "time": 216, "note": 55, "velocity": 104, "channel": 0}, {"type": "note_off", "time": 82, "note": 55, "velocity": 104, "channel": 0}, {"type": "note_on", "time": 7, "note": 54, "velocity": 103, "channel": 0}, {"type": "note_off", "time": 122, "note": 54, "velocity": 103, "channel": 0}, {"type": "note_on", "time": 0, "note": 57, "velocity": 100, "channel": 0}, {"type": "note_off", "time": 59, "note": 57, "velocity": 100, "channel": 0}, {"type": "note_on", "time": 3, "note": 60, "velocity": 103, "channel": 0}, {"type": "note_off", "time": 68, "note": 60, "velocity": 103, "channel": 0}, {"type": "note_on", "time": 28, "note": 62, "velocity": 112, "channel": 0}, {"type": "note_off", "time": 109, "note": 62, "velocity": 112, "channel": 0}, {"type": "note_on", "time": 5, "note": 63, "velocity": 112, "channel": 0}, {"type": "note_off", "time": 117, "note": 63, "velocity": 112, "channel": 0}, {"type": "note_on", "time": 5, "note": 65, "velocity": 112, "channel": 0}, {"type": "note_off", "time": 91, "note": 65, "velocity": 112, "channel": 0}, {"type": "note_on", "time": 73, "note": 65, "velocity": 113, "channel": 0}, {"type": "note_off", "time": 86, "note": 65, "velocity": 113, "channel": 0}, {"type": "note_on", "time": 117, "note": 65, "velocity": 117, "channel": 0}, {"type": "note_off", "time": 100, "note": 65, "velocity": 117, "channel": 0}, {"type": "note_on", "time": 77, "note": 65, "velocity": 116, "channel": 0}, {"type": "note_off", "time": 95, "note": 65, "velocity": 116, "channel": 0}, {"type": "note_on", "time": 73, "note": 65, "velocity": 115, "channel": 0}, {"type": "note_off", "time": 90, "note": 65, "velocity": 115, "channel": 0}, {"type": "note_on", "time": 100, "note": 65, "velocity": 112, "channel": 0}, {"type": "note_off", "time": 93, "note": 65, "velocity": 112, "channel": 0}, {"type": "note_on", "time": 86, "note": 65, "velocity": 112, "channel": 0}, {"type": "note_off", "time": 99, "note": 65, "velocity": 112, "channel": 0}, {"type": "note_on", "time": 5, "note": 63, "velocity": 109, "channel": 0}, {"type": "note_off", "time": 99, "note": 63, "velocity": 109, "channel": 0}, {"type": "note_on", "time": 14, "note": 60, "velocity": 88, "channel": 0}, {"type": "note_off", "time": 59, "note": 60, "velocity": 88, "channel": 0}, {"type": "note_on", "time": 7, "note": 63, "velocity": 107, "channel": 0}, {"type": "note_off", "time": 108, "note": 63, "velocity": 107, "channel": 0}, {"type": "note_on", "time": 10, "note": 65, "velocity": 106, "channel": 0}, {"type": "note_off", "time": 72, "note": 65, "velocity": 106, "channel": 0}, {"type": "note_on", "time": 104, "note": 65, "velocity": 110, "channel": 0}, {"type": "note_off", "time": 99, "note": 65, "velocity": 110, "channel": 0}, {"type": "note_on", "time": 91, "note": 65, "velocity": 110, "channel": 0}, {"type": "note_off", "time": 77, "note": 65, "velocity": 110, "channel": 0}, {"type": "note_on", "time": 120, "note": 65, "velocity": 108, "channel": 0}, {"type": "note_off", "time": 72, "note": 65, "velocity": 108, "channel": 0}, {"type": "note_on", "time": 164, "note": 65, "velocity": 107, "channel": 0}, {"type": "note_off", "time": 72, "note": 65, "velocity": 107, "channel": 0}, {"type": "note_on", "time": 70, "note": 65, "velocity": 101, "channel": 0}, {"type": "note_off", "time": 66, "note": 65, "velocity": 101, "channel": 0}, {"type": "note_on", "time": 43, "note": 70, "velocity": 108, "channel": 0}, {"type": "note_off", "time": 84, "note": 70, "velocity": 108, "channel": 0}, {"type": "note_on", "time": 5, "note": 68, "velocity": 107, "channel": 0}, {"type": "note_off", "time": 81, "note": 68, "velocity": 107, "channel": 0}, {"type": "note_on", "time": 27, "note": 66, "velocity": 109, "channel": 0}, {"type": "note_off", "time": 86, "note": 66, "velocity": 109, "channel": 0}, {"type": "note_on", "time": 14, "note": 63, "velocity": 99, "channel": 0}, {"type": "note_off", "time": 52, "note": 63, "velocity": 99, "channel": 0}, {"type": "note_on", "time": 10, "note": 66, "velocity": 106, "channel": 0}, {"type": "note_off", "time": 144, "note": 66, "velocity": 106, "channel": 0}, {"type": "note_on", "time": 1023, "note": 71, "velocity": 111, "channel": 0}, {"type": "note_off", "time": 55, "note": 71, "velocity": 111, "channel": 0}, {"type": "note_on", "time": 0, "note": 72, "velocity": 113, "channel": 0}, {"type": "note_off", "time": 684, "note": 72, "velocity": 113, "channel": 0}, {"type": "note_on", "time": 355, "note": 72, "velocity": 109, "channel": 0}, {"type": "note_off", "time": 91, "note": 72, "velocity": 109, "channel": 0}, {"type": "note_on", "time": 12, "note": 73, "velocity": 94, "channel": 0}, {"type": "note_off", "time": 41, "note": 73, "velocity": 94, "channel": 0}, {"type": "note_on", "time": 12, "note": 74, "velocity": 110, "channel": 0}, {"type": "note_off", "time": 223, "note": 74, "velocity": 110, "channel": 0}, {"type": "note_on", "time": 3, "note": 75, "velocity": 86, "channel": 0}, {"type": "note_off", "time": 176, "note": 75, "velocity": 86, "channel": 0}, {"type": "note_on", "time": 951, "note": 72, "velocity": 117, "channel": 0}, {"type": "note_off", "time": 108, "note": 72, "velocity": 117, "channel": 0}, {"type": "note_on", "time": 19, "note": 72, "velocity": 114, "channel": 0}, {"type": "note_off", "time": 127, "note": 72, "velocity": 114, "channel": 0}, {"type": "note_on", "time": 948, "note": 60, "velocity": 103, "channel": 0}, {"type": "note_off", "time": 73, "note": 60, "velocity": 103, "channel": 0}, {"type": "note_on", "time": 187, "note": 67, "velocity": 93, "channel": 0}, {"type": "note_off", "time": 64, "note": 67, "velocity": 93, "channel": 0}, {"type": "note_on", "time": 0, "note": 70, "velocity": 111, "channel": 0}, {"type": "note_off", "time": 63, "note": 70, "velocity": 111, "channel": 0}, {"type": "note_on", "time": 3, "note": 71, "velocity": 116, "channel": 0}, {"type": "note_off", "time": 45, "note": 71, "velocity": 116, "channel": 0}, {"type": "note_on", "time": 9, "note": 70, "velocity": 114, "channel": 0}, {"type": "note_off", "time": 77, "note": 70, "velocity": 114, "channel": 0}, {"type": "note_on", "time": 12, "note": 68, "velocity": 111, "channel": 0}, {"type": "note_off", "time": 75, "note": 68, "velocity": 111, "channel": 0}, {"type": "note_on", "time": 43, "note": 66, "velocity": 113, "channel": 0}, {"type": "note_off", "time": 72, "note": 66, "velocity": 113, "channel": 0}, {"type": "note_on", "time": 19, "note": 65, "velocity": 112, "channel": 0}, {"type": "note_off", "time": 63, "note": 65, "velocity": 112, "channel": 0}, {"type": "note_on", "time": 1, "note": 63, "velocity": 110, "channel": 0}, {"type": "note_off", "time": 111, "note": 63, "velocity": 110, "channel": 0}, {"type": "note_on", "time": 0, "note": 61, "velocity": 106, "channel": 0}, {"type": "note_on", "time": 86, "note": 60, "velocity": 105, "channel": 0}, {"type": "note_off", "time": 0, "note": 61, "velocity": 106, "channel": 0}, {"type": "note_off", "time": 75, "note": 60, "velocity": 105, "channel": 0}, {"type": "note_on", "time": 3, "note": 59, "velocity": 108, "channel": 0}, {"type": "note_off", "time": 104, "note": 59, "velocity": 108, "channel": 0}, {"type": "note_on", "time": 18, "note": 58, "velocity": 103, "channel": 0}, {"type": "note_off", "time": 88, "note": 58, "velocity": 103, "channel": 0}, {"type": "note_on", "time": 9, "note": 56, "velocity": 104, "channel": 0}, {"type": "note_off", "time": 72, "note": 56, "velocity": 104, "channel": 0}, {"type": "note_on", "time": 3, "note": 54, "velocity": 101, "channel": 0}, {"type": "note_off", "time": 72, "note": 54, "velocity": 101, "channel": 0}, {"type": "note_on", "time": 23, "note": 53, "velocity": 109, "channel": 0}, {"type": "note_off", "time": 102, "note": 53, "velocity": 109, "channel": 0}, {"type": "note_on", "time": 7, "note": 51, "velocity": 109, "channel": 0}, {"type": "note_off", "time": 70, "note": 51, "velocity": 109, "channel": 0}, {"type": "note_on", "time": 14, "note": 49, "velocity": 103, "channel": 0}, {"type": "note_off", "time": 57, "note": 49, "velocity": 103, "channel": 0}, {"type": "note_on", "time": 27, "note": 48, "velocity": 102, "channel": 0}, {"type": "note_off", "time": 79, "note": 48, "velocity": 102, "channel": 0}, {"type": "note_on", "time": 12, "note": 47, "velocity": 94, "channel": 0}, {"type": "note_off", "time": 129, "note": 47, "velocity": 94, "channel": 0}, {"type": "note_on", "time": 214, "note": 55, "velocity": 90, "channel": 0}, {"type": "note_off", "time": 37, "note": 55, "velocity": 90, "channel": 0}, {"type": "note_on", "time": 16, "note": 58, "velocity": 96, "channel": 0}, {"type": "note_off", "time": 120, "note": 58, "velocity": 96, "channel": 0}, {"type": "note_on", "time": 1, "note": 55, "velocity": 97, "channel": 0}, {"type": "note_off", "time": 70, "note": 55, "velocity": 97, "channel": 0}, {"type": "note_on", "time": 9, "note": 56, "velocity": 95, "channel": 0}, {"type": "note_off", "time": 75, "note": 56, "velocity": 95, "channel": 0}, {"type": "note_on", "time": 9, "note": 58, "velocity": 100, "channel": 0}, {"type": "note_off", "time": 86, "note": 58, "velocity": 100, "channel": 0}, {"type": "note_on", "time": 16, "note": 59, "velocity": 98, "channel": 0}, {"type": "note_off", "time": 75, "note": 59, "velocity": 98, "channel": 0}, {"type": "note_on", "time": 1, "note": 61, "velocity": 100, "channel": 0}, {"type": "note_off", "time": 82, "note": 61, "velocity": 100, "channel": 0}, {"type": "note_on", "time": 3, "note": 62, "velocity": 103, "channel": 0}, {"type": "note_off", "time": 72, "note": 62, "velocity": 103, "channel": 0}, {"type": "note_on", "time": 34, "note": 65, "velocity": 108, "channel": 0}, {"type": "note_off", "time": 43, "note": 65, "velocity": 108, "channel": 0}, {"type": "note_on", "time": 21, "note": 62, "velocity": 110, "channel": 0}, {"type": "note_off", "time": 122, "note": 62, "velocity": 110, "channel": 0}, {"type": "note_on", "time": 16, "note": 64, "velocity": 99, "channel": 0}, {"type": "note_off", "time": 66, "note": 64, "velocity": 99, "channel": 0}, {"type": "note_on", "time": 28, "note": 66, "velocity": 89, "channel": 0}, {"type": "note_off", "time": 63, "note": 66, "velocity": 89, "channel": 0}, {"type": "note_on", "time": 0, "note": 68, "velocity": 112, "channel": 0}, {"type": "note_off", "time": 63, "note": 68, "velocity": 112, "channel": 0}, {"type": "note_on", "time": 9, "note": 61, "velocity": 106, "channel": 0}, {"type": "note_off", "time": 122, "note": 61, "velocity": 106, "channel": 0}, {"type": "note_on", "time": 0, "note": 63, "velocity": 96, "channel": 0}, {"type": "note_off", "time": 36, "note": 63, "velocity": 96, "channel": 0}, {"type": "note_on", "time": 14, "note": 64, "velocity": 106, "channel": 0}, {"type": "note_off", "time": 97, "note": 64, "velocity": 106, "channel": 0}, {"type": "note_on", "time": 0, "note": 66, "velocity": 103, "channel": 0}, {"type": "note_off", "time": 86, "note": 66, "velocity": 103, "channel": 0}, {"type": "note_on", "time": 64, "note": 59, "velocity": 97, "channel": 0}, {"type": "note_off", "time": 50, "note": 59, "velocity": 97, "channel": 0}, {"type": "note_on", "time": 0, "note": 60, "velocity": 97, "channel": 0}, {"type": "note_off", "time": 61, "note": 60, "velocity": 97, "channel": 0}, {"type": "note_on", "time": 0, "note": 64, "velocity": 98, "channel": 0}, {"type": "note_off", "time": 104, "note": 64, "velocity": 98, "channel": 0}, {"type": "note_on", "time": 0, "note": 67, "velocity": 112, "channel": 0}, {"type": "note_off", "time": 57, "note": 67, "velocity": 112, "channel": 0}, {"type": "note_on", "time": 7, "note": 64, "velocity": 104, "channel": 0}, {"type": "note_off", "time": 95, "note": 64, "velocity": 104, "channel": 0}, {"type": "note_on", "time": 66, "note": 66, "velocity": 100, "channel": 0}, {"type": "note_off", "time": 109, "note": 66, "velocity": 100, "channel": 0}, {"type": "note_on", "time": 928, "note": 60, "velocity": 106, "channel": 0}, {"type": "note_off", "time": 63, "note": 60, "velocity": 106, "channel": 0}, {"type": "note_on", "time": 82, "note": 66, "velocity": 117, "channel": 0}, {"type": "note_off", "time": 111, "note": 66, "velocity": 117, "channel": 0}, {"type": "note_on", "time": 0, "note": 63, "velocity": 114, "channel": 0}, {"type": "note_off", "time": 66, "note": 63, "velocity": 114, "channel": 0}, {"type": "note_on", "time": 9, "note": 65, "velocity": 114, "channel": 0}, {"type": "note_off", "time": 104, "note": 65, "velocity": 114, "channel": 0}, {"type": "note_on", "time": 7, "note": 63, "velocity": 116, "channel": 0}, {"type": "note_off", "time": 88, "note": 63, "velocity": 116, "channel": 0}, {"type": "note_on", "time": 0, "note": 61, "velocity": 106, "channel": 0}, {"type": "note_off", "time": 126, "note": 61, "velocity": 106, "channel": 0}, {"type": "note_on", "time": 14, "note": 58, "velocity": 93, "channel": 0}, {"type": "note_on", "time": 41, "note": 63, "velocity": 112, "channel": 0}, {"type": "note_off", "time": 0, "note": 58, "velocity": 93, "channel": 0}, {"type": "note_off", "time": 124, "note": 63, "velocity": 112, "channel": 0}, {"type": "note_on", "time": 0, "note": 61, "velocity": 107, "channel": 0}, {"type": "note_off", "time": 84, "note": 61, "velocity": 107, "channel": 0}, {"type": "note_on", "time": 1404, "note": 61, "velocity": 107, "channel": 0}, {"type": "note_off", "time": 57, "note": 61, "velocity": 107, "channel": 0}, {"type": "note_on", "time": 10, "note": 62, "velocity": 98, "channel": 0}, {"type": "note_off", "time": 182, "note": 62, "velocity": 98, "channel": 0}, {"type": "note_on", "time": 7, "note": 72, "velocity": 111, "channel": 0}, {"type": "note_off", "time": 59, "note": 72, "velocity": 111, "channel": 0}, {"type": "note_on", "time": 16, "note": 69, "velocity": 115, "channel": 0}, {"type": "note_off", "time": 70, "note": 69, "velocity": 115, "channel": 0}, {"type": "note_on", "time": 9, "note": 65, "velocity": 108, "channel": 0}, {"type": "note_off", "time": 46, "note": 65, "velocity": 108, "channel": 0}, {"type": "note_on", "time": 0, "note": 62, "velocity": 115, "channel": 0}, {"type": "note_off", "time": 72, "note": 62, "velocity": 115, "channel": 0}, {"type": "note_on", "time": 0, "note": 63, "velocity": 112, "channel": 0}, {"type": "note_off", "time": 54, "note": 63, "velocity": 112, "channel": 0}, {"type": "note_on", "time": 19, "note": 62, "velocity": 114, "channel": 0}, {"type": "note_off", "time": 57, "note": 62, "velocity": 114, "channel": 0}, {"type": "note_on", "time": 16, "note": 72, "velocity": 108, "channel": 0}, {"type": "note_off", "time": 63, "note": 72, "velocity": 108, "channel": 0}, {"type": "note_on", "time": 7, "note": 69, "velocity": 115, "channel": 0}, {"type": "note_off", "time": 57, "note": 69, "velocity": 115, "channel": 0}, {"type": "note_on", "time": 7, "note": 65, "velocity": 108, "channel": 0}, {"type": "note_off", "time": 55, "note": 65, "velocity": 108, "channel": 0}, {"type": "note_on", "time": 0, "note": 62, "velocity": 113, "channel": 0}, {"type": "note_off", "time": 70, "note": 62, "velocity": 113, "channel": 0}, {"type": "note_on", "time": 0, "note": 63, "velocity": 107, "channel": 0}, {"type": "note_off", "time": 55, "note": 63, "velocity": 107, "channel": 0}, {"type": "note_on", "time": 5, "note": 62, "velocity": 107, "channel": 0}, {"type": "note_off", "time": 39, "note": 62, "velocity": 107, "channel": 0}, {"type": "note_on", "time": 0, "note": 72, "velocity": 111, "channel": 0}, {"type": "note_off", "time": 61, "note": 72, "velocity": 111, "channel": 0}, {"type": "note_on", "time": 7, "note": 69, "velocity": 113, "channel": 0}, {"type": "note_off", "time": 55, "note": 69, "velocity": 113, "channel": 0}, {"type": "note_on", "time": 7, "note": 65, "velocity": 111, "channel": 0}, {"type": "note_off", "time": 39, "note": 65, "velocity": 111, "channel": 0}, {"type": "note_on", "time": 0, "note": 62, "velocity": 111, "channel": 0}, {"type": "note_off", "time": 48, "note": 62, "velocity": 111, "channel": 0}, {"type": "note_on", "time": 10, "note": 63, "velocity": 112, "channel": 0}, {"type": "note_off", "time": 46, "note": 63, "velocity": 112, "channel": 0}, {"type": "note_on", "time": 7, "note": 62, "velocity": 102, "channel": 0}, {"type": "note_off", "time": 64, "note": 62, "velocity": 102, "channel": 0}, {"type": "note_on", "time": 12, "note": 72, "velocity": 103, "channel": 0}, {"type": "note_off", "time": 61, "note": 72, "velocity": 103, "channel": 0}, {"type": "note_on", "time": 0, "note": 69, "velocity": 113, "channel": 0}, {"type": "note_off", "time": 46, "note": 69, "velocity": 113, "channel": 0}, {"type": "note_on", "time": 0, "note": 65, "velocity": 109, "channel": 0}, {"type": "note_off", "time": 41, "note": 65, "velocity": 109, "channel": 0}, {"type": "note_on", "time": 0, "note": 62, "velocity": 111, "channel": 0}, {"type": "note_off", "time": 64, "note": 62, "velocity": 111, "channel": 0}, {"type": "note_on", "time": 3, "note": 63, "velocity": 109, "channel": 0}, {"type": "note_off", "time": 48, "note": 63, "velocity": 109, "channel": 0}, {"type": "note_on", "time": 3, "note": 62, "velocity": 109, "channel": 0}, {"type": "note_off", "time": 64, "note": 62, "velocity": 109, "channel": 0}, {"type": "note_on", "time": 3, "note": 63, "velocity": 108, "channel": 0}, {"type": "note_off", "time": 55, "note": 63, "velocity": 108, "channel": 0}, {"type": "note_on", "time": 0, "note": 62, "velocity": 111, "channel": 0}, {"type": "note_on", "time": 55, "note": 63, "velocity": 111, "channel": 0}, {"type": "note_off", "time": 0, "note": 62, "velocity": 111, "channel": 0}, {"type": "note_off", "time": 57, "note": 63, "velocity": 111, "channel": 0}, {"type": "note_on", "time": 18, "note": 72, "velocity": 108, "channel": 0}, {"type": "note_off", "time": 59, "note": 72, "velocity": 108, "channel": 0}, {"type": "note_on", "time": 21, "note": 69, "velocity": 118, "channel": 0}, {"type": "note_off", "time": 45, "note": 69, "velocity": 118, "channel": 0}, {"type": "note_on", "time": 0, "note": 65, "velocity": 117, "channel": 0}, {"type": "note_off", "time": 41, "note": 65, "velocity": 117, "channel": 0}, {"type": "note_on", "time": 12, "note": 62, "velocity": 110, "channel": 0}, {"type": "note_off", "time": 48, "note": 62, "velocity": 110, "channel": 0}, {"type": "note_on", "time": 7, "note": 63, "velocity": 109, "channel": 0}, {"type": "note_off", "time": 43, "note": 63, "velocity": 109, "channel": 0}, {"type": "note_on", "time": 5, "note": 62, "velocity": 114, "channel": 0}, {"type": "note_off", "time": 70, "note": 62, "velocity": 114, "channel": 0}, {"type": "note_on", "time": 7, "note": 72, "velocity": 110, "channel": 0}, {"type": "note_off", "time": 68, "note": 72, "velocity": 110, "channel": 0}, {"type": "note_on", "time": 1, "note": 69, "velocity": 112, "channel": 0}, {"type": "note_off", "time": 54, "note": 69, "velocity": 112, "channel": 0}, {"type": "note_on", "time": 16, "note": 65, "velocity": 106, "channel": 0}, {"type": "note_off", "time": 30, "note": 65, "velocity": 106, "channel": 0}, {"type": "note_on", "time": 1, "note": 62, "velocity": 104, "channel": 0}, {"type": "note_off", "time": 48, "note": 62, "velocity": 104, "channel": 0}, {"type": "note_on", "time": 9, "note": 65, "velocity": 102, "channel": 0}, {"type": "note_off", "time": 39, "note": 65, "velocity": 102, "channel": 0}, {"type": "note_on", "time": 9, "note": 72, "velocity": 112, "channel": 0}, {"type": "note_off", "time": 52, "note": 72, "velocity": 112, "channel": 0}, {"type": "note_on", "time": 1, "note": 69, "velocity": 112, "channel": 0}, {"type": "note_off", "time": 63, "note": 69, "velocity": 112, "channel": 0}, {"type": "note_on", "time": 19, "note": 65, "velocity": 103, "channel": 0}, {"type": "note_off", "time": 36, "note": 65, "velocity": 103, "channel": 0}, {"type": "note_on", "time": 0, "note": 62, "velocity": 112, "channel": 0}, {"type": "note_off", "time": 45, "note": 62, "velocity": 112, "channel": 0}, {"type": "note_on", "time": 0, "note": 65, "velocity": 105, "channel": 0}, {"type": "note_off", "time": 52, "note": 65, "velocity": 105, "channel": 0}, {"type": "note_on", "time": 10, "note": 72, "velocity": 112, "channel": 0}, {"type": "note_off", "time": 46, "note": 72, "velocity": 112, "channel": 0}, {"type": "note_on", "time": 12, "note": 69, "velocity": 114, "channel": 0}, {"type": "note_off", "time": 48, "note": 69, "velocity": 114, "channel": 0}, {"type": "note_on", "time": 10, "note": 65, "velocity": 116, "channel": 0}, {"type": "note_off", "time": 43, "note": 65, "velocity": 116, "channel": 0}, {"type": "note_on", "time": 3, "note": 62, "velocity": 114, "channel": 0}, {"type": "note_off", "time": 34, "note": 62, "velocity": 114, "channel": 0}, {"type": "note_on", "time": 7, "note": 63, "velocity": 114, "channel": 0}, {"type": "note_off", "time": 32, "note": 63, "velocity": 114, "channel": 0}, {"type": "note_on", "time": 12, "note": 62, "velocity": 109, "channel": 0}, {"type": "note_off", "time": 79, "note": 62, "velocity": 109, "channel": 0}, {"type": "note_on", "time": 16, "note": 72, "velocity": 105, "channel": 0}, {"type": "note_off", "time": 54, "note": 72, "velocity": 105, "channel": 0}, {"type": "note_on", "time": 28, "note": 69, "velocity": 112, "channel": 0}, {"type": "note_off", "time": 63, "note": 69, "velocity": 112, "channel": 0}, {"type": "note_on", "time": 3, "note": 65, "velocity": 103, "channel": 0}, {"type": "note_off", "time": 37, "note": 65, "velocity": 103, "channel": 0}, {"type": "note_on", "time": 0, "note": 62, "velocity": 111, "channel": 0}, {"type": "note_off", "time": 43, "note": 62, "velocity": 111, "channel": 0}, {"type": "note_on", "time": 3, "note": 63, "velocity": 110, "channel": 0}, {"type": "note_off", "time": 48, "note": 63, "velocity": 110, "channel": 0}, {"type": "note_on", "time": 3, "note": 62, "velocity": 112, "channel": 0}, {"type": "note_off", "time": 79, "note": 62, "velocity": 112, "channel": 0}, {"type": "note_on", "time": 9, "note": 72, "velocity": 113, "channel": 0}, {"type": "note_off", "time": 48, "note": 72, "velocity": 113, "channel": 0}, {"type": "note_on", "time": 7, "note": 69, "velocity": 119, "channel": 0}, {"type": "note_off", "time": 55, "note": 69, "velocity": 119, "channel": 0}, {"type": "note_on", "time": 14, "note": 65, "velocity": 116, "channel": 0}, {"type": "note_on", "time": 36, "note": 62, "velocity": 112, "channel": 0}, {"type": "note_off", "time": 0, "note": 65, "velocity": 116, "channel": 0}, {"type": "note_off", "time": 46, "note": 62, "velocity": 112, "channel": 0}, {"type": "note_on", "time": 14, "note": 63, "velocity": 113, "channel": 0}, {"type": "note_off", "time": 54, "note": 63, "velocity": 113, "channel": 0}, {"type": "note_on", "time": 3, "note": 62, "velocity": 112, "channel": 0}, {"type": "note_off", "time": 55, "note": 62, "velocity": 112, "channel": 0}, {"type": "note_on", "time": 10, "note": 63, "velocity": 109, "channel": 0}, {"type": "note_off", "time": 39, "note": 63, "velocity": 109, "channel": 0}, {"type": "note_on", "time": 9, "note": 62, "velocity": 113, "channel": 0}, {"type": "note_off", "time": 79, "note": 62, "velocity": 113, "channel": 0}, {"type": "note_on", "time": 3, "note": 63, "velocity": 112, "channel": 0}, {"type": "note_off", "time": 52, "note": 63, "velocity": 112, "channel": 0}, {"type": "note_on", "time": 3, "note": 62, "velocity": 107, "channel": 0}, {"type": "note_off", "time": 77, "note": 62, "velocity": 107, "channel": 0}, {"type": "note_on", "time": 5, "note": 72, "velocity": 105, "channel": 0}, {"type": "note_off", "time": 54, "note": 72, "velocity": 105, "channel": 0}, {"type": "note_on", "time": 16, "note": 69, "velocity": 111, "channel": 0}, {"type": "note_off", "time": 50, "note": 69, "velocity": 111, "channel": 0}, {"type": "note_on", "time": 25, "note": 65, "velocity": 109, "channel": 0}, {"type": "note_off", "time": 37, "note": 65, "velocity": 109, "channel": 0}, {"type": "note_on", "time": 0, "note": 62, "velocity": 111, "channel": 0}, {"type": "note_off", "time": 55, "note": 62, "velocity": 111, "channel": 0}, {"type": "note_on", "time": 7, "note": 63, "velocity": 109, "channel": 0}, {"type": "note_off", "time": 68, "note": 63, "velocity": 109, "channel": 0}, {"type": "note_on", "time": 1, "note": 72, "velocity": 107, "channel": 0}, {"type": "note_off", "time": 55, "note": 72, "velocity": 107, "channel": 0}, {"type": "note_on", "time": 10, "note": 69, "velocity": 111, "channel": 0}, {"type": "note_off", "time": 59, "note": 69, "velocity": 111, "channel": 0}, {"type": "note_on", "time": 0, "note": 65, "velocity": 104, "channel": 0}, {"type": "note_off", "time": 50, "note": 65, "velocity": 104, "channel": 0}, {"type": "note_on", "time": 0, "note": 62, "velocity": 110, "channel": 0}, {"type": "note_off", "time": 48, "note": 62, "velocity": 110, "channel": 0}, {"type": "note_on", "time": 0, "note": 63, "velocity": 105, "channel": 0}, {"type": "note_off", "time": 66, "note": 63, "velocity": 105, "channel": 0}, {"type": "note_on", "time": 10, "note": 72, "velocity": 110, "channel": 0}, {"type": "note_off", "time": 48, "note": 72, "velocity": 110, "channel": 0}, {"type": "note_on", "time": 16, "note": 69, "velocity": 112, "channel": 0}, {"type": "note_off", "time": 57, "note": 69, "velocity": 112, "channel": 0}, {"type": "note_on", "time": 18, "note": 65, "velocity": 110, "channel": 0}, {"type": "note_off", "time": 28, "note": 65, "velocity": 110, "channel": 0}, {"type": "note_on", "time": 0, "note": 62, "velocity": 111, "channel": 0}, {"type": "note_off", "time": 46, "note": 62, "velocity": 111, "channel": 0}, {"type": "note_on", "time": 9, "note": 63, "velocity": 103, "channel": 0}, {"type": "note_off", "time": 55, "note": 63, "velocity": 103, "channel": 0}, {"type": "note_on", "time": 0, "note": 72, "velocity": 112, "channel": 0}, {"type": "note_off", "time": 55, "note": 72, "velocity": 112, "channel": 0}, {"type": "note_on", "time": 12, "note": 69, "velocity": 113, "channel": 0}, {"type": "note_off", "time": 50, "note": 69, "velocity": 113, "channel": 0}, {"type": "note_on", "time": 7, "note": 65, "velocity": 111, "channel": 0}, {"type": "note_off", "time": 28, "note": 65, "velocity": 111, "channel": 0}, {"type": "note_on", "time": 7, "note": 62, "velocity": 106, "channel": 0}, {"type": "note_off", "time": 57, "note": 62, "velocity": 106, "channel": 0}, {"type": "note_on", "time": 0, "note": 65, "velocity": 104, "channel": 0}, {"type": "note_off", "time": 19, "note": 65, "velocity": 104, "channel": 0}, {"type": "note_on", "time": 23, "note": 72, "velocity": 110, "channel": 0}, {"type": "note_off", "time": 48, "note": 72, "velocity": 110, "channel": 0}, {"type": "note_on", "time": 14, "note": 69, "velocity": 110, "channel": 0}, {"type": "note_off", "time": 57, "note": 69, "velocity": 110, "channel": 0}, {"type": "note_on", "time": 0, "note": 65, "velocity": 102, "channel": 0}, {"type": "note_off", "time": 30, "note": 65, "velocity": 102, "channel": 0}, {"type": "note_on", "time": 1, "note": 62, "velocity": 105, "channel": 0}, {"type": "note_off", "time": 48, "note": 62, "velocity": 105, "channel": 0}, {"type": "note_on", "time": 0, "note": 63, "velocity": 111, "channel": 0}, {"type": "note_off", "time": 61, "note": 63, "velocity": 111, "channel": 0}, {"type": "note_on", "time": 26, "note": 72, "velocity": 100, "channel": 0}, {"type": "note_off", "time": 54, "note": 72, "velocity": 100, "channel": 0}, {"type": "note_on", "time": 9, "note": 69, "velocity": 98, "channel": 0}, {"type": "note_off", "time": 39, "note": 69, "velocity": 98, "channel": 0}, {"type": "note_on", "time": 6, "note": 65, "velocity": 100, "channel": 0}, {"type": "note_off", "time": 41, "note": 65, "velocity": 100, "channel": 0}, {"type": "note_on", "time": 7, "note": 61, "velocity": 102, "channel": 0}, {"type": "note_off", "time": 50, "note": 61, "velocity": 102, "channel": 0}, {"type": "note_on", "time": 21, "note": 62, "velocity": 106, "channel": 0}, {"type": "note_off", "time": 52, "note": 62, "velocity": 106, "channel": 0}, {"type": "note_on", "time": 0, "note": 61, "velocity": 106, "channel": 0}, {"type": "note_off", "time": 79, "note": 61, "velocity": 106, "channel": 0}, {"type": "note_on", "time": 5, "note": 64, "velocity": 110, "channel": 0}, {"type": "note_off", "time": 39, "note": 64, "velocity": 110, "channel": 0}, {"type": "note_on", "time": 19, "note": 72, "velocity": 111, "channel": 0}, {"type": "note_off", "time": 54, "note": 72, "velocity": 111, "channel": 0}, {"type": "note_on", "time": 19, "note": 68, "velocity": 108, "channel": 0}, {"type": "note_off", "time": 59, "note": 68, "velocity": 108, "channel": 0}, {"type": "note_on", "time": 12, "note": 64, "velocity": 100, "channel": 0}, {"type": "note_off", "time": 32, "note": 64, "velocity": 100, "channel": 0}, {"type": "note_on", "time": 0, "note": 62, "velocity": 108, "channel": 0}, {"type": "note_off", "time": 57, "note": 62, "velocity": 108, "channel": 0}, {"type": "note_on", "time": 14, "note": 63, "velocity": 111, "channel": 0}, {"type": "note_off", "time": 36, "note": 63, "velocity": 111, "channel": 0}, {"type": "note_on", "time": 12, "note": 62, "velocity": 113, "channel": 0}, {"type": "note_off", "time": 57, "note": 62, "velocity": 113, "channel": 0}, {"type": "note_on", "time": 7, "note": 72, "velocity": 110, "channel": 0}, {"type": "note_off", "time": 57, "note": 72, "velocity": 110, "channel": 0}, {"type": "note_on", "time": 10, "note": 68, "velocity": 108, "channel": 0}, {"type": "note_off", "time": 64, "note": 68, "velocity": 108, "channel": 0}, {"type": "note_on", "time": 0, "note": 65, "velocity": 102, "channel": 0}, {"type": "note_off", "time": 54, "note": 65, "velocity": 102, "channel": 0}, {"type": "note_on", "time": 7, "note": 60, "velocity": 109, "channel": 0}, {"type": "note_off", "time": 41, "note": 60, "velocity": 109, "channel": 0}, {"type": "note_on", "time": 9, "note": 61, "velocity": 107, "channel": 0}, {"type": "note_off", "time": 43, "note": 61, "velocity": 107, "channel": 0}, {"type": "note_on", "time": 19, "note": 60, "velocity": 100, "channel": 0}, {"type": "note_off", "time": 36, "note": 60, "velocity": 100, "channel": 0}, {"type": "note_on", "time": 12, "note": 61, "velocity": 99, "channel": 0}, {"type": "note_off", "time": 36, "note": 61, "velocity": 99, "channel": 0}, {"type": "note_on", "time": 9, "note": 60, "velocity": 102, "channel": 0}, {"type": "note_off", "time": 32, "note": 60, "velocity": 102, "channel": 0}, {"type": "note_on", "time": 14, "note": 61, "velocity": 102, "channel": 0}, {"type": "note_off", "time": 43, "note": 61, "velocity": 102, "channel": 0}, {"type": "note_on", "time": 19, "note": 60, "velocity": 99, "channel": 0}, {"type": "note_off", "time": 52, "note": 60, "velocity": 99, "channel": 0}, {"type": "note_on", "time": 10, "note": 61, "velocity": 98, "channel": 0}, {"type": "note_off", "time": 36, "note": 61, "velocity": 98, "channel": 0}, {"type": "note_on", "time": 9, "note": 60, "velocity": 102, "channel": 0}, {"type": "note_off", "time": 104, "note": 60, "velocity": 102, "channel": 0}, {"type": "note_on", "time": 19, "note": 61, "velocity": 104, "channel": 0}, {"type": "note_off", "time": 72, "note": 61, "velocity": 104, "channel": 0}, {"type": "note_on", "time": 10, "note": 60, "velocity": 94, "channel": 0}, {"type": "note_off", "time": 68, "note": 60, "velocity": 94, "channel": 0}, {"type": "note_on", "time": 0, "note": 58, "velocity": 96, "channel": 0}, {"type": "note_off", "time": 54, "note": 58, "velocity": 96, "channel": 0}, {"type": "note_on", "time": 7, "note": 55, "velocity": 100, "channel": 0}, {"type": "note_off", "time": 34, "note": 55, "velocity": 100, "channel": 0}, {"type": "note_on", "time": 0, "note": 64, "velocity": 116, "channel": 0}, {"type": "note_off", "time": 115, "note": 64, "velocity": 116, "channel": 0}, {"type": "note_on", "time": 5, "note": 65, "velocity": 107, "channel": 0}, {"type": "note_off", "time": 86, "note": 65, "velocity": 107, "channel": 0}, {"type": "note_on", "time": 12, "note": 62, "velocity": 83, "channel": 0}, {"type": "note_off", "time": 45, "note": 62, "velocity": 83, "channel": 0}, {"type": "note_on", "time": 19, "note": 64, "velocity": 106, "channel": 0}, {"type": "note_off", "time": 73, "note": 64, "velocity": 106, "channel": 0}, {"type": "note_on", "time": 1, "note": 65, "velocity": 113, "channel": 0}, {"type": "note_off", "time": 144, "note": 65, "velocity": 113, "channel": 0}, {"type": "note_on", "time": 14, "note": 62, "velocity": 92, "channel": 0}, {"type": "note_off", "time": 52, "note": 62, "velocity": 92, "channel": 0}, {"type": "note_on", "time": 10, "note": 64, "velocity": 109, "channel": 0}, {"type": "note_off", "time": 90, "note": 64, "velocity": 109, "channel": 0}, {"type": "note_on", "time": 9, "note": 65, "velocity": 105, "channel": 0}, {"type": "note_off", "time": 144, "note": 65, "velocity": 105, "channel": 0}, {"type": "note_on", "time": 582, "note": 55, "velocity": 102, "channel": 0}, {"type": "note_off", "time": 55, "note": 55, "velocity": 102, "channel": 0}, {"type": "note_on", "time": 7, "note": 57, "velocity": 98, "channel": 0}, {"type": "note_off", "time": 43, "note": 57, "velocity": 98, "channel": 0}, {"type": "note_on", "time": 27, "note": 64, "velocity": 115, "channel": 0}, {"type": "note_off", "time": 117, "note": 64, "velocity": 115, "channel": 0}, {"type": "note_on", "time": 63, "note": 65, "velocity": 113, "channel": 0}, {"type": "note_off", "time": 151, "note": 65, "velocity": 113, "channel": 0}, {"type": "note_on", "time": 27, "note": 63, "velocity": 113, "channel": 0}, {"type": "note_off", "time": 133, "note": 63, "velocity": 113, "channel": 0}, {"type": "note_on", "time": 16, "note": 65, "velocity": 110, "channel": 0}, {"type": "note_off", "time": 79, "note": 65, "velocity": 110, "channel": 0}, {"type": "note_on", "time": 68, "note": 64, "velocity": 118, "channel": 0}, {"type": "note_off", "time": 106, "note": 64, "velocity": 118, "channel": 0}, {"type": "note_on", "time": 73, "note": 65, "velocity": 114, "channel": 0}, {"type": "note_off", "time": 108, "note": 65, "velocity": 114, "channel": 0}, {"type": "note_on", "time": 57, "note": 56, "velocity": 98, "channel": 0}, {"type": "note_off", "time": 52, "note": 56, "velocity": 98, "channel": 0}, {"type": "note_on", "time": 7, "note": 59, "velocity": 87, "channel": 0}, {"type": "note_off", "time": 43, "note": 59, "velocity": 87, "channel": 0}, {"type": "note_on", "time": 32, "note": 63, "velocity": 110, "channel": 0}, {"type": "note_off", "time": 129, "note": 63, "velocity": 110, "channel": 0}, {"type": "note_on", "time": 39, "note": 65, "velocity": 109, "channel": 0}, {"type": "note_off", "time": 115, "note": 65, "velocity": 109, "channel": 0}, {"type": "note_on", "time": 7, "note": 61, "velocity": 91, "channel": 0}, {"type": "note_off", "time": 36, "note": 61, "velocity": 91, "channel": 0}, {"type": "note_on", "time": 12, "note": 64, "velocity": 119, "channel": 0}, {"type": "note_off", "time": 124, "note": 64, "velocity": 119, "channel": 0}, {"type": "note_on", "time": 54, "note": 65, "velocity": 114, "channel": 0}, {"type": "note_off", "time": 66, "note": 65, "velocity": 114, "channel": 0}, {"type": "note_on", "time": 81, "note": 63, "velocity": 107, "channel": 0}, {"type": "note_off", "time": 109, "note": 63, "velocity": 107, "channel": 0}, {"type": "note_on", "time": 64, "note": 65, "velocity": 108, "channel": 0}, {"type": "note_off", "time": 72, "note": 65, "velocity": 108, "channel": 0}, {"type": "note_on", "time": 111, "note": 64, "velocity": 117, "channel": 0}, {"type": "note_off", "time": 122, "note": 64, "velocity": 117, "channel": 0}, {"type": "note_on", "time": 63, "note": 65, "velocity": 109, "channel": 0}, {"type": "note_off", "time": 111, "note": 65, "velocity": 109, "channel": 0}, {"type": "note_on", "time": 171, "note": 63, "velocity": 112, "channel": 0}, {"type": "note_off", "time": 109, "note": 63, "velocity": 112, "channel": 0}, {"type": "note_on", "time": 81, "note": 65, "velocity": 109, "channel": 0}, {"type": "note_off", "time": 120, "note": 65, "velocity": 109, "channel": 0}, {"type": "note_on", "time": 82, "note": 68, "velocity": 118, "channel": 0}, {"type": "note_off", "time": 99, "note": 68, "velocity": 118, "channel": 0}, {"type": "note_on", "time": 50, "note": 69, "velocity": 111, "channel": 0}, {"type": "note_off", "time": 61, "note": 69, "velocity": 111, "channel": 0}, {"type": "note_on", "time": 95, "note": 65, "velocity": 115, "channel": 0}, {"type": "note_off", "time": 104, "note": 65, "velocity": 115, "channel": 0}, {"type": "note_on", "time": 63, "note": 60, "velocity": 96, "channel": 0}, {"type": "note_off", "time": 64, "note": 60, "velocity": 96, "channel": 0}, {"type": "note_on", "time": 7, "note": 63, "velocity": 110, "channel": 0}, {"type": "note_off", "time": 136, "note": 63, "velocity": 110, "channel": 0}, {"type": "note_on", "time": 18, "note": 65, "velocity": 111, "channel": 0}, {"type": "note_off", "time": 73, "note": 65, "velocity": 111, "channel": 0}, {"type": "note_on", "time": 349, "note": 67, "velocity": 112, "channel": 0}, {"type": "note_off", "time": 144, "note": 67, "velocity": 112, "channel": 0}, {"type": "note_on", "time": 0, "note": 68, "velocity": 108, "channel": 0}, {"type": "note_off", "time": 68, "note": 68, "velocity": 108, "channel": 0}, {"type": "note_on", "time": 10, "note": 65, "velocity": 105, "channel": 0}, {"type": "note_off", "time": 93, "note": 65, "velocity": 105, "channel": 0}, {"type": "note_on", "time": 19, "note": 60, "velocity": 92, "channel": 0}, {"type": "note_off", "time": 41, "note": 60, "velocity": 92, "channel": 0}, {"type": "note_on", "time": 23, "note": 63, "velocity": 109, "channel": 0}, {"type": "note_off", "time": 108, "note": 63, "velocity": 109, "channel": 0}, {"type": "note_on", "time": 43, "note": 65, "velocity": 109, "channel": 0}, {"type": "note_off", "time": 75, "note": 65, "velocity": 109, "channel": 0}, {"type": "note_on", "time": 84, "note": 67, "velocity": 113, "channel": 0}, {"type": "note_off", "time": 82, "note": 67, "velocity": 113, "channel": 0}, {"type": "note_on", "time": 115, "note": 68, "velocity": 9, "channel": 0}, {"type": "note_off", "time": 79, "note": 68, "velocity": 9, "channel": 0}, {"type": "note_on", "time": 7, "note": 65, "velocity": 110, "channel": 0}, {"type": "note_off", "time": 63, "note": 65, "velocity": 110, "channel": 0}, {"type": "note_on", "time": 5, "note": 61, "velocity": 111, "channel": 0}, {"type": "note_off", "time": 79, "note": 61, "velocity": 111, "channel": 0}, {"type": "note_on", "time": 34, "note": 63, "velocity": 116, "channel": 0}, {"type": "note_off", "time": 50, "note": 63, "velocity": 116, "channel": 0}, {"type": "note_on", "time": 9, "note": 65, "velocity": 107, "channel": 0}, {"type": "note_off", "time": 66, "note": 65, "velocity": 107, "channel": 0}, {"type": "note_on", "time": 27, "note": 68, "velocity": 112, "channel": 0}, {"type": "note_off", "time": 84, "note": 68, "velocity": 112, "channel": 0}, {"type": "note_on", "time": 23, "note": 69, "velocity": 115, "channel": 0}, {"type": "note_off", "time": 37, "note": 69, "velocity": 115, "channel": 0}, {"type": "note_on", "time": 14, "note": 69, "velocity": 108, "channel": 0}, {"type": "note_off", "time": 43, "note": 69, "velocity": 108, "channel": 0}, {"type": "note_on", "time": 18, "note": 66, "velocity": 109, "channel": 0}, {"type": "note_off", "time": 90, "note": 66, "velocity": 109, "channel": 0}, {"type": "note_on", "time": 1, "note": 61, "velocity": 99, "channel": 0}, {"type": "note_off", "time": 55, "note": 61, "velocity": 99, "channel": 0}, {"type": "note_on", "time": 895, "note": 64, "velocity": 111, "channel": 0}, {"type": "note_off", "time": 86, "note": 64, "velocity": 111, "channel": 0}, {"type": "note_on", "time": 12, "note": 67, "velocity": 120, "channel": 0}, {"type": "note_off", "time": 90, "note": 67, "velocity": 120, "channel": 0}, {"type": "note_on", "time": 23, "note": 68, "velocity": 119, "channel": 0}, {"type": "note_off", "time": 79, "note": 68, "velocity": 119, "channel": 0}, {"type": "note_on", "time": 3, "note": 65, "velocity": 114, "channel": 0}, {"type": "note_off", "time": 88, "note": 65, "velocity": 114, "channel": 0}, {"type": "note_on", "time": 0, "note": 61, "velocity": 101, "channel": 0}, {"type": "note_off", "time": 82, "note": 61, "velocity": 101, "channel": 0}, {"type": "note_on", "time": 14, "note": 65, "velocity": 116, "channel": 0}, {"type": "note_off", "time": 32, "note": 65, "velocity": 116, "channel": 0}, {"type": "note_on", "time": 16, "note": 66, "velocity": 112, "channel": 0}, {"type": "note_off", "time": 61, "note": 66, "velocity": 112, "channel": 0}, {"type": "note_on", "time": 27, "note": 67, "velocity": 114, "channel": 0}, {"type": "note_off", "time": 63, "note": 67, "velocity": 114, "channel": 0}, {"type": "note_on", "time": 3, "note": 64, "velocity": 120, "channel": 0}, {"type": "note_off", "time": 68, "note": 64, "velocity": 120, "channel": 0}, {"type": "note_on", "time": 19, "note": 63, "velocity": 111, "channel": 0}, {"type": "note_off", "time": 82, "note": 63, "velocity": 111, "channel": 0}, {"type": "note_on", "time": 12, "note": 64, "velocity": 122, "channel": 0}, {"type": "note_off", "time": 82, "note": 64, "velocity": 122, "channel": 0}, {"type": "note_on", "time": 34, "note": 67, "velocity": 105, "channel": 0}, {"type": "note_off", "time": 77, "note": 67, "velocity": 105, "channel": 0}, {"type": "note_on", "time": 0, "note": 62, "velocity": 114, "channel": 0}, {"type": "note_on", "time": 120, "note": 59, "velocity": 100, "channel": 0}, {"type": "note_off", "time": 0, "note": 62, "velocity": 114, "channel": 0}, {"type": "note_off", "time": 48, "note": 59, "velocity": 100, "channel": 0}, {"type": "note_on", "time": 5, "note": 63, "velocity": 116, "channel": 0}, {"type": "note_off", "time": 90, "note": 63, "velocity": 116, "channel": 0}, {"type": "note_on", "time": 16, "note": 64, "velocity": 113, "channel": 0}, {"type": "note_off", "time": 84, "note": 64, "velocity": 113, "channel": 0}, {"type": "note_on", "time": 7, "note": 61, "velocity": 107, "channel": 0}, {"type": "note_off", "time": 126, "note": 61, "velocity": 107, "channel": 0}, {"type": "note_on", "time": 55, "note": 61, "velocity": 110, "channel": 0}, {"type": "note_off", "time": 88, "note": 61, "velocity": 110, "channel": 0}, {"type": "note_on", "time": 12, "note": 62, "velocity": 106, "channel": 0}, {"type": "note_off", "time": 104, "note": 62, "velocity": 106, "channel": 0}, {"type": "note_on", "time": 5, "note": 59, "velocity": 103, "channel": 0}, {"type": "note_off", "time": 84, "note": 59, "velocity": 103, "channel": 0}, {"type": "note_on", "time": 81, "note": 59, "velocity": 104, "channel": 0}, {"type": "note_off", "time": 84, "note": 59, "velocity": 104, "channel": 0}, {"type": "note_on", "time": 23, "note": 60, "velocity": 109, "channel": 0}, {"type": "note_off", "time": 77, "note": 60, "velocity": 109, "channel": 0}, {"type": "note_on", "time": 5, "note": 57, "velocity": 108, "channel": 0}, {"type": "note_off", "time": 88, "note": 57, "velocity": 108, "channel": 0}, {"type": "note_on", "time": 84, "note": 57, "velocity": 112, "channel": 0}, {"type": "note_off", "time": 93, "note": 57, "velocity": 112, "channel": 0}, {"type": "note_on", "time": 41, "note": 58, "velocity": 103, "channel": 0}, {"type": "note_off", "time": 72, "note": 58, "velocity": 103, "channel": 0}, {"type": "note_on", "time": 27, "note": 55, "velocity": 104, "channel": 0}, {"type": "note_off", "time": 61, "note": 55, "velocity": 104, "channel": 0}, {"type": "note_on", "time": 19, "note": 51, "velocity": 100, "channel": 0}, {"type": "note_off", "time": 48, "note": 51, "velocity": 100, "channel": 0}, {"type": "note_on", "time": 21, "note": 55, "velocity": 112, "channel": 0}, {"type": "note_off", "time": 109, "note": 55, "velocity": 112, "channel": 0}, {"type": "note_on", "time": 19, "note": 57, "velocity": 104, "channel": 0}, {"type": "note_off", "time": 61, "note": 57, "velocity": 104, "channel": 0}, {"type": "note_on", "time": 29, "note": 53, "velocity": 107, "channel": 0}, {"type": "note_off", "time": 46, "note": 53, "velocity": 107, "channel": 0}, {"type": "note_on", "time": 10, "note": 50, "velocity": 109, "channel": 0}, {"type": "note_off", "time": 91, "note": 50, "velocity": 109, "channel": 0}, {"type": "note_on", "time": 12, "note": 54, "velocity": 110, "channel": 0}, {"type": "note_off", "time": 107, "note": 54, "velocity": 110, "channel": 0}, {"type": "note_on", "time": 11, "note": 55, "velocity": 107, "channel": 0}, {"type": "note_off", "time": 52, "note": 55, "velocity": 107, "channel": 0}, {"type": "note_on", "time": 23, "note": 52, "velocity": 110, "channel": 0}, {"type": "note_off", "time": 84, "note": 52, "velocity": 110, "channel": 0}, {"type": "note_on", "time": 23, "note": 49, "velocity": 107, "channel": 0}, {"type": "note_off", "time": 65, "note": 49, "velocity": 107, "channel": 0}, {"type": "note_on", "time": 5, "note": 48, "velocity": 108, "channel": 0}, {"type": "note_off", "time": 103, "note": 48, "velocity": 108, "channel": 0}, {"type": "note_on", "time": 412, "note": 48, "velocity": 116, "channel": 0}, {"type": "note_off", "time": 96, "note": 48, "velocity": 116, "channel": 0}, {"type": "note_on", "time": 56, "note": 55, "velocity": 114, "channel": 0}, {"type": "note_off", "time": 78, "note": 55, "velocity": 114, "channel": 0}, {"type": "note_on", "time": 17, "note": 53, "velocity": 112, "channel": 0}, {"type": "note_off", "time": 60, "note": 53, "velocity": 112, "channel": 0}, {"type": "note_on", "time": 6, "note": 52, "velocity": 105, "channel": 0}, {"type": "note_off", "time": 71, "note": 52, "velocity": 105, "channel": 0}, {"type": "note_on", "time": 33, "note": 53, "velocity": 110, "channel": 0}, {"type": "note_off", "time": 67, "note": 53, "velocity": 110, "channel": 0}, {"type": "note_on", "time": 24, "note": 55, "velocity": 103, "channel": 0}, {"type": "note_off", "time": 58, "note": 55, "velocity": 103, "channel": 0}, {"type": "note_on", "time": 23, "note": 57, "velocity": 115, "channel": 0}, {"type": "note_off", "time": 79, "note": 57, "velocity": 115, "channel": 0}, {"type": "note_on", "time": 21, "note": 58, "velocity": 104, "channel": 0}, {"type": "note_off", "time": 70, "note": 58, "velocity": 104, "channel": 0}, {"type": "note_on", "time": 16, "note": 60, "velocity": 109, "channel": 0}, {"type": "note_off", "time": 84, "note": 60, "velocity": 109, "channel": 0}, {"type": "note_on", "time": 7, "note": 62, "velocity": 119, "channel": 0}, {"type": "note_off", "time": 92, "note": 62, "velocity": 119, "channel": 0}, {"type": "note_on", "time": 2, "note": 63, "velocity": 116, "channel": 0}, {"type": "note_off", "time": 83, "note": 63, "velocity": 116, "channel": 0}, {"type": "note_on", "time": 23, "note": 65, "velocity": 104, "channel": 0}, {"type": "note_off", "time": 67, "note": 65, "velocity": 104, "channel": 0}, {"type": "note_on", "time": 0, "note": 67, "velocity": 115, "channel": 0}, {"type": "note_off", "time": 103, "note": 67, "velocity": 115, "channel": 0}, {"type": "note_on", "time": 19, "note": 63, "velocity": 110, "channel": 0}, {"type": "note_off", "time": 60, "note": 63, "velocity": 110, "channel": 0}, {"type": "note_on", "time": 10, "note": 65, "velocity": 114, "channel": 0}, {"type": "note_on", "time": 106, "note": 67, "velocity": 100, "channel": 0}, {"type": "note_off", "time": 0, "note": 65, "velocity": 114, "channel": 0}, {"type": "note_off", "time": 76, "note": 67, "velocity": 100, "channel": 0}, {"type": "note_on", "time": 14, "note": 69, "velocity": 115, "channel": 0}, {"type": "note_off", "time": 98, "note": 69, "velocity": 115, "channel": 0}, {"type": "note_on", "time": 21, "note": 65, "velocity": 108, "channel": 0}, {"type": "note_off", "time": 55, "note": 65, "velocity": 108, "channel": 0}, {"type": "note_on", "time": 6, "note": 67, "velocity": 113, "channel": 0}, {"type": "note_off", "time": 117, "note": 67, "velocity": 113, "channel": 0}, {"type": "note_on", "time": 3, "note": 65, "velocity": 114, "channel": 0}, {"type": "note_off", "time": 24, "note": 65, "velocity": 114, "channel": 0}, {"type": "note_on", "time": 0, "note": 63, "velocity": 113, "channel": 0}, {"type": "note_off", "time": 37, "note": 63, "velocity": 113, "channel": 0}, {"type": "note_on", "time": 8, "note": 60, "velocity": 102, "channel": 0}, {"type": "note_off", "time": 58, "note": 60, "velocity": 102, "channel": 0}, {"type": "note_on", "time": 64, "note": 65, "velocity": 122, "channel": 0}, {"type": "note_off", "time": 80, "note": 65, "velocity": 122, "channel": 0}, {"type": "note_on", "time": 23, "note": 63, "velocity": 115, "channel": 0}, {"type": "note_off", "time": 74, "note": 63, "velocity": 115, "channel": 0}, {"type": "note_on", "time": 24, "note": 60, "velocity": 106, "channel": 0}, {"type": "note_off", "time": 64, "note": 60, "velocity": 106, "channel": 0}, {"type": "note_on", "time": 1, "note": 58, "velocity": 105, "channel": 0}, {"type": "note_off", "time": 66, "note": 58, "velocity": 105, "channel": 0}, {"type": "note_on", "time": 26, "note": 56, "velocity": 103, "channel": 0}, {"type": "note_off", "time": 70, "note": 56, "velocity": 103, "channel": 0}, {"type": "note_on", "time": 2, "note": 62, "velocity": 112, "channel": 0}, {"type": "note_off", "time": 93, "note": 62, "velocity": 112, "channel": 0}, {"type": "note_on", "time": 21, "note": 61, "velocity": 102, "channel": 0}, {"type": "note_off", "time": 71, "note": 61, "velocity": 102, "channel": 0}, {"type": "note_on", "time": 6, "note": 60, "velocity": 103, "channel": 0}, {"type": "note_off", "time": 83, "note": 60, "velocity": 103, "channel": 0}, {"type": "note_on", "time": 7, "note": 59, "velocity": 102, "channel": 0}, {"type": "note_off", "time": 82, "note": 59, "velocity": 102, "channel": 0}, {"type": "note_on", "time": 21, "note": 58, "velocity": 101, "channel": 0}, {"type": "note_off", "time": 79, "note": 58, "velocity": 101, "channel": 0}, {"type": "note_on", "time": 11, "note": 60, "velocity": 107, "channel": 0}, {"type": "note_off", "time": 79, "note": 60, "velocity": 107, "channel": 0}, {"type": "note_on", "time": 4, "note": 62, "velocity": 103, "channel": 0}, {"type": "note_off", "time": 41, "note": 62, "velocity": 103, "channel": 0}, {"type": "note_on", "time": 8, "note": 65, "velocity": 101, "channel": 0}, {"type": "note_off", "time": 73, "note": 65, "velocity": 101, "channel": 0}, {"type": "note_on", "time": 25, "note": 69, "velocity": 114, "channel": 0}, {"type": "note_off", "time": 108, "note": 69, "velocity": 114, "channel": 0}, {"type": "note_on", "time": 7, "note": 73, "velocity": 115, "channel": 0}, {"type": "note_off", "time": 80, "note": 73, "velocity": 115, "channel": 0}, {"type": "note_on", "time": 0, "note": 71, "velocity": 113, "channel": 0}, {"type": "note_off", "time": 102, "note": 71, "velocity": 113, "channel": 0}, {"type": "note_on", "time": 14, "note": 69, "velocity": 115, "channel": 0}, {"type": "note_off", "time": 69, "note": 69, "velocity": 115, "channel": 0}, {"type": "note_on", "time": 7, "note": 68, "velocity": 113, "channel": 0}, {"type": "note_off", "time": 107, "note": 68, "velocity": 113, "channel": 0}, {"type": "note_on", "time": 10, "note": 66, "velocity": 110, "channel": 0}, {"type": "note_off", "time": 71, "note": 66, "velocity": 110, "channel": 0}, {"type": "note_on", "time": 11, "note": 64, "velocity": 117, "channel": 0}, {"type": "note_off", "time": 93, "note": 64, "velocity": 117, "channel": 0}, {"type": "note_on", "time": 26, "note": 61, "velocity": 105, "channel": 0}, {"type": "note_off", "time": 70, "note": 61, "velocity": 105, "channel": 0}, {"type": "note_on", "time": 14, "note": 59, "velocity": 102, "channel": 0}, {"type": "note_off", "time": 73, "note": 59, "velocity": 102, "channel": 0}, {"type": "note_on", "time": 105, "note": 62, "velocity": 113, "channel": 0}, {"type": "note_off", "time": 96, "note": 62, "velocity": 113, "channel": 0}, {"type": "note_on", "time": 2, "note": 66, "velocity": 108, "channel": 0}, {"type": "note_off", "time": 55, "note": 66, "velocity": 108, "channel": 0}, {"type": "note_on", "time": 33, "note": 65, "velocity": 109, "channel": 0}, {"type": "note_off", "time": 115, "note": 65, "velocity": 109, "channel": 0}, {"type": "note_on", "time": 16, "note": 61, "velocity": 106, "channel": 0}, {"type": "note_off", "time": 97, "note": 61, "velocity": 106, "channel": 0}, {"type": "note_on", "time": 184, "note": 63, "velocity": 113, "channel": 0}, {"type": "note_off", "time": 130, "note": 63, "velocity": 113, "channel": 0}, {"type": "note_on", "time": 226, "note": 63, "velocity": 117, "channel": 0}, {"type": "note_off", "time": 114, "note": 63, "velocity": 117, "channel": 0}, {"type": "note_on", "time": 7, "note": 65, "velocity": 105, "channel": 0}, {"type": "note_off", "time": 76, "note": 65, "velocity": 105, "channel": 0}, {"type": "note_on", "time": 2, "note": 67, "velocity": 113, "channel": 0}, {"type": "note_off", "time": 101, "note": 67, "velocity": 113, "channel": 0}, {"type": "note_on", "time": 20, "note": 63, "velocity": 112, "channel": 0}, {"type": "note_off", "time": 73, "note": 63, "velocity": 112, "channel": 0}, {"type": "note_on", "time": 0, "note": 65, "velocity": 107, "channel": 0}, {"type": "note_off", "time": 101, "note": 65, "velocity": 107, "channel": 0}, {"type": "note_on", "time": 15, "note": 61, "velocity": 99, "channel": 0}, {"type": "note_off", "time": 52, "note": 61, "velocity": 99, "channel": 0}, {"type": "note_on", "time": 12, "note": 58, "velocity": 108, "channel": 0}, {"type": "note_off", "time": 53, "note": 58, "velocity": 108, "channel": 0}, {"type": "note_on", "time": 32, "note": 60, "velocity": 107, "channel": 0}, {"type": "note_off", "time": 137, "note": 60, "velocity": 107, "channel": 0}, {"type": "note_on", "time": 640, "note": 72, "velocity": 108, "channel": 0}, {"type": "note_off", "time": 290, "note": 72, "velocity": 108, "channel": 0}, {"type": "note_on", "time": 32, "note": 69, "velocity": 107, "channel": 0}, {"type": "note_off", "time": 76, "note": 69, "velocity": 107, "channel": 0}, {"type": "note_on", "time": 16, "note": 70, "velocity": 114, "channel": 0}, {"type": "note_off", "time": 85, "note": 70, "velocity": 114, "channel": 0}, {"type": "note_on", "time": 24, "note": 65, "velocity": 116, "channel": 0}, {"type": "note_off", "time": 116, "note": 65, "velocity": 116, "channel": 0}, {"type": "note_on", "time": 64, "note": 65, "velocity": 114, "channel": 0}, {"type": "note_off", "time": 58, "note": 65, "velocity": 114, "channel": 0}, {"type": "note_on", "time": 30, "note": 70, "velocity": 113, "channel": 0}, {"type": "note_off", "time": 111, "note": 70, "velocity": 113, "channel": 0}, {"type": "note_on", "time": 6, "note": 68, "velocity": 117, "channel": 0}, {"type": "note_off", "time": 85, "note": 68, "velocity": 117, "channel": 0}, {"type": "note_on", "time": 7, "note": 65, "velocity": 110, "channel": 0}, {"type": "note_off", "time": 105, "note": 65, "velocity": 110, "channel": 0}, {"type": "note_on", "time": 74, "note": 68, "velocity": 116, "channel": 0}, {"type": "note_off", "time": 102, "note": 68, "velocity": 116, "channel": 0}, {"type": "note_on", "time": 21, "note": 65, "velocity": 114, "channel": 0}, {"type": "note_off", "time": 53, "note": 65, "velocity": 114, "channel": 0}, {"type": "note_on", "time": 1, "note": 61, "velocity": 112, "channel": 0}, {"type": "note_off", "time": 75, "note": 61, "velocity": 112, "channel": 0}, {"type": "note_on", "time": 43, "note": 60, "velocity": 112, "channel": 0}, {"type": "note_off", "time": 55, "note": 60, "velocity": 112, "channel": 0}, {"type": "note_on", "time": 25, "note": 65, "velocity": 111, "channel": 0}, {"type": "note_off", "time": 115, "note": 65, "velocity": 111, "channel": 0}, {"type": "note_on", "time": 15, "note": 61, "velocity": 108, "channel": 0}, {"type": "note_off", "time": 48, "note": 61, "velocity": 108, "channel": 0}, {"type": "note_on", "time": 10, "note": 58, "velocity": 103, "channel": 0}, {"type": "note_off", "time": 83, "note": 58, "velocity": 103, "channel": 0}, {"type": "note_on", "time": 37, "note": 55, "velocity": 113, "channel": 0}, {"type": "note_off", "time": 55, "note": 55, "velocity": 113, "channel": 0}, {"type": "note_on", "time": 17, "note": 53, "velocity": 109, "channel": 0}, {"type": "note_off", "time": 101, "note": 53, "velocity": 109, "channel": 0}, {"type": "note_on", "time": 2, "note": 51, "velocity": 107, "channel": 0}, {"type": "note_off", "time": 55, "note": 51, "velocity": 107, "channel": 0}, {"type": "note_on", "time": 0, "note": 46, "velocity": 103, "channel": 0}, {"type": "note_off", "time": 111, "note": 46, "velocity": 103, "channel": 0}, {"type": "note_on", "time": 815, "note": 45, "velocity": 113, "channel": 0}, {"type": "note_off", "time": 80, "note": 45, "velocity": 113, "channel": 0}, {"type": "note_on", "time": 23, "note": 47, "velocity": 111, "channel": 0}, {"type": "note_off", "time": 79, "note": 47, "velocity": 111, "channel": 0}, {"type": "note_on", "time": 971, "note": 48, "velocity": 117, "channel": 0}, {"type": "note_off", "time": 125, "note": 48, "velocity": 117, "channel": 0}, {"type": "note_on", "time": 0, "note": 50, "velocity": 106, "channel": 0}, {"type": "note_off", "time": 69, "note": 50, "velocity": 106, "channel": 0}, {"type": "note_on", "time": 2, "note": 52, "velocity": 106, "channel": 0}, {"type": "note_off", "time": 111, "note": 52, "velocity": 106, "channel": 0}, {"type": "note_on", "time": 30, "note": 55, "velocity": 112, "channel": 0}, {"type": "note_off", "time": 60, "note": 55, "velocity": 112, "channel": 0}, {"type": "note_on", "time": 0, "note": 53, "velocity": 109, "channel": 0}, {"type": "note_off", "time": 115, "note": 53, "velocity": 109, "channel": 0}, {"type": "note_on", "time": 14, "note": 55, "velocity": 102, "channel": 0}, {"type": "note_off", "time": 62, "note": 55, "velocity": 102, "channel": 0}, {"type": "note_on", "time": 7, "note": 57, "velocity": 108, "channel": 0}, {"type": "note_off", "time": 103, "note": 57, "velocity": 108, "channel": 0}, {"type": "note_on", "time": 8, "note": 53, "velocity": 103, "channel": 0}, {"type": "note_off", "time": 52, "note": 53, "velocity": 103, "channel": 0}, {"type": "note_on", "time": 5, "note": 58, "velocity": 110, "channel": 0}, {"type": "note_off", "time": 107, "note": 58, "velocity": 110, "channel": 0}, {"type": "note_on", "time": 15, "note": 60, "velocity": 105, "channel": 0}, {"type": "note_off", "time": 71, "note": 60, "velocity": 105, "channel": 0}, {"type": "note_on", "time": 15, "note": 62, "velocity": 116, "channel": 0}, {"type": "note_off", "time": 85, "note": 62, "velocity": 116, "channel": 0}, {"type": "note_on", "time": 0, "note": 65, "velocity": 117, "channel": 0}, {"type": "note_off", "time": 92, "note": 65, "velocity": 117, "channel": 0}, {"type": "note_on", "time": 6, "note": 63, "velocity": 121, "channel": 0}, {"type": "note_off", "time": 94, "note": 63, "velocity": 121, "channel": 0}, {"type": "note_on", "time": 19, "note": 65, "velocity": 99, "channel": 0}, {"type": "note_off", "time": 116, "note": 65, "velocity": 99, "channel": 0}, {"type": "note_on", "time": 143, "note": 72, "velocity": 121, "channel": 0}, {"type": "note_off", "time": 61, "note": 72, "velocity": 121, "channel": 0}, {"type": "note_on", "time": 0, "note": 73, "velocity": 117, "channel": 0}, {"type": "note_off", "time": 49, "note": 73, "velocity": 117, "channel": 0}, {"type": "note_on", "time": 0, "note": 74, "velocity": 105, "channel": 0}, {"type": "note_off", "time": 49, "note": 74, "velocity": 105, "channel": 0}, {"type": "note_on", "time": 11, "note": 73, "velocity": 105, "channel": 0}, {"type": "note_on", "time": 37, "note": 71, "velocity": 115, "channel": 0}, {"type": "note_off", "time": 0, "note": 73, "velocity": 105, "channel": 0}, {"type": "note_off", "time": 82, "note": 71, "velocity": 115, "channel": 0}, {"type": "note_on", "time": 0, "note": 69, "velocity": 118, "channel": 0}, {"type": "note_off", "time": 115, "note": 69, "velocity": 118, "channel": 0}, {"type": "note_on", "time": 8, "note": 68, "velocity": 115, "channel": 0}, {"type": "note_off", "time": 85, "note": 68, "velocity": 115, "channel": 0}, {"type": "note_on", "time": 26, "note": 66, "velocity": 118, "channel": 0}, {"type": "note_off", "time": 57, "note": 66, "velocity": 118, "channel": 0}, {"type": "note_on", "time": 20, "note": 64, "velocity": 123, "channel": 0}, {"type": "note_off", "time": 97, "note": 64, "velocity": 123, "channel": 0}, {"type": "note_on", "time": 1, "note": 63, "velocity": 120, "channel": 0}, {"type": "note_off", "time": 60, "note": 63, "velocity": 120, "channel": 0}, {"type": "note_on", "time": 6, "note": 62, "velocity": 119, "channel": 0}, {"type": "note_off", "time": 101, "note": 62, "velocity": 119, "channel": 0}, {"type": "note_on", "time": 25, "note": 61, "velocity": 111, "channel": 0}, {"type": "note_off", "time": 55, "note": 61, "velocity": 111, "channel": 0}, {"type": "note_on", "time": 20, "note": 59, "velocity": 101, "channel": 0}, {"type": "note_off", "time": 87, "note": 59, "velocity": 101, "channel": 0}, {"type": "note_on", "time": 26, "note": 62, "velocity": 107, "channel": 0}, {"type": "note_off", "time": 43, "note": 62, "velocity": 107, "channel": 0}, {"type": "note_on", "time": 35, "note": 64, "velocity": 98, "channel": 0}, {"type": "note_off", "time": 64, "note": 64, "velocity": 98, "channel": 0}, {"type": "note_on", "time": 0, "note": 69, "velocity": 106, "channel": 0}, {"type": "note_off", "time": 93, "note": 69, "velocity": 106, "channel": 0}, {"type": "note_on", "time": 0, "note": 66, "velocity": 96, "channel": 0}, {"type": "note_off", "time": 151, "note": 66, "velocity": 96, "channel": 0}, {"type": "note_on", "time": 2, "note": 67, "velocity": 101, "channel": 0}, {"type": "note_off", "time": 47, "note": 67, "velocity": 101, "channel": 0}, {"type": "note_on", "time": 2, "note": 68, "velocity": 119, "channel": 0}, {"type": "note_off", "time": 102, "note": 68, "velocity": 119, "channel": 0}, {"type": "note_on", "time": 6, "note": 66, "velocity": 110, "channel": 0}, {"type": "note_off", "time": 61, "note": 66, "velocity": 110, "channel": 0}, {"type": "note_on", "time": 12, "note": 61, "velocity": 105, "channel": 0}, {"type": "note_off", "time": 103, "note": 61, "velocity": 105, "channel": 0}, {"type": "note_on", "time": 21, "note": 58, "velocity": 98, "channel": 0}, {"type": "note_off", "time": 44, "note": 58, "velocity": 98, "channel": 0}, {"type": "note_on", "time": 12, "note": 61, "velocity": 110, "channel": 0}, {"type": "note_off", "time": 123, "note": 61, "velocity": 110, "channel": 0}, {"type": "note_on", "time": 17, "note": 60, "velocity": 114, "channel": 0}, {"type": "note_off", "time": 64, "note": 60, "velocity": 114, "channel": 0}, {"type": "note_on", "time": 28, "note": 56, "velocity": 109, "channel": 0}, {"type": "note_off", "time": 93, "note": 56, "velocity": 109, "channel": 0}, {"type": "note_on", "time": 51, "note": 60, "velocity": 110, "channel": 0}, {"type": "note_off", "time": 143, "note": 60, "velocity": 110, "channel": 0}, {"type": "note_on", "time": 285, "note": 60, "velocity": 109, "channel": 0}, {"type": "note_off", "time": 85, "note": 60, "velocity": 109, "channel": 0}, {"type": "note_on", "time": 12, "note": 57, "velocity": 106, "channel": 0}, {"type": "note_off", "time": 80, "note": 57, "velocity": 106, "channel": 0}, {"type": "note_on", "time": 5, "note": 53, "velocity": 101, "channel": 0}, {"type": "note_off", "time": 94, "note": 53, "velocity": 101, "channel": 0}, {"type": "note_on", "time": 5, "note": 50, "velocity": 100, "channel": 0}, {"type": "note_off", "time": 62, "note": 50, "velocity": 100, "channel": 0}, {"type": "note_on", "time": 4, "note": 59, "velocity": 105, "channel": 0}, {"type": "note_off", "time": 89, "note": 59, "velocity": 105, "channel": 0}, {"type": "note_on", "time": 6, "note": 55, "velocity": 101, "channel": 0}, {"type": "note_off", "time": 75, "note": 55, "velocity": 101, "channel": 0}, {"type": "note_on", "time": 14, "note": 52, "velocity": 105, "channel": 0}, {"type": "note_off", "time": 99, "note": 52, "velocity": 105, "channel": 0}, {"type": "note_on", "time": 7, "note": 48, "velocity": 103, "channel": 0}, {"type": "note_off", "time": 53, "note": 48, "velocity": 103, "channel": 0}, {"type": "note_on", "time": 1, "note": 55, "velocity": 104, "channel": 0}, {"type": "note_off", "time": 21, "note": 55, "velocity": 104, "channel": 0}, {"type": "note_on", "time": 0, "note": 57, "velocity": 106, "channel": 0}, {"type": "note_off", "time": 92, "note": 57, "velocity": 106, "channel": 0}, {"type": "note_on", "time": 8, "note": 53, "velocity": 103, "channel": 0}, {"type": "note_off", "time": 78, "note": 53, "velocity": 103, "channel": 0}, {"type": "note_on", "time": 6, "note": 50, "velocity": 105, "channel": 0}, {"type": "note_off", "time": 89, "note": 50, "velocity": 105, "channel": 0}, {"type": "note_on", "time": 98, "note": 66, "velocity": 116, "channel": 0}, {"type": "note_off", "time": 107, "note": 66, "velocity": 116, "channel": 0}, {"type": "note_on", "time": 10, "note": 64, "velocity": 109, "channel": 0}, {"type": "note_off", "time": 78, "note": 64, "velocity": 109, "channel": 0}, {"type": "note_on", "time": 12, "note": 61, "velocity": 111, "channel": 0}, {"type": "note_off", "time": 62, "note": 61, "velocity": 111, "channel": 0}, {"type": "note_on", "time": 103, "note": 66, "velocity": 110, "channel": 0}, {"type": "note_off", "time": 124, "note": 66, "velocity": 110, "channel": 0}, {"type": "note_on", "time": 988, "note": 63, "velocity": 115, "channel": 0}, {"type": "note_off", "time": 111, "note": 63, "velocity": 115, "channel": 0}, {"type": "note_on", "time": 0, "note": 60, "velocity": 109, "channel": 0}, {"type": "note_off", "time": 65, "note": 60, "velocity": 109, "channel": 0}, {"type": "note_on", "time": 0, "note": 56, "velocity": 108, "channel": 0}, {"type": "note_off", "time": 84, "note": 56, "velocity": 108, "channel": 0}, {"type": "note_on", "time": 11, "note": 54, "velocity": 116, "channel": 0}, {"type": "note_off", "time": 67, "note": 54, "velocity": 116, "channel": 0}, {"type": "note_on", "time": 7, "note": 62, "velocity": 119, "channel": 0}, {"type": "note_off", "time": 67, "note": 62, "velocity": 119, "channel": 0}, {"type": "note_on", "time": 5, "note": 63, "velocity": 116, "channel": 0}, {"type": "note_off", "time": 57, "note": 63, "velocity": 116, "channel": 0}, {"type": "note_on", "time": 2, "note": 64, "velocity": 118, "channel": 0}, {"type": "note_off", "time": 82, "note": 64, "velocity": 118, "channel": 0}, {"type": "note_on", "time": 14, "note": 65, "velocity": 114, "channel": 0}, {"type": "note_off", "time": 65, "note": 65, "velocity": 114, "channel": 0}, {"type": "note_on", "time": 0, "note": 62, "velocity": 110, "channel": 0}, {"type": "note_off", "time": 87, "note": 62, "velocity": 110, "channel": 0}, {"type": "note_on", "time": 7, "note": 63, "velocity": 116, "channel": 0}, {"type": "note_off", "time": 93, "note": 63, "velocity": 116, "channel": 0}, {"type": "note_on", "time": 19, "note": 65, "velocity": 115, "channel": 0}, {"type": "note_off", "time": 107, "note": 65, "velocity": 115, "channel": 0}, {"type": "note_on", "time": 62, "note": 69, "velocity": 97, "channel": 0}, {"type": "note_off", "time": 75, "note": 69, "velocity": 97, "channel": 0}, {"type": "note_on", "time": 1, "note": 70, "velocity": 116, "channel": 0}, {"type": "note_off", "time": 94, "note": 70, "velocity": 116, "channel": 0}, {"type": "note_on", "time": 5, "note": 72, "velocity": 111, "channel": 0}, {"type": "note_off", "time": 97, "note": 72, "velocity": 111, "channel": 0}, {"type": "note_on", "time": 3, "note": 69, "velocity": 114, "channel": 0}, {"type": "note_off", "time": 102, "note": 69, "velocity": 114, "channel": 0}, {"type": "note_on", "time": 8, "note": 67, "velocity": 117, "channel": 0}, {"type": "note_off", "time": 80, "note": 67, "velocity": 117, "channel": 0}, {"type": "note_on", "time": 7, "note": 65, "velocity": 114, "channel": 0}, {"type": "note_off", "time": 60, "note": 65, "velocity": 114, "channel": 0}, {"type": "note_on", "time": 37, "note": 61, "velocity": 116, "channel": 0}, {"type": "note_off", "time": 61, "note": 61, "velocity": 116, "channel": 0}, {"type": "note_on", "time": 5, "note": 60, "velocity": 110, "channel": 0}, {"type": "note_off", "time": 70, "note": 60, "velocity": 110, "channel": 0}, {"type": "note_on", "time": 14, "note": 58, "velocity": 108, "channel": 0}, {"type": "note_off", "time": 55, "note": 58, "velocity": 108, "channel": 0}, {"type": "note_on", "time": 26, "note": 57, "velocity": 106, "channel": 0}, {"type": "note_off", "time": 135, "note": 57, "velocity": 106, "channel": 0}, {"type": "note_on", "time": 73, "note": 60, "velocity": 110, "channel": 0}, {"type": "note_off", "time": 111, "note": 60, "velocity": 110, "channel": 0}, {"type": "note_on", "time": 28, "note": 63, "velocity": 109, "channel": 0}, {"type": "note_off", "time": 74, "note": 63, "velocity": 109, "channel": 0}, {"type": "note_on", "time": 12, "note": 64, "velocity": 125, "channel": 0}, {"type": "note_off", "time": 71, "note": 64, "velocity": 125, "channel": 0}, {"type": "note_on", "time": 6, "note": 65, "velocity": 115, "channel": 0}, {"type": "note_off", "time": 219, "note": 65, "velocity": 115, "channel": 0}, {"type": "note_on", "time": 84, "note": 58, "velocity": 111, "channel": 0}, {"type": "note_off", "time": 91, "note": 58, "velocity": 111, "channel": 0}, {"type": "note_on", "time": 71, "note": 63, "velocity": 113, "channel": 0}, {"type": "note_off", "time": 128, "note": 63, "velocity": 113, "channel": 0}, {"type": "note_on", "time": 91, "note": 65, "velocity": 115, "channel": 0}, {"type": "note_off", "time": 210, "note": 65, "velocity": 115, "channel": 0}, {"type": "note_on", "time": 60, "note": 57, "velocity": 111, "channel": 0}, {"type": "note_off", "time": 84, "note": 57, "velocity": 111, "channel": 0}, {"type": "note_on", "time": 67, "note": 60, "velocity": 108, "channel": 0}, {"type": "note_off", "time": 74, "note": 60, "velocity": 108, "channel": 0}, {"type": "note_on", "time": 3, "note": 63, "velocity": 115, "channel": 0}, {"type": "note_off", "time": 130, "note": 63, "velocity": 115, "channel": 0}, {"type": "note_on", "time": 38, "note": 65, "velocity": 111, "channel": 0}, {"type": "note_off", "time": 276, "note": 65, "velocity": 111, "channel": 0}, {"type": "note_on", "time": 58, "note": 70, "velocity": 116, "channel": 0}, {"type": "note_off", "time": 91, "note": 70, "velocity": 116, "channel": 0}, {"type": "note_on", "time": 65, "note": 68, "velocity": 115, "channel": 0}, {"type": "note_on", "time": 83, "note": 65, "velocity": 114, "channel": 0}, {"type": "note_off", "time": 0, "note": 68, "velocity": 115, "channel": 0}, {"type": "note_off", "time": 92, "note": 65, "velocity": 114, "channel": 0}, {"type": "note_on", "time": 125, "note": 68, "velocity": 117, "channel": 0}, {"type": "note_off", "time": 91, "note": 68, "velocity": 117, "channel": 0}, {"type": "note_on", "time": 0, "note": 67, "velocity": 113, "channel": 0}, {"type": "note_off", "time": 69, "note": 67, "velocity": 113, "channel": 0}, {"type": "note_on", "time": 12, "note": 63, "velocity": 115, "channel": 0}, {"type": "note_off", "time": 123, "note": 63, "velocity": 115, "channel": 0}, {"type": "note_on", "time": 60, "note": 67, "velocity": 113, "channel": 0}, {"type": "note_off", "time": 110, "note": 67, "velocity": 113, "channel": 0}, {"type": "note_on", "time": 0, "note": 63, "velocity": 112, "channel": 0}, {"type": "note_off", "time": 98, "note": 63, "velocity": 112, "channel": 0}, {"type": "note_on", "time": 5, "note": 65, "velocity": 110, "channel": 0}, {"type": "note_off", "time": 74, "note": 65, "velocity": 110, "channel": 0}, {"type": "note_on", "time": 0, "note": 67, "velocity": 113, "channel": 0}, {"type": "note_off", "time": 69, "note": 67, "velocity": 113, "channel": 0}, {"type": "note_on", "time": 14, "note": 65, "velocity": 118, "channel": 0}, {"type": "note_off", "time": 51, "note": 65, "velocity": 118, "channel": 0}, {"type": "note_on", "time": 2, "note": 63, "velocity": 115, "channel": 0}, {"type": "note_off", "time": 96, "note": 63, "velocity": 115, "channel": 0}, {"type": "note_on", "time": 7, "note": 61, "velocity": 109, "channel": 0}, {"type": "note_off", "time": 80, "note": 61, "velocity": 109, "channel": 0}, {"type": "note_on", "time": 1, "note": 58, "velocity": 105, "channel": 0}, {"type": "note_off", "time": 70, "note": 58, "velocity": 105, "channel": 0}, {"type": "note_on", "time": 2, "note": 56, "velocity": 106, "channel": 0}, {"type": "note_off", "time": 47, "note": 56, "velocity": 106, "channel": 0}, {"type": "note_on", "time": 37, "note": 61, "velocity": 104, "channel": 0}, {"type": "note_off", "time": 96, "note": 61, "velocity": 104, "channel": 0}, {"type": "note_on", "time": 15, "note": 63, "velocity": 107, "channel": 0}, {"type": "note_off", "time": 67, "note": 63, "velocity": 107, "channel": 0}, {"type": "note_on", "time": 11, "note": 65, "velocity": 112, "channel": 0}, {"type": "note_off", "time": 93, "note": 65, "velocity": 112, "channel": 0}, {"type": "note_on", "time": 5, "note": 61, "velocity": 106, "channel": 0}, {"type": "note_off", "time": 123, "note": 61, "velocity": 106, "channel": 0}, {"type": "note_on", "time": 1371, "note": 72, "velocity": 114, "channel": 0}, {"type": "note_off", "time": 82, "note": 72, "velocity": 114, "channel": 0}, {"type": "note_on", "time": 12, "note": 72, "velocity": 122, "channel": 0}, {"type": "note_off", "time": 79, "note": 72, "velocity": 122, "channel": 0}, {"type": "note_on", "time": 29, "note": 72, "velocity": 119, "channel": 0}, {"type": "note_off", "time": 91, "note": 72, "velocity": 119, "channel": 0}, {"type": "note_on", "time": 26, "note": 72, "velocity": 102, "channel": 0}, {"type": "note_off", "time": 49, "note": 72, "velocity": 102, "channel": 0}, {"type": "note_on", "time": 2253, "note": 72, "velocity": 106, "channel": 0}, {"type": "note_off", "time": 65, "note": 72, "velocity": 106, "channel": 0}, {"type": "note_on", "time": 0, "note": 75, "velocity": 94, "channel": 0}, {"type": "note_off", "time": 58, "note": 75, "velocity": 94, "channel": 0}, {"type": "note_on", "time": 28, "note": 75, "velocity": 87, "channel": 0}, {"type": "note_off", "time": 71, "note": 75, "velocity": 87, "channel": 0}, {"type": "note_on", "time": 328, "note": 76, "velocity": 108, "channel": 0}, {"type": "note_off", "time": 53, "note": 76, "velocity": 108, "channel": 0}, {"type": "note_on", "time": 10, "note": 77, "velocity": 95, "channel": 0}, {"type": "note_off", "time": 650, "note": 77, "velocity": 95, "channel": 0}, {"type": "note_on", "time": 45, "note": 81, "velocity": 106, "channel": 0}, {"type": "note_off", "time": 129, "note": 81, "velocity": 106, "channel": 0}, {"type": "note_on", "time": 447, "note": 74, "velocity": 115, "channel": 0}, {"type": "note_off", "time": 122, "note": 74, "velocity": 115, "channel": 0}, {"type": "note_on", "time": 12, "note": 77, "velocity": 98, "channel": 0}, {"type": "note_off", "time": 270, "note": 77, "velocity": 98, "channel": 0}, {"type": "note_on", "time": 392, "note": 74, "velocity": 119, "channel": 0}, {"type": "note_off", "time": 104, "note": 74, "velocity": 119, "channel": 0}, {"type": "note_on", "time": 5, "note": 77, "velocity": 98, "channel": 0}, {"type": "note_off", "time": 625, "note": 77, "velocity": 98, "channel": 0}, {"type": "note_on", "time": 649, "note": 70, "velocity": 116, "channel": 0}, {"type": "note_off", "time": 79, "note": 70, "velocity": 116, "channel": 0}, {"type": "note_on", "time": 1, "note": 71, "velocity": 112, "channel": 0}, {"type": "note_off", "time": 46, "note": 71, "velocity": 112, "channel": 0}, {"type": "note_on", "time": 1, "note": 72, "velocity": 112, "channel": 0}, {"type": "note_off", "time": 564, "note": 72, "velocity": 112, "channel": 0}, {"type": "note_on", "time": 54, "note": 65, "velocity": 116, "channel": 0}, {"type": "note_off", "time": 87, "note": 65, "velocity": 116, "channel": 0}, {"type": "note_on", "time": 2, "note": 68, "velocity": 101, "channel": 0}, {"type": "note_off", "time": 61, "note": 68, "velocity": 101, "channel": 0}, {"type": "note_on", "time": 8, "note": 72, "velocity": 111, "channel": 0}, {"type": "note_off", "time": 79, "note": 72, "velocity": 111, "channel": 0}, {"type": "note_on", "time": 71, "note": 81, "velocity": 112, "channel": 0}, {"type": "note_off", "time": 76, "note": 81, "velocity": 112, "channel": 0}, {"type": "note_on", "time": 89, "note": 78, "velocity": 119, "channel": 0}, {"type": "note_off", "time": 101, "note": 78, "velocity": 119, "channel": 0}, {"type": "note_on", "time": 188, "note": 81, "velocity": 117, "channel": 0}, {"type": "note_off", "time": 80, "note": 81, "velocity": 117, "channel": 0}, {"type": "note_on", "time": 3, "note": 82, "velocity": 110, "channel": 0}, {"type": "note_off", "time": 511, "note": 82, "velocity": 110, "channel": 0}, {"type": "note_on", "time": 117, "note": 75, "velocity": 114, "channel": 0}, {"type": "note_off", "time": 101, "note": 75, "velocity": 114, "channel": 0}, {"type": "note_on", "time": 35, "note": 77, "velocity": 88, "channel": 0}, {"type": "note_off", "time": 93, "note": 77, "velocity": 88, "channel": 0}, {"type": "note_on", "time": 179, "note": 73, "velocity": 116, "channel": 0}, {"type": "note_off", "time": 88, "note": 73, "velocity": 116, "channel": 0}, {"type": "note_on", "time": 147, "note": 70, "velocity": 116, "channel": 0}, {"type": "note_off", "time": 102, "note": 70, "velocity": 116, "channel": 0}, {"type": "note_on", "time": 6, "note": 67, "velocity": 115, "channel": 0}, {"type": "note_off", "time": 97, "note": 67, "velocity": 115, "channel": 0}, {"type": "note_on", "time": 5, "note": 68, "velocity": 113, "channel": 0}, {"type": "note_off", "time": 74, "note": 68, "velocity": 113, "channel": 0}, {"type": "note_on", "time": 107, "note": 65, "velocity": 116, "channel": 0}, {"type": "note_off", "time": 83, "note": 65, "velocity": 116, "channel": 0}, {"type": "note_on", "time": 89, "note": 64, "velocity": 121, "channel": 0}, {"type": "note_off", "time": 121, "note": 64, "velocity": 121, "channel": 0}, {"type": "note_on", "time": 164, "note": 70, "velocity": 112, "channel": 0}, {"type": "note_off", "time": 84, "note": 70, "velocity": 112, "channel": 0}, {"type": "note_on", "time": 0, "note": 73, "velocity": 111, "channel": 0}, {"type": "note_off", "time": 101, "note": 73, "velocity": 111, "channel": 0}, {"type": "note_on", "time": 2, "note": 72, "velocity": 107, "channel": 0}, {"type": "note_off", "time": 91, "note": 72, "velocity": 107, "channel": 0}, {"type": "note_on", "time": 6, "note": 69, "velocity": 100, "channel": 0}, {"type": "note_off", "time": 75, "note": 69, "velocity": 100, "channel": 0}, {"type": "note_on", "time": 6, "note": 70, "velocity": 114, "channel": 0}, {"type": "note_off", "time": 102, "note": 70, "velocity": 114, "channel": 0}, {"type": "note_on", "time": 30, "note": 66, "velocity": 110, "channel": 0}, {"type": "note_off", "time": 101, "note": 66, "velocity": 110, "channel": 0}, {"type": "note_on", "time": 71, "note": 66, "velocity": 102, "channel": 0}, {"type": "note_off", "time": 51, "note": 66, "velocity": 102, "channel": 0}, {"type": "note_on", "time": 64, "note": 69, "velocity": 117, "channel": 0}, {"type": "note_off", "time": 78, "note": 69, "velocity": 117, "channel": 0}, {"type": "note_on", "time": 10, "note": 67, "velocity": 108, "channel": 0}, {"type": "note_off", "time": 70, "note": 67, "velocity": 108, "channel": 0}, {"type": "note_on", "time": 6, "note": 66, "velocity": 107, "channel": 0}, {"type": "note_off", "time": 105, "note": 66, "velocity": 107, "channel": 0}, {"type": "note_on", "time": 5, "note": 62, "velocity": 98, "channel": 0}, {"type": "note_off", "time": 74, "note": 62, "velocity": 98, "channel": 0}, {"type": "note_on", "time": 0, "note": 64, "velocity": 116, "channel": 0}, {"type": "note_off", "time": 101, "note": 64, "velocity": 116, "channel": 0}, {"type": "note_on", "time": 17, "note": 61, "velocity": 103, "channel": 0}, {"type": "note_off", "time": 96, "note": 61, "velocity": 103, "channel": 0}, {"type": "note_on", "time": 153, "note": 63, "velocity": 114, "channel": 0}, {"type": "note_off", "time": 111, "note": 63, "velocity": 114, "channel": 0}, {"type": "note_on", "time": 3, "note": 61, "velocity": 103, "channel": 0}, {"type": "note_off", "time": 67, "note": 61, "velocity": 103, "channel": 0}, {"type": "note_on", "time": 3, "note": 60, "velocity": 98, "channel": 0}, {"type": "note_off", "time": 62, "note": 60, "velocity": 98, "channel": 0}, {"type": "note_on", "time": 38, "note": 58, "velocity": 111, "channel": 0}, {"type": "note_off", "time": 51, "note": 58, "velocity": 111, "channel": 0}, {"type": "note_on", "time": 16, "note": 57, "velocity": 107, "channel": 0}, {"type": "note_off", "time": 80, "note": 57, "velocity": 107, "channel": 0}, {"type": "note_on", "time": 33, "note": 60, "velocity": 106, "channel": 0}, {"type": "note_off", "time": 67, "note": 60, "velocity": 106, "channel": 0}, {"type": "note_on", "time": 1, "note": 62, "velocity": 102, "channel": 0}, {"type": "note_off", "time": 87, "note": 62, "velocity": 102, "channel": 0}, {"type": "note_on", "time": 5, "note": 64, "velocity": 108, "channel": 0}, {"type": "note_off", "time": 73, "note": 64, "velocity": 108, "channel": 0}, {"type": "note_on", "time": 0, "note": 65, "velocity": 110, "channel": 0}, {"type": "note_off", "time": 496, "note": 65, "velocity": 110, "channel": 0}, {"type": "note_on", "time": 370, "note": 72, "velocity": 107, "channel": 0}, {"type": "note_off", "time": 105, "note": 72, "velocity": 107, "channel": 0}, {"type": "note_on", "time": 67, "note": 72, "velocity": 113, "channel": 0}, {"type": "note_off", "time": 108, "note": 72, "velocity": 113, "channel": 0}, {"type": "note_on", "time": 57, "note": 65, "velocity": 116, "channel": 0}, {"type": "note_off", "time": 110, "note": 65, "velocity": 116, "channel": 0}, {"type": "note_on", "time": 61, "note": 68, "velocity": 119, "channel": 0}, {"type": "note_off", "time": 110, "note": 68, "velocity": 119, "channel": 0}, {"type": "note_on", "time": 87, "note": 65, "velocity": 108, "channel": 0}, {"type": "note_off", "time": 102, "note": 65, "velocity": 108, "channel": 0}, {"type": "note_on", "time": 74, "note": 70, "velocity": 108, "channel": 0}, {"type": "note_off", "time": 94, "note": 70, "velocity": 108, "channel": 0}, {"type": "note_on", "time": 99, "note": 65, "velocity": 109, "channel": 0}, {"type": "note_off", "time": 94, "note": 65, "velocity": 109, "channel": 0}, {"type": "note_on", "time": 71, "note": 68, "velocity": 119, "channel": 0}, {"type": "note_off", "time": 110, "note": 68, "velocity": 119, "channel": 0}, {"type": "note_on", "time": 73, "note": 65, "velocity": 117, "channel": 0}, {"type": "note_off", "time": 89, "note": 65, "velocity": 117, "channel": 0}, {"type": "note_on", "time": 3, "note": 63, "velocity": 113, "channel": 0}, {"type": "note_off", "time": 75, "note": 63, "velocity": 113, "channel": 0}, {"type": "note_on", "time": 21, "note": 67, "velocity": 114, "channel": 0}, {"type": "note_off", "time": 96, "note": 67, "velocity": 114, "channel": 0}, {"type": "note_on", "time": 0, "note": 65, "velocity": 115, "channel": 0}, {"type": "note_off", "time": 93, "note": 65, "velocity": 115, "channel": 0}, {"type": "note_on", "time": 0, "note": 61, "velocity": 107, "channel": 0}, {"type": "note_off", "time": 92, "note": 61, "velocity": 107, "channel": 0}, {"type": "note_on", "time": 0, "note": 58, "velocity": 100, "channel": 0}, {"type": "note_off", "time": 105, "note": 58, "velocity": 100, "channel": 0}, {"type": "note_on", "time": 2, "note": 57, "velocity": 91, "channel": 0}, {"type": "note_off", "time": 47, "note": 57, "velocity": 91, "channel": 0}, {"type": "note_on", "time": 20, "note": 63, "velocity": 115, "channel": 0}, {"type": "note_off", "time": 110, "note": 63, "velocity": 115, "channel": 0}, {"type": "note_on", "time": 0, "note": 62, "velocity": 117, "channel": 0}, {"type": "note_off", "time": 84, "note": 62, "velocity": 117, "channel": 0}, {"type": "note_on", "time": 3, "note": 61, "velocity": 109, "channel": 0}, {"type": "note_off", "time": 102, "note": 61, "velocity": 109, "channel": 0}, {"type": "note_on", "time": 0, "note": 58, "velocity": 101, "channel": 0}, {"type": "note_off", "time": 52, "note": 58, "velocity": 101, "channel": 0}, {"type": "note_on", "time": 0, "note": 59, "velocity": 105, "channel": 0}, {"type": "note_off", "time": 56, "note": 59, "velocity": 105, "channel": 0}, {"type": "note_on", "time": 2, "note": 56, "velocity": 104, "channel": 0}, {"type": "note_off", "time": 107, "note": 56, "velocity": 104, "channel": 0}, {"type": "note_on", "time": 5, "note": 54, "velocity": 92, "channel": 0}, {"type": "note_off", "time": 69, "note": 54, "velocity": 92, "channel": 0}, {"type": "note_on", "time": 0, "note": 56, "velocity": 106, "channel": 0}, {"type": "note_off", "time": 120, "note": 56, "velocity": 106, "channel": 0}, {"type": "note_on", "time": 5, "note": 54, "velocity": 99, "channel": 0}, {"type": "note_off", "time": 133, "note": 54, "velocity": 99, "channel": 0}, {"type": "note_on", "time": 625, "note": 48, "velocity": 112, "channel": 0}, {"type": "note_off", "time": 120, "note": 48, "velocity": 112, "channel": 0}, {"type": "note_on", "time": 265, "note": 48, "velocity": 106, "channel": 0}, {"type": "note_off", "time": 112, "note": 48, "velocity": 106, "channel": 0}, {"type": "note_on", "time": 73, "note": 57, "velocity": 105, "channel": 0}, {"type": "note_off", "time": 120, "note": 57, "velocity": 105, "channel": 0}, {"type": "note_on", "time": 1129, "note": 55, "velocity": 110, "channel": 0}, {"type": "note_off", "time": 83, "note": 55, "velocity": 110, "channel": 0}, {"type": "note_on", "time": 5, "note": 52, "velocity": 110, "channel": 0}, {"type": "note_off", "time": 84, "note": 52, "velocity": 110, "channel": 0}, {"type": "note_on", "time": 0, "note": 53, "velocity": 105, "channel": 0}, {"type": "note_off", "time": 89, "note": 53, "velocity": 105, "channel": 0}, {"type": "note_on", "time": 25, "note": 55, "velocity": 109, "channel": 0}, {"type": "note_off", "time": 96, "note": 55, "velocity": 109, "channel": 0}, {"type": "note_on", "time": 0, "note": 57, "velocity": 107, "channel": 0}, {"type": "note_off", "time": 80, "note": 57, "velocity": 107, "channel": 0}, {"type": "note_on", "time": 6, "note": 59, "velocity": 105, "channel": 0}, {"type": "note_off", "time": 58, "note": 59, "velocity": 105, "channel": 0}, {"type": "note_on", "time": 8, "note": 60, "velocity": 108, "channel": 0}, {"type": "note_off", "time": 105, "note": 60, "velocity": 108, "channel": 0}, {"type": "note_on", "time": 20, "note": 62, "velocity": 106, "channel": 0}, {"type": "note_off", "time": 161, "note": 62, "velocity": 106, "channel": 0}, {"type": "note_on", "time": 0, "note": 64, "velocity": 109, "channel": 0}, {"type": "note_off", "time": 91, "note": 64, "velocity": 109, "channel": 0}, {"type": "note_on", "time": 29, "note": 67, "velocity": 115, "channel": 0}, {"type": "note_off", "time": 98, "note": 67, "velocity": 115, "channel": 0}, {"type": "note_on", "time": 0, "note": 64, "velocity": 122, "channel": 0}, {"type": "note_off", "time": 98, "note": 64, "velocity": 122, "channel": 0}, {"type": "note_on", "time": 8, "note": 65, "velocity": 115, "channel": 0}, {"type": "note_off", "time": 92, "note": 65, "velocity": 115, "channel": 0}, {"type": "note_on", "time": 3, "note": 67, "velocity": 111, "channel": 0}, {"type": "note_off", "time": 138, "note": 67, "velocity": 111, "channel": 0}, {"type": "note_on", "time": 164, "note": 69, "velocity": 115, "channel": 0}, {"type": "note_off", "time": 83, "note": 69, "velocity": 115, "channel": 0}, {"type": "note_on", "time": 0, "note": 72, "velocity": 99, "channel": 0}, {"type": "note_off", "time": 35, "note": 72, "velocity": 99, "channel": 0}, {"type": "note_on", "time": 6, "note": 72, "velocity": 111, "channel": 0}, {"type": "note_off", "time": 37, "note": 72, "velocity": 111, "channel": 0}, {"type": "note_on", "time": 8, "note": 69, "velocity": 116, "channel": 0}, {"type": "note_off", "time": 85, "note": 69, "velocity": 116, "channel": 0}, {"type": "note_on", "time": 42, "note": 70, "velocity": 111, "channel": 0}, {"type": "note_off", "time": 70, "note": 70, "velocity": 111, "channel": 0}, {"type": "note_on", "time": 0, "note": 68, "velocity": 117, "channel": 0}, {"type": "note_off", "time": 108, "note": 68, "velocity": 117, "channel": 0}, {"type": "note_on", "time": 7, "note": 66, "velocity": 111, "channel": 0}, {"type": "note_on", "time": 92, "note": 63, "velocity": 115, "channel": 0}, {"type": "note_off", "time": 0, "note": 66, "velocity": 111, "channel": 0}, {"type": "note_off", "time": 92, "note": 63, "velocity": 115, "channel": 0}, {"type": "note_on", "time": 10, "note": 61, "velocity": 102, "channel": 0}, {"type": "note_off", "time": 76, "note": 61, "velocity": 102, "channel": 0}, {"type": "note_on", "time": 15, "note": 60, "velocity": 109, "channel": 0}, {"type": "note_off", "time": 234, "note": 60, "velocity": 109, "channel": 0}, {"type": "note_on", "time": 0, "note": 65, "velocity": 118, "channel": 0}, {"type": "note_off", "time": 435, "note": 65, "velocity": 118, "channel": 0}, {"type": "note_on", "time": 14, "note": 67, "velocity": 116, "channel": 0}, {"type": "note_off", "time": 128, "note": 67, "velocity": 116, "channel": 0}, {"type": "note_on", "time": 3, "note": 69, "velocity": 113, "channel": 0}, {"type": "note_off", "time": 137, "note": 69, "velocity": 113, "channel": 0}, {"type": "note_on", "time": 6, "note": 65, "velocity": 103, "channel": 0}, {"type": "note_off", "time": 91, "note": 65, "velocity": 103, "channel": 0}, {"type": "note_on", "time": 14, "note": 67, "velocity": 9, "channel": 0}, {"type": "note_off", "time": 83, "note": 67, "velocity": 9, "channel": 0}, {"type": "note_on", "time": 5, "note": 66, "velocity": 9, "channel": 0}, {"type": "note_off", "time": 121, "note": 66, "velocity": 9, "channel": 0}, {"type": "note_on", "time": 87, "note": 60, "velocity": 111, "channel": 0}, {"type": "note_off", "time": 102, "note": 60, "velocity": 111, "channel": 0}, {"type": "note_on", "time": 66, "note": 65, "velocity": 117, "channel": 0}, {"type": "note_off", "time": 115, "note": 65, "velocity": 117, "channel": 0}, {"type": "note_on", "time": 169, "note": 65, "velocity": 115, "channel": 0}, {"type": "note_off", "time": 284, "note": 65, "velocity": 115, "channel": 0}, {"type": "note_on", "time": 12, "note": 65, "velocity": 116, "channel": 0}, {"type": "note_off", "time": 101, "note": 65, "velocity": 116, "channel": 0}, {"type": "note_on", "time": 0, "note": 67, "velocity": 110, "channel": 0}, {"type": "note_off", "time": 103, "note": 67, "velocity": 110, "channel": 0}, {"type": "note_on", "time": 0, "note": 68, "velocity": 120, "channel": 0}, {"type": "note_off", "time": 87, "note": 68, "velocity": 120, "channel": 0}, {"type": "note_on", "time": 21, "note": 67, "velocity": 115, "channel": 0}, {"type": "note_off", "time": 56, "note": 67, "velocity": 115, "channel": 0}, {"type": "note_on", "time": 10, "note": 66, "velocity": 115, "channel": 0}, {"type": "note_off", "time": 116, "note": 66, "velocity": 115, "channel": 0}, {"type": "note_on", "time": 7, "note": 65, "velocity": 116, "channel": 0}, {"type": "note_off", "time": 52, "note": 65, "velocity": 116, "channel": 0}, {"type": "note_on", "time": 1, "note": 64, "velocity": 127, "channel": 0}, {"type": "note_off", "time": 111, "note": 64, "velocity": 127, "channel": 0}, {"type": "note_on", "time": 17, "note": 63, "velocity": 124, "channel": 0}, {"type": "note_off", "time": 56, "note": 63, "velocity": 124, "channel": 0}, {"type": "note_on", "time": 7, "note": 62, "velocity": 122, "channel": 0}, {"type": "note_off", "time": 128, "note": 62, "velocity": 122, "channel": 0}, {"type": "note_on", "time": 0, "note": 61, "velocity": 111, "channel": 0}, {"type": "note_off", "time": 65, "note": 61, "velocity": 111, "channel": 0}, {"type": "note_on", "time": 11, "note": 59, "velocity": 106, "channel": 0}, {"type": "note_off", "time": 112, "note": 59, "velocity": 106, "channel": 0}, {"type": "note_on", "time": 67, "note": 53, "velocity": 114, "channel": 0}, {"type": "note_off", "time": 70, "note": 53, "velocity": 114, "channel": 0}, {"type": "note_on", "time": 7, "note": 57, "velocity": 110, "channel": 0}, {"type": "note_off", "time": 71, "note": 57, "velocity": 110, "channel": 0}, {"type": "note_on", "time": 10, "note": 54, "velocity": 100, "channel": 0}, {"type": "note_off", "time": 125, "note": 54, "velocity": 100, "channel": 0}, {"type": "note_on", "time": 11, "note": 55, "velocity": 100, "channel": 0}, {"type": "note_off", "time": 51, "note": 55, "velocity": 100, "channel": 0}, {"type": "note_on", "time": 3, "note": 56, "velocity": 111, "channel": 0}, {"type": "note_off", "time": 98, "note": 56, "velocity": 111, "channel": 0}, {"type": "note_on", "time": 2, "note": 54, "velocity": 107, "channel": 0}, {"type": "note_off", "time": 87, "note": 54, "velocity": 107, "channel": 0}, {"type": "note_on", "time": 5, "note": 52, "velocity": 108, "channel": 0}, {"type": "note_off", "time": 92, "note": 52, "velocity": 108, "channel": 0}, {"type": "note_on", "time": 0, "note": 49, "velocity": 99, "channel": 0}, {"type": "note_off", "time": 57, "note": 49, "velocity": 99, "channel": 0}, {"type": "note_on", "time": 41, "note": 50, "velocity": 109, "channel": 0}, {"type": "note_off", "time": 85, "note": 50, "velocity": 109, "channel": 0}, {"type": "note_on", "time": 3, "note": 52, "velocity": 103, "channel": 0}, {"type": "note_off", "time": 94, "note": 52, "velocity": 103, "channel": 0}, {"type": "note_on", "time": 43, "note": 55, "velocity": 108, "channel": 0}, {"type": "note_off", "time": 93, "note": 55, "velocity": 108, "channel": 0}, {"type": "note_on", "time": 35, "note": 61, "velocity": 115, "channel": 0}, {"type": "note_off", "time": 80, "note": 61, "velocity": 115, "channel": 0}, {"type": "note_on", "time": 1, "note": 60, "velocity": 107, "channel": 0}, {"type": "note_off", "time": 92, "note": 60, "velocity": 107, "channel": 0}, {"type": "note_on", "time": 16, "note": 58, "velocity": 103, "channel": 0}, {"type": "note_off", "time": 76, "note": 58, "velocity": 103, "channel": 0}, {"type": "note_on", "time": 39, "note": 55, "velocity": 103, "channel": 0}, {"type": "note_off", "time": 58, "note": 55, "velocity": 103, "channel": 0}, {"type": "note_on", "time": 17, "note": 57, "velocity": 104, "channel": 0}, {"type": "note_off", "time": 87, "note": 57, "velocity": 104, "channel": 0}, {"type": "note_on", "time": 32, "note": 48, "velocity": 112, "channel": 0}, {"type": "note_off", "time": 79, "note": 48, "velocity": 112, "channel": 0}, {"type": "note_on", "time": 26, "note": 51, "velocity": 109, "channel": 0}, {"type": "note_off", "time": 71, "note": 51, "velocity": 109, "channel": 0}, {"type": "note_on", "time": 0, "note": 55, "velocity": 113, "channel": 0}, {"type": "note_off", "time": 76, "note": 55, "velocity": 113, "channel": 0}, {"type": "note_on", "time": 5, "note": 51, "velocity": 112, "channel": 0}, {"type": "note_off", "time": 71, "note": 51, "velocity": 112, "channel": 0}, {"type": "note_on", "time": 7, "note": 52, "velocity": 102, "channel": 0}, {"type": "note_off", "time": 87, "note": 52, "velocity": 102, "channel": 0}, {"type": "note_on", "time": 198, "note": 63, "velocity": 123, "channel": 0}, {"type": "note_off", "time": 84, "note": 63, "velocity": 123, "channel": 0}, {"type": "note_on", "time": 0, "note": 62, "velocity": 116, "channel": 0}, {"type": "note_off", "time": 65, "note": 62, "velocity": 116, "channel": 0}, {"type": "note_on", "time": 6, "note": 61, "velocity": 106, "channel": 0}, {"type": "note_off", "time": 79, "note": 61, "velocity": 106, "channel": 0}, {"type": "note_on", "time": 48, "note": 59, "velocity": 111, "channel": 0}, {"type": "note_off", "time": 61, "note": 59, "velocity": 111, "channel": 0}, {"type": "note_on", "time": 14, "note": 58, "velocity": 101, "channel": 0}, {"type": "note_off", "time": 93, "note": 58, "velocity": 101, "channel": 0}, {"type": "note_on", "time": 465, "note": 58, "velocity": 111, "channel": 0}, {"type": "note_off", "time": 456, "note": 58, "velocity": 111, "channel": 0}, {"type": "note_on", "time": 558, "note": 56, "velocity": 102, "channel": 0}, {"type": "note_off", "time": 64, "note": 56, "velocity": 102, "channel": 0}, {"type": "note_on", "time": 0, "note": 57, "velocity": 99, "channel": 0}, {"type": "note_off", "time": 49, "note": 57, "velocity": 99, "channel": 0}, {"type": "note_on", "time": 15, "note": 60, "velocity": 92, "channel": 0}, {"type": "note_off", "time": 42, "note": 60, "velocity": 92, "channel": 0}, {"type": "note_on", "time": 0, "note": 62, "velocity": 116, "channel": 0}, {"type": "note_off", "time": 91, "note": 62, "velocity": 116, "channel": 0}, {"type": "note_on", "time": 5, "note": 65, "velocity": 116, "channel": 0}, {"type": "note_off", "time": 94, "note": 65, "velocity": 116, "channel": 0}, {"type": "note_on", "time": 0, "note": 62, "velocity": 123, "channel": 0}, {"type": "note_off", "time": 87, "note": 62, "velocity": 123, "channel": 0}, {"type": "note_on", "time": 14, "note": 63, "velocity": 115, "channel": 0}, {"type": "note_off", "time": 76, "note": 63, "velocity": 115, "channel": 0}, {"type": "note_on", "time": 0, "note": 64, "velocity": 110, "channel": 0}, {"type": "note_off", "time": 39, "note": 64, "velocity": 110, "channel": 0}, {"type": "note_on", "time": 10, "note": 65, "velocity": 94, "channel": 0}, {"type": "note_off", "time": 69, "note": 65, "velocity": 94, "channel": 0}, {"type": "note_on", "time": 53, "note": 67, "velocity": 100, "channel": 0}, {"type": "note_off", "time": 82, "note": 67, "velocity": 100, "channel": 0}, {"type": "note_on", "time": 26, "note": 72, "velocity": 118, "channel": 0}, {"type": "note_off", "time": 91, "note": 72, "velocity": 118, "channel": 0}, {"type": "note_on", "time": 0, "note": 71, "velocity": 114, "channel": 0}, {"type": "note_off", "time": 52, "note": 71, "velocity": 114, "channel": 0}, {"type": "note_on", "time": 0, "note": 70, "velocity": 118, "channel": 0}, {"type": "note_off", "time": 120, "note": 70, "velocity": 118, "channel": 0}, {"type": "note_on", "time": 7, "note": 67, "velocity": 103, "channel": 0}, {"type": "note_off", "time": 123, "note": 67, "velocity": 103, "channel": 0}, {"type": "note_on", "time": 19, "note": 68, "velocity": 102, "channel": 0}, {"type": "note_off", "time": 57, "note": 68, "velocity": 102, "channel": 0}, {"type": "note_on", "time": 0, "note": 69, "velocity": 112, "channel": 0}, {"type": "note_off", "time": 48, "note": 69, "velocity": 112, "channel": 0}, {"type": "note_on", "time": 30, "note": 65, "velocity": 113, "channel": 0}, {"type": "note_off", "time": 253, "note": 65, "velocity": 113, "channel": 0}, {"type": "note_on", "time": 0, "note": 63, "velocity": 114, "channel": 0}, {"type": "note_off", "time": 366, "note": 63, "velocity": 114, "channel": 0}, {"type": "note_on", "time": 29, "note": 63, "velocity": 110, "channel": 0}, {"type": "note_off", "time": 111, "note": 63, "velocity": 110, "channel": 0}, {"type": "note_on", "time": 1, "note": 67, "velocity": 109, "channel": 0}, {"type": "note_off", "time": 96, "note": 67, "velocity": 109, "channel": 0}, {"type": "note_on", "time": 10, "note": 63, "velocity": 108, "channel": 0}, {"type": "note_off", "time": 149, "note": 63, "velocity": 108, "channel": 0}, {"type": "end_of_track", "time": 0}]]}