{"ticks_per_beat": 192, "tracks": [[{"type": "track_name", "name": "Melody", "time": 0}, {"type": "set_tempo", "tempo": 242914, "time": 0}, {"type": "key_signature", "key": "Bb", "time": 0}, {"type": "time_signature", "numerator": 4, "denominator": 4, "clocks_per_click": 24, "notated_32nd_notes_per_beat": 8, "time": 0}, {"type": "note_on", "time": 5776, "note": 69, "velocity": 119, "channel": 0}, {"type": "note_off", "time": 37, "note": 69, "velocity": 119, "channel": 0}, {"type": "note_on", "time": 5, "note": 70, "velocity": 118, "channel": 0}, {"type": "note_off", "time": 172, "note": 70, "velocity": 118, "channel": 0}, {"type": "note_on", "time": 24, "note": 72, "velocity": 119, "channel": 0}, {"type": "note_off", "time": 34, "note": 72, "velocity": 119, "channel": 0}, {"type": "note_on", "time": 14, "note": 70, "velocity": 110, "channel": 0}, {"type": "note_off", "time": 35, "note": 70, "velocity": 110, "channel": 0}, {"type": "note_on", "time": 28, "note": 69, "velocity": 113, "channel": 0}, {"type": "note_off", "time": 55, "note": 69, "velocity": 113, "channel": 0}, {"type": "note_on", "time": 13, "note": 70, "velocity": 118, "channel": 0}, {"type": "note_off", "time": 167, "note": 70, "velocity": 118, "channel": 0}, {"type": "note_on", "time": 22, "note": 72, "velocity": 112, "channel": 0}, {"type": "note_off", "time": 35, "note": 72, "velocity": 112, "channel": 0}, {"type": "note_on", "time": 13, "note": 70, "velocity": 110, "channel": 0}, {"type": "note_off", "time": 42, "note": 70, "velocity": 110, "channel": 0}, {"type": "note_on", "time": 24, "note": 69, "velocity": 117, "channel": 0}, {"type": "note_off", "time": 45, "note": 69, "velocity": 117, "channel": 0}, {"type": "note_on", "time": 10, "note": 70, "velocity": 117, "channel": 0}, {"type": "note_off", "time": 185, "note": 70, "velocity": 117, "channel": 0}, {"type": "note_on", "time": 13, "note": 72, "velocity": 114, "channel": 0}, {"type": "note_off", "time": 52, "note": 72, "velocity": 114, "channel": 0}, {"type": "note_on", "time": 14, "note": 70, "velocity": 112, "channel": 0}, {"type": "note_off", "time": 75, "note": 70, "velocity": 112, "channel": 0}, {"type": "note_on", "time": 8, "note": 69, "velocity": 118, "channel": 0}, {"type": "note_off", "time": 50, "note": 69, "velocity": 118, "channel": 0}, {"type": "note_on", "time": 13, "note": 70, "velocity": 116, "channel": 0}, {"type": "note_off", "time": 174, "note": 70, "velocity": 116, "channel": 0}, {"type": "note_on", "time": 22, "note": 72, "velocity": 112, "channel": 0}, {"type": "note_off", "time": 64, "note": 72, "velocity": 112, "channel": 0}, {"type": "note_on", "time": 2, "note": 70, "velocity": 104, "channel": 0}, {"type": "note_off", "time": 41, "note": 70, "velocity": 104, "channel": 0}, {"type": "note_on", "time": 6, "note": 69, "velocity": 104, "channel": 0}, {"type": "note_off", "time": 66, "note": 69, "velocity": 104, "channel": 0}, {"type": "note_on", "time": 25, "note": 70, "velocity": 115, "channel": 0}, {"type": "note_off", "time": 172, "note": 70, "velocity": 115, "channel": 0}, {"type": "note_on", "time": 34, "note": 72, "velocity": 109, "channel": 0}, {"type": "note_off", "time": 52, "note": 72, "velocity": 109, "channel": 0}, {"type": "note_on", "time": 11, "note": 69, "velocity": 106, "channel": 0}, {"type": "note_off", "time": 44, "note": 69, "velocity": 106, "channel": 0}, {"type": "note_on", "time": 11, "note": 70, "velocity": 109, "channel": 0}, {"type": "note_off", "time": 44, "note": 70, "velocity": 109, "channel": 0}, {"type": "note_on", "time": 10, "note": 72, "velocity": 118, "channel": 0}, {"type": "note_off", "time": 50, "note": 72, "velocity": 118, "channel": 0}, {"type": "note_on", "time": 9, "note": 70, "velocity": 115, "channel": 0}, {"type": "note_off", "time": 58, "note": 70, "velocity": 115, "channel": 0}, {"type": "note_on", "time": 32, "note": 67, "velocity": 113, "channel": 0}, {"type": "note_off", "time": 415, "note": 67, "velocity": 113, "channel": 0}, {"type": "note_on", "time": 11, "note": 69, "velocity": 110, "channel": 0}, {"type": "note_off", "time": 42, "note": 69, "velocity": 110, "channel": 0}, {"type": "note_on", "time": 12, "note": 67, "velocity": 113, "channel": 0}, {"type": "note_off", "time": 42, "note": 67, "velocity": 113, "channel": 0}, {"type": "note_on", "time": 16, "note": 66, "velocity": 114, "channel": 0}, {"type": "note_off", "time": 76, "note": 66, "velocity": 114, "channel": 0}, {"type": "note_on", "time": 11, "note": 67, "velocity": 119, "channel": 0}, {"type": "note_off", "time": 192, "note": 67, "velocity": 119, "channel": 0}, {"type": "note_on", "time": 9, "note": 69, "velocity": 111, "channel": 0}, {"type": "note_off", "time": 45, "note": 69, "velocity": 111, "channel": 0}, {"type": "note_on", "time": 13, "note": 67, "velocity": 113, "channel": 0}, {"type": "note_off", "time": 58, "note": 67, "velocity": 113, "channel": 0}, {"type": "note_on", "time": 19, "note": 66, "velocity": 119, "channel": 0}, {"type": "note_off", "time": 57, "note": 66, "velocity": 119, "channel": 0}, {"type": "note_on", "time": 2, "note": 67, "velocity": 120, "channel": 0}, {"type": "note_off", "time": 149, "note": 67, "velocity": 120, "channel": 0}, {"type": "note_on", "time": 25, "note": 69, "velocity": 111, "channel": 0}, {"type": "note_off", "time": 50, "note": 69, "velocity": 111, "channel": 0}, {"type": "note_on", "time": 16, "note": 67, "velocity": 107, "channel": 0}, {"type": "note_off", "time": 41, "note": 67, "velocity": 107, "channel": 0}, {"type": "note_on", "time": 10, "note": 66, "velocity": 113, "channel": 0}, {"type": "note_off", "time": 66, "note": 66, "velocity": 113, "channel": 0}, {"type": "note_on", "time": 14, "note": 69, "velocity": 112, "channel": 0}, {"type": "note_off", "time": 40, "note": 69, "velocity": 112, "channel": 0}, {"type": "note_on", "time": 10, "note": 67, "velocity": 110, "channel": 0}, {"type": "note_off", "time": 44, "note": 67, "velocity": 110, "channel": 0}, {"type": "note_on", "time": 10, "note": 65, "velocity": 116, "channel": 0}, {"type": "note_off", "time": 36, "note": 65, "velocity": 116, "channel": 0}, {"type": "note_on", "time": 16, "note": 63, "velocity": 118, "channel": 0}, {"type": "note_off", "time": 81, "note": 63, "velocity": 118, "channel": 0}, {"type": "note_on", "time": 12, "note": 62, "velocity": 116, "channel": 0}, {"type": "note_off", "time": 328, "note": 62, "velocity": 116, "channel": 0}, {"type": "note_on", "time": 26, "note": 60, "velocity": 116, "channel": 0}, {"type": "note_off", "time": 89, "note": 60, "velocity": 116, "channel": 0}, {"type": "note_on", "time": 14, "note": 62, "velocity": 113, "channel": 0}, {"type": "note_off", "time": 19, "note": 62, "velocity": 113, "channel": 0}, {"type": "note_on", "time": 5, "note": 63, "velocity": 118, "channel": 0}, {"type": "note_off", "time": 35, "note": 63, "velocity": 118, "channel": 0}, {"type": "note_on", "time": 5, "note": 62, "velocity": 118, "channel": 0}, {"type": "note_off", "time": 43, "note": 62, "velocity": 118, "channel": 0}, {"type": "note_on", "time": 18, "note": 60, "velocity": 121, "channel": 0}, {"type": "note_off", "time": 66, "note": 60, "velocity": 121, "channel": 0}, {"type": "note_on", "time": 9, "note": 62, "velocity": 112, "channel": 0}, {"type": "note_off", "time": 20, "note": 62, "velocity": 112, "channel": 0}, {"type": "note_on", "time": 2, "note": 63, "velocity": 111, "channel": 0}, {"type": "note_off", "time": 24, "note": 63, "velocity": 111, "channel": 0}, {"type": "note_on", "time": 4, "note": 62, "velocity": 118, "channel": 0}, {"type": "note_off", "time": 42, "note": 62, "velocity": 118, "channel": 0}, {"type": "note_on", "time": 21, "note": 60, "velocity": 117, "channel": 0}, {"type": "note_off", "time": 68, "note": 60, "velocity": 117, "channel": 0}, {"type": "note_on", "time": 13, "note": 63, "velocity": 115, "channel": 0}, {"type": "note_off", "time": 32, "note": 63, "velocity": 115, "channel": 0}, {"type": "note_on", "time": 6, "note": 62, "velocity": 118, "channel": 0}, {"type": "note_off", "time": 45, "note": 62, "velocity": 118, "channel": 0}, {"type": "note_on", "time": 22, "note": 60, "velocity": 120, "channel": 0}, {"type": "note_off", "time": 61, "note": 60, "velocity": 120, "channel": 0}, {"type": "note_on", "time": 8, "note": 63, "velocity": 114, "channel": 0}, {"type": "note_off", "time": 40, "note": 63, "velocity": 114, "channel": 0}, {"type": "note_on", "time": 1, "note": 62, "velocity": 115, "channel": 0}, {"type": "note_off", "time": 45, "note": 62, "velocity": 115, "channel": 0}, {"type": "note_on", "time": 20, "note": 60, "velocity": 117, "channel": 0}, {"type": "note_off", "time": 67, "note": 60, "velocity": 117, "channel": 0}, {"type": "note_on", "time": 13, "note": 58, "velocity": 118, "channel": 0}, {"type": "note_off", "time": 102, "note": 58, "velocity": 118, "channel": 0}, {"type": "note_on", "time": 13, "note": 55, "velocity": 122, "channel": 0}, {"type": "note_off", "time": 46, "note": 55, "velocity": 122, "channel": 0}, {"type": "note_on", "time": 14, "note": 53, "velocity": 116, "channel": 0}, {"type": "note_off", "time": 74, "note": 53, "velocity": 116, "channel": 0}, {"type": "note_on", "time": 16, "note": 55, "velocity": 118, "channel": 0}, {"type": "note_off", "time": 227, "note": 55, "velocity": 118, "channel": 0}, {"type": "note_on", "time": 1167, "note": 55, "velocity": 124, "channel": 0}, {"type": "note_off", "time": 54, "note": 55, "velocity": 124, "channel": 0}, {"type": "note_on", "time": 8, "note": 53, "velocity": 107, "channel": 0}, {"type": "note_off", "time": 83, "note": 53, "velocity": 107, "channel": 0}, {"type": "note_on", "time": 17, "note": 58, "velocity": 119, "channel": 0}, {"type": "note_off", "time": 92, "note": 58, "velocity": 119, "channel": 0}, {"type": "note_on", "time": 18, "note": 55, "velocity": 120, "channel": 0}, {"type": "note_off", "time": 79, "note": 55, "velocity": 120, "channel": 0}, {"type": "note_on", "time": 18, "note": 60, "velocity": 122, "channel": 0}, {"type": "note_off", "time": 81, "note": 60, "velocity": 122, "channel": 0}, {"type": "note_on", "time": 8, "note": 58, "velocity": 117, "channel": 0}, {"type": "note_off", "time": 100, "note": 58, "velocity": 117, "channel": 0}, {"type": "note_on", "time": 13, "note": 55, "velocity": 114, "channel": 0}, {"type": "note_off", "time": 52, "note": 55, "velocity": 114, "channel": 0}, {"type": "note_on", "time": 8, "note": 62, "velocity": 124, "channel": 0}, {"type": "note_off", "time": 121, "note": 62, "velocity": 124, "channel": 0}, {"type": "note_on", "time": 8, "note": 60, "velocity": 115, "channel": 0}, {"type": "note_off", "time": 78, "note": 60, "velocity": 115, "channel": 0}, {"type": "note_on", "time": 9, "note": 63, "velocity": 123, "channel": 0}, {"type": "note_off", "time": 83, "note": 63, "velocity": 123, "channel": 0}, {"type": "note_on", "time": 26, "note": 60, "velocity": 105, "channel": 0}, {"type": "note_off", "time": 75, "note": 60, "velocity": 105, "channel": 0}, {"type": "note_on", "time": 17, "note": 66, "velocity": 119, "channel": 0}, {"type": "note_off", "time": 88, "note": 66, "velocity": 119, "channel": 0}, {"type": "note_on", "time": 14, "note": 62, "velocity": 114, "channel": 0}, {"type": "note_off", "time": 76, "note": 62, "velocity": 114, "channel": 0}, {"type": "note_on", "time": 18, "note": 67, "velocity": 119, "channel": 0}, {"type": "note_off", "time": 100, "note": 67, "velocity": 119, "channel": 0}, {"type": "note_on", "time": 5, "note": 64, "velocity": 107, "channel": 0}, {"type": "note_off", "time": 66, "note": 64, "velocity": 107, "channel": 0}, {"type": "note_on", "time": 9, "note": 69, "velocity": 121, "channel": 0}, {"type": "note_off", "time": 97, "note": 69, "velocity": 121, "channel": 0}, {"type": "note_on", "time": 24, "note": 66, "velocity": 97, "channel": 0}, {"type": "note_off", "time": 65, "note": 66, "velocity": 97, "channel": 0}, {"type": "note_on", "time": 12, "note": 67, "velocity": 105, "channel": 0}, {"type": "note_off", "time": 73, "note": 67, "velocity": 105, "channel": 0}, {"type": "note_on", "time": 13, "note": 70, "velocity": 120, "channel": 0}, {"type": "note_off", "time": 82, "note": 70, "velocity": 120, "channel": 0}, {"type": "note_on", "time": 16, "note": 67, "velocity": 117, "channel": 0}, {"type": "note_off", "time": 104, "note": 67, "velocity": 117, "channel": 0}, {"type": "note_on", "time": 16, "note": 62, "velocity": 116, "channel": 0}, {"type": "note_off", "time": 78, "note": 62, "velocity": 116, "channel": 0}, {"type": "note_on", "time": 5, "note": 58, "velocity": 119, "channel": 0}, {"type": "note_off", "time": 86, "note": 58, "velocity": 119, "channel": 0}, {"type": "note_on", "time": 18, "note": 55, "velocity": 110, "channel": 0}, {"type": "note_off", "time": 61, "note": 55, "velocity": 110, "channel": 0}, {"type": "note_on", "time": 12, "note": 60, "velocity": 122, "channel": 0}, {"type": "note_off", "time": 100, "note": 60, "velocity": 122, "channel": 0}, {"type": "note_on", "time": 12, "note": 63, "velocity": 122, "channel": 0}, {"type": "note_off", "time": 92, "note": 63, "velocity": 122, "channel": 0}, {"type": "note_on", "time": 4, "note": 62, "velocity": 116, "channel": 0}, {"type": "note_off", "time": 98, "note": 62, "velocity": 116, "channel": 0}, {"type": "note_on", "time": 5, "note": 61, "velocity": 121, "channel": 0}, {"type": "note_off", "time": 107, "note": 61, "velocity": 121, "channel": 0}, {"type": "note_on", "time": 4, "note": 60, "velocity": 109, "channel": 0}, {"type": "note_off", "time": 18, "note": 60, "velocity": 109, "channel": 0}, {"type": "note_on", "time": 50, "note": 58, "velocity": 119, "channel": 0}, {"type": "note_off", "time": 81, "note": 58, "velocity": 119, "channel": 0}, {"type": "note_on", "time": 8, "note": 57, "velocity": 123, "channel": 0}, {"type": "note_off", "time": 106, "note": 57, "velocity": 123, "channel": 0}, {"type": "note_on", "time": 28, "note": 54, "velocity": 110, "channel": 0}, {"type": "note_off", "time": 61, "note": 54, "velocity": 110, "channel": 0}, {"type": "note_on", "time": 10, "note": 55, "velocity": 115, "channel": 0}, {"type": "note_off", "time": 300, "note": 55, "velocity": 115, "channel": 0}, {"type": "note_on", "time": 10, "note": 50, "velocity": 106, "channel": 0}, {"type": "note_off", "time": 65, "note": 50, "velocity": 106, "channel": 0}, {"type": "note_on", "time": 9, "note": 53, "velocity": 115, "channel": 0}, {"type": "note_off", "time": 92, "note": 53, "velocity": 115, "channel": 0}, {"type": "note_on", "time": 6, "note": 50, "velocity": 113, "channel": 0}, {"type": "note_off", "time": 61, "note": 50, "velocity": 113, "channel": 0}, {"type": "note_on", "time": 289, "note": 58, "velocity": 95, "channel": 0}, {"type": "note_off", "time": 18, "note": 58, "velocity": 95, "channel": 0}, {"type": "note_on", "time": 3, "note": 56, "velocity": 124, "channel": 0}, {"type": "note_off", "time": 27, "note": 56, "velocity": 124, "channel": 0}, {"type": "note_on", "time": 9, "note": 55, "velocity": 121, "channel": 0}, {"type": "note_off", "time": 43, "note": 55, "velocity": 121, "channel": 0}, {"type": "note_on", "time": 17, "note": 53, "velocity": 102, "channel": 0}, {"type": "note_off", "time": 90, "note": 53, "velocity": 102, "channel": 0}, {"type": "note_on", "time": 17, "note": 55, "velocity": 117, "channel": 0}, {"type": "note_off", "time": 63, "note": 55, "velocity": 117, "channel": 0}, {"type": "note_on", "time": 11, "note": 56, "velocity": 119, "channel": 0}, {"type": "note_off", "time": 80, "note": 56, "velocity": 119, "channel": 0}, {"type": "note_on", "time": 45, "note": 58, "velocity": 120, "channel": 0}, {"type": "note_off", "time": 69, "note": 58, "velocity": 120, "channel": 0}, {"type": "note_on", "time": 14, "note": 60, "velocity": 117, "channel": 0}, {"type": "note_off", "time": 73, "note": 60, "velocity": 117, "channel": 0}, {"type": "note_on", "time": 11, "note": 62, "velocity": 119, "channel": 0}, {"type": "note_off", "time": 102, "note": 62, "velocity": 119, "channel": 0}, {"type": "note_on", "time": 3, "note": 63, "velocity": 113, "channel": 0}, {"type": "note_off", "time": 94, "note": 63, "velocity": 113, "channel": 0}, {"type": "note_on", "time": 17, "note": 65, "velocity": 105, "channel": 0}, {"type": "note_off", "time": 86, "note": 65, "velocity": 105, "channel": 0}, {"type": "note_on", "time": 32, "note": 67, "velocity": 99, "channel": 0}, {"type": "note_off", "time": 45, "note": 67, "velocity": 99, "channel": 0}, {"type": "note_on", "time": 17, "note": 68, "velocity": 113, "channel": 0}, {"type": "note_off", "time": 67, "note": 68, "velocity": 113, "channel": 0}, {"type": "note_on", "time": 16, "note": 70, "velocity": 118, "channel": 0}, {"type": "note_off", "time": 86, "note": 70, "velocity": 118, "channel": 0}, {"type": "note_on", "time": 14, "note": 67, "velocity": 105, "channel": 0}, {"type": "note_off", "time": 65, "note": 67, "velocity": 105, "channel": 0}, {"type": "note_on", "time": 3, "note": 68, "velocity": 118, "channel": 0}, {"type": "note_off", "time": 82, "note": 68, "velocity": 118, "channel": 0}, {"type": "note_on", "time": 19, "note": 70, "velocity": 111, "channel": 0}, {"type": "note_off", "time": 73, "note": 70, "velocity": 111, "channel": 0}, {"type": "note_on", "time": 10, "note": 69, "velocity": 112, "channel": 0}, {"type": "note_off", "time": 20, "note": 69, "velocity": 112, "channel": 0}, {"type": "note_on", "time": 19, "note": 67, "velocity": 115, "channel": 0}, {"type": "note_off", "time": 72, "note": 67, "velocity": 115, "channel": 0}, {"type": "note_on", "time": 21, "note": 63, "velocity": 121, "channel": 0}, {"type": "note_off", "time": 72, "note": 63, "velocity": 121, "channel": 0}, {"type": "note_on", "time": 37, "note": 58, "velocity": 115, "channel": 0}, {"type": "note_off", "time": 74, "note": 58, "velocity": 115, "channel": 0}, {"type": "note_on", "time": 25, "note": 55, "velocity": 117, "channel": 0}, {"type": "note_off", "time": 60, "note": 55, "velocity": 117, "channel": 0}, {"type": "note_on", "time": 8, "note": 60, "velocity": 121, "channel": 0}, {"type": "note_off", "time": 80, "note": 60, "velocity": 121, "channel": 0}, {"type": "note_on", "time": 8, "note": 62, "velocity": 116, "channel": 0}, {"type": "note_off", "time": 35, "note": 62, "velocity": 116, "channel": 0}, {"type": "note_on", "time": 13, "note": 63, "velocity": 117, "channel": 0}, {"type": "note_off", "time": 63, "note": 63, "velocity": 117, "channel": 0}, {"type": "note_on", "time": 16, "note": 64, "velocity": 119, "channel": 0}, {"type": "note_off", "time": 66, "note": 64, "velocity": 119, "channel": 0}, {"type": "note_on", "time": 6, "note": 65, "velocity": 114, "channel": 0}, {"type": "note_off", "time": 82, "note": 65, "velocity": 114, "channel": 0}, {"type": "note_on", "time": 20, "note": 65, "velocity": 119, "channel": 0}, {"type": "note_off", "time": 79, "note": 65, "velocity": 119, "channel": 0}, {"type": "note_on", "time": 4, "note": 66, "velocity": 115, "channel": 0}, {"type": "note_off", "time": 214, "note": 66, "velocity": 115, "channel": 0}, {"type": "note_on", "time": 11, "note": 62, "velocity": 113, "channel": 0}, {"type": "note_off", "time": 78, "note": 62, "velocity": 113, "channel": 0}, {"type": "note_on", "time": 11, "note": 65, "velocity": 112, "channel": 0}, {"type": "note_off", "time": 89, "note": 65, "velocity": 112, "channel": 0}, {"type": "note_on", "time": 6, "note": 63, "velocity": 117, "channel": 0}, {"type": "note_off", "time": 84, "note": 63, "velocity": 117, "channel": 0}, {"type": "note_on", "time": 8, "note": 58, "velocity": 116, "channel": 0}, {"type": "note_off", "time": 87, "note": 58, "velocity": 116, "channel": 0}, {"type": "note_on", "time": 19, "note": 55, "velocity": 107, "channel": 0}, {"type": "note_off", "time": 55, "note": 55, "velocity": 107, "channel": 0}, {"type": "note_on", "time": 22, "note": 60, "velocity": 119, "channel": 0}, {"type": "note_off", "time": 71, "note": 60, "velocity": 119, "channel": 0}, {"type": "note_on", "time": 9, "note": 61, "velocity": 117, "channel": 0}, {"type": "note_off", "time": 89, "note": 61, "velocity": 117, "channel": 0}, {"type": "note_on", "time": 13, "note": 59, "velocity": 108, "channel": 0}, {"type": "note_off", "time": 105, "note": 59, "velocity": 108, "channel": 0}, {"type": "note_on", "time": 20, "note": 54, "velocity": 106, "channel": 0}, {"type": "note_off", "time": 57, "note": 54, "velocity": 106, "channel": 0}, {"type": "note_on", "time": 20, "note": 58, "velocity": 115, "channel": 0}, {"type": "note_off", "time": 204, "note": 58, "velocity": 115, "channel": 0}, {"type": "note_on", "time": 12, "note": 54, "velocity": 107, "channel": 0}, {"type": "note_off", "time": 91, "note": 54, "velocity": 107, "channel": 0}, {"type": "note_on", "time": 7, "note": 57, "velocity": 115, "channel": 0}, {"type": "note_off", "time": 372, "note": 57, "velocity": 115, "channel": 0}, {"type": "note_on", "time": 8, "note": 54, "velocity": 95, "channel": 0}, {"type": "note_off", "time": 43, "note": 54, "velocity": 95, "channel": 0}, {"type": "note_on", "time": 14, "note": 58, "velocity": 117, "channel": 0}, {"type": "note_off", "time": 117, "note": 58, "velocity": 117, "channel": 0}, {"type": "note_on", "time": 16, "note": 55, "velocity": 94, "channel": 0}, {"type": "note_off", "time": 167, "note": 55, "velocity": 94, "channel": 0}, {"type": "note_on", "time": 464, "note": 56, "velocity": 123, "channel": 0}, {"type": "note_off", "time": 60, "note": 56, "velocity": 123, "channel": 0}, {"type": "note_on", "time": 32, "note": 54, "velocity": 110, "channel": 0}, {"type": "note_off", "time": 87, "note": 54, "velocity": 110, "channel": 0}, {"type": "note_on", "time": 40, "note": 53, "velocity": 92, "channel": 0}, {"type": "note_off", "time": 125, "note": 53, "velocity": 92, "channel": 0}, {"type": "note_on", "time": 458, "note": 69, "velocity": 104, "channel": 0}, {"type": "note_off", "time": 50, "note": 69, "velocity": 104, "channel": 0}, {"type": "note_on", "time": 8, "note": 68, "velocity": 114, "channel": 0}, {"type": "note_off", "time": 52, "note": 68, "velocity": 114, "channel": 0}, {"type": "note_on", "time": 4, "note": 72, "velocity": 114, "channel": 0}, {"type": "note_off", "time": 52, "note": 72, "velocity": 114, "channel": 0}, {"type": "note_on", "time": 12, "note": 70, "velocity": 113, "channel": 0}, {"type": "note_off", "time": 40, "note": 70, "velocity": 113, "channel": 0}, {"type": "note_on", "time": 14, "note": 67, "velocity": 107, "channel": 0}, {"type": "note_off", "time": 29, "note": 67, "velocity": 107, "channel": 0}, {"type": "note_on", "time": 11, "note": 66, "velocity": 114, "channel": 0}, {"type": "note_off", "time": 70, "note": 66, "velocity": 114, "channel": 0}, {"type": "note_on", "time": 11, "note": 68, "velocity": 106, "channel": 0}, {"type": "note_off", "time": 38, "note": 68, "velocity": 106, "channel": 0}, {"type": "note_on", "time": 2, "note": 66, "velocity": 115, "channel": 0}, {"type": "note_off", "time": 34, "note": 66, "velocity": 115, "channel": 0}, {"type": "note_on", "time": 11, "note": 63, "velocity": 113, "channel": 0}, {"type": "note_off", "time": 41, "note": 63, "velocity": 113, "channel": 0}, {"type": "note_on", "time": 6, "note": 61, "velocity": 117, "channel": 0}, {"type": "note_off", "time": 58, "note": 61, "velocity": 117, "channel": 0}, {"type": "note_on", "time": 16, "note": 66, "velocity": 108, "channel": 0}, {"type": "note_off", "time": 51, "note": 66, "velocity": 108, "channel": 0}, {"type": "note_on", "time": 5, "note": 64, "velocity": 112, "channel": 0}, {"type": "note_off", "time": 56, "note": 64, "velocity": 112, "channel": 0}, {"type": "note_on", "time": 24, "note": 58, "velocity": 116, "channel": 0}, {"type": "note_off", "time": 51, "note": 58, "velocity": 116, "channel": 0}, {"type": "note_on", "time": 81, "note": 53, "velocity": 104, "channel": 0}, {"type": "note_off", "time": 16, "note": 53, "velocity": 104, "channel": 0}, {"type": "note_on", "time": 4, "note": 54, "velocity": 105, "channel": 0}, {"type": "note_off", "time": 29, "note": 54, "velocity": 105, "channel": 0}, {"type": "note_on", "time": 4, "note": 55, "velocity": 123, "channel": 0}, {"type": "note_off", "time": 50, "note": 55, "velocity": 123, "channel": 0}, {"type": "note_on", "time": 11, "note": 57, "velocity": 122, "channel": 0}, {"type": "note_off", "time": 29, "note": 57, "velocity": 122, "channel": 0}, {"type": "note_on", "time": 17, "note": 58, "velocity": 122, "channel": 0}, {"type": "note_off", "time": 49, "note": 58, "velocity": 122, "channel": 0}, {"type": "note_on", "time": 4, "note": 60, "velocity": 118, "channel": 0}, {"type": "note_off", "time": 32, "note": 60, "velocity": 118, "channel": 0}, {"type": "note_on", "time": 16, "note": 64, "velocity": 121, "channel": 0}, {"type": "note_off", "time": 50, "note": 64, "velocity": 121, "channel": 0}, {"type": "note_on", "time": 10, "note": 68, "velocity": 118, "channel": 0}, {"type": "note_off", "time": 37, "note": 68, "velocity": 118, "channel": 0}, {"type": "note_on", "time": 11, "note": 67, "velocity": 111, "channel": 0}, {"type": "note_off", "time": 32, "note": 67, "velocity": 111, "channel": 0}, {"type": "note_on", "time": 18, "note": 62, "velocity": 115, "channel": 0}, {"type": "note_off", "time": 66, "note": 62, "velocity": 115, "channel": 0}, {"type": "note_on", "time": 9, "note": 58, "velocity": 121, "channel": 0}, {"type": "note_off", "time": 64, "note": 58, "velocity": 121, "channel": 0}, {"type": "note_on", "time": 37, "note": 64, "velocity": 117, "channel": 0}, {"type": "note_off", "time": 45, "note": 64, "velocity": 117, "channel": 0}, {"type": "note_on", "time": 17, "note": 60, "velocity": 121, "channel": 0}, {"type": "note_off", "time": 69, "note": 60, "velocity": 121, "channel": 0}, {"type": "note_on", "time": 4, "note": 58, "velocity": 113, "channel": 0}, {"type": "note_off", "time": 11, "note": 58, "velocity": 113, "channel": 0}, {"type": "note_on", "time": 4, "note": 57, "velocity": 112, "channel": 0}, {"type": "note_off", "time": 10, "note": 57, "velocity": 112, "channel": 0}, {"type": "note_on", "time": 8, "note": 55, "velocity": 117, "channel": 0}, {"type": "note_off", "time": 28, "note": 55, "velocity": 117, "channel": 0}, {"type": "note_on", "time": 2, "note": 53, "velocity": 115, "channel": 0}, {"type": "note_off", "time": 30, "note": 53, "velocity": 115, "channel": 0}, {"type": "note_on", "time": 7, "note": 51, "velocity": 116, "channel": 0}, {"type": "note_off", "time": 37, "note": 51, "velocity": 116, "channel": 0}, {"type": "note_on", "time": 3, "note": 49, "velocity": 114, "channel": 0}, {"type": "note_off", "time": 20, "note": 49, "velocity": 114, "channel": 0}, {"type": "note_on", "time": 22, "note": 47, "velocity": 120, "channel": 0}, {"type": "note_off", "time": 38, "note": 47, "velocity": 120, "channel": 0}, {"type": "note_on", "time": 13, "note": 46, "velocity": 120, "channel": 0}, {"type": "note_off", "time": 32, "note": 46, "velocity": 120, "channel": 0}, {"type": "note_on", "time": 11, "note": 44, "velocity": 118, "channel": 0}, {"type": "note_off", "time": 192, "note": 44, "velocity": 118, "channel": 0}, {"type": "note_on", "time": 115, "note": 55, "velocity": 118, "channel": 0}, {"type": "note_off", "time": 99, "note": 55, "velocity": 118, "channel": 0}, {"type": "note_on", "time": 4, "note": 56, "velocity": 118, "channel": 0}, {"type": "note_off", "time": 266, "note": 56, "velocity": 118, "channel": 0}, {"type": "note_on", "time": 9, "note": 54, "velocity": 115, "channel": 0}, {"type": "note_off", "time": 87, "note": 54, "velocity": 115, "channel": 0}, {"type": "note_on", "time": 6, "note": 55, "velocity": 121, "channel": 0}, {"type": "note_off", "time": 104, "note": 55, "velocity": 121, "channel": 0}, {"type": "note_on", "time": 8, "note": 50, "velocity": 116, "channel": 0}, {"type": "note_off", "time": 45, "note": 50, "velocity": 116, "channel": 0}, {"type": "note_on", "time": 9, "note": 48, "velocity": 121, "channel": 0}, {"type": "note_off", "time": 153, "note": 48, "velocity": 121, "channel": 0}, {"type": "note_on", "time": 9, "note": 50, "velocity": 113, "channel": 0}, {"type": "note_off", "time": 310, "note": 50, "velocity": 113, "channel": 0}, {"type": "note_on", "time": 508, "note": 70, "velocity": 116, "channel": 0}, {"type": "note_off", "time": 65, "note": 70, "velocity": 116, "channel": 0}, {"type": "note_on", "time": 14, "note": 72, "velocity": 120, "channel": 0}, {"type": "note_off", "time": 508, "note": 72, "velocity": 120, "channel": 0}, {"type": "note_on", "time": 16, "note": 70, "velocity": 116, "channel": 0}, {"type": "note_off", "time": 87, "note": 70, "velocity": 116, "channel": 0}, {"type": "note_on", "time": 16, "note": 72, "velocity": 116, "channel": 0}, {"type": "note_off", "time": 77, "note": 72, "velocity": 116, "channel": 0}, {"type": "note_on", "time": 14, "note": 70, "velocity": 115, "channel": 0}, {"type": "note_off", "time": 170, "note": 70, "velocity": 115, "channel": 0}, {"type": "note_on", "time": 17, "note": 67, "velocity": 110, "channel": 0}, {"type": "note_off", "time": 98, "note": 67, "velocity": 110, "channel": 0}, {"type": "note_on", "time": 21, "note": 70, "velocity": 110, "channel": 0}, {"type": "note_off", "time": 65, "note": 70, "velocity": 110, "channel": 0}, {"type": "note_on", "time": 13, "note": 67, "velocity": 112, "channel": 0}, {"type": "note_off", "time": 180, "note": 67, "velocity": 112, "channel": 0}, {"type": "note_on", "time": 8, "note": 65, "velocity": 112, "channel": 0}, {"type": "note_off", "time": 95, "note": 65, "velocity": 112, "channel": 0}, {"type": "note_on", "time": 8, "note": 67, "velocity": 116, "channel": 0}, {"type": "note_off", "time": 63, "note": 67, "velocity": 116, "channel": 0}, {"type": "note_on", "time": 13, "note": 65, "velocity": 114, "channel": 0}, {"type": "note_off", "time": 157, "note": 65, "velocity": 114, "channel": 0}, {"type": "note_on", "time": 30, "note": 62, "velocity": 118, "channel": 0}, {"type": "note_off", "time": 103, "note": 62, "velocity": 118, "channel": 0}, {"type": "note_on", "time": 25, "note": 57, "velocity": 109, "channel": 0}, {"type": "note_off", "time": 62, "note": 57, "velocity": 109, "channel": 0}, {"type": "note_on", "time": 3, "note": 60, "velocity": 119, "channel": 0}, {"type": "note_off", "time": 102, "note": 60, "velocity": 119, "channel": 0}, {"type": "note_on", "time": 9, "note": 62, "velocity": 121, "channel": 0}, {"type": "note_off", "time": 79, "note": 62, "velocity": 121, "channel": 0}, {"type": "note_on", "time": 14, "note": 63, "velocity": 118, "channel": 0}, {"type": "note_off", "time": 87, "note": 63, "velocity": 118, "channel": 0}, {"type": "note_on", "time": 22, "note": 60, "velocity": 106, "channel": 0}, {"type": "note_off", "time": 84, "note": 60, "velocity": 106, "channel": 0}, {"type": "note_on", "time": 10, "note": 65, "velocity": 117, "channel": 0}, {"type": "note_off", "time": 119, "note": 65, "velocity": 117, "channel": 0}, {"type": "note_on", "time": 8, "note": 58, "velocity": 119, "channel": 0}, {"type": "note_off", "time": 119, "note": 58, "velocity": 119, "channel": 0}, {"type": "note_on", "time": 605, "note": 73, "velocity": 115, "channel": 0}, {"type": "note_off", "time": 51, "note": 73, "velocity": 115, "channel": 0}, {"type": "note_on", "time": 6, "note": 74, "velocity": 115, "channel": 0}, {"type": "note_off", "time": 426, "note": 74, "velocity": 115, "channel": 0}, {"type": "note_on", "time": 12, "note": 70, "velocity": 115, "channel": 0}, {"type": "note_off", "time": 41, "note": 70, "velocity": 115, "channel": 0}, {"type": "note_on", "time": 8, "note": 67, "velocity": 120, "channel": 0}, {"type": "note_off", "time": 74, "note": 67, "velocity": 120, "channel": 0}, {"type": "note_on", "time": 18, "note": 66, "velocity": 112, "channel": 0}, {"type": "note_off", "time": 167, "note": 66, "velocity": 112, "channel": 0}, {"type": "note_on", "time": 181, "note": 69, "velocity": 117, "channel": 0}, {"type": "note_off", "time": 73, "note": 69, "velocity": 117, "channel": 0}, {"type": "note_on", "time": 12, "note": 67, "velocity": 111, "channel": 0}, {"type": "note_off", "time": 89, "note": 67, "velocity": 111, "channel": 0}, {"type": "note_on", "time": 8, "note": 62, "velocity": 116, "channel": 0}, {"type": "note_off", "time": 85, "note": 62, "velocity": 116, "channel": 0}, {"type": "note_on", "time": 4, "note": 58, "velocity": 117, "channel": 0}, {"type": "note_off", "time": 85, "note": 58, "velocity": 117, "channel": 0}, {"type": "note_on", "time": 9, "note": 55, "velocity": 114, "channel": 0}, {"type": "note_off", "time": 62, "note": 55, "velocity": 114, "channel": 0}, {"type": "note_on", "time": 12, "note": 60, "velocity": 117, "channel": 0}, {"type": "note_off", "time": 112, "note": 60, "velocity": 117, "channel": 0}, {"type": "note_on", "time": 8, "note": 62, "velocity": 120, "channel": 0}, {"type": "note_off", "time": 87, "note": 62, "velocity": 120, "channel": 0}, {"type": "note_on", "time": 11, "note": 63, "velocity": 117, "channel": 0}, {"type": "note_off", "time": 89, "note": 63, "velocity": 117, "channel": 0}, {"type": "note_on", "time": 31, "note": 60, "velocity": 110, "channel": 0}, {"type": "note_off", "time": 36, "note": 60, "velocity": 110, "channel": 0}, {"type": "note_on", "time": 7, "note": 62, "velocity": 116, "channel": 0}, {"type": "note_off", "time": 124, "note": 62, "velocity": 116, "channel": 0}, {"type": "note_on", "time": 167, "note": 67, "velocity": 120, "channel": 0}, {"type": "note_off", "time": 51, "note": 67, "velocity": 120, "channel": 0}, {"type": "note_on", "time": 1, "note": 66, "velocity": 117, "channel": 0}, {"type": "note_off", "time": 38, "note": 66, "velocity": 117, "channel": 0}, {"type": "note_on", "time": 12, "note": 65, "velocity": 111, "channel": 0}, {"type": "note_off", "time": 67, "note": 65, "velocity": 111, "channel": 0}, {"type": "note_on", "time": 16, "note": 61, "velocity": 119, "channel": 0}, {"type": "note_off", "time": 76, "note": 61, "velocity": 119, "channel": 0}, {"type": "note_on", "time": 12, "note": 58, "velocity": 116, "channel": 0}, {"type": "note_off", "time": 93, "note": 58, "velocity": 116, "channel": 0}, {"type": "note_on", "time": 30, "note": 63, "velocity": 120, "channel": 0}, {"type": "note_off", "time": 77, "note": 63, "velocity": 120, "channel": 0}, {"type": "note_on", "time": 4, "note": 61, "velocity": 113, "channel": 0}, {"type": "note_off", "time": 87, "note": 61, "velocity": 113, "channel": 0}, {"type": "note_on", "time": 9, "note": 56, "velocity": 119, "channel": 0}, {"type": "note_off", "time": 89, "note": 56, "velocity": 119, "channel": 0}, {"type": "note_on", "time": 5, "note": 54, "velocity": 109, "channel": 0}, {"type": "note_off", "time": 83, "note": 54, "velocity": 109, "channel": 0}, {"type": "note_on", "time": 93, "note": 58, "velocity": 118, "channel": 0}, {"type": "note_off", "time": 97, "note": 58, "velocity": 118, "channel": 0}, {"type": "note_on", "time": 12, "note": 54, "velocity": 114, "channel": 0}, {"type": "note_off", "time": 55, "note": 54, "velocity": 114, "channel": 0}, {"type": "note_on", "time": 15, "note": 49, "velocity": 111, "channel": 0}, {"type": "note_off", "time": 100, "note": 49, "velocity": 111, "channel": 0}, {"type": "note_on", "time": 7, "note": 45, "velocity": 106, "channel": 0}, {"type": "note_off", "time": 89, "note": 45, "velocity": 106, "channel": 0}, {"type": "note_on", "time": 15, "note": 56, "velocity": 119, "channel": 0}, {"type": "note_off", "time": 108, "note": 56, "velocity": 119, "channel": 0}, {"type": "note_on", "time": 180, "note": 55, "velocity": 118, "channel": 0}, {"type": "note_off", "time": 77, "note": 55, "velocity": 118, "channel": 0}, {"type": "note_on", "time": 6, "note": 54, "velocity": 108, "channel": 0}, {"type": "note_off", "time": 144, "note": 54, "velocity": 108, "channel": 0}, {"type": "note_on", "time": 54, "note": 56, "velocity": 119, "channel": 0}, {"type": "note_off", "time": 79, "note": 56, "velocity": 119, "channel": 0}, {"type": "note_on", "time": 11, "note": 54, "velocity": 105, "channel": 0}, {"type": "note_off", "time": 54, "note": 54, "velocity": 105, "channel": 0}, {"type": "note_on", "time": 45, "note": 58, "velocity": 120, "channel": 0}, {"type": "note_off", "time": 105, "note": 58, "velocity": 120, "channel": 0}, {"type": "note_on", "time": 20, "note": 59, "velocity": 115, "channel": 0}, {"type": "note_off", "time": 62, "note": 59, "velocity": 115, "channel": 0}, {"type": "note_on", "time": 6, "note": 64, "velocity": 113, "channel": 0}, {"type": "note_off", "time": 95, "note": 64, "velocity": 113, "channel": 0}, {"type": "note_on", "time": 11, "note": 66, "velocity": 92, "channel": 0}, {"type": "note_off", "time": 52, "note": 66, "velocity": 92, "channel": 0}, {"type": "note_on", "time": 12, "note": 70, "velocity": 119, "channel": 0}, {"type": "note_off", "time": 101, "note": 70, "velocity": 119, "channel": 0}, {"type": "note_on", "time": 8, "note": 73, "velocity": 118, "channel": 0}, {"type": "note_off", "time": 100, "note": 73, "velocity": 118, "channel": 0}, {"type": "note_on", "time": 5, "note": 71, "velocity": 118, "channel": 0}, {"type": "note_off", "time": 66, "note": 71, "velocity": 118, "channel": 0}, {"type": "note_on", "time": 25, "note": 67, "velocity": 120, "channel": 0}, {"type": "note_off", "time": 50, "note": 67, "velocity": 120, "channel": 0}, {"type": "note_on", "time": 2, "note": 68, "velocity": 109, "channel": 0}, {"type": "note_off", "time": 57, "note": 68, "velocity": 109, "channel": 0}, {"type": "note_on", "time": 5, "note": 67, "velocity": 108, "channel": 0}, {"type": "note_off", "time": 77, "note": 67, "velocity": 108, "channel": 0}, {"type": "note_on", "time": 12, "note": 66, "velocity": 112, "channel": 0}, {"type": "note_off", "time": 75, "note": 66, "velocity": 112, "channel": 0}, {"type": "note_on", "time": 5, "note": 61, "velocity": 113, "channel": 0}, {"type": "note_off", "time": 125, "note": 61, "velocity": 113, "channel": 0}, {"type": "note_on", "time": 10, "note": 59, "velocity": 108, "channel": 0}, {"type": "note_off", "time": 46, "note": 59, "velocity": 108, "channel": 0}, {"type": "note_on", "time": 10, "note": 63, "velocity": 117, "channel": 0}, {"type": "note_off", "time": 95, "note": 63, "velocity": 117, "channel": 0}, {"type": "note_on", "time": 7, "note": 61, "velocity": 114, "channel": 0}, {"type": "note_off", "time": 91, "note": 61, "velocity": 114, "channel": 0}, {"type": "note_on", "time": 4, "note": 56, "velocity": 118, "channel": 0}, {"type": "note_off", "time": 87, "note": 56, "velocity": 118, "channel": 0}, {"type": "note_on", "time": 7, "note": 54, "velocity": 110, "channel": 0}, {"type": "note_off", "time": 73, "note": 54, "velocity": 110, "channel": 0}, {"type": "note_on", "time": 24, "note": 58, "velocity": 120, "channel": 0}, {"type": "note_off", "time": 96, "note": 58, "velocity": 120, "channel": 0}, {"type": "note_on", "time": 16, "note": 54, "velocity": 107, "channel": 0}, {"type": "note_off", "time": 70, "note": 54, "velocity": 107, "channel": 0}, {"type": "note_on", "time": 8, "note": 51, "velocity": 112, "channel": 0}, {"type": "note_off", "time": 66, "note": 51, "velocity": 112, "channel": 0}, {"type": "note_on", "time": 10, "note": 48, "velocity": 106, "channel": 0}, {"type": "note_off", "time": 78, "note": 48, "velocity": 106, "channel": 0}, {"type": "note_on", "time": 31, "note": 56, "velocity": 119, "channel": 0}, {"type": "note_off", "time": 99, "note": 56, "velocity": 119, "channel": 0}, {"type": "note_on", "time": 13, "note": 54, "velocity": 115, "channel": 0}, {"type": "note_off", "time": 54, "note": 54, "velocity": 115, "channel": 0}, {"type": "note_on", "time": 20, "note": 51, "velocity": 113, "channel": 0}, {"type": "note_off", "time": 59, "note": 51, "velocity": 113, "channel": 0}, {"type": "note_on", "time": 33, "note": 44, "velocity": 119, "channel": 0}, {"type": "note_off", "time": 288, "note": 44, "velocity": 119, "channel": 0}, {"type": "note_on", "time": 502, "note": 68, "velocity": 117, "channel": 0}, {"type": "note_off", "time": 45, "note": 68, "velocity": 117, "channel": 0}, {"type": "note_on", "time": 2, "note": 69, "velocity": 109, "channel": 0}, {"type": "note_off", "time": 278, "note": 69, "velocity": 109, "channel": 0}, {"type": "note_on", "time": 4, "note": 67, "velocity": 104, "channel": 0}, {"type": "note_off", "time": 28, "note": 67, "velocity": 104, "channel": 0}, {"type": "note_on", "time": 6, "note": 65, "velocity": 102, "channel": 0}, {"type": "note_off", "time": 18, "note": 65, "velocity": 102, "channel": 0}, {"type": "note_on", "time": 3, "note": 64, "velocity": 118, "channel": 0}, {"type": "note_off", "time": 49, "note": 64, "velocity": 118, "channel": 0}, {"type": "note_on", "time": 2, "note": 62, "velocity": 116, "channel": 0}, {"type": "note_off", "time": 56, "note": 62, "velocity": 116, "channel": 0}, {"type": "note_on", "time": 10, "note": 64, "velocity": 119, "channel": 0}, {"type": "note_off", "time": 33, "note": 64, "velocity": 119, "channel": 0}, {"type": "note_on", "time": 4, "note": 66, "velocity": 106, "channel": 0}, {"type": "note_off", "time": 16, "note": 66, "velocity": 106, "channel": 0}, {"type": "note_on", "time": 2, "note": 67, "velocity": 112, "channel": 0}, {"type": "note_off", "time": 37, "note": 67, "velocity": 112, "channel": 0}, {"type": "note_on", "time": 2, "note": 69, "velocity": 116, "channel": 0}, {"type": "note_off", "time": 45, "note": 69, "velocity": 116, "channel": 0}, {"type": "note_on", "time": 13, "note": 66, "velocity": 111, "channel": 0}, {"type": "note_off", "time": 48, "note": 66, "velocity": 111, "channel": 0}, {"type": "note_on", "time": 9, "note": 65, "velocity": 107, "channel": 0}, {"type": "note_off", "time": 25, "note": 65, "velocity": 107, "channel": 0}, {"type": "note_on", "time": 4, "note": 64, "velocity": 123, "channel": 0}, {"type": "note_off", "time": 45, "note": 64, "velocity": 123, "channel": 0}, {"type": "note_on", "time": 12, "note": 62, "velocity": 115, "channel": 0}, {"type": "note_off", "time": 37, "note": 62, "velocity": 115, "channel": 0}, {"type": "note_on", "time": 5, "note": 64, "velocity": 120, "channel": 0}, {"type": "note_off", "time": 42, "note": 64, "velocity": 120, "channel": 0}, {"type": "note_on", "time": 9, "note": 66, "velocity": 107, "channel": 0}, {"type": "note_off", "time": 29, "note": 66, "velocity": 107, "channel": 0}, {"type": "note_on", "time": 8, "note": 67, "velocity": 115, "channel": 0}, {"type": "note_off", "time": 33, "note": 67, "velocity": 115, "channel": 0}, {"type": "note_on", "time": 4, "note": 69, "velocity": 119, "channel": 0}, {"type": "note_off", "time": 70, "note": 69, "velocity": 119, "channel": 0}, {"type": "note_on", "time": 10, "note": 67, "velocity": 117, "channel": 0}, {"type": "note_off", "time": 50, "note": 67, "velocity": 117, "channel": 0}, {"type": "note_on", "time": 9, "note": 65, "velocity": 110, "channel": 0}, {"type": "note_off", "time": 21, "note": 65, "velocity": 110, "channel": 0}, {"type": "note_on", "time": 10, "note": 64, "velocity": 121, "channel": 0}, {"type": "note_off", "time": 48, "note": 64, "velocity": 121, "channel": 0}, {"type": "note_on", "time": 8, "note": 62, "velocity": 120, "channel": 0}, {"type": "note_off", "time": 44, "note": 62, "velocity": 120, "channel": 0}, {"type": "note_on", "time": 7, "note": 64, "velocity": 116, "channel": 0}, {"type": "note_off", "time": 35, "note": 64, "velocity": 116, "channel": 0}, {"type": "note_on", "time": 1, "note": 65, "velocity": 114, "channel": 0}, {"type": "note_off", "time": 25, "note": 65, "velocity": 114, "channel": 0}, {"type": "note_on", "time": 7, "note": 67, "velocity": 114, "channel": 0}, {"type": "note_off", "time": 37, "note": 67, "velocity": 114, "channel": 0}, {"type": "note_on", "time": 8, "note": 69, "velocity": 119, "channel": 0}, {"type": "note_off", "time": 49, "note": 69, "velocity": 119, "channel": 0}, {"type": "note_on", "time": 12, "note": 67, "velocity": 116, "channel": 0}, {"type": "note_off", "time": 50, "note": 67, "velocity": 116, "channel": 0}, {"type": "note_on", "time": 6, "note": 65, "velocity": 109, "channel": 0}, {"type": "note_off", "time": 26, "note": 65, "velocity": 109, "channel": 0}, {"type": "note_on", "time": 11, "note": 64, "velocity": 121, "channel": 0}, {"type": "note_off", "time": 50, "note": 64, "velocity": 121, "channel": 0}, {"type": "note_on", "time": 10, "note": 63, "velocity": 117, "channel": 0}, {"type": "note_off", "time": 40, "note": 63, "velocity": 117, "channel": 0}, {"type": "note_on", "time": 1, "note": 64, "velocity": 119, "channel": 0}, {"type": "note_off", "time": 25, "note": 64, "velocity": 119, "channel": 0}, {"type": "note_on", "time": 7, "note": 65, "velocity": 115, "channel": 0}, {"type": "note_off", "time": 33, "note": 65, "velocity": 115, "channel": 0}, {"type": "note_on", "time": 6, "note": 67, "velocity": 105, "channel": 0}, {"type": "note_off", "time": 20, "note": 67, "velocity": 105, "channel": 0}, {"type": "note_on", "time": 6, "note": 69, "velocity": 117, "channel": 0}, {"type": "note_off", "time": 78, "note": 69, "velocity": 117, "channel": 0}, {"type": "note_on", "time": 10, "note": 67, "velocity": 113, "channel": 0}, {"type": "note_off", "time": 41, "note": 67, "velocity": 113, "channel": 0}, {"type": "note_on", "time": 6, "note": 65, "velocity": 106, "channel": 0}, {"type": "note_off", "time": 25, "note": 65, "velocity": 106, "channel": 0}, {"type": "note_on", "time": 11, "note": 64, "velocity": 120, "channel": 0}, {"type": "note_off", "time": 62, "note": 64, "velocity": 120, "channel": 0}, {"type": "note_on", "time": 12, "note": 65, "velocity": 105, "channel": 0}, {"type": "note_off", "time": 53, "note": 65, "velocity": 105, "channel": 0}, {"type": "note_on", "time": 10, "note": 66, "velocity": 109, "channel": 0}, {"type": "note_off", "time": 31, "note": 66, "velocity": 109, "channel": 0}, {"type": "note_on", "time": 4, "note": 67, "velocity": 98, "channel": 0}, {"type": "note_off", "time": 33, "note": 67, "velocity": 98, "channel": 0}, {"type": "note_on", "time": 9, "note": 69, "velocity": 112, "channel": 0}, {"type": "note_off", "time": 50, "note": 69, "velocity": 112, "channel": 0}, {"type": "note_on", "time": 6, "note": 70, "velocity": 111, "channel": 0}, {"type": "note_off", "time": 45, "note": 70, "velocity": 111, "channel": 0}, {"type": "note_on", "time": 4, "note": 68, "velocity": 111, "channel": 0}, {"type": "note_off", "time": 27, "note": 68, "velocity": 111, "channel": 0}, {"type": "note_on", "time": 5, "note": 67, "velocity": 116, "channel": 0}, {"type": "note_off", "time": 47, "note": 67, "velocity": 116, "channel": 0}, {"type": "note_on", "time": 6, "note": 64, "velocity": 115, "channel": 0}, {"type": "note_off", "time": 53, "note": 64, "velocity": 115, "channel": 0}, {"type": "note_on", "time": 16, "note": 62, "velocity": 121, "channel": 0}, {"type": "note_off", "time": 47, "note": 62, "velocity": 121, "channel": 0}, {"type": "note_on", "time": 8, "note": 64, "velocity": 111, "channel": 0}, {"type": "note_off", "time": 24, "note": 64, "velocity": 111, "channel": 0}, {"type": "note_on", "time": 4, "note": 65, "velocity": 110, "channel": 0}, {"type": "note_off", "time": 20, "note": 65, "velocity": 110, "channel": 0}, {"type": "note_on", "time": 4, "note": 67, "velocity": 114, "channel": 0}, {"type": "note_off", "time": 43, "note": 67, "velocity": 114, "channel": 0}, {"type": "note_on", "time": 8, "note": 69, "velocity": 115, "channel": 0}, {"type": "note_off", "time": 41, "note": 69, "velocity": 115, "channel": 0}, {"type": "note_on", "time": 9, "note": 67, "velocity": 112, "channel": 0}, {"type": "note_off", "time": 49, "note": 67, "velocity": 112, "channel": 0}, {"type": "note_on", "time": 6, "note": 66, "velocity": 100, "channel": 0}, {"type": "note_off", "time": 16, "note": 66, "velocity": 100, "channel": 0}, {"type": "note_on", "time": 5, "note": 64, "velocity": 110, "channel": 0}, {"type": "note_off", "time": 52, "note": 64, "velocity": 110, "channel": 0}, {"type": "note_on", "time": 8, "note": 62, "velocity": 118, "channel": 0}, {"type": "note_off", "time": 57, "note": 62, "velocity": 118, "channel": 0}, {"type": "note_on", "time": 5, "note": 64, "velocity": 108, "channel": 0}, {"type": "note_off", "time": 22, "note": 64, "velocity": 108, "channel": 0}, {"type": "note_on", "time": 3, "note": 65, "velocity": 109, "channel": 0}, {"type": "note_off", "time": 24, "note": 65, "velocity": 109, "channel": 0}, {"type": "note_on", "time": 7, "note": 67, "velocity": 111, "channel": 0}, {"type": "note_off", "time": 30, "note": 67, "velocity": 111, "channel": 0}, {"type": "note_on", "time": 8, "note": 69, "velocity": 114, "channel": 0}, {"type": "note_off", "time": 58, "note": 69, "velocity": 114, "channel": 0}, {"type": "note_on", "time": 11, "note": 67, "velocity": 111, "channel": 0}, {"type": "note_off", "time": 41, "note": 67, "velocity": 111, "channel": 0}, {"type": "note_on", "time": 13, "note": 65, "velocity": 101, "channel": 0}, {"type": "note_off", "time": 19, "note": 65, "velocity": 101, "channel": 0}, {"type": "note_on", "time": 6, "note": 64, "velocity": 114, "channel": 0}, {"type": "note_off", "time": 59, "note": 64, "velocity": 114, "channel": 0}, {"type": "note_on", "time": 4, "note": 62, "velocity": 117, "channel": 0}, {"type": "note_off", "time": 48, "note": 62, "velocity": 117, "channel": 0}, {"type": "note_on", "time": 7, "note": 64, "velocity": 111, "channel": 0}, {"type": "note_off", "time": 23, "note": 64, "velocity": 111, "channel": 0}, {"type": "note_on", "time": 7, "note": 65, "velocity": 107, "channel": 0}, {"type": "note_off", "time": 29, "note": 65, "velocity": 107, "channel": 0}, {"type": "note_on", "time": 3, "note": 67, "velocity": 111, "channel": 0}, {"type": "note_off", "time": 34, "note": 67, "velocity": 111, "channel": 0}, {"type": "note_on", "time": 3, "note": 69, "velocity": 114, "channel": 0}, {"type": "note_off", "time": 57, "note": 69, "velocity": 114, "channel": 0}, {"type": "note_on", "time": 14, "note": 67, "velocity": 110, "channel": 0}, {"type": "note_off", "time": 39, "note": 67, "velocity": 110, "channel": 0}, {"type": "note_on", "time": 9, "note": 65, "velocity": 101, "channel": 0}, {"type": "note_off", "time": 31, "note": 65, "velocity": 101, "channel": 0}, {"type": "note_on", "time": 12, "note": 64, "velocity": 110, "channel": 0}, {"type": "note_off", "time": 41, "note": 64, "velocity": 110, "channel": 0}, {"type": "note_on", "time": 15, "note": 62, "velocity": 122, "channel": 0}, {"type": "note_off", "time": 45, "note": 62, "velocity": 122, "channel": 0}, {"type": "note_on", "time": 9, "note": 64, "velocity": 111, "channel": 0}, {"type": "note_off", "time": 29, "note": 64, "velocity": 111, "channel": 0}, {"type": "note_on", "time": 6, "note": 67, "velocity": 114, "channel": 0}, {"type": "note_off", "time": 61, "note": 67, "velocity": 114, "channel": 0}, {"type": "note_on", "time": 7, "note": 69, "velocity": 116, "channel": 0}, {"type": "note_off", "time": 53, "note": 69, "velocity": 116, "channel": 0}, {"type": "note_on", "time": 14, "note": 67, "velocity": 111, "channel": 0}, {"type": "note_off", "time": 37, "note": 67, "velocity": 111, "channel": 0}, {"type": "note_on", "time": 4, "note": 65, "velocity": 110, "channel": 0}, {"type": "note_off", "time": 43, "note": 65, "velocity": 110, "channel": 0}, {"type": "note_on", "time": 9, "note": 64, "velocity": 111, "channel": 0}, {"type": "note_off", "time": 50, "note": 64, "velocity": 111, "channel": 0}, {"type": "note_on", "time": 12, "note": 62, "velocity": 118, "channel": 0}, {"type": "note_off", "time": 100, "note": 62, "velocity": 118, "channel": 0}, {"type": "note_on", "time": 19, "note": 67, "velocity": 111, "channel": 0}, {"type": "note_off", "time": 60, "note": 67, "velocity": 111, "channel": 0}, {"type": "note_on", "time": 19, "note": 56, "velocity": 121, "channel": 0}, {"type": "note_off", "time": 162, "note": 56, "velocity": 121, "channel": 0}, {"type": "note_on", "time": 323, "note": 55, "velocity": 116, "channel": 0}, {"type": "note_off", "time": 214, "note": 55, "velocity": 116, "channel": 0}, {"type": "note_on", "time": 17, "note": 55, "velocity": 120, "channel": 0}, {"type": "note_off", "time": 40, "note": 55, "velocity": 120, "channel": 0}, {"type": "note_on", "time": 13, "note": 56, "velocity": 120, "channel": 0}, {"type": "note_off", "time": 80, "note": 56, "velocity": 120, "channel": 0}, {"type": "note_on", "time": 10, "note": 58, "velocity": 120, "channel": 0}, {"type": "note_off", "time": 72, "note": 58, "velocity": 120, "channel": 0}, {"type": "note_on", "time": 14, "note": 60, "velocity": 120, "channel": 0}, {"type": "note_off", "time": 76, "note": 60, "velocity": 120, "channel": 0}, {"type": "note_on", "time": 17, "note": 62, "velocity": 123, "channel": 0}, {"type": "note_off", "time": 82, "note": 62, "velocity": 123, "channel": 0}, {"type": "note_on", "time": 11, "note": 63, "velocity": 122, "channel": 0}, {"type": "note_off", "time": 92, "note": 63, "velocity": 122, "channel": 0}, {"type": "note_on", "time": 10, "note": 65, "velocity": 124, "channel": 0}, {"type": "note_off", "time": 58, "note": 65, "velocity": 124, "channel": 0}, {"type": "note_on", "time": 12, "note": 66, "velocity": 123, "channel": 0}, {"type": "note_off", "time": 32, "note": 66, "velocity": 123, "channel": 0}, {"type": "note_on", "time": 6, "note": 67, "velocity": 120, "channel": 0}, {"type": "note_off", "time": 142, "note": 67, "velocity": 120, "channel": 0}, {"type": "note_on", "time": 32, "note": 62, "velocity": 118, "channel": 0}, {"type": "note_off", "time": 71, "note": 62, "velocity": 118, "channel": 0}, {"type": "note_on", "time": 9, "note": 65, "velocity": 119, "channel": 0}, {"type": "note_off", "time": 75, "note": 65, "velocity": 119, "channel": 0}, {"type": "note_on", "time": 6, "note": 63, "velocity": 115, "channel": 0}, {"type": "note_off", "time": 189, "note": 63, "velocity": 115, "channel": 0}, {"type": "note_on", "time": 18, "note": 58, "velocity": 116, "channel": 0}, {"type": "note_off", "time": 73, "note": 58, "velocity": 116, "channel": 0}, {"type": "note_on", "time": 22, "note": 55, "velocity": 114, "channel": 0}, {"type": "note_off", "time": 63, "note": 55, "velocity": 114, "channel": 0}, {"type": "note_on", "time": 17, "note": 61, "velocity": 122, "channel": 0}, {"type": "note_off", "time": 81, "note": 61, "velocity": 122, "channel": 0}, {"type": "note_on", "time": 5, "note": 62, "velocity": 116, "channel": 0}, {"type": "note_off", "time": 94, "note": 62, "velocity": 116, "channel": 0}, {"type": "note_on", "time": 16, "note": 56, "velocity": 113, "channel": 0}, {"type": "note_off", "time": 88, "note": 56, "velocity": 113, "channel": 0}, {"type": "note_on", "time": 14, "note": 55, "velocity": 107, "channel": 0}, {"type": "note_off", "time": 61, "note": 55, "velocity": 107, "channel": 0}, {"type": "note_on", "time": 13, "note": 60, "velocity": 120, "channel": 0}, {"type": "note_off", "time": 98, "note": 60, "velocity": 120, "channel": 0}, {"type": "note_on", "time": 20, "note": 58, "velocity": 115, "channel": 0}, {"type": "note_off", "time": 57, "note": 58, "velocity": 115, "channel": 0}, {"type": "note_on", "time": 27, "note": 55, "velocity": 113, "channel": 0}, {"type": "note_off", "time": 94, "note": 55, "velocity": 113, "channel": 0}, {"type": "note_on", "time": 24, "note": 53, "velocity": 109, "channel": 0}, {"type": "note_off", "time": 143, "note": 53, "velocity": 109, "channel": 0}, {"type": "note_on", "time": 14, "note": 54, "velocity": 108, "channel": 0}, {"type": "note_off", "time": 235, "note": 54, "velocity": 108, "channel": 0}, {"type": "note_on", "time": 48, "note": 52, "velocity": 108, "channel": 0}, {"type": "note_off", "time": 35, "note": 52, "velocity": 108, "channel": 0}, {"type": "note_on", "time": 5, "note": 53, "velocity": 110, "channel": 0}, {"type": "note_off", "time": 86, "note": 53, "velocity": 110, "channel": 0}, {"type": "note_on", "time": 17, "note": 51, "velocity": 108, "channel": 0}, {"type": "note_off", "time": 117, "note": 51, "velocity": 108, "channel": 0}, {"type": "note_on", "time": 519, "note": 71, "velocity": 118, "channel": 0}, {"type": "note_off", "time": 58, "note": 71, "velocity": 118, "channel": 0}, {"type": "note_on", "time": 13, "note": 72, "velocity": 117, "channel": 0}, {"type": "note_off", "time": 207, "note": 72, "velocity": 117, "channel": 0}, {"type": "note_on", "time": 8, "note": 70, "velocity": 114, "channel": 0}, {"type": "note_off", "time": 266, "note": 70, "velocity": 114, "channel": 0}, {"type": "note_on", "time": 14, "note": 67, "velocity": 117, "channel": 0}, {"type": "note_off", "time": 119, "note": 67, "velocity": 117, "channel": 0}, {"type": "note_on", "time": 29, "note": 63, "velocity": 101, "channel": 0}, {"type": "note_off", "time": 52, "note": 63, "velocity": 101, "channel": 0}, {"type": "note_on", "time": 10, "note": 68, "velocity": 119, "channel": 0}, {"type": "note_off", "time": 130, "note": 68, "velocity": 119, "channel": 0}, {"type": "note_on", "time": 145, "note": 70, "velocity": 117, "channel": 0}, {"type": "note_off", "time": 92, "note": 70, "velocity": 117, "channel": 0}, {"type": "note_on", "time": 5, "note": 67, "velocity": 115, "channel": 0}, {"type": "note_off", "time": 71, "note": 67, "velocity": 115, "channel": 0}, {"type": "note_on", "time": 16, "note": 62, "velocity": 119, "channel": 0}, {"type": "note_off", "time": 98, "note": 62, "velocity": 119, "channel": 0}, {"type": "note_on", "time": 10, "note": 58, "velocity": 112, "channel": 0}, {"type": "note_off", "time": 125, "note": 58, "velocity": 112, "channel": 0}, {"type": "note_on", "time": 21, "note": 63, "velocity": 123, "channel": 0}, {"type": "note_off", "time": 122, "note": 63, "velocity": 123, "channel": 0}, {"type": "note_on", "time": 9, "note": 60, "velocity": 113, "channel": 0}, {"type": "note_off", "time": 86, "note": 60, "velocity": 113, "channel": 0}, {"type": "note_on", "time": 97, "note": 65, "velocity": 118, "channel": 0}, {"type": "note_off", "time": 86, "note": 65, "velocity": 118, "channel": 0}, {"type": "note_on", "time": 283, "note": 67, "velocity": 120, "channel": 0}, {"type": "note_off", "time": 100, "note": 67, "velocity": 120, "channel": 0}, {"type": "note_on", "time": 8, "note": 66, "velocity": 119, "channel": 0}, {"type": "note_off", "time": 66, "note": 66, "velocity": 119, "channel": 0}, {"type": "note_on", "time": 11, "note": 65, "velocity": 115, "channel": 0}, {"type": "note_off", "time": 68, "note": 65, "velocity": 115, "channel": 0}, {"type": "note_on", "time": 16, "note": 66, "velocity": 117, "channel": 0}, {"type": "note_off", "time": 36, "note": 66, "velocity": 117, "channel": 0}, {"type": "note_on", "time": 2, "note": 65, "velocity": 115, "channel": 0}, {"type": "note_off", "time": 35, "note": 65, "velocity": 115, "channel": 0}, {"type": "note_on", "time": 9, "note": 64, "velocity": 120, "channel": 0}, {"type": "note_off", "time": 111, "note": 64, "velocity": 120, "channel": 0}, {"type": "note_on", "time": 13, "note": 63, "velocity": 121, "channel": 0}, {"type": "note_off", "time": 74, "note": 63, "velocity": 121, "channel": 0}, {"type": "note_on", "time": 11, "note": 62, "velocity": 121, "channel": 0}, {"type": "note_off", "time": 97, "note": 62, "velocity": 121, "channel": 0}, {"type": "note_on", "time": 9, "note": 61, "velocity": 119, "channel": 0}, {"type": "note_off", "time": 84, "note": 61, "velocity": 119, "channel": 0}, {"type": "note_on", "time": 13, "note": 59, "velocity": 118, "channel": 0}, {"type": "note_off", "time": 67, "note": 59, "velocity": 118, "channel": 0}, {"type": "note_on", "time": 5, "note": 58, "velocity": 116, "channel": 0}, {"type": "note_off", "time": 18, "note": 58, "velocity": 116, "channel": 0}, {"type": "note_on", "time": 6, "note": 56, "velocity": 116, "channel": 0}, {"type": "note_off", "time": 79, "note": 56, "velocity": 116, "channel": 0}, {"type": "note_on", "time": 13, "note": 54, "velocity": 10, "channel": 0}, {"type": "note_off", "time": 63, "note": 54, "velocity": 10, "channel": 0}, {"type": "note_on", "time": 24, "note": 58, "velocity": 119, "channel": 0}, {"type": "note_off", "time": 97, "note": 58, "velocity": 119, "channel": 0}, {"type": "note_on", "time": 94, "note": 57, "velocity": 118, "channel": 0}, {"type": "note_off", "time": 117, "note": 57, "velocity": 118, "channel": 0}, {"type": "note_on", "time": 200, "note": 58, "velocity": 119, "channel": 0}, {"type": "note_off", "time": 65, "note": 58, "velocity": 119, "channel": 0}, {"type": "note_on", "time": 19, "note": 55, "velocity": 109, "channel": 0}, {"type": "note_off", "time": 60, "note": 55, "velocity": 109, "channel": 0}, {"type": "note_on", "time": 9, "note": 61, "velocity": 116, "channel": 0}, {"type": "note_off", "time": 79, "note": 61, "velocity": 116, "channel": 0}, {"type": "note_on", "time": 13, "note": 59, "velocity": 110, "channel": 0}, {"type": "note_off", "time": 100, "note": 59, "velocity": 110, "channel": 0}, {"type": "note_on", "time": 95, "note": 63, "velocity": 119, "channel": 0}, {"type": "note_off", "time": 111, "note": 63, "velocity": 119, "channel": 0}, {"type": "note_on", "time": 14, "note": 60, "velocity": 104, "channel": 0}, {"type": "note_off", "time": 128, "note": 60, "velocity": 104, "channel": 0}, {"type": "note_on", "time": 22, "note": 64, "velocity": 119, "channel": 0}, {"type": "note_off", "time": 71, "note": 64, "velocity": 119, "channel": 0}, {"type": "note_on", "time": 42, "note": 61, "velocity": 104, "channel": 0}, {"type": "note_off", "time": 68, "note": 61, "velocity": 104, "channel": 0}, {"type": "note_on", "time": 2, "note": 65, "velocity": 113, "channel": 0}, {"type": "note_off", "time": 80, "note": 65, "velocity": 113, "channel": 0}, {"type": "note_on", "time": 8, "note": 62, "velocity": 114, "channel": 0}, {"type": "note_off", "time": 98, "note": 62, "velocity": 114, "channel": 0}, {"type": "note_on", "time": 11, "note": 66, "velocity": 115, "channel": 0}, {"type": "note_off", "time": 78, "note": 66, "velocity": 115, "channel": 0}, {"type": "note_on", "time": 51, "note": 63, "velocity": 111, "channel": 0}, {"type": "note_off", "time": 52, "note": 63, "velocity": 111, "channel": 0}, {"type": "note_on", "time": 25, "note": 66, "velocity": 118, "channel": 0}, {"type": "note_off", "time": 59, "note": 66, "velocity": 118, "channel": 0}, {"type": "note_on", "time": 9, "note": 64, "velocity": 112, "channel": 0}, {"type": "note_off", "time": 113, "note": 64, "velocity": 112, "channel": 0}, {"type": "note_on", "time": 11, "note": 67, "velocity": 118, "channel": 0}, {"type": "note_off", "time": 58, "note": 67, "velocity": 118, "channel": 0}, {"type": "note_on", "time": 29, "note": 66, "velocity": 101, "channel": 0}, {"type": "note_off", "time": 61, "note": 66, "velocity": 101, "channel": 0}, {"type": "note_on", "time": 20, "note": 68, "velocity": 112, "channel": 0}, {"type": "note_off", "time": 73, "note": 68, "velocity": 112, "channel": 0}, {"type": "note_on", "time": 16, "note": 65, "velocity": 108, "channel": 0}, {"type": "note_off", "time": 83, "note": 65, "velocity": 108, "channel": 0}, {"type": "note_on", "time": 8, "note": 66, "velocity": 108, "channel": 0}, {"type": "note_off", "time": 90, "note": 66, "velocity": 108, "channel": 0}, {"type": "note_on", "time": 20, "note": 69, "velocity": 116, "channel": 0}, {"type": "note_off", "time": 78, "note": 69, "velocity": 116, "channel": 0}, {"type": "note_on", "time": 88, "note": 70, "velocity": 97, "channel": 0}, {"type": "note_off", "time": 16, "note": 70, "velocity": 97, "channel": 0}, {"type": "note_on", "time": 2, "note": 69, "velocity": 115, "channel": 0}, {"type": "note_off", "time": 75, "note": 69, "velocity": 115, "channel": 0}, {"type": "note_on", "time": 9, "note": 70, "velocity": 114, "channel": 0}, {"type": "note_off", "time": 133, "note": 70, "velocity": 114, "channel": 0}, {"type": "note_on", "time": 4, "note": 69, "velocity": 107, "channel": 0}, {"type": "note_off", "time": 78, "note": 69, "velocity": 107, "channel": 0}, {"type": "note_on", "time": 21, "note": 64, "velocity": 104, "channel": 0}, {"type": "note_off", "time": 67, "note": 64, "velocity": 104, "channel": 0}, {"type": "note_on", "time": 11, "note": 61, "velocity": 109, "channel": 0}, {"type": "note_off", "time": 106, "note": 61, "velocity": 109, "channel": 0}, {"type": "note_on", "time": 90, "note": 65, "velocity": 103, "channel": 0}, {"type": "note_off", "time": 91, "note": 65, "velocity": 103, "channel": 0}, {"type": "note_on", "time": 3, "note": 64, "velocity": 105, "channel": 0}, {"type": "note_off", "time": 21, "note": 64, "velocity": 105, "channel": 0}, {"type": "note_on", "time": 12, "note": 60, "velocity": 112, "channel": 0}, {"type": "note_off", "time": 83, "note": 60, "velocity": 112, "channel": 0}, {"type": "note_on", "time": 9, "note": 57, "velocity": 103, "channel": 0}, {"type": "note_off", "time": 69, "note": 57, "velocity": 103, "channel": 0}, {"type": "note_on", "time": 376, "note": 68, "velocity": 124, "channel": 0}, {"type": "note_off", "time": 53, "note": 68, "velocity": 124, "channel": 0}, {"type": "note_on", "time": 19, "note": 69, "velocity": 121, "channel": 0}, {"type": "note_off", "time": 158, "note": 69, "velocity": 121, "channel": 0}, {"type": "note_on", "time": 16, "note": 67, "velocity": 117, "channel": 0}, {"type": "note_off", "time": 96, "note": 67, "velocity": 117, "channel": 0}, {"type": "note_on", "time": 22, "note": 65, "velocity": 119, "channel": 0}, {"type": "note_off", "time": 67, "note": 65, "velocity": 119, "channel": 0}, {"type": "note_on", "time": 16, "note": 62, "velocity": 117, "channel": 0}, {"type": "note_off", "time": 183, "note": 62, "velocity": 117, "channel": 0}, {"type": "note_on", "time": 14, "note": 60, "velocity": 118, "channel": 0}, {"type": "note_off", "time": 91, "note": 60, "velocity": 118, "channel": 0}, {"type": "note_on", "time": 16, "note": 58, "velocity": 113, "channel": 0}, {"type": "note_off", "time": 258, "note": 58, "velocity": 113, "channel": 0}, {"type": "note_on", "time": 16, "note": 55, "velocity": 112, "channel": 0}, {"type": "note_off", "time": 115, "note": 55, "velocity": 112, "channel": 0}, {"type": "note_on", "time": 9, "note": 53, "velocity": 102, "channel": 0}, {"type": "note_off", "time": 65, "note": 53, "velocity": 102, "channel": 0}, {"type": "note_on", "time": 4, "note": 57, "velocity": 122, "channel": 0}, {"type": "note_off", "time": 104, "note": 57, "velocity": 122, "channel": 0}, {"type": "note_on", "time": 6, "note": 54, "velocity": 112, "channel": 0}, {"type": "note_off", "time": 53, "note": 54, "velocity": 112, "channel": 0}, {"type": "note_on", "time": 6, "note": 55, "velocity": 115, "channel": 0}, {"type": "note_off", "time": 115, "note": 55, "velocity": 115, "channel": 0}, {"type": "note_on", "time": 14, "note": 57, "velocity": 116, "channel": 0}, {"type": "note_off", "time": 52, "note": 57, "velocity": 116, "channel": 0}, {"type": "note_on", "time": 6, "note": 58, "velocity": 122, "channel": 0}, {"type": "note_off", "time": 80, "note": 58, "velocity": 122, "channel": 0}, {"type": "note_on", "time": 13, "note": 60, "velocity": 120, "channel": 0}, {"type": "note_off", "time": 53, "note": 60, "velocity": 120, "channel": 0}, {"type": "note_on", "time": 14, "note": 62, "velocity": 116, "channel": 0}, {"type": "note_off", "time": 47, "note": 62, "velocity": 116, "channel": 0}, {"type": "note_on", "time": 8, "note": 64, "velocity": 104, "channel": 0}, {"type": "note_off", "time": 18, "note": 64, "velocity": 104, "channel": 0}, {"type": "note_on", "time": 9, "note": 65, "velocity": 114, "channel": 0}, {"type": "note_off", "time": 71, "note": 65, "velocity": 114, "channel": 0}, {"type": "note_on", "time": 4, "note": 62, "velocity": 110, "channel": 0}, {"type": "note_off", "time": 28, "note": 62, "velocity": 110, "channel": 0}, {"type": "note_on", "time": 39, "note": 69, "velocity": 119, "channel": 0}, {"type": "note_off", "time": 267, "note": 69, "velocity": 119, "channel": 0}, {"type": "note_on", "time": 13, "note": 67, "velocity": 107, "channel": 0}, {"type": "note_off", "time": 1206, "note": 67, "velocity": 107, "channel": 0}, {"type": "note_on", "time": 29, "note": 65, "velocity": 108, "channel": 0}, {"type": "note_off", "time": 90, "note": 65, "velocity": 108, "channel": 0}, {"type": "note_on", "time": 22, "note": 62, "velocity": 114, "channel": 0}, {"type": "note_off", "time": 72, "note": 62, "velocity": 114, "channel": 0}, {"type": "note_on", "time": 942, "note": 68, "velocity": 123, "channel": 0}, {"type": "note_off", "time": 112, "note": 68, "velocity": 123, "channel": 0}, {"type": "note_on", "time": 7, "note": 67, "velocity": 111, "channel": 0}, {"type": "note_off", "time": 48, "note": 67, "velocity": 111, "channel": 0}, {"type": "note_on", "time": 6, "note": 68, "velocity": 121, "channel": 0}, {"type": "note_off", "time": 100, "note": 68, "velocity": 121, "channel": 0}, {"type": "note_on", "time": 5, "note": 67, "velocity": 121, "channel": 0}, {"type": "note_off", "time": 88, "note": 67, "velocity": 121, "channel": 0}, {"type": "note_on", "time": 8, "note": 65, "velocity": 120, "channel": 0}, {"type": "note_off", "time": 90, "note": 65, "velocity": 120, "channel": 0}, {"type": "note_on", "time": 9, "note": 62, "velocity": 124, "channel": 0}, {"type": "note_off", "time": 86, "note": 62, "velocity": 124, "channel": 0}, {"type": "note_on", "time": 11, "note": 58, "velocity": 113, "channel": 0}, {"type": "note_off", "time": 73, "note": 58, "velocity": 113, "channel": 0}, {"type": "note_on", "time": 16, "note": 55, "velocity": 113, "channel": 0}, {"type": "note_off", "time": 67, "note": 55, "velocity": 113, "channel": 0}, {"type": "note_on", "time": 3, "note": 60, "velocity": 122, "channel": 0}, {"type": "note_off", "time": 108, "note": 60, "velocity": 122, "channel": 0}, {"type": "note_on", "time": 11, "note": 62, "velocity": 127, "channel": 0}, {"type": "note_off", "time": 43, "note": 62, "velocity": 127, "channel": 0}, {"type": "note_on", "time": 11, "note": 63, "velocity": 123, "channel": 0}, {"type": "note_off", "time": 206, "note": 63, "velocity": 123, "channel": 0}, {"type": "note_on", "time": 8, "note": 62, "velocity": 124, "channel": 0}, {"type": "note_off", "time": 114, "note": 62, "velocity": 124, "channel": 0}, {"type": "note_on", "time": 13, "note": 58, "velocity": 117, "channel": 0}, {"type": "note_off", "time": 176, "note": 58, "velocity": 117, "channel": 0}, {"type": "note_on", "time": 14, "note": 55, "velocity": 111, "channel": 0}, {"type": "note_off", "time": 39, "note": 55, "velocity": 111, "channel": 0}, {"type": "note_on", "time": 19, "note": 60, "velocity": 120, "channel": 0}, {"type": "note_off", "time": 103, "note": 60, "velocity": 120, "channel": 0}, {"type": "note_on", "time": 13, "note": 63, "velocity": 122, "channel": 0}, {"type": "note_off", "time": 254, "note": 63, "velocity": 122, "channel": 0}, {"type": "note_on", "time": 6, "note": 62, "velocity": 122, "channel": 0}, {"type": "note_off", "time": 82, "note": 62, "velocity": 122, "channel": 0}, {"type": "note_on", "time": 11, "note": 58, "velocity": 118, "channel": 0}, {"type": "note_off", "time": 79, "note": 58, "velocity": 118, "channel": 0}, {"type": "note_on", "time": 16, "note": 55, "velocity": 118, "channel": 0}, {"type": "note_off", "time": 98, "note": 55, "velocity": 118, "channel": 0}, {"type": "note_on", "time": 27, "note": 57, "velocity": 119, "channel": 0}, {"type": "note_off", "time": 361, "note": 57, "velocity": 119, "channel": 0}, {"type": "note_on", "time": 9, "note": 55, "velocity": 114, "channel": 0}, {"type": "note_off", "time": 56, "note": 55, "velocity": 114, "channel": 0}, {"type": "note_on", "time": 4, "note": 57, "velocity": 118, "channel": 0}, {"type": "note_off", "time": 302, "note": 57, "velocity": 118, "channel": 0}, {"type": "note_on", "time": 11, "note": 55, "velocity": 112, "channel": 0}, {"type": "note_off", "time": 68, "note": 55, "velocity": 112, "channel": 0}, {"type": "note_on", "time": 9, "note": 57, "velocity": 117, "channel": 0}, {"type": "note_off", "time": 307, "note": 57, "velocity": 117, "channel": 0}, {"type": "note_on", "time": 8, "note": 55, "velocity": 111, "channel": 0}, {"type": "note_off", "time": 72, "note": 55, "velocity": 111, "channel": 0}, {"type": "note_on", "time": 11, "note": 57, "velocity": 120, "channel": 0}, {"type": "note_off", "time": 106, "note": 57, "velocity": 120, "channel": 0}, {"type": "note_on", "time": 11, "note": 55, "velocity": 120, "channel": 0}, {"type": "note_off", "time": 55, "note": 55, "velocity": 120, "channel": 0}, {"type": "note_on", "time": 13, "note": 52, "velocity": 116, "channel": 0}, {"type": "note_off", "time": 95, "note": 52, "velocity": 116, "channel": 0}, {"type": "note_on", "time": 22, "note": 50, "velocity": 117, "channel": 0}, {"type": "note_off", "time": 121, "note": 50, "velocity": 117, "channel": 0}, {"type": "note_on", "time": 419, "note": 57, "velocity": 124, "channel": 0}, {"type": "note_off", "time": 71, "note": 57, "velocity": 124, "channel": 0}, {"type": "note_on", "time": 10, "note": 55, "velocity": 123, "channel": 0}, {"type": "note_off", "time": 103, "note": 55, "velocity": 123, "channel": 0}, {"type": "note_on", "time": 5, "note": 58, "velocity": 116, "channel": 0}, {"type": "note_off", "time": 235, "note": 58, "velocity": 116, "channel": 0}, {"type": "note_on", "time": 22, "note": 55, "velocity": 117, "channel": 0}, {"type": "note_off", "time": 102, "note": 55, "velocity": 117, "channel": 0}, {"type": "note_on", "time": 20, "note": 53, "velocity": 97, "channel": 0}, {"type": "note_off", "time": 71, "note": 53, "velocity": 97, "channel": 0}, {"type": "note_on", "time": 37, "note": 68, "velocity": 116, "channel": 0}, {"type": "note_off", "time": 79, "note": 68, "velocity": 116, "channel": 0}, {"type": "note_on", "time": 9, "note": 64, "velocity": 115, "channel": 0}, {"type": "note_off", "time": 90, "note": 64, "velocity": 115, "channel": 0}, {"type": "note_on", "time": 587, "note": 45, "velocity": 121, "channel": 0}, {"type": "note_off", "time": 76, "note": 45, "velocity": 121, "channel": 0}, {"type": "note_on", "time": 5, "note": 46, "velocity": 113, "channel": 0}, {"type": "note_off", "time": 81, "note": 46, "velocity": 113, "channel": 0}, {"type": "note_on", "time": 19, "note": 49, "velocity": 121, "channel": 0}, {"type": "note_off", "time": 41, "note": 49, "velocity": 121, "channel": 0}, {"type": "note_on", "time": 8, "note": 50, "velocity": 101, "channel": 0}, {"type": "note_off", "time": 79, "note": 50, "velocity": 101, "channel": 0}, {"type": "note_on", "time": 16, "note": 53, "velocity": 109, "channel": 0}, {"type": "note_off", "time": 43, "note": 53, "velocity": 109, "channel": 0}, {"type": "note_on", "time": 13, "note": 57, "velocity": 120, "channel": 0}, {"type": "note_off", "time": 83, "note": 57, "velocity": 120, "channel": 0}, {"type": "note_on", "time": 19, "note": 58, "velocity": 116, "channel": 0}, {"type": "note_off", "time": 64, "note": 58, "velocity": 116, "channel": 0}, {"type": "note_on", "time": 12, "note": 62, "velocity": 114, "channel": 0}, {"type": "note_off", "time": 79, "note": 62, "velocity": 114, "channel": 0}, {"type": "note_on", "time": 10, "note": 65, "velocity": 104, "channel": 0}, {"type": "note_off", "time": 40, "note": 65, "velocity": 104, "channel": 0}, {"type": "note_on", "time": 29, "note": 69, "velocity": 117, "channel": 0}, {"type": "note_off", "time": 107, "note": 69, "velocity": 117, "channel": 0}, {"type": "note_on", "time": 13, "note": 72, "velocity": 109, "channel": 0}, {"type": "note_off", "time": 58, "note": 72, "velocity": 109, "channel": 0}, {"type": "note_on", "time": 15, "note": 73, "velocity": 104, "channel": 0}, {"type": "note_off", "time": 196, "note": 73, "velocity": 104, "channel": 0}, {"type": "note_on", "time": 387, "note": 77, "velocity": 113, "channel": 0}, {"type": "note_off", "time": 152, "note": 77, "velocity": 113, "channel": 0}, {"type": "note_on", "time": 240, "note": 74, "velocity": 115, "channel": 0}, {"type": "note_off", "time": 73, "note": 74, "velocity": 115, "channel": 0}, {"type": "note_on", "time": 29, "note": 70, "velocity": 111, "channel": 0}, {"type": "note_off", "time": 44, "note": 70, "velocity": 111, "channel": 0}, {"type": "note_on", "time": 21, "note": 67, "velocity": 119, "channel": 0}, {"type": "note_off", "time": 75, "note": 67, "velocity": 119, "channel": 0}, {"type": "note_on", "time": 17, "note": 62, "velocity": 110, "channel": 0}, {"type": "note_off", "time": 118, "note": 62, "velocity": 110, "channel": 0}, {"type": "note_on", "time": 13, "note": 65, "velocity": 112, "channel": 0}, {"type": "note_off", "time": 260, "note": 65, "velocity": 112, "channel": 0}, {"type": "note_on", "time": 12, "note": 62, "velocity": 106, "channel": 0}, {"type": "note_off", "time": 73, "note": 62, "velocity": 106, "channel": 0}, {"type": "note_on", "time": 4, "note": 64, "velocity": 116, "channel": 0}, {"type": "note_off", "time": 16, "note": 64, "velocity": 116, "channel": 0}, {"type": "note_on", "time": 8, "note": 65, "velocity": 112, "channel": 0}, {"type": "note_off", "time": 252, "note": 65, "velocity": 112, "channel": 0}, {"type": "note_on", "time": 11, "note": 62, "velocity": 103, "channel": 0}, {"type": "note_off", "time": 75, "note": 62, "velocity": 103, "channel": 0}, {"type": "note_on", "time": 9, "note": 64, "velocity": 115, "channel": 0}, {"type": "note_off", "time": 10, "note": 64, "velocity": 115, "channel": 0}, {"type": "note_on", "time": 4, "note": 65, "velocity": 114, "channel": 0}, {"type": "note_off", "time": 90, "note": 65, "velocity": 114, "channel": 0}, {"type": "note_on", "time": 2, "note": 67, "velocity": 119, "channel": 0}, {"type": "note_off", "time": 73, "note": 67, "velocity": 119, "channel": 0}, {"type": "note_on", "time": 1, "note": 68, "velocity": 119, "channel": 0}, {"type": "note_off", "time": 94, "note": 68, "velocity": 119, "channel": 0}, {"type": "note_on", "time": 2, "note": 67, "velocity": 118, "channel": 0}, {"type": "note_off", "time": 89, "note": 67, "velocity": 118, "channel": 0}, {"type": "note_on", "time": 4, "note": 65, "velocity": 112, "channel": 0}, {"type": "note_off", "time": 71, "note": 65, "velocity": 112, "channel": 0}, {"type": "note_on", "time": 20, "note": 63, "velocity": 121, "channel": 0}, {"type": "note_off", "time": 90, "note": 63, "velocity": 121, "channel": 0}, {"type": "note_on", "time": 8, "note": 62, "velocity": 114, "channel": 0}, {"type": "note_off", "time": 95, "note": 62, "velocity": 114, "channel": 0}, {"type": "note_on", "time": 4, "note": 60, "velocity": 119, "channel": 0}, {"type": "note_off", "time": 78, "note": 60, "velocity": 119, "channel": 0}, {"type": "note_on", "time": 10, "note": 58, "velocity": 115, "channel": 0}, {"type": "note_off", "time": 60, "note": 58, "velocity": 115, "channel": 0}, {"type": "note_on", "time": 215, "note": 57, "velocity": 122, "channel": 0}, {"type": "note_off", "time": 80, "note": 57, "velocity": 122, "channel": 0}, {"type": "note_on", "time": 5, "note": 56, "velocity": 115, "channel": 0}, {"type": "note_off", "time": 165, "note": 56, "velocity": 115, "channel": 0}, {"type": "note_on", "time": 10, "note": 58, "velocity": 118, "channel": 0}, {"type": "note_off", "time": 90, "note": 58, "velocity": 118, "channel": 0}, {"type": "note_on", "time": 14, "note": 55, "velocity": 116, "channel": 0}, {"type": "note_off", "time": 462, "note": 55, "velocity": 116, "channel": 0}, {"type": "note_on", "time": 38, "note": 53, "velocity": 110, "channel": 0}, {"type": "note_off", "time": 95, "note": 53, "velocity": 110, "channel": 0}, {"type": "note_on", "time": 14, "note": 51, "velocity": 109, "channel": 0}, {"type": "note_off", "time": 70, "note": 51, "velocity": 109, "channel": 0}, {"type": "note_on", "time": 9, "note": 50, "velocity": 101, "channel": 0}, {"type": "note_off", "time": 47, "note": 50, "velocity": 101, "channel": 0}, {"type": "note_on", "time": 27, "note": 52, "velocity": 101, "channel": 0}, {"type": "note_off", "time": 58, "note": 52, "velocity": 101, "channel": 0}, {"type": "note_on", "time": 21, "note": 55, "velocity": 115, "channel": 0}, {"type": "note_off", "time": 127, "note": 55, "velocity": 115, "channel": 0}, {"type": "note_on", "time": 16, "note": 53, "velocity": 110, "channel": 0}, {"type": "note_off", "time": 59, "note": 53, "velocity": 110, "channel": 0}, {"type": "note_on", "time": 5, "note": 52, "velocity": 108, "channel": 0}, {"type": "note_off", "time": 113, "note": 52, "velocity": 108, "channel": 0}, {"type": "note_on", "time": 6, "note": 53, "velocity": 112, "channel": 0}, {"type": "note_off", "time": 51, "note": 53, "velocity": 112, "channel": 0}, {"type": "note_on", "time": 11, "note": 56, "velocity": 116, "channel": 0}, {"type": "note_off", "time": 111, "note": 56, "velocity": 116, "channel": 0}, {"type": "note_on", "time": 6, "note": 55, "velocity": 114, "channel": 0}, {"type": "note_off", "time": 64, "note": 55, "velocity": 114, "channel": 0}, {"type": "note_on", "time": 16, "note": 54, "velocity": 103, "channel": 0}, {"type": "note_off", "time": 134, "note": 54, "velocity": 103, "channel": 0}, {"type": "note_on", "time": 16, "note": 56, "velocity": 101, "channel": 0}, {"type": "note_off", "time": 19, "note": 56, "velocity": 101, "channel": 0}, {"type": "note_on", "time": 16, "note": 60, "velocity": 110, "channel": 0}, {"type": "note_off", "time": 372, "note": 60, "velocity": 110, "channel": 0}, {"type": "note_on", "time": 20, "note": 58, "velocity": 116, "channel": 0}, {"type": "note_off", "time": 84, "note": 58, "velocity": 116, "channel": 0}, {"type": "note_on", "time": 16, "note": 55, "velocity": 114, "channel": 0}, {"type": "note_off", "time": 48, "note": 55, "velocity": 114, "channel": 0}, {"type": "note_on", "time": 11, "note": 50, "velocity": 109, "channel": 0}, {"type": "note_off", "time": 126, "note": 50, "velocity": 109, "channel": 0}, {"type": "note_on", "time": 78, "note": 56, "velocity": 116, "channel": 0}, {"type": "note_off", "time": 106, "note": 56, "velocity": 116, "channel": 0}, {"type": "note_on", "time": 4, "note": 55, "velocity": 117, "channel": 0}, {"type": "note_off", "time": 79, "note": 55, "velocity": 117, "channel": 0}, {"type": "note_on", "time": 900, "note": 70, "velocity": 120, "channel": 0}, {"type": "note_off", "time": 76, "note": 70, "velocity": 120, "channel": 0}, {"type": "note_on", "time": 9, "note": 74, "velocity": 115, "channel": 0}, {"type": "note_off", "time": 165, "note": 74, "velocity": 115, "channel": 0}, {"type": "note_on", "time": 13, "note": 68, "velocity": 103, "channel": 0}, {"type": "note_off", "time": 89, "note": 68, "velocity": 103, "channel": 0}, {"type": "note_on", "time": 18, "note": 72, "velocity": 121, "channel": 0}, {"type": "note_off", "time": 65, "note": 72, "velocity": 121, "channel": 0}, {"type": "note_on", "time": 9, "note": 66, "velocity": 111, "channel": 0}, {"type": "note_off", "time": 176, "note": 66, "velocity": 111, "channel": 0}, {"type": "note_on", "time": 40, "note": 70, "velocity": 117, "channel": 0}, {"type": "note_off", "time": 86, "note": 70, "velocity": 117, "channel": 0}, {"type": "note_on", "time": 12, "note": 67, "velocity": 107, "channel": 0}, {"type": "note_off", "time": 71, "note": 67, "velocity": 107, "channel": 0}, {"type": "note_on", "time": 8, "note": 68, "velocity": 119, "channel": 0}, {"type": "note_off", "time": 157, "note": 68, "velocity": 119, "channel": 0}, {"type": "note_on", "time": 45, "note": 64, "velocity": 114, "channel": 0}, {"type": "note_off", "time": 75, "note": 64, "velocity": 114, "channel": 0}, {"type": "note_on", "time": 8, "note": 68, "velocity": 122, "channel": 0}, {"type": "note_off", "time": 66, "note": 68, "velocity": 122, "channel": 0}, {"type": "note_on", "time": 14, "note": 63, "velocity": 118, "channel": 0}, {"type": "note_off", "time": 108, "note": 63, "velocity": 118, "channel": 0}, {"type": "note_on", "time": 4, "note": 66, "velocity": 112, "channel": 0}, {"type": "note_off", "time": 60, "note": 66, "velocity": 112, "channel": 0}, {"type": "note_on", "time": 28, "note": 66, "velocity": 113, "channel": 0}, {"type": "note_off", "time": 82, "note": 66, "velocity": 113, "channel": 0}, {"type": "note_on", "time": 25, "note": 62, "velocity": 118, "channel": 0}, {"type": "note_off", "time": 67, "note": 62, "velocity": 118, "channel": 0}, {"type": "note_on", "time": 16, "note": 59, "velocity": 116, "channel": 0}, {"type": "note_off", "time": 73, "note": 59, "velocity": 116, "channel": 0}, {"type": "note_on", "time": 5, "note": 56, "velocity": 119, "channel": 0}, {"type": "note_off", "time": 71, "note": 56, "velocity": 119, "channel": 0}, {"type": "note_on", "time": 21, "note": 64, "velocity": 125, "channel": 0}, {"type": "note_off", "time": 94, "note": 64, "velocity": 125, "channel": 0}, {"type": "note_on", "time": 8, "note": 63, "velocity": 117, "channel": 0}, {"type": "note_off", "time": 61, "note": 63, "velocity": 117, "channel": 0}, {"type": "note_on", "time": 18, "note": 58, "velocity": 117, "channel": 0}, {"type": "note_off", "time": 100, "note": 58, "velocity": 117, "channel": 0}, {"type": "note_on", "time": 26, "note": 54, "velocity": 113, "channel": 0}, {"type": "note_off", "time": 45, "note": 54, "velocity": 113, "channel": 0}, {"type": "note_on", "time": 11, "note": 62, "velocity": 119, "channel": 0}, {"type": "note_off", "time": 95, "note": 62, "velocity": 119, "channel": 0}, {"type": "note_on", "time": 26, "note": 61, "velocity": 119, "channel": 0}, {"type": "note_off", "time": 63, "note": 61, "velocity": 119, "channel": 0}, {"type": "note_on", "time": 21, "note": 57, "velocity": 120, "channel": 0}, {"type": "note_off", "time": 103, "note": 57, "velocity": 120, "channel": 0}, {"type": "note_on", "time": 83, "note": 61, "velocity": 119, "channel": 0}, {"type": "note_off", "time": 92, "note": 61, "velocity": 119, "channel": 0}, {"type": "note_on", "time": 4, "note": 60, "velocity": 116, "channel": 0}, {"type": "note_off", "time": 91, "note": 60, "velocity": 116, "channel": 0}, {"type": "note_on", "time": 17, "note": 56, "velocity": 117, "channel": 0}, {"type": "note_off", "time": 98, "note": 56, "velocity": 117, "channel": 0}, {"type": "note_on", "time": 16, "note": 54, "velocity": 107, "channel": 0}, {"type": "note_off", "time": 69, "note": 54, "velocity": 107, "channel": 0}, {"type": "note_on", "time": 16, "note": 58, "velocity": 118, "channel": 0}, {"type": "note_off", "time": 117, "note": 58, "velocity": 118, "channel": 0}, {"type": "note_on", "time": 12, "note": 54, "velocity": 104, "channel": 0}, {"type": "note_off", "time": 58, "note": 54, "velocity": 104, "channel": 0}, {"type": "note_on", "time": 13, "note": 57, "velocity": 122, "channel": 0}, {"type": "note_off", "time": 248, "note": 57, "velocity": 122, "channel": 0}, {"type": "note_on", "time": 43, "note": 57, "velocity": 121, "channel": 0}, {"type": "note_off", "time": 87, "note": 57, "velocity": 121, "channel": 0}, {"type": "note_on", "time": 26, "note": 55, "velocity": 115, "channel": 0}, {"type": "note_off", "time": 97, "note": 55, "velocity": 115, "channel": 0}, {"type": "note_on", "time": 56, "note": 58, "velocity": 116, "channel": 0}, {"type": "note_off", "time": 100, "note": 58, "velocity": 116, "channel": 0}, {"type": "note_on", "time": 71, "note": 61, "velocity": 117, "channel": 0}, {"type": "note_off", "time": 156, "note": 61, "velocity": 117, "channel": 0}, {"type": "note_on", "time": 19, "note": 59, "velocity": 109, "channel": 0}, {"type": "note_off", "time": 98, "note": 59, "velocity": 109, "channel": 0}, {"type": "note_on", "time": 17, "note": 56, "velocity": 117, "channel": 0}, {"type": "note_off", "time": 78, "note": 56, "velocity": 117, "channel": 0}, {"type": "note_on", "time": 30, "note": 64, "velocity": 115, "channel": 0}, {"type": "note_off", "time": 103, "note": 64, "velocity": 115, "channel": 0}, {"type": "note_on", "time": 207, "note": 69, "velocity": 114, "channel": 0}, {"type": "note_off", "time": 30, "note": 69, "velocity": 114, "channel": 0}, {"type": "note_on", "time": 11, "note": 71, "velocity": 115, "channel": 0}, {"type": "note_off", "time": 98, "note": 71, "velocity": 115, "channel": 0}, {"type": "note_on", "time": 96, "note": 70, "velocity": 114, "channel": 0}, {"type": "note_off", "time": 64, "note": 70, "velocity": 114, "channel": 0}, {"type": "note_on", "time": 6, "note": 71, "velocity": 114, "channel": 0}, {"type": "note_off", "time": 52, "note": 71, "velocity": 114, "channel": 0}, {"type": "note_on", "time": 4, "note": 68, "velocity": 116, "channel": 0}, {"type": "note_off", "time": 47, "note": 68, "velocity": 116, "channel": 0}, {"type": "note_on", "time": 14, "note": 64, "velocity": 120, "channel": 0}, {"type": "note_off", "time": 76, "note": 64, "velocity": 120, "channel": 0}, {"type": "note_on", "time": 26, "note": 67, "velocity": 118, "channel": 0}, {"type": "note_off", "time": 65, "note": 67, "velocity": 118, "channel": 0}, {"type": "note_on", "time": 26, "note": 65, "velocity": 107, "channel": 0}, {"type": "note_off", "time": 84, "note": 65, "velocity": 107, "channel": 0}, {"type": "note_on", "time": 24, "note": 61, "velocity": 120, "channel": 0}, {"type": "note_off", "time": 80, "note": 61, "velocity": 120, "channel": 0}, {"type": "note_on", "time": 20, "note": 59, "velocity": 115, "channel": 0}, {"type": "note_off", "time": 79, "note": 59, "velocity": 115, "channel": 0}, {"type": "note_on", "time": 17, "note": 56, "velocity": 113, "channel": 0}, {"type": "note_off", "time": 64, "note": 56, "velocity": 113, "channel": 0}, {"type": "note_on", "time": 14, "note": 63, "velocity": 118, "channel": 0}, {"type": "note_off", "time": 87, "note": 63, "velocity": 118, "channel": 0}, {"type": "note_on", "time": 14, "note": 58, "velocity": 114, "channel": 0}, {"type": "note_off", "time": 107, "note": 58, "velocity": 114, "channel": 0}, {"type": "note_on", "time": 10, "note": 54, "velocity": 107, "channel": 0}, {"type": "note_off", "time": 49, "note": 54, "velocity": 107, "channel": 0}, {"type": "note_on", "time": 12, "note": 50, "velocity": 101, "channel": 0}, {"type": "note_off", "time": 57, "note": 50, "velocity": 101, "channel": 0}, {"type": "note_on", "time": 45, "note": 57, "velocity": 120, "channel": 0}, {"type": "note_off", "time": 90, "note": 57, "velocity": 120, "channel": 0}, {"type": "note_on", "time": 25, "note": 54, "velocity": 108, "channel": 0}, {"type": "note_off", "time": 67, "note": 54, "velocity": 108, "channel": 0}, {"type": "note_on", "time": 9, "note": 55, "velocity": 118, "channel": 0}, {"type": "note_off", "time": 121, "note": 55, "velocity": 118, "channel": 0}, {"type": "note_on", "time": 247, "note": 66, "velocity": 118, "channel": 0}, {"type": "note_off", "time": 62, "note": 66, "velocity": 118, "channel": 0}, {"type": "note_on", "time": 12, "note": 67, "velocity": 118, "channel": 0}, {"type": "note_off", "time": 382, "note": 67, "velocity": 118, "channel": 0}, {"type": "note_on", "time": 6, "note": 67, "velocity": 115, "channel": 0}, {"type": "note_off", "time": 74, "note": 67, "velocity": 115, "channel": 0}, {"type": "note_on", "time": 27, "note": 66, "velocity": 118, "channel": 0}, {"type": "note_off", "time": 91, "note": 66, "velocity": 118, "channel": 0}, {"type": "note_on", "time": 16, "note": 66, "velocity": 113, "channel": 0}, {"type": "note_off", "time": 58, "note": 66, "velocity": 113, "channel": 0}, {"type": "note_on", "time": 15, "note": 65, "velocity": 116, "channel": 0}, {"type": "note_off", "time": 98, "note": 65, "velocity": 116, "channel": 0}, {"type": "note_on", "time": 12, "note": 65, "velocity": 118, "channel": 0}, {"type": "note_off", "time": 68, "note": 65, "velocity": 118, "channel": 0}, {"type": "note_on", "time": 14, "note": 63, "velocity": 123, "channel": 0}, {"type": "note_off", "time": 96, "note": 63, "velocity": 123, "channel": 0}, {"type": "note_on", "time": 11, "note": 63, "velocity": 122, "channel": 0}, {"type": "note_off", "time": 61, "note": 63, "velocity": 122, "channel": 0}, {"type": "note_on", "time": 12, "note": 62, "velocity": 117, "channel": 0}, {"type": "note_off", "time": 101, "note": 62, "velocity": 117, "channel": 0}, {"type": "note_on", "time": 20, "note": 62, "velocity": 123, "channel": 0}, {"type": "note_off", "time": 62, "note": 62, "velocity": 123, "channel": 0}, {"type": "note_on", "time": 10, "note": 60, "velocity": 122, "channel": 0}, {"type": "note_off", "time": 106, "note": 60, "velocity": 122, "channel": 0}, {"type": "note_on", "time": 8, "note": 60, "velocity": 119, "channel": 0}, {"type": "note_off", "time": 67, "note": 60, "velocity": 119, "channel": 0}, {"type": "note_on", "time": 10, "note": 58, "velocity": 123, "channel": 0}, {"type": "note_off", "time": 133, "note": 58, "velocity": 123, "channel": 0}, {"type": "note_on", "time": 141, "note": 57, "velocity": 117, "channel": 0}, {"type": "note_off", "time": 270, "note": 57, "velocity": 117, "channel": 0}, {"type": "end_of_track", "time": 0}]]}