{"ticks_per_beat": 192, "tracks": [[{"type": "note_on", "time": 0, "note": 67, "velocity": 83, "channel": 0}, {"type": "note_off", "time": 66, "note": 67, "velocity": 83, "channel": 0}, {"type": "note_on", "time": 11, "note": 65, "velocity": 87, "channel": 0}, {"type": "note_off", "time": 84, "note": 65, "velocity": 87, "channel": 0}, {"type": "note_on", "time": 5, "note": 63, "velocity": 96, "channel": 0}, {"type": "note_off", "time": 93, "note": 63, "velocity": 96, "channel": 0}, {"type": "note_on", "time": 10, "note": 62, "velocity": 89, "channel": 0}, {"type": "note_off", "time": 81, "note": 62, "velocity": 89, "channel": 0}, {"type": "note_on", "time": 22, "note": 63, "velocity": 96, "channel": 0}, {"type": "note_off", "time": 93, "note": 63, "velocity": 96, "channel": 0}, {"type": "note_on", "time": 13, "note": 65, "velocity": 86, "channel": 0}, {"type": "note_off", "time": 63, "note": 65, "velocity": 86, "channel": 0}, {"type": "note_on", "time": 35, "note": 67, "velocity": 93, "channel": 0}, {"type": "note_off", "time": 87, "note": 67, "velocity": 93, "channel": 0}, {"type": "note_on", "time": 23, "note": 70, "velocity": 96, "channel": 0}, {"type": "note_off", "time": 81, "note": 70, "velocity": 96, "channel": 0}, {"type": "note_on", "time": 9, "note": 71, "velocity": 97, "channel": 0}, {"type": "track_name", "name": "Melody", "time": 40}, {"type": "set_tempo", "tempo": 298507, "time": 0}, {"type": "key_signature", "key": "Eb", "time": 0}, {"type": "time_signature", "numerator": 4, "denominator": 4, "clocks_per_click": 24, "notated_32nd_notes_per_beat": 8, "time": 0}, {"type": "note_off", "time": 13, "note": 71, "velocity": 97, "channel": 0}, {"type": "note_on", "time": 11, "note": 72, "velocity": 88, "channel": 0}, {"type": "note_off", "time": 50, "note": 72, "velocity": 88, "channel": 0}, {"type": "note_on", "time": 7, "note": 73, "velocity": 81, "channel": 0}, {"type": "note_off", "time": 80, "note": 73, "velocity": 81, "channel": 0}, {"type": "note_on", "time": 11, "note": 74, "velocity": 88, "channel": 0}, {"type": "note_off", "time": 125, "note": 74, "velocity": 88, "channel": 0}, {"type": "note_on", "time": 22, "note": 71, "velocity": 90, "channel": 0}, {"type": "note_off", "time": 64, "note": 71, "velocity": 90, "channel": 0}, {"type": "note_on", "time": 16, "note": 67, "velocity": 92, "channel": 0}, {"type": "note_off", "time": 82, "note": 67, "velocity": 92, "channel": 0}, {"type": "note_on", "time": 95, "note": 70, "velocity": 97, "channel": 0}, {"type": "note_off", "time": 72, "note": 70, "velocity": 97, "channel": 0}, {"type": "note_on", "time": 63, "note": 71, "velocity": 97, "channel": 0}, {"type": "note_off", "time": 171, "note": 71, "velocity": 97, "channel": 0}, {"type": "note_on", "time": 31, "note": 66, "velocity": 85, "channel": 0}, {"type": "note_off", "time": 53, "note": 66, "velocity": 85, "channel": 0}, {"type": "note_on", "time": 14, "note": 70, "velocity": 92, "channel": 0}, {"type": "note_off", "time": 74, "note": 70, "velocity": 92, "channel": 0}, {"type": "note_on", "time": 21, "note": 67, "velocity": 94, "channel": 0}, {"type": "note_off", "time": 74, "note": 67, "velocity": 94, "channel": 0}, {"type": "note_on", "time": 15, "note": 65, "velocity": 96, "channel": 0}, {"type": "note_off", "time": 46, "note": 65, "velocity": 96, "channel": 0}, {"type": "note_on", "time": 59, "note": 65, "velocity": 93, "channel": 0}, {"type": "note_off", "time": 49, "note": 65, "velocity": 93, "channel": 0}, {"type": "note_on", "time": 25, "note": 67, "velocity": 101, "channel": 0}, {"type": "note_off", "time": 98, "note": 67, "velocity": 101, "channel": 0}, {"type": "note_on", "time": 261, "note": 65, "velocity": 106, "channel": 0}, {"type": "note_off", "time": 106, "note": 65, "velocity": 106, "channel": 0}, {"type": "note_on", "time": 9, "note": 63, "velocity": 107, "channel": 0}, {"type": "note_off", "time": 67, "note": 63, "velocity": 107, "channel": 0}, {"type": "note_on", "time": 222, "note": 62, "velocity": 109, "channel": 0}, {"type": "note_off", "time": 115, "note": 62, "velocity": 109, "channel": 0}, {"type": "note_on", "time": 9, "note": 63, "velocity": 94, "channel": 0}, {"type": "note_off", "time": 53, "note": 63, "velocity": 94, "channel": 0}, {"type": "note_on", "time": 28, "note": 65, "velocity": 100, "channel": 0}, {"type": "note_off", "time": 158, "note": 65, "velocity": 100, "channel": 0}, {"type": "note_on", "time": 15, "note": 63, "velocity": 102, "channel": 0}, {"type": "note_off", "time": 164, "note": 63, "velocity": 102, "channel": 0}, {"type": "note_on", "time": 34, "note": 60, "velocity": 90, "channel": 0}, {"type": "note_off", "time": 100, "note": 60, "velocity": 90, "channel": 0}, {"type": "note_on", "time": 64, "note": 63, "velocity": 85, "channel": 0}, {"type": "note_off", "time": 387, "note": 63, "velocity": 85, "channel": 0}, {"type": "note_on", "time": 30, "note": 65, "velocity": 96, "channel": 0}, {"type": "note_off", "time": 136, "note": 65, "velocity": 96, "channel": 0}, {"type": "note_on", "time": 425, "note": 67, "velocity": 110, "channel": 0}, {"type": "note_off", "time": 126, "note": 67, "velocity": 110, "channel": 0}, {"type": "note_on", "time": 3, "note": 65, "velocity": 105, "channel": 0}, {"type": "note_off", "time": 72, "note": 65, "velocity": 105, "channel": 0}, {"type": "note_on", "time": 7, "note": 63, "velocity": 111, "channel": 0}, {"type": "note_off", "time": 118, "note": 63, "velocity": 111, "channel": 0}, {"type": "note_on", "time": 21, "note": 62, "velocity": 106, "channel": 0}, {"type": "note_off", "time": 80, "note": 62, "velocity": 106, "channel": 0}, {"type": "note_on", "time": 76, "note": 60, "velocity": 102, "channel": 0}, {"type": "note_off", "time": 104, "note": 60, "velocity": 102, "channel": 0}, {"type": "note_on", "time": 105, "note": 63, "velocity": 111, "channel": 0}, {"type": "note_off", "time": 91, "note": 63, "velocity": 111, "channel": 0}, {"type": "note_on", "time": 177, "note": 62, "velocity": 108, "channel": 0}, {"type": "note_off", "time": 127, "note": 62, "velocity": 108, "channel": 0}, {"type": "note_on", "time": 30, "note": 58, "velocity": 90, "channel": 0}, {"type": "note_off", "time": 122, "note": 58, "velocity": 90, "channel": 0}, {"type": "note_on", "time": 111, "note": 62, "velocity": 109, "channel": 0}, {"type": "note_off", "time": 116, "note": 62, "velocity": 109, "channel": 0}, {"type": "note_on", "time": 252, "note": 60, "velocity": 107, "channel": 0}, {"type": "note_off", "time": 125, "note": 60, "velocity": 107, "channel": 0}, {"type": "note_on", "time": 11, "note": 58, "velocity": 92, "channel": 0}, {"type": "note_off", "time": 61, "note": 58, "velocity": 92, "channel": 0}, {"type": "note_on", "time": 24, "note": 55, "velocity": 81, "channel": 0}, {"type": "note_off", "time": 154, "note": 55, "velocity": 81, "channel": 0}, {"type": "note_on", "time": 13, "note": 55, "velocity": 84, "channel": 0}, {"type": "note_off", "time": 349, "note": 55, "velocity": 84, "channel": 0}, {"type": "note_on", "time": 16, "note": 55, "velocity": 92, "channel": 0}, {"type": "note_off", "time": 82, "note": 55, "velocity": 92, "channel": 0}, {"type": "note_on", "time": 1250, "note": 67, "velocity": 106, "channel": 0}, {"type": "note_off", "time": 133, "note": 67, "velocity": 106, "channel": 0}, {"type": "note_on", "time": 72, "note": 71, "velocity": 105, "channel": 0}, {"type": "note_off", "time": 364, "note": 71, "velocity": 105, "channel": 0}, {"type": "note_on", "time": 13, "note": 74, "velocity": 101, "channel": 0}, {"type": "note_off", "time": 98, "note": 74, "velocity": 101, "channel": 0}, {"type": "note_on", "time": 74, "note": 65, "velocity": 96, "channel": 0}, {"type": "note_off", "time": 86, "note": 65, "velocity": 96, "channel": 0}, {"type": "note_on", "time": 481, "note": 63, "velocity": 113, "channel": 0}, {"type": "note_off", "time": 311, "note": 63, "velocity": 113, "channel": 0}, {"type": "note_on", "time": 100, "note": 72, "velocity": 103, "channel": 0}, {"type": "note_off", "time": 129, "note": 72, "velocity": 103, "channel": 0}, {"type": "note_on", "time": 48, "note": 62, "velocity": 90, "channel": 0}, {"type": "note_off", "time": 163, "note": 62, "velocity": 90, "channel": 0}, {"type": "note_on", "time": 21, "note": 60, "velocity": 87, "channel": 0}, {"type": "note_off", "time": 160, "note": 60, "velocity": 87, "channel": 0}, {"type": "note_on", "time": 26, "note": 63, "velocity": 102, "channel": 0}, {"type": "note_off", "time": 185, "note": 63, "velocity": 102, "channel": 0}, {"type": "note_on", "time": 11, "note": 57, "velocity": 89, "channel": 0}, {"type": "note_off", "time": 131, "note": 57, "velocity": 89, "channel": 0}, {"type": "note_on", "time": 802, "note": 67, "velocity": 111, "channel": 0}, {"type": "note_off", "time": 124, "note": 67, "velocity": 111, "channel": 0}, {"type": "note_on", "time": 95, "note": 70, "velocity": 108, "channel": 0}, {"type": "note_off", "time": 112, "note": 70, "velocity": 108, "channel": 0}, {"type": "note_on", "time": 66, "note": 71, "velocity": 105, "channel": 0}, {"type": "note_off", "time": 97, "note": 71, "velocity": 105, "channel": 0}, {"type": "note_on", "time": 35, "note": 74, "velocity": 98, "channel": 0}, {"type": "note_off", "time": 59, "note": 74, "velocity": 98, "channel": 0}, {"type": "note_on", "time": 41, "note": 67, "velocity": 98, "channel": 0}, {"type": "note_off", "time": 100, "note": 67, "velocity": 98, "channel": 0}, {"type": "note_on", "time": 34, "note": 71, "velocity": 99, "channel": 0}, {"type": "note_off", "time": 101, "note": 71, "velocity": 99, "channel": 0}, {"type": "note_on", "time": 64, "note": 70, "velocity": 99, "channel": 0}, {"type": "note_off", "time": 99, "note": 70, "velocity": 99, "channel": 0}, {"type": "note_on", "time": 93, "note": 67, "velocity": 103, "channel": 0}, {"type": "note_off", "time": 74, "note": 67, "velocity": 103, "channel": 0}, {"type": "note_on", "time": 91, "note": 63, "velocity": 84, "channel": 0}, {"type": "note_off", "time": 36, "note": 63, "velocity": 84, "channel": 0}, {"type": "note_on", "time": 61, "note": 65, "velocity": 110, "channel": 0}, {"type": "note_off", "time": 76, "note": 65, "velocity": 110, "channel": 0}, {"type": "note_on", "time": 34, "note": 62, "velocity": 104, "channel": 0}, {"type": "note_off", "time": 66, "note": 62, "velocity": 104, "channel": 0}, {"type": "note_on", "time": 1, "note": 63, "velocity": 103, "channel": 0}, {"type": "note_off", "time": 80, "note": 63, "velocity": 103, "channel": 0}, {"type": "note_on", "time": 17, "note": 67, "velocity": 106, "channel": 0}, {"type": "note_off", "time": 77, "note": 67, "velocity": 106, "channel": 0}, {"type": "note_on", "time": 9, "note": 66, "velocity": 101, "channel": 0}, {"type": "note_off", "time": 60, "note": 66, "velocity": 101, "channel": 0}, {"type": "note_on", "time": 45, "note": 62, "velocity": 101, "channel": 0}, {"type": "note_off", "time": 45, "note": 62, "velocity": 101, "channel": 0}, {"type": "note_on", "time": 33, "note": 65, "velocity": 106, "channel": 0}, {"type": "note_off", "time": 163, "note": 65, "velocity": 106, "channel": 0}, {"type": "note_on", "time": 18, "note": 63, "velocity": 112, "channel": 0}, {"type": "note_off", "time": 85, "note": 63, "velocity": 112, "channel": 0}, {"type": "note_on", "time": 9, "note": 62, "velocity": 104, "channel": 0}, {"type": "note_off", "time": 69, "note": 62, "velocity": 104, "channel": 0}, {"type": "note_on", "time": 26, "note": 60, "velocity": 100, "channel": 0}, {"type": "note_off", "time": 79, "note": 60, "velocity": 100, "channel": 0}, {"type": "note_on", "time": 34, "note": 58, "velocity": 89, "channel": 0}, {"type": "note_off", "time": 132, "note": 58, "velocity": 89, "channel": 0}, {"type": "note_on", "time": 43, "note": 62, "velocity": 106, "channel": 0}, {"type": "note_off", "time": 85, "note": 62, "velocity": 106, "channel": 0}, {"type": "note_on", "time": 0, "note": 59, "velocity": 80, "channel": 0}, {"type": "note_off", "time": 127, "note": 59, "velocity": 80, "channel": 0}, {"type": "note_on", "time": 47, "note": 60, "velocity": 103, "channel": 0}, {"type": "note_off", "time": 126, "note": 60, "velocity": 103, "channel": 0}, {"type": "note_on", "time": 31, "note": 58, "velocity": 90, "channel": 0}, {"type": "note_off", "time": 44, "note": 58, "velocity": 90, "channel": 0}, {"type": "note_on", "time": 176, "note": 53, "velocity": 95, "channel": 0}, {"type": "note_off", "time": 129, "note": 53, "velocity": 95, "channel": 0}, {"type": "note_on", "time": 283, "note": 51, "velocity": 92, "channel": 0}, {"type": "note_off", "time": 143, "note": 51, "velocity": 92, "channel": 0}, {"type": "note_on", "time": 53, "note": 53, "velocity": 88, "channel": 0}, {"type": "note_off", "time": 59, "note": 53, "velocity": 88, "channel": 0}, {"type": "note_on", "time": 27, "note": 55, "velocity": 90, "channel": 0}, {"type": "note_off", "time": 87, "note": 55, "velocity": 90, "channel": 0}, {"type": "note_on", "time": 383, "note": 58, "velocity": 95, "channel": 0}, {"type": "note_off", "time": 115, "note": 58, "velocity": 95, "channel": 0}, {"type": "note_on", "time": 84, "note": 56, "velocity": 91, "channel": 0}, {"type": "note_off", "time": 101, "note": 56, "velocity": 91, "channel": 0}, {"type": "note_on", "time": 36, "note": 55, "velocity": 87, "channel": 0}, {"type": "note_off", "time": 132, "note": 55, "velocity": 87, "channel": 0}, {"type": "note_on", "time": 238, "note": 62, "velocity": 97, "channel": 0}, {"type": "note_off", "time": 50, "note": 62, "velocity": 97, "channel": 0}, {"type": "note_on", "time": 29, "note": 65, "velocity": 106, "channel": 0}, {"type": "note_off", "time": 102, "note": 65, "velocity": 106, "channel": 0}, {"type": "note_on", "time": 29, "note": 63, "velocity": 104, "channel": 0}, {"type": "note_off", "time": 136, "note": 63, "velocity": 104, "channel": 0}, {"type": "note_on", "time": 25, "note": 65, "velocity": 99, "channel": 0}, {"type": "note_off", "time": 86, "note": 65, "velocity": 99, "channel": 0}, {"type": "note_on", "time": 18, "note": 66, "velocity": 90, "channel": 0}, {"type": "note_off", "time": 92, "note": 66, "velocity": 90, "channel": 0}, {"type": "note_on", "time": 10, "note": 67, "velocity": 93, "channel": 0}, {"type": "note_off", "time": 40, "note": 67, "velocity": 93, "channel": 0}, {"type": "note_on", "time": 32, "note": 70, "velocity": 101, "channel": 0}, {"type": "note_off", "time": 89, "note": 70, "velocity": 101, "channel": 0}, {"type": "note_on", "time": 7, "note": 69, "velocity": 98, "channel": 0}, {"type": "note_off", "time": 90, "note": 69, "velocity": 98, "channel": 0}, {"type": "note_on", "time": 9, "note": 68, "velocity": 105, "channel": 0}, {"type": "note_off", "time": 90, "note": 68, "velocity": 105, "channel": 0}, {"type": "note_on", "time": 103, "note": 66, "velocity": 94, "channel": 0}, {"type": "note_off", "time": 63, "note": 66, "velocity": 94, "channel": 0}, {"type": "note_on", "time": 27, "note": 68, "velocity": 107, "channel": 0}, {"type": "note_off", "time": 65, "note": 68, "velocity": 107, "channel": 0}, {"type": "note_on", "time": 15, "note": 67, "velocity": 87, "channel": 0}, {"type": "note_off", "time": 81, "note": 67, "velocity": 87, "channel": 0}, {"type": "note_on", "time": 19, "note": 64, "velocity": 94, "channel": 0}, {"type": "note_off", "time": 58, "note": 64, "velocity": 94, "channel": 0}, {"type": "note_on", "time": 35, "note": 65, "velocity": 99, "channel": 0}, {"type": "note_off", "time": 103, "note": 65, "velocity": 99, "channel": 0}, {"type": "note_on", "time": 18, "note": 61, "velocity": 98, "channel": 0}, {"type": "note_off", "time": 87, "note": 61, "velocity": 98, "channel": 0}, {"type": "note_on", "time": 126, "note": 54, "velocity": 88, "channel": 0}, {"type": "note_off", "time": 106, "note": 54, "velocity": 88, "channel": 0}, {"type": "note_on", "time": 99, "note": 56, "velocity": 91, "channel": 0}, {"type": "note_off", "time": 113, "note": 56, "velocity": 91, "channel": 0}, {"type": "note_on", "time": 98, "note": 54, "velocity": 85, "channel": 0}, {"type": "note_off", "time": 86, "note": 54, "velocity": 85, "channel": 0}, {"type": "note_on", "time": 8, "note": 58, "velocity": 92, "channel": 0}, {"type": "note_off", "time": 61, "note": 58, "velocity": 92, "channel": 0}, {"type": "note_on", "time": 7, "note": 52, "velocity": 94, "channel": 0}, {"type": "note_off", "time": 181, "note": 52, "velocity": 94, "channel": 0}, {"type": "note_on", "time": 108, "note": 54, "velocity": 93, "channel": 0}, {"type": "note_off", "time": 180, "note": 54, "velocity": 93, "channel": 0}, {"type": "note_on", "time": 543, "note": 48, "velocity": 105, "channel": 0}, {"type": "note_off", "time": 98, "note": 48, "velocity": 105, "channel": 0}, {"type": "note_on", "time": 19, "note": 51, "velocity": 98, "channel": 0}, {"type": "note_off", "time": 81, "note": 51, "velocity": 98, "channel": 0}, {"type": "note_on", "time": 14, "note": 53, "velocity": 101, "channel": 0}, {"type": "note_off", "time": 81, "note": 53, "velocity": 101, "channel": 0}, {"type": "note_on", "time": 15, "note": 51, "velocity": 91, "channel": 0}, {"type": "note_off", "time": 112, "note": 51, "velocity": 91, "channel": 0}, {"type": "note_on", "time": 39, "note": 54, "velocity": 96, "channel": 0}, {"type": "note_off", "time": 62, "note": 54, "velocity": 96, "channel": 0}, {"type": "note_on", "time": 6, "note": 58, "velocity": 94, "channel": 0}, {"type": "note_off", "time": 85, "note": 58, "velocity": 94, "channel": 0}, {"type": "note_on", "time": 69, "note": 56, "velocity": 82, "channel": 0}, {"type": "note_off", "time": 111, "note": 56, "velocity": 82, "channel": 0}, {"type": "note_on", "time": 12, "note": 60, "velocity": 105, "channel": 0}, {"type": "note_off", "time": 43, "note": 60, "velocity": 105, "channel": 0}, {"type": "note_on", "time": 182, "note": 58, "velocity": 88, "channel": 0}, {"type": "note_off", "time": 87, "note": 58, "velocity": 88, "channel": 0}, {"type": "note_on", "time": 97, "note": 62, "velocity": 103, "channel": 0}, {"type": "note_off", "time": 40, "note": 62, "velocity": 103, "channel": 0}, {"type": "note_on", "time": 1, "note": 63, "velocity": 102, "channel": 0}, {"type": "note_off", "time": 45, "note": 63, "velocity": 102, "channel": 0}, {"type": "note_on", "time": 14, "note": 65, "velocity": 90, "channel": 0}, {"type": "note_off", "time": 58, "note": 65, "velocity": 90, "channel": 0}, {"type": "note_on", "time": 36, "note": 67, "velocity": 96, "channel": 0}, {"type": "note_off", "time": 78, "note": 67, "velocity": 96, "channel": 0}, {"type": "note_on", "time": 35, "note": 68, "velocity": 103, "channel": 0}, {"type": "note_off", "time": 124, "note": 68, "velocity": 103, "channel": 0}, {"type": "note_on", "time": 42, "note": 67, "velocity": 103, "channel": 0}, {"type": "note_off", "time": 108, "note": 67, "velocity": 103, "channel": 0}, {"type": "note_on", "time": 228, "note": 65, "velocity": 103, "channel": 0}, {"type": "note_off", "time": 147, "note": 65, "velocity": 103, "channel": 0}, {"type": "note_on", "time": 2, "note": 64, "velocity": 86, "channel": 0}, {"type": "note_off", "time": 72, "note": 64, "velocity": 86, "channel": 0}, {"type": "note_on", "time": 7, "note": 65, "velocity": 98, "channel": 0}, {"type": "note_off", "time": 97, "note": 65, "velocity": 98, "channel": 0}, {"type": "note_on", "time": 91, "note": 65, "velocity": 106, "channel": 0}, {"type": "note_off", "time": 105, "note": 65, "velocity": 106, "channel": 0}, {"type": "note_on", "time": 17, "note": 63, "velocity": 105, "channel": 0}, {"type": "note_off", "time": 90, "note": 63, "velocity": 105, "channel": 0}, {"type": "note_on", "time": 12, "note": 62, "velocity": 95, "channel": 0}, {"type": "note_off", "time": 85, "note": 62, "velocity": 95, "channel": 0}, {"type": "note_on", "time": 13, "note": 60, "velocity": 97, "channel": 0}, {"type": "note_off", "time": 54, "note": 60, "velocity": 97, "channel": 0}, {"type": "note_on", "time": 6, "note": 59, "velocity": 94, "channel": 0}, {"type": "note_off", "time": 100, "note": 59, "velocity": 94, "channel": 0}, {"type": "note_on", "time": 107, "note": 62, "velocity": 104, "channel": 0}, {"type": "note_off", "time": 103, "note": 62, "velocity": 104, "channel": 0}, {"type": "note_on", "time": 17, "note": 60, "velocity": 88, "channel": 0}, {"type": "note_off", "time": 53, "note": 60, "velocity": 88, "channel": 0}, {"type": "note_on", "time": 10, "note": 60, "velocity": 94, "channel": 0}, {"type": "note_off", "time": 97, "note": 60, "velocity": 94, "channel": 0}, {"type": "note_on", "time": 11, "note": 62, "velocity": 98, "channel": 0}, {"type": "note_off", "time": 90, "note": 62, "velocity": 98, "channel": 0}, {"type": "note_on", "time": 66, "note": 63, "velocity": 83, "channel": 0}, {"type": "note_off", "time": 42, "note": 63, "velocity": 83, "channel": 0}, {"type": "note_on", "time": 16, "note": 67, "velocity": 89, "channel": 0}, {"type": "note_off", "time": 62, "note": 67, "velocity": 89, "channel": 0}, {"type": "note_on", "time": 3, "note": 72, "velocity": 104, "channel": 0}, {"type": "note_off", "time": 109, "note": 72, "velocity": 104, "channel": 0}, {"type": "note_on", "time": 673, "note": 71, "velocity": 108, "channel": 0}, {"type": "note_off", "time": 40, "note": 71, "velocity": 108, "channel": 0}, {"type": "note_on", "time": 4, "note": 72, "velocity": 104, "channel": 0}, {"type": "note_off", "time": 47, "note": 72, "velocity": 104, "channel": 0}, {"type": "note_on", "time": 25, "note": 75, "velocity": 93, "channel": 0}, {"type": "note_off", "time": 360, "note": 75, "velocity": 93, "channel": 0}, {"type": "note_on", "time": 124, "note": 74, "velocity": 95, "channel": 0}, {"type": "note_off", "time": 73, "note": 74, "velocity": 95, "channel": 0}, {"type": "note_on", "time": 15, "note": 71, "velocity": 98, "channel": 0}, {"type": "note_off", "time": 67, "note": 71, "velocity": 98, "channel": 0}, {"type": "note_on", "time": 9, "note": 67, "velocity": 100, "channel": 0}, {"type": "note_off", "time": 257, "note": 67, "velocity": 100, "channel": 0}, {"type": "note_on", "time": 37, "note": 71, "velocity": 98, "channel": 0}, {"type": "note_off", "time": 66, "note": 71, "velocity": 98, "channel": 0}, {"type": "note_on", "time": 9, "note": 69, "velocity": 103, "channel": 0}, {"type": "note_off", "time": 100, "note": 69, "velocity": 103, "channel": 0}, {"type": "note_on", "time": 15, "note": 65, "velocity": 99, "channel": 0}, {"type": "note_off", "time": 66, "note": 65, "velocity": 99, "channel": 0}, {"type": "note_on", "time": 481, "note": 65, "velocity": 105, "channel": 0}, {"type": "note_off", "time": 70, "note": 65, "velocity": 105, "channel": 0}, {"type": "note_on", "time": 37, "note": 69, "velocity": 104, "channel": 0}, {"type": "note_off", "time": 85, "note": 69, "velocity": 104, "channel": 0}, {"type": "note_on", "time": 7, "note": 71, "velocity": 98, "channel": 0}, {"type": "note_on", "time": 74, "note": 75, "velocity": 90, "channel": 0}, {"type": "note_off", "time": 0, "note": 71, "velocity": 98, "channel": 0}, {"type": "note_off", "time": 105, "note": 75, "velocity": 90, "channel": 0}, {"type": "note_on", "time": 21, "note": 71, "velocity": 87, "channel": 0}, {"type": "note_off", "time": 52, "note": 71, "velocity": 87, "channel": 0}, {"type": "note_on", "time": 13, "note": 74, "velocity": 101, "channel": 0}, {"type": "note_off", "time": 98, "note": 74, "velocity": 101, "channel": 0}, {"type": "note_on", "time": 18, "note": 71, "velocity": 98, "channel": 0}, {"type": "note_off", "time": 41, "note": 71, "velocity": 98, "channel": 0}, {"type": "note_on", "time": 31, "note": 67, "velocity": 96, "channel": 0}, {"type": "note_off", "time": 82, "note": 67, "velocity": 96, "channel": 0}, {"type": "note_on", "time": 111, "note": 69, "velocity": 102, "channel": 0}, {"type": "note_off", "time": 113, "note": 69, "velocity": 102, "channel": 0}, {"type": "note_on", "time": 59, "note": 74, "velocity": 93, "channel": 0}, {"type": "note_off", "time": 117, "note": 74, "velocity": 93, "channel": 0}, {"type": "note_on", "time": 21, "note": 72, "velocity": 95, "channel": 0}, {"type": "note_off", "time": 79, "note": 72, "velocity": 95, "channel": 0}, {"type": "note_on", "time": 157, "note": 71, "velocity": 105, "channel": 0}, {"type": "note_off", "time": 115, "note": 71, "velocity": 105, "channel": 0}, {"type": "note_on", "time": 11, "note": 69, "velocity": 105, "channel": 0}, {"type": "note_off", "time": 69, "note": 69, "velocity": 105, "channel": 0}, {"type": "note_on", "time": 26, "note": 68, "velocity": 104, "channel": 0}, {"type": "note_off", "time": 85, "note": 68, "velocity": 104, "channel": 0}, {"type": "note_on", "time": 21, "note": 71, "velocity": 100, "channel": 0}, {"type": "note_off", "time": 52, "note": 71, "velocity": 100, "channel": 0}, {"type": "note_on", "time": 22, "note": 68, "velocity": 100, "channel": 0}, {"type": "note_off", "time": 112, "note": 68, "velocity": 100, "channel": 0}, {"type": "note_on", "time": 6, "note": 67, "velocity": 99, "channel": 0}, {"type": "note_off", "time": 63, "note": 67, "velocity": 99, "channel": 0}, {"type": "note_on", "time": 8, "note": 66, "velocity": 95, "channel": 0}, {"type": "note_off", "time": 93, "note": 66, "velocity": 95, "channel": 0}, {"type": "note_on", "time": 29, "note": 67, "velocity": 98, "channel": 0}, {"type": "note_off", "time": 80, "note": 67, "velocity": 98, "channel": 0}, {"type": "note_on", "time": 8, "note": 68, "velocity": 99, "channel": 0}, {"type": "note_off", "time": 88, "note": 68, "velocity": 99, "channel": 0}, {"type": "note_on", "time": 7, "note": 71, "velocity": 94, "channel": 0}, {"type": "note_off", "time": 78, "note": 71, "velocity": 94, "channel": 0}, {"type": "note_on", "time": 20, "note": 66, "velocity": 98, "channel": 0}, {"type": "note_off", "time": 105, "note": 66, "velocity": 98, "channel": 0}, {"type": "note_on", "time": 75, "note": 64, "velocity": 103, "channel": 0}, {"type": "note_off", "time": 110, "note": 64, "velocity": 103, "channel": 0}, {"type": "note_on", "time": 17, "note": 66, "velocity": 95, "channel": 0}, {"type": "note_off", "time": 250, "note": 66, "velocity": 95, "channel": 0}, {"type": "note_on", "time": 25, "note": 63, "velocity": 100, "channel": 0}, {"type": "note_off", "time": 59, "note": 63, "velocity": 100, "channel": 0}, {"type": "note_on", "time": 132, "note": 67, "velocity": 92, "channel": 0}, {"type": "note_off", "time": 241, "note": 67, "velocity": 92, "channel": 0}, {"type": "note_on", "time": 678, "note": 66, "velocity": 113, "channel": 0}, {"type": "note_off", "time": 120, "note": 66, "velocity": 113, "channel": 0}, {"type": "note_on", "time": 5, "note": 65, "velocity": 106, "channel": 0}, {"type": "note_off", "time": 628, "note": 65, "velocity": 106, "channel": 0}, {"type": "note_on", "time": 3, "note": 63, "velocity": 111, "channel": 0}, {"type": "note_off", "time": 100, "note": 63, "velocity": 111, "channel": 0}, {"type": "note_on", "time": 116, "note": 67, "velocity": 106, "channel": 0}, {"type": "note_off", "time": 359, "note": 67, "velocity": 106, "channel": 0}, {"type": "note_on", "time": 45, "note": 65, "velocity": 100, "channel": 0}, {"type": "note_off", "time": 88, "note": 65, "velocity": 100, "channel": 0}, {"type": "note_on", "time": 6, "note": 63, "velocity": 106, "channel": 0}, {"type": "note_off", "time": 64, "note": 63, "velocity": 106, "channel": 0}, {"type": "note_on", "time": 30, "note": 59, "velocity": 87, "channel": 0}, {"type": "note_off", "time": 61, "note": 59, "velocity": 87, "channel": 0}, {"type": "note_on", "time": 12, "note": 55, "velocity": 93, "channel": 0}, {"type": "note_off", "time": 72, "note": 55, "velocity": 93, "channel": 0}, {"type": "note_on", "time": 730, "note": 58, "velocity": 95, "channel": 0}, {"type": "note_off", "time": 70, "note": 58, "velocity": 95, "channel": 0}, {"type": "note_on", "time": 18, "note": 57, "velocity": 97, "channel": 0}, {"type": "note_off", "time": 48, "note": 57, "velocity": 97, "channel": 0}, {"type": "note_on", "time": 5, "note": 55, "velocity": 98, "channel": 0}, {"type": "note_off", "time": 40, "note": 55, "velocity": 98, "channel": 0}, {"type": "note_on", "time": 1, "note": 54, "velocity": 98, "channel": 0}, {"type": "note_off", "time": 51, "note": 54, "velocity": 98, "channel": 0}, {"type": "note_on", "time": 4, "note": 55, "velocity": 96, "channel": 0}, {"type": "note_off", "time": 47, "note": 55, "velocity": 96, "channel": 0}, {"type": "note_on", "time": 7, "note": 57, "velocity": 100, "channel": 0}, {"type": "note_off", "time": 49, "note": 57, "velocity": 100, "channel": 0}, {"type": "note_on", "time": 12, "note": 54, "velocity": 106, "channel": 0}, {"type": "note_off", "time": 27, "note": 54, "velocity": 106, "channel": 0}, {"type": "note_on", "time": 3, "note": 53, "velocity": 111, "channel": 0}, {"type": "note_off", "time": 21, "note": 53, "velocity": 111, "channel": 0}, {"type": "note_on", "time": 5, "note": 52, "velocity": 110, "channel": 0}, {"type": "note_off", "time": 55, "note": 52, "velocity": 110, "channel": 0}, {"type": "note_on", "time": 8, "note": 53, "velocity": 108, "channel": 0}, {"type": "note_off", "time": 59, "note": 53, "velocity": 108, "channel": 0}, {"type": "note_on", "time": 4, "note": 50, "velocity": 97, "channel": 0}, {"type": "note_off", "time": 42, "note": 50, "velocity": 97, "channel": 0}, {"type": "note_on", "time": 4, "note": 51, "velocity": 106, "channel": 0}, {"type": "note_off", "time": 69, "note": 51, "velocity": 106, "channel": 0}, {"type": "note_on", "time": 3, "note": 52, "velocity": 94, "channel": 0}, {"type": "note_off", "time": 27, "note": 52, "velocity": 94, "channel": 0}, {"type": "note_on", "time": 1, "note": 54, "velocity": 97, "channel": 0}, {"type": "note_off", "time": 40, "note": 54, "velocity": 97, "channel": 0}, {"type": "note_on", "time": 7, "note": 56, "velocity": 94, "channel": 0}, {"type": "note_off", "time": 38, "note": 56, "velocity": 94, "channel": 0}, {"type": "note_on", "time": 13, "note": 55, "velocity": 98, "channel": 0}, {"type": "note_off", "time": 43, "note": 55, "velocity": 98, "channel": 0}, {"type": "note_on", "time": 7, "note": 53, "velocity": 95, "channel": 0}, {"type": "note_off", "time": 51, "note": 53, "velocity": 95, "channel": 0}, {"type": "note_on", "time": 2, "note": 55, "velocity": 89, "channel": 0}, {"type": "note_off", "time": 50, "note": 55, "velocity": 89, "channel": 0}, {"type": "note_on", "time": 19, "note": 58, "velocity": 95, "channel": 0}, {"type": "note_off", "time": 112, "note": 58, "velocity": 95, "channel": 0}, {"type": "note_on", "time": 1, "note": 56, "velocity": 96, "channel": 0}, {"type": "note_off", "time": 31, "note": 56, "velocity": 96, "channel": 0}, {"type": "note_on", "time": 6, "note": 55, "velocity": 107, "channel": 0}, {"type": "note_off", "time": 33, "note": 55, "velocity": 107, "channel": 0}, {"type": "note_on", "time": 2, "note": 56, "velocity": 97, "channel": 0}, {"type": "note_off", "time": 73, "note": 56, "velocity": 97, "channel": 0}, {"type": "note_on", "time": 19, "note": 56, "velocity": 99, "channel": 0}, {"type": "note_off", "time": 35, "note": 56, "velocity": 99, "channel": 0}, {"type": "note_on", "time": 9, "note": 63, "velocity": 114, "channel": 0}, {"type": "note_off", "time": 66, "note": 63, "velocity": 114, "channel": 0}, {"type": "note_on", "time": 0, "note": 58, "velocity": 92, "channel": 0}, {"type": "note_off", "time": 50, "note": 58, "velocity": 92, "channel": 0}, {"type": "note_on", "time": 4, "note": 59, "velocity": 90, "channel": 0}, {"type": "note_off", "time": 33, "note": 59, "velocity": 90, "channel": 0}, {"type": "note_on", "time": 14, "note": 61, "velocity": 101, "channel": 0}, {"type": "note_off", "time": 22, "note": 61, "velocity": 101, "channel": 0}, {"type": "note_on", "time": 5, "note": 62, "velocity": 103, "channel": 0}, {"type": "note_off", "time": 29, "note": 62, "velocity": 103, "channel": 0}, {"type": "note_on", "time": 7, "note": 65, "velocity": 103, "channel": 0}, {"type": "note_off", "time": 108, "note": 65, "velocity": 103, "channel": 0}, {"type": "note_on", "time": 4, "note": 63, "velocity": 108, "channel": 0}, {"type": "note_off", "time": 42, "note": 63, "velocity": 108, "channel": 0}, {"type": "note_on", "time": 0, "note": 62, "velocity": 109, "channel": 0}, {"type": "note_off", "time": 30, "note": 62, "velocity": 109, "channel": 0}, {"type": "note_on", "time": 0, "note": 64, "velocity": 110, "channel": 0}, {"type": "note_off", "time": 38, "note": 64, "velocity": 110, "channel": 0}, {"type": "note_on", "time": 8, "note": 68, "velocity": 100, "channel": 0}, {"type": "note_off", "time": 49, "note": 68, "velocity": 100, "channel": 0}, {"type": "note_on", "time": 69, "note": 70, "velocity": 97, "channel": 0}, {"type": "note_off", "time": 49, "note": 70, "velocity": 97, "channel": 0}, {"type": "note_on", "time": 3, "note": 67, "velocity": 98, "channel": 0}, {"type": "note_off", "time": 40, "note": 67, "velocity": 98, "channel": 0}, {"type": "note_on", "time": 3, "note": 66, "velocity": 102, "channel": 0}, {"type": "note_off", "time": 39, "note": 66, "velocity": 102, "channel": 0}, {"type": "note_on", "time": 4, "note": 65, "velocity": 104, "channel": 0}, {"type": "note_off", "time": 43, "note": 65, "velocity": 104, "channel": 0}, {"type": "note_on", "time": 5, "note": 64, "velocity": 89, "channel": 0}, {"type": "note_off", "time": 29, "note": 64, "velocity": 89, "channel": 0}, {"type": "note_on", "time": 37, "note": 68, "velocity": 92, "channel": 0}, {"type": "note_off", "time": 95, "note": 68, "velocity": 92, "channel": 0}, {"type": "note_on", "time": 76, "note": 66, "velocity": 88, "channel": 0}, {"type": "note_off", "time": 81, "note": 66, "velocity": 88, "channel": 0}, {"type": "note_on", "time": 10, "note": 64, "velocity": 102, "channel": 0}, {"type": "note_off", "time": 32, "note": 64, "velocity": 102, "channel": 0}, {"type": "note_on", "time": 7, "note": 65, "velocity": 98, "channel": 0}, {"type": "note_off", "time": 70, "note": 65, "velocity": 98, "channel": 0}, {"type": "note_on", "time": 2, "note": 63, "velocity": 102, "channel": 0}, {"type": "note_off", "time": 62, "note": 63, "velocity": 102, "channel": 0}, {"type": "note_on", "time": 3, "note": 64, "velocity": 98, "channel": 0}, {"type": "note_off", "time": 106, "note": 64, "velocity": 98, "channel": 0}, {"type": "note_on", "time": 404, "note": 63, "velocity": 125, "channel": 0}, {"type": "note_off", "time": 61, "note": 63, "velocity": 125, "channel": 0}, {"type": "note_on", "time": 2, "note": 62, "velocity": 117, "channel": 0}, {"type": "note_off", "time": 41, "note": 62, "velocity": 117, "channel": 0}, {"type": "note_on", "time": 2, "note": 61, "velocity": 111, "channel": 0}, {"type": "note_off", "time": 47, "note": 61, "velocity": 111, "channel": 0}, {"type": "note_on", "time": 2, "note": 58, "velocity": 102, "channel": 0}, {"type": "note_off", "time": 27, "note": 58, "velocity": 102, "channel": 0}, {"type": "note_on", "time": 11, "note": 58, "velocity": 97, "channel": 0}, {"type": "note_off", "time": 64, "note": 58, "velocity": 97, "channel": 0}, {"type": "note_on", "time": 16, "note": 57, "velocity": 101, "channel": 0}, {"type": "note_off", "time": 42, "note": 57, "velocity": 101, "channel": 0}, {"type": "note_on", "time": 21, "note": 55, "velocity": 96, "channel": 0}, {"type": "note_off", "time": 84, "note": 55, "velocity": 96, "channel": 0}, {"type": "note_on", "time": 6, "note": 58, "velocity": 90, "channel": 0}, {"type": "note_off", "time": 54, "note": 58, "velocity": 90, "channel": 0}, {"type": "note_on", "time": 5, "note": 63, "velocity": 109, "channel": 0}, {"type": "note_off", "time": 128, "note": 63, "velocity": 109, "channel": 0}, {"type": "note_on", "time": 11, "note": 55, "velocity": 101, "channel": 0}, {"type": "note_off", "time": 57, "note": 55, "velocity": 101, "channel": 0}, {"type": "note_on", "time": 14, "note": 53, "velocity": 96, "channel": 0}, {"type": "note_off", "time": 40, "note": 53, "velocity": 96, "channel": 0}, {"type": "note_on", "time": 6, "note": 50, "velocity": 95, "channel": 0}, {"type": "note_off", "time": 49, "note": 50, "velocity": 95, "channel": 0}, {"type": "note_on", "time": 15, "note": 54, "velocity": 92, "channel": 0}, {"type": "note_off", "time": 34, "note": 54, "velocity": 92, "channel": 0}, {"type": "note_on", "time": 13, "note": 57, "velocity": 102, "channel": 0}, {"type": "note_off", "time": 35, "note": 57, "velocity": 102, "channel": 0}, {"type": "note_on", "time": 5, "note": 56, "velocity": 103, "channel": 0}, {"type": "note_off", "time": 35, "note": 56, "velocity": 103, "channel": 0}, {"type": "note_on", "time": 5, "note": 53, "velocity": 93, "channel": 0}, {"type": "note_off", "time": 39, "note": 53, "velocity": 93, "channel": 0}, {"type": "note_on", "time": 2, "note": 49, "velocity": 91, "channel": 0}, {"type": "note_off", "time": 45, "note": 49, "velocity": 91, "channel": 0}, {"type": "note_on", "time": 4, "note": 53, "velocity": 99, "channel": 0}, {"type": "note_off", "time": 73, "note": 53, "velocity": 99, "channel": 0}, {"type": "note_on", "time": 7, "note": 51, "velocity": 99, "channel": 0}, {"type": "note_off", "time": 56, "note": 51, "velocity": 99, "channel": 0}, {"type": "note_on", "time": 0, "note": 50, "velocity": 92, "channel": 0}, {"type": "note_off", "time": 57, "note": 50, "velocity": 92, "channel": 0}, {"type": "note_on", "time": 93, "note": 57, "velocity": 94, "channel": 0}, {"type": "note_off", "time": 51, "note": 57, "velocity": 94, "channel": 0}, {"type": "note_on", "time": 11, "note": 62, "velocity": 94, "channel": 0}, {"type": "note_off", "time": 58, "note": 62, "velocity": 94, "channel": 0}, {"type": "note_on", "time": 14, "note": 57, "velocity": 94, "channel": 0}, {"type": "note_off", "time": 52, "note": 57, "velocity": 94, "channel": 0}, {"type": "note_on", "time": 88, "note": 65, "velocity": 101, "channel": 0}, {"type": "note_off", "time": 49, "note": 65, "velocity": 101, "channel": 0}, {"type": "note_on", "time": 6, "note": 68, "velocity": 99, "channel": 0}, {"type": "note_off", "time": 49, "note": 68, "velocity": 99, "channel": 0}, {"type": "note_on", "time": 7, "note": 67, "velocity": 95, "channel": 0}, {"type": "note_off", "time": 25, "note": 67, "velocity": 95, "channel": 0}, {"type": "note_on", "time": 0, "note": 65, "velocity": 37, "channel": 0}, {"type": "note_off", "time": 51, "note": 65, "velocity": 37, "channel": 0}, {"type": "note_on", "time": 7, "note": 63, "velocity": 102, "channel": 0}, {"type": "note_off", "time": 63, "note": 63, "velocity": 102, "channel": 0}, {"type": "note_on", "time": 5, "note": 62, "velocity": 95, "channel": 0}, {"type": "note_off", "time": 59, "note": 62, "velocity": 95, "channel": 0}, {"type": "note_on", "time": 12, "note": 63, "velocity": 94, "channel": 0}, {"type": "note_off", "time": 65, "note": 63, "velocity": 94, "channel": 0}, {"type": "note_on", "time": 10, "note": 67, "velocity": 85, "channel": 0}, {"type": "note_off", "time": 21, "note": 67, "velocity": 85, "channel": 0}, {"type": "note_on", "time": 29, "note": 70, "velocity": 85, "channel": 0}, {"type": "note_off", "time": 55, "note": 70, "velocity": 85, "channel": 0}, {"type": "note_on", "time": 6, "note": 75, "velocity": 85, "channel": 0}, {"type": "note_off", "time": 75, "note": 75, "velocity": 85, "channel": 0}, {"type": "note_on", "time": 6, "note": 72, "velocity": 96, "channel": 0}, {"type": "note_off", "time": 75, "note": 72, "velocity": 96, "channel": 0}, {"type": "note_on", "time": 716, "note": 81, "velocity": 94, "channel": 0}, {"type": "note_off", "time": 473, "note": 81, "velocity": 94, "channel": 0}, {"type": "note_on", "time": 10, "note": 79, "velocity": 89, "channel": 0}, {"type": "note_off", "time": 430, "note": 79, "velocity": 89, "channel": 0}, {"type": "note_on", "time": 21, "note": 82, "velocity": 89, "channel": 0}, {"type": "note_off", "time": 127, "note": 82, "velocity": 89, "channel": 0}, {"type": "note_on", "time": 18, "note": 79, "velocity": 91, "channel": 0}, {"type": "note_off", "time": 324, "note": 79, "velocity": 91, "channel": 0}, {"type": "note_on", "time": 14, "note": 83, "velocity": 92, "channel": 0}, {"type": "note_off", "time": 56, "note": 83, "velocity": 92, "channel": 0}, {"type": "note_on", "time": 10, "note": 82, "velocity": 98, "channel": 0}, {"type": "note_off", "time": 40, "note": 82, "velocity": 98, "channel": 0}, {"type": "note_on", "time": 17, "note": 79, "velocity": 95, "channel": 0}, {"type": "note_off", "time": 160, "note": 79, "velocity": 95, "channel": 0}, {"type": "note_on", "time": 22, "note": 82, "velocity": 94, "channel": 0}, {"type": "note_off", "time": 103, "note": 82, "velocity": 94, "channel": 0}, {"type": "note_on", "time": 5, "note": 78, "velocity": 98, "channel": 0}, {"type": "note_off", "time": 44, "note": 78, "velocity": 98, "channel": 0}, {"type": "note_on", "time": 5, "note": 79, "velocity": 91, "channel": 0}, {"type": "note_off", "time": 328, "note": 79, "velocity": 91, "channel": 0}, {"type": "note_on", "time": 70, "note": 77, "velocity": 70, "channel": 0}, {"type": "note_off", "time": 363, "note": 77, "velocity": 70, "channel": 0}, {"type": "note_on", "time": 830, "note": 82, "velocity": 95, "channel": 0}, {"type": "note_off", "time": 130, "note": 82, "velocity": 95, "channel": 0}, {"type": "note_on", "time": 609, "note": 80, "velocity": 98, "channel": 0}, {"type": "note_off", "time": 117, "note": 80, "velocity": 98, "channel": 0}, {"type": "note_on", "time": 8, "note": 79, "velocity": 78, "channel": 0}, {"type": "note_off", "time": 93, "note": 79, "velocity": 78, "channel": 0}, {"type": "note_on", "time": 13, "note": 77, "velocity": 82, "channel": 0}, {"type": "note_off", "time": 55, "note": 77, "velocity": 82, "channel": 0}, {"type": "note_on", "time": 24, "note": 75, "velocity": 90, "channel": 0}, {"type": "note_off", "time": 76, "note": 75, "velocity": 90, "channel": 0}, {"type": "note_on", "time": 16, "note": 73, "velocity": 86, "channel": 0}, {"type": "note_off", "time": 60, "note": 73, "velocity": 86, "channel": 0}, {"type": "note_on", "time": 52, "note": 70, "velocity": 93, "channel": 0}, {"type": "note_off", "time": 74, "note": 70, "velocity": 93, "channel": 0}, {"type": "note_on", "time": 17, "note": 66, "velocity": 97, "channel": 0}, {"type": "note_off", "time": 78, "note": 66, "velocity": 97, "channel": 0}, {"type": "note_on", "time": 4, "note": 63, "velocity": 89, "channel": 0}, {"type": "note_off", "time": 87, "note": 63, "velocity": 89, "channel": 0}, {"type": "note_on", "time": 9, "note": 68, "velocity": 95, "channel": 0}, {"type": "note_off", "time": 82, "note": 68, "velocity": 95, "channel": 0}, {"type": "note_on", "time": 15, "note": 65, "velocity": 93, "channel": 0}, {"type": "note_off", "time": 63, "note": 65, "velocity": 93, "channel": 0}, {"type": "note_on", "time": 15, "note": 61, "velocity": 89, "channel": 0}, {"type": "note_off", "time": 167, "note": 61, "velocity": 89, "channel": 0}, {"type": "note_on", "time": 28, "note": 63, "velocity": 106, "channel": 0}, {"type": "note_off", "time": 97, "note": 63, "velocity": 106, "channel": 0}, {"type": "note_on", "time": 13, "note": 66, "velocity": 93, "channel": 0}, {"type": "note_off", "time": 196, "note": 66, "velocity": 93, "channel": 0}, {"type": "note_on", "time": 430, "note": 65, "velocity": 94, "channel": 0}, {"type": "note_off", "time": 78, "note": 65, "velocity": 94, "channel": 0}, {"type": "note_on", "time": 11, "note": 67, "velocity": 93, "channel": 0}, {"type": "note_off", "time": 84, "note": 67, "velocity": 93, "channel": 0}, {"type": "note_on", "time": 8, "note": 74, "velocity": 87, "channel": 0}, {"type": "note_off", "time": 124, "note": 74, "velocity": 87, "channel": 0}, {"type": "note_on", "time": 88, "note": 74, "velocity": 97, "channel": 0}, {"type": "note_off", "time": 185, "note": 74, "velocity": 97, "channel": 0}, {"type": "note_on", "time": 20, "note": 72, "velocity": 97, "channel": 0}, {"type": "note_off", "time": 86, "note": 72, "velocity": 97, "channel": 0}, {"type": "note_on", "time": 100, "note": 75, "velocity": 95, "channel": 0}, {"type": "note_off", "time": 183, "note": 75, "velocity": 95, "channel": 0}, {"type": "note_on", "time": 5, "note": 74, "velocity": 88, "channel": 0}, {"type": "note_off", "time": 88, "note": 74, "velocity": 88, "channel": 0}, {"type": "note_on", "time": 39, "note": 72, "velocity": 96, "channel": 0}, {"type": "note_off", "time": 244, "note": 72, "velocity": 96, "channel": 0}, {"type": "note_on", "time": 26, "note": 70, "velocity": 91, "channel": 0}, {"type": "note_off", "time": 63, "note": 70, "velocity": 91, "channel": 0}, {"type": "note_on", "time": 30, "note": 67, "velocity": 98, "channel": 0}, {"type": "note_off", "time": 72, "note": 67, "velocity": 98, "channel": 0}, {"type": "note_on", "time": 16, "note": 65, "velocity": 98, "channel": 0}, {"type": "note_off", "time": 93, "note": 65, "velocity": 98, "channel": 0}, {"type": "note_on", "time": 16, "note": 65, "velocity": 95, "channel": 0}, {"type": "note_off", "time": 50, "note": 65, "velocity": 95, "channel": 0}, {"type": "note_on", "time": 15, "note": 63, "velocity": 98, "channel": 0}, {"type": "note_off", "time": 132, "note": 63, "velocity": 98, "channel": 0}, {"type": "note_on", "time": 7, "note": 65, "velocity": 85, "channel": 0}, {"type": "note_off", "time": 27, "note": 65, "velocity": 85, "channel": 0}, {"type": "note_on", "time": 51, "note": 67, "velocity": 102, "channel": 0}, {"type": "note_off", "time": 89, "note": 67, "velocity": 102, "channel": 0}, {"type": "note_on", "time": 28, "note": 67, "velocity": 99, "channel": 0}, {"type": "note_off", "time": 131, "note": 67, "velocity": 99, "channel": 0}, {"type": "note_on", "time": 18, "note": 65, "velocity": 99, "channel": 0}, {"type": "note_off", "time": 28, "note": 65, "velocity": 99, "channel": 0}, {"type": "note_on", "time": 3, "note": 64, "velocity": 101, "channel": 0}, {"type": "note_off", "time": 31, "note": 64, "velocity": 101, "channel": 0}, {"type": "note_on", "time": 9, "note": 62, "velocity": 93, "channel": 0}, {"type": "note_off", "time": 22, "note": 62, "velocity": 93, "channel": 0}, {"type": "note_on", "time": 10, "note": 59, "velocity": 83, "channel": 0}, {"type": "note_off", "time": 160, "note": 59, "velocity": 83, "channel": 0}, {"type": "note_on", "time": 21, "note": 62, "velocity": 102, "channel": 0}, {"type": "note_off", "time": 105, "note": 62, "velocity": 102, "channel": 0}, {"type": "note_on", "time": 9, "note": 60, "velocity": 91, "channel": 0}, {"type": "note_off", "time": 245, "note": 60, "velocity": 91, "channel": 0}, {"type": "note_on", "time": 11, "note": 63, "velocity": 101, "channel": 0}, {"type": "note_off", "time": 131, "note": 63, "velocity": 101, "channel": 0}, {"type": "note_on", "time": 77, "note": 65, "velocity": 91, "channel": 0}, {"type": "note_off", "time": 308, "note": 65, "velocity": 91, "channel": 0}, {"type": "note_on", "time": 8, "note": 63, "velocity": 86, "channel": 0}, {"type": "note_off", "time": 56, "note": 63, "velocity": 86, "channel": 0}, {"type": "note_on", "time": 12, "note": 65, "velocity": 94, "channel": 0}, {"type": "note_off", "time": 173, "note": 65, "velocity": 94, "channel": 0}, {"type": "note_on", "time": 8, "note": 65, "velocity": 87, "channel": 0}, {"type": "note_off", "time": 51, "note": 65, "velocity": 87, "channel": 0}, {"type": "note_on", "time": 351, "note": 66, "velocity": 98, "channel": 0}, {"type": "note_off", "time": 87, "note": 66, "velocity": 98, "channel": 0}, {"type": "note_on", "time": 20, "note": 68, "velocity": 103, "channel": 0}, {"type": "note_off", "time": 100, "note": 68, "velocity": 103, "channel": 0}, {"type": "note_on", "time": 11, "note": 66, "velocity": 98, "channel": 0}, {"type": "note_off", "time": 100, "note": 66, "velocity": 98, "channel": 0}, {"type": "note_on", "time": 6, "note": 64, "velocity": 92, "channel": 0}, {"type": "note_off", "time": 154, "note": 64, "velocity": 92, "channel": 0}, {"type": "note_on", "time": 1, "note": 67, "velocity": 99, "channel": 0}, {"type": "note_off", "time": 76, "note": 67, "velocity": 99, "channel": 0}, {"type": "note_on", "time": 51, "note": 62, "velocity": 87, "channel": 0}, {"type": "note_off", "time": 66, "note": 62, "velocity": 87, "channel": 0}, {"type": "note_on", "time": 16, "note": 66, "velocity": 100, "channel": 0}, {"type": "note_off", "time": 77, "note": 66, "velocity": 100, "channel": 0}, {"type": "note_on", "time": 19, "note": 64, "velocity": 94, "channel": 0}, {"type": "note_off", "time": 80, "note": 64, "velocity": 94, "channel": 0}, {"type": "note_on", "time": 14, "note": 61, "velocity": 94, "channel": 0}, {"type": "note_off", "time": 62, "note": 61, "velocity": 94, "channel": 0}, {"type": "note_on", "time": 21, "note": 59, "velocity": 87, "channel": 0}, {"type": "note_off", "time": 74, "note": 59, "velocity": 87, "channel": 0}, {"type": "note_on", "time": 15, "note": 58, "velocity": 87, "channel": 0}, {"type": "note_off", "time": 47, "note": 58, "velocity": 87, "channel": 0}, {"type": "note_on", "time": 13, "note": 54, "velocity": 83, "channel": 0}, {"type": "note_off", "time": 133, "note": 54, "velocity": 83, "channel": 0}, {"type": "note_on", "time": 17, "note": 53, "velocity": 81, "channel": 0}, {"type": "note_off", "time": 135, "note": 53, "velocity": 81, "channel": 0}, {"type": "note_on", "time": 704, "note": 70, "velocity": 107, "channel": 0}, {"type": "note_off", "time": 109, "note": 70, "velocity": 107, "channel": 0}, {"type": "note_on", "time": 1, "note": 71, "velocity": 107, "channel": 0}, {"type": "note_off", "time": 49, "note": 71, "velocity": 107, "channel": 0}, {"type": "note_on", "time": 22, "note": 72, "velocity": 106, "channel": 0}, {"type": "note_off", "time": 105, "note": 72, "velocity": 106, "channel": 0}, {"type": "note_on", "time": 9, "note": 73, "velocity": 102, "channel": 0}, {"type": "note_off", "time": 82, "note": 73, "velocity": 102, "channel": 0}, {"type": "note_on", "time": 22, "note": 71, "velocity": 106, "channel": 0}, {"type": "note_off", "time": 84, "note": 71, "velocity": 106, "channel": 0}, {"type": "note_on", "time": 18, "note": 69, "velocity": 103, "channel": 0}, {"type": "note_off", "time": 94, "note": 69, "velocity": 103, "channel": 0}, {"type": "note_on", "time": 5, "note": 68, "velocity": 92, "channel": 0}, {"type": "note_off", "time": 75, "note": 68, "velocity": 92, "channel": 0}, {"type": "note_on", "time": 22, "note": 71, "velocity": 98, "channel": 0}, {"type": "note_off", "time": 73, "note": 71, "velocity": 98, "channel": 0}, {"type": "note_on", "time": 13, "note": 68, "velocity": 96, "channel": 0}, {"type": "note_off", "time": 93, "note": 68, "velocity": 96, "channel": 0}, {"type": "note_on", "time": 10, "note": 67, "velocity": 95, "channel": 0}, {"type": "note_off", "time": 59, "note": 67, "velocity": 95, "channel": 0}, {"type": "note_on", "time": 17, "note": 66, "velocity": 92, "channel": 0}, {"type": "note_off", "time": 94, "note": 66, "velocity": 92, "channel": 0}, {"type": "note_on", "time": 36, "note": 70, "velocity": 93, "channel": 0}, {"type": "note_off", "time": 235, "note": 70, "velocity": 93, "channel": 0}, {"type": "note_on", "time": 19, "note": 65, "velocity": 92, "channel": 0}, {"type": "note_off", "time": 122, "note": 65, "velocity": 92, "channel": 0}, {"type": "note_on", "time": 55, "note": 64, "velocity": 98, "channel": 0}, {"type": "note_off", "time": 127, "note": 64, "velocity": 98, "channel": 0}, {"type": "note_on", "time": 19, "note": 68, "velocity": 92, "channel": 0}, {"type": "note_off", "time": 49, "note": 68, "velocity": 92, "channel": 0}, {"type": "note_on", "time": 22, "note": 63, "velocity": 99, "channel": 0}, {"type": "note_off", "time": 97, "note": 63, "velocity": 99, "channel": 0}, {"type": "note_on", "time": 15, "note": 67, "velocity": 91, "channel": 0}, {"type": "note_off", "time": 54, "note": 67, "velocity": 91, "channel": 0}, {"type": "note_on", "time": 17, "note": 66, "velocity": 92, "channel": 0}, {"type": "note_off", "time": 111, "note": 66, "velocity": 92, "channel": 0}, {"type": "note_on", "time": 13, "note": 62, "velocity": 97, "channel": 0}, {"type": "note_off", "time": 82, "note": 62, "velocity": 97, "channel": 0}, {"type": "note_on", "time": 108, "note": 65, "velocity": 98, "channel": 0}, {"type": "note_off", "time": 63, "note": 65, "velocity": 98, "channel": 0}, {"type": "note_on", "time": 11, "note": 64, "velocity": 98, "channel": 0}, {"type": "note_off", "time": 88, "note": 64, "velocity": 98, "channel": 0}, {"type": "note_on", "time": 24, "note": 61, "velocity": 94, "channel": 0}, {"type": "note_off", "time": 67, "note": 61, "velocity": 94, "channel": 0}, {"type": "note_on", "time": 15, "note": 59, "velocity": 90, "channel": 0}, {"type": "note_off", "time": 87, "note": 59, "velocity": 90, "channel": 0}, {"type": "note_on", "time": 15, "note": 57, "velocity": 96, "channel": 0}, {"type": "note_off", "time": 91, "note": 57, "velocity": 96, "channel": 0}, {"type": "note_on", "time": 10, "note": 56, "velocity": 83, "channel": 0}, {"type": "note_off", "time": 91, "note": 56, "velocity": 83, "channel": 0}, {"type": "note_on", "time": 13, "note": 58, "velocity": 93, "channel": 0}, {"type": "note_off", "time": 49, "note": 58, "velocity": 93, "channel": 0}, {"type": "note_on", "time": 40, "note": 62, "velocity": 99, "channel": 0}, {"type": "note_off", "time": 93, "note": 62, "velocity": 99, "channel": 0}, {"type": "note_on", "time": 15, "note": 61, "velocity": 94, "channel": 0}, {"type": "note_off", "time": 67, "note": 61, "velocity": 94, "channel": 0}, {"type": "note_on", "time": 19, "note": 56, "velocity": 90, "channel": 0}, {"type": "note_off", "time": 87, "note": 56, "velocity": 90, "channel": 0}, {"type": "note_on", "time": 30, "note": 53, "velocity": 91, "channel": 0}, {"type": "note_off", "time": 65, "note": 53, "velocity": 91, "channel": 0}, {"type": "note_on", "time": 11, "note": 52, "velocity": 89, "channel": 0}, {"type": "note_off", "time": 63, "note": 52, "velocity": 89, "channel": 0}, {"type": "note_on", "time": 103, "note": 55, "velocity": 94, "channel": 0}, {"type": "note_off", "time": 149, "note": 55, "velocity": 94, "channel": 0}, {"type": "note_on", "time": 84, "note": 52, "velocity": 83, "channel": 0}, {"type": "note_off", "time": 92, "note": 52, "velocity": 83, "channel": 0}, {"type": "note_on", "time": 7, "note": 55, "velocity": 84, "channel": 0}, {"type": "note_off", "time": 133, "note": 55, "velocity": 84, "channel": 0}, {"type": "note_on", "time": 33, "note": 60, "velocity": 94, "channel": 0}, {"type": "note_off", "time": 89, "note": 60, "velocity": 94, "channel": 0}, {"type": "note_on", "time": 13, "note": 58, "velocity": 93, "channel": 0}, {"type": "note_off", "time": 110, "note": 58, "velocity": 93, "channel": 0}, {"type": "note_on", "time": 88, "note": 62, "velocity": 98, "channel": 0}, {"type": "note_off", "time": 108, "note": 62, "velocity": 98, "channel": 0}, {"type": "note_on", "time": 9, "note": 63, "velocity": 81, "channel": 0}, {"type": "note_off", "time": 65, "note": 63, "velocity": 81, "channel": 0}, {"type": "note_on", "time": 11, "note": 65, "velocity": 86, "channel": 0}, {"type": "note_off", "time": 106, "note": 65, "velocity": 86, "channel": 0}, {"type": "note_on", "time": 36, "note": 70, "velocity": 82, "channel": 0}, {"type": "note_off", "time": 55, "note": 70, "velocity": 82, "channel": 0}, {"type": "note_on", "time": 11, "note": 65, "velocity": 90, "channel": 0}, {"type": "note_off", "time": 55, "note": 65, "velocity": 90, "channel": 0}, {"type": "note_on", "time": 3, "note": 67, "velocity": 87, "channel": 0}, {"type": "note_off", "time": 63, "note": 67, "velocity": 87, "channel": 0}, {"type": "note_on", "time": 257, "note": 65, "velocity": 103, "channel": 0}, {"type": "note_off", "time": 48, "note": 65, "velocity": 103, "channel": 0}, {"type": "note_on", "time": 250, "note": 62, "velocity": 99, "channel": 0}, {"type": "note_off", "time": 49, "note": 62, "velocity": 99, "channel": 0}, {"type": "note_on", "time": 7, "note": 63, "velocity": 100, "channel": 0}, {"type": "note_off", "time": 51, "note": 63, "velocity": 100, "channel": 0}, {"type": "note_on", "time": 19, "note": 65, "velocity": 94, "channel": 0}, {"type": "note_off", "time": 45, "note": 65, "velocity": 94, "channel": 0}, {"type": "note_on", "time": 211, "note": 60, "velocity": 93, "channel": 0}, {"type": "note_off", "time": 49, "note": 60, "velocity": 93, "channel": 0}, {"type": "note_on", "time": 2, "note": 63, "velocity": 97, "channel": 0}, {"type": "note_off", "time": 53, "note": 63, "velocity": 97, "channel": 0}, {"type": "note_on", "time": 5, "note": 65, "velocity": 91, "channel": 0}, {"type": "note_off", "time": 50, "note": 65, "velocity": 91, "channel": 0}, {"type": "note_on", "time": 199, "note": 60, "velocity": 94, "channel": 0}, {"type": "note_off", "time": 47, "note": 60, "velocity": 94, "channel": 0}, {"type": "note_on", "time": 7, "note": 63, "velocity": 101, "channel": 0}, {"type": "note_off", "time": 37, "note": 63, "velocity": 101, "channel": 0}, {"type": "note_on", "time": 7, "note": 65, "velocity": 94, "channel": 0}, {"type": "note_off", "time": 64, "note": 65, "velocity": 94, "channel": 0}, {"type": "note_on", "time": 204, "note": 60, "velocity": 94, "channel": 0}, {"type": "note_off", "time": 43, "note": 60, "velocity": 94, "channel": 0}, {"type": "note_on", "time": 2, "note": 63, "velocity": 108, "channel": 0}, {"type": "note_off", "time": 54, "note": 63, "velocity": 108, "channel": 0}, {"type": "note_on", "time": 9, "note": 65, "velocity": 99, "channel": 0}, {"type": "note_off", "time": 291, "note": 65, "velocity": 99, "channel": 0}, {"type": "note_on", "time": 31, "note": 60, "velocity": 93, "channel": 0}, {"type": "note_off", "time": 39, "note": 60, "velocity": 93, "channel": 0}, {"type": "note_on", "time": 5, "note": 63, "velocity": 103, "channel": 0}, {"type": "note_off", "time": 40, "note": 63, "velocity": 103, "channel": 0}, {"type": "note_on", "time": 12, "note": 65, "velocity": 96, "channel": 0}, {"type": "note_off", "time": 55, "note": 65, "velocity": 96, "channel": 0}, {"type": "note_on", "time": 411, "note": 60, "velocity": 92, "channel": 0}, {"type": "note_off", "time": 28, "note": 60, "velocity": 92, "channel": 0}, {"type": "note_on", "time": 24, "note": 63, "velocity": 93, "channel": 0}, {"type": "note_off", "time": 51, "note": 63, "velocity": 93, "channel": 0}, {"type": "note_on", "time": 36, "note": 65, "velocity": 100, "channel": 0}, {"type": "note_off", "time": 57, "note": 65, "velocity": 100, "channel": 0}, {"type": "note_on", "time": 21, "note": 60, "velocity": 93, "channel": 0}, {"type": "note_off", "time": 61, "note": 60, "velocity": 93, "channel": 0}, {"type": "note_on", "time": 1, "note": 63, "velocity": 98, "channel": 0}, {"type": "note_off", "time": 103, "note": 63, "velocity": 98, "channel": 0}, {"type": "note_on", "time": 22, "note": 65, "velocity": 96, "channel": 0}, {"type": "note_off", "time": 91, "note": 65, "velocity": 96, "channel": 0}, {"type": "note_on", "time": 134, "note": 66, "velocity": 98, "channel": 0}, {"type": "note_off", "time": 135, "note": 66, "velocity": 98, "channel": 0}, {"type": "note_on", "time": 244, "note": 68, "velocity": 112, "channel": 0}, {"type": "note_off", "time": 106, "note": 68, "velocity": 112, "channel": 0}, {"type": "note_on", "time": 15, "note": 67, "velocity": 101, "channel": 0}, {"type": "note_off", "time": 65, "note": 67, "velocity": 101, "channel": 0}, {"type": "note_on", "time": 17, "note": 66, "velocity": 100, "channel": 0}, {"type": "note_off", "time": 124, "note": 66, "velocity": 100, "channel": 0}, {"type": "note_on", "time": 5, "note": 67, "velocity": 97, "channel": 0}, {"type": "note_off", "time": 217, "note": 67, "velocity": 97, "channel": 0}, {"type": "note_on", "time": 5, "note": 63, "velocity": 99, "channel": 0}, {"type": "note_off", "time": 106, "note": 63, "velocity": 99, "channel": 0}, {"type": "note_on", "time": 100, "note": 65, "velocity": 99, "channel": 0}, {"type": "note_off", "time": 105, "note": 65, "velocity": 99, "channel": 0}, {"type": "note_on", "time": 76, "note": 62, "velocity": 101, "channel": 0}, {"type": "note_off", "time": 112, "note": 62, "velocity": 101, "channel": 0}, {"type": "note_on", "time": 36, "note": 65, "velocity": 96, "channel": 0}, {"type": "note_off", "time": 133, "note": 65, "velocity": 96, "channel": 0}, {"type": "note_on", "time": 22, "note": 63, "velocity": 102, "channel": 0}, {"type": "note_off", "time": 98, "note": 63, "velocity": 102, "channel": 0}, {"type": "note_on", "time": 11, "note": 59, "velocity": 87, "channel": 0}, {"type": "note_off", "time": 85, "note": 59, "velocity": 87, "channel": 0}, {"type": "note_on", "time": 99, "note": 57, "velocity": 97, "channel": 0}, {"type": "note_off", "time": 98, "note": 57, "velocity": 97, "channel": 0}, {"type": "note_on", "time": 0, "note": 63, "velocity": 103, "channel": 0}, {"type": "note_off", "time": 85, "note": 63, "velocity": 103, "channel": 0}, {"type": "note_on", "time": 3, "note": 60, "velocity": 91, "channel": 0}, {"type": "note_off", "time": 85, "note": 60, "velocity": 91, "channel": 0}, {"type": "note_on", "time": 83, "note": 59, "velocity": 88, "channel": 0}, {"type": "note_off", "time": 125, "note": 59, "velocity": 88, "channel": 0}, {"type": "note_on", "time": 12, "note": 55, "velocity": 91, "channel": 0}, {"type": "note_off", "time": 85, "note": 55, "velocity": 91, "channel": 0}, {"type": "note_on", "time": 22, "note": 51, "velocity": 91, "channel": 0}, {"type": "note_off", "time": 80, "note": 51, "velocity": 91, "channel": 0}, {"type": "note_on", "time": 70, "note": 53, "velocity": 91, "channel": 0}, {"type": "note_off", "time": 284, "note": 53, "velocity": 91, "channel": 0}, {"type": "note_on", "time": 19, "note": 51, "velocity": 101, "channel": 0}, {"type": "note_off", "time": 90, "note": 51, "velocity": 101, "channel": 0}, {"type": "note_on", "time": 11, "note": 48, "velocity": 94, "channel": 0}, {"type": "note_off", "time": 101, "note": 48, "velocity": 94, "channel": 0}, {"type": "note_on", "time": 6, "note": 45, "velocity": 109, "channel": 0}, {"type": "note_off", "time": 141, "note": 45, "velocity": 109, "channel": 0}, {"type": "note_on", "time": 667, "note": 46, "velocity": 97, "channel": 0}, {"type": "note_off", "time": 56, "note": 46, "velocity": 97, "channel": 0}, {"type": "note_on", "time": 12, "note": 50, "velocity": 94, "channel": 0}, {"type": "note_off", "time": 51, "note": 50, "velocity": 94, "channel": 0}, {"type": "note_on", "time": 10, "note": 45, "velocity": 97, "channel": 0}, {"type": "note_off", "time": 55, "note": 45, "velocity": 97, "channel": 0}, {"type": "note_on", "time": 4, "note": 50, "velocity": 97, "channel": 0}, {"type": "note_off", "time": 59, "note": 50, "velocity": 97, "channel": 0}, {"type": "note_on", "time": 6, "note": 53, "velocity": 99, "channel": 0}, {"type": "note_off", "time": 43, "note": 53, "velocity": 99, "channel": 0}, {"type": "note_on", "time": 4, "note": 51, "velocity": 102, "channel": 0}, {"type": "note_off", "time": 41, "note": 51, "velocity": 102, "channel": 0}, {"type": "note_on", "time": 1, "note": 50, "velocity": 96, "channel": 0}, {"type": "note_off", "time": 64, "note": 50, "velocity": 96, "channel": 0}, {"type": "note_on", "time": 3, "note": 51, "velocity": 96, "channel": 0}, {"type": "note_off", "time": 37, "note": 51, "velocity": 96, "channel": 0}, {"type": "note_on", "time": 5, "note": 55, "velocity": 85, "channel": 0}, {"type": "note_off", "time": 32, "note": 55, "velocity": 85, "channel": 0}, {"type": "note_on", "time": 10, "note": 58, "velocity": 98, "channel": 0}, {"type": "note_off", "time": 92, "note": 58, "velocity": 98, "channel": 0}, {"type": "note_on", "time": 5, "note": 57, "velocity": 97, "channel": 0}, {"type": "note_off", "time": 28, "note": 57, "velocity": 97, "channel": 0}, {"type": "note_on", "time": 11, "note": 56, "velocity": 91, "channel": 0}, {"type": "note_off", "time": 53, "note": 56, "velocity": 91, "channel": 0}, {"type": "note_on", "time": 45, "note": 60, "velocity": 101, "channel": 0}, {"type": "note_off", "time": 28, "note": 60, "velocity": 101, "channel": 0}, {"type": "note_on", "time": 6, "note": 62, "velocity": 99, "channel": 0}, {"type": "note_off", "time": 38, "note": 62, "velocity": 99, "channel": 0}, {"type": "note_on", "time": 10, "note": 55, "velocity": 94, "channel": 0}, {"type": "note_off", "time": 43, "note": 55, "velocity": 94, "channel": 0}, {"type": "note_on", "time": 11, "note": 58, "velocity": 96, "channel": 0}, {"type": "note_off", "time": 43, "note": 58, "velocity": 96, "channel": 0}, {"type": "note_on", "time": 4, "note": 60, "velocity": 94, "channel": 0}, {"type": "note_off", "time": 29, "note": 60, "velocity": 94, "channel": 0}, {"type": "note_on", "time": 0, "note": 63, "velocity": 105, "channel": 0}, {"type": "note_off", "time": 57, "note": 63, "velocity": 105, "channel": 0}, {"type": "note_on", "time": 7, "note": 60, "velocity": 92, "channel": 0}, {"type": "note_off", "time": 42, "note": 60, "velocity": 92, "channel": 0}, {"type": "note_on", "time": 43, "note": 63, "velocity": 95, "channel": 0}, {"type": "note_off", "time": 36, "note": 63, "velocity": 95, "channel": 0}, {"type": "note_on", "time": 7, "note": 61, "velocity": 94, "channel": 0}, {"type": "note_off", "time": 53, "note": 61, "velocity": 94, "channel": 0}, {"type": "note_on", "time": 21, "note": 63, "velocity": 95, "channel": 0}, {"type": "note_off", "time": 38, "note": 63, "velocity": 95, "channel": 0}, {"type": "note_on", "time": 49, "note": 62, "velocity": 100, "channel": 0}, {"type": "note_off", "time": 49, "note": 62, "velocity": 100, "channel": 0}, {"type": "note_on", "time": 2, "note": 65, "velocity": 91, "channel": 0}, {"type": "note_off", "time": 33, "note": 65, "velocity": 91, "channel": 0}, {"type": "note_on", "time": 12, "note": 67, "velocity": 91, "channel": 0}, {"type": "note_off", "time": 33, "note": 67, "velocity": 91, "channel": 0}, {"type": "note_on", "time": 5, "note": 70, "velocity": 91, "channel": 0}, {"type": "note_off", "time": 45, "note": 70, "velocity": 91, "channel": 0}, {"type": "note_on", "time": 11, "note": 67, "velocity": 89, "channel": 0}, {"type": "note_off", "time": 36, "note": 67, "velocity": 89, "channel": 0}, {"type": "note_on", "time": 4, "note": 65, "velocity": 88, "channel": 0}, {"type": "note_off", "time": 93, "note": 65, "velocity": 88, "channel": 0}, {"type": "note_on", "time": 7, "note": 63, "velocity": 95, "channel": 0}, {"type": "note_off", "time": 53, "note": 63, "velocity": 95, "channel": 0}, {"type": "note_on", "time": 7, "note": 62, "velocity": 95, "channel": 0}, {"type": "note_off", "time": 34, "note": 62, "velocity": 95, "channel": 0}, {"type": "note_on", "time": 0, "note": 63, "velocity": 95, "channel": 0}, {"type": "note_off", "time": 60, "note": 63, "velocity": 95, "channel": 0}, {"type": "note_on", "time": 2, "note": 66, "velocity": 85, "channel": 0}, {"type": "note_off", "time": 21, "note": 66, "velocity": 85, "channel": 0}, {"type": "note_on", "time": 3, "note": 67, "velocity": 82, "channel": 0}, {"type": "note_off", "time": 61, "note": 67, "velocity": 82, "channel": 0}, {"type": "note_on", "time": 7, "note": 71, "velocity": 80, "channel": 0}, {"type": "note_off", "time": 50, "note": 71, "velocity": 80, "channel": 0}, {"type": "note_on", "time": 15, "note": 75, "velocity": 63, "channel": 0}, {"type": "note_off", "time": 68, "note": 75, "velocity": 63, "channel": 0}, {"type": "note_on", "time": 34, "note": 79, "velocity": 86, "channel": 0}, {"type": "note_off", "time": 31, "note": 79, "velocity": 86, "channel": 0}, {"type": "note_on", "time": 8, "note": 80, "velocity": 88, "channel": 0}, {"type": "note_off", "time": 35, "note": 80, "velocity": 88, "channel": 0}, {"type": "note_on", "time": 19, "note": 82, "velocity": 92, "channel": 0}, {"type": "note_off", "time": 153, "note": 82, "velocity": 92, "channel": 0}, {"type": "note_on", "time": 357, "note": 44, "velocity": 108, "channel": 0}, {"type": "note_off", "time": 158, "note": 44, "velocity": 108, "channel": 0}, {"type": "note_on", "time": 13, "note": 46, "velocity": 96, "channel": 0}, {"type": "note_off", "time": 148, "note": 46, "velocity": 96, "channel": 0}, {"type": "note_on", "time": 15, "note": 51, "velocity": 96, "channel": 0}, {"type": "note_off", "time": 162, "note": 51, "velocity": 96, "channel": 0}, {"type": "note_on", "time": 23, "note": 53, "velocity": 91, "channel": 0}, {"type": "note_off", "time": 67, "note": 53, "velocity": 91, "channel": 0}, {"type": "note_on", "time": 13, "note": 58, "velocity": 88, "channel": 0}, {"type": "note_off", "time": 109, "note": 58, "velocity": 88, "channel": 0}, {"type": "note_on", "time": 8, "note": 63, "velocity": 107, "channel": 0}, {"type": "note_off", "time": 61, "note": 63, "velocity": 107, "channel": 0}, {"type": "note_on", "time": 1, "note": 56, "velocity": 88, "channel": 0}, {"type": "note_off", "time": 99, "note": 56, "velocity": 88, "channel": 0}, {"type": "note_on", "time": 113, "note": 63, "velocity": 98, "channel": 0}, {"type": "note_off", "time": 78, "note": 63, "velocity": 98, "channel": 0}, {"type": "note_on", "time": 95, "note": 65, "velocity": 89, "channel": 0}, {"type": "note_off", "time": 85, "note": 65, "velocity": 89, "channel": 0}, {"type": "note_on", "time": 103, "note": 63, "velocity": 95, "channel": 0}, {"type": "note_off", "time": 87, "note": 63, "velocity": 95, "channel": 0}, {"type": "note_on", "time": 36, "note": 65, "velocity": 95, "channel": 0}, {"type": "note_off", "time": 56, "note": 65, "velocity": 95, "channel": 0}, {"type": "note_on", "time": 10, "note": 66, "velocity": 93, "channel": 0}, {"type": "note_off", "time": 98, "note": 66, "velocity": 93, "channel": 0}, {"type": "note_on", "time": 11, "note": 75, "velocity": 81, "channel": 0}, {"type": "note_off", "time": 159, "note": 75, "velocity": 81, "channel": 0}, {"type": "note_on", "time": 32, "note": 70, "velocity": 85, "channel": 0}, {"type": "note_off", "time": 87, "note": 70, "velocity": 85, "channel": 0}, {"type": "note_on", "time": 1, "note": 84, "velocity": 84, "channel": 0}, {"type": "note_off", "time": 68, "note": 84, "velocity": 84, "channel": 0}, {"type": "note_on", "time": 26, "note": 80, "velocity": 91, "channel": 0}, {"type": "note_off", "time": 485, "note": 80, "velocity": 91, "channel": 0}, {"type": "note_on", "time": 13, "note": 77, "velocity": 85, "channel": 0}, {"type": "note_off", "time": 84, "note": 77, "velocity": 85, "channel": 0}, {"type": "note_on", "time": 28, "note": 75, "velocity": 90, "channel": 0}, {"type": "note_off", "time": 78, "note": 75, "velocity": 90, "channel": 0}, {"type": "note_on", "time": 25, "note": 73, "velocity": 94, "channel": 0}, {"type": "note_off", "time": 59, "note": 73, "velocity": 94, "channel": 0}, {"type": "note_on", "time": 13, "note": 72, "velocity": 91, "channel": 0}, {"type": "note_off", "time": 66, "note": 72, "velocity": 91, "channel": 0}, {"type": "note_on", "time": 3, "note": 69, "velocity": 93, "channel": 0}, {"type": "note_off", "time": 70, "note": 69, "velocity": 93, "channel": 0}, {"type": "note_on", "time": 2, "note": 63, "velocity": 91, "channel": 0}, {"type": "note_off", "time": 118, "note": 63, "velocity": 91, "channel": 0}, {"type": "note_on", "time": 402, "note": 80, "velocity": 104, "channel": 0}, {"type": "note_off", "time": 400, "note": 80, "velocity": 104, "channel": 0}, {"type": "note_on", "time": 6, "note": 79, "velocity": 105, "channel": 0}, {"type": "note_off", "time": 426, "note": 79, "velocity": 105, "channel": 0}, {"type": "note_on", "time": 45, "note": 79, "velocity": 95, "channel": 0}, {"type": "note_off", "time": 280, "note": 79, "velocity": 95, "channel": 0}, {"type": "note_on", "time": 72, "note": 79, "velocity": 98, "channel": 0}, {"type": "note_off", "time": 338, "note": 79, "velocity": 98, "channel": 0}, {"type": "note_on", "time": 45, "note": 86, "velocity": 95, "channel": 0}, {"type": "note_off", "time": 729, "note": 86, "velocity": 95, "channel": 0}, {"type": "note_on", "time": 3, "note": 77, "velocity": 78, "channel": 0}, {"type": "note_off", "time": 291, "note": 77, "velocity": 78, "channel": 0}, {"type": "note_on", "time": 402, "note": 84, "velocity": 90, "channel": 0}, {"type": "note_off", "time": 68, "note": 84, "velocity": 90, "channel": 0}, {"type": "note_on", "time": 0, "note": 86, "velocity": 99, "channel": 0}, {"type": "note_off", "time": 1176, "note": 86, "velocity": 99, "channel": 0}, {"type": "note_on", "time": 12, "note": 84, "velocity": 89, "channel": 0}, {"type": "note_off", "time": 90, "note": 84, "velocity": 89, "channel": 0}, {"type": "note_on", "time": 21, "note": 82, "velocity": 94, "channel": 0}, {"type": "note_off", "time": 80, "note": 82, "velocity": 94, "channel": 0}, {"type": "note_on", "time": 21, "note": 80, "velocity": 96, "channel": 0}, {"type": "note_off", "time": 69, "note": 80, "velocity": 96, "channel": 0}, {"type": "note_on", "time": 10, "note": 79, "velocity": 94, "channel": 0}, {"type": "note_off", "time": 78, "note": 79, "velocity": 94, "channel": 0}, {"type": "note_on", "time": 60, "note": 77, "velocity": 83, "channel": 0}, {"type": "note_off", "time": 51, "note": 77, "velocity": 83, "channel": 0}, {"type": "note_on", "time": 22, "note": 75, "velocity": 90, "channel": 0}, {"type": "note_off", "time": 55, "note": 75, "velocity": 90, "channel": 0}, {"type": "note_on", "time": 35, "note": 74, "velocity": 87, "channel": 0}, {"type": "note_off", "time": 229, "note": 74, "velocity": 87, "channel": 0}, {"type": "note_on", "time": 11, "note": 71, "velocity": 92, "channel": 0}, {"type": "note_off", "time": 128, "note": 71, "velocity": 92, "channel": 0}, {"type": "note_on", "time": 11, "note": 66, "velocity": 86, "channel": 0}, {"type": "note_off", "time": 28, "note": 66, "velocity": 86, "channel": 0}, {"type": "note_on", "time": 19, "note": 69, "velocity": 95, "channel": 0}, {"type": "note_off", "time": 95, "note": 69, "velocity": 95, "channel": 0}, {"type": "note_on", "time": 57, "note": 74, "velocity": 84, "channel": 0}, {"type": "note_off", "time": 114, "note": 74, "velocity": 84, "channel": 0}, {"type": "note_on", "time": 9, "note": 75, "velocity": 86, "channel": 0}, {"type": "note_off", "time": 66, "note": 75, "velocity": 86, "channel": 0}, {"type": "note_on", "time": 13, "note": 71, "velocity": 92, "channel": 0}, {"type": "note_off", "time": 145, "note": 71, "velocity": 92, "channel": 0}, {"type": "note_on", "time": 43, "note": 69, "velocity": 95, "channel": 0}, {"type": "note_off", "time": 132, "note": 69, "velocity": 95, "channel": 0}, {"type": "note_on", "time": 22, "note": 72, "velocity": 74, "channel": 0}, {"type": "note_off", "time": 46, "note": 72, "velocity": 74, "channel": 0}, {"type": "note_on", "time": 12, "note": 75, "velocity": 79, "channel": 0}, {"type": "note_off", "time": 42, "note": 75, "velocity": 79, "channel": 0}, {"type": "note_on", "time": 13, "note": 77, "velocity": 79, "channel": 0}, {"type": "note_off", "time": 42, "note": 77, "velocity": 79, "channel": 0}, {"type": "note_on", "time": 22, "note": 79, "velocity": 93, "channel": 0}, {"type": "note_off", "time": 42, "note": 79, "velocity": 93, "channel": 0}, {"type": "note_on", "time": 5, "note": 81, "velocity": 88, "channel": 0}, {"type": "note_off", "time": 50, "note": 81, "velocity": 88, "channel": 0}, {"type": "note_on", "time": 4, "note": 82, "velocity": 90, "channel": 0}, {"type": "note_off", "time": 73, "note": 82, "velocity": 90, "channel": 0}, {"type": "note_on", "time": 2, "note": 81, "velocity": 88, "channel": 0}, {"type": "note_off", "time": 357, "note": 81, "velocity": 88, "channel": 0}, {"type": "note_on", "time": 6, "note": 79, "velocity": 46, "channel": 0}, {"type": "note_off", "time": 62, "note": 79, "velocity": 46, "channel": 0}, {"type": "note_on", "time": 1, "note": 81, "velocity": 92, "channel": 0}, {"type": "note_off", "time": 143, "note": 81, "velocity": 92, "channel": 0}, {"type": "note_on", "time": 8, "note": 79, "velocity": 89, "channel": 0}, {"type": "note_off", "time": 165, "note": 79, "velocity": 89, "channel": 0}, {"type": "note_on", "time": 17, "note": 75, "velocity": 79, "channel": 0}, {"type": "note_off", "time": 179, "note": 75, "velocity": 79, "channel": 0}, {"type": "note_on", "time": 650, "note": 85, "velocity": 95, "channel": 0}, {"type": "note_off", "time": 171, "note": 85, "velocity": 95, "channel": 0}, {"type": "note_on", "time": 185, "note": 79, "velocity": 102, "channel": 0}, {"type": "note_off", "time": 319, "note": 79, "velocity": 102, "channel": 0}, {"type": "note_on", "time": 14, "note": 77, "velocity": 90, "channel": 0}, {"type": "note_off", "time": 324, "note": 77, "velocity": 90, "channel": 0}, {"type": "note_on", "time": 17, "note": 75, "velocity": 85, "channel": 0}, {"type": "note_off", "time": 74, "note": 75, "velocity": 85, "channel": 0}, {"type": "note_on", "time": 22, "note": 72, "velocity": 74, "channel": 0}, {"type": "note_off", "time": 56, "note": 72, "velocity": 74, "channel": 0}, {"type": "note_on", "time": 20, "note": 77, "velocity": 79, "channel": 0}, {"type": "note_off", "time": 69, "note": 77, "velocity": 79, "channel": 0}, {"type": "note_on", "time": 52, "note": 77, "velocity": 84, "channel": 0}, {"type": "note_off", "time": 81, "note": 77, "velocity": 84, "channel": 0}, {"type": "note_on", "time": 107, "note": 77, "velocity": 85, "channel": 0}, {"type": "note_off", "time": 107, "note": 77, "velocity": 85, "channel": 0}, {"type": "note_on", "time": 66, "note": 77, "velocity": 84, "channel": 0}, {"type": "note_off", "time": 132, "note": 77, "velocity": 84, "channel": 0}, {"type": "note_on", "time": 81, "note": 77, "velocity": 83, "channel": 0}, {"type": "note_off", "time": 104, "note": 77, "velocity": 83, "channel": 0}, {"type": "note_on", "time": 22, "note": 77, "velocity": 81, "channel": 0}, {"type": "note_off", "time": 93, "note": 77, "velocity": 81, "channel": 0}, {"type": "note_on", "time": 98, "note": 77, "velocity": 81, "channel": 0}, {"type": "note_off", "time": 887, "note": 77, "velocity": 81, "channel": 0}, {"type": "note_on", "time": 429, "note": 79, "velocity": 86, "channel": 0}, {"type": "note_off", "time": 182, "note": 79, "velocity": 86, "channel": 0}, {"type": "note_on", "time": 43, "note": 77, "velocity": 87, "channel": 0}, {"type": "note_off", "time": 517, "note": 77, "velocity": 87, "channel": 0}, {"type": "note_on", "time": 63, "note": 79, "velocity": 102, "channel": 0}, {"type": "note_off", "time": 93, "note": 79, "velocity": 102, "channel": 0}, {"type": "note_on", "time": 6, "note": 77, "velocity": 87, "channel": 0}, {"type": "note_off", "time": 31, "note": 77, "velocity": 87, "channel": 0}, {"type": "note_on", "time": 5, "note": 75, "velocity": 95, "channel": 0}, {"type": "note_off", "time": 53, "note": 75, "velocity": 95, "channel": 0}, {"type": "note_on", "time": 28, "note": 77, "velocity": 86, "channel": 0}, {"type": "note_off", "time": 71, "note": 77, "velocity": 86, "channel": 0}, {"type": "note_on", "time": 0, "note": 70, "velocity": 89, "channel": 0}, {"type": "note_off", "time": 49, "note": 70, "velocity": 89, "channel": 0}, {"type": "note_on", "time": 9, "note": 73, "velocity": 81, "channel": 0}, {"type": "note_off", "time": 43, "note": 73, "velocity": 81, "channel": 0}, {"type": "note_on", "time": 11, "note": 75, "velocity": 97, "channel": 0}, {"type": "note_off", "time": 92, "note": 75, "velocity": 97, "channel": 0}, {"type": "note_on", "time": 17, "note": 74, "velocity": 90, "channel": 0}, {"type": "note_off", "time": 158, "note": 74, "velocity": 90, "channel": 0}, {"type": "note_on", "time": 14, "note": 71, "velocity": 94, "channel": 0}, {"type": "note_off", "time": 80, "note": 71, "velocity": 94, "channel": 0}, {"type": "note_on", "time": 13, "note": 68, "velocity": 91, "channel": 0}, {"type": "note_off", "time": 89, "note": 68, "velocity": 91, "channel": 0}, {"type": "note_on", "time": 93, "note": 71, "velocity": 92, "channel": 0}, {"type": "note_off", "time": 76, "note": 71, "velocity": 92, "channel": 0}, {"type": "note_on", "time": 30, "note": 75, "velocity": 89, "channel": 0}, {"type": "note_off", "time": 62, "note": 75, "velocity": 89, "channel": 0}, {"type": "note_on", "time": 7, "note": 73, "velocity": 95, "channel": 0}, {"type": "note_off", "time": 101, "note": 73, "velocity": 95, "channel": 0}, {"type": "note_on", "time": 10, "note": 71, "velocity": 89, "channel": 0}, {"type": "note_off", "time": 80, "note": 71, "velocity": 89, "channel": 0}, {"type": "note_on", "time": 8, "note": 69, "velocity": 99, "channel": 0}, {"type": "note_off", "time": 78, "note": 69, "velocity": 99, "channel": 0}, {"type": "note_on", "time": 20, "note": 67, "velocity": 93, "channel": 0}, {"type": "note_off", "time": 102, "note": 67, "velocity": 93, "channel": 0}, {"type": "note_on", "time": 6, "note": 65, "velocity": 91, "channel": 0}, {"type": "note_off", "time": 114, "note": 65, "velocity": 91, "channel": 0}, {"type": "note_on", "time": 55, "note": 69, "velocity": 96, "channel": 0}, {"type": "note_off", "time": 107, "note": 69, "velocity": 96, "channel": 0}, {"type": "note_on", "time": 16, "note": 71, "velocity": 88, "channel": 0}, {"type": "note_off", "time": 116, "note": 71, "velocity": 88, "channel": 0}, {"type": "note_on", "time": 19, "note": 75, "velocity": 87, "channel": 0}, {"type": "note_off", "time": 114, "note": 75, "velocity": 87, "channel": 0}, {"type": "note_on", "time": 7, "note": 77, "velocity": 87, "channel": 0}, {"type": "note_off", "time": 126, "note": 77, "velocity": 87, "channel": 0}, {"type": "note_on", "time": 332, "note": 73, "velocity": 98, "channel": 0}, {"type": "note_off", "time": 85, "note": 73, "velocity": 98, "channel": 0}, {"type": "note_on", "time": 8, "note": 76, "velocity": 100, "channel": 0}, {"type": "note_off", "time": 91, "note": 76, "velocity": 100, "channel": 0}, {"type": "note_on", "time": 9, "note": 73, "velocity": 98, "channel": 0}, {"type": "note_off", "time": 88, "note": 73, "velocity": 98, "channel": 0}, {"type": "note_on", "time": 4, "note": 69, "velocity": 98, "channel": 0}, {"type": "note_off", "time": 102, "note": 69, "velocity": 98, "channel": 0}, {"type": "note_on", "time": 88, "note": 66, "velocity": 95, "channel": 0}, {"type": "note_off", "time": 84, "note": 66, "velocity": 95, "channel": 0}, {"type": "note_on", "time": 16, "note": 69, "velocity": 99, "channel": 0}, {"type": "note_off", "time": 83, "note": 69, "velocity": 99, "channel": 0}, {"type": "note_on", "time": 11, "note": 71, "velocity": 93, "channel": 0}, {"type": "note_off", "time": 72, "note": 71, "velocity": 93, "channel": 0}, {"type": "note_on", "time": 31, "note": 75, "velocity": 86, "channel": 0}, {"type": "note_off", "time": 32, "note": 75, "velocity": 86, "channel": 0}, {"type": "note_on", "time": 70, "note": 80, "velocity": 84, "channel": 0}, {"type": "note_off", "time": 112, "note": 80, "velocity": 84, "channel": 0}, {"type": "note_on", "time": 53, "note": 77, "velocity": 91, "channel": 0}, {"type": "note_off", "time": 79, "note": 77, "velocity": 91, "channel": 0}, {"type": "note_on", "time": 24, "note": 75, "velocity": 91, "channel": 0}, {"type": "note_off", "time": 68, "note": 75, "velocity": 91, "channel": 0}, {"type": "note_on", "time": 7, "note": 73, "velocity": 95, "channel": 0}, {"type": "note_off", "time": 108, "note": 73, "velocity": 95, "channel": 0}, {"type": "note_on", "time": 96, "note": 71, "velocity": 87, "channel": 0}, {"type": "note_off", "time": 155, "note": 71, "velocity": 87, "channel": 0}, {"type": "note_on", "time": 41, "note": 67, "velocity": 93, "channel": 0}, {"type": "note_off", "time": 86, "note": 67, "velocity": 93, "channel": 0}, {"type": "note_on", "time": 36, "note": 71, "velocity": 90, "channel": 0}, {"type": "note_off", "time": 93, "note": 71, "velocity": 90, "channel": 0}, {"type": "note_on", "time": 7, "note": 69, "velocity": 97, "channel": 0}, {"type": "note_off", "time": 83, "note": 69, "velocity": 97, "channel": 0}, {"type": "note_on", "time": 10, "note": 68, "velocity": 95, "channel": 0}, {"type": "note_off", "time": 84, "note": 68, "velocity": 95, "channel": 0}, {"type": "note_on", "time": 5, "note": 66, "velocity": 92, "channel": 0}, {"type": "note_off", "time": 87, "note": 66, "velocity": 92, "channel": 0}, {"type": "note_on", "time": 66, "note": 63, "velocity": 101, "channel": 0}, {"type": "note_off", "time": 110, "note": 63, "velocity": 101, "channel": 0}, {"type": "note_on", "time": 15, "note": 67, "velocity": 90, "channel": 0}, {"type": "note_off", "time": 54, "note": 67, "velocity": 90, "channel": 0}, {"type": "note_on", "time": 21, "note": 62, "velocity": 99, "channel": 0}, {"type": "note_off", "time": 113, "note": 62, "velocity": 99, "channel": 0}, {"type": "note_on", "time": 15, "note": 60, "velocity": 88, "channel": 0}, {"type": "note_off", "time": 120, "note": 60, "velocity": 88, "channel": 0}, {"type": "note_on", "time": 465, "note": 60, "velocity": 106, "channel": 0}, {"type": "note_off", "time": 114, "note": 60, "velocity": 106, "channel": 0}, {"type": "note_on", "time": 16, "note": 60, "velocity": 104, "channel": 0}, {"type": "note_off", "time": 70, "note": 60, "velocity": 104, "channel": 0}, {"type": "note_on", "time": 6, "note": 63, "velocity": 120, "channel": 0}, {"type": "note_off", "time": 146, "note": 63, "velocity": 120, "channel": 0}, {"type": "note_on", "time": 12, "note": 63, "velocity": 115, "channel": 0}, {"type": "note_off", "time": 97, "note": 63, "velocity": 115, "channel": 0}, {"type": "note_on", "time": 66, "note": 65, "velocity": 110, "channel": 0}, {"type": "note_off", "time": 131, "note": 65, "velocity": 110, "channel": 0}, {"type": "note_on", "time": 72, "note": 65, "velocity": 106, "channel": 0}, {"type": "note_off", "time": 78, "note": 65, "velocity": 106, "channel": 0}, {"type": "note_on", "time": 92, "note": 65, "velocity": 87, "channel": 0}, {"type": "note_off", "time": 43, "note": 65, "velocity": 87, "channel": 0}, {"type": "note_on", "time": 47, "note": 67, "velocity": 101, "channel": 0}, {"type": "note_off", "time": 125, "note": 67, "velocity": 101, "channel": 0}, {"type": "note_on", "time": 59, "note": 60, "velocity": 97, "channel": 0}, {"type": "note_off", "time": 97, "note": 60, "velocity": 97, "channel": 0}, {"type": "note_on", "time": 84, "note": 63, "velocity": 106, "channel": 0}, {"type": "note_off", "time": 132, "note": 63, "velocity": 106, "channel": 0}, {"type": "note_on", "time": 61, "note": 63, "velocity": 107, "channel": 0}, {"type": "note_off", "time": 122, "note": 63, "velocity": 107, "channel": 0}, {"type": "note_on", "time": 97, "note": 72, "velocity": 99, "channel": 0}, {"type": "note_off", "time": 362, "note": 72, "velocity": 99, "channel": 0}, {"type": "note_on", "time": 376, "note": 70, "velocity": 107, "channel": 0}, {"type": "note_off", "time": 118, "note": 70, "velocity": 107, "channel": 0}, {"type": "note_on", "time": 10, "note": 67, "velocity": 106, "channel": 0}, {"type": "note_off", "time": 71, "note": 67, "velocity": 106, "channel": 0}, {"type": "note_on", "time": 12, "note": 65, "velocity": 104, "channel": 0}, {"type": "note_off", "time": 109, "note": 65, "velocity": 104, "channel": 0}, {"type": "note_on", "time": 18, "note": 62, "velocity": 105, "channel": 0}, {"type": "note_off", "time": 76, "note": 62, "velocity": 105, "channel": 0}, {"type": "note_on", "time": 4, "note": 63, "velocity": 102, "channel": 0}, {"type": "note_off", "time": 114, "note": 63, "velocity": 102, "channel": 0}, {"type": "note_on", "time": 15, "note": 66, "velocity": 94, "channel": 0}, {"type": "note_off", "time": 52, "note": 66, "velocity": 94, "channel": 0}, {"type": "note_on", "time": 13, "note": 70, "velocity": 96, "channel": 0}, {"type": "note_off", "time": 127, "note": 70, "velocity": 96, "channel": 0}, {"type": "note_on", "time": 2, "note": 66, "velocity": 100, "channel": 0}, {"type": "note_off", "time": 114, "note": 66, "velocity": 100, "channel": 0}, {"type": "note_on", "time": 59, "note": 63, "velocity": 106, "channel": 0}, {"type": "note_off", "time": 112, "note": 63, "velocity": 106, "channel": 0}, {"type": "note_on", "time": 80, "note": 68, "velocity": 95, "channel": 0}, {"type": "note_off", "time": 123, "note": 68, "velocity": 95, "channel": 0}, {"type": "note_on", "time": 87, "note": 66, "velocity": 99, "channel": 0}, {"type": "note_off", "time": 108, "note": 66, "velocity": 99, "channel": 0}, {"type": "note_on", "time": 65, "note": 64, "velocity": 81, "channel": 0}, {"type": "note_off", "time": 37, "note": 64, "velocity": 81, "channel": 0}, {"type": "note_on", "time": 54, "note": 65, "velocity": 99, "channel": 0}, {"type": "note_off", "time": 101, "note": 65, "velocity": 99, "channel": 0}, {"type": "note_on", "time": 4, "note": 61, "velocity": 96, "channel": 0}, {"type": "note_off", "time": 69, "note": 61, "velocity": 96, "channel": 0}, {"type": "note_on", "time": 24, "note": 58, "velocity": 89, "channel": 0}, {"type": "note_off", "time": 72, "note": 58, "velocity": 89, "channel": 0}, {"type": "note_on", "time": 49, "note": 54, "velocity": 88, "channel": 0}, {"type": "note_off", "time": 231, "note": 54, "velocity": 88, "channel": 0}, {"type": "note_on", "time": 9, "note": 56, "velocity": 88, "channel": 0}, {"type": "note_off", "time": 115, "note": 56, "velocity": 88, "channel": 0}, {"type": "note_on", "time": 62, "note": 53, "velocity": 94, "channel": 0}, {"type": "note_off", "time": 136, "note": 53, "velocity": 94, "channel": 0}, {"type": "note_on", "time": 11, "note": 58, "velocity": 94, "channel": 0}, {"type": "note_off", "time": 59, "note": 58, "velocity": 94, "channel": 0}, {"type": "note_on", "time": 0, "note": 51, "velocity": 95, "channel": 0}, {"type": "note_off", "time": 107, "note": 51, "velocity": 95, "channel": 0}, {"type": "note_on", "time": 22, "note": 49, "velocity": 97, "channel": 0}, {"type": "note_off", "time": 65, "note": 49, "velocity": 97, "channel": 0}, {"type": "note_on", "time": 10, "note": 51, "velocity": 99, "channel": 0}, {"type": "note_off", "time": 68, "note": 51, "velocity": 99, "channel": 0}, {"type": "note_on", "time": 32, "note": 53, "velocity": 97, "channel": 0}, {"type": "note_off", "time": 194, "note": 53, "velocity": 97, "channel": 0}, {"type": "note_on", "time": 2, "note": 51, "velocity": 101, "channel": 0}, {"type": "note_off", "time": 86, "note": 51, "velocity": 101, "channel": 0}, {"type": "note_on", "time": 1, "note": 46, "velocity": 101, "channel": 0}, {"type": "note_off", "time": 106, "note": 46, "velocity": 101, "channel": 0}, {"type": "note_on", "time": 11, "note": 44, "velocity": 117, "channel": 0}, {"type": "note_off", "time": 234, "note": 44, "velocity": 117, "channel": 0}, {"type": "note_on", "time": 488, "note": 43, "velocity": 107, "channel": 0}, {"type": "note_off", "time": 53, "note": 43, "velocity": 107, "channel": 0}, {"type": "note_on", "time": 18, "note": 44, "velocity": 102, "channel": 0}, {"type": "note_off", "time": 74, "note": 44, "velocity": 102, "channel": 0}, {"type": "note_on", "time": 15, "note": 46, "velocity": 97, "channel": 0}, {"type": "note_off", "time": 41, "note": 46, "velocity": 97, "channel": 0}, {"type": "note_on", "time": 3, "note": 48, "velocity": 99, "channel": 0}, {"type": "note_off", "time": 34, "note": 48, "velocity": 99, "channel": 0}, {"type": "note_on", "time": 17, "note": 52, "velocity": 99, "channel": 0}, {"type": "note_off", "time": 45, "note": 52, "velocity": 99, "channel": 0}, {"type": "note_on", "time": 8, "note": 47, "velocity": 101, "channel": 0}, {"type": "note_off", "time": 48, "note": 47, "velocity": 101, "channel": 0}, {"type": "note_on", "time": 3, "note": 49, "velocity": 99, "channel": 0}, {"type": "note_off", "time": 208, "note": 49, "velocity": 99, "channel": 0}, {"type": "note_on", "time": 13, "note": 51, "velocity": 97, "channel": 0}, {"type": "note_off", "time": 45, "note": 51, "velocity": 97, "channel": 0}, {"type": "note_on", "time": 7, "note": 49, "velocity": 96, "channel": 0}, {"type": "note_off", "time": 51, "note": 49, "velocity": 96, "channel": 0}, {"type": "note_on", "time": 15, "note": 51, "velocity": 95, "channel": 0}, {"type": "note_off", "time": 40, "note": 51, "velocity": 95, "channel": 0}, {"type": "note_on", "time": 5, "note": 49, "velocity": 90, "channel": 0}, {"type": "note_off", "time": 57, "note": 49, "velocity": 90, "channel": 0}, {"type": "note_on", "time": 340, "note": 53, "velocity": 97, "channel": 0}, {"type": "note_off", "time": 53, "note": 53, "velocity": 97, "channel": 0}, {"type": "note_on", "time": 6, "note": 57, "velocity": 96, "channel": 0}, {"type": "note_off", "time": 44, "note": 57, "velocity": 96, "channel": 0}, {"type": "note_on", "time": 8, "note": 58, "velocity": 93, "channel": 0}, {"type": "note_off", "time": 31, "note": 58, "velocity": 93, "channel": 0}, {"type": "note_on", "time": 3, "note": 56, "velocity": 90, "channel": 0}, {"type": "note_off", "time": 38, "note": 56, "velocity": 90, "channel": 0}, {"type": "note_on", "time": 5, "note": 54, "velocity": 94, "channel": 0}, {"type": "note_off", "time": 45, "note": 54, "velocity": 94, "channel": 0}, {"type": "note_on", "time": 14, "note": 52, "velocity": 91, "channel": 0}, {"type": "note_off", "time": 42, "note": 52, "velocity": 91, "channel": 0}, {"type": "note_on", "time": 3, "note": 55, "velocity": 90, "channel": 0}, {"type": "note_off", "time": 31, "note": 55, "velocity": 90, "channel": 0}, {"type": "note_on", "time": 0, "note": 57, "velocity": 96, "channel": 0}, {"type": "note_off", "time": 44, "note": 57, "velocity": 96, "channel": 0}, {"type": "note_on", "time": 11, "note": 54, "velocity": 97, "channel": 0}, {"type": "note_off", "time": 45, "note": 54, "velocity": 97, "channel": 0}, {"type": "note_on", "time": 8, "note": 53, "velocity": 95, "channel": 0}, {"type": "note_off", "time": 30, "note": 53, "velocity": 95, "channel": 0}, {"type": "note_on", "time": 9, "note": 48, "velocity": 95, "channel": 0}, {"type": "note_off", "time": 28, "note": 48, "velocity": 95, "channel": 0}, {"type": "note_on", "time": 1, "note": 50, "velocity": 89, "channel": 0}, {"type": "note_off", "time": 45, "note": 50, "velocity": 89, "channel": 0}, {"type": "note_on", "time": 1, "note": 52, "velocity": 96, "channel": 0}, {"type": "note_off", "time": 46, "note": 52, "velocity": 96, "channel": 0}, {"type": "note_on", "time": 11, "note": 51, "velocity": 92, "channel": 0}, {"type": "note_off", "time": 34, "note": 51, "velocity": 92, "channel": 0}, {"type": "note_on", "time": 17, "note": 50, "velocity": 92, "channel": 0}, {"type": "note_off", "time": 45, "note": 50, "velocity": 92, "channel": 0}, {"type": "note_on", "time": 11, "note": 49, "velocity": 92, "channel": 0}, {"type": "note_off", "time": 45, "note": 49, "velocity": 92, "channel": 0}, {"type": "note_on", "time": 7, "note": 48, "velocity": 92, "channel": 0}, {"type": "note_off", "time": 59, "note": 48, "velocity": 92, "channel": 0}, {"type": "note_on", "time": 24, "note": 51, "velocity": 85, "channel": 0}, {"type": "note_off", "time": 75, "note": 51, "velocity": 85, "channel": 0}, {"type": "note_on", "time": 2, "note": 54, "velocity": 93, "channel": 0}, {"type": "note_off", "time": 86, "note": 54, "velocity": 93, "channel": 0}, {"type": "note_on", "time": 9, "note": 58, "velocity": 97, "channel": 0}, {"type": "note_off", "time": 47, "note": 58, "velocity": 97, "channel": 0}, {"type": "note_on", "time": 5, "note": 62, "velocity": 100, "channel": 0}, {"type": "note_off", "time": 33, "note": 62, "velocity": 100, "channel": 0}, {"type": "note_on", "time": 24, "note": 61, "velocity": 95, "channel": 0}, {"type": "note_off", "time": 34, "note": 61, "velocity": 95, "channel": 0}, {"type": "note_on", "time": 13, "note": 59, "velocity": 94, "channel": 0}, {"type": "note_off", "time": 38, "note": 59, "velocity": 94, "channel": 0}, {"type": "note_on", "time": 11, "note": 57, "velocity": 92, "channel": 0}, {"type": "note_off", "time": 49, "note": 57, "velocity": 92, "channel": 0}, {"type": "note_on", "time": 11, "note": 56, "velocity": 88, "channel": 0}, {"type": "note_off", "time": 64, "note": 56, "velocity": 88, "channel": 0}, {"type": "note_on", "time": 21, "note": 58, "velocity": 92, "channel": 0}, {"type": "note_off", "time": 56, "note": 58, "velocity": 92, "channel": 0}, {"type": "note_on", "time": 10, "note": 55, "velocity": 101, "channel": 0}, {"type": "note_off", "time": 63, "note": 55, "velocity": 101, "channel": 0}, {"type": "note_on", "time": 22, "note": 58, "velocity": 94, "channel": 0}, {"type": "note_off", "time": 43, "note": 58, "velocity": 94, "channel": 0}, {"type": "note_on", "time": 10, "note": 60, "velocity": 88, "channel": 0}, {"type": "note_off", "time": 28, "note": 60, "velocity": 88, "channel": 0}, {"type": "note_on", "time": 4, "note": 63, "velocity": 99, "channel": 0}, {"type": "note_off", "time": 55, "note": 63, "velocity": 99, "channel": 0}, {"type": "note_on", "time": 7, "note": 62, "velocity": 97, "channel": 0}, {"type": "note_off", "time": 26, "note": 62, "velocity": 97, "channel": 0}, {"type": "note_on", "time": 7, "note": 60, "velocity": 91, "channel": 0}, {"type": "note_off", "time": 34, "note": 60, "velocity": 91, "channel": 0}, {"type": "note_on", "time": 25, "note": 58, "velocity": 91, "channel": 0}, {"type": "note_off", "time": 53, "note": 58, "velocity": 91, "channel": 0}, {"type": "note_on", "time": 7, "note": 60, "velocity": 88, "channel": 0}, {"type": "note_off", "time": 40, "note": 60, "velocity": 88, "channel": 0}, {"type": "note_on", "time": 13, "note": 61, "velocity": 90, "channel": 0}, {"type": "note_off", "time": 31, "note": 61, "velocity": 90, "channel": 0}, {"type": "note_on", "time": 3, "note": 63, "velocity": 93, "channel": 0}, {"type": "note_off", "time": 54, "note": 63, "velocity": 93, "channel": 0}, {"type": "note_on", "time": 75, "note": 64, "velocity": 98, "channel": 0}, {"type": "note_off", "time": 64, "note": 64, "velocity": 98, "channel": 0}, {"type": "note_on", "time": 12, "note": 62, "velocity": 99, "channel": 0}, {"type": "note_off", "time": 44, "note": 62, "velocity": 99, "channel": 0}, {"type": "note_on", "time": 6, "note": 63, "velocity": 98, "channel": 0}, {"type": "note_off", "time": 50, "note": 63, "velocity": 98, "channel": 0}, {"type": "note_on", "time": 4, "note": 66, "velocity": 89, "channel": 0}, {"type": "note_off", "time": 24, "note": 66, "velocity": 89, "channel": 0}, {"type": "note_on", "time": 9, "note": 69, "velocity": 93, "channel": 0}, {"type": "note_off", "time": 45, "note": 69, "velocity": 93, "channel": 0}, {"type": "note_on", "time": 6, "note": 67, "velocity": 89, "channel": 0}, {"type": "note_off", "time": 30, "note": 67, "velocity": 89, "channel": 0}, {"type": "note_on", "time": 10, "note": 66, "velocity": 90, "channel": 0}, {"type": "note_on", "time": 41, "note": 63, "velocity": 96, "channel": 0}, {"type": "note_off", "time": 0, "note": 66, "velocity": 90, "channel": 0}, {"type": "note_off", "time": 57, "note": 63, "velocity": 96, "channel": 0}, {"type": "note_on", "time": 8, "note": 62, "velocity": 97, "channel": 0}, {"type": "note_off", "time": 34, "note": 62, "velocity": 97, "channel": 0}, {"type": "note_on", "time": 4, "note": 63, "velocity": 92, "channel": 0}, {"type": "note_off", "time": 38, "note": 63, "velocity": 92, "channel": 0}, {"type": "note_on", "time": 75, "note": 74, "velocity": 88, "channel": 0}, {"type": "note_off", "time": 58, "note": 74, "velocity": 88, "channel": 0}, {"type": "note_on", "time": 7, "note": 73, "velocity": 89, "channel": 0}, {"type": "note_off", "time": 17, "note": 73, "velocity": 89, "channel": 0}, {"type": "note_on", "time": 6, "note": 72, "velocity": 94, "channel": 0}, {"type": "note_off", "time": 14, "note": 72, "velocity": 94, "channel": 0}, {"type": "note_on", "time": 6, "note": 70, "velocity": 85, "channel": 0}, {"type": "note_off", "time": 21, "note": 70, "velocity": 85, "channel": 0}, {"type": "note_on", "time": 12, "note": 67, "velocity": 91, "channel": 0}, {"type": "note_off", "time": 46, "note": 67, "velocity": 91, "channel": 0}, {"type": "note_on", "time": 4, "note": 63, "velocity": 99, "channel": 0}, {"type": "note_off", "time": 46, "note": 63, "velocity": 99, "channel": 0}, {"type": "note_on", "time": 5, "note": 62, "velocity": 98, "channel": 0}, {"type": "note_off", "time": 32, "note": 62, "velocity": 98, "channel": 0}, {"type": "note_on", "time": 2, "note": 60, "velocity": 91, "channel": 0}, {"type": "note_off", "time": 28, "note": 60, "velocity": 91, "channel": 0}, {"type": "note_on", "time": 6, "note": 59, "velocity": 88, "channel": 0}, {"type": "note_off", "time": 51, "note": 59, "velocity": 88, "channel": 0}, {"type": "note_on", "time": 4, "note": 57, "velocity": 91, "channel": 0}, {"type": "note_off", "time": 38, "note": 57, "velocity": 91, "channel": 0}, {"type": "note_on", "time": 6, "note": 56, "velocity": 93, "channel": 0}, {"type": "note_off", "time": 45, "note": 56, "velocity": 93, "channel": 0}, {"type": "note_on", "time": 494, "note": 72, "velocity": 99, "channel": 0}, {"type": "note_off", "time": 31, "note": 72, "velocity": 99, "channel": 0}, {"type": "note_on", "time": 3, "note": 71, "velocity": 101, "channel": 0}, {"type": "note_off", "time": 30, "note": 71, "velocity": 101, "channel": 0}, {"type": "note_on", "time": 10, "note": 70, "velocity": 97, "channel": 0}, {"type": "note_off", "time": 36, "note": 70, "velocity": 97, "channel": 0}, {"type": "note_on", "time": 13, "note": 67, "velocity": 103, "channel": 0}, {"type": "note_off", "time": 42, "note": 67, "velocity": 103, "channel": 0}, {"type": "note_on", "time": 16, "note": 63, "velocity": 101, "channel": 0}, {"type": "note_off", "time": 44, "note": 63, "velocity": 101, "channel": 0}, {"type": "note_on", "time": 13, "note": 60, "velocity": 99, "channel": 0}, {"type": "note_off", "time": 40, "note": 60, "velocity": 99, "channel": 0}, {"type": "note_on", "time": 13, "note": 63, "velocity": 96, "channel": 0}, {"type": "note_off", "time": 36, "note": 63, "velocity": 96, "channel": 0}, {"type": "note_on", "time": 7, "note": 59, "velocity": 91, "channel": 0}, {"type": "note_off", "time": 42, "note": 59, "velocity": 91, "channel": 0}, {"type": "note_on", "time": 9, "note": 63, "velocity": 102, "channel": 0}, {"type": "note_off", "time": 50, "note": 63, "velocity": 102, "channel": 0}, {"type": "note_on", "time": 11, "note": 60, "velocity": 94, "channel": 0}, {"type": "note_off", "time": 52, "note": 60, "velocity": 94, "channel": 0}, {"type": "note_on", "time": 24, "note": 71, "velocity": 99, "channel": 0}, {"type": "note_off", "time": 57, "note": 71, "velocity": 99, "channel": 0}, {"type": "note_on", "time": 13, "note": 67, "velocity": 95, "channel": 0}, {"type": "note_off", "time": 49, "note": 67, "velocity": 95, "channel": 0}, {"type": "note_on", "time": 13, "note": 63, "velocity": 100, "channel": 0}, {"type": "note_off", "time": 64, "note": 63, "velocity": 100, "channel": 0}, {"type": "note_on", "time": 5, "note": 60, "velocity": 96, "channel": 0}, {"type": "note_off", "time": 55, "note": 60, "velocity": 96, "channel": 0}, {"type": "note_on", "time": 3, "note": 63, "velocity": 94, "channel": 0}, {"type": "note_off", "time": 28, "note": 63, "velocity": 94, "channel": 0}, {"type": "note_on", "time": 0, "note": 69, "velocity": 95, "channel": 0}, {"type": "note_off", "time": 54, "note": 69, "velocity": 95, "channel": 0}, {"type": "note_on", "time": 13, "note": 65, "velocity": 95, "channel": 0}, {"type": "note_off", "time": 21, "note": 65, "velocity": 95, "channel": 0}, {"type": "note_on", "time": 11, "note": 63, "velocity": 102, "channel": 0}, {"type": "note_off", "time": 28, "note": 63, "velocity": 102, "channel": 0}, {"type": "note_on", "time": 10, "note": 60, "velocity": 93, "channel": 0}, {"type": "note_off", "time": 45, "note": 60, "velocity": 93, "channel": 0}, {"type": "note_on", "time": 34, "note": 62, "velocity": 94, "channel": 0}, {"type": "note_off", "time": 68, "note": 62, "velocity": 94, "channel": 0}, {"type": "note_on", "time": 6, "note": 65, "velocity": 98, "channel": 0}, {"type": "note_off", "time": 76, "note": 65, "velocity": 98, "channel": 0}, {"type": "note_on", "time": 7, "note": 62, "velocity": 106, "channel": 0}, {"type": "note_off", "time": 78, "note": 62, "velocity": 106, "channel": 0}, {"type": "note_on", "time": 6, "note": 59, "velocity": 91, "channel": 0}, {"type": "note_off", "time": 54, "note": 59, "velocity": 91, "channel": 0}, {"type": "note_on", "time": 5, "note": 57, "velocity": 110, "channel": 0}, {"type": "note_off", "time": 43, "note": 57, "velocity": 110, "channel": 0}, {"type": "note_on", "time": 5, "note": 62, "velocity": 97, "channel": 0}, {"type": "note_off", "time": 91, "note": 62, "velocity": 97, "channel": 0}, {"type": "note_on", "time": 3, "note": 63, "velocity": 104, "channel": 0}, {"type": "note_off", "time": 85, "note": 63, "velocity": 104, "channel": 0}, {"type": "note_on", "time": 7, "note": 60, "velocity": 91, "channel": 0}, {"type": "note_off", "time": 28, "note": 60, "velocity": 91, "channel": 0}, {"type": "note_on", "time": 9, "note": 57, "velocity": 92, "channel": 0}, {"type": "note_off", "time": 31, "note": 57, "velocity": 92, "channel": 0}, {"type": "note_on", "time": 7, "note": 54, "velocity": 87, "channel": 0}, {"type": "note_off", "time": 76, "note": 54, "velocity": 87, "channel": 0}, {"type": "note_on", "time": 4, "note": 57, "velocity": 92, "channel": 0}, {"type": "note_off", "time": 65, "note": 57, "velocity": 92, "channel": 0}, {"type": "note_on", "time": 0, "note": 62, "velocity": 94, "channel": 0}, {"type": "note_off", "time": 95, "note": 62, "velocity": 94, "channel": 0}, {"type": "note_on", "time": 8, "note": 58, "velocity": 94, "channel": 0}, {"type": "note_off", "time": 43, "note": 58, "velocity": 94, "channel": 0}, {"type": "note_on", "time": 7, "note": 55, "velocity": 94, "channel": 0}, {"type": "note_off", "time": 46, "note": 55, "velocity": 94, "channel": 0}, {"type": "note_on", "time": 17, "note": 50, "velocity": 87, "channel": 0}, {"type": "note_off", "time": 74, "note": 50, "velocity": 87, "channel": 0}, {"type": "note_on", "time": 435, "note": 74, "velocity": 83, "channel": 0}, {"type": "note_off", "time": 197, "note": 74, "velocity": 83, "channel": 0}, {"type": "note_on", "time": 18, "note": 69, "velocity": 83, "channel": 0}, {"type": "note_off", "time": 156, "note": 69, "velocity": 83, "channel": 0}, {"type": "note_on", "time": 0, "note": 71, "velocity": 102, "channel": 0}, {"type": "note_off", "time": 24, "note": 71, "velocity": 102, "channel": 0}, {"type": "note_on", "time": 12, "note": 72, "velocity": 102, "channel": 0}, {"type": "note_off", "time": 53, "note": 72, "velocity": 102, "channel": 0}, {"type": "note_on", "time": 1, "note": 71, "velocity": 100, "channel": 0}, {"type": "note_off", "time": 31, "note": 71, "velocity": 100, "channel": 0}, {"type": "note_on", "time": 9, "note": 67, "velocity": 94, "channel": 0}, {"type": "note_off", "time": 33, "note": 67, "velocity": 94, "channel": 0}, {"type": "note_on", "time": 13, "note": 63, "velocity": 108, "channel": 0}, {"type": "note_off", "time": 53, "note": 63, "velocity": 108, "channel": 0}, {"type": "note_on", "time": 10, "note": 60, "velocity": 100, "channel": 0}, {"type": "note_off", "time": 27, "note": 60, "velocity": 100, "channel": 0}, {"type": "note_on", "time": 3, "note": 63, "velocity": 93, "channel": 0}, {"type": "note_off", "time": 42, "note": 63, "velocity": 93, "channel": 0}, {"type": "note_on", "time": 5, "note": 67, "velocity": 96, "channel": 0}, {"type": "note_off", "time": 43, "note": 67, "velocity": 96, "channel": 0}, {"type": "note_on", "time": 8, "note": 71, "velocity": 96, "channel": 0}, {"type": "note_off", "time": 79, "note": 71, "velocity": 96, "channel": 0}, {"type": "note_on", "time": 6, "note": 67, "velocity": 99, "channel": 0}, {"type": "note_off", "time": 49, "note": 67, "velocity": 99, "channel": 0}, {"type": "note_on", "time": 13, "note": 63, "velocity": 103, "channel": 0}, {"type": "note_off", "time": 43, "note": 63, "velocity": 103, "channel": 0}, {"type": "note_on", "time": 17, "note": 60, "velocity": 95, "channel": 0}, {"type": "note_off", "time": 32, "note": 60, "velocity": 95, "channel": 0}, {"type": "note_on", "time": 7, "note": 63, "velocity": 90, "channel": 0}, {"type": "note_off", "time": 42, "note": 63, "velocity": 90, "channel": 0}, {"type": "note_on", "time": 1, "note": 67, "velocity": 98, "channel": 0}, {"type": "note_off", "time": 44, "note": 67, "velocity": 98, "channel": 0}, {"type": "note_on", "time": 10, "note": 69, "velocity": 100, "channel": 0}, {"type": "note_off", "time": 58, "note": 69, "velocity": 100, "channel": 0}, {"type": "note_on", "time": 1, "note": 65, "velocity": 104, "channel": 0}, {"type": "note_off", "time": 56, "note": 65, "velocity": 104, "channel": 0}, {"type": "note_on", "time": 7, "note": 66, "velocity": 96, "channel": 0}, {"type": "note_off", "time": 42, "note": 66, "velocity": 96, "channel": 0}, {"type": "note_on", "time": 5, "note": 67, "velocity": 97, "channel": 0}, {"type": "note_off", "time": 52, "note": 67, "velocity": 97, "channel": 0}, {"type": "note_on", "time": 21, "note": 63, "velocity": 101, "channel": 0}, {"type": "note_off", "time": 60, "note": 63, "velocity": 101, "channel": 0}, {"type": "note_on", "time": 8, "note": 60, "velocity": 91, "channel": 0}, {"type": "note_off", "time": 37, "note": 60, "velocity": 91, "channel": 0}, {"type": "note_on", "time": 3, "note": 64, "velocity": 100, "channel": 0}, {"type": "note_off", "time": 53, "note": 64, "velocity": 100, "channel": 0}, {"type": "note_on", "time": 2, "note": 65, "velocity": 100, "channel": 0}, {"type": "note_off", "time": 58, "note": 65, "velocity": 100, "channel": 0}, {"type": "note_on", "time": 5, "note": 62, "velocity": 108, "channel": 0}, {"type": "note_off", "time": 64, "note": 62, "velocity": 108, "channel": 0}, {"type": "note_on", "time": 3, "note": 58, "velocity": 95, "channel": 0}, {"type": "note_off", "time": 59, "note": 58, "velocity": 95, "channel": 0}, {"type": "note_on", "time": 7, "note": 55, "velocity": 87, "channel": 0}, {"type": "note_off", "time": 51, "note": 55, "velocity": 87, "channel": 0}, {"type": "note_on", "time": 0, "note": 57, "velocity": 92, "channel": 0}, {"type": "note_off", "time": 32, "note": 57, "velocity": 92, "channel": 0}, {"type": "note_on", "time": 7, "note": 58, "velocity": 97, "channel": 0}, {"type": "note_off", "time": 60, "note": 58, "velocity": 97, "channel": 0}, {"type": "note_on", "time": 5, "note": 63, "velocity": 102, "channel": 0}, {"type": "note_off", "time": 81, "note": 63, "velocity": 102, "channel": 0}, {"type": "note_on", "time": 5, "note": 60, "velocity": 97, "channel": 0}, {"type": "note_off", "time": 41, "note": 60, "velocity": 97, "channel": 0}, {"type": "note_on", "time": 8, "note": 59, "velocity": 92, "channel": 0}, {"type": "note_off", "time": 40, "note": 59, "velocity": 92, "channel": 0}, {"type": "note_on", "time": 13, "note": 54, "velocity": 91, "channel": 0}, {"type": "note_off", "time": 60, "note": 54, "velocity": 91, "channel": 0}, {"type": "note_on", "time": 7, "note": 55, "velocity": 85, "channel": 0}, {"type": "note_off", "time": 49, "note": 55, "velocity": 85, "channel": 0}, {"type": "note_on", "time": 13, "note": 59, "velocity": 88, "channel": 0}, {"type": "note_off", "time": 33, "note": 59, "velocity": 88, "channel": 0}, {"type": "note_on", "time": 3, "note": 60, "velocity": 94, "channel": 0}, {"type": "note_off", "time": 57, "note": 60, "velocity": 94, "channel": 0}, {"type": "note_on", "time": 11, "note": 59, "velocity": 91, "channel": 0}, {"type": "note_off", "time": 37, "note": 59, "velocity": 91, "channel": 0}, {"type": "note_on", "time": 17, "note": 55, "velocity": 91, "channel": 0}, {"type": "note_off", "time": 51, "note": 55, "velocity": 91, "channel": 0}, {"type": "note_on", "time": 14, "note": 51, "velocity": 88, "channel": 0}, {"type": "note_off", "time": 34, "note": 51, "velocity": 88, "channel": 0}, {"type": "note_on", "time": 15, "note": 48, "velocity": 84, "channel": 0}, {"type": "note_off", "time": 36, "note": 48, "velocity": 84, "channel": 0}, {"type": "note_on", "time": 0, "note": 58, "velocity": 87, "channel": 0}, {"type": "note_off", "time": 82, "note": 58, "velocity": 87, "channel": 0}, {"type": "note_on", "time": 65, "note": 51, "velocity": 84, "channel": 0}, {"type": "note_off", "time": 59, "note": 51, "velocity": 84, "channel": 0}, {"type": "note_on", "time": 11, "note": 56, "velocity": 91, "channel": 0}, {"type": "note_off", "time": 52, "note": 56, "velocity": 91, "channel": 0}, {"type": "note_on", "time": 19, "note": 55, "velocity": 88, "channel": 0}, {"type": "note_off", "time": 31, "note": 55, "velocity": 88, "channel": 0}, {"type": "note_on", "time": 6, "note": 51, "velocity": 89, "channel": 0}, {"type": "note_off", "time": 64, "note": 51, "velocity": 89, "channel": 0}, {"type": "note_on", "time": 26, "note": 48, "velocity": 83, "channel": 0}, {"type": "note_off", "time": 46, "note": 48, "velocity": 83, "channel": 0}, {"type": "note_on", "time": 4, "note": 55, "velocity": 85, "channel": 0}, {"type": "note_off", "time": 59, "note": 55, "velocity": 85, "channel": 0}, {"type": "note_on", "time": 19, "note": 53, "velocity": 80, "channel": 0}, {"type": "note_off", "time": 267, "note": 53, "velocity": 80, "channel": 0}, {"type": "note_on", "time": 356, "note": 51, "velocity": 98, "channel": 0}, {"type": "note_off", "time": 74, "note": 51, "velocity": 98, "channel": 0}, {"type": "note_on", "time": 7, "note": 55, "velocity": 95, "channel": 0}, {"type": "note_off", "time": 109, "note": 55, "velocity": 95, "channel": 0}, {"type": "note_on", "time": 13, "note": 53, "velocity": 104, "channel": 0}, {"type": "note_off", "time": 72, "note": 53, "velocity": 104, "channel": 0}, {"type": "note_on", "time": 3, "note": 51, "velocity": 102, "channel": 0}, {"type": "note_off", "time": 119, "note": 51, "velocity": 102, "channel": 0}, {"type": "note_on", "time": 5, "note": 50, "velocity": 98, "channel": 0}, {"type": "note_off", "time": 81, "note": 50, "velocity": 98, "channel": 0}, {"type": "note_on", "time": 5, "note": 48, "velocity": 96, "channel": 0}, {"type": "note_off", "time": 94, "note": 48, "velocity": 96, "channel": 0}, {"type": "note_on", "time": 3, "note": 50, "velocity": 95, "channel": 0}, {"type": "note_off", "time": 85, "note": 50, "velocity": 95, "channel": 0}, {"type": "note_on", "time": 9, "note": 51, "velocity": 96, "channel": 0}, {"type": "note_off", "time": 78, "note": 51, "velocity": 96, "channel": 0}, {"type": "note_on", "time": 49, "note": 48, "velocity": 89, "channel": 0}, {"type": "note_off", "time": 51, "note": 48, "velocity": 89, "channel": 0}, {"type": "note_on", "time": 11, "note": 53, "velocity": 94, "channel": 0}, {"type": "note_off", "time": 99, "note": 53, "velocity": 94, "channel": 0}, {"type": "note_on", "time": 91, "note": 51, "velocity": 92, "channel": 0}, {"type": "note_off", "time": 95, "note": 51, "velocity": 92, "channel": 0}, {"type": "note_on", "time": 2, "note": 53, "velocity": 94, "channel": 0}, {"type": "note_off", "time": 68, "note": 53, "velocity": 94, "channel": 0}, {"type": "note_on", "time": 3, "note": 54, "velocity": 89, "channel": 0}, {"type": "note_off", "time": 75, "note": 54, "velocity": 89, "channel": 0}, {"type": "note_on", "time": 10, "note": 55, "velocity": 92, "channel": 0}, {"type": "note_off", "time": 114, "note": 55, "velocity": 92, "channel": 0}, {"type": "note_on", "time": 5, "note": 57, "velocity": 97, "channel": 0}, {"type": "note_off", "time": 103, "note": 57, "velocity": 97, "channel": 0}, {"type": "note_on", "time": 61, "note": 55, "velocity": 89, "channel": 0}, {"type": "note_off", "time": 106, "note": 55, "velocity": 89, "channel": 0}, {"type": "note_on", "time": 38, "note": 63, "velocity": 102, "channel": 0}, {"type": "note_off", "time": 99, "note": 63, "velocity": 102, "channel": 0}, {"type": "note_on", "time": 72, "note": 58, "velocity": 96, "channel": 0}, {"type": "note_off", "time": 63, "note": 58, "velocity": 96, "channel": 0}, {"type": "note_on", "time": 5, "note": 59, "velocity": 87, "channel": 0}, {"type": "note_off", "time": 91, "note": 59, "velocity": 87, "channel": 0}, {"type": "note_on", "time": 14, "note": 62, "velocity": 102, "channel": 0}, {"type": "note_off", "time": 78, "note": 62, "velocity": 102, "channel": 0}, {"type": "note_on", "time": 8, "note": 63, "velocity": 96, "channel": 0}, {"type": "note_off", "time": 89, "note": 63, "velocity": 96, "channel": 0}, {"type": "note_on", "time": 34, "note": 67, "velocity": 91, "channel": 0}, {"type": "note_off", "time": 66, "note": 67, "velocity": 91, "channel": 0}, {"type": "note_on", "time": 11, "note": 66, "velocity": 87, "channel": 0}, {"type": "note_off", "time": 78, "note": 66, "velocity": 87, "channel": 0}, {"type": "note_on", "time": 14, "note": 62, "velocity": 82, "channel": 0}, {"type": "note_off", "time": 45, "note": 62, "velocity": 82, "channel": 0}, {"type": "note_on", "time": 24, "note": 65, "velocity": 89, "channel": 0}, {"type": "note_off", "time": 116, "note": 65, "velocity": 89, "channel": 0}, {"type": "note_on", "time": 70, "note": 64, "velocity": 98, "channel": 0}, {"type": "note_off", "time": 120, "note": 64, "velocity": 98, "channel": 0}, {"type": "note_on", "time": 16, "note": 66, "velocity": 88, "channel": 0}, {"type": "note_off", "time": 42, "note": 66, "velocity": 88, "channel": 0}, {"type": "note_on", "time": 26, "note": 71, "velocity": 87, "channel": 0}, {"type": "note_off", "time": 89, "note": 71, "velocity": 87, "channel": 0}, {"type": "note_on", "time": 24, "note": 73, "velocity": 91, "channel": 0}, {"type": "note_off", "time": 62, "note": 73, "velocity": 91, "channel": 0}, {"type": "note_on", "time": 38, "note": 67, "velocity": 94, "channel": 0}, {"type": "note_off", "time": 70, "note": 67, "velocity": 94, "channel": 0}, {"type": "note_on", "time": 31, "note": 71, "velocity": 96, "channel": 0}, {"type": "note_off", "time": 62, "note": 71, "velocity": 96, "channel": 0}, {"type": "note_on", "time": 16, "note": 69, "velocity": 95, "channel": 0}, {"type": "note_off", "time": 93, "note": 69, "velocity": 95, "channel": 0}, {"type": "note_on", "time": 22, "note": 65, "velocity": 91, "channel": 0}, {"type": "note_off", "time": 56, "note": 65, "velocity": 91, "channel": 0}, {"type": "note_on", "time": 5, "note": 63, "velocity": 98, "channel": 0}, {"type": "note_off", "time": 102, "note": 63, "velocity": 98, "channel": 0}, {"type": "note_on", "time": 17, "note": 67, "velocity": 91, "channel": 0}, {"type": "note_off", "time": 47, "note": 67, "velocity": 91, "channel": 0}, {"type": "note_on", "time": 13, "note": 62, "velocity": 94, "channel": 0}, {"type": "note_off", "time": 122, "note": 62, "velocity": 94, "channel": 0}, {"type": "note_on", "time": 23, "note": 60, "velocity": 94, "channel": 0}, {"type": "note_off", "time": 82, "note": 60, "velocity": 94, "channel": 0}, {"type": "note_on", "time": 353, "note": 63, "velocity": 102, "channel": 0}, {"type": "note_off", "time": 165, "note": 63, "velocity": 102, "channel": 0}, {"type": "note_on", "time": 20, "note": 63, "velocity": 105, "channel": 0}, {"type": "note_off", "time": 126, "note": 63, "velocity": 105, "channel": 0}, {"type": "note_on", "time": 7, "note": 63, "velocity": 101, "channel": 0}, {"type": "note_off", "time": 64, "note": 63, "velocity": 101, "channel": 0}, {"type": "note_on", "time": 38, "note": 65, "velocity": 100, "channel": 0}, {"type": "note_off", "time": 112, "note": 65, "velocity": 100, "channel": 0}, {"type": "note_on", "time": 63, "note": 63, "velocity": 97, "channel": 0}, {"type": "note_off", "time": 105, "note": 63, "velocity": 97, "channel": 0}, {"type": "note_on", "time": 28, "note": 65, "velocity": 91, "channel": 0}, {"type": "note_off", "time": 59, "note": 65, "velocity": 91, "channel": 0}, {"type": "note_on", "time": 10, "note": 66, "velocity": 95, "channel": 0}, {"type": "note_off", "time": 111, "note": 66, "velocity": 95, "channel": 0}, {"type": "note_on", "time": 5, "note": 65, "velocity": 88, "channel": 0}, {"type": "note_off", "time": 55, "note": 65, "velocity": 88, "channel": 0}, {"type": "note_on", "time": 7, "note": 63, "velocity": 89, "channel": 0}, {"type": "note_off", "time": 126, "note": 63, "velocity": 89, "channel": 0}, {"type": "note_on", "time": 6, "note": 60, "velocity": 84, "channel": 0}, {"type": "note_off", "time": 162, "note": 60, "velocity": 84, "channel": 0}, {"type": "note_on", "time": 70, "note": 63, "velocity": 88, "channel": 0}, {"type": "note_off", "time": 142, "note": 63, "velocity": 88, "channel": 0}, {"type": "note_on", "time": 11, "note": 65, "velocity": 79, "channel": 0}, {"type": "note_off", "time": 119, "note": 65, "velocity": 79, "channel": 0}, {"type": "note_on", "time": 413, "note": 60, "velocity": 96, "channel": 0}, {"type": "note_off", "time": 59, "note": 60, "velocity": 96, "channel": 0}, {"type": "note_on", "time": 11, "note": 62, "velocity": 100, "channel": 0}, {"type": "note_off", "time": 106, "note": 62, "velocity": 100, "channel": 0}, {"type": "note_on", "time": 17, "note": 63, "velocity": 113, "channel": 0}, {"type": "note_off", "time": 255, "note": 63, "velocity": 113, "channel": 0}, {"type": "note_on", "time": 9, "note": 62, "velocity": 110, "channel": 0}, {"type": "note_off", "time": 139, "note": 62, "velocity": 110, "channel": 0}, {"type": "note_on", "time": 13, "note": 60, "velocity": 80, "channel": 0}, {"type": "note_off", "time": 34, "note": 60, "velocity": 80, "channel": 0}, {"type": "note_on", "time": 10, "note": 63, "velocity": 108, "channel": 0}, {"type": "note_off", "time": 190, "note": 63, "velocity": 108, "channel": 0}, {"type": "note_on", "time": 9, "note": 62, "velocity": 105, "channel": 0}, {"type": "note_off", "time": 110, "note": 62, "velocity": 105, "channel": 0}, {"type": "note_on", "time": 9, "note": 60, "velocity": 91, "channel": 0}, {"type": "note_off", "time": 59, "note": 60, "velocity": 91, "channel": 0}, {"type": "note_on", "time": 10, "note": 63, "velocity": 105, "channel": 0}, {"type": "note_off", "time": 190, "note": 63, "velocity": 105, "channel": 0}, {"type": "note_on", "time": 8, "note": 62, "velocity": 101, "channel": 0}, {"type": "note_off", "time": 98, "note": 62, "velocity": 101, "channel": 0}, {"type": "note_on", "time": 74, "note": 60, "velocity": 90, "channel": 0}, {"type": "note_off", "time": 107, "note": 60, "velocity": 90, "channel": 0}, {"type": "note_on", "time": 91, "note": 72, "velocity": 95, "channel": 0}, {"type": "note_off", "time": 124, "note": 72, "velocity": 95, "channel": 0}, {"type": "note_on", "time": 15, "note": 69, "velocity": 92, "channel": 0}, {"type": "note_off", "time": 66, "note": 69, "velocity": 92, "channel": 0}, {"type": "note_on", "time": 4, "note": 70, "velocity": 92, "channel": 0}, {"type": "note_off", "time": 103, "note": 70, "velocity": 92, "channel": 0}, {"type": "note_on", "time": 246, "note": 65, "velocity": 105, "channel": 0}, {"type": "note_off", "time": 128, "note": 65, "velocity": 105, "channel": 0}, {"type": "note_on", "time": 6, "note": 67, "velocity": 93, "channel": 0}, {"type": "note_off", "time": 37, "note": 67, "velocity": 93, "channel": 0}, {"type": "note_on", "time": 6, "note": 68, "velocity": 109, "channel": 0}, {"type": "note_off", "time": 130, "note": 68, "velocity": 109, "channel": 0}, {"type": "note_on", "time": 15, "note": 67, "velocity": 102, "channel": 0}, {"type": "note_off", "time": 189, "note": 67, "velocity": 102, "channel": 0}, {"type": "note_on", "time": 5, "note": 63, "velocity": 93, "channel": 0}, {"type": "note_off", "time": 249, "note": 63, "velocity": 93, "channel": 0}, {"type": "note_on", "time": 217, "note": 63, "velocity": 106, "channel": 0}, {"type": "note_off", "time": 139, "note": 63, "velocity": 106, "channel": 0}, {"type": "note_on", "time": 15, "note": 61, "velocity": 88, "channel": 0}, {"type": "note_off", "time": 49, "note": 61, "velocity": 88, "channel": 0}, {"type": "note_on", "time": 14, "note": 62, "velocity": 96, "channel": 0}, {"type": "note_off", "time": 144, "note": 62, "velocity": 96, "channel": 0}, {"type": "note_on", "time": 8, "note": 65, "velocity": 33, "channel": 0}, {"type": "note_off", "time": 110, "note": 65, "velocity": 33, "channel": 0}, {"type": "note_on", "time": 0, "note": 70, "velocity": 111, "channel": 0}, {"type": "note_off", "time": 473, "note": 70, "velocity": 111, "channel": 0}, {"type": "note_on", "time": 13, "note": 70, "velocity": 106, "channel": 0}, {"type": "note_off", "time": 745, "note": 70, "velocity": 106, "channel": 0}, {"type": "note_on", "time": 18, "note": 70, "velocity": 100, "channel": 0}, {"type": "note_off", "time": 372, "note": 70, "velocity": 100, "channel": 0}, {"type": "note_on", "time": 14, "note": 70, "velocity": 108, "channel": 0}, {"type": "note_off", "time": 158, "note": 70, "velocity": 108, "channel": 0}, {"type": "note_on", "time": 19, "note": 72, "velocity": 107, "channel": 0}, {"type": "note_off", "time": 77, "note": 72, "velocity": 107, "channel": 0}, {"type": "note_on", "time": 13, "note": 68, "velocity": 109, "channel": 0}, {"type": "note_off", "time": 253, "note": 68, "velocity": 109, "channel": 0}, {"type": "note_on", "time": 441, "note": 68, "velocity": 127, "channel": 0}, {"type": "note_off", "time": 134, "note": 68, "velocity": 127, "channel": 0}, {"type": "note_on", "time": 4, "note": 67, "velocity": 107, "channel": 0}, {"type": "note_off", "time": 752, "note": 67, "velocity": 107, "channel": 0}, {"type": "note_on", "time": 11, "note": 65, "velocity": 109, "channel": 0}, {"type": "note_off", "time": 253, "note": 65, "velocity": 109, "channel": 0}, {"type": "note_on", "time": 13, "note": 64, "velocity": 95, "channel": 0}, {"type": "note_off", "time": 69, "note": 64, "velocity": 95, "channel": 0}, {"type": "note_on", "time": 3, "note": 65, "velocity": 107, "channel": 0}, {"type": "note_off", "time": 152, "note": 65, "velocity": 107, "channel": 0}, {"type": "note_on", "time": 13, "note": 62, "velocity": 112, "channel": 0}, {"type": "note_off", "time": 120, "note": 62, "velocity": 112, "channel": 0}, {"type": "note_on", "time": 17, "note": 63, "velocity": 112, "channel": 0}, {"type": "note_off", "time": 380, "note": 63, "velocity": 112, "channel": 0}, {"type": "note_on", "time": 1, "note": 60, "velocity": 103, "channel": 0}, {"type": "note_off", "time": 332, "note": 60, "velocity": 103, "channel": 0}, {"type": "note_on", "time": 126, "note": 58, "velocity": 101, "channel": 0}, {"type": "note_off", "time": 106, "note": 58, "velocity": 101, "channel": 0}, {"type": "note_on", "time": 6, "note": 62, "velocity": 111, "channel": 0}, {"type": "note_off", "time": 214, "note": 62, "velocity": 111, "channel": 0}, {"type": "note_on", "time": 210, "note": 60, "velocity": 112, "channel": 0}, {"type": "note_off", "time": 136, "note": 60, "velocity": 112, "channel": 0}, {"type": "note_on", "time": 10, "note": 60, "velocity": 105, "channel": 0}, {"type": "note_off", "time": 168, "note": 60, "velocity": 105, "channel": 0}, {"type": "note_on", "time": 5, "note": 58, "velocity": 93, "channel": 0}, {"type": "note_off", "time": 70, "note": 58, "velocity": 93, "channel": 0}, {"type": "note_on", "time": 6, "note": 60, "velocity": 110, "channel": 0}, {"type": "note_off", "time": 84, "note": 60, "velocity": 110, "channel": 0}, {"type": "note_on", "time": 24, "note": 58, "velocity": 94, "channel": 0}, {"type": "note_off", "time": 73, "note": 58, "velocity": 94, "channel": 0}, {"type": "note_on", "time": 2, "note": 62, "velocity": 114, "channel": 0}, {"type": "note_off", "time": 126, "note": 62, "velocity": 114, "channel": 0}, {"type": "note_on", "time": 82, "note": 60, "velocity": 106, "channel": 0}, {"type": "note_off", "time": 90, "note": 60, "velocity": 106, "channel": 0}, {"type": "note_on", "time": 13, "note": 58, "velocity": 98, "channel": 0}, {"type": "note_off", "time": 60, "note": 58, "velocity": 98, "channel": 0}, {"type": "note_on", "time": 15, "note": 60, "velocity": 104, "channel": 0}, {"type": "note_off", "time": 84, "note": 60, "velocity": 104, "channel": 0}, {"type": "note_on", "time": 9, "note": 58, "velocity": 103, "channel": 0}, {"type": "note_off", "time": 66, "note": 58, "velocity": 103, "channel": 0}, {"type": "note_on", "time": 12, "note": 60, "velocity": 98, "channel": 0}, {"type": "note_off", "time": 111, "note": 60, "velocity": 98, "channel": 0}, {"type": "note_on", "time": 12, "note": 58, "velocity": 88, "channel": 0}, {"type": "note_off", "time": 59, "note": 58, "velocity": 88, "channel": 0}, {"type": "note_on", "time": 9, "note": 62, "velocity": 107, "channel": 0}, {"type": "note_off", "time": 273, "note": 62, "velocity": 107, "channel": 0}, {"type": "note_on", "time": 227, "note": 63, "velocity": 119, "channel": 0}, {"type": "note_off", "time": 89, "note": 63, "velocity": 119, "channel": 0}, {"type": "note_on", "time": 5, "note": 62, "velocity": 113, "channel": 0}, {"type": "note_off", "time": 77, "note": 62, "velocity": 113, "channel": 0}, {"type": "note_on", "time": 8, "note": 60, "velocity": 104, "channel": 0}, {"type": "note_off", "time": 106, "note": 60, "velocity": 104, "channel": 0}, {"type": "note_on", "time": 9, "note": 59, "velocity": 92, "channel": 0}, {"type": "note_off", "time": 64, "note": 59, "velocity": 92, "channel": 0}, {"type": "note_on", "time": 15, "note": 62, "velocity": 111, "channel": 0}, {"type": "note_off", "time": 74, "note": 62, "velocity": 111, "channel": 0}, {"type": "note_on", "time": 11, "note": 60, "velocity": 103, "channel": 0}, {"type": "note_off", "time": 95, "note": 60, "velocity": 103, "channel": 0}, {"type": "note_on", "time": 7, "note": 56, "velocity": 97, "channel": 0}, {"type": "note_off", "time": 55, "note": 56, "velocity": 97, "channel": 0}, {"type": "note_on", "time": 19, "note": 58, "velocity": 97, "channel": 0}, {"type": "note_off", "time": 64, "note": 58, "velocity": 97, "channel": 0}, {"type": "note_on", "time": 11, "note": 60, "velocity": 101, "channel": 0}, {"type": "note_off", "time": 61, "note": 60, "velocity": 101, "channel": 0}, {"type": "note_on", "time": 16, "note": 58, "velocity": 109, "channel": 0}, {"type": "note_off", "time": 40, "note": 58, "velocity": 109, "channel": 0}, {"type": "note_on", "time": 16, "note": 55, "velocity": 97, "channel": 0}, {"type": "note_off", "time": 81, "note": 55, "velocity": 97, "channel": 0}, {"type": "note_on", "time": 21, "note": 53, "velocity": 100, "channel": 0}, {"type": "note_off", "time": 90, "note": 53, "velocity": 100, "channel": 0}, {"type": "note_on", "time": 17, "note": 51, "velocity": 102, "channel": 0}, {"type": "note_off", "time": 249, "note": 51, "velocity": 102, "channel": 0}, {"type": "note_on", "time": 143, "note": 50, "velocity": 97, "channel": 0}, {"type": "note_off", "time": 85, "note": 50, "velocity": 97, "channel": 0}, {"type": "note_on", "time": 28, "note": 48, "velocity": 91, "channel": 0}, {"type": "note_off", "time": 299, "note": 48, "velocity": 91, "channel": 0}, {"type": "end_of_track", "time": 0}]]}