{"ticks_per_beat": 20160, "tracks": [[{"type": "track_name", "name": "Melody", "time": 0}, {"type": "set_tempo", "tempo": 1000000, "time": 0}, {"type": "key_signature", "key": "Db", "time": 0}, {"type": "time_signature", "numerator": 4, "denominator": 4, "clocks_per_click": 24, "notated_32nd_notes_per_beat": 8, "time": 0}, {"type": "note_on", "time": 267675, "note": 51, "velocity": 95, "channel": 0}, {"type": "note_off", "time": 6912, "note": 51, "velocity": 95, "channel": 0}, {"type": "note_on", "time": 546, "note": 51, "velocity": 105, "channel": 0}, {"type": "note_off", "time": 4447, "note": 51, "velocity": 105, "channel": 0}, {"type": "note_on", "time": 0, "note": 53, "velocity": 104, "channel": 0}, {"type": "note_off", "time": 3276, "note": 53, "velocity": 104, "channel": 0}, {"type": "note_on", "time": 352, "note": 51, "velocity": 101, "channel": 0}, {"type": "note_off", "time": 2808, "note": 51, "velocity": 101, "channel": 0}, {"type": "note_on", "time": 0, "note": 53, "velocity": 100, "channel": 0}, {"type": "note_off", "time": 4330, "note": 53, "velocity": 100, "channel": 0}, {"type": "note_on", "time": 0, "note": 51, "velocity": 94, "channel": 0}, {"type": "note_off", "time": 2223, "note": 51, "velocity": 94, "channel": 0}, {"type": "note_on", "time": 1169, "note": 53, "velocity": 104, "channel": 0}, {"type": "note_off", "time": 5851, "note": 53, "velocity": 104, "channel": 0}, {"type": "note_on", "time": 1990, "note": 53, "velocity": 102, "channel": 0}, {"type": "note_off", "time": 5589, "note": 53, "velocity": 102, "channel": 0}, {"type": "note_on", "time": 0, "note": 51, "velocity": 97, "channel": 0}, {"type": "note_off", "time": 1645, "note": 51, "velocity": 97, "channel": 0}, {"type": "note_on", "time": 371, "note": 53, "velocity": 100, "channel": 0}, {"type": "note_off", "time": 6670, "note": 53, "velocity": 100, "channel": 0}, {"type": "note_on", "time": 233, "note": 46, "velocity": 104, "channel": 0}, {"type": "note_off", "time": 15330, "note": 46, "velocity": 104, "channel": 0}, {"type": "note_on", "time": 1170, "note": 50, "velocity": 102, "channel": 0}, {"type": "note_off", "time": 3276, "note": 50, "velocity": 102, "channel": 0}, {"type": "note_on", "time": 350, "note": 51, "velocity": 97, "channel": 0}, {"type": "note_off", "time": 3159, "note": 51, "velocity": 97, "channel": 0}, {"type": "note_on", "time": 936, "note": 58, "velocity": 89, "channel": 0}, {"type": "note_off", "time": 22820, "note": 58, "velocity": 89, "channel": 0}, {"type": "note_on", "time": 810, "note": 56, "velocity": 105, "channel": 0}, {"type": "note_off", "time": 2304, "note": 56, "velocity": 105, "channel": 0}, {"type": "note_on", "time": 162, "note": 53, "velocity": 98, "channel": 0}, {"type": "note_off", "time": 1170, "note": 53, "velocity": 98, "channel": 0}, {"type": "note_on", "time": 117, "note": 50, "velocity": 101, "channel": 0}, {"type": "note_off", "time": 3393, "note": 50, "velocity": 101, "channel": 0}, {"type": "note_on", "time": 0, "note": 51, "velocity": 100, "channel": 0}, {"type": "note_off", "time": 1989, "note": 51, "velocity": 100, "channel": 0}, {"type": "note_on", "time": 1288, "note": 56, "velocity": 108, "channel": 0}, {"type": "note_off", "time": 2339, "note": 56, "velocity": 108, "channel": 0}, {"type": "note_on", "time": 0, "note": 52, "velocity": 102, "channel": 0}, {"type": "note_off", "time": 4681, "note": 52, "velocity": 102, "channel": 0}, {"type": "note_on", "time": 702, "note": 54, "velocity": 96, "channel": 0}, {"type": "note_off", "time": 2808, "note": 54, "velocity": 96, "channel": 0}, {"type": "note_on", "time": 0, "note": 58, "velocity": 92, "channel": 0}, {"type": "note_off", "time": 2340, "note": 58, "velocity": 92, "channel": 0}, {"type": "note_on", "time": 701, "note": 60, "velocity": 98, "channel": 0}, {"type": "note_off", "time": 2340, "note": 60, "velocity": 98, "channel": 0}, {"type": "note_on", "time": 0, "note": 62, "velocity": 97, "channel": 0}, {"type": "note_off", "time": 1404, "note": 62, "velocity": 97, "channel": 0}, {"type": "note_on", "time": 0, "note": 64, "velocity": 103, "channel": 0}, {"type": "note_off", "time": 2223, "note": 64, "velocity": 103, "channel": 0}, {"type": "note_on", "time": 0, "note": 66, "velocity": 100, "channel": 0}, {"type": "note_off", "time": 9245, "note": 66, "velocity": 100, "channel": 0}, {"type": "note_on", "time": 0, "note": 64, "velocity": 102, "channel": 0}, {"type": "note_off", "time": 2808, "note": 64, "velocity": 102, "channel": 0}, {"type": "note_on", "time": 0, "note": 60, "velocity": 83, "channel": 0}, {"type": "note_off", "time": 2691, "note": 60, "velocity": 83, "channel": 0}, {"type": "note_on", "time": 234, "note": 58, "velocity": 97, "channel": 0}, {"type": "note_off", "time": 3744, "note": 58, "velocity": 97, "channel": 0}, {"type": "note_on", "time": 1756, "note": 63, "velocity": 101, "channel": 0}, {"type": "note_off", "time": 3978, "note": 63, "velocity": 101, "channel": 0}, {"type": "note_on", "time": 0, "note": 60, "velocity": 81, "channel": 0}, {"type": "note_off", "time": 19426, "note": 60, "velocity": 81, "channel": 0}, {"type": "note_on", "time": 1287, "note": 56, "velocity": 102, "channel": 0}, {"type": "note_off", "time": 3510, "note": 56, "velocity": 102, "channel": 0}, {"type": "note_on", "time": 234, "note": 53, "velocity": 92, "channel": 0}, {"type": "note_off", "time": 2925, "note": 53, "velocity": 92, "channel": 0}, {"type": "note_on", "time": 117, "note": 56, "velocity": 92, "channel": 0}, {"type": "note_off", "time": 11000, "note": 56, "velocity": 92, "channel": 0}, {"type": "note_on", "time": 21065, "note": 55, "velocity": 102, "channel": 0}, {"type": "note_off", "time": 3042, "note": 55, "velocity": 102, "channel": 0}, {"type": "note_on", "time": 0, "note": 56, "velocity": 97, "channel": 0}, {"type": "note_off", "time": 3627, "note": 56, "velocity": 97, "channel": 0}, {"type": "note_on", "time": 585, "note": 58, "velocity": 100, "channel": 0}, {"type": "note_off", "time": 1637, "note": 58, "velocity": 100, "channel": 0}, {"type": "note_on", "time": 0, "note": 55, "velocity": 103, "channel": 0}, {"type": "note_off", "time": 2457, "note": 55, "velocity": 103, "channel": 0}, {"type": "note_on", "time": 702, "note": 56, "velocity": 104, "channel": 0}, {"type": "note_off", "time": 2925, "note": 56, "velocity": 104, "channel": 0}, {"type": "note_on", "time": 0, "note": 58, "velocity": 94, "channel": 0}, {"type": "note_off", "time": 3159, "note": 58, "velocity": 94, "channel": 0}, {"type": "note_on", "time": 117, "note": 60, "velocity": 103, "channel": 0}, {"type": "note_off", "time": 3861, "note": 60, "velocity": 103, "channel": 0}, {"type": "note_on", "time": 233, "note": 61, "velocity": 98, "channel": 0}, {"type": "note_off", "time": 2341, "note": 61, "velocity": 98, "channel": 0}, {"type": "note_on", "time": 0, "note": 63, "velocity": 104, "channel": 0}, {"type": "note_off", "time": 2340, "note": 63, "velocity": 104, "channel": 0}, {"type": "note_on", "time": 937, "note": 65, "velocity": 101, "channel": 0}, {"type": "note_off", "time": 3510, "note": 65, "velocity": 101, "channel": 0}, {"type": "note_on", "time": 466, "note": 60, "velocity": 91, "channel": 0}, {"type": "note_off", "time": 10298, "note": 60, "velocity": 91, "channel": 0}, {"type": "note_on", "time": 266, "note": 58, "velocity": 96, "channel": 0}, {"type": "note_off", "time": 1728, "note": 58, "velocity": 96, "channel": 0}, {"type": "note_on", "time": 230, "note": 63, "velocity": 97, "channel": 0}, {"type": "note_off", "time": 3861, "note": 63, "velocity": 97, "channel": 0}, {"type": "note_on", "time": 116, "note": 64, "velocity": 109, "channel": 0}, {"type": "note_off", "time": 3043, "note": 64, "velocity": 109, "channel": 0}, {"type": "note_on", "time": 0, "note": 67, "velocity": 99, "channel": 0}, {"type": "note_off", "time": 2808, "note": 67, "velocity": 99, "channel": 0}, {"type": "note_on", "time": 234, "note": 71, "velocity": 93, "channel": 0}, {"type": "note_off", "time": 3393, "note": 71, "velocity": 93, "channel": 0}, {"type": "note_on", "time": 351, "note": 66, "velocity": 100, "channel": 0}, {"type": "note_off", "time": 3627, "note": 66, "velocity": 100, "channel": 0}, {"type": "note_on", "time": 1170, "note": 61, "velocity": 95, "channel": 0}, {"type": "note_off", "time": 3744, "note": 61, "velocity": 95, "channel": 0}, {"type": "note_on", "time": 0, "note": 64, "velocity": 107, "channel": 0}, {"type": "note_off", "time": 6436, "note": 64, "velocity": 107, "channel": 0}, {"type": "note_on", "time": 110, "note": 62, "velocity": 95, "channel": 0}, {"type": "note_off", "time": 1152, "note": 62, "velocity": 95, "channel": 0}, {"type": "note_on", "time": 1234, "note": 59, "velocity": 98, "channel": 0}, {"type": "note_off", "time": 2304, "note": 59, "velocity": 98, "channel": 0}, {"type": "note_on", "time": 115, "note": 54, "velocity": 98, "channel": 0}, {"type": "note_off", "time": 2808, "note": 54, "velocity": 98, "channel": 0}, {"type": "note_on", "time": 202, "note": 57, "velocity": 90, "channel": 0}, {"type": "note_off", "time": 4854, "note": 57, "velocity": 90, "channel": 0}, {"type": "note_on", "time": 50, "note": 61, "velocity": 96, "channel": 0}, {"type": "note_off", "time": 3744, "note": 61, "velocity": 96, "channel": 0}, {"type": "note_on", "time": 1094, "note": 57, "velocity": 98, "channel": 0}, {"type": "note_off", "time": 3042, "note": 57, "velocity": 98, "channel": 0}, {"type": "note_on", "time": 1053, "note": 54, "velocity": 100, "channel": 0}, {"type": "note_off", "time": 2340, "note": 54, "velocity": 100, "channel": 0}, {"type": "note_on", "time": 0, "note": 49, "velocity": 95, "channel": 0}, {"type": "note_off", "time": 2457, "note": 49, "velocity": 95, "channel": 0}, {"type": "note_on", "time": 1595, "note": 59, "velocity": 98, "channel": 0}, {"type": "note_off", "time": 3319, "note": 59, "velocity": 98, "channel": 0}, {"type": "note_on", "time": 0, "note": 57, "velocity": 93, "channel": 0}, {"type": "note_off", "time": 2457, "note": 57, "velocity": 93, "channel": 0}, {"type": "note_on", "time": 1404, "note": 58, "velocity": 85, "channel": 0}, {"type": "note_off", "time": 14160, "note": 58, "velocity": 85, "channel": 0}, {"type": "note_on", "time": 1245, "note": 61, "velocity": 98, "channel": 0}, {"type": "note_off", "time": 4564, "note": 61, "velocity": 98, "channel": 0}, {"type": "note_on", "time": 0, "note": 58, "velocity": 94, "channel": 0}, {"type": "note_off", "time": 5073, "note": 58, "velocity": 94, "channel": 0}, {"type": "note_on", "time": 0, "note": 61, "velocity": 88, "channel": 0}, {"type": "note_off", "time": 13107, "note": 61, "velocity": 88, "channel": 0}, {"type": "note_on", "time": 14628, "note": 58, "velocity": 107, "channel": 0}, {"type": "note_off", "time": 2691, "note": 58, "velocity": 107, "channel": 0}, {"type": "note_on", "time": 0, "note": 54, "velocity": 107, "channel": 0}, {"type": "note_off", "time": 2808, "note": 54, "velocity": 107, "channel": 0}, {"type": "note_on", "time": 1989, "note": 53, "velocity": 106, "channel": 0}, {"type": "note_off", "time": 3861, "note": 53, "velocity": 106, "channel": 0}, {"type": "note_on", "time": 75, "note": 54, "velocity": 104, "channel": 0}, {"type": "note_off", "time": 3627, "note": 54, "velocity": 104, "channel": 0}, {"type": "note_on", "time": 158, "note": 51, "velocity": 105, "channel": 0}, {"type": "note_off", "time": 11819, "note": 51, "velocity": 105, "channel": 0}, {"type": "note_on", "time": 351, "note": 53, "velocity": 101, "channel": 0}, {"type": "note_off", "time": 1755, "note": 53, "velocity": 101, "channel": 0}, {"type": "note_on", "time": 659, "note": 54, "velocity": 105, "channel": 0}, {"type": "note_off", "time": 2223, "note": 54, "velocity": 105, "channel": 0}, {"type": "note_on", "time": 160, "note": 57, "velocity": 96, "channel": 0}, {"type": "note_off", "time": 2457, "note": 57, "velocity": 96, "channel": 0}, {"type": "note_on", "time": 0, "note": 61, "velocity": 102, "channel": 0}, {"type": "note_off", "time": 2106, "note": 61, "velocity": 102, "channel": 0}, {"type": "note_on", "time": 191, "note": 63, "velocity": 104, "channel": 0}, {"type": "note_off", "time": 2149, "note": 63, "velocity": 104, "channel": 0}, {"type": "note_on", "time": 0, "note": 65, "velocity": 110, "channel": 0}, {"type": "note_off", "time": 2340, "note": 65, "velocity": 110, "channel": 0}, {"type": "note_on", "time": 0, "note": 64, "velocity": 110, "channel": 0}, {"type": "note_off", "time": 2340, "note": 64, "velocity": 110, "channel": 0}, {"type": "note_on", "time": 234, "note": 63, "velocity": 107, "channel": 0}, {"type": "note_off", "time": 2223, "note": 63, "velocity": 107, "channel": 0}, {"type": "note_on", "time": 234, "note": 65, "velocity": 107, "channel": 0}, {"type": "note_off", "time": 2340, "note": 65, "velocity": 107, "channel": 0}, {"type": "note_on", "time": 309, "note": 66, "velocity": 106, "channel": 0}, {"type": "note_off", "time": 2457, "note": 66, "velocity": 106, "channel": 0}, {"type": "note_on", "time": 0, "note": 67, "velocity": 102, "channel": 0}, {"type": "note_off", "time": 2457, "note": 67, "velocity": 102, "channel": 0}, {"type": "note_on", "time": 234, "note": 69, "velocity": 104, "channel": 0}, {"type": "note_off", "time": 977, "note": 69, "velocity": 104, "channel": 0}, {"type": "note_on", "time": 0, "note": 71, "velocity": 102, "channel": 0}, {"type": "note_off", "time": 8074, "note": 71, "velocity": 102, "channel": 0}, {"type": "note_on", "time": 234, "note": 69, "velocity": 94, "channel": 0}, {"type": "note_off", "time": 1010, "note": 69, "velocity": 94, "channel": 0}, {"type": "note_on", "time": 0, "note": 67, "velocity": 100, "channel": 0}, {"type": "note_off", "time": 2691, "note": 67, "velocity": 100, "channel": 0}, {"type": "note_on", "time": 0, "note": 66, "velocity": 103, "channel": 0}, {"type": "note_off", "time": 7138, "note": 66, "velocity": 103, "channel": 0}, {"type": "note_on", "time": 160, "note": 66, "velocity": 100, "channel": 0}, {"type": "note_off", "time": 3744, "note": 66, "velocity": 100, "channel": 0}, {"type": "note_on", "time": 117, "note": 64, "velocity": 100, "channel": 0}, {"type": "note_off", "time": 1287, "note": 64, "velocity": 100, "channel": 0}, {"type": "note_on", "time": 235, "note": 62, "velocity": 94, "channel": 0}, {"type": "note_off", "time": 1285, "note": 62, "velocity": 94, "channel": 0}, {"type": "note_on", "time": 0, "note": 61, "velocity": 84, "channel": 0}, {"type": "note_off", "time": 1053, "note": 61, "velocity": 84, "channel": 0}, {"type": "note_on", "time": 234, "note": 59, "velocity": 95, "channel": 0}, {"type": "note_off", "time": 4213, "note": 59, "velocity": 95, "channel": 0}, {"type": "note_on", "time": 117, "note": 57, "velocity": 98, "channel": 0}, {"type": "note_off", "time": 1989, "note": 57, "velocity": 98, "channel": 0}, {"type": "note_on", "time": 117, "note": 55, "velocity": 102, "channel": 0}, {"type": "note_off", "time": 1638, "note": 55, "velocity": 102, "channel": 0}, {"type": "note_on", "time": 117, "note": 54, "velocity": 99, "channel": 0}, {"type": "note_off", "time": 5851, "note": 54, "velocity": 99, "channel": 0}, {"type": "note_on", "time": 14469, "note": 70, "velocity": 116, "channel": 0}, {"type": "note_off", "time": 5191, "note": 70, "velocity": 116, "channel": 0}, {"type": "note_on", "time": 0, "note": 68, "velocity": 107, "channel": 0}, {"type": "note_off", "time": 2691, "note": 68, "velocity": 107, "channel": 0}, {"type": "note_on", "time": 191, "note": 66, "velocity": 107, "channel": 0}, {"type": "note_off", "time": 1989, "note": 66, "velocity": 107, "channel": 0}, {"type": "note_on", "time": 0, "note": 65, "velocity": 107, "channel": 0}, {"type": "note_off", "time": 5968, "note": 65, "velocity": 107, "channel": 0}, {"type": "note_on", "time": 0, "note": 65, "velocity": 108, "channel": 0}, {"type": "note_off", "time": 2574, "note": 65, "velocity": 108, "channel": 0}, {"type": "note_on", "time": 0, "note": 64, "velocity": 106, "channel": 0}, {"type": "note_off", "time": 1989, "note": 64, "velocity": 106, "channel": 0}, {"type": "note_on", "time": 468, "note": 63, "velocity": 105, "channel": 0}, {"type": "note_off", "time": 4096, "note": 63, "velocity": 105, "channel": 0}, {"type": "note_on", "time": 627, "note": 63, "velocity": 105, "channel": 0}, {"type": "note_off", "time": 2574, "note": 63, "velocity": 105, "channel": 0}, {"type": "note_on", "time": 0, "note": 61, "velocity": 97, "channel": 0}, {"type": "note_off", "time": 2925, "note": 61, "velocity": 97, "channel": 0}, {"type": "note_on", "time": 234, "note": 60, "velocity": 91, "channel": 0}, {"type": "note_off", "time": 6436, "note": 60, "velocity": 91, "channel": 0}, {"type": "note_on", "time": 468, "note": 60, "velocity": 91, "channel": 0}, {"type": "note_off", "time": 3276, "note": 60, "velocity": 91, "channel": 0}, {"type": "note_on", "time": 0, "note": 58, "velocity": 99, "channel": 0}, {"type": "note_off", "time": 2340, "note": 58, "velocity": 99, "channel": 0}, {"type": "note_on", "time": 234, "note": 56, "velocity": 102, "channel": 0}, {"type": "note_off", "time": 5500, "note": 56, "velocity": 102, "channel": 0}, {"type": "note_on", "time": 0, "note": 56, "velocity": 104, "channel": 0}, {"type": "note_off", "time": 3510, "note": 56, "velocity": 104, "channel": 0}, {"type": "note_on", "time": 468, "note": 53, "velocity": 95, "channel": 0}, {"type": "note_off", "time": 3393, "note": 53, "velocity": 95, "channel": 0}, {"type": "note_on", "time": 234, "note": 51, "velocity": 97, "channel": 0}, {"type": "note_off", "time": 4681, "note": 51, "velocity": 97, "channel": 0}, {"type": "note_on", "time": 117, "note": 56, "velocity": 99, "channel": 0}, {"type": "note_off", "time": 5383, "note": 56, "velocity": 99, "channel": 0}, {"type": "note_on", "time": 0, "note": 51, "velocity": 97, "channel": 0}, {"type": "note_off", "time": 11468, "note": 51, "velocity": 97, "channel": 0}, {"type": "note_on", "time": 0, "note": 53, "velocity": 94, "channel": 0}, {"type": "note_off", "time": 12990, "note": 53, "velocity": 94, "channel": 0}, {"type": "note_on", "time": 14160, "note": 53, "velocity": 96, "channel": 0}, {"type": "note_off", "time": 3042, "note": 53, "velocity": 96, "channel": 0}, {"type": "note_on", "time": 0, "note": 54, "velocity": 106, "channel": 0}, {"type": "note_off", "time": 2808, "note": 54, "velocity": 106, "channel": 0}, {"type": "note_on", "time": 543, "note": 56, "velocity": 111, "channel": 0}, {"type": "note_off", "time": 2499, "note": 56, "velocity": 111, "channel": 0}, {"type": "note_on", "time": 0, "note": 54, "velocity": 107, "channel": 0}, {"type": "note_off", "time": 1521, "note": 54, "velocity": 107, "channel": 0}, {"type": "note_on", "time": 117, "note": 53, "velocity": 103, "channel": 0}, {"type": "note_off", "time": 2925, "note": 53, "velocity": 103, "channel": 0}, {"type": "note_on", "time": 234, "note": 51, "velocity": 101, "channel": 0}, {"type": "note_off", "time": 2574, "note": 51, "velocity": 101, "channel": 0}, {"type": "note_on", "time": 895, "note": 50, "velocity": 105, "channel": 0}, {"type": "note_off", "time": 2498, "note": 50, "velocity": 105, "channel": 0}, {"type": "note_on", "time": 0, "note": 54, "velocity": 105, "channel": 0}, {"type": "note_off", "time": 2691, "note": 54, "velocity": 105, "channel": 0}, {"type": "note_on", "time": 0, "note": 50, "velocity": 101, "channel": 0}, {"type": "note_off", "time": 4096, "note": 50, "velocity": 101, "channel": 0}, {"type": "note_on", "time": 234, "note": 47, "velocity": 104, "channel": 0}, {"type": "note_off", "time": 6904, "note": 47, "velocity": 104, "channel": 0}, {"type": "note_on", "time": 117, "note": 50, "velocity": 100, "channel": 0}, {"type": "note_off", "time": 3276, "note": 50, "velocity": 100, "channel": 0}, {"type": "note_on", "time": 117, "note": 47, "velocity": 99, "channel": 0}, {"type": "note_off", "time": 5734, "note": 47, "velocity": 99, "channel": 0}, {"type": "note_on", "time": 0, "note": 46, "velocity": 94, "channel": 0}, {"type": "note_off", "time": 14862, "note": 46, "velocity": 94, "channel": 0}, {"type": "note_on", "time": 14511, "note": 53, "velocity": 107, "channel": 0}, {"type": "note_off", "time": 3159, "note": 53, "velocity": 107, "channel": 0}, {"type": "note_on", "time": 0, "note": 51, "velocity": 97, "channel": 0}, {"type": "note_off", "time": 3393, "note": 51, "velocity": 97, "channel": 0}, {"type": "note_on", "time": 0, "note": 54, "velocity": 114, "channel": 0}, {"type": "note_off", "time": 4213, "note": 54, "velocity": 114, "channel": 0}, {"type": "note_on", "time": 351, "note": 58, "velocity": 104, "channel": 0}, {"type": "note_off", "time": 4447, "note": 58, "velocity": 104, "channel": 0}, {"type": "note_on", "time": 2340, "note": 65, "velocity": 113, "channel": 0}, {"type": "note_off", "time": 4564, "note": 65, "velocity": 113, "channel": 0}, {"type": "note_on", "time": 1755, "note": 65, "velocity": 108, "channel": 0}, {"type": "note_off", "time": 3510, "note": 65, "velocity": 108, "channel": 0}, {"type": "note_on", "time": 1755, "note": 63, "velocity": 111, "channel": 0}, {"type": "note_off", "time": 4798, "note": 63, "velocity": 111, "channel": 0}, {"type": "note_on", "time": 3276, "note": 63, "velocity": 104, "channel": 0}, {"type": "note_off", "time": 4213, "note": 63, "velocity": 104, "channel": 0}, {"type": "note_on", "time": 1872, "note": 58, "velocity": 98, "channel": 0}, {"type": "note_off", "time": 7138, "note": 58, "velocity": 98, "channel": 0}, {"type": "note_on", "time": 1872, "note": 58, "velocity": 95, "channel": 0}, {"type": "note_off", "time": 12639, "note": 58, "velocity": 95, "channel": 0}, {"type": "note_on", "time": 351, "note": 57, "velocity": 100, "channel": 0}, {"type": "note_off", "time": 3042, "note": 57, "velocity": 100, "channel": 0}, {"type": "note_on", "time": 585, "note": 58, "velocity": 99, "channel": 0}, {"type": "note_off", "time": 3042, "note": 58, "velocity": 99, "channel": 0}, {"type": "note_on", "time": 3117, "note": 70, "velocity": 103, "channel": 0}, {"type": "note_off", "time": 3978, "note": 70, "velocity": 103, "channel": 0}, {"type": "note_on", "time": 1522, "note": 65, "velocity": 105, "channel": 0}, {"type": "note_off", "time": 3510, "note": 65, "velocity": 105, "channel": 0}, {"type": "note_on", "time": 275, "note": 63, "velocity": 105, "channel": 0}, {"type": "note_off", "time": 2457, "note": 63, "velocity": 105, "channel": 0}, {"type": "note_on", "time": 0, "note": 64, "velocity": 103, "channel": 0}, {"type": "note_off", "time": 9947, "note": 64, "velocity": 103, "channel": 0}, {"type": "note_on", "time": 117, "note": 71, "velocity": 83, "channel": 0}, {"type": "note_off", "time": 16384, "note": 71, "velocity": 83, "channel": 0}, {"type": "note_on", "time": 5500, "note": 64, "velocity": 103, "channel": 0}, {"type": "note_off", "time": 4213, "note": 64, "velocity": 103, "channel": 0}, {"type": "note_on", "time": 351, "note": 63, "velocity": 95, "channel": 0}, {"type": "note_off", "time": 4915, "note": 63, "velocity": 95, "channel": 0}, {"type": "note_on", "time": 1905, "note": 63, "velocity": 89, "channel": 0}, {"type": "note_off", "time": 7021, "note": 63, "velocity": 89, "channel": 0}, {"type": "note_on", "time": 200, "note": 61, "velocity": 94, "channel": 0}, {"type": "note_off", "time": 5266, "note": 61, "velocity": 94, "channel": 0}, {"type": "note_on", "time": 4681, "note": 72, "velocity": 79, "channel": 0}, {"type": "note_off", "time": 22820, "note": 72, "velocity": 79, "channel": 0}, {"type": "note_on", "time": 18256, "note": 70, "velocity": 108, "channel": 0}, {"type": "note_off", "time": 3393, "note": 70, "velocity": 108, "channel": 0}, {"type": "note_on", "time": 468, "note": 68, "velocity": 106, "channel": 0}, {"type": "note_off", "time": 3393, "note": 68, "velocity": 106, "channel": 0}, {"type": "note_on", "time": 0, "note": 65, "velocity": 105, "channel": 0}, {"type": "note_off", "time": 2574, "note": 65, "velocity": 105, "channel": 0}, {"type": "note_on", "time": 617, "note": 63, "velocity": 109, "channel": 0}, {"type": "note_off", "time": 2542, "note": 63, "velocity": 109, "channel": 0}, {"type": "note_on", "time": 0, "note": 68, "velocity": 97, "channel": 0}, {"type": "note_off", "time": 2691, "note": 68, "velocity": 97, "channel": 0}, {"type": "note_on", "time": 0, "note": 65, "velocity": 100, "channel": 0}, {"type": "note_off", "time": 2925, "note": 65, "velocity": 100, "channel": 0}, {"type": "note_on", "time": 819, "note": 60, "velocity": 101, "channel": 0}, {"type": "note_off", "time": 4213, "note": 60, "velocity": 101, "channel": 0}, {"type": "note_on", "time": 851, "note": 63, "velocity": 106, "channel": 0}, {"type": "note_off", "time": 3244, "note": 63, "velocity": 106, "channel": 0}, {"type": "note_on", "time": 0, "note": 58, "velocity": 101, "channel": 0}, {"type": "note_off", "time": 3861, "note": 58, "velocity": 101, "channel": 0}, {"type": "note_on", "time": 0, "note": 56, "velocity": 101, "channel": 0}, {"type": "note_off", "time": 3393, "note": 56, "velocity": 101, "channel": 0}, {"type": "note_on", "time": 150, "note": 60, "velocity": 105, "channel": 0}, {"type": "note_off", "time": 2891, "note": 60, "velocity": 105, "channel": 0}, {"type": "note_on", "time": 0, "note": 56, "velocity": 105, "channel": 0}, {"type": "note_off", "time": 3276, "note": 56, "velocity": 105, "channel": 0}, {"type": "note_on", "time": 0, "note": 53, "velocity": 100, "channel": 0}, {"type": "note_off", "time": 3510, "note": 53, "velocity": 100, "channel": 0}, {"type": "note_on", "time": 702, "note": 59, "velocity": 104, "channel": 0}, {"type": "note_off", "time": 2808, "note": 59, "velocity": 104, "channel": 0}, {"type": "note_on", "time": 0, "note": 55, "velocity": 104, "channel": 0}, {"type": "note_off", "time": 3042, "note": 55, "velocity": 104, "channel": 0}, {"type": "note_on", "time": 819, "note": 52, "velocity": 102, "channel": 0}, {"type": "note_off", "time": 2808, "note": 52, "velocity": 102, "channel": 0}, {"type": "note_on", "time": 1204, "note": 57, "velocity": 105, "channel": 0}, {"type": "note_off", "time": 2457, "note": 57, "velocity": 105, "channel": 0}, {"type": "note_on", "time": 1666, "note": 52, "velocity": 103, "channel": 0}, {"type": "note_off", "time": 1892, "note": 52, "velocity": 103, "channel": 0}, {"type": "note_on", "time": 151, "note": 54, "velocity": 103, "channel": 0}, {"type": "note_off", "time": 1053, "note": 54, "velocity": 103, "channel": 0}, {"type": "note_on", "time": 0, "note": 55, "velocity": 111, "channel": 0}, {"type": "note_off", "time": 2574, "note": 55, "velocity": 111, "channel": 0}, {"type": "note_on", "time": 585, "note": 57, "velocity": 96, "channel": 0}, {"type": "note_off", "time": 2574, "note": 57, "velocity": 96, "channel": 0}, {"type": "note_on", "time": 1287, "note": 64, "velocity": 106, "channel": 0}, {"type": "note_off", "time": 3159, "note": 64, "velocity": 106, "channel": 0}, {"type": "note_on", "time": 3978, "note": 60, "velocity": 94, "channel": 0}, {"type": "note_off", "time": 2691, "note": 60, "velocity": 94, "channel": 0}, {"type": "note_on", "time": 585, "note": 64, "velocity": 101, "channel": 0}, {"type": "note_off", "time": 3744, "note": 64, "velocity": 101, "channel": 0}, {"type": "note_on", "time": 702, "note": 59, "velocity": 99, "channel": 0}, {"type": "note_off", "time": 3393, "note": 59, "velocity": 99, "channel": 0}, {"type": "note_on", "time": 585, "note": 55, "velocity": 9, "channel": 0}, {"type": "note_off", "time": 4564, "note": 55, "velocity": 9, "channel": 0}, {"type": "note_on", "time": 384, "note": 66, "velocity": 102, "channel": 0}, {"type": "note_off", "time": 5382, "note": 66, "velocity": 102, "channel": 0}, {"type": "note_on", "time": 0, "note": 61, "velocity": 103, "channel": 0}, {"type": "note_off", "time": 3361, "note": 61, "velocity": 103, "channel": 0}, {"type": "note_on", "time": 0, "note": 65, "velocity": 98, "channel": 0}, {"type": "note_off", "time": 8894, "note": 65, "velocity": 98, "channel": 0}, {"type": "note_on", "time": 1203, "note": 63, "velocity": 96, "channel": 0}, {"type": "note_off", "time": 4096, "note": 63, "velocity": 96, "channel": 0}, {"type": "note_on", "time": 0, "note": 66, "velocity": 92, "channel": 0}, {"type": "note_off", "time": 11585, "note": 66, "velocity": 92, "channel": 0}, {"type": "note_on", "time": 0, "note": 66, "velocity": 92, "channel": 0}, {"type": "note_off", "time": 4179, "note": 66, "velocity": 92, "channel": 0}, {"type": "note_on", "time": 0, "note": 68, "velocity": 92, "channel": 0}, {"type": "note_off", "time": 4096, "note": 68, "velocity": 92, "channel": 0}, {"type": "note_on", "time": 2957, "note": 70, "velocity": 92, "channel": 0}, {"type": "note_off", "time": 6085, "note": 70, "velocity": 92, "channel": 0}, {"type": "note_on", "time": 0, "note": 71, "velocity": 94, "channel": 0}, {"type": "note_off", "time": 935, "note": 71, "velocity": 94, "channel": 0}, {"type": "note_on", "time": 0, "note": 72, "velocity": 84, "channel": 0}, {"type": "note_off", "time": 5585, "note": 72, "velocity": 84, "channel": 0}, {"type": "note_on", "time": 0, "note": 68, "velocity": 90, "channel": 0}, {"type": "note_off", "time": 8777, "note": 68, "velocity": 90, "channel": 0}, {"type": "note_on", "time": 1670, "note": 72, "velocity": 91, "channel": 0}, {"type": "note_off", "time": 1755, "note": 72, "velocity": 91, "channel": 0}, {"type": "note_on", "time": 0, "note": 75, "velocity": 83, "channel": 0}, {"type": "note_off", "time": 7723, "note": 75, "velocity": 83, "channel": 0}, {"type": "note_on", "time": 201, "note": 72, "velocity": 80, "channel": 0}, {"type": "note_off", "time": 20128, "note": 72, "velocity": 80, "channel": 0}, {"type": "note_on", "time": 13809, "note": 67, "velocity": 97, "channel": 0}, {"type": "note_off", "time": 2106, "note": 67, "velocity": 97, "channel": 0}, {"type": "note_on", "time": 150, "note": 68, "velocity": 101, "channel": 0}, {"type": "note_off", "time": 1722, "note": 68, "velocity": 101, "channel": 0}, {"type": "note_on", "time": 0, "note": 69, "velocity": 101, "channel": 0}, {"type": "note_off", "time": 2574, "note": 69, "velocity": 101, "channel": 0}, {"type": "note_on", "time": 234, "note": 65, "velocity": 96, "channel": 0}, {"type": "note_off", "time": 1521, "note": 65, "velocity": 96, "channel": 0}, {"type": "note_on", "time": 234, "note": 66, "velocity": 106, "channel": 0}, {"type": "note_off", "time": 1203, "note": 66, "velocity": 106, "channel": 0}, {"type": "note_on", "time": 0, "note": 67, "velocity": 101, "channel": 0}, {"type": "note_off", "time": 2541, "note": 67, "velocity": 101, "channel": 0}, {"type": "note_on", "time": 0, "note": 66, "velocity": 99, "channel": 0}, {"type": "note_off", "time": 4564, "note": 66, "velocity": 99, "channel": 0}, {"type": "note_on", "time": 734, "note": 65, "velocity": 94, "channel": 0}, {"type": "note_off", "time": 5617, "note": 65, "velocity": 94, "channel": 0}, {"type": "note_on", "time": 0, "note": 64, "velocity": 105, "channel": 0}, {"type": "note_off", "time": 1956, "note": 64, "velocity": 105, "channel": 0}, {"type": "note_on", "time": 0, "note": 63, "velocity": 103, "channel": 0}, {"type": "note_off", "time": 2808, "note": 63, "velocity": 103, "channel": 0}, {"type": "note_on", "time": 234, "note": 62, "velocity": 91, "channel": 0}, {"type": "note_off", "time": 1872, "note": 62, "velocity": 91, "channel": 0}, {"type": "note_on", "time": 351, "note": 60, "velocity": 96, "channel": 0}, {"type": "note_off", "time": 2340, "note": 60, "velocity": 96, "channel": 0}, {"type": "note_on", "time": 468, "note": 55, "velocity": 90, "channel": 0}, {"type": "note_off", "time": 2223, "note": 55, "velocity": 90, "channel": 0}, {"type": "note_on", "time": 0, "note": 58, "velocity": 100, "channel": 0}, {"type": "note_off", "time": 2808, "note": 58, "velocity": 100, "channel": 0}, {"type": "note_on", "time": 0, "note": 63, "velocity": 99, "channel": 0}, {"type": "note_off", "time": 1872, "note": 63, "velocity": 99, "channel": 0}, {"type": "note_on", "time": 702, "note": 60, "velocity": 95, "channel": 0}, {"type": "note_off", "time": 2340, "note": 60, "velocity": 95, "channel": 0}, {"type": "note_on", "time": 702, "note": 55, "velocity": 84, "channel": 0}, {"type": "note_off", "time": 2106, "note": 55, "velocity": 84, "channel": 0}, {"type": "note_on", "time": 0, "note": 57, "velocity": 90, "channel": 0}, {"type": "note_off", "time": 8426, "note": 57, "velocity": 90, "channel": 0}, {"type": "note_on", "time": 351, "note": 53, "velocity": 94, "channel": 0}, {"type": "note_off", "time": 2574, "note": 53, "velocity": 94, "channel": 0}, {"type": "note_on", "time": 351, "note": 58, "velocity": 92, "channel": 0}, {"type": "note_off", "time": 13341, "note": 58, "velocity": 92, "channel": 0}, {"type": "note_on", "time": 819, "note": 60, "velocity": 105, "channel": 0}, {"type": "note_off", "time": 2340, "note": 60, "velocity": 105, "channel": 0}, {"type": "note_on", "time": 384, "note": 61, "velocity": 102, "channel": 0}, {"type": "note_off", "time": 5700, "note": 61, "velocity": 102, "channel": 0}, {"type": "note_on", "time": 0, "note": 63, "velocity": 108, "channel": 0}, {"type": "note_off", "time": 3627, "note": 63, "velocity": 108, "channel": 0}, {"type": "note_on", "time": 735, "note": 65, "velocity": 104, "channel": 0}, {"type": "note_off", "time": 4096, "note": 65, "velocity": 104, "channel": 0}, {"type": "note_on", "time": 551, "note": 68, "velocity": 100, "channel": 0}, {"type": "note_off", "time": 9245, "note": 68, "velocity": 100, "channel": 0}, {"type": "note_on", "time": 0, "note": 66, "velocity": 105, "channel": 0}, {"type": "note_off", "time": 4915, "note": 66, "velocity": 105, "channel": 0}, {"type": "note_on", "time": 351, "note": 68, "velocity": 99, "channel": 0}, {"type": "note_off", "time": 4564, "note": 68, "velocity": 99, "channel": 0}, {"type": "note_on", "time": 117, "note": 70, "velocity": 95, "channel": 0}, {"type": "note_off", "time": 5500, "note": 70, "velocity": 95, "channel": 0}, {"type": "note_on", "time": 1053, "note": 64, "velocity": 100, "channel": 0}, {"type": "note_off", "time": 1170, "note": 64, "velocity": 100, "channel": 0}, {"type": "note_on", "time": 266, "note": 65, "velocity": 97, "channel": 0}, {"type": "note_off", "time": 13341, "note": 65, "velocity": 97, "channel": 0}, {"type": "note_on", "time": 3888, "note": 56, "velocity": 86, "channel": 0}, {"type": "note_off", "time": 2750, "note": 56, "velocity": 86, "channel": 0}, {"type": "note_on", "time": 760, "note": 63, "velocity": 104, "channel": 0}, {"type": "note_off", "time": 3803, "note": 63, "velocity": 104, "channel": 0}, {"type": "note_on", "time": 0, "note": 61, "velocity": 87, "channel": 0}, {"type": "note_off", "time": 21767, "note": 61, "velocity": 87, "channel": 0}, {"type": "note_on", "time": 24810, "note": 62, "velocity": 106, "channel": 0}, {"type": "note_off", "time": 4010, "note": 62, "velocity": 106, "channel": 0}, {"type": "note_on", "time": 0, "note": 64, "velocity": 98, "channel": 0}, {"type": "note_off", "time": 329, "note": 64, "velocity": 98, "channel": 0}, {"type": "note_on", "time": 0, "note": 64, "velocity": 80, "channel": 0}, {"type": "note_off", "time": 0, "note": 64, "velocity": 80, "channel": 0}, {"type": "note_on", "time": 2096, "note": 66, "velocity": 93, "channel": 0}, {"type": "note_off", "time": 702, "note": 66, "velocity": 93, "channel": 0}, {"type": "note_on", "time": 162, "note": 67, "velocity": 102, "channel": 0}, {"type": "note_off", "time": 2880, "note": 67, "velocity": 102, "channel": 0}, {"type": "note_on", "time": 234, "note": 66, "velocity": 111, "channel": 0}, {"type": "note_off", "time": 4447, "note": 66, "velocity": 111, "channel": 0}, {"type": "note_on", "time": 585, "note": 69, "velocity": 112, "channel": 0}, {"type": "note_off", "time": 5617, "note": 69, "velocity": 112, "channel": 0}, {"type": "note_on", "time": 0, "note": 72, "velocity": 103, "channel": 0}, {"type": "note_off", "time": 1170, "note": 72, "velocity": 103, "channel": 0}, {"type": "note_on", "time": 0, "note": 73, "velocity": 104, "channel": 0}, {"type": "note_off", "time": 11117, "note": 73, "velocity": 104, "channel": 0}, {"type": "note_on", "time": 0, "note": 69, "velocity": 105, "channel": 0}, {"type": "note_off", "time": 3159, "note": 69, "velocity": 105, "channel": 0}, {"type": "note_on", "time": 585, "note": 66, "velocity": 93, "channel": 0}, {"type": "note_off", "time": 4187, "note": 66, "velocity": 93, "channel": 0}, {"type": "note_on", "time": 0, "note": 71, "velocity": 102, "channel": 0}, {"type": "note_off", "time": 1892, "note": 71, "velocity": 102, "channel": 0}, {"type": "note_on", "time": 2229, "note": 69, "velocity": 95, "channel": 0}, {"type": "note_off", "time": 3393, "note": 69, "velocity": 95, "channel": 0}, {"type": "note_on", "time": 548, "note": 66, "velocity": 99, "channel": 0}, {"type": "note_off", "time": 2715, "note": 66, "velocity": 99, "channel": 0}, {"type": "note_on", "time": 246, "note": 64, "velocity": 99, "channel": 0}, {"type": "note_off", "time": 2106, "note": 64, "velocity": 99, "channel": 0}, {"type": "note_on", "time": 0, "note": 69, "velocity": 98, "channel": 0}, {"type": "note_off", "time": 2457, "note": 69, "velocity": 98, "channel": 0}, {"type": "note_on", "time": 208, "note": 66, "velocity": 107, "channel": 0}, {"type": "note_off", "time": 3770, "note": 66, "velocity": 107, "channel": 0}, {"type": "note_on", "time": 0, "note": 61, "velocity": 106, "channel": 0}, {"type": "note_off", "time": 2457, "note": 61, "velocity": 106, "channel": 0}, {"type": "note_on", "time": 107, "note": 64, "velocity": 109, "channel": 0}, {"type": "note_off", "time": 5860, "note": 64, "velocity": 109, "channel": 0}, {"type": "note_on", "time": 0, "note": 62, "velocity": 101, "channel": 0}, {"type": "note_off", "time": 2925, "note": 62, "velocity": 101, "channel": 0}, {"type": "note_on", "time": 117, "note": 61, "velocity": 101, "channel": 0}, {"type": "note_off", "time": 2691, "note": 61, "velocity": 101, "channel": 0}, {"type": "note_on", "time": 0, "note": 59, "velocity": 99, "channel": 0}, {"type": "note_off", "time": 3510, "note": 59, "velocity": 99, "channel": 0}, {"type": "note_on", "time": 819, "note": 64, "velocity": 108, "channel": 0}, {"type": "note_off", "time": 2691, "note": 64, "velocity": 108, "channel": 0}, {"type": "note_on", "time": 0, "note": 61, "velocity": 99, "channel": 0}, {"type": "note_off", "time": 15681, "note": 61, "velocity": 99, "channel": 0}, {"type": "note_on", "time": 0, "note": 58, "velocity": 97, "channel": 0}, {"type": "note_off", "time": 4096, "note": 58, "velocity": 97, "channel": 0}, {"type": "note_on", "time": 0, "note": 61, "velocity": 99, "channel": 0}, {"type": "note_off", "time": 3393, "note": 61, "velocity": 99, "channel": 0}, {"type": "note_on", "time": 936, "note": 58, "velocity": 99, "channel": 0}, {"type": "note_off", "time": 5266, "note": 58, "velocity": 99, "channel": 0}, {"type": "note_on", "time": 0, "note": 59, "velocity": 88, "channel": 0}, {"type": "note_off", "time": 1521, "note": 59, "velocity": 88, "channel": 0}, {"type": "note_on", "time": 0, "note": 61, "velocity": 92, "channel": 0}, {"type": "note_off", "time": 5266, "note": 61, "velocity": 92, "channel": 0}, {"type": "note_on", "time": 1872, "note": 57, "velocity": 101, "channel": 0}, {"type": "note_off", "time": 6085, "note": 57, "velocity": 101, "channel": 0}, {"type": "note_on", "time": 1170, "note": 57, "velocity": 99, "channel": 0}, {"type": "note_off", "time": 10415, "note": 57, "velocity": 99, "channel": 0}, {"type": "note_on", "time": 10532, "note": 55, "velocity": 96, "channel": 0}, {"type": "note_off", "time": 3042, "note": 55, "velocity": 96, "channel": 0}, {"type": "note_on", "time": 0, "note": 57, "velocity": 97, "channel": 0}, {"type": "note_off", "time": 2340, "note": 57, "velocity": 97, "channel": 0}, {"type": "note_on", "time": 234, "note": 58, "velocity": 84, "channel": 0}, {"type": "note_off", "time": 936, "note": 58, "velocity": 84, "channel": 0}, {"type": "note_on", "time": 234, "note": 58, "velocity": 88, "channel": 0}, {"type": "note_off", "time": 1053, "note": 58, "velocity": 88, "channel": 0}, {"type": "note_on", "time": 616, "note": 62, "velocity": 103, "channel": 0}, {"type": "note_off", "time": 2192, "note": 62, "velocity": 103, "channel": 0}, {"type": "note_on", "time": 0, "note": 57, "velocity": 102, "channel": 0}, {"type": "note_off", "time": 2333, "note": 57, "velocity": 102, "channel": 0}, {"type": "note_on", "time": 0, "note": 58, "velocity": 102, "channel": 0}, {"type": "note_off", "time": 2574, "note": 58, "velocity": 102, "channel": 0}, {"type": "note_on", "time": 223, "note": 62, "velocity": 107, "channel": 0}, {"type": "note_off", "time": 2457, "note": 62, "velocity": 107, "channel": 0}, {"type": "note_on", "time": 720, "note": 65, "velocity": 102, "channel": 0}, {"type": "note_off", "time": 1755, "note": 65, "velocity": 102, "channel": 0}, {"type": "note_on", "time": 0, "note": 69, "velocity": 110, "channel": 0}, {"type": "note_off", "time": 3159, "note": 69, "velocity": 110, "channel": 0}, {"type": "note_on", "time": 0, "note": 72, "velocity": 103, "channel": 0}, {"type": "note_off", "time": 2808, "note": 72, "velocity": 103, "channel": 0}, {"type": "note_on", "time": 0, "note": 70, "velocity": 107, "channel": 0}, {"type": "note_off", "time": 3978, "note": 70, "velocity": 107, "channel": 0}, {"type": "note_on", "time": 2574, "note": 61, "velocity": 98, "channel": 0}, {"type": "note_off", "time": 3159, "note": 61, "velocity": 98, "channel": 0}, {"type": "note_on", "time": 0, "note": 62, "velocity": 98, "channel": 0}, {"type": "note_off", "time": 1287, "note": 62, "velocity": 98, "channel": 0}, {"type": "note_on", "time": 819, "note": 65, "velocity": 93, "channel": 0}, {"type": "note_off", "time": 2223, "note": 65, "velocity": 93, "channel": 0}, {"type": "note_on", "time": 585, "note": 69, "velocity": 105, "channel": 0}, {"type": "note_off", "time": 3861, "note": 69, "velocity": 105, "channel": 0}, {"type": "note_on", "time": 351, "note": 66, "velocity": 106, "channel": 0}, {"type": "note_off", "time": 1755, "note": 66, "velocity": 106, "channel": 0}, {"type": "note_on", "time": 0, "note": 67, "velocity": 100, "channel": 0}, {"type": "note_off", "time": 3159, "note": 67, "velocity": 100, "channel": 0}, {"type": "note_on", "time": 0, "note": 69, "velocity": 95, "channel": 0}, {"type": "note_off", "time": 3393, "note": 69, "velocity": 95, "channel": 0}, {"type": "note_on", "time": 234, "note": 66, "velocity": 91, "channel": 0}, {"type": "note_off", "time": 21767, "note": 66, "velocity": 91, "channel": 0}, {"type": "note_on", "time": 10181, "note": 64, "velocity": 111, "channel": 0}, {"type": "note_off", "time": 6436, "note": 64, "velocity": 111, "channel": 0}, {"type": "note_on", "time": 459, "note": 66, "velocity": 102, "channel": 0}, {"type": "note_off", "time": 7606, "note": 66, "velocity": 102, "channel": 0}, {"type": "note_on", "time": 0, "note": 66, "velocity": 103, "channel": 0}, {"type": "note_off", "time": 3275, "note": 66, "velocity": 103, "channel": 0}, {"type": "note_on", "time": 0, "note": 67, "velocity": 94, "channel": 0}, {"type": "note_off", "time": 5734, "note": 67, "velocity": 94, "channel": 0}, {"type": "note_on", "time": 946, "note": 59, "velocity": 92, "channel": 0}, {"type": "note_off", "time": 12288, "note": 59, "velocity": 92, "channel": 0}, {"type": "note_on", "time": 585, "note": 64, "velocity": 100, "channel": 0}, {"type": "note_off", "time": 8426, "note": 64, "velocity": 100, "channel": 0}, {"type": "note_on", "time": 0, "note": 61, "velocity": 96, "channel": 0}, {"type": "note_off", "time": 6670, "note": 61, "velocity": 96, "channel": 0}, {"type": "note_on", "time": 117, "note": 57, "velocity": 86, "channel": 0}, {"type": "note_off", "time": 26331, "note": 57, "velocity": 86, "channel": 0}, {"type": "note_on", "time": 468, "note": 53, "velocity": 99, "channel": 0}, {"type": "note_off", "time": 4096, "note": 53, "velocity": 99, "channel": 0}, {"type": "note_on", "time": 927, "note": 57, "velocity": 97, "channel": 0}, {"type": "note_off", "time": 4221, "note": 57, "velocity": 97, "channel": 0}, {"type": "note_on", "time": 0, "note": 54, "velocity": 96, "channel": 0}, {"type": "note_off", "time": 19894, "note": 54, "velocity": 96, "channel": 0}, {"type": "note_on", "time": 38970, "note": 50, "velocity": 107, "channel": 0}, {"type": "note_off", "time": 3627, "note": 50, "velocity": 107, "channel": 0}, {"type": "note_on", "time": 234, "note": 52, "velocity": 108, "channel": 0}, {"type": "note_off", "time": 3861, "note": 52, "velocity": 108, "channel": 0}, {"type": "note_on", "time": 575, "note": 53, "velocity": 112, "channel": 0}, {"type": "note_off", "time": 3510, "note": 53, "velocity": 112, "channel": 0}, {"type": "note_on", "time": 0, "note": 55, "velocity": 112, "channel": 0}, {"type": "note_off", "time": 2925, "note": 55, "velocity": 112, "channel": 0}, {"type": "note_on", "time": 0, "note": 57, "velocity": 106, "channel": 0}, {"type": "note_off", "time": 4213, "note": 57, "velocity": 106, "channel": 0}, {"type": "note_on", "time": 0, "note": 57, "velocity": 108, "channel": 0}, {"type": "note_off", "time": 3051, "note": 57, "velocity": 108, "channel": 0}, {"type": "note_on", "time": 0, "note": 60, "velocity": 107, "channel": 0}, {"type": "note_off", "time": 2808, "note": 60, "velocity": 107, "channel": 0}, {"type": "note_on", "time": 351, "note": 57, "velocity": 100, "channel": 0}, {"type": "note_off", "time": 3159, "note": 57, "velocity": 100, "channel": 0}, {"type": "note_on", "time": 927, "note": 59, "velocity": 102, "channel": 0}, {"type": "note_off", "time": 4213, "note": 59, "velocity": 102, "channel": 0}, {"type": "note_on", "time": 0, "note": 59, "velocity": 100, "channel": 0}, {"type": "note_off", "time": 3627, "note": 59, "velocity": 100, "channel": 0}, {"type": "note_on", "time": 351, "note": 64, "velocity": 113, "channel": 0}, {"type": "note_off", "time": 3509, "note": 64, "velocity": 113, "channel": 0}, {"type": "note_on", "time": 0, "note": 65, "velocity": 104, "channel": 0}, {"type": "note_off", "time": 2925, "note": 65, "velocity": 104, "channel": 0}, {"type": "note_on", "time": 18, "note": 71, "velocity": 111, "channel": 0}, {"type": "note_off", "time": 13001, "note": 71, "velocity": 111, "channel": 0}, {"type": "note_on", "time": 96, "note": 73, "velocity": 93, "channel": 0}, {"type": "note_off", "time": 1287, "note": 73, "velocity": 93, "channel": 0}, {"type": "note_on", "time": 117, "note": 74, "velocity": 88, "channel": 0}, {"type": "note_off", "time": 3744, "note": 74, "velocity": 88, "channel": 0}, {"type": "note_on", "time": 575, "note": 67, "velocity": 103, "channel": 0}, {"type": "note_off", "time": 7255, "note": 67, "velocity": 103, "channel": 0}, {"type": "note_on", "time": 0, "note": 67, "velocity": 101, "channel": 0}, {"type": "note_off", "time": 8085, "note": 67, "velocity": 101, "channel": 0}, {"type": "note_on", "time": 0, "note": 69, "velocity": 97, "channel": 0}, {"type": "note_off", "time": 1404, "note": 69, "velocity": 97, "channel": 0}, {"type": "note_on", "time": 0, "note": 71, "velocity": 99, "channel": 0}, {"type": "note_off", "time": 1521, "note": 71, "velocity": 99, "channel": 0}, {"type": "note_on", "time": 234, "note": 74, "velocity": 91, "channel": 0}, {"type": "note_off", "time": 2447, "note": 74, "velocity": 91, "channel": 0}, {"type": "note_on", "time": 0, "note": 71, "velocity": 100, "channel": 0}, {"type": "note_off", "time": 1872, "note": 71, "velocity": 100, "channel": 0}, {"type": "note_on", "time": 2233, "note": 67, "velocity": 91, "channel": 0}, {"type": "note_off", "time": 2106, "note": 67, "velocity": 91, "channel": 0}, {"type": "note_on", "time": 585, "note": 69, "velocity": 101, "channel": 0}, {"type": "note_off", "time": 1638, "note": 69, "velocity": 101, "channel": 0}, {"type": "note_on", "time": 0, "note": 71, "velocity": 97, "channel": 0}, {"type": "note_off", "time": 1872, "note": 71, "velocity": 97, "channel": 0}, {"type": "note_on", "time": 351, "note": 64, "velocity": 104, "channel": 0}, {"type": "note_off", "time": 2340, "note": 64, "velocity": 104, "channel": 0}, {"type": "note_on", "time": 351, "note": 69, "velocity": 102, "channel": 0}, {"type": "note_off", "time": 1638, "note": 69, "velocity": 102, "channel": 0}, {"type": "note_on", "time": 117, "note": 71, "velocity": 97, "channel": 0}, {"type": "note_off", "time": 1872, "note": 71, "velocity": 97, "channel": 0}, {"type": "note_on", "time": 1287, "note": 65, "velocity": 101, "channel": 0}, {"type": "note_off", "time": 2340, "note": 65, "velocity": 101, "channel": 0}, {"type": "note_on", "time": 0, "note": 61, "velocity": 96, "channel": 0}, {"type": "note_off", "time": 2457, "note": 61, "velocity": 96, "channel": 0}, {"type": "note_on", "time": 0, "note": 65, "velocity": 98, "channel": 0}, {"type": "note_off", "time": 702, "note": 65, "velocity": 98, "channel": 0}, {"type": "note_on", "time": 351, "note": 67, "velocity": 102, "channel": 0}, {"type": "note_off", "time": 2457, "note": 67, "velocity": 102, "channel": 0}, {"type": "note_on", "time": 0, "note": 65, "velocity": 104, "channel": 0}, {"type": "note_off", "time": 1872, "note": 65, "velocity": 104, "channel": 0}, {"type": "note_on", "time": 160, "note": 64, "velocity": 103, "channel": 0}, {"type": "note_off", "time": 1755, "note": 64, "velocity": 103, "channel": 0}, {"type": "note_on", "time": 73, "note": 58, "velocity": 91, "channel": 0}, {"type": "note_off", "time": 2532, "note": 58, "velocity": 91, "channel": 0}, {"type": "note_on", "time": 0, "note": 53, "velocity": 98, "channel": 0}, {"type": "note_off", "time": 2031, "note": 53, "velocity": 98, "channel": 0}, {"type": "note_on", "time": 0, "note": 57, "velocity": 99, "channel": 0}, {"type": "note_off", "time": 2457, "note": 57, "velocity": 99, "channel": 0}, {"type": "note_on", "time": 936, "note": 61, "velocity": 99, "channel": 0}, {"type": "note_off", "time": 1755, "note": 61, "velocity": 99, "channel": 0}, {"type": "note_on", "time": 351, "note": 58, "velocity": 99, "channel": 0}, {"type": "note_off", "time": 1872, "note": 58, "velocity": 99, "channel": 0}, {"type": "note_on", "time": 468, "note": 53, "velocity": 101, "channel": 0}, {"type": "note_off", "time": 1521, "note": 53, "velocity": 101, "channel": 0}, {"type": "note_on", "time": 0, "note": 52, "velocity": 104, "channel": 0}, {"type": "note_off", "time": 1872, "note": 52, "velocity": 104, "channel": 0}, {"type": "note_on", "time": 351, "note": 46, "velocity": 92, "channel": 0}, {"type": "note_off", "time": 2691, "note": 46, "velocity": 92, "channel": 0}, {"type": "note_on", "time": 585, "note": 52, "velocity": 102, "channel": 0}, {"type": "note_off", "time": 2106, "note": 52, "velocity": 102, "channel": 0}, {"type": "note_on", "time": 585, "note": 46, "velocity": 104, "channel": 0}, {"type": "note_off", "time": 2691, "note": 46, "velocity": 104, "channel": 0}, {"type": "note_on", "time": 234, "note": 45, "velocity": 100, "channel": 0}, {"type": "note_off", "time": 13575, "note": 45, "velocity": 100, "channel": 0}, {"type": "note_on", "time": 10064, "note": 45, "velocity": 92, "channel": 0}, {"type": "note_off", "time": 1872, "note": 45, "velocity": 92, "channel": 0}, {"type": "note_on", "time": 351, "note": 47, "velocity": 108, "channel": 0}, {"type": "note_off", "time": 702, "note": 47, "velocity": 108, "channel": 0}, {"type": "note_on", "time": 351, "note": 49, "velocity": 110, "channel": 0}, {"type": "note_off", "time": 1404, "note": 49, "velocity": 110, "channel": 0}, {"type": "note_on", "time": 117, "note": 52, "velocity": 110, "channel": 0}, {"type": "note_off", "time": 1053, "note": 52, "velocity": 110, "channel": 0}, {"type": "note_on", "time": 0, "note": 55, "velocity": 110, "channel": 0}, {"type": "note_off", "time": 2340, "note": 55, "velocity": 110, "channel": 0}, {"type": "note_on", "time": 234, "note": 50, "velocity": 105, "channel": 0}, {"type": "note_off", "time": 2106, "note": 50, "velocity": 105, "channel": 0}, {"type": "note_on", "time": 0, "note": 51, "velocity": 105, "channel": 0}, {"type": "note_off", "time": 1638, "note": 51, "velocity": 105, "channel": 0}, {"type": "note_on", "time": 351, "note": 52, "velocity": 104, "channel": 0}, {"type": "note_off", "time": 2106, "note": 52, "velocity": 104, "channel": 0}, {"type": "note_on", "time": 468, "note": 53, "velocity": 97, "channel": 0}, {"type": "note_off", "time": 1404, "note": 53, "velocity": 97, "channel": 0}, {"type": "note_on", "time": 351, "note": 54, "velocity": 101, "channel": 0}, {"type": "note_off", "time": 1053, "note": 54, "velocity": 101, "channel": 0}, {"type": "note_on", "time": 410, "note": 55, "velocity": 105, "channel": 0}, {"type": "note_off", "time": 936, "note": 55, "velocity": 105, "channel": 0}, {"type": "note_on", "time": 642, "note": 59, "velocity": 107, "channel": 0}, {"type": "note_off", "time": 1989, "note": 59, "velocity": 107, "channel": 0}, {"type": "note_on", "time": 351, "note": 56, "velocity": 97, "channel": 0}, {"type": "note_off", "time": 1521, "note": 56, "velocity": 97, "channel": 0}, {"type": "note_on", "time": 0, "note": 57, "velocity": 98, "channel": 0}, {"type": "note_off", "time": 2223, "note": 57, "velocity": 98, "channel": 0}, {"type": "note_on", "time": 585, "note": 60, "velocity": 109, "channel": 0}, {"type": "note_off", "time": 1872, "note": 60, "velocity": 109, "channel": 0}, {"type": "note_on", "time": 0, "note": 57, "velocity": 91, "channel": 0}, {"type": "note_off", "time": 2223, "note": 57, "velocity": 91, "channel": 0}, {"type": "note_on", "time": 0, "note": 58, "velocity": 100, "channel": 0}, {"type": "note_off", "time": 2457, "note": 58, "velocity": 100, "channel": 0}, {"type": "note_on", "time": 468, "note": 59, "velocity": 104, "channel": 0}, {"type": "note_off", "time": 2340, "note": 59, "velocity": 104, "channel": 0}, {"type": "note_on", "time": 117, "note": 60, "velocity": 102, "channel": 0}, {"type": "note_off", "time": 2574, "note": 60, "velocity": 102, "channel": 0}, {"type": "note_on", "time": 702, "note": 64, "velocity": 94, "channel": 0}, {"type": "note_off", "time": 1872, "note": 64, "velocity": 94, "channel": 0}, {"type": "note_on", "time": 117, "note": 68, "velocity": 94, "channel": 0}, {"type": "note_off", "time": 819, "note": 68, "velocity": 94, "channel": 0}, {"type": "note_on", "time": 0, "note": 71, "velocity": 107, "channel": 0}, {"type": "note_off", "time": 2340, "note": 71, "velocity": 107, "channel": 0}, {"type": "note_on", "time": 385, "note": 69, "velocity": 105, "channel": 0}, {"type": "note_off", "time": 1316, "note": 69, "velocity": 105, "channel": 0}, {"type": "note_on", "time": 989, "note": 64, "velocity": 113, "channel": 0}, {"type": "note_off", "time": 2574, "note": 64, "velocity": 113, "channel": 0}, {"type": "note_on", "time": 117, "note": 60, "velocity": 91, "channel": 0}, {"type": "note_off", "time": 2457, "note": 60, "velocity": 91, "channel": 0}, {"type": "note_on", "time": 6042, "note": 67, "velocity": 95, "channel": 0}, {"type": "note_off", "time": 4095, "note": 67, "velocity": 95, "channel": 0}, {"type": "note_on", "time": 14086, "note": 55, "velocity": 105, "channel": 0}, {"type": "note_off", "time": 3209, "note": 55, "velocity": 105, "channel": 0}, {"type": "note_on", "time": 3291, "note": 67, "velocity": 106, "channel": 0}, {"type": "note_off", "time": 2808, "note": 67, "velocity": 106, "channel": 0}, {"type": "note_on", "time": 349, "note": 69, "velocity": 102, "channel": 0}, {"type": "note_off", "time": 3507, "note": 69, "velocity": 102, "channel": 0}, {"type": "note_on", "time": 0, "note": 66, "velocity": 100, "channel": 0}, {"type": "note_off", "time": 11234, "note": 66, "velocity": 100, "channel": 0}, {"type": "note_on", "time": 236, "note": 65, "velocity": 97, "channel": 0}, {"type": "note_off", "time": 5643, "note": 65, "velocity": 97, "channel": 0}, {"type": "note_on", "time": 0, "note": 70, "velocity": 78, "channel": 0}, {"type": "note_off", "time": 27483, "note": 70, "velocity": 78, "channel": 0}, {"type": "note_on", "time": 658, "note": 66, "velocity": 98, "channel": 0}, {"type": "note_off", "time": 2223, "note": 66, "velocity": 98, "channel": 0}, {"type": "note_on", "time": 574, "note": 62, "velocity": 88, "channel": 0}, {"type": "note_off", "time": 2962, "note": 62, "velocity": 88, "channel": 0}, {"type": "note_on", "time": 82, "note": 65, "velocity": 94, "channel": 0}, {"type": "note_off", "time": 2962, "note": 65, "velocity": 94, "channel": 0}, {"type": "note_on", "time": 822, "note": 62, "velocity": 89, "channel": 0}, {"type": "note_off", "time": 2386, "note": 62, "velocity": 89, "channel": 0}, {"type": "note_on", "time": 0, "note": 63, "velocity": 98, "channel": 0}, {"type": "note_off", "time": 3126, "note": 63, "velocity": 98, "channel": 0}, {"type": "note_on", "time": 246, "note": 65, "velocity": 93, "channel": 0}, {"type": "note_off", "time": 3044, "note": 65, "velocity": 93, "channel": 0}, {"type": "note_on", "time": 246, "note": 63, "velocity": 98, "channel": 0}, {"type": "note_off", "time": 11026, "note": 63, "velocity": 98, "channel": 0}, {"type": "note_on", "time": 24027, "note": 62, "velocity": 105, "channel": 0}, {"type": "note_off", "time": 2550, "note": 62, "velocity": 105, "channel": 0}, {"type": "note_on", "time": 46, "note": 63, "velocity": 107, "channel": 0}, {"type": "note_off", "time": 3393, "note": 63, "velocity": 107, "channel": 0}, {"type": "note_on", "time": 509, "note": 65, "velocity": 107, "channel": 0}, {"type": "note_off", "time": 3867, "note": 65, "velocity": 107, "channel": 0}, {"type": "note_on", "time": 534, "note": 63, "velocity": 116, "channel": 0}, {"type": "note_off", "time": 2509, "note": 63, "velocity": 116, "channel": 0}, {"type": "note_on", "time": 0, "note": 58, "velocity": 100, "channel": 0}, {"type": "note_off", "time": 2797, "note": 58, "velocity": 100, "channel": 0}, {"type": "note_on", "time": 164, "note": 53, "velocity": 111, "channel": 0}, {"type": "note_off", "time": 2797, "note": 53, "velocity": 111, "channel": 0}, {"type": "note_on", "time": 0, "note": 52, "velocity": 106, "channel": 0}, {"type": "note_off", "time": 3373, "note": 52, "velocity": 106, "channel": 0}, {"type": "note_on", "time": 658, "note": 50, "velocity": 101, "channel": 0}, {"type": "note_off", "time": 2880, "note": 50, "velocity": 101, "channel": 0}, {"type": "note_on", "time": 82, "note": 51, "velocity": 106, "channel": 0}, {"type": "note_off", "time": 2797, "note": 51, "velocity": 106, "channel": 0}, {"type": "note_on", "time": 82, "note": 53, "velocity": 105, "channel": 0}, {"type": "note_off", "time": 4361, "note": 53, "velocity": 105, "channel": 0}, {"type": "note_on", "time": 822, "note": 49, "velocity": 102, "channel": 0}, {"type": "note_off", "time": 3291, "note": 49, "velocity": 102, "channel": 0}, {"type": "note_on", "time": 0, "note": 50, "velocity": 113, "channel": 0}, {"type": "note_off", "time": 2550, "note": 50, "velocity": 113, "channel": 0}, {"type": "note_on", "time": 246, "note": 53, "velocity": 105, "channel": 0}, {"type": "note_off", "time": 4690, "note": 53, "velocity": 105, "channel": 0}, {"type": "note_on", "time": 1398, "note": 51, "velocity": 106, "channel": 0}, {"type": "note_off", "time": 5924, "note": 51, "velocity": 106, "channel": 0}, {"type": "note_on", "time": 0, "note": 46, "velocity": 108, "channel": 0}, {"type": "note_off", "time": 18349, "note": 46, "velocity": 108, "channel": 0}, {"type": "note_on", "time": 164, "note": 58, "velocity": 107, "channel": 0}, {"type": "note_off", "time": 3159, "note": 58, "velocity": 107, "channel": 0}, {"type": "note_on", "time": 49, "note": 56, "velocity": 111, "channel": 0}, {"type": "note_off", "time": 2386, "note": 56, "velocity": 111, "channel": 0}, {"type": "note_on", "time": 576, "note": 54, "velocity": 114, "channel": 0}, {"type": "note_off", "time": 2221, "note": 54, "velocity": 114, "channel": 0}, {"type": "note_on", "time": 367, "note": 53, "velocity": 106, "channel": 0}, {"type": "note_off", "time": 3088, "note": 53, "velocity": 106, "channel": 0}, {"type": "note_on", "time": 0, "note": 52, "velocity": 108, "channel": 0}, {"type": "note_off", "time": 10779, "note": 52, "velocity": 108, "channel": 0}, {"type": "note_on", "time": 493, "note": 52, "velocity": 108, "channel": 0}, {"type": "note_off", "time": 1398, "note": 52, "velocity": 108, "channel": 0}, {"type": "note_on", "time": 329, "note": 54, "velocity": 96, "channel": 0}, {"type": "note_off", "time": 1974, "note": 54, "velocity": 96, "channel": 0}, {"type": "note_on", "time": 576, "note": 60, "velocity": 98, "channel": 0}, {"type": "note_off", "time": 11702, "note": 60, "velocity": 98, "channel": 0}, {"type": "note_on", "time": 1545, "note": 58, "velocity": 97, "channel": 0}, {"type": "note_off", "time": 2633, "note": 58, "velocity": 97, "channel": 0}, {"type": "note_on", "time": 2304, "note": 53, "velocity": 102, "channel": 0}, {"type": "note_off", "time": 8146, "note": 53, "velocity": 102, "channel": 0}, {"type": "note_on", "time": 329, "note": 56, "velocity": 96, "channel": 0}, {"type": "note_off", "time": 17691, "note": 56, "velocity": 96, "channel": 0}, {"type": "note_on", "time": 21312, "note": 55, "velocity": 109, "channel": 0}, {"type": "note_off", "time": 2221, "note": 55, "velocity": 109, "channel": 0}, {"type": "note_on", "time": 766, "note": 56, "velocity": 106, "channel": 0}, {"type": "note_off", "time": 3159, "note": 56, "velocity": 106, "channel": 0}, {"type": "note_on", "time": 1416, "note": 58, "velocity": 9, "channel": 0}, {"type": "note_off", "time": 4096, "note": 58, "velocity": 9, "channel": 0}, {"type": "note_on", "time": 802, "note": 56, "velocity": 110, "channel": 0}, {"type": "note_off", "time": 4564, "note": 56, "velocity": 110, "channel": 0}, {"type": "note_on", "time": 12, "note": 55, "velocity": 109, "channel": 0}, {"type": "note_off", "time": 5140, "note": 55, "velocity": 109, "channel": 0}, {"type": "note_on", "time": 0, "note": 56, "velocity": 109, "channel": 0}, {"type": "note_off", "time": 5032, "note": 56, "velocity": 109, "channel": 0}, {"type": "note_on", "time": 935, "note": 56, "velocity": 109, "channel": 0}, {"type": "note_off", "time": 5266, "note": 56, "velocity": 109, "channel": 0}, {"type": "note_on", "time": 1406, "note": 65, "velocity": 103, "channel": 0}, {"type": "note_off", "time": 5500, "note": 65, "velocity": 103, "channel": 0}, {"type": "note_on", "time": 466, "note": 63, "velocity": 107, "channel": 0}, {"type": "note_off", "time": 8660, "note": 63, "velocity": 107, "channel": 0}, {"type": "note_on", "time": 8, "note": 63, "velocity": 94, "channel": 0}, {"type": "note_off", "time": 18958, "note": 63, "velocity": 94, "channel": 0}, {"type": "note_on", "time": 1524, "note": 61, "velocity": 99, "channel": 0}, {"type": "note_off", "time": 5617, "note": 61, "velocity": 99, "channel": 0}, {"type": "note_on", "time": 3273, "note": 60, "velocity": 102, "channel": 0}, {"type": "note_off", "time": 6500, "note": 60, "velocity": 102, "channel": 0}, {"type": "note_on", "time": 0, "note": 59, "velocity": 87, "channel": 0}, {"type": "note_off", "time": 19995, "note": 59, "velocity": 87, "channel": 0}, {"type": "note_on", "time": 0, "note": 61, "velocity": 92, "channel": 0}, {"type": "note_off", "time": 6582, "note": 61, "velocity": 92, "channel": 0}, {"type": "note_on", "time": 905, "note": 58, "velocity": 84, "channel": 0}, {"type": "note_off", "time": 22052, "note": 58, "velocity": 84, "channel": 0}, {"type": "note_on", "time": 10532, "note": 73, "velocity": 111, "channel": 0}, {"type": "note_off", "time": 3702, "note": 73, "velocity": 111, "channel": 0}, {"type": "note_on", "time": 0, "note": 72, "velocity": 106, "channel": 0}, {"type": "note_off", "time": 1069, "note": 72, "velocity": 106, "channel": 0}, {"type": "note_on", "time": 164, "note": 70, "velocity": 108, "channel": 0}, {"type": "note_off", "time": 5348, "note": 70, "velocity": 108, "channel": 0}, {"type": "note_on", "time": 0, "note": 72, "velocity": 107, "channel": 0}, {"type": "note_off", "time": 822, "note": 72, "velocity": 107, "channel": 0}, {"type": "note_on", "time": 381, "note": 73, "velocity": 103, "channel": 0}, {"type": "note_off", "time": 4390, "note": 73, "velocity": 103, "channel": 0}, {"type": "note_on", "time": 0, "note": 72, "velocity": 105, "channel": 0}, {"type": "note_off", "time": 1728, "note": 72, "velocity": 105, "channel": 0}, {"type": "note_on", "time": 271, "note": 70, "velocity": 107, "channel": 0}, {"type": "note_off", "time": 7840, "note": 70, "velocity": 107, "channel": 0}, {"type": "note_on", "time": 197, "note": 66, "velocity": 109, "channel": 0}, {"type": "note_off", "time": 8722, "note": 66, "velocity": 109, "channel": 0}, {"type": "note_on", "time": 0, "note": 66, "velocity": 103, "channel": 0}, {"type": "note_off", "time": 1152, "note": 66, "velocity": 103, "channel": 0}, {"type": "note_on", "time": 0, "note": 67, "velocity": 101, "channel": 0}, {"type": "note_off", "time": 3538, "note": 67, "velocity": 101, "channel": 0}, {"type": "note_on", "time": 0, "note": 68, "velocity": 99, "channel": 0}, {"type": "note_off", "time": 5513, "note": 68, "velocity": 99, "channel": 0}, {"type": "note_on", "time": 411, "note": 65, "velocity": 99, "channel": 0}, {"type": "note_off", "time": 12836, "note": 65, "velocity": 99, "channel": 0}, {"type": "note_on", "time": 0, "note": 65, "velocity": 96, "channel": 0}, {"type": "note_off", "time": 2797, "note": 65, "velocity": 96, "channel": 0}, {"type": "note_on", "time": 635, "note": 64, "velocity": 105, "channel": 0}, {"type": "note_off", "time": 1989, "note": 64, "velocity": 105, "channel": 0}, {"type": "note_on", "time": 6, "note": 65, "velocity": 100, "channel": 0}, {"type": "note_off", "time": 2681, "note": 65, "velocity": 100, "channel": 0}, {"type": "note_on", "time": 0, "note": 66, "velocity": 102, "channel": 0}, {"type": "note_off", "time": 2092, "note": 66, "velocity": 102, "channel": 0}, {"type": "note_on", "time": 0, "note": 68, "velocity": 97, "channel": 0}, {"type": "note_off", "time": 2468, "note": 68, "velocity": 97, "channel": 0}, {"type": "note_on", "time": 0, "note": 70, "velocity": 96, "channel": 0}, {"type": "note_off", "time": 2797, "note": 70, "velocity": 96, "channel": 0}, {"type": "note_on", "time": 246, "note": 73, "velocity": 88, "channel": 0}, {"type": "note_off", "time": 3126, "note": 73, "velocity": 88, "channel": 0}, {"type": "note_on", "time": 154, "note": 75, "velocity": 90, "channel": 0}, {"type": "note_off", "time": 4447, "note": 75, "velocity": 90, "channel": 0}, {"type": "note_on", "time": 8, "note": 72, "velocity": 88, "channel": 0}, {"type": "note_off", "time": 10644, "note": 72, "velocity": 88, "channel": 0}, {"type": "note_on", "time": 0, "note": 70, "velocity": 94, "channel": 0}, {"type": "note_off", "time": 2574, "note": 70, "velocity": 94, "channel": 0}, {"type": "note_on", "time": 5, "note": 69, "velocity": 95, "channel": 0}, {"type": "note_off", "time": 3393, "note": 69, "velocity": 95, "channel": 0}, {"type": "note_on", "time": 1400, "note": 61, "velocity": 90, "channel": 0}, {"type": "note_off", "time": 1069, "note": 61, "velocity": 90, "channel": 0}, {"type": "note_on", "time": 164, "note": 63, "velocity": 93, "channel": 0}, {"type": "note_off", "time": 2962, "note": 63, "velocity": 93, "channel": 0}, {"type": "note_on", "time": 0, "note": 67, "velocity": 87, "channel": 0}, {"type": "note_off", "time": 6582, "note": 67, "velocity": 87, "channel": 0}, {"type": "note_on", "time": 576, "note": 66, "velocity": 95, "channel": 0}, {"type": "note_off", "time": 7323, "note": 66, "velocity": 95, "channel": 0}, {"type": "note_on", "time": 164, "note": 64, "velocity": 98, "channel": 0}, {"type": "note_off", "time": 1069, "note": 64, "velocity": 98, "channel": 0}, {"type": "note_on", "time": 0, "note": 65, "velocity": 95, "channel": 0}, {"type": "note_off", "time": 3538, "note": 65, "velocity": 95, "channel": 0}, {"type": "note_on", "time": 82, "note": 61, "velocity": 86, "channel": 0}, {"type": "note_off", "time": 2880, "note": 61, "velocity": 86, "channel": 0}, {"type": "note_on", "time": 0, "note": 57, "velocity": 89, "channel": 0}, {"type": "note_off", "time": 3291, "note": 57, "velocity": 89, "channel": 0}, {"type": "note_on", "time": 164, "note": 53, "velocity": 88, "channel": 0}, {"type": "note_off", "time": 1728, "note": 53, "velocity": 88, "channel": 0}, {"type": "note_on", "time": 1316, "note": 60, "velocity": 96, "channel": 0}, {"type": "note_off", "time": 3620, "note": 60, "velocity": 96, "channel": 0}, {"type": "note_on", "time": 905, "note": 57, "velocity": 79, "channel": 0}, {"type": "note_off", "time": 2715, "note": 57, "velocity": 79, "channel": 0}, {"type": "note_on", "time": 411, "note": 58, "velocity": 90, "channel": 0}, {"type": "note_off", "time": 4608, "note": 58, "velocity": 90, "channel": 0}, {"type": "note_on", "time": 1398, "note": 60, "velocity": 95, "channel": 0}, {"type": "note_off", "time": 3393, "note": 60, "velocity": 95, "channel": 0}, {"type": "note_on", "time": 113, "note": 61, "velocity": 93, "channel": 0}, {"type": "note_off", "time": 4797, "note": 61, "velocity": 93, "channel": 0}, {"type": "note_on", "time": 0, "note": 63, "velocity": 99, "channel": 0}, {"type": "note_off", "time": 1980, "note": 63, "velocity": 99, "channel": 0}, {"type": "note_on", "time": 0, "note": 65, "velocity": 94, "channel": 0}, {"type": "note_off", "time": 1974, "note": 65, "velocity": 94, "channel": 0}, {"type": "note_on", "time": 164, "note": 66, "velocity": 92, "channel": 0}, {"type": "note_off", "time": 2304, "note": 66, "velocity": 92, "channel": 0}, {"type": "note_on", "time": 164, "note": 68, "velocity": 87, "channel": 0}, {"type": "note_off", "time": 2340, "note": 68, "velocity": 87, "channel": 0}, {"type": "note_on", "time": 539, "note": 70, "velocity": 93, "channel": 0}, {"type": "note_off", "time": 2574, "note": 70, "velocity": 93, "channel": 0}, {"type": "note_on", "time": 254, "note": 72, "velocity": 91, "channel": 0}, {"type": "note_off", "time": 3042, "note": 72, "velocity": 91, "channel": 0}, {"type": "note_on", "time": 463, "note": 75, "velocity": 77, "channel": 0}, {"type": "note_off", "time": 3276, "note": 75, "velocity": 77, "channel": 0}, {"type": "note_on", "time": 232, "note": 73, "velocity": 85, "channel": 0}, {"type": "note_off", "time": 13809, "note": 73, "velocity": 85, "channel": 0}, {"type": "note_on", "time": 8890, "note": 72, "velocity": 102, "channel": 0}, {"type": "note_off", "time": 2808, "note": 72, "velocity": 102, "channel": 0}, {"type": "note_on", "time": 13, "note": 70, "velocity": 99, "channel": 0}, {"type": "note_off", "time": 2925, "note": 70, "velocity": 99, "channel": 0}, {"type": "note_on", "time": 1993, "note": 68, "velocity": 99, "channel": 0}, {"type": "note_off", "time": 5617, "note": 68, "velocity": 99, "channel": 0}, {"type": "note_on", "time": 229, "note": 65, "velocity": 101, "channel": 0}, {"type": "note_off", "time": 4096, "note": 65, "velocity": 101, "channel": 0}, {"type": "note_on", "time": 1629, "note": 63, "velocity": 103, "channel": 0}, {"type": "note_off", "time": 5576, "note": 63, "velocity": 103, "channel": 0}, {"type": "note_on", "time": 0, "note": 61, "velocity": 94, "channel": 0}, {"type": "note_off", "time": 6006, "note": 61, "velocity": 94, "channel": 0}, {"type": "note_on", "time": 329, "note": 65, "velocity": 94, "channel": 0}, {"type": "note_off", "time": 9011, "note": 65, "velocity": 94, "channel": 0}, {"type": "note_on", "time": 9009, "note": 66, "velocity": 108, "channel": 0}, {"type": "note_off", "time": 2457, "note": 66, "velocity": 108, "channel": 0}, {"type": "note_on", "time": 147, "note": 68, "velocity": 101, "channel": 0}, {"type": "note_off", "time": 2340, "note": 68, "velocity": 101, "channel": 0}, {"type": "note_on", "time": 1719, "note": 65, "velocity": 107, "channel": 0}, {"type": "note_off", "time": 2457, "note": 65, "velocity": 107, "channel": 0}, {"type": "note_on", "time": 340, "note": 68, "velocity": 93, "channel": 0}, {"type": "note_off", "time": 2550, "note": 68, "velocity": 93, "channel": 0}, {"type": "note_on", "time": 1645, "note": 62, "velocity": 104, "channel": 0}, {"type": "note_off", "time": 2880, "note": 62, "velocity": 104, "channel": 0}, {"type": "note_on", "time": 1316, "note": 68, "velocity": 93, "channel": 0}, {"type": "note_off", "time": 3159, "note": 68, "velocity": 93, "channel": 0}, {"type": "note_on", "time": 1023, "note": 62, "velocity": 101, "channel": 0}, {"type": "note_off", "time": 10628, "note": 62, "velocity": 101, "channel": 0}, {"type": "note_on", "time": 0, "note": 65, "velocity": 96, "channel": 0}, {"type": "note_off", "time": 2574, "note": 65, "velocity": 96, "channel": 0}, {"type": "note_on", "time": 140, "note": 68, "velocity": 91, "channel": 0}, {"type": "note_off", "time": 2691, "note": 68, "velocity": 91, "channel": 0}, {"type": "note_on", "time": 1340, "note": 62, "velocity": 98, "channel": 0}, {"type": "note_off", "time": 7489, "note": 62, "velocity": 98, "channel": 0}, {"type": "note_on", "time": 293, "note": 65, "velocity": 97, "channel": 0}, {"type": "note_off", "time": 4564, "note": 65, "velocity": 97, "channel": 0}, {"type": "note_on", "time": 653, "note": 62, "velocity": 103, "channel": 0}, {"type": "note_off", "time": 3044, "note": 62, "velocity": 103, "channel": 0}, {"type": "note_on", "time": 0, "note": 65, "velocity": 94, "channel": 0}, {"type": "note_off", "time": 3510, "note": 65, "velocity": 94, "channel": 0}, {"type": "note_on", "time": 1089, "note": 63, "velocity": 104, "channel": 0}, {"type": "note_off", "time": 2887, "note": 63, "velocity": 104, "channel": 0}, {"type": "note_on", "time": 0, "note": 65, "velocity": 92, "channel": 0}, {"type": "note_off", "time": 2386, "note": 65, "velocity": 92, "channel": 0}, {"type": "note_on", "time": 3031, "note": 63, "velocity": 105, "channel": 0}, {"type": "note_off", "time": 4538, "note": 63, "velocity": 105, "channel": 0}, {"type": "note_on", "time": 0, "note": 61, "velocity": 96, "channel": 0}, {"type": "note_off", "time": 6582, "note": 61, "velocity": 96, "channel": 0}, {"type": "note_on", "time": 0, "note": 65, "velocity": 100, "channel": 0}, {"type": "note_off", "time": 3126, "note": 65, "velocity": 100, "channel": 0}, {"type": "note_on", "time": 0, "note": 63, "velocity": 95, "channel": 0}, {"type": "note_off", "time": 2221, "note": 63, "velocity": 95, "channel": 0}, {"type": "note_on", "time": 576, "note": 56, "velocity": 101, "channel": 0}, {"type": "note_off", "time": 1152, "note": 56, "velocity": 101, "channel": 0}, {"type": "note_on", "time": 0, "note": 58, "velocity": 100, "channel": 0}, {"type": "note_off", "time": 1728, "note": 58, "velocity": 100, "channel": 0}, {"type": "note_on", "time": 0, "note": 56, "velocity": 96, "channel": 0}, {"type": "note_off", "time": 1069, "note": 56, "velocity": 96, "channel": 0}, {"type": "note_on", "time": 1018, "note": 65, "velocity": 96, "channel": 0}, {"type": "note_off", "time": 1638, "note": 65, "velocity": 96, "channel": 0}, {"type": "note_on", "time": 579, "note": 63, "velocity": 90, "channel": 0}, {"type": "note_off", "time": 9245, "note": 63, "velocity": 90, "channel": 0}, {"type": "note_on", "time": 1424, "note": 58, "velocity": 82, "channel": 0}, {"type": "note_off", "time": 12754, "note": 58, "velocity": 82, "channel": 0}, {"type": "note_on", "time": 19337, "note": 69, "velocity": 108, "channel": 0}, {"type": "note_off", "time": 1892, "note": 69, "velocity": 108, "channel": 0}, {"type": "note_on", "time": 164, "note": 70, "velocity": 101, "channel": 0}, {"type": "note_off", "time": 822, "note": 70, "velocity": 101, "channel": 0}, {"type": "note_on", "time": 246, "note": 69, "velocity": 104, "channel": 0}, {"type": "note_off", "time": 2633, "note": 69, "velocity": 104, "channel": 0}, {"type": "note_on", "time": 0, "note": 63, "velocity": 111, "channel": 0}, {"type": "note_off", "time": 2457, "note": 63, "velocity": 111, "channel": 0}, {"type": "note_on", "time": 175, "note": 65, "velocity": 101, "channel": 0}, {"type": "note_off", "time": 2574, "note": 65, "velocity": 101, "channel": 0}, {"type": "note_on", "time": 963, "note": 68, "velocity": 100, "channel": 0}, {"type": "note_off", "time": 9216, "note": 68, "velocity": 100, "channel": 0}, {"type": "note_on", "time": 905, "note": 67, "velocity": 102, "channel": 0}, {"type": "note_off", "time": 2221, "note": 67, "velocity": 102, "channel": 0}, {"type": "note_on", "time": 379, "note": 66, "velocity": 104, "channel": 0}, {"type": "note_off", "time": 3076, "note": 66, "velocity": 104, "channel": 0}, {"type": "note_on", "time": 0, "note": 67, "velocity": 98, "channel": 0}, {"type": "note_off", "time": 1892, "note": 67, "velocity": 98, "channel": 0}, {"type": "note_on", "time": 164, "note": 71, "velocity": 99, "channel": 0}, {"type": "note_off", "time": 2223, "note": 71, "velocity": 99, "channel": 0}, {"type": "note_on", "time": 574, "note": 75, "velocity": 97, "channel": 0}, {"type": "note_off", "time": 1728, "note": 75, "velocity": 97, "channel": 0}, {"type": "note_on", "time": 158, "note": 76, "velocity": 89, "channel": 0}, {"type": "note_off", "time": 3510, "note": 76, "velocity": 89, "channel": 0}, {"type": "note_on", "time": 362, "note": 73, "velocity": 88, "channel": 0}, {"type": "note_off", "time": 1892, "note": 73, "velocity": 88, "channel": 0}, {"type": "note_on", "time": 0, "note": 71, "velocity": 97, "channel": 0}, {"type": "note_off", "time": 2550, "note": 71, "velocity": 97, "channel": 0}, {"type": "note_on", "time": 231, "note": 67, "velocity": 102, "channel": 0}, {"type": "note_off", "time": 2566, "note": 67, "velocity": 102, "channel": 0}, {"type": "note_on", "time": 0, "note": 63, "velocity": 100, "channel": 0}, {"type": "note_off", "time": 2269, "note": 63, "velocity": 100, "channel": 0}, {"type": "note_on", "time": 0, "note": 60, "velocity": 94, "channel": 0}, {"type": "note_off", "time": 2867, "note": 60, "velocity": 94, "channel": 0}, {"type": "note_on", "time": 1989, "note": 67, "velocity": 88, "channel": 0}, {"type": "note_off", "time": 1170, "note": 67, "velocity": 88, "channel": 0}, {"type": "note_on", "time": 0, "note": 71, "velocity": 85, "channel": 0}, {"type": "note_off", "time": 2691, "note": 71, "velocity": 85, "channel": 0}, {"type": "note_on", "time": 618, "note": 66, "velocity": 103, "channel": 0}, {"type": "note_off", "time": 9475, "note": 66, "velocity": 103, "channel": 0}, {"type": "note_on", "time": 0, "note": 65, "velocity": 99, "channel": 0}, {"type": "note_off", "time": 2096, "note": 65, "velocity": 99, "channel": 0}, {"type": "note_on", "time": 0, "note": 64, "velocity": 98, "channel": 0}, {"type": "note_off", "time": 2672, "note": 64, "velocity": 98, "channel": 0}, {"type": "note_on", "time": 0, "note": 60, "velocity": 81, "channel": 0}, {"type": "note_off", "time": 2574, "note": 60, "velocity": 81, "channel": 0}, {"type": "note_on", "time": 599, "note": 64, "velocity": 103, "channel": 0}, {"type": "note_off", "time": 2106, "note": 64, "velocity": 103, "channel": 0}, {"type": "note_on", "time": 10, "note": 65, "velocity": 92, "channel": 0}, {"type": "note_off", "time": 9923, "note": 65, "velocity": 92, "channel": 0}, {"type": "note_on", "time": 0, "note": 60, "velocity": 83, "channel": 0}, {"type": "note_off", "time": 1872, "note": 60, "velocity": 83, "channel": 0}, {"type": "note_on", "time": 0, "note": 58, "velocity": 88, "channel": 0}, {"type": "note_off", "time": 2808, "note": 58, "velocity": 88, "channel": 0}, {"type": "note_on", "time": 0, "note": 56, "velocity": 90, "channel": 0}, {"type": "note_off", "time": 3803, "note": 56, "velocity": 90, "channel": 0}, {"type": "note_on", "time": 442, "note": 63, "velocity": 103, "channel": 0}, {"type": "note_off", "time": 4213, "note": 63, "velocity": 103, "channel": 0}, {"type": "note_on", "time": 9739, "note": 60, "velocity": 92, "channel": 0}, {"type": "note_off", "time": 4096, "note": 60, "velocity": 92, "channel": 0}, {"type": "note_on", "time": 351, "note": 56, "velocity": 99, "channel": 0}, {"type": "note_off", "time": 5383, "note": 56, "velocity": 99, "channel": 0}, {"type": "note_on", "time": 117, "note": 53, "velocity": 99, "channel": 0}, {"type": "note_off", "time": 3569, "note": 53, "velocity": 99, "channel": 0}, {"type": "note_on", "time": 0, "note": 51, "velocity": 94, "channel": 0}, {"type": "note_off", "time": 5090, "note": 51, "velocity": 94, "channel": 0}, {"type": "note_on", "time": 0, "note": 53, "velocity": 96, "channel": 0}, {"type": "note_off", "time": 9245, "note": 53, "velocity": 96, "channel": 0}, {"type": "note_on", "time": 819, "note": 48, "velocity": 99, "channel": 0}, {"type": "note_off", "time": 3627, "note": 48, "velocity": 99, "channel": 0}, {"type": "note_on", "time": 0, "note": 46, "velocity": 102, "channel": 0}, {"type": "note_off", "time": 5500, "note": 46, "velocity": 102, "channel": 0}, {"type": "note_on", "time": 117, "note": 44, "velocity": 101, "channel": 0}, {"type": "note_off", "time": 16384, "note": 44, "velocity": 101, "channel": 0}, {"type": "note_on", "time": 11761, "note": 50, "velocity": 101, "channel": 0}, {"type": "note_off", "time": 2106, "note": 50, "velocity": 101, "channel": 0}, {"type": "note_on", "time": 0, "note": 51, "velocity": 94, "channel": 0}, {"type": "note_off", "time": 1345, "note": 51, "velocity": 94, "channel": 0}, {"type": "note_on", "time": 117, "note": 52, "velocity": 96, "channel": 0}, {"type": "note_off", "time": 1872, "note": 52, "velocity": 96, "channel": 0}, {"type": "note_on", "time": 505, "note": 55, "velocity": 103, "channel": 0}, {"type": "note_off", "time": 1170, "note": 55, "velocity": 103, "channel": 0}, {"type": "note_on", "time": 240, "note": 59, "velocity": 100, "channel": 0}, {"type": "note_off", "time": 1989, "note": 59, "velocity": 100, "channel": 0}, {"type": "note_on", "time": 6, "note": 56, "velocity": 100, "channel": 0}, {"type": "note_off", "time": 2096, "note": 56, "velocity": 100, "channel": 0}, {"type": "note_on", "time": 0, "note": 57, "velocity": 100, "channel": 0}, {"type": "note_off", "time": 1872, "note": 57, "velocity": 100, "channel": 0}, {"type": "note_on", "time": 135, "note": 64, "velocity": 99, "channel": 0}, {"type": "note_off", "time": 1989, "note": 64, "velocity": 99, "channel": 0}, {"type": "note_on", "time": 175, "note": 58, "velocity": 97, "channel": 0}, {"type": "note_off", "time": 1696, "note": 58, "velocity": 97, "channel": 0}, {"type": "note_on", "time": 117, "note": 59, "velocity": 96, "channel": 0}, {"type": "note_off", "time": 1638, "note": 59, "velocity": 96, "channel": 0}, {"type": "note_on", "time": 58, "note": 60, "velocity": 104, "channel": 0}, {"type": "note_off", "time": 1930, "note": 60, "velocity": 104, "channel": 0}, {"type": "note_on", "time": 0, "note": 64, "velocity": 102, "channel": 0}, {"type": "note_off", "time": 2340, "note": 64, "velocity": 102, "channel": 0}, {"type": "note_on", "time": 0, "note": 67, "velocity": 93, "channel": 0}, {"type": "note_off", "time": 1287, "note": 67, "velocity": 93, "channel": 0}, {"type": "note_on", "time": 0, "note": 71, "velocity": 104, "channel": 0}, {"type": "note_off", "time": 2340, "note": 71, "velocity": 104, "channel": 0}, {"type": "note_on", "time": 0, "note": 66, "velocity": 105, "channel": 0}, {"type": "note_off", "time": 5149, "note": 66, "velocity": 105, "channel": 0}, {"type": "note_on", "time": 11878, "note": 53, "velocity": 98, "channel": 0}, {"type": "note_off", "time": 2223, "note": 53, "velocity": 98, "channel": 0}, {"type": "note_on", "time": 376, "note": 54, "velocity": 93, "channel": 0}, {"type": "note_off", "time": 1810, "note": 54, "velocity": 93, "channel": 0}, {"type": "note_on", "time": 95, "note": 60, "velocity": 99, "channel": 0}, {"type": "note_off", "time": 2750, "note": 60, "velocity": 99, "channel": 0}, {"type": "note_on", "time": 175, "note": 56, "velocity": 94, "channel": 0}, {"type": "note_off", "time": 3159, "note": 56, "velocity": 94, "channel": 0}, {"type": "note_on", "time": 526, "note": 60, "velocity": 103, "channel": 0}, {"type": "note_off", "time": 1755, "note": 60, "velocity": 103, "channel": 0}, {"type": "note_on", "time": 58, "note": 61, "velocity": 94, "channel": 0}, {"type": "note_off", "time": 2340, "note": 61, "velocity": 94, "channel": 0}, {"type": "note_on", "time": 175, "note": 63, "velocity": 97, "channel": 0}, {"type": "note_off", "time": 1638, "note": 63, "velocity": 97, "channel": 0}, {"type": "note_on", "time": 117, "note": 66, "velocity": 97, "channel": 0}, {"type": "note_off", "time": 1521, "note": 66, "velocity": 97, "channel": 0}, {"type": "note_on", "time": 153, "note": 68, "velocity": 98, "channel": 0}, {"type": "note_off", "time": 1777, "note": 68, "velocity": 98, "channel": 0}, {"type": "note_on", "time": 0, "note": 72, "velocity": 88, "channel": 0}, {"type": "note_off", "time": 2808, "note": 72, "velocity": 88, "channel": 0}, {"type": "note_on", "time": 0, "note": 65, "velocity": 105, "channel": 0}, {"type": "note_off", "time": 7372, "note": 65, "velocity": 105, "channel": 0}, {"type": "note_on", "time": 681, "note": 65, "velocity": 95, "channel": 0}, {"type": "note_off", "time": 3861, "note": 65, "velocity": 95, "channel": 0}, {"type": "note_on", "time": 9, "note": 66, "velocity": 98, "channel": 0}, {"type": "note_off", "time": 4634, "note": 66, "velocity": 98, "channel": 0}, {"type": "note_on", "time": 0, "note": 68, "velocity": 94, "channel": 0}, {"type": "note_off", "time": 6904, "note": 68, "velocity": 94, "channel": 0}, {"type": "note_on", "time": 14628, "note": 70, "velocity": 107, "channel": 0}, {"type": "note_off", "time": 3510, "note": 70, "velocity": 107, "channel": 0}, {"type": "note_on", "time": 2153, "note": 72, "velocity": 109, "channel": 0}, {"type": "note_off", "time": 4400, "note": 72, "velocity": 109, "channel": 0}, {"type": "note_on", "time": 0, "note": 73, "velocity": 99, "channel": 0}, {"type": "note_off", "time": 819, "note": 73, "velocity": 99, "channel": 0}, {"type": "note_on", "time": 175, "note": 74, "velocity": 100, "channel": 0}, {"type": "note_off", "time": 819, "note": 74, "velocity": 100, "channel": 0}, {"type": "note_on", "time": 0, "note": 75, "velocity": 90, "channel": 0}, {"type": "note_off", "time": 8074, "note": 75, "velocity": 90, "channel": 0}, {"type": "note_on", "time": 105, "note": 73, "velocity": 109, "channel": 0}, {"type": "note_off", "time": 5851, "note": 73, "velocity": 109, "channel": 0}, {"type": "note_on", "time": 11, "note": 71, "velocity": 112, "channel": 0}, {"type": "note_off", "time": 1053, "note": 71, "velocity": 112, "channel": 0}, {"type": "note_on", "time": 175, "note": 72, "velocity": 107, "channel": 0}, {"type": "note_off", "time": 7431, "note": 72, "velocity": 107, "channel": 0}, {"type": "note_on", "time": 351, "note": 71, "velocity": 107, "channel": 0}, {"type": "note_off", "time": 877, "note": 71, "velocity": 107, "channel": 0}, {"type": "note_on", "time": 58, "note": 72, "velocity": 106, "channel": 0}, {"type": "note_off", "time": 11995, "note": 72, "velocity": 106, "channel": 0}, {"type": "note_on", "time": 1567, "note": 70, "velocity": 104, "channel": 0}, {"type": "note_off", "time": 2925, "note": 70, "velocity": 104, "channel": 0}, {"type": "note_on", "time": 70, "note": 65, "velocity": 105, "channel": 0}, {"type": "note_off", "time": 2516, "note": 65, "velocity": 105, "channel": 0}, {"type": "note_on", "time": 1872, "note": 71, "velocity": 105, "channel": 0}, {"type": "note_off", "time": 9479, "note": 71, "velocity": 105, "channel": 0}, {"type": "note_on", "time": 58, "note": 69, "velocity": 103, "channel": 0}, {"type": "note_off", "time": 2457, "note": 69, "velocity": 103, "channel": 0}, {"type": "note_on", "time": 0, "note": 71, "velocity": 102, "channel": 0}, {"type": "note_off", "time": 2106, "note": 71, "velocity": 102, "channel": 0}, {"type": "note_on", "time": 0, "note": 64, "velocity": 110, "channel": 0}, {"type": "note_off", "time": 3452, "note": 64, "velocity": 110, "channel": 0}, {"type": "note_on", "time": 409, "note": 69, "velocity": 100, "channel": 0}, {"type": "note_off", "time": 2106, "note": 69, "velocity": 100, "channel": 0}, {"type": "note_on", "time": 0, "note": 67, "velocity": 98, "channel": 0}, {"type": "note_off", "time": 1521, "note": 67, "velocity": 98, "channel": 0}, {"type": "note_on", "time": 175, "note": 63, "velocity": 88, "channel": 0}, {"type": "note_off", "time": 1521, "note": 63, "velocity": 88, "channel": 0}, {"type": "note_on", "time": 246, "note": 60, "velocity": 105, "channel": 0}, {"type": "note_off", "time": 1316, "note": 60, "velocity": 105, "channel": 0}, {"type": "note_on", "time": 16, "note": 63, "velocity": 96, "channel": 0}, {"type": "note_off", "time": 1404, "note": 63, "velocity": 96, "channel": 0}, {"type": "note_on", "time": 58, "note": 64, "velocity": 106, "channel": 0}, {"type": "note_off", "time": 1345, "note": 64, "velocity": 106, "channel": 0}, {"type": "note_on", "time": 0, "note": 67, "velocity": 100, "channel": 0}, {"type": "note_off", "time": 2340, "note": 67, "velocity": 100, "channel": 0}, {"type": "note_on", "time": 0, "note": 63, "velocity": 107, "channel": 0}, {"type": "note_off", "time": 3452, "note": 63, "velocity": 107, "channel": 0}, {"type": "note_on", "time": 0, "note": 66, "velocity": 101, "channel": 0}, {"type": "note_off", "time": 6319, "note": 66, "velocity": 101, "channel": 0}, {"type": "note_on", "time": 58, "note": 64, "velocity": 104, "channel": 0}, {"type": "note_off", "time": 1989, "note": 64, "velocity": 104, "channel": 0}, {"type": "note_on", "time": 409, "note": 65, "velocity": 97, "channel": 0}, {"type": "note_off", "time": 10708, "note": 65, "velocity": 97, "channel": 0}, {"type": "note_on", "time": 234, "note": 60, "velocity": 89, "channel": 0}, {"type": "note_off", "time": 2574, "note": 60, "velocity": 89, "channel": 0}, {"type": "note_on", "time": 468, "note": 63, "velocity": 97, "channel": 0}, {"type": "note_off", "time": 3803, "note": 63, "velocity": 97, "channel": 0}, {"type": "note_on", "time": 234, "note": 61, "velocity": 98, "channel": 0}, {"type": "note_off", "time": 4330, "note": 61, "velocity": 98, "channel": 0}, {"type": "note_on", "time": 58, "note": 63, "velocity": 98, "channel": 0}, {"type": "note_off", "time": 3335, "note": 63, "velocity": 98, "channel": 0}, {"type": "note_on", "time": 175, "note": 65, "velocity": 93, "channel": 0}, {"type": "note_off", "time": 7957, "note": 65, "velocity": 93, "channel": 0}, {"type": "note_on", "time": 0, "note": 68, "velocity": 84, "channel": 0}, {"type": "note_off", "time": 6846, "note": 68, "velocity": 84, "channel": 0}, {"type": "note_on", "time": 0, "note": 66, "velocity": 87, "channel": 0}, {"type": "note_off", "time": 15506, "note": 66, "velocity": 87, "channel": 0}, {"type": "note_on", "time": 6612, "note": 56, "velocity": 104, "channel": 0}, {"type": "note_off", "time": 3861, "note": 56, "velocity": 104, "channel": 0}, {"type": "note_on", "time": 0, "note": 64, "velocity": 101, "channel": 0}, {"type": "note_off", "time": 1053, "note": 64, "velocity": 101, "channel": 0}, {"type": "note_on", "time": 0, "note": 65, "velocity": 108, "channel": 0}, {"type": "note_off", "time": 6436, "note": 65, "velocity": 108, "channel": 0}, {"type": "note_on", "time": 336, "note": 64, "velocity": 105, "channel": 0}, {"type": "note_off", "time": 10488, "note": 64, "velocity": 105, "channel": 0}, {"type": "note_on", "time": 0, "note": 63, "velocity": 98, "channel": 0}, {"type": "note_off", "time": 16149, "note": 63, "velocity": 98, "channel": 0}, {"type": "note_on", "time": 0, "note": 61, "velocity": 91, "channel": 0}, {"type": "note_off", "time": 2516, "note": 61, "velocity": 91, "channel": 0}, {"type": "note_on", "time": 234, "note": 63, "velocity": 102, "channel": 0}, {"type": "note_off", "time": 3569, "note": 63, "velocity": 102, "channel": 0}, {"type": "note_on", "time": 292, "note": 64, "velocity": 105, "channel": 0}, {"type": "note_off", "time": 2574, "note": 64, "velocity": 105, "channel": 0}, {"type": "note_on", "time": 0, "note": 63, "velocity": 101, "channel": 0}, {"type": "note_off", "time": 7606, "note": 63, "velocity": 101, "channel": 0}, {"type": "note_on", "time": 0, "note": 61, "velocity": 89, "channel": 0}, {"type": "note_off", "time": 3101, "note": 61, "velocity": 89, "channel": 0}, {"type": "note_on", "time": 0, "note": 63, "velocity": 91, "channel": 0}, {"type": "note_off", "time": 15213, "note": 63, "velocity": 91, "channel": 0}, {"type": "note_on", "time": 1345, "note": 61, "velocity": 108, "channel": 0}, {"type": "note_off", "time": 2633, "note": 61, "velocity": 108, "channel": 0}, {"type": "note_on", "time": 156, "note": 63, "velocity": 104, "channel": 0}, {"type": "note_off", "time": 2827, "note": 63, "velocity": 104, "channel": 0}, {"type": "note_on", "time": 0, "note": 65, "velocity": 99, "channel": 0}, {"type": "note_off", "time": 2340, "note": 65, "velocity": 99, "channel": 0}, {"type": "note_on", "time": 175, "note": 66, "velocity": 99, "channel": 0}, {"type": "note_off", "time": 2962, "note": 66, "velocity": 99, "channel": 0}, {"type": "note_on", "time": 0, "note": 68, "velocity": 105, "channel": 0}, {"type": "note_off", "time": 2925, "note": 68, "velocity": 105, "channel": 0}, {"type": "note_on", "time": 431, "note": 61, "velocity": 102, "channel": 0}, {"type": "note_off", "time": 2457, "note": 61, "velocity": 102, "channel": 0}, {"type": "note_on", "time": 58, "note": 62, "velocity": 104, "channel": 0}, {"type": "note_off", "time": 936, "note": 62, "velocity": 104, "channel": 0}, {"type": "note_on", "time": 0, "note": 65, "velocity": 107, "channel": 0}, {"type": "note_off", "time": 3744, "note": 65, "velocity": 107, "channel": 0}, {"type": "note_on", "time": 0, "note": 65, "velocity": 109, "channel": 0}, {"type": "note_off", "time": 1872, "note": 65, "velocity": 109, "channel": 0}, {"type": "note_on", "time": 292, "note": 62, "velocity": 103, "channel": 0}, {"type": "note_off", "time": 2048, "note": 62, "velocity": 103, "channel": 0}, {"type": "note_on", "time": 0, "note": 58, "velocity": 102, "channel": 0}, {"type": "note_off", "time": 2633, "note": 58, "velocity": 102, "channel": 0}, {"type": "note_on", "time": 0, "note": 54, "velocity": 108, "channel": 0}, {"type": "note_off", "time": 2282, "note": 54, "velocity": 108, "channel": 0}, {"type": "note_on", "time": 117, "note": 51, "velocity": 102, "channel": 0}, {"type": "note_off", "time": 1170, "note": 51, "velocity": 102, "channel": 0}, {"type": "note_on", "time": 292, "note": 62, "velocity": 107, "channel": 0}, {"type": "note_off", "time": 2048, "note": 62, "velocity": 107, "channel": 0}, {"type": "note_on", "time": 58, "note": 63, "velocity": 94, "channel": 0}, {"type": "note_off", "time": 1813, "note": 63, "velocity": 94, "channel": 0}, {"type": "note_on", "time": 0, "note": 65, "velocity": 107, "channel": 0}, {"type": "note_off", "time": 2808, "note": 65, "velocity": 107, "channel": 0}, {"type": "note_on", "time": 58, "note": 64, "velocity": 112, "channel": 0}, {"type": "note_off", "time": 2340, "note": 64, "velocity": 112, "channel": 0}, {"type": "note_on", "time": 0, "note": 63, "velocity": 106, "channel": 0}, {"type": "note_off", "time": 4096, "note": 63, "velocity": 106, "channel": 0}, {"type": "note_on", "time": 4973, "note": 58, "velocity": 96, "channel": 0}, {"type": "note_off", "time": 468, "note": 58, "velocity": 96, "channel": 0}, {"type": "note_on", "time": 0, "note": 61, "velocity": 100, "channel": 0}, {"type": "note_off", "time": 9011, "note": 61, "velocity": 100, "channel": 0}, {"type": "note_on", "time": 0, "note": 58, "velocity": 86, "channel": 0}, {"type": "note_off", "time": 1521, "note": 58, "velocity": 86, "channel": 0}, {"type": "note_on", "time": 468, "note": 61, "velocity": 102, "channel": 0}, {"type": "note_off", "time": 1872, "note": 61, "velocity": 102, "channel": 0}, {"type": "note_on", "time": 0, "note": 58, "velocity": 103, "channel": 0}, {"type": "note_off", "time": 1755, "note": 58, "velocity": 103, "channel": 0}, {"type": "note_on", "time": 181, "note": 54, "velocity": 98, "channel": 0}, {"type": "note_off", "time": 3373, "note": 54, "velocity": 98, "channel": 0}, {"type": "note_on", "time": 0, "note": 52, "velocity": 97, "channel": 0}, {"type": "note_off", "time": 1563, "note": 52, "velocity": 97, "channel": 0}, {"type": "note_on", "time": 382, "note": 53, "velocity": 102, "channel": 0}, {"type": "note_off", "time": 3101, "note": 53, "velocity": 102, "channel": 0}, {"type": "note_on", "time": 0, "note": 51, "velocity": 97, "channel": 0}, {"type": "note_off", "time": 3218, "note": 51, "velocity": 97, "channel": 0}, {"type": "note_on", "time": 15330, "note": 50, "velocity": 98, "channel": 0}, {"type": "note_off", "time": 2340, "note": 50, "velocity": 98, "channel": 0}, {"type": "note_on", "time": 175, "note": 51, "velocity": 104, "channel": 0}, {"type": "note_off", "time": 2516, "note": 51, "velocity": 104, "channel": 0}, {"type": "note_on", "time": 0, "note": 53, "velocity": 102, "channel": 0}, {"type": "note_off", "time": 2457, "note": 53, "velocity": 102, "channel": 0}, {"type": "note_on", "time": 0, "note": 54, "velocity": 100, "channel": 0}, {"type": "note_off", "time": 2223, "note": 54, "velocity": 100, "channel": 0}, {"type": "note_on", "time": 58, "note": 58, "velocity": 97, "channel": 0}, {"type": "note_off", "time": 2691, "note": 58, "velocity": 97, "channel": 0}, {"type": "note_on", "time": 409, "note": 61, "velocity": 107, "channel": 0}, {"type": "note_off", "time": 2633, "note": 61, "velocity": 107, "channel": 0}, {"type": "note_on", "time": 158, "note": 63, "velocity": 115, "channel": 0}, {"type": "note_off", "time": 2064, "note": 63, "velocity": 115, "channel": 0}, {"type": "note_on", "time": 0, "note": 65, "velocity": 111, "channel": 0}, {"type": "note_off", "time": 1111, "note": 65, "velocity": 111, "channel": 0}, {"type": "note_on", "time": 0, "note": 66, "velocity": 102, "channel": 0}, {"type": "note_off", "time": 2984, "note": 66, "velocity": 102, "channel": 0}, {"type": "note_on", "time": 117, "note": 68, "velocity": 106, "channel": 0}, {"type": "note_off", "time": 2457, "note": 68, "velocity": 106, "channel": 0}, {"type": "note_on", "time": 0, "note": 70, "velocity": 109, "channel": 0}, {"type": "note_off", "time": 2106, "note": 70, "velocity": 109, "channel": 0}, {"type": "note_on", "time": 0, "note": 73, "velocity": 101, "channel": 0}, {"type": "note_off", "time": 2106, "note": 73, "velocity": 101, "channel": 0}, {"type": "note_on", "time": 409, "note": 68, "velocity": 107, "channel": 0}, {"type": "note_off", "time": 2165, "note": 68, "velocity": 107, "channel": 0}, {"type": "note_on", "time": 0, "note": 70, "velocity": 101, "channel": 0}, {"type": "note_off", "time": 1872, "note": 70, "velocity": 101, "channel": 0}, {"type": "note_on", "time": 117, "note": 69, "velocity": 104, "channel": 0}, {"type": "note_off", "time": 1404, "note": 69, "velocity": 104, "channel": 0}, {"type": "note_on", "time": 234, "note": 65, "velocity": 110, "channel": 0}, {"type": "note_off", "time": 1755, "note": 65, "velocity": 110, "channel": 0}, {"type": "note_on", "time": 463, "note": 68, "velocity": 101, "channel": 0}, {"type": "note_off", "time": 2338, "note": 68, "velocity": 101, "channel": 0}, {"type": "note_on", "time": 0, "note": 63, "velocity": 113, "channel": 0}, {"type": "note_off", "time": 1937, "note": 63, "velocity": 113, "channel": 0}, {"type": "note_on", "time": 0, "note": 65, "velocity": 103, "channel": 0}, {"type": "note_off", "time": 2457, "note": 65, "velocity": 103, "channel": 0}, {"type": "note_on", "time": 351, "note": 66, "velocity": 110, "channel": 0}, {"type": "note_off", "time": 1872, "note": 66, "velocity": 110, "channel": 0}, {"type": "note_on", "time": 0, "note": 68, "velocity": 108, "channel": 0}, {"type": "note_off", "time": 2223, "note": 68, "velocity": 108, "channel": 0}, {"type": "note_on", "time": 0, "note": 69, "velocity": 106, "channel": 0}, {"type": "note_off", "time": 2223, "note": 69, "velocity": 106, "channel": 0}, {"type": "note_on", "time": 175, "note": 71, "velocity": 95, "channel": 0}, {"type": "note_off", "time": 2457, "note": 71, "velocity": 95, "channel": 0}, {"type": "note_on", "time": 175, "note": 75, "velocity": 100, "channel": 0}, {"type": "note_off", "time": 2340, "note": 75, "velocity": 100, "channel": 0}, {"type": "note_on", "time": 0, "note": 76, "velocity": 86, "channel": 0}, {"type": "note_off", "time": 2106, "note": 76, "velocity": 86, "channel": 0}, {"type": "note_on", "time": 285, "note": 74, "velocity": 93, "channel": 0}, {"type": "note_off", "time": 7906, "note": 74, "velocity": 93, "channel": 0}, {"type": "note_on", "time": 0, "note": 71, "velocity": 102, "channel": 0}, {"type": "note_off", "time": 1989, "note": 71, "velocity": 102, "channel": 0}, {"type": "note_on", "time": 285, "note": 69, "velocity": 104, "channel": 0}, {"type": "note_off", "time": 1521, "note": 69, "velocity": 104, "channel": 0}, {"type": "note_on", "time": 10, "note": 67, "velocity": 106, "channel": 0}, {"type": "note_off", "time": 1512, "note": 67, "velocity": 106, "channel": 0}, {"type": "note_on", "time": 0, "note": 66, "velocity": 105, "channel": 0}, {"type": "note_off", "time": 5798, "note": 66, "velocity": 105, "channel": 0}, {"type": "note_on", "time": 0, "note": 71, "velocity": 98, "channel": 0}, {"type": "note_off", "time": 936, "note": 71, "velocity": 98, "channel": 0}, {"type": "note_on", "time": 0, "note": 69, "velocity": 99, "channel": 0}, {"type": "note_off", "time": 1404, "note": 69, "velocity": 99, "channel": 0}, {"type": "note_on", "time": 58, "note": 67, "velocity": 100, "channel": 0}, {"type": "note_off", "time": 1053, "note": 67, "velocity": 100, "channel": 0}, {"type": "note_on", "time": 117, "note": 64, "velocity": 35, "channel": 0}, {"type": "note_off", "time": 2691, "note": 64, "velocity": 35, "channel": 0}, {"type": "note_on", "time": 0, "note": 63, "velocity": 88, "channel": 0}, {"type": "note_off", "time": 994, "note": 63, "velocity": 88, "channel": 0}, {"type": "note_on", "time": 412, "note": 61, "velocity": 98, "channel": 0}, {"type": "note_off", "time": 5146, "note": 61, "velocity": 98, "channel": 0}, {"type": "note_on", "time": 0, "note": 59, "velocity": 89, "channel": 0}, {"type": "note_off", "time": 3686, "note": 59, "velocity": 89, "channel": 0}, {"type": "note_on", "time": 175, "note": 60, "velocity": 93, "channel": 0}, {"type": "note_off", "time": 9771, "note": 60, "velocity": 93, "channel": 0}, {"type": "note_on", "time": 58, "note": 63, "velocity": 89, "channel": 0}, {"type": "note_off", "time": 14101, "note": 63, "velocity": 89, "channel": 0}, {"type": "note_on", "time": 1573, "note": 60, "velocity": 93, "channel": 0}, {"type": "note_off", "time": 4629, "note": 60, "velocity": 93, "channel": 0}, {"type": "note_on", "time": 0, "note": 63, "velocity": 101, "channel": 0}, {"type": "note_off", "time": 4915, "note": 63, "velocity": 101, "channel": 0}, {"type": "note_on", "time": 234, "note": 68, "velocity": 92, "channel": 0}, {"type": "note_off", "time": 11117, "note": 68, "velocity": 92, "channel": 0}, {"type": "note_on", "time": 9303, "note": 68, "velocity": 105, "channel": 0}, {"type": "note_off", "time": 3744, "note": 68, "velocity": 105, "channel": 0}, {"type": "note_on", "time": 1287, "note": 71, "velocity": 104, "channel": 0}, {"type": "note_off", "time": 1345, "note": 71, "velocity": 104, "channel": 0}, {"type": "note_on", "time": 0, "note": 72, "velocity": 102, "channel": 0}, {"type": "note_off", "time": 4915, "note": 72, "velocity": 102, "channel": 0}, {"type": "note_on", "time": 234, "note": 74, "velocity": 96, "channel": 0}, {"type": "note_off", "time": 936, "note": 74, "velocity": 96, "channel": 0}, {"type": "note_on", "time": 55, "note": 75, "velocity": 96, "channel": 0}, {"type": "note_off", "time": 6436, "note": 75, "velocity": 96, "channel": 0}, {"type": "note_on", "time": 941, "note": 75, "velocity": 91, "channel": 0}, {"type": "note_off", "time": 9011, "note": 75, "velocity": 91, "channel": 0}, {"type": "note_on", "time": 407, "note": 72, "velocity": 104, "channel": 0}, {"type": "note_off", "time": 7021, "note": 72, "velocity": 104, "channel": 0}, {"type": "note_on", "time": 1813, "note": 65, "velocity": 107, "channel": 0}, {"type": "note_off", "time": 2925, "note": 65, "velocity": 107, "channel": 0}, {"type": "note_on", "time": 0, "note": 72, "velocity": 92, "channel": 0}, {"type": "note_off", "time": 3393, "note": 72, "velocity": 92, "channel": 0}, {"type": "note_on", "time": 1050, "note": 68, "velocity": 102, "channel": 0}, {"type": "note_off", "time": 5500, "note": 68, "velocity": 102, "channel": 0}, {"type": "note_on", "time": 1349, "note": 68, "velocity": 99, "channel": 0}, {"type": "note_off", "time": 4096, "note": 68, "velocity": 99, "channel": 0}, {"type": "note_on", "time": 58, "note": 65, "velocity": 100, "channel": 0}, {"type": "note_off", "time": 2106, "note": 65, "velocity": 100, "channel": 0}, {"type": "note_on", "time": 234, "note": 71, "velocity": 96, "channel": 0}, {"type": "note_off", "time": 3744, "note": 71, "velocity": 96, "channel": 0}, {"type": "note_on", "time": 590, "note": 69, "velocity": 99, "channel": 0}, {"type": "note_off", "time": 12862, "note": 69, "velocity": 99, "channel": 0}, {"type": "note_on", "time": 0, "note": 71, "velocity": 93, "channel": 0}, {"type": "note_off", "time": 2404, "note": 71, "velocity": 93, "channel": 0}, {"type": "note_on", "time": 0, "note": 73, "velocity": 90, "channel": 0}, {"type": "note_off", "time": 2750, "note": 73, "velocity": 90, "channel": 0}, {"type": "note_on", "time": 0, "note": 74, "velocity": 81, "channel": 0}, {"type": "note_off", "time": 2340, "note": 74, "velocity": 81, "channel": 0}, {"type": "note_on", "time": 819, "note": 66, "velocity": 102, "channel": 0}, {"type": "note_off", "time": 7782, "note": 66, "velocity": 102, "channel": 0}, {"type": "note_on", "time": 0, "note": 64, "velocity": 94, "channel": 0}, {"type": "note_off", "time": 10064, "note": 64, "velocity": 94, "channel": 0}, {"type": "note_on", "time": 14921, "note": 63, "velocity": 112, "channel": 0}, {"type": "note_off", "time": 5149, "note": 63, "velocity": 112, "channel": 0}, {"type": "note_on", "time": 468, "note": 65, "velocity": 105, "channel": 0}, {"type": "note_off", "time": 5500, "note": 65, "velocity": 105, "channel": 0}, {"type": "note_on", "time": 351, "note": 66, "velocity": 107, "channel": 0}, {"type": "note_off", "time": 6319, "note": 66, "velocity": 107, "channel": 0}, {"type": "note_on", "time": 581, "note": 68, "velocity": 107, "channel": 0}, {"type": "note_off", "time": 4330, "note": 68, "velocity": 107, "channel": 0}, {"type": "note_on", "time": 1256, "note": 70, "velocity": 106, "channel": 0}, {"type": "note_off", "time": 6747, "note": 70, "velocity": 106, "channel": 0}, {"type": "note_on", "time": 64, "note": 73, "velocity": 101, "channel": 0}, {"type": "note_off", "time": 5383, "note": 73, "velocity": 101, "channel": 0}, {"type": "note_on", "time": 148, "note": 70, "velocity": 102, "channel": 0}, {"type": "note_off", "time": 5924, "note": 70, "velocity": 102, "channel": 0}, {"type": "note_on", "time": 15, "note": 73, "velocity": 95, "channel": 0}, {"type": "note_off", "time": 5266, "note": 73, "velocity": 95, "channel": 0}, {"type": "note_on", "time": 16, "note": 70, "velocity": 92, "channel": 0}, {"type": "note_off", "time": 5734, "note": 70, "velocity": 92, "channel": 0}, {"type": "note_on", "time": 454, "note": 66, "velocity": 100, "channel": 0}, {"type": "note_off", "time": 5623, "note": 66, "velocity": 100, "channel": 0}, {"type": "note_on", "time": 0, "note": 68, "velocity": 88, "channel": 0}, {"type": "note_off", "time": 5968, "note": 68, "velocity": 88, "channel": 0}, {"type": "note_on", "time": 1048, "note": 65, "velocity": 94, "channel": 0}, {"type": "note_off", "time": 4798, "note": 65, "velocity": 94, "channel": 0}, {"type": "note_on", "time": 584, "note": 68, "velocity": 82, "channel": 0}, {"type": "note_off", "time": 6787, "note": 68, "velocity": 82, "channel": 0}, {"type": "note_on", "time": 469, "note": 65, "velocity": 94, "channel": 0}, {"type": "note_off", "time": 5734, "note": 65, "velocity": 94, "channel": 0}, {"type": "note_on", "time": 10, "note": 64, "velocity": 95, "channel": 0}, {"type": "note_off", "time": 1404, "note": 64, "velocity": 95, "channel": 0}, {"type": "note_on", "time": 109, "note": 65, "velocity": 95, "channel": 0}, {"type": "note_off", "time": 4447, "note": 65, "velocity": 95, "channel": 0}, {"type": "note_on", "time": 58, "note": 64, "velocity": 89, "channel": 0}, {"type": "note_off", "time": 3335, "note": 64, "velocity": 89, "channel": 0}, {"type": "note_on", "time": 120, "note": 65, "velocity": 93, "channel": 0}, {"type": "note_off", "time": 5734, "note": 65, "velocity": 93, "channel": 0}, {"type": "note_on", "time": 55, "note": 63, "velocity": 89, "channel": 0}, {"type": "note_off", "time": 8133, "note": 63, "velocity": 89, "channel": 0}, {"type": "note_on", "time": 13282, "note": 61, "velocity": 99, "channel": 0}, {"type": "note_off", "time": 2399, "note": 61, "velocity": 99, "channel": 0}, {"type": "note_on", "time": 117, "note": 63, "velocity": 100, "channel": 0}, {"type": "note_off", "time": 1638, "note": 63, "velocity": 100, "channel": 0}, {"type": "note_on", "time": 230, "note": 65, "velocity": 101, "channel": 0}, {"type": "note_off", "time": 1056, "note": 65, "velocity": 101, "channel": 0}, {"type": "note_on", "time": 0, "note": 71, "velocity": 101, "channel": 0}, {"type": "note_off", "time": 2340, "note": 71, "velocity": 101, "channel": 0}, {"type": "note_on", "time": 175, "note": 69, "velocity": 99, "channel": 0}, {"type": "note_off", "time": 2691, "note": 69, "velocity": 99, "channel": 0}, {"type": "note_on", "time": 1111, "note": 65, "velocity": 94, "channel": 0}, {"type": "note_off", "time": 2691, "note": 65, "velocity": 94, "channel": 0}, {"type": "note_on", "time": 0, "note": 61, "velocity": 92, "channel": 0}, {"type": "note_off", "time": 1228, "note": 61, "velocity": 92, "channel": 0}, {"type": "note_on", "time": 0, "note": 63, "velocity": 106, "channel": 0}, {"type": "note_off", "time": 2457, "note": 63, "velocity": 106, "channel": 0}, {"type": "note_on", "time": 409, "note": 61, "velocity": 85, "channel": 0}, {"type": "note_off", "time": 1755, "note": 61, "velocity": 85, "channel": 0}, {"type": "note_on", "time": 228, "note": 67, "velocity": 96, "channel": 0}, {"type": "note_off", "time": 2574, "note": 67, "velocity": 96, "channel": 0}, {"type": "note_on", "time": 590, "note": 65, "velocity": 79, "channel": 0}, {"type": "note_off", "time": 2165, "note": 65, "velocity": 79, "channel": 0}, {"type": "note_on", "time": 526, "note": 66, "velocity": 101, "channel": 0}, {"type": "note_off", "time": 4330, "note": 66, "velocity": 101, "channel": 0}, {"type": "note_on", "time": 4447, "note": 65, "velocity": 93, "channel": 0}, {"type": "note_off", "time": 6846, "note": 65, "velocity": 93, "channel": 0}, {"type": "note_on", "time": 409, "note": 60, "velocity": 74, "channel": 0}, {"type": "note_off", "time": 2340, "note": 60, "velocity": 74, "channel": 0}, {"type": "note_on", "time": 0, "note": 63, "velocity": 105, "channel": 0}, {"type": "note_off", "time": 2984, "note": 63, "velocity": 105, "channel": 0}, {"type": "note_on", "time": 0, "note": 62, "velocity": 93, "channel": 0}, {"type": "note_off", "time": 2340, "note": 62, "velocity": 93, "channel": 0}, {"type": "note_on", "time": 234, "note": 61, "velocity": 90, "channel": 0}, {"type": "note_off", "time": 3510, "note": 61, "velocity": 90, "channel": 0}, {"type": "note_on", "time": 117, "note": 57, "velocity": 81, "channel": 0}, {"type": "note_off", "time": 2516, "note": 57, "velocity": 81, "channel": 0}, {"type": "note_on", "time": 233, "note": 60, "velocity": 96, "channel": 0}, {"type": "note_off", "time": 2867, "note": 60, "velocity": 96, "channel": 0}, {"type": "note_on", "time": 0, "note": 58, "velocity": 90, "channel": 0}, {"type": "note_off", "time": 5324, "note": 58, "velocity": 90, "channel": 0}, {"type": "note_on", "time": 234, "note": 63, "velocity": 92, "channel": 0}, {"type": "note_off", "time": 10708, "note": 63, "velocity": 92, "channel": 0}, {"type": "note_on", "time": 4855, "note": 60, "velocity": 95, "channel": 0}, {"type": "note_off", "time": 3042, "note": 60, "velocity": 95, "channel": 0}, {"type": "note_on", "time": 223, "note": 58, "velocity": 90, "channel": 0}, {"type": "note_off", "time": 5851, "note": 58, "velocity": 90, "channel": 0}, {"type": "note_on", "time": 69, "note": 56, "velocity": 98, "channel": 0}, {"type": "note_off", "time": 9830, "note": 56, "velocity": 98, "channel": 0}, {"type": "note_on", "time": 1813, "note": 56, "velocity": 96, "channel": 0}, {"type": "note_off", "time": 2925, "note": 56, "velocity": 96, "channel": 0}, {"type": "note_on", "time": 696, "note": 53, "velocity": 97, "channel": 0}, {"type": "note_off", "time": 2463, "note": 53, "velocity": 97, "channel": 0}, {"type": "note_on", "time": 0, "note": 48, "velocity": 104, "channel": 0}, {"type": "note_off", "time": 3510, "note": 48, "velocity": 104, "channel": 0}, {"type": "note_on", "time": 234, "note": 46, "velocity": 100, "channel": 0}, {"type": "note_off", "time": 5149, "note": 46, "velocity": 100, "channel": 0}, {"type": "note_on", "time": 292, "note": 44, "velocity": 106, "channel": 0}, {"type": "note_off", "time": 9303, "note": 44, "velocity": 106, "channel": 0}, {"type": "note_on", "time": 9128, "note": 71, "velocity": 102, "channel": 0}, {"type": "note_off", "time": 2750, "note": 71, "velocity": 102, "channel": 0}, {"type": "note_on", "time": 290, "note": 67, "velocity": 101, "channel": 0}, {"type": "note_off", "time": 2457, "note": 67, "velocity": 101, "channel": 0}, {"type": "note_on", "time": 122, "note": 71, "velocity": 100, "channel": 0}, {"type": "note_off", "time": 2160, "note": 71, "velocity": 100, "channel": 0}, {"type": "note_on", "time": 0, "note": 67, "velocity": 97, "channel": 0}, {"type": "note_off", "time": 2223, "note": 67, "velocity": 97, "channel": 0}, {"type": "note_on", "time": 0, "note": 66, "velocity": 98, "channel": 0}, {"type": "note_off", "time": 3393, "note": 66, "velocity": 98, "channel": 0}, {"type": "note_on", "time": 58, "note": 64, "velocity": 94, "channel": 0}, {"type": "note_off", "time": 2399, "note": 64, "velocity": 94, "channel": 0}, {"type": "note_on", "time": 234, "note": 69, "velocity": 104, "channel": 0}, {"type": "note_off", "time": 3393, "note": 69, "velocity": 104, "channel": 0}, {"type": "note_on", "time": 1538, "note": 66, "velocity": 102, "channel": 0}, {"type": "note_off", "time": 2265, "note": 66, "velocity": 102, "channel": 0}, {"type": "note_on", "time": 0, "note": 61, "velocity": 97, "channel": 0}, {"type": "note_off", "time": 3393, "note": 61, "velocity": 97, "channel": 0}, {"type": "note_on", "time": 187, "note": 64, "velocity": 101, "channel": 0}, {"type": "note_off", "time": 10345, "note": 64, "velocity": 101, "channel": 0}, {"type": "note_on", "time": 0, "note": 62, "velocity": 92, "channel": 0}, {"type": "note_off", "time": 1813, "note": 62, "velocity": 92, "channel": 0}, {"type": "note_on", "time": 58, "note": 61, "velocity": 94, "channel": 0}, {"type": "note_off", "time": 2282, "note": 61, "velocity": 94, "channel": 0}, {"type": "note_on", "time": 0, "note": 59, "velocity": 85, "channel": 0}, {"type": "note_off", "time": 2399, "note": 59, "velocity": 85, "channel": 0}, {"type": "note_on", "time": 351, "note": 64, "velocity": 97, "channel": 0}, {"type": "note_off", "time": 8309, "note": 64, "velocity": 97, "channel": 0}, {"type": "note_on", "time": 175, "note": 61, "velocity": 84, "channel": 0}, {"type": "note_off", "time": 4798, "note": 61, "velocity": 84, "channel": 0}, {"type": "note_on", "time": 0, "note": 57, "velocity": 85, "channel": 0}, {"type": "note_off", "time": 10181, "note": 57, "velocity": 85, "channel": 0}, {"type": "note_on", "time": 11179, "note": 57, "velocity": 104, "channel": 0}, {"type": "note_off", "time": 1069, "note": 57, "velocity": 104, "channel": 0}, {"type": "note_on", "time": 0, "note": 58, "velocity": 104, "channel": 0}, {"type": "note_off", "time": 822, "note": 58, "velocity": 104, "channel": 0}, {"type": "note_on", "time": 82, "note": 57, "velocity": 101, "channel": 0}, {"type": "note_off", "time": 822, "note": 57, "velocity": 101, "channel": 0}, {"type": "note_on", "time": 740, "note": 60, "velocity": 98, "channel": 0}, {"type": "note_off", "time": 1338, "note": 60, "velocity": 98, "channel": 0}, {"type": "note_on", "time": 0, "note": 61, "velocity": 106, "channel": 0}, {"type": "note_off", "time": 6003, "note": 61, "velocity": 106, "channel": 0}, {"type": "note_on", "time": 0, "note": 62, "velocity": 104, "channel": 0}, {"type": "note_off", "time": 1696, "note": 62, "velocity": 104, "channel": 0}, {"type": "note_on", "time": 292, "note": 63, "velocity": 107, "channel": 0}, {"type": "note_off", "time": 1462, "note": 63, "velocity": 107, "channel": 0}, {"type": "note_on", "time": 241, "note": 64, "velocity": 113, "channel": 0}, {"type": "note_off", "time": 5961, "note": 64, "velocity": 113, "channel": 0}, {"type": "note_on", "time": 0, "note": 62, "velocity": 104, "channel": 0}, {"type": "note_off", "time": 2106, "note": 62, "velocity": 104, "channel": 0}, {"type": "note_on", "time": 117, "note": 64, "velocity": 109, "channel": 0}, {"type": "note_off", "time": 1696, "note": 64, "velocity": 109, "channel": 0}, {"type": "note_on", "time": 292, "note": 65, "velocity": 106, "channel": 0}, {"type": "note_off", "time": 994, "note": 65, "velocity": 106, "channel": 0}, {"type": "note_on", "time": 175, "note": 66, "velocity": 103, "channel": 0}, {"type": "note_off", "time": 4622, "note": 66, "velocity": 103, "channel": 0}, {"type": "note_on", "time": 117, "note": 69, "velocity": 106, "channel": 0}, {"type": "note_off", "time": 4564, "note": 69, "velocity": 106, "channel": 0}, {"type": "note_on", "time": 1521, "note": 73, "velocity": 106, "channel": 0}, {"type": "note_off", "time": 13048, "note": 73, "velocity": 106, "channel": 0}, {"type": "note_on", "time": 12463, "note": 45, "velocity": 103, "channel": 0}, {"type": "note_off", "time": 2633, "note": 45, "velocity": 103, "channel": 0}, {"type": "note_on", "time": 0, "note": 46, "velocity": 101, "channel": 0}, {"type": "note_off", "time": 2516, "note": 46, "velocity": 101, "channel": 0}, {"type": "note_on", "time": 0, "note": 50, "velocity": 99, "channel": 0}, {"type": "note_off", "time": 1989, "note": 50, "velocity": 99, "channel": 0}, {"type": "note_on", "time": 196, "note": 53, "velocity": 100, "channel": 0}, {"type": "note_off", "time": 2202, "note": 53, "velocity": 100, "channel": 0}, {"type": "note_on", "time": 0, "note": 57, "velocity": 99, "channel": 0}, {"type": "note_off", "time": 2223, "note": 57, "velocity": 99, "channel": 0}, {"type": "note_on", "time": 526, "note": 58, "velocity": 95, "channel": 0}, {"type": "note_off", "time": 1989, "note": 58, "velocity": 95, "channel": 0}, {"type": "note_on", "time": 0, "note": 55, "velocity": 100, "channel": 0}, {"type": "note_off", "time": 2340, "note": 55, "velocity": 100, "channel": 0}, {"type": "note_on", "time": 468, "note": 53, "velocity": 96, "channel": 0}, {"type": "note_off", "time": 2048, "note": 53, "velocity": 96, "channel": 0}, {"type": "note_on", "time": 256, "note": 52, "velocity": 97, "channel": 0}, {"type": "note_off", "time": 2084, "note": 52, "velocity": 97, "channel": 0}, {"type": "note_on", "time": 0, "note": 55, "velocity": 102, "channel": 0}, {"type": "note_off", "time": 2106, "note": 55, "velocity": 102, "channel": 0}, {"type": "note_on", "time": 351, "note": 58, "velocity": 90, "channel": 0}, {"type": "note_off", "time": 2340, "note": 58, "velocity": 90, "channel": 0}, {"type": "note_on", "time": 58, "note": 62, "velocity": 103, "channel": 0}, {"type": "note_off", "time": 1813, "note": 62, "velocity": 103, "channel": 0}, {"type": "note_on", "time": 409, "note": 56, "velocity": 96, "channel": 0}, {"type": "note_off", "time": 1053, "note": 56, "velocity": 96, "channel": 0}, {"type": "note_on", "time": 184, "note": 57, "velocity": 97, "channel": 0}, {"type": "note_off", "time": 2808, "note": 57, "velocity": 97, "channel": 0}, {"type": "note_on", "time": 13, "note": 58, "velocity": 96, "channel": 0}, {"type": "note_off", "time": 1264, "note": 58, "velocity": 96, "channel": 0}, {"type": "note_on", "time": 0, "note": 62, "velocity": 99, "channel": 0}, {"type": "note_off", "time": 2457, "note": 62, "velocity": 99, "channel": 0}, {"type": "note_on", "time": 409, "note": 64, "velocity": 110, "channel": 0}, {"type": "note_off", "time": 1872, "note": 64, "velocity": 110, "channel": 0}, {"type": "note_on", "time": 305, "note": 65, "velocity": 103, "channel": 0}, {"type": "note_off", "time": 2802, "note": 65, "velocity": 103, "channel": 0}, {"type": "note_on", "time": 0, "note": 66, "velocity": 103, "channel": 0}, {"type": "note_off", "time": 2691, "note": 66, "velocity": 103, "channel": 0}, {"type": "note_on", "time": 10, "note": 67, "velocity": 94, "channel": 0}, {"type": "note_off", "time": 1989, "note": 67, "velocity": 94, "channel": 0}, {"type": "note_on", "time": 6, "note": 67, "velocity": 95, "channel": 0}, {"type": "note_off", "time": 503, "note": 67, "velocity": 95, "channel": 0}, {"type": "note_on", "time": 0, "note": 69, "velocity": 97, "channel": 0}, {"type": "note_off", "time": 2574, "note": 69, "velocity": 97, "channel": 0}, {"type": "note_on", "time": 117, "note": 70, "velocity": 91, "channel": 0}, {"type": "note_off", "time": 1872, "note": 70, "velocity": 91, "channel": 0}, {"type": "note_on", "time": 0, "note": 71, "velocity": 97, "channel": 0}, {"type": "note_off", "time": 1579, "note": 71, "velocity": 97, "channel": 0}, {"type": "note_on", "time": 0, "note": 73, "velocity": 89, "channel": 0}, {"type": "note_off", "time": 3393, "note": 73, "velocity": 89, "channel": 0}, {"type": "note_on", "time": 702, "note": 69, "velocity": 99, "channel": 0}, {"type": "note_off", "time": 1813, "note": 69, "velocity": 99, "channel": 0}, {"type": "note_on", "time": 0, "note": 71, "velocity": 91, "channel": 0}, {"type": "note_off", "time": 2106, "note": 71, "velocity": 91, "channel": 0}, {"type": "note_on", "time": 1345, "note": 61, "velocity": 91, "channel": 0}, {"type": "note_off", "time": 2194, "note": 61, "velocity": 91, "channel": 0}, {"type": "note_on", "time": 0, "note": 64, "velocity": 82, "channel": 0}, {"type": "note_off", "time": 1111, "note": 64, "velocity": 82, "channel": 0}, {"type": "note_on", "time": 287, "note": 71, "velocity": 95, "channel": 0}, {"type": "note_off", "time": 1790, "note": 71, "velocity": 95, "channel": 0}, {"type": "note_on", "time": 0, "note": 69, "velocity": 96, "channel": 0}, {"type": "note_off", "time": 3159, "note": 69, "velocity": 96, "channel": 0}, {"type": "note_on", "time": 234, "note": 67, "velocity": 94, "channel": 0}, {"type": "note_off", "time": 2340, "note": 67, "velocity": 94, "channel": 0}, {"type": "note_on", "time": 1696, "note": 66, "velocity": 89, "channel": 0}, {"type": "note_off", "time": 1755, "note": 66, "velocity": 89, "channel": 0}, {"type": "note_on", "time": 351, "note": 67, "velocity": 98, "channel": 0}, {"type": "note_off", "time": 2867, "note": 67, "velocity": 98, "channel": 0}, {"type": "note_on", "time": 994, "note": 69, "velocity": 93, "channel": 0}, {"type": "note_off", "time": 2750, "note": 69, "velocity": 93, "channel": 0}, {"type": "note_on", "time": 0, "note": 66, "velocity": 83, "channel": 0}, {"type": "note_off", "time": 1287, "note": 66, "velocity": 83, "channel": 0}, {"type": "note_on", "time": 0, "note": 65, "velocity": 103, "channel": 0}, {"type": "note_off", "time": 2106, "note": 65, "velocity": 103, "channel": 0}, {"type": "note_on", "time": 526, "note": 64, "velocity": 106, "channel": 0}, {"type": "note_off", "time": 2808, "note": 64, "velocity": 106, "channel": 0}, {"type": "note_on", "time": 292, "note": 62, "velocity": 88, "channel": 0}, {"type": "note_off", "time": 1989, "note": 62, "velocity": 88, "channel": 0}, {"type": "note_on", "time": 0, "note": 63, "velocity": 85, "channel": 0}, {"type": "note_off", "time": 11410, "note": 63, "velocity": 85, "channel": 0}, {"type": "note_on", "time": 4388, "note": 62, "velocity": 99, "channel": 0}, {"type": "note_off", "time": 4447, "note": 62, "velocity": 99, "channel": 0}, {"type": "note_on", "time": 1521, "note": 56, "velocity": 96, "channel": 0}, {"type": "note_off", "time": 7606, "note": 56, "velocity": 96, "channel": 0}, {"type": "note_on", "time": 2808, "note": 59, "velocity": 91, "channel": 0}, {"type": "note_off", "time": 3627, "note": 59, "velocity": 91, "channel": 0}, {"type": "note_on", "time": 3052, "note": 57, "velocity": 91, "channel": 0}, {"type": "note_off", "time": 9713, "note": 57, "velocity": 91, "channel": 0}, {"type": "note_on", "time": 867, "note": 53, "velocity": 96, "channel": 0}, {"type": "note_off", "time": 3569, "note": 53, "velocity": 96, "channel": 0}, {"type": "note_on", "time": 122, "note": 55, "velocity": 94, "channel": 0}, {"type": "note_off", "time": 4207, "note": 55, "velocity": 94, "channel": 0}, {"type": "note_on", "time": 0, "note": 54, "velocity": 89, "channel": 0}, {"type": "note_off", "time": 19017, "note": 54, "velocity": 89, "channel": 0}, {"type": "note_on", "time": 11351, "note": 49, "velocity": 94, "channel": 0}, {"type": "note_off", "time": 3393, "note": 49, "velocity": 94, "channel": 0}, {"type": "note_on", "time": 175, "note": 52, "velocity": 94, "channel": 0}, {"type": "note_off", "time": 3510, "note": 52, "velocity": 94, "channel": 0}, {"type": "note_on", "time": 117, "note": 50, "velocity": 95, "channel": 0}, {"type": "note_off", "time": 5851, "note": 50, "velocity": 95, "channel": 0}, {"type": "note_on", "time": 356, "note": 52, "velocity": 99, "channel": 0}, {"type": "note_off", "time": 8192, "note": 52, "velocity": 99, "channel": 0}, {"type": "note_on", "time": 13, "note": 53, "velocity": 100, "channel": 0}, {"type": "note_off", "time": 6886, "note": 53, "velocity": 100, "channel": 0}, {"type": "note_on", "time": 0, "note": 55, "velocity": 101, "channel": 0}, {"type": "note_off", "time": 1579, "note": 55, "velocity": 101, "channel": 0}, {"type": "note_on", "time": 0, "note": 57, "velocity": 99, "channel": 0}, {"type": "note_off", "time": 2691, "note": 57, "velocity": 99, "channel": 0}, {"type": "note_on", "time": 585, "note": 60, "velocity": 98, "channel": 0}, {"type": "note_off", "time": 1989, "note": 60, "velocity": 98, "channel": 0}, {"type": "note_on", "time": 661, "note": 57, "velocity": 97, "channel": 0}, {"type": "note_off", "time": 4798, "note": 57, "velocity": 97, "channel": 0}, {"type": "note_on", "time": 742, "note": 59, "velocity": 93, "channel": 0}, {"type": "note_off", "time": 6787, "note": 59, "velocity": 93, "channel": 0}, {"type": "note_on", "time": 1404, "note": 64, "velocity": 105, "channel": 0}, {"type": "note_off", "time": 2925, "note": 64, "velocity": 105, "channel": 0}, {"type": "note_on", "time": 0, "note": 65, "velocity": 99, "channel": 0}, {"type": "note_off", "time": 4388, "note": 65, "velocity": 99, "channel": 0}, {"type": "note_on", "time": 1287, "note": 69, "velocity": 96, "channel": 0}, {"type": "note_off", "time": 4447, "note": 69, "velocity": 96, "channel": 0}, {"type": "note_on", "time": 117, "note": 71, "velocity": 100, "channel": 0}, {"type": "note_off", "time": 3803, "note": 71, "velocity": 100, "channel": 0}, {"type": "note_on", "time": 760, "note": 74, "velocity": 89, "channel": 0}, {"type": "note_off", "time": 4564, "note": 74, "velocity": 89, "channel": 0}, {"type": "note_on", "time": 0, "note": 76, "velocity": 83, "channel": 0}, {"type": "note_off", "time": 21884, "note": 76, "velocity": 83, "channel": 0}, {"type": "note_on", "time": 9069, "note": 71, "velocity": 109, "channel": 0}, {"type": "note_off", "time": 4096, "note": 71, "velocity": 109, "channel": 0}, {"type": "note_on", "time": 0, "note": 73, "velocity": 99, "channel": 0}, {"type": "note_off", "time": 994, "note": 73, "velocity": 99, "channel": 0}, {"type": "note_on", "time": 89, "note": 74, "velocity": 99, "channel": 0}, {"type": "note_off", "time": 5656, "note": 74, "velocity": 99, "channel": 0}, {"type": "note_on", "time": 0, "note": 71, "velocity": 112, "channel": 0}, {"type": "note_off", "time": 4552, "note": 71, "velocity": 112, "channel": 0}, {"type": "note_on", "time": 0, "note": 73, "velocity": 97, "channel": 0}, {"type": "note_off", "time": 819, "note": 73, "velocity": 97, "channel": 0}, {"type": "note_on", "time": 409, "note": 74, "velocity": 98, "channel": 0}, {"type": "note_off", "time": 5500, "note": 74, "velocity": 98, "channel": 0}, {"type": "note_on", "time": 0, "note": 71, "velocity": 111, "channel": 0}, {"type": "note_off", "time": 6904, "note": 71, "velocity": 111, "channel": 0}, {"type": "note_on", "time": 234, "note": 70, "velocity": 93, "channel": 0}, {"type": "note_off", "time": 23522, "note": 70, "velocity": 93, "channel": 0}, {"type": "note_on", "time": 7840, "note": 69, "velocity": 103, "channel": 0}, {"type": "note_off", "time": 2808, "note": 69, "velocity": 103, "channel": 0}, {"type": "note_on", "time": 175, "note": 70, "velocity": 99, "channel": 0}, {"type": "note_off", "time": 3276, "note": 70, "velocity": 99, "channel": 0}, {"type": "note_on", "time": 936, "note": 73, "velocity": 100, "channel": 0}, {"type": "note_off", "time": 3510, "note": 73, "velocity": 100, "channel": 0}, {"type": "note_on", "time": 117, "note": 74, "velocity": 89, "channel": 0}, {"type": "note_off", "time": 3393, "note": 74, "velocity": 89, "channel": 0}, {"type": "note_on", "time": 1872, "note": 69, "velocity": 97, "channel": 0}, {"type": "note_off", "time": 11293, "note": 69, "velocity": 97, "channel": 0}, {"type": "note_on", "time": 3218, "note": 65, "velocity": 107, "channel": 0}, {"type": "note_off", "time": 3256, "note": 65, "velocity": 107, "channel": 0}, {"type": "note_on", "time": 0, "note": 64, "velocity": 105, "channel": 0}, {"type": "note_off", "time": 2068, "note": 64, "velocity": 105, "channel": 0}, {"type": "note_on", "time": 0, "note": 67, "velocity": 99, "channel": 0}, {"type": "note_off", "time": 3101, "note": 67, "velocity": 99, "channel": 0}, {"type": "note_on", "time": 0, "note": 62, "velocity": 96, "channel": 0}, {"type": "note_off", "time": 3218, "note": 62, "velocity": 96, "channel": 0}, {"type": "note_on", "time": 0, "note": 65, "velocity": 101, "channel": 0}, {"type": "note_off", "time": 2925, "note": 65, "velocity": 101, "channel": 0}, {"type": "note_on", "time": 468, "note": 62, "velocity": 92, "channel": 0}, {"type": "note_off", "time": 2399, "note": 62, "velocity": 92, "channel": 0}, {"type": "note_on", "time": 213, "note": 64, "velocity": 101, "channel": 0}, {"type": "note_off", "time": 3627, "note": 64, "velocity": 101, "channel": 0}, {"type": "note_on", "time": 1131, "note": 56, "velocity": 82, "channel": 0}, {"type": "note_off", "time": 1638, "note": 56, "velocity": 82, "channel": 0}, {"type": "note_on", "time": 960, "note": 64, "velocity": 98, "channel": 0}, {"type": "note_off", "time": 9923, "note": 64, "velocity": 98, "channel": 0}, {"type": "note_on", "time": 0, "note": 62, "velocity": 93, "channel": 0}, {"type": "note_off", "time": 2399, "note": 62, "velocity": 93, "channel": 0}, {"type": "note_on", "time": 0, "note": 59, "velocity": 86, "channel": 0}, {"type": "note_off", "time": 4388, "note": 59, "velocity": 86, "channel": 0}, {"type": "note_on", "time": 292, "note": 62, "velocity": 97, "channel": 0}, {"type": "note_off", "time": 5090, "note": 62, "velocity": 97, "channel": 0}, {"type": "note_on", "time": 0, "note": 59, "velocity": 87, "channel": 0}, {"type": "note_off", "time": 3920, "note": 59, "velocity": 87, "channel": 0}, {"type": "note_on", "time": 175, "note": 59, "velocity": 93, "channel": 0}, {"type": "note_off", "time": 409, "note": 59, "velocity": 93, "channel": 0}, {"type": "note_on", "time": 175, "note": 58, "velocity": 91, "channel": 0}, {"type": "note_off", "time": 2516, "note": 58, "velocity": 91, "channel": 0}, {"type": "note_on", "time": 0, "note": 59, "velocity": 92, "channel": 0}, {"type": "note_off", "time": 6085, "note": 59, "velocity": 92, "channel": 0}, {"type": "note_on", "time": 58, "note": 52, "velocity": 94, "channel": 0}, {"type": "note_off", "time": 3218, "note": 52, "velocity": 94, "channel": 0}, {"type": "note_on", "time": 58, "note": 57, "velocity": 95, "channel": 0}, {"type": "note_off", "time": 2925, "note": 57, "velocity": 95, "channel": 0}, {"type": "note_on", "time": 58, "note": 55, "velocity": 93, "channel": 0}, {"type": "note_off", "time": 11293, "note": 55, "velocity": 93, "channel": 0}, {"type": "note_on", "time": 151, "note": 54, "velocity": 89, "channel": 0}, {"type": "note_off", "time": 12053, "note": 54, "velocity": 89, "channel": 0}, {"type": "note_on", "time": 12194, "note": 53, "velocity": 89, "channel": 0}, {"type": "note_off", "time": 2574, "note": 53, "velocity": 89, "channel": 0}, {"type": "note_on", "time": 0, "note": 54, "velocity": 91, "channel": 0}, {"type": "note_off", "time": 1930, "note": 54, "velocity": 91, "channel": 0}, {"type": "note_on", "time": 175, "note": 58, "velocity": 80, "channel": 0}, {"type": "note_off", "time": 1579, "note": 58, "velocity": 80, "channel": 0}, {"type": "note_on", "time": 292, "note": 64, "velocity": 101, "channel": 0}, {"type": "note_off", "time": 2106, "note": 64, "velocity": 101, "channel": 0}, {"type": "note_on", "time": 526, "note": 58, "velocity": 87, "channel": 0}, {"type": "note_off", "time": 2223, "note": 58, "velocity": 87, "channel": 0}, {"type": "note_on", "time": 0, "note": 59, "velocity": 86, "channel": 0}, {"type": "note_off", "time": 1989, "note": 59, "velocity": 86, "channel": 0}, {"type": "note_on", "time": 117, "note": 62, "velocity": 102, "channel": 0}, {"type": "note_off", "time": 3159, "note": 62, "velocity": 102, "channel": 0}, {"type": "note_on", "time": 175, "note": 63, "velocity": 86, "channel": 0}, {"type": "note_off", "time": 2106, "note": 63, "velocity": 86, "channel": 0}, {"type": "note_on", "time": 2282, "note": 68, "velocity": 101, "channel": 0}, {"type": "note_off", "time": 1755, "note": 68, "velocity": 101, "channel": 0}, {"type": "note_on", "time": 1813, "note": 74, "velocity": 91, "channel": 0}, {"type": "note_off", "time": 1989, "note": 74, "velocity": 91, "channel": 0}, {"type": "note_on", "time": 58, "note": 70, "velocity": 98, "channel": 0}, {"type": "note_off", "time": 2691, "note": 70, "velocity": 98, "channel": 0}, {"type": "note_on", "time": 58, "note": 71, "velocity": 98, "channel": 0}, {"type": "note_off", "time": 2223, "note": 71, "velocity": 98, "channel": 0}, {"type": "note_on", "time": 585, "note": 62, "velocity": 81, "channel": 0}, {"type": "note_off", "time": 1872, "note": 62, "velocity": 81, "channel": 0}, {"type": "note_on", "time": 409, "note": 63, "velocity": 77, "channel": 0}, {"type": "note_off", "time": 2223, "note": 63, "velocity": 77, "channel": 0}, {"type": "note_on", "time": 292, "note": 71, "velocity": 104, "channel": 0}, {"type": "note_off", "time": 1638, "note": 71, "velocity": 104, "channel": 0}, {"type": "note_on", "time": 117, "note": 70, "velocity": 96, "channel": 0}, {"type": "note_off", "time": 2808, "note": 70, "velocity": 96, "channel": 0}, {"type": "note_on", "time": 175, "note": 69, "velocity": 97, "channel": 0}, {"type": "note_off", "time": 2808, "note": 69, "velocity": 97, "channel": 0}, {"type": "note_on", "time": 234, "note": 68, "velocity": 94, "channel": 0}, {"type": "note_off", "time": 2633, "note": 68, "velocity": 94, "channel": 0}, {"type": "note_on", "time": 0, "note": 67, "velocity": 93, "channel": 0}, {"type": "note_off", "time": 2223, "note": 67, "velocity": 93, "channel": 0}, {"type": "note_on", "time": 58, "note": 65, "velocity": 95, "channel": 0}, {"type": "note_off", "time": 1696, "note": 65, "velocity": 95, "channel": 0}, {"type": "note_on", "time": 205, "note": 66, "velocity": 76, "channel": 0}, {"type": "note_off", "time": 2808, "note": 66, "velocity": 76, "channel": 0}, {"type": "note_on", "time": 848, "note": 68, "velocity": 94, "channel": 0}, {"type": "note_off", "time": 3510, "note": 68, "velocity": 94, "channel": 0}, {"type": "note_on", "time": 1111, "note": 70, "velocity": 97, "channel": 0}, {"type": "note_off", "time": 4856, "note": 70, "velocity": 97, "channel": 0}, {"type": "note_on", "time": 431, "note": 65, "velocity": 98, "channel": 0}, {"type": "note_off", "time": 5149, "note": 65, "velocity": 98, "channel": 0}, {"type": "note_on", "time": 11, "note": 66, "velocity": 95, "channel": 0}, {"type": "note_off", "time": 5173, "note": 66, "velocity": 95, "channel": 0}, {"type": "note_on", "time": 0, "note": 63, "velocity": 87, "channel": 0}, {"type": "note_off", "time": 13048, "note": 63, "velocity": 87, "channel": 0}, {"type": "note_on", "time": 13165, "note": 62, "velocity": 107, "channel": 0}, {"type": "note_off", "time": 2691, "note": 62, "velocity": 107, "channel": 0}, {"type": "note_on", "time": 0, "note": 63, "velocity": 92, "channel": 0}, {"type": "note_off", "time": 1053, "note": 63, "velocity": 92, "channel": 0}, {"type": "note_on", "time": 912, "note": 63, "velocity": 113, "channel": 0}, {"type": "note_off", "time": 4330, "note": 63, "velocity": 113, "channel": 0}, {"type": "note_on", "time": 1018, "note": 65, "velocity": 108, "channel": 0}, {"type": "note_off", "time": 4388, "note": 65, "velocity": 108, "channel": 0}, {"type": "note_on", "time": 2106, "note": 70, "velocity": 110, "channel": 0}, {"type": "note_off", "time": 7138, "note": 70, "velocity": 110, "channel": 0}, {"type": "note_on", "time": 1016, "note": 70, "velocity": 105, "channel": 0}, {"type": "note_off", "time": 9830, "note": 70, "velocity": 105, "channel": 0}, {"type": "note_on", "time": 1148, "note": 68, "velocity": 102, "channel": 0}, {"type": "note_off", "time": 3159, "note": 68, "velocity": 102, "channel": 0}, {"type": "note_on", "time": 739, "note": 71, "velocity": 99, "channel": 0}, {"type": "note_off", "time": 3159, "note": 71, "velocity": 99, "channel": 0}, {"type": "note_on", "time": 21, "note": 64, "velocity": 112, "channel": 0}, {"type": "note_off", "time": 4037, "note": 64, "velocity": 112, "channel": 0}, {"type": "note_on", "time": 234, "note": 66, "velocity": 9, "channel": 0}, {"type": "note_off", "time": 5441, "note": 66, "velocity": 9, "channel": 0}, {"type": "note_on", "time": 0, "note": 60, "velocity": 95, "channel": 0}, {"type": "note_off", "time": 9713, "note": 60, "velocity": 95, "channel": 0}, {"type": "note_on", "time": 760, "note": 64, "velocity": 101, "channel": 0}, {"type": "note_off", "time": 3042, "note": 64, "velocity": 101, "channel": 0}, {"type": "note_on", "time": 0, "note": 60, "velocity": 91, "channel": 0}, {"type": "note_off", "time": 1930, "note": 60, "velocity": 91, "channel": 0}, {"type": "note_on", "time": 0, "note": 56, "velocity": 93, "channel": 0}, {"type": "note_off", "time": 3978, "note": 56, "velocity": 93, "channel": 0}, {"type": "note_on", "time": 0, "note": 64, "velocity": 83, "channel": 0}, {"type": "note_off", "time": 1755, "note": 64, "velocity": 83, "channel": 0}, {"type": "note_on", "time": 0, "note": 60, "velocity": 88, "channel": 0}, {"type": "note_off", "time": 2574, "note": 60, "velocity": 88, "channel": 0}, {"type": "note_on", "time": 175, "note": 56, "velocity": 97, "channel": 0}, {"type": "note_off", "time": 2984, "note": 56, "velocity": 97, "channel": 0}, {"type": "note_on", "time": 0, "note": 52, "velocity": 93, "channel": 0}, {"type": "note_off", "time": 2750, "note": 52, "velocity": 93, "channel": 0}, {"type": "note_on", "time": 58, "note": 48, "velocity": 92, "channel": 0}, {"type": "note_off", "time": 3218, "note": 48, "velocity": 92, "channel": 0}, {"type": "note_on", "time": 351, "note": 54, "velocity": 103, "channel": 0}, {"type": "note_off", "time": 5032, "note": 54, "velocity": 103, "channel": 0}, {"type": "note_on", "time": 234, "note": 52, "velocity": 93, "channel": 0}, {"type": "note_off", "time": 3510, "note": 52, "velocity": 93, "channel": 0}, {"type": "note_on", "time": 0, "note": 48, "velocity": 92, "channel": 0}, {"type": "note_off", "time": 2165, "note": 48, "velocity": 92, "channel": 0}, {"type": "note_on", "time": 117, "note": 45, "velocity": 98, "channel": 0}, {"type": "note_off", "time": 5149, "note": 45, "velocity": 98, "channel": 0}, {"type": "note_on", "time": 234, "note": 44, "velocity": 89, "channel": 0}, {"type": "note_off", "time": 22645, "note": 44, "velocity": 89, "channel": 0}, {"type": "note_on", "time": 16442, "note": 56, "velocity": 106, "channel": 0}, {"type": "note_off", "time": 3978, "note": 56, "velocity": 106, "channel": 0}, {"type": "note_on", "time": 1111, "note": 58, "velocity": 99, "channel": 0}, {"type": "note_off", "time": 4505, "note": 58, "velocity": 99, "channel": 0}, {"type": "note_on", "time": 117, "note": 56, "velocity": 105, "channel": 0}, {"type": "note_off", "time": 4447, "note": 56, "velocity": 105, "channel": 0}, {"type": "note_on", "time": 292, "note": 55, "velocity": 103, "channel": 0}, {"type": "note_off", "time": 4798, "note": 55, "velocity": 103, "channel": 0}, {"type": "note_on", "time": 585, "note": 56, "velocity": 105, "channel": 0}, {"type": "note_off", "time": 4447, "note": 56, "velocity": 105, "channel": 0}, {"type": "note_on", "time": 702, "note": 56, "velocity": 105, "channel": 0}, {"type": "note_off", "time": 6143, "note": 56, "velocity": 105, "channel": 0}, {"type": "note_on", "time": 328, "note": 56, "velocity": 101, "channel": 0}, {"type": "note_off", "time": 5261, "note": 56, "velocity": 101, "channel": 0}, {"type": "note_on", "time": 0, "note": 63, "velocity": 109, "channel": 0}, {"type": "note_off", "time": 8426, "note": 63, "velocity": 109, "channel": 0}, {"type": "note_on", "time": 0, "note": 63, "velocity": 105, "channel": 0}, {"type": "note_off", "time": 8185, "note": 63, "velocity": 105, "channel": 0}, {"type": "note_on", "time": 0, "note": 63, "velocity": 99, "channel": 0}, {"type": "note_off", "time": 10649, "note": 63, "velocity": 99, "channel": 0}, {"type": "note_on", "time": 91, "note": 63, "velocity": 89, "channel": 0}, {"type": "note_off", "time": 6026, "note": 63, "velocity": 89, "channel": 0}, {"type": "note_on", "time": 468, "note": 60, "velocity": 88, "channel": 0}, {"type": "note_off", "time": 1345, "note": 60, "velocity": 88, "channel": 0}, {"type": "note_on", "time": 388, "note": 61, "velocity": 93, "channel": 0}, {"type": "note_off", "time": 5500, "note": 61, "velocity": 93, "channel": 0}, {"type": "note_on", "time": 3, "note": 60, "velocity": 90, "channel": 0}, {"type": "note_off", "time": 11585, "note": 60, "velocity": 90, "channel": 0}, {"type": "note_on", "time": 135, "note": 58, "velocity": 80, "channel": 0}, {"type": "note_off", "time": 16032, "note": 58, "velocity": 80, "channel": 0}, {"type": "note_on", "time": 0, "note": 57, "velocity": 83, "channel": 0}, {"type": "note_off", "time": 3510, "note": 57, "velocity": 83, "channel": 0}, {"type": "note_on", "time": 0, "note": 58, "velocity": 80, "channel": 0}, {"type": "note_off", "time": 3101, "note": 58, "velocity": 80, "channel": 0}, {"type": "note_on", "time": 1638, "note": 61, "velocity": 90, "channel": 0}, {"type": "note_off", "time": 6553, "note": 61, "velocity": 90, "channel": 0}, {"type": "note_on", "time": 175, "note": 58, "velocity": 75, "channel": 0}, {"type": "note_off", "time": 19075, "note": 58, "velocity": 75, "channel": 0}, {"type": "note_on", "time": 18490, "note": 73, "velocity": 106, "channel": 0}, {"type": "note_off", "time": 4739, "note": 73, "velocity": 106, "channel": 0}, {"type": "note_on", "time": 0, "note": 72, "velocity": 103, "channel": 0}, {"type": "note_off", "time": 1638, "note": 72, "velocity": 103, "channel": 0}, {"type": "note_on", "time": 0, "note": 70, "velocity": 99, "channel": 0}, {"type": "note_off", "time": 5558, "note": 70, "velocity": 99, "channel": 0}, {"type": "note_on", "time": 248, "note": 73, "velocity": 102, "channel": 0}, {"type": "note_off", "time": 5851, "note": 73, "velocity": 102, "channel": 0}, {"type": "note_on", "time": 219, "note": 72, "velocity": 98, "channel": 0}, {"type": "note_off", "time": 1053, "note": 72, "velocity": 98, "channel": 0}, {"type": "note_on", "time": 58, "note": 70, "velocity": 99, "channel": 0}, {"type": "note_off", "time": 6846, "note": 70, "velocity": 99, "channel": 0}, {"type": "note_on", "time": 58, "note": 66, "velocity": 102, "channel": 0}, {"type": "note_off", "time": 6436, "note": 66, "velocity": 102, "channel": 0}, {"type": "note_on", "time": 468, "note": 67, "velocity": 94, "channel": 0}, {"type": "note_off", "time": 1287, "note": 67, "velocity": 94, "channel": 0}, {"type": "note_on", "time": 0, "note": 68, "velocity": 93, "channel": 0}, {"type": "note_off", "time": 11293, "note": 68, "velocity": 93, "channel": 0}, {"type": "note_on", "time": 234, "note": 64, "velocity": 95, "channel": 0}, {"type": "note_off", "time": 1404, "note": 64, "velocity": 95, "channel": 0}, {"type": "note_on", "time": 0, "note": 65, "velocity": 96, "channel": 0}, {"type": "note_off", "time": 6319, "note": 65, "velocity": 96, "channel": 0}, {"type": "note_on", "time": 390, "note": 63, "velocity": 99, "channel": 0}, {"type": "note_off", "time": 7957, "note": 63, "velocity": 99, "channel": 0}, {"type": "note_on", "time": 4114, "note": 66, "velocity": 95, "channel": 0}, {"type": "note_off", "time": 3159, "note": 66, "velocity": 95, "channel": 0}, {"type": "note_on", "time": 117, "note": 67, "velocity": 86, "channel": 0}, {"type": "note_off", "time": 1053, "note": 67, "velocity": 86, "channel": 0}, {"type": "note_on", "time": 175, "note": 69, "velocity": 94, "channel": 0}, {"type": "note_off", "time": 1638, "note": 69, "velocity": 94, "channel": 0}, {"type": "note_on", "time": 0, "note": 72, "velocity": 77, "channel": 0}, {"type": "note_off", "time": 1638, "note": 72, "velocity": 77, "channel": 0}, {"type": "note_on", "time": 748, "note": 69, "velocity": 97, "channel": 0}, {"type": "note_off", "time": 3276, "note": 69, "velocity": 97, "channel": 0}, {"type": "note_on", "time": 3581, "note": 65, "velocity": 100, "channel": 0}, {"type": "note_off", "time": 1111, "note": 65, "velocity": 100, "channel": 0}, {"type": "note_on", "time": 58, "note": 66, "velocity": 90, "channel": 0}, {"type": "note_off", "time": 994, "note": 66, "velocity": 90, "channel": 0}, {"type": "note_on", "time": 0, "note": 61, "velocity": 82, "channel": 0}, {"type": "note_off", "time": 4447, "note": 61, "velocity": 82, "channel": 0}, {"type": "note_on", "time": 0, "note": 63, "velocity": 90, "channel": 0}, {"type": "note_off", "time": 2282, "note": 63, "velocity": 90, "channel": 0}, {"type": "note_on", "time": 526, "note": 67, "velocity": 92, "channel": 0}, {"type": "note_off", "time": 1755, "note": 67, "velocity": 92, "channel": 0}, {"type": "note_on", "time": 1287, "note": 66, "velocity": 96, "channel": 0}, {"type": "note_off", "time": 1696, "note": 66, "velocity": 96, "channel": 0}, {"type": "note_on", "time": 0, "note": 65, "velocity": 94, "channel": 0}, {"type": "note_off", "time": 2574, "note": 65, "velocity": 94, "channel": 0}, {"type": "note_on", "time": 638, "note": 64, "velocity": 92, "channel": 0}, {"type": "note_off", "time": 1975, "note": 64, "velocity": 92, "channel": 0}, {"type": "note_on", "time": 0, "note": 63, "velocity": 91, "channel": 0}, {"type": "note_off", "time": 3510, "note": 63, "velocity": 91, "channel": 0}, {"type": "note_on", "time": 662, "note": 58, "velocity": 92, "channel": 0}, {"type": "note_off", "time": 2925, "note": 58, "velocity": 92, "channel": 0}, {"type": "note_on", "time": 936, "note": 53, "velocity": 77, "channel": 0}, {"type": "note_off", "time": 2399, "note": 53, "velocity": 77, "channel": 0}, {"type": "note_on", "time": 0, "note": 56, "velocity": 90, "channel": 0}, {"type": "note_off", "time": 2340, "note": 56, "velocity": 90, "channel": 0}, {"type": "note_on", "time": 234, "note": 57, "velocity": 87, "channel": 0}, {"type": "note_off", "time": 2633, "note": 57, "velocity": 87, "channel": 0}, {"type": "note_on", "time": 0, "note": 60, "velocity": 91, "channel": 0}, {"type": "note_off", "time": 2984, "note": 60, "velocity": 91, "channel": 0}, {"type": "note_on", "time": 1462, "note": 57, "velocity": 79, "channel": 0}, {"type": "note_off", "time": 4388, "note": 57, "velocity": 79, "channel": 0}, {"type": "note_on", "time": 58, "note": 58, "velocity": 87, "channel": 0}, {"type": "note_off", "time": 2691, "note": 58, "velocity": 87, "channel": 0}, {"type": "note_on", "time": 1404, "note": 60, "velocity": 85, "channel": 0}, {"type": "note_off", "time": 1325, "note": 60, "velocity": 85, "channel": 0}, {"type": "note_on", "time": 0, "note": 61, "velocity": 89, "channel": 0}, {"type": "note_off", "time": 4116, "note": 61, "velocity": 89, "channel": 0}, {"type": "note_on", "time": 0, "note": 63, "velocity": 92, "channel": 0}, {"type": "note_off", "time": 1872, "note": 63, "velocity": 92, "channel": 0}, {"type": "note_on", "time": 341, "note": 65, "velocity": 94, "channel": 0}, {"type": "note_off", "time": 2457, "note": 65, "velocity": 94, "channel": 0}, {"type": "note_on", "time": 1, "note": 66, "velocity": 96, "channel": 0}, {"type": "note_off", "time": 2114, "note": 66, "velocity": 96, "channel": 0}, {"type": "note_on", "time": 0, "note": 68, "velocity": 85, "channel": 0}, {"type": "note_off", "time": 2633, "note": 68, "velocity": 85, "channel": 0}, {"type": "note_on", "time": 272, "note": 70, "velocity": 89, "channel": 0}, {"type": "note_off", "time": 2691, "note": 70, "velocity": 89, "channel": 0}, {"type": "note_on", "time": 10, "note": 72, "velocity": 84, "channel": 0}, {"type": "note_off", "time": 3393, "note": 72, "velocity": 84, "channel": 0}, {"type": "note_on", "time": 355, "note": 75, "velocity": 73, "channel": 0}, {"type": "note_off", "time": 6793, "note": 75, "velocity": 73, "channel": 0}, {"type": "note_on", "time": 0, "note": 73, "velocity": 73, "channel": 0}, {"type": "note_off", "time": 14628, "note": 73, "velocity": 73, "channel": 0}, {"type": "note_on", "time": 0, "note": 73, "velocity": 75, "channel": 0}, {"type": "note_off", "time": 1345, "note": 73, "velocity": 75, "channel": 0}, {"type": "note_on", "time": 0, "note": 75, "velocity": 65, "channel": 0}, {"type": "note_off", "time": 3861, "note": 75, "velocity": 65, "channel": 0}, {"type": "note_on", "time": 4798, "note": 72, "velocity": 72, "channel": 0}, {"type": "note_off", "time": 6261, "note": 72, "velocity": 72, "channel": 0}, {"type": "note_on", "time": 0, "note": 68, "velocity": 77, "channel": 0}, {"type": "note_off", "time": 6670, "note": 68, "velocity": 77, "channel": 0}, {"type": "note_on", "time": 468, "note": 73, "velocity": 79, "channel": 0}, {"type": "note_off", "time": 19719, "note": 73, "velocity": 79, "channel": 0}, {"type": "note_on", "time": 10825, "note": 72, "velocity": 96, "channel": 0}, {"type": "note_off", "time": 3627, "note": 72, "velocity": 96, "channel": 0}, {"type": "note_on", "time": 0, "note": 68, "velocity": 94, "channel": 0}, {"type": "note_off", "time": 3627, "note": 68, "velocity": 94, "channel": 0}, {"type": "note_on", "time": 643, "note": 65, "velocity": 95, "channel": 0}, {"type": "note_off", "time": 5149, "note": 65, "velocity": 95, "channel": 0}, {"type": "note_on", "time": 351, "note": 71, "velocity": 92, "channel": 0}, {"type": "note_off", "time": 4330, "note": 71, "velocity": 92, "channel": 0}, {"type": "note_on", "time": 409, "note": 68, "velocity": 89, "channel": 0}, {"type": "note_off", "time": 5149, "note": 68, "velocity": 89, "channel": 0}, {"type": "note_on", "time": 234, "note": 65, "velocity": 95, "channel": 0}, {"type": "note_off", "time": 3276, "note": 65, "velocity": 95, "channel": 0}, {"type": "note_on", "time": 0, "note": 63, "velocity": 89, "channel": 0}, {"type": "note_off", "time": 5734, "note": 63, "velocity": 89, "channel": 0}, {"type": "note_on", "time": 292, "note": 62, "velocity": 78, "channel": 0}, {"type": "note_off", "time": 18373, "note": 62, "velocity": 78, "channel": 0}, {"type": "note_on", "time": 1813, "note": 59, "velocity": 86, "channel": 0}, {"type": "note_off", "time": 3101, "note": 59, "velocity": 86, "channel": 0}, {"type": "note_on", "time": 0, "note": 58, "velocity": 74, "channel": 0}, {"type": "note_off", "time": 27443, "note": 58, "velocity": 74, "channel": 0}, {"type": "end_of_track", "time": 0}]]}