{"ticks_per_beat": 192, "tracks": [[{"type": "track_name", "name": "Melody", "time": 0}, {"type": "set_tempo", "tempo": 312500, "time": 0}, {"type": "key_signature", "key": "Eb", "time": 0}, {"type": "time_signature", "numerator": 4, "denominator": 4, "clocks_per_click": 24, "notated_32nd_notes_per_beat": 8, "time": 0}, {"type": "note_on", "time": 2721, "note": 51, "velocity": 115, "channel": 0}, {"type": "note_off", "time": 96, "note": 51, "velocity": 115, "channel": 0}, {"type": "note_on", "time": 15, "note": 63, "velocity": 103, "channel": 0}, {"type": "note_off", "time": 797, "note": 63, "velocity": 103, "channel": 0}, {"type": "note_on", "time": 16, "note": 61, "velocity": 105, "channel": 0}, {"type": "note_off", "time": 62, "note": 61, "velocity": 105, "channel": 0}, {"type": "note_on", "time": 3, "note": 60, "velocity": 101, "channel": 0}, {"type": "note_off", "time": 83, "note": 60, "velocity": 101, "channel": 0}, {"type": "note_on", "time": 3, "note": 58, "velocity": 112, "channel": 0}, {"type": "note_off", "time": 98, "note": 58, "velocity": 112, "channel": 0}, {"type": "note_on", "time": 14, "note": 54, "velocity": 111, "channel": 0}, {"type": "note_off", "time": 78, "note": 54, "velocity": 111, "channel": 0}, {"type": "note_on", "time": 6, "note": 55, "velocity": 109, "channel": 0}, {"type": "note_off", "time": 72, "note": 55, "velocity": 109, "channel": 0}, {"type": "note_on", "time": 13, "note": 58, "velocity": 106, "channel": 0}, {"type": "note_off", "time": 77, "note": 58, "velocity": 106, "channel": 0}, {"type": "note_on", "time": 20, "note": 55, "velocity": 92, "channel": 0}, {"type": "note_off", "time": 84, "note": 55, "velocity": 92, "channel": 0}, {"type": "note_on", "time": 1, "note": 60, "velocity": 97, "channel": 0}, {"type": "note_off", "time": 123, "note": 60, "velocity": 97, "channel": 0}, {"type": "note_on", "time": 1, "note": 58, "velocity": 106, "channel": 0}, {"type": "note_off", "time": 78, "note": 58, "velocity": 106, "channel": 0}, {"type": "note_on", "time": 4, "note": 54, "velocity": 101, "channel": 0}, {"type": "note_off", "time": 91, "note": 54, "velocity": 101, "channel": 0}, {"type": "note_on", "time": 6, "note": 55, "velocity": 108, "channel": 0}, {"type": "note_off", "time": 81, "note": 55, "velocity": 108, "channel": 0}, {"type": "note_on", "time": 5, "note": 58, "velocity": 104, "channel": 0}, {"type": "note_off", "time": 105, "note": 58, "velocity": 104, "channel": 0}, {"type": "note_on", "time": 10, "note": 57, "velocity": 95, "channel": 0}, {"type": "note_off", "time": 75, "note": 57, "velocity": 95, "channel": 0}, {"type": "note_on", "time": 12, "note": 60, "velocity": 93, "channel": 0}, {"type": "note_off", "time": 77, "note": 60, "velocity": 93, "channel": 0}, {"type": "note_on", "time": 9, "note": 58, "velocity": 101, "channel": 0}, {"type": "note_off", "time": 57, "note": 58, "velocity": 101, "channel": 0}, {"type": "note_on", "time": 45, "note": 63, "velocity": 116, "channel": 0}, {"type": "note_off", "time": 67, "note": 63, "velocity": 116, "channel": 0}, {"type": "note_on", "time": 39, "note": 63, "velocity": 102, "channel": 0}, {"type": "note_off", "time": 168, "note": 63, "velocity": 102, "channel": 0}, {"type": "note_on", "time": 24, "note": 58, "velocity": 114, "channel": 0}, {"type": "note_off", "time": 47, "note": 58, "velocity": 114, "channel": 0}, {"type": "note_on", "time": 22, "note": 60, "velocity": 106, "channel": 0}, {"type": "note_off", "time": 72, "note": 60, "velocity": 106, "channel": 0}, {"type": "note_on", "time": 48, "note": 58, "velocity": 104, "channel": 0}, {"type": "note_off", "time": 46, "note": 58, "velocity": 104, "channel": 0}, {"type": "note_on", "time": 20, "note": 54, "velocity": 100, "channel": 0}, {"type": "note_off", "time": 75, "note": 54, "velocity": 100, "channel": 0}, {"type": "note_on", "time": 32, "note": 55, "velocity": 95, "channel": 0}, {"type": "note_off", "time": 43, "note": 55, "velocity": 95, "channel": 0}, {"type": "note_on", "time": 240, "note": 63, "velocity": 111, "channel": 0}, {"type": "note_off", "time": 80, "note": 63, "velocity": 111, "channel": 0}, {"type": "note_on", "time": 21, "note": 58, "velocity": 112, "channel": 0}, {"type": "note_off", "time": 70, "note": 58, "velocity": 112, "channel": 0}, {"type": "note_on", "time": 17, "note": 63, "velocity": 116, "channel": 0}, {"type": "note_off", "time": 76, "note": 63, "velocity": 116, "channel": 0}, {"type": "note_on", "time": 35, "note": 55, "velocity": 107, "channel": 0}, {"type": "note_off", "time": 80, "note": 55, "velocity": 107, "channel": 0}, {"type": "note_on", "time": 11, "note": 58, "velocity": 109, "channel": 0}, {"type": "note_off", "time": 67, "note": 58, "velocity": 109, "channel": 0}, {"type": "note_on", "time": 15, "note": 51, "velocity": 101, "channel": 0}, {"type": "note_off", "time": 75, "note": 51, "velocity": 101, "channel": 0}, {"type": "note_on", "time": 10, "note": 53, "velocity": 120, "channel": 0}, {"type": "note_off", "time": 96, "note": 53, "velocity": 120, "channel": 0}, {"type": "note_on", "time": 10, "note": 54, "velocity": 109, "channel": 0}, {"type": "note_off", "time": 97, "note": 54, "velocity": 109, "channel": 0}, {"type": "note_on", "time": 8, "note": 55, "velocity": 109, "channel": 0}, {"type": "note_off", "time": 80, "note": 55, "velocity": 109, "channel": 0}, {"type": "note_on", "time": 7, "note": 58, "velocity": 123, "channel": 0}, {"type": "note_off", "time": 85, "note": 58, "velocity": 123, "channel": 0}, {"type": "note_on", "time": 12, "note": 57, "velocity": 116, "channel": 0}, {"type": "note_off", "time": 89, "note": 57, "velocity": 116, "channel": 0}, {"type": "note_on", "time": 17, "note": 58, "velocity": 108, "channel": 0}, {"type": "note_off", "time": 65, "note": 58, "velocity": 108, "channel": 0}, {"type": "note_on", "time": 14, "note": 60, "velocity": 92, "channel": 0}, {"type": "note_off", "time": 63, "note": 60, "velocity": 92, "channel": 0}, {"type": "note_on", "time": 13, "note": 58, "velocity": 101, "channel": 0}, {"type": "note_off", "time": 78, "note": 58, "velocity": 101, "channel": 0}, {"type": "note_on", "time": 48, "note": 62, "velocity": 110, "channel": 0}, {"type": "note_off", "time": 89, "note": 62, "velocity": 110, "channel": 0}, {"type": "note_on", "time": 15, "note": 61, "velocity": 106, "channel": 0}, {"type": "note_off", "time": 65, "note": 61, "velocity": 106, "channel": 0}, {"type": "note_on", "time": 13, "note": 62, "velocity": 102, "channel": 0}, {"type": "note_off", "time": 97, "note": 62, "velocity": 102, "channel": 0}, {"type": "note_on", "time": 11, "note": 61, "velocity": 109, "channel": 0}, {"type": "note_off", "time": 61, "note": 61, "velocity": 109, "channel": 0}, {"type": "note_on", "time": 11, "note": 60, "velocity": 98, "channel": 0}, {"type": "note_off", "time": 89, "note": 60, "velocity": 98, "channel": 0}, {"type": "note_on", "time": 7, "note": 58, "velocity": 102, "channel": 0}, {"type": "note_off", "time": 97, "note": 58, "velocity": 102, "channel": 0}, {"type": "note_on", "time": 8, "note": 57, "velocity": 98, "channel": 0}, {"type": "note_off", "time": 99, "note": 57, "velocity": 98, "channel": 0}, {"type": "note_on", "time": 13, "note": 58, "velocity": 102, "channel": 0}, {"type": "note_off", "time": 55, "note": 58, "velocity": 102, "channel": 0}, {"type": "note_on", "time": 7, "note": 56, "velocity": 110, "channel": 0}, {"type": "note_off", "time": 90, "note": 56, "velocity": 110, "channel": 0}, {"type": "note_on", "time": 21, "note": 58, "velocity": 106, "channel": 0}, {"type": "note_off", "time": 72, "note": 58, "velocity": 106, "channel": 0}, {"type": "note_on", "time": 12, "note": 55, "velocity": 99, "channel": 0}, {"type": "note_off", "time": 97, "note": 55, "velocity": 99, "channel": 0}, {"type": "note_on", "time": 13, "note": 56, "velocity": 117, "channel": 0}, {"type": "note_off", "time": 63, "note": 56, "velocity": 117, "channel": 0}, {"type": "note_on", "time": 8, "note": 53, "velocity": 109, "channel": 0}, {"type": "note_off", "time": 100, "note": 53, "velocity": 109, "channel": 0}, {"type": "note_on", "time": 6, "note": 56, "velocity": 91, "channel": 0}, {"type": "note_off", "time": 108, "note": 56, "velocity": 91, "channel": 0}, {"type": "note_on", "time": 3, "note": 50, "velocity": 125, "channel": 0}, {"type": "note_off", "time": 104, "note": 50, "velocity": 125, "channel": 0}, {"type": "note_on", "time": 273, "note": 50, "velocity": 127, "channel": 0}, {"type": "note_off", "time": 85, "note": 50, "velocity": 127, "channel": 0}, {"type": "note_on", "time": 35, "note": 53, "velocity": 114, "channel": 0}, {"type": "note_off", "time": 67, "note": 53, "velocity": 114, "channel": 0}, {"type": "note_on", "time": 8, "note": 56, "velocity": 111, "channel": 0}, {"type": "note_off", "time": 75, "note": 56, "velocity": 111, "channel": 0}, {"type": "note_on", "time": 29, "note": 50, "velocity": 124, "channel": 0}, {"type": "note_off", "time": 75, "note": 50, "velocity": 124, "channel": 0}, {"type": "note_on", "time": 13, "note": 53, "velocity": 109, "channel": 0}, {"type": "note_off", "time": 66, "note": 53, "velocity": 109, "channel": 0}, {"type": "note_on", "time": 47, "note": 56, "velocity": 98, "channel": 0}, {"type": "note_off", "time": 62, "note": 56, "velocity": 98, "channel": 0}, {"type": "note_on", "time": 3, "note": 58, "velocity": 113, "channel": 0}, {"type": "note_off", "time": 120, "note": 58, "velocity": 113, "channel": 0}, {"type": "note_on", "time": 6, "note": 57, "velocity": 107, "channel": 0}, {"type": "note_off", "time": 63, "note": 57, "velocity": 107, "channel": 0}, {"type": "note_on", "time": 23, "note": 60, "velocity": 98, "channel": 0}, {"type": "note_off", "time": 55, "note": 60, "velocity": 98, "channel": 0}, {"type": "note_on", "time": 45, "note": 62, "velocity": 108, "channel": 0}, {"type": "note_off", "time": 68, "note": 62, "velocity": 108, "channel": 0}, {"type": "note_on", "time": 28, "note": 62, "velocity": 100, "channel": 0}, {"type": "note_off", "time": 72, "note": 62, "velocity": 100, "channel": 0}, {"type": "note_on", "time": 21, "note": 60, "velocity": 97, "channel": 0}, {"type": "note_off", "time": 51, "note": 60, "velocity": 97, "channel": 0}, {"type": "note_on", "time": 12, "note": 58, "velocity": 107, "channel": 0}, {"type": "note_off", "time": 73, "note": 58, "velocity": 107, "channel": 0}, {"type": "note_on", "time": 26, "note": 56, "velocity": 100, "channel": 0}, {"type": "note_off", "time": 288, "note": 56, "velocity": 100, "channel": 0}, {"type": "note_on", "time": 14, "note": 51, "velocity": 111, "channel": 0}, {"type": "note_off", "time": 60, "note": 51, "velocity": 111, "channel": 0}, {"type": "note_on", "time": 5, "note": 50, "velocity": 121, "channel": 0}, {"type": "note_off", "time": 87, "note": 50, "velocity": 121, "channel": 0}, {"type": "note_on", "time": 1, "note": 51, "velocity": 117, "channel": 0}, {"type": "note_off", "time": 45, "note": 51, "velocity": 117, "channel": 0}, {"type": "note_on", "time": 0, "note": 55, "velocity": 109, "channel": 0}, {"type": "note_off", "time": 61, "note": 55, "velocity": 109, "channel": 0}, {"type": "note_on", "time": 3, "note": 51, "velocity": 108, "channel": 0}, {"type": "note_off", "time": 61, "note": 51, "velocity": 108, "channel": 0}, {"type": "note_on", "time": 12, "note": 55, "velocity": 101, "channel": 0}, {"type": "note_off", "time": 53, "note": 55, "velocity": 101, "channel": 0}, {"type": "note_on", "time": 8, "note": 58, "velocity": 108, "channel": 0}, {"type": "note_off", "time": 52, "note": 58, "velocity": 108, "channel": 0}, {"type": "note_on", "time": 10, "note": 57, "velocity": 100, "channel": 0}, {"type": "note_off", "time": 47, "note": 57, "velocity": 100, "channel": 0}, {"type": "note_on", "time": 13, "note": 58, "velocity": 102, "channel": 0}, {"type": "note_off", "time": 55, "note": 58, "velocity": 102, "channel": 0}, {"type": "note_on", "time": 5, "note": 60, "velocity": 101, "channel": 0}, {"type": "note_off", "time": 63, "note": 60, "velocity": 101, "channel": 0}, {"type": "note_on", "time": 5, "note": 57, "velocity": 103, "channel": 0}, {"type": "note_off", "time": 63, "note": 57, "velocity": 103, "channel": 0}, {"type": "note_on", "time": 2, "note": 58, "velocity": 104, "channel": 0}, {"type": "note_off", "time": 45, "note": 58, "velocity": 104, "channel": 0}, {"type": "note_on", "time": 9, "note": 63, "velocity": 103, "channel": 0}, {"type": "note_off", "time": 51, "note": 63, "velocity": 103, "channel": 0}, {"type": "note_on", "time": 28, "note": 58, "velocity": 115, "channel": 0}, {"type": "note_off", "time": 60, "note": 58, "velocity": 115, "channel": 0}, {"type": "note_on", "time": 25, "note": 60, "velocity": 101, "channel": 0}, {"type": "note_off", "time": 76, "note": 60, "velocity": 101, "channel": 0}, {"type": "note_on", "time": 31, "note": 58, "velocity": 102, "channel": 0}, {"type": "note_off", "time": 56, "note": 58, "velocity": 102, "channel": 0}, {"type": "note_on", "time": 26, "note": 55, "velocity": 104, "channel": 0}, {"type": "note_off", "time": 75, "note": 55, "velocity": 104, "channel": 0}, {"type": "note_on", "time": 27, "note": 54, "velocity": 95, "channel": 0}, {"type": "note_off", "time": 65, "note": 54, "velocity": 95, "channel": 0}, {"type": "note_on", "time": 9, "note": 53, "velocity": 121, "channel": 0}, {"type": "note_off", "time": 102, "note": 53, "velocity": 121, "channel": 0}, {"type": "note_on", "time": 228, "note": 53, "velocity": 124, "channel": 0}, {"type": "note_off", "time": 60, "note": 53, "velocity": 124, "channel": 0}, {"type": "note_on", "time": 24, "note": 53, "velocity": 111, "channel": 0}, {"type": "note_off", "time": 76, "note": 53, "velocity": 111, "channel": 0}, {"type": "note_on", "time": 22, "note": 57, "velocity": 105, "channel": 0}, {"type": "note_off", "time": 63, "note": 57, "velocity": 105, "channel": 0}, {"type": "note_on", "time": 19, "note": 60, "velocity": 100, "channel": 0}, {"type": "note_off", "time": 56, "note": 60, "velocity": 100, "channel": 0}, {"type": "note_on", "time": 30, "note": 53, "velocity": 104, "channel": 0}, {"type": "note_off", "time": 60, "note": 53, "velocity": 104, "channel": 0}, {"type": "note_on", "time": 15, "note": 57, "velocity": 115, "channel": 0}, {"type": "note_off", "time": 90, "note": 57, "velocity": 115, "channel": 0}, {"type": "note_on", "time": 37, "note": 60, "velocity": 110, "channel": 0}, {"type": "note_off", "time": 69, "note": 60, "velocity": 110, "channel": 0}, {"type": "note_on", "time": 8, "note": 63, "velocity": 112, "channel": 0}, {"type": "note_off", "time": 74, "note": 63, "velocity": 112, "channel": 0}, {"type": "note_on", "time": 14, "note": 60, "velocity": 109, "channel": 0}, {"type": "note_off", "time": 75, "note": 60, "velocity": 109, "channel": 0}, {"type": "note_on", "time": 38, "note": 63, "velocity": 114, "channel": 0}, {"type": "note_off", "time": 82, "note": 63, "velocity": 114, "channel": 0}, {"type": "note_on", "time": 23, "note": 60, "velocity": 103, "channel": 0}, {"type": "note_off", "time": 48, "note": 60, "velocity": 103, "channel": 0}, {"type": "note_on", "time": 227, "note": 61, "velocity": 110, "channel": 0}, {"type": "note_off", "time": 87, "note": 61, "velocity": 110, "channel": 0}, {"type": "note_on", "time": 9, "note": 62, "velocity": 95, "channel": 0}, {"type": "note_off", "time": 83, "note": 62, "velocity": 95, "channel": 0}, {"type": "note_on", "time": 17, "note": 61, "velocity": 102, "channel": 0}, {"type": "note_off", "time": 90, "note": 61, "velocity": 102, "channel": 0}, {"type": "note_on", "time": 6, "note": 62, "velocity": 90, "channel": 0}, {"type": "note_off", "time": 77, "note": 62, "velocity": 90, "channel": 0}, {"type": "note_on", "time": 14, "note": 58, "velocity": 105, "channel": 0}, {"type": "note_off", "time": 107, "note": 58, "velocity": 105, "channel": 0}, {"type": "note_on", "time": 8, "note": 60, "velocity": 94, "channel": 0}, {"type": "note_off", "time": 171, "note": 60, "velocity": 94, "channel": 0}, {"type": "note_on", "time": 8, "note": 53, "velocity": 98, "channel": 0}, {"type": "note_off", "time": 95, "note": 53, "velocity": 98, "channel": 0}, {"type": "note_on", "time": 8, "note": 56, "velocity": 97, "channel": 0}, {"type": "note_off", "time": 154, "note": 56, "velocity": 97, "channel": 0}, {"type": "note_on", "time": 22, "note": 49, "velocity": 121, "channel": 0}, {"type": "note_off", "time": 109, "note": 49, "velocity": 121, "channel": 0}, {"type": "note_on", "time": 10, "note": 58, "velocity": 97, "channel": 0}, {"type": "note_off", "time": 168, "note": 58, "velocity": 97, "channel": 0}, {"type": "note_on", "time": 17, "note": 56, "velocity": 95, "channel": 0}, {"type": "note_off", "time": 62, "note": 56, "velocity": 95, "channel": 0}, {"type": "note_on", "time": 7, "note": 53, "velocity": 96, "channel": 0}, {"type": "note_off", "time": 111, "note": 53, "velocity": 96, "channel": 0}, {"type": "note_on", "time": 3, "note": 54, "velocity": 90, "channel": 0}, {"type": "note_off", "time": 63, "note": 54, "velocity": 90, "channel": 0}, {"type": "note_on", "time": 4, "note": 55, "velocity": 109, "channel": 0}, {"type": "note_off", "time": 107, "note": 55, "velocity": 109, "channel": 0}, {"type": "end_of_track", "time": 0}]]}