{"ticks_per_beat": 420, "tracks": [[{"type": "track_name", "name": "Melody", "time": 0}, {"type": "set_tempo", "tempo": 526315, "time": 0}, {"type": "key_signature", "key": "C", "time": 0}, {"type": "time_signature", "numerator": 4, "denominator": 4, "clocks_per_click": 24, "notated_32nd_notes_per_beat": 8, "time": 0}, {"type": "note_on", "time": 5843, "note": 55, "velocity": 117, "channel": 0}, {"type": "note_off", "time": 117, "note": 55, "velocity": 117, "channel": 0}, {"type": "note_on", "time": 58, "note": 62, "velocity": 109, "channel": 0}, {"type": "note_off", "time": 188, "note": 62, "velocity": 109, "channel": 0}, {"type": "note_on", "time": 11, "note": 64, "velocity": 100, "channel": 0}, {"type": "note_off", "time": 149, "note": 64, "velocity": 100, "channel": 0}, {"type": "note_on", "time": 50, "note": 55, "velocity": 107, "channel": 0}, {"type": "note_off", "time": 250, "note": 55, "velocity": 107, "channel": 0}, {"type": "note_on", "time": 25, "note": 57, "velocity": 118, "channel": 0}, {"type": "note_off", "time": 111, "note": 57, "velocity": 118, "channel": 0}, {"type": "note_on", "time": 39, "note": 60, "velocity": 115, "channel": 0}, {"type": "note_off", "time": 242, "note": 60, "velocity": 115, "channel": 0}, {"type": "note_on", "time": 33, "note": 62, "velocity": 111, "channel": 0}, {"type": "note_off", "time": 151, "note": 62, "velocity": 111, "channel": 0}, {"type": "note_on", "time": 5, "note": 63, "velocity": 103, "channel": 0}, {"type": "note_off", "time": 84, "note": 63, "velocity": 103, "channel": 0}, {"type": "note_on", "time": 140, "note": 62, "velocity": 98, "channel": 0}, {"type": "note_off", "time": 335, "note": 62, "velocity": 98, "channel": 0}, {"type": "note_on", "time": 1539, "note": 68, "velocity": 124, "channel": 0}, {"type": "note_off", "time": 167, "note": 68, "velocity": 124, "channel": 0}, {"type": "note_on", "time": 3, "note": 69, "velocity": 120, "channel": 0}, {"type": "note_off", "time": 105, "note": 69, "velocity": 120, "channel": 0}, {"type": "note_on", "time": 150, "note": 68, "velocity": 119, "channel": 0}, {"type": "note_off", "time": 147, "note": 68, "velocity": 119, "channel": 0}, {"type": "note_on", "time": 10, "note": 69, "velocity": 108, "channel": 0}, {"type": "note_off", "time": 122, "note": 69, "velocity": 108, "channel": 0}, {"type": "note_on", "time": 128, "note": 68, "velocity": 114, "channel": 0}, {"type": "note_off", "time": 174, "note": 68, "velocity": 114, "channel": 0}, {"type": "note_on", "time": 5, "note": 69, "velocity": 103, "channel": 0}, {"type": "note_off", "time": 97, "note": 69, "velocity": 103, "channel": 0}, {"type": "note_on", "time": 193, "note": 69, "velocity": 104, "channel": 0}, {"type": "note_off", "time": 192, "note": 69, "velocity": 104, "channel": 0}, {"type": "note_on", "time": 74, "note": 63, "velocity": 115, "channel": 0}, {"type": "note_off", "time": 106, "note": 63, "velocity": 115, "channel": 0}, {"type": "note_on", "time": 47, "note": 60, "velocity": 109, "channel": 0}, {"type": "note_off", "time": 179, "note": 60, "velocity": 109, "channel": 0}, {"type": "note_on", "time": 82, "note": 62, "velocity": 96, "channel": 0}, {"type": "note_off", "time": 508, "note": 62, "velocity": 96, "channel": 0}, {"type": "note_on", "time": 22, "note": 60, "velocity": 106, "channel": 0}, {"type": "note_off", "time": 268, "note": 60, "velocity": 106, "channel": 0}, {"type": "note_on", "time": 38, "note": 57, "velocity": 97, "channel": 0}, {"type": "note_off", "time": 81, "note": 57, "velocity": 97, "channel": 0}, {"type": "note_on", "time": 53, "note": 62, "velocity": 112, "channel": 0}, {"type": "note_off", "time": 157, "note": 62, "velocity": 112, "channel": 0}, {"type": "note_on", "time": 2, "note": 64, "velocity": 97, "channel": 0}, {"type": "note_off", "time": 92, "note": 64, "velocity": 97, "channel": 0}, {"type": "note_on", "time": 18, "note": 60, "velocity": 104, "channel": 0}, {"type": "note_off", "time": 109, "note": 60, "velocity": 104, "channel": 0}, {"type": "note_on", "time": 21, "note": 62, "velocity": 95, "channel": 0}, {"type": "note_off", "time": 333, "note": 62, "velocity": 95, "channel": 0}, {"type": "note_on", "time": 524, "note": 72, "velocity": 104, "channel": 0}, {"type": "note_off", "time": 192, "note": 72, "velocity": 104, "channel": 0}, {"type": "note_on", "time": 8, "note": 69, "velocity": 113, "channel": 0}, {"type": "note_off", "time": 63, "note": 69, "velocity": 113, "channel": 0}, {"type": "note_on", "time": 9, "note": 65, "velocity": 108, "channel": 0}, {"type": "note_off", "time": 57, "note": 65, "velocity": 108, "channel": 0}, {"type": "note_on", "time": 10, "note": 62, "velocity": 110, "channel": 0}, {"type": "note_off", "time": 113, "note": 62, "velocity": 110, "channel": 0}, {"type": "note_on", "time": 4, "note": 63, "velocity": 105, "channel": 0}, {"type": "note_off", "time": 131, "note": 63, "velocity": 105, "channel": 0}, {"type": "note_on", "time": 58, "note": 60, "velocity": 99, "channel": 0}, {"type": "note_off", "time": 367, "note": 60, "velocity": 99, "channel": 0}, {"type": "note_on", "time": 710, "note": 72, "velocity": 107, "channel": 0}, {"type": "note_off", "time": 213, "note": 72, "velocity": 107, "channel": 0}, {"type": "note_on", "time": 13, "note": 67, "velocity": 108, "channel": 0}, {"type": "note_off", "time": 29, "note": 67, "velocity": 108, "channel": 0}, {"type": "note_on", "time": 5, "note": 65, "velocity": 113, "channel": 0}, {"type": "note_off", "time": 60, "note": 65, "velocity": 113, "channel": 0}, {"type": "note_on", "time": 23, "note": 63, "velocity": 106, "channel": 0}, {"type": "note_off", "time": 135, "note": 63, "velocity": 106, "channel": 0}, {"type": "note_on", "time": 7, "note": 64, "velocity": 102, "channel": 0}, {"type": "note_off", "time": 122, "note": 64, "velocity": 102, "channel": 0}, {"type": "note_on", "time": 39, "note": 60, "velocity": 115, "channel": 0}, {"type": "note_off", "time": 97, "note": 60, "velocity": 115, "channel": 0}, {"type": "note_on", "time": 48, "note": 55, "velocity": 103, "channel": 0}, {"type": "note_off", "time": 242, "note": 55, "velocity": 103, "channel": 0}, {"type": "note_on", "time": 26, "note": 55, "velocity": 109, "channel": 0}, {"type": "note_off", "time": 94, "note": 55, "velocity": 109, "channel": 0}, {"type": "note_on", "time": 51, "note": 57, "velocity": 102, "channel": 0}, {"type": "note_off", "time": 239, "note": 57, "velocity": 102, "channel": 0}, {"type": "note_on", "time": 12, "note": 60, "velocity": 117, "channel": 0}, {"type": "note_off", "time": 145, "note": 60, "velocity": 117, "channel": 0}, {"type": "note_on", "time": 17, "note": 60, "velocity": 111, "channel": 0}, {"type": "note_off", "time": 91, "note": 60, "velocity": 111, "channel": 0}, {"type": "note_on", "time": 39, "note": 62, "velocity": 114, "channel": 0}, {"type": "note_off", "time": 59, "note": 62, "velocity": 114, "channel": 0}, {"type": "note_on", "time": 35, "note": 57, "velocity": 101, "channel": 0}, {"type": "note_off", "time": 136, "note": 57, "velocity": 101, "channel": 0}, {"type": "note_on", "time": 23, "note": 60, "velocity": 93, "channel": 0}, {"type": "note_off", "time": 283, "note": 60, "velocity": 93, "channel": 0}, {"type": "note_on", "time": 983, "note": 68, "velocity": 119, "channel": 0}, {"type": "note_off", "time": 89, "note": 68, "velocity": 119, "channel": 0}, {"type": "note_on", "time": 1, "note": 69, "velocity": 112, "channel": 0}, {"type": "note_off", "time": 325, "note": 69, "velocity": 112, "channel": 0}, {"type": "note_on", "time": 14, "note": 70, "velocity": 102, "channel": 0}, {"type": "note_off", "time": 364, "note": 70, "velocity": 102, "channel": 0}, {"type": "note_on", "time": 84, "note": 69, "velocity": 111, "channel": 0}, {"type": "note_off", "time": 224, "note": 69, "velocity": 111, "channel": 0}, {"type": "note_on", "time": 52, "note": 64, "velocity": 93, "channel": 0}, {"type": "note_off", "time": 74, "note": 64, "velocity": 93, "channel": 0}, {"type": "note_on", "time": 51, "note": 67, "velocity": 99, "channel": 0}, {"type": "note_off", "time": 223, "note": 67, "velocity": 99, "channel": 0}, {"type": "note_on", "time": 26, "note": 67, "velocity": 102, "channel": 0}, {"type": "note_off", "time": 113, "note": 67, "velocity": 102, "channel": 0}, {"type": "note_on", "time": 42, "note": 69, "velocity": 96, "channel": 0}, {"type": "note_off", "time": 266, "note": 69, "velocity": 96, "channel": 0}, {"type": "note_on", "time": 148, "note": 62, "velocity": 116, "channel": 0}, {"type": "note_off", "time": 85, "note": 62, "velocity": 116, "channel": 0}, {"type": "note_on", "time": 6, "note": 63, "velocity": 108, "channel": 0}, {"type": "note_off", "time": 162, "note": 63, "velocity": 108, "channel": 0}, {"type": "note_on", "time": 58, "note": 60, "velocity": 98, "channel": 0}, {"type": "note_off", "time": 99, "note": 60, "velocity": 98, "channel": 0}, {"type": "note_on", "time": 10, "note": 62, "velocity": 93, "channel": 0}, {"type": "note_off", "time": 354, "note": 62, "velocity": 93, "channel": 0}, {"type": "note_on", "time": 746, "note": 67, "velocity": 123, "channel": 0}, {"type": "note_off", "time": 111, "note": 67, "velocity": 123, "channel": 0}, {"type": "note_on", "time": 37, "note": 69, "velocity": 124, "channel": 0}, {"type": "note_off", "time": 64, "note": 69, "velocity": 124, "channel": 0}, {"type": "note_on", "time": 10, "note": 70, "velocity": 113, "channel": 0}, {"type": "note_off", "time": 81, "note": 70, "velocity": 113, "channel": 0}, {"type": "note_on", "time": 8, "note": 72, "velocity": 109, "channel": 0}, {"type": "note_off", "time": 74, "note": 72, "velocity": 109, "channel": 0}, {"type": "note_on", "time": 7, "note": 70, "velocity": 96, "channel": 0}, {"type": "note_off", "time": 31, "note": 70, "velocity": 96, "channel": 0}, {"type": "note_on", "time": 5, "note": 67, "velocity": 104, "channel": 0}, {"type": "note_off", "time": 94, "note": 67, "velocity": 104, "channel": 0}, {"type": "note_on", "time": 37, "note": 69, "velocity": 93, "channel": 0}, {"type": "note_off", "time": 421, "note": 69, "velocity": 93, "channel": 0}, {"type": "note_on", "time": 281, "note": 67, "velocity": 118, "channel": 0}, {"type": "note_off", "time": 93, "note": 67, "velocity": 118, "channel": 0}, {"type": "note_on", "time": 45, "note": 72, "velocity": 102, "channel": 0}, {"type": "note_off", "time": 109, "note": 72, "velocity": 102, "channel": 0}, {"type": "note_on", "time": 15, "note": 69, "velocity": 102, "channel": 0}, {"type": "note_off", "time": 104, "note": 69, "velocity": 102, "channel": 0}, {"type": "note_on", "time": 27, "note": 63, "velocity": 107, "channel": 0}, {"type": "note_off", "time": 132, "note": 63, "velocity": 107, "channel": 0}, {"type": "note_on", "time": 12, "note": 60, "velocity": 101, "channel": 0}, {"type": "note_off", "time": 138, "note": 60, "velocity": 101, "channel": 0}, {"type": "note_on", "time": 26, "note": 62, "velocity": 109, "channel": 0}, {"type": "note_off", "time": 92, "note": 62, "velocity": 109, "channel": 0}, {"type": "note_on", "time": 34, "note": 60, "velocity": 107, "channel": 0}, {"type": "note_off", "time": 99, "note": 60, "velocity": 107, "channel": 0}, {"type": "note_on", "time": 12, "note": 62, "velocity": 93, "channel": 0}, {"type": "note_off", "time": 379, "note": 62, "velocity": 93, "channel": 0}, {"type": "note_on", "time": 511, "note": 55, "velocity": 110, "channel": 0}, {"type": "note_off", "time": 218, "note": 55, "velocity": 110, "channel": 0}, {"type": "note_on", "time": 43, "note": 57, "velocity": 112, "channel": 0}, {"type": "note_off", "time": 127, "note": 57, "velocity": 112, "channel": 0}, {"type": "note_on", "time": 23, "note": 60, "velocity": 111, "channel": 0}, {"type": "note_off", "time": 185, "note": 60, "velocity": 111, "channel": 0}, {"type": "note_on", "time": 93, "note": 62, "velocity": 116, "channel": 0}, {"type": "note_off", "time": 135, "note": 62, "velocity": 116, "channel": 0}, {"type": "note_on", "time": 9, "note": 63, "velocity": 110, "channel": 0}, {"type": "note_off", "time": 111, "note": 63, "velocity": 110, "channel": 0}, {"type": "note_on", "time": 704, "note": 55, "velocity": 105, "channel": 0}, {"type": "note_off", "time": 222, "note": 55, "velocity": 105, "channel": 0}, {"type": "note_on", "time": 29, "note": 57, "velocity": 111, "channel": 0}, {"type": "note_off", "time": 118, "note": 57, "velocity": 111, "channel": 0}, {"type": "note_on", "time": 40, "note": 60, "velocity": 113, "channel": 0}, {"type": "note_off", "time": 232, "note": 60, "velocity": 113, "channel": 0}, {"type": "note_on", "time": 12, "note": 69, "velocity": 114, "channel": 0}, {"type": "note_off", "time": 145, "note": 69, "velocity": 114, "channel": 0}, {"type": "note_on", "time": 26, "note": 63, "velocity": 110, "channel": 0}, {"type": "note_off", "time": 207, "note": 63, "velocity": 110, "channel": 0}, {"type": "note_on", "time": 638, "note": 60, "velocity": 114, "channel": 0}, {"type": "note_off", "time": 189, "note": 60, "velocity": 114, "channel": 0}, {"type": "note_on", "time": 62, "note": 62, "velocity": 110, "channel": 0}, {"type": "note_off", "time": 208, "note": 62, "velocity": 110, "channel": 0}, {"type": "note_on", "time": 4, "note": 64, "velocity": 103, "channel": 0}, {"type": "note_off", "time": 335, "note": 64, "velocity": 103, "channel": 0}, {"type": "note_on", "time": 41, "note": 67, "velocity": 94, "channel": 0}, {"type": "note_off", "time": 236, "note": 67, "velocity": 94, "channel": 0}, {"type": "note_on", "time": 66, "note": 64, "velocity": 87, "channel": 0}, {"type": "note_off", "time": 57, "note": 64, "velocity": 87, "channel": 0}, {"type": "note_on", "time": 25, "note": 67, "velocity": 92, "channel": 0}, {"type": "note_off", "time": 398, "note": 67, "velocity": 92, "channel": 0}, {"type": "note_on", "time": 16, "note": 69, "velocity": 96, "channel": 0}, {"type": "note_off", "time": 155, "note": 69, "velocity": 96, "channel": 0}, {"type": "note_on", "time": 153, "note": 60, "velocity": 96, "channel": 0}, {"type": "note_off", "time": 345, "note": 60, "velocity": 96, "channel": 0}, {"type": "note_on", "time": 1025, "note": 67, "velocity": 121, "channel": 0}, {"type": "note_off", "time": 176, "note": 67, "velocity": 121, "channel": 0}, {"type": "note_on", "time": 4, "note": 68, "velocity": 113, "channel": 0}, {"type": "note_off", "time": 85, "note": 68, "velocity": 113, "channel": 0}, {"type": "note_on", "time": 151, "note": 68, "velocity": 122, "channel": 0}, {"type": "note_off", "time": 109, "note": 68, "velocity": 122, "channel": 0}, {"type": "note_on", "time": 8, "note": 69, "velocity": 117, "channel": 0}, {"type": "note_off", "time": 123, "note": 69, "velocity": 117, "channel": 0}, {"type": "note_on", "time": 34, "note": 72, "velocity": 111, "channel": 0}, {"type": "note_off", "time": 109, "note": 72, "velocity": 111, "channel": 0}, {"type": "note_on", "time": 41, "note": 60, "velocity": 101, "channel": 0}, {"type": "note_off", "time": 246, "note": 60, "velocity": 101, "channel": 0}, {"type": "note_on", "time": 28, "note": 61, "velocity": 96, "channel": 0}, {"type": "note_off", "time": 116, "note": 61, "velocity": 96, "channel": 0}, {"type": "note_on", "time": 22, "note": 62, "velocity": 94, "channel": 0}, {"type": "note_off", "time": 315, "note": 62, "velocity": 94, "channel": 0}, {"type": "note_on", "time": 117, "note": 68, "velocity": 103, "channel": 0}, {"type": "note_off", "time": 121, "note": 68, "velocity": 103, "channel": 0}, {"type": "note_on", "time": 9, "note": 69, "velocity": 97, "channel": 0}, {"type": "note_off", "time": 114, "note": 69, "velocity": 97, "channel": 0}, {"type": "note_on", "time": 158, "note": 68, "velocity": 101, "channel": 0}, {"type": "note_off", "time": 197, "note": 68, "velocity": 101, "channel": 0}, {"type": "note_on", "time": 7, "note": 69, "velocity": 102, "channel": 0}, {"type": "note_off", "time": 154, "note": 69, "velocity": 102, "channel": 0}, {"type": "note_on", "time": 66, "note": 72, "velocity": 89, "channel": 0}, {"type": "note_off", "time": 164, "note": 72, "velocity": 89, "channel": 0}, {"type": "note_on", "time": 11, "note": 69, "velocity": 96, "channel": 0}, {"type": "note_off", "time": 50, "note": 69, "velocity": 96, "channel": 0}, {"type": "note_on", "time": 10, "note": 67, "velocity": 100, "channel": 0}, {"type": "note_off", "time": 103, "note": 67, "velocity": 100, "channel": 0}, {"type": "note_on", "time": 35, "note": 68, "velocity": 92, "channel": 0}, {"type": "note_off", "time": 377, "note": 68, "velocity": 92, "channel": 0}, {"type": "note_on", "time": 76, "note": 70, "velocity": 94, "channel": 0}, {"type": "note_off", "time": 97, "note": 70, "velocity": 94, "channel": 0}, {"type": "note_on", "time": 24, "note": 72, "velocity": 91, "channel": 0}, {"type": "note_off", "time": 61, "note": 72, "velocity": 91, "channel": 0}, {"type": "note_on", "time": 16, "note": 70, "velocity": 92, "channel": 0}, {"type": "note_off", "time": 76, "note": 70, "velocity": 92, "channel": 0}, {"type": "note_on", "time": 5, "note": 68, "velocity": 102, "channel": 0}, {"type": "note_off", "time": 85, "note": 68, "velocity": 102, "channel": 0}, {"type": "note_on", "time": 31, "note": 69, "velocity": 90, "channel": 0}, {"type": "note_off", "time": 391, "note": 69, "velocity": 90, "channel": 0}, {"type": "note_on", "time": 22, "note": 62, "velocity": 90, "channel": 0}, {"type": "note_off", "time": 379, "note": 62, "velocity": 90, "channel": 0}, {"type": "note_on", "time": 443, "note": 67, "velocity": 115, "channel": 0}, {"type": "note_off", "time": 70, "note": 67, "velocity": 115, "channel": 0}, {"type": "note_on", "time": 6, "note": 69, "velocity": 118, "channel": 0}, {"type": "note_off", "time": 45, "note": 69, "velocity": 118, "channel": 0}, {"type": "note_on", "time": 29, "note": 74, "velocity": 90, "channel": 0}, {"type": "note_off", "time": 93, "note": 74, "velocity": 90, "channel": 0}, {"type": "note_on", "time": 11, "note": 69, "velocity": 105, "channel": 0}, {"type": "note_off", "time": 122, "note": 69, "velocity": 105, "channel": 0}, {"type": "note_on", "time": 11, "note": 68, "velocity": 109, "channel": 0}, {"type": "note_off", "time": 133, "note": 68, "velocity": 109, "channel": 0}, {"type": "note_on", "time": 18, "note": 74, "velocity": 101, "channel": 0}, {"type": "note_off", "time": 60, "note": 74, "velocity": 101, "channel": 0}, {"type": "note_on", "time": 1, "note": 73, "velocity": 98, "channel": 0}, {"type": "note_off", "time": 48, "note": 73, "velocity": 98, "channel": 0}, {"type": "note_on", "time": 4, "note": 68, "velocity": 106, "channel": 0}, {"type": "note_off", "time": 142, "note": 68, "velocity": 106, "channel": 0}, {"type": "note_on", "time": 16, "note": 67, "velocity": 86, "channel": 0}, {"type": "note_off", "time": 349, "note": 67, "velocity": 86, "channel": 0}, {"type": "note_on", "time": 501, "note": 60, "velocity": 111, "channel": 0}, {"type": "note_off", "time": 249, "note": 60, "velocity": 111, "channel": 0}, {"type": "note_on", "time": 19, "note": 60, "velocity": 114, "channel": 0}, {"type": "note_off", "time": 117, "note": 60, "velocity": 114, "channel": 0}, {"type": "note_on", "time": 48, "note": 67, "velocity": 117, "channel": 0}, {"type": "note_off", "time": 81, "note": 67, "velocity": 117, "channel": 0}, {"type": "note_on", "time": 15, "note": 69, "velocity": 101, "channel": 0}, {"type": "note_off", "time": 273, "note": 69, "velocity": 101, "channel": 0}, {"type": "note_on", "time": 62, "note": 63, "velocity": 96, "channel": 0}, {"type": "note_off", "time": 463, "note": 63, "velocity": 96, "channel": 0}, {"type": "note_on", "time": 1082, "note": 65, "velocity": 127, "channel": 0}, {"type": "note_off", "time": 90, "note": 65, "velocity": 127, "channel": 0}, {"type": "note_on", "time": 25, "note": 67, "velocity": 123, "channel": 0}, {"type": "note_off", "time": 55, "note": 67, "velocity": 123, "channel": 0}, {"type": "note_on", "time": 10, "note": 68, "velocity": 123, "channel": 0}, {"type": "note_off", "time": 60, "note": 68, "velocity": 123, "channel": 0}, {"type": "note_on", "time": 12, "note": 72, "velocity": 103, "channel": 0}, {"type": "note_off", "time": 45, "note": 72, "velocity": 103, "channel": 0}, {"type": "note_on", "time": 5, "note": 69, "velocity": 105, "channel": 0}, {"type": "note_off", "time": 62, "note": 69, "velocity": 105, "channel": 0}, {"type": "note_on", "time": 15, "note": 65, "velocity": 108, "channel": 0}, {"type": "note_off", "time": 125, "note": 65, "velocity": 108, "channel": 0}, {"type": "note_on", "time": 31, "note": 67, "velocity": 120, "channel": 0}, {"type": "note_off", "time": 54, "note": 67, "velocity": 120, "channel": 0}, {"type": "note_on", "time": 5, "note": 68, "velocity": 100, "channel": 0}, {"type": "note_off", "time": 181, "note": 68, "velocity": 100, "channel": 0}, {"type": "note_on", "time": 17, "note": 65, "velocity": 107, "channel": 0}, {"type": "note_off", "time": 106, "note": 65, "velocity": 107, "channel": 0}, {"type": "note_on", "time": 52, "note": 62, "velocity": 106, "channel": 0}, {"type": "note_off", "time": 241, "note": 62, "velocity": 106, "channel": 0}, {"type": "note_on", "time": 11, "note": 60, "velocity": 102, "channel": 0}, {"type": "note_off", "time": 101, "note": 60, "velocity": 102, "channel": 0}, {"type": "note_on", "time": 34, "note": 68, "velocity": 104, "channel": 0}, {"type": "note_off", "time": 160, "note": 68, "velocity": 104, "channel": 0}, {"type": "note_on", "time": 12, "note": 69, "velocity": 89, "channel": 0}, {"type": "note_off", "time": 784, "note": 69, "velocity": 89, "channel": 0}, {"type": "note_on", "time": 35, "note": 69, "velocity": 109, "channel": 0}, {"type": "note_off", "time": 76, "note": 69, "velocity": 109, "channel": 0}, {"type": "note_on", "time": 61, "note": 70, "velocity": 106, "channel": 0}, {"type": "note_off", "time": 104, "note": 70, "velocity": 106, "channel": 0}, {"type": "note_on", "time": 24, "note": 72, "velocity": 102, "channel": 0}, {"type": "note_off", "time": 118, "note": 72, "velocity": 102, "channel": 0}, {"type": "note_on", "time": 24, "note": 69, "velocity": 104, "channel": 0}, {"type": "note_off", "time": 90, "note": 69, "velocity": 104, "channel": 0}, {"type": "note_on", "time": 34, "note": 65, "velocity": 110, "channel": 0}, {"type": "note_off", "time": 83, "note": 65, "velocity": 110, "channel": 0}, {"type": "note_on", "time": 64, "note": 60, "velocity": 99, "channel": 0}, {"type": "note_off", "time": 393, "note": 60, "velocity": 99, "channel": 0}, {"type": "note_on", "time": 18, "note": 60, "velocity": 103, "channel": 0}, {"type": "note_off", "time": 267, "note": 60, "velocity": 103, "channel": 0}, {"type": "note_on", "time": 24, "note": 61, "velocity": 105, "channel": 0}, {"type": "note_off", "time": 122, "note": 61, "velocity": 105, "channel": 0}, {"type": "note_on", "time": 21, "note": 62, "velocity": 98, "channel": 0}, {"type": "note_off", "time": 226, "note": 62, "velocity": 98, "channel": 0}, {"type": "note_on", "time": 43, "note": 69, "velocity": 106, "channel": 0}, {"type": "note_off", "time": 104, "note": 69, "velocity": 106, "channel": 0}, {"type": "note_on", "time": 67, "note": 60, "velocity": 102, "channel": 0}, {"type": "note_off", "time": 257, "note": 60, "velocity": 102, "channel": 0}, {"type": "note_on", "time": 109, "note": 62, "velocity": 88, "channel": 0}, {"type": "note_off", "time": 54, "note": 62, "velocity": 88, "channel": 0}, {"type": "note_on", "time": 4, "note": 66, "velocity": 113, "channel": 0}, {"type": "note_off", "time": 42, "note": 66, "velocity": 113, "channel": 0}, {"type": "note_on", "time": 6, "note": 67, "velocity": 100, "channel": 0}, {"type": "note_off", "time": 188, "note": 67, "velocity": 100, "channel": 0}, {"type": "note_on", "time": 162, "note": 62, "velocity": 107, "channel": 0}, {"type": "note_off", "time": 120, "note": 62, "velocity": 107, "channel": 0}, {"type": "note_on", "time": 12, "note": 64, "velocity": 96, "channel": 0}, {"type": "note_off", "time": 121, "note": 64, "velocity": 96, "channel": 0}, {"type": "note_on", "time": 43, "note": 67, "velocity": 94, "channel": 0}, {"type": "note_off", "time": 187, "note": 67, "velocity": 94, "channel": 0}, {"type": "note_on", "time": 1453, "note": 72, "velocity": 126, "channel": 0}, {"type": "note_off", "time": 166, "note": 72, "velocity": 126, "channel": 0}, {"type": "note_on", "time": 11, "note": 71, "velocity": 109, "channel": 0}, {"type": "note_off", "time": 206, "note": 71, "velocity": 109, "channel": 0}, {"type": "note_on", "time": 35, "note": 71, "velocity": 112, "channel": 0}, {"type": "note_off", "time": 122, "note": 71, "velocity": 112, "channel": 0}, {"type": "note_on", "time": 16, "note": 69, "velocity": 110, "channel": 0}, {"type": "note_off", "time": 178, "note": 69, "velocity": 110, "channel": 0}, {"type": "note_on", "time": 90, "note": 62, "velocity": 113, "channel": 0}, {"type": "note_off", "time": 273, "note": 62, "velocity": 113, "channel": 0}, {"type": "note_on", "time": 6, "note": 64, "velocity": 102, "channel": 0}, {"type": "note_off", "time": 265, "note": 64, "velocity": 102, "channel": 0}, {"type": "note_on", "time": 40, "note": 67, "velocity": 91, "channel": 0}, {"type": "note_off", "time": 206, "note": 67, "velocity": 91, "channel": 0}, {"type": "note_on", "time": 225, "note": 67, "velocity": 94, "channel": 0}, {"type": "note_off", "time": 200, "note": 67, "velocity": 94, "channel": 0}, {"type": "note_on", "time": 198, "note": 67, "velocity": 94, "channel": 0}, {"type": "note_off", "time": 243, "note": 67, "velocity": 94, "channel": 0}, {"type": "note_on", "time": 137, "note": 69, "velocity": 97, "channel": 0}, {"type": "note_off", "time": 230, "note": 69, "velocity": 97, "channel": 0}, {"type": "note_on", "time": 59, "note": 62, "velocity": 110, "channel": 0}, {"type": "note_off", "time": 78, "note": 62, "velocity": 110, "channel": 0}, {"type": "note_on", "time": 11, "note": 63, "velocity": 107, "channel": 0}, {"type": "note_off", "time": 83, "note": 63, "velocity": 107, "channel": 0}, {"type": "note_on", "time": 831, "note": 55, "velocity": 115, "channel": 0}, {"type": "note_off", "time": 104, "note": 55, "velocity": 115, "channel": 0}, {"type": "note_on", "time": 24, "note": 57, "velocity": 117, "channel": 0}, {"type": "note_off", "time": 76, "note": 57, "velocity": 117, "channel": 0}, {"type": "note_on", "time": 14, "note": 60, "velocity": 121, "channel": 0}, {"type": "note_off", "time": 122, "note": 60, "velocity": 121, "channel": 0}, {"type": "note_on", "time": 32, "note": 62, "velocity": 123, "channel": 0}, {"type": "note_off", "time": 87, "note": 62, "velocity": 123, "channel": 0}, {"type": "note_on", "time": 6, "note": 63, "velocity": 114, "channel": 0}, {"type": "note_off", "time": 75, "note": 63, "velocity": 114, "channel": 0}, {"type": "note_on", "time": 40, "note": 60, "velocity": 108, "channel": 0}, {"type": "note_off", "time": 83, "note": 60, "velocity": 108, "channel": 0}, {"type": "note_on", "time": 16, "note": 62, "velocity": 98, "channel": 0}, {"type": "note_off", "time": 305, "note": 62, "velocity": 98, "channel": 0}, {"type": "note_on", "time": 536, "note": 60, "velocity": 119, "channel": 0}, {"type": "note_off", "time": 89, "note": 60, "velocity": 119, "channel": 0}, {"type": "note_on", "time": 38, "note": 63, "velocity": 117, "channel": 0}, {"type": "note_off", "time": 130, "note": 63, "velocity": 117, "channel": 0}, {"type": "note_on", "time": 28, "note": 60, "velocity": 107, "channel": 0}, {"type": "note_off", "time": 67, "note": 60, "velocity": 107, "channel": 0}, {"type": "note_on", "time": 14, "note": 62, "velocity": 117, "channel": 0}, {"type": "note_off", "time": 134, "note": 62, "velocity": 117, "channel": 0}, {"type": "note_on", "time": 51, "note": 60, "velocity": 103, "channel": 0}, {"type": "note_off", "time": 72, "note": 60, "velocity": 103, "channel": 0}, {"type": "note_on", "time": 45, "note": 62, "velocity": 112, "channel": 0}, {"type": "note_off", "time": 88, "note": 62, "velocity": 112, "channel": 0}, {"type": "note_on", "time": 10, "note": 60, "velocity": 114, "channel": 0}, {"type": "note_off", "time": 123, "note": 60, "velocity": 114, "channel": 0}, {"type": "note_on", "time": 14, "note": 63, "velocity": 114, "channel": 0}, {"type": "note_off", "time": 147, "note": 63, "velocity": 114, "channel": 0}, {"type": "note_on", "time": 7, "note": 60, "velocity": 108, "channel": 0}, {"type": "note_off", "time": 119, "note": 60, "velocity": 108, "channel": 0}, {"type": "note_on", "time": 11, "note": 62, "velocity": 114, "channel": 0}, {"type": "note_off", "time": 133, "note": 62, "velocity": 114, "channel": 0}, {"type": "note_on", "time": 55, "note": 60, "velocity": 101, "channel": 0}, {"type": "note_off", "time": 185, "note": 60, "velocity": 101, "channel": 0}, {"type": "note_on", "time": 61, "note": 72, "velocity": 93, "channel": 0}, {"type": "note_off", "time": 527, "note": 72, "velocity": 93, "channel": 0}, {"type": "note_on", "time": 36, "note": 67, "velocity": 107, "channel": 0}, {"type": "note_off", "time": 163, "note": 67, "velocity": 107, "channel": 0}, {"type": "note_on", "time": 5, "note": 69, "velocity": 104, "channel": 0}, {"type": "note_off", "time": 111, "note": 69, "velocity": 104, "channel": 0}, {"type": "note_on", "time": 131, "note": 62, "velocity": 104, "channel": 0}, {"type": "note_off", "time": 217, "note": 62, "velocity": 104, "channel": 0}, {"type": "note_on", "time": 4, "note": 63, "velocity": 106, "channel": 0}, {"type": "note_off", "time": 130, "note": 63, "velocity": 106, "channel": 0}, {"type": "note_on", "time": 86, "note": 60, "velocity": 105, "channel": 0}, {"type": "note_off", "time": 224, "note": 60, "velocity": 105, "channel": 0}, {"type": "note_on", "time": 38, "note": 62, "velocity": 115, "channel": 0}, {"type": "note_off", "time": 85, "note": 62, "velocity": 115, "channel": 0}, {"type": "note_on", "time": 31, "note": 55, "velocity": 96, "channel": 0}, {"type": "note_off", "time": 245, "note": 55, "velocity": 96, "channel": 0}, {"type": "note_on", "time": 39, "note": 57, "velocity": 110, "channel": 0}, {"type": "note_off", "time": 122, "note": 57, "velocity": 110, "channel": 0}, {"type": "note_on", "time": 27, "note": 60, "velocity": 106, "channel": 0}, {"type": "note_off", "time": 359, "note": 60, "velocity": 106, "channel": 0}, {"type": "note_on", "time": 78, "note": 62, "velocity": 114, "channel": 0}, {"type": "note_off", "time": 127, "note": 62, "velocity": 114, "channel": 0}, {"type": "note_on", "time": 7, "note": 63, "velocity": 108, "channel": 0}, {"type": "note_off", "time": 92, "note": 63, "velocity": 108, "channel": 0}, {"type": "note_on", "time": 66, "note": 62, "velocity": 106, "channel": 0}, {"type": "note_off", "time": 305, "note": 62, "velocity": 106, "channel": 0}, {"type": "note_on", "time": 7, "note": 63, "velocity": 103, "channel": 0}, {"type": "note_off", "time": 166, "note": 63, "velocity": 103, "channel": 0}, {"type": "note_on", "time": 70, "note": 55, "velocity": 99, "channel": 0}, {"type": "note_off", "time": 237, "note": 55, "velocity": 99, "channel": 0}, {"type": "note_on", "time": 36, "note": 57, "velocity": 104, "channel": 0}, {"type": "note_off", "time": 96, "note": 57, "velocity": 104, "channel": 0}, {"type": "note_on", "time": 27, "note": 60, "velocity": 117, "channel": 0}, {"type": "note_off", "time": 104, "note": 60, "velocity": 117, "channel": 0}, {"type": "end_of_track", "time": 0}]]}