{"ticks_per_beat": 192, "tracks": [[{"type": "track_name", "name": "Melody", "time": 0}, {"type": "set_tempo", "tempo": 281690, "time": 0}, {"type": "key_signature", "key": "Eb", "time": 0}, {"type": "time_signature", "numerator": 4, "denominator": 4, "clocks_per_click": 24, "notated_32nd_notes_per_beat": 8, "time": 0}, {"type": "note_on", "time": 1512, "note": 78, "velocity": 113, "channel": 0}, {"type": "note_off", "time": 346, "note": 78, "velocity": 113, "channel": 0}, {"type": "note_on", "time": 57, "note": 82, "velocity": 115, "channel": 0}, {"type": "note_off", "time": 81, "note": 82, "velocity": 115, "channel": 0}, {"type": "note_on", "time": 16, "note": 79, "velocity": 105, "channel": 0}, {"type": "note_off", "time": 83, "note": 79, "velocity": 105, "channel": 0}, {"type": "note_on", "time": 20, "note": 82, "velocity": 102, "channel": 0}, {"type": "note_off", "time": 122, "note": 82, "velocity": 102, "channel": 0}, {"type": "note_on", "time": 59, "note": 82, "velocity": 108, "channel": 0}, {"type": "note_off", "time": 126, "note": 82, "velocity": 108, "channel": 0}, {"type": "note_on", "time": 96, "note": 82, "velocity": 102, "channel": 0}, {"type": "note_off", "time": 65, "note": 82, "velocity": 102, "channel": 0}, {"type": "note_on", "time": 28, "note": 82, "velocity": 108, "channel": 0}, {"type": "note_off", "time": 85, "note": 82, "velocity": 108, "channel": 0}, {"type": "note_on", "time": 79, "note": 82, "velocity": 101, "channel": 0}, {"type": "note_off", "time": 123, "note": 82, "velocity": 101, "channel": 0}, {"type": "note_on", "time": 103, "note": 82, "velocity": 110, "channel": 0}, {"type": "note_off", "time": 132, "note": 82, "velocity": 110, "channel": 0}, {"type": "note_on", "time": 36, "note": 79, "velocity": 109, "channel": 0}, {"type": "note_off", "time": 115, "note": 79, "velocity": 109, "channel": 0}, {"type": "note_on", "time": 77, "note": 75, "velocity": 82, "channel": 0}, {"type": "note_off", "time": 248, "note": 75, "velocity": 82, "channel": 0}, {"type": "note_on", "time": 145, "note": 78, "velocity": 107, "channel": 0}, {"type": "note_off", "time": 96, "note": 78, "velocity": 107, "channel": 0}, {"type": "note_on", "time": 34, "note": 79, "velocity": 114, "channel": 0}, {"type": "note_off", "time": 104, "note": 79, "velocity": 114, "channel": 0}, {"type": "note_on", "time": 63, "note": 75, "velocity": 103, "channel": 0}, {"type": "note_off", "time": 67, "note": 75, "velocity": 103, "channel": 0}, {"type": "note_on", "time": 33, "note": 84, "velocity": 103, "channel": 0}, {"type": "note_off", "time": 240, "note": 84, "velocity": 103, "channel": 0}, {"type": "note_on", "time": 136, "note": 78, "velocity": 113, "channel": 0}, {"type": "note_off", "time": 90, "note": 78, "velocity": 113, "channel": 0}, {"type": "note_on", "time": 32, "note": 79, "velocity": 112, "channel": 0}, {"type": "note_off", "time": 100, "note": 79, "velocity": 112, "channel": 0}, {"type": "note_on", "time": 90, "note": 82, "velocity": 84, "channel": 0}, {"type": "note_off", "time": 47, "note": 82, "velocity": 84, "channel": 0}, {"type": "note_on", "time": 35, "note": 87, "velocity": 111, "channel": 0}, {"type": "note_off", "time": 209, "note": 87, "velocity": 111, "channel": 0}, {"type": "note_on", "time": 143, "note": 86, "velocity": 123, "channel": 0}, {"type": "note_off", "time": 115, "note": 86, "velocity": 123, "channel": 0}, {"type": "note_on", "time": 23, "note": 85, "velocity": 123, "channel": 0}, {"type": "note_off", "time": 120, "note": 85, "velocity": 123, "channel": 0}, {"type": "note_on", "time": 59, "note": 82, "velocity": 103, "channel": 0}, {"type": "note_off", "time": 65, "note": 82, "velocity": 103, "channel": 0}, {"type": "note_on", "time": 29, "note": 84, "velocity": 122, "channel": 0}, {"type": "note_off", "time": 77, "note": 84, "velocity": 122, "channel": 0}, {"type": "note_on", "time": 13, "note": 82, "velocity": 107, "channel": 0}, {"type": "note_off", "time": 65, "note": 82, "velocity": 107, "channel": 0}, {"type": "note_on", "time": 47, "note": 85, "velocity": 125, "channel": 0}, {"type": "note_off", "time": 91, "note": 85, "velocity": 125, "channel": 0}, {"type": "note_on", "time": 78, "note": 84, "velocity": 117, "channel": 0}, {"type": "note_off", "time": 116, "note": 84, "velocity": 117, "channel": 0}, {"type": "note_on", "time": 44, "note": 82, "velocity": 117, "channel": 0}, {"type": "note_off", "time": 154, "note": 82, "velocity": 117, "channel": 0}, {"type": "note_on", "time": 51, "note": 78, "velocity": 114, "channel": 0}, {"type": "note_off", "time": 91, "note": 78, "velocity": 114, "channel": 0}, {"type": "note_on", "time": 103, "note": 79, "velocity": 109, "channel": 0}, {"type": "note_off", "time": 102, "note": 79, "velocity": 109, "channel": 0}, {"type": "note_on", "time": 32, "note": 82, "velocity": 113, "channel": 0}, {"type": "note_off", "time": 108, "note": 82, "velocity": 113, "channel": 0}, {"type": "note_on", "time": 57, "note": 82, "velocity": 112, "channel": 0}, {"type": "note_off", "time": 179, "note": 82, "velocity": 112, "channel": 0}, {"type": "note_on", "time": 15, "note": 78, "velocity": 107, "channel": 0}, {"type": "note_off", "time": 69, "note": 78, "velocity": 107, "channel": 0}, {"type": "note_on", "time": 9, "note": 79, "velocity": 113, "channel": 0}, {"type": "note_off", "time": 69, "note": 79, "velocity": 113, "channel": 0}, {"type": "note_on", "time": 36, "note": 82, "velocity": 115, "channel": 0}, {"type": "note_off", "time": 69, "note": 82, "velocity": 115, "channel": 0}, {"type": "note_on", "time": 9, "note": 84, "velocity": 121, "channel": 0}, {"type": "note_off", "time": 114, "note": 84, "velocity": 121, "channel": 0}, {"type": "note_on", "time": 193, "note": 77, "velocity": 114, "channel": 0}, {"type": "note_off", "time": 69, "note": 77, "velocity": 114, "channel": 0}, {"type": "note_on", "time": 6, "note": 80, "velocity": 117, "channel": 0}, {"type": "note_off", "time": 85, "note": 80, "velocity": 117, "channel": 0}, {"type": "note_on", "time": 32, "note": 74, "velocity": 106, "channel": 0}, {"type": "note_off", "time": 73, "note": 74, "velocity": 106, "channel": 0}, {"type": "note_on", "time": 0, "note": 77, "velocity": 118, "channel": 0}, {"type": "note_off", "time": 98, "note": 77, "velocity": 118, "channel": 0}, {"type": "note_on", "time": 19, "note": 70, "velocity": 117, "channel": 0}, {"type": "note_off", "time": 69, "note": 70, "velocity": 117, "channel": 0}, {"type": "note_on", "time": 3, "note": 72, "velocity": 116, "channel": 0}, {"type": "note_off", "time": 83, "note": 72, "velocity": 116, "channel": 0}, {"type": "note_on", "time": 7, "note": 73, "velocity": 112, "channel": 0}, {"type": "note_off", "time": 85, "note": 73, "velocity": 112, "channel": 0}, {"type": "note_on", "time": 18, "note": 74, "velocity": 113, "channel": 0}, {"type": "note_off", "time": 97, "note": 74, "velocity": 113, "channel": 0}, {"type": "note_on", "time": 34, "note": 67, "velocity": 95, "channel": 0}, {"type": "note_off", "time": 49, "note": 67, "velocity": 95, "channel": 0}, {"type": "note_on", "time": 1, "note": 70, "velocity": 114, "channel": 0}, {"type": "note_off", "time": 108, "note": 70, "velocity": 114, "channel": 0}, {"type": "note_on", "time": 5, "note": 74, "velocity": 111, "channel": 0}, {"type": "note_off", "time": 70, "note": 74, "velocity": 111, "channel": 0}, {"type": "note_on", "time": 4, "note": 77, "velocity": 105, "channel": 0}, {"type": "note_off", "time": 98, "note": 77, "velocity": 105, "channel": 0}, {"type": "note_on", "time": 3, "note": 76, "velocity": 115, "channel": 0}, {"type": "note_off", "time": 63, "note": 76, "velocity": 115, "channel": 0}, {"type": "note_on", "time": 35, "note": 79, "velocity": 114, "channel": 0}, {"type": "note_off", "time": 81, "note": 79, "velocity": 114, "channel": 0}, {"type": "note_on", "time": 15, "note": 77, "velocity": 108, "channel": 0}, {"type": "note_off", "time": 61, "note": 77, "velocity": 108, "channel": 0}, {"type": "note_on", "time": 18, "note": 80, "velocity": 113, "channel": 0}, {"type": "note_off", "time": 207, "note": 80, "velocity": 113, "channel": 0}, {"type": "note_on", "time": 179, "note": 77, "velocity": 112, "channel": 0}, {"type": "note_off", "time": 75, "note": 77, "velocity": 112, "channel": 0}, {"type": "note_on", "time": 49, "note": 80, "velocity": 115, "channel": 0}, {"type": "note_off", "time": 143, "note": 80, "velocity": 115, "channel": 0}, {"type": "note_on", "time": 34, "note": 77, "velocity": 107, "channel": 0}, {"type": "note_off", "time": 54, "note": 77, "velocity": 107, "channel": 0}, {"type": "note_on", "time": 19, "note": 80, "velocity": 110, "channel": 0}, {"type": "note_off", "time": 83, "note": 80, "velocity": 110, "channel": 0}, {"type": "note_on", "time": 27, "note": 77, "velocity": 107, "channel": 0}, {"type": "note_off", "time": 67, "note": 77, "velocity": 107, "channel": 0}, {"type": "note_on", "time": 21, "note": 73, "velocity": 116, "channel": 0}, {"type": "note_off", "time": 81, "note": 73, "velocity": 116, "channel": 0}, {"type": "note_on", "time": 11, "note": 74, "velocity": 108, "channel": 0}, {"type": "note_off", "time": 98, "note": 74, "velocity": 108, "channel": 0}, {"type": "note_on", "time": 8, "note": 77, "velocity": 108, "channel": 0}, {"type": "note_off", "time": 91, "note": 77, "velocity": 108, "channel": 0}, {"type": "note_on", "time": 5, "note": 76, "velocity": 106, "channel": 0}, {"type": "note_off", "time": 69, "note": 76, "velocity": 106, "channel": 0}, {"type": "note_on", "time": 44, "note": 79, "velocity": 99, "channel": 0}, {"type": "note_off", "time": 77, "note": 79, "velocity": 99, "channel": 0}, {"type": "note_on", "time": 6, "note": 77, "velocity": 95, "channel": 0}, {"type": "note_off", "time": 53, "note": 77, "velocity": 95, "channel": 0}, {"type": "note_on", "time": 24, "note": 79, "velocity": 105, "channel": 0}, {"type": "note_off", "time": 30, "note": 79, "velocity": 105, "channel": 0}, {"type": "note_on", "time": 4, "note": 80, "velocity": 111, "channel": 0}, {"type": "note_off", "time": 88, "note": 80, "velocity": 111, "channel": 0}, {"type": "note_on", "time": 109, "note": 80, "velocity": 110, "channel": 0}, {"type": "note_off", "time": 106, "note": 80, "velocity": 110, "channel": 0}, {"type": "note_on", "time": 63, "note": 80, "velocity": 108, "channel": 0}, {"type": "note_off", "time": 144, "note": 80, "velocity": 108, "channel": 0}, {"type": "note_on", "time": 65, "note": 73, "velocity": 116, "channel": 0}, {"type": "note_off", "time": 94, "note": 73, "velocity": 116, "channel": 0}, {"type": "note_on", "time": 7, "note": 74, "velocity": 109, "channel": 0}, {"type": "note_off", "time": 85, "note": 74, "velocity": 109, "channel": 0}, {"type": "note_on", "time": 4, "note": 77, "velocity": 99, "channel": 0}, {"type": "note_off", "time": 276, "note": 77, "velocity": 99, "channel": 0}, {"type": "note_on", "time": 204, "note": 79, "velocity": 110, "channel": 0}, {"type": "note_off", "time": 33, "note": 79, "velocity": 110, "channel": 0}, {"type": "note_on", "time": 3, "note": 80, "velocity": 115, "channel": 0}, {"type": "note_off", "time": 104, "note": 80, "velocity": 115, "channel": 0}, {"type": "note_on", "time": 26, "note": 77, "velocity": 101, "channel": 0}, {"type": "note_off", "time": 85, "note": 77, "velocity": 101, "channel": 0}, {"type": "note_on", "time": 38, "note": 86, "velocity": 99, "channel": 0}, {"type": "note_off", "time": 300, "note": 86, "velocity": 99, "channel": 0}, {"type": "note_on", "time": 57, "note": 85, "velocity": 116, "channel": 0}, {"type": "note_off", "time": 118, "note": 85, "velocity": 116, "channel": 0}, {"type": "note_on", "time": 7, "note": 86, "velocity": 115, "channel": 0}, {"type": "note_off", "time": 67, "note": 86, "velocity": 115, "channel": 0}, {"type": "note_on", "time": 19, "note": 84, "velocity": 106, "channel": 0}, {"type": "note_off", "time": 247, "note": 84, "velocity": 106, "channel": 0}, {"type": "note_on", "time": 31, "note": 82, "velocity": 102, "channel": 0}, {"type": "note_off", "time": 415, "note": 82, "velocity": 102, "channel": 0}, {"type": "note_on", "time": 251, "note": 82, "velocity": 106, "channel": 0}, {"type": "note_off", "time": 91, "note": 82, "velocity": 106, "channel": 0}, {"type": "note_on", "time": 11, "note": 87, "velocity": 98, "channel": 0}, {"type": "note_off", "time": 271, "note": 87, "velocity": 98, "channel": 0}, {"type": "note_on", "time": 21, "note": 85, "velocity": 125, "channel": 0}, {"type": "note_off", "time": 112, "note": 85, "velocity": 125, "channel": 0}, {"type": "note_on", "time": 8, "note": 84, "velocity": 111, "channel": 0}, {"type": "note_off", "time": 134, "note": 84, "velocity": 111, "channel": 0}, {"type": "note_on", "time": 32, "note": 82, "velocity": 104, "channel": 0}, {"type": "note_off", "time": 75, "note": 82, "velocity": 104, "channel": 0}, {"type": "note_on", "time": 43, "note": 83, "velocity": 78, "channel": 0}, {"type": "note_off", "time": 12, "note": 83, "velocity": 78, "channel": 0}, {"type": "note_on", "time": 3, "note": 84, "velocity": 108, "channel": 0}, {"type": "note_off", "time": 31, "note": 84, "velocity": 108, "channel": 0}, {"type": "note_on", "time": 30, "note": 82, "velocity": 82, "channel": 0}, {"type": "note_off", "time": 59, "note": 82, "velocity": 82, "channel": 0}, {"type": "note_on", "time": 9, "note": 77, "velocity": 105, "channel": 0}, {"type": "note_off", "time": 109, "note": 77, "velocity": 105, "channel": 0}, {"type": "note_on", "time": 3, "note": 78, "velocity": 111, "channel": 0}, {"type": "note_off", "time": 365, "note": 78, "velocity": 111, "channel": 0}, {"type": "note_on", "time": 10, "note": 77, "velocity": 113, "channel": 0}, {"type": "note_off", "time": 81, "note": 77, "velocity": 113, "channel": 0}, {"type": "note_on", "time": 33, "note": 70, "velocity": 111, "channel": 0}, {"type": "note_off", "time": 124, "note": 70, "velocity": 111, "channel": 0}, {"type": "note_on", "time": 81, "note": 72, "velocity": 106, "channel": 0}, {"type": "note_off", "time": 138, "note": 72, "velocity": 106, "channel": 0}, {"type": "note_on", "time": 60, "note": 75, "velocity": 113, "channel": 0}, {"type": "note_off", "time": 108, "note": 75, "velocity": 113, "channel": 0}, {"type": "note_on", "time": 38, "note": 75, "velocity": 91, "channel": 0}, {"type": "note_off", "time": 86, "note": 75, "velocity": 91, "channel": 0}, {"type": "note_on", "time": 156, "note": 78, "velocity": 112, "channel": 0}, {"type": "note_off", "time": 91, "note": 78, "velocity": 112, "channel": 0}, {"type": "note_on", "time": 49, "note": 79, "velocity": 118, "channel": 0}, {"type": "note_off", "time": 102, "note": 79, "velocity": 118, "channel": 0}, {"type": "note_on", "time": 52, "note": 82, "velocity": 97, "channel": 0}, {"type": "note_off", "time": 79, "note": 82, "velocity": 97, "channel": 0}, {"type": "note_on", "time": 97, "note": 82, "velocity": 112, "channel": 0}, {"type": "note_off", "time": 79, "note": 82, "velocity": 112, "channel": 0}, {"type": "note_on", "time": 12, "note": 84, "velocity": 119, "channel": 0}, {"type": "note_off", "time": 71, "note": 84, "velocity": 119, "channel": 0}, {"type": "note_on", "time": 17, "note": 82, "velocity": 94, "channel": 0}, {"type": "note_off", "time": 81, "note": 82, "velocity": 94, "channel": 0}, {"type": "note_on", "time": 17, "note": 84, "velocity": 125, "channel": 0}, {"type": "note_off", "time": 114, "note": 84, "velocity": 125, "channel": 0}, {"type": "note_on", "time": 9, "note": 85, "velocity": 92, "channel": 0}, {"type": "note_off", "time": 215, "note": 85, "velocity": 92, "channel": 0}, {"type": "note_on", "time": 67, "note": 82, "velocity": 109, "channel": 0}, {"type": "note_off", "time": 92, "note": 82, "velocity": 109, "channel": 0}, {"type": "note_on", "time": 34, "note": 84, "velocity": 115, "channel": 0}, {"type": "note_off", "time": 94, "note": 84, "velocity": 115, "channel": 0}, {"type": "note_on", "time": 54, "note": 82, "velocity": 107, "channel": 0}, {"type": "note_off", "time": 73, "note": 82, "velocity": 107, "channel": 0}, {"type": "note_on", "time": 42, "note": 84, "velocity": 117, "channel": 0}, {"type": "note_off", "time": 41, "note": 84, "velocity": 117, "channel": 0}, {"type": "note_on", "time": 3, "note": 85, "velocity": 99, "channel": 0}, {"type": "note_off", "time": 33, "note": 85, "velocity": 99, "channel": 0}, {"type": "note_on", "time": 0, "note": 82, "velocity": 102, "channel": 0}, {"type": "note_off", "time": 58, "note": 82, "velocity": 102, "channel": 0}, {"type": "note_on", "time": 20, "note": 84, "velocity": 117, "channel": 0}, {"type": "note_off", "time": 44, "note": 84, "velocity": 117, "channel": 0}, {"type": "note_on", "time": 6, "note": 85, "velocity": 117, "channel": 0}, {"type": "note_off", "time": 68, "note": 85, "velocity": 117, "channel": 0}, {"type": "note_on", "time": 5, "note": 82, "velocity": 113, "channel": 0}, {"type": "note_off", "time": 92, "note": 82, "velocity": 113, "channel": 0}, {"type": "note_on", "time": 84, "note": 79, "velocity": 116, "channel": 0}, {"type": "note_off", "time": 83, "note": 79, "velocity": 116, "channel": 0}, {"type": "note_on", "time": 12, "note": 78, "velocity": 113, "channel": 0}, {"type": "note_off", "time": 92, "note": 78, "velocity": 113, "channel": 0}, {"type": "note_on", "time": 112, "note": 79, "velocity": 113, "channel": 0}, {"type": "note_off", "time": 87, "note": 79, "velocity": 113, "channel": 0}, {"type": "note_on", "time": 103, "note": 79, "velocity": 115, "channel": 0}, {"type": "note_off", "time": 107, "note": 79, "velocity": 115, "channel": 0}, {"type": "note_on", "time": 96, "note": 75, "velocity": 107, "channel": 0}, {"type": "note_off", "time": 79, "note": 75, "velocity": 107, "channel": 0}, {"type": "note_on", "time": 6, "note": 77, "velocity": 108, "channel": 0}, {"type": "note_off", "time": 106, "note": 77, "velocity": 108, "channel": 0}, {"type": "note_on", "time": 85, "note": 75, "velocity": 106, "channel": 0}, {"type": "note_off", "time": 58, "note": 75, "velocity": 106, "channel": 0}, {"type": "note_on", "time": 12, "note": 77, "velocity": 107, "channel": 0}, {"type": "note_off", "time": 164, "note": 77, "velocity": 107, "channel": 0}, {"type": "note_on", "time": 214, "note": 75, "velocity": 115, "channel": 0}, {"type": "note_off", "time": 71, "note": 75, "velocity": 115, "channel": 0}, {"type": "note_on", "time": 1, "note": 77, "velocity": 111, "channel": 0}, {"type": "note_off", "time": 81, "note": 77, "velocity": 111, "channel": 0}, {"type": "note_on", "time": 13, "note": 75, "velocity": 114, "channel": 0}, {"type": "note_off", "time": 69, "note": 75, "velocity": 114, "channel": 0}, {"type": "note_on", "time": 44, "note": 73, "velocity": 113, "channel": 0}, {"type": "note_off", "time": 69, "note": 73, "velocity": 113, "channel": 0}, {"type": "note_on", "time": 9, "note": 72, "velocity": 116, "channel": 0}, {"type": "note_off", "time": 106, "note": 72, "velocity": 116, "channel": 0}, {"type": "note_on", "time": 22, "note": 67, "velocity": 98, "channel": 0}, {"type": "note_off", "time": 67, "note": 67, "velocity": 98, "channel": 0}, {"type": "note_on", "time": 2, "note": 72, "velocity": 110, "channel": 0}, {"type": "note_off", "time": 97, "note": 72, "velocity": 110, "channel": 0}, {"type": "note_on", "time": 24, "note": 75, "velocity": 114, "channel": 0}, {"type": "note_off", "time": 49, "note": 75, "velocity": 114, "channel": 0}, {"type": "note_on", "time": 25, "note": 80, "velocity": 110, "channel": 0}, {"type": "note_off", "time": 89, "note": 80, "velocity": 110, "channel": 0}, {"type": "note_on", "time": 23, "note": 72, "velocity": 112, "channel": 0}, {"type": "note_off", "time": 55, "note": 72, "velocity": 112, "channel": 0}, {"type": "note_on", "time": 22, "note": 75, "velocity": 115, "channel": 0}, {"type": "note_off", "time": 67, "note": 75, "velocity": 115, "channel": 0}, {"type": "note_on", "time": 45, "note": 80, "velocity": 105, "channel": 0}, {"type": "note_off", "time": 63, "note": 80, "velocity": 105, "channel": 0}, {"type": "note_on", "time": 9, "note": 84, "velocity": 109, "channel": 0}, {"type": "note_off", "time": 524, "note": 84, "velocity": 109, "channel": 0}, {"type": "note_on", "time": 251, "note": 83, "velocity": 127, "channel": 0}, {"type": "note_off", "time": 132, "note": 83, "velocity": 127, "channel": 0}, {"type": "note_on", "time": 5, "note": 84, "velocity": 115, "channel": 0}, {"type": "note_off", "time": 45, "note": 84, "velocity": 115, "channel": 0}, {"type": "note_on", "time": 10, "note": 83, "velocity": 119, "channel": 0}, {"type": "note_off", "time": 83, "note": 83, "velocity": 119, "channel": 0}, {"type": "note_on", "time": 14, "note": 84, "velocity": 105, "channel": 0}, {"type": "note_off", "time": 73, "note": 84, "velocity": 105, "channel": 0}, {"type": "note_on", "time": 23, "note": 82, "velocity": 115, "channel": 0}, {"type": "note_off", "time": 116, "note": 82, "velocity": 115, "channel": 0}, {"type": "note_on", "time": 16, "note": 80, "velocity": 115, "channel": 0}, {"type": "note_off", "time": 94, "note": 80, "velocity": 115, "channel": 0}, {"type": "note_on", "time": 65, "note": 75, "velocity": 119, "channel": 0}, {"type": "note_off", "time": 59, "note": 75, "velocity": 119, "channel": 0}, {"type": "note_on", "time": 30, "note": 78, "velocity": 103, "channel": 0}, {"type": "note_off", "time": 110, "note": 78, "velocity": 103, "channel": 0}, {"type": "note_on", "time": 100, "note": 78, "velocity": 103, "channel": 0}, {"type": "note_off", "time": 120, "note": 78, "velocity": 103, "channel": 0}, {"type": "note_on", "time": 56, "note": 75, "velocity": 111, "channel": 0}, {"type": "note_off", "time": 167, "note": 75, "velocity": 111, "channel": 0}, {"type": "note_on", "time": 12, "note": 72, "velocity": 109, "channel": 0}, {"type": "note_off", "time": 73, "note": 72, "velocity": 109, "channel": 0}, {"type": "note_on", "time": 15, "note": 71, "velocity": 116, "channel": 0}, {"type": "note_off", "time": 51, "note": 71, "velocity": 116, "channel": 0}, {"type": "note_on", "time": 7, "note": 72, "velocity": 116, "channel": 0}, {"type": "note_off", "time": 42, "note": 72, "velocity": 116, "channel": 0}, {"type": "note_on", "time": 3, "note": 70, "velocity": 119, "channel": 0}, {"type": "note_off", "time": 59, "note": 70, "velocity": 119, "channel": 0}, {"type": "note_on", "time": 59, "note": 79, "velocity": 107, "channel": 0}, {"type": "note_off", "time": 138, "note": 79, "velocity": 107, "channel": 0}, {"type": "note_on", "time": 60, "note": 78, "velocity": 107, "channel": 0}, {"type": "note_off", "time": 41, "note": 78, "velocity": 107, "channel": 0}, {"type": "note_on", "time": 21, "note": 79, "velocity": 107, "channel": 0}, {"type": "note_off", "time": 102, "note": 79, "velocity": 107, "channel": 0}, {"type": "note_on", "time": 34, "note": 78, "velocity": 105, "channel": 0}, {"type": "note_off", "time": 45, "note": 78, "velocity": 105, "channel": 0}, {"type": "note_on", "time": 8, "note": 77, "velocity": 108, "channel": 0}, {"type": "note_off", "time": 53, "note": 77, "velocity": 108, "channel": 0}, {"type": "note_on", "time": 28, "note": 72, "velocity": 112, "channel": 0}, {"type": "note_off", "time": 94, "note": 72, "velocity": 112, "channel": 0}, {"type": "note_on", "time": 5, "note": 75, "velocity": 112, "channel": 0}, {"type": "note_off", "time": 37, "note": 75, "velocity": 112, "channel": 0}, {"type": "note_on", "time": 3, "note": 76, "velocity": 124, "channel": 0}, {"type": "note_off", "time": 273, "note": 76, "velocity": 124, "channel": 0}, {"type": "note_on", "time": 9, "note": 72, "velocity": 108, "channel": 0}, {"type": "note_off", "time": 288, "note": 72, "velocity": 108, "channel": 0}, {"type": "note_on", "time": 6, "note": 67, "velocity": 103, "channel": 0}, {"type": "note_off", "time": 31, "note": 67, "velocity": 103, "channel": 0}, {"type": "note_on", "time": 138, "note": 69, "velocity": 119, "channel": 0}, {"type": "note_off", "time": 89, "note": 69, "velocity": 119, "channel": 0}, {"type": "note_on", "time": 28, "note": 72, "velocity": 112, "channel": 0}, {"type": "note_off", "time": 47, "note": 72, "velocity": 112, "channel": 0}, {"type": "note_on", "time": 16, "note": 74, "velocity": 108, "channel": 0}, {"type": "note_off", "time": 55, "note": 74, "velocity": 108, "channel": 0}, {"type": "note_on", "time": 16, "note": 72, "velocity": 110, "channel": 0}, {"type": "note_off", "time": 97, "note": 72, "velocity": 110, "channel": 0}, {"type": "note_on", "time": 24, "note": 75, "velocity": 120, "channel": 0}, {"type": "note_off", "time": 79, "note": 75, "velocity": 120, "channel": 0}, {"type": "note_on", "time": 37, "note": 72, "velocity": 114, "channel": 0}, {"type": "note_off", "time": 162, "note": 72, "velocity": 114, "channel": 0}, {"type": "note_on", "time": 23, "note": 75, "velocity": 108, "channel": 0}, {"type": "note_off", "time": 53, "note": 75, "velocity": 108, "channel": 0}, {"type": "note_on", "time": 10, "note": 74, "velocity": 108, "channel": 0}, {"type": "note_off", "time": 110, "note": 74, "velocity": 108, "channel": 0}, {"type": "note_on", "time": 41, "note": 67, "velocity": 104, "channel": 0}, {"type": "note_off", "time": 53, "note": 67, "velocity": 104, "channel": 0}, {"type": "note_on", "time": 14, "note": 70, "velocity": 115, "channel": 0}, {"type": "note_off", "time": 73, "note": 70, "velocity": 115, "channel": 0}, {"type": "note_on", "time": 35, "note": 74, "velocity": 108, "channel": 0}, {"type": "note_off", "time": 69, "note": 74, "velocity": 108, "channel": 0}, {"type": "note_on", "time": 12, "note": 77, "velocity": 107, "channel": 0}, {"type": "note_off", "time": 89, "note": 77, "velocity": 107, "channel": 0}, {"type": "note_on", "time": 22, "note": 70, "velocity": 113, "channel": 0}, {"type": "note_off", "time": 57, "note": 70, "velocity": 113, "channel": 0}, {"type": "note_on", "time": 23, "note": 74, "velocity": 107, "channel": 0}, {"type": "note_off", "time": 63, "note": 74, "velocity": 107, "channel": 0}, {"type": "note_on", "time": 39, "note": 80, "velocity": 109, "channel": 0}, {"type": "note_off", "time": 59, "note": 80, "velocity": 109, "channel": 0}, {"type": "note_on", "time": 29, "note": 79, "velocity": 108, "channel": 0}, {"type": "note_off", "time": 120, "note": 79, "velocity": 108, "channel": 0}, {"type": "end_of_track", "time": 0}]]}