{"ticks_per_beat": 840, "tracks": [[{"type": "note_on", "time": 0, "note": 63, "velocity": 118, "channel": 0}, {"type": "note_off", "time": 3507, "note": 63, "velocity": 118, "channel": 0}, {"type": "note_on", "time": 104, "note": 64, "velocity": 112, "channel": 0}, {"type": "note_off", "time": 256, "note": 64, "velocity": 112, "channel": 0}, {"type": "note_on", "time": 30, "note": 65, "velocity": 121, "channel": 0}, {"type": "note_off", "time": 120, "note": 65, "velocity": 121, "channel": 0}, {"type": "note_on", "time": 18, "note": 66, "velocity": 115, "channel": 0}, {"type": "track_name", "name": "Melody", "time": 3308}, {"type": "set_tempo", "tempo": 322580, "time": 0}, {"type": "key_signature", "key": "G", "time": 0}, {"type": "time_signature", "numerator": 1, "denominator": 4, "clocks_per_click": 24, "notated_32nd_notes_per_beat": 8, "time": 0}, {"type": "note_off", "time": 1070, "note": 66, "velocity": 115, "channel": 0}, {"type": "note_on", "time": 0, "note": 64, "velocity": 105, "channel": 0}, {"type": "note_off", "time": 10626, "note": 64, "velocity": 105, "channel": 0}, {"type": "note_on", "time": 937, "note": 71, "velocity": 124, "channel": 0}, {"type": "note_off", "time": 393, "note": 71, "velocity": 124, "channel": 0}, {"type": "note_on", "time": 15, "note": 69, "velocity": 122, "channel": 0}, {"type": "note_off", "time": 347, "note": 69, "velocity": 122, "channel": 0}, {"type": "note_on", "time": 75, "note": 70, "velocity": 112, "channel": 0}, {"type": "note_off", "time": 241, "note": 70, "velocity": 112, "channel": 0}, {"type": "note_on", "time": 15, "note": 71, "velocity": 113, "channel": 0}, {"type": "note_off", "time": 4202, "note": 71, "velocity": 113, "channel": 0}, {"type": "note_on", "time": 60, "note": 69, "velocity": 114, "channel": 0}, {"type": "note_off", "time": 362, "note": 69, "velocity": 114, "channel": 0}, {"type": "note_on", "time": 15, "note": 67, "velocity": 111, "channel": 0}, {"type": "note_off", "time": 287, "note": 67, "velocity": 111, "channel": 0}, {"type": "note_on", "time": 221, "note": 70, "velocity": 113, "channel": 0}, {"type": "note_off", "time": 159, "note": 70, "velocity": 113, "channel": 0}, {"type": "note_on", "time": 31, "note": 71, "velocity": 110, "channel": 0}, {"type": "note_off", "time": 5526, "note": 71, "velocity": 110, "channel": 0}, {"type": "note_on", "time": 1902, "note": 69, "velocity": 117, "channel": 0}, {"type": "note_off", "time": 467, "note": 69, "velocity": 117, "channel": 0}, {"type": "note_on", "time": 21, "note": 67, "velocity": 112, "channel": 0}, {"type": "note_off", "time": 276, "note": 67, "velocity": 112, "channel": 0}, {"type": "note_on", "time": 329, "note": 69, "velocity": 109, "channel": 0}, {"type": "note_off", "time": 148, "note": 69, "velocity": 109, "channel": 0}, {"type": "note_on", "time": 31, "note": 71, "velocity": 105, "channel": 0}, {"type": "note_off", "time": 6791, "note": 71, "velocity": 105, "channel": 0}, {"type": "note_on", "time": 127, "note": 69, "velocity": 107, "channel": 0}, {"type": "note_off", "time": 414, "note": 69, "velocity": 107, "channel": 0}, {"type": "note_on", "time": 21, "note": 67, "velocity": 103, "channel": 0}, {"type": "note_off", "time": 372, "note": 67, "velocity": 103, "channel": 0}, {"type": "note_on", "time": 318, "note": 64, "velocity": 107, "channel": 0}, {"type": "note_off", "time": 435, "note": 64, "velocity": 107, "channel": 0}, {"type": "note_on", "time": 10, "note": 67, "velocity": 107, "channel": 0}, {"type": "note_off", "time": 329, "note": 67, "velocity": 107, "channel": 0}, {"type": "note_on", "time": 233, "note": 64, "velocity": 95, "channel": 0}, {"type": "note_off", "time": 5176, "note": 64, "velocity": 95, "channel": 0}, {"type": "note_on", "time": 1264, "note": 62, "velocity": 106, "channel": 0}, {"type": "note_off", "time": 1116, "note": 62, "velocity": 106, "channel": 0}, {"type": "note_on", "time": 116, "note": 59, "velocity": 98, "channel": 0}, {"type": "note_off", "time": 4591, "note": 59, "velocity": 98, "channel": 0}, {"type": "note_on", "time": 1147, "note": 57, "velocity": 110, "channel": 0}, {"type": "note_off", "time": 382, "note": 57, "velocity": 110, "channel": 0}, {"type": "note_on", "time": 63, "note": 55, "velocity": 104, "channel": 0}, {"type": "note_off", "time": 340, "note": 55, "velocity": 104, "channel": 0}, {"type": "note_on", "time": 159, "note": 57, "velocity": 103, "channel": 0}, {"type": "note_off", "time": 1073, "note": 57, "velocity": 103, "channel": 0}, {"type": "note_on", "time": 95, "note": 55, "velocity": 107, "channel": 0}, {"type": "note_off", "time": 520, "note": 55, "velocity": 107, "channel": 0}, {"type": "note_on", "time": 95, "note": 52, "velocity": 99, "channel": 0}, {"type": "note_off", "time": 255, "note": 52, "velocity": 99, "channel": 0}, {"type": "note_on", "time": 53, "note": 55, "velocity": 112, "channel": 0}, {"type": "note_off", "time": 297, "note": 55, "velocity": 112, "channel": 0}, {"type": "note_on", "time": 127, "note": 52, "velocity": 105, "channel": 0}, {"type": "note_off", "time": 1466, "note": 52, "velocity": 105, "channel": 0}, {"type": "note_on", "time": 0, "note": 55, "velocity": 110, "channel": 0}, {"type": "note_off", "time": 2146, "note": 55, "velocity": 110, "channel": 0}, {"type": "note_on", "time": 1487, "note": 55, "velocity": 112, "channel": 0}, {"type": "note_off", "time": 425, "note": 55, "velocity": 112, "channel": 0}, {"type": "note_on", "time": 21, "note": 52, "velocity": 108, "channel": 0}, {"type": "note_off", "time": 340, "note": 52, "velocity": 108, "channel": 0}, {"type": "note_on", "time": 31, "note": 55, "velocity": 109, "channel": 0}, {"type": "note_off", "time": 2869, "note": 55, "velocity": 109, "channel": 0}, {"type": "note_on", "time": 42, "note": 52, "velocity": 101, "channel": 0}, {"type": "note_off", "time": 414, "note": 52, "velocity": 101, "channel": 0}, {"type": "note_on", "time": 31, "note": 57, "velocity": 107, "channel": 0}, {"type": "note_off", "time": 329, "note": 57, "velocity": 107, "channel": 0}, {"type": "note_on", "time": 42, "note": 59, "velocity": 107, "channel": 0}, {"type": "note_off", "time": 297, "note": 59, "velocity": 107, "channel": 0}, {"type": "note_on", "time": 21, "note": 57, "velocity": 102, "channel": 0}, {"type": "note_off", "time": 2380, "note": 57, "velocity": 102, "channel": 0}, {"type": "note_on", "time": 1381, "note": 59, "velocity": 112, "channel": 0}, {"type": "note_off", "time": 329, "note": 59, "velocity": 112, "channel": 0}, {"type": "note_on", "time": 10, "note": 62, "velocity": 118, "channel": 0}, {"type": "note_off", "time": 425, "note": 62, "velocity": 118, "channel": 0}, {"type": "note_on", "time": 159, "note": 67, "velocity": 121, "channel": 0}, {"type": "note_off", "time": 372, "note": 67, "velocity": 121, "channel": 0}, {"type": "note_on", "time": 53, "note": 64, "velocity": 111, "channel": 0}, {"type": "note_off", "time": 318, "note": 64, "velocity": 111, "channel": 0}, {"type": "note_on", "time": 159, "note": 69, "velocity": 119, "channel": 0}, {"type": "note_off", "time": 552, "note": 69, "velocity": 119, "channel": 0}, {"type": "note_on", "time": 53, "note": 67, "velocity": 114, "channel": 0}, {"type": "note_off", "time": 255, "note": 67, "velocity": 114, "channel": 0}, {"type": "note_on", "time": 308, "note": 64, "velocity": 111, "channel": 0}, {"type": "note_off", "time": 308, "note": 64, "velocity": 111, "channel": 0}, {"type": "note_on", "time": 21, "note": 67, "velocity": 113, "channel": 0}, {"type": "note_off", "time": 276, "note": 67, "velocity": 113, "channel": 0}, {"type": "note_on", "time": 191, "note": 64, "velocity": 106, "channel": 0}, {"type": "note_off", "time": 542, "note": 64, "velocity": 106, "channel": 0}, {"type": "note_on", "time": 233, "note": 64, "velocity": 110, "channel": 0}, {"type": "note_off", "time": 563, "note": 64, "velocity": 110, "channel": 0}, {"type": "note_on", "time": 265, "note": 64, "velocity": 106, "channel": 0}, {"type": "note_off", "time": 3411, "note": 64, "velocity": 106, "channel": 0}, {"type": "note_on", "time": 1758, "note": 67, "velocity": 116, "channel": 0}, {"type": "note_off", "time": 302, "note": 67, "velocity": 116, "channel": 0}, {"type": "note_on", "time": 7, "note": 68, "velocity": 117, "channel": 0}, {"type": "note_off", "time": 128, "note": 68, "velocity": 117, "channel": 0}, {"type": "note_on", "time": 0, "note": 69, "velocity": 109, "channel": 0}, {"type": "note_off", "time": 4625, "note": 69, "velocity": 109, "channel": 0}, {"type": "note_on", "time": 1231, "note": 69, "velocity": 115, "channel": 0}, {"type": "note_off", "time": 506, "note": 69, "velocity": 115, "channel": 0}, {"type": "note_on", "time": 30, "note": 67, "velocity": 115, "channel": 0}, {"type": "note_off", "time": 302, "note": 67, "velocity": 115, "channel": 0}, {"type": "note_on", "time": 151, "note": 64, "velocity": 110, "channel": 0}, {"type": "note_off", "time": 279, "note": 64, "velocity": 110, "channel": 0}, {"type": "note_on", "time": 60, "note": 67, "velocity": 117, "channel": 0}, {"type": "note_off", "time": 287, "note": 67, "velocity": 117, "channel": 0}, {"type": "note_on", "time": 60, "note": 64, "velocity": 105, "channel": 0}, {"type": "note_off", "time": 264, "note": 64, "velocity": 105, "channel": 0}, {"type": "note_on", "time": 45, "note": 67, "velocity": 116, "channel": 0}, {"type": "note_off", "time": 332, "note": 67, "velocity": 116, "channel": 0}, {"type": "note_on", "time": 219, "note": 68, "velocity": 116, "channel": 0}, {"type": "note_off", "time": 188, "note": 68, "velocity": 116, "channel": 0}, {"type": "note_on", "time": 22, "note": 69, "velocity": 117, "channel": 0}, {"type": "note_off", "time": 521, "note": 69, "velocity": 117, "channel": 0}, {"type": "note_on", "time": 219, "note": 69, "velocity": 115, "channel": 0}, {"type": "note_off", "time": 619, "note": 69, "velocity": 115, "channel": 0}, {"type": "note_on", "time": 181, "note": 69, "velocity": 114, "channel": 0}, {"type": "note_off", "time": 770, "note": 69, "velocity": 114, "channel": 0}, {"type": "note_on", "time": 22, "note": 67, "velocity": 110, "channel": 0}, {"type": "note_off", "time": 332, "note": 67, "velocity": 110, "channel": 0}, {"type": "note_on", "time": 166, "note": 68, "velocity": 115, "channel": 0}, {"type": "note_off", "time": 128, "note": 68, "velocity": 115, "channel": 0}, {"type": "note_on", "time": 7, "note": 69, "velocity": 106, "channel": 0}, {"type": "note_off", "time": 3333, "note": 69, "velocity": 106, "channel": 0}, {"type": "note_on", "time": 1685, "note": 69, "velocity": 116, "channel": 0}, {"type": "note_off", "time": 400, "note": 69, "velocity": 116, "channel": 0}, {"type": "note_on", "time": 22, "note": 67, "velocity": 114, "channel": 0}, {"type": "note_off", "time": 249, "note": 67, "velocity": 114, "channel": 0}, {"type": "note_on", "time": 94, "note": 64, "velocity": 113, "channel": 0}, {"type": "note_off", "time": 287, "note": 64, "velocity": 113, "channel": 0}, {"type": "note_on", "time": 71, "note": 67, "velocity": 114, "channel": 0}, {"type": "note_off", "time": 340, "note": 67, "velocity": 114, "channel": 0}, {"type": "note_on", "time": 113, "note": 64, "velocity": 109, "channel": 0}, {"type": "note_off", "time": 226, "note": 64, "velocity": 109, "channel": 0}, {"type": "note_on", "time": 45, "note": 67, "velocity": 114, "channel": 0}, {"type": "note_off", "time": 340, "note": 67, "velocity": 114, "channel": 0}, {"type": "note_on", "time": 153, "note": 68, "velocity": 120, "channel": 0}, {"type": "note_off", "time": 201, "note": 68, "velocity": 120, "channel": 0}, {"type": "note_on", "time": 7, "note": 69, "velocity": 114, "channel": 0}, {"type": "note_off", "time": 3952, "note": 69, "velocity": 114, "channel": 0}, {"type": "note_on", "time": 2013, "note": 69, "velocity": 116, "channel": 0}, {"type": "note_off", "time": 478, "note": 69, "velocity": 116, "channel": 0}, {"type": "note_on", "time": 21, "note": 67, "velocity": 111, "channel": 0}, {"type": "note_off", "time": 286, "note": 67, "velocity": 111, "channel": 0}, {"type": "note_on", "time": 95, "note": 64, "velocity": 106, "channel": 0}, {"type": "note_off", "time": 324, "note": 64, "velocity": 106, "channel": 0}, {"type": "note_on", "time": 15, "note": 67, "velocity": 112, "channel": 0}, {"type": "note_off", "time": 324, "note": 67, "velocity": 112, "channel": 0}, {"type": "note_on", "time": 85, "note": 64, "velocity": 107, "channel": 0}, {"type": "note_off", "time": 340, "note": 64, "velocity": 107, "channel": 0}, {"type": "note_on", "time": 21, "note": 67, "velocity": 111, "channel": 0}, {"type": "note_off", "time": 340, "note": 67, "velocity": 111, "channel": 0}, {"type": "note_on", "time": 233, "note": 68, "velocity": 117, "channel": 0}, {"type": "note_off", "time": 95, "note": 68, "velocity": 117, "channel": 0}, {"type": "note_on", "time": 5, "note": 69, "velocity": 116, "channel": 0}, {"type": "note_off", "time": 377, "note": 69, "velocity": 116, "channel": 0}, {"type": "note_on", "time": 0, "note": 67, "velocity": 111, "channel": 0}, {"type": "note_off", "time": 207, "note": 67, "velocity": 111, "channel": 0}, {"type": "note_on", "time": 313, "note": 68, "velocity": 119, "channel": 0}, {"type": "note_off", "time": 58, "note": 68, "velocity": 119, "channel": 0}, {"type": "note_on", "time": 5, "note": 69, "velocity": 116, "channel": 0}, {"type": "note_off", "time": 239, "note": 69, "velocity": 116, "channel": 0}, {"type": "note_on", "time": 10, "note": 71, "velocity": 117, "channel": 0}, {"type": "note_off", "time": 276, "note": 71, "velocity": 117, "channel": 0}, {"type": "note_on", "time": 127, "note": 69, "velocity": 110, "channel": 0}, {"type": "note_off", "time": 3895, "note": 69, "velocity": 110, "channel": 0}, {"type": "note_on", "time": 1748, "note": 69, "velocity": 119, "channel": 0}, {"type": "note_off", "time": 393, "note": 69, "velocity": 119, "channel": 0}, {"type": "note_on", "time": 10, "note": 67, "velocity": 114, "channel": 0}, {"type": "note_off", "time": 217, "note": 67, "velocity": 114, "channel": 0}, {"type": "note_on", "time": 249, "note": 69, "velocity": 105, "channel": 0}, {"type": "note_off", "time": 148, "note": 69, "velocity": 105, "channel": 0}, {"type": "note_on", "time": 21, "note": 71, "velocity": 110, "channel": 0}, {"type": "note_off", "time": 3884, "note": 71, "velocity": 110, "channel": 0}, {"type": "note_on", "time": 1461, "note": 69, "velocity": 122, "channel": 0}, {"type": "note_off", "time": 345, "note": 69, "velocity": 122, "channel": 0}, {"type": "note_on", "time": 26, "note": 67, "velocity": 118, "channel": 0}, {"type": "note_off", "time": 281, "note": 67, "velocity": 118, "channel": 0}, {"type": "note_on", "time": 260, "note": 69, "velocity": 119, "channel": 0}, {"type": "note_off", "time": 255, "note": 69, "velocity": 119, "channel": 0}, {"type": "note_on", "time": 47, "note": 71, "velocity": 119, "channel": 0}, {"type": "note_off", "time": 308, "note": 71, "velocity": 119, "channel": 0}, {"type": "note_on", "time": 265, "note": 71, "velocity": 121, "channel": 0}, {"type": "note_off", "time": 228, "note": 71, "velocity": 121, "channel": 0}, {"type": "note_on", "time": 10, "note": 72, "velocity": 118, "channel": 0}, {"type": "note_off", "time": 132, "note": 72, "velocity": 118, "channel": 0}, {"type": "note_on", "time": 15, "note": 74, "velocity": 106, "channel": 0}, {"type": "note_off", "time": 2046, "note": 74, "velocity": 106, "channel": 0}, {"type": "note_on", "time": 31, "note": 71, "velocity": 111, "channel": 0}, {"type": "note_off", "time": 3023, "note": 71, "velocity": 111, "channel": 0}, {"type": "note_on", "time": 1753, "note": 69, "velocity": 120, "channel": 0}, {"type": "note_off", "time": 265, "note": 69, "velocity": 120, "channel": 0}, {"type": "note_on", "time": 21, "note": 71, "velocity": 119, "channel": 0}, {"type": "note_off", "time": 207, "note": 71, "velocity": 119, "channel": 0}, {"type": "note_on", "time": 148, "note": 64, "velocity": 108, "channel": 0}, {"type": "note_off", "time": 249, "note": 64, "velocity": 108, "channel": 0}, {"type": "note_on", "time": 116, "note": 67, "velocity": 118, "channel": 0}, {"type": "note_off", "time": 286, "note": 67, "velocity": 118, "channel": 0}, {"type": "note_on", "time": 37, "note": 69, "velocity": 118, "channel": 0}, {"type": "note_off", "time": 366, "note": 69, "velocity": 118, "channel": 0}, {"type": "note_on", "time": 143, "note": 71, "velocity": 119, "channel": 0}, {"type": "note_off", "time": 393, "note": 71, "velocity": 119, "channel": 0}, {"type": "note_on", "time": 15, "note": 74, "velocity": 113, "channel": 0}, {"type": "note_off", "time": 361, "note": 74, "velocity": 113, "channel": 0}, {"type": "note_on", "time": 196, "note": 74, "velocity": 115, "channel": 0}, {"type": "note_off", "time": 393, "note": 74, "velocity": 115, "channel": 0}, {"type": "note_on", "time": 37, "note": 71, "velocity": 119, "channel": 0}, {"type": "note_off", "time": 611, "note": 71, "velocity": 119, "channel": 0}, {"type": "note_on", "time": 898, "note": 69, "velocity": 115, "channel": 0}, {"type": "note_off", "time": 191, "note": 69, "velocity": 115, "channel": 0}, {"type": "note_on", "time": 5, "note": 71, "velocity": 112, "channel": 0}, {"type": "note_off", "time": 249, "note": 71, "velocity": 112, "channel": 0}, {"type": "note_on", "time": 90, "note": 64, "velocity": 119, "channel": 0}, {"type": "note_off", "time": 382, "note": 64, "velocity": 119, "channel": 0}, {"type": "note_on", "time": 47, "note": 67, "velocity": 113, "channel": 0}, {"type": "note_off", "time": 308, "note": 67, "velocity": 113, "channel": 0}, {"type": "note_on", "time": 26, "note": 69, "velocity": 110, "channel": 0}, {"type": "note_off", "time": 361, "note": 69, "velocity": 110, "channel": 0}, {"type": "note_on", "time": 74, "note": 71, "velocity": 120, "channel": 0}, {"type": "note_off", "time": 302, "note": 71, "velocity": 120, "channel": 0}, {"type": "note_on", "time": 21, "note": 74, "velocity": 110, "channel": 0}, {"type": "note_off", "time": 547, "note": 74, "velocity": 110, "channel": 0}, {"type": "note_on", "time": 180, "note": 74, "velocity": 114, "channel": 0}, {"type": "note_off", "time": 494, "note": 74, "velocity": 114, "channel": 0}, {"type": "note_on", "time": 63, "note": 69, "velocity": 116, "channel": 0}, {"type": "note_off", "time": 393, "note": 69, "velocity": 116, "channel": 0}, {"type": "note_on", "time": 904, "note": 69, "velocity": 116, "channel": 0}, {"type": "note_off", "time": 238, "note": 69, "velocity": 116, "channel": 0}, {"type": "note_on", "time": 15, "note": 71, "velocity": 116, "channel": 0}, {"type": "note_off", "time": 230, "note": 71, "velocity": 116, "channel": 0}, {"type": "note_on", "time": 79, "note": 64, "velocity": 114, "channel": 0}, {"type": "note_off", "time": 336, "note": 64, "velocity": 114, "channel": 0}, {"type": "note_on", "time": 7, "note": 67, "velocity": 113, "channel": 0}, {"type": "note_off", "time": 253, "note": 67, "velocity": 113, "channel": 0}, {"type": "note_on", "time": 49, "note": 69, "velocity": 109, "channel": 0}, {"type": "note_off", "time": 393, "note": 69, "velocity": 109, "channel": 0}, {"type": "note_on", "time": 37, "note": 71, "velocity": 113, "channel": 0}, {"type": "note_off", "time": 313, "note": 71, "velocity": 113, "channel": 0}, {"type": "note_on", "time": 105, "note": 74, "velocity": 118, "channel": 0}, {"type": "note_off", "time": 510, "note": 74, "velocity": 118, "channel": 0}, {"type": "note_on", "time": 94, "note": 74, "velocity": 115, "channel": 0}, {"type": "note_off", "time": 461, "note": 74, "velocity": 115, "channel": 0}, {"type": "note_on", "time": 15, "note": 71, "velocity": 111, "channel": 0}, {"type": "note_off", "time": 347, "note": 71, "velocity": 111, "channel": 0}, {"type": "note_on", "time": 922, "note": 69, "velocity": 116, "channel": 0}, {"type": "note_off", "time": 234, "note": 69, "velocity": 116, "channel": 0}, {"type": "note_on", "time": 15, "note": 71, "velocity": 120, "channel": 0}, {"type": "note_off", "time": 219, "note": 71, "velocity": 120, "channel": 0}, {"type": "note_on", "time": 128, "note": 64, "velocity": 114, "channel": 0}, {"type": "note_off", "time": 336, "note": 64, "velocity": 114, "channel": 0}, {"type": "note_on", "time": 11, "note": 67, "velocity": 115, "channel": 0}, {"type": "note_off", "time": 211, "note": 67, "velocity": 115, "channel": 0}, {"type": "note_on", "time": 90, "note": 67, "velocity": 113, "channel": 0}, {"type": "note_off", "time": 181, "note": 67, "velocity": 113, "channel": 0}, {"type": "note_on", "time": 56, "note": 69, "velocity": 120, "channel": 0}, {"type": "note_off", "time": 294, "note": 69, "velocity": 120, "channel": 0}, {"type": "note_on", "time": 147, "note": 71, "velocity": 122, "channel": 0}, {"type": "note_off", "time": 245, "note": 71, "velocity": 122, "channel": 0}, {"type": "note_on", "time": 41, "note": 74, "velocity": 115, "channel": 0}, {"type": "note_off", "time": 268, "note": 74, "velocity": 115, "channel": 0}, {"type": "note_on", "time": 275, "note": 79, "velocity": 109, "channel": 0}, {"type": "note_off", "time": 483, "note": 79, "velocity": 109, "channel": 0}, {"type": "note_on", "time": 128, "note": 74, "velocity": 113, "channel": 0}, {"type": "note_off", "time": 532, "note": 74, "velocity": 113, "channel": 0}, {"type": "note_on", "time": 166, "note": 71, "velocity": 116, "channel": 0}, {"type": "note_off", "time": 419, "note": 71, "velocity": 116, "channel": 0}, {"type": "note_on", "time": 249, "note": 69, "velocity": 112, "channel": 0}, {"type": "note_off", "time": 253, "note": 69, "velocity": 112, "channel": 0}, {"type": "note_on", "time": 7, "note": 71, "velocity": 114, "channel": 0}, {"type": "note_off", "time": 476, "note": 71, "velocity": 114, "channel": 0}, {"type": "note_on", "time": 699, "note": 69, "velocity": 117, "channel": 0}, {"type": "note_off", "time": 200, "note": 69, "velocity": 117, "channel": 0}, {"type": "note_on", "time": 15, "note": 71, "velocity": 120, "channel": 0}, {"type": "note_off", "time": 238, "note": 71, "velocity": 120, "channel": 0}, {"type": "note_on", "time": 30, "note": 64, "velocity": 112, "channel": 0}, {"type": "note_off", "time": 355, "note": 64, "velocity": 112, "channel": 0}, {"type": "note_on", "time": 49, "note": 67, "velocity": 113, "channel": 0}, {"type": "note_off", "time": 249, "note": 67, "velocity": 113, "channel": 0}, {"type": "note_on", "time": 109, "note": 69, "velocity": 121, "channel": 0}, {"type": "note_off", "time": 279, "note": 69, "velocity": 121, "channel": 0}, {"type": "note_on", "time": 7, "note": 71, "velocity": 118, "channel": 0}, {"type": "note_off", "time": 268, "note": 71, "velocity": 118, "channel": 0}, {"type": "note_on", "time": 15, "note": 74, "velocity": 111, "channel": 0}, {"type": "note_off", "time": 294, "note": 74, "velocity": 111, "channel": 0}, {"type": "note_on", "time": 181, "note": 79, "velocity": 105, "channel": 0}, {"type": "note_off", "time": 517, "note": 79, "velocity": 105, "channel": 0}, {"type": "note_on", "time": 222, "note": 74, "velocity": 116, "channel": 0}, {"type": "note_off", "time": 279, "note": 74, "velocity": 116, "channel": 0}, {"type": "note_on", "time": 52, "note": 71, "velocity": 115, "channel": 0}, {"type": "note_off", "time": 302, "note": 71, "velocity": 115, "channel": 0}, {"type": "note_on", "time": 22, "note": 69, "velocity": 111, "channel": 0}, {"type": "note_off", "time": 328, "note": 69, "velocity": 111, "channel": 0}, {"type": "note_on", "time": 11, "note": 71, "velocity": 117, "channel": 0}, {"type": "note_off", "time": 563, "note": 71, "velocity": 117, "channel": 0}, {"type": "note_on", "time": 755, "note": 69, "velocity": 120, "channel": 0}, {"type": "note_off", "time": 215, "note": 69, "velocity": 120, "channel": 0}, {"type": "note_on", "time": 11, "note": 71, "velocity": 117, "channel": 0}, {"type": "note_off", "time": 585, "note": 71, "velocity": 117, "channel": 0}, {"type": "note_on", "time": 22, "note": 67, "velocity": 119, "channel": 0}, {"type": "note_off", "time": 272, "note": 67, "velocity": 119, "channel": 0}, {"type": "note_on", "time": 7, "note": 69, "velocity": 118, "channel": 0}, {"type": "note_off", "time": 215, "note": 69, "velocity": 118, "channel": 0}, {"type": "note_on", "time": 0, "note": 71, "velocity": 121, "channel": 0}, {"type": "note_off", "time": 185, "note": 71, "velocity": 121, "channel": 0}, {"type": "note_on", "time": 18, "note": 74, "velocity": 117, "channel": 0}, {"type": "note_off", "time": 272, "note": 74, "velocity": 117, "channel": 0}, {"type": "note_on", "time": 880, "note": 71, "velocity": 118, "channel": 0}, {"type": "note_off", "time": 374, "note": 71, "velocity": 118, "channel": 0}, {"type": "note_on", "time": 445, "note": 78, "velocity": 109, "channel": 0}, {"type": "note_off", "time": 75, "note": 78, "velocity": 109, "channel": 0}, {"type": "note_on", "time": 11, "note": 79, "velocity": 114, "channel": 0}, {"type": "note_off", "time": 906, "note": 79, "velocity": 114, "channel": 0}, {"type": "note_on", "time": 34, "note": 74, "velocity": 109, "channel": 0}, {"type": "note_off", "time": 506, "note": 74, "velocity": 109, "channel": 0}, {"type": "note_on", "time": 15, "note": 71, "velocity": 110, "channel": 0}, {"type": "note_off", "time": 1711, "note": 71, "velocity": 110, "channel": 0}, {"type": "note_on", "time": 971, "note": 71, "velocity": 116, "channel": 0}, {"type": "note_off", "time": 362, "note": 71, "velocity": 116, "channel": 0}, {"type": "note_on", "time": 11, "note": 69, "velocity": 111, "channel": 0}, {"type": "note_off", "time": 294, "note": 69, "velocity": 111, "channel": 0}, {"type": "note_on", "time": 11, "note": 64, "velocity": 112, "channel": 0}, {"type": "note_off", "time": 351, "note": 64, "velocity": 112, "channel": 0}, {"type": "note_on", "time": 45, "note": 67, "velocity": 114, "channel": 0}, {"type": "note_off", "time": 472, "note": 67, "velocity": 114, "channel": 0}, {"type": "note_on", "time": 49, "note": 69, "velocity": 110, "channel": 0}, {"type": "note_off", "time": 377, "note": 69, "velocity": 110, "channel": 0}, {"type": "note_on", "time": 207, "note": 63, "velocity": 116, "channel": 0}, {"type": "note_off", "time": 381, "note": 63, "velocity": 116, "channel": 0}, {"type": "note_on", "time": 15, "note": 67, "velocity": 114, "channel": 0}, {"type": "note_off", "time": 245, "note": 67, "velocity": 114, "channel": 0}, {"type": "note_on", "time": 71, "note": 61, "velocity": 114, "channel": 0}, {"type": "note_off", "time": 672, "note": 61, "velocity": 114, "channel": 0}, {"type": "note_on", "time": 52, "note": 66, "velocity": 107, "channel": 0}, {"type": "note_off", "time": 279, "note": 66, "velocity": 107, "channel": 0}, {"type": "note_on", "time": 45, "note": 63, "velocity": 116, "channel": 0}, {"type": "note_off", "time": 279, "note": 63, "velocity": 116, "channel": 0}, {"type": "note_on", "time": 7, "note": 59, "velocity": 109, "channel": 0}, {"type": "note_off", "time": 279, "note": 59, "velocity": 109, "channel": 0}, {"type": "note_on", "time": 26, "note": 57, "velocity": 113, "channel": 0}, {"type": "note_off", "time": 449, "note": 57, "velocity": 113, "channel": 0}, {"type": "note_on", "time": 18, "note": 59, "velocity": 110, "channel": 0}, {"type": "note_off", "time": 256, "note": 59, "velocity": 110, "channel": 0}, {"type": "note_on", "time": 7, "note": 51, "velocity": 112, "channel": 0}, {"type": "note_off", "time": 272, "note": 51, "velocity": 112, "channel": 0}, {"type": "note_on", "time": 46, "note": 49, "velocity": 109, "channel": 0}, {"type": "note_off", "time": 313, "note": 49, "velocity": 109, "channel": 0}, {"type": "note_on", "time": 164, "note": 57, "velocity": 108, "channel": 0}, {"type": "note_off", "time": 302, "note": 57, "velocity": 108, "channel": 0}, {"type": "note_on", "time": 37, "note": 53, "velocity": 113, "channel": 0}, {"type": "note_off", "time": 324, "note": 53, "velocity": 113, "channel": 0}, {"type": "note_on", "time": 37, "note": 51, "velocity": 110, "channel": 0}, {"type": "note_off", "time": 951, "note": 51, "velocity": 110, "channel": 0}, {"type": "note_on", "time": 1238, "note": 57, "velocity": 110, "channel": 0}, {"type": "note_off", "time": 286, "note": 57, "velocity": 110, "channel": 0}, {"type": "note_on", "time": 15, "note": 55, "velocity": 108, "channel": 0}, {"type": "note_off", "time": 260, "note": 55, "velocity": 108, "channel": 0}, {"type": "note_on", "time": 21, "note": 57, "velocity": 112, "channel": 0}, {"type": "note_off", "time": 249, "note": 57, "velocity": 112, "channel": 0}, {"type": "note_on", "time": 42, "note": 59, "velocity": 109, "channel": 0}, {"type": "note_off", "time": 228, "note": 59, "velocity": 109, "channel": 0}, {"type": "note_on", "time": 21, "note": 61, "velocity": 113, "channel": 0}, {"type": "note_off", "time": 255, "note": 61, "velocity": 113, "channel": 0}, {"type": "note_on", "time": 31, "note": 59, "velocity": 106, "channel": 0}, {"type": "note_off", "time": 207, "note": 59, "velocity": 106, "channel": 0}, {"type": "note_on", "time": 10, "note": 61, "velocity": 109, "channel": 0}, {"type": "note_off", "time": 228, "note": 61, "velocity": 109, "channel": 0}, {"type": "note_on", "time": 10, "note": 63, "velocity": 116, "channel": 0}, {"type": "note_off", "time": 260, "note": 63, "velocity": 116, "channel": 0}, {"type": "note_on", "time": 21, "note": 66, "velocity": 112, "channel": 0}, {"type": "note_off", "time": 196, "note": 66, "velocity": 112, "channel": 0}, {"type": "note_on", "time": 10, "note": 63, "velocity": 114, "channel": 0}, {"type": "note_off", "time": 1100, "note": 63, "velocity": 114, "channel": 0}, {"type": "note_on", "time": 26, "note": 67, "velocity": 110, "channel": 0}, {"type": "note_off", "time": 228, "note": 67, "velocity": 110, "channel": 0}, {"type": "note_on", "time": 31, "note": 69, "velocity": 112, "channel": 0}, {"type": "note_off", "time": 217, "note": 69, "velocity": 112, "channel": 0}, {"type": "note_on", "time": 5, "note": 71, "velocity": 114, "channel": 0}, {"type": "note_off", "time": 154, "note": 71, "velocity": 114, "channel": 0}, {"type": "note_on", "time": 15, "note": 73, "velocity": 116, "channel": 0}, {"type": "note_off", "time": 313, "note": 73, "velocity": 116, "channel": 0}, {"type": "note_on", "time": 58, "note": 69, "velocity": 110, "channel": 0}, {"type": "note_off", "time": 526, "note": 69, "velocity": 110, "channel": 0}, {"type": "note_on", "time": 1405, "note": 67, "velocity": 118, "channel": 0}, {"type": "note_off", "time": 268, "note": 67, "velocity": 118, "channel": 0}, {"type": "note_on", "time": 7, "note": 68, "velocity": 109, "channel": 0}, {"type": "note_off", "time": 154, "note": 68, "velocity": 109, "channel": 0}, {"type": "note_on", "time": 15, "note": 69, "velocity": 110, "channel": 0}, {"type": "note_off", "time": 1307, "note": 69, "velocity": 110, "channel": 0}, {"type": "note_on", "time": 34, "note": 67, "velocity": 119, "channel": 0}, {"type": "note_off", "time": 185, "note": 67, "velocity": 119, "channel": 0}, {"type": "note_on", "time": 11, "note": 63, "velocity": 114, "channel": 0}, {"type": "note_off", "time": 158, "note": 63, "velocity": 114, "channel": 0}, {"type": "note_on", "time": 30, "note": 67, "velocity": 109, "channel": 0}, {"type": "note_off", "time": 192, "note": 67, "velocity": 109, "channel": 0}, {"type": "note_on", "time": 18, "note": 63, "velocity": 109, "channel": 0}, {"type": "note_off", "time": 177, "note": 63, "velocity": 109, "channel": 0}, {"type": "note_on", "time": 30, "note": 61, "velocity": 110, "channel": 0}, {"type": "note_off", "time": 245, "note": 61, "velocity": 110, "channel": 0}, {"type": "note_on", "time": 64, "note": 55, "velocity": 105, "channel": 0}, {"type": "note_off", "time": 185, "note": 55, "velocity": 105, "channel": 0}, {"type": "note_on", "time": 37, "note": 63, "velocity": 110, "channel": 0}, {"type": "note_off", "time": 207, "note": 63, "velocity": 110, "channel": 0}, {"type": "note_on", "time": 37, "note": 59, "velocity": 107, "channel": 0}, {"type": "note_off", "time": 226, "note": 59, "velocity": 107, "channel": 0}, {"type": "note_on", "time": 30, "note": 55, "velocity": 107, "channel": 0}, {"type": "note_off", "time": 272, "note": 55, "velocity": 107, "channel": 0}, {"type": "note_on", "time": 49, "note": 51, "velocity": 115, "channel": 0}, {"type": "note_off", "time": 234, "note": 51, "velocity": 115, "channel": 0}, {"type": "note_on", "time": 15, "note": 57, "velocity": 115, "channel": 0}, {"type": "note_off", "time": 215, "note": 57, "velocity": 115, "channel": 0}, {"type": "note_on", "time": 26, "note": 53, "velocity": 119, "channel": 0}, {"type": "note_off", "time": 222, "note": 53, "velocity": 119, "channel": 0}, {"type": "note_on", "time": 22, "note": 49, "velocity": 116, "channel": 0}, {"type": "note_off", "time": 238, "note": 49, "velocity": 116, "channel": 0}, {"type": "note_on", "time": 3, "note": 51, "velocity": 114, "channel": 0}, {"type": "note_on", "time": 215, "note": 54, "velocity": 117, "channel": 0}, {"type": "note_off", "time": 0, "note": 51, "velocity": 114, "channel": 0}, {"type": "note_off", "time": 283, "note": 54, "velocity": 117, "channel": 0}, {"type": "note_on", "time": 18, "note": 51, "velocity": 111, "channel": 0}, {"type": "note_off", "time": 290, "note": 51, "velocity": 111, "channel": 0}, {"type": "note_on", "time": 1080, "note": 51, "velocity": 118, "channel": 0}, {"type": "note_off", "time": 302, "note": 51, "velocity": 118, "channel": 0}, {"type": "note_on", "time": 75, "note": 55, "velocity": 120, "channel": 0}, {"type": "note_off", "time": 211, "note": 55, "velocity": 120, "channel": 0}, {"type": "note_on", "time": 52, "note": 57, "velocity": 108, "channel": 0}, {"type": "note_off", "time": 275, "note": 57, "velocity": 108, "channel": 0}, {"type": "note_on", "time": 1043, "note": 57, "velocity": 113, "channel": 0}, {"type": "note_off", "time": 256, "note": 57, "velocity": 113, "channel": 0}, {"type": "note_on", "time": 52, "note": 63, "velocity": 117, "channel": 0}, {"type": "note_off", "time": 324, "note": 63, "velocity": 117, "channel": 0}, {"type": "note_on", "time": 26, "note": 59, "velocity": 106, "channel": 0}, {"type": "note_off", "time": 1197, "note": 59, "velocity": 106, "channel": 0}, {"type": "note_on", "time": 566, "note": 59, "velocity": 108, "channel": 0}, {"type": "note_off", "time": 256, "note": 59, "velocity": 108, "channel": 0}, {"type": "note_on", "time": 49, "note": 63, "velocity": 116, "channel": 0}, {"type": "note_off", "time": 253, "note": 63, "velocity": 116, "channel": 0}, {"type": "note_on", "time": 22, "note": 67, "velocity": 109, "channel": 0}, {"type": "note_off", "time": 861, "note": 67, "velocity": 109, "channel": 0}, {"type": "note_on", "time": 132, "note": 65, "velocity": 116, "channel": 0}, {"type": "note_off", "time": 279, "note": 65, "velocity": 116, "channel": 0}, {"type": "note_on", "time": 30, "note": 61, "velocity": 113, "channel": 0}, {"type": "note_off", "time": 196, "note": 61, "velocity": 113, "channel": 0}, {"type": "note_on", "time": 105, "note": 65, "velocity": 110, "channel": 0}, {"type": "note_off", "time": 241, "note": 65, "velocity": 110, "channel": 0}, {"type": "note_on", "time": 3, "note": 63, "velocity": 117, "channel": 0}, {"type": "note_off", "time": 287, "note": 63, "velocity": 117, "channel": 0}, {"type": "note_on", "time": 18, "note": 59, "velocity": 110, "channel": 0}, {"type": "note_off", "time": 340, "note": 59, "velocity": 110, "channel": 0}, {"type": "note_on", "time": 927, "note": 57, "velocity": 115, "channel": 0}, {"type": "note_off", "time": 350, "note": 57, "velocity": 115, "channel": 0}, {"type": "note_on", "time": 15, "note": 53, "velocity": 113, "channel": 0}, {"type": "note_off", "time": 228, "note": 53, "velocity": 113, "channel": 0}, {"type": "note_on", "time": 10, "note": 51, "velocity": 115, "channel": 0}, {"type": "note_off", "time": 292, "note": 51, "velocity": 115, "channel": 0}, {"type": "note_on", "time": 10, "note": 55, "velocity": 110, "channel": 0}, {"type": "note_on", "time": 276, "note": 49, "velocity": 115, "channel": 0}, {"type": "note_off", "time": 0, "note": 55, "velocity": 110, "channel": 0}, {"type": "note_off", "time": 217, "note": 49, "velocity": 115, "channel": 0}, {"type": "note_on", "time": 21, "note": 51, "velocity": 114, "channel": 0}, {"type": "note_off", "time": 223, "note": 51, "velocity": 114, "channel": 0}, {"type": "note_on", "time": 47, "note": 53, "velocity": 120, "channel": 0}, {"type": "note_off", "time": 255, "note": 53, "velocity": 120, "channel": 0}, {"type": "note_on", "time": 63, "note": 51, "velocity": 118, "channel": 0}, {"type": "note_off", "time": 302, "note": 51, "velocity": 118, "channel": 0}, {"type": "note_on", "time": 69, "note": 55, "velocity": 114, "channel": 0}, {"type": "note_off", "time": 377, "note": 55, "velocity": 114, "channel": 0}, {"type": "note_on", "time": 999, "note": 55, "velocity": 119, "channel": 0}, {"type": "note_off", "time": 370, "note": 55, "velocity": 119, "channel": 0}, {"type": "note_on", "time": 0, "note": 53, "velocity": 116, "channel": 0}, {"type": "note_off", "time": 265, "note": 53, "velocity": 116, "channel": 0}, {"type": "note_on", "time": 54, "note": 57, "velocity": 115, "channel": 0}, {"type": "note_off", "time": 1254, "note": 57, "velocity": 115, "channel": 0}, {"type": "note_on", "time": 116, "note": 55, "velocity": 111, "channel": 0}, {"type": "note_off", "time": 318, "note": 55, "velocity": 111, "channel": 0}, {"type": "note_on", "time": 15, "note": 51, "velocity": 108, "channel": 0}, {"type": "note_off", "time": 361, "note": 51, "velocity": 108, "channel": 0}, {"type": "note_on", "time": 47, "note": 55, "velocity": 113, "channel": 0}, {"type": "note_off", "time": 345, "note": 55, "velocity": 113, "channel": 0}, {"type": "note_on", "time": 10, "note": 53, "velocity": 111, "channel": 0}, {"type": "note_off", "time": 457, "note": 53, "velocity": 111, "channel": 0}, {"type": "note_on", "time": 1116, "note": 57, "velocity": 116, "channel": 0}, {"type": "note_off", "time": 276, "note": 57, "velocity": 116, "channel": 0}, {"type": "note_on", "time": 47, "note": 62, "velocity": 118, "channel": 0}, {"type": "note_off", "time": 180, "note": 62, "velocity": 118, "channel": 0}, {"type": "note_on", "time": 37, "note": 65, "velocity": 112, "channel": 0}, {"type": "note_off", "time": 217, "note": 65, "velocity": 112, "channel": 0}, {"type": "note_on", "time": 47, "note": 57, "velocity": 113, "channel": 0}, {"type": "note_off", "time": 313, "note": 57, "velocity": 113, "channel": 0}, {"type": "note_on", "time": 47, "note": 63, "velocity": 114, "channel": 0}, {"type": "note_off", "time": 308, "note": 63, "velocity": 114, "channel": 0}, {"type": "note_on", "time": 10, "note": 59, "velocity": 111, "channel": 0}, {"type": "note_off", "time": 313, "note": 59, "velocity": 111, "channel": 0}, {"type": "note_on", "time": 0, "note": 63, "velocity": 118, "channel": 0}, {"type": "note_off", "time": 276, "note": 63, "velocity": 118, "channel": 0}, {"type": "note_on", "time": 15, "note": 67, "velocity": 116, "channel": 0}, {"type": "note_off", "time": 255, "note": 67, "velocity": 116, "channel": 0}, {"type": "note_on", "time": 10, "note": 69, "velocity": 121, "channel": 0}, {"type": "note_off", "time": 69, "note": 69, "velocity": 121, "channel": 0}, {"type": "note_on", "time": 10, "note": 70, "velocity": 116, "channel": 0}, {"type": "note_off", "time": 170, "note": 70, "velocity": 116, "channel": 0}, {"type": "note_on", "time": 26, "note": 70, "velocity": 123, "channel": 0}, {"type": "note_off", "time": 356, "note": 70, "velocity": 123, "channel": 0}, {"type": "note_on", "time": 10, "note": 67, "velocity": 116, "channel": 0}, {"type": "note_off", "time": 244, "note": 67, "velocity": 116, "channel": 0}, {"type": "note_on", "time": 10, "note": 69, "velocity": 120, "channel": 0}, {"type": "note_off", "time": 217, "note": 69, "velocity": 120, "channel": 0}, {"type": "note_on", "time": 5, "note": 71, "velocity": 119, "channel": 0}, {"type": "note_off", "time": 180, "note": 71, "velocity": 119, "channel": 0}, {"type": "note_on", "time": 26, "note": 74, "velocity": 120, "channel": 0}, {"type": "note_off", "time": 292, "note": 74, "velocity": 120, "channel": 0}, {"type": "note_on", "time": 5, "note": 69, "velocity": 119, "channel": 0}, {"type": "note_off", "time": 510, "note": 69, "velocity": 119, "channel": 0}, {"type": "note_on", "time": 1100, "note": 69, "velocity": 115, "channel": 0}, {"type": "note_off", "time": 361, "note": 69, "velocity": 115, "channel": 0}, {"type": "note_on", "time": 31, "note": 67, "velocity": 110, "channel": 0}, {"type": "note_off", "time": 212, "note": 67, "velocity": 110, "channel": 0}, {"type": "note_on", "time": 154, "note": 63, "velocity": 111, "channel": 0}, {"type": "note_off", "time": 318, "note": 63, "velocity": 111, "channel": 0}, {"type": "note_on", "time": 0, "note": 66, "velocity": 115, "channel": 0}, {"type": "note_off", "time": 186, "note": 66, "velocity": 115, "channel": 0}, {"type": "note_on", "time": 5, "note": 67, "velocity": 110, "channel": 0}, {"type": "note_off", "time": 1923, "note": 67, "velocity": 110, "channel": 0}, {"type": "note_on", "time": 26, "note": 64, "velocity": 110, "channel": 0}, {"type": "note_off", "time": 271, "note": 64, "velocity": 110, "channel": 0}, {"type": "note_on", "time": 10, "note": 59, "velocity": 107, "channel": 0}, {"type": "note_off", "time": 398, "note": 59, "velocity": 107, "channel": 0}, {"type": "note_on", "time": 1094, "note": 59, "velocity": 114, "channel": 0}, {"type": "note_off", "time": 223, "note": 59, "velocity": 114, "channel": 0}, {"type": "note_on", "time": 47, "note": 57, "velocity": 112, "channel": 0}, {"type": "note_off", "time": 239, "note": 57, "velocity": 112, "channel": 0}, {"type": "note_on", "time": 21, "note": 54, "velocity": 106, "channel": 0}, {"type": "note_off", "time": 196, "note": 54, "velocity": 106, "channel": 0}, {"type": "note_on", "time": 10, "note": 59, "velocity": 111, "channel": 0}, {"type": "note_off", "time": 297, "note": 59, "velocity": 111, "channel": 0}, {"type": "note_on", "time": 42, "note": 53, "velocity": 112, "channel": 0}, {"type": "note_off", "time": 653, "note": 53, "velocity": 112, "channel": 0}, {"type": "note_on", "time": 52, "note": 52, "velocity": 106, "channel": 0}, {"type": "note_off", "time": 249, "note": 52, "velocity": 106, "channel": 0}, {"type": "note_on", "time": 48, "note": 55, "velocity": 102, "channel": 0}, {"type": "note_off", "time": 255, "note": 55, "velocity": 102, "channel": 0}, {"type": "note_on", "time": 1041, "note": 55, "velocity": 103, "channel": 0}, {"type": "note_off", "time": 340, "note": 55, "velocity": 103, "channel": 0}, {"type": "note_on", "time": 31, "note": 60, "velocity": 110, "channel": 0}, {"type": "note_off", "time": 239, "note": 60, "velocity": 110, "channel": 0}, {"type": "note_on", "time": 26, "note": 64, "velocity": 108, "channel": 0}, {"type": "note_off", "time": 228, "note": 64, "velocity": 108, "channel": 0}, {"type": "note_on", "time": 79, "note": 67, "velocity": 114, "channel": 0}, {"type": "note_off", "time": 488, "note": 67, "velocity": 114, "channel": 0}, {"type": "note_on", "time": 90, "note": 67, "velocity": 113, "channel": 0}, {"type": "note_off", "time": 223, "note": 67, "velocity": 113, "channel": 0}, {"type": "note_on", "time": 47, "note": 63, "velocity": 119, "channel": 0}, {"type": "note_off", "time": 573, "note": 63, "velocity": 119, "channel": 0}, {"type": "note_on", "time": 5, "note": 61, "velocity": 106, "channel": 0}, {"type": "note_off", "time": 239, "note": 61, "velocity": 106, "channel": 0}, {"type": "note_on", "time": 15, "note": 66, "velocity": 108, "channel": 0}, {"type": "note_off", "time": 186, "note": 66, "velocity": 108, "channel": 0}, {"type": "note_on", "time": 37, "note": 63, "velocity": 118, "channel": 0}, {"type": "note_off", "time": 249, "note": 63, "velocity": 118, "channel": 0}, {"type": "note_on", "time": 26, "note": 58, "velocity": 112, "channel": 0}, {"type": "note_off", "time": 265, "note": 58, "velocity": 112, "channel": 0}, {"type": "note_on", "time": 1036, "note": 58, "velocity": 116, "channel": 0}, {"type": "note_off", "time": 329, "note": 58, "velocity": 116, "channel": 0}, {"type": "note_on", "time": 15, "note": 60, "velocity": 117, "channel": 0}, {"type": "note_off", "time": 196, "note": 60, "velocity": 117, "channel": 0}, {"type": "note_on", "time": 37, "note": 63, "velocity": 109, "channel": 0}, {"type": "note_off", "time": 170, "note": 63, "velocity": 109, "channel": 0}, {"type": "note_on", "time": 21, "note": 67, "velocity": 116, "channel": 0}, {"type": "note_off", "time": 228, "note": 67, "velocity": 116, "channel": 0}, {"type": "note_on", "time": 5, "note": 63, "velocity": 115, "channel": 0}, {"type": "note_off", "time": 276, "note": 63, "velocity": 115, "channel": 0}, {"type": "note_on", "time": 5, "note": 68, "velocity": 113, "channel": 0}, {"type": "note_off", "time": 228, "note": 68, "velocity": 113, "channel": 0}, {"type": "note_on", "time": 26, "note": 72, "velocity": 115, "channel": 0}, {"type": "note_off", "time": 271, "note": 72, "velocity": 115, "channel": 0}, {"type": "note_on", "time": 31, "note": 69, "velocity": 117, "channel": 0}, {"type": "note_off", "time": 387, "note": 69, "velocity": 117, "channel": 0}, {"type": "note_on", "time": 924, "note": 71, "velocity": 116, "channel": 0}, {"type": "note_off", "time": 271, "note": 71, "velocity": 116, "channel": 0}, {"type": "note_on", "time": 5, "note": 69, "velocity": 119, "channel": 0}, {"type": "note_off", "time": 265, "note": 69, "velocity": 119, "channel": 0}, {"type": "note_on", "time": 15, "note": 66, "velocity": 113, "channel": 0}, {"type": "note_off", "time": 217, "note": 66, "velocity": 113, "channel": 0}, {"type": "note_on", "time": 17, "note": 69, "velocity": 114, "channel": 0}, {"type": "note_off", "time": 136, "note": 69, "velocity": 114, "channel": 0}, {"type": "note_on", "time": 7, "note": 66, "velocity": 105, "channel": 0}, {"type": "note_off", "time": 104, "note": 66, "velocity": 105, "channel": 0}, {"type": "note_on", "time": 0, "note": 63, "velocity": 120, "channel": 0}, {"type": "note_off", "time": 286, "note": 63, "velocity": 120, "channel": 0}, {"type": "note_on", "time": 10, "note": 61, "velocity": 115, "channel": 0}, {"type": "note_off", "time": 212, "note": 61, "velocity": 115, "channel": 0}, {"type": "note_on", "time": 0, "note": 66, "velocity": 117, "channel": 0}, {"type": "note_off", "time": 233, "note": 66, "velocity": 117, "channel": 0}, {"type": "note_on", "time": 15, "note": 63, "velocity": 121, "channel": 0}, {"type": "note_off", "time": 233, "note": 63, "velocity": 121, "channel": 0}, {"type": "note_on", "time": 31, "note": 59, "velocity": 114, "channel": 0}, {"type": "note_off", "time": 212, "note": 59, "velocity": 114, "channel": 0}, {"type": "note_on", "time": 31, "note": 57, "velocity": 109, "channel": 0}, {"type": "note_off", "time": 286, "note": 57, "velocity": 109, "channel": 0}, {"type": "note_on", "time": 8, "note": 54, "velocity": 111, "channel": 0}, {"type": "note_off", "time": 162, "note": 54, "velocity": 111, "channel": 0}, {"type": "note_on", "time": 0, "note": 59, "velocity": 113, "channel": 0}, {"type": "note_off", "time": 219, "note": 59, "velocity": 113, "channel": 0}, {"type": "note_on", "time": 15, "note": 57, "velocity": 108, "channel": 0}, {"type": "note_off", "time": 1111, "note": 57, "velocity": 108, "channel": 0}, {"type": "note_on", "time": 1311, "note": 57, "velocity": 119, "channel": 0}, {"type": "note_off", "time": 462, "note": 57, "velocity": 119, "channel": 0}, {"type": "note_on", "time": 26, "note": 55, "velocity": 117, "channel": 0}, {"type": "note_off", "time": 292, "note": 55, "velocity": 117, "channel": 0}, {"type": "note_on", "time": 20, "note": 52, "velocity": 109, "channel": 0}, {"type": "note_off", "time": 228, "note": 52, "velocity": 109, "channel": 0}, {"type": "note_on", "time": 11, "note": 57, "velocity": 111, "channel": 0}, {"type": "note_off", "time": 345, "note": 57, "velocity": 111, "channel": 0}, {"type": "note_on", "time": 31, "note": 55, "velocity": 111, "channel": 0}, {"type": "note_off", "time": 265, "note": 55, "velocity": 111, "channel": 0}, {"type": "note_on", "time": 21, "note": 51, "velocity": 120, "channel": 0}, {"type": "note_off", "time": 233, "note": 51, "velocity": 120, "channel": 0}, {"type": "note_on", "time": 10, "note": 49, "velocity": 113, "channel": 0}, {"type": "note_off", "time": 255, "note": 49, "velocity": 113, "channel": 0}, {"type": "note_on", "time": 10, "note": 51, "velocity": 114, "channel": 0}, {"type": "note_off", "time": 334, "note": 51, "velocity": 114, "channel": 0}, {"type": "note_on", "time": 880, "note": 56, "velocity": 114, "channel": 0}, {"type": "note_off", "time": 230, "note": 56, "velocity": 114, "channel": 0}, {"type": "note_on", "time": 22, "note": 58, "velocity": 110, "channel": 0}, {"type": "note_off", "time": 302, "note": 58, "velocity": 110, "channel": 0}, {"type": "note_on", "time": 33, "note": 53, "velocity": 109, "channel": 0}, {"type": "note_off", "time": 265, "note": 53, "velocity": 109, "channel": 0}, {"type": "note_on", "time": 15, "note": 51, "velocity": 115, "channel": 0}, {"type": "note_off", "time": 271, "note": 51, "velocity": 115, "channel": 0}, {"type": "note_on", "time": 15, "note": 50, "velocity": 113, "channel": 0}, {"type": "note_off", "time": 263, "note": 50, "velocity": 113, "channel": 0}, {"type": "note_on", "time": 5, "note": 53, "velocity": 112, "channel": 0}, {"type": "note_off", "time": 241, "note": 53, "velocity": 112, "channel": 0}, {"type": "note_on", "time": 29, "note": 50, "velocity": 109, "channel": 0}, {"type": "note_off", "time": 236, "note": 50, "velocity": 109, "channel": 0}, {"type": "note_on", "time": 18, "note": 53, "velocity": 112, "channel": 0}, {"type": "note_off", "time": 268, "note": 53, "velocity": 112, "channel": 0}, {"type": "note_on", "time": 39, "note": 58, "velocity": 112, "channel": 0}, {"type": "note_off", "time": 209, "note": 58, "velocity": 112, "channel": 0}, {"type": "note_on", "time": 5, "note": 61, "velocity": 111, "channel": 0}, {"type": "note_off", "time": 135, "note": 61, "velocity": 111, "channel": 0}, {"type": "note_on", "time": 5, "note": 54, "velocity": 109, "channel": 0}, {"type": "note_off", "time": 175, "note": 54, "velocity": 109, "channel": 0}, {"type": "note_on", "time": 23, "note": 58, "velocity": 115, "channel": 0}, {"type": "note_off", "time": 207, "note": 58, "velocity": 115, "channel": 0}, {"type": "note_on", "time": 3, "note": 60, "velocity": 112, "channel": 0}, {"type": "note_off", "time": 181, "note": 60, "velocity": 112, "channel": 0}, {"type": "note_on", "time": 18, "note": 62, "velocity": 116, "channel": 0}, {"type": "note_off", "time": 177, "note": 62, "velocity": 116, "channel": 0}, {"type": "note_on", "time": 106, "note": 67, "velocity": 117, "channel": 0}, {"type": "note_off", "time": 223, "note": 67, "velocity": 117, "channel": 0}, {"type": "note_on", "time": 17, "note": 63, "velocity": 124, "channel": 0}, {"type": "note_off", "time": 207, "note": 63, "velocity": 124, "channel": 0}, {"type": "note_on", "time": 34, "note": 61, "velocity": 114, "channel": 0}, {"type": "note_off", "time": 222, "note": 61, "velocity": 114, "channel": 0}, {"type": "note_on", "time": 37, "note": 59, "velocity": 113, "channel": 0}, {"type": "note_off", "time": 211, "note": 59, "velocity": 113, "channel": 0}, {"type": "note_on", "time": 18, "note": 56, "velocity": 114, "channel": 0}, {"type": "note_off", "time": 215, "note": 56, "velocity": 114, "channel": 0}, {"type": "note_on", "time": 22, "note": 54, "velocity": 110, "channel": 0}, {"type": "note_off", "time": 166, "note": 54, "velocity": 110, "channel": 0}, {"type": "note_on", "time": 30, "note": 56, "velocity": 111, "channel": 0}, {"type": "note_off", "time": 219, "note": 56, "velocity": 111, "channel": 0}, {"type": "note_on", "time": 11, "note": 59, "velocity": 114, "channel": 0}, {"type": "note_off", "time": 245, "note": 59, "velocity": 114, "channel": 0}, {"type": "note_on", "time": 20, "note": 63, "velocity": 113, "channel": 0}, {"type": "note_off", "time": 158, "note": 63, "velocity": 113, "channel": 0}, {"type": "note_on", "time": 3, "note": 58, "velocity": 108, "channel": 0}, {"type": "note_off", "time": 241, "note": 58, "velocity": 108, "channel": 0}, {"type": "note_on", "time": 1155, "note": 58, "velocity": 114, "channel": 0}, {"type": "note_off", "time": 302, "note": 58, "velocity": 114, "channel": 0}, {"type": "note_on", "time": 3, "note": 61, "velocity": 115, "channel": 0}, {"type": "note_off", "time": 219, "note": 61, "velocity": 115, "channel": 0}, {"type": "note_on", "time": 7, "note": 66, "velocity": 118, "channel": 0}, {"type": "note_off", "time": 234, "note": 66, "velocity": 118, "channel": 0}, {"type": "note_on", "time": 0, "note": 64, "velocity": 116, "channel": 0}, {"type": "note_off", "time": 249, "note": 64, "velocity": 116, "channel": 0}, {"type": "note_on", "time": 3, "note": 61, "velocity": 116, "channel": 0}, {"type": "note_off", "time": 238, "note": 61, "velocity": 116, "channel": 0}, {"type": "note_on", "time": 7, "note": 64, "velocity": 110, "channel": 0}, {"type": "note_off", "time": 124, "note": 64, "velocity": 110, "channel": 0}, {"type": "note_on", "time": 0, "note": 67, "velocity": 116, "channel": 0}, {"type": "note_off", "time": 302, "note": 67, "velocity": 116, "channel": 0}, {"type": "note_on", "time": 15, "note": 64, "velocity": 116, "channel": 0}, {"type": "note_off", "time": 287, "note": 64, "velocity": 116, "channel": 0}, {"type": "note_on", "time": 11, "note": 67, "velocity": 120, "channel": 0}, {"type": "note_off", "time": 222, "note": 67, "velocity": 120, "channel": 0}, {"type": "note_on", "time": 11, "note": 71, "velocity": 124, "channel": 0}, {"type": "note_off", "time": 238, "note": 71, "velocity": 124, "channel": 0}, {"type": "note_on", "time": 3, "note": 73, "velocity": 126, "channel": 0}, {"type": "note_off", "time": 419, "note": 73, "velocity": 126, "channel": 0}, {"type": "note_on", "time": 997, "note": 71, "velocity": 122, "channel": 0}, {"type": "note_off", "time": 370, "note": 71, "velocity": 122, "channel": 0}, {"type": "note_on", "time": 18, "note": 73, "velocity": 120, "channel": 0}, {"type": "note_off", "time": 385, "note": 73, "velocity": 120, "channel": 0}, {"type": "note_on", "time": 56, "note": 69, "velocity": 120, "channel": 0}, {"type": "note_off", "time": 238, "note": 69, "velocity": 120, "channel": 0}, {"type": "note_on", "time": 41, "note": 66, "velocity": 115, "channel": 0}, {"type": "note_off", "time": 234, "note": 66, "velocity": 115, "channel": 0}, {"type": "note_on", "time": 49, "note": 62, "velocity": 114, "channel": 0}, {"type": "note_off", "time": 181, "note": 62, "velocity": 114, "channel": 0}, {"type": "note_on", "time": 778, "note": 69, "velocity": 121, "channel": 0}, {"type": "note_off", "time": 256, "note": 69, "velocity": 121, "channel": 0}, {"type": "note_on", "time": 15, "note": 71, "velocity": 121, "channel": 0}, {"type": "note_off", "time": 306, "note": 71, "velocity": 121, "channel": 0}, {"type": "note_on", "time": 11, "note": 73, "velocity": 120, "channel": 0}, {"type": "note_off", "time": 343, "note": 73, "velocity": 120, "channel": 0}, {"type": "note_on", "time": 287, "note": 71, "velocity": 122, "channel": 0}, {"type": "note_off", "time": 211, "note": 71, "velocity": 122, "channel": 0}, {"type": "note_on", "time": 15, "note": 69, "velocity": 121, "channel": 0}, {"type": "note_off", "time": 294, "note": 69, "velocity": 121, "channel": 0}, {"type": "note_on", "time": 18, "note": 65, "velocity": 112, "channel": 0}, {"type": "note_off", "time": 109, "note": 65, "velocity": 112, "channel": 0}, {"type": "note_on", "time": 0, "note": 62, "velocity": 113, "channel": 0}, {"type": "note_off", "time": 231, "note": 62, "velocity": 113, "channel": 0}, {"type": "note_on", "time": 77, "note": 65, "velocity": 117, "channel": 0}, {"type": "note_off", "time": 158, "note": 65, "velocity": 117, "channel": 0}, {"type": "note_on", "time": 37, "note": 69, "velocity": 118, "channel": 0}, {"type": "note_off", "time": 166, "note": 69, "velocity": 118, "channel": 0}, {"type": "note_on", "time": 22, "note": 71, "velocity": 122, "channel": 0}, {"type": "note_off", "time": 177, "note": 71, "velocity": 122, "channel": 0}, {"type": "note_on", "time": 7, "note": 73, "velocity": 121, "channel": 0}, {"type": "note_off", "time": 317, "note": 73, "velocity": 121, "channel": 0}, {"type": "note_on", "time": 196, "note": 71, "velocity": 117, "channel": 0}, {"type": "note_off", "time": 147, "note": 71, "velocity": 117, "channel": 0}, {"type": "note_on", "time": 7, "note": 69, "velocity": 120, "channel": 0}, {"type": "note_off", "time": 226, "note": 69, "velocity": 120, "channel": 0}, {"type": "note_on", "time": 26, "note": 65, "velocity": 111, "channel": 0}, {"type": "note_off", "time": 151, "note": 65, "velocity": 111, "channel": 0}, {"type": "note_on", "time": 7, "note": 62, "velocity": 112, "channel": 0}, {"type": "note_off", "time": 336, "note": 62, "velocity": 112, "channel": 0}, {"type": "note_on", "time": 903, "note": 69, "velocity": 117, "channel": 0}, {"type": "note_off", "time": 219, "note": 69, "velocity": 117, "channel": 0}, {"type": "note_on", "time": 11, "note": 71, "velocity": 112, "channel": 0}, {"type": "note_off", "time": 264, "note": 71, "velocity": 112, "channel": 0}, {"type": "note_on", "time": 0, "note": 68, "velocity": 115, "channel": 0}, {"type": "note_off", "time": 302, "note": 68, "velocity": 115, "channel": 0}, {"type": "note_on", "time": 18, "note": 70, "velocity": 110, "channel": 0}, {"type": "note_off", "time": 109, "note": 70, "velocity": 110, "channel": 0}, {"type": "note_on", "time": 3, "note": 72, "velocity": 112, "channel": 0}, {"type": "note_off", "time": 290, "note": 72, "velocity": 112, "channel": 0}, {"type": "note_on", "time": 0, "note": 69, "velocity": 111, "channel": 0}, {"type": "note_off", "time": 253, "note": 69, "velocity": 111, "channel": 0}, {"type": "note_on", "time": 0, "note": 72, "velocity": 112, "channel": 0}, {"type": "note_off", "time": 260, "note": 72, "velocity": 112, "channel": 0}, {"type": "note_on", "time": 15, "note": 69, "velocity": 119, "channel": 0}, {"type": "note_off", "time": 196, "note": 69, "velocity": 119, "channel": 0}, {"type": "note_on", "time": 15, "note": 71, "velocity": 117, "channel": 0}, {"type": "note_off", "time": 260, "note": 71, "velocity": 117, "channel": 0}, {"type": "note_on", "time": 18, "note": 73, "velocity": 122, "channel": 0}, {"type": "note_off", "time": 370, "note": 73, "velocity": 122, "channel": 0}, {"type": "note_on", "time": 11, "note": 71, "velocity": 108, "channel": 0}, {"type": "note_off", "time": 158, "note": 71, "velocity": 108, "channel": 0}, {"type": "note_on", "time": 11, "note": 69, "velocity": 121, "channel": 0}, {"type": "note_off", "time": 226, "note": 69, "velocity": 121, "channel": 0}, {"type": "note_on", "time": 18, "note": 66, "velocity": 113, "channel": 0}, {"type": "note_off", "time": 143, "note": 66, "velocity": 113, "channel": 0}, {"type": "note_on", "time": 22, "note": 62, "velocity": 113, "channel": 0}, {"type": "note_off", "time": 491, "note": 62, "velocity": 113, "channel": 0}, {"type": "note_on", "time": 752, "note": 69, "velocity": 114, "channel": 0}, {"type": "note_off", "time": 215, "note": 69, "velocity": 114, "channel": 0}, {"type": "note_on", "time": 3, "note": 71, "velocity": 114, "channel": 0}, {"type": "note_off", "time": 226, "note": 71, "velocity": 114, "channel": 0}, {"type": "note_on", "time": 11, "note": 68, "velocity": 114, "channel": 0}, {"type": "note_off", "time": 272, "note": 68, "velocity": 114, "channel": 0}, {"type": "note_on", "time": 11, "note": 65, "velocity": 115, "channel": 0}, {"type": "note_off", "time": 264, "note": 65, "velocity": 115, "channel": 0}, {"type": "note_on", "time": 0, "note": 69, "velocity": 119, "channel": 0}, {"type": "note_off", "time": 226, "note": 69, "velocity": 119, "channel": 0}, {"type": "note_on", "time": 15, "note": 71, "velocity": 119, "channel": 0}, {"type": "note_off", "time": 222, "note": 71, "velocity": 119, "channel": 0}, {"type": "note_on", "time": 18, "note": 73, "velocity": 124, "channel": 0}, {"type": "note_off", "time": 389, "note": 73, "velocity": 124, "channel": 0}, {"type": "note_on", "time": 253, "note": 71, "velocity": 117, "channel": 0}, {"type": "note_off", "time": 351, "note": 71, "velocity": 117, "channel": 0}, {"type": "note_on", "time": 238, "note": 73, "velocity": 119, "channel": 0}, {"type": "note_off", "time": 438, "note": 73, "velocity": 119, "channel": 0}, {"type": "note_on", "time": 90, "note": 69, "velocity": 120, "channel": 0}, {"type": "note_off", "time": 185, "note": 69, "velocity": 120, "channel": 0}, {"type": "note_on", "time": 41, "note": 65, "velocity": 119, "channel": 0}, {"type": "note_off", "time": 173, "note": 65, "velocity": 119, "channel": 0}, {"type": "note_on", "time": 11, "note": 63, "velocity": 114, "channel": 0}, {"type": "note_off", "time": 181, "note": 63, "velocity": 114, "channel": 0}, {"type": "note_on", "time": 7, "note": 62, "velocity": 113, "channel": 0}, {"type": "note_off", "time": 226, "note": 62, "velocity": 113, "channel": 0}, {"type": "note_on", "time": 888, "note": 69, "velocity": 110, "channel": 0}, {"type": "note_off", "time": 204, "note": 69, "velocity": 110, "channel": 0}, {"type": "note_on", "time": 15, "note": 70, "velocity": 107, "channel": 0}, {"type": "note_off", "time": 260, "note": 70, "velocity": 107, "channel": 0}, {"type": "note_on", "time": 7, "note": 68, "velocity": 113, "channel": 0}, {"type": "note_off", "time": 302, "note": 68, "velocity": 113, "channel": 0}, {"type": "note_on", "time": 7, "note": 65, "velocity": 114, "channel": 0}, {"type": "note_off", "time": 219, "note": 65, "velocity": 114, "channel": 0}, {"type": "note_on", "time": 34, "note": 69, "velocity": 120, "channel": 0}, {"type": "note_off", "time": 211, "note": 69, "velocity": 120, "channel": 0}, {"type": "note_on", "time": 15, "note": 71, "velocity": 117, "channel": 0}, {"type": "note_off", "time": 226, "note": 71, "velocity": 117, "channel": 0}, {"type": "note_on", "time": 3, "note": 73, "velocity": 117, "channel": 0}, {"type": "note_off", "time": 393, "note": 73, "velocity": 117, "channel": 0}, {"type": "note_on", "time": 192, "note": 69, "velocity": 118, "channel": 0}, {"type": "note_off", "time": 396, "note": 69, "velocity": 118, "channel": 0}, {"type": "note_on", "time": 196, "note": 72, "velocity": 114, "channel": 0}, {"type": "note_off", "time": 71, "note": 72, "velocity": 114, "channel": 0}, {"type": "note_on", "time": 7, "note": 73, "velocity": 116, "channel": 0}, {"type": "note_off", "time": 449, "note": 73, "velocity": 116, "channel": 0}, {"type": "note_on", "time": 11, "note": 71, "velocity": 110, "channel": 0}, {"type": "note_off", "time": 132, "note": 71, "velocity": 110, "channel": 0}, {"type": "note_on", "time": 18, "note": 69, "velocity": 114, "channel": 0}, {"type": "note_off", "time": 173, "note": 69, "velocity": 114, "channel": 0}, {"type": "note_on", "time": 3, "note": 67, "velocity": 116, "channel": 0}, {"type": "note_off", "time": 222, "note": 67, "velocity": 116, "channel": 0}, {"type": "note_on", "time": 7, "note": 65, "velocity": 113, "channel": 0}, {"type": "note_off", "time": 120, "note": 65, "velocity": 113, "channel": 0}, {"type": "note_on", "time": 18, "note": 62, "velocity": 114, "channel": 0}, {"type": "note_off", "time": 453, "note": 62, "velocity": 114, "channel": 0}, {"type": "note_on", "time": 782, "note": 69, "velocity": 117, "channel": 0}, {"type": "note_off", "time": 181, "note": 69, "velocity": 117, "channel": 0}, {"type": "note_on", "time": 3, "note": 71, "velocity": 107, "channel": 0}, {"type": "note_off", "time": 181, "note": 71, "velocity": 107, "channel": 0}, {"type": "note_on", "time": 56, "note": 67, "velocity": 116, "channel": 0}, {"type": "note_off", "time": 294, "note": 67, "velocity": 116, "channel": 0}, {"type": "note_on", "time": 41, "note": 65, "velocity": 114, "channel": 0}, {"type": "note_off", "time": 472, "note": 65, "velocity": 114, "channel": 0}, {"type": "note_on", "time": 725, "note": 69, "velocity": 114, "channel": 0}, {"type": "note_off", "time": 204, "note": 69, "velocity": 114, "channel": 0}, {"type": "note_on", "time": 15, "note": 71, "velocity": 117, "channel": 0}, {"type": "note_off", "time": 249, "note": 71, "velocity": 117, "channel": 0}, {"type": "note_on", "time": 11, "note": 73, "velocity": 117, "channel": 0}, {"type": "note_off", "time": 381, "note": 73, "velocity": 117, "channel": 0}, {"type": "note_on", "time": 204, "note": 71, "velocity": 119, "channel": 0}, {"type": "note_off", "time": 287, "note": 71, "velocity": 119, "channel": 0}, {"type": "note_on", "time": 3, "note": 69, "velocity": 115, "channel": 0}, {"type": "note_off", "time": 200, "note": 69, "velocity": 115, "channel": 0}, {"type": "note_on", "time": 71, "note": 64, "velocity": 113, "channel": 0}, {"type": "note_off", "time": 256, "note": 64, "velocity": 113, "channel": 0}, {"type": "note_on", "time": 7, "note": 69, "velocity": 115, "channel": 0}, {"type": "note_off", "time": 196, "note": 69, "velocity": 115, "channel": 0}, {"type": "note_on", "time": 128, "note": 63, "velocity": 114, "channel": 0}, {"type": "note_off", "time": 411, "note": 63, "velocity": 114, "channel": 0}, {"type": "note_on", "time": 207, "note": 67, "velocity": 113, "channel": 0}, {"type": "note_off", "time": 290, "note": 67, "velocity": 113, "channel": 0}, {"type": "note_on", "time": 11, "note": 65, "velocity": 114, "channel": 0}, {"type": "note_off", "time": 200, "note": 65, "velocity": 114, "channel": 0}, {"type": "note_on", "time": 18, "note": 62, "velocity": 115, "channel": 0}, {"type": "note_off", "time": 226, "note": 62, "velocity": 115, "channel": 0}, {"type": "note_on", "time": 3, "note": 58, "velocity": 110, "channel": 0}, {"type": "note_off", "time": 196, "note": 58, "velocity": 110, "channel": 0}, {"type": "note_on", "time": 143, "note": 65, "velocity": 114, "channel": 0}, {"type": "note_off", "time": 608, "note": 65, "velocity": 114, "channel": 0}, {"type": "note_on", "time": 7, "note": 63, "velocity": 118, "channel": 0}, {"type": "note_off", "time": 275, "note": 63, "velocity": 118, "channel": 0}, {"type": "note_on", "time": 7, "note": 59, "velocity": 109, "channel": 0}, {"type": "note_off", "time": 215, "note": 59, "velocity": 109, "channel": 0}, {"type": "note_on", "time": 41, "note": 56, "velocity": 107, "channel": 0}, {"type": "note_off", "time": 264, "note": 56, "velocity": 107, "channel": 0}, {"type": "note_on", "time": 1171, "note": 59, "velocity": 116, "channel": 0}, {"type": "note_off", "time": 355, "note": 59, "velocity": 116, "channel": 0}, {"type": "note_on", "time": 52, "note": 63, "velocity": 120, "channel": 0}, {"type": "note_off", "time": 430, "note": 63, "velocity": 120, "channel": 0}, {"type": "note_on", "time": 15, "note": 61, "velocity": 109, "channel": 0}, {"type": "note_off", "time": 234, "note": 61, "velocity": 109, "channel": 0}, {"type": "note_on", "time": 3, "note": 59, "velocity": 107, "channel": 0}, {"type": "note_off", "time": 177, "note": 59, "velocity": 107, "channel": 0}, {"type": "note_on", "time": 15, "note": 56, "velocity": 113, "channel": 0}, {"type": "note_off", "time": 162, "note": 56, "velocity": 113, "channel": 0}, {"type": "note_on", "time": 3, "note": 53, "velocity": 105, "channel": 0}, {"type": "note_off", "time": 347, "note": 53, "velocity": 105, "channel": 0}, {"type": "note_on", "time": 7, "note": 56, "velocity": 108, "channel": 0}, {"type": "note_off", "time": 211, "note": 56, "velocity": 108, "channel": 0}, {"type": "note_on", "time": 0, "note": 59, "velocity": 107, "channel": 0}, {"type": "note_on", "time": 207, "note": 63, "velocity": 117, "channel": 0}, {"type": "note_off", "time": 0, "note": 59, "velocity": 107, "channel": 0}, {"type": "note_off", "time": 196, "note": 63, "velocity": 117, "channel": 0}, {"type": "note_on", "time": 7, "note": 61, "velocity": 113, "channel": 0}, {"type": "note_off", "time": 238, "note": 61, "velocity": 113, "channel": 0}, {"type": "note_on", "time": 7, "note": 58, "velocity": 114, "channel": 0}, {"type": "note_off", "time": 222, "note": 58, "velocity": 114, "channel": 0}, {"type": "note_on", "time": 3, "note": 54, "velocity": 108, "channel": 0}, {"type": "note_off", "time": 382, "note": 54, "velocity": 108, "channel": 0}, {"type": "note_on", "time": 902, "note": 56, "velocity": 121, "channel": 0}, {"type": "note_off", "time": 207, "note": 56, "velocity": 121, "channel": 0}, {"type": "note_on", "time": 21, "note": 58, "velocity": 109, "channel": 0}, {"type": "note_off", "time": 239, "note": 58, "velocity": 109, "channel": 0}, {"type": "note_on", "time": 26, "note": 61, "velocity": 114, "channel": 0}, {"type": "note_off", "time": 685, "note": 61, "velocity": 114, "channel": 0}, {"type": "note_on", "time": 7, "note": 59, "velocity": 108, "channel": 0}, {"type": "note_off", "time": 180, "note": 59, "velocity": 108, "channel": 0}, {"type": "note_on", "time": 7, "note": 57, "velocity": 107, "channel": 0}, {"type": "note_off", "time": 87, "note": 57, "velocity": 107, "channel": 0}, {"type": "note_on", "time": 10, "note": 56, "velocity": 114, "channel": 0}, {"type": "note_off", "time": 66, "note": 56, "velocity": 114, "channel": 0}, {"type": "note_on", "time": 11, "note": 55, "velocity": 121, "channel": 0}, {"type": "note_off", "time": 122, "note": 55, "velocity": 121, "channel": 0}, {"type": "note_on", "time": 18, "note": 52, "velocity": 118, "channel": 0}, {"type": "note_off", "time": 191, "note": 52, "velocity": 118, "channel": 0}, {"type": "note_on", "time": 31, "note": 55, "velocity": 114, "channel": 0}, {"type": "note_off", "time": 175, "note": 55, "velocity": 114, "channel": 0}, {"type": "note_on", "time": 15, "note": 57, "velocity": 108, "channel": 0}, {"type": "note_off", "time": 191, "note": 57, "velocity": 108, "channel": 0}, {"type": "note_on", "time": 39, "note": 59, "velocity": 108, "channel": 0}, {"type": "note_off", "time": 207, "note": 59, "velocity": 108, "channel": 0}, {"type": "note_on", "time": 5, "note": 57, "velocity": 107, "channel": 0}, {"type": "note_off", "time": 215, "note": 57, "velocity": 107, "channel": 0}, {"type": "note_on", "time": 31, "note": 53, "velocity": 107, "channel": 0}, {"type": "note_off", "time": 228, "note": 53, "velocity": 107, "channel": 0}, {"type": "note_on", "time": 23, "note": 50, "velocity": 108, "channel": 0}, {"type": "note_off", "time": 308, "note": 50, "velocity": 108, "channel": 0}, {"type": "note_on", "time": 74, "note": 55, "velocity": 109, "channel": 0}, {"type": "note_off", "time": 236, "note": 55, "velocity": 109, "channel": 0}, {"type": "note_on", "time": 10, "note": 53, "velocity": 105, "channel": 0}, {"type": "note_off", "time": 309, "note": 53, "velocity": 105, "channel": 0}, {"type": "note_on", "time": 1228, "note": 57, "velocity": 108, "channel": 0}, {"type": "note_off", "time": 414, "note": 57, "velocity": 108, "channel": 0}, {"type": "note_on", "time": 2, "note": 55, "velocity": 105, "channel": 0}, {"type": "note_off", "time": 138, "note": 55, "velocity": 105, "channel": 0}, {"type": "note_on", "time": 58, "note": 51, "velocity": 110, "channel": 0}, {"type": "note_off", "time": 435, "note": 51, "velocity": 110, "channel": 0}, {"type": "note_on", "time": 2, "note": 55, "velocity": 101, "channel": 0}, {"type": "note_off", "time": 334, "note": 55, "velocity": 101, "channel": 0}, {"type": "note_on", "time": 121, "note": 59, "velocity": 116, "channel": 0}, {"type": "note_off", "time": 249, "note": 59, "velocity": 116, "channel": 0}, {"type": "note_on", "time": 7, "note": 63, "velocity": 116, "channel": 0}, {"type": "note_off", "time": 241, "note": 63, "velocity": 116, "channel": 0}, {"type": "note_on", "time": 30, "note": 59, "velocity": 111, "channel": 0}, {"type": "note_off", "time": 234, "note": 59, "velocity": 111, "channel": 0}, {"type": "note_on", "time": 30, "note": 55, "velocity": 116, "channel": 0}, {"type": "note_off", "time": 166, "note": 55, "velocity": 116, "channel": 0}, {"type": "note_on", "time": 0, "note": 57, "velocity": 108, "channel": 0}, {"type": "note_off", "time": 219, "note": 57, "velocity": 108, "channel": 0}, {"type": "note_on", "time": 7, "note": 59, "velocity": 110, "channel": 0}, {"type": "note_off", "time": 181, "note": 59, "velocity": 110, "channel": 0}, {"type": "note_on", "time": 15, "note": 60, "velocity": 111, "channel": 0}, {"type": "note_off", "time": 204, "note": 60, "velocity": 111, "channel": 0}, {"type": "note_on", "time": 0, "note": 63, "velocity": 117, "channel": 0}, {"type": "note_off", "time": 241, "note": 63, "velocity": 117, "channel": 0}, {"type": "note_on", "time": 30, "note": 68, "velocity": 97, "channel": 0}, {"type": "note_off", "time": 45, "note": 68, "velocity": 97, "channel": 0}, {"type": "note_on", "time": 17, "note": 69, "velocity": 112, "channel": 0}, {"type": "note_off", "time": 422, "note": 69, "velocity": 112, "channel": 0}, {"type": "note_on", "time": 15, "note": 69, "velocity": 108, "channel": 0}, {"type": "note_off", "time": 345, "note": 69, "velocity": 108, "channel": 0}, {"type": "note_on", "time": 60, "note": 67, "velocity": 109, "channel": 0}, {"type": "note_off", "time": 143, "note": 67, "velocity": 109, "channel": 0}, {"type": "note_on", "time": 0, "note": 68, "velocity": 109, "channel": 0}, {"type": "note_off", "time": 241, "note": 68, "velocity": 109, "channel": 0}, {"type": "note_on", "time": 22, "note": 67, "velocity": 109, "channel": 0}, {"type": "note_off", "time": 196, "note": 67, "velocity": 109, "channel": 0}, {"type": "note_on", "time": 15, "note": 63, "velocity": 110, "channel": 0}, {"type": "note_off", "time": 234, "note": 63, "velocity": 110, "channel": 0}, {"type": "note_on", "time": 30, "note": 60, "velocity": 108, "channel": 0}, {"type": "note_off", "time": 173, "note": 60, "velocity": 108, "channel": 0}, {"type": "note_on", "time": 37, "note": 56, "velocity": 106, "channel": 0}, {"type": "note_off", "time": 188, "note": 56, "velocity": 106, "channel": 0}, {"type": "note_on", "time": 45, "note": 63, "velocity": 121, "channel": 0}, {"type": "note_off", "time": 219, "note": 63, "velocity": 121, "channel": 0}, {"type": "note_on", "time": 30, "note": 58, "velocity": 108, "channel": 0}, {"type": "note_off", "time": 445, "note": 58, "velocity": 108, "channel": 0}, {"type": "note_on", "time": 1390, "note": 58, "velocity": 106, "channel": 0}, {"type": "note_off", "time": 1141, "note": 58, "velocity": 106, "channel": 0}, {"type": "note_on", "time": 7, "note": 55, "velocity": 107, "channel": 0}, {"type": "note_off", "time": 355, "note": 55, "velocity": 107, "channel": 0}, {"type": "note_on", "time": 45, "note": 56, "velocity": 107, "channel": 0}, {"type": "note_off", "time": 302, "note": 56, "velocity": 107, "channel": 0}, {"type": "note_on", "time": 0, "note": 51, "velocity": 115, "channel": 0}, {"type": "note_off", "time": 302, "note": 51, "velocity": 115, "channel": 0}, {"type": "note_on", "time": 15, "note": 48, "velocity": 113, "channel": 0}, {"type": "note_off", "time": 181, "note": 48, "velocity": 113, "channel": 0}, {"type": "note_on", "time": 7, "note": 55, "velocity": 110, "channel": 0}, {"type": "note_off", "time": 294, "note": 55, "velocity": 110, "channel": 0}, {"type": "note_on", "time": 7, "note": 56, "velocity": 110, "channel": 0}, {"type": "note_off", "time": 324, "note": 56, "velocity": 110, "channel": 0}, {"type": "note_on", "time": 869, "note": 56, "velocity": 112, "channel": 0}, {"type": "note_off", "time": 219, "note": 56, "velocity": 112, "channel": 0}, {"type": "note_on", "time": 30, "note": 58, "velocity": 110, "channel": 0}, {"type": "note_off", "time": 226, "note": 58, "velocity": 110, "channel": 0}, {"type": "note_on", "time": 45, "note": 60, "velocity": 114, "channel": 0}, {"type": "note_off", "time": 188, "note": 60, "velocity": 114, "channel": 0}, {"type": "note_on", "time": 15, "note": 63, "velocity": 117, "channel": 0}, {"type": "note_off", "time": 181, "note": 63, "velocity": 117, "channel": 0}, {"type": "note_on", "time": 52, "note": 59, "velocity": 106, "channel": 0}, {"type": "note_off", "time": 204, "note": 59, "velocity": 106, "channel": 0}, {"type": "note_on", "time": 37, "note": 58, "velocity": 115, "channel": 0}, {"type": "note_off", "time": 226, "note": 58, "velocity": 115, "channel": 0}, {"type": "note_on", "time": 30, "note": 57, "velocity": 109, "channel": 0}, {"type": "note_off", "time": 204, "note": 57, "velocity": 109, "channel": 0}, {"type": "note_on", "time": 7, "note": 59, "velocity": 109, "channel": 0}, {"type": "note_off", "time": 249, "note": 59, "velocity": 109, "channel": 0}, {"type": "note_on", "time": 7, "note": 61, "velocity": 110, "channel": 0}, {"type": "note_off", "time": 128, "note": 61, "velocity": 110, "channel": 0}, {"type": "note_on", "time": 22, "note": 63, "velocity": 117, "channel": 0}, {"type": "note_off", "time": 241, "note": 63, "velocity": 117, "channel": 0}, {"type": "note_on", "time": 7, "note": 64, "velocity": 109, "channel": 0}, {"type": "note_off", "time": 234, "note": 64, "velocity": 109, "channel": 0}, {"type": "note_on", "time": 45, "note": 66, "velocity": 112, "channel": 0}, {"type": "note_off", "time": 234, "note": 66, "velocity": 112, "channel": 0}, {"type": "note_on", "time": 7, "note": 68, "velocity": 110, "channel": 0}, {"type": "note_off", "time": 234, "note": 68, "velocity": 110, "channel": 0}, {"type": "note_on", "time": 22, "note": 70, "velocity": 111, "channel": 0}, {"type": "note_off", "time": 136, "note": 70, "velocity": 111, "channel": 0}, {"type": "note_on", "time": 68, "note": 70, "velocity": 116, "channel": 0}, {"type": "note_off", "time": 226, "note": 70, "velocity": 116, "channel": 0}, {"type": "note_on", "time": 0, "note": 66, "velocity": 115, "channel": 0}, {"type": "note_off", "time": 143, "note": 66, "velocity": 115, "channel": 0}, {"type": "note_on", "time": 37, "note": 68, "velocity": 108, "channel": 0}, {"type": "note_off", "time": 136, "note": 68, "velocity": 108, "channel": 0}, {"type": "note_on", "time": 52, "note": 70, "velocity": 107, "channel": 0}, {"type": "note_off", "time": 226, "note": 70, "velocity": 107, "channel": 0}, {"type": "note_on", "time": 15, "note": 68, "velocity": 110, "channel": 0}, {"type": "note_off", "time": 181, "note": 68, "velocity": 110, "channel": 0}, {"type": "note_on", "time": 75, "note": 65, "velocity": 110, "channel": 0}, {"type": "note_off", "time": 234, "note": 65, "velocity": 110, "channel": 0}, {"type": "note_on", "time": 52, "note": 63, "velocity": 114, "channel": 0}, {"type": "note_off", "time": 136, "note": 63, "velocity": 114, "channel": 0}, {"type": "note_on", "time": 7, "note": 67, "velocity": 110, "channel": 0}, {"type": "note_off", "time": 158, "note": 67, "velocity": 110, "channel": 0}, {"type": "note_on", "time": 15, "note": 63, "velocity": 117, "channel": 0}, {"type": "note_off", "time": 249, "note": 63, "velocity": 117, "channel": 0}, {"type": "note_on", "time": 22, "note": 62, "velocity": 114, "channel": 0}, {"type": "note_off", "time": 173, "note": 62, "velocity": 114, "channel": 0}, {"type": "note_on", "time": 22, "note": 59, "velocity": 109, "channel": 0}, {"type": "note_off", "time": 211, "note": 59, "velocity": 109, "channel": 0}, {"type": "note_on", "time": 7, "note": 57, "velocity": 114, "channel": 0}, {"type": "note_off", "time": 166, "note": 57, "velocity": 114, "channel": 0}, {"type": "note_on", "time": 68, "note": 53, "velocity": 113, "channel": 0}, {"type": "note_off", "time": 241, "note": 53, "velocity": 113, "channel": 0}, {"type": "note_on", "time": 7, "note": 55, "velocity": 109, "channel": 0}, {"type": "note_off", "time": 204, "note": 55, "velocity": 109, "channel": 0}, {"type": "note_on", "time": 30, "note": 59, "velocity": 112, "channel": 0}, {"type": "note_off", "time": 166, "note": 59, "velocity": 112, "channel": 0}, {"type": "note_on", "time": 26, "note": 63, "velocity": 122, "channel": 0}, {"type": "note_off", "time": 166, "note": 63, "velocity": 122, "channel": 0}, {"type": "note_on", "time": 30, "note": 65, "velocity": 112, "channel": 0}, {"type": "note_off", "time": 75, "note": 65, "velocity": 112, "channel": 0}, {"type": "note_on", "time": 11, "note": 67, "velocity": 115, "channel": 0}, {"type": "note_off", "time": 98, "note": 67, "velocity": 115, "channel": 0}, {"type": "note_on", "time": 15, "note": 71, "velocity": 107, "channel": 0}, {"type": "note_off", "time": 120, "note": 71, "velocity": 107, "channel": 0}, {"type": "note_on", "time": 128, "note": 75, "velocity": 111, "channel": 0}, {"type": "note_off", "time": 317, "note": 75, "velocity": 111, "channel": 0}, {"type": "note_on", "time": 0, "note": 71, "velocity": 103, "channel": 0}, {"type": "note_off", "time": 340, "note": 71, "velocity": 103, "channel": 0}, {"type": "note_on", "time": 15, "note": 79, "velocity": 115, "channel": 0}, {"type": "note_off", "time": 445, "note": 79, "velocity": 115, "channel": 0}, {"type": "note_on", "time": 7, "note": 75, "velocity": 108, "channel": 0}, {"type": "note_off", "time": 370, "note": 75, "velocity": 108, "channel": 0}, {"type": "note_on", "time": 0, "note": 72, "velocity": 112, "channel": 0}, {"type": "note_off", "time": 559, "note": 72, "velocity": 112, "channel": 0}, {"type": "note_on", "time": 1617, "note": 72, "velocity": 10, "channel": 0}, {"type": "note_off", "time": 286, "note": 72, "velocity": 10, "channel": 0}, {"type": "note_on", "time": 10, "note": 71, "velocity": 111, "channel": 0}, {"type": "note_off", "time": 318, "note": 71, "velocity": 111, "channel": 0}, {"type": "note_on", "time": 255, "note": 75, "velocity": 109, "channel": 0}, {"type": "note_off", "time": 536, "note": 75, "velocity": 109, "channel": 0}, {"type": "note_on", "time": 175, "note": 71, "velocity": 113, "channel": 0}, {"type": "note_off", "time": 382, "note": 71, "velocity": 113, "channel": 0}, {"type": "note_on", "time": 26, "note": 69, "velocity": 108, "channel": 0}, {"type": "note_off", "time": 2061, "note": 69, "velocity": 108, "channel": 0}, {"type": "note_on", "time": 15, "note": 67, "velocity": 109, "channel": 0}, {"type": "note_off", "time": 191, "note": 67, "velocity": 109, "channel": 0}, {"type": "note_on", "time": 79, "note": 63, "velocity": 112, "channel": 0}, {"type": "note_off", "time": 180, "note": 63, "velocity": 112, "channel": 0}, {"type": "note_on", "time": 21, "note": 69, "velocity": 107, "channel": 0}, {"type": "note_off", "time": 154, "note": 69, "velocity": 107, "channel": 0}, {"type": "note_on", "time": 21, "note": 70, "velocity": 115, "channel": 0}, {"type": "note_off", "time": 281, "note": 70, "velocity": 115, "channel": 0}, {"type": "note_on", "time": 10, "note": 69, "velocity": 110, "channel": 0}, {"type": "note_off", "time": 228, "note": 69, "velocity": 110, "channel": 0}, {"type": "note_on", "time": 10, "note": 70, "velocity": 106, "channel": 0}, {"type": "note_off", "time": 223, "note": 70, "velocity": 106, "channel": 0}, {"type": "note_on", "time": 13, "note": 63, "velocity": 102, "channel": 0}, {"type": "note_off", "time": 196, "note": 63, "velocity": 102, "channel": 0}, {"type": "note_on", "time": 49, "note": 59, "velocity": 116, "channel": 0}, {"type": "note_off", "time": 286, "note": 59, "velocity": 116, "channel": 0}, {"type": "note_on", "time": 18, "note": 58, "velocity": 108, "channel": 0}, {"type": "note_off", "time": 98, "note": 58, "velocity": 108, "channel": 0}, {"type": "note_on", "time": 37, "note": 59, "velocity": 110, "channel": 0}, {"type": "note_off", "time": 83, "note": 59, "velocity": 110, "channel": 0}, {"type": "note_on", "time": 60, "note": 57, "velocity": 110, "channel": 0}, {"type": "note_off", "time": 158, "note": 57, "velocity": 110, "channel": 0}, {"type": "note_on", "time": 7, "note": 56, "velocity": 111, "channel": 0}, {"type": "note_off", "time": 173, "note": 56, "velocity": 111, "channel": 0}, {"type": "note_on", "time": 22, "note": 55, "velocity": 111, "channel": 0}, {"type": "note_off", "time": 186, "note": 55, "velocity": 111, "channel": 0}, {"type": "note_on", "time": 55, "note": 59, "velocity": 105, "channel": 0}, {"type": "note_off", "time": 196, "note": 59, "velocity": 105, "channel": 0}, {"type": "note_on", "time": 80, "note": 51, "velocity": 117, "channel": 0}, {"type": "note_off", "time": 201, "note": 51, "velocity": 117, "channel": 0}, {"type": "note_on", "time": 12, "note": 55, "velocity": 119, "channel": 0}, {"type": "note_off", "time": 148, "note": 55, "velocity": 119, "channel": 0}, {"type": "note_on", "time": 9, "note": 59, "velocity": 118, "channel": 0}, {"type": "note_off", "time": 175, "note": 59, "velocity": 118, "channel": 0}, {"type": "note_on", "time": 15, "note": 51, "velocity": 122, "channel": 0}, {"type": "note_off", "time": 201, "note": 51, "velocity": 122, "channel": 0}, {"type": "note_on", "time": 5, "note": 48, "velocity": 119, "channel": 0}, {"type": "note_off", "time": 499, "note": 48, "velocity": 119, "channel": 0}, {"type": "note_on", "time": 15, "note": 51, "velocity": 121, "channel": 0}, {"type": "note_off", "time": 258, "note": 51, "velocity": 121, "channel": 0}, {"type": "note_on", "time": 0, "note": 45, "velocity": 110, "channel": 0}, {"type": "note_off", "time": 1025, "note": 45, "velocity": 110, "channel": 0}, {"type": "note_on", "time": 1197, "note": 47, "velocity": 118, "channel": 0}, {"type": "note_off", "time": 233, "note": 47, "velocity": 118, "channel": 0}, {"type": "note_on", "time": 37, "note": 51, "velocity": 115, "channel": 0}, {"type": "note_off", "time": 212, "note": 51, "velocity": 115, "channel": 0}, {"type": "note_on", "time": 10, "note": 53, "velocity": 113, "channel": 0}, {"type": "note_off", "time": 217, "note": 53, "velocity": 113, "channel": 0}, {"type": "note_on", "time": 37, "note": 51, "velocity": 118, "channel": 0}, {"type": "note_off", "time": 207, "note": 51, "velocity": 118, "channel": 0}, {"type": "note_on", "time": 21, "note": 53, "velocity": 113, "channel": 0}, {"type": "note_off", "time": 286, "note": 53, "velocity": 113, "channel": 0}, {"type": "note_on", "time": 940, "note": 55, "velocity": 116, "channel": 0}, {"type": "note_off", "time": 180, "note": 55, "velocity": 116, "channel": 0}, {"type": "note_on", "time": 58, "note": 57, "velocity": 114, "channel": 0}, {"type": "note_off", "time": 186, "note": 57, "velocity": 114, "channel": 0}, {"type": "note_on", "time": 21, "note": 60, "velocity": 116, "channel": 0}, {"type": "note_off", "time": 265, "note": 60, "velocity": 116, "channel": 0}, {"type": "note_on", "time": 21, "note": 63, "velocity": 117, "channel": 0}, {"type": "note_off", "time": 132, "note": 63, "velocity": 117, "channel": 0}, {"type": "note_on", "time": 5, "note": 59, "velocity": 108, "channel": 0}, {"type": "note_off", "time": 207, "note": 59, "velocity": 108, "channel": 0}, {"type": "note_on", "time": 765, "note": 59, "velocity": 109, "channel": 0}, {"type": "note_off", "time": 260, "note": 59, "velocity": 109, "channel": 0}, {"type": "note_on", "time": 74, "note": 63, "velocity": 115, "channel": 0}, {"type": "note_off", "time": 228, "note": 63, "velocity": 115, "channel": 0}, {"type": "note_on", "time": 10, "note": 67, "velocity": 117, "channel": 0}, {"type": "note_off", "time": 196, "note": 67, "velocity": 117, "channel": 0}, {"type": "note_on", "time": 53, "note": 60, "velocity": 114, "channel": 0}, {"type": "note_off", "time": 244, "note": 60, "velocity": 114, "channel": 0}, {"type": "note_on", "time": 733, "note": 60, "velocity": 113, "channel": 0}, {"type": "note_off", "time": 201, "note": 60, "velocity": 113, "channel": 0}, {"type": "note_on", "time": 21, "note": 63, "velocity": 120, "channel": 0}, {"type": "note_off", "time": 239, "note": 63, "velocity": 120, "channel": 0}, {"type": "note_on", "time": 15, "note": 62, "velocity": 118, "channel": 0}, {"type": "note_off", "time": 244, "note": 62, "velocity": 118, "channel": 0}, {"type": "note_on", "time": 483, "note": 62, "velocity": 117, "channel": 0}, {"type": "note_off", "time": 239, "note": 62, "velocity": 117, "channel": 0}, {"type": "note_on", "time": 21, "note": 65, "velocity": 113, "channel": 0}, {"type": "note_off", "time": 239, "note": 65, "velocity": 113, "channel": 0}, {"type": "note_on", "time": 15, "note": 63, "velocity": 110, "channel": 0}, {"type": "note_off", "time": 143, "note": 63, "velocity": 110, "channel": 0}, {"type": "note_on", "time": 467, "note": 63, "velocity": 118, "channel": 0}, {"type": "note_off", "time": 255, "note": 63, "velocity": 118, "channel": 0}, {"type": "note_on", "time": 47, "note": 67, "velocity": 121, "channel": 0}, {"type": "note_off", "time": 217, "note": 67, "velocity": 121, "channel": 0}, {"type": "note_on", "time": 42, "note": 65, "velocity": 112, "channel": 0}, {"type": "note_off", "time": 159, "note": 65, "velocity": 112, "channel": 0}, {"type": "note_on", "time": 637, "note": 65, "velocity": 120, "channel": 0}, {"type": "note_off", "time": 217, "note": 65, "velocity": 120, "channel": 0}, {"type": "note_on", "time": 5, "note": 69, "velocity": 121, "channel": 0}, {"type": "note_off", "time": 281, "note": 69, "velocity": 121, "channel": 0}, {"type": "note_on", "time": 26, "note": 67, "velocity": 115, "channel": 0}, {"type": "note_off", "time": 154, "note": 67, "velocity": 115, "channel": 0}, {"type": "note_on", "time": 595, "note": 67, "velocity": 119, "channel": 0}, {"type": "note_off", "time": 191, "note": 67, "velocity": 119, "channel": 0}, {"type": "note_on", "time": 26, "note": 71, "velocity": 118, "channel": 0}, {"type": "note_off", "time": 239, "note": 71, "velocity": 118, "channel": 0}, {"type": "note_on", "time": 26, "note": 69, "velocity": 120, "channel": 0}, {"type": "note_off", "time": 228, "note": 69, "velocity": 120, "channel": 0}, {"type": "note_on", "time": 733, "note": 69, "velocity": 115, "channel": 0}, {"type": "note_off", "time": 207, "note": 69, "velocity": 115, "channel": 0}, {"type": "note_on", "time": 37, "note": 72, "velocity": 111, "channel": 0}, {"type": "note_off", "time": 239, "note": 72, "velocity": 111, "channel": 0}, {"type": "note_on", "time": 10, "note": 71, "velocity": 111, "channel": 0}, {"type": "note_off", "time": 297, "note": 71, "velocity": 111, "channel": 0}, {"type": "note_on", "time": 767, "note": 71, "velocity": 116, "channel": 0}, {"type": "note_off", "time": 128, "note": 71, "velocity": 116, "channel": 0}, {"type": "note_on", "time": 7, "note": 72, "velocity": 117, "channel": 0}, {"type": "note_off", "time": 64, "note": 72, "velocity": 117, "channel": 0}, {"type": "note_on", "time": 26, "note": 74, "velocity": 112, "channel": 0}, {"type": "note_off", "time": 79, "note": 74, "velocity": 112, "channel": 0}, {"type": "note_on", "time": 22, "note": 75, "velocity": 108, "channel": 0}, {"type": "note_off", "time": 109, "note": 75, "velocity": 108, "channel": 0}, {"type": "note_on", "time": 230, "note": 79, "velocity": 121, "channel": 0}, {"type": "note_off", "time": 566, "note": 79, "velocity": 121, "channel": 0}, {"type": "note_on", "time": 154, "note": 79, "velocity": 110, "channel": 0}, {"type": "note_off", "time": 290, "note": 79, "velocity": 110, "channel": 0}, {"type": "note_on", "time": 22, "note": 75, "velocity": 109, "channel": 0}, {"type": "note_off", "time": 317, "note": 75, "velocity": 109, "channel": 0}, {"type": "note_on", "time": 64, "note": 71, "velocity": 113, "channel": 0}, {"type": "note_off", "time": 290, "note": 71, "velocity": 113, "channel": 0}, {"type": "note_on", "time": 692, "note": 71, "velocity": 113, "channel": 0}, {"type": "note_off", "time": 217, "note": 71, "velocity": 113, "channel": 0}, {"type": "note_on", "time": 10, "note": 73, "velocity": 114, "channel": 0}, {"type": "note_off", "time": 175, "note": 73, "velocity": 114, "channel": 0}, {"type": "note_on", "time": 10, "note": 75, "velocity": 106, "channel": 0}, {"type": "note_off", "time": 186, "note": 75, "velocity": 106, "channel": 0}, {"type": "note_on", "time": 15, "note": 69, "velocity": 110, "channel": 0}, {"type": "note_off", "time": 1333, "note": 69, "velocity": 110, "channel": 0}, {"type": "note_on", "time": 26, "note": 67, "velocity": 112, "channel": 0}, {"type": "note_off", "time": 350, "note": 67, "velocity": 112, "channel": 0}, {"type": "note_on", "time": 21, "note": 63, "velocity": 119, "channel": 0}, {"type": "note_off", "time": 260, "note": 63, "velocity": 119, "channel": 0}, {"type": "note_on", "time": 26, "note": 67, "velocity": 117, "channel": 0}, {"type": "note_off", "time": 239, "note": 67, "velocity": 117, "channel": 0}, {"type": "note_on", "time": 31, "note": 63, "velocity": 119, "channel": 0}, {"type": "note_off", "time": 196, "note": 63, "velocity": 119, "channel": 0}, {"type": "note_on", "time": 935, "note": 70, "velocity": 117, "channel": 0}, {"type": "note_off", "time": 170, "note": 70, "velocity": 117, "channel": 0}, {"type": "note_on", "time": 26, "note": 72, "velocity": 112, "channel": 0}, {"type": "note_off", "time": 286, "note": 72, "velocity": 112, "channel": 0}, {"type": "note_on", "time": 90, "note": 62, "velocity": 112, "channel": 0}, {"type": "note_off", "time": 1456, "note": 62, "velocity": 112, "channel": 0}, {"type": "note_on", "time": 5, "note": 59, "velocity": 113, "channel": 0}, {"type": "note_off", "time": 207, "note": 59, "velocity": 113, "channel": 0}, {"type": "note_on", "time": 15, "note": 55, "velocity": 113, "channel": 0}, {"type": "note_off", "time": 223, "note": 55, "velocity": 113, "channel": 0}, {"type": "note_on", "time": 31, "note": 57, "velocity": 106, "channel": 0}, {"type": "note_off", "time": 536, "note": 57, "velocity": 106, "channel": 0}, {"type": "note_on", "time": 943, "note": 57, "velocity": 119, "channel": 0}, {"type": "note_off", "time": 292, "note": 57, "velocity": 119, "channel": 0}, {"type": "note_on", "time": 60, "note": 60, "velocity": 105, "channel": 0}, {"type": "note_off", "time": 207, "note": 60, "velocity": 105, "channel": 0}, {"type": "note_on", "time": 29, "note": 59, "velocity": 107, "channel": 0}, {"type": "note_off", "time": 281, "note": 59, "velocity": 107, "channel": 0}, {"type": "note_on", "time": 788, "note": 59, "velocity": 112, "channel": 0}, {"type": "note_off", "time": 286, "note": 59, "velocity": 112, "channel": 0}, {"type": "note_on", "time": 21, "note": 61, "velocity": 110, "channel": 0}, {"type": "note_off", "time": 244, "note": 61, "velocity": 110, "channel": 0}, {"type": "note_on", "time": 10, "note": 64, "velocity": 112, "channel": 0}, {"type": "note_off", "time": 217, "note": 64, "velocity": 112, "channel": 0}, {"type": "note_on", "time": 21, "note": 63, "velocity": 113, "channel": 0}, {"type": "note_off", "time": 271, "note": 63, "velocity": 113, "channel": 0}, {"type": "note_on", "time": 733, "note": 63, "velocity": 120, "channel": 0}, {"type": "note_off", "time": 281, "note": 63, "velocity": 120, "channel": 0}, {"type": "note_on", "time": 31, "note": 65, "velocity": 116, "channel": 0}, {"type": "note_off", "time": 212, "note": 65, "velocity": 116, "channel": 0}, {"type": "note_on", "time": 15, "note": 67, "velocity": 121, "channel": 0}, {"type": "note_off", "time": 212, "note": 67, "velocity": 121, "channel": 0}, {"type": "note_on", "time": 37, "note": 69, "velocity": 115, "channel": 0}, {"type": "note_off", "time": 345, "note": 69, "velocity": 115, "channel": 0}, {"type": "note_on", "time": 744, "note": 69, "velocity": 118, "channel": 0}, {"type": "note_off", "time": 387, "note": 69, "velocity": 118, "channel": 0}, {"type": "note_on", "time": 5, "note": 71, "velocity": 116, "channel": 0}, {"type": "note_off", "time": 324, "note": 71, "velocity": 116, "channel": 0}, {"type": "note_on", "time": 223, "note": 71, "velocity": 117, "channel": 0}, {"type": "note_off", "time": 1030, "note": 71, "velocity": 117, "channel": 0}, {"type": "note_on", "time": 21, "note": 72, "velocity": 116, "channel": 0}, {"type": "note_off", "time": 1084, "note": 72, "velocity": 116, "channel": 0}, {"type": "note_on", "time": 1004, "note": 72, "velocity": 120, "channel": 0}, {"type": "note_off", "time": 324, "note": 72, "velocity": 120, "channel": 0}, {"type": "note_on", "time": 37, "note": 71, "velocity": 120, "channel": 0}, {"type": "note_off", "time": 340, "note": 71, "velocity": 120, "channel": 0}, {"type": "note_on", "time": 244, "note": 71, "velocity": 117, "channel": 0}, {"type": "note_off", "time": 334, "note": 71, "velocity": 117, "channel": 0}, {"type": "note_on", "time": 15, "note": 75, "velocity": 106, "channel": 0}, {"type": "note_off", "time": 217, "note": 75, "velocity": 106, "channel": 0}, {"type": "note_on", "time": 212, "note": 78, "velocity": 115, "channel": 0}, {"type": "note_off", "time": 111, "note": 78, "velocity": 115, "channel": 0}, {"type": "note_on", "time": 21, "note": 79, "velocity": 118, "channel": 0}, {"type": "note_off", "time": 1158, "note": 79, "velocity": 118, "channel": 0}, {"type": "note_on", "time": 712, "note": 72, "velocity": 120, "channel": 0}, {"type": "note_off", "time": 457, "note": 72, "velocity": 120, "channel": 0}, {"type": "note_on", "time": 15, "note": 71, "velocity": 115, "channel": 0}, {"type": "note_off", "time": 292, "note": 71, "velocity": 115, "channel": 0}, {"type": "note_on", "time": 286, "note": 71, "velocity": 116, "channel": 0}, {"type": "note_off", "time": 359, "note": 71, "velocity": 116, "channel": 0}, {"type": "note_on", "time": 0, "note": 75, "velocity": 104, "channel": 0}, {"type": "note_off", "time": 217, "note": 75, "velocity": 104, "channel": 0}, {"type": "note_on", "time": 367, "note": 79, "velocity": 113, "channel": 0}, {"type": "note_off", "time": 211, "note": 79, "velocity": 113, "channel": 0}, {"type": "note_on", "time": 7, "note": 80, "velocity": 115, "channel": 0}, {"type": "note_off", "time": 238, "note": 80, "velocity": 115, "channel": 0}, {"type": "note_on", "time": 7, "note": 81, "velocity": 110, "channel": 0}, {"type": "note_on", "time": 132, "note": 82, "velocity": 110, "channel": 0}, {"type": "note_off", "time": 0, "note": 81, "velocity": 110, "channel": 0}, {"type": "note_off", "time": 506, "note": 82, "velocity": 110, "channel": 0}, {"type": "note_on", "time": 11, "note": 81, "velocity": 90, "channel": 0}, {"type": "note_off", "time": 581, "note": 81, "velocity": 90, "channel": 0}, {"type": "note_on", "time": 158, "note": 79, "velocity": 102, "channel": 0}, {"type": "note_off", "time": 294, "note": 79, "velocity": 102, "channel": 0}, {"type": "note_on", "time": 75, "note": 80, "velocity": 107, "channel": 0}, {"type": "note_off", "time": 993, "note": 80, "velocity": 107, "channel": 0}, {"type": "note_on", "time": 11, "note": 79, "velocity": 108, "channel": 0}, {"type": "note_off", "time": 854, "note": 79, "velocity": 108, "channel": 0}, {"type": "note_on", "time": 823, "note": 75, "velocity": 107, "channel": 0}, {"type": "note_off", "time": 275, "note": 75, "velocity": 107, "channel": 0}, {"type": "note_on", "time": 7, "note": 74, "velocity": 110, "channel": 0}, {"type": "note_off", "time": 105, "note": 74, "velocity": 110, "channel": 0}, {"type": "note_on", "time": 7, "note": 71, "velocity": 114, "channel": 0}, {"type": "note_off", "time": 287, "note": 71, "velocity": 114, "channel": 0}, {"type": "note_on", "time": 219, "note": 71, "velocity": 120, "channel": 0}, {"type": "note_off", "time": 313, "note": 71, "velocity": 120, "channel": 0}, {"type": "note_on", "time": 0, "note": 70, "velocity": 119, "channel": 0}, {"type": "note_off", "time": 287, "note": 70, "velocity": 119, "channel": 0}, {"type": "note_on", "time": 7, "note": 69, "velocity": 121, "channel": 0}, {"type": "note_off", "time": 434, "note": 69, "velocity": 121, "channel": 0}, {"type": "note_on", "time": 173, "note": 76, "velocity": 107, "channel": 0}, {"type": "note_off", "time": 249, "note": 76, "velocity": 107, "channel": 0}, {"type": "note_on", "time": 18, "note": 77, "velocity": 113, "channel": 0}, {"type": "note_off", "time": 770, "note": 77, "velocity": 113, "channel": 0}, {"type": "note_on", "time": 18, "note": 75, "velocity": 115, "channel": 0}, {"type": "note_off", "time": 1088, "note": 75, "velocity": 115, "channel": 0}, {"type": "note_on", "time": 691, "note": 71, "velocity": 119, "channel": 0}, {"type": "note_off", "time": 238, "note": 71, "velocity": 119, "channel": 0}, {"type": "note_on", "time": 22, "note": 69, "velocity": 113, "channel": 0}, {"type": "note_off", "time": 279, "note": 69, "velocity": 113, "channel": 0}, {"type": "note_on", "time": 0, "note": 71, "velocity": 115, "channel": 0}, {"type": "note_off", "time": 253, "note": 71, "velocity": 115, "channel": 0}, {"type": "note_on", "time": 52, "note": 75, "velocity": 110, "channel": 0}, {"type": "note_off", "time": 374, "note": 75, "velocity": 110, "channel": 0}, {"type": "note_on", "time": 268, "note": 69, "velocity": 114, "channel": 0}, {"type": "note_off", "time": 324, "note": 69, "velocity": 114, "channel": 0}, {"type": "note_on", "time": 26, "note": 71, "velocity": 113, "channel": 0}, {"type": "note_off", "time": 241, "note": 71, "velocity": 113, "channel": 0}, {"type": "note_on", "time": 256, "note": 64, "velocity": 122, "channel": 0}, {"type": "note_off", "time": 154, "note": 64, "velocity": 122, "channel": 0}, {"type": "note_on", "time": 7, "note": 65, "velocity": 119, "channel": 0}, {"type": "note_off", "time": 1394, "note": 65, "velocity": 119, "channel": 0}, {"type": "note_on", "time": 41, "note": 63, "velocity": 121, "channel": 0}, {"type": "note_off", "time": 290, "note": 63, "velocity": 121, "channel": 0}, {"type": "note_on", "time": 37, "note": 59, "velocity": 113, "channel": 0}, {"type": "note_off", "time": 290, "note": 59, "velocity": 113, "channel": 0}, {"type": "note_on", "time": 22, "note": 57, "velocity": 112, "channel": 0}, {"type": "note_off", "time": 260, "note": 57, "velocity": 112, "channel": 0}, {"type": "note_on", "time": 52, "note": 59, "velocity": 113, "channel": 0}, {"type": "note_off", "time": 173, "note": 59, "velocity": 113, "channel": 0}, {"type": "note_on", "time": 15, "note": 61, "velocity": 111, "channel": 0}, {"type": "note_off", "time": 200, "note": 61, "velocity": 111, "channel": 0}, {"type": "note_on", "time": 30, "note": 63, "velocity": 125, "channel": 0}, {"type": "note_off", "time": 245, "note": 63, "velocity": 125, "channel": 0}, {"type": "note_on", "time": 11, "note": 65, "velocity": 119, "channel": 0}, {"type": "note_off", "time": 120, "note": 65, "velocity": 119, "channel": 0}, {"type": "note_on", "time": 37, "note": 69, "velocity": 119, "channel": 0}, {"type": "note_off", "time": 177, "note": 69, "velocity": 119, "channel": 0}, {"type": "note_on", "time": 18, "note": 71, "velocity": 120, "channel": 0}, {"type": "note_off", "time": 204, "note": 71, "velocity": 120, "channel": 0}, {"type": "note_on", "time": 7, "note": 73, "velocity": 116, "channel": 0}, {"type": "note_off", "time": 321, "note": 73, "velocity": 116, "channel": 0}, {"type": "note_on", "time": 1224, "note": 71, "velocity": 118, "channel": 0}, {"type": "note_off", "time": 275, "note": 71, "velocity": 118, "channel": 0}, {"type": "note_on", "time": 18, "note": 69, "velocity": 118, "channel": 0}, {"type": "note_off", "time": 374, "note": 69, "velocity": 118, "channel": 0}, {"type": "note_on", "time": 260, "note": 75, "velocity": 124, "channel": 0}, {"type": "note_off", "time": 170, "note": 75, "velocity": 124, "channel": 0}, {"type": "note_on", "time": 1, "note": 76, "velocity": 122, "channel": 0}, {"type": "note_off", "time": 96, "note": 76, "velocity": 122, "channel": 0}, {"type": "note_on", "time": 3, "note": 77, "velocity": 109, "channel": 0}, {"type": "note_off", "time": 721, "note": 77, "velocity": 109, "channel": 0}, {"type": "note_on", "time": 18, "note": 75, "velocity": 113, "channel": 0}, {"type": "note_off", "time": 1182, "note": 75, "velocity": 113, "channel": 0}, {"type": "note_on", "time": 71, "note": 71, "velocity": 117, "channel": 0}, {"type": "note_off", "time": 253, "note": 71, "velocity": 117, "channel": 0}, {"type": "note_on", "time": 34, "note": 69, "velocity": 123, "channel": 0}, {"type": "note_off", "time": 230, "note": 69, "velocity": 123, "channel": 0}, {"type": "note_on", "time": 15, "note": 71, "velocity": 120, "channel": 0}, {"type": "note_off", "time": 230, "note": 71, "velocity": 120, "channel": 0}, {"type": "note_on", "time": 90, "note": 63, "velocity": 123, "channel": 0}, {"type": "note_off", "time": 279, "note": 63, "velocity": 123, "channel": 0}, {"type": "note_on", "time": 26, "note": 65, "velocity": 119, "channel": 0}, {"type": "note_off", "time": 1103, "note": 65, "velocity": 119, "channel": 0}, {"type": "note_on", "time": 22, "note": 63, "velocity": 122, "channel": 0}, {"type": "note_off", "time": 238, "note": 63, "velocity": 122, "channel": 0}, {"type": "note_on", "time": 18, "note": 59, "velocity": 116, "channel": 0}, {"type": "note_off", "time": 170, "note": 59, "velocity": 116, "channel": 0}, {"type": "note_on", "time": 26, "note": 57, "velocity": 116, "channel": 0}, {"type": "note_off", "time": 162, "note": 57, "velocity": 116, "channel": 0}, {"type": "note_on", "time": 1009, "note": 59, "velocity": 117, "channel": 0}, {"type": "note_off", "time": 268, "note": 59, "velocity": 117, "channel": 0}, {"type": "note_on", "time": 30, "note": 67, "velocity": 116, "channel": 0}, {"type": "note_off", "time": 211, "note": 67, "velocity": 116, "channel": 0}, {"type": "note_on", "time": 18, "note": 70, "velocity": 119, "channel": 0}, {"type": "note_off", "time": 464, "note": 70, "velocity": 119, "channel": 0}, {"type": "note_on", "time": 778, "note": 69, "velocity": 123, "channel": 0}, {"type": "note_off", "time": 256, "note": 69, "velocity": 123, "channel": 0}, {"type": "note_on", "time": 7, "note": 70, "velocity": 118, "channel": 0}, {"type": "note_off", "time": 222, "note": 70, "velocity": 118, "channel": 0}, {"type": "note_on", "time": 98, "note": 67, "velocity": 122, "channel": 0}, {"type": "note_off", "time": 328, "note": 67, "velocity": 122, "channel": 0}, {"type": "note_on", "time": 26, "note": 64, "velocity": 115, "channel": 0}, {"type": "note_off", "time": 249, "note": 64, "velocity": 115, "channel": 0}, {"type": "note_on", "time": 3, "note": 67, "velocity": 114, "channel": 0}, {"type": "note_off", "time": 260, "note": 67, "velocity": 114, "channel": 0}, {"type": "note_on", "time": 41, "note": 72, "velocity": 118, "channel": 0}, {"type": "note_off", "time": 1163, "note": 72, "velocity": 118, "channel": 0}, {"type": "note_on", "time": 26, "note": 70, "velocity": 117, "channel": 0}, {"type": "note_off", "time": 971, "note": 70, "velocity": 117, "channel": 0}, {"type": "note_on", "time": 638, "note": 69, "velocity": 113, "channel": 0}, {"type": "note_off", "time": 495, "note": 69, "velocity": 113, "channel": 0}, {"type": "note_on", "time": 24, "note": 68, "velocity": 117, "channel": 0}, {"type": "note_off", "time": 168, "note": 68, "velocity": 117, "channel": 0}, {"type": "note_on", "time": 7, "note": 67, "velocity": 118, "channel": 0}, {"type": "note_off", "time": 211, "note": 67, "velocity": 118, "channel": 0}, {"type": "note_on", "time": 22, "note": 64, "velocity": 112, "channel": 0}, {"type": "note_off", "time": 272, "note": 64, "velocity": 112, "channel": 0}, {"type": "note_on", "time": 3, "note": 67, "velocity": 114, "channel": 0}, {"type": "note_off", "time": 256, "note": 67, "velocity": 114, "channel": 0}, {"type": "note_on", "time": 52, "note": 72, "velocity": 113, "channel": 0}, {"type": "note_off", "time": 343, "note": 72, "velocity": 113, "channel": 0}, {"type": "note_on", "time": 279, "note": 72, "velocity": 120, "channel": 0}, {"type": "note_off", "time": 718, "note": 72, "velocity": 120, "channel": 0}, {"type": "note_on", "time": 41, "note": 70, "velocity": 114, "channel": 0}, {"type": "note_off", "time": 842, "note": 70, "velocity": 114, "channel": 0}, {"type": "note_on", "time": 521, "note": 52, "velocity": 120, "channel": 0}, {"type": "note_off", "time": 204, "note": 52, "velocity": 120, "channel": 0}, {"type": "note_on", "time": 0, "note": 55, "velocity": 111, "channel": 0}, {"type": "note_off", "time": 324, "note": 55, "velocity": 111, "channel": 0}, {"type": "note_on", "time": 30, "note": 51, "velocity": 115, "channel": 0}, {"type": "note_off", "time": 226, "note": 51, "velocity": 115, "channel": 0}, {"type": "note_on", "time": 30, "note": 49, "velocity": 111, "channel": 0}, {"type": "note_off", "time": 120, "note": 49, "velocity": 111, "channel": 0}, {"type": "note_on", "time": 22, "note": 51, "velocity": 115, "channel": 0}, {"type": "note_off", "time": 154, "note": 51, "velocity": 115, "channel": 0}, {"type": "note_on", "time": 11, "note": 55, "velocity": 109, "channel": 0}, {"type": "note_off", "time": 223, "note": 55, "velocity": 109, "channel": 0}, {"type": "note_on", "time": 10, "note": 52, "velocity": 120, "channel": 0}, {"type": "note_off", "time": 252, "note": 52, "velocity": 120, "channel": 0}, {"type": "note_on", "time": 38, "note": 54, "velocity": 111, "channel": 0}, {"type": "note_off", "time": 98, "note": 54, "velocity": 111, "channel": 0}, {"type": "note_on", "time": 7, "note": 56, "velocity": 112, "channel": 0}, {"type": "note_off", "time": 249, "note": 56, "velocity": 112, "channel": 0}, {"type": "note_on", "time": 46, "note": 58, "velocity": 106, "channel": 0}, {"type": "note_off", "time": 172, "note": 58, "velocity": 106, "channel": 0}, {"type": "note_on", "time": 29, "note": 62, "velocity": 120, "channel": 0}, {"type": "note_off", "time": 193, "note": 62, "velocity": 120, "channel": 0}, {"type": "note_on", "time": 26, "note": 61, "velocity": 117, "channel": 0}, {"type": "note_off", "time": 140, "note": 61, "velocity": 117, "channel": 0}, {"type": "note_on", "time": 39, "note": 59, "velocity": 115, "channel": 0}, {"type": "note_off", "time": 132, "note": 59, "velocity": 115, "channel": 0}, {"type": "note_on", "time": 11, "note": 58, "velocity": 114, "channel": 0}, {"type": "note_off", "time": 219, "note": 58, "velocity": 114, "channel": 0}, {"type": "note_on", "time": 18, "note": 57, "velocity": 111, "channel": 0}, {"type": "note_off", "time": 102, "note": 57, "velocity": 111, "channel": 0}, {"type": "note_on", "time": 3, "note": 56, "velocity": 111, "channel": 0}, {"type": "note_off", "time": 158, "note": 56, "velocity": 111, "channel": 0}, {"type": "note_on", "time": 26, "note": 55, "velocity": 116, "channel": 0}, {"type": "note_off", "time": 167, "note": 55, "velocity": 116, "channel": 0}, {"type": "note_on", "time": 940, "note": 61, "velocity": 111, "channel": 0}, {"type": "note_off", "time": 192, "note": 61, "velocity": 111, "channel": 0}, {"type": "note_on", "time": 11, "note": 63, "velocity": 106, "channel": 0}, {"type": "note_off", "time": 241, "note": 63, "velocity": 106, "channel": 0}, {"type": "note_on", "time": 45, "note": 64, "velocity": 120, "channel": 0}, {"type": "note_off", "time": 170, "note": 64, "velocity": 120, "channel": 0}, {"type": "note_on", "time": 3, "note": 66, "velocity": 114, "channel": 0}, {"type": "note_off", "time": 177, "note": 66, "velocity": 114, "channel": 0}, {"type": "note_on", "time": 143, "note": 61, "velocity": 119, "channel": 0}, {"type": "note_off", "time": 164, "note": 61, "velocity": 119, "channel": 0}, {"type": "note_on", "time": 15, "note": 63, "velocity": 126, "channel": 0}, {"type": "note_off", "time": 286, "note": 63, "velocity": 126, "channel": 0}, {"type": "note_on", "time": 71, "note": 67, "velocity": 117, "channel": 0}, {"type": "note_off", "time": 188, "note": 67, "velocity": 117, "channel": 0}, {"type": "note_on", "time": 7, "note": 72, "velocity": 119, "channel": 0}, {"type": "note_off", "time": 632, "note": 72, "velocity": 119, "channel": 0}, {"type": "note_on", "time": 164, "note": 72, "velocity": 120, "channel": 0}, {"type": "note_off", "time": 728, "note": 72, "velocity": 120, "channel": 0}, {"type": "note_on", "time": 29, "note": 70, "velocity": 116, "channel": 0}, {"type": "note_off", "time": 890, "note": 70, "velocity": 116, "channel": 0}, {"type": "note_on", "time": 1033, "note": 72, "velocity": 119, "channel": 0}, {"type": "note_off", "time": 385, "note": 72, "velocity": 119, "channel": 0}, {"type": "note_on", "time": 68, "note": 75, "velocity": 108, "channel": 0}, {"type": "note_off", "time": 253, "note": 75, "velocity": 108, "channel": 0}, {"type": "note_on", "time": 124, "note": 75, "velocity": 107, "channel": 0}, {"type": "note_off", "time": 529, "note": 75, "velocity": 107, "channel": 0}, {"type": "note_on", "time": 30, "note": 73, "velocity": 115, "channel": 0}, {"type": "note_off", "time": 948, "note": 73, "velocity": 115, "channel": 0}, {"type": "note_on", "time": 665, "note": 69, "velocity": 120, "channel": 0}, {"type": "note_off", "time": 260, "note": 69, "velocity": 120, "channel": 0}, {"type": "note_on", "time": 7, "note": 70, "velocity": 118, "channel": 0}, {"type": "note_off", "time": 185, "note": 70, "velocity": 118, "channel": 0}, {"type": "note_on", "time": 11, "note": 69, "velocity": 116, "channel": 0}, {"type": "note_off", "time": 68, "note": 69, "velocity": 116, "channel": 0}, {"type": "note_on", "time": 7, "note": 67, "velocity": 121, "channel": 0}, {"type": "note_off", "time": 298, "note": 67, "velocity": 121, "channel": 0}, {"type": "note_on", "time": 3, "note": 68, "velocity": 110, "channel": 0}, {"type": "note_off", "time": 170, "note": 68, "velocity": 110, "channel": 0}, {"type": "note_on", "time": 0, "note": 67, "velocity": 113, "channel": 0}, {"type": "note_off", "time": 230, "note": 67, "velocity": 113, "channel": 0}, {"type": "note_on", "time": 15, "note": 72, "velocity": 112, "channel": 0}, {"type": "note_off", "time": 230, "note": 72, "velocity": 112, "channel": 0}, {"type": "note_on", "time": 170, "note": 75, "velocity": 113, "channel": 0}, {"type": "note_off", "time": 283, "note": 75, "velocity": 113, "channel": 0}, {"type": "note_on", "time": 7, "note": 73, "velocity": 111, "channel": 0}, {"type": "note_off", "time": 86, "note": 73, "velocity": 111, "channel": 0}, {"type": "note_on", "time": 83, "note": 79, "velocity": 115, "channel": 0}, {"type": "note_off", "time": 804, "note": 79, "velocity": 115, "channel": 0}, {"type": "note_on", "time": 1069, "note": 69, "velocity": 108, "channel": 0}, {"type": "note_off", "time": 256, "note": 69, "velocity": 108, "channel": 0}, {"type": "note_on", "time": 26, "note": 72, "velocity": 115, "channel": 0}, {"type": "note_off", "time": 336, "note": 72, "velocity": 115, "channel": 0}, {"type": "note_on", "time": 181, "note": 69, "velocity": 118, "channel": 0}, {"type": "note_off", "time": 434, "note": 69, "velocity": 118, "channel": 0}, {"type": "note_on", "time": 303, "note": 79, "velocity": 116, "channel": 0}, {"type": "note_off", "time": 103, "note": 79, "velocity": 116, "channel": 0}, {"type": "note_on", "time": 7, "note": 80, "velocity": 114, "channel": 0}, {"type": "note_off", "time": 34, "note": 80, "velocity": 114, "channel": 0}, {"type": "note_on", "time": 13, "note": 81, "velocity": 111, "channel": 0}, {"type": "note_off", "time": 1198, "note": 81, "velocity": 111, "channel": 0}, {"type": "note_on", "time": 29, "note": 79, "velocity": 112, "channel": 0}, {"type": "note_off", "time": 611, "note": 79, "velocity": 112, "channel": 0}, {"type": "note_on", "time": 252, "note": 77, "velocity": 92, "channel": 0}, {"type": "note_off", "time": 520, "note": 77, "velocity": 92, "channel": 0}, {"type": "note_on", "time": 15, "note": 74, "velocity": 106, "channel": 0}, {"type": "note_off", "time": 324, "note": 74, "velocity": 106, "channel": 0}, {"type": "note_on", "time": 7, "note": 72, "velocity": 100, "channel": 0}, {"type": "note_off", "time": 143, "note": 72, "velocity": 100, "channel": 0}, {"type": "note_on", "time": 13, "note": 69, "velocity": 110, "channel": 0}, {"type": "note_off", "time": 1105, "note": 69, "velocity": 110, "channel": 0}, {"type": "note_on", "time": 896, "note": 69, "velocity": 117, "channel": 0}, {"type": "note_off", "time": 234, "note": 69, "velocity": 117, "channel": 0}, {"type": "note_on", "time": 37, "note": 71, "velocity": 115, "channel": 0}, {"type": "note_off", "time": 328, "note": 71, "velocity": 115, "channel": 0}, {"type": "note_on", "time": 26, "note": 67, "velocity": 113, "channel": 0}, {"type": "note_off", "time": 2101, "note": 67, "velocity": 113, "channel": 0}, {"type": "note_on", "time": 94, "note": 63, "velocity": 114, "channel": 0}, {"type": "note_off", "time": 290, "note": 63, "velocity": 114, "channel": 0}, {"type": "note_on", "time": 3, "note": 67, "velocity": 110, "channel": 0}, {"type": "note_off", "time": 170, "note": 67, "velocity": 110, "channel": 0}, {"type": "note_on", "time": 11, "note": 66, "velocity": 109, "channel": 0}, {"type": "note_off", "time": 238, "note": 66, "velocity": 109, "channel": 0}, {"type": "note_on", "time": 56, "note": 61, "velocity": 111, "channel": 0}, {"type": "note_off", "time": 211, "note": 61, "velocity": 111, "channel": 0}, {"type": "note_on", "time": 41, "note": 59, "velocity": 111, "channel": 0}, {"type": "note_off", "time": 283, "note": 59, "velocity": 111, "channel": 0}, {"type": "note_on", "time": 15, "note": 57, "velocity": 115, "channel": 0}, {"type": "note_off", "time": 192, "note": 57, "velocity": 115, "channel": 0}, {"type": "note_on", "time": 15, "note": 59, "velocity": 116, "channel": 0}, {"type": "note_off", "time": 181, "note": 59, "velocity": 116, "channel": 0}, {"type": "note_on", "time": 30, "note": 58, "velocity": 110, "channel": 0}, {"type": "note_off", "time": 332, "note": 58, "velocity": 110, "channel": 0}, {"type": "note_on", "time": 37, "note": 57, "velocity": 116, "channel": 0}, {"type": "note_off", "time": 105, "note": 57, "velocity": 116, "channel": 0}, {"type": "note_on", "time": 7, "note": 59, "velocity": 109, "channel": 0}, {"type": "note_off", "time": 302, "note": 59, "velocity": 109, "channel": 0}, {"type": "note_on", "time": 30, "note": 63, "velocity": 119, "channel": 0}, {"type": "note_off", "time": 253, "note": 63, "velocity": 119, "channel": 0}, {"type": "note_on", "time": 30, "note": 66, "velocity": 111, "channel": 0}, {"type": "note_off", "time": 204, "note": 66, "velocity": 111, "channel": 0}, {"type": "note_on", "time": 22, "note": 69, "velocity": 118, "channel": 0}, {"type": "note_off", "time": 264, "note": 69, "velocity": 118, "channel": 0}, {"type": "note_on", "time": 7, "note": 71, "velocity": 121, "channel": 0}, {"type": "note_off", "time": 192, "note": 71, "velocity": 121, "channel": 0}, {"type": "note_on", "time": 7, "note": 74, "velocity": 119, "channel": 0}, {"type": "note_off", "time": 551, "note": 74, "velocity": 119, "channel": 0}, {"type": "note_on", "time": 245, "note": 74, "velocity": 122, "channel": 0}, {"type": "note_off", "time": 461, "note": 74, "velocity": 122, "channel": 0}, {"type": "note_on", "time": 11, "note": 72, "velocity": 122, "channel": 0}, {"type": "note_off", "time": 479, "note": 72, "velocity": 122, "channel": 0}, {"type": "note_on", "time": 140, "note": 75, "velocity": 115, "channel": 0}, {"type": "note_off", "time": 124, "note": 75, "velocity": 115, "channel": 0}, {"type": "note_on", "time": 10, "note": 76, "velocity": 120, "channel": 0}, {"type": "note_off", "time": 130, "note": 76, "velocity": 120, "channel": 0}, {"type": "note_on", "time": 5, "note": 77, "velocity": 107, "channel": 0}, {"type": "note_off", "time": 658, "note": 77, "velocity": 107, "channel": 0}, {"type": "note_on", "time": 43, "note": 75, "velocity": 115, "channel": 0}, {"type": "note_off", "time": 1171, "note": 75, "velocity": 115, "channel": 0}, {"type": "note_on", "time": 1013, "note": 74, "velocity": 122, "channel": 0}, {"type": "note_off", "time": 196, "note": 74, "velocity": 122, "channel": 0}, {"type": "note_on", "time": 15, "note": 73, "velocity": 121, "channel": 0}, {"type": "note_off", "time": 100, "note": 73, "velocity": 121, "channel": 0}, {"type": "note_on", "time": 5, "note": 71, "velocity": 121, "channel": 0}, {"type": "note_off", "time": 100, "note": 71, "velocity": 121, "channel": 0}, {"type": "note_on", "time": 0, "note": 69, "velocity": 118, "channel": 0}, {"type": "note_off", "time": 196, "note": 69, "velocity": 118, "channel": 0}, {"type": "note_on", "time": 21, "note": 68, "velocity": 121, "channel": 0}, {"type": "note_off", "time": 983, "note": 68, "velocity": 121, "channel": 0}, {"type": "note_on", "time": 37, "note": 66, "velocity": 116, "channel": 0}, {"type": "note_off", "time": 207, "note": 66, "velocity": 116, "channel": 0}, {"type": "note_on", "time": 21, "note": 65, "velocity": 116, "channel": 0}, {"type": "note_on", "time": 74, "note": 68, "velocity": 119, "channel": 0}, {"type": "note_off", "time": 0, "note": 65, "velocity": 116, "channel": 0}, {"type": "note_off", "time": 233, "note": 68, "velocity": 119, "channel": 0}, {"type": "note_on", "time": 15, "note": 66, "velocity": 114, "channel": 0}, {"type": "note_off", "time": 308, "note": 66, "velocity": 114, "channel": 0}, {"type": "note_on", "time": 26, "note": 65, "velocity": 114, "channel": 0}, {"type": "note_off", "time": 85, "note": 65, "velocity": 114, "channel": 0}, {"type": "note_on", "time": 10, "note": 64, "velocity": 119, "channel": 0}, {"type": "note_off", "time": 106, "note": 64, "velocity": 119, "channel": 0}, {"type": "note_on", "time": 26, "note": 63, "velocity": 117, "channel": 0}, {"type": "note_off", "time": 223, "note": 63, "velocity": 117, "channel": 0}, {"type": "note_on", "time": 79, "note": 65, "velocity": 115, "channel": 0}, {"type": "note_off", "time": 191, "note": 65, "velocity": 115, "channel": 0}, {"type": "note_on", "time": 10, "note": 62, "velocity": 116, "channel": 0}, {"type": "note_off", "time": 191, "note": 62, "velocity": 116, "channel": 0}, {"type": "note_on", "time": 31, "note": 61, "velocity": 107, "channel": 0}, {"type": "note_off", "time": 239, "note": 61, "velocity": 107, "channel": 0}, {"type": "note_on", "time": 116, "note": 63, "velocity": 117, "channel": 0}, {"type": "note_off", "time": 228, "note": 63, "velocity": 117, "channel": 0}, {"type": "note_on", "time": 31, "note": 59, "velocity": 113, "channel": 0}, {"type": "note_off", "time": 164, "note": 59, "velocity": 113, "channel": 0}, {"type": "note_on", "time": 42, "note": 57, "velocity": 111, "channel": 0}, {"type": "note_off", "time": 393, "note": 57, "velocity": 111, "channel": 0}, {"type": "note_on", "time": 1121, "note": 59, "velocity": 113, "channel": 0}, {"type": "note_off", "time": 478, "note": 59, "velocity": 113, "channel": 0}, {"type": "note_on", "time": 5, "note": 57, "velocity": 115, "channel": 0}, {"type": "note_off", "time": 192, "note": 57, "velocity": 115, "channel": 0}, {"type": "note_on", "time": 41, "note": 54, "velocity": 112, "channel": 0}, {"type": "note_off", "time": 177, "note": 54, "velocity": 112, "channel": 0}, {"type": "note_on", "time": 58, "note": 57, "velocity": 115, "channel": 0}, {"type": "note_off", "time": 256, "note": 57, "velocity": 115, "channel": 0}, {"type": "note_on", "time": 15, "note": 55, "velocity": 114, "channel": 0}, {"type": "note_off", "time": 219, "note": 55, "velocity": 114, "channel": 0}, {"type": "note_on", "time": 26, "note": 52, "velocity": 111, "channel": 0}, {"type": "note_off", "time": 234, "note": 52, "velocity": 111, "channel": 0}, {"type": "note_on", "time": 60, "note": 47, "velocity": 111, "channel": 0}, {"type": "note_off", "time": 340, "note": 47, "velocity": 111, "channel": 0}, {"type": "note_on", "time": 3, "note": 54, "velocity": 112, "channel": 0}, {"type": "note_off", "time": 185, "note": 54, "velocity": 112, "channel": 0}, {"type": "note_on", "time": 30, "note": 49, "velocity": 110, "channel": 0}, {"type": "note_off", "time": 302, "note": 49, "velocity": 110, "channel": 0}, {"type": "note_on", "time": 33, "note": 51, "velocity": 110, "channel": 0}, {"type": "note_off", "time": 207, "note": 51, "velocity": 110, "channel": 0}, {"type": "note_on", "time": 61, "note": 53, "velocity": 113, "channel": 0}, {"type": "note_off", "time": 253, "note": 53, "velocity": 113, "channel": 0}, {"type": "note_on", "time": 7, "note": 55, "velocity": 112, "channel": 0}, {"type": "note_off", "time": 255, "note": 55, "velocity": 112, "channel": 0}, {"type": "note_on", "time": 1354, "note": 58, "velocity": 111, "channel": 0}, {"type": "note_off", "time": 1201, "note": 58, "velocity": 111, "channel": 0}, {"type": "note_on", "time": 4, "note": 55, "velocity": 110, "channel": 0}, {"type": "note_off", "time": 245, "note": 55, "velocity": 110, "channel": 0}, {"type": "note_on", "time": 15, "note": 56, "velocity": 116, "channel": 0}, {"type": "note_off", "time": 238, "note": 56, "velocity": 116, "channel": 0}, {"type": "note_on", "time": 7, "note": 58, "velocity": 109, "channel": 0}, {"type": "note_off", "time": 222, "note": 58, "velocity": 109, "channel": 0}, {"type": "note_on", "time": 11, "note": 60, "velocity": 112, "channel": 0}, {"type": "note_off", "time": 166, "note": 60, "velocity": 112, "channel": 0}, {"type": "note_on", "time": 3, "note": 62, "velocity": 114, "channel": 0}, {"type": "note_off", "time": 120, "note": 62, "velocity": 114, "channel": 0}, {"type": "note_on", "time": 11, "note": 60, "velocity": 114, "channel": 0}, {"type": "note_off", "time": 185, "note": 60, "velocity": 114, "channel": 0}, {"type": "note_on", "time": 26, "note": 56, "velocity": 113, "channel": 0}, {"type": "note_off", "time": 222, "note": 56, "velocity": 113, "channel": 0}, {"type": "note_on", "time": 11, "note": 57, "velocity": 114, "channel": 0}, {"type": "note_off", "time": 143, "note": 57, "velocity": 114, "channel": 0}, {"type": "note_on", "time": 15, "note": 60, "velocity": 109, "channel": 0}, {"type": "note_off", "time": 143, "note": 60, "velocity": 109, "channel": 0}, {"type": "note_on", "time": 15, "note": 63, "velocity": 119, "channel": 0}, {"type": "note_off", "time": 215, "note": 63, "velocity": 119, "channel": 0}, {"type": "note_on", "time": 3, "note": 68, "velocity": 122, "channel": 0}, {"type": "note_off", "time": 268, "note": 68, "velocity": 122, "channel": 0}, {"type": "note_on", "time": 3, "note": 67, "velocity": 116, "channel": 0}, {"type": "note_off", "time": 207, "note": 67, "velocity": 116, "channel": 0}, {"type": "note_on", "time": 37, "note": 65, "velocity": 111, "channel": 0}, {"type": "note_off", "time": 219, "note": 65, "velocity": 111, "channel": 0}, {"type": "note_on", "time": 30, "note": 67, "velocity": 113, "channel": 0}, {"type": "note_off", "time": 143, "note": 67, "velocity": 113, "channel": 0}, {"type": "note_on", "time": 41, "note": 66, "velocity": 113, "channel": 0}, {"type": "note_off", "time": 211, "note": 66, "velocity": 113, "channel": 0}, {"type": "note_on", "time": 22, "note": 63, "velocity": 121, "channel": 0}, {"type": "note_off", "time": 279, "note": 63, "velocity": 121, "channel": 0}, {"type": "note_on", "time": 3, "note": 61, "velocity": 109, "channel": 0}, {"type": "note_off", "time": 177, "note": 61, "velocity": 109, "channel": 0}, {"type": "note_on", "time": 34, "note": 59, "velocity": 112, "channel": 0}, {"type": "note_off", "time": 211, "note": 59, "velocity": 112, "channel": 0}, {"type": "note_on", "time": 23, "note": 58, "velocity": 110, "channel": 0}, {"type": "note_off", "time": 200, "note": 58, "velocity": 110, "channel": 0}, {"type": "note_on", "time": 22, "note": 57, "velocity": 112, "channel": 0}, {"type": "note_off", "time": 219, "note": 57, "velocity": 112, "channel": 0}, {"type": "note_on", "time": 19, "note": 59, "velocity": 113, "channel": 0}, {"type": "note_off", "time": 223, "note": 59, "velocity": 113, "channel": 0}, {"type": "note_on", "time": 0, "note": 61, "velocity": 120, "channel": 0}, {"type": "note_off", "time": 201, "note": 61, "velocity": 120, "channel": 0}, {"type": "note_on", "time": 0, "note": 63, "velocity": 116, "channel": 0}, {"type": "note_on", "time": 185, "note": 66, "velocity": 108, "channel": 0}, {"type": "note_off", "time": 0, "note": 63, "velocity": 116, "channel": 0}, {"type": "note_off", "time": 234, "note": 66, "velocity": 108, "channel": 0}, {"type": "note_on", "time": 4, "note": 69, "velocity": 110, "channel": 0}, {"type": "note_off", "time": 207, "note": 69, "velocity": 110, "channel": 0}, {"type": "note_on", "time": 0, "note": 72, "velocity": 121, "channel": 0}, {"type": "note_off", "time": 499, "note": 72, "velocity": 121, "channel": 0}, {"type": "note_on", "time": 26, "note": 69, "velocity": 111, "channel": 0}, {"type": "note_off", "time": 379, "note": 69, "velocity": 111, "channel": 0}, {"type": "note_on", "time": 0, "note": 71, "velocity": 124, "channel": 0}, {"type": "note_off", "time": 385, "note": 71, "velocity": 124, "channel": 0}, {"type": "note_on", "time": 15, "note": 70, "velocity": 105, "channel": 0}, {"type": "note_off", "time": 479, "note": 70, "velocity": 105, "channel": 0}, {"type": "note_on", "time": 1169, "note": 71, "velocity": 116, "channel": 0}, {"type": "note_off", "time": 271, "note": 71, "velocity": 116, "channel": 0}, {"type": "note_on", "time": 21, "note": 69, "velocity": 120, "channel": 0}, {"type": "note_off", "time": 239, "note": 69, "velocity": 120, "channel": 0}, {"type": "note_on", "time": 10, "note": 70, "velocity": 122, "channel": 0}, {"type": "note_off", "time": 573, "note": 70, "velocity": 122, "channel": 0}, {"type": "note_on", "time": 271, "note": 69, "velocity": 121, "channel": 0}, {"type": "note_off", "time": 244, "note": 69, "velocity": 121, "channel": 0}, {"type": "note_on", "time": 31, "note": 67, "velocity": 117, "channel": 0}, {"type": "note_off", "time": 212, "note": 67, "velocity": 117, "channel": 0}, {"type": "note_on", "time": 21, "note": 62, "velocity": 116, "channel": 0}, {"type": "note_off", "time": 297, "note": 62, "velocity": 116, "channel": 0}, {"type": "note_on", "time": 37, "note": 67, "velocity": 114, "channel": 0}, {"type": "note_off", "time": 233, "note": 67, "velocity": 114, "channel": 0}, {"type": "note_on", "time": 26, "note": 66, "velocity": 107, "channel": 0}, {"type": "note_off", "time": 244, "note": 66, "velocity": 107, "channel": 0}, {"type": "note_on", "time": 37, "note": 61, "velocity": 102, "channel": 0}, {"type": "note_off", "time": 281, "note": 61, "velocity": 102, "channel": 0}, {"type": "note_on", "time": 122, "note": 63, "velocity": 118, "channel": 0}, {"type": "note_off", "time": 286, "note": 63, "velocity": 118, "channel": 0}, {"type": "note_on", "time": 15, "note": 59, "velocity": 108, "channel": 0}, {"type": "note_off", "time": 217, "note": 59, "velocity": 108, "channel": 0}, {"type": "note_on", "time": 37, "note": 57, "velocity": 112, "channel": 0}, {"type": "note_off", "time": 223, "note": 57, "velocity": 112, "channel": 0}, {"type": "note_on", "time": 58, "note": 54, "velocity": 108, "channel": 0}, {"type": "note_off", "time": 212, "note": 54, "velocity": 108, "channel": 0}, {"type": "note_on", "time": 10, "note": 59, "velocity": 107, "channel": 0}, {"type": "note_off", "time": 170, "note": 59, "velocity": 107, "channel": 0}, {"type": "note_on", "time": 5, "note": 57, "velocity": 105, "channel": 0}, {"type": "note_off", "time": 2290, "note": 57, "velocity": 105, "channel": 0}, {"type": "note_on", "time": 1588, "note": 69, "velocity": 119, "channel": 0}, {"type": "note_off", "time": 372, "note": 69, "velocity": 119, "channel": 0}, {"type": "note_on", "time": 26, "note": 67, "velocity": 121, "channel": 0}, {"type": "note_off", "time": 286, "note": 67, "velocity": 121, "channel": 0}, {"type": "note_on", "time": 188, "note": 68, "velocity": 122, "channel": 0}, {"type": "note_off", "time": 111, "note": 68, "velocity": 122, "channel": 0}, {"type": "note_on", "time": 2, "note": 69, "velocity": 119, "channel": 0}, {"type": "note_off", "time": 536, "note": 69, "velocity": 119, "channel": 0}, {"type": "note_on", "time": 132, "note": 68, "velocity": 124, "channel": 0}, {"type": "note_off", "time": 92, "note": 68, "velocity": 124, "channel": 0}, {"type": "note_on", "time": 4, "note": 69, "velocity": 120, "channel": 0}, {"type": "note_off", "time": 1307, "note": 69, "velocity": 120, "channel": 0}, {"type": "note_on", "time": 52, "note": 64, "velocity": 118, "channel": 0}, {"type": "note_off", "time": 366, "note": 64, "velocity": 118, "channel": 0}, {"type": "note_on", "time": 7, "note": 67, "velocity": 117, "channel": 0}, {"type": "note_off", "time": 207, "note": 67, "velocity": 117, "channel": 0}, {"type": "note_on", "time": 940, "note": 69, "velocity": 122, "channel": 0}, {"type": "note_off", "time": 324, "note": 69, "velocity": 122, "channel": 0}, {"type": "note_on", "time": 41, "note": 67, "velocity": 111, "channel": 0}, {"type": "note_off", "time": 75, "note": 67, "velocity": 111, "channel": 0}, {"type": "note_on", "time": 41, "note": 64, "velocity": 116, "channel": 0}, {"type": "note_off", "time": 377, "note": 64, "velocity": 116, "channel": 0}, {"type": "note_on", "time": 7, "note": 67, "velocity": 117, "channel": 0}, {"type": "note_off", "time": 351, "note": 67, "velocity": 117, "channel": 0}, {"type": "note_on", "time": 37, "note": 69, "velocity": 118, "channel": 0}, {"type": "note_off", "time": 389, "note": 69, "velocity": 118, "channel": 0}, {"type": "note_on", "time": 295, "note": 69, "velocity": 10, "channel": 0}, {"type": "note_off", "time": 417, "note": 69, "velocity": 10, "channel": 0}, {"type": "note_on", "time": 0, "note": 71, "velocity": 121, "channel": 0}, {"type": "note_off", "time": 395, "note": 71, "velocity": 121, "channel": 0}, {"type": "note_on", "time": 108, "note": 71, "velocity": 115, "channel": 0}, {"type": "note_off", "time": 385, "note": 71, "velocity": 115, "channel": 0}, {"type": "note_on", "time": 18, "note": 73, "velocity": 118, "channel": 0}, {"type": "note_off", "time": 321, "note": 73, "velocity": 118, "channel": 0}, {"type": "note_on", "time": 193, "note": 68, "velocity": 117, "channel": 0}, {"type": "note_off", "time": 475, "note": 68, "velocity": 117, "channel": 0}, {"type": "note_on", "time": 698, "note": 71, "velocity": 117, "channel": 0}, {"type": "note_off", "time": 284, "note": 71, "velocity": 117, "channel": 0}, {"type": "note_on", "time": 13, "note": 67, "velocity": 114, "channel": 0}, {"type": "note_off", "time": 302, "note": 67, "velocity": 114, "channel": 0}, {"type": "note_on", "time": 119, "note": 68, "velocity": 108, "channel": 0}, {"type": "note_off", "time": 164, "note": 68, "velocity": 108, "channel": 0}, {"type": "note_on", "time": 13, "note": 63, "velocity": 120, "channel": 0}, {"type": "note_off", "time": 430, "note": 63, "velocity": 120, "channel": 0}, {"type": "note_on", "time": 397, "note": 71, "velocity": 116, "channel": 0}, {"type": "note_off", "time": 385, "note": 71, "velocity": 116, "channel": 0}, {"type": "note_on", "time": 11, "note": 70, "velocity": 103, "channel": 0}, {"type": "note_off", "time": 328, "note": 70, "velocity": 103, "channel": 0}, {"type": "note_on", "time": 52, "note": 66, "velocity": 109, "channel": 0}, {"type": "note_off", "time": 275, "note": 66, "velocity": 109, "channel": 0}, {"type": "note_on", "time": 11, "note": 65, "velocity": 106, "channel": 0}, {"type": "note_off", "time": 147, "note": 65, "velocity": 106, "channel": 0}, {"type": "note_on", "time": 3, "note": 68, "velocity": 108, "channel": 0}, {"type": "note_off", "time": 204, "note": 68, "velocity": 108, "channel": 0}, {"type": "note_on", "time": 15, "note": 63, "velocity": 120, "channel": 0}, {"type": "note_off", "time": 253, "note": 63, "velocity": 120, "channel": 0}, {"type": "note_on", "time": 15, "note": 61, "velocity": 112, "channel": 0}, {"type": "note_off", "time": 162, "note": 61, "velocity": 112, "channel": 0}, {"type": "note_on", "time": 9, "note": 56, "velocity": 110, "channel": 0}, {"type": "note_off", "time": 196, "note": 56, "velocity": 110, "channel": 0}, {"type": "note_on", "time": 8, "note": 63, "velocity": 119, "channel": 0}, {"type": "note_off", "time": 256, "note": 63, "velocity": 119, "channel": 0}, {"type": "note_on", "time": 22, "note": 59, "velocity": 115, "channel": 0}, {"type": "note_off", "time": 238, "note": 59, "velocity": 115, "channel": 0}, {"type": "note_on", "time": 0, "note": 56, "velocity": 115, "channel": 0}, {"type": "note_off", "time": 207, "note": 56, "velocity": 115, "channel": 0}, {"type": "note_on", "time": 18, "note": 55, "velocity": 111, "channel": 0}, {"type": "note_off", "time": 219, "note": 55, "velocity": 111, "channel": 0}, {"type": "note_on", "time": 3, "note": 59, "velocity": 108, "channel": 0}, {"type": "note_off", "time": 279, "note": 59, "velocity": 108, "channel": 0}, {"type": "note_on", "time": 34, "note": 51, "velocity": 114, "channel": 0}, {"type": "note_off", "time": 287, "note": 51, "velocity": 114, "channel": 0}, {"type": "note_on", "time": 1065, "note": 59, "velocity": 117, "channel": 0}, {"type": "note_off", "time": 264, "note": 59, "velocity": 117, "channel": 0}, {"type": "note_on", "time": 15, "note": 54, "velocity": 108, "channel": 0}, {"type": "note_off", "time": 294, "note": 54, "velocity": 108, "channel": 0}, {"type": "note_on", "time": 7, "note": 59, "velocity": 113, "channel": 0}, {"type": "note_off", "time": 343, "note": 59, "velocity": 113, "channel": 0}, {"type": "note_on", "time": 7, "note": 56, "velocity": 112, "channel": 0}, {"type": "note_off", "time": 797, "note": 56, "velocity": 112, "channel": 0}, {"type": "note_on", "time": 18, "note": 53, "velocity": 108, "channel": 0}, {"type": "note_off", "time": 343, "note": 53, "velocity": 108, "channel": 0}, {"type": "note_on", "time": 7, "note": 50, "velocity": 111, "channel": 0}, {"type": "note_off", "time": 200, "note": 50, "velocity": 111, "channel": 0}, {"type": "note_on", "time": 7, "note": 51, "velocity": 114, "channel": 0}, {"type": "note_off", "time": 188, "note": 51, "velocity": 114, "channel": 0}, {"type": "note_on", "time": 3, "note": 53, "velocity": 114, "channel": 0}, {"type": "note_off", "time": 230, "note": 53, "velocity": 114, "channel": 0}, {"type": "note_on", "time": 18, "note": 52, "velocity": 116, "channel": 0}, {"type": "note_off", "time": 309, "note": 52, "velocity": 116, "channel": 0}, {"type": "note_on", "time": 1288, "note": 51, "velocity": 116, "channel": 0}, {"type": "note_off", "time": 181, "note": 51, "velocity": 116, "channel": 0}, {"type": "note_on", "time": 18, "note": 53, "velocity": 114, "channel": 0}, {"type": "note_off", "time": 222, "note": 53, "velocity": 114, "channel": 0}, {"type": "note_on", "time": 3, "note": 48, "velocity": 114, "channel": 0}, {"type": "note_off", "time": 249, "note": 48, "velocity": 114, "channel": 0}, {"type": "note_on", "time": 15, "note": 51, "velocity": 121, "channel": 0}, {"type": "note_off", "time": 302, "note": 51, "velocity": 121, "channel": 0}, {"type": "note_on", "time": 22, "note": 53, "velocity": 127, "channel": 0}, {"type": "note_off", "time": 204, "note": 53, "velocity": 127, "channel": 0}, {"type": "note_on", "time": 11, "note": 51, "velocity": 125, "channel": 0}, {"type": "note_off", "time": 219, "note": 51, "velocity": 125, "channel": 0}, {"type": "note_on", "time": 7, "note": 53, "velocity": 110, "channel": 0}, {"type": "note_off", "time": 370, "note": 53, "velocity": 110, "channel": 0}, {"type": "note_on", "time": 45, "note": 56, "velocity": 103, "channel": 0}, {"type": "note_off", "time": 272, "note": 56, "velocity": 103, "channel": 0}, {"type": "note_on", "time": 49, "note": 59, "velocity": 105, "channel": 0}, {"type": "note_off", "time": 238, "note": 59, "velocity": 105, "channel": 0}, {"type": "note_on", "time": 0, "note": 63, "velocity": 118, "channel": 0}, {"type": "note_off", "time": 290, "note": 63, "velocity": 118, "channel": 0}, {"type": "note_on", "time": 18, "note": 61, "velocity": 110, "channel": 0}, {"type": "note_off", "time": 158, "note": 61, "velocity": 110, "channel": 0}, {"type": "note_on", "time": 26, "note": 58, "velocity": 106, "channel": 0}, {"type": "note_off", "time": 207, "note": 58, "velocity": 106, "channel": 0}, {"type": "note_on", "time": 49, "note": 54, "velocity": 100, "channel": 0}, {"type": "note_off", "time": 279, "note": 54, "velocity": 100, "channel": 0}, {"type": "note_on", "time": 64, "note": 56, "velocity": 105, "channel": 0}, {"type": "note_off", "time": 313, "note": 56, "velocity": 105, "channel": 0}, {"type": "note_on", "time": 79, "note": 58, "velocity": 113, "channel": 0}, {"type": "note_off", "time": 204, "note": 58, "velocity": 113, "channel": 0}, {"type": "note_on", "time": 26, "note": 61, "velocity": 111, "channel": 0}, {"type": "note_off", "time": 166, "note": 61, "velocity": 111, "channel": 0}, {"type": "note_on", "time": 7, "note": 63, "velocity": 122, "channel": 0}, {"type": "note_off", "time": 328, "note": 63, "velocity": 122, "channel": 0}, {"type": "note_on", "time": 7, "note": 65, "velocity": 110, "channel": 0}, {"type": "note_off", "time": 1122, "note": 65, "velocity": 110, "channel": 0}, {"type": "note_on", "time": 7, "note": 61, "velocity": 111, "channel": 0}, {"type": "note_off", "time": 234, "note": 61, "velocity": 111, "channel": 0}, {"type": "note_on", "time": 15, "note": 63, "velocity": 114, "channel": 0}, {"type": "note_off", "time": 279, "note": 63, "velocity": 114, "channel": 0}, {"type": "note_on", "time": 11, "note": 65, "velocity": 108, "channel": 0}, {"type": "note_off", "time": 207, "note": 65, "velocity": 108, "channel": 0}, {"type": "note_on", "time": 3, "note": 66, "velocity": 113, "channel": 0}, {"type": "note_off", "time": 275, "note": 66, "velocity": 113, "channel": 0}, {"type": "note_on", "time": 37, "note": 61, "velocity": 107, "channel": 0}, {"type": "note_off", "time": 268, "note": 61, "velocity": 107, "channel": 0}, {"type": "note_on", "time": 1001, "note": 66, "velocity": 115, "channel": 0}, {"type": "note_off", "time": 324, "note": 66, "velocity": 115, "channel": 0}, {"type": "note_on", "time": 30, "note": 63, "velocity": 117, "channel": 0}, {"type": "note_off", "time": 302, "note": 63, "velocity": 117, "channel": 0}, {"type": "note_on", "time": 226, "note": 66, "velocity": 115, "channel": 0}, {"type": "note_off", "time": 279, "note": 66, "velocity": 115, "channel": 0}, {"type": "note_on", "time": 15, "note": 67, "velocity": 123, "channel": 0}, {"type": "note_off", "time": 359, "note": 67, "velocity": 123, "channel": 0}, {"type": "note_on", "time": 11, "note": 64, "velocity": 114, "channel": 0}, {"type": "note_off", "time": 324, "note": 64, "velocity": 114, "channel": 0}, {"type": "note_on", "time": 230, "note": 67, "velocity": 121, "channel": 0}, {"type": "note_off", "time": 309, "note": 67, "velocity": 121, "channel": 0}, {"type": "note_on", "time": 30, "note": 69, "velocity": 118, "channel": 0}, {"type": "note_off", "time": 1368, "note": 69, "velocity": 118, "channel": 0}, {"type": "note_on", "time": 22, "note": 66, "velocity": 112, "channel": 0}, {"type": "note_off", "time": 222, "note": 66, "velocity": 112, "channel": 0}, {"type": "note_on", "time": 26, "note": 62, "velocity": 116, "channel": 0}, {"type": "note_off", "time": 290, "note": 62, "velocity": 116, "channel": 0}, {"type": "note_on", "time": 3, "note": 66, "velocity": 109, "channel": 0}, {"type": "note_on", "time": 222, "note": 69, "velocity": 114, "channel": 0}, {"type": "note_off", "time": 0, "note": 66, "velocity": 109, "channel": 0}, {"type": "note_off", "time": 313, "note": 69, "velocity": 114, "channel": 0}, {"type": "note_on", "time": 15, "note": 70, "velocity": 112, "channel": 0}, {"type": "note_off", "time": 396, "note": 70, "velocity": 112, "channel": 0}, {"type": "note_on", "time": 1662, "note": 70, "velocity": 113, "channel": 0}, {"type": "note_off", "time": 306, "note": 70, "velocity": 113, "channel": 0}, {"type": "note_on", "time": 11, "note": 72, "velocity": 116, "channel": 0}, {"type": "note_off", "time": 275, "note": 72, "velocity": 116, "channel": 0}, {"type": "note_on", "time": 15, "note": 69, "velocity": 107, "channel": 0}, {"type": "note_off", "time": 389, "note": 69, "velocity": 107, "channel": 0}, {"type": "note_on", "time": 26, "note": 70, "velocity": 117, "channel": 0}, {"type": "note_off", "time": 328, "note": 70, "velocity": 117, "channel": 0}, {"type": "note_on", "time": 34, "note": 72, "velocity": 117, "channel": 0}, {"type": "note_off", "time": 166, "note": 72, "velocity": 117, "channel": 0}, {"type": "note_on", "time": 26, "note": 68, "velocity": 114, "channel": 0}, {"type": "note_off", "time": 275, "note": 68, "velocity": 114, "channel": 0}, {"type": "note_on", "time": 15, "note": 70, "velocity": 117, "channel": 0}, {"type": "note_off", "time": 427, "note": 70, "velocity": 117, "channel": 0}, {"type": "note_on", "time": 283, "note": 66, "velocity": 111, "channel": 0}, {"type": "note_off", "time": 362, "note": 66, "velocity": 111, "channel": 0}, {"type": "note_on", "time": 26, "note": 67, "velocity": 110, "channel": 0}, {"type": "note_off", "time": 302, "note": 67, "velocity": 110, "channel": 0}, {"type": "note_on", "time": 30, "note": 66, "velocity": 124, "channel": 0}, {"type": "note_off", "time": 234, "note": 66, "velocity": 124, "channel": 0}, {"type": "note_on", "time": 60, "note": 70, "velocity": 110, "channel": 0}, {"type": "note_off", "time": 298, "note": 70, "velocity": 110, "channel": 0}, {"type": "note_on", "time": 18, "note": 71, "velocity": 116, "channel": 0}, {"type": "note_off", "time": 400, "note": 71, "velocity": 116, "channel": 0}, {"type": "note_on", "time": 124, "note": 67, "velocity": 119, "channel": 0}, {"type": "note_off", "time": 332, "note": 67, "velocity": 119, "channel": 0}, {"type": "note_on", "time": 45, "note": 64, "velocity": 119, "channel": 0}, {"type": "note_off", "time": 321, "note": 64, "velocity": 119, "channel": 0}, {"type": "note_on", "time": 37, "note": 67, "velocity": 115, "channel": 0}, {"type": "note_off", "time": 306, "note": 67, "velocity": 115, "channel": 0}, {"type": "note_on", "time": 7, "note": 71, "velocity": 115, "channel": 0}, {"type": "note_off", "time": 272, "note": 71, "velocity": 115, "channel": 0}, {"type": "note_on", "time": 0, "note": 73, "velocity": 116, "channel": 0}, {"type": "note_off", "time": 287, "note": 73, "velocity": 116, "channel": 0}, {"type": "note_on", "time": 147, "note": 69, "velocity": 116, "channel": 0}, {"type": "note_off", "time": 355, "note": 69, "velocity": 116, "channel": 0}, {"type": "note_on", "time": 26, "note": 66, "velocity": 106, "channel": 0}, {"type": "note_off", "time": 438, "note": 66, "velocity": 106, "channel": 0}, {"type": "note_on", "time": 294, "note": 69, "velocity": 116, "channel": 0}, {"type": "note_off", "time": 324, "note": 69, "velocity": 116, "channel": 0}, {"type": "note_on", "time": 52, "note": 73, "velocity": 114, "channel": 0}, {"type": "note_off", "time": 366, "note": 73, "velocity": 114, "channel": 0}, {"type": "note_on", "time": 196, "note": 74, "velocity": 116, "channel": 0}, {"type": "note_off", "time": 340, "note": 74, "velocity": 116, "channel": 0}, {"type": "note_on", "time": 226, "note": 69, "velocity": 119, "channel": 0}, {"type": "note_off", "time": 290, "note": 69, "velocity": 119, "channel": 0}, {"type": "note_on", "time": 41, "note": 67, "velocity": 120, "channel": 0}, {"type": "note_off", "time": 207, "note": 67, "velocity": 120, "channel": 0}, {"type": "note_on", "time": 49, "note": 63, "velocity": 122, "channel": 0}, {"type": "note_off", "time": 256, "note": 63, "velocity": 122, "channel": 0}, {"type": "note_on", "time": 11, "note": 67, "velocity": 117, "channel": 0}, {"type": "note_off", "time": 253, "note": 67, "velocity": 117, "channel": 0}, {"type": "note_on", "time": 7, "note": 69, "velocity": 115, "channel": 0}, {"type": "note_off", "time": 192, "note": 69, "velocity": 115, "channel": 0}, {"type": "note_on", "time": 18, "note": 72, "velocity": 117, "channel": 0}, {"type": "note_off", "time": 256, "note": 72, "velocity": 117, "channel": 0}, {"type": "note_on", "time": 11, "note": 74, "velocity": 114, "channel": 0}, {"type": "note_off", "time": 234, "note": 74, "velocity": 114, "channel": 0}, {"type": "note_on", "time": 200, "note": 69, "velocity": 117, "channel": 0}, {"type": "note_off", "time": 340, "note": 69, "velocity": 117, "channel": 0}, {"type": "note_on", "time": 7, "note": 67, "velocity": 111, "channel": 0}, {"type": "note_off", "time": 222, "note": 67, "velocity": 111, "channel": 0}, {"type": "note_on", "time": 30, "note": 65, "velocity": 108, "channel": 0}, {"type": "note_off", "time": 219, "note": 65, "velocity": 108, "channel": 0}, {"type": "note_on", "time": 30, "note": 62, "velocity": 114, "channel": 0}, {"type": "note_off", "time": 272, "note": 62, "velocity": 114, "channel": 0}, {"type": "note_on", "time": 982, "note": 69, "velocity": 118, "channel": 0}, {"type": "note_off", "time": 302, "note": 69, "velocity": 118, "channel": 0}, {"type": "note_on", "time": 11, "note": 72, "velocity": 115, "channel": 0}, {"type": "note_off", "time": 283, "note": 72, "velocity": 115, "channel": 0}, {"type": "note_on", "time": 222, "note": 74, "velocity": 111, "channel": 0}, {"type": "note_off", "time": 513, "note": 74, "velocity": 111, "channel": 0}, {"type": "note_on", "time": 0, "note": 75, "velocity": 107, "channel": 0}, {"type": "note_off", "time": 219, "note": 75, "velocity": 107, "channel": 0}, {"type": "note_on", "time": 139, "note": 71, "velocity": 118, "channel": 0}, {"type": "note_off", "time": 321, "note": 71, "velocity": 118, "channel": 0}, {"type": "note_on", "time": 22, "note": 68, "velocity": 116, "channel": 0}, {"type": "note_off", "time": 283, "note": 68, "velocity": 116, "channel": 0}, {"type": "note_on", "time": 7, "note": 65, "velocity": 108, "channel": 0}, {"type": "note_off", "time": 434, "note": 65, "velocity": 108, "channel": 0}, {"type": "note_on", "time": 245, "note": 68, "velocity": 116, "channel": 0}, {"type": "note_off", "time": 313, "note": 68, "velocity": 116, "channel": 0}, {"type": "note_on", "time": 37, "note": 71, "velocity": 114, "channel": 0}, {"type": "note_off", "time": 309, "note": 71, "velocity": 114, "channel": 0}, {"type": "note_on", "time": 166, "note": 73, "velocity": 119, "channel": 0}, {"type": "note_off", "time": 332, "note": 73, "velocity": 119, "channel": 0}, {"type": "note_on", "time": 22, "note": 75, "velocity": 104, "channel": 0}, {"type": "note_off", "time": 302, "note": 75, "velocity": 104, "channel": 0}, {"type": "note_on", "time": 324, "note": 80, "velocity": 81, "channel": 0}, {"type": "note_off", "time": 275, "note": 80, "velocity": 81, "channel": 0}, {"type": "note_on", "time": 457, "note": 73, "velocity": 113, "channel": 0}, {"type": "note_off", "time": 336, "note": 73, "velocity": 113, "channel": 0}, {"type": "note_on", "time": 7, "note": 70, "velocity": 112, "channel": 0}, {"type": "note_off", "time": 544, "note": 70, "velocity": 112, "channel": 0}, {"type": "note_on", "time": 1009, "note": 70, "velocity": 111, "channel": 0}, {"type": "note_off", "time": 298, "note": 70, "velocity": 111, "channel": 0}, {"type": "note_on", "time": 3, "note": 73, "velocity": 113, "channel": 0}, {"type": "note_off", "time": 366, "note": 73, "velocity": 113, "channel": 0}, {"type": "note_on", "time": 181, "note": 76, "velocity": 114, "channel": 0}, {"type": "note_off", "time": 464, "note": 76, "velocity": 114, "channel": 0}, {"type": "note_on", "time": 188, "note": 73, "velocity": 113, "channel": 0}, {"type": "note_off", "time": 328, "note": 73, "velocity": 113, "channel": 0}, {"type": "note_on", "time": 7, "note": 69, "velocity": 108, "channel": 0}, {"type": "note_off", "time": 498, "note": 69, "velocity": 108, "channel": 0}, {"type": "note_on", "time": 151, "note": 71, "velocity": 113, "channel": 0}, {"type": "note_off", "time": 275, "note": 71, "velocity": 113, "channel": 0}, {"type": "note_on", "time": 3, "note": 73, "velocity": 111, "channel": 0}, {"type": "note_off", "time": 411, "note": 73, "velocity": 111, "channel": 0}, {"type": "note_on", "time": 264, "note": 73, "velocity": 117, "channel": 0}, {"type": "note_off", "time": 389, "note": 73, "velocity": 117, "channel": 0}, {"type": "note_on", "time": 60, "note": 69, "velocity": 110, "channel": 0}, {"type": "note_off", "time": 355, "note": 69, "velocity": 110, "channel": 0}, {"type": "note_on", "time": 11, "note": 66, "velocity": 111, "channel": 0}, {"type": "note_off", "time": 366, "note": 66, "velocity": 111, "channel": 0}, {"type": "note_on", "time": 94, "note": 69, "velocity": 106, "channel": 0}, {"type": "note_off", "time": 468, "note": 69, "velocity": 106, "channel": 0}, {"type": "note_on", "time": 34, "note": 72, "velocity": 110, "channel": 0}, {"type": "note_off", "time": 332, "note": 72, "velocity": 110, "channel": 0}, {"type": "note_on", "time": 166, "note": 74, "velocity": 104, "channel": 0}, {"type": "note_off", "time": 302, "note": 74, "velocity": 104, "channel": 0}, {"type": "note_on", "time": 26, "note": 69, "velocity": 113, "channel": 0}, {"type": "note_off", "time": 309, "note": 69, "velocity": 113, "channel": 0}, {"type": "note_on", "time": 18, "note": 67, "velocity": 111, "channel": 0}, {"type": "note_off", "time": 264, "note": 67, "velocity": 111, "channel": 0}, {"type": "note_on", "time": 26, "note": 63, "velocity": 121, "channel": 0}, {"type": "note_off", "time": 287, "note": 63, "velocity": 121, "channel": 0}, {"type": "note_on", "time": 3, "note": 67, "velocity": 111, "channel": 0}, {"type": "note_off", "time": 241, "note": 67, "velocity": 111, "channel": 0}, {"type": "note_on", "time": 11, "note": 69, "velocity": 105, "channel": 0}, {"type": "note_off", "time": 256, "note": 69, "velocity": 105, "channel": 0}, {"type": "note_on", "time": 15, "note": 72, "velocity": 109, "channel": 0}, {"type": "note_off", "time": 249, "note": 72, "velocity": 109, "channel": 0}, {"type": "note_on", "time": 3, "note": 69, "velocity": 107, "channel": 0}, {"type": "note_off", "time": 136, "note": 69, "velocity": 107, "channel": 0}, {"type": "note_on", "time": 128, "note": 67, "velocity": 109, "channel": 0}, {"type": "note_off", "time": 328, "note": 67, "velocity": 109, "channel": 0}, {"type": "note_on", "time": 11, "note": 65, "velocity": 110, "channel": 0}, {"type": "note_off", "time": 234, "note": 65, "velocity": 110, "channel": 0}, {"type": "note_on", "time": 26, "note": 62, "velocity": 111, "channel": 0}, {"type": "note_off", "time": 336, "note": 62, "velocity": 111, "channel": 0}, {"type": "note_on", "time": 1061, "note": 72, "velocity": 116, "channel": 0}, {"type": "note_off", "time": 321, "note": 72, "velocity": 116, "channel": 0}, {"type": "note_on", "time": 3, "note": 69, "velocity": 111, "channel": 0}, {"type": "note_off", "time": 287, "note": 69, "velocity": 111, "channel": 0}, {"type": "note_on", "time": 302, "note": 71, "velocity": 113, "channel": 0}, {"type": "note_off", "time": 495, "note": 71, "velocity": 113, "channel": 0}, {"type": "note_on", "time": 3, "note": 68, "velocity": 118, "channel": 0}, {"type": "note_off", "time": 306, "note": 68, "velocity": 118, "channel": 0}, {"type": "note_on", "time": 18, "note": 66, "velocity": 122, "channel": 0}, {"type": "note_off", "time": 215, "note": 66, "velocity": 122, "channel": 0}, {"type": "note_on", "time": 15, "note": 63, "velocity": 124, "channel": 0}, {"type": "note_off", "time": 268, "note": 63, "velocity": 124, "channel": 0}, {"type": "note_on", "time": 22, "note": 61, "velocity": 112, "channel": 0}, {"type": "note_off", "time": 234, "note": 61, "velocity": 112, "channel": 0}, {"type": "note_on", "time": 0, "note": 63, "velocity": 118, "channel": 0}, {"type": "note_off", "time": 260, "note": 63, "velocity": 118, "channel": 0}, {"type": "note_on", "time": 7, "note": 65, "velocity": 109, "channel": 0}, {"type": "note_off", "time": 143, "note": 65, "velocity": 109, "channel": 0}, {"type": "note_on", "time": 11, "note": 68, "velocity": 111, "channel": 0}, {"type": "note_off", "time": 158, "note": 68, "velocity": 111, "channel": 0}, {"type": "note_on", "time": 3, "note": 71, "velocity": 110, "channel": 0}, {"type": "note_off", "time": 226, "note": 71, "velocity": 110, "channel": 0}, {"type": "note_on", "time": 7, "note": 70, "velocity": 112, "channel": 0}, {"type": "note_off", "time": 340, "note": 70, "velocity": 112, "channel": 0}, {"type": "note_on", "time": 60, "note": 68, "velocity": 107, "channel": 0}, {"type": "note_off", "time": 264, "note": 68, "velocity": 107, "channel": 0}, {"type": "note_on", "time": 230, "note": 70, "velocity": 114, "channel": 0}, {"type": "note_off", "time": 430, "note": 70, "velocity": 114, "channel": 0}, {"type": "note_on", "time": 124, "note": 65, "velocity": 113, "channel": 0}, {"type": "note_off", "time": 249, "note": 65, "velocity": 113, "channel": 0}, {"type": "note_on", "time": 26, "note": 63, "velocity": 122, "channel": 0}, {"type": "note_off", "time": 400, "note": 63, "velocity": 122, "channel": 0}, {"type": "note_on", "time": 962, "note": 70, "velocity": 117, "channel": 0}, {"type": "note_off", "time": 273, "note": 70, "velocity": 117, "channel": 0}, {"type": "note_on", "time": 18, "note": 69, "velocity": 116, "channel": 0}, {"type": "note_off", "time": 385, "note": 69, "velocity": 116, "channel": 0}, {"type": "note_on", "time": 180, "note": 69, "velocity": 115, "channel": 0}, {"type": "note_off", "time": 374, "note": 69, "velocity": 115, "channel": 0}, {"type": "note_on", "time": 7, "note": 67, "velocity": 112, "channel": 0}, {"type": "note_off", "time": 361, "note": 67, "velocity": 112, "channel": 0}, {"type": "note_on", "time": 21, "note": 64, "velocity": 118, "channel": 0}, {"type": "note_off", "time": 279, "note": 64, "velocity": 118, "channel": 0}, {"type": "note_on", "time": 7, "note": 67, "velocity": 115, "channel": 0}, {"type": "note_off", "time": 252, "note": 67, "velocity": 115, "channel": 0}, {"type": "note_on", "time": 21, "note": 63, "velocity": 117, "channel": 0}, {"type": "note_off", "time": 504, "note": 63, "velocity": 117, "channel": 0}, {"type": "note_on", "time": 18, "note": 67, "velocity": 109, "channel": 0}, {"type": "note_off", "time": 414, "note": 67, "velocity": 109, "channel": 0}, {"type": "note_on", "time": 82, "note": 69, "velocity": 112, "channel": 0}, {"type": "note_off", "time": 308, "note": 69, "velocity": 112, "channel": 0}, {"type": "note_on", "time": 37, "note": 71, "velocity": 113, "channel": 0}, {"type": "note_off", "time": 212, "note": 71, "velocity": 113, "channel": 0}, {"type": "note_on", "time": 5, "note": 69, "velocity": 107, "channel": 0}, {"type": "note_off", "time": 1030, "note": 69, "velocity": 107, "channel": 0}, {"type": "note_on", "time": 82, "note": 66, "velocity": 122, "channel": 0}, {"type": "note_off", "time": 249, "note": 66, "velocity": 122, "channel": 0}, {"type": "note_on", "time": 7, "note": 62, "velocity": 113, "channel": 0}, {"type": "note_off", "time": 239, "note": 62, "velocity": 113, "channel": 0}, {"type": "note_on", "time": 26, "note": 59, "velocity": 111, "channel": 0}, {"type": "note_off", "time": 249, "note": 59, "velocity": 111, "channel": 0}, {"type": "note_on", "time": 850, "note": 69, "velocity": 114, "channel": 0}, {"type": "note_off", "time": 244, "note": 69, "velocity": 114, "channel": 0}, {"type": "note_on", "time": 21, "note": 67, "velocity": 115, "channel": 0}, {"type": "note_off", "time": 223, "note": 67, "velocity": 115, "channel": 0}, {"type": "note_on", "time": 21, "note": 63, "velocity": 121, "channel": 0}, {"type": "note_off", "time": 345, "note": 63, "velocity": 121, "channel": 0}, {"type": "note_on", "time": 21, "note": 69, "velocity": 116, "channel": 0}, {"type": "note_off", "time": 255, "note": 69, "velocity": 116, "channel": 0}, {"type": "note_on", "time": 37, "note": 67, "velocity": 119, "channel": 0}, {"type": "note_off", "time": 228, "note": 67, "velocity": 119, "channel": 0}, {"type": "note_on", "time": 79, "note": 63, "velocity": 119, "channel": 0}, {"type": "note_off", "time": 329, "note": 63, "velocity": 119, "channel": 0}, {"type": "note_on", "time": 53, "note": 67, "velocity": 113, "channel": 0}, {"type": "note_off", "time": 382, "note": 67, "velocity": 113, "channel": 0}, {"type": "note_on", "time": 138, "note": 65, "velocity": 110, "channel": 0}, {"type": "note_off", "time": 387, "note": 65, "velocity": 110, "channel": 0}, {"type": "note_on", "time": 26, "note": 62, "velocity": 108, "channel": 0}, {"type": "note_off", "time": 414, "note": 62, "velocity": 108, "channel": 0}, {"type": "note_on", "time": 781, "note": 66, "velocity": 111, "channel": 0}, {"type": "note_off", "time": 276, "note": 66, "velocity": 111, "channel": 0}, {"type": "note_on", "time": 15, "note": 63, "velocity": 119, "channel": 0}, {"type": "note_off", "time": 398, "note": 63, "velocity": 119, "channel": 0}, {"type": "note_on", "time": 82, "note": 66, "velocity": 110, "channel": 0}, {"type": "note_off", "time": 382, "note": 66, "velocity": 110, "channel": 0}, {"type": "note_on", "time": 13, "note": 65, "velocity": 106, "channel": 0}, {"type": "note_off", "time": 164, "note": 65, "velocity": 106, "channel": 0}, {"type": "note_on", "time": 95, "note": 63, "velocity": 119, "channel": 0}, {"type": "note_off", "time": 289, "note": 63, "velocity": 119, "channel": 0}, {"type": "note_on", "time": 21, "note": 68, "velocity": 113, "channel": 0}, {"type": "note_off", "time": 244, "note": 68, "velocity": 113, "channel": 0}, {"type": "note_on", "time": 7, "note": 65, "velocity": 114, "channel": 0}, {"type": "note_off", "time": 225, "note": 65, "velocity": 114, "channel": 0}, {"type": "note_on", "time": 5, "note": 61, "velocity": 105, "channel": 0}, {"type": "note_off", "time": 252, "note": 61, "velocity": 105, "channel": 0}, {"type": "note_on", "time": 21, "note": 59, "velocity": 105, "channel": 0}, {"type": "note_off", "time": 294, "note": 59, "velocity": 105, "channel": 0}, {"type": "note_on", "time": 2, "note": 63, "velocity": 114, "channel": 0}, {"type": "note_off", "time": 345, "note": 63, "velocity": 114, "channel": 0}, {"type": "note_on", "time": 5, "note": 58, "velocity": 104, "channel": 0}, {"type": "note_off", "time": 680, "note": 58, "velocity": 104, "channel": 0}, {"type": "note_on", "time": 823, "note": 59, "velocity": 109, "channel": 0}, {"type": "note_off", "time": 292, "note": 59, "velocity": 109, "channel": 0}, {"type": "note_on", "time": 37, "note": 64, "velocity": 114, "channel": 0}, {"type": "note_off", "time": 398, "note": 64, "velocity": 114, "channel": 0}, {"type": "note_on", "time": 74, "note": 59, "velocity": 109, "channel": 0}, {"type": "note_off", "time": 446, "note": 59, "velocity": 109, "channel": 0}, {"type": "note_on", "time": 361, "note": 55, "velocity": 108, "channel": 0}, {"type": "note_off", "time": 265, "note": 55, "velocity": 108, "channel": 0}, {"type": "note_on", "time": 21, "note": 61, "velocity": 114, "channel": 0}, {"type": "note_off", "time": 281, "note": 61, "velocity": 114, "channel": 0}, {"type": "note_on", "time": 21, "note": 59, "velocity": 112, "channel": 0}, {"type": "note_off", "time": 249, "note": 59, "velocity": 112, "channel": 0}, {"type": "note_on", "time": 15, "note": 57, "velocity": 106, "channel": 0}, {"type": "note_off", "time": 228, "note": 57, "velocity": 106, "channel": 0}, {"type": "note_on", "time": 21, "note": 54, "velocity": 108, "channel": 0}, {"type": "note_off", "time": 281, "note": 54, "velocity": 108, "channel": 0}, {"type": "note_on", "time": 0, "note": 59, "velocity": 111, "channel": 0}, {"type": "note_off", "time": 201, "note": 59, "velocity": 111, "channel": 0}, {"type": "note_on", "time": 21, "note": 57, "velocity": 109, "channel": 0}, {"type": "note_off", "time": 372, "note": 57, "velocity": 109, "channel": 0}, {"type": "note_on", "time": 871, "note": 57, "velocity": 114, "channel": 0}, {"type": "note_off", "time": 297, "note": 57, "velocity": 114, "channel": 0}, {"type": "note_on", "time": 0, "note": 55, "velocity": 114, "channel": 0}, {"type": "note_off", "time": 180, "note": 55, "velocity": 114, "channel": 0}, {"type": "note_on", "time": 10, "note": 51, "velocity": 113, "channel": 0}, {"type": "note_off", "time": 244, "note": 51, "velocity": 113, "channel": 0}, {"type": "note_on", "time": 53, "note": 55, "velocity": 115, "channel": 0}, {"type": "note_off", "time": 233, "note": 55, "velocity": 115, "channel": 0}, {"type": "note_on", "time": 31, "note": 51, "velocity": 115, "channel": 0}, {"type": "note_off", "time": 297, "note": 51, "velocity": 115, "channel": 0}, {"type": "note_on", "time": 0, "note": 53, "velocity": 107, "channel": 0}, {"type": "note_off", "time": 207, "note": 53, "velocity": 107, "channel": 0}, {"type": "note_on", "time": 967, "note": 57, "velocity": 116, "channel": 0}, {"type": "note_off", "time": 255, "note": 57, "velocity": 116, "channel": 0}, {"type": "note_on", "time": 53, "note": 58, "velocity": 113, "channel": 0}, {"type": "note_off", "time": 239, "note": 58, "velocity": 113, "channel": 0}, {"type": "note_on", "time": 5, "note": 60, "velocity": 115, "channel": 0}, {"type": "note_off", "time": 191, "note": 60, "velocity": 115, "channel": 0}, {"type": "note_on", "time": 47, "note": 62, "velocity": 118, "channel": 0}, {"type": "note_off", "time": 260, "note": 62, "velocity": 118, "channel": 0}, {"type": "note_on", "time": 47, "note": 67, "velocity": 118, "channel": 0}, {"type": "note_off", "time": 223, "note": 67, "velocity": 118, "channel": 0}, {"type": "note_on", "time": 26, "note": 62, "velocity": 116, "channel": 0}, {"type": "note_off", "time": 441, "note": 62, "velocity": 116, "channel": 0}, {"type": "note_on", "time": 212, "note": 58, "velocity": 114, "channel": 0}, {"type": "note_off", "time": 281, "note": 58, "velocity": 114, "channel": 0}, {"type": "note_on", "time": 47, "note": 63, "velocity": 121, "channel": 0}, {"type": "note_off", "time": 286, "note": 63, "velocity": 121, "channel": 0}, {"type": "note_on", "time": 15, "note": 61, "velocity": 116, "channel": 0}, {"type": "note_off", "time": 196, "note": 61, "velocity": 116, "channel": 0}, {"type": "note_on", "time": 42, "note": 59, "velocity": 115, "channel": 0}, {"type": "note_off", "time": 244, "note": 59, "velocity": 115, "channel": 0}, {"type": "note_on", "time": 21, "note": 56, "velocity": 117, "channel": 0}, {"type": "note_off", "time": 212, "note": 56, "velocity": 117, "channel": 0}, {"type": "note_on", "time": 0, "note": 53, "velocity": 117, "channel": 0}, {"type": "note_off", "time": 249, "note": 53, "velocity": 117, "channel": 0}, {"type": "note_on", "time": 5, "note": 56, "velocity": 116, "channel": 0}, {"type": "note_off", "time": 244, "note": 56, "velocity": 116, "channel": 0}, {"type": "note_on", "time": 0, "note": 59, "velocity": 109, "channel": 0}, {"type": "note_off", "time": 286, "note": 59, "velocity": 109, "channel": 0}, {"type": "note_on", "time": 5, "note": 63, "velocity": 121, "channel": 0}, {"type": "note_off", "time": 233, "note": 63, "velocity": 121, "channel": 0}, {"type": "note_on", "time": 42, "note": 58, "velocity": 107, "channel": 0}, {"type": "note_off", "time": 350, "note": 58, "velocity": 107, "channel": 0}, {"type": "note_on", "time": 1073, "note": 58, "velocity": 113, "channel": 0}, {"type": "note_off", "time": 302, "note": 58, "velocity": 113, "channel": 0}, {"type": "note_on", "time": 0, "note": 61, "velocity": 114, "channel": 0}, {"type": "note_off", "time": 265, "note": 61, "velocity": 114, "channel": 0}, {"type": "note_on", "time": 26, "note": 64, "velocity": 117, "channel": 0}, {"type": "note_off", "time": 175, "note": 64, "velocity": 117, "channel": 0}, {"type": "note_on", "time": 42, "note": 59, "velocity": 113, "channel": 0}, {"type": "note_off", "time": 255, "note": 59, "velocity": 113, "channel": 0}, {"type": "note_on", "time": 10, "note": 58, "velocity": 112, "channel": 0}, {"type": "note_off", "time": 175, "note": 58, "velocity": 112, "channel": 0}, {"type": "note_on", "time": 0, "note": 57, "velocity": 113, "channel": 0}, {"type": "note_off", "time": 180, "note": 57, "velocity": 113, "channel": 0}, {"type": "note_on", "time": 0, "note": 56, "velocity": 120, "channel": 0}, {"type": "note_off", "time": 223, "note": 56, "velocity": 120, "channel": 0}, {"type": "note_on", "time": 15, "note": 55, "velocity": 117, "channel": 0}, {"type": "note_off", "time": 292, "note": 55, "velocity": 117, "channel": 0}, {"type": "note_on", "time": 10, "note": 57, "velocity": 116, "channel": 0}, {"type": "note_off", "time": 223, "note": 57, "velocity": 116, "channel": 0}, {"type": "note_on", "time": 21, "note": 58, "velocity": 105, "channel": 0}, {"type": "note_off", "time": 276, "note": 58, "velocity": 105, "channel": 0}, {"type": "note_on", "time": 42, "note": 62, "velocity": 108, "channel": 0}, {"type": "note_off", "time": 228, "note": 62, "velocity": 108, "channel": 0}, {"type": "note_on", "time": 0, "note": 63, "velocity": 117, "channel": 0}, {"type": "note_off", "time": 217, "note": 63, "velocity": 117, "channel": 0}, {"type": "note_on", "time": 21, "note": 65, "velocity": 115, "channel": 0}, {"type": "note_off", "time": 196, "note": 65, "velocity": 115, "channel": 0}, {"type": "note_on", "time": 26, "note": 67, "velocity": 118, "channel": 0}, {"type": "note_off", "time": 228, "note": 67, "velocity": 118, "channel": 0}, {"type": "note_on", "time": 10, "note": 72, "velocity": 124, "channel": 0}, {"type": "note_off", "time": 297, "note": 72, "velocity": 124, "channel": 0}, {"type": "note_on", "time": 5, "note": 70, "velocity": 123, "channel": 0}, {"type": "note_off", "time": 372, "note": 70, "velocity": 123, "channel": 0}, {"type": "note_on", "time": 1004, "note": 69, "velocity": 125, "channel": 0}, {"type": "note_off", "time": 414, "note": 69, "velocity": 125, "channel": 0}, {"type": "note_on", "time": 31, "note": 67, "velocity": 118, "channel": 0}, {"type": "note_off", "time": 286, "note": 67, "velocity": 118, "channel": 0}, {"type": "note_on", "time": 85, "note": 64, "velocity": 114, "channel": 0}, {"type": "note_off", "time": 271, "note": 64, "velocity": 114, "channel": 0}, {"type": "note_on", "time": 15, "note": 67, "velocity": 124, "channel": 0}, {"type": "note_off", "time": 318, "note": 67, "velocity": 124, "channel": 0}, {"type": "note_on", "time": 5, "note": 65, "velocity": 115, "channel": 0}, {"type": "note_off", "time": 212, "note": 65, "velocity": 115, "channel": 0}, {"type": "note_on", "time": 53, "note": 61, "velocity": 114, "channel": 0}, {"type": "note_off", "time": 233, "note": 61, "velocity": 114, "channel": 0}, {"type": "note_on", "time": 5, "note": 66, "velocity": 118, "channel": 0}, {"type": "note_off", "time": 249, "note": 66, "velocity": 118, "channel": 0}, {"type": "note_on", "time": 5, "note": 62, "velocity": 119, "channel": 0}, {"type": "note_off", "time": 334, "note": 62, "velocity": 119, "channel": 0}, {"type": "note_on", "time": 31, "note": 59, "velocity": 114, "channel": 0}, {"type": "note_off", "time": 223, "note": 59, "velocity": 114, "channel": 0}, {"type": "note_on", "time": 0, "note": 57, "velocity": 113, "channel": 0}, {"type": "note_off", "time": 249, "note": 57, "velocity": 113, "channel": 0}, {"type": "note_on", "time": 63, "note": 57, "velocity": 108, "channel": 0}, {"type": "note_off", "time": 1062, "note": 57, "velocity": 108, "channel": 0}, {"type": "note_on", "time": 37, "note": 53, "velocity": 111, "channel": 0}, {"type": "note_off", "time": 185, "note": 53, "velocity": 111, "channel": 0}, {"type": "note_on", "time": 47, "note": 50, "velocity": 111, "channel": 0}, {"type": "note_off", "time": 265, "note": 50, "velocity": 111, "channel": 0}, {"type": "note_on", "time": 10, "note": 53, "velocity": 107, "channel": 0}, {"type": "note_off", "time": 154, "note": 53, "velocity": 107, "channel": 0}, {"type": "note_on", "time": 21, "note": 57, "velocity": 115, "channel": 0}, {"type": "note_off", "time": 255, "note": 57, "velocity": 115, "channel": 0}, {"type": "note_on", "time": 58, "note": 59, "velocity": 112, "channel": 0}, {"type": "note_off", "time": 249, "note": 59, "velocity": 112, "channel": 0}, {"type": "note_on", "time": 5, "note": 61, "velocity": 116, "channel": 0}, {"type": "note_off", "time": 138, "note": 61, "velocity": 116, "channel": 0}, {"type": "note_on", "time": 5, "note": 63, "velocity": 116, "channel": 0}, {"type": "note_off", "time": 154, "note": 63, "velocity": 116, "channel": 0}, {"type": "note_on", "time": 5, "note": 66, "velocity": 111, "channel": 0}, {"type": "note_off", "time": 159, "note": 66, "velocity": 111, "channel": 0}, {"type": "note_on", "time": 7, "note": 69, "velocity": 118, "channel": 0}, {"type": "note_off", "time": 228, "note": 69, "velocity": 118, "channel": 0}, {"type": "note_on", "time": 26, "note": 71, "velocity": 112, "channel": 0}, {"type": "note_off", "time": 138, "note": 71, "velocity": 112, "channel": 0}, {"type": "note_on", "time": 23, "note": 74, "velocity": 124, "channel": 0}, {"type": "note_off", "time": 340, "note": 74, "velocity": 124, "channel": 0}, {"type": "note_on", "time": 15, "note": 69, "velocity": 116, "channel": 0}, {"type": "note_off", "time": 255, "note": 69, "velocity": 116, "channel": 0}, {"type": "note_on", "time": 879, "note": 74, "velocity": 117, "channel": 0}, {"type": "note_off", "time": 300, "note": 74, "velocity": 117, "channel": 0}, {"type": "note_on", "time": 15, "note": 69, "velocity": 119, "channel": 0}, {"type": "note_off", "time": 279, "note": 69, "velocity": 119, "channel": 0}, {"type": "note_on", "time": 178, "note": 74, "velocity": 114, "channel": 0}, {"type": "note_off", "time": 252, "note": 74, "velocity": 114, "channel": 0}, {"type": "note_on", "time": 26, "note": 69, "velocity": 116, "channel": 0}, {"type": "note_off", "time": 239, "note": 69, "velocity": 116, "channel": 0}, {"type": "note_on", "time": 172, "note": 74, "velocity": 109, "channel": 0}, {"type": "note_off", "time": 255, "note": 74, "velocity": 109, "channel": 0}, {"type": "note_on", "time": 26, "note": 69, "velocity": 113, "channel": 0}, {"type": "note_off", "time": 249, "note": 69, "velocity": 113, "channel": 0}, {"type": "note_on", "time": 318, "note": 78, "velocity": 123, "channel": 0}, {"type": "note_off", "time": 103, "note": 78, "velocity": 123, "channel": 0}, {"type": "note_on", "time": 0, "note": 79, "velocity": 120, "channel": 0}, {"type": "note_off", "time": 767, "note": 79, "velocity": 120, "channel": 0}, {"type": "note_on", "time": 215, "note": 83, "velocity": 104, "channel": 0}, {"type": "note_off", "time": 156, "note": 83, "velocity": 104, "channel": 0}, {"type": "note_on", "time": 18, "note": 69, "velocity": 114, "channel": 0}, {"type": "note_off", "time": 286, "note": 69, "velocity": 114, "channel": 0}, {"type": "note_on", "time": 130, "note": 74, "velocity": 109, "channel": 0}, {"type": "note_off", "time": 220, "note": 74, "velocity": 109, "channel": 0}, {"type": "note_on", "time": 29, "note": 69, "velocity": 113, "channel": 0}, {"type": "note_off", "time": 231, "note": 69, "velocity": 113, "channel": 0}, {"type": "note_on", "time": 122, "note": 74, "velocity": 121, "channel": 0}, {"type": "note_off", "time": 249, "note": 74, "velocity": 121, "channel": 0}, {"type": "note_on", "time": 13, "note": 70, "velocity": 109, "channel": 0}, {"type": "note_off", "time": 263, "note": 70, "velocity": 109, "channel": 0}, {"type": "note_on", "time": 247, "note": 79, "velocity": 119, "channel": 0}, {"type": "note_off", "time": 417, "note": 79, "velocity": 119, "channel": 0}, {"type": "note_on", "time": 13, "note": 74, "velocity": 119, "channel": 0}, {"type": "note_off", "time": 318, "note": 74, "velocity": 119, "channel": 0}, {"type": "note_on", "time": 988, "note": 69, "velocity": 122, "channel": 0}, {"type": "note_off", "time": 297, "note": 69, "velocity": 122, "channel": 0}, {"type": "note_on", "time": 108, "note": 74, "velocity": 106, "channel": 0}, {"type": "note_off", "time": 178, "note": 74, "velocity": 106, "channel": 0}, {"type": "note_on", "time": 77, "note": 69, "velocity": 113, "channel": 0}, {"type": "note_off", "time": 255, "note": 69, "velocity": 113, "channel": 0}, {"type": "note_on", "time": 156, "note": 78, "velocity": 91, "channel": 0}, {"type": "note_off", "time": 58, "note": 78, "velocity": 91, "channel": 0}, {"type": "note_on", "time": 5, "note": 79, "velocity": 112, "channel": 0}, {"type": "note_off", "time": 244, "note": 79, "velocity": 112, "channel": 0}, {"type": "note_on", "time": 0, "note": 83, "velocity": 113, "channel": 0}, {"type": "note_off", "time": 127, "note": 83, "velocity": 113, "channel": 0}, {"type": "note_on", "time": 264, "note": 79, "velocity": 119, "channel": 0}, {"type": "note_off", "time": 403, "note": 79, "velocity": 119, "channel": 0}, {"type": "note_on", "time": 57, "note": 81, "velocity": 114, "channel": 0}, {"type": "note_off", "time": 130, "note": 81, "velocity": 114, "channel": 0}, {"type": "note_on", "time": 15, "note": 83, "velocity": 105, "channel": 0}, {"type": "note_off", "time": 140, "note": 83, "velocity": 105, "channel": 0}, {"type": "note_on", "time": 15, "note": 73, "velocity": 104, "channel": 0}, {"type": "note_off", "time": 162, "note": 73, "velocity": 104, "channel": 0}, {"type": "note_on", "time": 164, "note": 70, "velocity": 105, "channel": 0}, {"type": "note_off", "time": 300, "note": 70, "velocity": 105, "channel": 0}, {"type": "note_on", "time": 180, "note": 74, "velocity": 115, "channel": 0}, {"type": "note_off", "time": 172, "note": 74, "velocity": 115, "channel": 0}, {"type": "note_on", "time": 5, "note": 73, "velocity": 117, "channel": 0}, {"type": "note_off", "time": 79, "note": 73, "velocity": 117, "channel": 0}, {"type": "note_on", "time": 15, "note": 79, "velocity": 116, "channel": 0}, {"type": "note_off", "time": 526, "note": 79, "velocity": 116, "channel": 0}, {"type": "note_on", "time": 146, "note": 78, "velocity": 110, "channel": 0}, {"type": "note_off", "time": 100, "note": 78, "velocity": 110, "channel": 0}, {"type": "note_on", "time": 7, "note": 79, "velocity": 113, "channel": 0}, {"type": "note_off", "time": 313, "note": 79, "velocity": 113, "channel": 0}, {"type": "note_on", "time": 7, "note": 80, "velocity": 106, "channel": 0}, {"type": "note_off", "time": 98, "note": 80, "velocity": 106, "channel": 0}, {"type": "note_on", "time": 5, "note": 81, "velocity": 113, "channel": 0}, {"type": "note_off", "time": 233, "note": 81, "velocity": 113, "channel": 0}, {"type": "note_on", "time": 5, "note": 82, "velocity": 109, "channel": 0}, {"type": "note_off", "time": 180, "note": 82, "velocity": 109, "channel": 0}, {"type": "note_on", "time": 1068, "note": 45, "velocity": 119, "channel": 0}, {"type": "note_off", "time": 451, "note": 45, "velocity": 119, "channel": 0}, {"type": "note_on", "time": 7, "note": 52, "velocity": 115, "channel": 0}, {"type": "note_off", "time": 329, "note": 52, "velocity": 115, "channel": 0}, {"type": "note_on", "time": 13, "note": 49, "velocity": 119, "channel": 0}, {"type": "note_off", "time": 148, "note": 49, "velocity": 119, "channel": 0}, {"type": "note_on", "time": 2, "note": 50, "velocity": 116, "channel": 0}, {"type": "note_off", "time": 132, "note": 50, "velocity": 116, "channel": 0}, {"type": "note_on", "time": 5, "note": 51, "velocity": 114, "channel": 0}, {"type": "note_off", "time": 664, "note": 51, "velocity": 114, "channel": 0}, {"type": "note_on", "time": 635, "note": 69, "velocity": 116, "channel": 0}, {"type": "note_off", "time": 273, "note": 69, "velocity": 116, "channel": 0}, {"type": "note_on", "time": 188, "note": 74, "velocity": 110, "channel": 0}, {"type": "note_off", "time": 193, "note": 74, "velocity": 110, "channel": 0}, {"type": "note_on", "time": 18, "note": 79, "velocity": 115, "channel": 0}, {"type": "note_off", "time": 571, "note": 79, "velocity": 115, "channel": 0}, {"type": "note_on", "time": 100, "note": 79, "velocity": 106, "channel": 0}, {"type": "note_off", "time": 430, "note": 79, "velocity": 106, "channel": 0}, {"type": "note_on", "time": 7, "note": 80, "velocity": 94, "channel": 0}, {"type": "note_off", "time": 47, "note": 80, "velocity": 94, "channel": 0}, {"type": "note_on", "time": 15, "note": 81, "velocity": 107, "channel": 0}, {"type": "note_off", "time": 366, "note": 81, "velocity": 107, "channel": 0}, {"type": "note_on", "time": 178, "note": 45, "velocity": 120, "channel": 0}, {"type": "note_off", "time": 518, "note": 45, "velocity": 120, "channel": 0}, {"type": "note_on", "time": 45, "note": 52, "velocity": 121, "channel": 0}, {"type": "note_off", "time": 300, "note": 52, "velocity": 121, "channel": 0}, {"type": "note_on", "time": 15, "note": 51, "velocity": 115, "channel": 0}, {"type": "note_off", "time": 406, "note": 51, "velocity": 115, "channel": 0}, {"type": "note_on", "time": 839, "note": 69, "velocity": 116, "channel": 0}, {"type": "note_off", "time": 273, "note": 69, "velocity": 116, "channel": 0}, {"type": "note_on", "time": 10, "note": 74, "velocity": 115, "channel": 0}, {"type": "note_off", "time": 154, "note": 74, "velocity": 115, "channel": 0}, {"type": "note_on", "time": 313, "note": 79, "velocity": 110, "channel": 0}, {"type": "note_off", "time": 411, "note": 79, "velocity": 110, "channel": 0}, {"type": "note_on", "time": 37, "note": 81, "velocity": 112, "channel": 0}, {"type": "note_off", "time": 316, "note": 81, "velocity": 112, "channel": 0}, {"type": "note_on", "time": 220, "note": 45, "velocity": 122, "channel": 0}, {"type": "note_off", "time": 318, "note": 45, "velocity": 122, "channel": 0}, {"type": "note_on", "time": 220, "note": 52, "velocity": 111, "channel": 0}, {"type": "note_off", "time": 201, "note": 52, "velocity": 111, "channel": 0}, {"type": "note_on", "time": 0, "note": 51, "velocity": 115, "channel": 0}, {"type": "note_off", "time": 340, "note": 51, "velocity": 115, "channel": 0}, {"type": "note_on", "time": 23, "note": 55, "velocity": 120, "channel": 0}, {"type": "note_off", "time": 395, "note": 55, "velocity": 120, "channel": 0}, {"type": "note_on", "time": 7, "note": 49, "velocity": 118, "channel": 0}, {"type": "note_off", "time": 377, "note": 49, "velocity": 118, "channel": 0}, {"type": "note_on", "time": 7, "note": 51, "velocity": 117, "channel": 0}, {"type": "note_off", "time": 225, "note": 51, "velocity": 117, "channel": 0}, {"type": "note_on", "time": 751, "note": 69, "velocity": 119, "channel": 0}, {"type": "note_off", "time": 257, "note": 69, "velocity": 119, "channel": 0}, {"type": "note_on", "time": 7, "note": 74, "velocity": 112, "channel": 0}, {"type": "note_off", "time": 151, "note": 74, "velocity": 112, "channel": 0}, {"type": "note_on", "time": 217, "note": 79, "velocity": 122, "channel": 0}, {"type": "note_off", "time": 435, "note": 79, "velocity": 122, "channel": 0}, {"type": "note_on", "time": 7, "note": 81, "velocity": 111, "channel": 0}, {"type": "note_off", "time": 260, "note": 81, "velocity": 111, "channel": 0}, {"type": "note_on", "time": 232, "note": 45, "velocity": 124, "channel": 0}, {"type": "note_off", "time": 355, "note": 45, "velocity": 124, "channel": 0}, {"type": "note_on", "time": 15, "note": 52, "velocity": 124, "channel": 0}, {"type": "note_off", "time": 324, "note": 52, "velocity": 124, "channel": 0}, {"type": "note_on", "time": 0, "note": 51, "velocity": 123, "channel": 0}, {"type": "note_off", "time": 173, "note": 51, "velocity": 123, "channel": 0}, {"type": "note_on", "time": 136, "note": 54, "velocity": 117, "channel": 0}, {"type": "note_off", "time": 340, "note": 54, "velocity": 117, "channel": 0}, {"type": "note_on", "time": 15, "note": 58, "velocity": 112, "channel": 0}, {"type": "note_off", "time": 279, "note": 58, "velocity": 112, "channel": 0}, {"type": "note_on", "time": 18, "note": 62, "velocity": 107, "channel": 0}, {"type": "note_off", "time": 166, "note": 62, "velocity": 107, "channel": 0}, {"type": "note_on", "time": 45, "note": 63, "velocity": 112, "channel": 0}, {"type": "note_off", "time": 162, "note": 63, "velocity": 112, "channel": 0}, {"type": "note_on", "time": 7, "note": 68, "velocity": 105, "channel": 0}, {"type": "note_off", "time": 124, "note": 68, "velocity": 105, "channel": 0}, {"type": "note_on", "time": 15, "note": 69, "velocity": 101, "channel": 0}, {"type": "note_off", "time": 128, "note": 69, "velocity": 101, "channel": 0}, {"type": "note_on", "time": 26, "note": 73, "velocity": 105, "channel": 0}, {"type": "note_off", "time": 136, "note": 73, "velocity": 105, "channel": 0}, {"type": "note_on", "time": 51, "note": 79, "velocity": 117, "channel": 0}, {"type": "note_off", "time": 831, "note": 79, "velocity": 117, "channel": 0}, {"type": "note_on", "time": 720, "note": 69, "velocity": 110, "channel": 0}, {"type": "note_off", "time": 257, "note": 69, "velocity": 110, "channel": 0}, {"type": "note_on", "time": 18, "note": 74, "velocity": 115, "channel": 0}, {"type": "note_off", "time": 231, "note": 74, "velocity": 115, "channel": 0}, {"type": "note_on", "time": 164, "note": 79, "velocity": 113, "channel": 0}, {"type": "note_off", "time": 361, "note": 79, "velocity": 113, "channel": 0}, {"type": "note_on", "time": 15, "note": 81, "velocity": 106, "channel": 0}, {"type": "note_off", "time": 119, "note": 81, "velocity": 106, "channel": 0}, {"type": "note_on", "time": 10, "note": 82, "velocity": 97, "channel": 0}, {"type": "note_off", "time": 127, "note": 82, "velocity": 97, "channel": 0}, {"type": "note_on", "time": 354, "note": 45, "velocity": 119, "channel": 0}, {"type": "note_off", "time": 453, "note": 45, "velocity": 119, "channel": 0}, {"type": "note_on", "time": 15, "note": 52, "velocity": 115, "channel": 0}, {"type": "note_off", "time": 283, "note": 52, "velocity": 115, "channel": 0}, {"type": "note_on", "time": 3, "note": 51, "velocity": 124, "channel": 0}, {"type": "note_off", "time": 154, "note": 51, "velocity": 124, "channel": 0}, {"type": "note_on", "time": 61, "note": 70, "velocity": 111, "channel": 0}, {"type": "note_off", "time": 170, "note": 70, "velocity": 111, "channel": 0}, {"type": "note_on", "time": 5, "note": 71, "velocity": 109, "channel": 0}, {"type": "note_off", "time": 170, "note": 71, "velocity": 109, "channel": 0}, {"type": "note_on", "time": 15, "note": 72, "velocity": 110, "channel": 0}, {"type": "note_off", "time": 172, "note": 72, "velocity": 110, "channel": 0}, {"type": "note_on", "time": 18, "note": 73, "velocity": 101, "channel": 0}, {"type": "note_off", "time": 140, "note": 73, "velocity": 101, "channel": 0}, {"type": "note_on", "time": 118, "note": 74, "velocity": 114, "channel": 0}, {"type": "note_off", "time": 347, "note": 74, "velocity": 114, "channel": 0}, {"type": "note_on", "time": 0, "note": 79, "velocity": 102, "channel": 0}, {"type": "note_off", "time": 170, "note": 79, "velocity": 102, "channel": 0}, {"type": "note_on", "time": 3, "note": 80, "velocity": 111, "channel": 0}, {"type": "note_off", "time": 419, "note": 80, "velocity": 111, "channel": 0}, {"type": "note_on", "time": 184, "note": 80, "velocity": 93, "channel": 0}, {"type": "note_off", "time": 345, "note": 80, "velocity": 93, "channel": 0}, {"type": "note_on", "time": 9, "note": 73, "velocity": 93, "channel": 0}, {"type": "note_off", "time": 999, "note": 73, "velocity": 93, "channel": 0}, {"type": "note_on", "time": 969, "note": 79, "velocity": 103, "channel": 0}, {"type": "note_off", "time": 164, "note": 79, "velocity": 103, "channel": 0}, {"type": "note_on", "time": 10, "note": 81, "velocity": 104, "channel": 0}, {"type": "note_off", "time": 361, "note": 81, "velocity": 104, "channel": 0}, {"type": "note_on", "time": 15, "note": 73, "velocity": 104, "channel": 0}, {"type": "note_off", "time": 573, "note": 73, "velocity": 104, "channel": 0}, {"type": "note_on", "time": 212, "note": 81, "velocity": 97, "channel": 0}, {"type": "note_off", "time": 2242, "note": 81, "velocity": 97, "channel": 0}, {"type": "note_on", "time": 53, "note": 79, "velocity": 106, "channel": 0}, {"type": "note_off", "time": 2051, "note": 79, "velocity": 106, "channel": 0}, {"type": "note_on", "time": 340, "note": 76, "velocity": 101, "channel": 0}, {"type": "note_off", "time": 733, "note": 76, "velocity": 101, "channel": 0}, {"type": "note_on", "time": 350, "note": 71, "velocity": 117, "channel": 0}, {"type": "note_off", "time": 4655, "note": 71, "velocity": 117, "channel": 0}, {"type": "note_on", "time": 71, "note": 69, "velocity": 108, "channel": 0}, {"type": "note_off", "time": 302, "note": 69, "velocity": 108, "channel": 0}, {"type": "note_on", "time": 23, "note": 65, "velocity": 20, "channel": 0}, {"type": "note_off", "time": 318, "note": 65, "velocity": 20, "channel": 0}, {"type": "note_on", "time": 34, "note": 71, "velocity": 107, "channel": 0}, {"type": "note_off", "time": 156, "note": 71, "velocity": 107, "channel": 0}, {"type": "note_on", "time": 10, "note": 69, "velocity": 111, "channel": 0}, {"type": "note_off", "time": 220, "note": 69, "velocity": 111, "channel": 0}, {"type": "note_on", "time": 15, "note": 65, "velocity": 106, "channel": 0}, {"type": "note_off", "time": 249, "note": 65, "velocity": 106, "channel": 0}, {"type": "note_on", "time": 0, "note": 71, "velocity": 106, "channel": 0}, {"type": "note_off", "time": 148, "note": 71, "velocity": 106, "channel": 0}, {"type": "note_on", "time": 29, "note": 69, "velocity": 109, "channel": 0}, {"type": "note_off", "time": 201, "note": 69, "velocity": 109, "channel": 0}, {"type": "note_on", "time": 18, "note": 65, "velocity": 108, "channel": 0}, {"type": "note_off", "time": 215, "note": 65, "velocity": 108, "channel": 0}, {"type": "note_on", "time": 50, "note": 71, "velocity": 108, "channel": 0}, {"type": "note_off", "time": 122, "note": 71, "velocity": 108, "channel": 0}, {"type": "note_on", "time": 7, "note": 69, "velocity": 113, "channel": 0}, {"type": "note_off", "time": 217, "note": 69, "velocity": 113, "channel": 0}, {"type": "note_on", "time": 34, "note": 65, "velocity": 105, "channel": 0}, {"type": "note_off", "time": 241, "note": 65, "velocity": 105, "channel": 0}, {"type": "note_on", "time": 0, "note": 71, "velocity": 106, "channel": 0}, {"type": "note_off", "time": 116, "note": 71, "velocity": 106, "channel": 0}, {"type": "note_on", "time": 10, "note": 69, "velocity": 113, "channel": 0}, {"type": "note_off", "time": 241, "note": 69, "velocity": 113, "channel": 0}, {"type": "note_on", "time": 18, "note": 65, "velocity": 109, "channel": 0}, {"type": "note_off", "time": 395, "note": 65, "velocity": 109, "channel": 0}, {"type": "note_on", "time": 1113, "note": 71, "velocity": 111, "channel": 0}, {"type": "note_off", "time": 743, "note": 71, "velocity": 111, "channel": 0}, {"type": "note_on", "time": 47, "note": 74, "velocity": 109, "channel": 0}, {"type": "note_off", "time": 1434, "note": 74, "velocity": 109, "channel": 0}, {"type": "note_on", "time": 21, "note": 72, "velocity": 106, "channel": 0}, {"type": "note_off", "time": 175, "note": 72, "velocity": 106, "channel": 0}, {"type": "note_on", "time": 5, "note": 71, "velocity": 113, "channel": 0}, {"type": "note_off", "time": 116, "note": 71, "velocity": 113, "channel": 0}, {"type": "note_on", "time": 10, "note": 69, "velocity": 117, "channel": 0}, {"type": "note_off", "time": 127, "note": 69, "velocity": 117, "channel": 0}, {"type": "note_on", "time": 21, "note": 70, "velocity": 119, "channel": 0}, {"type": "note_off", "time": 308, "note": 70, "velocity": 119, "channel": 0}, {"type": "note_on", "time": 37, "note": 69, "velocity": 114, "channel": 0}, {"type": "note_off", "time": 276, "note": 69, "velocity": 114, "channel": 0}, {"type": "note_on", "time": 15, "note": 65, "velocity": 110, "channel": 0}, {"type": "note_off", "time": 148, "note": 65, "velocity": 110, "channel": 0}, {"type": "note_on", "time": 15, "note": 63, "velocity": 111, "channel": 0}, {"type": "note_off", "time": 122, "note": 63, "velocity": 111, "channel": 0}, {"type": "note_on", "time": 42, "note": 66, "velocity": 114, "channel": 0}, {"type": "note_off", "time": 207, "note": 66, "velocity": 114, "channel": 0}, {"type": "note_on", "time": 15, "note": 63, "velocity": 117, "channel": 0}, {"type": "note_off", "time": 217, "note": 63, "velocity": 117, "channel": 0}, {"type": "note_on", "time": 15, "note": 58, "velocity": 111, "channel": 0}, {"type": "note_off", "time": 127, "note": 58, "velocity": 111, "channel": 0}, {"type": "note_on", "time": 10, "note": 57, "velocity": 113, "channel": 0}, {"type": "note_off", "time": 329, "note": 57, "velocity": 113, "channel": 0}, {"type": "note_on", "time": 31, "note": 53, "velocity": 119, "channel": 0}, {"type": "note_off", "time": 170, "note": 53, "velocity": 119, "channel": 0}, {"type": "note_on", "time": 21, "note": 58, "velocity": 117, "channel": 0}, {"type": "note_off", "time": 170, "note": 58, "velocity": 117, "channel": 0}, {"type": "note_on", "time": 10, "note": 57, "velocity": 117, "channel": 0}, {"type": "note_off", "time": 191, "note": 57, "velocity": 117, "channel": 0}, {"type": "note_on", "time": 5, "note": 53, "velocity": 112, "channel": 0}, {"type": "note_off", "time": 159, "note": 53, "velocity": 112, "channel": 0}, {"type": "note_on", "time": 74, "note": 49, "velocity": 115, "channel": 0}, {"type": "note_off", "time": 180, "note": 49, "velocity": 115, "channel": 0}, {"type": "note_on", "time": 0, "note": 51, "velocity": 118, "channel": 0}, {"type": "note_off", "time": 148, "note": 51, "velocity": 118, "channel": 0}, {"type": "note_on", "time": 31, "note": 53, "velocity": 112, "channel": 0}, {"type": "note_off", "time": 249, "note": 53, "velocity": 112, "channel": 0}, {"type": "note_on", "time": 42, "note": 51, "velocity": 116, "channel": 0}, {"type": "note_off", "time": 871, "note": 51, "velocity": 116, "channel": 0}, {"type": "note_on", "time": 15, "note": 47, "velocity": 114, "channel": 0}, {"type": "note_off", "time": 260, "note": 47, "velocity": 114, "channel": 0}, {"type": "note_on", "time": 5, "note": 47, "velocity": 123, "channel": 0}, {"type": "note_off", "time": 127, "note": 47, "velocity": 123, "channel": 0}, {"type": "note_on", "time": 122, "note": 51, "velocity": 115, "channel": 0}, {"type": "note_off", "time": 281, "note": 51, "velocity": 115, "channel": 0}, {"type": "note_on", "time": 31, "note": 45, "velocity": 109, "channel": 0}, {"type": "note_off", "time": 696, "note": 45, "velocity": 109, "channel": 0}, {"type": "note_on", "time": 967, "note": 55, "velocity": 107, "channel": 0}, {"type": "note_off", "time": 154, "note": 55, "velocity": 107, "channel": 0}, {"type": "note_on", "time": 23, "note": 57, "velocity": 108, "channel": 0}, {"type": "note_off", "time": 249, "note": 57, "velocity": 108, "channel": 0}, {"type": "note_on", "time": 21, "note": 59, "velocity": 109, "channel": 0}, {"type": "note_off", "time": 225, "note": 59, "velocity": 109, "channel": 0}, {"type": "note_on", "time": 29, "note": 61, "velocity": 110, "channel": 0}, {"type": "note_off", "time": 127, "note": 61, "velocity": 110, "channel": 0}, {"type": "note_on", "time": 2, "note": 62, "velocity": 108, "channel": 0}, {"type": "note_off", "time": 185, "note": 62, "velocity": 108, "channel": 0}, {"type": "note_on", "time": 21, "note": 63, "velocity": 112, "channel": 0}, {"type": "note_off", "time": 159, "note": 63, "velocity": 112, "channel": 0}, {"type": "note_on", "time": 23, "note": 65, "velocity": 111, "channel": 0}, {"type": "note_off", "time": 233, "note": 65, "velocity": 111, "channel": 0}, {"type": "note_on", "time": 15, "note": 67, "velocity": 113, "channel": 0}, {"type": "note_off", "time": 212, "note": 67, "velocity": 113, "channel": 0}, {"type": "note_on", "time": 2, "note": 68, "velocity": 114, "channel": 0}, {"type": "note_off", "time": 69, "note": 68, "velocity": 114, "channel": 0}, {"type": "note_on", "time": 5, "note": 69, "velocity": 109, "channel": 0}, {"type": "note_off", "time": 193, "note": 69, "velocity": 109, "channel": 0}, {"type": "note_on", "time": 7, "note": 71, "velocity": 106, "channel": 0}, {"type": "note_off", "time": 162, "note": 71, "velocity": 106, "channel": 0}, {"type": "note_on", "time": 3, "note": 72, "velocity": 105, "channel": 0}, {"type": "note_off", "time": 264, "note": 72, "velocity": 105, "channel": 0}, {"type": "note_on", "time": 18, "note": 69, "velocity": 106, "channel": 0}, {"type": "note_off", "time": 328, "note": 69, "velocity": 106, "channel": 0}, {"type": "note_on", "time": 309, "note": 74, "velocity": 103, "channel": 0}, {"type": "note_off", "time": 374, "note": 74, "velocity": 103, "channel": 0}, {"type": "note_on", "time": 41, "note": 69, "velocity": 109, "channel": 0}, {"type": "note_off", "time": 396, "note": 69, "velocity": 109, "channel": 0}, {"type": "note_on", "time": 370, "note": 69, "velocity": 110, "channel": 0}, {"type": "note_off", "time": 529, "note": 69, "velocity": 110, "channel": 0}, {"type": "note_on", "time": 300, "note": 69, "velocity": 103, "channel": 0}, {"type": "note_off", "time": 589, "note": 69, "velocity": 103, "channel": 0}, {"type": "note_on", "time": 254, "note": 69, "velocity": 106, "channel": 0}, {"type": "note_off", "time": 2418, "note": 69, "velocity": 106, "channel": 0}, {"type": "note_on", "time": 1224, "note": 67, "velocity": 111, "channel": 0}, {"type": "note_on", "time": 393, "note": 64, "velocity": 113, "channel": 0}, {"type": "note_off", "time": 0, "note": 67, "velocity": 111, "channel": 0}, {"type": "note_off", "time": 283, "note": 64, "velocity": 113, "channel": 0}, {"type": "note_on", "time": 18, "note": 69, "velocity": 109, "channel": 0}, {"type": "note_off", "time": 389, "note": 69, "velocity": 109, "channel": 0}, {"type": "note_on", "time": 11, "note": 67, "velocity": 104, "channel": 0}, {"type": "note_off", "time": 317, "note": 67, "velocity": 104, "channel": 0}, {"type": "note_on", "time": 11, "note": 69, "velocity": 112, "channel": 0}, {"type": "note_off", "time": 441, "note": 69, "velocity": 112, "channel": 0}, {"type": "note_on", "time": 0, "note": 67, "velocity": 109, "channel": 0}, {"type": "note_off", "time": 268, "note": 67, "velocity": 109, "channel": 0}, {"type": "note_on", "time": 235, "note": 68, "velocity": 108, "channel": 0}, {"type": "note_off", "time": 175, "note": 68, "velocity": 108, "channel": 0}, {"type": "note_on", "time": 10, "note": 69, "velocity": 108, "channel": 0}, {"type": "note_off", "time": 536, "note": 69, "velocity": 108, "channel": 0}, {"type": "note_on", "time": 63, "note": 68, "velocity": 107, "channel": 0}, {"type": "note_off", "time": 180, "note": 68, "velocity": 107, "channel": 0}, {"type": "note_on", "time": 5, "note": 69, "velocity": 100, "channel": 0}, {"type": "note_off", "time": 3098, "note": 69, "velocity": 100, "channel": 0}, {"type": "note_on", "time": 100, "note": 68, "velocity": 106, "channel": 0}, {"type": "note_off", "time": 127, "note": 68, "velocity": 106, "channel": 0}, {"type": "note_on", "time": 18, "note": 69, "velocity": 105, "channel": 0}, {"type": "note_off", "time": 629, "note": 69, "velocity": 105, "channel": 0}, {"type": "note_on", "time": 92, "note": 69, "velocity": 102, "channel": 0}, {"type": "note_off", "time": 1150, "note": 69, "velocity": 102, "channel": 0}, {"type": "note_on", "time": 58, "note": 64, "velocity": 99, "channel": 0}, {"type": "note_off", "time": 3470, "note": 64, "velocity": 99, "channel": 0}, {"type": "note_on", "time": 1075, "note": 69, "velocity": 107, "channel": 0}, {"type": "note_off", "time": 302, "note": 69, "velocity": 107, "channel": 0}, {"type": "note_on", "time": 25, "note": 71, "velocity": 93, "channel": 0}, {"type": "note_off", "time": 5011, "note": 71, "velocity": 93, "channel": 0}, {"type": "end_of_track", "time": 0}]]}