{"ticks_per_beat": 840, "tracks": [[{"type": "track_name", "name": "Melody", "time": 0}, {"type": "set_tempo", "tempo": 434782, "time": 0}, {"type": "key_signature", "key": "Bb", "time": 0}, {"type": "time_signature", "numerator": 4, "denominator": 4, "clocks_per_click": 24, "notated_32nd_notes_per_beat": 8, "time": 0}, {"type": "note_on", "time": 13195, "note": 61, "velocity": 114, "channel": 0}, {"type": "note_off", "time": 89, "note": 61, "velocity": 114, "channel": 0}, {"type": "note_on", "time": 6, "note": 62, "velocity": 114, "channel": 0}, {"type": "note_off", "time": 173, "note": 62, "velocity": 114, "channel": 0}, {"type": "note_on", "time": 11, "note": 65, "velocity": 115, "channel": 0}, {"type": "note_off", "time": 165, "note": 65, "velocity": 115, "channel": 0}, {"type": "note_on", "time": 46, "note": 62, "velocity": 118, "channel": 0}, {"type": "note_off", "time": 168, "note": 62, "velocity": 118, "channel": 0}, {"type": "note_on", "time": 5, "note": 63, "velocity": 120, "channel": 0}, {"type": "note_off", "time": 145, "note": 63, "velocity": 120, "channel": 0}, {"type": "note_on", "time": 16, "note": 65, "velocity": 115, "channel": 0}, {"type": "note_off", "time": 157, "note": 65, "velocity": 115, "channel": 0}, {"type": "note_on", "time": 18, "note": 67, "velocity": 112, "channel": 0}, {"type": "note_off", "time": 185, "note": 67, "velocity": 112, "channel": 0}, {"type": "note_on", "time": 12, "note": 69, "velocity": 121, "channel": 0}, {"type": "note_off", "time": 153, "note": 69, "velocity": 121, "channel": 0}, {"type": "note_on", "time": 25, "note": 70, "velocity": 120, "channel": 0}, {"type": "note_off", "time": 622, "note": 70, "velocity": 120, "channel": 0}, {"type": "note_on", "time": 23, "note": 69, "velocity": 115, "channel": 0}, {"type": "note_off", "time": 148, "note": 69, "velocity": 115, "channel": 0}, {"type": "note_on", "time": 23, "note": 67, "velocity": 108, "channel": 0}, {"type": "note_off", "time": 141, "note": 67, "velocity": 108, "channel": 0}, {"type": "note_on", "time": 11, "note": 65, "velocity": 117, "channel": 0}, {"type": "note_off", "time": 1208, "note": 65, "velocity": 117, "channel": 0}, {"type": "note_on", "time": 30, "note": 61, "velocity": 112, "channel": 0}, {"type": "note_off", "time": 157, "note": 61, "velocity": 112, "channel": 0}, {"type": "note_on", "time": 14, "note": 62, "velocity": 111, "channel": 0}, {"type": "note_off", "time": 1452, "note": 62, "velocity": 111, "channel": 0}, {"type": "note_on", "time": 24, "note": 65, "velocity": 110, "channel": 0}, {"type": "note_off", "time": 168, "note": 65, "velocity": 110, "channel": 0}, {"type": "note_on", "time": 32, "note": 63, "velocity": 112, "channel": 0}, {"type": "note_off", "time": 745, "note": 63, "velocity": 112, "channel": 0}, {"type": "note_on", "time": 16, "note": 65, "velocity": 107, "channel": 0}, {"type": "note_off", "time": 616, "note": 65, "velocity": 107, "channel": 0}, {"type": "note_on", "time": 28, "note": 67, "velocity": 106, "channel": 0}, {"type": "note_off", "time": 1040, "note": 67, "velocity": 106, "channel": 0}, {"type": "note_on", "time": 8, "note": 69, "velocity": 112, "channel": 0}, {"type": "note_off", "time": 457, "note": 69, "velocity": 112, "channel": 0}, {"type": "note_on", "time": 11, "note": 65, "velocity": 101, "channel": 0}, {"type": "note_off", "time": 1452, "note": 65, "velocity": 101, "channel": 0}, {"type": "note_on", "time": 2153, "note": 60, "velocity": 110, "channel": 0}, {"type": "note_off", "time": 86, "note": 60, "velocity": 110, "channel": 0}, {"type": "note_on", "time": 9, "note": 62, "velocity": 114, "channel": 0}, {"type": "note_off", "time": 147, "note": 62, "velocity": 114, "channel": 0}, {"type": "note_on", "time": 10, "note": 63, "velocity": 115, "channel": 0}, {"type": "note_off", "time": 89, "note": 63, "velocity": 115, "channel": 0}, {"type": "note_on", "time": 6, "note": 65, "velocity": 110, "channel": 0}, {"type": "note_off", "time": 90, "note": 65, "velocity": 110, "channel": 0}, {"type": "note_on", "time": 11, "note": 67, "velocity": 100, "channel": 0}, {"type": "note_off", "time": 94, "note": 67, "velocity": 100, "channel": 0}, {"type": "note_on", "time": 149, "note": 62, "velocity": 115, "channel": 0}, {"type": "note_off", "time": 189, "note": 62, "velocity": 115, "channel": 0}, {"type": "note_on", "time": 7, "note": 63, "velocity": 119, "channel": 0}, {"type": "note_off", "time": 122, "note": 63, "velocity": 119, "channel": 0}, {"type": "note_on", "time": 8, "note": 65, "velocity": 113, "channel": 0}, {"type": "note_off", "time": 100, "note": 65, "velocity": 113, "channel": 0}, {"type": "note_on", "time": 8, "note": 67, "velocity": 116, "channel": 0}, {"type": "note_off", "time": 102, "note": 67, "velocity": 116, "channel": 0}, {"type": "note_on", "time": 9, "note": 68, "velocity": 115, "channel": 0}, {"type": "note_off", "time": 81, "note": 68, "velocity": 115, "channel": 0}, {"type": "note_on", "time": 7, "note": 71, "velocity": 116, "channel": 0}, {"type": "note_off", "time": 110, "note": 71, "velocity": 116, "channel": 0}, {"type": "note_on", "time": 15, "note": 73, "velocity": 122, "channel": 0}, {"type": "note_off", "time": 701, "note": 73, "velocity": 122, "channel": 0}, {"type": "note_on", "time": 7, "note": 71, "velocity": 118, "channel": 0}, {"type": "note_off", "time": 134, "note": 71, "velocity": 118, "channel": 0}, {"type": "note_on", "time": 6, "note": 69, "velocity": 112, "channel": 0}, {"type": "note_off", "time": 98, "note": 69, "velocity": 112, "channel": 0}, {"type": "note_on", "time": 13, "note": 68, "velocity": 116, "channel": 0}, {"type": "note_off", "time": 177, "note": 68, "velocity": 116, "channel": 0}, {"type": "note_on", "time": 11, "note": 66, "velocity": 110, "channel": 0}, {"type": "note_off", "time": 122, "note": 66, "velocity": 110, "channel": 0}, {"type": "note_on", "time": 7, "note": 63, "velocity": 117, "channel": 0}, {"type": "note_off", "time": 94, "note": 63, "velocity": 117, "channel": 0}, {"type": "note_on", "time": 13, "note": 61, "velocity": 111, "channel": 0}, {"type": "note_off", "time": 114, "note": 61, "velocity": 111, "channel": 0}, {"type": "note_on", "time": 19, "note": 59, "velocity": 102, "channel": 0}, {"type": "note_off", "time": 102, "note": 59, "velocity": 102, "channel": 0}, {"type": "note_on", "time": 29, "note": 56, "velocity": 104, "channel": 0}, {"type": "note_off", "time": 78, "note": 56, "velocity": 104, "channel": 0}, {"type": "note_on", "time": 19, "note": 54, "velocity": 110, "channel": 0}, {"type": "note_off", "time": 74, "note": 54, "velocity": 110, "channel": 0}, {"type": "note_on", "time": 21, "note": 53, "velocity": 108, "channel": 0}, {"type": "note_on", "time": 86, "note": 51, "velocity": 106, "channel": 0}, {"type": "note_off", "time": 0, "note": 53, "velocity": 108, "channel": 0}, {"type": "note_off", "time": 76, "note": 51, "velocity": 106, "channel": 0}, {"type": "note_on", "time": 9, "note": 50, "velocity": 109, "channel": 0}, {"type": "note_off", "time": 76, "note": 50, "velocity": 109, "channel": 0}, {"type": "note_on", "time": 1, "note": 47, "velocity": 106, "channel": 0}, {"type": "note_off", "time": 122, "note": 47, "velocity": 106, "channel": 0}, {"type": "note_on", "time": 7, "note": 46, "velocity": 106, "channel": 0}, {"type": "note_off", "time": 544, "note": 46, "velocity": 106, "channel": 0}, {"type": "note_on", "time": 1285, "note": 67, "velocity": 120, "channel": 0}, {"type": "note_off", "time": 199, "note": 67, "velocity": 120, "channel": 0}, {"type": "note_on", "time": 3, "note": 66, "velocity": 115, "channel": 0}, {"type": "note_off", "time": 173, "note": 66, "velocity": 115, "channel": 0}, {"type": "note_on", "time": 13, "note": 65, "velocity": 111, "channel": 0}, {"type": "note_off", "time": 246, "note": 65, "velocity": 111, "channel": 0}, {"type": "note_on", "time": 17, "note": 63, "velocity": 112, "channel": 0}, {"type": "note_off", "time": 130, "note": 63, "velocity": 112, "channel": 0}, {"type": "note_on", "time": 11, "note": 62, "velocity": 112, "channel": 0}, {"type": "note_off", "time": 197, "note": 62, "velocity": 112, "channel": 0}, {"type": "note_on", "time": 17, "note": 60, "velocity": 105, "channel": 0}, {"type": "note_off", "time": 240, "note": 60, "velocity": 105, "channel": 0}, {"type": "note_on", "time": 25, "note": 59, "velocity": 103, "channel": 0}, {"type": "note_off", "time": 126, "note": 59, "velocity": 103, "channel": 0}, {"type": "note_on", "time": 26, "note": 55, "velocity": 106, "channel": 0}, {"type": "note_off", "time": 210, "note": 55, "velocity": 106, "channel": 0}, {"type": "note_on", "time": 9, "note": 57, "velocity": 105, "channel": 0}, {"type": "note_off", "time": 130, "note": 57, "velocity": 105, "channel": 0}, {"type": "note_on", "time": 45, "note": 59, "velocity": 98, "channel": 0}, {"type": "note_off", "time": 260, "note": 59, "velocity": 98, "channel": 0}, {"type": "note_on", "time": 113, "note": 62, "velocity": 116, "channel": 0}, {"type": "note_off", "time": 167, "note": 62, "velocity": 116, "channel": 0}, {"type": "note_on", "time": 9, "note": 63, "velocity": 108, "channel": 0}, {"type": "note_off", "time": 212, "note": 63, "velocity": 108, "channel": 0}, {"type": "note_on", "time": 15, "note": 65, "velocity": 101, "channel": 0}, {"type": "note_off", "time": 134, "note": 65, "velocity": 101, "channel": 0}, {"type": "note_on", "time": 16, "note": 67, "velocity": 116, "channel": 0}, {"type": "note_off", "time": 205, "note": 67, "velocity": 116, "channel": 0}, {"type": "note_on", "time": 8, "note": 70, "velocity": 120, "channel": 0}, {"type": "note_off", "time": 185, "note": 70, "velocity": 120, "channel": 0}, {"type": "note_on", "time": 10, "note": 69, "velocity": 114, "channel": 0}, {"type": "note_off", "time": 197, "note": 69, "velocity": 114, "channel": 0}, {"type": "note_on", "time": 8, "note": 67, "velocity": 110, "channel": 0}, {"type": "note_off", "time": 250, "note": 67, "velocity": 110, "channel": 0}, {"type": "note_on", "time": 5, "note": 65, "velocity": 107, "channel": 0}, {"type": "note_off", "time": 128, "note": 65, "velocity": 107, "channel": 0}, {"type": "note_on", "time": 45, "note": 63, "velocity": 116, "channel": 0}, {"type": "note_off", "time": 181, "note": 63, "velocity": 116, "channel": 0}, {"type": "note_on", "time": 21, "note": 62, "velocity": 112, "channel": 0}, {"type": "note_off", "time": 175, "note": 62, "velocity": 112, "channel": 0}, {"type": "note_on", "time": 20, "note": 60, "velocity": 106, "channel": 0}, {"type": "note_off", "time": 185, "note": 60, "velocity": 106, "channel": 0}, {"type": "note_on", "time": 14, "note": 58, "velocity": 105, "channel": 0}, {"type": "note_off", "time": 215, "note": 58, "velocity": 105, "channel": 0}, {"type": "note_on", "time": 54, "note": 53, "velocity": 95, "channel": 0}, {"type": "note_off", "time": 153, "note": 53, "velocity": 95, "channel": 0}, {"type": "note_on", "time": 43, "note": 62, "velocity": 112, "channel": 0}, {"type": "note_off", "time": 216, "note": 62, "velocity": 112, "channel": 0}, {"type": "note_on", "time": 21, "note": 60, "velocity": 105, "channel": 0}, {"type": "note_off", "time": 208, "note": 60, "velocity": 105, "channel": 0}, {"type": "note_on", "time": 68, "note": 58, "velocity": 100, "channel": 0}, {"type": "note_off", "time": 145, "note": 58, "velocity": 100, "channel": 0}, {"type": "note_on", "time": 22, "note": 60, "velocity": 105, "channel": 0}, {"type": "note_off", "time": 128, "note": 60, "velocity": 105, "channel": 0}, {"type": "note_on", "time": 9, "note": 62, "velocity": 108, "channel": 0}, {"type": "note_off", "time": 224, "note": 62, "velocity": 108, "channel": 0}, {"type": "note_on", "time": 19, "note": 65, "velocity": 100, "channel": 0}, {"type": "note_off", "time": 143, "note": 65, "velocity": 100, "channel": 0}, {"type": "note_on", "time": 45, "note": 70, "velocity": 109, "channel": 0}, {"type": "note_off", "time": 1048, "note": 70, "velocity": 109, "channel": 0}, {"type": "note_on", "time": 15, "note": 67, "velocity": 103, "channel": 0}, {"type": "note_off", "time": 214, "note": 67, "velocity": 103, "channel": 0}, {"type": "note_on", "time": 15, "note": 63, "velocity": 114, "channel": 0}, {"type": "note_off", "time": 134, "note": 63, "velocity": 114, "channel": 0}, {"type": "note_on", "time": 25, "note": 60, "velocity": 98, "channel": 0}, {"type": "note_off", "time": 987, "note": 60, "velocity": 98, "channel": 0}, {"type": "note_on", "time": 1730, "note": 61, "velocity": 113, "channel": 0}, {"type": "note_off", "time": 325, "note": 61, "velocity": 113, "channel": 0}, {"type": "note_on", "time": 2, "note": 62, "velocity": 91, "channel": 0}, {"type": "note_off", "time": 123, "note": 62, "velocity": 91, "channel": 0}, {"type": "note_on", "time": 26, "note": 67, "velocity": 111, "channel": 0}, {"type": "note_off", "time": 279, "note": 67, "velocity": 111, "channel": 0}, {"type": "note_on", "time": 11, "note": 66, "velocity": 113, "channel": 0}, {"type": "note_off", "time": 173, "note": 66, "velocity": 113, "channel": 0}, {"type": "note_on", "time": 11, "note": 65, "velocity": 111, "channel": 0}, {"type": "note_off", "time": 205, "note": 65, "velocity": 111, "channel": 0}, {"type": "note_on", "time": 17, "note": 63, "velocity": 119, "channel": 0}, {"type": "note_off", "time": 199, "note": 63, "velocity": 119, "channel": 0}, {"type": "note_on", "time": 21, "note": 62, "velocity": 112, "channel": 0}, {"type": "note_off", "time": 169, "note": 62, "velocity": 112, "channel": 0}, {"type": "note_on", "time": 13, "note": 60, "velocity": 113, "channel": 0}, {"type": "note_off", "time": 270, "note": 60, "velocity": 113, "channel": 0}, {"type": "note_on", "time": 31, "note": 58, "velocity": 101, "channel": 0}, {"type": "note_off", "time": 139, "note": 58, "velocity": 101, "channel": 0}, {"type": "note_on", "time": 3, "note": 60, "velocity": 106, "channel": 0}, {"type": "note_off", "time": 214, "note": 60, "velocity": 106, "channel": 0}, {"type": "note_on", "time": 25, "note": 62, "velocity": 105, "channel": 0}, {"type": "note_off", "time": 141, "note": 62, "velocity": 105, "channel": 0}, {"type": "note_on", "time": 23, "note": 65, "velocity": 101, "channel": 0}, {"type": "note_off", "time": 118, "note": 65, "velocity": 101, "channel": 0}, {"type": "note_on", "time": 17, "note": 69, "velocity": 116, "channel": 0}, {"type": "note_off", "time": 244, "note": 69, "velocity": 116, "channel": 0}, {"type": "note_on", "time": 13, "note": 72, "velocity": 114, "channel": 0}, {"type": "note_off", "time": 169, "note": 72, "velocity": 114, "channel": 0}, {"type": "note_on", "time": 11, "note": 69, "velocity": 114, "channel": 0}, {"type": "note_off", "time": 232, "note": 69, "velocity": 114, "channel": 0}, {"type": "note_on", "time": 59, "note": 65, "velocity": 103, "channel": 0}, {"type": "note_off", "time": 171, "note": 65, "velocity": 103, "channel": 0}, {"type": "note_on", "time": 45, "note": 70, "velocity": 110, "channel": 0}, {"type": "note_off", "time": 147, "note": 70, "velocity": 110, "channel": 0}, {"type": "note_on", "time": 9, "note": 71, "velocity": 118, "channel": 0}, {"type": "note_off", "time": 94, "note": 71, "velocity": 118, "channel": 0}, {"type": "note_on", "time": 15, "note": 68, "velocity": 115, "channel": 0}, {"type": "note_off", "time": 145, "note": 68, "velocity": 115, "channel": 0}, {"type": "note_on", "time": 27, "note": 64, "velocity": 120, "channel": 0}, {"type": "note_off", "time": 183, "note": 64, "velocity": 120, "channel": 0}, {"type": "note_on", "time": 1, "note": 60, "velocity": 108, "channel": 0}, {"type": "note_off", "time": 165, "note": 60, "velocity": 108, "channel": 0}, {"type": "note_on", "time": 29, "note": 63, "velocity": 108, "channel": 0}, {"type": "note_off", "time": 57, "note": 63, "velocity": 108, "channel": 0}, {"type": "note_on", "time": 1, "note": 66, "velocity": 114, "channel": 0}, {"type": "note_off", "time": 106, "note": 66, "velocity": 114, "channel": 0}, {"type": "note_on", "time": 5, "note": 70, "velocity": 114, "channel": 0}, {"type": "note_off", "time": 98, "note": 70, "velocity": 114, "channel": 0}, {"type": "note_on", "time": 15, "note": 69, "velocity": 113, "channel": 0}, {"type": "note_off", "time": 404, "note": 69, "velocity": 113, "channel": 0}, {"type": "note_on", "time": 11, "note": 67, "velocity": 110, "channel": 0}, {"type": "note_off", "time": 199, "note": 67, "velocity": 110, "channel": 0}, {"type": "note_on", "time": 9, "note": 65, "velocity": 109, "channel": 0}, {"type": "note_off", "time": 291, "note": 65, "velocity": 109, "channel": 0}, {"type": "note_on", "time": 25, "note": 62, "velocity": 107, "channel": 0}, {"type": "note_off", "time": 169, "note": 62, "velocity": 107, "channel": 0}, {"type": "note_on", "time": 11, "note": 63, "velocity": 109, "channel": 0}, {"type": "note_off", "time": 163, "note": 63, "velocity": 109, "channel": 0}, {"type": "note_on", "time": 7, "note": 65, "velocity": 107, "channel": 0}, {"type": "note_off", "time": 122, "note": 65, "velocity": 107, "channel": 0}, {"type": "note_on", "time": 3, "note": 67, "velocity": 106, "channel": 0}, {"type": "note_off", "time": 214, "note": 67, "velocity": 106, "channel": 0}, {"type": "note_on", "time": 19, "note": 63, "velocity": 117, "channel": 0}, {"type": "note_off", "time": 149, "note": 63, "velocity": 117, "channel": 0}, {"type": "note_on", "time": 25, "note": 61, "velocity": 110, "channel": 0}, {"type": "note_off", "time": 106, "note": 61, "velocity": 110, "channel": 0}, {"type": "note_on", "time": 8, "note": 60, "velocity": 106, "channel": 0}, {"type": "note_off", "time": 224, "note": 60, "velocity": 106, "channel": 0}, {"type": "note_on", "time": 0, "note": 65, "velocity": 112, "channel": 0}, {"type": "note_off", "time": 187, "note": 65, "velocity": 112, "channel": 0}, {"type": "note_on", "time": 44, "note": 61, "velocity": 115, "channel": 0}, {"type": "note_off", "time": 159, "note": 61, "velocity": 115, "channel": 0}, {"type": "note_on", "time": 36, "note": 57, "velocity": 117, "channel": 0}, {"type": "note_off", "time": 84, "note": 57, "velocity": 117, "channel": 0}, {"type": "note_on", "time": 5, "note": 53, "velocity": 112, "channel": 0}, {"type": "note_off", "time": 221, "note": 53, "velocity": 112, "channel": 0}, {"type": "note_on", "time": 64, "note": 60, "velocity": 109, "channel": 0}, {"type": "note_off", "time": 117, "note": 60, "velocity": 109, "channel": 0}, {"type": "note_on", "time": 16, "note": 62, "velocity": 110, "channel": 0}, {"type": "note_off", "time": 252, "note": 62, "velocity": 110, "channel": 0}, {"type": "note_on", "time": 145, "note": 53, "velocity": 103, "channel": 0}, {"type": "note_off", "time": 185, "note": 53, "velocity": 103, "channel": 0}, {"type": "note_on", "time": 28, "note": 55, "velocity": 101, "channel": 0}, {"type": "note_off", "time": 443, "note": 55, "velocity": 101, "channel": 0}, {"type": "note_on", "time": 58, "note": 57, "velocity": 92, "channel": 0}, {"type": "note_off", "time": 692, "note": 57, "velocity": 92, "channel": 0}, {"type": "note_on", "time": 1704, "note": 53, "velocity": 105, "channel": 0}, {"type": "note_off", "time": 266, "note": 53, "velocity": 105, "channel": 0}, {"type": "note_on", "time": 25, "note": 56, "velocity": 103, "channel": 0}, {"type": "note_off", "time": 199, "note": 56, "velocity": 103, "channel": 0}, {"type": "note_on", "time": 8, "note": 57, "velocity": 94, "channel": 0}, {"type": "note_off", "time": 142, "note": 57, "velocity": 94, "channel": 0}, {"type": "note_on", "time": 30, "note": 59, "velocity": 96, "channel": 0}, {"type": "note_off", "time": 157, "note": 59, "velocity": 96, "channel": 0}, {"type": "note_on", "time": 16, "note": 61, "velocity": 102, "channel": 0}, {"type": "note_off", "time": 213, "note": 61, "velocity": 102, "channel": 0}, {"type": "note_on", "time": 11, "note": 64, "velocity": 106, "channel": 0}, {"type": "note_off", "time": 159, "note": 64, "velocity": 106, "channel": 0}, {"type": "note_on", "time": 0, "note": 68, "velocity": 117, "channel": 0}, {"type": "note_off", "time": 210, "note": 68, "velocity": 117, "channel": 0}, {"type": "note_on", "time": 5, "note": 66, "velocity": 112, "channel": 0}, {"type": "note_off", "time": 176, "note": 66, "velocity": 112, "channel": 0}, {"type": "note_on", "time": 8, "note": 65, "velocity": 113, "channel": 0}, {"type": "note_off", "time": 193, "note": 65, "velocity": 113, "channel": 0}, {"type": "note_on", "time": 22, "note": 63, "velocity": 118, "channel": 0}, {"type": "note_off", "time": 171, "note": 63, "velocity": 118, "channel": 0}, {"type": "note_on", "time": 16, "note": 62, "velocity": 113, "channel": 0}, {"type": "note_off", "time": 224, "note": 62, "velocity": 113, "channel": 0}, {"type": "note_on", "time": 19, "note": 60, "velocity": 108, "channel": 0}, {"type": "note_off", "time": 199, "note": 60, "velocity": 108, "channel": 0}, {"type": "note_on", "time": 14, "note": 58, "velocity": 99, "channel": 0}, {"type": "note_off", "time": 179, "note": 58, "velocity": 99, "channel": 0}, {"type": "note_on", "time": 2607, "note": 67, "velocity": 110, "channel": 0}, {"type": "note_off", "time": 269, "note": 67, "velocity": 110, "channel": 0}, {"type": "note_on", "time": 19, "note": 66, "velocity": 112, "channel": 0}, {"type": "note_off", "time": 221, "note": 66, "velocity": 112, "channel": 0}, {"type": "note_on", "time": 16, "note": 65, "velocity": 106, "channel": 0}, {"type": "note_off", "time": 159, "note": 65, "velocity": 106, "channel": 0}, {"type": "note_on", "time": 30, "note": 63, "velocity": 114, "channel": 0}, {"type": "note_off", "time": 201, "note": 63, "velocity": 114, "channel": 0}, {"type": "note_on", "time": 8, "note": 62, "velocity": 108, "channel": 0}, {"type": "note_off", "time": 165, "note": 62, "velocity": 108, "channel": 0}, {"type": "note_on", "time": 14, "note": 60, "velocity": 101, "channel": 0}, {"type": "note_off", "time": 241, "note": 60, "velocity": 101, "channel": 0}, {"type": "note_on", "time": 39, "note": 59, "velocity": 100, "channel": 0}, {"type": "note_off", "time": 137, "note": 59, "velocity": 100, "channel": 0}, {"type": "note_on", "time": 50, "note": 55, "velocity": 103, "channel": 0}, {"type": "note_off", "time": 179, "note": 55, "velocity": 103, "channel": 0}, {"type": "note_on", "time": 39, "note": 60, "velocity": 105, "channel": 0}, {"type": "note_off", "time": 193, "note": 60, "velocity": 105, "channel": 0}, {"type": "note_on", "time": 22, "note": 62, "velocity": 111, "channel": 0}, {"type": "note_off", "time": 165, "note": 62, "velocity": 111, "channel": 0}, {"type": "note_on", "time": 19, "note": 63, "velocity": 114, "channel": 0}, {"type": "note_off", "time": 193, "note": 63, "velocity": 114, "channel": 0}, {"type": "note_on", "time": 22, "note": 65, "velocity": 108, "channel": 0}, {"type": "note_off", "time": 367, "note": 65, "velocity": 108, "channel": 0}, {"type": "note_on", "time": 2285, "note": 61, "velocity": 115, "channel": 0}, {"type": "note_off", "time": 224, "note": 61, "velocity": 115, "channel": 0}, {"type": "note_on", "time": 16, "note": 62, "velocity": 116, "channel": 0}, {"type": "note_off", "time": 168, "note": 62, "velocity": 116, "channel": 0}, {"type": "note_on", "time": 7, "note": 65, "velocity": 113, "channel": 0}, {"type": "note_off", "time": 205, "note": 65, "velocity": 113, "channel": 0}, {"type": "note_on", "time": 31, "note": 62, "velocity": 112, "channel": 0}, {"type": "note_off", "time": 168, "note": 62, "velocity": 112, "channel": 0}, {"type": "note_on", "time": 8, "note": 63, "velocity": 114, "channel": 0}, {"type": "note_off", "time": 199, "note": 63, "velocity": 114, "channel": 0}, {"type": "note_on", "time": 26, "note": 65, "velocity": 111, "channel": 0}, {"type": "note_off", "time": 177, "note": 65, "velocity": 111, "channel": 0}, {"type": "note_on", "time": 19, "note": 67, "velocity": 101, "channel": 0}, {"type": "note_off", "time": 149, "note": 67, "velocity": 101, "channel": 0}, {"type": "note_on", "time": 106, "note": 69, "velocity": 114, "channel": 0}, {"type": "note_off", "time": 165, "note": 69, "velocity": 114, "channel": 0}, {"type": "note_on", "time": 30, "note": 71, "velocity": 113, "channel": 0}, {"type": "note_off", "time": 53, "note": 71, "velocity": 113, "channel": 0}, {"type": "note_on", "time": 8, "note": 70, "velocity": 112, "channel": 0}, {"type": "note_off", "time": 168, "note": 70, "velocity": 112, "channel": 0}, {"type": "note_on", "time": 11, "note": 69, "velocity": 115, "channel": 0}, {"type": "note_off", "time": 173, "note": 69, "velocity": 115, "channel": 0}, {"type": "note_on", "time": 10, "note": 67, "velocity": 108, "channel": 0}, {"type": "note_off", "time": 173, "note": 67, "velocity": 108, "channel": 0}, {"type": "note_on", "time": 32, "note": 66, "velocity": 113, "channel": 0}, {"type": "note_off", "time": 232, "note": 66, "velocity": 113, "channel": 0}, {"type": "note_on", "time": 23, "note": 65, "velocity": 114, "channel": 0}, {"type": "note_off", "time": 205, "note": 65, "velocity": 114, "channel": 0}, {"type": "note_on", "time": 25, "note": 63, "velocity": 116, "channel": 0}, {"type": "note_off", "time": 185, "note": 63, "velocity": 116, "channel": 0}, {"type": "note_on", "time": 6, "note": 62, "velocity": 111, "channel": 0}, {"type": "note_off", "time": 189, "note": 62, "velocity": 111, "channel": 0}, {"type": "note_on", "time": 51, "note": 60, "velocity": 107, "channel": 0}, {"type": "note_off", "time": 201, "note": 60, "velocity": 107, "channel": 0}, {"type": "note_on", "time": 171, "note": 58, "velocity": 102, "channel": 0}, {"type": "note_off", "time": 81, "note": 58, "velocity": 102, "channel": 0}, {"type": "note_on", "time": 23, "note": 60, "velocity": 103, "channel": 0}, {"type": "note_off", "time": 169, "note": 60, "velocity": 103, "channel": 0}, {"type": "note_on", "time": 27, "note": 62, "velocity": 98, "channel": 0}, {"type": "note_off", "time": 169, "note": 62, "velocity": 98, "channel": 0}, {"type": "note_on", "time": 96, "note": 67, "velocity": 106, "channel": 0}, {"type": "note_off", "time": 78, "note": 67, "velocity": 106, "channel": 0}, {"type": "note_on", "time": 9, "note": 70, "velocity": 111, "channel": 0}, {"type": "note_off", "time": 201, "note": 70, "velocity": 111, "channel": 0}, {"type": "note_on", "time": 31, "note": 74, "velocity": 109, "channel": 0}, {"type": "note_off", "time": 130, "note": 74, "velocity": 109, "channel": 0}, {"type": "note_on", "time": 35, "note": 68, "velocity": 109, "channel": 0}, {"type": "note_off", "time": 167, "note": 68, "velocity": 109, "channel": 0}, {"type": "note_on", "time": 72, "note": 72, "velocity": 105, "channel": 0}, {"type": "note_off", "time": 173, "note": 72, "velocity": 105, "channel": 0}, {"type": "note_on", "time": 3, "note": 70, "velocity": 106, "channel": 0}, {"type": "note_off", "time": 234, "note": 70, "velocity": 106, "channel": 0}, {"type": "note_on", "time": 61, "note": 66, "velocity": 110, "channel": 0}, {"type": "note_off", "time": 122, "note": 66, "velocity": 110, "channel": 0}, {"type": "note_on", "time": 17, "note": 62, "velocity": 112, "channel": 0}, {"type": "note_off", "time": 356, "note": 62, "velocity": 112, "channel": 0}, {"type": "note_on", "time": 122, "note": 66, "velocity": 112, "channel": 0}, {"type": "note_off", "time": 104, "note": 66, "velocity": 112, "channel": 0}, {"type": "note_on", "time": 9, "note": 67, "velocity": 109, "channel": 0}, {"type": "note_off", "time": 329, "note": 67, "velocity": 109, "channel": 0}, {"type": "note_on", "time": 1, "note": 70, "velocity": 106, "channel": 0}, {"type": "note_off", "time": 1525, "note": 70, "velocity": 106, "channel": 0}, {"type": "note_on", "time": 1983, "note": 68, "velocity": 117, "channel": 0}, {"type": "note_off", "time": 279, "note": 68, "velocity": 117, "channel": 0}, {"type": "note_on", "time": 15, "note": 67, "velocity": 116, "channel": 0}, {"type": "note_off", "time": 287, "note": 67, "velocity": 116, "channel": 0}, {"type": "note_on", "time": 249, "note": 62, "velocity": 108, "channel": 0}, {"type": "note_off", "time": 92, "note": 62, "velocity": 108, "channel": 0}, {"type": "note_on", "time": 16, "note": 67, "velocity": 111, "channel": 0}, {"type": "note_off", "time": 208, "note": 67, "velocity": 111, "channel": 0}, {"type": "note_on", "time": 9, "note": 65, "velocity": 115, "channel": 0}, {"type": "note_off", "time": 157, "note": 65, "velocity": 115, "channel": 0}, {"type": "note_on", "time": 14, "note": 63, "velocity": 113, "channel": 0}, {"type": "note_off", "time": 145, "note": 63, "velocity": 113, "channel": 0}, {"type": "note_on", "time": 82, "note": 60, "velocity": 108, "channel": 0}, {"type": "note_off", "time": 197, "note": 60, "velocity": 108, "channel": 0}, {"type": "note_on", "time": 55, "note": 56, "velocity": 113, "channel": 0}, {"type": "note_off", "time": 205, "note": 56, "velocity": 113, "channel": 0}, {"type": "note_on", "time": 23, "note": 53, "velocity": 99, "channel": 0}, {"type": "note_off", "time": 145, "note": 53, "velocity": 99, "channel": 0}, {"type": "note_on", "time": 3, "note": 62, "velocity": 113, "channel": 0}, {"type": "note_off", "time": 205, "note": 62, "velocity": 113, "channel": 0}, {"type": "note_on", "time": 27, "note": 60, "velocity": 107, "channel": 0}, {"type": "note_off", "time": 193, "note": 60, "velocity": 107, "channel": 0}, {"type": "note_on", "time": 11, "note": 58, "velocity": 107, "channel": 0}, {"type": "note_off", "time": 173, "note": 58, "velocity": 107, "channel": 0}, {"type": "note_on", "time": 31, "note": 56, "velocity": 113, "channel": 0}, {"type": "note_off", "time": 212, "note": 56, "velocity": 113, "channel": 0}, {"type": "note_on", "time": 51, "note": 51, "velocity": 96, "channel": 0}, {"type": "note_off", "time": 193, "note": 51, "velocity": 96, "channel": 0}, {"type": "note_on", "time": 7, "note": 53, "velocity": 110, "channel": 0}, {"type": "note_off", "time": 141, "note": 53, "velocity": 110, "channel": 0}, {"type": "note_on", "time": 23, "note": 55, "velocity": 113, "channel": 0}, {"type": "note_off", "time": 141, "note": 55, "velocity": 113, "channel": 0}, {"type": "note_on", "time": 19, "note": 56, "velocity": 109, "channel": 0}, {"type": "note_off", "time": 169, "note": 56, "velocity": 109, "channel": 0}, {"type": "note_on", "time": 47, "note": 58, "velocity": 99, "channel": 0}, {"type": "note_off", "time": 173, "note": 58, "velocity": 99, "channel": 0}, {"type": "note_on", "time": 47, "note": 60, "velocity": 109, "channel": 0}, {"type": "note_off", "time": 185, "note": 60, "velocity": 109, "channel": 0}, {"type": "note_on", "time": 23, "note": 62, "velocity": 109, "channel": 0}, {"type": "note_off", "time": 189, "note": 62, "velocity": 109, "channel": 0}, {"type": "note_on", "time": 15, "note": 63, "velocity": 117, "channel": 0}, {"type": "note_off", "time": 118, "note": 63, "velocity": 117, "channel": 0}, {"type": "note_on", "time": 31, "note": 65, "velocity": 109, "channel": 0}, {"type": "note_off", "time": 173, "note": 65, "velocity": 109, "channel": 0}, {"type": "note_on", "time": 7, "note": 67, "velocity": 107, "channel": 0}, {"type": "note_off", "time": 244, "note": 67, "velocity": 107, "channel": 0}, {"type": "note_on", "time": 27, "note": 63, "velocity": 120, "channel": 0}, {"type": "note_off", "time": 248, "note": 63, "velocity": 120, "channel": 0}, {"type": "note_on", "time": 579, "note": 59, "velocity": 101, "channel": 0}, {"type": "note_off", "time": 161, "note": 59, "velocity": 101, "channel": 0}, {"type": "note_on", "time": 35, "note": 56, "velocity": 104, "channel": 0}, {"type": "note_off", "time": 134, "note": 56, "velocity": 104, "channel": 0}, {"type": "note_on", "time": 7, "note": 68, "velocity": 108, "channel": 0}, {"type": "note_off", "time": 201, "note": 68, "velocity": 108, "channel": 0}, {"type": "note_on", "time": 39, "note": 70, "velocity": 92, "channel": 0}, {"type": "note_off", "time": 157, "note": 70, "velocity": 92, "channel": 0}, {"type": "note_on", "time": 15, "note": 67, "velocity": 98, "channel": 0}, {"type": "note_off", "time": 197, "note": 67, "velocity": 98, "channel": 0}, {"type": "note_on", "time": 11, "note": 68, "velocity": 96, "channel": 0}, {"type": "note_off", "time": 161, "note": 68, "velocity": 96, "channel": 0}, {"type": "note_on", "time": 7, "note": 64, "velocity": 106, "channel": 0}, {"type": "note_off", "time": 130, "note": 64, "velocity": 106, "channel": 0}, {"type": "note_on", "time": 23, "note": 66, "velocity": 102, "channel": 0}, {"type": "note_off", "time": 177, "note": 66, "velocity": 102, "channel": 0}, {"type": "note_on", "time": 54, "note": 69, "velocity": 112, "channel": 0}, {"type": "note_off", "time": 216, "note": 69, "velocity": 112, "channel": 0}, {"type": "note_on", "time": 38, "note": 73, "velocity": 118, "channel": 0}, {"type": "note_off", "time": 221, "note": 73, "velocity": 118, "channel": 0}, {"type": "note_on", "time": 36, "note": 71, "velocity": 107, "channel": 0}, {"type": "note_off", "time": 123, "note": 71, "velocity": 107, "channel": 0}, {"type": "note_on", "time": 64, "note": 69, "velocity": 113, "channel": 0}, {"type": "note_off", "time": 179, "note": 69, "velocity": 113, "channel": 0}, {"type": "note_on", "time": 14, "note": 68, "velocity": 114, "channel": 0}, {"type": "note_off", "time": 224, "note": 68, "velocity": 114, "channel": 0}, {"type": "note_on", "time": 50, "note": 66, "velocity": 108, "channel": 0}, {"type": "note_off", "time": 185, "note": 66, "velocity": 108, "channel": 0}, {"type": "note_on", "time": 28, "note": 64, "velocity": 115, "channel": 0}, {"type": "note_off", "time": 187, "note": 64, "velocity": 115, "channel": 0}, {"type": "note_on", "time": 70, "note": 59, "velocity": 99, "channel": 0}, {"type": "note_off", "time": 162, "note": 59, "velocity": 99, "channel": 0}, {"type": "note_on", "time": 16, "note": 58, "velocity": 98, "channel": 0}, {"type": "note_off", "time": 176, "note": 58, "velocity": 98, "channel": 0}, {"type": "note_on", "time": 64, "note": 68, "velocity": 111, "channel": 0}, {"type": "note_off", "time": 179, "note": 68, "velocity": 111, "channel": 0}, {"type": "note_on", "time": 28, "note": 67, "velocity": 106, "channel": 0}, {"type": "note_off", "time": 201, "note": 67, "velocity": 106, "channel": 0}, {"type": "note_on", "time": 53, "note": 62, "velocity": 109, "channel": 0}, {"type": "note_off", "time": 134, "note": 62, "velocity": 109, "channel": 0}, {"type": "note_on", "time": 19, "note": 65, "velocity": 110, "channel": 0}, {"type": "note_off", "time": 182, "note": 65, "velocity": 110, "channel": 0}, {"type": "note_on", "time": 39, "note": 62, "velocity": 109, "channel": 0}, {"type": "note_off", "time": 176, "note": 62, "velocity": 109, "channel": 0}, {"type": "note_on", "time": 28, "note": 63, "velocity": 109, "channel": 0}, {"type": "note_off", "time": 193, "note": 63, "velocity": 109, "channel": 0}, {"type": "note_on", "time": 14, "note": 65, "velocity": 102, "channel": 0}, {"type": "note_off", "time": 137, "note": 65, "velocity": 102, "channel": 0}, {"type": "note_on", "time": 16, "note": 67, "velocity": 107, "channel": 0}, {"type": "note_off", "time": 159, "note": 67, "velocity": 107, "channel": 0}, {"type": "note_on", "time": 11, "note": 68, "velocity": 110, "channel": 0}, {"type": "note_off", "time": 171, "note": 68, "velocity": 110, "channel": 0}, {"type": "note_on", "time": 28, "note": 66, "velocity": 103, "channel": 0}, {"type": "note_off", "time": 109, "note": 66, "velocity": 103, "channel": 0}, {"type": "note_on", "time": 19, "note": 66, "velocity": 100, "channel": 0}, {"type": "note_off", "time": 61, "note": 66, "velocity": 100, "channel": 0}, {"type": "note_on", "time": 2, "note": 65, "velocity": 112, "channel": 0}, {"type": "note_off", "time": 126, "note": 65, "velocity": 112, "channel": 0}, {"type": "note_on", "time": 8, "note": 64, "velocity": 110, "channel": 0}, {"type": "note_off", "time": 246, "note": 64, "velocity": 110, "channel": 0}, {"type": "note_on", "time": 70, "note": 60, "velocity": 103, "channel": 0}, {"type": "note_off", "time": 173, "note": 60, "velocity": 103, "channel": 0}, {"type": "note_on", "time": 14, "note": 64, "velocity": 114, "channel": 0}, {"type": "note_off", "time": 134, "note": 64, "velocity": 114, "channel": 0}, {"type": "note_on", "time": 42, "note": 67, "velocity": 106, "channel": 0}, {"type": "note_off", "time": 126, "note": 67, "velocity": 106, "channel": 0}, {"type": "note_on", "time": 30, "note": 65, "velocity": 106, "channel": 0}, {"type": "note_off", "time": 199, "note": 65, "velocity": 106, "channel": 0}, {"type": "note_on", "time": 78, "note": 71, "velocity": 105, "channel": 0}, {"type": "note_off", "time": 117, "note": 71, "velocity": 105, "channel": 0}, {"type": "note_on", "time": 16, "note": 68, "velocity": 109, "channel": 0}, {"type": "note_off", "time": 128, "note": 68, "velocity": 109, "channel": 0}, {"type": "note_on", "time": 19, "note": 64, "velocity": 107, "channel": 0}, {"type": "note_off", "time": 89, "note": 64, "velocity": 107, "channel": 0}, {"type": "note_on", "time": 36, "note": 60, "velocity": 90, "channel": 0}, {"type": "note_off", "time": 148, "note": 60, "velocity": 90, "channel": 0}, {"type": "note_on", "time": 39, "note": 64, "velocity": 115, "channel": 0}, {"type": "note_off", "time": 241, "note": 64, "velocity": 115, "channel": 0}, {"type": "note_on", "time": 109, "note": 60, "velocity": 95, "channel": 0}, {"type": "note_off", "time": 109, "note": 60, "velocity": 95, "channel": 0}, {"type": "note_on", "time": 14, "note": 63, "velocity": 111, "channel": 0}, {"type": "note_off", "time": 249, "note": 63, "velocity": 111, "channel": 0}, {"type": "note_on", "time": 16, "note": 67, "velocity": 108, "channel": 0}, {"type": "note_off", "time": 187, "note": 67, "velocity": 108, "channel": 0}, {"type": "note_on", "time": 28, "note": 65, "velocity": 106, "channel": 0}, {"type": "note_off", "time": 224, "note": 65, "velocity": 106, "channel": 0}, {"type": "note_on", "time": 36, "note": 67, "velocity": 103, "channel": 0}, {"type": "note_off", "time": 151, "note": 67, "velocity": 103, "channel": 0}, {"type": "note_on", "time": 25, "note": 68, "velocity": 113, "channel": 0}, {"type": "note_off", "time": 190, "note": 68, "velocity": 113, "channel": 0}, {"type": "note_on", "time": 14, "note": 65, "velocity": 101, "channel": 0}, {"type": "note_off", "time": 157, "note": 65, "velocity": 101, "channel": 0}, {"type": "note_on", "time": 25, "note": 70, "velocity": 107, "channel": 0}, {"type": "note_off", "time": 229, "note": 70, "velocity": 107, "channel": 0}, {"type": "note_on", "time": 28, "note": 65, "velocity": 108, "channel": 0}, {"type": "note_off", "time": 140, "note": 65, "velocity": 108, "channel": 0}, {"type": "note_on", "time": 11, "note": 62, "velocity": 113, "channel": 0}, {"type": "note_off", "time": 319, "note": 62, "velocity": 113, "channel": 0}, {"type": "note_on", "time": 33, "note": 58, "velocity": 93, "channel": 0}, {"type": "note_off", "time": 112, "note": 58, "velocity": 93, "channel": 0}, {"type": "note_on", "time": 8, "note": 67, "velocity": 107, "channel": 0}, {"type": "note_off", "time": 319, "note": 67, "velocity": 107, "channel": 0}, {"type": "note_on", "time": 179, "note": 69, "velocity": 101, "channel": 0}, {"type": "note_off", "time": 210, "note": 69, "velocity": 101, "channel": 0}, {"type": "note_on", "time": 218, "note": 60, "velocity": 100, "channel": 0}, {"type": "note_off", "time": 314, "note": 60, "velocity": 100, "channel": 0}, {"type": "note_on", "time": 79, "note": 63, "velocity": 109, "channel": 0}, {"type": "note_off", "time": 335, "note": 63, "velocity": 109, "channel": 0}, {"type": "note_on", "time": 2400, "note": 61, "velocity": 117, "channel": 0}, {"type": "note_off", "time": 201, "note": 61, "velocity": 117, "channel": 0}, {"type": "note_on", "time": 28, "note": 62, "velocity": 115, "channel": 0}, {"type": "note_off", "time": 207, "note": 62, "velocity": 115, "channel": 0}, {"type": "note_on", "time": 14, "note": 65, "velocity": 113, "channel": 0}, {"type": "note_off", "time": 213, "note": 65, "velocity": 113, "channel": 0}, {"type": "note_on", "time": 47, "note": 62, "velocity": 112, "channel": 0}, {"type": "note_off", "time": 168, "note": 62, "velocity": 112, "channel": 0}, {"type": "note_on", "time": 11, "note": 63, "velocity": 116, "channel": 0}, {"type": "note_off", "time": 201, "note": 63, "velocity": 116, "channel": 0}, {"type": "note_on", "time": 5, "note": 65, "velocity": 113, "channel": 0}, {"type": "note_off", "time": 137, "note": 65, "velocity": 113, "channel": 0}, {"type": "note_on", "time": 5, "note": 67, "velocity": 108, "channel": 0}, {"type": "note_off", "time": 112, "note": 67, "velocity": 108, "channel": 0}, {"type": "note_on", "time": 16, "note": 69, "velocity": 117, "channel": 0}, {"type": "note_off", "time": 123, "note": 69, "velocity": 117, "channel": 0}, {"type": "note_on", "time": 30, "note": 74, "velocity": 123, "channel": 0}, {"type": "note_off", "time": 171, "note": 74, "velocity": 123, "channel": 0}, {"type": "note_on", "time": 11, "note": 73, "velocity": 118, "channel": 0}, {"type": "note_off", "time": 487, "note": 73, "velocity": 118, "channel": 0}, {"type": "note_on", "time": 14, "note": 69, "velocity": 117, "channel": 0}, {"type": "note_off", "time": 92, "note": 69, "velocity": 117, "channel": 0}, {"type": "note_on", "time": 36, "note": 68, "velocity": 119, "channel": 0}, {"type": "note_off", "time": 171, "note": 68, "velocity": 119, "channel": 0}, {"type": "note_on", "time": 11, "note": 66, "velocity": 113, "channel": 0}, {"type": "note_off", "time": 112, "note": 66, "velocity": 113, "channel": 0}, {"type": "note_on", "time": 8, "note": 63, "velocity": 120, "channel": 0}, {"type": "note_off", "time": 218, "note": 63, "velocity": 120, "channel": 0}, {"type": "note_on", "time": 42, "note": 61, "velocity": 117, "channel": 0}, {"type": "note_off", "time": 238, "note": 61, "velocity": 117, "channel": 0}, {"type": "note_on", "time": 11, "note": 62, "velocity": 121, "channel": 0}, {"type": "note_off", "time": 726, "note": 62, "velocity": 121, "channel": 0}, {"type": "note_on", "time": 11, "note": 63, "velocity": 116, "channel": 0}, {"type": "note_off", "time": 72, "note": 63, "velocity": 116, "channel": 0}, {"type": "note_on", "time": 11, "note": 65, "velocity": 112, "channel": 0}, {"type": "note_off", "time": 106, "note": 65, "velocity": 112, "channel": 0}, {"type": "note_on", "time": 8, "note": 67, "velocity": 108, "channel": 0}, {"type": "note_off", "time": 70, "note": 67, "velocity": 108, "channel": 0}, {"type": "note_on", "time": 0, "note": 69, "velocity": 120, "channel": 0}, {"type": "note_off", "time": 126, "note": 69, "velocity": 120, "channel": 0}, {"type": "note_on", "time": 11, "note": 70, "velocity": 114, "channel": 0}, {"type": "note_off", "time": 1261, "note": 70, "velocity": 114, "channel": 0}, {"type": "note_on", "time": 1323, "note": 53, "velocity": 107, "channel": 0}, {"type": "note_off", "time": 90, "note": 53, "velocity": 107, "channel": 0}, {"type": "note_on", "time": 9, "note": 55, "velocity": 106, "channel": 0}, {"type": "note_off", "time": 114, "note": 55, "velocity": 106, "channel": 0}, {"type": "note_on", "time": 28, "note": 57, "velocity": 105, "channel": 0}, {"type": "note_off", "time": 117, "note": 57, "velocity": 105, "channel": 0}, {"type": "note_on", "time": 53, "note": 59, "velocity": 104, "channel": 0}, {"type": "note_off", "time": 126, "note": 59, "velocity": 104, "channel": 0}, {"type": "note_on", "time": 8, "note": 60, "velocity": 111, "channel": 0}, {"type": "note_off", "time": 154, "note": 60, "velocity": 111, "channel": 0}, {"type": "note_on", "time": 14, "note": 62, "velocity": 112, "channel": 0}, {"type": "note_off", "time": 81, "note": 62, "velocity": 112, "channel": 0}, {"type": "note_on", "time": 11, "note": 63, "velocity": 116, "channel": 0}, {"type": "note_off", "time": 128, "note": 63, "velocity": 116, "channel": 0}, {"type": "note_on", "time": 14, "note": 65, "velocity": 110, "channel": 0}, {"type": "note_off", "time": 154, "note": 65, "velocity": 110, "channel": 0}, {"type": "note_on", "time": 8, "note": 67, "velocity": 106, "channel": 0}, {"type": "note_off", "time": 100, "note": 67, "velocity": 106, "channel": 0}, {"type": "note_on", "time": 16, "note": 69, "velocity": 115, "channel": 0}, {"type": "note_off", "time": 142, "note": 69, "velocity": 115, "channel": 0}, {"type": "note_on", "time": 19, "note": 70, "velocity": 114, "channel": 0}, {"type": "note_off", "time": 159, "note": 70, "velocity": 114, "channel": 0}, {"type": "note_on", "time": 15, "note": 69, "velocity": 119, "channel": 0}, {"type": "note_off", "time": 652, "note": 69, "velocity": 119, "channel": 0}, {"type": "note_on", "time": 9, "note": 67, "velocity": 110, "channel": 0}, {"type": "note_off", "time": 270, "note": 67, "velocity": 110, "channel": 0}, {"type": "note_on", "time": 17, "note": 65, "velocity": 111, "channel": 0}, {"type": "note_off", "time": 1105, "note": 65, "velocity": 111, "channel": 0}, {"type": "note_on", "time": 27, "note": 64, "velocity": 110, "channel": 0}, {"type": "note_off", "time": 199, "note": 64, "velocity": 110, "channel": 0}, {"type": "note_on", "time": 19, "note": 65, "velocity": 104, "channel": 0}, {"type": "note_off", "time": 181, "note": 65, "velocity": 104, "channel": 0}, {"type": "note_on", "time": 19, "note": 67, "velocity": 103, "channel": 0}, {"type": "note_off", "time": 134, "note": 67, "velocity": 103, "channel": 0}, {"type": "note_on", "time": 5, "note": 69, "velocity": 115, "channel": 0}, {"type": "note_off", "time": 313, "note": 69, "velocity": 115, "channel": 0}, {"type": "note_on", "time": 2231, "note": 73, "velocity": 113, "channel": 0}, {"type": "note_off", "time": 120, "note": 73, "velocity": 113, "channel": 0}, {"type": "note_on", "time": 8, "note": 71, "velocity": 113, "channel": 0}, {"type": "note_off", "time": 162, "note": 71, "velocity": 113, "channel": 0}, {"type": "note_on", "time": 8, "note": 68, "velocity": 117, "channel": 0}, {"type": "note_off", "time": 210, "note": 68, "velocity": 117, "channel": 0}, {"type": "note_on", "time": 14, "note": 66, "velocity": 113, "channel": 0}, {"type": "note_off", "time": 154, "note": 66, "velocity": 113, "channel": 0}, {"type": "note_on", "time": 16, "note": 67, "velocity": 116, "channel": 0}, {"type": "note_off", "time": 182, "note": 67, "velocity": 116, "channel": 0}, {"type": "note_on", "time": 12, "note": 65, "velocity": 112, "channel": 0}, {"type": "note_off", "time": 238, "note": 65, "velocity": 112, "channel": 0}, {"type": "note_on", "time": 4, "note": 61, "velocity": 113, "channel": 0}, {"type": "note_off", "time": 145, "note": 61, "velocity": 113, "channel": 0}, {"type": "note_on", "time": 19, "note": 64, "velocity": 119, "channel": 0}, {"type": "note_off", "time": 224, "note": 64, "velocity": 119, "channel": 0}, {"type": "note_on", "time": 22, "note": 61, "velocity": 113, "channel": 0}, {"type": "note_off", "time": 159, "note": 61, "velocity": 113, "channel": 0}, {"type": "note_on", "time": 9, "note": 63, "velocity": 118, "channel": 0}, {"type": "note_off", "time": 244, "note": 63, "velocity": 118, "channel": 0}, {"type": "note_on", "time": 1302, "note": 62, "velocity": 116, "channel": 0}, {"type": "note_off", "time": 128, "note": 62, "velocity": 116, "channel": 0}, {"type": "note_on", "time": 11, "note": 63, "velocity": 117, "channel": 0}, {"type": "note_off", "time": 131, "note": 63, "velocity": 117, "channel": 0}, {"type": "note_on", "time": 25, "note": 65, "velocity": 113, "channel": 0}, {"type": "note_off", "time": 117, "note": 65, "velocity": 113, "channel": 0}, {"type": "note_on", "time": 5, "note": 66, "velocity": 110, "channel": 0}, {"type": "note_off", "time": 148, "note": 66, "velocity": 110, "channel": 0}, {"type": "note_on", "time": 5, "note": 67, "velocity": 111, "channel": 0}, {"type": "note_off", "time": 120, "note": 67, "velocity": 111, "channel": 0}, {"type": "note_on", "time": 12, "note": 66, "velocity": 112, "channel": 0}, {"type": "note_off", "time": 176, "note": 66, "velocity": 112, "channel": 0}, {"type": "note_on", "time": 8, "note": 65, "velocity": 112, "channel": 0}, {"type": "note_off", "time": 128, "note": 65, "velocity": 112, "channel": 0}, {"type": "note_on", "time": 8, "note": 63, "velocity": 118, "channel": 0}, {"type": "note_off", "time": 126, "note": 63, "velocity": 118, "channel": 0}, {"type": "note_on", "time": 9, "note": 62, "velocity": 114, "channel": 0}, {"type": "note_off", "time": 159, "note": 62, "velocity": 114, "channel": 0}, {"type": "note_on", "time": 17, "note": 60, "velocity": 108, "channel": 0}, {"type": "note_off", "time": 151, "note": 60, "velocity": 108, "channel": 0}, {"type": "note_on", "time": 12, "note": 59, "velocity": 102, "channel": 0}, {"type": "note_off", "time": 130, "note": 59, "velocity": 102, "channel": 0}, {"type": "note_on", "time": 17, "note": 56, "velocity": 113, "channel": 0}, {"type": "note_off", "time": 117, "note": 56, "velocity": 113, "channel": 0}, {"type": "note_on", "time": 10, "note": 55, "velocity": 111, "channel": 0}, {"type": "note_off", "time": 208, "note": 55, "velocity": 111, "channel": 0}, {"type": "note_on", "time": 922, "note": 55, "velocity": 108, "channel": 0}, {"type": "note_off", "time": 258, "note": 55, "velocity": 108, "channel": 0}, {"type": "note_on", "time": 7, "note": 57, "velocity": 109, "channel": 0}, {"type": "note_off", "time": 96, "note": 57, "velocity": 109, "channel": 0}, {"type": "note_on", "time": 7, "note": 59, "velocity": 100, "channel": 0}, {"type": "note_off", "time": 159, "note": 59, "velocity": 100, "channel": 0}, {"type": "note_on", "time": 47, "note": 62, "velocity": 112, "channel": 0}, {"type": "note_off", "time": 165, "note": 62, "velocity": 112, "channel": 0}, {"type": "note_on", "time": 25, "note": 60, "velocity": 107, "channel": 0}, {"type": "note_off", "time": 195, "note": 60, "velocity": 107, "channel": 0}, {"type": "note_on", "time": 23, "note": 62, "velocity": 112, "channel": 0}, {"type": "note_off", "time": 102, "note": 62, "velocity": 112, "channel": 0}, {"type": "note_on", "time": 5, "note": 63, "velocity": 114, "channel": 0}, {"type": "note_off", "time": 104, "note": 63, "velocity": 114, "channel": 0}, {"type": "note_on", "time": 15, "note": 65, "velocity": 112, "channel": 0}, {"type": "note_off", "time": 120, "note": 65, "velocity": 112, "channel": 0}, {"type": "note_on", "time": 11, "note": 66, "velocity": 109, "channel": 0}, {"type": "note_off", "time": 100, "note": 66, "velocity": 109, "channel": 0}, {"type": "note_on", "time": 15, "note": 69, "velocity": 115, "channel": 0}, {"type": "note_off", "time": 147, "note": 69, "velocity": 115, "channel": 0}, {"type": "note_on", "time": 11, "note": 68, "velocity": 113, "channel": 0}, {"type": "note_off", "time": 122, "note": 68, "velocity": 113, "channel": 0}, {"type": "note_on", "time": 33, "note": 67, "velocity": 108, "channel": 0}, {"type": "note_off", "time": 165, "note": 67, "velocity": 108, "channel": 0}, {"type": "note_on", "time": 10, "note": 65, "velocity": 111, "channel": 0}, {"type": "note_off", "time": 134, "note": 65, "velocity": 111, "channel": 0}, {"type": "note_on", "time": 14, "note": 64, "velocity": 114, "channel": 0}, {"type": "note_off", "time": 165, "note": 64, "velocity": 114, "channel": 0}, {"type": "note_on", "time": 8, "note": 63, "velocity": 114, "channel": 0}, {"type": "note_off", "time": 128, "note": 63, "velocity": 114, "channel": 0}, {"type": "note_on", "time": 23, "note": 62, "velocity": 110, "channel": 0}, {"type": "note_off", "time": 151, "note": 62, "velocity": 110, "channel": 0}, {"type": "note_on", "time": 9, "note": 60, "velocity": 105, "channel": 0}, {"type": "note_off", "time": 126, "note": 60, "velocity": 105, "channel": 0}, {"type": "note_on", "time": 5, "note": 58, "velocity": 102, "channel": 0}, {"type": "note_off", "time": 106, "note": 58, "velocity": 102, "channel": 0}, {"type": "note_on", "time": 22, "note": 57, "velocity": 109, "channel": 0}, {"type": "note_off", "time": 137, "note": 57, "velocity": 109, "channel": 0}, {"type": "note_on", "time": 7, "note": 55, "velocity": 106, "channel": 0}, {"type": "note_off", "time": 122, "note": 55, "velocity": 106, "channel": 0}, {"type": "note_on", "time": 13, "note": 53, "velocity": 110, "channel": 0}, {"type": "note_off", "time": 122, "note": 53, "velocity": 110, "channel": 0}, {"type": "note_on", "time": 5, "note": 51, "velocity": 110, "channel": 0}, {"type": "note_off", "time": 139, "note": 51, "velocity": 110, "channel": 0}, {"type": "note_on", "time": 11, "note": 49, "velocity": 110, "channel": 0}, {"type": "note_off", "time": 90, "note": 49, "velocity": 110, "channel": 0}, {"type": "note_on", "time": 5, "note": 47, "velocity": 114, "channel": 0}, {"type": "note_off", "time": 185, "note": 47, "velocity": 114, "channel": 0}, {"type": "note_on", "time": 7, "note": 46, "velocity": 116, "channel": 0}, {"type": "note_off", "time": 368, "note": 46, "velocity": 116, "channel": 0}, {"type": "note_on", "time": 2144, "note": 65, "velocity": 116, "channel": 0}, {"type": "note_off", "time": 114, "note": 65, "velocity": 116, "channel": 0}, {"type": "note_on", "time": 25, "note": 67, "velocity": 118, "channel": 0}, {"type": "note_off", "time": 151, "note": 67, "velocity": 118, "channel": 0}, {"type": "note_on", "time": 15, "note": 66, "velocity": 114, "channel": 0}, {"type": "note_off", "time": 173, "note": 66, "velocity": 114, "channel": 0}, {"type": "note_on", "time": 9, "note": 65, "velocity": 111, "channel": 0}, {"type": "note_off", "time": 153, "note": 65, "velocity": 111, "channel": 0}, {"type": "note_on", "time": 49, "note": 63, "velocity": 120, "channel": 0}, {"type": "note_off", "time": 220, "note": 63, "velocity": 120, "channel": 0}, {"type": "note_on", "time": 7, "note": 62, "velocity": 112, "channel": 0}, {"type": "note_off", "time": 214, "note": 62, "velocity": 112, "channel": 0}, {"type": "note_on", "time": 31, "note": 60, "velocity": 108, "channel": 0}, {"type": "note_off", "time": 163, "note": 60, "velocity": 108, "channel": 0}, {"type": "note_on", "time": 15, "note": 59, "velocity": 107, "channel": 0}, {"type": "note_off", "time": 141, "note": 59, "velocity": 107, "channel": 0}, {"type": "note_on", "time": 70, "note": 55, "velocity": 105, "channel": 0}, {"type": "note_off", "time": 157, "note": 55, "velocity": 105, "channel": 0}, {"type": "note_on", "time": 25, "note": 60, "velocity": 118, "channel": 0}, {"type": "note_off", "time": 203, "note": 60, "velocity": 118, "channel": 0}, {"type": "note_on", "time": 17, "note": 62, "velocity": 116, "channel": 0}, {"type": "note_off", "time": 222, "note": 62, "velocity": 116, "channel": 0}, {"type": "note_on", "time": 19, "note": 63, "velocity": 120, "channel": 0}, {"type": "note_off", "time": 151, "note": 63, "velocity": 120, "channel": 0}, {"type": "note_on", "time": 13, "note": 60, "velocity": 104, "channel": 0}, {"type": "note_off", "time": 165, "note": 60, "velocity": 104, "channel": 0}, {"type": "note_on", "time": 31, "note": 65, "velocity": 112, "channel": 0}, {"type": "note_off", "time": 193, "note": 65, "velocity": 112, "channel": 0}, {"type": "note_on", "time": 34, "note": 67, "velocity": 119, "channel": 0}, {"type": "note_off", "time": 235, "note": 67, "velocity": 119, "channel": 0}, {"type": "note_on", "time": 14, "note": 68, "velocity": 100, "channel": 0}, {"type": "note_off", "time": 100, "note": 68, "velocity": 100, "channel": 0}, {"type": "note_on", "time": 126, "note": 64, "velocity": 108, "channel": 0}, {"type": "note_off", "time": 106, "note": 64, "velocity": 108, "channel": 0}, {"type": "note_on", "time": 11, "note": 62, "velocity": 113, "channel": 0}, {"type": "note_off", "time": 242, "note": 62, "velocity": 113, "channel": 0}, {"type": "note_on", "time": 245, "note": 55, "velocity": 104, "channel": 0}, {"type": "note_off", "time": 86, "note": 55, "velocity": 104, "channel": 0}, {"type": "note_on", "time": 28, "note": 56, "velocity": 113, "channel": 0}, {"type": "note_off", "time": 103, "note": 56, "velocity": 113, "channel": 0}, {"type": "note_on", "time": 145, "note": 60, "velocity": 107, "channel": 0}, {"type": "note_off", "time": 148, "note": 60, "velocity": 107, "channel": 0}, {"type": "note_on", "time": 72, "note": 55, "velocity": 108, "channel": 0}, {"type": "note_off", "time": 162, "note": 55, "velocity": 108, "channel": 0}, {"type": "note_on", "time": 232, "note": 62, "velocity": 104, "channel": 0}, {"type": "note_off", "time": 75, "note": 62, "velocity": 104, "channel": 0}, {"type": "note_on", "time": 22, "note": 64, "velocity": 107, "channel": 0}, {"type": "note_off", "time": 98, "note": 64, "velocity": 107, "channel": 0}, {"type": "note_on", "time": 28, "note": 68, "velocity": 111, "channel": 0}, {"type": "note_off", "time": 123, "note": 68, "velocity": 111, "channel": 0}, {"type": "note_on", "time": 14, "note": 72, "velocity": 115, "channel": 0}, {"type": "note_off", "time": 210, "note": 72, "velocity": 115, "channel": 0}, {"type": "note_on", "time": 8, "note": 69, "velocity": 104, "channel": 0}, {"type": "note_off", "time": 207, "note": 69, "velocity": 104, "channel": 0}, {"type": "note_on", "time": 56, "note": 70, "velocity": 109, "channel": 0}, {"type": "note_off", "time": 162, "note": 70, "velocity": 109, "channel": 0}, {"type": "note_on", "time": 2, "note": 71, "velocity": 110, "channel": 0}, {"type": "note_off", "time": 64, "note": 71, "velocity": 110, "channel": 0}, {"type": "note_on", "time": 14, "note": 72, "velocity": 116, "channel": 0}, {"type": "note_off", "time": 117, "note": 72, "velocity": 116, "channel": 0}, {"type": "note_on", "time": 8, "note": 74, "velocity": 114, "channel": 0}, {"type": "note_off", "time": 207, "note": 74, "velocity": 114, "channel": 0}, {"type": "note_on", "time": 2, "note": 73, "velocity": 115, "channel": 0}, {"type": "note_off", "time": 98, "note": 73, "velocity": 115, "channel": 0}, {"type": "note_on", "time": 14, "note": 70, "velocity": 108, "channel": 0}, {"type": "note_off", "time": 179, "note": 70, "velocity": 108, "channel": 0}, {"type": "note_on", "time": 19, "note": 67, "velocity": 99, "channel": 0}, {"type": "note_off", "time": 190, "note": 67, "velocity": 99, "channel": 0}, {"type": "note_on", "time": 25, "note": 71, "velocity": 114, "channel": 0}, {"type": "note_off", "time": 173, "note": 71, "velocity": 114, "channel": 0}, {"type": "note_on", "time": 22, "note": 72, "velocity": 111, "channel": 0}, {"type": "note_off", "time": 171, "note": 72, "velocity": 111, "channel": 0}, {"type": "note_on", "time": 25, "note": 69, "velocity": 110, "channel": 0}, {"type": "note_off", "time": 190, "note": 69, "velocity": 110, "channel": 0}, {"type": "note_on", "time": 67, "note": 63, "velocity": 114, "channel": 0}, {"type": "note_off", "time": 145, "note": 63, "velocity": 114, "channel": 0}, {"type": "note_on", "time": 14, "note": 60, "velocity": 101, "channel": 0}, {"type": "note_off", "time": 112, "note": 60, "velocity": 101, "channel": 0}, {"type": "note_on", "time": 2, "note": 63, "velocity": 105, "channel": 0}, {"type": "note_off", "time": 148, "note": 63, "velocity": 105, "channel": 0}, {"type": "note_on", "time": 19, "note": 67, "velocity": 108, "channel": 0}, {"type": "note_off", "time": 112, "note": 67, "velocity": 108, "channel": 0}, {"type": "note_on", "time": 0, "note": 70, "velocity": 106, "channel": 0}, {"type": "note_off", "time": 112, "note": 70, "velocity": 106, "channel": 0}, {"type": "note_on", "time": 11, "note": 69, "velocity": 111, "channel": 0}, {"type": "note_off", "time": 179, "note": 69, "velocity": 111, "channel": 0}, {"type": "note_on", "time": 2, "note": 67, "velocity": 100, "channel": 0}, {"type": "note_off", "time": 241, "note": 67, "velocity": 100, "channel": 0}, {"type": "note_on", "time": 19, "note": 66, "velocity": 95, "channel": 0}, {"type": "note_off", "time": 196, "note": 66, "velocity": 95, "channel": 0}, {"type": "note_on", "time": 16, "note": 67, "velocity": 98, "channel": 0}, {"type": "note_off", "time": 210, "note": 67, "velocity": 98, "channel": 0}, {"type": "note_on", "time": 22, "note": 63, "velocity": 117, "channel": 0}, {"type": "note_off", "time": 185, "note": 63, "velocity": 117, "channel": 0}, {"type": "note_on", "time": 47, "note": 60, "velocity": 103, "channel": 0}, {"type": "note_off", "time": 151, "note": 60, "velocity": 103, "channel": 0}, {"type": "note_on", "time": 30, "note": 65, "velocity": 109, "channel": 0}, {"type": "note_off", "time": 154, "note": 65, "velocity": 109, "channel": 0}, {"type": "note_on", "time": 28, "note": 61, "velocity": 115, "channel": 0}, {"type": "note_off", "time": 176, "note": 61, "velocity": 115, "channel": 0}, {"type": "note_on", "time": 5, "note": 57, "velocity": 103, "channel": 0}, {"type": "note_off", "time": 137, "note": 57, "velocity": 103, "channel": 0}, {"type": "note_on", "time": 0, "note": 53, "velocity": 104, "channel": 0}, {"type": "note_off", "time": 173, "note": 53, "velocity": 104, "channel": 0}, {"type": "note_on", "time": 42, "note": 60, "velocity": 111, "channel": 0}, {"type": "note_on", "time": 126, "note": 62, "velocity": 115, "channel": 0}, {"type": "note_off", "time": 0, "note": 60, "velocity": 111, "channel": 0}, {"type": "note_off", "time": 440, "note": 62, "velocity": 115, "channel": 0}, {"type": "note_on", "time": 8, "note": 63, "velocity": 115, "channel": 0}, {"type": "note_off", "time": 100, "note": 63, "velocity": 115, "channel": 0}, {"type": "note_on", "time": 5, "note": 65, "velocity": 109, "channel": 0}, {"type": "note_off", "time": 134, "note": 65, "velocity": 109, "channel": 0}, {"type": "note_on", "time": 5, "note": 67, "velocity": 105, "channel": 0}, {"type": "note_off", "time": 117, "note": 67, "velocity": 105, "channel": 0}, {"type": "note_on", "time": 5, "note": 69, "velocity": 111, "channel": 0}, {"type": "note_off", "time": 72, "note": 69, "velocity": 111, "channel": 0}, {"type": "note_on", "time": 2, "note": 71, "velocity": 109, "channel": 0}, {"type": "note_off", "time": 64, "note": 71, "velocity": 109, "channel": 0}, {"type": "note_on", "time": 5, "note": 70, "velocity": 108, "channel": 0}, {"type": "note_off", "time": 112, "note": 70, "velocity": 108, "channel": 0}, {"type": "note_on", "time": 5, "note": 71, "velocity": 108, "channel": 0}, {"type": "note_off", "time": 78, "note": 71, "velocity": 108, "channel": 0}, {"type": "note_on", "time": 19, "note": 69, "velocity": 114, "channel": 0}, {"type": "note_off", "time": 344, "note": 69, "velocity": 114, "channel": 0}, {"type": "note_on", "time": 2022, "note": 74, "velocity": 117, "channel": 0}, {"type": "note_off", "time": 611, "note": 74, "velocity": 117, "channel": 0}, {"type": "note_on", "time": 105, "note": 66, "velocity": 111, "channel": 0}, {"type": "note_off", "time": 93, "note": 66, "velocity": 111, "channel": 0}, {"type": "note_on", "time": 57, "note": 62, "velocity": 114, "channel": 0}, {"type": "note_off", "time": 128, "note": 62, "velocity": 114, "channel": 0}, {"type": "note_on", "time": 8, "note": 65, "velocity": 110, "channel": 0}, {"type": "note_off", "time": 193, "note": 65, "velocity": 110, "channel": 0}, {"type": "note_on", "time": 42, "note": 62, "velocity": 107, "channel": 0}, {"type": "note_off", "time": 136, "note": 62, "velocity": 107, "channel": 0}, {"type": "note_on", "time": 38, "note": 65, "velocity": 114, "channel": 0}, {"type": "note_off", "time": 147, "note": 65, "velocity": 114, "channel": 0}, {"type": "note_on", "time": 31, "note": 62, "velocity": 108, "channel": 0}, {"type": "note_off", "time": 120, "note": 62, "velocity": 108, "channel": 0}, {"type": "note_on", "time": 21, "note": 64, "velocity": 115, "channel": 0}, {"type": "note_off", "time": 277, "note": 64, "velocity": 115, "channel": 0}, {"type": "note_on", "time": 98, "note": 72, "velocity": 102, "channel": 0}, {"type": "note_off", "time": 112, "note": 72, "velocity": 102, "channel": 0}, {"type": "note_on", "time": 21, "note": 68, "velocity": 113, "channel": 0}, {"type": "note_off", "time": 104, "note": 68, "velocity": 113, "channel": 0}, {"type": "note_on", "time": 23, "note": 66, "velocity": 112, "channel": 0}, {"type": "note_off", "time": 108, "note": 66, "velocity": 112, "channel": 0}, {"type": "note_on", "time": 13, "note": 61, "velocity": 98, "channel": 0}, {"type": "note_off", "time": 155, "note": 61, "velocity": 98, "channel": 0}, {"type": "note_on", "time": 21, "note": 65, "velocity": 111, "channel": 0}, {"type": "note_off", "time": 171, "note": 65, "velocity": 111, "channel": 0}, {"type": "note_on", "time": 45, "note": 61, "velocity": 108, "channel": 0}, {"type": "note_off", "time": 122, "note": 61, "velocity": 108, "channel": 0}, {"type": "note_on", "time": 7, "note": 64, "velocity": 116, "channel": 0}, {"type": "note_off", "time": 208, "note": 64, "velocity": 116, "channel": 0}, {"type": "note_on", "time": 29, "note": 61, "velocity": 115, "channel": 0}, {"type": "note_off", "time": 155, "note": 61, "velocity": 115, "channel": 0}, {"type": "note_on", "time": 17, "note": 63, "velocity": 112, "channel": 0}, {"type": "note_off", "time": 222, "note": 63, "velocity": 112, "channel": 0}, {"type": "note_on", "time": 1784, "note": 72, "velocity": 119, "channel": 0}, {"type": "note_off", "time": 222, "note": 72, "velocity": 119, "channel": 0}, {"type": "note_on", "time": 9, "note": 68, "velocity": 109, "channel": 0}, {"type": "note_off", "time": 165, "note": 68, "velocity": 109, "channel": 0}, {"type": "note_on", "time": 21, "note": 71, "velocity": 116, "channel": 0}, {"type": "note_off", "time": 171, "note": 71, "velocity": 116, "channel": 0}, {"type": "note_on", "time": 17, "note": 68, "velocity": 118, "channel": 0}, {"type": "note_off", "time": 215, "note": 68, "velocity": 118, "channel": 0}, {"type": "note_on", "time": 14, "note": 64, "velocity": 112, "channel": 0}, {"type": "note_off", "time": 224, "note": 64, "velocity": 112, "channel": 0}, {"type": "note_on", "time": 27, "note": 61, "velocity": 118, "channel": 0}, {"type": "note_off", "time": 203, "note": 61, "velocity": 118, "channel": 0}, {"type": "note_on", "time": 9, "note": 62, "velocity": 107, "channel": 0}, {"type": "note_off", "time": 106, "note": 62, "velocity": 107, "channel": 0}, {"type": "note_on", "time": 21, "note": 64, "velocity": 112, "channel": 0}, {"type": "note_off", "time": 100, "note": 64, "velocity": 112, "channel": 0}, {"type": "note_on", "time": 59, "note": 70, "velocity": 115, "channel": 0}, {"type": "note_off", "time": 157, "note": 70, "velocity": 115, "channel": 0}, {"type": "note_on", "time": 13, "note": 69, "velocity": 115, "channel": 0}, {"type": "note_off", "time": 185, "note": 69, "velocity": 115, "channel": 0}, {"type": "note_on", "time": 13, "note": 67, "velocity": 109, "channel": 0}, {"type": "note_off", "time": 185, "note": 67, "velocity": 109, "channel": 0}, {"type": "note_on", "time": 13, "note": 65, "velocity": 114, "channel": 0}, {"type": "note_off", "time": 161, "note": 65, "velocity": 114, "channel": 0}, {"type": "note_on", "time": 19, "note": 62, "velocity": 114, "channel": 0}, {"type": "note_off", "time": 173, "note": 62, "velocity": 114, "channel": 0}, {"type": "note_on", "time": 11, "note": 63, "velocity": 116, "channel": 0}, {"type": "note_off", "time": 246, "note": 63, "velocity": 116, "channel": 0}, {"type": "note_on", "time": 11, "note": 65, "velocity": 108, "channel": 0}, {"type": "note_off", "time": 147, "note": 65, "velocity": 108, "channel": 0}, {"type": "note_on", "time": 226, "note": 68, "velocity": 108, "channel": 0}, {"type": "note_off", "time": 98, "note": 68, "velocity": 108, "channel": 0}, {"type": "note_on", "time": 78, "note": 74, "velocity": 115, "channel": 0}, {"type": "note_off", "time": 199, "note": 74, "velocity": 115, "channel": 0}, {"type": "note_on", "time": 13, "note": 77, "velocity": 104, "channel": 0}, {"type": "note_off", "time": 548, "note": 77, "velocity": 104, "channel": 0}, {"type": "note_on", "time": 3, "note": 73, "velocity": 98, "channel": 0}, {"type": "note_off", "time": 49, "note": 73, "velocity": 98, "channel": 0}, {"type": "note_on", "time": 7, "note": 70, "velocity": 109, "channel": 0}, {"type": "note_off", "time": 57, "note": 70, "velocity": 109, "channel": 0}, {"type": "note_on", "time": 9, "note": 68, "velocity": 110, "channel": 0}, {"type": "note_off", "time": 90, "note": 68, "velocity": 110, "channel": 0}, {"type": "note_on", "time": 21, "note": 66, "velocity": 114, "channel": 0}, {"type": "note_off", "time": 167, "note": 66, "velocity": 114, "channel": 0}, {"type": "note_on", "time": 17, "note": 63, "velocity": 112, "channel": 0}, {"type": "note_off", "time": 364, "note": 63, "velocity": 112, "channel": 0}, {"type": "note_on", "time": 550, "note": 61, "velocity": 112, "channel": 0}, {"type": "note_off", "time": 126, "note": 61, "velocity": 112, "channel": 0}, {"type": "note_on", "time": 14, "note": 62, "velocity": 104, "channel": 0}, {"type": "note_off", "time": 187, "note": 62, "velocity": 104, "channel": 0}, {"type": "note_on", "time": 19, "note": 65, "velocity": 101, "channel": 0}, {"type": "note_off", "time": 89, "note": 65, "velocity": 101, "channel": 0}, {"type": "note_on", "time": 22, "note": 69, "velocity": 95, "channel": 0}, {"type": "note_off", "time": 92, "note": 69, "velocity": 95, "channel": 0}, {"type": "note_on", "time": 22, "note": 72, "velocity": 114, "channel": 0}, {"type": "note_off", "time": 266, "note": 72, "velocity": 114, "channel": 0}, {"type": "note_on", "time": 2, "note": 75, "velocity": 101, "channel": 0}, {"type": "note_off", "time": 291, "note": 75, "velocity": 101, "channel": 0}, {"type": "note_on", "time": 11, "note": 71, "velocity": 113, "channel": 0}, {"type": "note_off", "time": 114, "note": 71, "velocity": 113, "channel": 0}, {"type": "note_on", "time": 14, "note": 68, "velocity": 114, "channel": 0}, {"type": "note_off", "time": 134, "note": 68, "velocity": 114, "channel": 0}, {"type": "note_on", "time": 16, "note": 65, "velocity": 111, "channel": 0}, {"type": "note_off", "time": 117, "note": 65, "velocity": 111, "channel": 0}, {"type": "note_on", "time": 16, "note": 74, "velocity": 112, "channel": 0}, {"type": "note_off", "time": 185, "note": 74, "velocity": 112, "channel": 0}, {"type": "note_on", "time": 30, "note": 70, "velocity": 109, "channel": 0}, {"type": "note_off", "time": 117, "note": 70, "velocity": 109, "channel": 0}, {"type": "note_on", "time": 2, "note": 67, "velocity": 106, "channel": 0}, {"type": "note_off", "time": 81, "note": 67, "velocity": 106, "channel": 0}, {"type": "note_on", "time": 5, "note": 64, "velocity": 116, "channel": 0}, {"type": "note_off", "time": 285, "note": 64, "velocity": 116, "channel": 0}, {"type": "note_on", "time": 740, "note": 72, "velocity": 107, "channel": 0}, {"type": "note_off", "time": 86, "note": 72, "velocity": 107, "channel": 0}, {"type": "note_on", "time": 8, "note": 73, "velocity": 121, "channel": 0}, {"type": "note_off", "time": 142, "note": 73, "velocity": 121, "channel": 0}, {"type": "note_on", "time": 22, "note": 72, "velocity": 105, "channel": 0}, {"type": "note_off", "time": 159, "note": 72, "velocity": 105, "channel": 0}, {"type": "note_on", "time": 5, "note": 71, "velocity": 114, "channel": 0}, {"type": "note_off", "time": 157, "note": 71, "velocity": 114, "channel": 0}, {"type": "note_on", "time": 28, "note": 69, "velocity": 114, "channel": 0}, {"type": "note_off", "time": 238, "note": 69, "velocity": 114, "channel": 0}, {"type": "note_on", "time": 14, "note": 68, "velocity": 108, "channel": 0}, {"type": "note_off", "time": 199, "note": 68, "velocity": 108, "channel": 0}, {"type": "note_on", "time": 14, "note": 66, "velocity": 112, "channel": 0}, {"type": "note_off", "time": 171, "note": 66, "velocity": 112, "channel": 0}, {"type": "note_on", "time": 16, "note": 65, "velocity": 113, "channel": 0}, {"type": "note_off", "time": 197, "note": 65, "velocity": 113, "channel": 0}, {"type": "note_on", "time": 5, "note": 62, "velocity": 114, "channel": 0}, {"type": "note_off", "time": 208, "note": 62, "velocity": 114, "channel": 0}, {"type": "note_on", "time": 5, "note": 63, "velocity": 114, "channel": 0}, {"type": "note_off", "time": 70, "note": 63, "velocity": 114, "channel": 0}, {"type": "note_on", "time": 8, "note": 65, "velocity": 111, "channel": 0}, {"type": "note_off", "time": 109, "note": 65, "velocity": 111, "channel": 0}, {"type": "note_on", "time": 30, "note": 63, "velocity": 118, "channel": 0}, {"type": "note_off", "time": 187, "note": 63, "velocity": 118, "channel": 0}, {"type": "note_on", "time": 19, "note": 62, "velocity": 109, "channel": 0}, {"type": "note_off", "time": 165, "note": 62, "velocity": 109, "channel": 0}, {"type": "note_on", "time": 19, "note": 60, "velocity": 108, "channel": 0}, {"type": "note_off", "time": 266, "note": 60, "velocity": 108, "channel": 0}, {"type": "note_on", "time": 11, "note": 58, "velocity": 99, "channel": 0}, {"type": "note_off", "time": 157, "note": 58, "velocity": 99, "channel": 0}, {"type": "note_on", "time": 2, "note": 60, "velocity": 105, "channel": 0}, {"type": "note_off", "time": 246, "note": 60, "velocity": 105, "channel": 0}, {"type": "note_on", "time": 39, "note": 62, "velocity": 100, "channel": 0}, {"type": "note_off", "time": 134, "note": 62, "velocity": 100, "channel": 0}, {"type": "note_on", "time": 11, "note": 65, "velocity": 97, "channel": 0}, {"type": "note_off", "time": 100, "note": 65, "velocity": 97, "channel": 0}, {"type": "note_on", "time": 75, "note": 70, "velocity": 109, "channel": 0}, {"type": "note_off", "time": 1777, "note": 70, "velocity": 109, "channel": 0}, {"type": "note_on", "time": 53, "note": 69, "velocity": 106, "channel": 0}, {"type": "note_off", "time": 148, "note": 69, "velocity": 106, "channel": 0}, {"type": "note_on", "time": 16, "note": 72, "velocity": 111, "channel": 0}, {"type": "note_off", "time": 179, "note": 72, "velocity": 111, "channel": 0}, {"type": "note_on", "time": 8, "note": 70, "velocity": 114, "channel": 0}, {"type": "note_off", "time": 151, "note": 70, "velocity": 114, "channel": 0}, {"type": "note_on", "time": 11, "note": 65, "velocity": 112, "channel": 0}, {"type": "note_off", "time": 103, "note": 65, "velocity": 112, "channel": 0}, {"type": "note_on", "time": 16, "note": 64, "velocity": 115, "channel": 0}, {"type": "note_off", "time": 168, "note": 64, "velocity": 115, "channel": 0}, {"type": "note_on", "time": 30, "note": 67, "velocity": 113, "channel": 0}, {"type": "note_off", "time": 112, "note": 67, "velocity": 113, "channel": 0}, {"type": "note_on", "time": 8, "note": 65, "velocity": 112, "channel": 0}, {"type": "note_off", "time": 55, "note": 65, "velocity": 112, "channel": 0}, {"type": "note_on", "time": 3, "note": 62, "velocity": 112, "channel": 0}, {"type": "note_off", "time": 134, "note": 62, "velocity": 112, "channel": 0}, {"type": "note_on", "time": 3, "note": 61, "velocity": 113, "channel": 0}, {"type": "note_off", "time": 76, "note": 61, "velocity": 113, "channel": 0}, {"type": "note_on", "time": 3, "note": 63, "velocity": 112, "channel": 0}, {"type": "note_off", "time": 163, "note": 63, "velocity": 112, "channel": 0}, {"type": "note_on", "time": 4, "note": 62, "velocity": 104, "channel": 0}, {"type": "note_off", "time": 189, "note": 62, "velocity": 104, "channel": 0}, {"type": "note_on", "time": 18, "note": 58, "velocity": 100, "channel": 0}, {"type": "note_off", "time": 92, "note": 58, "velocity": 100, "channel": 0}, {"type": "note_on", "time": 21, "note": 57, "velocity": 108, "channel": 0}, {"type": "note_off", "time": 98, "note": 57, "velocity": 108, "channel": 0}, {"type": "note_on", "time": 17, "note": 60, "velocity": 105, "channel": 0}, {"type": "note_off", "time": 106, "note": 60, "velocity": 105, "channel": 0}, {"type": "note_on", "time": 15, "note": 58, "velocity": 102, "channel": 0}, {"type": "note_off", "time": 92, "note": 58, "velocity": 102, "channel": 0}, {"type": "note_on", "time": 47, "note": 52, "velocity": 112, "channel": 0}, {"type": "note_off", "time": 162, "note": 52, "velocity": 112, "channel": 0}, {"type": "note_on", "time": 18, "note": 54, "velocity": 107, "channel": 0}, {"type": "note_off", "time": 92, "note": 54, "velocity": 107, "channel": 0}, {"type": "note_on", "time": 17, "note": 53, "velocity": 109, "channel": 0}, {"type": "note_off", "time": 74, "note": 53, "velocity": 109, "channel": 0}, {"type": "note_on", "time": 17, "note": 50, "velocity": 107, "channel": 0}, {"type": "note_off", "time": 106, "note": 50, "velocity": 107, "channel": 0}, {"type": "note_on", "time": 9, "note": 49, "velocity": 107, "channel": 0}, {"type": "note_off", "time": 100, "note": 49, "velocity": 107, "channel": 0}, {"type": "note_on", "time": 0, "note": 51, "velocity": 107, "channel": 0}, {"type": "note_off", "time": 104, "note": 51, "velocity": 107, "channel": 0}, {"type": "note_on", "time": 1, "note": 50, "velocity": 102, "channel": 0}, {"type": "note_off", "time": 136, "note": 50, "velocity": 102, "channel": 0}, {"type": "note_on", "time": 1242, "note": 49, "velocity": 117, "channel": 0}, {"type": "note_off", "time": 106, "note": 49, "velocity": 117, "channel": 0}, {"type": "note_on", "time": 7, "note": 50, "velocity": 109, "channel": 0}, {"type": "note_off", "time": 88, "note": 50, "velocity": 109, "channel": 0}, {"type": "note_on", "time": 0, "note": 53, "velocity": 110, "channel": 0}, {"type": "note_off", "time": 112, "note": 53, "velocity": 110, "channel": 0}, {"type": "note_on", "time": 15, "note": 55, "velocity": 104, "channel": 0}, {"type": "note_off", "time": 120, "note": 55, "velocity": 104, "channel": 0}, {"type": "note_on", "time": 9, "note": 56, "velocity": 107, "channel": 0}, {"type": "note_off", "time": 88, "note": 56, "velocity": 107, "channel": 0}, {"type": "note_on", "time": 23, "note": 58, "velocity": 101, "channel": 0}, {"type": "note_off", "time": 116, "note": 58, "velocity": 101, "channel": 0}, {"type": "note_on", "time": 23, "note": 60, "velocity": 107, "channel": 0}, {"type": "note_off", "time": 163, "note": 60, "velocity": 107, "channel": 0}, {"type": "note_on", "time": 7, "note": 61, "velocity": 113, "channel": 0}, {"type": "note_off", "time": 139, "note": 61, "velocity": 113, "channel": 0}, {"type": "note_on", "time": 23, "note": 62, "velocity": 112, "channel": 0}, {"type": "note_off", "time": 155, "note": 62, "velocity": 112, "channel": 0}, {"type": "note_on", "time": 17, "note": 65, "velocity": 110, "channel": 0}, {"type": "note_off", "time": 63, "note": 65, "velocity": 110, "channel": 0}, {"type": "note_on", "time": 7, "note": 67, "velocity": 112, "channel": 0}, {"type": "note_off", "time": 114, "note": 67, "velocity": 112, "channel": 0}, {"type": "note_on", "time": 29, "note": 66, "velocity": 114, "channel": 0}, {"type": "note_off", "time": 214, "note": 66, "velocity": 114, "channel": 0}, {"type": "note_on", "time": 13, "note": 63, "velocity": 115, "channel": 0}, {"type": "note_off", "time": 141, "note": 63, "velocity": 115, "channel": 0}, {"type": "note_on", "time": 9, "note": 62, "velocity": 112, "channel": 0}, {"type": "note_off", "time": 165, "note": 62, "velocity": 112, "channel": 0}, {"type": "note_on", "time": 27, "note": 65, "velocity": 107, "channel": 0}, {"type": "note_off", "time": 161, "note": 65, "velocity": 107, "channel": 0}, {"type": "note_on", "time": 13, "note": 67, "velocity": 99, "channel": 0}, {"type": "note_off", "time": 84, "note": 67, "velocity": 99, "channel": 0}, {"type": "note_on", "time": 15, "note": 68, "velocity": 106, "channel": 0}, {"type": "note_off", "time": 102, "note": 68, "velocity": 106, "channel": 0}, {"type": "note_on", "time": 9, "note": 72, "velocity": 113, "channel": 0}, {"type": "note_off", "time": 136, "note": 72, "velocity": 113, "channel": 0}, {"type": "note_on", "time": 3, "note": 69, "velocity": 107, "channel": 0}, {"type": "note_off", "time": 207, "note": 69, "velocity": 107, "channel": 0}, {"type": "note_on", "time": 7, "note": 71, "velocity": 118, "channel": 0}, {"type": "note_off", "time": 155, "note": 71, "velocity": 118, "channel": 0}, {"type": "note_on", "time": 0, "note": 68, "velocity": 116, "channel": 0}, {"type": "note_off", "time": 201, "note": 68, "velocity": 116, "channel": 0}, {"type": "note_on", "time": 17, "note": 64, "velocity": 116, "channel": 0}, {"type": "note_off", "time": 185, "note": 64, "velocity": 116, "channel": 0}, {"type": "note_on", "time": 15, "note": 61, "velocity": 109, "channel": 0}, {"type": "note_off", "time": 183, "note": 61, "velocity": 109, "channel": 0}, {"type": "note_on", "time": 3, "note": 64, "velocity": 100, "channel": 0}, {"type": "note_off", "time": 167, "note": 64, "velocity": 100, "channel": 0}, {"type": "note_on", "time": 37, "note": 68, "velocity": 107, "channel": 0}, {"type": "note_off", "time": 72, "note": 68, "velocity": 107, "channel": 0}, {"type": "note_on", "time": 9, "note": 71, "velocity": 118, "channel": 0}, {"type": "note_off", "time": 157, "note": 71, "velocity": 118, "channel": 0}, {"type": "note_on", "time": 5, "note": 69, "velocity": 112, "channel": 0}, {"type": "note_off", "time": 108, "note": 69, "velocity": 112, "channel": 0}, {"type": "note_on", "time": 11, "note": 68, "velocity": 114, "channel": 0}, {"type": "note_off", "time": 122, "note": 68, "velocity": 114, "channel": 0}, {"type": "note_on", "time": 21, "note": 68, "velocity": 114, "channel": 0}, {"type": "note_off", "time": 139, "note": 68, "velocity": 114, "channel": 0}, {"type": "note_on", "time": 23, "note": 66, "velocity": 108, "channel": 0}, {"type": "note_off", "time": 175, "note": 66, "velocity": 108, "channel": 0}, {"type": "note_on", "time": 49, "note": 61, "velocity": 106, "channel": 0}, {"type": "note_off", "time": 218, "note": 61, "velocity": 106, "channel": 0}, {"type": "note_on", "time": 13, "note": 65, "velocity": 112, "channel": 0}, {"type": "note_off", "time": 220, "note": 65, "velocity": 112, "channel": 0}, {"type": "note_on", "time": 37, "note": 61, "velocity": 103, "channel": 0}, {"type": "note_off", "time": 151, "note": 61, "velocity": 103, "channel": 0}, {"type": "note_on", "time": 0, "note": 64, "velocity": 117, "channel": 0}, {"type": "note_off", "time": 246, "note": 64, "velocity": 117, "channel": 0}, {"type": "note_on", "time": 7, "note": 61, "velocity": 105, "channel": 0}, {"type": "note_off", "time": 141, "note": 61, "velocity": 105, "channel": 0}, {"type": "note_on", "time": 25, "note": 63, "velocity": 115, "channel": 0}, {"type": "note_off", "time": 207, "note": 63, "velocity": 115, "channel": 0}, {"type": "note_on", "time": 31, "note": 66, "velocity": 112, "channel": 0}, {"type": "note_off", "time": 175, "note": 66, "velocity": 112, "channel": 0}, {"type": "note_on", "time": 15, "note": 65, "velocity": 111, "channel": 0}, {"type": "note_off", "time": 116, "note": 65, "velocity": 111, "channel": 0}, {"type": "note_on", "time": 21, "note": 63, "velocity": 111, "channel": 0}, {"type": "note_off", "time": 207, "note": 63, "velocity": 111, "channel": 0}, {"type": "note_on", "time": 17, "note": 61, "velocity": 113, "channel": 0}, {"type": "note_off", "time": 183, "note": 61, "velocity": 113, "channel": 0}, {"type": "note_on", "time": 25, "note": 62, "velocity": 116, "channel": 0}, {"type": "note_off", "time": 240, "note": 62, "velocity": 116, "channel": 0}, {"type": "note_on", "time": 9, "note": 63, "velocity": 114, "channel": 0}, {"type": "note_off", "time": 108, "note": 63, "velocity": 114, "channel": 0}, {"type": "note_on", "time": 15, "note": 65, "velocity": 106, "channel": 0}, {"type": "note_off", "time": 70, "note": 65, "velocity": 106, "channel": 0}, {"type": "note_on", "time": 7, "note": 67, "velocity": 101, "channel": 0}, {"type": "note_off", "time": 84, "note": 67, "velocity": 101, "channel": 0}, {"type": "note_on", "time": 13, "note": 69, "velocity": 112, "channel": 0}, {"type": "note_off", "time": 114, "note": 69, "velocity": 112, "channel": 0}, {"type": "note_on", "time": 23, "note": 70, "velocity": 110, "channel": 0}, {"type": "note_off", "time": 398, "note": 70, "velocity": 110, "channel": 0}, {"type": "note_on", "time": 2169, "note": 67, "velocity": 114, "channel": 0}, {"type": "note_off", "time": 197, "note": 67, "velocity": 114, "channel": 0}, {"type": "note_on", "time": 10, "note": 66, "velocity": 122, "channel": 0}, {"type": "note_off", "time": 218, "note": 66, "velocity": 122, "channel": 0}, {"type": "note_on", "time": 8, "note": 65, "velocity": 117, "channel": 0}, {"type": "note_off", "time": 207, "note": 65, "velocity": 117, "channel": 0}, {"type": "note_on", "time": 36, "note": 63, "velocity": 119, "channel": 0}, {"type": "note_off", "time": 173, "note": 63, "velocity": 119, "channel": 0}, {"type": "note_on", "time": 8, "note": 62, "velocity": 113, "channel": 0}, {"type": "note_off", "time": 176, "note": 62, "velocity": 113, "channel": 0}, {"type": "note_on", "time": 14, "note": 60, "velocity": 110, "channel": 0}, {"type": "note_off", "time": 190, "note": 60, "velocity": 110, "channel": 0}, {"type": "note_on", "time": 8, "note": 59, "velocity": 103, "channel": 0}, {"type": "note_off", "time": 193, "note": 59, "velocity": 103, "channel": 0}, {"type": "note_on", "time": 33, "note": 56, "velocity": 112, "channel": 0}, {"type": "note_off", "time": 169, "note": 56, "velocity": 112, "channel": 0}, {"type": "note_on", "time": 31, "note": 55, "velocity": 110, "channel": 0}, {"type": "note_off", "time": 201, "note": 55, "velocity": 110, "channel": 0}, {"type": "note_on", "time": 3, "note": 57, "velocity": 106, "channel": 0}, {"type": "note_off", "time": 130, "note": 57, "velocity": 106, "channel": 0}, {"type": "note_on", "time": 33, "note": 59, "velocity": 97, "channel": 0}, {"type": "note_off", "time": 92, "note": 59, "velocity": 97, "channel": 0}, {"type": "note_on", "time": 5, "note": 58, "velocity": 105, "channel": 0}, {"type": "note_off", "time": 103, "note": 58, "velocity": 105, "channel": 0}, {"type": "note_on", "time": 70, "note": 61, "velocity": 103, "channel": 0}, {"type": "note_off", "time": 84, "note": 61, "velocity": 103, "channel": 0}, {"type": "note_on", "time": 14, "note": 60, "velocity": 110, "channel": 0}, {"type": "note_off", "time": 207, "note": 60, "velocity": 110, "channel": 0}, {"type": "note_on", "time": 11, "note": 63, "velocity": 119, "channel": 0}, {"type": "note_off", "time": 241, "note": 63, "velocity": 119, "channel": 0}, {"type": "note_on", "time": 22, "note": 62, "velocity": 109, "channel": 0}, {"type": "note_off", "time": 151, "note": 62, "velocity": 109, "channel": 0}, {"type": "note_on", "time": 25, "note": 60, "velocity": 109, "channel": 0}, {"type": "note_off", "time": 199, "note": 60, "velocity": 109, "channel": 0}, {"type": "note_on", "time": 22, "note": 58, "velocity": 106, "channel": 0}, {"type": "note_off", "time": 165, "note": 58, "velocity": 106, "channel": 0}, {"type": "note_on", "time": 36, "note": 53, "velocity": 97, "channel": 0}, {"type": "note_off", "time": 182, "note": 53, "velocity": 97, "channel": 0}, {"type": "note_on", "time": 30, "note": 62, "velocity": 112, "channel": 0}, {"type": "note_off", "time": 207, "note": 62, "velocity": 112, "channel": 0}, {"type": "note_on", "time": 16, "note": 60, "velocity": 107, "channel": 0}, {"type": "note_off", "time": 259, "note": 60, "velocity": 107, "channel": 0}, {"type": "note_on", "time": 21, "note": 58, "velocity": 101, "channel": 0}, {"type": "note_off", "time": 157, "note": 58, "velocity": 101, "channel": 0}, {"type": "note_on", "time": 26, "note": 60, "velocity": 109, "channel": 0}, {"type": "note_off", "time": 204, "note": 60, "velocity": 109, "channel": 0}, {"type": "note_on", "time": 9, "note": 62, "velocity": 103, "channel": 0}, {"type": "note_off", "time": 169, "note": 62, "velocity": 103, "channel": 0}, {"type": "note_on", "time": 11, "note": 65, "velocity": 103, "channel": 0}, {"type": "note_off", "time": 141, "note": 65, "velocity": 103, "channel": 0}, {"type": "note_on", "time": 18, "note": 68, "velocity": 116, "channel": 0}, {"type": "note_off", "time": 207, "note": 68, "velocity": 116, "channel": 0}, {"type": "note_on", "time": 14, "note": 69, "velocity": 116, "channel": 0}, {"type": "note_off", "time": 159, "note": 69, "velocity": 116, "channel": 0}, {"type": "note_on", "time": 39, "note": 64, "velocity": 123, "channel": 0}, {"type": "note_off", "time": 238, "note": 64, "velocity": 123, "channel": 0}, {"type": "note_on", "time": 14, "note": 65, "velocity": 109, "channel": 0}, {"type": "note_off", "time": 213, "note": 65, "velocity": 109, "channel": 0}, {"type": "note_on", "time": 22, "note": 61, "velocity": 111, "channel": 0}, {"type": "note_off", "time": 201, "note": 61, "velocity": 111, "channel": 0}, {"type": "note_on", "time": 22, "note": 62, "velocity": 111, "channel": 0}, {"type": "note_off", "time": 246, "note": 62, "velocity": 111, "channel": 0}, {"type": "note_on", "time": 11, "note": 67, "velocity": 103, "channel": 0}, {"type": "note_off", "time": 190, "note": 67, "velocity": 103, "channel": 0}, {"type": "note_on", "time": 16, "note": 68, "velocity": 96, "channel": 0}, {"type": "note_off", "time": 532, "note": 68, "velocity": 96, "channel": 0}, {"type": "note_on", "time": 1348, "note": 69, "velocity": 111, "channel": 0}, {"type": "note_off", "time": 168, "note": 69, "velocity": 111, "channel": 0}, {"type": "note_on", "time": 11, "note": 73, "velocity": 122, "channel": 0}, {"type": "note_off", "time": 490, "note": 73, "velocity": 122, "channel": 0}, {"type": "note_on", "time": 25, "note": 71, "velocity": 119, "channel": 0}, {"type": "note_off", "time": 319, "note": 71, "velocity": 119, "channel": 0}, {"type": "note_on", "time": 61, "note": 68, "velocity": 122, "channel": 0}, {"type": "note_off", "time": 249, "note": 68, "velocity": 122, "channel": 0}, {"type": "note_on", "time": 11, "note": 66, "velocity": 116, "channel": 0}, {"type": "note_off", "time": 109, "note": 66, "velocity": 116, "channel": 0}, {"type": "note_on", "time": 5, "note": 64, "velocity": 122, "channel": 0}, {"type": "note_off", "time": 199, "note": 64, "velocity": 122, "channel": 0}, {"type": "note_on", "time": 19, "note": 59, "velocity": 106, "channel": 0}, {"type": "note_off", "time": 154, "note": 59, "velocity": 106, "channel": 0}, {"type": "note_on", "time": 25, "note": 56, "velocity": 115, "channel": 0}, {"type": "note_off", "time": 173, "note": 56, "velocity": 115, "channel": 0}, {"type": "note_on", "time": 5, "note": 55, "velocity": 108, "channel": 0}, {"type": "note_off", "time": 260, "note": 55, "velocity": 108, "channel": 0}, {"type": "note_on", "time": 39, "note": 58, "velocity": 97, "channel": 0}, {"type": "note_off", "time": 100, "note": 58, "velocity": 97, "channel": 0}, {"type": "note_on", "time": 11, "note": 60, "velocity": 109, "channel": 0}, {"type": "note_off", "time": 109, "note": 60, "velocity": 109, "channel": 0}, {"type": "note_on", "time": 14, "note": 62, "velocity": 117, "channel": 0}, {"type": "note_off", "time": 103, "note": 62, "velocity": 117, "channel": 0}, {"type": "note_on", "time": 16, "note": 65, "velocity": 118, "channel": 0}, {"type": "note_off", "time": 114, "note": 65, "velocity": 118, "channel": 0}, {"type": "note_on", "time": 36, "note": 62, "velocity": 108, "channel": 0}, {"type": "note_off", "time": 210, "note": 62, "velocity": 108, "channel": 0}, {"type": "note_on", "time": 14, "note": 65, "velocity": 105, "channel": 0}, {"type": "note_off", "time": 128, "note": 65, "velocity": 105, "channel": 0}, {"type": "note_on", "time": 14, "note": 67, "velocity": 98, "channel": 0}, {"type": "note_off", "time": 100, "note": 67, "velocity": 98, "channel": 0}, {"type": "note_on", "time": 25, "note": 69, "velocity": 111, "channel": 0}, {"type": "note_off", "time": 165, "note": 69, "velocity": 111, "channel": 0}, {"type": "note_on", "time": 19, "note": 75, "velocity": 118, "channel": 0}, {"type": "note_off", "time": 389, "note": 75, "velocity": 118, "channel": 0}, {"type": "note_on", "time": 2374, "note": 68, "velocity": 114, "channel": 0}, {"type": "note_off", "time": 207, "note": 68, "velocity": 114, "channel": 0}, {"type": "note_on", "time": 39, "note": 70, "velocity": 109, "channel": 0}, {"type": "note_off", "time": 243, "note": 70, "velocity": 109, "channel": 0}, {"type": "note_on", "time": 78, "note": 71, "velocity": 112, "channel": 0}, {"type": "note_off", "time": 140, "note": 71, "velocity": 112, "channel": 0}, {"type": "note_on", "time": 25, "note": 72, "velocity": 115, "channel": 0}, {"type": "note_off", "time": 942, "note": 72, "velocity": 115, "channel": 0}, {"type": "note_on", "time": 75, "note": 74, "velocity": 114, "channel": 0}, {"type": "note_off", "time": 252, "note": 74, "velocity": 114, "channel": 0}, {"type": "note_on", "time": 207, "note": 70, "velocity": 114, "channel": 0}, {"type": "note_off", "time": 1121, "note": 70, "velocity": 114, "channel": 0}, {"type": "note_on", "time": 56, "note": 67, "velocity": 100, "channel": 0}, {"type": "note_off", "time": 199, "note": 67, "velocity": 100, "channel": 0}, {"type": "note_on", "time": 14, "note": 68, "velocity": 117, "channel": 0}, {"type": "note_off", "time": 232, "note": 68, "velocity": 117, "channel": 0}, {"type": "note_on", "time": 42, "note": 65, "velocity": 104, "channel": 0}, {"type": "note_off", "time": 145, "note": 65, "velocity": 104, "channel": 0}, {"type": "note_on", "time": 50, "note": 67, "velocity": 113, "channel": 0}, {"type": "note_off", "time": 173, "note": 67, "velocity": 113, "channel": 0}, {"type": "note_on", "time": 33, "note": 63, "velocity": 120, "channel": 0}, {"type": "note_off", "time": 179, "note": 63, "velocity": 120, "channel": 0}, {"type": "note_on", "time": 19, "note": 62, "velocity": 115, "channel": 0}, {"type": "note_off", "time": 210, "note": 62, "velocity": 115, "channel": 0}, {"type": "note_on", "time": 22, "note": 60, "velocity": 105, "channel": 0}, {"type": "note_off", "time": 171, "note": 60, "velocity": 105, "channel": 0}, {"type": "note_on", "time": 44, "note": 63, "velocity": 117, "channel": 0}, {"type": "note_off", "time": 280, "note": 63, "velocity": 117, "channel": 0}, {"type": "note_on", "time": 44, "note": 60, "velocity": 112, "channel": 0}, {"type": "note_off", "time": 210, "note": 60, "velocity": 112, "channel": 0}, {"type": "note_on", "time": 877, "note": 58, "velocity": 115, "channel": 0}, {"type": "note_off", "time": 117, "note": 58, "velocity": 115, "channel": 0}, {"type": "note_on", "time": 8, "note": 61, "velocity": 111, "channel": 0}, {"type": "note_off", "time": 70, "note": 61, "velocity": 111, "channel": 0}, {"type": "note_on", "time": 8, "note": 64, "velocity": 106, "channel": 0}, {"type": "note_off", "time": 120, "note": 64, "velocity": 106, "channel": 0}, {"type": "note_on", "time": 8, "note": 67, "velocity": 101, "channel": 0}, {"type": "note_off", "time": 168, "note": 67, "velocity": 101, "channel": 0}, {"type": "note_on", "time": 47, "note": 62, "velocity": 115, "channel": 0}, {"type": "note_off", "time": 182, "note": 62, "velocity": 115, "channel": 0}, {"type": "note_on", "time": 14, "note": 66, "velocity": 103, "channel": 0}, {"type": "note_off", "time": 145, "note": 66, "velocity": 103, "channel": 0}, {"type": "note_on", "time": 14, "note": 69, "velocity": 97, "channel": 0}, {"type": "note_off", "time": 134, "note": 69, "velocity": 97, "channel": 0}, {"type": "note_on", "time": 19, "note": 71, "velocity": 104, "channel": 0}, {"type": "note_off", "time": 58, "note": 71, "velocity": 104, "channel": 0}, {"type": "note_on", "time": 8, "note": 73, "velocity": 119, "channel": 0}, {"type": "note_off", "time": 138, "note": 73, "velocity": 119, "channel": 0}, {"type": "note_on", "time": 7, "note": 74, "velocity": 127, "channel": 0}, {"type": "note_off", "time": 155, "note": 74, "velocity": 127, "channel": 0}, {"type": "note_on", "time": 11, "note": 73, "velocity": 117, "channel": 0}, {"type": "note_off", "time": 123, "note": 73, "velocity": 117, "channel": 0}, {"type": "note_on", "time": 8, "note": 71, "velocity": 114, "channel": 0}, {"type": "note_off", "time": 165, "note": 71, "velocity": 114, "channel": 0}, {"type": "note_on", "time": 42, "note": 69, "velocity": 116, "channel": 0}, {"type": "note_off", "time": 157, "note": 69, "velocity": 116, "channel": 0}, {"type": "note_on", "time": 16, "note": 68, "velocity": 116, "channel": 0}, {"type": "note_off", "time": 235, "note": 68, "velocity": 116, "channel": 0}, {"type": "note_on", "time": 63, "note": 64, "velocity": 117, "channel": 0}, {"type": "note_off", "time": 191, "note": 64, "velocity": 117, "channel": 0}, {"type": "note_on", "time": 20, "note": 59, "velocity": 105, "channel": 0}, {"type": "note_off", "time": 210, "note": 59, "velocity": 105, "channel": 0}, {"type": "note_on", "time": 14, "note": 56, "velocity": 112, "channel": 0}, {"type": "note_off", "time": 161, "note": 56, "velocity": 112, "channel": 0}, {"type": "note_on", "time": 15, "note": 55, "velocity": 108, "channel": 0}, {"type": "note_off", "time": 126, "note": 55, "velocity": 108, "channel": 0}, {"type": "note_on", "time": 5, "note": 58, "velocity": 104, "channel": 0}, {"type": "note_off", "time": 149, "note": 58, "velocity": 104, "channel": 0}, {"type": "note_on", "time": 17, "note": 60, "velocity": 106, "channel": 0}, {"type": "note_off", "time": 118, "note": 60, "velocity": 106, "channel": 0}, {"type": "note_on", "time": 19, "note": 62, "velocity": 105, "channel": 0}, {"type": "note_off", "time": 207, "note": 62, "velocity": 105, "channel": 0}, {"type": "note_on", "time": 29, "note": 65, "velocity": 113, "channel": 0}, {"type": "note_off", "time": 195, "note": 65, "velocity": 113, "channel": 0}, {"type": "note_on", "time": 31, "note": 62, "velocity": 109, "channel": 0}, {"type": "note_off", "time": 102, "note": 62, "velocity": 109, "channel": 0}, {"type": "note_on", "time": 27, "note": 63, "velocity": 105, "channel": 0}, {"type": "note_off", "time": 130, "note": 63, "velocity": 105, "channel": 0}, {"type": "note_on", "time": 47, "note": 67, "velocity": 105, "channel": 0}, {"type": "note_off", "time": 141, "note": 67, "velocity": 105, "channel": 0}, {"type": "note_on", "time": 39, "note": 70, "velocity": 100, "channel": 0}, {"type": "note_off", "time": 149, "note": 70, "velocity": 100, "channel": 0}, {"type": "note_on", "time": 15, "note": 75, "velocity": 123, "channel": 0}, {"type": "note_off", "time": 560, "note": 75, "velocity": 123, "channel": 0}, {"type": "note_on", "time": 47, "note": 70, "velocity": 111, "channel": 0}, {"type": "note_off", "time": 128, "note": 70, "velocity": 111, "channel": 0}, {"type": "note_on", "time": 11, "note": 72, "velocity": 117, "channel": 0}, {"type": "note_off", "time": 165, "note": 72, "velocity": 117, "channel": 0}, {"type": "note_on", "time": 2, "note": 70, "velocity": 110, "channel": 0}, {"type": "note_off", "time": 271, "note": 70, "velocity": 110, "channel": 0}, {"type": "note_on", "time": 44, "note": 67, "velocity": 109, "channel": 0}, {"type": "note_off", "time": 182, "note": 67, "velocity": 109, "channel": 0}, {"type": "note_on", "time": 36, "note": 64, "velocity": 117, "channel": 0}, {"type": "note_off", "time": 229, "note": 64, "velocity": 117, "channel": 0}, {"type": "note_on", "time": 25, "note": 60, "velocity": 90, "channel": 0}, {"type": "note_off", "time": 126, "note": 60, "velocity": 90, "channel": 0}, {"type": "note_on", "time": 1073, "note": 60, "velocity": 105, "channel": 0}, {"type": "note_off", "time": 86, "note": 60, "velocity": 105, "channel": 0}, {"type": "note_on", "time": 22, "note": 62, "velocity": 116, "channel": 0}, {"type": "note_off", "time": 86, "note": 62, "velocity": 116, "channel": 0}, {"type": "note_on", "time": 8, "note": 64, "velocity": 117, "channel": 0}, {"type": "note_off", "time": 112, "note": 64, "velocity": 117, "channel": 0}, {"type": "note_on", "time": 8, "note": 67, "velocity": 114, "channel": 0}, {"type": "note_off", "time": 154, "note": 67, "velocity": 114, "channel": 0}, {"type": "note_on", "time": 11, "note": 65, "velocity": 112, "channel": 0}, {"type": "note_off", "time": 243, "note": 65, "velocity": 112, "channel": 0}, {"type": "note_on", "time": 50, "note": 68, "velocity": 118, "channel": 0}, {"type": "note_off", "time": 165, "note": 68, "velocity": 118, "channel": 0}, {"type": "note_on", "time": 28, "note": 67, "velocity": 112, "channel": 0}, {"type": "note_off", "time": 128, "note": 67, "velocity": 112, "channel": 0}, {"type": "note_on", "time": 30, "note": 65, "velocity": 102, "channel": 0}, {"type": "note_off", "time": 193, "note": 65, "velocity": 102, "channel": 0}, {"type": "note_on", "time": 0, "note": 70, "velocity": 119, "channel": 0}, {"type": "note_off", "time": 201, "note": 70, "velocity": 119, "channel": 0}, {"type": "note_on", "time": 23, "note": 66, "velocity": 115, "channel": 0}, {"type": "note_off", "time": 204, "note": 66, "velocity": 115, "channel": 0}, {"type": "note_on", "time": 12, "note": 62, "velocity": 112, "channel": 0}, {"type": "note_off", "time": 281, "note": 62, "velocity": 112, "channel": 0}, {"type": "note_on", "time": 76, "note": 67, "velocity": 114, "channel": 0}, {"type": "note_off", "time": 249, "note": 67, "velocity": 114, "channel": 0}, {"type": "note_on", "time": 11, "note": 63, "velocity": 112, "channel": 0}, {"type": "note_off", "time": 130, "note": 63, "velocity": 112, "channel": 0}, {"type": "note_on", "time": 15, "note": 65, "velocity": 114, "channel": 0}, {"type": "note_off", "time": 86, "note": 65, "velocity": 114, "channel": 0}, {"type": "note_on", "time": 5, "note": 66, "velocity": 113, "channel": 0}, {"type": "note_off", "time": 70, "note": 66, "velocity": 113, "channel": 0}, {"type": "note_on", "time": 13, "note": 68, "velocity": 119, "channel": 0}, {"type": "note_off", "time": 203, "note": 68, "velocity": 119, "channel": 0}, {"type": "note_on", "time": 57, "note": 66, "velocity": 107, "channel": 0}, {"type": "note_off", "time": 136, "note": 66, "velocity": 107, "channel": 0}, {"type": "note_on", "time": 0, "note": 69, "velocity": 114, "channel": 0}, {"type": "note_off", "time": 134, "note": 69, "velocity": 114, "channel": 0}, {"type": "note_on", "time": 11, "note": 72, "velocity": 111, "channel": 0}, {"type": "note_off", "time": 139, "note": 72, "velocity": 111, "channel": 0}, {"type": "note_on", "time": 15, "note": 70, "velocity": 115, "channel": 0}, {"type": "note_off", "time": 283, "note": 70, "velocity": 115, "channel": 0}, {"type": "note_on", "time": 954, "note": 67, "velocity": 108, "channel": 0}, {"type": "note_off", "time": 124, "note": 67, "velocity": 108, "channel": 0}, {"type": "note_on", "time": 7, "note": 68, "velocity": 108, "channel": 0}, {"type": "note_off", "time": 90, "note": 68, "velocity": 108, "channel": 0}, {"type": "note_on", "time": 13, "note": 67, "velocity": 113, "channel": 0}, {"type": "note_on", "time": 122, "note": 64, "velocity": 117, "channel": 0}, {"type": "note_off", "time": 0, "note": 67, "velocity": 113, "channel": 0}, {"type": "note_off", "time": 195, "note": 64, "velocity": 117, "channel": 0}, {"type": "note_on", "time": 47, "note": 58, "velocity": 105, "channel": 0}, {"type": "note_off", "time": 128, "note": 58, "velocity": 105, "channel": 0}, {"type": "note_on", "time": 3, "note": 61, "velocity": 111, "channel": 0}, {"type": "note_off", "time": 134, "note": 61, "velocity": 111, "channel": 0}, {"type": "note_on", "time": 3, "note": 65, "velocity": 109, "channel": 0}, {"type": "note_off", "time": 122, "note": 65, "velocity": 109, "channel": 0}, {"type": "note_on", "time": 0, "note": 68, "velocity": 107, "channel": 0}, {"type": "note_off", "time": 104, "note": 68, "velocity": 107, "channel": 0}, {"type": "note_on", "time": 5, "note": 67, "velocity": 112, "channel": 0}, {"type": "note_off", "time": 65, "note": 67, "velocity": 112, "channel": 0}, {"type": "note_on", "time": 7, "note": 66, "velocity": 110, "channel": 0}, {"type": "note_off", "time": 102, "note": 66, "velocity": 110, "channel": 0}, {"type": "note_on", "time": 9, "note": 65, "velocity": 112, "channel": 0}, {"type": "note_off", "time": 90, "note": 65, "velocity": 112, "channel": 0}, {"type": "note_on", "time": 9, "note": 64, "velocity": 115, "channel": 0}, {"type": "note_off", "time": 199, "note": 64, "velocity": 115, "channel": 0}, {"type": "note_on", "time": 19, "note": 63, "velocity": 115, "channel": 0}, {"type": "note_off", "time": 80, "note": 63, "velocity": 115, "channel": 0}, {"type": "note_on", "time": 15, "note": 62, "velocity": 110, "channel": 0}, {"type": "note_off", "time": 136, "note": 62, "velocity": 110, "channel": 0}, {"type": "note_on", "time": 11, "note": 60, "velocity": 106, "channel": 0}, {"type": "note_off", "time": 157, "note": 60, "velocity": 106, "channel": 0}, {"type": "note_on", "time": 1, "note": 59, "velocity": 104, "channel": 0}, {"type": "note_off", "time": 122, "note": 59, "velocity": 104, "channel": 0}, {"type": "note_on", "time": 1, "note": 57, "velocity": 107, "channel": 0}, {"type": "note_off", "time": 118, "note": 57, "velocity": 107, "channel": 0}, {"type": "note_on", "time": 1, "note": 55, "velocity": 105, "channel": 0}, {"type": "note_off", "time": 155, "note": 55, "velocity": 105, "channel": 0}, {"type": "note_on", "time": 8, "note": 54, "velocity": 105, "channel": 0}, {"type": "note_off", "time": 241, "note": 54, "velocity": 105, "channel": 0}, {"type": "note_on", "time": 8, "note": 51, "velocity": 111, "channel": 0}, {"type": "note_off", "time": 131, "note": 51, "velocity": 111, "channel": 0}, {"type": "note_on", "time": 4, "note": 49, "velocity": 105, "channel": 0}, {"type": "note_off", "time": 93, "note": 49, "velocity": 105, "channel": 0}, {"type": "note_on", "time": 5, "note": 48, "velocity": 109, "channel": 0}, {"type": "note_off", "time": 191, "note": 48, "velocity": 109, "channel": 0}, {"type": "note_on", "time": 9, "note": 47, "velocity": 109, "channel": 0}, {"type": "note_off", "time": 185, "note": 47, "velocity": 109, "channel": 0}, {"type": "note_on", "time": 1297, "note": 45, "velocity": 122, "channel": 0}, {"type": "note_off", "time": 187, "note": 45, "velocity": 122, "channel": 0}, {"type": "note_on", "time": 2, "note": 47, "velocity": 109, "channel": 0}, {"type": "note_off", "time": 64, "note": 47, "velocity": 109, "channel": 0}, {"type": "note_on", "time": 2, "note": 49, "velocity": 105, "channel": 0}, {"type": "note_off", "time": 73, "note": 49, "velocity": 105, "channel": 0}, {"type": "note_on", "time": 5, "note": 51, "velocity": 111, "channel": 0}, {"type": "note_off", "time": 159, "note": 51, "velocity": 111, "channel": 0}, {"type": "note_on", "time": 1, "note": 55, "velocity": 105, "channel": 0}, {"type": "note_off", "time": 130, "note": 55, "velocity": 105, "channel": 0}, {"type": "note_on", "time": 8, "note": 56, "velocity": 110, "channel": 0}, {"type": "note_off", "time": 94, "note": 56, "velocity": 110, "channel": 0}, {"type": "note_on", "time": 4, "note": 57, "velocity": 104, "channel": 0}, {"type": "note_off", "time": 82, "note": 57, "velocity": 104, "channel": 0}, {"type": "note_on", "time": 11, "note": 58, "velocity": 101, "channel": 0}, {"type": "note_off", "time": 114, "note": 58, "velocity": 101, "channel": 0}, {"type": "note_on", "time": 1, "note": 60, "velocity": 108, "channel": 0}, {"type": "note_off", "time": 85, "note": 60, "velocity": 108, "channel": 0}, {"type": "note_on", "time": 5, "note": 62, "velocity": 115, "channel": 0}, {"type": "note_off", "time": 102, "note": 62, "velocity": 115, "channel": 0}, {"type": "note_on", "time": 22, "note": 63, "velocity": 116, "channel": 0}, {"type": "note_off", "time": 78, "note": 63, "velocity": 116, "channel": 0}, {"type": "note_on", "time": 11, "note": 65, "velocity": 112, "channel": 0}, {"type": "note_off", "time": 153, "note": 65, "velocity": 112, "channel": 0}, {"type": "note_on", "time": 7, "note": 67, "velocity": 108, "channel": 0}, {"type": "note_off", "time": 103, "note": 67, "velocity": 108, "channel": 0}, {"type": "note_on", "time": 9, "note": 69, "velocity": 112, "channel": 0}, {"type": "note_off", "time": 109, "note": 69, "velocity": 112, "channel": 0}, {"type": "note_on", "time": 13, "note": 70, "velocity": 112, "channel": 0}, {"type": "note_off", "time": 757, "note": 70, "velocity": 112, "channel": 0}, {"type": "note_on", "time": 25, "note": 69, "velocity": 117, "channel": 0}, {"type": "note_off", "time": 141, "note": 69, "velocity": 117, "channel": 0}, {"type": "note_on", "time": 3, "note": 71, "velocity": 107, "channel": 0}, {"type": "note_off", "time": 102, "note": 71, "velocity": 107, "channel": 0}, {"type": "note_on", "time": 12, "note": 70, "velocity": 113, "channel": 0}, {"type": "note_off", "time": 157, "note": 70, "velocity": 113, "channel": 0}, {"type": "note_on", "time": 0, "note": 65, "velocity": 112, "channel": 0}, {"type": "note_off", "time": 81, "note": 65, "velocity": 112, "channel": 0}, {"type": "note_on", "time": 16, "note": 64, "velocity": 116, "channel": 0}, {"type": "note_off", "time": 145, "note": 64, "velocity": 116, "channel": 0}, {"type": "note_on", "time": 16, "note": 67, "velocity": 106, "channel": 0}, {"type": "note_off", "time": 89, "note": 67, "velocity": 106, "channel": 0}, {"type": "note_on", "time": 8, "note": 65, "velocity": 112, "channel": 0}, {"type": "note_off", "time": 84, "note": 65, "velocity": 112, "channel": 0}, {"type": "note_on", "time": 25, "note": 62, "velocity": 112, "channel": 0}, {"type": "note_off", "time": 134, "note": 62, "velocity": 112, "channel": 0}, {"type": "note_on", "time": 8, "note": 61, "velocity": 112, "channel": 0}, {"type": "note_off", "time": 128, "note": 61, "velocity": 112, "channel": 0}, {"type": "note_on", "time": 14, "note": 63, "velocity": 112, "channel": 0}, {"type": "note_off", "time": 123, "note": 63, "velocity": 112, "channel": 0}, {"type": "note_on", "time": 19, "note": 62, "velocity": 110, "channel": 0}, {"type": "note_off", "time": 199, "note": 62, "velocity": 110, "channel": 0}, {"type": "note_on", "time": 30, "note": 58, "velocity": 99, "channel": 0}, {"type": "note_off", "time": 95, "note": 58, "velocity": 99, "channel": 0}, {"type": "note_on", "time": 8, "note": 57, "velocity": 103, "channel": 0}, {"type": "note_off", "time": 145, "note": 57, "velocity": 103, "channel": 0}, {"type": "note_on", "time": 47, "note": 60, "velocity": 99, "channel": 0}, {"type": "note_off", "time": 106, "note": 60, "velocity": 99, "channel": 0}, {"type": "note_on", "time": 8, "note": 58, "velocity": 99, "channel": 0}, {"type": "note_off", "time": 232, "note": 58, "velocity": 99, "channel": 0}, {"type": "note_on", "time": 1247, "note": 58, "velocity": 101, "channel": 0}, {"type": "note_off", "time": 151, "note": 58, "velocity": 101, "channel": 0}, {"type": "note_on", "time": 25, "note": 55, "velocity": 102, "channel": 0}, {"type": "note_off", "time": 64, "note": 55, "velocity": 102, "channel": 0}, {"type": "note_on", "time": 2, "note": 57, "velocity": 103, "channel": 0}, {"type": "note_off", "time": 154, "note": 57, "velocity": 103, "channel": 0}, {"type": "note_on", "time": 36, "note": 58, "velocity": 99, "channel": 0}, {"type": "note_off", "time": 137, "note": 58, "velocity": 99, "channel": 0}, {"type": "note_on", "time": 8, "note": 60, "velocity": 106, "channel": 0}, {"type": "note_off", "time": 157, "note": 60, "velocity": 106, "channel": 0}, {"type": "note_on", "time": 8, "note": 61, "velocity": 103, "channel": 0}, {"type": "note_off", "time": 153, "note": 61, "velocity": 103, "channel": 0}, {"type": "note_on", "time": 13, "note": 62, "velocity": 110, "channel": 0}, {"type": "note_off", "time": 153, "note": 62, "velocity": 110, "channel": 0}, {"type": "note_on", "time": 13, "note": 65, "velocity": 116, "channel": 0}, {"type": "note_off", "time": 181, "note": 65, "velocity": 116, "channel": 0}, {"type": "note_on", "time": 9, "note": 62, "velocity": 116, "channel": 0}, {"type": "note_off", "time": 230, "note": 62, "velocity": 116, "channel": 0}, {"type": "note_on", "time": 13, "note": 63, "velocity": 118, "channel": 0}, {"type": "note_off", "time": 141, "note": 63, "velocity": 118, "channel": 0}, {"type": "note_on", "time": 9, "note": 65, "velocity": 114, "channel": 0}, {"type": "note_off", "time": 123, "note": 65, "velocity": 114, "channel": 0}, {"type": "note_on", "time": 11, "note": 63, "velocity": 118, "channel": 0}, {"type": "note_off", "time": 114, "note": 63, "velocity": 118, "channel": 0}, {"type": "note_on", "time": 17, "note": 62, "velocity": 111, "channel": 0}, {"type": "note_off", "time": 128, "note": 62, "velocity": 111, "channel": 0}, {"type": "note_on", "time": 5, "note": 60, "velocity": 107, "channel": 0}, {"type": "note_off", "time": 264, "note": 60, "velocity": 107, "channel": 0}, {"type": "note_on", "time": 17, "note": 58, "velocity": 101, "channel": 0}, {"type": "note_off", "time": 143, "note": 58, "velocity": 101, "channel": 0}, {"type": "note_on", "time": 47, "note": 60, "velocity": 107, "channel": 0}, {"type": "note_off", "time": 193, "note": 60, "velocity": 107, "channel": 0}, {"type": "note_on", "time": 21, "note": 62, "velocity": 106, "channel": 0}, {"type": "note_off", "time": 153, "note": 62, "velocity": 106, "channel": 0}, {"type": "note_on", "time": 23, "note": 65, "velocity": 102, "channel": 0}, {"type": "note_off", "time": 145, "note": 65, "velocity": 102, "channel": 0}, {"type": "note_on", "time": 6, "note": 70, "velocity": 110, "channel": 0}, {"type": "note_off", "time": 313, "note": 70, "velocity": 110, "channel": 0}, {"type": "note_on", "time": 1700, "note": 73, "velocity": 114, "channel": 0}, {"type": "note_off", "time": 163, "note": 73, "velocity": 114, "channel": 0}, {"type": "note_on", "time": 9, "note": 71, "velocity": 117, "channel": 0}, {"type": "note_off", "time": 201, "note": 71, "velocity": 117, "channel": 0}, {"type": "note_on", "time": 11, "note": 69, "velocity": 115, "channel": 0}, {"type": "note_off", "time": 228, "note": 69, "velocity": 115, "channel": 0}, {"type": "note_on", "time": 13, "note": 68, "velocity": 112, "channel": 0}, {"type": "note_off", "time": 226, "note": 68, "velocity": 112, "channel": 0}, {"type": "note_on", "time": 9, "note": 66, "velocity": 111, "channel": 0}, {"type": "note_off", "time": 228, "note": 66, "velocity": 111, "channel": 0}, {"type": "note_on", "time": 21, "note": 65, "velocity": 112, "channel": 0}, {"type": "note_off", "time": 293, "note": 65, "velocity": 112, "channel": 0}, {"type": "note_on", "time": 9, "note": 64, "velocity": 115, "channel": 0}, {"type": "note_off", "time": 218, "note": 64, "velocity": 115, "channel": 0}, {"type": "note_on", "time": 9, "note": 63, "velocity": 114, "channel": 0}, {"type": "note_off", "time": 642, "note": 63, "velocity": 114, "channel": 0}, {"type": "note_on", "time": 19, "note": 61, "velocity": 114, "channel": 0}, {"type": "note_off", "time": 260, "note": 61, "velocity": 114, "channel": 0}, {"type": "note_on", "time": 13, "note": 59, "velocity": 103, "channel": 0}, {"type": "note_off", "time": 224, "note": 59, "velocity": 103, "channel": 0}, {"type": "note_on", "time": 23, "note": 57, "velocity": 105, "channel": 0}, {"type": "note_off", "time": 208, "note": 57, "velocity": 105, "channel": 0}, {"type": "note_on", "time": 17, "note": 56, "velocity": 112, "channel": 0}, {"type": "note_off", "time": 155, "note": 56, "velocity": 112, "channel": 0}, {"type": "note_on", "time": 19, "note": 54, "velocity": 106, "channel": 0}, {"type": "note_off", "time": 226, "note": 54, "velocity": 106, "channel": 0}, {"type": "note_on", "time": 9, "note": 53, "velocity": 108, "channel": 0}, {"type": "note_off", "time": 132, "note": 53, "velocity": 108, "channel": 0}, {"type": "note_on", "time": 23, "note": 51, "velocity": 104, "channel": 0}, {"type": "note_off", "time": 177, "note": 51, "velocity": 104, "channel": 0}, {"type": "note_on", "time": 19, "note": 50, "velocity": 94, "channel": 0}, {"type": "note_off", "time": 305, "note": 50, "velocity": 94, "channel": 0}, {"type": "note_on", "time": 33, "note": 53, "velocity": 102, "channel": 0}, {"type": "note_off", "time": 159, "note": 53, "velocity": 102, "channel": 0}, {"type": "note_on", "time": 15, "note": 57, "velocity": 100, "channel": 0}, {"type": "note_off", "time": 260, "note": 57, "velocity": 100, "channel": 0}, {"type": "note_on", "time": 157, "note": 63, "velocity": 118, "channel": 0}, {"type": "note_off", "time": 190, "note": 63, "velocity": 118, "channel": 0}, {"type": "note_on", "time": 28, "note": 62, "velocity": 114, "channel": 0}, {"type": "note_off", "time": 311, "note": 62, "velocity": 114, "channel": 0}, {"type": "note_on", "time": 8, "note": 59, "velocity": 99, "channel": 0}, {"type": "note_off", "time": 162, "note": 59, "velocity": 99, "channel": 0}, {"type": "note_on", "time": 70, "note": 55, "velocity": 103, "channel": 0}, {"type": "note_off", "time": 182, "note": 55, "velocity": 103, "channel": 0}, {"type": "note_on", "time": 8, "note": 60, "velocity": 101, "channel": 0}, {"type": "note_off", "time": 142, "note": 60, "velocity": 101, "channel": 0}, {"type": "note_on", "time": 28, "note": 62, "velocity": 114, "channel": 0}, {"type": "note_off", "time": 159, "note": 62, "velocity": 114, "channel": 0}, {"type": "note_on", "time": 25, "note": 63, "velocity": 113, "channel": 0}, {"type": "note_off", "time": 145, "note": 63, "velocity": 113, "channel": 0}, {"type": "note_on", "time": 28, "note": 65, "velocity": 105, "channel": 0}, {"type": "note_off", "time": 179, "note": 65, "velocity": 105, "channel": 0}, {"type": "note_on", "time": 18, "note": 67, "velocity": 110, "channel": 0}, {"type": "note_off", "time": 218, "note": 67, "velocity": 110, "channel": 0}, {"type": "note_on", "time": 9, "note": 70, "velocity": 116, "channel": 0}, {"type": "note_off", "time": 201, "note": 70, "velocity": 116, "channel": 0}, {"type": "note_on", "time": 19, "note": 69, "velocity": 113, "channel": 0}, {"type": "note_off", "time": 168, "note": 69, "velocity": 113, "channel": 0}, {"type": "note_on", "time": 8, "note": 67, "velocity": 107, "channel": 0}, {"type": "note_off", "time": 196, "note": 67, "velocity": 107, "channel": 0}, {"type": "note_on", "time": 14, "note": 66, "velocity": 107, "channel": 0}, {"type": "note_off", "time": 179, "note": 66, "velocity": 107, "channel": 0}, {"type": "note_on", "time": 11, "note": 69, "velocity": 109, "channel": 0}, {"type": "note_off", "time": 176, "note": 69, "velocity": 109, "channel": 0}, {"type": "note_on", "time": 0, "note": 73, "velocity": 110, "channel": 0}, {"type": "note_off", "time": 134, "note": 73, "velocity": 110, "channel": 0}, {"type": "note_on", "time": 2, "note": 74, "velocity": 118, "channel": 0}, {"type": "note_off", "time": 140, "note": 74, "velocity": 118, "channel": 0}, {"type": "note_on", "time": 8, "note": 73, "velocity": 114, "channel": 0}, {"type": "note_off", "time": 112, "note": 73, "velocity": 114, "channel": 0}, {"type": "note_on", "time": 10, "note": 71, "velocity": 115, "channel": 0}, {"type": "note_off", "time": 207, "note": 71, "velocity": 115, "channel": 0}, {"type": "note_on", "time": 9, "note": 69, "velocity": 114, "channel": 0}, {"type": "note_off", "time": 195, "note": 69, "velocity": 114, "channel": 0}, {"type": "note_on", "time": 17, "note": 68, "velocity": 116, "channel": 0}, {"type": "note_off", "time": 157, "note": 68, "velocity": 116, "channel": 0}, {"type": "note_on", "time": 61, "note": 66, "velocity": 113, "channel": 0}, {"type": "note_off", "time": 155, "note": 66, "velocity": 113, "channel": 0}, {"type": "note_on", "time": 19, "note": 65, "velocity": 115, "channel": 0}, {"type": "note_off", "time": 118, "note": 65, "velocity": 115, "channel": 0}, {"type": "note_on", "time": 11, "note": 63, "velocity": 115, "channel": 0}, {"type": "note_off", "time": 216, "note": 63, "velocity": 115, "channel": 0}, {"type": "note_on", "time": 9, "note": 62, "velocity": 112, "channel": 0}, {"type": "note_off", "time": 210, "note": 62, "velocity": 112, "channel": 0}, {"type": "note_on", "time": 13, "note": 60, "velocity": 106, "channel": 0}, {"type": "note_off", "time": 220, "note": 60, "velocity": 106, "channel": 0}, {"type": "note_on", "time": 13, "note": 58, "velocity": 104, "channel": 0}, {"type": "note_off", "time": 179, "note": 58, "velocity": 104, "channel": 0}, {"type": "note_on", "time": 61, "note": 53, "velocity": 98, "channel": 0}, {"type": "note_off", "time": 287, "note": 53, "velocity": 98, "channel": 0}, {"type": "note_on", "time": 0, "note": 55, "velocity": 100, "channel": 0}, {"type": "note_off", "time": 197, "note": 55, "velocity": 100, "channel": 0}, {"type": "note_on", "time": 15, "note": 57, "velocity": 99, "channel": 0}, {"type": "note_off", "time": 58, "note": 57, "velocity": 99, "channel": 0}, {"type": "note_on", "time": 22, "note": 58, "velocity": 102, "channel": 0}, {"type": "note_off", "time": 227, "note": 58, "velocity": 102, "channel": 0}, {"type": "note_on", "time": 1556, "note": 45, "velocity": 124, "channel": 0}, {"type": "note_off", "time": 215, "note": 45, "velocity": 124, "channel": 0}, {"type": "note_on", "time": 31, "note": 49, "velocity": 114, "channel": 0}, {"type": "note_off", "time": 130, "note": 49, "velocity": 114, "channel": 0}, {"type": "note_on", "time": 9, "note": 53, "velocity": 117, "channel": 0}, {"type": "note_off", "time": 207, "note": 53, "velocity": 117, "channel": 0}, {"type": "note_on", "time": 16, "note": 50, "velocity": 110, "channel": 0}, {"type": "note_off", "time": 185, "note": 50, "velocity": 110, "channel": 0}, {"type": "note_on", "time": 16, "note": 54, "velocity": 106, "channel": 0}, {"type": "note_off", "time": 255, "note": 54, "velocity": 106, "channel": 0}, {"type": "note_on", "time": 44, "note": 57, "velocity": 104, "channel": 0}, {"type": "note_off", "time": 232, "note": 57, "velocity": 104, "channel": 0}, {"type": "note_on", "time": 1628, "note": 57, "velocity": 109, "channel": 0}, {"type": "note_off", "time": 195, "note": 57, "velocity": 109, "channel": 0}, {"type": "note_on", "time": 27, "note": 54, "velocity": 99, "channel": 0}, {"type": "note_off", "time": 252, "note": 54, "velocity": 99, "channel": 0}, {"type": "note_on", "time": 41, "note": 55, "velocity": 103, "channel": 0}, {"type": "note_off", "time": 171, "note": 55, "velocity": 103, "channel": 0}, {"type": "note_on", "time": 19, "note": 57, "velocity": 102, "channel": 0}, {"type": "note_off", "time": 122, "note": 57, "velocity": 102, "channel": 0}, {"type": "note_on", "time": 49, "note": 58, "velocity": 102, "channel": 0}, {"type": "note_off", "time": 179, "note": 58, "velocity": 102, "channel": 0}, {"type": "note_on", "time": 13, "note": 60, "velocity": 109, "channel": 0}, {"type": "note_off", "time": 207, "note": 60, "velocity": 109, "channel": 0}, {"type": "note_on", "time": 13, "note": 61, "velocity": 107, "channel": 0}, {"type": "note_off", "time": 141, "note": 61, "velocity": 107, "channel": 0}, {"type": "note_on", "time": 11, "note": 62, "velocity": 111, "channel": 0}, {"type": "note_off", "time": 195, "note": 62, "velocity": 111, "channel": 0}, {"type": "note_on", "time": 15, "note": 65, "velocity": 116, "channel": 0}, {"type": "note_off", "time": 281, "note": 65, "velocity": 116, "channel": 0}, {"type": "note_on", "time": 5, "note": 63, "velocity": 119, "channel": 0}, {"type": "note_off", "time": 205, "note": 63, "velocity": 119, "channel": 0}, {"type": "note_on", "time": 19, "note": 62, "velocity": 109, "channel": 0}, {"type": "note_off", "time": 167, "note": 62, "velocity": 109, "channel": 0}, {"type": "note_on", "time": 7, "note": 60, "velocity": 111, "channel": 0}, {"type": "note_off", "time": 197, "note": 60, "velocity": 111, "channel": 0}, {"type": "note_on", "time": 11, "note": 59, "velocity": 102, "channel": 0}, {"type": "note_off", "time": 159, "note": 59, "velocity": 102, "channel": 0}, {"type": "note_on", "time": 9, "note": 57, "velocity": 105, "channel": 0}, {"type": "note_off", "time": 222, "note": 57, "velocity": 105, "channel": 0}, {"type": "note_on", "time": 21, "note": 55, "velocity": 105, "channel": 0}, {"type": "note_off", "time": 248, "note": 55, "velocity": 105, "channel": 0}, {"type": "note_on", "time": 13, "note": 57, "velocity": 101, "channel": 0}, {"type": "note_off", "time": 132, "note": 57, "velocity": 101, "channel": 0}, {"type": "note_on", "time": 3, "note": 59, "velocity": 80, "channel": 0}, {"type": "note_off", "time": 234, "note": 59, "velocity": 80, "channel": 0}, {"type": "note_on", "time": 19, "note": 55, "velocity": 105, "channel": 0}, {"type": "note_off", "time": 165, "note": 55, "velocity": 105, "channel": 0}, {"type": "note_on", "time": 31, "note": 60, "velocity": 113, "channel": 0}, {"type": "note_off", "time": 207, "note": 60, "velocity": 113, "channel": 0}, {"type": "note_on", "time": 13, "note": 62, "velocity": 122, "channel": 0}, {"type": "note_off", "time": 224, "note": 62, "velocity": 122, "channel": 0}, {"type": "note_on", "time": 19, "note": 63, "velocity": 118, "channel": 0}, {"type": "note_off", "time": 175, "note": 63, "velocity": 118, "channel": 0}, {"type": "note_on", "time": 9, "note": 65, "velocity": 108, "channel": 0}, {"type": "note_off", "time": 136, "note": 65, "velocity": 108, "channel": 0}, {"type": "note_on", "time": 15, "note": 67, "velocity": 118, "channel": 0}, {"type": "note_off", "time": 220, "note": 67, "velocity": 118, "channel": 0}, {"type": "note_on", "time": 1, "note": 70, "velocity": 121, "channel": 0}, {"type": "note_off", "time": 197, "note": 70, "velocity": 121, "channel": 0}, {"type": "note_on", "time": 1, "note": 69, "velocity": 116, "channel": 0}, {"type": "note_off", "time": 151, "note": 69, "velocity": 116, "channel": 0}, {"type": "note_on", "time": 5, "note": 69, "velocity": 118, "channel": 0}, {"type": "note_off", "time": 100, "note": 69, "velocity": 118, "channel": 0}, {"type": "note_on", "time": 18, "note": 68, "velocity": 111, "channel": 0}, {"type": "note_off", "time": 72, "note": 68, "velocity": 111, "channel": 0}, {"type": "note_on", "time": 12, "note": 66, "velocity": 112, "channel": 0}, {"type": "note_off", "time": 295, "note": 66, "velocity": 112, "channel": 0}, {"type": "note_on", "time": 22, "note": 62, "velocity": 111, "channel": 0}, {"type": "note_off", "time": 142, "note": 62, "velocity": 111, "channel": 0}, {"type": "note_on", "time": 8, "note": 63, "velocity": 111, "channel": 0}, {"type": "note_off", "time": 171, "note": 63, "velocity": 111, "channel": 0}, {"type": "note_on", "time": 9, "note": 66, "velocity": 96, "channel": 0}, {"type": "note_off", "time": 95, "note": 66, "velocity": 96, "channel": 0}, {"type": "note_on", "time": 21, "note": 68, "velocity": 105, "channel": 0}, {"type": "note_off", "time": 151, "note": 68, "velocity": 105, "channel": 0}, {"type": "note_on", "time": 9, "note": 73, "velocity": 121, "channel": 0}, {"type": "note_off", "time": 988, "note": 73, "velocity": 121, "channel": 0}, {"type": "note_on", "time": 9, "note": 69, "velocity": 109, "channel": 0}, {"type": "note_off", "time": 114, "note": 69, "velocity": 109, "channel": 0}, {"type": "note_on", "time": 14, "note": 66, "velocity": 112, "channel": 0}, {"type": "note_off", "time": 128, "note": 66, "velocity": 112, "channel": 0}, {"type": "note_on", "time": 15, "note": 63, "velocity": 114, "channel": 0}, {"type": "note_off", "time": 316, "note": 63, "velocity": 114, "channel": 0}, {"type": "note_on", "time": 16, "note": 61, "velocity": 112, "channel": 0}, {"type": "note_off", "time": 152, "note": 61, "velocity": 112, "channel": 0}, {"type": "note_on", "time": 8, "note": 62, "velocity": 123, "channel": 0}, {"type": "note_off", "time": 420, "note": 62, "velocity": 123, "channel": 0}, {"type": "note_on", "time": 8, "note": 63, "velocity": 119, "channel": 0}, {"type": "note_off", "time": 133, "note": 63, "velocity": 119, "channel": 0}, {"type": "note_on", "time": 37, "note": 69, "velocity": 116, "channel": 0}, {"type": "note_off", "time": 134, "note": 69, "velocity": 116, "channel": 0}, {"type": "note_on", "time": 1, "note": 72, "velocity": 117, "channel": 0}, {"type": "note_off", "time": 211, "note": 72, "velocity": 117, "channel": 0}, {"type": "note_on", "time": 1, "note": 69, "velocity": 117, "channel": 0}, {"type": "note_off", "time": 343, "note": 69, "velocity": 117, "channel": 0}, {"type": "note_on", "time": 941, "note": 61, "velocity": 105, "channel": 0}, {"type": "note_off", "time": 102, "note": 61, "velocity": 105, "channel": 0}, {"type": "note_on", "time": 13, "note": 62, "velocity": 123, "channel": 0}, {"type": "note_off", "time": 248, "note": 62, "velocity": 123, "channel": 0}, {"type": "note_on", "time": 11, "note": 65, "velocity": 123, "channel": 0}, {"type": "note_off", "time": 682, "note": 65, "velocity": 123, "channel": 0}, {"type": "note_on", "time": 11, "note": 63, "velocity": 122, "channel": 0}, {"type": "note_off", "time": 339, "note": 63, "velocity": 122, "channel": 0}, {"type": "note_on", "time": 13, "note": 66, "velocity": 99, "channel": 0}, {"type": "note_off", "time": 274, "note": 66, "velocity": 99, "channel": 0}, {"type": "note_on", "time": 29, "note": 67, "velocity": 94, "channel": 0}, {"type": "note_off", "time": 78, "note": 67, "velocity": 94, "channel": 0}, {"type": "note_on", "time": 13, "note": 68, "velocity": 104, "channel": 0}, {"type": "note_off", "time": 143, "note": 68, "velocity": 104, "channel": 0}, {"type": "note_on", "time": 1, "note": 73, "velocity": 121, "channel": 0}, {"type": "note_off", "time": 552, "note": 73, "velocity": 121, "channel": 0}, {"type": "note_on", "time": 17, "note": 69, "velocity": 113, "channel": 0}, {"type": "note_off", "time": 138, "note": 69, "velocity": 113, "channel": 0}, {"type": "note_on", "time": 15, "note": 66, "velocity": 114, "channel": 0}, {"type": "note_off", "time": 165, "note": 66, "velocity": 114, "channel": 0}, {"type": "note_on", "time": 1, "note": 63, "velocity": 105, "channel": 0}, {"type": "note_off", "time": 325, "note": 63, "velocity": 105, "channel": 0}, {"type": "note_on", "time": 307, "note": 72, "velocity": 104, "channel": 0}, {"type": "note_off", "time": 51, "note": 72, "velocity": 104, "channel": 0}, {"type": "note_on", "time": 3, "note": 73, "velocity": 118, "channel": 0}, {"type": "note_off", "time": 100, "note": 73, "velocity": 118, "channel": 0}, {"type": "note_on", "time": 15, "note": 72, "velocity": 120, "channel": 0}, {"type": "note_off", "time": 248, "note": 72, "velocity": 120, "channel": 0}, {"type": "note_on", "time": 9, "note": 69, "velocity": 109, "channel": 0}, {"type": "note_off", "time": 157, "note": 69, "velocity": 109, "channel": 0}, {"type": "note_on", "time": 11, "note": 65, "velocity": 112, "channel": 0}, {"type": "note_off", "time": 283, "note": 65, "velocity": 112, "channel": 0}, {"type": "note_on", "time": 5, "note": 62, "velocity": 112, "channel": 0}, {"type": "note_off", "time": 300, "note": 62, "velocity": 112, "channel": 0}, {"type": "note_on", "time": 229, "note": 65, "velocity": 86, "channel": 0}, {"type": "note_off", "time": 109, "note": 65, "velocity": 86, "channel": 0}, {"type": "note_on", "time": 30, "note": 67, "velocity": 80, "channel": 0}, {"type": "note_off", "time": 78, "note": 67, "velocity": 80, "channel": 0}, {"type": "note_on", "time": 23, "note": 69, "velocity": 96, "channel": 0}, {"type": "note_off", "time": 96, "note": 69, "velocity": 96, "channel": 0}, {"type": "note_on", "time": 6, "note": 72, "velocity": 113, "channel": 0}, {"type": "note_off", "time": 259, "note": 72, "velocity": 113, "channel": 0}, {"type": "note_on", "time": 6, "note": 69, "velocity": 101, "channel": 0}, {"type": "note_off", "time": 204, "note": 69, "velocity": 101, "channel": 0}, {"type": "note_on", "time": 4, "note": 71, "velocity": 118, "channel": 0}, {"type": "note_off", "time": 235, "note": 71, "velocity": 118, "channel": 0}, {"type": "note_on", "time": 17, "note": 75, "velocity": 109, "channel": 0}, {"type": "note_off", "time": 256, "note": 75, "velocity": 109, "channel": 0}, {"type": "note_on", "time": 161, "note": 71, "velocity": 117, "channel": 0}, {"type": "note_off", "time": 146, "note": 71, "velocity": 117, "channel": 0}, {"type": "note_on", "time": 4, "note": 68, "velocity": 117, "channel": 0}, {"type": "note_off", "time": 174, "note": 68, "velocity": 117, "channel": 0}, {"type": "note_on", "time": 10, "note": 64, "velocity": 122, "channel": 0}, {"type": "note_off", "time": 202, "note": 64, "velocity": 122, "channel": 0}, {"type": "note_on", "time": 8, "note": 61, "velocity": 110, "channel": 0}, {"type": "note_off", "time": 202, "note": 61, "velocity": 110, "channel": 0}, {"type": "note_on", "time": 630, "note": 61, "velocity": 117, "channel": 0}, {"type": "note_off", "time": 139, "note": 61, "velocity": 117, "channel": 0}, {"type": "note_on", "time": 11, "note": 62, "velocity": 120, "channel": 0}, {"type": "note_off", "time": 151, "note": 62, "velocity": 120, "channel": 0}, {"type": "note_on", "time": 29, "note": 65, "velocity": 120, "channel": 0}, {"type": "note_off", "time": 449, "note": 65, "velocity": 120, "channel": 0}, {"type": "note_on", "time": 37, "note": 62, "velocity": 111, "channel": 0}, {"type": "note_off", "time": 165, "note": 62, "velocity": 111, "channel": 0}, {"type": "note_on", "time": 7, "note": 63, "velocity": 124, "channel": 0}, {"type": "note_off", "time": 183, "note": 63, "velocity": 124, "channel": 0}, {"type": "note_on", "time": 13, "note": 65, "velocity": 107, "channel": 0}, {"type": "note_off", "time": 329, "note": 65, "velocity": 107, "channel": 0}, {"type": "note_on", "time": 41, "note": 70, "velocity": 100, "channel": 0}, {"type": "note_off", "time": 114, "note": 70, "velocity": 100, "channel": 0}, {"type": "note_on", "time": 9, "note": 74, "velocity": 115, "channel": 0}, {"type": "note_off", "time": 155, "note": 74, "velocity": 115, "channel": 0}, {"type": "note_on", "time": 3, "note": 72, "velocity": 109, "channel": 0}, {"type": "note_off", "time": 84, "note": 72, "velocity": 109, "channel": 0}, {"type": "note_on", "time": 11, "note": 67, "velocity": 102, "channel": 0}, {"type": "note_off", "time": 88, "note": 67, "velocity": 102, "channel": 0}, {"type": "note_on", "time": 23, "note": 63, "velocity": 105, "channel": 0}, {"type": "note_off", "time": 171, "note": 63, "velocity": 105, "channel": 0}, {"type": "note_on", "time": 13, "note": 65, "velocity": 101, "channel": 0}, {"type": "note_off", "time": 86, "note": 65, "velocity": 101, "channel": 0}, {"type": "note_on", "time": 17, "note": 69, "velocity": 110, "channel": 0}, {"type": "note_off", "time": 136, "note": 69, "velocity": 110, "channel": 0}, {"type": "note_on", "time": 0, "note": 72, "velocity": 112, "channel": 0}, {"type": "note_off", "time": 122, "note": 72, "velocity": 112, "channel": 0}, {"type": "note_on", "time": 23, "note": 70, "velocity": 111, "channel": 0}, {"type": "note_off", "time": 163, "note": 70, "velocity": 111, "channel": 0}, {"type": "note_on", "time": 35, "note": 69, "velocity": 113, "channel": 0}, {"type": "note_off", "time": 319, "note": 69, "velocity": 113, "channel": 0}, {"type": "note_on", "time": 88, "note": 67, "velocity": 100, "channel": 0}, {"type": "note_off", "time": 224, "note": 67, "velocity": 100, "channel": 0}, {"type": "note_on", "time": 1630, "note": 70, "velocity": 116, "channel": 0}, {"type": "note_off", "time": 242, "note": 70, "velocity": 116, "channel": 0}, {"type": "note_on", "time": 15, "note": 71, "velocity": 120, "channel": 0}, {"type": "note_off", "time": 122, "note": 71, "velocity": 120, "channel": 0}, {"type": "note_on", "time": 11, "note": 68, "velocity": 122, "channel": 0}, {"type": "note_off", "time": 250, "note": 68, "velocity": 122, "channel": 0}, {"type": "note_on", "time": 26, "note": 64, "velocity": 124, "channel": 0}, {"type": "note_off", "time": 193, "note": 64, "velocity": 124, "channel": 0}, {"type": "note_on", "time": 16, "note": 61, "velocity": 112, "channel": 0}, {"type": "note_off", "time": 141, "note": 61, "velocity": 112, "channel": 0}, {"type": "note_on", "time": 27, "note": 60, "velocity": 102, "channel": 0}, {"type": "note_off", "time": 132, "note": 60, "velocity": 102, "channel": 0}, {"type": "note_on", "time": 15, "note": 62, "velocity": 107, "channel": 0}, {"type": "note_off", "time": 120, "note": 62, "velocity": 107, "channel": 0}, {"type": "note_on", "time": 0, "note": 64, "velocity": 109, "channel": 0}, {"type": "note_off", "time": 136, "note": 64, "velocity": 109, "channel": 0}, {"type": "note_on", "time": 31, "note": 67, "velocity": 110, "channel": 0}, {"type": "note_off", "time": 96, "note": 67, "velocity": 110, "channel": 0}, {"type": "note_on", "time": 0, "note": 70, "velocity": 119, "channel": 0}, {"type": "note_off", "time": 155, "note": 70, "velocity": 119, "channel": 0}, {"type": "note_on", "time": 13, "note": 69, "velocity": 118, "channel": 0}, {"type": "note_off", "time": 189, "note": 69, "velocity": 118, "channel": 0}, {"type": "note_on", "time": 21, "note": 67, "velocity": 113, "channel": 0}, {"type": "note_off", "time": 175, "note": 67, "velocity": 113, "channel": 0}, {"type": "note_on", "time": 5, "note": 65, "velocity": 116, "channel": 0}, {"type": "note_off", "time": 210, "note": 65, "velocity": 116, "channel": 0}, {"type": "note_on", "time": 9, "note": 64, "velocity": 122, "channel": 0}, {"type": "note_off", "time": 186, "note": 64, "velocity": 122, "channel": 0}, {"type": "note_on", "time": 11, "note": 63, "velocity": 118, "channel": 0}, {"type": "note_off", "time": 253, "note": 63, "velocity": 118, "channel": 0}, {"type": "note_on", "time": 5, "note": 65, "velocity": 109, "channel": 0}, {"type": "note_off", "time": 177, "note": 65, "velocity": 109, "channel": 0}, {"type": "note_on", "time": 3, "note": 67, "velocity": 113, "channel": 0}, {"type": "note_off", "time": 212, "note": 67, "velocity": 113, "channel": 0}, {"type": "note_on", "time": 3, "note": 66, "velocity": 115, "channel": 0}, {"type": "note_off", "time": 126, "note": 66, "velocity": 115, "channel": 0}, {"type": "note_on", "time": 24, "note": 65, "velocity": 114, "channel": 0}, {"type": "note_off", "time": 260, "note": 65, "velocity": 114, "channel": 0}, {"type": "note_on", "time": 21, "note": 63, "velocity": 122, "channel": 0}, {"type": "note_off", "time": 191, "note": 63, "velocity": 122, "channel": 0}, {"type": "note_on", "time": 25, "note": 62, "velocity": 116, "channel": 0}, {"type": "note_off", "time": 175, "note": 62, "velocity": 116, "channel": 0}, {"type": "note_on", "time": 27, "note": 60, "velocity": 112, "channel": 0}, {"type": "note_off", "time": 205, "note": 60, "velocity": 112, "channel": 0}, {"type": "note_on", "time": 9, "note": 58, "velocity": 107, "channel": 0}, {"type": "note_off", "time": 147, "note": 58, "velocity": 107, "channel": 0}, {"type": "note_on", "time": 47, "note": 53, "velocity": 108, "channel": 0}, {"type": "note_off", "time": 222, "note": 53, "velocity": 108, "channel": 0}, {"type": "note_on", "time": 17, "note": 55, "velocity": 105, "channel": 0}, {"type": "note_off", "time": 116, "note": 55, "velocity": 105, "channel": 0}, {"type": "note_on", "time": 21, "note": 56, "velocity": 110, "channel": 0}, {"type": "note_off", "time": 116, "note": 56, "velocity": 110, "channel": 0}, {"type": "note_on", "time": 25, "note": 58, "velocity": 105, "channel": 0}, {"type": "note_off", "time": 167, "note": 58, "velocity": 105, "channel": 0}, {"type": "note_on", "time": 5, "note": 60, "velocity": 110, "channel": 0}, {"type": "note_off", "time": 122, "note": 60, "velocity": 110, "channel": 0}, {"type": "note_on", "time": 23, "note": 62, "velocity": 118, "channel": 0}, {"type": "note_off", "time": 116, "note": 62, "velocity": 118, "channel": 0}, {"type": "note_on", "time": 15, "note": 63, "velocity": 118, "channel": 0}, {"type": "note_off", "time": 114, "note": 63, "velocity": 118, "channel": 0}, {"type": "note_on", "time": 11, "note": 65, "velocity": 115, "channel": 0}, {"type": "note_off", "time": 134, "note": 65, "velocity": 115, "channel": 0}, {"type": "note_on", "time": 3, "note": 67, "velocity": 112, "channel": 0}, {"type": "note_off", "time": 100, "note": 67, "velocity": 112, "channel": 0}, {"type": "note_on", "time": 9, "note": 69, "velocity": 118, "channel": 0}, {"type": "note_off", "time": 108, "note": 69, "velocity": 118, "channel": 0}, {"type": "note_on", "time": 13, "note": 70, "velocity": 112, "channel": 0}, {"type": "note_off", "time": 1679, "note": 70, "velocity": 112, "channel": 0}, {"type": "note_on", "time": 5, "note": 73, "velocity": 119, "channel": 0}, {"type": "note_off", "time": 234, "note": 73, "velocity": 119, "channel": 0}, {"type": "note_on", "time": 19, "note": 70, "velocity": 113, "channel": 0}, {"type": "note_off", "time": 128, "note": 70, "velocity": 113, "channel": 0}, {"type": "note_on", "time": 21, "note": 68, "velocity": 117, "channel": 0}, {"type": "note_off", "time": 141, "note": 68, "velocity": 117, "channel": 0}, {"type": "note_on", "time": 9, "note": 66, "velocity": 113, "channel": 0}, {"type": "note_off", "time": 118, "note": 66, "velocity": 113, "channel": 0}, {"type": "note_on", "time": 9, "note": 63, "velocity": 119, "channel": 0}, {"type": "note_off", "time": 179, "note": 63, "velocity": 119, "channel": 0}, {"type": "note_on", "time": 5, "note": 61, "velocity": 113, "channel": 0}, {"type": "note_off", "time": 139, "note": 61, "velocity": 113, "channel": 0}, {"type": "note_on", "time": 21, "note": 63, "velocity": 117, "channel": 0}, {"type": "note_off", "time": 165, "note": 63, "velocity": 117, "channel": 0}, {"type": "note_on", "time": 5, "note": 65, "velocity": 111, "channel": 0}, {"type": "note_off", "time": 350, "note": 65, "velocity": 111, "channel": 0}, {"type": "note_on", "time": 1458, "note": 65, "velocity": 120, "channel": 0}, {"type": "note_off", "time": 212, "note": 65, "velocity": 120, "channel": 0}, {"type": "note_on", "time": 19, "note": 63, "velocity": 115, "channel": 0}, {"type": "note_off", "time": 189, "note": 63, "velocity": 115, "channel": 0}, {"type": "note_on", "time": 7, "note": 62, "velocity": 118, "channel": 0}, {"type": "note_off", "time": 145, "note": 62, "velocity": 118, "channel": 0}, {"type": "note_on", "time": 23, "note": 63, "velocity": 116, "channel": 0}, {"type": "note_off", "time": 201, "note": 63, "velocity": 116, "channel": 0}, {"type": "note_on", "time": 7, "note": 65, "velocity": 112, "channel": 0}, {"type": "note_off", "time": 274, "note": 65, "velocity": 112, "channel": 0}, {"type": "note_on", "time": 5, "note": 67, "velocity": 105, "channel": 0}, {"type": "note_off", "time": 226, "note": 67, "velocity": 105, "channel": 0}, {"type": "note_on", "time": 15, "note": 69, "velocity": 118, "channel": 0}, {"type": "note_off", "time": 175, "note": 69, "velocity": 118, "channel": 0}, {"type": "note_on", "time": 7, "note": 70, "velocity": 110, "channel": 0}, {"type": "note_off", "time": 205, "note": 70, "velocity": 110, "channel": 0}, {"type": "note_on", "time": 35, "note": 72, "velocity": 120, "channel": 0}, {"type": "note_off", "time": 163, "note": 72, "velocity": 120, "channel": 0}, {"type": "note_on", "time": 17, "note": 73, "velocity": 122, "channel": 0}, {"type": "note_off", "time": 914, "note": 73, "velocity": 122, "channel": 0}, {"type": "note_on", "time": 15, "note": 70, "velocity": 111, "channel": 0}, {"type": "note_off", "time": 74, "note": 70, "velocity": 111, "channel": 0}, {"type": "note_on", "time": 9, "note": 71, "velocity": 110, "channel": 0}, {"type": "note_off", "time": 74, "note": 71, "velocity": 110, "channel": 0}, {"type": "note_on", "time": 7, "note": 68, "velocity": 110, "channel": 0}, {"type": "note_off", "time": 137, "note": 68, "velocity": 110, "channel": 0}, {"type": "note_on", "time": 11, "note": 66, "velocity": 109, "channel": 0}, {"type": "note_off", "time": 154, "note": 66, "velocity": 109, "channel": 0}, {"type": "note_on", "time": 7, "note": 63, "velocity": 116, "channel": 0}, {"type": "note_off", "time": 145, "note": 63, "velocity": 116, "channel": 0}, {"type": "note_on", "time": 19, "note": 59, "velocity": 100, "channel": 0}, {"type": "note_off", "time": 70, "note": 59, "velocity": 100, "channel": 0}, {"type": "note_on", "time": 16, "note": 56, "velocity": 105, "channel": 0}, {"type": "note_off", "time": 124, "note": 56, "velocity": 105, "channel": 0}, {"type": "note_on", "time": 16, "note": 68, "velocity": 108, "channel": 0}, {"type": "note_off", "time": 180, "note": 68, "velocity": 108, "channel": 0}, {"type": "note_on", "time": 60, "note": 72, "velocity": 116, "channel": 0}, {"type": "note_off", "time": 450, "note": 72, "velocity": 116, "channel": 0}, {"type": "note_on", "time": 8, "note": 69, "velocity": 114, "channel": 0}, {"type": "note_off", "time": 133, "note": 69, "velocity": 114, "channel": 0}, {"type": "note_on", "time": 5, "note": 67, "velocity": 107, "channel": 0}, {"type": "note_off", "time": 96, "note": 67, "velocity": 107, "channel": 0}, {"type": "note_on", "time": 15, "note": 65, "velocity": 114, "channel": 0}, {"type": "note_off", "time": 117, "note": 65, "velocity": 114, "channel": 0}, {"type": "note_on", "time": 18, "note": 62, "velocity": 109, "channel": 0}, {"type": "note_off", "time": 259, "note": 62, "velocity": 109, "channel": 0}, {"type": "note_on", "time": 451, "note": 70, "velocity": 113, "channel": 0}, {"type": "note_off", "time": 85, "note": 70, "velocity": 113, "channel": 0}, {"type": "note_on", "time": 16, "note": 71, "velocity": 118, "channel": 0}, {"type": "note_off", "time": 534, "note": 71, "velocity": 118, "channel": 0}, {"type": "note_on", "time": 16, "note": 68, "velocity": 116, "channel": 0}, {"type": "note_off", "time": 182, "note": 68, "velocity": 116, "channel": 0}, {"type": "note_on", "time": 39, "note": 66, "velocity": 111, "channel": 0}, {"type": "note_off", "time": 120, "note": 66, "velocity": 111, "channel": 0}, {"type": "note_on", "time": 12, "note": 63, "velocity": 118, "channel": 0}, {"type": "note_off", "time": 225, "note": 63, "velocity": 118, "channel": 0}, {"type": "note_on", "time": 12, "note": 61, "velocity": 114, "channel": 0}, {"type": "note_off", "time": 208, "note": 61, "velocity": 114, "channel": 0}, {"type": "note_on", "time": 9, "note": 59, "velocity": 99, "channel": 0}, {"type": "note_off", "time": 162, "note": 59, "velocity": 99, "channel": 0}, {"type": "note_on", "time": 14, "note": 53, "velocity": 103, "channel": 0}, {"type": "note_off", "time": 406, "note": 53, "velocity": 103, "channel": 0}, {"type": "note_on", "time": 22, "note": 63, "velocity": 121, "channel": 0}, {"type": "note_off", "time": 224, "note": 63, "velocity": 121, "channel": 0}, {"type": "note_on", "time": 11, "note": 62, "velocity": 112, "channel": 0}, {"type": "note_off", "time": 180, "note": 62, "velocity": 112, "channel": 0}, {"type": "note_on", "time": 7, "note": 60, "velocity": 110, "channel": 0}, {"type": "note_off", "time": 213, "note": 60, "velocity": 110, "channel": 0}, {"type": "note_on", "time": 15, "note": 58, "velocity": 106, "channel": 0}, {"type": "note_off", "time": 159, "note": 58, "velocity": 106, "channel": 0}, {"type": "note_on", "time": 7, "note": 60, "velocity": 111, "channel": 0}, {"type": "note_off", "time": 227, "note": 60, "velocity": 111, "channel": 0}, {"type": "note_on", "time": 22, "note": 62, "velocity": 111, "channel": 0}, {"type": "note_off", "time": 165, "note": 62, "velocity": 111, "channel": 0}, {"type": "note_on", "time": 12, "note": 65, "velocity": 105, "channel": 0}, {"type": "note_off", "time": 99, "note": 65, "velocity": 105, "channel": 0}, {"type": "note_on", "time": 56, "note": 68, "velocity": 122, "channel": 0}, {"type": "note_off", "time": 272, "note": 68, "velocity": 122, "channel": 0}, {"type": "note_on", "time": 2184, "note": 67, "velocity": 116, "channel": 0}, {"type": "note_off", "time": 236, "note": 67, "velocity": 116, "channel": 0}, {"type": "note_on", "time": 31, "note": 64, "velocity": 120, "channel": 0}, {"type": "note_off", "time": 232, "note": 64, "velocity": 120, "channel": 0}, {"type": "note_on", "time": 12, "note": 62, "velocity": 117, "channel": 0}, {"type": "note_off", "time": 166, "note": 62, "velocity": 117, "channel": 0}, {"type": "note_on", "time": 45, "note": 60, "velocity": 109, "channel": 0}, {"type": "note_off", "time": 161, "note": 60, "velocity": 109, "channel": 0}, {"type": "note_on", "time": 55, "note": 59, "velocity": 105, "channel": 0}, {"type": "note_off", "time": 210, "note": 59, "velocity": 105, "channel": 0}, {"type": "note_on", "time": 11, "note": 61, "velocity": 120, "channel": 0}, {"type": "note_off", "time": 224, "note": 61, "velocity": 120, "channel": 0}, {"type": "note_on", "time": 6, "note": 63, "velocity": 120, "channel": 0}, {"type": "note_off", "time": 260, "note": 63, "velocity": 120, "channel": 0}, {"type": "note_on", "time": 3, "note": 66, "velocity": 119, "channel": 0}, {"type": "note_off", "time": 191, "note": 66, "velocity": 119, "channel": 0}, {"type": "note_on", "time": 10, "note": 65, "velocity": 116, "channel": 0}, {"type": "note_off", "time": 184, "note": 65, "velocity": 116, "channel": 0}, {"type": "note_on", "time": 30, "note": 64, "velocity": 123, "channel": 0}, {"type": "note_off", "time": 128, "note": 64, "velocity": 123, "channel": 0}, {"type": "note_on", "time": 27, "note": 63, "velocity": 122, "channel": 0}, {"type": "note_off", "time": 187, "note": 63, "velocity": 122, "channel": 0}, {"type": "note_on", "time": 25, "note": 62, "velocity": 113, "channel": 0}, {"type": "note_off", "time": 151, "note": 62, "velocity": 113, "channel": 0}, {"type": "note_on", "time": 25, "note": 60, "velocity": 110, "channel": 0}, {"type": "note_off", "time": 234, "note": 60, "velocity": 110, "channel": 0}, {"type": "note_on", "time": 19, "note": 58, "velocity": 102, "channel": 0}, {"type": "note_off", "time": 189, "note": 58, "velocity": 102, "channel": 0}, {"type": "note_on", "time": 29, "note": 53, "velocity": 90, "channel": 0}, {"type": "note_off", "time": 141, "note": 53, "velocity": 90, "channel": 0}, {"type": "note_on", "time": 107, "note": 66, "velocity": 102, "channel": 0}, {"type": "note_off", "time": 67, "note": 66, "velocity": 102, "channel": 0}, {"type": "note_on", "time": 11, "note": 67, "velocity": 106, "channel": 0}, {"type": "note_off", "time": 156, "note": 67, "velocity": 106, "channel": 0}, {"type": "note_on", "time": 6, "note": 68, "velocity": 108, "channel": 0}, {"type": "note_off", "time": 164, "note": 68, "velocity": 108, "channel": 0}, {"type": "note_on", "time": 8, "note": 66, "velocity": 120, "channel": 0}, {"type": "note_off", "time": 284, "note": 66, "velocity": 120, "channel": 0}, {"type": "note_on", "time": 5, "note": 67, "velocity": 95, "channel": 0}, {"type": "note_off", "time": 104, "note": 67, "velocity": 95, "channel": 0}, {"type": "note_on", "time": 192, "note": 65, "velocity": 112, "channel": 0}, {"type": "note_off", "time": 48, "note": 65, "velocity": 112, "channel": 0}, {"type": "note_on", "time": 6, "note": 67, "velocity": 115, "channel": 0}, {"type": "note_off", "time": 170, "note": 67, "velocity": 115, "channel": 0}, {"type": "note_on", "time": 15, "note": 66, "velocity": 116, "channel": 0}, {"type": "note_off", "time": 157, "note": 66, "velocity": 116, "channel": 0}, {"type": "note_on", "time": 17, "note": 65, "velocity": 114, "channel": 0}, {"type": "note_off", "time": 175, "note": 65, "velocity": 114, "channel": 0}, {"type": "note_on", "time": 17, "note": 63, "velocity": 123, "channel": 0}, {"type": "note_off", "time": 184, "note": 63, "velocity": 123, "channel": 0}, {"type": "note_on", "time": 4, "note": 62, "velocity": 112, "channel": 0}, {"type": "note_off", "time": 160, "note": 62, "velocity": 112, "channel": 0}, {"type": "note_on", "time": 42, "note": 68, "velocity": 113, "channel": 0}, {"type": "note_off", "time": 103, "note": 68, "velocity": 113, "channel": 0}, {"type": "note_on", "time": 0, "note": 71, "velocity": 110, "channel": 0}, {"type": "note_off", "time": 97, "note": 71, "velocity": 110, "channel": 0}, {"type": "note_on", "time": 10, "note": 70, "velocity": 118, "channel": 0}, {"type": "note_off", "time": 229, "note": 70, "velocity": 118, "channel": 0}, {"type": "note_on", "time": 61, "note": 65, "velocity": 109, "channel": 0}, {"type": "note_off", "time": 151, "note": 65, "velocity": 109, "channel": 0}, {"type": "note_on", "time": 0, "note": 69, "velocity": 120, "channel": 0}, {"type": "note_off", "time": 231, "note": 69, "velocity": 120, "channel": 0}, {"type": "note_on", "time": 11, "note": 70, "velocity": 121, "channel": 0}, {"type": "note_off", "time": 135, "note": 70, "velocity": 121, "channel": 0}, {"type": "note_on", "time": 32, "note": 65, "velocity": 113, "channel": 0}, {"type": "note_off", "time": 140, "note": 65, "velocity": 113, "channel": 0}, {"type": "note_on", "time": 58, "note": 63, "velocity": 120, "channel": 0}, {"type": "note_off", "time": 249, "note": 63, "velocity": 120, "channel": 0}, {"type": "note_on", "time": 12, "note": 62, "velocity": 116, "channel": 0}, {"type": "note_off", "time": 168, "note": 62, "velocity": 116, "channel": 0}, {"type": "note_on", "time": 8, "note": 65, "velocity": 116, "channel": 0}, {"type": "note_off", "time": 172, "note": 65, "velocity": 116, "channel": 0}, {"type": "note_on", "time": 10, "note": 62, "velocity": 117, "channel": 0}, {"type": "note_off", "time": 224, "note": 62, "velocity": 117, "channel": 0}, {"type": "note_on", "time": 26, "note": 60, "velocity": 109, "channel": 0}, {"type": "note_off", "time": 201, "note": 60, "velocity": 109, "channel": 0}, {"type": "note_on", "time": 11, "note": 58, "velocity": 102, "channel": 0}, {"type": "note_off", "time": 161, "note": 58, "velocity": 102, "channel": 0}, {"type": "note_on", "time": 100, "note": 60, "velocity": 109, "channel": 0}, {"type": "note_off", "time": 148, "note": 60, "velocity": 109, "channel": 0}, {"type": "note_on", "time": 22, "note": 62, "velocity": 112, "channel": 0}, {"type": "note_off", "time": 231, "note": 62, "velocity": 112, "channel": 0}, {"type": "note_on", "time": 30, "note": 65, "velocity": 104, "channel": 0}, {"type": "note_off", "time": 81, "note": 65, "velocity": 104, "channel": 0}, {"type": "note_on", "time": 15, "note": 70, "velocity": 114, "channel": 0}, {"type": "note_off", "time": 225, "note": 70, "velocity": 114, "channel": 0}, {"type": "note_on", "time": 4, "note": 66, "velocity": 115, "channel": 0}, {"type": "note_off", "time": 164, "note": 66, "velocity": 115, "channel": 0}, {"type": "note_on", "time": 9, "note": 64, "velocity": 122, "channel": 0}, {"type": "note_off", "time": 263, "note": 64, "velocity": 122, "channel": 0}, {"type": "note_on", "time": 20, "note": 59, "velocity": 94, "channel": 0}, {"type": "note_off", "time": 157, "note": 59, "velocity": 94, "channel": 0}, {"type": "note_on", "time": 80, "note": 67, "velocity": 114, "channel": 0}, {"type": "note_off", "time": 326, "note": 67, "velocity": 114, "channel": 0}, {"type": "note_on", "time": 242, "note": 58, "velocity": 99, "channel": 0}, {"type": "note_off", "time": 183, "note": 58, "velocity": 99, "channel": 0}, {"type": "note_on", "time": 20, "note": 60, "velocity": 110, "channel": 0}, {"type": "note_off", "time": 419, "note": 60, "velocity": 110, "channel": 0}, {"type": "note_on", "time": 17, "note": 62, "velocity": 114, "channel": 0}, {"type": "note_off", "time": 116, "note": 62, "velocity": 114, "channel": 0}, {"type": "note_on", "time": 15, "note": 63, "velocity": 118, "channel": 0}, {"type": "note_off", "time": 1147, "note": 63, "velocity": 118, "channel": 0}, {"type": "note_on", "time": 1756, "note": 65, "velocity": 117, "channel": 0}, {"type": "note_off", "time": 185, "note": 65, "velocity": 117, "channel": 0}, {"type": "note_on", "time": 106, "note": 68, "velocity": 111, "channel": 0}, {"type": "note_off", "time": 100, "note": 68, "velocity": 111, "channel": 0}, {"type": "note_on", "time": 241, "note": 75, "velocity": 116, "channel": 0}, {"type": "note_off", "time": 123, "note": 75, "velocity": 116, "channel": 0}, {"type": "note_on", "time": 61, "note": 75, "velocity": 108, "channel": 0}, {"type": "note_off", "time": 112, "note": 75, "velocity": 108, "channel": 0}, {"type": "note_on", "time": 33, "note": 79, "velocity": 124, "channel": 0}, {"type": "note_off", "time": 325, "note": 79, "velocity": 124, "channel": 0}, {"type": "note_on", "time": 22, "note": 80, "velocity": 116, "channel": 0}, {"type": "note_off", "time": 123, "note": 80, "velocity": 116, "channel": 0}, {"type": "note_on", "time": 16, "note": 79, "velocity": 117, "channel": 0}, {"type": "note_off", "time": 257, "note": 79, "velocity": 117, "channel": 0}, {"type": "note_on", "time": 117, "note": 75, "velocity": 102, "channel": 0}, {"type": "note_off", "time": 117, "note": 75, "velocity": 102, "channel": 0}, {"type": "note_on", "time": 16, "note": 72, "velocity": 109, "channel": 0}, {"type": "note_off", "time": 123, "note": 72, "velocity": 109, "channel": 0}, {"type": "note_on", "time": 44, "note": 68, "velocity": 120, "channel": 0}, {"type": "note_off", "time": 84, "note": 68, "velocity": 120, "channel": 0}, {"type": "note_on", "time": 22, "note": 67, "velocity": 111, "channel": 0}, {"type": "note_off", "time": 117, "note": 67, "velocity": 111, "channel": 0}, {"type": "note_on", "time": 39, "note": 65, "velocity": 112, "channel": 0}, {"type": "note_off", "time": 117, "note": 65, "velocity": 112, "channel": 0}, {"type": "note_on", "time": 39, "note": 64, "velocity": 114, "channel": 0}, {"type": "note_off", "time": 224, "note": 64, "velocity": 114, "channel": 0}, {"type": "note_on", "time": 5, "note": 65, "velocity": 102, "channel": 0}, {"type": "note_off", "time": 78, "note": 65, "velocity": 102, "channel": 0}, {"type": "note_on", "time": 8, "note": 70, "velocity": 109, "channel": 0}, {"type": "note_off", "time": 123, "note": 70, "velocity": 109, "channel": 0}, {"type": "note_on", "time": 5, "note": 73, "velocity": 117, "channel": 0}, {"type": "note_off", "time": 117, "note": 73, "velocity": 117, "channel": 0}, {"type": "note_on", "time": 16, "note": 74, "velocity": 118, "channel": 0}, {"type": "note_off", "time": 257, "note": 74, "velocity": 118, "channel": 0}, {"type": "note_on", "time": 8, "note": 72, "velocity": 115, "channel": 0}, {"type": "note_off", "time": 126, "note": 72, "velocity": 115, "channel": 0}, {"type": "note_on", "time": 53, "note": 70, "velocity": 109, "channel": 0}, {"type": "note_off", "time": 190, "note": 70, "velocity": 109, "channel": 0}, {"type": "note_on", "time": 82, "note": 67, "velocity": 113, "channel": 0}, {"type": "note_off", "time": 118, "note": 67, "velocity": 113, "channel": 0}, {"type": "note_on", "time": 11, "note": 68, "velocity": 117, "channel": 0}, {"type": "note_off", "time": 128, "note": 68, "velocity": 117, "channel": 0}, {"type": "note_on", "time": 13, "note": 71, "velocity": 114, "channel": 0}, {"type": "note_off", "time": 153, "note": 71, "velocity": 114, "channel": 0}, {"type": "note_on", "time": 31, "note": 68, "velocity": 112, "channel": 0}, {"type": "note_off", "time": 82, "note": 68, "velocity": 112, "channel": 0}, {"type": "note_on", "time": 23, "note": 67, "velocity": 103, "channel": 0}, {"type": "note_off", "time": 102, "note": 67, "velocity": 103, "channel": 0}, {"type": "note_on", "time": 86, "note": 63, "velocity": 114, "channel": 0}, {"type": "note_off", "time": 189, "note": 63, "velocity": 114, "channel": 0}, {"type": "note_on", "time": 256, "note": 55, "velocity": 101, "channel": 0}, {"type": "note_off", "time": 122, "note": 55, "velocity": 101, "channel": 0}, {"type": "note_on", "time": 41, "note": 61, "velocity": 118, "channel": 0}, {"type": "note_off", "time": 51, "note": 61, "velocity": 118, "channel": 0}, {"type": "note_on", "time": 15, "note": 62, "velocity": 118, "channel": 0}, {"type": "note_off", "time": 376, "note": 62, "velocity": 118, "channel": 0}, {"type": "note_on", "time": 1541, "note": 73, "velocity": 118, "channel": 0}, {"type": "note_off", "time": 141, "note": 73, "velocity": 118, "channel": 0}, {"type": "note_on", "time": 11, "note": 70, "velocity": 115, "channel": 0}, {"type": "note_off", "time": 122, "note": 70, "velocity": 115, "channel": 0}, {"type": "note_on", "time": 35, "note": 66, "velocity": 113, "channel": 0}, {"type": "note_off", "time": 208, "note": 66, "velocity": 113, "channel": 0}, {"type": "note_on", "time": 59, "note": 70, "velocity": 117, "channel": 0}, {"type": "note_off", "time": 248, "note": 70, "velocity": 117, "channel": 0}, {"type": "note_on", "time": 74, "note": 66, "velocity": 109, "channel": 0}, {"type": "note_off", "time": 98, "note": 66, "velocity": 109, "channel": 0}, {"type": "note_on", "time": 3, "note": 69, "velocity": 117, "channel": 0}, {"type": "note_off", "time": 216, "note": 69, "velocity": 117, "channel": 0}, {"type": "note_on", "time": 43, "note": 71, "velocity": 117, "channel": 0}, {"type": "note_off", "time": 149, "note": 71, "velocity": 117, "channel": 0}, {"type": "note_on", "time": 31, "note": 68, "velocity": 120, "channel": 0}, {"type": "note_off", "time": 177, "note": 68, "velocity": 120, "channel": 0}, {"type": "note_on", "time": 55, "note": 64, "velocity": 122, "channel": 0}, {"type": "note_off", "time": 169, "note": 64, "velocity": 122, "channel": 0}, {"type": "note_on", "time": 78, "note": 59, "velocity": 97, "channel": 0}, {"type": "note_off", "time": 149, "note": 59, "velocity": 97, "channel": 0}, {"type": "note_on", "time": 67, "note": 55, "velocity": 105, "channel": 0}, {"type": "note_off", "time": 165, "note": 55, "velocity": 105, "channel": 0}, {"type": "note_on", "time": 27, "note": 60, "velocity": 115, "channel": 0}, {"type": "note_off", "time": 90, "note": 60, "velocity": 115, "channel": 0}, {"type": "note_on", "time": 27, "note": 62, "velocity": 123, "channel": 0}, {"type": "note_off", "time": 780, "note": 62, "velocity": 123, "channel": 0}, {"type": "note_on", "time": 15, "note": 63, "velocity": 123, "channel": 0}, {"type": "note_off", "time": 149, "note": 63, "velocity": 123, "channel": 0}, {"type": "note_on", "time": 7, "note": 65, "velocity": 117, "channel": 0}, {"type": "note_off", "time": 130, "note": 65, "velocity": 117, "channel": 0}, {"type": "note_on", "time": 70, "note": 67, "velocity": 114, "channel": 0}, {"type": "note_off", "time": 193, "note": 67, "velocity": 114, "channel": 0}, {"type": "note_on", "time": 31, "note": 63, "velocity": 121, "channel": 0}, {"type": "note_off", "time": 189, "note": 63, "velocity": 121, "channel": 0}, {"type": "note_on", "time": 31, "note": 62, "velocity": 117, "channel": 0}, {"type": "note_off", "time": 181, "note": 62, "velocity": 117, "channel": 0}, {"type": "note_on", "time": 21, "note": 60, "velocity": 107, "channel": 0}, {"type": "note_off", "time": 177, "note": 60, "velocity": 107, "channel": 0}, {"type": "note_on", "time": 37, "note": 59, "velocity": 104, "channel": 0}, {"type": "note_off", "time": 126, "note": 59, "velocity": 104, "channel": 0}, {"type": "note_on", "time": 17, "note": 58, "velocity": 101, "channel": 0}, {"type": "note_off", "time": 212, "note": 58, "velocity": 101, "channel": 0}, {"type": "note_on", "time": 34, "note": 57, "velocity": 109, "channel": 0}, {"type": "note_off", "time": 137, "note": 57, "velocity": 109, "channel": 0}, {"type": "note_on", "time": 14, "note": 56, "velocity": 115, "channel": 0}, {"type": "note_off", "time": 153, "note": 56, "velocity": 115, "channel": 0}, {"type": "note_on", "time": 56, "note": 55, "velocity": 112, "channel": 0}, {"type": "note_off", "time": 117, "note": 55, "velocity": 112, "channel": 0}, {"type": "note_on", "time": 39, "note": 53, "velocity": 100, "channel": 0}, {"type": "note_off", "time": 216, "note": 53, "velocity": 100, "channel": 0}, {"type": "note_on", "time": 46, "note": 56, "velocity": 115, "channel": 0}, {"type": "note_off", "time": 173, "note": 56, "velocity": 115, "channel": 0}, {"type": "note_on", "time": 25, "note": 60, "velocity": 106, "channel": 0}, {"type": "note_off", "time": 145, "note": 60, "velocity": 106, "channel": 0}, {"type": "note_on", "time": 14, "note": 63, "velocity": 108, "channel": 0}, {"type": "note_off", "time": 128, "note": 63, "velocity": 108, "channel": 0}, {"type": "note_on", "time": 19, "note": 67, "velocity": 110, "channel": 0}, {"type": "note_off", "time": 100, "note": 67, "velocity": 110, "channel": 0}, {"type": "note_on", "time": 11, "note": 70, "velocity": 121, "channel": 0}, {"type": "note_off", "time": 197, "note": 70, "velocity": 121, "channel": 0}, {"type": "note_on", "time": 985, "note": 68, "velocity": 102, "channel": 0}, {"type": "note_off", "time": 94, "note": 68, "velocity": 102, "channel": 0}, {"type": "note_on", "time": 3, "note": 66, "velocity": 98, "channel": 0}, {"type": "note_off", "time": 102, "note": 66, "velocity": 98, "channel": 0}, {"type": "note_on", "time": 39, "note": 57, "velocity": 105, "channel": 0}, {"type": "note_off", "time": 140, "note": 57, "velocity": 105, "channel": 0}, {"type": "note_on", "time": 13, "note": 61, "velocity": 114, "channel": 0}, {"type": "note_off", "time": 110, "note": 61, "velocity": 114, "channel": 0}, {"type": "note_on", "time": 15, "note": 63, "velocity": 107, "channel": 0}, {"type": "note_off", "time": 51, "note": 63, "velocity": 107, "channel": 0}, {"type": "note_on", "time": 0, "note": 66, "velocity": 102, "channel": 0}, {"type": "note_off", "time": 82, "note": 66, "velocity": 102, "channel": 0}, {"type": "note_on", "time": 27, "note": 68, "velocity": 114, "channel": 0}, {"type": "note_off", "time": 177, "note": 68, "velocity": 114, "channel": 0}, {"type": "note_on", "time": 17, "note": 73, "velocity": 117, "channel": 0}, {"type": "note_off", "time": 181, "note": 73, "velocity": 117, "channel": 0}, {"type": "note_on", "time": 664, "note": 55, "velocity": 110, "channel": 0}, {"type": "note_off", "time": 78, "note": 55, "velocity": 110, "channel": 0}, {"type": "note_on", "time": 7, "note": 56, "velocity": 114, "channel": 0}, {"type": "note_off", "time": 110, "note": 56, "velocity": 114, "channel": 0}, {"type": "note_on", "time": 39, "note": 58, "velocity": 104, "channel": 0}, {"type": "note_off", "time": 90, "note": 58, "velocity": 104, "channel": 0}, {"type": "note_on", "time": 35, "note": 60, "velocity": 109, "channel": 0}, {"type": "note_off", "time": 95, "note": 60, "velocity": 109, "channel": 0}, {"type": "note_on", "time": 24, "note": 62, "velocity": 118, "channel": 0}, {"type": "note_off", "time": 69, "note": 62, "velocity": 118, "channel": 0}, {"type": "note_on", "time": 1, "note": 63, "velocity": 120, "channel": 0}, {"type": "note_off", "time": 82, "note": 63, "velocity": 120, "channel": 0}, {"type": "note_on", "time": 19, "note": 65, "velocity": 111, "channel": 0}, {"type": "note_off", "time": 120, "note": 65, "velocity": 111, "channel": 0}, {"type": "note_on", "time": 45, "note": 62, "velocity": 112, "channel": 0}, {"type": "note_off", "time": 128, "note": 62, "velocity": 112, "channel": 0}, {"type": "note_on", "time": 14, "note": 63, "velocity": 109, "channel": 0}, {"type": "note_off", "time": 120, "note": 63, "velocity": 109, "channel": 0}, {"type": "note_on", "time": 33, "note": 67, "velocity": 100, "channel": 0}, {"type": "note_off", "time": 86, "note": 67, "velocity": 100, "channel": 0}, {"type": "note_on", "time": 19, "note": 70, "velocity": 107, "channel": 0}, {"type": "note_off", "time": 151, "note": 70, "velocity": 107, "channel": 0}, {"type": "note_on", "time": 39, "note": 75, "velocity": 116, "channel": 0}, {"type": "note_off", "time": 274, "note": 75, "velocity": 116, "channel": 0}, {"type": "note_on", "time": 961, "note": 48, "velocity": 122, "channel": 0}, {"type": "note_off", "time": 98, "note": 48, "velocity": 122, "channel": 0}, {"type": "note_on", "time": 14, "note": 50, "velocity": 117, "channel": 0}, {"type": "note_off", "time": 95, "note": 50, "velocity": 117, "channel": 0}, {"type": "note_on", "time": 11, "note": 53, "velocity": 116, "channel": 0}, {"type": "note_off", "time": 140, "note": 53, "velocity": 116, "channel": 0}, {"type": "note_on", "time": 47, "note": 51, "velocity": 116, "channel": 0}, {"type": "note_off", "time": 176, "note": 51, "velocity": 116, "channel": 0}, {"type": "note_on", "time": 2, "note": 53, "velocity": 106, "channel": 0}, {"type": "note_off", "time": 103, "note": 53, "velocity": 106, "channel": 0}, {"type": "note_on", "time": 25, "note": 55, "velocity": 110, "channel": 0}, {"type": "note_off", "time": 117, "note": 55, "velocity": 110, "channel": 0}, {"type": "note_on", "time": 19, "note": 57, "velocity": 109, "channel": 0}, {"type": "note_off", "time": 151, "note": 57, "velocity": 109, "channel": 0}, {"type": "note_on", "time": 19, "note": 58, "velocity": 104, "channel": 0}, {"type": "note_off", "time": 134, "note": 58, "velocity": 104, "channel": 0}, {"type": "note_on", "time": 8, "note": 61, "velocity": 116, "channel": 0}, {"type": "note_off", "time": 134, "note": 61, "velocity": 116, "channel": 0}, {"type": "note_on", "time": 19, "note": 63, "velocity": 115, "channel": 0}, {"type": "note_off", "time": 126, "note": 63, "velocity": 115, "channel": 0}, {"type": "note_on", "time": 16, "note": 65, "velocity": 107, "channel": 0}, {"type": "note_off", "time": 260, "note": 65, "velocity": 107, "channel": 0}, {"type": "note_on", "time": 30, "note": 67, "velocity": 103, "channel": 0}, {"type": "note_off", "time": 92, "note": 67, "velocity": 103, "channel": 0}, {"type": "note_on", "time": 11, "note": 69, "velocity": 107, "channel": 0}, {"type": "note_off", "time": 89, "note": 69, "velocity": 107, "channel": 0}, {"type": "note_on", "time": 8, "note": 71, "velocity": 106, "channel": 0}, {"type": "note_off", "time": 92, "note": 71, "velocity": 106, "channel": 0}, {"type": "note_on", "time": 25, "note": 73, "velocity": 119, "channel": 0}, {"type": "note_off", "time": 347, "note": 73, "velocity": 119, "channel": 0}, {"type": "note_on", "time": 215, "note": 71, "velocity": 117, "channel": 0}, {"type": "note_off", "time": 106, "note": 71, "velocity": 117, "channel": 0}, {"type": "note_on", "time": 28, "note": 69, "velocity": 110, "channel": 0}, {"type": "note_off", "time": 145, "note": 69, "velocity": 110, "channel": 0}, {"type": "note_on", "time": 19, "note": 68, "velocity": 118, "channel": 0}, {"type": "note_off", "time": 482, "note": 68, "velocity": 118, "channel": 0}, {"type": "note_on", "time": 42, "note": 66, "velocity": 110, "channel": 0}, {"type": "note_off", "time": 232, "note": 66, "velocity": 110, "channel": 0}, {"type": "note_on", "time": 22, "note": 65, "velocity": 115, "channel": 0}, {"type": "note_off", "time": 386, "note": 65, "velocity": 115, "channel": 0}, {"type": "note_on", "time": 224, "note": 57, "velocity": 101, "channel": 0}, {"type": "note_off", "time": 100, "note": 57, "velocity": 101, "channel": 0}, {"type": "note_on", "time": 8, "note": 61, "velocity": 115, "channel": 0}, {"type": "note_off", "time": 210, "note": 61, "velocity": 115, "channel": 0}, {"type": "note_on", "time": 16, "note": 62, "velocity": 117, "channel": 0}, {"type": "note_off", "time": 443, "note": 62, "velocity": 117, "channel": 0}, {"type": "note_on", "time": 5, "note": 65, "velocity": 109, "channel": 0}, {"type": "note_off", "time": 140, "note": 65, "velocity": 109, "channel": 0}, {"type": "note_on", "time": 61, "note": 70, "velocity": 118, "channel": 0}, {"type": "note_off", "time": 605, "note": 70, "velocity": 118, "channel": 0}, {"type": "note_on", "time": 2074, "note": 45, "velocity": 119, "channel": 0}, {"type": "note_off", "time": 157, "note": 45, "velocity": 119, "channel": 0}, {"type": "note_on", "time": 32, "note": 50, "velocity": 115, "channel": 0}, {"type": "note_off", "time": 148, "note": 50, "velocity": 115, "channel": 0}, {"type": "note_on", "time": 36, "note": 55, "velocity": 120, "channel": 0}, {"type": "note_off", "time": 137, "note": 55, "velocity": 120, "channel": 0}, {"type": "note_on", "time": 61, "note": 49, "velocity": 112, "channel": 0}, {"type": "note_off", "time": 92, "note": 49, "velocity": 112, "channel": 0}, {"type": "note_on", "time": 19, "note": 51, "velocity": 115, "channel": 0}, {"type": "note_off", "time": 76, "note": 51, "velocity": 115, "channel": 0}, {"type": "note_on", "time": 39, "note": 53, "velocity": 111, "channel": 0}, {"type": "note_off", "time": 67, "note": 53, "velocity": 111, "channel": 0}, {"type": "note_on", "time": 41, "note": 56, "velocity": 113, "channel": 0}, {"type": "note_off", "time": 100, "note": 56, "velocity": 113, "channel": 0}, {"type": "note_on", "time": 34, "note": 58, "velocity": 101, "channel": 0}, {"type": "note_off", "time": 134, "note": 58, "velocity": 101, "channel": 0}, {"type": "note_on", "time": 39, "note": 65, "velocity": 108, "channel": 0}, {"type": "note_off", "time": 169, "note": 65, "velocity": 108, "channel": 0}, {"type": "note_on", "time": 85, "note": 58, "velocity": 106, "channel": 0}, {"type": "note_off", "time": 142, "note": 58, "velocity": 106, "channel": 0}, {"type": "note_on", "time": 14, "note": 61, "velocity": 123, "channel": 0}, {"type": "note_off", "time": 120, "note": 61, "velocity": 123, "channel": 0}, {"type": "note_on", "time": 14, "note": 63, "velocity": 120, "channel": 0}, {"type": "note_off", "time": 89, "note": 63, "velocity": 120, "channel": 0}, {"type": "note_on", "time": 32, "note": 66, "velocity": 116, "channel": 0}, {"type": "note_off", "time": 90, "note": 66, "velocity": 116, "channel": 0}, {"type": "note_on", "time": 6, "note": 65, "velocity": 117, "channel": 0}, {"type": "note_off", "time": 145, "note": 65, "velocity": 117, "channel": 0}, {"type": "note_on", "time": 911, "note": 64, "velocity": 120, "channel": 0}, {"type": "note_off", "time": 123, "note": 64, "velocity": 120, "channel": 0}, {"type": "note_on", "time": 22, "note": 65, "velocity": 110, "channel": 0}, {"type": "note_off", "time": 137, "note": 65, "velocity": 110, "channel": 0}, {"type": "note_on", "time": 14, "note": 68, "velocity": 107, "channel": 0}, {"type": "note_off", "time": 114, "note": 68, "velocity": 107, "channel": 0}, {"type": "note_on", "time": 47, "note": 58, "velocity": 108, "channel": 0}, {"type": "note_off", "time": 89, "note": 58, "velocity": 108, "channel": 0}, {"type": "note_on", "time": 8, "note": 60, "velocity": 110, "channel": 0}, {"type": "note_off", "time": 70, "note": 60, "velocity": 110, "channel": 0}, {"type": "note_on", "time": 8, "note": 61, "velocity": 116, "channel": 0}, {"type": "note_off", "time": 112, "note": 61, "velocity": 116, "channel": 0}, {"type": "note_on", "time": 16, "note": 62, "velocity": 118, "channel": 0}, {"type": "note_off", "time": 92, "note": 62, "velocity": 118, "channel": 0}, {"type": "note_on", "time": 28, "note": 67, "velocity": 114, "channel": 0}, {"type": "note_off", "time": 128, "note": 67, "velocity": 114, "channel": 0}, {"type": "note_on", "time": 22, "note": 66, "velocity": 116, "channel": 0}, {"type": "note_off", "time": 72, "note": 66, "velocity": 116, "channel": 0}, {"type": "note_on", "time": 19, "note": 65, "velocity": 116, "channel": 0}, {"type": "note_off", "time": 89, "note": 65, "velocity": 116, "channel": 0}, {"type": "note_on", "time": 47, "note": 63, "velocity": 121, "channel": 0}, {"type": "note_off", "time": 142, "note": 63, "velocity": 121, "channel": 0}, {"type": "note_on", "time": 22, "note": 62, "velocity": 113, "channel": 0}, {"type": "note_off", "time": 145, "note": 62, "velocity": 113, "channel": 0}, {"type": "note_on", "time": 8, "note": 65, "velocity": 108, "channel": 0}, {"type": "note_off", "time": 283, "note": 65, "velocity": 108, "channel": 0}, {"type": "note_on", "time": 8, "note": 67, "velocity": 101, "channel": 0}, {"type": "note_off", "time": 51, "note": 67, "velocity": 101, "channel": 0}, {"type": "note_on", "time": 17, "note": 69, "velocity": 110, "channel": 0}, {"type": "note_off", "time": 143, "note": 69, "velocity": 110, "channel": 0}, {"type": "note_on", "time": 15, "note": 72, "velocity": 115, "channel": 0}, {"type": "note_off", "time": 169, "note": 72, "velocity": 115, "channel": 0}, {"type": "note_on", "time": 11, "note": 71, "velocity": 107, "channel": 0}, {"type": "note_off", "time": 106, "note": 71, "velocity": 107, "channel": 0}, {"type": "note_on", "time": 9, "note": 69, "velocity": 114, "channel": 0}, {"type": "note_off", "time": 141, "note": 69, "velocity": 114, "channel": 0}, {"type": "note_on", "time": 13, "note": 71, "velocity": 110, "channel": 0}, {"type": "note_off", "time": 159, "note": 71, "velocity": 110, "channel": 0}, {"type": "note_on", "time": 15, "note": 68, "velocity": 120, "channel": 0}, {"type": "note_off", "time": 220, "note": 68, "velocity": 120, "channel": 0}, {"type": "note_on", "time": 11, "note": 64, "velocity": 115, "channel": 0}, {"type": "note_off", "time": 199, "note": 64, "velocity": 115, "channel": 0}, {"type": "note_on", "time": 29, "note": 61, "velocity": 114, "channel": 0}, {"type": "note_off", "time": 208, "note": 61, "velocity": 114, "channel": 0}, {"type": "note_on", "time": 41, "note": 64, "velocity": 114, "channel": 0}, {"type": "note_off", "time": 167, "note": 64, "velocity": 114, "channel": 0}, {"type": "note_on", "time": 5, "note": 66, "velocity": 104, "channel": 0}, {"type": "note_off", "time": 51, "note": 66, "velocity": 104, "channel": 0}, {"type": "note_on", "time": 7, "note": 70, "velocity": 114, "channel": 0}, {"type": "note_off", "time": 153, "note": 70, "velocity": 114, "channel": 0}, {"type": "note_on", "time": 13, "note": 69, "velocity": 115, "channel": 0}, {"type": "note_off", "time": 151, "note": 69, "velocity": 115, "channel": 0}, {"type": "note_on", "time": 29, "note": 67, "velocity": 110, "channel": 0}, {"type": "note_off", "time": 189, "note": 67, "velocity": 110, "channel": 0}, {"type": "note_on", "time": 19, "note": 66, "velocity": 115, "channel": 0}, {"type": "note_off", "time": 193, "note": 66, "velocity": 115, "channel": 0}, {"type": "note_on", "time": 15, "note": 64, "velocity": 119, "channel": 0}, {"type": "note_off", "time": 163, "note": 64, "velocity": 119, "channel": 0}, {"type": "note_on", "time": 37, "note": 63, "velocity": 117, "channel": 0}, {"type": "note_off", "time": 201, "note": 63, "velocity": 117, "channel": 0}, {"type": "note_on", "time": 5, "note": 66, "velocity": 103, "channel": 0}, {"type": "note_off", "time": 193, "note": 66, "velocity": 103, "channel": 0}, {"type": "note_on", "time": 5, "note": 69, "velocity": 113, "channel": 0}, {"type": "note_off", "time": 228, "note": 69, "velocity": 113, "channel": 0}, {"type": "note_on", "time": 15, "note": 66, "velocity": 102, "channel": 0}, {"type": "note_off", "time": 187, "note": 66, "velocity": 102, "channel": 0}, {"type": "note_on", "time": 49, "note": 72, "velocity": 113, "channel": 0}, {"type": "note_off", "time": 189, "note": 72, "velocity": 113, "channel": 0}, {"type": "note_on", "time": 1, "note": 73, "velocity": 117, "channel": 0}, {"type": "note_off", "time": 130, "note": 73, "velocity": 117, "channel": 0}, {"type": "note_on", "time": 9, "note": 72, "velocity": 115, "channel": 0}, {"type": "note_off", "time": 90, "note": 72, "velocity": 115, "channel": 0}, {"type": "note_on", "time": 31, "note": 71, "velocity": 111, "channel": 0}, {"type": "note_off", "time": 201, "note": 71, "velocity": 111, "channel": 0}, {"type": "note_on", "time": 17, "note": 69, "velocity": 115, "channel": 0}, {"type": "note_off", "time": 189, "note": 69, "velocity": 115, "channel": 0}, {"type": "note_on", "time": 17, "note": 68, "velocity": 113, "channel": 0}, {"type": "note_off", "time": 179, "note": 68, "velocity": 113, "channel": 0}, {"type": "note_on", "time": 23, "note": 66, "velocity": 116, "channel": 0}, {"type": "note_off", "time": 163, "note": 66, "velocity": 116, "channel": 0}, {"type": "note_on", "time": 13, "note": 65, "velocity": 117, "channel": 0}, {"type": "note_off", "time": 120, "note": 65, "velocity": 117, "channel": 0}, {"type": "note_on", "time": 33, "note": 63, "velocity": 119, "channel": 0}, {"type": "note_off", "time": 199, "note": 63, "velocity": 119, "channel": 0}, {"type": "note_on", "time": 29, "note": 62, "velocity": 115, "channel": 0}, {"type": "note_off", "time": 161, "note": 62, "velocity": 115, "channel": 0}, {"type": "note_on", "time": 5, "note": 63, "velocity": 113, "channel": 0}, {"type": "note_off", "time": 147, "note": 63, "velocity": 113, "channel": 0}, {"type": "note_on", "time": 13, "note": 65, "velocity": 110, "channel": 0}, {"type": "note_off", "time": 185, "note": 65, "velocity": 110, "channel": 0}, {"type": "note_on", "time": 25, "note": 67, "velocity": 96, "channel": 0}, {"type": "note_off", "time": 106, "note": 67, "velocity": 96, "channel": 0}, {"type": "note_on", "time": 21, "note": 69, "velocity": 104, "channel": 0}, {"type": "note_off", "time": 138, "note": 69, "velocity": 104, "channel": 0}, {"type": "note_on", "time": 24, "note": 72, "velocity": 116, "channel": 0}, {"type": "note_off", "time": 214, "note": 72, "velocity": 116, "channel": 0}, {"type": "note_on", "time": 15, "note": 69, "velocity": 103, "channel": 0}, {"type": "note_off", "time": 220, "note": 69, "velocity": 103, "channel": 0}, {"type": "note_on", "time": 5, "note": 71, "velocity": 118, "channel": 0}, {"type": "note_off", "time": 206, "note": 71, "velocity": 118, "channel": 0}, {"type": "note_on", "time": 33, "note": 75, "velocity": 101, "channel": 0}, {"type": "note_off", "time": 368, "note": 75, "velocity": 101, "channel": 0}, {"type": "note_on", "time": 55, "note": 71, "velocity": 115, "channel": 0}, {"type": "note_off", "time": 141, "note": 71, "velocity": 115, "channel": 0}, {"type": "note_on", "time": 5, "note": 68, "velocity": 116, "channel": 0}, {"type": "note_off", "time": 145, "note": 68, "velocity": 116, "channel": 0}, {"type": "note_on", "time": 9, "note": 64, "velocity": 119, "channel": 0}, {"type": "note_off", "time": 149, "note": 64, "velocity": 119, "channel": 0}, {"type": "note_on", "time": 15, "note": 63, "velocity": 118, "channel": 0}, {"type": "note_off", "time": 427, "note": 63, "velocity": 118, "channel": 0}, {"type": "note_on", "time": 17, "note": 61, "velocity": 114, "channel": 0}, {"type": "note_off", "time": 248, "note": 61, "velocity": 114, "channel": 0}, {"type": "note_on", "time": 140, "note": 74, "velocity": 109, "channel": 0}, {"type": "note_off", "time": 197, "note": 74, "velocity": 109, "channel": 0}, {"type": "note_on", "time": 13, "note": 70, "velocity": 108, "channel": 0}, {"type": "note_off", "time": 86, "note": 70, "velocity": 108, "channel": 0}, {"type": "note_on", "time": 14, "note": 67, "velocity": 111, "channel": 0}, {"type": "note_off", "time": 185, "note": 67, "velocity": 111, "channel": 0}, {"type": "note_on", "time": 9, "note": 63, "velocity": 117, "channel": 0}, {"type": "note_off", "time": 102, "note": 63, "velocity": 117, "channel": 0}, {"type": "note_on", "time": 19, "note": 62, "velocity": 119, "channel": 0}, {"type": "note_off", "time": 345, "note": 62, "velocity": 119, "channel": 0}, {"type": "note_on", "time": 19, "note": 61, "velocity": 98, "channel": 0}, {"type": "note_off", "time": 100, "note": 61, "velocity": 98, "channel": 0}, {"type": "note_on", "time": 656, "note": 73, "velocity": 105, "channel": 0}, {"type": "note_off", "time": 130, "note": 73, "velocity": 105, "channel": 0}, {"type": "note_on", "time": 9, "note": 69, "velocity": 111, "channel": 0}, {"type": "note_off", "time": 112, "note": 69, "velocity": 111, "channel": 0}, {"type": "note_on", "time": 6, "note": 68, "velocity": 113, "channel": 0}, {"type": "note_off", "time": 118, "note": 68, "velocity": 113, "channel": 0}, {"type": "note_on", "time": 23, "note": 66, "velocity": 113, "channel": 0}, {"type": "note_off", "time": 145, "note": 66, "velocity": 113, "channel": 0}, {"type": "note_on", "time": 17, "note": 63, "velocity": 118, "channel": 0}, {"type": "note_off", "time": 163, "note": 63, "velocity": 118, "channel": 0}, {"type": "note_on", "time": 8, "note": 61, "velocity": 117, "channel": 0}, {"type": "note_off", "time": 201, "note": 61, "velocity": 117, "channel": 0}, {"type": "note_on", "time": 18, "note": 59, "velocity": 100, "channel": 0}, {"type": "note_off", "time": 128, "note": 59, "velocity": 100, "channel": 0}, {"type": "note_on", "time": 10, "note": 57, "velocity": 106, "channel": 0}, {"type": "note_off", "time": 90, "note": 57, "velocity": 106, "channel": 0}, {"type": "note_on", "time": 11, "note": 56, "velocity": 112, "channel": 0}, {"type": "note_off", "time": 183, "note": 56, "velocity": 112, "channel": 0}, {"type": "note_on", "time": 9, "note": 54, "velocity": 109, "channel": 0}, {"type": "note_off", "time": 159, "note": 54, "velocity": 109, "channel": 0}, {"type": "note_on", "time": 20, "note": 53, "velocity": 106, "channel": 0}, {"type": "note_off", "time": 319, "note": 53, "velocity": 106, "channel": 0}, {"type": "note_on", "time": 1140, "note": 67, "velocity": 116, "channel": 0}, {"type": "note_off", "time": 216, "note": 67, "velocity": 116, "channel": 0}, {"type": "note_on", "time": 19, "note": 66, "velocity": 116, "channel": 0}, {"type": "note_off", "time": 187, "note": 66, "velocity": 116, "channel": 0}, {"type": "note_on", "time": 16, "note": 65, "velocity": 114, "channel": 0}, {"type": "note_off", "time": 199, "note": 65, "velocity": 114, "channel": 0}, {"type": "note_on", "time": 12, "note": 63, "velocity": 119, "channel": 0}, {"type": "note_off", "time": 165, "note": 63, "velocity": 119, "channel": 0}, {"type": "note_on", "time": 27, "note": 62, "velocity": 116, "channel": 0}, {"type": "note_off", "time": 224, "note": 62, "velocity": 116, "channel": 0}, {"type": "note_on", "time": 31, "note": 60, "velocity": 109, "channel": 0}, {"type": "note_off", "time": 179, "note": 60, "velocity": 109, "channel": 0}, {"type": "note_on", "time": 19, "note": 59, "velocity": 104, "channel": 0}, {"type": "note_off", "time": 191, "note": 59, "velocity": 104, "channel": 0}, {"type": "note_on", "time": 41, "note": 55, "velocity": 109, "channel": 0}, {"type": "note_off", "time": 232, "note": 55, "velocity": 109, "channel": 0}, {"type": "note_on", "time": 11, "note": 54, "velocity": 103, "channel": 0}, {"type": "note_off", "time": 168, "note": 54, "velocity": 103, "channel": 0}, {"type": "note_on", "time": 9, "note": 55, "velocity": 110, "channel": 0}, {"type": "note_off", "time": 163, "note": 55, "velocity": 110, "channel": 0}, {"type": "note_on", "time": 23, "note": 62, "velocity": 118, "channel": 0}, {"type": "note_off", "time": 210, "note": 62, "velocity": 118, "channel": 0}, {"type": "note_on", "time": 9, "note": 60, "velocity": 108, "channel": 0}, {"type": "note_off", "time": 189, "note": 60, "velocity": 108, "channel": 0}, {"type": "note_on", "time": 13, "note": 58, "velocity": 104, "channel": 0}, {"type": "note_off", "time": 177, "note": 58, "velocity": 104, "channel": 0}, {"type": "note_on", "time": 33, "note": 55, "velocity": 108, "channel": 0}, {"type": "note_off", "time": 213, "note": 55, "velocity": 108, "channel": 0}, {"type": "note_on", "time": 51, "note": 59, "velocity": 99, "channel": 0}, {"type": "note_off", "time": 183, "note": 59, "velocity": 99, "channel": 0}, {"type": "note_on", "time": 47, "note": 62, "velocity": 115, "channel": 0}, {"type": "note_off", "time": 249, "note": 62, "velocity": 115, "channel": 0}, {"type": "note_on", "time": 6, "note": 63, "velocity": 118, "channel": 0}, {"type": "note_off", "time": 155, "note": 63, "velocity": 118, "channel": 0}, {"type": "note_on", "time": 61, "note": 60, "velocity": 102, "channel": 0}, {"type": "note_off", "time": 165, "note": 60, "velocity": 102, "channel": 0}, {"type": "note_on", "time": 11, "note": 65, "velocity": 112, "channel": 0}, {"type": "note_off", "time": 196, "note": 65, "velocity": 112, "channel": 0}, {"type": "note_on", "time": 11, "note": 61, "velocity": 110, "channel": 0}, {"type": "note_off", "time": 229, "note": 61, "velocity": 110, "channel": 0}, {"type": "note_on", "time": 16, "note": 57, "velocity": 104, "channel": 0}, {"type": "note_off", "time": 190, "note": 57, "velocity": 104, "channel": 0}, {"type": "note_on", "time": 39, "note": 53, "velocity": 97, "channel": 0}, {"type": "note_off", "time": 201, "note": 53, "velocity": 97, "channel": 0}, {"type": "note_on", "time": 20, "note": 58, "velocity": 98, "channel": 0}, {"type": "note_off", "time": 1085, "note": 58, "velocity": 98, "channel": 0}, {"type": "note_on", "time": 25, "note": 57, "velocity": 97, "channel": 0}, {"type": "note_off", "time": 126, "note": 57, "velocity": 97, "channel": 0}, {"type": "note_on", "time": 11, "note": 58, "velocity": 97, "channel": 0}, {"type": "note_off", "time": 165, "note": 58, "velocity": 97, "channel": 0}, {"type": "note_on", "time": 11, "note": 60, "velocity": 105, "channel": 0}, {"type": "note_off", "time": 145, "note": 60, "velocity": 105, "channel": 0}, {"type": "note_on", "time": 19, "note": 62, "velocity": 109, "channel": 0}, {"type": "note_off", "time": 448, "note": 62, "velocity": 109, "channel": 0}, {"type": "end_of_track", "time": 0}]]}