{"ticks_per_beat": 192, "tracks": [[{"type": "track_name", "name": "Melody", "time": 0}, {"type": "set_tempo", "tempo": 340909, "time": 0}, {"type": "key_signature", "key": "Eb", "time": 0}, {"type": "time_signature", "numerator": 4, "denominator": 4, "clocks_per_click": 24, "notated_32nd_notes_per_beat": 8, "time": 0}, {"type": "note_on", "time": 2870, "note": 58, "velocity": 110, "channel": 0}, {"type": "note_off", "time": 117, "note": 58, "velocity": 110, "channel": 0}, {"type": "note_on", "time": 4, "note": 60, "velocity": 107, "channel": 0}, {"type": "note_off", "time": 73, "note": 60, "velocity": 107, "channel": 0}, {"type": "note_on", "time": 13, "note": 63, "velocity": 107, "channel": 0}, {"type": "note_off", "time": 122, "note": 63, "velocity": 107, "channel": 0}, {"type": "note_on", "time": 11, "note": 65, "velocity": 115, "channel": 0}, {"type": "note_off", "time": 42, "note": 65, "velocity": 115, "channel": 0}, {"type": "note_on", "time": 11, "note": 67, "velocity": 112, "channel": 0}, {"type": "note_off", "time": 57, "note": 67, "velocity": 112, "channel": 0}, {"type": "note_on", "time": 68, "note": 63, "velocity": 99, "channel": 0}, {"type": "note_off", "time": 81, "note": 63, "velocity": 99, "channel": 0}, {"type": "note_on", "time": 101, "note": 63, "velocity": 78, "channel": 0}, {"type": "note_off", "time": 256, "note": 63, "velocity": 78, "channel": 0}, {"type": "note_on", "time": 603, "note": 69, "velocity": 124, "channel": 0}, {"type": "note_off", "time": 45, "note": 69, "velocity": 124, "channel": 0}, {"type": "note_on", "time": 4, "note": 70, "velocity": 119, "channel": 0}, {"type": "note_off", "time": 86, "note": 70, "velocity": 119, "channel": 0}, {"type": "note_on", "time": 1, "note": 68, "velocity": 108, "channel": 0}, {"type": "note_off", "time": 70, "note": 68, "velocity": 108, "channel": 0}, {"type": "note_on", "time": 4, "note": 67, "velocity": 98, "channel": 0}, {"type": "note_off", "time": 85, "note": 67, "velocity": 98, "channel": 0}, {"type": "note_on", "time": 21, "note": 63, "velocity": 89, "channel": 0}, {"type": "note_off", "time": 68, "note": 63, "velocity": 89, "channel": 0}, {"type": "note_on", "time": 11, "note": 60, "velocity": 91, "channel": 0}, {"type": "note_off", "time": 78, "note": 60, "velocity": 91, "channel": 0}, {"type": "note_on", "time": 17, "note": 55, "velocity": 95, "channel": 0}, {"type": "note_off", "time": 78, "note": 55, "velocity": 95, "channel": 0}, {"type": "note_on", "time": 6, "note": 56, "velocity": 92, "channel": 0}, {"type": "note_off", "time": 98, "note": 56, "velocity": 92, "channel": 0}, {"type": "note_on", "time": 14, "note": 56, "velocity": 91, "channel": 0}, {"type": "note_off", "time": 58, "note": 56, "velocity": 91, "channel": 0}, {"type": "note_on", "time": 6, "note": 55, "velocity": 97, "channel": 0}, {"type": "note_off", "time": 134, "note": 55, "velocity": 97, "channel": 0}, {"type": "note_on", "time": 11, "note": 58, "velocity": 99, "channel": 0}, {"type": "note_off", "time": 58, "note": 58, "velocity": 99, "channel": 0}, {"type": "note_on", "time": 4, "note": 60, "velocity": 102, "channel": 0}, {"type": "note_off", "time": 102, "note": 60, "velocity": 102, "channel": 0}, {"type": "note_on", "time": 13, "note": 63, "velocity": 87, "channel": 0}, {"type": "note_off", "time": 251, "note": 63, "velocity": 87, "channel": 0}, {"type": "note_on", "time": 196, "note": 58, "velocity": 115, "channel": 0}, {"type": "note_off", "time": 120, "note": 58, "velocity": 115, "channel": 0}, {"type": "note_on", "time": 6, "note": 60, "velocity": 106, "channel": 0}, {"type": "note_off", "time": 70, "note": 60, "velocity": 106, "channel": 0}, {"type": "note_on", "time": 6, "note": 63, "velocity": 106, "channel": 0}, {"type": "note_off", "time": 81, "note": 63, "velocity": 106, "channel": 0}, {"type": "note_on", "time": 35, "note": 65, "velocity": 124, "channel": 0}, {"type": "note_off", "time": 42, "note": 65, "velocity": 124, "channel": 0}, {"type": "note_on", "time": 8, "note": 66, "velocity": 101, "channel": 0}, {"type": "note_off", "time": 94, "note": 66, "velocity": 101, "channel": 0}, {"type": "note_on", "time": 53, "note": 63, "velocity": 94, "channel": 0}, {"type": "note_off", "time": 117, "note": 63, "velocity": 94, "channel": 0}, {"type": "note_on", "time": 83, "note": 63, "velocity": 84, "channel": 0}, {"type": "note_off", "time": 274, "note": 63, "velocity": 84, "channel": 0}, {"type": "note_on", "time": 550, "note": 70, "velocity": 122, "channel": 0}, {"type": "note_off", "time": 120, "note": 70, "velocity": 122, "channel": 0}, {"type": "note_on", "time": 1, "note": 68, "velocity": 114, "channel": 0}, {"type": "note_off", "time": 67, "note": 68, "velocity": 114, "channel": 0}, {"type": "note_on", "time": 1, "note": 66, "velocity": 116, "channel": 0}, {"type": "note_off", "time": 94, "note": 66, "velocity": 116, "channel": 0}, {"type": "note_on", "time": 34, "note": 63, "velocity": 83, "channel": 0}, {"type": "note_off", "time": 45, "note": 63, "velocity": 83, "channel": 0}, {"type": "note_on", "time": 4, "note": 67, "velocity": 103, "channel": 0}, {"type": "note_off", "time": 106, "note": 67, "velocity": 103, "channel": 0}, {"type": "note_on", "time": 26, "note": 58, "velocity": 103, "channel": 0}, {"type": "note_off", "time": 148, "note": 58, "velocity": 103, "channel": 0}, {"type": "note_on", "time": 8, "note": 57, "velocity": 95, "channel": 0}, {"type": "note_off", "time": 29, "note": 57, "velocity": 95, "channel": 0}, {"type": "note_on", "time": 6, "note": 56, "velocity": 99, "channel": 0}, {"type": "note_off", "time": 55, "note": 56, "velocity": 99, "channel": 0}, {"type": "note_on", "time": 14, "note": 55, "velocity": 97, "channel": 0}, {"type": "note_off", "time": 120, "note": 55, "velocity": 97, "channel": 0}, {"type": "note_on", "time": 11, "note": 58, "velocity": 94, "channel": 0}, {"type": "note_off", "time": 47, "note": 58, "velocity": 94, "channel": 0}, {"type": "note_on", "time": 8, "note": 60, "velocity": 101, "channel": 0}, {"type": "note_off", "time": 102, "note": 60, "velocity": 101, "channel": 0}, {"type": "note_on", "time": 8, "note": 58, "velocity": 83, "channel": 0}, {"type": "note_off", "time": 57, "note": 58, "velocity": 83, "channel": 0}, {"type": "note_on", "time": 11, "note": 65, "velocity": 109, "channel": 0}, {"type": "note_off", "time": 130, "note": 65, "velocity": 109, "channel": 0}, {"type": "note_on", "time": 63, "note": 65, "velocity": 107, "channel": 0}, {"type": "note_off", "time": 107, "note": 65, "velocity": 107, "channel": 0}, {"type": "note_on", "time": 24, "note": 65, "velocity": 88, "channel": 0}, {"type": "note_off", "time": 261, "note": 65, "velocity": 88, "channel": 0}, {"type": "note_on", "time": 14, "note": 63, "velocity": 87, "channel": 0}, {"type": "note_off", "time": 130, "note": 63, "velocity": 87, "channel": 0}, {"type": "note_on", "time": 1, "note": 60, "velocity": 85, "channel": 0}, {"type": "note_off", "time": 39, "note": 60, "velocity": 85, "channel": 0}, {"type": "note_on", "time": 4, "note": 67, "velocity": 94, "channel": 0}, {"type": "note_off", "time": 125, "note": 67, "velocity": 94, "channel": 0}, {"type": "note_on", "time": 14, "note": 58, "velocity": 91, "channel": 0}, {"type": "note_off", "time": 134, "note": 58, "velocity": 91, "channel": 0}, {"type": "note_on", "time": 637, "note": 67, "velocity": 123, "channel": 0}, {"type": "note_off", "time": 67, "note": 67, "velocity": 123, "channel": 0}, {"type": "note_on", "time": 1, "note": 70, "velocity": 114, "channel": 0}, {"type": "note_off", "time": 137, "note": 70, "velocity": 114, "channel": 0}, {"type": "note_on", "time": 4, "note": 68, "velocity": 112, "channel": 0}, {"type": "note_off", "time": 52, "note": 68, "velocity": 112, "channel": 0}, {"type": "note_on", "time": 6, "note": 66, "velocity": 105, "channel": 0}, {"type": "note_off", "time": 106, "note": 66, "velocity": 105, "channel": 0}, {"type": "note_on", "time": 17, "note": 63, "velocity": 105, "channel": 0}, {"type": "note_off", "time": 45, "note": 63, "velocity": 105, "channel": 0}, {"type": "note_on", "time": 9, "note": 58, "velocity": 102, "channel": 0}, {"type": "note_off", "time": 132, "note": 58, "velocity": 102, "channel": 0}, {"type": "note_on", "time": 13, "note": 55, "velocity": 99, "channel": 0}, {"type": "note_off", "time": 35, "note": 55, "velocity": 99, "channel": 0}, {"type": "note_on", "time": 1, "note": 56, "velocity": 96, "channel": 0}, {"type": "note_off", "time": 129, "note": 56, "velocity": 96, "channel": 0}, {"type": "note_on", "time": 73, "note": 55, "velocity": 95, "channel": 0}, {"type": "note_off", "time": 114, "note": 55, "velocity": 95, "channel": 0}, {"type": "note_on", "time": 11, "note": 63, "velocity": 79, "channel": 0}, {"type": "note_off", "time": 238, "note": 63, "velocity": 79, "channel": 0}, {"type": "note_on", "time": 693, "note": 67, "velocity": 122, "channel": 0}, {"type": "note_off", "time": 80, "note": 67, "velocity": 122, "channel": 0}, {"type": "note_on", "time": 6, "note": 70, "velocity": 115, "channel": 0}, {"type": "note_off", "time": 104, "note": 70, "velocity": 115, "channel": 0}, {"type": "note_on", "time": 8, "note": 72, "velocity": 112, "channel": 0}, {"type": "note_off", "time": 230, "note": 72, "velocity": 112, "channel": 0}, {"type": "note_on", "time": 3, "note": 73, "velocity": 91, "channel": 0}, {"type": "note_off", "time": 781, "note": 73, "velocity": 91, "channel": 0}, {"type": "note_on", "time": 13, "note": 72, "velocity": 103, "channel": 0}, {"type": "note_off", "time": 31, "note": 72, "velocity": 103, "channel": 0}, {"type": "note_on", "time": 6, "note": 73, "velocity": 104, "channel": 0}, {"type": "note_off", "time": 71, "note": 73, "velocity": 104, "channel": 0}, {"type": "note_on", "time": 4, "note": 72, "velocity": 94, "channel": 0}, {"type": "note_off", "time": 50, "note": 72, "velocity": 94, "channel": 0}, {"type": "note_on", "time": 3, "note": 70, "velocity": 89, "channel": 0}, {"type": "note_off", "time": 44, "note": 70, "velocity": 89, "channel": 0}, {"type": "note_on", "time": 4, "note": 69, "velocity": 94, "channel": 0}, {"type": "note_off", "time": 94, "note": 69, "velocity": 94, "channel": 0}, {"type": "note_on", "time": 11, "note": 70, "velocity": 109, "channel": 0}, {"type": "note_off", "time": 53, "note": 70, "velocity": 109, "channel": 0}, {"type": "note_on", "time": 11, "note": 66, "velocity": 98, "channel": 0}, {"type": "note_off", "time": 124, "note": 66, "velocity": 98, "channel": 0}, {"type": "note_on", "time": 68, "note": 65, "velocity": 101, "channel": 0}, {"type": "note_off", "time": 104, "note": 65, "velocity": 101, "channel": 0}, {"type": "note_on", "time": 3, "note": 63, "velocity": 98, "channel": 0}, {"type": "note_off", "time": 58, "note": 63, "velocity": 98, "channel": 0}, {"type": "note_on", "time": 8, "note": 58, "velocity": 113, "channel": 0}, {"type": "note_off", "time": 93, "note": 58, "velocity": 113, "channel": 0}, {"type": "note_on", "time": 1, "note": 60, "velocity": 97, "channel": 0}, {"type": "note_off", "time": 26, "note": 60, "velocity": 97, "channel": 0}, {"type": "note_on", "time": 8, "note": 61, "velocity": 98, "channel": 0}, {"type": "note_off", "time": 259, "note": 61, "velocity": 98, "channel": 0}, {"type": "note_on", "time": 575, "note": 68, "velocity": 106, "channel": 0}, {"type": "note_off", "time": 13, "note": 68, "velocity": 106, "channel": 0}, {"type": "note_on", "time": 1, "note": 69, "velocity": 127, "channel": 0}, {"type": "note_off", "time": 55, "note": 69, "velocity": 127, "channel": 0}, {"type": "note_on", "time": 19, "note": 68, "velocity": 104, "channel": 0}, {"type": "note_off", "time": 22, "note": 68, "velocity": 104, "channel": 0}, {"type": "note_on", "time": 6, "note": 69, "velocity": 118, "channel": 0}, {"type": "note_off", "time": 58, "note": 69, "velocity": 118, "channel": 0}, {"type": "note_on", "time": 8, "note": 68, "velocity": 115, "channel": 0}, {"type": "note_off", "time": 27, "note": 68, "velocity": 115, "channel": 0}, {"type": "note_on", "time": 3, "note": 70, "velocity": 117, "channel": 0}, {"type": "note_off", "time": 67, "note": 70, "velocity": 117, "channel": 0}, {"type": "note_on", "time": 29, "note": 72, "velocity": 118, "channel": 0}, {"type": "note_off", "time": 124, "note": 72, "velocity": 118, "channel": 0}, {"type": "note_on", "time": 4, "note": 73, "velocity": 84, "channel": 0}, {"type": "note_off", "time": 694, "note": 73, "velocity": 84, "channel": 0}, {"type": "note_on", "time": 17, "note": 73, "velocity": 89, "channel": 0}, {"type": "note_off", "time": 117, "note": 73, "velocity": 89, "channel": 0}, {"type": "note_on", "time": 129, "note": 69, "velocity": 89, "channel": 0}, {"type": "note_off", "time": 80, "note": 69, "velocity": 89, "channel": 0}, {"type": "note_on", "time": 8, "note": 70, "velocity": 95, "channel": 0}, {"type": "note_off", "time": 63, "note": 70, "velocity": 95, "channel": 0}, {"type": "note_on", "time": 9, "note": 66, "velocity": 96, "channel": 0}, {"type": "note_off", "time": 114, "note": 66, "velocity": 96, "channel": 0}, {"type": "note_on", "time": 4, "note": 62, "velocity": 98, "channel": 0}, {"type": "note_off", "time": 40, "note": 62, "velocity": 98, "channel": 0}, {"type": "note_on", "time": 0, "note": 65, "velocity": 107, "channel": 0}, {"type": "note_off", "time": 132, "note": 65, "velocity": 107, "channel": 0}, {"type": "note_on", "time": 60, "note": 69, "velocity": 105, "channel": 0}, {"type": "note_off", "time": 34, "note": 69, "velocity": 105, "channel": 0}, {"type": "note_on", "time": 8, "note": 70, "velocity": 103, "channel": 0}, {"type": "note_off", "time": 75, "note": 70, "velocity": 103, "channel": 0}, {"type": "note_on", "time": 16, "note": 70, "velocity": 100, "channel": 0}, {"type": "note_off", "time": 50, "note": 70, "velocity": 100, "channel": 0}, {"type": "note_on", "time": 14, "note": 66, "velocity": 100, "channel": 0}, {"type": "note_off", "time": 117, "note": 66, "velocity": 100, "channel": 0}, {"type": "note_on", "time": 3, "note": 63, "velocity": 93, "channel": 0}, {"type": "note_off", "time": 192, "note": 63, "velocity": 93, "channel": 0}, {"type": "note_on", "time": 392, "note": 58, "velocity": 115, "channel": 0}, {"type": "note_off", "time": 78, "note": 58, "velocity": 115, "channel": 0}, {"type": "note_on", "time": 8, "note": 60, "velocity": 109, "channel": 0}, {"type": "note_off", "time": 81, "note": 60, "velocity": 109, "channel": 0}, {"type": "note_on", "time": 39, "note": 72, "velocity": 113, "channel": 0}, {"type": "note_off", "time": 98, "note": 72, "velocity": 113, "channel": 0}, {"type": "note_on", "time": 50, "note": 66, "velocity": 108, "channel": 0}, {"type": "note_off", "time": 112, "note": 66, "velocity": 108, "channel": 0}, {"type": "note_on", "time": 6, "note": 63, "velocity": 87, "channel": 0}, {"type": "note_off", "time": 94, "note": 63, "velocity": 87, "channel": 0}, {"type": "note_on", "time": 1, "note": 66, "velocity": 104, "channel": 0}, {"type": "note_off", "time": 142, "note": 66, "velocity": 104, "channel": 0}, {"type": "note_on", "time": 6, "note": 65, "velocity": 94, "channel": 0}, {"type": "note_off", "time": 317, "note": 65, "velocity": 94, "channel": 0}, {"type": "note_on", "time": 477, "note": 58, "velocity": 106, "channel": 0}, {"type": "note_off", "time": 98, "note": 58, "velocity": 106, "channel": 0}, {"type": "note_on", "time": 11, "note": 60, "velocity": 104, "channel": 0}, {"type": "note_off", "time": 78, "note": 60, "velocity": 104, "channel": 0}, {"type": "note_on", "time": 22, "note": 72, "velocity": 109, "channel": 0}, {"type": "note_off", "time": 98, "note": 72, "velocity": 109, "channel": 0}, {"type": "note_on", "time": 19, "note": 66, "velocity": 112, "channel": 0}, {"type": "note_off", "time": 70, "note": 66, "velocity": 112, "channel": 0}, {"type": "note_on", "time": 8, "note": 60, "velocity": 101, "channel": 0}, {"type": "note_off", "time": 89, "note": 60, "velocity": 101, "channel": 0}, {"type": "note_on", "time": 52, "note": 72, "velocity": 109, "channel": 0}, {"type": "note_off", "time": 80, "note": 72, "velocity": 109, "channel": 0}, {"type": "note_on", "time": 21, "note": 66, "velocity": 111, "channel": 0}, {"type": "note_off", "time": 42, "note": 66, "velocity": 111, "channel": 0}, {"type": "note_on", "time": 4, "note": 67, "velocity": 110, "channel": 0}, {"type": "note_off", "time": 31, "note": 67, "velocity": 110, "channel": 0}, {"type": "note_on", "time": 4, "note": 66, "velocity": 101, "channel": 0}, {"type": "note_off", "time": 65, "note": 66, "velocity": 101, "channel": 0}, {"type": "note_on", "time": 16, "note": 63, "velocity": 98, "channel": 0}, {"type": "note_off", "time": 34, "note": 63, "velocity": 98, "channel": 0}, {"type": "note_on", "time": 4, "note": 66, "velocity": 102, "channel": 0}, {"type": "note_off", "time": 184, "note": 66, "velocity": 102, "channel": 0}, {"type": "note_on", "time": 3, "note": 63, "velocity": 91, "channel": 0}, {"type": "note_off", "time": 367, "note": 63, "velocity": 91, "channel": 0}, {"type": "note_on", "time": 142, "note": 59, "velocity": 83, "channel": 0}, {"type": "note_off", "time": 29, "note": 59, "velocity": 83, "channel": 0}, {"type": "note_on", "time": 9, "note": 60, "velocity": 104, "channel": 0}, {"type": "note_off", "time": 116, "note": 60, "velocity": 104, "channel": 0}, {"type": "note_on", "time": 4, "note": 59, "velocity": 96, "channel": 0}, {"type": "note_off", "time": 37, "note": 59, "velocity": 96, "channel": 0}, {"type": "note_on", "time": 3, "note": 58, "velocity": 104, "channel": 0}, {"type": "note_off", "time": 71, "note": 58, "velocity": 104, "channel": 0}, {"type": "note_on", "time": 1, "note": 57, "velocity": 101, "channel": 0}, {"type": "note_off", "time": 60, "note": 57, "velocity": 101, "channel": 0}, {"type": "note_on", "time": 44, "note": 58, "velocity": 109, "channel": 0}, {"type": "note_off", "time": 57, "note": 58, "velocity": 109, "channel": 0}, {"type": "note_on", "time": 197, "note": 55, "velocity": 95, "channel": 0}, {"type": "note_off", "time": 94, "note": 55, "velocity": 95, "channel": 0}, {"type": "end_of_track", "time": 0}]]}