{"ticks_per_beat": 192, "tracks": [[{"type": "track_name", "name": "Melody", "time": 0}, {"type": "set_tempo", "tempo": 206185, "time": 0}, {"type": "key_signature", "key": "Eb", "time": 0}, {"type": "time_signature", "numerator": 4, "denominator": 4, "clocks_per_click": 24, "notated_32nd_notes_per_beat": 8, "time": 0}, {"type": "note_on", "time": 2724, "note": 61, "velocity": 113, "channel": 0}, {"type": "note_off", "time": 59, "note": 61, "velocity": 113, "channel": 0}, {"type": "note_on", "time": 51, "note": 64, "velocity": 115, "channel": 0}, {"type": "note_off", "time": 78, "note": 64, "velocity": 115, "channel": 0}, {"type": "note_on", "time": 13, "note": 68, "velocity": 117, "channel": 0}, {"type": "note_off", "time": 81, "note": 68, "velocity": 117, "channel": 0}, {"type": "note_on", "time": 13, "note": 71, "velocity": 120, "channel": 0}, {"type": "note_off", "time": 89, "note": 71, "velocity": 120, "channel": 0}, {"type": "note_on", "time": 13, "note": 70, "velocity": 118, "channel": 0}, {"type": "note_off", "time": 251, "note": 70, "velocity": 118, "channel": 0}, {"type": "note_on", "time": 27, "note": 68, "velocity": 114, "channel": 0}, {"type": "note_off", "time": 97, "note": 68, "velocity": 114, "channel": 0}, {"type": "note_on", "time": 10, "note": 66, "velocity": 111, "channel": 0}, {"type": "note_off", "time": 67, "note": 66, "velocity": 111, "channel": 0}, {"type": "note_on", "time": 43, "note": 63, "velocity": 114, "channel": 0}, {"type": "note_off", "time": 91, "note": 63, "velocity": 114, "channel": 0}, {"type": "note_on", "time": 0, "note": 59, "velocity": 104, "channel": 0}, {"type": "note_off", "time": 64, "note": 59, "velocity": 104, "channel": 0}, {"type": "note_on", "time": 140, "note": 62, "velocity": 111, "channel": 0}, {"type": "note_off", "time": 81, "note": 62, "velocity": 111, "channel": 0}, {"type": "note_on", "time": 18, "note": 64, "velocity": 114, "channel": 0}, {"type": "note_off", "time": 94, "note": 64, "velocity": 114, "channel": 0}, {"type": "note_on", "time": 5, "note": 66, "velocity": 106, "channel": 0}, {"type": "note_off", "time": 70, "note": 66, "velocity": 106, "channel": 0}, {"type": "note_on", "time": 10, "note": 69, "velocity": 111, "channel": 0}, {"type": "note_off", "time": 91, "note": 69, "velocity": 111, "channel": 0}, {"type": "note_on", "time": 18, "note": 67, "velocity": 110, "channel": 0}, {"type": "note_off", "time": 59, "note": 67, "velocity": 110, "channel": 0}, {"type": "note_on", "time": 27, "note": 62, "velocity": 109, "channel": 0}, {"type": "note_off", "time": 70, "note": 62, "velocity": 109, "channel": 0}, {"type": "note_on", "time": 21, "note": 59, "velocity": 102, "channel": 0}, {"type": "note_off", "time": 70, "note": 59, "velocity": 102, "channel": 0}, {"type": "note_on", "time": 138, "note": 59, "velocity": 103, "channel": 0}, {"type": "note_off", "time": 57, "note": 59, "velocity": 103, "channel": 0}, {"type": "note_on", "time": 37, "note": 56, "velocity": 111, "channel": 0}, {"type": "note_off", "time": 68, "note": 56, "velocity": 111, "channel": 0}, {"type": "note_on", "time": 32, "note": 55, "velocity": 108, "channel": 0}, {"type": "note_off", "time": 68, "note": 55, "velocity": 108, "channel": 0}, {"type": "note_on", "time": 14, "note": 53, "velocity": 103, "channel": 0}, {"type": "note_off", "time": 68, "note": 53, "velocity": 103, "channel": 0}, {"type": "note_on", "time": 19, "note": 51, "velocity": 102, "channel": 0}, {"type": "note_off", "time": 62, "note": 51, "velocity": 102, "channel": 0}, {"type": "note_on", "time": 38, "note": 53, "velocity": 102, "channel": 0}, {"type": "note_off", "time": 58, "note": 53, "velocity": 102, "channel": 0}, {"type": "note_on", "time": 0, "note": 55, "velocity": 108, "channel": 0}, {"type": "note_off", "time": 72, "note": 55, "velocity": 108, "channel": 0}, {"type": "note_on", "time": 22, "note": 56, "velocity": 107, "channel": 0}, {"type": "note_off", "time": 95, "note": 56, "velocity": 107, "channel": 0}, {"type": "note_on", "time": 28, "note": 58, "velocity": 101, "channel": 0}, {"type": "note_off", "time": 66, "note": 58, "velocity": 101, "channel": 0}, {"type": "note_on", "time": 38, "note": 60, "velocity": 109, "channel": 0}, {"type": "note_on", "time": 79, "note": 62, "velocity": 107, "channel": 0}, {"type": "note_off", "time": 0, "note": 60, "velocity": 109, "channel": 0}, {"type": "note_off", "time": 87, "note": 62, "velocity": 107, "channel": 0}, {"type": "note_on", "time": 38, "note": 65, "velocity": 108, "channel": 0}, {"type": "note_off", "time": 95, "note": 65, "velocity": 108, "channel": 0}, {"type": "note_on", "time": 7, "note": 64, "velocity": 110, "channel": 0}, {"type": "note_off", "time": 79, "note": 64, "velocity": 110, "channel": 0}, {"type": "note_on", "time": 17, "note": 60, "velocity": 114, "channel": 0}, {"type": "note_off", "time": 64, "note": 60, "velocity": 114, "channel": 0}, {"type": "note_on", "time": 36, "note": 56, "velocity": 104, "channel": 0}, {"type": "note_off", "time": 51, "note": 56, "velocity": 104, "channel": 0}, {"type": "note_on", "time": 26, "note": 55, "velocity": 105, "channel": 0}, {"type": "note_off", "time": 81, "note": 55, "velocity": 105, "channel": 0}, {"type": "note_on", "time": 0, "note": 54, "velocity": 106, "channel": 0}, {"type": "note_off", "time": 58, "note": 54, "velocity": 106, "channel": 0}, {"type": "note_on", "time": 62, "note": 63, "velocity": 118, "channel": 0}, {"type": "note_off", "time": 72, "note": 63, "velocity": 118, "channel": 0}, {"type": "note_on", "time": 20, "note": 62, "velocity": 107, "channel": 0}, {"type": "note_off", "time": 57, "note": 62, "velocity": 107, "channel": 0}, {"type": "note_on", "time": 28, "note": 60, "velocity": 109, "channel": 0}, {"type": "note_off", "time": 66, "note": 60, "velocity": 109, "channel": 0}, {"type": "note_on", "time": 17, "note": 59, "velocity": 105, "channel": 0}, {"type": "note_off", "time": 72, "note": 59, "velocity": 105, "channel": 0}, {"type": "note_on", "time": 28, "note": 62, "velocity": 111, "channel": 0}, {"type": "note_off", "time": 53, "note": 62, "velocity": 111, "channel": 0}, {"type": "note_on", "time": 28, "note": 67, "velocity": 112, "channel": 0}, {"type": "note_off", "time": 64, "note": 67, "velocity": 112, "channel": 0}, {"type": "note_on", "time": 38, "note": 71, "velocity": 110, "channel": 0}, {"type": "note_off", "time": 77, "note": 71, "velocity": 110, "channel": 0}, {"type": "note_on", "time": 24, "note": 62, "velocity": 113, "channel": 0}, {"type": "note_off", "time": 66, "note": 62, "velocity": 113, "channel": 0}, {"type": "note_on", "time": 22, "note": 65, "velocity": 103, "channel": 0}, {"type": "note_off", "time": 62, "note": 65, "velocity": 103, "channel": 0}, {"type": "note_on", "time": 39, "note": 68, "velocity": 110, "channel": 0}, {"type": "note_off", "time": 74, "note": 68, "velocity": 110, "channel": 0}, {"type": "note_on", "time": 34, "note": 72, "velocity": 107, "channel": 0}, {"type": "note_off", "time": 47, "note": 72, "velocity": 107, "channel": 0}, {"type": "note_on", "time": 32, "note": 63, "velocity": 116, "channel": 0}, {"type": "note_off", "time": 83, "note": 63, "velocity": 116, "channel": 0}, {"type": "note_on", "time": 11, "note": 65, "velocity": 101, "channel": 0}, {"type": "note_off", "time": 74, "note": 65, "velocity": 101, "channel": 0}, {"type": "note_on", "time": 3, "note": 67, "velocity": 100, "channel": 0}, {"type": "note_off", "time": 68, "note": 67, "velocity": 100, "channel": 0}, {"type": "note_on", "time": 28, "note": 70, "velocity": 111, "channel": 0}, {"type": "note_off", "time": 79, "note": 70, "velocity": 111, "channel": 0}, {"type": "note_on", "time": 34, "note": 64, "velocity": 116, "channel": 0}, {"type": "note_off", "time": 106, "note": 64, "velocity": 116, "channel": 0}, {"type": "note_on", "time": 5, "note": 68, "velocity": 104, "channel": 0}, {"type": "note_off", "time": 45, "note": 68, "velocity": 104, "channel": 0}, {"type": "note_on", "time": 30, "note": 70, "velocity": 108, "channel": 0}, {"type": "note_off", "time": 79, "note": 70, "velocity": 108, "channel": 0}, {"type": "note_on", "time": 20, "note": 73, "velocity": 104, "channel": 0}, {"type": "note_off", "time": 66, "note": 73, "velocity": 104, "channel": 0}, {"type": "note_on", "time": 24, "note": 70, "velocity": 110, "channel": 0}, {"type": "note_off", "time": 140, "note": 70, "velocity": 110, "channel": 0}, {"type": "note_on", "time": 17, "note": 68, "velocity": 110, "channel": 0}, {"type": "note_off", "time": 91, "note": 68, "velocity": 110, "channel": 0}, {"type": "note_on", "time": 28, "note": 66, "velocity": 112, "channel": 0}, {"type": "note_off", "time": 79, "note": 66, "velocity": 112, "channel": 0}, {"type": "note_on", "time": 366, "note": 70, "velocity": 121, "channel": 0}, {"type": "note_off", "time": 96, "note": 70, "velocity": 121, "channel": 0}, {"type": "note_on", "time": 15, "note": 69, "velocity": 108, "channel": 0}, {"type": "note_off", "time": 51, "note": 69, "velocity": 108, "channel": 0}, {"type": "note_on", "time": 17, "note": 68, "velocity": 113, "channel": 0}, {"type": "note_off", "time": 106, "note": 68, "velocity": 113, "channel": 0}, {"type": "note_on", "time": 30, "note": 67, "velocity": 117, "channel": 0}, {"type": "note_off", "time": 81, "note": 67, "velocity": 117, "channel": 0}, {"type": "note_on", "time": 13, "note": 65, "velocity": 107, "channel": 0}, {"type": "note_off", "time": 68, "note": 65, "velocity": 107, "channel": 0}, {"type": "note_on", "time": 13, "note": 63, "velocity": 122, "channel": 0}, {"type": "note_off", "time": 83, "note": 63, "velocity": 122, "channel": 0}, {"type": "note_on", "time": 11, "note": 62, "velocity": 112, "channel": 0}, {"type": "note_off", "time": 74, "note": 62, "velocity": 112, "channel": 0}, {"type": "note_on", "time": 19, "note": 60, "velocity": 110, "channel": 0}, {"type": "note_off", "time": 89, "note": 60, "velocity": 110, "channel": 0}, {"type": "note_on", "time": 15, "note": 58, "velocity": 107, "channel": 0}, {"type": "note_off", "time": 58, "note": 58, "velocity": 107, "channel": 0}, {"type": "note_on", "time": 45, "note": 68, "velocity": 115, "channel": 0}, {"type": "note_off", "time": 60, "note": 68, "velocity": 115, "channel": 0}, {"type": "note_on", "time": 7, "note": 67, "velocity": 114, "channel": 0}, {"type": "note_off", "time": 100, "note": 67, "velocity": 114, "channel": 0}, {"type": "note_on", "time": 13, "note": 62, "velocity": 108, "channel": 0}, {"type": "note_off", "time": 81, "note": 62, "velocity": 108, "channel": 0}, {"type": "note_on", "time": 15, "note": 65, "velocity": 109, "channel": 0}, {"type": "note_off", "time": 87, "note": 65, "velocity": 109, "channel": 0}, {"type": "note_on", "time": 19, "note": 63, "velocity": 117, "channel": 0}, {"type": "note_off", "time": 64, "note": 63, "velocity": 117, "channel": 0}, {"type": "note_on", "time": 15, "note": 62, "velocity": 109, "channel": 0}, {"type": "note_off", "time": 85, "note": 62, "velocity": 109, "channel": 0}, {"type": "note_on", "time": 26, "note": 65, "velocity": 109, "channel": 0}, {"type": "note_off", "time": 60, "note": 65, "velocity": 109, "channel": 0}, {"type": "note_on", "time": 13, "note": 64, "velocity": 115, "channel": 0}, {"type": "note_off", "time": 91, "note": 64, "velocity": 115, "channel": 0}, {"type": "note_on", "time": 15, "note": 60, "velocity": 108, "channel": 0}, {"type": "note_off", "time": 57, "note": 60, "velocity": 108, "channel": 0}, {"type": "note_on", "time": 38, "note": 57, "velocity": 105, "channel": 0}, {"type": "note_off", "time": 85, "note": 57, "velocity": 105, "channel": 0}, {"type": "note_on", "time": 36, "note": 52, "velocity": 101, "channel": 0}, {"type": "note_off", "time": 58, "note": 52, "velocity": 101, "channel": 0}, {"type": "note_on", "time": 9, "note": 55, "velocity": 109, "channel": 0}, {"type": "note_off", "time": 72, "note": 55, "velocity": 109, "channel": 0}, {"type": "note_on", "time": 39, "note": 52, "velocity": 100, "channel": 0}, {"type": "note_off", "time": 51, "note": 52, "velocity": 100, "channel": 0}, {"type": "note_on", "time": 0, "note": 54, "velocity": 103, "channel": 0}, {"type": "note_off", "time": 114, "note": 54, "velocity": 103, "channel": 0}, {"type": "note_on", "time": 19, "note": 63, "velocity": 116, "channel": 0}, {"type": "note_off", "time": 60, "note": 63, "velocity": 116, "channel": 0}, {"type": "note_on", "time": 9, "note": 62, "velocity": 114, "channel": 0}, {"type": "note_off", "time": 96, "note": 62, "velocity": 114, "channel": 0}, {"type": "note_on", "time": 20, "note": 60, "velocity": 104, "channel": 0}, {"type": "note_off", "time": 74, "note": 60, "velocity": 104, "channel": 0}, {"type": "note_on", "time": 7, "note": 59, "velocity": 108, "channel": 0}, {"type": "note_off", "time": 72, "note": 59, "velocity": 108, "channel": 0}, {"type": "note_on", "time": 43, "note": 57, "velocity": 111, "channel": 0}, {"type": "note_off", "time": 66, "note": 57, "velocity": 111, "channel": 0}, {"type": "note_on", "time": 24, "note": 55, "velocity": 102, "channel": 0}, {"type": "note_off", "time": 68, "note": 55, "velocity": 102, "channel": 0}, {"type": "note_on", "time": 36, "note": 57, "velocity": 105, "channel": 0}, {"type": "note_off", "time": 51, "note": 57, "velocity": 105, "channel": 0}, {"type": "note_on", "time": 9, "note": 59, "velocity": 100, "channel": 0}, {"type": "note_off", "time": 68, "note": 59, "velocity": 100, "channel": 0}, {"type": "note_on", "time": 36, "note": 62, "velocity": 111, "channel": 0}, {"type": "note_off", "time": 66, "note": 62, "velocity": 111, "channel": 0}, {"type": "note_on", "time": 7, "note": 63, "velocity": 115, "channel": 0}, {"type": "note_off", "time": 91, "note": 63, "velocity": 115, "channel": 0}, {"type": "note_on", "time": 39, "note": 61, "velocity": 107, "channel": 0}, {"type": "note_off", "time": 68, "note": 61, "velocity": 107, "channel": 0}, {"type": "note_on", "time": 19, "note": 59, "velocity": 107, "channel": 0}, {"type": "note_off", "time": 95, "note": 59, "velocity": 107, "channel": 0}, {"type": "note_on", "time": 13, "note": 58, "velocity": 106, "channel": 0}, {"type": "note_off", "time": 81, "note": 58, "velocity": 106, "channel": 0}, {"type": "note_on", "time": 117, "note": 54, "velocity": 109, "channel": 0}, {"type": "note_off", "time": 62, "note": 54, "velocity": 109, "channel": 0}, {"type": "note_on", "time": 9, "note": 56, "velocity": 107, "channel": 0}, {"type": "note_off", "time": 66, "note": 56, "velocity": 107, "channel": 0}, {"type": "note_on", "time": 53, "note": 58, "velocity": 101, "channel": 0}, {"type": "note_off", "time": 76, "note": 58, "velocity": 101, "channel": 0}, {"type": "note_on", "time": 5, "note": 59, "velocity": 106, "channel": 0}, {"type": "note_off", "time": 91, "note": 59, "velocity": 106, "channel": 0}, {"type": "note_on", "time": 26, "note": 61, "velocity": 109, "channel": 0}, {"type": "note_off", "time": 83, "note": 61, "velocity": 109, "channel": 0}, {"type": "note_on", "time": 11, "note": 63, "velocity": 98, "channel": 0}, {"type": "note_off", "time": 76, "note": 63, "velocity": 98, "channel": 0}, {"type": "note_on", "time": 41, "note": 66, "velocity": 103, "channel": 0}, {"type": "note_off", "time": 36, "note": 66, "velocity": 103, "channel": 0}, {"type": "note_on", "time": 26, "note": 70, "velocity": 116, "channel": 0}, {"type": "note_off", "time": 102, "note": 70, "velocity": 116, "channel": 0}, {"type": "note_on", "time": 11, "note": 69, "velocity": 113, "channel": 0}, {"type": "note_off", "time": 68, "note": 69, "velocity": 113, "channel": 0}, {"type": "note_on", "time": 7, "note": 68, "velocity": 110, "channel": 0}, {"type": "note_off", "time": 81, "note": 68, "velocity": 110, "channel": 0}, {"type": "note_on", "time": 3, "note": 67, "velocity": 115, "channel": 0}, {"type": "note_off", "time": 89, "note": 67, "velocity": 115, "channel": 0}, {"type": "note_on", "time": 15, "note": 65, "velocity": 109, "channel": 0}, {"type": "note_off", "time": 77, "note": 65, "velocity": 109, "channel": 0}, {"type": "note_on", "time": 328, "note": 67, "velocity": 120, "channel": 0}, {"type": "note_off", "time": 77, "note": 67, "velocity": 120, "channel": 0}, {"type": "note_on", "time": 11, "note": 66, "velocity": 120, "channel": 0}, {"type": "note_off", "time": 74, "note": 66, "velocity": 120, "channel": 0}, {"type": "note_on", "time": 11, "note": 65, "velocity": 111, "channel": 0}, {"type": "note_on", "time": 96, "note": 62, "velocity": 105, "channel": 0}, {"type": "note_off", "time": 0, "note": 65, "velocity": 111, "channel": 0}, {"type": "note_off", "time": 55, "note": 62, "velocity": 105, "channel": 0}, {"type": "note_on", "time": 5, "note": 63, "velocity": 124, "channel": 0}, {"type": "note_off", "time": 134, "note": 63, "velocity": 124, "channel": 0}, {"type": "note_on", "time": 13, "note": 65, "velocity": 110, "channel": 0}, {"type": "note_off", "time": 91, "note": 65, "velocity": 110, "channel": 0}, {"type": "note_on", "time": 87, "note": 70, "velocity": 117, "channel": 0}, {"type": "note_off", "time": 77, "note": 70, "velocity": 117, "channel": 0}, {"type": "note_on", "time": 32, "note": 75, "velocity": 123, "channel": 0}, {"type": "note_off", "time": 119, "note": 75, "velocity": 123, "channel": 0}, {"type": "note_on", "time": 7, "note": 70, "velocity": 122, "channel": 0}, {"type": "note_off", "time": 123, "note": 70, "velocity": 122, "channel": 0}, {"type": "note_on", "time": 290, "note": 70, "velocity": 117, "channel": 0}, {"type": "note_off", "time": 64, "note": 70, "velocity": 117, "channel": 0}, {"type": "note_on", "time": 13, "note": 71, "velocity": 119, "channel": 0}, {"type": "note_off", "time": 83, "note": 71, "velocity": 119, "channel": 0}, {"type": "note_on", "time": 3, "note": 70, "velocity": 117, "channel": 0}, {"type": "note_off", "time": 292, "note": 70, "velocity": 117, "channel": 0}, {"type": "note_on", "time": 39, "note": 66, "velocity": 106, "channel": 0}, {"type": "note_off", "time": 68, "note": 66, "velocity": 106, "channel": 0}, {"type": "note_on", "time": 6, "note": 70, "velocity": 105, "channel": 0}, {"type": "note_off", "time": 130, "note": 70, "velocity": 105, "channel": 0}, {"type": "note_on", "time": 17, "note": 74, "velocity": 114, "channel": 0}, {"type": "note_off", "time": 608, "note": 74, "velocity": 114, "channel": 0}, {"type": "note_on", "time": 0, "note": 72, "velocity": 120, "channel": 0}, {"type": "note_off", "time": 74, "note": 72, "velocity": 120, "channel": 0}, {"type": "note_on", "time": 5, "note": 71, "velocity": 116, "channel": 0}, {"type": "note_off", "time": 74, "note": 71, "velocity": 116, "channel": 0}, {"type": "note_on", "time": 41, "note": 62, "velocity": 106, "channel": 0}, {"type": "note_off", "time": 58, "note": 62, "velocity": 106, "channel": 0}, {"type": "note_on", "time": 9, "note": 67, "velocity": 112, "channel": 0}, {"type": "note_off", "time": 89, "note": 67, "velocity": 112, "channel": 0}, {"type": "note_on", "time": 15, "note": 71, "velocity": 118, "channel": 0}, {"type": "note_off", "time": 72, "note": 71, "velocity": 118, "channel": 0}, {"type": "note_on", "time": 24, "note": 70, "velocity": 115, "channel": 0}, {"type": "note_off", "time": 58, "note": 70, "velocity": 115, "channel": 0}, {"type": "note_on", "time": 1, "note": 69, "velocity": 119, "channel": 0}, {"type": "note_off", "time": 72, "note": 69, "velocity": 119, "channel": 0}, {"type": "note_on", "time": 5, "note": 68, "velocity": 113, "channel": 0}, {"type": "note_off", "time": 108, "note": 68, "velocity": 113, "channel": 0}, {"type": "note_on", "time": 15, "note": 72, "velocity": 114, "channel": 0}, {"type": "note_off", "time": 55, "note": 72, "velocity": 114, "channel": 0}, {"type": "note_on", "time": 22, "note": 70, "velocity": 118, "channel": 0}, {"type": "note_off", "time": 110, "note": 70, "velocity": 118, "channel": 0}, {"type": "note_on", "time": 3, "note": 67, "velocity": 115, "channel": 0}, {"type": "note_off", "time": 81, "note": 67, "velocity": 115, "channel": 0}, {"type": "note_on", "time": 17, "note": 65, "velocity": 110, "channel": 0}, {"type": "note_off", "time": 60, "note": 65, "velocity": 110, "channel": 0}, {"type": "note_on", "time": 0, "note": 63, "velocity": 114, "channel": 0}, {"type": "note_off", "time": 62, "note": 63, "velocity": 114, "channel": 0}, {"type": "note_on", "time": 26, "note": 67, "velocity": 118, "channel": 0}, {"type": "note_off", "time": 91, "note": 67, "velocity": 118, "channel": 0}, {"type": "note_on", "time": 7, "note": 63, "velocity": 107, "channel": 0}, {"type": "note_off", "time": 95, "note": 63, "velocity": 107, "channel": 0}, {"type": "note_on", "time": 227, "note": 70, "velocity": 111, "channel": 0}, {"type": "note_off", "time": 101, "note": 70, "velocity": 111, "channel": 0}, {"type": "note_on", "time": 6, "note": 74, "velocity": 118, "channel": 0}, {"type": "note_on", "time": 188, "note": 70, "velocity": 122, "channel": 0}, {"type": "note_off", "time": 0, "note": 74, "velocity": 118, "channel": 0}, {"type": "note_off", "time": 96, "note": 70, "velocity": 122, "channel": 0}, {"type": "note_on", "time": 66, "note": 66, "velocity": 114, "channel": 0}, {"type": "note_off", "time": 85, "note": 66, "velocity": 114, "channel": 0}, {"type": "note_on", "time": 3, "note": 62, "velocity": 111, "channel": 0}, {"type": "note_off", "time": 77, "note": 62, "velocity": 111, "channel": 0}, {"type": "note_on", "time": 252, "note": 62, "velocity": 116, "channel": 0}, {"type": "note_off", "time": 49, "note": 62, "velocity": 116, "channel": 0}, {"type": "note_on", "time": 22, "note": 67, "velocity": 113, "channel": 0}, {"type": "note_off", "time": 93, "note": 67, "velocity": 113, "channel": 0}, {"type": "note_on", "time": 9, "note": 71, "velocity": 117, "channel": 0}, {"type": "note_off", "time": 76, "note": 71, "velocity": 117, "channel": 0}, {"type": "note_on", "time": 19, "note": 62, "velocity": 119, "channel": 0}, {"type": "note_off", "time": 76, "note": 62, "velocity": 119, "channel": 0}, {"type": "note_on", "time": 20, "note": 65, "velocity": 110, "channel": 0}, {"type": "note_off", "time": 38, "note": 65, "velocity": 110, "channel": 0}, {"type": "note_on", "time": 24, "note": 68, "velocity": 119, "channel": 0}, {"type": "note_off", "time": 108, "note": 68, "velocity": 119, "channel": 0}, {"type": "note_on", "time": 5, "note": 72, "velocity": 111, "channel": 0}, {"type": "note_off", "time": 64, "note": 72, "velocity": 111, "channel": 0}, {"type": "note_on", "time": 19, "note": 63, "velocity": 123, "channel": 0}, {"type": "note_off", "time": 89, "note": 63, "velocity": 123, "channel": 0}, {"type": "note_on", "time": 7, "note": 65, "velocity": 107, "channel": 0}, {"type": "note_off", "time": 53, "note": 65, "velocity": 107, "channel": 0}, {"type": "note_on", "time": 49, "note": 67, "velocity": 111, "channel": 0}, {"type": "note_off", "time": 62, "note": 67, "velocity": 111, "channel": 0}, {"type": "note_on", "time": 13, "note": 70, "velocity": 116, "channel": 0}, {"type": "note_off", "time": 93, "note": 70, "velocity": 116, "channel": 0}, {"type": "note_on", "time": 5, "note": 64, "velocity": 115, "channel": 0}, {"type": "note_off", "time": 134, "note": 64, "velocity": 115, "channel": 0}, {"type": "note_on", "time": 11, "note": 68, "velocity": 112, "channel": 0}, {"type": "note_off", "time": 104, "note": 68, "velocity": 112, "channel": 0}, {"type": "note_on", "time": 17, "note": 70, "velocity": 118, "channel": 0}, {"type": "note_off", "time": 95, "note": 70, "velocity": 118, "channel": 0}, {"type": "note_on", "time": 0, "note": 66, "velocity": 107, "channel": 0}, {"type": "note_off", "time": 311, "note": 66, "velocity": 107, "channel": 0}, {"type": "note_on", "time": 11, "note": 63, "velocity": 119, "channel": 0}, {"type": "note_off", "time": 62, "note": 63, "velocity": 119, "channel": 0}, {"type": "note_on", "time": 41, "note": 61, "velocity": 111, "channel": 0}, {"type": "note_off", "time": 79, "note": 61, "velocity": 111, "channel": 0}, {"type": "note_on", "time": 24, "note": 60, "velocity": 110, "channel": 0}, {"type": "note_off", "time": 47, "note": 60, "velocity": 110, "channel": 0}, {"type": "note_on", "time": 26, "note": 59, "velocity": 111, "channel": 0}, {"type": "note_off", "time": 81, "note": 59, "velocity": 111, "channel": 0}, {"type": "note_on", "time": 24, "note": 55, "velocity": 103, "channel": 0}, {"type": "note_off", "time": 47, "note": 55, "velocity": 103, "channel": 0}, {"type": "note_on", "time": 24, "note": 60, "velocity": 112, "channel": 0}, {"type": "note_off", "time": 76, "note": 60, "velocity": 112, "channel": 0}, {"type": "note_on", "time": 45, "note": 62, "velocity": 114, "channel": 0}, {"type": "note_off", "time": 68, "note": 62, "velocity": 114, "channel": 0}, {"type": "note_on", "time": 13, "note": 63, "velocity": 122, "channel": 0}, {"type": "note_off", "time": 81, "note": 63, "velocity": 122, "channel": 0}, {"type": "note_on", "time": 34, "note": 60, "velocity": 103, "channel": 0}, {"type": "note_off", "time": 57, "note": 60, "velocity": 103, "channel": 0}, {"type": "note_on", "time": 30, "note": 67, "velocity": 119, "channel": 0}, {"type": "note_off", "time": 68, "note": 67, "velocity": 119, "channel": 0}, {"type": "note_on", "time": 19, "note": 65, "velocity": 108, "channel": 0}, {"type": "note_off", "time": 53, "note": 65, "velocity": 108, "channel": 0}, {"type": "note_on", "time": 47, "note": 62, "velocity": 110, "channel": 0}, {"type": "note_off", "time": 76, "note": 62, "velocity": 110, "channel": 0}, {"type": "note_on", "time": 9, "note": 60, "velocity": 113, "channel": 0}, {"type": "note_off", "time": 85, "note": 60, "velocity": 113, "channel": 0}, {"type": "note_on", "time": 11, "note": 58, "velocity": 101, "channel": 0}, {"type": "note_off", "time": 104, "note": 58, "velocity": 101, "channel": 0}, {"type": "note_on", "time": 216, "note": 68, "velocity": 121, "channel": 0}, {"type": "note_off", "time": 79, "note": 68, "velocity": 121, "channel": 0}, {"type": "note_on", "time": 3, "note": 67, "velocity": 118, "channel": 0}, {"type": "note_off", "time": 58, "note": 67, "velocity": 118, "channel": 0}, {"type": "note_on", "time": 26, "note": 63, "velocity": 121, "channel": 0}, {"type": "note_off", "time": 112, "note": 63, "velocity": 121, "channel": 0}, {"type": "note_on", "time": 260, "note": 57, "velocity": 114, "channel": 0}, {"type": "note_off", "time": 62, "note": 57, "velocity": 114, "channel": 0}, {"type": "note_on", "time": 140, "note": 67, "velocity": 104, "channel": 0}, {"type": "note_off", "time": 72, "note": 67, "velocity": 104, "channel": 0}, {"type": "note_on", "time": 7, "note": 71, "velocity": 122, "channel": 0}, {"type": "note_off", "time": 77, "note": 71, "velocity": 122, "channel": 0}, {"type": "note_on", "time": 7, "note": 69, "velocity": 117, "channel": 0}, {"type": "note_off", "time": 79, "note": 69, "velocity": 117, "channel": 0}, {"type": "note_on", "time": 0, "note": 66, "velocity": 113, "channel": 0}, {"type": "note_off", "time": 93, "note": 66, "velocity": 113, "channel": 0}, {"type": "note_on", "time": 15, "note": 64, "velocity": 118, "channel": 0}, {"type": "note_off", "time": 87, "note": 64, "velocity": 118, "channel": 0}, {"type": "note_on", "time": 11, "note": 62, "velocity": 111, "channel": 0}, {"type": "note_off", "time": 57, "note": 62, "velocity": 111, "channel": 0}, {"type": "note_on", "time": 24, "note": 64, "velocity": 121, "channel": 0}, {"type": "note_off", "time": 93, "note": 64, "velocity": 121, "channel": 0}, {"type": "note_on", "time": 3, "note": 66, "velocity": 107, "channel": 0}, {"type": "note_off", "time": 68, "note": 66, "velocity": 107, "channel": 0}, {"type": "note_on", "time": 24, "note": 69, "velocity": 118, "channel": 0}, {"type": "note_off", "time": 79, "note": 69, "velocity": 118, "channel": 0}, {"type": "note_on", "time": 20, "note": 67, "velocity": 114, "channel": 0}, {"type": "note_off", "time": 87, "note": 67, "velocity": 114, "channel": 0}, {"type": "note_on", "time": 17, "note": 69, "velocity": 115, "channel": 0}, {"type": "note_off", "time": 72, "note": 69, "velocity": 115, "channel": 0}, {"type": "note_on", "time": 0, "note": 71, "velocity": 116, "channel": 0}, {"type": "note_off", "time": 68, "note": 71, "velocity": 116, "channel": 0}, {"type": "note_on", "time": 20, "note": 70, "velocity": 114, "channel": 0}, {"type": "note_off", "time": 199, "note": 70, "velocity": 114, "channel": 0}, {"type": "note_on", "time": 27, "note": 71, "velocity": 115, "channel": 0}, {"type": "note_off", "time": 526, "note": 71, "velocity": 115, "channel": 0}, {"type": "note_on", "time": 128, "note": 70, "velocity": 119, "channel": 0}, {"type": "note_off", "time": 91, "note": 70, "velocity": 119, "channel": 0}, {"type": "note_on", "time": 34, "note": 66, "velocity": 112, "channel": 0}, {"type": "note_off", "time": 68, "note": 66, "velocity": 112, "channel": 0}, {"type": "note_on", "time": 1, "note": 68, "velocity": 114, "channel": 0}, {"type": "note_off", "time": 81, "note": 68, "velocity": 114, "channel": 0}, {"type": "note_on", "time": 1, "note": 70, "velocity": 117, "channel": 0}, {"type": "note_off", "time": 74, "note": 70, "velocity": 117, "channel": 0}, {"type": "note_on", "time": 22, "note": 66, "velocity": 110, "channel": 0}, {"type": "note_off", "time": 85, "note": 66, "velocity": 110, "channel": 0}, {"type": "note_on", "time": 17, "note": 63, "velocity": 119, "channel": 0}, {"type": "note_off", "time": 81, "note": 63, "velocity": 119, "channel": 0}, {"type": "note_on", "time": 9, "note": 61, "velocity": 108, "channel": 0}, {"type": "note_off", "time": 93, "note": 61, "velocity": 108, "channel": 0}, {"type": "note_on", "time": 13, "note": 59, "velocity": 99, "channel": 0}, {"type": "note_off", "time": 60, "note": 59, "velocity": 99, "channel": 0}, {"type": "note_on", "time": 22, "note": 60, "velocity": 105, "channel": 0}, {"type": "note_off", "time": 91, "note": 60, "velocity": 105, "channel": 0}, {"type": "note_on", "time": 1, "note": 62, "velocity": 111, "channel": 0}, {"type": "note_off", "time": 68, "note": 62, "velocity": 111, "channel": 0}, {"type": "note_on", "time": 30, "note": 63, "velocity": 117, "channel": 0}, {"type": "note_off", "time": 81, "note": 63, "velocity": 117, "channel": 0}, {"type": "note_on", "time": 26, "note": 60, "velocity": 100, "channel": 0}, {"type": "note_off", "time": 58, "note": 60, "velocity": 100, "channel": 0}, {"type": "note_on", "time": 20, "note": 67, "velocity": 112, "channel": 0}, {"type": "note_off", "time": 98, "note": 67, "velocity": 112, "channel": 0}, {"type": "note_on", "time": 5, "note": 65, "velocity": 109, "channel": 0}, {"type": "note_off", "time": 58, "note": 65, "velocity": 109, "channel": 0}, {"type": "note_on", "time": 3, "note": 62, "velocity": 111, "channel": 0}, {"type": "note_off", "time": 100, "note": 62, "velocity": 111, "channel": 0}, {"type": "note_on", "time": 34, "note": 60, "velocity": 109, "channel": 0}, {"type": "note_off", "time": 68, "note": 60, "velocity": 109, "channel": 0}, {"type": "note_on", "time": 13, "note": 58, "velocity": 98, "channel": 0}, {"type": "note_off", "time": 266, "note": 58, "velocity": 98, "channel": 0}, {"type": "note_on", "time": 9, "note": 67, "velocity": 116, "channel": 0}, {"type": "note_off", "time": 106, "note": 67, "velocity": 116, "channel": 0}, {"type": "note_on", "time": 486, "note": 61, "velocity": 110, "channel": 0}, {"type": "note_off", "time": 77, "note": 61, "velocity": 110, "channel": 0}, {"type": "note_on", "time": 1, "note": 64, "velocity": 115, "channel": 0}, {"type": "note_off", "time": 60, "note": 64, "velocity": 115, "channel": 0}, {"type": "note_on", "time": 0, "note": 68, "velocity": 120, "channel": 0}, {"type": "note_off", "time": 60, "note": 68, "velocity": 120, "channel": 0}, {"type": "note_on", "time": 3, "note": 70, "velocity": 114, "channel": 0}, {"type": "note_off", "time": 55, "note": 70, "velocity": 114, "channel": 0}, {"type": "note_on", "time": 19, "note": 66, "velocity": 113, "channel": 0}, {"type": "note_off", "time": 76, "note": 66, "velocity": 113, "channel": 0}, {"type": "note_on", "time": 17, "note": 68, "velocity": 110, "channel": 0}, {"type": "note_on", "time": 58, "note": 70, "velocity": 112, "channel": 0}, {"type": "note_off", "time": 0, "note": 68, "velocity": 110, "channel": 0}, {"type": "note_off", "time": 72, "note": 70, "velocity": 112, "channel": 0}, {"type": "note_on", "time": 51, "note": 73, "velocity": 105, "channel": 0}, {"type": "note_off", "time": 76, "note": 73, "velocity": 105, "channel": 0}, {"type": "note_on", "time": 19, "note": 70, "velocity": 110, "channel": 0}, {"type": "note_off", "time": 66, "note": 70, "velocity": 110, "channel": 0}, {"type": "note_on", "time": 30, "note": 61, "velocity": 109, "channel": 0}, {"type": "note_off", "time": 83, "note": 61, "velocity": 109, "channel": 0}, {"type": "note_on", "time": 9, "note": 63, "velocity": 112, "channel": 0}, {"type": "note_off", "time": 97, "note": 63, "velocity": 112, "channel": 0}, {"type": "note_on", "time": 49, "note": 65, "velocity": 108, "channel": 0}, {"type": "note_off", "time": 60, "note": 65, "velocity": 108, "channel": 0}, {"type": "note_on", "time": 7, "note": 62, "velocity": 112, "channel": 0}, {"type": "note_off", "time": 110, "note": 62, "velocity": 112, "channel": 0}, {"type": "note_on", "time": 0, "note": 64, "velocity": 119, "channel": 0}, {"type": "note_off", "time": 68, "note": 64, "velocity": 119, "channel": 0}, {"type": "note_on", "time": 19, "note": 66, "velocity": 108, "channel": 0}, {"type": "note_off", "time": 62, "note": 66, "velocity": 108, "channel": 0}, {"type": "note_on", "time": 30, "note": 69, "velocity": 117, "channel": 0}, {"type": "note_off", "time": 96, "note": 69, "velocity": 117, "channel": 0}, {"type": "note_on", "time": 0, "note": 67, "velocity": 113, "channel": 0}, {"type": "note_off", "time": 70, "note": 67, "velocity": 113, "channel": 0}, {"type": "note_on", "time": 32, "note": 62, "velocity": 117, "channel": 0}, {"type": "note_off", "time": 60, "note": 62, "velocity": 117, "channel": 0}, {"type": "note_on", "time": 32, "note": 59, "velocity": 107, "channel": 0}, {"type": "note_off", "time": 62, "note": 59, "velocity": 107, "channel": 0}, {"type": "note_on", "time": 129, "note": 60, "velocity": 107, "channel": 0}, {"type": "note_off", "time": 89, "note": 60, "velocity": 107, "channel": 0}, {"type": "note_on", "time": 3, "note": 56, "velocity": 113, "channel": 0}, {"type": "note_off", "time": 76, "note": 56, "velocity": 113, "channel": 0}, {"type": "note_on", "time": 5, "note": 55, "velocity": 107, "channel": 0}, {"type": "note_off", "time": 64, "note": 55, "velocity": 107, "channel": 0}, {"type": "note_on", "time": 41, "note": 53, "velocity": 106, "channel": 0}, {"type": "note_off", "time": 64, "note": 53, "velocity": 106, "channel": 0}, {"type": "note_on", "time": 17, "note": 51, "velocity": 105, "channel": 0}, {"type": "note_off", "time": 62, "note": 51, "velocity": 105, "channel": 0}, {"type": "note_on", "time": 39, "note": 53, "velocity": 108, "channel": 0}, {"type": "note_off", "time": 79, "note": 53, "velocity": 108, "channel": 0}, {"type": "note_on", "time": 19, "note": 55, "velocity": 108, "channel": 0}, {"type": "note_off", "time": 77, "note": 55, "velocity": 108, "channel": 0}, {"type": "note_on", "time": 13, "note": 56, "velocity": 107, "channel": 0}, {"type": "note_off", "time": 95, "note": 56, "velocity": 107, "channel": 0}, {"type": "note_on", "time": 14, "note": 58, "velocity": 106, "channel": 0}, {"type": "note_off", "time": 62, "note": 58, "velocity": 106, "channel": 0}, {"type": "note_on", "time": 37, "note": 60, "velocity": 109, "channel": 0}, {"type": "note_off", "time": 77, "note": 60, "velocity": 109, "channel": 0}, {"type": "note_on", "time": 0, "note": 62, "velocity": 110, "channel": 0}, {"type": "note_off", "time": 72, "note": 62, "velocity": 110, "channel": 0}, {"type": "note_on", "time": 51, "note": 65, "velocity": 110, "channel": 0}, {"type": "note_off", "time": 74, "note": 65, "velocity": 110, "channel": 0}, {"type": "note_on", "time": 13, "note": 64, "velocity": 112, "channel": 0}, {"type": "note_off", "time": 68, "note": 64, "velocity": 112, "channel": 0}, {"type": "note_on", "time": 9, "note": 68, "velocity": 103, "channel": 0}, {"type": "note_off", "time": 58, "note": 68, "velocity": 103, "channel": 0}, {"type": "note_on", "time": 26, "note": 67, "velocity": 108, "channel": 0}, {"type": "note_off", "time": 60, "note": 67, "velocity": 108, "channel": 0}, {"type": "note_on", "time": 172, "note": 71, "velocity": 116, "channel": 0}, {"type": "note_off", "time": 58, "note": 71, "velocity": 116, "channel": 0}, {"type": "note_on", "time": 53, "note": 62, "velocity": 104, "channel": 0}, {"type": "note_off", "time": 57, "note": 62, "velocity": 104, "channel": 0}, {"type": "note_on", "time": 36, "note": 64, "velocity": 98, "channel": 0}, {"type": "note_off", "time": 60, "note": 64, "velocity": 98, "channel": 0}, {"type": "note_on", "time": 26, "note": 66, "velocity": 100, "channel": 0}, {"type": "note_off", "time": 60, "note": 66, "velocity": 100, "channel": 0}, {"type": "note_on", "time": 30, "note": 67, "velocity": 116, "channel": 0}, {"type": "note_off", "time": 53, "note": 67, "velocity": 116, "channel": 0}, {"type": "note_on", "time": 70, "note": 69, "velocity": 114, "channel": 0}, {"type": "note_off", "time": 68, "note": 69, "velocity": 114, "channel": 0}, {"type": "note_on", "time": 0, "note": 71, "velocity": 111, "channel": 0}, {"type": "note_off", "time": 62, "note": 71, "velocity": 111, "channel": 0}, {"type": "note_on", "time": 9, "note": 74, "velocity": 107, "channel": 0}, {"type": "note_off", "time": 76, "note": 74, "velocity": 107, "channel": 0}, {"type": "note_on", "time": 26, "note": 68, "velocity": 114, "channel": 0}, {"type": "note_on", "time": 98, "note": 72, "velocity": 114, "channel": 0}, {"type": "note_off", "time": 0, "note": 68, "velocity": 114, "channel": 0}, {"type": "note_off", "time": 55, "note": 72, "velocity": 114, "channel": 0}, {"type": "note_on", "time": 36, "note": 70, "velocity": 115, "channel": 0}, {"type": "note_off", "time": 74, "note": 70, "velocity": 115, "channel": 0}, {"type": "note_on", "time": 19, "note": 68, "velocity": 114, "channel": 0}, {"type": "note_off", "time": 81, "note": 68, "velocity": 114, "channel": 0}, {"type": "note_on", "time": 7, "note": 67, "velocity": 110, "channel": 0}, {"type": "note_off", "time": 89, "note": 67, "velocity": 110, "channel": 0}, {"type": "note_on", "time": 66, "note": 65, "velocity": 97, "channel": 0}, {"type": "note_off", "time": 72, "note": 65, "velocity": 97, "channel": 0}, {"type": "note_on", "time": 19, "note": 67, "velocity": 109, "channel": 0}, {"type": "note_off", "time": 47, "note": 67, "velocity": 109, "channel": 0}, {"type": "note_on", "time": 11, "note": 67, "velocity": 112, "channel": 0}, {"type": "note_off", "time": 72, "note": 67, "velocity": 112, "channel": 0}, {"type": "note_on", "time": 28, "note": 64, "velocity": 112, "channel": 0}, {"type": "note_off", "time": 98, "note": 64, "velocity": 112, "channel": 0}, {"type": "note_on", "time": 15, "note": 66, "velocity": 98, "channel": 0}, {"type": "note_off", "time": 58, "note": 66, "velocity": 98, "channel": 0}, {"type": "note_on", "time": 39, "note": 68, "velocity": 94, "channel": 0}, {"type": "note_off", "time": 43, "note": 68, "velocity": 94, "channel": 0}, {"type": "note_on", "time": 28, "note": 70, "velocity": 103, "channel": 0}, {"type": "note_off", "time": 64, "note": 70, "velocity": 103, "channel": 0}, {"type": "note_on", "time": 7, "note": 73, "velocity": 117, "channel": 0}, {"type": "note_off", "time": 214, "note": 73, "velocity": 117, "channel": 0}, {"type": "note_on", "time": 13, "note": 70, "velocity": 113, "channel": 0}, {"type": "note_off", "time": 77, "note": 70, "velocity": 113, "channel": 0}, {"type": "note_on", "time": 11, "note": 68, "velocity": 111, "channel": 0}, {"type": "note_off", "time": 57, "note": 68, "velocity": 111, "channel": 0}, {"type": "note_on", "time": 45, "note": 66, "velocity": 106, "channel": 0}, {"type": "note_off", "time": 55, "note": 66, "velocity": 106, "channel": 0}, {"type": "note_on", "time": 13, "note": 63, "velocity": 112, "channel": 0}, {"type": "note_off", "time": 125, "note": 63, "velocity": 112, "channel": 0}, {"type": "note_on", "time": 483, "note": 72, "velocity": 112, "channel": 0}, {"type": "note_off", "time": 79, "note": 72, "velocity": 112, "channel": 0}, {"type": "note_on", "time": 10, "note": 74, "velocity": 119, "channel": 0}, {"type": "note_off", "time": 184, "note": 74, "velocity": 119, "channel": 0}, {"type": "note_on", "time": 12, "note": 70, "velocity": 98, "channel": 0}, {"type": "note_off", "time": 70, "note": 70, "velocity": 98, "channel": 0}, {"type": "note_on", "time": 27, "note": 73, "velocity": 103, "channel": 0}, {"type": "note_off", "time": 41, "note": 73, "velocity": 103, "channel": 0}, {"type": "note_on", "time": 3, "note": 72, "velocity": 114, "channel": 0}, {"type": "note_off", "time": 53, "note": 72, "velocity": 114, "channel": 0}, {"type": "note_on", "time": 13, "note": 70, "velocity": 120, "channel": 0}, {"type": "note_off", "time": 77, "note": 70, "velocity": 120, "channel": 0}, {"type": "note_on", "time": 12, "note": 68, "velocity": 119, "channel": 0}, {"type": "note_off", "time": 70, "note": 68, "velocity": 119, "channel": 0}, {"type": "note_on", "time": 14, "note": 67, "velocity": 116, "channel": 0}, {"type": "note_off", "time": 98, "note": 67, "velocity": 116, "channel": 0}, {"type": "note_on", "time": 13, "note": 65, "velocity": 110, "channel": 0}, {"type": "note_off", "time": 51, "note": 65, "velocity": 110, "channel": 0}, {"type": "note_on", "time": 1, "note": 63, "velocity": 120, "channel": 0}, {"type": "note_off", "time": 133, "note": 63, "velocity": 120, "channel": 0}, {"type": "note_on", "time": 17, "note": 65, "velocity": 109, "channel": 0}, {"type": "note_off", "time": 66, "note": 65, "velocity": 109, "channel": 0}, {"type": "note_on", "time": 129, "note": 70, "velocity": 109, "channel": 0}, {"type": "note_off", "time": 47, "note": 70, "velocity": 109, "channel": 0}, {"type": "note_on", "time": 33, "note": 71, "velocity": 113, "channel": 0}, {"type": "note_off", "time": 83, "note": 71, "velocity": 113, "channel": 0}, {"type": "note_on", "time": 18, "note": 74, "velocity": 113, "channel": 0}, {"type": "note_off", "time": 592, "note": 74, "velocity": 113, "channel": 0}, {"type": "note_on", "time": 0, "note": 73, "velocity": 111, "channel": 0}, {"type": "note_off", "time": 28, "note": 73, "velocity": 111, "channel": 0}, {"type": "note_on", "time": 0, "note": 72, "velocity": 114, "channel": 0}, {"type": "note_off", "time": 32, "note": 72, "velocity": 114, "channel": 0}, {"type": "note_on", "time": 13, "note": 71, "velocity": 120, "channel": 0}, {"type": "note_off", "time": 108, "note": 71, "velocity": 120, "channel": 0}, {"type": "note_on", "time": 24, "note": 66, "velocity": 105, "channel": 0}, {"type": "note_off", "time": 70, "note": 66, "velocity": 105, "channel": 0}, {"type": "note_on", "time": 15, "note": 69, "velocity": 113, "channel": 0}, {"type": "note_off", "time": 89, "note": 69, "velocity": 113, "channel": 0}, {"type": "note_on", "time": 24, "note": 66, "velocity": 104, "channel": 0}, {"type": "note_off", "time": 66, "note": 66, "velocity": 104, "channel": 0}, {"type": "note_on", "time": 15, "note": 67, "velocity": 118, "channel": 0}, {"type": "note_off", "time": 108, "note": 67, "velocity": 118, "channel": 0}, {"type": "note_on", "time": 1, "note": 62, "velocity": 116, "channel": 0}, {"type": "note_off", "time": 81, "note": 62, "velocity": 116, "channel": 0}, {"type": "note_on", "time": 26, "note": 59, "velocity": 110, "channel": 0}, {"type": "note_off", "time": 60, "note": 59, "velocity": 110, "channel": 0}, {"type": "note_on", "time": 0, "note": 56, "velocity": 102, "channel": 0}, {"type": "note_off", "time": 74, "note": 56, "velocity": 102, "channel": 0}, {"type": "note_on", "time": 26, "note": 63, "velocity": 120, "channel": 0}, {"type": "note_off", "time": 89, "note": 63, "velocity": 120, "channel": 0}, {"type": "note_on", "time": 24, "note": 59, "velocity": 110, "channel": 0}, {"type": "note_off", "time": 74, "note": 59, "velocity": 110, "channel": 0}, {"type": "note_on", "time": 5, "note": 58, "velocity": 106, "channel": 0}, {"type": "note_off", "time": 57, "note": 58, "velocity": 106, "channel": 0}, {"type": "note_on", "time": 45, "note": 54, "velocity": 98, "channel": 0}, {"type": "note_off", "time": 62, "note": 54, "velocity": 98, "channel": 0}, {"type": "note_on", "time": 24, "note": 56, "velocity": 118, "channel": 0}, {"type": "note_off", "time": 93, "note": 56, "velocity": 118, "channel": 0}, {"type": "note_on", "time": 22, "note": 54, "velocity": 108, "channel": 0}, {"type": "note_off", "time": 47, "note": 54, "velocity": 108, "channel": 0}, {"type": "note_on", "time": 30, "note": 56, "velocity": 108, "channel": 0}, {"type": "note_off", "time": 55, "note": 56, "velocity": 108, "channel": 0}, {"type": "note_on", "time": 45, "note": 58, "velocity": 101, "channel": 0}, {"type": "note_off", "time": 87, "note": 58, "velocity": 101, "channel": 0}, {"type": "note_on", "time": 13, "note": 59, "velocity": 105, "channel": 0}, {"type": "note_off", "time": 77, "note": 59, "velocity": 105, "channel": 0}, {"type": "note_on", "time": 22, "note": 61, "velocity": 116, "channel": 0}, {"type": "note_off", "time": 87, "note": 61, "velocity": 116, "channel": 0}, {"type": "note_on", "time": 3, "note": 63, "velocity": 117, "channel": 0}, {"type": "note_off", "time": 79, "note": 63, "velocity": 117, "channel": 0}, {"type": "note_on", "time": 39, "note": 66, "velocity": 104, "channel": 0}, {"type": "note_off", "time": 55, "note": 66, "velocity": 104, "channel": 0}, {"type": "note_on", "time": 22, "note": 69, "velocity": 120, "channel": 0}, {"type": "note_off", "time": 112, "note": 69, "velocity": 120, "channel": 0}, {"type": "note_on", "time": 7, "note": 66, "velocity": 111, "channel": 0}, {"type": "note_off", "time": 53, "note": 66, "velocity": 111, "channel": 0}, {"type": "note_on", "time": 13, "note": 63, "velocity": 116, "channel": 0}, {"type": "note_off", "time": 95, "note": 63, "velocity": 116, "channel": 0}, {"type": "note_on", "time": 15, "note": 59, "velocity": 99, "channel": 0}, {"type": "note_off", "time": 58, "note": 59, "velocity": 99, "channel": 0}, {"type": "note_on", "time": 26, "note": 68, "velocity": 111, "channel": 0}, {"type": "note_off", "time": 269, "note": 68, "velocity": 111, "channel": 0}, {"type": "note_on", "time": 7, "note": 67, "velocity": 113, "channel": 0}, {"type": "note_off", "time": 41, "note": 67, "velocity": 113, "channel": 0}, {"type": "note_on", "time": 11, "note": 65, "velocity": 106, "channel": 0}, {"type": "note_off", "time": 83, "note": 65, "velocity": 106, "channel": 0}, {"type": "note_on", "time": 0, "note": 62, "velocity": 113, "channel": 0}, {"type": "note_off", "time": 62, "note": 62, "velocity": 113, "channel": 0}, {"type": "note_on", "time": 1, "note": 63, "velocity": 119, "channel": 0}, {"type": "note_off", "time": 87, "note": 63, "velocity": 119, "channel": 0}, {"type": "note_on", "time": 3, "note": 62, "velocity": 113, "channel": 0}, {"type": "note_off", "time": 51, "note": 62, "velocity": 113, "channel": 0}, {"type": "note_on", "time": 39, "note": 60, "velocity": 111, "channel": 0}, {"type": "note_off", "time": 76, "note": 60, "velocity": 111, "channel": 0}, {"type": "note_on", "time": 20, "note": 58, "velocity": 113, "channel": 0}, {"type": "note_off", "time": 76, "note": 58, "velocity": 113, "channel": 0}, {"type": "note_on", "time": 7, "note": 56, "velocity": 113, "channel": 0}, {"type": "note_off", "time": 100, "note": 56, "velocity": 113, "channel": 0}, {"type": "note_on", "time": 19, "note": 55, "velocity": 109, "channel": 0}, {"type": "note_off", "time": 53, "note": 55, "velocity": 109, "channel": 0}, {"type": "note_on", "time": 28, "note": 53, "velocity": 111, "channel": 0}, {"type": "note_off", "time": 87, "note": 53, "velocity": 111, "channel": 0}, {"type": "note_on", "time": 31, "note": 51, "velocity": 92, "channel": 0}, {"type": "note_off", "time": 87, "note": 51, "velocity": 92, "channel": 0}, {"type": "note_on", "time": 31, "note": 53, "velocity": 97, "channel": 0}, {"type": "note_off", "time": 114, "note": 53, "velocity": 97, "channel": 0}, {"type": "note_on", "time": 45, "note": 58, "velocity": 97, "channel": 0}, {"type": "note_off", "time": 49, "note": 58, "velocity": 97, "channel": 0}, {"type": "note_on", "time": 13, "note": 63, "velocity": 122, "channel": 0}, {"type": "note_off", "time": 89, "note": 63, "velocity": 122, "channel": 0}, {"type": "note_on", "time": 786, "note": 54, "velocity": 111, "channel": 0}, {"type": "note_off", "time": 62, "note": 54, "velocity": 111, "channel": 0}, {"type": "note_on", "time": 20, "note": 59, "velocity": 107, "channel": 0}, {"type": "note_off", "time": 62, "note": 59, "velocity": 107, "channel": 0}, {"type": "note_on", "time": 22, "note": 63, "velocity": 119, "channel": 0}, {"type": "note_off", "time": 81, "note": 63, "velocity": 119, "channel": 0}, {"type": "note_on", "time": 9, "note": 62, "velocity": 118, "channel": 0}, {"type": "note_off", "time": 74, "note": 62, "velocity": 118, "channel": 0}, {"type": "note_on", "time": 26, "note": 64, "velocity": 122, "channel": 0}, {"type": "note_off", "time": 119, "note": 64, "velocity": 122, "channel": 0}, {"type": "note_on", "time": 5, "note": 66, "velocity": 111, "channel": 0}, {"type": "note_off", "time": 60, "note": 66, "velocity": 111, "channel": 0}, {"type": "note_on", "time": 20, "note": 69, "velocity": 118, "channel": 0}, {"type": "note_off", "time": 104, "note": 69, "velocity": 118, "channel": 0}, {"type": "note_on", "time": 1, "note": 67, "velocity": 114, "channel": 0}, {"type": "note_off", "time": 74, "note": 67, "velocity": 114, "channel": 0}, {"type": "note_on", "time": 38, "note": 62, "velocity": 117, "channel": 0}, {"type": "note_off", "time": 74, "note": 62, "velocity": 117, "channel": 0}, {"type": "note_on", "time": 0, "note": 59, "velocity": 105, "channel": 0}, {"type": "note_off", "time": 74, "note": 59, "velocity": 105, "channel": 0}, {"type": "note_on", "time": 49, "note": 55, "velocity": 97, "channel": 0}, {"type": "note_off", "time": 47, "note": 55, "velocity": 97, "channel": 0}, {"type": "note_on", "time": 15, "note": 60, "velocity": 116, "channel": 0}, {"type": "note_off", "time": 79, "note": 60, "velocity": 116, "channel": 0}, {"type": "note_on", "time": 26, "note": 56, "velocity": 114, "channel": 0}, {"type": "note_off", "time": 96, "note": 56, "velocity": 114, "channel": 0}, {"type": "note_on", "time": 24, "note": 55, "velocity": 110, "channel": 0}, {"type": "note_off", "time": 60, "note": 55, "velocity": 110, "channel": 0}, {"type": "note_on", "time": 15, "note": 53, "velocity": 107, "channel": 0}, {"type": "note_off", "time": 77, "note": 53, "velocity": 107, "channel": 0}, {"type": "note_on", "time": 11, "note": 51, "velocity": 105, "channel": 0}, {"type": "note_off", "time": 79, "note": 51, "velocity": 105, "channel": 0}, {"type": "note_on", "time": 17, "note": 53, "velocity": 108, "channel": 0}, {"type": "note_off", "time": 83, "note": 53, "velocity": 108, "channel": 0}, {"type": "note_on", "time": 30, "note": 55, "velocity": 112, "channel": 0}, {"type": "note_off", "time": 66, "note": 55, "velocity": 112, "channel": 0}, {"type": "note_on", "time": 1, "note": 56, "velocity": 111, "channel": 0}, {"type": "note_off", "time": 77, "note": 56, "velocity": 111, "channel": 0}, {"type": "note_on", "time": 34, "note": 58, "velocity": 101, "channel": 0}, {"type": "note_off", "time": 64, "note": 58, "velocity": 101, "channel": 0}, {"type": "note_on", "time": 24, "note": 60, "velocity": 112, "channel": 0}, {"type": "note_off", "time": 81, "note": 60, "velocity": 112, "channel": 0}, {"type": "note_on", "time": 20, "note": 62, "velocity": 104, "channel": 0}, {"type": "note_off", "time": 53, "note": 62, "velocity": 104, "channel": 0}, {"type": "note_on", "time": 32, "note": 65, "velocity": 110, "channel": 0}, {"type": "note_off", "time": 83, "note": 65, "velocity": 110, "channel": 0}, {"type": "note_on", "time": 5, "note": 64, "velocity": 115, "channel": 0}, {"type": "note_off", "time": 58, "note": 64, "velocity": 115, "channel": 0}, {"type": "note_on", "time": 39, "note": 68, "velocity": 102, "channel": 0}, {"type": "note_off", "time": 62, "note": 68, "velocity": 102, "channel": 0}, {"type": "note_on", "time": 0, "note": 67, "velocity": 107, "channel": 0}, {"type": "note_off", "time": 79, "note": 67, "velocity": 107, "channel": 0}, {"type": "note_on", "time": 144, "note": 71, "velocity": 110, "channel": 0}, {"type": "note_off", "time": 55, "note": 71, "velocity": 110, "channel": 0}, {"type": "note_on", "time": 38, "note": 62, "velocity": 111, "channel": 0}, {"type": "note_off", "time": 68, "note": 62, "velocity": 111, "channel": 0}, {"type": "note_on", "time": 7, "note": 64, "velocity": 107, "channel": 0}, {"type": "note_off", "time": 62, "note": 64, "velocity": 107, "channel": 0}, {"type": "note_on", "time": 60, "note": 69, "velocity": 115, "channel": 0}, {"type": "note_off", "time": 77, "note": 69, "velocity": 115, "channel": 0}, {"type": "note_on", "time": 3, "note": 67, "velocity": 115, "channel": 0}, {"type": "note_off", "time": 85, "note": 67, "velocity": 115, "channel": 0}, {"type": "note_on", "time": 17, "note": 69, "velocity": 116, "channel": 0}, {"type": "note_off", "time": 79, "note": 69, "velocity": 116, "channel": 0}, {"type": "note_on", "time": 0, "note": 71, "velocity": 111, "channel": 0}, {"type": "note_off", "time": 70, "note": 71, "velocity": 111, "channel": 0}, {"type": "note_on", "time": 11, "note": 72, "velocity": 114, "channel": 0}, {"type": "note_off", "time": 79, "note": 72, "velocity": 114, "channel": 0}, {"type": "note_on", "time": 32, "note": 62, "velocity": 115, "channel": 0}, {"type": "note_off", "time": 87, "note": 62, "velocity": 115, "channel": 0}, {"type": "note_on", "time": 19, "note": 63, "velocity": 102, "channel": 0}, {"type": "note_off", "time": 45, "note": 63, "velocity": 102, "channel": 0}, {"type": "note_on", "time": 43, "note": 68, "velocity": 112, "channel": 0}, {"type": "note_off", "time": 68, "note": 68, "velocity": 112, "channel": 0}, {"type": "note_on", "time": 24, "note": 72, "velocity": 115, "channel": 0}, {"type": "note_off", "time": 62, "note": 72, "velocity": 115, "channel": 0}, {"type": "note_on", "time": 24, "note": 63, "velocity": 119, "channel": 0}, {"type": "note_off", "time": 98, "note": 63, "velocity": 119, "channel": 0}, {"type": "note_on", "time": 11, "note": 65, "velocity": 107, "channel": 0}, {"type": "note_off", "time": 68, "note": 65, "velocity": 107, "channel": 0}, {"type": "note_on", "time": 13, "note": 67, "velocity": 107, "channel": 0}, {"type": "note_off", "time": 77, "note": 67, "velocity": 107, "channel": 0}, {"type": "note_on", "time": 53, "note": 67, "velocity": 93, "channel": 0}, {"type": "note_off", "time": 45, "note": 67, "velocity": 93, "channel": 0}, {"type": "note_on", "time": 421, "note": 66, "velocity": 117, "channel": 0}, {"type": "note_off", "time": 96, "note": 66, "velocity": 117, "channel": 0}, {"type": "note_on", "time": 80, "note": 63, "velocity": 123, "channel": 0}, {"type": "note_on", "time": 112, "note": 61, "velocity": 108, "channel": 0}, {"type": "note_off", "time": 0, "note": 63, "velocity": 123, "channel": 0}, {"type": "note_off", "time": 77, "note": 61, "velocity": 108, "channel": 0}, {"type": "note_on", "time": 13, "note": 59, "velocity": 107, "channel": 0}, {"type": "note_off", "time": 79, "note": 59, "velocity": 107, "channel": 0}, {"type": "note_on", "time": 5, "note": 61, "velocity": 111, "channel": 0}, {"type": "note_off", "time": 89, "note": 61, "velocity": 111, "channel": 0}, {"type": "note_on", "time": 3, "note": 63, "velocity": 114, "channel": 0}, {"type": "note_off", "time": 95, "note": 63, "velocity": 114, "channel": 0}, {"type": "note_on", "time": 34, "note": 66, "velocity": 107, "channel": 0}, {"type": "note_off", "time": 66, "note": 66, "velocity": 107, "channel": 0}, {"type": "note_on", "time": 1, "note": 70, "velocity": 118, "channel": 0}, {"type": "note_off", "time": 95, "note": 70, "velocity": 118, "channel": 0}, {"type": "note_on", "time": 8, "note": 69, "velocity": 115, "channel": 0}, {"type": "note_off", "time": 52, "note": 69, "velocity": 115, "channel": 0}, {"type": "note_on", "time": 13, "note": 68, "velocity": 117, "channel": 0}, {"type": "note_off", "time": 91, "note": 68, "velocity": 117, "channel": 0}, {"type": "note_on", "time": 29, "note": 67, "velocity": 116, "channel": 0}, {"type": "note_off", "time": 66, "note": 67, "velocity": 116, "channel": 0}, {"type": "note_on", "time": 4, "note": 65, "velocity": 108, "channel": 0}, {"type": "note_off", "time": 72, "note": 65, "velocity": 108, "channel": 0}, {"type": "note_on", "time": 20, "note": 63, "velocity": 121, "channel": 0}, {"type": "note_off", "time": 62, "note": 63, "velocity": 121, "channel": 0}, {"type": "note_on", "time": 15, "note": 62, "velocity": 114, "channel": 0}, {"type": "note_off", "time": 93, "note": 62, "velocity": 114, "channel": 0}, {"type": "note_on", "time": 43, "note": 60, "velocity": 111, "channel": 0}, {"type": "note_off", "time": 70, "note": 60, "velocity": 111, "channel": 0}, {"type": "note_on", "time": 0, "note": 58, "velocity": 111, "channel": 0}, {"type": "note_off", "time": 93, "note": 58, "velocity": 111, "channel": 0}, {"type": "note_on", "time": 32, "note": 68, "velocity": 113, "channel": 0}, {"type": "note_off", "time": 64, "note": 68, "velocity": 113, "channel": 0}, {"type": "note_on", "time": 1, "note": 67, "velocity": 113, "channel": 0}, {"type": "note_off", "time": 114, "note": 67, "velocity": 113, "channel": 0}, {"type": "note_on", "time": 5, "note": 62, "velocity": 107, "channel": 0}, {"type": "note_off", "time": 79, "note": 62, "velocity": 107, "channel": 0}, {"type": "note_on", "time": 5, "note": 65, "velocity": 110, "channel": 0}, {"type": "note_off", "time": 104, "note": 65, "velocity": 110, "channel": 0}, {"type": "note_on", "time": 11, "note": 63, "velocity": 120, "channel": 0}, {"type": "note_off", "time": 77, "note": 63, "velocity": 120, "channel": 0}, {"type": "note_on", "time": 11, "note": 62, "velocity": 111, "channel": 0}, {"type": "note_off", "time": 60, "note": 62, "velocity": 111, "channel": 0}, {"type": "note_on", "time": 34, "note": 65, "velocity": 109, "channel": 0}, {"type": "note_off", "time": 76, "note": 65, "velocity": 109, "channel": 0}, {"type": "note_on", "time": 11, "note": 64, "velocity": 115, "channel": 0}, {"type": "note_off", "time": 98, "note": 64, "velocity": 115, "channel": 0}, {"type": "note_on", "time": 7, "note": 60, "velocity": 109, "channel": 0}, {"type": "note_off", "time": 61, "note": 60, "velocity": 109, "channel": 0}, {"type": "note_on", "time": 0, "note": 56, "velocity": 109, "channel": 0}, {"type": "note_off", "time": 95, "note": 56, "velocity": 109, "channel": 0}, {"type": "note_on", "time": 32, "note": 54, "velocity": 96, "channel": 0}, {"type": "note_off", "time": 57, "note": 54, "velocity": 96, "channel": 0}, {"type": "note_on", "time": 18, "note": 55, "velocity": 103, "channel": 0}, {"type": "note_off", "time": 382, "note": 55, "velocity": 103, "channel": 0}, {"type": "note_on", "time": 35, "note": 62, "velocity": 116, "channel": 0}, {"type": "note_off", "time": 123, "note": 62, "velocity": 116, "channel": 0}, {"type": "note_on", "time": 207, "note": 67, "velocity": 105, "channel": 0}, {"type": "note_off", "time": 47, "note": 67, "velocity": 105, "channel": 0}, {"type": "note_on", "time": 0, "note": 71, "velocity": 125, "channel": 0}, {"type": "note_off", "time": 119, "note": 71, "velocity": 125, "channel": 0}, {"type": "note_on", "time": 342, "note": 61, "velocity": 120, "channel": 0}, {"type": "note_off", "time": 77, "note": 61, "velocity": 120, "channel": 0}, {"type": "note_on", "time": 3, "note": 64, "velocity": 113, "channel": 0}, {"type": "note_off", "time": 49, "note": 64, "velocity": 113, "channel": 0}, {"type": "note_on", "time": 0, "note": 68, "velocity": 114, "channel": 0}, {"type": "note_off", "time": 64, "note": 68, "velocity": 114, "channel": 0}, {"type": "note_on", "time": 0, "note": 71, "velocity": 123, "channel": 0}, {"type": "note_off", "time": 66, "note": 71, "velocity": 123, "channel": 0}, {"type": "note_on", "time": 0, "note": 70, "velocity": 125, "channel": 0}, {"type": "note_off", "time": 186, "note": 70, "velocity": 125, "channel": 0}, {"type": "note_on", "time": 5, "note": 72, "velocity": 119, "channel": 0}, {"type": "note_off", "time": 55, "note": 72, "velocity": 119, "channel": 0}, {"type": "note_on", "time": 17, "note": 73, "velocity": 124, "channel": 0}, {"type": "note_off", "time": 123, "note": 73, "velocity": 124, "channel": 0}, {"type": "note_on", "time": 20, "note": 73, "velocity": 120, "channel": 0}, {"type": "note_off", "time": 271, "note": 73, "velocity": 120, "channel": 0}, {"type": "note_on", "time": 24, "note": 70, "velocity": 113, "channel": 0}, {"type": "note_off", "time": 55, "note": 70, "velocity": 113, "channel": 0}, {"type": "note_on", "time": 19, "note": 66, "velocity": 104, "channel": 0}, {"type": "note_off", "time": 68, "note": 66, "velocity": 104, "channel": 0}, {"type": "note_on", "time": 32, "note": 63, "velocity": 123, "channel": 0}, {"type": "note_off", "time": 136, "note": 63, "velocity": 123, "channel": 0}, {"type": "note_on", "time": 73, "note": 70, "velocity": 114, "channel": 0}, {"type": "note_off", "time": 106, "note": 70, "velocity": 114, "channel": 0}, {"type": "note_on", "time": 8, "note": 74, "velocity": 117, "channel": 0}, {"type": "note_off", "time": 236, "note": 74, "velocity": 117, "channel": 0}, {"type": "note_on", "time": 37, "note": 71, "velocity": 121, "channel": 0}, {"type": "note_off", "time": 62, "note": 71, "velocity": 121, "channel": 0}, {"type": "note_on", "time": 5, "note": 70, "velocity": 117, "channel": 0}, {"type": "note_off", "time": 98, "note": 70, "velocity": 117, "channel": 0}, {"type": "note_on", "time": 23, "note": 68, "velocity": 115, "channel": 0}, {"type": "note_off", "time": 70, "note": 68, "velocity": 115, "channel": 0}, {"type": "note_on", "time": 5, "note": 67, "velocity": 119, "channel": 0}, {"type": "note_off", "time": 100, "note": 67, "velocity": 119, "channel": 0}, {"type": "note_on", "time": 20, "note": 65, "velocity": 114, "channel": 0}, {"type": "note_off", "time": 58, "note": 65, "velocity": 114, "channel": 0}, {"type": "note_on", "time": 0, "note": 63, "velocity": 122, "channel": 0}, {"type": "note_off", "time": 83, "note": 63, "velocity": 122, "channel": 0}, {"type": "note_on", "time": 15, "note": 65, "velocity": 110, "channel": 0}, {"type": "note_off", "time": 83, "note": 65, "velocity": 110, "channel": 0}, {"type": "note_on", "time": 28, "note": 67, "velocity": 106, "channel": 0}, {"type": "note_off", "time": 55, "note": 67, "velocity": 106, "channel": 0}, {"type": "note_on", "time": 7, "note": 70, "velocity": 106, "channel": 0}, {"type": "note_off", "time": 72, "note": 70, "velocity": 106, "channel": 0}, {"type": "note_on", "time": 9, "note": 75, "velocity": 120, "channel": 0}, {"type": "note_off", "time": 144, "note": 75, "velocity": 120, "channel": 0}, {"type": "note_on", "time": 361, "note": 75, "velocity": 121, "channel": 0}, {"type": "note_off", "time": 87, "note": 75, "velocity": 121, "channel": 0}, {"type": "note_on", "time": 3, "note": 73, "velocity": 122, "channel": 0}, {"type": "note_on", "time": 91, "note": 71, "velocity": 127, "channel": 0}, {"type": "note_off", "time": 0, "note": 73, "velocity": 122, "channel": 0}, {"type": "note_off", "time": 72, "note": 71, "velocity": 127, "channel": 0}, {"type": "note_on", "time": 9, "note": 70, "velocity": 123, "channel": 0}, {"type": "note_off", "time": 315, "note": 70, "velocity": 123, "channel": 0}, {"type": "note_on", "time": 19, "note": 66, "velocity": 110, "channel": 0}, {"type": "note_off", "time": 70, "note": 66, "velocity": 110, "channel": 0}, {"type": "note_on", "time": 25, "note": 71, "velocity": 101, "channel": 0}, {"type": "note_off", "time": 82, "note": 71, "velocity": 101, "channel": 0}, {"type": "note_on", "time": 17, "note": 74, "velocity": 118, "channel": 0}, {"type": "note_off", "time": 554, "note": 74, "velocity": 118, "channel": 0}, {"type": "note_on", "time": 24, "note": 73, "velocity": 107, "channel": 0}, {"type": "note_off", "time": 44, "note": 73, "velocity": 107, "channel": 0}, {"type": "note_on", "time": 19, "note": 71, "velocity": 121, "channel": 0}, {"type": "note_off", "time": 94, "note": 71, "velocity": 121, "channel": 0}, {"type": "note_on", "time": 44, "note": 62, "velocity": 114, "channel": 0}, {"type": "note_off", "time": 79, "note": 62, "velocity": 114, "channel": 0}, {"type": "note_on", "time": 7, "note": 67, "velocity": 114, "channel": 0}, {"type": "note_off", "time": 72, "note": 67, "velocity": 114, "channel": 0}, {"type": "note_on", "time": 17, "note": 71, "velocity": 122, "channel": 0}, {"type": "note_off", "time": 76, "note": 71, "velocity": 122, "channel": 0}, {"type": "note_on", "time": 11, "note": 70, "velocity": 116, "channel": 0}, {"type": "note_off", "time": 68, "note": 70, "velocity": 116, "channel": 0}, {"type": "note_on", "time": 15, "note": 69, "velocity": 116, "channel": 0}, {"type": "note_off", "time": 72, "note": 69, "velocity": 116, "channel": 0}, {"type": "note_on", "time": 39, "note": 68, "velocity": 114, "channel": 0}, {"type": "note_off", "time": 83, "note": 68, "velocity": 114, "channel": 0}, {"type": "note_on", "time": 24, "note": 72, "velocity": 116, "channel": 0}, {"type": "note_off", "time": 49, "note": 72, "velocity": 116, "channel": 0}, {"type": "note_on", "time": 24, "note": 70, "velocity": 118, "channel": 0}, {"type": "note_off", "time": 83, "note": 70, "velocity": 118, "channel": 0}, {"type": "note_on", "time": 19, "note": 67, "velocity": 119, "channel": 0}, {"type": "note_off", "time": 53, "note": 67, "velocity": 119, "channel": 0}, {"type": "note_on", "time": 20, "note": 65, "velocity": 114, "channel": 0}, {"type": "note_off", "time": 102, "note": 65, "velocity": 114, "channel": 0}, {"type": "note_on", "time": 13, "note": 63, "velocity": 111, "channel": 0}, {"type": "note_off", "time": 58, "note": 63, "velocity": 111, "channel": 0}, {"type": "note_on", "time": 20, "note": 67, "velocity": 123, "channel": 0}, {"type": "note_off", "time": 136, "note": 67, "velocity": 123, "channel": 0}, {"type": "note_on", "time": 3, "note": 70, "velocity": 119, "channel": 0}, {"type": "note_off", "time": 131, "note": 70, "velocity": 119, "channel": 0}, {"type": "note_on", "time": 26, "note": 75, "velocity": 125, "channel": 0}, {"type": "note_off", "time": 140, "note": 75, "velocity": 125, "channel": 0}, {"type": "note_on", "time": 92, "note": 62, "velocity": 109, "channel": 0}, {"type": "note_off", "time": 51, "note": 62, "velocity": 109, "channel": 0}, {"type": "note_on", "time": 133, "note": 71, "velocity": 124, "channel": 0}, {"type": "note_off", "time": 81, "note": 71, "velocity": 124, "channel": 0}, {"type": "note_on", "time": 3, "note": 69, "velocity": 117, "channel": 0}, {"type": "note_off", "time": 91, "note": 69, "velocity": 117, "channel": 0}, {"type": "note_on", "time": 435, "note": 62, "velocity": 65, "channel": 0}, {"type": "note_off", "time": 64, "note": 62, "velocity": 65, "channel": 0}, {"type": "note_on", "time": 18, "note": 67, "velocity": 116, "channel": 0}, {"type": "note_off", "time": 71, "note": 67, "velocity": 116, "channel": 0}, {"type": "note_on", "time": 22, "note": 71, "velocity": 117, "channel": 0}, {"type": "note_off", "time": 68, "note": 71, "velocity": 117, "channel": 0}, {"type": "note_on", "time": 25, "note": 62, "velocity": 111, "channel": 0}, {"type": "note_off", "time": 85, "note": 62, "velocity": 111, "channel": 0}, {"type": "note_on", "time": 14, "note": 65, "velocity": 102, "channel": 0}, {"type": "note_off", "time": 48, "note": 65, "velocity": 102, "channel": 0}, {"type": "note_on", "time": 14, "note": 68, "velocity": 115, "channel": 0}, {"type": "note_off", "time": 108, "note": 68, "velocity": 115, "channel": 0}, {"type": "note_on", "time": 6, "note": 72, "velocity": 116, "channel": 0}, {"type": "note_off", "time": 77, "note": 72, "velocity": 116, "channel": 0}, {"type": "note_on", "time": 30, "note": 63, "velocity": 118, "channel": 0}, {"type": "note_off", "time": 97, "note": 63, "velocity": 118, "channel": 0}, {"type": "note_on", "time": 4, "note": 65, "velocity": 99, "channel": 0}, {"type": "note_off", "time": 115, "note": 65, "velocity": 99, "channel": 0}, {"type": "note_on", "time": 9, "note": 67, "velocity": 100, "channel": 0}, {"type": "note_off", "time": 57, "note": 67, "velocity": 100, "channel": 0}, {"type": "note_on", "time": 10, "note": 70, "velocity": 104, "channel": 0}, {"type": "note_off", "time": 63, "note": 70, "velocity": 104, "channel": 0}, {"type": "note_on", "time": 14, "note": 75, "velocity": 120, "channel": 0}, {"type": "note_off", "time": 141, "note": 75, "velocity": 120, "channel": 0}, {"type": "note_on", "time": 42, "note": 73, "velocity": 112, "channel": 0}, {"type": "note_off", "time": 116, "note": 73, "velocity": 112, "channel": 0}, {"type": "note_on", "time": 5, "note": 71, "velocity": 119, "channel": 0}, {"type": "note_off", "time": 71, "note": 71, "velocity": 119, "channel": 0}, {"type": "note_on", "time": 0, "note": 70, "velocity": 118, "channel": 0}, {"type": "note_off", "time": 100, "note": 70, "velocity": 118, "channel": 0}, {"type": "note_on", "time": 0, "note": 68, "velocity": 116, "channel": 0}, {"type": "note_off", "time": 72, "note": 68, "velocity": 116, "channel": 0}, {"type": "note_on", "time": 17, "note": 66, "velocity": 114, "channel": 0}, {"type": "note_off", "time": 109, "note": 66, "velocity": 114, "channel": 0}, {"type": "note_on", "time": 0, "note": 64, "velocity": 113, "channel": 0}, {"type": "note_off", "time": 79, "note": 64, "velocity": 113, "channel": 0}, {"type": "note_on", "time": 5, "note": 63, "velocity": 115, "channel": 0}, {"type": "note_off", "time": 105, "note": 63, "velocity": 115, "channel": 0}, {"type": "note_on", "time": 6, "note": 61, "velocity": 106, "channel": 0}, {"type": "note_off", "time": 50, "note": 61, "velocity": 106, "channel": 0}, {"type": "note_on", "time": 24, "note": 59, "velocity": 105, "channel": 0}, {"type": "note_off", "time": 59, "note": 59, "velocity": 105, "channel": 0}, {"type": "note_on", "time": 72, "note": 55, "velocity": 102, "channel": 0}, {"type": "note_off", "time": 63, "note": 55, "velocity": 102, "channel": 0}, {"type": "note_on", "time": 37, "note": 60, "velocity": 113, "channel": 0}, {"type": "note_off", "time": 71, "note": 60, "velocity": 113, "channel": 0}, {"type": "note_on", "time": 30, "note": 62, "velocity": 110, "channel": 0}, {"type": "note_off", "time": 95, "note": 62, "velocity": 110, "channel": 0}, {"type": "note_on", "time": 18, "note": 63, "velocity": 114, "channel": 0}, {"type": "note_off", "time": 71, "note": 63, "velocity": 114, "channel": 0}, {"type": "note_on", "time": 14, "note": 65, "velocity": 110, "channel": 0}, {"type": "note_off", "time": 67, "note": 65, "velocity": 110, "channel": 0}, {"type": "note_on", "time": 26, "note": 67, "velocity": 111, "channel": 0}, {"type": "note_off", "time": 82, "note": 67, "velocity": 111, "channel": 0}, {"type": "note_on", "time": 17, "note": 65, "velocity": 109, "channel": 0}, {"type": "note_off", "time": 63, "note": 65, "velocity": 109, "channel": 0}, {"type": "note_on", "time": 18, "note": 62, "velocity": 110, "channel": 0}, {"type": "note_off", "time": 94, "note": 62, "velocity": 110, "channel": 0}, {"type": "note_on", "time": 22, "note": 60, "velocity": 110, "channel": 0}, {"type": "note_off", "time": 85, "note": 60, "velocity": 110, "channel": 0}, {"type": "note_on", "time": 14, "note": 58, "velocity": 106, "channel": 0}, {"type": "note_off", "time": 71, "note": 58, "velocity": 106, "channel": 0}, {"type": "note_on", "time": 11, "note": 68, "velocity": 117, "channel": 0}, {"type": "note_off", "time": 93, "note": 68, "velocity": 117, "channel": 0}, {"type": "note_on", "time": 5, "note": 67, "velocity": 113, "channel": 0}, {"type": "note_off", "time": 102, "note": 67, "velocity": 113, "channel": 0}, {"type": "note_on", "time": 7, "note": 62, "velocity": 103, "channel": 0}, {"type": "note_off", "time": 63, "note": 62, "velocity": 103, "channel": 0}, {"type": "note_on", "time": 24, "note": 65, "velocity": 108, "channel": 0}, {"type": "note_off", "time": 91, "note": 65, "velocity": 108, "channel": 0}, {"type": "note_on", "time": 13, "note": 63, "velocity": 120, "channel": 0}, {"type": "note_off", "time": 86, "note": 63, "velocity": 120, "channel": 0}, {"type": "note_on", "time": 13, "note": 62, "velocity": 111, "channel": 0}, {"type": "note_off", "time": 87, "note": 62, "velocity": 111, "channel": 0}, {"type": "note_on", "time": 13, "note": 60, "velocity": 109, "channel": 0}, {"type": "note_off", "time": 70, "note": 60, "velocity": 109, "channel": 0}, {"type": "note_on", "time": 37, "note": 68, "velocity": 105, "channel": 0}, {"type": "note_off", "time": 67, "note": 68, "velocity": 105, "channel": 0}, {"type": "note_on", "time": 13, "note": 67, "velocity": 118, "channel": 0}, {"type": "note_off", "time": 93, "note": 67, "velocity": 118, "channel": 0}, {"type": "note_on", "time": 116, "note": 67, "velocity": 104, "channel": 0}, {"type": "note_off", "time": 58, "note": 67, "velocity": 104, "channel": 0}, {"type": "note_on", "time": 0, "note": 71, "velocity": 121, "channel": 0}, {"type": "note_off", "time": 174, "note": 71, "velocity": 121, "channel": 0}, {"type": "note_on", "time": 20, "note": 67, "velocity": 106, "channel": 0}, {"type": "note_off", "time": 94, "note": 67, "velocity": 106, "channel": 0}, {"type": "note_on", "time": 1, "note": 71, "velocity": 118, "channel": 0}, {"type": "note_off", "time": 381, "note": 71, "velocity": 118, "channel": 0}, {"type": "note_on", "time": 47, "note": 67, "velocity": 105, "channel": 0}, {"type": "note_off", "time": 75, "note": 67, "velocity": 105, "channel": 0}, {"type": "note_on", "time": 0, "note": 71, "velocity": 121, "channel": 0}, {"type": "note_off", "time": 91, "note": 71, "velocity": 121, "channel": 0}, {"type": "note_on", "time": 5, "note": 74, "velocity": 119, "channel": 0}, {"type": "note_off", "time": 105, "note": 74, "velocity": 119, "channel": 0}, {"type": "note_on", "time": 310, "note": 61, "velocity": 114, "channel": 0}, {"type": "note_off", "time": 74, "note": 61, "velocity": 114, "channel": 0}, {"type": "note_on", "time": 0, "note": 64, "velocity": 111, "channel": 0}, {"type": "note_off", "time": 48, "note": 64, "velocity": 111, "channel": 0}, {"type": "note_on", "time": 3, "note": 68, "velocity": 119, "channel": 0}, {"type": "note_off", "time": 69, "note": 68, "velocity": 119, "channel": 0}, {"type": "note_on", "time": 3, "note": 71, "velocity": 122, "channel": 0}, {"type": "note_off", "time": 62, "note": 71, "velocity": 122, "channel": 0}, {"type": "note_on", "time": 5, "note": 70, "velocity": 118, "channel": 0}, {"type": "note_off", "time": 79, "note": 70, "velocity": 118, "channel": 0}, {"type": "note_on", "time": 6, "note": 72, "velocity": 118, "channel": 0}, {"type": "note_off", "time": 52, "note": 72, "velocity": 118, "channel": 0}, {"type": "note_on", "time": 5, "note": 73, "velocity": 122, "channel": 0}, {"type": "note_off", "time": 457, "note": 73, "velocity": 122, "channel": 0}, {"type": "note_on", "time": 20, "note": 70, "velocity": 114, "channel": 0}, {"type": "note_off", "time": 64, "note": 70, "velocity": 114, "channel": 0}, {"type": "note_on", "time": 39, "note": 68, "velocity": 114, "channel": 0}, {"type": "note_off", "time": 59, "note": 68, "velocity": 114, "channel": 0}, {"type": "note_on", "time": 10, "note": 66, "velocity": 110, "channel": 0}, {"type": "note_off", "time": 77, "note": 66, "velocity": 110, "channel": 0}, {"type": "note_on", "time": 14, "note": 63, "velocity": 111, "channel": 0}, {"type": "note_off", "time": 98, "note": 63, "velocity": 111, "channel": 0}, {"type": "note_on", "time": 2, "note": 59, "velocity": 114, "channel": 0}, {"type": "note_off", "time": 56, "note": 59, "velocity": 114, "channel": 0}, {"type": "note_on", "time": 171, "note": 70, "velocity": 104, "channel": 0}, {"type": "note_off", "time": 133, "note": 70, "velocity": 104, "channel": 0}, {"type": "note_on", "time": 6, "note": 74, "velocity": 114, "channel": 0}, {"type": "note_off", "time": 145, "note": 74, "velocity": 114, "channel": 0}, {"type": "note_on", "time": 26, "note": 71, "velocity": 119, "channel": 0}, {"type": "note_off", "time": 62, "note": 71, "velocity": 119, "channel": 0}, {"type": "note_on", "time": 14, "note": 70, "velocity": 111, "channel": 0}, {"type": "note_off", "time": 72, "note": 70, "velocity": 111, "channel": 0}, {"type": "note_on", "time": 10, "note": 68, "velocity": 117, "channel": 0}, {"type": "note_off", "time": 72, "note": 68, "velocity": 117, "channel": 0}, {"type": "note_on", "time": 21, "note": 67, "velocity": 116, "channel": 0}, {"type": "note_off", "time": 72, "note": 67, "velocity": 116, "channel": 0}, {"type": "note_on", "time": 27, "note": 65, "velocity": 115, "channel": 0}, {"type": "note_off", "time": 86, "note": 65, "velocity": 115, "channel": 0}, {"type": "note_on", "time": 22, "note": 63, "velocity": 121, "channel": 0}, {"type": "note_off", "time": 83, "note": 63, "velocity": 121, "channel": 0}, {"type": "note_on", "time": 4, "note": 65, "velocity": 110, "channel": 0}, {"type": "note_off", "time": 86, "note": 65, "velocity": 110, "channel": 0}, {"type": "note_on", "time": 35, "note": 67, "velocity": 104, "channel": 0}, {"type": "note_off", "time": 75, "note": 67, "velocity": 104, "channel": 0}, {"type": "note_on", "time": 16, "note": 70, "velocity": 104, "channel": 0}, {"type": "note_off", "time": 59, "note": 70, "velocity": 104, "channel": 0}, {"type": "note_on", "time": 14, "note": 75, "velocity": 119, "channel": 0}, {"type": "note_off", "time": 128, "note": 75, "velocity": 119, "channel": 0}, {"type": "note_on", "time": 285, "note": 70, "velocity": 107, "channel": 0}, {"type": "note_off", "time": 65, "note": 70, "velocity": 107, "channel": 0}, {"type": "note_on", "time": 9, "note": 73, "velocity": 120, "channel": 0}, {"type": "note_off", "time": 573, "note": 73, "velocity": 120, "channel": 0}, {"type": "note_on", "time": 17, "note": 70, "velocity": 119, "channel": 0}, {"type": "note_off", "time": 98, "note": 70, "velocity": 119, "channel": 0}, {"type": "note_on", "time": 6, "note": 68, "velocity": 114, "channel": 0}, {"type": "note_off", "time": 75, "note": 68, "velocity": 114, "channel": 0}, {"type": "note_on", "time": 20, "note": 66, "velocity": 115, "channel": 0}, {"type": "note_off", "time": 68, "note": 66, "velocity": 115, "channel": 0}, {"type": "note_on", "time": 0, "note": 63, "velocity": 114, "channel": 0}, {"type": "note_off", "time": 124, "note": 63, "velocity": 114, "channel": 0}, {"type": "note_on", "time": 8, "note": 59, "velocity": 97, "channel": 0}, {"type": "note_off", "time": 62, "note": 59, "velocity": 97, "channel": 0}, {"type": "note_on", "time": 21, "note": 62, "velocity": 113, "channel": 0}, {"type": "note_off", "time": 89, "note": 62, "velocity": 113, "channel": 0}, {"type": "note_on", "time": 16, "note": 64, "velocity": 110, "channel": 0}, {"type": "note_off", "time": 56, "note": 64, "velocity": 110, "channel": 0}, {"type": "note_on", "time": 28, "note": 66, "velocity": 107, "channel": 0}, {"type": "note_off", "time": 71, "note": 66, "velocity": 107, "channel": 0}, {"type": "note_on", "time": 41, "note": 69, "velocity": 119, "channel": 0}, {"type": "note_off", "time": 95, "note": 69, "velocity": 119, "channel": 0}, {"type": "note_on", "time": 14, "note": 67, "velocity": 114, "channel": 0}, {"type": "note_off", "time": 79, "note": 67, "velocity": 114, "channel": 0}, {"type": "note_on", "time": 29, "note": 62, "velocity": 113, "channel": 0}, {"type": "note_off", "time": 89, "note": 62, "velocity": 113, "channel": 0}, {"type": "note_on", "time": 10, "note": 59, "velocity": 102, "channel": 0}, {"type": "note_off", "time": 63, "note": 59, "velocity": 102, "channel": 0}, {"type": "note_on", "time": 41, "note": 55, "velocity": 101, "channel": 0}, {"type": "note_off", "time": 50, "note": 55, "velocity": 101, "channel": 0}, {"type": "note_on", "time": 6, "note": 60, "velocity": 115, "channel": 0}, {"type": "note_off", "time": 91, "note": 60, "velocity": 115, "channel": 0}, {"type": "note_on", "time": 22, "note": 63, "velocity": 121, "channel": 0}, {"type": "note_off", "time": 79, "note": 63, "velocity": 121, "channel": 0}, {"type": "note_on", "time": 10, "note": 62, "velocity": 110, "channel": 0}, {"type": "note_off", "time": 63, "note": 62, "velocity": 110, "channel": 0}, {"type": "note_on", "time": 29, "note": 60, "velocity": 110, "channel": 0}, {"type": "note_off", "time": 85, "note": 60, "velocity": 110, "channel": 0}, {"type": "note_on", "time": 5, "note": 58, "velocity": 111, "channel": 0}, {"type": "note_off", "time": 72, "note": 58, "velocity": 111, "channel": 0}, {"type": "note_on", "time": 18, "note": 60, "velocity": 109, "channel": 0}, {"type": "note_off", "time": 77, "note": 60, "velocity": 109, "channel": 0}, {"type": "note_on", "time": 14, "note": 62, "velocity": 107, "channel": 0}, {"type": "note_off", "time": 85, "note": 62, "velocity": 107, "channel": 0}, {"type": "note_on", "time": 8, "note": 65, "velocity": 108, "channel": 0}, {"type": "note_off", "time": 94, "note": 65, "velocity": 108, "channel": 0}, {"type": "note_on", "time": 20, "note": 63, "velocity": 112, "channel": 0}, {"type": "note_off", "time": 95, "note": 63, "velocity": 112, "channel": 0}, {"type": "note_on", "time": 16, "note": 65, "velocity": 106, "channel": 0}, {"type": "note_off", "time": 59, "note": 65, "velocity": 106, "channel": 0}, {"type": "note_on", "time": 117, "note": 67, "velocity": 100, "channel": 0}, {"type": "note_off", "time": 36, "note": 67, "velocity": 100, "channel": 0}, {"type": "note_on", "time": 4, "note": 70, "velocity": 100, "channel": 0}, {"type": "note_off", "time": 36, "note": 70, "velocity": 100, "channel": 0}, {"type": "note_on", "time": 8, "note": 71, "velocity": 120, "channel": 0}, {"type": "note_off", "time": 98, "note": 71, "velocity": 120, "channel": 0}, {"type": "note_on", "time": 9, "note": 69, "velocity": 117, "channel": 0}, {"type": "note_off", "time": 94, "note": 69, "velocity": 117, "channel": 0}, {"type": "note_on", "time": 5, "note": 67, "velocity": 115, "channel": 0}, {"type": "note_off", "time": 98, "note": 67, "velocity": 115, "channel": 0}, {"type": "note_on", "time": 8, "note": 66, "velocity": 117, "channel": 0}, {"type": "note_off", "time": 91, "note": 66, "velocity": 117, "channel": 0}, {"type": "note_on", "time": 495, "note": 62, "velocity": 109, "channel": 0}, {"type": "note_off", "time": 60, "note": 62, "velocity": 109, "channel": 0}, {"type": "note_on", "time": 28, "note": 67, "velocity": 115, "channel": 0}, {"type": "note_off", "time": 66, "note": 67, "velocity": 115, "channel": 0}, {"type": "note_on", "time": 12, "note": 71, "velocity": 115, "channel": 0}, {"type": "note_off", "time": 87, "note": 71, "velocity": 115, "channel": 0}, {"type": "note_on", "time": 29, "note": 62, "velocity": 113, "channel": 0}, {"type": "note_off", "time": 81, "note": 62, "velocity": 113, "channel": 0}, {"type": "note_on", "time": 18, "note": 65, "velocity": 106, "channel": 0}, {"type": "note_off", "time": 56, "note": 65, "velocity": 106, "channel": 0}, {"type": "note_on", "time": 6, "note": 68, "velocity": 111, "channel": 0}, {"type": "note_off", "time": 128, "note": 68, "velocity": 111, "channel": 0}, {"type": "note_on", "time": 16, "note": 71, "velocity": 112, "channel": 0}, {"type": "note_off", "time": 47, "note": 71, "velocity": 112, "channel": 0}, {"type": "note_on", "time": 5, "note": 63, "velocity": 119, "channel": 0}, {"type": "note_off", "time": 120, "note": 63, "velocity": 119, "channel": 0}, {"type": "note_on", "time": 2, "note": 65, "velocity": 106, "channel": 0}, {"type": "note_off", "time": 54, "note": 65, "velocity": 106, "channel": 0}, {"type": "note_on", "time": 39, "note": 67, "velocity": 107, "channel": 0}, {"type": "note_off", "time": 72, "note": 67, "velocity": 107, "channel": 0}, {"type": "note_on", "time": 20, "note": 70, "velocity": 114, "channel": 0}, {"type": "note_off", "time": 95, "note": 70, "velocity": 114, "channel": 0}, {"type": "note_on", "time": 0, "note": 64, "velocity": 115, "channel": 0}, {"type": "note_off", "time": 110, "note": 64, "velocity": 115, "channel": 0}, {"type": "note_on", "time": 8, "note": 67, "velocity": 109, "channel": 0}, {"type": "note_off", "time": 47, "note": 67, "velocity": 109, "channel": 0}, {"type": "note_on", "time": 0, "note": 70, "velocity": 114, "channel": 0}, {"type": "note_off", "time": 105, "note": 70, "velocity": 114, "channel": 0}, {"type": "note_on", "time": 4, "note": 73, "velocity": 107, "channel": 0}, {"type": "note_off", "time": 68, "note": 73, "velocity": 107, "channel": 0}, {"type": "note_on", "time": 2, "note": 72, "velocity": 106, "channel": 0}, {"type": "note_off", "time": 39, "note": 72, "velocity": 106, "channel": 0}, {"type": "note_on", "time": 1, "note": 70, "velocity": 99, "channel": 0}, {"type": "note_off", "time": 70, "note": 70, "velocity": 99, "channel": 0}, {"type": "note_on", "time": 13, "note": 68, "velocity": 110, "channel": 0}, {"type": "note_off", "time": 127, "note": 68, "velocity": 110, "channel": 0}, {"type": "note_on", "time": 6, "note": 70, "velocity": 97, "channel": 0}, {"type": "note_off", "time": 48, "note": 70, "velocity": 97, "channel": 0}, {"type": "note_on", "time": 77, "note": 66, "velocity": 110, "channel": 0}, {"type": "note_off", "time": 50, "note": 66, "velocity": 110, "channel": 0}, {"type": "note_on", "time": 16, "note": 70, "velocity": 117, "channel": 0}, {"type": "note_off", "time": 74, "note": 70, "velocity": 117, "channel": 0}, {"type": "note_on", "time": 6, "note": 69, "velocity": 110, "channel": 0}, {"type": "note_off", "time": 71, "note": 69, "velocity": 110, "channel": 0}, {"type": "note_on", "time": 5, "note": 68, "velocity": 113, "channel": 0}, {"type": "note_off", "time": 90, "note": 68, "velocity": 113, "channel": 0}, {"type": "note_on", "time": 27, "note": 67, "velocity": 113, "channel": 0}, {"type": "note_off", "time": 85, "note": 67, "velocity": 113, "channel": 0}, {"type": "note_on", "time": 10, "note": 65, "velocity": 106, "channel": 0}, {"type": "note_off", "time": 87, "note": 65, "velocity": 106, "channel": 0}, {"type": "note_on", "time": 6, "note": 63, "velocity": 119, "channel": 0}, {"type": "note_off", "time": 77, "note": 63, "velocity": 119, "channel": 0}, {"type": "note_on", "time": 21, "note": 62, "velocity": 111, "channel": 0}, {"type": "note_off", "time": 67, "note": 62, "velocity": 111, "channel": 0}, {"type": "note_on", "time": 8, "note": 60, "velocity": 108, "channel": 0}, {"type": "note_off", "time": 93, "note": 60, "velocity": 108, "channel": 0}, {"type": "note_on", "time": 6, "note": 58, "velocity": 111, "channel": 0}, {"type": "note_off", "time": 67, "note": 58, "velocity": 111, "channel": 0}, {"type": "note_on", "time": 39, "note": 56, "velocity": 113, "channel": 0}, {"type": "note_off", "time": 95, "note": 56, "velocity": 113, "channel": 0}, {"type": "note_on", "time": 6, "note": 55, "velocity": 108, "channel": 0}, {"type": "note_off", "time": 68, "note": 55, "velocity": 108, "channel": 0}, {"type": "note_on", "time": 27, "note": 53, "velocity": 111, "channel": 0}, {"type": "note_off", "time": 79, "note": 53, "velocity": 111, "channel": 0}, {"type": "note_on", "time": 8, "note": 51, "velocity": 109, "channel": 0}, {"type": "note_off", "time": 43, "note": 51, "velocity": 109, "channel": 0}, {"type": "note_on", "time": 6, "note": 53, "velocity": 107, "channel": 0}, {"type": "note_off", "time": 44, "note": 53, "velocity": 107, "channel": 0}, {"type": "note_on", "time": 5, "note": 55, "velocity": 109, "channel": 0}, {"type": "note_off", "time": 64, "note": 55, "velocity": 109, "channel": 0}, {"type": "note_on", "time": 6, "note": 56, "velocity": 111, "channel": 0}, {"type": "note_off", "time": 56, "note": 56, "velocity": 111, "channel": 0}, {"type": "note_on", "time": 12, "note": 58, "velocity": 106, "channel": 0}, {"type": "note_off", "time": 56, "note": 58, "velocity": 106, "channel": 0}, {"type": "note_on", "time": 1, "note": 60, "velocity": 111, "channel": 0}, {"type": "note_off", "time": 52, "note": 60, "velocity": 111, "channel": 0}, {"type": "note_on", "time": 2, "note": 62, "velocity": 110, "channel": 0}, {"type": "note_off", "time": 39, "note": 62, "velocity": 110, "channel": 0}, {"type": "note_on", "time": 6, "note": 63, "velocity": 117, "channel": 0}, {"type": "note_off", "time": 47, "note": 63, "velocity": 117, "channel": 0}, {"type": "note_on", "time": 2, "note": 67, "velocity": 116, "channel": 0}, {"type": "note_off", "time": 50, "note": 67, "velocity": 116, "channel": 0}, {"type": "note_on", "time": 8, "note": 68, "velocity": 121, "channel": 0}, {"type": "note_off", "time": 46, "note": 68, "velocity": 121, "channel": 0}, {"type": "note_on", "time": 0, "note": 70, "velocity": 116, "channel": 0}, {"type": "note_off", "time": 163, "note": 70, "velocity": 116, "channel": 0}, {"type": "note_on", "time": 228, "note": 59, "velocity": 104, "channel": 0}, {"type": "note_off", "time": 60, "note": 59, "velocity": 104, "channel": 0}, {"type": "note_on", "time": 45, "note": 62, "velocity": 109, "channel": 0}, {"type": "note_off", "time": 51, "note": 62, "velocity": 109, "channel": 0}, {"type": "note_on", "time": 10, "note": 64, "velocity": 115, "channel": 0}, {"type": "note_off", "time": 41, "note": 64, "velocity": 115, "channel": 0}, {"type": "note_on", "time": 13, "note": 67, "velocity": 115, "channel": 0}, {"type": "note_off", "time": 59, "note": 67, "velocity": 115, "channel": 0}, {"type": "note_on", "time": 3, "note": 69, "velocity": 118, "channel": 0}, {"type": "note_off", "time": 62, "note": 69, "velocity": 118, "channel": 0}, {"type": "note_on", "time": 1, "note": 71, "velocity": 118, "channel": 0}, {"type": "note_off", "time": 517, "note": 71, "velocity": 118, "channel": 0}, {"type": "note_on", "time": 62, "note": 67, "velocity": 107, "channel": 0}, {"type": "note_off", "time": 45, "note": 67, "velocity": 107, "channel": 0}, {"type": "note_on", "time": 5, "note": 69, "velocity": 117, "channel": 0}, {"type": "note_off", "time": 101, "note": 69, "velocity": 117, "channel": 0}, {"type": "note_on", "time": 5, "note": 67, "velocity": 115, "channel": 0}, {"type": "note_off", "time": 100, "note": 67, "velocity": 115, "channel": 0}, {"type": "note_on", "time": 250, "note": 61, "velocity": 111, "channel": 0}, {"type": "note_off", "time": 64, "note": 61, "velocity": 111, "channel": 0}, {"type": "note_on", "time": 6, "note": 64, "velocity": 116, "channel": 0}, {"type": "note_off", "time": 42, "note": 64, "velocity": 116, "channel": 0}, {"type": "note_on", "time": 9, "note": 68, "velocity": 118, "channel": 0}, {"type": "note_off", "time": 45, "note": 68, "velocity": 118, "channel": 0}, {"type": "note_on", "time": 5, "note": 71, "velocity": 119, "channel": 0}, {"type": "note_off", "time": 29, "note": 71, "velocity": 119, "channel": 0}, {"type": "note_on", "time": 10, "note": 70, "velocity": 115, "channel": 0}, {"type": "note_off", "time": 167, "note": 70, "velocity": 115, "channel": 0}, {"type": "note_on", "time": 6, "note": 72, "velocity": 111, "channel": 0}, {"type": "note_off", "time": 33, "note": 72, "velocity": 111, "channel": 0}, {"type": "note_on", "time": 2, "note": 75, "velocity": 110, "channel": 0}, {"type": "note_off", "time": 185, "note": 75, "velocity": 110, "channel": 0}, {"type": "note_on", "time": 5, "note": 73, "velocity": 112, "channel": 0}, {"type": "note_off", "time": 339, "note": 73, "velocity": 112, "channel": 0}, {"type": "note_on", "time": 6, "note": 70, "velocity": 113, "channel": 0}, {"type": "note_off", "time": 91, "note": 70, "velocity": 113, "channel": 0}, {"type": "note_on", "time": 12, "note": 66, "velocity": 103, "channel": 0}, {"type": "note_off", "time": 67, "note": 66, "velocity": 103, "channel": 0}, {"type": "note_on", "time": 12, "note": 63, "velocity": 119, "channel": 0}, {"type": "note_off", "time": 133, "note": 63, "velocity": 119, "channel": 0}, {"type": "note_on", "time": 208, "note": 70, "velocity": 102, "channel": 0}, {"type": "note_off", "time": 92, "note": 70, "velocity": 102, "channel": 0}, {"type": "note_on", "time": 8, "note": 74, "velocity": 114, "channel": 0}, {"type": "note_off", "time": 137, "note": 74, "velocity": 114, "channel": 0}, {"type": "note_on", "time": 4, "note": 71, "velocity": 123, "channel": 0}, {"type": "note_off", "time": 61, "note": 71, "velocity": 123, "channel": 0}, {"type": "note_on", "time": 7, "note": 70, "velocity": 113, "channel": 0}, {"type": "note_off", "time": 86, "note": 70, "velocity": 113, "channel": 0}, {"type": "note_on", "time": 6, "note": 68, "velocity": 119, "channel": 0}, {"type": "note_off", "time": 77, "note": 68, "velocity": 119, "channel": 0}, {"type": "note_on", "time": 5, "note": 67, "velocity": 111, "channel": 0}, {"type": "note_off", "time": 96, "note": 67, "velocity": 111, "channel": 0}, {"type": "note_on", "time": 7, "note": 65, "velocity": 112, "channel": 0}, {"type": "note_off", "time": 42, "note": 65, "velocity": 112, "channel": 0}, {"type": "note_on", "time": 2, "note": 63, "velocity": 121, "channel": 0}, {"type": "note_off", "time": 144, "note": 63, "velocity": 121, "channel": 0}, {"type": "note_on", "time": 16, "note": 62, "velocity": 106, "channel": 0}, {"type": "note_off", "time": 59, "note": 62, "velocity": 106, "channel": 0}, {"type": "note_on", "time": 29, "note": 65, "velocity": 109, "channel": 0}, {"type": "note_off", "time": 101, "note": 65, "velocity": 109, "channel": 0}, {"type": "note_on", "time": 13, "note": 62, "velocity": 103, "channel": 0}, {"type": "note_off", "time": 36, "note": 62, "velocity": 103, "channel": 0}, {"type": "note_on", "time": 6, "note": 63, "velocity": 119, "channel": 0}, {"type": "note_off", "time": 99, "note": 63, "velocity": 119, "channel": 0}, {"type": "note_on", "time": 19, "note": 65, "velocity": 104, "channel": 0}, {"type": "note_off", "time": 74, "note": 65, "velocity": 104, "channel": 0}, {"type": "note_on", "time": 27, "note": 67, "velocity": 109, "channel": 0}, {"type": "note_off", "time": 54, "note": 67, "velocity": 109, "channel": 0}, {"type": "note_on", "time": 27, "note": 70, "velocity": 111, "channel": 0}, {"type": "note_off", "time": 64, "note": 70, "velocity": 111, "channel": 0}, {"type": "note_on", "time": 41, "note": 63, "velocity": 116, "channel": 0}, {"type": "note_off", "time": 113, "note": 63, "velocity": 116, "channel": 0}, {"type": "note_on", "time": 18, "note": 59, "velocity": 103, "channel": 0}, {"type": "note_off", "time": 58, "note": 59, "velocity": 103, "channel": 0}, {"type": "note_on", "time": 21, "note": 56, "velocity": 100, "channel": 0}, {"type": "note_off", "time": 56, "note": 56, "velocity": 100, "channel": 0}, {"type": "note_on", "time": 92, "note": 58, "velocity": 111, "channel": 0}, {"type": "note_off", "time": 66, "note": 58, "velocity": 111, "channel": 0}, {"type": "note_on", "time": 86, "note": 54, "velocity": 100, "channel": 0}, {"type": "note_off", "time": 167, "note": 54, "velocity": 100, "channel": 0}, {"type": "note_on", "time": 87, "note": 58, "velocity": 111, "channel": 0}, {"type": "note_off", "time": 31, "note": 58, "velocity": 111, "channel": 0}, {"type": "note_on", "time": 10, "note": 59, "velocity": 95, "channel": 0}, {"type": "note_off", "time": 67, "note": 59, "velocity": 95, "channel": 0}, {"type": "note_on", "time": 28, "note": 60, "velocity": 96, "channel": 0}, {"type": "note_off", "time": 45, "note": 60, "velocity": 96, "channel": 0}, {"type": "note_on", "time": 41, "note": 61, "velocity": 100, "channel": 0}, {"type": "note_off", "time": 51, "note": 61, "velocity": 100, "channel": 0}, {"type": "note_on", "time": 5, "note": 63, "velocity": 106, "channel": 0}, {"type": "note_off", "time": 67, "note": 63, "velocity": 106, "channel": 0}, {"type": "note_on", "time": 4, "note": 66, "velocity": 113, "channel": 0}, {"type": "note_off", "time": 62, "note": 66, "velocity": 113, "channel": 0}, {"type": "note_on", "time": 4, "note": 62, "velocity": 111, "channel": 0}, {"type": "note_off", "time": 89, "note": 62, "velocity": 111, "channel": 0}, {"type": "note_on", "time": 16, "note": 64, "velocity": 118, "channel": 0}, {"type": "note_off", "time": 77, "note": 64, "velocity": 118, "channel": 0}, {"type": "note_on", "time": 13, "note": 66, "velocity": 108, "channel": 0}, {"type": "note_off", "time": 63, "note": 66, "velocity": 108, "channel": 0}, {"type": "note_on", "time": 32, "note": 69, "velocity": 117, "channel": 0}, {"type": "note_off", "time": 81, "note": 69, "velocity": 117, "channel": 0}, {"type": "note_on", "time": 4, "note": 67, "velocity": 112, "channel": 0}, {"type": "note_off", "time": 54, "note": 67, "velocity": 112, "channel": 0}, {"type": "note_on", "time": 32, "note": 62, "velocity": 113, "channel": 0}, {"type": "note_off", "time": 90, "note": 62, "velocity": 113, "channel": 0}, {"type": "note_on", "time": 9, "note": 59, "velocity": 101, "channel": 0}, {"type": "note_off", "time": 52, "note": 59, "velocity": 101, "channel": 0}, {"type": "note_on", "time": 66, "note": 55, "velocity": 104, "channel": 0}, {"type": "note_off", "time": 56, "note": 55, "velocity": 104, "channel": 0}, {"type": "note_on", "time": 27, "note": 60, "velocity": 110, "channel": 0}, {"type": "note_off", "time": 55, "note": 60, "velocity": 110, "channel": 0}, {"type": "note_on", "time": 28, "note": 63, "velocity": 115, "channel": 0}, {"type": "note_off", "time": 86, "note": 63, "velocity": 115, "channel": 0}, {"type": "note_on", "time": 8, "note": 62, "velocity": 107, "channel": 0}, {"type": "note_off", "time": 68, "note": 62, "velocity": 107, "channel": 0}, {"type": "note_on", "time": 22, "note": 60, "velocity": 108, "channel": 0}, {"type": "note_off", "time": 85, "note": 60, "velocity": 108, "channel": 0}, {"type": "note_on", "time": 1, "note": 58, "velocity": 101, "channel": 0}, {"type": "note_off", "time": 63, "note": 58, "velocity": 101, "channel": 0}, {"type": "note_on", "time": 16, "note": 67, "velocity": 111, "channel": 0}, {"type": "note_off", "time": 183, "note": 67, "velocity": 111, "channel": 0}, {"type": "note_on", "time": 431, "note": 66, "velocity": 113, "channel": 0}, {"type": "note_off", "time": 45, "note": 66, "velocity": 113, "channel": 0}, {"type": "note_on", "time": 8, "note": 67, "velocity": 109, "channel": 0}, {"type": "note_off", "time": 345, "note": 67, "velocity": 109, "channel": 0}, {"type": "note_on", "time": 2, "note": 65, "velocity": 101, "channel": 0}, {"type": "note_off", "time": 51, "note": 65, "velocity": 101, "channel": 0}, {"type": "note_on", "time": 0, "note": 66, "velocity": 110, "channel": 0}, {"type": "note_off", "time": 81, "note": 66, "velocity": 110, "channel": 0}, {"type": "note_on", "time": 14, "note": 67, "velocity": 111, "channel": 0}, {"type": "note_off", "time": 108, "note": 67, "velocity": 111, "channel": 0}, {"type": "note_on", "time": 28, "note": 69, "velocity": 103, "channel": 0}, {"type": "note_off", "time": 54, "note": 69, "velocity": 103, "channel": 0}, {"type": "note_on", "time": 20, "note": 71, "velocity": 116, "channel": 0}, {"type": "note_off", "time": 85, "note": 71, "velocity": 116, "channel": 0}, {"type": "note_on", "time": 24, "note": 67, "velocity": 107, "channel": 0}, {"type": "note_off", "time": 152, "note": 67, "velocity": 107, "channel": 0}, {"type": "note_on", "time": 108, "note": 71, "velocity": 116, "channel": 0}, {"type": "note_off", "time": 31, "note": 71, "velocity": 116, "channel": 0}, {"type": "note_on", "time": 0, "note": 73, "velocity": 104, "channel": 0}, {"type": "note_off", "time": 59, "note": 73, "velocity": 104, "channel": 0}, {"type": "note_on", "time": 27, "note": 68, "velocity": 107, "channel": 0}, {"type": "note_off", "time": 113, "note": 68, "velocity": 107, "channel": 0}, {"type": "note_on", "time": 4, "note": 72, "velocity": 110, "channel": 0}, {"type": "note_off", "time": 50, "note": 72, "velocity": 110, "channel": 0}, {"type": "note_on", "time": 21, "note": 70, "velocity": 110, "channel": 0}, {"type": "note_off", "time": 79, "note": 70, "velocity": 110, "channel": 0}, {"type": "note_on", "time": 29, "note": 68, "velocity": 112, "channel": 0}, {"type": "note_off", "time": 81, "note": 68, "velocity": 112, "channel": 0}, {"type": "note_on", "time": 12, "note": 67, "velocity": 109, "channel": 0}, {"type": "note_off", "time": 106, "note": 67, "velocity": 109, "channel": 0}, {"type": "note_on", "time": 36, "note": 63, "velocity": 105, "channel": 0}, {"type": "note_off", "time": 40, "note": 63, "velocity": 105, "channel": 0}, {"type": "note_on", "time": 13, "note": 65, "velocity": 99, "channel": 0}, {"type": "note_off", "time": 58, "note": 65, "velocity": 99, "channel": 0}, {"type": "note_on", "time": 25, "note": 67, "velocity": 112, "channel": 0}, {"type": "note_off", "time": 79, "note": 67, "velocity": 112, "channel": 0}, {"type": "note_on", "time": 4, "note": 64, "velocity": 110, "channel": 0}, {"type": "note_off", "time": 121, "note": 64, "velocity": 110, "channel": 0}, {"type": "note_on", "time": 1, "note": 66, "velocity": 102, "channel": 0}, {"type": "note_off", "time": 87, "note": 66, "velocity": 102, "channel": 0}, {"type": "note_on", "time": 10, "note": 68, "velocity": 99, "channel": 0}, {"type": "note_off", "time": 60, "note": 68, "velocity": 99, "channel": 0}, {"type": "note_on", "time": 31, "note": 70, "velocity": 102, "channel": 0}, {"type": "note_off", "time": 35, "note": 70, "velocity": 102, "channel": 0}, {"type": "note_on", "time": 29, "note": 73, "velocity": 115, "channel": 0}, {"type": "note_off", "time": 217, "note": 73, "velocity": 115, "channel": 0}, {"type": "note_on", "time": 1, "note": 70, "velocity": 112, "channel": 0}, {"type": "note_off", "time": 85, "note": 70, "velocity": 112, "channel": 0}, {"type": "note_on", "time": 17, "note": 68, "velocity": 108, "channel": 0}, {"type": "note_off", "time": 51, "note": 68, "velocity": 108, "channel": 0}, {"type": "note_on", "time": 28, "note": 66, "velocity": 106, "channel": 0}, {"type": "note_off", "time": 93, "note": 66, "velocity": 106, "channel": 0}, {"type": "note_on", "time": 36, "note": 63, "velocity": 111, "channel": 0}, {"type": "note_off", "time": 55, "note": 63, "velocity": 111, "channel": 0}, {"type": "note_on", "time": 6, "note": 59, "velocity": 105, "channel": 0}, {"type": "note_off", "time": 60, "note": 59, "velocity": 105, "channel": 0}, {"type": "note_on", "time": 25, "note": 58, "velocity": 105, "channel": 0}, {"type": "note_off", "time": 81, "note": 58, "velocity": 105, "channel": 0}, {"type": "note_on", "time": 31, "note": 60, "velocity": 111, "channel": 0}, {"type": "note_off", "time": 91, "note": 60, "velocity": 111, "channel": 0}, {"type": "note_on", "time": 1, "note": 62, "velocity": 108, "channel": 0}, {"type": "note_off", "time": 87, "note": 62, "velocity": 108, "channel": 0}, {"type": "note_on", "time": 22, "note": 63, "velocity": 111, "channel": 0}, {"type": "note_off", "time": 75, "note": 63, "velocity": 111, "channel": 0}, {"type": "note_on", "time": 28, "note": 65, "velocity": 101, "channel": 0}, {"type": "note_off", "time": 52, "note": 65, "velocity": 101, "channel": 0}, {"type": "note_on", "time": 12, "note": 67, "velocity": 114, "channel": 0}, {"type": "note_off", "time": 109, "note": 67, "velocity": 114, "channel": 0}, {"type": "note_on", "time": 2, "note": 65, "velocity": 109, "channel": 0}, {"type": "note_off", "time": 64, "note": 65, "velocity": 109, "channel": 0}, {"type": "note_on", "time": 1, "note": 62, "velocity": 111, "channel": 0}, {"type": "note_off", "time": 87, "note": 62, "velocity": 111, "channel": 0}, {"type": "note_on", "time": 43, "note": 60, "velocity": 110, "channel": 0}, {"type": "note_off", "time": 83, "note": 60, "velocity": 110, "channel": 0}, {"type": "note_on", "time": 12, "note": 58, "velocity": 109, "channel": 0}, {"type": "note_off", "time": 58, "note": 58, "velocity": 109, "channel": 0}, {"type": "note_on", "time": 56, "note": 68, "velocity": 118, "channel": 0}, {"type": "note_off", "time": 79, "note": 68, "velocity": 118, "channel": 0}, {"type": "note_on", "time": 0, "note": 67, "velocity": 117, "channel": 0}, {"type": "note_off", "time": 100, "note": 67, "velocity": 117, "channel": 0}, {"type": "note_on", "time": 24, "note": 62, "velocity": 102, "channel": 0}, {"type": "note_off", "time": 72, "note": 62, "velocity": 102, "channel": 0}, {"type": "note_on", "time": 8, "note": 65, "velocity": 109, "channel": 0}, {"type": "note_off", "time": 74, "note": 65, "velocity": 109, "channel": 0}, {"type": "note_on", "time": 14, "note": 63, "velocity": 116, "channel": 0}, {"type": "note_off", "time": 87, "note": 63, "velocity": 116, "channel": 0}, {"type": "note_on", "time": 6, "note": 62, "velocity": 106, "channel": 0}, {"type": "note_off", "time": 85, "note": 62, "velocity": 106, "channel": 0}, {"type": "note_on", "time": 21, "note": 65, "velocity": 108, "channel": 0}, {"type": "note_off", "time": 50, "note": 65, "velocity": 108, "channel": 0}, {"type": "note_on", "time": 20, "note": 64, "velocity": 116, "channel": 0}, {"type": "note_off", "time": 91, "note": 64, "velocity": 116, "channel": 0}, {"type": "note_on", "time": 28, "note": 60, "velocity": 112, "channel": 0}, {"type": "note_off", "time": 70, "note": 60, "velocity": 112, "channel": 0}, {"type": "note_on", "time": 17, "note": 56, "velocity": 110, "channel": 0}, {"type": "note_off", "time": 77, "note": 56, "velocity": 110, "channel": 0}, {"type": "note_on", "time": 124, "note": 62, "velocity": 101, "channel": 0}, {"type": "note_off", "time": 291, "note": 62, "velocity": 101, "channel": 0}, {"type": "note_on", "time": 4, "note": 60, "velocity": 106, "channel": 0}, {"type": "note_off", "time": 56, "note": 60, "velocity": 106, "channel": 0}, {"type": "note_on", "time": 18, "note": 59, "velocity": 111, "channel": 0}, {"type": "note_off", "time": 68, "note": 59, "velocity": 111, "channel": 0}, {"type": "note_on", "time": 36, "note": 62, "velocity": 111, "channel": 0}, {"type": "note_off", "time": 70, "note": 62, "velocity": 111, "channel": 0}, {"type": "note_on", "time": 4, "note": 64, "velocity": 113, "channel": 0}, {"type": "note_off", "time": 87, "note": 64, "velocity": 113, "channel": 0}, {"type": "note_on", "time": 18, "note": 66, "velocity": 107, "channel": 0}, {"type": "note_off", "time": 120, "note": 66, "velocity": 107, "channel": 0}, {"type": "note_on", "time": 491, "note": 61, "velocity": 116, "channel": 0}, {"type": "note_off", "time": 52, "note": 61, "velocity": 116, "channel": 0}, {"type": "note_on", "time": 29, "note": 68, "velocity": 124, "channel": 0}, {"type": "note_off", "time": 68, "note": 68, "velocity": 124, "channel": 0}, {"type": "note_on", "time": 2, "note": 71, "velocity": 125, "channel": 0}, {"type": "note_off", "time": 66, "note": 71, "velocity": 125, "channel": 0}, {"type": "note_on", "time": 10, "note": 70, "velocity": 120, "channel": 0}, {"type": "note_off", "time": 216, "note": 70, "velocity": 120, "channel": 0}, {"type": "note_on", "time": 20, "note": 66, "velocity": 109, "channel": 0}, {"type": "note_off", "time": 93, "note": 66, "velocity": 109, "channel": 0}, {"type": "note_on", "time": 74, "note": 66, "velocity": 106, "channel": 0}, {"type": "note_off", "time": 312, "note": 66, "velocity": 106, "channel": 0}, {"type": "note_on", "time": 22, "note": 63, "velocity": 117, "channel": 0}, {"type": "note_off", "time": 106, "note": 63, "velocity": 117, "channel": 0}, {"type": "note_on", "time": 8, "note": 61, "velocity": 100, "channel": 0}, {"type": "note_off", "time": 124, "note": 61, "velocity": 100, "channel": 0}, {"type": "note_on", "time": 48, "note": 59, "velocity": 102, "channel": 0}, {"type": "note_off", "time": 93, "note": 59, "velocity": 102, "channel": 0}, {"type": "note_on", "time": 101, "note": 60, "velocity": 110, "channel": 0}, {"type": "note_off", "time": 62, "note": 60, "velocity": 110, "channel": 0}, {"type": "note_on", "time": 22, "note": 62, "velocity": 112, "channel": 0}, {"type": "note_off", "time": 67, "note": 62, "velocity": 112, "channel": 0}, {"type": "note_on", "time": 14, "note": 63, "velocity": 117, "channel": 0}, {"type": "note_off", "time": 79, "note": 63, "velocity": 117, "channel": 0}, {"type": "note_on", "time": 43, "note": 60, "velocity": 108, "channel": 0}, {"type": "note_off", "time": 62, "note": 60, "velocity": 108, "channel": 0}, {"type": "note_on", "time": 18, "note": 67, "velocity": 114, "channel": 0}, {"type": "note_off", "time": 97, "note": 67, "velocity": 114, "channel": 0}, {"type": "note_on", "time": 1, "note": 65, "velocity": 111, "channel": 0}, {"type": "note_off", "time": 52, "note": 65, "velocity": 111, "channel": 0}, {"type": "note_on", "time": 2, "note": 62, "velocity": 113, "channel": 0}, {"type": "note_off", "time": 93, "note": 62, "velocity": 113, "channel": 0}, {"type": "note_on", "time": 35, "note": 60, "velocity": 109, "channel": 0}, {"type": "note_off", "time": 50, "note": 60, "velocity": 109, "channel": 0}, {"type": "note_on", "time": 9, "note": 58, "velocity": 104, "channel": 0}, {"type": "note_off", "time": 117, "note": 58, "velocity": 104, "channel": 0}, {"type": "note_on", "time": 3, "note": 63, "velocity": 114, "channel": 0}, {"type": "note_off", "time": 93, "note": 63, "velocity": 114, "channel": 0}, {"type": "note_on", "time": 6, "note": 65, "velocity": 104, "channel": 0}, {"type": "note_off", "time": 98, "note": 65, "velocity": 104, "channel": 0}, {"type": "note_on", "time": 18, "note": 67, "velocity": 115, "channel": 0}, {"type": "note_off", "time": 93, "note": 67, "velocity": 115, "channel": 0}, {"type": "note_on", "time": 67, "note": 67, "velocity": 113, "channel": 0}, {"type": "note_off", "time": 74, "note": 67, "velocity": 113, "channel": 0}, {"type": "note_on", "time": 8, "note": 70, "velocity": 120, "channel": 0}, {"type": "note_off", "time": 193, "note": 70, "velocity": 120, "channel": 0}, {"type": "note_on", "time": 489, "note": 68, "velocity": 111, "channel": 0}, {"type": "note_off", "time": 64, "note": 68, "velocity": 111, "channel": 0}, {"type": "note_on", "time": 5, "note": 70, "velocity": 121, "channel": 0}, {"type": "note_off", "time": 498, "note": 70, "velocity": 121, "channel": 0}, {"type": "note_on", "time": 17, "note": 66, "velocity": 101, "channel": 0}, {"type": "note_off", "time": 56, "note": 66, "velocity": 101, "channel": 0}, {"type": "note_on", "time": 0, "note": 71, "velocity": 104, "channel": 0}, {"type": "note_off", "time": 43, "note": 71, "velocity": 104, "channel": 0}, {"type": "note_on", "time": 8, "note": 74, "velocity": 115, "channel": 0}, {"type": "note_off", "time": 64, "note": 74, "velocity": 115, "channel": 0}, {"type": "note_on", "time": 12, "note": 72, "velocity": 118, "channel": 0}, {"type": "note_off", "time": 137, "note": 72, "velocity": 118, "channel": 0}, {"type": "note_on", "time": 60, "note": 69, "velocity": 118, "channel": 0}, {"type": "note_off", "time": 89, "note": 69, "velocity": 118, "channel": 0}, {"type": "note_on", "time": 143, "note": 72, "velocity": 119, "channel": 0}, {"type": "note_off", "time": 55, "note": 72, "velocity": 119, "channel": 0}, {"type": "note_on", "time": 9, "note": 71, "velocity": 120, "channel": 0}, {"type": "note_off", "time": 87, "note": 71, "velocity": 120, "channel": 0}, {"type": "note_on", "time": 125, "note": 67, "velocity": 111, "channel": 0}, {"type": "note_off", "time": 67, "note": 67, "velocity": 111, "channel": 0}, {"type": "note_on", "time": 8, "note": 71, "velocity": 115, "channel": 0}, {"type": "note_off", "time": 70, "note": 71, "velocity": 115, "channel": 0}, {"type": "note_on", "time": 1, "note": 70, "velocity": 114, "channel": 0}, {"type": "note_off", "time": 117, "note": 70, "velocity": 114, "channel": 0}, {"type": "note_on", "time": 1, "note": 69, "velocity": 115, "channel": 0}, {"type": "note_off", "time": 101, "note": 69, "velocity": 115, "channel": 0}, {"type": "note_on", "time": 8, "note": 68, "velocity": 112, "channel": 0}, {"type": "note_off", "time": 72, "note": 68, "velocity": 112, "channel": 0}, {"type": "note_on", "time": 29, "note": 72, "velocity": 113, "channel": 0}, {"type": "note_off", "time": 47, "note": 72, "velocity": 113, "channel": 0}, {"type": "note_on", "time": 12, "note": 70, "velocity": 109, "channel": 0}, {"type": "note_off", "time": 106, "note": 70, "velocity": 109, "channel": 0}, {"type": "note_on", "time": 8, "note": 67, "velocity": 115, "channel": 0}, {"type": "note_off", "time": 89, "note": 67, "velocity": 115, "channel": 0}, {"type": "note_on", "time": 6, "note": 65, "velocity": 105, "channel": 0}, {"type": "note_off", "time": 86, "note": 65, "velocity": 105, "channel": 0}, {"type": "note_on", "time": 28, "note": 63, "velocity": 104, "channel": 0}, {"type": "note_off", "time": 66, "note": 63, "velocity": 104, "channel": 0}, {"type": "note_on", "time": 2, "note": 67, "velocity": 107, "channel": 0}, {"type": "note_off", "time": 94, "note": 67, "velocity": 107, "channel": 0}, {"type": "note_on", "time": 9, "note": 70, "velocity": 106, "channel": 0}, {"type": "note_off", "time": 51, "note": 70, "velocity": 106, "channel": 0}, {"type": "note_on", "time": 12, "note": 64, "velocity": 110, "channel": 0}, {"type": "note_off", "time": 102, "note": 64, "velocity": 110, "channel": 0}, {"type": "note_on", "time": 285, "note": 71, "velocity": 118, "channel": 0}, {"type": "note_off", "time": 117, "note": 71, "velocity": 118, "channel": 0}, {"type": "note_on", "time": 0, "note": 69, "velocity": 114, "channel": 0}, {"type": "note_off", "time": 85, "note": 69, "velocity": 114, "channel": 0}, {"type": "note_on", "time": 5, "note": 66, "velocity": 107, "channel": 0}, {"type": "note_off", "time": 64, "note": 66, "velocity": 107, "channel": 0}, {"type": "note_on", "time": 41, "note": 64, "velocity": 120, "channel": 0}, {"type": "note_off", "time": 91, "note": 64, "velocity": 120, "channel": 0}, {"type": "note_on", "time": 2, "note": 62, "velocity": 116, "channel": 0}, {"type": "note_off", "time": 67, "note": 62, "velocity": 116, "channel": 0}, {"type": "note_on", "time": 22, "note": 64, "velocity": 115, "channel": 0}, {"type": "note_off", "time": 106, "note": 64, "velocity": 115, "channel": 0}, {"type": "note_on", "time": 1, "note": 66, "velocity": 104, "channel": 0}, {"type": "note_off", "time": 75, "note": 66, "velocity": 104, "channel": 0}, {"type": "note_on", "time": 5, "note": 69, "velocity": 111, "channel": 0}, {"type": "note_off", "time": 89, "note": 69, "velocity": 111, "channel": 0}, {"type": "note_on", "time": 33, "note": 62, "velocity": 111, "channel": 0}, {"type": "note_off", "time": 70, "note": 62, "velocity": 111, "channel": 0}, {"type": "note_on", "time": 24, "note": 65, "velocity": 104, "channel": 0}, {"type": "note_off", "time": 67, "note": 65, "velocity": 104, "channel": 0}, {"type": "note_on", "time": 16, "note": 68, "velocity": 105, "channel": 0}, {"type": "note_off", "time": 100, "note": 68, "velocity": 105, "channel": 0}, {"type": "note_on", "time": 0, "note": 72, "velocity": 112, "channel": 0}, {"type": "note_off", "time": 74, "note": 72, "velocity": 112, "channel": 0}, {"type": "note_on", "time": 8, "note": 63, "velocity": 112, "channel": 0}, {"type": "note_off", "time": 94, "note": 63, "velocity": 112, "channel": 0}, {"type": "note_on", "time": 8, "note": 65, "velocity": 103, "channel": 0}, {"type": "note_off", "time": 86, "note": 65, "velocity": 103, "channel": 0}, {"type": "note_on", "time": 31, "note": 67, "velocity": 97, "channel": 0}, {"type": "note_off", "time": 56, "note": 67, "velocity": 97, "channel": 0}, {"type": "note_on", "time": 0, "note": 70, "velocity": 112, "channel": 0}, {"type": "note_off", "time": 85, "note": 70, "velocity": 112, "channel": 0}, {"type": "note_on", "time": 1, "note": 64, "velocity": 106, "channel": 0}, {"type": "note_off", "time": 98, "note": 64, "velocity": 106, "channel": 0}, {"type": "note_on", "time": 2, "note": 66, "velocity": 103, "channel": 0}, {"type": "note_off", "time": 94, "note": 66, "velocity": 103, "channel": 0}, {"type": "note_on", "time": 4, "note": 68, "velocity": 91, "channel": 0}, {"type": "note_off", "time": 78, "note": 68, "velocity": 91, "channel": 0}, {"type": "note_on", "time": 21, "note": 70, "velocity": 100, "channel": 0}, {"type": "note_off", "time": 64, "note": 70, "velocity": 100, "channel": 0}, {"type": "note_on", "time": 4, "note": 73, "velocity": 113, "channel": 0}, {"type": "note_off", "time": 154, "note": 73, "velocity": 113, "channel": 0}, {"type": "note_on", "time": 63, "note": 70, "velocity": 113, "channel": 0}, {"type": "note_off", "time": 113, "note": 70, "velocity": 113, "channel": 0}, {"type": "note_on", "time": 0, "note": 68, "velocity": 111, "channel": 0}, {"type": "note_off", "time": 79, "note": 68, "velocity": 111, "channel": 0}, {"type": "note_on", "time": 5, "note": 66, "velocity": 103, "channel": 0}, {"type": "note_off", "time": 101, "note": 66, "velocity": 103, "channel": 0}, {"type": "note_on", "time": 24, "note": 63, "velocity": 115, "channel": 0}, {"type": "note_off", "time": 55, "note": 63, "velocity": 115, "channel": 0}, {"type": "note_on", "time": 12, "note": 59, "velocity": 99, "channel": 0}, {"type": "note_off", "time": 71, "note": 59, "velocity": 99, "channel": 0}, {"type": "note_on", "time": 145, "note": 67, "velocity": 111, "channel": 0}, {"type": "note_off", "time": 75, "note": 67, "velocity": 111, "channel": 0}, {"type": "note_on", "time": 4, "note": 68, "velocity": 110, "channel": 0}, {"type": "note_off", "time": 63, "note": 68, "velocity": 110, "channel": 0}, {"type": "note_on", "time": 4, "note": 67, "velocity": 110, "channel": 0}, {"type": "note_off", "time": 67, "note": 67, "velocity": 110, "channel": 0}, {"type": "note_on", "time": 18, "note": 65, "velocity": 101, "channel": 0}, {"type": "note_off", "time": 67, "note": 65, "velocity": 101, "channel": 0}, {"type": "note_on", "time": 8, "note": 63, "velocity": 116, "channel": 0}, {"type": "note_off", "time": 89, "note": 63, "velocity": 116, "channel": 0}, {"type": "note_on", "time": 13, "note": 62, "velocity": 114, "channel": 0}, {"type": "note_off", "time": 77, "note": 62, "velocity": 114, "channel": 0}, {"type": "note_on", "time": 13, "note": 60, "velocity": 106, "channel": 0}, {"type": "note_off", "time": 70, "note": 60, "velocity": 106, "channel": 0}, {"type": "note_on", "time": 28, "note": 58, "velocity": 107, "channel": 0}, {"type": "note_off", "time": 63, "note": 58, "velocity": 107, "channel": 0}, {"type": "note_on", "time": 10, "note": 56, "velocity": 109, "channel": 0}, {"type": "note_off", "time": 94, "note": 56, "velocity": 109, "channel": 0}, {"type": "note_on", "time": 20, "note": 55, "velocity": 106, "channel": 0}, {"type": "note_off", "time": 82, "note": 55, "velocity": 106, "channel": 0}, {"type": "note_on", "time": 5, "note": 58, "velocity": 109, "channel": 0}, {"type": "note_off", "time": 87, "note": 58, "velocity": 109, "channel": 0}, {"type": "note_on", "time": 14, "note": 60, "velocity": 102, "channel": 0}, {"type": "note_off", "time": 85, "note": 60, "velocity": 102, "channel": 0}, {"type": "note_on", "time": 16, "note": 62, "velocity": 101, "channel": 0}, {"type": "note_off", "time": 54, "note": 62, "velocity": 101, "channel": 0}, {"type": "note_on", "time": 5, "note": 65, "velocity": 109, "channel": 0}, {"type": "note_off", "time": 110, "note": 65, "velocity": 109, "channel": 0}, {"type": "note_on", "time": 9, "note": 63, "velocity": 109, "channel": 0}, {"type": "note_off", "time": 81, "note": 63, "velocity": 109, "channel": 0}, {"type": "note_on", "time": 6, "note": 67, "velocity": 117, "channel": 0}, {"type": "note_off", "time": 105, "note": 67, "velocity": 117, "channel": 0}, {"type": "note_on", "time": 29, "note": 67, "velocity": 115, "channel": 0}, {"type": "note_off", "time": 59, "note": 67, "velocity": 115, "channel": 0}, {"type": "note_on", "time": 397, "note": 67, "velocity": 121, "channel": 0}, {"type": "note_off", "time": 140, "note": 67, "velocity": 121, "channel": 0}, {"type": "note_on", "time": 79, "note": 66, "velocity": 110, "channel": 0}, {"type": "note_off", "time": 70, "note": 66, "velocity": 110, "channel": 0}, {"type": "note_on", "time": 2, "note": 69, "velocity": 114, "channel": 0}, {"type": "note_off", "time": 83, "note": 69, "velocity": 114, "channel": 0}, {"type": "note_on", "time": 7, "note": 67, "velocity": 115, "channel": 0}, {"type": "note_off", "time": 104, "note": 67, "velocity": 115, "channel": 0}, {"type": "note_on", "time": 17, "note": 62, "velocity": 112, "channel": 0}, {"type": "note_off", "time": 75, "note": 62, "velocity": 112, "channel": 0}, {"type": "note_on", "time": 31, "note": 59, "velocity": 100, "channel": 0}, {"type": "note_off", "time": 74, "note": 59, "velocity": 100, "channel": 0}, {"type": "note_on", "time": 27, "note": 55, "velocity": 97, "channel": 0}, {"type": "note_off", "time": 71, "note": 55, "velocity": 97, "channel": 0}, {"type": "note_on", "time": 23, "note": 62, "velocity": 114, "channel": 0}, {"type": "note_off", "time": 112, "note": 62, "velocity": 114, "channel": 0}, {"type": "note_on", "time": 250, "note": 63, "velocity": 117, "channel": 0}, {"type": "note_off", "time": 164, "note": 63, "velocity": 117, "channel": 0}, {"type": "note_on", "time": 36, "note": 59, "velocity": 113, "channel": 0}, {"type": "note_off", "time": 77, "note": 59, "velocity": 113, "channel": 0}, {"type": "note_on", "time": 70, "note": 54, "velocity": 96, "channel": 0}, {"type": "note_off", "time": 74, "note": 54, "velocity": 96, "channel": 0}, {"type": "note_on", "time": 11, "note": 58, "velocity": 104, "channel": 0}, {"type": "note_off", "time": 308, "note": 58, "velocity": 104, "channel": 0}, {"type": "note_on", "time": 13, "note": 54, "velocity": 98, "channel": 0}, {"type": "note_off", "time": 62, "note": 54, "velocity": 98, "channel": 0}, {"type": "note_on", "time": 0, "note": 59, "velocity": 108, "channel": 0}, {"type": "note_off", "time": 100, "note": 59, "velocity": 108, "channel": 0}, {"type": "note_on", "time": 10, "note": 61, "velocity": 108, "channel": 0}, {"type": "note_off", "time": 112, "note": 61, "velocity": 108, "channel": 0}, {"type": "note_on", "time": 11, "note": 63, "velocity": 103, "channel": 0}, {"type": "note_off", "time": 81, "note": 63, "velocity": 103, "channel": 0}, {"type": "note_on", "time": 1, "note": 66, "velocity": 100, "channel": 0}, {"type": "note_off", "time": 50, "note": 66, "velocity": 100, "channel": 0}, {"type": "note_on", "time": 8, "note": 69, "velocity": 114, "channel": 0}, {"type": "note_off", "time": 117, "note": 69, "velocity": 114, "channel": 0}, {"type": "note_on", "time": 6, "note": 69, "velocity": 112, "channel": 0}, {"type": "note_off", "time": 82, "note": 69, "velocity": 112, "channel": 0}, {"type": "note_on", "time": 13, "note": 67, "velocity": 105, "channel": 0}, {"type": "note_off", "time": 79, "note": 67, "velocity": 105, "channel": 0}, {"type": "note_on", "time": 14, "note": 67, "velocity": 114, "channel": 0}, {"type": "note_off", "time": 82, "note": 67, "velocity": 114, "channel": 0}, {"type": "note_on", "time": 5, "note": 65, "velocity": 109, "channel": 0}, {"type": "note_off", "time": 59, "note": 65, "velocity": 109, "channel": 0}, {"type": "note_on", "time": 12, "note": 67, "velocity": 113, "channel": 0}, {"type": "note_off", "time": 89, "note": 67, "velocity": 113, "channel": 0}, {"type": "note_on", "time": 2, "note": 68, "velocity": 116, "channel": 0}, {"type": "note_off", "time": 108, "note": 68, "velocity": 116, "channel": 0}, {"type": "note_on", "time": 33, "note": 65, "velocity": 101, "channel": 0}, {"type": "note_off", "time": 56, "note": 65, "velocity": 101, "channel": 0}, {"type": "note_on", "time": 8, "note": 69, "velocity": 114, "channel": 0}, {"type": "note_off", "time": 110, "note": 69, "velocity": 114, "channel": 0}, {"type": "note_on", "time": 8, "note": 66, "velocity": 110, "channel": 0}, {"type": "note_off", "time": 63, "note": 66, "velocity": 110, "channel": 0}, {"type": "note_on", "time": 27, "note": 62, "velocity": 115, "channel": 0}, {"type": "note_off", "time": 82, "note": 62, "velocity": 115, "channel": 0}, {"type": "note_on", "time": 41, "note": 58, "velocity": 96, "channel": 0}, {"type": "note_off", "time": 52, "note": 58, "velocity": 96, "channel": 0}, {"type": "note_on", "time": 10, "note": 67, "velocity": 115, "channel": 0}, {"type": "note_off", "time": 94, "note": 67, "velocity": 115, "channel": 0}, {"type": "note_on", "time": 24, "note": 63, "velocity": 118, "channel": 0}, {"type": "note_off", "time": 87, "note": 63, "velocity": 118, "channel": 0}, {"type": "note_on", "time": 8, "note": 62, "velocity": 112, "channel": 0}, {"type": "note_off", "time": 62, "note": 62, "velocity": 112, "channel": 0}, {"type": "note_on", "time": 22, "note": 65, "velocity": 109, "channel": 0}, {"type": "note_off", "time": 74, "note": 65, "velocity": 109, "channel": 0}, {"type": "note_on", "time": 0, "note": 63, "velocity": 116, "channel": 0}, {"type": "note_off", "time": 112, "note": 63, "velocity": 116, "channel": 0}, {"type": "note_on", "time": 571, "note": 65, "velocity": 103, "channel": 0}, {"type": "note_off", "time": 60, "note": 65, "velocity": 103, "channel": 0}, {"type": "note_on", "time": 10, "note": 66, "velocity": 110, "channel": 0}, {"type": "note_off", "time": 418, "note": 66, "velocity": 110, "channel": 0}, {"type": "note_on", "time": 51, "note": 59, "velocity": 107, "channel": 0}, {"type": "note_off", "time": 60, "note": 59, "velocity": 107, "channel": 0}, {"type": "note_on", "time": 12, "note": 61, "velocity": 109, "channel": 0}, {"type": "note_off", "time": 94, "note": 61, "velocity": 109, "channel": 0}, {"type": "note_on", "time": 14, "note": 63, "velocity": 112, "channel": 0}, {"type": "note_off", "time": 78, "note": 63, "velocity": 112, "channel": 0}, {"type": "note_on", "time": 12, "note": 66, "velocity": 112, "channel": 0}, {"type": "note_off", "time": 72, "note": 66, "velocity": 112, "channel": 0}, {"type": "note_on", "time": 33, "note": 62, "velocity": 114, "channel": 0}, {"type": "note_off", "time": 90, "note": 62, "velocity": 114, "channel": 0}, {"type": "note_on", "time": 8, "note": 64, "velocity": 114, "channel": 0}, {"type": "note_off", "time": 78, "note": 64, "velocity": 114, "channel": 0}, {"type": "note_on", "time": 9, "note": 66, "velocity": 107, "channel": 0}, {"type": "note_off", "time": 79, "note": 66, "velocity": 107, "channel": 0}, {"type": "note_on", "time": 5, "note": 69, "velocity": 113, "channel": 0}, {"type": "note_off", "time": 97, "note": 69, "velocity": 113, "channel": 0}, {"type": "note_on", "time": 5, "note": 62, "velocity": 110, "channel": 0}, {"type": "note_off", "time": 271, "note": 62, "velocity": 110, "channel": 0}, {"type": "note_on", "time": 21, "note": 67, "velocity": 108, "channel": 0}, {"type": "note_off", "time": 43, "note": 67, "velocity": 108, "channel": 0}, {"type": "note_on", "time": 15, "note": 71, "velocity": 118, "channel": 0}, {"type": "note_off", "time": 54, "note": 71, "velocity": 118, "channel": 0}, {"type": "note_on", "time": 6, "note": 68, "velocity": 117, "channel": 0}, {"type": "note_off", "time": 204, "note": 68, "velocity": 117, "channel": 0}, {"type": "note_on", "time": 8, "note": 72, "velocity": 116, "channel": 0}, {"type": "note_off", "time": 51, "note": 72, "velocity": 116, "channel": 0}, {"type": "note_on", "time": 15, "note": 70, "velocity": 120, "channel": 0}, {"type": "note_off", "time": 386, "note": 70, "velocity": 120, "channel": 0}, {"type": "note_on", "time": 12, "note": 67, "velocity": 114, "channel": 0}, {"type": "note_off", "time": 93, "note": 67, "velocity": 114, "channel": 0}, {"type": "note_on", "time": 16, "note": 65, "velocity": 109, "channel": 0}, {"type": "note_off", "time": 63, "note": 65, "velocity": 109, "channel": 0}, {"type": "note_on", "time": 3, "note": 63, "velocity": 116, "channel": 0}, {"type": "note_off", "time": 112, "note": 63, "velocity": 116, "channel": 0}, {"type": "note_on", "time": 268, "note": 57, "velocity": 104, "channel": 0}, {"type": "note_off", "time": 51, "note": 57, "velocity": 104, "channel": 0}, {"type": "note_on", "time": 204, "note": 67, "velocity": 101, "channel": 0}, {"type": "note_off", "time": 41, "note": 67, "velocity": 101, "channel": 0}, {"type": "note_on", "time": 16, "note": 71, "velocity": 118, "channel": 0}, {"type": "note_off", "time": 86, "note": 71, "velocity": 118, "channel": 0}, {"type": "note_on", "time": 131, "note": 62, "velocity": 111, "channel": 0}, {"type": "note_off", "time": 59, "note": 62, "velocity": 111, "channel": 0}, {"type": "note_on", "time": 135, "note": 67, "velocity": 116, "channel": 0}, {"type": "note_off", "time": 81, "note": 67, "velocity": 116, "channel": 0}, {"type": "note_on", "time": 14, "note": 69, "velocity": 116, "channel": 0}, {"type": "note_off", "time": 59, "note": 69, "velocity": 116, "channel": 0}, {"type": "note_on", "time": 12, "note": 71, "velocity": 113, "channel": 0}, {"type": "note_off", "time": 77, "note": 71, "velocity": 113, "channel": 0}, {"type": "note_on", "time": 24, "note": 74, "velocity": 98, "channel": 0}, {"type": "note_off", "time": 33, "note": 74, "velocity": 98, "channel": 0}, {"type": "note_on", "time": 7, "note": 71, "velocity": 116, "channel": 0}, {"type": "note_off", "time": 45, "note": 71, "velocity": 116, "channel": 0}, {"type": "note_on", "time": 11, "note": 70, "velocity": 114, "channel": 0}, {"type": "note_off", "time": 120, "note": 70, "velocity": 114, "channel": 0}, {"type": "note_on", "time": 2, "note": 69, "velocity": 113, "channel": 0}, {"type": "note_off", "time": 102, "note": 69, "velocity": 113, "channel": 0}, {"type": "note_on", "time": 5, "note": 68, "velocity": 113, "channel": 0}, {"type": "note_off", "time": 67, "note": 68, "velocity": 113, "channel": 0}, {"type": "note_on", "time": 0, "note": 72, "velocity": 106, "channel": 0}, {"type": "note_off", "time": 67, "note": 72, "velocity": 106, "channel": 0}, {"type": "note_on", "time": 22, "note": 70, "velocity": 112, "channel": 0}, {"type": "note_off", "time": 90, "note": 70, "velocity": 112, "channel": 0}, {"type": "note_on", "time": 10, "note": 67, "velocity": 113, "channel": 0}, {"type": "note_off", "time": 85, "note": 67, "velocity": 113, "channel": 0}, {"type": "note_on", "time": 37, "note": 65, "velocity": 106, "channel": 0}, {"type": "note_off", "time": 68, "note": 65, "velocity": 106, "channel": 0}, {"type": "note_on", "time": 0, "note": 63, "velocity": 103, "channel": 0}, {"type": "note_off", "time": 77, "note": 63, "velocity": 103, "channel": 0}, {"type": "note_on", "time": 2, "note": 64, "velocity": 114, "channel": 0}, {"type": "note_off", "time": 89, "note": 64, "velocity": 114, "channel": 0}, {"type": "note_on", "time": 22, "note": 66, "velocity": 106, "channel": 0}, {"type": "note_off", "time": 70, "note": 66, "velocity": 106, "channel": 0}, {"type": "note_on", "time": 5, "note": 68, "velocity": 106, "channel": 0}, {"type": "note_off", "time": 62, "note": 68, "velocity": 106, "channel": 0}, {"type": "note_on", "time": 39, "note": 70, "velocity": 102, "channel": 0}, {"type": "note_off", "time": 64, "note": 70, "velocity": 102, "channel": 0}, {"type": "note_on", "time": 16, "note": 73, "velocity": 112, "channel": 0}, {"type": "note_off", "time": 109, "note": 73, "velocity": 112, "channel": 0}, {"type": "note_on", "time": 5, "note": 70, "velocity": 112, "channel": 0}, {"type": "note_off", "time": 81, "note": 70, "velocity": 112, "channel": 0}, {"type": "note_on", "time": 13, "note": 68, "velocity": 108, "channel": 0}, {"type": "note_off", "time": 91, "note": 68, "velocity": 108, "channel": 0}, {"type": "note_on", "time": 14, "note": 66, "velocity": 108, "channel": 0}, {"type": "note_off", "time": 75, "note": 66, "velocity": 108, "channel": 0}, {"type": "note_on", "time": 0, "note": 63, "velocity": 112, "channel": 0}, {"type": "note_off", "time": 125, "note": 63, "velocity": 112, "channel": 0}, {"type": "note_on", "time": 8, "note": 61, "velocity": 106, "channel": 0}, {"type": "note_off", "time": 71, "note": 61, "velocity": 106, "channel": 0}, {"type": "note_on", "time": 9, "note": 59, "velocity": 98, "channel": 0}, {"type": "note_off", "time": 85, "note": 59, "velocity": 98, "channel": 0}, {"type": "note_on", "time": 47, "note": 55, "velocity": 96, "channel": 0}, {"type": "note_off", "time": 54, "note": 55, "velocity": 96, "channel": 0}, {"type": "note_on", "time": 40, "note": 60, "velocity": 109, "channel": 0}, {"type": "note_off", "time": 70, "note": 60, "velocity": 109, "channel": 0}, {"type": "note_on", "time": 5, "note": 62, "velocity": 111, "channel": 0}, {"type": "note_off", "time": 58, "note": 62, "velocity": 111, "channel": 0}, {"type": "note_on", "time": 10, "note": 63, "velocity": 114, "channel": 0}, {"type": "note_off", "time": 124, "note": 63, "velocity": 114, "channel": 0}, {"type": "note_on", "time": 9, "note": 67, "velocity": 110, "channel": 0}, {"type": "note_off", "time": 63, "note": 67, "velocity": 110, "channel": 0}, {"type": "note_on", "time": 2, "note": 65, "velocity": 103, "channel": 0}, {"type": "note_off", "time": 189, "note": 65, "velocity": 103, "channel": 0}, {"type": "note_on", "time": 295, "note": 68, "velocity": 120, "channel": 0}, {"type": "note_off", "time": 91, "note": 68, "velocity": 120, "channel": 0}, {"type": "note_on", "time": 9, "note": 67, "velocity": 114, "channel": 0}, {"type": "note_off", "time": 83, "note": 67, "velocity": 114, "channel": 0}, {"type": "note_on", "time": 17, "note": 62, "velocity": 103, "channel": 0}, {"type": "note_off", "time": 56, "note": 62, "velocity": 103, "channel": 0}, {"type": "note_on", "time": 17, "note": 65, "velocity": 108, "channel": 0}, {"type": "note_off", "time": 93, "note": 65, "velocity": 108, "channel": 0}, {"type": "note_on", "time": 13, "note": 63, "velocity": 119, "channel": 0}, {"type": "note_off", "time": 90, "note": 63, "velocity": 119, "channel": 0}, {"type": "note_on", "time": 13, "note": 62, "velocity": 112, "channel": 0}, {"type": "note_off", "time": 86, "note": 62, "velocity": 112, "channel": 0}, {"type": "note_on", "time": 17, "note": 60, "velocity": 96, "channel": 0}, {"type": "note_off", "time": 39, "note": 60, "velocity": 96, "channel": 0}, {"type": "note_on", "time": 22, "note": 64, "velocity": 117, "channel": 0}, {"type": "note_off", "time": 94, "note": 64, "velocity": 117, "channel": 0}, {"type": "note_on", "time": 56, "note": 68, "velocity": 95, "channel": 0}, {"type": "note_off", "time": 54, "note": 68, "velocity": 95, "channel": 0}, {"type": "note_on", "time": 13, "note": 67, "velocity": 93, "channel": 0}, {"type": "note_off", "time": 56, "note": 67, "velocity": 93, "channel": 0}, {"type": "note_on", "time": 131, "note": 71, "velocity": 119, "channel": 0}, {"type": "note_off", "time": 81, "note": 71, "velocity": 119, "channel": 0}, {"type": "note_on", "time": 16, "note": 69, "velocity": 115, "channel": 0}, {"type": "note_off", "time": 70, "note": 69, "velocity": 115, "channel": 0}, {"type": "note_on", "time": 1, "note": 66, "velocity": 106, "channel": 0}, {"type": "note_off", "time": 77, "note": 66, "velocity": 106, "channel": 0}, {"type": "note_on", "time": 44, "note": 64, "velocity": 114, "channel": 0}, {"type": "note_off", "time": 81, "note": 64, "velocity": 114, "channel": 0}, {"type": "note_on", "time": 5, "note": 62, "velocity": 113, "channel": 0}, {"type": "note_off", "time": 59, "note": 62, "velocity": 113, "channel": 0}, {"type": "note_on", "time": 12, "note": 64, "velocity": 114, "channel": 0}, {"type": "note_off", "time": 70, "note": 64, "velocity": 114, "channel": 0}, {"type": "note_on", "time": 5, "note": 66, "velocity": 105, "channel": 0}, {"type": "note_off", "time": 50, "note": 66, "velocity": 105, "channel": 0}, {"type": "note_on", "time": 19, "note": 69, "velocity": 107, "channel": 0}, {"type": "note_off", "time": 67, "note": 69, "velocity": 107, "channel": 0}, {"type": "note_on", "time": 23, "note": 69, "velocity": 113, "channel": 0}, {"type": "note_off", "time": 60, "note": 69, "velocity": 113, "channel": 0}, {"type": "note_on", "time": 6, "note": 67, "velocity": 107, "channel": 0}, {"type": "note_off", "time": 104, "note": 67, "velocity": 107, "channel": 0}, {"type": "note_on", "time": 21, "note": 62, "velocity": 112, "channel": 0}, {"type": "note_off", "time": 51, "note": 62, "velocity": 112, "channel": 0}, {"type": "note_on", "time": 41, "note": 59, "velocity": 98, "channel": 0}, {"type": "note_off", "time": 74, "note": 59, "velocity": 98, "channel": 0}, {"type": "note_on", "time": 22, "note": 56, "velocity": 104, "channel": 0}, {"type": "note_off", "time": 64, "note": 56, "velocity": 104, "channel": 0}, {"type": "note_on", "time": 31, "note": 64, "velocity": 102, "channel": 0}, {"type": "note_off", "time": 46, "note": 64, "velocity": 102, "channel": 0}, {"type": "note_on", "time": 326, "note": 63, "velocity": 122, "channel": 0}, {"type": "note_off", "time": 279, "note": 63, "velocity": 122, "channel": 0}, {"type": "note_on", "time": 39, "note": 58, "velocity": 9, "channel": 0}, {"type": "note_off", "time": 309, "note": 58, "velocity": 9, "channel": 0}, {"type": "note_on", "time": 18, "note": 54, "velocity": 107, "channel": 0}, {"type": "note_off", "time": 60, "note": 54, "velocity": 107, "channel": 0}, {"type": "note_on", "time": 24, "note": 59, "velocity": 107, "channel": 0}, {"type": "note_off", "time": 89, "note": 59, "velocity": 107, "channel": 0}, {"type": "note_on", "time": 15, "note": 61, "velocity": 113, "channel": 0}, {"type": "note_off", "time": 74, "note": 61, "velocity": 113, "channel": 0}, {"type": "note_on", "time": 17, "note": 63, "velocity": 106, "channel": 0}, {"type": "note_off", "time": 89, "note": 63, "velocity": 106, "channel": 0}, {"type": "note_on", "time": 13, "note": 66, "velocity": 104, "channel": 0}, {"type": "note_off", "time": 72, "note": 66, "velocity": 104, "channel": 0}, {"type": "note_on", "time": 19, "note": 69, "velocity": 121, "channel": 0}, {"type": "note_off", "time": 108, "note": 69, "velocity": 121, "channel": 0}, {"type": "note_on", "time": 1, "note": 68, "velocity": 115, "channel": 0}, {"type": "note_off", "time": 39, "note": 68, "velocity": 115, "channel": 0}, {"type": "note_on", "time": 11, "note": 67, "velocity": 116, "channel": 0}, {"type": "note_off", "time": 114, "note": 67, "velocity": 116, "channel": 0}, {"type": "note_on", "time": 13, "note": 66, "velocity": 112, "channel": 0}, {"type": "note_off", "time": 87, "note": 66, "velocity": 112, "channel": 0}, {"type": "note_on", "time": 22, "note": 65, "velocity": 109, "channel": 0}, {"type": "note_off", "time": 89, "note": 65, "velocity": 109, "channel": 0}, {"type": "note_on", "time": 0, "note": 63, "velocity": 120, "channel": 0}, {"type": "note_off", "time": 81, "note": 63, "velocity": 120, "channel": 0}, {"type": "note_on", "time": 5, "note": 62, "velocity": 110, "channel": 0}, {"type": "note_off", "time": 83, "note": 62, "velocity": 110, "channel": 0}, {"type": "note_on", "time": 7, "note": 60, "velocity": 107, "channel": 0}, {"type": "note_off", "time": 70, "note": 60, "velocity": 107, "channel": 0}, {"type": "note_on", "time": 7, "note": 58, "velocity": 107, "channel": 0}, {"type": "note_off", "time": 93, "note": 58, "velocity": 107, "channel": 0}, {"type": "note_on", "time": 17, "note": 68, "velocity": 115, "channel": 0}, {"type": "note_off", "time": 66, "note": 68, "velocity": 115, "channel": 0}, {"type": "note_on", "time": 5, "note": 67, "velocity": 109, "channel": 0}, {"type": "note_off", "time": 96, "note": 67, "velocity": 109, "channel": 0}, {"type": "note_on", "time": 17, "note": 62, "velocity": 104, "channel": 0}, {"type": "note_off", "time": 70, "note": 62, "velocity": 104, "channel": 0}, {"type": "note_on", "time": 11, "note": 65, "velocity": 107, "channel": 0}, {"type": "note_off", "time": 117, "note": 65, "velocity": 107, "channel": 0}, {"type": "note_on", "time": 1, "note": 63, "velocity": 115, "channel": 0}, {"type": "note_off", "time": 68, "note": 63, "velocity": 115, "channel": 0}, {"type": "note_on", "time": 11, "note": 62, "velocity": 107, "channel": 0}, {"type": "note_off", "time": 96, "note": 62, "velocity": 107, "channel": 0}, {"type": "note_on", "time": 41, "note": 60, "velocity": 102, "channel": 0}, {"type": "note_off", "time": 54, "note": 60, "velocity": 102, "channel": 0}, {"type": "note_on", "time": 12, "note": 63, "velocity": 116, "channel": 0}, {"type": "note_off", "time": 79, "note": 63, "velocity": 116, "channel": 0}, {"type": "note_on", "time": 17, "note": 59, "velocity": 107, "channel": 0}, {"type": "note_off", "time": 68, "note": 59, "velocity": 107, "channel": 0}, {"type": "note_on", "time": 11, "note": 56, "velocity": 111, "channel": 0}, {"type": "note_off", "time": 70, "note": 56, "velocity": 111, "channel": 0}, {"type": "note_on", "time": 58, "note": 52, "velocity": 94, "channel": 0}, {"type": "note_off", "time": 41, "note": 52, "velocity": 94, "channel": 0}, {"type": "note_on", "time": 31, "note": 58, "velocity": 106, "channel": 0}, {"type": "note_off", "time": 302, "note": 58, "velocity": 106, "channel": 0}, {"type": "note_on", "time": 15, "note": 54, "velocity": 94, "channel": 0}, {"type": "note_off", "time": 68, "note": 54, "velocity": 94, "channel": 0}, {"type": "note_on", "time": 5, "note": 59, "velocity": 109, "channel": 0}, {"type": "note_off", "time": 72, "note": 59, "velocity": 109, "channel": 0}, {"type": "note_on", "time": 16, "note": 61, "velocity": 107, "channel": 0}, {"type": "note_off", "time": 68, "note": 61, "velocity": 107, "channel": 0}, {"type": "note_on", "time": 20, "note": 63, "velocity": 114, "channel": 0}, {"type": "note_off", "time": 79, "note": 63, "velocity": 114, "channel": 0}, {"type": "note_on", "time": 33, "note": 66, "velocity": 110, "channel": 0}, {"type": "note_off", "time": 77, "note": 66, "velocity": 110, "channel": 0}, {"type": "note_on", "time": 28, "note": 62, "velocity": 115, "channel": 0}, {"type": "note_off", "time": 72, "note": 62, "velocity": 115, "channel": 0}, {"type": "note_on", "time": 13, "note": 64, "velocity": 121, "channel": 0}, {"type": "note_off", "time": 81, "note": 64, "velocity": 121, "channel": 0}, {"type": "note_on", "time": 15, "note": 66, "velocity": 105, "channel": 0}, {"type": "note_off", "time": 66, "note": 66, "velocity": 105, "channel": 0}, {"type": "note_on", "time": 22, "note": 69, "velocity": 119, "channel": 0}, {"type": "note_off", "time": 89, "note": 69, "velocity": 119, "channel": 0}, {"type": "note_on", "time": 5, "note": 67, "velocity": 116, "channel": 0}, {"type": "note_off", "time": 47, "note": 67, "velocity": 116, "channel": 0}, {"type": "note_on", "time": 409, "note": 70, "velocity": 100, "channel": 0}, {"type": "note_off", "time": 90, "note": 70, "velocity": 100, "channel": 0}, {"type": "note_on", "time": 26, "note": 74, "velocity": 114, "channel": 0}, {"type": "note_off", "time": 141, "note": 74, "velocity": 114, "channel": 0}, {"type": "note_on", "time": 35, "note": 71, "velocity": 126, "channel": 0}, {"type": "note_off", "time": 43, "note": 71, "velocity": 126, "channel": 0}, {"type": "note_on", "time": 12, "note": 70, "velocity": 121, "channel": 0}, {"type": "note_off", "time": 72, "note": 70, "velocity": 121, "channel": 0}, {"type": "note_on", "time": 6, "note": 68, "velocity": 121, "channel": 0}, {"type": "note_off", "time": 83, "note": 68, "velocity": 121, "channel": 0}, {"type": "note_on", "time": 12, "note": 67, "velocity": 116, "channel": 0}, {"type": "note_off", "time": 68, "note": 67, "velocity": 116, "channel": 0}, {"type": "note_on", "time": 9, "note": 65, "velocity": 113, "channel": 0}, {"type": "note_off", "time": 87, "note": 65, "velocity": 113, "channel": 0}, {"type": "note_on", "time": 11, "note": 63, "velocity": 119, "channel": 0}, {"type": "note_off", "time": 72, "note": 63, "velocity": 119, "channel": 0}, {"type": "note_on", "time": 26, "note": 65, "velocity": 110, "channel": 0}, {"type": "note_off", "time": 85, "note": 65, "velocity": 110, "channel": 0}, {"type": "note_on", "time": 37, "note": 67, "velocity": 103, "channel": 0}, {"type": "note_off", "time": 55, "note": 67, "velocity": 103, "channel": 0}, {"type": "note_on", "time": 14, "note": 70, "velocity": 103, "channel": 0}, {"type": "note_off", "time": 54, "note": 70, "velocity": 103, "channel": 0}, {"type": "note_on", "time": 18, "note": 75, "velocity": 109, "channel": 0}, {"type": "note_off", "time": 116, "note": 75, "velocity": 109, "channel": 0}, {"type": "note_on", "time": 289, "note": 72, "velocity": 102, "channel": 0}, {"type": "note_off", "time": 124, "note": 72, "velocity": 102, "channel": 0}, {"type": "note_on", "time": 7, "note": 74, "velocity": 114, "channel": 0}, {"type": "note_off", "time": 112, "note": 74, "velocity": 114, "channel": 0}, {"type": "note_on", "time": 57, "note": 73, "velocity": 119, "channel": 0}, {"type": "note_off", "time": 45, "note": 73, "velocity": 119, "channel": 0}, {"type": "note_on", "time": 11, "note": 71, "velocity": 121, "channel": 0}, {"type": "note_off", "time": 80, "note": 71, "velocity": 121, "channel": 0}, {"type": "note_on", "time": 92, "note": 62, "velocity": 106, "channel": 0}, {"type": "note_off", "time": 37, "note": 62, "velocity": 106, "channel": 0}, {"type": "note_on", "time": 4, "note": 67, "velocity": 118, "channel": 0}, {"type": "note_off", "time": 77, "note": 67, "velocity": 118, "channel": 0}, {"type": "note_on", "time": 22, "note": 71, "velocity": 122, "channel": 0}, {"type": "note_off", "time": 70, "note": 71, "velocity": 122, "channel": 0}, {"type": "note_on", "time": 24, "note": 68, "velocity": 119, "channel": 0}, {"type": "note_off", "time": 83, "note": 68, "velocity": 119, "channel": 0}, {"type": "note_on", "time": 8, "note": 72, "velocity": 121, "channel": 0}, {"type": "note_off", "time": 62, "note": 72, "velocity": 121, "channel": 0}, {"type": "note_on", "time": 33, "note": 70, "velocity": 116, "channel": 0}, {"type": "note_off", "time": 81, "note": 70, "velocity": 116, "channel": 0}, {"type": "note_on", "time": 10, "note": 68, "velocity": 116, "channel": 0}, {"type": "note_off", "time": 72, "note": 68, "velocity": 116, "channel": 0}, {"type": "note_on", "time": 17, "note": 67, "velocity": 114, "channel": 0}, {"type": "note_off", "time": 91, "note": 67, "velocity": 114, "channel": 0}, {"type": "note_on", "time": 316, "note": 64, "velocity": 116, "channel": 0}, {"type": "note_off", "time": 70, "note": 64, "velocity": 116, "channel": 0}, {"type": "note_on", "time": 27, "note": 66, "velocity": 107, "channel": 0}, {"type": "note_off", "time": 72, "note": 66, "velocity": 107, "channel": 0}, {"type": "note_on", "time": 5, "note": 68, "velocity": 102, "channel": 0}, {"type": "note_off", "time": 98, "note": 68, "velocity": 102, "channel": 0}, {"type": "note_on", "time": 4, "note": 70, "velocity": 104, "channel": 0}, {"type": "note_off", "time": 77, "note": 70, "velocity": 104, "channel": 0}, {"type": "note_on", "time": 12, "note": 73, "velocity": 118, "channel": 0}, {"type": "note_off", "time": 89, "note": 73, "velocity": 118, "channel": 0}, {"type": "note_on", "time": 25, "note": 70, "velocity": 114, "channel": 0}, {"type": "note_off", "time": 74, "note": 70, "velocity": 114, "channel": 0}, {"type": "note_on", "time": 20, "note": 68, "velocity": 110, "channel": 0}, {"type": "note_off", "time": 60, "note": 68, "velocity": 110, "channel": 0}, {"type": "note_on", "time": 27, "note": 66, "velocity": 111, "channel": 0}, {"type": "note_off", "time": 78, "note": 66, "velocity": 111, "channel": 0}, {"type": "note_on", "time": 29, "note": 63, "velocity": 113, "channel": 0}, {"type": "note_off", "time": 94, "note": 63, "velocity": 113, "channel": 0}, {"type": "note_on", "time": 24, "note": 59, "velocity": 92, "channel": 0}, {"type": "note_off", "time": 104, "note": 59, "velocity": 92, "channel": 0}, {"type": "note_on", "time": 136, "note": 63, "velocity": 118, "channel": 0}, {"type": "note_off", "time": 79, "note": 63, "velocity": 118, "channel": 0}, {"type": "note_on", "time": 17, "note": 65, "velocity": 107, "channel": 0}, {"type": "note_off", "time": 71, "note": 65, "velocity": 107, "channel": 0}, {"type": "note_on", "time": 31, "note": 67, "velocity": 110, "channel": 0}, {"type": "note_off", "time": 75, "note": 67, "velocity": 110, "channel": 0}, {"type": "note_on", "time": 52, "note": 65, "velocity": 92, "channel": 0}, {"type": "note_off", "time": 40, "note": 65, "velocity": 92, "channel": 0}, {"type": "note_on", "time": 37, "note": 69, "velocity": 118, "channel": 0}, {"type": "note_off", "time": 71, "note": 69, "velocity": 118, "channel": 0}, {"type": "note_on", "time": 32, "note": 66, "velocity": 108, "channel": 0}, {"type": "note_off", "time": 64, "note": 66, "velocity": 108, "channel": 0}, {"type": "note_on", "time": 31, "note": 62, "velocity": 107, "channel": 0}, {"type": "note_off", "time": 67, "note": 62, "velocity": 107, "channel": 0}, {"type": "note_on", "time": 22, "note": 60, "velocity": 108, "channel": 0}, {"type": "note_off", "time": 58, "note": 60, "velocity": 108, "channel": 0}, {"type": "note_on", "time": 33, "note": 58, "velocity": 112, "channel": 0}, {"type": "note_off", "time": 50, "note": 58, "velocity": 112, "channel": 0}, {"type": "note_on", "time": 21, "note": 67, "velocity": 111, "channel": 0}, {"type": "note_off", "time": 64, "note": 67, "velocity": 111, "channel": 0}, {"type": "note_on", "time": 28, "note": 68, "velocity": 110, "channel": 0}, {"type": "note_off", "time": 60, "note": 68, "velocity": 110, "channel": 0}, {"type": "note_on", "time": 59, "note": 65, "velocity": 108, "channel": 0}, {"type": "note_off", "time": 64, "note": 65, "velocity": 108, "channel": 0}, {"type": "note_on", "time": 4, "note": 63, "velocity": 120, "channel": 0}, {"type": "note_off", "time": 100, "note": 63, "velocity": 120, "channel": 0}, {"type": "note_on", "time": 1, "note": 65, "velocity": 102, "channel": 0}, {"type": "note_off", "time": 75, "note": 65, "velocity": 102, "channel": 0}, {"type": "note_on", "time": 1, "note": 67, "velocity": 101, "channel": 0}, {"type": "note_off", "time": 67, "note": 67, "velocity": 101, "channel": 0}, {"type": "note_on", "time": 44, "note": 70, "velocity": 105, "channel": 0}, {"type": "note_off", "time": 87, "note": 70, "velocity": 105, "channel": 0}, {"type": "note_on", "time": 5, "note": 71, "velocity": 120, "channel": 0}, {"type": "note_off", "time": 97, "note": 71, "velocity": 120, "channel": 0}, {"type": "note_on", "time": 6, "note": 69, "velocity": 118, "channel": 0}, {"type": "note_off", "time": 82, "note": 69, "velocity": 118, "channel": 0}, {"type": "note_on", "time": 6, "note": 67, "velocity": 111, "channel": 0}, {"type": "note_off", "time": 86, "note": 67, "velocity": 111, "channel": 0}, {"type": "note_on", "time": 12, "note": 66, "velocity": 113, "channel": 0}, {"type": "note_off", "time": 87, "note": 66, "velocity": 113, "channel": 0}, {"type": "note_on", "time": 93, "note": 64, "velocity": 119, "channel": 0}, {"type": "note_off", "time": 77, "note": 64, "velocity": 119, "channel": 0}, {"type": "note_on", "time": 9, "note": 62, "velocity": 114, "channel": 0}, {"type": "note_off", "time": 81, "note": 62, "velocity": 114, "channel": 0}, {"type": "note_on", "time": 27, "note": 60, "velocity": 108, "channel": 0}, {"type": "note_off", "time": 63, "note": 60, "velocity": 108, "channel": 0}, {"type": "note_on", "time": 22, "note": 59, "velocity": 111, "channel": 0}, {"type": "note_off", "time": 68, "note": 59, "velocity": 111, "channel": 0}, {"type": "note_on", "time": 37, "note": 62, "velocity": 112, "channel": 0}, {"type": "note_off", "time": 58, "note": 62, "velocity": 112, "channel": 0}, {"type": "note_on", "time": 43, "note": 67, "velocity": 105, "channel": 0}, {"type": "note_off", "time": 67, "note": 67, "velocity": 105, "channel": 0}, {"type": "note_on", "time": 21, "note": 69, "velocity": 101, "channel": 0}, {"type": "note_off", "time": 87, "note": 69, "velocity": 101, "channel": 0}, {"type": "note_on", "time": 5, "note": 71, "velocity": 118, "channel": 0}, {"type": "note_off", "time": 95, "note": 71, "velocity": 118, "channel": 0}, {"type": "note_on", "time": 63, "note": 67, "velocity": 111, "channel": 0}, {"type": "note_off", "time": 47, "note": 67, "velocity": 111, "channel": 0}, {"type": "note_on", "time": 6, "note": 69, "velocity": 107, "channel": 0}, {"type": "note_off", "time": 48, "note": 69, "velocity": 107, "channel": 0}, {"type": "note_on", "time": 9, "note": 71, "velocity": 121, "channel": 0}, {"type": "note_off", "time": 87, "note": 71, "velocity": 121, "channel": 0}, {"type": "note_on", "time": 5, "note": 70, "velocity": 116, "channel": 0}, {"type": "note_off", "time": 82, "note": 70, "velocity": 116, "channel": 0}, {"type": "note_on", "time": 339, "note": 71, "velocity": 112, "channel": 0}, {"type": "note_off", "time": 31, "note": 71, "velocity": 112, "channel": 0}, {"type": "note_on", "time": 6, "note": 73, "velocity": 121, "channel": 0}, {"type": "note_off", "time": 327, "note": 73, "velocity": 121, "channel": 0}, {"type": "note_on", "time": 3, "note": 70, "velocity": 122, "channel": 0}, {"type": "note_off", "time": 258, "note": 70, "velocity": 122, "channel": 0}, {"type": "note_on", "time": 16, "note": 73, "velocity": 117, "channel": 0}, {"type": "note_off", "time": 48, "note": 73, "velocity": 117, "channel": 0}, {"type": "note_on", "time": 17, "note": 70, "velocity": 120, "channel": 0}, {"type": "note_off", "time": 101, "note": 70, "velocity": 120, "channel": 0}, {"type": "note_on", "time": 32, "note": 66, "velocity": 114, "channel": 0}, {"type": "note_off", "time": 72, "note": 66, "velocity": 114, "channel": 0}, {"type": "note_on", "time": 10, "note": 63, "velocity": 119, "channel": 0}, {"type": "note_off", "time": 112, "note": 63, "velocity": 119, "channel": 0}, {"type": "note_on", "time": 9, "note": 59, "velocity": 90, "channel": 0}, {"type": "note_off", "time": 55, "note": 59, "velocity": 90, "channel": 0}, {"type": "note_on", "time": 14, "note": 60, "velocity": 108, "channel": 0}, {"type": "note_off", "time": 91, "note": 60, "velocity": 108, "channel": 0}, {"type": "note_on", "time": 9, "note": 62, "velocity": 113, "channel": 0}, {"type": "note_off", "time": 82, "note": 62, "velocity": 113, "channel": 0}, {"type": "note_on", "time": 20, "note": 63, "velocity": 111, "channel": 0}, {"type": "note_off", "time": 89, "note": 63, "velocity": 111, "channel": 0}, {"type": "note_on", "time": 9, "note": 65, "velocity": 101, "channel": 0}, {"type": "note_off", "time": 67, "note": 65, "velocity": 101, "channel": 0}, {"type": "note_on", "time": 6, "note": 67, "velocity": 116, "channel": 0}, {"type": "note_off", "time": 70, "note": 67, "velocity": 116, "channel": 0}, {"type": "note_on", "time": 31, "note": 65, "velocity": 113, "channel": 0}, {"type": "note_off", "time": 51, "note": 65, "velocity": 113, "channel": 0}, {"type": "note_on", "time": 13, "note": 62, "velocity": 113, "channel": 0}, {"type": "note_off", "time": 117, "note": 62, "velocity": 113, "channel": 0}, {"type": "note_on", "time": 10, "note": 60, "velocity": 107, "channel": 0}, {"type": "note_off", "time": 72, "note": 60, "velocity": 107, "channel": 0}, {"type": "note_on", "time": 18, "note": 58, "velocity": 105, "channel": 0}, {"type": "note_off", "time": 85, "note": 58, "velocity": 105, "channel": 0}, {"type": "note_on", "time": 0, "note": 63, "velocity": 115, "channel": 0}, {"type": "note_off", "time": 91, "note": 63, "velocity": 115, "channel": 0}, {"type": "note_on", "time": 66, "note": 67, "velocity": 104, "channel": 0}, {"type": "note_off", "time": 59, "note": 67, "velocity": 104, "channel": 0}, {"type": "note_on", "time": 0, "note": 70, "velocity": 94, "channel": 0}, {"type": "note_off", "time": 47, "note": 70, "velocity": 94, "channel": 0}, {"type": "note_on", "time": 0, "note": 75, "velocity": 119, "channel": 0}, {"type": "note_off", "time": 250, "note": 75, "velocity": 119, "channel": 0}, {"type": "note_on", "time": 4, "note": 70, "velocity": 111, "channel": 0}, {"type": "note_off", "time": 81, "note": 70, "velocity": 111, "channel": 0}, {"type": "note_on", "time": 12, "note": 72, "velocity": 123, "channel": 0}, {"type": "note_off", "time": 110, "note": 72, "velocity": 123, "channel": 0}, {"type": "note_on", "time": 66, "note": 70, "velocity": 115, "channel": 0}, {"type": "note_off", "time": 444, "note": 70, "velocity": 115, "channel": 0}, {"type": "note_on", "time": 371, "note": 71, "velocity": 109, "channel": 0}, {"type": "note_off", "time": 41, "note": 71, "velocity": 109, "channel": 0}, {"type": "note_on", "time": 8, "note": 73, "velocity": 118, "channel": 0}, {"type": "note_off", "time": 237, "note": 73, "velocity": 118, "channel": 0}, {"type": "note_on", "time": 12, "note": 74, "velocity": 121, "channel": 0}, {"type": "note_off", "time": 204, "note": 74, "velocity": 121, "channel": 0}, {"type": "note_on", "time": 77, "note": 71, "velocity": 122, "channel": 0}, {"type": "note_off", "time": 110, "note": 71, "velocity": 122, "channel": 0}, {"type": "note_on", "time": 100, "note": 72, "velocity": 123, "channel": 0}, {"type": "note_off", "time": 87, "note": 72, "velocity": 123, "channel": 0}, {"type": "note_on", "time": 10, "note": 71, "velocity": 123, "channel": 0}, {"type": "note_off", "time": 81, "note": 71, "velocity": 123, "channel": 0}, {"type": "note_on", "time": 12, "note": 67, "velocity": 109, "channel": 0}, {"type": "note_off", "time": 70, "note": 67, "velocity": 109, "channel": 0}, {"type": "note_on", "time": 2, "note": 69, "velocity": 119, "channel": 0}, {"type": "note_off", "time": 83, "note": 69, "velocity": 119, "channel": 0}, {"type": "note_on", "time": 0, "note": 72, "velocity": 119, "channel": 0}, {"type": "note_off", "time": 62, "note": 72, "velocity": 119, "channel": 0}, {"type": "note_on", "time": 27, "note": 70, "velocity": 116, "channel": 0}, {"type": "note_off", "time": 132, "note": 70, "velocity": 116, "channel": 0}, {"type": "note_on", "time": 332, "note": 71, "velocity": 104, "channel": 0}, {"type": "note_off", "time": 89, "note": 71, "velocity": 104, "channel": 0}, {"type": "note_on", "time": 14, "note": 74, "velocity": 109, "channel": 0}, {"type": "note_off", "time": 290, "note": 74, "velocity": 109, "channel": 0}, {"type": "note_on", "time": 10, "note": 72, "velocity": 114, "channel": 0}, {"type": "note_off", "time": 63, "note": 72, "velocity": 114, "channel": 0}, {"type": "note_on", "time": 21, "note": 70, "velocity": 116, "channel": 0}, {"type": "note_off", "time": 114, "note": 70, "velocity": 116, "channel": 0}, {"type": "note_on", "time": 10, "note": 67, "velocity": 112, "channel": 0}, {"type": "note_off", "time": 87, "note": 67, "velocity": 112, "channel": 0}, {"type": "note_on", "time": 13, "note": 63, "velocity": 105, "channel": 0}, {"type": "note_off", "time": 83, "note": 63, "velocity": 105, "channel": 0}, {"type": "note_on", "time": 100, "note": 72, "velocity": 105, "channel": 0}, {"type": "note_off", "time": 89, "note": 72, "velocity": 105, "channel": 0}, {"type": "note_on", "time": 5, "note": 74, "velocity": 119, "channel": 0}, {"type": "note_off", "time": 152, "note": 74, "velocity": 119, "channel": 0}, {"type": "note_on", "time": 4, "note": 73, "velocity": 118, "channel": 0}, {"type": "note_off", "time": 50, "note": 73, "velocity": 118, "channel": 0}, {"type": "note_on", "time": 4, "note": 71, "velocity": 121, "channel": 0}, {"type": "note_off", "time": 89, "note": 71, "velocity": 121, "channel": 0}, {"type": "note_on", "time": 128, "note": 67, "velocity": 114, "channel": 0}, {"type": "note_off", "time": 89, "note": 67, "velocity": 114, "channel": 0}, {"type": "note_on", "time": 5, "note": 71, "velocity": 119, "channel": 0}, {"type": "note_off", "time": 62, "note": 71, "velocity": 119, "channel": 0}, {"type": "note_on", "time": 48, "note": 62, "velocity": 114, "channel": 0}, {"type": "note_off", "time": 74, "note": 62, "velocity": 114, "channel": 0}, {"type": "note_on", "time": 62, "note": 68, "velocity": 115, "channel": 0}, {"type": "note_off", "time": 81, "note": 68, "velocity": 115, "channel": 0}, {"type": "note_on", "time": 55, "note": 72, "velocity": 116, "channel": 0}, {"type": "note_off", "time": 56, "note": 72, "velocity": 116, "channel": 0}, {"type": "note_on", "time": 72, "note": 63, "velocity": 115, "channel": 0}, {"type": "note_off", "time": 58, "note": 63, "velocity": 115, "channel": 0}, {"type": "note_on", "time": 1, "note": 65, "velocity": 103, "channel": 0}, {"type": "note_off", "time": 67, "note": 65, "velocity": 103, "channel": 0}, {"type": "note_on", "time": 68, "note": 67, "velocity": 100, "channel": 0}, {"type": "note_off", "time": 67, "note": 67, "velocity": 100, "channel": 0}, {"type": "note_on", "time": 5, "note": 70, "velocity": 102, "channel": 0}, {"type": "note_off", "time": 68, "note": 70, "velocity": 102, "channel": 0}, {"type": "note_on", "time": 6, "note": 75, "velocity": 109, "channel": 0}, {"type": "note_off", "time": 531, "note": 75, "velocity": 109, "channel": 0}, {"type": "note_on", "time": 37, "note": 73, "velocity": 118, "channel": 0}, {"type": "note_on", "time": 86, "note": 71, "velocity": 118, "channel": 0}, {"type": "note_off", "time": 0, "note": 73, "velocity": 118, "channel": 0}, {"type": "note_off", "time": 77, "note": 71, "velocity": 118, "channel": 0}, {"type": "note_on", "time": 1, "note": 70, "velocity": 112, "channel": 0}, {"type": "note_off", "time": 124, "note": 70, "velocity": 112, "channel": 0}, {"type": "note_on", "time": 10, "note": 66, "velocity": 110, "channel": 0}, {"type": "note_off", "time": 45, "note": 66, "velocity": 110, "channel": 0}, {"type": "note_on", "time": 21, "note": 63, "velocity": 111, "channel": 0}, {"type": "note_off", "time": 58, "note": 63, "velocity": 111, "channel": 0}, {"type": "note_on", "time": 149, "note": 70, "velocity": 108, "channel": 0}, {"type": "note_off", "time": 87, "note": 70, "velocity": 108, "channel": 0}, {"type": "note_on", "time": 10, "note": 74, "velocity": 113, "channel": 0}, {"type": "note_off", "time": 101, "note": 74, "velocity": 113, "channel": 0}, {"type": "note_on", "time": 12, "note": 73, "velocity": 115, "channel": 0}, {"type": "note_off", "time": 71, "note": 73, "velocity": 115, "channel": 0}, {"type": "note_on", "time": 10, "note": 71, "velocity": 117, "channel": 0}, {"type": "note_off", "time": 70, "note": 71, "velocity": 117, "channel": 0}, {"type": "note_on", "time": 10, "note": 70, "velocity": 104, "channel": 0}, {"type": "note_off", "time": 60, "note": 70, "velocity": 104, "channel": 0}, {"type": "note_on", "time": 40, "note": 69, "velocity": 115, "channel": 0}, {"type": "note_off", "time": 70, "note": 69, "velocity": 115, "channel": 0}, {"type": "note_on", "time": 22, "note": 68, "velocity": 104, "channel": 0}, {"type": "note_off", "time": 63, "note": 68, "velocity": 104, "channel": 0}, {"type": "note_on", "time": 32, "note": 67, "velocity": 112, "channel": 0}, {"type": "note_off", "time": 82, "note": 67, "velocity": 112, "channel": 0}, {"type": "note_on", "time": 25, "note": 65, "velocity": 109, "channel": 0}, {"type": "note_off", "time": 63, "note": 65, "velocity": 109, "channel": 0}, {"type": "note_on", "time": 8, "note": 63, "velocity": 118, "channel": 0}, {"type": "note_off", "time": 79, "note": 63, "velocity": 118, "channel": 0}, {"type": "note_on", "time": 8, "note": 62, "velocity": 111, "channel": 0}, {"type": "note_off", "time": 89, "note": 62, "velocity": 111, "channel": 0}, {"type": "note_on", "time": 17, "note": 60, "velocity": 110, "channel": 0}, {"type": "note_off", "time": 91, "note": 60, "velocity": 110, "channel": 0}, {"type": "note_on", "time": 13, "note": 58, "velocity": 108, "channel": 0}, {"type": "note_off", "time": 78, "note": 58, "velocity": 108, "channel": 0}, {"type": "note_on", "time": 22, "note": 60, "velocity": 108, "channel": 0}, {"type": "note_off", "time": 63, "note": 60, "velocity": 108, "channel": 0}, {"type": "note_on", "time": 0, "note": 62, "velocity": 112, "channel": 0}, {"type": "note_off", "time": 74, "note": 62, "velocity": 112, "channel": 0}, {"type": "note_on", "time": 32, "note": 65, "velocity": 110, "channel": 0}, {"type": "note_off", "time": 81, "note": 65, "velocity": 110, "channel": 0}, {"type": "note_on", "time": 6, "note": 64, "velocity": 112, "channel": 0}, {"type": "note_off", "time": 75, "note": 64, "velocity": 112, "channel": 0}, {"type": "note_on", "time": 9, "note": 67, "velocity": 106, "channel": 0}, {"type": "note_off", "time": 81, "note": 67, "velocity": 106, "channel": 0}, {"type": "note_on", "time": 227, "note": 70, "velocity": 110, "channel": 0}, {"type": "note_off", "time": 75, "note": 70, "velocity": 110, "channel": 0}, {"type": "note_on", "time": 10, "note": 74, "velocity": 115, "channel": 0}, {"type": "note_off", "time": 197, "note": 74, "velocity": 115, "channel": 0}, {"type": "note_on", "time": 6, "note": 73, "velocity": 120, "channel": 0}, {"type": "note_off", "time": 54, "note": 73, "velocity": 120, "channel": 0}, {"type": "note_on", "time": 5, "note": 71, "velocity": 117, "channel": 0}, {"type": "note_off", "time": 152, "note": 71, "velocity": 117, "channel": 0}, {"type": "note_on", "time": 74, "note": 66, "velocity": 110, "channel": 0}, {"type": "note_off", "time": 78, "note": 66, "velocity": 110, "channel": 0}, {"type": "note_on", "time": 35, "note": 69, "velocity": 118, "channel": 0}, {"type": "note_off", "time": 140, "note": 69, "velocity": 118, "channel": 0}, {"type": "note_on", "time": 25, "note": 69, "velocity": 122, "channel": 0}, {"type": "note_off", "time": 108, "note": 69, "velocity": 122, "channel": 0}, {"type": "note_on", "time": 5, "note": 67, "velocity": 113, "channel": 0}, {"type": "note_off", "time": 95, "note": 67, "velocity": 113, "channel": 0}, {"type": "note_on", "time": 356, "note": 69, "velocity": 121, "channel": 0}, {"type": "note_off", "time": 40, "note": 69, "velocity": 121, "channel": 0}, {"type": "note_on", "time": 4, "note": 70, "velocity": 116, "channel": 0}, {"type": "note_off", "time": 335, "note": 70, "velocity": 116, "channel": 0}, {"type": "note_on", "time": 8, "note": 66, "velocity": 104, "channel": 0}, {"type": "note_off", "time": 78, "note": 66, "velocity": 104, "channel": 0}, {"type": "note_on", "time": 8, "note": 68, "velocity": 117, "channel": 0}, {"type": "note_off", "time": 86, "note": 68, "velocity": 117, "channel": 0}, {"type": "note_on", "time": 10, "note": 70, "velocity": 116, "channel": 0}, {"type": "note_off", "time": 77, "note": 70, "velocity": 116, "channel": 0}, {"type": "note_on", "time": 6, "note": 66, "velocity": 108, "channel": 0}, {"type": "note_off", "time": 74, "note": 66, "velocity": 108, "channel": 0}, {"type": "note_on", "time": 9, "note": 63, "velocity": 120, "channel": 0}, {"type": "note_off", "time": 139, "note": 63, "velocity": 120, "channel": 0}, {"type": "note_on", "time": 37, "note": 63, "velocity": 116, "channel": 0}, {"type": "note_off", "time": 131, "note": 63, "velocity": 116, "channel": 0}, {"type": "note_on", "time": 17, "note": 59, "velocity": 96, "channel": 0}, {"type": "note_off", "time": 70, "note": 59, "velocity": 96, "channel": 0}, {"type": "note_on", "time": 97, "note": 60, "velocity": 108, "channel": 0}, {"type": "note_off", "time": 91, "note": 60, "velocity": 108, "channel": 0}, {"type": "note_on", "time": 8, "note": 62, "velocity": 115, "channel": 0}, {"type": "note_off", "time": 67, "note": 62, "velocity": 115, "channel": 0}, {"type": "note_on", "time": 10, "note": 63, "velocity": 118, "channel": 0}, {"type": "note_off", "time": 114, "note": 63, "velocity": 118, "channel": 0}, {"type": "note_on", "time": 22, "note": 60, "velocity": 98, "channel": 0}, {"type": "note_off", "time": 48, "note": 60, "velocity": 98, "channel": 0}, {"type": "note_on", "time": 0, "note": 67, "velocity": 115, "channel": 0}, {"type": "note_off", "time": 106, "note": 67, "velocity": 115, "channel": 0}, {"type": "note_on", "time": 4, "note": 65, "velocity": 109, "channel": 0}, {"type": "note_on", "time": 68, "note": 62, "velocity": 111, "channel": 0}, {"type": "note_off", "time": 0, "note": 65, "velocity": 109, "channel": 0}, {"type": "note_off", "time": 113, "note": 62, "velocity": 111, "channel": 0}, {"type": "note_on", "time": 12, "note": 60, "velocity": 106, "channel": 0}, {"type": "note_off", "time": 87, "note": 60, "velocity": 106, "channel": 0}, {"type": "note_on", "time": 5, "note": 58, "velocity": 109, "channel": 0}, {"type": "note_off", "time": 70, "note": 58, "velocity": 109, "channel": 0}, {"type": "note_on", "time": 2, "note": 60, "velocity": 105, "channel": 0}, {"type": "note_off", "time": 70, "note": 60, "velocity": 105, "channel": 0}, {"type": "note_on", "time": 5, "note": 62, "velocity": 107, "channel": 0}, {"type": "note_off", "time": 89, "note": 62, "velocity": 107, "channel": 0}, {"type": "note_on", "time": 52, "note": 65, "velocity": 109, "channel": 0}, {"type": "note_off", "time": 66, "note": 65, "velocity": 109, "channel": 0}, {"type": "note_on", "time": 1, "note": 63, "velocity": 111, "channel": 0}, {"type": "note_off", "time": 109, "note": 63, "velocity": 111, "channel": 0}, {"type": "note_on", "time": 29, "note": 65, "velocity": 107, "channel": 0}, {"type": "note_off", "time": 64, "note": 65, "velocity": 107, "channel": 0}, {"type": "note_on", "time": 6, "note": 63, "velocity": 111, "channel": 0}, {"type": "note_off", "time": 40, "note": 63, "velocity": 111, "channel": 0}, {"type": "note_on", "time": 12, "note": 67, "velocity": 100, "channel": 0}, {"type": "note_off", "time": 48, "note": 67, "velocity": 100, "channel": 0}, {"type": "note_on", "time": 22, "note": 70, "velocity": 110, "channel": 0}, {"type": "note_off", "time": 59, "note": 70, "velocity": 110, "channel": 0}, {"type": "note_on", "time": 51, "note": 63, "velocity": 119, "channel": 0}, {"type": "note_off", "time": 71, "note": 63, "velocity": 119, "channel": 0}, {"type": "note_on", "time": 10, "note": 59, "velocity": 106, "channel": 0}, {"type": "note_off", "time": 52, "note": 59, "velocity": 106, "channel": 0}, {"type": "note_on", "time": 28, "note": 56, "velocity": 103, "channel": 0}, {"type": "note_off", "time": 70, "note": 56, "velocity": 103, "channel": 0}, {"type": "note_on", "time": 31, "note": 54, "velocity": 94, "channel": 0}, {"type": "note_off", "time": 47, "note": 54, "velocity": 94, "channel": 0}, {"type": "note_on", "time": 12, "note": 58, "velocity": 99, "channel": 0}, {"type": "note_off", "time": 323, "note": 58, "velocity": 99, "channel": 0}, {"type": "note_on", "time": 64, "note": 59, "velocity": 106, "channel": 0}, {"type": "note_off", "time": 70, "note": 59, "velocity": 106, "channel": 0}, {"type": "note_on", "time": 20, "note": 61, "velocity": 104, "channel": 0}, {"type": "note_off", "time": 94, "note": 61, "velocity": 104, "channel": 0}, {"type": "note_on", "time": 45, "note": 63, "velocity": 106, "channel": 0}, {"type": "note_off", "time": 44, "note": 63, "velocity": 106, "channel": 0}, {"type": "note_on", "time": 33, "note": 66, "velocity": 105, "channel": 0}, {"type": "note_off", "time": 58, "note": 66, "velocity": 105, "channel": 0}, {"type": "note_on", "time": 51, "note": 62, "velocity": 104, "channel": 0}, {"type": "note_off", "time": 105, "note": 62, "velocity": 104, "channel": 0}, {"type": "note_on", "time": 2, "note": 60, "velocity": 101, "channel": 0}, {"type": "note_off", "time": 41, "note": 60, "velocity": 101, "channel": 0}, {"type": "note_on", "time": 37, "note": 59, "velocity": 94, "channel": 0}, {"type": "note_off", "time": 54, "note": 59, "velocity": 94, "channel": 0}, {"type": "note_on", "time": 81, "note": 62, "velocity": 104, "channel": 0}, {"type": "note_off", "time": 66, "note": 62, "velocity": 104, "channel": 0}, {"type": "note_on", "time": 35, "note": 59, "velocity": 93, "channel": 0}, {"type": "note_off", "time": 63, "note": 59, "velocity": 93, "channel": 0}, {"type": "note_on", "time": 68, "note": 54, "velocity": 102, "channel": 0}, {"type": "note_off", "time": 81, "note": 54, "velocity": 102, "channel": 0}, {"type": "end_of_track", "time": 0}]]}