{"ticks_per_beat": 192, "tracks": [[{"type": "track_name", "name": "Melody", "time": 0}, {"type": "set_tempo", "tempo": 233463, "time": 0}, {"type": "key_signature", "key": "Eb", "time": 0}, {"type": "time_signature", "numerator": 4, "denominator": 4, "clocks_per_click": 24, "notated_32nd_notes_per_beat": 8, "time": 0}, {"type": "note_on", "time": 2323, "note": 55, "velocity": 102, "channel": 0}, {"type": "note_off", "time": 104, "note": 55, "velocity": 102, "channel": 0}, {"type": "note_on", "time": 30, "note": 57, "velocity": 103, "channel": 0}, {"type": "note_off", "time": 83, "note": 57, "velocity": 103, "channel": 0}, {"type": "note_on", "time": 3, "note": 59, "velocity": 101, "channel": 0}, {"type": "note_off", "time": 73, "note": 59, "velocity": 101, "channel": 0}, {"type": "note_on", "time": 46, "note": 62, "velocity": 111, "channel": 0}, {"type": "note_off", "time": 67, "note": 62, "velocity": 111, "channel": 0}, {"type": "note_on", "time": 0, "note": 60, "velocity": 106, "channel": 0}, {"type": "note_on", "time": 100, "note": 59, "velocity": 97, "channel": 0}, {"type": "note_off", "time": 0, "note": 60, "velocity": 106, "channel": 0}, {"type": "note_off", "time": 80, "note": 59, "velocity": 97, "channel": 0}, {"type": "note_on", "time": 0, "note": 60, "velocity": 99, "channel": 0}, {"type": "note_off", "time": 104, "note": 60, "velocity": 99, "channel": 0}, {"type": "note_on", "time": 16, "note": 63, "velocity": 118, "channel": 0}, {"type": "note_off", "time": 70, "note": 63, "velocity": 118, "channel": 0}, {"type": "note_on", "time": 20, "note": 62, "velocity": 113, "channel": 0}, {"type": "note_off", "time": 83, "note": 62, "velocity": 113, "channel": 0}, {"type": "note_on", "time": 13, "note": 61, "velocity": 110, "channel": 0}, {"type": "note_off", "time": 83, "note": 61, "velocity": 110, "channel": 0}, {"type": "note_on", "time": 0, "note": 62, "velocity": 111, "channel": 0}, {"type": "note_off", "time": 90, "note": 62, "velocity": 111, "channel": 0}, {"type": "note_on", "time": 36, "note": 65, "velocity": 110, "channel": 0}, {"type": "note_off", "time": 90, "note": 65, "velocity": 110, "channel": 0}, {"type": "note_on", "time": 10, "note": 63, "velocity": 115, "channel": 0}, {"type": "note_off", "time": 70, "note": 63, "velocity": 115, "channel": 0}, {"type": "note_on", "time": 10, "note": 62, "velocity": 111, "channel": 0}, {"type": "note_off", "time": 77, "note": 62, "velocity": 111, "channel": 0}, {"type": "note_on", "time": 13, "note": 63, "velocity": 115, "channel": 0}, {"type": "note_off", "time": 70, "note": 63, "velocity": 115, "channel": 0}, {"type": "note_on", "time": 46, "note": 67, "velocity": 113, "channel": 0}, {"type": "note_off", "time": 73, "note": 67, "velocity": 113, "channel": 0}, {"type": "note_on", "time": 20, "note": 65, "velocity": 109, "channel": 0}, {"type": "note_on", "time": 161, "note": 67, "velocity": 106, "channel": 0}, {"type": "note_off", "time": 0, "note": 65, "velocity": 109, "channel": 0}, {"type": "note_off", "time": 87, "note": 67, "velocity": 106, "channel": 0}, {"type": "note_on", "time": 33, "note": 63, "velocity": 111, "channel": 0}, {"type": "note_off", "time": 275, "note": 63, "velocity": 111, "channel": 0}, {"type": "note_on", "time": 665, "note": 69, "velocity": 115, "channel": 0}, {"type": "note_off", "time": 73, "note": 69, "velocity": 115, "channel": 0}, {"type": "note_on", "time": 7, "note": 72, "velocity": 124, "channel": 0}, {"type": "note_off", "time": 419, "note": 72, "velocity": 124, "channel": 0}, {"type": "note_on", "time": 19, "note": 71, "velocity": 114, "channel": 0}, {"type": "note_off", "time": 73, "note": 71, "velocity": 114, "channel": 0}, {"type": "note_on", "time": 0, "note": 70, "velocity": 120, "channel": 0}, {"type": "note_off", "time": 63, "note": 70, "velocity": 120, "channel": 0}, {"type": "note_on", "time": 8, "note": 68, "velocity": 120, "channel": 0}, {"type": "note_off", "time": 87, "note": 68, "velocity": 120, "channel": 0}, {"type": "note_on", "time": 28, "note": 63, "velocity": 116, "channel": 0}, {"type": "note_off", "time": 90, "note": 63, "velocity": 116, "channel": 0}, {"type": "note_on", "time": 3, "note": 64, "velocity": 118, "channel": 0}, {"type": "note_off", "time": 100, "note": 64, "velocity": 118, "channel": 0}, {"type": "note_on", "time": 0, "note": 67, "velocity": 118, "channel": 0}, {"type": "note_off", "time": 77, "note": 67, "velocity": 118, "channel": 0}, {"type": "note_on", "time": 6, "note": 65, "velocity": 109, "channel": 0}, {"type": "note_off", "time": 70, "note": 65, "velocity": 109, "channel": 0}, {"type": "note_on", "time": 10, "note": 67, "velocity": 110, "channel": 0}, {"type": "note_off", "time": 90, "note": 67, "velocity": 110, "channel": 0}, {"type": "note_on", "time": 6, "note": 68, "velocity": 118, "channel": 0}, {"type": "note_off", "time": 87, "note": 68, "velocity": 118, "channel": 0}, {"type": "note_on", "time": 6, "note": 70, "velocity": 111, "channel": 0}, {"type": "note_on", "time": 90, "note": 67, "velocity": 110, "channel": 0}, {"type": "note_off", "time": 0, "note": 70, "velocity": 111, "channel": 0}, {"type": "note_off", "time": 97, "note": 67, "velocity": 110, "channel": 0}, {"type": "note_on", "time": 13, "note": 65, "velocity": 110, "channel": 0}, {"type": "note_off", "time": 60, "note": 65, "velocity": 110, "channel": 0}, {"type": "note_on", "time": 0, "note": 63, "velocity": 114, "channel": 0}, {"type": "note_off", "time": 130, "note": 63, "velocity": 114, "channel": 0}, {"type": "note_on", "time": 0, "note": 60, "velocity": 99, "channel": 0}, {"type": "note_off", "time": 77, "note": 60, "velocity": 99, "channel": 0}, {"type": "note_on", "time": 16, "note": 62, "velocity": 111, "channel": 0}, {"type": "note_off", "time": 620, "note": 62, "velocity": 111, "channel": 0}, {"type": "note_on", "time": 13, "note": 60, "velocity": 104, "channel": 0}, {"type": "note_off", "time": 90, "note": 60, "velocity": 104, "channel": 0}, {"type": "note_on", "time": 3, "note": 62, "velocity": 115, "channel": 0}, {"type": "note_off", "time": 171, "note": 62, "velocity": 115, "channel": 0}, {"type": "note_on", "time": 13, "note": 57, "velocity": 103, "channel": 0}, {"type": "note_off", "time": 147, "note": 57, "velocity": 103, "channel": 0}, {"type": "note_on", "time": 563, "note": 54, "velocity": 107, "channel": 0}, {"type": "note_off", "time": 83, "note": 54, "velocity": 107, "channel": 0}, {"type": "note_on", "time": 3, "note": 56, "velocity": 107, "channel": 0}, {"type": "note_off", "time": 67, "note": 56, "velocity": 107, "channel": 0}, {"type": "note_on", "time": 10, "note": 58, "velocity": 106, "channel": 0}, {"type": "note_off", "time": 83, "note": 58, "velocity": 106, "channel": 0}, {"type": "note_on", "time": 3, "note": 60, "velocity": 111, "channel": 0}, {"type": "note_off", "time": 87, "note": 60, "velocity": 111, "channel": 0}, {"type": "note_on", "time": 13, "note": 63, "velocity": 112, "channel": 0}, {"type": "note_off", "time": 93, "note": 63, "velocity": 112, "channel": 0}, {"type": "note_on", "time": 10, "note": 66, "velocity": 101, "channel": 0}, {"type": "note_off", "time": 83, "note": 66, "velocity": 101, "channel": 0}, {"type": "note_on", "time": 6, "note": 68, "velocity": 110, "channel": 0}, {"type": "note_off", "time": 60, "note": 68, "velocity": 110, "channel": 0}, {"type": "note_on", "time": 0, "note": 70, "velocity": 122, "channel": 0}, {"type": "note_off", "time": 416, "note": 70, "velocity": 122, "channel": 0}, {"type": "note_on", "time": 88, "note": 55, "velocity": 107, "channel": 0}, {"type": "note_off", "time": 45, "note": 55, "velocity": 107, "channel": 0}, {"type": "note_on", "time": 5, "note": 57, "velocity": 105, "channel": 0}, {"type": "note_off", "time": 48, "note": 57, "velocity": 105, "channel": 0}, {"type": "note_on", "time": 18, "note": 59, "velocity": 100, "channel": 0}, {"type": "note_off", "time": 50, "note": 59, "velocity": 100, "channel": 0}, {"type": "note_on", "time": 9, "note": 61, "velocity": 106, "channel": 0}, {"type": "note_off", "time": 43, "note": 61, "velocity": 106, "channel": 0}, {"type": "note_on", "time": 10, "note": 63, "velocity": 116, "channel": 0}, {"type": "note_off", "time": 54, "note": 63, "velocity": 116, "channel": 0}, {"type": "note_on", "time": 9, "note": 67, "velocity": 111, "channel": 0}, {"type": "note_off", "time": 79, "note": 67, "velocity": 111, "channel": 0}, {"type": "note_on", "time": 10, "note": 69, "velocity": 117, "channel": 0}, {"type": "note_off", "time": 51, "note": 69, "velocity": 117, "channel": 0}, {"type": "note_on", "time": 9, "note": 70, "velocity": 115, "channel": 0}, {"type": "note_off", "time": 503, "note": 70, "velocity": 115, "channel": 0}, {"type": "note_on", "time": 1, "note": 68, "velocity": 113, "channel": 0}, {"type": "note_off", "time": 70, "note": 68, "velocity": 113, "channel": 0}, {"type": "note_on", "time": 20, "note": 67, "velocity": 111, "channel": 0}, {"type": "note_off", "time": 110, "note": 67, "velocity": 111, "channel": 0}, {"type": "note_on", "time": 2, "note": 63, "velocity": 113, "channel": 0}, {"type": "note_off", "time": 119, "note": 63, "velocity": 113, "channel": 0}, {"type": "note_on", "time": 462, "note": 69, "velocity": 107, "channel": 0}, {"type": "note_off", "time": 53, "note": 69, "velocity": 107, "channel": 0}, {"type": "note_on", "time": 12, "note": 71, "velocity": 120, "channel": 0}, {"type": "note_off", "time": 248, "note": 71, "velocity": 120, "channel": 0}, {"type": "note_on", "time": 124, "note": 71, "velocity": 119, "channel": 0}, {"type": "note_off", "time": 110, "note": 71, "velocity": 119, "channel": 0}, {"type": "note_on", "time": 40, "note": 67, "velocity": 108, "channel": 0}, {"type": "note_off", "time": 44, "note": 67, "velocity": 108, "channel": 0}, {"type": "note_on", "time": 12, "note": 69, "velocity": 116, "channel": 0}, {"type": "note_off", "time": 83, "note": 69, "velocity": 116, "channel": 0}, {"type": "note_on", "time": 9, "note": 71, "velocity": 120, "channel": 0}, {"type": "note_off", "time": 90, "note": 71, "velocity": 120, "channel": 0}, {"type": "note_on", "time": 6, "note": 69, "velocity": 113, "channel": 0}, {"type": "note_off", "time": 95, "note": 69, "velocity": 113, "channel": 0}, {"type": "note_on", "time": 14, "note": 65, "velocity": 103, "channel": 0}, {"type": "note_off", "time": 52, "note": 65, "velocity": 103, "channel": 0}, {"type": "note_on", "time": 12, "note": 67, "velocity": 111, "channel": 0}, {"type": "note_off", "time": 67, "note": 67, "velocity": 111, "channel": 0}, {"type": "note_on", "time": 47, "note": 69, "velocity": 117, "channel": 0}, {"type": "note_off", "time": 71, "note": 69, "velocity": 117, "channel": 0}, {"type": "note_on", "time": 15, "note": 67, "velocity": 112, "channel": 0}, {"type": "note_off", "time": 83, "note": 67, "velocity": 112, "channel": 0}, {"type": "note_on", "time": 15, "note": 63, "velocity": 112, "channel": 0}, {"type": "note_off", "time": 73, "note": 63, "velocity": 112, "channel": 0}, {"type": "note_on", "time": 6, "note": 65, "velocity": 109, "channel": 0}, {"type": "note_off", "time": 63, "note": 65, "velocity": 109, "channel": 0}, {"type": "note_on", "time": 38, "note": 67, "velocity": 113, "channel": 0}, {"type": "note_off", "time": 83, "note": 67, "velocity": 113, "channel": 0}, {"type": "note_on", "time": 10, "note": 65, "velocity": 107, "channel": 0}, {"type": "note_off", "time": 333, "note": 65, "velocity": 107, "channel": 0}, {"type": "note_on", "time": 35, "note": 63, "velocity": 110, "channel": 0}, {"type": "note_off", "time": 37, "note": 63, "velocity": 110, "channel": 0}, {"type": "note_on", "time": 5, "note": 65, "velocity": 110, "channel": 0}, {"type": "note_off", "time": 37, "note": 65, "velocity": 110, "channel": 0}, {"type": "note_on", "time": 7, "note": 63, "velocity": 106, "channel": 0}, {"type": "note_off", "time": 43, "note": 63, "velocity": 106, "channel": 0}, {"type": "note_on", "time": 12, "note": 65, "velocity": 111, "channel": 0}, {"type": "note_off", "time": 60, "note": 65, "velocity": 111, "channel": 0}, {"type": "note_on", "time": 20, "note": 63, "velocity": 120, "channel": 0}, {"type": "note_off", "time": 90, "note": 63, "velocity": 120, "channel": 0}, {"type": "note_on", "time": 3, "note": 60, "velocity": 108, "channel": 0}, {"type": "note_off", "time": 38, "note": 60, "velocity": 108, "channel": 0}, {"type": "note_on", "time": 16, "note": 63, "velocity": 120, "channel": 0}, {"type": "note_off", "time": 65, "note": 63, "velocity": 120, "channel": 0}, {"type": "note_on", "time": 11, "note": 66, "velocity": 111, "channel": 0}, {"type": "note_off", "time": 63, "note": 66, "velocity": 111, "channel": 0}, {"type": "note_on", "time": 10, "note": 65, "velocity": 113, "channel": 0}, {"type": "note_on", "time": 40, "note": 63, "velocity": 116, "channel": 0}, {"type": "note_off", "time": 0, "note": 65, "velocity": 113, "channel": 0}, {"type": "note_off", "time": 43, "note": 63, "velocity": 116, "channel": 0}, {"type": "note_on", "time": 11, "note": 65, "velocity": 113, "channel": 0}, {"type": "note_off", "time": 41, "note": 65, "velocity": 113, "channel": 0}, {"type": "note_on", "time": 13, "note": 67, "velocity": 118, "channel": 0}, {"type": "note_off", "time": 60, "note": 67, "velocity": 118, "channel": 0}, {"type": "note_on", "time": 4, "note": 66, "velocity": 116, "channel": 0}, {"type": "note_off", "time": 42, "note": 66, "velocity": 116, "channel": 0}, {"type": "note_on", "time": 13, "note": 64, "velocity": 116, "channel": 0}, {"type": "note_off", "time": 43, "note": 64, "velocity": 116, "channel": 0}, {"type": "note_on", "time": 10, "note": 67, "velocity": 111, "channel": 0}, {"type": "note_off", "time": 50, "note": 67, "velocity": 111, "channel": 0}, {"type": "note_on", "time": 22, "note": 72, "velocity": 120, "channel": 0}, {"type": "note_off", "time": 53, "note": 72, "velocity": 120, "channel": 0}, {"type": "note_on", "time": 10, "note": 71, "velocity": 122, "channel": 0}, {"type": "note_off", "time": 90, "note": 71, "velocity": 122, "channel": 0}, {"type": "note_on", "time": 9, "note": 70, "velocity": 116, "channel": 0}, {"type": "note_off", "time": 187, "note": 70, "velocity": 116, "channel": 0}, {"type": "note_on", "time": 520, "note": 70, "velocity": 112, "channel": 0}, {"type": "note_off", "time": 49, "note": 70, "velocity": 112, "channel": 0}, {"type": "note_on", "time": 9, "note": 72, "velocity": 117, "channel": 0}, {"type": "note_off", "time": 211, "note": 72, "velocity": 117, "channel": 0}, {"type": "note_on", "time": 31, "note": 67, "velocity": 111, "channel": 0}, {"type": "note_off", "time": 93, "note": 67, "velocity": 111, "channel": 0}, {"type": "note_on", "time": 10, "note": 70, "velocity": 111, "channel": 0}, {"type": "note_off", "time": 83, "note": 70, "velocity": 111, "channel": 0}, {"type": "note_on", "time": 1, "note": 68, "velocity": 112, "channel": 0}, {"type": "note_off", "time": 93, "note": 68, "velocity": 112, "channel": 0}, {"type": "note_on", "time": 11, "note": 63, "velocity": 114, "channel": 0}, {"type": "note_off", "time": 87, "note": 63, "velocity": 114, "channel": 0}, {"type": "note_on", "time": 3, "note": 64, "velocity": 116, "channel": 0}, {"type": "note_off", "time": 127, "note": 64, "velocity": 116, "channel": 0}, {"type": "note_on", "time": 2, "note": 67, "velocity": 115, "channel": 0}, {"type": "note_off", "time": 62, "note": 67, "velocity": 115, "channel": 0}, {"type": "note_on", "time": 15, "note": 65, "velocity": 105, "channel": 0}, {"type": "note_off", "time": 80, "note": 65, "velocity": 105, "channel": 0}, {"type": "note_on", "time": 23, "note": 60, "velocity": 111, "channel": 0}, {"type": "note_off", "time": 83, "note": 60, "velocity": 111, "channel": 0}, {"type": "note_on", "time": 3, "note": 58, "velocity": 108, "channel": 0}, {"type": "note_off", "time": 80, "note": 58, "velocity": 108, "channel": 0}, {"type": "note_on", "time": 10, "note": 56, "velocity": 109, "channel": 0}, {"type": "note_off", "time": 83, "note": 56, "velocity": 109, "channel": 0}, {"type": "note_on", "time": 13, "note": 55, "velocity": 112, "channel": 0}, {"type": "note_off", "time": 97, "note": 55, "velocity": 112, "channel": 0}, {"type": "note_on", "time": 10, "note": 57, "velocity": 106, "channel": 0}, {"type": "note_off", "time": 83, "note": 57, "velocity": 106, "channel": 0}, {"type": "note_on", "time": 13, "note": 59, "velocity": 106, "channel": 0}, {"type": "note_off", "time": 60, "note": 59, "velocity": 106, "channel": 0}, {"type": "note_on", "time": 36, "note": 62, "velocity": 112, "channel": 0}, {"type": "note_off", "time": 80, "note": 62, "velocity": 112, "channel": 0}, {"type": "note_on", "time": 10, "note": 60, "velocity": 109, "channel": 0}, {"type": "note_off", "time": 93, "note": 60, "velocity": 109, "channel": 0}, {"type": "note_on", "time": 0, "note": 62, "velocity": 110, "channel": 0}, {"type": "note_off", "time": 107, "note": 62, "velocity": 110, "channel": 0}, {"type": "note_on", "time": 20, "note": 63, "velocity": 103, "channel": 0}, {"type": "note_off", "time": 90, "note": 63, "velocity": 103, "channel": 0}, {"type": "note_on", "time": 10, "note": 65, "velocity": 102, "channel": 0}, {"type": "note_off", "time": 53, "note": 65, "velocity": 102, "channel": 0}, {"type": "note_on", "time": 13, "note": 67, "velocity": 111, "channel": 0}, {"type": "note_off", "time": 120, "note": 67, "velocity": 111, "channel": 0}, {"type": "note_on", "time": 36, "note": 62, "velocity": 113, "channel": 0}, {"type": "note_off", "time": 87, "note": 62, "velocity": 113, "channel": 0}, {"type": "note_on", "time": 6, "note": 65, "velocity": 109, "channel": 0}, {"type": "note_off", "time": 104, "note": 65, "velocity": 109, "channel": 0}, {"type": "note_on", "time": 14, "note": 63, "velocity": 123, "channel": 0}, {"type": "note_off", "time": 53, "note": 63, "velocity": 123, "channel": 0}, {"type": "note_on", "time": 40, "note": 60, "velocity": 112, "channel": 0}, {"type": "note_off", "time": 73, "note": 60, "velocity": 112, "channel": 0}, {"type": "note_on", "time": 11, "note": 55, "velocity": 100, "channel": 0}, {"type": "note_off", "time": 69, "note": 55, "velocity": 100, "channel": 0}, {"type": "note_on", "time": 50, "note": 54, "velocity": 112, "channel": 0}, {"type": "note_off", "time": 67, "note": 54, "velocity": 112, "channel": 0}, {"type": "note_on", "time": 9, "note": 56, "velocity": 108, "channel": 0}, {"type": "note_off", "time": 83, "note": 56, "velocity": 108, "channel": 0}, {"type": "note_on", "time": 7, "note": 58, "velocity": 102, "channel": 0}, {"type": "note_off", "time": 50, "note": 58, "velocity": 102, "channel": 0}, {"type": "note_on", "time": 6, "note": 60, "velocity": 108, "channel": 0}, {"type": "note_off", "time": 50, "note": 60, "velocity": 108, "channel": 0}, {"type": "note_on", "time": 12, "note": 63, "velocity": 117, "channel": 0}, {"type": "note_off", "time": 64, "note": 63, "velocity": 117, "channel": 0}, {"type": "note_on", "time": 3, "note": 66, "velocity": 106, "channel": 0}, {"type": "note_off", "time": 34, "note": 66, "velocity": 106, "channel": 0}, {"type": "note_on", "time": 4, "note": 68, "velocity": 117, "channel": 0}, {"type": "note_off", "time": 52, "note": 68, "velocity": 117, "channel": 0}, {"type": "note_on", "time": 7, "note": 70, "velocity": 121, "channel": 0}, {"type": "note_off", "time": 165, "note": 70, "velocity": 121, "channel": 0}, {"type": "note_on", "time": 37, "note": 58, "velocity": 107, "channel": 0}, {"type": "note_off", "time": 46, "note": 58, "velocity": 107, "channel": 0}, {"type": "note_on", "time": 6, "note": 59, "velocity": 108, "channel": 0}, {"type": "note_off", "time": 60, "note": 59, "velocity": 108, "channel": 0}, {"type": "note_on", "time": 6, "note": 61, "velocity": 113, "channel": 0}, {"type": "note_off", "time": 60, "note": 61, "velocity": 113, "channel": 0}, {"type": "note_on", "time": 5, "note": 63, "velocity": 106, "channel": 0}, {"type": "note_off", "time": 45, "note": 63, "velocity": 106, "channel": 0}, {"type": "note_on", "time": 28, "note": 67, "velocity": 101, "channel": 0}, {"type": "note_off", "time": 54, "note": 67, "velocity": 101, "channel": 0}, {"type": "note_on", "time": 28, "note": 71, "velocity": 109, "channel": 0}, {"type": "note_off", "time": 27, "note": 71, "velocity": 109, "channel": 0}, {"type": "note_on", "time": 26, "note": 75, "velocity": 122, "channel": 0}, {"type": "note_off", "time": 375, "note": 75, "velocity": 122, "channel": 0}, {"type": "note_on", "time": 88, "note": 74, "velocity": 114, "channel": 0}, {"type": "note_off", "time": 61, "note": 74, "velocity": 114, "channel": 0}, {"type": "note_on", "time": 9, "note": 72, "velocity": 108, "channel": 0}, {"type": "note_off", "time": 52, "note": 72, "velocity": 108, "channel": 0}, {"type": "note_on", "time": 14, "note": 71, "velocity": 102, "channel": 0}, {"type": "note_off", "time": 53, "note": 71, "velocity": 102, "channel": 0}, {"type": "note_on", "time": 28, "note": 67, "velocity": 112, "channel": 0}, {"type": "note_off", "time": 114, "note": 67, "velocity": 112, "channel": 0}, {"type": "note_on", "time": 3, "note": 69, "velocity": 113, "channel": 0}, {"type": "note_off", "time": 302, "note": 69, "velocity": 113, "channel": 0}, {"type": "note_on", "time": 1039, "note": 77, "velocity": 106, "channel": 0}, {"type": "note_off", "time": 31, "note": 77, "velocity": 106, "channel": 0}, {"type": "note_on", "time": 3, "note": 79, "velocity": 125, "channel": 0}, {"type": "note_off", "time": 477, "note": 79, "velocity": 125, "channel": 0}, {"type": "note_on", "time": 82, "note": 77, "velocity": 110, "channel": 0}, {"type": "note_off", "time": 63, "note": 77, "velocity": 110, "channel": 0}, {"type": "note_on", "time": 10, "note": 75, "velocity": 114, "channel": 0}, {"type": "note_off", "time": 104, "note": 75, "velocity": 114, "channel": 0}, {"type": "note_on", "time": 89, "note": 67, "velocity": 107, "channel": 0}, {"type": "note_off", "time": 35, "note": 67, "velocity": 107, "channel": 0}, {"type": "note_on", "time": 2, "note": 69, "velocity": 116, "channel": 0}, {"type": "note_off", "time": 73, "note": 69, "velocity": 116, "channel": 0}, {"type": "note_on", "time": 23, "note": 74, "velocity": 111, "channel": 0}, {"type": "note_off", "time": 359, "note": 74, "velocity": 111, "channel": 0}, {"type": "note_on", "time": 10, "note": 73, "velocity": 115, "channel": 0}, {"type": "note_off", "time": 67, "note": 73, "velocity": 115, "channel": 0}, {"type": "note_on", "time": 0, "note": 71, "velocity": 116, "channel": 0}, {"type": "note_off", "time": 114, "note": 71, "velocity": 116, "channel": 0}, {"type": "note_on", "time": 16, "note": 67, "velocity": 109, "channel": 0}, {"type": "note_off", "time": 87, "note": 67, "velocity": 109, "channel": 0}, {"type": "note_on", "time": 3, "note": 69, "velocity": 107, "channel": 0}, {"type": "note_off", "time": 57, "note": 69, "velocity": 107, "channel": 0}, {"type": "note_on", "time": 6, "note": 71, "velocity": 117, "channel": 0}, {"type": "note_off", "time": 57, "note": 71, "velocity": 117, "channel": 0}, {"type": "note_on", "time": 26, "note": 67, "velocity": 114, "channel": 0}, {"type": "note_off", "time": 80, "note": 67, "velocity": 114, "channel": 0}, {"type": "note_on", "time": 31, "note": 63, "velocity": 114, "channel": 0}, {"type": "note_off", "time": 148, "note": 63, "velocity": 114, "channel": 0}, {"type": "note_on", "time": 401, "note": 70, "velocity": 100, "channel": 0}, {"type": "note_off", "time": 67, "note": 70, "velocity": 100, "channel": 0}, {"type": "note_on", "time": 6, "note": 73, "velocity": 110, "channel": 0}, {"type": "note_off", "time": 218, "note": 73, "velocity": 110, "channel": 0}, {"type": "note_on", "time": 10, "note": 72, "velocity": 115, "channel": 0}, {"type": "note_off", "time": 443, "note": 72, "velocity": 115, "channel": 0}, {"type": "note_on", "time": 20, "note": 70, "velocity": 109, "channel": 0}, {"type": "note_off", "time": 80, "note": 70, "velocity": 109, "channel": 0}, {"type": "note_on", "time": 6, "note": 68, "velocity": 110, "channel": 0}, {"type": "note_off", "time": 100, "note": 68, "velocity": 110, "channel": 0}, {"type": "note_on", "time": 10, "note": 63, "velocity": 107, "channel": 0}, {"type": "note_off", "time": 63, "note": 63, "velocity": 107, "channel": 0}, {"type": "note_on", "time": 12, "note": 64, "velocity": 108, "channel": 0}, {"type": "note_off", "time": 108, "note": 64, "velocity": 108, "channel": 0}, {"type": "note_on", "time": 7, "note": 67, "velocity": 114, "channel": 0}, {"type": "note_off", "time": 77, "note": 67, "velocity": 114, "channel": 0}, {"type": "note_on", "time": 15, "note": 65, "velocity": 105, "channel": 0}, {"type": "note_off", "time": 69, "note": 65, "velocity": 105, "channel": 0}, {"type": "note_on", "time": 5, "note": 67, "velocity": 112, "channel": 0}, {"type": "note_off", "time": 100, "note": 67, "velocity": 112, "channel": 0}, {"type": "note_on", "time": 21, "note": 68, "velocity": 111, "channel": 0}, {"type": "note_off", "time": 85, "note": 68, "velocity": 111, "channel": 0}, {"type": "note_on", "time": 23, "note": 65, "velocity": 95, "channel": 0}, {"type": "note_off", "time": 36, "note": 65, "velocity": 95, "channel": 0}, {"type": "note_on", "time": 27, "note": 70, "velocity": 111, "channel": 0}, {"type": "note_off", "time": 283, "note": 70, "velocity": 111, "channel": 0}, {"type": "note_on", "time": 32, "note": 68, "velocity": 112, "channel": 0}, {"type": "note_off", "time": 83, "note": 68, "velocity": 112, "channel": 0}, {"type": "note_on", "time": 16, "note": 67, "velocity": 108, "channel": 0}, {"type": "note_off", "time": 73, "note": 67, "velocity": 108, "channel": 0}, {"type": "note_on", "time": 13, "note": 63, "velocity": 120, "channel": 0}, {"type": "note_off", "time": 63, "note": 63, "velocity": 120, "channel": 0}, {"type": "note_on", "time": 13, "note": 62, "velocity": 110, "channel": 0}, {"type": "note_off", "time": 90, "note": 62, "velocity": 110, "channel": 0}, {"type": "note_on", "time": 3, "note": 65, "velocity": 107, "channel": 0}, {"type": "note_off", "time": 80, "note": 65, "velocity": 107, "channel": 0}, {"type": "note_on", "time": 4, "note": 63, "velocity": 115, "channel": 0}, {"type": "note_off", "time": 104, "note": 63, "velocity": 115, "channel": 0}, {"type": "note_on", "time": 14, "note": 60, "velocity": 107, "channel": 0}, {"type": "note_off", "time": 68, "note": 60, "velocity": 107, "channel": 0}, {"type": "note_on", "time": 17, "note": 59, "velocity": 104, "channel": 0}, {"type": "note_off", "time": 72, "note": 59, "velocity": 104, "channel": 0}, {"type": "note_on", "time": 20, "note": 62, "velocity": 111, "channel": 0}, {"type": "note_off", "time": 60, "note": 62, "velocity": 111, "channel": 0}, {"type": "note_on", "time": 8, "note": 60, "velocity": 103, "channel": 0}, {"type": "note_off", "time": 110, "note": 60, "velocity": 103, "channel": 0}, {"type": "note_on", "time": 11, "note": 55, "velocity": 104, "channel": 0}, {"type": "note_off", "time": 83, "note": 55, "velocity": 104, "channel": 0}, {"type": "note_on", "time": 0, "note": 53, "velocity": 104, "channel": 0}, {"type": "note_off", "time": 100, "note": 53, "velocity": 104, "channel": 0}, {"type": "note_on", "time": 13, "note": 51, "velocity": 100, "channel": 0}, {"type": "note_off", "time": 75, "note": 51, "velocity": 100, "channel": 0}, {"type": "note_on", "time": 0, "note": 55, "velocity": 96, "channel": 0}, {"type": "note_off", "time": 246, "note": 55, "velocity": 96, "channel": 0}, {"type": "note_on", "time": 60, "note": 51, "velocity": 91, "channel": 0}, {"type": "note_off", "time": 70, "note": 51, "velocity": 91, "channel": 0}, {"type": "note_on", "time": 2, "note": 54, "velocity": 97, "channel": 0}, {"type": "note_off", "time": 161, "note": 54, "velocity": 97, "channel": 0}, {"type": "note_on", "time": 156, "note": 56, "velocity": 110, "channel": 0}, {"type": "note_off", "time": 70, "note": 56, "velocity": 110, "channel": 0}, {"type": "note_on", "time": 3, "note": 58, "velocity": 108, "channel": 0}, {"type": "note_off", "time": 50, "note": 58, "velocity": 108, "channel": 0}, {"type": "note_on", "time": 7, "note": 60, "velocity": 104, "channel": 0}, {"type": "note_off", "time": 53, "note": 60, "velocity": 104, "channel": 0}, {"type": "note_on", "time": 13, "note": 63, "velocity": 116, "channel": 0}, {"type": "note_off", "time": 60, "note": 63, "velocity": 116, "channel": 0}, {"type": "note_on", "time": 5, "note": 68, "velocity": 114, "channel": 0}, {"type": "note_off", "time": 40, "note": 68, "velocity": 114, "channel": 0}, {"type": "note_on", "time": 28, "note": 70, "velocity": 112, "channel": 0}, {"type": "note_off", "time": 73, "note": 70, "velocity": 112, "channel": 0}, {"type": "note_on", "time": 127, "note": 58, "velocity": 90, "channel": 0}, {"type": "note_off", "time": 80, "note": 58, "velocity": 90, "channel": 0}, {"type": "note_on", "time": 161, "note": 59, "velocity": 100, "channel": 0}, {"type": "note_off", "time": 67, "note": 59, "velocity": 100, "channel": 0}, {"type": "note_on", "time": 6, "note": 67, "velocity": 111, "channel": 0}, {"type": "note_off", "time": 97, "note": 67, "velocity": 111, "channel": 0}, {"type": "note_on", "time": 10, "note": 62, "velocity": 109, "channel": 0}, {"type": "note_off", "time": 57, "note": 62, "velocity": 109, "channel": 0}, {"type": "note_on", "time": 3, "note": 59, "velocity": 101, "channel": 0}, {"type": "note_off", "time": 70, "note": 59, "velocity": 101, "channel": 0}, {"type": "note_on", "time": 23, "note": 56, "velocity": 89, "channel": 0}, {"type": "note_off", "time": 83, "note": 56, "velocity": 89, "channel": 0}, {"type": "note_on", "time": 3, "note": 62, "velocity": 110, "channel": 0}, {"type": "note_off", "time": 298, "note": 62, "velocity": 110, "channel": 0}, {"type": "note_on", "time": 7, "note": 60, "velocity": 98, "channel": 0}, {"type": "note_off", "time": 41, "note": 60, "velocity": 98, "channel": 0}, {"type": "note_on", "time": 9, "note": 62, "velocity": 110, "channel": 0}, {"type": "note_off", "time": 112, "note": 62, "velocity": 110, "channel": 0}, {"type": "note_on", "time": 10, "note": 63, "velocity": 114, "channel": 0}, {"type": "note_off", "time": 193, "note": 63, "velocity": 114, "channel": 0}, {"type": "note_on", "time": 951, "note": 60, "velocity": 113, "channel": 0}, {"type": "note_off", "time": 53, "note": 60, "velocity": 113, "channel": 0}, {"type": "note_on", "time": 10, "note": 59, "velocity": 105, "channel": 0}, {"type": "note_off", "time": 87, "note": 59, "velocity": 105, "channel": 0}, {"type": "note_on", "time": 3, "note": 62, "velocity": 113, "channel": 0}, {"type": "note_off", "time": 90, "note": 62, "velocity": 113, "channel": 0}, {"type": "note_on", "time": 6, "note": 60, "velocity": 104, "channel": 0}, {"type": "note_off", "time": 93, "note": 60, "velocity": 104, "channel": 0}, {"type": "note_on", "time": 19, "note": 62, "velocity": 111, "channel": 0}, {"type": "note_off", "time": 73, "note": 62, "velocity": 111, "channel": 0}, {"type": "note_on", "time": 17, "note": 63, "velocity": 100, "channel": 0}, {"type": "note_off", "time": 90, "note": 63, "velocity": 100, "channel": 0}, {"type": "note_on", "time": 23, "note": 65, "velocity": 98, "channel": 0}, {"type": "note_off", "time": 50, "note": 65, "velocity": 98, "channel": 0}, {"type": "note_on", "time": 9, "note": 67, "velocity": 112, "channel": 0}, {"type": "note_off", "time": 83, "note": 67, "velocity": 112, "channel": 0}, {"type": "note_on", "time": 6, "note": 63, "velocity": 117, "channel": 0}, {"type": "note_off", "time": 93, "note": 63, "velocity": 117, "channel": 0}, {"type": "note_on", "time": 5, "note": 60, "velocity": 111, "channel": 0}, {"type": "note_off", "time": 77, "note": 60, "velocity": 111, "channel": 0}, {"type": "note_on", "time": 78, "note": 56, "velocity": 105, "channel": 0}, {"type": "note_off", "time": 38, "note": 56, "velocity": 105, "channel": 0}, {"type": "note_on", "time": 8, "note": 65, "velocity": 107, "channel": 0}, {"type": "note_off", "time": 107, "note": 65, "velocity": 107, "channel": 0}, {"type": "note_on", "time": 6, "note": 62, "velocity": 113, "channel": 0}, {"type": "note_off", "time": 67, "note": 62, "velocity": 113, "channel": 0}, {"type": "note_on", "time": 0, "note": 59, "velocity": 103, "channel": 0}, {"type": "note_off", "time": 73, "note": 59, "velocity": 103, "channel": 0}, {"type": "note_on", "time": 46, "note": 62, "velocity": 112, "channel": 0}, {"type": "note_off", "time": 93, "note": 62, "velocity": 112, "channel": 0}, {"type": "note_on", "time": 11, "note": 60, "velocity": 103, "channel": 0}, {"type": "note_off", "time": 68, "note": 60, "velocity": 103, "channel": 0}, {"type": "note_on", "time": 20, "note": 55, "velocity": 96, "channel": 0}, {"type": "note_off", "time": 41, "note": 55, "velocity": 96, "channel": 0}, {"type": "note_on", "time": 15, "note": 57, "velocity": 97, "channel": 0}, {"type": "note_off", "time": 65, "note": 57, "velocity": 97, "channel": 0}, {"type": "note_on", "time": 15, "note": 58, "velocity": 91, "channel": 0}, {"type": "note_off", "time": 40, "note": 58, "velocity": 91, "channel": 0}, {"type": "note_on", "time": 19, "note": 59, "velocity": 103, "channel": 0}, {"type": "note_off", "time": 50, "note": 59, "velocity": 103, "channel": 0}, {"type": "note_on", "time": 15, "note": 60, "velocity": 106, "channel": 0}, {"type": "note_off", "time": 70, "note": 60, "velocity": 106, "channel": 0}, {"type": "note_on", "time": 13, "note": 62, "velocity": 109, "channel": 0}, {"type": "note_off", "time": 80, "note": 62, "velocity": 109, "channel": 0}, {"type": "note_on", "time": 10, "note": 63, "velocity": 101, "channel": 0}, {"type": "note_off", "time": 114, "note": 63, "velocity": 101, "channel": 0}, {"type": "note_on", "time": 0, "note": 65, "velocity": 98, "channel": 0}, {"type": "note_off", "time": 93, "note": 65, "velocity": 98, "channel": 0}, {"type": "note_on", "time": 0, "note": 67, "velocity": 112, "channel": 0}, {"type": "note_off", "time": 93, "note": 67, "velocity": 112, "channel": 0}, {"type": "note_on", "time": 13, "note": 60, "velocity": 91, "channel": 0}, {"type": "note_off", "time": 107, "note": 60, "velocity": 91, "channel": 0}, {"type": "note_on", "time": 40, "note": 64, "velocity": 91, "channel": 0}, {"type": "note_off", "time": 53, "note": 64, "velocity": 91, "channel": 0}, {"type": "note_on", "time": 16, "note": 67, "velocity": 101, "channel": 0}, {"type": "note_off", "time": 40, "note": 67, "velocity": 101, "channel": 0}, {"type": "note_on", "time": 46, "note": 72, "velocity": 118, "channel": 0}, {"type": "note_off", "time": 251, "note": 72, "velocity": 118, "channel": 0}, {"type": "note_on", "time": 23, "note": 70, "velocity": 115, "channel": 0}, {"type": "note_off", "time": 97, "note": 70, "velocity": 115, "channel": 0}, {"type": "note_on", "time": 5, "note": 68, "velocity": 114, "channel": 0}, {"type": "note_off", "time": 80, "note": 68, "velocity": 114, "channel": 0}, {"type": "note_on", "time": 31, "note": 65, "velocity": 90, "channel": 0}, {"type": "note_off", "time": 37, "note": 65, "velocity": 90, "channel": 0}, {"type": "note_on", "time": 134, "note": 68, "velocity": 115, "channel": 0}, {"type": "note_off", "time": 86, "note": 68, "velocity": 115, "channel": 0}, {"type": "note_on", "time": 6, "note": 70, "velocity": 110, "channel": 0}, {"type": "note_off", "time": 557, "note": 70, "velocity": 110, "channel": 0}, {"type": "note_on", "time": 40, "note": 67, "velocity": 108, "channel": 0}, {"type": "note_off", "time": 77, "note": 67, "velocity": 108, "channel": 0}, {"type": "note_on", "time": 7, "note": 68, "velocity": 104, "channel": 0}, {"type": "note_off", "time": 87, "note": 68, "velocity": 104, "channel": 0}, {"type": "note_on", "time": 10, "note": 67, "velocity": 104, "channel": 0}, {"type": "note_off", "time": 48, "note": 67, "velocity": 104, "channel": 0}, {"type": "note_on", "time": 36, "note": 63, "velocity": 114, "channel": 0}, {"type": "note_off", "time": 83, "note": 63, "velocity": 114, "channel": 0}, {"type": "note_on", "time": 1, "note": 59, "velocity": 106, "channel": 0}, {"type": "note_off", "time": 87, "note": 59, "velocity": 106, "channel": 0}, {"type": "note_on", "time": 25, "note": 56, "velocity": 109, "channel": 0}, {"type": "note_off", "time": 77, "note": 56, "velocity": 109, "channel": 0}, {"type": "note_on", "time": 2, "note": 55, "velocity": 95, "channel": 0}, {"type": "note_off", "time": 88, "note": 55, "velocity": 95, "channel": 0}, {"type": "note_on", "time": 9, "note": 57, "velocity": 107, "channel": 0}, {"type": "note_off", "time": 83, "note": 57, "velocity": 107, "channel": 0}, {"type": "note_on", "time": 7, "note": 59, "velocity": 100, "channel": 0}, {"type": "note_off", "time": 83, "note": 59, "velocity": 100, "channel": 0}, {"type": "note_on", "time": 0, "note": 62, "velocity": 107, "channel": 0}, {"type": "note_off", "time": 97, "note": 62, "velocity": 107, "channel": 0}, {"type": "note_on", "time": 0, "note": 60, "velocity": 105, "channel": 0}, {"type": "note_off", "time": 93, "note": 60, "velocity": 105, "channel": 0}, {"type": "note_on", "time": 6, "note": 62, "velocity": 108, "channel": 0}, {"type": "note_off", "time": 80, "note": 62, "velocity": 108, "channel": 0}, {"type": "note_on", "time": 10, "note": 63, "velocity": 106, "channel": 0}, {"type": "note_off", "time": 100, "note": 63, "velocity": 106, "channel": 0}, {"type": "note_on", "time": 23, "note": 65, "velocity": 105, "channel": 0}, {"type": "note_off", "time": 63, "note": 65, "velocity": 105, "channel": 0}, {"type": "note_on", "time": 0, "note": 67, "velocity": 111, "channel": 0}, {"type": "note_off", "time": 93, "note": 67, "velocity": 111, "channel": 0}, {"type": "note_on", "time": 3, "note": 62, "velocity": 105, "channel": 0}, {"type": "note_off", "time": 77, "note": 62, "velocity": 105, "channel": 0}, {"type": "note_on", "time": 10, "note": 65, "velocity": 111, "channel": 0}, {"type": "note_off", "time": 83, "note": 65, "velocity": 111, "channel": 0}, {"type": "note_on", "time": 0, "note": 62, "velocity": 105, "channel": 0}, {"type": "note_off", "time": 77, "note": 62, "velocity": 105, "channel": 0}, {"type": "note_on", "time": 0, "note": 63, "velocity": 120, "channel": 0}, {"type": "note_off", "time": 100, "note": 63, "velocity": 120, "channel": 0}, {"type": "note_on", "time": 20, "note": 60, "velocity": 111, "channel": 0}, {"type": "note_off", "time": 97, "note": 60, "velocity": 111, "channel": 0}, {"type": "note_on", "time": 265, "note": 54, "velocity": 97, "channel": 0}, {"type": "note_off", "time": 70, "note": 54, "velocity": 97, "channel": 0}, {"type": "note_on", "time": 0, "note": 56, "velocity": 107, "channel": 0}, {"type": "note_off", "time": 57, "note": 56, "velocity": 107, "channel": 0}, {"type": "note_on", "time": 0, "note": 58, "velocity": 104, "channel": 0}, {"type": "note_off", "time": 43, "note": 58, "velocity": 104, "channel": 0}, {"type": "note_on", "time": 6, "note": 60, "velocity": 97, "channel": 0}, {"type": "note_off", "time": 46, "note": 60, "velocity": 97, "channel": 0}, {"type": "note_on", "time": 0, "note": 63, "velocity": 109, "channel": 0}, {"type": "note_off", "time": 57, "note": 63, "velocity": 109, "channel": 0}, {"type": "note_on", "time": 0, "note": 66, "velocity": 108, "channel": 0}, {"type": "note_off", "time": 57, "note": 66, "velocity": 108, "channel": 0}, {"type": "note_on", "time": 0, "note": 70, "velocity": 107, "channel": 0}, {"type": "note_off", "time": 60, "note": 70, "velocity": 107, "channel": 0}, {"type": "note_on", "time": 16, "note": 73, "velocity": 113, "channel": 0}, {"type": "note_off", "time": 130, "note": 73, "velocity": 113, "channel": 0}, {"type": "note_on", "time": 231, "note": 59, "velocity": 102, "channel": 0}, {"type": "note_off", "time": 46, "note": 59, "velocity": 102, "channel": 0}, {"type": "note_on", "time": 10, "note": 62, "velocity": 106, "channel": 0}, {"type": "note_off", "time": 83, "note": 62, "velocity": 106, "channel": 0}, {"type": "note_on", "time": 13, "note": 69, "velocity": 113, "channel": 0}, {"type": "note_off", "time": 114, "note": 69, "velocity": 113, "channel": 0}, {"type": "note_on", "time": 6, "note": 67, "velocity": 99, "channel": 0}, {"type": "note_off", "time": 70, "note": 67, "velocity": 99, "channel": 0}, {"type": "note_on", "time": 6, "note": 69, "velocity": 111, "channel": 0}, {"type": "note_off", "time": 46, "note": 69, "velocity": 111, "channel": 0}, {"type": "note_on", "time": 13, "note": 67, "velocity": 112, "channel": 0}, {"type": "note_off", "time": 63, "note": 67, "velocity": 112, "channel": 0}, {"type": "note_on", "time": 24, "note": 68, "velocity": 111, "channel": 0}, {"type": "note_off", "time": 68, "note": 68, "velocity": 111, "channel": 0}, {"type": "note_on", "time": 26, "note": 72, "velocity": 117, "channel": 0}, {"type": "note_off", "time": 57, "note": 72, "velocity": 117, "channel": 0}, {"type": "note_on", "time": 15, "note": 71, "velocity": 108, "channel": 0}, {"type": "note_off", "time": 46, "note": 71, "velocity": 108, "channel": 0}, {"type": "note_on", "time": 332, "note": 72, "velocity": 103, "channel": 0}, {"type": "note_off", "time": 93, "note": 72, "velocity": 103, "channel": 0}, {"type": "note_on", "time": 13, "note": 74, "velocity": 118, "channel": 0}, {"type": "note_off", "time": 187, "note": 74, "velocity": 118, "channel": 0}, {"type": "note_on", "time": 0, "note": 72, "velocity": 117, "channel": 0}, {"type": "note_off", "time": 60, "note": 72, "velocity": 117, "channel": 0}, {"type": "note_on", "time": 13, "note": 71, "velocity": 119, "channel": 0}, {"type": "note_off", "time": 90, "note": 71, "velocity": 119, "channel": 0}, {"type": "note_on", "time": 16, "note": 68, "velocity": 118, "channel": 0}, {"type": "note_off", "time": 73, "note": 68, "velocity": 118, "channel": 0}, {"type": "note_on", "time": 0, "note": 67, "velocity": 105, "channel": 0}, {"type": "note_off", "time": 93, "note": 67, "velocity": 105, "channel": 0}, {"type": "note_on", "time": 6, "note": 66, "velocity": 112, "channel": 0}, {"type": "note_off", "time": 77, "note": 66, "velocity": 112, "channel": 0}, {"type": "note_on", "time": 13, "note": 65, "velocity": 111, "channel": 0}, {"type": "note_off", "time": 87, "note": 65, "velocity": 111, "channel": 0}, {"type": "note_on", "time": 46, "note": 63, "velocity": 121, "channel": 0}, {"type": "note_on", "time": 67, "note": 62, "velocity": 112, "channel": 0}, {"type": "note_off", "time": 0, "note": 63, "velocity": 121, "channel": 0}, {"type": "note_off", "time": 73, "note": 62, "velocity": 112, "channel": 0}, {"type": "note_on", "time": 46, "note": 60, "velocity": 112, "channel": 0}, {"type": "note_off", "time": 93, "note": 60, "velocity": 112, "channel": 0}, {"type": "note_on", "time": 11, "note": 59, "velocity": 108, "channel": 0}, {"type": "note_off", "time": 73, "note": 59, "velocity": 108, "channel": 0}, {"type": "note_on", "time": 8, "note": 55, "velocity": 101, "channel": 0}, {"type": "note_off", "time": 80, "note": 55, "velocity": 101, "channel": 0}, {"type": "note_on", "time": 13, "note": 57, "velocity": 103, "channel": 0}, {"type": "note_off", "time": 100, "note": 57, "velocity": 103, "channel": 0}, {"type": "note_on", "time": 3, "note": 59, "velocity": 102, "channel": 0}, {"type": "note_off", "time": 67, "note": 59, "velocity": 102, "channel": 0}, {"type": "note_on", "time": 6, "note": 60, "velocity": 108, "channel": 0}, {"type": "note_off", "time": 104, "note": 60, "velocity": 108, "channel": 0}, {"type": "note_on", "time": 36, "note": 62, "velocity": 108, "channel": 0}, {"type": "note_off", "time": 100, "note": 62, "velocity": 108, "channel": 0}, {"type": "note_on", "time": 0, "note": 63, "velocity": 101, "channel": 0}, {"type": "note_off", "time": 93, "note": 63, "velocity": 101, "channel": 0}, {"type": "note_on", "time": 0, "note": 65, "velocity": 100, "channel": 0}, {"type": "note_off", "time": 67, "note": 65, "velocity": 100, "channel": 0}, {"type": "note_on", "time": 0, "note": 67, "velocity": 112, "channel": 0}, {"type": "note_off", "time": 87, "note": 67, "velocity": 112, "channel": 0}, {"type": "note_on", "time": 10, "note": 72, "velocity": 107, "channel": 0}, {"type": "note_off", "time": 90, "note": 72, "velocity": 107, "channel": 0}, {"type": "note_on", "time": 4, "note": 67, "velocity": 110, "channel": 0}, {"type": "note_off", "time": 65, "note": 67, "velocity": 110, "channel": 0}, {"type": "note_on", "time": 7, "note": 65, "velocity": 110, "channel": 0}, {"type": "note_off", "time": 325, "note": 65, "velocity": 110, "channel": 0}, {"type": "note_on", "time": 71, "note": 63, "velocity": 108, "channel": 0}, {"type": "note_off", "time": 59, "note": 63, "velocity": 108, "channel": 0}, {"type": "note_on", "time": 9, "note": 67, "velocity": 114, "channel": 0}, {"type": "note_off", "time": 72, "note": 67, "velocity": 114, "channel": 0}, {"type": "note_on", "time": 42, "note": 63, "velocity": 118, "channel": 0}, {"type": "note_off", "time": 87, "note": 63, "velocity": 118, "channel": 0}, {"type": "note_on", "time": 0, "note": 62, "velocity": 111, "channel": 0}, {"type": "note_off", "time": 97, "note": 62, "velocity": 111, "channel": 0}, {"type": "note_on", "time": 0, "note": 65, "velocity": 113, "channel": 0}, {"type": "note_off", "time": 80, "note": 65, "velocity": 113, "channel": 0}, {"type": "note_on", "time": 0, "note": 63, "velocity": 120, "channel": 0}, {"type": "note_off", "time": 90, "note": 63, "velocity": 120, "channel": 0}, {"type": "note_on", "time": 16, "note": 60, "velocity": 113, "channel": 0}, {"type": "note_off", "time": 144, "note": 60, "velocity": 113, "channel": 0}, {"type": "note_on", "time": 521, "note": 64, "velocity": 120, "channel": 0}, {"type": "note_off", "time": 100, "note": 64, "velocity": 120, "channel": 0}, {"type": "note_on", "time": 4, "note": 63, "velocity": 118, "channel": 0}, {"type": "note_off", "time": 63, "note": 63, "velocity": 118, "channel": 0}, {"type": "note_on", "time": 16, "note": 64, "velocity": 119, "channel": 0}, {"type": "note_off", "time": 85, "note": 64, "velocity": 119, "channel": 0}, {"type": "note_on", "time": 3, "note": 67, "velocity": 113, "channel": 0}, {"type": "note_off", "time": 90, "note": 67, "velocity": 113, "channel": 0}, {"type": "note_on", "time": 10, "note": 65, "velocity": 106, "channel": 0}, {"type": "note_off", "time": 83, "note": 65, "velocity": 106, "channel": 0}, {"type": "note_on", "time": 30, "note": 60, "velocity": 101, "channel": 0}, {"type": "note_off", "time": 67, "note": 60, "velocity": 101, "channel": 0}, {"type": "note_on", "time": 13, "note": 65, "velocity": 110, "channel": 0}, {"type": "note_off", "time": 97, "note": 65, "velocity": 110, "channel": 0}, {"type": "note_on", "time": 0, "note": 68, "velocity": 118, "channel": 0}, {"type": "note_off", "time": 97, "note": 68, "velocity": 118, "channel": 0}, {"type": "note_on", "time": 8, "note": 67, "velocity": 111, "channel": 0}, {"type": "note_off", "time": 79, "note": 67, "velocity": 111, "channel": 0}, {"type": "note_on", "time": 19, "note": 63, "velocity": 109, "channel": 0}, {"type": "note_off", "time": 63, "note": 63, "velocity": 109, "channel": 0}, {"type": "note_on", "time": 0, "note": 67, "velocity": 111, "channel": 0}, {"type": "note_off", "time": 93, "note": 67, "velocity": 111, "channel": 0}, {"type": "note_on", "time": 33, "note": 70, "velocity": 117, "channel": 0}, {"type": "note_on", "time": 70, "note": 68, "velocity": 115, "channel": 0}, {"type": "note_off", "time": 0, "note": 70, "velocity": 117, "channel": 0}, {"type": "note_off", "time": 117, "note": 68, "velocity": 115, "channel": 0}, {"type": "note_on", "time": 0, "note": 63, "velocity": 118, "channel": 0}, {"type": "note_off", "time": 90, "note": 63, "velocity": 118, "channel": 0}, {"type": "note_on", "time": 13, "note": 60, "velocity": 110, "channel": 0}, {"type": "note_off", "time": 80, "note": 60, "velocity": 110, "channel": 0}, {"type": "note_on", "time": 30, "note": 56, "velocity": 105, "channel": 0}, {"type": "note_off", "time": 73, "note": 56, "velocity": 105, "channel": 0}, {"type": "note_on", "time": 6, "note": 62, "velocity": 113, "channel": 0}, {"type": "note_off", "time": 80, "note": 62, "velocity": 113, "channel": 0}, {"type": "note_on", "time": 16, "note": 60, "velocity": 110, "channel": 0}, {"type": "note_off", "time": 70, "note": 60, "velocity": 110, "channel": 0}, {"type": "note_on", "time": 13, "note": 58, "velocity": 104, "channel": 0}, {"type": "note_off", "time": 100, "note": 58, "velocity": 104, "channel": 0}, {"type": "note_on", "time": 12, "note": 56, "velocity": 109, "channel": 0}, {"type": "note_off", "time": 57, "note": 56, "velocity": 109, "channel": 0}, {"type": "note_on", "time": 8, "note": 55, "velocity": 94, "channel": 0}, {"type": "note_off", "time": 55, "note": 55, "velocity": 94, "channel": 0}, {"type": "note_on", "time": 53, "note": 57, "velocity": 107, "channel": 0}, {"type": "note_off", "time": 63, "note": 57, "velocity": 107, "channel": 0}, {"type": "note_on", "time": 16, "note": 59, "velocity": 103, "channel": 0}, {"type": "note_off", "time": 80, "note": 59, "velocity": 103, "channel": 0}, {"type": "note_on", "time": 30, "note": 62, "velocity": 111, "channel": 0}, {"type": "note_off", "time": 73, "note": 62, "velocity": 111, "channel": 0}, {"type": "note_on", "time": 17, "note": 60, "velocity": 109, "channel": 0}, {"type": "note_off", "time": 73, "note": 60, "velocity": 109, "channel": 0}, {"type": "note_on", "time": 13, "note": 62, "velocity": 111, "channel": 0}, {"type": "note_off", "time": 83, "note": 62, "velocity": 111, "channel": 0}, {"type": "note_on", "time": 23, "note": 63, "velocity": 106, "channel": 0}, {"type": "note_off", "time": 83, "note": 63, "velocity": 106, "channel": 0}, {"type": "note_on", "time": 13, "note": 65, "velocity": 104, "channel": 0}, {"type": "note_off", "time": 80, "note": 65, "velocity": 104, "channel": 0}, {"type": "note_on", "time": 0, "note": 67, "velocity": 112, "channel": 0}, {"type": "note_off", "time": 77, "note": 67, "velocity": 112, "channel": 0}, {"type": "note_on", "time": 23, "note": 63, "velocity": 102, "channel": 0}, {"type": "note_off", "time": 73, "note": 63, "velocity": 102, "channel": 0}, {"type": "note_on", "time": 6, "note": 65, "velocity": 111, "channel": 0}, {"type": "note_off", "time": 117, "note": 65, "velocity": 111, "channel": 0}, {"type": "note_on", "time": 0, "note": 60, "velocity": 107, "channel": 0}, {"type": "note_off", "time": 57, "note": 60, "velocity": 107, "channel": 0}, {"type": "note_on", "time": 0, "note": 63, "velocity": 121, "channel": 0}, {"type": "note_off", "time": 100, "note": 63, "velocity": 121, "channel": 0}, {"type": "note_on", "time": 20, "note": 60, "velocity": 112, "channel": 0}, {"type": "note_off", "time": 65, "note": 60, "velocity": 112, "channel": 0}, {"type": "note_on", "time": 46, "note": 55, "velocity": 100, "channel": 0}, {"type": "note_off", "time": 73, "note": 55, "velocity": 100, "channel": 0}, {"type": "note_on", "time": 70, "note": 53, "velocity": 111, "channel": 0}, {"type": "note_off", "time": 43, "note": 53, "velocity": 111, "channel": 0}, {"type": "note_on", "time": 12, "note": 54, "velocity": 105, "channel": 0}, {"type": "note_off", "time": 52, "note": 54, "velocity": 105, "channel": 0}, {"type": "note_on", "time": 20, "note": 56, "velocity": 106, "channel": 0}, {"type": "note_off", "time": 62, "note": 56, "velocity": 106, "channel": 0}, {"type": "note_on", "time": 36, "note": 58, "velocity": 95, "channel": 0}, {"type": "note_off", "time": 83, "note": 58, "velocity": 95, "channel": 0}, {"type": "note_on", "time": 10, "note": 60, "velocity": 112, "channel": 0}, {"type": "note_off", "time": 57, "note": 60, "velocity": 112, "channel": 0}, {"type": "note_on", "time": 10, "note": 63, "velocity": 114, "channel": 0}, {"type": "note_off", "time": 57, "note": 63, "velocity": 114, "channel": 0}, {"type": "note_on", "time": 46, "note": 66, "velocity": 107, "channel": 0}, {"type": "note_off", "time": 87, "note": 66, "velocity": 107, "channel": 0}, {"type": "note_on", "time": 13, "note": 68, "velocity": 104, "channel": 0}, {"type": "note_off", "time": 97, "note": 68, "velocity": 104, "channel": 0}, {"type": "note_on", "time": 10, "note": 70, "velocity": 117, "channel": 0}, {"type": "note_on", "time": 80, "note": 71, "velocity": 114, "channel": 0}, {"type": "note_off", "time": 0, "note": 70, "velocity": 117, "channel": 0}, {"type": "note_off", "time": 110, "note": 71, "velocity": 114, "channel": 0}, {"type": "note_on", "time": 305, "note": 70, "velocity": 108, "channel": 0}, {"type": "note_off", "time": 40, "note": 70, "velocity": 108, "channel": 0}, {"type": "note_on", "time": 10, "note": 72, "velocity": 117, "channel": 0}, {"type": "note_off", "time": 20, "note": 72, "velocity": 117, "channel": 0}, {"type": "note_on", "time": 0, "note": 73, "velocity": 116, "channel": 0}, {"type": "note_off", "time": 33, "note": 73, "velocity": 116, "channel": 0}, {"type": "note_on", "time": 20, "note": 74, "velocity": 115, "channel": 0}, {"type": "note_off", "time": 157, "note": 74, "velocity": 115, "channel": 0}, {"type": "note_on", "time": 5, "note": 72, "velocity": 120, "channel": 0}, {"type": "note_off", "time": 51, "note": 72, "velocity": 120, "channel": 0}, {"type": "note_on", "time": 9, "note": 71, "velocity": 113, "channel": 0}, {"type": "note_off", "time": 57, "note": 71, "velocity": 113, "channel": 0}, {"type": "note_on", "time": 54, "note": 67, "velocity": 99, "channel": 0}, {"type": "note_off", "time": 57, "note": 67, "velocity": 99, "channel": 0}, {"type": "note_on", "time": 7, "note": 69, "velocity": 114, "channel": 0}, {"type": "note_off", "time": 81, "note": 69, "velocity": 114, "channel": 0}, {"type": "note_on", "time": 20, "note": 71, "velocity": 118, "channel": 0}, {"type": "note_off", "time": 70, "note": 71, "velocity": 118, "channel": 0}, {"type": "note_on", "time": 23, "note": 69, "velocity": 106, "channel": 0}, {"type": "note_off", "time": 73, "note": 69, "velocity": 106, "channel": 0}, {"type": "note_on", "time": 16, "note": 65, "velocity": 104, "channel": 0}, {"type": "note_off", "time": 97, "note": 65, "velocity": 104, "channel": 0}, {"type": "note_on", "time": 446, "note": 63, "velocity": 117, "channel": 0}, {"type": "note_off", "time": 67, "note": 63, "velocity": 117, "channel": 0}, {"type": "note_on", "time": 10, "note": 65, "velocity": 110, "channel": 0}, {"type": "note_off", "time": 748, "note": 65, "velocity": 110, "channel": 0}, {"type": "note_on", "time": 15, "note": 63, "velocity": 105, "channel": 0}, {"type": "note_off", "time": 50, "note": 63, "velocity": 105, "channel": 0}, {"type": "note_on", "time": 7, "note": 65, "velocity": 115, "channel": 0}, {"type": "note_off", "time": 140, "note": 65, "velocity": 115, "channel": 0}, {"type": "note_on", "time": 26, "note": 63, "velocity": 119, "channel": 0}, {"type": "note_off", "time": 87, "note": 63, "velocity": 119, "channel": 0}, {"type": "note_on", "time": 33, "note": 65, "velocity": 114, "channel": 0}, {"type": "note_off", "time": 288, "note": 65, "velocity": 114, "channel": 0}, {"type": "note_on", "time": 13, "note": 63, "velocity": 118, "channel": 0}, {"type": "note_off", "time": 70, "note": 63, "velocity": 118, "channel": 0}, {"type": "note_on", "time": 91, "note": 65, "velocity": 9, "channel": 0}, {"type": "note_off", "time": 152, "note": 65, "velocity": 9, "channel": 0}, {"type": "note_on", "time": 356, "note": 67, "velocity": 110, "channel": 0}, {"type": "note_off", "time": 77, "note": 67, "velocity": 110, "channel": 0}, {"type": "note_on", "time": 16, "note": 66, "velocity": 106, "channel": 0}, {"type": "note_off", "time": 77, "note": 66, "velocity": 106, "channel": 0}, {"type": "note_on", "time": 23, "note": 63, "velocity": 117, "channel": 0}, {"type": "note_off", "time": 97, "note": 63, "velocity": 117, "channel": 0}, {"type": "note_on", "time": 3, "note": 62, "velocity": 113, "channel": 0}, {"type": "note_off", "time": 73, "note": 62, "velocity": 113, "channel": 0}, {"type": "note_on", "time": 24, "note": 65, "velocity": 112, "channel": 0}, {"type": "note_off", "time": 70, "note": 65, "velocity": 112, "channel": 0}, {"type": "note_on", "time": 9, "note": 63, "velocity": 117, "channel": 0}, {"type": "note_off", "time": 77, "note": 63, "velocity": 117, "channel": 0}, {"type": "note_on", "time": 0, "note": 60, "velocity": 110, "channel": 0}, {"type": "note_off", "time": 97, "note": 60, "velocity": 110, "channel": 0}, {"type": "note_on", "time": 11, "note": 59, "velocity": 106, "channel": 0}, {"type": "note_off", "time": 62, "note": 59, "velocity": 106, "channel": 0}, {"type": "note_on", "time": 118, "note": 59, "velocity": 108, "channel": 0}, {"type": "note_off", "time": 77, "note": 59, "velocity": 108, "channel": 0}, {"type": "note_on", "time": 12, "note": 62, "velocity": 107, "channel": 0}, {"type": "note_off", "time": 80, "note": 62, "velocity": 107, "channel": 0}, {"type": "note_on", "time": 6, "note": 60, "velocity": 106, "channel": 0}, {"type": "note_off", "time": 107, "note": 60, "velocity": 106, "channel": 0}, {"type": "note_on", "time": 3, "note": 62, "velocity": 108, "channel": 0}, {"type": "note_off", "time": 67, "note": 62, "velocity": 108, "channel": 0}, {"type": "note_on", "time": 16, "note": 64, "velocity": 108, "channel": 0}, {"type": "note_off", "time": 93, "note": 64, "velocity": 108, "channel": 0}, {"type": "note_on", "time": 6, "note": 67, "velocity": 114, "channel": 0}, {"type": "note_off", "time": 73, "note": 67, "velocity": 114, "channel": 0}, {"type": "note_on", "time": 16, "note": 65, "velocity": 110, "channel": 0}, {"type": "note_off", "time": 107, "note": 65, "velocity": 110, "channel": 0}, {"type": "note_on", "time": 6, "note": 64, "velocity": 112, "channel": 0}, {"type": "note_off", "time": 68, "note": 64, "velocity": 112, "channel": 0}, {"type": "note_on", "time": 23, "note": 63, "velocity": 111, "channel": 0}, {"type": "note_off", "time": 66, "note": 63, "velocity": 111, "channel": 0}, {"type": "note_on", "time": 7, "note": 62, "velocity": 102, "channel": 0}, {"type": "note_off", "time": 74, "note": 62, "velocity": 102, "channel": 0}, {"type": "note_on", "time": 21, "note": 60, "velocity": 107, "channel": 0}, {"type": "note_off", "time": 93, "note": 60, "velocity": 107, "channel": 0}, {"type": "note_on", "time": 16, "note": 56, "velocity": 109, "channel": 0}, {"type": "note_off", "time": 90, "note": 56, "velocity": 109, "channel": 0}, {"type": "note_on", "time": 6, "note": 55, "velocity": 101, "channel": 0}, {"type": "note_off", "time": 93, "note": 55, "velocity": 101, "channel": 0}, {"type": "note_on", "time": 26, "note": 56, "velocity": 90, "channel": 0}, {"type": "note_off", "time": 57, "note": 56, "velocity": 90, "channel": 0}, {"type": "note_on", "time": 0, "note": 58, "velocity": 107, "channel": 0}, {"type": "note_off", "time": 97, "note": 58, "velocity": 107, "channel": 0}, {"type": "note_on", "time": 10, "note": 60, "velocity": 100, "channel": 0}, {"type": "note_off", "time": 70, "note": 60, "velocity": 100, "channel": 0}, {"type": "note_on", "time": 23, "note": 62, "velocity": 93, "channel": 0}, {"type": "note_off", "time": 63, "note": 62, "velocity": 93, "channel": 0}, {"type": "note_on", "time": 33, "note": 65, "velocity": 91, "channel": 0}, {"type": "note_off", "time": 77, "note": 65, "velocity": 91, "channel": 0}, {"type": "note_on", "time": 0, "note": 70, "velocity": 111, "channel": 0}, {"type": "note_off", "time": 281, "note": 70, "velocity": 111, "channel": 0}, {"type": "note_on", "time": 23, "note": 68, "velocity": 112, "channel": 0}, {"type": "note_off", "time": 87, "note": 68, "velocity": 112, "channel": 0}, {"type": "note_on", "time": 3, "note": 67, "velocity": 107, "channel": 0}, {"type": "note_off", "time": 114, "note": 67, "velocity": 107, "channel": 0}, {"type": "note_on", "time": 0, "note": 63, "velocity": 114, "channel": 0}, {"type": "note_off", "time": 77, "note": 63, "velocity": 114, "channel": 0}, {"type": "note_on", "time": 13, "note": 62, "velocity": 110, "channel": 0}, {"type": "note_off", "time": 83, "note": 62, "velocity": 110, "channel": 0}, {"type": "note_on", "time": 23, "note": 65, "velocity": 110, "channel": 0}, {"type": "note_off", "time": 73, "note": 65, "velocity": 110, "channel": 0}, {"type": "note_on", "time": 13, "note": 63, "velocity": 116, "channel": 0}, {"type": "note_off", "time": 100, "note": 63, "velocity": 116, "channel": 0}, {"type": "note_on", "time": 0, "note": 60, "velocity": 113, "channel": 0}, {"type": "note_off", "time": 117, "note": 60, "velocity": 113, "channel": 0}, {"type": "note_on", "time": 464, "note": 68, "velocity": 111, "channel": 0}, {"type": "note_off", "time": 44, "note": 68, "velocity": 111, "channel": 0}, {"type": "note_on", "time": 4, "note": 70, "velocity": 120, "channel": 0}, {"type": "note_off", "time": 72, "note": 70, "velocity": 120, "channel": 0}, {"type": "note_on", "time": 75, "note": 70, "velocity": 118, "channel": 0}, {"type": "note_off", "time": 449, "note": 70, "velocity": 118, "channel": 0}, {"type": "note_on", "time": 36, "note": 66, "velocity": 108, "channel": 0}, {"type": "note_off", "time": 100, "note": 66, "velocity": 108, "channel": 0}, {"type": "note_on", "time": 16, "note": 70, "velocity": 101, "channel": 0}, {"type": "note_off", "time": 97, "note": 70, "velocity": 101, "channel": 0}, {"type": "note_on", "time": 0, "note": 73, "velocity": 121, "channel": 0}, {"type": "note_off", "time": 248, "note": 73, "velocity": 121, "channel": 0}, {"type": "note_on", "time": 3, "note": 70, "velocity": 112, "channel": 0}, {"type": "note_off", "time": 73, "note": 70, "velocity": 112, "channel": 0}, {"type": "note_on", "time": 0, "note": 66, "velocity": 110, "channel": 0}, {"type": "note_on", "time": 70, "note": 63, "velocity": 116, "channel": 0}, {"type": "note_off", "time": 0, "note": 66, "velocity": 110, "channel": 0}, {"type": "note_off", "time": 83, "note": 63, "velocity": 116, "channel": 0}, {"type": "note_on", "time": 91, "note": 71, "velocity": 113, "channel": 0}, {"type": "note_off", "time": 27, "note": 71, "velocity": 113, "channel": 0}, {"type": "note_on", "time": 5, "note": 72, "velocity": 118, "channel": 0}, {"type": "note_off", "time": 226, "note": 72, "velocity": 118, "channel": 0}, {"type": "note_on", "time": 4, "note": 69, "velocity": 109, "channel": 0}, {"type": "note_off", "time": 28, "note": 69, "velocity": 109, "channel": 0}, {"type": "note_on", "time": 13, "note": 65, "velocity": 105, "channel": 0}, {"type": "note_off", "time": 27, "note": 65, "velocity": 105, "channel": 0}, {"type": "note_on", "time": 14, "note": 62, "velocity": 104, "channel": 0}, {"type": "note_off", "time": 100, "note": 62, "velocity": 104, "channel": 0}, {"type": "note_on", "time": 3, "note": 65, "velocity": 101, "channel": 0}, {"type": "note_off", "time": 50, "note": 65, "velocity": 101, "channel": 0}, {"type": "note_on", "time": 0, "note": 72, "velocity": 113, "channel": 0}, {"type": "note_off", "time": 63, "note": 72, "velocity": 113, "channel": 0}, {"type": "note_on", "time": 3, "note": 71, "velocity": 116, "channel": 0}, {"type": "note_off", "time": 563, "note": 71, "velocity": 116, "channel": 0}, {"type": "note_on", "time": 20, "note": 67, "velocity": 104, "channel": 0}, {"type": "note_off", "time": 60, "note": 67, "velocity": 104, "channel": 0}, {"type": "note_on", "time": 2, "note": 69, "velocity": 108, "channel": 0}, {"type": "note_off", "time": 15, "note": 69, "velocity": 108, "channel": 0}, {"type": "note_on", "time": 5, "note": 71, "velocity": 116, "channel": 0}, {"type": "note_off", "time": 49, "note": 71, "velocity": 116, "channel": 0}, {"type": "note_on", "time": 7, "note": 69, "velocity": 110, "channel": 0}, {"type": "note_off", "time": 80, "note": 69, "velocity": 110, "channel": 0}, {"type": "note_on", "time": 10, "note": 65, "velocity": 108, "channel": 0}, {"type": "note_off", "time": 87, "note": 65, "velocity": 108, "channel": 0}, {"type": "note_on", "time": 0, "note": 62, "velocity": 111, "channel": 0}, {"type": "note_off", "time": 97, "note": 62, "velocity": 111, "channel": 0}, {"type": "note_on", "time": 3, "note": 59, "velocity": 98, "channel": 0}, {"type": "note_off", "time": 67, "note": 59, "velocity": 98, "channel": 0}, {"type": "note_on", "time": 3, "note": 67, "velocity": 113, "channel": 0}, {"type": "note_off", "time": 174, "note": 67, "velocity": 113, "channel": 0}, {"type": "note_on", "time": 335, "note": 67, "velocity": 116, "channel": 0}, {"type": "note_off", "time": 70, "note": 67, "velocity": 116, "channel": 0}, {"type": "note_on", "time": 6, "note": 69, "velocity": 117, "channel": 0}, {"type": "note_off", "time": 87, "note": 69, "velocity": 117, "channel": 0}, {"type": "note_on", "time": 19, "note": 71, "velocity": 123, "channel": 0}, {"type": "note_off", "time": 34, "note": 71, "velocity": 123, "channel": 0}, {"type": "note_on", "time": 3, "note": 72, "velocity": 125, "channel": 0}, {"type": "note_off", "time": 76, "note": 72, "velocity": 125, "channel": 0}, {"type": "note_on", "time": 44, "note": 72, "velocity": 119, "channel": 0}, {"type": "note_off", "time": 104, "note": 72, "velocity": 119, "channel": 0}, {"type": "note_on", "time": 6, "note": 74, "velocity": 120, "channel": 0}, {"type": "note_off", "time": 530, "note": 74, "velocity": 120, "channel": 0}, {"type": "note_on", "time": 3, "note": 72, "velocity": 109, "channel": 0}, {"type": "note_off", "time": 33, "note": 72, "velocity": 109, "channel": 0}, {"type": "note_on", "time": 19, "note": 74, "velocity": 113, "channel": 0}, {"type": "note_off", "time": 137, "note": 74, "velocity": 113, "channel": 0}, {"type": "note_on", "time": 13, "note": 75, "velocity": 117, "channel": 0}, {"type": "note_off", "time": 110, "note": 75, "velocity": 117, "channel": 0}, {"type": "note_on", "time": 3, "note": 74, "velocity": 114, "channel": 0}, {"type": "note_off", "time": 80, "note": 74, "velocity": 114, "channel": 0}, {"type": "note_on", "time": 350, "note": 72, "velocity": 105, "channel": 0}, {"type": "note_off", "time": 30, "note": 72, "velocity": 105, "channel": 0}, {"type": "note_on", "time": 21, "note": 74, "velocity": 114, "channel": 0}, {"type": "note_off", "time": 308, "note": 74, "velocity": 114, "channel": 0}, {"type": "note_on", "time": 13, "note": 73, "velocity": 113, "channel": 0}, {"type": "note_off", "time": 40, "note": 73, "velocity": 113, "channel": 0}, {"type": "note_on", "time": 0, "note": 71, "velocity": 106, "channel": 0}, {"type": "note_off", "time": 40, "note": 71, "velocity": 106, "channel": 0}, {"type": "note_on", "time": 13, "note": 70, "velocity": 112, "channel": 0}, {"type": "note_off", "time": 208, "note": 70, "velocity": 112, "channel": 0}, {"type": "note_on", "time": 46, "note": 64, "velocity": 94, "channel": 0}, {"type": "note_off", "time": 83, "note": 64, "velocity": 94, "channel": 0}, {"type": "note_on", "time": 6, "note": 68, "velocity": 100, "channel": 0}, {"type": "note_off", "time": 40, "note": 68, "velocity": 100, "channel": 0}, {"type": "note_on", "time": 0, "note": 70, "velocity": 112, "channel": 0}, {"type": "note_off", "time": 40, "note": 70, "velocity": 112, "channel": 0}, {"type": "note_on", "time": 0, "note": 75, "velocity": 116, "channel": 0}, {"type": "note_off", "time": 228, "note": 75, "velocity": 116, "channel": 0}, {"type": "note_on", "time": 50, "note": 73, "velocity": 115, "channel": 0}, {"type": "note_off", "time": 83, "note": 73, "velocity": 115, "channel": 0}, {"type": "note_on", "time": 33, "note": 72, "velocity": 110, "channel": 0}, {"type": "note_off", "time": 87, "note": 72, "velocity": 110, "channel": 0}, {"type": "note_on", "time": 0, "note": 67, "velocity": 107, "channel": 0}, {"type": "note_off", "time": 181, "note": 67, "velocity": 107, "channel": 0}, {"type": "note_on", "time": 5, "note": 70, "velocity": 105, "channel": 0}, {"type": "note_off", "time": 56, "note": 70, "velocity": 105, "channel": 0}, {"type": "note_on", "time": 18, "note": 67, "velocity": 113, "channel": 0}, {"type": "note_off", "time": 100, "note": 67, "velocity": 113, "channel": 0}, {"type": "note_on", "time": 0, "note": 63, "velocity": 113, "channel": 0}, {"type": "note_off", "time": 77, "note": 63, "velocity": 113, "channel": 0}, {"type": "note_on", "time": 0, "note": 64, "velocity": 112, "channel": 0}, {"type": "note_off", "time": 93, "note": 64, "velocity": 112, "channel": 0}, {"type": "note_on", "time": 0, "note": 67, "velocity": 112, "channel": 0}, {"type": "note_off", "time": 87, "note": 67, "velocity": 112, "channel": 0}, {"type": "note_on", "time": 13, "note": 65, "velocity": 111, "channel": 0}, {"type": "note_off", "time": 65, "note": 65, "velocity": 111, "channel": 0}, {"type": "note_on", "time": 5, "note": 68, "velocity": 92, "channel": 0}, {"type": "note_off", "time": 60, "note": 68, "velocity": 92, "channel": 0}, {"type": "note_on", "time": 13, "note": 72, "velocity": 106, "channel": 0}, {"type": "note_off", "time": 93, "note": 72, "velocity": 106, "channel": 0}, {"type": "note_on", "time": 36, "note": 75, "velocity": 107, "channel": 0}, {"type": "note_off", "time": 127, "note": 75, "velocity": 107, "channel": 0}, {"type": "note_on", "time": 60, "note": 75, "velocity": 112, "channel": 0}, {"type": "note_off", "time": 43, "note": 75, "velocity": 112, "channel": 0}, {"type": "note_on", "time": 13, "note": 79, "velocity": 120, "channel": 0}, {"type": "note_off", "time": 409, "note": 79, "velocity": 120, "channel": 0}, {"type": "note_on", "time": 26, "note": 70, "velocity": 101, "channel": 0}, {"type": "note_off", "time": 46, "note": 70, "velocity": 101, "channel": 0}, {"type": "note_on", "time": 68, "note": 77, "velocity": 97, "channel": 0}, {"type": "note_off", "time": 41, "note": 77, "velocity": 97, "channel": 0}, {"type": "note_on", "time": 23, "note": 75, "velocity": 112, "channel": 0}, {"type": "note_off", "time": 61, "note": 75, "velocity": 112, "channel": 0}, {"type": "note_on", "time": 11, "note": 74, "velocity": 108, "channel": 0}, {"type": "note_off", "time": 70, "note": 74, "velocity": 108, "channel": 0}, {"type": "note_on", "time": 0, "note": 68, "velocity": 105, "channel": 0}, {"type": "note_off", "time": 154, "note": 68, "velocity": 105, "channel": 0}, {"type": "note_on", "time": 399, "note": 71, "velocity": 100, "channel": 0}, {"type": "note_off", "time": 28, "note": 71, "velocity": 100, "channel": 0}, {"type": "note_on", "time": 11, "note": 74, "velocity": 113, "channel": 0}, {"type": "note_off", "time": 496, "note": 74, "velocity": 113, "channel": 0}, {"type": "note_on", "time": 10, "note": 70, "velocity": 110, "channel": 0}, {"type": "note_off", "time": 57, "note": 70, "velocity": 110, "channel": 0}, {"type": "note_on", "time": 7, "note": 66, "velocity": 108, "channel": 0}, {"type": "note_off", "time": 36, "note": 66, "velocity": 108, "channel": 0}, {"type": "note_on", "time": 13, "note": 62, "velocity": 109, "channel": 0}, {"type": "note_off", "time": 47, "note": 62, "velocity": 109, "channel": 0}, {"type": "note_on", "time": 23, "note": 58, "velocity": 103, "channel": 0}, {"type": "note_off", "time": 48, "note": 58, "velocity": 103, "channel": 0}, {"type": "note_on", "time": 14, "note": 50, "velocity": 112, "channel": 0}, {"type": "note_off", "time": 67, "note": 50, "velocity": 112, "channel": 0}, {"type": "note_on", "time": 4, "note": 51, "velocity": 104, "channel": 0}, {"type": "note_off", "time": 42, "note": 51, "velocity": 104, "channel": 0}, {"type": "note_on", "time": 2, "note": 54, "velocity": 104, "channel": 0}, {"type": "note_off", "time": 50, "note": 54, "velocity": 104, "channel": 0}, {"type": "note_on", "time": 10, "note": 57, "velocity": 106, "channel": 0}, {"type": "note_off", "time": 57, "note": 57, "velocity": 106, "channel": 0}, {"type": "note_on", "time": 3, "note": 62, "velocity": 108, "channel": 0}, {"type": "note_off", "time": 33, "note": 62, "velocity": 108, "channel": 0}, {"type": "note_on", "time": 12, "note": 66, "velocity": 110, "channel": 0}, {"type": "note_off", "time": 50, "note": 66, "velocity": 110, "channel": 0}, {"type": "note_on", "time": 8, "note": 68, "velocity": 108, "channel": 0}, {"type": "note_off", "time": 28, "note": 68, "velocity": 108, "channel": 0}, {"type": "note_on", "time": 6, "note": 70, "velocity": 106, "channel": 0}, {"type": "note_off", "time": 49, "note": 70, "velocity": 106, "channel": 0}, {"type": "note_on", "time": 162, "note": 57, "velocity": 113, "channel": 0}, {"type": "note_off", "time": 48, "note": 57, "velocity": 113, "channel": 0}, {"type": "note_on", "time": 4, "note": 59, "velocity": 106, "channel": 0}, {"type": "note_off", "time": 63, "note": 59, "velocity": 106, "channel": 0}, {"type": "note_on", "time": 3, "note": 61, "velocity": 113, "channel": 0}, {"type": "note_off", "time": 46, "note": 61, "velocity": 113, "channel": 0}, {"type": "note_on", "time": 0, "note": 63, "velocity": 113, "channel": 0}, {"type": "note_off", "time": 33, "note": 63, "velocity": 113, "channel": 0}, {"type": "note_on", "time": 17, "note": 67, "velocity": 110, "channel": 0}, {"type": "note_off", "time": 46, "note": 67, "velocity": 110, "channel": 0}, {"type": "note_on", "time": 2, "note": 71, "velocity": 113, "channel": 0}, {"type": "note_off", "time": 77, "note": 71, "velocity": 113, "channel": 0}, {"type": "note_on", "time": 10, "note": 75, "velocity": 114, "channel": 0}, {"type": "note_off", "time": 406, "note": 75, "velocity": 114, "channel": 0}, {"type": "note_on", "time": 0, "note": 71, "velocity": 111, "channel": 0}, {"type": "note_off", "time": 85, "note": 71, "velocity": 111, "channel": 0}, {"type": "note_on", "time": 0, "note": 74, "velocity": 105, "channel": 0}, {"type": "note_off", "time": 87, "note": 74, "velocity": 105, "channel": 0}, {"type": "note_on", "time": 8, "note": 72, "velocity": 111, "channel": 0}, {"type": "note_off", "time": 110, "note": 72, "velocity": 111, "channel": 0}, {"type": "note_on", "time": 0, "note": 63, "velocity": 115, "channel": 0}, {"type": "note_off", "time": 191, "note": 63, "velocity": 115, "channel": 0}, {"type": "note_on", "time": 352, "note": 70, "velocity": 108, "channel": 0}, {"type": "note_off", "time": 38, "note": 70, "velocity": 108, "channel": 0}, {"type": "note_on", "time": 8, "note": 72, "velocity": 122, "channel": 0}, {"type": "note_off", "time": 382, "note": 72, "velocity": 122, "channel": 0}, {"type": "note_on", "time": 53, "note": 72, "velocity": 121, "channel": 0}, {"type": "note_off", "time": 117, "note": 72, "velocity": 121, "channel": 0}, {"type": "note_on", "time": 3, "note": 67, "velocity": 100, "channel": 0}, {"type": "note_off", "time": 87, "note": 67, "velocity": 100, "channel": 0}, {"type": "note_on", "time": 6, "note": 71, "velocity": 120, "channel": 0}, {"type": "note_off", "time": 63, "note": 71, "velocity": 120, "channel": 0}, {"type": "note_on", "time": 26, "note": 74, "velocity": 110, "channel": 0}, {"type": "note_off", "time": 83, "note": 74, "velocity": 110, "channel": 0}, {"type": "note_on", "time": 13, "note": 72, "velocity": 117, "channel": 0}, {"type": "note_off", "time": 87, "note": 72, "velocity": 117, "channel": 0}, {"type": "note_on", "time": 33, "note": 67, "velocity": 103, "channel": 0}, {"type": "note_off", "time": 51, "note": 67, "velocity": 103, "channel": 0}, {"type": "note_on", "time": 18, "note": 69, "velocity": 115, "channel": 0}, {"type": "note_off", "time": 27, "note": 69, "velocity": 115, "channel": 0}, {"type": "note_on", "time": 16, "note": 71, "velocity": 114, "channel": 0}, {"type": "note_off", "time": 56, "note": 71, "velocity": 114, "channel": 0}, {"type": "note_on", "time": 12, "note": 74, "velocity": 115, "channel": 0}, {"type": "note_off", "time": 57, "note": 74, "velocity": 115, "channel": 0}, {"type": "note_on", "time": 8, "note": 73, "velocity": 119, "channel": 0}, {"type": "note_off", "time": 39, "note": 73, "velocity": 119, "channel": 0}, {"type": "note_on", "time": 9, "note": 72, "velocity": 121, "channel": 0}, {"type": "note_off", "time": 65, "note": 72, "velocity": 121, "channel": 0}, {"type": "note_on", "time": 13, "note": 69, "velocity": 99, "channel": 0}, {"type": "note_off", "time": 70, "note": 69, "velocity": 99, "channel": 0}, {"type": "note_on", "time": 16, "note": 71, "velocity": 115, "channel": 0}, {"type": "note_off", "time": 90, "note": 71, "velocity": 115, "channel": 0}, {"type": "note_on", "time": 17, "note": 74, "velocity": 107, "channel": 0}, {"type": "note_off", "time": 36, "note": 74, "velocity": 107, "channel": 0}, {"type": "note_on", "time": 11, "note": 73, "velocity": 110, "channel": 0}, {"type": "note_off", "time": 24, "note": 73, "velocity": 110, "channel": 0}, {"type": "note_on", "time": 10, "note": 72, "velocity": 116, "channel": 0}, {"type": "note_off", "time": 66, "note": 72, "velocity": 116, "channel": 0}, {"type": "note_on", "time": 33, "note": 67, "velocity": 112, "channel": 0}, {"type": "note_off", "time": 60, "note": 67, "velocity": 112, "channel": 0}, {"type": "note_on", "time": 20, "note": 63, "velocity": 120, "channel": 0}, {"type": "note_off", "time": 83, "note": 63, "velocity": 120, "channel": 0}, {"type": "note_on", "time": 36, "note": 60, "velocity": 113, "channel": 0}, {"type": "note_off", "time": 77, "note": 60, "velocity": 113, "channel": 0}, {"type": "note_on", "time": 16, "note": 59, "velocity": 110, "channel": 0}, {"type": "note_off", "time": 80, "note": 59, "velocity": 110, "channel": 0}, {"type": "note_on", "time": 10, "note": 57, "velocity": 107, "channel": 0}, {"type": "note_off", "time": 46, "note": 57, "velocity": 107, "channel": 0}, {"type": "note_on", "time": 13, "note": 59, "velocity": 104, "channel": 0}, {"type": "note_off", "time": 127, "note": 59, "velocity": 104, "channel": 0}, {"type": "note_on", "time": 13, "note": 62, "velocity": 112, "channel": 0}, {"type": "note_off", "time": 77, "note": 62, "velocity": 112, "channel": 0}, {"type": "note_on", "time": 6, "note": 60, "velocity": 106, "channel": 0}, {"type": "note_off", "time": 107, "note": 60, "velocity": 106, "channel": 0}, {"type": "note_on", "time": 0, "note": 62, "velocity": 108, "channel": 0}, {"type": "note_off", "time": 77, "note": 62, "velocity": 108, "channel": 0}, {"type": "note_on", "time": 3, "note": 63, "velocity": 113, "channel": 0}, {"type": "note_off", "time": 87, "note": 63, "velocity": 113, "channel": 0}, {"type": "note_on", "time": 20, "note": 65, "velocity": 110, "channel": 0}, {"type": "note_off", "time": 90, "note": 65, "velocity": 110, "channel": 0}, {"type": "note_on", "time": 20, "note": 64, "velocity": 112, "channel": 0}, {"type": "note_on", "time": 100, "note": 60, "velocity": 107, "channel": 0}, {"type": "note_off", "time": 0, "note": 64, "velocity": 112, "channel": 0}, {"type": "note_off", "time": 60, "note": 60, "velocity": 107, "channel": 0}, {"type": "note_on", "time": 117, "note": 70, "velocity": 91, "channel": 0}, {"type": "note_off", "time": 67, "note": 70, "velocity": 91, "channel": 0}, {"type": "note_on", "time": 23, "note": 75, "velocity": 109, "channel": 0}, {"type": "note_off", "time": 114, "note": 75, "velocity": 109, "channel": 0}, {"type": "note_on", "time": 70, "note": 73, "velocity": 112, "channel": 0}, {"type": "note_off", "time": 124, "note": 73, "velocity": 112, "channel": 0}, {"type": "note_on", "time": 16, "note": 71, "velocity": 105, "channel": 0}, {"type": "note_off", "time": 50, "note": 71, "velocity": 105, "channel": 0}, {"type": "note_on", "time": 13, "note": 72, "velocity": 111, "channel": 0}, {"type": "note_off", "time": 117, "note": 72, "velocity": 111, "channel": 0}, {"type": "note_on", "time": 0, "note": 66, "velocity": 100, "channel": 0}, {"type": "note_off", "time": 87, "note": 66, "velocity": 100, "channel": 0}, {"type": "note_on", "time": 20, "note": 67, "velocity": 92, "channel": 0}, {"type": "note_off", "time": 73, "note": 67, "velocity": 92, "channel": 0}, {"type": "note_on", "time": 20, "note": 70, "velocity": 111, "channel": 0}, {"type": "note_off", "time": 53, "note": 70, "velocity": 111, "channel": 0}, {"type": "note_on", "time": 13, "note": 68, "velocity": 111, "channel": 0}, {"type": "note_off", "time": 93, "note": 68, "velocity": 111, "channel": 0}, {"type": "note_on", "time": 13, "note": 63, "velocity": 103, "channel": 0}, {"type": "note_off", "time": 67, "note": 63, "velocity": 103, "channel": 0}, {"type": "note_on", "time": 3, "note": 64, "velocity": 111, "channel": 0}, {"type": "note_off", "time": 127, "note": 64, "velocity": 111, "channel": 0}, {"type": "note_on", "time": 0, "note": 67, "velocity": 111, "channel": 0}, {"type": "note_off", "time": 73, "note": 67, "velocity": 111, "channel": 0}, {"type": "note_on", "time": 0, "note": 65, "velocity": 109, "channel": 0}, {"type": "note_off", "time": 110, "note": 65, "velocity": 109, "channel": 0}, {"type": "note_on", "time": 0, "note": 68, "velocity": 99, "channel": 0}, {"type": "note_off", "time": 90, "note": 68, "velocity": 99, "channel": 0}, {"type": "note_on", "time": 6, "note": 72, "velocity": 114, "channel": 0}, {"type": "note_off", "time": 80, "note": 72, "velocity": 114, "channel": 0}, {"type": "note_on", "time": 20, "note": 75, "velocity": 114, "channel": 0}, {"type": "note_off", "time": 97, "note": 75, "velocity": 114, "channel": 0}, {"type": "note_on", "time": 107, "note": 75, "velocity": 107, "channel": 0}, {"type": "note_off", "time": 77, "note": 75, "velocity": 107, "channel": 0}, {"type": "note_on", "time": 10, "note": 74, "velocity": 115, "channel": 0}, {"type": "note_off", "time": 67, "note": 74, "velocity": 115, "channel": 0}, {"type": "note_on", "time": 0, "note": 73, "velocity": 101, "channel": 0}, {"type": "note_off", "time": 46, "note": 73, "velocity": 101, "channel": 0}, {"type": "note_on", "time": 3, "note": 71, "velocity": 102, "channel": 0}, {"type": "note_on", "time": 70, "note": 72, "velocity": 120, "channel": 0}, {"type": "note_off", "time": 0, "note": 71, "velocity": 102, "channel": 0}, {"type": "note_off", "time": 110, "note": 72, "velocity": 120, "channel": 0}, {"type": "note_on", "time": 33, "note": 69, "velocity": 114, "channel": 0}, {"type": "note_off", "time": 147, "note": 69, "velocity": 114, "channel": 0}, {"type": "note_on", "time": 392, "note": 70, "velocity": 113, "channel": 0}, {"type": "note_off", "time": 34, "note": 70, "velocity": 113, "channel": 0}, {"type": "note_on", "time": 7, "note": 71, "velocity": 116, "channel": 0}, {"type": "note_off", "time": 171, "note": 71, "velocity": 116, "channel": 0}, {"type": "note_on", "time": 12, "note": 72, "velocity": 102, "channel": 0}, {"type": "note_off", "time": 43, "note": 72, "velocity": 102, "channel": 0}, {"type": "note_on", "time": 10, "note": 71, "velocity": 112, "channel": 0}, {"type": "note_off", "time": 50, "note": 71, "velocity": 112, "channel": 0}, {"type": "note_on", "time": 10, "note": 69, "velocity": 98, "channel": 0}, {"type": "note_off", "time": 73, "note": 69, "velocity": 98, "channel": 0}, {"type": "note_on", "time": 0, "note": 71, "velocity": 116, "channel": 0}, {"type": "note_off", "time": 63, "note": 71, "velocity": 116, "channel": 0}, {"type": "note_on", "time": 26, "note": 67, "velocity": 106, "channel": 0}, {"type": "note_off", "time": 67, "note": 67, "velocity": 106, "channel": 0}, {"type": "note_on", "time": 10, "note": 63, "velocity": 111, "channel": 0}, {"type": "note_off", "time": 53, "note": 63, "velocity": 111, "channel": 0}, {"type": "note_on", "time": 43, "note": 59, "velocity": 105, "channel": 0}, {"type": "note_off", "time": 77, "note": 59, "velocity": 105, "channel": 0}, {"type": "note_on", "time": 77, "note": 63, "velocity": 117, "channel": 0}, {"type": "note_off", "time": 127, "note": 63, "velocity": 117, "channel": 0}, {"type": "note_on", "time": 3, "note": 60, "velocity": 106, "channel": 0}, {"type": "note_off", "time": 104, "note": 60, "velocity": 106, "channel": 0}, {"type": "note_on", "time": 3, "note": 58, "velocity": 101, "channel": 0}, {"type": "note_off", "time": 127, "note": 58, "velocity": 101, "channel": 0}, {"type": "note_on", "time": 23, "note": 60, "velocity": 108, "channel": 0}, {"type": "note_on", "time": 130, "note": 61, "velocity": 109, "channel": 0}, {"type": "note_off", "time": 0, "note": 60, "velocity": 108, "channel": 0}, {"type": "note_off", "time": 70, "note": 61, "velocity": 109, "channel": 0}, {"type": "note_on", "time": 3, "note": 63, "velocity": 115, "channel": 0}, {"type": "note_off", "time": 80, "note": 63, "velocity": 115, "channel": 0}, {"type": "note_on", "time": 10, "note": 65, "velocity": 113, "channel": 0}, {"type": "note_off", "time": 83, "note": 65, "velocity": 113, "channel": 0}, {"type": "note_on", "time": 16, "note": 62, "velocity": 115, "channel": 0}, {"type": "note_off", "time": 97, "note": 62, "velocity": 115, "channel": 0}, {"type": "note_on", "time": 22, "note": 64, "velocity": 116, "channel": 0}, {"type": "note_off", "time": 84, "note": 64, "velocity": 116, "channel": 0}, {"type": "note_on", "time": 87, "note": 65, "velocity": 103, "channel": 0}, {"type": "note_off", "time": 29, "note": 65, "velocity": 103, "channel": 0}, {"type": "note_on", "time": 4, "note": 67, "velocity": 109, "channel": 0}, {"type": "note_off", "time": 83, "note": 67, "velocity": 109, "channel": 0}, {"type": "note_on", "time": 0, "note": 69, "velocity": 106, "channel": 0}, {"type": "note_off", "time": 83, "note": 69, "velocity": 106, "channel": 0}, {"type": "note_on", "time": 0, "note": 72, "velocity": 114, "channel": 0}, {"type": "note_on", "time": 67, "note": 71, "velocity": 116, "channel": 0}, {"type": "note_off", "time": 0, "note": 72, "velocity": 114, "channel": 0}, {"type": "note_off", "time": 63, "note": 71, "velocity": 116, "channel": 0}, {"type": "note_on", "time": 36, "note": 74, "velocity": 108, "channel": 0}, {"type": "note_off", "time": 60, "note": 74, "velocity": 108, "channel": 0}, {"type": "note_on", "time": 30, "note": 70, "velocity": 111, "channel": 0}, {"type": "note_off", "time": 87, "note": 70, "velocity": 111, "channel": 0}, {"type": "note_on", "time": 20, "note": 68, "velocity": 114, "channel": 0}, {"type": "note_off", "time": 73, "note": 68, "velocity": 114, "channel": 0}, {"type": "note_on", "time": 13, "note": 63, "velocity": 99, "channel": 0}, {"type": "note_off", "time": 110, "note": 63, "velocity": 99, "channel": 0}, {"type": "note_on", "time": 0, "note": 65, "velocity": 97, "channel": 0}, {"type": "note_off", "time": 67, "note": 65, "velocity": 97, "channel": 0}, {"type": "note_on", "time": 3, "note": 67, "velocity": 114, "channel": 0}, {"type": "note_off", "time": 93, "note": 67, "velocity": 114, "channel": 0}, {"type": "note_on", "time": 23, "note": 63, "velocity": 113, "channel": 0}, {"type": "note_off", "time": 63, "note": 63, "velocity": 113, "channel": 0}, {"type": "note_on", "time": 10, "note": 60, "velocity": 106, "channel": 0}, {"type": "note_off", "time": 140, "note": 60, "velocity": 106, "channel": 0}, {"type": "note_on", "time": 46, "note": 65, "velocity": 109, "channel": 0}, {"type": "note_off", "time": 134, "note": 65, "velocity": 109, "channel": 0}, {"type": "note_on", "time": 363, "note": 67, "velocity": 118, "channel": 0}, {"type": "note_off", "time": 80, "note": 67, "velocity": 118, "channel": 0}, {"type": "note_on", "time": 8, "note": 66, "velocity": 116, "channel": 0}, {"type": "note_off", "time": 70, "note": 66, "velocity": 116, "channel": 0}, {"type": "note_on", "time": 31, "note": 65, "velocity": 114, "channel": 0}, {"type": "note_off", "time": 97, "note": 65, "velocity": 114, "channel": 0}, {"type": "note_on", "time": 0, "note": 63, "velocity": 118, "channel": 0}, {"type": "note_off", "time": 154, "note": 63, "velocity": 118, "channel": 0}, {"type": "note_on", "time": 13, "note": 60, "velocity": 116, "channel": 0}, {"type": "note_off", "time": 124, "note": 60, "velocity": 116, "channel": 0}, {"type": "note_on", "time": 80, "note": 60, "velocity": 119, "channel": 0}, {"type": "note_off", "time": 127, "note": 60, "velocity": 119, "channel": 0}, {"type": "note_on", "time": 53, "note": 60, "velocity": 113, "channel": 0}, {"type": "note_off", "time": 140, "note": 60, "velocity": 113, "channel": 0}, {"type": "note_on", "time": 57, "note": 60, "velocity": 122, "channel": 0}, {"type": "note_off", "time": 298, "note": 60, "velocity": 122, "channel": 0}, {"type": "note_on", "time": 20, "note": 66, "velocity": 119, "channel": 0}, {"type": "note_off", "time": 39, "note": 66, "velocity": 119, "channel": 0}, {"type": "note_on", "time": 3, "note": 67, "velocity": 114, "channel": 0}, {"type": "note_off", "time": 302, "note": 67, "velocity": 114, "channel": 0}, {"type": "note_on", "time": 23, "note": 65, "velocity": 114, "channel": 0}, {"type": "note_off", "time": 67, "note": 65, "velocity": 114, "channel": 0}, {"type": "note_on", "time": 6, "note": 63, "velocity": 120, "channel": 0}, {"type": "note_off", "time": 46, "note": 63, "velocity": 120, "channel": 0}, {"type": "note_on", "time": 3, "note": 60, "velocity": 116, "channel": 0}, {"type": "note_off", "time": 73, "note": 60, "velocity": 116, "channel": 0}, {"type": "note_on", "time": 2, "note": 63, "velocity": 124, "channel": 0}, {"type": "note_off", "time": 65, "note": 63, "velocity": 124, "channel": 0}, {"type": "note_on", "time": 9, "note": 67, "velocity": 118, "channel": 0}, {"type": "note_off", "time": 53, "note": 67, "velocity": 118, "channel": 0}, {"type": "note_on", "time": 0, "note": 63, "velocity": 121, "channel": 0}, {"type": "note_off", "time": 73, "note": 63, "velocity": 121, "channel": 0}, {"type": "note_on", "time": 0, "note": 67, "velocity": 115, "channel": 0}, {"type": "note_off", "time": 63, "note": 67, "velocity": 115, "channel": 0}, {"type": "note_on", "time": 16, "note": 70, "velocity": 121, "channel": 0}, {"type": "note_off", "time": 97, "note": 70, "velocity": 121, "channel": 0}, {"type": "note_on", "time": 6, "note": 74, "velocity": 117, "channel": 0}, {"type": "note_off", "time": 228, "note": 74, "velocity": 117, "channel": 0}, {"type": "note_on", "time": 6, "note": 72, "velocity": 109, "channel": 0}, {"type": "note_off", "time": 50, "note": 72, "velocity": 109, "channel": 0}, {"type": "note_on", "time": 6, "note": 70, "velocity": 116, "channel": 0}, {"type": "note_off", "time": 251, "note": 70, "velocity": 116, "channel": 0}, {"type": "note_on", "time": 26, "note": 67, "velocity": 114, "channel": 0}, {"type": "note_off", "time": 87, "note": 67, "velocity": 114, "channel": 0}, {"type": "note_on", "time": 16, "note": 63, "velocity": 118, "channel": 0}, {"type": "note_off", "time": 97, "note": 63, "velocity": 118, "channel": 0}, {"type": "note_on", "time": 0, "note": 60, "velocity": 116, "channel": 0}, {"type": "note_off", "time": 117, "note": 60, "velocity": 116, "channel": 0}, {"type": "note_on", "time": 271, "note": 53, "velocity": 110, "channel": 0}, {"type": "note_off", "time": 54, "note": 53, "velocity": 110, "channel": 0}, {"type": "note_on", "time": 12, "note": 56, "velocity": 107, "channel": 0}, {"type": "note_off", "time": 63, "note": 56, "velocity": 107, "channel": 0}, {"type": "note_on", "time": 16, "note": 60, "velocity": 105, "channel": 0}, {"type": "note_off", "time": 46, "note": 60, "velocity": 105, "channel": 0}, {"type": "note_on", "time": 6, "note": 63, "velocity": 113, "channel": 0}, {"type": "note_off", "time": 33, "note": 63, "velocity": 113, "channel": 0}, {"type": "note_on", "time": 0, "note": 67, "velocity": 111, "channel": 0}, {"type": "note_off", "time": 53, "note": 67, "velocity": 111, "channel": 0}, {"type": "note_on", "time": 0, "note": 70, "velocity": 117, "channel": 0}, {"type": "note_off", "time": 433, "note": 70, "velocity": 117, "channel": 0}, {"type": "note_on", "time": 20, "note": 67, "velocity": 109, "channel": 0}, {"type": "note_off", "time": 63, "note": 67, "velocity": 109, "channel": 0}, {"type": "note_on", "time": 5, "note": 68, "velocity": 119, "channel": 0}, {"type": "note_off", "time": 31, "note": 68, "velocity": 119, "channel": 0}, {"type": "note_on", "time": 0, "note": 67, "velocity": 113, "channel": 0}, {"type": "note_off", "time": 53, "note": 67, "velocity": 113, "channel": 0}, {"type": "note_on", "time": 13, "note": 65, "velocity": 112, "channel": 0}, {"type": "note_off", "time": 30, "note": 65, "velocity": 112, "channel": 0}, {"type": "note_on", "time": 16, "note": 63, "velocity": 117, "channel": 0}, {"type": "note_off", "time": 33, "note": 63, "velocity": 117, "channel": 0}, {"type": "note_on", "time": 20, "note": 62, "velocity": 112, "channel": 0}, {"type": "note_off", "time": 30, "note": 62, "velocity": 112, "channel": 0}, {"type": "note_on", "time": 0, "note": 60, "velocity": 112, "channel": 0}, {"type": "note_off", "time": 60, "note": 60, "velocity": 112, "channel": 0}, {"type": "note_on", "time": 3, "note": 58, "velocity": 108, "channel": 0}, {"type": "note_off", "time": 46, "note": 58, "velocity": 108, "channel": 0}, {"type": "note_on", "time": 6, "note": 56, "velocity": 110, "channel": 0}, {"type": "note_off", "time": 53, "note": 56, "velocity": 110, "channel": 0}, {"type": "note_on", "time": 6, "note": 55, "velocity": 120, "channel": 0}, {"type": "note_off", "time": 33, "note": 55, "velocity": 120, "channel": 0}, {"type": "note_on", "time": 0, "note": 53, "velocity": 118, "channel": 0}, {"type": "note_off", "time": 40, "note": 53, "velocity": 118, "channel": 0}, {"type": "note_on", "time": 0, "note": 51, "velocity": 114, "channel": 0}, {"type": "note_off", "time": 40, "note": 51, "velocity": 114, "channel": 0}, {"type": "note_on", "time": 20, "note": 50, "velocity": 106, "channel": 0}, {"type": "note_off", "time": 36, "note": 50, "velocity": 106, "channel": 0}, {"type": "note_on", "time": 26, "note": 48, "velocity": 112, "channel": 0}, {"type": "note_off", "time": 164, "note": 48, "velocity": 112, "channel": 0}, {"type": "note_on", "time": 349, "note": 50, "velocity": 112, "channel": 0}, {"type": "note_off", "time": 67, "note": 50, "velocity": 112, "channel": 0}, {"type": "note_on", "time": 0, "note": 53, "velocity": 112, "channel": 0}, {"type": "note_off", "time": 43, "note": 53, "velocity": 112, "channel": 0}, {"type": "note_on", "time": 6, "note": 52, "velocity": 102, "channel": 0}, {"type": "note_off", "time": 36, "note": 52, "velocity": 102, "channel": 0}, {"type": "note_on", "time": 15, "note": 51, "velocity": 109, "channel": 0}, {"type": "note_off", "time": 45, "note": 51, "velocity": 109, "channel": 0}, {"type": "note_on", "time": 0, "note": 55, "velocity": 104, "channel": 0}, {"type": "note_off", "time": 60, "note": 55, "velocity": 104, "channel": 0}, {"type": "note_on", "time": 6, "note": 57, "velocity": 104, "channel": 0}, {"type": "note_off", "time": 63, "note": 57, "velocity": 104, "channel": 0}, {"type": "note_on", "time": 0, "note": 59, "velocity": 99, "channel": 0}, {"type": "note_off", "time": 57, "note": 59, "velocity": 99, "channel": 0}, {"type": "note_on", "time": 0, "note": 60, "velocity": 112, "channel": 0}, {"type": "note_off", "time": 57, "note": 60, "velocity": 112, "channel": 0}, {"type": "note_on", "time": 10, "note": 62, "velocity": 115, "channel": 0}, {"type": "note_off", "time": 57, "note": 62, "velocity": 115, "channel": 0}, {"type": "note_on", "time": 0, "note": 64, "velocity": 112, "channel": 0}, {"type": "note_off", "time": 33, "note": 64, "velocity": 112, "channel": 0}, {"type": "note_on", "time": 0, "note": 65, "velocity": 111, "channel": 0}, {"type": "note_off", "time": 57, "note": 65, "velocity": 111, "channel": 0}, {"type": "note_on", "time": 0, "note": 67, "velocity": 109, "channel": 0}, {"type": "note_off", "time": 50, "note": 67, "velocity": 109, "channel": 0}, {"type": "note_on", "time": 0, "note": 69, "velocity": 117, "channel": 0}, {"type": "note_off", "time": 67, "note": 69, "velocity": 117, "channel": 0}, {"type": "note_on", "time": 6, "note": 71, "velocity": 121, "channel": 0}, {"type": "note_off", "time": 124, "note": 71, "velocity": 121, "channel": 0}, {"type": "note_on", "time": 250, "note": 52, "velocity": 102, "channel": 0}, {"type": "note_off", "time": 28, "note": 52, "velocity": 102, "channel": 0}, {"type": "note_on", "time": 0, "note": 54, "velocity": 102, "channel": 0}, {"type": "note_on", "time": 53, "note": 56, "velocity": 109, "channel": 0}, {"type": "note_off", "time": 0, "note": 54, "velocity": 102, "channel": 0}, {"type": "note_off", "time": 60, "note": 56, "velocity": 109, "channel": 0}, {"type": "note_on", "time": 3, "note": 58, "velocity": 101, "channel": 0}, {"type": "note_on", "time": 46, "note": 60, "velocity": 100, "channel": 0}, {"type": "note_off", "time": 0, "note": 58, "velocity": 101, "channel": 0}, {"type": "note_off", "time": 33, "note": 60, "velocity": 100, "channel": 0}, {"type": "note_on", "time": 0, "note": 62, "velocity": 108, "channel": 0}, {"type": "note_off", "time": 46, "note": 62, "velocity": 108, "channel": 0}, {"type": "note_on", "time": 16, "note": 65, "velocity": 105, "channel": 0}, {"type": "note_off", "time": 57, "note": 65, "velocity": 105, "channel": 0}, {"type": "note_on", "time": 10, "note": 68, "velocity": 113, "channel": 0}, {"type": "note_off", "time": 33, "note": 68, "velocity": 113, "channel": 0}, {"type": "note_on", "time": 0, "note": 70, "velocity": 117, "channel": 0}, {"type": "note_off", "time": 144, "note": 70, "velocity": 117, "channel": 0}, {"type": "note_on", "time": 87, "note": 58, "velocity": 101, "channel": 0}, {"type": "note_off", "time": 110, "note": 58, "velocity": 101, "channel": 0}, {"type": "note_on", "time": 0, "note": 61, "velocity": 100, "channel": 0}, {"type": "note_off", "time": 53, "note": 61, "velocity": 100, "channel": 0}, {"type": "note_on", "time": 6, "note": 63, "velocity": 115, "channel": 0}, {"type": "note_off", "time": 33, "note": 63, "velocity": 115, "channel": 0}, {"type": "note_on", "time": 6, "note": 67, "velocity": 99, "channel": 0}, {"type": "note_off", "time": 70, "note": 67, "velocity": 99, "channel": 0}, {"type": "note_on", "time": 33, "note": 71, "velocity": 107, "channel": 0}, {"type": "note_off", "time": 90, "note": 71, "velocity": 107, "channel": 0}, {"type": "note_on", "time": 20, "note": 75, "velocity": 111, "channel": 0}, {"type": "note_off", "time": 691, "note": 75, "velocity": 111, "channel": 0}, {"type": "note_on", "time": 0, "note": 71, "velocity": 110, "channel": 0}, {"type": "note_off", "time": 100, "note": 71, "velocity": 110, "channel": 0}, {"type": "note_on", "time": 53, "note": 74, "velocity": 111, "channel": 0}, {"type": "note_off", "time": 406, "note": 74, "velocity": 111, "channel": 0}, {"type": "note_on", "time": 584, "note": 70, "velocity": 116, "channel": 0}, {"type": "note_off", "time": 67, "note": 70, "velocity": 116, "channel": 0}, {"type": "note_on", "time": 6, "note": 71, "velocity": 113, "channel": 0}, {"type": "note_off", "time": 33, "note": 71, "velocity": 113, "channel": 0}, {"type": "note_on", "time": 14, "note": 73, "velocity": 116, "channel": 0}, {"type": "note_off", "time": 25, "note": 73, "velocity": 116, "channel": 0}, {"type": "note_on", "time": 11, "note": 74, "velocity": 112, "channel": 0}, {"type": "note_off", "time": 144, "note": 74, "velocity": 112, "channel": 0}, {"type": "note_on", "time": 0, "note": 73, "velocity": 114, "channel": 0}, {"type": "note_off", "time": 30, "note": 73, "velocity": 114, "channel": 0}, {"type": "note_on", "time": 0, "note": 72, "velocity": 115, "channel": 0}, {"type": "note_off", "time": 43, "note": 72, "velocity": 115, "channel": 0}, {"type": "note_on", "time": 13, "note": 71, "velocity": 118, "channel": 0}, {"type": "note_off", "time": 127, "note": 71, "velocity": 118, "channel": 0}, {"type": "note_on", "time": 3, "note": 68, "velocity": 112, "channel": 0}, {"type": "note_off", "time": 46, "note": 68, "velocity": 112, "channel": 0}, {"type": "note_on", "time": 13, "note": 67, "velocity": 112, "channel": 0}, {"type": "note_off", "time": 83, "note": 67, "velocity": 112, "channel": 0}, {"type": "note_on", "time": 10, "note": 66, "velocity": 112, "channel": 0}, {"type": "note_off", "time": 90, "note": 66, "velocity": 112, "channel": 0}, {"type": "note_on", "time": 6, "note": 65, "velocity": 110, "channel": 0}, {"type": "note_off", "time": 80, "note": 65, "velocity": 110, "channel": 0}, {"type": "note_on", "time": 33, "note": 63, "velocity": 116, "channel": 0}, {"type": "note_off", "time": 57, "note": 63, "velocity": 116, "channel": 0}, {"type": "note_on", "time": 33, "note": 62, "velocity": 108, "channel": 0}, {"type": "note_off", "time": 114, "note": 62, "velocity": 108, "channel": 0}, {"type": "note_on", "time": 6, "note": 60, "velocity": 107, "channel": 0}, {"type": "note_off", "time": 67, "note": 60, "velocity": 107, "channel": 0}, {"type": "note_on", "time": 23, "note": 59, "velocity": 111, "channel": 0}, {"type": "note_off", "time": 140, "note": 59, "velocity": 111, "channel": 0}, {"type": "note_on", "time": 9, "note": 57, "velocity": 103, "channel": 0}, {"type": "note_off", "time": 34, "note": 57, "velocity": 103, "channel": 0}, {"type": "note_on", "time": 3, "note": 59, "velocity": 103, "channel": 0}, {"type": "note_off", "time": 57, "note": 59, "velocity": 103, "channel": 0}, {"type": "note_on", "time": 20, "note": 62, "velocity": 110, "channel": 0}, {"type": "note_off", "time": 83, "note": 62, "velocity": 110, "channel": 0}, {"type": "note_on", "time": 34, "note": 60, "velocity": 109, "channel": 0}, {"type": "note_off", "time": 108, "note": 60, "velocity": 109, "channel": 0}, {"type": "note_on", "time": 5, "note": 62, "velocity": 112, "channel": 0}, {"type": "note_off", "time": 60, "note": 62, "velocity": 112, "channel": 0}, {"type": "note_on", "time": 19, "note": 63, "velocity": 116, "channel": 0}, {"type": "note_off", "time": 90, "note": 63, "velocity": 116, "channel": 0}, {"type": "note_on", "time": 13, "note": 65, "velocity": 110, "channel": 0}, {"type": "note_off", "time": 90, "note": 65, "velocity": 110, "channel": 0}, {"type": "note_on", "time": 30, "note": 67, "velocity": 108, "channel": 0}, {"type": "note_off", "time": 57, "note": 67, "velocity": 108, "channel": 0}, {"type": "note_on", "time": 6, "note": 68, "velocity": 117, "channel": 0}, {"type": "note_off", "time": 90, "note": 68, "velocity": 117, "channel": 0}, {"type": "note_on", "time": 87, "note": 71, "velocity": 109, "channel": 0}, {"type": "note_off", "time": 73, "note": 71, "velocity": 109, "channel": 0}, {"type": "note_on", "time": 16, "note": 72, "velocity": 118, "channel": 0}, {"type": "note_off", "time": 228, "note": 72, "velocity": 118, "channel": 0}, {"type": "note_on", "time": 0, "note": 67, "velocity": 113, "channel": 0}, {"type": "note_on", "time": 97, "note": 68, "velocity": 110, "channel": 0}, {"type": "note_off", "time": 0, "note": 67, "velocity": 113, "channel": 0}, {"type": "note_off", "time": 70, "note": 68, "velocity": 110, "channel": 0}, {"type": "note_on", "time": 0, "note": 67, "velocity": 111, "channel": 0}, {"type": "note_off", "time": 77, "note": 67, "velocity": 111, "channel": 0}, {"type": "note_on", "time": 20, "note": 65, "velocity": 112, "channel": 0}, {"type": "note_off", "time": 60, "note": 65, "velocity": 112, "channel": 0}, {"type": "note_on", "time": 23, "note": 64, "velocity": 109, "channel": 0}, {"type": "note_off", "time": 124, "note": 64, "velocity": 109, "channel": 0}, {"type": "note_on", "time": 0, "note": 67, "velocity": 112, "channel": 0}, {"type": "note_off", "time": 87, "note": 67, "velocity": 112, "channel": 0}, {"type": "note_on", "time": 3, "note": 65, "velocity": 103, "channel": 0}, {"type": "note_off", "time": 100, "note": 65, "velocity": 103, "channel": 0}, {"type": "note_on", "time": 0, "note": 60, "velocity": 107, "channel": 0}, {"type": "note_off", "time": 90, "note": 60, "velocity": 107, "channel": 0}, {"type": "note_on", "time": 0, "note": 56, "velocity": 107, "channel": 0}, {"type": "note_off", "time": 83, "note": 56, "velocity": 107, "channel": 0}, {"type": "note_on", "time": 31, "note": 55, "velocity": 86, "channel": 0}, {"type": "note_off", "time": 50, "note": 55, "velocity": 86, "channel": 0}, {"type": "note_on", "time": 18, "note": 60, "velocity": 114, "channel": 0}, {"type": "note_off", "time": 114, "note": 60, "velocity": 114, "channel": 0}, {"type": "note_on", "time": 97, "note": 55, "velocity": 102, "channel": 0}, {"type": "note_off", "time": 70, "note": 55, "velocity": 102, "channel": 0}, {"type": "note_on", "time": 26, "note": 60, "velocity": 109, "channel": 0}, {"type": "note_off", "time": 117, "note": 60, "velocity": 109, "channel": 0}, {"type": "note_on", "time": 0, "note": 58, "velocity": 104, "channel": 0}, {"type": "note_off", "time": 87, "note": 58, "velocity": 104, "channel": 0}, {"type": "note_on", "time": 0, "note": 60, "velocity": 110, "channel": 0}, {"type": "note_off", "time": 87, "note": 60, "velocity": 110, "channel": 0}, {"type": "note_on", "time": 7, "note": 62, "velocity": 100, "channel": 0}, {"type": "note_off", "time": 41, "note": 62, "velocity": 100, "channel": 0}, {"type": "note_on", "time": 122, "note": 69, "velocity": 120, "channel": 0}, {"type": "note_off", "time": 90, "note": 69, "velocity": 120, "channel": 0}, {"type": "note_on", "time": 14, "note": 68, "velocity": 117, "channel": 0}, {"type": "note_off", "time": 72, "note": 68, "velocity": 117, "channel": 0}, {"type": "note_on", "time": 9, "note": 67, "velocity": 112, "channel": 0}, {"type": "note_off", "time": 63, "note": 67, "velocity": 112, "channel": 0}, {"type": "note_on", "time": 44, "note": 65, "velocity": 112, "channel": 0}, {"type": "note_off", "time": 57, "note": 65, "velocity": 112, "channel": 0}, {"type": "note_on", "time": 3, "note": 63, "velocity": 116, "channel": 0}, {"type": "note_off", "time": 114, "note": 63, "velocity": 116, "channel": 0}, {"type": "note_on", "time": 17, "note": 67, "velocity": 102, "channel": 0}, {"type": "note_off", "time": 70, "note": 67, "velocity": 102, "channel": 0}, {"type": "note_on", "time": 0, "note": 69, "velocity": 114, "channel": 0}, {"type": "note_off", "time": 110, "note": 69, "velocity": 114, "channel": 0}, {"type": "note_on", "time": 20, "note": 74, "velocity": 112, "channel": 0}, {"type": "note_off", "time": 73, "note": 74, "velocity": 112, "channel": 0}, {"type": "note_on", "time": 107, "note": 74, "velocity": 112, "channel": 0}, {"type": "note_off", "time": 63, "note": 74, "velocity": 112, "channel": 0}, {"type": "note_on", "time": 26, "note": 71, "velocity": 112, "channel": 0}, {"type": "note_off", "time": 127, "note": 71, "velocity": 112, "channel": 0}, {"type": "note_on", "time": 419, "note": 72, "velocity": 111, "channel": 0}, {"type": "note_off", "time": 302, "note": 72, "velocity": 111, "channel": 0}, {"type": "note_on", "time": 33, "note": 68, "velocity": 96, "channel": 0}, {"type": "note_off", "time": 70, "note": 68, "velocity": 96, "channel": 0}, {"type": "note_on", "time": 33, "note": 70, "velocity": 109, "channel": 0}, {"type": "note_off", "time": 93, "note": 70, "velocity": 109, "channel": 0}, {"type": "note_on", "time": 0, "note": 66, "velocity": 107, "channel": 0}, {"type": "note_off", "time": 60, "note": 66, "velocity": 107, "channel": 0}, {"type": "note_on", "time": 0, "note": 63, "velocity": 114, "channel": 0}, {"type": "note_off", "time": 124, "note": 63, "velocity": 114, "channel": 0}, {"type": "note_on", "time": 39, "note": 58, "velocity": 101, "channel": 0}, {"type": "note_off", "time": 43, "note": 58, "velocity": 101, "channel": 0}, {"type": "note_on", "time": 24, "note": 65, "velocity": 107, "channel": 0}, {"type": "note_off", "time": 68, "note": 65, "velocity": 107, "channel": 0}, {"type": "note_on", "time": 6, "note": 66, "velocity": 105, "channel": 0}, {"type": "note_off", "time": 58, "note": 66, "velocity": 105, "channel": 0}, {"type": "note_on", "time": 391, "note": 70, "velocity": 105, "channel": 0}, {"type": "note_off", "time": 36, "note": 70, "velocity": 105, "channel": 0}, {"type": "note_on", "time": 15, "note": 74, "velocity": 116, "channel": 0}, {"type": "note_off", "time": 107, "note": 74, "velocity": 116, "channel": 0}, {"type": "note_on", "time": 15, "note": 73, "velocity": 118, "channel": 0}, {"type": "note_off", "time": 26, "note": 73, "velocity": 118, "channel": 0}, {"type": "note_on", "time": 6, "note": 71, "velocity": 123, "channel": 0}, {"type": "note_on", "time": 100, "note": 68, "velocity": 120, "channel": 0}, {"type": "note_off", "time": 0, "note": 71, "velocity": 123, "channel": 0}, {"type": "note_off", "time": 83, "note": 68, "velocity": 120, "channel": 0}, {"type": "note_on", "time": 17, "note": 67, "velocity": 115, "channel": 0}, {"type": "note_off", "time": 90, "note": 67, "velocity": 115, "channel": 0}, {"type": "note_on", "time": 3, "note": 65, "velocity": 112, "channel": 0}, {"type": "note_off", "time": 67, "note": 65, "velocity": 112, "channel": 0}, {"type": "note_on", "time": 6, "note": 63, "velocity": 119, "channel": 0}, {"type": "note_off", "time": 70, "note": 63, "velocity": 119, "channel": 0}, {"type": "note_on", "time": 3, "note": 60, "velocity": 108, "channel": 0}, {"type": "note_on", "time": 67, "note": 63, "velocity": 112, "channel": 0}, {"type": "note_off", "time": 0, "note": 60, "velocity": 108, "channel": 0}, {"type": "note_off", "time": 63, "note": 63, "velocity": 112, "channel": 0}, {"type": "note_on", "time": 0, "note": 67, "velocity": 113, "channel": 0}, {"type": "note_off", "time": 70, "note": 67, "velocity": 113, "channel": 0}, {"type": "note_on", "time": 33, "note": 62, "velocity": 103, "channel": 0}, {"type": "note_off", "time": 53, "note": 62, "velocity": 103, "channel": 0}, {"type": "note_on", "time": 6, "note": 65, "velocity": 107, "channel": 0}, {"type": "note_off", "time": 67, "note": 65, "velocity": 107, "channel": 0}, {"type": "note_on", "time": 13, "note": 68, "velocity": 114, "channel": 0}, {"type": "note_off", "time": 97, "note": 68, "velocity": 114, "channel": 0}, {"type": "note_on", "time": 492, "note": 66, "velocity": 106, "channel": 0}, {"type": "note_off", "time": 52, "note": 66, "velocity": 106, "channel": 0}, {"type": "note_on", "time": 15, "note": 68, "velocity": 112, "channel": 0}, {"type": "note_off", "time": 271, "note": 68, "velocity": 112, "channel": 0}, {"type": "note_on", "time": 5, "note": 67, "velocity": 112, "channel": 0}, {"type": "note_off", "time": 73, "note": 67, "velocity": 112, "channel": 0}, {"type": "note_on", "time": 15, "note": 65, "velocity": 110, "channel": 0}, {"type": "note_off", "time": 67, "note": 65, "velocity": 110, "channel": 0}, {"type": "note_on", "time": 0, "note": 63, "velocity": 117, "channel": 0}, {"type": "note_off", "time": 114, "note": 63, "velocity": 117, "channel": 0}, {"type": "note_on", "time": 73, "note": 59, "velocity": 106, "channel": 0}, {"type": "note_off", "time": 90, "note": 59, "velocity": 106, "channel": 0}, {"type": "note_on", "time": 0, "note": 62, "velocity": 112, "channel": 0}, {"type": "note_off", "time": 114, "note": 62, "velocity": 112, "channel": 0}, {"type": "note_on", "time": 12, "note": 60, "velocity": 111, "channel": 0}, {"type": "note_off", "time": 99, "note": 60, "velocity": 111, "channel": 0}, {"type": "note_on", "time": 8, "note": 62, "velocity": 113, "channel": 0}, {"type": "note_off", "time": 107, "note": 62, "velocity": 113, "channel": 0}, {"type": "note_on", "time": 73, "note": 65, "velocity": 111, "channel": 0}, {"type": "note_off", "time": 104, "note": 65, "velocity": 111, "channel": 0}, {"type": "note_on", "time": 6, "note": 66, "velocity": 110, "channel": 0}, {"type": "note_off", "time": 77, "note": 66, "velocity": 110, "channel": 0}, {"type": "note_on", "time": 26, "note": 67, "velocity": 115, "channel": 0}, {"type": "note_off", "time": 57, "note": 67, "velocity": 115, "channel": 0}, {"type": "note_on", "time": 3, "note": 68, "velocity": 114, "channel": 0}, {"type": "note_off", "time": 83, "note": 68, "velocity": 114, "channel": 0}, {"type": "note_on", "time": 16, "note": 66, "velocity": 105, "channel": 0}, {"type": "note_off", "time": 77, "note": 66, "velocity": 105, "channel": 0}, {"type": "note_on", "time": 20, "note": 67, "velocity": 111, "channel": 0}, {"type": "note_off", "time": 97, "note": 67, "velocity": 111, "channel": 0}, {"type": "note_on", "time": 0, "note": 63, "velocity": 118, "channel": 0}, {"type": "note_off", "time": 90, "note": 63, "velocity": 118, "channel": 0}, {"type": "note_on", "time": 0, "note": 62, "velocity": 113, "channel": 0}, {"type": "note_off", "time": 107, "note": 62, "velocity": 113, "channel": 0}, {"type": "note_on", "time": 0, "note": 65, "velocity": 113, "channel": 0}, {"type": "note_off", "time": 90, "note": 65, "velocity": 113, "channel": 0}, {"type": "note_on", "time": 3, "note": 63, "velocity": 117, "channel": 0}, {"type": "note_off", "time": 83, "note": 63, "velocity": 117, "channel": 0}, {"type": "note_on", "time": 13, "note": 60, "velocity": 107, "channel": 0}, {"type": "note_off", "time": 93, "note": 60, "velocity": 107, "channel": 0}, {"type": "note_on", "time": 6, "note": 59, "velocity": 104, "channel": 0}, {"type": "note_off", "time": 83, "note": 59, "velocity": 104, "channel": 0}, {"type": "note_on", "time": 0, "note": 62, "velocity": 111, "channel": 0}, {"type": "note_off", "time": 80, "note": 62, "velocity": 111, "channel": 0}, {"type": "note_on", "time": 13, "note": 60, "velocity": 104, "channel": 0}, {"type": "note_off", "time": 100, "note": 60, "velocity": 104, "channel": 0}, {"type": "note_on", "time": 13, "note": 62, "velocity": 109, "channel": 0}, {"type": "note_off", "time": 70, "note": 62, "velocity": 109, "channel": 0}, {"type": "note_on", "time": 191, "note": 72, "velocity": 113, "channel": 0}, {"type": "note_off", "time": 100, "note": 72, "velocity": 113, "channel": 0}, {"type": "note_on", "time": 10, "note": 66, "velocity": 102, "channel": 0}, {"type": "note_off", "time": 73, "note": 66, "velocity": 102, "channel": 0}, {"type": "note_on", "time": 0, "note": 67, "velocity": 102, "channel": 0}, {"type": "note_off", "time": 83, "note": 67, "velocity": 102, "channel": 0}, {"type": "note_on", "time": 3, "note": 70, "velocity": 110, "channel": 0}, {"type": "note_off", "time": 100, "note": 70, "velocity": 110, "channel": 0}, {"type": "note_on", "time": 0, "note": 68, "velocity": 109, "channel": 0}, {"type": "note_off", "time": 100, "note": 68, "velocity": 109, "channel": 0}, {"type": "note_on", "time": 10, "note": 67, "velocity": 110, "channel": 0}, {"type": "note_off", "time": 63, "note": 67, "velocity": 110, "channel": 0}, {"type": "note_on", "time": 21, "note": 64, "velocity": 110, "channel": 0}, {"type": "note_off", "time": 43, "note": 64, "velocity": 110, "channel": 0}, {"type": "note_on", "time": 5, "note": 60, "velocity": 92, "channel": 0}, {"type": "note_off", "time": 33, "note": 60, "velocity": 92, "channel": 0}, {"type": "note_on", "time": 127, "note": 67, "velocity": 112, "channel": 0}, {"type": "note_off", "time": 100, "note": 67, "velocity": 112, "channel": 0}, {"type": "note_on", "time": 0, "note": 65, "velocity": 107, "channel": 0}, {"type": "note_off", "time": 513, "note": 65, "velocity": 107, "channel": 0}, {"type": "note_on", "time": 3, "note": 63, "velocity": 118, "channel": 0}, {"type": "note_off", "time": 77, "note": 63, "velocity": 118, "channel": 0}, {"type": "note_on", "time": 10, "note": 65, "velocity": 116, "channel": 0}, {"type": "note_off", "time": 221, "note": 65, "velocity": 116, "channel": 0}, {"type": "note_on", "time": 23, "note": 63, "velocity": 122, "channel": 0}, {"type": "note_off", "time": 100, "note": 63, "velocity": 122, "channel": 0}, {"type": "note_on", "time": 0, "note": 65, "velocity": 113, "channel": 0}, {"type": "note_off", "time": 87, "note": 65, "velocity": 113, "channel": 0}, {"type": "note_on", "time": 0, "note": 63, "velocity": 116, "channel": 0}, {"type": "note_off", "time": 83, "note": 63, "velocity": 116, "channel": 0}, {"type": "note_on", "time": 12, "note": 60, "velocity": 109, "channel": 0}, {"type": "note_off", "time": 71, "note": 60, "velocity": 109, "channel": 0}, {"type": "note_on", "time": 13, "note": 58, "velocity": 106, "channel": 0}, {"type": "note_off", "time": 100, "note": 58, "velocity": 106, "channel": 0}, {"type": "note_on", "time": 0, "note": 56, "velocity": 106, "channel": 0}, {"type": "note_off", "time": 77, "note": 56, "velocity": 106, "channel": 0}, {"type": "note_on", "time": 0, "note": 55, "velocity": 70, "channel": 0}, {"type": "note_off", "time": 104, "note": 55, "velocity": 70, "channel": 0}, {"type": "note_on", "time": 3, "note": 57, "velocity": 103, "channel": 0}, {"type": "note_off", "time": 70, "note": 57, "velocity": 103, "channel": 0}, {"type": "note_on", "time": 23, "note": 59, "velocity": 103, "channel": 0}, {"type": "note_off", "time": 57, "note": 59, "velocity": 103, "channel": 0}, {"type": "note_on", "time": 53, "note": 62, "velocity": 115, "channel": 0}, {"type": "note_off", "time": 93, "note": 62, "velocity": 115, "channel": 0}, {"type": "note_on", "time": 0, "note": 60, "velocity": 104, "channel": 0}, {"type": "note_off", "time": 140, "note": 60, "velocity": 104, "channel": 0}, {"type": "note_on", "time": 3, "note": 62, "velocity": 114, "channel": 0}, {"type": "note_off", "time": 110, "note": 62, "velocity": 114, "channel": 0}, {"type": "note_on", "time": 12, "note": 63, "velocity": 118, "channel": 0}, {"type": "note_off", "time": 107, "note": 63, "velocity": 118, "channel": 0}, {"type": "note_on", "time": 303, "note": 62, "velocity": 116, "channel": 0}, {"type": "note_on", "time": 43, "note": 63, "velocity": 123, "channel": 0}, {"type": "note_off", "time": 0, "note": 62, "velocity": 116, "channel": 0}, {"type": "note_off", "time": 325, "note": 63, "velocity": 123, "channel": 0}, {"type": "note_on", "time": 16, "note": 62, "velocity": 117, "channel": 0}, {"type": "note_off", "time": 46, "note": 62, "velocity": 117, "channel": 0}, {"type": "note_on", "time": 16, "note": 63, "velocity": 122, "channel": 0}, {"type": "note_off", "time": 57, "note": 63, "velocity": 122, "channel": 0}, {"type": "note_on", "time": 30, "note": 65, "velocity": 112, "channel": 0}, {"type": "note_off", "time": 33, "note": 65, "velocity": 112, "channel": 0}, {"type": "note_on", "time": 10, "note": 66, "velocity": 115, "channel": 0}, {"type": "note_off", "time": 43, "note": 66, "velocity": 115, "channel": 0}, {"type": "note_on", "time": 10, "note": 68, "velocity": 120, "channel": 0}, {"type": "note_off", "time": 41, "note": 68, "velocity": 120, "channel": 0}, {"type": "note_on", "time": 4, "note": 70, "velocity": 119, "channel": 0}, {"type": "note_off", "time": 77, "note": 70, "velocity": 119, "channel": 0}, {"type": "note_on", "time": 0, "note": 73, "velocity": 121, "channel": 0}, {"type": "note_off", "time": 57, "note": 73, "velocity": 121, "channel": 0}, {"type": "note_on", "time": 16, "note": 72, "velocity": 121, "channel": 0}, {"type": "note_off", "time": 261, "note": 72, "velocity": 121, "channel": 0}, {"type": "note_on", "time": 13, "note": 70, "velocity": 119, "channel": 0}, {"type": "note_off", "time": 87, "note": 70, "velocity": 119, "channel": 0}, {"type": "note_on", "time": 0, "note": 62, "velocity": 105, "channel": 0}, {"type": "note_off", "time": 104, "note": 62, "velocity": 105, "channel": 0}, {"type": "note_on", "time": 20, "note": 65, "velocity": 107, "channel": 0}, {"type": "note_off", "time": 57, "note": 65, "velocity": 107, "channel": 0}, {"type": "note_on", "time": 13, "note": 67, "velocity": 110, "channel": 0}, {"type": "note_off", "time": 57, "note": 67, "velocity": 110, "channel": 0}, {"type": "note_on", "time": 3, "note": 69, "velocity": 116, "channel": 0}, {"type": "note_off", "time": 60, "note": 69, "velocity": 116, "channel": 0}, {"type": "note_on", "time": 0, "note": 72, "velocity": 120, "channel": 0}, {"type": "note_off", "time": 53, "note": 72, "velocity": 120, "channel": 0}, {"type": "note_on", "time": 3, "note": 71, "velocity": 118, "channel": 0}, {"type": "note_off", "time": 309, "note": 71, "velocity": 118, "channel": 0}, {"type": "note_on", "time": 5, "note": 68, "velocity": 117, "channel": 0}, {"type": "note_off", "time": 77, "note": 68, "velocity": 117, "channel": 0}, {"type": "note_on", "time": 0, "note": 67, "velocity": 119, "channel": 0}, {"type": "note_on", "time": 63, "note": 63, "velocity": 120, "channel": 0}, {"type": "note_off", "time": 0, "note": 67, "velocity": 119, "channel": 0}, {"type": "note_off", "time": 107, "note": 63, "velocity": 120, "channel": 0}, {"type": "note_on", "time": 725, "note": 70, "velocity": 108, "channel": 0}, {"type": "note_off", "time": 26, "note": 70, "velocity": 108, "channel": 0}, {"type": "note_on", "time": 0, "note": 71, "velocity": 121, "channel": 0}, {"type": "note_off", "time": 449, "note": 71, "velocity": 121, "channel": 0}, {"type": "note_on", "time": 67, "note": 67, "velocity": 105, "channel": 0}, {"type": "note_off", "time": 50, "note": 67, "velocity": 105, "channel": 0}, {"type": "note_on", "time": 40, "note": 71, "velocity": 117, "channel": 0}, {"type": "note_off", "time": 26, "note": 71, "velocity": 117, "channel": 0}, {"type": "note_on", "time": 10, "note": 72, "velocity": 121, "channel": 0}, {"type": "note_off", "time": 315, "note": 72, "velocity": 121, "channel": 0}, {"type": "note_on", "time": 38, "note": 75, "velocity": 101, "channel": 0}, {"type": "note_off", "time": 45, "note": 75, "velocity": 101, "channel": 0}, {"type": "note_on", "time": 97, "note": 79, "velocity": 127, "channel": 0}, {"type": "note_off", "time": 362, "note": 79, "velocity": 127, "channel": 0}, {"type": "note_on", "time": 0, "note": 77, "velocity": 93, "channel": 0}, {"type": "note_off", "time": 120, "note": 77, "velocity": 93, "channel": 0}, {"type": "note_on", "time": 36, "note": 75, "velocity": 115, "channel": 0}, {"type": "note_off", "time": 104, "note": 75, "velocity": 115, "channel": 0}, {"type": "note_on", "time": 23, "note": 77, "velocity": 103, "channel": 0}, {"type": "note_off", "time": 114, "note": 77, "velocity": 103, "channel": 0}, {"type": "note_on", "time": 10, "note": 79, "velocity": 115, "channel": 0}, {"type": "note_off", "time": 130, "note": 79, "velocity": 115, "channel": 0}, {"type": "note_on", "time": 57, "note": 77, "velocity": 96, "channel": 0}, {"type": "note_off", "time": 80, "note": 77, "velocity": 96, "channel": 0}, {"type": "note_on", "time": 53, "note": 75, "velocity": 115, "channel": 0}, {"type": "note_off", "time": 617, "note": 75, "velocity": 115, "channel": 0}, {"type": "note_on", "time": 0, "note": 72, "velocity": 116, "channel": 0}, {"type": "note_off", "time": 258, "note": 72, "velocity": 116, "channel": 0}, {"type": "note_on", "time": 70, "note": 70, "velocity": 95, "channel": 0}, {"type": "note_off", "time": 80, "note": 70, "velocity": 95, "channel": 0}, {"type": "note_on", "time": 10, "note": 72, "velocity": 117, "channel": 0}, {"type": "note_off", "time": 275, "note": 72, "velocity": 117, "channel": 0}, {"type": "note_on", "time": 36, "note": 70, "velocity": 115, "channel": 0}, {"type": "note_off", "time": 80, "note": 70, "velocity": 115, "channel": 0}, {"type": "note_on", "time": 10, "note": 68, "velocity": 116, "channel": 0}, {"type": "note_off", "time": 87, "note": 68, "velocity": 116, "channel": 0}, {"type": "note_on", "time": 0, "note": 63, "velocity": 107, "channel": 0}, {"type": "note_off", "time": 43, "note": 63, "velocity": 107, "channel": 0}, {"type": "note_on", "time": 15, "note": 64, "velocity": 114, "channel": 0}, {"type": "note_off", "time": 113, "note": 64, "velocity": 114, "channel": 0}, {"type": "note_on", "time": 11, "note": 67, "velocity": 113, "channel": 0}, {"type": "note_off", "time": 87, "note": 67, "velocity": 113, "channel": 0}, {"type": "note_on", "time": 13, "note": 65, "velocity": 109, "channel": 0}, {"type": "note_off", "time": 87, "note": 65, "velocity": 109, "channel": 0}, {"type": "note_on", "time": 13, "note": 68, "velocity": 114, "channel": 0}, {"type": "note_off", "time": 80, "note": 68, "velocity": 114, "channel": 0}, {"type": "note_on", "time": 16, "note": 72, "velocity": 96, "channel": 0}, {"type": "note_off", "time": 124, "note": 72, "velocity": 96, "channel": 0}, {"type": "note_on", "time": 6, "note": 73, "velocity": 92, "channel": 0}, {"type": "note_off", "time": 46, "note": 73, "velocity": 92, "channel": 0}, {"type": "note_on", "time": 10, "note": 75, "velocity": 114, "channel": 0}, {"type": "note_off", "time": 110, "note": 75, "velocity": 114, "channel": 0}, {"type": "note_on", "time": 0, "note": 72, "velocity": 115, "channel": 0}, {"type": "note_off", "time": 83, "note": 72, "velocity": 115, "channel": 0}, {"type": "note_on", "time": 8, "note": 68, "velocity": 113, "channel": 0}, {"type": "note_off", "time": 80, "note": 68, "velocity": 113, "channel": 0}, {"type": "note_on", "time": 8, "note": 67, "velocity": 112, "channel": 0}, {"type": "note_off", "time": 100, "note": 67, "velocity": 112, "channel": 0}, {"type": "note_on", "time": 16, "note": 65, "velocity": 108, "channel": 0}, {"type": "note_off", "time": 130, "note": 65, "velocity": 108, "channel": 0}, {"type": "note_on", "time": 335, "note": 67, "velocity": 112, "channel": 0}, {"type": "note_off", "time": 97, "note": 67, "velocity": 112, "channel": 0}, {"type": "note_on", "time": 0, "note": 66, "velocity": 108, "channel": 0}, {"type": "note_off", "time": 80, "note": 66, "velocity": 108, "channel": 0}, {"type": "note_on", "time": 20, "note": 65, "velocity": 112, "channel": 0}, {"type": "note_off", "time": 70, "note": 65, "velocity": 112, "channel": 0}, {"type": "note_on", "time": 3, "note": 64, "velocity": 104, "channel": 0}, {"type": "note_off", "time": 100, "note": 64, "velocity": 104, "channel": 0}, {"type": "note_on", "time": 0, "note": 63, "velocity": 114, "channel": 0}, {"type": "note_off", "time": 87, "note": 63, "velocity": 114, "channel": 0}, {"type": "note_on", "time": 0, "note": 62, "velocity": 111, "channel": 0}, {"type": "note_off", "time": 87, "note": 62, "velocity": 111, "channel": 0}, {"type": "note_on", "time": 3, "note": 60, "velocity": 107, "channel": 0}, {"type": "note_off", "time": 130, "note": 60, "velocity": 107, "channel": 0}, {"type": "note_on", "time": 3, "note": 59, "velocity": 103, "channel": 0}, {"type": "note_off", "time": 53, "note": 59, "velocity": 103, "channel": 0}, {"type": "note_on", "time": 10, "note": 60, "velocity": 109, "channel": 0}, {"type": "note_off", "time": 77, "note": 60, "velocity": 109, "channel": 0}, {"type": "note_on", "time": 16, "note": 62, "velocity": 117, "channel": 0}, {"type": "note_off", "time": 80, "note": 62, "velocity": 117, "channel": 0}, {"type": "note_on", "time": 3, "note": 63, "velocity": 117, "channel": 0}, {"type": "note_off", "time": 97, "note": 63, "velocity": 117, "channel": 0}, {"type": "note_on", "time": 20, "note": 60, "velocity": 105, "channel": 0}, {"type": "note_off", "time": 127, "note": 60, "velocity": 105, "channel": 0}, {"type": "note_on", "time": 0, "note": 62, "velocity": 107, "channel": 0}, {"type": "note_off", "time": 36, "note": 62, "velocity": 107, "channel": 0}, {"type": "note_on", "time": 6, "note": 63, "velocity": 111, "channel": 0}, {"type": "note_off", "time": 100, "note": 63, "velocity": 111, "channel": 0}, {"type": "note_on", "time": 50, "note": 65, "velocity": 109, "channel": 0}, {"type": "note_off", "time": 80, "note": 65, "velocity": 109, "channel": 0}, {"type": "note_on", "time": 6, "note": 66, "velocity": 107, "channel": 0}, {"type": "note_off", "time": 87, "note": 66, "velocity": 107, "channel": 0}, {"type": "note_on", "time": 13, "note": 68, "velocity": 111, "channel": 0}, {"type": "note_off", "time": 90, "note": 68, "velocity": 111, "channel": 0}, {"type": "note_on", "time": 0, "note": 70, "velocity": 114, "channel": 0}, {"type": "note_off", "time": 97, "note": 70, "velocity": 114, "channel": 0}, {"type": "note_on", "time": 3, "note": 73, "velocity": 114, "channel": 0}, {"type": "note_off", "time": 117, "note": 73, "velocity": 114, "channel": 0}, {"type": "note_on", "time": 0, "note": 70, "velocity": 111, "channel": 0}, {"type": "note_off", "time": 87, "note": 70, "velocity": 111, "channel": 0}, {"type": "note_on", "time": 0, "note": 66, "velocity": 109, "channel": 0}, {"type": "note_off", "time": 78, "note": 66, "velocity": 109, "channel": 0}, {"type": "note_on", "time": 0, "note": 63, "velocity": 115, "channel": 0}, {"type": "note_off", "time": 114, "note": 63, "velocity": 115, "channel": 0}, {"type": "note_on", "time": 9, "note": 61, "velocity": 87, "channel": 0}, {"type": "note_off", "time": 54, "note": 61, "velocity": 87, "channel": 0}, {"type": "note_on", "time": 7, "note": 62, "velocity": 108, "channel": 0}, {"type": "note_off", "time": 117, "note": 62, "velocity": 108, "channel": 0}, {"type": "note_on", "time": 0, "note": 64, "velocity": 113, "channel": 0}, {"type": "note_off", "time": 93, "note": 64, "velocity": 113, "channel": 0}, {"type": "note_on", "time": 5, "note": 65, "velocity": 117, "channel": 0}, {"type": "note_off", "time": 82, "note": 65, "velocity": 117, "channel": 0}, {"type": "note_on", "time": 18, "note": 62, "velocity": 105, "channel": 0}, {"type": "note_off", "time": 52, "note": 62, "velocity": 105, "channel": 0}, {"type": "note_on", "time": 16, "note": 67, "velocity": 112, "channel": 0}, {"type": "note_off", "time": 76, "note": 67, "velocity": 112, "channel": 0}, {"type": "note_on", "time": 25, "note": 63, "velocity": 121, "channel": 0}, {"type": "note_off", "time": 97, "note": 63, "velocity": 121, "channel": 0}, {"type": "note_on", "time": 3, "note": 59, "velocity": 98, "channel": 0}, {"type": "note_off", "time": 120, "note": 59, "velocity": 98, "channel": 0}, {"type": "note_on", "time": 43, "note": 63, "velocity": 111, "channel": 0}, {"type": "note_off", "time": 67, "note": 63, "velocity": 111, "channel": 0}, {"type": "note_on", "time": 13, "note": 60, "velocity": 108, "channel": 0}, {"type": "note_off", "time": 70, "note": 60, "velocity": 108, "channel": 0}, {"type": "note_on", "time": 0, "note": 63, "velocity": 116, "channel": 0}, {"type": "note_off", "time": 63, "note": 63, "velocity": 116, "channel": 0}, {"type": "note_on", "time": 16, "note": 67, "velocity": 111, "channel": 0}, {"type": "note_off", "time": 77, "note": 67, "velocity": 111, "channel": 0}, {"type": "note_on", "time": 0, "note": 63, "velocity": 110, "channel": 0}, {"type": "note_off", "time": 60, "note": 63, "velocity": 110, "channel": 0}, {"type": "note_on", "time": 0, "note": 67, "velocity": 115, "channel": 0}, {"type": "note_on", "time": 53, "note": 70, "velocity": 120, "channel": 0}, {"type": "note_off", "time": 0, "note": 67, "velocity": 115, "channel": 0}, {"type": "note_off", "time": 177, "note": 70, "velocity": 120, "channel": 0}, {"type": "note_on", "time": 349, "note": 68, "velocity": 117, "channel": 0}, {"type": "note_off", "time": 83, "note": 68, "velocity": 117, "channel": 0}, {"type": "note_on", "time": 13, "note": 70, "velocity": 119, "channel": 0}, {"type": "note_off", "time": 805, "note": 70, "velocity": 119, "channel": 0}, {"type": "note_on", "time": 10, "note": 67, "velocity": 112, "channel": 0}, {"type": "note_off", "time": 93, "note": 67, "velocity": 112, "channel": 0}, {"type": "note_on", "time": 16, "note": 63, "velocity": 117, "channel": 0}, {"type": "note_off", "time": 70, "note": 63, "velocity": 117, "channel": 0}, {"type": "note_on", "time": 0, "note": 60, "velocity": 110, "channel": 0}, {"type": "note_off", "time": 53, "note": 60, "velocity": 110, "channel": 0}, {"type": "note_on", "time": 3, "note": 63, "velocity": 115, "channel": 0}, {"type": "note_off", "time": 63, "note": 63, "velocity": 115, "channel": 0}, {"type": "note_on", "time": 20, "note": 67, "velocity": 111, "channel": 0}, {"type": "note_off", "time": 67, "note": 67, "velocity": 111, "channel": 0}, {"type": "note_on", "time": 16, "note": 70, "velocity": 119, "channel": 0}, {"type": "note_off", "time": 63, "note": 70, "velocity": 119, "channel": 0}, {"type": "note_on", "time": 6, "note": 67, "velocity": 106, "channel": 0}, {"type": "note_off", "time": 73, "note": 67, "velocity": 106, "channel": 0}, {"type": "note_on", "time": 20, "note": 63, "velocity": 110, "channel": 0}, {"type": "note_off", "time": 73, "note": 63, "velocity": 110, "channel": 0}, {"type": "note_on", "time": 16, "note": 60, "velocity": 111, "channel": 0}, {"type": "note_off", "time": 46, "note": 60, "velocity": 111, "channel": 0}, {"type": "note_on", "time": 0, "note": 63, "velocity": 112, "channel": 0}, {"type": "note_off", "time": 57, "note": 63, "velocity": 112, "channel": 0}, {"type": "note_on", "time": 6, "note": 66, "velocity": 108, "channel": 0}, {"type": "note_off", "time": 70, "note": 66, "velocity": 108, "channel": 0}, {"type": "note_on", "time": 11, "note": 67, "velocity": 113, "channel": 0}, {"type": "note_off", "time": 50, "note": 67, "velocity": 113, "channel": 0}, {"type": "note_on", "time": 1, "note": 69, "velocity": 110, "channel": 0}, {"type": "note_off", "time": 73, "note": 69, "velocity": 110, "channel": 0}, {"type": "note_on", "time": 20, "note": 66, "velocity": 106, "channel": 0}, {"type": "note_off", "time": 88, "note": 66, "velocity": 106, "channel": 0}, {"type": "note_on", "time": 11, "note": 62, "velocity": 117, "channel": 0}, {"type": "note_off", "time": 63, "note": 62, "velocity": 117, "channel": 0}, {"type": "note_on", "time": 16, "note": 63, "velocity": 113, "channel": 0}, {"type": "note_off", "time": 71, "note": 63, "velocity": 113, "channel": 0}, {"type": "note_on", "time": 1, "note": 66, "velocity": 107, "channel": 0}, {"type": "note_off", "time": 46, "note": 66, "velocity": 107, "channel": 0}, {"type": "note_on", "time": 17, "note": 67, "velocity": 115, "channel": 0}, {"type": "note_off", "time": 44, "note": 67, "velocity": 115, "channel": 0}, {"type": "note_on", "time": 0, "note": 70, "velocity": 118, "channel": 0}, {"type": "note_off", "time": 486, "note": 70, "velocity": 118, "channel": 0}, {"type": "note_on", "time": 10, "note": 67, "velocity": 113, "channel": 0}, {"type": "note_off", "time": 43, "note": 67, "velocity": 113, "channel": 0}, {"type": "note_on", "time": 23, "note": 63, "velocity": 120, "channel": 0}, {"type": "note_off", "time": 65, "note": 63, "velocity": 120, "channel": 0}, {"type": "note_on", "time": 9, "note": 60, "velocity": 104, "channel": 0}, {"type": "note_off", "time": 25, "note": 60, "velocity": 104, "channel": 0}, {"type": "note_on", "time": 8, "note": 63, "velocity": 110, "channel": 0}, {"type": "note_off", "time": 51, "note": 63, "velocity": 110, "channel": 0}, {"type": "note_on", "time": 3, "note": 67, "velocity": 109, "channel": 0}, {"type": "note_off", "time": 36, "note": 67, "velocity": 109, "channel": 0}, {"type": "note_on", "time": 7, "note": 68, "velocity": 117, "channel": 0}, {"type": "note_off", "time": 36, "note": 68, "velocity": 117, "channel": 0}, {"type": "note_on", "time": 3, "note": 70, "velocity": 119, "channel": 0}, {"type": "note_off", "time": 73, "note": 70, "velocity": 119, "channel": 0}, {"type": "note_on", "time": 3, "note": 67, "velocity": 117, "channel": 0}, {"type": "note_off", "time": 83, "note": 67, "velocity": 117, "channel": 0}, {"type": "note_on", "time": 14, "note": 63, "velocity": 120, "channel": 0}, {"type": "note_off", "time": 67, "note": 63, "velocity": 120, "channel": 0}, {"type": "note_on", "time": 11, "note": 60, "velocity": 106, "channel": 0}, {"type": "note_off", "time": 60, "note": 60, "velocity": 106, "channel": 0}, {"type": "note_on", "time": 11, "note": 63, "velocity": 101, "channel": 0}, {"type": "note_off", "time": 31, "note": 63, "velocity": 101, "channel": 0}, {"type": "note_on", "time": 18, "note": 67, "velocity": 116, "channel": 0}, {"type": "note_off", "time": 28, "note": 67, "velocity": 116, "channel": 0}, {"type": "note_on", "time": 3, "note": 70, "velocity": 117, "channel": 0}, {"type": "note_off", "time": 171, "note": 70, "velocity": 117, "channel": 0}, {"type": "note_on", "time": 295, "note": 70, "velocity": 95, "channel": 0}, {"type": "note_off", "time": 29, "note": 70, "velocity": 95, "channel": 0}, {"type": "note_on", "time": 12, "note": 71, "velocity": 111, "channel": 0}, {"type": "note_off", "time": 34, "note": 71, "velocity": 111, "channel": 0}, {"type": "note_on", "time": 7, "note": 74, "velocity": 116, "channel": 0}, {"type": "note_off", "time": 49, "note": 74, "velocity": 116, "channel": 0}, {"type": "note_on", "time": 6, "note": 75, "velocity": 120, "channel": 0}, {"type": "note_off", "time": 137, "note": 75, "velocity": 120, "channel": 0}, {"type": "note_on", "time": 7, "note": 74, "velocity": 117, "channel": 0}, {"type": "note_off", "time": 31, "note": 74, "velocity": 117, "channel": 0}, {"type": "note_on", "time": 4, "note": 72, "velocity": 115, "channel": 0}, {"type": "note_off", "time": 40, "note": 72, "velocity": 115, "channel": 0}, {"type": "note_on", "time": 10, "note": 70, "velocity": 117, "channel": 0}, {"type": "note_off", "time": 32, "note": 70, "velocity": 117, "channel": 0}, {"type": "note_on", "time": 16, "note": 68, "velocity": 119, "channel": 0}, {"type": "note_off", "time": 49, "note": 68, "velocity": 119, "channel": 0}, {"type": "note_on", "time": 18, "note": 65, "velocity": 114, "channel": 0}, {"type": "note_off", "time": 43, "note": 65, "velocity": 114, "channel": 0}, {"type": "note_on", "time": 23, "note": 68, "velocity": 116, "channel": 0}, {"type": "note_off", "time": 57, "note": 68, "velocity": 116, "channel": 0}, {"type": "note_on", "time": 13, "note": 70, "velocity": 112, "channel": 0}, {"type": "note_off", "time": 40, "note": 70, "velocity": 112, "channel": 0}, {"type": "note_on", "time": 15, "note": 75, "velocity": 118, "channel": 0}, {"type": "note_off", "time": 110, "note": 75, "velocity": 118, "channel": 0}, {"type": "note_on", "time": 14, "note": 72, "velocity": 118, "channel": 0}, {"type": "note_off", "time": 48, "note": 72, "velocity": 118, "channel": 0}, {"type": "note_on", "time": 24, "note": 68, "velocity": 115, "channel": 0}, {"type": "note_off", "time": 78, "note": 68, "velocity": 115, "channel": 0}, {"type": "note_on", "time": 11, "note": 65, "velocity": 106, "channel": 0}, {"type": "note_off", "time": 36, "note": 65, "velocity": 106, "channel": 0}, {"type": "note_on", "time": 16, "note": 62, "velocity": 98, "channel": 0}, {"type": "note_off", "time": 67, "note": 62, "velocity": 98, "channel": 0}, {"type": "note_on", "time": 10, "note": 63, "velocity": 113, "channel": 0}, {"type": "note_off", "time": 44, "note": 63, "velocity": 113, "channel": 0}, {"type": "note_on", "time": 10, "note": 67, "velocity": 112, "channel": 0}, {"type": "note_off", "time": 54, "note": 67, "velocity": 112, "channel": 0}, {"type": "note_on", "time": 8, "note": 70, "velocity": 117, "channel": 0}, {"type": "note_off", "time": 278, "note": 70, "velocity": 117, "channel": 0}, {"type": "note_on", "time": 0, "note": 67, "velocity": 111, "channel": 0}, {"type": "note_off", "time": 63, "note": 67, "velocity": 111, "channel": 0}, {"type": "note_on", "time": 0, "note": 65, "velocity": 106, "channel": 0}, {"type": "note_off", "time": 30, "note": 65, "velocity": 106, "channel": 0}, {"type": "note_on", "time": 13, "note": 63, "velocity": 114, "channel": 0}, {"type": "note_off", "time": 60, "note": 63, "velocity": 114, "channel": 0}, {"type": "note_on", "time": 0, "note": 60, "velocity": 107, "channel": 0}, {"type": "note_on", "time": 46, "note": 63, "velocity": 111, "channel": 0}, {"type": "note_off", "time": 0, "note": 60, "velocity": 107, "channel": 0}, {"type": "note_off", "time": 46, "note": 63, "velocity": 111, "channel": 0}, {"type": "note_on", "time": 0, "note": 67, "velocity": 111, "channel": 0}, {"type": "note_off", "time": 77, "note": 67, "velocity": 111, "channel": 0}, {"type": "note_on", "time": 6, "note": 70, "velocity": 115, "channel": 0}, {"type": "note_off", "time": 40, "note": 70, "velocity": 115, "channel": 0}, {"type": "note_on", "time": 3, "note": 67, "velocity": 108, "channel": 0}, {"type": "note_off", "time": 60, "note": 67, "velocity": 108, "channel": 0}, {"type": "note_on", "time": 3, "note": 63, "velocity": 116, "channel": 0}, {"type": "note_off", "time": 67, "note": 63, "velocity": 116, "channel": 0}, {"type": "note_on", "time": 0, "note": 60, "velocity": 106, "channel": 0}, {"type": "note_off", "time": 40, "note": 60, "velocity": 106, "channel": 0}, {"type": "note_on", "time": 0, "note": 63, "velocity": 115, "channel": 0}, {"type": "note_off", "time": 50, "note": 63, "velocity": 115, "channel": 0}, {"type": "note_on", "time": 6, "note": 65, "velocity": 107, "channel": 0}, {"type": "note_off", "time": 43, "note": 65, "velocity": 107, "channel": 0}, {"type": "note_on", "time": 3, "note": 67, "velocity": 109, "channel": 0}, {"type": "note_off", "time": 43, "note": 67, "velocity": 109, "channel": 0}, {"type": "note_on", "time": 0, "note": 70, "velocity": 116, "channel": 0}, {"type": "note_off", "time": 46, "note": 70, "velocity": 116, "channel": 0}, {"type": "note_on", "time": 10, "note": 67, "velocity": 112, "channel": 0}, {"type": "note_off", "time": 53, "note": 67, "velocity": 112, "channel": 0}, {"type": "note_on", "time": 13, "note": 65, "velocity": 113, "channel": 0}, {"type": "note_off", "time": 60, "note": 65, "velocity": 113, "channel": 0}, {"type": "note_on", "time": 0, "note": 63, "velocity": 117, "channel": 0}, {"type": "note_off", "time": 57, "note": 63, "velocity": 117, "channel": 0}, {"type": "note_on", "time": 30, "note": 67, "velocity": 119, "channel": 0}, {"type": "note_off", "time": 90, "note": 67, "velocity": 119, "channel": 0}, {"type": "note_on", "time": 3, "note": 70, "velocity": 121, "channel": 0}, {"type": "note_off", "time": 167, "note": 70, "velocity": 121, "channel": 0}, {"type": "note_on", "time": 419, "note": 70, "velocity": 106, "channel": 0}, {"type": "note_off", "time": 45, "note": 70, "velocity": 106, "channel": 0}, {"type": "note_on", "time": 8, "note": 74, "velocity": 121, "channel": 0}, {"type": "note_off", "time": 140, "note": 74, "velocity": 121, "channel": 0}, {"type": "note_on", "time": 13, "note": 73, "velocity": 118, "channel": 0}, {"type": "note_off", "time": 67, "note": 73, "velocity": 118, "channel": 0}, {"type": "note_on", "time": 13, "note": 72, "velocity": 115, "channel": 0}, {"type": "note_off", "time": 36, "note": 72, "velocity": 115, "channel": 0}, {"type": "note_on", "time": 26, "note": 71, "velocity": 118, "channel": 0}, {"type": "note_off", "time": 110, "note": 71, "velocity": 118, "channel": 0}, {"type": "note_on", "time": 0, "note": 68, "velocity": 113, "channel": 0}, {"type": "note_off", "time": 104, "note": 68, "velocity": 113, "channel": 0}, {"type": "note_on", "time": 3, "note": 67, "velocity": 108, "channel": 0}, {"type": "note_off", "time": 73, "note": 67, "velocity": 108, "channel": 0}, {"type": "note_on", "time": 16, "note": 66, "velocity": 110, "channel": 0}, {"type": "note_off", "time": 87, "note": 66, "velocity": 110, "channel": 0}, {"type": "note_on", "time": 5, "note": 65, "velocity": 107, "channel": 0}, {"type": "note_off", "time": 65, "note": 65, "velocity": 107, "channel": 0}, {"type": "note_on", "time": 15, "note": 63, "velocity": 117, "channel": 0}, {"type": "note_off", "time": 62, "note": 63, "velocity": 117, "channel": 0}, {"type": "note_on", "time": 1, "note": 62, "velocity": 108, "channel": 0}, {"type": "note_off", "time": 90, "note": 62, "velocity": 108, "channel": 0}, {"type": "note_on", "time": 26, "note": 60, "velocity": 111, "channel": 0}, {"type": "note_off", "time": 90, "note": 60, "velocity": 111, "channel": 0}, {"type": "note_on", "time": 0, "note": 59, "velocity": 111, "channel": 0}, {"type": "note_off", "time": 80, "note": 59, "velocity": 111, "channel": 0}, {"type": "note_on", "time": 6, "note": 55, "velocity": 100, "channel": 0}, {"type": "note_off", "time": 60, "note": 55, "velocity": 100, "channel": 0}, {"type": "note_on", "time": 36, "note": 59, "velocity": 104, "channel": 0}, {"type": "note_off", "time": 77, "note": 59, "velocity": 104, "channel": 0}, {"type": "note_on", "time": 30, "note": 62, "velocity": 109, "channel": 0}, {"type": "note_off", "time": 70, "note": 62, "velocity": 109, "channel": 0}, {"type": "note_on", "time": 10, "note": 60, "velocity": 106, "channel": 0}, {"type": "note_off", "time": 83, "note": 60, "velocity": 106, "channel": 0}, {"type": "note_on", "time": 20, "note": 62, "velocity": 114, "channel": 0}, {"type": "note_off", "time": 77, "note": 62, "velocity": 114, "channel": 0}, {"type": "note_on", "time": 23, "note": 63, "velocity": 110, "channel": 0}, {"type": "note_off", "time": 83, "note": 63, "velocity": 110, "channel": 0}, {"type": "note_on", "time": 23, "note": 65, "velocity": 116, "channel": 0}, {"type": "note_off", "time": 57, "note": 65, "velocity": 116, "channel": 0}, {"type": "note_on", "time": 3, "note": 67, "velocity": 115, "channel": 0}, {"type": "note_off", "time": 97, "note": 67, "velocity": 115, "channel": 0}, {"type": "note_on", "time": 0, "note": 63, "velocity": 117, "channel": 0}, {"type": "note_off", "time": 80, "note": 63, "velocity": 117, "channel": 0}, {"type": "note_on", "time": 0, "note": 60, "velocity": 110, "channel": 0}, {"type": "note_off", "time": 127, "note": 60, "velocity": 110, "channel": 0}, {"type": "note_on", "time": 57, "note": 65, "velocity": 114, "channel": 0}, {"type": "note_off", "time": 124, "note": 65, "velocity": 114, "channel": 0}, {"type": "note_on", "time": 3, "note": 62, "velocity": 119, "channel": 0}, {"type": "note_on", "time": 63, "note": 59, "velocity": 109, "channel": 0}, {"type": "note_off", "time": 0, "note": 62, "velocity": 119, "channel": 0}, {"type": "note_off", "time": 83, "note": 59, "velocity": 109, "channel": 0}, {"type": "note_on", "time": 36, "note": 55, "velocity": 108, "channel": 0}, {"type": "note_off", "time": 60, "note": 55, "velocity": 108, "channel": 0}, {"type": "note_on", "time": 0, "note": 63, "velocity": 121, "channel": 0}, {"type": "note_off", "time": 100, "note": 63, "velocity": 121, "channel": 0}, {"type": "note_on", "time": 23, "note": 60, "velocity": 105, "channel": 0}, {"type": "note_off", "time": 70, "note": 60, "velocity": 105, "channel": 0}, {"type": "note_on", "time": 0, "note": 63, "velocity": 121, "channel": 0}, {"type": "note_off", "time": 97, "note": 63, "velocity": 121, "channel": 0}, {"type": "note_on", "time": 20, "note": 67, "velocity": 117, "channel": 0}, {"type": "note_off", "time": 87, "note": 67, "velocity": 117, "channel": 0}, {"type": "note_on", "time": 104, "note": 67, "velocity": 120, "channel": 0}, {"type": "note_off", "time": 87, "note": 67, "velocity": 120, "channel": 0}, {"type": "note_on", "time": 6, "note": 65, "velocity": 114, "channel": 0}, {"type": "note_on", "time": 114, "note": 68, "velocity": 119, "channel": 0}, {"type": "note_off", "time": 0, "note": 65, "velocity": 114, "channel": 0}, {"type": "note_off", "time": 473, "note": 68, "velocity": 119, "channel": 0}, {"type": "note_on", "time": 3, "note": 67, "velocity": 117, "channel": 0}, {"type": "note_off", "time": 63, "note": 67, "velocity": 117, "channel": 0}, {"type": "note_on", "time": 16, "note": 68, "velocity": 122, "channel": 0}, {"type": "note_off", "time": 67, "note": 68, "velocity": 122, "channel": 0}, {"type": "note_on", "time": 20, "note": 67, "velocity": 114, "channel": 0}, {"type": "note_off", "time": 80, "note": 67, "velocity": 114, "channel": 0}, {"type": "note_on", "time": 43, "note": 65, "velocity": 116, "channel": 0}, {"type": "note_off", "time": 77, "note": 65, "velocity": 116, "channel": 0}, {"type": "note_on", "time": 3, "note": 63, "velocity": 120, "channel": 0}, {"type": "note_off", "time": 60, "note": 63, "velocity": 120, "channel": 0}, {"type": "note_on", "time": 33, "note": 60, "velocity": 115, "channel": 0}, {"type": "note_off", "time": 117, "note": 60, "velocity": 115, "channel": 0}, {"type": "note_on", "time": 543, "note": 64, "velocity": 123, "channel": 0}, {"type": "note_off", "time": 117, "note": 64, "velocity": 123, "channel": 0}, {"type": "note_on", "time": 3, "note": 67, "velocity": 99, "channel": 0}, {"type": "note_on", "time": 104, "note": 70, "velocity": 117, "channel": 0}, {"type": "note_off", "time": 0, "note": 67, "velocity": 99, "channel": 0}, {"type": "note_off", "time": 90, "note": 70, "velocity": 117, "channel": 0}, {"type": "note_on", "time": 43, "note": 75, "velocity": 105, "channel": 0}, {"type": "note_off", "time": 100, "note": 75, "velocity": 105, "channel": 0}, {"type": "note_on", "time": 57, "note": 75, "velocity": 119, "channel": 0}, {"type": "note_off", "time": 87, "note": 75, "velocity": 119, "channel": 0}, {"type": "note_on", "time": 10, "note": 73, "velocity": 118, "channel": 0}, {"type": "note_off", "time": 70, "note": 73, "velocity": 118, "channel": 0}, {"type": "note_on", "time": 6, "note": 72, "velocity": 114, "channel": 0}, {"type": "note_off", "time": 345, "note": 72, "velocity": 114, "channel": 0}, {"type": "note_on", "time": 26, "note": 70, "velocity": 109, "channel": 0}, {"type": "note_on", "time": 53, "note": 68, "velocity": 116, "channel": 0}, {"type": "note_off", "time": 0, "note": 70, "velocity": 109, "channel": 0}, {"type": "note_off", "time": 60, "note": 68, "velocity": 116, "channel": 0}, {"type": "note_on", "time": 0, "note": 67, "velocity": 116, "channel": 0}, {"type": "note_off", "time": 258, "note": 67, "velocity": 116, "channel": 0}, {"type": "note_on", "time": 14, "note": 65, "velocity": 112, "channel": 0}, {"type": "note_off", "time": 38, "note": 65, "velocity": 112, "channel": 0}, {"type": "note_on", "time": 6, "note": 63, "velocity": 114, "channel": 0}, {"type": "note_off", "time": 52, "note": 63, "velocity": 114, "channel": 0}, {"type": "note_on", "time": 10, "note": 60, "velocity": 111, "channel": 0}, {"type": "note_off", "time": 63, "note": 60, "velocity": 111, "channel": 0}, {"type": "note_on", "time": 0, "note": 58, "velocity": 106, "channel": 0}, {"type": "note_off", "time": 43, "note": 58, "velocity": 106, "channel": 0}, {"type": "note_on", "time": 1, "note": 56, "velocity": 110, "channel": 0}, {"type": "note_off", "time": 60, "note": 56, "velocity": 110, "channel": 0}, {"type": "note_on", "time": 0, "note": 55, "velocity": 110, "channel": 0}, {"type": "note_off", "time": 60, "note": 55, "velocity": 110, "channel": 0}, {"type": "note_on", "time": 2, "note": 53, "velocity": 109, "channel": 0}, {"type": "note_off", "time": 70, "note": 53, "velocity": 109, "channel": 0}, {"type": "note_on", "time": 0, "note": 51, "velocity": 116, "channel": 0}, {"type": "note_off", "time": 36, "note": 51, "velocity": 116, "channel": 0}, {"type": "note_on", "time": 0, "note": 48, "velocity": 118, "channel": 0}, {"type": "note_off", "time": 90, "note": 48, "velocity": 118, "channel": 0}, {"type": "note_on", "time": 16, "note": 46, "velocity": 116, "channel": 0}, {"type": "note_off", "time": 144, "note": 46, "velocity": 116, "channel": 0}, {"type": "note_on", "time": 321, "note": 50, "velocity": 109, "channel": 0}, {"type": "note_off", "time": 45, "note": 50, "velocity": 109, "channel": 0}, {"type": "note_on", "time": 0, "note": 51, "velocity": 115, "channel": 0}, {"type": "note_off", "time": 107, "note": 51, "velocity": 115, "channel": 0}, {"type": "note_on", "time": 0, "note": 48, "velocity": 109, "channel": 0}, {"type": "note_off", "time": 26, "note": 48, "velocity": 109, "channel": 0}, {"type": "note_on", "time": 0, "note": 53, "velocity": 105, "channel": 0}, {"type": "note_off", "time": 60, "note": 53, "velocity": 105, "channel": 0}, {"type": "note_on", "time": 0, "note": 50, "velocity": 113, "channel": 0}, {"type": "note_off", "time": 36, "note": 50, "velocity": 113, "channel": 0}, {"type": "note_on", "time": 0, "note": 51, "velocity": 113, "channel": 0}, {"type": "note_off", "time": 60, "note": 51, "velocity": 113, "channel": 0}, {"type": "note_on", "time": 13, "note": 50, "velocity": 110, "channel": 0}, {"type": "note_off", "time": 40, "note": 50, "velocity": 110, "channel": 0}, {"type": "note_on", "time": 0, "note": 51, "velocity": 112, "channel": 0}, {"type": "note_on", "time": 46, "note": 53, "velocity": 107, "channel": 0}, {"type": "note_off", "time": 0, "note": 51, "velocity": 112, "channel": 0}, {"type": "note_off", "time": 36, "note": 53, "velocity": 107, "channel": 0}, {"type": "note_on", "time": 10, "note": 54, "velocity": 105, "channel": 0}, {"type": "note_off", "time": 43, "note": 54, "velocity": 105, "channel": 0}, {"type": "note_on", "time": 13, "note": 56, "velocity": 111, "channel": 0}, {"type": "note_off", "time": 20, "note": 56, "velocity": 111, "channel": 0}, {"type": "note_on", "time": 6, "note": 57, "velocity": 112, "channel": 0}, {"type": "note_off", "time": 67, "note": 57, "velocity": 112, "channel": 0}, {"type": "note_on", "time": 0, "note": 59, "velocity": 101, "channel": 0}, {"type": "note_off", "time": 46, "note": 59, "velocity": 101, "channel": 0}, {"type": "note_on", "time": 26, "note": 60, "velocity": 111, "channel": 0}, {"type": "note_off", "time": 36, "note": 60, "velocity": 111, "channel": 0}, {"type": "note_on", "time": 3, "note": 61, "velocity": 110, "channel": 0}, {"type": "note_on", "time": 33, "note": 62, "velocity": 114, "channel": 0}, {"type": "note_off", "time": 0, "note": 61, "velocity": 110, "channel": 0}, {"type": "note_off", "time": 46, "note": 62, "velocity": 114, "channel": 0}, {"type": "note_on", "time": 0, "note": 63, "velocity": 114, "channel": 0}, {"type": "note_off", "time": 50, "note": 63, "velocity": 114, "channel": 0}, {"type": "note_on", "time": 3, "note": 65, "velocity": 116, "channel": 0}, {"type": "note_off", "time": 53, "note": 65, "velocity": 116, "channel": 0}, {"type": "note_on", "time": 3, "note": 63, "velocity": 113, "channel": 0}, {"type": "note_off", "time": 50, "note": 63, "velocity": 113, "channel": 0}, {"type": "note_on", "time": 0, "note": 65, "velocity": 113, "channel": 0}, {"type": "note_off", "time": 33, "note": 65, "velocity": 113, "channel": 0}, {"type": "note_on", "time": 6, "note": 67, "velocity": 94, "channel": 0}, {"type": "note_off", "time": 60, "note": 67, "velocity": 94, "channel": 0}, {"type": "note_on", "time": 0, "note": 69, "velocity": 102, "channel": 0}, {"type": "note_off", "time": 53, "note": 69, "velocity": 102, "channel": 0}, {"type": "note_on", "time": 0, "note": 70, "velocity": 104, "channel": 0}, {"type": "note_off", "time": 40, "note": 70, "velocity": 104, "channel": 0}, {"type": "note_on", "time": 3, "note": 71, "velocity": 120, "channel": 0}, {"type": "note_off", "time": 80, "note": 71, "velocity": 120, "channel": 0}, {"type": "note_on", "time": 268, "note": 50, "velocity": 106, "channel": 0}, {"type": "note_off", "time": 46, "note": 50, "velocity": 106, "channel": 0}, {"type": "note_on", "time": 0, "note": 53, "velocity": 106, "channel": 0}, {"type": "note_off", "time": 36, "note": 53, "velocity": 106, "channel": 0}, {"type": "note_on", "time": 10, "note": 56, "velocity": 114, "channel": 0}, {"type": "note_off", "time": 36, "note": 56, "velocity": 114, "channel": 0}, {"type": "note_on", "time": 6, "note": 57, "velocity": 110, "channel": 0}, {"type": "note_off", "time": 50, "note": 57, "velocity": 110, "channel": 0}, {"type": "note_on", "time": 10, "note": 60, "velocity": 112, "channel": 0}, {"type": "note_off", "time": 57, "note": 60, "velocity": 112, "channel": 0}, {"type": "note_on", "time": 0, "note": 63, "velocity": 111, "channel": 0}, {"type": "note_off", "time": 63, "note": 63, "velocity": 111, "channel": 0}, {"type": "note_on", "time": 23, "note": 66, "velocity": 102, "channel": 0}, {"type": "note_off", "time": 30, "note": 66, "velocity": 102, "channel": 0}, {"type": "note_on", "time": 6, "note": 67, "velocity": 111, "channel": 0}, {"type": "note_off", "time": 26, "note": 67, "velocity": 111, "channel": 0}, {"type": "note_on", "time": 36, "note": 70, "velocity": 111, "channel": 0}, {"type": "note_off", "time": 110, "note": 70, "velocity": 111, "channel": 0}, {"type": "note_on", "time": 87, "note": 49, "velocity": 113, "channel": 0}, {"type": "note_off", "time": 28, "note": 49, "velocity": 113, "channel": 0}, {"type": "note_on", "time": 1, "note": 51, "velocity": 106, "channel": 0}, {"type": "note_off", "time": 30, "note": 51, "velocity": 106, "channel": 0}, {"type": "note_on", "time": 3, "note": 53, "velocity": 105, "channel": 0}, {"type": "note_off", "time": 36, "note": 53, "velocity": 105, "channel": 0}, {"type": "note_on", "time": 8, "note": 55, "velocity": 107, "channel": 0}, {"type": "note_off", "time": 18, "note": 55, "velocity": 107, "channel": 0}, {"type": "note_on", "time": 8, "note": 57, "velocity": 112, "channel": 0}, {"type": "note_off", "time": 25, "note": 57, "velocity": 112, "channel": 0}, {"type": "note_on", "time": 0, "note": 59, "velocity": 112, "channel": 0}, {"type": "note_on", "time": 73, "note": 61, "velocity": 114, "channel": 0}, {"type": "note_off", "time": 0, "note": 59, "velocity": 112, "channel": 0}, {"type": "note_off", "time": 40, "note": 61, "velocity": 114, "channel": 0}, {"type": "note_on", "time": 3, "note": 63, "velocity": 116, "channel": 0}, {"type": "note_on", "time": 43, "note": 65, "velocity": 109, "channel": 0}, {"type": "note_off", "time": 0, "note": 63, "velocity": 116, "channel": 0}, {"type": "note_off", "time": 50, "note": 65, "velocity": 109, "channel": 0}, {"type": "note_on", "time": 6, "note": 67, "velocity": 114, "channel": 0}, {"type": "note_off", "time": 40, "note": 67, "velocity": 114, "channel": 0}, {"type": "note_on", "time": 0, "note": 69, "velocity": 117, "channel": 0}, {"type": "note_off", "time": 46, "note": 69, "velocity": 117, "channel": 0}, {"type": "note_on", "time": 10, "note": 71, "velocity": 117, "channel": 0}, {"type": "note_off", "time": 365, "note": 71, "velocity": 117, "channel": 0}, {"type": "note_on", "time": 0, "note": 70, "velocity": 108, "channel": 0}, {"type": "note_off", "time": 50, "note": 70, "velocity": 108, "channel": 0}, {"type": "note_on", "time": 3, "note": 71, "velocity": 115, "channel": 0}, {"type": "note_off", "time": 36, "note": 71, "velocity": 115, "channel": 0}, {"type": "note_on", "time": 6, "note": 67, "velocity": 108, "channel": 0}, {"type": "note_off", "time": 53, "note": 67, "velocity": 108, "channel": 0}, {"type": "note_on", "time": 6, "note": 69, "velocity": 115, "channel": 0}, {"type": "note_off", "time": 50, "note": 69, "velocity": 115, "channel": 0}, {"type": "note_on", "time": 3, "note": 71, "velocity": 117, "channel": 0}, {"type": "note_off", "time": 70, "note": 71, "velocity": 117, "channel": 0}, {"type": "note_on", "time": 3, "note": 69, "velocity": 115, "channel": 0}, {"type": "note_off", "time": 70, "note": 69, "velocity": 115, "channel": 0}, {"type": "note_on", "time": 36, "note": 65, "velocity": 111, "channel": 0}, {"type": "note_off", "time": 93, "note": 65, "velocity": 111, "channel": 0}, {"type": "note_on", "time": 473, "note": 66, "velocity": 114, "channel": 0}, {"type": "note_off", "time": 36, "note": 66, "velocity": 114, "channel": 0}, {"type": "note_on", "time": 10, "note": 67, "velocity": 117, "channel": 0}, {"type": "note_off", "time": 379, "note": 67, "velocity": 117, "channel": 0}, {"type": "note_on", "time": 16, "note": 60, "velocity": 113, "channel": 0}, {"type": "note_off", "time": 83, "note": 60, "velocity": 113, "channel": 0}, {"type": "note_on", "time": 33, "note": 63, "velocity": 117, "channel": 0}, {"type": "note_off", "time": 63, "note": 63, "velocity": 117, "channel": 0}, {"type": "note_on", "time": 0, "note": 67, "velocity": 117, "channel": 0}, {"type": "note_off", "time": 83, "note": 67, "velocity": 117, "channel": 0}, {"type": "note_on", "time": 53, "note": 58, "velocity": 109, "channel": 0}, {"type": "note_off", "time": 97, "note": 58, "velocity": 109, "channel": 0}, {"type": "note_on", "time": 77, "note": 62, "velocity": 112, "channel": 0}, {"type": "note_off", "time": 83, "note": 62, "velocity": 112, "channel": 0}, {"type": "note_on", "time": 13, "note": 65, "velocity": 115, "channel": 0}, {"type": "note_off", "time": 97, "note": 65, "velocity": 115, "channel": 0}, {"type": "note_on", "time": 0, "note": 60, "velocity": 119, "channel": 0}, {"type": "note_off", "time": 295, "note": 60, "velocity": 119, "channel": 0}, {"type": "note_on", "time": 57, "note": 63, "velocity": 108, "channel": 0}, {"type": "note_off", "time": 46, "note": 63, "velocity": 108, "channel": 0}, {"type": "note_on", "time": 6, "note": 66, "velocity": 111, "channel": 0}, {"type": "note_off", "time": 40, "note": 66, "velocity": 111, "channel": 0}, {"type": "note_on", "time": 3, "note": 58, "velocity": 107, "channel": 0}, {"type": "note_off", "time": 90, "note": 58, "velocity": 107, "channel": 0}, {"type": "note_on", "time": 36, "note": 62, "velocity": 115, "channel": 0}, {"type": "note_off", "time": 73, "note": 62, "velocity": 115, "channel": 0}, {"type": "note_on", "time": 13, "note": 65, "velocity": 114, "channel": 0}, {"type": "note_off", "time": 87, "note": 65, "velocity": 114, "channel": 0}, {"type": "note_on", "time": 67, "note": 60, "velocity": 116, "channel": 0}, {"type": "note_off", "time": 134, "note": 60, "velocity": 116, "channel": 0}, {"type": "note_on", "time": 3, "note": 63, "velocity": 121, "channel": 0}, {"type": "note_off", "time": 70, "note": 63, "velocity": 121, "channel": 0}, {"type": "note_on", "time": 3, "note": 67, "velocity": 118, "channel": 0}, {"type": "note_off", "time": 104, "note": 67, "velocity": 118, "channel": 0}, {"type": "note_on", "time": 87, "note": 58, "velocity": 112, "channel": 0}, {"type": "note_off", "time": 130, "note": 58, "velocity": 112, "channel": 0}, {"type": "note_on", "time": 0, "note": 62, "velocity": 122, "channel": 0}, {"type": "note_off", "time": 53, "note": 62, "velocity": 122, "channel": 0}, {"type": "note_on", "time": 13, "note": 65, "velocity": 119, "channel": 0}, {"type": "note_off", "time": 87, "note": 65, "velocity": 119, "channel": 0}, {"type": "note_on", "time": 16, "note": 63, "velocity": 125, "channel": 0}, {"type": "note_off", "time": 382, "note": 63, "velocity": 125, "channel": 0}, {"type": "note_on", "time": 6, "note": 60, "velocity": 105, "channel": 0}, {"type": "note_off", "time": 67, "note": 60, "velocity": 105, "channel": 0}, {"type": "note_on", "time": 16, "note": 63, "velocity": 121, "channel": 0}, {"type": "note_off", "time": 90, "note": 63, "velocity": 121, "channel": 0}, {"type": "note_on", "time": 0, "note": 67, "velocity": 112, "channel": 0}, {"type": "note_off", "time": 104, "note": 67, "velocity": 112, "channel": 0}, {"type": "note_on", "time": 302, "note": 65, "velocity": 114, "channel": 0}, {"type": "note_off", "time": 90, "note": 65, "velocity": 114, "channel": 0}, {"type": "note_on", "time": 6, "note": 68, "velocity": 116, "channel": 0}, {"type": "note_off", "time": 70, "note": 68, "velocity": 116, "channel": 0}, {"type": "note_on", "time": 0, "note": 72, "velocity": 113, "channel": 0}, {"type": "note_off", "time": 80, "note": 72, "velocity": 113, "channel": 0}, {"type": "note_on", "time": 26, "note": 63, "velocity": 118, "channel": 0}, {"type": "note_off", "time": 117, "note": 63, "velocity": 118, "channel": 0}, {"type": "note_on", "time": 0, "note": 67, "velocity": 115, "channel": 0}, {"type": "note_off", "time": 77, "note": 67, "velocity": 115, "channel": 0}, {"type": "note_on", "time": 16, "note": 70, "velocity": 118, "channel": 0}, {"type": "note_on", "time": 73, "note": 65, "velocity": 113, "channel": 0}, {"type": "note_off", "time": 0, "note": 70, "velocity": 118, "channel": 0}, {"type": "note_off", "time": 245, "note": 65, "velocity": 113, "channel": 0}, {"type": "note_on", "time": 0, "note": 67, "velocity": 111, "channel": 0}, {"type": "note_off", "time": 53, "note": 67, "velocity": 111, "channel": 0}, {"type": "note_on", "time": 26, "note": 72, "velocity": 107, "channel": 0}, {"type": "note_on", "time": 53, "note": 63, "velocity": 116, "channel": 0}, {"type": "note_off", "time": 0, "note": 72, "velocity": 107, "channel": 0}, {"type": "note_off", "time": 87, "note": 63, "velocity": 116, "channel": 0}, {"type": "note_on", "time": 30, "note": 67, "velocity": 117, "channel": 0}, {"type": "note_off", "time": 60, "note": 67, "velocity": 117, "channel": 0}, {"type": "note_on", "time": 0, "note": 70, "velocity": 116, "channel": 0}, {"type": "note_off", "time": 77, "note": 70, "velocity": 116, "channel": 0}, {"type": "note_on", "time": 70, "note": 60, "velocity": 112, "channel": 0}, {"type": "note_off", "time": 97, "note": 60, "velocity": 112, "channel": 0}, {"type": "note_on", "time": 13, "note": 63, "velocity": 116, "channel": 0}, {"type": "note_off", "time": 245, "note": 63, "velocity": 116, "channel": 0}, {"type": "note_on", "time": 0, "note": 67, "velocity": 113, "channel": 0}, {"type": "note_off", "time": 114, "note": 67, "velocity": 113, "channel": 0}, {"type": "note_on", "time": 70, "note": 58, "velocity": 109, "channel": 0}, {"type": "note_off", "time": 198, "note": 58, "velocity": 109, "channel": 0}, {"type": "note_on", "time": 50, "note": 62, "velocity": 116, "channel": 0}, {"type": "note_off", "time": 33, "note": 62, "velocity": 116, "channel": 0}, {"type": "note_on", "time": 10, "note": 65, "velocity": 110, "channel": 0}, {"type": "note_off", "time": 70, "note": 65, "velocity": 110, "channel": 0}, {"type": "note_on", "time": 0, "note": 60, "velocity": 119, "channel": 0}, {"type": "note_off", "time": 198, "note": 60, "velocity": 119, "channel": 0}, {"type": "note_on", "time": 13, "note": 63, "velocity": 116, "channel": 0}, {"type": "note_off", "time": 43, "note": 63, "velocity": 116, "channel": 0}, {"type": "note_on", "time": 40, "note": 67, "velocity": 114, "channel": 0}, {"type": "note_off", "time": 70, "note": 67, "velocity": 114, "channel": 0}, {"type": "note_on", "time": 3, "note": 62, "velocity": 110, "channel": 0}, {"type": "note_off", "time": 147, "note": 62, "velocity": 110, "channel": 0}, {"type": "note_on", "time": 345, "note": 67, "velocity": 115, "channel": 0}, {"type": "note_off", "time": 67, "note": 67, "velocity": 115, "channel": 0}, {"type": "note_on", "time": 0, "note": 66, "velocity": 112, "channel": 0}, {"type": "note_off", "time": 60, "note": 66, "velocity": 112, "channel": 0}, {"type": "note_on", "time": 23, "note": 66, "velocity": 113, "channel": 0}, {"type": "note_off", "time": 124, "note": 66, "velocity": 113, "channel": 0}, {"type": "note_on", "time": 20, "note": 65, "velocity": 112, "channel": 0}, {"type": "note_off", "time": 63, "note": 65, "velocity": 112, "channel": 0}, {"type": "note_on", "time": 11, "note": 64, "velocity": 120, "channel": 0}, {"type": "note_off", "time": 88, "note": 64, "velocity": 120, "channel": 0}, {"type": "note_on", "time": 7, "note": 63, "velocity": 121, "channel": 0}, {"type": "note_off", "time": 83, "note": 63, "velocity": 121, "channel": 0}, {"type": "note_on", "time": 9, "note": 62, "velocity": 111, "channel": 0}, {"type": "note_off", "time": 23, "note": 62, "velocity": 111, "channel": 0}, {"type": "note_on", "time": 0, "note": 60, "velocity": 110, "channel": 0}, {"type": "note_off", "time": 88, "note": 60, "velocity": 110, "channel": 0}, {"type": "note_on", "time": 0, "note": 58, "velocity": 105, "channel": 0}, {"type": "note_off", "time": 73, "note": 58, "velocity": 105, "channel": 0}, {"type": "note_on", "time": 21, "note": 53, "velocity": 107, "channel": 0}, {"type": "note_off", "time": 66, "note": 53, "velocity": 107, "channel": 0}, {"type": "note_on", "time": 116, "note": 53, "velocity": 107, "channel": 0}, {"type": "note_off", "time": 69, "note": 53, "velocity": 107, "channel": 0}, {"type": "note_on", "time": 26, "note": 57, "velocity": 109, "channel": 0}, {"type": "note_off", "time": 90, "note": 57, "velocity": 109, "channel": 0}, {"type": "note_on", "time": 14, "note": 62, "velocity": 113, "channel": 0}, {"type": "note_off", "time": 85, "note": 62, "velocity": 113, "channel": 0}, {"type": "note_on", "time": 0, "note": 59, "velocity": 109, "channel": 0}, {"type": "note_off", "time": 78, "note": 59, "velocity": 109, "channel": 0}, {"type": "note_on", "time": 11, "note": 57, "velocity": 108, "channel": 0}, {"type": "note_off", "time": 81, "note": 57, "velocity": 108, "channel": 0}, {"type": "note_on", "time": 93, "note": 57, "velocity": 104, "channel": 0}, {"type": "note_off", "time": 78, "note": 57, "velocity": 104, "channel": 0}, {"type": "note_on", "time": 0, "note": 59, "velocity": 108, "channel": 0}, {"type": "note_off", "time": 57, "note": 59, "velocity": 108, "channel": 0}, {"type": "note_on", "time": 38, "note": 62, "velocity": 113, "channel": 0}, {"type": "note_off", "time": 93, "note": 62, "velocity": 113, "channel": 0}, {"type": "note_on", "time": 0, "note": 60, "velocity": 107, "channel": 0}, {"type": "note_off", "time": 100, "note": 60, "velocity": 107, "channel": 0}, {"type": "note_on", "time": 11, "note": 62, "velocity": 115, "channel": 0}, {"type": "note_off", "time": 105, "note": 62, "velocity": 115, "channel": 0}, {"type": "note_on", "time": 9, "note": 63, "velocity": 101, "channel": 0}, {"type": "note_off", "time": 97, "note": 63, "velocity": 101, "channel": 0}, {"type": "note_on", "time": 7, "note": 65, "velocity": 110, "channel": 0}, {"type": "note_off", "time": 85, "note": 65, "velocity": 110, "channel": 0}, {"type": "note_on", "time": 0, "note": 67, "velocity": 107, "channel": 0}, {"type": "note_off", "time": 88, "note": 67, "velocity": 107, "channel": 0}, {"type": "note_on", "time": 0, "note": 72, "velocity": 117, "channel": 0}, {"type": "note_off", "time": 66, "note": 72, "velocity": 117, "channel": 0}, {"type": "note_on", "time": 19, "note": 67, "velocity": 110, "channel": 0}, {"type": "note_off", "time": 93, "note": 67, "velocity": 110, "channel": 0}, {"type": "note_on", "time": 16, "note": 65, "velocity": 114, "channel": 0}, {"type": "note_off", "time": 93, "note": 65, "velocity": 114, "channel": 0}, {"type": "note_on", "time": 0, "note": 63, "velocity": 119, "channel": 0}, {"type": "note_off", "time": 88, "note": 63, "velocity": 119, "channel": 0}, {"type": "note_on", "time": 7, "note": 67, "velocity": 115, "channel": 0}, {"type": "note_off", "time": 71, "note": 67, "velocity": 115, "channel": 0}, {"type": "note_on", "time": 9, "note": 63, "velocity": 117, "channel": 0}, {"type": "note_off", "time": 59, "note": 63, "velocity": 117, "channel": 0}, {"type": "note_on", "time": 14, "note": 62, "velocity": 114, "channel": 0}, {"type": "note_off", "time": 73, "note": 62, "velocity": 114, "channel": 0}, {"type": "note_on", "time": 14, "note": 60, "velocity": 108, "channel": 0}, {"type": "note_off", "time": 131, "note": 60, "velocity": 108, "channel": 0}, {"type": "note_on", "time": 64, "note": 62, "velocity": 118, "channel": 0}, {"type": "note_off", "time": 107, "note": 62, "velocity": 118, "channel": 0}, {"type": "note_on", "time": 0, "note": 63, "velocity": 119, "channel": 0}, {"type": "note_off", "time": 546, "note": 63, "velocity": 119, "channel": 0}, {"type": "note_on", "time": 0, "note": 62, "velocity": 117, "channel": 0}, {"type": "note_off", "time": 147, "note": 62, "velocity": 117, "channel": 0}, {"type": "note_on", "time": 7, "note": 63, "velocity": 121, "channel": 0}, {"type": "note_off", "time": 102, "note": 63, "velocity": 121, "channel": 0}, {"type": "note_on", "time": 2, "note": 65, "velocity": 111, "channel": 0}, {"type": "note_off", "time": 93, "note": 65, "velocity": 111, "channel": 0}, {"type": "note_on", "time": 479, "note": 63, "velocity": 118, "channel": 0}, {"type": "note_off", "time": 97, "note": 63, "velocity": 118, "channel": 0}, {"type": "note_on", "time": 1, "note": 65, "velocity": 109, "channel": 0}, {"type": "note_off", "time": 118, "note": 65, "velocity": 109, "channel": 0}, {"type": "note_on", "time": 8, "note": 66, "velocity": 117, "channel": 0}, {"type": "note_off", "time": 44, "note": 66, "velocity": 117, "channel": 0}, {"type": "note_on", "time": 10, "note": 67, "velocity": 118, "channel": 0}, {"type": "note_off", "time": 553, "note": 67, "velocity": 118, "channel": 0}, {"type": "note_on", "time": 42, "note": 70, "velocity": 120, "channel": 0}, {"type": "note_off", "time": 42, "note": 70, "velocity": 120, "channel": 0}, {"type": "note_on", "time": 0, "note": 69, "velocity": 118, "channel": 0}, {"type": "note_off", "time": 45, "note": 69, "velocity": 118, "channel": 0}, {"type": "note_on", "time": 16, "note": 65, "velocity": 113, "channel": 0}, {"type": "note_off", "time": 72, "note": 65, "velocity": 113, "channel": 0}, {"type": "note_on", "time": 25, "note": 63, "velocity": 116, "channel": 0}, {"type": "note_off", "time": 57, "note": 63, "velocity": 116, "channel": 0}, {"type": "note_on", "time": 19, "note": 60, "velocity": 120, "channel": 0}, {"type": "note_off", "time": 415, "note": 60, "velocity": 120, "channel": 0}, {"type": "note_on", "time": 0, "note": 65, "velocity": 110, "channel": 0}, {"type": "note_on", "time": 95, "note": 60, "velocity": 105, "channel": 0}, {"type": "note_off", "time": 0, "note": 65, "velocity": 110, "channel": 0}, {"type": "note_off", "time": 62, "note": 60, "velocity": 105, "channel": 0}, {"type": "note_on", "time": 0, "note": 65, "velocity": 112, "channel": 0}, {"type": "note_off", "time": 66, "note": 65, "velocity": 112, "channel": 0}, {"type": "note_on", "time": 0, "note": 68, "velocity": 117, "channel": 0}, {"type": "note_off", "time": 78, "note": 68, "velocity": 117, "channel": 0}, {"type": "note_on", "time": 19, "note": 65, "velocity": 106, "channel": 0}, {"type": "note_off", "time": 54, "note": 65, "velocity": 106, "channel": 0}, {"type": "note_on", "time": 0, "note": 68, "velocity": 118, "channel": 0}, {"type": "note_off", "time": 59, "note": 68, "velocity": 118, "channel": 0}, {"type": "note_on", "time": 0, "note": 72, "velocity": 114, "channel": 0}, {"type": "note_off", "time": 73, "note": 72, "velocity": 114, "channel": 0}, {"type": "note_on", "time": 2, "note": 75, "velocity": 117, "channel": 0}, {"type": "note_off", "time": 355, "note": 75, "velocity": 117, "channel": 0}, {"type": "note_on", "time": 11, "note": 74, "velocity": 101, "channel": 0}, {"type": "note_off", "time": 27, "note": 74, "velocity": 101, "channel": 0}, {"type": "note_on", "time": 13, "note": 71, "velocity": 110, "channel": 0}, {"type": "note_off", "time": 28, "note": 71, "velocity": 110, "channel": 0}, {"type": "note_on", "time": 2, "note": 70, "velocity": 113, "channel": 0}, {"type": "note_off", "time": 40, "note": 70, "velocity": 113, "channel": 0}, {"type": "note_on", "time": 2, "note": 68, "velocity": 116, "channel": 0}, {"type": "note_off", "time": 42, "note": 68, "velocity": 116, "channel": 0}, {"type": "note_on", "time": 8, "note": 67, "velocity": 113, "channel": 0}, {"type": "note_off", "time": 124, "note": 67, "velocity": 113, "channel": 0}, {"type": "note_on", "time": 516, "note": 67, "velocity": 118, "channel": 0}, {"type": "note_off", "time": 81, "note": 67, "velocity": 118, "channel": 0}, {"type": "note_on", "time": 0, "note": 66, "velocity": 113, "channel": 0}, {"type": "note_off", "time": 107, "note": 66, "velocity": 113, "channel": 0}, {"type": "note_on", "time": 4, "note": 63, "velocity": 122, "channel": 0}, {"type": "note_off", "time": 81, "note": 63, "velocity": 122, "channel": 0}, {"type": "note_on", "time": 7, "note": 62, "velocity": 116, "channel": 0}, {"type": "note_off", "time": 90, "note": 62, "velocity": 116, "channel": 0}, {"type": "note_on", "time": 14, "note": 65, "velocity": 114, "channel": 0}, {"type": "note_off", "time": 69, "note": 65, "velocity": 114, "channel": 0}, {"type": "note_on", "time": 0, "note": 63, "velocity": 120, "channel": 0}, {"type": "note_off", "time": 114, "note": 63, "velocity": 120, "channel": 0}, {"type": "note_on", "time": 7, "note": 60, "velocity": 115, "channel": 0}, {"type": "note_off", "time": 81, "note": 60, "velocity": 115, "channel": 0}, {"type": "note_on", "time": 5, "note": 59, "velocity": 108, "channel": 0}, {"type": "note_off", "time": 80, "note": 59, "velocity": 108, "channel": 0}, {"type": "note_on", "time": 31, "note": 55, "velocity": 108, "channel": 0}, {"type": "note_off", "time": 47, "note": 55, "velocity": 108, "channel": 0}, {"type": "note_on", "time": 7, "note": 60, "velocity": 110, "channel": 0}, {"type": "note_off", "time": 179, "note": 60, "velocity": 110, "channel": 0}, {"type": "note_on", "time": 45, "note": 63, "velocity": 111, "channel": 0}, {"type": "note_off", "time": 90, "note": 63, "velocity": 111, "channel": 0}, {"type": "note_on", "time": 19, "note": 65, "velocity": 112, "channel": 0}, {"type": "note_off", "time": 47, "note": 65, "velocity": 112, "channel": 0}, {"type": "note_on", "time": 14, "note": 66, "velocity": 115, "channel": 0}, {"type": "note_off", "time": 64, "note": 66, "velocity": 115, "channel": 0}, {"type": "note_on", "time": 78, "note": 65, "velocity": 113, "channel": 0}, {"type": "note_off", "time": 618, "note": 65, "velocity": 113, "channel": 0}, {"type": "note_on", "time": 4, "note": 66, "velocity": 113, "channel": 0}, {"type": "note_off", "time": 26, "note": 66, "velocity": 113, "channel": 0}, {"type": "note_on", "time": 4, "note": 65, "velocity": 116, "channel": 0}, {"type": "note_off", "time": 267, "note": 65, "velocity": 116, "channel": 0}, {"type": "note_on", "time": 4, "note": 66, "velocity": 115, "channel": 0}, {"type": "note_off", "time": 26, "note": 66, "velocity": 115, "channel": 0}, {"type": "note_on", "time": 2, "note": 65, "velocity": 116, "channel": 0}, {"type": "note_off", "time": 281, "note": 65, "velocity": 116, "channel": 0}, {"type": "note_on", "time": 11, "note": 63, "velocity": 117, "channel": 0}, {"type": "note_off", "time": 76, "note": 63, "velocity": 117, "channel": 0}, {"type": "note_on", "time": 28, "note": 60, "velocity": 109, "channel": 0}, {"type": "note_off", "time": 417, "note": 60, "velocity": 109, "channel": 0}, {"type": "note_on", "time": 51, "note": 58, "velocity": 9, "channel": 0}, {"type": "note_off", "time": 167, "note": 58, "velocity": 9, "channel": 0}, {"type": "note_on", "time": 16, "note": 62, "velocity": 119, "channel": 0}, {"type": "note_off", "time": 95, "note": 62, "velocity": 119, "channel": 0}, {"type": "note_on", "time": 28, "note": 60, "velocity": 119, "channel": 0}, {"type": "note_off", "time": 231, "note": 60, "velocity": 119, "channel": 0}, {"type": "note_on", "time": 4, "note": 55, "velocity": 117, "channel": 0}, {"type": "note_off", "time": 391, "note": 55, "velocity": 117, "channel": 0}, {"type": "end_of_track", "time": 0}]]}