{"ticks_per_beat": 192, "tracks": [[{"type": "track_name", "name": "Melody", "time": 0}, {"type": "set_tempo", "tempo": 200668, "time": 0}, {"type": "key_signature", "key": "Eb", "time": 0}, {"type": "time_signature", "numerator": 4, "denominator": 4, "clocks_per_click": 24, "notated_32nd_notes_per_beat": 8, "time": 0}, {"type": "note_on", "time": 2950, "note": 58, "velocity": 97, "channel": 0}, {"type": "note_off", "time": 82, "note": 58, "velocity": 97, "channel": 0}, {"type": "note_on", "time": 19, "note": 59, "velocity": 106, "channel": 0}, {"type": "note_off", "time": 68, "note": 59, "velocity": 106, "channel": 0}, {"type": "note_on", "time": 21, "note": 61, "velocity": 105, "channel": 0}, {"type": "note_off", "time": 62, "note": 61, "velocity": 105, "channel": 0}, {"type": "note_on", "time": 27, "note": 63, "velocity": 102, "channel": 0}, {"type": "note_off", "time": 76, "note": 63, "velocity": 102, "channel": 0}, {"type": "note_on", "time": 7, "note": 62, "velocity": 101, "channel": 0}, {"type": "note_off", "time": 113, "note": 62, "velocity": 101, "channel": 0}, {"type": "note_on", "time": 30, "note": 64, "velocity": 117, "channel": 0}, {"type": "note_off", "time": 72, "note": 64, "velocity": 117, "channel": 0}, {"type": "note_on", "time": 21, "note": 66, "velocity": 113, "channel": 0}, {"type": "note_off", "time": 38, "note": 66, "velocity": 113, "channel": 0}, {"type": "note_on", "time": 45, "note": 69, "velocity": 111, "channel": 0}, {"type": "note_off", "time": 78, "note": 69, "velocity": 111, "channel": 0}, {"type": "note_on", "time": 19, "note": 66, "velocity": 113, "channel": 0}, {"type": "note_off", "time": 62, "note": 66, "velocity": 113, "channel": 0}, {"type": "note_on", "time": 26, "note": 62, "velocity": 112, "channel": 0}, {"type": "note_off", "time": 76, "note": 62, "velocity": 112, "channel": 0}, {"type": "note_on", "time": 15, "note": 59, "velocity": 104, "channel": 0}, {"type": "note_off", "time": 72, "note": 59, "velocity": 104, "channel": 0}, {"type": "note_on", "time": 77, "note": 60, "velocity": 116, "channel": 0}, {"type": "note_off", "time": 103, "note": 60, "velocity": 116, "channel": 0}, {"type": "note_on", "time": 24, "note": 56, "velocity": 115, "channel": 0}, {"type": "note_off", "time": 72, "note": 56, "velocity": 115, "channel": 0}, {"type": "note_on", "time": 13, "note": 55, "velocity": 114, "channel": 0}, {"type": "note_off", "time": 80, "note": 55, "velocity": 114, "channel": 0}, {"type": "note_on", "time": 35, "note": 53, "velocity": 109, "channel": 0}, {"type": "note_off", "time": 86, "note": 53, "velocity": 109, "channel": 0}, {"type": "note_on", "time": 20, "note": 52, "velocity": 102, "channel": 0}, {"type": "note_off", "time": 38, "note": 52, "velocity": 102, "channel": 0}, {"type": "note_on", "time": 7, "note": 53, "velocity": 106, "channel": 0}, {"type": "note_off", "time": 93, "note": 53, "velocity": 106, "channel": 0}, {"type": "note_on", "time": 23, "note": 55, "velocity": 109, "channel": 0}, {"type": "note_off", "time": 66, "note": 55, "velocity": 109, "channel": 0}, {"type": "note_on", "time": 27, "note": 56, "velocity": 113, "channel": 0}, {"type": "note_off", "time": 62, "note": 56, "velocity": 113, "channel": 0}, {"type": "note_on", "time": 41, "note": 58, "velocity": 115, "channel": 0}, {"type": "note_off", "time": 58, "note": 58, "velocity": 115, "channel": 0}, {"type": "note_on", "time": 5, "note": 60, "velocity": 115, "channel": 0}, {"type": "note_off", "time": 91, "note": 60, "velocity": 115, "channel": 0}, {"type": "note_on", "time": 31, "note": 62, "velocity": 113, "channel": 0}, {"type": "note_off", "time": 46, "note": 62, "velocity": 113, "channel": 0}, {"type": "note_on", "time": 42, "note": 65, "velocity": 114, "channel": 0}, {"type": "note_off", "time": 74, "note": 65, "velocity": 114, "channel": 0}, {"type": "note_on", "time": 15, "note": 64, "velocity": 123, "channel": 0}, {"type": "note_off", "time": 150, "note": 64, "velocity": 123, "channel": 0}, {"type": "note_on", "time": 50, "note": 59, "velocity": 97, "channel": 0}, {"type": "note_off", "time": 70, "note": 59, "velocity": 97, "channel": 0}, {"type": "note_on", "time": 15, "note": 67, "velocity": 106, "channel": 0}, {"type": "note_off", "time": 74, "note": 67, "velocity": 106, "channel": 0}, {"type": "note_on", "time": 27, "note": 71, "velocity": 127, "channel": 0}, {"type": "note_off", "time": 54, "note": 71, "velocity": 127, "channel": 0}, {"type": "note_on", "time": 33, "note": 69, "velocity": 120, "channel": 0}, {"type": "note_off", "time": 74, "note": 69, "velocity": 120, "channel": 0}, {"type": "note_on", "time": 13, "note": 66, "velocity": 113, "channel": 0}, {"type": "note_off", "time": 66, "note": 66, "velocity": 113, "channel": 0}, {"type": "note_on", "time": 37, "note": 64, "velocity": 121, "channel": 0}, {"type": "note_off", "time": 66, "note": 64, "velocity": 121, "channel": 0}, {"type": "note_on", "time": 23, "note": 62, "velocity": 119, "channel": 0}, {"type": "note_off", "time": 62, "note": 62, "velocity": 119, "channel": 0}, {"type": "note_on", "time": 7, "note": 64, "velocity": 114, "channel": 0}, {"type": "note_off", "time": 43, "note": 64, "velocity": 114, "channel": 0}, {"type": "note_on", "time": 20, "note": 67, "velocity": 112, "channel": 0}, {"type": "note_off", "time": 59, "note": 67, "velocity": 112, "channel": 0}, {"type": "note_on", "time": 29, "note": 71, "velocity": 109, "channel": 0}, {"type": "note_off", "time": 38, "note": 71, "velocity": 109, "channel": 0}, {"type": "note_on", "time": 12, "note": 72, "velocity": 101, "channel": 0}, {"type": "note_off", "time": 29, "note": 72, "velocity": 101, "channel": 0}, {"type": "note_on", "time": 13, "note": 71, "velocity": 114, "channel": 0}, {"type": "note_off", "time": 38, "note": 71, "velocity": 114, "channel": 0}, {"type": "note_on", "time": 38, "note": 62, "velocity": 117, "channel": 0}, {"type": "note_off", "time": 76, "note": 62, "velocity": 117, "channel": 0}, {"type": "note_on", "time": 19, "note": 65, "velocity": 105, "channel": 0}, {"type": "note_off", "time": 37, "note": 65, "velocity": 105, "channel": 0}, {"type": "note_on", "time": 26, "note": 68, "velocity": 117, "channel": 0}, {"type": "note_off", "time": 74, "note": 68, "velocity": 117, "channel": 0}, {"type": "note_on", "time": 9, "note": 72, "velocity": 117, "channel": 0}, {"type": "note_off", "time": 61, "note": 72, "velocity": 117, "channel": 0}, {"type": "note_on", "time": 40, "note": 63, "velocity": 120, "channel": 0}, {"type": "note_off", "time": 81, "note": 63, "velocity": 120, "channel": 0}, {"type": "note_on", "time": 24, "note": 65, "velocity": 108, "channel": 0}, {"type": "note_off", "time": 69, "note": 65, "velocity": 108, "channel": 0}, {"type": "note_on", "time": 24, "note": 67, "velocity": 111, "channel": 0}, {"type": "note_off", "time": 65, "note": 67, "velocity": 111, "channel": 0}, {"type": "note_on", "time": 20, "note": 70, "velocity": 113, "channel": 0}, {"type": "note_off", "time": 66, "note": 70, "velocity": 113, "channel": 0}, {"type": "note_on", "time": 38, "note": 64, "velocity": 114, "channel": 0}, {"type": "note_off", "time": 145, "note": 64, "velocity": 114, "channel": 0}, {"type": "note_on", "time": 5, "note": 67, "velocity": 101, "channel": 0}, {"type": "note_off", "time": 59, "note": 67, "velocity": 101, "channel": 0}, {"type": "note_on", "time": 30, "note": 70, "velocity": 106, "channel": 0}, {"type": "note_off", "time": 51, "note": 70, "velocity": 106, "channel": 0}, {"type": "note_on", "time": 26, "note": 73, "velocity": 122, "channel": 0}, {"type": "note_off", "time": 209, "note": 73, "velocity": 122, "channel": 0}, {"type": "note_on", "time": 27, "note": 70, "velocity": 117, "channel": 0}, {"type": "note_off", "time": 83, "note": 70, "velocity": 117, "channel": 0}, {"type": "note_on", "time": 20, "note": 68, "velocity": 105, "channel": 0}, {"type": "note_off", "time": 38, "note": 68, "velocity": 105, "channel": 0}, {"type": "note_on", "time": 13, "note": 66, "velocity": 107, "channel": 0}, {"type": "note_off", "time": 115, "note": 66, "velocity": 107, "channel": 0}, {"type": "note_on", "time": 16, "note": 63, "velocity": 118, "channel": 0}, {"type": "note_off", "time": 68, "note": 63, "velocity": 118, "channel": 0}, {"type": "note_on", "time": 13, "note": 59, "velocity": 99, "channel": 0}, {"type": "note_off", "time": 70, "note": 59, "velocity": 99, "channel": 0}, {"type": "note_on", "time": 130, "note": 70, "velocity": 115, "channel": 0}, {"type": "note_off", "time": 40, "note": 70, "velocity": 115, "channel": 0}, {"type": "note_on", "time": 8, "note": 71, "velocity": 115, "channel": 0}, {"type": "note_off", "time": 18, "note": 71, "velocity": 115, "channel": 0}, {"type": "note_on", "time": 4, "note": 72, "velocity": 113, "channel": 0}, {"type": "note_off", "time": 17, "note": 72, "velocity": 113, "channel": 0}, {"type": "note_on", "time": 4, "note": 73, "velocity": 120, "channel": 0}, {"type": "note_off", "time": 40, "note": 73, "velocity": 120, "channel": 0}, {"type": "note_on", "time": 5, "note": 74, "velocity": 118, "channel": 0}, {"type": "note_off", "time": 93, "note": 74, "velocity": 118, "channel": 0}, {"type": "note_on", "time": 6, "note": 73, "velocity": 122, "channel": 0}, {"type": "note_off", "time": 52, "note": 73, "velocity": 122, "channel": 0}, {"type": "note_on", "time": 12, "note": 71, "velocity": 121, "channel": 0}, {"type": "note_off", "time": 70, "note": 71, "velocity": 121, "channel": 0}, {"type": "note_on", "time": 11, "note": 70, "velocity": 118, "channel": 0}, {"type": "note_off", "time": 52, "note": 70, "velocity": 118, "channel": 0}, {"type": "note_on", "time": 43, "note": 68, "velocity": 119, "channel": 0}, {"type": "note_off", "time": 84, "note": 68, "velocity": 119, "channel": 0}, {"type": "note_on", "time": 9, "note": 67, "velocity": 114, "channel": 0}, {"type": "note_off", "time": 74, "note": 67, "velocity": 114, "channel": 0}, {"type": "note_on", "time": 19, "note": 65, "velocity": 113, "channel": 0}, {"type": "note_off", "time": 68, "note": 65, "velocity": 113, "channel": 0}, {"type": "note_on", "time": 15, "note": 63, "velocity": 117, "channel": 0}, {"type": "note_off", "time": 89, "note": 63, "velocity": 117, "channel": 0}, {"type": "note_on", "time": 20, "note": 65, "velocity": 113, "channel": 0}, {"type": "note_off", "time": 74, "note": 65, "velocity": 113, "channel": 0}, {"type": "note_on", "time": 28, "note": 67, "velocity": 108, "channel": 0}, {"type": "note_off", "time": 57, "note": 67, "velocity": 108, "channel": 0}, {"type": "note_on", "time": 17, "note": 70, "velocity": 114, "channel": 0}, {"type": "note_off", "time": 74, "note": 70, "velocity": 114, "channel": 0}, {"type": "note_on", "time": 17, "note": 75, "velocity": 123, "channel": 0}, {"type": "note_off", "time": 142, "note": 75, "velocity": 123, "channel": 0}, {"type": "note_on", "time": 375, "note": 71, "velocity": 116, "channel": 0}, {"type": "note_off", "time": 41, "note": 71, "velocity": 116, "channel": 0}, {"type": "note_on", "time": 6, "note": 72, "velocity": 119, "channel": 0}, {"type": "note_off", "time": 54, "note": 72, "velocity": 119, "channel": 0}, {"type": "note_on", "time": 7, "note": 75, "velocity": 121, "channel": 0}, {"type": "note_off", "time": 717, "note": 75, "velocity": 121, "channel": 0}, {"type": "note_on", "time": 9, "note": 71, "velocity": 116, "channel": 0}, {"type": "note_off", "time": 112, "note": 71, "velocity": 116, "channel": 0}, {"type": "note_on", "time": 36, "note": 66, "velocity": 116, "channel": 0}, {"type": "note_off", "time": 105, "note": 66, "velocity": 116, "channel": 0}, {"type": "note_on", "time": 72, "note": 66, "velocity": 114, "channel": 0}, {"type": "note_off", "time": 76, "note": 66, "velocity": 114, "channel": 0}, {"type": "note_on", "time": 26, "note": 64, "velocity": 117, "channel": 0}, {"type": "note_off", "time": 131, "note": 64, "velocity": 117, "channel": 0}, {"type": "note_on", "time": 36, "note": 65, "velocity": 114, "channel": 0}, {"type": "note_off", "time": 40, "note": 65, "velocity": 114, "channel": 0}, {"type": "note_on", "time": 6, "note": 66, "velocity": 117, "channel": 0}, {"type": "note_off", "time": 234, "note": 66, "velocity": 117, "channel": 0}, {"type": "note_on", "time": 84, "note": 65, "velocity": 109, "channel": 0}, {"type": "note_off", "time": 23, "note": 65, "velocity": 109, "channel": 0}, {"type": "note_on", "time": 6, "note": 66, "velocity": 117, "channel": 0}, {"type": "note_off", "time": 143, "note": 66, "velocity": 117, "channel": 0}, {"type": "note_on", "time": 19, "note": 64, "velocity": 118, "channel": 0}, {"type": "note_off", "time": 99, "note": 64, "velocity": 118, "channel": 0}, {"type": "note_on", "time": 15, "note": 63, "velocity": 123, "channel": 0}, {"type": "note_off", "time": 280, "note": 63, "velocity": 123, "channel": 0}, {"type": "note_on", "time": 48, "note": 66, "velocity": 117, "channel": 0}, {"type": "note_off", "time": 101, "note": 66, "velocity": 117, "channel": 0}, {"type": "note_on", "time": 73, "note": 69, "velocity": 111, "channel": 0}, {"type": "note_off", "time": 86, "note": 69, "velocity": 111, "channel": 0}, {"type": "note_on", "time": 18, "note": 73, "velocity": 120, "channel": 0}, {"type": "note_off", "time": 174, "note": 73, "velocity": 120, "channel": 0}, {"type": "note_on", "time": 19, "note": 71, "velocity": 116, "channel": 0}, {"type": "note_off", "time": 56, "note": 71, "velocity": 116, "channel": 0}, {"type": "note_on", "time": 20, "note": 70, "velocity": 119, "channel": 0}, {"type": "note_off", "time": 615, "note": 70, "velocity": 119, "channel": 0}, {"type": "note_on", "time": 63, "note": 68, "velocity": 115, "channel": 0}, {"type": "note_off", "time": 73, "note": 68, "velocity": 115, "channel": 0}, {"type": "note_on", "time": 0, "note": 67, "velocity": 109, "channel": 0}, {"type": "note_off", "time": 94, "note": 67, "velocity": 109, "channel": 0}, {"type": "note_on", "time": 27, "note": 63, "velocity": 118, "channel": 0}, {"type": "note_off", "time": 72, "note": 63, "velocity": 118, "channel": 0}, {"type": "note_on", "time": 9, "note": 62, "velocity": 107, "channel": 0}, {"type": "note_off", "time": 122, "note": 62, "velocity": 107, "channel": 0}, {"type": "note_on", "time": 5, "note": 65, "velocity": 107, "channel": 0}, {"type": "note_off", "time": 47, "note": 65, "velocity": 107, "channel": 0}, {"type": "note_on", "time": 26, "note": 63, "velocity": 117, "channel": 0}, {"type": "note_off", "time": 109, "note": 63, "velocity": 117, "channel": 0}, {"type": "note_on", "time": 16, "note": 65, "velocity": 105, "channel": 0}, {"type": "note_off", "time": 48, "note": 65, "velocity": 105, "channel": 0}, {"type": "note_on", "time": 37, "note": 67, "velocity": 108, "channel": 0}, {"type": "note_off", "time": 61, "note": 67, "velocity": 108, "channel": 0}, {"type": "note_on", "time": 18, "note": 70, "velocity": 114, "channel": 0}, {"type": "note_off", "time": 70, "note": 70, "velocity": 114, "channel": 0}, {"type": "note_on", "time": 20, "note": 71, "velocity": 115, "channel": 0}, {"type": "note_off", "time": 183, "note": 71, "velocity": 115, "channel": 0}, {"type": "note_on", "time": 705, "note": 63, "velocity": 111, "channel": 0}, {"type": "note_off", "time": 60, "note": 63, "velocity": 111, "channel": 0}, {"type": "note_on", "time": 21, "note": 66, "velocity": 111, "channel": 0}, {"type": "note_off", "time": 50, "note": 66, "velocity": 111, "channel": 0}, {"type": "note_on", "time": 22, "note": 71, "velocity": 94, "channel": 0}, {"type": "note_off", "time": 76, "note": 71, "velocity": 94, "channel": 0}, {"type": "note_on", "time": 8, "note": 62, "velocity": 108, "channel": 0}, {"type": "note_off", "time": 148, "note": 62, "velocity": 108, "channel": 0}, {"type": "note_on", "time": 7, "note": 64, "velocity": 107, "channel": 0}, {"type": "note_off", "time": 48, "note": 64, "velocity": 107, "channel": 0}, {"type": "note_on", "time": 39, "note": 66, "velocity": 110, "channel": 0}, {"type": "note_off", "time": 68, "note": 66, "velocity": 110, "channel": 0}, {"type": "note_on", "time": 13, "note": 69, "velocity": 114, "channel": 0}, {"type": "note_off", "time": 74, "note": 69, "velocity": 114, "channel": 0}, {"type": "note_on", "time": 16, "note": 67, "velocity": 113, "channel": 0}, {"type": "note_off", "time": 68, "note": 67, "velocity": 113, "channel": 0}, {"type": "note_on", "time": 20, "note": 62, "velocity": 109, "channel": 0}, {"type": "note_off", "time": 72, "note": 62, "velocity": 109, "channel": 0}, {"type": "note_on", "time": 25, "note": 59, "velocity": 103, "channel": 0}, {"type": "note_off", "time": 82, "note": 59, "velocity": 103, "channel": 0}, {"type": "note_on", "time": 7, "note": 55, "velocity": 98, "channel": 0}, {"type": "note_off", "time": 83, "note": 55, "velocity": 98, "channel": 0}, {"type": "note_on", "time": 13, "note": 60, "velocity": 111, "channel": 0}, {"type": "note_off", "time": 121, "note": 60, "velocity": 111, "channel": 0}, {"type": "note_on", "time": 1, "note": 56, "velocity": 111, "channel": 0}, {"type": "note_off", "time": 60, "note": 56, "velocity": 111, "channel": 0}, {"type": "note_on", "time": 37, "note": 55, "velocity": 107, "channel": 0}, {"type": "note_off", "time": 60, "note": 55, "velocity": 107, "channel": 0}, {"type": "note_on", "time": 23, "note": 53, "velocity": 107, "channel": 0}, {"type": "note_off", "time": 62, "note": 53, "velocity": 107, "channel": 0}, {"type": "note_on", "time": 17, "note": 51, "velocity": 102, "channel": 0}, {"type": "note_off", "time": 64, "note": 51, "velocity": 102, "channel": 0}, {"type": "note_on", "time": 35, "note": 53, "velocity": 103, "channel": 0}, {"type": "note_off", "time": 62, "note": 53, "velocity": 103, "channel": 0}, {"type": "note_on", "time": 13, "note": 55, "velocity": 104, "channel": 0}, {"type": "note_off", "time": 76, "note": 55, "velocity": 104, "channel": 0}, {"type": "note_on", "time": 11, "note": 56, "velocity": 107, "channel": 0}, {"type": "note_off", "time": 91, "note": 56, "velocity": 107, "channel": 0}, {"type": "note_on", "time": 19, "note": 57, "velocity": 107, "channel": 0}, {"type": "note_off", "time": 52, "note": 57, "velocity": 107, "channel": 0}, {"type": "note_on", "time": 41, "note": 60, "velocity": 103, "channel": 0}, {"type": "note_off", "time": 85, "note": 60, "velocity": 103, "channel": 0}, {"type": "note_on", "time": 23, "note": 62, "velocity": 104, "channel": 0}, {"type": "note_off", "time": 83, "note": 62, "velocity": 104, "channel": 0}, {"type": "note_on", "time": 27, "note": 65, "velocity": 110, "channel": 0}, {"type": "note_off", "time": 82, "note": 65, "velocity": 110, "channel": 0}, {"type": "note_on", "time": 27, "note": 64, "velocity": 104, "channel": 0}, {"type": "note_off", "time": 115, "note": 64, "velocity": 104, "channel": 0}, {"type": "note_on", "time": 2, "note": 67, "velocity": 108, "channel": 0}, {"type": "note_off", "time": 61, "note": 67, "velocity": 108, "channel": 0}, {"type": "note_on", "time": 116, "note": 67, "velocity": 104, "channel": 0}, {"type": "note_off", "time": 58, "note": 67, "velocity": 104, "channel": 0}, {"type": "note_on", "time": 0, "note": 71, "velocity": 110, "channel": 0}, {"type": "note_off", "time": 52, "note": 71, "velocity": 110, "channel": 0}, {"type": "note_on", "time": 62, "note": 63, "velocity": 99, "channel": 0}, {"type": "note_off", "time": 54, "note": 63, "velocity": 99, "channel": 0}, {"type": "note_on", "time": 23, "note": 67, "velocity": 105, "channel": 0}, {"type": "note_off", "time": 56, "note": 67, "velocity": 105, "channel": 0}, {"type": "note_on", "time": 31, "note": 71, "velocity": 115, "channel": 0}, {"type": "note_off", "time": 78, "note": 71, "velocity": 115, "channel": 0}, {"type": "note_on", "time": 9, "note": 67, "velocity": 106, "channel": 0}, {"type": "note_off", "time": 80, "note": 67, "velocity": 106, "channel": 0}, {"type": "note_on", "time": 19, "note": 69, "velocity": 108, "channel": 0}, {"type": "note_off", "time": 52, "note": 69, "velocity": 108, "channel": 0}, {"type": "note_on", "time": 33, "note": 71, "velocity": 113, "channel": 0}, {"type": "note_off", "time": 70, "note": 71, "velocity": 113, "channel": 0}, {"type": "note_on", "time": 69, "note": 74, "velocity": 101, "channel": 0}, {"type": "note_off", "time": 56, "note": 74, "velocity": 101, "channel": 0}, {"type": "note_on", "time": 14, "note": 68, "velocity": 115, "channel": 0}, {"type": "note_off", "time": 107, "note": 68, "velocity": 115, "channel": 0}, {"type": "note_on", "time": 13, "note": 72, "velocity": 113, "channel": 0}, {"type": "note_off", "time": 35, "note": 72, "velocity": 113, "channel": 0}, {"type": "note_on", "time": 13, "note": 71, "velocity": 112, "channel": 0}, {"type": "note_off", "time": 31, "note": 71, "velocity": 112, "channel": 0}, {"type": "note_on", "time": 7, "note": 70, "velocity": 113, "channel": 0}, {"type": "note_off", "time": 52, "note": 70, "velocity": 113, "channel": 0}, {"type": "note_on", "time": 21, "note": 68, "velocity": 111, "channel": 0}, {"type": "note_off", "time": 52, "note": 68, "velocity": 111, "channel": 0}, {"type": "note_on", "time": 15, "note": 67, "velocity": 108, "channel": 0}, {"type": "note_off", "time": 91, "note": 67, "velocity": 108, "channel": 0}, {"type": "note_on", "time": 9, "note": 62, "velocity": 104, "channel": 0}, {"type": "note_off", "time": 46, "note": 62, "velocity": 104, "channel": 0}, {"type": "note_on", "time": 17, "note": 65, "velocity": 101, "channel": 0}, {"type": "note_off", "time": 62, "note": 65, "velocity": 101, "channel": 0}, {"type": "note_on", "time": 39, "note": 67, "velocity": 111, "channel": 0}, {"type": "note_off", "time": 93, "note": 67, "velocity": 111, "channel": 0}, {"type": "note_on", "time": 21, "note": 64, "velocity": 114, "channel": 0}, {"type": "note_off", "time": 121, "note": 64, "velocity": 114, "channel": 0}, {"type": "note_on", "time": 27, "note": 66, "velocity": 104, "channel": 0}, {"type": "note_off", "time": 56, "note": 66, "velocity": 104, "channel": 0}, {"type": "note_on", "time": 23, "note": 68, "velocity": 97, "channel": 0}, {"type": "note_off", "time": 56, "note": 68, "velocity": 97, "channel": 0}, {"type": "note_on", "time": 23, "note": 70, "velocity": 107, "channel": 0}, {"type": "note_off", "time": 44, "note": 70, "velocity": 107, "channel": 0}, {"type": "note_on", "time": 17, "note": 73, "velocity": 115, "channel": 0}, {"type": "note_off", "time": 93, "note": 73, "velocity": 115, "channel": 0}, {"type": "note_on", "time": 19, "note": 70, "velocity": 116, "channel": 0}, {"type": "note_off", "time": 70, "note": 70, "velocity": 116, "channel": 0}, {"type": "note_on", "time": 25, "note": 68, "velocity": 110, "channel": 0}, {"type": "note_off", "time": 68, "note": 68, "velocity": 110, "channel": 0}, {"type": "note_on", "time": 33, "note": 66, "velocity": 109, "channel": 0}, {"type": "note_off", "time": 68, "note": 66, "velocity": 109, "channel": 0}, {"type": "note_on", "time": 5, "note": 63, "velocity": 114, "channel": 0}, {"type": "note_off", "time": 89, "note": 63, "velocity": 114, "channel": 0}, {"type": "note_on", "time": 25, "note": 61, "velocity": 107, "channel": 0}, {"type": "note_off", "time": 74, "note": 61, "velocity": 107, "channel": 0}, {"type": "note_on", "time": 39, "note": 59, "velocity": 100, "channel": 0}, {"type": "note_off", "time": 99, "note": 59, "velocity": 100, "channel": 0}, {"type": "note_on", "time": 17, "note": 55, "velocity": 106, "channel": 0}, {"type": "note_off", "time": 33, "note": 55, "velocity": 106, "channel": 0}, {"type": "note_on", "time": 0, "note": 60, "velocity": 103, "channel": 0}, {"type": "note_off", "time": 76, "note": 60, "velocity": 103, "channel": 0}, {"type": "note_on", "time": 15, "note": 62, "velocity": 110, "channel": 0}, {"type": "note_off", "time": 99, "note": 62, "velocity": 110, "channel": 0}, {"type": "note_on", "time": 13, "note": 63, "velocity": 118, "channel": 0}, {"type": "note_off", "time": 83, "note": 63, "velocity": 118, "channel": 0}, {"type": "note_on", "time": 27, "note": 65, "velocity": 106, "channel": 0}, {"type": "note_off", "time": 74, "note": 65, "velocity": 106, "channel": 0}, {"type": "note_on", "time": 27, "note": 67, "velocity": 113, "channel": 0}, {"type": "note_off", "time": 83, "note": 67, "velocity": 113, "channel": 0}, {"type": "note_on", "time": 31, "note": 65, "velocity": 108, "channel": 0}, {"type": "note_off", "time": 80, "note": 65, "velocity": 108, "channel": 0}, {"type": "note_on", "time": 21, "note": 62, "velocity": 115, "channel": 0}, {"type": "note_off", "time": 74, "note": 62, "velocity": 115, "channel": 0}, {"type": "note_on", "time": 29, "note": 60, "velocity": 109, "channel": 0}, {"type": "note_off", "time": 54, "note": 60, "velocity": 109, "channel": 0}, {"type": "note_on", "time": 3, "note": 58, "velocity": 108, "channel": 0}, {"type": "note_off", "time": 76, "note": 58, "velocity": 108, "channel": 0}, {"type": "note_on", "time": 37, "note": 68, "velocity": 114, "channel": 0}, {"type": "note_off", "time": 78, "note": 68, "velocity": 114, "channel": 0}, {"type": "note_on", "time": 15, "note": 67, "velocity": 111, "channel": 0}, {"type": "note_off", "time": 78, "note": 67, "velocity": 111, "channel": 0}, {"type": "note_on", "time": 21, "note": 62, "velocity": 101, "channel": 0}, {"type": "note_off", "time": 50, "note": 62, "velocity": 101, "channel": 0}, {"type": "note_on", "time": 21, "note": 65, "velocity": 102, "channel": 0}, {"type": "note_off", "time": 105, "note": 65, "velocity": 102, "channel": 0}, {"type": "note_on", "time": 9, "note": 63, "velocity": 114, "channel": 0}, {"type": "note_off", "time": 60, "note": 63, "velocity": 114, "channel": 0}, {"type": "note_on", "time": 27, "note": 62, "velocity": 108, "channel": 0}, {"type": "note_off", "time": 93, "note": 62, "velocity": 108, "channel": 0}, {"type": "note_on", "time": 31, "note": 60, "velocity": 100, "channel": 0}, {"type": "note_off", "time": 54, "note": 60, "velocity": 100, "channel": 0}, {"type": "note_on", "time": 23, "note": 64, "velocity": 113, "channel": 0}, {"type": "note_off", "time": 146, "note": 64, "velocity": 113, "channel": 0}, {"type": "note_on", "time": 218, "note": 70, "velocity": 95, "channel": 0}, {"type": "note_off", "time": 27, "note": 70, "velocity": 95, "channel": 0}, {"type": "note_on", "time": 11, "note": 71, "velocity": 118, "channel": 0}, {"type": "note_off", "time": 142, "note": 71, "velocity": 118, "channel": 0}, {"type": "note_on", "time": 21, "note": 69, "velocity": 117, "channel": 0}, {"type": "note_off", "time": 103, "note": 69, "velocity": 117, "channel": 0}, {"type": "note_on", "time": 83, "note": 69, "velocity": 106, "channel": 0}, {"type": "note_off", "time": 363, "note": 69, "velocity": 106, "channel": 0}, {"type": "note_on", "time": 7, "note": 66, "velocity": 104, "channel": 0}, {"type": "note_off", "time": 54, "note": 66, "velocity": 104, "channel": 0}, {"type": "note_on", "time": 27, "note": 62, "velocity": 103, "channel": 0}, {"type": "note_off", "time": 56, "note": 62, "velocity": 103, "channel": 0}, {"type": "note_on", "time": 25, "note": 59, "velocity": 96, "channel": 0}, {"type": "note_off", "time": 46, "note": 59, "velocity": 96, "channel": 0}, {"type": "note_on", "time": 25, "note": 57, "velocity": 98, "channel": 0}, {"type": "note_off", "time": 66, "note": 57, "velocity": 98, "channel": 0}, {"type": "note_on", "time": 236, "note": 68, "velocity": 102, "channel": 0}, {"type": "note_off", "time": 83, "note": 68, "velocity": 102, "channel": 0}, {"type": "note_on", "time": 17, "note": 69, "velocity": 122, "channel": 0}, {"type": "note_off", "time": 142, "note": 69, "velocity": 122, "channel": 0}, {"type": "note_on", "time": 17, "note": 68, "velocity": 120, "channel": 0}, {"type": "note_off", "time": 173, "note": 68, "velocity": 120, "channel": 0}, {"type": "note_on", "time": 39, "note": 71, "velocity": 124, "channel": 0}, {"type": "note_off", "time": 134, "note": 71, "velocity": 124, "channel": 0}, {"type": "note_on", "time": 33, "note": 70, "velocity": 118, "channel": 0}, {"type": "note_off", "time": 290, "note": 70, "velocity": 118, "channel": 0}, {"type": "note_on", "time": 21, "note": 66, "velocity": 117, "channel": 0}, {"type": "note_off", "time": 85, "note": 66, "velocity": 117, "channel": 0}, {"type": "note_on", "time": 7, "note": 63, "velocity": 117, "channel": 0}, {"type": "note_off", "time": 156, "note": 63, "velocity": 117, "channel": 0}, {"type": "note_on", "time": 37, "note": 59, "velocity": 103, "channel": 0}, {"type": "note_off", "time": 76, "note": 59, "velocity": 103, "channel": 0}, {"type": "note_on", "time": 56, "note": 70, "velocity": 107, "channel": 0}, {"type": "note_off", "time": 64, "note": 70, "velocity": 107, "channel": 0}, {"type": "note_on", "time": 8, "note": 71, "velocity": 108, "channel": 0}, {"type": "note_off", "time": 63, "note": 71, "velocity": 108, "channel": 0}, {"type": "note_on", "time": 21, "note": 74, "velocity": 110, "channel": 0}, {"type": "note_off", "time": 119, "note": 74, "velocity": 110, "channel": 0}, {"type": "note_on", "time": 38, "note": 72, "velocity": 116, "channel": 0}, {"type": "note_off", "time": 36, "note": 72, "velocity": 116, "channel": 0}, {"type": "note_on", "time": 6, "note": 71, "velocity": 114, "channel": 0}, {"type": "note_off", "time": 54, "note": 71, "velocity": 114, "channel": 0}, {"type": "note_on", "time": 10, "note": 70, "velocity": 119, "channel": 0}, {"type": "note_off", "time": 271, "note": 70, "velocity": 119, "channel": 0}, {"type": "note_on", "time": 31, "note": 68, "velocity": 113, "channel": 0}, {"type": "note_off", "time": 58, "note": 68, "velocity": 113, "channel": 0}, {"type": "note_on", "time": 12, "note": 67, "velocity": 118, "channel": 0}, {"type": "note_off", "time": 120, "note": 67, "velocity": 118, "channel": 0}, {"type": "note_on", "time": 27, "note": 65, "velocity": 108, "channel": 0}, {"type": "note_off", "time": 176, "note": 65, "velocity": 108, "channel": 0}, {"type": "note_on", "time": 26, "note": 63, "velocity": 114, "channel": 0}, {"type": "note_off", "time": 390, "note": 63, "velocity": 114, "channel": 0}, {"type": "note_on", "time": 21, "note": 61, "velocity": 95, "channel": 0}, {"type": "note_off", "time": 60, "note": 61, "velocity": 95, "channel": 0}, {"type": "note_on", "time": 17, "note": 63, "velocity": 118, "channel": 0}, {"type": "note_off", "time": 87, "note": 63, "velocity": 118, "channel": 0}, {"type": "note_on", "time": 11, "note": 66, "velocity": 109, "channel": 0}, {"type": "note_off", "time": 128, "note": 66, "velocity": 109, "channel": 0}, {"type": "end_of_track", "time": 0}]]}