{"ticks_per_beat": 192, "tracks": [[{"type": "track_name", "name": "Melody", "time": 0}, {"type": "set_tempo", "tempo": 307692, "time": 0}, {"type": "key_signature", "key": "F", "time": 0}, {"type": "time_signature", "numerator": 4, "denominator": 4, "clocks_per_click": 24, "notated_32nd_notes_per_beat": 8, "time": 0}, {"type": "note_on", "time": 2401, "note": 70, "velocity": 109, "channel": 0}, {"type": "note_off", "time": 33, "note": 70, "velocity": 109, "channel": 0}, {"type": "note_on", "time": 3, "note": 72, "velocity": 112, "channel": 0}, {"type": "note_off", "time": 338, "note": 72, "velocity": 112, "channel": 0}, {"type": "note_on", "time": 13, "note": 70, "velocity": 117, "channel": 0}, {"type": "note_off", "time": 173, "note": 70, "velocity": 117, "channel": 0}, {"type": "note_on", "time": 0, "note": 72, "velocity": 109, "channel": 0}, {"type": "note_off", "time": 134, "note": 72, "velocity": 109, "channel": 0}, {"type": "note_on", "time": 15, "note": 68, "velocity": 113, "channel": 0}, {"type": "note_off", "time": 460, "note": 68, "velocity": 113, "channel": 0}, {"type": "note_on", "time": 0, "note": 66, "velocity": 93, "channel": 0}, {"type": "note_off", "time": 119, "note": 66, "velocity": 93, "channel": 0}, {"type": "note_on", "time": 47, "note": 68, "velocity": 114, "channel": 0}, {"type": "note_off", "time": 191, "note": 68, "velocity": 114, "channel": 0}, {"type": "note_on", "time": 2, "note": 64, "velocity": 107, "channel": 0}, {"type": "note_off", "time": 380, "note": 64, "velocity": 107, "channel": 0}, {"type": "note_on", "time": 7, "note": 62, "velocity": 119, "channel": 0}, {"type": "note_off", "time": 173, "note": 62, "velocity": 119, "channel": 0}, {"type": "note_on", "time": 4, "note": 64, "velocity": 113, "channel": 0}, {"type": "note_off", "time": 143, "note": 64, "velocity": 113, "channel": 0}, {"type": "note_on", "time": 0, "note": 60, "velocity": 106, "channel": 0}, {"type": "note_off", "time": 123, "note": 60, "velocity": 106, "channel": 0}, {"type": "note_on", "time": 365, "note": 69, "velocity": 113, "channel": 0}, {"type": "note_off", "time": 105, "note": 69, "velocity": 113, "channel": 0}, {"type": "note_on", "time": 11, "note": 67, "velocity": 110, "channel": 0}, {"type": "note_off", "time": 61, "note": 67, "velocity": 110, "channel": 0}, {"type": "note_on", "time": 18, "note": 63, "velocity": 112, "channel": 0}, {"type": "note_off", "time": 79, "note": 63, "velocity": 112, "channel": 0}, {"type": "note_on", "time": 25, "note": 60, "velocity": 108, "channel": 0}, {"type": "note_on", "time": 65, "note": 58, "velocity": 99, "channel": 0}, {"type": "note_off", "time": 0, "note": 60, "velocity": 108, "channel": 0}, {"type": "note_off", "time": 97, "note": 58, "velocity": 99, "channel": 0}, {"type": "note_on", "time": 206, "note": 65, "velocity": 110, "channel": 0}, {"type": "note_off", "time": 83, "note": 65, "velocity": 110, "channel": 0}, {"type": "note_on", "time": 3, "note": 63, "velocity": 111, "channel": 0}, {"type": "note_off", "time": 123, "note": 63, "velocity": 111, "channel": 0}, {"type": "note_on", "time": 27, "note": 59, "velocity": 107, "channel": 0}, {"type": "note_off", "time": 105, "note": 59, "velocity": 107, "channel": 0}, {"type": "note_on", "time": 37, "note": 61, "velocity": 110, "channel": 0}, {"type": "note_off", "time": 76, "note": 61, "velocity": 110, "channel": 0}, {"type": "note_on", "time": 3, "note": 58, "velocity": 101, "channel": 0}, {"type": "note_off", "time": 101, "note": 58, "velocity": 101, "channel": 0}, {"type": "note_on", "time": 205, "note": 70, "velocity": 116, "channel": 0}, {"type": "note_off", "time": 72, "note": 70, "velocity": 116, "channel": 0}, {"type": "note_on", "time": 18, "note": 69, "velocity": 110, "channel": 0}, {"type": "note_off", "time": 101, "note": 69, "velocity": 110, "channel": 0}, {"type": "note_on", "time": 0, "note": 68, "velocity": 114, "channel": 0}, {"type": "note_off", "time": 83, "note": 68, "velocity": 114, "channel": 0}, {"type": "note_on", "time": 0, "note": 67, "velocity": 104, "channel": 0}, {"type": "note_off", "time": 108, "note": 67, "velocity": 104, "channel": 0}, {"type": "note_on", "time": 18, "note": 71, "velocity": 114, "channel": 0}, {"type": "note_off", "time": 86, "note": 71, "velocity": 114, "channel": 0}, {"type": "note_on", "time": 0, "note": 69, "velocity": 113, "channel": 0}, {"type": "note_off", "time": 90, "note": 69, "velocity": 113, "channel": 0}, {"type": "note_on", "time": 7, "note": 65, "velocity": 107, "channel": 0}, {"type": "note_off", "time": 72, "note": 65, "velocity": 107, "channel": 0}, {"type": "note_on", "time": 0, "note": 62, "velocity": 114, "channel": 0}, {"type": "note_off", "time": 137, "note": 62, "velocity": 114, "channel": 0}, {"type": "note_on", "time": 1, "note": 59, "velocity": 105, "channel": 0}, {"type": "note_off", "time": 87, "note": 59, "velocity": 105, "channel": 0}, {"type": "note_on", "time": 250, "note": 69, "velocity": 116, "channel": 0}, {"type": "note_off", "time": 359, "note": 69, "velocity": 116, "channel": 0}, {"type": "note_on", "time": 30, "note": 64, "velocity": 120, "channel": 0}, {"type": "note_off", "time": 68, "note": 64, "velocity": 120, "channel": 0}, {"type": "note_on", "time": 16, "note": 60, "velocity": 108, "channel": 0}, {"type": "note_off", "time": 126, "note": 60, "velocity": 108, "channel": 0}, {"type": "note_on", "time": 1, "note": 58, "velocity": 99, "channel": 0}, {"type": "note_off", "time": 82, "note": 58, "velocity": 99, "channel": 0}, {"type": "note_on", "time": 379, "note": 69, "velocity": 115, "channel": 0}, {"type": "note_on", "time": 108, "note": 72, "velocity": 112, "channel": 0}, {"type": "note_off", "time": 0, "note": 69, "velocity": 115, "channel": 0}, {"type": "note_off", "time": 79, "note": 72, "velocity": 112, "channel": 0}, {"type": "note_on", "time": 7, "note": 68, "velocity": 114, "channel": 0}, {"type": "note_off", "time": 86, "note": 68, "velocity": 114, "channel": 0}, {"type": "note_on", "time": 10, "note": 66, "velocity": 108, "channel": 0}, {"type": "note_off", "time": 60, "note": 66, "velocity": 108, "channel": 0}, {"type": "note_on", "time": 0, "note": 63, "velocity": 113, "channel": 0}, {"type": "note_off", "time": 123, "note": 63, "velocity": 113, "channel": 0}, {"type": "note_on", "time": 28, "note": 59, "velocity": 96, "channel": 0}, {"type": "note_off", "time": 46, "note": 59, "velocity": 96, "channel": 0}, {"type": "note_on", "time": 10, "note": 65, "velocity": 106, "channel": 0}, {"type": "note_off", "time": 108, "note": 65, "velocity": 106, "channel": 0}, {"type": "note_on", "time": 18, "note": 61, "velocity": 106, "channel": 0}, {"type": "note_off", "time": 53, "note": 61, "velocity": 106, "channel": 0}, {"type": "note_on", "time": 20, "note": 65, "velocity": 111, "channel": 0}, {"type": "note_off", "time": 199, "note": 65, "velocity": 111, "channel": 0}, {"type": "note_on", "time": 7, "note": 62, "velocity": 118, "channel": 0}, {"type": "note_off", "time": 112, "note": 62, "velocity": 118, "channel": 0}, {"type": "note_on", "time": 0, "note": 62, "velocity": 116, "channel": 0}, {"type": "note_on", "time": 83, "note": 59, "velocity": 105, "channel": 0}, {"type": "note_off", "time": 0, "note": 62, "velocity": 116, "channel": 0}, {"type": "note_off", "time": 123, "note": 59, "velocity": 105, "channel": 0}, {"type": "note_on", "time": 78, "note": 64, "velocity": 117, "channel": 0}, {"type": "note_off", "time": 119, "note": 64, "velocity": 117, "channel": 0}, {"type": "note_on", "time": 70, "note": 61, "velocity": 109, "channel": 0}, {"type": "note_off", "time": 101, "note": 61, "velocity": 109, "channel": 0}, {"type": "note_on", "time": 21, "note": 64, "velocity": 115, "channel": 0}, {"type": "note_off", "time": 65, "note": 64, "velocity": 115, "channel": 0}, {"type": "note_on", "time": 14, "note": 60, "velocity": 106, "channel": 0}, {"type": "note_off", "time": 112, "note": 60, "velocity": 106, "channel": 0}, {"type": "note_on", "time": 7, "note": 59, "velocity": 104, "channel": 0}, {"type": "note_off", "time": 65, "note": 59, "velocity": 104, "channel": 0}, {"type": "note_on", "time": 0, "note": 58, "velocity": 100, "channel": 0}, {"type": "note_off", "time": 101, "note": 58, "velocity": 100, "channel": 0}, {"type": "note_on", "time": 0, "note": 60, "velocity": 105, "channel": 0}, {"type": "note_off", "time": 101, "note": 60, "velocity": 105, "channel": 0}, {"type": "note_on", "time": 0, "note": 57, "velocity": 106, "channel": 0}, {"type": "note_off", "time": 108, "note": 57, "velocity": 106, "channel": 0}, {"type": "note_on", "time": 2, "note": 53, "velocity": 106, "channel": 0}, {"type": "note_off", "time": 62, "note": 53, "velocity": 106, "channel": 0}, {"type": "note_on", "time": 14, "note": 55, "velocity": 100, "channel": 0}, {"type": "note_off", "time": 101, "note": 55, "velocity": 100, "channel": 0}, {"type": "note_on", "time": 21, "note": 51, "velocity": 107, "channel": 0}, {"type": "note_off", "time": 166, "note": 51, "velocity": 107, "channel": 0}, {"type": "note_on", "time": 510, "note": 65, "velocity": 108, "channel": 0}, {"type": "note_off", "time": 108, "note": 65, "velocity": 108, "channel": 0}, {"type": "note_on", "time": 3, "note": 70, "velocity": 112, "channel": 0}, {"type": "note_off", "time": 94, "note": 70, "velocity": 112, "channel": 0}, {"type": "note_on", "time": 0, "note": 63, "velocity": 114, "channel": 0}, {"type": "note_off", "time": 97, "note": 63, "velocity": 114, "channel": 0}, {"type": "note_on", "time": 0, "note": 66, "velocity": 107, "channel": 0}, {"type": "note_off", "time": 130, "note": 66, "velocity": 107, "channel": 0}, {"type": "note_on", "time": 134, "note": 68, "velocity": 112, "channel": 0}, {"type": "note_off", "time": 97, "note": 68, "velocity": 112, "channel": 0}, {"type": "note_on", "time": 21, "note": 65, "velocity": 111, "channel": 0}, {"type": "note_off", "time": 65, "note": 65, "velocity": 111, "channel": 0}, {"type": "note_on", "time": 0, "note": 61, "velocity": 113, "channel": 0}, {"type": "note_off", "time": 119, "note": 61, "velocity": 113, "channel": 0}, {"type": "note_on", "time": 23, "note": 56, "velocity": 103, "channel": 0}, {"type": "note_off", "time": 41, "note": 56, "velocity": 103, "channel": 0}, {"type": "note_on", "time": 0, "note": 62, "velocity": 117, "channel": 0}, {"type": "note_off", "time": 184, "note": 62, "velocity": 117, "channel": 0}, {"type": "note_on", "time": 18, "note": 59, "velocity": 107, "channel": 0}, {"type": "note_off", "time": 105, "note": 59, "velocity": 107, "channel": 0}, {"type": "note_on", "time": 5, "note": 56, "velocity": 97, "channel": 0}, {"type": "note_off", "time": 59, "note": 56, "velocity": 97, "channel": 0}, {"type": "note_on", "time": 21, "note": 57, "velocity": 108, "channel": 0}, {"type": "note_off", "time": 108, "note": 57, "velocity": 108, "channel": 0}, {"type": "note_on", "time": 21, "note": 59, "velocity": 107, "channel": 0}, {"type": "note_off", "time": 43, "note": 59, "velocity": 107, "channel": 0}, {"type": "note_on", "time": 10, "note": 61, "velocity": 112, "channel": 0}, {"type": "note_on", "time": 101, "note": 62, "velocity": 114, "channel": 0}, {"type": "note_off", "time": 0, "note": 61, "velocity": 112, "channel": 0}, {"type": "note_off", "time": 101, "note": 62, "velocity": 114, "channel": 0}, {"type": "note_on", "time": 0, "note": 58, "velocity": 104, "channel": 0}, {"type": "note_off", "time": 173, "note": 58, "velocity": 104, "channel": 0}, {"type": "note_on", "time": 0, "note": 60, "velocity": 105, "channel": 0}, {"type": "note_off", "time": 119, "note": 60, "velocity": 105, "channel": 0}, {"type": "note_on", "time": 5, "note": 57, "velocity": 101, "channel": 0}, {"type": "note_off", "time": 323, "note": 57, "velocity": 101, "channel": 0}, {"type": "note_on", "time": 120, "note": 55, "velocity": 107, "channel": 0}, {"type": "note_off", "time": 126, "note": 55, "velocity": 107, "channel": 0}, {"type": "note_on", "time": 21, "note": 53, "velocity": 109, "channel": 0}, {"type": "note_off", "time": 152, "note": 53, "velocity": 109, "channel": 0}, {"type": "note_on", "time": 609, "note": 60, "velocity": 114, "channel": 0}, {"type": "note_off", "time": 50, "note": 60, "velocity": 114, "channel": 0}, {"type": "note_on", "time": 42, "note": 63, "velocity": 104, "channel": 0}, {"type": "note_off", "time": 49, "note": 63, "velocity": 104, "channel": 0}, {"type": "note_on", "time": 15, "note": 66, "velocity": 101, "channel": 0}, {"type": "note_off", "time": 33, "note": 66, "velocity": 101, "channel": 0}, {"type": "note_on", "time": 5, "note": 69, "velocity": 116, "channel": 0}, {"type": "note_off", "time": 76, "note": 69, "velocity": 116, "channel": 0}, {"type": "note_on", "time": 2, "note": 64, "velocity": 112, "channel": 0}, {"type": "note_off", "time": 134, "note": 64, "velocity": 112, "channel": 0}, {"type": "note_on", "time": 160, "note": 69, "velocity": 115, "channel": 0}, {"type": "note_off", "time": 86, "note": 69, "velocity": 115, "channel": 0}, {"type": "note_on", "time": 9, "note": 71, "velocity": 114, "channel": 0}, {"type": "note_off", "time": 83, "note": 71, "velocity": 114, "channel": 0}, {"type": "note_on", "time": 2, "note": 73, "velocity": 112, "channel": 0}, {"type": "note_off", "time": 28, "note": 73, "velocity": 112, "channel": 0}, {"type": "note_on", "time": 4, "note": 74, "velocity": 114, "channel": 0}, {"type": "note_off", "time": 67, "note": 74, "velocity": 114, "channel": 0}, {"type": "note_on", "time": 9, "note": 73, "velocity": 118, "channel": 0}, {"type": "note_off", "time": 112, "note": 73, "velocity": 118, "channel": 0}, {"type": "note_on", "time": 0, "note": 71, "velocity": 114, "channel": 0}, {"type": "note_off", "time": 83, "note": 71, "velocity": 114, "channel": 0}, {"type": "note_on", "time": 0, "note": 69, "velocity": 117, "channel": 0}, {"type": "note_off", "time": 108, "note": 69, "velocity": 117, "channel": 0}, {"type": "note_on", "time": 0, "note": 67, "velocity": 109, "channel": 0}, {"type": "note_off", "time": 97, "note": 67, "velocity": 109, "channel": 0}, {"type": "note_on", "time": 0, "note": 66, "velocity": 107, "channel": 0}, {"type": "note_off", "time": 72, "note": 66, "velocity": 107, "channel": 0}, {"type": "note_on", "time": 17, "note": 69, "velocity": 107, "channel": 0}, {"type": "note_off", "time": 68, "note": 69, "velocity": 107, "channel": 0}, {"type": "note_on", "time": 0, "note": 63, "velocity": 115, "channel": 0}, {"type": "note_off", "time": 85, "note": 63, "velocity": 115, "channel": 0}, {"type": "note_on", "time": 42, "note": 65, "velocity": 110, "channel": 0}, {"type": "note_off", "time": 86, "note": 65, "velocity": 110, "channel": 0}, {"type": "note_on", "time": 0, "note": 69, "velocity": 110, "channel": 0}, {"type": "note_off", "time": 101, "note": 69, "velocity": 110, "channel": 0}, {"type": "note_on", "time": 0, "note": 74, "velocity": 109, "channel": 0}, {"type": "note_off", "time": 50, "note": 74, "velocity": 109, "channel": 0}, {"type": "note_on", "time": 18, "note": 70, "velocity": 110, "channel": 0}, {"type": "note_off", "time": 304, "note": 70, "velocity": 110, "channel": 0}, {"type": "note_on", "time": 17, "note": 72, "velocity": 105, "channel": 0}, {"type": "note_off", "time": 49, "note": 72, "velocity": 105, "channel": 0}, {"type": "note_on", "time": 22, "note": 70, "velocity": 109, "channel": 0}, {"type": "note_off", "time": 97, "note": 70, "velocity": 109, "channel": 0}, {"type": "note_on", "time": 46, "note": 70, "velocity": 113, "channel": 0}, {"type": "note_off", "time": 173, "note": 70, "velocity": 113, "channel": 0}, {"type": "note_on", "time": 360, "note": 71, "velocity": 118, "channel": 0}, {"type": "note_off", "time": 25, "note": 71, "velocity": 118, "channel": 0}, {"type": "note_on", "time": 10, "note": 72, "velocity": 110, "channel": 0}, {"type": "note_off", "time": 371, "note": 72, "velocity": 110, "channel": 0}, {"type": "note_on", "time": 12, "note": 70, "velocity": 100, "channel": 0}, {"type": "note_off", "time": 34, "note": 70, "velocity": 100, "channel": 0}, {"type": "note_on", "time": 4, "note": 72, "velocity": 110, "channel": 0}, {"type": "note_off", "time": 75, "note": 72, "velocity": 110, "channel": 0}, {"type": "note_on", "time": 10, "note": 75, "velocity": 115, "channel": 0}, {"type": "note_off", "time": 289, "note": 75, "velocity": 115, "channel": 0}, {"type": "note_on", "time": 15, "note": 72, "velocity": 111, "channel": 0}, {"type": "note_off", "time": 133, "note": 72, "velocity": 111, "channel": 0}, {"type": "note_on", "time": 4, "note": 71, "velocity": 108, "channel": 0}, {"type": "note_off", "time": 52, "note": 71, "velocity": 108, "channel": 0}, {"type": "note_on", "time": 7, "note": 72, "velocity": 109, "channel": 0}, {"type": "note_off", "time": 188, "note": 72, "velocity": 109, "channel": 0}, {"type": "note_on", "time": 1, "note": 68, "velocity": 108, "channel": 0}, {"type": "note_off", "time": 299, "note": 68, "velocity": 108, "channel": 0}, {"type": "note_on", "time": 22, "note": 65, "velocity": 114, "channel": 0}, {"type": "note_off", "time": 54, "note": 65, "velocity": 114, "channel": 0}, {"type": "note_on", "time": 6, "note": 60, "velocity": 107, "channel": 0}, {"type": "note_off", "time": 141, "note": 60, "velocity": 107, "channel": 0}, {"type": "note_on", "time": 4, "note": 58, "velocity": 101, "channel": 0}, {"type": "note_off", "time": 90, "note": 58, "velocity": 101, "channel": 0}, {"type": "note_on", "time": 442, "note": 71, "velocity": 107, "channel": 0}, {"type": "note_off", "time": 58, "note": 71, "velocity": 107, "channel": 0}, {"type": "note_on", "time": 0, "note": 75, "velocity": 112, "channel": 0}, {"type": "note_off", "time": 246, "note": 75, "velocity": 112, "channel": 0}, {"type": "note_on", "time": 73, "note": 73, "velocity": 115, "channel": 0}, {"type": "note_off", "time": 73, "note": 73, "velocity": 115, "channel": 0}, {"type": "note_on", "time": 10, "note": 72, "velocity": 111, "channel": 0}, {"type": "note_off", "time": 95, "note": 72, "velocity": 111, "channel": 0}, {"type": "note_on", "time": 42, "note": 69, "velocity": 115, "channel": 0}, {"type": "note_on", "time": 68, "note": 70, "velocity": 114, "channel": 0}, {"type": "note_off", "time": 0, "note": 69, "velocity": 115, "channel": 0}, {"type": "note_off", "time": 119, "note": 70, "velocity": 114, "channel": 0}, {"type": "note_on", "time": 0, "note": 68, "velocity": 109, "channel": 0}, {"type": "note_off", "time": 387, "note": 68, "velocity": 109, "channel": 0}, {"type": "note_on", "time": 0, "note": 66, "velocity": 109, "channel": 0}, {"type": "note_off", "time": 72, "note": 66, "velocity": 109, "channel": 0}, {"type": "note_on", "time": 0, "note": 65, "velocity": 101, "channel": 0}, {"type": "note_off", "time": 119, "note": 65, "velocity": 101, "channel": 0}, {"type": "note_on", "time": 3, "note": 63, "velocity": 114, "channel": 0}, {"type": "note_off", "time": 54, "note": 63, "velocity": 114, "channel": 0}, {"type": "note_on", "time": 10, "note": 61, "velocity": 110, "channel": 0}, {"type": "note_off", "time": 148, "note": 61, "velocity": 110, "channel": 0}, {"type": "note_on", "time": 6, "note": 57, "velocity": 98, "channel": 0}, {"type": "note_off", "time": 44, "note": 57, "velocity": 98, "channel": 0}, {"type": "note_on", "time": 0, "note": 62, "velocity": 116, "channel": 0}, {"type": "note_off", "time": 100, "note": 62, "velocity": 116, "channel": 0}, {"type": "note_on", "time": 11, "note": 62, "velocity": 116, "channel": 0}, {"type": "note_off", "time": 54, "note": 62, "velocity": 116, "channel": 0}, {"type": "note_on", "time": 17, "note": 59, "velocity": 105, "channel": 0}, {"type": "note_off", "time": 115, "note": 59, "velocity": 105, "channel": 0}, {"type": "note_on", "time": 6, "note": 54, "velocity": 97, "channel": 0}, {"type": "note_off", "time": 42, "note": 54, "velocity": 97, "channel": 0}, {"type": "note_on", "time": 32, "note": 64, "velocity": 119, "channel": 0}, {"type": "note_off", "time": 134, "note": 64, "velocity": 119, "channel": 0}, {"type": "note_on", "time": 70, "note": 69, "velocity": 116, "channel": 0}, {"type": "note_off", "time": 121, "note": 69, "velocity": 116, "channel": 0}, {"type": "note_on", "time": 0, "note": 73, "velocity": 112, "channel": 0}, {"type": "note_off", "time": 59, "note": 73, "velocity": 112, "channel": 0}, {"type": "note_on", "time": 4, "note": 69, "velocity": 114, "channel": 0}, {"type": "note_off", "time": 105, "note": 69, "velocity": 114, "channel": 0}, {"type": "note_on", "time": 12, "note": 70, "velocity": 113, "channel": 0}, {"type": "note_off", "time": 379, "note": 70, "velocity": 113, "channel": 0}, {"type": "note_on", "time": 0, "note": 72, "velocity": 107, "channel": 0}, {"type": "note_off", "time": 68, "note": 72, "velocity": 107, "channel": 0}, {"type": "note_on", "time": 19, "note": 69, "velocity": 114, "channel": 0}, {"type": "note_off", "time": 115, "note": 69, "velocity": 114, "channel": 0}, {"type": "note_on", "time": 3, "note": 67, "velocity": 109, "channel": 0}, {"type": "note_off", "time": 68, "note": 67, "velocity": 109, "channel": 0}, {"type": "note_on", "time": 7, "note": 65, "velocity": 103, "channel": 0}, {"type": "note_on", "time": 97, "note": 64, "velocity": 114, "channel": 0}, {"type": "note_off", "time": 0, "note": 65, "velocity": 103, "channel": 0}, {"type": "note_off", "time": 94, "note": 64, "velocity": 114, "channel": 0}, {"type": "note_on", "time": 0, "note": 63, "velocity": 114, "channel": 0}, {"type": "note_off", "time": 115, "note": 63, "velocity": 114, "channel": 0}, {"type": "note_on", "time": 7, "note": 65, "velocity": 106, "channel": 0}, {"type": "note_off", "time": 61, "note": 65, "velocity": 106, "channel": 0}, {"type": "note_on", "time": 2, "note": 61, "velocity": 107, "channel": 0}, {"type": "note_off", "time": 48, "note": 61, "velocity": 107, "channel": 0}, {"type": "note_on", "time": 1, "note": 62, "velocity": 113, "channel": 0}, {"type": "note_off", "time": 103, "note": 62, "velocity": 113, "channel": 0}, {"type": "note_on", "time": 32, "note": 58, "velocity": 100, "channel": 0}, {"type": "note_off", "time": 141, "note": 58, "velocity": 100, "channel": 0}, {"type": "note_on", "time": 76, "note": 56, "velocity": 100, "channel": 0}, {"type": "note_off", "time": 155, "note": 56, "velocity": 100, "channel": 0}, {"type": "note_on", "time": 16, "note": 54, "velocity": 99, "channel": 0}, {"type": "note_off", "time": 110, "note": 54, "velocity": 99, "channel": 0}, {"type": "note_on", "time": 6, "note": 53, "velocity": 101, "channel": 0}, {"type": "note_off", "time": 155, "note": 53, "velocity": 101, "channel": 0}, {"type": "note_on", "time": 413, "note": 62, "velocity": 116, "channel": 0}, {"type": "note_off", "time": 83, "note": 62, "velocity": 116, "channel": 0}, {"type": "note_on", "time": 13, "note": 59, "velocity": 106, "channel": 0}, {"type": "note_off", "time": 90, "note": 59, "velocity": 106, "channel": 0}, {"type": "note_on", "time": 126, "note": 61, "velocity": 110, "channel": 0}, {"type": "note_off", "time": 141, "note": 61, "velocity": 110, "channel": 0}, {"type": "note_on", "time": 7, "note": 64, "velocity": 99, "channel": 0}, {"type": "note_off", "time": 130, "note": 64, "velocity": 99, "channel": 0}, {"type": "note_on", "time": 61, "note": 60, "velocity": 107, "channel": 0}, {"type": "note_off", "time": 177, "note": 60, "velocity": 107, "channel": 0}, {"type": "note_on", "time": 34, "note": 58, "velocity": 92, "channel": 0}, {"type": "note_off", "time": 72, "note": 58, "velocity": 92, "channel": 0}, {"type": "note_on", "time": 34, "note": 60, "velocity": 105, "channel": 0}, {"type": "note_off", "time": 141, "note": 60, "velocity": 105, "channel": 0}, {"type": "note_on", "time": 409, "note": 68, "velocity": 113, "channel": 0}, {"type": "note_off", "time": 46, "note": 68, "velocity": 113, "channel": 0}, {"type": "note_on", "time": 3, "note": 69, "velocity": 114, "channel": 0}, {"type": "note_off", "time": 140, "note": 69, "velocity": 114, "channel": 0}, {"type": "note_on", "time": 43, "note": 60, "velocity": 102, "channel": 0}, {"type": "note_off", "time": 47, "note": 60, "velocity": 102, "channel": 0}, {"type": "note_on", "time": 11, "note": 65, "velocity": 106, "channel": 0}, {"type": "note_off", "time": 112, "note": 65, "velocity": 106, "channel": 0}, {"type": "note_on", "time": 83, "note": 69, "velocity": 112, "channel": 0}, {"type": "note_off", "time": 126, "note": 69, "velocity": 112, "channel": 0}, {"type": "note_on", "time": 0, "note": 68, "velocity": 113, "channel": 0}, {"type": "note_off", "time": 260, "note": 68, "velocity": 113, "channel": 0}, {"type": "note_on", "time": 0, "note": 66, "velocity": 104, "channel": 0}, {"type": "note_off", "time": 112, "note": 66, "velocity": 104, "channel": 0}, {"type": "note_on", "time": 101, "note": 65, "velocity": 105, "channel": 0}, {"type": "note_off", "time": 166, "note": 65, "velocity": 105, "channel": 0}, {"type": "note_on", "time": 7, "note": 68, "velocity": 103, "channel": 0}, {"type": "note_off", "time": 119, "note": 68, "velocity": 103, "channel": 0}, {"type": "note_on", "time": 86, "note": 64, "velocity": 110, "channel": 0}, {"type": "note_off", "time": 166, "note": 64, "velocity": 110, "channel": 0}, {"type": "note_on", "time": 0, "note": 62, "velocity": 115, "channel": 0}, {"type": "note_off", "time": 141, "note": 62, "velocity": 115, "channel": 0}, {"type": "note_on", "time": 91, "note": 61, "velocity": 110, "channel": 0}, {"type": "note_off", "time": 148, "note": 61, "velocity": 110, "channel": 0}, {"type": "note_on", "time": 10, "note": 64, "velocity": 114, "channel": 0}, {"type": "note_off", "time": 126, "note": 64, "velocity": 114, "channel": 0}, {"type": "note_on", "time": 76, "note": 60, "velocity": 104, "channel": 0}, {"type": "note_off", "time": 195, "note": 60, "velocity": 104, "channel": 0}, {"type": "note_on", "time": 0, "note": 69, "velocity": 108, "channel": 0}, {"type": "note_off", "time": 137, "note": 69, "velocity": 108, "channel": 0}, {"type": "note_on", "time": 3, "note": 65, "velocity": 103, "channel": 0}, {"type": "note_off", "time": 119, "note": 65, "velocity": 103, "channel": 0}, {"type": "note_on", "time": 546, "note": 67, "velocity": 105, "channel": 0}, {"type": "note_off", "time": 112, "note": 67, "velocity": 105, "channel": 0}, {"type": "note_on", "time": 18, "note": 63, "velocity": 103, "channel": 0}, {"type": "note_off", "time": 38, "note": 63, "velocity": 103, "channel": 0}, {"type": "note_on", "time": 12, "note": 65, "velocity": 106, "channel": 0}, {"type": "note_off", "time": 123, "note": 65, "velocity": 106, "channel": 0}, {"type": "note_on", "time": 220, "note": 65, "velocity": 116, "channel": 0}, {"type": "note_off", "time": 65, "note": 65, "velocity": 116, "channel": 0}, {"type": "note_on", "time": 0, "note": 63, "velocity": 109, "channel": 0}, {"type": "note_off", "time": 144, "note": 63, "velocity": 109, "channel": 0}, {"type": "note_on", "time": 54, "note": 59, "velocity": 105, "channel": 0}, {"type": "note_off", "time": 97, "note": 59, "velocity": 105, "channel": 0}, {"type": "note_on", "time": 25, "note": 61, "velocity": 110, "channel": 0}, {"type": "note_off", "time": 72, "note": 61, "velocity": 110, "channel": 0}, {"type": "note_on", "time": 7, "note": 58, "velocity": 102, "channel": 0}, {"type": "note_off", "time": 99, "note": 58, "velocity": 102, "channel": 0}, {"type": "note_on", "time": 0, "note": 54, "velocity": 102, "channel": 0}, {"type": "note_off", "time": 69, "note": 54, "velocity": 102, "channel": 0}, {"type": "note_on", "time": 134, "note": 54, "velocity": 98, "channel": 0}, {"type": "note_off", "time": 255, "note": 54, "velocity": 98, "channel": 0}, {"type": "note_on", "time": 183, "note": 55, "velocity": 103, "channel": 0}, {"type": "note_off", "time": 130, "note": 55, "velocity": 103, "channel": 0}, {"type": "note_on", "time": 0, "note": 53, "velocity": 102, "channel": 0}, {"type": "note_off", "time": 108, "note": 53, "velocity": 102, "channel": 0}, {"type": "note_on", "time": 659, "note": 55, "velocity": 111, "channel": 0}, {"type": "note_off", "time": 72, "note": 55, "velocity": 111, "channel": 0}, {"type": "note_on", "time": 5, "note": 52, "velocity": 113, "channel": 0}, {"type": "note_off", "time": 90, "note": 52, "velocity": 113, "channel": 0}, {"type": "note_on", "time": 13, "note": 45, "velocity": 115, "channel": 0}, {"type": "note_off", "time": 61, "note": 45, "velocity": 115, "channel": 0}, {"type": "note_on", "time": 692, "note": 60, "velocity": 115, "channel": 0}, {"type": "note_off", "time": 83, "note": 60, "velocity": 115, "channel": 0}, {"type": "note_on", "time": 0, "note": 58, "velocity": 109, "channel": 0}, {"type": "note_off", "time": 101, "note": 58, "velocity": 109, "channel": 0}, {"type": "note_on", "time": 0, "note": 54, "velocity": 109, "channel": 0}, {"type": "note_off", "time": 94, "note": 54, "velocity": 109, "channel": 0}, {"type": "note_on", "time": 105, "note": 56, "velocity": 105, "channel": 0}, {"type": "note_off", "time": 76, "note": 56, "velocity": 105, "channel": 0}, {"type": "note_on", "time": 7, "note": 53, "velocity": 107, "channel": 0}, {"type": "note_off", "time": 97, "note": 53, "velocity": 107, "channel": 0}, {"type": "note_on", "time": 311, "note": 61, "velocity": 109, "channel": 0}, {"type": "note_off", "time": 90, "note": 61, "velocity": 109, "channel": 0}, {"type": "note_on", "time": 0, "note": 62, "velocity": 110, "channel": 0}, {"type": "note_off", "time": 90, "note": 62, "velocity": 110, "channel": 0}, {"type": "note_on", "time": 0, "note": 59, "velocity": 107, "channel": 0}, {"type": "note_off", "time": 119, "note": 59, "velocity": 107, "channel": 0}, {"type": "note_on", "time": 43, "note": 57, "velocity": 105, "channel": 0}, {"type": "note_off", "time": 119, "note": 57, "velocity": 105, "channel": 0}, {"type": "note_on", "time": 112, "note": 61, "velocity": 113, "channel": 0}, {"type": "note_off", "time": 90, "note": 61, "velocity": 113, "channel": 0}, {"type": "note_on", "time": 25, "note": 64, "velocity": 113, "channel": 0}, {"type": "note_off", "time": 68, "note": 64, "velocity": 113, "channel": 0}, {"type": "note_on", "time": 0, "note": 64, "velocity": 112, "channel": 0}, {"type": "note_off", "time": 14, "note": 64, "velocity": 112, "channel": 0}, {"type": "note_on", "time": 0, "note": 68, "velocity": 105, "channel": 0}, {"type": "note_off", "time": 79, "note": 68, "velocity": 105, "channel": 0}, {"type": "note_on", "time": 15, "note": 66, "velocity": 106, "channel": 0}, {"type": "note_off", "time": 39, "note": 66, "velocity": 106, "channel": 0}, {"type": "note_on", "time": 23, "note": 68, "velocity": 107, "channel": 0}, {"type": "note_off", "time": 22, "note": 68, "velocity": 107, "channel": 0}, {"type": "note_on", "time": 0, "note": 62, "velocity": 109, "channel": 0}, {"type": "note_off", "time": 53, "note": 62, "velocity": 109, "channel": 0}, {"type": "note_on", "time": 48, "note": 67, "velocity": 106, "channel": 0}, {"type": "note_off", "time": 72, "note": 67, "velocity": 106, "channel": 0}, {"type": "note_on", "time": 13, "note": 64, "velocity": 111, "channel": 0}, {"type": "note_off", "time": 101, "note": 64, "velocity": 111, "channel": 0}, {"type": "note_on", "time": 0, "note": 65, "velocity": 100, "channel": 0}, {"type": "note_off", "time": 86, "note": 65, "velocity": 100, "channel": 0}, {"type": "note_on", "time": 10, "note": 67, "velocity": 103, "channel": 0}, {"type": "note_off", "time": 68, "note": 67, "velocity": 103, "channel": 0}, {"type": "note_on", "time": 32, "note": 69, "velocity": 112, "channel": 0}, {"type": "note_off", "time": 94, "note": 69, "velocity": 112, "channel": 0}, {"type": "note_on", "time": 3, "note": 65, "velocity": 105, "channel": 0}, {"type": "note_off", "time": 61, "note": 65, "velocity": 105, "channel": 0}, {"type": "note_on", "time": 6, "note": 64, "velocity": 111, "channel": 0}, {"type": "note_off", "time": 82, "note": 64, "velocity": 111, "channel": 0}, {"type": "note_on", "time": 34, "note": 63, "velocity": 112, "channel": 0}, {"type": "note_off", "time": 101, "note": 63, "velocity": 112, "channel": 0}, {"type": "note_on", "time": 0, "note": 65, "velocity": 109, "channel": 0}, {"type": "note_off", "time": 86, "note": 65, "velocity": 109, "channel": 0}, {"type": "note_on", "time": 0, "note": 62, "velocity": 113, "channel": 0}, {"type": "note_off", "time": 101, "note": 62, "velocity": 113, "channel": 0}, {"type": "note_on", "time": 0, "note": 60, "velocity": 108, "channel": 0}, {"type": "note_off", "time": 76, "note": 60, "velocity": 108, "channel": 0}, {"type": "note_on", "time": 7, "note": 58, "velocity": 102, "channel": 0}, {"type": "note_off", "time": 119, "note": 58, "velocity": 102, "channel": 0}, {"type": "note_on", "time": 112, "note": 56, "velocity": 104, "channel": 0}, {"type": "note_off", "time": 126, "note": 56, "velocity": 104, "channel": 0}, {"type": "note_on", "time": 10, "note": 54, "velocity": 101, "channel": 0}, {"type": "note_off", "time": 133, "note": 54, "velocity": 101, "channel": 0}, {"type": "note_on", "time": 0, "note": 53, "velocity": 102, "channel": 0}, {"type": "note_off", "time": 195, "note": 53, "velocity": 102, "channel": 0}, {"type": "note_on", "time": 36, "note": 61, "velocity": 9, "channel": 0}, {"type": "note_off", "time": 155, "note": 61, "velocity": 9, "channel": 0}, {"type": "note_on", "time": 25, "note": 56, "velocity": 105, "channel": 0}, {"type": "note_off", "time": 155, "note": 56, "velocity": 105, "channel": 0}, {"type": "note_on", "time": 50, "note": 61, "velocity": 111, "channel": 0}, {"type": "note_off", "time": 202, "note": 61, "velocity": 111, "channel": 0}, {"type": "note_on", "time": 32, "note": 57, "velocity": 109, "channel": 0}, {"type": "note_off", "time": 112, "note": 57, "velocity": 109, "channel": 0}, {"type": "note_on", "time": 217, "note": 57, "velocity": 109, "channel": 0}, {"type": "note_off", "time": 83, "note": 57, "velocity": 109, "channel": 0}, {"type": "note_on", "time": 21, "note": 55, "velocity": 104, "channel": 0}, {"type": "note_off", "time": 134, "note": 55, "velocity": 104, "channel": 0}, {"type": "note_on", "time": 28, "note": 60, "velocity": 100, "channel": 0}, {"type": "note_off", "time": 90, "note": 60, "velocity": 100, "channel": 0}, {"type": "note_on", "time": 8, "note": 57, "velocity": 104, "channel": 0}, {"type": "note_off", "time": 342, "note": 57, "velocity": 104, "channel": 0}, {"type": "note_on", "time": 109, "note": 55, "velocity": 106, "channel": 0}, {"type": "note_off", "time": 90, "note": 55, "velocity": 106, "channel": 0}, {"type": "note_on", "time": 17, "note": 53, "velocity": 113, "channel": 0}, {"type": "note_off", "time": 92, "note": 53, "velocity": 113, "channel": 0}, {"type": "note_on", "time": 498, "note": 70, "velocity": 113, "channel": 0}, {"type": "note_off", "time": 43, "note": 70, "velocity": 113, "channel": 0}, {"type": "note_on", "time": 1, "note": 72, "velocity": 110, "channel": 0}, {"type": "note_off", "time": 31, "note": 72, "velocity": 110, "channel": 0}, {"type": "note_on", "time": 32, "note": 74, "velocity": 109, "channel": 0}, {"type": "note_off", "time": 103, "note": 74, "velocity": 109, "channel": 0}, {"type": "note_on", "time": 17, "note": 73, "velocity": 113, "channel": 0}, {"type": "note_off", "time": 27, "note": 73, "velocity": 113, "channel": 0}, {"type": "note_on", "time": 10, "note": 70, "velocity": 113, "channel": 0}, {"type": "note_off", "time": 43, "note": 70, "velocity": 113, "channel": 0}, {"type": "note_on", "time": 6, "note": 67, "velocity": 111, "channel": 0}, {"type": "note_off", "time": 46, "note": 67, "velocity": 111, "channel": 0}, {"type": "note_on", "time": 15, "note": 63, "velocity": 112, "channel": 0}, {"type": "note_off", "time": 136, "note": 63, "velocity": 112, "channel": 0}, {"type": "note_on", "time": 86, "note": 64, "velocity": 108, "channel": 0}, {"type": "note_off", "time": 105, "note": 64, "velocity": 108, "channel": 0}, {"type": "note_on", "time": 5, "note": 66, "velocity": 92, "channel": 0}, {"type": "note_off", "time": 24, "note": 66, "velocity": 92, "channel": 0}, {"type": "note_on", "time": 14, "note": 69, "velocity": 96, "channel": 0}, {"type": "note_off", "time": 33, "note": 69, "velocity": 96, "channel": 0}, {"type": "note_on", "time": 52, "note": 73, "velocity": 115, "channel": 0}, {"type": "note_off", "time": 73, "note": 73, "velocity": 115, "channel": 0}, {"type": "note_on", "time": 8, "note": 74, "velocity": 113, "channel": 0}, {"type": "note_off", "time": 85, "note": 74, "velocity": 113, "channel": 0}, {"type": "note_on", "time": 3, "note": 73, "velocity": 115, "channel": 0}, {"type": "note_off", "time": 122, "note": 73, "velocity": 115, "channel": 0}, {"type": "note_on", "time": 8, "note": 71, "velocity": 112, "channel": 0}, {"type": "note_off", "time": 76, "note": 71, "velocity": 112, "channel": 0}, {"type": "note_on", "time": 24, "note": 69, "velocity": 110, "channel": 0}, {"type": "note_off", "time": 72, "note": 69, "velocity": 110, "channel": 0}, {"type": "note_on", "time": 25, "note": 67, "velocity": 108, "channel": 0}, {"type": "note_off", "time": 79, "note": 67, "velocity": 108, "channel": 0}, {"type": "note_on", "time": 0, "note": 66, "velocity": 104, "channel": 0}, {"type": "note_off", "time": 90, "note": 66, "velocity": 104, "channel": 0}, {"type": "note_on", "time": 3, "note": 69, "velocity": 106, "channel": 0}, {"type": "note_off", "time": 68, "note": 69, "velocity": 106, "channel": 0}, {"type": "note_on", "time": 5, "note": 63, "velocity": 113, "channel": 0}, {"type": "note_off", "time": 116, "note": 63, "velocity": 113, "channel": 0}, {"type": "note_on", "time": 11, "note": 65, "velocity": 107, "channel": 0}, {"type": "note_off", "time": 72, "note": 65, "velocity": 107, "channel": 0}, {"type": "note_on", "time": 14, "note": 69, "velocity": 105, "channel": 0}, {"type": "note_off", "time": 90, "note": 69, "velocity": 105, "channel": 0}, {"type": "note_on", "time": 0, "note": 72, "velocity": 110, "channel": 0}, {"type": "note_off", "time": 79, "note": 72, "velocity": 110, "channel": 0}, {"type": "note_on", "time": 0, "note": 70, "velocity": 112, "channel": 0}, {"type": "note_on", "time": 326, "note": 65, "velocity": 110, "channel": 0}, {"type": "note_off", "time": 0, "note": 70, "velocity": 112, "channel": 0}, {"type": "note_off", "time": 144, "note": 65, "velocity": 110, "channel": 0}, {"type": "note_on", "time": 0, "note": 62, "velocity": 120, "channel": 0}, {"type": "note_off", "time": 142, "note": 62, "velocity": 120, "channel": 0}, {"type": "note_on", "time": 440, "note": 70, "velocity": 108, "channel": 0}, {"type": "note_off", "time": 300, "note": 70, "velocity": 108, "channel": 0}, {"type": "note_on", "time": 140, "note": 68, "velocity": 115, "channel": 0}, {"type": "note_off", "time": 76, "note": 68, "velocity": 115, "channel": 0}, {"type": "note_on", "time": 0, "note": 66, "velocity": 108, "channel": 0}, {"type": "note_on", "time": 83, "note": 63, "velocity": 117, "channel": 0}, {"type": "note_off", "time": 0, "note": 66, "velocity": 108, "channel": 0}, {"type": "note_off", "time": 70, "note": 63, "velocity": 117, "channel": 0}, {"type": "note_on", "time": 5, "note": 61, "velocity": 115, "channel": 0}, {"type": "note_off", "time": 97, "note": 61, "velocity": 115, "channel": 0}, {"type": "note_on", "time": 17, "note": 58, "velocity": 98, "channel": 0}, {"type": "note_off", "time": 47, "note": 58, "velocity": 98, "channel": 0}, {"type": "note_on", "time": 39, "note": 65, "velocity": 107, "channel": 0}, {"type": "note_off", "time": 100, "note": 65, "velocity": 107, "channel": 0}, {"type": "note_on", "time": 0, "note": 61, "velocity": 110, "channel": 0}, {"type": "note_off", "time": 72, "note": 61, "velocity": 110, "channel": 0}, {"type": "note_on", "time": 0, "note": 58, "velocity": 102, "channel": 0}, {"type": "note_off", "time": 98, "note": 58, "velocity": 102, "channel": 0}, {"type": "note_on", "time": 17, "note": 54, "velocity": 106, "channel": 0}, {"type": "note_off", "time": 86, "note": 54, "velocity": 106, "channel": 0}, {"type": "note_on", "time": 4, "note": 53, "velocity": 106, "channel": 0}, {"type": "note_off", "time": 111, "note": 53, "velocity": 106, "channel": 0}, {"type": "note_on", "time": 5, "note": 51, "velocity": 112, "channel": 0}, {"type": "note_off", "time": 61, "note": 51, "velocity": 112, "channel": 0}, {"type": "note_on", "time": 206, "note": 56, "velocity": 108, "channel": 0}, {"type": "note_off", "time": 112, "note": 56, "velocity": 108, "channel": 0}, {"type": "note_on", "time": 10, "note": 53, "velocity": 110, "channel": 0}, {"type": "note_off", "time": 61, "note": 53, "velocity": 110, "channel": 0}, {"type": "note_on", "time": 18, "note": 51, "velocity": 110, "channel": 0}, {"type": "note_off", "time": 101, "note": 51, "velocity": 110, "channel": 0}, {"type": "note_on", "time": 54, "note": 52, "velocity": 109, "channel": 0}, {"type": "note_off", "time": 50, "note": 52, "velocity": 109, "channel": 0}, {"type": "note_on", "time": 3, "note": 53, "velocity": 107, "channel": 0}, {"type": "note_off", "time": 156, "note": 53, "velocity": 107, "channel": 0}, {"type": "note_on", "time": 6, "note": 56, "velocity": 102, "channel": 0}, {"type": "note_off", "time": 119, "note": 56, "velocity": 102, "channel": 0}, {"type": "note_on", "time": 21, "note": 52, "velocity": 106, "channel": 0}, {"type": "note_off", "time": 163, "note": 52, "velocity": 106, "channel": 0}, {"type": "note_on", "time": 10, "note": 60, "velocity": 110, "channel": 0}, {"type": "note_off", "time": 191, "note": 60, "velocity": 110, "channel": 0}, {"type": "note_on", "time": 503, "note": 69, "velocity": 115, "channel": 0}, {"type": "note_on", "time": 115, "note": 68, "velocity": 113, "channel": 0}, {"type": "note_off", "time": 0, "note": 69, "velocity": 115, "channel": 0}, {"type": "note_off", "time": 268, "note": 68, "velocity": 113, "channel": 0}, {"type": "note_on", "time": 0, "note": 65, "velocity": 110, "channel": 0}, {"type": "note_off", "time": 344, "note": 65, "velocity": 110, "channel": 0}, {"type": "note_on", "time": 18, "note": 64, "velocity": 117, "channel": 0}, {"type": "note_off", "time": 119, "note": 64, "velocity": 117, "channel": 0}, {"type": "note_on", "time": 79, "note": 64, "velocity": 112, "channel": 0}, {"type": "note_off", "time": 170, "note": 64, "velocity": 112, "channel": 0}, {"type": "note_on", "time": 32, "note": 61, "velocity": 110, "channel": 0}, {"type": "note_off", "time": 173, "note": 61, "velocity": 110, "channel": 0}, {"type": "note_on", "time": 6, "note": 64, "velocity": 111, "channel": 0}, {"type": "note_off", "time": 104, "note": 64, "velocity": 111, "channel": 0}, {"type": "note_on", "time": 96, "note": 60, "velocity": 108, "channel": 0}, {"type": "note_off", "time": 170, "note": 60, "velocity": 108, "channel": 0}, {"type": "note_on", "time": 11, "note": 69, "velocity": 109, "channel": 0}, {"type": "note_off", "time": 123, "note": 69, "velocity": 109, "channel": 0}, {"type": "note_on", "time": 20, "note": 65, "velocity": 110, "channel": 0}, {"type": "note_off", "time": 237, "note": 65, "velocity": 110, "channel": 0}, {"type": "note_on", "time": 0, "note": 67, "velocity": 110, "channel": 0}, {"type": "note_off", "time": 119, "note": 67, "velocity": 110, "channel": 0}, {"type": "note_on", "time": 24, "note": 63, "velocity": 117, "channel": 0}, {"type": "note_off", "time": 233, "note": 63, "velocity": 117, "channel": 0}, {"type": "note_on", "time": 611, "note": 68, "velocity": 112, "channel": 0}, {"type": "note_off", "time": 123, "note": 68, "velocity": 112, "channel": 0}, {"type": "note_on", "time": 10, "note": 66, "velocity": 109, "channel": 0}, {"type": "note_off", "time": 57, "note": 66, "velocity": 109, "channel": 0}, {"type": "note_on", "time": 0, "note": 63, "velocity": 117, "channel": 0}, {"type": "note_off", "time": 123, "note": 63, "velocity": 117, "channel": 0}, {"type": "note_on", "time": 0, "note": 68, "velocity": 110, "channel": 0}, {"type": "note_off", "time": 86, "note": 68, "velocity": 110, "channel": 0}, {"type": "note_on", "time": 0, "note": 65, "velocity": 115, "channel": 0}, {"type": "note_off", "time": 166, "note": 65, "velocity": 115, "channel": 0}, {"type": "note_on", "time": 0, "note": 61, "velocity": 113, "channel": 0}, {"type": "note_off", "time": 130, "note": 61, "velocity": 113, "channel": 0}, {"type": "note_on", "time": 15, "note": 56, "velocity": 102, "channel": 0}, {"type": "note_off", "time": 43, "note": 56, "velocity": 102, "channel": 0}, {"type": "note_on", "time": 18, "note": 62, "velocity": 120, "channel": 0}, {"type": "note_off", "time": 144, "note": 62, "velocity": 120, "channel": 0}, {"type": "note_on", "time": 9, "note": 59, "velocity": 102, "channel": 0}, {"type": "note_off", "time": 155, "note": 59, "velocity": 102, "channel": 0}, {"type": "note_on", "time": 83, "note": 64, "velocity": 116, "channel": 0}, {"type": "note_off", "time": 119, "note": 64, "velocity": 116, "channel": 0}, {"type": "note_on", "time": 90, "note": 61, "velocity": 115, "channel": 0}, {"type": "note_off", "time": 86, "note": 61, "velocity": 115, "channel": 0}, {"type": "note_on", "time": 3, "note": 64, "velocity": 114, "channel": 0}, {"type": "note_off", "time": 65, "note": 64, "velocity": 114, "channel": 0}, {"type": "note_on", "time": 25, "note": 60, "velocity": 109, "channel": 0}, {"type": "note_off", "time": 163, "note": 60, "velocity": 109, "channel": 0}, {"type": "note_on", "time": 22, "note": 69, "velocity": 117, "channel": 0}, {"type": "note_off", "time": 131, "note": 69, "velocity": 117, "channel": 0}, {"type": "note_on", "time": 0, "note": 65, "velocity": 104, "channel": 0}, {"type": "note_off", "time": 105, "note": 65, "velocity": 104, "channel": 0}, {"type": "note_on", "time": 437, "note": 69, "velocity": 108, "channel": 0}, {"type": "note_off", "time": 126, "note": 69, "velocity": 108, "channel": 0}, {"type": "note_on", "time": 148, "note": 72, "velocity": 115, "channel": 0}, {"type": "note_off", "time": 116, "note": 72, "velocity": 115, "channel": 0}, {"type": "note_on", "time": 14, "note": 72, "velocity": 101, "channel": 0}, {"type": "note_off", "time": 59, "note": 72, "velocity": 101, "channel": 0}, {"type": "note_on", "time": 18, "note": 69, "velocity": 110, "channel": 0}, {"type": "note_off", "time": 94, "note": 69, "velocity": 110, "channel": 0}, {"type": "note_on", "time": 18, "note": 72, "velocity": 109, "channel": 0}, {"type": "note_off", "time": 90, "note": 72, "velocity": 109, "channel": 0}, {"type": "note_on", "time": 0, "note": 68, "velocity": 111, "channel": 0}, {"type": "note_off", "time": 86, "note": 68, "velocity": 111, "channel": 0}, {"type": "note_on", "time": 9, "note": 67, "velocity": 107, "channel": 0}, {"type": "note_off", "time": 55, "note": 67, "velocity": 107, "channel": 0}, {"type": "note_on", "time": 15, "note": 66, "velocity": 106, "channel": 0}, {"type": "note_off", "time": 114, "note": 66, "velocity": 106, "channel": 0}, {"type": "note_on", "time": 19, "note": 68, "velocity": 111, "channel": 0}, {"type": "note_off", "time": 79, "note": 68, "velocity": 111, "channel": 0}, {"type": "note_on", "time": 0, "note": 65, "velocity": 108, "channel": 0}, {"type": "note_off", "time": 130, "note": 65, "velocity": 108, "channel": 0}, {"type": "note_on", "time": 68, "note": 68, "velocity": 109, "channel": 0}, {"type": "note_off", "time": 94, "note": 68, "velocity": 109, "channel": 0}, {"type": "note_on", "time": 21, "note": 70, "velocity": 107, "channel": 0}, {"type": "note_on", "time": 83, "note": 68, "velocity": 109, "channel": 0}, {"type": "note_off", "time": 0, "note": 70, "velocity": 107, "channel": 0}, {"type": "note_off", "time": 144, "note": 68, "velocity": 109, "channel": 0}, {"type": "note_on", "time": 47, "note": 66, "velocity": 104, "channel": 0}, {"type": "note_off", "time": 108, "note": 66, "velocity": 104, "channel": 0}, {"type": "note_on", "time": 0, "note": 68, "velocity": 114, "channel": 0}, {"type": "note_off", "time": 79, "note": 68, "velocity": 114, "channel": 0}, {"type": "note_on", "time": 0, "note": 64, "velocity": 113, "channel": 0}, {"type": "note_off", "time": 69, "note": 64, "velocity": 113, "channel": 0}, {"type": "note_on", "time": 16, "note": 62, "velocity": 115, "channel": 0}, {"type": "note_off", "time": 61, "note": 62, "velocity": 115, "channel": 0}, {"type": "note_on", "time": 0, "note": 61, "velocity": 108, "channel": 0}, {"type": "note_off", "time": 143, "note": 61, "velocity": 108, "channel": 0}, {"type": "note_on", "time": 0, "note": 64, "velocity": 111, "channel": 0}, {"type": "note_off", "time": 65, "note": 64, "velocity": 111, "channel": 0}, {"type": "note_on", "time": 8, "note": 60, "velocity": 105, "channel": 0}, {"type": "note_off", "time": 115, "note": 60, "velocity": 105, "channel": 0}, {"type": "note_on", "time": 0, "note": 62, "velocity": 113, "channel": 0}, {"type": "note_off", "time": 60, "note": 62, "velocity": 113, "channel": 0}, {"type": "note_on", "time": 0, "note": 64, "velocity": 109, "channel": 0}, {"type": "note_off", "time": 108, "note": 64, "velocity": 109, "channel": 0}, {"type": "note_on", "time": 12, "note": 67, "velocity": 109, "channel": 0}, {"type": "note_off", "time": 76, "note": 67, "velocity": 109, "channel": 0}, {"type": "note_on", "time": 13, "note": 64, "velocity": 113, "channel": 0}, {"type": "note_off", "time": 163, "note": 64, "velocity": 113, "channel": 0}, {"type": "note_on", "time": 0, "note": 65, "velocity": 110, "channel": 0}, {"type": "note_on", "time": 162, "note": 63, "velocity": 115, "channel": 0}, {"type": "note_off", "time": 0, "note": 65, "velocity": 110, "channel": 0}, {"type": "note_off", "time": 177, "note": 63, "velocity": 115, "channel": 0}, {"type": "note_on", "time": 0, "note": 65, "velocity": 107, "channel": 0}, {"type": "note_off", "time": 170, "note": 65, "velocity": 107, "channel": 0}, {"type": "note_on", "time": 2, "note": 61, "velocity": 121, "channel": 0}, {"type": "note_off", "time": 38, "note": 61, "velocity": 121, "channel": 0}, {"type": "note_on", "time": 2, "note": 62, "velocity": 120, "channel": 0}, {"type": "note_off", "time": 211, "note": 62, "velocity": 120, "channel": 0}, {"type": "note_on", "time": 15, "note": 58, "velocity": 106, "channel": 0}, {"type": "note_off", "time": 123, "note": 58, "velocity": 106, "channel": 0}, {"type": "note_on", "time": 94, "note": 56, "velocity": 108, "channel": 0}, {"type": "note_off", "time": 79, "note": 56, "velocity": 108, "channel": 0}, {"type": "note_on", "time": 25, "note": 63, "velocity": 110, "channel": 0}, {"type": "note_off", "time": 72, "note": 63, "velocity": 110, "channel": 0}, {"type": "note_on", "time": 14, "note": 59, "velocity": 102, "channel": 0}, {"type": "note_off", "time": 105, "note": 59, "velocity": 102, "channel": 0}, {"type": "note_on", "time": 3, "note": 61, "velocity": 118, "channel": 0}, {"type": "note_off", "time": 228, "note": 61, "velocity": 118, "channel": 0}, {"type": "note_on", "time": 18, "note": 58, "velocity": 99, "channel": 0}, {"type": "note_off", "time": 112, "note": 58, "velocity": 99, "channel": 0}, {"type": "note_on", "time": 6, "note": 54, "velocity": 101, "channel": 0}, {"type": "note_off", "time": 86, "note": 54, "velocity": 101, "channel": 0}, {"type": "note_on", "time": 449, "note": 55, "velocity": 104, "channel": 0}, {"type": "note_off", "time": 39, "note": 55, "velocity": 104, "channel": 0}, {"type": "note_on", "time": 3, "note": 57, "velocity": 108, "channel": 0}, {"type": "note_off", "time": 68, "note": 57, "velocity": 108, "channel": 0}, {"type": "note_on", "time": 0, "note": 59, "velocity": 105, "channel": 0}, {"type": "note_on", "time": 47, "note": 60, "velocity": 108, "channel": 0}, {"type": "note_off", "time": 0, "note": 59, "velocity": 105, "channel": 0}, {"type": "note_off", "time": 57, "note": 60, "velocity": 108, "channel": 0}, {"type": "note_on", "time": 0, "note": 62, "velocity": 115, "channel": 0}, {"type": "note_off", "time": 44, "note": 62, "velocity": 115, "channel": 0}, {"type": "note_on", "time": 0, "note": 64, "velocity": 111, "channel": 0}, {"type": "note_off", "time": 40, "note": 64, "velocity": 111, "channel": 0}, {"type": "note_on", "time": 1, "note": 65, "velocity": 107, "channel": 0}, {"type": "note_off", "time": 35, "note": 65, "velocity": 107, "channel": 0}, {"type": "note_on", "time": 0, "note": 67, "velocity": 109, "channel": 0}, {"type": "note_off", "time": 39, "note": 67, "velocity": 109, "channel": 0}, {"type": "note_on", "time": 0, "note": 69, "velocity": 110, "channel": 0}, {"type": "note_off", "time": 54, "note": 69, "velocity": 110, "channel": 0}, {"type": "note_on", "time": 0, "note": 67, "velocity": 107, "channel": 0}, {"type": "note_off", "time": 45, "note": 67, "velocity": 107, "channel": 0}, {"type": "note_on", "time": 0, "note": 65, "velocity": 111, "channel": 0}, {"type": "note_off", "time": 36, "note": 65, "velocity": 111, "channel": 0}, {"type": "note_on", "time": 0, "note": 64, "velocity": 114, "channel": 0}, {"type": "note_off", "time": 34, "note": 64, "velocity": 114, "channel": 0}, {"type": "note_on", "time": 5, "note": 62, "velocity": 114, "channel": 0}, {"type": "note_off", "time": 57, "note": 62, "velocity": 114, "channel": 0}, {"type": "note_on", "time": 1, "note": 60, "velocity": 110, "channel": 0}, {"type": "note_off", "time": 36, "note": 60, "velocity": 110, "channel": 0}, {"type": "note_on", "time": 6, "note": 58, "velocity": 96, "channel": 0}, {"type": "note_off", "time": 97, "note": 58, "velocity": 96, "channel": 0}, {"type": "note_on", "time": 221, "note": 69, "velocity": 112, "channel": 0}, {"type": "note_off", "time": 288, "note": 69, "velocity": 112, "channel": 0}, {"type": "note_on", "time": 160, "note": 69, "velocity": 116, "channel": 0}, {"type": "note_off", "time": 108, "note": 69, "velocity": 116, "channel": 0}, {"type": "note_on", "time": 3, "note": 72, "velocity": 110, "channel": 0}, {"type": "note_off", "time": 76, "note": 72, "velocity": 110, "channel": 0}, {"type": "note_on", "time": 11, "note": 70, "velocity": 112, "channel": 0}, {"type": "note_off", "time": 112, "note": 70, "velocity": 112, "channel": 0}, {"type": "note_on", "time": 0, "note": 66, "velocity": 107, "channel": 0}, {"type": "note_off", "time": 141, "note": 66, "velocity": 107, "channel": 0}, {"type": "note_on", "time": 212, "note": 70, "velocity": 114, "channel": 0}, {"type": "note_off", "time": 108, "note": 70, "velocity": 114, "channel": 0}, {"type": "note_on", "time": 15, "note": 68, "velocity": 113, "channel": 0}, {"type": "note_off", "time": 90, "note": 68, "velocity": 113, "channel": 0}, {"type": "note_on", "time": 0, "note": 73, "velocity": 115, "channel": 0}, {"type": "note_off", "time": 112, "note": 73, "velocity": 115, "channel": 0}, {"type": "note_on", "time": 148, "note": 71, "velocity": 109, "channel": 0}, {"type": "note_on", "time": 130, "note": 64, "velocity": 122, "channel": 0}, {"type": "note_off", "time": 0, "note": 71, "velocity": 109, "channel": 0}, {"type": "note_off", "time": 68, "note": 64, "velocity": 122, "channel": 0}, {"type": "note_on", "time": 369, "note": 69, "velocity": 112, "channel": 0}, {"type": "note_off", "time": 126, "note": 69, "velocity": 112, "channel": 0}, {"type": "note_on", "time": 0, "note": 73, "velocity": 112, "channel": 0}, {"type": "note_off", "time": 79, "note": 73, "velocity": 112, "channel": 0}, {"type": "note_on", "time": 0, "note": 70, "velocity": 111, "channel": 0}, {"type": "note_off", "time": 105, "note": 70, "velocity": 111, "channel": 0}, {"type": "note_on", "time": 26, "note": 64, "velocity": 108, "channel": 0}, {"type": "note_off", "time": 113, "note": 64, "velocity": 108, "channel": 0}, {"type": "note_on", "time": 47, "note": 72, "velocity": 109, "channel": 0}, {"type": "note_off", "time": 76, "note": 72, "velocity": 109, "channel": 0}, {"type": "note_on", "time": 15, "note": 69, "velocity": 114, "channel": 0}, {"type": "note_off", "time": 184, "note": 69, "velocity": 114, "channel": 0}, {"type": "note_on", "time": 10, "note": 65, "velocity": 106, "channel": 0}, {"type": "note_off", "time": 83, "note": 65, "velocity": 106, "channel": 0}, {"type": "note_on", "time": 3, "note": 63, "velocity": 119, "channel": 0}, {"type": "note_off", "time": 112, "note": 63, "velocity": 119, "channel": 0}, {"type": "note_on", "time": 90, "note": 67, "velocity": 105, "channel": 0}, {"type": "note_off", "time": 83, "note": 67, "velocity": 105, "channel": 0}, {"type": "note_on", "time": 0, "note": 65, "velocity": 102, "channel": 0}, {"type": "note_off", "time": 83, "note": 65, "velocity": 102, "channel": 0}, {"type": "note_on", "time": 0, "note": 64, "velocity": 107, "channel": 0}, {"type": "note_off", "time": 94, "note": 64, "velocity": 107, "channel": 0}, {"type": "note_on", "time": 0, "note": 63, "velocity": 114, "channel": 0}, {"type": "note_off", "time": 126, "note": 63, "velocity": 114, "channel": 0}, {"type": "note_on", "time": 0, "note": 65, "velocity": 110, "channel": 0}, {"type": "note_off", "time": 76, "note": 65, "velocity": 110, "channel": 0}, {"type": "note_on", "time": 3, "note": 62, "velocity": 116, "channel": 0}, {"type": "note_off", "time": 88, "note": 62, "velocity": 116, "channel": 0}, {"type": "note_on", "time": 20, "note": 65, "velocity": 111, "channel": 0}, {"type": "note_off", "time": 94, "note": 65, "velocity": 111, "channel": 0}, {"type": "note_on", "time": 0, "note": 63, "velocity": 115, "channel": 0}, {"type": "note_off", "time": 90, "note": 63, "velocity": 115, "channel": 0}, {"type": "note_on", "time": 0, "note": 61, "velocity": 118, "channel": 0}, {"type": "note_off", "time": 68, "note": 61, "velocity": 118, "channel": 0}, {"type": "note_on", "time": 10, "note": 58, "velocity": 107, "channel": 0}, {"type": "note_off", "time": 105, "note": 58, "velocity": 107, "channel": 0}, {"type": "note_on", "time": 25, "note": 54, "velocity": 105, "channel": 0}, {"type": "note_off", "time": 68, "note": 54, "velocity": 105, "channel": 0}, {"type": "note_on", "time": 0, "note": 53, "velocity": 102, "channel": 0}, {"type": "note_off", "time": 123, "note": 53, "velocity": 102, "channel": 0}, {"type": "note_on", "time": 0, "note": 53, "velocity": 110, "channel": 0}, {"type": "note_off", "time": 21, "note": 53, "velocity": 110, "channel": 0}, {"type": "note_on", "time": 257, "note": 62, "velocity": 123, "channel": 0}, {"type": "note_off", "time": 184, "note": 62, "velocity": 123, "channel": 0}, {"type": "note_on", "time": 0, "note": 59, "velocity": 107, "channel": 0}, {"type": "note_off", "time": 115, "note": 59, "velocity": 107, "channel": 0}, {"type": "note_on", "time": 97, "note": 57, "velocity": 111, "channel": 0}, {"type": "note_off", "time": 112, "note": 57, "velocity": 111, "channel": 0}, {"type": "note_on", "time": 195, "note": 57, "velocity": 108, "channel": 0}, {"type": "note_off", "time": 50, "note": 57, "velocity": 108, "channel": 0}, {"type": "note_on", "time": 6, "note": 60, "velocity": 105, "channel": 0}, {"type": "note_off", "time": 177, "note": 60, "velocity": 105, "channel": 0}, {"type": "note_on", "time": 0, "note": 58, "velocity": 99, "channel": 0}, {"type": "note_off", "time": 126, "note": 58, "velocity": 99, "channel": 0}, {"type": "note_on", "time": 0, "note": 57, "velocity": 101, "channel": 0}, {"type": "note_off", "time": 163, "note": 57, "velocity": 101, "channel": 0}, {"type": "note_on", "time": 54, "note": 65, "velocity": 105, "channel": 0}, {"type": "note_off", "time": 184, "note": 65, "velocity": 105, "channel": 0}, {"type": "note_on", "time": 567, "note": 70, "velocity": 119, "channel": 0}, {"type": "note_off", "time": 112, "note": 70, "velocity": 119, "channel": 0}, {"type": "note_on", "time": 0, "note": 69, "velocity": 113, "channel": 0}, {"type": "note_off", "time": 68, "note": 69, "velocity": 113, "channel": 0}, {"type": "note_on", "time": 32, "note": 67, "velocity": 111, "channel": 0}, {"type": "note_off", "time": 72, "note": 67, "velocity": 111, "channel": 0}, {"type": "note_on", "time": 3, "note": 65, "velocity": 108, "channel": 0}, {"type": "note_off", "time": 141, "note": 65, "velocity": 108, "channel": 0}, {"type": "note_on", "time": 124, "note": 66, "velocity": 109, "channel": 0}, {"type": "note_off", "time": 83, "note": 66, "velocity": 109, "channel": 0}, {"type": "note_on", "time": 14, "note": 64, "velocity": 117, "channel": 0}, {"type": "note_off", "time": 115, "note": 64, "velocity": 117, "channel": 0}, {"type": "note_on", "time": 1, "note": 62, "velocity": 119, "channel": 0}, {"type": "note_off", "time": 76, "note": 62, "velocity": 119, "channel": 0}, {"type": "note_on", "time": 0, "note": 61, "velocity": 111, "channel": 0}, {"type": "note_off", "time": 94, "note": 61, "velocity": 111, "channel": 0}, {"type": "note_on", "time": 0, "note": 60, "velocity": 111, "channel": 0}, {"type": "note_off", "time": 90, "note": 60, "velocity": 111, "channel": 0}, {"type": "note_on", "time": 18, "note": 59, "velocity": 103, "channel": 0}, {"type": "note_off", "time": 83, "note": 59, "velocity": 103, "channel": 0}, {"type": "note_on", "time": 18, "note": 58, "velocity": 109, "channel": 0}, {"type": "note_off", "time": 72, "note": 58, "velocity": 109, "channel": 0}, {"type": "note_on", "time": 14, "note": 57, "velocity": 108, "channel": 0}, {"type": "note_off", "time": 97, "note": 57, "velocity": 108, "channel": 0}, {"type": "note_on", "time": 3, "note": 56, "velocity": 105, "channel": 0}, {"type": "note_off", "time": 86, "note": 56, "velocity": 105, "channel": 0}, {"type": "note_on", "time": 0, "note": 55, "velocity": 98, "channel": 0}, {"type": "note_off", "time": 90, "note": 55, "velocity": 98, "channel": 0}, {"type": "note_on", "time": 25, "note": 59, "velocity": 105, "channel": 0}, {"type": "note_on", "time": 68, "note": 57, "velocity": 103, "channel": 0}, {"type": "note_off", "time": 0, "note": 59, "velocity": 105, "channel": 0}, {"type": "note_off", "time": 122, "note": 57, "velocity": 103, "channel": 0}, {"type": "note_on", "time": 0, "note": 55, "velocity": 102, "channel": 0}, {"type": "note_off", "time": 72, "note": 55, "velocity": 102, "channel": 0}, {"type": "note_on", "time": 0, "note": 54, "velocity": 100, "channel": 0}, {"type": "note_off", "time": 112, "note": 54, "velocity": 100, "channel": 0}, {"type": "note_on", "time": 1, "note": 57, "velocity": 104, "channel": 0}, {"type": "note_off", "time": 50, "note": 57, "velocity": 104, "channel": 0}, {"type": "note_on", "time": 35, "note": 53, "velocity": 108, "channel": 0}, {"type": "note_off", "time": 96, "note": 53, "velocity": 108, "channel": 0}, {"type": "note_on", "time": 0, "note": 51, "velocity": 112, "channel": 0}, {"type": "note_off", "time": 71, "note": 51, "velocity": 112, "channel": 0}, {"type": "note_on", "time": 5, "note": 50, "velocity": 102, "channel": 0}, {"type": "note_off", "time": 101, "note": 50, "velocity": 102, "channel": 0}, {"type": "note_on", "time": 89, "note": 57, "velocity": 111, "channel": 0}, {"type": "note_off", "time": 119, "note": 57, "velocity": 111, "channel": 0}, {"type": "note_on", "time": 12, "note": 58, "velocity": 99, "channel": 0}, {"type": "note_off", "time": 240, "note": 58, "velocity": 99, "channel": 0}, {"type": "note_on", "time": 324, "note": 62, "velocity": 117, "channel": 0}, {"type": "note_off", "time": 65, "note": 62, "velocity": 117, "channel": 0}, {"type": "note_on", "time": 3, "note": 65, "velocity": 108, "channel": 0}, {"type": "note_off", "time": 36, "note": 65, "velocity": 108, "channel": 0}, {"type": "note_on", "time": 9, "note": 63, "velocity": 117, "channel": 0}, {"type": "note_off", "time": 90, "note": 63, "velocity": 117, "channel": 0}, {"type": "note_on", "time": 3, "note": 65, "velocity": 111, "channel": 0}, {"type": "note_off", "time": 86, "note": 65, "velocity": 111, "channel": 0}, {"type": "note_on", "time": 0, "note": 66, "velocity": 107, "channel": 0}, {"type": "note_off", "time": 90, "note": 66, "velocity": 107, "channel": 0}, {"type": "note_on", "time": 3, "note": 68, "velocity": 112, "channel": 0}, {"type": "note_off", "time": 90, "note": 68, "velocity": 112, "channel": 0}, {"type": "note_on", "time": 0, "note": 70, "velocity": 116, "channel": 0}, {"type": "note_off", "time": 94, "note": 70, "velocity": 116, "channel": 0}, {"type": "note_on", "time": 0, "note": 73, "velocity": 119, "channel": 0}, {"type": "note_off", "time": 86, "note": 73, "velocity": 119, "channel": 0}, {"type": "note_on", "time": 0, "note": 72, "velocity": 115, "channel": 0}, {"type": "note_off", "time": 101, "note": 72, "velocity": 115, "channel": 0}, {"type": "note_on", "time": 0, "note": 73, "velocity": 116, "channel": 0}, {"type": "note_off", "time": 286, "note": 73, "velocity": 116, "channel": 0}, {"type": "note_on", "time": 0, "note": 70, "velocity": 112, "channel": 0}, {"type": "note_off", "time": 94, "note": 70, "velocity": 112, "channel": 0}, {"type": "note_on", "time": 0, "note": 72, "velocity": 108, "channel": 0}, {"type": "note_off", "time": 260, "note": 72, "velocity": 108, "channel": 0}, {"type": "note_on", "time": 0, "note": 68, "velocity": 113, "channel": 0}, {"type": "note_off", "time": 106, "note": 68, "velocity": 113, "channel": 0}, {"type": "note_on", "time": 0, "note": 63, "velocity": 110, "channel": 0}, {"type": "note_off", "time": 154, "note": 63, "velocity": 110, "channel": 0}, {"type": "note_on", "time": 588, "note": 72, "velocity": 108, "channel": 0}, {"type": "note_off", "time": 54, "note": 72, "velocity": 108, "channel": 0}, {"type": "note_on", "time": 1, "note": 75, "velocity": 118, "channel": 0}, {"type": "note_off", "time": 485, "note": 75, "velocity": 118, "channel": 0}, {"type": "note_on", "time": 7, "note": 75, "velocity": 101, "channel": 0}, {"type": "note_off", "time": 20, "note": 75, "velocity": 101, "channel": 0}, {"type": "note_on", "time": 6, "note": 73, "velocity": 111, "channel": 0}, {"type": "note_off", "time": 56, "note": 73, "velocity": 111, "channel": 0}, {"type": "note_on", "time": 12, "note": 72, "velocity": 107, "channel": 0}, {"type": "note_off", "time": 383, "note": 72, "velocity": 107, "channel": 0}, {"type": "note_on", "time": 0, "note": 75, "velocity": 119, "channel": 0}, {"type": "note_off", "time": 300, "note": 75, "velocity": 119, "channel": 0}, {"type": "note_on", "time": 0, "note": 72, "velocity": 114, "channel": 0}, {"type": "note_off", "time": 288, "note": 72, "velocity": 114, "channel": 0}, {"type": "note_on", "time": 0, "note": 68, "velocity": 112, "channel": 0}, {"type": "note_off", "time": 73, "note": 68, "velocity": 112, "channel": 0}, {"type": "note_on", "time": 6, "note": 73, "velocity": 114, "channel": 0}, {"type": "note_off", "time": 90, "note": 73, "velocity": 114, "channel": 0}, {"type": "note_on", "time": 22, "note": 71, "velocity": 109, "channel": 0}, {"type": "note_off", "time": 115, "note": 71, "velocity": 109, "channel": 0}, {"type": "note_on", "time": 0, "note": 68, "velocity": 110, "channel": 0}, {"type": "note_off", "time": 144, "note": 68, "velocity": 110, "channel": 0}, {"type": "note_on", "time": 32, "note": 71, "velocity": 109, "channel": 0}, {"type": "note_off", "time": 82, "note": 71, "velocity": 109, "channel": 0}, {"type": "note_on", "time": 0, "note": 68, "velocity": 117, "channel": 0}, {"type": "note_off", "time": 101, "note": 68, "velocity": 117, "channel": 0}, {"type": "note_on", "time": 0, "note": 64, "velocity": 119, "channel": 0}, {"type": "note_off", "time": 53, "note": 64, "velocity": 119, "channel": 0}, {"type": "note_on", "time": 11, "note": 61, "velocity": 112, "channel": 0}, {"type": "note_off", "time": 133, "note": 61, "velocity": 112, "channel": 0}, {"type": "note_on", "time": 3, "note": 66, "velocity": 90, "channel": 0}, {"type": "note_off", "time": 49, "note": 66, "velocity": 90, "channel": 0}, {"type": "note_on", "time": 30, "note": 67, "velocity": 104, "channel": 0}, {"type": "note_off", "time": 141, "note": 67, "velocity": 104, "channel": 0}, {"type": "note_on", "time": 38, "note": 67, "velocity": 101, "channel": 0}, {"type": "note_off", "time": 73, "note": 67, "velocity": 101, "channel": 0}, {"type": "note_on", "time": 39, "note": 70, "velocity": 113, "channel": 0}, {"type": "note_off", "time": 33, "note": 70, "velocity": 113, "channel": 0}, {"type": "note_on", "time": 0, "note": 74, "velocity": 113, "channel": 0}, {"type": "note_off", "time": 58, "note": 74, "velocity": 113, "channel": 0}, {"type": "note_on", "time": 1, "note": 73, "velocity": 114, "channel": 0}, {"type": "note_off", "time": 20, "note": 73, "velocity": 114, "channel": 0}, {"type": "note_on", "time": 9, "note": 72, "velocity": 110, "channel": 0}, {"type": "note_off", "time": 148, "note": 72, "velocity": 110, "channel": 0}, {"type": "note_on", "time": 14, "note": 69, "velocity": 111, "channel": 0}, {"type": "note_on", "time": 114, "note": 63, "velocity": 114, "channel": 0}, {"type": "note_off", "time": 0, "note": 69, "velocity": 111, "channel": 0}, {"type": "note_off", "time": 143, "note": 63, "velocity": 114, "channel": 0}, {"type": "note_on", "time": 418, "note": 70, "velocity": 109, "channel": 0}, {"type": "note_off", "time": 137, "note": 70, "velocity": 109, "channel": 0}, {"type": "note_on", "time": 155, "note": 70, "velocity": 115, "channel": 0}, {"type": "note_off", "time": 119, "note": 70, "velocity": 115, "channel": 0}, {"type": "note_on", "time": 0, "note": 66, "velocity": 106, "channel": 0}, {"type": "note_off", "time": 65, "note": 66, "velocity": 106, "channel": 0}, {"type": "note_on", "time": 1, "note": 63, "velocity": 119, "channel": 0}, {"type": "note_off", "time": 117, "note": 63, "velocity": 119, "channel": 0}, {"type": "note_on", "time": 17, "note": 59, "velocity": 94, "channel": 0}, {"type": "note_off", "time": 45, "note": 59, "velocity": 94, "channel": 0}, {"type": "note_on", "time": 6, "note": 65, "velocity": 102, "channel": 0}, {"type": "note_off", "time": 115, "note": 65, "velocity": 102, "channel": 0}, {"type": "note_on", "time": 8, "note": 68, "velocity": 106, "channel": 0}, {"type": "note_off", "time": 57, "note": 68, "velocity": 106, "channel": 0}, {"type": "note_on", "time": 17, "note": 73, "velocity": 118, "channel": 0}, {"type": "note_off", "time": 109, "note": 73, "velocity": 118, "channel": 0}, {"type": "note_on", "time": 0, "note": 71, "velocity": 111, "channel": 0}, {"type": "note_off", "time": 401, "note": 71, "velocity": 111, "channel": 0}, {"type": "note_on", "time": 66, "note": 69, "velocity": 9, "channel": 0}, {"type": "note_off", "time": 81, "note": 69, "velocity": 9, "channel": 0}, {"type": "note_on", "time": 0, "note": 68, "velocity": 113, "channel": 0}, {"type": "note_off", "time": 30, "note": 68, "velocity": 113, "channel": 0}, {"type": "note_on", "time": 28, "note": 61, "velocity": 119, "channel": 0}, {"type": "note_off", "time": 182, "note": 61, "velocity": 119, "channel": 0}, {"type": "note_on", "time": 376, "note": 68, "velocity": 114, "channel": 0}, {"type": "note_off", "time": 38, "note": 68, "velocity": 114, "channel": 0}, {"type": "note_on", "time": 3, "note": 69, "velocity": 112, "channel": 0}, {"type": "note_off", "time": 147, "note": 69, "velocity": 112, "channel": 0}, {"type": "note_on", "time": 4, "note": 60, "velocity": 109, "channel": 0}, {"type": "note_off", "time": 206, "note": 60, "velocity": 109, "channel": 0}, {"type": "note_on", "time": 374, "note": 69, "velocity": 115, "channel": 0}, {"type": "note_off", "time": 97, "note": 69, "velocity": 115, "channel": 0}, {"type": "note_on", "time": 88, "note": 70, "velocity": 115, "channel": 0}, {"type": "note_off", "time": 152, "note": 70, "velocity": 115, "channel": 0}, {"type": "note_on", "time": 24, "note": 71, "velocity": 112, "channel": 0}, {"type": "note_off", "time": 61, "note": 71, "velocity": 112, "channel": 0}, {"type": "note_on", "time": 11, "note": 72, "velocity": 115, "channel": 0}, {"type": "note_off", "time": 114, "note": 72, "velocity": 115, "channel": 0}, {"type": "note_on", "time": 24, "note": 66, "velocity": 105, "channel": 0}, {"type": "note_off", "time": 86, "note": 66, "velocity": 105, "channel": 0}, {"type": "note_on", "time": 116, "note": 72, "velocity": 113, "channel": 0}, {"type": "note_off", "time": 97, "note": 72, "velocity": 113, "channel": 0}, {"type": "note_on", "time": 0, "note": 68, "velocity": 119, "channel": 0}, {"type": "note_off", "time": 102, "note": 68, "velocity": 119, "channel": 0}, {"type": "note_on", "time": 0, "note": 65, "velocity": 106, "channel": 0}, {"type": "note_off", "time": 105, "note": 65, "velocity": 106, "channel": 0}, {"type": "note_on", "time": 254, "note": 62, "velocity": 122, "channel": 0}, {"type": "note_off", "time": 98, "note": 62, "velocity": 122, "channel": 0}, {"type": "note_on", "time": 3, "note": 66, "velocity": 99, "channel": 0}, {"type": "note_off", "time": 33, "note": 66, "velocity": 99, "channel": 0}, {"type": "note_on", "time": 4, "note": 69, "velocity": 101, "channel": 0}, {"type": "note_off", "time": 71, "note": 69, "velocity": 101, "channel": 0}, {"type": "note_on", "time": 0, "note": 71, "velocity": 110, "channel": 0}, {"type": "note_off", "time": 57, "note": 71, "velocity": 110, "channel": 0}, {"type": "note_on", "time": 24, "note": 67, "velocity": 127, "channel": 0}, {"type": "note_off", "time": 71, "note": 67, "velocity": 127, "channel": 0}, {"type": "note_on", "time": 4, "note": 69, "velocity": 112, "channel": 0}, {"type": "note_off", "time": 43, "note": 69, "velocity": 112, "channel": 0}, {"type": "note_on", "time": 15, "note": 63, "velocity": 117, "channel": 0}, {"type": "note_off", "time": 56, "note": 63, "velocity": 117, "channel": 0}, {"type": "note_on", "time": 0, "note": 65, "velocity": 107, "channel": 0}, {"type": "note_off", "time": 48, "note": 65, "velocity": 107, "channel": 0}, {"type": "note_on", "time": 3, "note": 67, "velocity": 104, "channel": 0}, {"type": "note_off", "time": 65, "note": 67, "velocity": 104, "channel": 0}, {"type": "note_on", "time": 0, "note": 69, "velocity": 112, "channel": 0}, {"type": "note_off", "time": 67, "note": 69, "velocity": 112, "channel": 0}, {"type": "note_on", "time": 0, "note": 67, "velocity": 114, "channel": 0}, {"type": "note_off", "time": 153, "note": 67, "velocity": 114, "channel": 0}, {"type": "note_on", "time": 175, "note": 69, "velocity": 109, "channel": 0}, {"type": "note_off", "time": 231, "note": 69, "velocity": 109, "channel": 0}, {"type": "note_on", "time": 27, "note": 67, "velocity": 112, "channel": 0}, {"type": "note_off", "time": 47, "note": 67, "velocity": 112, "channel": 0}, {"type": "note_on", "time": 0, "note": 64, "velocity": 114, "channel": 0}, {"type": "note_off", "time": 57, "note": 64, "velocity": 114, "channel": 0}, {"type": "note_on", "time": 0, "note": 63, "velocity": 118, "channel": 0}, {"type": "note_off", "time": 41, "note": 63, "velocity": 118, "channel": 0}, {"type": "note_on", "time": 4, "note": 62, "velocity": 122, "channel": 0}, {"type": "note_off", "time": 48, "note": 62, "velocity": 122, "channel": 0}, {"type": "note_on", "time": 13, "note": 60, "velocity": 116, "channel": 0}, {"type": "note_off", "time": 48, "note": 60, "velocity": 116, "channel": 0}, {"type": "note_on", "time": 9, "note": 58, "velocity": 112, "channel": 0}, {"type": "note_off", "time": 50, "note": 58, "velocity": 112, "channel": 0}, {"type": "note_on", "time": 3, "note": 57, "velocity": 109, "channel": 0}, {"type": "note_off", "time": 36, "note": 57, "velocity": 109, "channel": 0}, {"type": "note_on", "time": 3, "note": 55, "velocity": 112, "channel": 0}, {"type": "note_off", "time": 43, "note": 55, "velocity": 112, "channel": 0}, {"type": "note_on", "time": 0, "note": 53, "velocity": 115, "channel": 0}, {"type": "note_off", "time": 49, "note": 53, "velocity": 115, "channel": 0}, {"type": "note_on", "time": 0, "note": 51, "velocity": 119, "channel": 0}, {"type": "note_off", "time": 39, "note": 51, "velocity": 119, "channel": 0}, {"type": "note_on", "time": 1, "note": 49, "velocity": 116, "channel": 0}, {"type": "note_off", "time": 40, "note": 49, "velocity": 116, "channel": 0}, {"type": "note_on", "time": 22, "note": 46, "velocity": 114, "channel": 0}, {"type": "note_off", "time": 175, "note": 46, "velocity": 114, "channel": 0}, {"type": "note_on", "time": 351, "note": 55, "velocity": 105, "channel": 0}, {"type": "note_off", "time": 61, "note": 55, "velocity": 105, "channel": 0}, {"type": "note_on", "time": 11, "note": 56, "velocity": 103, "channel": 0}, {"type": "note_off", "time": 46, "note": 56, "velocity": 103, "channel": 0}, {"type": "note_on", "time": 9, "note": 59, "velocity": 107, "channel": 0}, {"type": "note_off", "time": 40, "note": 59, "velocity": 107, "channel": 0}, {"type": "note_on", "time": 0, "note": 61, "velocity": 120, "channel": 0}, {"type": "note_off", "time": 53, "note": 61, "velocity": 120, "channel": 0}, {"type": "note_on", "time": 1, "note": 63, "velocity": 105, "channel": 0}, {"type": "note_off", "time": 39, "note": 63, "velocity": 105, "channel": 0}, {"type": "note_on", "time": 15, "note": 66, "velocity": 105, "channel": 0}, {"type": "note_off", "time": 50, "note": 66, "velocity": 105, "channel": 0}, {"type": "note_on", "time": 0, "note": 68, "velocity": 110, "channel": 0}, {"type": "note_off", "time": 50, "note": 68, "velocity": 110, "channel": 0}, {"type": "note_on", "time": 0, "note": 71, "velocity": 110, "channel": 0}, {"type": "note_off", "time": 72, "note": 71, "velocity": 110, "channel": 0}, {"type": "note_on", "time": 0, "note": 73, "velocity": 113, "channel": 0}, {"type": "note_off", "time": 201, "note": 73, "velocity": 113, "channel": 0}, {"type": "note_on", "time": 0, "note": 71, "velocity": 110, "channel": 0}, {"type": "note_off", "time": 19, "note": 71, "velocity": 110, "channel": 0}, {"type": "note_on", "time": 5, "note": 70, "velocity": 109, "channel": 0}, {"type": "note_off", "time": 38, "note": 70, "velocity": 109, "channel": 0}, {"type": "note_on", "time": 0, "note": 68, "velocity": 112, "channel": 0}, {"type": "note_off", "time": 43, "note": 68, "velocity": 112, "channel": 0}, {"type": "note_on", "time": 9, "note": 66, "velocity": 108, "channel": 0}, {"type": "note_off", "time": 137, "note": 66, "velocity": 108, "channel": 0}, {"type": "note_on", "time": 263, "note": 57, "velocity": 114, "channel": 0}, {"type": "note_off", "time": 47, "note": 57, "velocity": 114, "channel": 0}, {"type": "note_on", "time": 6, "note": 59, "velocity": 100, "channel": 0}, {"type": "note_off", "time": 28, "note": 59, "velocity": 100, "channel": 0}, {"type": "note_on", "time": 2, "note": 61, "velocity": 120, "channel": 0}, {"type": "note_off", "time": 56, "note": 61, "velocity": 120, "channel": 0}, {"type": "note_on", "time": 1, "note": 62, "velocity": 116, "channel": 0}, {"type": "note_off", "time": 26, "note": 62, "velocity": 116, "channel": 0}, {"type": "note_on", "time": 0, "note": 64, "velocity": 119, "channel": 0}, {"type": "note_off", "time": 55, "note": 64, "velocity": 119, "channel": 0}, {"type": "note_on", "time": 0, "note": 62, "velocity": 118, "channel": 0}, {"type": "note_off", "time": 33, "note": 62, "velocity": 118, "channel": 0}, {"type": "note_on", "time": 0, "note": 63, "velocity": 115, "channel": 0}, {"type": "note_off", "time": 36, "note": 63, "velocity": 115, "channel": 0}, {"type": "note_on", "time": 0, "note": 64, "velocity": 114, "channel": 0}, {"type": "note_off", "time": 30, "note": 64, "velocity": 114, "channel": 0}, {"type": "note_on", "time": 1, "note": 65, "velocity": 107, "channel": 0}, {"type": "note_off", "time": 27, "note": 65, "velocity": 107, "channel": 0}, {"type": "note_on", "time": 0, "note": 67, "velocity": 111, "channel": 0}, {"type": "note_off", "time": 21, "note": 67, "velocity": 111, "channel": 0}, {"type": "note_on", "time": 3, "note": 69, "velocity": 114, "channel": 0}, {"type": "note_off", "time": 25, "note": 69, "velocity": 114, "channel": 0}, {"type": "note_on", "time": 0, "note": 71, "velocity": 112, "channel": 0}, {"type": "note_off", "time": 25, "note": 71, "velocity": 112, "channel": 0}, {"type": "note_on", "time": 0, "note": 69, "velocity": 112, "channel": 0}, {"type": "note_off", "time": 28, "note": 69, "velocity": 112, "channel": 0}, {"type": "note_on", "time": 10, "note": 67, "velocity": 109, "channel": 0}, {"type": "note_off", "time": 47, "note": 67, "velocity": 109, "channel": 0}, {"type": "note_on", "time": 1, "note": 65, "velocity": 119, "channel": 0}, {"type": "note_off", "time": 31, "note": 65, "velocity": 119, "channel": 0}, {"type": "note_on", "time": 6, "note": 62, "velocity": 118, "channel": 0}, {"type": "note_off", "time": 28, "note": 62, "velocity": 118, "channel": 0}, {"type": "note_on", "time": 0, "note": 60, "velocity": 115, "channel": 0}, {"type": "note_off", "time": 47, "note": 60, "velocity": 115, "channel": 0}, {"type": "note_on", "time": 0, "note": 59, "velocity": 109, "channel": 0}, {"type": "note_off", "time": 29, "note": 59, "velocity": 109, "channel": 0}, {"type": "note_on", "time": 11, "note": 57, "velocity": 115, "channel": 0}, {"type": "note_off", "time": 43, "note": 57, "velocity": 115, "channel": 0}, {"type": "note_on", "time": 10, "note": 55, "velocity": 103, "channel": 0}, {"type": "note_off", "time": 60, "note": 55, "velocity": 103, "channel": 0}, {"type": "note_on", "time": 236, "note": 56, "velocity": 106, "channel": 0}, {"type": "note_off", "time": 40, "note": 56, "velocity": 106, "channel": 0}, {"type": "note_on", "time": 1, "note": 57, "velocity": 111, "channel": 0}, {"type": "note_on", "time": 30, "note": 60, "velocity": 104, "channel": 0}, {"type": "note_off", "time": 0, "note": 57, "velocity": 111, "channel": 0}, {"type": "note_off", "time": 27, "note": 60, "velocity": 104, "channel": 0}, {"type": "note_on", "time": 0, "note": 61, "velocity": 116, "channel": 0}, {"type": "note_off", "time": 32, "note": 61, "velocity": 116, "channel": 0}, {"type": "note_on", "time": 0, "note": 62, "velocity": 119, "channel": 0}, {"type": "note_off", "time": 29, "note": 62, "velocity": 119, "channel": 0}, {"type": "note_on", "time": 11, "note": 65, "velocity": 111, "channel": 0}, {"type": "note_off", "time": 32, "note": 65, "velocity": 111, "channel": 0}, {"type": "note_on", "time": 0, "note": 64, "velocity": 123, "channel": 0}, {"type": "note_off", "time": 67, "note": 64, "velocity": 123, "channel": 0}, {"type": "note_on", "time": 0, "note": 65, "velocity": 110, "channel": 0}, {"type": "note_on", "time": 18, "note": 67, "velocity": 115, "channel": 0}, {"type": "note_off", "time": 0, "note": 65, "velocity": 110, "channel": 0}, {"type": "note_off", "time": 24, "note": 67, "velocity": 115, "channel": 0}, {"type": "note_on", "time": 2, "note": 66, "velocity": 110, "channel": 0}, {"type": "note_off", "time": 21, "note": 66, "velocity": 110, "channel": 0}, {"type": "note_on", "time": 2, "note": 67, "velocity": 117, "channel": 0}, {"type": "note_off", "time": 64, "note": 67, "velocity": 117, "channel": 0}, {"type": "note_on", "time": 4, "note": 68, "velocity": 106, "channel": 0}, {"type": "note_off", "time": 35, "note": 68, "velocity": 106, "channel": 0}, {"type": "note_on", "time": 33, "note": 64, "velocity": 120, "channel": 0}, {"type": "note_off", "time": 42, "note": 64, "velocity": 120, "channel": 0}, {"type": "note_on", "time": 0, "note": 65, "velocity": 110, "channel": 0}, {"type": "note_off", "time": 30, "note": 65, "velocity": 110, "channel": 0}, {"type": "note_on", "time": 3, "note": 67, "velocity": 111, "channel": 0}, {"type": "note_off", "time": 43, "note": 67, "velocity": 111, "channel": 0}, {"type": "note_on", "time": 0, "note": 65, "velocity": 102, "channel": 0}, {"type": "note_off", "time": 31, "note": 65, "velocity": 102, "channel": 0}, {"type": "note_on", "time": 0, "note": 67, "velocity": 112, "channel": 0}, {"type": "note_off", "time": 42, "note": 67, "velocity": 112, "channel": 0}, {"type": "note_on", "time": 5, "note": 69, "velocity": 109, "channel": 0}, {"type": "note_off", "time": 39, "note": 69, "velocity": 109, "channel": 0}, {"type": "note_on", "time": 0, "note": 72, "velocity": 106, "channel": 0}, {"type": "note_off", "time": 38, "note": 72, "velocity": 106, "channel": 0}, {"type": "note_on", "time": 13, "note": 68, "velocity": 107, "channel": 0}, {"type": "note_off", "time": 112, "note": 68, "velocity": 107, "channel": 0}, {"type": "note_on", "time": 323, "note": 68, "velocity": 116, "channel": 0}, {"type": "note_off", "time": 216, "note": 68, "velocity": 116, "channel": 0}, {"type": "note_on", "time": 0, "note": 65, "velocity": 109, "channel": 0}, {"type": "note_off", "time": 31, "note": 65, "velocity": 109, "channel": 0}, {"type": "note_on", "time": 18, "note": 61, "velocity": 120, "channel": 0}, {"type": "note_off", "time": 119, "note": 61, "velocity": 120, "channel": 0}, {"type": "note_on", "time": 47, "note": 68, "velocity": 109, "channel": 0}, {"type": "note_off", "time": 43, "note": 68, "velocity": 109, "channel": 0}, {"type": "note_on", "time": 27, "note": 62, "velocity": 114, "channel": 0}, {"type": "note_off", "time": 97, "note": 62, "velocity": 114, "channel": 0}, {"type": "note_on", "time": 0, "note": 66, "velocity": 111, "channel": 0}, {"type": "note_off", "time": 68, "note": 66, "velocity": 111, "channel": 0}, {"type": "note_on", "time": 3, "note": 64, "velocity": 112, "channel": 0}, {"type": "note_off", "time": 141, "note": 64, "velocity": 112, "channel": 0}, {"type": "note_on", "time": 72, "note": 61, "velocity": 114, "channel": 0}, {"type": "note_off", "time": 102, "note": 61, "velocity": 114, "channel": 0}, {"type": "note_on", "time": 0, "note": 64, "velocity": 116, "channel": 0}, {"type": "note_off", "time": 61, "note": 64, "velocity": 116, "channel": 0}, {"type": "note_on", "time": 0, "note": 62, "velocity": 114, "channel": 0}, {"type": "note_off", "time": 17, "note": 62, "velocity": 114, "channel": 0}, {"type": "note_on", "time": 0, "note": 60, "velocity": 114, "channel": 0}, {"type": "note_off", "time": 101, "note": 60, "velocity": 114, "channel": 0}, {"type": "note_on", "time": 5, "note": 62, "velocity": 117, "channel": 0}, {"type": "note_off", "time": 43, "note": 62, "velocity": 117, "channel": 0}, {"type": "note_on", "time": 14, "note": 64, "velocity": 122, "channel": 0}, {"type": "note_off", "time": 101, "note": 64, "velocity": 122, "channel": 0}, {"type": "note_on", "time": 16, "note": 67, "velocity": 111, "channel": 0}, {"type": "note_off", "time": 79, "note": 67, "velocity": 111, "channel": 0}, {"type": "note_on", "time": 5, "note": 65, "velocity": 105, "channel": 0}, {"type": "note_off", "time": 80, "note": 65, "velocity": 105, "channel": 0}, {"type": "note_on", "time": 1, "note": 64, "velocity": 122, "channel": 0}, {"type": "note_off", "time": 88, "note": 64, "velocity": 122, "channel": 0}, {"type": "note_on", "time": 7, "note": 63, "velocity": 121, "channel": 0}, {"type": "note_off", "time": 91, "note": 63, "velocity": 121, "channel": 0}, {"type": "note_on", "time": 15, "note": 65, "velocity": 108, "channel": 0}, {"type": "note_off", "time": 39, "note": 65, "velocity": 108, "channel": 0}, {"type": "note_on", "time": 0, "note": 64, "velocity": 107, "channel": 0}, {"type": "note_off", "time": 32, "note": 64, "velocity": 107, "channel": 0}, {"type": "note_on", "time": 0, "note": 61, "velocity": 117, "channel": 0}, {"type": "note_off", "time": 59, "note": 61, "velocity": 117, "channel": 0}, {"type": "note_on", "time": 0, "note": 62, "velocity": 119, "channel": 0}, {"type": "note_off", "time": 58, "note": 62, "velocity": 119, "channel": 0}, {"type": "note_on", "time": 11, "note": 60, "velocity": 111, "channel": 0}, {"type": "note_off", "time": 54, "note": 60, "velocity": 111, "channel": 0}, {"type": "note_on", "time": 30, "note": 57, "velocity": 114, "channel": 0}, {"type": "note_off", "time": 112, "note": 57, "velocity": 114, "channel": 0}, {"type": "note_on", "time": 84, "note": 58, "velocity": 99, "channel": 0}, {"type": "note_off", "time": 317, "note": 58, "velocity": 99, "channel": 0}, {"type": "note_on", "time": 100, "note": 56, "velocity": 108, "channel": 0}, {"type": "note_off", "time": 72, "note": 56, "velocity": 108, "channel": 0}, {"type": "note_on", "time": 3, "note": 54, "velocity": 108, "channel": 0}, {"type": "note_off", "time": 59, "note": 54, "velocity": 108, "channel": 0}, {"type": "note_on", "time": 12, "note": 51, "velocity": 108, "channel": 0}, {"type": "note_off", "time": 129, "note": 51, "velocity": 108, "channel": 0}, {"type": "note_on", "time": 29, "note": 47, "velocity": 106, "channel": 0}, {"type": "note_off", "time": 36, "note": 47, "velocity": 106, "channel": 0}, {"type": "note_on", "time": 1, "note": 53, "velocity": 109, "channel": 0}, {"type": "note_off", "time": 137, "note": 53, "velocity": 109, "channel": 0}, {"type": "note_on", "time": 6, "note": 56, "velocity": 104, "channel": 0}, {"type": "note_off", "time": 192, "note": 56, "velocity": 104, "channel": 0}, {"type": "note_on", "time": 906, "note": 60, "velocity": 113, "channel": 0}, {"type": "note_off", "time": 72, "note": 60, "velocity": 113, "channel": 0}, {"type": "note_on", "time": 6, "note": 62, "velocity": 112, "channel": 0}, {"type": "note_off", "time": 119, "note": 62, "velocity": 112, "channel": 0}, {"type": "note_on", "time": 8, "note": 67, "velocity": 116, "channel": 0}, {"type": "note_off", "time": 53, "note": 67, "velocity": 116, "channel": 0}, {"type": "note_on", "time": 24, "note": 67, "velocity": 113, "channel": 0}, {"type": "note_off", "time": 229, "note": 67, "velocity": 113, "channel": 0}, {"type": "note_on", "time": 6, "note": 65, "velocity": 106, "channel": 0}, {"type": "note_off", "time": 38, "note": 65, "velocity": 106, "channel": 0}, {"type": "note_on", "time": 5, "note": 69, "velocity": 114, "channel": 0}, {"type": "note_off", "time": 36, "note": 69, "velocity": 114, "channel": 0}, {"type": "note_on", "time": 7, "note": 72, "velocity": 115, "channel": 0}, {"type": "note_off", "time": 38, "note": 72, "velocity": 115, "channel": 0}, {"type": "note_on", "time": 0, "note": 69, "velocity": 116, "channel": 0}, {"type": "note_off", "time": 126, "note": 69, "velocity": 116, "channel": 0}, {"type": "note_on", "time": 9, "note": 65, "velocity": 106, "channel": 0}, {"type": "note_off", "time": 86, "note": 65, "velocity": 106, "channel": 0}, {"type": "note_on", "time": 202, "note": 69, "velocity": 112, "channel": 0}, {"type": "note_off", "time": 134, "note": 69, "velocity": 112, "channel": 0}, {"type": "note_on", "time": 50, "note": 70, "velocity": 113, "channel": 0}, {"type": "note_off", "time": 119, "note": 70, "velocity": 113, "channel": 0}, {"type": "note_on", "time": 0, "note": 71, "velocity": 107, "channel": 0}, {"type": "note_off", "time": 72, "note": 71, "velocity": 107, "channel": 0}, {"type": "note_on", "time": 0, "note": 72, "velocity": 113, "channel": 0}, {"type": "note_off", "time": 115, "note": 72, "velocity": 113, "channel": 0}, {"type": "note_on", "time": 0, "note": 71, "velocity": 116, "channel": 0}, {"type": "note_off", "time": 103, "note": 71, "velocity": 116, "channel": 0}, {"type": "note_on", "time": 0, "note": 63, "velocity": 113, "channel": 0}, {"type": "note_off", "time": 72, "note": 63, "velocity": 113, "channel": 0}, {"type": "note_on", "time": 22, "note": 67, "velocity": 111, "channel": 0}, {"type": "note_off", "time": 83, "note": 67, "velocity": 111, "channel": 0}, {"type": "note_on", "time": 0, "note": 68, "velocity": 116, "channel": 0}, {"type": "note_off", "time": 228, "note": 68, "velocity": 116, "channel": 0}, {"type": "note_on", "time": 9, "note": 64, "velocity": 97, "channel": 0}, {"type": "note_off", "time": 47, "note": 64, "velocity": 97, "channel": 0}, {"type": "note_on", "time": 2, "note": 66, "velocity": 103, "channel": 0}, {"type": "note_off", "time": 45, "note": 66, "velocity": 103, "channel": 0}, {"type": "note_on", "time": 0, "note": 68, "velocity": 105, "channel": 0}, {"type": "note_off", "time": 30, "note": 68, "velocity": 105, "channel": 0}, {"type": "note_on", "time": 7, "note": 69, "velocity": 112, "channel": 0}, {"type": "note_off", "time": 47, "note": 69, "velocity": 112, "channel": 0}, {"type": "note_on", "time": 9, "note": 71, "velocity": 113, "channel": 0}, {"type": "note_off", "time": 47, "note": 71, "velocity": 113, "channel": 0}, {"type": "note_on", "time": 0, "note": 73, "velocity": 118, "channel": 0}, {"type": "note_off", "time": 235, "note": 73, "velocity": 118, "channel": 0}, {"type": "note_on", "time": 0, "note": 69, "velocity": 105, "channel": 0}, {"type": "note_off", "time": 51, "note": 69, "velocity": 105, "channel": 0}, {"type": "note_on", "time": 25, "note": 73, "velocity": 117, "channel": 0}, {"type": "note_off", "time": 181, "note": 73, "velocity": 117, "channel": 0}, {"type": "note_on", "time": 0, "note": 69, "velocity": 115, "channel": 0}, {"type": "note_off", "time": 119, "note": 69, "velocity": 115, "channel": 0}, {"type": "note_on", "time": 0, "note": 72, "velocity": 111, "channel": 0}, {"type": "note_off", "time": 61, "note": 72, "velocity": 111, "channel": 0}, {"type": "note_on", "time": 0, "note": 69, "velocity": 118, "channel": 0}, {"type": "note_on", "time": 194, "note": 67, "velocity": 107, "channel": 0}, {"type": "note_off", "time": 0, "note": 69, "velocity": 118, "channel": 0}, {"type": "note_off", "time": 112, "note": 67, "velocity": 107, "channel": 0}, {"type": "note_on", "time": 9, "note": 65, "velocity": 107, "channel": 0}, {"type": "note_off", "time": 345, "note": 65, "velocity": 107, "channel": 0}, {"type": "note_on", "time": 22, "note": 62, "velocity": 120, "channel": 0}, {"type": "note_off", "time": 94, "note": 62, "velocity": 120, "channel": 0}, {"type": "note_on", "time": 0, "note": 60, "velocity": 102, "channel": 0}, {"type": "note_off", "time": 119, "note": 60, "velocity": 102, "channel": 0}, {"type": "note_on", "time": 14, "note": 58, "velocity": 101, "channel": 0}, {"type": "note_off", "time": 68, "note": 58, "velocity": 101, "channel": 0}, {"type": "note_on", "time": 294, "note": 69, "velocity": 115, "channel": 0}, {"type": "note_off", "time": 43, "note": 69, "velocity": 115, "channel": 0}, {"type": "note_on", "time": 7, "note": 70, "velocity": 115, "channel": 0}, {"type": "note_off", "time": 88, "note": 70, "velocity": 115, "channel": 0}, {"type": "note_on", "time": 123, "note": 70, "velocity": 112, "channel": 0}, {"type": "note_off", "time": 329, "note": 70, "velocity": 112, "channel": 0}, {"type": "note_on", "time": 51, "note": 70, "velocity": 113, "channel": 0}, {"type": "note_off", "time": 202, "note": 70, "velocity": 113, "channel": 0}, {"type": "note_on", "time": 0, "note": 66, "velocity": 107, "channel": 0}, {"type": "note_off", "time": 134, "note": 66, "velocity": 107, "channel": 0}, {"type": "note_on", "time": 50, "note": 63, "velocity": 116, "channel": 0}, {"type": "note_off", "time": 177, "note": 63, "velocity": 116, "channel": 0}, {"type": "note_on", "time": 10, "note": 60, "velocity": 110, "channel": 0}, {"type": "note_off", "time": 101, "note": 60, "velocity": 110, "channel": 0}, {"type": "note_on", "time": 11, "note": 61, "velocity": 110, "channel": 0}, {"type": "note_off", "time": 361, "note": 61, "velocity": 110, "channel": 0}, {"type": "note_on", "time": 34, "note": 68, "velocity": 103, "channel": 0}, {"type": "note_off", "time": 31, "note": 68, "velocity": 103, "channel": 0}, {"type": "note_on", "time": 19, "note": 60, "velocity": 103, "channel": 0}, {"type": "note_off", "time": 137, "note": 60, "velocity": 103, "channel": 0}, {"type": "note_on", "time": 0, "note": 58, "velocity": 96, "channel": 0}, {"type": "note_off", "time": 72, "note": 58, "velocity": 96, "channel": 0}, {"type": "note_on", "time": 646, "note": 71, "velocity": 112, "channel": 0}, {"type": "note_off", "time": 17, "note": 71, "velocity": 112, "channel": 0}, {"type": "note_on", "time": 0, "note": 72, "velocity": 110, "channel": 0}, {"type": "note_off", "time": 156, "note": 72, "velocity": 110, "channel": 0}, {"type": "note_on", "time": 14, "note": 72, "velocity": 115, "channel": 0}, {"type": "note_off", "time": 40, "note": 72, "velocity": 115, "channel": 0}, {"type": "note_on", "time": 50, "note": 69, "velocity": 118, "channel": 0}, {"type": "note_off", "time": 119, "note": 69, "velocity": 118, "channel": 0}, {"type": "note_on", "time": 0, "note": 72, "velocity": 115, "channel": 0}, {"type": "note_off", "time": 249, "note": 72, "velocity": 115, "channel": 0}, {"type": "note_on", "time": 7, "note": 68, "velocity": 111, "channel": 0}, {"type": "note_off", "time": 126, "note": 68, "velocity": 111, "channel": 0}, {"type": "note_on", "time": 54, "note": 66, "velocity": 106, "channel": 0}, {"type": "note_off", "time": 123, "note": 66, "velocity": 106, "channel": 0}, {"type": "note_on", "time": 27, "note": 63, "velocity": 109, "channel": 0}, {"type": "note_off", "time": 44, "note": 63, "velocity": 109, "channel": 0}, {"type": "note_on", "time": 7, "note": 65, "velocity": 111, "channel": 0}, {"type": "note_off", "time": 126, "note": 65, "velocity": 111, "channel": 0}, {"type": "note_on", "time": 237, "note": 62, "velocity": 119, "channel": 0}, {"type": "note_off", "time": 126, "note": 62, "velocity": 119, "channel": 0}, {"type": "note_on", "time": 74, "note": 66, "velocity": 108, "channel": 0}, {"type": "note_on", "time": 113, "note": 68, "velocity": 114, "channel": 0}, {"type": "note_off", "time": 0, "note": 66, "velocity": 108, "channel": 0}, {"type": "note_off", "time": 79, "note": 68, "velocity": 114, "channel": 0}, {"type": "note_on", "time": 13, "note": 64, "velocity": 116, "channel": 0}, {"type": "note_off", "time": 112, "note": 64, "velocity": 116, "channel": 0}, {"type": "note_on", "time": 652, "note": 69, "velocity": 115, "channel": 0}, {"type": "note_off", "time": 91, "note": 69, "velocity": 115, "channel": 0}, {"type": "note_on", "time": 35, "note": 67, "velocity": 114, "channel": 0}, {"type": "note_off", "time": 68, "note": 67, "velocity": 114, "channel": 0}, {"type": "note_on", "time": 0, "note": 65, "velocity": 110, "channel": 0}, {"type": "note_off", "time": 101, "note": 65, "velocity": 110, "channel": 0}, {"type": "note_on", "time": 18, "note": 64, "velocity": 112, "channel": 0}, {"type": "note_off", "time": 72, "note": 64, "velocity": 112, "channel": 0}, {"type": "note_on", "time": 0, "note": 63, "velocity": 121, "channel": 0}, {"type": "note_off", "time": 105, "note": 63, "velocity": 121, "channel": 0}, {"type": "note_on", "time": 10, "note": 65, "velocity": 115, "channel": 0}, {"type": "note_off", "time": 76, "note": 65, "velocity": 115, "channel": 0}, {"type": "note_on", "time": 0, "note": 62, "velocity": 120, "channel": 0}, {"type": "note_off", "time": 109, "note": 62, "velocity": 120, "channel": 0}, {"type": "note_on", "time": 0, "note": 60, "velocity": 109, "channel": 0}, {"type": "note_off", "time": 72, "note": 60, "velocity": 109, "channel": 0}, {"type": "note_on", "time": 16, "note": 58, "velocity": 101, "channel": 0}, {"type": "note_off", "time": 97, "note": 58, "velocity": 101, "channel": 0}, {"type": "note_on", "time": 226, "note": 65, "velocity": 112, "channel": 0}, {"type": "note_off", "time": 47, "note": 65, "velocity": 112, "channel": 0}, {"type": "note_on", "time": 16, "note": 63, "velocity": 111, "channel": 0}, {"type": "note_off", "time": 112, "note": 63, "velocity": 111, "channel": 0}, {"type": "note_on", "time": 0, "note": 61, "velocity": 113, "channel": 0}, {"type": "note_off", "time": 76, "note": 61, "velocity": 113, "channel": 0}, {"type": "note_on", "time": 3, "note": 58, "velocity": 99, "channel": 0}, {"type": "note_off", "time": 108, "note": 58, "velocity": 99, "channel": 0}, {"type": "note_on", "time": 7, "note": 54, "velocity": 107, "channel": 0}, {"type": "note_off", "time": 45, "note": 54, "velocity": 107, "channel": 0}, {"type": "note_on", "time": 9, "note": 53, "velocity": 110, "channel": 0}, {"type": "note_off", "time": 164, "note": 53, "velocity": 110, "channel": 0}, {"type": "note_on", "time": 73, "note": 56, "velocity": 102, "channel": 0}, {"type": "note_off", "time": 60, "note": 56, "velocity": 102, "channel": 0}, {"type": "note_on", "time": 46, "note": 62, "velocity": 116, "channel": 0}, {"type": "note_off", "time": 50, "note": 62, "velocity": 116, "channel": 0}, {"type": "note_on", "time": 16, "note": 59, "velocity": 108, "channel": 0}, {"type": "note_off", "time": 97, "note": 59, "velocity": 108, "channel": 0}, {"type": "note_on", "time": 23, "note": 57, "velocity": 106, "channel": 0}, {"type": "note_on", "time": 101, "note": 56, "velocity": 105, "channel": 0}, {"type": "note_off", "time": 0, "note": 57, "velocity": 106, "channel": 0}, {"type": "note_off", "time": 61, "note": 56, "velocity": 105, "channel": 0}, {"type": "note_on", "time": 123, "note": 57, "velocity": 107, "channel": 0}, {"type": "note_off", "time": 97, "note": 57, "velocity": 107, "channel": 0}, {"type": "note_on", "time": 14, "note": 59, "velocity": 107, "channel": 0}, {"type": "note_off", "time": 43, "note": 59, "velocity": 107, "channel": 0}, {"type": "note_on", "time": 5, "note": 61, "velocity": 113, "channel": 0}, {"type": "note_off", "time": 92, "note": 61, "velocity": 113, "channel": 0}, {"type": "note_on", "time": 0, "note": 62, "velocity": 119, "channel": 0}, {"type": "note_off", "time": 91, "note": 62, "velocity": 119, "channel": 0}, {"type": "note_on", "time": 0, "note": 58, "velocity": 98, "channel": 0}, {"type": "note_off", "time": 90, "note": 58, "velocity": 98, "channel": 0}, {"type": "note_on", "time": 12, "note": 60, "velocity": 107, "channel": 0}, {"type": "note_off", "time": 65, "note": 60, "velocity": 107, "channel": 0}, {"type": "note_on", "time": 228, "note": 69, "velocity": 109, "channel": 0}, {"type": "note_off", "time": 123, "note": 69, "velocity": 109, "channel": 0}, {"type": "note_on", "time": 0, "note": 65, "velocity": 113, "channel": 0}, {"type": "note_off", "time": 54, "note": 65, "velocity": 113, "channel": 0}, {"type": "note_on", "time": 2, "note": 62, "velocity": 119, "channel": 0}, {"type": "note_off", "time": 148, "note": 62, "velocity": 119, "channel": 0}, {"type": "note_on", "time": 34, "note": 65, "velocity": 105, "channel": 0}, {"type": "note_off", "time": 196, "note": 65, "velocity": 105, "channel": 0}, {"type": "note_on", "time": 194, "note": 65, "velocity": 102, "channel": 0}, {"type": "note_off", "time": 90, "note": 65, "velocity": 102, "channel": 0}, {"type": "note_on", "time": 31, "note": 53, "velocity": 107, "channel": 0}, {"type": "note_off", "time": 99, "note": 53, "velocity": 107, "channel": 0}, {"type": "end_of_track", "time": 0}]]}