{"ticks_per_beat": 192, "tracks": [[{"type": "track_name", "name": "Melody", "time": 0}, {"type": "set_tempo", "tempo": 304568, "time": 0}, {"type": "time_signature", "numerator": 3, "denominator": 4, "clocks_per_click": 24, "notated_32nd_notes_per_beat": 8, "time": 0}, {"type": "note_on", "time": 1604, "note": 62, "velocity": 102, "channel": 0}, {"type": "note_off", "time": 250, "note": 62, "velocity": 102, "channel": 0}, {"type": "note_on", "time": 47, "note": 64, "velocity": 107, "channel": 0}, {"type": "note_off", "time": 257, "note": 64, "velocity": 107, "channel": 0}, {"type": "note_on", "time": 12, "note": 64, "velocity": 112, "channel": 0}, {"type": "note_off", "time": 56, "note": 64, "velocity": 112, "channel": 0}, {"type": "note_on", "time": 18, "note": 65, "velocity": 112, "channel": 0}, {"type": "note_off", "time": 240, "note": 65, "velocity": 112, "channel": 0}, {"type": "note_on", "time": 18, "note": 64, "velocity": 108, "channel": 0}, {"type": "note_off", "time": 278, "note": 64, "velocity": 108, "channel": 0}, {"type": "note_on", "time": 21, "note": 62, "velocity": 93, "channel": 0}, {"type": "note_off", "time": 446, "note": 62, "velocity": 93, "channel": 0}, {"type": "note_on", "time": 39, "note": 60, "velocity": 107, "channel": 0}, {"type": "note_off", "time": 28, "note": 60, "velocity": 107, "channel": 0}, {"type": "note_on", "time": 7, "note": 58, "velocity": 118, "channel": 0}, {"type": "note_off", "time": 97, "note": 58, "velocity": 118, "channel": 0}, {"type": "note_on", "time": 18, "note": 57, "velocity": 103, "channel": 0}, {"type": "note_off", "time": 164, "note": 57, "velocity": 103, "channel": 0}, {"type": "note_on", "time": 15, "note": 58, "velocity": 104, "channel": 0}, {"type": "note_off", "time": 111, "note": 58, "velocity": 104, "channel": 0}, {"type": "note_on", "time": 23, "note": 60, "velocity": 114, "channel": 0}, {"type": "note_off", "time": 77, "note": 60, "velocity": 114, "channel": 0}, {"type": "note_on", "time": 41, "note": 63, "velocity": 122, "channel": 0}, {"type": "note_off", "time": 146, "note": 63, "velocity": 122, "channel": 0}, {"type": "note_on", "time": 14, "note": 62, "velocity": 105, "channel": 0}, {"type": "note_off", "time": 318, "note": 62, "velocity": 105, "channel": 0}, {"type": "note_on", "time": 18, "note": 55, "velocity": 86, "channel": 0}, {"type": "note_off", "time": 182, "note": 55, "velocity": 86, "channel": 0}, {"type": "note_on", "time": 25, "note": 57, "velocity": 90, "channel": 0}, {"type": "note_off", "time": 643, "note": 57, "velocity": 90, "channel": 0}, {"type": "note_on", "time": 219, "note": 60, "velocity": 99, "channel": 0}, {"type": "note_off", "time": 183, "note": 60, "velocity": 99, "channel": 0}, {"type": "note_on", "time": 10, "note": 62, "velocity": 110, "channel": 0}, {"type": "note_off", "time": 182, "note": 62, "velocity": 110, "channel": 0}, {"type": "note_on", "time": 219, "note": 63, "velocity": 108, "channel": 0}, {"type": "note_off", "time": 183, "note": 63, "velocity": 108, "channel": 0}, {"type": "note_on", "time": 32, "note": 65, "velocity": 106, "channel": 0}, {"type": "note_off", "time": 149, "note": 65, "velocity": 106, "channel": 0}, {"type": "note_on", "time": 143, "note": 67, "velocity": 107, "channel": 0}, {"type": "note_off", "time": 268, "note": 67, "velocity": 107, "channel": 0}, {"type": "note_on", "time": 25, "note": 68, "velocity": 109, "channel": 0}, {"type": "note_off", "time": 139, "note": 68, "velocity": 109, "channel": 0}, {"type": "note_on", "time": 95, "note": 58, "velocity": 92, "channel": 0}, {"type": "note_off", "time": 281, "note": 58, "velocity": 92, "channel": 0}, {"type": "note_on", "time": 14, "note": 60, "velocity": 105, "channel": 0}, {"type": "note_off", "time": 282, "note": 60, "velocity": 105, "channel": 0}, {"type": "note_on", "time": 15, "note": 61, "velocity": 101, "channel": 0}, {"type": "note_off", "time": 306, "note": 61, "velocity": 101, "channel": 0}, {"type": "note_on", "time": 36, "note": 63, "velocity": 96, "channel": 0}, {"type": "note_off", "time": 360, "note": 63, "velocity": 96, "channel": 0}, {"type": "note_on", "time": 135, "note": 53, "velocity": 103, "channel": 0}, {"type": "note_off", "time": 175, "note": 53, "velocity": 103, "channel": 0}, {"type": "note_on", "time": 14, "note": 55, "velocity": 102, "channel": 0}, {"type": "note_off", "time": 187, "note": 55, "velocity": 102, "channel": 0}, {"type": "note_on", "time": 18, "note": 56, "velocity": 104, "channel": 0}, {"type": "note_off", "time": 240, "note": 56, "velocity": 104, "channel": 0}, {"type": "note_on", "time": 23, "note": 58, "velocity": 108, "channel": 0}, {"type": "note_off", "time": 283, "note": 58, "velocity": 108, "channel": 0}, {"type": "note_on", "time": 32, "note": 60, "velocity": 108, "channel": 0}, {"type": "note_off", "time": 182, "note": 60, "velocity": 108, "channel": 0}, {"type": "note_on", "time": 9, "note": 61, "velocity": 113, "channel": 0}, {"type": "note_off", "time": 119, "note": 61, "velocity": 113, "channel": 0}, {"type": "note_on", "time": 13, "note": 63, "velocity": 98, "channel": 0}, {"type": "note_off", "time": 431, "note": 63, "velocity": 98, "channel": 0}, {"type": "note_on", "time": 13, "note": 65, "velocity": 111, "channel": 0}, {"type": "note_off", "time": 73, "note": 65, "velocity": 111, "channel": 0}, {"type": "note_on", "time": 12, "note": 67, "velocity": 109, "channel": 0}, {"type": "note_off", "time": 96, "note": 67, "velocity": 109, "channel": 0}, {"type": "note_on", "time": 12, "note": 68, "velocity": 118, "channel": 0}, {"type": "note_off", "time": 90, "note": 68, "velocity": 118, "channel": 0}, {"type": "note_on", "time": 8, "note": 70, "velocity": 113, "channel": 0}, {"type": "note_off", "time": 84, "note": 70, "velocity": 113, "channel": 0}, {"type": "note_on", "time": 16, "note": 72, "velocity": 114, "channel": 0}, {"type": "note_off", "time": 84, "note": 72, "velocity": 114, "channel": 0}, {"type": "note_on", "time": 15, "note": 73, "velocity": 103, "channel": 0}, {"type": "note_off", "time": 74, "note": 73, "velocity": 103, "channel": 0}, {"type": "note_on", "time": 16, "note": 72, "velocity": 106, "channel": 0}, {"type": "note_off", "time": 91, "note": 72, "velocity": 106, "channel": 0}, {"type": "note_on", "time": 9, "note": 68, "velocity": 97, "channel": 0}, {"type": "note_off", "time": 58, "note": 68, "velocity": 97, "channel": 0}, {"type": "note_on", "time": 13, "note": 63, "velocity": 81, "channel": 0}, {"type": "note_off", "time": 174, "note": 63, "velocity": 81, "channel": 0}, {"type": "note_on", "time": 339, "note": 72, "velocity": 111, "channel": 0}, {"type": "note_off", "time": 90, "note": 72, "velocity": 111, "channel": 0}, {"type": "note_on", "time": 3, "note": 71, "velocity": 116, "channel": 0}, {"type": "note_off", "time": 84, "note": 71, "velocity": 116, "channel": 0}, {"type": "note_on", "time": 17, "note": 67, "velocity": 90, "channel": 0}, {"type": "note_off", "time": 72, "note": 67, "velocity": 90, "channel": 0}, {"type": "note_on", "time": 50, "note": 62, "velocity": 109, "channel": 0}, {"type": "note_off", "time": 272, "note": 62, "velocity": 109, "channel": 0}, {"type": "note_on", "time": 592, "note": 71, "velocity": 107, "channel": 0}, {"type": "note_off", "time": 91, "note": 71, "velocity": 107, "channel": 0}, {"type": "note_on", "time": 5, "note": 69, "velocity": 111, "channel": 0}, {"type": "note_off", "time": 83, "note": 69, "velocity": 111, "channel": 0}, {"type": "note_on", "time": 9, "note": 64, "velocity": 105, "channel": 0}, {"type": "note_off", "time": 101, "note": 64, "velocity": 105, "channel": 0}, {"type": "note_on", "time": 7, "note": 61, "velocity": 113, "channel": 0}, {"type": "note_off", "time": 174, "note": 61, "velocity": 113, "channel": 0}, {"type": "note_on", "time": 7, "note": 57, "velocity": 116, "channel": 0}, {"type": "note_off", "time": 133, "note": 57, "velocity": 116, "channel": 0}, {"type": "note_on", "time": 8, "note": 55, "velocity": 92, "channel": 0}, {"type": "note_off", "time": 55, "note": 55, "velocity": 92, "channel": 0}, {"type": "note_on", "time": 84, "note": 53, "velocity": 112, "channel": 0}, {"type": "note_off", "time": 102, "note": 53, "velocity": 112, "channel": 0}, {"type": "note_on", "time": 18, "note": 52, "velocity": 104, "channel": 0}, {"type": "note_off", "time": 281, "note": 52, "velocity": 104, "channel": 0}, {"type": "note_on", "time": 8, "note": 55, "velocity": 89, "channel": 0}, {"type": "note_off", "time": 258, "note": 55, "velocity": 89, "channel": 0}, {"type": "note_on", "time": 11, "note": 53, "velocity": 104, "channel": 0}, {"type": "note_off", "time": 308, "note": 53, "velocity": 104, "channel": 0}, {"type": "note_on", "time": 5, "note": 57, "velocity": 105, "channel": 0}, {"type": "note_off", "time": 173, "note": 57, "velocity": 105, "channel": 0}, {"type": "note_on", "time": 9, "note": 53, "velocity": 97, "channel": 0}, {"type": "note_off", "time": 90, "note": 53, "velocity": 97, "channel": 0}, {"type": "note_on", "time": 5, "note": 55, "velocity": 95, "channel": 0}, {"type": "note_off", "time": 296, "note": 55, "velocity": 95, "channel": 0}, {"type": "note_on", "time": 11, "note": 59, "velocity": 107, "channel": 0}, {"type": "note_off", "time": 195, "note": 59, "velocity": 107, "channel": 0}, {"type": "note_on", "time": 4, "note": 55, "velocity": 96, "channel": 0}, {"type": "note_off", "time": 83, "note": 55, "velocity": 96, "channel": 0}, {"type": "note_on", "time": 8, "note": 57, "velocity": 101, "channel": 0}, {"type": "note_off", "time": 153, "note": 57, "velocity": 101, "channel": 0}, {"type": "note_on", "time": 9, "note": 59, "velocity": 107, "channel": 0}, {"type": "note_off", "time": 105, "note": 59, "velocity": 107, "channel": 0}, {"type": "note_on", "time": 11, "note": 60, "velocity": 108, "channel": 0}, {"type": "note_off", "time": 177, "note": 60, "velocity": 108, "channel": 0}, {"type": "note_on", "time": 5, "note": 65, "velocity": 115, "channel": 0}, {"type": "note_off", "time": 97, "note": 65, "velocity": 115, "channel": 0}, {"type": "note_on", "time": 10, "note": 64, "velocity": 109, "channel": 0}, {"type": "note_off", "time": 249, "note": 64, "velocity": 109, "channel": 0}, {"type": "note_on", "time": 47, "note": 60, "velocity": 97, "channel": 0}, {"type": "note_off", "time": 273, "note": 60, "velocity": 97, "channel": 0}, {"type": "note_on", "time": 26, "note": 57, "velocity": 86, "channel": 0}, {"type": "note_off", "time": 543, "note": 57, "velocity": 86, "channel": 0}, {"type": "note_on", "time": 238, "note": 56, "velocity": 95, "channel": 0}, {"type": "note_off", "time": 82, "note": 56, "velocity": 95, "channel": 0}, {"type": "note_on", "time": 74, "note": 57, "velocity": 105, "channel": 0}, {"type": "note_off", "time": 95, "note": 57, "velocity": 105, "channel": 0}, {"type": "note_on", "time": 97, "note": 59, "velocity": 110, "channel": 0}, {"type": "note_off", "time": 166, "note": 59, "velocity": 110, "channel": 0}, {"type": "note_on", "time": 17, "note": 60, "velocity": 102, "channel": 0}, {"type": "note_off", "time": 132, "note": 60, "velocity": 102, "channel": 0}, {"type": "note_on", "time": 7, "note": 62, "velocity": 121, "channel": 0}, {"type": "note_off", "time": 105, "note": 62, "velocity": 121, "channel": 0}, {"type": "note_on", "time": 6, "note": 64, "velocity": 109, "channel": 0}, {"type": "note_off", "time": 146, "note": 64, "velocity": 109, "channel": 0}, {"type": "note_on", "time": 12, "note": 65, "velocity": 117, "channel": 0}, {"type": "note_off", "time": 177, "note": 65, "velocity": 117, "channel": 0}, {"type": "note_on", "time": 18, "note": 67, "velocity": 105, "channel": 0}, {"type": "note_off", "time": 107, "note": 67, "velocity": 105, "channel": 0}, {"type": "note_on", "time": 14, "note": 64, "velocity": 99, "channel": 0}, {"type": "note_off", "time": 156, "note": 64, "velocity": 99, "channel": 0}, {"type": "note_on", "time": 8, "note": 61, "velocity": 102, "channel": 0}, {"type": "note_off", "time": 131, "note": 61, "velocity": 102, "channel": 0}, {"type": "note_on", "time": 11, "note": 57, "velocity": 98, "channel": 0}, {"type": "note_off", "time": 308, "note": 57, "velocity": 98, "channel": 0}, {"type": "note_on", "time": 5, "note": 58, "velocity": 115, "channel": 0}, {"type": "note_off", "time": 85, "note": 58, "velocity": 115, "channel": 0}, {"type": "note_on", "time": 10, "note": 62, "velocity": 115, "channel": 0}, {"type": "note_off", "time": 87, "note": 62, "velocity": 115, "channel": 0}, {"type": "note_on", "time": 7, "note": 65, "velocity": 110, "channel": 0}, {"type": "note_off", "time": 79, "note": 65, "velocity": 110, "channel": 0}, {"type": "note_on", "time": 4, "note": 70, "velocity": 119, "channel": 0}, {"type": "note_off", "time": 93, "note": 70, "velocity": 119, "channel": 0}, {"type": "note_on", "time": 3, "note": 74, "velocity": 106, "channel": 0}, {"type": "note_off", "time": 85, "note": 74, "velocity": 106, "channel": 0}, {"type": "note_on", "time": 10, "note": 72, "velocity": 97, "channel": 0}, {"type": "note_off", "time": 91, "note": 72, "velocity": 97, "channel": 0}, {"type": "note_on", "time": 4, "note": 70, "velocity": 112, "channel": 0}, {"type": "note_off", "time": 78, "note": 70, "velocity": 112, "channel": 0}, {"type": "note_on", "time": 14, "note": 69, "velocity": 108, "channel": 0}, {"type": "note_off", "time": 95, "note": 69, "velocity": 108, "channel": 0}, {"type": "note_on", "time": 10, "note": 65, "velocity": 107, "channel": 0}, {"type": "note_off", "time": 70, "note": 65, "velocity": 107, "channel": 0}, {"type": "note_on", "time": 34, "note": 60, "velocity": 110, "channel": 0}, {"type": "note_off", "time": 70, "note": 60, "velocity": 110, "channel": 0}, {"type": "note_on", "time": 9, "note": 59, "velocity": 103, "channel": 0}, {"type": "note_off", "time": 70, "note": 59, "velocity": 103, "channel": 0}, {"type": "note_on", "time": 6, "note": 58, "velocity": 112, "channel": 0}, {"type": "note_off", "time": 106, "note": 58, "velocity": 112, "channel": 0}, {"type": "note_on", "time": 20, "note": 55, "velocity": 103, "channel": 0}, {"type": "note_off", "time": 84, "note": 55, "velocity": 103, "channel": 0}, {"type": "note_on", "time": 9, "note": 53, "velocity": 99, "channel": 0}, {"type": "note_off", "time": 68, "note": 53, "velocity": 99, "channel": 0}, {"type": "note_on", "time": 5, "note": 52, "velocity": 105, "channel": 0}, {"type": "note_off", "time": 82, "note": 52, "velocity": 105, "channel": 0}, {"type": "note_on", "time": 11, "note": 50, "velocity": 104, "channel": 0}, {"type": "note_off", "time": 290, "note": 50, "velocity": 104, "channel": 0}, {"type": "note_on", "time": 7, "note": 51, "velocity": 104, "channel": 0}, {"type": "note_off", "time": 248, "note": 51, "velocity": 104, "channel": 0}, {"type": "note_on", "time": 15, "note": 55, "velocity": 108, "channel": 0}, {"type": "note_off", "time": 178, "note": 55, "velocity": 108, "channel": 0}, {"type": "note_on", "time": 19, "note": 58, "velocity": 115, "channel": 0}, {"type": "note_off", "time": 150, "note": 58, "velocity": 115, "channel": 0}, {"type": "note_on", "time": 10, "note": 60, "velocity": 118, "channel": 0}, {"type": "note_off", "time": 159, "note": 60, "velocity": 118, "channel": 0}, {"type": "note_on", "time": 6, "note": 62, "velocity": 112, "channel": 0}, {"type": "note_off", "time": 212, "note": 62, "velocity": 112, "channel": 0}, {"type": "note_on", "time": 13, "note": 63, "velocity": 99, "channel": 0}, {"type": "note_off", "time": 153, "note": 63, "velocity": 99, "channel": 0}, {"type": "note_on", "time": 8, "note": 65, "velocity": 110, "channel": 0}, {"type": "note_off", "time": 166, "note": 65, "velocity": 110, "channel": 0}, {"type": "note_on", "time": 10, "note": 67, "velocity": 110, "channel": 0}, {"type": "note_off", "time": 97, "note": 67, "velocity": 110, "channel": 0}, {"type": "note_on", "time": 12, "note": 69, "velocity": 104, "channel": 0}, {"type": "note_off", "time": 154, "note": 69, "velocity": 104, "channel": 0}, {"type": "note_on", "time": 11, "note": 70, "velocity": 116, "channel": 0}, {"type": "note_off", "time": 96, "note": 70, "velocity": 116, "channel": 0}, {"type": "note_on", "time": 29, "note": 72, "velocity": 111, "channel": 0}, {"type": "note_off", "time": 89, "note": 72, "velocity": 111, "channel": 0}, {"type": "note_on", "time": 8, "note": 73, "velocity": 103, "channel": 0}, {"type": "note_off", "time": 130, "note": 73, "velocity": 103, "channel": 0}, {"type": "note_on", "time": 10, "note": 72, "velocity": 101, "channel": 0}, {"type": "note_off", "time": 300, "note": 72, "velocity": 101, "channel": 0}, {"type": "note_on", "time": 8, "note": 68, "velocity": 105, "channel": 0}, {"type": "note_off", "time": 222, "note": 68, "velocity": 105, "channel": 0}, {"type": "note_on", "time": 39, "note": 63, "velocity": 99, "channel": 0}, {"type": "note_off", "time": 298, "note": 63, "velocity": 99, "channel": 0}, {"type": "note_on", "time": 23, "note": 68, "velocity": 108, "channel": 0}, {"type": "note_off", "time": 94, "note": 68, "velocity": 108, "channel": 0}, {"type": "note_on", "time": 53, "note": 72, "velocity": 108, "channel": 0}, {"type": "note_off", "time": 96, "note": 72, "velocity": 108, "channel": 0}, {"type": "note_on", "time": 23, "note": 70, "velocity": 103, "channel": 0}, {"type": "note_off", "time": 294, "note": 70, "velocity": 103, "channel": 0}, {"type": "note_on", "time": 10, "note": 65, "velocity": 108, "channel": 0}, {"type": "note_off", "time": 248, "note": 65, "velocity": 108, "channel": 0}, {"type": "note_on", "time": 14, "note": 61, "velocity": 99, "channel": 0}, {"type": "note_off", "time": 312, "note": 61, "velocity": 99, "channel": 0}, {"type": "note_on", "time": 21, "note": 63, "velocity": 112, "channel": 0}, {"type": "note_off", "time": 253, "note": 63, "velocity": 112, "channel": 0}, {"type": "note_on", "time": 14, "note": 65, "velocity": 108, "channel": 0}, {"type": "note_off", "time": 88, "note": 65, "velocity": 108, "channel": 0}, {"type": "note_on", "time": 7, "note": 67, "velocity": 121, "channel": 0}, {"type": "note_off", "time": 64, "note": 67, "velocity": 121, "channel": 0}, {"type": "note_on", "time": 5, "note": 68, "velocity": 100, "channel": 0}, {"type": "note_off", "time": 79, "note": 68, "velocity": 100, "channel": 0}, {"type": "note_on", "time": 17, "note": 70, "velocity": 98, "channel": 0}, {"type": "note_off", "time": 52, "note": 70, "velocity": 98, "channel": 0}, {"type": "note_on", "time": 41, "note": 72, "velocity": 107, "channel": 0}, {"type": "note_off", "time": 128, "note": 72, "velocity": 107, "channel": 0}, {"type": "note_on", "time": 7, "note": 70, "velocity": 111, "channel": 0}, {"type": "note_off", "time": 37, "note": 70, "velocity": 111, "channel": 0}, {"type": "note_on", "time": 0, "note": 73, "velocity": 106, "channel": 0}, {"type": "note_off", "time": 113, "note": 73, "velocity": 106, "channel": 0}, {"type": "note_on", "time": 14, "note": 70, "velocity": 104, "channel": 0}, {"type": "note_off", "time": 45, "note": 70, "velocity": 104, "channel": 0}, {"type": "note_on", "time": 27, "note": 74, "velocity": 97, "channel": 0}, {"type": "note_off", "time": 124, "note": 74, "velocity": 97, "channel": 0}, {"type": "note_on", "time": 6, "note": 71, "velocity": 100, "channel": 0}, {"type": "note_off", "time": 39, "note": 71, "velocity": 100, "channel": 0}, {"type": "note_on", "time": 28, "note": 75, "velocity": 100, "channel": 0}, {"type": "note_off", "time": 101, "note": 75, "velocity": 100, "channel": 0}, {"type": "note_on", "time": 10, "note": 73, "velocity": 117, "channel": 0}, {"type": "note_off", "time": 61, "note": 73, "velocity": 117, "channel": 0}, {"type": "note_on", "time": 5, "note": 72, "velocity": 119, "channel": 0}, {"type": "note_off", "time": 86, "note": 72, "velocity": 119, "channel": 0}, {"type": "note_on", "time": 12, "note": 70, "velocity": 112, "channel": 0}, {"type": "note_off", "time": 77, "note": 70, "velocity": 112, "channel": 0}, {"type": "note_on", "time": 9, "note": 68, "velocity": 97, "channel": 0}, {"type": "note_off", "time": 94, "note": 68, "velocity": 97, "channel": 0}, {"type": "note_on", "time": 14, "note": 65, "velocity": 111, "channel": 0}, {"type": "note_off", "time": 99, "note": 65, "velocity": 111, "channel": 0}, {"type": "note_on", "time": 7, "note": 63, "velocity": 115, "channel": 0}, {"type": "note_off", "time": 73, "note": 63, "velocity": 115, "channel": 0}, {"type": "note_on", "time": 10, "note": 61, "velocity": 110, "channel": 0}, {"type": "note_off", "time": 67, "note": 61, "velocity": 110, "channel": 0}, {"type": "note_on", "time": 8, "note": 60, "velocity": 104, "channel": 0}, {"type": "note_off", "time": 71, "note": 60, "velocity": 104, "channel": 0}, {"type": "note_on", "time": 59, "note": 58, "velocity": 102, "channel": 0}, {"type": "note_off", "time": 38, "note": 58, "velocity": 102, "channel": 0}, {"type": "note_on", "time": 5, "note": 63, "velocity": 117, "channel": 0}, {"type": "note_off", "time": 108, "note": 63, "velocity": 117, "channel": 0}, {"type": "note_on", "time": 7, "note": 59, "velocity": 108, "channel": 0}, {"type": "note_off", "time": 47, "note": 59, "velocity": 108, "channel": 0}, {"type": "note_on", "time": 30, "note": 62, "velocity": 115, "channel": 0}, {"type": "note_off", "time": 146, "note": 62, "velocity": 115, "channel": 0}, {"type": "note_on", "time": 18, "note": 60, "velocity": 117, "channel": 0}, {"type": "note_off", "time": 128, "note": 60, "velocity": 117, "channel": 0}, {"type": "note_on", "time": 23, "note": 52, "velocity": 109, "channel": 0}, {"type": "note_off", "time": 61, "note": 52, "velocity": 109, "channel": 0}, {"type": "note_on", "time": 14, "note": 55, "velocity": 103, "channel": 0}, {"type": "note_off", "time": 79, "note": 55, "velocity": 103, "channel": 0}, {"type": "note_on", "time": 17, "note": 60, "velocity": 106, "channel": 0}, {"type": "note_off", "time": 80, "note": 60, "velocity": 106, "channel": 0}, {"type": "note_on", "time": 8, "note": 59, "velocity": 107, "channel": 0}, {"type": "note_off", "time": 104, "note": 59, "velocity": 107, "channel": 0}, {"type": "note_on", "time": 19, "note": 50, "velocity": 111, "channel": 0}, {"type": "note_off", "time": 66, "note": 50, "velocity": 111, "channel": 0}, {"type": "note_on", "time": 7, "note": 55, "velocity": 112, "channel": 0}, {"type": "note_off", "time": 94, "note": 55, "velocity": 112, "channel": 0}, {"type": "note_on", "time": 4, "note": 59, "velocity": 121, "channel": 0}, {"type": "note_off", "time": 80, "note": 59, "velocity": 121, "channel": 0}, {"type": "note_on", "time": 9, "note": 57, "velocity": 115, "channel": 0}, {"type": "note_off", "time": 84, "note": 57, "velocity": 115, "channel": 0}, {"type": "note_on", "time": 12, "note": 52, "velocity": 110, "channel": 0}, {"type": "note_off", "time": 53, "note": 52, "velocity": 110, "channel": 0}, {"type": "note_on", "time": 135, "note": 57, "velocity": 105, "channel": 0}, {"type": "note_off", "time": 106, "note": 57, "velocity": 105, "channel": 0}, {"type": "note_on", "time": 13, "note": 55, "velocity": 106, "channel": 0}, {"type": "note_off", "time": 64, "note": 55, "velocity": 106, "channel": 0}, {"type": "note_on", "time": 16, "note": 61, "velocity": 124, "channel": 0}, {"type": "note_off", "time": 66, "note": 61, "velocity": 124, "channel": 0}, {"type": "note_on", "time": 6, "note": 59, "velocity": 124, "channel": 0}, {"type": "note_off", "time": 87, "note": 59, "velocity": 124, "channel": 0}, {"type": "note_on", "time": 10, "note": 57, "velocity": 120, "channel": 0}, {"type": "note_off", "time": 87, "note": 57, "velocity": 120, "channel": 0}, {"type": "note_on", "time": 3, "note": 55, "velocity": 113, "channel": 0}, {"type": "note_off", "time": 79, "note": 55, "velocity": 113, "channel": 0}, {"type": "note_on", "time": 10, "note": 53, "velocity": 99, "channel": 0}, {"type": "note_off", "time": 138, "note": 53, "velocity": 99, "channel": 0}, {"type": "note_on", "time": 10, "note": 52, "velocity": 109, "channel": 0}, {"type": "note_off", "time": 60, "note": 52, "velocity": 109, "channel": 0}, {"type": "note_on", "time": 4, "note": 50, "velocity": 107, "channel": 0}, {"type": "note_off", "time": 79, "note": 50, "velocity": 107, "channel": 0}, {"type": "note_on", "time": 7, "note": 49, "velocity": 99, "channel": 0}, {"type": "note_off", "time": 243, "note": 49, "velocity": 99, "channel": 0}, {"type": "note_on", "time": 326, "note": 53, "velocity": 92, "channel": 0}, {"type": "note_off", "time": 85, "note": 53, "velocity": 92, "channel": 0}, {"type": "note_on", "time": 6, "note": 50, "velocity": 107, "channel": 0}, {"type": "note_off", "time": 54, "note": 50, "velocity": 107, "channel": 0}, {"type": "note_on", "time": 21, "note": 55, "velocity": 110, "channel": 0}, {"type": "note_off", "time": 182, "note": 55, "velocity": 110, "channel": 0}, {"type": "note_on", "time": 14, "note": 57, "velocity": 103, "channel": 0}, {"type": "note_off", "time": 261, "note": 57, "velocity": 103, "channel": 0}, {"type": "note_on", "time": 10, "note": 59, "velocity": 121, "channel": 0}, {"type": "note_off", "time": 191, "note": 59, "velocity": 121, "channel": 0}, {"type": "note_on", "time": 8, "note": 55, "velocity": 99, "channel": 0}, {"type": "note_off", "time": 43, "note": 55, "velocity": 99, "channel": 0}, {"type": "note_on", "time": 37, "note": 60, "velocity": 108, "channel": 0}, {"type": "note_off", "time": 178, "note": 60, "velocity": 108, "channel": 0}, {"type": "note_on", "time": 7, "note": 62, "velocity": 115, "channel": 0}, {"type": "note_off", "time": 107, "note": 62, "velocity": 115, "channel": 0}, {"type": "note_on", "time": 9, "note": 64, "velocity": 112, "channel": 0}, {"type": "note_off", "time": 169, "note": 64, "velocity": 112, "channel": 0}, {"type": "note_on", "time": 26, "note": 57, "velocity": 116, "channel": 0}, {"type": "note_off", "time": 75, "note": 57, "velocity": 116, "channel": 0}, {"type": "note_on", "time": 18, "note": 65, "velocity": 125, "channel": 0}, {"type": "note_off", "time": 102, "note": 65, "velocity": 125, "channel": 0}, {"type": "note_on", "time": 8, "note": 65, "velocity": 113, "channel": 0}, {"type": "note_off", "time": 89, "note": 65, "velocity": 113, "channel": 0}, {"type": "note_on", "time": 14, "note": 64, "velocity": 115, "channel": 0}, {"type": "note_off", "time": 70, "note": 64, "velocity": 115, "channel": 0}, {"type": "note_on", "time": 6, "note": 63, "velocity": 106, "channel": 0}, {"type": "note_off", "time": 75, "note": 63, "velocity": 106, "channel": 0}, {"type": "note_on", "time": 12, "note": 62, "velocity": 107, "channel": 0}, {"type": "note_off", "time": 84, "note": 62, "velocity": 107, "channel": 0}, {"type": "note_on", "time": 9, "note": 60, "velocity": 113, "channel": 0}, {"type": "note_off", "time": 101, "note": 60, "velocity": 113, "channel": 0}, {"type": "note_on", "time": 8, "note": 59, "velocity": 113, "channel": 0}, {"type": "note_off", "time": 64, "note": 59, "velocity": 113, "channel": 0}, {"type": "note_on", "time": 10, "note": 60, "velocity": 119, "channel": 0}, {"type": "note_off", "time": 73, "note": 60, "velocity": 119, "channel": 0}, {"type": "note_on", "time": 14, "note": 62, "velocity": 116, "channel": 0}, {"type": "note_off", "time": 95, "note": 62, "velocity": 116, "channel": 0}, {"type": "note_on", "time": 8, "note": 65, "velocity": 124, "channel": 0}, {"type": "note_off", "time": 87, "note": 65, "velocity": 124, "channel": 0}, {"type": "note_on", "time": 6, "note": 64, "velocity": 98, "channel": 0}, {"type": "note_off", "time": 157, "note": 64, "velocity": 98, "channel": 0}, {"type": "note_on", "time": 23, "note": 57, "velocity": 114, "channel": 0}, {"type": "note_off", "time": 96, "note": 57, "velocity": 114, "channel": 0}, {"type": "note_on", "time": 9, "note": 53, "velocity": 117, "channel": 0}, {"type": "note_off", "time": 63, "note": 53, "velocity": 117, "channel": 0}, {"type": "note_on", "time": 12, "note": 52, "velocity": 110, "channel": 0}, {"type": "note_off", "time": 122, "note": 52, "velocity": 110, "channel": 0}, {"type": "note_on", "time": 539, "note": 55, "velocity": 108, "channel": 0}, {"type": "note_off", "time": 62, "note": 55, "velocity": 108, "channel": 0}, {"type": "note_on", "time": 11, "note": 52, "velocity": 112, "channel": 0}, {"type": "note_off", "time": 205, "note": 52, "velocity": 112, "channel": 0}, {"type": "note_on", "time": 5, "note": 53, "velocity": 99, "channel": 0}, {"type": "note_off", "time": 170, "note": 53, "velocity": 99, "channel": 0}, {"type": "note_on", "time": 11, "note": 55, "velocity": 108, "channel": 0}, {"type": "note_off", "time": 84, "note": 55, "velocity": 108, "channel": 0}, {"type": "note_on", "time": 10, "note": 57, "velocity": 113, "channel": 0}, {"type": "note_off", "time": 104, "note": 57, "velocity": 113, "channel": 0}, {"type": "note_on", "time": 7, "note": 59, "velocity": 110, "channel": 0}, {"type": "note_off", "time": 69, "note": 59, "velocity": 110, "channel": 0}, {"type": "note_on", "time": 8, "note": 60, "velocity": 93, "channel": 0}, {"type": "note_off", "time": 65, "note": 60, "velocity": 93, "channel": 0}, {"type": "note_on", "time": 10, "note": 62, "velocity": 106, "channel": 0}, {"type": "note_off", "time": 179, "note": 62, "velocity": 106, "channel": 0}, {"type": "note_on", "time": 5, "note": 64, "velocity": 119, "channel": 0}, {"type": "note_off", "time": 131, "note": 64, "velocity": 119, "channel": 0}, {"type": "note_on", "time": 12, "note": 65, "velocity": 108, "channel": 0}, {"type": "note_off", "time": 148, "note": 65, "velocity": 108, "channel": 0}, {"type": "note_on", "time": 7, "note": 67, "velocity": 105, "channel": 0}, {"type": "note_off", "time": 63, "note": 67, "velocity": 105, "channel": 0}, {"type": "note_on", "time": 34, "note": 72, "velocity": 115, "channel": 0}, {"type": "note_off", "time": 150, "note": 72, "velocity": 115, "channel": 0}, {"type": "note_on", "time": 41, "note": 76, "velocity": 117, "channel": 0}, {"type": "note_off", "time": 169, "note": 76, "velocity": 117, "channel": 0}, {"type": "note_on", "time": 7, "note": 76, "velocity": 115, "channel": 0}, {"type": "note_off", "time": 156, "note": 76, "velocity": 115, "channel": 0}, {"type": "note_on", "time": 11, "note": 72, "velocity": 82, "channel": 0}, {"type": "note_off", "time": 43, "note": 72, "velocity": 82, "channel": 0}, {"type": "note_on", "time": 208, "note": 76, "velocity": 116, "channel": 0}, {"type": "note_off", "time": 121, "note": 76, "velocity": 116, "channel": 0}, {"type": "note_on", "time": 54, "note": 76, "velocity": 115, "channel": 0}, {"type": "note_off", "time": 108, "note": 76, "velocity": 115, "channel": 0}, {"type": "note_on", "time": 12, "note": 76, "velocity": 123, "channel": 0}, {"type": "note_off", "time": 67, "note": 76, "velocity": 123, "channel": 0}, {"type": "note_on", "time": 14, "note": 72, "velocity": 99, "channel": 0}, {"type": "note_off", "time": 84, "note": 72, "velocity": 99, "channel": 0}, {"type": "note_on", "time": 12, "note": 69, "velocity": 88, "channel": 0}, {"type": "note_off", "time": 78, "note": 69, "velocity": 88, "channel": 0}, {"type": "note_on", "time": 22, "note": 67, "velocity": 85, "channel": 0}, {"type": "note_off", "time": 68, "note": 67, "velocity": 85, "channel": 0}, {"type": "note_on", "time": 15, "note": 72, "velocity": 111, "channel": 0}, {"type": "note_off", "time": 64, "note": 72, "velocity": 111, "channel": 0}, {"type": "note_on", "time": 17, "note": 75, "velocity": 119, "channel": 0}, {"type": "note_off", "time": 128, "note": 75, "velocity": 119, "channel": 0}, {"type": "note_on", "time": 14, "note": 72, "velocity": 109, "channel": 0}, {"type": "note_off", "time": 41, "note": 72, "velocity": 109, "channel": 0}, {"type": "note_on", "time": 7, "note": 74, "velocity": 114, "channel": 0}, {"type": "note_off", "time": 121, "note": 74, "velocity": 114, "channel": 0}, {"type": "note_on", "time": 14, "note": 69, "velocity": 82, "channel": 0}, {"type": "note_off", "time": 32, "note": 69, "velocity": 82, "channel": 0}, {"type": "note_on", "time": 23, "note": 72, "velocity": 112, "channel": 0}, {"type": "note_off", "time": 114, "note": 72, "velocity": 112, "channel": 0}, {"type": "note_on", "time": 27, "note": 67, "velocity": 110, "channel": 0}, {"type": "note_off", "time": 125, "note": 67, "velocity": 110, "channel": 0}, {"type": "note_on", "time": 46, "note": 64, "velocity": 94, "channel": 0}, {"type": "note_off", "time": 38, "note": 64, "velocity": 94, "channel": 0}, {"type": "note_on", "time": 11, "note": 66, "velocity": 108, "channel": 0}, {"type": "note_off", "time": 147, "note": 66, "velocity": 108, "channel": 0}, {"type": "note_on", "time": 36, "note": 65, "velocity": 107, "channel": 0}, {"type": "note_off", "time": 143, "note": 65, "velocity": 107, "channel": 0}, {"type": "note_on", "time": 172, "note": 63, "velocity": 105, "channel": 0}, {"type": "note_off", "time": 59, "note": 63, "velocity": 105, "channel": 0}, {"type": "note_on", "time": 9, "note": 62, "velocity": 105, "channel": 0}, {"type": "note_off", "time": 122, "note": 62, "velocity": 105, "channel": 0}, {"type": "note_on", "time": 14, "note": 57, "velocity": 49, "channel": 0}, {"type": "note_off", "time": 58, "note": 57, "velocity": 49, "channel": 0}, {"type": "note_on", "time": 15, "note": 60, "velocity": 122, "channel": 0}, {"type": "note_off", "time": 176, "note": 60, "velocity": 122, "channel": 0}, {"type": "note_on", "time": 106, "note": 59, "velocity": 125, "channel": 0}, {"type": "note_off", "time": 64, "note": 59, "velocity": 125, "channel": 0}, {"type": "note_on", "time": 7, "note": 58, "velocity": 115, "channel": 0}, {"type": "note_off", "time": 88, "note": 58, "velocity": 115, "channel": 0}, {"type": "note_on", "time": 12, "note": 55, "velocity": 114, "channel": 0}, {"type": "note_off", "time": 89, "note": 55, "velocity": 114, "channel": 0}, {"type": "note_on", "time": 7, "note": 53, "velocity": 104, "channel": 0}, {"type": "note_off", "time": 70, "note": 53, "velocity": 104, "channel": 0}, {"type": "note_on", "time": 430, "note": 50, "velocity": 112, "channel": 0}, {"type": "note_off", "time": 53, "note": 50, "velocity": 112, "channel": 0}, {"type": "note_on", "time": 7, "note": 48, "velocity": 112, "channel": 0}, {"type": "note_off", "time": 115, "note": 48, "velocity": 112, "channel": 0}, {"type": "note_on", "time": 3, "note": 51, "velocity": 119, "channel": 0}, {"type": "note_off", "time": 59, "note": 51, "velocity": 119, "channel": 0}, {"type": "note_on", "time": 6, "note": 53, "velocity": 111, "channel": 0}, {"type": "note_off", "time": 164, "note": 53, "velocity": 111, "channel": 0}, {"type": "note_on", "time": 23, "note": 55, "velocity": 106, "channel": 0}, {"type": "note_off", "time": 126, "note": 55, "velocity": 106, "channel": 0}, {"type": "note_on", "time": 54, "note": 56, "velocity": 114, "channel": 0}, {"type": "note_off", "time": 135, "note": 56, "velocity": 114, "channel": 0}, {"type": "note_on", "time": 73, "note": 58, "velocity": 125, "channel": 0}, {"type": "note_off", "time": 105, "note": 58, "velocity": 125, "channel": 0}, {"type": "note_on", "time": 13, "note": 60, "velocity": 121, "channel": 0}, {"type": "note_off", "time": 90, "note": 60, "velocity": 121, "channel": 0}, {"type": "note_on", "time": 6, "note": 61, "velocity": 110, "channel": 0}, {"type": "note_off", "time": 79, "note": 61, "velocity": 110, "channel": 0}, {"type": "note_on", "time": 6, "note": 57, "velocity": 104, "channel": 0}, {"type": "note_off", "time": 65, "note": 57, "velocity": 104, "channel": 0}, {"type": "note_on", "time": 11, "note": 61, "velocity": 110, "channel": 0}, {"type": "note_off", "time": 85, "note": 61, "velocity": 110, "channel": 0}, {"type": "note_on", "time": 16, "note": 65, "velocity": 117, "channel": 0}, {"type": "note_off", "time": 87, "note": 65, "velocity": 117, "channel": 0}, {"type": "note_on", "time": 12, "note": 63, "velocity": 98, "channel": 0}, {"type": "note_off", "time": 149, "note": 63, "velocity": 98, "channel": 0}, {"type": "note_on", "time": 18, "note": 63, "velocity": 117, "channel": 0}, {"type": "note_off", "time": 91, "note": 63, "velocity": 117, "channel": 0}, {"type": "note_on", "time": 19, "note": 67, "velocity": 127, "channel": 0}, {"type": "note_off", "time": 84, "note": 67, "velocity": 127, "channel": 0}, {"type": "note_on", "time": 4, "note": 65, "velocity": 118, "channel": 0}, {"type": "note_off", "time": 103, "note": 65, "velocity": 118, "channel": 0}, {"type": "note_on", "time": 81, "note": 65, "velocity": 98, "channel": 0}, {"type": "note_off", "time": 95, "note": 65, "velocity": 98, "channel": 0}, {"type": "note_on", "time": 17, "note": 64, "velocity": 118, "channel": 0}, {"type": "note_off", "time": 111, "note": 64, "velocity": 118, "channel": 0}, {"type": "note_on", "time": 23, "note": 63, "velocity": 92, "channel": 0}, {"type": "note_off", "time": 212, "note": 63, "velocity": 92, "channel": 0}, {"type": "note_on", "time": 79, "note": 63, "velocity": 106, "channel": 0}, {"type": "note_off", "time": 97, "note": 63, "velocity": 106, "channel": 0}, {"type": "note_on", "time": 37, "note": 55, "velocity": 101, "channel": 0}, {"type": "note_off", "time": 70, "note": 55, "velocity": 101, "channel": 0}, {"type": "note_on", "time": 26, "note": 58, "velocity": 125, "channel": 0}, {"type": "note_off", "time": 76, "note": 58, "velocity": 125, "channel": 0}, {"type": "note_on", "time": 12, "note": 63, "velocity": 109, "channel": 0}, {"type": "note_off", "time": 45, "note": 63, "velocity": 109, "channel": 0}, {"type": "note_on", "time": 9, "note": 62, "velocity": 115, "channel": 0}, {"type": "note_off", "time": 100, "note": 62, "velocity": 115, "channel": 0}, {"type": "note_on", "time": 24, "note": 53, "velocity": 114, "channel": 0}, {"type": "note_off", "time": 50, "note": 53, "velocity": 114, "channel": 0}, {"type": "note_on", "time": 54, "note": 57, "velocity": 100, "channel": 0}, {"type": "note_off", "time": 50, "note": 57, "velocity": 100, "channel": 0}, {"type": "note_on", "time": 30, "note": 62, "velocity": 116, "channel": 0}, {"type": "note_off", "time": 63, "note": 62, "velocity": 116, "channel": 0}, {"type": "note_on", "time": 16, "note": 61, "velocity": 107, "channel": 0}, {"type": "note_off", "time": 103, "note": 61, "velocity": 107, "channel": 0}, {"type": "note_on", "time": 17, "note": 53, "velocity": 101, "channel": 0}, {"type": "note_off", "time": 51, "note": 53, "velocity": 101, "channel": 0}, {"type": "note_on", "time": 35, "note": 56, "velocity": 106, "channel": 0}, {"type": "note_off", "time": 34, "note": 56, "velocity": 106, "channel": 0}, {"type": "note_on", "time": 23, "note": 61, "velocity": 113, "channel": 0}, {"type": "note_off", "time": 64, "note": 61, "velocity": 113, "channel": 0}, {"type": "note_on", "time": 5, "note": 55, "velocity": 109, "channel": 0}, {"type": "note_off", "time": 90, "note": 55, "velocity": 109, "channel": 0}, {"type": "note_on", "time": 31, "note": 63, "velocity": 119, "channel": 0}, {"type": "note_off", "time": 63, "note": 63, "velocity": 119, "channel": 0}, {"type": "note_on", "time": 9, "note": 61, "velocity": 123, "channel": 0}, {"type": "note_off", "time": 67, "note": 61, "velocity": 123, "channel": 0}, {"type": "note_on", "time": 9, "note": 57, "velocity": 118, "channel": 0}, {"type": "note_off", "time": 63, "note": 57, "velocity": 118, "channel": 0}, {"type": "note_on", "time": 36, "note": 60, "velocity": 119, "channel": 0}, {"type": "note_off", "time": 93, "note": 60, "velocity": 119, "channel": 0}, {"type": "note_on", "time": 6, "note": 61, "velocity": 104, "channel": 0}, {"type": "note_off", "time": 178, "note": 61, "velocity": 104, "channel": 0}, {"type": "note_on", "time": 106, "note": 70, "velocity": 120, "channel": 0}, {"type": "note_off", "time": 56, "note": 70, "velocity": 120, "channel": 0}, {"type": "note_on", "time": 15, "note": 71, "velocity": 120, "channel": 0}, {"type": "note_off", "time": 65, "note": 71, "velocity": 120, "channel": 0}, {"type": "note_on", "time": 30, "note": 70, "velocity": 112, "channel": 0}, {"type": "note_off", "time": 68, "note": 70, "velocity": 112, "channel": 0}, {"type": "note_on", "time": 9, "note": 71, "velocity": 120, "channel": 0}, {"type": "note_off", "time": 91, "note": 71, "velocity": 120, "channel": 0}, {"type": "note_on", "time": 29, "note": 67, "velocity": 115, "channel": 0}, {"type": "note_off", "time": 73, "note": 67, "velocity": 115, "channel": 0}, {"type": "note_on", "time": 23, "note": 62, "velocity": 109, "channel": 0}, {"type": "note_off", "time": 70, "note": 62, "velocity": 109, "channel": 0}, {"type": "note_on", "time": 42, "note": 64, "velocity": 113, "channel": 0}, {"type": "note_off", "time": 114, "note": 64, "velocity": 113, "channel": 0}, {"type": "note_on", "time": 52, "note": 64, "velocity": 119, "channel": 0}, {"type": "note_off", "time": 129, "note": 64, "velocity": 119, "channel": 0}, {"type": "note_on", "time": 57, "note": 62, "velocity": 107, "channel": 0}, {"type": "note_off", "time": 91, "note": 62, "velocity": 107, "channel": 0}, {"type": "note_on", "time": 14, "note": 61, "velocity": 117, "channel": 0}, {"type": "note_off", "time": 70, "note": 61, "velocity": 117, "channel": 0}, {"type": "note_on", "time": 10, "note": 59, "velocity": 121, "channel": 0}, {"type": "note_off", "time": 119, "note": 59, "velocity": 121, "channel": 0}, {"type": "note_on", "time": 14, "note": 57, "velocity": 115, "channel": 0}, {"type": "note_off", "time": 50, "note": 57, "velocity": 115, "channel": 0}, {"type": "note_on", "time": 10, "note": 55, "velocity": 110, "channel": 0}, {"type": "note_off", "time": 75, "note": 55, "velocity": 110, "channel": 0}, {"type": "note_on", "time": 5, "note": 53, "velocity": 110, "channel": 0}, {"type": "note_off", "time": 93, "note": 53, "velocity": 110, "channel": 0}, {"type": "note_on", "time": 10, "note": 52, "velocity": 103, "channel": 0}, {"type": "note_off", "time": 61, "note": 52, "velocity": 103, "channel": 0}, {"type": "note_on", "time": 12, "note": 50, "velocity": 114, "channel": 0}, {"type": "note_off", "time": 112, "note": 50, "velocity": 114, "channel": 0}, {"type": "note_on", "time": 8, "note": 49, "velocity": 109, "channel": 0}, {"type": "note_off", "time": 147, "note": 49, "velocity": 109, "channel": 0}, {"type": "note_on", "time": 6, "note": 50, "velocity": 111, "channel": 0}, {"type": "note_off", "time": 111, "note": 50, "velocity": 111, "channel": 0}, {"type": "note_on", "time": 16, "note": 52, "velocity": 98, "channel": 0}, {"type": "note_off", "time": 81, "note": 52, "velocity": 98, "channel": 0}, {"type": "note_on", "time": 68, "note": 55, "velocity": 105, "channel": 0}, {"type": "note_off", "time": 64, "note": 55, "velocity": 105, "channel": 0}, {"type": "note_on", "time": 35, "note": 52, "velocity": 100, "channel": 0}, {"type": "note_off", "time": 292, "note": 52, "velocity": 100, "channel": 0}, {"type": "note_on", "time": 9, "note": 57, "velocity": 115, "channel": 0}, {"type": "note_off", "time": 205, "note": 57, "velocity": 115, "channel": 0}, {"type": "note_on", "time": 58, "note": 59, "velocity": 120, "channel": 0}, {"type": "note_off", "time": 292, "note": 59, "velocity": 120, "channel": 0}, {"type": "note_on", "time": 8, "note": 60, "velocity": 125, "channel": 0}, {"type": "note_off", "time": 240, "note": 60, "velocity": 125, "channel": 0}, {"type": "note_on", "time": 15, "note": 62, "velocity": 112, "channel": 0}, {"type": "note_off", "time": 229, "note": 62, "velocity": 112, "channel": 0}, {"type": "note_on", "time": 14, "note": 60, "velocity": 110, "channel": 0}, {"type": "note_off", "time": 58, "note": 60, "velocity": 110, "channel": 0}, {"type": "note_on", "time": 9, "note": 64, "velocity": 114, "channel": 0}, {"type": "note_off", "time": 183, "note": 64, "velocity": 114, "channel": 0}, {"type": "note_on", "time": 5, "note": 62, "velocity": 99, "channel": 0}, {"type": "note_off", "time": 36, "note": 62, "velocity": 99, "channel": 0}, {"type": "note_on", "time": 32, "note": 65, "velocity": 118, "channel": 0}, {"type": "note_off", "time": 234, "note": 65, "velocity": 118, "channel": 0}, {"type": "note_on", "time": 37, "note": 62, "velocity": 109, "channel": 0}, {"type": "note_off", "time": 234, "note": 62, "velocity": 109, "channel": 0}, {"type": "note_on", "time": 27, "note": 64, "velocity": 108, "channel": 0}, {"type": "note_off", "time": 273, "note": 64, "velocity": 108, "channel": 0}, {"type": "note_on", "time": 34, "note": 60, "velocity": 107, "channel": 0}, {"type": "note_off", "time": 247, "note": 60, "velocity": 107, "channel": 0}, {"type": "note_on", "time": 25, "note": 62, "velocity": 101, "channel": 0}, {"type": "note_off", "time": 268, "note": 62, "velocity": 101, "channel": 0}, {"type": "note_on", "time": 29, "note": 59, "velocity": 108, "channel": 0}, {"type": "note_off", "time": 256, "note": 59, "velocity": 108, "channel": 0}, {"type": "note_on", "time": 0, "note": 60, "velocity": 108, "channel": 0}, {"type": "note_off", "time": 206, "note": 60, "velocity": 108, "channel": 0}, {"type": "note_on", "time": 8, "note": 59, "velocity": 108, "channel": 0}, {"type": "note_off", "time": 93, "note": 59, "velocity": 108, "channel": 0}, {"type": "note_on", "time": 9, "note": 57, "velocity": 94, "channel": 0}, {"type": "note_off", "time": 472, "note": 57, "velocity": 94, "channel": 0}, {"type": "note_on", "time": 3, "note": 59, "velocity": 108, "channel": 0}, {"type": "note_off", "time": 131, "note": 59, "velocity": 108, "channel": 0}, {"type": "note_on", "time": 43, "note": 60, "velocity": 99, "channel": 0}, {"type": "note_off", "time": 50, "note": 60, "velocity": 99, "channel": 0}, {"type": "note_on", "time": 165, "note": 62, "velocity": 82, "channel": 0}, {"type": "note_off", "time": 1194, "note": 62, "velocity": 82, "channel": 0}, {"type": "end_of_track", "time": 0}]]}