{"ticks_per_beat": 840, "tracks": [[{"type": "track_name", "name": "Melody", "time": 0}, {"type": "set_tempo", "tempo": 337078, "time": 0}, {"type": "key_signature", "key": "E", "time": 0}, {"type": "time_signature", "numerator": 3, "denominator": 4, "clocks_per_click": 24, "notated_32nd_notes_per_beat": 8, "time": 0}, {"type": "note_on", "time": 11727, "note": 75, "velocity": 127, "channel": 0}, {"type": "note_off", "time": 238, "note": 75, "velocity": 127, "channel": 0}, {"type": "note_on", "time": 36, "note": 71, "velocity": 118, "channel": 0}, {"type": "note_off", "time": 166, "note": 71, "velocity": 118, "channel": 0}, {"type": "note_on", "time": 1272, "note": 71, "velocity": 114, "channel": 0}, {"type": "note_off", "time": 209, "note": 71, "velocity": 114, "channel": 0}, {"type": "note_on", "time": 68, "note": 80, "velocity": 116, "channel": 0}, {"type": "note_off", "time": 242, "note": 80, "velocity": 116, "channel": 0}, {"type": "note_on", "time": 1301, "note": 83, "velocity": 99, "channel": 0}, {"type": "note_off", "time": 220, "note": 83, "velocity": 99, "channel": 0}, {"type": "note_on", "time": 39, "note": 78, "velocity": 118, "channel": 0}, {"type": "note_off", "time": 249, "note": 78, "velocity": 118, "channel": 0}, {"type": "note_on", "time": 79, "note": 83, "velocity": 108, "channel": 0}, {"type": "note_off", "time": 130, "note": 83, "velocity": 108, "channel": 0}, {"type": "note_on", "time": 90, "note": 80, "velocity": 121, "channel": 0}, {"type": "note_off", "time": 253, "note": 80, "velocity": 121, "channel": 0}, {"type": "note_on", "time": 75, "note": 78, "velocity": 117, "channel": 0}, {"type": "note_off", "time": 242, "note": 78, "velocity": 117, "channel": 0}, {"type": "note_on", "time": 47, "note": 83, "velocity": 111, "channel": 0}, {"type": "note_off", "time": 285, "note": 83, "velocity": 111, "channel": 0}, {"type": "note_on", "time": 79, "note": 75, "velocity": 116, "channel": 0}, {"type": "note_off", "time": 278, "note": 75, "velocity": 116, "channel": 0}, {"type": "note_on", "time": 86, "note": 68, "velocity": 95, "channel": 0}, {"type": "note_off", "time": 90, "note": 68, "velocity": 95, "channel": 0}, {"type": "note_on", "time": 1037, "note": 83, "velocity": 107, "channel": 0}, {"type": "note_off", "time": 242, "note": 83, "velocity": 107, "channel": 0}, {"type": "note_on", "time": 32, "note": 73, "velocity": 118, "channel": 0}, {"type": "note_off", "time": 336, "note": 73, "velocity": 118, "channel": 0}, {"type": "note_on", "time": 1121, "note": 83, "velocity": 111, "channel": 0}, {"type": "note_off", "time": 195, "note": 83, "velocity": 111, "channel": 0}, {"type": "note_on", "time": 72, "note": 75, "velocity": 121, "channel": 0}, {"type": "note_off", "time": 206, "note": 75, "velocity": 121, "channel": 0}, {"type": "note_on", "time": 173, "note": 83, "velocity": 101, "channel": 0}, {"type": "note_off", "time": 130, "note": 83, "velocity": 101, "channel": 0}, {"type": "note_on", "time": 39, "note": 78, "velocity": 107, "channel": 0}, {"type": "note_off", "time": 256, "note": 78, "velocity": 107, "channel": 0}, {"type": "note_on", "time": 94, "note": 83, "velocity": 106, "channel": 0}, {"type": "note_off", "time": 180, "note": 83, "velocity": 106, "channel": 0}, {"type": "note_on", "time": 47, "note": 75, "velocity": 116, "channel": 0}, {"type": "note_off", "time": 242, "note": 75, "velocity": 116, "channel": 0}, {"type": "note_on", "time": 61, "note": 83, "velocity": 107, "channel": 0}, {"type": "note_off", "time": 202, "note": 83, "velocity": 107, "channel": 0}, {"type": "note_on", "time": 72, "note": 73, "velocity": 114, "channel": 0}, {"type": "note_off", "time": 195, "note": 73, "velocity": 114, "channel": 0}, {"type": "note_on", "time": 83, "note": 78, "velocity": 113, "channel": 0}, {"type": "note_off", "time": 195, "note": 78, "velocity": 113, "channel": 0}, {"type": "note_on", "time": 47, "note": 75, "velocity": 114, "channel": 0}, {"type": "note_off", "time": 267, "note": 75, "velocity": 114, "channel": 0}, {"type": "note_on", "time": 1403, "note": 83, "velocity": 108, "channel": 0}, {"type": "note_off", "time": 278, "note": 83, "velocity": 108, "channel": 0}, {"type": "note_on", "time": 101, "note": 75, "velocity": 115, "channel": 0}, {"type": "note_off", "time": 202, "note": 75, "velocity": 115, "channel": 0}, {"type": "note_on", "time": 50, "note": 71, "velocity": 103, "channel": 0}, {"type": "note_off", "time": 188, "note": 71, "velocity": 103, "channel": 0}, {"type": "note_on", "time": 108, "note": 66, "velocity": 107, "channel": 0}, {"type": "note_off", "time": 119, "note": 66, "velocity": 107, "channel": 0}, {"type": "note_on", "time": 65, "note": 71, "velocity": 103, "channel": 0}, {"type": "note_off", "time": 267, "note": 71, "velocity": 103, "channel": 0}, {"type": "note_on", "time": 1203, "note": 71, "velocity": 105, "channel": 0}, {"type": "note_off", "time": 310, "note": 71, "velocity": 105, "channel": 0}, {"type": "note_on", "time": 55, "note": 68, "velocity": 106, "channel": 0}, {"type": "note_off", "time": 188, "note": 68, "velocity": 106, "channel": 0}, {"type": "note_on", "time": 55, "note": 71, "velocity": 109, "channel": 0}, {"type": "note_off", "time": 228, "note": 71, "velocity": 109, "channel": 0}, {"type": "note_on", "time": 76, "note": 63, "velocity": 111, "channel": 0}, {"type": "note_off", "time": 325, "note": 63, "velocity": 111, "channel": 0}, {"type": "note_on", "time": 1269, "note": 83, "velocity": 101, "channel": 0}, {"type": "note_off", "time": 141, "note": 83, "velocity": 101, "channel": 0}, {"type": "note_on", "time": 43, "note": 85, "velocity": 98, "channel": 0}, {"type": "note_off", "time": 2231, "note": 85, "velocity": 98, "channel": 0}, {"type": "note_on", "time": 68, "note": 83, "velocity": 102, "channel": 0}, {"type": "note_off", "time": 155, "note": 83, "velocity": 102, "channel": 0}, {"type": "note_on", "time": 267, "note": 85, "velocity": 100, "channel": 0}, {"type": "note_off", "time": 260, "note": 85, "velocity": 100, "channel": 0}, {"type": "note_on", "time": 50, "note": 83, "velocity": 98, "channel": 0}, {"type": "note_off", "time": 144, "note": 83, "velocity": 98, "channel": 0}, {"type": "note_on", "time": 65, "note": 85, "velocity": 102, "channel": 0}, {"type": "note_off", "time": 274, "note": 85, "velocity": 102, "channel": 0}, {"type": "note_on", "time": 50, "note": 83, "velocity": 105, "channel": 0}, {"type": "note_off", "time": 180, "note": 83, "velocity": 105, "channel": 0}, {"type": "note_on", "time": 101, "note": 78, "velocity": 111, "channel": 0}, {"type": "note_off", "time": 188, "note": 78, "velocity": 111, "channel": 0}, {"type": "note_on", "time": 166, "note": 83, "velocity": 104, "channel": 0}, {"type": "note_off", "time": 126, "note": 83, "velocity": 104, "channel": 0}, {"type": "note_on", "time": 65, "note": 80, "velocity": 109, "channel": 0}, {"type": "note_off", "time": 202, "note": 80, "velocity": 109, "channel": 0}, {"type": "note_on", "time": 54, "note": 75, "velocity": 114, "channel": 0}, {"type": "note_off", "time": 206, "note": 75, "velocity": 114, "channel": 0}, {"type": "note_on", "time": 28, "note": 80, "velocity": 113, "channel": 0}, {"type": "note_off", "time": 264, "note": 80, "velocity": 113, "channel": 0}, {"type": "note_on", "time": 25, "note": 78, "velocity": 114, "channel": 0}, {"type": "note_off", "time": 184, "note": 78, "velocity": 114, "channel": 0}, {"type": "note_on", "time": 65, "note": 73, "velocity": 112, "channel": 0}, {"type": "note_off", "time": 209, "note": 73, "velocity": 112, "channel": 0}, {"type": "note_on", "time": 83, "note": 78, "velocity": 110, "channel": 0}, {"type": "note_off", "time": 220, "note": 78, "velocity": 110, "channel": 0}, {"type": "note_on", "time": 50, "note": 75, "velocity": 118, "channel": 0}, {"type": "note_off", "time": 180, "note": 75, "velocity": 118, "channel": 0}, {"type": "note_on", "time": 50, "note": 71, "velocity": 103, "channel": 0}, {"type": "note_off", "time": 148, "note": 71, "velocity": 103, "channel": 0}, {"type": "note_on", "time": 108, "note": 75, "velocity": 117, "channel": 0}, {"type": "note_off", "time": 173, "note": 75, "velocity": 117, "channel": 0}, {"type": "note_on", "time": 54, "note": 71, "velocity": 103, "channel": 0}, {"type": "note_off", "time": 282, "note": 71, "velocity": 103, "channel": 0}, {"type": "note_on", "time": 83, "note": 73, "velocity": 116, "channel": 0}, {"type": "note_off", "time": 231, "note": 73, "velocity": 116, "channel": 0}, {"type": "note_on", "time": 65, "note": 71, "velocity": 104, "channel": 0}, {"type": "note_off", "time": 224, "note": 71, "velocity": 104, "channel": 0}, {"type": "note_on", "time": 105, "note": 66, "velocity": 98, "channel": 0}, {"type": "note_off", "time": 1123, "note": 66, "velocity": 98, "channel": 0}, {"type": "note_on", "time": 133, "note": 71, "velocity": 107, "channel": 0}, {"type": "note_off", "time": 249, "note": 71, "velocity": 107, "channel": 0}, {"type": "note_on", "time": 65, "note": 68, "velocity": 106, "channel": 0}, {"type": "note_off", "time": 188, "note": 68, "velocity": 106, "channel": 0}, {"type": "note_on", "time": 50, "note": 71, "velocity": 103, "channel": 0}, {"type": "note_off", "time": 227, "note": 71, "velocity": 103, "channel": 0}, {"type": "note_on", "time": 65, "note": 68, "velocity": 104, "channel": 0}, {"type": "note_off", "time": 238, "note": 68, "velocity": 104, "channel": 0}, {"type": "note_on", "time": 188, "note": 63, "velocity": 112, "channel": 0}, {"type": "note_off", "time": 260, "note": 63, "velocity": 112, "channel": 0}, {"type": "note_on", "time": 72, "note": 66, "velocity": 109, "channel": 0}, {"type": "note_off", "time": 172, "note": 66, "velocity": 109, "channel": 0}, {"type": "note_on", "time": 0, "note": 63, "velocity": 111, "channel": 0}, {"type": "note_off", "time": 122, "note": 63, "velocity": 111, "channel": 0}, {"type": "note_on", "time": 12, "note": 66, "velocity": 101, "channel": 0}, {"type": "note_off", "time": 1623, "note": 66, "velocity": 101, "channel": 0}, {"type": "note_on", "time": 57, "note": 63, "velocity": 106, "channel": 0}, {"type": "note_off", "time": 177, "note": 63, "velocity": 106, "channel": 0}, {"type": "note_on", "time": 39, "note": 66, "velocity": 101, "channel": 0}, {"type": "note_off", "time": 177, "note": 66, "velocity": 101, "channel": 0}, {"type": "note_on", "time": 97, "note": 73, "velocity": 116, "channel": 0}, {"type": "note_off", "time": 202, "note": 73, "velocity": 116, "channel": 0}, {"type": "note_on", "time": 57, "note": 71, "velocity": 105, "channel": 0}, {"type": "note_off", "time": 159, "note": 71, "velocity": 105, "channel": 0}, {"type": "note_on", "time": 83, "note": 66, "velocity": 103, "channel": 0}, {"type": "note_off", "time": 390, "note": 66, "velocity": 103, "channel": 0}, {"type": "note_on", "time": 969, "note": 75, "velocity": 118, "channel": 0}, {"type": "note_off", "time": 235, "note": 75, "velocity": 118, "channel": 0}, {"type": "note_on", "time": 50, "note": 71, "velocity": 105, "channel": 0}, {"type": "note_off", "time": 235, "note": 71, "velocity": 105, "channel": 0}, {"type": "note_on", "time": 28, "note": 73, "velocity": 117, "channel": 0}, {"type": "note_off", "time": 231, "note": 73, "velocity": 117, "channel": 0}, {"type": "note_on", "time": 108, "note": 71, "velocity": 99, "channel": 0}, {"type": "note_off", "time": 209, "note": 71, "velocity": 99, "channel": 0}, {"type": "note_on", "time": 65, "note": 75, "velocity": 118, "channel": 0}, {"type": "note_off", "time": 343, "note": 75, "velocity": 118, "channel": 0}, {"type": "note_on", "time": 1077, "note": 82, "velocity": 112, "channel": 0}, {"type": "note_off", "time": 209, "note": 82, "velocity": 112, "channel": 0}, {"type": "note_on", "time": 108, "note": 75, "velocity": 119, "channel": 0}, {"type": "note_off", "time": 195, "note": 75, "velocity": 119, "channel": 0}, {"type": "note_on", "time": 90, "note": 82, "velocity": 99, "channel": 0}, {"type": "note_off", "time": 155, "note": 82, "velocity": 99, "channel": 0}, {"type": "note_on", "time": 54, "note": 76, "velocity": 120, "channel": 0}, {"type": "note_off", "time": 242, "note": 76, "velocity": 120, "channel": 0}, {"type": "note_on", "time": 39, "note": 78, "velocity": 108, "channel": 0}, {"type": "note_off", "time": 213, "note": 78, "velocity": 108, "channel": 0}, {"type": "note_on", "time": 1135, "note": 83, "velocity": 99, "channel": 0}, {"type": "note_off", "time": 2430, "note": 83, "velocity": 99, "channel": 0}, {"type": "note_on", "time": 50, "note": 80, "velocity": 109, "channel": 0}, {"type": "note_off", "time": 206, "note": 80, "velocity": 109, "channel": 0}, {"type": "note_on", "time": 47, "note": 83, "velocity": 103, "channel": 0}, {"type": "note_off", "time": 213, "note": 83, "velocity": 103, "channel": 0}, {"type": "note_on", "time": 90, "note": 78, "velocity": 107, "channel": 0}, {"type": "note_off", "time": 213, "note": 78, "velocity": 107, "channel": 0}, {"type": "note_on", "time": 79, "note": 83, "velocity": 109, "channel": 0}, {"type": "note_off", "time": 159, "note": 83, "velocity": 109, "channel": 0}, {"type": "note_on", "time": 72, "note": 76, "velocity": 113, "channel": 0}, {"type": "note_off", "time": 162, "note": 76, "velocity": 113, "channel": 0}, {"type": "note_on", "time": 122, "note": 83, "velocity": 109, "channel": 0}, {"type": "note_off", "time": 130, "note": 83, "velocity": 109, "channel": 0}, {"type": "note_on", "time": 122, "note": 75, "velocity": 118, "channel": 0}, {"type": "note_off", "time": 169, "note": 75, "velocity": 118, "channel": 0}, {"type": "note_on", "time": 97, "note": 83, "velocity": 99, "channel": 0}, {"type": "note_off", "time": 130, "note": 83, "velocity": 99, "channel": 0}, {"type": "note_on", "time": 133, "note": 73, "velocity": 115, "channel": 0}, {"type": "note_off", "time": 231, "note": 73, "velocity": 115, "channel": 0}, {"type": "note_on", "time": 104, "note": 83, "velocity": 106, "channel": 0}, {"type": "note_off", "time": 126, "note": 83, "velocity": 106, "channel": 0}, {"type": "note_on", "time": 57, "note": 75, "velocity": 117, "channel": 0}, {"type": "note_off", "time": 274, "note": 75, "velocity": 117, "channel": 0}, {"type": "note_on", "time": 104, "note": 83, "velocity": 111, "channel": 0}, {"type": "note_off", "time": 151, "note": 83, "velocity": 111, "channel": 0}, {"type": "note_on", "time": 97, "note": 76, "velocity": 115, "channel": 0}, {"type": "note_off", "time": 180, "note": 76, "velocity": 115, "channel": 0}, {"type": "note_on", "time": 169, "note": 83, "velocity": 108, "channel": 0}, {"type": "note_off", "time": 119, "note": 83, "velocity": 108, "channel": 0}, {"type": "note_on", "time": 79, "note": 78, "velocity": 111, "channel": 0}, {"type": "note_off", "time": 235, "note": 78, "velocity": 111, "channel": 0}, {"type": "note_on", "time": 97, "note": 83, "velocity": 98, "channel": 0}, {"type": "note_off", "time": 155, "note": 83, "velocity": 98, "channel": 0}, {"type": "note_on", "time": 97, "note": 80, "velocity": 109, "channel": 0}, {"type": "note_off", "time": 213, "note": 80, "velocity": 109, "channel": 0}, {"type": "note_on", "time": 155, "note": 83, "velocity": 102, "channel": 0}, {"type": "note_off", "time": 162, "note": 83, "velocity": 102, "channel": 0}, {"type": "note_on", "time": 86, "note": 78, "velocity": 108, "channel": 0}, {"type": "note_off", "time": 166, "note": 78, "velocity": 108, "channel": 0}, {"type": "note_on", "time": 122, "note": 83, "velocity": 102, "channel": 0}, {"type": "note_off", "time": 162, "note": 83, "velocity": 102, "channel": 0}, {"type": "note_on", "time": 122, "note": 78, "velocity": 116, "channel": 0}, {"type": "note_off", "time": 159, "note": 78, "velocity": 116, "channel": 0}, {"type": "note_on", "time": 115, "note": 83, "velocity": 107, "channel": 0}, {"type": "note_off", "time": 115, "note": 83, "velocity": 107, "channel": 0}, {"type": "note_on", "time": 79, "note": 76, "velocity": 119, "channel": 0}, {"type": "note_off", "time": 177, "note": 76, "velocity": 119, "channel": 0}, {"type": "note_on", "time": 115, "note": 83, "velocity": 99, "channel": 0}, {"type": "note_off", "time": 133, "note": 83, "velocity": 99, "channel": 0}, {"type": "note_on", "time": 79, "note": 75, "velocity": 122, "channel": 0}, {"type": "note_off", "time": 162, "note": 75, "velocity": 122, "channel": 0}, {"type": "note_on", "time": 97, "note": 83, "velocity": 113, "channel": 0}, {"type": "note_off", "time": 133, "note": 83, "velocity": 113, "channel": 0}, {"type": "note_on", "time": 83, "note": 73, "velocity": 115, "channel": 0}, {"type": "note_off", "time": 137, "note": 73, "velocity": 115, "channel": 0}, {"type": "note_on", "time": 101, "note": 83, "velocity": 112, "channel": 0}, {"type": "note_off", "time": 141, "note": 83, "velocity": 112, "channel": 0}, {"type": "note_on", "time": 90, "note": 75, "velocity": 117, "channel": 0}, {"type": "note_off", "time": 162, "note": 75, "velocity": 117, "channel": 0}, {"type": "note_on", "time": 72, "note": 83, "velocity": 111, "channel": 0}, {"type": "note_off", "time": 155, "note": 83, "velocity": 111, "channel": 0}, {"type": "note_on", "time": 65, "note": 76, "velocity": 115, "channel": 0}, {"type": "note_off", "time": 144, "note": 76, "velocity": 115, "channel": 0}, {"type": "note_on", "time": 57, "note": 83, "velocity": 112, "channel": 0}, {"type": "note_off", "time": 191, "note": 83, "velocity": 112, "channel": 0}, {"type": "note_on", "time": 57, "note": 78, "velocity": 119, "channel": 0}, {"type": "note_off", "time": 195, "note": 78, "velocity": 119, "channel": 0}, {"type": "note_on", "time": 73, "note": 71, "velocity": 92, "channel": 0}, {"type": "note_off", "time": 162, "note": 71, "velocity": 92, "channel": 0}, {"type": "note_on", "time": 67, "note": 80, "velocity": 117, "channel": 0}, {"type": "note_off", "time": 180, "note": 80, "velocity": 117, "channel": 0}, {"type": "note_on", "time": 47, "note": 83, "velocity": 113, "channel": 0}, {"type": "note_off", "time": 180, "note": 83, "velocity": 113, "channel": 0}, {"type": "note_on", "time": 32, "note": 78, "velocity": 114, "channel": 0}, {"type": "note_off", "time": 188, "note": 78, "velocity": 114, "channel": 0}, {"type": "note_on", "time": 54, "note": 83, "velocity": 90, "channel": 0}, {"type": "note_off", "time": 148, "note": 83, "velocity": 90, "channel": 0}, {"type": "note_on", "time": 65, "note": 78, "velocity": 114, "channel": 0}, {"type": "note_off", "time": 151, "note": 78, "velocity": 114, "channel": 0}, {"type": "note_on", "time": 43, "note": 83, "velocity": 105, "channel": 0}, {"type": "note_off", "time": 133, "note": 83, "velocity": 105, "channel": 0}, {"type": "note_on", "time": 47, "note": 76, "velocity": 116, "channel": 0}, {"type": "note_off", "time": 137, "note": 76, "velocity": 116, "channel": 0}, {"type": "note_on", "time": 54, "note": 83, "velocity": 104, "channel": 0}, {"type": "note_off", "time": 101, "note": 83, "velocity": 104, "channel": 0}, {"type": "note_on", "time": 86, "note": 75, "velocity": 115, "channel": 0}, {"type": "note_off", "time": 177, "note": 75, "velocity": 115, "channel": 0}, {"type": "note_on", "time": 65, "note": 83, "velocity": 98, "channel": 0}, {"type": "note_off", "time": 108, "note": 83, "velocity": 98, "channel": 0}, {"type": "note_on", "time": 94, "note": 73, "velocity": 111, "channel": 0}, {"type": "note_off", "time": 133, "note": 73, "velocity": 111, "channel": 0}, {"type": "note_on", "time": 65, "note": 83, "velocity": 100, "channel": 0}, {"type": "note_off", "time": 126, "note": 83, "velocity": 100, "channel": 0}, {"type": "note_on", "time": 65, "note": 75, "velocity": 118, "channel": 0}, {"type": "note_off", "time": 220, "note": 75, "velocity": 118, "channel": 0}, {"type": "note_on", "time": 43, "note": 83, "velocity": 107, "channel": 0}, {"type": "note_off", "time": 122, "note": 83, "velocity": 107, "channel": 0}, {"type": "note_on", "time": 57, "note": 75, "velocity": 118, "channel": 0}, {"type": "note_off", "time": 166, "note": 75, "velocity": 118, "channel": 0}, {"type": "note_on", "time": 36, "note": 83, "velocity": 108, "channel": 0}, {"type": "note_off", "time": 133, "note": 83, "velocity": 108, "channel": 0}, {"type": "note_on", "time": 47, "note": 76, "velocity": 115, "channel": 0}, {"type": "note_off", "time": 235, "note": 76, "velocity": 115, "channel": 0}, {"type": "note_on", "time": 18, "note": 83, "velocity": 102, "channel": 0}, {"type": "note_off", "time": 86, "note": 83, "velocity": 102, "channel": 0}, {"type": "note_on", "time": 75, "note": 78, "velocity": 116, "channel": 0}, {"type": "note_off", "time": 159, "note": 78, "velocity": 116, "channel": 0}, {"type": "note_on", "time": 57, "note": 83, "velocity": 105, "channel": 0}, {"type": "note_off", "time": 119, "note": 83, "velocity": 105, "channel": 0}, {"type": "note_on", "time": 115, "note": 78, "velocity": 114, "channel": 0}, {"type": "note_off", "time": 148, "note": 78, "velocity": 114, "channel": 0}, {"type": "note_on", "time": 39, "note": 83, "velocity": 89, "channel": 0}, {"type": "note_off", "time": 97, "note": 83, "velocity": 89, "channel": 0}, {"type": "note_on", "time": 72, "note": 80, "velocity": 106, "channel": 0}, {"type": "note_off", "time": 177, "note": 80, "velocity": 106, "channel": 0}, {"type": "note_on", "time": 57, "note": 83, "velocity": 109, "channel": 0}, {"type": "note_off", "time": 144, "note": 83, "velocity": 109, "channel": 0}, {"type": "note_on", "time": 61, "note": 76, "velocity": 116, "channel": 0}, {"type": "note_off", "time": 148, "note": 76, "velocity": 116, "channel": 0}, {"type": "note_on", "time": 57, "note": 83, "velocity": 98, "channel": 0}, {"type": "note_off", "time": 151, "note": 83, "velocity": 98, "channel": 0}, {"type": "note_on", "time": 86, "note": 75, "velocity": 118, "channel": 0}, {"type": "note_off", "time": 166, "note": 75, "velocity": 118, "channel": 0}, {"type": "note_on", "time": 32, "note": 83, "velocity": 104, "channel": 0}, {"type": "note_off", "time": 126, "note": 83, "velocity": 104, "channel": 0}, {"type": "note_on", "time": 126, "note": 75, "velocity": 116, "channel": 0}, {"type": "note_off", "time": 148, "note": 75, "velocity": 116, "channel": 0}, {"type": "note_on", "time": 94, "note": 83, "velocity": 105, "channel": 0}, {"type": "note_off", "time": 112, "note": 83, "velocity": 105, "channel": 0}, {"type": "note_on", "time": 47, "note": 80, "velocity": 117, "channel": 0}, {"type": "note_off", "time": 144, "note": 80, "velocity": 117, "channel": 0}, {"type": "note_on", "time": 112, "note": 83, "velocity": 98, "channel": 0}, {"type": "note_off", "time": 112, "note": 83, "velocity": 98, "channel": 0}, {"type": "note_on", "time": 72, "note": 75, "velocity": 112, "channel": 0}, {"type": "note_off", "time": 162, "note": 75, "velocity": 112, "channel": 0}, {"type": "note_on", "time": 65, "note": 83, "velocity": 96, "channel": 0}, {"type": "note_off", "time": 144, "note": 83, "velocity": 96, "channel": 0}, {"type": "note_on", "time": 108, "note": 76, "velocity": 113, "channel": 0}, {"type": "note_off", "time": 213, "note": 76, "velocity": 113, "channel": 0}, {"type": "note_on", "time": 86, "note": 71, "velocity": 97, "channel": 0}, {"type": "note_off", "time": 394, "note": 71, "velocity": 97, "channel": 0}, {"type": "note_on", "time": 1587, "note": 83, "velocity": 95, "channel": 0}, {"type": "note_off", "time": 144, "note": 83, "velocity": 95, "channel": 0}, {"type": "note_on", "time": 43, "note": 85, "velocity": 103, "channel": 0}, {"type": "note_off", "time": 126, "note": 85, "velocity": 103, "channel": 0}, {"type": "note_on", "time": 36, "note": 86, "velocity": 94, "channel": 0}, {"type": "note_off", "time": 72, "note": 86, "velocity": 94, "channel": 0}, {"type": "note_on", "time": 73, "note": 87, "velocity": 96, "channel": 0}, {"type": "note_on", "time": 2166, "note": 86, "velocity": 81, "channel": 0}, {"type": "note_off", "time": 0, "note": 87, "velocity": 96, "channel": 0}, {"type": "note_off", "time": 628, "note": 86, "velocity": 81, "channel": 0}, {"type": "note_on", "time": 0, "note": 85, "velocity": 84, "channel": 0}, {"type": "note_off", "time": 231, "note": 85, "velocity": 84, "channel": 0}, {"type": "note_on", "time": 361, "note": 87, "velocity": 101, "channel": 0}, {"type": "note_off", "time": 303, "note": 87, "velocity": 101, "channel": 0}, {"type": "note_on", "time": 101, "note": 85, "velocity": 101, "channel": 0}, {"type": "note_off", "time": 339, "note": 85, "velocity": 101, "channel": 0}, {"type": "note_on", "time": 180, "note": 87, "velocity": 105, "channel": 0}, {"type": "note_off", "time": 1453, "note": 87, "velocity": 105, "channel": 0}, {"type": "note_on", "time": 130, "note": 86, "velocity": 83, "channel": 0}, {"type": "note_off", "time": 401, "note": 86, "velocity": 83, "channel": 0}, {"type": "note_on", "time": 90, "note": 85, "velocity": 106, "channel": 0}, {"type": "note_off", "time": 235, "note": 85, "velocity": 106, "channel": 0}, {"type": "note_on", "time": 68, "note": 83, "velocity": 108, "channel": 0}, {"type": "note_off", "time": 867, "note": 83, "velocity": 108, "channel": 0}, {"type": "note_on", "time": 72, "note": 80, "velocity": 113, "channel": 0}, {"type": "note_off", "time": 459, "note": 80, "velocity": 113, "channel": 0}, {"type": "note_on", "time": 74, "note": 75, "velocity": 112, "channel": 0}, {"type": "note_off", "time": 1739, "note": 75, "velocity": 112, "channel": 0}, {"type": "note_on", "time": 84, "note": 73, "velocity": 108, "channel": 0}, {"type": "note_off", "time": 148, "note": 73, "velocity": 108, "channel": 0}, {"type": "note_on", "time": 50, "note": 75, "velocity": 114, "channel": 0}, {"type": "note_off", "time": 90, "note": 75, "velocity": 114, "channel": 0}, {"type": "note_on", "time": 47, "note": 78, "velocity": 119, "channel": 0}, {"type": "note_off", "time": 112, "note": 78, "velocity": 119, "channel": 0}, {"type": "note_on", "time": 43, "note": 80, "velocity": 114, "channel": 0}, {"type": "note_off", "time": 68, "note": 80, "velocity": 114, "channel": 0}, {"type": "note_on", "time": 21, "note": 83, "velocity": 106, "channel": 0}, {"type": "note_off", "time": 86, "note": 83, "velocity": 106, "channel": 0}, {"type": "note_on", "time": 57, "note": 85, "velocity": 103, "channel": 0}, {"type": "note_off", "time": 205, "note": 85, "velocity": 103, "channel": 0}, {"type": "note_on", "time": 40, "note": 83, "velocity": 112, "channel": 0}, {"type": "note_off", "time": 104, "note": 83, "velocity": 112, "channel": 0}, {"type": "note_on", "time": 53, "note": 80, "velocity": 115, "channel": 0}, {"type": "note_off", "time": 99, "note": 80, "velocity": 115, "channel": 0}, {"type": "note_on", "time": 40, "note": 79, "velocity": 115, "channel": 0}, {"type": "note_off", "time": 73, "note": 79, "velocity": 115, "channel": 0}, {"type": "note_on", "time": 17, "note": 78, "velocity": 115, "channel": 0}, {"type": "note_off", "time": 88, "note": 78, "velocity": 115, "channel": 0}, {"type": "note_on", "time": 33, "note": 75, "velocity": 122, "channel": 0}, {"type": "note_off", "time": 144, "note": 75, "velocity": 122, "channel": 0}, {"type": "note_on", "time": 58, "note": 73, "velocity": 116, "channel": 0}, {"type": "note_off", "time": 150, "note": 73, "velocity": 116, "channel": 0}, {"type": "note_on", "time": 45, "note": 71, "velocity": 112, "channel": 0}, {"type": "note_off", "time": 119, "note": 71, "velocity": 112, "channel": 0}, {"type": "note_on", "time": 35, "note": 75, "velocity": 112, "channel": 0}, {"type": "note_off", "time": 1767, "note": 75, "velocity": 112, "channel": 0}, {"type": "note_on", "time": 68, "note": 73, "velocity": 113, "channel": 0}, {"type": "note_off", "time": 134, "note": 73, "velocity": 113, "channel": 0}, {"type": "note_on", "time": 25, "note": 75, "velocity": 113, "channel": 0}, {"type": "note_off", "time": 111, "note": 75, "velocity": 113, "channel": 0}, {"type": "note_on", "time": 35, "note": 78, "velocity": 115, "channel": 0}, {"type": "note_off", "time": 142, "note": 78, "velocity": 115, "channel": 0}, {"type": "note_on", "time": 22, "note": 80, "velocity": 106, "channel": 0}, {"type": "note_off", "time": 58, "note": 80, "velocity": 106, "channel": 0}, {"type": "note_on", "time": 22, "note": 83, "velocity": 107, "channel": 0}, {"type": "note_off", "time": 137, "note": 83, "velocity": 107, "channel": 0}, {"type": "note_on", "time": 22, "note": 80, "velocity": 117, "channel": 0}, {"type": "note_off", "time": 71, "note": 80, "velocity": 117, "channel": 0}, {"type": "note_on", "time": 15, "note": 79, "velocity": 114, "channel": 0}, {"type": "note_off", "time": 48, "note": 79, "velocity": 114, "channel": 0}, {"type": "note_on", "time": 30, "note": 75, "velocity": 119, "channel": 0}, {"type": "note_off", "time": 155, "note": 75, "velocity": 119, "channel": 0}, {"type": "note_on", "time": 43, "note": 73, "velocity": 123, "channel": 0}, {"type": "note_off", "time": 241, "note": 73, "velocity": 123, "channel": 0}, {"type": "note_on", "time": 22, "note": 75, "velocity": 120, "channel": 0}, {"type": "note_off", "time": 1495, "note": 75, "velocity": 120, "channel": 0}, {"type": "note_on", "time": 61, "note": 73, "velocity": 120, "channel": 0}, {"type": "note_off", "time": 325, "note": 73, "velocity": 120, "channel": 0}, {"type": "note_on", "time": 50, "note": 71, "velocity": 110, "channel": 0}, {"type": "note_off", "time": 640, "note": 71, "velocity": 110, "channel": 0}, {"type": "note_on", "time": 78, "note": 68, "velocity": 108, "channel": 0}, {"type": "note_off", "time": 419, "note": 68, "velocity": 108, "channel": 0}, {"type": "note_on", "time": 58, "note": 63, "velocity": 111, "channel": 0}, {"type": "note_off", "time": 1566, "note": 63, "velocity": 111, "channel": 0}, {"type": "note_on", "time": 494, "note": 64, "velocity": 111, "channel": 0}, {"type": "note_off", "time": 119, "note": 64, "velocity": 111, "channel": 0}, {"type": "note_on", "time": 47, "note": 66, "velocity": 116, "channel": 0}, {"type": "note_off", "time": 198, "note": 66, "velocity": 116, "channel": 0}, {"type": "note_on", "time": 75, "note": 68, "velocity": 110, "channel": 0}, {"type": "note_off", "time": 159, "note": 68, "velocity": 110, "channel": 0}, {"type": "note_on", "time": 68, "note": 71, "velocity": 97, "channel": 0}, {"type": "note_off", "time": 151, "note": 71, "velocity": 97, "channel": 0}, {"type": "note_on", "time": 68, "note": 73, "velocity": 115, "channel": 0}, {"type": "note_off", "time": 159, "note": 73, "velocity": 115, "channel": 0}, {"type": "note_on", "time": 61, "note": 75, "velocity": 112, "channel": 0}, {"type": "note_off", "time": 75, "note": 75, "velocity": 112, "channel": 0}, {"type": "note_on", "time": 57, "note": 78, "velocity": 113, "channel": 0}, {"type": "note_off", "time": 137, "note": 78, "velocity": 113, "channel": 0}, {"type": "note_on", "time": 65, "note": 80, "velocity": 112, "channel": 0}, {"type": "note_off", "time": 119, "note": 80, "velocity": 112, "channel": 0}, {"type": "note_on", "time": 43, "note": 83, "velocity": 106, "channel": 0}, {"type": "note_off", "time": 141, "note": 83, "velocity": 106, "channel": 0}, {"type": "note_on", "time": 47, "note": 85, "velocity": 101, "channel": 0}, {"type": "note_off", "time": 198, "note": 85, "velocity": 101, "channel": 0}, {"type": "note_on", "time": 397, "note": 85, "velocity": 86, "channel": 0}, {"type": "note_off", "time": 119, "note": 85, "velocity": 86, "channel": 0}, {"type": "note_on", "time": 459, "note": 85, "velocity": 95, "channel": 0}, {"type": "note_off", "time": 148, "note": 85, "velocity": 95, "channel": 0}, {"type": "note_on", "time": 339, "note": 85, "velocity": 101, "channel": 0}, {"type": "note_off", "time": 546, "note": 85, "velocity": 101, "channel": 0}, {"type": "note_on", "time": 25, "note": 83, "velocity": 106, "channel": 0}, {"type": "note_off", "time": 249, "note": 83, "velocity": 106, "channel": 0}, {"type": "note_on", "time": 90, "note": 75, "velocity": 117, "channel": 0}, {"type": "note_off", "time": 1442, "note": 75, "velocity": 117, "channel": 0}, {"type": "note_on", "time": 72, "note": 73, "velocity": 118, "channel": 0}, {"type": "note_off", "time": 184, "note": 73, "velocity": 118, "channel": 0}, {"type": "note_on", "time": 1273, "note": 85, "velocity": 105, "channel": 0}, {"type": "note_off", "time": 278, "note": 85, "velocity": 105, "channel": 0}, {"type": "note_on", "time": 119, "note": 83, "velocity": 104, "channel": 0}, {"type": "note_off", "time": 267, "note": 83, "velocity": 104, "channel": 0}, {"type": "note_on", "time": 296, "note": 85, "velocity": 99, "channel": 0}, {"type": "note_off", "time": 245, "note": 85, "velocity": 99, "channel": 0}, {"type": "note_on", "time": 430, "note": 83, "velocity": 101, "channel": 0}, {"type": "note_off", "time": 213, "note": 83, "velocity": 101, "channel": 0}, {"type": "note_on", "time": 159, "note": 75, "velocity": 112, "channel": 0}, {"type": "note_off", "time": 1131, "note": 75, "velocity": 112, "channel": 0}, {"type": "note_on", "time": 75, "note": 73, "velocity": 107, "channel": 0}, {"type": "note_off", "time": 354, "note": 73, "velocity": 107, "channel": 0}, {"type": "note_on", "time": 54, "note": 75, "velocity": 116, "channel": 0}, {"type": "note_off", "time": 459, "note": 75, "velocity": 116, "channel": 0}, {"type": "note_on", "time": 50, "note": 73, "velocity": 111, "channel": 0}, {"type": "note_off", "time": 184, "note": 73, "velocity": 111, "channel": 0}, {"type": "note_on", "time": 437, "note": 85, "velocity": 93, "channel": 0}, {"type": "note_off", "time": 264, "note": 85, "velocity": 93, "channel": 0}, {"type": "note_on", "time": 39, "note": 83, "velocity": 93, "channel": 0}, {"type": "note_off", "time": 162, "note": 83, "velocity": 93, "channel": 0}, {"type": "note_on", "time": 611, "note": 85, "velocity": 97, "channel": 0}, {"type": "note_off", "time": 365, "note": 85, "velocity": 97, "channel": 0}, {"type": "note_on", "time": 433, "note": 83, "velocity": 102, "channel": 0}, {"type": "note_off", "time": 278, "note": 83, "velocity": 102, "channel": 0}, {"type": "note_on", "time": 151, "note": 75, "velocity": 118, "channel": 0}, {"type": "note_off", "time": 419, "note": 75, "velocity": 118, "channel": 0}, {"type": "note_on", "time": 53, "note": 73, "velocity": 102, "channel": 0}, {"type": "note_off", "time": 238, "note": 73, "velocity": 102, "channel": 0}, {"type": "note_on", "time": 37, "note": 75, "velocity": 115, "channel": 0}, {"type": "note_off", "time": 759, "note": 75, "velocity": 115, "channel": 0}, {"type": "note_on", "time": 65, "note": 73, "velocity": 115, "channel": 0}, {"type": "note_off", "time": 220, "note": 73, "velocity": 115, "channel": 0}, {"type": "note_on", "time": 972, "note": 64, "velocity": 116, "channel": 0}, {"type": "note_off", "time": 94, "note": 64, "velocity": 116, "channel": 0}, {"type": "note_on", "time": 43, "note": 66, "velocity": 114, "channel": 0}, {"type": "note_off", "time": 159, "note": 66, "velocity": 114, "channel": 0}, {"type": "note_on", "time": 32, "note": 68, "velocity": 105, "channel": 0}, {"type": "note_off", "time": 126, "note": 68, "velocity": 105, "channel": 0}, {"type": "note_on", "time": 32, "note": 71, "velocity": 104, "channel": 0}, {"type": "note_off", "time": 101, "note": 71, "velocity": 104, "channel": 0}, {"type": "note_on", "time": 32, "note": 73, "velocity": 117, "channel": 0}, {"type": "note_off", "time": 224, "note": 73, "velocity": 117, "channel": 0}, {"type": "note_on", "time": 47, "note": 75, "velocity": 118, "channel": 0}, {"type": "note_off", "time": 122, "note": 75, "velocity": 118, "channel": 0}, {"type": "note_on", "time": 54, "note": 78, "velocity": 110, "channel": 0}, {"type": "note_off", "time": 126, "note": 78, "velocity": 110, "channel": 0}, {"type": "note_on", "time": 32, "note": 80, "velocity": 106, "channel": 0}, {"type": "note_off", "time": 65, "note": 80, "velocity": 106, "channel": 0}, {"type": "note_on", "time": 39, "note": 83, "velocity": 95, "channel": 0}, {"type": "note_off", "time": 130, "note": 83, "velocity": 95, "channel": 0}, {"type": "note_on", "time": 21, "note": 85, "velocity": 91, "channel": 0}, {"type": "note_off", "time": 188, "note": 85, "velocity": 91, "channel": 0}, {"type": "note_on", "time": 54, "note": 83, "velocity": 90, "channel": 0}, {"type": "note_off", "time": 115, "note": 83, "velocity": 90, "channel": 0}, {"type": "note_on", "time": 36, "note": 86, "velocity": 98, "channel": 0}, {"type": "note_off", "time": 470, "note": 86, "velocity": 98, "channel": 0}, {"type": "note_on", "time": 39, "note": 84, "velocity": 93, "channel": 0}, {"type": "note_off", "time": 137, "note": 84, "velocity": 93, "channel": 0}, {"type": "note_on", "time": 112, "note": 75, "velocity": 113, "channel": 0}, {"type": "note_off", "time": 1627, "note": 75, "velocity": 113, "channel": 0}, {"type": "note_on", "time": 36, "note": 73, "velocity": 112, "channel": 0}, {"type": "note_off", "time": 282, "note": 73, "velocity": 112, "channel": 0}, {"type": "note_on", "time": 428, "note": 84, "velocity": 83, "channel": 0}, {"type": "note_off", "time": 50, "note": 84, "velocity": 83, "channel": 0}, {"type": "note_on", "time": 45, "note": 85, "velocity": 103, "channel": 0}, {"type": "note_off", "time": 160, "note": 85, "velocity": 103, "channel": 0}, {"type": "note_on", "time": 22, "note": 86, "velocity": 99, "channel": 0}, {"type": "note_off", "time": 81, "note": 86, "velocity": 99, "channel": 0}, {"type": "note_on", "time": 25, "note": 87, "velocity": 103, "channel": 0}, {"type": "note_off", "time": 1469, "note": 87, "velocity": 103, "channel": 0}, {"type": "note_on", "time": 50, "note": 86, "velocity": 84, "channel": 0}, {"type": "note_off", "time": 417, "note": 86, "velocity": 84, "channel": 0}, {"type": "note_on", "time": 49, "note": 86, "velocity": 96, "channel": 0}, {"type": "note_off", "time": 314, "note": 86, "velocity": 96, "channel": 0}, {"type": "note_on", "time": 144, "note": 87, "velocity": 104, "channel": 0}, {"type": "note_off", "time": 904, "note": 87, "velocity": 104, "channel": 0}, {"type": "note_on", "time": 61, "note": 86, "velocity": 82, "channel": 0}, {"type": "note_off", "time": 1017, "note": 86, "velocity": 82, "channel": 0}, {"type": "note_on", "time": 38, "note": 83, "velocity": 96, "channel": 0}, {"type": "note_off", "time": 1964, "note": 83, "velocity": 96, "channel": 0}, {"type": "note_on", "time": 1159, "note": 85, "velocity": 101, "channel": 0}, {"type": "note_off", "time": 1551, "note": 85, "velocity": 101, "channel": 0}, {"type": "note_on", "time": 148, "note": 83, "velocity": 89, "channel": 0}, {"type": "note_off", "time": 339, "note": 83, "velocity": 89, "channel": 0}, {"type": "note_on", "time": 144, "note": 79, "velocity": 101, "channel": 0}, {"type": "note_off", "time": 108, "note": 79, "velocity": 101, "channel": 0}, {"type": "note_on", "time": 183, "note": 83, "velocity": 94, "channel": 0}, {"type": "note_off", "time": 134, "note": 83, "velocity": 94, "channel": 0}, {"type": "note_on", "time": 35, "note": 78, "velocity": 108, "channel": 0}, {"type": "note_off", "time": 195, "note": 78, "velocity": 108, "channel": 0}, {"type": "note_on", "time": 134, "note": 83, "velocity": 95, "channel": 0}, {"type": "note_off", "time": 127, "note": 83, "velocity": 95, "channel": 0}, {"type": "note_on", "time": 74, "note": 78, "velocity": 113, "channel": 0}, {"type": "note_off", "time": 264, "note": 78, "velocity": 113, "channel": 0}, {"type": "note_on", "time": 55, "note": 75, "velocity": 119, "channel": 0}, {"type": "note_off", "time": 111, "note": 75, "velocity": 119, "channel": 0}, {"type": "note_on", "time": 81, "note": 78, "velocity": 113, "channel": 0}, {"type": "note_off", "time": 206, "note": 78, "velocity": 113, "channel": 0}, {"type": "note_on", "time": 47, "note": 73, "velocity": 113, "channel": 0}, {"type": "note_off", "time": 193, "note": 73, "velocity": 113, "channel": 0}, {"type": "note_on", "time": 40, "note": 77, "velocity": 112, "channel": 0}, {"type": "note_off", "time": 231, "note": 77, "velocity": 112, "channel": 0}, {"type": "note_on", "time": 40, "note": 73, "velocity": 113, "channel": 0}, {"type": "note_off", "time": 218, "note": 73, "velocity": 113, "channel": 0}, {"type": "note_on", "time": 76, "note": 71, "velocity": 113, "channel": 0}, {"type": "note_off", "time": 231, "note": 71, "velocity": 113, "channel": 0}, {"type": "note_on", "time": 27, "note": 73, "velocity": 111, "channel": 0}, {"type": "note_off", "time": 233, "note": 73, "velocity": 111, "channel": 0}, {"type": "note_on", "time": 94, "note": 71, "velocity": 103, "channel": 0}, {"type": "note_off", "time": 1179, "note": 71, "velocity": 103, "channel": 0}, {"type": "note_on", "time": 45, "note": 66, "velocity": 107, "channel": 0}, {"type": "note_off", "time": 147, "note": 66, "velocity": 107, "channel": 0}, {"type": "note_on", "time": 25, "note": 71, "velocity": 107, "channel": 0}, {"type": "note_off", "time": 681, "note": 71, "velocity": 107, "channel": 0}, {"type": "note_on", "time": 0, "note": 59, "velocity": 105, "channel": 0}, {"type": "note_off", "time": 320, "note": 59, "velocity": 105, "channel": 0}, {"type": "note_on", "time": 2085, "note": 64, "velocity": 115, "channel": 0}, {"type": "note_off", "time": 198, "note": 64, "velocity": 115, "channel": 0}, {"type": "note_on", "time": 71, "note": 66, "velocity": 114, "channel": 0}, {"type": "note_off", "time": 1454, "note": 66, "velocity": 114, "channel": 0}, {"type": "note_on", "time": 115, "note": 64, "velocity": 113, "channel": 0}, {"type": "note_off", "time": 130, "note": 64, "velocity": 113, "channel": 0}, {"type": "note_on", "time": 79, "note": 68, "velocity": 109, "channel": 0}, {"type": "note_off", "time": 169, "note": 68, "velocity": 109, "channel": 0}, {"type": "note_on", "time": 75, "note": 71, "velocity": 104, "channel": 0}, {"type": "note_off", "time": 1001, "note": 71, "velocity": 104, "channel": 0}, {"type": "note_on", "time": 65, "note": 66, "velocity": 110, "channel": 0}, {"type": "note_off", "time": 180, "note": 66, "velocity": 110, "channel": 0}, {"type": "note_on", "time": 104, "note": 71, "velocity": 110, "channel": 0}, {"type": "note_off", "time": 122, "note": 71, "velocity": 110, "channel": 0}, {"type": "note_on", "time": 108, "note": 73, "velocity": 114, "channel": 0}, {"type": "note_off", "time": 260, "note": 73, "velocity": 114, "channel": 0}, {"type": "note_on", "time": 43, "note": 67, "velocity": 107, "channel": 0}, {"type": "note_off", "time": 151, "note": 67, "velocity": 107, "channel": 0}, {"type": "note_on", "time": 39, "note": 68, "velocity": 106, "channel": 0}, {"type": "note_off", "time": 694, "note": 68, "velocity": 106, "channel": 0}, {"type": "note_on", "time": 191, "note": 75, "velocity": 115, "channel": 0}, {"type": "note_off", "time": 177, "note": 75, "velocity": 115, "channel": 0}, {"type": "note_on", "time": 21, "note": 71, "velocity": 106, "channel": 0}, {"type": "note_off", "time": 271, "note": 71, "velocity": 106, "channel": 0}, {"type": "note_on", "time": 72, "note": 76, "velocity": 119, "channel": 0}, {"type": "note_off", "time": 191, "note": 76, "velocity": 119, "channel": 0}, {"type": "note_on", "time": 28, "note": 78, "velocity": 110, "channel": 0}, {"type": "note_off", "time": 209, "note": 78, "velocity": 110, "channel": 0}, {"type": "note_on", "time": 47, "note": 73, "velocity": 111, "channel": 0}, {"type": "note_off", "time": 191, "note": 73, "velocity": 111, "channel": 0}, {"type": "note_on", "time": 61, "note": 78, "velocity": 115, "channel": 0}, {"type": "note_off", "time": 216, "note": 78, "velocity": 115, "channel": 0}, {"type": "note_on", "time": 32, "note": 80, "velocity": 112, "channel": 0}, {"type": "note_off", "time": 155, "note": 80, "velocity": 112, "channel": 0}, {"type": "note_on", "time": 61, "note": 78, "velocity": 113, "channel": 0}, {"type": "note_off", "time": 166, "note": 78, "velocity": 113, "channel": 0}, {"type": "note_on", "time": 68, "note": 80, "velocity": 104, "channel": 0}, {"type": "note_off", "time": 94, "note": 80, "velocity": 104, "channel": 0}, {"type": "note_on", "time": 61, "note": 83, "velocity": 95, "channel": 0}, {"type": "note_off", "time": 231, "note": 83, "velocity": 95, "channel": 0}, {"type": "note_on", "time": 2448, "note": 83, "velocity": 97, "channel": 0}, {"type": "note_off", "time": 130, "note": 83, "velocity": 97, "channel": 0}, {"type": "note_on", "time": 68, "note": 85, "velocity": 95, "channel": 0}, {"type": "note_off", "time": 1171, "note": 85, "velocity": 95, "channel": 0}, {"type": "note_on", "time": 47, "note": 83, "velocity": 101, "channel": 0}, {"type": "note_off", "time": 133, "note": 83, "velocity": 101, "channel": 0}, {"type": "note_on", "time": 94, "note": 85, "velocity": 102, "channel": 0}, {"type": "note_off", "time": 209, "note": 85, "velocity": 102, "channel": 0}, {"type": "note_on", "time": 86, "note": 83, "velocity": 102, "channel": 0}, {"type": "note_off", "time": 173, "note": 83, "velocity": 102, "channel": 0}, {"type": "note_on", "time": 144, "note": 78, "velocity": 113, "channel": 0}, {"type": "note_off", "time": 227, "note": 78, "velocity": 113, "channel": 0}, {"type": "note_on", "time": 86, "note": 83, "velocity": 92, "channel": 0}, {"type": "note_off", "time": 126, "note": 83, "velocity": 92, "channel": 0}, {"type": "note_on", "time": 68, "note": 80, "velocity": 116, "channel": 0}, {"type": "note_off", "time": 242, "note": 80, "velocity": 116, "channel": 0}, {"type": "note_on", "time": 61, "note": 76, "velocity": 118, "channel": 0}, {"type": "note_off", "time": 180, "note": 76, "velocity": 118, "channel": 0}, {"type": "note_on", "time": 97, "note": 80, "velocity": 116, "channel": 0}, {"type": "note_off", "time": 191, "note": 80, "velocity": 116, "channel": 0}, {"type": "note_on", "time": 32, "note": 78, "velocity": 114, "channel": 0}, {"type": "note_off", "time": 235, "note": 78, "velocity": 114, "channel": 0}, {"type": "note_on", "time": 94, "note": 75, "velocity": 117, "channel": 0}, {"type": "note_off", "time": 195, "note": 75, "velocity": 117, "channel": 0}, {"type": "note_on", "time": 57, "note": 78, "velocity": 114, "channel": 0}, {"type": "note_off", "time": 184, "note": 78, "velocity": 114, "channel": 0}, {"type": "note_on", "time": 47, "note": 76, "velocity": 124, "channel": 0}, {"type": "note_off", "time": 227, "note": 76, "velocity": 124, "channel": 0}, {"type": "note_on", "time": 79, "note": 73, "velocity": 112, "channel": 0}, {"type": "note_off", "time": 177, "note": 73, "velocity": 112, "channel": 0}, {"type": "note_on", "time": 65, "note": 76, "velocity": 119, "channel": 0}, {"type": "note_off", "time": 256, "note": 76, "velocity": 119, "channel": 0}, {"type": "note_on", "time": 32, "note": 75, "velocity": 108, "channel": 0}, {"type": "note_off", "time": 1330, "note": 75, "velocity": 108, "channel": 0}, {"type": "note_on", "time": 72, "note": 73, "velocity": 113, "channel": 0}, {"type": "note_off", "time": 271, "note": 73, "velocity": 113, "channel": 0}, {"type": "note_on", "time": 104, "note": 71, "velocity": 109, "channel": 0}, {"type": "note_off", "time": 491, "note": 71, "velocity": 109, "channel": 0}, {"type": "note_on", "time": 97, "note": 66, "velocity": 108, "channel": 0}, {"type": "note_off", "time": 437, "note": 66, "velocity": 108, "channel": 0}, {"type": "note_on", "time": 1966, "note": 71, "velocity": 84, "channel": 0}, {"type": "note_off", "time": 199, "note": 71, "velocity": 84, "channel": 0}, {"type": "note_on", "time": 0, "note": 75, "velocity": 118, "channel": 0}, {"type": "note_off", "time": 1609, "note": 75, "velocity": 118, "channel": 0}, {"type": "note_on", "time": 47, "note": 73, "velocity": 117, "channel": 0}, {"type": "note_off", "time": 148, "note": 73, "velocity": 117, "channel": 0}, {"type": "note_on", "time": 61, "note": 75, "velocity": 119, "channel": 0}, {"type": "note_off", "time": 741, "note": 75, "velocity": 119, "channel": 0}, {"type": "note_on", "time": 133, "note": 75, "velocity": 120, "channel": 0}, {"type": "note_off", "time": 343, "note": 75, "velocity": 120, "channel": 0}, {"type": "note_on", "time": 452, "note": 75, "velocity": 116, "channel": 0}, {"type": "note_off", "time": 379, "note": 75, "velocity": 116, "channel": 0}, {"type": "note_on", "time": 531, "note": 75, "velocity": 112, "channel": 0}, {"type": "note_off", "time": 2119, "note": 75, "velocity": 112, "channel": 0}, {"type": "note_on", "time": 164, "note": 73, "velocity": 109, "channel": 0}, {"type": "note_off", "time": 183, "note": 73, "velocity": 109, "channel": 0}, {"type": "note_on", "time": 127, "note": 71, "velocity": 104, "channel": 0}, {"type": "note_off", "time": 681, "note": 71, "velocity": 104, "channel": 0}, {"type": "note_on", "time": 76, "note": 68, "velocity": 106, "channel": 0}, {"type": "note_off", "time": 335, "note": 68, "velocity": 106, "channel": 0}, {"type": "note_on", "time": 116, "note": 63, "velocity": 115, "channel": 0}, {"type": "note_off", "time": 1505, "note": 63, "velocity": 115, "channel": 0}, {"type": "note_on", "time": 1973, "note": 61, "velocity": 112, "channel": 0}, {"type": "note_off", "time": 152, "note": 61, "velocity": 112, "channel": 0}, {"type": "note_on", "time": 96, "note": 63, "velocity": 120, "channel": 0}, {"type": "note_off", "time": 569, "note": 63, "velocity": 120, "channel": 0}, {"type": "note_on", "time": 106, "note": 63, "velocity": 117, "channel": 0}, {"type": "note_off", "time": 447, "note": 63, "velocity": 117, "channel": 0}, {"type": "note_on", "time": 442, "note": 63, "velocity": 115, "channel": 0}, {"type": "note_off", "time": 467, "note": 63, "velocity": 115, "channel": 0}, {"type": "note_on", "time": 488, "note": 63, "velocity": 110, "channel": 0}, {"type": "note_off", "time": 2105, "note": 63, "velocity": 110, "channel": 0}, {"type": "note_on", "time": 55, "note": 61, "velocity": 108, "channel": 0}, {"type": "note_off", "time": 172, "note": 61, "velocity": 108, "channel": 0}, {"type": "note_on", "time": 50, "note": 63, "velocity": 111, "channel": 0}, {"type": "note_off", "time": 183, "note": 63, "velocity": 111, "channel": 0}, {"type": "note_on", "time": 208, "note": 73, "velocity": 118, "channel": 0}, {"type": "note_off", "time": 213, "note": 73, "velocity": 118, "channel": 0}, {"type": "note_on", "time": 66, "note": 70, "velocity": 102, "channel": 0}, {"type": "note_off", "time": 116, "note": 70, "velocity": 102, "channel": 0}, {"type": "note_on", "time": 55, "note": 71, "velocity": 100, "channel": 0}, {"type": "note_off", "time": 1866, "note": 71, "velocity": 100, "channel": 0}, {"type": "note_on", "time": 2176, "note": 67, "velocity": 114, "channel": 0}, {"type": "note_off", "time": 305, "note": 67, "velocity": 114, "channel": 0}, {"type": "note_on", "time": 35, "note": 68, "velocity": 110, "channel": 0}, {"type": "note_off", "time": 310, "note": 68, "velocity": 110, "channel": 0}, {"type": "note_on", "time": 55, "note": 80, "velocity": 119, "channel": 0}, {"type": "note_off", "time": 249, "note": 80, "velocity": 119, "channel": 0}, {"type": "note_on", "time": 81, "note": 78, "velocity": 119, "channel": 0}, {"type": "note_off", "time": 1627, "note": 78, "velocity": 119, "channel": 0}, {"type": "note_on", "time": 45, "note": 67, "velocity": 111, "channel": 0}, {"type": "note_off", "time": 259, "note": 67, "velocity": 111, "channel": 0}, {"type": "note_on", "time": 76, "note": 68, "velocity": 105, "channel": 0}, {"type": "note_off", "time": 91, "note": 68, "velocity": 105, "channel": 0}, {"type": "note_on", "time": 81, "note": 78, "velocity": 118, "channel": 0}, {"type": "note_off", "time": 264, "note": 78, "velocity": 118, "channel": 0}, {"type": "note_on", "time": 106, "note": 76, "velocity": 118, "channel": 0}, {"type": "note_off", "time": 874, "note": 76, "velocity": 118, "channel": 0}, {"type": "note_on", "time": 239, "note": 67, "velocity": 109, "channel": 0}, {"type": "note_off", "time": 193, "note": 67, "velocity": 109, "channel": 0}, {"type": "note_on", "time": 30, "note": 68, "velocity": 104, "channel": 0}, {"type": "note_off", "time": 132, "note": 68, "velocity": 104, "channel": 0}, {"type": "note_on", "time": 101, "note": 75, "velocity": 116, "channel": 0}, {"type": "note_off", "time": 157, "note": 75, "velocity": 116, "channel": 0}, {"type": "note_on", "time": 61, "note": 73, "velocity": 111, "channel": 0}, {"type": "note_off", "time": 1012, "note": 73, "velocity": 111, "channel": 0}, {"type": "note_on", "time": 239, "note": 67, "velocity": 108, "channel": 0}, {"type": "note_off", "time": 167, "note": 67, "velocity": 108, "channel": 0}, {"type": "note_on", "time": 40, "note": 68, "velocity": 106, "channel": 0}, {"type": "note_off", "time": 76, "note": 68, "velocity": 106, "channel": 0}, {"type": "note_on", "time": 101, "note": 73, "velocity": 119, "channel": 0}, {"type": "note_off", "time": 269, "note": 73, "velocity": 119, "channel": 0}, {"type": "note_on", "time": 55, "note": 71, "velocity": 104, "channel": 0}, {"type": "note_off", "time": 1718, "note": 71, "velocity": 104, "channel": 0}, {"type": "note_on", "time": 45, "note": 67, "velocity": 110, "channel": 0}, {"type": "note_off", "time": 213, "note": 67, "velocity": 110, "channel": 0}, {"type": "note_on", "time": 40, "note": 68, "velocity": 106, "channel": 0}, {"type": "note_off", "time": 81, "note": 68, "velocity": 106, "channel": 0}, {"type": "note_on", "time": 111, "note": 75, "velocity": 110, "channel": 0}, {"type": "note_off", "time": 208, "note": 75, "velocity": 110, "channel": 0}, {"type": "note_on", "time": 86, "note": 73, "velocity": 112, "channel": 0}, {"type": "note_off", "time": 696, "note": 73, "velocity": 112, "channel": 0}, {"type": "note_on", "time": 452, "note": 67, "velocity": 113, "channel": 0}, {"type": "note_off", "time": 213, "note": 67, "velocity": 113, "channel": 0}, {"type": "note_on", "time": 55, "note": 68, "velocity": 105, "channel": 0}, {"type": "note_off", "time": 111, "note": 68, "velocity": 105, "channel": 0}, {"type": "note_on", "time": 61, "note": 78, "velocity": 116, "channel": 0}, {"type": "note_off", "time": 300, "note": 78, "velocity": 116, "channel": 0}, {"type": "note_on", "time": 55, "note": 75, "velocity": 113, "channel": 0}, {"type": "note_off", "time": 910, "note": 75, "velocity": 113, "channel": 0}, {"type": "note_on", "time": 645, "note": 67, "velocity": 110, "channel": 0}, {"type": "note_off", "time": 193, "note": 67, "velocity": 110, "channel": 0}, {"type": "note_on", "time": 40, "note": 68, "velocity": 105, "channel": 0}, {"type": "note_off", "time": 162, "note": 68, "velocity": 105, "channel": 0}, {"type": "note_on", "time": 106, "note": 78, "velocity": 115, "channel": 0}, {"type": "note_off", "time": 127, "note": 78, "velocity": 115, "channel": 0}, {"type": "note_on", "time": 81, "note": 76, "velocity": 118, "channel": 0}, {"type": "note_off", "time": 493, "note": 76, "velocity": 118, "channel": 0}, {"type": "note_on", "time": 137, "note": 67, "velocity": 111, "channel": 0}, {"type": "note_off", "time": 162, "note": 67, "velocity": 111, "channel": 0}, {"type": "note_on", "time": 66, "note": 68, "velocity": 104, "channel": 0}, {"type": "note_off", "time": 137, "note": 68, "velocity": 104, "channel": 0}, {"type": "note_on", "time": 96, "note": 80, "velocity": 108, "channel": 0}, {"type": "note_off", "time": 137, "note": 80, "velocity": 108, "channel": 0}, {"type": "note_on", "time": 91, "note": 78, "velocity": 111, "channel": 0}, {"type": "note_off", "time": 1006, "note": 78, "velocity": 111, "channel": 0}, {"type": "note_on", "time": 167, "note": 67, "velocity": 108, "channel": 0}, {"type": "note_off", "time": 157, "note": 67, "velocity": 108, "channel": 0}, {"type": "note_on", "time": 61, "note": 68, "velocity": 105, "channel": 0}, {"type": "note_off", "time": 91, "note": 68, "velocity": 105, "channel": 0}, {"type": "note_on", "time": 106, "note": 78, "velocity": 112, "channel": 0}, {"type": "note_off", "time": 218, "note": 78, "velocity": 112, "channel": 0}, {"type": "note_on", "time": 66, "note": 76, "velocity": 116, "channel": 0}, {"type": "note_off", "time": 508, "note": 76, "velocity": 116, "channel": 0}, {"type": "note_on", "time": 193, "note": 67, "velocity": 104, "channel": 0}, {"type": "note_off", "time": 122, "note": 67, "velocity": 104, "channel": 0}, {"type": "note_on", "time": 45, "note": 68, "velocity": 97, "channel": 0}, {"type": "note_off", "time": 116, "note": 68, "velocity": 97, "channel": 0}, {"type": "note_on", "time": 81, "note": 75, "velocity": 106, "channel": 0}, {"type": "note_off", "time": 137, "note": 75, "velocity": 106, "channel": 0}, {"type": "note_on", "time": 45, "note": 73, "velocity": 108, "channel": 0}, {"type": "note_off", "time": 798, "note": 73, "velocity": 108, "channel": 0}, {"type": "note_on", "time": 208, "note": 68, "velocity": 98, "channel": 0}, {"type": "note_off", "time": 142, "note": 68, "velocity": 98, "channel": 0}, {"type": "note_on", "time": 45, "note": 71, "velocity": 98, "channel": 0}, {"type": "note_off", "time": 152, "note": 71, "velocity": 98, "channel": 0}, {"type": "note_on", "time": 20, "note": 73, "velocity": 110, "channel": 0}, {"type": "note_off", "time": 142, "note": 73, "velocity": 110, "channel": 0}, {"type": "note_on", "time": 50, "note": 75, "velocity": 103, "channel": 0}, {"type": "note_off", "time": 50, "note": 75, "velocity": 103, "channel": 0}, {"type": "note_on", "time": 45, "note": 78, "velocity": 112, "channel": 0}, {"type": "note_off", "time": 55, "note": 78, "velocity": 112, "channel": 0}, {"type": "note_on", "time": 10, "note": 80, "velocity": 109, "channel": 0}, {"type": "note_off", "time": 55, "note": 80, "velocity": 109, "channel": 0}, {"type": "note_on", "time": 5, "note": 83, "velocity": 112, "channel": 0}, {"type": "note_off", "time": 178, "note": 83, "velocity": 112, "channel": 0}, {"type": "note_on", "time": 71, "note": 85, "velocity": 99, "channel": 0}, {"type": "note_off", "time": 264, "note": 85, "velocity": 99, "channel": 0}, {"type": "note_on", "time": 1657, "note": 83, "velocity": 105, "channel": 0}, {"type": "note_off", "time": 119, "note": 83, "velocity": 105, "channel": 0}, {"type": "note_on", "time": 43, "note": 85, "velocity": 100, "channel": 0}, {"type": "note_off", "time": 119, "note": 85, "velocity": 100, "channel": 0}, {"type": "note_on", "time": 63, "note": 80, "velocity": 91, "channel": 0}, {"type": "note_off", "time": 122, "note": 80, "velocity": 91, "channel": 0}, {"type": "note_on", "time": 49, "note": 83, "velocity": 97, "channel": 0}, {"type": "note_off", "time": 108, "note": 83, "velocity": 97, "channel": 0}, {"type": "note_on", "time": 50, "note": 78, "velocity": 112, "channel": 0}, {"type": "note_off", "time": 137, "note": 78, "velocity": 112, "channel": 0}, {"type": "note_on", "time": 43, "note": 83, "velocity": 102, "channel": 0}, {"type": "note_off", "time": 274, "note": 83, "velocity": 102, "channel": 0}, {"type": "note_on", "time": 126, "note": 78, "velocity": 115, "channel": 0}, {"type": "note_off", "time": 213, "note": 78, "velocity": 115, "channel": 0}, {"type": "note_on", "time": 83, "note": 76, "velocity": 114, "channel": 0}, {"type": "note_off", "time": 126, "note": 76, "velocity": 114, "channel": 0}, {"type": "note_on", "time": 47, "note": 78, "velocity": 114, "channel": 0}, {"type": "note_off", "time": 249, "note": 78, "velocity": 114, "channel": 0}, {"type": "note_on", "time": 39, "note": 80, "velocity": 114, "channel": 0}, {"type": "note_off", "time": 242, "note": 80, "velocity": 114, "channel": 0}, {"type": "note_on", "time": 68, "note": 78, "velocity": 114, "channel": 0}, {"type": "note_off", "time": 137, "note": 78, "velocity": 114, "channel": 0}, {"type": "note_on", "time": 79, "note": 80, "velocity": 117, "channel": 0}, {"type": "note_off", "time": 180, "note": 80, "velocity": 117, "channel": 0}, {"type": "note_on", "time": 43, "note": 83, "velocity": 100, "channel": 0}, {"type": "note_off", "time": 224, "note": 83, "velocity": 100, "channel": 0}, {"type": "note_on", "time": 1011, "note": 71, "velocity": 108, "channel": 0}, {"type": "note_off", "time": 130, "note": 71, "velocity": 108, "channel": 0}, {"type": "note_on", "time": 73, "note": 73, "velocity": 100, "channel": 0}, {"type": "note_off", "time": 253, "note": 73, "velocity": 100, "channel": 0}, {"type": "note_on", "time": 82, "note": 71, "velocity": 112, "channel": 0}, {"type": "note_off", "time": 169, "note": 71, "velocity": 112, "channel": 0}, {"type": "note_on", "time": 109, "note": 78, "velocity": 115, "channel": 0}, {"type": "note_off", "time": 242, "note": 78, "velocity": 115, "channel": 0}, {"type": "note_on", "time": 25, "note": 83, "velocity": 98, "channel": 0}, {"type": "note_off", "time": 151, "note": 83, "velocity": 98, "channel": 0}, {"type": "note_on", "time": 72, "note": 80, "velocity": 115, "channel": 0}, {"type": "note_off", "time": 274, "note": 80, "velocity": 115, "channel": 0}, {"type": "note_on", "time": 61, "note": 78, "velocity": 111, "channel": 0}, {"type": "note_off", "time": 180, "note": 78, "velocity": 111, "channel": 0}, {"type": "note_on", "time": 68, "note": 80, "velocity": 115, "channel": 0}, {"type": "note_off", "time": 209, "note": 80, "velocity": 115, "channel": 0}, {"type": "note_on", "time": 19, "note": 83, "velocity": 111, "channel": 0}, {"type": "note_off", "time": 202, "note": 83, "velocity": 111, "channel": 0}, {"type": "note_on", "time": 59, "note": 78, "velocity": 113, "channel": 0}, {"type": "note_off", "time": 195, "note": 78, "velocity": 113, "channel": 0}, {"type": "note_on", "time": 39, "note": 80, "velocity": 111, "channel": 0}, {"type": "note_off", "time": 169, "note": 80, "velocity": 111, "channel": 0}, {"type": "note_on", "time": 43, "note": 83, "velocity": 110, "channel": 0}, {"type": "note_off", "time": 296, "note": 83, "velocity": 110, "channel": 0}, {"type": "note_on", "time": 65, "note": 80, "velocity": 110, "channel": 0}, {"type": "note_off", "time": 169, "note": 80, "velocity": 110, "channel": 0}, {"type": "note_on", "time": 54, "note": 83, "velocity": 113, "channel": 0}, {"type": "note_off", "time": 198, "note": 83, "velocity": 113, "channel": 0}, {"type": "note_on", "time": 57, "note": 85, "velocity": 102, "channel": 0}, {"type": "note_off", "time": 238, "note": 85, "velocity": 102, "channel": 0}, {"type": "note_on", "time": 974, "note": 83, "velocity": 105, "channel": 0}, {"type": "note_off", "time": 274, "note": 83, "velocity": 105, "channel": 0}, {"type": "note_on", "time": 71, "note": 85, "velocity": 91, "channel": 0}, {"type": "note_off", "time": 137, "note": 85, "velocity": 91, "channel": 0}, {"type": "note_on", "time": 66, "note": 83, "velocity": 112, "channel": 0}, {"type": "note_off", "time": 233, "note": 83, "velocity": 112, "channel": 0}, {"type": "note_on", "time": 91, "note": 78, "velocity": 109, "channel": 0}, {"type": "note_off", "time": 208, "note": 78, "velocity": 109, "channel": 0}, {"type": "note_on", "time": 45, "note": 71, "velocity": 95, "channel": 0}, {"type": "note_off", "time": 213, "note": 71, "velocity": 95, "channel": 0}, {"type": "note_on", "time": 66, "note": 78, "velocity": 113, "channel": 0}, {"type": "note_off", "time": 269, "note": 78, "velocity": 113, "channel": 0}, {"type": "note_on", "time": 30, "note": 83, "velocity": 92, "channel": 0}, {"type": "note_off", "time": 148, "note": 83, "velocity": 92, "channel": 0}, {"type": "note_on", "time": 65, "note": 80, "velocity": 116, "channel": 0}, {"type": "note_off", "time": 218, "note": 80, "velocity": 116, "channel": 0}, {"type": "note_on", "time": 45, "note": 83, "velocity": 114, "channel": 0}, {"type": "note_off", "time": 183, "note": 83, "velocity": 114, "channel": 0}, {"type": "note_on", "time": 183, "note": 78, "velocity": 114, "channel": 0}, {"type": "note_off", "time": 223, "note": 78, "velocity": 114, "channel": 0}, {"type": "note_on", "time": 10, "note": 83, "velocity": 109, "channel": 0}, {"type": "note_off", "time": 249, "note": 83, "velocity": 109, "channel": 0}, {"type": "note_on", "time": 111, "note": 85, "velocity": 101, "channel": 0}, {"type": "note_off", "time": 188, "note": 85, "velocity": 101, "channel": 0}, {"type": "note_on", "time": 111, "note": 83, "velocity": 111, "channel": 0}, {"type": "note_off", "time": 228, "note": 83, "velocity": 111, "channel": 0}, {"type": "note_on", "time": 45, "note": 85, "velocity": 108, "channel": 0}, {"type": "note_off", "time": 122, "note": 85, "velocity": 108, "channel": 0}, {"type": "note_on", "time": 76, "note": 83, "velocity": 105, "channel": 0}, {"type": "note_off", "time": 3081, "note": 83, "velocity": 105, "channel": 0}, {"type": "note_on", "time": 76, "note": 85, "velocity": 82, "channel": 0}, {"type": "note_off", "time": 50, "note": 85, "velocity": 82, "channel": 0}, {"type": "note_on", "time": 57, "note": 86, "velocity": 104, "channel": 0}, {"type": "note_off", "time": 83, "note": 86, "velocity": 104, "channel": 0}, {"type": "note_on", "time": 82, "note": 87, "velocity": 105, "channel": 0}, {"type": "note_off", "time": 1052, "note": 87, "velocity": 105, "channel": 0}, {"type": "note_on", "time": 116, "note": 85, "velocity": 99, "channel": 0}, {"type": "note_off", "time": 142, "note": 85, "velocity": 99, "channel": 0}, {"type": "note_on", "time": 69, "note": 83, "velocity": 105, "channel": 0}, {"type": "note_off", "time": 216, "note": 83, "velocity": 105, "channel": 0}, {"type": "note_on", "time": 231, "note": 87, "velocity": 104, "channel": 0}, {"type": "note_off", "time": 365, "note": 87, "velocity": 104, "channel": 0}, {"type": "note_on", "time": 72, "note": 86, "velocity": 98, "channel": 0}, {"type": "note_off", "time": 260, "note": 86, "velocity": 98, "channel": 0}, {"type": "note_on", "time": 528, "note": 87, "velocity": 96, "channel": 0}, {"type": "note_off", "time": 269, "note": 87, "velocity": 96, "channel": 0}, {"type": "note_on", "time": 111, "note": 85, "velocity": 108, "channel": 0}, {"type": "note_off", "time": 228, "note": 85, "velocity": 108, "channel": 0}, {"type": "note_on", "time": 411, "note": 86, "velocity": 99, "channel": 0}, {"type": "note_off", "time": 137, "note": 86, "velocity": 99, "channel": 0}, {"type": "note_on", "time": 50, "note": 87, "velocity": 99, "channel": 0}, {"type": "note_off", "time": 401, "note": 87, "velocity": 99, "channel": 0}, {"type": "note_on", "time": 86, "note": 85, "velocity": 100, "channel": 0}, {"type": "note_off", "time": 264, "note": 85, "velocity": 100, "channel": 0}, {"type": "note_on", "time": 223, "note": 86, "velocity": 99, "channel": 0}, {"type": "note_off", "time": 239, "note": 86, "velocity": 99, "channel": 0}, {"type": "note_on", "time": 45, "note": 87, "velocity": 107, "channel": 0}, {"type": "note_off", "time": 620, "note": 87, "velocity": 107, "channel": 0}, {"type": "note_on", "time": 61, "note": 85, "velocity": 104, "channel": 0}, {"type": "note_off", "time": 172, "note": 85, "velocity": 104, "channel": 0}, {"type": "note_on", "time": 147, "note": 83, "velocity": 105, "channel": 0}, {"type": "note_off", "time": 1210, "note": 83, "velocity": 105, "channel": 0}, {"type": "note_on", "time": 183, "note": 80, "velocity": 111, "channel": 0}, {"type": "note_off", "time": 691, "note": 80, "velocity": 111, "channel": 0}, {"type": "note_on", "time": 86, "note": 75, "velocity": 113, "channel": 0}, {"type": "note_off", "time": 1683, "note": 75, "velocity": 113, "channel": 0}, {"type": "note_on", "time": 146, "note": 73, "velocity": 111, "channel": 0}, {"type": "note_off", "time": 177, "note": 73, "velocity": 111, "channel": 0}, {"type": "note_on", "time": 47, "note": 75, "velocity": 117, "channel": 0}, {"type": "note_off", "time": 130, "note": 75, "velocity": 117, "channel": 0}, {"type": "note_on", "time": 65, "note": 78, "velocity": 104, "channel": 0}, {"type": "note_off", "time": 83, "note": 78, "velocity": 104, "channel": 0}, {"type": "note_on", "time": 36, "note": 80, "velocity": 114, "channel": 0}, {"type": "note_off", "time": 94, "note": 80, "velocity": 114, "channel": 0}, {"type": "note_on", "time": 32, "note": 83, "velocity": 110, "channel": 0}, {"type": "note_off", "time": 104, "note": 83, "velocity": 110, "channel": 0}, {"type": "note_on", "time": 43, "note": 80, "velocity": 120, "channel": 0}, {"type": "note_off", "time": 104, "note": 80, "velocity": 120, "channel": 0}, {"type": "note_on", "time": 75, "note": 75, "velocity": 124, "channel": 0}, {"type": "note_off", "time": 202, "note": 75, "velocity": 124, "channel": 0}, {"type": "note_on", "time": 622, "note": 75, "velocity": 116, "channel": 0}, {"type": "note_off", "time": 227, "note": 75, "velocity": 116, "channel": 0}, {"type": "note_on", "time": 629, "note": 75, "velocity": 116, "channel": 0}, {"type": "note_off", "time": 256, "note": 75, "velocity": 116, "channel": 0}, {"type": "note_on", "time": 538, "note": 75, "velocity": 110, "channel": 0}, {"type": "note_off", "time": 2187, "note": 75, "velocity": 110, "channel": 0}, {"type": "note_on", "time": 50, "note": 73, "velocity": 111, "channel": 0}, {"type": "note_off", "time": 314, "note": 73, "velocity": 111, "channel": 0}, {"type": "note_on", "time": 28, "note": 71, "velocity": 100, "channel": 0}, {"type": "note_off", "time": 723, "note": 71, "velocity": 100, "channel": 0}, {"type": "note_on", "time": 112, "note": 68, "velocity": 99, "channel": 0}, {"type": "note_off", "time": 347, "note": 68, "velocity": 99, "channel": 0}, {"type": "note_on", "time": 86, "note": 63, "velocity": 108, "channel": 0}, {"type": "note_off", "time": 1240, "note": 63, "velocity": 108, "channel": 0}, {"type": "note_on", "time": 1790, "note": 63, "velocity": 121, "channel": 0}, {"type": "note_off", "time": 405, "note": 63, "velocity": 121, "channel": 0}, {"type": "note_on", "time": 39, "note": 61, "velocity": 113, "channel": 0}, {"type": "note_off", "time": 231, "note": 61, "velocity": 113, "channel": 0}, {"type": "note_on", "time": 79, "note": 66, "velocity": 110, "channel": 0}, {"type": "note_off", "time": 3139, "note": 66, "velocity": 110, "channel": 0}, {"type": "note_on", "time": 205, "note": 61, "velocity": 107, "channel": 0}, {"type": "note_off", "time": 325, "note": 61, "velocity": 107, "channel": 0}, {"type": "note_on", "time": 147, "note": 66, "velocity": 105, "channel": 0}, {"type": "note_off", "time": 218, "note": 66, "velocity": 105, "channel": 0}, {"type": "note_on", "time": 147, "note": 71, "velocity": 98, "channel": 0}, {"type": "note_off", "time": 157, "note": 71, "velocity": 98, "channel": 0}, {"type": "note_on", "time": 45, "note": 73, "velocity": 116, "channel": 0}, {"type": "note_off", "time": 111, "note": 73, "velocity": 116, "channel": 0}, {"type": "note_on", "time": 86, "note": 75, "velocity": 111, "channel": 0}, {"type": "note_off", "time": 86, "note": 75, "velocity": 111, "channel": 0}, {"type": "note_on", "time": 76, "note": 78, "velocity": 110, "channel": 0}, {"type": "note_off", "time": 2268, "note": 78, "velocity": 110, "channel": 0}, {"type": "note_on", "time": 66, "note": 75, "velocity": 116, "channel": 0}, {"type": "note_off", "time": 188, "note": 75, "velocity": 116, "channel": 0}, {"type": "note_on", "time": 73, "note": 78, "velocity": 91, "channel": 0}, {"type": "note_off", "time": 83, "note": 78, "velocity": 91, "channel": 0}, {"type": "note_on", "time": 30, "note": 83, "velocity": 97, "channel": 0}, {"type": "note_off", "time": 129, "note": 83, "velocity": 97, "channel": 0}, {"type": "note_on", "time": 12, "note": 80, "velocity": 108, "channel": 0}, {"type": "note_off", "time": 78, "note": 80, "velocity": 108, "channel": 0}, {"type": "note_on", "time": 43, "note": 78, "velocity": 109, "channel": 0}, {"type": "note_off", "time": 55, "note": 78, "velocity": 109, "channel": 0}, {"type": "note_on", "time": 55, "note": 75, "velocity": 117, "channel": 0}, {"type": "note_off", "time": 180, "note": 75, "velocity": 117, "channel": 0}, {"type": "note_on", "time": 22, "note": 73, "velocity": 114, "channel": 0}, {"type": "note_off", "time": 132, "note": 73, "velocity": 114, "channel": 0}, {"type": "note_on", "time": 58, "note": 75, "velocity": 115, "channel": 0}, {"type": "note_off", "time": 139, "note": 75, "velocity": 115, "channel": 0}, {"type": "note_on", "time": 25, "note": 78, "velocity": 102, "channel": 0}, {"type": "note_off", "time": 55, "note": 78, "velocity": 102, "channel": 0}, {"type": "note_on", "time": 38, "note": 83, "velocity": 96, "channel": 0}, {"type": "note_off", "time": 83, "note": 83, "velocity": 96, "channel": 0}, {"type": "note_on", "time": 35, "note": 80, "velocity": 103, "channel": 0}, {"type": "note_off", "time": 119, "note": 80, "velocity": 103, "channel": 0}, {"type": "note_on", "time": 53, "note": 75, "velocity": 117, "channel": 0}, {"type": "note_off", "time": 221, "note": 75, "velocity": 117, "channel": 0}, {"type": "note_on", "time": 35, "note": 73, "velocity": 114, "channel": 0}, {"type": "note_off", "time": 180, "note": 73, "velocity": 114, "channel": 0}, {"type": "note_on", "time": 43, "note": 71, "velocity": 96, "channel": 0}, {"type": "note_off", "time": 150, "note": 71, "velocity": 96, "channel": 0}, {"type": "note_on", "time": 43, "note": 68, "velocity": 101, "channel": 0}, {"type": "note_off", "time": 178, "note": 68, "velocity": 101, "channel": 0}, {"type": "note_on", "time": 66, "note": 66, "velocity": 106, "channel": 0}, {"type": "note_off", "time": 185, "note": 66, "velocity": 106, "channel": 0}, {"type": "note_on", "time": 27, "note": 63, "velocity": 112, "channel": 0}, {"type": "note_off", "time": 86, "note": 63, "velocity": 112, "channel": 0}, {"type": "note_on", "time": 73, "note": 66, "velocity": 100, "channel": 0}, {"type": "note_off", "time": 2259, "note": 66, "velocity": 100, "channel": 0}, {"type": "note_on", "time": 50, "note": 64, "velocity": 108, "channel": 0}, {"type": "note_off", "time": 155, "note": 64, "velocity": 108, "channel": 0}, {"type": "note_on", "time": 26, "note": 66, "velocity": 100, "channel": 0}, {"type": "note_off", "time": 112, "note": 66, "velocity": 100, "channel": 0}, {"type": "note_on", "time": 16, "note": 71, "velocity": 103, "channel": 0}, {"type": "note_off", "time": 144, "note": 71, "velocity": 103, "channel": 0}, {"type": "note_on", "time": 101, "note": 61, "velocity": 115, "channel": 0}, {"type": "note_off", "time": 253, "note": 61, "velocity": 115, "channel": 0}, {"type": "note_on", "time": 75, "note": 63, "velocity": 115, "channel": 0}, {"type": "note_off", "time": 133, "note": 63, "velocity": 115, "channel": 0}, {"type": "note_on", "time": 28, "note": 66, "velocity": 106, "channel": 0}, {"type": "note_off", "time": 148, "note": 66, "velocity": 106, "channel": 0}, {"type": "note_on", "time": 54, "note": 68, "velocity": 103, "channel": 0}, {"type": "note_off", "time": 137, "note": 68, "velocity": 103, "channel": 0}, {"type": "note_on", "time": 64, "note": 71, "velocity": 100, "channel": 0}, {"type": "note_off", "time": 122, "note": 71, "velocity": 100, "channel": 0}, {"type": "note_on", "time": 51, "note": 73, "velocity": 117, "channel": 0}, {"type": "note_off", "time": 173, "note": 73, "velocity": 117, "channel": 0}, {"type": "note_on", "time": 61, "note": 75, "velocity": 121, "channel": 0}, {"type": "note_off", "time": 119, "note": 75, "velocity": 121, "channel": 0}, {"type": "note_on", "time": 43, "note": 78, "velocity": 117, "channel": 0}, {"type": "note_off", "time": 441, "note": 78, "velocity": 117, "channel": 0}, {"type": "note_on", "time": 2943, "note": 75, "velocity": 118, "channel": 0}, {"type": "note_off", "time": 1594, "note": 75, "velocity": 118, "channel": 0}, {"type": "note_on", "time": 104, "note": 73, "velocity": 116, "channel": 0}, {"type": "note_off", "time": 318, "note": 73, "velocity": 116, "channel": 0}, {"type": "note_on", "time": 57, "note": 73, "velocity": 120, "channel": 0}, {"type": "note_off", "time": 918, "note": 73, "velocity": 120, "channel": 0}, {"type": "note_on", "time": 51, "note": 71, "velocity": 105, "channel": 0}, {"type": "note_off", "time": 91, "note": 71, "velocity": 105, "channel": 0}, {"type": "note_on", "time": 76, "note": 68, "velocity": 113, "channel": 0}, {"type": "note_off", "time": 91, "note": 68, "velocity": 113, "channel": 0}, {"type": "note_on", "time": 45, "note": 66, "velocity": 113, "channel": 0}, {"type": "note_off", "time": 50, "note": 66, "velocity": 113, "channel": 0}, {"type": "note_on", "time": 66, "note": 63, "velocity": 113, "channel": 0}, {"type": "note_off", "time": 45, "note": 63, "velocity": 113, "channel": 0}, {"type": "note_on", "time": 50, "note": 62, "velocity": 109, "channel": 0}, {"type": "note_off", "time": 122, "note": 62, "velocity": 109, "channel": 0}, {"type": "note_on", "time": 25, "note": 61, "velocity": 105, "channel": 0}, {"type": "note_off", "time": 1581, "note": 61, "velocity": 105, "channel": 0}, {"type": "note_on", "time": 142, "note": 78, "velocity": 117, "channel": 0}, {"type": "note_off", "time": 661, "note": 78, "velocity": 117, "channel": 0}, {"type": "note_on", "time": 64, "note": 75, "velocity": 117, "channel": 0}, {"type": "note_off", "time": 94, "note": 75, "velocity": 117, "channel": 0}, {"type": "note_on", "time": 61, "note": 73, "velocity": 115, "channel": 0}, {"type": "note_off", "time": 119, "note": 73, "velocity": 115, "channel": 0}, {"type": "note_on", "time": 54, "note": 70, "velocity": 103, "channel": 0}, {"type": "note_off", "time": 72, "note": 70, "velocity": 103, "channel": 0}, {"type": "note_on", "time": 37, "note": 69, "velocity": 112, "channel": 0}, {"type": "note_off", "time": 81, "note": 69, "velocity": 112, "channel": 0}, {"type": "note_on", "time": 30, "note": 68, "velocity": 112, "channel": 0}, {"type": "note_off", "time": 104, "note": 68, "velocity": 112, "channel": 0}, {"type": "note_on", "time": 0, "note": 66, "velocity": 111, "channel": 0}, {"type": "note_off", "time": 372, "note": 66, "velocity": 111, "channel": 0}, {"type": "note_on", "time": 79, "note": 73, "velocity": 112, "channel": 0}, {"type": "note_off", "time": 567, "note": 73, "velocity": 112, "channel": 0}, {"type": "note_on", "time": 45, "note": 71, "velocity": 104, "channel": 0}, {"type": "note_off", "time": 112, "note": 71, "velocity": 104, "channel": 0}, {"type": "note_on", "time": 15, "note": 68, "velocity": 107, "channel": 0}, {"type": "note_off", "time": 90, "note": 68, "velocity": 107, "channel": 0}, {"type": "note_on", "time": 21, "note": 67, "velocity": 109, "channel": 0}, {"type": "note_off", "time": 68, "note": 67, "velocity": 109, "channel": 0}, {"type": "note_on", "time": 25, "note": 66, "velocity": 108, "channel": 0}, {"type": "note_off", "time": 50, "note": 66, "velocity": 108, "channel": 0}, {"type": "note_on", "time": 10, "note": 64, "velocity": 113, "channel": 0}, {"type": "note_off", "time": 40, "note": 64, "velocity": 113, "channel": 0}, {"type": "note_on", "time": 22, "note": 63, "velocity": 109, "channel": 0}, {"type": "note_off", "time": 91, "note": 63, "velocity": 109, "channel": 0}, {"type": "note_on", "time": 43, "note": 61, "velocity": 105, "channel": 0}, {"type": "note_off", "time": 433, "note": 61, "velocity": 105, "channel": 0}, {"type": "note_on", "time": 85, "note": 78, "velocity": 107, "channel": 0}, {"type": "note_off", "time": 528, "note": 78, "velocity": 107, "channel": 0}, {"type": "note_on", "time": 25, "note": 75, "velocity": 109, "channel": 0}, {"type": "note_off", "time": 79, "note": 75, "velocity": 109, "channel": 0}, {"type": "note_on", "time": 25, "note": 73, "velocity": 110, "channel": 0}, {"type": "note_off", "time": 72, "note": 73, "velocity": 110, "channel": 0}, {"type": "note_on", "time": 68, "note": 71, "velocity": 114, "channel": 0}, {"type": "note_off", "time": 83, "note": 71, "velocity": 114, "channel": 0}, {"type": "note_on", "time": 28, "note": 68, "velocity": 101, "channel": 0}, {"type": "note_off", "time": 90, "note": 68, "velocity": 101, "channel": 0}, {"type": "note_on", "time": 32, "note": 67, "velocity": 115, "channel": 0}, {"type": "note_off", "time": 75, "note": 67, "velocity": 115, "channel": 0}, {"type": "note_on", "time": 43, "note": 66, "velocity": 112, "channel": 0}, {"type": "note_off", "time": 336, "note": 66, "velocity": 112, "channel": 0}, {"type": "note_on", "time": 50, "note": 73, "velocity": 110, "channel": 0}, {"type": "note_off", "time": 484, "note": 73, "velocity": 110, "channel": 0}, {"type": "note_on", "time": 72, "note": 70, "velocity": 108, "channel": 0}, {"type": "note_off", "time": 101, "note": 70, "velocity": 108, "channel": 0}, {"type": "note_on", "time": 21, "note": 67, "velocity": 108, "channel": 0}, {"type": "note_off", "time": 68, "note": 67, "velocity": 108, "channel": 0}, {"type": "note_on", "time": 28, "note": 66, "velocity": 107, "channel": 0}, {"type": "note_off", "time": 79, "note": 66, "velocity": 107, "channel": 0}, {"type": "note_on", "time": 28, "note": 63, "velocity": 112, "channel": 0}, {"type": "note_off", "time": 162, "note": 63, "velocity": 112, "channel": 0}, {"type": "note_on", "time": 28, "note": 62, "velocity": 108, "channel": 0}, {"type": "note_off", "time": 122, "note": 62, "velocity": 108, "channel": 0}, {"type": "note_on", "time": 50, "note": 61, "velocity": 98, "channel": 0}, {"type": "note_off", "time": 716, "note": 61, "velocity": 98, "channel": 0}, {"type": "note_on", "time": 245, "note": 66, "velocity": 98, "channel": 0}, {"type": "note_off", "time": 213, "note": 66, "velocity": 98, "channel": 0}, {"type": "note_on", "time": 139, "note": 78, "velocity": 110, "channel": 0}, {"type": "note_off", "time": 274, "note": 78, "velocity": 110, "channel": 0}, {"type": "note_on", "time": 60, "note": 75, "velocity": 109, "channel": 0}, {"type": "note_off", "time": 101, "note": 75, "velocity": 109, "channel": 0}, {"type": "note_on", "time": 10, "note": 74, "velocity": 99, "channel": 0}, {"type": "note_off", "time": 91, "note": 74, "velocity": 99, "channel": 0}, {"type": "note_on", "time": 0, "note": 71, "velocity": 96, "channel": 0}, {"type": "note_off", "time": 75, "note": 71, "velocity": 96, "channel": 0}, {"type": "note_on", "time": 59, "note": 68, "velocity": 109, "channel": 0}, {"type": "note_off", "time": 104, "note": 68, "velocity": 109, "channel": 0}, {"type": "note_on", "time": 36, "note": 67, "velocity": 108, "channel": 0}, {"type": "note_off", "time": 72, "note": 67, "velocity": 108, "channel": 0}, {"type": "note_on", "time": 61, "note": 66, "velocity": 102, "channel": 0}, {"type": "note_off", "time": 151, "note": 66, "velocity": 102, "channel": 0}, {"type": "note_on", "time": 54, "note": 73, "velocity": 101, "channel": 0}, {"type": "note_off", "time": 556, "note": 73, "velocity": 101, "channel": 0}, {"type": "note_on", "time": 57, "note": 70, "velocity": 109, "channel": 0}, {"type": "note_off", "time": 83, "note": 70, "velocity": 109, "channel": 0}, {"type": "note_on", "time": 17, "note": 68, "velocity": 113, "channel": 0}, {"type": "note_on", "time": 101, "note": 67, "velocity": 109, "channel": 0}, {"type": "note_off", "time": 0, "note": 68, "velocity": 113, "channel": 0}, {"type": "note_off", "time": 65, "note": 67, "velocity": 109, "channel": 0}, {"type": "note_on", "time": 16, "note": 66, "velocity": 104, "channel": 0}, {"type": "note_off", "time": 71, "note": 66, "velocity": 104, "channel": 0}, {"type": "note_on", "time": 13, "note": 63, "velocity": 108, "channel": 0}, {"type": "note_off", "time": 122, "note": 63, "velocity": 108, "channel": 0}, {"type": "note_on", "time": 39, "note": 62, "velocity": 104, "channel": 0}, {"type": "note_off", "time": 94, "note": 62, "velocity": 104, "channel": 0}, {"type": "note_on", "time": 54, "note": 61, "velocity": 98, "channel": 0}, {"type": "note_off", "time": 1634, "note": 61, "velocity": 98, "channel": 0}, {"type": "note_on", "time": 311, "note": 64, "velocity": 105, "channel": 0}, {"type": "note_off", "time": 549, "note": 64, "velocity": 105, "channel": 0}, {"type": "note_on", "time": 94, "note": 68, "velocity": 109, "channel": 0}, {"type": "note_off", "time": 444, "note": 68, "velocity": 109, "channel": 0}, {"type": "note_on", "time": 2321, "note": 64, "velocity": 116, "channel": 0}, {"type": "note_off", "time": 148, "note": 64, "velocity": 116, "channel": 0}, {"type": "note_on", "time": 57, "note": 66, "velocity": 109, "channel": 0}, {"type": "note_off", "time": 104, "note": 66, "velocity": 109, "channel": 0}, {"type": "note_on", "time": 90, "note": 68, "velocity": 108, "channel": 0}, {"type": "note_off", "time": 155, "note": 68, "velocity": 108, "channel": 0}, {"type": "note_on", "time": 61, "note": 71, "velocity": 103, "channel": 0}, {"type": "note_off", "time": 119, "note": 71, "velocity": 103, "channel": 0}, {"type": "note_on", "time": 36, "note": 73, "velocity": 115, "channel": 0}, {"type": "note_off", "time": 151, "note": 73, "velocity": 115, "channel": 0}, {"type": "note_on", "time": 50, "note": 75, "velocity": 113, "channel": 0}, {"type": "note_off", "time": 79, "note": 75, "velocity": 113, "channel": 0}, {"type": "note_on", "time": 25, "note": 78, "velocity": 110, "channel": 0}, {"type": "note_off", "time": 97, "note": 78, "velocity": 110, "channel": 0}, {"type": "note_on", "time": 47, "note": 80, "velocity": 111, "channel": 0}, {"type": "note_off", "time": 68, "note": 80, "velocity": 111, "channel": 0}, {"type": "note_on", "time": 32, "note": 83, "velocity": 110, "channel": 0}, {"type": "note_off", "time": 151, "note": 83, "velocity": 110, "channel": 0}, {"type": "note_on", "time": 32, "note": 85, "velocity": 94, "channel": 0}, {"type": "note_off", "time": 253, "note": 85, "velocity": 94, "channel": 0}, {"type": "note_on", "time": 412, "note": 83, "velocity": 99, "channel": 0}, {"type": "note_off", "time": 213, "note": 83, "velocity": 99, "channel": 0}, {"type": "note_on", "time": 499, "note": 85, "velocity": 87, "channel": 0}, {"type": "note_off", "time": 180, "note": 85, "velocity": 87, "channel": 0}, {"type": "note_on", "time": 470, "note": 63, "velocity": 107, "channel": 0}, {"type": "note_off", "time": 947, "note": 63, "velocity": 107, "channel": 0}, {"type": "note_on", "time": 151, "note": 61, "velocity": 104, "channel": 0}, {"type": "note_off", "time": 144, "note": 61, "velocity": 104, "channel": 0}, {"type": "note_on", "time": 79, "note": 63, "velocity": 109, "channel": 0}, {"type": "note_off", "time": 426, "note": 63, "velocity": 109, "channel": 0}, {"type": "note_on", "time": 65, "note": 61, "velocity": 99, "channel": 0}, {"type": "note_off", "time": 159, "note": 61, "velocity": 99, "channel": 0}, {"type": "note_on", "time": 643, "note": 85, "velocity": 93, "channel": 0}, {"type": "note_off", "time": 132, "note": 85, "velocity": 93, "channel": 0}, {"type": "note_on", "time": 30, "note": 83, "velocity": 96, "channel": 0}, {"type": "note_off", "time": 81, "note": 83, "velocity": 96, "channel": 0}, {"type": "note_on", "time": 25, "note": 80, "velocity": 106, "channel": 0}, {"type": "note_off", "time": 40, "note": 80, "velocity": 106, "channel": 0}, {"type": "note_on", "time": 25, "note": 79, "velocity": 113, "channel": 0}, {"type": "note_off", "time": 86, "note": 79, "velocity": 113, "channel": 0}, {"type": "note_on", "time": 50, "note": 75, "velocity": 114, "channel": 0}, {"type": "note_off", "time": 340, "note": 75, "velocity": 114, "channel": 0}, {"type": "note_on", "time": 106, "note": 73, "velocity": 113, "channel": 0}, {"type": "note_off", "time": 289, "note": 73, "velocity": 113, "channel": 0}, {"type": "note_on", "time": 539, "note": 70, "velocity": 109, "channel": 0}, {"type": "note_off", "time": 203, "note": 70, "velocity": 109, "channel": 0}, {"type": "note_on", "time": 202, "note": 63, "velocity": 102, "channel": 0}, {"type": "note_off", "time": 549, "note": 63, "velocity": 102, "channel": 0}, {"type": "note_on", "time": 157, "note": 63, "velocity": 107, "channel": 0}, {"type": "note_off", "time": 752, "note": 63, "velocity": 107, "channel": 0}, {"type": "note_on", "time": 81, "note": 61, "velocity": 93, "channel": 0}, {"type": "note_off", "time": 330, "note": 61, "velocity": 93, "channel": 0}, {"type": "note_on", "time": 895, "note": 85, "velocity": 89, "channel": 0}, {"type": "note_off", "time": 104, "note": 85, "velocity": 89, "channel": 0}, {"type": "note_on", "time": 47, "note": 83, "velocity": 97, "channel": 0}, {"type": "note_off", "time": 68, "note": 83, "velocity": 97, "channel": 0}, {"type": "note_on", "time": 23, "note": 80, "velocity": 113, "channel": 0}, {"type": "note_off", "time": 68, "note": 80, "velocity": 113, "channel": 0}, {"type": "note_on", "time": 28, "note": 78, "velocity": 119, "channel": 0}, {"type": "note_off", "time": 43, "note": 78, "velocity": 119, "channel": 0}, {"type": "note_on", "time": 43, "note": 75, "velocity": 112, "channel": 0}, {"type": "note_off", "time": 502, "note": 75, "velocity": 112, "channel": 0}, {"type": "note_on", "time": 47, "note": 73, "velocity": 110, "channel": 0}, {"type": "note_off", "time": 549, "note": 73, "velocity": 110, "channel": 0}, {"type": "note_on", "time": 55, "note": 70, "velocity": 105, "channel": 0}, {"type": "note_off", "time": 66, "note": 70, "velocity": 105, "channel": 0}, {"type": "note_on", "time": 48, "note": 68, "velocity": 110, "channel": 0}, {"type": "note_off", "time": 114, "note": 68, "velocity": 110, "channel": 0}, {"type": "note_on", "time": 17, "note": 66, "velocity": 105, "channel": 0}, {"type": "note_off", "time": 109, "note": 66, "velocity": 105, "channel": 0}, {"type": "note_on", "time": 25, "note": 63, "velocity": 101, "channel": 0}, {"type": "note_off", "time": 178, "note": 63, "velocity": 101, "channel": 0}, {"type": "note_on", "time": 33, "note": 61, "velocity": 102, "channel": 0}, {"type": "note_off", "time": 162, "note": 61, "velocity": 102, "channel": 0}, {"type": "note_on", "time": 39, "note": 63, "velocity": 104, "channel": 0}, {"type": "note_off", "time": 1852, "note": 63, "velocity": 104, "channel": 0}, {"type": "note_on", "time": 67, "note": 61, "velocity": 99, "channel": 0}, {"type": "note_off", "time": 202, "note": 61, "velocity": 99, "channel": 0}, {"type": "note_on", "time": 112, "note": 64, "velocity": 106, "channel": 0}, {"type": "note_off", "time": 448, "note": 64, "velocity": 106, "channel": 0}, {"type": "note_on", "time": 21, "note": 68, "velocity": 109, "channel": 0}, {"type": "note_off", "time": 524, "note": 68, "velocity": 109, "channel": 0}, {"type": "note_on", "time": 1974, "note": 61, "velocity": 111, "channel": 0}, {"type": "note_off", "time": 151, "note": 61, "velocity": 111, "channel": 0}, {"type": "note_on", "time": 39, "note": 63, "velocity": 113, "channel": 0}, {"type": "note_off", "time": 148, "note": 63, "velocity": 113, "channel": 0}, {"type": "note_on", "time": 43, "note": 66, "velocity": 111, "channel": 0}, {"type": "note_off", "time": 126, "note": 66, "velocity": 111, "channel": 0}, {"type": "note_on", "time": 13, "note": 68, "velocity": 109, "channel": 0}, {"type": "note_off", "time": 97, "note": 68, "velocity": 109, "channel": 0}, {"type": "note_on", "time": 54, "note": 71, "velocity": 105, "channel": 0}, {"type": "note_off", "time": 126, "note": 71, "velocity": 105, "channel": 0}, {"type": "note_on", "time": 36, "note": 73, "velocity": 114, "channel": 0}, {"type": "note_off", "time": 169, "note": 73, "velocity": 114, "channel": 0}, {"type": "note_on", "time": 47, "note": 75, "velocity": 114, "channel": 0}, {"type": "note_off", "time": 133, "note": 75, "velocity": 114, "channel": 0}, {"type": "note_on", "time": 36, "note": 78, "velocity": 108, "channel": 0}, {"type": "note_off", "time": 119, "note": 78, "velocity": 108, "channel": 0}, {"type": "note_on", "time": 47, "note": 80, "velocity": 111, "channel": 0}, {"type": "note_off", "time": 115, "note": 80, "velocity": 111, "channel": 0}, {"type": "note_on", "time": 36, "note": 83, "velocity": 109, "channel": 0}, {"type": "note_off", "time": 133, "note": 83, "velocity": 109, "channel": 0}, {"type": "note_on", "time": 56, "note": 85, "velocity": 85, "channel": 0}, {"type": "note_off", "time": 518, "note": 85, "velocity": 85, "channel": 0}, {"type": "note_on", "time": 3, "note": 83, "velocity": 98, "channel": 0}, {"type": "note_off", "time": 578, "note": 83, "velocity": 98, "channel": 0}, {"type": "note_on", "time": 36, "note": 87, "velocity": 103, "channel": 0}, {"type": "note_off", "time": 325, "note": 87, "velocity": 103, "channel": 0}, {"type": "note_on", "time": 54, "note": 86, "velocity": 104, "channel": 0}, {"type": "note_off", "time": 108, "note": 86, "velocity": 104, "channel": 0}, {"type": "note_on", "time": 36, "note": 85, "velocity": 103, "channel": 0}, {"type": "note_off", "time": 97, "note": 85, "velocity": 103, "channel": 0}, {"type": "note_on", "time": 79, "note": 83, "velocity": 101, "channel": 0}, {"type": "note_off", "time": 235, "note": 83, "velocity": 101, "channel": 0}, {"type": "note_on", "time": 61, "note": 87, "velocity": 102, "channel": 0}, {"type": "note_off", "time": 188, "note": 87, "velocity": 102, "channel": 0}, {"type": "note_on", "time": 47, "note": 86, "velocity": 91, "channel": 0}, {"type": "note_off", "time": 90, "note": 86, "velocity": 91, "channel": 0}, {"type": "note_on", "time": 47, "note": 85, "velocity": 92, "channel": 0}, {"type": "note_off", "time": 122, "note": 85, "velocity": 92, "channel": 0}, {"type": "note_on", "time": 21, "note": 84, "velocity": 105, "channel": 0}, {"type": "note_off", "time": 65, "note": 84, "velocity": 105, "channel": 0}, {"type": "note_on", "time": 32, "note": 83, "velocity": 106, "channel": 0}, {"type": "note_off", "time": 274, "note": 83, "velocity": 106, "channel": 0}, {"type": "note_on", "time": 10, "note": 78, "velocity": 117, "channel": 0}, {"type": "note_off", "time": 958, "note": 78, "velocity": 117, "channel": 0}, {"type": "note_on", "time": 25, "note": 76, "velocity": 118, "channel": 0}, {"type": "note_off", "time": 195, "note": 76, "velocity": 118, "channel": 0}, {"type": "note_on", "time": 50, "note": 75, "velocity": 112, "channel": 0}, {"type": "note_off", "time": 144, "note": 75, "velocity": 112, "channel": 0}, {"type": "note_on", "time": 50, "note": 78, "velocity": 116, "channel": 0}, {"type": "note_off", "time": 238, "note": 78, "velocity": 116, "channel": 0}, {"type": "note_on", "time": 21, "note": 77, "velocity": 113, "channel": 0}, {"type": "note_off", "time": 43, "note": 77, "velocity": 113, "channel": 0}, {"type": "note_on", "time": 36, "note": 76, "velocity": 121, "channel": 0}, {"type": "note_off", "time": 169, "note": 76, "velocity": 121, "channel": 0}, {"type": "note_on", "time": 51, "note": 75, "velocity": 109, "channel": 0}, {"type": "note_off", "time": 122, "note": 75, "velocity": 109, "channel": 0}, {"type": "note_on", "time": 21, "note": 78, "velocity": 113, "channel": 0}, {"type": "note_off", "time": 101, "note": 78, "velocity": 113, "channel": 0}, {"type": "note_on", "time": 67, "note": 86, "velocity": 76, "channel": 0}, {"type": "note_off", "time": 269, "note": 86, "velocity": 76, "channel": 0}, {"type": "note_on", "time": 7, "note": 85, "velocity": 85, "channel": 0}, {"type": "note_off", "time": 43, "note": 85, "velocity": 85, "channel": 0}, {"type": "note_on", "time": 17, "note": 84, "velocity": 100, "channel": 0}, {"type": "note_off", "time": 36, "note": 84, "velocity": 100, "channel": 0}, {"type": "note_on", "time": 29, "note": 83, "velocity": 109, "channel": 0}, {"type": "note_off", "time": 195, "note": 83, "velocity": 109, "channel": 0}, {"type": "note_on", "time": 74, "note": 86, "velocity": 84, "channel": 0}, {"type": "note_off", "time": 216, "note": 86, "velocity": 84, "channel": 0}, {"type": "note_on", "time": 18, "note": 85, "velocity": 90, "channel": 0}, {"type": "note_off", "time": 36, "note": 85, "velocity": 90, "channel": 0}, {"type": "note_on", "time": 32, "note": 84, "velocity": 96, "channel": 0}, {"type": "note_off", "time": 25, "note": 84, "velocity": 96, "channel": 0}, {"type": "note_on", "time": 18, "note": 83, "velocity": 100, "channel": 0}, {"type": "note_off", "time": 115, "note": 83, "velocity": 100, "channel": 0}, {"type": "note_on", "time": 43, "note": 86, "velocity": 92, "channel": 0}, {"type": "note_off", "time": 151, "note": 86, "velocity": 92, "channel": 0}, {"type": "note_on", "time": 36, "note": 85, "velocity": 102, "channel": 0}, {"type": "note_off", "time": 61, "note": 85, "velocity": 102, "channel": 0}, {"type": "note_on", "time": 32, "note": 83, "velocity": 104, "channel": 0}, {"type": "note_off", "time": 86, "note": 83, "velocity": 104, "channel": 0}, {"type": "note_on", "time": 21, "note": 82, "velocity": 97, "channel": 0}, {"type": "note_off", "time": 43, "note": 82, "velocity": 97, "channel": 0}, {"type": "note_on", "time": 39, "note": 78, "velocity": 112, "channel": 0}, {"type": "note_off", "time": 943, "note": 78, "velocity": 112, "channel": 0}, {"type": "note_on", "time": 54, "note": 75, "velocity": 47, "channel": 0}, {"type": "note_off", "time": 235, "note": 75, "velocity": 47, "channel": 0}, {"type": "note_on", "time": 36, "note": 78, "velocity": 114, "channel": 0}, {"type": "note_off", "time": 224, "note": 78, "velocity": 114, "channel": 0}, {"type": "note_on", "time": 21, "note": 75, "velocity": 116, "channel": 0}, {"type": "note_off", "time": 195, "note": 75, "velocity": 116, "channel": 0}, {"type": "note_on", "time": 32, "note": 78, "velocity": 114, "channel": 0}, {"type": "note_off", "time": 177, "note": 78, "velocity": 114, "channel": 0}, {"type": "note_on", "time": 50, "note": 75, "velocity": 113, "channel": 0}, {"type": "note_off", "time": 195, "note": 75, "velocity": 113, "channel": 0}, {"type": "note_on", "time": 72, "note": 71, "velocity": 100, "channel": 0}, {"type": "note_off", "time": 166, "note": 71, "velocity": 100, "channel": 0}, {"type": "note_on", "time": 115, "note": 66, "velocity": 110, "channel": 0}, {"type": "note_off", "time": 253, "note": 66, "velocity": 110, "channel": 0}, {"type": "note_on", "time": 54, "note": 64, "velocity": 113, "channel": 0}, {"type": "note_off", "time": 144, "note": 64, "velocity": 113, "channel": 0}, {"type": "note_on", "time": 25, "note": 66, "velocity": 110, "channel": 0}, {"type": "note_off", "time": 97, "note": 66, "velocity": 110, "channel": 0}, {"type": "note_on", "time": 50, "note": 68, "velocity": 111, "channel": 0}, {"type": "note_off", "time": 155, "note": 68, "velocity": 111, "channel": 0}, {"type": "note_on", "time": 32, "note": 71, "velocity": 106, "channel": 0}, {"type": "note_off", "time": 112, "note": 71, "velocity": 106, "channel": 0}, {"type": "note_on", "time": 36, "note": 73, "velocity": 114, "channel": 0}, {"type": "note_off", "time": 141, "note": 73, "velocity": 114, "channel": 0}, {"type": "note_on", "time": 25, "note": 75, "velocity": 116, "channel": 0}, {"type": "note_off", "time": 126, "note": 75, "velocity": 116, "channel": 0}, {"type": "note_on", "time": 21, "note": 78, "velocity": 105, "channel": 0}, {"type": "note_off", "time": 97, "note": 78, "velocity": 105, "channel": 0}, {"type": "note_on", "time": 57, "note": 83, "velocity": 105, "channel": 0}, {"type": "note_off", "time": 101, "note": 83, "velocity": 105, "channel": 0}, {"type": "note_on", "time": 68, "note": 87, "velocity": 97, "channel": 0}, {"type": "note_off", "time": 166, "note": 87, "velocity": 97, "channel": 0}, {"type": "note_on", "time": 159, "note": 83, "velocity": 100, "channel": 0}, {"type": "note_off", "time": 126, "note": 83, "velocity": 100, "channel": 0}, {"type": "note_on", "time": 18, "note": 87, "velocity": 100, "channel": 0}, {"type": "note_off", "time": 184, "note": 87, "velocity": 100, "channel": 0}, {"type": "note_on", "time": 112, "note": 83, "velocity": 98, "channel": 0}, {"type": "note_off", "time": 2777, "note": 83, "velocity": 98, "channel": 0}, {"type": "note_on", "time": 195, "note": 81, "velocity": 86, "channel": 0}, {"type": "note_off", "time": 151, "note": 81, "velocity": 86, "channel": 0}, {"type": "note_on", "time": 86, "note": 83, "velocity": 103, "channel": 0}, {"type": "note_off", "time": 202, "note": 83, "velocity": 103, "channel": 0}, {"type": "note_on", "time": 600, "note": 83, "velocity": 94, "channel": 0}, {"type": "note_off", "time": 303, "note": 83, "velocity": 94, "channel": 0}, {"type": "note_on", "time": 1750, "note": 82, "velocity": 110, "channel": 0}, {"type": "note_off", "time": 202, "note": 82, "velocity": 110, "channel": 0}, {"type": "note_on", "time": 36, "note": 83, "velocity": 105, "channel": 0}, {"type": "note_off", "time": 1403, "note": 83, "velocity": 105, "channel": 0}, {"type": "note_on", "time": 138, "note": 80, "velocity": 107, "channel": 0}, {"type": "note_off", "time": 152, "note": 80, "velocity": 107, "channel": 0}, {"type": "note_on", "time": 86, "note": 83, "velocity": 103, "channel": 0}, {"type": "note_off", "time": 172, "note": 83, "velocity": 103, "channel": 0}, {"type": "note_on", "time": 86, "note": 86, "velocity": 101, "channel": 0}, {"type": "note_off", "time": 193, "note": 86, "velocity": 101, "channel": 0}, {"type": "note_on", "time": 102, "note": 83, "velocity": 98, "channel": 0}, {"type": "note_off", "time": 2018, "note": 83, "velocity": 98, "channel": 0}, {"type": "note_on", "time": 116, "note": 80, "velocity": 117, "channel": 0}, {"type": "note_off", "time": 157, "note": 80, "velocity": 117, "channel": 0}, {"type": "note_on", "time": 61, "note": 83, "velocity": 100, "channel": 0}, {"type": "note_off", "time": 127, "note": 83, "velocity": 100, "channel": 0}, {"type": "note_on", "time": 81, "note": 85, "velocity": 107, "channel": 0}, {"type": "note_off", "time": 142, "note": 85, "velocity": 107, "channel": 0}, {"type": "note_on", "time": 55, "note": 83, "velocity": 105, "channel": 0}, {"type": "note_off", "time": 508, "note": 83, "velocity": 105, "channel": 0}, {"type": "note_on", "time": 96, "note": 78, "velocity": 114, "channel": 0}, {"type": "note_off", "time": 157, "note": 78, "velocity": 114, "channel": 0}, {"type": "note_on", "time": 137, "note": 83, "velocity": 100, "channel": 0}, {"type": "note_off", "time": 142, "note": 83, "velocity": 100, "channel": 0}, {"type": "note_on", "time": 55, "note": 85, "velocity": 104, "channel": 0}, {"type": "note_off", "time": 127, "note": 85, "velocity": 104, "channel": 0}, {"type": "note_on", "time": 86, "note": 83, "velocity": 102, "channel": 0}, {"type": "note_off", "time": 778, "note": 83, "velocity": 102, "channel": 0}, {"type": "note_on", "time": 50, "note": 80, "velocity": 120, "channel": 0}, {"type": "note_off", "time": 193, "note": 80, "velocity": 120, "channel": 0}, {"type": "note_on", "time": 66, "note": 83, "velocity": 100, "channel": 0}, {"type": "note_off", "time": 188, "note": 83, "velocity": 100, "channel": 0}, {"type": "note_on", "time": 50, "note": 85, "velocity": 96, "channel": 0}, {"type": "note_off", "time": 91, "note": 85, "velocity": 96, "channel": 0}, {"type": "note_on", "time": 76, "note": 83, "velocity": 105, "channel": 0}, {"type": "note_off", "time": 595, "note": 83, "velocity": 105, "channel": 0}, {"type": "note_on", "time": 86, "note": 76, "velocity": 117, "channel": 0}, {"type": "note_off", "time": 208, "note": 76, "velocity": 117, "channel": 0}, {"type": "note_on", "time": 66, "note": 83, "velocity": 106, "channel": 0}, {"type": "note_off", "time": 183, "note": 83, "velocity": 106, "channel": 0}, {"type": "note_on", "time": 40, "note": 85, "velocity": 103, "channel": 0}, {"type": "note_off", "time": 157, "note": 85, "velocity": 103, "channel": 0}, {"type": "note_on", "time": 111, "note": 83, "velocity": 104, "channel": 0}, {"type": "note_off", "time": 610, "note": 83, "velocity": 104, "channel": 0}, {"type": "note_on", "time": 101, "note": 75, "velocity": 107, "channel": 0}, {"type": "note_off", "time": 147, "note": 75, "velocity": 107, "channel": 0}, {"type": "note_on", "time": 71, "note": 83, "velocity": 99, "channel": 0}, {"type": "note_off", "time": 244, "note": 83, "velocity": 99, "channel": 0}, {"type": "note_on", "time": 25, "note": 85, "velocity": 95, "channel": 0}, {"type": "note_off", "time": 106, "note": 85, "velocity": 95, "channel": 0}, {"type": "note_on", "time": 96, "note": 83, "velocity": 96, "channel": 0}, {"type": "note_off", "time": 386, "note": 83, "velocity": 96, "channel": 0}, {"type": "note_on", "time": 106, "note": 73, "velocity": 108, "channel": 0}, {"type": "note_off", "time": 177, "note": 73, "velocity": 108, "channel": 0}, {"type": "note_on", "time": 96, "note": 83, "velocity": 98, "channel": 0}, {"type": "note_off", "time": 223, "note": 83, "velocity": 98, "channel": 0}, {"type": "note_on", "time": 40, "note": 85, "velocity": 100, "channel": 0}, {"type": "note_off", "time": 142, "note": 85, "velocity": 100, "channel": 0}, {"type": "note_on", "time": 45, "note": 83, "velocity": 102, "channel": 0}, {"type": "note_off", "time": 269, "note": 83, "velocity": 102, "channel": 0}, {"type": "note_on", "time": 152, "note": 78, "velocity": 97, "channel": 0}, {"type": "note_off", "time": 142, "note": 78, "velocity": 97, "channel": 0}, {"type": "note_on", "time": 122, "note": 83, "velocity": 100, "channel": 0}, {"type": "note_off", "time": 198, "note": 83, "velocity": 100, "channel": 0}, {"type": "note_on", "time": 71, "note": 85, "velocity": 99, "channel": 0}, {"type": "note_off", "time": 127, "note": 85, "velocity": 99, "channel": 0}, {"type": "note_on", "time": 40, "note": 83, "velocity": 99, "channel": 0}, {"type": "note_off", "time": 233, "note": 83, "velocity": 99, "channel": 0}, {"type": "note_on", "time": 40, "note": 80, "velocity": 114, "channel": 0}, {"type": "note_off", "time": 198, "note": 80, "velocity": 114, "channel": 0}, {"type": "note_on", "time": 40, "note": 83, "velocity": 98, "channel": 0}, {"type": "note_off", "time": 188, "note": 83, "velocity": 98, "channel": 0}, {"type": "note_on", "time": 40, "note": 85, "velocity": 101, "channel": 0}, {"type": "note_off", "time": 188, "note": 85, "velocity": 101, "channel": 0}, {"type": "note_on", "time": 55, "note": 83, "velocity": 101, "channel": 0}, {"type": "note_off", "time": 111, "note": 83, "velocity": 101, "channel": 0}, {"type": "note_on", "time": 66, "note": 86, "velocity": 98, "channel": 0}, {"type": "note_off", "time": 86, "note": 86, "velocity": 98, "channel": 0}, {"type": "note_on", "time": 45, "note": 78, "velocity": 100, "channel": 0}, {"type": "note_off", "time": 172, "note": 78, "velocity": 100, "channel": 0}, {"type": "note_on", "time": 137, "note": 83, "velocity": 96, "channel": 0}, {"type": "note_off", "time": 218, "note": 83, "velocity": 96, "channel": 0}, {"type": "note_on", "time": 127, "note": 83, "velocity": 97, "channel": 0}, {"type": "note_off", "time": 259, "note": 83, "velocity": 97, "channel": 0}, {"type": "note_on", "time": 55, "note": 85, "velocity": 100, "channel": 0}, {"type": "note_off", "time": 162, "note": 85, "velocity": 100, "channel": 0}, {"type": "note_on", "time": 55, "note": 83, "velocity": 92, "channel": 0}, {"type": "note_off", "time": 3717, "note": 83, "velocity": 92, "channel": 0}, {"type": "note_on", "time": 157, "note": 80, "velocity": 107, "channel": 0}, {"type": "note_off", "time": 1424, "note": 80, "velocity": 107, "channel": 0}, {"type": "note_on", "time": 195, "note": 78, "velocity": 104, "channel": 0}, {"type": "note_off", "time": 137, "note": 78, "velocity": 104, "channel": 0}, {"type": "note_on", "time": 65, "note": 75, "velocity": 106, "channel": 0}, {"type": "note_off", "time": 115, "note": 75, "velocity": 106, "channel": 0}, {"type": "note_on", "time": 50, "note": 73, "velocity": 112, "channel": 0}, {"type": "note_off", "time": 94, "note": 73, "velocity": 112, "channel": 0}, {"type": "note_on", "time": 72, "note": 71, "velocity": 107, "channel": 0}, {"type": "note_off", "time": 672, "note": 71, "velocity": 107, "channel": 0}, {"type": "note_on", "time": 86, "note": 71, "velocity": 96, "channel": 0}, {"type": "note_off", "time": 376, "note": 71, "velocity": 96, "channel": 0}, {"type": "note_on", "time": 397, "note": 71, "velocity": 100, "channel": 0}, {"type": "note_off", "time": 354, "note": 71, "velocity": 100, "channel": 0}, {"type": "note_on", "time": 772, "note": 71, "velocity": 97, "channel": 0}, {"type": "note_off", "time": 1983, "note": 71, "velocity": 97, "channel": 0}, {"type": "note_on", "time": 6, "note": 68, "velocity": 90, "channel": 0}, {"type": "note_off", "time": 209, "note": 68, "velocity": 90, "channel": 0}, {"type": "note_on", "time": 86, "note": 71, "velocity": 111, "channel": 0}, {"type": "note_off", "time": 578, "note": 71, "velocity": 111, "channel": 0}, {"type": "note_on", "time": 94, "note": 71, "velocity": 93, "channel": 0}, {"type": "note_off", "time": 231, "note": 71, "velocity": 93, "channel": 0}, {"type": "note_on", "time": 2133, "note": 74, "velocity": 124, "channel": 0}, {"type": "note_off", "time": 390, "note": 74, "velocity": 124, "channel": 0}, {"type": "note_on", "time": 21, "note": 75, "velocity": 117, "channel": 0}, {"type": "note_off", "time": 1410, "note": 75, "velocity": 117, "channel": 0}, {"type": "note_on", "time": 79, "note": 73, "velocity": 115, "channel": 0}, {"type": "note_off", "time": 188, "note": 73, "velocity": 115, "channel": 0}, {"type": "note_on", "time": 81, "note": 71, "velocity": 103, "channel": 0}, {"type": "note_off", "time": 228, "note": 71, "velocity": 103, "channel": 0}, {"type": "note_on", "time": 452, "note": 71, "velocity": 96, "channel": 0}, {"type": "note_off", "time": 310, "note": 71, "velocity": 96, "channel": 0}, {"type": "note_on", "time": 554, "note": 71, "velocity": 100, "channel": 0}, {"type": "note_off", "time": 350, "note": 71, "velocity": 100, "channel": 0}, {"type": "note_on", "time": 466, "note": 71, "velocity": 97, "channel": 0}, {"type": "note_off", "time": 2444, "note": 71, "velocity": 97, "channel": 0}, {"type": "note_on", "time": 119, "note": 71, "velocity": 97, "channel": 0}, {"type": "note_off", "time": 415, "note": 71, "velocity": 97, "channel": 0}, {"type": "note_on", "time": 83, "note": 64, "velocity": 99, "channel": 0}, {"type": "note_off", "time": 71, "note": 64, "velocity": 99, "channel": 0}, {"type": "note_on", "time": 113, "note": 59, "velocity": 118, "channel": 0}, {"type": "note_off", "time": 274, "note": 59, "velocity": 118, "channel": 0}, {"type": "note_on", "time": 2191, "note": 71, "velocity": 106, "channel": 0}, {"type": "note_off", "time": 1591, "note": 71, "velocity": 106, "channel": 0}, {"type": "note_on", "time": 100, "note": 68, "velocity": 103, "channel": 0}, {"type": "note_off", "time": 198, "note": 68, "velocity": 103, "channel": 0}, {"type": "note_on", "time": 106, "note": 64, "velocity": 117, "channel": 0}, {"type": "note_off", "time": 513, "note": 64, "velocity": 117, "channel": 0}, {"type": "note_on", "time": 76, "note": 71, "velocity": 89, "channel": 0}, {"type": "note_off", "time": 1586, "note": 71, "velocity": 89, "channel": 0}, {"type": "note_on", "time": 203, "note": 71, "velocity": 92, "channel": 0}, {"type": "note_off", "time": 274, "note": 71, "velocity": 92, "channel": 0}, {"type": "note_on", "time": 76, "note": 66, "velocity": 96, "channel": 0}, {"type": "note_off", "time": 376, "note": 66, "velocity": 96, "channel": 0}, {"type": "note_on", "time": 81, "note": 64, "velocity": 101, "channel": 0}, {"type": "note_off", "time": 335, "note": 64, "velocity": 101, "channel": 0}, {"type": "note_on", "time": 1408, "note": 64, "velocity": 90, "channel": 0}, {"type": "note_off", "time": 228, "note": 64, "velocity": 90, "channel": 0}, {"type": "note_on", "time": 122, "note": 59, "velocity": 91, "channel": 0}, {"type": "note_off", "time": 361, "note": 59, "velocity": 91, "channel": 0}, {"type": "note_on", "time": 157, "note": 64, "velocity": 82, "channel": 0}, {"type": "note_off", "time": 1429, "note": 64, "velocity": 82, "channel": 0}, {"type": "end_of_track", "time": 0}]]}