{"ticks_per_beat": 840, "tracks": [[{"type": "track_name", "name": "Melody", "time": 0}, {"type": "set_tempo", "tempo": 422535, "time": 0}, {"type": "key_signature", "key": "Eb", "time": 0}, {"type": "time_signature", "numerator": 4, "denominator": 4, "clocks_per_click": 24, "notated_32nd_notes_per_beat": 8, "time": 0}, {"type": "note_on", "time": 6114, "note": 65, "velocity": 104, "channel": 0}, {"type": "note_off", "time": 324, "note": 65, "velocity": 104, "channel": 0}, {"type": "note_on", "time": 48, "note": 63, "velocity": 99, "channel": 0}, {"type": "note_off", "time": 243, "note": 63, "velocity": 99, "channel": 0}, {"type": "note_on", "time": 113, "note": 65, "velocity": 110, "channel": 0}, {"type": "note_off", "time": 227, "note": 65, "velocity": 110, "channel": 0}, {"type": "note_on", "time": 16, "note": 63, "velocity": 114, "channel": 0}, {"type": "note_off", "time": 210, "note": 63, "velocity": 114, "channel": 0}, {"type": "note_on", "time": 113, "note": 61, "velocity": 110, "channel": 0}, {"type": "note_off", "time": 317, "note": 61, "velocity": 110, "channel": 0}, {"type": "note_on", "time": 132, "note": 58, "velocity": 107, "channel": 0}, {"type": "note_off", "time": 213, "note": 58, "velocity": 107, "channel": 0}, {"type": "note_on", "time": 67, "note": 63, "velocity": 117, "channel": 0}, {"type": "note_off", "time": 454, "note": 63, "velocity": 117, "channel": 0}, {"type": "note_on", "time": 48, "note": 65, "velocity": 111, "channel": 0}, {"type": "note_off", "time": 3489, "note": 65, "velocity": 111, "channel": 0}, {"type": "note_on", "time": 95, "note": 63, "velocity": 117, "channel": 0}, {"type": "note_off", "time": 324, "note": 63, "velocity": 117, "channel": 0}, {"type": "note_on", "time": 73, "note": 65, "velocity": 112, "channel": 0}, {"type": "note_off", "time": 438, "note": 65, "velocity": 112, "channel": 0}, {"type": "note_on", "time": 42, "note": 63, "velocity": 115, "channel": 0}, {"type": "note_off", "time": 714, "note": 63, "velocity": 115, "channel": 0}, {"type": "note_on", "time": 64, "note": 61, "velocity": 107, "channel": 0}, {"type": "note_off", "time": 146, "note": 61, "velocity": 107, "channel": 0}, {"type": "note_on", "time": 77, "note": 63, "velocity": 119, "channel": 0}, {"type": "note_off", "time": 486, "note": 63, "velocity": 119, "channel": 0}, {"type": "note_on", "time": 36, "note": 65, "velocity": 110, "channel": 0}, {"type": "note_off", "time": 714, "note": 65, "velocity": 110, "channel": 0}, {"type": "note_on", "time": 32, "note": 64, "velocity": 112, "channel": 0}, {"type": "note_off", "time": 113, "note": 64, "velocity": 112, "channel": 0}, {"type": "note_on", "time": 16, "note": 65, "velocity": 112, "channel": 0}, {"type": "note_off", "time": 1509, "note": 65, "velocity": 112, "channel": 0}, {"type": "note_on", "time": 1468, "note": 64, "velocity": 118, "channel": 0}, {"type": "note_off", "time": 129, "note": 64, "velocity": 118, "channel": 0}, {"type": "note_on", "time": 24, "note": 65, "velocity": 112, "channel": 0}, {"type": "note_off", "time": 2190, "note": 65, "velocity": 112, "channel": 0}, {"type": "note_on", "time": 64, "note": 63, "velocity": 117, "channel": 0}, {"type": "note_off", "time": 324, "note": 63, "velocity": 117, "channel": 0}, {"type": "note_on", "time": 138, "note": 65, "velocity": 114, "channel": 0}, {"type": "note_off", "time": 259, "note": 65, "velocity": 114, "channel": 0}, {"type": "note_on", "time": 37, "note": 63, "velocity": 117, "channel": 0}, {"type": "note_off", "time": 340, "note": 63, "velocity": 117, "channel": 0}, {"type": "note_on", "time": 63, "note": 68, "velocity": 118, "channel": 0}, {"type": "note_off", "time": 259, "note": 68, "velocity": 118, "channel": 0}, {"type": "note_on", "time": 12, "note": 66, "velocity": 110, "channel": 0}, {"type": "note_off", "time": 196, "note": 66, "velocity": 110, "channel": 0}, {"type": "note_on", "time": 25, "note": 63, "velocity": 113, "channel": 0}, {"type": "note_off", "time": 288, "note": 63, "velocity": 113, "channel": 0}, {"type": "note_on", "time": 44, "note": 65, "velocity": 111, "channel": 0}, {"type": "note_off", "time": 1103, "note": 65, "velocity": 111, "channel": 0}, {"type": "note_on", "time": 57, "note": 63, "velocity": 107, "channel": 0}, {"type": "note_off", "time": 210, "note": 63, "velocity": 107, "channel": 0}, {"type": "note_on", "time": 43, "note": 68, "velocity": 113, "channel": 0}, {"type": "note_off", "time": 243, "note": 68, "velocity": 113, "channel": 0}, {"type": "note_on", "time": 22, "note": 66, "velocity": 107, "channel": 0}, {"type": "note_off", "time": 137, "note": 66, "velocity": 107, "channel": 0}, {"type": "note_on", "time": 58, "note": 63, "velocity": 115, "channel": 0}, {"type": "note_off", "time": 243, "note": 63, "velocity": 115, "channel": 0}, {"type": "note_on", "time": 40, "note": 65, "velocity": 108, "channel": 0}, {"type": "note_off", "time": 168, "note": 65, "velocity": 108, "channel": 0}, {"type": "note_on", "time": 36, "note": 63, "velocity": 117, "channel": 0}, {"type": "note_off", "time": 245, "note": 63, "velocity": 117, "channel": 0}, {"type": "note_on", "time": 328, "note": 68, "velocity": 116, "channel": 0}, {"type": "note_off", "time": 243, "note": 68, "velocity": 116, "channel": 0}, {"type": "note_on", "time": 62, "note": 66, "velocity": 108, "channel": 0}, {"type": "note_off", "time": 197, "note": 66, "velocity": 108, "channel": 0}, {"type": "note_on", "time": 21, "note": 63, "velocity": 116, "channel": 0}, {"type": "note_off", "time": 210, "note": 63, "velocity": 116, "channel": 0}, {"type": "note_on", "time": 85, "note": 65, "velocity": 110, "channel": 0}, {"type": "note_off", "time": 275, "note": 65, "velocity": 110, "channel": 0}, {"type": "note_on", "time": 47, "note": 63, "velocity": 116, "channel": 0}, {"type": "note_off", "time": 230, "note": 63, "velocity": 116, "channel": 0}, {"type": "note_on", "time": 264, "note": 66, "velocity": 111, "channel": 0}, {"type": "note_off", "time": 292, "note": 66, "velocity": 111, "channel": 0}, {"type": "note_on", "time": 12, "note": 63, "velocity": 115, "channel": 0}, {"type": "note_off", "time": 237, "note": 63, "velocity": 115, "channel": 0}, {"type": "note_on", "time": 49, "note": 65, "velocity": 112, "channel": 0}, {"type": "note_off", "time": 168, "note": 65, "velocity": 112, "channel": 0}, {"type": "note_on", "time": 78, "note": 63, "velocity": 117, "channel": 0}, {"type": "note_off", "time": 240, "note": 63, "velocity": 117, "channel": 0}, {"type": "note_on", "time": 25, "note": 61, "velocity": 109, "channel": 0}, {"type": "note_off", "time": 227, "note": 61, "velocity": 109, "channel": 0}, {"type": "note_on", "time": 0, "note": 58, "velocity": 111, "channel": 0}, {"type": "note_off", "time": 292, "note": 58, "velocity": 111, "channel": 0}, {"type": "note_on", "time": 64, "note": 56, "velocity": 103, "channel": 0}, {"type": "note_off", "time": 227, "note": 56, "velocity": 103, "channel": 0}, {"type": "note_on", "time": 113, "note": 53, "velocity": 102, "channel": 0}, {"type": "note_off", "time": 146, "note": 53, "velocity": 102, "channel": 0}, {"type": "note_on", "time": 48, "note": 55, "velocity": 106, "channel": 0}, {"type": "note_off", "time": 146, "note": 55, "velocity": 106, "channel": 0}, {"type": "note_on", "time": 129, "note": 63, "velocity": 117, "channel": 0}, {"type": "note_off", "time": 1574, "note": 63, "velocity": 117, "channel": 0}, {"type": "note_on", "time": 373, "note": 63, "velocity": 118, "channel": 0}, {"type": "note_off", "time": 308, "note": 63, "velocity": 118, "channel": 0}, {"type": "note_on", "time": 70, "note": 61, "velocity": 101, "channel": 0}, {"type": "note_off", "time": 227, "note": 61, "velocity": 101, "channel": 0}, {"type": "note_on", "time": 75, "note": 65, "velocity": 112, "channel": 0}, {"type": "note_off", "time": 1768, "note": 65, "velocity": 112, "channel": 0}, {"type": "note_on", "time": 32, "note": 63, "velocity": 113, "channel": 0}, {"type": "note_off", "time": 275, "note": 63, "velocity": 113, "channel": 0}, {"type": "note_on", "time": 292, "note": 66, "velocity": 112, "channel": 0}, {"type": "note_off", "time": 194, "note": 66, "velocity": 112, "channel": 0}, {"type": "note_on", "time": 0, "note": 63, "velocity": 118, "channel": 0}, {"type": "note_off", "time": 210, "note": 63, "velocity": 118, "channel": 0}, {"type": "note_on", "time": 0, "note": 58, "velocity": 105, "channel": 0}, {"type": "note_off", "time": 243, "note": 58, "velocity": 105, "channel": 0}, {"type": "note_on", "time": 81, "note": 56, "velocity": 102, "channel": 0}, {"type": "note_off", "time": 681, "note": 56, "velocity": 102, "channel": 0}, {"type": "note_on", "time": 1346, "note": 56, "velocity": 111, "channel": 0}, {"type": "note_off", "time": 227, "note": 56, "velocity": 111, "channel": 0}, {"type": "note_on", "time": 48, "note": 59, "velocity": 108, "channel": 0}, {"type": "note_off", "time": 194, "note": 59, "velocity": 108, "channel": 0}, {"type": "note_on", "time": 0, "note": 63, "velocity": 109, "channel": 0}, {"type": "note_off", "time": 178, "note": 63, "velocity": 109, "channel": 0}, {"type": "note_on", "time": 0, "note": 66, "velocity": 107, "channel": 0}, {"type": "note_off", "time": 178, "note": 66, "velocity": 107, "channel": 0}, {"type": "note_on", "time": 0, "note": 70, "velocity": 118, "channel": 0}, {"type": "note_off", "time": 227, "note": 70, "velocity": 118, "channel": 0}, {"type": "note_on", "time": 44, "note": 73, "velocity": 114, "channel": 0}, {"type": "note_off", "time": 302, "note": 73, "velocity": 114, "channel": 0}, {"type": "note_on", "time": 58, "note": 71, "velocity": 118, "channel": 0}, {"type": "note_off", "time": 137, "note": 71, "velocity": 118, "channel": 0}, {"type": "note_on", "time": 26, "note": 70, "velocity": 110, "channel": 0}, {"type": "note_off", "time": 144, "note": 70, "velocity": 110, "channel": 0}, {"type": "note_on", "time": 65, "note": 68, "velocity": 112, "channel": 0}, {"type": "note_off", "time": 140, "note": 68, "velocity": 112, "channel": 0}, {"type": "note_on", "time": 48, "note": 67, "velocity": 111, "channel": 0}, {"type": "note_off", "time": 174, "note": 67, "velocity": 111, "channel": 0}, {"type": "note_on", "time": 50, "note": 65, "velocity": 112, "channel": 0}, {"type": "note_off", "time": 171, "note": 65, "velocity": 112, "channel": 0}, {"type": "note_on", "time": 26, "note": 63, "velocity": 114, "channel": 0}, {"type": "note_off", "time": 215, "note": 63, "velocity": 114, "channel": 0}, {"type": "note_on", "time": 39, "note": 60, "velocity": 105, "channel": 0}, {"type": "note_off", "time": 189, "note": 60, "velocity": 105, "channel": 0}, {"type": "note_on", "time": 16, "note": 56, "velocity": 95, "channel": 0}, {"type": "note_off", "time": 174, "note": 56, "velocity": 95, "channel": 0}, {"type": "note_on", "time": 102, "note": 54, "velocity": 100, "channel": 0}, {"type": "note_off", "time": 66, "note": 54, "velocity": 100, "channel": 0}, {"type": "note_on", "time": 62, "note": 62, "velocity": 115, "channel": 0}, {"type": "note_off", "time": 200, "note": 62, "velocity": 115, "channel": 0}, {"type": "note_on", "time": 44, "note": 63, "velocity": 115, "channel": 0}, {"type": "note_off", "time": 178, "note": 63, "velocity": 115, "channel": 0}, {"type": "note_on", "time": 10, "note": 65, "velocity": 113, "channel": 0}, {"type": "note_off", "time": 178, "note": 65, "velocity": 113, "channel": 0}, {"type": "note_on", "time": 6, "note": 62, "velocity": 114, "channel": 0}, {"type": "note_off", "time": 155, "note": 62, "velocity": 114, "channel": 0}, {"type": "note_on", "time": 65, "note": 63, "velocity": 118, "channel": 0}, {"type": "note_off", "time": 178, "note": 63, "velocity": 118, "channel": 0}, {"type": "note_on", "time": 48, "note": 62, "velocity": 113, "channel": 0}, {"type": "note_off", "time": 194, "note": 62, "velocity": 113, "channel": 0}, {"type": "note_on", "time": 0, "note": 60, "velocity": 109, "channel": 0}, {"type": "note_off", "time": 146, "note": 60, "velocity": 109, "channel": 0}, {"type": "note_on", "time": 16, "note": 59, "velocity": 107, "channel": 0}, {"type": "note_off", "time": 194, "note": 59, "velocity": 107, "channel": 0}, {"type": "note_on", "time": 32, "note": 58, "velocity": 104, "channel": 0}, {"type": "note_off", "time": 178, "note": 58, "velocity": 104, "channel": 0}, {"type": "note_on", "time": 48, "note": 56, "velocity": 105, "channel": 0}, {"type": "note_off", "time": 194, "note": 56, "velocity": 105, "channel": 0}, {"type": "note_on", "time": 0, "note": 53, "velocity": 90, "channel": 0}, {"type": "note_off", "time": 178, "note": 53, "velocity": 90, "channel": 0}, {"type": "note_on", "time": 81, "note": 55, "velocity": 109, "channel": 0}, {"type": "note_off", "time": 340, "note": 55, "velocity": 109, "channel": 0}, {"type": "note_on", "time": 16, "note": 63, "velocity": 118, "channel": 0}, {"type": "note_off", "time": 340, "note": 63, "velocity": 118, "channel": 0}, {"type": "note_on", "time": 1239, "note": 63, "velocity": 121, "channel": 0}, {"type": "note_off", "time": 292, "note": 63, "velocity": 121, "channel": 0}, {"type": "note_on", "time": 58, "note": 65, "velocity": 108, "channel": 0}, {"type": "note_off", "time": 113, "note": 65, "velocity": 108, "channel": 0}, {"type": "note_on", "time": 35, "note": 67, "velocity": 113, "channel": 0}, {"type": "note_off", "time": 115, "note": 67, "velocity": 113, "channel": 0}, {"type": "note_on", "time": 80, "note": 70, "velocity": 102, "channel": 0}, {"type": "note_off", "time": 92, "note": 70, "velocity": 102, "channel": 0}, {"type": "note_on", "time": 46, "note": 72, "velocity": 112, "channel": 0}, {"type": "note_off", "time": 300, "note": 72, "velocity": 112, "channel": 0}, {"type": "note_on", "time": 150, "note": 72, "velocity": 115, "channel": 0}, {"type": "note_off", "time": 276, "note": 72, "velocity": 115, "channel": 0}, {"type": "note_on", "time": 0, "note": 73, "velocity": 120, "channel": 0}, {"type": "note_on", "time": 865, "note": 72, "velocity": 119, "channel": 0}, {"type": "note_off", "time": 0, "note": 73, "velocity": 120, "channel": 0}, {"type": "note_off", "time": 150, "note": 72, "velocity": 119, "channel": 0}, {"type": "note_on", "time": 0, "note": 71, "velocity": 113, "channel": 0}, {"type": "note_off", "time": 57, "note": 71, "velocity": 113, "channel": 0}, {"type": "note_on", "time": 46, "note": 70, "velocity": 118, "channel": 0}, {"type": "note_off", "time": 161, "note": 70, "velocity": 118, "channel": 0}, {"type": "note_on", "time": 29, "note": 68, "velocity": 117, "channel": 0}, {"type": "note_off", "time": 103, "note": 68, "velocity": 117, "channel": 0}, {"type": "note_on", "time": 29, "note": 67, "velocity": 113, "channel": 0}, {"type": "note_off", "time": 115, "note": 67, "velocity": 113, "channel": 0}, {"type": "note_on", "time": 78, "note": 65, "velocity": 115, "channel": 0}, {"type": "note_off", "time": 184, "note": 65, "velocity": 115, "channel": 0}, {"type": "note_on", "time": 6, "note": 63, "velocity": 115, "channel": 0}, {"type": "note_off", "time": 111, "note": 63, "velocity": 115, "channel": 0}, {"type": "note_on", "time": 21, "note": 62, "velocity": 117, "channel": 0}, {"type": "note_off", "time": 180, "note": 62, "velocity": 117, "channel": 0}, {"type": "note_on", "time": 49, "note": 61, "velocity": 113, "channel": 0}, {"type": "note_off", "time": 138, "note": 61, "velocity": 113, "channel": 0}, {"type": "note_on", "time": 690, "note": 60, "velocity": 112, "channel": 0}, {"type": "note_off", "time": 110, "note": 60, "velocity": 112, "channel": 0}, {"type": "note_on", "time": 9, "note": 61, "velocity": 118, "channel": 0}, {"type": "note_off", "time": 134, "note": 61, "velocity": 118, "channel": 0}, {"type": "note_on", "time": 7, "note": 62, "velocity": 118, "channel": 0}, {"type": "note_off", "time": 80, "note": 62, "velocity": 118, "channel": 0}, {"type": "note_on", "time": 3, "note": 63, "velocity": 115, "channel": 0}, {"type": "note_off", "time": 201, "note": 63, "velocity": 115, "channel": 0}, {"type": "note_on", "time": 25, "note": 65, "velocity": 112, "channel": 0}, {"type": "note_off", "time": 98, "note": 65, "velocity": 112, "channel": 0}, {"type": "note_on", "time": 12, "note": 66, "velocity": 109, "channel": 0}, {"type": "note_off", "time": 117, "note": 66, "velocity": 109, "channel": 0}, {"type": "note_on", "time": 18, "note": 68, "velocity": 112, "channel": 0}, {"type": "note_off", "time": 126, "note": 68, "velocity": 112, "channel": 0}, {"type": "note_on", "time": 19, "note": 70, "velocity": 118, "channel": 0}, {"type": "note_off", "time": 272, "note": 70, "velocity": 118, "channel": 0}, {"type": "note_on", "time": 724, "note": 69, "velocity": 109, "channel": 0}, {"type": "note_off", "time": 276, "note": 69, "velocity": 109, "channel": 0}, {"type": "note_on", "time": 11, "note": 66, "velocity": 115, "channel": 0}, {"type": "note_off", "time": 161, "note": 66, "velocity": 115, "channel": 0}, {"type": "note_on", "time": 57, "note": 65, "velocity": 111, "channel": 0}, {"type": "note_on", "time": 150, "note": 63, "velocity": 108, "channel": 0}, {"type": "note_off", "time": 0, "note": 65, "velocity": 111, "channel": 0}, {"type": "note_off", "time": 265, "note": 63, "velocity": 108, "channel": 0}, {"type": "note_on", "time": 21, "note": 66, "velocity": 108, "channel": 0}, {"type": "note_off", "time": 68, "note": 66, "velocity": 108, "channel": 0}, {"type": "note_on", "time": 10, "note": 67, "velocity": 115, "channel": 0}, {"type": "note_off", "time": 159, "note": 67, "velocity": 115, "channel": 0}, {"type": "note_on", "time": 26, "note": 63, "velocity": 109, "channel": 0}, {"type": "note_off", "time": 242, "note": 63, "velocity": 109, "channel": 0}, {"type": "note_on", "time": 45, "note": 67, "velocity": 108, "channel": 0}, {"type": "note_off", "time": 219, "note": 67, "velocity": 108, "channel": 0}, {"type": "note_on", "time": 23, "note": 68, "velocity": 119, "channel": 0}, {"type": "note_off", "time": 216, "note": 68, "velocity": 119, "channel": 0}, {"type": "note_on", "time": 28, "note": 65, "velocity": 99, "channel": 0}, {"type": "note_off", "time": 138, "note": 65, "velocity": 99, "channel": 0}, {"type": "note_on", "time": 47, "note": 69, "velocity": 116, "channel": 0}, {"type": "note_off", "time": 173, "note": 69, "velocity": 116, "channel": 0}, {"type": "note_on", "time": 43, "note": 72, "velocity": 118, "channel": 0}, {"type": "note_off", "time": 184, "note": 72, "velocity": 118, "channel": 0}, {"type": "note_on", "time": 25, "note": 70, "velocity": 111, "channel": 0}, {"type": "note_off", "time": 196, "note": 70, "velocity": 111, "channel": 0}, {"type": "note_on", "time": 28, "note": 67, "velocity": 112, "channel": 0}, {"type": "note_off", "time": 152, "note": 67, "velocity": 112, "channel": 0}, {"type": "note_on", "time": 24, "note": 68, "velocity": 117, "channel": 0}, {"type": "note_off", "time": 194, "note": 68, "velocity": 117, "channel": 0}, {"type": "note_on", "time": 34, "note": 65, "velocity": 98, "channel": 0}, {"type": "note_off", "time": 126, "note": 65, "velocity": 98, "channel": 0}, {"type": "note_on", "time": 51, "note": 67, "velocity": 112, "channel": 0}, {"type": "note_off", "time": 131, "note": 67, "velocity": 112, "channel": 0}, {"type": "note_on", "time": 38, "note": 65, "velocity": 114, "channel": 0}, {"type": "note_off", "time": 152, "note": 65, "velocity": 114, "channel": 0}, {"type": "note_on", "time": 31, "note": 63, "velocity": 118, "channel": 0}, {"type": "note_off", "time": 187, "note": 63, "velocity": 118, "channel": 0}, {"type": "note_on", "time": 50, "note": 62, "velocity": 117, "channel": 0}, {"type": "note_off", "time": 161, "note": 62, "velocity": 117, "channel": 0}, {"type": "note_on", "time": 36, "note": 61, "velocity": 109, "channel": 0}, {"type": "note_off", "time": 161, "note": 61, "velocity": 109, "channel": 0}, {"type": "note_on", "time": 16, "note": 63, "velocity": 112, "channel": 0}, {"type": "note_off", "time": 230, "note": 63, "velocity": 112, "channel": 0}, {"type": "note_on", "time": 17, "note": 65, "velocity": 111, "channel": 0}, {"type": "note_off", "time": 159, "note": 65, "velocity": 111, "channel": 0}, {"type": "note_on", "time": 0, "note": 61, "velocity": 111, "channel": 0}, {"type": "note_off", "time": 173, "note": 61, "velocity": 111, "channel": 0}, {"type": "note_on", "time": 17, "note": 60, "velocity": 108, "channel": 0}, {"type": "note_off", "time": 128, "note": 60, "velocity": 108, "channel": 0}, {"type": "note_on", "time": 22, "note": 58, "velocity": 106, "channel": 0}, {"type": "note_off", "time": 206, "note": 58, "velocity": 106, "channel": 0}, {"type": "note_on", "time": 61, "note": 57, "velocity": 103, "channel": 0}, {"type": "note_off", "time": 197, "note": 57, "velocity": 103, "channel": 0}, {"type": "note_on", "time": 34, "note": 58, "velocity": 103, "channel": 0}, {"type": "note_off", "time": 150, "note": 58, "velocity": 103, "channel": 0}, {"type": "note_on", "time": 25, "note": 63, "velocity": 120, "channel": 0}, {"type": "note_off", "time": 334, "note": 63, "velocity": 120, "channel": 0}, {"type": "note_on", "time": 150, "note": 63, "velocity": 115, "channel": 0}, {"type": "note_off", "time": 334, "note": 63, "velocity": 115, "channel": 0}, {"type": "note_on", "time": 24, "note": 66, "velocity": 111, "channel": 0}, {"type": "note_off", "time": 253, "note": 66, "velocity": 111, "channel": 0}, {"type": "note_on", "time": 9, "note": 63, "velocity": 112, "channel": 0}, {"type": "note_off", "time": 230, "note": 63, "velocity": 112, "channel": 0}, {"type": "note_on", "time": 24, "note": 66, "velocity": 106, "channel": 0}, {"type": "note_off", "time": 288, "note": 66, "velocity": 106, "channel": 0}, {"type": "note_on", "time": 102, "note": 68, "velocity": 113, "channel": 0}, {"type": "note_off", "time": 972, "note": 68, "velocity": 113, "channel": 0}, {"type": "note_on", "time": 85, "note": 70, "velocity": 120, "channel": 0}, {"type": "note_off", "time": 507, "note": 70, "velocity": 120, "channel": 0}, {"type": "note_on", "time": 2693, "note": 69, "velocity": 118, "channel": 0}, {"type": "note_off", "time": 138, "note": 69, "velocity": 118, "channel": 0}, {"type": "note_on", "time": 27, "note": 70, "velocity": 117, "channel": 0}, {"type": "note_off", "time": 138, "note": 70, "velocity": 117, "channel": 0}, {"type": "note_on", "time": 29, "note": 69, "velocity": 118, "channel": 0}, {"type": "note_off", "time": 380, "note": 69, "velocity": 118, "channel": 0}, {"type": "note_on", "time": 46, "note": 68, "velocity": 116, "channel": 0}, {"type": "note_off", "time": 253, "note": 68, "velocity": 116, "channel": 0}, {"type": "note_on", "time": 103, "note": 66, "velocity": 112, "channel": 0}, {"type": "note_off", "time": 323, "note": 66, "velocity": 112, "channel": 0}, {"type": "note_on", "time": 115, "note": 63, "velocity": 112, "channel": 0}, {"type": "note_off", "time": 403, "note": 63, "velocity": 112, "channel": 0}, {"type": "note_on", "time": 80, "note": 66, "velocity": 114, "channel": 0}, {"type": "note_off", "time": 103, "note": 66, "velocity": 114, "channel": 0}, {"type": "note_on", "time": 23, "note": 67, "velocity": 113, "channel": 0}, {"type": "note_off", "time": 819, "note": 67, "velocity": 113, "channel": 0}, {"type": "note_on", "time": 21, "note": 68, "velocity": 112, "channel": 0}, {"type": "note_off", "time": 64, "note": 68, "velocity": 112, "channel": 0}, {"type": "note_on", "time": 17, "note": 69, "velocity": 116, "channel": 0}, {"type": "note_off", "time": 206, "note": 69, "velocity": 116, "channel": 0}, {"type": "note_on", "time": 24, "note": 70, "velocity": 112, "channel": 0}, {"type": "note_off", "time": 150, "note": 70, "velocity": 112, "channel": 0}, {"type": "note_on", "time": 50, "note": 72, "velocity": 115, "channel": 0}, {"type": "note_off", "time": 175, "note": 72, "velocity": 115, "channel": 0}, {"type": "note_on", "time": 11, "note": 70, "velocity": 113, "channel": 0}, {"type": "note_off", "time": 940, "note": 70, "velocity": 113, "channel": 0}, {"type": "note_on", "time": 48, "note": 68, "velocity": 112, "channel": 0}, {"type": "note_off", "time": 114, "note": 68, "velocity": 112, "channel": 0}, {"type": "note_on", "time": 8, "note": 67, "velocity": 112, "channel": 0}, {"type": "note_off", "time": 230, "note": 67, "velocity": 112, "channel": 0}, {"type": "note_on", "time": 11, "note": 65, "velocity": 111, "channel": 0}, {"type": "note_off", "time": 138, "note": 65, "velocity": 111, "channel": 0}, {"type": "note_on", "time": 47, "note": 63, "velocity": 117, "channel": 0}, {"type": "note_off", "time": 209, "note": 63, "velocity": 117, "channel": 0}, {"type": "note_on", "time": 16, "note": 62, "velocity": 114, "channel": 0}, {"type": "note_off", "time": 157, "note": 62, "velocity": 114, "channel": 0}, {"type": "note_on", "time": 31, "note": 60, "velocity": 101, "channel": 0}, {"type": "note_off", "time": 121, "note": 60, "velocity": 101, "channel": 0}, {"type": "note_on", "time": 26, "note": 59, "velocity": 105, "channel": 0}, {"type": "note_off", "time": 77, "note": 59, "velocity": 105, "channel": 0}, {"type": "note_on", "time": 12, "note": 58, "velocity": 111, "channel": 0}, {"type": "note_off", "time": 357, "note": 58, "velocity": 111, "channel": 0}, {"type": "note_on", "time": 50, "note": 56, "velocity": 105, "channel": 0}, {"type": "note_off", "time": 126, "note": 56, "velocity": 105, "channel": 0}, {"type": "note_on", "time": 23, "note": 55, "velocity": 114, "channel": 0}, {"type": "note_off", "time": 115, "note": 55, "velocity": 114, "channel": 0}, {"type": "note_on", "time": 73, "note": 53, "velocity": 103, "channel": 0}, {"type": "note_off", "time": 174, "note": 53, "velocity": 103, "channel": 0}, {"type": "note_on", "time": 28, "note": 52, "velocity": 95, "channel": 0}, {"type": "note_off", "time": 380, "note": 52, "velocity": 95, "channel": 0}, {"type": "note_on", "time": 18, "note": 58, "velocity": 112, "channel": 0}, {"type": "note_off", "time": 230, "note": 58, "velocity": 112, "channel": 0}, {"type": "note_on", "time": 20, "note": 55, "velocity": 104, "channel": 0}, {"type": "note_off", "time": 148, "note": 55, "velocity": 104, "channel": 0}, {"type": "note_on", "time": 55, "note": 61, "velocity": 117, "channel": 0}, {"type": "note_off", "time": 253, "note": 61, "velocity": 117, "channel": 0}, {"type": "note_on", "time": 19, "note": 64, "velocity": 104, "channel": 0}, {"type": "note_off", "time": 118, "note": 64, "velocity": 104, "channel": 0}, {"type": "note_on", "time": 13, "note": 67, "velocity": 116, "channel": 0}, {"type": "note_off", "time": 263, "note": 67, "velocity": 116, "channel": 0}, {"type": "note_on", "time": 51, "note": 64, "velocity": 104, "channel": 0}, {"type": "note_off", "time": 168, "note": 64, "velocity": 104, "channel": 0}, {"type": "note_on", "time": 14, "note": 65, "velocity": 111, "channel": 0}, {"type": "note_off", "time": 253, "note": 65, "velocity": 111, "channel": 0}, {"type": "note_on", "time": 41, "note": 60, "velocity": 108, "channel": 0}, {"type": "note_off", "time": 138, "note": 60, "velocity": 108, "channel": 0}, {"type": "note_on", "time": 0, "note": 56, "velocity": 95, "channel": 0}, {"type": "note_off", "time": 126, "note": 56, "velocity": 95, "channel": 0}, {"type": "note_on", "time": 103, "note": 53, "velocity": 97, "channel": 0}, {"type": "note_off", "time": 161, "note": 53, "velocity": 97, "channel": 0}, {"type": "note_on", "time": 11, "note": 60, "velocity": 116, "channel": 0}, {"type": "note_off", "time": 403, "note": 60, "velocity": 116, "channel": 0}, {"type": "note_on", "time": 1106, "note": 64, "velocity": 120, "channel": 0}, {"type": "note_off", "time": 219, "note": 64, "velocity": 120, "channel": 0}, {"type": "note_on", "time": 21, "note": 65, "velocity": 115, "channel": 0}, {"type": "note_off", "time": 300, "note": 65, "velocity": 115, "channel": 0}, {"type": "note_on", "time": 10, "note": 60, "velocity": 95, "channel": 0}, {"type": "note_off", "time": 142, "note": 60, "velocity": 95, "channel": 0}, {"type": "note_on", "time": 14, "note": 64, "velocity": 118, "channel": 0}, {"type": "note_off", "time": 278, "note": 64, "velocity": 118, "channel": 0}, {"type": "note_on", "time": 33, "note": 65, "velocity": 113, "channel": 0}, {"type": "note_off", "time": 152, "note": 65, "velocity": 113, "channel": 0}, {"type": "note_on", "time": 23, "note": 67, "velocity": 112, "channel": 0}, {"type": "note_off", "time": 118, "note": 67, "velocity": 112, "channel": 0}, {"type": "note_on", "time": 30, "note": 68, "velocity": 112, "channel": 0}, {"type": "note_off", "time": 219, "note": 68, "velocity": 112, "channel": 0}, {"type": "note_on", "time": 18, "note": 65, "velocity": 110, "channel": 0}, {"type": "note_off", "time": 150, "note": 65, "velocity": 110, "channel": 0}, {"type": "note_on", "time": 47, "note": 64, "velocity": 113, "channel": 0}, {"type": "note_off", "time": 163, "note": 64, "velocity": 113, "channel": 0}, {"type": "note_on", "time": 20, "note": 63, "velocity": 118, "channel": 0}, {"type": "note_off", "time": 177, "note": 63, "velocity": 118, "channel": 0}, {"type": "note_on", "time": 18, "note": 62, "velocity": 113, "channel": 0}, {"type": "note_off", "time": 207, "note": 62, "velocity": 113, "channel": 0}, {"type": "note_on", "time": 18, "note": 60, "velocity": 100, "channel": 0}, {"type": "note_off", "time": 161, "note": 60, "velocity": 100, "channel": 0}, {"type": "note_on", "time": 37, "note": 59, "velocity": 107, "channel": 0}, {"type": "note_off", "time": 103, "note": 59, "velocity": 107, "channel": 0}, {"type": "note_on", "time": 36, "note": 58, "velocity": 105, "channel": 0}, {"type": "note_off", "time": 138, "note": 58, "velocity": 105, "channel": 0}, {"type": "note_on", "time": 11, "note": 57, "velocity": 109, "channel": 0}, {"type": "note_on", "time": 196, "note": 56, "velocity": 103, "channel": 0}, {"type": "note_off", "time": 0, "note": 57, "velocity": 109, "channel": 0}, {"type": "note_off", "time": 150, "note": 56, "velocity": 103, "channel": 0}, {"type": "note_on", "time": 69, "note": 58, "velocity": 111, "channel": 0}, {"type": "note_off", "time": 142, "note": 58, "velocity": 111, "channel": 0}, {"type": "note_on", "time": 36, "note": 61, "velocity": 111, "channel": 0}, {"type": "note_off", "time": 131, "note": 61, "velocity": 111, "channel": 0}, {"type": "note_on", "time": 36, "note": 62, "velocity": 116, "channel": 0}, {"type": "note_off", "time": 126, "note": 62, "velocity": 116, "channel": 0}, {"type": "note_on", "time": 27, "note": 63, "velocity": 119, "channel": 0}, {"type": "note_off", "time": 168, "note": 63, "velocity": 119, "channel": 0}, {"type": "note_on", "time": 21, "note": 65, "velocity": 110, "channel": 0}, {"type": "note_off", "time": 173, "note": 65, "velocity": 110, "channel": 0}, {"type": "note_on", "time": 37, "note": 67, "velocity": 113, "channel": 0}, {"type": "note_off", "time": 145, "note": 67, "velocity": 113, "channel": 0}, {"type": "note_on", "time": 37, "note": 63, "velocity": 110, "channel": 0}, {"type": "note_off", "time": 288, "note": 63, "velocity": 110, "channel": 0}, {"type": "note_on", "time": 196, "note": 63, "velocity": 116, "channel": 0}, {"type": "note_off", "time": 265, "note": 63, "velocity": 116, "channel": 0}, {"type": "note_on", "time": 169, "note": 63, "velocity": 116, "channel": 0}, {"type": "note_off", "time": 612, "note": 63, "velocity": 116, "channel": 0}, {"type": "note_on", "time": 125, "note": 58, "velocity": 107, "channel": 0}, {"type": "note_off", "time": 109, "note": 58, "velocity": 107, "channel": 0}, {"type": "note_on", "time": 32, "note": 61, "velocity": 114, "channel": 0}, {"type": "note_off", "time": 230, "note": 61, "velocity": 114, "channel": 0}, {"type": "note_on", "time": 0, "note": 63, "velocity": 122, "channel": 0}, {"type": "note_off", "time": 461, "note": 63, "velocity": 122, "channel": 0}, {"type": "note_on", "time": 1443, "note": 65, "velocity": 117, "channel": 0}, {"type": "note_off", "time": 237, "note": 65, "velocity": 117, "channel": 0}, {"type": "note_on", "time": 15, "note": 67, "velocity": 112, "channel": 0}, {"type": "note_off", "time": 1257, "note": 67, "velocity": 112, "channel": 0}, {"type": "note_on", "time": 31, "note": 68, "velocity": 118, "channel": 0}, {"type": "note_off", "time": 230, "note": 68, "velocity": 118, "channel": 0}, {"type": "note_on", "time": 118, "note": 67, "velocity": 111, "channel": 0}, {"type": "note_off", "time": 230, "note": 67, "velocity": 111, "channel": 0}, {"type": "note_on", "time": 243, "note": 67, "velocity": 111, "channel": 0}, {"type": "note_off", "time": 242, "note": 67, "velocity": 111, "channel": 0}, {"type": "note_on", "time": 173, "note": 67, "velocity": 113, "channel": 0}, {"type": "note_off", "time": 265, "note": 67, "velocity": 113, "channel": 0}, {"type": "note_on", "time": 34, "note": 63, "velocity": 117, "channel": 0}, {"type": "note_off", "time": 300, "note": 63, "velocity": 117, "channel": 0}, {"type": "note_on", "time": 184, "note": 61, "velocity": 115, "channel": 0}, {"type": "note_off", "time": 738, "note": 61, "velocity": 115, "channel": 0}, {"type": "note_on", "time": 0, "note": 65, "velocity": 112, "channel": 0}, {"type": "note_off", "time": 392, "note": 65, "velocity": 112, "channel": 0}, {"type": "note_on", "time": 69, "note": 62, "velocity": 117, "channel": 0}, {"type": "note_off", "time": 161, "note": 62, "velocity": 117, "channel": 0}, {"type": "note_on", "time": 11, "note": 63, "velocity": 114, "channel": 0}, {"type": "note_off", "time": 1025, "note": 63, "velocity": 114, "channel": 0}, {"type": "note_on", "time": 28, "note": 60, "velocity": 114, "channel": 0}, {"type": "note_off", "time": 173, "note": 60, "velocity": 114, "channel": 0}, {"type": "note_on", "time": 87, "note": 56, "velocity": 107, "channel": 0}, {"type": "note_off", "time": 184, "note": 56, "velocity": 107, "channel": 0}, {"type": "note_on", "time": 46, "note": 51, "velocity": 112, "channel": 0}, {"type": "note_off", "time": 300, "note": 51, "velocity": 112, "channel": 0}, {"type": "note_on", "time": 57, "note": 54, "velocity": 109, "channel": 0}, {"type": "note_off", "time": 242, "note": 54, "velocity": 109, "channel": 0}, {"type": "note_on", "time": 0, "note": 62, "velocity": 116, "channel": 0}, {"type": "note_off", "time": 346, "note": 62, "velocity": 116, "channel": 0}, {"type": "note_on", "time": 1754, "note": 58, "velocity": 113, "channel": 0}, {"type": "note_off", "time": 242, "note": 58, "velocity": 113, "channel": 0}, {"type": "note_on", "time": 0, "note": 61, "velocity": 115, "channel": 0}, {"type": "note_off", "time": 276, "note": 61, "velocity": 115, "channel": 0}, {"type": "note_on", "time": 0, "note": 65, "velocity": 115, "channel": 0}, {"type": "note_off", "time": 173, "note": 65, "velocity": 115, "channel": 0}, {"type": "note_on", "time": 115, "note": 68, "velocity": 114, "channel": 0}, {"type": "note_off", "time": 265, "note": 68, "velocity": 114, "channel": 0}, {"type": "note_on", "time": 79, "note": 69, "velocity": 116, "channel": 0}, {"type": "note_off", "time": 142, "note": 69, "velocity": 116, "channel": 0}, {"type": "note_on", "time": 26, "note": 72, "velocity": 118, "channel": 0}, {"type": "note_off", "time": 202, "note": 72, "velocity": 118, "channel": 0}, {"type": "note_on", "time": 57, "note": 75, "velocity": 110, "channel": 0}, {"type": "note_off", "time": 1084, "note": 75, "velocity": 110, "channel": 0}, {"type": "note_on", "time": 0, "note": 71, "velocity": 96, "channel": 0}, {"type": "note_off", "time": 184, "note": 71, "velocity": 96, "channel": 0}, {"type": "note_on", "time": 184, "note": 61, "velocity": 100, "channel": 0}, {"type": "note_off", "time": 230, "note": 61, "velocity": 100, "channel": 0}, {"type": "note_on", "time": 473, "note": 71, "velocity": 102, "channel": 0}, {"type": "note_off", "time": 173, "note": 71, "velocity": 102, "channel": 0}, {"type": "note_on", "time": 230, "note": 75, "velocity": 115, "channel": 0}, {"type": "note_off", "time": 507, "note": 75, "velocity": 115, "channel": 0}, {"type": "note_on", "time": 11, "note": 73, "velocity": 110, "channel": 0}, {"type": "note_off", "time": 242, "note": 73, "velocity": 110, "channel": 0}, {"type": "note_on", "time": 80, "note": 68, "velocity": 117, "channel": 0}, {"type": "note_off", "time": 223, "note": 68, "velocity": 117, "channel": 0}, {"type": "note_on", "time": 0, "note": 64, "velocity": 115, "channel": 0}, {"type": "note_off", "time": 196, "note": 64, "velocity": 115, "channel": 0}, {"type": "note_on", "time": 14, "note": 63, "velocity": 114, "channel": 0}, {"type": "note_off", "time": 300, "note": 63, "velocity": 114, "channel": 0}, {"type": "note_on", "time": 1002, "note": 63, "velocity": 121, "channel": 0}, {"type": "note_off", "time": 201, "note": 63, "velocity": 121, "channel": 0}, {"type": "note_on", "time": 40, "note": 62, "velocity": 117, "channel": 0}, {"type": "note_off", "time": 203, "note": 62, "velocity": 117, "channel": 0}, {"type": "note_on", "time": 25, "note": 63, "velocity": 119, "channel": 0}, {"type": "note_off", "time": 167, "note": 63, "velocity": 119, "channel": 0}, {"type": "note_on", "time": 36, "note": 65, "velocity": 111, "channel": 0}, {"type": "note_off", "time": 150, "note": 65, "velocity": 111, "channel": 0}, {"type": "note_on", "time": 57, "note": 66, "velocity": 110, "channel": 0}, {"type": "note_off", "time": 219, "note": 66, "velocity": 110, "channel": 0}, {"type": "note_on", "time": 80, "note": 70, "velocity": 114, "channel": 0}, {"type": "note_off", "time": 150, "note": 70, "velocity": 114, "channel": 0}, {"type": "note_on", "time": 57, "note": 73, "velocity": 115, "channel": 0}, {"type": "note_off", "time": 300, "note": 73, "velocity": 115, "channel": 0}, {"type": "note_on", "time": 23, "note": 72, "velocity": 107, "channel": 0}, {"type": "note_off", "time": 265, "note": 72, "velocity": 107, "channel": 0}, {"type": "note_on", "time": 103, "note": 75, "velocity": 111, "channel": 0}, {"type": "note_off", "time": 1084, "note": 75, "velocity": 111, "channel": 0}, {"type": "note_on", "time": 46, "note": 70, "velocity": 106, "channel": 0}, {"type": "note_off", "time": 300, "note": 70, "velocity": 106, "channel": 0}, {"type": "note_on", "time": 26, "note": 63, "velocity": 118, "channel": 0}, {"type": "note_off", "time": 242, "note": 63, "velocity": 118, "channel": 0}, {"type": "note_on", "time": 319, "note": 66, "velocity": 109, "channel": 0}, {"type": "note_off", "time": 461, "note": 66, "velocity": 109, "channel": 0}, {"type": "note_on", "time": 0, "note": 69, "velocity": 116, "channel": 0}, {"type": "note_off", "time": 346, "note": 69, "velocity": 116, "channel": 0}, {"type": "note_on", "time": 181, "note": 74, "velocity": 114, "channel": 0}, {"type": "note_off", "time": 161, "note": 74, "velocity": 114, "channel": 0}, {"type": "note_on", "time": 17, "note": 73, "velocity": 118, "channel": 0}, {"type": "note_off", "time": 99, "note": 73, "velocity": 118, "channel": 0}, {"type": "note_on", "time": 15, "note": 72, "velocity": 115, "channel": 0}, {"type": "note_off", "time": 109, "note": 72, "velocity": 115, "channel": 0}, {"type": "note_on", "time": 25, "note": 70, "velocity": 114, "channel": 0}, {"type": "note_off", "time": 1200, "note": 70, "velocity": 114, "channel": 0}, {"type": "note_on", "time": 33, "note": 67, "velocity": 116, "channel": 0}, {"type": "note_off", "time": 196, "note": 67, "velocity": 116, "channel": 0}, {"type": "note_on", "time": 7, "note": 65, "velocity": 114, "channel": 0}, {"type": "note_off", "time": 160, "note": 65, "velocity": 114, "channel": 0}, {"type": "note_on", "time": 16, "note": 63, "velocity": 119, "channel": 0}, {"type": "note_off", "time": 184, "note": 63, "velocity": 119, "channel": 0}, {"type": "note_on", "time": 67, "note": 62, "velocity": 118, "channel": 0}, {"type": "note_off", "time": 219, "note": 62, "velocity": 118, "channel": 0}, {"type": "note_on", "time": 117, "note": 60, "velocity": 107, "channel": 0}, {"type": "note_off", "time": 496, "note": 60, "velocity": 107, "channel": 0}, {"type": "note_on", "time": 1142, "note": 55, "velocity": 113, "channel": 0}, {"type": "note_off", "time": 230, "note": 55, "velocity": 113, "channel": 0}, {"type": "note_on", "time": 14, "note": 56, "velocity": 109, "channel": 0}, {"type": "note_off", "time": 170, "note": 56, "velocity": 109, "channel": 0}, {"type": "note_on", "time": 0, "note": 58, "velocity": 108, "channel": 0}, {"type": "note_on", "time": 230, "note": 60, "velocity": 109, "channel": 0}, {"type": "note_off", "time": 0, "note": 58, "velocity": 108, "channel": 0}, {"type": "note_off", "time": 219, "note": 60, "velocity": 109, "channel": 0}, {"type": "note_on", "time": 11, "note": 62, "velocity": 112, "channel": 0}, {"type": "note_off", "time": 138, "note": 62, "velocity": 112, "channel": 0}, {"type": "note_on", "time": 33, "note": 63, "velocity": 116, "channel": 0}, {"type": "note_off", "time": 207, "note": 63, "velocity": 116, "channel": 0}, {"type": "note_on", "time": 41, "note": 65, "velocity": 115, "channel": 0}, {"type": "note_off", "time": 207, "note": 65, "velocity": 115, "channel": 0}, {"type": "note_on", "time": 155, "note": 70, "velocity": 118, "channel": 0}, {"type": "note_off", "time": 323, "note": 70, "velocity": 118, "channel": 0}, {"type": "note_on", "time": 103, "note": 64, "velocity": 104, "channel": 0}, {"type": "note_off", "time": 184, "note": 64, "velocity": 104, "channel": 0}, {"type": "note_on", "time": 34, "note": 61, "velocity": 115, "channel": 0}, {"type": "note_off", "time": 196, "note": 61, "velocity": 115, "channel": 0}, {"type": "note_on", "time": 0, "note": 57, "velocity": 110, "channel": 0}, {"type": "note_off", "time": 103, "note": 57, "velocity": 110, "channel": 0}, {"type": "note_on", "time": 6, "note": 54, "velocity": 101, "channel": 0}, {"type": "note_off", "time": 276, "note": 54, "velocity": 101, "channel": 0}, {"type": "note_on", "time": 847, "note": 58, "velocity": 111, "channel": 0}, {"type": "note_off", "time": 323, "note": 58, "velocity": 111, "channel": 0}, {"type": "note_on", "time": 276, "note": 58, "velocity": 115, "channel": 0}, {"type": "note_off", "time": 184, "note": 58, "velocity": 115, "channel": 0}, {"type": "note_on", "time": 34, "note": 56, "velocity": 107, "channel": 0}, {"type": "note_off", "time": 207, "note": 56, "velocity": 107, "channel": 0}, {"type": "note_on", "time": 34, "note": 58, "velocity": 108, "channel": 0}, {"type": "note_off", "time": 145, "note": 58, "velocity": 108, "channel": 0}, {"type": "note_on", "time": 18, "note": 60, "velocity": 107, "channel": 0}, {"type": "note_off", "time": 173, "note": 60, "velocity": 107, "channel": 0}, {"type": "note_on", "time": 33, "note": 63, "velocity": 111, "channel": 0}, {"type": "note_off", "time": 158, "note": 63, "velocity": 111, "channel": 0}, {"type": "note_on", "time": 26, "note": 67, "velocity": 119, "channel": 0}, {"type": "note_off", "time": 143, "note": 67, "velocity": 119, "channel": 0}, {"type": "note_on", "time": 16, "note": 68, "velocity": 111, "channel": 0}, {"type": "note_off", "time": 66, "note": 68, "velocity": 111, "channel": 0}, {"type": "note_on", "time": 18, "note": 67, "velocity": 113, "channel": 0}, {"type": "note_off", "time": 59, "note": 67, "velocity": 113, "channel": 0}, {"type": "note_on", "time": 5, "note": 64, "velocity": 120, "channel": 0}, {"type": "note_off", "time": 300, "note": 64, "velocity": 120, "channel": 0}, {"type": "note_on", "time": 11, "note": 67, "velocity": 113, "channel": 0}, {"type": "note_off", "time": 134, "note": 67, "velocity": 113, "channel": 0}, {"type": "note_on", "time": 28, "note": 65, "velocity": 113, "channel": 0}, {"type": "note_off", "time": 132, "note": 65, "velocity": 113, "channel": 0}, {"type": "note_on", "time": 633, "note": 67, "velocity": 117, "channel": 0}, {"type": "note_off", "time": 230, "note": 67, "velocity": 117, "channel": 0}, {"type": "note_on", "time": 11, "note": 66, "velocity": 112, "channel": 0}, {"type": "note_off", "time": 115, "note": 66, "velocity": 112, "channel": 0}, {"type": "note_on", "time": 51, "note": 65, "velocity": 112, "channel": 0}, {"type": "note_off", "time": 207, "note": 65, "velocity": 112, "channel": 0}, {"type": "note_on", "time": 18, "note": 64, "velocity": 116, "channel": 0}, {"type": "note_off", "time": 173, "note": 64, "velocity": 116, "channel": 0}, {"type": "note_on", "time": 20, "note": 63, "velocity": 119, "channel": 0}, {"type": "note_off", "time": 246, "note": 63, "velocity": 119, "channel": 0}, {"type": "note_on", "time": 43, "note": 62, "velocity": 112, "channel": 0}, {"type": "note_off", "time": 152, "note": 62, "velocity": 112, "channel": 0}, {"type": "note_on", "time": 17, "note": 60, "velocity": 105, "channel": 0}, {"type": "note_off", "time": 246, "note": 60, "velocity": 105, "channel": 0}, {"type": "note_on", "time": 33, "note": 59, "velocity": 105, "channel": 0}, {"type": "note_off", "time": 242, "note": 59, "velocity": 105, "channel": 0}, {"type": "note_on", "time": 40, "note": 57, "velocity": 103, "channel": 0}, {"type": "note_off", "time": 173, "note": 57, "velocity": 103, "channel": 0}, {"type": "note_on", "time": 69, "note": 56, "velocity": 97, "channel": 0}, {"type": "note_off", "time": 196, "note": 56, "velocity": 97, "channel": 0}, {"type": "note_on", "time": 34, "note": 58, "velocity": 106, "channel": 0}, {"type": "note_off", "time": 253, "note": 58, "velocity": 106, "channel": 0}, {"type": "note_on", "time": 18, "note": 60, "velocity": 96, "channel": 0}, {"type": "note_off", "time": 138, "note": 60, "velocity": 96, "channel": 0}, {"type": "note_on", "time": 15, "note": 62, "velocity": 116, "channel": 0}, {"type": "note_off", "time": 173, "note": 62, "velocity": 116, "channel": 0}, {"type": "note_on", "time": 46, "note": 63, "velocity": 121, "channel": 0}, {"type": "note_off", "time": 207, "note": 63, "velocity": 121, "channel": 0}, {"type": "note_on", "time": 33, "note": 65, "velocity": 115, "channel": 0}, {"type": "note_off", "time": 190, "note": 65, "velocity": 115, "channel": 0}, {"type": "note_on", "time": 39, "note": 67, "velocity": 115, "channel": 0}, {"type": "note_off", "time": 111, "note": 67, "velocity": 115, "channel": 0}, {"type": "note_on", "time": 9, "note": 68, "velocity": 113, "channel": 0}, {"type": "note_off", "time": 175, "note": 68, "velocity": 113, "channel": 0}, {"type": "note_on", "time": 17, "note": 70, "velocity": 119, "channel": 0}, {"type": "note_off", "time": 265, "note": 70, "velocity": 119, "channel": 0}, {"type": "note_on", "time": 67, "note": 67, "velocity": 103, "channel": 0}, {"type": "note_off", "time": 122, "note": 67, "velocity": 103, "channel": 0}, {"type": "note_on", "time": 24, "note": 68, "velocity": 114, "channel": 0}, {"type": "note_off", "time": 105, "note": 68, "velocity": 114, "channel": 0}, {"type": "note_on", "time": 41, "note": 71, "velocity": 107, "channel": 0}, {"type": "note_off", "time": 144, "note": 71, "velocity": 107, "channel": 0}, {"type": "note_on", "time": 58, "note": 68, "velocity": 114, "channel": 0}, {"type": "note_off", "time": 150, "note": 68, "velocity": 114, "channel": 0}, {"type": "note_on", "time": 22, "note": 67, "velocity": 9, "channel": 0}, {"type": "note_off", "time": 180, "note": 67, "velocity": 9, "channel": 0}, {"type": "note_on", "time": 15, "note": 65, "velocity": 9, "channel": 0}, {"type": "note_off", "time": 196, "note": 65, "velocity": 9, "channel": 0}, {"type": "note_on", "time": 57, "note": 63, "velocity": 118, "channel": 0}, {"type": "note_off", "time": 230, "note": 63, "velocity": 118, "channel": 0}, {"type": "note_on", "time": 34, "note": 60, "velocity": 106, "channel": 0}, {"type": "note_off", "time": 138, "note": 60, "velocity": 106, "channel": 0}, {"type": "note_on", "time": 23, "note": 56, "velocity": 102, "channel": 0}, {"type": "note_off", "time": 150, "note": 56, "velocity": 102, "channel": 0}, {"type": "note_on", "time": 28, "note": 53, "velocity": 103, "channel": 0}, {"type": "note_off", "time": 132, "note": 53, "velocity": 103, "channel": 0}, {"type": "note_on", "time": 56, "note": 62, "velocity": 120, "channel": 0}, {"type": "note_off", "time": 126, "note": 62, "velocity": 120, "channel": 0}, {"type": "note_on", "time": 69, "note": 63, "velocity": 123, "channel": 0}, {"type": "note_off", "time": 175, "note": 63, "velocity": 123, "channel": 0}, {"type": "note_on", "time": 40, "note": 65, "velocity": 113, "channel": 0}, {"type": "note_off", "time": 163, "note": 65, "velocity": 113, "channel": 0}, {"type": "note_on", "time": 37, "note": 62, "velocity": 102, "channel": 0}, {"type": "note_off", "time": 173, "note": 62, "velocity": 102, "channel": 0}, {"type": "note_on", "time": 34, "note": 63, "velocity": 125, "channel": 0}, {"type": "note_off", "time": 242, "note": 63, "velocity": 125, "channel": 0}, {"type": "note_on", "time": 11, "note": 60, "velocity": 109, "channel": 0}, {"type": "note_off", "time": 150, "note": 60, "velocity": 109, "channel": 0}, {"type": "note_on", "time": 14, "note": 56, "velocity": 111, "channel": 0}, {"type": "note_off", "time": 203, "note": 56, "velocity": 111, "channel": 0}, {"type": "note_on", "time": 17, "note": 53, "velocity": 110, "channel": 0}, {"type": "note_on", "time": 134, "note": 62, "velocity": 112, "channel": 0}, {"type": "note_off", "time": 0, "note": 53, "velocity": 110, "channel": 0}, {"type": "note_off", "time": 334, "note": 62, "velocity": 112, "channel": 0}, {"type": "note_on", "time": 496, "note": 70, "velocity": 120, "channel": 0}, {"type": "note_off", "time": 265, "note": 70, "velocity": 120, "channel": 0}, {"type": "note_on", "time": 0, "note": 68, "velocity": 118, "channel": 0}, {"type": "note_off", "time": 103, "note": 68, "velocity": 118, "channel": 0}, {"type": "note_on", "time": 34, "note": 67, "velocity": 114, "channel": 0}, {"type": "note_off", "time": 161, "note": 67, "velocity": 114, "channel": 0}, {"type": "note_on", "time": 92, "note": 65, "velocity": 114, "channel": 0}, {"type": "note_off", "time": 207, "note": 65, "velocity": 114, "channel": 0}, {"type": "note_on", "time": 23, "note": 63, "velocity": 113, "channel": 0}, {"type": "note_off", "time": 207, "note": 63, "velocity": 113, "channel": 0}, {"type": "note_on", "time": 276, "note": 63, "velocity": 117, "channel": 0}, {"type": "note_off", "time": 346, "note": 63, "velocity": 117, "channel": 0}, {"type": "note_on", "time": 78, "note": 65, "velocity": 108, "channel": 0}, {"type": "note_off", "time": 99, "note": 65, "velocity": 108, "channel": 0}, {"type": "note_on", "time": 6, "note": 67, "velocity": 110, "channel": 0}, {"type": "note_off", "time": 229, "note": 67, "velocity": 110, "channel": 0}, {"type": "note_on", "time": 25, "note": 70, "velocity": 117, "channel": 0}, {"type": "note_off", "time": 969, "note": 70, "velocity": 117, "channel": 0}, {"type": "note_on", "time": 1777, "note": 68, "velocity": 120, "channel": 0}, {"type": "note_off", "time": 173, "note": 68, "velocity": 120, "channel": 0}, {"type": "note_on", "time": 11, "note": 70, "velocity": 117, "channel": 0}, {"type": "note_off", "time": 1280, "note": 70, "velocity": 117, "channel": 0}, {"type": "note_on", "time": 11, "note": 68, "velocity": 102, "channel": 0}, {"type": "note_off", "time": 196, "note": 68, "velocity": 102, "channel": 0}, {"type": "note_on", "time": 57, "note": 71, "velocity": 121, "channel": 0}, {"type": "note_off", "time": 196, "note": 71, "velocity": 121, "channel": 0}, {"type": "note_on", "time": 0, "note": 70, "velocity": 113, "channel": 0}, {"type": "note_off", "time": 184, "note": 70, "velocity": 113, "channel": 0}, {"type": "note_on", "time": 23, "note": 68, "velocity": 116, "channel": 0}, {"type": "note_off", "time": 357, "note": 68, "velocity": 116, "channel": 0}, {"type": "note_on", "time": 952, "note": 66, "velocity": 118, "channel": 0}, {"type": "note_off", "time": 115, "note": 66, "velocity": 118, "channel": 0}, {"type": "note_on", "time": 23, "note": 68, "velocity": 116, "channel": 0}, {"type": "note_off", "time": 139, "note": 68, "velocity": 116, "channel": 0}, {"type": "note_on", "time": 15, "note": 67, "velocity": 113, "channel": 0}, {"type": "note_off", "time": 138, "note": 67, "velocity": 113, "channel": 0}, {"type": "note_on", "time": 33, "note": 65, "velocity": 116, "channel": 0}, {"type": "note_off", "time": 92, "note": 65, "velocity": 116, "channel": 0}, {"type": "note_on", "time": 105, "note": 61, "velocity": 113, "channel": 0}, {"type": "note_off", "time": 196, "note": 61, "velocity": 113, "channel": 0}, {"type": "note_on", "time": 80, "note": 58, "velocity": 110, "channel": 0}, {"type": "note_off", "time": 207, "note": 58, "velocity": 110, "channel": 0}, {"type": "note_on", "time": 11, "note": 53, "velocity": 97, "channel": 0}, {"type": "note_off", "time": 161, "note": 53, "velocity": 97, "channel": 0}, {"type": "note_on", "time": 57, "note": 56, "velocity": 110, "channel": 0}, {"type": "note_off", "time": 196, "note": 56, "velocity": 110, "channel": 0}, {"type": "note_on", "time": 33, "note": 65, "velocity": 95, "channel": 0}, {"type": "note_off", "time": 151, "note": 65, "velocity": 95, "channel": 0}, {"type": "note_on", "time": 20, "note": 66, "velocity": 103, "channel": 0}, {"type": "note_off", "time": 126, "note": 66, "velocity": 103, "channel": 0}, {"type": "note_on", "time": 37, "note": 63, "velocity": 120, "channel": 0}, {"type": "note_off", "time": 242, "note": 63, "velocity": 120, "channel": 0}, {"type": "note_on", "time": 10, "note": 61, "velocity": 113, "channel": 0}, {"type": "note_off", "time": 196, "note": 61, "velocity": 113, "channel": 0}, {"type": "note_on", "time": 12, "note": 63, "velocity": 117, "channel": 0}, {"type": "note_off", "time": 219, "note": 63, "velocity": 117, "channel": 0}, {"type": "note_on", "time": 17, "note": 65, "velocity": 109, "channel": 0}, {"type": "note_off", "time": 207, "note": 65, "velocity": 109, "channel": 0}, {"type": "note_on", "time": 17, "note": 67, "velocity": 112, "channel": 0}, {"type": "note_off", "time": 69, "note": 67, "velocity": 112, "channel": 0}, {"type": "note_on", "time": 23, "note": 68, "velocity": 112, "channel": 0}, {"type": "note_off", "time": 184, "note": 68, "velocity": 112, "channel": 0}, {"type": "note_on", "time": 46, "note": 70, "velocity": 101, "channel": 0}, {"type": "note_off", "time": 184, "note": 70, "velocity": 101, "channel": 0}, {"type": "note_on", "time": 23, "note": 72, "velocity": 116, "channel": 0}, {"type": "note_off", "time": 196, "note": 72, "velocity": 116, "channel": 0}, {"type": "note_on", "time": 0, "note": 64, "velocity": 103, "channel": 0}, {"type": "note_off", "time": 323, "note": 64, "velocity": 103, "channel": 0}, {"type": "note_on", "time": 11, "note": 66, "velocity": 103, "channel": 0}, {"type": "note_off", "time": 219, "note": 66, "velocity": 103, "channel": 0}, {"type": "note_on", "time": 2, "note": 67, "velocity": 110, "channel": 0}, {"type": "note_off", "time": 139, "note": 67, "velocity": 110, "channel": 0}, {"type": "note_on", "time": 34, "note": 69, "velocity": 109, "channel": 0}, {"type": "note_off", "time": 148, "note": 69, "velocity": 109, "channel": 0}, {"type": "note_on", "time": 53, "note": 71, "velocity": 122, "channel": 0}, {"type": "note_off", "time": 200, "note": 71, "velocity": 122, "channel": 0}, {"type": "note_on", "time": 31, "note": 74, "velocity": 112, "channel": 0}, {"type": "note_off", "time": 196, "note": 74, "velocity": 112, "channel": 0}, {"type": "note_on", "time": 15, "note": 73, "velocity": 115, "channel": 0}, {"type": "note_off", "time": 134, "note": 73, "velocity": 115, "channel": 0}, {"type": "note_on", "time": 28, "note": 72, "velocity": 109, "channel": 0}, {"type": "note_off", "time": 66, "note": 72, "velocity": 109, "channel": 0}, {"type": "note_on", "time": 31, "note": 71, "velocity": 118, "channel": 0}, {"type": "note_off", "time": 124, "note": 71, "velocity": 118, "channel": 0}, {"type": "note_on", "time": 25, "note": 69, "velocity": 115, "channel": 0}, {"type": "note_off", "time": 288, "note": 69, "velocity": 115, "channel": 0}, {"type": "note_on", "time": 992, "note": 71, "velocity": 114, "channel": 0}, {"type": "note_off", "time": 144, "note": 71, "velocity": 114, "channel": 0}, {"type": "note_on", "time": 37, "note": 73, "velocity": 108, "channel": 0}, {"type": "note_off", "time": 72, "note": 73, "velocity": 108, "channel": 0}, {"type": "note_on", "time": 34, "note": 75, "velocity": 113, "channel": 0}, {"type": "note_off", "time": 426, "note": 75, "velocity": 113, "channel": 0}, {"type": "note_on", "time": 13, "note": 73, "velocity": 115, "channel": 0}, {"type": "note_off", "time": 231, "note": 73, "velocity": 115, "channel": 0}, {"type": "note_on", "time": 42, "note": 72, "velocity": 117, "channel": 0}, {"type": "note_off", "time": 129, "note": 72, "velocity": 117, "channel": 0}, {"type": "note_on", "time": 28, "note": 68, "velocity": 103, "channel": 0}, {"type": "note_off", "time": 194, "note": 68, "velocity": 103, "channel": 0}, {"type": "note_on", "time": 29, "note": 69, "velocity": 114, "channel": 0}, {"type": "note_off", "time": 219, "note": 69, "velocity": 114, "channel": 0}, {"type": "note_on", "time": 11, "note": 70, "velocity": 115, "channel": 0}, {"type": "note_off", "time": 184, "note": 70, "velocity": 115, "channel": 0}, {"type": "note_on", "time": 43, "note": 66, "velocity": 103, "channel": 0}, {"type": "note_off", "time": 148, "note": 66, "velocity": 103, "channel": 0}, {"type": "note_on", "time": 131, "note": 68, "velocity": 110, "channel": 0}, {"type": "note_off", "time": 150, "note": 68, "velocity": 110, "channel": 0}, {"type": "note_on", "time": 0, "note": 70, "velocity": 116, "channel": 0}, {"type": "note_off", "time": 173, "note": 70, "velocity": 116, "channel": 0}, {"type": "note_on", "time": 57, "note": 66, "velocity": 115, "channel": 0}, {"type": "note_off", "time": 138, "note": 66, "velocity": 115, "channel": 0}, {"type": "note_on", "time": 69, "note": 65, "velocity": 112, "channel": 0}, {"type": "note_off", "time": 161, "note": 65, "velocity": 112, "channel": 0}, {"type": "note_on", "time": 11, "note": 63, "velocity": 112, "channel": 0}, {"type": "note_off", "time": 196, "note": 63, "velocity": 112, "channel": 0}, {"type": "note_on", "time": 69, "note": 62, "velocity": 105, "channel": 0}, {"type": "note_off", "time": 92, "note": 62, "velocity": 105, "channel": 0}, {"type": "note_on", "time": 46, "note": 63, "velocity": 102, "channel": 0}, {"type": "note_off", "time": 173, "note": 63, "velocity": 102, "channel": 0}, {"type": "note_on", "time": 0, "note": 68, "velocity": 120, "channel": 0}, {"type": "note_off", "time": 219, "note": 68, "velocity": 120, "channel": 0}, {"type": "note_on", "time": 0, "note": 66, "velocity": 107, "channel": 0}, {"type": "note_off", "time": 219, "note": 66, "velocity": 107, "channel": 0}, {"type": "note_on", "time": 11, "note": 61, "velocity": 112, "channel": 0}, {"type": "note_off", "time": 265, "note": 61, "velocity": 112, "channel": 0}, {"type": "note_on", "time": 21, "note": 58, "velocity": 95, "channel": 0}, {"type": "note_off", "time": 170, "note": 58, "velocity": 95, "channel": 0}, {"type": "note_on", "time": 5, "note": 65, "velocity": 113, "channel": 0}, {"type": "note_off", "time": 268, "note": 65, "velocity": 113, "channel": 0}, {"type": "note_on", "time": 341, "note": 63, "velocity": 120, "channel": 0}, {"type": "note_off", "time": 207, "note": 63, "velocity": 120, "channel": 0}, {"type": "note_on", "time": 34, "note": 65, "velocity": 112, "channel": 0}, {"type": "note_off", "time": 150, "note": 65, "velocity": 112, "channel": 0}, {"type": "note_on", "time": 11, "note": 61, "velocity": 114, "channel": 0}, {"type": "note_off", "time": 150, "note": 61, "velocity": 114, "channel": 0}, {"type": "note_on", "time": 23, "note": 63, "velocity": 113, "channel": 0}, {"type": "note_off", "time": 196, "note": 63, "velocity": 113, "channel": 0}, {"type": "note_on", "time": 34, "note": 65, "velocity": 100, "channel": 0}, {"type": "note_off", "time": 161, "note": 65, "velocity": 100, "channel": 0}, {"type": "note_on", "time": 23, "note": 71, "velocity": 118, "channel": 0}, {"type": "note_off", "time": 138, "note": 71, "velocity": 118, "channel": 0}, {"type": "note_on", "time": 4, "note": 70, "velocity": 118, "channel": 0}, {"type": "note_off", "time": 219, "note": 70, "velocity": 118, "channel": 0}, {"type": "note_on", "time": 6, "note": 68, "velocity": 115, "channel": 0}, {"type": "note_off", "time": 126, "note": 68, "velocity": 115, "channel": 0}, {"type": "note_on", "time": 72, "note": 67, "velocity": 109, "channel": 0}, {"type": "note_off", "time": 152, "note": 67, "velocity": 109, "channel": 0}, {"type": "note_on", "time": 24, "note": 65, "velocity": 114, "channel": 0}, {"type": "note_off", "time": 184, "note": 65, "velocity": 114, "channel": 0}, {"type": "note_on", "time": 28, "note": 63, "velocity": 117, "channel": 0}, {"type": "note_off", "time": 173, "note": 63, "velocity": 117, "channel": 0}, {"type": "note_on", "time": 21, "note": 62, "velocity": 113, "channel": 0}, {"type": "note_off", "time": 138, "note": 62, "velocity": 113, "channel": 0}, {"type": "note_on", "time": 11, "note": 60, "velocity": 109, "channel": 0}, {"type": "note_off", "time": 173, "note": 60, "velocity": 109, "channel": 0}, {"type": "note_on", "time": 56, "note": 59, "velocity": 110, "channel": 0}, {"type": "note_off", "time": 103, "note": 59, "velocity": 110, "channel": 0}, {"type": "note_on", "time": 47, "note": 58, "velocity": 114, "channel": 0}, {"type": "note_off", "time": 161, "note": 58, "velocity": 114, "channel": 0}, {"type": "note_on", "time": 103, "note": 56, "velocity": 109, "channel": 0}, {"type": "note_off", "time": 138, "note": 56, "velocity": 109, "channel": 0}, {"type": "note_on", "time": 34, "note": 55, "velocity": 110, "channel": 0}, {"type": "note_off", "time": 126, "note": 55, "velocity": 110, "channel": 0}, {"type": "note_on", "time": 54, "note": 53, "velocity": 105, "channel": 0}, {"type": "note_off", "time": 161, "note": 53, "velocity": 105, "channel": 0}, {"type": "note_on", "time": 14, "note": 51, "velocity": 112, "channel": 0}, {"type": "note_off", "time": 357, "note": 51, "velocity": 112, "channel": 0}, {"type": "note_on", "time": 138, "note": 58, "velocity": 105, "channel": 0}, {"type": "note_off", "time": 311, "note": 58, "velocity": 105, "channel": 0}, {"type": "note_on", "time": 46, "note": 61, "velocity": 114, "channel": 0}, {"type": "note_off", "time": 265, "note": 61, "velocity": 114, "channel": 0}, {"type": "note_on", "time": 0, "note": 62, "velocity": 116, "channel": 0}, {"type": "note_off", "time": 168, "note": 62, "velocity": 116, "channel": 0}, {"type": "note_on", "time": 0, "note": 65, "velocity": 108, "channel": 0}, {"type": "note_off", "time": 242, "note": 65, "velocity": 108, "channel": 0}, {"type": "note_on", "time": 11, "note": 62, "velocity": 115, "channel": 0}, {"type": "note_off", "time": 175, "note": 62, "velocity": 115, "channel": 0}, {"type": "note_on", "time": 47, "note": 63, "velocity": 119, "channel": 0}, {"type": "note_off", "time": 193, "note": 63, "velocity": 119, "channel": 0}, {"type": "note_on", "time": 31, "note": 65, "velocity": 109, "channel": 0}, {"type": "note_off", "time": 150, "note": 65, "velocity": 109, "channel": 0}, {"type": "note_on", "time": 62, "note": 67, "velocity": 91, "channel": 0}, {"type": "note_off", "time": 63, "note": 67, "velocity": 91, "channel": 0}, {"type": "note_on", "time": 144, "note": 70, "velocity": 116, "channel": 0}, {"type": "note_off", "time": 135, "note": 70, "velocity": 116, "channel": 0}, {"type": "note_on", "time": 51, "note": 74, "velocity": 119, "channel": 0}, {"type": "note_off", "time": 214, "note": 74, "velocity": 119, "channel": 0}, {"type": "note_on", "time": 20, "note": 73, "velocity": 117, "channel": 0}, {"type": "note_off", "time": 92, "note": 73, "velocity": 117, "channel": 0}, {"type": "note_on", "time": 23, "note": 72, "velocity": 114, "channel": 0}, {"type": "note_off", "time": 64, "note": 72, "velocity": 114, "channel": 0}, {"type": "note_on", "time": 10, "note": 70, "velocity": 117, "channel": 0}, {"type": "note_off", "time": 230, "note": 70, "velocity": 117, "channel": 0}, {"type": "note_on", "time": 23, "note": 67, "velocity": 104, "channel": 0}, {"type": "note_off", "time": 173, "note": 67, "velocity": 104, "channel": 0}, {"type": "note_on", "time": 11, "note": 73, "velocity": 116, "channel": 0}, {"type": "note_off", "time": 103, "note": 73, "velocity": 116, "channel": 0}, {"type": "note_on", "time": 11, "note": 74, "velocity": 118, "channel": 0}, {"type": "note_off", "time": 230, "note": 74, "velocity": 118, "channel": 0}, {"type": "note_on", "time": 9, "note": 73, "velocity": 116, "channel": 0}, {"type": "note_off", "time": 88, "note": 73, "velocity": 116, "channel": 0}, {"type": "note_on", "time": 28, "note": 71, "velocity": 119, "channel": 0}, {"type": "note_off", "time": 173, "note": 71, "velocity": 119, "channel": 0}, {"type": "note_on", "time": 58, "note": 69, "velocity": 115, "channel": 0}, {"type": "note_off", "time": 150, "note": 69, "velocity": 115, "channel": 0}, {"type": "note_on", "time": 64, "note": 68, "velocity": 116, "channel": 0}, {"type": "note_off", "time": 167, "note": 68, "velocity": 116, "channel": 0}, {"type": "note_on", "time": 42, "note": 66, "velocity": 109, "channel": 0}, {"type": "note_off", "time": 161, "note": 66, "velocity": 109, "channel": 0}, {"type": "note_on", "time": 169, "note": 60, "velocity": 95, "channel": 0}, {"type": "note_off", "time": 138, "note": 60, "velocity": 95, "channel": 0}, {"type": "note_on", "time": 92, "note": 72, "velocity": 107, "channel": 0}, {"type": "note_off", "time": 180, "note": 72, "velocity": 107, "channel": 0}, {"type": "note_on", "time": 89, "note": 68, "velocity": 101, "channel": 0}, {"type": "note_off", "time": 117, "note": 68, "velocity": 101, "channel": 0}, {"type": "note_on", "time": 38, "note": 65, "velocity": 109, "channel": 0}, {"type": "note_off", "time": 206, "note": 65, "velocity": 109, "channel": 0}, {"type": "note_on", "time": 26, "note": 61, "velocity": 97, "channel": 0}, {"type": "note_off", "time": 138, "note": 61, "velocity": 97, "channel": 0}, {"type": "note_on", "time": 15, "note": 64, "velocity": 117, "channel": 0}, {"type": "note_off", "time": 265, "note": 64, "velocity": 117, "channel": 0}, {"type": "note_on", "time": 53, "note": 60, "velocity": 101, "channel": 0}, {"type": "note_off", "time": 126, "note": 60, "velocity": 101, "channel": 0}, {"type": "note_on", "time": 69, "note": 63, "velocity": 103, "channel": 0}, {"type": "note_off", "time": 184, "note": 63, "velocity": 103, "channel": 0}, {"type": "note_on", "time": 14, "note": 60, "velocity": 97, "channel": 0}, {"type": "note_off", "time": 85, "note": 60, "velocity": 97, "channel": 0}, {"type": "note_on", "time": 1170, "note": 67, "velocity": 120, "channel": 0}, {"type": "note_off", "time": 117, "note": 67, "velocity": 120, "channel": 0}, {"type": "note_on", "time": 71, "note": 68, "velocity": 118, "channel": 0}, {"type": "note_off", "time": 192, "note": 68, "velocity": 118, "channel": 0}, {"type": "note_on", "time": 21, "note": 64, "velocity": 113, "channel": 0}, {"type": "note_off", "time": 148, "note": 64, "velocity": 113, "channel": 0}, {"type": "note_on", "time": 28, "note": 66, "velocity": 112, "channel": 0}, {"type": "note_off", "time": 219, "note": 66, "velocity": 112, "channel": 0}, {"type": "note_on", "time": 11, "note": 65, "velocity": 115, "channel": 0}, {"type": "note_off", "time": 196, "note": 65, "velocity": 115, "channel": 0}, {"type": "note_on", "time": 0, "note": 64, "velocity": 119, "channel": 0}, {"type": "note_off", "time": 265, "note": 64, "velocity": 119, "channel": 0}, {"type": "note_on", "time": 11, "note": 65, "velocity": 113, "channel": 0}, {"type": "note_off", "time": 115, "note": 65, "velocity": 113, "channel": 0}, {"type": "note_on", "time": 56, "note": 64, "velocity": 122, "channel": 0}, {"type": "note_off", "time": 249, "note": 64, "velocity": 122, "channel": 0}, {"type": "note_on", "time": 44, "note": 66, "velocity": 108, "channel": 0}, {"type": "note_off", "time": 106, "note": 66, "velocity": 108, "channel": 0}, {"type": "note_on", "time": 46, "note": 64, "velocity": 109, "channel": 0}, {"type": "note_off", "time": 164, "note": 64, "velocity": 109, "channel": 0}, {"type": "note_on", "time": 36, "note": 63, "velocity": 118, "channel": 0}, {"type": "note_off", "time": 138, "note": 63, "velocity": 118, "channel": 0}, {"type": "note_on", "time": 23, "note": 62, "velocity": 118, "channel": 0}, {"type": "note_on", "time": 150, "note": 64, "velocity": 107, "channel": 0}, {"type": "note_off", "time": 0, "note": 62, "velocity": 118, "channel": 0}, {"type": "note_off", "time": 103, "note": 64, "velocity": 107, "channel": 0}, {"type": "note_on", "time": 46, "note": 66, "velocity": 105, "channel": 0}, {"type": "note_off", "time": 92, "note": 66, "velocity": 105, "channel": 0}, {"type": "note_on", "time": 34, "note": 69, "velocity": 109, "channel": 0}, {"type": "note_off", "time": 57, "note": 69, "velocity": 109, "channel": 0}, {"type": "note_on", "time": 0, "note": 73, "velocity": 118, "channel": 0}, {"type": "note_off", "time": 276, "note": 73, "velocity": 118, "channel": 0}, {"type": "note_on", "time": 23, "note": 71, "velocity": 120, "channel": 0}, {"type": "note_off", "time": 184, "note": 71, "velocity": 120, "channel": 0}, {"type": "note_on", "time": 11, "note": 70, "velocity": 114, "channel": 0}, {"type": "note_off", "time": 230, "note": 70, "velocity": 114, "channel": 0}, {"type": "note_on", "time": 23, "note": 68, "velocity": 116, "channel": 0}, {"type": "note_off", "time": 103, "note": 68, "velocity": 116, "channel": 0}, {"type": "note_on", "time": 46, "note": 67, "velocity": 112, "channel": 0}, {"type": "note_off", "time": 219, "note": 67, "velocity": 112, "channel": 0}, {"type": "note_on", "time": 34, "note": 65, "velocity": 116, "channel": 0}, {"type": "note_off", "time": 161, "note": 65, "velocity": 116, "channel": 0}, {"type": "note_on", "time": 38, "note": 63, "velocity": 121, "channel": 0}, {"type": "note_off", "time": 175, "note": 63, "velocity": 121, "channel": 0}, {"type": "note_on", "time": 38, "note": 65, "velocity": 102, "channel": 0}, {"type": "note_off", "time": 230, "note": 65, "velocity": 102, "channel": 0}, {"type": "note_on", "time": 145, "note": 70, "velocity": 90, "channel": 0}, {"type": "note_off", "time": 115, "note": 70, "velocity": 90, "channel": 0}, {"type": "note_on", "time": 127, "note": 75, "velocity": 124, "channel": 0}, {"type": "note_off", "time": 1470, "note": 75, "velocity": 124, "channel": 0}, {"type": "note_on", "time": 46, "note": 70, "velocity": 105, "channel": 0}, {"type": "note_off", "time": 138, "note": 70, "velocity": 105, "channel": 0}, {"type": "note_on", "time": 52, "note": 72, "velocity": 118, "channel": 0}, {"type": "note_off", "time": 219, "note": 72, "velocity": 118, "channel": 0}, {"type": "note_on", "time": 38, "note": 70, "velocity": 115, "channel": 0}, {"type": "note_off", "time": 323, "note": 70, "velocity": 115, "channel": 0}, {"type": "note_on", "time": 1018, "note": 69, "velocity": 99, "channel": 0}, {"type": "note_off", "time": 184, "note": 69, "velocity": 99, "channel": 0}, {"type": "note_on", "time": 31, "note": 73, "velocity": 116, "channel": 0}, {"type": "note_off", "time": 496, "note": 73, "velocity": 116, "channel": 0}, {"type": "note_on", "time": 25, "note": 71, "velocity": 120, "channel": 0}, {"type": "note_off", "time": 138, "note": 71, "velocity": 120, "channel": 0}, {"type": "note_on", "time": 31, "note": 70, "velocity": 114, "channel": 0}, {"type": "note_off", "time": 173, "note": 70, "velocity": 114, "channel": 0}, {"type": "note_on", "time": 57, "note": 68, "velocity": 116, "channel": 0}, {"type": "note_off", "time": 115, "note": 68, "velocity": 116, "channel": 0}, {"type": "note_on", "time": 158, "note": 67, "velocity": 112, "channel": 0}, {"type": "note_off", "time": 207, "note": 67, "velocity": 112, "channel": 0}, {"type": "note_on", "time": 14, "note": 65, "velocity": 114, "channel": 0}, {"type": "note_off", "time": 103, "note": 65, "velocity": 114, "channel": 0}, {"type": "note_on", "time": 46, "note": 63, "velocity": 116, "channel": 0}, {"type": "note_off", "time": 184, "note": 63, "velocity": 116, "channel": 0}, {"type": "note_on", "time": 103, "note": 58, "velocity": 91, "channel": 0}, {"type": "note_off", "time": 92, "note": 58, "velocity": 91, "channel": 0}, {"type": "note_on", "time": 80, "note": 63, "velocity": 107, "channel": 0}, {"type": "note_off", "time": 219, "note": 63, "velocity": 107, "channel": 0}, {"type": "note_on", "time": 150, "note": 67, "velocity": 119, "channel": 0}, {"type": "note_off", "time": 150, "note": 67, "velocity": 119, "channel": 0}, {"type": "note_on", "time": 57, "note": 68, "velocity": 117, "channel": 0}, {"type": "note_off", "time": 161, "note": 68, "velocity": 117, "channel": 0}, {"type": "note_on", "time": 23, "note": 65, "velocity": 106, "channel": 0}, {"type": "note_off", "time": 173, "note": 65, "velocity": 106, "channel": 0}, {"type": "note_on", "time": 80, "note": 61, "velocity": 112, "channel": 0}, {"type": "note_off", "time": 196, "note": 61, "velocity": 112, "channel": 0}, {"type": "note_on", "time": 0, "note": 58, "velocity": 112, "channel": 0}, {"type": "note_off", "time": 230, "note": 58, "velocity": 112, "channel": 0}, {"type": "note_on", "time": 311, "note": 56, "velocity": 108, "channel": 0}, {"type": "note_off", "time": 276, "note": 56, "velocity": 108, "channel": 0}, {"type": "note_on", "time": 57, "note": 55, "velocity": 111, "channel": 0}, {"type": "note_off", "time": 184, "note": 55, "velocity": 111, "channel": 0}, {"type": "note_on", "time": 57, "note": 63, "velocity": 123, "channel": 0}, {"type": "note_off", "time": 300, "note": 63, "velocity": 123, "channel": 0}, {"type": "note_on", "time": 369, "note": 60, "velocity": 117, "channel": 0}, {"type": "note_off", "time": 150, "note": 60, "velocity": 117, "channel": 0}, {"type": "note_on", "time": 15, "note": 61, "velocity": 112, "channel": 0}, {"type": "note_off", "time": 60, "note": 61, "velocity": 112, "channel": 0}, {"type": "note_on", "time": 46, "note": 62, "velocity": 118, "channel": 0}, {"type": "note_off", "time": 105, "note": 62, "velocity": 118, "channel": 0}, {"type": "note_on", "time": 18, "note": 63, "velocity": 120, "channel": 0}, {"type": "note_off", "time": 246, "note": 63, "velocity": 120, "channel": 0}, {"type": "note_on", "time": 79, "note": 65, "velocity": 117, "channel": 0}, {"type": "note_off", "time": 181, "note": 65, "velocity": 117, "channel": 0}, {"type": "note_on", "time": 37, "note": 66, "velocity": 112, "channel": 0}, {"type": "note_off", "time": 165, "note": 66, "velocity": 112, "channel": 0}, {"type": "note_on", "time": 12, "note": 68, "velocity": 106, "channel": 0}, {"type": "note_off", "time": 184, "note": 68, "velocity": 106, "channel": 0}, {"type": "note_on", "time": 33, "note": 70, "velocity": 120, "channel": 0}, {"type": "note_off", "time": 911, "note": 70, "velocity": 120, "channel": 0}, {"type": "note_on", "time": 46, "note": 71, "velocity": 119, "channel": 0}, {"type": "note_off", "time": 196, "note": 71, "velocity": 119, "channel": 0}, {"type": "note_on", "time": 11, "note": 70, "velocity": 115, "channel": 0}, {"type": "note_off", "time": 230, "note": 70, "velocity": 115, "channel": 0}, {"type": "note_on", "time": 46, "note": 66, "velocity": 114, "channel": 0}, {"type": "note_off", "time": 161, "note": 66, "velocity": 114, "channel": 0}, {"type": "note_on", "time": 23, "note": 63, "velocity": 115, "channel": 0}, {"type": "note_off", "time": 288, "note": 63, "velocity": 115, "channel": 0}, {"type": "note_on", "time": 1488, "note": 65, "velocity": 119, "channel": 0}, {"type": "note_off", "time": 196, "note": 65, "velocity": 119, "channel": 0}, {"type": "note_on", "time": 46, "note": 67, "velocity": 115, "channel": 0}, {"type": "note_off", "time": 634, "note": 67, "velocity": 115, "channel": 0}, {"type": "note_on", "time": 0, "note": 63, "velocity": 121, "channel": 0}, {"type": "note_off", "time": 126, "note": 63, "velocity": 121, "channel": 0}, {"type": "note_on", "time": 69, "note": 67, "velocity": 115, "channel": 0}, {"type": "note_off", "time": 184, "note": 67, "velocity": 115, "channel": 0}, {"type": "note_on", "time": 34, "note": 68, "velocity": 120, "channel": 0}, {"type": "note_off", "time": 138, "note": 68, "velocity": 120, "channel": 0}, {"type": "note_on", "time": 69, "note": 65, "velocity": 104, "channel": 0}, {"type": "note_off", "time": 92, "note": 65, "velocity": 104, "channel": 0}, {"type": "note_on", "time": 11, "note": 68, "velocity": 106, "channel": 0}, {"type": "note_off", "time": 126, "note": 68, "velocity": 106, "channel": 0}, {"type": "note_on", "time": 13, "note": 69, "velocity": 115, "channel": 0}, {"type": "note_off", "time": 156, "note": 69, "velocity": 115, "channel": 0}, {"type": "note_on", "time": 38, "note": 72, "velocity": 118, "channel": 0}, {"type": "note_off", "time": 173, "note": 72, "velocity": 118, "channel": 0}, {"type": "note_on", "time": 11, "note": 70, "velocity": 113, "channel": 0}, {"type": "note_off", "time": 230, "note": 70, "velocity": 113, "channel": 0}, {"type": "note_on", "time": 23, "note": 69, "velocity": 113, "channel": 0}, {"type": "note_off", "time": 346, "note": 69, "velocity": 113, "channel": 0}, {"type": "note_on", "time": 11, "note": 67, "velocity": 113, "channel": 0}, {"type": "note_off", "time": 184, "note": 67, "velocity": 113, "channel": 0}, {"type": "note_on", "time": 115, "note": 65, "velocity": 113, "channel": 0}, {"type": "note_off", "time": 115, "note": 65, "velocity": 113, "channel": 0}, {"type": "note_on", "time": 46, "note": 61, "velocity": 112, "channel": 0}, {"type": "note_off", "time": 219, "note": 61, "velocity": 112, "channel": 0}, {"type": "note_on", "time": 66, "note": 58, "velocity": 100, "channel": 0}, {"type": "note_off", "time": 105, "note": 58, "velocity": 100, "channel": 0}, {"type": "note_on", "time": 127, "note": 61, "velocity": 115, "channel": 0}, {"type": "note_off", "time": 276, "note": 61, "velocity": 115, "channel": 0}, {"type": "note_on", "time": 0, "note": 63, "velocity": 114, "channel": 0}, {"type": "note_off", "time": 207, "note": 63, "velocity": 114, "channel": 0}, {"type": "note_on", "time": 80, "note": 65, "velocity": 108, "channel": 0}, {"type": "note_off", "time": 150, "note": 65, "velocity": 108, "channel": 0}, {"type": "note_on", "time": 23, "note": 66, "velocity": 107, "channel": 0}, {"type": "note_off", "time": 103, "note": 66, "velocity": 107, "channel": 0}, {"type": "note_on", "time": 0, "note": 69, "velocity": 102, "channel": 0}, {"type": "note_off", "time": 257, "note": 69, "velocity": 102, "channel": 0}, {"type": "note_on", "time": 31, "note": 75, "velocity": 114, "channel": 0}, {"type": "note_off", "time": 1234, "note": 75, "velocity": 114, "channel": 0}, {"type": "note_on", "time": 80, "note": 73, "velocity": 117, "channel": 0}, {"type": "note_off", "time": 230, "note": 73, "velocity": 117, "channel": 0}, {"type": "note_on", "time": 0, "note": 72, "velocity": 116, "channel": 0}, {"type": "note_off", "time": 219, "note": 72, "velocity": 116, "channel": 0}, {"type": "note_on", "time": 57, "note": 68, "velocity": 114, "channel": 0}, {"type": "note_off", "time": 150, "note": 68, "velocity": 114, "channel": 0}, {"type": "note_on", "time": 276, "note": 68, "velocity": 113, "channel": 0}, {"type": "note_off", "time": 242, "note": 68, "velocity": 113, "channel": 0}, {"type": "note_on", "time": 34, "note": 72, "velocity": 94, "channel": 0}, {"type": "note_off", "time": 230, "note": 72, "velocity": 94, "channel": 0}, {"type": "note_on", "time": 92, "note": 70, "velocity": 108, "channel": 0}, {"type": "note_off", "time": 1154, "note": 70, "velocity": 108, "channel": 0}, {"type": "note_on", "time": 1315, "note": 68, "velocity": 118, "channel": 0}, {"type": "note_off", "time": 115, "note": 68, "velocity": 118, "channel": 0}, {"type": "note_on", "time": 0, "note": 70, "velocity": 119, "channel": 0}, {"type": "note_off", "time": 426, "note": 70, "velocity": 119, "channel": 0}, {"type": "note_on", "time": 124, "note": 72, "velocity": 114, "channel": 0}, {"type": "note_off", "time": 91, "note": 72, "velocity": 114, "channel": 0}, {"type": "note_on", "time": 26, "note": 73, "velocity": 114, "channel": 0}, {"type": "note_off", "time": 160, "note": 73, "velocity": 114, "channel": 0}, {"type": "note_on", "time": 47, "note": 72, "velocity": 116, "channel": 0}, {"type": "note_off", "time": 103, "note": 72, "velocity": 116, "channel": 0}, {"type": "note_on", "time": 17, "note": 71, "velocity": 116, "channel": 0}, {"type": "note_off", "time": 69, "note": 71, "velocity": 116, "channel": 0}, {"type": "note_on", "time": 40, "note": 70, "velocity": 111, "channel": 0}, {"type": "note_off", "time": 288, "note": 70, "velocity": 111, "channel": 0}, {"type": "note_on", "time": 0, "note": 66, "velocity": 112, "channel": 0}, {"type": "note_off", "time": 173, "note": 66, "velocity": 112, "channel": 0}, {"type": "note_on", "time": 80, "note": 65, "velocity": 113, "channel": 0}, {"type": "note_off", "time": 138, "note": 65, "velocity": 113, "channel": 0}, {"type": "note_on", "time": 34, "note": 62, "velocity": 103, "channel": 0}, {"type": "note_off", "time": 196, "note": 62, "velocity": 103, "channel": 0}, {"type": "note_on", "time": 46, "note": 65, "velocity": 118, "channel": 0}, {"type": "note_off", "time": 219, "note": 65, "velocity": 118, "channel": 0}, {"type": "note_on", "time": 0, "note": 62, "velocity": 104, "channel": 0}, {"type": "note_off", "time": 230, "note": 62, "velocity": 104, "channel": 0}, {"type": "note_on", "time": 0, "note": 63, "velocity": 105, "channel": 0}, {"type": "note_off", "time": 230, "note": 63, "velocity": 105, "channel": 0}, {"type": "note_on", "time": 11, "note": 65, "velocity": 107, "channel": 0}, {"type": "note_off", "time": 138, "note": 65, "velocity": 107, "channel": 0}, {"type": "note_on", "time": 23, "note": 67, "velocity": 118, "channel": 0}, {"type": "note_off", "time": 196, "note": 67, "velocity": 118, "channel": 0}, {"type": "note_on", "time": 11, "note": 63, "velocity": 107, "channel": 0}, {"type": "note_off", "time": 196, "note": 63, "velocity": 107, "channel": 0}, {"type": "note_on", "time": 57, "note": 65, "velocity": 107, "channel": 0}, {"type": "note_off", "time": 184, "note": 65, "velocity": 107, "channel": 0}, {"type": "note_on", "time": 11, "note": 67, "velocity": 106, "channel": 0}, {"type": "note_off", "time": 126, "note": 67, "velocity": 106, "channel": 0}, {"type": "note_on", "time": 46, "note": 68, "velocity": 113, "channel": 0}, {"type": "note_off", "time": 207, "note": 68, "velocity": 113, "channel": 0}, {"type": "note_on", "time": 107, "note": 68, "velocity": 112, "channel": 0}, {"type": "note_off", "time": 95, "note": 68, "velocity": 112, "channel": 0}, {"type": "note_on", "time": 5, "note": 71, "velocity": 107, "channel": 0}, {"type": "note_off", "time": 103, "note": 71, "velocity": 107, "channel": 0}, {"type": "note_on", "time": 34, "note": 72, "velocity": 110, "channel": 0}, {"type": "note_off", "time": 161, "note": 72, "velocity": 110, "channel": 0}, {"type": "note_on", "time": 80, "note": 70, "velocity": 116, "channel": 0}, {"type": "note_off", "time": 230, "note": 70, "velocity": 116, "channel": 0}, {"type": "note_on", "time": 0, "note": 67, "velocity": 116, "channel": 0}, {"type": "note_off", "time": 230, "note": 67, "velocity": 116, "channel": 0}, {"type": "note_on", "time": 0, "note": 63, "velocity": 121, "channel": 0}, {"type": "note_off", "time": 242, "note": 63, "velocity": 121, "channel": 0}, {"type": "note_on", "time": 12, "note": 60, "velocity": 100, "channel": 0}, {"type": "note_off", "time": 145, "note": 60, "velocity": 100, "channel": 0}, {"type": "note_on", "time": 26, "note": 67, "velocity": 117, "channel": 0}, {"type": "note_off", "time": 242, "note": 67, "velocity": 117, "channel": 0}, {"type": "note_on", "time": 0, "note": 65, "velocity": 106, "channel": 0}, {"type": "note_off", "time": 196, "note": 65, "velocity": 106, "channel": 0}, {"type": "note_on", "time": 11, "note": 62, "velocity": 113, "channel": 0}, {"type": "note_off", "time": 230, "note": 62, "velocity": 113, "channel": 0}, {"type": "note_on", "time": 0, "note": 58, "velocity": 96, "channel": 0}, {"type": "note_off", "time": 276, "note": 58, "velocity": 96, "channel": 0}, {"type": "note_on", "time": 0, "note": 61, "velocity": 115, "channel": 0}, {"type": "note_off", "time": 219, "note": 61, "velocity": 115, "channel": 0}, {"type": "note_on", "time": 57, "note": 63, "velocity": 119, "channel": 0}, {"type": "note_off", "time": 1073, "note": 63, "velocity": 119, "channel": 0}, {"type": "note_on", "time": 11, "note": 61, "velocity": 105, "channel": 0}, {"type": "note_off", "time": 138, "note": 61, "velocity": 105, "channel": 0}, {"type": "note_on", "time": 0, "note": 63, "velocity": 121, "channel": 0}, {"type": "note_off", "time": 184, "note": 63, "velocity": 121, "channel": 0}, {"type": "note_on", "time": 69, "note": 61, "velocity": 111, "channel": 0}, {"type": "note_off", "time": 184, "note": 61, "velocity": 111, "channel": 0}, {"type": "note_on", "time": 46, "note": 59, "velocity": 110, "channel": 0}, {"type": "note_off", "time": 207, "note": 59, "velocity": 110, "channel": 0}, {"type": "note_on", "time": 11, "note": 54, "velocity": 111, "channel": 0}, {"type": "note_off", "time": 207, "note": 54, "velocity": 111, "channel": 0}, {"type": "note_on", "time": 33, "note": 53, "velocity": 107, "channel": 0}, {"type": "note_off", "time": 208, "note": 53, "velocity": 107, "channel": 0}, {"type": "note_on", "time": 57, "note": 55, "velocity": 110, "channel": 0}, {"type": "note_off", "time": 115, "note": 55, "velocity": 110, "channel": 0}, {"type": "note_on", "time": 3, "note": 56, "velocity": 104, "channel": 0}, {"type": "note_off", "time": 144, "note": 56, "velocity": 104, "channel": 0}, {"type": "note_on", "time": 14, "note": 58, "velocity": 98, "channel": 0}, {"type": "note_off", "time": 184, "note": 58, "velocity": 98, "channel": 0}, {"type": "note_on", "time": 69, "note": 60, "velocity": 114, "channel": 0}, {"type": "note_off", "time": 150, "note": 60, "velocity": 114, "channel": 0}, {"type": "note_on", "time": 69, "note": 62, "velocity": 114, "channel": 0}, {"type": "note_off", "time": 219, "note": 62, "velocity": 114, "channel": 0}, {"type": "note_on", "time": 46, "note": 63, "velocity": 102, "channel": 0}, {"type": "note_off", "time": 150, "note": 63, "velocity": 102, "channel": 0}, {"type": "note_on", "time": 91, "note": 65, "velocity": 103, "channel": 0}, {"type": "note_off", "time": 86, "note": 65, "velocity": 103, "channel": 0}, {"type": "note_on", "time": 18, "note": 67, "velocity": 114, "channel": 0}, {"type": "note_off", "time": 253, "note": 67, "velocity": 114, "channel": 0}, {"type": "note_on", "time": 23, "note": 70, "velocity": 114, "channel": 0}, {"type": "note_off", "time": 161, "note": 70, "velocity": 114, "channel": 0}, {"type": "note_on", "time": 11, "note": 68, "velocity": 114, "channel": 0}, {"type": "note_off", "time": 173, "note": 68, "velocity": 114, "channel": 0}, {"type": "note_on", "time": 69, "note": 63, "velocity": 115, "channel": 0}, {"type": "note_off", "time": 219, "note": 63, "velocity": 115, "channel": 0}, {"type": "note_on", "time": 28, "note": 67, "velocity": 118, "channel": 0}, {"type": "note_off", "time": 198, "note": 67, "velocity": 118, "channel": 0}, {"type": "note_on", "time": 41, "note": 65, "velocity": 114, "channel": 0}, {"type": "note_off", "time": 227, "note": 65, "velocity": 114, "channel": 0}, {"type": "note_on", "time": 1465, "note": 72, "velocity": 124, "channel": 0}, {"type": "note_off", "time": 126, "note": 72, "velocity": 124, "channel": 0}, {"type": "note_on", "time": 18, "note": 73, "velocity": 113, "channel": 0}, {"type": "note_off", "time": 225, "note": 73, "velocity": 113, "channel": 0}, {"type": "note_on", "time": 33, "note": 71, "velocity": 121, "channel": 0}, {"type": "note_off", "time": 161, "note": 71, "velocity": 121, "channel": 0}, {"type": "note_on", "time": 23, "note": 70, "velocity": 116, "channel": 0}, {"type": "note_off", "time": 207, "note": 70, "velocity": 116, "channel": 0}, {"type": "note_on", "time": 69, "note": 66, "velocity": 113, "channel": 0}, {"type": "note_off", "time": 173, "note": 66, "velocity": 113, "channel": 0}, {"type": "note_on", "time": 14, "note": 63, "velocity": 120, "channel": 0}, {"type": "note_off", "time": 184, "note": 63, "velocity": 120, "channel": 0}, {"type": "note_on", "time": 24, "note": 59, "velocity": 97, "channel": 0}, {"type": "note_off", "time": 141, "note": 59, "velocity": 97, "channel": 0}, {"type": "note_on", "time": 85, "note": 65, "velocity": 114, "channel": 0}, {"type": "note_off", "time": 219, "note": 65, "velocity": 114, "channel": 0}, {"type": "note_on", "time": 37, "note": 61, "velocity": 113, "channel": 0}, {"type": "note_off", "time": 194, "note": 61, "velocity": 113, "channel": 0}, {"type": "note_on", "time": 56, "note": 56, "velocity": 109, "channel": 0}, {"type": "note_off", "time": 144, "note": 56, "velocity": 109, "channel": 0}, {"type": "note_on", "time": 52, "note": 53, "velocity": 116, "channel": 0}, {"type": "note_off", "time": 129, "note": 53, "velocity": 116, "channel": 0}, {"type": "note_on", "time": 18, "note": 61, "velocity": 115, "channel": 0}, {"type": "note_off", "time": 207, "note": 61, "velocity": 115, "channel": 0}, {"type": "note_on", "time": 23, "note": 62, "velocity": 115, "channel": 0}, {"type": "note_off", "time": 196, "note": 62, "velocity": 115, "channel": 0}, {"type": "note_on", "time": 0, "note": 65, "velocity": 113, "channel": 0}, {"type": "note_off", "time": 212, "note": 65, "velocity": 113, "channel": 0}, {"type": "note_on", "time": 31, "note": 62, "velocity": 110, "channel": 0}, {"type": "note_off", "time": 148, "note": 62, "velocity": 110, "channel": 0}, {"type": "note_on", "time": 32, "note": 63, "velocity": 120, "channel": 0}, {"type": "note_off", "time": 138, "note": 63, "velocity": 120, "channel": 0}, {"type": "note_on", "time": 94, "note": 65, "velocity": 117, "channel": 0}, {"type": "note_off", "time": 139, "note": 65, "velocity": 117, "channel": 0}, {"type": "note_on", "time": 217, "note": 70, "velocity": 98, "channel": 0}, {"type": "note_off", "time": 115, "note": 70, "velocity": 98, "channel": 0}, {"type": "note_on", "time": 184, "note": 75, "velocity": 118, "channel": 0}, {"type": "note_off", "time": 207, "note": 75, "velocity": 118, "channel": 0}, {"type": "note_on", "time": 184, "note": 75, "velocity": 127, "channel": 0}, {"type": "note_off", "time": 207, "note": 75, "velocity": 127, "channel": 0}, {"type": "note_on", "time": 80, "note": 70, "velocity": 102, "channel": 0}, {"type": "note_off", "time": 138, "note": 70, "velocity": 102, "channel": 0}, {"type": "note_on", "time": 50, "note": 71, "velocity": 122, "channel": 0}, {"type": "note_off", "time": 126, "note": 71, "velocity": 122, "channel": 0}, {"type": "note_on", "time": 134, "note": 71, "velocity": 118, "channel": 0}, {"type": "note_off", "time": 184, "note": 71, "velocity": 118, "channel": 0}, {"type": "note_on", "time": 46, "note": 70, "velocity": 118, "channel": 0}, {"type": "note_off", "time": 207, "note": 70, "velocity": 118, "channel": 0}, {"type": "note_on", "time": 803, "note": 69, "velocity": 122, "channel": 0}, {"type": "note_off", "time": 109, "note": 69, "velocity": 122, "channel": 0}, {"type": "note_on", "time": 34, "note": 70, "velocity": 113, "channel": 0}, {"type": "note_off", "time": 73, "note": 70, "velocity": 113, "channel": 0}, {"type": "note_on", "time": 33, "note": 72, "velocity": 116, "channel": 0}, {"type": "note_off", "time": 99, "note": 72, "velocity": 116, "channel": 0}, {"type": "note_on", "time": 11, "note": 74, "velocity": 118, "channel": 0}, {"type": "note_off", "time": 276, "note": 74, "velocity": 118, "channel": 0}, {"type": "note_on", "time": 0, "note": 73, "velocity": 100, "channel": 0}, {"type": "note_off", "time": 57, "note": 73, "velocity": 100, "channel": 0}, {"type": "note_on", "time": 0, "note": 72, "velocity": 120, "channel": 0}, {"type": "note_off", "time": 126, "note": 72, "velocity": 120, "channel": 0}, {"type": "note_on", "time": 0, "note": 71, "velocity": 119, "channel": 0}, {"type": "note_off", "time": 92, "note": 71, "velocity": 119, "channel": 0}, {"type": "note_on", "time": 0, "note": 70, "velocity": 120, "channel": 0}, {"type": "note_off", "time": 184, "note": 70, "velocity": 120, "channel": 0}, {"type": "note_on", "time": 46, "note": 69, "velocity": 119, "channel": 0}, {"type": "note_off", "time": 196, "note": 69, "velocity": 119, "channel": 0}, {"type": "note_on", "time": 34, "note": 68, "velocity": 116, "channel": 0}, {"type": "note_off", "time": 115, "note": 68, "velocity": 116, "channel": 0}, {"type": "note_on", "time": 115, "note": 67, "velocity": 115, "channel": 0}, {"type": "note_off", "time": 150, "note": 67, "velocity": 115, "channel": 0}, {"type": "note_on", "time": 80, "note": 65, "velocity": 111, "channel": 0}, {"type": "note_off", "time": 242, "note": 65, "velocity": 111, "channel": 0}, {"type": "note_on", "time": 23, "note": 63, "velocity": 115, "channel": 0}, {"type": "note_off", "time": 196, "note": 63, "velocity": 115, "channel": 0}, {"type": "note_on", "time": 23, "note": 62, "velocity": 111, "channel": 0}, {"type": "note_off", "time": 161, "note": 62, "velocity": 111, "channel": 0}, {"type": "note_on", "time": 11, "note": 60, "velocity": 115, "channel": 0}, {"type": "note_off", "time": 207, "note": 60, "velocity": 115, "channel": 0}, {"type": "note_on", "time": 11, "note": 58, "velocity": 110, "channel": 0}, {"type": "note_off", "time": 219, "note": 58, "velocity": 110, "channel": 0}, {"type": "note_on", "time": 92, "note": 63, "velocity": 119, "channel": 0}, {"type": "note_off", "time": 265, "note": 63, "velocity": 119, "channel": 0}, {"type": "note_on", "time": 0, "note": 67, "velocity": 115, "channel": 0}, {"type": "note_off", "time": 242, "note": 67, "velocity": 115, "channel": 0}, {"type": "note_on", "time": 167, "note": 69, "velocity": 119, "channel": 0}, {"type": "note_off", "time": 126, "note": 69, "velocity": 119, "channel": 0}, {"type": "note_on", "time": 28, "note": 70, "velocity": 115, "channel": 0}, {"type": "note_off", "time": 1661, "note": 70, "velocity": 115, "channel": 0}, {"type": "note_on", "time": 34, "note": 69, "velocity": 106, "channel": 0}, {"type": "note_off", "time": 161, "note": 69, "velocity": 106, "channel": 0}, {"type": "note_on", "time": 57, "note": 63, "velocity": 114, "channel": 0}, {"type": "note_off", "time": 311, "note": 63, "velocity": 114, "channel": 0}, {"type": "note_on", "time": 0, "note": 66, "velocity": 108, "channel": 0}, {"type": "note_off", "time": 265, "note": 66, "velocity": 108, "channel": 0}, {"type": "note_on", "time": 92, "note": 68, "velocity": 117, "channel": 0}, {"type": "note_off", "time": 161, "note": 68, "velocity": 117, "channel": 0}, {"type": "note_on", "time": 34, "note": 70, "velocity": 116, "channel": 0}, {"type": "note_off", "time": 323, "note": 70, "velocity": 116, "channel": 0}, {"type": "note_on", "time": 126, "note": 70, "velocity": 111, "channel": 0}, {"type": "note_off", "time": 461, "note": 70, "velocity": 111, "channel": 0}, {"type": "note_on", "time": 77, "note": 58, "velocity": 106, "channel": 0}, {"type": "note_off", "time": 144, "note": 58, "velocity": 106, "channel": 0}, {"type": "note_on", "time": 34, "note": 63, "velocity": 123, "channel": 0}, {"type": "note_off", "time": 151, "note": 63, "velocity": 123, "channel": 0}, {"type": "note_on", "time": 11, "note": 66, "velocity": 111, "channel": 0}, {"type": "note_off", "time": 106, "note": 66, "velocity": 111, "channel": 0}, {"type": "note_on", "time": 15, "note": 68, "velocity": 118, "channel": 0}, {"type": "note_off", "time": 219, "note": 68, "velocity": 118, "channel": 0}, {"type": "note_on", "time": 0, "note": 70, "velocity": 123, "channel": 0}, {"type": "note_off", "time": 496, "note": 70, "velocity": 123, "channel": 0}, {"type": "note_on", "time": 1096, "note": 58, "velocity": 110, "channel": 0}, {"type": "note_off", "time": 207, "note": 58, "velocity": 110, "channel": 0}, {"type": "note_on", "time": 0, "note": 63, "velocity": 123, "channel": 0}, {"type": "note_off", "time": 184, "note": 63, "velocity": 123, "channel": 0}, {"type": "note_on", "time": 69, "note": 66, "velocity": 112, "channel": 0}, {"type": "note_off", "time": 242, "note": 66, "velocity": 112, "channel": 0}, {"type": "note_on", "time": 103, "note": 69, "velocity": 123, "channel": 0}, {"type": "note_on", "time": 184, "note": 71, "velocity": 116, "channel": 0}, {"type": "note_off", "time": 0, "note": 69, "velocity": 123, "channel": 0}, {"type": "note_off", "time": 115, "note": 71, "velocity": 116, "channel": 0}, {"type": "note_on", "time": 0, "note": 73, "velocity": 121, "channel": 0}, {"type": "note_off", "time": 773, "note": 73, "velocity": 121, "channel": 0}, {"type": "note_on", "time": 21, "note": 72, "velocity": 109, "channel": 0}, {"type": "note_off", "time": 47, "note": 72, "velocity": 109, "channel": 0}, {"type": "note_on", "time": 27, "note": 70, "velocity": 122, "channel": 0}, {"type": "note_off", "time": 165, "note": 70, "velocity": 122, "channel": 0}, {"type": "note_on", "time": 14, "note": 68, "velocity": 112, "channel": 0}, {"type": "note_off", "time": 138, "note": 68, "velocity": 112, "channel": 0}, {"type": "note_on", "time": 25, "note": 66, "velocity": 104, "channel": 0}, {"type": "note_off", "time": 167, "note": 66, "velocity": 104, "channel": 0}, {"type": "note_on", "time": 49, "note": 70, "velocity": 124, "channel": 0}, {"type": "note_off", "time": 438, "note": 70, "velocity": 124, "channel": 0}, {"type": "note_on", "time": 0, "note": 63, "velocity": 121, "channel": 0}, {"type": "note_off", "time": 369, "note": 63, "velocity": 121, "channel": 0}, {"type": "note_on", "time": 438, "note": 66, "velocity": 115, "channel": 0}, {"type": "note_off", "time": 219, "note": 66, "velocity": 115, "channel": 0}, {"type": "note_on", "time": 2, "note": 68, "velocity": 118, "channel": 0}, {"type": "note_off", "time": 139, "note": 68, "velocity": 118, "channel": 0}, {"type": "note_on", "time": 14, "note": 67, "velocity": 111, "channel": 0}, {"type": "note_off", "time": 69, "note": 67, "velocity": 111, "channel": 0}, {"type": "note_on", "time": 18, "note": 65, "velocity": 115, "channel": 0}, {"type": "note_off", "time": 138, "note": 65, "velocity": 115, "channel": 0}, {"type": "note_on", "time": 43, "note": 61, "velocity": 113, "channel": 0}, {"type": "note_off", "time": 173, "note": 61, "velocity": 113, "channel": 0}, {"type": "note_on", "time": 80, "note": 59, "velocity": 101, "channel": 0}, {"type": "note_off", "time": 92, "note": 59, "velocity": 101, "channel": 0}, {"type": "note_on", "time": 46, "note": 58, "velocity": 96, "channel": 0}, {"type": "note_off", "time": 150, "note": 58, "velocity": 96, "channel": 0}, {"type": "note_on", "time": 106, "note": 63, "velocity": 123, "channel": 0}, {"type": "note_off", "time": 203, "note": 63, "velocity": 123, "channel": 0}, {"type": "note_on", "time": 47, "note": 66, "velocity": 111, "channel": 0}, {"type": "note_off", "time": 196, "note": 66, "velocity": 111, "channel": 0}, {"type": "note_on", "time": 0, "note": 67, "velocity": 111, "channel": 0}, {"type": "note_off", "time": 115, "note": 67, "velocity": 111, "channel": 0}, {"type": "note_on", "time": 0, "note": 71, "velocity": 116, "channel": 0}, {"type": "note_off", "time": 219, "note": 71, "velocity": 116, "channel": 0}, {"type": "note_on", "time": 57, "note": 64, "velocity": 122, "channel": 0}, {"type": "note_off", "time": 219, "note": 64, "velocity": 122, "channel": 0}, {"type": "note_on", "time": 80, "note": 67, "velocity": 105, "channel": 0}, {"type": "note_off", "time": 173, "note": 67, "velocity": 105, "channel": 0}, {"type": "note_on", "time": 11, "note": 71, "velocity": 116, "channel": 0}, {"type": "note_off", "time": 126, "note": 71, "velocity": 116, "channel": 0}, {"type": "note_on", "time": 92, "note": 61, "velocity": 115, "channel": 0}, {"type": "note_off", "time": 276, "note": 61, "velocity": 115, "channel": 0}, {"type": "note_on", "time": 669, "note": 60, "velocity": 97, "channel": 0}, {"type": "note_off", "time": 150, "note": 60, "velocity": 97, "channel": 0}, {"type": "note_on", "time": 38, "note": 61, "velocity": 118, "channel": 0}, {"type": "note_off", "time": 150, "note": 61, "velocity": 118, "channel": 0}, {"type": "note_on", "time": 41, "note": 63, "velocity": 117, "channel": 0}, {"type": "note_off", "time": 380, "note": 63, "velocity": 117, "channel": 0}, {"type": "note_on", "time": 34, "note": 65, "velocity": 110, "channel": 0}, {"type": "note_off", "time": 161, "note": 65, "velocity": 110, "channel": 0}, {"type": "note_on", "time": 34, "note": 66, "velocity": 111, "channel": 0}, {"type": "note_off", "time": 138, "note": 66, "velocity": 111, "channel": 0}, {"type": "note_on", "time": 69, "note": 68, "velocity": 110, "channel": 0}, {"type": "note_off", "time": 126, "note": 68, "velocity": 110, "channel": 0}, {"type": "note_on", "time": 196, "note": 70, "velocity": 117, "channel": 0}, {"type": "note_off", "time": 150, "note": 70, "velocity": 117, "channel": 0}, {"type": "note_on", "time": 80, "note": 73, "velocity": 114, "channel": 0}, {"type": "note_off", "time": 253, "note": 73, "velocity": 114, "channel": 0}, {"type": "note_on", "time": 230, "note": 77, "velocity": 113, "channel": 0}, {"type": "note_off", "time": 230, "note": 77, "velocity": 113, "channel": 0}, {"type": "note_on", "time": 34, "note": 75, "velocity": 109, "channel": 0}, {"type": "note_off", "time": 242, "note": 75, "velocity": 109, "channel": 0}, {"type": "note_on", "time": 196, "note": 70, "velocity": 121, "channel": 0}, {"type": "note_off", "time": 369, "note": 70, "velocity": 121, "channel": 0}, {"type": "note_on", "time": 230, "note": 70, "velocity": 122, "channel": 0}, {"type": "note_off", "time": 207, "note": 70, "velocity": 122, "channel": 0}, {"type": "note_on", "time": 103, "note": 70, "velocity": 116, "channel": 0}, {"type": "note_off", "time": 184, "note": 70, "velocity": 116, "channel": 0}, {"type": "note_on", "time": 80, "note": 71, "velocity": 120, "channel": 0}, {"type": "note_off", "time": 115, "note": 71, "velocity": 120, "channel": 0}, {"type": "note_on", "time": 34, "note": 70, "velocity": 116, "channel": 0}, {"type": "note_off", "time": 126, "note": 70, "velocity": 116, "channel": 0}, {"type": "note_on", "time": 11, "note": 68, "velocity": 107, "channel": 0}, {"type": "note_off", "time": 126, "note": 68, "velocity": 107, "channel": 0}, {"type": "note_on", "time": 0, "note": 66, "velocity": 110, "channel": 0}, {"type": "note_on", "time": 173, "note": 61, "velocity": 103, "channel": 0}, {"type": "note_off", "time": 0, "note": 66, "velocity": 110, "channel": 0}, {"type": "note_off", "time": 150, "note": 61, "velocity": 103, "channel": 0}, {"type": "note_on", "time": 23, "note": 58, "velocity": 101, "channel": 0}, {"type": "note_off", "time": 161, "note": 58, "velocity": 101, "channel": 0}, {"type": "note_on", "time": 11, "note": 66, "velocity": 113, "channel": 0}, {"type": "note_off", "time": 173, "note": 66, "velocity": 113, "channel": 0}, {"type": "note_on", "time": 0, "note": 68, "velocity": 116, "channel": 0}, {"type": "note_off", "time": 773, "note": 68, "velocity": 116, "channel": 0}, {"type": "note_on", "time": 80, "note": 66, "velocity": 114, "channel": 0}, {"type": "note_off", "time": 207, "note": 66, "velocity": 114, "channel": 0}, {"type": "note_on", "time": 0, "note": 63, "velocity": 110, "channel": 0}, {"type": "note_off", "time": 346, "note": 63, "velocity": 110, "channel": 0}, {"type": "note_on", "time": 46, "note": 67, "velocity": 114, "channel": 0}, {"type": "note_off", "time": 600, "note": 67, "velocity": 114, "channel": 0}, {"type": "note_on", "time": 0, "note": 63, "velocity": 104, "channel": 0}, {"type": "note_off", "time": 184, "note": 63, "velocity": 104, "channel": 0}, {"type": "note_on", "time": 0, "note": 65, "velocity": 109, "channel": 0}, {"type": "note_off", "time": 115, "note": 65, "velocity": 109, "channel": 0}, {"type": "note_on", "time": 0, "note": 67, "velocity": 117, "channel": 0}, {"type": "note_off", "time": 115, "note": 67, "velocity": 117, "channel": 0}, {"type": "note_on", "time": 34, "note": 68, "velocity": 114, "channel": 0}, {"type": "note_off", "time": 161, "note": 68, "velocity": 114, "channel": 0}, {"type": "note_on", "time": 0, "note": 65, "velocity": 104, "channel": 0}, {"type": "note_off", "time": 103, "note": 65, "velocity": 104, "channel": 0}, {"type": "note_on", "time": 23, "note": 68, "velocity": 113, "channel": 0}, {"type": "note_off", "time": 207, "note": 68, "velocity": 113, "channel": 0}, {"type": "note_on", "time": 11, "note": 72, "velocity": 113, "channel": 0}, {"type": "note_off", "time": 138, "note": 72, "velocity": 113, "channel": 0}, {"type": "note_on", "time": 0, "note": 70, "velocity": 117, "channel": 0}, {"type": "note_off", "time": 392, "note": 70, "velocity": 117, "channel": 0}, {"type": "note_on", "time": 23, "note": 67, "velocity": 115, "channel": 0}, {"type": "note_off", "time": 473, "note": 67, "velocity": 115, "channel": 0}, {"type": "note_on", "time": 1357, "note": 74, "velocity": 119, "channel": 0}, {"type": "note_off", "time": 154, "note": 74, "velocity": 119, "channel": 0}, {"type": "note_on", "time": 27, "note": 73, "velocity": 120, "channel": 0}, {"type": "note_off", "time": 104, "note": 73, "velocity": 120, "channel": 0}, {"type": "note_on", "time": 5, "note": 72, "velocity": 114, "channel": 0}, {"type": "note_off", "time": 104, "note": 72, "velocity": 114, "channel": 0}, {"type": "note_on", "time": 46, "note": 70, "velocity": 116, "channel": 0}, {"type": "note_off", "time": 276, "note": 70, "velocity": 116, "channel": 0}, {"type": "note_on", "time": 0, "note": 67, "velocity": 117, "channel": 0}, {"type": "note_off", "time": 150, "note": 67, "velocity": 117, "channel": 0}, {"type": "note_on", "time": 57, "note": 66, "velocity": 109, "channel": 0}, {"type": "note_off", "time": 196, "note": 66, "velocity": 109, "channel": 0}, {"type": "note_on", "time": 0, "note": 73, "velocity": 105, "channel": 0}, {"type": "note_off", "time": 138, "note": 73, "velocity": 105, "channel": 0}, {"type": "note_on", "time": 92, "note": 69, "velocity": 111, "channel": 0}, {"type": "note_off", "time": 117, "note": 69, "velocity": 111, "channel": 0}, {"type": "note_on", "time": 18, "note": 66, "velocity": 104, "channel": 0}, {"type": "note_off", "time": 138, "note": 66, "velocity": 104, "channel": 0}, {"type": "note_on", "time": 48, "note": 63, "velocity": 109, "channel": 0}, {"type": "note_off", "time": 161, "note": 63, "velocity": 109, "channel": 0}, {"type": "note_on", "time": 34, "note": 65, "velocity": 113, "channel": 0}, {"type": "note_off", "time": 300, "note": 65, "velocity": 113, "channel": 0}, {"type": "note_on", "time": 11, "note": 63, "velocity": 101, "channel": 0}, {"type": "note_off", "time": 161, "note": 63, "velocity": 101, "channel": 0}, {"type": "note_on", "time": 11, "note": 64, "velocity": 120, "channel": 0}, {"type": "note_off", "time": 265, "note": 64, "velocity": 120, "channel": 0}, {"type": "note_on", "time": 46, "note": 62, "velocity": 105, "channel": 0}, {"type": "note_off", "time": 126, "note": 62, "velocity": 105, "channel": 0}, {"type": "note_on", "time": 11, "note": 63, "velocity": 115, "channel": 0}, {"type": "note_off", "time": 138, "note": 63, "velocity": 115, "channel": 0}, {"type": "note_on", "time": 69, "note": 72, "velocity": 110, "channel": 0}, {"type": "note_off", "time": 196, "note": 72, "velocity": 110, "channel": 0}, {"type": "note_on", "time": 23, "note": 68, "velocity": 115, "channel": 0}, {"type": "note_off", "time": 103, "note": 68, "velocity": 115, "channel": 0}, {"type": "note_on", "time": 0, "note": 65, "velocity": 113, "channel": 0}, {"type": "note_on", "time": 103, "note": 63, "velocity": 105, "channel": 0}, {"type": "note_off", "time": 0, "note": 65, "velocity": 113, "channel": 0}, {"type": "note_off", "time": 103, "note": 63, "velocity": 105, "channel": 0}, {"type": "note_on", "time": 160, "note": 64, "velocity": 116, "channel": 0}, {"type": "note_off", "time": 137, "note": 64, "velocity": 116, "channel": 0}, {"type": "note_on", "time": 27, "note": 60, "velocity": 110, "channel": 0}, {"type": "note_off", "time": 111, "note": 60, "velocity": 110, "channel": 0}, {"type": "note_on", "time": 24, "note": 62, "velocity": 111, "channel": 0}, {"type": "note_off", "time": 196, "note": 62, "velocity": 111, "channel": 0}, {"type": "note_on", "time": 126, "note": 58, "velocity": 104, "channel": 0}, {"type": "note_off", "time": 219, "note": 58, "velocity": 104, "channel": 0}, {"type": "note_on", "time": 0, "note": 63, "velocity": 123, "channel": 0}, {"type": "note_off", "time": 300, "note": 63, "velocity": 123, "channel": 0}, {"type": "note_on", "time": 80, "note": 64, "velocity": 119, "channel": 0}, {"type": "note_off", "time": 230, "note": 64, "velocity": 119, "channel": 0}, {"type": "note_on", "time": 34, "note": 60, "velocity": 108, "channel": 0}, {"type": "note_off", "time": 173, "note": 60, "velocity": 108, "channel": 0}, {"type": "note_on", "time": 92, "note": 64, "velocity": 112, "channel": 0}, {"type": "note_off", "time": 150, "note": 64, "velocity": 112, "channel": 0}, {"type": "note_on", "time": 0, "note": 67, "velocity": 116, "channel": 0}, {"type": "note_off", "time": 242, "note": 67, "velocity": 116, "channel": 0}, {"type": "note_on", "time": 11, "note": 65, "velocity": 115, "channel": 0}, {"type": "note_off", "time": 207, "note": 65, "velocity": 115, "channel": 0}, {"type": "note_on", "time": 0, "note": 64, "velocity": 123, "channel": 0}, {"type": "note_off", "time": 196, "note": 64, "velocity": 123, "channel": 0}, {"type": "note_on", "time": 57, "note": 63, "velocity": 123, "channel": 0}, {"type": "note_off", "time": 150, "note": 63, "velocity": 123, "channel": 0}, {"type": "note_on", "time": 80, "note": 62, "velocity": 119, "channel": 0}, {"type": "note_off", "time": 115, "note": 62, "velocity": 119, "channel": 0}, {"type": "note_on", "time": 80, "note": 60, "velocity": 109, "channel": 0}, {"type": "note_off", "time": 161, "note": 60, "velocity": 109, "channel": 0}, {"type": "note_on", "time": 11, "note": 59, "velocity": 107, "channel": 0}, {"type": "note_off", "time": 138, "note": 59, "velocity": 107, "channel": 0}, {"type": "note_on", "time": 46, "note": 58, "velocity": 110, "channel": 0}, {"type": "note_on", "time": 196, "note": 57, "velocity": 106, "channel": 0}, {"type": "note_off", "time": 0, "note": 58, "velocity": 110, "channel": 0}, {"type": "note_off", "time": 80, "note": 57, "velocity": 106, "channel": 0}, {"type": "note_on", "time": 57, "note": 56, "velocity": 108, "channel": 0}, {"type": "note_off", "time": 230, "note": 56, "velocity": 108, "channel": 0}, {"type": "note_on", "time": 51, "note": 58, "velocity": 107, "channel": 0}, {"type": "note_off", "time": 175, "note": 58, "velocity": 107, "channel": 0}, {"type": "note_on", "time": 38, "note": 60, "velocity": 57, "channel": 0}, {"type": "note_off", "time": 138, "note": 60, "velocity": 57, "channel": 0}, {"type": "note_on", "time": 69, "note": 62, "velocity": 113, "channel": 0}, {"type": "note_off", "time": 184, "note": 62, "velocity": 113, "channel": 0}, {"type": "note_on", "time": 0, "note": 67, "velocity": 116, "channel": 0}, {"type": "note_off", "time": 219, "note": 67, "velocity": 116, "channel": 0}, {"type": "note_on", "time": 227, "note": 66, "velocity": 110, "channel": 0}, {"type": "note_off", "time": 184, "note": 66, "velocity": 110, "channel": 0}, {"type": "note_on", "time": 79, "note": 66, "velocity": 113, "channel": 0}, {"type": "note_off", "time": 125, "note": 66, "velocity": 113, "channel": 0}, {"type": "note_on", "time": 28, "note": 62, "velocity": 117, "channel": 0}, {"type": "note_off", "time": 173, "note": 62, "velocity": 117, "channel": 0}, {"type": "note_on", "time": 47, "note": 60, "velocity": 108, "channel": 0}, {"type": "note_off", "time": 184, "note": 60, "velocity": 108, "channel": 0}, {"type": "note_on", "time": 76, "note": 58, "velocity": 111, "channel": 0}, {"type": "note_off", "time": 184, "note": 58, "velocity": 111, "channel": 0}, {"type": "note_on", "time": 47, "note": 66, "velocity": 116, "channel": 0}, {"type": "note_off", "time": 126, "note": 66, "velocity": 116, "channel": 0}, {"type": "note_on", "time": 25, "note": 67, "velocity": 114, "channel": 0}, {"type": "note_off", "time": 243, "note": 67, "velocity": 114, "channel": 0}, {"type": "note_on", "time": 21, "note": 63, "velocity": 118, "channel": 0}, {"type": "note_off", "time": 230, "note": 63, "velocity": 118, "channel": 0}, {"type": "note_on", "time": 173, "note": 63, "velocity": 117, "channel": 0}, {"type": "note_off", "time": 842, "note": 63, "velocity": 117, "channel": 0}, {"type": "note_on", "time": 738, "note": 64, "velocity": 121, "channel": 0}, {"type": "note_off", "time": 196, "note": 64, "velocity": 121, "channel": 0}, {"type": "note_on", "time": 34, "note": 66, "velocity": 110, "channel": 0}, {"type": "note_off", "time": 346, "note": 66, "velocity": 110, "channel": 0}, {"type": "note_on", "time": 946, "note": 65, "velocity": 115, "channel": 0}, {"type": "note_off", "time": 288, "note": 65, "velocity": 115, "channel": 0}, {"type": "note_on", "time": 0, "note": 67, "velocity": 108, "channel": 0}, {"type": "note_off", "time": 184, "note": 67, "velocity": 108, "channel": 0}, {"type": "note_on", "time": 23, "note": 69, "velocity": 117, "channel": 0}, {"type": "note_off", "time": 253, "note": 69, "velocity": 117, "channel": 0}, {"type": "note_on", "time": 80, "note": 65, "velocity": 103, "channel": 0}, {"type": "note_off", "time": 131, "note": 65, "velocity": 103, "channel": 0}, {"type": "note_on", "time": 46, "note": 69, "velocity": 120, "channel": 0}, {"type": "note_off", "time": 150, "note": 69, "velocity": 120, "channel": 0}, {"type": "note_on", "time": 36, "note": 73, "velocity": 115, "channel": 0}, {"type": "note_off", "time": 436, "note": 73, "velocity": 115, "channel": 0}, {"type": "note_on", "time": 30, "note": 71, "velocity": 113, "channel": 0}, {"type": "note_off", "time": 184, "note": 71, "velocity": 113, "channel": 0}, {"type": "note_on", "time": 23, "note": 70, "velocity": 115, "channel": 0}, {"type": "note_off", "time": 253, "note": 70, "velocity": 115, "channel": 0}, {"type": "note_on", "time": 103, "note": 66, "velocity": 110, "channel": 0}, {"type": "note_off", "time": 138, "note": 66, "velocity": 110, "channel": 0}, {"type": "note_on", "time": 46, "note": 64, "velocity": 113, "channel": 0}, {"type": "note_off", "time": 173, "note": 64, "velocity": 113, "channel": 0}, {"type": "note_on", "time": 0, "note": 59, "velocity": 109, "channel": 0}, {"type": "note_off", "time": 138, "note": 59, "velocity": 109, "channel": 0}, {"type": "note_on", "time": 23, "note": 58, "velocity": 109, "channel": 0}, {"type": "note_off", "time": 242, "note": 58, "velocity": 109, "channel": 0}, {"type": "note_on", "time": 57, "note": 68, "velocity": 119, "channel": 0}, {"type": "note_off", "time": 184, "note": 68, "velocity": 119, "channel": 0}, {"type": "note_on", "time": 46, "note": 67, "velocity": 114, "channel": 0}, {"type": "note_off", "time": 230, "note": 67, "velocity": 114, "channel": 0}, {"type": "note_on", "time": 0, "note": 65, "velocity": 112, "channel": 0}, {"type": "note_off", "time": 161, "note": 65, "velocity": 112, "channel": 0}, {"type": "note_on", "time": 23, "note": 63, "velocity": 115, "channel": 0}, {"type": "note_off", "time": 219, "note": 63, "velocity": 115, "channel": 0}, {"type": "note_on", "time": 34, "note": 62, "velocity": 114, "channel": 0}, {"type": "note_off", "time": 173, "note": 62, "velocity": 114, "channel": 0}, {"type": "note_on", "time": 80, "note": 61, "velocity": 113, "channel": 0}, {"type": "note_off", "time": 219, "note": 61, "velocity": 113, "channel": 0}, {"type": "note_on", "time": 34, "note": 63, "velocity": 119, "channel": 0}, {"type": "note_off", "time": 219, "note": 63, "velocity": 119, "channel": 0}, {"type": "note_on", "time": 11, "note": 65, "velocity": 112, "channel": 0}, {"type": "note_off", "time": 207, "note": 65, "velocity": 112, "channel": 0}, {"type": "note_on", "time": 11, "note": 67, "velocity": 116, "channel": 0}, {"type": "note_off", "time": 92, "note": 67, "velocity": 116, "channel": 0}, {"type": "note_on", "time": 92, "note": 68, "velocity": 107, "channel": 0}, {"type": "note_off", "time": 161, "note": 68, "velocity": 107, "channel": 0}, {"type": "note_on", "time": 0, "note": 70, "velocity": 103, "channel": 0}, {"type": "note_off", "time": 115, "note": 70, "velocity": 103, "channel": 0}, {"type": "note_on", "time": 0, "note": 72, "velocity": 118, "channel": 0}, {"type": "note_off", "time": 276, "note": 72, "velocity": 118, "channel": 0}, {"type": "note_on", "time": 0, "note": 70, "velocity": 110, "channel": 0}, {"type": "note_off", "time": 184, "note": 70, "velocity": 110, "channel": 0}, {"type": "note_on", "time": 0, "note": 67, "velocity": 109, "channel": 0}, {"type": "note_off", "time": 219, "note": 67, "velocity": 109, "channel": 0}, {"type": "note_on", "time": 46, "note": 66, "velocity": 99, "channel": 0}, {"type": "note_off", "time": 219, "note": 66, "velocity": 99, "channel": 0}, {"type": "note_on", "time": 57, "note": 68, "velocity": 118, "channel": 0}, {"type": "note_off", "time": 253, "note": 68, "velocity": 118, "channel": 0}, {"type": "note_on", "time": 196, "note": 68, "velocity": 115, "channel": 0}, {"type": "note_off", "time": 276, "note": 68, "velocity": 115, "channel": 0}, {"type": "note_on", "time": 150, "note": 68, "velocity": 114, "channel": 0}, {"type": "note_off", "time": 150, "note": 68, "velocity": 114, "channel": 0}, {"type": "note_on", "time": 46, "note": 70, "velocity": 116, "channel": 0}, {"type": "note_off", "time": 288, "note": 70, "velocity": 116, "channel": 0}, {"type": "note_on", "time": 125, "note": 70, "velocity": 120, "channel": 0}, {"type": "note_off", "time": 115, "note": 70, "velocity": 120, "channel": 0}, {"type": "note_on", "time": 18, "note": 71, "velocity": 120, "channel": 0}, {"type": "note_off", "time": 227, "note": 71, "velocity": 120, "channel": 0}, {"type": "note_on", "time": 78, "note": 75, "velocity": 111, "channel": 0}, {"type": "note_off", "time": 150, "note": 75, "velocity": 111, "channel": 0}, {"type": "note_on", "time": 150, "note": 71, "velocity": 120, "channel": 0}, {"type": "note_off", "time": 184, "note": 71, "velocity": 120, "channel": 0}, {"type": "note_on", "time": 23, "note": 70, "velocity": 117, "channel": 0}, {"type": "note_off", "time": 265, "note": 70, "velocity": 117, "channel": 0}, {"type": "note_on", "time": 0, "note": 68, "velocity": 120, "channel": 0}, {"type": "note_off", "time": 369, "note": 68, "velocity": 120, "channel": 0}, {"type": "note_on", "time": 1095, "note": 67, "velocity": 120, "channel": 0}, {"type": "note_off", "time": 242, "note": 67, "velocity": 120, "channel": 0}, {"type": "note_on", "time": 35, "note": 68, "velocity": 116, "channel": 0}, {"type": "note_off", "time": 103, "note": 68, "velocity": 116, "channel": 0}, {"type": "note_on", "time": 34, "note": 67, "velocity": 113, "channel": 0}, {"type": "note_off", "time": 138, "note": 67, "velocity": 113, "channel": 0}, {"type": "note_on", "time": 8, "note": 65, "velocity": 113, "channel": 0}, {"type": "note_off", "time": 166, "note": 65, "velocity": 113, "channel": 0}, {"type": "note_on", "time": 21, "note": 61, "velocity": 106, "channel": 0}, {"type": "note_off", "time": 219, "note": 61, "velocity": 106, "channel": 0}, {"type": "note_on", "time": 46, "note": 58, "velocity": 106, "channel": 0}, {"type": "note_off", "time": 196, "note": 58, "velocity": 106, "channel": 0}, {"type": "note_on", "time": 57, "note": 61, "velocity": 115, "channel": 0}, {"type": "note_off", "time": 230, "note": 61, "velocity": 115, "channel": 0}, {"type": "note_on", "time": 11, "note": 65, "velocity": 112, "channel": 0}, {"type": "note_off", "time": 173, "note": 65, "velocity": 112, "channel": 0}, {"type": "note_on", "time": 57, "note": 65, "velocity": 113, "channel": 0}, {"type": "note_off", "time": 103, "note": 65, "velocity": 113, "channel": 0}, {"type": "note_on", "time": 46, "note": 63, "velocity": 118, "channel": 0}, {"type": "note_off", "time": 853, "note": 63, "velocity": 118, "channel": 0}, {"type": "note_on", "time": 57, "note": 61, "velocity": 114, "channel": 0}, {"type": "note_off", "time": 173, "note": 61, "velocity": 114, "channel": 0}, {"type": "note_on", "time": 11, "note": 63, "velocity": 106, "channel": 0}, {"type": "note_off", "time": 150, "note": 63, "velocity": 106, "channel": 0}, {"type": "note_on", "time": 34, "note": 65, "velocity": 113, "channel": 0}, {"type": "note_off", "time": 219, "note": 65, "velocity": 113, "channel": 0}, {"type": "note_on", "time": 38, "note": 61, "velocity": 112, "channel": 0}, {"type": "note_off", "time": 160, "note": 61, "velocity": 112, "channel": 0}, {"type": "note_on", "time": 43, "note": 60, "velocity": 108, "channel": 0}, {"type": "note_off", "time": 138, "note": 60, "velocity": 108, "channel": 0}, {"type": "note_on", "time": 57, "note": 58, "velocity": 104, "channel": 0}, {"type": "note_off", "time": 311, "note": 58, "velocity": 104, "channel": 0}, {"type": "note_on", "time": 253, "note": 58, "velocity": 116, "channel": 0}, {"type": "note_off", "time": 173, "note": 58, "velocity": 116, "channel": 0}, {"type": "note_on", "time": 0, "note": 63, "velocity": 117, "channel": 0}, {"type": "note_off", "time": 253, "note": 63, "velocity": 117, "channel": 0}, {"type": "note_on", "time": 34, "note": 61, "velocity": 115, "channel": 0}, {"type": "note_off", "time": 150, "note": 61, "velocity": 115, "channel": 0}, {"type": "note_on", "time": 92, "note": 56, "velocity": 113, "channel": 0}, {"type": "note_off", "time": 103, "note": 56, "velocity": 113, "channel": 0}, {"type": "note_on", "time": 80, "note": 58, "velocity": 104, "channel": 0}, {"type": "note_off", "time": 115, "note": 58, "velocity": 104, "channel": 0}, {"type": "note_on", "time": 34, "note": 59, "velocity": 108, "channel": 0}, {"type": "note_off", "time": 276, "note": 59, "velocity": 108, "channel": 0}, {"type": "note_on", "time": 34, "note": 64, "velocity": 116, "channel": 0}, {"type": "note_on", "time": 242, "note": 67, "velocity": 114, "channel": 0}, {"type": "note_off", "time": 0, "note": 64, "velocity": 116, "channel": 0}, {"type": "note_off", "time": 219, "note": 67, "velocity": 114, "channel": 0}, {"type": "note_on", "time": 0, "note": 71, "velocity": 113, "channel": 0}, {"type": "note_off", "time": 138, "note": 71, "velocity": 113, "channel": 0}, {"type": "note_on", "time": 23, "note": 70, "velocity": 101, "channel": 0}, {"type": "note_off", "time": 126, "note": 70, "velocity": 101, "channel": 0}, {"type": "note_on", "time": 46, "note": 72, "velocity": 107, "channel": 0}, {"type": "note_off", "time": 115, "note": 72, "velocity": 107, "channel": 0}, {"type": "note_on", "time": 69, "note": 71, "velocity": 100, "channel": 0}, {"type": "note_off", "time": 92, "note": 71, "velocity": 100, "channel": 0}, {"type": "note_on", "time": 0, "note": 70, "velocity": 113, "channel": 0}, {"type": "note_off", "time": 1015, "note": 70, "velocity": 113, "channel": 0}, {"type": "note_on", "time": 92, "note": 68, "velocity": 112, "channel": 0}, {"type": "note_off", "time": 265, "note": 68, "velocity": 112, "channel": 0}, {"type": "note_on", "time": 11, "note": 66, "velocity": 106, "channel": 0}, {"type": "note_off", "time": 196, "note": 66, "velocity": 106, "channel": 0}, {"type": "note_on", "time": 92, "note": 63, "velocity": 109, "channel": 0}, {"type": "note_off", "time": 184, "note": 63, "velocity": 109, "channel": 0}, {"type": "note_on", "time": 0, "note": 66, "velocity": 110, "channel": 0}, {"type": "note_off", "time": 173, "note": 66, "velocity": 110, "channel": 0}, {"type": "note_on", "time": 11, "note": 68, "velocity": 112, "channel": 0}, {"type": "note_off", "time": 242, "note": 68, "velocity": 112, "channel": 0}, {"type": "note_on", "time": 288, "note": 69, "velocity": 117, "channel": 0}, {"type": "note_off", "time": 288, "note": 69, "velocity": 117, "channel": 0}, {"type": "note_on", "time": 57, "note": 68, "velocity": 112, "channel": 0}, {"type": "note_off", "time": 196, "note": 68, "velocity": 112, "channel": 0}, {"type": "note_on", "time": 80, "note": 66, "velocity": 107, "channel": 0}, {"type": "note_off", "time": 207, "note": 66, "velocity": 107, "channel": 0}, {"type": "note_on", "time": 57, "note": 63, "velocity": 106, "channel": 0}, {"type": "note_off", "time": 276, "note": 63, "velocity": 106, "channel": 0}, {"type": "note_on", "time": 11, "note": 68, "velocity": 113, "channel": 0}, {"type": "note_off", "time": 657, "note": 68, "velocity": 113, "channel": 0}, {"type": "note_on", "time": 69, "note": 66, "velocity": 102, "channel": 0}, {"type": "note_off", "time": 184, "note": 66, "velocity": 102, "channel": 0}, {"type": "note_on", "time": 103, "note": 63, "velocity": 119, "channel": 0}, {"type": "note_off", "time": 196, "note": 63, "velocity": 119, "channel": 0}, {"type": "note_on", "time": 23, "note": 61, "velocity": 112, "channel": 0}, {"type": "note_off", "time": 184, "note": 61, "velocity": 112, "channel": 0}, {"type": "note_on", "time": 150, "note": 58, "velocity": 107, "channel": 0}, {"type": "note_off", "time": 196, "note": 58, "velocity": 107, "channel": 0}, {"type": "note_on", "time": 253, "note": 56, "velocity": 112, "channel": 0}, {"type": "note_off", "time": 253, "note": 56, "velocity": 112, "channel": 0}, {"type": "note_on", "time": 969, "note": 55, "velocity": 109, "channel": 0}, {"type": "note_off", "time": 196, "note": 55, "velocity": 109, "channel": 0}, {"type": "note_on", "time": 34, "note": 56, "velocity": 111, "channel": 0}, {"type": "note_off", "time": 196, "note": 56, "velocity": 111, "channel": 0}, {"type": "note_on", "time": 23, "note": 58, "velocity": 109, "channel": 0}, {"type": "note_off", "time": 173, "note": 58, "velocity": 109, "channel": 0}, {"type": "note_on", "time": 34, "note": 60, "velocity": 113, "channel": 0}, {"type": "note_off", "time": 207, "note": 60, "velocity": 113, "channel": 0}, {"type": "note_on", "time": 11, "note": 62, "velocity": 105, "channel": 0}, {"type": "note_off", "time": 80, "note": 62, "velocity": 105, "channel": 0}, {"type": "note_on", "time": 34, "note": 63, "velocity": 114, "channel": 0}, {"type": "note_off", "time": 219, "note": 63, "velocity": 114, "channel": 0}, {"type": "note_on", "time": 33, "note": 65, "velocity": 117, "channel": 0}, {"type": "note_off", "time": 239, "note": 65, "velocity": 117, "channel": 0}, {"type": "note_on", "time": 27, "note": 62, "velocity": 99, "channel": 0}, {"type": "note_off", "time": 92, "note": 62, "velocity": 99, "channel": 0}, {"type": "note_on", "time": 11, "note": 63, "velocity": 110, "channel": 0}, {"type": "note_off", "time": 230, "note": 63, "velocity": 110, "channel": 0}, {"type": "note_on", "time": 93, "note": 67, "velocity": 112, "channel": 0}, {"type": "note_off", "time": 85, "note": 67, "velocity": 112, "channel": 0}, {"type": "note_on", "time": 20, "note": 70, "velocity": 116, "channel": 0}, {"type": "note_off", "time": 174, "note": 70, "velocity": 116, "channel": 0}, {"type": "note_on", "time": 57, "note": 68, "velocity": 118, "channel": 0}, {"type": "note_off", "time": 175, "note": 68, "velocity": 118, "channel": 0}, {"type": "note_on", "time": 28, "note": 65, "velocity": 101, "channel": 0}, {"type": "note_off", "time": 137, "note": 65, "velocity": 101, "channel": 0}, {"type": "note_on", "time": 11, "note": 68, "velocity": 117, "channel": 0}, {"type": "note_off", "time": 196, "note": 68, "velocity": 117, "channel": 0}, {"type": "note_on", "time": 25, "note": 72, "velocity": 119, "channel": 0}, {"type": "note_off", "time": 213, "note": 72, "velocity": 119, "channel": 0}, {"type": "note_on", "time": 23, "note": 70, "velocity": 114, "channel": 0}, {"type": "note_off", "time": 685, "note": 70, "velocity": 114, "channel": 0}, {"type": "note_on", "time": 540, "note": 67, "velocity": 103, "channel": 0}, {"type": "note_off", "time": 311, "note": 67, "velocity": 103, "channel": 0}, {"type": "note_on", "time": 150, "note": 70, "velocity": 99, "channel": 0}, {"type": "note_off", "time": 173, "note": 70, "velocity": 99, "channel": 0}, {"type": "note_on", "time": 93, "note": 74, "velocity": 117, "channel": 0}, {"type": "note_off", "time": 184, "note": 74, "velocity": 117, "channel": 0}, {"type": "note_on", "time": 24, "note": 72, "velocity": 112, "channel": 0}, {"type": "note_off", "time": 113, "note": 72, "velocity": 112, "channel": 0}, {"type": "note_on", "time": 44, "note": 70, "velocity": 116, "channel": 0}, {"type": "note_off", "time": 161, "note": 70, "velocity": 116, "channel": 0}, {"type": "note_on", "time": 23, "note": 67, "velocity": 110, "channel": 0}, {"type": "note_off", "time": 207, "note": 67, "velocity": 110, "channel": 0}, {"type": "note_on", "time": 0, "note": 66, "velocity": 109, "channel": 0}, {"type": "note_off", "time": 184, "note": 66, "velocity": 109, "channel": 0}, {"type": "note_on", "time": 69, "note": 73, "velocity": 111, "channel": 0}, {"type": "note_off", "time": 173, "note": 73, "velocity": 111, "channel": 0}, {"type": "note_on", "time": 23, "note": 69, "velocity": 106, "channel": 0}, {"type": "note_off", "time": 115, "note": 69, "velocity": 106, "channel": 0}, {"type": "note_on", "time": 34, "note": 67, "velocity": 107, "channel": 0}, {"type": "note_off", "time": 115, "note": 67, "velocity": 107, "channel": 0}, {"type": "note_on", "time": 23, "note": 65, "velocity": 103, "channel": 0}, {"type": "note_off", "time": 126, "note": 65, "velocity": 103, "channel": 0}, {"type": "note_on", "time": 92, "note": 68, "velocity": 103, "channel": 0}, {"type": "note_off", "time": 380, "note": 68, "velocity": 103, "channel": 0}, {"type": "note_on", "time": 173, "note": 72, "velocity": 115, "channel": 0}, {"type": "note_off", "time": 242, "note": 72, "velocity": 115, "channel": 0}, {"type": "note_on", "time": 265, "note": 72, "velocity": 116, "channel": 0}, {"type": "note_off", "time": 265, "note": 72, "velocity": 116, "channel": 0}, {"type": "note_on", "time": 46, "note": 68, "velocity": 111, "channel": 0}, {"type": "note_off", "time": 126, "note": 68, "velocity": 111, "channel": 0}, {"type": "note_on", "time": 11, "note": 65, "velocity": 110, "channel": 0}, {"type": "note_off", "time": 92, "note": 65, "velocity": 110, "channel": 0}, {"type": "note_on", "time": 112, "note": 60, "velocity": 111, "channel": 0}, {"type": "note_off", "time": 161, "note": 60, "velocity": 111, "channel": 0}, {"type": "note_on", "time": 7, "note": 63, "velocity": 122, "channel": 0}, {"type": "note_off", "time": 265, "note": 63, "velocity": 122, "channel": 0}, {"type": "note_on", "time": 21, "note": 60, "velocity": 112, "channel": 0}, {"type": "note_off", "time": 103, "note": 60, "velocity": 112, "channel": 0}, {"type": "note_on", "time": 31, "note": 62, "velocity": 109, "channel": 0}, {"type": "note_off", "time": 346, "note": 62, "velocity": 109, "channel": 0}, {"type": "note_on", "time": 1485, "note": 69, "velocity": 117, "channel": 0}, {"type": "note_off", "time": 132, "note": 69, "velocity": 117, "channel": 0}, {"type": "note_on", "time": 21, "note": 72, "velocity": 117, "channel": 0}, {"type": "note_off", "time": 85, "note": 72, "velocity": 117, "channel": 0}, {"type": "note_on", "time": 17, "note": 73, "velocity": 117, "channel": 0}, {"type": "note_off", "time": 888, "note": 73, "velocity": 117, "channel": 0}, {"type": "note_on", "time": 0, "note": 70, "velocity": 120, "channel": 0}, {"type": "note_off", "time": 265, "note": 70, "velocity": 120, "channel": 0}, {"type": "note_on", "time": 46, "note": 68, "velocity": 116, "channel": 0}, {"type": "note_off", "time": 276, "note": 68, "velocity": 116, "channel": 0}, {"type": "note_on", "time": 34, "note": 66, "velocity": 111, "channel": 0}, {"type": "note_off", "time": 242, "note": 66, "velocity": 111, "channel": 0}, {"type": "note_on", "time": 23, "note": 63, "velocity": 106, "channel": 0}, {"type": "note_off", "time": 173, "note": 63, "velocity": 106, "channel": 0}, {"type": "note_on", "time": 92, "note": 66, "velocity": 114, "channel": 0}, {"type": "note_off", "time": 161, "note": 66, "velocity": 114, "channel": 0}, {"type": "note_on", "time": 11, "note": 68, "velocity": 113, "channel": 0}, {"type": "note_off", "time": 196, "note": 68, "velocity": 113, "channel": 0}, {"type": "note_on", "time": 80, "note": 63, "velocity": 117, "channel": 0}, {"type": "note_off", "time": 426, "note": 63, "velocity": 117, "channel": 0}, {"type": "note_on", "time": 150, "note": 63, "velocity": 118, "channel": 0}, {"type": "note_off", "time": 1454, "note": 63, "velocity": 118, "channel": 0}, {"type": "note_on", "time": 23, "note": 61, "velocity": 108, "channel": 0}, {"type": "note_off", "time": 288, "note": 61, "velocity": 108, "channel": 0}, {"type": "note_on", "time": 24, "note": 63, "velocity": 105, "channel": 0}, {"type": "note_off", "time": 176, "note": 63, "velocity": 105, "channel": 0}, {"type": "note_on", "time": 76, "note": 65, "velocity": 114, "channel": 0}, {"type": "note_off", "time": 219, "note": 65, "velocity": 114, "channel": 0}, {"type": "note_on", "time": 23, "note": 61, "velocity": 111, "channel": 0}, {"type": "note_off", "time": 304, "note": 61, "velocity": 111, "channel": 0}, {"type": "note_on", "time": 1195, "note": 60, "velocity": 115, "channel": 0}, {"type": "note_off", "time": 369, "note": 60, "velocity": 115, "channel": 0}, {"type": "note_on", "time": 11, "note": 62, "velocity": 115, "channel": 0}, {"type": "note_off", "time": 126, "note": 62, "velocity": 115, "channel": 0}, {"type": "note_on", "time": 46, "note": 63, "velocity": 119, "channel": 0}, {"type": "note_off", "time": 173, "note": 63, "velocity": 119, "channel": 0}, {"type": "note_on", "time": 69, "note": 60, "velocity": 100, "channel": 0}, {"type": "note_off", "time": 265, "note": 60, "velocity": 100, "channel": 0}, {"type": "note_on", "time": 0, "note": 66, "velocity": 110, "channel": 0}, {"type": "note_off", "time": 173, "note": 66, "velocity": 110, "channel": 0}, {"type": "note_on", "time": 0, "note": 67, "velocity": 104, "channel": 0}, {"type": "note_off", "time": 92, "note": 67, "velocity": 104, "channel": 0}, {"type": "note_on", "time": 46, "note": 66, "velocity": 110, "channel": 0}, {"type": "note_off", "time": 126, "note": 66, "velocity": 110, "channel": 0}, {"type": "note_on", "time": 0, "note": 62, "velocity": 116, "channel": 0}, {"type": "note_off", "time": 230, "note": 62, "velocity": 116, "channel": 0}, {"type": "note_on", "time": 0, "note": 60, "velocity": 108, "channel": 0}, {"type": "note_off", "time": 184, "note": 60, "velocity": 108, "channel": 0}, {"type": "note_on", "time": 57, "note": 58, "velocity": 107, "channel": 0}, {"type": "note_off", "time": 207, "note": 58, "velocity": 107, "channel": 0}, {"type": "note_on", "time": 0, "note": 56, "velocity": 104, "channel": 0}, {"type": "note_off", "time": 173, "note": 56, "velocity": 104, "channel": 0}, {"type": "note_on", "time": 496, "note": 55, "velocity": 97, "channel": 0}, {"type": "note_off", "time": 496, "note": 55, "velocity": 97, "channel": 0}, {"type": "note_on", "time": 865, "note": 58, "velocity": 111, "channel": 0}, {"type": "note_off", "time": 230, "note": 58, "velocity": 111, "channel": 0}, {"type": "note_on", "time": 80, "note": 63, "velocity": 119, "channel": 0}, {"type": "note_off", "time": 473, "note": 63, "velocity": 119, "channel": 0}, {"type": "note_on", "time": 1269, "note": 56, "velocity": 111, "channel": 0}, {"type": "note_off", "time": 669, "note": 56, "velocity": 111, "channel": 0}, {"type": "note_on", "time": 103, "note": 60, "velocity": 111, "channel": 0}, {"type": "note_off", "time": 426, "note": 60, "velocity": 111, "channel": 0}, {"type": "note_on", "time": 46, "note": 62, "velocity": 113, "channel": 0}, {"type": "note_off", "time": 150, "note": 62, "velocity": 113, "channel": 0}, {"type": "note_on", "time": 0, "note": 63, "velocity": 119, "channel": 0}, {"type": "note_off", "time": 888, "note": 63, "velocity": 119, "channel": 0}, {"type": "note_on", "time": 1032, "note": 52, "velocity": 120, "channel": 0}, {"type": "note_off", "time": 144, "note": 52, "velocity": 120, "channel": 0}, {"type": "note_on", "time": 12, "note": 55, "velocity": 116, "channel": 0}, {"type": "note_off", "time": 265, "note": 55, "velocity": 116, "channel": 0}, {"type": "note_on", "time": 34, "note": 58, "velocity": 115, "channel": 0}, {"type": "note_off", "time": 184, "note": 58, "velocity": 115, "channel": 0}, {"type": "note_on", "time": 57, "note": 63, "velocity": 119, "channel": 0}, {"type": "note_off", "time": 334, "note": 63, "velocity": 119, "channel": 0}, {"type": "note_on", "time": 248, "note": 63, "velocity": 122, "channel": 0}, {"type": "note_off", "time": 496, "note": 63, "velocity": 122, "channel": 0}, {"type": "note_on", "time": 131, "note": 63, "velocity": 120, "channel": 0}, {"type": "note_off", "time": 1165, "note": 63, "velocity": 120, "channel": 0}, {"type": "note_on", "time": 115, "note": 61, "velocity": 108, "channel": 0}, {"type": "note_off", "time": 288, "note": 61, "velocity": 108, "channel": 0}, {"type": "note_on", "time": 43, "note": 63, "velocity": 114, "channel": 0}, {"type": "note_off", "time": 150, "note": 63, "velocity": 114, "channel": 0}, {"type": "note_on", "time": 5, "note": 65, "velocity": 116, "channel": 0}, {"type": "note_off", "time": 202, "note": 65, "velocity": 116, "channel": 0}, {"type": "note_on", "time": 25, "note": 61, "velocity": 118, "channel": 0}, {"type": "note_off", "time": 138, "note": 61, "velocity": 118, "channel": 0}, {"type": "note_on", "time": 46, "note": 60, "velocity": 113, "channel": 0}, {"type": "note_off", "time": 207, "note": 60, "velocity": 113, "channel": 0}, {"type": "note_on", "time": 80, "note": 58, "velocity": 103, "channel": 0}, {"type": "note_off", "time": 184, "note": 58, "velocity": 103, "channel": 0}, {"type": "note_on", "time": 38, "note": 63, "velocity": 119, "channel": 0}, {"type": "note_off", "time": 253, "note": 63, "velocity": 119, "channel": 0}, {"type": "note_on", "time": 1139, "note": 67, "velocity": 114, "channel": 0}, {"type": "note_off", "time": 392, "note": 67, "velocity": 114, "channel": 0}, {"type": "note_on", "time": 11, "note": 65, "velocity": 116, "channel": 0}, {"type": "note_off", "time": 230, "note": 65, "velocity": 116, "channel": 0}, {"type": "note_on", "time": 11, "note": 63, "velocity": 118, "channel": 0}, {"type": "note_off", "time": 193, "note": 63, "velocity": 118, "channel": 0}, {"type": "note_on", "time": 28, "note": 61, "velocity": 115, "channel": 0}, {"type": "note_off", "time": 141, "note": 61, "velocity": 115, "channel": 0}, {"type": "note_on", "time": 23, "note": 60, "velocity": 114, "channel": 0}, {"type": "note_off", "time": 161, "note": 60, "velocity": 114, "channel": 0}, {"type": "note_on", "time": 40, "note": 58, "velocity": 109, "channel": 0}, {"type": "note_off", "time": 253, "note": 58, "velocity": 109, "channel": 0}, {"type": "note_on", "time": 34, "note": 56, "velocity": 111, "channel": 0}, {"type": "note_off", "time": 392, "note": 56, "velocity": 111, "channel": 0}, {"type": "note_on", "time": 253, "note": 58, "velocity": 107, "channel": 0}, {"type": "note_off", "time": 138, "note": 58, "velocity": 107, "channel": 0}, {"type": "note_on", "time": 69, "note": 60, "velocity": 117, "channel": 0}, {"type": "note_off", "time": 311, "note": 60, "velocity": 117, "channel": 0}, {"type": "note_on", "time": 276, "note": 60, "velocity": 116, "channel": 0}, {"type": "note_off", "time": 196, "note": 60, "velocity": 116, "channel": 0}, {"type": "note_on", "time": 69, "note": 63, "velocity": 123, "channel": 0}, {"type": "note_off", "time": 346, "note": 63, "velocity": 123, "channel": 0}, {"type": "note_on", "time": 0, "note": 60, "velocity": 105, "channel": 0}, {"type": "note_off", "time": 207, "note": 60, "velocity": 105, "channel": 0}, {"type": "note_on", "time": 46, "note": 63, "velocity": 125, "channel": 0}, {"type": "note_off", "time": 196, "note": 63, "velocity": 125, "channel": 0}, {"type": "note_on", "time": 69, "note": 66, "velocity": 117, "channel": 0}, {"type": "note_off", "time": 196, "note": 66, "velocity": 117, "channel": 0}, {"type": "note_on", "time": 0, "note": 63, "velocity": 110, "channel": 0}, {"type": "note_off", "time": 173, "note": 63, "velocity": 110, "channel": 0}, {"type": "note_on", "time": 57, "note": 66, "velocity": 117, "channel": 0}, {"type": "note_off", "time": 265, "note": 66, "velocity": 117, "channel": 0}, {"type": "note_on", "time": 138, "note": 69, "velocity": 120, "channel": 0}, {"type": "note_off", "time": 173, "note": 69, "velocity": 120, "channel": 0}, {"type": "note_on", "time": 46, "note": 70, "velocity": 117, "channel": 0}, {"type": "note_off", "time": 830, "note": 70, "velocity": 117, "channel": 0}, {"type": "note_on", "time": 8, "note": 68, "velocity": 118, "channel": 0}, {"type": "note_off", "time": 206, "note": 68, "velocity": 118, "channel": 0}, {"type": "note_on", "time": 52, "note": 63, "velocity": 114, "channel": 0}, {"type": "note_off", "time": 198, "note": 63, "velocity": 114, "channel": 0}, {"type": "note_on", "time": 30, "note": 66, "velocity": 115, "channel": 0}, {"type": "note_off", "time": 276, "note": 66, "velocity": 115, "channel": 0}, {"type": "note_on", "time": 23, "note": 68, "velocity": 117, "channel": 0}, {"type": "note_off", "time": 194, "note": 68, "velocity": 117, "channel": 0}, {"type": "note_on", "time": 12, "note": 70, "velocity": 118, "channel": 0}, {"type": "note_off", "time": 450, "note": 70, "velocity": 118, "channel": 0}, {"type": "note_on", "time": 1234, "note": 58, "velocity": 114, "channel": 0}, {"type": "note_off", "time": 230, "note": 58, "velocity": 114, "channel": 0}, {"type": "note_on", "time": 60, "note": 55, "velocity": 102, "channel": 0}, {"type": "note_off", "time": 184, "note": 55, "velocity": 102, "channel": 0}, {"type": "note_on", "time": 24, "note": 58, "velocity": 113, "channel": 0}, {"type": "note_off", "time": 207, "note": 58, "velocity": 113, "channel": 0}, {"type": "note_on", "time": 12, "note": 62, "velocity": 119, "channel": 0}, {"type": "note_off", "time": 230, "note": 62, "velocity": 119, "channel": 0}, {"type": "note_on", "time": 14, "note": 58, "velocity": 92, "channel": 0}, {"type": "note_off", "time": 109, "note": 58, "velocity": 92, "channel": 0}, {"type": "note_on", "time": 33, "note": 62, "velocity": 120, "channel": 0}, {"type": "note_off", "time": 253, "note": 62, "velocity": 120, "channel": 0}, {"type": "note_on", "time": 11, "note": 65, "velocity": 114, "channel": 0}, {"type": "note_off", "time": 253, "note": 65, "velocity": 114, "channel": 0}, {"type": "note_on", "time": 57, "note": 62, "velocity": 97, "channel": 0}, {"type": "note_off", "time": 138, "note": 62, "velocity": 97, "channel": 0}, {"type": "note_on", "time": 13, "note": 65, "velocity": 107, "channel": 0}, {"type": "note_off", "time": 156, "note": 65, "velocity": 107, "channel": 0}, {"type": "note_on", "time": 13, "note": 70, "velocity": 106, "channel": 0}, {"type": "note_off", "time": 80, "note": 70, "velocity": 106, "channel": 0}, {"type": "note_on", "time": 150, "note": 74, "velocity": 114, "channel": 0}, {"type": "note_off", "time": 334, "note": 74, "velocity": 114, "channel": 0}, {"type": "note_on", "time": 43, "note": 72, "velocity": 120, "channel": 0}, {"type": "note_off", "time": 304, "note": 72, "velocity": 120, "channel": 0}, {"type": "note_on", "time": 679, "note": 54, "velocity": 104, "channel": 0}, {"type": "note_off", "time": 196, "note": 54, "velocity": 104, "channel": 0}, {"type": "note_on", "time": 22, "note": 57, "velocity": 113, "channel": 0}, {"type": "note_off", "time": 182, "note": 57, "velocity": 113, "channel": 0}, {"type": "note_on", "time": 60, "note": 61, "velocity": 118, "channel": 0}, {"type": "note_off", "time": 209, "note": 61, "velocity": 118, "channel": 0}, {"type": "note_on", "time": 23, "note": 64, "velocity": 109, "channel": 0}, {"type": "note_off", "time": 126, "note": 64, "velocity": 109, "channel": 0}, {"type": "note_on", "time": 40, "note": 68, "velocity": 102, "channel": 0}, {"type": "note_off", "time": 104, "note": 68, "velocity": 102, "channel": 0}, {"type": "note_on", "time": 31, "note": 71, "velocity": 124, "channel": 0}, {"type": "note_off", "time": 136, "note": 71, "velocity": 124, "channel": 0}, {"type": "note_on", "time": 17, "note": 73, "velocity": 120, "channel": 0}, {"type": "note_off", "time": 801, "note": 73, "velocity": 120, "channel": 0}, {"type": "note_on", "time": 27, "note": 71, "velocity": 120, "channel": 0}, {"type": "note_off", "time": 131, "note": 71, "velocity": 120, "channel": 0}, {"type": "note_on", "time": 32, "note": 69, "velocity": 115, "channel": 0}, {"type": "note_off", "time": 80, "note": 69, "velocity": 115, "channel": 0}, {"type": "note_on", "time": 12, "note": 66, "velocity": 111, "channel": 0}, {"type": "note_off", "time": 276, "note": 66, "velocity": 111, "channel": 0}, {"type": "note_on", "time": 23, "note": 61, "velocity": 108, "channel": 0}, {"type": "note_off", "time": 334, "note": 61, "velocity": 108, "channel": 0}, {"type": "note_on", "time": 686, "note": 53, "velocity": 113, "channel": 0}, {"type": "note_off", "time": 189, "note": 53, "velocity": 113, "channel": 0}, {"type": "note_on", "time": 23, "note": 56, "velocity": 111, "channel": 0}, {"type": "note_off", "time": 136, "note": 56, "velocity": 111, "channel": 0}, {"type": "note_on", "time": 24, "note": 60, "velocity": 106, "channel": 0}, {"type": "note_off", "time": 207, "note": 60, "velocity": 106, "channel": 0}, {"type": "note_on", "time": 5, "note": 63, "velocity": 112, "channel": 0}, {"type": "note_off", "time": 110, "note": 63, "velocity": 112, "channel": 0}, {"type": "note_on", "time": 19, "note": 67, "velocity": 107, "channel": 0}, {"type": "note_off", "time": 102, "note": 67, "velocity": 107, "channel": 0}, {"type": "note_on", "time": 12, "note": 70, "velocity": 120, "channel": 0}, {"type": "note_off", "time": 139, "note": 70, "velocity": 120, "channel": 0}, {"type": "note_on", "time": 29, "note": 75, "velocity": 117, "channel": 0}, {"type": "note_off", "time": 566, "note": 75, "velocity": 117, "channel": 0}, {"type": "note_on", "time": 17, "note": 72, "velocity": 114, "channel": 0}, {"type": "note_off", "time": 173, "note": 72, "velocity": 114, "channel": 0}, {"type": "note_on", "time": 27, "note": 68, "velocity": 115, "channel": 0}, {"type": "note_off", "time": 139, "note": 68, "velocity": 115, "channel": 0}, {"type": "note_on", "time": 28, "note": 65, "velocity": 113, "channel": 0}, {"type": "note_off", "time": 346, "note": 65, "velocity": 113, "channel": 0}, {"type": "note_on", "time": 888, "note": 61, "velocity": 110, "channel": 0}, {"type": "note_off", "time": 265, "note": 61, "velocity": 110, "channel": 0}, {"type": "note_on", "time": 11, "note": 63, "velocity": 108, "channel": 0}, {"type": "note_off", "time": 150, "note": 63, "velocity": 108, "channel": 0}, {"type": "note_on", "time": 37, "note": 67, "velocity": 100, "channel": 0}, {"type": "note_off", "time": 96, "note": 67, "velocity": 100, "channel": 0}, {"type": "note_on", "time": 5, "note": 70, "velocity": 114, "channel": 0}, {"type": "note_off", "time": 108, "note": 70, "velocity": 114, "channel": 0}, {"type": "note_on", "time": 193, "note": 74, "velocity": 125, "channel": 0}, {"type": "note_off", "time": 109, "note": 74, "velocity": 125, "channel": 0}, {"type": "note_on", "time": 10, "note": 75, "velocity": 124, "channel": 0}, {"type": "note_off", "time": 789, "note": 75, "velocity": 124, "channel": 0}, {"type": "note_on", "time": 57, "note": 73, "velocity": 111, "channel": 0}, {"type": "note_off", "time": 230, "note": 73, "velocity": 111, "channel": 0}, {"type": "note_on", "time": 57, "note": 71, "velocity": 119, "channel": 0}, {"type": "note_off", "time": 207, "note": 71, "velocity": 119, "channel": 0}, {"type": "note_on", "time": 57, "note": 68, "velocity": 117, "channel": 0}, {"type": "note_off", "time": 184, "note": 68, "velocity": 117, "channel": 0}, {"type": "note_on", "time": 181, "note": 64, "velocity": 116, "channel": 0}, {"type": "note_off", "time": 170, "note": 64, "velocity": 116, "channel": 0}, {"type": "note_on", "time": 16, "note": 66, "velocity": 91, "channel": 0}, {"type": "note_off", "time": 94, "note": 66, "velocity": 91, "channel": 0}, {"type": "note_on", "time": 21, "note": 68, "velocity": 104, "channel": 0}, {"type": "note_off", "time": 115, "note": 68, "velocity": 104, "channel": 0}, {"type": "note_on", "time": 46, "note": 71, "velocity": 118, "channel": 0}, {"type": "note_off", "time": 161, "note": 71, "velocity": 118, "channel": 0}, {"type": "note_on", "time": 23, "note": 70, "velocity": 119, "channel": 0}, {"type": "note_off", "time": 196, "note": 70, "velocity": 119, "channel": 0}, {"type": "note_on", "time": 137, "note": 68, "velocity": 112, "channel": 0}, {"type": "note_off", "time": 219, "note": 68, "velocity": 112, "channel": 0}, {"type": "note_on", "time": 38, "note": 67, "velocity": 116, "channel": 0}, {"type": "note_off", "time": 311, "note": 67, "velocity": 116, "channel": 0}, {"type": "note_on", "time": 92, "note": 63, "velocity": 120, "channel": 0}, {"type": "note_off", "time": 276, "note": 63, "velocity": 120, "channel": 0}, {"type": "note_on", "time": 178, "note": 63, "velocity": 120, "channel": 0}, {"type": "note_off", "time": 296, "note": 63, "velocity": 120, "channel": 0}, {"type": "note_on", "time": 76, "note": 63, "velocity": 120, "channel": 0}, {"type": "note_off", "time": 1361, "note": 63, "velocity": 120, "channel": 0}, {"type": "note_on", "time": 62, "note": 60, "velocity": 98, "channel": 0}, {"type": "note_off", "time": 210, "note": 60, "velocity": 98, "channel": 0}, {"type": "note_on", "time": 55, "note": 63, "velocity": 113, "channel": 0}, {"type": "note_off", "time": 165, "note": 63, "velocity": 113, "channel": 0}, {"type": "note_on", "time": 13, "note": 67, "velocity": 117, "channel": 0}, {"type": "note_off", "time": 219, "note": 67, "velocity": 117, "channel": 0}, {"type": "note_on", "time": 15, "note": 68, "velocity": 115, "channel": 0}, {"type": "note_off", "time": 174, "note": 68, "velocity": 115, "channel": 0}, {"type": "note_on", "time": 51, "note": 64, "velocity": 115, "channel": 0}, {"type": "note_off", "time": 184, "note": 64, "velocity": 115, "channel": 0}, {"type": "note_on", "time": 59, "note": 67, "velocity": 115, "channel": 0}, {"type": "note_off", "time": 193, "note": 67, "velocity": 115, "channel": 0}, {"type": "note_on", "time": 10, "note": 65, "velocity": 113, "channel": 0}, {"type": "note_off", "time": 196, "note": 65, "velocity": 113, "channel": 0}, {"type": "note_on", "time": 49, "note": 64, "velocity": 116, "channel": 0}, {"type": "note_off", "time": 161, "note": 64, "velocity": 116, "channel": 0}, {"type": "note_on", "time": 46, "note": 63, "velocity": 117, "channel": 0}, {"type": "note_off", "time": 150, "note": 63, "velocity": 117, "channel": 0}, {"type": "note_on", "time": 69, "note": 62, "velocity": 117, "channel": 0}, {"type": "note_off", "time": 219, "note": 62, "velocity": 117, "channel": 0}, {"type": "note_on", "time": 23, "note": 60, "velocity": 101, "channel": 0}, {"type": "note_off", "time": 219, "note": 60, "velocity": 101, "channel": 0}, {"type": "note_on", "time": 57, "note": 59, "velocity": 107, "channel": 0}, {"type": "note_off", "time": 207, "note": 59, "velocity": 107, "channel": 0}, {"type": "note_on", "time": 23, "note": 58, "velocity": 104, "channel": 0}, {"type": "note_off", "time": 196, "note": 58, "velocity": 104, "channel": 0}, {"type": "note_on", "time": 34, "note": 57, "velocity": 110, "channel": 0}, {"type": "note_off", "time": 161, "note": 57, "velocity": 110, "channel": 0}, {"type": "note_on", "time": 46, "note": 56, "velocity": 108, "channel": 0}, {"type": "note_off", "time": 207, "note": 56, "velocity": 108, "channel": 0}, {"type": "note_on", "time": 0, "note": 57, "velocity": 106, "channel": 0}, {"type": "note_off", "time": 184, "note": 57, "velocity": 106, "channel": 0}, {"type": "note_on", "time": 33, "note": 60, "velocity": 102, "channel": 0}, {"type": "note_off", "time": 161, "note": 60, "velocity": 102, "channel": 0}, {"type": "note_on", "time": 72, "note": 62, "velocity": 118, "channel": 0}, {"type": "note_off", "time": 184, "note": 62, "velocity": 118, "channel": 0}, {"type": "note_on", "time": 33, "note": 63, "velocity": 113, "channel": 0}, {"type": "note_off", "time": 473, "note": 63, "velocity": 113, "channel": 0}, {"type": "end_of_track", "time": 0}]]}