{"ticks_per_beat": 192, "tracks": [[{"type": "track_name", "name": "Melody", "time": 0}, {"type": "set_tempo", "tempo": 324324, "time": 0}, {"type": "key_signature", "key": "Eb", "time": 0}, {"type": "time_signature", "numerator": 4, "denominator": 4, "clocks_per_click": 24, "notated_32nd_notes_per_beat": 8, "time": 0}, {"type": "note_on", "time": 2762, "note": 70, "velocity": 119, "channel": 0}, {"type": "note_off", "time": 108, "note": 70, "velocity": 119, "channel": 0}, {"type": "note_on", "time": 3, "note": 68, "velocity": 114, "channel": 0}, {"type": "note_off", "time": 58, "note": 68, "velocity": 114, "channel": 0}, {"type": "note_on", "time": 56, "note": 70, "velocity": 119, "channel": 0}, {"type": "note_off", "time": 357, "note": 70, "velocity": 119, "channel": 0}, {"type": "note_on", "time": 44, "note": 63, "velocity": 112, "channel": 0}, {"type": "note_off", "time": 51, "note": 63, "velocity": 112, "channel": 0}, {"type": "note_on", "time": 3, "note": 67, "velocity": 118, "channel": 0}, {"type": "note_off", "time": 170, "note": 67, "velocity": 118, "channel": 0}, {"type": "note_on", "time": 7, "note": 68, "velocity": 118, "channel": 0}, {"type": "note_off", "time": 89, "note": 68, "velocity": 118, "channel": 0}, {"type": "note_on", "time": 32, "note": 70, "velocity": 119, "channel": 0}, {"type": "note_off", "time": 390, "note": 70, "velocity": 119, "channel": 0}, {"type": "note_on", "time": 12, "note": 63, "velocity": 117, "channel": 0}, {"type": "note_off", "time": 37, "note": 63, "velocity": 117, "channel": 0}, {"type": "note_on", "time": 9, "note": 66, "velocity": 120, "channel": 0}, {"type": "note_off", "time": 128, "note": 66, "velocity": 120, "channel": 0}, {"type": "note_on", "time": 1, "note": 63, "velocity": 110, "channel": 0}, {"type": "note_off", "time": 89, "note": 63, "velocity": 110, "channel": 0}, {"type": "note_on", "time": 4, "note": 68, "velocity": 114, "channel": 0}, {"type": "note_off", "time": 33, "note": 68, "velocity": 114, "channel": 0}, {"type": "note_on", "time": 1, "note": 66, "velocity": 109, "channel": 0}, {"type": "note_off", "time": 61, "note": 66, "velocity": 109, "channel": 0}, {"type": "note_on", "time": 16, "note": 70, "velocity": 122, "channel": 0}, {"type": "note_off", "time": 134, "note": 70, "velocity": 122, "channel": 0}, {"type": "note_on", "time": 14, "note": 63, "velocity": 119, "channel": 0}, {"type": "note_off", "time": 92, "note": 63, "velocity": 119, "channel": 0}, {"type": "note_on", "time": 308, "note": 63, "velocity": 122, "channel": 0}, {"type": "note_off", "time": 80, "note": 63, "velocity": 122, "channel": 0}, {"type": "note_on", "time": 4, "note": 67, "velocity": 114, "channel": 0}, {"type": "note_off", "time": 57, "note": 67, "velocity": 114, "channel": 0}, {"type": "note_on", "time": 3, "note": 68, "velocity": 119, "channel": 0}, {"type": "note_off", "time": 57, "note": 68, "velocity": 119, "channel": 0}, {"type": "note_on", "time": 3, "note": 67, "velocity": 118, "channel": 0}, {"type": "note_off", "time": 54, "note": 67, "velocity": 118, "channel": 0}, {"type": "note_on", "time": 12, "note": 70, "velocity": 121, "channel": 0}, {"type": "note_off", "time": 115, "note": 70, "velocity": 121, "channel": 0}, {"type": "note_on", "time": 59, "note": 70, "velocity": 118, "channel": 0}, {"type": "note_off", "time": 151, "note": 70, "velocity": 118, "channel": 0}, {"type": "note_on", "time": 6, "note": 68, "velocity": 112, "channel": 0}, {"type": "note_off", "time": 79, "note": 68, "velocity": 112, "channel": 0}, {"type": "note_on", "time": 8, "note": 67, "velocity": 114, "channel": 0}, {"type": "note_off", "time": 69, "note": 67, "velocity": 114, "channel": 0}, {"type": "note_on", "time": 3, "note": 63, "velocity": 121, "channel": 0}, {"type": "note_off", "time": 56, "note": 63, "velocity": 121, "channel": 0}, {"type": "note_on", "time": 7, "note": 67, "velocity": 111, "channel": 0}, {"type": "note_off", "time": 43, "note": 67, "velocity": 111, "channel": 0}, {"type": "note_on", "time": 15, "note": 65, "velocity": 114, "channel": 0}, {"type": "note_off", "time": 58, "note": 65, "velocity": 114, "channel": 0}, {"type": "note_on", "time": 0, "note": 61, "velocity": 113, "channel": 0}, {"type": "note_off", "time": 56, "note": 61, "velocity": 113, "channel": 0}, {"type": "note_on", "time": 3, "note": 65, "velocity": 118, "channel": 0}, {"type": "note_off", "time": 54, "note": 65, "velocity": 118, "channel": 0}, {"type": "note_on", "time": 4, "note": 63, "velocity": 119, "channel": 0}, {"type": "note_off", "time": 312, "note": 63, "velocity": 119, "channel": 0}, {"type": "note_on", "time": 34, "note": 63, "velocity": 127, "channel": 0}, {"type": "note_off", "time": 52, "note": 63, "velocity": 127, "channel": 0}, {"type": "note_on", "time": 63, "note": 68, "velocity": 116, "channel": 0}, {"type": "note_off", "time": 64, "note": 68, "velocity": 116, "channel": 0}, {"type": "note_on", "time": 8, "note": 70, "velocity": 119, "channel": 0}, {"type": "note_off", "time": 66, "note": 70, "velocity": 119, "channel": 0}, {"type": "note_on", "time": 48, "note": 72, "velocity": 119, "channel": 0}, {"type": "note_off", "time": 380, "note": 72, "velocity": 119, "channel": 0}, {"type": "note_on", "time": 16, "note": 68, "velocity": 100, "channel": 0}, {"type": "note_off", "time": 52, "note": 68, "velocity": 100, "channel": 0}, {"type": "note_on", "time": 15, "note": 73, "velocity": 118, "channel": 0}, {"type": "note_off", "time": 60, "note": 73, "velocity": 118, "channel": 0}, {"type": "note_on", "time": 9, "note": 72, "velocity": 117, "channel": 0}, {"type": "note_off", "time": 66, "note": 72, "velocity": 117, "channel": 0}, {"type": "note_on", "time": 9, "note": 68, "velocity": 107, "channel": 0}, {"type": "note_off", "time": 37, "note": 68, "velocity": 107, "channel": 0}, {"type": "note_on", "time": 5, "note": 72, "velocity": 120, "channel": 0}, {"type": "note_off", "time": 62, "note": 72, "velocity": 120, "channel": 0}, {"type": "note_on", "time": 5, "note": 68, "velocity": 110, "channel": 0}, {"type": "note_off", "time": 75, "note": 68, "velocity": 110, "channel": 0}, {"type": "note_on", "time": 6, "note": 63, "velocity": 116, "channel": 0}, {"type": "note_off", "time": 69, "note": 63, "velocity": 116, "channel": 0}, {"type": "note_on", "time": 0, "note": 68, "velocity": 113, "channel": 0}, {"type": "note_off", "time": 43, "note": 68, "velocity": 113, "channel": 0}, {"type": "note_on", "time": 3, "note": 66, "velocity": 115, "channel": 0}, {"type": "note_off", "time": 138, "note": 66, "velocity": 115, "channel": 0}, {"type": "note_on", "time": 6, "note": 63, "velocity": 119, "channel": 0}, {"type": "note_off", "time": 97, "note": 63, "velocity": 119, "channel": 0}, {"type": "note_on", "time": 303, "note": 63, "velocity": 120, "channel": 0}, {"type": "note_off", "time": 48, "note": 63, "velocity": 120, "channel": 0}, {"type": "note_on", "time": 21, "note": 67, "velocity": 111, "channel": 0}, {"type": "note_off", "time": 57, "note": 67, "velocity": 111, "channel": 0}, {"type": "note_on", "time": 8, "note": 63, "velocity": 111, "channel": 0}, {"type": "note_off", "time": 60, "note": 63, "velocity": 111, "channel": 0}, {"type": "note_on", "time": 9, "note": 67, "velocity": 117, "channel": 0}, {"type": "note_off", "time": 59, "note": 67, "velocity": 117, "channel": 0}, {"type": "note_on", "time": 2, "note": 68, "velocity": 114, "channel": 0}, {"type": "note_off", "time": 52, "note": 68, "velocity": 114, "channel": 0}, {"type": "note_on", "time": 4, "note": 67, "velocity": 103, "channel": 0}, {"type": "note_off", "time": 48, "note": 67, "velocity": 103, "channel": 0}, {"type": "note_on", "time": 3, "note": 68, "velocity": 117, "channel": 0}, {"type": "note_off", "time": 85, "note": 68, "velocity": 117, "channel": 0}, {"type": "note_on", "time": 3, "note": 70, "velocity": 122, "channel": 0}, {"type": "note_off", "time": 113, "note": 70, "velocity": 122, "channel": 0}, {"type": "note_on", "time": 4, "note": 67, "velocity": 122, "channel": 0}, {"type": "note_off", "time": 79, "note": 67, "velocity": 122, "channel": 0}, {"type": "note_on", "time": 3, "note": 63, "velocity": 121, "channel": 0}, {"type": "note_off", "time": 130, "note": 63, "velocity": 121, "channel": 0}, {"type": "note_on", "time": 11, "note": 65, "velocity": 102, "channel": 0}, {"type": "note_off", "time": 44, "note": 65, "velocity": 102, "channel": 0}, {"type": "note_on", "time": 27, "note": 67, "velocity": 101, "channel": 0}, {"type": "note_off", "time": 74, "note": 67, "velocity": 101, "channel": 0}, {"type": "note_on", "time": 23, "note": 70, "velocity": 114, "channel": 0}, {"type": "note_off", "time": 63, "note": 70, "velocity": 114, "channel": 0}, {"type": "note_on", "time": 5, "note": 75, "velocity": 115, "channel": 0}, {"type": "note_off", "time": 104, "note": 75, "velocity": 115, "channel": 0}, {"type": "note_on", "time": 51, "note": 82, "velocity": 117, "channel": 0}, {"type": "note_off", "time": 42, "note": 82, "velocity": 117, "channel": 0}, {"type": "note_on", "time": 17, "note": 70, "velocity": 120, "channel": 0}, {"type": "note_off", "time": 98, "note": 70, "velocity": 120, "channel": 0}, {"type": "note_on", "time": 30, "note": 74, "velocity": 115, "channel": 0}, {"type": "note_off", "time": 60, "note": 74, "velocity": 115, "channel": 0}, {"type": "note_on", "time": 10, "note": 72, "velocity": 121, "channel": 0}, {"type": "note_off", "time": 183, "note": 72, "velocity": 121, "channel": 0}, {"type": "note_on", "time": 10, "note": 68, "velocity": 115, "channel": 0}, {"type": "note_off", "time": 91, "note": 68, "velocity": 115, "channel": 0}, {"type": "note_on", "time": 8, "note": 67, "velocity": 117, "channel": 0}, {"type": "note_off", "time": 93, "note": 67, "velocity": 117, "channel": 0}, {"type": "note_on", "time": 2, "note": 65, "velocity": 113, "channel": 0}, {"type": "note_off", "time": 93, "note": 65, "velocity": 113, "channel": 0}, {"type": "note_on", "time": 17, "note": 67, "velocity": 114, "channel": 0}, {"type": "note_off", "time": 80, "note": 67, "velocity": 114, "channel": 0}, {"type": "note_on", "time": 0, "note": 68, "velocity": 109, "channel": 0}, {"type": "note_off", "time": 97, "note": 68, "velocity": 109, "channel": 0}, {"type": "note_on", "time": 10, "note": 70, "velocity": 115, "channel": 0}, {"type": "note_off", "time": 80, "note": 70, "velocity": 115, "channel": 0}, {"type": "note_on", "time": 13, "note": 68, "velocity": 110, "channel": 0}, {"type": "note_off", "time": 91, "note": 68, "velocity": 110, "channel": 0}, {"type": "note_on", "time": 3, "note": 66, "velocity": 116, "channel": 0}, {"type": "note_off", "time": 65, "note": 66, "velocity": 116, "channel": 0}, {"type": "note_on", "time": 5, "note": 63, "velocity": 118, "channel": 0}, {"type": "note_off", "time": 137, "note": 63, "velocity": 118, "channel": 0}, {"type": "note_on", "time": 62, "note": 66, "velocity": 110, "channel": 0}, {"type": "note_off", "time": 293, "note": 66, "velocity": 110, "channel": 0}, {"type": "note_on", "time": 6, "note": 63, "velocity": 122, "channel": 0}, {"type": "note_off", "time": 112, "note": 63, "velocity": 122, "channel": 0}, {"type": "note_on", "time": 3, "note": 58, "velocity": 103, "channel": 0}, {"type": "note_off", "time": 68, "note": 58, "velocity": 103, "channel": 0}, {"type": "note_on", "time": 12, "note": 56, "velocity": 100, "channel": 0}, {"type": "note_off", "time": 274, "note": 56, "velocity": 100, "channel": 0}, {"type": "note_on", "time": 518, "note": 70, "velocity": 112, "channel": 0}, {"type": "note_off", "time": 42, "note": 70, "velocity": 112, "channel": 0}, {"type": "note_on", "time": 5, "note": 72, "velocity": 121, "channel": 0}, {"type": "note_off", "time": 419, "note": 72, "velocity": 121, "channel": 0}, {"type": "note_on", "time": 30, "note": 72, "velocity": 119, "channel": 0}, {"type": "note_off", "time": 98, "note": 72, "velocity": 119, "channel": 0}, {"type": "note_on", "time": 66, "note": 72, "velocity": 120, "channel": 0}, {"type": "note_off", "time": 28, "note": 72, "velocity": 120, "channel": 0}, {"type": "note_on", "time": 12, "note": 71, "velocity": 117, "channel": 0}, {"type": "note_off", "time": 24, "note": 71, "velocity": 117, "channel": 0}, {"type": "note_on", "time": 4, "note": 70, "velocity": 115, "channel": 0}, {"type": "note_off", "time": 408, "note": 70, "velocity": 115, "channel": 0}, {"type": "note_on", "time": 9, "note": 63, "velocity": 105, "channel": 0}, {"type": "note_off", "time": 79, "note": 63, "velocity": 105, "channel": 0}, {"type": "note_on", "time": 10, "note": 70, "velocity": 115, "channel": 0}, {"type": "note_off", "time": 75, "note": 70, "velocity": 115, "channel": 0}, {"type": "note_on", "time": 53, "note": 77, "velocity": 95, "channel": 0}, {"type": "note_off", "time": 91, "note": 77, "velocity": 95, "channel": 0}, {"type": "note_on", "time": 22, "note": 77, "velocity": 102, "channel": 0}, {"type": "note_off", "time": 109, "note": 77, "velocity": 102, "channel": 0}, {"type": "note_on", "time": 10, "note": 78, "velocity": 91, "channel": 0}, {"type": "note_off", "time": 59, "note": 78, "velocity": 91, "channel": 0}, {"type": "note_on", "time": 0, "note": 79, "velocity": 107, "channel": 0}, {"type": "note_off", "time": 32, "note": 79, "velocity": 107, "channel": 0}, {"type": "note_on", "time": 10, "note": 80, "velocity": 102, "channel": 0}, {"type": "note_off", "time": 57, "note": 80, "velocity": 102, "channel": 0}, {"type": "note_on", "time": 21, "note": 72, "velocity": 112, "channel": 0}, {"type": "note_off", "time": 85, "note": 72, "velocity": 112, "channel": 0}, {"type": "note_on", "time": 4, "note": 68, "velocity": 114, "channel": 0}, {"type": "note_off", "time": 84, "note": 68, "velocity": 114, "channel": 0}, {"type": "note_on", "time": 2, "note": 66, "velocity": 115, "channel": 0}, {"type": "note_off", "time": 102, "note": 66, "velocity": 115, "channel": 0}, {"type": "note_on", "time": 619, "note": 76, "velocity": 119, "channel": 0}, {"type": "note_off", "time": 28, "note": 76, "velocity": 119, "channel": 0}, {"type": "note_on", "time": 4, "note": 77, "velocity": 110, "channel": 0}, {"type": "note_off", "time": 146, "note": 77, "velocity": 110, "channel": 0}, {"type": "note_on", "time": 33, "note": 75, "velocity": 114, "channel": 0}, {"type": "note_off", "time": 70, "note": 75, "velocity": 114, "channel": 0}, {"type": "note_on", "time": 3, "note": 73, "velocity": 114, "channel": 0}, {"type": "note_off", "time": 100, "note": 73, "velocity": 114, "channel": 0}, {"type": "note_on", "time": 10, "note": 73, "velocity": 111, "channel": 0}, {"type": "note_off", "time": 70, "note": 73, "velocity": 111, "channel": 0}, {"type": "note_on", "time": 11, "note": 72, "velocity": 114, "channel": 0}, {"type": "note_off", "time": 93, "note": 72, "velocity": 114, "channel": 0}, {"type": "note_on", "time": 40, "note": 75, "velocity": 108, "channel": 0}, {"type": "note_off", "time": 76, "note": 75, "velocity": 108, "channel": 0}, {"type": "note_on", "time": 13, "note": 70, "velocity": 117, "channel": 0}, {"type": "note_off", "time": 69, "note": 70, "velocity": 117, "channel": 0}, {"type": "note_on", "time": 15, "note": 66, "velocity": 121, "channel": 0}, {"type": "note_off", "time": 48, "note": 66, "velocity": 121, "channel": 0}, {"type": "note_on", "time": 4, "note": 63, "velocity": 120, "channel": 0}, {"type": "note_off", "time": 73, "note": 63, "velocity": 120, "channel": 0}, {"type": "note_on", "time": 82, "note": 72, "velocity": 113, "channel": 0}, {"type": "note_off", "time": 21, "note": 72, "velocity": 113, "channel": 0}, {"type": "note_on", "time": 1, "note": 74, "velocity": 111, "channel": 0}, {"type": "note_off", "time": 78, "note": 74, "velocity": 111, "channel": 0}, {"type": "note_on", "time": 12, "note": 72, "velocity": 115, "channel": 0}, {"type": "note_off", "time": 138, "note": 72, "velocity": 115, "channel": 0}, {"type": "note_on", "time": 6, "note": 70, "velocity": 114, "channel": 0}, {"type": "note_off", "time": 88, "note": 70, "velocity": 114, "channel": 0}, {"type": "note_on", "time": 29, "note": 69, "velocity": 111, "channel": 0}, {"type": "note_off", "time": 108, "note": 69, "velocity": 111, "channel": 0}, {"type": "note_on", "time": 14, "note": 68, "velocity": 113, "channel": 0}, {"type": "note_off", "time": 51, "note": 68, "velocity": 113, "channel": 0}, {"type": "note_on", "time": 13, "note": 68, "velocity": 115, "channel": 0}, {"type": "note_off", "time": 15, "note": 68, "velocity": 115, "channel": 0}, {"type": "note_on", "time": 3, "note": 67, "velocity": 115, "channel": 0}, {"type": "note_off", "time": 45, "note": 67, "velocity": 115, "channel": 0}, {"type": "note_on", "time": 4, "note": 66, "velocity": 114, "channel": 0}, {"type": "note_off", "time": 94, "note": 66, "velocity": 114, "channel": 0}, {"type": "note_on", "time": 26, "note": 73, "velocity": 115, "channel": 0}, {"type": "note_off", "time": 94, "note": 73, "velocity": 115, "channel": 0}, {"type": "note_on", "time": 6, "note": 68, "velocity": 114, "channel": 0}, {"type": "note_off", "time": 57, "note": 68, "velocity": 114, "channel": 0}, {"type": "note_on", "time": 6, "note": 66, "velocity": 116, "channel": 0}, {"type": "note_off", "time": 80, "note": 66, "velocity": 116, "channel": 0}, {"type": "note_on", "time": 3, "note": 63, "velocity": 119, "channel": 0}, {"type": "note_off", "time": 152, "note": 63, "velocity": 119, "channel": 0}, {"type": "note_on", "time": 11, "note": 58, "velocity": 94, "channel": 0}, {"type": "note_off", "time": 26, "note": 58, "velocity": 94, "channel": 0}, {"type": "note_on", "time": 10, "note": 65, "velocity": 115, "channel": 0}, {"type": "note_off", "time": 35, "note": 65, "velocity": 115, "channel": 0}, {"type": "note_on", "time": 6, "note": 66, "velocity": 111, "channel": 0}, {"type": "note_off", "time": 155, "note": 66, "velocity": 111, "channel": 0}, {"type": "note_on", "time": 8, "note": 65, "velocity": 113, "channel": 0}, {"type": "note_off", "time": 38, "note": 65, "velocity": 113, "channel": 0}, {"type": "note_on", "time": 6, "note": 66, "velocity": 112, "channel": 0}, {"type": "note_off", "time": 82, "note": 66, "velocity": 112, "channel": 0}, {"type": "note_on", "time": 3, "note": 63, "velocity": 114, "channel": 0}, {"type": "note_off", "time": 433, "note": 63, "velocity": 114, "channel": 0}, {"type": "note_on", "time": 16, "note": 58, "velocity": 107, "channel": 0}, {"type": "note_off", "time": 131, "note": 58, "velocity": 107, "channel": 0}, {"type": "note_on", "time": 16, "note": 55, "velocity": 104, "channel": 0}, {"type": "note_off", "time": 184, "note": 55, "velocity": 104, "channel": 0}, {"type": "note_on", "time": 586, "note": 56, "velocity": 119, "channel": 0}, {"type": "note_off", "time": 91, "note": 56, "velocity": 119, "channel": 0}, {"type": "note_on", "time": 6, "note": 55, "velocity": 112, "channel": 0}, {"type": "note_off", "time": 86, "note": 55, "velocity": 112, "channel": 0}, {"type": "note_on", "time": 6, "note": 54, "velocity": 110, "channel": 0}, {"type": "note_off", "time": 97, "note": 54, "velocity": 110, "channel": 0}, {"type": "note_on", "time": 3, "note": 53, "velocity": 122, "channel": 0}, {"type": "note_off", "time": 84, "note": 53, "velocity": 122, "channel": 0}, {"type": "note_on", "time": 5, "note": 52, "velocity": 113, "channel": 0}, {"type": "note_off", "time": 72, "note": 52, "velocity": 113, "channel": 0}, {"type": "note_on", "time": 7, "note": 51, "velocity": 110, "channel": 0}, {"type": "note_off", "time": 107, "note": 51, "velocity": 110, "channel": 0}, {"type": "note_on", "time": 8, "note": 53, "velocity": 112, "channel": 0}, {"type": "note_off", "time": 91, "note": 53, "velocity": 112, "channel": 0}, {"type": "note_on", "time": 12, "note": 50, "velocity": 109, "channel": 0}, {"type": "note_off", "time": 85, "note": 50, "velocity": 109, "channel": 0}, {"type": "note_on", "time": 25, "note": 53, "velocity": 105, "channel": 0}, {"type": "note_off", "time": 48, "note": 53, "velocity": 105, "channel": 0}, {"type": "note_on", "time": 5, "note": 58, "velocity": 109, "channel": 0}, {"type": "note_off", "time": 106, "note": 58, "velocity": 109, "channel": 0}, {"type": "note_on", "time": 15, "note": 62, "velocity": 116, "channel": 0}, {"type": "note_off", "time": 80, "note": 62, "velocity": 116, "channel": 0}, {"type": "note_on", "time": 11, "note": 60, "velocity": 108, "channel": 0}, {"type": "note_off", "time": 88, "note": 60, "velocity": 108, "channel": 0}, {"type": "note_on", "time": 31, "note": 63, "velocity": 121, "channel": 0}, {"type": "note_off", "time": 54, "note": 63, "velocity": 121, "channel": 0}, {"type": "note_on", "time": 7, "note": 68, "velocity": 115, "channel": 0}, {"type": "note_off", "time": 110, "note": 68, "velocity": 115, "channel": 0}, {"type": "note_on", "time": 24, "note": 72, "velocity": 102, "channel": 0}, {"type": "note_off", "time": 42, "note": 72, "velocity": 102, "channel": 0}, {"type": "note_on", "time": 40, "note": 75, "velocity": 112, "channel": 0}, {"type": "note_off", "time": 80, "note": 75, "velocity": 112, "channel": 0}, {"type": "note_on", "time": 0, "note": 70, "velocity": 120, "channel": 0}, {"type": "note_off", "time": 151, "note": 70, "velocity": 120, "channel": 0}, {"type": "note_on", "time": 615, "note": 70, "velocity": 121, "channel": 0}, {"type": "note_off", "time": 80, "note": 70, "velocity": 121, "channel": 0}, {"type": "note_on", "time": 84, "note": 75, "velocity": 107, "channel": 0}, {"type": "note_off", "time": 54, "note": 75, "velocity": 107, "channel": 0}, {"type": "note_on", "time": 9, "note": 73, "velocity": 103, "channel": 0}, {"type": "note_off", "time": 94, "note": 73, "velocity": 103, "channel": 0}, {"type": "note_on", "time": 33, "note": 75, "velocity": 110, "channel": 0}, {"type": "note_off", "time": 91, "note": 75, "velocity": 110, "channel": 0}, {"type": "note_on", "time": 8, "note": 73, "velocity": 113, "channel": 0}, {"type": "note_off", "time": 88, "note": 73, "velocity": 113, "channel": 0}, {"type": "note_on", "time": 48, "note": 74, "velocity": 90, "channel": 0}, {"type": "note_off", "time": 125, "note": 74, "velocity": 90, "channel": 0}, {"type": "note_on", "time": 7, "note": 75, "velocity": 106, "channel": 0}, {"type": "note_off", "time": 105, "note": 75, "velocity": 106, "channel": 0}, {"type": "note_on", "time": 8, "note": 73, "velocity": 112, "channel": 0}, {"type": "note_off", "time": 90, "note": 73, "velocity": 112, "channel": 0}, {"type": "note_on", "time": 43, "note": 75, "velocity": 105, "channel": 0}, {"type": "note_off", "time": 52, "note": 75, "velocity": 105, "channel": 0}, {"type": "note_on", "time": 4, "note": 73, "velocity": 116, "channel": 0}, {"type": "note_off", "time": 122, "note": 73, "velocity": 116, "channel": 0}, {"type": "note_on", "time": 14, "note": 72, "velocity": 104, "channel": 0}, {"type": "note_off", "time": 57, "note": 72, "velocity": 104, "channel": 0}, {"type": "note_on", "time": 18, "note": 72, "velocity": 115, "channel": 0}, {"type": "note_off", "time": 95, "note": 72, "velocity": 115, "channel": 0}, {"type": "note_on", "time": 21, "note": 73, "velocity": 114, "channel": 0}, {"type": "note_off", "time": 60, "note": 73, "velocity": 114, "channel": 0}, {"type": "note_on", "time": 6, "note": 70, "velocity": 116, "channel": 0}, {"type": "note_off", "time": 109, "note": 70, "velocity": 116, "channel": 0}, {"type": "note_on", "time": 8, "note": 69, "velocity": 115, "channel": 0}, {"type": "note_off", "time": 18, "note": 69, "velocity": 115, "channel": 0}, {"type": "note_on", "time": 9, "note": 63, "velocity": 120, "channel": 0}, {"type": "note_off", "time": 94, "note": 63, "velocity": 120, "channel": 0}, {"type": "note_on", "time": 66, "note": 70, "velocity": 118, "channel": 0}, {"type": "note_off", "time": 94, "note": 70, "velocity": 118, "channel": 0}, {"type": "note_on", "time": 6, "note": 68, "velocity": 113, "channel": 0}, {"type": "note_off", "time": 74, "note": 68, "velocity": 113, "channel": 0}, {"type": "note_on", "time": 5, "note": 66, "velocity": 118, "channel": 0}, {"type": "note_off", "time": 67, "note": 66, "velocity": 118, "channel": 0}, {"type": "note_on", "time": 9, "note": 63, "velocity": 120, "channel": 0}, {"type": "note_off", "time": 124, "note": 63, "velocity": 120, "channel": 0}, {"type": "note_on", "time": 23, "note": 58, "velocity": 97, "channel": 0}, {"type": "note_off", "time": 25, "note": 58, "velocity": 97, "channel": 0}, {"type": "note_on", "time": 8, "note": 66, "velocity": 115, "channel": 0}, {"type": "note_off", "time": 120, "note": 66, "velocity": 115, "channel": 0}, {"type": "note_on", "time": 8, "note": 63, "velocity": 120, "channel": 0}, {"type": "note_off", "time": 111, "note": 63, "velocity": 120, "channel": 0}, {"type": "note_on", "time": 67, "note": 68, "velocity": 116, "channel": 0}, {"type": "note_off", "time": 60, "note": 68, "velocity": 116, "channel": 0}, {"type": "note_on", "time": 4, "note": 67, "velocity": 112, "channel": 0}, {"type": "note_off", "time": 124, "note": 67, "velocity": 112, "channel": 0}, {"type": "note_on", "time": 12, "note": 63, "velocity": 118, "channel": 0}, {"type": "note_off", "time": 69, "note": 63, "velocity": 118, "channel": 0}, {"type": "note_on", "time": 3, "note": 61, "velocity": 115, "channel": 0}, {"type": "note_off", "time": 118, "note": 61, "velocity": 115, "channel": 0}, {"type": "note_on", "time": 18, "note": 58, "velocity": 89, "channel": 0}, {"type": "note_off", "time": 34, "note": 58, "velocity": 89, "channel": 0}, {"type": "note_on", "time": 14, "note": 64, "velocity": 113, "channel": 0}, {"type": "note_off", "time": 169, "note": 64, "velocity": 113, "channel": 0}, {"type": "note_on", "time": 17, "note": 66, "velocity": 111, "channel": 0}, {"type": "note_off", "time": 134, "note": 66, "velocity": 111, "channel": 0}, {"type": "note_on", "time": 3, "note": 61, "velocity": 117, "channel": 0}, {"type": "note_off", "time": 256, "note": 61, "velocity": 117, "channel": 0}, {"type": "note_on", "time": 6, "note": 59, "velocity": 104, "channel": 0}, {"type": "note_off", "time": 134, "note": 59, "velocity": 104, "channel": 0}, {"type": "note_on", "time": 6, "note": 55, "velocity": 103, "channel": 0}, {"type": "note_off", "time": 103, "note": 55, "velocity": 103, "channel": 0}, {"type": "note_on", "time": 445, "note": 63, "velocity": 118, "channel": 0}, {"type": "note_off", "time": 79, "note": 63, "velocity": 118, "channel": 0}, {"type": "note_on", "time": 10, "note": 68, "velocity": 111, "channel": 0}, {"type": "note_off", "time": 120, "note": 68, "velocity": 111, "channel": 0}, {"type": "note_on", "time": 0, "note": 70, "velocity": 104, "channel": 0}, {"type": "note_off", "time": 46, "note": 70, "velocity": 104, "channel": 0}, {"type": "note_on", "time": 4, "note": 72, "velocity": 120, "channel": 0}, {"type": "note_off", "time": 108, "note": 72, "velocity": 120, "channel": 0}, {"type": "note_on", "time": 8, "note": 70, "velocity": 108, "channel": 0}, {"type": "note_off", "time": 75, "note": 70, "velocity": 108, "channel": 0}, {"type": "note_on", "time": 8, "note": 72, "velocity": 117, "channel": 0}, {"type": "note_off", "time": 103, "note": 72, "velocity": 117, "channel": 0}, {"type": "note_on", "time": 6, "note": 71, "velocity": 115, "channel": 0}, {"type": "note_off", "time": 45, "note": 71, "velocity": 115, "channel": 0}, {"type": "note_on", "time": 3, "note": 72, "velocity": 118, "channel": 0}, {"type": "note_off", "time": 348, "note": 72, "velocity": 118, "channel": 0}, {"type": "note_on", "time": 8, "note": 70, "velocity": 117, "channel": 0}, {"type": "note_off", "time": 76, "note": 70, "velocity": 117, "channel": 0}, {"type": "note_on", "time": 8, "note": 68, "velocity": 115, "channel": 0}, {"type": "note_off", "time": 95, "note": 68, "velocity": 115, "channel": 0}, {"type": "note_on", "time": 7, "note": 63, "velocity": 120, "channel": 0}, {"type": "note_off", "time": 109, "note": 63, "velocity": 120, "channel": 0}, {"type": "note_on", "time": 471, "note": 67, "velocity": 117, "channel": 0}, {"type": "note_off", "time": 77, "note": 67, "velocity": 117, "channel": 0}, {"type": "note_on", "time": 12, "note": 67, "velocity": 114, "channel": 0}, {"type": "note_off", "time": 75, "note": 67, "velocity": 114, "channel": 0}, {"type": "note_on", "time": 16, "note": 63, "velocity": 117, "channel": 0}, {"type": "note_off", "time": 79, "note": 63, "velocity": 117, "channel": 0}, {"type": "note_on", "time": 9, "note": 61, "velocity": 115, "channel": 0}, {"type": "note_off", "time": 93, "note": 61, "velocity": 115, "channel": 0}, {"type": "note_on", "time": 25, "note": 58, "velocity": 92, "channel": 0}, {"type": "note_off", "time": 47, "note": 58, "velocity": 92, "channel": 0}, {"type": "note_on", "time": 10, "note": 62, "velocity": 117, "channel": 0}, {"type": "note_off", "time": 91, "note": 62, "velocity": 117, "channel": 0}, {"type": "note_on", "time": 11, "note": 61, "velocity": 116, "channel": 0}, {"type": "note_off", "time": 58, "note": 61, "velocity": 116, "channel": 0}, {"type": "note_on", "time": 10, "note": 56, "velocity": 107, "channel": 0}, {"type": "note_off", "time": 140, "note": 56, "velocity": 107, "channel": 0}, {"type": "note_on", "time": 6, "note": 52, "velocity": 89, "channel": 0}, {"type": "note_off", "time": 40, "note": 52, "velocity": 89, "channel": 0}, {"type": "note_on", "time": 6, "note": 57, "velocity": 107, "channel": 0}, {"type": "note_off", "time": 292, "note": 57, "velocity": 107, "channel": 0}, {"type": "note_on", "time": 110, "note": 58, "velocity": 112, "channel": 0}, {"type": "note_off", "time": 97, "note": 58, "velocity": 112, "channel": 0}, {"type": "note_on", "time": 16, "note": 60, "velocity": 115, "channel": 0}, {"type": "note_off", "time": 60, "note": 60, "velocity": 115, "channel": 0}, {"type": "note_on", "time": 11, "note": 62, "velocity": 114, "channel": 0}, {"type": "note_off", "time": 97, "note": 62, "velocity": 114, "channel": 0}, {"type": "note_on", "time": 0, "note": 64, "velocity": 112, "channel": 0}, {"type": "note_off", "time": 123, "note": 64, "velocity": 112, "channel": 0}, {"type": "note_on", "time": 4, "note": 65, "velocity": 113, "channel": 0}, {"type": "note_off", "time": 89, "note": 65, "velocity": 113, "channel": 0}, {"type": "note_on", "time": 4, "note": 67, "velocity": 113, "channel": 0}, {"type": "note_off", "time": 76, "note": 67, "velocity": 113, "channel": 0}, {"type": "note_on", "time": 5, "note": 68, "velocity": 115, "channel": 0}, {"type": "note_off", "time": 80, "note": 68, "velocity": 115, "channel": 0}, {"type": "note_on", "time": 30, "note": 70, "velocity": 119, "channel": 0}, {"type": "note_off", "time": 54, "note": 70, "velocity": 119, "channel": 0}, {"type": "note_on", "time": 4, "note": 67, "velocity": 114, "channel": 0}, {"type": "note_off", "time": 93, "note": 67, "velocity": 114, "channel": 0}, {"type": "note_on", "time": 24, "note": 63, "velocity": 120, "channel": 0}, {"type": "note_off", "time": 67, "note": 63, "velocity": 120, "channel": 0}, {"type": "note_on", "time": 9, "note": 60, "velocity": 113, "channel": 0}, {"type": "note_off", "time": 113, "note": 60, "velocity": 113, "channel": 0}, {"type": "note_on", "time": 9, "note": 58, "velocity": 86, "channel": 0}, {"type": "note_off", "time": 39, "note": 58, "velocity": 86, "channel": 0}, {"type": "note_on", "time": 7, "note": 65, "velocity": 112, "channel": 0}, {"type": "note_off", "time": 351, "note": 65, "velocity": 112, "channel": 0}, {"type": "note_on", "time": 9, "note": 63, "velocity": 106, "channel": 0}, {"type": "note_off", "time": 39, "note": 63, "velocity": 106, "channel": 0}, {"type": "note_on", "time": 4, "note": 65, "velocity": 105, "channel": 0}, {"type": "note_off", "time": 31, "note": 65, "velocity": 105, "channel": 0}, {"type": "note_on", "time": 5, "note": 67, "velocity": 108, "channel": 0}, {"type": "note_off", "time": 72, "note": 67, "velocity": 108, "channel": 0}, {"type": "note_on", "time": 2, "note": 63, "velocity": 119, "channel": 0}, {"type": "note_off", "time": 113, "note": 63, "velocity": 119, "channel": 0}, {"type": "note_on", "time": 6, "note": 63, "velocity": 118, "channel": 0}, {"type": "note_off", "time": 111, "note": 63, "velocity": 118, "channel": 0}, {"type": "note_on", "time": 7, "note": 63, "velocity": 116, "channel": 0}, {"type": "note_off", "time": 154, "note": 63, "velocity": 116, "channel": 0}, {"type": "note_on", "time": 7, "note": 62, "velocity": 107, "channel": 0}, {"type": "note_off", "time": 28, "note": 62, "velocity": 107, "channel": 0}, {"type": "note_on", "time": 7, "note": 61, "velocity": 100, "channel": 0}, {"type": "note_off", "time": 35, "note": 61, "velocity": 100, "channel": 0}, {"type": "note_on", "time": 660, "note": 63, "velocity": 120, "channel": 0}, {"type": "note_off", "time": 186, "note": 63, "velocity": 120, "channel": 0}, {"type": "note_on", "time": 9, "note": 61, "velocity": 116, "channel": 0}, {"type": "note_off", "time": 84, "note": 61, "velocity": 116, "channel": 0}, {"type": "note_on", "time": 7, "note": 58, "velocity": 105, "channel": 0}, {"type": "note_off", "time": 86, "note": 58, "velocity": 105, "channel": 0}, {"type": "note_on", "time": 8, "note": 61, "velocity": 116, "channel": 0}, {"type": "note_off", "time": 76, "note": 61, "velocity": 116, "channel": 0}, {"type": "note_on", "time": 46, "note": 65, "velocity": 94, "channel": 0}, {"type": "note_off", "time": 43, "note": 65, "velocity": 94, "channel": 0}, {"type": "note_on", "time": 7, "note": 67, "velocity": 102, "channel": 0}, {"type": "note_off", "time": 74, "note": 67, "velocity": 102, "channel": 0}, {"type": "note_on", "time": 19, "note": 72, "velocity": 118, "channel": 0}, {"type": "note_off", "time": 103, "note": 72, "velocity": 118, "channel": 0}, {"type": "note_on", "time": 10, "note": 70, "velocity": 112, "channel": 0}, {"type": "note_off", "time": 55, "note": 70, "velocity": 112, "channel": 0}, {"type": "note_on", "time": 6, "note": 72, "velocity": 120, "channel": 0}, {"type": "note_off", "time": 489, "note": 72, "velocity": 120, "channel": 0}, {"type": "note_on", "time": 14, "note": 70, "velocity": 115, "channel": 0}, {"type": "note_off", "time": 81, "note": 70, "velocity": 115, "channel": 0}, {"type": "note_on", "time": 12, "note": 68, "velocity": 111, "channel": 0}, {"type": "note_off", "time": 97, "note": 68, "velocity": 111, "channel": 0}, {"type": "note_on", "time": 7, "note": 63, "velocity": 116, "channel": 0}, {"type": "note_off", "time": 114, "note": 63, "velocity": 116, "channel": 0}, {"type": "note_on", "time": 448, "note": 71, "velocity": 116, "channel": 0}, {"type": "note_off", "time": 48, "note": 71, "velocity": 116, "channel": 0}, {"type": "note_on", "time": 5, "note": 72, "velocity": 119, "channel": 0}, {"type": "note_off", "time": 207, "note": 72, "velocity": 119, "channel": 0}, {"type": "note_on", "time": 9, "note": 70, "velocity": 115, "channel": 0}, {"type": "note_off", "time": 90, "note": 70, "velocity": 115, "channel": 0}, {"type": "note_on", "time": 31, "note": 68, "velocity": 114, "channel": 0}, {"type": "note_off", "time": 57, "note": 68, "velocity": 114, "channel": 0}, {"type": "note_on", "time": 3, "note": 67, "velocity": 113, "channel": 0}, {"type": "note_off", "time": 95, "note": 67, "velocity": 113, "channel": 0}, {"type": "note_on", "time": 14, "note": 63, "velocity": 115, "channel": 0}, {"type": "note_off", "time": 51, "note": 63, "velocity": 115, "channel": 0}, {"type": "note_on", "time": 11, "note": 61, "velocity": 116, "channel": 0}, {"type": "note_off", "time": 133, "note": 61, "velocity": 116, "channel": 0}, {"type": "note_on", "time": 15, "note": 58, "velocity": 96, "channel": 0}, {"type": "note_off", "time": 41, "note": 58, "velocity": 96, "channel": 0}, {"type": "note_on", "time": 3, "note": 63, "velocity": 120, "channel": 0}, {"type": "note_off", "time": 73, "note": 63, "velocity": 120, "channel": 0}, {"type": "note_on", "time": 8, "note": 70, "velocity": 79, "channel": 0}, {"type": "note_off", "time": 30, "note": 70, "velocity": 79, "channel": 0}, {"type": "note_on", "time": 25, "note": 77, "velocity": 105, "channel": 0}, {"type": "note_off", "time": 98, "note": 77, "velocity": 105, "channel": 0}, {"type": "note_on", "time": 7, "note": 75, "velocity": 116, "channel": 0}, {"type": "note_off", "time": 111, "note": 75, "velocity": 116, "channel": 0}, {"type": "note_on", "time": 343, "note": 77, "velocity": 98, "channel": 0}, {"type": "note_off", "time": 41, "note": 77, "velocity": 98, "channel": 0}, {"type": "note_on", "time": 14, "note": 81, "velocity": 102, "channel": 0}, {"type": "note_off", "time": 39, "note": 81, "velocity": 102, "channel": 0}, {"type": "note_on", "time": 0, "note": 80, "velocity": 113, "channel": 0}, {"type": "note_off", "time": 53, "note": 80, "velocity": 113, "channel": 0}, {"type": "note_on", "time": 10, "note": 74, "velocity": 104, "channel": 0}, {"type": "note_off", "time": 65, "note": 74, "velocity": 104, "channel": 0}, {"type": "note_on", "time": 6, "note": 68, "velocity": 111, "channel": 0}, {"type": "note_off", "time": 126, "note": 68, "velocity": 111, "channel": 0}, {"type": "note_on", "time": 394, "note": 73, "velocity": 113, "channel": 0}, {"type": "note_off", "time": 77, "note": 73, "velocity": 113, "channel": 0}, {"type": "note_on", "time": 3, "note": 72, "velocity": 114, "channel": 0}, {"type": "note_off", "time": 94, "note": 72, "velocity": 114, "channel": 0}, {"type": "note_on", "time": 15, "note": 68, "velocity": 40, "channel": 0}, {"type": "note_off", "time": 68, "note": 68, "velocity": 40, "channel": 0}, {"type": "note_on", "time": 1, "note": 66, "velocity": 117, "channel": 0}, {"type": "note_off", "time": 92, "note": 66, "velocity": 117, "channel": 0}, {"type": "note_on", "time": 401, "note": 71, "velocity": 113, "channel": 0}, {"type": "note_off", "time": 68, "note": 71, "velocity": 113, "channel": 0}, {"type": "note_on", "time": 3, "note": 72, "velocity": 116, "channel": 0}, {"type": "note_off", "time": 195, "note": 72, "velocity": 116, "channel": 0}, {"type": "note_on", "time": 13, "note": 70, "velocity": 112, "channel": 0}, {"type": "note_off", "time": 92, "note": 70, "velocity": 112, "channel": 0}, {"type": "note_on", "time": 12, "note": 68, "velocity": 115, "channel": 0}, {"type": "note_off", "time": 83, "note": 68, "velocity": 115, "channel": 0}, {"type": "note_on", "time": 9, "note": 67, "velocity": 112, "channel": 0}, {"type": "note_off", "time": 107, "note": 67, "velocity": 112, "channel": 0}, {"type": "note_on", "time": 1, "note": 70, "velocity": 107, "channel": 0}, {"type": "note_off", "time": 65, "note": 70, "velocity": 107, "channel": 0}, {"type": "note_on", "time": 15, "note": 75, "velocity": 112, "channel": 0}, {"type": "note_off", "time": 71, "note": 75, "velocity": 112, "channel": 0}, {"type": "note_on", "time": 13, "note": 79, "velocity": 103, "channel": 0}, {"type": "note_off", "time": 45, "note": 79, "velocity": 103, "channel": 0}, {"type": "note_on", "time": 7, "note": 80, "velocity": 113, "channel": 0}, {"type": "note_off", "time": 45, "note": 80, "velocity": 113, "channel": 0}, {"type": "note_on", "time": 9, "note": 79, "velocity": 113, "channel": 0}, {"type": "note_off", "time": 42, "note": 79, "velocity": 113, "channel": 0}, {"type": "note_on", "time": 6, "note": 80, "velocity": 105, "channel": 0}, {"type": "note_off", "time": 24, "note": 80, "velocity": 105, "channel": 0}, {"type": "note_on", "time": 3, "note": 74, "velocity": 105, "channel": 0}, {"type": "note_off", "time": 53, "note": 74, "velocity": 105, "channel": 0}, {"type": "note_on", "time": 5, "note": 75, "velocity": 114, "channel": 0}, {"type": "note_off", "time": 103, "note": 75, "velocity": 114, "channel": 0}, {"type": "note_on", "time": 321, "note": 77, "velocity": 100, "channel": 0}, {"type": "note_off", "time": 105, "note": 77, "velocity": 100, "channel": 0}, {"type": "note_on", "time": 14, "note": 74, "velocity": 111, "channel": 0}, {"type": "note_off", "time": 36, "note": 74, "velocity": 111, "channel": 0}, {"type": "note_on", "time": 3, "note": 72, "velocity": 114, "channel": 0}, {"type": "note_off", "time": 47, "note": 72, "velocity": 114, "channel": 0}, {"type": "note_on", "time": 9, "note": 70, "velocity": 118, "channel": 0}, {"type": "note_off", "time": 93, "note": 70, "velocity": 118, "channel": 0}, {"type": "note_on", "time": 27, "note": 65, "velocity": 100, "channel": 0}, {"type": "note_off", "time": 54, "note": 65, "velocity": 100, "channel": 0}, {"type": "note_on", "time": 4, "note": 70, "velocity": 121, "channel": 0}, {"type": "note_off", "time": 102, "note": 70, "velocity": 121, "channel": 0}, {"type": "note_on", "time": 26, "note": 75, "velocity": 106, "channel": 0}, {"type": "note_off", "time": 33, "note": 75, "velocity": 106, "channel": 0}, {"type": "note_on", "time": 3, "note": 74, "velocity": 110, "channel": 0}, {"type": "note_off", "time": 27, "note": 74, "velocity": 110, "channel": 0}, {"type": "note_on", "time": 9, "note": 73, "velocity": 113, "channel": 0}, {"type": "note_off", "time": 38, "note": 73, "velocity": 113, "channel": 0}, {"type": "note_on", "time": 6, "note": 72, "velocity": 116, "channel": 0}, {"type": "note_off", "time": 135, "note": 72, "velocity": 116, "channel": 0}, {"type": "note_on", "time": 10, "note": 68, "velocity": 116, "channel": 0}, {"type": "note_off", "time": 101, "note": 68, "velocity": 116, "channel": 0}, {"type": "note_on", "time": 13, "note": 67, "velocity": 109, "channel": 0}, {"type": "note_off", "time": 57, "note": 67, "velocity": 109, "channel": 0}, {"type": "note_on", "time": 13, "note": 63, "velocity": 119, "channel": 0}, {"type": "note_off", "time": 356, "note": 63, "velocity": 119, "channel": 0}, {"type": "note_on", "time": 13, "note": 58, "velocity": 93, "channel": 0}, {"type": "note_off", "time": 35, "note": 58, "velocity": 93, "channel": 0}, {"type": "note_on", "time": 16, "note": 67, "velocity": 114, "channel": 0}, {"type": "note_off", "time": 160, "note": 67, "velocity": 114, "channel": 0}, {"type": "note_on", "time": 0, "note": 58, "velocity": 107, "channel": 0}, {"type": "note_off", "time": 119, "note": 58, "velocity": 107, "channel": 0}, {"type": "note_on", "time": 4, "note": 63, "velocity": 121, "channel": 0}, {"type": "note_off", "time": 164, "note": 63, "velocity": 121, "channel": 0}, {"type": "note_on", "time": 424, "note": 70, "velocity": 109, "channel": 0}, {"type": "note_off", "time": 30, "note": 70, "velocity": 109, "channel": 0}, {"type": "note_on", "time": 26, "note": 72, "velocity": 122, "channel": 0}, {"type": "note_off", "time": 458, "note": 72, "velocity": 122, "channel": 0}, {"type": "note_on", "time": 23, "note": 70, "velocity": 118, "channel": 0}, {"type": "note_off", "time": 39, "note": 70, "velocity": 118, "channel": 0}, {"type": "note_on", "time": 3, "note": 72, "velocity": 121, "channel": 0}, {"type": "note_off", "time": 68, "note": 72, "velocity": 121, "channel": 0}, {"type": "note_on", "time": 4, "note": 70, "velocity": 120, "channel": 0}, {"type": "note_off", "time": 102, "note": 70, "velocity": 120, "channel": 0}, {"type": "note_on", "time": 12, "note": 67, "velocity": 107, "channel": 0}, {"type": "note_off", "time": 37, "note": 67, "velocity": 107, "channel": 0}, {"type": "note_on", "time": 12, "note": 68, "velocity": 116, "channel": 0}, {"type": "note_off", "time": 121, "note": 68, "velocity": 116, "channel": 0}, {"type": "note_on", "time": 17, "note": 65, "velocity": 99, "channel": 0}, {"type": "note_off", "time": 37, "note": 65, "velocity": 99, "channel": 0}, {"type": "note_on", "time": 18, "note": 67, "velocity": 116, "channel": 0}, {"type": "note_off", "time": 128, "note": 67, "velocity": 116, "channel": 0}, {"type": "note_on", "time": 6, "note": 63, "velocity": 121, "channel": 0}, {"type": "note_off", "time": 56, "note": 63, "velocity": 121, "channel": 0}, {"type": "note_on", "time": 9, "note": 61, "velocity": 116, "channel": 0}, {"type": "note_off", "time": 111, "note": 61, "velocity": 116, "channel": 0}, {"type": "note_on", "time": 14, "note": 65, "velocity": 115, "channel": 0}, {"type": "note_off", "time": 59, "note": 65, "velocity": 115, "channel": 0}, {"type": "note_on", "time": 6, "note": 67, "velocity": 113, "channel": 0}, {"type": "note_off", "time": 106, "note": 67, "velocity": 113, "channel": 0}, {"type": "note_on", "time": 7, "note": 63, "velocity": 120, "channel": 0}, {"type": "note_off", "time": 75, "note": 63, "velocity": 120, "channel": 0}, {"type": "note_on", "time": 8, "note": 68, "velocity": 113, "channel": 0}, {"type": "note_off", "time": 98, "note": 68, "velocity": 113, "channel": 0}, {"type": "note_on", "time": 6, "note": 72, "velocity": 117, "channel": 0}, {"type": "note_off", "time": 60, "note": 72, "velocity": 117, "channel": 0}, {"type": "note_on", "time": 8, "note": 71, "velocity": 109, "channel": 0}, {"type": "note_off", "time": 34, "note": 71, "velocity": 109, "channel": 0}, {"type": "note_on", "time": 3, "note": 69, "velocity": 112, "channel": 0}, {"type": "note_off", "time": 84, "note": 69, "velocity": 112, "channel": 0}, {"type": "note_on", "time": 6, "note": 66, "velocity": 106, "channel": 0}, {"type": "note_off", "time": 79, "note": 66, "velocity": 106, "channel": 0}, {"type": "note_on", "time": 115, "note": 71, "velocity": 113, "channel": 0}, {"type": "note_off", "time": 86, "note": 71, "velocity": 113, "channel": 0}, {"type": "note_on", "time": 4, "note": 67, "velocity": 114, "channel": 0}, {"type": "note_off", "time": 93, "note": 67, "velocity": 114, "channel": 0}, {"type": "note_on", "time": 5, "note": 64, "velocity": 119, "channel": 0}, {"type": "note_off", "time": 64, "note": 64, "velocity": 119, "channel": 0}, {"type": "note_on", "time": 19, "note": 60, "velocity": 112, "channel": 0}, {"type": "note_off", "time": 128, "note": 60, "velocity": 112, "channel": 0}, {"type": "note_on", "time": 33, "note": 69, "velocity": 108, "channel": 0}, {"type": "note_off", "time": 120, "note": 69, "velocity": 108, "channel": 0}, {"type": "note_on", "time": 6, "note": 68, "velocity": 104, "channel": 0}, {"type": "note_off", "time": 73, "note": 68, "velocity": 104, "channel": 0}, {"type": "note_on", "time": 4, "note": 57, "velocity": 103, "channel": 0}, {"type": "note_off", "time": 137, "note": 57, "velocity": 103, "channel": 0}, {"type": "note_on", "time": 4, "note": 54, "velocity": 96, "channel": 0}, {"type": "note_off", "time": 47, "note": 54, "velocity": 96, "channel": 0}, {"type": "note_on", "time": 4, "note": 55, "velocity": 105, "channel": 0}, {"type": "note_off", "time": 115, "note": 55, "velocity": 105, "channel": 0}, {"type": "note_on", "time": 7, "note": 61, "velocity": 114, "channel": 0}, {"type": "note_off", "time": 93, "note": 61, "velocity": 114, "channel": 0}, {"type": "note_on", "time": 8, "note": 59, "velocity": 104, "channel": 0}, {"type": "note_off", "time": 80, "note": 59, "velocity": 104, "channel": 0}, {"type": "note_on", "time": 4, "note": 55, "velocity": 105, "channel": 0}, {"type": "note_off", "time": 136, "note": 55, "velocity": 105, "channel": 0}, {"type": "note_on", "time": 435, "note": 60, "velocity": 115, "channel": 0}, {"type": "note_off", "time": 54, "note": 60, "velocity": 115, "channel": 0}, {"type": "note_on", "time": 7, "note": 61, "velocity": 120, "channel": 0}, {"type": "note_off", "time": 47, "note": 61, "velocity": 120, "channel": 0}, {"type": "note_on", "time": 3, "note": 63, "velocity": 119, "channel": 0}, {"type": "note_off", "time": 103, "note": 63, "velocity": 119, "channel": 0}, {"type": "note_on", "time": 56, "note": 68, "velocity": 125, "channel": 0}, {"type": "note_off", "time": 120, "note": 68, "velocity": 125, "channel": 0}, {"type": "note_on", "time": 46, "note": 68, "velocity": 123, "channel": 0}, {"type": "note_off", "time": 99, "note": 68, "velocity": 123, "channel": 0}, {"type": "note_on", "time": 7, "note": 66, "velocity": 116, "channel": 0}, {"type": "note_off", "time": 67, "note": 66, "velocity": 116, "channel": 0}, {"type": "note_on", "time": 66, "note": 68, "velocity": 115, "channel": 0}, {"type": "note_off", "time": 250, "note": 68, "velocity": 115, "channel": 0}, {"type": "note_on", "time": 5, "note": 66, "velocity": 109, "channel": 0}, {"type": "note_off", "time": 89, "note": 66, "velocity": 109, "channel": 0}, {"type": "note_on", "time": 4, "note": 68, "velocity": 118, "channel": 0}, {"type": "note_off", "time": 92, "note": 68, "velocity": 118, "channel": 0}, {"type": "note_on", "time": 83, "note": 66, "velocity": 119, "channel": 0}, {"type": "note_off", "time": 145, "note": 66, "velocity": 119, "channel": 0}, {"type": "note_on", "time": 382, "note": 58, "velocity": 107, "channel": 0}, {"type": "note_off", "time": 32, "note": 58, "velocity": 107, "channel": 0}, {"type": "note_on", "time": 21, "note": 63, "velocity": 119, "channel": 0}, {"type": "note_off", "time": 132, "note": 63, "velocity": 119, "channel": 0}, {"type": "note_on", "time": 6, "note": 61, "velocity": 103, "channel": 0}, {"type": "note_off", "time": 48, "note": 61, "velocity": 103, "channel": 0}, {"type": "note_on", "time": 6, "note": 63, "velocity": 118, "channel": 0}, {"type": "note_off", "time": 500, "note": 63, "velocity": 118, "channel": 0}, {"type": "note_on", "time": 10, "note": 65, "velocity": 113, "channel": 0}, {"type": "note_off", "time": 70, "note": 65, "velocity": 113, "channel": 0}, {"type": "note_on", "time": 25, "note": 61, "velocity": 116, "channel": 0}, {"type": "note_off", "time": 95, "note": 61, "velocity": 116, "channel": 0}, {"type": "note_on", "time": 8, "note": 58, "velocity": 99, "channel": 0}, {"type": "note_off", "time": 48, "note": 58, "velocity": 99, "channel": 0}, {"type": "note_on", "time": 20, "note": 65, "velocity": 114, "channel": 0}, {"type": "note_off", "time": 113, "note": 65, "velocity": 114, "channel": 0}, {"type": "note_on", "time": 4, "note": 63, "velocity": 119, "channel": 0}, {"type": "note_off", "time": 77, "note": 63, "velocity": 119, "channel": 0}, {"type": "note_on", "time": 9, "note": 62, "velocity": 115, "channel": 0}, {"type": "note_off", "time": 97, "note": 62, "velocity": 115, "channel": 0}, {"type": "note_on", "time": 12, "note": 69, "velocity": 116, "channel": 0}, {"type": "note_off", "time": 30, "note": 69, "velocity": 116, "channel": 0}, {"type": "note_on", "time": 6, "note": 70, "velocity": 112, "channel": 0}, {"type": "note_off", "time": 35, "note": 70, "velocity": 112, "channel": 0}, {"type": "note_on", "time": 10, "note": 68, "velocity": 105, "channel": 0}, {"type": "note_off", "time": 103, "note": 68, "velocity": 105, "channel": 0}, {"type": "note_on", "time": 12, "note": 66, "velocity": 98, "channel": 0}, {"type": "note_off", "time": 43, "note": 66, "velocity": 98, "channel": 0}, {"type": "note_on", "time": 3, "note": 68, "velocity": 113, "channel": 0}, {"type": "note_off", "time": 100, "note": 68, "velocity": 113, "channel": 0}, {"type": "note_on", "time": 30, "note": 71, "velocity": 116, "channel": 0}, {"type": "note_off", "time": 48, "note": 71, "velocity": 116, "channel": 0}, {"type": "note_on", "time": 9, "note": 67, "velocity": 112, "channel": 0}, {"type": "note_off", "time": 100, "note": 67, "velocity": 112, "channel": 0}, {"type": "note_on", "time": 14, "note": 65, "velocity": 112, "channel": 0}, {"type": "note_off", "time": 64, "note": 65, "velocity": 112, "channel": 0}, {"type": "note_on", "time": 7, "note": 64, "velocity": 112, "channel": 0}, {"type": "note_off", "time": 119, "note": 64, "velocity": 112, "channel": 0}, {"type": "note_on", "time": 15, "note": 60, "velocity": 98, "channel": 0}, {"type": "note_off", "time": 59, "note": 60, "velocity": 98, "channel": 0}, {"type": "note_on", "time": 12, "note": 64, "velocity": 111, "channel": 0}, {"type": "note_off", "time": 97, "note": 64, "velocity": 111, "channel": 0}, {"type": "note_on", "time": 12, "note": 67, "velocity": 112, "channel": 0}, {"type": "note_off", "time": 79, "note": 67, "velocity": 112, "channel": 0}, {"type": "note_on", "time": 13, "note": 66, "velocity": 115, "channel": 0}, {"type": "note_off", "time": 105, "note": 66, "velocity": 115, "channel": 0}, {"type": "note_on", "time": 11, "note": 62, "velocity": 114, "channel": 0}, {"type": "note_off", "time": 75, "note": 62, "velocity": 114, "channel": 0}, {"type": "note_on", "time": 9, "note": 61, "velocity": 110, "channel": 0}, {"type": "note_off", "time": 99, "note": 61, "velocity": 110, "channel": 0}, {"type": "note_on", "time": 16, "note": 58, "velocity": 93, "channel": 0}, {"type": "note_off", "time": 40, "note": 58, "velocity": 93, "channel": 0}, {"type": "note_on", "time": 13, "note": 66, "velocity": 112, "channel": 0}, {"type": "note_off", "time": 111, "note": 66, "velocity": 112, "channel": 0}, {"type": "note_on", "time": 19, "note": 68, "velocity": 110, "channel": 0}, {"type": "note_off", "time": 54, "note": 68, "velocity": 110, "channel": 0}, {"type": "note_on", "time": 21, "note": 61, "velocity": 116, "channel": 0}, {"type": "note_off", "time": 105, "note": 61, "velocity": 116, "channel": 0}, {"type": "note_on", "time": 9, "note": 63, "velocity": 115, "channel": 0}, {"type": "note_off", "time": 137, "note": 63, "velocity": 115, "channel": 0}, {"type": "note_on", "time": 431, "note": 69, "velocity": 119, "channel": 0}, {"type": "note_off", "time": 64, "note": 69, "velocity": 119, "channel": 0}, {"type": "note_on", "time": 7, "note": 70, "velocity": 119, "channel": 0}, {"type": "note_off", "time": 451, "note": 70, "velocity": 119, "channel": 0}, {"type": "note_on", "time": 8, "note": 68, "velocity": 120, "channel": 0}, {"type": "note_off", "time": 99, "note": 68, "velocity": 120, "channel": 0}, {"type": "note_on", "time": 2, "note": 67, "velocity": 116, "channel": 0}, {"type": "note_off", "time": 177, "note": 67, "velocity": 116, "channel": 0}, {"type": "note_on", "time": 9, "note": 63, "velocity": 117, "channel": 0}, {"type": "note_off", "time": 109, "note": 63, "velocity": 117, "channel": 0}, {"type": "note_on", "time": 7, "note": 61, "velocity": 118, "channel": 0}, {"type": "note_off", "time": 180, "note": 61, "velocity": 118, "channel": 0}, {"type": "end_of_track", "time": 0}]]}