{"ticks_per_beat": 420, "tracks": [[{"type": "track_name", "name": "Melody", "time": 0}, {"type": "set_tempo", "tempo": 338983, "time": 0}, {"type": "key_signature", "key": "Bb", "time": 0}, {"type": "time_signature", "numerator": 4, "denominator": 4, "clocks_per_click": 24, "notated_32nd_notes_per_beat": 8, "time": 0}, {"type": "note_on", "time": 5833, "note": 56, "velocity": 104, "channel": 0}, {"type": "note_off", "time": 187, "note": 56, "velocity": 104, "channel": 0}, {"type": "note_on", "time": 43, "note": 58, "velocity": 101, "channel": 0}, {"type": "note_off", "time": 161, "note": 58, "velocity": 101, "channel": 0}, {"type": "note_on", "time": 0, "note": 58, "velocity": 80, "channel": 0}, {"type": "note_off", "time": 0, "note": 58, "velocity": 80, "channel": 0}, {"type": "note_on", "time": 222, "note": 60, "velocity": 104, "channel": 0}, {"type": "note_off", "time": 176, "note": 60, "velocity": 104, "channel": 0}, {"type": "note_on", "time": 182, "note": 63, "velocity": 113, "channel": 0}, {"type": "note_off", "time": 141, "note": 63, "velocity": 113, "channel": 0}, {"type": "note_on", "time": 20, "note": 65, "velocity": 105, "channel": 0}, {"type": "note_off", "time": 829, "note": 65, "velocity": 105, "channel": 0}, {"type": "note_on", "time": 40, "note": 68, "velocity": 108, "channel": 0}, {"type": "note_off", "time": 202, "note": 68, "velocity": 108, "channel": 0}, {"type": "note_on", "time": 0, "note": 70, "velocity": 105, "channel": 0}, {"type": "note_off", "time": 849, "note": 70, "velocity": 105, "channel": 0}, {"type": "note_on", "time": 182, "note": 68, "velocity": 107, "channel": 0}, {"type": "note_off", "time": 136, "note": 68, "velocity": 107, "channel": 0}, {"type": "note_on", "time": 0, "note": 67, "velocity": 104, "channel": 0}, {"type": "note_off", "time": 116, "note": 67, "velocity": 104, "channel": 0}, {"type": "note_on", "time": 0, "note": 65, "velocity": 108, "channel": 0}, {"type": "note_off", "time": 171, "note": 65, "velocity": 108, "channel": 0}, {"type": "note_on", "time": 2073, "note": 63, "velocity": 114, "channel": 0}, {"type": "note_off", "time": 273, "note": 63, "velocity": 114, "channel": 0}, {"type": "note_on", "time": 0, "note": 65, "velocity": 108, "channel": 0}, {"type": "note_off", "time": 525, "note": 65, "velocity": 108, "channel": 0}, {"type": "note_on", "time": 10, "note": 60, "velocity": 99, "channel": 0}, {"type": "note_off", "time": 151, "note": 60, "velocity": 99, "channel": 0}, {"type": "note_on", "time": 20, "note": 61, "velocity": 101, "channel": 0}, {"type": "note_off", "time": 55, "note": 61, "velocity": 101, "channel": 0}, {"type": "note_on", "time": 15, "note": 62, "velocity": 103, "channel": 0}, {"type": "note_off", "time": 60, "note": 62, "velocity": 103, "channel": 0}, {"type": "note_on", "time": 50, "note": 63, "velocity": 109, "channel": 0}, {"type": "note_off", "time": 384, "note": 63, "velocity": 109, "channel": 0}, {"type": "note_on", "time": 3524, "note": 69, "velocity": 112, "channel": 0}, {"type": "note_off", "time": 242, "note": 69, "velocity": 112, "channel": 0}, {"type": "note_on", "time": 136, "note": 64, "velocity": 107, "channel": 0}, {"type": "note_off", "time": 232, "note": 64, "velocity": 107, "channel": 0}, {"type": "note_on", "time": 0, "note": 60, "velocity": 93, "channel": 0}, {"type": "note_off", "time": 161, "note": 60, "velocity": 93, "channel": 0}, {"type": "note_on", "time": 89, "note": 58, "velocity": 83, "channel": 0}, {"type": "note_off", "time": 177, "note": 58, "velocity": 83, "channel": 0}, {"type": "note_on", "time": 648, "note": 69, "velocity": 106, "channel": 0}, {"type": "note_off", "time": 161, "note": 69, "velocity": 106, "channel": 0}, {"type": "note_on", "time": 10, "note": 70, "velocity": 102, "channel": 0}, {"type": "note_off", "time": 146, "note": 70, "velocity": 102, "channel": 0}, {"type": "note_on", "time": 157, "note": 67, "velocity": 85, "channel": 0}, {"type": "note_off", "time": 136, "note": 67, "velocity": 85, "channel": 0}, {"type": "note_on", "time": 65, "note": 63, "velocity": 109, "channel": 0}, {"type": "note_off", "time": 156, "note": 63, "velocity": 109, "channel": 0}, {"type": "note_on", "time": 45, "note": 62, "velocity": 103, "channel": 0}, {"type": "note_off", "time": 171, "note": 62, "velocity": 103, "channel": 0}, {"type": "note_on", "time": 45, "note": 60, "velocity": 96, "channel": 0}, {"type": "note_off", "time": 237, "note": 60, "velocity": 96, "channel": 0}, {"type": "note_on", "time": 15, "note": 63, "velocity": 111, "channel": 0}, {"type": "note_off", "time": 126, "note": 63, "velocity": 111, "channel": 0}, {"type": "note_on", "time": 35, "note": 65, "velocity": 101, "channel": 0}, {"type": "note_off", "time": 354, "note": 65, "velocity": 101, "channel": 0}, {"type": "note_on", "time": 55, "note": 65, "velocity": 102, "channel": 0}, {"type": "note_off", "time": 146, "note": 65, "velocity": 102, "channel": 0}, {"type": "note_on", "time": 0, "note": 62, "velocity": 99, "channel": 0}, {"type": "note_off", "time": 141, "note": 62, "velocity": 99, "channel": 0}, {"type": "note_on", "time": 30, "note": 60, "velocity": 99, "channel": 0}, {"type": "note_off", "time": 161, "note": 60, "velocity": 99, "channel": 0}, {"type": "note_on", "time": 50, "note": 59, "velocity": 91, "channel": 0}, {"type": "note_off", "time": 242, "note": 59, "velocity": 91, "channel": 0}, {"type": "note_on", "time": 434, "note": 63, "velocity": 113, "channel": 0}, {"type": "note_off", "time": 217, "note": 63, "velocity": 113, "channel": 0}, {"type": "note_on", "time": 0, "note": 62, "velocity": 108, "channel": 0}, {"type": "note_off", "time": 106, "note": 62, "velocity": 108, "channel": 0}, {"type": "note_on", "time": 25, "note": 63, "velocity": 109, "channel": 0}, {"type": "note_off", "time": 106, "note": 63, "velocity": 109, "channel": 0}, {"type": "note_on", "time": 5, "note": 62, "velocity": 104, "channel": 0}, {"type": "note_off", "time": 111, "note": 62, "velocity": 104, "channel": 0}, {"type": "note_on", "time": 15, "note": 60, "velocity": 96, "channel": 0}, {"type": "note_off", "time": 202, "note": 60, "velocity": 96, "channel": 0}, {"type": "note_on", "time": 177, "note": 64, "velocity": 104, "channel": 0}, {"type": "note_off", "time": 65, "note": 64, "velocity": 104, "channel": 0}, {"type": "note_on", "time": 5, "note": 65, "velocity": 106, "channel": 0}, {"type": "note_off", "time": 252, "note": 65, "velocity": 106, "channel": 0}, {"type": "note_on", "time": 91, "note": 61, "velocity": 96, "channel": 0}, {"type": "note_off", "time": 91, "note": 61, "velocity": 96, "channel": 0}, {"type": "note_on", "time": 10, "note": 62, "velocity": 101, "channel": 0}, {"type": "note_off", "time": 333, "note": 62, "velocity": 101, "channel": 0}, {"type": "note_on", "time": 20, "note": 58, "velocity": 89, "channel": 0}, {"type": "note_off", "time": 308, "note": 58, "velocity": 89, "channel": 0}, {"type": "note_on", "time": 3393, "note": 60, "velocity": 103, "channel": 0}, {"type": "note_off", "time": 101, "note": 60, "velocity": 103, "channel": 0}, {"type": "note_on", "time": 45, "note": 62, "velocity": 110, "channel": 0}, {"type": "note_off", "time": 232, "note": 62, "velocity": 110, "channel": 0}, {"type": "note_on", "time": 20, "note": 63, "velocity": 115, "channel": 0}, {"type": "note_off", "time": 171, "note": 63, "velocity": 115, "channel": 0}, {"type": "note_on", "time": 0, "note": 65, "velocity": 106, "channel": 0}, {"type": "note_off", "time": 222, "note": 65, "velocity": 106, "channel": 0}, {"type": "note_on", "time": 5, "note": 67, "velocity": 101, "channel": 0}, {"type": "note_off", "time": 192, "note": 67, "velocity": 101, "channel": 0}, {"type": "note_on", "time": 5, "note": 68, "velocity": 102, "channel": 0}, {"type": "note_off", "time": 177, "note": 68, "velocity": 102, "channel": 0}, {"type": "note_on", "time": 25, "note": 70, "velocity": 107, "channel": 0}, {"type": "note_off", "time": 141, "note": 70, "velocity": 107, "channel": 0}, {"type": "note_on", "time": 96, "note": 70, "velocity": 100, "channel": 0}, {"type": "note_off", "time": 75, "note": 70, "velocity": 100, "channel": 0}, {"type": "note_on", "time": 0, "note": 72, "velocity": 102, "channel": 0}, {"type": "note_off", "time": 490, "note": 72, "velocity": 102, "channel": 0}, {"type": "note_on", "time": 55, "note": 60, "velocity": 90, "channel": 0}, {"type": "note_off", "time": 151, "note": 60, "velocity": 90, "channel": 0}, {"type": "note_on", "time": 10, "note": 63, "velocity": 111, "channel": 0}, {"type": "note_off", "time": 217, "note": 63, "velocity": 111, "channel": 0}, {"type": "note_on", "time": 15, "note": 62, "velocity": 84, "channel": 0}, {"type": "note_off", "time": 161, "note": 62, "velocity": 84, "channel": 0}, {"type": "note_on", "time": 116, "note": 72, "velocity": 94, "channel": 0}, {"type": "note_off", "time": 121, "note": 72, "velocity": 94, "channel": 0}, {"type": "note_on", "time": 0, "note": 70, "velocity": 98, "channel": 0}, {"type": "note_on", "time": 713, "note": 69, "velocity": 103, "channel": 0}, {"type": "note_off", "time": 0, "note": 70, "velocity": 98, "channel": 0}, {"type": "note_off", "time": 75, "note": 69, "velocity": 103, "channel": 0}, {"type": "note_on", "time": 0, "note": 68, "velocity": 98, "channel": 0}, {"type": "note_off", "time": 65, "note": 68, "velocity": 98, "channel": 0}, {"type": "note_on", "time": 5, "note": 67, "velocity": 97, "channel": 0}, {"type": "note_off", "time": 187, "note": 67, "velocity": 97, "channel": 0}, {"type": "note_on", "time": 116, "note": 67, "velocity": 100, "channel": 0}, {"type": "note_off", "time": 166, "note": 67, "velocity": 100, "channel": 0}, {"type": "note_on", "time": 20, "note": 63, "velocity": 107, "channel": 0}, {"type": "note_off", "time": 131, "note": 63, "velocity": 107, "channel": 0}, {"type": "note_on", "time": 75, "note": 63, "velocity": 102, "channel": 0}, {"type": "note_off", "time": 242, "note": 63, "velocity": 102, "channel": 0}, {"type": "note_on", "time": 0, "note": 61, "velocity": 95, "channel": 0}, {"type": "note_off", "time": 166, "note": 61, "velocity": 95, "channel": 0}, {"type": "note_on", "time": 106, "note": 61, "velocity": 96, "channel": 0}, {"type": "note_off", "time": 217, "note": 61, "velocity": 96, "channel": 0}, {"type": "note_on", "time": 3084, "note": 70, "velocity": 110, "channel": 0}, {"type": "note_off", "time": 177, "note": 70, "velocity": 110, "channel": 0}, {"type": "note_on", "time": 5, "note": 66, "velocity": 105, "channel": 0}, {"type": "note_off", "time": 171, "note": 66, "velocity": 105, "channel": 0}, {"type": "note_on", "time": 15, "note": 63, "velocity": 112, "channel": 0}, {"type": "note_off", "time": 247, "note": 63, "velocity": 112, "channel": 0}, {"type": "note_on", "time": 5, "note": 60, "velocity": 97, "channel": 0}, {"type": "note_off", "time": 161, "note": 60, "velocity": 97, "channel": 0}, {"type": "note_on", "time": 25, "note": 59, "velocity": 92, "channel": 0}, {"type": "note_off", "time": 146, "note": 59, "velocity": 92, "channel": 0}, {"type": "note_on", "time": 50, "note": 69, "velocity": 103, "channel": 0}, {"type": "note_off", "time": 141, "note": 69, "velocity": 103, "channel": 0}, {"type": "note_on", "time": 20, "note": 65, "velocity": 97, "channel": 0}, {"type": "note_off", "time": 85, "note": 65, "velocity": 97, "channel": 0}, {"type": "note_on", "time": 40, "note": 62, "velocity": 97, "channel": 0}, {"type": "note_off", "time": 80, "note": 62, "velocity": 97, "channel": 0}, {"type": "note_on", "time": 55, "note": 60, "velocity": 88, "channel": 0}, {"type": "note_off", "time": 121, "note": 60, "velocity": 88, "channel": 0}, {"type": "note_on", "time": 0, "note": 67, "velocity": 93, "channel": 0}, {"type": "note_off", "time": 91, "note": 67, "velocity": 93, "channel": 0}, {"type": "note_on", "time": 20, "note": 70, "velocity": 92, "channel": 0}, {"type": "note_off", "time": 96, "note": 70, "velocity": 92, "channel": 0}, {"type": "note_on", "time": 15, "note": 67, "velocity": 97, "channel": 0}, {"type": "note_off", "time": 111, "note": 67, "velocity": 97, "channel": 0}, {"type": "note_on", "time": 5, "note": 64, "velocity": 96, "channel": 0}, {"type": "note_off", "time": 111, "note": 64, "velocity": 96, "channel": 0}, {"type": "note_on", "time": 50, "note": 61, "velocity": 98, "channel": 0}, {"type": "note_off", "time": 227, "note": 61, "velocity": 98, "channel": 0}, {"type": "note_on", "time": 111, "note": 67, "velocity": 106, "channel": 0}, {"type": "note_off", "time": 212, "note": 67, "velocity": 106, "channel": 0}, {"type": "note_on", "time": 60, "note": 63, "velocity": 108, "channel": 0}, {"type": "note_off", "time": 171, "note": 63, "velocity": 108, "channel": 0}, {"type": "note_on", "time": 20, "note": 62, "velocity": 106, "channel": 0}, {"type": "note_off", "time": 237, "note": 62, "velocity": 106, "channel": 0}, {"type": "note_on", "time": 65, "note": 60, "velocity": 82, "channel": 0}, {"type": "note_off", "time": 121, "note": 60, "velocity": 82, "channel": 0}, {"type": "note_on", "time": 237, "note": 65, "velocity": 100, "channel": 0}, {"type": "note_off", "time": 166, "note": 65, "velocity": 100, "channel": 0}, {"type": "note_on", "time": 242, "note": 62, "velocity": 87, "channel": 0}, {"type": "note_off", "time": 151, "note": 62, "velocity": 87, "channel": 0}, {"type": "note_on", "time": 45, "note": 65, "velocity": 108, "channel": 0}, {"type": "note_off", "time": 151, "note": 65, "velocity": 108, "channel": 0}, {"type": "note_on", "time": 91, "note": 61, "velocity": 101, "channel": 0}, {"type": "note_off", "time": 156, "note": 61, "velocity": 101, "channel": 0}, {"type": "note_on", "time": 50, "note": 57, "velocity": 90, "channel": 0}, {"type": "note_off", "time": 131, "note": 57, "velocity": 90, "channel": 0}, {"type": "note_on", "time": 187, "note": 60, "velocity": 94, "channel": 0}, {"type": "note_off", "time": 283, "note": 60, "velocity": 94, "channel": 0}, {"type": "note_on", "time": 0, "note": 53, "velocity": 85, "channel": 0}, {"type": "note_off", "time": 121, "note": 53, "velocity": 85, "channel": 0}, {"type": "note_on", "time": 20, "note": 55, "velocity": 93, "channel": 0}, {"type": "note_off", "time": 247, "note": 55, "velocity": 93, "channel": 0}, {"type": "note_on", "time": 45, "note": 58, "velocity": 91, "channel": 0}, {"type": "note_off", "time": 475, "note": 58, "velocity": 91, "channel": 0}, {"type": "note_on", "time": 3024, "note": 61, "velocity": 103, "channel": 0}, {"type": "note_off", "time": 126, "note": 61, "velocity": 103, "channel": 0}, {"type": "note_on", "time": 0, "note": 62, "velocity": 111, "channel": 0}, {"type": "note_off", "time": 369, "note": 62, "velocity": 111, "channel": 0}, {"type": "note_on", "time": 0, "note": 67, "velocity": 104, "channel": 0}, {"type": "note_off", "time": 318, "note": 67, "velocity": 104, "channel": 0}, {"type": "note_on", "time": 40, "note": 63, "velocity": 112, "channel": 0}, {"type": "note_off", "time": 556, "note": 63, "velocity": 112, "channel": 0}, {"type": "note_on", "time": 0, "note": 65, "velocity": 96, "channel": 0}, {"type": "note_off", "time": 35, "note": 65, "velocity": 96, "channel": 0}, {"type": "note_on", "time": 0, "note": 67, "velocity": 99, "channel": 0}, {"type": "note_off", "time": 45, "note": 67, "velocity": 99, "channel": 0}, {"type": "note_on", "time": 30, "note": 68, "velocity": 99, "channel": 0}, {"type": "note_off", "time": 40, "note": 68, "velocity": 99, "channel": 0}, {"type": "note_on", "time": 25, "note": 70, "velocity": 111, "channel": 0}, {"type": "note_off", "time": 171, "note": 70, "velocity": 111, "channel": 0}, {"type": "note_on", "time": 202, "note": 64, "velocity": 106, "channel": 0}, {"type": "note_off", "time": 278, "note": 64, "velocity": 106, "channel": 0}, {"type": "note_on", "time": 0, "note": 65, "velocity": 103, "channel": 0}, {"type": "note_off", "time": 35, "note": 65, "velocity": 103, "channel": 0}, {"type": "note_on", "time": 20, "note": 68, "velocity": 106, "channel": 0}, {"type": "note_off", "time": 70, "note": 68, "velocity": 106, "channel": 0}, {"type": "note_on", "time": 5, "note": 69, "velocity": 111, "channel": 0}, {"type": "note_off", "time": 146, "note": 69, "velocity": 111, "channel": 0}, {"type": "note_on", "time": 20, "note": 67, "velocity": 99, "channel": 0}, {"type": "note_off", "time": 748, "note": 67, "velocity": 99, "channel": 0}, {"type": "note_on", "time": 0, "note": 66, "velocity": 102, "channel": 0}, {"type": "note_off", "time": 177, "note": 66, "velocity": 102, "channel": 0}, {"type": "note_on", "time": 30, "note": 65, "velocity": 102, "channel": 0}, {"type": "note_off", "time": 151, "note": 65, "velocity": 102, "channel": 0}, {"type": "note_on", "time": 35, "note": 63, "velocity": 112, "channel": 0}, {"type": "note_off", "time": 151, "note": 63, "velocity": 112, "channel": 0}, {"type": "note_on", "time": 25, "note": 62, "velocity": 104, "channel": 0}, {"type": "note_off", "time": 212, "note": 62, "velocity": 104, "channel": 0}, {"type": "note_on", "time": 35, "note": 60, "velocity": 95, "channel": 0}, {"type": "note_off", "time": 232, "note": 60, "velocity": 95, "channel": 0}, {"type": "note_on", "time": 5, "note": 58, "velocity": 90, "channel": 0}, {"type": "note_off", "time": 222, "note": 58, "velocity": 90, "channel": 0}, {"type": "note_on", "time": 35, "note": 60, "velocity": 89, "channel": 0}, {"type": "note_off", "time": 106, "note": 60, "velocity": 89, "channel": 0}, {"type": "note_on", "time": 5, "note": 63, "velocity": 83, "channel": 0}, {"type": "note_off", "time": 80, "note": 63, "velocity": 83, "channel": 0}, {"type": "note_on", "time": 15, "note": 65, "velocity": 89, "channel": 0}, {"type": "note_off", "time": 80, "note": 65, "velocity": 89, "channel": 0}, {"type": "note_on", "time": 10, "note": 67, "velocity": 100, "channel": 0}, {"type": "note_off", "time": 187, "note": 67, "velocity": 100, "channel": 0}, {"type": "note_on", "time": 0, "note": 65, "velocity": 104, "channel": 0}, {"type": "note_off", "time": 212, "note": 65, "velocity": 104, "channel": 0}, {"type": "note_on", "time": 15, "note": 66, "velocity": 99, "channel": 0}, {"type": "note_off", "time": 50, "note": 66, "velocity": 99, "channel": 0}, {"type": "note_on", "time": 0, "note": 67, "velocity": 95, "channel": 0}, {"type": "note_off", "time": 65, "note": 67, "velocity": 95, "channel": 0}, {"type": "note_on", "time": 0, "note": 68, "velocity": 98, "channel": 0}, {"type": "note_off", "time": 288, "note": 68, "velocity": 98, "channel": 0}, {"type": "note_on", "time": 40, "note": 67, "velocity": 87, "channel": 0}, {"type": "note_off", "time": 591, "note": 67, "velocity": 87, "channel": 0}, {"type": "note_on", "time": 207, "note": 58, "velocity": 77, "channel": 0}, {"type": "note_off", "time": 121, "note": 58, "velocity": 77, "channel": 0}, {"type": "note_on", "time": 35, "note": 63, "velocity": 114, "channel": 0}, {"type": "note_off", "time": 318, "note": 63, "velocity": 114, "channel": 0}, {"type": "note_on", "time": 2472, "note": 64, "velocity": 118, "channel": 0}, {"type": "note_off", "time": 212, "note": 64, "velocity": 118, "channel": 0}, {"type": "note_on", "time": 0, "note": 65, "velocity": 109, "channel": 0}, {"type": "note_off", "time": 91, "note": 65, "velocity": 109, "channel": 0}, {"type": "note_on", "time": 35, "note": 63, "velocity": 112, "channel": 0}, {"type": "note_off", "time": 202, "note": 63, "velocity": 112, "channel": 0}, {"type": "note_on", "time": 20, "note": 62, "velocity": 106, "channel": 0}, {"type": "note_off", "time": 182, "note": 62, "velocity": 106, "channel": 0}, {"type": "note_on", "time": 5, "note": 65, "velocity": 108, "channel": 0}, {"type": "note_off", "time": 187, "note": 65, "velocity": 108, "channel": 0}, {"type": "note_on", "time": 25, "note": 62, "velocity": 105, "channel": 0}, {"type": "note_off", "time": 182, "note": 62, "velocity": 105, "channel": 0}, {"type": "note_on", "time": 50, "note": 60, "velocity": 99, "channel": 0}, {"type": "note_off", "time": 161, "note": 60, "velocity": 99, "channel": 0}, {"type": "note_on", "time": 60, "note": 59, "velocity": 96, "channel": 0}, {"type": "note_off", "time": 197, "note": 59, "velocity": 96, "channel": 0}, {"type": "note_on", "time": 10, "note": 55, "velocity": 93, "channel": 0}, {"type": "note_off", "time": 171, "note": 55, "velocity": 93, "channel": 0}, {"type": "note_on", "time": 288, "note": 55, "velocity": 92, "channel": 0}, {"type": "note_off", "time": 101, "note": 55, "velocity": 92, "channel": 0}, {"type": "note_on", "time": 10, "note": 63, "velocity": 116, "channel": 0}, {"type": "note_off", "time": 207, "note": 63, "velocity": 116, "channel": 0}, {"type": "note_on", "time": 25, "note": 62, "velocity": 108, "channel": 0}, {"type": "note_off", "time": 217, "note": 62, "velocity": 108, "channel": 0}, {"type": "note_on", "time": 25, "note": 59, "velocity": 94, "channel": 0}, {"type": "note_off", "time": 187, "note": 59, "velocity": 94, "channel": 0}, {"type": "note_on", "time": 60, "note": 55, "velocity": 93, "channel": 0}, {"type": "note_off", "time": 101, "note": 55, "velocity": 93, "channel": 0}, {"type": "note_on", "time": 35, "note": 60, "velocity": 94, "channel": 0}, {"type": "note_off", "time": 303, "note": 60, "velocity": 94, "channel": 0}, {"type": "note_on", "time": 80, "note": 57, "velocity": 91, "channel": 0}, {"type": "note_off", "time": 111, "note": 57, "velocity": 91, "channel": 0}, {"type": "note_on", "time": 0, "note": 55, "velocity": 89, "channel": 0}, {"type": "note_off", "time": 75, "note": 55, "velocity": 89, "channel": 0}, {"type": "note_on", "time": 25, "note": 57, "velocity": 79, "channel": 0}, {"type": "note_off", "time": 55, "note": 57, "velocity": 79, "channel": 0}, {"type": "note_on", "time": 15, "note": 55, "velocity": 88, "channel": 0}, {"type": "note_off", "time": 131, "note": 55, "velocity": 88, "channel": 0}, {"type": "note_on", "time": 637, "note": 53, "velocity": 98, "channel": 0}, {"type": "note_off", "time": 146, "note": 53, "velocity": 98, "channel": 0}, {"type": "note_on", "time": 273, "note": 53, "velocity": 91, "channel": 0}, {"type": "note_off", "time": 161, "note": 53, "velocity": 91, "channel": 0}, {"type": "note_on", "time": 60, "note": 52, "velocity": 91, "channel": 0}, {"type": "note_off", "time": 111, "note": 52, "velocity": 91, "channel": 0}, {"type": "note_on", "time": 91, "note": 58, "velocity": 100, "channel": 0}, {"type": "note_off", "time": 192, "note": 58, "velocity": 100, "channel": 0}, {"type": "note_on", "time": 40, "note": 62, "velocity": 106, "channel": 0}, {"type": "note_off", "time": 207, "note": 62, "velocity": 106, "channel": 0}, {"type": "note_on", "time": 0, "note": 60, "velocity": 101, "channel": 0}, {"type": "note_off", "time": 197, "note": 60, "velocity": 101, "channel": 0}, {"type": "note_on", "time": 25, "note": 57, "velocity": 92, "channel": 0}, {"type": "note_off", "time": 202, "note": 57, "velocity": 92, "channel": 0}, {"type": "note_on", "time": 121, "note": 55, "velocity": 97, "channel": 0}, {"type": "note_off", "time": 116, "note": 55, "velocity": 97, "channel": 0}, {"type": "note_on", "time": 15, "note": 58, "velocity": 93, "channel": 0}, {"type": "note_off", "time": 252, "note": 58, "velocity": 93, "channel": 0}, {"type": "note_on", "time": 45, "note": 58, "velocity": 94, "channel": 0}, {"type": "note_off", "time": 197, "note": 58, "velocity": 94, "channel": 0}, {"type": "note_on", "time": 60, "note": 58, "velocity": 94, "channel": 0}, {"type": "note_off", "time": 298, "note": 58, "velocity": 94, "channel": 0}, {"type": "note_on", "time": 3130, "note": 65, "velocity": 98, "channel": 0}, {"type": "note_off", "time": 156, "note": 65, "velocity": 98, "channel": 0}, {"type": "note_on", "time": 0, "note": 68, "velocity": 98, "channel": 0}, {"type": "note_off", "time": 96, "note": 68, "velocity": 98, "channel": 0}, {"type": "note_on", "time": 0, "note": 69, "velocity": 111, "channel": 0}, {"type": "note_off", "time": 70, "note": 69, "velocity": 111, "channel": 0}, {"type": "note_on", "time": 0, "note": 70, "velocity": 103, "channel": 0}, {"type": "note_off", "time": 151, "note": 70, "velocity": 103, "channel": 0}, {"type": "note_on", "time": 111, "note": 70, "velocity": 100, "channel": 0}, {"type": "note_off", "time": 1107, "note": 70, "velocity": 100, "channel": 0}, {"type": "note_on", "time": 25, "note": 67, "velocity": 100, "channel": 0}, {"type": "note_off", "time": 161, "note": 67, "velocity": 100, "channel": 0}, {"type": "note_on", "time": 35, "note": 63, "velocity": 112, "channel": 0}, {"type": "note_off", "time": 166, "note": 63, "velocity": 112, "channel": 0}, {"type": "note_on", "time": 15, "note": 65, "velocity": 105, "channel": 0}, {"type": "note_off", "time": 141, "note": 65, "velocity": 105, "channel": 0}, {"type": "note_on", "time": 60, "note": 67, "velocity": 101, "channel": 0}, {"type": "note_off", "time": 171, "note": 67, "velocity": 101, "channel": 0}, {"type": "note_on", "time": 75, "note": 65, "velocity": 107, "channel": 0}, {"type": "note_off", "time": 485, "note": 65, "velocity": 107, "channel": 0}, {"type": "note_on", "time": 146, "note": 75, "velocity": 105, "channel": 0}, {"type": "note_off", "time": 126, "note": 75, "velocity": 105, "channel": 0}, {"type": "note_on", "time": 0, "note": 72, "velocity": 98, "channel": 0}, {"type": "note_off", "time": 85, "note": 72, "velocity": 98, "channel": 0}, {"type": "note_on", "time": 0, "note": 68, "velocity": 102, "channel": 0}, {"type": "note_off", "time": 101, "note": 68, "velocity": 102, "channel": 0}, {"type": "note_on", "time": 0, "note": 65, "velocity": 98, "channel": 0}, {"type": "note_off", "time": 91, "note": 65, "velocity": 98, "channel": 0}, {"type": "note_on", "time": 38, "note": 60, "velocity": 92, "channel": 0}, {"type": "note_off", "time": 126, "note": 60, "velocity": 92, "channel": 0}, {"type": "note_on", "time": 52, "note": 64, "velocity": 107, "channel": 0}, {"type": "note_off", "time": 414, "note": 64, "velocity": 107, "channel": 0}, {"type": "note_on", "time": 0, "note": 65, "velocity": 108, "channel": 0}, {"type": "note_off", "time": 101, "note": 65, "velocity": 108, "channel": 0}, {"type": "note_on", "time": 5, "note": 70, "velocity": 99, "channel": 0}, {"type": "note_off", "time": 65, "note": 70, "velocity": 99, "channel": 0}, {"type": "note_on", "time": 0, "note": 74, "velocity": 98, "channel": 0}, {"type": "note_off", "time": 55, "note": 74, "velocity": 98, "channel": 0}, {"type": "note_on", "time": 5, "note": 75, "velocity": 96, "channel": 0}, {"type": "note_off", "time": 252, "note": 75, "velocity": 96, "channel": 0}, {"type": "note_on", "time": 30, "note": 72, "velocity": 96, "channel": 0}, {"type": "note_off", "time": 55, "note": 72, "velocity": 96, "channel": 0}, {"type": "note_on", "time": 0, "note": 70, "velocity": 96, "channel": 0}, {"type": "note_off", "time": 55, "note": 70, "velocity": 96, "channel": 0}, {"type": "note_on", "time": 0, "note": 68, "velocity": 103, "channel": 0}, {"type": "note_off", "time": 60, "note": 68, "velocity": 103, "channel": 0}, {"type": "note_on", "time": 25, "note": 65, "velocity": 103, "channel": 0}, {"type": "note_off", "time": 65, "note": 65, "velocity": 103, "channel": 0}, {"type": "note_on", "time": 0, "note": 63, "velocity": 112, "channel": 0}, {"type": "note_off", "time": 146, "note": 63, "velocity": 112, "channel": 0}, {"type": "note_on", "time": 5, "note": 62, "velocity": 104, "channel": 0}, {"type": "note_off", "time": 374, "note": 62, "velocity": 104, "channel": 0}, {"type": "note_on", "time": 0, "note": 63, "velocity": 102, "channel": 0}, {"type": "note_off", "time": 70, "note": 63, "velocity": 102, "channel": 0}, {"type": "note_on", "time": 25, "note": 65, "velocity": 96, "channel": 0}, {"type": "note_off", "time": 55, "note": 65, "velocity": 96, "channel": 0}, {"type": "note_on", "time": 70, "note": 73, "velocity": 98, "channel": 0}, {"type": "note_off", "time": 101, "note": 73, "velocity": 98, "channel": 0}, {"type": "note_on", "time": 25, "note": 71, "velocity": 100, "channel": 0}, {"type": "note_off", "time": 308, "note": 71, "velocity": 100, "channel": 0}, {"type": "note_on", "time": 1471, "note": 70, "velocity": 104, "channel": 0}, {"type": "note_off", "time": 151, "note": 70, "velocity": 104, "channel": 0}, {"type": "note_on", "time": 0, "note": 72, "velocity": 111, "channel": 0}, {"type": "note_off", "time": 303, "note": 72, "velocity": 111, "channel": 0}, {"type": "note_on", "time": 50, "note": 70, "velocity": 112, "channel": 0}, {"type": "note_off", "time": 182, "note": 70, "velocity": 112, "channel": 0}, {"type": "note_on", "time": 50, "note": 66, "velocity": 106, "channel": 0}, {"type": "note_off", "time": 192, "note": 66, "velocity": 106, "channel": 0}, {"type": "note_on", "time": 0, "note": 65, "velocity": 107, "channel": 0}, {"type": "note_off", "time": 177, "note": 65, "velocity": 107, "channel": 0}, {"type": "note_on", "time": 0, "note": 63, "velocity": 112, "channel": 0}, {"type": "note_off", "time": 171, "note": 63, "velocity": 112, "channel": 0}, {"type": "note_on", "time": 30, "note": 62, "velocity": 106, "channel": 0}, {"type": "note_off", "time": 171, "note": 62, "velocity": 106, "channel": 0}, {"type": "note_on", "time": 96, "note": 60, "velocity": 103, "channel": 0}, {"type": "note_off", "time": 156, "note": 60, "velocity": 103, "channel": 0}, {"type": "note_on", "time": 50, "note": 58, "velocity": 92, "channel": 0}, {"type": "note_off", "time": 480, "note": 58, "velocity": 92, "channel": 0}, {"type": "note_on", "time": 0, "note": 60, "velocity": 88, "channel": 0}, {"type": "note_off", "time": 91, "note": 60, "velocity": 88, "channel": 0}, {"type": "note_on", "time": 5, "note": 63, "velocity": 79, "channel": 0}, {"type": "note_off", "time": 85, "note": 63, "velocity": 79, "channel": 0}, {"type": "note_on", "time": 0, "note": 65, "velocity": 97, "channel": 0}, {"type": "note_on", "time": 55, "note": 67, "velocity": 104, "channel": 0}, {"type": "note_off", "time": 0, "note": 65, "velocity": 97, "channel": 0}, {"type": "note_off", "time": 45, "note": 67, "velocity": 104, "channel": 0}, {"type": "note_on", "time": 0, "note": 72, "velocity": 104, "channel": 0}, {"type": "note_off", "time": 96, "note": 72, "velocity": 104, "channel": 0}, {"type": "note_on", "time": 0, "note": 69, "velocity": 111, "channel": 0}, {"type": "note_off", "time": 121, "note": 69, "velocity": 111, "channel": 0}, {"type": "note_on", "time": 2174, "note": 71, "velocity": 113, "channel": 0}, {"type": "note_off", "time": 116, "note": 71, "velocity": 113, "channel": 0}, {"type": "note_on", "time": 40, "note": 66, "velocity": 97, "channel": 0}, {"type": "note_off", "time": 192, "note": 66, "velocity": 97, "channel": 0}, {"type": "note_on", "time": 374, "note": 63, "velocity": 87, "channel": 0}, {"type": "note_off", "time": 70, "note": 63, "velocity": 87, "channel": 0}, {"type": "note_on", "time": 0, "note": 67, "velocity": 85, "channel": 0}, {"type": "note_off", "time": 50, "note": 67, "velocity": 85, "channel": 0}, {"type": "note_on", "time": 0, "note": 70, "velocity": 102, "channel": 0}, {"type": "note_off", "time": 136, "note": 70, "velocity": 102, "channel": 0}, {"type": "note_on", "time": 15, "note": 65, "velocity": 104, "channel": 0}, {"type": "note_off", "time": 237, "note": 65, "velocity": 104, "channel": 0}, {"type": "note_on", "time": 1213, "note": 69, "velocity": 109, "channel": 0}, {"type": "note_off", "time": 111, "note": 69, "velocity": 109, "channel": 0}, {"type": "note_on", "time": 0, "note": 67, "velocity": 105, "channel": 0}, {"type": "note_off", "time": 96, "note": 67, "velocity": 105, "channel": 0}, {"type": "note_on", "time": 0, "note": 65, "velocity": 105, "channel": 0}, {"type": "note_off", "time": 192, "note": 65, "velocity": 105, "channel": 0}, {"type": "note_on", "time": 0, "note": 63, "velocity": 111, "channel": 0}, {"type": "note_off", "time": 171, "note": 63, "velocity": 111, "channel": 0}, {"type": "note_on", "time": 30, "note": 62, "velocity": 104, "channel": 0}, {"type": "note_off", "time": 177, "note": 62, "velocity": 104, "channel": 0}, {"type": "note_on", "time": 35, "note": 60, "velocity": 99, "channel": 0}, {"type": "note_off", "time": 182, "note": 60, "velocity": 99, "channel": 0}, {"type": "note_on", "time": 262, "note": 57, "velocity": 89, "channel": 0}, {"type": "note_off", "time": 111, "note": 57, "velocity": 89, "channel": 0}, {"type": "note_on", "time": 348, "note": 65, "velocity": 99, "channel": 0}, {"type": "note_off", "time": 171, "note": 65, "velocity": 99, "channel": 0}, {"type": "note_on", "time": 0, "note": 68, "velocity": 107, "channel": 0}, {"type": "note_off", "time": 171, "note": 68, "velocity": 107, "channel": 0}, {"type": "note_on", "time": 25, "note": 66, "velocity": 106, "channel": 0}, {"type": "note_off", "time": 151, "note": 66, "velocity": 106, "channel": 0}, {"type": "note_on", "time": 35, "note": 61, "velocity": 103, "channel": 0}, {"type": "note_off", "time": 252, "note": 61, "velocity": 103, "channel": 0}, {"type": "note_on", "time": 20, "note": 59, "velocity": 86, "channel": 0}, {"type": "note_off", "time": 126, "note": 59, "velocity": 86, "channel": 0}, {"type": "note_on", "time": 25, "note": 66, "velocity": 111, "channel": 0}, {"type": "note_off", "time": 121, "note": 66, "velocity": 111, "channel": 0}, {"type": "note_on", "time": 0, "note": 67, "velocity": 106, "channel": 0}, {"type": "note_off", "time": 80, "note": 67, "velocity": 106, "channel": 0}, {"type": "note_on", "time": 0, "note": 66, "velocity": 103, "channel": 0}, {"type": "note_off", "time": 85, "note": 66, "velocity": 103, "channel": 0}, {"type": "note_on", "time": 0, "note": 64, "velocity": 108, "channel": 0}, {"type": "note_off", "time": 146, "note": 64, "velocity": 108, "channel": 0}, {"type": "note_on", "time": 40, "note": 62, "velocity": 104, "channel": 0}, {"type": "note_off", "time": 177, "note": 62, "velocity": 104, "channel": 0}, {"type": "note_on", "time": 25, "note": 60, "velocity": 100, "channel": 0}, {"type": "note_off", "time": 166, "note": 60, "velocity": 100, "channel": 0}, {"type": "note_on", "time": 50, "note": 59, "velocity": 97, "channel": 0}, {"type": "note_off", "time": 166, "note": 59, "velocity": 97, "channel": 0}, {"type": "note_on", "time": 55, "note": 66, "velocity": 106, "channel": 0}, {"type": "note_off", "time": 187, "note": 66, "velocity": 106, "channel": 0}, {"type": "note_on", "time": 10, "note": 65, "velocity": 110, "channel": 0}, {"type": "note_off", "time": 187, "note": 65, "velocity": 110, "channel": 0}, {"type": "note_on", "time": 15, "note": 63, "velocity": 111, "channel": 0}, {"type": "note_off", "time": 176, "note": 63, "velocity": 111, "channel": 0}, {"type": "note_on", "time": 0, "note": 61, "velocity": 104, "channel": 0}, {"type": "note_off", "time": 91, "note": 61, "velocity": 104, "channel": 0}, {"type": "note_on", "time": 10, "note": 62, "velocity": 103, "channel": 0}, {"type": "note_off", "time": 187, "note": 62, "velocity": 103, "channel": 0}, {"type": "note_on", "time": 20, "note": 65, "velocity": 100, "channel": 0}, {"type": "note_off", "time": 101, "note": 65, "velocity": 100, "channel": 0}, {"type": "note_on", "time": 10, "note": 67, "velocity": 107, "channel": 0}, {"type": "note_off", "time": 247, "note": 67, "velocity": 107, "channel": 0}, {"type": "note_on", "time": 0, "note": 68, "velocity": 105, "channel": 0}, {"type": "note_off", "time": 890, "note": 68, "velocity": 105, "channel": 0}, {"type": "note_on", "time": 0, "note": 63, "velocity": 98, "channel": 0}, {"type": "note_off", "time": 161, "note": 63, "velocity": 98, "channel": 0}, {"type": "note_on", "time": 0, "note": 66, "velocity": 102, "channel": 0}, {"type": "note_off", "time": 91, "note": 66, "velocity": 102, "channel": 0}, {"type": "note_on", "time": 0, "note": 67, "velocity": 100, "channel": 0}, {"type": "note_off", "time": 490, "note": 67, "velocity": 100, "channel": 0}, {"type": "note_on", "time": 5, "note": 70, "velocity": 107, "channel": 0}, {"type": "note_off", "time": 85, "note": 70, "velocity": 107, "channel": 0}, {"type": "note_on", "time": 10, "note": 72, "velocity": 108, "channel": 0}, {"type": "note_off", "time": 85, "note": 72, "velocity": 108, "channel": 0}, {"type": "note_on", "time": 15, "note": 73, "velocity": 103, "channel": 0}, {"type": "note_off", "time": 207, "note": 73, "velocity": 103, "channel": 0}, {"type": "note_on", "time": 5, "note": 63, "velocity": 108, "channel": 0}, {"type": "note_off", "time": 333, "note": 63, "velocity": 108, "channel": 0}, {"type": "note_on", "time": 1977, "note": 70, "velocity": 102, "channel": 0}, {"type": "note_off", "time": 96, "note": 70, "velocity": 102, "channel": 0}, {"type": "note_on", "time": 0, "note": 72, "velocity": 108, "channel": 0}, {"type": "note_off", "time": 45, "note": 72, "velocity": 108, "channel": 0}, {"type": "note_on", "time": 0, "note": 74, "velocity": 109, "channel": 0}, {"type": "note_off", "time": 116, "note": 74, "velocity": 109, "channel": 0}, {"type": "note_on", "time": 15, "note": 73, "velocity": 111, "channel": 0}, {"type": "note_off", "time": 96, "note": 73, "velocity": 111, "channel": 0}, {"type": "note_on", "time": 75, "note": 72, "velocity": 109, "channel": 0}, {"type": "note_off", "time": 202, "note": 72, "velocity": 109, "channel": 0}, {"type": "note_on", "time": 25, "note": 70, "velocity": 106, "channel": 0}, {"type": "note_off", "time": 166, "note": 70, "velocity": 106, "channel": 0}, {"type": "note_on", "time": 50, "note": 68, "velocity": 102, "channel": 0}, {"type": "note_off", "time": 187, "note": 68, "velocity": 102, "channel": 0}, {"type": "note_on", "time": 15, "note": 67, "velocity": 102, "channel": 0}, {"type": "note_off", "time": 151, "note": 67, "velocity": 102, "channel": 0}, {"type": "note_on", "time": 70, "note": 65, "velocity": 104, "channel": 0}, {"type": "note_off", "time": 257, "note": 65, "velocity": 104, "channel": 0}, {"type": "note_on", "time": 10, "note": 62, "velocity": 91, "channel": 0}, {"type": "note_off", "time": 111, "note": 62, "velocity": 91, "channel": 0}, {"type": "note_on", "time": 45, "note": 63, "velocity": 110, "channel": 0}, {"type": "note_off", "time": 247, "note": 63, "velocity": 110, "channel": 0}, {"type": "note_on", "time": 424, "note": 67, "velocity": 104, "channel": 0}, {"type": "note_off", "time": 207, "note": 67, "velocity": 104, "channel": 0}, {"type": "note_on", "time": 5, "note": 65, "velocity": 105, "channel": 0}, {"type": "note_off", "time": 202, "note": 65, "velocity": 105, "channel": 0}, {"type": "note_on", "time": 0, "note": 67, "velocity": 102, "channel": 0}, {"type": "note_off", "time": 202, "note": 67, "velocity": 102, "channel": 0}, {"type": "note_on", "time": 15, "note": 68, "velocity": 105, "channel": 0}, {"type": "note_off", "time": 176, "note": 68, "velocity": 105, "channel": 0}, {"type": "note_on", "time": 0, "note": 70, "velocity": 110, "channel": 0}, {"type": "note_off", "time": 171, "note": 70, "velocity": 110, "channel": 0}, {"type": "note_on", "time": 30, "note": 67, "velocity": 101, "channel": 0}, {"type": "note_off", "time": 247, "note": 67, "velocity": 101, "channel": 0}, {"type": "note_on", "time": 0, "note": 63, "velocity": 112, "channel": 0}, {"type": "note_off", "time": 273, "note": 63, "velocity": 112, "channel": 0}, {"type": "note_on", "time": 55, "note": 58, "velocity": 93, "channel": 0}, {"type": "note_off", "time": 182, "note": 58, "velocity": 93, "channel": 0}, {"type": "note_on", "time": 141, "note": 64, "velocity": 110, "channel": 0}, {"type": "note_off", "time": 293, "note": 64, "velocity": 110, "channel": 0}, {"type": "note_on", "time": 20, "note": 61, "velocity": 86, "channel": 0}, {"type": "note_off", "time": 161, "note": 61, "velocity": 86, "channel": 0}, {"type": "note_on", "time": 10, "note": 64, "velocity": 85, "channel": 0}, {"type": "note_off", "time": 65, "note": 64, "velocity": 85, "channel": 0}, {"type": "note_on", "time": 15, "note": 67, "velocity": 94, "channel": 0}, {"type": "note_off", "time": 40, "note": 67, "velocity": 94, "channel": 0}, {"type": "note_on", "time": 35, "note": 70, "velocity": 104, "channel": 0}, {"type": "note_off", "time": 197, "note": 70, "velocity": 104, "channel": 0}, {"type": "note_on", "time": 5, "note": 65, "velocity": 104, "channel": 0}, {"type": "note_off", "time": 182, "note": 65, "velocity": 104, "channel": 0}, {"type": "note_on", "time": 5, "note": 63, "velocity": 110, "channel": 0}, {"type": "note_off", "time": 187, "note": 63, "velocity": 110, "channel": 0}, {"type": "note_on", "time": 30, "note": 62, "velocity": 102, "channel": 0}, {"type": "note_off", "time": 202, "note": 62, "velocity": 102, "channel": 0}, {"type": "note_on", "time": 15, "note": 60, "velocity": 96, "channel": 0}, {"type": "note_off", "time": 202, "note": 60, "velocity": 96, "channel": 0}, {"type": "note_on", "time": 65, "note": 58, "velocity": 93, "channel": 0}, {"type": "note_off", "time": 197, "note": 58, "velocity": 93, "channel": 0}, {"type": "note_on", "time": 33, "note": 53, "velocity": 92, "channel": 0}, {"type": "note_off", "time": 345, "note": 53, "velocity": 92, "channel": 0}, {"type": "note_on", "time": 2519, "note": 55, "velocity": 87, "channel": 0}, {"type": "note_off", "time": 156, "note": 55, "velocity": 87, "channel": 0}, {"type": "note_on", "time": 45, "note": 62, "velocity": 106, "channel": 0}, {"type": "note_off", "time": 212, "note": 62, "velocity": 106, "channel": 0}, {"type": "note_on", "time": 15, "note": 63, "velocity": 112, "channel": 0}, {"type": "note_off", "time": 192, "note": 63, "velocity": 112, "channel": 0}, {"type": "note_on", "time": 25, "note": 65, "velocity": 109, "channel": 0}, {"type": "note_off", "time": 177, "note": 65, "velocity": 109, "channel": 0}, {"type": "note_on", "time": 30, "note": 67, "velocity": 108, "channel": 0}, {"type": "note_off", "time": 141, "note": 67, "velocity": 108, "channel": 0}, {"type": "note_on", "time": 60, "note": 62, "velocity": 101, "channel": 0}, {"type": "note_off", "time": 111, "note": 62, "velocity": 101, "channel": 0}, {"type": "note_on", "time": 10, "note": 63, "velocity": 114, "channel": 0}, {"type": "note_off", "time": 652, "note": 63, "velocity": 114, "channel": 0}, {"type": "note_on", "time": 5, "note": 60, "velocity": 98, "channel": 0}, {"type": "note_off", "time": 197, "note": 60, "velocity": 98, "channel": 0}, {"type": "note_on", "time": 5, "note": 57, "velocity": 89, "channel": 0}, {"type": "note_off", "time": 207, "note": 57, "velocity": 89, "channel": 0}, {"type": "note_on", "time": 10, "note": 53, "velocity": 83, "channel": 0}, {"type": "note_off", "time": 207, "note": 53, "velocity": 83, "channel": 0}, {"type": "note_on", "time": 85, "note": 60, "velocity": 100, "channel": 0}, {"type": "note_off", "time": 116, "note": 60, "velocity": 100, "channel": 0}, {"type": "note_on", "time": 0, "note": 62, "velocity": 103, "channel": 0}, {"type": "note_off", "time": 495, "note": 62, "velocity": 103, "channel": 0}, {"type": "note_on", "time": 5, "note": 58, "velocity": 96, "channel": 0}, {"type": "note_off", "time": 202, "note": 58, "velocity": 96, "channel": 0}, {"type": "note_on", "time": 175, "note": 58, "velocity": 94, "channel": 0}, {"type": "note_off", "time": 535, "note": 58, "velocity": 94, "channel": 0}, {"type": "note_on", "time": 2272, "note": 58, "velocity": 96, "channel": 0}, {"type": "note_off", "time": 121, "note": 58, "velocity": 96, "channel": 0}, {"type": "note_on", "time": 80, "note": 62, "velocity": 92, "channel": 0}, {"type": "note_off", "time": 187, "note": 62, "velocity": 92, "channel": 0}, {"type": "note_on", "time": 40, "note": 62, "velocity": 108, "channel": 0}, {"type": "note_off", "time": 166, "note": 62, "velocity": 108, "channel": 0}, {"type": "note_on", "time": 45, "note": 65, "velocity": 109, "channel": 0}, {"type": "note_off", "time": 146, "note": 65, "velocity": 109, "channel": 0}, {"type": "note_on", "time": 45, "note": 62, "velocity": 103, "channel": 0}, {"type": "note_off", "time": 80, "note": 62, "velocity": 103, "channel": 0}, {"type": "note_on", "time": 0, "note": 65, "velocity": 103, "channel": 0}, {"type": "note_off", "time": 111, "note": 65, "velocity": 103, "channel": 0}, {"type": "note_on", "time": 0, "note": 68, "velocity": 109, "channel": 0}, {"type": "note_off", "time": 131, "note": 68, "velocity": 109, "channel": 0}, {"type": "note_on", "time": 0, "note": 65, "velocity": 90, "channel": 0}, {"type": "note_off", "time": 111, "note": 65, "velocity": 90, "channel": 0}, {"type": "note_on", "time": 10, "note": 68, "velocity": 108, "channel": 0}, {"type": "note_off", "time": 156, "note": 68, "velocity": 108, "channel": 0}, {"type": "note_on", "time": 5, "note": 67, "velocity": 105, "channel": 0}, {"type": "note_off", "time": 156, "note": 67, "velocity": 105, "channel": 0}, {"type": "note_on", "time": 30, "note": 63, "velocity": 99, "channel": 0}, {"type": "note_off", "time": 136, "note": 63, "velocity": 99, "channel": 0}, {"type": "note_on", "time": 0, "note": 67, "velocity": 98, "channel": 0}, {"type": "note_off", "time": 134, "note": 67, "velocity": 98, "channel": 0}, {"type": "note_on", "time": 0, "note": 70, "velocity": 99, "channel": 0}, {"type": "note_off", "time": 187, "note": 70, "velocity": 99, "channel": 0}, {"type": "note_on", "time": 12, "note": 67, "velocity": 90, "channel": 0}, {"type": "note_off", "time": 113, "note": 67, "velocity": 90, "channel": 0}, {"type": "note_on", "time": 14, "note": 70, "velocity": 94, "channel": 0}, {"type": "note_off", "time": 143, "note": 70, "velocity": 94, "channel": 0}, {"type": "note_on", "time": 13, "note": 73, "velocity": 103, "channel": 0}, {"type": "note_off", "time": 202, "note": 73, "velocity": 103, "channel": 0}, {"type": "note_on", "time": 5, "note": 64, "velocity": 104, "channel": 0}, {"type": "note_off", "time": 374, "note": 64, "velocity": 104, "channel": 0}, {"type": "note_on", "time": 1284, "note": 64, "velocity": 113, "channel": 0}, {"type": "note_off", "time": 131, "note": 64, "velocity": 113, "channel": 0}, {"type": "note_on", "time": 0, "note": 65, "velocity": 109, "channel": 0}, {"type": "note_off", "time": 209, "note": 65, "velocity": 109, "channel": 0}, {"type": "note_on", "time": 25, "note": 63, "velocity": 98, "channel": 0}, {"type": "note_off", "time": 88, "note": 63, "velocity": 98, "channel": 0}, {"type": "note_on", "time": 5, "note": 65, "velocity": 105, "channel": 0}, {"type": "note_off", "time": 106, "note": 65, "velocity": 105, "channel": 0}, {"type": "note_on", "time": 27, "note": 64, "velocity": 108, "channel": 0}, {"type": "note_off", "time": 187, "note": 64, "velocity": 108, "channel": 0}, {"type": "note_on", "time": 5, "note": 61, "velocity": 91, "channel": 0}, {"type": "note_off", "time": 80, "note": 61, "velocity": 91, "channel": 0}, {"type": "note_on", "time": 0, "note": 64, "velocity": 106, "channel": 0}, {"type": "note_off", "time": 189, "note": 64, "velocity": 106, "channel": 0}, {"type": "note_on", "time": 5, "note": 63, "velocity": 109, "channel": 0}, {"type": "note_off", "time": 455, "note": 63, "velocity": 109, "channel": 0}, {"type": "note_on", "time": 32, "note": 60, "velocity": 93, "channel": 0}, {"type": "note_off", "time": 83, "note": 60, "velocity": 93, "channel": 0}, {"type": "note_on", "time": 20, "note": 56, "velocity": 90, "channel": 0}, {"type": "note_off", "time": 88, "note": 56, "velocity": 90, "channel": 0}, {"type": "note_on", "time": 22, "note": 53, "velocity": 98, "channel": 0}, {"type": "note_on", "time": 96, "note": 62, "velocity": 102, "channel": 0}, {"type": "note_off", "time": 0, "note": 53, "velocity": 98, "channel": 0}, {"type": "note_off", "time": 174, "note": 62, "velocity": 102, "channel": 0}, {"type": "note_on", "time": 1385, "note": 58, "velocity": 94, "channel": 0}, {"type": "note_off", "time": 123, "note": 58, "velocity": 94, "channel": 0}, {"type": "note_on", "time": 308, "note": 58, "velocity": 104, "channel": 0}, {"type": "note_off", "time": 136, "note": 58, "velocity": 104, "channel": 0}, {"type": "note_on", "time": 7, "note": 63, "velocity": 110, "channel": 0}, {"type": "note_off", "time": 166, "note": 63, "velocity": 110, "channel": 0}, {"type": "note_on", "time": 7, "note": 58, "velocity": 82, "channel": 0}, {"type": "note_off", "time": 70, "note": 58, "velocity": 82, "channel": 0}, {"type": "note_on", "time": 17, "note": 63, "velocity": 113, "channel": 0}, {"type": "note_off", "time": 128, "note": 63, "velocity": 113, "channel": 0}, {"type": "note_on", "time": 27, "note": 67, "velocity": 105, "channel": 0}, {"type": "note_off", "time": 149, "note": 67, "velocity": 105, "channel": 0}, {"type": "note_on", "time": 30, "note": 63, "velocity": 96, "channel": 0}, {"type": "note_off", "time": 108, "note": 63, "velocity": 96, "channel": 0}, {"type": "note_on", "time": 2, "note": 67, "velocity": 101, "channel": 0}, {"type": "note_off", "time": 121, "note": 67, "velocity": 101, "channel": 0}, {"type": "note_on", "time": 27, "note": 61, "velocity": 102, "channel": 0}, {"type": "note_off", "time": 164, "note": 61, "velocity": 102, "channel": 0}, {"type": "note_on", "time": 10, "note": 58, "velocity": 88, "channel": 0}, {"type": "note_off", "time": 106, "note": 58, "velocity": 88, "channel": 0}, {"type": "note_on", "time": 12, "note": 61, "velocity": 105, "channel": 0}, {"type": "note_off", "time": 91, "note": 61, "velocity": 105, "channel": 0}, {"type": "note_on", "time": 40, "note": 65, "velocity": 109, "channel": 0}, {"type": "note_off", "time": 121, "note": 65, "velocity": 109, "channel": 0}, {"type": "note_on", "time": 20, "note": 61, "velocity": 91, "channel": 0}, {"type": "note_off", "time": 83, "note": 61, "velocity": 91, "channel": 0}, {"type": "note_on", "time": 10, "note": 65, "velocity": 101, "channel": 0}, {"type": "note_off", "time": 136, "note": 65, "velocity": 101, "channel": 0}, {"type": "note_on", "time": 25, "note": 68, "velocity": 102, "channel": 0}, {"type": "note_off", "time": 136, "note": 68, "velocity": 102, "channel": 0}, {"type": "note_on", "time": 37, "note": 65, "velocity": 89, "channel": 0}, {"type": "note_off", "time": 123, "note": 65, "velocity": 89, "channel": 0}, {"type": "note_on", "time": 17, "note": 68, "velocity": 100, "channel": 0}, {"type": "note_off", "time": 128, "note": 68, "velocity": 100, "channel": 0}, {"type": "note_on", "time": 10, "note": 72, "velocity": 105, "channel": 0}, {"type": "note_off", "time": 144, "note": 72, "velocity": 105, "channel": 0}, {"type": "note_on", "time": 32, "note": 69, "velocity": 91, "channel": 0}, {"type": "note_off", "time": 111, "note": 69, "velocity": 91, "channel": 0}, {"type": "note_on", "time": 2, "note": 72, "velocity": 101, "channel": 0}, {"type": "note_off", "time": 113, "note": 72, "velocity": 101, "channel": 0}, {"type": "note_on", "time": 27, "note": 69, "velocity": 105, "channel": 0}, {"type": "note_off", "time": 159, "note": 69, "velocity": 105, "channel": 0}, {"type": "note_on", "time": 5, "note": 65, "velocity": 93, "channel": 0}, {"type": "note_off", "time": 80, "note": 65, "velocity": 93, "channel": 0}, {"type": "note_on", "time": 17, "note": 62, "velocity": 89, "channel": 0}, {"type": "note_off", "time": 75, "note": 62, "velocity": 89, "channel": 0}, {"type": "note_on", "time": 945, "note": 67, "velocity": 106, "channel": 0}, {"type": "note_off", "time": 116, "note": 67, "velocity": 106, "channel": 0}, {"type": "note_on", "time": 10, "note": 68, "velocity": 109, "channel": 0}, {"type": "note_off", "time": 108, "note": 68, "velocity": 109, "channel": 0}, {"type": "note_on", "time": 40, "note": 64, "velocity": 104, "channel": 0}, {"type": "note_off", "time": 106, "note": 64, "velocity": 104, "channel": 0}, {"type": "note_on", "time": 22, "note": 68, "velocity": 108, "channel": 0}, {"type": "note_off", "time": 151, "note": 68, "velocity": 108, "channel": 0}, {"type": "note_on", "time": 27, "note": 64, "velocity": 103, "channel": 0}, {"type": "note_off", "time": 108, "note": 64, "velocity": 103, "channel": 0}, {"type": "note_on", "time": 12, "note": 59, "velocity": 93, "channel": 0}, {"type": "note_off", "time": 93, "note": 59, "velocity": 93, "channel": 0}, {"type": "note_on", "time": 424, "note": 67, "velocity": 105, "channel": 0}, {"type": "note_off", "time": 149, "note": 67, "velocity": 105, "channel": 0}, {"type": "note_on", "time": 5, "note": 63, "velocity": 97, "channel": 0}, {"type": "note_off", "time": 101, "note": 63, "velocity": 97, "channel": 0}, {"type": "note_on", "time": 10, "note": 67, "velocity": 107, "channel": 0}, {"type": "note_off", "time": 139, "note": 67, "velocity": 107, "channel": 0}, {"type": "note_on", "time": 12, "note": 63, "velocity": 112, "channel": 0}, {"type": "note_off", "time": 121, "note": 63, "velocity": 112, "channel": 0}, {"type": "note_on", "time": 27, "note": 60, "velocity": 100, "channel": 0}, {"type": "note_off", "time": 106, "note": 60, "velocity": 100, "channel": 0}, {"type": "note_on", "time": 15, "note": 56, "velocity": 85, "channel": 0}, {"type": "note_off", "time": 118, "note": 56, "velocity": 85, "channel": 0}, {"type": "note_on", "time": 48, "note": 65, "velocity": 108, "channel": 0}, {"type": "note_off", "time": 166, "note": 65, "velocity": 108, "channel": 0}, {"type": "note_on", "time": 2, "note": 62, "velocity": 92, "channel": 0}, {"type": "note_off", "time": 96, "note": 62, "velocity": 92, "channel": 0}, {"type": "note_on", "time": 32, "note": 65, "velocity": 103, "channel": 0}, {"type": "note_off", "time": 128, "note": 65, "velocity": 103, "channel": 0}, {"type": "note_on", "time": 0, "note": 62, "velocity": 101, "channel": 0}, {"type": "note_off", "time": 151, "note": 62, "velocity": 101, "channel": 0}, {"type": "note_on", "time": 257, "note": 63, "velocity": 109, "channel": 0}, {"type": "note_off", "time": 174, "note": 63, "velocity": 109, "channel": 0}, {"type": "note_on", "time": 0, "note": 60, "velocity": 89, "channel": 0}, {"type": "note_off", "time": 88, "note": 60, "velocity": 89, "channel": 0}, {"type": "note_on", "time": 17, "note": 63, "velocity": 108, "channel": 0}, {"type": "note_off", "time": 149, "note": 63, "velocity": 108, "channel": 0}, {"type": "note_on", "time": 2, "note": 60, "velocity": 89, "channel": 0}, {"type": "note_off", "time": 96, "note": 60, "velocity": 89, "channel": 0}, {"type": "note_on", "time": 245, "note": 57, "velocity": 100, "channel": 0}, {"type": "note_off", "time": 82, "note": 57, "velocity": 100, "channel": 0}, {"type": "note_on", "time": 0, "note": 61, "velocity": 102, "channel": 0}, {"type": "note_off", "time": 169, "note": 61, "velocity": 102, "channel": 0}, {"type": "note_on", "time": 65, "note": 61, "velocity": 102, "channel": 0}, {"type": "note_off", "time": 146, "note": 61, "velocity": 102, "channel": 0}, {"type": "note_on", "time": 10, "note": 65, "velocity": 108, "channel": 0}, {"type": "note_off", "time": 151, "note": 65, "velocity": 108, "channel": 0}, {"type": "note_on", "time": 27, "note": 61, "velocity": 94, "channel": 0}, {"type": "note_off", "time": 106, "note": 61, "velocity": 94, "channel": 0}, {"type": "note_on", "time": 0, "note": 65, "velocity": 104, "channel": 0}, {"type": "note_off", "time": 154, "note": 65, "velocity": 104, "channel": 0}, {"type": "note_on", "time": 0, "note": 69, "velocity": 108, "channel": 0}, {"type": "note_off", "time": 136, "note": 69, "velocity": 108, "channel": 0}, {"type": "note_on", "time": 20, "note": 65, "velocity": 87, "channel": 0}, {"type": "note_off", "time": 113, "note": 65, "velocity": 87, "channel": 0}, {"type": "note_on", "time": 0, "note": 69, "velocity": 111, "channel": 0}, {"type": "note_off", "time": 134, "note": 69, "velocity": 111, "channel": 0}, {"type": "note_on", "time": 10, "note": 65, "velocity": 102, "channel": 0}, {"type": "note_off", "time": 144, "note": 65, "velocity": 102, "channel": 0}, {"type": "note_on", "time": 15, "note": 62, "velocity": 95, "channel": 0}, {"type": "note_off", "time": 111, "note": 62, "velocity": 95, "channel": 0}, {"type": "note_on", "time": 11, "note": 60, "velocity": 83, "channel": 0}, {"type": "note_off", "time": 140, "note": 60, "velocity": 83, "channel": 0}, {"type": "note_on", "time": 25, "note": 67, "velocity": 101, "channel": 0}, {"type": "note_off", "time": 144, "note": 67, "velocity": 101, "channel": 0}, {"type": "note_on", "time": 20, "note": 63, "velocity": 101, "channel": 0}, {"type": "note_off", "time": 85, "note": 63, "velocity": 101, "channel": 0}, {"type": "note_on", "time": 42, "note": 67, "velocity": 101, "channel": 0}, {"type": "note_off", "time": 118, "note": 67, "velocity": 101, "channel": 0}, {"type": "note_on", "time": 11, "note": 63, "velocity": 109, "channel": 0}, {"type": "note_off", "time": 104, "note": 63, "velocity": 109, "channel": 0}, {"type": "note_on", "time": 17, "note": 60, "velocity": 94, "channel": 0}, {"type": "note_off", "time": 100, "note": 60, "velocity": 94, "channel": 0}, {"type": "note_on", "time": 17, "note": 58, "velocity": 94, "channel": 0}, {"type": "note_off", "time": 133, "note": 58, "velocity": 94, "channel": 0}, {"type": "note_on", "time": 64, "note": 65, "velocity": 101, "channel": 0}, {"type": "note_off", "time": 156, "note": 65, "velocity": 101, "channel": 0}, {"type": "note_on", "time": 0, "note": 62, "velocity": 93, "channel": 0}, {"type": "note_off", "time": 91, "note": 62, "velocity": 93, "channel": 0}, {"type": "note_on", "time": 25, "note": 65, "velocity": 100, "channel": 0}, {"type": "note_off", "time": 136, "note": 65, "velocity": 100, "channel": 0}, {"type": "note_on", "time": 4, "note": 62, "velocity": 101, "channel": 0}, {"type": "note_off", "time": 118, "note": 62, "velocity": 101, "channel": 0}, {"type": "note_on", "time": 7, "note": 60, "velocity": 84, "channel": 0}, {"type": "note_off", "time": 122, "note": 60, "velocity": 84, "channel": 0}, {"type": "note_on", "time": 7, "note": 58, "velocity": 92, "channel": 0}, {"type": "note_off", "time": 129, "note": 58, "velocity": 92, "channel": 0}, {"type": "note_on", "time": 20, "note": 63, "velocity": 106, "channel": 0}, {"type": "note_off", "time": 270, "note": 63, "velocity": 106, "channel": 0}, {"type": "note_on", "time": 1233, "note": 61, "velocity": 102, "channel": 0}, {"type": "note_off", "time": 131, "note": 61, "velocity": 102, "channel": 0}, {"type": "note_on", "time": 25, "note": 62, "velocity": 111, "channel": 0}, {"type": "note_off", "time": 136, "note": 62, "velocity": 111, "channel": 0}, {"type": "note_on", "time": 2, "note": 63, "velocity": 103, "channel": 0}, {"type": "note_off", "time": 30, "note": 63, "velocity": 103, "channel": 0}, {"type": "note_on", "time": 5, "note": 65, "velocity": 110, "channel": 0}, {"type": "note_off", "time": 60, "note": 65, "velocity": 110, "channel": 0}, {"type": "note_on", "time": 5, "note": 67, "velocity": 110, "channel": 0}, {"type": "note_off", "time": 55, "note": 67, "velocity": 110, "channel": 0}, {"type": "note_on", "time": 10, "note": 68, "velocity": 111, "channel": 0}, {"type": "note_off", "time": 103, "note": 68, "velocity": 111, "channel": 0}, {"type": "note_on", "time": 2, "note": 67, "velocity": 105, "channel": 0}, {"type": "note_off", "time": 88, "note": 67, "velocity": 105, "channel": 0}, {"type": "note_on", "time": 0, "note": 65, "velocity": 102, "channel": 0}, {"type": "note_off", "time": 657, "note": 65, "velocity": 102, "channel": 0}, {"type": "note_on", "time": 17, "note": 62, "velocity": 97, "channel": 0}, {"type": "note_off", "time": 91, "note": 62, "velocity": 97, "channel": 0}, {"type": "note_on", "time": 0, "note": 63, "velocity": 104, "channel": 0}, {"type": "note_off", "time": 146, "note": 63, "velocity": 104, "channel": 0}, {"type": "note_on", "time": 27, "note": 65, "velocity": 102, "channel": 0}, {"type": "note_off", "time": 60, "note": 65, "velocity": 102, "channel": 0}, {"type": "note_on", "time": 12, "note": 67, "velocity": 99, "channel": 0}, {"type": "note_off", "time": 141, "note": 67, "velocity": 99, "channel": 0}, {"type": "note_on", "time": 0, "note": 68, "velocity": 100, "channel": 0}, {"type": "note_off", "time": 91, "note": 68, "velocity": 100, "channel": 0}, {"type": "note_on", "time": 2, "note": 69, "velocity": 103, "channel": 0}, {"type": "note_off", "time": 48, "note": 69, "velocity": 103, "channel": 0}, {"type": "note_on", "time": 0, "note": 70, "velocity": 104, "channel": 0}, {"type": "note_off", "time": 101, "note": 70, "velocity": 104, "channel": 0}, {"type": "note_on", "time": 5, "note": 72, "velocity": 102, "channel": 0}, {"type": "note_off", "time": 85, "note": 72, "velocity": 102, "channel": 0}, {"type": "note_on", "time": 7, "note": 73, "velocity": 106, "channel": 0}, {"type": "note_off", "time": 98, "note": 73, "velocity": 106, "channel": 0}, {"type": "note_on", "time": 0, "note": 72, "velocity": 103, "channel": 0}, {"type": "note_on", "time": 85, "note": 71, "velocity": 98, "channel": 0}, {"type": "note_off", "time": 0, "note": 72, "velocity": 103, "channel": 0}, {"type": "note_off", "time": 50, "note": 71, "velocity": 98, "channel": 0}, {"type": "note_on", "time": 5, "note": 70, "velocity": 104, "channel": 0}, {"type": "note_off", "time": 139, "note": 70, "velocity": 104, "channel": 0}, {"type": "note_on", "time": 2627, "note": 65, "velocity": 111, "channel": 0}, {"type": "note_off", "time": 98, "note": 65, "velocity": 111, "channel": 0}, {"type": "note_on", "time": 27, "note": 67, "velocity": 101, "channel": 0}, {"type": "note_off", "time": 750, "note": 67, "velocity": 101, "channel": 0}, {"type": "note_on", "time": 35, "note": 65, "velocity": 105, "channel": 0}, {"type": "note_off", "time": 123, "note": 65, "velocity": 105, "channel": 0}, {"type": "note_on", "time": 27, "note": 63, "velocity": 111, "channel": 0}, {"type": "note_off", "time": 260, "note": 63, "velocity": 111, "channel": 0}, {"type": "note_on", "time": 22, "note": 58, "velocity": 86, "channel": 0}, {"type": "note_off", "time": 101, "note": 58, "velocity": 86, "channel": 0}, {"type": "note_on", "time": 5, "note": 62, "velocity": 101, "channel": 0}, {"type": "note_off", "time": 230, "note": 62, "velocity": 101, "channel": 0}, {"type": "note_on", "time": 37, "note": 65, "velocity": 105, "channel": 0}, {"type": "note_off", "time": 177, "note": 65, "velocity": 105, "channel": 0}, {"type": "note_on", "time": 5, "note": 63, "velocity": 99, "channel": 0}, {"type": "note_off", "time": 199, "note": 63, "velocity": 99, "channel": 0}, {"type": "note_on", "time": 20, "note": 65, "velocity": 103, "channel": 0}, {"type": "note_off", "time": 174, "note": 65, "velocity": 103, "channel": 0}, {"type": "note_on", "time": 0, "note": 67, "velocity": 99, "channel": 0}, {"type": "note_off", "time": 189, "note": 67, "velocity": 99, "channel": 0}, {"type": "note_on", "time": 65, "note": 70, "velocity": 105, "channel": 0}, {"type": "note_off", "time": 144, "note": 70, "velocity": 105, "channel": 0}, {"type": "note_on", "time": 42, "note": 72, "velocity": 104, "channel": 0}, {"type": "note_off", "time": 164, "note": 72, "velocity": 104, "channel": 0}, {"type": "note_on", "time": 27, "note": 73, "velocity": 106, "channel": 0}, {"type": "note_off", "time": 209, "note": 73, "velocity": 106, "channel": 0}, {"type": "note_on", "time": 32, "note": 69, "velocity": 106, "channel": 0}, {"type": "note_off", "time": 194, "note": 69, "velocity": 106, "channel": 0}, {"type": "note_on", "time": 189, "note": 70, "velocity": 109, "channel": 0}, {"type": "note_off", "time": 214, "note": 70, "velocity": 109, "channel": 0}, {"type": "note_on", "time": 103, "note": 67, "velocity": 97, "channel": 0}, {"type": "note_off", "time": 141, "note": 67, "velocity": 97, "channel": 0}, {"type": "note_on", "time": 40, "note": 64, "velocity": 102, "channel": 0}, {"type": "note_off", "time": 189, "note": 64, "velocity": 102, "channel": 0}, {"type": "note_on", "time": 17, "note": 61, "velocity": 96, "channel": 0}, {"type": "note_off", "time": 134, "note": 61, "velocity": 96, "channel": 0}, {"type": "note_on", "time": 58, "note": 69, "velocity": 102, "channel": 0}, {"type": "note_off", "time": 83, "note": 69, "velocity": 102, "channel": 0}, {"type": "note_on", "time": 22, "note": 70, "velocity": 97, "channel": 0}, {"type": "note_off", "time": 116, "note": 70, "velocity": 97, "channel": 0}, {"type": "note_on", "time": 10, "note": 69, "velocity": 103, "channel": 0}, {"type": "note_off", "time": 93, "note": 69, "velocity": 103, "channel": 0}, {"type": "note_on", "time": 7, "note": 67, "velocity": 97, "channel": 0}, {"type": "note_off", "time": 111, "note": 67, "velocity": 97, "channel": 0}, {"type": "note_on", "time": 22, "note": 65, "velocity": 104, "channel": 0}, {"type": "note_off", "time": 169, "note": 65, "velocity": 104, "channel": 0}, {"type": "note_on", "time": 50, "note": 63, "velocity": 109, "channel": 0}, {"type": "note_off", "time": 171, "note": 63, "velocity": 109, "channel": 0}, {"type": "note_on", "time": 27, "note": 62, "velocity": 101, "channel": 0}, {"type": "note_off", "time": 192, "note": 62, "velocity": 101, "channel": 0}, {"type": "note_on", "time": 15, "note": 60, "velocity": 97, "channel": 0}, {"type": "note_off", "time": 151, "note": 60, "velocity": 97, "channel": 0}, {"type": "note_on", "time": 88, "note": 58, "velocity": 85, "channel": 0}, {"type": "note_off", "time": 149, "note": 58, "velocity": 85, "channel": 0}, {"type": "note_on", "time": 202, "note": 65, "velocity": 103, "channel": 0}, {"type": "note_off", "time": 75, "note": 65, "velocity": 103, "channel": 0}, {"type": "note_on", "time": 35, "note": 66, "velocity": 100, "channel": 0}, {"type": "note_off", "time": 42, "note": 66, "velocity": 100, "channel": 0}, {"type": "note_on", "time": 12, "note": 65, "velocity": 99, "channel": 0}, {"type": "note_off", "time": 68, "note": 65, "velocity": 99, "channel": 0}, {"type": "note_on", "time": 15, "note": 64, "velocity": 106, "channel": 0}, {"type": "note_off", "time": 209, "note": 64, "velocity": 106, "channel": 0}, {"type": "note_on", "time": 45, "note": 63, "velocity": 109, "channel": 0}, {"type": "note_off", "time": 204, "note": 63, "velocity": 109, "channel": 0}, {"type": "note_on", "time": 32, "note": 61, "velocity": 95, "channel": 0}, {"type": "note_off", "time": 197, "note": 61, "velocity": 95, "channel": 0}, {"type": "note_on", "time": 30, "note": 59, "velocity": 93, "channel": 0}, {"type": "note_off", "time": 141, "note": 59, "velocity": 93, "channel": 0}, {"type": "note_on", "time": 5, "note": 56, "velocity": 91, "channel": 0}, {"type": "note_off", "time": 164, "note": 56, "velocity": 91, "channel": 0}, {"type": "note_on", "time": 83, "note": 52, "velocity": 94, "channel": 0}, {"type": "note_off", "time": 146, "note": 52, "velocity": 94, "channel": 0}, {"type": "note_on", "time": 252, "note": 55, "velocity": 97, "channel": 0}, {"type": "note_off", "time": 189, "note": 55, "velocity": 97, "channel": 0}, {"type": "note_on", "time": 83, "note": 51, "velocity": 94, "channel": 0}, {"type": "note_off", "time": 197, "note": 51, "velocity": 94, "channel": 0}, {"type": "note_on", "time": 1911, "note": 62, "velocity": 113, "channel": 0}, {"type": "note_off", "time": 204, "note": 62, "velocity": 113, "channel": 0}, {"type": "note_on", "time": 30, "note": 57, "velocity": 93, "channel": 0}, {"type": "note_off", "time": 268, "note": 57, "velocity": 93, "channel": 0}, {"type": "note_on", "time": 42, "note": 61, "velocity": 104, "channel": 0}, {"type": "note_off", "time": 101, "note": 61, "velocity": 104, "channel": 0}, {"type": "note_on", "time": 5, "note": 62, "velocity": 108, "channel": 0}, {"type": "note_off", "time": 270, "note": 62, "velocity": 108, "channel": 0}, {"type": "note_on", "time": 35, "note": 58, "velocity": 96, "channel": 0}, {"type": "note_off", "time": 649, "note": 58, "velocity": 96, "channel": 0}, {"type": "note_on", "time": 5, "note": 56, "velocity": 100, "channel": 0}, {"type": "note_off", "time": 151, "note": 56, "velocity": 100, "channel": 0}, {"type": "note_on", "time": 128, "note": 59, "velocity": 99, "channel": 0}, {"type": "note_off", "time": 164, "note": 59, "velocity": 99, "channel": 0}, {"type": "note_on", "time": 7, "note": 63, "velocity": 113, "channel": 0}, {"type": "note_off", "time": 219, "note": 63, "velocity": 113, "channel": 0}, {"type": "note_on", "time": 17, "note": 59, "velocity": 98, "channel": 0}, {"type": "note_off", "time": 187, "note": 59, "velocity": 98, "channel": 0}, {"type": "note_on", "time": 25, "note": 55, "velocity": 93, "channel": 0}, {"type": "note_off", "time": 91, "note": 55, "velocity": 93, "channel": 0}, {"type": "note_on", "time": 96, "note": 60, "velocity": 90, "channel": 0}, {"type": "note_off", "time": 177, "note": 60, "velocity": 90, "channel": 0}, {"type": "note_on", "time": 488, "note": 58, "velocity": 91, "channel": 0}, {"type": "note_off", "time": 116, "note": 58, "velocity": 91, "channel": 0}, {"type": "note_on", "time": 63, "note": 57, "velocity": 88, "channel": 0}, {"type": "note_off", "time": 136, "note": 57, "velocity": 88, "channel": 0}, {"type": "end_of_track", "time": 0}]]}