{"ticks_per_beat": 9240, "tracks": [[{"type": "track_name", "name": "Melody", "time": 0}, {"type": "set_tempo", "tempo": 731707, "time": 0}, {"type": "key_signature", "key": "Eb", "time": 0}, {"type": "time_signature", "numerator": 4, "denominator": 4, "clocks_per_click": 24, "notated_32nd_notes_per_beat": 8, "time": 0}, {"type": "note_on", "time": 116989, "note": 67, "velocity": 119, "channel": 0}, {"type": "note_off", "time": 2020, "note": 67, "velocity": 119, "channel": 0}, {"type": "note_on", "time": 371, "note": 65, "velocity": 123, "channel": 0}, {"type": "note_off", "time": 1525, "note": 65, "velocity": 123, "channel": 0}, {"type": "note_on", "time": 164, "note": 63, "velocity": 121, "channel": 0}, {"type": "note_off", "time": 2432, "note": 63, "velocity": 121, "channel": 0}, {"type": "note_on", "time": 164, "note": 60, "velocity": 118, "channel": 0}, {"type": "note_off", "time": 2638, "note": 60, "velocity": 118, "channel": 0}, {"type": "note_on", "time": 82, "note": 56, "velocity": 112, "channel": 0}, {"type": "note_off", "time": 1773, "note": 56, "velocity": 112, "channel": 0}, {"type": "note_on", "time": 247, "note": 53, "velocity": 104, "channel": 0}, {"type": "note_off", "time": 824, "note": 53, "velocity": 104, "channel": 0}, {"type": "note_on", "time": 288, "note": 62, "velocity": 125, "channel": 0}, {"type": "note_off", "time": 2391, "note": 62, "velocity": 125, "channel": 0}, {"type": "note_on", "time": 164, "note": 60, "velocity": 116, "channel": 0}, {"type": "note_off", "time": 2432, "note": 60, "velocity": 116, "channel": 0}, {"type": "note_on", "time": 700, "note": 58, "velocity": 104, "channel": 0}, {"type": "note_off", "time": 2391, "note": 58, "velocity": 104, "channel": 0}, {"type": "note_on", "time": 1195, "note": 57, "velocity": 92, "channel": 0}, {"type": "note_on", "time": 1113, "note": 58, "velocity": 101, "channel": 0}, {"type": "note_off", "time": 0, "note": 57, "velocity": 92, "channel": 0}, {"type": "note_off", "time": 2267, "note": 58, "velocity": 101, "channel": 0}, {"type": "note_on", "time": 82, "note": 60, "velocity": 102, "channel": 0}, {"type": "note_off", "time": 1608, "note": 60, "velocity": 102, "channel": 0}, {"type": "note_on", "time": 164, "note": 62, "velocity": 125, "channel": 0}, {"type": "note_off", "time": 2680, "note": 62, "velocity": 125, "channel": 0}, {"type": "note_on", "time": 577, "note": 63, "velocity": 107, "channel": 0}, {"type": "note_off", "time": 1484, "note": 63, "velocity": 107, "channel": 0}, {"type": "note_on", "time": 206, "note": 65, "velocity": 108, "channel": 0}, {"type": "note_off", "time": 1360, "note": 65, "velocity": 108, "channel": 0}, {"type": "note_on", "time": 329, "note": 67, "velocity": 104, "channel": 0}, {"type": "note_off", "time": 1855, "note": 67, "velocity": 104, "channel": 0}, {"type": "note_on", "time": 719, "note": 68, "velocity": 119, "channel": 0}, {"type": "note_off", "time": 2345, "note": 68, "velocity": 119, "channel": 0}, {"type": "note_on", "time": 27, "note": 70, "velocity": 104, "channel": 0}, {"type": "note_off", "time": 8195, "note": 70, "velocity": 104, "channel": 0}, {"type": "note_on", "time": 340, "note": 67, "velocity": 108, "channel": 0}, {"type": "note_off", "time": 2144, "note": 67, "velocity": 108, "channel": 0}, {"type": "note_on", "time": 453, "note": 65, "velocity": 108, "channel": 0}, {"type": "note_off", "time": 1690, "note": 65, "velocity": 108, "channel": 0}, {"type": "note_on", "time": 164, "note": 63, "velocity": 108, "channel": 0}, {"type": "note_off", "time": 2309, "note": 63, "velocity": 108, "channel": 0}, {"type": "note_on", "time": 1092, "note": 61, "velocity": 110, "channel": 0}, {"type": "note_off", "time": 7525, "note": 61, "velocity": 110, "channel": 0}, {"type": "note_on", "time": 12329, "note": 67, "velocity": 118, "channel": 0}, {"type": "note_off", "time": 1814, "note": 67, "velocity": 118, "channel": 0}, {"type": "note_on", "time": 164, "note": 68, "velocity": 124, "channel": 0}, {"type": "note_off", "time": 2102, "note": 68, "velocity": 124, "channel": 0}, {"type": "note_on", "time": 0, "note": 67, "velocity": 114, "channel": 0}, {"type": "note_off", "time": 742, "note": 67, "velocity": 114, "channel": 0}, {"type": "note_on", "time": 731, "note": 65, "velocity": 114, "channel": 0}, {"type": "note_off", "time": 1597, "note": 65, "velocity": 114, "channel": 0}, {"type": "note_on", "time": 206, "note": 64, "velocity": 125, "channel": 0}, {"type": "note_off", "time": 2010, "note": 64, "velocity": 125, "channel": 0}, {"type": "note_on", "time": 257, "note": 60, "velocity": 109, "channel": 0}, {"type": "note_off", "time": 2010, "note": 60, "velocity": 109, "channel": 0}, {"type": "note_on", "time": 814, "note": 62, "velocity": 124, "channel": 0}, {"type": "note_off", "time": 2185, "note": 62, "velocity": 124, "channel": 0}, {"type": "note_on", "time": 505, "note": 64, "velocity": 121, "channel": 0}, {"type": "note_off", "time": 2010, "note": 64, "velocity": 121, "channel": 0}, {"type": "note_on", "time": 206, "note": 64, "velocity": 116, "channel": 0}, {"type": "note_off", "time": 2006, "note": 64, "velocity": 116, "channel": 0}, {"type": "note_on", "time": 0, "note": 65, "velocity": 110, "channel": 0}, {"type": "note_off", "time": 1979, "note": 65, "velocity": 110, "channel": 0}, {"type": "note_on", "time": 591, "note": 60, "velocity": 109, "channel": 0}, {"type": "note_off", "time": 3422, "note": 60, "velocity": 109, "channel": 0}, {"type": "note_on", "time": 82, "note": 58, "velocity": 97, "channel": 0}, {"type": "note_off", "time": 2185, "note": 58, "velocity": 97, "channel": 0}, {"type": "note_on", "time": 412, "note": 56, "velocity": 105, "channel": 0}, {"type": "note_off", "time": 1484, "note": 56, "velocity": 105, "channel": 0}, {"type": "note_on", "time": 123, "note": 59, "velocity": 99, "channel": 0}, {"type": "note_off", "time": 865, "note": 59, "velocity": 99, "channel": 0}, {"type": "note_on", "time": 206, "note": 60, "velocity": 93, "channel": 0}, {"type": "note_off", "time": 5236, "note": 60, "velocity": 93, "channel": 0}, {"type": "note_on", "time": 164, "note": 56, "velocity": 106, "channel": 0}, {"type": "note_off", "time": 2474, "note": 56, "velocity": 106, "channel": 0}, {"type": "note_on", "time": 41, "note": 55, "velocity": 95, "channel": 0}, {"type": "note_off", "time": 1649, "note": 55, "velocity": 95, "channel": 0}, {"type": "note_on", "time": 206, "note": 53, "velocity": 106, "channel": 0}, {"type": "note_off", "time": 1566, "note": 53, "velocity": 106, "channel": 0}, {"type": "note_on", "time": 206, "note": 58, "velocity": 97, "channel": 0}, {"type": "note_off", "time": 2185, "note": 58, "velocity": 97, "channel": 0}, {"type": "note_on", "time": 572, "note": 56, "velocity": 96, "channel": 0}, {"type": "note_off", "time": 6267, "note": 56, "velocity": 96, "channel": 0}, {"type": "note_on", "time": 8952, "note": 59, "velocity": 106, "channel": 0}, {"type": "note_off", "time": 2144, "note": 59, "velocity": 106, "channel": 0}, {"type": "note_on", "time": 123, "note": 58, "velocity": 105, "channel": 0}, {"type": "note_off", "time": 989, "note": 58, "velocity": 105, "channel": 0}, {"type": "note_on", "time": 206, "note": 59, "velocity": 98, "channel": 0}, {"type": "note_off", "time": 948, "note": 59, "velocity": 98, "channel": 0}, {"type": "note_on", "time": 41, "note": 61, "velocity": 115, "channel": 0}, {"type": "note_off", "time": 2350, "note": 61, "velocity": 115, "channel": 0}, {"type": "note_on", "time": 123, "note": 63, "velocity": 105, "channel": 0}, {"type": "note_off", "time": 536, "note": 63, "velocity": 105, "channel": 0}, {"type": "note_on", "time": 164, "note": 66, "velocity": 94, "channel": 0}, {"type": "note_off", "time": 618, "note": 66, "velocity": 94, "channel": 0}, {"type": "note_on", "time": 123, "note": 70, "velocity": 91, "channel": 0}, {"type": "note_off", "time": 618, "note": 70, "velocity": 91, "channel": 0}, {"type": "note_on", "time": 41, "note": 73, "velocity": 101, "channel": 0}, {"type": "note_off", "time": 2886, "note": 73, "velocity": 101, "channel": 0}, {"type": "note_on", "time": 2185, "note": 71, "velocity": 104, "channel": 0}, {"type": "note_off", "time": 1608, "note": 71, "velocity": 104, "channel": 0}, {"type": "note_on", "time": 0, "note": 70, "velocity": 109, "channel": 0}, {"type": "note_off", "time": 2267, "note": 70, "velocity": 109, "channel": 0}, {"type": "note_on", "time": 206, "note": 68, "velocity": 115, "channel": 0}, {"type": "note_off", "time": 2927, "note": 68, "velocity": 115, "channel": 0}, {"type": "note_on", "time": 41, "note": 66, "velocity": 103, "channel": 0}, {"type": "note_off", "time": 1855, "note": 66, "velocity": 103, "channel": 0}, {"type": "note_on", "time": 41, "note": 63, "velocity": 110, "channel": 0}, {"type": "note_off", "time": 2350, "note": 63, "velocity": 110, "channel": 0}, {"type": "note_on", "time": 422, "note": 61, "velocity": 116, "channel": 0}, {"type": "note_off", "time": 2886, "note": 61, "velocity": 116, "channel": 0}, {"type": "note_on", "time": 515, "note": 59, "velocity": 100, "channel": 0}, {"type": "note_off", "time": 3504, "note": 59, "velocity": 100, "channel": 0}, {"type": "note_on", "time": 4216, "note": 58, "velocity": 100, "channel": 0}, {"type": "note_off", "time": 2309, "note": 58, "velocity": 100, "channel": 0}, {"type": "note_on", "time": 164, "note": 59, "velocity": 94, "channel": 0}, {"type": "note_off", "time": 1814, "note": 59, "velocity": 94, "channel": 0}, {"type": "note_on", "time": 1979, "note": 63, "velocity": 112, "channel": 0}, {"type": "note_off", "time": 2762, "note": 63, "velocity": 112, "channel": 0}, {"type": "note_on", "time": 247, "note": 66, "velocity": 106, "channel": 0}, {"type": "note_off", "time": 2638, "note": 66, "velocity": 106, "channel": 0}, {"type": "note_on", "time": 164, "note": 68, "velocity": 103, "channel": 0}, {"type": "note_off", "time": 907, "note": 68, "velocity": 103, "channel": 0}, {"type": "note_on", "time": 412, "note": 70, "velocity": 107, "channel": 0}, {"type": "note_off", "time": 4288, "note": 70, "velocity": 107, "channel": 0}, {"type": "note_on", "time": 164, "note": 68, "velocity": 108, "channel": 0}, {"type": "note_off", "time": 1938, "note": 68, "velocity": 108, "channel": 0}, {"type": "note_on", "time": 2061, "note": 63, "velocity": 108, "channel": 0}, {"type": "note_off", "time": 2638, "note": 63, "velocity": 108, "channel": 0}, {"type": "note_on", "time": 82, "note": 65, "velocity": 102, "channel": 0}, {"type": "note_off", "time": 2226, "note": 65, "velocity": 102, "channel": 0}, {"type": "note_on", "time": 1030, "note": 67, "velocity": 100, "channel": 0}, {"type": "note_off", "time": 4824, "note": 67, "velocity": 100, "channel": 0}, {"type": "note_on", "time": 865, "note": 58, "velocity": 96, "channel": 0}, {"type": "note_off", "time": 1113, "note": 58, "velocity": 96, "channel": 0}, {"type": "note_on", "time": 206, "note": 57, "velocity": 93, "channel": 0}, {"type": "note_off", "time": 989, "note": 57, "velocity": 93, "channel": 0}, {"type": "note_on", "time": 123, "note": 58, "velocity": 97, "channel": 0}, {"type": "note_off", "time": 1072, "note": 58, "velocity": 97, "channel": 0}, {"type": "note_on", "time": 0, "note": 60, "velocity": 106, "channel": 0}, {"type": "note_off", "time": 1360, "note": 60, "velocity": 106, "channel": 0}, {"type": "note_on", "time": 0, "note": 62, "velocity": 116, "channel": 0}, {"type": "note_off", "time": 1360, "note": 62, "velocity": 116, "channel": 0}, {"type": "note_on", "time": 123, "note": 63, "velocity": 115, "channel": 0}, {"type": "note_off", "time": 742, "note": 63, "velocity": 115, "channel": 0}, {"type": "note_on", "time": 82, "note": 65, "velocity": 107, "channel": 0}, {"type": "note_off", "time": 742, "note": 65, "velocity": 107, "channel": 0}, {"type": "note_on", "time": 82, "note": 67, "velocity": 105, "channel": 0}, {"type": "note_off", "time": 1278, "note": 67, "velocity": 105, "channel": 0}, {"type": "note_on", "time": 10473, "note": 63, "velocity": 115, "channel": 0}, {"type": "note_off", "time": 2474, "note": 63, "velocity": 115, "channel": 0}, {"type": "note_on", "time": 340, "note": 65, "velocity": 104, "channel": 0}, {"type": "note_off", "time": 773, "note": 65, "velocity": 104, "channel": 0}, {"type": "note_on", "time": 360, "note": 68, "velocity": 107, "channel": 0}, {"type": "note_off", "time": 3041, "note": 68, "velocity": 107, "channel": 0}, {"type": "note_on", "time": 360, "note": 67, "velocity": 107, "channel": 0}, {"type": "note_off", "time": 2061, "note": 67, "velocity": 107, "channel": 0}, {"type": "note_on", "time": 72, "note": 64, "velocity": 117, "channel": 0}, {"type": "note_off", "time": 2638, "note": 64, "velocity": 117, "channel": 0}, {"type": "note_on", "time": 412, "note": 62, "velocity": 116, "channel": 0}, {"type": "note_off", "time": 1896, "note": 62, "velocity": 116, "channel": 0}, {"type": "note_on", "time": 2474, "note": 66, "velocity": 101, "channel": 0}, {"type": "note_off", "time": 742, "note": 66, "velocity": 101, "channel": 0}, {"type": "note_on", "time": 247, "note": 67, "velocity": 100, "channel": 0}, {"type": "note_off", "time": 2391, "note": 67, "velocity": 100, "channel": 0}, {"type": "note_on", "time": 103, "note": 63, "velocity": 112, "channel": 0}, {"type": "note_off", "time": 2577, "note": 63, "velocity": 112, "channel": 0}, {"type": "note_on", "time": 1896, "note": 63, "velocity": 115, "channel": 0}, {"type": "note_off", "time": 3793, "note": 63, "velocity": 115, "channel": 0}, {"type": "note_on", "time": 206, "note": 60, "velocity": 102, "channel": 0}, {"type": "note_off", "time": 3010, "note": 60, "velocity": 102, "channel": 0}, {"type": "note_on", "time": 2020, "note": 67, "velocity": 113, "channel": 0}, {"type": "note_off", "time": 2185, "note": 67, "velocity": 113, "channel": 0}, {"type": "note_on", "time": 41, "note": 65, "velocity": 110, "channel": 0}, {"type": "note_off", "time": 1855, "note": 65, "velocity": 110, "channel": 0}, {"type": "note_on", "time": 82, "note": 63, "velocity": 115, "channel": 0}, {"type": "note_off", "time": 2061, "note": 63, "velocity": 115, "channel": 0}, {"type": "note_on", "time": 164, "note": 60, "velocity": 109, "channel": 0}, {"type": "note_off", "time": 1443, "note": 60, "velocity": 109, "channel": 0}, {"type": "note_on", "time": 1288, "note": 62, "velocity": 125, "channel": 0}, {"type": "note_off", "time": 2216, "note": 62, "velocity": 125, "channel": 0}, {"type": "note_on", "time": 123, "note": 63, "velocity": 118, "channel": 0}, {"type": "note_off", "time": 1154, "note": 63, "velocity": 118, "channel": 0}, {"type": "note_on", "time": 1113, "note": 65, "velocity": 112, "channel": 0}, {"type": "note_off", "time": 1566, "note": 65, "velocity": 112, "channel": 0}, {"type": "note_on", "time": 164, "note": 67, "velocity": 112, "channel": 0}, {"type": "note_off", "time": 1360, "note": 67, "velocity": 112, "channel": 0}, {"type": "note_on", "time": 1030, "note": 68, "velocity": 119, "channel": 0}, {"type": "note_on", "time": 1896, "note": 69, "velocity": 115, "channel": 0}, {"type": "note_off", "time": 0, "note": 68, "velocity": 119, "channel": 0}, {"type": "note_off", "time": 948, "note": 69, "velocity": 115, "channel": 0}, {"type": "note_on", "time": 123, "note": 70, "velocity": 104, "channel": 0}, {"type": "note_off", "time": 11710, "note": 70, "velocity": 104, "channel": 0}, {"type": "note_on", "time": 10001, "note": 73, "velocity": 110, "channel": 0}, {"type": "note_off", "time": 2015, "note": 73, "velocity": 110, "channel": 0}, {"type": "note_on", "time": 33, "note": 72, "velocity": 116, "channel": 0}, {"type": "note_off", "time": 721, "note": 72, "velocity": 116, "channel": 0}, {"type": "note_on", "time": 438, "note": 71, "velocity": 111, "channel": 0}, {"type": "note_off", "time": 1288, "note": 71, "velocity": 111, "channel": 0}, {"type": "note_on", "time": 824, "note": 66, "velocity": 109, "channel": 0}, {"type": "note_off", "time": 1649, "note": 66, "velocity": 109, "channel": 0}, {"type": "note_on", "time": 180, "note": 62, "velocity": 118, "channel": 0}, {"type": "note_off", "time": 1896, "note": 62, "velocity": 118, "channel": 0}, {"type": "note_on", "time": 164, "note": 61, "velocity": 117, "channel": 0}, {"type": "note_off", "time": 2226, "note": 61, "velocity": 117, "channel": 0}, {"type": "note_on", "time": 123, "note": 59, "velocity": 98, "channel": 0}, {"type": "note_off", "time": 1566, "note": 59, "velocity": 98, "channel": 0}, {"type": "note_on", "time": 247, "note": 58, "velocity": 90, "channel": 0}, {"type": "note_off", "time": 5607, "note": 58, "velocity": 90, "channel": 0}, {"type": "note_on", "time": 432, "note": 63, "velocity": 109, "channel": 0}, {"type": "note_off", "time": 1597, "note": 63, "velocity": 109, "channel": 0}, {"type": "note_on", "time": 17266, "note": 62, "velocity": 117, "channel": 0}, {"type": "note_off", "time": 3010, "note": 62, "velocity": 117, "channel": 0}, {"type": "note_on", "time": 164, "note": 63, "velocity": 115, "channel": 0}, {"type": "note_off", "time": 2350, "note": 63, "velocity": 115, "channel": 0}, {"type": "note_on", "time": 41, "note": 62, "velocity": 116, "channel": 0}, {"type": "note_off", "time": 2102, "note": 62, "velocity": 116, "channel": 0}, {"type": "note_on", "time": 164, "note": 60, "velocity": 109, "channel": 0}, {"type": "note_off", "time": 2319, "note": 60, "velocity": 109, "channel": 0}, {"type": "note_on", "time": 360, "note": 61, "velocity": 109, "channel": 0}, {"type": "note_off", "time": 8246, "note": 61, "velocity": 109, "channel": 0}, {"type": "note_on", "time": 206, "note": 60, "velocity": 107, "channel": 0}, {"type": "note_off", "time": 907, "note": 60, "velocity": 107, "channel": 0}, {"type": "note_on", "time": 247, "note": 61, "velocity": 114, "channel": 0}, {"type": "note_off", "time": 1278, "note": 61, "velocity": 114, "channel": 0}, {"type": "note_on", "time": 41, "note": 62, "velocity": 117, "channel": 0}, {"type": "note_off", "time": 824, "note": 62, "velocity": 117, "channel": 0}, {"type": "note_on", "time": 82, "note": 63, "velocity": 113, "channel": 0}, {"type": "note_off", "time": 1195, "note": 63, "velocity": 113, "channel": 0}, {"type": "note_on", "time": 123, "note": 62, "velocity": 110, "channel": 0}, {"type": "note_off", "time": 1072, "note": 62, "velocity": 110, "channel": 0}, {"type": "note_on", "time": 41, "note": 64, "velocity": 110, "channel": 0}, {"type": "note_off", "time": 865, "note": 64, "velocity": 110, "channel": 0}, {"type": "note_on", "time": 82, "note": 66, "velocity": 102, "channel": 0}, {"type": "note_off", "time": 494, "note": 66, "velocity": 102, "channel": 0}, {"type": "note_on", "time": 41, "note": 67, "velocity": 103, "channel": 0}, {"type": "note_off", "time": 2432, "note": 67, "velocity": 103, "channel": 0}, {"type": "note_on", "time": 2278, "note": 69, "velocity": 116, "channel": 0}, {"type": "note_off", "time": 1649, "note": 69, "velocity": 116, "channel": 0}, {"type": "note_on", "time": 1515, "note": 70, "velocity": 111, "channel": 0}, {"type": "note_off", "time": 1773, "note": 70, "velocity": 111, "channel": 0}, {"type": "note_on", "time": 474, "note": 72, "velocity": 106, "channel": 0}, {"type": "note_off", "time": 1391, "note": 72, "velocity": 106, "channel": 0}, {"type": "note_on", "time": 855, "note": 73, "velocity": 106, "channel": 0}, {"type": "note_off", "time": 2680, "note": 73, "velocity": 106, "channel": 0}, {"type": "note_on", "time": 41, "note": 72, "velocity": 107, "channel": 0}, {"type": "note_off", "time": 2102, "note": 72, "velocity": 107, "channel": 0}, {"type": "note_on", "time": 1566, "note": 60, "velocity": 98, "channel": 0}, {"type": "note_off", "time": 11050, "note": 60, "velocity": 98, "channel": 0}, {"type": "note_on", "time": 12164, "note": 53, "velocity": 100, "channel": 0}, {"type": "note_off", "time": 742, "note": 53, "velocity": 100, "channel": 0}, {"type": "note_on", "time": 164, "note": 56, "velocity": 106, "channel": 0}, {"type": "note_off", "time": 1566, "note": 56, "velocity": 106, "channel": 0}, {"type": "note_on", "time": 123, "note": 60, "velocity": 109, "channel": 0}, {"type": "note_off", "time": 2102, "note": 60, "velocity": 109, "channel": 0}, {"type": "note_on", "time": 1401, "note": 63, "velocity": 110, "channel": 0}, {"type": "note_off", "time": 1195, "note": 63, "velocity": 110, "channel": 0}, {"type": "note_on", "time": 164, "note": 66, "velocity": 117, "channel": 0}, {"type": "note_off", "time": 865, "note": 66, "velocity": 117, "channel": 0}, {"type": "note_on", "time": 41, "note": 70, "velocity": 114, "channel": 0}, {"type": "note_off", "time": 3793, "note": 70, "velocity": 114, "channel": 0}, {"type": "note_on", "time": 206, "note": 68, "velocity": 109, "channel": 0}, {"type": "note_off", "time": 2474, "note": 68, "velocity": 109, "channel": 0}, {"type": "note_on", "time": 1814, "note": 67, "velocity": 108, "channel": 0}, {"type": "note_off", "time": 1237, "note": 67, "velocity": 108, "channel": 0}, {"type": "note_on", "time": 0, "note": 68, "velocity": 114, "channel": 0}, {"type": "note_off", "time": 3504, "note": 68, "velocity": 114, "channel": 0}, {"type": "note_on", "time": 41, "note": 63, "velocity": 109, "channel": 0}, {"type": "note_off", "time": 8700, "note": 63, "velocity": 109, "channel": 0}, {"type": "note_on", "time": 577, "note": 61, "velocity": 121, "channel": 0}, {"type": "note_off", "time": 2731, "note": 61, "velocity": 121, "channel": 0}, {"type": "note_on", "time": 255, "note": 58, "velocity": 95, "channel": 0}, {"type": "note_off", "time": 2226, "note": 58, "velocity": 95, "channel": 0}, {"type": "note_on", "time": 192, "note": 51, "velocity": 87, "channel": 0}, {"type": "note_off", "time": 4247, "note": 51, "velocity": 87, "channel": 0}, {"type": "note_on", "time": 737, "note": 56, "velocity": 90, "channel": 0}, {"type": "note_off", "time": 659, "note": 56, "velocity": 90, "channel": 0}, {"type": "note_on", "time": 123, "note": 58, "velocity": 99, "channel": 0}, {"type": "note_off", "time": 3257, "note": 58, "velocity": 99, "channel": 0}, {"type": "note_on", "time": 164, "note": 56, "velocity": 97, "channel": 0}, {"type": "note_off", "time": 7133, "note": 56, "velocity": 97, "channel": 0}, {"type": "note_on", "time": 8782, "note": 59, "velocity": 102, "channel": 0}, {"type": "note_off", "time": 2010, "note": 59, "velocity": 102, "channel": 0}, {"type": "note_on", "time": 257, "note": 63, "velocity": 116, "channel": 0}, {"type": "note_off", "time": 1855, "note": 63, "velocity": 116, "channel": 0}, {"type": "note_on", "time": 1649, "note": 66, "velocity": 109, "channel": 0}, {"type": "note_off", "time": 1958, "note": 66, "velocity": 109, "channel": 0}, {"type": "note_on", "time": 1391, "note": 69, "velocity": 114, "channel": 0}, {"type": "note_off", "time": 1597, "note": 69, "velocity": 114, "channel": 0}, {"type": "note_on", "time": 51, "note": 70, "velocity": 107, "channel": 0}, {"type": "note_off", "time": 463, "note": 70, "velocity": 107, "channel": 0}, {"type": "note_on", "time": 51, "note": 72, "velocity": 107, "channel": 0}, {"type": "note_off", "time": 566, "note": 72, "velocity": 107, "channel": 0}, {"type": "note_on", "time": 350, "note": 73, "velocity": 115, "channel": 0}, {"type": "note_off", "time": 2565, "note": 73, "velocity": 115, "channel": 0}, {"type": "note_on", "time": 219, "note": 71, "velocity": 103, "channel": 0}, {"type": "note_off", "time": 1979, "note": 71, "velocity": 103, "channel": 0}, {"type": "note_on", "time": 219, "note": 70, "velocity": 112, "channel": 0}, {"type": "note_off", "time": 2492, "note": 70, "velocity": 112, "channel": 0}, {"type": "note_on", "time": 934, "note": 68, "velocity": 117, "channel": 0}, {"type": "note_off", "time": 2556, "note": 68, "velocity": 117, "channel": 0}, {"type": "note_on", "time": 247, "note": 63, "velocity": 112, "channel": 0}, {"type": "note_off", "time": 2267, "note": 63, "velocity": 112, "channel": 0}, {"type": "note_on", "time": 700, "note": 59, "velocity": 98, "channel": 0}, {"type": "note_off", "time": 1907, "note": 59, "velocity": 98, "channel": 0}, {"type": "note_on", "time": 255, "note": 58, "velocity": 94, "channel": 0}, {"type": "note_off", "time": 2061, "note": 58, "velocity": 94, "channel": 0}, {"type": "note_on", "time": 105, "note": 68, "velocity": 117, "channel": 0}, {"type": "note_off", "time": 2515, "note": 68, "velocity": 117, "channel": 0}, {"type": "note_on", "time": 123, "note": 67, "velocity": 106, "channel": 0}, {"type": "note_off", "time": 1896, "note": 67, "velocity": 106, "channel": 0}, {"type": "note_on", "time": 288, "note": 62, "velocity": 113, "channel": 0}, {"type": "note_off", "time": 1773, "note": 62, "velocity": 113, "channel": 0}, {"type": "note_on", "time": 329, "note": 65, "velocity": 111, "channel": 0}, {"type": "note_off", "time": 2102, "note": 65, "velocity": 111, "channel": 0}, {"type": "note_on", "time": 0, "note": 63, "velocity": 110, "channel": 0}, {"type": "note_off", "time": 1525, "note": 63, "velocity": 110, "channel": 0}, {"type": "note_on", "time": 164, "note": 62, "velocity": 108, "channel": 0}, {"type": "note_off", "time": 1237, "note": 62, "velocity": 108, "channel": 0}, {"type": "note_on", "time": 0, "note": 63, "velocity": 103, "channel": 0}, {"type": "note_off", "time": 659, "note": 63, "velocity": 103, "channel": 0}, {"type": "note_on", "time": 316, "note": 67, "velocity": 75, "channel": 0}, {"type": "note_off", "time": 806, "note": 67, "velocity": 75, "channel": 0}, {"type": "note_on", "time": 146, "note": 70, "velocity": 113, "channel": 0}, {"type": "note_off", "time": 989, "note": 70, "velocity": 113, "channel": 0}, {"type": "note_on", "time": 586, "note": 72, "velocity": 99, "channel": 0}, {"type": "note_off", "time": 1494, "note": 72, "velocity": 99, "channel": 0}, {"type": "note_on", "time": 741, "note": 75, "velocity": 99, "channel": 0}, {"type": "note_off", "time": 2629, "note": 75, "velocity": 99, "channel": 0}, {"type": "note_on", "time": 0, "note": 73, "velocity": 104, "channel": 0}, {"type": "note_off", "time": 2391, "note": 73, "velocity": 104, "channel": 0}, {"type": "note_on", "time": 19751, "note": 72, "velocity": 109, "channel": 0}, {"type": "note_off", "time": 5071, "note": 72, "velocity": 109, "channel": 0}, {"type": "note_on", "time": 0, "note": 71, "velocity": 105, "channel": 0}, {"type": "note_off", "time": 1237, "note": 71, "velocity": 105, "channel": 0}, {"type": "note_on", "time": 0, "note": 70, "velocity": 106, "channel": 0}, {"type": "note_off", "time": 1030, "note": 70, "velocity": 106, "channel": 0}, {"type": "note_on", "time": 41, "note": 69, "velocity": 114, "channel": 0}, {"type": "note_off", "time": 2474, "note": 69, "velocity": 114, "channel": 0}, {"type": "note_on", "time": 1278, "note": 70, "velocity": 116, "channel": 0}, {"type": "note_off", "time": 2309, "note": 70, "velocity": 116, "channel": 0}, {"type": "note_on", "time": 82, "note": 69, "velocity": 113, "channel": 0}, {"type": "note_off", "time": 536, "note": 69, "velocity": 113, "channel": 0}, {"type": "note_on", "time": 41, "note": 68, "velocity": 120, "channel": 0}, {"type": "note_off", "time": 3422, "note": 68, "velocity": 120, "channel": 0}, {"type": "note_on", "time": 1731, "note": 70, "velocity": 115, "channel": 0}, {"type": "note_off", "time": 1979, "note": 70, "velocity": 115, "channel": 0}, {"type": "note_on", "time": 82, "note": 69, "velocity": 118, "channel": 0}, {"type": "note_off", "time": 618, "note": 69, "velocity": 118, "channel": 0}, {"type": "note_on", "time": 123, "note": 68, "velocity": 124, "channel": 0}, {"type": "note_off", "time": 824, "note": 68, "velocity": 124, "channel": 0}, {"type": "note_on", "time": 123, "note": 67, "velocity": 111, "channel": 0}, {"type": "note_off", "time": 1690, "note": 67, "velocity": 111, "channel": 0}, {"type": "note_on", "time": 123, "note": 68, "velocity": 123, "channel": 0}, {"type": "note_off", "time": 1154, "note": 68, "velocity": 123, "channel": 0}, {"type": "note_on", "time": 123, "note": 67, "velocity": 114, "channel": 0}, {"type": "note_off", "time": 783, "note": 67, "velocity": 114, "channel": 0}, {"type": "note_on", "time": 123, "note": 65, "velocity": 111, "channel": 0}, {"type": "note_off", "time": 2102, "note": 65, "velocity": 111, "channel": 0}, {"type": "note_on", "time": 494, "note": 67, "velocity": 108, "channel": 0}, {"type": "note_off", "time": 1072, "note": 67, "velocity": 108, "channel": 0}, {"type": "note_on", "time": 41, "note": 65, "velocity": 109, "channel": 0}, {"type": "note_off", "time": 742, "note": 65, "velocity": 109, "channel": 0}, {"type": "note_on", "time": 164, "note": 64, "velocity": 117, "channel": 0}, {"type": "note_off", "time": 659, "note": 64, "velocity": 117, "channel": 0}, {"type": "note_on", "time": 206, "note": 63, "velocity": 123, "channel": 0}, {"type": "note_off", "time": 2102, "note": 63, "velocity": 123, "channel": 0}, {"type": "note_on", "time": 1319, "note": 63, "velocity": 122, "channel": 0}, {"type": "note_off", "time": 2845, "note": 63, "velocity": 122, "channel": 0}, {"type": "note_on", "time": 1525, "note": 63, "velocity": 118, "channel": 0}, {"type": "note_off", "time": 10679, "note": 63, "velocity": 118, "channel": 0}, {"type": "note_on", "time": 4700, "note": 68, "velocity": 120, "channel": 0}, {"type": "note_off", "time": 1319, "note": 68, "velocity": 120, "channel": 0}, {"type": "note_on", "time": 416, "note": 70, "velocity": 122, "channel": 0}, {"type": "note_on", "time": 952, "note": 69, "velocity": 118, "channel": 0}, {"type": "note_off", "time": 0, "note": 70, "velocity": 122, "channel": 0}, {"type": "note_off", "time": 1062, "note": 69, "velocity": 118, "channel": 0}, {"type": "note_on", "time": 0, "note": 67, "velocity": 116, "channel": 0}, {"type": "note_off", "time": 1649, "note": 67, "velocity": 116, "channel": 0}, {"type": "note_on", "time": 82, "note": 66, "velocity": 114, "channel": 0}, {"type": "note_off", "time": 1195, "note": 66, "velocity": 114, "channel": 0}, {"type": "note_on", "time": 247, "note": 63, "velocity": 113, "channel": 0}, {"type": "note_off", "time": 948, "note": 63, "velocity": 113, "channel": 0}, {"type": "note_on", "time": 82, "note": 62, "velocity": 122, "channel": 0}, {"type": "note_off", "time": 1360, "note": 62, "velocity": 122, "channel": 0}, {"type": "note_on", "time": 0, "note": 60, "velocity": 112, "channel": 0}, {"type": "note_off", "time": 1608, "note": 60, "velocity": 112, "channel": 0}, {"type": "note_on", "time": 123, "note": 58, "velocity": 100, "channel": 0}, {"type": "note_off", "time": 2020, "note": 58, "velocity": 100, "channel": 0}, {"type": "note_on", "time": 1278, "note": 52, "velocity": 86, "channel": 0}, {"type": "note_off", "time": 865, "note": 52, "velocity": 86, "channel": 0}, {"type": "note_on", "time": 164, "note": 55, "velocity": 95, "channel": 0}, {"type": "note_off", "time": 907, "note": 55, "velocity": 95, "channel": 0}, {"type": "note_on", "time": 206, "note": 57, "velocity": 106, "channel": 0}, {"type": "note_off", "time": 1113, "note": 57, "velocity": 106, "channel": 0}, {"type": "note_on", "time": 256, "note": 54, "velocity": 100, "channel": 0}, {"type": "note_off", "time": 1310, "note": 54, "velocity": 100, "channel": 0}, {"type": "note_on", "time": 0, "note": 55, "velocity": 108, "channel": 0}, {"type": "note_off", "time": 989, "note": 55, "velocity": 108, "channel": 0}, {"type": "note_on", "time": 41, "note": 57, "velocity": 106, "channel": 0}, {"type": "note_off", "time": 1154, "note": 57, "velocity": 106, "channel": 0}, {"type": "note_on", "time": 0, "note": 58, "velocity": 102, "channel": 0}, {"type": "note_off", "time": 742, "note": 58, "velocity": 102, "channel": 0}, {"type": "note_on", "time": 41, "note": 60, "velocity": 108, "channel": 0}, {"type": "note_off", "time": 1278, "note": 60, "velocity": 108, "channel": 0}, {"type": "note_on", "time": 164, "note": 62, "velocity": 118, "channel": 0}, {"type": "note_off", "time": 742, "note": 62, "velocity": 118, "channel": 0}, {"type": "note_on", "time": 0, "note": 64, "velocity": 119, "channel": 0}, {"type": "note_off", "time": 1072, "note": 64, "velocity": 119, "channel": 0}, {"type": "note_on", "time": 0, "note": 65, "velocity": 107, "channel": 0}, {"type": "note_off", "time": 453, "note": 65, "velocity": 107, "channel": 0}, {"type": "note_on", "time": 0, "note": 66, "velocity": 105, "channel": 0}, {"type": "note_off", "time": 371, "note": 66, "velocity": 105, "channel": 0}, {"type": "note_on", "time": 41, "note": 67, "velocity": 108, "channel": 0}, {"type": "note_off", "time": 700, "note": 67, "velocity": 108, "channel": 0}, {"type": "note_on", "time": 206, "note": 69, "velocity": 117, "channel": 0}, {"type": "note_off", "time": 700, "note": 69, "velocity": 117, "channel": 0}, {"type": "note_on", "time": 0, "note": 70, "velocity": 103, "channel": 0}, {"type": "note_off", "time": 1608, "note": 70, "velocity": 103, "channel": 0}, {"type": "note_on", "time": 11803, "note": 70, "velocity": 114, "channel": 0}, {"type": "note_off", "time": 3762, "note": 70, "velocity": 114, "channel": 0}, {"type": "note_on", "time": 268, "note": 70, "velocity": 116, "channel": 0}, {"type": "note_off", "time": 1896, "note": 70, "velocity": 116, "channel": 0}, {"type": "note_on", "time": 164, "note": 72, "velocity": 113, "channel": 0}, {"type": "note_on", "time": 8824, "note": 67, "velocity": 110, "channel": 0}, {"type": "note_off", "time": 0, "note": 72, "velocity": 113, "channel": 0}, {"type": "note_off", "time": 2272, "note": 67, "velocity": 110, "channel": 0}, {"type": "note_on", "time": 4036, "note": 62, "velocity": 9, "channel": 0}, {"type": "note_off", "time": 1896, "note": 62, "velocity": 9, "channel": 0}, {"type": "note_on", "time": 164, "note": 64, "velocity": 120, "channel": 0}, {"type": "note_off", "time": 1072, "note": 64, "velocity": 120, "channel": 0}, {"type": "note_on", "time": 41, "note": 65, "velocity": 108, "channel": 0}, {"type": "note_off", "time": 11215, "note": 65, "velocity": 108, "channel": 0}, {"type": "note_on", "time": 41, "note": 63, "velocity": 111, "channel": 0}, {"type": "note_off", "time": 3339, "note": 63, "velocity": 111, "channel": 0}, {"type": "note_on", "time": 206, "note": 61, "velocity": 111, "channel": 0}, {"type": "note_off", "time": 1773, "note": 61, "velocity": 111, "channel": 0}, {"type": "note_on", "time": 257, "note": 62, "velocity": 113, "channel": 0}, {"type": "note_off", "time": 4278, "note": 62, "velocity": 113, "channel": 0}, {"type": "note_on", "time": 206, "note": 62, "velocity": 106, "channel": 0}, {"type": "note_off", "time": 9277, "note": 62, "velocity": 106, "channel": 0}, {"type": "note_on", "time": 7642, "note": 58, "velocity": 109, "channel": 0}, {"type": "note_off", "time": 2272, "note": 58, "velocity": 109, "channel": 0}, {"type": "note_on", "time": 293, "note": 55, "velocity": 102, "channel": 0}, {"type": "note_off", "time": 1979, "note": 55, "velocity": 102, "channel": 0}, {"type": "note_on", "time": 0, "note": 62, "velocity": 123, "channel": 0}, {"type": "note_off", "time": 2638, "note": 62, "velocity": 123, "channel": 0}, {"type": "note_on", "time": 18, "note": 60, "velocity": 114, "channel": 0}, {"type": "note_off", "time": 2102, "note": 60, "velocity": 114, "channel": 0}, {"type": "note_on", "time": 297, "note": 58, "velocity": 105, "channel": 0}, {"type": "note_off", "time": 2102, "note": 58, "velocity": 105, "channel": 0}, {"type": "note_on", "time": 96, "note": 55, "velocity": 101, "channel": 0}, {"type": "note_off", "time": 1461, "note": 55, "velocity": 101, "channel": 0}, {"type": "note_on", "time": 0, "note": 61, "velocity": 99, "channel": 0}, {"type": "note_off", "time": 1525, "note": 61, "velocity": 99, "channel": 0}, {"type": "note_on", "time": 41, "note": 62, "velocity": 109, "channel": 0}, {"type": "note_off", "time": 8329, "note": 62, "velocity": 109, "channel": 0}, {"type": "note_on", "time": 9937, "note": 54, "velocity": 110, "channel": 0}, {"type": "note_off", "time": 659, "note": 54, "velocity": 110, "channel": 0}, {"type": "note_on", "time": 164, "note": 56, "velocity": 104, "channel": 0}, {"type": "note_off", "time": 742, "note": 56, "velocity": 104, "channel": 0}, {"type": "note_on", "time": 123, "note": 61, "velocity": 102, "channel": 0}, {"type": "note_off", "time": 1319, "note": 61, "velocity": 102, "channel": 0}, {"type": "note_on", "time": 123, "note": 68, "velocity": 110, "channel": 0}, {"type": "note_off", "time": 1319, "note": 68, "velocity": 110, "channel": 0}, {"type": "note_on", "time": 41, "note": 71, "velocity": 103, "channel": 0}, {"type": "note_off", "time": 4659, "note": 71, "velocity": 103, "channel": 0}, {"type": "note_on", "time": 82, "note": 69, "velocity": 110, "channel": 0}, {"type": "note_off", "time": 1896, "note": 69, "velocity": 110, "channel": 0}, {"type": "note_on", "time": 82, "note": 68, "velocity": 115, "channel": 0}, {"type": "note_off", "time": 2020, "note": 68, "velocity": 115, "channel": 0}, {"type": "note_on", "time": 206, "note": 66, "velocity": 108, "channel": 0}, {"type": "note_off", "time": 2144, "note": 66, "velocity": 108, "channel": 0}, {"type": "note_on", "time": 41, "note": 65, "velocity": 110, "channel": 0}, {"type": "note_off", "time": 2061, "note": 65, "velocity": 110, "channel": 0}, {"type": "note_on", "time": 41, "note": 63, "velocity": 116, "channel": 0}, {"type": "note_off", "time": 2391, "note": 63, "velocity": 116, "channel": 0}, {"type": "note_on", "time": 41, "note": 61, "velocity": 121, "channel": 0}, {"type": "note_off", "time": 1484, "note": 61, "velocity": 121, "channel": 0}, {"type": "note_on", "time": 41, "note": 62, "velocity": 122, "channel": 0}, {"type": "note_off", "time": 6844, "note": 62, "velocity": 122, "channel": 0}, {"type": "note_on", "time": 0, "note": 63, "velocity": 117, "channel": 0}, {"type": "note_off", "time": 1278, "note": 63, "velocity": 117, "channel": 0}, {"type": "note_on", "time": 1855, "note": 65, "velocity": 115, "channel": 0}, {"type": "note_off", "time": 2226, "note": 65, "velocity": 115, "channel": 0}, {"type": "note_on", "time": 412, "note": 67, "velocity": 105, "channel": 0}, {"type": "note_off", "time": 11463, "note": 67, "velocity": 105, "channel": 0}, {"type": "note_on", "time": 13318, "note": 69, "velocity": 122, "channel": 0}, {"type": "note_off", "time": 2185, "note": 69, "velocity": 122, "channel": 0}, {"type": "note_on", "time": 1443, "note": 70, "velocity": 110, "channel": 0}, {"type": "note_off", "time": 2927, "note": 70, "velocity": 110, "channel": 0}, {"type": "note_on", "time": 865, "note": 71, "velocity": 106, "channel": 0}, {"type": "note_off", "time": 618, "note": 71, "velocity": 106, "channel": 0}, {"type": "note_on", "time": 247, "note": 72, "velocity": 107, "channel": 0}, {"type": "note_off", "time": 3999, "note": 72, "velocity": 107, "channel": 0}, {"type": "note_on", "time": 206, "note": 67, "velocity": 106, "channel": 0}, {"type": "note_off", "time": 1773, "note": 67, "velocity": 106, "channel": 0}, {"type": "note_on", "time": 329, "note": 63, "velocity": 118, "channel": 0}, {"type": "note_off", "time": 2432, "note": 63, "velocity": 118, "channel": 0}, {"type": "note_on", "time": 0, "note": 62, "velocity": 124, "channel": 0}, {"type": "note_off", "time": 2803, "note": 62, "velocity": 124, "channel": 0}, {"type": "note_on", "time": 206, "note": 60, "velocity": 104, "channel": 0}, {"type": "note_off", "time": 1938, "note": 60, "velocity": 104, "channel": 0}, {"type": "note_on", "time": 82, "note": 55, "velocity": 103, "channel": 0}, {"type": "note_off", "time": 1979, "note": 55, "velocity": 103, "channel": 0}, {"type": "note_on", "time": 41, "note": 58, "velocity": 105, "channel": 0}, {"type": "note_off", "time": 1731, "note": 58, "velocity": 105, "channel": 0}, {"type": "note_on", "time": 412, "note": 57, "velocity": 97, "channel": 0}, {"type": "note_off", "time": 1484, "note": 57, "velocity": 97, "channel": 0}, {"type": "note_on", "time": 41, "note": 60, "velocity": 95, "channel": 0}, {"type": "note_off", "time": 989, "note": 60, "velocity": 95, "channel": 0}, {"type": "note_on", "time": 0, "note": 63, "velocity": 114, "channel": 0}, {"type": "note_off", "time": 371, "note": 63, "velocity": 114, "channel": 0}, {"type": "note_on", "time": 123, "note": 67, "velocity": 111, "channel": 0}, {"type": "note_off", "time": 1443, "note": 67, "velocity": 111, "channel": 0}, {"type": "note_on", "time": 247, "note": 65, "velocity": 106, "channel": 0}, {"type": "note_off", "time": 1484, "note": 65, "velocity": 106, "channel": 0}, {"type": "note_on", "time": 82, "note": 63, "velocity": 111, "channel": 0}, {"type": "note_off", "time": 2474, "note": 63, "velocity": 111, "channel": 0}, {"type": "note_on", "time": 82, "note": 61, "velocity": 118, "channel": 0}, {"type": "note_off", "time": 1855, "note": 61, "velocity": 118, "channel": 0}, {"type": "note_on", "time": 123, "note": 62, "velocity": 117, "channel": 0}, {"type": "note_off", "time": 2226, "note": 62, "velocity": 117, "channel": 0}, {"type": "note_on", "time": 123, "note": 58, "velocity": 106, "channel": 0}, {"type": "note_off", "time": 2597, "note": 58, "velocity": 106, "channel": 0}, {"type": "note_on", "time": 123, "note": 53, "velocity": 96, "channel": 0}, {"type": "note_off", "time": 2309, "note": 53, "velocity": 96, "channel": 0}, {"type": "note_on", "time": 485, "note": 58, "velocity": 96, "channel": 0}, {"type": "note_off", "time": 8503, "note": 58, "velocity": 96, "channel": 0}, {"type": "note_on", "time": 20039, "note": 54, "velocity": 97, "channel": 0}, {"type": "note_off", "time": 1030, "note": 54, "velocity": 97, "channel": 0}, {"type": "note_on", "time": 0, "note": 56, "velocity": 97, "channel": 0}, {"type": "note_off", "time": 700, "note": 56, "velocity": 97, "channel": 0}, {"type": "note_on", "time": 41, "note": 59, "velocity": 92, "channel": 0}, {"type": "note_off", "time": 1072, "note": 59, "velocity": 92, "channel": 0}, {"type": "note_on", "time": 41, "note": 61, "velocity": 103, "channel": 0}, {"type": "note_off", "time": 1195, "note": 61, "velocity": 103, "channel": 0}, {"type": "note_on", "time": 123, "note": 68, "velocity": 114, "channel": 0}, {"type": "note_off", "time": 1319, "note": 68, "velocity": 114, "channel": 0}, {"type": "note_on", "time": 206, "note": 71, "velocity": 113, "channel": 0}, {"type": "note_off", "time": 742, "note": 71, "velocity": 113, "channel": 0}, {"type": "note_on", "time": 123, "note": 68, "velocity": 117, "channel": 0}, {"type": "note_off", "time": 6102, "note": 68, "velocity": 117, "channel": 0}, {"type": "note_on", "time": 41, "note": 66, "velocity": 103, "channel": 0}, {"type": "note_off", "time": 1814, "note": 66, "velocity": 103, "channel": 0}, {"type": "note_on", "time": 1690, "note": 53, "velocity": 106, "channel": 0}, {"type": "note_off", "time": 1154, "note": 53, "velocity": 106, "channel": 0}, {"type": "note_on", "time": 329, "note": 56, "velocity": 101, "channel": 0}, {"type": "note_off", "time": 618, "note": 56, "velocity": 101, "channel": 0}, {"type": "note_on", "time": 123, "note": 58, "velocity": 92, "channel": 0}, {"type": "note_off", "time": 412, "note": 58, "velocity": 92, "channel": 0}, {"type": "note_on", "time": 82, "note": 60, "velocity": 91, "channel": 0}, {"type": "note_on", "time": 700, "note": 62, "velocity": 105, "channel": 0}, {"type": "note_off", "time": 0, "note": 60, "velocity": 91, "channel": 0}, {"type": "note_off", "time": 742, "note": 62, "velocity": 105, "channel": 0}, {"type": "note_on", "time": 82, "note": 63, "velocity": 106, "channel": 0}, {"type": "note_off", "time": 659, "note": 63, "velocity": 106, "channel": 0}, {"type": "note_on", "time": 0, "note": 70, "velocity": 109, "channel": 0}, {"type": "note_off", "time": 1649, "note": 70, "velocity": 109, "channel": 0}, {"type": "note_on", "time": 164, "note": 67, "velocity": 106, "channel": 0}, {"type": "note_off", "time": 7958, "note": 67, "velocity": 106, "channel": 0}, {"type": "note_on", "time": 247, "note": 65, "velocity": 102, "channel": 0}, {"type": "note_off", "time": 1773, "note": 65, "velocity": 102, "channel": 0}, {"type": "note_on", "time": 164, "note": 63, "velocity": 113, "channel": 0}, {"type": "note_off", "time": 1278, "note": 63, "velocity": 113, "channel": 0}, {"type": "note_on", "time": 82, "note": 61, "velocity": 115, "channel": 0}, {"type": "note_off", "time": 1608, "note": 61, "velocity": 115, "channel": 0}, {"type": "note_on", "time": 251, "note": 62, "velocity": 105, "channel": 0}, {"type": "note_off", "time": 7752, "note": 62, "velocity": 105, "channel": 0}, {"type": "note_on", "time": 11417, "note": 62, "velocity": 127, "channel": 0}, {"type": "note_off", "time": 2267, "note": 62, "velocity": 127, "channel": 0}, {"type": "note_on", "time": 206, "note": 63, "velocity": 126, "channel": 0}, {"type": "note_off", "time": 1443, "note": 63, "velocity": 126, "channel": 0}, {"type": "note_on", "time": 1401, "note": 66, "velocity": 117, "channel": 0}, {"type": "note_off", "time": 1773, "note": 66, "velocity": 117, "channel": 0}, {"type": "note_on", "time": 123, "note": 67, "velocity": 111, "channel": 0}, {"type": "note_off", "time": 1938, "note": 67, "velocity": 111, "channel": 0}, {"type": "note_on", "time": 1566, "note": 69, "velocity": 113, "channel": 0}, {"type": "note_off", "time": 1525, "note": 69, "velocity": 113, "channel": 0}, {"type": "note_on", "time": 41, "note": 70, "velocity": 106, "channel": 0}, {"type": "note_off", "time": 5607, "note": 70, "velocity": 106, "channel": 0}, {"type": "note_on", "time": 164, "note": 73, "velocity": 108, "channel": 0}, {"type": "note_off", "time": 4164, "note": 73, "velocity": 108, "channel": 0}, {"type": "note_on", "time": 82, "note": 70, "velocity": 104, "channel": 0}, {"type": "note_off", "time": 9236, "note": 70, "velocity": 104, "channel": 0}, {"type": "note_on", "time": 82, "note": 67, "velocity": 104, "channel": 0}, {"type": "note_off", "time": 2309, "note": 67, "velocity": 104, "channel": 0}, {"type": "note_on", "time": 41, "note": 66, "velocity": 100, "channel": 0}, {"type": "note_off", "time": 2474, "note": 66, "velocity": 100, "channel": 0}, {"type": "note_on", "time": 164, "note": 62, "velocity": 99, "channel": 0}, {"type": "note_off", "time": 1938, "note": 62, "velocity": 99, "channel": 0}, {"type": "note_on", "time": 82, "note": 65, "velocity": 106, "channel": 0}, {"type": "note_off", "time": 2267, "note": 65, "velocity": 106, "channel": 0}, {"type": "note_on", "time": 206, "note": 62, "velocity": 112, "channel": 0}, {"type": "note_off", "time": 1030, "note": 62, "velocity": 112, "channel": 0}, {"type": "note_on", "time": 206, "note": 64, "velocity": 112, "channel": 0}, {"type": "note_off", "time": 4205, "note": 64, "velocity": 112, "channel": 0}, {"type": "note_on", "time": 371, "note": 72, "velocity": 97, "channel": 0}, {"type": "note_off", "time": 5442, "note": 72, "velocity": 97, "channel": 0}, {"type": "note_on", "time": 11999, "note": 64, "velocity": 123, "channel": 0}, {"type": "note_off", "time": 2762, "note": 64, "velocity": 123, "channel": 0}, {"type": "note_on", "time": 123, "note": 65, "velocity": 111, "channel": 0}, {"type": "note_off", "time": 2144, "note": 65, "velocity": 111, "channel": 0}, {"type": "note_on", "time": 41, "note": 67, "velocity": 106, "channel": 0}, {"type": "note_off", "time": 2020, "note": 67, "velocity": 106, "channel": 0}, {"type": "note_on", "time": 164, "note": 68, "velocity": 107, "channel": 0}, {"type": "note_off", "time": 2474, "note": 68, "velocity": 107, "channel": 0}, {"type": "note_on", "time": 123, "note": 70, "velocity": 113, "channel": 0}, {"type": "note_off", "time": 1979, "note": 70, "velocity": 113, "channel": 0}, {"type": "note_on", "time": 82, "note": 72, "velocity": 105, "channel": 0}, {"type": "note_off", "time": 2144, "note": 72, "velocity": 105, "channel": 0}, {"type": "note_on", "time": 1401, "note": 74, "velocity": 106, "channel": 0}, {"type": "note_off", "time": 2020, "note": 74, "velocity": 106, "channel": 0}, {"type": "note_on", "time": 0, "note": 75, "velocity": 99, "channel": 0}, {"type": "note_off", "time": 1979, "note": 75, "velocity": 99, "channel": 0}, {"type": "note_on", "time": 82, "note": 72, "velocity": 105, "channel": 0}, {"type": "note_off", "time": 1484, "note": 72, "velocity": 105, "channel": 0}, {"type": "note_on", "time": 123, "note": 70, "velocity": 102, "channel": 0}, {"type": "note_off", "time": 2102, "note": 70, "velocity": 102, "channel": 0}, {"type": "note_on", "time": 41, "note": 68, "velocity": 112, "channel": 0}, {"type": "note_off", "time": 2721, "note": 68, "velocity": 112, "channel": 0}, {"type": "note_on", "time": 82, "note": 67, "velocity": 103, "channel": 0}, {"type": "note_off", "time": 4577, "note": 67, "velocity": 103, "channel": 0}, {"type": "note_on", "time": 82, "note": 63, "velocity": 112, "channel": 0}, {"type": "note_off", "time": 2350, "note": 63, "velocity": 112, "channel": 0}, {"type": "note_on", "time": 123, "note": 59, "velocity": 95, "channel": 0}, {"type": "note_off", "time": 1896, "note": 59, "velocity": 95, "channel": 0}, {"type": "note_on", "time": 2968, "note": 66, "velocity": 101, "channel": 0}, {"type": "note_off", "time": 3876, "note": 66, "velocity": 101, "channel": 0}, {"type": "note_on", "time": 164, "note": 63, "velocity": 110, "channel": 0}, {"type": "note_off", "time": 1154, "note": 63, "velocity": 110, "channel": 0}, {"type": "note_on", "time": 164, "note": 59, "velocity": 95, "channel": 0}, {"type": "note_off", "time": 1113, "note": 59, "velocity": 95, "channel": 0}, {"type": "note_on", "time": 123, "note": 58, "velocity": 100, "channel": 0}, {"type": "note_off", "time": 1072, "note": 58, "velocity": 100, "channel": 0}, {"type": "note_on", "time": 505, "note": 56, "velocity": 110, "channel": 0}, {"type": "note_off", "time": 5721, "note": 56, "velocity": 110, "channel": 0}, {"type": "note_on", "time": 989, "note": 51, "velocity": 91, "channel": 0}, {"type": "note_off", "time": 1195, "note": 51, "velocity": 91, "channel": 0}, {"type": "note_on", "time": 288, "note": 58, "velocity": 101, "channel": 0}, {"type": "note_off", "time": 1773, "note": 58, "velocity": 101, "channel": 0}, {"type": "note_on", "time": 41, "note": 56, "velocity": 96, "channel": 0}, {"type": "note_off", "time": 3834, "note": 56, "velocity": 96, "channel": 0}, {"type": "note_on", "time": 11463, "note": 59, "velocity": 105, "channel": 0}, {"type": "note_off", "time": 1979, "note": 59, "velocity": 105, "channel": 0}, {"type": "note_on", "time": 164, "note": 63, "velocity": 121, "channel": 0}, {"type": "note_off", "time": 2267, "note": 63, "velocity": 121, "channel": 0}, {"type": "note_on", "time": 206, "note": 66, "velocity": 112, "channel": 0}, {"type": "note_off", "time": 1649, "note": 66, "velocity": 112, "channel": 0}, {"type": "note_on", "time": 1030, "note": 70, "velocity": 113, "channel": 0}, {"type": "note_off", "time": 2968, "note": 70, "velocity": 113, "channel": 0}, {"type": "note_on", "time": 82, "note": 68, "velocity": 106, "channel": 0}, {"type": "note_off", "time": 3051, "note": 68, "velocity": 106, "channel": 0}, {"type": "note_on", "time": 41, "note": 67, "velocity": 103, "channel": 0}, {"type": "note_off", "time": 1938, "note": 67, "velocity": 103, "channel": 0}, {"type": "note_on", "time": 41, "note": 68, "velocity": 109, "channel": 0}, {"type": "note_off", "time": 3752, "note": 68, "velocity": 109, "channel": 0}, {"type": "note_on", "time": 453, "note": 75, "velocity": 96, "channel": 0}, {"type": "note_off", "time": 3257, "note": 75, "velocity": 96, "channel": 0}, {"type": "note_on", "time": 288, "note": 71, "velocity": 106, "channel": 0}, {"type": "note_off", "time": 1608, "note": 71, "velocity": 106, "channel": 0}, {"type": "note_on", "time": 82, "note": 70, "velocity": 109, "channel": 0}, {"type": "note_off", "time": 1731, "note": 70, "velocity": 109, "channel": 0}, {"type": "note_on", "time": 41, "note": 68, "velocity": 114, "channel": 0}, {"type": "note_off", "time": 2845, "note": 68, "velocity": 114, "channel": 0}, {"type": "note_on", "time": 41, "note": 67, "velocity": 105, "channel": 0}, {"type": "note_off", "time": 6721, "note": 67, "velocity": 105, "channel": 0}, {"type": "note_on", "time": 969, "note": 63, "velocity": 110, "channel": 0}, {"type": "note_off", "time": 1855, "note": 63, "velocity": 110, "channel": 0}, {"type": "note_on", "time": 1010, "note": 58, "velocity": 95, "channel": 0}, {"type": "note_off", "time": 1938, "note": 58, "velocity": 95, "channel": 0}, {"type": "note_on", "time": 123, "note": 55, "velocity": 91, "channel": 0}, {"type": "note_off", "time": 2185, "note": 55, "velocity": 91, "channel": 0}, {"type": "note_on", "time": 371, "note": 63, "velocity": 114, "channel": 0}, {"type": "note_off", "time": 3876, "note": 63, "velocity": 114, "channel": 0}, {"type": "note_on", "time": 371, "note": 62, "velocity": 113, "channel": 0}, {"type": "note_off", "time": 1443, "note": 62, "velocity": 113, "channel": 0}, {"type": "note_on", "time": 164, "note": 63, "velocity": 106, "channel": 0}, {"type": "note_off", "time": 9236, "note": 63, "velocity": 106, "channel": 0}, {"type": "note_on", "time": 154, "note": 61, "velocity": 109, "channel": 0}, {"type": "note_off", "time": 3350, "note": 61, "velocity": 109, "channel": 0}, {"type": "note_on", "time": 103, "note": 60, "velocity": 96, "channel": 0}, {"type": "note_off", "time": 2061, "note": 60, "velocity": 96, "channel": 0}, {"type": "note_on", "time": 639, "note": 56, "velocity": 93, "channel": 0}, {"type": "note_off", "time": 2515, "note": 56, "velocity": 93, "channel": 0}, {"type": "note_on", "time": 801, "note": 60, "velocity": 87, "channel": 0}, {"type": "note_off", "time": 10555, "note": 60, "velocity": 87, "channel": 0}, {"type": "note_on", "time": 2373, "note": 62, "velocity": 110, "channel": 0}, {"type": "note_off", "time": 2474, "note": 62, "velocity": 110, "channel": 0}, {"type": "note_on", "time": 0, "note": 58, "velocity": 82, "channel": 0}, {"type": "note_off", "time": 2762, "note": 58, "velocity": 82, "channel": 0}, {"type": "note_on", "time": 164, "note": 66, "velocity": 80, "channel": 0}, {"type": "note_off", "time": 618, "note": 66, "velocity": 80, "channel": 0}, {"type": "note_on", "time": 206, "note": 67, "velocity": 98, "channel": 0}, {"type": "note_off", "time": 8824, "note": 67, "velocity": 98, "channel": 0}, {"type": "note_on", "time": 1030, "note": 58, "velocity": 101, "channel": 0}, {"type": "note_off", "time": 1924, "note": 58, "velocity": 101, "channel": 0}, {"type": "note_on", "time": 0, "note": 62, "velocity": 115, "channel": 0}, {"type": "note_off", "time": 1392, "note": 62, "velocity": 115, "channel": 0}, {"type": "note_on", "time": 146, "note": 63, "velocity": 108, "channel": 0}, {"type": "note_off", "time": 3152, "note": 63, "velocity": 108, "channel": 0}, {"type": "note_on", "time": 476, "note": 63, "velocity": 99, "channel": 0}, {"type": "note_off", "time": 13318, "note": 63, "velocity": 99, "channel": 0}, {"type": "note_on", "time": 8525, "note": 63, "velocity": 100, "channel": 0}, {"type": "note_off", "time": 2113, "note": 63, "velocity": 100, "channel": 0}, {"type": "note_on", "time": 51, "note": 60, "velocity": 100, "channel": 0}, {"type": "note_off", "time": 1855, "note": 60, "velocity": 100, "channel": 0}, {"type": "note_on", "time": 103, "note": 61, "velocity": 107, "channel": 0}, {"type": "note_off", "time": 1494, "note": 61, "velocity": 107, "channel": 0}, {"type": "note_on", "time": 51, "note": 62, "velocity": 91, "channel": 0}, {"type": "note_off", "time": 5154, "note": 62, "velocity": 91, "channel": 0}, {"type": "note_on", "time": 1185, "note": 58, "velocity": 93, "channel": 0}, {"type": "note_off", "time": 5308, "note": 58, "velocity": 93, "channel": 0}, {"type": "end_of_track", "time": 0}]]}