{"ticks_per_beat": 840, "tracks": [[{"type": "track_name", "name": "Melody", "time": 0}, {"type": "set_tempo", "tempo": 333333, "time": 0}, {"type": "key_signature", "key": "G", "time": 0}, {"type": "time_signature", "numerator": 3, "denominator": 4, "clocks_per_click": 24, "notated_32nd_notes_per_beat": 8, "time": 0}, {"type": "note_on", "time": 2207, "note": 59, "velocity": 99, "channel": 0}, {"type": "note_off", "time": 643, "note": 59, "velocity": 99, "channel": 0}, {"type": "note_on", "time": 131, "note": 60, "velocity": 112, "channel": 0}, {"type": "note_off", "time": 629, "note": 60, "velocity": 112, "channel": 0}, {"type": "note_on", "time": 248, "note": 62, "velocity": 120, "channel": 0}, {"type": "note_off", "time": 716, "note": 62, "velocity": 120, "channel": 0}, {"type": "note_on", "time": 219, "note": 64, "velocity": 121, "channel": 0}, {"type": "note_off", "time": 731, "note": 64, "velocity": 121, "channel": 0}, {"type": "note_on", "time": 175, "note": 66, "velocity": 112, "channel": 0}, {"type": "note_off", "time": 658, "note": 66, "velocity": 112, "channel": 0}, {"type": "note_on", "time": 58, "note": 67, "velocity": 110, "channel": 0}, {"type": "note_off", "time": 760, "note": 67, "velocity": 110, "channel": 0}, {"type": "note_on", "time": 190, "note": 69, "velocity": 104, "channel": 0}, {"type": "note_off", "time": 365, "note": 69, "velocity": 104, "channel": 0}, {"type": "note_on", "time": 175, "note": 71, "velocity": 95, "channel": 0}, {"type": "note_off", "time": 1536, "note": 71, "velocity": 95, "channel": 0}, {"type": "note_on", "time": 73, "note": 69, "velocity": 99, "channel": 0}, {"type": "note_off", "time": 234, "note": 69, "velocity": 99, "channel": 0}, {"type": "note_on", "time": 58, "note": 71, "velocity": 99, "channel": 0}, {"type": "note_off", "time": 497, "note": 71, "velocity": 99, "channel": 0}, {"type": "note_on", "time": 190, "note": 71, "velocity": 104, "channel": 0}, {"type": "note_off", "time": 277, "note": 71, "velocity": 104, "channel": 0}, {"type": "note_on", "time": 1565, "note": 71, "velocity": 107, "channel": 0}, {"type": "note_off", "time": 292, "note": 71, "velocity": 107, "channel": 0}, {"type": "note_on", "time": 365, "note": 71, "velocity": 105, "channel": 0}, {"type": "note_off", "time": 3759, "note": 71, "velocity": 105, "channel": 0}, {"type": "note_on", "time": 247, "note": 69, "velocity": 107, "channel": 0}, {"type": "note_off", "time": 144, "note": 69, "velocity": 107, "channel": 0}, {"type": "note_on", "time": 82, "note": 67, "velocity": 112, "channel": 0}, {"type": "note_off", "time": 144, "note": 67, "velocity": 112, "channel": 0}, {"type": "note_on", "time": 102, "note": 64, "velocity": 112, "channel": 0}, {"type": "note_off", "time": 174, "note": 64, "velocity": 112, "channel": 0}, {"type": "note_on", "time": 14, "note": 71, "velocity": 108, "channel": 0}, {"type": "note_off", "time": 133, "note": 71, "velocity": 108, "channel": 0}, {"type": "note_on", "time": 23, "note": 69, "velocity": 110, "channel": 0}, {"type": "note_off", "time": 84, "note": 69, "velocity": 110, "channel": 0}, {"type": "note_on", "time": 47, "note": 67, "velocity": 111, "channel": 0}, {"type": "note_off", "time": 160, "note": 67, "velocity": 111, "channel": 0}, {"type": "note_on", "time": 80, "note": 64, "velocity": 108, "channel": 0}, {"type": "note_off", "time": 154, "note": 64, "velocity": 108, "channel": 0}, {"type": "note_on", "time": 20, "note": 71, "velocity": 107, "channel": 0}, {"type": "note_off", "time": 164, "note": 71, "velocity": 107, "channel": 0}, {"type": "note_on", "time": 33, "note": 69, "velocity": 111, "channel": 0}, {"type": "note_off", "time": 117, "note": 69, "velocity": 111, "channel": 0}, {"type": "note_on", "time": 62, "note": 67, "velocity": 116, "channel": 0}, {"type": "note_off", "time": 174, "note": 67, "velocity": 116, "channel": 0}, {"type": "note_on", "time": 44, "note": 64, "velocity": 116, "channel": 0}, {"type": "note_off", "time": 174, "note": 64, "velocity": 116, "channel": 0}, {"type": "note_on", "time": 59, "note": 71, "velocity": 111, "channel": 0}, {"type": "note_off", "time": 144, "note": 71, "velocity": 111, "channel": 0}, {"type": "note_on", "time": 20, "note": 69, "velocity": 111, "channel": 0}, {"type": "note_off", "time": 80, "note": 69, "velocity": 111, "channel": 0}, {"type": "note_on", "time": 47, "note": 67, "velocity": 114, "channel": 0}, {"type": "note_off", "time": 164, "note": 67, "velocity": 114, "channel": 0}, {"type": "note_on", "time": 80, "note": 64, "velocity": 114, "channel": 0}, {"type": "note_off", "time": 133, "note": 64, "velocity": 114, "channel": 0}, {"type": "note_on", "time": 89, "note": 71, "velocity": 110, "channel": 0}, {"type": "note_off", "time": 174, "note": 71, "velocity": 110, "channel": 0}, {"type": "note_on", "time": 4, "note": 69, "velocity": 113, "channel": 0}, {"type": "note_off", "time": 98, "note": 69, "velocity": 113, "channel": 0}, {"type": "note_on", "time": 36, "note": 67, "velocity": 112, "channel": 0}, {"type": "note_off", "time": 144, "note": 67, "velocity": 112, "channel": 0}, {"type": "note_on", "time": 27, "note": 64, "velocity": 111, "channel": 0}, {"type": "note_off", "time": 144, "note": 64, "velocity": 111, "channel": 0}, {"type": "note_on", "time": 41, "note": 66, "velocity": 110, "channel": 0}, {"type": "note_off", "time": 231, "note": 66, "velocity": 110, "channel": 0}, {"type": "note_on", "time": 56, "note": 67, "velocity": 111, "channel": 0}, {"type": "note_off", "time": 113, "note": 67, "velocity": 111, "channel": 0}, {"type": "note_on", "time": 51, "note": 69, "velocity": 112, "channel": 0}, {"type": "note_off", "time": 149, "note": 69, "velocity": 112, "channel": 0}, {"type": "note_on", "time": 20, "note": 70, "velocity": 109, "channel": 0}, {"type": "note_off", "time": 77, "note": 70, "velocity": 109, "channel": 0}, {"type": "note_on", "time": 51, "note": 73, "velocity": 114, "channel": 0}, {"type": "note_off", "time": 118, "note": 73, "velocity": 114, "channel": 0}, {"type": "note_on", "time": 56, "note": 74, "velocity": 117, "channel": 0}, {"type": "note_off", "time": 123, "note": 74, "velocity": 117, "channel": 0}, {"type": "note_on", "time": 36, "note": 76, "velocity": 117, "channel": 0}, {"type": "note_off", "time": 128, "note": 76, "velocity": 117, "channel": 0}, {"type": "note_on", "time": 25, "note": 78, "velocity": 117, "channel": 0}, {"type": "note_off", "time": 72, "note": 78, "velocity": 117, "channel": 0}, {"type": "note_on", "time": 20, "note": 79, "velocity": 110, "channel": 0}, {"type": "note_off", "time": 97, "note": 79, "velocity": 110, "channel": 0}, {"type": "note_on", "time": 72, "note": 81, "velocity": 119, "channel": 0}, {"type": "note_off", "time": 154, "note": 81, "velocity": 119, "channel": 0}, {"type": "note_on", "time": 46, "note": 83, "velocity": 108, "channel": 0}, {"type": "note_off", "time": 113, "note": 83, "velocity": 108, "channel": 0}, {"type": "note_on", "time": 102, "note": 85, "velocity": 111, "channel": 0}, {"type": "note_off", "time": 282, "note": 85, "velocity": 111, "channel": 0}, {"type": "note_on", "time": 41, "note": 86, "velocity": 109, "channel": 0}, {"type": "note_off", "time": 236, "note": 86, "velocity": 109, "channel": 0}, {"type": "note_on", "time": 61, "note": 85, "velocity": 99, "channel": 0}, {"type": "note_off", "time": 1841, "note": 85, "velocity": 99, "channel": 0}, {"type": "note_on", "time": 77, "note": 83, "velocity": 99, "channel": 0}, {"type": "note_off", "time": 210, "note": 83, "velocity": 99, "channel": 0}, {"type": "note_on", "time": 51, "note": 84, "velocity": 91, "channel": 0}, {"type": "note_off", "time": 159, "note": 84, "velocity": 91, "channel": 0}, {"type": "note_on", "time": 142, "note": 71, "velocity": 92, "channel": 0}, {"type": "note_off", "time": 1901, "note": 71, "velocity": 92, "channel": 0}, {"type": "note_on", "time": 146, "note": 81, "velocity": 113, "channel": 0}, {"type": "note_off", "time": 182, "note": 81, "velocity": 113, "channel": 0}, {"type": "note_on", "time": 58, "note": 79, "velocity": 122, "channel": 0}, {"type": "note_off", "time": 230, "note": 79, "velocity": 122, "channel": 0}, {"type": "note_on", "time": 95, "note": 76, "velocity": 123, "channel": 0}, {"type": "note_off", "time": 435, "note": 76, "velocity": 123, "channel": 0}, {"type": "note_on", "time": 207, "note": 71, "velocity": 92, "channel": 0}, {"type": "note_off", "time": 344, "note": 71, "velocity": 92, "channel": 0}, {"type": "note_on", "time": 1923, "note": 70, "velocity": 122, "channel": 0}, {"type": "note_off", "time": 185, "note": 70, "velocity": 122, "channel": 0}, {"type": "note_on", "time": 66, "note": 71, "velocity": 100, "channel": 0}, {"type": "note_off", "time": 1403, "note": 71, "velocity": 100, "channel": 0}, {"type": "note_on", "time": 102, "note": 71, "velocity": 102, "channel": 0}, {"type": "note_off", "time": 252, "note": 71, "velocity": 102, "channel": 0}, {"type": "note_on", "time": 128, "note": 76, "velocity": 117, "channel": 0}, {"type": "note_off", "time": 262, "note": 76, "velocity": 117, "channel": 0}, {"type": "note_on", "time": 406, "note": 71, "velocity": 102, "channel": 0}, {"type": "note_off", "time": 334, "note": 71, "velocity": 102, "channel": 0}, {"type": "note_on", "time": 318, "note": 76, "velocity": 117, "channel": 0}, {"type": "note_off", "time": 334, "note": 76, "velocity": 117, "channel": 0}, {"type": "note_on", "time": 123, "note": 71, "velocity": 102, "channel": 0}, {"type": "note_off", "time": 354, "note": 71, "velocity": 102, "channel": 0}, {"type": "note_on", "time": 277, "note": 76, "velocity": 117, "channel": 0}, {"type": "note_off", "time": 1892, "note": 76, "velocity": 117, "channel": 0}, {"type": "note_on", "time": 169, "note": 71, "velocity": 104, "channel": 0}, {"type": "note_off", "time": 164, "note": 71, "velocity": 104, "channel": 0}, {"type": "note_on", "time": 33, "note": 69, "velocity": 106, "channel": 0}, {"type": "note_off", "time": 92, "note": 69, "velocity": 106, "channel": 0}, {"type": "note_on", "time": 54, "note": 67, "velocity": 112, "channel": 0}, {"type": "note_off", "time": 190, "note": 67, "velocity": 112, "channel": 0}, {"type": "note_on", "time": 59, "note": 64, "velocity": 115, "channel": 0}, {"type": "note_off", "time": 537, "note": 64, "velocity": 115, "channel": 0}, {"type": "note_on", "time": 122, "note": 59, "velocity": 110, "channel": 0}, {"type": "note_off", "time": 555, "note": 59, "velocity": 110, "channel": 0}, {"type": "note_on", "time": 3236, "note": 71, "velocity": 112, "channel": 0}, {"type": "note_off", "time": 252, "note": 71, "velocity": 112, "channel": 0}, {"type": "note_on", "time": 62, "note": 76, "velocity": 123, "channel": 0}, {"type": "note_off", "time": 329, "note": 76, "velocity": 123, "channel": 0}, {"type": "note_on", "time": 230, "note": 78, "velocity": 123, "channel": 0}, {"type": "note_off", "time": 325, "note": 78, "velocity": 123, "channel": 0}, {"type": "note_on", "time": 58, "note": 81, "velocity": 122, "channel": 0}, {"type": "note_off", "time": 340, "note": 81, "velocity": 122, "channel": 0}, {"type": "note_on", "time": 212, "note": 81, "velocity": 107, "channel": 0}, {"type": "note_off", "time": 3342, "note": 81, "velocity": 107, "channel": 0}, {"type": "note_on", "time": 174, "note": 73, "velocity": 103, "channel": 0}, {"type": "note_off", "time": 252, "note": 73, "velocity": 103, "channel": 0}, {"type": "note_on", "time": 210, "note": 83, "velocity": 101, "channel": 0}, {"type": "note_off", "time": 4587, "note": 83, "velocity": 101, "channel": 0}, {"type": "note_on", "time": 517, "note": 83, "velocity": 117, "channel": 0}, {"type": "note_off", "time": 219, "note": 83, "velocity": 117, "channel": 0}, {"type": "note_on", "time": 102, "note": 85, "velocity": 118, "channel": 0}, {"type": "note_off", "time": 146, "note": 85, "velocity": 118, "channel": 0}, {"type": "note_on", "time": 43, "note": 86, "velocity": 116, "channel": 0}, {"type": "note_off", "time": 131, "note": 86, "velocity": 116, "channel": 0}, {"type": "note_on", "time": 51, "note": 85, "velocity": 105, "channel": 0}, {"type": "note_off", "time": 109, "note": 85, "velocity": 105, "channel": 0}, {"type": "note_on", "time": 117, "note": 83, "velocity": 97, "channel": 0}, {"type": "note_off", "time": 1828, "note": 83, "velocity": 97, "channel": 0}, {"type": "note_on", "time": 119, "note": 79, "velocity": 111, "channel": 0}, {"type": "note_off", "time": 307, "note": 79, "velocity": 111, "channel": 0}, {"type": "note_on", "time": 57, "note": 83, "velocity": 110, "channel": 0}, {"type": "note_off", "time": 195, "note": 83, "velocity": 110, "channel": 0}, {"type": "note_on", "time": 51, "note": 85, "velocity": 112, "channel": 0}, {"type": "note_off", "time": 161, "note": 85, "velocity": 112, "channel": 0}, {"type": "note_on", "time": 28, "note": 86, "velocity": 117, "channel": 0}, {"type": "note_off", "time": 149, "note": 86, "velocity": 117, "channel": 0}, {"type": "note_on", "time": 23, "note": 85, "velocity": 110, "channel": 0}, {"type": "note_off", "time": 113, "note": 85, "velocity": 110, "channel": 0}, {"type": "note_on", "time": 23, "note": 83, "velocity": 111, "channel": 0}, {"type": "note_off", "time": 390, "note": 83, "velocity": 111, "channel": 0}, {"type": "note_on", "time": 48, "note": 85, "velocity": 111, "channel": 0}, {"type": "note_off", "time": 115, "note": 85, "velocity": 111, "channel": 0}, {"type": "note_on", "time": 23, "note": 86, "velocity": 114, "channel": 0}, {"type": "note_off", "time": 215, "note": 86, "velocity": 114, "channel": 0}, {"type": "note_on", "time": 15, "note": 85, "velocity": 109, "channel": 0}, {"type": "note_off", "time": 79, "note": 85, "velocity": 109, "channel": 0}, {"type": "note_on", "time": 25, "note": 83, "velocity": 111, "channel": 0}, {"type": "note_off", "time": 303, "note": 83, "velocity": 111, "channel": 0}, {"type": "note_on", "time": 46, "note": 85, "velocity": 111, "channel": 0}, {"type": "note_off", "time": 138, "note": 85, "velocity": 111, "channel": 0}, {"type": "note_on", "time": 38, "note": 86, "velocity": 116, "channel": 0}, {"type": "note_off", "time": 259, "note": 86, "velocity": 116, "channel": 0}, {"type": "note_on", "time": 25, "note": 85, "velocity": 110, "channel": 0}, {"type": "note_off", "time": 154, "note": 85, "velocity": 110, "channel": 0}, {"type": "note_on", "time": 76, "note": 83, "velocity": 98, "channel": 0}, {"type": "note_off", "time": 1133, "note": 83, "velocity": 98, "channel": 0}, {"type": "note_on", "time": 49, "note": 81, "velocity": 108, "channel": 0}, {"type": "note_off", "time": 84, "note": 81, "velocity": 108, "channel": 0}, {"type": "note_on", "time": 15, "note": 79, "velocity": 118, "channel": 0}, {"type": "note_off", "time": 215, "note": 79, "velocity": 118, "channel": 0}, {"type": "note_on", "time": 123, "note": 76, "velocity": 123, "channel": 0}, {"type": "note_off", "time": 203, "note": 76, "velocity": 123, "channel": 0}, {"type": "note_on", "time": 59, "note": 78, "velocity": 119, "channel": 0}, {"type": "note_off", "time": 197, "note": 78, "velocity": 119, "channel": 0}, {"type": "note_on", "time": 120, "note": 81, "velocity": 100, "channel": 0}, {"type": "note_off", "time": 77, "note": 81, "velocity": 100, "channel": 0}, {"type": "note_on", "time": 36, "note": 78, "velocity": 121, "channel": 0}, {"type": "note_off", "time": 100, "note": 78, "velocity": 121, "channel": 0}, {"type": "note_on", "time": 54, "note": 76, "velocity": 118, "channel": 0}, {"type": "note_off", "time": 84, "note": 76, "velocity": 118, "channel": 0}, {"type": "note_on", "time": 23, "note": 74, "velocity": 114, "channel": 0}, {"type": "note_off", "time": 233, "note": 74, "velocity": 114, "channel": 0}, {"type": "note_on", "time": 23, "note": 73, "velocity": 120, "channel": 0}, {"type": "note_off", "time": 468, "note": 73, "velocity": 120, "channel": 0}, {"type": "note_on", "time": 115, "note": 76, "velocity": 123, "channel": 0}, {"type": "note_off", "time": 126, "note": 76, "velocity": 123, "channel": 0}, {"type": "note_on", "time": 35, "note": 74, "velocity": 114, "channel": 0}, {"type": "note_off", "time": 61, "note": 74, "velocity": 114, "channel": 0}, {"type": "note_on", "time": 33, "note": 73, "velocity": 119, "channel": 0}, {"type": "note_off", "time": 110, "note": 73, "velocity": 119, "channel": 0}, {"type": "note_on", "time": 25, "note": 70, "velocity": 109, "channel": 0}, {"type": "note_off", "time": 123, "note": 70, "velocity": 109, "channel": 0}, {"type": "note_on", "time": 20, "note": 69, "velocity": 113, "channel": 0}, {"type": "note_off", "time": 92, "note": 69, "velocity": 113, "channel": 0}, {"type": "note_on", "time": 33, "note": 67, "velocity": 115, "channel": 0}, {"type": "note_off", "time": 187, "note": 67, "velocity": 115, "channel": 0}, {"type": "note_on", "time": 30, "note": 66, "velocity": 111, "channel": 0}, {"type": "note_off", "time": 928, "note": 66, "velocity": 111, "channel": 0}, {"type": "note_on", "time": 23, "note": 70, "velocity": 107, "channel": 0}, {"type": "note_off", "time": 118, "note": 70, "velocity": 107, "channel": 0}, {"type": "note_on", "time": 18, "note": 69, "velocity": 111, "channel": 0}, {"type": "note_off", "time": 74, "note": 69, "velocity": 111, "channel": 0}, {"type": "note_on", "time": 28, "note": 67, "velocity": 114, "channel": 0}, {"type": "note_off", "time": 74, "note": 67, "velocity": 114, "channel": 0}, {"type": "note_on", "time": 35, "note": 66, "velocity": 114, "channel": 0}, {"type": "note_off", "time": 133, "note": 66, "velocity": 114, "channel": 0}, {"type": "note_on", "time": 74, "note": 64, "velocity": 112, "channel": 0}, {"type": "note_off", "time": 506, "note": 64, "velocity": 112, "channel": 0}, {"type": "note_on", "time": 25, "note": 66, "velocity": 113, "channel": 0}, {"type": "note_off", "time": 120, "note": 66, "velocity": 113, "channel": 0}, {"type": "note_on", "time": 51, "note": 64, "velocity": 115, "channel": 0}, {"type": "note_off", "time": 128, "note": 64, "velocity": 115, "channel": 0}, {"type": "note_on", "time": 28, "note": 62, "velocity": 109, "channel": 0}, {"type": "note_off", "time": 115, "note": 62, "velocity": 109, "channel": 0}, {"type": "note_on", "time": 23, "note": 61, "velocity": 108, "channel": 0}, {"type": "note_off", "time": 673, "note": 61, "velocity": 108, "channel": 0}, {"type": "note_on", "time": 72, "note": 64, "velocity": 113, "channel": 0}, {"type": "note_off", "time": 174, "note": 64, "velocity": 113, "channel": 0}, {"type": "note_on", "time": 46, "note": 62, "velocity": 114, "channel": 0}, {"type": "note_off", "time": 113, "note": 62, "velocity": 114, "channel": 0}, {"type": "note_on", "time": 54, "note": 60, "velocity": 113, "channel": 0}, {"type": "note_off", "time": 97, "note": 60, "velocity": 113, "channel": 0}, {"type": "note_on", "time": 59, "note": 59, "velocity": 105, "channel": 0}, {"type": "note_off", "time": 2363, "note": 59, "velocity": 105, "channel": 0}, {"type": "note_on", "time": 3092, "note": 64, "velocity": 117, "channel": 0}, {"type": "note_off", "time": 267, "note": 64, "velocity": 117, "channel": 0}, {"type": "note_on", "time": 77, "note": 67, "velocity": 118, "channel": 0}, {"type": "note_off", "time": 169, "note": 67, "velocity": 118, "channel": 0}, {"type": "note_on", "time": 66, "note": 71, "velocity": 112, "channel": 0}, {"type": "note_off", "time": 144, "note": 71, "velocity": 112, "channel": 0}, {"type": "note_on", "time": 41, "note": 74, "velocity": 112, "channel": 0}, {"type": "note_off", "time": 205, "note": 74, "velocity": 112, "channel": 0}, {"type": "note_on", "time": 77, "note": 78, "velocity": 123, "channel": 0}, {"type": "note_off", "time": 144, "note": 78, "velocity": 123, "channel": 0}, {"type": "note_on", "time": 41, "note": 79, "velocity": 114, "channel": 0}, {"type": "note_off", "time": 56, "note": 79, "velocity": 114, "channel": 0}, {"type": "note_on", "time": 36, "note": 81, "velocity": 122, "channel": 0}, {"type": "note_off", "time": 87, "note": 81, "velocity": 122, "channel": 0}, {"type": "note_on", "time": 46, "note": 83, "velocity": 116, "channel": 0}, {"type": "note_off", "time": 200, "note": 83, "velocity": 116, "channel": 0}, {"type": "note_on", "time": 36, "note": 85, "velocity": 110, "channel": 0}, {"type": "note_off", "time": 2046, "note": 85, "velocity": 110, "channel": 0}, {"type": "note_on", "time": 66, "note": 83, "velocity": 114, "channel": 0}, {"type": "note_off", "time": 164, "note": 83, "velocity": 114, "channel": 0}, {"type": "note_on", "time": 66, "note": 85, "velocity": 108, "channel": 0}, {"type": "note_off", "time": 190, "note": 85, "velocity": 108, "channel": 0}, {"type": "note_on", "time": 61, "note": 83, "velocity": 109, "channel": 0}, {"type": "note_off", "time": 1198, "note": 83, "velocity": 109, "channel": 0}, {"type": "note_on", "time": 128, "note": 81, "velocity": 114, "channel": 0}, {"type": "note_off", "time": 262, "note": 81, "velocity": 114, "channel": 0}, {"type": "note_on", "time": 82, "note": 79, "velocity": 119, "channel": 0}, {"type": "note_off", "time": 478, "note": 79, "velocity": 119, "channel": 0}, {"type": "note_on", "time": 46, "note": 76, "velocity": 125, "channel": 0}, {"type": "note_off", "time": 426, "note": 76, "velocity": 125, "channel": 0}, {"type": "note_on", "time": 2067, "note": 71, "velocity": 112, "channel": 0}, {"type": "note_off", "time": 812, "note": 71, "velocity": 112, "channel": 0}, {"type": "note_on", "time": 56, "note": 83, "velocity": 102, "channel": 0}, {"type": "note_off", "time": 750, "note": 83, "velocity": 102, "channel": 0}, {"type": "note_on", "time": 210, "note": 81, "velocity": 107, "channel": 0}, {"type": "note_off", "time": 138, "note": 81, "velocity": 107, "channel": 0}, {"type": "note_on", "time": 46, "note": 83, "velocity": 114, "channel": 0}, {"type": "note_off", "time": 154, "note": 83, "velocity": 114, "channel": 0}, {"type": "note_on", "time": 684, "note": 83, "velocity": 116, "channel": 0}, {"type": "note_off", "time": 390, "note": 83, "velocity": 116, "channel": 0}, {"type": "note_on", "time": 509, "note": 83, "velocity": 114, "channel": 0}, {"type": "note_off", "time": 509, "note": 83, "velocity": 114, "channel": 0}, {"type": "note_on", "time": 282, "note": 83, "velocity": 112, "channel": 0}, {"type": "note_off", "time": 416, "note": 83, "velocity": 112, "channel": 0}, {"type": "note_on", "time": 60, "note": 86, "velocity": 110, "channel": 0}, {"type": "note_off", "time": 248, "note": 86, "velocity": 110, "channel": 0}, {"type": "note_on", "time": 153, "note": 83, "velocity": 103, "channel": 0}, {"type": "note_off", "time": 2845, "note": 83, "velocity": 103, "channel": 0}, {"type": "note_on", "time": 146, "note": 81, "velocity": 114, "channel": 0}, {"type": "note_off", "time": 212, "note": 81, "velocity": 114, "channel": 0}, {"type": "note_on", "time": 138, "note": 79, "velocity": 116, "channel": 0}, {"type": "note_off", "time": 402, "note": 79, "velocity": 116, "channel": 0}, {"type": "note_on", "time": 80, "note": 76, "velocity": 121, "channel": 0}, {"type": "note_off", "time": 533, "note": 76, "velocity": 121, "channel": 0}, {"type": "note_on", "time": 2816, "note": 78, "velocity": 121, "channel": 0}, {"type": "note_off", "time": 1250, "note": 78, "velocity": 121, "channel": 0}, {"type": "note_on", "time": 40, "note": 76, "velocity": 121, "channel": 0}, {"type": "note_off", "time": 160, "note": 76, "velocity": 121, "channel": 0}, {"type": "note_on", "time": 47, "note": 74, "velocity": 120, "channel": 0}, {"type": "note_off", "time": 109, "note": 74, "velocity": 120, "channel": 0}, {"type": "note_on", "time": 73, "note": 71, "velocity": 110, "channel": 0}, {"type": "note_off", "time": 157, "note": 71, "velocity": 110, "channel": 0}, {"type": "note_on", "time": 43, "note": 74, "velocity": 121, "channel": 0}, {"type": "note_off", "time": 135, "note": 74, "velocity": 121, "channel": 0}, {"type": "note_on", "time": 40, "note": 76, "velocity": 120, "channel": 0}, {"type": "note_off", "time": 128, "note": 76, "velocity": 120, "channel": 0}, {"type": "note_on", "time": 51, "note": 78, "velocity": 122, "channel": 0}, {"type": "note_off", "time": 160, "note": 78, "velocity": 122, "channel": 0}, {"type": "note_on", "time": 40, "note": 76, "velocity": 122, "channel": 0}, {"type": "note_off", "time": 190, "note": 76, "velocity": 122, "channel": 0}, {"type": "note_on", "time": 47, "note": 74, "velocity": 124, "channel": 0}, {"type": "note_off", "time": 109, "note": 74, "velocity": 124, "channel": 0}, {"type": "note_on", "time": 40, "note": 71, "velocity": 101, "channel": 0}, {"type": "note_off", "time": 2069, "note": 71, "velocity": 101, "channel": 0}, {"type": "note_on", "time": 90, "note": 74, "velocity": 119, "channel": 0}, {"type": "note_off", "time": 190, "note": 74, "velocity": 119, "channel": 0}, {"type": "note_on", "time": 25, "note": 76, "velocity": 118, "channel": 0}, {"type": "note_off", "time": 133, "note": 76, "velocity": 118, "channel": 0}, {"type": "note_on", "time": 15, "note": 78, "velocity": 119, "channel": 0}, {"type": "note_off", "time": 146, "note": 78, "velocity": 119, "channel": 0}, {"type": "note_on", "time": 43, "note": 76, "velocity": 125, "channel": 0}, {"type": "note_off", "time": 167, "note": 76, "velocity": 125, "channel": 0}, {"type": "note_on", "time": 46, "note": 74, "velocity": 119, "channel": 0}, {"type": "note_off", "time": 156, "note": 74, "velocity": 119, "channel": 0}, {"type": "note_on", "time": 46, "note": 71, "velocity": 109, "channel": 0}, {"type": "note_off", "time": 177, "note": 71, "velocity": 109, "channel": 0}, {"type": "note_on", "time": 18, "note": 74, "velocity": 120, "channel": 0}, {"type": "note_off", "time": 167, "note": 74, "velocity": 120, "channel": 0}, {"type": "note_on", "time": 20, "note": 76, "velocity": 126, "channel": 0}, {"type": "note_off", "time": 105, "note": 76, "velocity": 126, "channel": 0}, {"type": "note_on", "time": 25, "note": 78, "velocity": 118, "channel": 0}, {"type": "note_off", "time": 141, "note": 78, "velocity": 118, "channel": 0}, {"type": "note_on", "time": 35, "note": 81, "velocity": 116, "channel": 0}, {"type": "note_off", "time": 149, "note": 81, "velocity": 116, "channel": 0}, {"type": "note_on", "time": 43, "note": 83, "velocity": 113, "channel": 0}, {"type": "note_off", "time": 154, "note": 83, "velocity": 113, "channel": 0}, {"type": "note_on", "time": 33, "note": 81, "velocity": 118, "channel": 0}, {"type": "note_off", "time": 177, "note": 81, "velocity": 118, "channel": 0}, {"type": "note_on", "time": 41, "note": 78, "velocity": 120, "channel": 0}, {"type": "note_off", "time": 115, "note": 78, "velocity": 120, "channel": 0}, {"type": "note_on", "time": 15, "note": 76, "velocity": 125, "channel": 0}, {"type": "note_off", "time": 177, "note": 76, "velocity": 125, "channel": 0}, {"type": "note_on", "time": 56, "note": 74, "velocity": 119, "channel": 0}, {"type": "note_off", "time": 192, "note": 74, "velocity": 119, "channel": 0}, {"type": "note_on", "time": 54, "note": 71, "velocity": 116, "channel": 0}, {"type": "note_off", "time": 159, "note": 71, "velocity": 116, "channel": 0}, {"type": "note_on", "time": 38, "note": 74, "velocity": 118, "channel": 0}, {"type": "note_off", "time": 144, "note": 74, "velocity": 118, "channel": 0}, {"type": "note_on", "time": 23, "note": 76, "velocity": 121, "channel": 0}, {"type": "note_off", "time": 118, "note": 76, "velocity": 121, "channel": 0}, {"type": "note_on", "time": 17, "note": 78, "velocity": 120, "channel": 0}, {"type": "note_off", "time": 149, "note": 78, "velocity": 120, "channel": 0}, {"type": "note_on", "time": 48, "note": 81, "velocity": 112, "channel": 0}, {"type": "note_off", "time": 167, "note": 81, "velocity": 112, "channel": 0}, {"type": "note_on", "time": 25, "note": 83, "velocity": 110, "channel": 0}, {"type": "note_off", "time": 146, "note": 83, "velocity": 110, "channel": 0}, {"type": "note_on", "time": 30, "note": 81, "velocity": 111, "channel": 0}, {"type": "note_off", "time": 136, "note": 81, "velocity": 111, "channel": 0}, {"type": "note_on", "time": 30, "note": 78, "velocity": 116, "channel": 0}, {"type": "note_off", "time": 128, "note": 78, "velocity": 116, "channel": 0}, {"type": "note_on", "time": 36, "note": 76, "velocity": 123, "channel": 0}, {"type": "note_off", "time": 115, "note": 76, "velocity": 123, "channel": 0}, {"type": "note_on", "time": 48, "note": 74, "velocity": 119, "channel": 0}, {"type": "note_off", "time": 151, "note": 74, "velocity": 119, "channel": 0}, {"type": "note_on", "time": 41, "note": 71, "velocity": 107, "channel": 0}, {"type": "note_off", "time": 167, "note": 71, "velocity": 107, "channel": 0}, {"type": "note_on", "time": 38, "note": 74, "velocity": 118, "channel": 0}, {"type": "note_off", "time": 164, "note": 74, "velocity": 118, "channel": 0}, {"type": "note_on", "time": 15, "note": 76, "velocity": 123, "channel": 0}, {"type": "note_off", "time": 108, "note": 76, "velocity": 123, "channel": 0}, {"type": "note_on", "time": 46, "note": 78, "velocity": 120, "channel": 0}, {"type": "note_off", "time": 131, "note": 78, "velocity": 120, "channel": 0}, {"type": "note_on", "time": 18, "note": 81, "velocity": 113, "channel": 0}, {"type": "note_off", "time": 123, "note": 81, "velocity": 113, "channel": 0}, {"type": "note_on", "time": 15, "note": 83, "velocity": 117, "channel": 0}, {"type": "note_off", "time": 167, "note": 83, "velocity": 117, "channel": 0}, {"type": "note_on", "time": 33, "note": 85, "velocity": 113, "channel": 0}, {"type": "note_off", "time": 180, "note": 85, "velocity": 113, "channel": 0}, {"type": "note_on", "time": 38, "note": 83, "velocity": 115, "channel": 0}, {"type": "note_off", "time": 123, "note": 83, "velocity": 115, "channel": 0}, {"type": "note_on", "time": 36, "note": 81, "velocity": 115, "channel": 0}, {"type": "note_off", "time": 118, "note": 81, "velocity": 115, "channel": 0}, {"type": "note_on", "time": 23, "note": 79, "velocity": 116, "channel": 0}, {"type": "note_off", "time": 79, "note": 79, "velocity": 116, "channel": 0}, {"type": "note_on", "time": 18, "note": 78, "velocity": 117, "channel": 0}, {"type": "note_off", "time": 95, "note": 78, "velocity": 117, "channel": 0}, {"type": "note_on", "time": 20, "note": 76, "velocity": 123, "channel": 0}, {"type": "note_off", "time": 131, "note": 76, "velocity": 123, "channel": 0}, {"type": "note_on", "time": 51, "note": 74, "velocity": 121, "channel": 0}, {"type": "note_off", "time": 164, "note": 74, "velocity": 121, "channel": 0}, {"type": "note_on", "time": 41, "note": 71, "velocity": 111, "channel": 0}, {"type": "note_off", "time": 136, "note": 71, "velocity": 111, "channel": 0}, {"type": "note_on", "time": 41, "note": 74, "velocity": 118, "channel": 0}, {"type": "note_off", "time": 164, "note": 74, "velocity": 118, "channel": 0}, {"type": "note_on", "time": 12, "note": 76, "velocity": 121, "channel": 0}, {"type": "note_off", "time": 131, "note": 76, "velocity": 121, "channel": 0}, {"type": "note_on", "time": 30, "note": 78, "velocity": 110, "channel": 0}, {"type": "note_off", "time": 95, "note": 78, "velocity": 110, "channel": 0}, {"type": "note_on", "time": 25, "note": 81, "velocity": 114, "channel": 0}, {"type": "note_off", "time": 113, "note": 81, "velocity": 114, "channel": 0}, {"type": "note_on", "time": 54, "note": 83, "velocity": 104, "channel": 0}, {"type": "note_off", "time": 331, "note": 83, "velocity": 104, "channel": 0}, {"type": "note_on", "time": 82, "note": 79, "velocity": 114, "channel": 0}, {"type": "note_off", "time": 82, "note": 79, "velocity": 114, "channel": 0}, {"type": "note_on", "time": 10, "note": 78, "velocity": 116, "channel": 0}, {"type": "note_off", "time": 82, "note": 78, "velocity": 116, "channel": 0}, {"type": "note_on", "time": 18, "note": 76, "velocity": 123, "channel": 0}, {"type": "note_off", "time": 110, "note": 76, "velocity": 123, "channel": 0}, {"type": "note_on", "time": 41, "note": 74, "velocity": 119, "channel": 0}, {"type": "note_off", "time": 195, "note": 74, "velocity": 119, "channel": 0}, {"type": "note_on", "time": 38, "note": 73, "velocity": 118, "channel": 0}, {"type": "note_off", "time": 1691, "note": 73, "velocity": 118, "channel": 0}, {"type": "note_on", "time": 54, "note": 71, "velocity": 103, "channel": 0}, {"type": "note_off", "time": 95, "note": 71, "velocity": 103, "channel": 0}, {"type": "note_on", "time": 28, "note": 69, "velocity": 112, "channel": 0}, {"type": "note_off", "time": 102, "note": 69, "velocity": 112, "channel": 0}, {"type": "note_on", "time": 51, "note": 66, "velocity": 111, "channel": 0}, {"type": "note_off", "time": 95, "note": 66, "velocity": 111, "channel": 0}, {"type": "note_on", "time": 38, "note": 64, "velocity": 116, "channel": 0}, {"type": "note_off", "time": 208, "note": 64, "velocity": 116, "channel": 0}, {"type": "note_on", "time": 18, "note": 62, "velocity": 113, "channel": 0}, {"type": "note_off", "time": 884, "note": 62, "velocity": 113, "channel": 0}, {"type": "note_on", "time": 66, "note": 64, "velocity": 114, "channel": 0}, {"type": "note_off", "time": 812, "note": 64, "velocity": 114, "channel": 0}, {"type": "note_on", "time": 2372, "note": 64, "velocity": 119, "channel": 0}, {"type": "note_off", "time": 179, "note": 64, "velocity": 119, "channel": 0}, {"type": "note_on", "time": 43, "note": 67, "velocity": 116, "channel": 0}, {"type": "note_off", "time": 153, "note": 67, "velocity": 116, "channel": 0}, {"type": "note_on", "time": 25, "note": 69, "velocity": 113, "channel": 0}, {"type": "note_off", "time": 153, "note": 69, "velocity": 113, "channel": 0}, {"type": "note_on", "time": 54, "note": 71, "velocity": 98, "channel": 0}, {"type": "note_off", "time": 3728, "note": 71, "velocity": 98, "channel": 0}, {"type": "note_on", "time": 27, "note": 69, "velocity": 103, "channel": 0}, {"type": "note_off", "time": 106, "note": 69, "velocity": 103, "channel": 0}, {"type": "note_on", "time": 80, "note": 67, "velocity": 110, "channel": 0}, {"type": "note_off", "time": 149, "note": 67, "velocity": 110, "channel": 0}, {"type": "note_on", "time": 80, "note": 64, "velocity": 115, "channel": 0}, {"type": "note_off", "time": 193, "note": 64, "velocity": 115, "channel": 0}, {"type": "note_on", "time": 47, "note": 67, "velocity": 110, "channel": 0}, {"type": "note_off", "time": 175, "note": 67, "velocity": 110, "channel": 0}, {"type": "note_on", "time": 54, "note": 69, "velocity": 111, "channel": 0}, {"type": "note_off", "time": 95, "note": 69, "velocity": 111, "channel": 0}, {"type": "note_on", "time": 51, "note": 71, "velocity": 110, "channel": 0}, {"type": "note_off", "time": 120, "note": 71, "velocity": 110, "channel": 0}, {"type": "note_on", "time": 29, "note": 69, "velocity": 111, "channel": 0}, {"type": "note_off", "time": 87, "note": 69, "velocity": 111, "channel": 0}, {"type": "note_on", "time": 14, "note": 67, "velocity": 115, "channel": 0}, {"type": "note_off", "time": 204, "note": 67, "velocity": 115, "channel": 0}, {"type": "note_on", "time": 40, "note": 64, "velocity": 115, "channel": 0}, {"type": "note_off", "time": 219, "note": 64, "velocity": 115, "channel": 0}, {"type": "note_on", "time": 40, "note": 67, "velocity": 115, "channel": 0}, {"type": "note_off", "time": 102, "note": 67, "velocity": 115, "channel": 0}, {"type": "note_on", "time": 21, "note": 69, "velocity": 113, "channel": 0}, {"type": "note_off", "time": 135, "note": 69, "velocity": 113, "channel": 0}, {"type": "note_on", "time": 18, "note": 71, "velocity": 108, "channel": 0}, {"type": "note_off", "time": 102, "note": 71, "velocity": 108, "channel": 0}, {"type": "note_on", "time": 29, "note": 69, "velocity": 111, "channel": 0}, {"type": "note_off", "time": 84, "note": 69, "velocity": 111, "channel": 0}, {"type": "note_on", "time": 32, "note": 67, "velocity": 117, "channel": 0}, {"type": "note_off", "time": 164, "note": 67, "velocity": 117, "channel": 0}, {"type": "note_on", "time": 54, "note": 64, "velocity": 118, "channel": 0}, {"type": "note_off", "time": 193, "note": 64, "velocity": 118, "channel": 0}, {"type": "note_on", "time": 76, "note": 67, "velocity": 114, "channel": 0}, {"type": "note_off", "time": 80, "note": 67, "velocity": 114, "channel": 0}, {"type": "note_on", "time": 18, "note": 69, "velocity": 113, "channel": 0}, {"type": "note_off", "time": 160, "note": 69, "velocity": 113, "channel": 0}, {"type": "note_on", "time": 18, "note": 71, "velocity": 111, "channel": 0}, {"type": "note_off", "time": 135, "note": 71, "velocity": 111, "channel": 0}, {"type": "note_on", "time": 47, "note": 67, "velocity": 113, "channel": 0}, {"type": "note_off", "time": 281, "note": 67, "velocity": 113, "channel": 0}, {"type": "note_on", "time": 47, "note": 64, "velocity": 119, "channel": 0}, {"type": "note_off", "time": 179, "note": 64, "velocity": 119, "channel": 0}, {"type": "note_on", "time": 43, "note": 67, "velocity": 114, "channel": 0}, {"type": "note_off", "time": 175, "note": 67, "velocity": 114, "channel": 0}, {"type": "note_on", "time": 25, "note": 69, "velocity": 107, "channel": 0}, {"type": "note_off", "time": 98, "note": 69, "velocity": 107, "channel": 0}, {"type": "note_on", "time": 25, "note": 71, "velocity": 109, "channel": 0}, {"type": "note_off", "time": 98, "note": 71, "velocity": 109, "channel": 0}, {"type": "note_on", "time": 21, "note": 69, "velocity": 110, "channel": 0}, {"type": "note_off", "time": 65, "note": 69, "velocity": 110, "channel": 0}, {"type": "note_on", "time": 36, "note": 67, "velocity": 113, "channel": 0}, {"type": "note_off", "time": 201, "note": 67, "velocity": 113, "channel": 0}, {"type": "note_on", "time": 58, "note": 64, "velocity": 118, "channel": 0}, {"type": "note_off", "time": 95, "note": 64, "velocity": 118, "channel": 0}, {"type": "note_on", "time": 29, "note": 65, "velocity": 113, "channel": 0}, {"type": "note_off", "time": 73, "note": 65, "velocity": 113, "channel": 0}, {"type": "note_on", "time": 29, "note": 67, "velocity": 112, "channel": 0}, {"type": "note_off", "time": 142, "note": 67, "velocity": 112, "channel": 0}, {"type": "note_on", "time": 21, "note": 69, "velocity": 110, "channel": 0}, {"type": "note_off", "time": 117, "note": 69, "velocity": 110, "channel": 0}, {"type": "note_on", "time": 18, "note": 70, "velocity": 108, "channel": 0}, {"type": "note_off", "time": 87, "note": 70, "velocity": 108, "channel": 0}, {"type": "note_on", "time": 10, "note": 69, "velocity": 108, "channel": 0}, {"type": "note_off", "time": 91, "note": 69, "velocity": 108, "channel": 0}, {"type": "note_on", "time": 91, "note": 66, "velocity": 110, "channel": 0}, {"type": "note_off", "time": 146, "note": 66, "velocity": 110, "channel": 0}, {"type": "note_on", "time": 58, "note": 67, "velocity": 109, "channel": 0}, {"type": "note_off", "time": 160, "note": 67, "velocity": 109, "channel": 0}, {"type": "note_on", "time": 54, "note": 69, "velocity": 106, "channel": 0}, {"type": "note_off", "time": 106, "note": 69, "velocity": 106, "channel": 0}, {"type": "note_on", "time": 10, "note": 71, "velocity": 109, "channel": 0}, {"type": "note_off", "time": 87, "note": 71, "velocity": 109, "channel": 0}, {"type": "note_on", "time": 32, "note": 73, "velocity": 112, "channel": 0}, {"type": "note_off", "time": 208, "note": 73, "velocity": 112, "channel": 0}, {"type": "note_on", "time": 21, "note": 74, "velocity": 109, "channel": 0}, {"type": "note_off", "time": 117, "note": 74, "velocity": 109, "channel": 0}, {"type": "note_on", "time": 21, "note": 76, "velocity": 118, "channel": 0}, {"type": "note_off", "time": 113, "note": 76, "velocity": 118, "channel": 0}, {"type": "note_on", "time": 62, "note": 79, "velocity": 117, "channel": 0}, {"type": "note_off", "time": 149, "note": 79, "velocity": 117, "channel": 0}, {"type": "note_on", "time": 51, "note": 81, "velocity": 114, "channel": 0}, {"type": "note_off", "time": 120, "note": 81, "velocity": 114, "channel": 0}, {"type": "note_on", "time": 54, "note": 83, "velocity": 117, "channel": 0}, {"type": "note_off", "time": 120, "note": 83, "velocity": 117, "channel": 0}, {"type": "note_on", "time": 76, "note": 85, "velocity": 101, "channel": 0}, {"type": "note_off", "time": 2823, "note": 85, "velocity": 101, "channel": 0}, {"type": "note_on", "time": 175, "note": 83, "velocity": 108, "channel": 0}, {"type": "note_off", "time": 197, "note": 83, "velocity": 108, "channel": 0}, {"type": "note_on", "time": 118, "note": 85, "velocity": 85, "channel": 0}, {"type": "note_off", "time": 668, "note": 85, "velocity": 85, "channel": 0}, {"type": "note_on", "time": 41, "note": 83, "velocity": 101, "channel": 0}, {"type": "note_off", "time": 1049, "note": 83, "velocity": 101, "channel": 0}, {"type": "note_on", "time": 3074, "note": 83, "velocity": 112, "channel": 0}, {"type": "note_off", "time": 197, "note": 83, "velocity": 112, "channel": 0}, {"type": "note_on", "time": 307, "note": 83, "velocity": 115, "channel": 0}, {"type": "note_off", "time": 292, "note": 83, "velocity": 115, "channel": 0}, {"type": "note_on", "time": 153, "note": 86, "velocity": 109, "channel": 0}, {"type": "note_off", "time": 1594, "note": 86, "velocity": 109, "channel": 0}, {"type": "note_on", "time": 117, "note": 83, "velocity": 105, "channel": 0}, {"type": "note_off", "time": 248, "note": 83, "velocity": 105, "channel": 0}, {"type": "note_on", "time": 160, "note": 86, "velocity": 108, "channel": 0}, {"type": "note_off", "time": 1740, "note": 86, "velocity": 108, "channel": 0}, {"type": "note_on", "time": 61, "note": 84, "velocity": 96, "channel": 0}, {"type": "note_off", "time": 102, "note": 84, "velocity": 96, "channel": 0}, {"type": "note_on", "time": 15, "note": 82, "velocity": 93, "channel": 0}, {"type": "note_off", "time": 59, "note": 82, "velocity": 93, "channel": 0}, {"type": "note_on", "time": 28, "note": 81, "velocity": 101, "channel": 0}, {"type": "note_off", "time": 64, "note": 81, "velocity": 101, "channel": 0}, {"type": "note_on", "time": 17, "note": 79, "velocity": 116, "channel": 0}, {"type": "note_off", "time": 275, "note": 79, "velocity": 116, "channel": 0}, {"type": "note_on", "time": 33, "note": 76, "velocity": 116, "channel": 0}, {"type": "note_off", "time": 343, "note": 76, "velocity": 116, "channel": 0}, {"type": "note_on", "time": 431, "note": 76, "velocity": 119, "channel": 0}, {"type": "note_off", "time": 263, "note": 76, "velocity": 119, "channel": 0}, {"type": "note_on", "time": 541, "note": 76, "velocity": 115, "channel": 0}, {"type": "note_off", "time": 409, "note": 76, "velocity": 115, "channel": 0}, {"type": "note_on", "time": 394, "note": 76, "velocity": 9, "channel": 0}, {"type": "note_off", "time": 2399, "note": 76, "velocity": 9, "channel": 0}, {"type": "note_on", "time": 58, "note": 74, "velocity": 97, "channel": 0}, {"type": "note_off", "time": 160, "note": 74, "velocity": 97, "channel": 0}, {"type": "note_on", "time": 43, "note": 76, "velocity": 117, "channel": 0}, {"type": "note_off", "time": 197, "note": 76, "velocity": 117, "channel": 0}, {"type": "note_on", "time": 563, "note": 76, "velocity": 116, "channel": 0}, {"type": "note_off", "time": 336, "note": 76, "velocity": 116, "channel": 0}, {"type": "note_on", "time": 563, "note": 76, "velocity": 115, "channel": 0}, {"type": "note_off", "time": 343, "note": 76, "velocity": 115, "channel": 0}, {"type": "note_on", "time": 453, "note": 70, "velocity": 106, "channel": 0}, {"type": "note_off", "time": 468, "note": 70, "velocity": 106, "channel": 0}, {"type": "note_on", "time": 29, "note": 71, "velocity": 101, "channel": 0}, {"type": "note_off", "time": 1638, "note": 71, "velocity": 101, "channel": 0}, {"type": "note_on", "time": 158, "note": 69, "velocity": 108, "channel": 0}, {"type": "note_off", "time": 159, "note": 69, "velocity": 108, "channel": 0}, {"type": "note_on", "time": 102, "note": 67, "velocity": 115, "channel": 0}, {"type": "note_off", "time": 447, "note": 67, "velocity": 115, "channel": 0}, {"type": "note_on", "time": 231, "note": 64, "velocity": 115, "channel": 0}, {"type": "note_off", "time": 473, "note": 64, "velocity": 115, "channel": 0}, {"type": "note_on", "time": 3589, "note": 64, "velocity": 118, "channel": 0}, {"type": "note_off", "time": 241, "note": 64, "velocity": 118, "channel": 0}, {"type": "note_on", "time": 102, "note": 67, "velocity": 116, "channel": 0}, {"type": "note_off", "time": 262, "note": 67, "velocity": 116, "channel": 0}, {"type": "note_on", "time": 46, "note": 69, "velocity": 119, "channel": 0}, {"type": "note_off", "time": 2756, "note": 69, "velocity": 119, "channel": 0}, {"type": "note_on", "time": 174, "note": 74, "velocity": 116, "channel": 0}, {"type": "note_off", "time": 1620, "note": 74, "velocity": 116, "channel": 0}, {"type": "note_on", "time": 97, "note": 71, "velocity": 110, "channel": 0}, {"type": "note_off", "time": 2556, "note": 71, "velocity": 110, "channel": 0}, {"type": "note_on", "time": 2257, "note": 64, "velocity": 117, "channel": 0}, {"type": "note_off", "time": 164, "note": 64, "velocity": 117, "channel": 0}, {"type": "note_on", "time": 61, "note": 67, "velocity": 111, "channel": 0}, {"type": "note_off", "time": 154, "note": 67, "velocity": 111, "channel": 0}, {"type": "note_on", "time": 138, "note": 69, "velocity": 110, "channel": 0}, {"type": "note_off", "time": 246, "note": 69, "velocity": 110, "channel": 0}, {"type": "note_on", "time": 380, "note": 69, "velocity": 104, "channel": 0}, {"type": "note_off", "time": 267, "note": 69, "velocity": 104, "channel": 0}, {"type": "note_on", "time": 385, "note": 69, "velocity": 110, "channel": 0}, {"type": "note_off", "time": 313, "note": 69, "velocity": 110, "channel": 0}, {"type": "note_on", "time": 282, "note": 69, "velocity": 105, "channel": 0}, {"type": "note_off", "time": 925, "note": 69, "velocity": 105, "channel": 0}, {"type": "note_on", "time": 185, "note": 74, "velocity": 109, "channel": 0}, {"type": "note_off", "time": 977, "note": 74, "velocity": 109, "channel": 0}, {"type": "note_on", "time": 41, "note": 73, "velocity": 109, "channel": 0}, {"type": "note_off", "time": 246, "note": 73, "velocity": 109, "channel": 0}, {"type": "note_on", "time": 72, "note": 76, "velocity": 117, "channel": 0}, {"type": "note_off", "time": 159, "note": 76, "velocity": 117, "channel": 0}, {"type": "note_on", "time": 20, "note": 77, "velocity": 107, "channel": 0}, {"type": "note_off", "time": 97, "note": 77, "velocity": 107, "channel": 0}, {"type": "note_on", "time": 72, "note": 74, "velocity": 117, "channel": 0}, {"type": "note_off", "time": 108, "note": 74, "velocity": 117, "channel": 0}, {"type": "note_on", "time": 66, "note": 72, "velocity": 112, "channel": 0}, {"type": "note_off", "time": 118, "note": 72, "velocity": 112, "channel": 0}, {"type": "note_on", "time": 82, "note": 71, "velocity": 96, "channel": 0}, {"type": "note_off", "time": 1666, "note": 71, "velocity": 96, "channel": 0}, {"type": "note_on", "time": 1823, "note": 70, "velocity": 105, "channel": 0}, {"type": "note_off", "time": 84, "note": 70, "velocity": 105, "channel": 0}, {"type": "note_on", "time": 40, "note": 67, "velocity": 114, "channel": 0}, {"type": "note_off", "time": 179, "note": 67, "velocity": 114, "channel": 0}, {"type": "note_on", "time": 65, "note": 66, "velocity": 115, "channel": 0}, {"type": "note_off", "time": 171, "note": 66, "velocity": 115, "channel": 0}, {"type": "note_on", "time": 43, "note": 67, "velocity": 114, "channel": 0}, {"type": "note_off", "time": 138, "note": 67, "velocity": 114, "channel": 0}, {"type": "note_on", "time": 25, "note": 69, "velocity": 110, "channel": 0}, {"type": "note_off", "time": 128, "note": 69, "velocity": 110, "channel": 0}, {"type": "note_on", "time": 36, "note": 71, "velocity": 110, "channel": 0}, {"type": "note_off", "time": 142, "note": 71, "velocity": 110, "channel": 0}, {"type": "note_on", "time": 29, "note": 73, "velocity": 118, "channel": 0}, {"type": "note_off", "time": 153, "note": 73, "velocity": 118, "channel": 0}, {"type": "note_on", "time": 62, "note": 74, "velocity": 118, "channel": 0}, {"type": "note_off", "time": 91, "note": 74, "velocity": 118, "channel": 0}, {"type": "note_on", "time": 40, "note": 76, "velocity": 119, "channel": 0}, {"type": "note_off", "time": 98, "note": 76, "velocity": 119, "channel": 0}, {"type": "note_on", "time": 21, "note": 78, "velocity": 115, "channel": 0}, {"type": "note_off", "time": 65, "note": 78, "velocity": 115, "channel": 0}, {"type": "note_on", "time": 54, "note": 79, "velocity": 118, "channel": 0}, {"type": "note_off", "time": 168, "note": 79, "velocity": 118, "channel": 0}, {"type": "note_on", "time": 14, "note": 81, "velocity": 117, "channel": 0}, {"type": "note_off", "time": 131, "note": 81, "velocity": 117, "channel": 0}, {"type": "note_on", "time": 14, "note": 83, "velocity": 111, "channel": 0}, {"type": "note_off", "time": 160, "note": 83, "velocity": 111, "channel": 0}, {"type": "note_on", "time": 64, "note": 85, "velocity": 94, "channel": 0}, {"type": "note_off", "time": 1285, "note": 85, "velocity": 94, "channel": 0}, {"type": "note_on", "time": 142, "note": 83, "velocity": 101, "channel": 0}, {"type": "note_off", "time": 303, "note": 83, "velocity": 101, "channel": 0}, {"type": "note_on", "time": 32, "note": 85, "velocity": 95, "channel": 0}, {"type": "note_off", "time": 54, "note": 85, "velocity": 95, "channel": 0}, {"type": "note_on", "time": 40, "note": 87, "velocity": 99, "channel": 0}, {"type": "note_off", "time": 204, "note": 87, "velocity": 99, "channel": 0}, {"type": "note_on", "time": 3, "note": 86, "velocity": 102, "channel": 0}, {"type": "note_off", "time": 58, "note": 86, "velocity": 102, "channel": 0}, {"type": "note_on", "time": 43, "note": 85, "velocity": 105, "channel": 0}, {"type": "note_off", "time": 91, "note": 85, "velocity": 105, "channel": 0}, {"type": "note_on", "time": 80, "note": 83, "velocity": 110, "channel": 0}, {"type": "note_off", "time": 179, "note": 83, "velocity": 110, "channel": 0}, {"type": "note_on", "time": 43, "note": 80, "velocity": 117, "channel": 0}, {"type": "note_off", "time": 1294, "note": 80, "velocity": 117, "channel": 0}, {"type": "note_on", "time": 91, "note": 78, "velocity": 115, "channel": 0}, {"type": "note_off", "time": 164, "note": 78, "velocity": 115, "channel": 0}, {"type": "note_on", "time": 870, "note": 66, "velocity": 115, "channel": 0}, {"type": "note_off", "time": 142, "note": 66, "velocity": 115, "channel": 0}, {"type": "note_on", "time": 47, "note": 67, "velocity": 117, "channel": 0}, {"type": "note_off", "time": 95, "note": 67, "velocity": 117, "channel": 0}, {"type": "note_on", "time": 40, "note": 69, "velocity": 112, "channel": 0}, {"type": "note_off", "time": 138, "note": 69, "velocity": 112, "channel": 0}, {"type": "note_on", "time": 25, "note": 70, "velocity": 110, "channel": 0}, {"type": "note_off", "time": 91, "note": 70, "velocity": 110, "channel": 0}, {"type": "note_on", "time": 43, "note": 73, "velocity": 121, "channel": 0}, {"type": "note_off", "time": 124, "note": 73, "velocity": 121, "channel": 0}, {"type": "note_on", "time": 21, "note": 74, "velocity": 121, "channel": 0}, {"type": "note_off", "time": 120, "note": 74, "velocity": 121, "channel": 0}, {"type": "note_on", "time": 14, "note": 76, "velocity": 118, "channel": 0}, {"type": "note_off", "time": 91, "note": 76, "velocity": 118, "channel": 0}, {"type": "note_on", "time": 18, "note": 79, "velocity": 116, "channel": 0}, {"type": "note_off", "time": 146, "note": 79, "velocity": 116, "channel": 0}, {"type": "note_on", "time": 25, "note": 83, "velocity": 108, "channel": 0}, {"type": "note_off", "time": 117, "note": 83, "velocity": 108, "channel": 0}, {"type": "note_on", "time": 18, "note": 85, "velocity": 107, "channel": 0}, {"type": "note_off", "time": 98, "note": 85, "velocity": 107, "channel": 0}, {"type": "note_on", "time": 21, "note": 84, "velocity": 94, "channel": 0}, {"type": "note_off", "time": 54, "note": 84, "velocity": 94, "channel": 0}, {"type": "note_on", "time": 43, "note": 83, "velocity": 116, "channel": 0}, {"type": "note_off", "time": 208, "note": 83, "velocity": 116, "channel": 0}, {"type": "note_on", "time": 21, "note": 85, "velocity": 104, "channel": 0}, {"type": "note_off", "time": 65, "note": 85, "velocity": 104, "channel": 0}, {"type": "note_on", "time": 29, "note": 86, "velocity": 109, "channel": 0}, {"type": "note_off", "time": 87, "note": 86, "velocity": 109, "channel": 0}, {"type": "note_on", "time": 29, "note": 85, "velocity": 106, "channel": 0}, {"type": "note_off", "time": 157, "note": 85, "velocity": 106, "channel": 0}, {"type": "note_on", "time": 51, "note": 83, "velocity": 109, "channel": 0}, {"type": "note_off", "time": 182, "note": 83, "velocity": 109, "channel": 0}, {"type": "note_on", "time": 43, "note": 80, "velocity": 114, "channel": 0}, {"type": "note_off", "time": 1429, "note": 80, "velocity": 114, "channel": 0}, {"type": "note_on", "time": 84, "note": 78, "velocity": 107, "channel": 0}, {"type": "note_off", "time": 135, "note": 78, "velocity": 107, "channel": 0}, {"type": "note_on", "time": 1192, "note": 71, "velocity": 111, "channel": 0}, {"type": "note_off", "time": 215, "note": 71, "velocity": 111, "channel": 0}, {"type": "note_on", "time": 62, "note": 73, "velocity": 122, "channel": 0}, {"type": "note_off", "time": 186, "note": 73, "velocity": 122, "channel": 0}, {"type": "note_on", "time": 40, "note": 74, "velocity": 119, "channel": 0}, {"type": "note_off", "time": 131, "note": 74, "velocity": 119, "channel": 0}, {"type": "note_on", "time": 36, "note": 78, "velocity": 107, "channel": 0}, {"type": "note_off", "time": 95, "note": 78, "velocity": 107, "channel": 0}, {"type": "note_on", "time": 14, "note": 81, "velocity": 110, "channel": 0}, {"type": "note_off", "time": 157, "note": 81, "velocity": 110, "channel": 0}, {"type": "note_on", "time": 14, "note": 83, "velocity": 113, "channel": 0}, {"type": "note_off", "time": 153, "note": 83, "velocity": 113, "channel": 0}, {"type": "note_on", "time": 25, "note": 85, "velocity": 105, "channel": 0}, {"type": "note_off", "time": 157, "note": 85, "velocity": 105, "channel": 0}, {"type": "note_on", "time": 40, "note": 84, "velocity": 87, "channel": 0}, {"type": "note_off", "time": 47, "note": 84, "velocity": 87, "channel": 0}, {"type": "note_on", "time": 47, "note": 83, "velocity": 111, "channel": 0}, {"type": "note_off", "time": 197, "note": 83, "velocity": 111, "channel": 0}, {"type": "note_on", "time": 21, "note": 85, "velocity": 101, "channel": 0}, {"type": "note_off", "time": 54, "note": 85, "velocity": 101, "channel": 0}, {"type": "note_on", "time": 25, "note": 86, "velocity": 91, "channel": 0}, {"type": "note_off", "time": 73, "note": 86, "velocity": 91, "channel": 0}, {"type": "note_on", "time": 29, "note": 85, "velocity": 89, "channel": 0}, {"type": "note_off", "time": 182, "note": 85, "velocity": 89, "channel": 0}, {"type": "note_on", "time": 113, "note": 83, "velocity": 111, "channel": 0}, {"type": "note_off", "time": 182, "note": 83, "velocity": 111, "channel": 0}, {"type": "note_on", "time": 58, "note": 80, "velocity": 115, "channel": 0}, {"type": "note_off", "time": 1356, "note": 80, "velocity": 115, "channel": 0}, {"type": "note_on", "time": 95, "note": 78, "velocity": 114, "channel": 0}, {"type": "note_off", "time": 197, "note": 78, "velocity": 114, "channel": 0}, {"type": "note_on", "time": 27, "note": 74, "velocity": 115, "channel": 0}, {"type": "note_off", "time": 2509, "note": 74, "velocity": 115, "channel": 0}, {"type": "note_on", "time": 468, "note": 76, "velocity": 118, "channel": 0}, {"type": "note_off", "time": 288, "note": 76, "velocity": 118, "channel": 0}, {"type": "note_on", "time": 128, "note": 74, "velocity": 112, "channel": 0}, {"type": "note_off", "time": 1342, "note": 74, "velocity": 112, "channel": 0}, {"type": "note_on", "time": 323, "note": 74, "velocity": 109, "channel": 0}, {"type": "note_off", "time": 509, "note": 74, "velocity": 109, "channel": 0}, {"type": "note_on", "time": 118, "note": 71, "velocity": 104, "channel": 0}, {"type": "note_off", "time": 282, "note": 71, "velocity": 104, "channel": 0}, {"type": "note_on", "time": 56, "note": 71, "velocity": 102, "channel": 0}, {"type": "note_off", "time": 1722, "note": 71, "velocity": 102, "channel": 0}, {"type": "note_on", "time": 180, "note": 69, "velocity": 92, "channel": 0}, {"type": "note_off", "time": 180, "note": 69, "velocity": 92, "channel": 0}, {"type": "note_on", "time": 87, "note": 71, "velocity": 111, "channel": 0}, {"type": "note_off", "time": 200, "note": 71, "velocity": 111, "channel": 0}, {"type": "note_on", "time": 138, "note": 69, "velocity": 102, "channel": 0}, {"type": "note_off", "time": 1290, "note": 69, "velocity": 102, "channel": 0}, {"type": "note_on", "time": 72, "note": 67, "velocity": 108, "channel": 0}, {"type": "note_off", "time": 185, "note": 67, "velocity": 108, "channel": 0}, {"type": "note_on", "time": 128, "note": 64, "velocity": 114, "channel": 0}, {"type": "note_off", "time": 318, "note": 64, "velocity": 114, "channel": 0}, {"type": "note_on", "time": 215, "note": 59, "velocity": 109, "channel": 0}, {"type": "note_off", "time": 1419, "note": 59, "velocity": 109, "channel": 0}, {"type": "note_on", "time": 3132, "note": 64, "velocity": 113, "channel": 0}, {"type": "note_off", "time": 365, "note": 64, "velocity": 113, "channel": 0}, {"type": "note_on", "time": 97, "note": 67, "velocity": 119, "channel": 0}, {"type": "note_off", "time": 221, "note": 67, "velocity": 119, "channel": 0}, {"type": "note_on", "time": 51, "note": 69, "velocity": 114, "channel": 0}, {"type": "note_off", "time": 498, "note": 69, "velocity": 114, "channel": 0}, {"type": "note_on", "time": 97, "note": 69, "velocity": 108, "channel": 0}, {"type": "note_off", "time": 3147, "note": 69, "velocity": 108, "channel": 0}, {"type": "note_on", "time": 77, "note": 67, "velocity": 112, "channel": 0}, {"type": "note_off", "time": 216, "note": 67, "velocity": 112, "channel": 0}, {"type": "note_on", "time": 87, "note": 64, "velocity": 116, "channel": 0}, {"type": "note_off", "time": 658, "note": 64, "velocity": 116, "channel": 0}, {"type": "note_on", "time": 123, "note": 64, "velocity": 116, "channel": 0}, {"type": "note_off", "time": 396, "note": 64, "velocity": 116, "channel": 0}, {"type": "note_on", "time": 1815, "note": 64, "velocity": 117, "channel": 0}, {"type": "note_off", "time": 138, "note": 64, "velocity": 117, "channel": 0}, {"type": "note_on", "time": 92, "note": 66, "velocity": 109, "channel": 0}, {"type": "note_off", "time": 115, "note": 66, "velocity": 109, "channel": 0}, {"type": "note_on", "time": 12, "note": 67, "velocity": 116, "channel": 0}, {"type": "note_off", "time": 120, "note": 67, "velocity": 116, "channel": 0}, {"type": "note_on", "time": 48, "note": 69, "velocity": 112, "channel": 0}, {"type": "note_off", "time": 174, "note": 69, "velocity": 112, "channel": 0}, {"type": "note_on", "time": 30, "note": 71, "velocity": 107, "channel": 0}, {"type": "note_off", "time": 113, "note": 71, "velocity": 107, "channel": 0}, {"type": "note_on", "time": 35, "note": 73, "velocity": 118, "channel": 0}, {"type": "note_off", "time": 159, "note": 73, "velocity": 118, "channel": 0}, {"type": "note_on", "time": 25, "note": 74, "velocity": 115, "channel": 0}, {"type": "note_off", "time": 105, "note": 74, "velocity": 115, "channel": 0}, {"type": "note_on", "time": 41, "note": 76, "velocity": 119, "channel": 0}, {"type": "note_off", "time": 110, "note": 76, "velocity": 119, "channel": 0}, {"type": "note_on", "time": 33, "note": 78, "velocity": 110, "channel": 0}, {"type": "note_off", "time": 82, "note": 78, "velocity": 110, "channel": 0}, {"type": "note_on", "time": 12, "note": 79, "velocity": 115, "channel": 0}, {"type": "note_off", "time": 213, "note": 79, "velocity": 115, "channel": 0}, {"type": "note_on", "time": 41, "note": 81, "velocity": 113, "channel": 0}, {"type": "note_off", "time": 82, "note": 81, "velocity": 113, "channel": 0}, {"type": "note_on", "time": 33, "note": 83, "velocity": 114, "channel": 0}, {"type": "note_off", "time": 236, "note": 83, "velocity": 114, "channel": 0}, {"type": "note_on", "time": 41, "note": 85, "velocity": 88, "channel": 0}, {"type": "note_off", "time": 1450, "note": 85, "velocity": 88, "channel": 0}, {"type": "note_on", "time": 28, "note": 83, "velocity": 99, "channel": 0}, {"type": "note_off", "time": 182, "note": 83, "velocity": 99, "channel": 0}, {"type": "note_on", "time": 54, "note": 81, "velocity": 105, "channel": 0}, {"type": "note_off", "time": 124, "note": 81, "velocity": 105, "channel": 0}, {"type": "note_on", "time": 32, "note": 79, "velocity": 115, "channel": 0}, {"type": "note_off", "time": 153, "note": 79, "velocity": 115, "channel": 0}, {"type": "note_on", "time": 81, "note": 78, "velocity": 114, "channel": 0}, {"type": "note_off", "time": 524, "note": 78, "velocity": 114, "channel": 0}, {"type": "note_on", "time": 37, "note": 83, "velocity": 110, "channel": 0}, {"type": "note_off", "time": 73, "note": 83, "velocity": 110, "channel": 0}, {"type": "note_on", "time": 51, "note": 81, "velocity": 80, "channel": 0}, {"type": "note_off", "time": 40, "note": 81, "velocity": 80, "channel": 0}, {"type": "note_on", "time": 36, "note": 79, "velocity": 116, "channel": 0}, {"type": "note_off", "time": 98, "note": 79, "velocity": 116, "channel": 0}, {"type": "note_on", "time": 58, "note": 78, "velocity": 114, "channel": 0}, {"type": "note_off", "time": 87, "note": 78, "velocity": 114, "channel": 0}, {"type": "note_on", "time": 62, "note": 76, "velocity": 123, "channel": 0}, {"type": "note_off", "time": 544, "note": 76, "velocity": 123, "channel": 0}, {"type": "note_on", "time": 54, "note": 78, "velocity": 107, "channel": 0}, {"type": "note_off", "time": 65, "note": 78, "velocity": 107, "channel": 0}, {"type": "note_on", "time": 51, "note": 83, "velocity": 109, "channel": 0}, {"type": "note_off", "time": 76, "note": 83, "velocity": 109, "channel": 0}, {"type": "note_on", "time": 43, "note": 81, "velocity": 108, "channel": 0}, {"type": "note_off", "time": 73, "note": 81, "velocity": 108, "channel": 0}, {"type": "note_on", "time": 32, "note": 78, "velocity": 119, "channel": 0}, {"type": "note_off", "time": 84, "note": 78, "velocity": 119, "channel": 0}, {"type": "note_on", "time": 51, "note": 76, "velocity": 123, "channel": 0}, {"type": "note_off", "time": 80, "note": 76, "velocity": 123, "channel": 0}, {"type": "note_on", "time": 47, "note": 74, "velocity": 113, "channel": 0}, {"type": "note_off", "time": 109, "note": 74, "velocity": 113, "channel": 0}, {"type": "note_on", "time": 47, "note": 73, "velocity": 116, "channel": 0}, {"type": "note_off", "time": 1503, "note": 73, "velocity": 116, "channel": 0}, {"type": "note_on", "time": 91, "note": 71, "velocity": 103, "channel": 0}, {"type": "note_off", "time": 69, "note": 71, "velocity": 103, "channel": 0}, {"type": "note_on", "time": 0, "note": 68, "velocity": 108, "channel": 0}, {"type": "note_off", "time": 92, "note": 68, "velocity": 108, "channel": 0}, {"type": "note_on", "time": 17, "note": 67, "velocity": 113, "channel": 0}, {"type": "note_off", "time": 95, "note": 67, "velocity": 113, "channel": 0}, {"type": "note_on", "time": 29, "note": 66, "velocity": 110, "channel": 0}, {"type": "note_off", "time": 102, "note": 66, "velocity": 110, "channel": 0}, {"type": "note_on", "time": 10, "note": 64, "velocity": 111, "channel": 0}, {"type": "note_off", "time": 82, "note": 64, "velocity": 111, "channel": 0}, {"type": "note_on", "time": 5, "note": 62, "velocity": 111, "channel": 0}, {"type": "note_off", "time": 82, "note": 62, "velocity": 111, "channel": 0}, {"type": "note_on", "time": 31, "note": 61, "velocity": 106, "channel": 0}, {"type": "note_off", "time": 750, "note": 61, "velocity": 106, "channel": 0}, {"type": "note_on", "time": 1511, "note": 78, "velocity": 117, "channel": 0}, {"type": "note_off", "time": 594, "note": 78, "velocity": 117, "channel": 0}, {"type": "note_on", "time": 36, "note": 76, "velocity": 123, "channel": 0}, {"type": "note_off", "time": 329, "note": 76, "velocity": 123, "channel": 0}, {"type": "note_on", "time": 74, "note": 78, "velocity": 119, "channel": 0}, {"type": "note_off", "time": 714, "note": 78, "velocity": 119, "channel": 0}, {"type": "note_on", "time": 8, "note": 76, "velocity": 124, "channel": 0}, {"type": "note_off", "time": 80, "note": 76, "velocity": 124, "channel": 0}, {"type": "note_on", "time": 43, "note": 74, "velocity": 115, "channel": 0}, {"type": "note_off", "time": 62, "note": 74, "velocity": 115, "channel": 0}, {"type": "note_on", "time": 3, "note": 73, "velocity": 115, "channel": 0}, {"type": "note_off", "time": 133, "note": 73, "velocity": 115, "channel": 0}, {"type": "note_on", "time": 23, "note": 70, "velocity": 106, "channel": 0}, {"type": "note_off", "time": 79, "note": 70, "velocity": 106, "channel": 0}, {"type": "note_on", "time": 37, "note": 69, "velocity": 114, "channel": 0}, {"type": "note_off", "time": 100, "note": 69, "velocity": 114, "channel": 0}, {"type": "note_on", "time": 46, "note": 67, "velocity": 112, "channel": 0}, {"type": "note_off", "time": 187, "note": 67, "velocity": 112, "channel": 0}, {"type": "note_on", "time": 9, "note": 66, "velocity": 106, "channel": 0}, {"type": "note_off", "time": 912, "note": 66, "velocity": 106, "channel": 0}, {"type": "note_on", "time": 538, "note": 73, "velocity": 121, "channel": 0}, {"type": "note_off", "time": 1496, "note": 73, "velocity": 121, "channel": 0}, {"type": "note_on", "time": 59, "note": 70, "velocity": 96, "channel": 0}, {"type": "note_off", "time": 149, "note": 70, "velocity": 96, "channel": 0}, {"type": "note_on", "time": 64, "note": 73, "velocity": 111, "channel": 0}, {"type": "note_off", "time": 303, "note": 73, "velocity": 111, "channel": 0}, {"type": "note_on", "time": 35, "note": 70, "velocity": 104, "channel": 0}, {"type": "note_off", "time": 120, "note": 70, "velocity": 104, "channel": 0}, {"type": "note_on", "time": 23, "note": 69, "velocity": 108, "channel": 0}, {"type": "note_off", "time": 79, "note": 69, "velocity": 108, "channel": 0}, {"type": "note_on", "time": 30, "note": 67, "velocity": 112, "channel": 0}, {"type": "note_off", "time": 66, "note": 67, "velocity": 112, "channel": 0}, {"type": "note_on", "time": 30, "note": 66, "velocity": 107, "channel": 0}, {"type": "note_off", "time": 216, "note": 66, "velocity": 107, "channel": 0}, {"type": "note_on", "time": 41, "note": 62, "velocity": 109, "channel": 0}, {"type": "note_off", "time": 154, "note": 62, "velocity": 109, "channel": 0}, {"type": "note_on", "time": 115, "note": 61, "velocity": 102, "channel": 0}, {"type": "note_off", "time": 331, "note": 61, "velocity": 102, "channel": 0}, {"type": "note_on", "time": 1698, "note": 83, "velocity": 107, "channel": 0}, {"type": "note_off", "time": 1444, "note": 83, "velocity": 107, "channel": 0}, {"type": "note_on", "time": 54, "note": 81, "velocity": 107, "channel": 0}, {"type": "note_off", "time": 190, "note": 81, "velocity": 107, "channel": 0}, {"type": "note_on", "time": 32, "note": 83, "velocity": 102, "channel": 0}, {"type": "note_off", "time": 124, "note": 83, "velocity": 102, "channel": 0}, {"type": "note_on", "time": 120, "note": 85, "velocity": 83, "channel": 0}, {"type": "note_off", "time": 131, "note": 85, "velocity": 83, "channel": 0}, {"type": "note_on", "time": 109, "note": 83, "velocity": 97, "channel": 0}, {"type": "note_off", "time": 157, "note": 83, "velocity": 97, "channel": 0}, {"type": "note_on", "time": 47, "note": 82, "velocity": 110, "channel": 0}, {"type": "note_off", "time": 643, "note": 82, "velocity": 110, "channel": 0}, {"type": "note_on", "time": 55, "note": 80, "velocity": 112, "channel": 0}, {"type": "note_off", "time": 105, "note": 80, "velocity": 112, "channel": 0}, {"type": "note_on", "time": 33, "note": 79, "velocity": 112, "channel": 0}, {"type": "note_off", "time": 192, "note": 79, "velocity": 112, "channel": 0}, {"type": "note_on", "time": 24, "note": 75, "velocity": 105, "channel": 0}, {"type": "note_off", "time": 74, "note": 75, "velocity": 105, "channel": 0}, {"type": "note_on", "time": 31, "note": 77, "velocity": 105, "channel": 0}, {"type": "note_off", "time": 82, "note": 77, "velocity": 105, "channel": 0}, {"type": "note_on", "time": 30, "note": 79, "velocity": 111, "channel": 0}, {"type": "note_off", "time": 76, "note": 79, "velocity": 111, "channel": 0}, {"type": "note_on", "time": 49, "note": 80, "velocity": 112, "channel": 0}, {"type": "note_off", "time": 72, "note": 80, "velocity": 112, "channel": 0}, {"type": "note_on", "time": 25, "note": 82, "velocity": 109, "channel": 0}, {"type": "note_off", "time": 77, "note": 82, "velocity": 109, "channel": 0}, {"type": "note_on", "time": 28, "note": 84, "velocity": 102, "channel": 0}, {"type": "note_off", "time": 97, "note": 84, "velocity": 102, "channel": 0}, {"type": "note_on", "time": 8, "note": 76, "velocity": 104, "channel": 0}, {"type": "note_off", "time": 106, "note": 76, "velocity": 104, "channel": 0}, {"type": "note_on", "time": 12, "note": 78, "velocity": 113, "channel": 0}, {"type": "note_off", "time": 201, "note": 78, "velocity": 113, "channel": 0}, {"type": "note_on", "time": 0, "note": 80, "velocity": 112, "channel": 0}, {"type": "note_off", "time": 160, "note": 80, "velocity": 112, "channel": 0}, {"type": "note_on", "time": 10, "note": 79, "velocity": 111, "channel": 0}, {"type": "note_off", "time": 160, "note": 79, "velocity": 111, "channel": 0}, {"type": "note_on", "time": 56, "note": 76, "velocity": 114, "channel": 0}, {"type": "note_off", "time": 188, "note": 76, "velocity": 114, "channel": 0}, {"type": "note_on", "time": 12, "note": 78, "velocity": 103, "channel": 0}, {"type": "note_off", "time": 59, "note": 78, "velocity": 103, "channel": 0}, {"type": "note_on", "time": 10, "note": 75, "velocity": 110, "channel": 0}, {"type": "note_off", "time": 101, "note": 75, "velocity": 110, "channel": 0}, {"type": "note_on", "time": 10, "note": 74, "velocity": 103, "channel": 0}, {"type": "note_off", "time": 33, "note": 74, "velocity": 103, "channel": 0}, {"type": "note_on", "time": 13, "note": 73, "velocity": 109, "channel": 0}, {"type": "note_off", "time": 210, "note": 73, "velocity": 109, "channel": 0}, {"type": "note_on", "time": 33, "note": 71, "velocity": 104, "channel": 0}, {"type": "note_off", "time": 105, "note": 71, "velocity": 104, "channel": 0}, {"type": "note_on", "time": 25, "note": 70, "velocity": 104, "channel": 0}, {"type": "note_off", "time": 120, "note": 70, "velocity": 104, "channel": 0}, {"type": "note_on", "time": 20, "note": 69, "velocity": 106, "channel": 0}, {"type": "note_off", "time": 108, "note": 69, "velocity": 106, "channel": 0}, {"type": "note_on", "time": 43, "note": 67, "velocity": 106, "channel": 0}, {"type": "note_off", "time": 87, "note": 67, "velocity": 106, "channel": 0}, {"type": "note_on", "time": 54, "note": 66, "velocity": 107, "channel": 0}, {"type": "note_off", "time": 264, "note": 66, "velocity": 107, "channel": 0}, {"type": "note_on", "time": 28, "note": 69, "velocity": 103, "channel": 0}, {"type": "note_off", "time": 254, "note": 69, "velocity": 103, "channel": 0}, {"type": "note_on", "time": 33, "note": 70, "velocity": 101, "channel": 0}, {"type": "note_off", "time": 123, "note": 70, "velocity": 101, "channel": 0}, {"type": "note_on", "time": 28, "note": 72, "velocity": 109, "channel": 0}, {"type": "note_off", "time": 128, "note": 72, "velocity": 109, "channel": 0}, {"type": "note_on", "time": 71, "note": 74, "velocity": 109, "channel": 0}, {"type": "note_off", "time": 90, "note": 74, "velocity": 109, "channel": 0}, {"type": "note_on", "time": 0, "note": 76, "velocity": 117, "channel": 0}, {"type": "note_off", "time": 95, "note": 76, "velocity": 117, "channel": 0}, {"type": "note_on", "time": 6, "note": 78, "velocity": 108, "channel": 0}, {"type": "note_off", "time": 87, "note": 78, "velocity": 108, "channel": 0}, {"type": "note_on", "time": 33, "note": 79, "velocity": 110, "channel": 0}, {"type": "note_off", "time": 100, "note": 79, "velocity": 110, "channel": 0}, {"type": "note_on", "time": 0, "note": 81, "velocity": 110, "channel": 0}, {"type": "note_off", "time": 96, "note": 81, "velocity": 110, "channel": 0}, {"type": "note_on", "time": 5, "note": 83, "velocity": 106, "channel": 0}, {"type": "note_off", "time": 66, "note": 83, "velocity": 106, "channel": 0}, {"type": "note_on", "time": 11, "note": 84, "velocity": 108, "channel": 0}, {"type": "note_off", "time": 74, "note": 84, "velocity": 108, "channel": 0}, {"type": "note_on", "time": 31, "note": 83, "velocity": 104, "channel": 0}, {"type": "note_on", "time": 124, "note": 79, "velocity": 113, "channel": 0}, {"type": "note_off", "time": 0, "note": 83, "velocity": 104, "channel": 0}, {"type": "note_off", "time": 151, "note": 79, "velocity": 113, "channel": 0}, {"type": "note_on", "time": 29, "note": 78, "velocity": 115, "channel": 0}, {"type": "note_off", "time": 53, "note": 78, "velocity": 115, "channel": 0}, {"type": "note_on", "time": 36, "note": 76, "velocity": 120, "channel": 0}, {"type": "note_off", "time": 84, "note": 76, "velocity": 120, "channel": 0}, {"type": "note_on", "time": 15, "note": 74, "velocity": 115, "channel": 0}, {"type": "note_off", "time": 102, "note": 74, "velocity": 115, "channel": 0}, {"type": "note_on", "time": 48, "note": 72, "velocity": 113, "channel": 0}, {"type": "note_off", "time": 56, "note": 72, "velocity": 113, "channel": 0}, {"type": "note_on", "time": 25, "note": 70, "velocity": 121, "channel": 0}, {"type": "note_off", "time": 87, "note": 70, "velocity": 121, "channel": 0}, {"type": "note_on", "time": 28, "note": 67, "velocity": 113, "channel": 0}, {"type": "note_off", "time": 203, "note": 67, "velocity": 113, "channel": 0}, {"type": "note_on", "time": 38, "note": 66, "velocity": 113, "channel": 0}, {"type": "note_off", "time": 1185, "note": 66, "velocity": 113, "channel": 0}, {"type": "note_on", "time": 1712, "note": 64, "velocity": 119, "channel": 0}, {"type": "note_off", "time": 264, "note": 64, "velocity": 119, "channel": 0}, {"type": "note_on", "time": 25, "note": 66, "velocity": 114, "channel": 0}, {"type": "note_off", "time": 123, "note": 66, "velocity": 114, "channel": 0}, {"type": "note_on", "time": 20, "note": 67, "velocity": 115, "channel": 0}, {"type": "note_off", "time": 288, "note": 67, "velocity": 115, "channel": 0}, {"type": "note_on", "time": 33, "note": 69, "velocity": 109, "channel": 0}, {"type": "note_off", "time": 87, "note": 69, "velocity": 109, "channel": 0}, {"type": "note_on", "time": 10, "note": 70, "velocity": 105, "channel": 0}, {"type": "note_off", "time": 144, "note": 70, "velocity": 105, "channel": 0}, {"type": "note_on", "time": 15, "note": 73, "velocity": 115, "channel": 0}, {"type": "note_off", "time": 115, "note": 73, "velocity": 115, "channel": 0}, {"type": "note_on", "time": 7, "note": 72, "velocity": 114, "channel": 0}, {"type": "note_off", "time": 159, "note": 72, "velocity": 114, "channel": 0}, {"type": "note_on", "time": 33, "note": 69, "velocity": 110, "channel": 0}, {"type": "note_off", "time": 90, "note": 69, "velocity": 110, "channel": 0}, {"type": "note_on", "time": 41, "note": 65, "velocity": 113, "channel": 0}, {"type": "note_off", "time": 187, "note": 65, "velocity": 113, "channel": 0}, {"type": "note_on", "time": 25, "note": 67, "velocity": 115, "channel": 0}, {"type": "note_off", "time": 66, "note": 67, "velocity": 115, "channel": 0}, {"type": "note_on", "time": 30, "note": 70, "velocity": 108, "channel": 0}, {"type": "note_off", "time": 118, "note": 70, "velocity": 108, "channel": 0}, {"type": "note_on", "time": 51, "note": 72, "velocity": 114, "channel": 0}, {"type": "note_off", "time": 136, "note": 72, "velocity": 114, "channel": 0}, {"type": "note_on", "time": 28, "note": 74, "velocity": 112, "channel": 0}, {"type": "note_off", "time": 84, "note": 74, "velocity": 112, "channel": 0}, {"type": "note_on", "time": 17, "note": 76, "velocity": 118, "channel": 0}, {"type": "note_off", "time": 61, "note": 76, "velocity": 118, "channel": 0}, {"type": "note_on", "time": 17, "note": 77, "velocity": 114, "channel": 0}, {"type": "note_off", "time": 100, "note": 77, "velocity": 114, "channel": 0}, {"type": "note_on", "time": 43, "note": 79, "velocity": 115, "channel": 0}, {"type": "note_off", "time": 197, "note": 79, "velocity": 115, "channel": 0}, {"type": "note_on", "time": 15, "note": 82, "velocity": 115, "channel": 0}, {"type": "note_off", "time": 77, "note": 82, "velocity": 115, "channel": 0}, {"type": "note_on", "time": 25, "note": 83, "velocity": 116, "channel": 0}, {"type": "note_off", "time": 136, "note": 83, "velocity": 116, "channel": 0}, {"type": "note_on", "time": 15, "note": 81, "velocity": 111, "channel": 0}, {"type": "note_off", "time": 43, "note": 81, "velocity": 111, "channel": 0}, {"type": "note_on", "time": 25, "note": 79, "velocity": 110, "channel": 0}, {"type": "note_off", "time": 180, "note": 79, "velocity": 110, "channel": 0}, {"type": "note_on", "time": 74, "note": 77, "velocity": 107, "channel": 0}, {"type": "note_off", "time": 95, "note": 77, "velocity": 107, "channel": 0}, {"type": "note_on", "time": 7, "note": 79, "velocity": 113, "channel": 0}, {"type": "note_off", "time": 79, "note": 79, "velocity": 113, "channel": 0}, {"type": "note_on", "time": 25, "note": 81, "velocity": 110, "channel": 0}, {"type": "note_off", "time": 95, "note": 81, "velocity": 110, "channel": 0}, {"type": "note_on", "time": 30, "note": 83, "velocity": 109, "channel": 0}, {"type": "note_off", "time": 174, "note": 83, "velocity": 109, "channel": 0}, {"type": "note_on", "time": 33, "note": 74, "velocity": 111, "channel": 0}, {"type": "note_off", "time": 185, "note": 74, "velocity": 111, "channel": 0}, {"type": "note_on", "time": 56, "note": 78, "velocity": 117, "channel": 0}, {"type": "note_off", "time": 192, "note": 78, "velocity": 117, "channel": 0}, {"type": "note_on", "time": 20, "note": 80, "velocity": 113, "channel": 0}, {"type": "note_off", "time": 151, "note": 80, "velocity": 113, "channel": 0}, {"type": "note_on", "time": 18, "note": 83, "velocity": 101, "channel": 0}, {"type": "note_off", "time": 120, "note": 83, "velocity": 101, "channel": 0}, {"type": "note_on", "time": 87, "note": 79, "velocity": 115, "channel": 0}, {"type": "note_off", "time": 110, "note": 79, "velocity": 115, "channel": 0}, {"type": "note_on", "time": 41, "note": 74, "velocity": 108, "channel": 0}, {"type": "note_off", "time": 203, "note": 74, "velocity": 108, "channel": 0}, {"type": "note_on", "time": 12, "note": 73, "velocity": 109, "channel": 0}, {"type": "note_off", "time": 154, "note": 73, "velocity": 109, "channel": 0}, {"type": "note_on", "time": 10, "note": 71, "velocity": 101, "channel": 0}, {"type": "note_off", "time": 79, "note": 71, "velocity": 101, "channel": 0}, {"type": "note_on", "time": 20, "note": 69, "velocity": 108, "channel": 0}, {"type": "note_off", "time": 72, "note": 69, "velocity": 108, "channel": 0}, {"type": "note_on", "time": 7, "note": 67, "velocity": 111, "channel": 0}, {"type": "note_off", "time": 195, "note": 67, "velocity": 111, "channel": 0}, {"type": "note_on", "time": 28, "note": 66, "velocity": 109, "channel": 0}, {"type": "note_off", "time": 198, "note": 66, "velocity": 109, "channel": 0}, {"type": "note_on", "time": 7, "note": 67, "velocity": 114, "channel": 0}, {"type": "note_off", "time": 110, "note": 67, "velocity": 114, "channel": 0}, {"type": "note_on", "time": 33, "note": 69, "velocity": 110, "channel": 0}, {"type": "note_off", "time": 138, "note": 69, "velocity": 110, "channel": 0}, {"type": "note_on", "time": 12, "note": 70, "velocity": 101, "channel": 0}, {"type": "note_off", "time": 138, "note": 70, "velocity": 101, "channel": 0}, {"type": "note_on", "time": 12, "note": 72, "velocity": 93, "channel": 0}, {"type": "note_off", "time": 51, "note": 72, "velocity": 93, "channel": 0}, {"type": "note_on", "time": 20, "note": 74, "velocity": 106, "channel": 0}, {"type": "note_off", "time": 113, "note": 74, "velocity": 106, "channel": 0}, {"type": "note_on", "time": 30, "note": 76, "velocity": 116, "channel": 0}, {"type": "note_off", "time": 154, "note": 76, "velocity": 116, "channel": 0}, {"type": "note_on", "time": 23, "note": 79, "velocity": 119, "channel": 0}, {"type": "note_off", "time": 118, "note": 79, "velocity": 119, "channel": 0}, {"type": "note_on", "time": 5, "note": 81, "velocity": 117, "channel": 0}, {"type": "note_off", "time": 41, "note": 81, "velocity": 117, "channel": 0}, {"type": "note_on", "time": 28, "note": 83, "velocity": 118, "channel": 0}, {"type": "note_off", "time": 174, "note": 83, "velocity": 118, "channel": 0}, {"type": "note_on", "time": 83, "note": 79, "velocity": 119, "channel": 0}, {"type": "note_off", "time": 192, "note": 79, "velocity": 119, "channel": 0}, {"type": "note_on", "time": 22, "note": 78, "velocity": 118, "channel": 0}, {"type": "note_off", "time": 84, "note": 78, "velocity": 118, "channel": 0}, {"type": "note_on", "time": 28, "note": 76, "velocity": 108, "channel": 0}, {"type": "note_off", "time": 69, "note": 76, "velocity": 108, "channel": 0}, {"type": "note_on", "time": 37, "note": 74, "velocity": 115, "channel": 0}, {"type": "note_off", "time": 69, "note": 74, "velocity": 115, "channel": 0}, {"type": "note_on", "time": 48, "note": 72, "velocity": 113, "channel": 0}, {"type": "note_off", "time": 139, "note": 72, "velocity": 113, "channel": 0}, {"type": "note_on", "time": 0, "note": 70, "velocity": 113, "channel": 0}, {"type": "note_off", "time": 100, "note": 70, "velocity": 113, "channel": 0}, {"type": "note_on", "time": 15, "note": 69, "velocity": 116, "channel": 0}, {"type": "note_off", "time": 95, "note": 69, "velocity": 116, "channel": 0}, {"type": "note_on", "time": 18, "note": 67, "velocity": 112, "channel": 0}, {"type": "note_off", "time": 146, "note": 67, "velocity": 112, "channel": 0}, {"type": "note_on", "time": 39, "note": 66, "velocity": 106, "channel": 0}, {"type": "note_off", "time": 1770, "note": 66, "velocity": 106, "channel": 0}, {"type": "note_on", "time": 65, "note": 64, "velocity": 112, "channel": 0}, {"type": "note_off", "time": 146, "note": 64, "velocity": 112, "channel": 0}, {"type": "note_on", "time": 36, "note": 67, "velocity": 106, "channel": 0}, {"type": "note_off", "time": 84, "note": 67, "velocity": 106, "channel": 0}, {"type": "note_on", "time": 41, "note": 70, "velocity": 107, "channel": 0}, {"type": "note_off", "time": 118, "note": 70, "velocity": 107, "channel": 0}, {"type": "note_on", "time": 45, "note": 73, "velocity": 105, "channel": 0}, {"type": "note_off", "time": 144, "note": 73, "velocity": 105, "channel": 0}, {"type": "note_on", "time": 16, "note": 75, "velocity": 110, "channel": 0}, {"type": "note_off", "time": 120, "note": 75, "velocity": 110, "channel": 0}, {"type": "note_on", "time": 21, "note": 78, "velocity": 107, "channel": 0}, {"type": "note_off", "time": 118, "note": 78, "velocity": 107, "channel": 0}, {"type": "note_on", "time": 13, "note": 80, "velocity": 108, "channel": 0}, {"type": "note_off", "time": 149, "note": 80, "velocity": 108, "channel": 0}, {"type": "note_on", "time": 36, "note": 68, "velocity": 100, "channel": 0}, {"type": "note_off", "time": 64, "note": 68, "velocity": 100, "channel": 0}, {"type": "note_on", "time": 33, "note": 72, "velocity": 113, "channel": 0}, {"type": "note_off", "time": 87, "note": 72, "velocity": 113, "channel": 0}, {"type": "note_on", "time": 56, "note": 75, "velocity": 113, "channel": 0}, {"type": "note_off", "time": 82, "note": 75, "velocity": 113, "channel": 0}, {"type": "note_on", "time": 36, "note": 78, "velocity": 112, "channel": 0}, {"type": "note_off", "time": 108, "note": 78, "velocity": 112, "channel": 0}, {"type": "note_on", "time": 28, "note": 80, "velocity": 109, "channel": 0}, {"type": "note_off", "time": 72, "note": 80, "velocity": 109, "channel": 0}, {"type": "note_on", "time": 18, "note": 83, "velocity": 110, "channel": 0}, {"type": "note_off", "time": 89, "note": 83, "velocity": 110, "channel": 0}, {"type": "note_on", "time": 18, "note": 82, "velocity": 113, "channel": 0}, {"type": "note_off", "time": 154, "note": 82, "velocity": 113, "channel": 0}, {"type": "note_on", "time": 25, "note": 80, "velocity": 116, "channel": 0}, {"type": "note_off", "time": 177, "note": 80, "velocity": 116, "channel": 0}, {"type": "note_on", "time": 56, "note": 75, "velocity": 116, "channel": 0}, {"type": "note_off", "time": 95, "note": 75, "velocity": 116, "channel": 0}, {"type": "note_on", "time": 38, "note": 73, "velocity": 113, "channel": 0}, {"type": "note_off", "time": 138, "note": 73, "velocity": 113, "channel": 0}, {"type": "note_on", "time": 36, "note": 70, "velocity": 100, "channel": 0}, {"type": "note_off", "time": 74, "note": 70, "velocity": 100, "channel": 0}, {"type": "note_on", "time": 15, "note": 68, "velocity": 111, "channel": 0}, {"type": "note_off", "time": 138, "note": 68, "velocity": 111, "channel": 0}, {"type": "note_on", "time": 95, "note": 63, "velocity": 116, "channel": 0}, {"type": "note_off", "time": 177, "note": 63, "velocity": 116, "channel": 0}, {"type": "note_on", "time": 25, "note": 61, "velocity": 109, "channel": 0}, {"type": "note_off", "time": 174, "note": 61, "velocity": 109, "channel": 0}, {"type": "note_on", "time": 72, "note": 63, "velocity": 119, "channel": 0}, {"type": "note_off", "time": 180, "note": 63, "velocity": 119, "channel": 0}, {"type": "note_on", "time": 20, "note": 65, "velocity": 112, "channel": 0}, {"type": "note_off", "time": 115, "note": 65, "velocity": 112, "channel": 0}, {"type": "note_on", "time": 25, "note": 68, "velocity": 117, "channel": 0}, {"type": "note_off", "time": 108, "note": 68, "velocity": 117, "channel": 0}, {"type": "note_on", "time": 2, "note": 71, "velocity": 114, "channel": 0}, {"type": "note_off", "time": 89, "note": 71, "velocity": 114, "channel": 0}, {"type": "note_on", "time": 7, "note": 73, "velocity": 112, "channel": 0}, {"type": "note_off", "time": 77, "note": 73, "velocity": 112, "channel": 0}, {"type": "note_on", "time": 25, "note": 75, "velocity": 119, "channel": 0}, {"type": "note_off", "time": 97, "note": 75, "velocity": 119, "channel": 0}, {"type": "note_on", "time": 33, "note": 77, "velocity": 119, "channel": 0}, {"type": "note_off", "time": 89, "note": 77, "velocity": 119, "channel": 0}, {"type": "note_on", "time": 25, "note": 80, "velocity": 117, "channel": 0}, {"type": "note_off", "time": 182, "note": 80, "velocity": 117, "channel": 0}, {"type": "note_on", "time": 43, "note": 75, "velocity": 119, "channel": 0}, {"type": "note_off", "time": 95, "note": 75, "velocity": 119, "channel": 0}, {"type": "note_on", "time": 28, "note": 73, "velocity": 118, "channel": 0}, {"type": "note_off", "time": 146, "note": 73, "velocity": 118, "channel": 0}, {"type": "note_on", "time": 15, "note": 70, "velocity": 106, "channel": 0}, {"type": "note_off", "time": 141, "note": 70, "velocity": 106, "channel": 0}, {"type": "note_on", "time": 61, "note": 66, "velocity": 114, "channel": 0}, {"type": "note_off", "time": 151, "note": 66, "velocity": 114, "channel": 0}, {"type": "note_on", "time": 72, "note": 63, "velocity": 120, "channel": 0}, {"type": "note_off", "time": 185, "note": 63, "velocity": 120, "channel": 0}, {"type": "note_on", "time": 46, "note": 66, "velocity": 109, "channel": 0}, {"type": "note_off", "time": 72, "note": 66, "velocity": 109, "channel": 0}, {"type": "note_on", "time": 30, "note": 69, "velocity": 109, "channel": 0}, {"type": "note_off", "time": 154, "note": 69, "velocity": 109, "channel": 0}, {"type": "note_on", "time": 66, "note": 73, "velocity": 115, "channel": 0}, {"type": "note_off", "time": 156, "note": 73, "velocity": 115, "channel": 0}, {"type": "note_on", "time": 20, "note": 74, "velocity": 117, "channel": 0}, {"type": "note_off", "time": 69, "note": 74, "velocity": 117, "channel": 0}, {"type": "note_on", "time": 28, "note": 77, "velocity": 115, "channel": 0}, {"type": "note_off", "time": 100, "note": 77, "velocity": 115, "channel": 0}, {"type": "note_on", "time": 28, "note": 79, "velocity": 116, "channel": 0}, {"type": "note_off", "time": 64, "note": 79, "velocity": 116, "channel": 0}, {"type": "note_on", "time": 23, "note": 82, "velocity": 113, "channel": 0}, {"type": "note_off", "time": 131, "note": 82, "velocity": 113, "channel": 0}, {"type": "note_on", "time": 12, "note": 85, "velocity": 116, "channel": 0}, {"type": "note_off", "time": 254, "note": 85, "velocity": 116, "channel": 0}, {"type": "note_on", "time": 43, "note": 83, "velocity": 113, "channel": 0}, {"type": "note_off", "time": 100, "note": 83, "velocity": 113, "channel": 0}, {"type": "note_on", "time": 23, "note": 80, "velocity": 103, "channel": 0}, {"type": "note_off", "time": 41, "note": 80, "velocity": 103, "channel": 0}, {"type": "note_on", "time": 25, "note": 79, "velocity": 114, "channel": 0}, {"type": "note_off", "time": 61, "note": 79, "velocity": 114, "channel": 0}, {"type": "note_on", "time": 25, "note": 75, "velocity": 116, "channel": 0}, {"type": "note_off", "time": 131, "note": 75, "velocity": 116, "channel": 0}, {"type": "note_on", "time": 25, "note": 70, "velocity": 112, "channel": 0}, {"type": "note_off", "time": 172, "note": 70, "velocity": 112, "channel": 0}, {"type": "note_on", "time": 23, "note": 68, "velocity": 115, "channel": 0}, {"type": "note_off", "time": 90, "note": 68, "velocity": 115, "channel": 0}, {"type": "note_on", "time": 12, "note": 67, "velocity": 113, "channel": 0}, {"type": "note_off", "time": 66, "note": 67, "velocity": 113, "channel": 0}, {"type": "note_on", "time": 54, "note": 64, "velocity": 119, "channel": 0}, {"type": "note_off", "time": 169, "note": 64, "velocity": 119, "channel": 0}, {"type": "note_on", "time": 36, "note": 68, "velocity": 107, "channel": 0}, {"type": "note_off", "time": 69, "note": 68, "velocity": 107, "channel": 0}, {"type": "note_on", "time": 10, "note": 69, "velocity": 110, "channel": 0}, {"type": "note_off", "time": 138, "note": 69, "velocity": 110, "channel": 0}, {"type": "note_on", "time": 12, "note": 71, "velocity": 109, "channel": 0}, {"type": "note_off", "time": 120, "note": 71, "velocity": 109, "channel": 0}, {"type": "note_on", "time": 15, "note": 73, "velocity": 118, "channel": 0}, {"type": "note_off", "time": 159, "note": 73, "velocity": 118, "channel": 0}, {"type": "note_on", "time": 25, "note": 76, "velocity": 120, "channel": 0}, {"type": "note_off", "time": 151, "note": 76, "velocity": 120, "channel": 0}, {"type": "note_on", "time": 43, "note": 78, "velocity": 96, "channel": 0}, {"type": "note_off", "time": 126, "note": 78, "velocity": 96, "channel": 0}, {"type": "note_on", "time": 25, "note": 83, "velocity": 91, "channel": 0}, {"type": "note_off", "time": 79, "note": 83, "velocity": 91, "channel": 0}, {"type": "note_on", "time": 41, "note": 85, "velocity": 91, "channel": 0}, {"type": "note_off", "time": 174, "note": 85, "velocity": 91, "channel": 0}, {"type": "note_on", "time": 41, "note": 83, "velocity": 82, "channel": 0}, {"type": "note_off", "time": 64, "note": 83, "velocity": 82, "channel": 0}, {"type": "note_on", "time": 64, "note": 79, "velocity": 108, "channel": 0}, {"type": "note_off", "time": 82, "note": 79, "velocity": 108, "channel": 0}, {"type": "note_on", "time": 41, "note": 76, "velocity": 97, "channel": 0}, {"type": "note_off", "time": 120, "note": 76, "velocity": 97, "channel": 0}, {"type": "note_on", "time": 46, "note": 71, "velocity": 104, "channel": 0}, {"type": "note_off", "time": 154, "note": 71, "velocity": 104, "channel": 0}, {"type": "note_on", "time": 28, "note": 67, "velocity": 101, "channel": 0}, {"type": "note_off", "time": 89, "note": 67, "velocity": 101, "channel": 0}, {"type": "note_on", "time": 72, "note": 64, "velocity": 110, "channel": 0}, {"type": "note_off", "time": 136, "note": 64, "velocity": 110, "channel": 0}, {"type": "note_on", "time": 38, "note": 66, "velocity": 107, "channel": 0}, {"type": "note_off", "time": 102, "note": 66, "velocity": 107, "channel": 0}, {"type": "note_on", "time": 38, "note": 68, "velocity": 103, "channel": 0}, {"type": "note_off", "time": 177, "note": 68, "velocity": 103, "channel": 0}, {"type": "note_on", "time": 30, "note": 70, "velocity": 102, "channel": 0}, {"type": "note_off", "time": 108, "note": 70, "velocity": 102, "channel": 0}, {"type": "note_on", "time": 59, "note": 72, "velocity": 111, "channel": 0}, {"type": "note_off", "time": 141, "note": 72, "velocity": 111, "channel": 0}, {"type": "note_on", "time": 17, "note": 74, "velocity": 113, "channel": 0}, {"type": "note_off", "time": 100, "note": 74, "velocity": 113, "channel": 0}, {"type": "note_on", "time": 25, "note": 76, "velocity": 115, "channel": 0}, {"type": "note_off", "time": 84, "note": 76, "velocity": 115, "channel": 0}, {"type": "note_on", "time": 12, "note": 78, "velocity": 108, "channel": 0}, {"type": "note_off", "time": 61, "note": 78, "velocity": 108, "channel": 0}, {"type": "note_on", "time": 12, "note": 79, "velocity": 109, "channel": 0}, {"type": "note_off", "time": 110, "note": 79, "velocity": 109, "channel": 0}, {"type": "note_on", "time": 5, "note": 81, "velocity": 108, "channel": 0}, {"type": "note_off", "time": 95, "note": 81, "velocity": 108, "channel": 0}, {"type": "note_on", "time": 33, "note": 83, "velocity": 104, "channel": 0}, {"type": "note_off", "time": 136, "note": 83, "velocity": 104, "channel": 0}, {"type": "note_on", "time": 25, "note": 81, "velocity": 111, "channel": 0}, {"type": "note_off", "time": 72, "note": 81, "velocity": 111, "channel": 0}, {"type": "note_on", "time": 33, "note": 79, "velocity": 113, "channel": 0}, {"type": "note_off", "time": 123, "note": 79, "velocity": 113, "channel": 0}, {"type": "note_on", "time": 30, "note": 78, "velocity": 112, "channel": 0}, {"type": "note_off", "time": 100, "note": 78, "velocity": 112, "channel": 0}, {"type": "note_on", "time": 28, "note": 76, "velocity": 120, "channel": 0}, {"type": "note_off", "time": 66, "note": 76, "velocity": 120, "channel": 0}, {"type": "note_on", "time": 30, "note": 74, "velocity": 115, "channel": 0}, {"type": "note_off", "time": 141, "note": 74, "velocity": 115, "channel": 0}, {"type": "note_on", "time": 28, "note": 72, "velocity": 119, "channel": 0}, {"type": "note_off", "time": 79, "note": 72, "velocity": 119, "channel": 0}, {"type": "note_on", "time": 23, "note": 71, "velocity": 114, "channel": 0}, {"type": "note_off", "time": 102, "note": 71, "velocity": 114, "channel": 0}, {"type": "note_on", "time": 46, "note": 69, "velocity": 115, "channel": 0}, {"type": "note_off", "time": 118, "note": 69, "velocity": 115, "channel": 0}, {"type": "note_on", "time": 33, "note": 67, "velocity": 113, "channel": 0}, {"type": "note_off", "time": 164, "note": 67, "velocity": 113, "channel": 0}, {"type": "note_on", "time": 23, "note": 66, "velocity": 106, "channel": 0}, {"type": "note_off", "time": 398, "note": 66, "velocity": 106, "channel": 0}, {"type": "note_on", "time": 2210, "note": 64, "velocity": 112, "channel": 0}, {"type": "note_off", "time": 168, "note": 64, "velocity": 112, "channel": 0}, {"type": "note_on", "time": 56, "note": 66, "velocity": 112, "channel": 0}, {"type": "note_off", "time": 102, "note": 66, "velocity": 112, "channel": 0}, {"type": "note_on", "time": 54, "note": 67, "velocity": 110, "channel": 0}, {"type": "note_off", "time": 115, "note": 67, "velocity": 110, "channel": 0}, {"type": "note_on", "time": 69, "note": 69, "velocity": 114, "channel": 0}, {"type": "note_off", "time": 90, "note": 69, "velocity": 114, "channel": 0}, {"type": "note_on", "time": 15, "note": 70, "velocity": 107, "channel": 0}, {"type": "note_off", "time": 126, "note": 70, "velocity": 107, "channel": 0}, {"type": "note_on", "time": 36, "note": 73, "velocity": 110, "channel": 0}, {"type": "note_off", "time": 195, "note": 73, "velocity": 110, "channel": 0}, {"type": "note_on", "time": 23, "note": 74, "velocity": 108, "channel": 0}, {"type": "note_off", "time": 46, "note": 74, "velocity": 108, "channel": 0}, {"type": "note_on", "time": 17, "note": 76, "velocity": 117, "channel": 0}, {"type": "note_off", "time": 138, "note": 76, "velocity": 117, "channel": 0}, {"type": "note_on", "time": 30, "note": 78, "velocity": 101, "channel": 0}, {"type": "note_off", "time": 38, "note": 78, "velocity": 101, "channel": 0}, {"type": "note_on", "time": 30, "note": 79, "velocity": 114, "channel": 0}, {"type": "note_off", "time": 102, "note": 79, "velocity": 114, "channel": 0}, {"type": "note_on", "time": 18, "note": 81, "velocity": 114, "channel": 0}, {"type": "note_off", "time": 201, "note": 81, "velocity": 114, "channel": 0}, {"type": "note_on", "time": 12, "note": 83, "velocity": 92, "channel": 0}, {"type": "note_off", "time": 1676, "note": 83, "velocity": 92, "channel": 0}, {"type": "note_on", "time": 61, "note": 83, "velocity": 98, "channel": 0}, {"type": "note_off", "time": 869, "note": 83, "velocity": 98, "channel": 0}, {"type": "note_on", "time": 118, "note": 85, "velocity": 104, "channel": 0}, {"type": "note_off", "time": 205, "note": 85, "velocity": 104, "channel": 0}, {"type": "note_on", "time": 15, "note": 86, "velocity": 106, "channel": 0}, {"type": "note_off", "time": 329, "note": 86, "velocity": 106, "channel": 0}, {"type": "note_on", "time": 47, "note": 85, "velocity": 86, "channel": 0}, {"type": "note_off", "time": 98, "note": 85, "velocity": 86, "channel": 0}, {"type": "note_on", "time": 14, "note": 84, "velocity": 105, "channel": 0}, {"type": "note_off", "time": 113, "note": 84, "velocity": 105, "channel": 0}, {"type": "note_on", "time": 65, "note": 83, "velocity": 99, "channel": 0}, {"type": "note_off", "time": 976, "note": 83, "velocity": 99, "channel": 0}, {"type": "note_on", "time": 110, "note": 77, "velocity": 112, "channel": 0}, {"type": "note_off", "time": 167, "note": 77, "velocity": 112, "channel": 0}, {"type": "note_on", "time": 51, "note": 79, "velocity": 118, "channel": 0}, {"type": "note_off", "time": 203, "note": 79, "velocity": 118, "channel": 0}, {"type": "note_on", "time": 15, "note": 80, "velocity": 120, "channel": 0}, {"type": "note_off", "time": 115, "note": 80, "velocity": 120, "channel": 0}, {"type": "note_on", "time": 43, "note": 82, "velocity": 106, "channel": 0}, {"type": "note_off", "time": 133, "note": 82, "velocity": 106, "channel": 0}, {"type": "note_on", "time": 48, "note": 79, "velocity": 114, "channel": 0}, {"type": "note_off", "time": 164, "note": 79, "velocity": 114, "channel": 0}, {"type": "note_on", "time": 33, "note": 77, "velocity": 106, "channel": 0}, {"type": "note_off", "time": 126, "note": 77, "velocity": 106, "channel": 0}, {"type": "note_on", "time": 33, "note": 75, "velocity": 102, "channel": 0}, {"type": "note_off", "time": 303, "note": 75, "velocity": 102, "channel": 0}, {"type": "note_on", "time": 7, "note": 79, "velocity": 117, "channel": 0}, {"type": "note_off", "time": 210, "note": 79, "velocity": 117, "channel": 0}, {"type": "note_on", "time": 36, "note": 82, "velocity": 105, "channel": 0}, {"type": "note_off", "time": 92, "note": 82, "velocity": 105, "channel": 0}, {"type": "note_on", "time": 46, "note": 76, "velocity": 108, "channel": 0}, {"type": "note_off", "time": 159, "note": 76, "velocity": 108, "channel": 0}, {"type": "note_on", "time": 15, "note": 78, "velocity": 106, "channel": 0}, {"type": "note_off", "time": 221, "note": 78, "velocity": 106, "channel": 0}, {"type": "note_on", "time": 69, "note": 80, "velocity": 112, "channel": 0}, {"type": "note_off", "time": 185, "note": 80, "velocity": 112, "channel": 0}, {"type": "note_on", "time": 5, "note": 82, "velocity": 111, "channel": 0}, {"type": "note_off", "time": 97, "note": 82, "velocity": 111, "channel": 0}, {"type": "note_on", "time": 59, "note": 79, "velocity": 112, "channel": 0}, {"type": "note_off", "time": 92, "note": 79, "velocity": 112, "channel": 0}, {"type": "note_on", "time": 38, "note": 76, "velocity": 114, "channel": 0}, {"type": "note_off", "time": 264, "note": 76, "velocity": 114, "channel": 0}, {"type": "note_on", "time": 38, "note": 75, "velocity": 109, "channel": 0}, {"type": "note_off", "time": 100, "note": 75, "velocity": 109, "channel": 0}, {"type": "note_on", "time": 36, "note": 73, "velocity": 113, "channel": 0}, {"type": "note_off", "time": 167, "note": 73, "velocity": 113, "channel": 0}, {"type": "note_on", "time": 59, "note": 71, "velocity": 107, "channel": 0}, {"type": "note_off", "time": 87, "note": 71, "velocity": 107, "channel": 0}, {"type": "note_on", "time": 23, "note": 70, "velocity": 106, "channel": 0}, {"type": "note_off", "time": 169, "note": 70, "velocity": 106, "channel": 0}, {"type": "note_on", "time": 28, "note": 69, "velocity": 109, "channel": 0}, {"type": "note_off", "time": 123, "note": 69, "velocity": 109, "channel": 0}, {"type": "note_on", "time": 43, "note": 67, "velocity": 115, "channel": 0}, {"type": "note_off", "time": 203, "note": 67, "velocity": 115, "channel": 0}, {"type": "note_on", "time": 57, "note": 66, "velocity": 106, "channel": 0}, {"type": "note_off", "time": 1290, "note": 66, "velocity": 106, "channel": 0}, {"type": "note_on", "time": 40, "note": 64, "velocity": 114, "channel": 0}, {"type": "note_off", "time": 179, "note": 64, "velocity": 114, "channel": 0}, {"type": "note_on", "time": 32, "note": 66, "velocity": 111, "channel": 0}, {"type": "note_off", "time": 51, "note": 66, "velocity": 111, "channel": 0}, {"type": "note_on", "time": 18, "note": 65, "velocity": 108, "channel": 0}, {"type": "note_off", "time": 190, "note": 65, "velocity": 108, "channel": 0}, {"type": "note_on", "time": 7, "note": 59, "velocity": 110, "channel": 0}, {"type": "note_off", "time": 424, "note": 59, "velocity": 110, "channel": 0}, {"type": "note_on", "time": 2706, "note": 64, "velocity": 117, "channel": 0}, {"type": "note_off", "time": 168, "note": 64, "velocity": 117, "channel": 0}, {"type": "note_on", "time": 58, "note": 67, "velocity": 122, "channel": 0}, {"type": "note_off", "time": 113, "note": 67, "velocity": 122, "channel": 0}, {"type": "note_on", "time": 73, "note": 69, "velocity": 117, "channel": 0}, {"type": "note_off", "time": 394, "note": 69, "velocity": 117, "channel": 0}, {"type": "note_on", "time": 230, "note": 69, "velocity": 115, "channel": 0}, {"type": "note_off", "time": 442, "note": 69, "velocity": 115, "channel": 0}, {"type": "note_on", "time": 226, "note": 69, "velocity": 112, "channel": 0}, {"type": "note_off", "time": 405, "note": 69, "velocity": 112, "channel": 0}, {"type": "note_on", "time": 83, "note": 74, "velocity": 123, "channel": 0}, {"type": "note_off", "time": 3054, "note": 74, "velocity": 123, "channel": 0}, {"type": "note_on", "time": 92, "note": 71, "velocity": 100, "channel": 0}, {"type": "note_off", "time": 288, "note": 71, "velocity": 100, "channel": 0}, {"type": "note_on", "time": 2334, "note": 71, "velocity": 109, "channel": 0}, {"type": "note_off", "time": 432, "note": 71, "velocity": 109, "channel": 0}, {"type": "note_on", "time": 514, "note": 71, "velocity": 9, "channel": 0}, {"type": "note_off", "time": 318, "note": 71, "velocity": 9, "channel": 0}, {"type": "note_on", "time": 180, "note": 76, "velocity": 126, "channel": 0}, {"type": "note_off", "time": 216, "note": 76, "velocity": 126, "channel": 0}, {"type": "note_on", "time": 117, "note": 83, "velocity": 103, "channel": 0}, {"type": "note_off", "time": 435, "note": 83, "velocity": 103, "channel": 0}, {"type": "note_on", "time": 409, "note": 83, "velocity": 106, "channel": 0}, {"type": "note_off", "time": 1451, "note": 83, "velocity": 106, "channel": 0}, {"type": "note_on", "time": 14, "note": 71, "velocity": 109, "channel": 0}, {"type": "note_off", "time": 321, "note": 71, "velocity": 109, "channel": 0}, {"type": "note_on", "time": 0, "note": 76, "velocity": 112, "channel": 0}, {"type": "note_off", "time": 303, "note": 76, "velocity": 112, "channel": 0}, {"type": "note_on", "time": 0, "note": 83, "velocity": 112, "channel": 0}, {"type": "note_off", "time": 267, "note": 83, "velocity": 112, "channel": 0}, {"type": "note_on", "time": 32, "note": 71, "velocity": 120, "channel": 0}, {"type": "note_off", "time": 299, "note": 71, "velocity": 120, "channel": 0}, {"type": "note_on", "time": 0, "note": 76, "velocity": 118, "channel": 0}, {"type": "note_off", "time": 296, "note": 76, "velocity": 118, "channel": 0}, {"type": "note_on", "time": 25, "note": 83, "velocity": 98, "channel": 0}, {"type": "note_off", "time": 310, "note": 83, "velocity": 98, "channel": 0}, {"type": "note_on", "time": 14, "note": 76, "velocity": 111, "channel": 0}, {"type": "note_off", "time": 270, "note": 76, "velocity": 111, "channel": 0}, {"type": "note_on", "time": 10, "note": 83, "velocity": 102, "channel": 0}, {"type": "note_off", "time": 2612, "note": 83, "velocity": 102, "channel": 0}, {"type": "note_on", "time": 46, "note": 81, "velocity": 115, "channel": 0}, {"type": "note_off", "time": 128, "note": 81, "velocity": 115, "channel": 0}, {"type": "note_on", "time": 51, "note": 79, "velocity": 116, "channel": 0}, {"type": "note_off", "time": 102, "note": 79, "velocity": 116, "channel": 0}, {"type": "note_on", "time": 77, "note": 81, "velocity": 122, "channel": 0}, {"type": "note_off", "time": 334, "note": 81, "velocity": 122, "channel": 0}, {"type": "note_on", "time": 72, "note": 83, "velocity": 113, "channel": 0}, {"type": "note_off", "time": 360, "note": 83, "velocity": 113, "channel": 0}, {"type": "note_on", "time": 41, "note": 82, "velocity": 114, "channel": 0}, {"type": "note_off", "time": 77, "note": 82, "velocity": 114, "channel": 0}, {"type": "note_on", "time": 2118, "note": 71, "velocity": 110, "channel": 0}, {"type": "note_off", "time": 282, "note": 71, "velocity": 110, "channel": 0}, {"type": "note_on", "time": 51, "note": 76, "velocity": 123, "channel": 0}, {"type": "note_off", "time": 406, "note": 76, "velocity": 123, "channel": 0}, {"type": "note_on", "time": 226, "note": 83, "velocity": 115, "channel": 0}, {"type": "note_off", "time": 642, "note": 83, "velocity": 115, "channel": 0}, {"type": "note_on", "time": 46, "note": 82, "velocity": 113, "channel": 0}, {"type": "note_off", "time": 262, "note": 82, "velocity": 113, "channel": 0}, {"type": "note_on", "time": 35, "note": 83, "velocity": 106, "channel": 0}, {"type": "note_off", "time": 1398, "note": 83, "velocity": 106, "channel": 0}, {"type": "note_on", "time": 46, "note": 84, "velocity": 101, "channel": 0}, {"type": "note_off", "time": 565, "note": 84, "velocity": 101, "channel": 0}, {"type": "note_on", "time": 66, "note": 83, "velocity": 107, "channel": 0}, {"type": "note_off", "time": 138, "note": 83, "velocity": 107, "channel": 0}, {"type": "note_on", "time": 41, "note": 81, "velocity": 113, "channel": 0}, {"type": "note_off", "time": 138, "note": 81, "velocity": 113, "channel": 0}, {"type": "note_on", "time": 82, "note": 79, "velocity": 114, "channel": 0}, {"type": "note_off", "time": 149, "note": 79, "velocity": 114, "channel": 0}, {"type": "note_on", "time": 66, "note": 81, "velocity": 113, "channel": 0}, {"type": "note_off", "time": 123, "note": 81, "velocity": 113, "channel": 0}, {"type": "note_on", "time": 15, "note": 84, "velocity": 99, "channel": 0}, {"type": "note_off", "time": 113, "note": 84, "velocity": 99, "channel": 0}, {"type": "note_on", "time": 25, "note": 86, "velocity": 108, "channel": 0}, {"type": "note_off", "time": 159, "note": 86, "velocity": 108, "channel": 0}, {"type": "note_on", "time": 61, "note": 83, "velocity": 99, "channel": 0}, {"type": "note_off", "time": 4081, "note": 83, "velocity": 99, "channel": 0}, {"type": "note_on", "time": 95, "note": 81, "velocity": 109, "channel": 0}, {"type": "note_off", "time": 133, "note": 81, "velocity": 109, "channel": 0}, {"type": "note_on", "time": 15, "note": 79, "velocity": 116, "channel": 0}, {"type": "note_off", "time": 164, "note": 79, "velocity": 116, "channel": 0}, {"type": "note_on", "time": 66, "note": 76, "velocity": 111, "channel": 0}, {"type": "note_off", "time": 246, "note": 76, "velocity": 111, "channel": 0}, {"type": "note_on", "time": 555, "note": 76, "velocity": 117, "channel": 0}, {"type": "note_off", "time": 318, "note": 76, "velocity": 117, "channel": 0}, {"type": "note_on", "time": 473, "note": 76, "velocity": 121, "channel": 0}, {"type": "note_off", "time": 334, "note": 76, "velocity": 121, "channel": 0}, {"type": "note_on", "time": 416, "note": 76, "velocity": 118, "channel": 0}, {"type": "note_off", "time": 2149, "note": 76, "velocity": 118, "channel": 0}, {"type": "note_on", "time": 92, "note": 74, "velocity": 107, "channel": 0}, {"type": "note_off", "time": 216, "note": 74, "velocity": 107, "channel": 0}, {"type": "note_on", "time": 66, "note": 76, "velocity": 123, "channel": 0}, {"type": "note_off", "time": 313, "note": 76, "velocity": 123, "channel": 0}, {"type": "note_on", "time": 190, "note": 64, "velocity": 117, "channel": 0}, {"type": "note_off", "time": 293, "note": 64, "velocity": 117, "channel": 0}, {"type": "note_on", "time": 4407, "note": 71, "velocity": 108, "channel": 0}, {"type": "note_off", "time": 293, "note": 71, "velocity": 108, "channel": 0}, {"type": "note_on", "time": 457, "note": 71, "velocity": 106, "channel": 0}, {"type": "note_off", "time": 262, "note": 71, "velocity": 106, "channel": 0}, {"type": "note_on", "time": 524, "note": 71, "velocity": 105, "channel": 0}, {"type": "note_off", "time": 2916, "note": 71, "velocity": 105, "channel": 0}, {"type": "note_on", "time": 63, "note": 69, "velocity": 111, "channel": 0}, {"type": "note_off", "time": 237, "note": 69, "velocity": 111, "channel": 0}, {"type": "note_on", "time": 73, "note": 67, "velocity": 115, "channel": 0}, {"type": "note_off", "time": 479, "note": 67, "velocity": 115, "channel": 0}, {"type": "note_on", "time": 73, "note": 64, "velocity": 119, "channel": 0}, {"type": "note_off", "time": 438, "note": 64, "velocity": 119, "channel": 0}, {"type": "note_on", "time": 1982, "note": 65, "velocity": 118, "channel": 0}, {"type": "note_off", "time": 138, "note": 65, "velocity": 118, "channel": 0}, {"type": "note_on", "time": 14, "note": 66, "velocity": 119, "channel": 0}, {"type": "note_off", "time": 1382, "note": 66, "velocity": 119, "channel": 0}, {"type": "note_on", "time": 3, "note": 64, "velocity": 127, "channel": 0}, {"type": "note_off", "time": 190, "note": 64, "velocity": 127, "channel": 0}, {"type": "note_on", "time": 29, "note": 62, "velocity": 121, "channel": 0}, {"type": "note_off", "time": 234, "note": 62, "velocity": 121, "channel": 0}, {"type": "note_on", "time": 3, "note": 59, "velocity": 107, "channel": 0}, {"type": "note_off", "time": 2794, "note": 59, "velocity": 107, "channel": 0}, {"type": "note_on", "time": 153, "note": 62, "velocity": 108, "channel": 0}, {"type": "note_off", "time": 303, "note": 62, "velocity": 108, "channel": 0}, {"type": "note_on", "time": 0, "note": 64, "velocity": 117, "channel": 0}, {"type": "note_off", "time": 234, "note": 64, "velocity": 117, "channel": 0}, {"type": "note_on", "time": 10, "note": 66, "velocity": 104, "channel": 0}, {"type": "note_off", "time": 1349, "note": 66, "velocity": 104, "channel": 0}, {"type": "note_on", "time": 0, "note": 64, "velocity": 108, "channel": 0}, {"type": "note_off", "time": 182, "note": 64, "velocity": 108, "channel": 0}, {"type": "note_on", "time": 36, "note": 66, "velocity": 109, "channel": 0}, {"type": "note_off", "time": 223, "note": 66, "velocity": 109, "channel": 0}, {"type": "note_on", "time": 73, "note": 64, "velocity": 116, "channel": 0}, {"type": "note_off", "time": 138, "note": 64, "velocity": 116, "channel": 0}, {"type": "note_on", "time": 40, "note": 62, "velocity": 100, "channel": 0}, {"type": "note_off", "time": 285, "note": 62, "velocity": 100, "channel": 0}, {"type": "note_on", "time": 14, "note": 59, "velocity": 95, "channel": 0}, {"type": "note_off", "time": 2124, "note": 59, "velocity": 95, "channel": 0}, {"type": "note_on", "time": 310, "note": 66, "velocity": 114, "channel": 0}, {"type": "note_off", "time": 1587, "note": 66, "velocity": 114, "channel": 0}, {"type": "note_on", "time": 10, "note": 64, "velocity": 106, "channel": 0}, {"type": "note_off", "time": 216, "note": 64, "velocity": 106, "channel": 0}, {"type": "note_on", "time": 41, "note": 66, "velocity": 114, "channel": 0}, {"type": "note_off", "time": 272, "note": 66, "velocity": 114, "channel": 0}, {"type": "note_on", "time": 519, "note": 66, "velocity": 111, "channel": 0}, {"type": "note_off", "time": 252, "note": 66, "velocity": 111, "channel": 0}, {"type": "note_on", "time": 591, "note": 66, "velocity": 108, "channel": 0}, {"type": "note_off", "time": 277, "note": 66, "velocity": 108, "channel": 0}, {"type": "note_on", "time": 580, "note": 66, "velocity": 104, "channel": 0}, {"type": "note_off", "time": 2201, "note": 66, "velocity": 104, "channel": 0}, {"type": "note_on", "time": 3, "note": 64, "velocity": 114, "channel": 0}, {"type": "note_off", "time": 252, "note": 64, "velocity": 114, "channel": 0}, {"type": "note_on", "time": 7, "note": 62, "velocity": 115, "channel": 0}, {"type": "note_off", "time": 212, "note": 62, "velocity": 115, "channel": 0}, {"type": "note_on", "time": 13, "note": 59, "velocity": 116, "channel": 0}, {"type": "note_off", "time": 565, "note": 59, "velocity": 116, "channel": 0}, {"type": "note_on", "time": 51, "note": 59, "velocity": 119, "channel": 0}, {"type": "note_off", "time": 288, "note": 59, "velocity": 119, "channel": 0}, {"type": "note_on", "time": 2003, "note": 71, "velocity": 107, "channel": 0}, {"type": "note_off", "time": 1735, "note": 71, "velocity": 107, "channel": 0}, {"type": "note_on", "time": 0, "note": 67, "velocity": 111, "channel": 0}, {"type": "note_off", "time": 154, "note": 67, "velocity": 111, "channel": 0}, {"type": "note_on", "time": 5, "note": 66, "velocity": 110, "channel": 0}, {"type": "note_off", "time": 144, "note": 66, "velocity": 110, "channel": 0}, {"type": "note_on", "time": 20, "note": 64, "velocity": 110, "channel": 0}, {"type": "note_off", "time": 519, "note": 64, "velocity": 110, "channel": 0}, {"type": "note_on", "time": 82, "note": 71, "velocity": 78, "channel": 0}, {"type": "note_off", "time": 1522, "note": 71, "velocity": 78, "channel": 0}, {"type": "note_on", "time": 117, "note": 71, "velocity": 84, "channel": 0}, {"type": "note_off", "time": 354, "note": 71, "velocity": 84, "channel": 0}, {"type": "note_on", "time": 16, "note": 66, "velocity": 88, "channel": 0}, {"type": "note_off", "time": 565, "note": 66, "velocity": 88, "channel": 0}, {"type": "note_on", "time": 20, "note": 64, "velocity": 85, "channel": 0}, {"type": "note_off", "time": 339, "note": 64, "velocity": 85, "channel": 0}, {"type": "end_of_track", "time": 0}]]}