{"ticks_per_beat": 192, "tracks": [[{"type": "track_name", "name": "Melody", "time": 0}, {"type": "set_tempo", "tempo": 413793, "time": 0}, {"type": "key_signature", "key": "Bb", "time": 0}, {"type": "time_signature", "numerator": 4, "denominator": 4, "clocks_per_click": 24, "notated_32nd_notes_per_beat": 8, "time": 0}, {"type": "note_on", "time": 1510, "note": 54, "velocity": 108, "channel": 0}, {"type": "note_off", "time": 35, "note": 54, "velocity": 108, "channel": 0}, {"type": "note_on", "time": 3, "note": 56, "velocity": 117, "channel": 0}, {"type": "note_off", "time": 50, "note": 56, "velocity": 117, "channel": 0}, {"type": "note_on", "time": 6, "note": 55, "velocity": 115, "channel": 0}, {"type": "note_off", "time": 102, "note": 55, "velocity": 115, "channel": 0}, {"type": "note_on", "time": 8, "note": 53, "velocity": 115, "channel": 0}, {"type": "note_off", "time": 68, "note": 53, "velocity": 115, "channel": 0}, {"type": "note_on", "time": 22, "note": 50, "velocity": 104, "channel": 0}, {"type": "note_off", "time": 98, "note": 50, "velocity": 104, "channel": 0}, {"type": "note_on", "time": 10, "note": 48, "velocity": 104, "channel": 0}, {"type": "note_off", "time": 106, "note": 48, "velocity": 104, "channel": 0}, {"type": "note_on", "time": 0, "note": 50, "velocity": 103, "channel": 0}, {"type": "note_off", "time": 155, "note": 50, "velocity": 103, "channel": 0}, {"type": "note_on", "time": 221, "note": 52, "velocity": 121, "channel": 0}, {"type": "note_off", "time": 69, "note": 52, "velocity": 121, "channel": 0}, {"type": "note_on", "time": 0, "note": 53, "velocity": 115, "channel": 0}, {"type": "note_off", "time": 83, "note": 53, "velocity": 115, "channel": 0}, {"type": "note_on", "time": 143, "note": 50, "velocity": 106, "channel": 0}, {"type": "note_off", "time": 117, "note": 50, "velocity": 106, "channel": 0}, {"type": "note_on", "time": 292, "note": 56, "velocity": 113, "channel": 0}, {"type": "note_off", "time": 102, "note": 56, "velocity": 113, "channel": 0}, {"type": "note_on", "time": 1, "note": 55, "velocity": 113, "channel": 0}, {"type": "note_off", "time": 68, "note": 55, "velocity": 113, "channel": 0}, {"type": "note_on", "time": 9, "note": 53, "velocity": 113, "channel": 0}, {"type": "note_off", "time": 66, "note": 53, "velocity": 113, "channel": 0}, {"type": "note_on", "time": 18, "note": 50, "velocity": 107, "channel": 0}, {"type": "note_off", "time": 81, "note": 50, "velocity": 107, "channel": 0}, {"type": "note_on", "time": 49, "note": 48, "velocity": 105, "channel": 0}, {"type": "note_off", "time": 53, "note": 48, "velocity": 105, "channel": 0}, {"type": "note_on", "time": 6, "note": 50, "velocity": 106, "channel": 0}, {"type": "note_off", "time": 124, "note": 50, "velocity": 106, "channel": 0}, {"type": "note_on", "time": 299, "note": 53, "velocity": 122, "channel": 0}, {"type": "note_off", "time": 67, "note": 53, "velocity": 122, "channel": 0}, {"type": "note_on", "time": 1, "note": 54, "velocity": 107, "channel": 0}, {"type": "note_off", "time": 57, "note": 54, "velocity": 107, "channel": 0}, {"type": "note_on", "time": 158, "note": 50, "velocity": 106, "channel": 0}, {"type": "note_off", "time": 117, "note": 50, "velocity": 106, "channel": 0}, {"type": "note_on", "time": 234, "note": 60, "velocity": 123, "channel": 0}, {"type": "note_off", "time": 145, "note": 60, "velocity": 123, "channel": 0}, {"type": "note_on", "time": 7, "note": 59, "velocity": 118, "channel": 0}, {"type": "note_off", "time": 53, "note": 59, "velocity": 118, "channel": 0}, {"type": "note_on", "time": 0, "note": 58, "velocity": 110, "channel": 0}, {"type": "note_off", "time": 56, "note": 58, "velocity": 110, "channel": 0}, {"type": "note_on", "time": 13, "note": 55, "velocity": 112, "channel": 0}, {"type": "note_off", "time": 107, "note": 55, "velocity": 112, "channel": 0}, {"type": "note_on", "time": 9, "note": 53, "velocity": 104, "channel": 0}, {"type": "note_off", "time": 66, "note": 53, "velocity": 104, "channel": 0}, {"type": "note_on", "time": 20, "note": 55, "velocity": 96, "channel": 0}, {"type": "note_off", "time": 253, "note": 55, "velocity": 96, "channel": 0}, {"type": "note_on", "time": 121, "note": 58, "velocity": 112, "channel": 0}, {"type": "note_off", "time": 136, "note": 58, "velocity": 112, "channel": 0}, {"type": "note_on", "time": 368, "note": 55, "velocity": 113, "channel": 0}, {"type": "note_off", "time": 58, "note": 55, "velocity": 113, "channel": 0}, {"type": "note_on", "time": 2, "note": 58, "velocity": 106, "channel": 0}, {"type": "note_off", "time": 30, "note": 58, "velocity": 106, "channel": 0}, {"type": "note_on", "time": 5, "note": 59, "velocity": 103, "channel": 0}, {"type": "note_off", "time": 47, "note": 59, "velocity": 103, "channel": 0}, {"type": "note_on", "time": 1, "note": 62, "velocity": 118, "channel": 0}, {"type": "note_off", "time": 43, "note": 62, "velocity": 118, "channel": 0}, {"type": "note_on", "time": 5, "note": 65, "velocity": 108, "channel": 0}, {"type": "note_off", "time": 66, "note": 65, "velocity": 108, "channel": 0}, {"type": "note_on", "time": 60, "note": 67, "velocity": 118, "channel": 0}, {"type": "note_off", "time": 51, "note": 67, "velocity": 118, "channel": 0}, {"type": "note_on", "time": 9, "note": 65, "velocity": 108, "channel": 0}, {"type": "note_off", "time": 53, "note": 65, "velocity": 108, "channel": 0}, {"type": "note_on", "time": 37, "note": 67, "velocity": 117, "channel": 0}, {"type": "note_off", "time": 45, "note": 67, "velocity": 117, "channel": 0}, {"type": "note_on", "time": 5, "note": 68, "velocity": 111, "channel": 0}, {"type": "note_off", "time": 56, "note": 68, "velocity": 111, "channel": 0}, {"type": "note_on", "time": 3, "note": 67, "velocity": 112, "channel": 0}, {"type": "note_off", "time": 70, "note": 67, "velocity": 112, "channel": 0}, {"type": "note_on", "time": 3, "note": 65, "velocity": 111, "channel": 0}, {"type": "note_off", "time": 53, "note": 65, "velocity": 111, "channel": 0}, {"type": "note_on", "time": 5, "note": 62, "velocity": 120, "channel": 0}, {"type": "note_off", "time": 71, "note": 62, "velocity": 120, "channel": 0}, {"type": "note_on", "time": 7, "note": 60, "velocity": 116, "channel": 0}, {"type": "note_off", "time": 51, "note": 60, "velocity": 116, "channel": 0}, {"type": "note_on", "time": 5, "note": 56, "velocity": 108, "channel": 0}, {"type": "note_off", "time": 51, "note": 56, "velocity": 108, "channel": 0}, {"type": "note_on", "time": 9, "note": 55, "velocity": 114, "channel": 0}, {"type": "note_off", "time": 64, "note": 55, "velocity": 114, "channel": 0}, {"type": "note_on", "time": 17, "note": 50, "velocity": 109, "channel": 0}, {"type": "note_off", "time": 73, "note": 50, "velocity": 109, "channel": 0}, {"type": "note_on", "time": 9, "note": 53, "velocity": 112, "channel": 0}, {"type": "note_off", "time": 83, "note": 53, "velocity": 112, "channel": 0}, {"type": "note_on", "time": 5, "note": 50, "velocity": 105, "channel": 0}, {"type": "note_off", "time": 53, "note": 50, "velocity": 105, "channel": 0}, {"type": "note_on", "time": 0, "note": 53, "velocity": 112, "channel": 0}, {"type": "note_off", "time": 56, "note": 53, "velocity": 112, "channel": 0}, {"type": "note_on", "time": 5, "note": 55, "velocity": 112, "channel": 0}, {"type": "note_off", "time": 62, "note": 55, "velocity": 112, "channel": 0}, {"type": "note_on", "time": 11, "note": 53, "velocity": 110, "channel": 0}, {"type": "note_off", "time": 49, "note": 53, "velocity": 110, "channel": 0}, {"type": "note_on", "time": 0, "note": 54, "velocity": 109, "channel": 0}, {"type": "note_off", "time": 47, "note": 54, "velocity": 109, "channel": 0}, {"type": "note_on", "time": 0, "note": 50, "velocity": 103, "channel": 0}, {"type": "note_off", "time": 151, "note": 50, "velocity": 103, "channel": 0}, {"type": "note_on", "time": 310, "note": 57, "velocity": 115, "channel": 0}, {"type": "note_off", "time": 45, "note": 57, "velocity": 115, "channel": 0}, {"type": "note_on", "time": 0, "note": 60, "velocity": 119, "channel": 0}, {"type": "note_off", "time": 53, "note": 60, "velocity": 119, "channel": 0}, {"type": "note_on", "time": 1, "note": 61, "velocity": 114, "channel": 0}, {"type": "note_off", "time": 43, "note": 61, "velocity": 114, "channel": 0}, {"type": "note_on", "time": 11, "note": 64, "velocity": 118, "channel": 0}, {"type": "note_off", "time": 43, "note": 64, "velocity": 118, "channel": 0}, {"type": "note_on", "time": 0, "note": 66, "velocity": 111, "channel": 0}, {"type": "note_off", "time": 64, "note": 66, "velocity": 111, "channel": 0}, {"type": "note_on", "time": 64, "note": 69, "velocity": 116, "channel": 0}, {"type": "note_off", "time": 56, "note": 69, "velocity": 116, "channel": 0}, {"type": "note_on", "time": 53, "note": 71, "velocity": 106, "channel": 0}, {"type": "note_off", "time": 41, "note": 71, "velocity": 106, "channel": 0}, {"type": "note_on", "time": 0, "note": 72, "velocity": 108, "channel": 0}, {"type": "note_off", "time": 70, "note": 72, "velocity": 108, "channel": 0}, {"type": "note_on", "time": 18, "note": 69, "velocity": 116, "channel": 0}, {"type": "note_off", "time": 181, "note": 69, "velocity": 116, "channel": 0}, {"type": "note_on", "time": 79, "note": 67, "velocity": 113, "channel": 0}, {"type": "note_off", "time": 41, "note": 67, "velocity": 113, "channel": 0}, {"type": "note_on", "time": 0, "note": 68, "velocity": 115, "channel": 0}, {"type": "note_off", "time": 79, "note": 68, "velocity": 115, "channel": 0}, {"type": "note_on", "time": 64, "note": 67, "velocity": 114, "channel": 0}, {"type": "note_off", "time": 92, "note": 67, "velocity": 114, "channel": 0}, {"type": "note_on", "time": 20, "note": 65, "velocity": 115, "channel": 0}, {"type": "note_off", "time": 62, "note": 65, "velocity": 115, "channel": 0}, {"type": "note_on", "time": 18, "note": 62, "velocity": 119, "channel": 0}, {"type": "note_off", "time": 100, "note": 62, "velocity": 119, "channel": 0}, {"type": "note_on", "time": 11, "note": 60, "velocity": 96, "channel": 0}, {"type": "note_off", "time": 70, "note": 60, "velocity": 96, "channel": 0}, {"type": "note_on", "time": 5, "note": 65, "velocity": 115, "channel": 0}, {"type": "note_off", "time": 121, "note": 65, "velocity": 115, "channel": 0}, {"type": "note_on", "time": 18, "note": 62, "velocity": 105, "channel": 0}, {"type": "note_off", "time": 51, "note": 62, "velocity": 105, "channel": 0}, {"type": "note_on", "time": 1, "note": 65, "velocity": 116, "channel": 0}, {"type": "note_off", "time": 159, "note": 65, "velocity": 116, "channel": 0}, {"type": "note_on", "time": 37, "note": 62, "velocity": 113, "channel": 0}, {"type": "note_off", "time": 308, "note": 62, "velocity": 113, "channel": 0}, {"type": "note_on", "time": 28, "note": 60, "velocity": 103, "channel": 0}, {"type": "note_off", "time": 41, "note": 60, "velocity": 103, "channel": 0}, {"type": "note_on", "time": 0, "note": 64, "velocity": 113, "channel": 0}, {"type": "note_off", "time": 37, "note": 64, "velocity": 113, "channel": 0}, {"type": "note_on", "time": 3, "note": 66, "velocity": 107, "channel": 0}, {"type": "note_off", "time": 64, "note": 66, "velocity": 107, "channel": 0}, {"type": "note_on", "time": 22, "note": 69, "velocity": 116, "channel": 0}, {"type": "note_off", "time": 58, "note": 69, "velocity": 116, "channel": 0}, {"type": "note_on", "time": 5, "note": 71, "velocity": 118, "channel": 0}, {"type": "note_off", "time": 83, "note": 71, "velocity": 118, "channel": 0}, {"type": "note_on", "time": 19, "note": 74, "velocity": 111, "channel": 0}, {"type": "note_off", "time": 64, "note": 74, "velocity": 111, "channel": 0}, {"type": "note_on", "time": 183, "note": 75, "velocity": 115, "channel": 0}, {"type": "note_off", "time": 41, "note": 75, "velocity": 115, "channel": 0}, {"type": "note_on", "time": 9, "note": 77, "velocity": 111, "channel": 0}, {"type": "note_off", "time": 45, "note": 77, "velocity": 111, "channel": 0}, {"type": "note_on", "time": 0, "note": 75, "velocity": 112, "channel": 0}, {"type": "note_off", "time": 53, "note": 75, "velocity": 112, "channel": 0}, {"type": "note_on", "time": 14, "note": 76, "velocity": 97, "channel": 0}, {"type": "note_off", "time": 119, "note": 76, "velocity": 97, "channel": 0}, {"type": "note_on", "time": 31, "note": 72, "velocity": 108, "channel": 0}, {"type": "note_off", "time": 39, "note": 72, "velocity": 108, "channel": 0}, {"type": "note_on", "time": 0, "note": 69, "velocity": 109, "channel": 0}, {"type": "note_off", "time": 39, "note": 69, "velocity": 109, "channel": 0}, {"type": "note_on", "time": 24, "note": 65, "velocity": 117, "channel": 0}, {"type": "note_off", "time": 92, "note": 65, "velocity": 117, "channel": 0}, {"type": "note_on", "time": 62, "note": 62, "velocity": 121, "channel": 0}, {"type": "note_off", "time": 104, "note": 62, "velocity": 121, "channel": 0}, {"type": "note_on", "time": 206, "note": 62, "velocity": 121, "channel": 0}, {"type": "note_off", "time": 109, "note": 62, "velocity": 121, "channel": 0}, {"type": "note_on", "time": 162, "note": 62, "velocity": 126, "channel": 0}, {"type": "note_off", "time": 66, "note": 62, "velocity": 126, "channel": 0}, {"type": "note_on", "time": 244, "note": 76, "velocity": 107, "channel": 0}, {"type": "note_off", "time": 43, "note": 76, "velocity": 107, "channel": 0}, {"type": "note_on", "time": 0, "note": 77, "velocity": 109, "channel": 0}, {"type": "note_off", "time": 87, "note": 77, "velocity": 109, "channel": 0}, {"type": "note_on", "time": 5, "note": 76, "velocity": 112, "channel": 0}, {"type": "note_off", "time": 51, "note": 76, "velocity": 112, "channel": 0}, {"type": "note_on", "time": 0, "note": 77, "velocity": 104, "channel": 0}, {"type": "note_off", "time": 60, "note": 77, "velocity": 104, "channel": 0}, {"type": "note_on", "time": 0, "note": 76, "velocity": 113, "channel": 0}, {"type": "note_off", "time": 35, "note": 76, "velocity": 113, "channel": 0}, {"type": "note_on", "time": 0, "note": 77, "velocity": 107, "channel": 0}, {"type": "note_off", "time": 60, "note": 77, "velocity": 107, "channel": 0}, {"type": "note_on", "time": 20, "note": 71, "velocity": 106, "channel": 0}, {"type": "note_off", "time": 32, "note": 71, "velocity": 106, "channel": 0}, {"type": "note_on", "time": 1, "note": 69, "velocity": 113, "channel": 0}, {"type": "note_off", "time": 26, "note": 69, "velocity": 113, "channel": 0}, {"type": "note_on", "time": 3, "note": 67, "velocity": 115, "channel": 0}, {"type": "note_off", "time": 28, "note": 67, "velocity": 115, "channel": 0}, {"type": "note_on", "time": 0, "note": 65, "velocity": 113, "channel": 0}, {"type": "note_off", "time": 81, "note": 65, "velocity": 113, "channel": 0}, {"type": "note_on", "time": 100, "note": 62, "velocity": 125, "channel": 0}, {"type": "note_off", "time": 85, "note": 62, "velocity": 125, "channel": 0}, {"type": "note_on", "time": 225, "note": 61, "velocity": 97, "channel": 0}, {"type": "note_off", "time": 23, "note": 61, "velocity": 97, "channel": 0}, {"type": "note_on", "time": 1, "note": 62, "velocity": 124, "channel": 0}, {"type": "note_off", "time": 71, "note": 62, "velocity": 124, "channel": 0}, {"type": "note_on", "time": 204, "note": 62, "velocity": 121, "channel": 0}, {"type": "note_off", "time": 73, "note": 62, "velocity": 121, "channel": 0}, {"type": "note_on", "time": 244, "note": 76, "velocity": 120, "channel": 0}, {"type": "note_off", "time": 39, "note": 76, "velocity": 120, "channel": 0}, {"type": "note_on", "time": 0, "note": 77, "velocity": 107, "channel": 0}, {"type": "note_off", "time": 189, "note": 77, "velocity": 107, "channel": 0}, {"type": "note_on", "time": 17, "note": 70, "velocity": 119, "channel": 0}, {"type": "note_off", "time": 39, "note": 70, "velocity": 119, "channel": 0}, {"type": "note_on", "time": 11, "note": 71, "velocity": 106, "channel": 0}, {"type": "note_off", "time": 34, "note": 71, "velocity": 106, "channel": 0}, {"type": "note_on", "time": 15, "note": 74, "velocity": 107, "channel": 0}, {"type": "note_off", "time": 39, "note": 74, "velocity": 107, "channel": 0}, {"type": "note_on", "time": 11, "note": 73, "velocity": 115, "channel": 0}, {"type": "note_off", "time": 47, "note": 73, "velocity": 115, "channel": 0}, {"type": "note_on", "time": 3, "note": 72, "velocity": 113, "channel": 0}, {"type": "note_off", "time": 47, "note": 72, "velocity": 113, "channel": 0}, {"type": "note_on", "time": 9, "note": 69, "velocity": 103, "channel": 0}, {"type": "note_off", "time": 30, "note": 69, "velocity": 103, "channel": 0}, {"type": "note_on", "time": 0, "note": 71, "velocity": 113, "channel": 0}, {"type": "note_off", "time": 43, "note": 71, "velocity": 113, "channel": 0}, {"type": "note_on", "time": 13, "note": 69, "velocity": 115, "channel": 0}, {"type": "note_off", "time": 30, "note": 69, "velocity": 115, "channel": 0}, {"type": "note_on", "time": 5, "note": 67, "velocity": 112, "channel": 0}, {"type": "note_off", "time": 49, "note": 67, "velocity": 112, "channel": 0}, {"type": "note_on", "time": 15, "note": 66, "velocity": 109, "channel": 0}, {"type": "note_off", "time": 62, "note": 66, "velocity": 109, "channel": 0}, {"type": "note_on", "time": 1, "note": 65, "velocity": 104, "channel": 0}, {"type": "note_off", "time": 30, "note": 65, "velocity": 104, "channel": 0}, {"type": "note_on", "time": 0, "note": 69, "velocity": 116, "channel": 0}, {"type": "note_off", "time": 35, "note": 69, "velocity": 116, "channel": 0}, {"type": "note_on", "time": 9, "note": 64, "velocity": 115, "channel": 0}, {"type": "note_off", "time": 35, "note": 64, "velocity": 115, "channel": 0}, {"type": "note_on", "time": 7, "note": 62, "velocity": 108, "channel": 0}, {"type": "note_off", "time": 49, "note": 62, "velocity": 108, "channel": 0}, {"type": "note_on", "time": 3, "note": 67, "velocity": 113, "channel": 0}, {"type": "note_on", "time": 43, "note": 66, "velocity": 117, "channel": 0}, {"type": "note_off", "time": 0, "note": 67, "velocity": 113, "channel": 0}, {"type": "note_off", "time": 47, "note": 66, "velocity": 117, "channel": 0}, {"type": "note_on", "time": 0, "note": 65, "velocity": 114, "channel": 0}, {"type": "note_off", "time": 37, "note": 65, "velocity": 114, "channel": 0}, {"type": "note_on", "time": 9, "note": 61, "velocity": 112, "channel": 0}, {"type": "note_on", "time": 47, "note": 64, "velocity": 118, "channel": 0}, {"type": "note_off", "time": 0, "note": 61, "velocity": 112, "channel": 0}, {"type": "note_off", "time": 51, "note": 64, "velocity": 118, "channel": 0}, {"type": "note_on", "time": 0, "note": 62, "velocity": 112, "channel": 0}, {"type": "note_off", "time": 46, "note": 62, "velocity": 112, "channel": 0}, {"type": "note_on", "time": 0, "note": 57, "velocity": 107, "channel": 0}, {"type": "note_off", "time": 58, "note": 57, "velocity": 107, "channel": 0}, {"type": "note_on", "time": 2, "note": 53, "velocity": 104, "channel": 0}, {"type": "note_off", "time": 37, "note": 53, "velocity": 104, "channel": 0}, {"type": "note_on", "time": 0, "note": 60, "velocity": 116, "channel": 0}, {"type": "note_off", "time": 53, "note": 60, "velocity": 116, "channel": 0}, {"type": "note_on", "time": 0, "note": 57, "velocity": 102, "channel": 0}, {"type": "note_on", "time": 47, "note": 59, "velocity": 111, "channel": 0}, {"type": "note_off", "time": 0, "note": 57, "velocity": 102, "channel": 0}, {"type": "note_off", "time": 49, "note": 59, "velocity": 111, "channel": 0}, {"type": "note_on", "time": 0, "note": 55, "velocity": 115, "channel": 0}, {"type": "note_off", "time": 43, "note": 55, "velocity": 115, "channel": 0}, {"type": "note_on", "time": 7, "note": 57, "velocity": 111, "channel": 0}, {"type": "note_off", "time": 39, "note": 57, "velocity": 111, "channel": 0}, {"type": "note_on", "time": 7, "note": 53, "velocity": 108, "channel": 0}, {"type": "note_off", "time": 41, "note": 53, "velocity": 108, "channel": 0}, {"type": "note_on", "time": 9, "note": 52, "velocity": 111, "channel": 0}, {"type": "note_off", "time": 45, "note": 52, "velocity": 111, "channel": 0}, {"type": "note_on", "time": 5, "note": 50, "velocity": 107, "channel": 0}, {"type": "note_off", "time": 66, "note": 50, "velocity": 107, "channel": 0}, {"type": "note_on", "time": 143, "note": 76, "velocity": 119, "channel": 0}, {"type": "note_on", "time": 34, "note": 77, "velocity": 110, "channel": 0}, {"type": "note_off", "time": 0, "note": 76, "velocity": 119, "channel": 0}, {"type": "note_off", "time": 117, "note": 77, "velocity": 110, "channel": 0}, {"type": "note_on", "time": 11, "note": 69, "velocity": 96, "channel": 0}, {"type": "note_off", "time": 22, "note": 69, "velocity": 96, "channel": 0}, {"type": "note_on", "time": 0, "note": 67, "velocity": 111, "channel": 0}, {"type": "note_off", "time": 26, "note": 67, "velocity": 111, "channel": 0}, {"type": "note_on", "time": 1, "note": 65, "velocity": 110, "channel": 0}, {"type": "note_off", "time": 71, "note": 65, "velocity": 110, "channel": 0}, {"type": "note_on", "time": 26, "note": 62, "velocity": 119, "channel": 0}, {"type": "note_off", "time": 96, "note": 62, "velocity": 119, "channel": 0}, {"type": "note_on", "time": 172, "note": 70, "velocity": 119, "channel": 0}, {"type": "note_off", "time": 62, "note": 70, "velocity": 119, "channel": 0}, {"type": "note_on", "time": 2, "note": 71, "velocity": 98, "channel": 0}, {"type": "note_off", "time": 37, "note": 71, "velocity": 98, "channel": 0}, {"type": "note_on", "time": 12, "note": 74, "velocity": 104, "channel": 0}, {"type": "note_on", "time": 51, "note": 71, "velocity": 108, "channel": 0}, {"type": "note_off", "time": 0, "note": 74, "velocity": 104, "channel": 0}, {"type": "note_off", "time": 53, "note": 71, "velocity": 108, "channel": 0}, {"type": "note_on", "time": 0, "note": 73, "velocity": 109, "channel": 0}, {"type": "note_off", "time": 37, "note": 73, "velocity": 109, "channel": 0}, {"type": "note_on", "time": 0, "note": 71, "velocity": 117, "channel": 0}, {"type": "note_off", "time": 33, "note": 71, "velocity": 117, "channel": 0}, {"type": "note_on", "time": 5, "note": 69, "velocity": 108, "channel": 0}, {"type": "note_off", "time": 75, "note": 69, "velocity": 108, "channel": 0}, {"type": "note_on", "time": 0, "note": 68, "velocity": 111, "channel": 0}, {"type": "note_off", "time": 33, "note": 68, "velocity": 111, "channel": 0}, {"type": "note_on", "time": 0, "note": 67, "velocity": 111, "channel": 0}, {"type": "note_off", "time": 34, "note": 67, "velocity": 111, "channel": 0}, {"type": "note_on", "time": 8, "note": 71, "velocity": 109, "channel": 0}, {"type": "note_off", "time": 40, "note": 71, "velocity": 109, "channel": 0}, {"type": "note_on", "time": 0, "note": 66, "velocity": 107, "channel": 0}, {"type": "note_off", "time": 39, "note": 66, "velocity": 107, "channel": 0}, {"type": "note_on", "time": 6, "note": 64, "velocity": 105, "channel": 0}, {"type": "note_off", "time": 46, "note": 64, "velocity": 105, "channel": 0}, {"type": "note_on", "time": 14, "note": 69, "velocity": 115, "channel": 0}, {"type": "note_off", "time": 24, "note": 69, "velocity": 115, "channel": 0}, {"type": "note_on", "time": 0, "note": 68, "velocity": 114, "channel": 0}, {"type": "note_off", "time": 18, "note": 68, "velocity": 114, "channel": 0}, {"type": "note_on", "time": 3, "note": 67, "velocity": 112, "channel": 0}, {"type": "note_off", "time": 32, "note": 67, "velocity": 112, "channel": 0}, {"type": "note_on", "time": 8, "note": 66, "velocity": 112, "channel": 0}, {"type": "note_off", "time": 49, "note": 66, "velocity": 112, "channel": 0}, {"type": "note_on", "time": 18, "note": 62, "velocity": 118, "channel": 0}, {"type": "note_off", "time": 33, "note": 62, "velocity": 118, "channel": 0}, {"type": "note_on", "time": 9, "note": 58, "velocity": 109, "channel": 0}, {"type": "note_off", "time": 25, "note": 58, "velocity": 109, "channel": 0}, {"type": "note_on", "time": 24, "note": 55, "velocity": 111, "channel": 0}, {"type": "note_off", "time": 36, "note": 55, "velocity": 111, "channel": 0}, {"type": "note_on", "time": 0, "note": 64, "velocity": 119, "channel": 0}, {"type": "note_on", "time": 48, "note": 62, "velocity": 119, "channel": 0}, {"type": "note_off", "time": 0, "note": 64, "velocity": 119, "channel": 0}, {"type": "note_off", "time": 42, "note": 62, "velocity": 119, "channel": 0}, {"type": "note_on", "time": 1, "note": 61, "velocity": 116, "channel": 0}, {"type": "note_off", "time": 45, "note": 61, "velocity": 116, "channel": 0}, {"type": "note_on", "time": 0, "note": 57, "velocity": 106, "channel": 0}, {"type": "note_off", "time": 43, "note": 57, "velocity": 106, "channel": 0}, {"type": "note_on", "time": 0, "note": 59, "velocity": 111, "channel": 0}, {"type": "note_off", "time": 45, "note": 59, "velocity": 111, "channel": 0}, {"type": "note_on", "time": 0, "note": 55, "velocity": 114, "channel": 0}, {"type": "note_off", "time": 41, "note": 55, "velocity": 114, "channel": 0}, {"type": "note_on", "time": 17, "note": 52, "velocity": 110, "channel": 0}, {"type": "note_off", "time": 37, "note": 52, "velocity": 110, "channel": 0}, {"type": "note_on", "time": 6, "note": 49, "velocity": 103, "channel": 0}, {"type": "note_off", "time": 37, "note": 49, "velocity": 103, "channel": 0}, {"type": "note_on", "time": 5, "note": 54, "velocity": 119, "channel": 0}, {"type": "note_off", "time": 37, "note": 54, "velocity": 119, "channel": 0}, {"type": "note_on", "time": 6, "note": 52, "velocity": 115, "channel": 0}, {"type": "note_off", "time": 60, "note": 52, "velocity": 115, "channel": 0}, {"type": "note_on", "time": 0, "note": 47, "velocity": 122, "channel": 0}, {"type": "note_off", "time": 43, "note": 47, "velocity": 122, "channel": 0}, {"type": "note_on", "time": 8, "note": 45, "velocity": 124, "channel": 0}, {"type": "note_off", "time": 60, "note": 45, "velocity": 124, "channel": 0}, {"type": "note_on", "time": 237, "note": 51, "velocity": 120, "channel": 0}, {"type": "note_off", "time": 41, "note": 51, "velocity": 120, "channel": 0}, {"type": "note_on", "time": 1, "note": 52, "velocity": 119, "channel": 0}, {"type": "note_off", "time": 35, "note": 52, "velocity": 119, "channel": 0}, {"type": "note_on", "time": 6, "note": 55, "velocity": 120, "channel": 0}, {"type": "note_off", "time": 49, "note": 55, "velocity": 120, "channel": 0}, {"type": "note_on", "time": 1, "note": 52, "velocity": 117, "channel": 0}, {"type": "note_off", "time": 42, "note": 52, "velocity": 117, "channel": 0}, {"type": "note_on", "time": 14, "note": 55, "velocity": 122, "channel": 0}, {"type": "note_off", "time": 30, "note": 55, "velocity": 122, "channel": 0}, {"type": "note_on", "time": 3, "note": 56, "velocity": 118, "channel": 0}, {"type": "note_off", "time": 18, "note": 56, "velocity": 118, "channel": 0}, {"type": "note_on", "time": 0, "note": 58, "velocity": 117, "channel": 0}, {"type": "note_off", "time": 29, "note": 58, "velocity": 117, "channel": 0}, {"type": "note_on", "time": 3, "note": 60, "velocity": 114, "channel": 0}, {"type": "note_off", "time": 23, "note": 60, "velocity": 114, "channel": 0}, {"type": "note_on", "time": 0, "note": 64, "velocity": 123, "channel": 0}, {"type": "note_off", "time": 49, "note": 64, "velocity": 123, "channel": 0}, {"type": "note_on", "time": 14, "note": 62, "velocity": 118, "channel": 0}, {"type": "note_off", "time": 45, "note": 62, "velocity": 118, "channel": 0}, {"type": "note_on", "time": 20, "note": 57, "velocity": 111, "channel": 0}, {"type": "note_off", "time": 36, "note": 57, "velocity": 111, "channel": 0}, {"type": "note_on", "time": 5, "note": 53, "velocity": 112, "channel": 0}, {"type": "note_off", "time": 30, "note": 53, "velocity": 112, "channel": 0}, {"type": "note_on", "time": 0, "note": 60, "velocity": 118, "channel": 0}, {"type": "note_off", "time": 32, "note": 60, "velocity": 118, "channel": 0}, {"type": "note_on", "time": 22, "note": 57, "velocity": 112, "channel": 0}, {"type": "note_off", "time": 35, "note": 57, "velocity": 112, "channel": 0}, {"type": "note_on", "time": 2, "note": 59, "velocity": 105, "channel": 0}, {"type": "note_off", "time": 30, "note": 59, "velocity": 105, "channel": 0}, {"type": "note_on", "time": 10, "note": 62, "velocity": 112, "channel": 0}, {"type": "note_off", "time": 36, "note": 62, "velocity": 112, "channel": 0}, {"type": "note_on", "time": 7, "note": 65, "velocity": 107, "channel": 0}, {"type": "note_off", "time": 56, "note": 65, "velocity": 107, "channel": 0}, {"type": "note_on", "time": 1, "note": 69, "velocity": 114, "channel": 0}, {"type": "note_off", "time": 46, "note": 69, "velocity": 114, "channel": 0}, {"type": "note_on", "time": 3, "note": 63, "velocity": 109, "channel": 0}, {"type": "note_off", "time": 39, "note": 63, "velocity": 109, "channel": 0}, {"type": "note_on", "time": 1, "note": 64, "velocity": 101, "channel": 0}, {"type": "note_off", "time": 33, "note": 64, "velocity": 101, "channel": 0}, {"type": "note_on", "time": 17, "note": 67, "velocity": 113, "channel": 0}, {"type": "note_off", "time": 45, "note": 67, "velocity": 113, "channel": 0}, {"type": "note_on", "time": 4, "note": 66, "velocity": 113, "channel": 0}, {"type": "note_off", "time": 41, "note": 66, "velocity": 113, "channel": 0}, {"type": "note_on", "time": 0, "note": 65, "velocity": 111, "channel": 0}, {"type": "note_off", "time": 42, "note": 65, "velocity": 111, "channel": 0}, {"type": "note_on", "time": 0, "note": 62, "velocity": 112, "channel": 0}, {"type": "note_off", "time": 45, "note": 62, "velocity": 112, "channel": 0}, {"type": "note_on", "time": 6, "note": 63, "velocity": 119, "channel": 0}, {"type": "note_off", "time": 19, "note": 63, "velocity": 119, "channel": 0}, {"type": "note_on", "time": 9, "note": 64, "velocity": 115, "channel": 0}, {"type": "note_off", "time": 52, "note": 64, "velocity": 115, "channel": 0}, {"type": "note_on", "time": 15, "note": 67, "velocity": 113, "channel": 0}, {"type": "note_off", "time": 40, "note": 67, "velocity": 113, "channel": 0}, {"type": "note_on", "time": 2, "note": 66, "velocity": 112, "channel": 0}, {"type": "note_off", "time": 53, "note": 66, "velocity": 112, "channel": 0}, {"type": "note_on", "time": 4, "note": 65, "velocity": 114, "channel": 0}, {"type": "note_off", "time": 34, "note": 65, "velocity": 114, "channel": 0}, {"type": "note_on", "time": 2, "note": 62, "velocity": 103, "channel": 0}, {"type": "note_off", "time": 52, "note": 62, "velocity": 103, "channel": 0}, {"type": "note_on", "time": 6, "note": 63, "velocity": 116, "channel": 0}, {"type": "note_off", "time": 48, "note": 63, "velocity": 116, "channel": 0}, {"type": "note_on", "time": 0, "note": 64, "velocity": 116, "channel": 0}, {"type": "note_off", "time": 47, "note": 64, "velocity": 116, "channel": 0}, {"type": "note_on", "time": 24, "note": 67, "velocity": 111, "channel": 0}, {"type": "note_off", "time": 32, "note": 67, "velocity": 111, "channel": 0}, {"type": "note_on", "time": 2, "note": 66, "velocity": 108, "channel": 0}, {"type": "note_off", "time": 35, "note": 66, "velocity": 108, "channel": 0}, {"type": "note_on", "time": 4, "note": 65, "velocity": 108, "channel": 0}, {"type": "note_off", "time": 41, "note": 65, "velocity": 108, "channel": 0}, {"type": "note_on", "time": 7, "note": 62, "velocity": 109, "channel": 0}, {"type": "note_off", "time": 50, "note": 62, "velocity": 109, "channel": 0}, {"type": "note_on", "time": 0, "note": 63, "velocity": 121, "channel": 0}, {"type": "note_off", "time": 42, "note": 63, "velocity": 121, "channel": 0}, {"type": "note_on", "time": 4, "note": 64, "velocity": 115, "channel": 0}, {"type": "note_off", "time": 53, "note": 64, "velocity": 115, "channel": 0}, {"type": "note_on", "time": 2, "note": 67, "velocity": 110, "channel": 0}, {"type": "note_off", "time": 29, "note": 67, "velocity": 110, "channel": 0}, {"type": "note_on", "time": 4, "note": 66, "velocity": 110, "channel": 0}, {"type": "note_off", "time": 39, "note": 66, "velocity": 110, "channel": 0}, {"type": "note_on", "time": 1, "note": 65, "velocity": 112, "channel": 0}, {"type": "note_off", "time": 44, "note": 65, "velocity": 112, "channel": 0}, {"type": "note_on", "time": 0, "note": 62, "velocity": 106, "channel": 0}, {"type": "note_off", "time": 52, "note": 62, "velocity": 106, "channel": 0}, {"type": "note_on", "time": 0, "note": 63, "velocity": 118, "channel": 0}, {"type": "note_off", "time": 43, "note": 63, "velocity": 118, "channel": 0}, {"type": "note_on", "time": 2, "note": 64, "velocity": 108, "channel": 0}, {"type": "note_off", "time": 42, "note": 64, "velocity": 108, "channel": 0}, {"type": "note_on", "time": 5, "note": 67, "velocity": 110, "channel": 0}, {"type": "note_off", "time": 43, "note": 67, "velocity": 110, "channel": 0}, {"type": "note_on", "time": 3, "note": 66, "velocity": 111, "channel": 0}, {"type": "note_off", "time": 32, "note": 66, "velocity": 111, "channel": 0}, {"type": "note_on", "time": 6, "note": 65, "velocity": 112, "channel": 0}, {"type": "note_off", "time": 39, "note": 65, "velocity": 112, "channel": 0}, {"type": "note_on", "time": 6, "note": 62, "velocity": 109, "channel": 0}, {"type": "note_off", "time": 44, "note": 62, "velocity": 109, "channel": 0}, {"type": "note_on", "time": 4, "note": 67, "velocity": 113, "channel": 0}, {"type": "note_off", "time": 26, "note": 67, "velocity": 113, "channel": 0}, {"type": "note_on", "time": 7, "note": 65, "velocity": 105, "channel": 0}, {"type": "note_off", "time": 26, "note": 65, "velocity": 105, "channel": 0}, {"type": "note_on", "time": 10, "note": 62, "velocity": 112, "channel": 0}, {"type": "note_off", "time": 40, "note": 62, "velocity": 112, "channel": 0}, {"type": "note_on", "time": 8, "note": 57, "velocity": 103, "channel": 0}, {"type": "note_off", "time": 23, "note": 57, "velocity": 103, "channel": 0}, {"type": "note_on", "time": 9, "note": 54, "velocity": 110, "channel": 0}, {"type": "note_off", "time": 19, "note": 54, "velocity": 110, "channel": 0}, {"type": "note_on", "time": 17, "note": 62, "velocity": 115, "channel": 0}, {"type": "note_off", "time": 34, "note": 62, "velocity": 115, "channel": 0}, {"type": "note_on", "time": 8, "note": 60, "velocity": 114, "channel": 0}, {"type": "note_off", "time": 35, "note": 60, "velocity": 114, "channel": 0}, {"type": "note_on", "time": 10, "note": 57, "velocity": 111, "channel": 0}, {"type": "note_off", "time": 34, "note": 57, "velocity": 111, "channel": 0}, {"type": "note_on", "time": 203, "note": 72, "velocity": 112, "channel": 0}, {"type": "note_off", "time": 73, "note": 72, "velocity": 112, "channel": 0}, {"type": "note_on", "time": 1, "note": 74, "velocity": 108, "channel": 0}, {"type": "note_off", "time": 404, "note": 74, "velocity": 108, "channel": 0}, {"type": "note_on", "time": 15, "note": 74, "velocity": 109, "channel": 0}, {"type": "note_off", "time": 42, "note": 74, "velocity": 109, "channel": 0}, {"type": "note_on", "time": 14, "note": 72, "velocity": 112, "channel": 0}, {"type": "note_off", "time": 43, "note": 72, "velocity": 112, "channel": 0}, {"type": "note_on", "time": 19, "note": 74, "velocity": 107, "channel": 0}, {"type": "note_on", "time": 55, "note": 72, "velocity": 113, "channel": 0}, {"type": "note_off", "time": 0, "note": 74, "velocity": 107, "channel": 0}, {"type": "note_off", "time": 51, "note": 72, "velocity": 113, "channel": 0}, {"type": "note_on", "time": 6, "note": 74, "velocity": 111, "channel": 0}, {"type": "note_off", "time": 46, "note": 74, "velocity": 111, "channel": 0}, {"type": "note_on", "time": 4, "note": 72, "velocity": 111, "channel": 0}, {"type": "note_off", "time": 52, "note": 72, "velocity": 111, "channel": 0}, {"type": "note_on", "time": 11, "note": 74, "velocity": 109, "channel": 0}, {"type": "note_off", "time": 47, "note": 74, "velocity": 109, "channel": 0}, {"type": "note_on", "time": 0, "note": 72, "velocity": 110, "channel": 0}, {"type": "note_off", "time": 35, "note": 72, "velocity": 110, "channel": 0}, {"type": "note_on", "time": 52, "note": 77, "velocity": 98, "channel": 0}, {"type": "note_off", "time": 42, "note": 77, "velocity": 98, "channel": 0}, {"type": "note_on", "time": 38, "note": 79, "velocity": 118, "channel": 0}, {"type": "note_off", "time": 71, "note": 79, "velocity": 118, "channel": 0}, {"type": "note_on", "time": 15, "note": 80, "velocity": 109, "channel": 0}, {"type": "note_off", "time": 47, "note": 80, "velocity": 109, "channel": 0}, {"type": "note_on", "time": 21, "note": 82, "velocity": 101, "channel": 0}, {"type": "note_off", "time": 49, "note": 82, "velocity": 101, "channel": 0}, {"type": "note_on", "time": 220, "note": 72, "velocity": 113, "channel": 0}, {"type": "note_off", "time": 40, "note": 72, "velocity": 113, "channel": 0}, {"type": "note_on", "time": 8, "note": 74, "velocity": 111, "channel": 0}, {"type": "note_off", "time": 142, "note": 74, "velocity": 111, "channel": 0}, {"type": "note_on", "time": 25, "note": 74, "velocity": 110, "channel": 0}, {"type": "note_off", "time": 36, "note": 74, "velocity": 110, "channel": 0}, {"type": "note_on", "time": 5, "note": 72, "velocity": 108, "channel": 0}, {"type": "note_off", "time": 28, "note": 72, "velocity": 108, "channel": 0}, {"type": "note_on", "time": 42, "note": 74, "velocity": 109, "channel": 0}, {"type": "note_off", "time": 43, "note": 74, "velocity": 109, "channel": 0}, {"type": "note_on", "time": 10, "note": 72, "velocity": 110, "channel": 0}, {"type": "note_off", "time": 41, "note": 72, "velocity": 110, "channel": 0}, {"type": "note_on", "time": 7, "note": 74, "velocity": 111, "channel": 0}, {"type": "note_off", "time": 53, "note": 74, "velocity": 111, "channel": 0}, {"type": "note_on", "time": 5, "note": 72, "velocity": 109, "channel": 0}, {"type": "note_off", "time": 45, "note": 72, "velocity": 109, "channel": 0}, {"type": "note_on", "time": 4, "note": 74, "velocity": 111, "channel": 0}, {"type": "note_off", "time": 53, "note": 74, "velocity": 111, "channel": 0}, {"type": "note_on", "time": 8, "note": 72, "velocity": 111, "channel": 0}, {"type": "note_off", "time": 50, "note": 72, "velocity": 111, "channel": 0}, {"type": "note_on", "time": 0, "note": 74, "velocity": 110, "channel": 0}, {"type": "note_off", "time": 52, "note": 74, "velocity": 110, "channel": 0}, {"type": "note_on", "time": 0, "note": 72, "velocity": 110, "channel": 0}, {"type": "note_off", "time": 57, "note": 72, "velocity": 110, "channel": 0}, {"type": "note_on", "time": 0, "note": 74, "velocity": 108, "channel": 0}, {"type": "note_off", "time": 54, "note": 74, "velocity": 108, "channel": 0}, {"type": "note_on", "time": 3, "note": 72, "velocity": 111, "channel": 0}, {"type": "note_off", "time": 57, "note": 72, "velocity": 111, "channel": 0}, {"type": "note_on", "time": 5, "note": 74, "velocity": 107, "channel": 0}, {"type": "note_off", "time": 43, "note": 74, "velocity": 107, "channel": 0}, {"type": "note_on", "time": 8, "note": 72, "velocity": 108, "channel": 0}, {"type": "note_off", "time": 57, "note": 72, "velocity": 108, "channel": 0}, {"type": "note_on", "time": 1, "note": 74, "velocity": 108, "channel": 0}, {"type": "note_off", "time": 32, "note": 74, "velocity": 108, "channel": 0}, {"type": "note_on", "time": 4, "note": 72, "velocity": 104, "channel": 0}, {"type": "note_off", "time": 35, "note": 72, "velocity": 104, "channel": 0}, {"type": "note_on", "time": 0, "note": 71, "velocity": 103, "channel": 0}, {"type": "note_off", "time": 27, "note": 71, "velocity": 103, "channel": 0}, {"type": "note_on", "time": 7, "note": 77, "velocity": 106, "channel": 0}, {"type": "note_off", "time": 41, "note": 77, "velocity": 106, "channel": 0}, {"type": "note_on", "time": 32, "note": 79, "velocity": 114, "channel": 0}, {"type": "note_off", "time": 54, "note": 79, "velocity": 114, "channel": 0}, {"type": "note_on", "time": 17, "note": 74, "velocity": 106, "channel": 0}, {"type": "note_off", "time": 71, "note": 74, "velocity": 106, "channel": 0}, {"type": "note_on", "time": 275, "note": 83, "velocity": 75, "channel": 0}, {"type": "note_off", "time": 49, "note": 83, "velocity": 75, "channel": 0}, {"type": "note_on", "time": 23, "note": 87, "velocity": 106, "channel": 0}, {"type": "note_off", "time": 49, "note": 87, "velocity": 106, "channel": 0}, {"type": "note_on", "time": 15, "note": 83, "velocity": 106, "channel": 0}, {"type": "note_off", "time": 32, "note": 83, "velocity": 106, "channel": 0}, {"type": "note_on", "time": 1, "note": 80, "velocity": 110, "channel": 0}, {"type": "note_off", "time": 64, "note": 80, "velocity": 110, "channel": 0}, {"type": "note_on", "time": 278, "note": 77, "velocity": 98, "channel": 0}, {"type": "note_off", "time": 44, "note": 77, "velocity": 98, "channel": 0}, {"type": "note_on", "time": 66, "note": 77, "velocity": 111, "channel": 0}, {"type": "note_off", "time": 76, "note": 77, "velocity": 111, "channel": 0}, {"type": "note_on", "time": 11, "note": 74, "velocity": 111, "channel": 0}, {"type": "note_off", "time": 73, "note": 74, "velocity": 111, "channel": 0}, {"type": "note_on", "time": 19, "note": 72, "velocity": 109, "channel": 0}, {"type": "note_off", "time": 91, "note": 72, "velocity": 109, "channel": 0}, {"type": "note_on", "time": 11, "note": 67, "velocity": 116, "channel": 0}, {"type": "note_off", "time": 178, "note": 67, "velocity": 116, "channel": 0}, {"type": "note_on", "time": 10, "note": 65, "velocity": 115, "channel": 0}, {"type": "note_off", "time": 79, "note": 65, "velocity": 115, "channel": 0}, {"type": "note_on", "time": 2, "note": 62, "velocity": 124, "channel": 0}, {"type": "note_off", "time": 119, "note": 62, "velocity": 124, "channel": 0}, {"type": "note_on", "time": 16, "note": 60, "velocity": 103, "channel": 0}, {"type": "note_off", "time": 50, "note": 60, "velocity": 103, "channel": 0}, {"type": "note_on", "time": 39, "note": 65, "velocity": 120, "channel": 0}, {"type": "note_off", "time": 62, "note": 65, "velocity": 120, "channel": 0}, {"type": "note_on", "time": 0, "note": 66, "velocity": 115, "channel": 0}, {"type": "note_off", "time": 71, "note": 66, "velocity": 115, "channel": 0}, {"type": "note_on", "time": 124, "note": 67, "velocity": 120, "channel": 0}, {"type": "note_off", "time": 62, "note": 67, "velocity": 120, "channel": 0}, {"type": "note_on", "time": 0, "note": 69, "velocity": 117, "channel": 0}, {"type": "note_off", "time": 67, "note": 69, "velocity": 117, "channel": 0}, {"type": "note_on", "time": 7, "note": 65, "velocity": 121, "channel": 0}, {"type": "note_off", "time": 38, "note": 65, "velocity": 121, "channel": 0}, {"type": "note_on", "time": 6, "note": 66, "velocity": 111, "channel": 0}, {"type": "note_off", "time": 117, "note": 66, "velocity": 111, "channel": 0}, {"type": "note_on", "time": 0, "note": 62, "velocity": 122, "channel": 0}, {"type": "note_off", "time": 112, "note": 62, "velocity": 122, "channel": 0}, {"type": "note_on", "time": 9, "note": 60, "velocity": 117, "channel": 0}, {"type": "note_off", "time": 155, "note": 60, "velocity": 117, "channel": 0}, {"type": "note_on", "time": 15, "note": 60, "velocity": 111, "channel": 0}, {"type": "note_off", "time": 162, "note": 60, "velocity": 111, "channel": 0}, {"type": "note_on", "time": 357, "note": 57, "velocity": 119, "channel": 0}, {"type": "note_off", "time": 47, "note": 57, "velocity": 119, "channel": 0}, {"type": "note_on", "time": 14, "note": 57, "velocity": 114, "channel": 0}, {"type": "note_off", "time": 71, "note": 57, "velocity": 114, "channel": 0}, {"type": "note_on", "time": 15, "note": 60, "velocity": 122, "channel": 0}, {"type": "note_off", "time": 33, "note": 60, "velocity": 122, "channel": 0}, {"type": "note_on", "time": 7, "note": 61, "velocity": 120, "channel": 0}, {"type": "note_off", "time": 108, "note": 61, "velocity": 120, "channel": 0}, {"type": "note_on", "time": 17, "note": 62, "velocity": 121, "channel": 0}, {"type": "note_off", "time": 113, "note": 62, "velocity": 121, "channel": 0}, {"type": "note_on", "time": 34, "note": 64, "velocity": 118, "channel": 0}, {"type": "note_off", "time": 131, "note": 64, "velocity": 118, "channel": 0}, {"type": "note_on", "time": 206, "note": 69, "velocity": 117, "channel": 0}, {"type": "note_off", "time": 69, "note": 69, "velocity": 117, "channel": 0}, {"type": "note_on", "time": 7, "note": 67, "velocity": 109, "channel": 0}, {"type": "note_off", "time": 69, "note": 67, "velocity": 109, "channel": 0}, {"type": "note_on", "time": 26, "note": 64, "velocity": 119, "channel": 0}, {"type": "note_off", "time": 28, "note": 64, "velocity": 119, "channel": 0}, {"type": "note_on", "time": 0, "note": 65, "velocity": 112, "channel": 0}, {"type": "note_off", "time": 100, "note": 65, "velocity": 112, "channel": 0}, {"type": "note_on", "time": 18, "note": 62, "velocity": 125, "channel": 0}, {"type": "note_off", "time": 66, "note": 62, "velocity": 125, "channel": 0}, {"type": "note_on", "time": 44, "note": 57, "velocity": 114, "channel": 0}, {"type": "note_off", "time": 68, "note": 57, "velocity": 114, "channel": 0}, {"type": "note_on", "time": 264, "note": 50, "velocity": 118, "channel": 0}, {"type": "note_off", "time": 70, "note": 50, "velocity": 118, "channel": 0}, {"type": "note_on", "time": 142, "note": 54, "velocity": 124, "channel": 0}, {"type": "note_off", "time": 71, "note": 54, "velocity": 124, "channel": 0}, {"type": "note_on", "time": 121, "note": 57, "velocity": 114, "channel": 0}, {"type": "note_off", "time": 81, "note": 57, "velocity": 114, "channel": 0}, {"type": "note_on", "time": 117, "note": 60, "velocity": 125, "channel": 0}, {"type": "note_off", "time": 70, "note": 60, "velocity": 125, "channel": 0}, {"type": "note_on", "time": 108, "note": 64, "velocity": 124, "channel": 0}, {"type": "note_on", "time": 80, "note": 62, "velocity": 127, "channel": 0}, {"type": "note_off", "time": 0, "note": 64, "velocity": 124, "channel": 0}, {"type": "note_off", "time": 86, "note": 62, "velocity": 127, "channel": 0}, {"type": "note_on", "time": 7, "note": 60, "velocity": 125, "channel": 0}, {"type": "note_off", "time": 78, "note": 60, "velocity": 125, "channel": 0}, {"type": "note_on", "time": 17, "note": 57, "velocity": 115, "channel": 0}, {"type": "note_off", "time": 75, "note": 57, "velocity": 115, "channel": 0}, {"type": "note_on", "time": 17, "note": 55, "velocity": 119, "channel": 0}, {"type": "note_off", "time": 73, "note": 55, "velocity": 119, "channel": 0}, {"type": "note_on", "time": 15, "note": 53, "velocity": 117, "channel": 0}, {"type": "note_off", "time": 86, "note": 53, "velocity": 117, "channel": 0}, {"type": "note_on", "time": 17, "note": 48, "velocity": 109, "channel": 0}, {"type": "note_off", "time": 65, "note": 48, "velocity": 109, "channel": 0}, {"type": "note_on", "time": 43, "note": 50, "velocity": 114, "channel": 0}, {"type": "note_off", "time": 56, "note": 50, "velocity": 114, "channel": 0}, {"type": "note_on", "time": 7, "note": 53, "velocity": 118, "channel": 0}, {"type": "note_off", "time": 104, "note": 53, "velocity": 118, "channel": 0}, {"type": "note_on", "time": 8, "note": 50, "velocity": 111, "channel": 0}, {"type": "note_off", "time": 152, "note": 50, "velocity": 111, "channel": 0}, {"type": "end_of_track", "time": 0}]]}