{"ticks_per_beat": 9240, "tracks": [[{"type": "track_name", "name": "Melody", "time": 0}, {"type": "set_tempo", "tempo": 1132075, "time": 0}, {"type": "key_signature", "key": "Bb", "time": 0}, {"type": "time_signature", "numerator": 4, "denominator": 4, "clocks_per_click": 24, "notated_32nd_notes_per_beat": 8, "time": 0}, {"type": "note_on", "time": 23798, "note": 59, "velocity": 98, "channel": 0}, {"type": "note_off", "time": 2398, "note": 59, "velocity": 98, "channel": 0}, {"type": "note_on", "time": 182, "note": 61, "velocity": 98, "channel": 0}, {"type": "note_off", "time": 4780, "note": 61, "velocity": 98, "channel": 0}, {"type": "note_on", "time": 200, "note": 60, "velocity": 99, "channel": 0}, {"type": "note_off", "time": 2415, "note": 60, "velocity": 99, "channel": 0}, {"type": "note_on", "time": 516, "note": 58, "velocity": 113, "channel": 0}, {"type": "note_off", "time": 4697, "note": 58, "velocity": 113, "channel": 0}, {"type": "note_on", "time": 116, "note": 59, "velocity": 104, "channel": 0}, {"type": "note_off", "time": 3381, "note": 59, "velocity": 104, "channel": 0}, {"type": "note_on", "time": 549, "note": 55, "velocity": 105, "channel": 0}, {"type": "note_off", "time": 1840, "note": 55, "velocity": 105, "channel": 0}, {"type": "note_on", "time": 208, "note": 53, "velocity": 107, "channel": 0}, {"type": "note_off", "time": 816, "note": 53, "velocity": 107, "channel": 0}, {"type": "note_on", "time": 149, "note": 51, "velocity": 96, "channel": 0}, {"type": "note_off", "time": 374, "note": 51, "velocity": 96, "channel": 0}, {"type": "note_on", "time": 61, "note": 50, "velocity": 94, "channel": 0}, {"type": "note_off", "time": 464, "note": 50, "velocity": 94, "channel": 0}, {"type": "note_on", "time": 142, "note": 49, "velocity": 94, "channel": 0}, {"type": "note_off", "time": 940, "note": 49, "velocity": 94, "channel": 0}, {"type": "note_on", "time": 234, "note": 48, "velocity": 87, "channel": 0}, {"type": "note_off", "time": 456, "note": 48, "velocity": 87, "channel": 0}, {"type": "note_on", "time": 19014, "note": 49, "velocity": 97, "channel": 0}, {"type": "note_off", "time": 2931, "note": 49, "velocity": 97, "channel": 0}, {"type": "note_on", "time": 199, "note": 50, "velocity": 96, "channel": 0}, {"type": "note_off", "time": 3664, "note": 50, "velocity": 96, "channel": 0}, {"type": "note_on", "time": 266, "note": 49, "velocity": 98, "channel": 0}, {"type": "note_off", "time": 3797, "note": 49, "velocity": 98, "channel": 0}, {"type": "note_on", "time": 205, "note": 48, "velocity": 94, "channel": 0}, {"type": "note_off", "time": 2465, "note": 48, "velocity": 94, "channel": 0}, {"type": "note_on", "time": 377, "note": 46, "velocity": 87, "channel": 0}, {"type": "note_off", "time": 3944, "note": 46, "velocity": 87, "channel": 0}, {"type": "note_on", "time": 32325, "note": 49, "velocity": 107, "channel": 0}, {"type": "note_off", "time": 2676, "note": 49, "velocity": 107, "channel": 0}, {"type": "note_on", "time": 180, "note": 50, "velocity": 102, "channel": 0}, {"type": "note_off", "time": 7329, "note": 50, "velocity": 102, "channel": 0}, {"type": "note_on", "time": 199, "note": 49, "velocity": 93, "channel": 0}, {"type": "note_off", "time": 5130, "note": 49, "velocity": 93, "channel": 0}, {"type": "note_on", "time": 666, "note": 46, "velocity": 96, "channel": 0}, {"type": "note_off", "time": 2398, "note": 46, "velocity": 96, "channel": 0}, {"type": "note_on", "time": 1182, "note": 48, "velocity": 89, "channel": 0}, {"type": "note_off", "time": 5396, "note": 48, "velocity": 89, "channel": 0}, {"type": "note_on", "time": 416, "note": 46, "velocity": 92, "channel": 0}, {"type": "note_off", "time": 2998, "note": 46, "velocity": 92, "channel": 0}, {"type": "note_on", "time": 728, "note": 48, "velocity": 91, "channel": 0}, {"type": "note_off", "time": 5780, "note": 48, "velocity": 91, "channel": 0}, {"type": "note_on", "time": 876, "note": 46, "velocity": 92, "channel": 0}, {"type": "note_off", "time": 2416, "note": 46, "velocity": 92, "channel": 0}, {"type": "note_on", "time": 1141, "note": 48, "velocity": 93, "channel": 0}, {"type": "note_off", "time": 1382, "note": 48, "velocity": 93, "channel": 0}, {"type": "note_on", "time": 33, "note": 49, "velocity": 90, "channel": 0}, {"type": "note_off", "time": 4690, "note": 49, "velocity": 90, "channel": 0}, {"type": "note_on", "time": 606, "note": 48, "velocity": 88, "channel": 0}, {"type": "note_off", "time": 3064, "note": 48, "velocity": 88, "channel": 0}, {"type": "note_on", "time": 533, "note": 46, "velocity": 83, "channel": 0}, {"type": "note_off", "time": 7062, "note": 46, "velocity": 83, "channel": 0}, {"type": "note_on", "time": 25181, "note": 45, "velocity": 119, "channel": 0}, {"type": "note_off", "time": 2215, "note": 45, "velocity": 119, "channel": 0}, {"type": "note_on", "time": 888, "note": 46, "velocity": 109, "channel": 0}, {"type": "note_off", "time": 1824, "note": 46, "velocity": 109, "channel": 0}, {"type": "note_on", "time": 994, "note": 50, "velocity": 94, "channel": 0}, {"type": "note_off", "time": 2712, "note": 50, "velocity": 94, "channel": 0}, {"type": "note_on", "time": 663, "note": 54, "velocity": 104, "channel": 0}, {"type": "note_off", "time": 1930, "note": 54, "velocity": 104, "channel": 0}, {"type": "note_on", "time": 1101, "note": 57, "velocity": 99, "channel": 0}, {"type": "note_off", "time": 1399, "note": 57, "velocity": 99, "channel": 0}, {"type": "note_on", "time": 1538, "note": 52, "velocity": 79, "channel": 0}, {"type": "note_off", "time": 6017, "note": 52, "velocity": 79, "channel": 0}, {"type": "note_on", "time": 20894, "note": 50, "velocity": 92, "channel": 0}, {"type": "note_off", "time": 5996, "note": 50, "velocity": 92, "channel": 0}, {"type": "note_on", "time": 416, "note": 54, "velocity": 103, "channel": 0}, {"type": "note_off", "time": 2531, "note": 54, "velocity": 103, "channel": 0}, {"type": "note_on", "time": 916, "note": 48, "velocity": 77, "channel": 0}, {"type": "note_off", "time": 6263, "note": 48, "velocity": 77, "channel": 0}, {"type": "note_on", "time": 18497, "note": 48, "velocity": 102, "channel": 0}, {"type": "note_off", "time": 1582, "note": 48, "velocity": 102, "channel": 0}, {"type": "note_on", "time": 166, "note": 52, "velocity": 100, "channel": 0}, {"type": "note_off", "time": 1453, "note": 52, "velocity": 100, "channel": 0}, {"type": "note_on", "time": 754, "note": 46, "velocity": 106, "channel": 0}, {"type": "note_off", "time": 2143, "note": 46, "velocity": 106, "channel": 0}, {"type": "note_on", "time": 253, "note": 50, "velocity": 96, "channel": 0}, {"type": "note_off", "time": 1998, "note": 50, "velocity": 96, "channel": 0}, {"type": "note_on", "time": 199, "note": 54, "velocity": 102, "channel": 0}, {"type": "note_off", "time": 1665, "note": 54, "velocity": 102, "channel": 0}, {"type": "note_on", "time": 573, "note": 58, "velocity": 98, "channel": 0}, {"type": "note_off", "time": 1532, "note": 58, "velocity": 98, "channel": 0}, {"type": "note_on", "time": 564, "note": 54, "velocity": 96, "channel": 0}, {"type": "note_off", "time": 3375, "note": 54, "velocity": 96, "channel": 0}, {"type": "note_on", "time": 5306, "note": 57, "velocity": 102, "channel": 0}, {"type": "note_off", "time": 2463, "note": 57, "velocity": 102, "channel": 0}, {"type": "note_on", "time": 775, "note": 54, "velocity": 103, "channel": 0}, {"type": "note_off", "time": 1865, "note": 54, "velocity": 103, "channel": 0}, {"type": "note_on", "time": 133, "note": 55, "velocity": 102, "channel": 0}, {"type": "note_off", "time": 1532, "note": 55, "velocity": 102, "channel": 0}, {"type": "note_on", "time": 466, "note": 57, "velocity": 99, "channel": 0}, {"type": "note_off", "time": 1932, "note": 57, "velocity": 99, "channel": 0}, {"type": "note_on", "time": 1283, "note": 57, "velocity": 105, "channel": 0}, {"type": "note_off", "time": 433, "note": 57, "velocity": 105, "channel": 0}, {"type": "note_on", "time": 32, "note": 58, "velocity": 106, "channel": 0}, {"type": "note_off", "time": 2173, "note": 58, "velocity": 106, "channel": 0}, {"type": "note_on", "time": 1648, "note": 52, "velocity": 86, "channel": 0}, {"type": "note_off", "time": 2700, "note": 52, "velocity": 86, "channel": 0}, {"type": "note_on", "time": 322, "note": 52, "velocity": 87, "channel": 0}, {"type": "note_off", "time": 2265, "note": 52, "velocity": 87, "channel": 0}, {"type": "note_on", "time": 15268, "note": 60, "velocity": 127, "channel": 0}, {"type": "note_off", "time": 1166, "note": 60, "velocity": 127, "channel": 0}, {"type": "note_on", "time": 153, "note": 62, "velocity": 124, "channel": 0}, {"type": "note_off", "time": 1433, "note": 62, "velocity": 124, "channel": 0}, {"type": "note_on", "time": 278, "note": 63, "velocity": 120, "channel": 0}, {"type": "note_off", "time": 1261, "note": 63, "velocity": 120, "channel": 0}, {"type": "note_on", "time": 307, "note": 60, "velocity": 114, "channel": 0}, {"type": "note_off", "time": 876, "note": 60, "velocity": 114, "channel": 0}, {"type": "note_on", "time": 76, "note": 62, "velocity": 110, "channel": 0}, {"type": "note_off", "time": 953, "note": 62, "velocity": 110, "channel": 0}, {"type": "note_on", "time": 476, "note": 58, "velocity": 103, "channel": 0}, {"type": "note_off", "time": 1132, "note": 58, "velocity": 103, "channel": 0}, {"type": "note_on", "time": 199, "note": 56, "velocity": 103, "channel": 0}, {"type": "note_off", "time": 1265, "note": 56, "velocity": 103, "channel": 0}, {"type": "note_on", "time": 241, "note": 55, "velocity": 100, "channel": 0}, {"type": "note_off", "time": 983, "note": 55, "velocity": 100, "channel": 0}, {"type": "note_on", "time": 23, "note": 51, "velocity": 93, "channel": 0}, {"type": "note_off", "time": 917, "note": 51, "velocity": 93, "channel": 0}, {"type": "note_on", "time": 99, "note": 54, "velocity": 99, "channel": 0}, {"type": "note_off", "time": 1199, "note": 54, "velocity": 99, "channel": 0}, {"type": "note_on", "time": 66, "note": 51, "velocity": 92, "channel": 0}, {"type": "note_off", "time": 1132, "note": 51, "velocity": 92, "channel": 0}, {"type": "note_on", "time": 366, "note": 54, "velocity": 93, "channel": 0}, {"type": "note_off", "time": 1066, "note": 54, "velocity": 93, "channel": 0}, {"type": "note_on", "time": 832, "note": 58, "velocity": 84, "channel": 0}, {"type": "note_off", "time": 15124, "note": 58, "velocity": 84, "channel": 0}, {"type": "note_on", "time": 248, "note": 61, "velocity": 112, "channel": 0}, {"type": "note_off", "time": 1326, "note": 61, "velocity": 112, "channel": 0}, {"type": "note_on", "time": 142, "note": 56, "velocity": 94, "channel": 0}, {"type": "note_off", "time": 343, "note": 56, "velocity": 94, "channel": 0}, {"type": "note_on", "time": 22813, "note": 73, "velocity": 111, "channel": 0}, {"type": "note_off", "time": 841, "note": 73, "velocity": 111, "channel": 0}, {"type": "note_on", "time": 1782, "note": 69, "velocity": 104, "channel": 0}, {"type": "note_off", "time": 1415, "note": 69, "velocity": 104, "channel": 0}, {"type": "note_on", "time": 159, "note": 67, "velocity": 83, "channel": 0}, {"type": "note_off", "time": 396, "note": 67, "velocity": 83, "channel": 0}, {"type": "note_on", "time": 4376, "note": 66, "velocity": 97, "channel": 0}, {"type": "note_off", "time": 1732, "note": 66, "velocity": 97, "channel": 0}, {"type": "note_on", "time": 2360, "note": 63, "velocity": 106, "channel": 0}, {"type": "note_off", "time": 1533, "note": 63, "velocity": 106, "channel": 0}, {"type": "note_on", "time": 82, "note": 61, "velocity": 88, "channel": 0}, {"type": "note_off", "time": 633, "note": 61, "velocity": 88, "channel": 0}, {"type": "note_on", "time": 7274, "note": 61, "velocity": 114, "channel": 0}, {"type": "note_off", "time": 1740, "note": 61, "velocity": 114, "channel": 0}, {"type": "note_on", "time": 299, "note": 58, "velocity": 100, "channel": 0}, {"type": "note_off", "time": 866, "note": 58, "velocity": 100, "channel": 0}, {"type": "note_on", "time": 183, "note": 56, "velocity": 101, "channel": 0}, {"type": "note_off", "time": 1807, "note": 56, "velocity": 101, "channel": 0}, {"type": "note_on", "time": 186, "note": 51, "velocity": 95, "channel": 0}, {"type": "note_off", "time": 1001, "note": 51, "velocity": 95, "channel": 0}, {"type": "note_on", "time": 152, "note": 53, "velocity": 104, "channel": 0}, {"type": "note_off", "time": 1732, "note": 53, "velocity": 104, "channel": 0}, {"type": "note_on", "time": 525, "note": 51, "velocity": 94, "channel": 0}, {"type": "note_off", "time": 696, "note": 51, "velocity": 94, "channel": 0}, {"type": "note_on", "time": 241, "note": 53, "velocity": 91, "channel": 0}, {"type": "note_off", "time": 1889, "note": 53, "velocity": 91, "channel": 0}, {"type": "note_on", "time": 71, "note": 55, "velocity": 88, "channel": 0}, {"type": "note_off", "time": 846, "note": 55, "velocity": 88, "channel": 0}, {"type": "note_on", "time": 185, "note": 51, "velocity": 99, "channel": 0}, {"type": "note_off", "time": 1091, "note": 51, "velocity": 99, "channel": 0}, {"type": "note_on", "time": 2048, "note": 63, "velocity": 116, "channel": 0}, {"type": "note_off", "time": 1632, "note": 63, "velocity": 116, "channel": 0}, {"type": "note_on", "time": 4986, "note": 65, "velocity": 105, "channel": 0}, {"type": "note_off", "time": 2475, "note": 65, "velocity": 105, "channel": 0}, {"type": "note_on", "time": 6963, "note": 66, "velocity": 105, "channel": 0}, {"type": "note_off", "time": 866, "note": 66, "velocity": 105, "channel": 0}, {"type": "note_on", "time": 124, "note": 68, "velocity": 102, "channel": 0}, {"type": "note_off", "time": 687, "note": 68, "velocity": 102, "channel": 0}, {"type": "note_on", "time": 1137, "note": 65, "velocity": 102, "channel": 0}, {"type": "note_off", "time": 3061, "note": 65, "velocity": 102, "channel": 0}, {"type": "note_on", "time": 2897, "note": 63, "velocity": 114, "channel": 0}, {"type": "note_off", "time": 916, "note": 63, "velocity": 114, "channel": 0}, {"type": "note_on", "time": 57, "note": 65, "velocity": 97, "channel": 0}, {"type": "note_off", "time": 798, "note": 65, "velocity": 97, "channel": 0}, {"type": "note_on", "time": 880, "note": 61, "velocity": 100, "channel": 0}, {"type": "note_off", "time": 2037, "note": 61, "velocity": 100, "channel": 0}, {"type": "note_on", "time": 29, "note": 60, "velocity": 91, "channel": 0}, {"type": "note_off", "time": 479, "note": 60, "velocity": 91, "channel": 0}, {"type": "note_on", "time": 3677, "note": 59, "velocity": 101, "channel": 0}, {"type": "note_off", "time": 781, "note": 59, "velocity": 101, "channel": 0}, {"type": "note_on", "time": 219, "note": 61, "velocity": 106, "channel": 0}, {"type": "note_off", "time": 977, "note": 61, "velocity": 106, "channel": 0}, {"type": "note_on", "time": 10234, "note": 56, "velocity": 104, "channel": 0}, {"type": "note_off", "time": 1095, "note": 56, "velocity": 104, "channel": 0}, {"type": "note_on", "time": 23, "note": 57, "velocity": 103, "channel": 0}, {"type": "note_off", "time": 864, "note": 57, "velocity": 103, "channel": 0}, {"type": "note_on", "time": 47, "note": 55, "velocity": 100, "channel": 0}, {"type": "note_off", "time": 858, "note": 55, "velocity": 100, "channel": 0}, {"type": "note_on", "time": 171, "note": 57, "velocity": 98, "channel": 0}, {"type": "note_off", "time": 758, "note": 57, "velocity": 98, "channel": 0}, {"type": "note_on", "time": 122, "note": 53, "velocity": 109, "channel": 0}, {"type": "note_off", "time": 2032, "note": 53, "velocity": 109, "channel": 0}, {"type": "note_on", "time": 158, "note": 51, "velocity": 103, "channel": 0}, {"type": "note_off", "time": 624, "note": 51, "velocity": 103, "channel": 0}, {"type": "note_on", "time": 141, "note": 53, "velocity": 103, "channel": 0}, {"type": "note_off", "time": 774, "note": 53, "velocity": 103, "channel": 0}, {"type": "note_on", "time": 366, "note": 49, "velocity": 91, "channel": 0}, {"type": "note_off", "time": 3806, "note": 49, "velocity": 91, "channel": 0}, {"type": "note_on", "time": 13661, "note": 70, "velocity": 109, "channel": 0}, {"type": "note_off", "time": 1001, "note": 70, "velocity": 109, "channel": 0}, {"type": "note_on", "time": 183, "note": 70, "velocity": 101, "channel": 0}, {"type": "note_off", "time": 928, "note": 70, "velocity": 101, "channel": 0}, {"type": "note_on", "time": 215, "note": 70, "velocity": 90, "channel": 0}, {"type": "note_off", "time": 895, "note": 70, "velocity": 90, "channel": 0}, {"type": "note_on", "time": 175, "note": 70, "velocity": 95, "channel": 0}, {"type": "note_off", "time": 781, "note": 70, "velocity": 95, "channel": 0}, {"type": "note_on", "time": 166, "note": 70, "velocity": 95, "channel": 0}, {"type": "note_off", "time": 745, "note": 70, "velocity": 95, "channel": 0}, {"type": "note_on", "time": 228, "note": 70, "velocity": 9, "channel": 0}, {"type": "note_off", "time": 736, "note": 70, "velocity": 9, "channel": 0}, {"type": "note_on", "time": 207, "note": 70, "velocity": 110, "channel": 0}, {"type": "note_off", "time": 688, "note": 70, "velocity": 110, "channel": 0}, {"type": "note_on", "time": 1221, "note": 70, "velocity": 112, "channel": 0}, {"type": "note_off", "time": 1257, "note": 70, "velocity": 112, "channel": 0}, {"type": "note_on", "time": 91, "note": 76, "velocity": 109, "channel": 0}, {"type": "note_off", "time": 1207, "note": 76, "velocity": 109, "channel": 0}, {"type": "note_on", "time": 7135, "note": 75, "velocity": 96, "channel": 0}, {"type": "note_off", "time": 651, "note": 75, "velocity": 96, "channel": 0}, {"type": "note_on", "time": 128, "note": 71, "velocity": 100, "channel": 0}, {"type": "note_off", "time": 1315, "note": 71, "velocity": 100, "channel": 0}, {"type": "note_on", "time": 184, "note": 69, "velocity": 100, "channel": 0}, {"type": "note_off", "time": 909, "note": 69, "velocity": 100, "channel": 0}, {"type": "note_on", "time": 41, "note": 68, "velocity": 95, "channel": 0}, {"type": "note_off", "time": 562, "note": 68, "velocity": 95, "channel": 0}, {"type": "note_on", "time": 59, "note": 67, "velocity": 95, "channel": 0}, {"type": "note_off", "time": 669, "note": 67, "velocity": 95, "channel": 0}, {"type": "note_on", "time": 47, "note": 66, "velocity": 97, "channel": 0}, {"type": "note_off", "time": 577, "note": 66, "velocity": 97, "channel": 0}, {"type": "note_on", "time": 47, "note": 65, "velocity": 99, "channel": 0}, {"type": "note_off", "time": 349, "note": 65, "velocity": 99, "channel": 0}, {"type": "note_on", "time": 68, "note": 64, "velocity": 108, "channel": 0}, {"type": "note_off", "time": 559, "note": 64, "velocity": 108, "channel": 0}, {"type": "note_on", "time": 20, "note": 62, "velocity": 109, "channel": 0}, {"type": "note_off", "time": 399, "note": 62, "velocity": 109, "channel": 0}, {"type": "note_on", "time": 62, "note": 61, "velocity": 108, "channel": 0}, {"type": "note_off", "time": 429, "note": 61, "velocity": 108, "channel": 0}, {"type": "note_on", "time": 65, "note": 60, "velocity": 103, "channel": 0}, {"type": "note_off", "time": 470, "note": 60, "velocity": 103, "channel": 0}, {"type": "note_on", "time": 78, "note": 59, "velocity": 99, "channel": 0}, {"type": "note_off", "time": 1909, "note": 59, "velocity": 99, "channel": 0}, {"type": "note_on", "time": 126, "note": 61, "velocity": 101, "channel": 0}, {"type": "note_off", "time": 492, "note": 61, "velocity": 101, "channel": 0}, {"type": "note_on", "time": 57, "note": 64, "velocity": 103, "channel": 0}, {"type": "note_off", "time": 745, "note": 64, "velocity": 103, "channel": 0}, {"type": "note_on", "time": 8, "note": 68, "velocity": 90, "channel": 0}, {"type": "note_off", "time": 549, "note": 68, "velocity": 90, "channel": 0}, {"type": "note_on", "time": 58, "note": 67, "velocity": 83, "channel": 0}, {"type": "note_off", "time": 3014, "note": 67, "velocity": 83, "channel": 0}, {"type": "note_on", "time": 9886, "note": 75, "velocity": 97, "channel": 0}, {"type": "note_off", "time": 1066, "note": 75, "velocity": 97, "channel": 0}, {"type": "note_on", "time": 1536, "note": 76, "velocity": 111, "channel": 0}, {"type": "note_off", "time": 541, "note": 76, "velocity": 111, "channel": 0}, {"type": "note_on", "time": 44, "note": 78, "velocity": 104, "channel": 0}, {"type": "note_off", "time": 732, "note": 78, "velocity": 104, "channel": 0}, {"type": "note_on", "time": 244, "note": 75, "velocity": 96, "channel": 0}, {"type": "note_off", "time": 781, "note": 75, "velocity": 96, "channel": 0}, {"type": "note_on", "time": 107, "note": 73, "velocity": 102, "channel": 0}, {"type": "note_off", "time": 899, "note": 73, "velocity": 102, "channel": 0}, {"type": "note_on", "time": 99, "note": 70, "velocity": 101, "channel": 0}, {"type": "note_off", "time": 1099, "note": 70, "velocity": 101, "channel": 0}, {"type": "note_on", "time": 341, "note": 69, "velocity": 107, "channel": 0}, {"type": "note_off", "time": 1315, "note": 69, "velocity": 107, "channel": 0}, {"type": "note_on", "time": 74, "note": 68, "velocity": 106, "channel": 0}, {"type": "note_off", "time": 999, "note": 68, "velocity": 106, "channel": 0}, {"type": "note_on", "time": 108, "note": 66, "velocity": 102, "channel": 0}, {"type": "note_off", "time": 1032, "note": 66, "velocity": 102, "channel": 0}, {"type": "note_on", "time": 91, "note": 63, "velocity": 114, "channel": 0}, {"type": "note_off", "time": 866, "note": 63, "velocity": 114, "channel": 0}, {"type": "note_on", "time": 952, "note": 68, "velocity": 107, "channel": 0}, {"type": "note_off", "time": 1107, "note": 68, "velocity": 107, "channel": 0}, {"type": "note_on", "time": 53, "note": 66, "velocity": 94, "channel": 0}, {"type": "note_off", "time": 296, "note": 66, "velocity": 94, "channel": 0}, {"type": "note_on", "time": 4959, "note": 66, "velocity": 104, "channel": 0}, {"type": "note_off", "time": 753, "note": 66, "velocity": 104, "channel": 0}, {"type": "note_on", "time": 1358, "note": 70, "velocity": 106, "channel": 0}, {"type": "note_off", "time": 752, "note": 70, "velocity": 106, "channel": 0}, {"type": "note_on", "time": 251, "note": 68, "velocity": 106, "channel": 0}, {"type": "note_off", "time": 559, "note": 68, "velocity": 106, "channel": 0}, {"type": "note_on", "time": 48, "note": 66, "velocity": 105, "channel": 0}, {"type": "note_off", "time": 399, "note": 66, "velocity": 105, "channel": 0}, {"type": "note_on", "time": 60, "note": 63, "velocity": 116, "channel": 0}, {"type": "note_off", "time": 923, "note": 63, "velocity": 116, "channel": 0}, {"type": "note_on", "time": 118, "note": 61, "velocity": 111, "channel": 0}, {"type": "note_off", "time": 781, "note": 61, "velocity": 111, "channel": 0}, {"type": "note_on", "time": 14, "note": 58, "velocity": 104, "channel": 0}, {"type": "note_off", "time": 666, "note": 58, "velocity": 104, "channel": 0}, {"type": "note_on", "time": 232, "note": 57, "velocity": 103, "channel": 0}, {"type": "note_off", "time": 435, "note": 57, "velocity": 103, "channel": 0}, {"type": "note_on", "time": 98, "note": 56, "velocity": 105, "channel": 0}, {"type": "note_off", "time": 932, "note": 56, "velocity": 105, "channel": 0}, {"type": "note_on", "time": 208, "note": 54, "velocity": 106, "channel": 0}, {"type": "note_off", "time": 599, "note": 54, "velocity": 106, "channel": 0}, {"type": "note_on", "time": 124, "note": 51, "velocity": 97, "channel": 0}, {"type": "note_off", "time": 666, "note": 51, "velocity": 97, "channel": 0}, {"type": "note_on", "time": 116, "note": 56, "velocity": 108, "channel": 0}, {"type": "note_off", "time": 932, "note": 56, "velocity": 108, "channel": 0}, {"type": "note_on", "time": 83, "note": 51, "velocity": 100, "channel": 0}, {"type": "note_off", "time": 466, "note": 51, "velocity": 100, "channel": 0}, {"type": "note_on", "time": 273, "note": 54, "velocity": 105, "channel": 0}, {"type": "note_off", "time": 710, "note": 54, "velocity": 105, "channel": 0}, {"type": "note_on", "time": 307, "note": 55, "velocity": 100, "channel": 0}, {"type": "note_off", "time": 929, "note": 55, "velocity": 100, "channel": 0}, {"type": "note_on", "time": 9684, "note": 63, "velocity": 126, "channel": 0}, {"type": "note_off", "time": 1099, "note": 63, "velocity": 126, "channel": 0}, {"type": "note_on", "time": 154, "note": 63, "velocity": 125, "channel": 0}, {"type": "note_off", "time": 932, "note": 63, "velocity": 125, "channel": 0}, {"type": "note_on", "time": 862, "note": 72, "velocity": 106, "channel": 0}, {"type": "note_off", "time": 3837, "note": 72, "velocity": 106, "channel": 0}, {"type": "note_on", "time": 47, "note": 73, "velocity": 106, "channel": 0}, {"type": "note_off", "time": 14474, "note": 73, "velocity": 106, "channel": 0}, {"type": "note_on", "time": 0, "note": 71, "velocity": 98, "channel": 0}, {"type": "note_off", "time": 3150, "note": 71, "velocity": 98, "channel": 0}, {"type": "note_on", "time": 592, "note": 70, "velocity": 103, "channel": 0}, {"type": "note_off", "time": 1231, "note": 70, "velocity": 103, "channel": 0}, {"type": "note_on", "time": 331, "note": 68, "velocity": 106, "channel": 0}, {"type": "note_off", "time": 1000, "note": 68, "velocity": 106, "channel": 0}, {"type": "note_on", "time": 781, "note": 67, "velocity": 106, "channel": 0}, {"type": "note_off", "time": 1071, "note": 67, "velocity": 106, "channel": 0}, {"type": "note_on", "time": 76, "note": 65, "velocity": 106, "channel": 0}, {"type": "note_off", "time": 1006, "note": 65, "velocity": 106, "channel": 0}, {"type": "note_on", "time": 47, "note": 63, "velocity": 114, "channel": 0}, {"type": "note_off", "time": 1297, "note": 63, "velocity": 114, "channel": 0}, {"type": "note_on", "time": 118, "note": 62, "velocity": 117, "channel": 0}, {"type": "note_off", "time": 882, "note": 62, "velocity": 117, "channel": 0}, {"type": "note_on", "time": 882, "note": 61, "velocity": 116, "channel": 0}, {"type": "note_off", "time": 1060, "note": 61, "velocity": 116, "channel": 0}, {"type": "note_on", "time": 171, "note": 63, "velocity": 113, "channel": 0}, {"type": "note_off", "time": 1024, "note": 63, "velocity": 113, "channel": 0}, {"type": "note_on", "time": 121, "note": 65, "velocity": 104, "channel": 0}, {"type": "note_off", "time": 907, "note": 65, "velocity": 104, "channel": 0}, {"type": "note_on", "time": 293, "note": 68, "velocity": 102, "channel": 0}, {"type": "note_off", "time": 614, "note": 68, "velocity": 102, "channel": 0}, {"type": "note_on", "time": 739, "note": 72, "velocity": 103, "channel": 0}, {"type": "note_off", "time": 1000, "note": 72, "velocity": 103, "channel": 0}, {"type": "note_on", "time": 355, "note": 75, "velocity": 95, "channel": 0}, {"type": "note_off", "time": 805, "note": 75, "velocity": 95, "channel": 0}, {"type": "note_on", "time": 260, "note": 73, "velocity": 101, "channel": 0}, {"type": "note_off", "time": 947, "note": 73, "velocity": 101, "channel": 0}, {"type": "note_on", "time": 402, "note": 65, "velocity": 104, "channel": 0}, {"type": "note_off", "time": 758, "note": 65, "velocity": 104, "channel": 0}, {"type": "note_on", "time": 873, "note": 68, "velocity": 103, "channel": 0}, {"type": "note_off", "time": 749, "note": 68, "velocity": 103, "channel": 0}, {"type": "note_on", "time": 333, "note": 72, "velocity": 98, "channel": 0}, {"type": "note_off", "time": 741, "note": 72, "velocity": 98, "channel": 0}, {"type": "note_on", "time": 708, "note": 70, "velocity": 104, "channel": 0}, {"type": "note_off", "time": 867, "note": 70, "velocity": 104, "channel": 0}, {"type": "note_on", "time": 223, "note": 68, "velocity": 104, "channel": 0}, {"type": "note_off", "time": 912, "note": 68, "velocity": 104, "channel": 0}, {"type": "note_on", "time": 68, "note": 67, "velocity": 103, "channel": 0}, {"type": "note_off", "time": 1095, "note": 67, "velocity": 103, "channel": 0}, {"type": "note_on", "time": 82, "note": 65, "velocity": 100, "channel": 0}, {"type": "note_off", "time": 752, "note": 65, "velocity": 100, "channel": 0}, {"type": "note_on", "time": 426, "note": 66, "velocity": 106, "channel": 0}, {"type": "note_off", "time": 994, "note": 66, "velocity": 106, "channel": 0}, {"type": "note_on", "time": 219, "note": 63, "velocity": 118, "channel": 0}, {"type": "note_off", "time": 805, "note": 63, "velocity": 118, "channel": 0}, {"type": "note_on", "time": 57, "note": 58, "velocity": 102, "channel": 0}, {"type": "note_off", "time": 879, "note": 58, "velocity": 102, "channel": 0}, {"type": "note_on", "time": 97, "note": 55, "velocity": 106, "channel": 0}, {"type": "note_off", "time": 484, "note": 55, "velocity": 106, "channel": 0}, {"type": "note_on", "time": 415, "note": 60, "velocity": 109, "channel": 0}, {"type": "note_off", "time": 419, "note": 60, "velocity": 109, "channel": 0}, {"type": "note_on", "time": 52, "note": 62, "velocity": 111, "channel": 0}, {"type": "note_off", "time": 696, "note": 62, "velocity": 111, "channel": 0}, {"type": "note_on", "time": 307, "note": 60, "velocity": 111, "channel": 0}, {"type": "note_off", "time": 824, "note": 60, "velocity": 111, "channel": 0}, {"type": "note_on", "time": 91, "note": 58, "velocity": 99, "channel": 0}, {"type": "note_off", "time": 657, "note": 58, "velocity": 99, "channel": 0}, {"type": "note_on", "time": 105, "note": 55, "velocity": 100, "channel": 0}, {"type": "note_off", "time": 651, "note": 55, "velocity": 100, "channel": 0}, {"type": "note_on", "time": 162, "note": 53, "velocity": 101, "channel": 0}, {"type": "note_off", "time": 411, "note": 53, "velocity": 101, "channel": 0}, {"type": "note_on", "time": 305, "note": 57, "velocity": 98, "channel": 0}, {"type": "note_off", "time": 541, "note": 57, "velocity": 98, "channel": 0}, {"type": "note_on", "time": 240, "note": 58, "velocity": 94, "channel": 0}, {"type": "note_off", "time": 4832, "note": 58, "velocity": 94, "channel": 0}, {"type": "note_on", "time": 8019, "note": 60, "velocity": 108, "channel": 0}, {"type": "note_off", "time": 1196, "note": 60, "velocity": 108, "channel": 0}, {"type": "note_on", "time": 177, "note": 62, "velocity": 97, "channel": 0}, {"type": "note_off", "time": 2523, "note": 62, "velocity": 97, "channel": 0}, {"type": "note_on", "time": 72, "note": 74, "velocity": 101, "channel": 0}, {"type": "note_off", "time": 8728, "note": 74, "velocity": 101, "channel": 0}, {"type": "note_on", "time": 133, "note": 73, "velocity": 103, "channel": 0}, {"type": "note_off", "time": 6296, "note": 73, "velocity": 103, "channel": 0}, {"type": "note_on", "time": 725, "note": 70, "velocity": 107, "channel": 0}, {"type": "note_off", "time": 633, "note": 70, "velocity": 107, "channel": 0}, {"type": "note_on", "time": 153, "note": 67, "velocity": 105, "channel": 0}, {"type": "note_off", "time": 758, "note": 67, "velocity": 105, "channel": 0}, {"type": "note_on", "time": 94, "note": 65, "velocity": 104, "channel": 0}, {"type": "note_off", "time": 645, "note": 65, "velocity": 104, "channel": 0}, {"type": "note_on", "time": 819, "note": 62, "velocity": 115, "channel": 0}, {"type": "note_off", "time": 1457, "note": 62, "velocity": 115, "channel": 0}, {"type": "note_on", "time": 116, "note": 60, "velocity": 101, "channel": 0}, {"type": "note_off", "time": 1757, "note": 60, "velocity": 101, "channel": 0}, {"type": "note_on", "time": 252, "note": 58, "velocity": 102, "channel": 0}, {"type": "note_off", "time": 802, "note": 58, "velocity": 102, "channel": 0}, {"type": "note_on", "time": 97, "note": 55, "velocity": 97, "channel": 0}, {"type": "note_off", "time": 635, "note": 55, "velocity": 97, "channel": 0}, {"type": "note_on", "time": 69, "note": 53, "velocity": 94, "channel": 0}, {"type": "note_off", "time": 639, "note": 53, "velocity": 94, "channel": 0}, {"type": "note_on", "time": 73, "note": 60, "velocity": 103, "channel": 0}, {"type": "note_off", "time": 1009, "note": 60, "velocity": 103, "channel": 0}, {"type": "note_on", "time": 73, "note": 55, "velocity": 97, "channel": 0}, {"type": "note_off", "time": 753, "note": 55, "velocity": 97, "channel": 0}, {"type": "note_on", "time": 72, "note": 58, "velocity": 92, "channel": 0}, {"type": "note_off", "time": 4785, "note": 58, "velocity": 92, "channel": 0}, {"type": "note_on", "time": 20894, "note": 76, "velocity": 100, "channel": 0}, {"type": "note_off", "time": 1582, "note": 76, "velocity": 100, "channel": 0}, {"type": "note_on", "time": 74, "note": 78, "velocity": 100, "channel": 0}, {"type": "note_off", "time": 2365, "note": 78, "velocity": 100, "channel": 0}, {"type": "note_on", "time": 768, "note": 74, "velocity": 97, "channel": 0}, {"type": "note_off", "time": 1468, "note": 74, "velocity": 97, "channel": 0}, {"type": "note_on", "time": 189, "note": 73, "velocity": 101, "channel": 0}, {"type": "note_off", "time": 5306, "note": 73, "velocity": 101, "channel": 0}, {"type": "note_on", "time": 189, "note": 69, "velocity": 100, "channel": 0}, {"type": "note_off", "time": 900, "note": 69, "velocity": 100, "channel": 0}, {"type": "note_on", "time": 91, "note": 72, "velocity": 100, "channel": 0}, {"type": "note_off", "time": 696, "note": 72, "velocity": 100, "channel": 0}, {"type": "note_on", "time": 93, "note": 70, "velocity": 101, "channel": 0}, {"type": "note_off", "time": 749, "note": 70, "velocity": 101, "channel": 0}, {"type": "note_on", "time": 44, "note": 66, "velocity": 99, "channel": 0}, {"type": "note_off", "time": 720, "note": 66, "velocity": 99, "channel": 0}, {"type": "note_on", "time": 85, "note": 65, "velocity": 100, "channel": 0}, {"type": "note_off", "time": 669, "note": 65, "velocity": 100, "channel": 0}, {"type": "note_on", "time": 103, "note": 64, "velocity": 107, "channel": 0}, {"type": "note_off", "time": 834, "note": 64, "velocity": 107, "channel": 0}, {"type": "note_on", "time": 57, "note": 63, "velocity": 108, "channel": 0}, {"type": "note_off", "time": 747, "note": 63, "velocity": 108, "channel": 0}, {"type": "note_on", "time": 48, "note": 68, "velocity": 97, "channel": 0}, {"type": "note_off", "time": 778, "note": 68, "velocity": 97, "channel": 0}, {"type": "note_on", "time": 123, "note": 63, "velocity": 105, "channel": 0}, {"type": "note_off", "time": 659, "note": 63, "velocity": 105, "channel": 0}, {"type": "note_on", "time": 79, "note": 66, "velocity": 97, "channel": 0}, {"type": "note_off", "time": 599, "note": 66, "velocity": 97, "channel": 0}, {"type": "note_on", "time": 166, "note": 68, "velocity": 93, "channel": 0}, {"type": "note_off", "time": 632, "note": 68, "velocity": 93, "channel": 0}, {"type": "note_on", "time": 133, "note": 70, "velocity": 100, "channel": 0}, {"type": "note_off", "time": 666, "note": 70, "velocity": 100, "channel": 0}, {"type": "note_on", "time": 152, "note": 71, "velocity": 102, "channel": 0}, {"type": "note_off", "time": 757, "note": 71, "velocity": 102, "channel": 0}, {"type": "note_on", "time": 101, "note": 66, "velocity": 98, "channel": 0}, {"type": "note_off", "time": 834, "note": 66, "velocity": 98, "channel": 0}, {"type": "note_on", "time": 55, "note": 64, "velocity": 100, "channel": 0}, {"type": "note_off", "time": 530, "note": 64, "velocity": 100, "channel": 0}, {"type": "note_on", "time": 71, "note": 63, "velocity": 105, "channel": 0}, {"type": "note_off", "time": 790, "note": 63, "velocity": 105, "channel": 0}, {"type": "note_on", "time": 206, "note": 67, "velocity": 95, "channel": 0}, {"type": "note_off", "time": 610, "note": 67, "velocity": 95, "channel": 0}, {"type": "note_on", "time": 54, "note": 66, "velocity": 94, "channel": 0}, {"type": "note_off", "time": 499, "note": 66, "velocity": 94, "channel": 0}, {"type": "note_on", "time": 33, "note": 63, "velocity": 106, "channel": 0}, {"type": "note_off", "time": 766, "note": 63, "velocity": 106, "channel": 0}, {"type": "note_on", "time": 209, "note": 59, "velocity": 102, "channel": 0}, {"type": "note_off", "time": 439, "note": 59, "velocity": 102, "channel": 0}, {"type": "note_on", "time": 89, "note": 57, "velocity": 101, "channel": 0}, {"type": "note_off", "time": 627, "note": 57, "velocity": 101, "channel": 0}, {"type": "note_on", "time": 317, "note": 62, "velocity": 105, "channel": 0}, {"type": "note_off", "time": 822, "note": 62, "velocity": 105, "channel": 0}, {"type": "note_on", "time": 61, "note": 61, "velocity": 101, "channel": 0}, {"type": "note_off", "time": 761, "note": 61, "velocity": 101, "channel": 0}, {"type": "note_on", "time": 1275, "note": 53, "velocity": 112, "channel": 0}, {"type": "note_off", "time": 716, "note": 53, "velocity": 112, "channel": 0}, {"type": "note_on", "time": 175, "note": 57, "velocity": 102, "channel": 0}, {"type": "note_off", "time": 632, "note": 57, "velocity": 102, "channel": 0}, {"type": "note_on", "time": 248, "note": 60, "velocity": 103, "channel": 0}, {"type": "note_off", "time": 651, "note": 60, "velocity": 103, "channel": 0}, {"type": "note_on", "time": 65, "note": 58, "velocity": 102, "channel": 0}, {"type": "note_off", "time": 766, "note": 58, "velocity": 102, "channel": 0}, {"type": "note_on", "time": 96, "note": 54, "velocity": 101, "channel": 0}, {"type": "note_off", "time": 736, "note": 54, "velocity": 101, "channel": 0}, {"type": "note_on", "time": 64, "note": 51, "velocity": 98, "channel": 0}, {"type": "note_off", "time": 408, "note": 51, "velocity": 98, "channel": 0}, {"type": "note_on", "time": 59, "note": 50, "velocity": 100, "channel": 0}, {"type": "note_off", "time": 716, "note": 50, "velocity": 100, "channel": 0}, {"type": "note_on", "time": 359, "note": 55, "velocity": 102, "channel": 0}, {"type": "note_off", "time": 565, "note": 55, "velocity": 102, "channel": 0}, {"type": "note_on", "time": 122, "note": 53, "velocity": 103, "channel": 0}, {"type": "note_off", "time": 468, "note": 53, "velocity": 103, "channel": 0}, {"type": "note_on", "time": 203, "note": 50, "velocity": 97, "channel": 0}, {"type": "note_off", "time": 582, "note": 50, "velocity": 97, "channel": 0}, {"type": "note_on", "time": 89, "note": 48, "velocity": 103, "channel": 0}, {"type": "note_off", "time": 907, "note": 48, "velocity": 103, "channel": 0}, {"type": "note_on", "time": 182, "note": 50, "velocity": 104, "channel": 0}, {"type": "note_off", "time": 999, "note": 50, "velocity": 104, "channel": 0}, {"type": "note_on", "time": 76, "note": 48, "velocity": 100, "channel": 0}, {"type": "note_off", "time": 829, "note": 48, "velocity": 100, "channel": 0}, {"type": "note_on", "time": 60, "note": 50, "velocity": 98, "channel": 0}, {"type": "note_off", "time": 799, "note": 50, "velocity": 98, "channel": 0}, {"type": "note_on", "time": 249, "note": 48, "velocity": 96, "channel": 0}, {"type": "note_off", "time": 732, "note": 48, "velocity": 96, "channel": 0}, {"type": "note_on", "time": 283, "note": 46, "velocity": 84, "channel": 0}, {"type": "note_off", "time": 6629, "note": 46, "velocity": 84, "channel": 0}, {"type": "note_on", "time": 12651, "note": 55, "velocity": 101, "channel": 0}, {"type": "note_off", "time": 484, "note": 55, "velocity": 101, "channel": 0}, {"type": "note_on", "time": 32, "note": 58, "velocity": 98, "channel": 0}, {"type": "note_off", "time": 513, "note": 58, "velocity": 98, "channel": 0}, {"type": "note_on", "time": 127, "note": 61, "velocity": 103, "channel": 0}, {"type": "note_off", "time": 497, "note": 61, "velocity": 103, "channel": 0}, {"type": "note_on", "time": 360, "note": 65, "velocity": 102, "channel": 0}, {"type": "note_off", "time": 529, "note": 65, "velocity": 102, "channel": 0}, {"type": "note_on", "time": 166, "note": 69, "velocity": 101, "channel": 0}, {"type": "note_off", "time": 582, "note": 69, "velocity": 101, "channel": 0}, {"type": "note_on", "time": 36, "note": 70, "velocity": 98, "channel": 0}, {"type": "note_off", "time": 529, "note": 70, "velocity": 98, "channel": 0}, {"type": "note_on", "time": 4541, "note": 74, "velocity": 86, "channel": 0}, {"type": "note_off", "time": 758, "note": 74, "velocity": 86, "channel": 0}, {"type": "note_on", "time": 171, "note": 70, "velocity": 100, "channel": 0}, {"type": "note_off", "time": 568, "note": 70, "velocity": 100, "channel": 0}, {"type": "note_on", "time": 59, "note": 69, "velocity": 100, "channel": 0}, {"type": "note_off", "time": 604, "note": 69, "velocity": 100, "channel": 0}, {"type": "note_on", "time": 82, "note": 67, "velocity": 95, "channel": 0}, {"type": "note_off", "time": 402, "note": 67, "velocity": 95, "channel": 0}, {"type": "note_on", "time": 207, "note": 63, "velocity": 110, "channel": 0}, {"type": "note_off", "time": 574, "note": 63, "velocity": 110, "channel": 0}, {"type": "note_on", "time": 112, "note": 62, "velocity": 108, "channel": 0}, {"type": "note_off", "time": 775, "note": 62, "velocity": 108, "channel": 0}, {"type": "note_on", "time": 5916, "note": 67, "velocity": 107, "channel": 0}, {"type": "note_off", "time": 1474, "note": 67, "velocity": 107, "channel": 0}, {"type": "note_on", "time": 86, "note": 70, "velocity": 101, "channel": 0}, {"type": "note_off", "time": 1199, "note": 70, "velocity": 101, "channel": 0}, {"type": "note_on", "time": 0, "note": 72, "velocity": 109, "channel": 0}, {"type": "note_off", "time": 1865, "note": 72, "velocity": 109, "channel": 0}, {"type": "note_on", "time": 212, "note": 70, "velocity": 92, "channel": 0}, {"type": "note_off", "time": 941, "note": 70, "velocity": 92, "channel": 0}, {"type": "note_on", "time": 94, "note": 72, "velocity": 103, "channel": 0}, {"type": "note_off", "time": 1077, "note": 72, "velocity": 103, "channel": 0}, {"type": "note_on", "time": 112, "note": 74, "velocity": 104, "channel": 0}, {"type": "note_off", "time": 775, "note": 74, "velocity": 104, "channel": 0}, {"type": "note_on", "time": 9908, "note": 67, "velocity": 106, "channel": 0}, {"type": "note_off", "time": 1516, "note": 67, "velocity": 106, "channel": 0}, {"type": "note_on", "time": 218, "note": 70, "velocity": 108, "channel": 0}, {"type": "note_off", "time": 891, "note": 70, "velocity": 108, "channel": 0}, {"type": "note_on", "time": 991, "note": 72, "velocity": 109, "channel": 0}, {"type": "note_off", "time": 999, "note": 72, "velocity": 109, "channel": 0}, {"type": "note_on", "time": 291, "note": 70, "velocity": 105, "channel": 0}, {"type": "note_off", "time": 899, "note": 70, "velocity": 105, "channel": 0}, {"type": "note_on", "time": 1074, "note": 64, "velocity": 115, "channel": 0}, {"type": "note_off", "time": 1465, "note": 64, "velocity": 115, "channel": 0}, {"type": "note_on", "time": 33, "note": 63, "velocity": 104, "channel": 0}, {"type": "note_off", "time": 974, "note": 63, "velocity": 104, "channel": 0}, {"type": "note_on", "time": 8711, "note": 67, "velocity": 105, "channel": 0}, {"type": "note_off", "time": 1535, "note": 67, "velocity": 105, "channel": 0}, {"type": "note_on", "time": 126, "note": 70, "velocity": 100, "channel": 0}, {"type": "note_off", "time": 1249, "note": 70, "velocity": 100, "channel": 0}, {"type": "note_on", "time": 153, "note": 72, "velocity": 107, "channel": 0}, {"type": "note_off", "time": 1563, "note": 72, "velocity": 107, "channel": 0}, {"type": "note_on", "time": 94, "note": 70, "velocity": 103, "channel": 0}, {"type": "note_off", "time": 1374, "note": 70, "velocity": 103, "channel": 0}, {"type": "note_on", "time": 456, "note": 71, "velocity": 87, "channel": 0}, {"type": "note_off", "time": 1154, "note": 71, "velocity": 87, "channel": 0}, {"type": "note_on", "time": 130, "note": 74, "velocity": 101, "channel": 0}, {"type": "note_off", "time": 841, "note": 74, "velocity": 101, "channel": 0}, {"type": "note_on", "time": 1492, "note": 78, "velocity": 87, "channel": 0}, {"type": "note_off", "time": 2179, "note": 78, "velocity": 87, "channel": 0}, {"type": "note_on", "time": 7249, "note": 75, "velocity": 103, "channel": 0}, {"type": "note_off", "time": 1279, "note": 75, "velocity": 103, "channel": 0}, {"type": "note_on", "time": 233, "note": 74, "velocity": 97, "channel": 0}, {"type": "note_off", "time": 1249, "note": 74, "velocity": 97, "channel": 0}, {"type": "note_on", "time": 602, "note": 73, "velocity": 107, "channel": 0}, {"type": "note_off", "time": 1421, "note": 73, "velocity": 107, "channel": 0}, {"type": "note_on", "time": 94, "note": 72, "velocity": 102, "channel": 0}, {"type": "note_off", "time": 1326, "note": 72, "velocity": 102, "channel": 0}, {"type": "note_on", "time": 521, "note": 69, "velocity": 107, "channel": 0}, {"type": "note_off", "time": 1279, "note": 69, "velocity": 107, "channel": 0}, {"type": "note_on", "time": 189, "note": 62, "velocity": 105, "channel": 0}, {"type": "note_off", "time": 1468, "note": 62, "velocity": 105, "channel": 0}, {"type": "note_on", "time": 7580, "note": 62, "velocity": 121, "channel": 0}, {"type": "note_off", "time": 1231, "note": 62, "velocity": 121, "channel": 0}, {"type": "note_on", "time": 142, "note": 67, "velocity": 98, "channel": 0}, {"type": "note_off", "time": 900, "note": 67, "velocity": 98, "channel": 0}, {"type": "note_on", "time": 627, "note": 70, "velocity": 105, "channel": 0}, {"type": "note_off", "time": 1326, "note": 70, "velocity": 105, "channel": 0}, {"type": "note_on", "time": 150, "note": 74, "velocity": 96, "channel": 0}, {"type": "note_off", "time": 974, "note": 74, "velocity": 96, "channel": 0}, {"type": "note_on", "time": 5230, "note": 66, "velocity": 101, "channel": 0}, {"type": "note_off", "time": 1137, "note": 66, "velocity": 101, "channel": 0}, {"type": "note_on", "time": 53, "note": 69, "velocity": 92, "channel": 0}, {"type": "note_off", "time": 1089, "note": 69, "velocity": 92, "channel": 0}, {"type": "note_on", "time": 492, "note": 72, "velocity": 99, "channel": 0}, {"type": "note_off", "time": 799, "note": 72, "velocity": 99, "channel": 0}, {"type": "note_on", "time": 483, "note": 76, "velocity": 99, "channel": 0}, {"type": "note_off", "time": 1421, "note": 76, "velocity": 99, "channel": 0}, {"type": "note_on", "time": 10271, "note": 78, "velocity": 102, "channel": 0}, {"type": "note_off", "time": 1421, "note": 78, "velocity": 102, "channel": 0}, {"type": "note_on", "time": 388, "note": 74, "velocity": 100, "channel": 0}, {"type": "note_off", "time": 1279, "note": 74, "velocity": 100, "channel": 0}, {"type": "note_on", "time": 0, "note": 72, "velocity": 104, "channel": 0}, {"type": "note_off", "time": 1800, "note": 72, "velocity": 104, "channel": 0}, {"type": "note_on", "time": 47, "note": 70, "velocity": 98, "channel": 0}, {"type": "note_off", "time": 900, "note": 70, "velocity": 98, "channel": 0}, {"type": "note_on", "time": 94, "note": 72, "velocity": 100, "channel": 0}, {"type": "note_off", "time": 2132, "note": 72, "velocity": 100, "channel": 0}, {"type": "note_on", "time": 142, "note": 70, "velocity": 97, "channel": 0}, {"type": "note_off", "time": 663, "note": 70, "velocity": 97, "channel": 0}, {"type": "note_on", "time": 225, "note": 72, "velocity": 100, "channel": 0}, {"type": "note_off", "time": 2132, "note": 72, "velocity": 100, "channel": 0}, {"type": "note_on", "time": 11, "note": 70, "velocity": 95, "channel": 0}, {"type": "note_off", "time": 758, "note": 70, "velocity": 95, "channel": 0}, {"type": "note_on", "time": 47, "note": 72, "velocity": 103, "channel": 0}, {"type": "note_off", "time": 2037, "note": 72, "velocity": 103, "channel": 0}, {"type": "note_on", "time": 43, "note": 70, "velocity": 99, "channel": 0}, {"type": "note_off", "time": 708, "note": 70, "velocity": 99, "channel": 0}, {"type": "note_on", "time": 53, "note": 72, "velocity": 105, "channel": 0}, {"type": "note_off", "time": 1989, "note": 72, "velocity": 105, "channel": 0}, {"type": "note_on", "time": 201, "note": 70, "velocity": 98, "channel": 0}, {"type": "note_off", "time": 734, "note": 70, "velocity": 98, "channel": 0}, {"type": "note_on", "time": 82, "note": 72, "velocity": 104, "channel": 0}, {"type": "note_off", "time": 1936, "note": 72, "velocity": 104, "channel": 0}, {"type": "note_on", "time": 183, "note": 70, "velocity": 101, "channel": 0}, {"type": "note_off", "time": 835, "note": 70, "velocity": 101, "channel": 0}, {"type": "note_on", "time": 100, "note": 72, "velocity": 106, "channel": 0}, {"type": "note_off", "time": 1989, "note": 72, "velocity": 106, "channel": 0}, {"type": "note_on", "time": 136, "note": 70, "velocity": 100, "channel": 0}, {"type": "note_off", "time": 900, "note": 70, "velocity": 100, "channel": 0}, {"type": "note_on", "time": 100, "note": 72, "velocity": 105, "channel": 0}, {"type": "note_off", "time": 1516, "note": 72, "velocity": 105, "channel": 0}, {"type": "note_on", "time": 396, "note": 70, "velocity": 103, "channel": 0}, {"type": "note_off", "time": 858, "note": 70, "velocity": 103, "channel": 0}, {"type": "note_on", "time": 307, "note": 72, "velocity": 99, "channel": 0}, {"type": "note_off", "time": 1468, "note": 72, "velocity": 99, "channel": 0}, {"type": "note_on", "time": 47, "note": 74, "velocity": 101, "channel": 0}, {"type": "note_off", "time": 1610, "note": 74, "velocity": 101, "channel": 0}, {"type": "note_on", "time": 280, "note": 73, "velocity": 100, "channel": 0}, {"type": "note_off", "time": 474, "note": 73, "velocity": 100, "channel": 0}, {"type": "note_on", "time": 91, "note": 75, "velocity": 97, "channel": 0}, {"type": "note_off", "time": 1989, "note": 75, "velocity": 97, "channel": 0}, {"type": "note_on", "time": 233, "note": 75, "velocity": 106, "channel": 0}, {"type": "note_off", "time": 666, "note": 75, "velocity": 106, "channel": 0}, {"type": "note_on", "time": 66, "note": 76, "velocity": 102, "channel": 0}, {"type": "note_off", "time": 2298, "note": 76, "velocity": 102, "channel": 0}, {"type": "note_on", "time": 164, "note": 77, "velocity": 107, "channel": 0}, {"type": "note_off", "time": 2357, "note": 77, "velocity": 107, "channel": 0}, {"type": "note_on", "time": 142, "note": 78, "velocity": 106, "channel": 0}, {"type": "note_off", "time": 2736, "note": 78, "velocity": 106, "channel": 0}, {"type": "note_on", "time": 165, "note": 79, "velocity": 107, "channel": 0}, {"type": "note_off", "time": 3008, "note": 79, "velocity": 107, "channel": 0}, {"type": "note_on", "time": 278, "note": 79, "velocity": 79, "channel": 0}, {"type": "note_off", "time": 1815, "note": 79, "velocity": 79, "channel": 0}, {"type": "note_on", "time": 25, "note": 82, "velocity": 91, "channel": 0}, {"type": "note_off", "time": 9262, "note": 82, "velocity": 91, "channel": 0}, {"type": "note_on", "time": 389, "note": 77, "velocity": 94, "channel": 0}, {"type": "note_off", "time": 957, "note": 77, "velocity": 94, "channel": 0}, {"type": "note_on", "time": 116, "note": 78, "velocity": 98, "channel": 0}, {"type": "note_off", "time": 991, "note": 78, "velocity": 98, "channel": 0}, {"type": "note_on", "time": 441, "note": 75, "velocity": 93, "channel": 0}, {"type": "note_off", "time": 682, "note": 75, "velocity": 93, "channel": 0}, {"type": "note_on", "time": 163, "note": 73, "velocity": 99, "channel": 0}, {"type": "note_off", "time": 805, "note": 73, "velocity": 99, "channel": 0}, {"type": "note_on", "time": 142, "note": 70, "velocity": 103, "channel": 0}, {"type": "note_off", "time": 781, "note": 70, "velocity": 103, "channel": 0}, {"type": "note_on", "time": 112, "note": 69, "velocity": 108, "channel": 0}, {"type": "note_off", "time": 1332, "note": 69, "velocity": 108, "channel": 0}, {"type": "note_on", "time": 106, "note": 68, "velocity": 103, "channel": 0}, {"type": "note_off", "time": 527, "note": 68, "velocity": 103, "channel": 0}, {"type": "note_on", "time": 302, "note": 66, "velocity": 103, "channel": 0}, {"type": "note_off", "time": 278, "note": 66, "velocity": 103, "channel": 0}, {"type": "note_on", "time": 76, "note": 63, "velocity": 110, "channel": 0}, {"type": "note_off", "time": 633, "note": 63, "velocity": 110, "channel": 0}, {"type": "note_on", "time": 125, "note": 68, "velocity": 103, "channel": 0}, {"type": "note_off", "time": 807, "note": 68, "velocity": 103, "channel": 0}, {"type": "note_on", "time": 499, "note": 63, "velocity": 92, "channel": 0}, {"type": "note_off", "time": 424, "note": 63, "velocity": 92, "channel": 0}, {"type": "note_on", "time": 124, "note": 66, "velocity": 109, "channel": 0}, {"type": "note_off", "time": 1449, "note": 66, "velocity": 109, "channel": 0}, {"type": "note_on", "time": 16140, "note": 84, "velocity": 98, "channel": 0}, {"type": "note_off", "time": 3897, "note": 84, "velocity": 98, "channel": 0}, {"type": "note_on", "time": 33, "note": 85, "velocity": 100, "channel": 0}, {"type": "note_off", "time": 3331, "note": 85, "velocity": 100, "channel": 0}, {"type": "note_on", "time": 1089, "note": 81, "velocity": 95, "channel": 0}, {"type": "note_off", "time": 1042, "note": 81, "velocity": 95, "channel": 0}, {"type": "note_on", "time": 1132, "note": 80, "velocity": 94, "channel": 0}, {"type": "note_off", "time": 724, "note": 80, "velocity": 94, "channel": 0}, {"type": "note_on", "time": 91, "note": 81, "velocity": 94, "channel": 0}, {"type": "note_off", "time": 782, "note": 81, "velocity": 94, "channel": 0}, {"type": "note_on", "time": 533, "note": 62, "velocity": 96, "channel": 0}, {"type": "note_off", "time": 1099, "note": 62, "velocity": 96, "channel": 0}, {"type": "note_on", "time": 499, "note": 80, "velocity": 9, "channel": 0}, {"type": "note_off", "time": 1032, "note": 80, "velocity": 9, "channel": 0}, {"type": "note_on", "time": 487, "note": 80, "velocity": 93, "channel": 0}, {"type": "note_off", "time": 734, "note": 80, "velocity": 93, "channel": 0}, {"type": "note_on", "time": 1076, "note": 78, "velocity": 93, "channel": 0}, {"type": "note_off", "time": 1066, "note": 78, "velocity": 93, "channel": 0}, {"type": "note_on", "time": 333, "note": 78, "velocity": 91, "channel": 0}, {"type": "note_off", "time": 1032, "note": 78, "velocity": 91, "channel": 0}, {"type": "note_on", "time": 394, "note": 75, "velocity": 92, "channel": 0}, {"type": "note_off", "time": 764, "note": 75, "velocity": 92, "channel": 0}, {"type": "note_on", "time": 248, "note": 75, "velocity": 92, "channel": 0}, {"type": "note_off", "time": 710, "note": 75, "velocity": 92, "channel": 0}, {"type": "note_on", "time": 461, "note": 73, "velocity": 102, "channel": 0}, {"type": "note_off", "time": 1131, "note": 73, "velocity": 102, "channel": 0}, {"type": "note_on", "time": 438, "note": 70, "velocity": 100, "channel": 0}, {"type": "note_off", "time": 864, "note": 70, "velocity": 100, "channel": 0}, {"type": "note_on", "time": 1115, "note": 69, "velocity": 107, "channel": 0}, {"type": "note_off", "time": 1465, "note": 69, "velocity": 107, "channel": 0}, {"type": "note_on", "time": 166, "note": 68, "velocity": 103, "channel": 0}, {"type": "note_off", "time": 1890, "note": 68, "velocity": 103, "channel": 0}, {"type": "note_on", "time": 208, "note": 66, "velocity": 108, "channel": 0}, {"type": "note_off", "time": 1066, "note": 66, "velocity": 108, "channel": 0}, {"type": "note_on", "time": 83, "note": 63, "velocity": 114, "channel": 0}, {"type": "note_off", "time": 807, "note": 63, "velocity": 114, "channel": 0}, {"type": "note_on", "time": 865, "note": 68, "velocity": 103, "channel": 0}, {"type": "note_off", "time": 1291, "note": 68, "velocity": 103, "channel": 0}, {"type": "note_on", "time": 195, "note": 66, "velocity": 104, "channel": 0}, {"type": "note_off", "time": 521, "note": 66, "velocity": 104, "channel": 0}, {"type": "note_on", "time": 106, "note": 63, "velocity": 114, "channel": 0}, {"type": "note_off", "time": 799, "note": 63, "velocity": 114, "channel": 0}, {"type": "note_on", "time": 189, "note": 61, "velocity": 108, "channel": 0}, {"type": "note_off", "time": 1071, "note": 61, "velocity": 108, "channel": 0}, {"type": "note_on", "time": 131, "note": 63, "velocity": 115, "channel": 0}, {"type": "note_off", "time": 5696, "note": 63, "velocity": 115, "channel": 0}, {"type": "note_on", "time": 195, "note": 64, "velocity": 106, "channel": 0}, {"type": "note_off", "time": 852, "note": 64, "velocity": 106, "channel": 0}, {"type": "note_on", "time": 35, "note": 67, "velocity": 101, "channel": 0}, {"type": "note_off", "time": 888, "note": 67, "velocity": 101, "channel": 0}, {"type": "note_on", "time": 61, "note": 63, "velocity": 115, "channel": 0}, {"type": "note_off", "time": 513, "note": 63, "velocity": 115, "channel": 0}, {"type": "note_on", "time": 61, "note": 61, "velocity": 111, "channel": 0}, {"type": "note_off", "time": 647, "note": 61, "velocity": 111, "channel": 0}, {"type": "note_on", "time": 26, "note": 58, "velocity": 102, "channel": 0}, {"type": "note_off", "time": 538, "note": 58, "velocity": 102, "channel": 0}, {"type": "note_on", "time": 112, "note": 57, "velocity": 104, "channel": 0}, {"type": "note_off", "time": 379, "note": 57, "velocity": 104, "channel": 0}, {"type": "note_on", "time": 148, "note": 56, "velocity": 106, "channel": 0}, {"type": "note_off", "time": 953, "note": 56, "velocity": 106, "channel": 0}, {"type": "note_on", "time": 116, "note": 51, "velocity": 102, "channel": 0}, {"type": "note_off", "time": 799, "note": 51, "velocity": 102, "channel": 0}, {"type": "note_on", "time": 166, "note": 56, "velocity": 102, "channel": 0}, {"type": "note_off", "time": 1066, "note": 56, "velocity": 102, "channel": 0}, {"type": "note_on", "time": 99, "note": 51, "velocity": 94, "channel": 0}, {"type": "note_off", "time": 699, "note": 51, "velocity": 94, "channel": 0}, {"type": "note_on", "time": 30, "note": 54, "velocity": 94, "channel": 0}, {"type": "note_off", "time": 3008, "note": 54, "velocity": 94, "channel": 0}, {"type": "note_on", "time": 9420, "note": 72, "velocity": 100, "channel": 0}, {"type": "note_off", "time": 499, "note": 72, "velocity": 100, "channel": 0}, {"type": "note_on", "time": 99, "note": 73, "velocity": 104, "channel": 0}, {"type": "note_off", "time": 1132, "note": 73, "velocity": 104, "channel": 0}, {"type": "note_on", "time": 200, "note": 70, "velocity": 106, "channel": 0}, {"type": "note_off", "time": 764, "note": 70, "velocity": 106, "channel": 0}, {"type": "note_on", "time": 267, "note": 68, "velocity": 106, "channel": 0}, {"type": "note_off", "time": 1898, "note": 68, "velocity": 106, "channel": 0}, {"type": "note_on", "time": 243, "note": 63, "velocity": 111, "channel": 0}, {"type": "note_off", "time": 900, "note": 63, "velocity": 111, "channel": 0}, {"type": "note_on", "time": 201, "note": 65, "velocity": 106, "channel": 0}, {"type": "note_off", "time": 604, "note": 65, "velocity": 106, "channel": 0}, {"type": "note_on", "time": 65, "note": 66, "velocity": 105, "channel": 0}, {"type": "note_off", "time": 888, "note": 66, "velocity": 105, "channel": 0}, {"type": "note_on", "time": 1557, "note": 63, "velocity": 106, "channel": 0}, {"type": "note_off", "time": 2842, "note": 63, "velocity": 106, "channel": 0}, {"type": "note_on", "time": 34, "note": 60, "velocity": 108, "channel": 0}, {"type": "note_off", "time": 916, "note": 60, "velocity": 108, "channel": 0}, {"type": "note_on", "time": 124, "note": 61, "velocity": 103, "channel": 0}, {"type": "note_off", "time": 1998, "note": 61, "velocity": 103, "channel": 0}, {"type": "note_on", "time": 458, "note": 58, "velocity": 102, "channel": 0}, {"type": "note_off", "time": 2511, "note": 58, "velocity": 102, "channel": 0}, {"type": "note_on", "time": 362, "note": 56, "velocity": 103, "channel": 0}, {"type": "note_off", "time": 2463, "note": 56, "velocity": 103, "channel": 0}, {"type": "note_on", "time": 606, "note": 51, "velocity": 100, "channel": 0}, {"type": "note_off", "time": 2303, "note": 51, "velocity": 100, "channel": 0}, {"type": "note_on", "time": 522, "note": 53, "velocity": 102, "channel": 0}, {"type": "note_off", "time": 657, "note": 53, "velocity": 102, "channel": 0}, {"type": "note_on", "time": 183, "note": 55, "velocity": 100, "channel": 0}, {"type": "note_off", "time": 1998, "note": 55, "velocity": 100, "channel": 0}, {"type": "note_on", "time": 380, "note": 58, "velocity": 102, "channel": 0}, {"type": "note_off", "time": 2700, "note": 58, "velocity": 102, "channel": 0}, {"type": "note_on", "time": 142, "note": 60, "velocity": 109, "channel": 0}, {"type": "note_off", "time": 2605, "note": 60, "velocity": 109, "channel": 0}, {"type": "note_on", "time": 426, "note": 63, "velocity": 117, "channel": 0}, {"type": "note_off", "time": 2511, "note": 63, "velocity": 117, "channel": 0}, {"type": "note_on", "time": 769, "note": 65, "velocity": 107, "channel": 0}, {"type": "note_off", "time": 1362, "note": 65, "velocity": 107, "channel": 0}, {"type": "note_on", "time": 1077, "note": 65, "velocity": 112, "channel": 0}, {"type": "note_off", "time": 533, "note": 65, "velocity": 112, "channel": 0}, {"type": "note_on", "time": 367, "note": 67, "velocity": 101, "channel": 0}, {"type": "note_off", "time": 2049, "note": 67, "velocity": 101, "channel": 0}, {"type": "note_on", "time": 414, "note": 65, "velocity": 106, "channel": 0}, {"type": "note_off", "time": 544, "note": 65, "velocity": 106, "channel": 0}, {"type": "note_on", "time": 201, "note": 67, "velocity": 105, "channel": 0}, {"type": "note_off", "time": 1468, "note": 67, "velocity": 105, "channel": 0}, {"type": "note_on", "time": 106, "note": 65, "velocity": 94, "channel": 0}, {"type": "note_off", "time": 568, "note": 65, "velocity": 94, "channel": 0}, {"type": "note_on", "time": 8710, "note": 67, "velocity": 105, "channel": 0}, {"type": "note_off", "time": 818, "note": 67, "velocity": 105, "channel": 0}, {"type": "note_on", "time": 317, "note": 67, "velocity": 104, "channel": 0}, {"type": "note_off", "time": 610, "note": 67, "velocity": 104, "channel": 0}, {"type": "note_on", "time": 1257, "note": 72, "velocity": 102, "channel": 0}, {"type": "note_off", "time": 568, "note": 72, "velocity": 102, "channel": 0}, {"type": "note_on", "time": 142, "note": 73, "velocity": 106, "channel": 0}, {"type": "note_off", "time": 1279, "note": 73, "velocity": 106, "channel": 0}, {"type": "note_on", "time": 302, "note": 71, "velocity": 106, "channel": 0}, {"type": "note_off", "time": 764, "note": 71, "velocity": 106, "channel": 0}, {"type": "note_on", "time": 94, "note": 70, "velocity": 104, "channel": 0}, {"type": "note_off", "time": 621, "note": 70, "velocity": 104, "channel": 0}, {"type": "note_on", "time": 1119, "note": 68, "velocity": 108, "channel": 0}, {"type": "note_off", "time": 1113, "note": 68, "velocity": 108, "channel": 0}, {"type": "note_on", "time": 248, "note": 67, "velocity": 104, "channel": 0}, {"type": "note_off", "time": 2096, "note": 67, "velocity": 104, "channel": 0}, {"type": "note_on", "time": 22, "note": 65, "velocity": 85, "channel": 0}, {"type": "note_off", "time": 461, "note": 65, "velocity": 85, "channel": 0}, {"type": "note_on", "time": 6933, "note": 67, "velocity": 104, "channel": 0}, {"type": "note_off", "time": 1107, "note": 67, "velocity": 104, "channel": 0}, {"type": "note_on", "time": 1823, "note": 67, "velocity": 106, "channel": 0}, {"type": "note_off", "time": 991, "note": 67, "velocity": 106, "channel": 0}, {"type": "note_on", "time": 1757, "note": 73, "velocity": 99, "channel": 0}, {"type": "note_off", "time": 2307, "note": 73, "velocity": 99, "channel": 0}, {"type": "note_on", "time": 58, "note": 75, "velocity": 99, "channel": 0}, {"type": "note_off", "time": 1490, "note": 75, "velocity": 99, "channel": 0}, {"type": "note_on", "time": 399, "note": 72, "velocity": 103, "channel": 0}, {"type": "note_off", "time": 994, "note": 72, "velocity": 103, "channel": 0}, {"type": "note_on", "time": 195, "note": 67, "velocity": 101, "channel": 0}, {"type": "note_off", "time": 1007, "note": 67, "velocity": 101, "channel": 0}, {"type": "note_on", "time": 508, "note": 66, "velocity": 105, "channel": 0}, {"type": "note_off", "time": 1315, "note": 66, "velocity": 105, "channel": 0}, {"type": "note_on", "time": 208, "note": 65, "velocity": 96, "channel": 0}, {"type": "note_off", "time": 624, "note": 65, "velocity": 96, "channel": 0}, {"type": "note_on", "time": 491, "note": 63, "velocity": 106, "channel": 0}, {"type": "note_off", "time": 757, "note": 63, "velocity": 106, "channel": 0}, {"type": "note_on", "time": 541, "note": 65, "velocity": 105, "channel": 0}, {"type": "note_off", "time": 941, "note": 65, "velocity": 105, "channel": 0}, {"type": "note_on", "time": 149, "note": 60, "velocity": 105, "channel": 0}, {"type": "note_off", "time": 1007, "note": 60, "velocity": 105, "channel": 0}, {"type": "note_on", "time": 391, "note": 63, "velocity": 117, "channel": 0}, {"type": "note_off", "time": 1320, "note": 63, "velocity": 117, "channel": 0}, {"type": "note_on", "time": 88, "note": 65, "velocity": 102, "channel": 0}, {"type": "note_off", "time": 929, "note": 65, "velocity": 102, "channel": 0}, {"type": "note_on", "time": 75, "note": 63, "velocity": 107, "channel": 0}, {"type": "note_off", "time": 607, "note": 63, "velocity": 107, "channel": 0}, {"type": "note_on", "time": 1032, "note": 65, "velocity": 108, "channel": 0}, {"type": "note_off", "time": 982, "note": 65, "velocity": 108, "channel": 0}, {"type": "note_on", "time": 41, "note": 67, "velocity": 100, "channel": 0}, {"type": "note_off", "time": 707, "note": 67, "velocity": 100, "channel": 0}, {"type": "note_on", "time": 416, "note": 63, "velocity": 112, "channel": 0}, {"type": "note_off", "time": 758, "note": 63, "velocity": 112, "channel": 0}, {"type": "note_on", "time": 199, "note": 60, "velocity": 103, "channel": 0}, {"type": "note_off", "time": 710, "note": 60, "velocity": 103, "channel": 0}, {"type": "note_on", "time": 211, "note": 65, "velocity": 101, "channel": 0}, {"type": "note_off", "time": 852, "note": 65, "velocity": 101, "channel": 0}, {"type": "note_on", "time": 189, "note": 60, "velocity": 101, "channel": 0}, {"type": "note_off", "time": 852, "note": 60, "velocity": 101, "channel": 0}, {"type": "note_on", "time": 106, "note": 63, "velocity": 95, "channel": 0}, {"type": "note_off", "time": 4614, "note": 63, "velocity": 95, "channel": 0}, {"type": "note_on", "time": 2375, "note": 67, "velocity": 107, "channel": 0}, {"type": "note_off", "time": 1528, "note": 67, "velocity": 107, "channel": 0}, {"type": "note_on", "time": 785, "note": 70, "velocity": 110, "channel": 0}, {"type": "note_off", "time": 1182, "note": 70, "velocity": 110, "channel": 0}, {"type": "note_on", "time": 86, "note": 72, "velocity": 105, "channel": 0}, {"type": "note_off", "time": 1427, "note": 72, "velocity": 105, "channel": 0}, {"type": "note_on", "time": 88, "note": 73, "velocity": 99, "channel": 0}, {"type": "note_off", "time": 2120, "note": 73, "velocity": 99, "channel": 0}, {"type": "note_on", "time": 58, "note": 74, "velocity": 93, "channel": 0}, {"type": "note_off", "time": 3981, "note": 74, "velocity": 93, "channel": 0}, {"type": "note_on", "time": 1551, "note": 72, "velocity": 104, "channel": 0}, {"type": "note_off", "time": 994, "note": 72, "velocity": 104, "channel": 0}, {"type": "note_on", "time": 349, "note": 70, "velocity": 105, "channel": 0}, {"type": "note_off", "time": 1184, "note": 70, "velocity": 105, "channel": 0}, {"type": "note_on", "time": 1083, "note": 69, "velocity": 108, "channel": 0}, {"type": "note_off", "time": 1141, "note": 69, "velocity": 108, "channel": 0}, {"type": "note_on", "time": 199, "note": 67, "velocity": 100, "channel": 0}, {"type": "note_off", "time": 1032, "note": 67, "velocity": 100, "channel": 0}, {"type": "note_on", "time": 1024, "note": 65, "velocity": 107, "channel": 0}, {"type": "note_off", "time": 1468, "note": 65, "velocity": 107, "channel": 0}, {"type": "note_on", "time": 213, "note": 64, "velocity": 117, "channel": 0}, {"type": "note_off", "time": 1658, "note": 64, "velocity": 117, "channel": 0}, {"type": "note_on", "time": 1133, "note": 63, "velocity": 117, "channel": 0}, {"type": "note_off", "time": 2167, "note": 63, "velocity": 117, "channel": 0}, {"type": "note_on", "time": 130, "note": 62, "velocity": 100, "channel": 0}, {"type": "note_off", "time": 900, "note": 62, "velocity": 100, "channel": 0}, {"type": "note_on", "time": 2813, "note": 62, "velocity": 116, "channel": 0}, {"type": "note_off", "time": 1468, "note": 62, "velocity": 116, "channel": 0}, {"type": "note_on", "time": 38, "note": 60, "velocity": 115, "channel": 0}, {"type": "note_off", "time": 1424, "note": 60, "velocity": 115, "channel": 0}, {"type": "note_on", "time": 732, "note": 58, "velocity": 103, "channel": 0}, {"type": "note_off", "time": 1665, "note": 58, "velocity": 103, "channel": 0}, {"type": "note_on", "time": 158, "note": 56, "velocity": 108, "channel": 0}, {"type": "note_off", "time": 1516, "note": 56, "velocity": 108, "channel": 0}, {"type": "note_on", "time": 532, "note": 55, "velocity": 109, "channel": 0}, {"type": "note_off", "time": 1658, "note": 55, "velocity": 109, "channel": 0}, {"type": "note_on", "time": 357, "note": 53, "velocity": 113, "channel": 0}, {"type": "note_off", "time": 1516, "note": 53, "velocity": 113, "channel": 0}, {"type": "note_on", "time": 724, "note": 54, "velocity": 104, "channel": 0}, {"type": "note_off", "time": 1231, "note": 54, "velocity": 104, "channel": 0}, {"type": "note_on", "time": 183, "note": 62, "velocity": 107, "channel": 0}, {"type": "note_off", "time": 757, "note": 62, "velocity": 107, "channel": 0}, {"type": "note_on", "time": 181, "note": 57, "velocity": 90, "channel": 0}, {"type": "note_off", "time": 3127, "note": 57, "velocity": 90, "channel": 0}, {"type": "note_on", "time": 2763, "note": 58, "velocity": 108, "channel": 0}, {"type": "note_off", "time": 1279, "note": 58, "velocity": 108, "channel": 0}, {"type": "note_on", "time": 311, "note": 66, "velocity": 105, "channel": 0}, {"type": "note_off", "time": 994, "note": 66, "velocity": 105, "channel": 0}, {"type": "note_on", "time": 204, "note": 60, "velocity": 94, "channel": 0}, {"type": "note_off", "time": 4347, "note": 60, "velocity": 94, "channel": 0}, {"type": "note_on", "time": 2398, "note": 62, "velocity": 123, "channel": 0}, {"type": "note_off", "time": 1141, "note": 62, "velocity": 123, "channel": 0}, {"type": "note_on", "time": 258, "note": 72, "velocity": 103, "channel": 0}, {"type": "note_off", "time": 1042, "note": 72, "velocity": 103, "channel": 0}, {"type": "note_on", "time": 29, "note": 69, "velocity": 98, "channel": 0}, {"type": "note_off", "time": 3470, "note": 69, "velocity": 98, "channel": 0}, {"type": "note_on", "time": 3127, "note": 70, "velocity": 106, "channel": 0}, {"type": "note_off", "time": 1137, "note": 70, "velocity": 106, "channel": 0}, {"type": "note_on", "time": 47, "note": 73, "velocity": 102, "channel": 0}, {"type": "note_off", "time": 805, "note": 73, "velocity": 102, "channel": 0}, {"type": "note_on", "time": 213, "note": 68, "velocity": 103, "channel": 0}, {"type": "note_off", "time": 2676, "note": 68, "velocity": 103, "channel": 0}, {"type": "note_on", "time": 94, "note": 66, "velocity": 86, "channel": 0}, {"type": "note_off", "time": 722, "note": 66, "velocity": 86, "channel": 0}, {"type": "note_on", "time": 3304, "note": 67, "velocity": 109, "channel": 0}, {"type": "note_off", "time": 1184, "note": 67, "velocity": 109, "channel": 0}, {"type": "note_on", "time": 165, "note": 66, "velocity": 103, "channel": 0}, {"type": "note_off", "time": 941, "note": 66, "velocity": 103, "channel": 0}, {"type": "note_on", "time": 357, "note": 74, "velocity": 96, "channel": 0}, {"type": "note_off", "time": 3722, "note": 74, "velocity": 96, "channel": 0}, {"type": "note_on", "time": 2473, "note": 72, "velocity": 110, "channel": 0}, {"type": "note_off", "time": 1042, "note": 72, "velocity": 110, "channel": 0}, {"type": "note_on", "time": 140, "note": 70, "velocity": 102, "channel": 0}, {"type": "note_off", "time": 1137, "note": 70, "velocity": 102, "channel": 0}, {"type": "note_on", "time": 45, "note": 75, "velocity": 101, "channel": 0}, {"type": "note_off", "time": 4014, "note": 75, "velocity": 101, "channel": 0}, {"type": "note_on", "time": 2423, "note": 74, "velocity": 103, "channel": 0}, {"type": "note_off", "time": 1024, "note": 74, "velocity": 103, "channel": 0}, {"type": "note_on", "time": 216, "note": 73, "velocity": 107, "channel": 0}, {"type": "note_off", "time": 1132, "note": 73, "velocity": 107, "channel": 0}, {"type": "note_on", "time": 483, "note": 78, "velocity": 88, "channel": 0}, {"type": "note_off", "time": 4239, "note": 78, "velocity": 88, "channel": 0}, {"type": "note_on", "time": 1976, "note": 74, "velocity": 103, "channel": 0}, {"type": "note_off", "time": 1089, "note": 74, "velocity": 103, "channel": 0}, {"type": "note_on", "time": 94, "note": 73, "velocity": 104, "channel": 0}, {"type": "note_off", "time": 1137, "note": 73, "velocity": 104, "channel": 0}, {"type": "note_on", "time": 1279, "note": 78, "velocity": 94, "channel": 0}, {"type": "note_off", "time": 3743, "note": 78, "velocity": 94, "channel": 0}, {"type": "note_on", "time": 2455, "note": 78, "velocity": 107, "channel": 0}, {"type": "note_off", "time": 1174, "note": 78, "velocity": 107, "channel": 0}, {"type": "note_on", "time": 99, "note": 79, "velocity": 108, "channel": 0}, {"type": "note_off", "time": 1249, "note": 79, "velocity": 108, "channel": 0}, {"type": "note_on", "time": 658, "note": 81, "velocity": 96, "channel": 0}, {"type": "note_off", "time": 5069, "note": 81, "velocity": 96, "channel": 0}, {"type": "note_on", "time": 459, "note": 81, "velocity": 99, "channel": 0}, {"type": "note_off", "time": 882, "note": 81, "velocity": 99, "channel": 0}, {"type": "note_on", "time": 141, "note": 79, "velocity": 106, "channel": 0}, {"type": "note_off", "time": 1424, "note": 79, "velocity": 106, "channel": 0}, {"type": "note_on", "time": 641, "note": 82, "velocity": 92, "channel": 0}, {"type": "note_off", "time": 3114, "note": 82, "velocity": 92, "channel": 0}, {"type": "note_on", "time": 2573, "note": 82, "velocity": 94, "channel": 0}, {"type": "note_off", "time": 1215, "note": 82, "velocity": 94, "channel": 0}, {"type": "note_on", "time": 149, "note": 81, "velocity": 99, "channel": 0}, {"type": "note_off", "time": 1199, "note": 81, "velocity": 99, "channel": 0}, {"type": "note_on", "time": 907, "note": 84, "velocity": 95, "channel": 0}, {"type": "note_off", "time": 3174, "note": 84, "velocity": 95, "channel": 0}, {"type": "note_on", "time": 5087, "note": 83, "velocity": 68, "channel": 0}, {"type": "note_off", "time": 2798, "note": 83, "velocity": 68, "channel": 0}, {"type": "note_on", "time": 108, "note": 86, "velocity": 96, "channel": 0}, {"type": "note_off", "time": 1365, "note": 86, "velocity": 96, "channel": 0}, {"type": "note_on", "time": 391, "note": 71, "velocity": 86, "channel": 0}, {"type": "note_off", "time": 483, "note": 71, "velocity": 86, "channel": 0}, {"type": "note_on", "time": 3646, "note": 84, "velocity": 101, "channel": 0}, {"type": "note_off", "time": 3707, "note": 84, "velocity": 101, "channel": 0}, {"type": "note_on", "time": 142, "note": 86, "velocity": 96, "channel": 0}, {"type": "note_off", "time": 841, "note": 86, "velocity": 96, "channel": 0}, {"type": "note_on", "time": 290, "note": 71, "velocity": 73, "channel": 0}, {"type": "note_off", "time": 533, "note": 71, "velocity": 73, "channel": 0}, {"type": "note_on", "time": 2954, "note": 84, "velocity": 102, "channel": 0}, {"type": "note_off", "time": 2866, "note": 84, "velocity": 102, "channel": 0}, {"type": "note_on", "time": 142, "note": 86, "velocity": 102, "channel": 0}, {"type": "note_off", "time": 4501, "note": 86, "velocity": 102, "channel": 0}, {"type": "note_on", "time": 544, "note": 82, "velocity": 94, "channel": 0}, {"type": "note_off", "time": 852, "note": 82, "velocity": 94, "channel": 0}, {"type": "note_on", "time": 672, "note": 79, "velocity": 108, "channel": 0}, {"type": "note_off", "time": 866, "note": 79, "velocity": 108, "channel": 0}, {"type": "note_on", "time": 424, "note": 77, "velocity": 109, "channel": 0}, {"type": "note_off", "time": 824, "note": 77, "velocity": 109, "channel": 0}, {"type": "note_on", "time": 339, "note": 74, "velocity": 102, "channel": 0}, {"type": "note_off", "time": 959, "note": 74, "velocity": 102, "channel": 0}, {"type": "note_on", "time": 307, "note": 74, "velocity": 105, "channel": 0}, {"type": "note_off", "time": 817, "note": 74, "velocity": 105, "channel": 0}, {"type": "note_on", "time": 201, "note": 72, "velocity": 106, "channel": 0}, {"type": "note_off", "time": 568, "note": 72, "velocity": 106, "channel": 0}, {"type": "note_on", "time": 254, "note": 67, "velocity": 109, "channel": 0}, {"type": "note_off", "time": 882, "note": 67, "velocity": 109, "channel": 0}, {"type": "note_on", "time": 782, "note": 70, "velocity": 102, "channel": 0}, {"type": "note_off", "time": 782, "note": 70, "velocity": 102, "channel": 0}, {"type": "note_on", "time": 116, "note": 67, "velocity": 111, "channel": 0}, {"type": "note_off", "time": 991, "note": 67, "velocity": 111, "channel": 0}, {"type": "note_on", "time": 241, "note": 65, "velocity": 114, "channel": 0}, {"type": "note_off", "time": 982, "note": 65, "velocity": 114, "channel": 0}, {"type": "note_on", "time": 117, "note": 62, "velocity": 125, "channel": 0}, {"type": "note_off", "time": 1231, "note": 62, "velocity": 125, "channel": 0}, {"type": "note_on", "time": 343, "note": 61, "velocity": 124, "channel": 0}, {"type": "note_off", "time": 1599, "note": 61, "velocity": 124, "channel": 0}, {"type": "note_on", "time": 153, "note": 58, "velocity": 113, "channel": 0}, {"type": "note_off", "time": 1374, "note": 58, "velocity": 113, "channel": 0}, {"type": "note_on", "time": 461, "note": 58, "velocity": 116, "channel": 0}, {"type": "note_off", "time": 2001, "note": 58, "velocity": 116, "channel": 0}, {"type": "note_on", "time": 177, "note": 55, "velocity": 93, "channel": 0}, {"type": "note_off", "time": 10897, "note": 55, "velocity": 93, "channel": 0}, {"type": "note_on", "time": 255, "note": 54, "velocity": 80, "channel": 0}, {"type": "note_off", "time": 882, "note": 54, "velocity": 80, "channel": 0}, {"type": "note_on", "time": 233, "note": 50, "velocity": 69, "channel": 0}, {"type": "note_off", "time": 1365, "note": 50, "velocity": 69, "channel": 0}, {"type": "note_on", "time": 399, "note": 49, "velocity": 64, "channel": 0}, {"type": "note_off", "time": 832, "note": 49, "velocity": 64, "channel": 0}, {"type": "note_on", "time": 166, "note": 47, "velocity": 53, "channel": 0}, {"type": "note_off", "time": 1832, "note": 47, "velocity": 53, "channel": 0}, {"type": "end_of_track", "time": 0}]]}