{"ticks_per_beat": 192, "tracks": [[{"type": "track_name", "name": "Melody", "time": 0}, {"type": "set_tempo", "tempo": 331491, "time": 0}, {"type": "key_signature", "key": "Eb", "time": 0}, {"type": "time_signature", "numerator": 4, "denominator": 4, "clocks_per_click": 24, "notated_32nd_notes_per_beat": 8, "time": 0}, {"type": "note_on", "time": 896, "note": 61, "velocity": 115, "channel": 0}, {"type": "note_off", "time": 80, "note": 61, "velocity": 115, "channel": 0}, {"type": "note_on", "time": 8, "note": 58, "velocity": 108, "channel": 0}, {"type": "note_off", "time": 81, "note": 58, "velocity": 108, "channel": 0}, {"type": "note_on", "time": 19, "note": 51, "velocity": 107, "channel": 0}, {"type": "note_off", "time": 80, "note": 51, "velocity": 107, "channel": 0}, {"type": "note_on", "time": 0, "note": 57, "velocity": 112, "channel": 0}, {"type": "note_off", "time": 102, "note": 57, "velocity": 112, "channel": 0}, {"type": "note_on", "time": 16, "note": 56, "velocity": 114, "channel": 0}, {"type": "note_off", "time": 34, "note": 56, "velocity": 114, "channel": 0}, {"type": "note_on", "time": 3, "note": 53, "velocity": 118, "channel": 0}, {"type": "note_off", "time": 36, "note": 53, "velocity": 118, "channel": 0}, {"type": "note_on", "time": 4, "note": 51, "velocity": 111, "channel": 0}, {"type": "note_off", "time": 202, "note": 51, "velocity": 111, "channel": 0}, {"type": "note_on", "time": 368, "note": 51, "velocity": 106, "channel": 0}, {"type": "note_off", "time": 122, "note": 51, "velocity": 106, "channel": 0}, {"type": "note_on", "time": 4, "note": 54, "velocity": 109, "channel": 0}, {"type": "note_off", "time": 54, "note": 54, "velocity": 109, "channel": 0}, {"type": "note_on", "time": 3, "note": 56, "velocity": 115, "channel": 0}, {"type": "note_off", "time": 145, "note": 56, "velocity": 115, "channel": 0}, {"type": "note_on", "time": 17, "note": 56, "velocity": 116, "channel": 0}, {"type": "note_off", "time": 104, "note": 56, "velocity": 116, "channel": 0}, {"type": "note_on", "time": 14, "note": 57, "velocity": 114, "channel": 0}, {"type": "note_off", "time": 119, "note": 57, "velocity": 114, "channel": 0}, {"type": "note_on", "time": 8, "note": 56, "velocity": 112, "channel": 0}, {"type": "note_off", "time": 126, "note": 56, "velocity": 112, "channel": 0}, {"type": "note_on", "time": 0, "note": 54, "velocity": 107, "channel": 0}, {"type": "note_off", "time": 66, "note": 54, "velocity": 107, "channel": 0}, {"type": "note_on", "time": 9, "note": 56, "velocity": 109, "channel": 0}, {"type": "note_off", "time": 182, "note": 56, "velocity": 109, "channel": 0}, {"type": "note_on", "time": 8, "note": 54, "velocity": 104, "channel": 0}, {"type": "note_off", "time": 132, "note": 54, "velocity": 104, "channel": 0}, {"type": "note_on", "time": 27, "note": 56, "velocity": 114, "channel": 0}, {"type": "note_off", "time": 115, "note": 56, "velocity": 114, "channel": 0}, {"type": "note_on", "time": 10, "note": 57, "velocity": 110, "channel": 0}, {"type": "note_off", "time": 95, "note": 57, "velocity": 110, "channel": 0}, {"type": "note_on", "time": 10, "note": 56, "velocity": 111, "channel": 0}, {"type": "note_off", "time": 111, "note": 56, "velocity": 111, "channel": 0}, {"type": "note_on", "time": 0, "note": 54, "velocity": 103, "channel": 0}, {"type": "note_off", "time": 64, "note": 54, "velocity": 103, "channel": 0}, {"type": "note_on", "time": 0, "note": 56, "velocity": 107, "channel": 0}, {"type": "note_off", "time": 215, "note": 56, "velocity": 107, "channel": 0}, {"type": "note_on", "time": 0, "note": 54, "velocity": 113, "channel": 0}, {"type": "note_off", "time": 126, "note": 54, "velocity": 113, "channel": 0}, {"type": "note_on", "time": 9, "note": 57, "velocity": 113, "channel": 0}, {"type": "note_off", "time": 63, "note": 57, "velocity": 113, "channel": 0}, {"type": "note_on", "time": 10, "note": 58, "velocity": 109, "channel": 0}, {"type": "note_off", "time": 67, "note": 58, "velocity": 109, "channel": 0}, {"type": "note_on", "time": 23, "note": 61, "velocity": 110, "channel": 0}, {"type": "note_off", "time": 88, "note": 61, "velocity": 110, "channel": 0}, {"type": "note_on", "time": 6, "note": 63, "velocity": 114, "channel": 0}, {"type": "note_off", "time": 183, "note": 63, "velocity": 114, "channel": 0}, {"type": "note_on", "time": 15, "note": 62, "velocity": 107, "channel": 0}, {"type": "note_off", "time": 112, "note": 62, "velocity": 107, "channel": 0}, {"type": "note_on", "time": 1, "note": 61, "velocity": 105, "channel": 0}, {"type": "note_off", "time": 45, "note": 61, "velocity": 105, "channel": 0}, {"type": "note_on", "time": 32, "note": 59, "velocity": 100, "channel": 0}, {"type": "note_off", "time": 76, "note": 59, "velocity": 100, "channel": 0}, {"type": "note_on", "time": 26, "note": 56, "velocity": 104, "channel": 0}, {"type": "note_off", "time": 54, "note": 56, "velocity": 104, "channel": 0}, {"type": "note_on", "time": 21, "note": 59, "velocity": 97, "channel": 0}, {"type": "note_off", "time": 63, "note": 59, "velocity": 97, "channel": 0}, {"type": "note_on", "time": 4, "note": 60, "velocity": 101, "channel": 0}, {"type": "note_off", "time": 81, "note": 60, "velocity": 101, "channel": 0}, {"type": "note_on", "time": 16, "note": 65, "velocity": 95, "channel": 0}, {"type": "note_off", "time": 296, "note": 65, "velocity": 95, "channel": 0}, {"type": "note_on", "time": 290, "note": 58, "velocity": 112, "channel": 0}, {"type": "note_off", "time": 138, "note": 58, "velocity": 112, "channel": 0}, {"type": "note_on", "time": 50, "note": 64, "velocity": 126, "channel": 0}, {"type": "note_off", "time": 286, "note": 64, "velocity": 126, "channel": 0}, {"type": "note_on", "time": 39, "note": 62, "velocity": 110, "channel": 0}, {"type": "note_off", "time": 72, "note": 62, "velocity": 110, "channel": 0}, {"type": "note_on", "time": 11, "note": 63, "velocity": 116, "channel": 0}, {"type": "note_off", "time": 161, "note": 63, "velocity": 116, "channel": 0}, {"type": "note_on", "time": 91, "note": 62, "velocity": 113, "channel": 0}, {"type": "note_off", "time": 89, "note": 62, "velocity": 113, "channel": 0}, {"type": "note_on", "time": 0, "note": 61, "velocity": 107, "channel": 0}, {"type": "note_off", "time": 104, "note": 61, "velocity": 107, "channel": 0}, {"type": "note_on", "time": 3, "note": 60, "velocity": 108, "channel": 0}, {"type": "note_off", "time": 89, "note": 60, "velocity": 108, "channel": 0}, {"type": "note_on", "time": 0, "note": 58, "velocity": 107, "channel": 0}, {"type": "note_off", "time": 64, "note": 58, "velocity": 107, "channel": 0}, {"type": "note_on", "time": 15, "note": 57, "velocity": 108, "channel": 0}, {"type": "note_off", "time": 73, "note": 57, "velocity": 108, "channel": 0}, {"type": "note_on", "time": 14, "note": 48, "velocity": 97, "channel": 0}, {"type": "note_off", "time": 50, "note": 48, "velocity": 97, "channel": 0}, {"type": "note_on", "time": 9, "note": 51, "velocity": 103, "channel": 0}, {"type": "note_off", "time": 85, "note": 51, "velocity": 103, "channel": 0}, {"type": "note_on", "time": 6, "note": 55, "velocity": 109, "channel": 0}, {"type": "note_off", "time": 93, "note": 55, "velocity": 109, "channel": 0}, {"type": "note_on", "time": 0, "note": 53, "velocity": 108, "channel": 0}, {"type": "note_off", "time": 97, "note": 53, "velocity": 108, "channel": 0}, {"type": "note_on", "time": 2, "note": 51, "velocity": 108, "channel": 0}, {"type": "note_off", "time": 84, "note": 51, "velocity": 108, "channel": 0}, {"type": "note_on", "time": 2, "note": 45, "velocity": 104, "channel": 0}, {"type": "note_off", "time": 65, "note": 45, "velocity": 104, "channel": 0}, {"type": "note_on", "time": 2, "note": 48, "velocity": 99, "channel": 0}, {"type": "note_off", "time": 44, "note": 48, "velocity": 99, "channel": 0}, {"type": "note_on", "time": 1, "note": 49, "velocity": 99, "channel": 0}, {"type": "note_off", "time": 96, "note": 49, "velocity": 99, "channel": 0}, {"type": "note_on", "time": 4, "note": 50, "velocity": 100, "channel": 0}, {"type": "note_off", "time": 98, "note": 50, "velocity": 100, "channel": 0}, {"type": "note_on", "time": 69, "note": 59, "velocity": 103, "channel": 0}, {"type": "note_off", "time": 112, "note": 59, "velocity": 103, "channel": 0}, {"type": "note_on", "time": 18, "note": 57, "velocity": 98, "channel": 0}, {"type": "note_off", "time": 56, "note": 57, "velocity": 98, "channel": 0}, {"type": "note_on", "time": 4, "note": 58, "velocity": 98, "channel": 0}, {"type": "note_off", "time": 169, "note": 58, "velocity": 98, "channel": 0}, {"type": "note_on", "time": 420, "note": 68, "velocity": 117, "channel": 0}, {"type": "note_off", "time": 130, "note": 68, "velocity": 117, "channel": 0}, {"type": "note_on", "time": 5, "note": 66, "velocity": 97, "channel": 0}, {"type": "note_off", "time": 75, "note": 66, "velocity": 97, "channel": 0}, {"type": "note_on", "time": 0, "note": 67, "velocity": 102, "channel": 0}, {"type": "note_off", "time": 257, "note": 67, "velocity": 102, "channel": 0}, {"type": "note_on", "time": 319, "note": 77, "velocity": 119, "channel": 0}, {"type": "note_off", "time": 92, "note": 77, "velocity": 119, "channel": 0}, {"type": "note_on", "time": 17, "note": 76, "velocity": 117, "channel": 0}, {"type": "note_off", "time": 105, "note": 76, "velocity": 117, "channel": 0}, {"type": "note_on", "time": 0, "note": 75, "velocity": 102, "channel": 0}, {"type": "note_off", "time": 332, "note": 75, "velocity": 102, "channel": 0}, {"type": "note_on", "time": 231, "note": 72, "velocity": 120, "channel": 0}, {"type": "note_off", "time": 85, "note": 72, "velocity": 120, "channel": 0}, {"type": "note_on", "time": 54, "note": 68, "velocity": 110, "channel": 0}, {"type": "note_off", "time": 128, "note": 68, "velocity": 110, "channel": 0}, {"type": "note_on", "time": 31, "note": 66, "velocity": 109, "channel": 0}, {"type": "note_off", "time": 205, "note": 66, "velocity": 109, "channel": 0}, {"type": "note_on", "time": 289, "note": 62, "velocity": 99, "channel": 0}, {"type": "note_off", "time": 117, "note": 62, "velocity": 99, "channel": 0}, {"type": "note_on", "time": 5, "note": 67, "velocity": 110, "channel": 0}, {"type": "note_off", "time": 59, "note": 67, "velocity": 110, "channel": 0}, {"type": "note_on", "time": 64, "note": 70, "velocity": 120, "channel": 0}, {"type": "note_off", "time": 110, "note": 70, "velocity": 120, "channel": 0}, {"type": "note_on", "time": 47, "note": 68, "velocity": 114, "channel": 0}, {"type": "note_off", "time": 105, "note": 68, "velocity": 114, "channel": 0}, {"type": "note_on", "time": 21, "note": 66, "velocity": 90, "channel": 0}, {"type": "note_off", "time": 48, "note": 66, "velocity": 90, "channel": 0}, {"type": "note_on", "time": 9, "note": 67, "velocity": 102, "channel": 0}, {"type": "note_off", "time": 109, "note": 67, "velocity": 102, "channel": 0}, {"type": "note_on", "time": 32, "note": 65, "velocity": 100, "channel": 0}, {"type": "note_off", "time": 73, "note": 65, "velocity": 100, "channel": 0}, {"type": "note_on", "time": 6, "note": 64, "velocity": 102, "channel": 0}, {"type": "note_off", "time": 99, "note": 64, "velocity": 102, "channel": 0}, {"type": "note_on", "time": 0, "note": 67, "velocity": 108, "channel": 0}, {"type": "note_off", "time": 62, "note": 67, "velocity": 108, "channel": 0}, {"type": "note_on", "time": 38, "note": 65, "velocity": 106, "channel": 0}, {"type": "note_off", "time": 74, "note": 65, "velocity": 106, "channel": 0}, {"type": "note_on", "time": 25, "note": 67, "velocity": 97, "channel": 0}, {"type": "note_off", "time": 64, "note": 67, "velocity": 97, "channel": 0}, {"type": "note_on", "time": 3, "note": 68, "velocity": 89, "channel": 0}, {"type": "note_off", "time": 94, "note": 68, "velocity": 89, "channel": 0}, {"type": "note_on", "time": 10, "note": 70, "velocity": 99, "channel": 0}, {"type": "note_off", "time": 79, "note": 70, "velocity": 99, "channel": 0}, {"type": "note_on", "time": 9, "note": 66, "velocity": 100, "channel": 0}, {"type": "note_off", "time": 94, "note": 66, "velocity": 100, "channel": 0}, {"type": "note_on", "time": 12, "note": 58, "velocity": 101, "channel": 0}, {"type": "note_off", "time": 80, "note": 58, "velocity": 101, "channel": 0}, {"type": "note_on", "time": 0, "note": 62, "velocity": 101, "channel": 0}, {"type": "note_off", "time": 130, "note": 62, "velocity": 101, "channel": 0}, {"type": "note_on", "time": 0, "note": 63, "velocity": 116, "channel": 0}, {"type": "note_off", "time": 64, "note": 63, "velocity": 116, "channel": 0}, {"type": "note_on", "time": 117, "note": 67, "velocity": 108, "channel": 0}, {"type": "note_on", "time": 63, "note": 66, "velocity": 108, "channel": 0}, {"type": "note_off", "time": 0, "note": 67, "velocity": 108, "channel": 0}, {"type": "note_off", "time": 59, "note": 66, "velocity": 108, "channel": 0}, {"type": "note_on", "time": 2, "note": 65, "velocity": 105, "channel": 0}, {"type": "note_off", "time": 76, "note": 65, "velocity": 105, "channel": 0}, {"type": "note_on", "time": 1, "note": 64, "velocity": 109, "channel": 0}, {"type": "note_off", "time": 69, "note": 64, "velocity": 109, "channel": 0}, {"type": "note_on", "time": 2, "note": 63, "velocity": 111, "channel": 0}, {"type": "note_off", "time": 100, "note": 63, "velocity": 111, "channel": 0}, {"type": "note_on", "time": 1, "note": 62, "velocity": 108, "channel": 0}, {"type": "note_off", "time": 79, "note": 62, "velocity": 108, "channel": 0}, {"type": "note_on", "time": 7, "note": 61, "velocity": 106, "channel": 0}, {"type": "note_off", "time": 96, "note": 61, "velocity": 106, "channel": 0}, {"type": "note_on", "time": 0, "note": 53, "velocity": 104, "channel": 0}, {"type": "note_off", "time": 91, "note": 53, "velocity": 104, "channel": 0}, {"type": "note_on", "time": 2, "note": 57, "velocity": 102, "channel": 0}, {"type": "note_off", "time": 80, "note": 57, "velocity": 102, "channel": 0}, {"type": "note_on", "time": 3, "note": 60, "velocity": 107, "channel": 0}, {"type": "note_off", "time": 96, "note": 60, "velocity": 107, "channel": 0}, {"type": "note_on", "time": 8, "note": 59, "velocity": 101, "channel": 0}, {"type": "note_off", "time": 92, "note": 59, "velocity": 101, "channel": 0}, {"type": "note_on", "time": 5, "note": 57, "velocity": 82, "channel": 0}, {"type": "note_off", "time": 72, "note": 57, "velocity": 82, "channel": 0}, {"type": "note_on", "time": 7, "note": 58, "velocity": 105, "channel": 0}, {"type": "note_off", "time": 109, "note": 58, "velocity": 105, "channel": 0}, {"type": "note_on", "time": 1, "note": 56, "velocity": 110, "channel": 0}, {"type": "note_off", "time": 92, "note": 56, "velocity": 110, "channel": 0}, {"type": "note_on", "time": 5, "note": 53, "velocity": 110, "channel": 0}, {"type": "note_off", "time": 149, "note": 53, "velocity": 110, "channel": 0}, {"type": "note_on", "time": 8, "note": 54, "velocity": 106, "channel": 0}, {"type": "note_off", "time": 213, "note": 54, "velocity": 106, "channel": 0}, {"type": "note_on", "time": 7, "note": 55, "velocity": 107, "channel": 0}, {"type": "note_off", "time": 197, "note": 55, "velocity": 107, "channel": 0}, {"type": "note_on", "time": 0, "note": 56, "velocity": 111, "channel": 0}, {"type": "note_off", "time": 196, "note": 56, "velocity": 111, "channel": 0}, {"type": "note_on", "time": 0, "note": 57, "velocity": 102, "channel": 0}, {"type": "note_off", "time": 184, "note": 57, "velocity": 102, "channel": 0}, {"type": "note_on", "time": 6, "note": 58, "velocity": 103, "channel": 0}, {"type": "note_off", "time": 178, "note": 58, "velocity": 103, "channel": 0}, {"type": "note_on", "time": 1, "note": 60, "velocity": 109, "channel": 0}, {"type": "note_off", "time": 217, "note": 60, "velocity": 109, "channel": 0}, {"type": "note_on", "time": 0, "note": 61, "velocity": 103, "channel": 0}, {"type": "note_off", "time": 174, "note": 61, "velocity": 103, "channel": 0}, {"type": "note_on", "time": 7, "note": 63, "velocity": 104, "channel": 0}, {"type": "note_off", "time": 120, "note": 63, "velocity": 104, "channel": 0}, {"type": "note_on", "time": 8, "note": 63, "velocity": 104, "channel": 0}, {"type": "note_off", "time": 44, "note": 63, "velocity": 104, "channel": 0}, {"type": "note_on", "time": 8, "note": 65, "velocity": 99, "channel": 0}, {"type": "note_off", "time": 296, "note": 65, "velocity": 99, "channel": 0}, {"type": "note_on", "time": 54, "note": 61, "velocity": 104, "channel": 0}, {"type": "note_off", "time": 86, "note": 61, "velocity": 104, "channel": 0}, {"type": "note_on", "time": 5, "note": 60, "velocity": 99, "channel": 0}, {"type": "note_off", "time": 76, "note": 60, "velocity": 99, "channel": 0}, {"type": "note_on", "time": 11, "note": 58, "velocity": 104, "channel": 0}, {"type": "note_off", "time": 43, "note": 58, "velocity": 104, "channel": 0}, {"type": "note_on", "time": 21, "note": 57, "velocity": 105, "channel": 0}, {"type": "note_off", "time": 116, "note": 57, "velocity": 105, "channel": 0}, {"type": "note_on", "time": 10, "note": 53, "velocity": 104, "channel": 0}, {"type": "note_off", "time": 47, "note": 53, "velocity": 104, "channel": 0}, {"type": "note_on", "time": 13, "note": 56, "velocity": 106, "channel": 0}, {"type": "note_off", "time": 122, "note": 56, "velocity": 106, "channel": 0}, {"type": "note_on", "time": 10, "note": 53, "velocity": 101, "channel": 0}, {"type": "note_off", "time": 67, "note": 53, "velocity": 101, "channel": 0}, {"type": "note_on", "time": 18, "note": 54, "velocity": 106, "channel": 0}, {"type": "note_off", "time": 93, "note": 54, "velocity": 106, "channel": 0}, {"type": "note_on", "time": 3, "note": 55, "velocity": 103, "channel": 0}, {"type": "note_off", "time": 224, "note": 55, "velocity": 103, "channel": 0}, {"type": "note_on", "time": 562, "note": 70, "velocity": 120, "channel": 0}, {"type": "note_off", "time": 198, "note": 70, "velocity": 120, "channel": 0}, {"type": "note_on", "time": 406, "note": 68, "velocity": 115, "channel": 0}, {"type": "note_off", "time": 104, "note": 68, "velocity": 115, "channel": 0}, {"type": "note_on", "time": 12, "note": 66, "velocity": 114, "channel": 0}, {"type": "note_off", "time": 124, "note": 66, "velocity": 114, "channel": 0}, {"type": "note_on", "time": 3, "note": 65, "velocity": 107, "channel": 0}, {"type": "note_off", "time": 132, "note": 65, "velocity": 107, "channel": 0}, {"type": "note_on", "time": 7, "note": 63, "velocity": 102, "channel": 0}, {"type": "note_off", "time": 137, "note": 63, "velocity": 102, "channel": 0}, {"type": "note_on", "time": 5, "note": 65, "velocity": 114, "channel": 0}, {"type": "note_off", "time": 76, "note": 65, "velocity": 114, "channel": 0}, {"type": "note_on", "time": 139, "note": 57, "velocity": 99, "channel": 0}, {"type": "note_off", "time": 198, "note": 57, "velocity": 99, "channel": 0}, {"type": "note_on", "time": 341, "note": 63, "velocity": 118, "channel": 0}, {"type": "note_off", "time": 99, "note": 63, "velocity": 118, "channel": 0}, {"type": "note_on", "time": 7, "note": 62, "velocity": 116, "channel": 0}, {"type": "note_off", "time": 94, "note": 62, "velocity": 116, "channel": 0}, {"type": "note_on", "time": 13, "note": 70, "velocity": 120, "channel": 0}, {"type": "note_off", "time": 126, "note": 70, "velocity": 120, "channel": 0}, {"type": "note_on", "time": 488, "note": 79, "velocity": 116, "channel": 0}, {"type": "note_off", "time": 140, "note": 79, "velocity": 116, "channel": 0}, {"type": "note_on", "time": 242, "note": 72, "velocity": 113, "channel": 0}, {"type": "note_on", "time": 145, "note": 73, "velocity": 117, "channel": 0}, {"type": "note_off", "time": 0, "note": 72, "velocity": 113, "channel": 0}, {"type": "note_off", "time": 152, "note": 73, "velocity": 117, "channel": 0}, {"type": "note_on", "time": 232, "note": 65, "velocity": 113, "channel": 0}, {"type": "note_off", "time": 86, "note": 65, "velocity": 113, "channel": 0}, {"type": "note_on", "time": 17, "note": 69, "velocity": 98, "channel": 0}, {"type": "note_off", "time": 81, "note": 69, "velocity": 98, "channel": 0}, {"type": "note_on", "time": 10, "note": 72, "velocity": 115, "channel": 0}, {"type": "note_off", "time": 95, "note": 72, "velocity": 115, "channel": 0}, {"type": "note_on", "time": 16, "note": 71, "velocity": 120, "channel": 0}, {"type": "note_off", "time": 80, "note": 71, "velocity": 120, "channel": 0}, {"type": "note_on", "time": 21, "note": 64, "velocity": 120, "channel": 0}, {"type": "note_off", "time": 106, "note": 64, "velocity": 120, "channel": 0}, {"type": "note_on", "time": 147, "note": 70, "velocity": 121, "channel": 0}, {"type": "note_off", "time": 141, "note": 70, "velocity": 121, "channel": 0}, {"type": "note_on", "time": 225, "note": 60, "velocity": 111, "channel": 0}, {"type": "note_off", "time": 122, "note": 60, "velocity": 111, "channel": 0}, {"type": "note_on", "time": 18, "note": 68, "velocity": 116, "channel": 0}, {"type": "note_off", "time": 127, "note": 68, "velocity": 116, "channel": 0}, {"type": "note_on", "time": 253, "note": 66, "velocity": 116, "channel": 0}, {"type": "note_off", "time": 63, "note": 66, "velocity": 116, "channel": 0}, {"type": "note_on", "time": 49, "note": 57, "velocity": 110, "channel": 0}, {"type": "note_off", "time": 95, "note": 57, "velocity": 110, "channel": 0}, {"type": "note_on", "time": 6, "note": 58, "velocity": 98, "channel": 0}, {"type": "note_off", "time": 36, "note": 58, "velocity": 98, "channel": 0}, {"type": "note_on", "time": 5, "note": 65, "velocity": 111, "channel": 0}, {"type": "note_off", "time": 139, "note": 65, "velocity": 111, "channel": 0}, {"type": "note_on", "time": 2, "note": 63, "velocity": 122, "channel": 0}, {"type": "note_off", "time": 122, "note": 63, "velocity": 122, "channel": 0}, {"type": "note_on", "time": 58, "note": 54, "velocity": 107, "channel": 0}, {"type": "note_off", "time": 56, "note": 54, "velocity": 107, "channel": 0}, {"type": "note_on", "time": 16, "note": 62, "velocity": 115, "channel": 0}, {"type": "note_off", "time": 176, "note": 62, "velocity": 115, "channel": 0}, {"type": "note_on", "time": 210, "note": 60, "velocity": 111, "channel": 0}, {"type": "note_off", "time": 114, "note": 60, "velocity": 111, "channel": 0}, {"type": "note_on", "time": 21, "note": 59, "velocity": 99, "channel": 0}, {"type": "note_off", "time": 30, "note": 59, "velocity": 99, "channel": 0}, {"type": "note_on", "time": 81, "note": 60, "velocity": 104, "channel": 0}, {"type": "note_off", "time": 80, "note": 60, "velocity": 104, "channel": 0}, {"type": "note_on", "time": 12, "note": 58, "velocity": 111, "channel": 0}, {"type": "note_off", "time": 47, "note": 58, "velocity": 111, "channel": 0}, {"type": "note_on", "time": 36, "note": 56, "velocity": 115, "channel": 0}, {"type": "note_off", "time": 88, "note": 56, "velocity": 115, "channel": 0}, {"type": "note_on", "time": 5, "note": 51, "velocity": 106, "channel": 0}, {"type": "note_off", "time": 68, "note": 51, "velocity": 106, "channel": 0}, {"type": "note_on", "time": 37, "note": 48, "velocity": 100, "channel": 0}, {"type": "note_off", "time": 46, "note": 48, "velocity": 100, "channel": 0}, {"type": "note_on", "time": 128, "note": 47, "velocity": 102, "channel": 0}, {"type": "note_off", "time": 84, "note": 47, "velocity": 102, "channel": 0}, {"type": "note_on", "time": 3, "note": 55, "velocity": 109, "channel": 0}, {"type": "note_off", "time": 82, "note": 55, "velocity": 109, "channel": 0}, {"type": "note_on", "time": 139, "note": 53, "velocity": 113, "channel": 0}, {"type": "note_off", "time": 87, "note": 53, "velocity": 113, "channel": 0}, {"type": "note_on", "time": 17, "note": 51, "velocity": 104, "channel": 0}, {"type": "note_off", "time": 95, "note": 51, "velocity": 104, "channel": 0}, {"type": "note_on", "time": 2, "note": 53, "velocity": 98, "channel": 0}, {"type": "note_off", "time": 26, "note": 53, "velocity": 98, "channel": 0}, {"type": "note_on", "time": 23, "note": 55, "velocity": 110, "channel": 0}, {"type": "note_off", "time": 119, "note": 55, "velocity": 110, "channel": 0}, {"type": "note_on", "time": 5, "note": 58, "velocity": 112, "channel": 0}, {"type": "note_off", "time": 52, "note": 58, "velocity": 112, "channel": 0}, {"type": "note_on", "time": 58, "note": 52, "velocity": 103, "channel": 0}, {"type": "note_off", "time": 48, "note": 52, "velocity": 103, "channel": 0}, {"type": "note_on", "time": 32, "note": 54, "velocity": 96, "channel": 0}, {"type": "note_off", "time": 41, "note": 54, "velocity": 96, "channel": 0}, {"type": "note_on", "time": 36, "note": 56, "velocity": 108, "channel": 0}, {"type": "note_off", "time": 144, "note": 56, "velocity": 108, "channel": 0}, {"type": "note_on", "time": 36, "note": 64, "velocity": 120, "channel": 0}, {"type": "note_off", "time": 116, "note": 64, "velocity": 120, "channel": 0}, {"type": "note_on", "time": 5, "note": 61, "velocity": 104, "channel": 0}, {"type": "note_off", "time": 68, "note": 61, "velocity": 104, "channel": 0}, {"type": "note_on", "time": 34, "note": 59, "velocity": 101, "channel": 0}, {"type": "note_off", "time": 69, "note": 59, "velocity": 101, "channel": 0}, {"type": "note_on", "time": 11, "note": 57, "velocity": 105, "channel": 0}, {"type": "note_off", "time": 66, "note": 57, "velocity": 105, "channel": 0}, {"type": "note_on", "time": 3, "note": 56, "velocity": 109, "channel": 0}, {"type": "note_off", "time": 105, "note": 56, "velocity": 109, "channel": 0}, {"type": "note_on", "time": 9, "note": 58, "velocity": 112, "channel": 0}, {"type": "note_off", "time": 138, "note": 58, "velocity": 112, "channel": 0}, {"type": "note_on", "time": 5, "note": 59, "velocity": 103, "channel": 0}, {"type": "note_off", "time": 42, "note": 59, "velocity": 103, "channel": 0}, {"type": "note_on", "time": 11, "note": 61, "velocity": 100, "channel": 0}, {"type": "note_off", "time": 168, "note": 61, "velocity": 100, "channel": 0}, {"type": "note_on", "time": 8, "note": 63, "velocity": 113, "channel": 0}, {"type": "note_off", "time": 107, "note": 63, "velocity": 113, "channel": 0}, {"type": "note_on", "time": 0, "note": 60, "velocity": 111, "channel": 0}, {"type": "note_off", "time": 125, "note": 60, "velocity": 111, "channel": 0}, {"type": "note_on", "time": 0, "note": 61, "velocity": 87, "channel": 0}, {"type": "note_off", "time": 26, "note": 61, "velocity": 87, "channel": 0}, {"type": "note_on", "time": 22, "note": 65, "velocity": 99, "channel": 0}, {"type": "note_off", "time": 125, "note": 65, "velocity": 99, "channel": 0}, {"type": "note_on", "time": 61, "note": 72, "velocity": 100, "channel": 0}, {"type": "note_off", "time": 316, "note": 72, "velocity": 100, "channel": 0}, {"type": "note_on", "time": 525, "note": 69, "velocity": 120, "channel": 0}, {"type": "note_off", "time": 56, "note": 69, "velocity": 120, "channel": 0}, {"type": "note_on", "time": 0, "note": 70, "velocity": 113, "channel": 0}, {"type": "note_off", "time": 93, "note": 70, "velocity": 113, "channel": 0}, {"type": "note_on", "time": 8, "note": 72, "velocity": 119, "channel": 0}, {"type": "note_off", "time": 78, "note": 72, "velocity": 119, "channel": 0}, {"type": "note_on", "time": 1, "note": 73, "velocity": 102, "channel": 0}, {"type": "note_off", "time": 67, "note": 73, "velocity": 102, "channel": 0}, {"type": "note_on", "time": 53, "note": 65, "velocity": 106, "channel": 0}, {"type": "note_off", "time": 33, "note": 65, "velocity": 106, "channel": 0}, {"type": "note_on", "time": 3, "note": 69, "velocity": 104, "channel": 0}, {"type": "note_off", "time": 80, "note": 69, "velocity": 104, "channel": 0}, {"type": "note_on", "time": 0, "note": 72, "velocity": 117, "channel": 0}, {"type": "note_off", "time": 79, "note": 72, "velocity": 117, "channel": 0}, {"type": "note_on", "time": 2, "note": 71, "velocity": 119, "channel": 0}, {"type": "note_off", "time": 53, "note": 71, "velocity": 119, "channel": 0}, {"type": "note_on", "time": 20, "note": 69, "velocity": 102, "channel": 0}, {"type": "note_off", "time": 55, "note": 69, "velocity": 102, "channel": 0}, {"type": "note_on", "time": 30, "note": 70, "velocity": 118, "channel": 0}, {"type": "note_off", "time": 74, "note": 70, "velocity": 118, "channel": 0}, {"type": "note_on", "time": 2, "note": 68, "velocity": 105, "channel": 0}, {"type": "note_off", "time": 77, "note": 68, "velocity": 105, "channel": 0}, {"type": "note_on", "time": 1, "note": 65, "velocity": 103, "channel": 0}, {"type": "note_off", "time": 78, "note": 65, "velocity": 103, "channel": 0}, {"type": "note_on", "time": 3, "note": 66, "velocity": 104, "channel": 0}, {"type": "note_off", "time": 75, "note": 66, "velocity": 104, "channel": 0}, {"type": "note_on", "time": 2, "note": 67, "velocity": 112, "channel": 0}, {"type": "note_off", "time": 58, "note": 67, "velocity": 112, "channel": 0}, {"type": "note_on", "time": 47, "note": 63, "velocity": 93, "channel": 0}, {"type": "note_off", "time": 57, "note": 63, "velocity": 93, "channel": 0}, {"type": "note_on", "time": 12, "note": 65, "velocity": 111, "channel": 0}, {"type": "note_off", "time": 74, "note": 65, "velocity": 111, "channel": 0}, {"type": "note_on", "time": 2, "note": 61, "velocity": 117, "channel": 0}, {"type": "note_off", "time": 126, "note": 61, "velocity": 117, "channel": 0}, {"type": "note_on", "time": 2, "note": 60, "velocity": 116, "channel": 0}, {"type": "note_off", "time": 72, "note": 60, "velocity": 116, "channel": 0}, {"type": "note_on", "time": 4, "note": 59, "velocity": 107, "channel": 0}, {"type": "note_off", "time": 53, "note": 59, "velocity": 107, "channel": 0}, {"type": "note_on", "time": 4, "note": 58, "velocity": 104, "channel": 0}, {"type": "note_off", "time": 76, "note": 58, "velocity": 104, "channel": 0}, {"type": "note_on", "time": 76, "note": 57, "velocity": 110, "channel": 0}, {"type": "note_off", "time": 106, "note": 57, "velocity": 110, "channel": 0}, {"type": "note_on", "time": 0, "note": 55, "velocity": 106, "channel": 0}, {"type": "note_off", "time": 49, "note": 55, "velocity": 106, "channel": 0}, {"type": "note_on", "time": 55, "note": 56, "velocity": 113, "channel": 0}, {"type": "note_off", "time": 77, "note": 56, "velocity": 113, "channel": 0}, {"type": "note_on", "time": 0, "note": 53, "velocity": 107, "channel": 0}, {"type": "note_off", "time": 68, "note": 53, "velocity": 107, "channel": 0}, {"type": "note_on", "time": 16, "note": 54, "velocity": 108, "channel": 0}, {"type": "note_off", "time": 74, "note": 54, "velocity": 108, "channel": 0}, {"type": "note_on", "time": 16, "note": 58, "velocity": 112, "channel": 0}, {"type": "note_off", "time": 76, "note": 58, "velocity": 112, "channel": 0}, {"type": "note_on", "time": 35, "note": 61, "velocity": 111, "channel": 0}, {"type": "note_off", "time": 78, "note": 61, "velocity": 111, "channel": 0}, {"type": "note_on", "time": 0, "note": 63, "velocity": 119, "channel": 0}, {"type": "note_off", "time": 81, "note": 63, "velocity": 119, "channel": 0}, {"type": "note_on", "time": 11, "note": 64, "velocity": 118, "channel": 0}, {"type": "note_off", "time": 120, "note": 64, "velocity": 118, "channel": 0}, {"type": "note_on", "time": 39, "note": 75, "velocity": 114, "channel": 0}, {"type": "note_off", "time": 173, "note": 75, "velocity": 114, "channel": 0}, {"type": "note_on", "time": 50, "note": 62, "velocity": 113, "channel": 0}, {"type": "note_on", "time": 87, "note": 63, "velocity": 112, "channel": 0}, {"type": "note_off", "time": 0, "note": 62, "velocity": 113, "channel": 0}, {"type": "note_off", "time": 82, "note": 63, "velocity": 112, "channel": 0}, {"type": "note_on", "time": 47, "note": 74, "velocity": 117, "channel": 0}, {"type": "note_off", "time": 117, "note": 74, "velocity": 117, "channel": 0}, {"type": "note_on", "time": 0, "note": 72, "velocity": 109, "channel": 0}, {"type": "note_off", "time": 84, "note": 72, "velocity": 109, "channel": 0}, {"type": "note_on", "time": 5, "note": 70, "velocity": 111, "channel": 0}, {"type": "note_off", "time": 127, "note": 70, "velocity": 111, "channel": 0}, {"type": "note_on", "time": 36, "note": 69, "velocity": 105, "channel": 0}, {"type": "note_off", "time": 124, "note": 69, "velocity": 105, "channel": 0}, {"type": "note_on", "time": 94, "note": 63, "velocity": 111, "channel": 0}, {"type": "note_off", "time": 87, "note": 63, "velocity": 111, "channel": 0}, {"type": "note_on", "time": 5, "note": 60, "velocity": 111, "channel": 0}, {"type": "note_off", "time": 67, "note": 60, "velocity": 111, "channel": 0}, {"type": "note_on", "time": 26, "note": 56, "velocity": 98, "channel": 0}, {"type": "note_off", "time": 86, "note": 56, "velocity": 98, "channel": 0}, {"type": "note_on", "time": 22, "note": 53, "velocity": 98, "channel": 0}, {"type": "note_off", "time": 45, "note": 53, "velocity": 98, "channel": 0}, {"type": "note_on", "time": 13, "note": 61, "velocity": 108, "channel": 0}, {"type": "note_off", "time": 53, "note": 61, "velocity": 108, "channel": 0}, {"type": "note_on", "time": 0, "note": 62, "velocity": 106, "channel": 0}, {"type": "note_off", "time": 82, "note": 62, "velocity": 106, "channel": 0}, {"type": "note_on", "time": 796, "note": 63, "velocity": 120, "channel": 0}, {"type": "note_off", "time": 92, "note": 63, "velocity": 120, "channel": 0}, {"type": "note_on", "time": 114, "note": 65, "velocity": 117, "channel": 0}, {"type": "note_off", "time": 76, "note": 65, "velocity": 117, "channel": 0}, {"type": "note_on", "time": 7, "note": 66, "velocity": 102, "channel": 0}, {"type": "note_off", "time": 48, "note": 66, "velocity": 102, "channel": 0}, {"type": "note_on", "time": 17, "note": 63, "velocity": 120, "channel": 0}, {"type": "note_off", "time": 68, "note": 63, "velocity": 120, "channel": 0}, {"type": "note_on", "time": 105, "note": 63, "velocity": 119, "channel": 0}, {"type": "note_off", "time": 141, "note": 63, "velocity": 119, "channel": 0}, {"type": "note_on", "time": 307, "note": 70, "velocity": 123, "channel": 0}, {"type": "note_off", "time": 73, "note": 70, "velocity": 123, "channel": 0}, {"type": "note_on", "time": 4, "note": 68, "velocity": 97, "channel": 0}, {"type": "note_off", "time": 53, "note": 68, "velocity": 97, "channel": 0}, {"type": "note_on", "time": 60, "note": 63, "velocity": 118, "channel": 0}, {"type": "note_off", "time": 248, "note": 63, "velocity": 118, "channel": 0}, {"type": "note_on", "time": 299, "note": 72, "velocity": 122, "channel": 0}, {"type": "note_off", "time": 131, "note": 72, "velocity": 122, "channel": 0}, {"type": "note_on", "time": 31, "note": 63, "velocity": 122, "channel": 0}, {"type": "note_off", "time": 105, "note": 63, "velocity": 122, "channel": 0}, {"type": "note_on", "time": 89, "note": 63, "velocity": 10, "channel": 0}, {"type": "note_off", "time": 201, "note": 63, "velocity": 10, "channel": 0}, {"type": "note_on", "time": 291, "note": 74, "velocity": 118, "channel": 0}, {"type": "note_off", "time": 72, "note": 74, "velocity": 118, "channel": 0}, {"type": "note_on", "time": 0, "note": 75, "velocity": 116, "channel": 0}, {"type": "note_off", "time": 82, "note": 75, "velocity": 116, "channel": 0}, {"type": "note_on", "time": 15, "note": 72, "velocity": 117, "channel": 0}, {"type": "note_off", "time": 74, "note": 72, "velocity": 117, "channel": 0}, {"type": "note_on", "time": 8, "note": 74, "velocity": 111, "channel": 0}, {"type": "note_off", "time": 73, "note": 74, "velocity": 111, "channel": 0}, {"type": "note_on", "time": 33, "note": 70, "velocity": 117, "channel": 0}, {"type": "note_off", "time": 82, "note": 70, "velocity": 117, "channel": 0}, {"type": "note_on", "time": 17, "note": 67, "velocity": 101, "channel": 0}, {"type": "note_off", "time": 182, "note": 67, "velocity": 101, "channel": 0}, {"type": "note_on", "time": 10, "note": 65, "velocity": 110, "channel": 0}, {"type": "note_off", "time": 73, "note": 65, "velocity": 110, "channel": 0}, {"type": "note_on", "time": 31, "note": 64, "velocity": 117, "channel": 0}, {"type": "note_off", "time": 73, "note": 64, "velocity": 117, "channel": 0}, {"type": "note_on", "time": 19, "note": 61, "velocity": 110, "channel": 0}, {"type": "note_off", "time": 83, "note": 61, "velocity": 110, "channel": 0}, {"type": "note_on", "time": 5, "note": 60, "velocity": 107, "channel": 0}, {"type": "note_off", "time": 94, "note": 60, "velocity": 107, "channel": 0}, {"type": "note_on", "time": 1, "note": 58, "velocity": 107, "channel": 0}, {"type": "note_off", "time": 68, "note": 58, "velocity": 107, "channel": 0}, {"type": "note_on", "time": 36, "note": 55, "velocity": 105, "channel": 0}, {"type": "note_off", "time": 78, "note": 55, "velocity": 105, "channel": 0}, {"type": "note_on", "time": 5, "note": 56, "velocity": 113, "channel": 0}, {"type": "note_off", "time": 65, "note": 56, "velocity": 113, "channel": 0}, {"type": "note_on", "time": 1, "note": 60, "velocity": 105, "channel": 0}, {"type": "note_off", "time": 61, "note": 60, "velocity": 105, "channel": 0}, {"type": "note_on", "time": 16, "note": 63, "velocity": 92, "channel": 0}, {"type": "note_off", "time": 23, "note": 63, "velocity": 92, "channel": 0}, {"type": "note_on", "time": 31, "note": 67, "velocity": 89, "channel": 0}, {"type": "note_off", "time": 37, "note": 67, "velocity": 89, "channel": 0}, {"type": "note_on", "time": 46, "note": 70, "velocity": 118, "channel": 0}, {"type": "note_off", "time": 102, "note": 70, "velocity": 118, "channel": 0}, {"type": "note_on", "time": 0, "note": 66, "velocity": 108, "channel": 0}, {"type": "note_off", "time": 66, "note": 66, "velocity": 108, "channel": 0}, {"type": "note_on", "time": 36, "note": 62, "velocity": 108, "channel": 0}, {"type": "note_off", "time": 82, "note": 62, "velocity": 108, "channel": 0}, {"type": "note_on", "time": 4, "note": 59, "velocity": 106, "channel": 0}, {"type": "note_off", "time": 77, "note": 59, "velocity": 106, "channel": 0}, {"type": "note_on", "time": 5, "note": 58, "velocity": 106, "channel": 0}, {"type": "note_off", "time": 70, "note": 58, "velocity": 106, "channel": 0}, {"type": "note_on", "time": 35, "note": 68, "velocity": 104, "channel": 0}, {"type": "note_off", "time": 259, "note": 68, "velocity": 104, "channel": 0}, {"type": "note_on", "time": 9, "note": 67, "velocity": 101, "channel": 0}, {"type": "note_off", "time": 67, "note": 67, "velocity": 101, "channel": 0}, {"type": "note_on", "time": 6, "note": 68, "velocity": 99, "channel": 0}, {"type": "note_off", "time": 83, "note": 68, "velocity": 99, "channel": 0}, {"type": "note_on", "time": 40, "note": 69, "velocity": 89, "channel": 0}, {"type": "note_off", "time": 91, "note": 69, "velocity": 89, "channel": 0}, {"type": "note_on", "time": 2, "note": 70, "velocity": 104, "channel": 0}, {"type": "note_off", "time": 198, "note": 70, "velocity": 104, "channel": 0}, {"type": "note_on", "time": 291, "note": 70, "velocity": 118, "channel": 0}, {"type": "note_off", "time": 98, "note": 70, "velocity": 118, "channel": 0}, {"type": "note_on", "time": 0, "note": 69, "velocity": 113, "channel": 0}, {"type": "note_off", "time": 86, "note": 69, "velocity": 113, "channel": 0}, {"type": "note_on", "time": 2, "note": 68, "velocity": 109, "channel": 0}, {"type": "note_off", "time": 65, "note": 68, "velocity": 109, "channel": 0}, {"type": "note_on", "time": 5, "note": 73, "velocity": 106, "channel": 0}, {"type": "note_off", "time": 117, "note": 73, "velocity": 106, "channel": 0}, {"type": "note_on", "time": 1, "note": 66, "velocity": 99, "channel": 0}, {"type": "note_off", "time": 92, "note": 66, "velocity": 99, "channel": 0}, {"type": "note_on", "time": 22, "note": 69, "velocity": 91, "channel": 0}, {"type": "note_off", "time": 48, "note": 69, "velocity": 91, "channel": 0}, {"type": "note_on", "time": 14, "note": 72, "velocity": 111, "channel": 0}, {"type": "note_off", "time": 105, "note": 72, "velocity": 111, "channel": 0}, {"type": "note_on", "time": 10, "note": 69, "velocity": 88, "channel": 0}, {"type": "note_off", "time": 57, "note": 69, "velocity": 88, "channel": 0}, {"type": "note_on", "time": 0, "note": 71, "velocity": 116, "channel": 0}, {"type": "note_off", "time": 118, "note": 71, "velocity": 116, "channel": 0}, {"type": "note_on", "time": 93, "note": 67, "velocity": 101, "channel": 0}, {"type": "note_off", "time": 75, "note": 67, "velocity": 101, "channel": 0}, {"type": "note_on", "time": 26, "note": 70, "velocity": 114, "channel": 0}, {"type": "note_off", "time": 85, "note": 70, "velocity": 114, "channel": 0}, {"type": "note_on", "time": 0, "note": 64, "velocity": 116, "channel": 0}, {"type": "note_off", "time": 108, "note": 64, "velocity": 116, "channel": 0}, {"type": "note_on", "time": 11, "note": 68, "velocity": 107, "channel": 0}, {"type": "note_off", "time": 63, "note": 68, "velocity": 107, "channel": 0}, {"type": "note_on", "time": 24, "note": 66, "velocity": 100, "channel": 0}, {"type": "note_off", "time": 96, "note": 66, "velocity": 100, "channel": 0}, {"type": "note_on", "time": 4, "note": 62, "velocity": 101, "channel": 0}, {"type": "note_off", "time": 73, "note": 62, "velocity": 101, "channel": 0}, {"type": "note_on", "time": 38, "note": 66, "velocity": 104, "channel": 0}, {"type": "note_off", "time": 55, "note": 66, "velocity": 104, "channel": 0}, {"type": "note_on", "time": 9, "note": 64, "velocity": 95, "channel": 0}, {"type": "note_off", "time": 23, "note": 64, "velocity": 95, "channel": 0}, {"type": "note_on", "time": 15, "note": 62, "velocity": 111, "channel": 0}, {"type": "note_off", "time": 30, "note": 62, "velocity": 111, "channel": 0}, {"type": "note_on", "time": 37, "note": 59, "velocity": 103, "channel": 0}, {"type": "note_off", "time": 87, "note": 59, "velocity": 103, "channel": 0}, {"type": "note_on", "time": 30, "note": 57, "velocity": 108, "channel": 0}, {"type": "note_off", "time": 102, "note": 57, "velocity": 108, "channel": 0}, {"type": "note_on", "time": 1, "note": 59, "velocity": 98, "channel": 0}, {"type": "note_off", "time": 31, "note": 59, "velocity": 98, "channel": 0}, {"type": "note_on", "time": 20, "note": 61, "velocity": 112, "channel": 0}, {"type": "note_off", "time": 63, "note": 61, "velocity": 112, "channel": 0}, {"type": "note_on", "time": 5, "note": 57, "velocity": 107, "channel": 0}, {"type": "note_on", "time": 131, "note": 58, "velocity": 107, "channel": 0}, {"type": "note_off", "time": 0, "note": 57, "velocity": 107, "channel": 0}, {"type": "note_off", "time": 85, "note": 58, "velocity": 107, "channel": 0}, {"type": "note_on", "time": 111, "note": 53, "velocity": 113, "channel": 0}, {"type": "note_off", "time": 50, "note": 53, "velocity": 113, "channel": 0}, {"type": "note_on", "time": 4, "note": 56, "velocity": 111, "channel": 0}, {"type": "note_off", "time": 104, "note": 56, "velocity": 111, "channel": 0}, {"type": "note_on", "time": 5, "note": 58, "velocity": 109, "channel": 0}, {"type": "note_off", "time": 65, "note": 58, "velocity": 109, "channel": 0}, {"type": "note_on", "time": 10, "note": 55, "velocity": 111, "channel": 0}, {"type": "note_off", "time": 122, "note": 55, "velocity": 111, "channel": 0}, {"type": "note_on", "time": 11, "note": 51, "velocity": 110, "channel": 0}, {"type": "note_off", "time": 53, "note": 51, "velocity": 110, "channel": 0}, {"type": "note_on", "time": 1, "note": 49, "velocity": 104, "channel": 0}, {"type": "note_off", "time": 101, "note": 49, "velocity": 104, "channel": 0}, {"type": "note_on", "time": 8, "note": 46, "velocity": 118, "channel": 0}, {"type": "note_off", "time": 81, "note": 46, "velocity": 118, "channel": 0}, {"type": "note_on", "time": 2, "note": 45, "velocity": 112, "channel": 0}, {"type": "note_off", "time": 169, "note": 45, "velocity": 112, "channel": 0}, {"type": "note_on", "time": 0, "note": 59, "velocity": 106, "channel": 0}, {"type": "note_off", "time": 94, "note": 59, "velocity": 106, "channel": 0}, {"type": "note_on", "time": 48, "note": 51, "velocity": 111, "channel": 0}, {"type": "note_off", "time": 199, "note": 51, "velocity": 111, "channel": 0}, {"type": "note_on", "time": 302, "note": 54, "velocity": 106, "channel": 0}, {"type": "note_off", "time": 79, "note": 54, "velocity": 106, "channel": 0}, {"type": "note_on", "time": 6, "note": 57, "velocity": 101, "channel": 0}, {"type": "note_off", "time": 36, "note": 57, "velocity": 101, "channel": 0}, {"type": "note_on", "time": 2, "note": 61, "velocity": 107, "channel": 0}, {"type": "note_off", "time": 54, "note": 61, "velocity": 107, "channel": 0}, {"type": "note_on", "time": 0, "note": 65, "velocity": 116, "channel": 0}, {"type": "note_off", "time": 70, "note": 65, "velocity": 116, "channel": 0}, {"type": "note_on", "time": 2, "note": 64, "velocity": 116, "channel": 0}, {"type": "note_off", "time": 57, "note": 64, "velocity": 116, "channel": 0}, {"type": "note_on", "time": 0, "note": 63, "velocity": 114, "channel": 0}, {"type": "note_off", "time": 56, "note": 63, "velocity": 114, "channel": 0}, {"type": "note_on", "time": 15, "note": 61, "velocity": 111, "channel": 0}, {"type": "note_off", "time": 39, "note": 61, "velocity": 111, "channel": 0}, {"type": "note_on", "time": 1, "note": 60, "velocity": 109, "channel": 0}, {"type": "note_off", "time": 54, "note": 60, "velocity": 109, "channel": 0}, {"type": "note_on", "time": 2, "note": 58, "velocity": 110, "channel": 0}, {"type": "note_off", "time": 35, "note": 58, "velocity": 110, "channel": 0}, {"type": "note_on", "time": 24, "note": 56, "velocity": 109, "channel": 0}, {"type": "note_off", "time": 60, "note": 56, "velocity": 109, "channel": 0}, {"type": "note_on", "time": 4, "note": 55, "velocity": 113, "channel": 0}, {"type": "note_off", "time": 52, "note": 55, "velocity": 113, "channel": 0}, {"type": "note_on", "time": 6, "note": 54, "velocity": 113, "channel": 0}, {"type": "note_off", "time": 60, "note": 54, "velocity": 113, "channel": 0}, {"type": "note_on", "time": 1, "note": 53, "velocity": 116, "channel": 0}, {"type": "note_off", "time": 35, "note": 53, "velocity": 116, "channel": 0}, {"type": "note_on", "time": 4, "note": 52, "velocity": 106, "channel": 0}, {"type": "note_off", "time": 50, "note": 52, "velocity": 106, "channel": 0}, {"type": "note_on", "time": 22, "note": 50, "velocity": 103, "channel": 0}, {"type": "note_off", "time": 69, "note": 50, "velocity": 103, "channel": 0}, {"type": "note_on", "time": 2, "note": 51, "velocity": 108, "channel": 0}, {"type": "note_off", "time": 60, "note": 51, "velocity": 108, "channel": 0}, {"type": "note_on", "time": 8, "note": 49, "velocity": 104, "channel": 0}, {"type": "note_off", "time": 52, "note": 49, "velocity": 104, "channel": 0}, {"type": "note_on", "time": 0, "note": 48, "velocity": 108, "channel": 0}, {"type": "note_off", "time": 43, "note": 48, "velocity": 108, "channel": 0}, {"type": "note_on", "time": 5, "note": 46, "velocity": 116, "channel": 0}, {"type": "note_off", "time": 49, "note": 46, "velocity": 116, "channel": 0}, {"type": "note_on", "time": 4, "note": 45, "velocity": 112, "channel": 0}, {"type": "note_off", "time": 57, "note": 45, "velocity": 112, "channel": 0}, {"type": "note_on", "time": 5, "note": 55, "velocity": 107, "channel": 0}, {"type": "note_on", "time": 66, "note": 51, "velocity": 103, "channel": 0}, {"type": "note_off", "time": 0, "note": 55, "velocity": 107, "channel": 0}, {"type": "note_off", "time": 27, "note": 51, "velocity": 103, "channel": 0}, {"type": "note_on", "time": 6, "note": 49, "velocity": 104, "channel": 0}, {"type": "note_off", "time": 31, "note": 49, "velocity": 104, "channel": 0}, {"type": "note_on", "time": 47, "note": 53, "velocity": 110, "channel": 0}, {"type": "note_off", "time": 74, "note": 53, "velocity": 110, "channel": 0}, {"type": "note_on", "time": 3, "note": 52, "velocity": 99, "channel": 0}, {"type": "note_off", "time": 31, "note": 52, "velocity": 99, "channel": 0}, {"type": "note_on", "time": 2, "note": 51, "velocity": 104, "channel": 0}, {"type": "note_off", "time": 75, "note": 51, "velocity": 104, "channel": 0}, {"type": "note_on", "time": 0, "note": 53, "velocity": 110, "channel": 0}, {"type": "note_off", "time": 68, "note": 53, "velocity": 110, "channel": 0}, {"type": "note_on", "time": 0, "note": 51, "velocity": 105, "channel": 0}, {"type": "note_off", "time": 27, "note": 51, "velocity": 105, "channel": 0}, {"type": "note_on", "time": 35, "note": 53, "velocity": 111, "channel": 0}, {"type": "note_off", "time": 39, "note": 53, "velocity": 111, "channel": 0}, {"type": "note_on", "time": 0, "note": 56, "velocity": 108, "channel": 0}, {"type": "note_off", "time": 57, "note": 56, "velocity": 108, "channel": 0}, {"type": "note_on", "time": 5, "note": 60, "velocity": 109, "channel": 0}, {"type": "note_off", "time": 41, "note": 60, "velocity": 109, "channel": 0}, {"type": "note_on", "time": 10, "note": 54, "velocity": 111, "channel": 0}, {"type": "note_off", "time": 78, "note": 54, "velocity": 111, "channel": 0}, {"type": "note_on", "time": 0, "note": 55, "velocity": 106, "channel": 0}, {"type": "note_off", "time": 31, "note": 55, "velocity": 106, "channel": 0}, {"type": "note_on", "time": 0, "note": 58, "velocity": 108, "channel": 0}, {"type": "note_off", "time": 74, "note": 58, "velocity": 108, "channel": 0}, {"type": "note_on", "time": 2, "note": 57, "velocity": 107, "channel": 0}, {"type": "note_off", "time": 51, "note": 57, "velocity": 107, "channel": 0}, {"type": "note_on", "time": 4, "note": 56, "velocity": 108, "channel": 0}, {"type": "note_off", "time": 36, "note": 56, "velocity": 108, "channel": 0}, {"type": "note_on", "time": 4, "note": 58, "velocity": 102, "channel": 0}, {"type": "note_off", "time": 38, "note": 58, "velocity": 102, "channel": 0}, {"type": "note_on", "time": 4, "note": 60, "velocity": 103, "channel": 0}, {"type": "note_off", "time": 70, "note": 60, "velocity": 103, "channel": 0}, {"type": "note_on", "time": 10, "note": 66, "velocity": 99, "channel": 0}, {"type": "note_off", "time": 44, "note": 66, "velocity": 99, "channel": 0}, {"type": "note_on", "time": 0, "note": 67, "velocity": 110, "channel": 0}, {"type": "note_on", "time": 37, "note": 70, "velocity": 110, "channel": 0}, {"type": "note_off", "time": 0, "note": 67, "velocity": 110, "channel": 0}, {"type": "note_off", "time": 58, "note": 70, "velocity": 110, "channel": 0}, {"type": "note_on", "time": 13, "note": 65, "velocity": 106, "channel": 0}, {"type": "note_off", "time": 37, "note": 65, "velocity": 106, "channel": 0}, {"type": "note_on", "time": 5, "note": 66, "velocity": 104, "channel": 0}, {"type": "note_off", "time": 53, "note": 66, "velocity": 104, "channel": 0}, {"type": "note_on", "time": 8, "note": 62, "velocity": 101, "channel": 0}, {"type": "note_off", "time": 26, "note": 62, "velocity": 101, "channel": 0}, {"type": "note_on", "time": 3, "note": 59, "velocity": 107, "channel": 0}, {"type": "note_off", "time": 25, "note": 59, "velocity": 107, "channel": 0}, {"type": "note_on", "time": 5, "note": 57, "velocity": 105, "channel": 0}, {"type": "note_off", "time": 47, "note": 57, "velocity": 105, "channel": 0}, {"type": "note_on", "time": 19, "note": 58, "velocity": 97, "channel": 0}, {"type": "note_off", "time": 125, "note": 58, "velocity": 97, "channel": 0}, {"type": "note_on", "time": 358, "note": 54, "velocity": 113, "channel": 0}, {"type": "note_off", "time": 46, "note": 54, "velocity": 113, "channel": 0}, {"type": "note_on", "time": 2, "note": 55, "velocity": 110, "channel": 0}, {"type": "note_off", "time": 63, "note": 55, "velocity": 110, "channel": 0}, {"type": "note_on", "time": 0, "note": 58, "velocity": 105, "channel": 0}, {"type": "note_off", "time": 33, "note": 58, "velocity": 105, "channel": 0}, {"type": "note_on", "time": 0, "note": 61, "velocity": 110, "channel": 0}, {"type": "note_off", "time": 18, "note": 61, "velocity": 110, "channel": 0}, {"type": "note_on", "time": 4, "note": 65, "velocity": 112, "channel": 0}, {"type": "note_off", "time": 84, "note": 65, "velocity": 112, "channel": 0}, {"type": "note_on", "time": 0, "note": 60, "velocity": 112, "channel": 0}, {"type": "note_off", "time": 97, "note": 60, "velocity": 112, "channel": 0}, {"type": "note_on", "time": 5, "note": 63, "velocity": 112, "channel": 0}, {"type": "note_off", "time": 138, "note": 63, "velocity": 112, "channel": 0}, {"type": "note_on", "time": 8, "note": 62, "velocity": 97, "channel": 0}, {"type": "note_off", "time": 53, "note": 62, "velocity": 97, "channel": 0}, {"type": "note_on", "time": 5, "note": 60, "velocity": 99, "channel": 0}, {"type": "note_off", "time": 61, "note": 60, "velocity": 99, "channel": 0}, {"type": "note_on", "time": 19, "note": 61, "velocity": 110, "channel": 0}, {"type": "note_off", "time": 76, "note": 61, "velocity": 110, "channel": 0}, {"type": "note_on", "time": 14, "note": 63, "velocity": 113, "channel": 0}, {"type": "note_off", "time": 61, "note": 63, "velocity": 113, "channel": 0}, {"type": "note_on", "time": 15, "note": 65, "velocity": 91, "channel": 0}, {"type": "note_off", "time": 78, "note": 65, "velocity": 91, "channel": 0}, {"type": "note_on", "time": 10, "note": 68, "velocity": 90, "channel": 0}, {"type": "note_off", "time": 21, "note": 68, "velocity": 90, "channel": 0}, {"type": "note_on", "time": 75, "note": 72, "velocity": 118, "channel": 0}, {"type": "note_off", "time": 164, "note": 72, "velocity": 118, "channel": 0}, {"type": "note_on", "time": 139, "note": 65, "velocity": 114, "channel": 0}, {"type": "note_off", "time": 72, "note": 65, "velocity": 114, "channel": 0}, {"type": "note_on", "time": 16, "note": 65, "velocity": 109, "channel": 0}, {"type": "note_off", "time": 122, "note": 65, "velocity": 109, "channel": 0}, {"type": "note_on", "time": 15, "note": 65, "velocity": 108, "channel": 0}, {"type": "note_off", "time": 60, "note": 65, "velocity": 108, "channel": 0}, {"type": "note_on", "time": 110, "note": 65, "velocity": 115, "channel": 0}, {"type": "note_off", "time": 70, "note": 65, "velocity": 115, "channel": 0}, {"type": "note_on", "time": 136, "note": 66, "velocity": 105, "channel": 0}, {"type": "note_off", "time": 164, "note": 66, "velocity": 105, "channel": 0}, {"type": "note_on", "time": 244, "note": 74, "velocity": 117, "channel": 0}, {"type": "note_off", "time": 198, "note": 74, "velocity": 117, "channel": 0}, {"type": "note_on", "time": 108, "note": 67, "velocity": 109, "channel": 0}, {"type": "note_off", "time": 50, "note": 67, "velocity": 109, "channel": 0}, {"type": "note_on", "time": 80, "note": 70, "velocity": 122, "channel": 0}, {"type": "note_off", "time": 58, "note": 70, "velocity": 122, "channel": 0}, {"type": "note_on", "time": 26, "note": 68, "velocity": 110, "channel": 0}, {"type": "note_off", "time": 63, "note": 68, "velocity": 110, "channel": 0}, {"type": "note_on", "time": 28, "note": 67, "velocity": 109, "channel": 0}, {"type": "note_off", "time": 53, "note": 67, "velocity": 109, "channel": 0}, {"type": "note_on", "time": 25, "note": 65, "velocity": 105, "channel": 0}, {"type": "note_off", "time": 72, "note": 65, "velocity": 105, "channel": 0}, {"type": "note_on", "time": 15, "note": 64, "velocity": 113, "channel": 0}, {"type": "note_off", "time": 92, "note": 64, "velocity": 113, "channel": 0}, {"type": "note_on", "time": 42, "note": 67, "velocity": 107, "channel": 0}, {"type": "note_off", "time": 43, "note": 67, "velocity": 107, "channel": 0}, {"type": "note_on", "time": 43, "note": 65, "velocity": 109, "channel": 0}, {"type": "note_off", "time": 60, "note": 65, "velocity": 109, "channel": 0}, {"type": "note_on", "time": 10, "note": 67, "velocity": 107, "channel": 0}, {"type": "note_off", "time": 62, "note": 67, "velocity": 107, "channel": 0}, {"type": "note_on", "time": 147, "note": 69, "velocity": 86, "channel": 0}, {"type": "note_off", "time": 36, "note": 69, "velocity": 86, "channel": 0}, {"type": "note_on", "time": 31, "note": 70, "velocity": 111, "channel": 0}, {"type": "note_off", "time": 104, "note": 70, "velocity": 111, "channel": 0}, {"type": "note_on", "time": 21, "note": 68, "velocity": 90, "channel": 0}, {"type": "note_off", "time": 40, "note": 68, "velocity": 90, "channel": 0}, {"type": "note_on", "time": 77, "note": 69, "velocity": 100, "channel": 0}, {"type": "note_off", "time": 52, "note": 69, "velocity": 100, "channel": 0}, {"type": "note_on", "time": 20, "note": 67, "velocity": 101, "channel": 0}, {"type": "note_off", "time": 50, "note": 67, "velocity": 101, "channel": 0}, {"type": "note_on", "time": 52, "note": 67, "velocity": 115, "channel": 0}, {"type": "note_off", "time": 55, "note": 67, "velocity": 115, "channel": 0}, {"type": "note_on", "time": 52, "note": 63, "velocity": 114, "channel": 0}, {"type": "note_off", "time": 42, "note": 63, "velocity": 114, "channel": 0}, {"type": "note_on", "time": 26, "note": 66, "velocity": 94, "channel": 0}, {"type": "note_off", "time": 47, "note": 66, "velocity": 94, "channel": 0}, {"type": "note_on", "time": 5, "note": 65, "velocity": 101, "channel": 0}, {"type": "note_off", "time": 47, "note": 65, "velocity": 101, "channel": 0}, {"type": "note_on", "time": 6, "note": 62, "velocity": 104, "channel": 0}, {"type": "note_off", "time": 54, "note": 62, "velocity": 104, "channel": 0}, {"type": "note_on", "time": 51, "note": 63, "velocity": 122, "channel": 0}, {"type": "note_off", "time": 74, "note": 63, "velocity": 122, "channel": 0}, {"type": "note_on", "time": 8, "note": 60, "velocity": 114, "channel": 0}, {"type": "note_off", "time": 87, "note": 60, "velocity": 114, "channel": 0}, {"type": "note_on", "time": 5, "note": 56, "velocity": 109, "channel": 0}, {"type": "note_off", "time": 89, "note": 56, "velocity": 109, "channel": 0}, {"type": "note_on", "time": 5, "note": 53, "velocity": 109, "channel": 0}, {"type": "note_off", "time": 72, "note": 53, "velocity": 109, "channel": 0}, {"type": "note_on", "time": 0, "note": 55, "velocity": 108, "channel": 0}, {"type": "note_off", "time": 107, "note": 55, "velocity": 108, "channel": 0}, {"type": "note_on", "time": 0, "note": 58, "velocity": 111, "channel": 0}, {"type": "note_off", "time": 85, "note": 58, "velocity": 111, "channel": 0}, {"type": "note_on", "time": 198, "note": 58, "velocity": 108, "channel": 0}, {"type": "note_off", "time": 101, "note": 58, "velocity": 108, "channel": 0}, {"type": "note_on", "time": 49, "note": 60, "velocity": 112, "channel": 0}, {"type": "note_off", "time": 28, "note": 60, "velocity": 112, "channel": 0}, {"type": "note_on", "time": 0, "note": 63, "velocity": 122, "channel": 0}, {"type": "note_off", "time": 101, "note": 63, "velocity": 122, "channel": 0}, {"type": "note_on", "time": 37, "note": 66, "velocity": 121, "channel": 0}, {"type": "note_off", "time": 72, "note": 66, "velocity": 121, "channel": 0}, {"type": "note_on", "time": 9, "note": 67, "velocity": 109, "channel": 0}, {"type": "note_off", "time": 33, "note": 67, "velocity": 109, "channel": 0}, {"type": "note_on", "time": 123, "note": 66, "velocity": 116, "channel": 0}, {"type": "note_off", "time": 117, "note": 66, "velocity": 116, "channel": 0}, {"type": "note_on", "time": 94, "note": 63, "velocity": 120, "channel": 0}, {"type": "note_off", "time": 121, "note": 63, "velocity": 120, "channel": 0}, {"type": "note_on", "time": 42, "note": 60, "velocity": 111, "channel": 0}, {"type": "note_off", "time": 317, "note": 60, "velocity": 111, "channel": 0}, {"type": "note_on", "time": 226, "note": 70, "velocity": 120, "channel": 0}, {"type": "note_off", "time": 131, "note": 70, "velocity": 120, "channel": 0}, {"type": "note_on", "time": 20, "note": 68, "velocity": 107, "channel": 0}, {"type": "note_off", "time": 42, "note": 68, "velocity": 107, "channel": 0}, {"type": "note_on", "time": 10, "note": 66, "velocity": 112, "channel": 0}, {"type": "note_off", "time": 25, "note": 66, "velocity": 112, "channel": 0}, {"type": "note_on", "time": 0, "note": 63, "velocity": 120, "channel": 0}, {"type": "note_off", "time": 119, "note": 63, "velocity": 120, "channel": 0}, {"type": "note_on", "time": 18, "note": 63, "velocity": 118, "channel": 0}, {"type": "note_off", "time": 213, "note": 63, "velocity": 118, "channel": 0}, {"type": "note_on", "time": 13, "note": 63, "velocity": 116, "channel": 0}, {"type": "note_off", "time": 154, "note": 63, "velocity": 116, "channel": 0}, {"type": "note_on", "time": 42, "note": 66, "velocity": 117, "channel": 0}, {"type": "note_off", "time": 104, "note": 66, "velocity": 117, "channel": 0}, {"type": "note_on", "time": 3, "note": 67, "velocity": 109, "channel": 0}, {"type": "note_off", "time": 80, "note": 67, "velocity": 109, "channel": 0}, {"type": "note_on", "time": 573, "note": 58, "velocity": 116, "channel": 0}, {"type": "note_off", "time": 117, "note": 58, "velocity": 116, "channel": 0}, {"type": "note_on", "time": 0, "note": 60, "velocity": 108, "channel": 0}, {"type": "note_off", "time": 57, "note": 60, "velocity": 108, "channel": 0}, {"type": "note_on", "time": 13, "note": 63, "velocity": 127, "channel": 0}, {"type": "note_off", "time": 107, "note": 63, "velocity": 127, "channel": 0}, {"type": "note_on", "time": 40, "note": 65, "velocity": 117, "channel": 0}, {"type": "note_off", "time": 124, "note": 65, "velocity": 117, "channel": 0}, {"type": "note_on", "time": 55, "note": 63, "velocity": 100, "channel": 0}, {"type": "note_on", "time": 72, "note": 66, "velocity": 110, "channel": 0}, {"type": "note_off", "time": 0, "note": 63, "velocity": 100, "channel": 0}, {"type": "note_off", "time": 126, "note": 66, "velocity": 110, "channel": 0}, {"type": "note_on", "time": 29, "note": 63, "velocity": 109, "channel": 0}, {"type": "note_off", "time": 217, "note": 63, "velocity": 109, "channel": 0}, {"type": "note_on", "time": 0, "note": 60, "velocity": 117, "channel": 0}, {"type": "note_off", "time": 99, "note": 60, "velocity": 117, "channel": 0}, {"type": "note_on", "time": 127, "note": 77, "velocity": 111, "channel": 0}, {"type": "note_off", "time": 137, "note": 77, "velocity": 111, "channel": 0}, {"type": "note_on", "time": 9, "note": 78, "velocity": 104, "channel": 0}, {"type": "note_off", "time": 115, "note": 78, "velocity": 104, "channel": 0}, {"type": "note_on", "time": 0, "note": 75, "velocity": 118, "channel": 0}, {"type": "note_off", "time": 70, "note": 75, "velocity": 118, "channel": 0}, {"type": "note_on", "time": 21, "note": 73, "velocity": 114, "channel": 0}, {"type": "note_off", "time": 78, "note": 73, "velocity": 114, "channel": 0}, {"type": "note_on", "time": 7, "note": 70, "velocity": 114, "channel": 0}, {"type": "note_on", "time": 73, "note": 68, "velocity": 115, "channel": 0}, {"type": "note_off", "time": 0, "note": 70, "velocity": 114, "channel": 0}, {"type": "note_off", "time": 115, "note": 68, "velocity": 115, "channel": 0}, {"type": "note_on", "time": 28, "note": 66, "velocity": 104, "channel": 0}, {"type": "note_off", "time": 40, "note": 66, "velocity": 104, "channel": 0}, {"type": "note_on", "time": 29, "note": 68, "velocity": 115, "channel": 0}, {"type": "note_off", "time": 98, "note": 68, "velocity": 115, "channel": 0}, {"type": "note_on", "time": 18, "note": 67, "velocity": 91, "channel": 0}, {"type": "note_off", "time": 33, "note": 67, "velocity": 91, "channel": 0}, {"type": "note_on", "time": 17, "note": 68, "velocity": 111, "channel": 0}, {"type": "note_off", "time": 112, "note": 68, "velocity": 111, "channel": 0}, {"type": "note_on", "time": 31, "note": 66, "velocity": 85, "channel": 0}, {"type": "note_off", "time": 49, "note": 66, "velocity": 85, "channel": 0}, {"type": "note_on", "time": 4, "note": 68, "velocity": 105, "channel": 0}, {"type": "note_off", "time": 97, "note": 68, "velocity": 105, "channel": 0}, {"type": "note_on", "time": 34, "note": 68, "velocity": 103, "channel": 0}, {"type": "note_off", "time": 49, "note": 68, "velocity": 103, "channel": 0}, {"type": "note_on", "time": 17, "note": 66, "velocity": 106, "channel": 0}, {"type": "note_off", "time": 82, "note": 66, "velocity": 106, "channel": 0}, {"type": "note_on", "time": 35, "note": 70, "velocity": 117, "channel": 0}, {"type": "note_off", "time": 57, "note": 70, "velocity": 117, "channel": 0}, {"type": "note_on", "time": 169, "note": 83, "velocity": 105, "channel": 0}, {"type": "note_off", "time": 70, "note": 83, "velocity": 105, "channel": 0}, {"type": "note_on", "time": 102, "note": 81, "velocity": 110, "channel": 0}, {"type": "note_off", "time": 97, "note": 81, "velocity": 110, "channel": 0}, {"type": "note_on", "time": 80, "note": 80, "velocity": 101, "channel": 0}, {"type": "note_off", "time": 100, "note": 80, "velocity": 101, "channel": 0}, {"type": "note_on", "time": 119, "note": 78, "velocity": 112, "channel": 0}, {"type": "note_off", "time": 48, "note": 78, "velocity": 112, "channel": 0}, {"type": "note_on", "time": 22, "note": 79, "velocity": 115, "channel": 0}, {"type": "note_off", "time": 60, "note": 79, "velocity": 115, "channel": 0}, {"type": "note_on", "time": 16, "note": 75, "velocity": 108, "channel": 0}, {"type": "note_off", "time": 78, "note": 75, "velocity": 108, "channel": 0}, {"type": "note_on", "time": 14, "note": 77, "velocity": 114, "channel": 0}, {"type": "note_off", "time": 80, "note": 77, "velocity": 114, "channel": 0}, {"type": "note_on", "time": 33, "note": 72, "velocity": 111, "channel": 0}, {"type": "note_off", "time": 87, "note": 72, "velocity": 111, "channel": 0}, {"type": "note_on", "time": 9, "note": 72, "velocity": 114, "channel": 0}, {"type": "note_off", "time": 67, "note": 72, "velocity": 114, "channel": 0}, {"type": "note_on", "time": 3, "note": 70, "velocity": 115, "channel": 0}, {"type": "note_off", "time": 72, "note": 70, "velocity": 115, "channel": 0}, {"type": "note_on", "time": 15, "note": 69, "velocity": 111, "channel": 0}, {"type": "note_off", "time": 114, "note": 69, "velocity": 111, "channel": 0}, {"type": "note_on", "time": 33, "note": 75, "velocity": 111, "channel": 0}, {"type": "note_off", "time": 119, "note": 75, "velocity": 111, "channel": 0}, {"type": "note_on", "time": 11, "note": 71, "velocity": 115, "channel": 0}, {"type": "note_off", "time": 96, "note": 71, "velocity": 115, "channel": 0}, {"type": "note_on", "time": 8, "note": 67, "velocity": 105, "channel": 0}, {"type": "note_off", "time": 85, "note": 67, "velocity": 105, "channel": 0}, {"type": "note_on", "time": 11, "note": 64, "velocity": 116, "channel": 0}, {"type": "note_off", "time": 76, "note": 64, "velocity": 116, "channel": 0}, {"type": "note_on", "time": 12, "note": 63, "velocity": 111, "channel": 0}, {"type": "note_off", "time": 96, "note": 63, "velocity": 111, "channel": 0}, {"type": "note_on", "time": 0, "note": 61, "velocity": 108, "channel": 0}, {"type": "note_off", "time": 59, "note": 61, "velocity": 108, "channel": 0}, {"type": "note_on", "time": 59, "note": 58, "velocity": 92, "channel": 0}, {"type": "note_off", "time": 63, "note": 58, "velocity": 92, "channel": 0}, {"type": "note_on", "time": 4, "note": 59, "velocity": 101, "channel": 0}, {"type": "note_off", "time": 80, "note": 59, "velocity": 101, "channel": 0}, {"type": "note_on", "time": 10, "note": 60, "velocity": 101, "channel": 0}, {"type": "note_off", "time": 131, "note": 60, "velocity": 101, "channel": 0}, {"type": "note_on", "time": 49, "note": 71, "velocity": 112, "channel": 0}, {"type": "note_off", "time": 85, "note": 71, "velocity": 112, "channel": 0}, {"type": "note_on", "time": 9, "note": 72, "velocity": 112, "channel": 0}, {"type": "note_off", "time": 87, "note": 72, "velocity": 112, "channel": 0}, {"type": "note_on", "time": 23, "note": 68, "velocity": 103, "channel": 0}, {"type": "note_off", "time": 146, "note": 68, "velocity": 103, "channel": 0}, {"type": "note_on", "time": 18, "note": 68, "velocity": 88, "channel": 0}, {"type": "note_off", "time": 40, "note": 68, "velocity": 88, "channel": 0}, {"type": "note_on", "time": 286, "note": 72, "velocity": 115, "channel": 0}, {"type": "note_off", "time": 160, "note": 72, "velocity": 115, "channel": 0}, {"type": "note_on", "time": 7, "note": 74, "velocity": 118, "channel": 0}, {"type": "note_off", "time": 118, "note": 74, "velocity": 118, "channel": 0}, {"type": "note_on", "time": 21, "note": 68, "velocity": 112, "channel": 0}, {"type": "note_off", "time": 120, "note": 68, "velocity": 112, "channel": 0}, {"type": "note_on", "time": 37, "note": 73, "velocity": 114, "channel": 0}, {"type": "note_off", "time": 148, "note": 73, "velocity": 114, "channel": 0}, {"type": "note_on", "time": 2, "note": 75, "velocity": 119, "channel": 0}, {"type": "note_off", "time": 76, "note": 75, "velocity": 119, "channel": 0}, {"type": "note_on", "time": 0, "note": 74, "velocity": 117, "channel": 0}, {"type": "note_off", "time": 92, "note": 74, "velocity": 117, "channel": 0}, {"type": "note_on", "time": 0, "note": 72, "velocity": 120, "channel": 0}, {"type": "note_off", "time": 80, "note": 72, "velocity": 120, "channel": 0}, {"type": "note_on", "time": 21, "note": 70, "velocity": 119, "channel": 0}, {"type": "note_off", "time": 85, "note": 70, "velocity": 119, "channel": 0}, {"type": "note_on", "time": 15, "note": 68, "velocity": 115, "channel": 0}, {"type": "note_off", "time": 63, "note": 68, "velocity": 115, "channel": 0}, {"type": "note_on", "time": 5, "note": 67, "velocity": 105, "channel": 0}, {"type": "note_off", "time": 94, "note": 67, "velocity": 105, "channel": 0}, {"type": "note_on", "time": 20, "note": 65, "velocity": 105, "channel": 0}, {"type": "note_off", "time": 67, "note": 65, "velocity": 105, "channel": 0}, {"type": "note_on", "time": 33, "note": 64, "velocity": 111, "channel": 0}, {"type": "note_off", "time": 84, "note": 64, "velocity": 111, "channel": 0}, {"type": "note_on", "time": 11, "note": 67, "velocity": 106, "channel": 0}, {"type": "note_off", "time": 63, "note": 67, "velocity": 106, "channel": 0}, {"type": "note_on", "time": 40, "note": 65, "velocity": 111, "channel": 0}, {"type": "note_off", "time": 73, "note": 65, "velocity": 111, "channel": 0}, {"type": "note_on", "time": 15, "note": 67, "velocity": 106, "channel": 0}, {"type": "note_off", "time": 60, "note": 67, "velocity": 106, "channel": 0}, {"type": "note_on", "time": 18, "note": 68, "velocity": 105, "channel": 0}, {"type": "note_off", "time": 89, "note": 68, "velocity": 105, "channel": 0}, {"type": "note_on", "time": 0, "note": 69, "velocity": 110, "channel": 0}, {"type": "note_off", "time": 84, "note": 69, "velocity": 110, "channel": 0}, {"type": "note_on", "time": 15, "note": 70, "velocity": 115, "channel": 0}, {"type": "note_off", "time": 80, "note": 70, "velocity": 115, "channel": 0}, {"type": "note_on", "time": 5, "note": 72, "velocity": 111, "channel": 0}, {"type": "note_off", "time": 77, "note": 72, "velocity": 111, "channel": 0}, {"type": "note_on", "time": 20, "note": 74, "velocity": 108, "channel": 0}, {"type": "note_off", "time": 58, "note": 74, "velocity": 108, "channel": 0}, {"type": "note_on", "time": 38, "note": 77, "velocity": 113, "channel": 0}, {"type": "note_off", "time": 72, "note": 77, "velocity": 113, "channel": 0}, {"type": "note_on", "time": 16, "note": 74, "velocity": 117, "channel": 0}, {"type": "note_off", "time": 70, "note": 74, "velocity": 117, "channel": 0}, {"type": "note_on", "time": 0, "note": 75, "velocity": 115, "channel": 0}, {"type": "note_off", "time": 90, "note": 75, "velocity": 115, "channel": 0}, {"type": "note_on", "time": 200, "note": 77, "velocity": 108, "channel": 0}, {"type": "note_off", "time": 42, "note": 77, "velocity": 108, "channel": 0}, {"type": "note_on", "time": 3, "note": 79, "velocity": 115, "channel": 0}, {"type": "note_off", "time": 60, "note": 79, "velocity": 115, "channel": 0}, {"type": "note_on", "time": 20, "note": 82, "velocity": 111, "channel": 0}, {"type": "note_off", "time": 57, "note": 82, "velocity": 111, "channel": 0}, {"type": "note_on", "time": 21, "note": 84, "velocity": 106, "channel": 0}, {"type": "note_off", "time": 87, "note": 84, "velocity": 106, "channel": 0}, {"type": "note_on", "time": 54, "note": 85, "velocity": 98, "channel": 0}, {"type": "note_off", "time": 49, "note": 85, "velocity": 98, "channel": 0}, {"type": "note_on", "time": 10, "note": 86, "velocity": 100, "channel": 0}, {"type": "note_off", "time": 86, "note": 86, "velocity": 100, "channel": 0}, {"type": "note_on", "time": 209, "note": 82, "velocity": 104, "channel": 0}, {"type": "note_off", "time": 85, "note": 82, "velocity": 104, "channel": 0}, {"type": "note_on", "time": 13, "note": 81, "velocity": 110, "channel": 0}, {"type": "note_off", "time": 75, "note": 81, "velocity": 110, "channel": 0}, {"type": "note_on", "time": 6, "note": 78, "velocity": 117, "channel": 0}, {"type": "note_off", "time": 67, "note": 78, "velocity": 117, "channel": 0}, {"type": "note_on", "time": 3, "note": 75, "velocity": 116, "channel": 0}, {"type": "note_off", "time": 137, "note": 75, "velocity": 116, "channel": 0}, {"type": "note_on", "time": 36, "note": 75, "velocity": 115, "channel": 0}, {"type": "note_off", "time": 152, "note": 75, "velocity": 115, "channel": 0}, {"type": "note_on", "time": 48, "note": 75, "velocity": 118, "channel": 0}, {"type": "note_off", "time": 178, "note": 75, "velocity": 118, "channel": 0}, {"type": "note_on", "time": 205, "note": 75, "velocity": 116, "channel": 0}, {"type": "note_off", "time": 107, "note": 75, "velocity": 116, "channel": 0}, {"type": "note_on", "time": 9, "note": 75, "velocity": 112, "channel": 0}, {"type": "note_off", "time": 52, "note": 75, "velocity": 112, "channel": 0}, {"type": "note_on", "time": 14, "note": 75, "velocity": 103, "channel": 0}, {"type": "note_off", "time": 35, "note": 75, "velocity": 103, "channel": 0}, {"type": "note_on", "time": 14, "note": 75, "velocity": 109, "channel": 0}, {"type": "note_off", "time": 41, "note": 75, "velocity": 109, "channel": 0}, {"type": "note_on", "time": 20, "note": 75, "velocity": 104, "channel": 0}, {"type": "note_off", "time": 63, "note": 75, "velocity": 104, "channel": 0}, {"type": "note_on", "time": 9, "note": 75, "velocity": 105, "channel": 0}, {"type": "note_off", "time": 44, "note": 75, "velocity": 105, "channel": 0}, {"type": "note_on", "time": 16, "note": 75, "velocity": 106, "channel": 0}, {"type": "note_off", "time": 44, "note": 75, "velocity": 106, "channel": 0}, {"type": "note_on", "time": 9, "note": 75, "velocity": 105, "channel": 0}, {"type": "note_off", "time": 66, "note": 75, "velocity": 105, "channel": 0}, {"type": "note_on", "time": 20, "note": 78, "velocity": 114, "channel": 0}, {"type": "note_off", "time": 51, "note": 78, "velocity": 114, "channel": 0}, {"type": "note_on", "time": 12, "note": 79, "velocity": 114, "channel": 0}, {"type": "note_off", "time": 83, "note": 79, "velocity": 114, "channel": 0}, {"type": "note_on", "time": 214, "note": 75, "velocity": 114, "channel": 0}, {"type": "note_off", "time": 147, "note": 75, "velocity": 114, "channel": 0}, {"type": "note_on", "time": 50, "note": 75, "velocity": 120, "channel": 0}, {"type": "note_off", "time": 186, "note": 75, "velocity": 120, "channel": 0}, {"type": "note_on", "time": 173, "note": 75, "velocity": 118, "channel": 0}, {"type": "note_off", "time": 51, "note": 75, "velocity": 118, "channel": 0}, {"type": "note_on", "time": 14, "note": 75, "velocity": 117, "channel": 0}, {"type": "note_off", "time": 52, "note": 75, "velocity": 117, "channel": 0}, {"type": "note_on", "time": 18, "note": 75, "velocity": 110, "channel": 0}, {"type": "note_off", "time": 57, "note": 75, "velocity": 110, "channel": 0}, {"type": "note_on", "time": 11, "note": 75, "velocity": 109, "channel": 0}, {"type": "note_off", "time": 53, "note": 75, "velocity": 109, "channel": 0}, {"type": "note_on", "time": 17, "note": 75, "velocity": 108, "channel": 0}, {"type": "note_off", "time": 63, "note": 75, "velocity": 108, "channel": 0}, {"type": "note_on", "time": 23, "note": 75, "velocity": 109, "channel": 0}, {"type": "note_off", "time": 67, "note": 75, "velocity": 109, "channel": 0}, {"type": "note_on", "time": 8, "note": 75, "velocity": 104, "channel": 0}, {"type": "note_off", "time": 30, "note": 75, "velocity": 104, "channel": 0}, {"type": "note_on", "time": 15, "note": 75, "velocity": 90, "channel": 0}, {"type": "note_off", "time": 30, "note": 75, "velocity": 90, "channel": 0}, {"type": "note_on", "time": 15, "note": 75, "velocity": 111, "channel": 0}, {"type": "note_off", "time": 45, "note": 75, "velocity": 111, "channel": 0}, {"type": "note_on", "time": 17, "note": 80, "velocity": 101, "channel": 0}, {"type": "note_off", "time": 51, "note": 80, "velocity": 101, "channel": 0}, {"type": "note_on", "time": 11, "note": 82, "velocity": 110, "channel": 0}, {"type": "note_off", "time": 66, "note": 82, "velocity": 110, "channel": 0}, {"type": "note_on", "time": 222, "note": 75, "velocity": 119, "channel": 0}, {"type": "note_off", "time": 127, "note": 75, "velocity": 119, "channel": 0}, {"type": "note_on", "time": 62, "note": 75, "velocity": 112, "channel": 0}, {"type": "note_off", "time": 234, "note": 75, "velocity": 112, "channel": 0}, {"type": "note_on", "time": 396, "note": 84, "velocity": 92, "channel": 0}, {"type": "note_off", "time": 139, "note": 84, "velocity": 92, "channel": 0}, {"type": "note_on", "time": 0, "note": 82, "velocity": 106, "channel": 0}, {"type": "note_off", "time": 109, "note": 82, "velocity": 106, "channel": 0}, {"type": "note_on", "time": 7, "note": 81, "velocity": 108, "channel": 0}, {"type": "note_off", "time": 56, "note": 81, "velocity": 108, "channel": 0}, {"type": "note_on", "time": 29, "note": 78, "velocity": 108, "channel": 0}, {"type": "note_off", "time": 56, "note": 78, "velocity": 108, "channel": 0}, {"type": "note_on", "time": 14, "note": 78, "velocity": 102, "channel": 0}, {"type": "note_off", "time": 85, "note": 78, "velocity": 102, "channel": 0}, {"type": "note_on", "time": 7, "note": 77, "velocity": 112, "channel": 0}, {"type": "note_off", "time": 47, "note": 77, "velocity": 112, "channel": 0}, {"type": "note_on", "time": 7, "note": 76, "velocity": 109, "channel": 0}, {"type": "note_off", "time": 49, "note": 76, "velocity": 109, "channel": 0}, {"type": "note_on", "time": 89, "note": 75, "velocity": 113, "channel": 0}, {"type": "note_off", "time": 107, "note": 75, "velocity": 113, "channel": 0}, {"type": "note_on", "time": 15, "note": 72, "velocity": 109, "channel": 0}, {"type": "note_off", "time": 59, "note": 72, "velocity": 109, "channel": 0}, {"type": "note_on", "time": 17, "note": 70, "velocity": 115, "channel": 0}, {"type": "note_off", "time": 105, "note": 70, "velocity": 115, "channel": 0}, {"type": "note_on", "time": 26, "note": 65, "velocity": 106, "channel": 0}, {"type": "note_off", "time": 42, "note": 65, "velocity": 106, "channel": 0}, {"type": "note_on", "time": 60, "note": 71, "velocity": 106, "channel": 0}, {"type": "note_off", "time": 42, "note": 71, "velocity": 106, "channel": 0}, {"type": "note_on", "time": 1, "note": 68, "velocity": 103, "channel": 0}, {"type": "note_off", "time": 28, "note": 68, "velocity": 103, "channel": 0}, {"type": "note_on", "time": 2, "note": 65, "velocity": 116, "channel": 0}, {"type": "note_off", "time": 81, "note": 65, "velocity": 116, "channel": 0}, {"type": "note_on", "time": 9, "note": 63, "velocity": 120, "channel": 0}, {"type": "note_off", "time": 107, "note": 63, "velocity": 120, "channel": 0}, {"type": "note_on", "time": 10, "note": 59, "velocity": 96, "channel": 0}, {"type": "note_off", "time": 35, "note": 59, "velocity": 96, "channel": 0}, {"type": "note_on", "time": 23, "note": 62, "velocity": 118, "channel": 0}, {"type": "note_off", "time": 111, "note": 62, "velocity": 118, "channel": 0}, {"type": "note_on", "time": 0, "note": 65, "velocity": 112, "channel": 0}, {"type": "note_off", "time": 53, "note": 65, "velocity": 112, "channel": 0}, {"type": "note_on", "time": 54, "note": 68, "velocity": 110, "channel": 0}, {"type": "note_off", "time": 50, "note": 68, "velocity": 110, "channel": 0}, {"type": "note_on", "time": 40, "note": 72, "velocity": 117, "channel": 0}, {"type": "note_off", "time": 70, "note": 72, "velocity": 117, "channel": 0}, {"type": "note_on", "time": 54, "note": 74, "velocity": 119, "channel": 0}, {"type": "note_off", "time": 46, "note": 74, "velocity": 119, "channel": 0}, {"type": "note_on", "time": 2, "note": 75, "velocity": 117, "channel": 0}, {"type": "note_off", "time": 74, "note": 75, "velocity": 117, "channel": 0}, {"type": "note_on", "time": 15, "note": 74, "velocity": 116, "channel": 0}, {"type": "note_off", "time": 86, "note": 74, "velocity": 116, "channel": 0}, {"type": "note_on", "time": 15, "note": 72, "velocity": 117, "channel": 0}, {"type": "note_off", "time": 67, "note": 72, "velocity": 117, "channel": 0}, {"type": "note_on", "time": 50, "note": 70, "velocity": 121, "channel": 0}, {"type": "note_off", "time": 73, "note": 70, "velocity": 121, "channel": 0}, {"type": "note_on", "time": 26, "note": 67, "velocity": 97, "channel": 0}, {"type": "note_off", "time": 34, "note": 67, "velocity": 97, "channel": 0}, {"type": "note_on", "time": 94, "note": 69, "velocity": 106, "channel": 0}, {"type": "note_on", "time": 46, "note": 68, "velocity": 103, "channel": 0}, {"type": "note_off", "time": 0, "note": 69, "velocity": 106, "channel": 0}, {"type": "note_off", "time": 20, "note": 68, "velocity": 103, "channel": 0}, {"type": "note_on", "time": 0, "note": 66, "velocity": 105, "channel": 0}, {"type": "note_off", "time": 52, "note": 66, "velocity": 105, "channel": 0}, {"type": "note_on", "time": 48, "note": 67, "velocity": 10, "channel": 0}, {"type": "note_off", "time": 83, "note": 67, "velocity": 10, "channel": 0}, {"type": "note_on", "time": 55, "note": 65, "velocity": 111, "channel": 0}, {"type": "note_off", "time": 134, "note": 65, "velocity": 111, "channel": 0}, {"type": "note_on", "time": 0, "note": 61, "velocity": 111, "channel": 0}, {"type": "note_off", "time": 68, "note": 61, "velocity": 111, "channel": 0}, {"type": "note_on", "time": 30, "note": 58, "velocity": 103, "channel": 0}, {"type": "note_off", "time": 96, "note": 58, "velocity": 103, "channel": 0}, {"type": "note_on", "time": 21, "note": 53, "velocity": 115, "channel": 0}, {"type": "note_off", "time": 37, "note": 53, "velocity": 115, "channel": 0}, {"type": "note_on", "time": 31, "note": 56, "velocity": 109, "channel": 0}, {"type": "note_off", "time": 91, "note": 56, "velocity": 109, "channel": 0}, {"type": "note_on", "time": 13, "note": 55, "velocity": 115, "channel": 0}, {"type": "note_off", "time": 99, "note": 55, "velocity": 115, "channel": 0}, {"type": "note_on", "time": 261, "note": 69, "velocity": 126, "channel": 0}, {"type": "note_off", "time": 82, "note": 69, "velocity": 126, "channel": 0}, {"type": "note_on", "time": 0, "note": 70, "velocity": 124, "channel": 0}, {"type": "note_off", "time": 151, "note": 70, "velocity": 124, "channel": 0}, {"type": "note_on", "time": 8, "note": 68, "velocity": 118, "channel": 0}, {"type": "note_off", "time": 80, "note": 68, "velocity": 118, "channel": 0}, {"type": "note_on", "time": 47, "note": 66, "velocity": 114, "channel": 0}, {"type": "note_off", "time": 65, "note": 66, "velocity": 114, "channel": 0}, {"type": "note_on", "time": 23, "note": 63, "velocity": 124, "channel": 0}, {"type": "note_off", "time": 131, "note": 63, "velocity": 124, "channel": 0}, {"type": "note_on", "time": 5, "note": 60, "velocity": 115, "channel": 0}, {"type": "note_off", "time": 111, "note": 60, "velocity": 115, "channel": 0}, {"type": "note_on", "time": 52, "note": 66, "velocity": 112, "channel": 0}, {"type": "note_off", "time": 192, "note": 66, "velocity": 112, "channel": 0}, {"type": "note_on", "time": 362, "note": 63, "velocity": 97, "channel": 0}, {"type": "note_off", "time": 73, "note": 63, "velocity": 97, "channel": 0}, {"type": "note_on", "time": 42, "note": 69, "velocity": 115, "channel": 0}, {"type": "note_off", "time": 48, "note": 69, "velocity": 115, "channel": 0}, {"type": "note_on", "time": 0, "note": 70, "velocity": 106, "channel": 0}, {"type": "note_off", "time": 60, "note": 70, "velocity": 106, "channel": 0}, {"type": "note_on", "time": 3, "note": 73, "velocity": 105, "channel": 0}, {"type": "note_off", "time": 47, "note": 73, "velocity": 105, "channel": 0}, {"type": "note_on", "time": 16, "note": 69, "velocity": 114, "channel": 0}, {"type": "note_off", "time": 65, "note": 69, "velocity": 114, "channel": 0}, {"type": "note_on", "time": 216, "note": 63, "velocity": 122, "channel": 0}, {"type": "note_off", "time": 54, "note": 63, "velocity": 122, "channel": 0}, {"type": "note_on", "time": 31, "note": 69, "velocity": 105, "channel": 0}, {"type": "note_off", "time": 55, "note": 69, "velocity": 105, "channel": 0}, {"type": "note_on", "time": 5, "note": 70, "velocity": 106, "channel": 0}, {"type": "note_off", "time": 52, "note": 70, "velocity": 106, "channel": 0}, {"type": "note_on", "time": 0, "note": 72, "velocity": 110, "channel": 0}, {"type": "note_off", "time": 47, "note": 72, "velocity": 110, "channel": 0}, {"type": "note_on", "time": 10, "note": 69, "velocity": 113, "channel": 0}, {"type": "note_off", "time": 46, "note": 69, "velocity": 113, "channel": 0}, {"type": "note_on", "time": 9, "note": 68, "velocity": 105, "channel": 0}, {"type": "note_off", "time": 55, "note": 68, "velocity": 105, "channel": 0}, {"type": "note_on", "time": 3, "note": 66, "velocity": 105, "channel": 0}, {"type": "note_off", "time": 50, "note": 66, "velocity": 105, "channel": 0}, {"type": "note_on", "time": 7, "note": 68, "velocity": 116, "channel": 0}, {"type": "note_off", "time": 63, "note": 68, "velocity": 116, "channel": 0}, {"type": "note_on", "time": 21, "note": 66, "velocity": 112, "channel": 0}, {"type": "note_off", "time": 27, "note": 66, "velocity": 112, "channel": 0}, {"type": "note_on", "time": 13, "note": 63, "velocity": 118, "channel": 0}, {"type": "note_off", "time": 69, "note": 63, "velocity": 118, "channel": 0}, {"type": "note_on", "time": 2, "note": 61, "velocity": 113, "channel": 0}, {"type": "note_off", "time": 41, "note": 61, "velocity": 113, "channel": 0}, {"type": "note_on", "time": 24, "note": 58, "velocity": 108, "channel": 0}, {"type": "note_off", "time": 53, "note": 58, "velocity": 108, "channel": 0}, {"type": "note_on", "time": 8, "note": 57, "velocity": 114, "channel": 0}, {"type": "note_off", "time": 54, "note": 57, "velocity": 114, "channel": 0}, {"type": "note_on", "time": 5, "note": 56, "velocity": 112, "channel": 0}, {"type": "note_off", "time": 49, "note": 56, "velocity": 112, "channel": 0}, {"type": "note_on", "time": 5, "note": 54, "velocity": 114, "channel": 0}, {"type": "note_off", "time": 79, "note": 54, "velocity": 114, "channel": 0}, {"type": "note_on", "time": 4, "note": 51, "velocity": 112, "channel": 0}, {"type": "note_off", "time": 46, "note": 51, "velocity": 112, "channel": 0}, {"type": "note_on", "time": 3, "note": 56, "velocity": 113, "channel": 0}, {"type": "note_off", "time": 65, "note": 56, "velocity": 113, "channel": 0}, {"type": "note_on", "time": 13, "note": 51, "velocity": 111, "channel": 0}, {"type": "note_off", "time": 47, "note": 51, "velocity": 111, "channel": 0}, {"type": "note_on", "time": 0, "note": 54, "velocity": 116, "channel": 0}, {"type": "note_off", "time": 62, "note": 54, "velocity": 116, "channel": 0}, {"type": "note_on", "time": 7, "note": 55, "velocity": 112, "channel": 0}, {"type": "note_off", "time": 54, "note": 55, "velocity": 112, "channel": 0}, {"type": "note_on", "time": 4, "note": 58, "velocity": 108, "channel": 0}, {"type": "note_off", "time": 49, "note": 58, "velocity": 108, "channel": 0}, {"type": "note_on", "time": 0, "note": 60, "velocity": 113, "channel": 0}, {"type": "note_off", "time": 68, "note": 60, "velocity": 113, "channel": 0}, {"type": "note_on", "time": 0, "note": 63, "velocity": 108, "channel": 0}, {"type": "note_off", "time": 138, "note": 63, "velocity": 108, "channel": 0}, {"type": "note_on", "time": 12, "note": 64, "velocity": 121, "channel": 0}, {"type": "note_off", "time": 63, "note": 64, "velocity": 121, "channel": 0}, {"type": "note_on", "time": 8, "note": 65, "velocity": 114, "channel": 0}, {"type": "note_off", "time": 89, "note": 65, "velocity": 114, "channel": 0}, {"type": "note_on", "time": 20, "note": 63, "velocity": 118, "channel": 0}, {"type": "note_off", "time": 72, "note": 63, "velocity": 118, "channel": 0}, {"type": "note_on", "time": 7, "note": 61, "velocity": 106, "channel": 0}, {"type": "note_off", "time": 33, "note": 61, "velocity": 106, "channel": 0}, {"type": "note_on", "time": 4, "note": 58, "velocity": 103, "channel": 0}, {"type": "note_off", "time": 59, "note": 58, "velocity": 103, "channel": 0}, {"type": "note_on", "time": 15, "note": 54, "velocity": 108, "channel": 0}, {"type": "note_off", "time": 48, "note": 54, "velocity": 108, "channel": 0}, {"type": "note_on", "time": 2, "note": 56, "velocity": 114, "channel": 0}, {"type": "note_off", "time": 48, "note": 56, "velocity": 114, "channel": 0}, {"type": "note_on", "time": 0, "note": 57, "velocity": 114, "channel": 0}, {"type": "note_off", "time": 44, "note": 57, "velocity": 114, "channel": 0}, {"type": "note_on", "time": 1, "note": 56, "velocity": 106, "channel": 0}, {"type": "note_off", "time": 47, "note": 56, "velocity": 106, "channel": 0}, {"type": "note_on", "time": 2, "note": 54, "velocity": 112, "channel": 0}, {"type": "note_off", "time": 63, "note": 54, "velocity": 112, "channel": 0}, {"type": "note_on", "time": 20, "note": 51, "velocity": 105, "channel": 0}, {"type": "note_off", "time": 87, "note": 51, "velocity": 105, "channel": 0}, {"type": "note_on", "time": 8, "note": 56, "velocity": 114, "channel": 0}, {"type": "note_off", "time": 89, "note": 56, "velocity": 114, "channel": 0}, {"type": "note_on", "time": 9, "note": 54, "velocity": 114, "channel": 0}, {"type": "note_off", "time": 80, "note": 54, "velocity": 114, "channel": 0}, {"type": "note_on", "time": 56, "note": 47, "velocity": 103, "channel": 0}, {"type": "note_off", "time": 47, "note": 47, "velocity": 103, "channel": 0}, {"type": "note_on", "time": 0, "note": 48, "velocity": 105, "channel": 0}, {"type": "note_off", "time": 50, "note": 48, "velocity": 105, "channel": 0}, {"type": "note_on", "time": 23, "note": 51, "velocity": 110, "channel": 0}, {"type": "note_off", "time": 168, "note": 51, "velocity": 110, "channel": 0}, {"type": "note_on", "time": 5, "note": 48, "velocity": 110, "channel": 0}, {"type": "note_off", "time": 31, "note": 48, "velocity": 110, "channel": 0}, {"type": "note_on", "time": 6, "note": 47, "velocity": 112, "channel": 0}, {"type": "note_off", "time": 37, "note": 47, "velocity": 112, "channel": 0}, {"type": "note_on", "time": 9, "note": 46, "velocity": 109, "channel": 0}, {"type": "note_off", "time": 37, "note": 46, "velocity": 109, "channel": 0}, {"type": "end_of_track", "time": 0}]]}