{"ticks_per_beat": 9240, "tracks": [[{"type": "track_name", "name": "Melody", "time": 0}, {"type": "set_tempo", "tempo": 714285, "time": 0}, {"type": "key_signature", "key": "Bb", "time": 0}, {"type": "time_signature", "numerator": 4, "denominator": 4, "clocks_per_click": 24, "notated_32nd_notes_per_beat": 8, "time": 0}, {"type": "note_on", "time": 46089, "note": 60, "velocity": 114, "channel": 0}, {"type": "note_off", "time": 1877, "note": 60, "velocity": 114, "channel": 0}, {"type": "note_on", "time": 225, "note": 62, "velocity": 114, "channel": 0}, {"type": "note_off", "time": 3229, "note": 62, "velocity": 114, "channel": 0}, {"type": "note_on", "time": 150, "note": 63, "velocity": 118, "channel": 0}, {"type": "note_off", "time": 1652, "note": 63, "velocity": 118, "channel": 0}, {"type": "note_on", "time": 600, "note": 65, "velocity": 106, "channel": 0}, {"type": "note_off", "time": 1652, "note": 65, "velocity": 106, "channel": 0}, {"type": "note_on", "time": 150, "note": 64, "velocity": 102, "channel": 0}, {"type": "note_off", "time": 375, "note": 64, "velocity": 102, "channel": 0}, {"type": "note_on", "time": 450, "note": 62, "velocity": 103, "channel": 0}, {"type": "note_off", "time": 2928, "note": 62, "velocity": 103, "channel": 0}, {"type": "note_on", "time": 9054, "note": 55, "velocity": 89, "channel": 0}, {"type": "note_off", "time": 1214, "note": 55, "velocity": 89, "channel": 0}, {"type": "note_on", "time": 422, "note": 58, "velocity": 97, "channel": 0}, {"type": "note_off", "time": 2112, "note": 58, "velocity": 97, "channel": 0}, {"type": "note_on", "time": 211, "note": 60, "velocity": 114, "channel": 0}, {"type": "note_off", "time": 2323, "note": 60, "velocity": 114, "channel": 0}, {"type": "note_on", "time": 633, "note": 62, "velocity": 115, "channel": 0}, {"type": "note_off", "time": 3062, "note": 62, "velocity": 115, "channel": 0}, {"type": "note_on", "time": 844, "note": 62, "velocity": 111, "channel": 0}, {"type": "note_off", "time": 2481, "note": 62, "velocity": 111, "channel": 0}, {"type": "note_on", "time": 105, "note": 58, "velocity": 100, "channel": 0}, {"type": "note_off", "time": 2059, "note": 58, "velocity": 100, "channel": 0}, {"type": "note_on", "time": 0, "note": 64, "velocity": 116, "channel": 0}, {"type": "note_off", "time": 1900, "note": 64, "velocity": 116, "channel": 0}, {"type": "note_on", "time": 211, "note": 65, "velocity": 109, "channel": 0}, {"type": "note_off", "time": 2587, "note": 65, "velocity": 109, "channel": 0}, {"type": "note_on", "time": 316, "note": 65, "velocity": 110, "channel": 0}, {"type": "note_off", "time": 2323, "note": 65, "velocity": 110, "channel": 0}, {"type": "note_on", "time": 211, "note": 67, "velocity": 104, "channel": 0}, {"type": "note_off", "time": 2376, "note": 67, "velocity": 104, "channel": 0}, {"type": "note_on", "time": 466, "note": 62, "velocity": 114, "channel": 0}, {"type": "note_off", "time": 3304, "note": 62, "velocity": 114, "channel": 0}, {"type": "note_on", "time": 300, "note": 62, "velocity": 109, "channel": 0}, {"type": "note_off", "time": 12240, "note": 62, "velocity": 109, "channel": 0}, {"type": "note_on", "time": 795, "note": 60, "velocity": 109, "channel": 0}, {"type": "note_off", "time": 2217, "note": 60, "velocity": 109, "channel": 0}, {"type": "note_on", "time": 211, "note": 58, "velocity": 97, "channel": 0}, {"type": "note_off", "time": 1795, "note": 58, "velocity": 97, "channel": 0}, {"type": "note_on", "time": 105, "note": 60, "velocity": 102, "channel": 0}, {"type": "note_off", "time": 2323, "note": 60, "velocity": 102, "channel": 0}, {"type": "note_on", "time": 528, "note": 53, "velocity": 87, "channel": 0}, {"type": "note_off", "time": 2164, "note": 53, "velocity": 87, "channel": 0}, {"type": "note_on", "time": 105, "note": 58, "velocity": 98, "channel": 0}, {"type": "note_off", "time": 1531, "note": 58, "velocity": 98, "channel": 0}, {"type": "note_on", "time": 264, "note": 55, "velocity": 100, "channel": 0}, {"type": "note_off", "time": 1953, "note": 55, "velocity": 100, "channel": 0}, {"type": "note_on", "time": 739, "note": 50, "velocity": 100, "channel": 0}, {"type": "note_off", "time": 2006, "note": 50, "velocity": 100, "channel": 0}, {"type": "note_on", "time": 211, "note": 53, "velocity": 102, "channel": 0}, {"type": "note_off", "time": 1108, "note": 53, "velocity": 102, "channel": 0}, {"type": "note_on", "time": 0, "note": 55, "velocity": 101, "channel": 0}, {"type": "note_off", "time": 686, "note": 55, "velocity": 101, "channel": 0}, {"type": "note_on", "time": 0, "note": 53, "velocity": 99, "channel": 0}, {"type": "note_off", "time": 1478, "note": 53, "velocity": 99, "channel": 0}, {"type": "note_on", "time": 105, "note": 50, "velocity": 93, "channel": 0}, {"type": "note_off", "time": 1689, "note": 50, "velocity": 93, "channel": 0}, {"type": "note_on", "time": 0, "note": 51, "velocity": 90, "channel": 0}, {"type": "note_off", "time": 3009, "note": 51, "velocity": 90, "channel": 0}, {"type": "note_on", "time": 11035, "note": 63, "velocity": 113, "channel": 0}, {"type": "note_off", "time": 2217, "note": 63, "velocity": 113, "channel": 0}, {"type": "note_on", "time": 211, "note": 67, "velocity": 99, "channel": 0}, {"type": "note_off", "time": 2270, "note": 67, "velocity": 99, "channel": 0}, {"type": "note_on", "time": 580, "note": 70, "velocity": 104, "channel": 0}, {"type": "note_off", "time": 1900, "note": 70, "velocity": 104, "channel": 0}, {"type": "note_on", "time": 633, "note": 72, "velocity": 90, "channel": 0}, {"type": "note_off", "time": 633, "note": 72, "velocity": 90, "channel": 0}, {"type": "note_on", "time": 422, "note": 74, "velocity": 96, "channel": 0}, {"type": "note_off", "time": 2112, "note": 74, "velocity": 96, "channel": 0}, {"type": "note_on", "time": 52, "note": 75, "velocity": 99, "channel": 0}, {"type": "note_off", "time": 3062, "note": 75, "velocity": 99, "channel": 0}, {"type": "note_on", "time": 475, "note": 74, "velocity": 97, "channel": 0}, {"type": "note_off", "time": 1848, "note": 74, "velocity": 97, "channel": 0}, {"type": "note_on", "time": 316, "note": 72, "velocity": 97, "channel": 0}, {"type": "note_off", "time": 1583, "note": 72, "velocity": 97, "channel": 0}, {"type": "note_on", "time": 475, "note": 70, "velocity": 100, "channel": 0}, {"type": "note_off", "time": 2006, "note": 70, "velocity": 100, "channel": 0}, {"type": "note_on", "time": 580, "note": 67, "velocity": 100, "channel": 0}, {"type": "note_off", "time": 1742, "note": 67, "velocity": 100, "channel": 0}, {"type": "note_on", "time": 580, "note": 72, "velocity": 82, "channel": 0}, {"type": "note_off", "time": 1003, "note": 72, "velocity": 82, "channel": 0}, {"type": "note_on", "time": 105, "note": 73, "velocity": 89, "channel": 0}, {"type": "note_off", "time": 739, "note": 73, "velocity": 89, "channel": 0}, {"type": "note_on", "time": 0, "note": 74, "velocity": 94, "channel": 0}, {"type": "note_off", "time": 3168, "note": 74, "velocity": 94, "channel": 0}, {"type": "note_on", "time": 633, "note": 70, "velocity": 97, "channel": 0}, {"type": "note_off", "time": 3220, "note": 70, "velocity": 97, "channel": 0}, {"type": "note_on", "time": 792, "note": 72, "velocity": 95, "channel": 0}, {"type": "note_off", "time": 2956, "note": 72, "velocity": 95, "channel": 0}, {"type": "note_on", "time": 1161, "note": 69, "velocity": 104, "channel": 0}, {"type": "note_off", "time": 1214, "note": 69, "velocity": 104, "channel": 0}, {"type": "note_on", "time": 316, "note": 65, "velocity": 100, "channel": 0}, {"type": "note_off", "time": 950, "note": 65, "velocity": 100, "channel": 0}, {"type": "note_on", "time": 580, "note": 60, "velocity": 112, "channel": 0}, {"type": "note_off", "time": 1108, "note": 60, "velocity": 112, "channel": 0}, {"type": "note_on", "time": 0, "note": 57, "velocity": 102, "channel": 0}, {"type": "note_off", "time": 1372, "note": 57, "velocity": 102, "channel": 0}, {"type": "note_on", "time": 52, "note": 53, "velocity": 90, "channel": 0}, {"type": "note_off", "time": 1161, "note": 53, "velocity": 90, "channel": 0}, {"type": "note_on", "time": 316, "note": 63, "velocity": 111, "channel": 0}, {"type": "note_off", "time": 1478, "note": 63, "velocity": 111, "channel": 0}, {"type": "note_on", "time": 52, "note": 62, "velocity": 103, "channel": 0}, {"type": "note_off", "time": 633, "note": 62, "velocity": 103, "channel": 0}, {"type": "note_on", "time": 422, "note": 58, "velocity": 114, "channel": 0}, {"type": "note_off", "time": 1636, "note": 58, "velocity": 114, "channel": 0}, {"type": "note_on", "time": 52, "note": 55, "velocity": 97, "channel": 0}, {"type": "note_off", "time": 1320, "note": 55, "velocity": 97, "channel": 0}, {"type": "note_on", "time": 105, "note": 50, "velocity": 99, "channel": 0}, {"type": "note_off", "time": 607, "note": 50, "velocity": 99, "channel": 0}, {"type": "note_on", "time": 264, "note": 53, "velocity": 106, "channel": 0}, {"type": "note_off", "time": 950, "note": 53, "velocity": 106, "channel": 0}, {"type": "note_on", "time": 501, "note": 50, "velocity": 102, "channel": 0}, {"type": "note_off", "time": 976, "note": 50, "velocity": 102, "channel": 0}, {"type": "note_on", "time": 79, "note": 51, "velocity": 99, "channel": 0}, {"type": "note_off", "time": 1320, "note": 51, "velocity": 99, "channel": 0}, {"type": "note_on", "time": 432, "note": 62, "velocity": 104, "channel": 0}, {"type": "note_off", "time": 938, "note": 62, "velocity": 104, "channel": 0}, {"type": "note_on", "time": 375, "note": 61, "velocity": 109, "channel": 0}, {"type": "note_off", "time": 1314, "note": 61, "velocity": 109, "channel": 0}, {"type": "note_on", "time": 375, "note": 56, "velocity": 105, "channel": 0}, {"type": "note_off", "time": 1276, "note": 56, "velocity": 105, "channel": 0}, {"type": "note_on", "time": 249, "note": 53, "velocity": 104, "channel": 0}, {"type": "note_off", "time": 924, "note": 53, "velocity": 104, "channel": 0}, {"type": "note_on", "time": 237, "note": 60, "velocity": 113, "channel": 0}, {"type": "note_off", "time": 1188, "note": 60, "velocity": 113, "channel": 0}, {"type": "note_on", "time": 316, "note": 57, "velocity": 104, "channel": 0}, {"type": "note_off", "time": 1320, "note": 57, "velocity": 104, "channel": 0}, {"type": "note_on", "time": 158, "note": 58, "velocity": 104, "channel": 0}, {"type": "note_off", "time": 1108, "note": 58, "velocity": 104, "channel": 0}, {"type": "note_on", "time": 0, "note": 62, "velocity": 106, "channel": 0}, {"type": "note_off", "time": 1293, "note": 62, "velocity": 106, "channel": 0}, {"type": "note_on", "time": 237, "note": 65, "velocity": 96, "channel": 0}, {"type": "note_off", "time": 1108, "note": 65, "velocity": 96, "channel": 0}, {"type": "note_on", "time": 0, "note": 69, "velocity": 99, "channel": 0}, {"type": "note_off", "time": 1610, "note": 69, "velocity": 99, "channel": 0}, {"type": "note_on", "time": 0, "note": 72, "velocity": 98, "channel": 0}, {"type": "note_off", "time": 1504, "note": 72, "velocity": 98, "channel": 0}, {"type": "note_on", "time": 79, "note": 70, "velocity": 102, "channel": 0}, {"type": "note_off", "time": 1636, "note": 70, "velocity": 102, "channel": 0}, {"type": "note_on", "time": 0, "note": 67, "velocity": 99, "channel": 0}, {"type": "note_off", "time": 1267, "note": 67, "velocity": 99, "channel": 0}, {"type": "note_on", "time": 290, "note": 63, "velocity": 102, "channel": 0}, {"type": "note_off", "time": 1425, "note": 63, "velocity": 102, "channel": 0}, {"type": "note_on", "time": 105, "note": 58, "velocity": 101, "channel": 0}, {"type": "note_off", "time": 1399, "note": 58, "velocity": 101, "channel": 0}, {"type": "note_on", "time": 264, "note": 55, "velocity": 100, "channel": 0}, {"type": "note_off", "time": 1214, "note": 55, "velocity": 100, "channel": 0}, {"type": "note_on", "time": 132, "note": 62, "velocity": 106, "channel": 0}, {"type": "note_off", "time": 1293, "note": 62, "velocity": 106, "channel": 0}, {"type": "note_on", "time": 158, "note": 65, "velocity": 99, "channel": 0}, {"type": "note_off", "time": 1003, "note": 65, "velocity": 99, "channel": 0}, {"type": "note_on", "time": 369, "note": 60, "velocity": 109, "channel": 0}, {"type": "note_off", "time": 1267, "note": 60, "velocity": 109, "channel": 0}, {"type": "note_on", "time": 580, "note": 56, "velocity": 106, "channel": 0}, {"type": "note_off", "time": 897, "note": 56, "velocity": 106, "channel": 0}, {"type": "note_on", "time": 0, "note": 53, "velocity": 101, "channel": 0}, {"type": "note_off", "time": 1557, "note": 53, "velocity": 101, "channel": 0}, {"type": "note_on", "time": 237, "note": 58, "velocity": 102, "channel": 0}, {"type": "note_off", "time": 1240, "note": 58, "velocity": 102, "channel": 0}, {"type": "note_on", "time": 290, "note": 55, "velocity": 105, "channel": 0}, {"type": "note_off", "time": 1135, "note": 55, "velocity": 105, "channel": 0}, {"type": "note_on", "time": 369, "note": 51, "velocity": 107, "channel": 0}, {"type": "note_off", "time": 792, "note": 51, "velocity": 107, "channel": 0}, {"type": "note_on", "time": 448, "note": 48, "velocity": 96, "channel": 0}, {"type": "note_off", "time": 1161, "note": 48, "velocity": 96, "channel": 0}, {"type": "note_on", "time": 633, "note": 54, "velocity": 107, "channel": 0}, {"type": "note_off", "time": 1188, "note": 54, "velocity": 107, "channel": 0}, {"type": "note_on", "time": 475, "note": 50, "velocity": 96, "channel": 0}, {"type": "note_off", "time": 897, "note": 50, "velocity": 96, "channel": 0}, {"type": "note_on", "time": 158, "note": 48, "velocity": 102, "channel": 0}, {"type": "note_off", "time": 1425, "note": 48, "velocity": 102, "channel": 0}, {"type": "note_on", "time": 132, "note": 46, "velocity": 96, "channel": 0}, {"type": "note_off", "time": 4065, "note": 46, "velocity": 96, "channel": 0}, {"type": "note_on", "time": 15787, "note": 62, "velocity": 127, "channel": 0}, {"type": "note_off", "time": 2455, "note": 62, "velocity": 127, "channel": 0}, {"type": "note_on", "time": 79, "note": 61, "velocity": 118, "channel": 0}, {"type": "note_off", "time": 264, "note": 61, "velocity": 118, "channel": 0}, {"type": "note_on", "time": 158, "note": 60, "velocity": 106, "channel": 0}, {"type": "note_off", "time": 739, "note": 60, "velocity": 106, "channel": 0}, {"type": "note_on", "time": 0, "note": 58, "velocity": 82, "channel": 0}, {"type": "note_off", "time": 1267, "note": 58, "velocity": 82, "channel": 0}, {"type": "note_on", "time": 659, "note": 55, "velocity": 100, "channel": 0}, {"type": "note_off", "time": 8764, "note": 55, "velocity": 100, "channel": 0}, {"type": "note_on", "time": 184, "note": 58, "velocity": 102, "channel": 0}, {"type": "note_off", "time": 5649, "note": 58, "velocity": 102, "channel": 0}, {"type": "note_on", "time": 7920, "note": 63, "velocity": 126, "channel": 0}, {"type": "note_off", "time": 2956, "note": 63, "velocity": 126, "channel": 0}, {"type": "note_on", "time": 26, "note": 62, "velocity": 120, "channel": 0}, {"type": "note_off", "time": 343, "note": 62, "velocity": 120, "channel": 0}, {"type": "note_on", "time": 211, "note": 61, "velocity": 104, "channel": 0}, {"type": "note_off", "time": 1267, "note": 61, "velocity": 104, "channel": 0}, {"type": "note_on", "time": 1187, "note": 55, "velocity": 100, "channel": 0}, {"type": "note_off", "time": 7444, "note": 55, "velocity": 100, "channel": 0}, {"type": "note_on", "time": 369, "note": 58, "velocity": 95, "channel": 0}, {"type": "note_off", "time": 6943, "note": 58, "velocity": 95, "channel": 0}, {"type": "note_on", "time": 1214, "note": 63, "velocity": 117, "channel": 0}, {"type": "note_off", "time": 1980, "note": 63, "velocity": 117, "channel": 0}, {"type": "note_on", "time": 26, "note": 62, "velocity": 112, "channel": 0}, {"type": "note_off", "time": 2032, "note": 62, "velocity": 112, "channel": 0}, {"type": "note_on", "time": 211, "note": 60, "velocity": 113, "channel": 0}, {"type": "note_off", "time": 2191, "note": 60, "velocity": 113, "channel": 0}, {"type": "note_on", "time": 184, "note": 58, "velocity": 99, "channel": 0}, {"type": "note_off", "time": 1715, "note": 58, "velocity": 99, "channel": 0}, {"type": "note_on", "time": 0, "note": 57, "velocity": 99, "channel": 0}, {"type": "note_off", "time": 396, "note": 57, "velocity": 99, "channel": 0}, {"type": "note_on", "time": 158, "note": 53, "velocity": 85, "channel": 0}, {"type": "note_off", "time": 1108, "note": 53, "velocity": 85, "channel": 0}, {"type": "note_on", "time": 264, "note": 57, "velocity": 105, "channel": 0}, {"type": "note_off", "time": 2323, "note": 57, "velocity": 105, "channel": 0}, {"type": "note_on", "time": 184, "note": 60, "velocity": 110, "channel": 0}, {"type": "note_off", "time": 1478, "note": 60, "velocity": 110, "channel": 0}, {"type": "note_on", "time": 316, "note": 55, "velocity": 101, "channel": 0}, {"type": "note_off", "time": 2138, "note": 55, "velocity": 101, "channel": 0}, {"type": "note_on", "time": 105, "note": 54, "velocity": 101, "channel": 0}, {"type": "note_off", "time": 2164, "note": 54, "velocity": 101, "channel": 0}, {"type": "note_on", "time": 211, "note": 53, "velocity": 105, "channel": 0}, {"type": "note_off", "time": 1953, "note": 53, "velocity": 105, "channel": 0}, {"type": "note_on", "time": 607, "note": 51, "velocity": 97, "channel": 0}, {"type": "note_off", "time": 1980, "note": 51, "velocity": 97, "channel": 0}, {"type": "note_on", "time": 0, "note": 50, "velocity": 96, "channel": 0}, {"type": "note_off", "time": 2006, "note": 50, "velocity": 96, "channel": 0}, {"type": "note_on", "time": 343, "note": 54, "velocity": 107, "channel": 0}, {"type": "note_off", "time": 1980, "note": 54, "velocity": 107, "channel": 0}, {"type": "note_on", "time": 211, "note": 57, "velocity": 106, "channel": 0}, {"type": "note_off", "time": 1795, "note": 57, "velocity": 106, "channel": 0}, {"type": "note_on", "time": 290, "note": 60, "velocity": 110, "channel": 0}, {"type": "note_off", "time": 2402, "note": 60, "velocity": 110, "channel": 0}, {"type": "note_on", "time": 132, "note": 63, "velocity": 118, "channel": 0}, {"type": "note_off", "time": 1768, "note": 63, "velocity": 118, "channel": 0}, {"type": "note_on", "time": 237, "note": 66, "velocity": 105, "channel": 0}, {"type": "note_off", "time": 2032, "note": 66, "velocity": 105, "channel": 0}, {"type": "note_on", "time": 105, "note": 62, "velocity": 110, "channel": 0}, {"type": "note_off", "time": 2296, "note": 62, "velocity": 110, "channel": 0}, {"type": "note_on", "time": 26, "note": 60, "velocity": 113, "channel": 0}, {"type": "note_off", "time": 2191, "note": 60, "velocity": 113, "channel": 0}, {"type": "note_on", "time": 396, "note": 58, "velocity": 86, "channel": 0}, {"type": "note_off", "time": 12856, "note": 58, "velocity": 86, "channel": 0}, {"type": "note_on", "time": 3299, "note": 50, "velocity": 97, "channel": 0}, {"type": "note_off", "time": 1584, "note": 50, "velocity": 97, "channel": 0}, {"type": "note_on", "time": 494, "note": 58, "velocity": 104, "channel": 0}, {"type": "note_off", "time": 2816, "note": 58, "velocity": 104, "channel": 0}, {"type": "note_on", "time": 901, "note": 58, "velocity": 104, "channel": 0}, {"type": "note_off", "time": 2478, "note": 58, "velocity": 104, "channel": 0}, {"type": "note_on", "time": 563, "note": 58, "velocity": 103, "channel": 0}, {"type": "note_off", "time": 2027, "note": 58, "velocity": 103, "channel": 0}, {"type": "note_on", "time": 488, "note": 58, "velocity": 105, "channel": 0}, {"type": "note_off", "time": 2553, "note": 58, "velocity": 105, "channel": 0}, {"type": "note_on", "time": 1013, "note": 58, "velocity": 102, "channel": 0}, {"type": "note_off", "time": 2252, "note": 58, "velocity": 102, "channel": 0}, {"type": "note_on", "time": 375, "note": 60, "velocity": 111, "channel": 0}, {"type": "note_off", "time": 2402, "note": 60, "velocity": 111, "channel": 0}, {"type": "note_on", "time": 0, "note": 57, "velocity": 103, "channel": 0}, {"type": "note_off", "time": 2966, "note": 57, "velocity": 103, "channel": 0}, {"type": "note_on", "time": 675, "note": 57, "velocity": 105, "channel": 0}, {"type": "note_off", "time": 2440, "note": 57, "velocity": 105, "channel": 0}, {"type": "note_on", "time": 525, "note": 55, "velocity": 99, "channel": 0}, {"type": "note_off", "time": 1614, "note": 55, "velocity": 99, "channel": 0}, {"type": "note_on", "time": 187, "note": 57, "velocity": 108, "channel": 0}, {"type": "note_off", "time": 3116, "note": 57, "velocity": 108, "channel": 0}, {"type": "note_on", "time": 1314, "note": 57, "velocity": 105, "channel": 0}, {"type": "note_off", "time": 2553, "note": 57, "velocity": 105, "channel": 0}, {"type": "note_on", "time": 450, "note": 55, "velocity": 101, "channel": 0}, {"type": "note_off", "time": 1802, "note": 55, "velocity": 101, "channel": 0}, {"type": "note_on", "time": 262, "note": 57, "velocity": 110, "channel": 0}, {"type": "note_off", "time": 2553, "note": 57, "velocity": 110, "channel": 0}, {"type": "note_on", "time": 901, "note": 57, "velocity": 110, "channel": 0}, {"type": "note_off", "time": 3003, "note": 57, "velocity": 110, "channel": 0}, {"type": "note_on", "time": 488, "note": 54, "velocity": 100, "channel": 0}, {"type": "note_off", "time": 1764, "note": 54, "velocity": 100, "channel": 0}, {"type": "note_on", "time": 300, "note": 57, "velocity": 111, "channel": 0}, {"type": "note_off", "time": 3078, "note": 57, "velocity": 111, "channel": 0}, {"type": "note_on", "time": 1426, "note": 57, "velocity": 107, "channel": 0}, {"type": "note_off", "time": 2402, "note": 57, "velocity": 107, "channel": 0}, {"type": "note_on", "time": 577, "note": 50, "velocity": 89, "channel": 0}, {"type": "note_off", "time": 2006, "note": 50, "velocity": 89, "channel": 0}, {"type": "note_on", "time": 16341, "note": 50, "velocity": 104, "channel": 0}, {"type": "note_off", "time": 1636, "note": 50, "velocity": 104, "channel": 0}, {"type": "note_on", "time": 686, "note": 56, "velocity": 113, "channel": 0}, {"type": "note_off", "time": 2772, "note": 56, "velocity": 113, "channel": 0}, {"type": "note_on", "time": 924, "note": 56, "velocity": 108, "channel": 0}, {"type": "note_off", "time": 2085, "note": 56, "velocity": 108, "channel": 0}, {"type": "note_on", "time": 264, "note": 55, "velocity": 108, "channel": 0}, {"type": "note_off", "time": 2455, "note": 55, "velocity": 108, "channel": 0}, {"type": "note_on", "time": 633, "note": 56, "velocity": 109, "channel": 0}, {"type": "note_off", "time": 3299, "note": 56, "velocity": 109, "channel": 0}, {"type": "note_on", "time": 844, "note": 56, "velocity": 112, "channel": 0}, {"type": "note_off", "time": 2138, "note": 56, "velocity": 112, "channel": 0}, {"type": "note_on", "time": 316, "note": 58, "velocity": 103, "channel": 0}, {"type": "note_off", "time": 2006, "note": 58, "velocity": 103, "channel": 0}, {"type": "note_on", "time": 950, "note": 55, "velocity": 102, "channel": 0}, {"type": "note_off", "time": 2085, "note": 55, "velocity": 102, "channel": 0}, {"type": "note_on", "time": 1240, "note": 55, "velocity": 100, "channel": 0}, {"type": "note_off", "time": 2428, "note": 55, "velocity": 100, "channel": 0}, {"type": "note_on", "time": 263, "note": 54, "velocity": 102, "channel": 0}, {"type": "note_off", "time": 1980, "note": 54, "velocity": 102, "channel": 0}, {"type": "note_on", "time": 607, "note": 55, "velocity": 98, "channel": 0}, {"type": "note_off", "time": 3141, "note": 55, "velocity": 98, "channel": 0}, {"type": "note_on", "time": 686, "note": 55, "velocity": 100, "channel": 0}, {"type": "note_off", "time": 2455, "note": 55, "velocity": 100, "channel": 0}, {"type": "note_on", "time": 528, "note": 53, "velocity": 103, "channel": 0}, {"type": "note_off", "time": 1716, "note": 53, "velocity": 103, "channel": 0}, {"type": "note_on", "time": 633, "note": 55, "velocity": 101, "channel": 0}, {"type": "note_off", "time": 2244, "note": 55, "velocity": 101, "channel": 0}, {"type": "note_on", "time": 871, "note": 51, "velocity": 95, "channel": 0}, {"type": "note_off", "time": 1584, "note": 51, "velocity": 95, "channel": 0}, {"type": "note_on", "time": 1980, "note": 55, "velocity": 107, "channel": 0}, {"type": "note_off", "time": 1980, "note": 55, "velocity": 107, "channel": 0}, {"type": "note_on", "time": 818, "note": 60, "velocity": 120, "channel": 0}, {"type": "note_off", "time": 3827, "note": 60, "velocity": 120, "channel": 0}, {"type": "note_on", "time": 52, "note": 61, "velocity": 119, "channel": 0}, {"type": "note_off", "time": 686, "note": 61, "velocity": 119, "channel": 0}, {"type": "note_on", "time": 52, "note": 62, "velocity": 117, "channel": 0}, {"type": "note_off", "time": 3827, "note": 62, "velocity": 117, "channel": 0}, {"type": "note_on", "time": 396, "note": 63, "velocity": 101, "channel": 0}, {"type": "note_off", "time": 27508, "note": 63, "velocity": 101, "channel": 0}, {"type": "note_on", "time": 633, "note": 62, "velocity": 113, "channel": 0}, {"type": "note_off", "time": 2376, "note": 62, "velocity": 113, "channel": 0}, {"type": "note_on", "time": 316, "note": 67, "velocity": 103, "channel": 0}, {"type": "note_off", "time": 1308, "note": 67, "velocity": 103, "channel": 0}, {"type": "note_on", "time": 0, "note": 66, "velocity": 100, "channel": 0}, {"type": "note_off", "time": 563, "note": 66, "velocity": 100, "channel": 0}, {"type": "note_on", "time": 150, "note": 61, "velocity": 112, "channel": 0}, {"type": "note_off", "time": 1314, "note": 61, "velocity": 112, "channel": 0}, {"type": "note_on", "time": 300, "note": 60, "velocity": 106, "channel": 0}, {"type": "note_off", "time": 901, "note": 60, "velocity": 106, "channel": 0}, {"type": "note_on", "time": 262, "note": 58, "velocity": 101, "channel": 0}, {"type": "note_off", "time": 976, "note": 58, "velocity": 101, "channel": 0}, {"type": "note_on", "time": 826, "note": 60, "velocity": 110, "channel": 0}, {"type": "note_off", "time": 4092, "note": 60, "velocity": 110, "channel": 0}, {"type": "note_on", "time": 638, "note": 57, "velocity": 94, "channel": 0}, {"type": "note_off", "time": 1689, "note": 57, "velocity": 94, "channel": 0}, {"type": "note_on", "time": 525, "note": 58, "velocity": 99, "channel": 0}, {"type": "note_off", "time": 1914, "note": 58, "velocity": 99, "channel": 0}, {"type": "note_on", "time": 488, "note": 60, "velocity": 115, "channel": 0}, {"type": "note_off", "time": 4392, "note": 60, "velocity": 115, "channel": 0}, {"type": "note_on", "time": 525, "note": 56, "velocity": 107, "channel": 0}, {"type": "note_off", "time": 1802, "note": 56, "velocity": 107, "channel": 0}, {"type": "note_on", "time": 187, "note": 57, "velocity": 108, "channel": 0}, {"type": "note_off", "time": 7096, "note": 57, "velocity": 108, "channel": 0}, {"type": "note_on", "time": 750, "note": 53, "velocity": 107, "channel": 0}, {"type": "note_off", "time": 2365, "note": 53, "velocity": 107, "channel": 0}, {"type": "note_on", "time": 300, "note": 54, "velocity": 107, "channel": 0}, {"type": "note_off", "time": 1389, "note": 54, "velocity": 107, "channel": 0}, {"type": "note_on", "time": 300, "note": 53, "velocity": 109, "channel": 0}, {"type": "note_off", "time": 2327, "note": 53, "velocity": 109, "channel": 0}, {"type": "note_on", "time": 563, "note": 50, "velocity": 102, "channel": 0}, {"type": "note_off", "time": 1989, "note": 50, "velocity": 102, "channel": 0}, {"type": "note_on", "time": 0, "note": 51, "velocity": 102, "channel": 0}, {"type": "note_off", "time": 2365, "note": 51, "velocity": 102, "channel": 0}, {"type": "note_on", "time": 225, "note": 49, "velocity": 93, "channel": 0}, {"type": "note_off", "time": 1914, "note": 49, "velocity": 93, "channel": 0}, {"type": "note_on", "time": 150, "note": 50, "velocity": 104, "channel": 0}, {"type": "note_off", "time": 1764, "note": 50, "velocity": 104, "channel": 0}, {"type": "note_on", "time": 488, "note": 58, "velocity": 99, "channel": 0}, {"type": "note_off", "time": 3642, "note": 58, "velocity": 99, "channel": 0}, {"type": "note_on", "time": 37, "note": 57, "velocity": 98, "channel": 0}, {"type": "note_off", "time": 788, "note": 57, "velocity": 98, "channel": 0}, {"type": "note_on", "time": 1126, "note": 50, "velocity": 92, "channel": 0}, {"type": "note_off", "time": 1163, "note": 50, "velocity": 92, "channel": 0}, {"type": "note_on", "time": 300, "note": 51, "velocity": 102, "channel": 0}, {"type": "note_off", "time": 1689, "note": 51, "velocity": 102, "channel": 0}, {"type": "note_on", "time": 488, "note": 60, "velocity": 107, "channel": 0}, {"type": "note_off", "time": 5744, "note": 60, "velocity": 107, "channel": 0}, {"type": "note_on", "time": 7321, "note": 53, "velocity": 111, "channel": 0}, {"type": "note_off", "time": 2065, "note": 53, "velocity": 111, "channel": 0}, {"type": "note_on", "time": 450, "note": 55, "velocity": 105, "channel": 0}, {"type": "note_off", "time": 1764, "note": 55, "velocity": 105, "channel": 0}, {"type": "note_on", "time": 675, "note": 62, "velocity": 112, "channel": 0}, {"type": "note_off", "time": 1652, "note": 62, "velocity": 112, "channel": 0}, {"type": "note_on", "time": 300, "note": 57, "velocity": 110, "channel": 0}, {"type": "note_off", "time": 1914, "note": 57, "velocity": 110, "channel": 0}, {"type": "note_on", "time": 262, "note": 58, "velocity": 102, "channel": 0}, {"type": "note_off", "time": 1839, "note": 58, "velocity": 102, "channel": 0}, {"type": "note_on", "time": 863, "note": 67, "velocity": 105, "channel": 0}, {"type": "note_off", "time": 2816, "note": 67, "velocity": 105, "channel": 0}, {"type": "note_on", "time": 1351, "note": 58, "velocity": 98, "channel": 0}, {"type": "note_off", "time": 1914, "note": 58, "velocity": 98, "channel": 0}, {"type": "note_on", "time": 262, "note": 60, "velocity": 115, "channel": 0}, {"type": "note_off", "time": 1877, "note": 60, "velocity": 115, "channel": 0}, {"type": "note_on", "time": 863, "note": 69, "velocity": 102, "channel": 0}, {"type": "note_off", "time": 1051, "note": 69, "velocity": 102, "channel": 0}, {"type": "note_on", "time": 37, "note": 68, "velocity": 87, "channel": 0}, {"type": "note_off", "time": 375, "note": 68, "velocity": 87, "channel": 0}, {"type": "note_on", "time": 638, "note": 60, "velocity": 107, "channel": 0}, {"type": "note_off", "time": 1877, "note": 60, "velocity": 107, "channel": 0}, {"type": "note_on", "time": 262, "note": 62, "velocity": 108, "channel": 0}, {"type": "note_off", "time": 1727, "note": 62, "velocity": 108, "channel": 0}, {"type": "note_on", "time": 413, "note": 70, "velocity": 101, "channel": 0}, {"type": "note_off", "time": 1464, "note": 70, "velocity": 101, "channel": 0}, {"type": "note_on", "time": 0, "note": 69, "velocity": 87, "channel": 0}, {"type": "note_off", "time": 1201, "note": 69, "velocity": 87, "channel": 0}, {"type": "note_on", "time": 37, "note": 62, "velocity": 108, "channel": 0}, {"type": "note_off", "time": 1652, "note": 62, "velocity": 108, "channel": 0}, {"type": "note_on", "time": 300, "note": 67, "velocity": 98, "channel": 0}, {"type": "note_off", "time": 1501, "note": 67, "velocity": 98, "channel": 0}, {"type": "note_on", "time": 1013, "note": 74, "velocity": 94, "channel": 0}, {"type": "note_off", "time": 3717, "note": 74, "velocity": 94, "channel": 0}, {"type": "note_on", "time": 826, "note": 69, "velocity": 100, "channel": 0}, {"type": "note_off", "time": 1727, "note": 69, "velocity": 100, "channel": 0}, {"type": "note_on", "time": 675, "note": 72, "velocity": 97, "channel": 0}, {"type": "note_off", "time": 1652, "note": 72, "velocity": 97, "channel": 0}, {"type": "note_on", "time": 337, "note": 70, "velocity": 99, "channel": 0}, {"type": "note_off", "time": 2065, "note": 70, "velocity": 99, "channel": 0}, {"type": "note_on", "time": 6008, "note": 74, "velocity": 100, "channel": 0}, {"type": "note_off", "time": 1319, "note": 74, "velocity": 100, "channel": 0}, {"type": "note_on", "time": 0, "note": 75, "velocity": 103, "channel": 0}, {"type": "note_off", "time": 3220, "note": 75, "velocity": 103, "channel": 0}, {"type": "note_on", "time": 0, "note": 74, "velocity": 98, "channel": 0}, {"type": "note_off", "time": 1689, "note": 74, "velocity": 98, "channel": 0}, {"type": "note_on", "time": 897, "note": 70, "velocity": 104, "channel": 0}, {"type": "note_off", "time": 1425, "note": 70, "velocity": 104, "channel": 0}, {"type": "note_on", "time": 527, "note": 67, "velocity": 98, "channel": 0}, {"type": "note_off", "time": 2059, "note": 67, "velocity": 98, "channel": 0}, {"type": "note_on", "time": 792, "note": 63, "velocity": 93, "channel": 0}, {"type": "note_off", "time": 1900, "note": 63, "velocity": 93, "channel": 0}, {"type": "note_on", "time": 1221, "note": 72, "velocity": 100, "channel": 0}, {"type": "note_off", "time": 1389, "note": 72, "velocity": 100, "channel": 0}, {"type": "note_on", "time": 0, "note": 73, "velocity": 96, "channel": 0}, {"type": "note_off", "time": 450, "note": 73, "velocity": 96, "channel": 0}, {"type": "note_on", "time": 300, "note": 74, "velocity": 89, "channel": 0}, {"type": "note_off", "time": 901, "note": 74, "velocity": 89, "channel": 0}, {"type": "note_on", "time": 225, "note": 72, "velocity": 99, "channel": 0}, {"type": "note_off", "time": 1764, "note": 72, "velocity": 99, "channel": 0}, {"type": "note_on", "time": 675, "note": 70, "velocity": 104, "channel": 0}, {"type": "note_off", "time": 1576, "note": 70, "velocity": 104, "channel": 0}, {"type": "note_on", "time": 0, "note": 71, "velocity": 89, "channel": 0}, {"type": "note_off", "time": 1526, "note": 71, "velocity": 89, "channel": 0}, {"type": "note_on", "time": 0, "note": 69, "velocity": 92, "channel": 0}, {"type": "note_off", "time": 1051, "note": 69, "velocity": 92, "channel": 0}, {"type": "note_on", "time": 275, "note": 67, "velocity": 99, "channel": 0}, {"type": "note_off", "time": 1539, "note": 67, "velocity": 99, "channel": 0}, {"type": "note_on", "time": 863, "note": 65, "velocity": 104, "channel": 0}, {"type": "note_off", "time": 1689, "note": 65, "velocity": 104, "channel": 0}, {"type": "note_on", "time": 300, "note": 63, "velocity": 112, "channel": 0}, {"type": "note_off", "time": 1839, "note": 63, "velocity": 112, "channel": 0}, {"type": "note_on", "time": 262, "note": 62, "velocity": 103, "channel": 0}, {"type": "note_off", "time": 1727, "note": 62, "velocity": 103, "channel": 0}, {"type": "note_on", "time": 901, "note": 58, "velocity": 101, "channel": 0}, {"type": "note_off", "time": 1239, "note": 58, "velocity": 101, "channel": 0}, {"type": "note_on", "time": 600, "note": 53, "velocity": 102, "channel": 0}, {"type": "note_off", "time": 2252, "note": 53, "velocity": 102, "channel": 0}, {"type": "note_on", "time": 413, "note": 51, "velocity": 99, "channel": 0}, {"type": "note_off", "time": 1689, "note": 51, "velocity": 99, "channel": 0}, {"type": "note_on", "time": 0, "note": 50, "velocity": 103, "channel": 0}, {"type": "note_off", "time": 2327, "note": 50, "velocity": 103, "channel": 0}, {"type": "note_on", "time": 150, "note": 60, "velocity": 105, "channel": 0}, {"type": "note_off", "time": 675, "note": 60, "velocity": 105, "channel": 0}, {"type": "note_on", "time": 0, "note": 61, "velocity": 113, "channel": 0}, {"type": "note_off", "time": 337, "note": 61, "velocity": 113, "channel": 0}, {"type": "note_on", "time": 262, "note": 62, "velocity": 118, "channel": 0}, {"type": "note_off", "time": 2177, "note": 62, "velocity": 118, "channel": 0}, {"type": "note_on", "time": 150, "note": 58, "velocity": 98, "channel": 0}, {"type": "note_off", "time": 1764, "note": 58, "velocity": 98, "channel": 0}, {"type": "note_on", "time": 300, "note": 53, "velocity": 96, "channel": 0}, {"type": "note_off", "time": 1426, "note": 53, "velocity": 96, "channel": 0}, {"type": "note_on", "time": 413, "note": 61, "velocity": 111, "channel": 0}, {"type": "note_off", "time": 3191, "note": 61, "velocity": 111, "channel": 0}, {"type": "note_on", "time": 413, "note": 58, "velocity": 98, "channel": 0}, {"type": "note_off", "time": 1126, "note": 58, "velocity": 98, "channel": 0}, {"type": "note_on", "time": 488, "note": 54, "velocity": 106, "channel": 0}, {"type": "note_off", "time": 863, "note": 54, "velocity": 106, "channel": 0}, {"type": "note_on", "time": 300, "note": 51, "velocity": 100, "channel": 0}, {"type": "note_off", "time": 938, "note": 51, "velocity": 100, "channel": 0}, {"type": "note_on", "time": 863, "note": 60, "velocity": 113, "channel": 0}, {"type": "note_off", "time": 1727, "note": 60, "velocity": 113, "channel": 0}, {"type": "note_on", "time": 713, "note": 58, "velocity": 99, "channel": 0}, {"type": "note_off", "time": 1952, "note": 58, "velocity": 99, "channel": 0}, {"type": "note_on", "time": 300, "note": 56, "velocity": 108, "channel": 0}, {"type": "note_off", "time": 2215, "note": 56, "velocity": 108, "channel": 0}, {"type": "note_on", "time": 187, "note": 54, "velocity": 105, "channel": 0}, {"type": "note_off", "time": 1877, "note": 54, "velocity": 105, "channel": 0}, {"type": "note_on", "time": 488, "note": 53, "velocity": 93, "channel": 0}, {"type": "note_off", "time": 6458, "note": 53, "velocity": 93, "channel": 0}, {"type": "note_on", "time": 5335, "note": 64, "velocity": 106, "channel": 0}, {"type": "note_off", "time": 1003, "note": 64, "velocity": 106, "channel": 0}, {"type": "note_on", "time": 316, "note": 65, "velocity": 112, "channel": 0}, {"type": "note_off", "time": 2323, "note": 65, "velocity": 112, "channel": 0}, {"type": "note_on", "time": 792, "note": 65, "velocity": 114, "channel": 0}, {"type": "note_off", "time": 2534, "note": 65, "velocity": 114, "channel": 0}, {"type": "note_on", "time": 105, "note": 63, "velocity": 121, "channel": 0}, {"type": "note_off", "time": 8500, "note": 63, "velocity": 121, "channel": 0}, {"type": "note_on", "time": 580, "note": 61, "velocity": 121, "channel": 0}, {"type": "note_off", "time": 1795, "note": 61, "velocity": 121, "channel": 0}, {"type": "note_on", "time": 475, "note": 60, "velocity": 116, "channel": 0}, {"type": "note_off", "time": 1848, "note": 60, "velocity": 116, "channel": 0}, {"type": "note_on", "time": 316, "note": 58, "velocity": 90, "channel": 0}, {"type": "note_off", "time": 12249, "note": 58, "velocity": 90, "channel": 0}, {"type": "note_on", "time": 346, "note": 53, "velocity": 104, "channel": 0}, {"type": "note_off", "time": 1389, "note": 53, "velocity": 104, "channel": 0}, {"type": "note_on", "time": 488, "note": 61, "velocity": 114, "channel": 0}, {"type": "note_off", "time": 3266, "note": 61, "velocity": 114, "channel": 0}, {"type": "note_on", "time": 563, "note": 61, "velocity": 115, "channel": 0}, {"type": "note_off", "time": 2703, "note": 61, "velocity": 115, "channel": 0}, {"type": "note_on", "time": 300, "note": 58, "velocity": 97, "channel": 0}, {"type": "note_off", "time": 1464, "note": 58, "velocity": 97, "channel": 0}, {"type": "note_on", "time": 225, "note": 61, "velocity": 113, "channel": 0}, {"type": "note_on", "time": 901, "note": 62, "velocity": 112, "channel": 0}, {"type": "note_off", "time": 0, "note": 61, "velocity": 113, "channel": 0}, {"type": "note_off", "time": 413, "note": 62, "velocity": 112, "channel": 0}, {"type": "note_on", "time": 225, "note": 63, "velocity": 113, "channel": 0}, {"type": "note_off", "time": 6983, "note": 63, "velocity": 113, "channel": 0}, {"type": "note_on", "time": 713, "note": 58, "velocity": 97, "channel": 0}, {"type": "note_off", "time": 3116, "note": 58, "velocity": 97, "channel": 0}, {"type": "note_on", "time": 1426, "note": 58, "velocity": 105, "channel": 0}, {"type": "note_off", "time": 2215, "note": 58, "velocity": 105, "channel": 0}, {"type": "note_on", "time": 600, "note": 53, "velocity": 102, "channel": 0}, {"type": "note_off", "time": 1351, "note": 53, "velocity": 102, "channel": 0}, {"type": "note_on", "time": 525, "note": 60, "velocity": 9, "channel": 0}, {"type": "note_off", "time": 15243, "note": 60, "velocity": 9, "channel": 0}, {"type": "note_on", "time": 10501, "note": 67, "velocity": 109, "channel": 0}, {"type": "note_off", "time": 2059, "note": 67, "velocity": 109, "channel": 0}, {"type": "note_on", "time": 1214, "note": 70, "velocity": 107, "channel": 0}, {"type": "note_off", "time": 2323, "note": 70, "velocity": 107, "channel": 0}, {"type": "note_on", "time": 105, "note": 68, "velocity": 110, "channel": 0}, {"type": "note_off", "time": 1848, "note": 68, "velocity": 110, "channel": 0}, {"type": "note_on", "time": 0, "note": 67, "velocity": 107, "channel": 0}, {"type": "note_off", "time": 2059, "note": 67, "velocity": 107, "channel": 0}, {"type": "note_on", "time": 52, "note": 65, "velocity": 111, "channel": 0}, {"type": "note_off", "time": 1900, "note": 65, "velocity": 111, "channel": 0}, {"type": "note_on", "time": 1003, "note": 64, "velocity": 120, "channel": 0}, {"type": "note_off", "time": 2323, "note": 64, "velocity": 120, "channel": 0}, {"type": "note_on", "time": 264, "note": 65, "velocity": 108, "channel": 0}, {"type": "note_off", "time": 1531, "note": 65, "velocity": 108, "channel": 0}, {"type": "note_on", "time": 158, "note": 67, "velocity": 105, "channel": 0}, {"type": "note_off", "time": 2059, "note": 67, "velocity": 105, "channel": 0}, {"type": "note_on", "time": 527, "note": 68, "velocity": 109, "channel": 0}, {"type": "note_off", "time": 1795, "note": 68, "velocity": 109, "channel": 0}, {"type": "note_on", "time": 316, "note": 65, "velocity": 109, "channel": 0}, {"type": "note_off", "time": 1900, "note": 65, "velocity": 109, "channel": 0}, {"type": "note_on", "time": 369, "note": 60, "velocity": 116, "channel": 0}, {"type": "note_off", "time": 1953, "note": 60, "velocity": 116, "channel": 0}, {"type": "note_on", "time": 105, "note": 56, "velocity": 97, "channel": 0}, {"type": "note_off", "time": 2006, "note": 56, "velocity": 97, "channel": 0}, {"type": "note_on", "time": 422, "note": 53, "velocity": 102, "channel": 0}, {"type": "note_off", "time": 1795, "note": 53, "velocity": 102, "channel": 0}, {"type": "note_on", "time": 1689, "note": 63, "velocity": 121, "channel": 0}, {"type": "note_off", "time": 1795, "note": 63, "velocity": 121, "channel": 0}, {"type": "note_on", "time": 158, "note": 64, "velocity": 115, "channel": 0}, {"type": "note_off", "time": 1478, "note": 64, "velocity": 115, "channel": 0}, {"type": "note_on", "time": 463, "note": 60, "velocity": 112, "channel": 0}, {"type": "note_off", "time": 1214, "note": 60, "velocity": 112, "channel": 0}, {"type": "note_on", "time": 1014, "note": 57, "velocity": 109, "channel": 0}, {"type": "note_off", "time": 1900, "note": 57, "velocity": 109, "channel": 0}, {"type": "note_on", "time": 713, "note": 56, "velocity": 109, "channel": 0}, {"type": "note_off", "time": 1239, "note": 56, "velocity": 109, "channel": 0}, {"type": "note_on", "time": 488, "note": 54, "velocity": 107, "channel": 0}, {"type": "note_off", "time": 1576, "note": 54, "velocity": 107, "channel": 0}, {"type": "note_on", "time": 375, "note": 53, "velocity": 104, "channel": 0}, {"type": "note_off", "time": 1839, "note": 53, "velocity": 104, "channel": 0}, {"type": "note_on", "time": 225, "note": 56, "velocity": 104, "channel": 0}, {"type": "note_off", "time": 1276, "note": 56, "velocity": 104, "channel": 0}, {"type": "note_on", "time": 0, "note": 55, "velocity": 101, "channel": 0}, {"type": "note_off", "time": 600, "note": 55, "velocity": 101, "channel": 0}, {"type": "note_on", "time": 225, "note": 51, "velocity": 100, "channel": 0}, {"type": "note_off", "time": 1727, "note": 51, "velocity": 100, "channel": 0}, {"type": "note_on", "time": 325, "note": 49, "velocity": 99, "channel": 0}, {"type": "note_off", "time": 5755, "note": 49, "velocity": 99, "channel": 0}, {"type": "note_on", "time": 753, "note": 64, "velocity": 108, "channel": 0}, {"type": "note_off", "time": 1389, "note": 64, "velocity": 108, "channel": 0}, {"type": "note_on", "time": 337, "note": 65, "velocity": 108, "channel": 0}, {"type": "note_off", "time": 4580, "note": 65, "velocity": 108, "channel": 0}, {"type": "note_on", "time": 450, "note": 65, "velocity": 109, "channel": 0}, {"type": "note_off", "time": 2665, "note": 65, "velocity": 109, "channel": 0}, {"type": "note_on", "time": 112, "note": 63, "velocity": 113, "channel": 0}, {"type": "note_off", "time": 8973, "note": 63, "velocity": 113, "channel": 0}, {"type": "note_on", "time": 300, "note": 61, "velocity": 114, "channel": 0}, {"type": "note_off", "time": 2177, "note": 61, "velocity": 114, "channel": 0}, {"type": "note_on", "time": 0, "note": 60, "velocity": 109, "channel": 0}, {"type": "note_off", "time": 2290, "note": 60, "velocity": 109, "channel": 0}, {"type": "note_on", "time": 600, "note": 58, "velocity": 92, "channel": 0}, {"type": "note_off", "time": 12315, "note": 58, "velocity": 92, "channel": 0}, {"type": "note_on", "time": 4993, "note": 61, "velocity": 115, "channel": 0}, {"type": "note_off", "time": 2327, "note": 61, "velocity": 115, "channel": 0}, {"type": "note_on", "time": 450, "note": 58, "velocity": 104, "channel": 0}, {"type": "note_off", "time": 2440, "note": 58, "velocity": 104, "channel": 0}, {"type": "note_on", "time": 112, "note": 62, "velocity": 112, "channel": 0}, {"type": "note_off", "time": 1239, "note": 62, "velocity": 112, "channel": 0}, {"type": "note_on", "time": 37, "note": 63, "velocity": 120, "channel": 0}, {"type": "note_off", "time": 6683, "note": 63, "velocity": 120, "channel": 0}, {"type": "note_on", "time": 488, "note": 61, "velocity": 106, "channel": 0}, {"type": "note_off", "time": 1689, "note": 61, "velocity": 106, "channel": 0}, {"type": "note_on", "time": 0, "note": 62, "velocity": 112, "channel": 0}, {"type": "note_off", "time": 450, "note": 62, "velocity": 112, "channel": 0}, {"type": "note_on", "time": 37, "note": 63, "velocity": 113, "channel": 0}, {"type": "note_off", "time": 2327, "note": 63, "velocity": 113, "channel": 0}, {"type": "note_on", "time": 300, "note": 61, "velocity": 109, "channel": 0}, {"type": "note_off", "time": 1539, "note": 61, "velocity": 109, "channel": 0}, {"type": "note_on", "time": 1839, "note": 58, "velocity": 101, "channel": 0}, {"type": "note_off", "time": 1802, "note": 58, "velocity": 101, "channel": 0}, {"type": "note_on", "time": 337, "note": 60, "velocity": 105, "channel": 0}, {"type": "note_off", "time": 26881, "note": 60, "velocity": 105, "channel": 0}, {"type": "note_on", "time": 1354, "note": 60, "velocity": 112, "channel": 0}, {"type": "note_off", "time": 2027, "note": 60, "velocity": 112, "channel": 0}, {"type": "note_on", "time": 413, "note": 63, "velocity": 116, "channel": 0}, {"type": "note_off", "time": 1389, "note": 63, "velocity": 116, "channel": 0}, {"type": "note_on", "time": 187, "note": 65, "velocity": 110, "channel": 0}, {"type": "note_off", "time": 1952, "note": 65, "velocity": 110, "channel": 0}, {"type": "note_on", "time": 713, "note": 67, "velocity": 110, "channel": 0}, {"type": "note_off", "time": 1952, "note": 67, "velocity": 110, "channel": 0}, {"type": "note_on", "time": 112, "note": 68, "velocity": 106, "channel": 0}, {"type": "note_off", "time": 938, "note": 68, "velocity": 106, "channel": 0}, {"type": "note_on", "time": 262, "note": 69, "velocity": 105, "channel": 0}, {"type": "note_off", "time": 2816, "note": 69, "velocity": 105, "channel": 0}, {"type": "note_on", "time": 1126, "note": 70, "velocity": 106, "channel": 0}, {"type": "note_off", "time": 1464, "note": 70, "velocity": 106, "channel": 0}, {"type": "note_on", "time": 413, "note": 72, "velocity": 99, "channel": 0}, {"type": "note_off", "time": 1464, "note": 72, "velocity": 99, "channel": 0}, {"type": "note_on", "time": 413, "note": 67, "velocity": 100, "channel": 0}, {"type": "note_off", "time": 4092, "note": 67, "velocity": 100, "channel": 0}, {"type": "note_on", "time": 976, "note": 65, "velocity": 99, "channel": 0}, {"type": "note_off", "time": 2102, "note": 65, "velocity": 99, "channel": 0}, {"type": "note_on", "time": 1276, "note": 67, "velocity": 101, "channel": 0}, {"type": "note_off", "time": 1501, "note": 67, "velocity": 101, "channel": 0}, {"type": "note_on", "time": 0, "note": 66, "velocity": 104, "channel": 0}, {"type": "note_off", "time": 488, "note": 66, "velocity": 104, "channel": 0}, {"type": "note_on", "time": 75, "note": 65, "velocity": 85, "channel": 0}, {"type": "note_off", "time": 750, "note": 65, "velocity": 85, "channel": 0}, {"type": "note_on", "time": 7096, "note": 67, "velocity": 101, "channel": 0}, {"type": "note_off", "time": 2065, "note": 67, "velocity": 101, "channel": 0}, {"type": "note_on", "time": 337, "note": 70, "velocity": 105, "channel": 0}, {"type": "note_off", "time": 1689, "note": 70, "velocity": 105, "channel": 0}, {"type": "note_on", "time": 75, "note": 72, "velocity": 102, "channel": 0}, {"type": "note_off", "time": 2515, "note": 72, "velocity": 102, "channel": 0}, {"type": "note_on", "time": 2290, "note": 71, "velocity": 96, "channel": 0}, {"type": "note_off", "time": 1877, "note": 71, "velocity": 96, "channel": 0}, {"type": "note_on", "time": 37, "note": 72, "velocity": 99, "channel": 0}, {"type": "note_off", "time": 3191, "note": 72, "velocity": 99, "channel": 0}, {"type": "note_on", "time": 112, "note": 73, "velocity": 96, "channel": 0}, {"type": "note_off", "time": 4355, "note": 73, "velocity": 96, "channel": 0}, {"type": "note_on", "time": 322, "note": 74, "velocity": 96, "channel": 0}, {"type": "note_off", "time": 3484, "note": 74, "velocity": 96, "channel": 0}, {"type": "note_on", "time": 59, "note": 73, "velocity": 97, "channel": 0}, {"type": "note_off", "time": 525, "note": 73, "velocity": 97, "channel": 0}, {"type": "note_on", "time": 375, "note": 70, "velocity": 105, "channel": 0}, {"type": "note_off", "time": 2252, "note": 70, "velocity": 105, "channel": 0}, {"type": "note_on", "time": 2478, "note": 75, "velocity": 105, "channel": 0}, {"type": "note_off", "time": 1163, "note": 75, "velocity": 105, "channel": 0}, {"type": "note_on", "time": 75, "note": 76, "velocity": 100, "channel": 0}, {"type": "note_off", "time": 713, "note": 76, "velocity": 100, "channel": 0}, {"type": "note_on", "time": 300, "note": 77, "velocity": 90, "channel": 0}, {"type": "note_off", "time": 5481, "note": 77, "velocity": 90, "channel": 0}, {"type": "note_on", "time": 1877, "note": 79, "velocity": 108, "channel": 0}, {"type": "note_off", "time": 3379, "note": 79, "velocity": 108, "channel": 0}, {"type": "note_on", "time": 938, "note": 72, "velocity": 98, "channel": 0}, {"type": "note_off", "time": 1614, "note": 72, "velocity": 98, "channel": 0}, {"type": "note_on", "time": 262, "note": 73, "velocity": 95, "channel": 0}, {"type": "note_off", "time": 1501, "note": 73, "velocity": 95, "channel": 0}, {"type": "note_on", "time": 187, "note": 74, "velocity": 98, "channel": 0}, {"type": "note_off", "time": 13141, "note": 74, "velocity": 98, "channel": 0}, {"type": "note_on", "time": 413, "note": 73, "velocity": 97, "channel": 0}, {"type": "note_off", "time": 1501, "note": 73, "velocity": 97, "channel": 0}, {"type": "note_on", "time": 0, "note": 72, "velocity": 97, "channel": 0}, {"type": "note_off", "time": 675, "note": 72, "velocity": 97, "channel": 0}, {"type": "note_on", "time": 0, "note": 71, "velocity": 103, "channel": 0}, {"type": "note_off", "time": 525, "note": 71, "velocity": 103, "channel": 0}, {"type": "note_on", "time": 0, "note": 70, "velocity": 101, "channel": 0}, {"type": "note_off", "time": 1689, "note": 70, "velocity": 101, "channel": 0}, {"type": "note_on", "time": 1126, "note": 72, "velocity": 102, "channel": 0}, {"type": "note_off", "time": 1727, "note": 72, "velocity": 102, "channel": 0}, {"type": "note_on", "time": 675, "note": 67, "velocity": 88, "channel": 0}, {"type": "note_off", "time": 1989, "note": 67, "velocity": 88, "channel": 0}, {"type": "note_on", "time": 37, "note": 69, "velocity": 108, "channel": 0}, {"type": "note_off", "time": 1013, "note": 69, "velocity": 108, "channel": 0}, {"type": "note_on", "time": 413, "note": 70, "velocity": 109, "channel": 0}, {"type": "note_off", "time": 3792, "note": 70, "velocity": 109, "channel": 0}, {"type": "note_on", "time": 112, "note": 67, "velocity": 108, "channel": 0}, {"type": "note_off", "time": 1351, "note": 67, "velocity": 108, "channel": 0}, {"type": "note_on", "time": 525, "note": 65, "velocity": 109, "channel": 0}, {"type": "note_off", "time": 1239, "note": 65, "velocity": 109, "channel": 0}, {"type": "note_on", "time": 450, "note": 61, "velocity": 118, "channel": 0}, {"type": "note_off", "time": 1389, "note": 61, "velocity": 118, "channel": 0}, {"type": "note_on", "time": 187, "note": 60, "velocity": 117, "channel": 0}, {"type": "note_off", "time": 1126, "note": 60, "velocity": 117, "channel": 0}, {"type": "note_on", "time": 337, "note": 58, "velocity": 106, "channel": 0}, {"type": "note_off", "time": 1914, "note": 58, "velocity": 106, "channel": 0}, {"type": "note_on", "time": 450, "note": 55, "velocity": 106, "channel": 0}, {"type": "note_off", "time": 3341, "note": 55, "velocity": 106, "channel": 0}, {"type": "note_on", "time": 0, "note": 58, "velocity": 89, "channel": 0}, {"type": "note_off", "time": 13892, "note": 58, "velocity": 89, "channel": 0}, {"type": "note_on", "time": 1802, "note": 73, "velocity": 99, "channel": 0}, {"type": "note_off", "time": 1501, "note": 73, "velocity": 99, "channel": 0}, {"type": "note_on", "time": 0, "note": 74, "velocity": 103, "channel": 0}, {"type": "note_off", "time": 750, "note": 74, "velocity": 103, "channel": 0}, {"type": "note_on", "time": 150, "note": 75, "velocity": 102, "channel": 0}, {"type": "note_off", "time": 7021, "note": 75, "velocity": 102, "channel": 0}, {"type": "note_on", "time": 0, "note": 74, "velocity": 100, "channel": 0}, {"type": "note_off", "time": 1689, "note": 74, "velocity": 100, "channel": 0}, {"type": "note_on", "time": 638, "note": 72, "velocity": 103, "channel": 0}, {"type": "note_off", "time": 1539, "note": 72, "velocity": 103, "channel": 0}, {"type": "note_on", "time": 300, "note": 70, "velocity": 104, "channel": 0}, {"type": "note_off", "time": 3003, "note": 70, "velocity": 104, "channel": 0}, {"type": "note_on", "time": 413, "note": 67, "velocity": 102, "channel": 0}, {"type": "note_off", "time": 2027, "note": 67, "velocity": 102, "channel": 0}, {"type": "note_on", "time": 563, "note": 72, "velocity": 101, "channel": 0}, {"type": "note_off", "time": 1426, "note": 72, "velocity": 101, "channel": 0}, {"type": "note_on", "time": 225, "note": 74, "velocity": 98, "channel": 0}, {"type": "note_off", "time": 938, "note": 74, "velocity": 98, "channel": 0}, {"type": "note_on", "time": 225, "note": 75, "velocity": 100, "channel": 0}, {"type": "note_off", "time": 1989, "note": 75, "velocity": 100, "channel": 0}, {"type": "note_on", "time": 750, "note": 72, "velocity": 99, "channel": 0}, {"type": "note_off", "time": 8785, "note": 72, "velocity": 99, "channel": 0}, {"type": "note_on", "time": 788, "note": 71, "velocity": 88, "channel": 0}, {"type": "note_off", "time": 1163, "note": 71, "velocity": 88, "channel": 0}, {"type": "note_on", "time": 150, "note": 69, "velocity": 96, "channel": 0}, {"type": "note_off", "time": 1088, "note": 69, "velocity": 96, "channel": 0}, {"type": "note_on", "time": 150, "note": 67, "velocity": 100, "channel": 0}, {"type": "note_off", "time": 1501, "note": 67, "velocity": 100, "channel": 0}, {"type": "note_on", "time": 525, "note": 65, "velocity": 108, "channel": 0}, {"type": "note_off", "time": 1689, "note": 65, "velocity": 108, "channel": 0}, {"type": "note_on", "time": 413, "note": 64, "velocity": 115, "channel": 0}, {"type": "note_off", "time": 1877, "note": 64, "velocity": 115, "channel": 0}, {"type": "note_on", "time": 300, "note": 63, "velocity": 113, "channel": 0}, {"type": "note_off", "time": 1877, "note": 63, "velocity": 113, "channel": 0}, {"type": "note_on", "time": 225, "note": 62, "velocity": 110, "channel": 0}, {"type": "note_off", "time": 1839, "note": 62, "velocity": 110, "channel": 0}, {"type": "note_on", "time": 150, "note": 60, "velocity": 115, "channel": 0}, {"type": "note_off", "time": 2140, "note": 60, "velocity": 115, "channel": 0}, {"type": "note_on", "time": 37, "note": 58, "velocity": 106, "channel": 0}, {"type": "note_off", "time": 2065, "note": 58, "velocity": 106, "channel": 0}, {"type": "note_on", "time": 150, "note": 57, "velocity": 112, "channel": 0}, {"type": "note_off", "time": 1952, "note": 57, "velocity": 112, "channel": 0}, {"type": "note_on", "time": 375, "note": 55, "velocity": 103, "channel": 0}, {"type": "note_off", "time": 2215, "note": 55, "velocity": 103, "channel": 0}, {"type": "note_on", "time": 150, "note": 53, "velocity": 105, "channel": 0}, {"type": "note_off", "time": 2478, "note": 53, "velocity": 105, "channel": 0}, {"type": "note_on", "time": 300, "note": 51, "velocity": 98, "channel": 0}, {"type": "note_off", "time": 1389, "note": 51, "velocity": 98, "channel": 0}, {"type": "note_on", "time": 488, "note": 50, "velocity": 96, "channel": 0}, {"type": "note_off", "time": 2102, "note": 50, "velocity": 96, "channel": 0}, {"type": "note_on", "time": 225, "note": 53, "velocity": 106, "channel": 0}, {"type": "note_off", "time": 1952, "note": 53, "velocity": 106, "channel": 0}, {"type": "note_on", "time": 187, "note": 58, "velocity": 105, "channel": 0}, {"type": "note_off", "time": 2515, "note": 58, "velocity": 105, "channel": 0}, {"type": "note_on", "time": 225, "note": 62, "velocity": 109, "channel": 0}, {"type": "note_off", "time": 1464, "note": 62, "velocity": 109, "channel": 0}, {"type": "note_on", "time": 225, "note": 58, "velocity": 102, "channel": 0}, {"type": "note_off", "time": 2478, "note": 58, "velocity": 102, "channel": 0}, {"type": "note_on", "time": 788, "note": 55, "velocity": 96, "channel": 0}, {"type": "note_off", "time": 1276, "note": 55, "velocity": 96, "channel": 0}, {"type": "note_on", "time": 375, "note": 65, "velocity": 104, "channel": 0}, {"type": "note_off", "time": 2628, "note": 65, "velocity": 104, "channel": 0}, {"type": "note_on", "time": 0, "note": 62, "velocity": 106, "channel": 0}, {"type": "note_off", "time": 1689, "note": 62, "velocity": 106, "channel": 0}, {"type": "note_on", "time": 488, "note": 58, "velocity": 96, "channel": 0}, {"type": "note_off", "time": 1952, "note": 58, "velocity": 96, "channel": 0}, {"type": "note_on", "time": 750, "note": 53, "velocity": 95, "channel": 0}, {"type": "note_on", "time": 1614, "note": 60, "velocity": 112, "channel": 0}, {"type": "note_off", "time": 0, "note": 53, "velocity": 95, "channel": 0}, {"type": "note_off", "time": 2740, "note": 60, "velocity": 112, "channel": 0}, {"type": "note_on", "time": 150, "note": 62, "velocity": 105, "channel": 0}, {"type": "note_off", "time": 1576, "note": 62, "velocity": 105, "channel": 0}, {"type": "note_on", "time": 150, "note": 58, "velocity": 110, "channel": 0}, {"type": "note_off", "time": 2177, "note": 58, "velocity": 110, "channel": 0}, {"type": "note_on", "time": 638, "note": 50, "velocity": 94, "channel": 0}, {"type": "note_off", "time": 1501, "note": 50, "velocity": 94, "channel": 0}, {"type": "note_on", "time": 525, "note": 55, "velocity": 95, "channel": 0}, {"type": "note_off", "time": 8523, "note": 55, "velocity": 95, "channel": 0}, {"type": "note_on", "time": 14380, "note": 55, "velocity": 101, "channel": 0}, {"type": "note_off", "time": 1877, "note": 55, "velocity": 101, "channel": 0}, {"type": "note_on", "time": 375, "note": 58, "velocity": 101, "channel": 0}, {"type": "note_off", "time": 1576, "note": 58, "velocity": 101, "channel": 0}, {"type": "note_on", "time": 375, "note": 60, "velocity": 122, "channel": 0}, {"type": "note_off", "time": 3003, "note": 60, "velocity": 122, "channel": 0}, {"type": "note_on", "time": 450, "note": 62, "velocity": 124, "channel": 0}, {"type": "note_off", "time": 1539, "note": 62, "velocity": 124, "channel": 0}, {"type": "note_on", "time": 1051, "note": 60, "velocity": 91, "channel": 0}, {"type": "note_off", "time": 2102, "note": 60, "velocity": 91, "channel": 0}, {"type": "note_on", "time": 600, "note": 62, "velocity": 119, "channel": 0}, {"type": "note_off", "time": 1464, "note": 62, "velocity": 119, "channel": 0}, {"type": "note_on", "time": 112, "note": 63, "velocity": 123, "channel": 0}, {"type": "note_off", "time": 8485, "note": 63, "velocity": 123, "channel": 0}, {"type": "note_on", "time": 150, "note": 62, "velocity": 115, "channel": 0}, {"type": "note_off", "time": 600, "note": 62, "velocity": 115, "channel": 0}, {"type": "note_on", "time": 150, "note": 63, "velocity": 116, "channel": 0}, {"type": "note_off", "time": 5707, "note": 63, "velocity": 116, "channel": 0}, {"type": "note_on", "time": 150, "note": 62, "velocity": 107, "channel": 0}, {"type": "note_off", "time": 450, "note": 62, "velocity": 107, "channel": 0}, {"type": "note_on", "time": 0, "note": 63, "velocity": 114, "channel": 0}, {"type": "note_off", "time": 5031, "note": 63, "velocity": 114, "channel": 0}, {"type": "note_on", "time": 112, "note": 62, "velocity": 107, "channel": 0}, {"type": "note_off", "time": 638, "note": 62, "velocity": 107, "channel": 0}, {"type": "note_on", "time": 150, "note": 63, "velocity": 112, "channel": 0}, {"type": "note_off", "time": 5331, "note": 63, "velocity": 112, "channel": 0}, {"type": "note_on", "time": 0, "note": 62, "velocity": 108, "channel": 0}, {"type": "note_off", "time": 2102, "note": 62, "velocity": 108, "channel": 0}, {"type": "note_on", "time": 450, "note": 60, "velocity": 110, "channel": 0}, {"type": "note_off", "time": 2027, "note": 60, "velocity": 110, "channel": 0}, {"type": "note_on", "time": 488, "note": 58, "velocity": 100, "channel": 0}, {"type": "note_off", "time": 1989, "note": 58, "velocity": 100, "channel": 0}, {"type": "note_on", "time": 187, "note": 55, "velocity": 104, "channel": 0}, {"type": "note_off", "time": 1652, "note": 55, "velocity": 104, "channel": 0}, {"type": "note_on", "time": 375, "note": 62, "velocity": 110, "channel": 0}, {"type": "note_off", "time": 2440, "note": 62, "velocity": 110, "channel": 0}, {"type": "note_on", "time": 37, "note": 63, "velocity": 107, "channel": 0}, {"type": "note_off", "time": 2140, "note": 63, "velocity": 107, "channel": 0}, {"type": "note_on", "time": 337, "note": 60, "velocity": 110, "channel": 0}, {"type": "note_off", "time": 2891, "note": 60, "velocity": 110, "channel": 0}, {"type": "note_on", "time": 788, "note": 60, "velocity": 96, "channel": 0}, {"type": "note_off", "time": 18548, "note": 60, "velocity": 96, "channel": 0}, {"type": "note_on", "time": 525, "note": 57, "velocity": 109, "channel": 0}, {"type": "note_off", "time": 2365, "note": 57, "velocity": 109, "channel": 0}, {"type": "note_on", "time": 525, "note": 54, "velocity": 103, "channel": 0}, {"type": "note_off", "time": 1989, "note": 54, "velocity": 103, "channel": 0}, {"type": "note_on", "time": 112, "note": 50, "velocity": 98, "channel": 0}, {"type": "note_off", "time": 1802, "note": 50, "velocity": 98, "channel": 0}, {"type": "note_on", "time": 563, "note": 48, "velocity": 96, "channel": 0}, {"type": "note_off", "time": 2102, "note": 48, "velocity": 96, "channel": 0}, {"type": "note_on", "time": 75, "note": 55, "velocity": 82, "channel": 0}, {"type": "note_off", "time": 9424, "note": 55, "velocity": 82, "channel": 0}, {"type": "end_of_track", "time": 0}]]}