{"ticks_per_beat": 192, "tracks": [[{"type": "track_name", "name": "Melody", "time": 0}, {"type": "set_tempo", "tempo": 451127, "time": 0}, {"type": "key_signature", "key": "Eb", "time": 0}, {"type": "time_signature", "numerator": 4, "denominator": 4, "clocks_per_click": 24, "notated_32nd_notes_per_beat": 8, "time": 0}, {"type": "note_on", "time": 464, "note": 71, "velocity": 110, "channel": 0}, {"type": "note_off", "time": 182, "note": 71, "velocity": 110, "channel": 0}, {"type": "note_on", "time": 6, "note": 73, "velocity": 108, "channel": 0}, {"type": "note_off", "time": 180, "note": 73, "velocity": 108, "channel": 0}, {"type": "note_on", "time": 6, "note": 72, "velocity": 105, "channel": 0}, {"type": "note_off", "time": 82, "note": 72, "velocity": 105, "channel": 0}, {"type": "note_on", "time": 10, "note": 70, "velocity": 113, "channel": 0}, {"type": "note_off", "time": 63, "note": 70, "velocity": 113, "channel": 0}, {"type": "note_on", "time": 43, "note": 63, "velocity": 110, "channel": 0}, {"type": "note_off", "time": 72, "note": 63, "velocity": 110, "channel": 0}, {"type": "note_on", "time": 37, "note": 68, "velocity": 116, "channel": 0}, {"type": "note_off", "time": 60, "note": 68, "velocity": 116, "channel": 0}, {"type": "note_on", "time": 1, "note": 69, "velocity": 110, "channel": 0}, {"type": "note_off", "time": 36, "note": 69, "velocity": 110, "channel": 0}, {"type": "note_on", "time": 7, "note": 68, "velocity": 111, "channel": 0}, {"type": "note_off", "time": 60, "note": 68, "velocity": 111, "channel": 0}, {"type": "note_on", "time": 6, "note": 66, "velocity": 108, "channel": 0}, {"type": "note_off", "time": 58, "note": 66, "velocity": 108, "channel": 0}, {"type": "note_on", "time": 7, "note": 63, "velocity": 110, "channel": 0}, {"type": "note_off", "time": 46, "note": 63, "velocity": 110, "channel": 0}, {"type": "note_on", "time": 7, "note": 61, "velocity": 112, "channel": 0}, {"type": "note_off", "time": 63, "note": 61, "velocity": 112, "channel": 0}, {"type": "note_on", "time": 2, "note": 58, "velocity": 109, "channel": 0}, {"type": "note_off", "time": 58, "note": 58, "velocity": 109, "channel": 0}, {"type": "note_on", "time": 17, "note": 57, "velocity": 113, "channel": 0}, {"type": "note_off", "time": 42, "note": 57, "velocity": 113, "channel": 0}, {"type": "note_on", "time": 16, "note": 56, "velocity": 109, "channel": 0}, {"type": "note_off", "time": 55, "note": 56, "velocity": 109, "channel": 0}, {"type": "note_on", "time": 23, "note": 54, "velocity": 113, "channel": 0}, {"type": "note_off", "time": 137, "note": 54, "velocity": 113, "channel": 0}, {"type": "note_on", "time": 43, "note": 51, "velocity": 97, "channel": 0}, {"type": "note_off", "time": 149, "note": 51, "velocity": 97, "channel": 0}, {"type": "note_on", "time": 394, "note": 51, "velocity": 109, "channel": 0}, {"type": "note_off", "time": 50, "note": 51, "velocity": 109, "channel": 0}, {"type": "note_on", "time": 8, "note": 54, "velocity": 113, "channel": 0}, {"type": "note_off", "time": 54, "note": 54, "velocity": 113, "channel": 0}, {"type": "note_on", "time": 7, "note": 56, "velocity": 112, "channel": 0}, {"type": "note_off", "time": 48, "note": 56, "velocity": 112, "channel": 0}, {"type": "note_on", "time": 11, "note": 58, "velocity": 107, "channel": 0}, {"type": "note_off", "time": 49, "note": 58, "velocity": 107, "channel": 0}, {"type": "note_on", "time": 38, "note": 56, "velocity": 110, "channel": 0}, {"type": "note_off", "time": 59, "note": 56, "velocity": 110, "channel": 0}, {"type": "note_on", "time": 0, "note": 57, "velocity": 112, "channel": 0}, {"type": "note_off", "time": 53, "note": 57, "velocity": 112, "channel": 0}, {"type": "note_on", "time": 9, "note": 55, "velocity": 100, "channel": 0}, {"type": "note_off", "time": 35, "note": 55, "velocity": 100, "channel": 0}, {"type": "note_on", "time": 6, "note": 51, "velocity": 99, "channel": 0}, {"type": "note_off", "time": 97, "note": 51, "velocity": 99, "channel": 0}, {"type": "note_on", "time": 38, "note": 56, "velocity": 109, "channel": 0}, {"type": "note_off", "time": 59, "note": 56, "velocity": 109, "channel": 0}, {"type": "note_on", "time": 19, "note": 54, "velocity": 98, "channel": 0}, {"type": "note_off", "time": 108, "note": 54, "velocity": 98, "channel": 0}, {"type": "note_on", "time": 84, "note": 48, "velocity": 108, "channel": 0}, {"type": "note_off", "time": 35, "note": 48, "velocity": 108, "channel": 0}, {"type": "note_on", "time": 4, "note": 49, "velocity": 100, "channel": 0}, {"type": "note_off", "time": 58, "note": 49, "velocity": 100, "channel": 0}, {"type": "note_on", "time": 80, "note": 51, "velocity": 100, "channel": 0}, {"type": "note_off", "time": 122, "note": 51, "velocity": 100, "channel": 0}, {"type": "note_on", "time": 387, "note": 51, "velocity": 113, "channel": 0}, {"type": "note_off", "time": 44, "note": 51, "velocity": 113, "channel": 0}, {"type": "note_on", "time": 8, "note": 54, "velocity": 109, "channel": 0}, {"type": "note_off", "time": 54, "note": 54, "velocity": 109, "channel": 0}, {"type": "note_on", "time": 17, "note": 56, "velocity": 109, "channel": 0}, {"type": "note_off", "time": 43, "note": 56, "velocity": 109, "channel": 0}, {"type": "note_on", "time": 24, "note": 58, "velocity": 110, "channel": 0}, {"type": "note_off", "time": 51, "note": 58, "velocity": 110, "channel": 0}, {"type": "note_on", "time": 40, "note": 60, "velocity": 121, "channel": 0}, {"type": "note_off", "time": 65, "note": 60, "velocity": 121, "channel": 0}, {"type": "note_on", "time": 3, "note": 61, "velocity": 114, "channel": 0}, {"type": "note_off", "time": 60, "note": 61, "velocity": 114, "channel": 0}, {"type": "note_on", "time": 40, "note": 58, "velocity": 107, "channel": 0}, {"type": "note_off", "time": 97, "note": 58, "velocity": 107, "channel": 0}, {"type": "note_on", "time": 17, "note": 51, "velocity": 104, "channel": 0}, {"type": "note_off", "time": 59, "note": 51, "velocity": 104, "channel": 0}, {"type": "note_on", "time": 17, "note": 55, "velocity": 106, "channel": 0}, {"type": "note_off", "time": 44, "note": 55, "velocity": 106, "channel": 0}, {"type": "note_on", "time": 0, "note": 56, "velocity": 104, "channel": 0}, {"type": "note_off", "time": 88, "note": 56, "velocity": 104, "channel": 0}, {"type": "note_on", "time": 12, "note": 51, "velocity": 103, "channel": 0}, {"type": "note_off", "time": 37, "note": 51, "velocity": 103, "channel": 0}, {"type": "note_on", "time": 29, "note": 54, "velocity": 102, "channel": 0}, {"type": "note_off", "time": 138, "note": 54, "velocity": 102, "channel": 0}, {"type": "note_on", "time": 38, "note": 51, "velocity": 94, "channel": 0}, {"type": "note_off", "time": 105, "note": 51, "velocity": 94, "channel": 0}, {"type": "note_on", "time": 473, "note": 65, "velocity": 121, "channel": 0}, {"type": "note_off", "time": 50, "note": 65, "velocity": 121, "channel": 0}, {"type": "note_on", "time": 3, "note": 61, "velocity": 114, "channel": 0}, {"type": "note_off", "time": 50, "note": 61, "velocity": 114, "channel": 0}, {"type": "note_on", "time": 8, "note": 63, "velocity": 115, "channel": 0}, {"type": "note_off", "time": 81, "note": 63, "velocity": 115, "channel": 0}, {"type": "note_on", "time": 16, "note": 61, "velocity": 108, "channel": 0}, {"type": "note_off", "time": 109, "note": 61, "velocity": 108, "channel": 0}, {"type": "note_on", "time": 0, "note": 58, "velocity": 110, "channel": 0}, {"type": "note_off", "time": 55, "note": 58, "velocity": 110, "channel": 0}, {"type": "note_on", "time": 18, "note": 51, "velocity": 94, "channel": 0}, {"type": "note_off", "time": 105, "note": 51, "velocity": 94, "channel": 0}, {"type": "note_on", "time": 14, "note": 49, "velocity": 98, "channel": 0}, {"type": "note_off", "time": 43, "note": 49, "velocity": 98, "channel": 0}, {"type": "note_on", "time": 11, "note": 56, "velocity": 110, "channel": 0}, {"type": "note_off", "time": 44, "note": 56, "velocity": 110, "channel": 0}, {"type": "note_on", "time": 6, "note": 57, "velocity": 107, "channel": 0}, {"type": "note_off", "time": 72, "note": 57, "velocity": 107, "channel": 0}, {"type": "note_on", "time": 33, "note": 51, "velocity": 104, "channel": 0}, {"type": "note_off", "time": 37, "note": 51, "velocity": 104, "channel": 0}, {"type": "note_on", "time": 6, "note": 53, "velocity": 111, "channel": 0}, {"type": "note_off", "time": 49, "note": 53, "velocity": 111, "channel": 0}, {"type": "note_on", "time": 2, "note": 54, "velocity": 109, "channel": 0}, {"type": "note_off", "time": 61, "note": 54, "velocity": 109, "channel": 0}, {"type": "note_on", "time": 77, "note": 51, "velocity": 99, "channel": 0}, {"type": "note_off", "time": 153, "note": 51, "velocity": 99, "channel": 0}, {"type": "note_on", "time": 194, "note": 65, "velocity": 123, "channel": 0}, {"type": "note_off", "time": 90, "note": 65, "velocity": 123, "channel": 0}, {"type": "note_on", "time": 11, "note": 67, "velocity": 110, "channel": 0}, {"type": "note_off", "time": 59, "note": 67, "velocity": 110, "channel": 0}, {"type": "note_on", "time": 14, "note": 66, "velocity": 112, "channel": 0}, {"type": "note_off", "time": 58, "note": 66, "velocity": 112, "channel": 0}, {"type": "note_on", "time": 6, "note": 68, "velocity": 106, "channel": 0}, {"type": "note_off", "time": 87, "note": 68, "velocity": 106, "channel": 0}, {"type": "note_on", "time": 5, "note": 67, "velocity": 106, "channel": 0}, {"type": "note_off", "time": 25, "note": 67, "velocity": 106, "channel": 0}, {"type": "note_on", "time": 4, "note": 69, "velocity": 104, "channel": 0}, {"type": "note_off", "time": 95, "note": 69, "velocity": 104, "channel": 0}, {"type": "note_on", "time": 11, "note": 67, "velocity": 102, "channel": 0}, {"type": "note_off", "time": 37, "note": 67, "velocity": 102, "channel": 0}, {"type": "note_on", "time": 2, "note": 70, "velocity": 104, "channel": 0}, {"type": "note_off", "time": 70, "note": 70, "velocity": 104, "channel": 0}, {"type": "note_on", "time": 21, "note": 63, "velocity": 117, "channel": 0}, {"type": "note_off", "time": 72, "note": 63, "velocity": 117, "channel": 0}, {"type": "note_on", "time": 18, "note": 63, "velocity": 100, "channel": 0}, {"type": "note_off", "time": 245, "note": 63, "velocity": 100, "channel": 0}, {"type": "note_on", "time": 294, "note": 63, "velocity": 116, "channel": 0}, {"type": "note_off", "time": 78, "note": 63, "velocity": 116, "channel": 0}, {"type": "note_on", "time": 3, "note": 65, "velocity": 116, "channel": 0}, {"type": "note_off", "time": 84, "note": 65, "velocity": 116, "channel": 0}, {"type": "note_on", "time": 14, "note": 67, "velocity": 110, "channel": 0}, {"type": "note_off", "time": 100, "note": 67, "velocity": 110, "channel": 0}, {"type": "note_on", "time": 4, "note": 66, "velocity": 114, "channel": 0}, {"type": "note_off", "time": 22, "note": 66, "velocity": 114, "channel": 0}, {"type": "note_on", "time": 3, "note": 68, "velocity": 109, "channel": 0}, {"type": "note_off", "time": 112, "note": 68, "velocity": 109, "channel": 0}, {"type": "note_on", "time": 12, "note": 60, "velocity": 117, "channel": 0}, {"type": "note_off", "time": 79, "note": 60, "velocity": 117, "channel": 0}, {"type": "note_on", "time": 14, "note": 61, "velocity": 115, "channel": 0}, {"type": "note_off", "time": 38, "note": 61, "velocity": 115, "channel": 0}, {"type": "note_on", "time": 9, "note": 62, "velocity": 118, "channel": 0}, {"type": "note_off", "time": 77, "note": 62, "velocity": 118, "channel": 0}, {"type": "note_on", "time": 2, "note": 63, "velocity": 114, "channel": 0}, {"type": "note_off", "time": 69, "note": 63, "velocity": 114, "channel": 0}, {"type": "note_on", "time": 13, "note": 65, "velocity": 106, "channel": 0}, {"type": "note_off", "time": 76, "note": 65, "velocity": 106, "channel": 0}, {"type": "note_on", "time": 69, "note": 58, "velocity": 95, "channel": 0}, {"type": "note_off", "time": 80, "note": 58, "velocity": 95, "channel": 0}, {"type": "note_on", "time": 17, "note": 60, "velocity": 118, "channel": 0}, {"type": "note_off", "time": 54, "note": 60, "velocity": 118, "channel": 0}, {"type": "note_on", "time": 18, "note": 61, "velocity": 117, "channel": 0}, {"type": "note_off", "time": 97, "note": 61, "velocity": 117, "channel": 0}, {"type": "note_on", "time": 16, "note": 60, "velocity": 117, "channel": 0}, {"type": "note_off", "time": 32, "note": 60, "velocity": 117, "channel": 0}, {"type": "note_on", "time": 7, "note": 61, "velocity": 117, "channel": 0}, {"type": "note_off", "time": 74, "note": 61, "velocity": 117, "channel": 0}, {"type": "note_on", "time": 13, "note": 62, "velocity": 118, "channel": 0}, {"type": "note_off", "time": 150, "note": 62, "velocity": 118, "channel": 0}, {"type": "note_on", "time": 8, "note": 63, "velocity": 120, "channel": 0}, {"type": "note_off", "time": 54, "note": 63, "velocity": 120, "channel": 0}, {"type": "note_on", "time": 35, "note": 51, "velocity": 100, "channel": 0}, {"type": "note_off", "time": 65, "note": 51, "velocity": 100, "channel": 0}, {"type": "note_on", "time": 17, "note": 51, "velocity": 107, "channel": 0}, {"type": "note_off", "time": 79, "note": 51, "velocity": 107, "channel": 0}, {"type": "note_on", "time": 8, "note": 54, "velocity": 98, "channel": 0}, {"type": "note_off", "time": 191, "note": 54, "velocity": 98, "channel": 0}, {"type": "note_on", "time": 331, "note": 71, "velocity": 111, "channel": 0}, {"type": "note_off", "time": 85, "note": 71, "velocity": 111, "channel": 0}, {"type": "note_on", "time": 8, "note": 73, "velocity": 115, "channel": 0}, {"type": "note_off", "time": 63, "note": 73, "velocity": 115, "channel": 0}, {"type": "note_on", "time": 34, "note": 72, "velocity": 113, "channel": 0}, {"type": "note_off", "time": 107, "note": 72, "velocity": 113, "channel": 0}, {"type": "note_on", "time": 6, "note": 71, "velocity": 116, "channel": 0}, {"type": "note_off", "time": 76, "note": 71, "velocity": 116, "channel": 0}, {"type": "note_on", "time": 9, "note": 70, "velocity": 114, "channel": 0}, {"type": "note_off", "time": 111, "note": 70, "velocity": 114, "channel": 0}, {"type": "note_on", "time": 56, "note": 63, "velocity": 113, "channel": 0}, {"type": "note_off", "time": 16, "note": 63, "velocity": 113, "channel": 0}, {"type": "note_on", "time": 6, "note": 65, "velocity": 114, "channel": 0}, {"type": "note_off", "time": 54, "note": 65, "velocity": 114, "channel": 0}, {"type": "note_on", "time": 7, "note": 66, "velocity": 112, "channel": 0}, {"type": "note_off", "time": 86, "note": 66, "velocity": 112, "channel": 0}, {"type": "note_on", "time": 38, "note": 63, "velocity": 103, "channel": 0}, {"type": "note_off", "time": 200, "note": 63, "velocity": 103, "channel": 0}, {"type": "note_on", "time": 131, "note": 58, "velocity": 105, "channel": 0}, {"type": "note_off", "time": 46, "note": 58, "velocity": 105, "channel": 0}, {"type": "note_on", "time": 11, "note": 61, "velocity": 116, "channel": 0}, {"type": "note_off", "time": 116, "note": 61, "velocity": 116, "channel": 0}, {"type": "note_on", "time": 16, "note": 63, "velocity": 111, "channel": 0}, {"type": "note_off", "time": 35, "note": 63, "velocity": 111, "channel": 0}, {"type": "note_on", "time": 11, "note": 65, "velocity": 115, "channel": 0}, {"type": "note_off", "time": 122, "note": 65, "velocity": 115, "channel": 0}, {"type": "note_on", "time": 0, "note": 63, "velocity": 112, "channel": 0}, {"type": "note_off", "time": 217, "note": 63, "velocity": 112, "channel": 0}, {"type": "note_on", "time": 226, "note": 69, "velocity": 119, "channel": 0}, {"type": "note_off", "time": 72, "note": 69, "velocity": 119, "channel": 0}, {"type": "note_on", "time": 12, "note": 68, "velocity": 112, "channel": 0}, {"type": "note_off", "time": 51, "note": 68, "velocity": 112, "channel": 0}, {"type": "note_on", "time": 4, "note": 66, "velocity": 106, "channel": 0}, {"type": "note_off", "time": 54, "note": 66, "velocity": 106, "channel": 0}, {"type": "note_on", "time": 4, "note": 63, "velocity": 113, "channel": 0}, {"type": "note_off", "time": 108, "note": 63, "velocity": 113, "channel": 0}, {"type": "note_on", "time": 69, "note": 63, "velocity": 104, "channel": 0}, {"type": "note_off", "time": 212, "note": 63, "velocity": 104, "channel": 0}, {"type": "note_on", "time": 310, "note": 72, "velocity": 112, "channel": 0}, {"type": "note_off", "time": 63, "note": 72, "velocity": 112, "channel": 0}, {"type": "note_on", "time": 3, "note": 73, "velocity": 110, "channel": 0}, {"type": "note_off", "time": 53, "note": 73, "velocity": 110, "channel": 0}, {"type": "note_on", "time": 16, "note": 69, "velocity": 110, "channel": 0}, {"type": "note_off", "time": 45, "note": 69, "velocity": 110, "channel": 0}, {"type": "note_on", "time": 13, "note": 72, "velocity": 110, "channel": 0}, {"type": "note_off", "time": 60, "note": 72, "velocity": 110, "channel": 0}, {"type": "note_on", "time": 1, "note": 70, "velocity": 110, "channel": 0}, {"type": "note_off", "time": 20, "note": 70, "velocity": 110, "channel": 0}, {"type": "note_on", "time": 5, "note": 69, "velocity": 111, "channel": 0}, {"type": "note_off", "time": 33, "note": 69, "velocity": 111, "channel": 0}, {"type": "note_on", "time": 6, "note": 65, "velocity": 99, "channel": 0}, {"type": "note_off", "time": 60, "note": 65, "velocity": 99, "channel": 0}, {"type": "note_on", "time": 9, "note": 68, "velocity": 110, "channel": 0}, {"type": "note_off", "time": 60, "note": 68, "velocity": 110, "channel": 0}, {"type": "note_on", "time": 4, "note": 67, "velocity": 108, "channel": 0}, {"type": "note_off", "time": 53, "note": 67, "velocity": 108, "channel": 0}, {"type": "note_on", "time": 9, "note": 63, "velocity": 104, "channel": 0}, {"type": "note_off", "time": 49, "note": 63, "velocity": 104, "channel": 0}, {"type": "note_on", "time": 11, "note": 65, "velocity": 110, "channel": 0}, {"type": "note_off", "time": 42, "note": 65, "velocity": 110, "channel": 0}, {"type": "note_on", "time": 26, "note": 64, "velocity": 118, "channel": 0}, {"type": "note_off", "time": 38, "note": 64, "velocity": 118, "channel": 0}, {"type": "note_on", "time": 22, "note": 61, "velocity": 107, "channel": 0}, {"type": "note_off", "time": 44, "note": 61, "velocity": 107, "channel": 0}, {"type": "note_on", "time": 8, "note": 57, "velocity": 107, "channel": 0}, {"type": "note_off", "time": 58, "note": 57, "velocity": 107, "channel": 0}, {"type": "note_on", "time": 24, "note": 52, "velocity": 105, "channel": 0}, {"type": "note_off", "time": 40, "note": 52, "velocity": 105, "channel": 0}, {"type": "note_on", "time": 16, "note": 49, "velocity": 100, "channel": 0}, {"type": "note_off", "time": 46, "note": 49, "velocity": 100, "channel": 0}, {"type": "note_on", "time": 14, "note": 51, "velocity": 99, "channel": 0}, {"type": "note_off", "time": 219, "note": 51, "velocity": 99, "channel": 0}, {"type": "note_on", "time": 353, "note": 64, "velocity": 118, "channel": 0}, {"type": "note_off", "time": 58, "note": 64, "velocity": 118, "channel": 0}, {"type": "note_on", "time": 3, "note": 66, "velocity": 111, "channel": 0}, {"type": "note_off", "time": 63, "note": 66, "velocity": 111, "channel": 0}, {"type": "note_on", "time": 3, "note": 62, "velocity": 115, "channel": 0}, {"type": "note_off", "time": 63, "note": 62, "velocity": 115, "channel": 0}, {"type": "note_on", "time": 7, "note": 65, "velocity": 109, "channel": 0}, {"type": "note_off", "time": 38, "note": 65, "velocity": 109, "channel": 0}, {"type": "note_on", "time": 7, "note": 63, "velocity": 114, "channel": 0}, {"type": "note_off", "time": 60, "note": 63, "velocity": 114, "channel": 0}, {"type": "note_on", "time": 12, "note": 58, "velocity": 101, "channel": 0}, {"type": "note_off", "time": 38, "note": 58, "velocity": 101, "channel": 0}, {"type": "note_on", "time": 0, "note": 61, "velocity": 113, "channel": 0}, {"type": "note_off", "time": 71, "note": 61, "velocity": 113, "channel": 0}, {"type": "note_on", "time": 2, "note": 60, "velocity": 115, "channel": 0}, {"type": "note_off", "time": 55, "note": 60, "velocity": 115, "channel": 0}, {"type": "note_on", "time": 22, "note": 56, "velocity": 106, "channel": 0}, {"type": "note_off", "time": 43, "note": 56, "velocity": 106, "channel": 0}, {"type": "note_on", "time": 9, "note": 54, "velocity": 112, "channel": 0}, {"type": "note_off", "time": 59, "note": 54, "velocity": 112, "channel": 0}, {"type": "note_on", "time": 9, "note": 58, "velocity": 105, "channel": 0}, {"type": "note_off", "time": 67, "note": 58, "velocity": 105, "channel": 0}, {"type": "note_on", "time": 0, "note": 54, "velocity": 110, "channel": 0}, {"type": "note_off", "time": 69, "note": 54, "velocity": 110, "channel": 0}, {"type": "note_on", "time": 1, "note": 53, "velocity": 107, "channel": 0}, {"type": "note_off", "time": 56, "note": 53, "velocity": 107, "channel": 0}, {"type": "note_on", "time": 1, "note": 51, "velocity": 105, "channel": 0}, {"type": "note_off", "time": 45, "note": 51, "velocity": 105, "channel": 0}, {"type": "note_on", "time": 18, "note": 56, "velocity": 113, "channel": 0}, {"type": "note_off", "time": 63, "note": 56, "velocity": 113, "channel": 0}, {"type": "note_on", "time": 9, "note": 51, "velocity": 103, "channel": 0}, {"type": "note_off", "time": 42, "note": 51, "velocity": 103, "channel": 0}, {"type": "note_on", "time": 19, "note": 54, "velocity": 114, "channel": 0}, {"type": "note_off", "time": 53, "note": 54, "velocity": 114, "channel": 0}, {"type": "note_on", "time": 4, "note": 55, "velocity": 112, "channel": 0}, {"type": "note_off", "time": 55, "note": 55, "velocity": 112, "channel": 0}, {"type": "note_on", "time": 14, "note": 56, "velocity": 110, "channel": 0}, {"type": "note_off", "time": 53, "note": 56, "velocity": 110, "channel": 0}, {"type": "note_on", "time": 6, "note": 57, "velocity": 112, "channel": 0}, {"type": "note_off", "time": 59, "note": 57, "velocity": 112, "channel": 0}, {"type": "note_on", "time": 3, "note": 58, "velocity": 106, "channel": 0}, {"type": "note_off", "time": 64, "note": 58, "velocity": 106, "channel": 0}, {"type": "note_on", "time": 0, "note": 51, "velocity": 100, "channel": 0}, {"type": "note_off", "time": 63, "note": 51, "velocity": 100, "channel": 0}, {"type": "note_on", "time": 9, "note": 54, "velocity": 109, "channel": 0}, {"type": "note_off", "time": 48, "note": 54, "velocity": 109, "channel": 0}, {"type": "note_on", "time": 8, "note": 55, "velocity": 113, "channel": 0}, {"type": "note_off", "time": 40, "note": 55, "velocity": 113, "channel": 0}, {"type": "note_on", "time": 14, "note": 56, "velocity": 108, "channel": 0}, {"type": "note_off", "time": 54, "note": 56, "velocity": 108, "channel": 0}, {"type": "note_on", "time": 8, "note": 57, "velocity": 112, "channel": 0}, {"type": "note_off", "time": 60, "note": 57, "velocity": 112, "channel": 0}, {"type": "note_on", "time": 9, "note": 58, "velocity": 111, "channel": 0}, {"type": "note_off", "time": 49, "note": 58, "velocity": 111, "channel": 0}, {"type": "note_on", "time": 6, "note": 60, "velocity": 119, "channel": 0}, {"type": "note_on", "time": 61, "note": 62, "velocity": 115, "channel": 0}, {"type": "note_off", "time": 0, "note": 60, "velocity": 119, "channel": 0}, {"type": "note_off", "time": 59, "note": 62, "velocity": 115, "channel": 0}, {"type": "note_on", "time": 4, "note": 65, "velocity": 115, "channel": 0}, {"type": "note_off", "time": 53, "note": 65, "velocity": 115, "channel": 0}, {"type": "note_on", "time": 9, "note": 62, "velocity": 107, "channel": 0}, {"type": "note_off", "time": 53, "note": 62, "velocity": 107, "channel": 0}, {"type": "note_on", "time": 3, "note": 63, "velocity": 116, "channel": 0}, {"type": "note_off", "time": 43, "note": 63, "velocity": 116, "channel": 0}, {"type": "note_on", "time": 11, "note": 64, "velocity": 120, "channel": 0}, {"type": "note_off", "time": 49, "note": 64, "velocity": 120, "channel": 0}, {"type": "note_on", "time": 30, "note": 55, "velocity": 106, "channel": 0}, {"type": "note_off", "time": 35, "note": 55, "velocity": 106, "channel": 0}, {"type": "note_on", "time": 14, "note": 58, "velocity": 107, "channel": 0}, {"type": "note_off", "time": 53, "note": 58, "velocity": 107, "channel": 0}, {"type": "note_on", "time": 17, "note": 61, "velocity": 116, "channel": 0}, {"type": "note_off", "time": 54, "note": 61, "velocity": 116, "channel": 0}, {"type": "note_on", "time": 3, "note": 60, "velocity": 111, "channel": 0}, {"type": "note_off", "time": 56, "note": 60, "velocity": 111, "channel": 0}, {"type": "note_on", "time": 2, "note": 55, "velocity": 114, "channel": 0}, {"type": "note_off", "time": 46, "note": 55, "velocity": 114, "channel": 0}, {"type": "note_on", "time": 12, "note": 58, "velocity": 115, "channel": 0}, {"type": "note_off", "time": 71, "note": 58, "velocity": 115, "channel": 0}, {"type": "note_on", "time": 3, "note": 55, "velocity": 108, "channel": 0}, {"type": "note_off", "time": 43, "note": 55, "velocity": 108, "channel": 0}, {"type": "note_on", "time": 3, "note": 56, "velocity": 107, "channel": 0}, {"type": "note_off", "time": 39, "note": 56, "velocity": 107, "channel": 0}, {"type": "note_on", "time": 14, "note": 58, "velocity": 106, "channel": 0}, {"type": "note_off", "time": 55, "note": 58, "velocity": 106, "channel": 0}, {"type": "note_on", "time": 8, "note": 60, "velocity": 112, "channel": 0}, {"type": "note_off", "time": 61, "note": 60, "velocity": 112, "channel": 0}, {"type": "note_on", "time": 21, "note": 63, "velocity": 99, "channel": 0}, {"type": "note_off", "time": 25, "note": 63, "velocity": 99, "channel": 0}, {"type": "note_on", "time": 6, "note": 67, "velocity": 112, "channel": 0}, {"type": "note_off", "time": 64, "note": 67, "velocity": 112, "channel": 0}, {"type": "note_on", "time": 0, "note": 64, "velocity": 104, "channel": 0}, {"type": "note_off", "time": 55, "note": 64, "velocity": 104, "channel": 0}, {"type": "note_on", "time": 0, "note": 65, "velocity": 98, "channel": 0}, {"type": "note_off", "time": 55, "note": 65, "velocity": 98, "channel": 0}, {"type": "note_on", "time": 12, "note": 67, "velocity": 110, "channel": 0}, {"type": "note_off", "time": 51, "note": 67, "velocity": 110, "channel": 0}, {"type": "note_on", "time": 7, "note": 68, "velocity": 111, "channel": 0}, {"type": "note_off", "time": 50, "note": 68, "velocity": 111, "channel": 0}, {"type": "note_on", "time": 16, "note": 70, "velocity": 112, "channel": 0}, {"type": "note_off", "time": 46, "note": 70, "velocity": 112, "channel": 0}, {"type": "note_on", "time": 19, "note": 72, "velocity": 111, "channel": 0}, {"type": "note_off", "time": 45, "note": 72, "velocity": 111, "channel": 0}, {"type": "note_on", "time": 6, "note": 75, "velocity": 101, "channel": 0}, {"type": "note_off", "time": 61, "note": 75, "velocity": 101, "channel": 0}, {"type": "note_on", "time": 8, "note": 74, "velocity": 107, "channel": 0}, {"type": "note_off", "time": 50, "note": 74, "velocity": 107, "channel": 0}, {"type": "note_on", "time": 24, "note": 70, "velocity": 91, "channel": 0}, {"type": "note_off", "time": 148, "note": 70, "velocity": 91, "channel": 0}, {"type": "note_on", "time": 268, "note": 77, "velocity": 104, "channel": 0}, {"type": "note_off", "time": 48, "note": 77, "velocity": 104, "channel": 0}, {"type": "note_on", "time": 2, "note": 78, "velocity": 109, "channel": 0}, {"type": "note_off", "time": 45, "note": 78, "velocity": 109, "channel": 0}, {"type": "note_on", "time": 9, "note": 79, "velocity": 109, "channel": 0}, {"type": "note_off", "time": 61, "note": 79, "velocity": 109, "channel": 0}, {"type": "note_on", "time": 17, "note": 75, "velocity": 106, "channel": 0}, {"type": "note_off", "time": 54, "note": 75, "velocity": 106, "channel": 0}, {"type": "note_on", "time": 7, "note": 73, "velocity": 102, "channel": 0}, {"type": "note_off", "time": 44, "note": 73, "velocity": 102, "channel": 0}, {"type": "note_on", "time": 21, "note": 70, "velocity": 116, "channel": 0}, {"type": "note_off", "time": 60, "note": 70, "velocity": 116, "channel": 0}, {"type": "note_on", "time": 2, "note": 69, "velocity": 117, "channel": 0}, {"type": "note_off", "time": 54, "note": 69, "velocity": 117, "channel": 0}, {"type": "note_on", "time": 7, "note": 68, "velocity": 108, "channel": 0}, {"type": "note_off", "time": 54, "note": 68, "velocity": 108, "channel": 0}, {"type": "note_on", "time": 24, "note": 66, "velocity": 111, "channel": 0}, {"type": "note_off", "time": 38, "note": 66, "velocity": 111, "channel": 0}, {"type": "note_on", "time": 32, "note": 63, "velocity": 119, "channel": 0}, {"type": "note_off", "time": 100, "note": 63, "velocity": 119, "channel": 0}, {"type": "note_on", "time": 57, "note": 66, "velocity": 113, "channel": 0}, {"type": "note_off", "time": 69, "note": 66, "velocity": 113, "channel": 0}, {"type": "note_on", "time": 6, "note": 67, "velocity": 102, "channel": 0}, {"type": "note_off", "time": 44, "note": 67, "velocity": 102, "channel": 0}, {"type": "note_on", "time": 14, "note": 70, "velocity": 110, "channel": 0}, {"type": "note_off", "time": 55, "note": 70, "velocity": 110, "channel": 0}, {"type": "note_on", "time": 332, "note": 68, "velocity": 104, "channel": 0}, {"type": "note_off", "time": 28, "note": 68, "velocity": 104, "channel": 0}, {"type": "note_on", "time": 8, "note": 70, "velocity": 109, "channel": 0}, {"type": "note_off", "time": 33, "note": 70, "velocity": 109, "channel": 0}, {"type": "note_on", "time": 16, "note": 71, "velocity": 115, "channel": 0}, {"type": "note_off", "time": 65, "note": 71, "velocity": 115, "channel": 0}, {"type": "note_on", "time": 9, "note": 72, "velocity": 109, "channel": 0}, {"type": "note_off", "time": 135, "note": 72, "velocity": 109, "channel": 0}, {"type": "note_on", "time": 4, "note": 73, "velocity": 104, "channel": 0}, {"type": "note_off", "time": 112, "note": 73, "velocity": 104, "channel": 0}, {"type": "note_on", "time": 8, "note": 74, "velocity": 103, "channel": 0}, {"type": "note_off", "time": 108, "note": 74, "velocity": 103, "channel": 0}, {"type": "note_on", "time": 15, "note": 75, "velocity": 105, "channel": 0}, {"type": "note_off", "time": 63, "note": 75, "velocity": 105, "channel": 0}, {"type": "note_on", "time": 10, "note": 75, "velocity": 108, "channel": 0}, {"type": "note_off", "time": 42, "note": 75, "velocity": 108, "channel": 0}, {"type": "note_on", "time": 159, "note": 63, "velocity": 116, "channel": 0}, {"type": "note_off", "time": 82, "note": 63, "velocity": 116, "channel": 0}, {"type": "note_on", "time": 112, "note": 66, "velocity": 100, "channel": 0}, {"type": "note_off", "time": 178, "note": 66, "velocity": 100, "channel": 0}, {"type": "note_on", "time": 317, "note": 66, "velocity": 111, "channel": 0}, {"type": "note_off", "time": 61, "note": 66, "velocity": 111, "channel": 0}, {"type": "note_on", "time": 4, "note": 71, "velocity": 105, "channel": 0}, {"type": "note_off", "time": 114, "note": 71, "velocity": 105, "channel": 0}, {"type": "note_on", "time": 6, "note": 72, "velocity": 106, "channel": 0}, {"type": "note_off", "time": 226, "note": 72, "velocity": 106, "channel": 0}, {"type": "note_on", "time": 16, "note": 73, "velocity": 103, "channel": 0}, {"type": "note_off", "time": 155, "note": 73, "velocity": 103, "channel": 0}, {"type": "note_on", "time": 13, "note": 74, "velocity": 102, "channel": 0}, {"type": "note_off", "time": 60, "note": 74, "velocity": 102, "channel": 0}, {"type": "note_on", "time": 3, "note": 75, "velocity": 105, "channel": 0}, {"type": "note_off", "time": 103, "note": 75, "velocity": 105, "channel": 0}, {"type": "note_on", "time": 101, "note": 63, "velocity": 113, "channel": 0}, {"type": "note_off", "time": 97, "note": 63, "velocity": 113, "channel": 0}, {"type": "note_on", "time": 101, "note": 66, "velocity": 104, "channel": 0}, {"type": "note_off", "time": 140, "note": 66, "velocity": 104, "channel": 0}, {"type": "note_on", "time": 3, "note": 63, "velocity": 103, "channel": 0}, {"type": "note_off", "time": 40, "note": 63, "velocity": 103, "channel": 0}, {"type": "note_on", "time": 22, "note": 69, "velocity": 115, "channel": 0}, {"type": "note_off", "time": 38, "note": 69, "velocity": 115, "channel": 0}, {"type": "note_on", "time": 0, "note": 68, "velocity": 113, "channel": 0}, {"type": "note_off", "time": 23, "note": 68, "velocity": 113, "channel": 0}, {"type": "note_on", "time": 11, "note": 66, "velocity": 107, "channel": 0}, {"type": "note_off", "time": 33, "note": 66, "velocity": 107, "channel": 0}, {"type": "note_on", "time": 7, "note": 63, "velocity": 95, "channel": 0}, {"type": "note_off", "time": 159, "note": 63, "velocity": 95, "channel": 0}, {"type": "note_on", "time": 221, "note": 69, "velocity": 101, "channel": 0}, {"type": "note_off", "time": 23, "note": 69, "velocity": 101, "channel": 0}, {"type": "note_on", "time": 11, "note": 70, "velocity": 113, "channel": 0}, {"type": "note_off", "time": 61, "note": 70, "velocity": 113, "channel": 0}, {"type": "note_on", "time": 0, "note": 71, "velocity": 112, "channel": 0}, {"type": "note_off", "time": 102, "note": 71, "velocity": 112, "channel": 0}, {"type": "note_on", "time": 16, "note": 72, "velocity": 107, "channel": 0}, {"type": "note_off", "time": 200, "note": 72, "velocity": 107, "channel": 0}, {"type": "note_on", "time": 43, "note": 75, "velocity": 107, "channel": 0}, {"type": "note_off", "time": 49, "note": 75, "velocity": 107, "channel": 0}, {"type": "note_on", "time": 101, "note": 63, "velocity": 111, "channel": 0}, {"type": "note_off", "time": 61, "note": 63, "velocity": 111, "channel": 0}, {"type": "note_on", "time": 3, "note": 65, "velocity": 118, "channel": 0}, {"type": "note_off", "time": 42, "note": 65, "velocity": 118, "channel": 0}, {"type": "note_on", "time": 3, "note": 66, "velocity": 110, "channel": 0}, {"type": "note_off", "time": 69, "note": 66, "velocity": 110, "channel": 0}, {"type": "note_on", "time": 16, "note": 63, "velocity": 100, "channel": 0}, {"type": "note_off", "time": 44, "note": 63, "velocity": 100, "channel": 0}, {"type": "note_on", "time": 11, "note": 66, "velocity": 106, "channel": 0}, {"type": "note_off", "time": 159, "note": 66, "velocity": 106, "channel": 0}, {"type": "note_on", "time": 27, "note": 72, "velocity": 111, "channel": 0}, {"type": "note_on", "time": 50, "note": 71, "velocity": 112, "channel": 0}, {"type": "note_off", "time": 0, "note": 72, "velocity": 111, "channel": 0}, {"type": "note_off", "time": 14, "note": 71, "velocity": 112, "channel": 0}, {"type": "note_on", "time": 9, "note": 72, "velocity": 114, "channel": 0}, {"type": "note_off", "time": 56, "note": 72, "velocity": 114, "channel": 0}, {"type": "note_on", "time": 7, "note": 73, "velocity": 99, "channel": 0}, {"type": "note_off", "time": 23, "note": 73, "velocity": 99, "channel": 0}, {"type": "note_on", "time": 8, "note": 74, "velocity": 99, "channel": 0}, {"type": "note_off", "time": 86, "note": 74, "velocity": 99, "channel": 0}, {"type": "note_on", "time": 2, "note": 75, "velocity": 101, "channel": 0}, {"type": "note_off", "time": 71, "note": 75, "velocity": 101, "channel": 0}, {"type": "note_on", "time": 17, "note": 63, "velocity": 120, "channel": 0}, {"type": "note_off", "time": 48, "note": 63, "velocity": 120, "channel": 0}, {"type": "note_on", "time": 8, "note": 65, "velocity": 112, "channel": 0}, {"type": "note_on", "time": 38, "note": 66, "velocity": 106, "channel": 0}, {"type": "note_off", "time": 0, "note": 65, "velocity": 112, "channel": 0}, {"type": "note_off", "time": 74, "note": 66, "velocity": 106, "channel": 0}, {"type": "note_on", "time": 12, "note": 63, "velocity": 97, "channel": 0}, {"type": "note_off", "time": 207, "note": 63, "velocity": 97, "channel": 0}, {"type": "note_on", "time": 510, "note": 70, "velocity": 115, "channel": 0}, {"type": "note_off", "time": 42, "note": 70, "velocity": 115, "channel": 0}, {"type": "note_on", "time": 1, "note": 68, "velocity": 115, "channel": 0}, {"type": "note_off", "time": 44, "note": 68, "velocity": 115, "channel": 0}, {"type": "note_on", "time": 3, "note": 67, "velocity": 112, "channel": 0}, {"type": "note_off", "time": 61, "note": 67, "velocity": 112, "channel": 0}, {"type": "note_on", "time": 44, "note": 70, "velocity": 113, "channel": 0}, {"type": "note_off", "time": 54, "note": 70, "velocity": 113, "channel": 0}, {"type": "note_on", "time": 24, "note": 70, "velocity": 108, "channel": 0}, {"type": "note_off", "time": 79, "note": 70, "velocity": 108, "channel": 0}, {"type": "note_on", "time": 260, "note": 73, "velocity": 104, "channel": 0}, {"type": "note_off", "time": 19, "note": 73, "velocity": 104, "channel": 0}, {"type": "note_on", "time": 5, "note": 72, "velocity": 104, "channel": 0}, {"type": "note_off", "time": 12, "note": 72, "velocity": 104, "channel": 0}, {"type": "note_on", "time": 3, "note": 71, "velocity": 115, "channel": 0}, {"type": "note_off", "time": 28, "note": 71, "velocity": 115, "channel": 0}, {"type": "note_on", "time": 7, "note": 70, "velocity": 115, "channel": 0}, {"type": "note_off", "time": 55, "note": 70, "velocity": 115, "channel": 0}, {"type": "note_on", "time": 3, "note": 68, "velocity": 113, "channel": 0}, {"type": "note_off", "time": 29, "note": 68, "velocity": 113, "channel": 0}, {"type": "note_on", "time": 8, "note": 67, "velocity": 110, "channel": 0}, {"type": "note_off", "time": 38, "note": 67, "velocity": 110, "channel": 0}, {"type": "note_on", "time": 19, "note": 65, "velocity": 112, "channel": 0}, {"type": "note_off", "time": 32, "note": 65, "velocity": 112, "channel": 0}, {"type": "note_on", "time": 6, "note": 64, "velocity": 116, "channel": 0}, {"type": "note_off", "time": 53, "note": 64, "velocity": 116, "channel": 0}, {"type": "note_on", "time": 0, "note": 61, "velocity": 109, "channel": 0}, {"type": "note_off", "time": 37, "note": 61, "velocity": 109, "channel": 0}, {"type": "note_on", "time": 13, "note": 60, "velocity": 110, "channel": 0}, {"type": "note_off", "time": 49, "note": 60, "velocity": 110, "channel": 0}, {"type": "note_on", "time": 11, "note": 58, "velocity": 110, "channel": 0}, {"type": "note_off", "time": 30, "note": 58, "velocity": 110, "channel": 0}, {"type": "note_on", "time": 3, "note": 55, "velocity": 111, "channel": 0}, {"type": "note_off", "time": 30, "note": 55, "velocity": 111, "channel": 0}, {"type": "note_on", "time": 12, "note": 56, "velocity": 109, "channel": 0}, {"type": "note_off", "time": 35, "note": 56, "velocity": 109, "channel": 0}, {"type": "note_on", "time": 9, "note": 58, "velocity": 108, "channel": 0}, {"type": "note_off", "time": 33, "note": 58, "velocity": 108, "channel": 0}, {"type": "note_on", "time": 3, "note": 61, "velocity": 103, "channel": 0}, {"type": "note_off", "time": 25, "note": 61, "velocity": 103, "channel": 0}, {"type": "note_on", "time": 4, "note": 64, "velocity": 101, "channel": 0}, {"type": "note_off", "time": 29, "note": 64, "velocity": 101, "channel": 0}, {"type": "note_on", "time": 9, "note": 67, "velocity": 111, "channel": 0}, {"type": "note_off", "time": 45, "note": 67, "velocity": 111, "channel": 0}, {"type": "note_on", "time": 4, "note": 64, "velocity": 110, "channel": 0}, {"type": "note_off", "time": 38, "note": 64, "velocity": 110, "channel": 0}, {"type": "note_on", "time": 7, "note": 65, "velocity": 101, "channel": 0}, {"type": "note_off", "time": 37, "note": 65, "velocity": 101, "channel": 0}, {"type": "note_on", "time": 6, "note": 67, "velocity": 110, "channel": 0}, {"type": "note_off", "time": 33, "note": 67, "velocity": 110, "channel": 0}, {"type": "note_on", "time": 6, "note": 68, "velocity": 110, "channel": 0}, {"type": "note_off", "time": 29, "note": 68, "velocity": 110, "channel": 0}, {"type": "note_on", "time": 21, "note": 59, "velocity": 100, "channel": 0}, {"type": "note_off", "time": 38, "note": 59, "velocity": 100, "channel": 0}, {"type": "note_on", "time": 13, "note": 60, "velocity": 110, "channel": 0}, {"type": "note_off", "time": 43, "note": 60, "velocity": 110, "channel": 0}, {"type": "note_on", "time": 2, "note": 63, "velocity": 102, "channel": 0}, {"type": "note_off", "time": 38, "note": 63, "velocity": 102, "channel": 0}, {"type": "note_on", "time": 0, "note": 67, "velocity": 110, "channel": 0}, {"type": "note_off", "time": 46, "note": 67, "velocity": 110, "channel": 0}, {"type": "note_on", "time": 16, "note": 66, "velocity": 113, "channel": 0}, {"type": "note_off", "time": 29, "note": 66, "velocity": 113, "channel": 0}, {"type": "note_on", "time": 9, "note": 65, "velocity": 108, "channel": 0}, {"type": "note_off", "time": 35, "note": 65, "velocity": 108, "channel": 0}, {"type": "note_on", "time": 10, "note": 64, "velocity": 117, "channel": 0}, {"type": "note_off", "time": 42, "note": 64, "velocity": 117, "channel": 0}, {"type": "note_on", "time": 3, "note": 63, "velocity": 108, "channel": 0}, {"type": "note_off", "time": 43, "note": 63, "velocity": 108, "channel": 0}, {"type": "note_on", "time": 6, "note": 60, "velocity": 109, "channel": 0}, {"type": "note_off", "time": 35, "note": 60, "velocity": 109, "channel": 0}, {"type": "note_on", "time": 8, "note": 56, "velocity": 104, "channel": 0}, {"type": "note_off", "time": 33, "note": 56, "velocity": 104, "channel": 0}, {"type": "note_on", "time": 9, "note": 53, "velocity": 103, "channel": 0}, {"type": "note_off", "time": 30, "note": 53, "velocity": 103, "channel": 0}, {"type": "note_on", "time": 12, "note": 62, "velocity": 113, "channel": 0}, {"type": "note_off", "time": 57, "note": 62, "velocity": 113, "channel": 0}, {"type": "note_on", "time": 5, "note": 58, "velocity": 95, "channel": 0}, {"type": "note_off", "time": 35, "note": 58, "velocity": 95, "channel": 0}, {"type": "note_on", "time": 4, "note": 60, "velocity": 112, "channel": 0}, {"type": "note_off", "time": 45, "note": 60, "velocity": 112, "channel": 0}, {"type": "note_on", "time": 10, "note": 56, "velocity": 114, "channel": 0}, {"type": "note_off", "time": 42, "note": 56, "velocity": 114, "channel": 0}, {"type": "note_on", "time": 12, "note": 55, "velocity": 115, "channel": 0}, {"type": "note_off", "time": 25, "note": 55, "velocity": 115, "channel": 0}, {"type": "note_on", "time": 14, "note": 53, "velocity": 108, "channel": 0}, {"type": "note_off", "time": 29, "note": 53, "velocity": 108, "channel": 0}, {"type": "note_on", "time": 1, "note": 58, "velocity": 106, "channel": 0}, {"type": "note_off", "time": 53, "note": 58, "velocity": 106, "channel": 0}, {"type": "note_on", "time": 6, "note": 57, "velocity": 111, "channel": 0}, {"type": "note_off", "time": 37, "note": 57, "velocity": 111, "channel": 0}, {"type": "note_on", "time": 6, "note": 56, "velocity": 109, "channel": 0}, {"type": "note_off", "time": 48, "note": 56, "velocity": 109, "channel": 0}, {"type": "note_on", "time": 6, "note": 58, "velocity": 101, "channel": 0}, {"type": "note_off", "time": 42, "note": 58, "velocity": 101, "channel": 0}, {"type": "note_on", "time": 9, "note": 60, "velocity": 107, "channel": 0}, {"type": "note_off", "time": 51, "note": 60, "velocity": 107, "channel": 0}, {"type": "note_on", "time": 9, "note": 62, "velocity": 108, "channel": 0}, {"type": "note_off", "time": 25, "note": 62, "velocity": 108, "channel": 0}, {"type": "note_on", "time": 15, "note": 66, "velocity": 110, "channel": 0}, {"type": "note_off", "time": 30, "note": 66, "velocity": 110, "channel": 0}, {"type": "note_on", "time": 30, "note": 61, "velocity": 101, "channel": 0}, {"type": "note_off", "time": 29, "note": 61, "velocity": 101, "channel": 0}, {"type": "note_on", "time": 7, "note": 62, "velocity": 105, "channel": 0}, {"type": "note_off", "time": 39, "note": 62, "velocity": 105, "channel": 0}, {"type": "note_on", "time": 3, "note": 65, "velocity": 105, "channel": 0}, {"type": "note_off", "time": 39, "note": 65, "velocity": 105, "channel": 0}, {"type": "note_on", "time": 4, "note": 63, "velocity": 109, "channel": 0}, {"type": "note_off", "time": 42, "note": 63, "velocity": 109, "channel": 0}, {"type": "note_on", "time": 4, "note": 60, "velocity": 105, "channel": 0}, {"type": "note_off", "time": 35, "note": 60, "velocity": 105, "channel": 0}, {"type": "note_on", "time": 3, "note": 56, "velocity": 103, "channel": 0}, {"type": "note_off", "time": 29, "note": 56, "velocity": 103, "channel": 0}, {"type": "note_on", "time": 16, "note": 53, "velocity": 104, "channel": 0}, {"type": "note_off", "time": 37, "note": 53, "velocity": 104, "channel": 0}, {"type": "note_on", "time": 23, "note": 62, "velocity": 113, "channel": 0}, {"type": "note_off", "time": 39, "note": 62, "velocity": 113, "channel": 0}, {"type": "note_on", "time": 0, "note": 60, "velocity": 106, "channel": 0}, {"type": "note_on", "time": 39, "note": 58, "velocity": 107, "channel": 0}, {"type": "note_off", "time": 0, "note": 60, "velocity": 106, "channel": 0}, {"type": "note_off", "time": 46, "note": 58, "velocity": 107, "channel": 0}, {"type": "note_on", "time": 7, "note": 56, "velocity": 109, "channel": 0}, {"type": "note_off", "time": 39, "note": 56, "velocity": 109, "channel": 0}, {"type": "note_on", "time": 2, "note": 55, "velocity": 107, "channel": 0}, {"type": "note_off", "time": 38, "note": 55, "velocity": 107, "channel": 0}, {"type": "note_on", "time": 7, "note": 58, "velocity": 107, "channel": 0}, {"type": "note_off", "time": 46, "note": 58, "velocity": 107, "channel": 0}, {"type": "note_on", "time": 6, "note": 60, "velocity": 110, "channel": 0}, {"type": "note_off", "time": 44, "note": 60, "velocity": 110, "channel": 0}, {"type": "note_on", "time": 18, "note": 62, "velocity": 109, "channel": 0}, {"type": "note_off", "time": 35, "note": 62, "velocity": 109, "channel": 0}, {"type": "note_on", "time": 0, "note": 65, "velocity": 110, "channel": 0}, {"type": "note_off", "time": 50, "note": 65, "velocity": 110, "channel": 0}, {"type": "note_on", "time": 2, "note": 62, "velocity": 104, "channel": 0}, {"type": "note_off", "time": 38, "note": 62, "velocity": 104, "channel": 0}, {"type": "note_on", "time": 2, "note": 63, "velocity": 96, "channel": 0}, {"type": "note_off", "time": 34, "note": 63, "velocity": 96, "channel": 0}, {"type": "note_on", "time": 21, "note": 65, "velocity": 111, "channel": 0}, {"type": "note_off", "time": 37, "note": 65, "velocity": 111, "channel": 0}, {"type": "note_on", "time": 11, "note": 67, "velocity": 111, "channel": 0}, {"type": "note_off", "time": 44, "note": 67, "velocity": 111, "channel": 0}, {"type": "note_on", "time": 3, "note": 70, "velocity": 111, "channel": 0}, {"type": "note_off", "time": 69, "note": 70, "velocity": 111, "channel": 0}, {"type": "note_on", "time": 621, "note": 77, "velocity": 108, "channel": 0}, {"type": "note_off", "time": 45, "note": 77, "velocity": 108, "channel": 0}, {"type": "note_on", "time": 0, "note": 78, "velocity": 105, "channel": 0}, {"type": "note_off", "time": 171, "note": 78, "velocity": 105, "channel": 0}, {"type": "note_on", "time": 17, "note": 75, "velocity": 103, "channel": 0}, {"type": "note_off", "time": 44, "note": 75, "velocity": 103, "channel": 0}, {"type": "note_on", "time": 8, "note": 73, "velocity": 101, "channel": 0}, {"type": "note_off", "time": 50, "note": 73, "velocity": 101, "channel": 0}, {"type": "note_on", "time": 2, "note": 70, "velocity": 109, "channel": 0}, {"type": "note_off", "time": 65, "note": 70, "velocity": 109, "channel": 0}, {"type": "note_on", "time": 22, "note": 69, "velocity": 115, "channel": 0}, {"type": "note_off", "time": 43, "note": 69, "velocity": 115, "channel": 0}, {"type": "note_on", "time": 13, "note": 68, "velocity": 111, "channel": 0}, {"type": "note_off", "time": 56, "note": 68, "velocity": 111, "channel": 0}, {"type": "note_on", "time": 11, "note": 66, "velocity": 110, "channel": 0}, {"type": "note_off", "time": 54, "note": 66, "velocity": 110, "channel": 0}, {"type": "note_on", "time": 11, "note": 63, "velocity": 117, "channel": 0}, {"type": "note_off", "time": 75, "note": 63, "velocity": 117, "channel": 0}, {"type": "note_on", "time": 124, "note": 54, "velocity": 113, "channel": 0}, {"type": "note_off", "time": 37, "note": 54, "velocity": 113, "channel": 0}, {"type": "note_on", "time": 19, "note": 66, "velocity": 104, "channel": 0}, {"type": "note_off", "time": 48, "note": 66, "velocity": 104, "channel": 0}, {"type": "note_on", "time": 19, "note": 66, "velocity": 103, "channel": 0}, {"type": "note_off", "time": 39, "note": 66, "velocity": 103, "channel": 0}, {"type": "note_on", "time": 25, "note": 63, "velocity": 103, "channel": 0}, {"type": "note_off", "time": 88, "note": 63, "velocity": 103, "channel": 0}, {"type": "note_on", "time": 71, "note": 68, "velocity": 109, "channel": 0}, {"type": "note_off", "time": 52, "note": 68, "velocity": 109, "channel": 0}, {"type": "note_on", "time": 329, "note": 78, "velocity": 101, "channel": 0}, {"type": "note_off", "time": 190, "note": 78, "velocity": 101, "channel": 0}, {"type": "note_on", "time": 43, "note": 75, "velocity": 107, "channel": 0}, {"type": "note_off", "time": 51, "note": 75, "velocity": 107, "channel": 0}, {"type": "note_on", "time": 6, "note": 73, "velocity": 104, "channel": 0}, {"type": "note_off", "time": 46, "note": 73, "velocity": 104, "channel": 0}, {"type": "note_on", "time": 9, "note": 70, "velocity": 109, "channel": 0}, {"type": "note_off", "time": 51, "note": 70, "velocity": 109, "channel": 0}, {"type": "note_on", "time": 3, "note": 69, "velocity": 111, "channel": 0}, {"type": "note_off", "time": 45, "note": 69, "velocity": 111, "channel": 0}, {"type": "note_on", "time": 23, "note": 68, "velocity": 108, "channel": 0}, {"type": "note_off", "time": 40, "note": 68, "velocity": 108, "channel": 0}, {"type": "note_on", "time": 18, "note": 66, "velocity": 100, "channel": 0}, {"type": "note_off", "time": 63, "note": 66, "velocity": 100, "channel": 0}, {"type": "note_on", "time": 19, "note": 63, "velocity": 112, "channel": 0}, {"type": "note_off", "time": 58, "note": 63, "velocity": 112, "channel": 0}, {"type": "note_on", "time": 126, "note": 68, "velocity": 112, "channel": 0}, {"type": "note_off", "time": 55, "note": 68, "velocity": 112, "channel": 0}, {"type": "note_on", "time": 8, "note": 69, "velocity": 103, "channel": 0}, {"type": "note_off", "time": 77, "note": 69, "velocity": 103, "channel": 0}, {"type": "note_on", "time": 1, "note": 67, "velocity": 112, "channel": 0}, {"type": "note_off", "time": 21, "note": 67, "velocity": 112, "channel": 0}, {"type": "note_on", "time": 2, "note": 69, "velocity": 112, "channel": 0}, {"type": "note_off", "time": 87, "note": 69, "velocity": 112, "channel": 0}, {"type": "note_on", "time": 7, "note": 68, "velocity": 100, "channel": 0}, {"type": "note_off", "time": 30, "note": 68, "velocity": 100, "channel": 0}, {"type": "note_on", "time": 11, "note": 72, "velocity": 107, "channel": 0}, {"type": "note_off", "time": 49, "note": 72, "velocity": 107, "channel": 0}, {"type": "note_on", "time": 11, "note": 71, "velocity": 111, "channel": 0}, {"type": "note_off", "time": 32, "note": 71, "velocity": 111, "channel": 0}, {"type": "note_on", "time": 3, "note": 70, "velocity": 115, "channel": 0}, {"type": "note_off", "time": 49, "note": 70, "velocity": 115, "channel": 0}, {"type": "note_on", "time": 61, "note": 58, "velocity": 104, "channel": 0}, {"type": "note_off", "time": 45, "note": 58, "velocity": 104, "channel": 0}, {"type": "note_on", "time": 42, "note": 65, "velocity": 111, "channel": 0}, {"type": "note_off", "time": 48, "note": 65, "velocity": 111, "channel": 0}, {"type": "note_on", "time": 14, "note": 68, "velocity": 111, "channel": 0}, {"type": "note_off", "time": 37, "note": 68, "velocity": 111, "channel": 0}, {"type": "note_on", "time": 34, "note": 66, "velocity": 114, "channel": 0}, {"type": "note_off", "time": 26, "note": 66, "velocity": 114, "channel": 0}, {"type": "note_on", "time": 3, "note": 67, "velocity": 105, "channel": 0}, {"type": "note_off", "time": 30, "note": 67, "velocity": 105, "channel": 0}, {"type": "note_on", "time": 14, "note": 63, "velocity": 104, "channel": 0}, {"type": "note_off", "time": 45, "note": 63, "velocity": 104, "channel": 0}, {"type": "note_on", "time": 8, "note": 65, "velocity": 103, "channel": 0}, {"type": "note_off", "time": 46, "note": 65, "velocity": 103, "channel": 0}, {"type": "note_on", "time": 22, "note": 61, "velocity": 104, "channel": 0}, {"type": "note_off", "time": 53, "note": 61, "velocity": 104, "channel": 0}, {"type": "note_on", "time": 4, "note": 58, "velocity": 107, "channel": 0}, {"type": "note_off", "time": 50, "note": 58, "velocity": 107, "channel": 0}, {"type": "note_on", "time": 9, "note": 53, "velocity": 101, "channel": 0}, {"type": "note_off", "time": 49, "note": 53, "velocity": 101, "channel": 0}, {"type": "note_on", "time": 1, "note": 63, "velocity": 112, "channel": 0}, {"type": "note_off", "time": 59, "note": 63, "velocity": 112, "channel": 0}, {"type": "note_on", "time": 11, "note": 61, "velocity": 111, "channel": 0}, {"type": "note_off", "time": 56, "note": 61, "velocity": 111, "channel": 0}, {"type": "note_on", "time": 3, "note": 60, "velocity": 113, "channel": 0}, {"type": "note_off", "time": 55, "note": 60, "velocity": 113, "channel": 0}, {"type": "note_on", "time": 2, "note": 56, "velocity": 106, "channel": 0}, {"type": "note_off", "time": 49, "note": 56, "velocity": 106, "channel": 0}, {"type": "note_on", "time": 6, "note": 51, "velocity": 106, "channel": 0}, {"type": "note_off", "time": 27, "note": 51, "velocity": 106, "channel": 0}, {"type": "note_on", "time": 8, "note": 54, "velocity": 106, "channel": 0}, {"type": "note_off", "time": 64, "note": 54, "velocity": 106, "channel": 0}, {"type": "note_on", "time": 14, "note": 58, "velocity": 104, "channel": 0}, {"type": "note_off", "time": 43, "note": 58, "velocity": 104, "channel": 0}, {"type": "note_on", "time": 6, "note": 51, "velocity": 91, "channel": 0}, {"type": "note_off", "time": 200, "note": 51, "velocity": 91, "channel": 0}, {"type": "note_on", "time": 313, "note": 55, "velocity": 109, "channel": 0}, {"type": "note_off", "time": 45, "note": 55, "velocity": 109, "channel": 0}, {"type": "note_on", "time": 4, "note": 57, "velocity": 109, "channel": 0}, {"type": "note_off", "time": 39, "note": 57, "velocity": 109, "channel": 0}, {"type": "note_on", "time": 2, "note": 60, "velocity": 118, "channel": 0}, {"type": "note_off", "time": 55, "note": 60, "velocity": 118, "channel": 0}, {"type": "note_on", "time": 4, "note": 59, "velocity": 112, "channel": 0}, {"type": "note_off", "time": 30, "note": 59, "velocity": 112, "channel": 0}, {"type": "note_on", "time": 7, "note": 58, "velocity": 109, "channel": 0}, {"type": "note_off", "time": 46, "note": 58, "velocity": 109, "channel": 0}, {"type": "note_on", "time": 0, "note": 56, "velocity": 110, "channel": 0}, {"type": "note_off", "time": 30, "note": 56, "velocity": 110, "channel": 0}, {"type": "note_on", "time": 13, "note": 55, "velocity": 114, "channel": 0}, {"type": "note_off", "time": 44, "note": 55, "velocity": 114, "channel": 0}, {"type": "note_on", "time": 4, "note": 58, "velocity": 105, "channel": 0}, {"type": "note_off", "time": 37, "note": 58, "velocity": 105, "channel": 0}, {"type": "note_on", "time": 8, "note": 60, "velocity": 110, "channel": 0}, {"type": "note_off", "time": 38, "note": 60, "velocity": 110, "channel": 0}, {"type": "note_on", "time": 12, "note": 65, "velocity": 106, "channel": 0}, {"type": "note_off", "time": 46, "note": 65, "velocity": 106, "channel": 0}, {"type": "note_on", "time": 0, "note": 62, "velocity": 119, "channel": 0}, {"type": "note_off", "time": 45, "note": 62, "velocity": 119, "channel": 0}, {"type": "note_on", "time": 9, "note": 63, "velocity": 110, "channel": 0}, {"type": "note_off", "time": 81, "note": 63, "velocity": 110, "channel": 0}, {"type": "note_on", "time": 17, "note": 70, "velocity": 88, "channel": 0}, {"type": "note_off", "time": 30, "note": 70, "velocity": 88, "channel": 0}, {"type": "note_on", "time": 4, "note": 74, "velocity": 105, "channel": 0}, {"type": "note_off", "time": 45, "note": 74, "velocity": 105, "channel": 0}, {"type": "note_on", "time": 0, "note": 75, "velocity": 99, "channel": 0}, {"type": "note_off", "time": 53, "note": 75, "velocity": 99, "channel": 0}, {"type": "note_on", "time": 6, "note": 72, "velocity": 104, "channel": 0}, {"type": "note_off", "time": 44, "note": 72, "velocity": 104, "channel": 0}, {"type": "note_on", "time": 2, "note": 68, "velocity": 112, "channel": 0}, {"type": "note_off", "time": 39, "note": 68, "velocity": 112, "channel": 0}, {"type": "note_on", "time": 0, "note": 67, "velocity": 109, "channel": 0}, {"type": "note_off", "time": 43, "note": 67, "velocity": 109, "channel": 0}, {"type": "note_on", "time": 9, "note": 65, "velocity": 95, "channel": 0}, {"type": "note_off", "time": 51, "note": 65, "velocity": 95, "channel": 0}, {"type": "note_on", "time": 7, "note": 74, "velocity": 78, "channel": 0}, {"type": "note_off", "time": 19, "note": 74, "velocity": 78, "channel": 0}, {"type": "note_on", "time": 8, "note": 73, "velocity": 104, "channel": 0}, {"type": "note_off", "time": 21, "note": 73, "velocity": 104, "channel": 0}, {"type": "note_on", "time": 2, "note": 72, "velocity": 105, "channel": 0}, {"type": "note_off", "time": 16, "note": 72, "velocity": 105, "channel": 0}, {"type": "note_on", "time": 6, "note": 71, "velocity": 111, "channel": 0}, {"type": "note_off", "time": 28, "note": 71, "velocity": 111, "channel": 0}, {"type": "note_on", "time": 4, "note": 70, "velocity": 111, "channel": 0}, {"type": "note_off", "time": 28, "note": 70, "velocity": 111, "channel": 0}, {"type": "note_on", "time": 12, "note": 68, "velocity": 109, "channel": 0}, {"type": "note_off", "time": 43, "note": 68, "velocity": 109, "channel": 0}, {"type": "note_on", "time": 3, "note": 67, "velocity": 104, "channel": 0}, {"type": "note_off", "time": 32, "note": 67, "velocity": 104, "channel": 0}, {"type": "note_on", "time": 11, "note": 65, "velocity": 107, "channel": 0}, {"type": "note_on", "time": 44, "note": 62, "velocity": 116, "channel": 0}, {"type": "note_off", "time": 0, "note": 65, "velocity": 107, "channel": 0}, {"type": "note_off", "time": 39, "note": 62, "velocity": 116, "channel": 0}, {"type": "note_on", "time": 8, "note": 63, "velocity": 112, "channel": 0}, {"type": "note_off", "time": 50, "note": 63, "velocity": 112, "channel": 0}, {"type": "note_on", "time": 1, "note": 64, "velocity": 108, "channel": 0}, {"type": "note_off", "time": 50, "note": 64, "velocity": 108, "channel": 0}, {"type": "note_on", "time": 2, "note": 55, "velocity": 109, "channel": 0}, {"type": "note_off", "time": 39, "note": 55, "velocity": 109, "channel": 0}, {"type": "note_on", "time": 3, "note": 58, "velocity": 103, "channel": 0}, {"type": "note_off", "time": 32, "note": 58, "velocity": 103, "channel": 0}, {"type": "note_on", "time": 12, "note": 61, "velocity": 110, "channel": 0}, {"type": "note_off", "time": 44, "note": 61, "velocity": 110, "channel": 0}, {"type": "note_on", "time": 4, "note": 60, "velocity": 111, "channel": 0}, {"type": "note_off", "time": 39, "note": 60, "velocity": 111, "channel": 0}, {"type": "note_on", "time": 7, "note": 55, "velocity": 105, "channel": 0}, {"type": "note_off", "time": 35, "note": 55, "velocity": 105, "channel": 0}, {"type": "note_on", "time": 4, "note": 58, "velocity": 109, "channel": 0}, {"type": "note_off", "time": 40, "note": 58, "velocity": 109, "channel": 0}, {"type": "note_on", "time": 3, "note": 56, "velocity": 101, "channel": 0}, {"type": "note_off", "time": 18, "note": 56, "velocity": 101, "channel": 0}, {"type": "note_on", "time": 4, "note": 57, "velocity": 108, "channel": 0}, {"type": "note_off", "time": 44, "note": 57, "velocity": 108, "channel": 0}, {"type": "note_on", "time": 2, "note": 58, "velocity": 100, "channel": 0}, {"type": "note_off", "time": 17, "note": 58, "velocity": 100, "channel": 0}, {"type": "note_on", "time": 7, "note": 60, "velocity": 103, "channel": 0}, {"type": "note_off", "time": 17, "note": 60, "velocity": 103, "channel": 0}, {"type": "note_on", "time": 16, "note": 64, "velocity": 112, "channel": 0}, {"type": "note_off", "time": 14, "note": 64, "velocity": 112, "channel": 0}, {"type": "note_on", "time": 13, "note": 67, "velocity": 114, "channel": 0}, {"type": "note_off", "time": 50, "note": 67, "velocity": 114, "channel": 0}, {"type": "note_on", "time": 0, "note": 64, "velocity": 98, "channel": 0}, {"type": "note_off", "time": 25, "note": 64, "velocity": 98, "channel": 0}, {"type": "note_on", "time": 9, "note": 65, "velocity": 100, "channel": 0}, {"type": "note_off", "time": 42, "note": 65, "velocity": 100, "channel": 0}, {"type": "note_on", "time": 2, "note": 67, "velocity": 101, "channel": 0}, {"type": "note_off", "time": 35, "note": 67, "velocity": 101, "channel": 0}, {"type": "note_on", "time": 12, "note": 68, "velocity": 107, "channel": 0}, {"type": "note_off", "time": 43, "note": 68, "velocity": 107, "channel": 0}, {"type": "note_on", "time": 11, "note": 70, "velocity": 98, "channel": 0}, {"type": "note_off", "time": 40, "note": 70, "velocity": 98, "channel": 0}, {"type": "note_on", "time": 7, "note": 72, "velocity": 108, "channel": 0}, {"type": "note_off", "time": 54, "note": 72, "velocity": 108, "channel": 0}, {"type": "note_on", "time": 3, "note": 68, "velocity": 113, "channel": 0}, {"type": "note_off", "time": 34, "note": 68, "velocity": 113, "channel": 0}, {"type": "note_on", "time": 8, "note": 67, "velocity": 107, "channel": 0}, {"type": "note_off", "time": 38, "note": 67, "velocity": 107, "channel": 0}, {"type": "note_on", "time": 11, "note": 65, "velocity": 106, "channel": 0}, {"type": "note_off", "time": 29, "note": 65, "velocity": 106, "channel": 0}, {"type": "note_on", "time": 9, "note": 64, "velocity": 101, "channel": 0}, {"type": "note_off", "time": 39, "note": 64, "velocity": 101, "channel": 0}, {"type": "note_on", "time": 11, "note": 65, "velocity": 97, "channel": 0}, {"type": "note_off", "time": 35, "note": 65, "velocity": 97, "channel": 0}, {"type": "note_on", "time": 4, "note": 70, "velocity": 107, "channel": 0}, {"type": "note_off", "time": 46, "note": 70, "velocity": 107, "channel": 0}, {"type": "note_on", "time": 1, "note": 69, "velocity": 105, "channel": 0}, {"type": "note_off", "time": 38, "note": 69, "velocity": 105, "channel": 0}, {"type": "note_on", "time": 9, "note": 68, "velocity": 98, "channel": 0}, {"type": "note_off", "time": 49, "note": 68, "velocity": 98, "channel": 0}, {"type": "note_on", "time": 53, "note": 71, "velocity": 116, "channel": 0}, {"type": "note_off", "time": 51, "note": 71, "velocity": 116, "channel": 0}, {"type": "note_on", "time": 6, "note": 70, "velocity": 110, "channel": 0}, {"type": "note_off", "time": 44, "note": 70, "velocity": 110, "channel": 0}, {"type": "note_on", "time": 5, "note": 69, "velocity": 106, "channel": 0}, {"type": "note_off", "time": 25, "note": 69, "velocity": 106, "channel": 0}, {"type": "note_on", "time": 40, "note": 61, "velocity": 100, "channel": 0}, {"type": "note_off", "time": 23, "note": 61, "velocity": 100, "channel": 0}, {"type": "note_on", "time": 7, "note": 68, "velocity": 108, "channel": 0}, {"type": "note_off", "time": 48, "note": 68, "velocity": 108, "channel": 0}, {"type": "note_on", "time": 0, "note": 66, "velocity": 107, "channel": 0}, {"type": "note_off", "time": 44, "note": 66, "velocity": 107, "channel": 0}, {"type": "note_on", "time": 6, "note": 65, "velocity": 106, "channel": 0}, {"type": "note_off", "time": 29, "note": 65, "velocity": 106, "channel": 0}, {"type": "note_on", "time": 8, "note": 64, "velocity": 110, "channel": 0}, {"type": "note_off", "time": 28, "note": 64, "velocity": 110, "channel": 0}, {"type": "note_on", "time": 18, "note": 63, "velocity": 111, "channel": 0}, {"type": "note_off", "time": 44, "note": 63, "velocity": 111, "channel": 0}, {"type": "note_on", "time": 4, "note": 60, "velocity": 110, "channel": 0}, {"type": "note_off", "time": 39, "note": 60, "velocity": 110, "channel": 0}, {"type": "note_on", "time": 11, "note": 56, "velocity": 103, "channel": 0}, {"type": "note_off", "time": 42, "note": 56, "velocity": 103, "channel": 0}, {"type": "note_on", "time": 3, "note": 53, "velocity": 105, "channel": 0}, {"type": "note_off", "time": 37, "note": 53, "velocity": 105, "channel": 0}, {"type": "note_on", "time": 3, "note": 62, "velocity": 111, "channel": 0}, {"type": "note_off", "time": 59, "note": 62, "velocity": 111, "channel": 0}, {"type": "note_on", "time": 12, "note": 58, "velocity": 98, "channel": 0}, {"type": "note_off", "time": 23, "note": 58, "velocity": 98, "channel": 0}, {"type": "note_on", "time": 8, "note": 60, "velocity": 98, "channel": 0}, {"type": "note_off", "time": 27, "note": 60, "velocity": 98, "channel": 0}, {"type": "note_on", "time": 11, "note": 62, "velocity": 109, "channel": 0}, {"type": "note_off", "time": 28, "note": 62, "velocity": 109, "channel": 0}, {"type": "note_on", "time": 2, "note": 65, "velocity": 104, "channel": 0}, {"type": "note_off", "time": 27, "note": 65, "velocity": 104, "channel": 0}, {"type": "note_on", "time": 8, "note": 62, "velocity": 111, "channel": 0}, {"type": "note_off", "time": 44, "note": 62, "velocity": 111, "channel": 0}, {"type": "note_on", "time": 6, "note": 63, "velocity": 108, "channel": 0}, {"type": "note_off", "time": 58, "note": 63, "velocity": 108, "channel": 0}, {"type": "note_on", "time": 33, "note": 70, "velocity": 109, "channel": 0}, {"type": "note_off", "time": 43, "note": 70, "velocity": 109, "channel": 0}, {"type": "note_on", "time": 0, "note": 74, "velocity": 107, "channel": 0}, {"type": "note_off", "time": 43, "note": 74, "velocity": 107, "channel": 0}, {"type": "note_on", "time": 4, "note": 75, "velocity": 106, "channel": 0}, {"type": "note_off", "time": 27, "note": 75, "velocity": 106, "channel": 0}, {"type": "note_on", "time": 3, "note": 70, "velocity": 107, "channel": 0}, {"type": "note_off", "time": 54, "note": 70, "velocity": 107, "channel": 0}, {"type": "note_on", "time": 4, "note": 68, "velocity": 109, "channel": 0}, {"type": "note_off", "time": 37, "note": 68, "velocity": 109, "channel": 0}, {"type": "note_on", "time": 9, "note": 67, "velocity": 102, "channel": 0}, {"type": "note_off", "time": 37, "note": 67, "velocity": 102, "channel": 0}, {"type": "note_on", "time": 21, "note": 63, "velocity": 114, "channel": 0}, {"type": "note_off", "time": 46, "note": 63, "velocity": 114, "channel": 0}, {"type": "note_on", "time": 44, "note": 61, "velocity": 81, "channel": 0}, {"type": "note_off", "time": 23, "note": 61, "velocity": 81, "channel": 0}, {"type": "note_on", "time": 19, "note": 71, "velocity": 108, "channel": 0}, {"type": "note_off", "time": 33, "note": 71, "velocity": 108, "channel": 0}, {"type": "note_on", "time": 6, "note": 72, "velocity": 106, "channel": 0}, {"type": "note_off", "time": 90, "note": 72, "velocity": 106, "channel": 0}, {"type": "note_on", "time": 0, "note": 70, "velocity": 91, "channel": 0}, {"type": "note_off", "time": 181, "note": 70, "velocity": 91, "channel": 0}, {"type": "note_on", "time": 463, "note": 75, "velocity": 93, "channel": 0}, {"type": "note_off", "time": 87, "note": 75, "velocity": 93, "channel": 0}, {"type": "note_on", "time": 51, "note": 87, "velocity": 93, "channel": 0}, {"type": "note_off", "time": 44, "note": 87, "velocity": 93, "channel": 0}, {"type": "note_on", "time": 34, "note": 87, "velocity": 66, "channel": 0}, {"type": "note_off", "time": 104, "note": 87, "velocity": 66, "channel": 0}, {"type": "note_on", "time": 409, "note": 81, "velocity": 88, "channel": 0}, {"type": "note_off", "time": 62, "note": 81, "velocity": 88, "channel": 0}, {"type": "note_on", "time": 7, "note": 84, "velocity": 105, "channel": 0}, {"type": "note_off", "time": 96, "note": 84, "velocity": 105, "channel": 0}, {"type": "note_on", "time": 9, "note": 86, "velocity": 100, "channel": 0}, {"type": "note_off", "time": 21, "note": 86, "velocity": 100, "channel": 0}, {"type": "note_on", "time": 8, "note": 87, "velocity": 97, "channel": 0}, {"type": "note_off", "time": 48, "note": 87, "velocity": 97, "channel": 0}, {"type": "note_on", "time": 28, "note": 87, "velocity": 77, "channel": 0}, {"type": "note_off", "time": 70, "note": 87, "velocity": 77, "channel": 0}, {"type": "note_on", "time": 403, "note": 80, "velocity": 86, "channel": 0}, {"type": "note_off", "time": 71, "note": 80, "velocity": 86, "channel": 0}, {"type": "note_on", "time": 3, "note": 84, "velocity": 99, "channel": 0}, {"type": "note_off", "time": 93, "note": 84, "velocity": 99, "channel": 0}, {"type": "note_on", "time": 55, "note": 87, "velocity": 63, "channel": 0}, {"type": "note_off", "time": 173, "note": 87, "velocity": 63, "channel": 0}, {"type": "note_on", "time": 361, "note": 80, "velocity": 82, "channel": 0}, {"type": "note_off", "time": 69, "note": 80, "velocity": 82, "channel": 0}, {"type": "note_on", "time": 6, "note": 85, "velocity": 108, "channel": 0}, {"type": "note_off", "time": 47, "note": 85, "velocity": 108, "channel": 0}, {"type": "note_on", "time": 51, "note": 86, "velocity": 102, "channel": 0}, {"type": "note_off", "time": 19, "note": 86, "velocity": 102, "channel": 0}, {"type": "note_on", "time": 7, "note": 87, "velocity": 90, "channel": 0}, {"type": "note_off", "time": 50, "note": 87, "velocity": 90, "channel": 0}, {"type": "note_on", "time": 82, "note": 75, "velocity": 88, "channel": 0}, {"type": "note_off", "time": 32, "note": 75, "velocity": 88, "channel": 0}, {"type": "note_on", "time": 394, "note": 81, "velocity": 98, "channel": 0}, {"type": "note_off", "time": 51, "note": 81, "velocity": 98, "channel": 0}, {"type": "note_on", "time": 4, "note": 85, "velocity": 104, "channel": 0}, {"type": "note_off", "time": 38, "note": 85, "velocity": 104, "channel": 0}, {"type": "note_on", "time": 88, "note": 88, "velocity": 98, "channel": 0}, {"type": "note_off", "time": 42, "note": 88, "velocity": 98, "channel": 0}, {"type": "note_on", "time": 18, "note": 88, "velocity": 83, "channel": 0}, {"type": "note_off", "time": 28, "note": 88, "velocity": 83, "channel": 0}, {"type": "note_on", "time": 31, "note": 88, "velocity": 86, "channel": 0}, {"type": "note_off", "time": 19, "note": 88, "velocity": 86, "channel": 0}, {"type": "note_on", "time": 28, "note": 75, "velocity": 91, "channel": 0}, {"type": "note_off", "time": 34, "note": 75, "velocity": 91, "channel": 0}, {"type": "note_on", "time": 218, "note": 85, "velocity": 108, "channel": 0}, {"type": "note_off", "time": 43, "note": 85, "velocity": 108, "channel": 0}, {"type": "note_on", "time": 30, "note": 87, "velocity": 103, "channel": 0}, {"type": "note_off", "time": 29, "note": 87, "velocity": 103, "channel": 0}, {"type": "note_on", "time": 10, "note": 88, "velocity": 89, "channel": 0}, {"type": "note_off", "time": 59, "note": 88, "velocity": 89, "channel": 0}, {"type": "note_on", "time": 201, "note": 63, "velocity": 123, "channel": 0}, {"type": "note_off", "time": 67, "note": 63, "velocity": 123, "channel": 0}, {"type": "note_on", "time": 25, "note": 66, "velocity": 115, "channel": 0}, {"type": "note_off", "time": 105, "note": 66, "velocity": 115, "channel": 0}, {"type": "note_on", "time": 195, "note": 84, "velocity": 102, "channel": 0}, {"type": "note_off", "time": 43, "note": 84, "velocity": 102, "channel": 0}, {"type": "note_on", "time": 67, "note": 87, "velocity": 70, "channel": 0}, {"type": "note_off", "time": 84, "note": 87, "velocity": 70, "channel": 0}, {"type": "note_on", "time": 171, "note": 63, "velocity": 127, "channel": 0}, {"type": "note_off", "time": 81, "note": 63, "velocity": 127, "channel": 0}, {"type": "note_on", "time": 12, "note": 66, "velocity": 116, "channel": 0}, {"type": "note_off", "time": 60, "note": 66, "velocity": 116, "channel": 0}, {"type": "note_on", "time": 7, "note": 67, "velocity": 113, "channel": 0}, {"type": "note_off", "time": 32, "note": 67, "velocity": 113, "channel": 0}, {"type": "note_on", "time": 187, "note": 84, "velocity": 93, "channel": 0}, {"type": "note_off", "time": 35, "note": 84, "velocity": 93, "channel": 0}, {"type": "note_on", "time": 40, "note": 87, "velocity": 102, "channel": 0}, {"type": "note_off", "time": 27, "note": 87, "velocity": 102, "channel": 0}, {"type": "note_on", "time": 12, "note": 87, "velocity": 71, "channel": 0}, {"type": "note_off", "time": 78, "note": 87, "velocity": 71, "channel": 0}, {"type": "note_on", "time": 155, "note": 63, "velocity": 119, "channel": 0}, {"type": "note_off", "time": 80, "note": 63, "velocity": 119, "channel": 0}, {"type": "note_on", "time": 19, "note": 66, "velocity": 119, "channel": 0}, {"type": "note_off", "time": 29, "note": 66, "velocity": 119, "channel": 0}, {"type": "note_on", "time": 7, "note": 67, "velocity": 114, "channel": 0}, {"type": "note_off", "time": 32, "note": 67, "velocity": 114, "channel": 0}, {"type": "note_on", "time": 8, "note": 68, "velocity": 112, "channel": 0}, {"type": "note_off", "time": 54, "note": 68, "velocity": 112, "channel": 0}, {"type": "note_on", "time": 4, "note": 67, "velocity": 118, "channel": 0}, {"type": "note_off", "time": 39, "note": 67, "velocity": 118, "channel": 0}, {"type": "note_on", "time": 12, "note": 68, "velocity": 109, "channel": 0}, {"type": "note_off", "time": 29, "note": 68, "velocity": 109, "channel": 0}, {"type": "note_on", "time": 25, "note": 69, "velocity": 106, "channel": 0}, {"type": "note_off", "time": 46, "note": 69, "velocity": 106, "channel": 0}, {"type": "note_on", "time": 7, "note": 68, "velocity": 112, "channel": 0}, {"type": "note_off", "time": 14, "note": 68, "velocity": 112, "channel": 0}, {"type": "note_on", "time": 1, "note": 69, "velocity": 107, "channel": 0}, {"type": "note_off", "time": 67, "note": 69, "velocity": 107, "channel": 0}, {"type": "note_on", "time": 17, "note": 70, "velocity": 110, "channel": 0}, {"type": "note_off", "time": 59, "note": 70, "velocity": 110, "channel": 0}, {"type": "note_on", "time": 66, "note": 84, "velocity": 101, "channel": 0}, {"type": "note_off", "time": 40, "note": 84, "velocity": 101, "channel": 0}, {"type": "note_on", "time": 51, "note": 86, "velocity": 85, "channel": 0}, {"type": "note_off", "time": 17, "note": 86, "velocity": 85, "channel": 0}, {"type": "note_on", "time": 16, "note": 87, "velocity": 75, "channel": 0}, {"type": "note_off", "time": 77, "note": 87, "velocity": 75, "channel": 0}, {"type": "note_on", "time": 52, "note": 75, "velocity": 82, "channel": 0}, {"type": "note_off", "time": 45, "note": 75, "velocity": 82, "channel": 0}, {"type": "note_on", "time": 64, "note": 85, "velocity": 104, "channel": 0}, {"type": "note_off", "time": 54, "note": 85, "velocity": 104, "channel": 0}, {"type": "note_on", "time": 40, "note": 73, "velocity": 96, "channel": 0}, {"type": "note_off", "time": 58, "note": 73, "velocity": 96, "channel": 0}, {"type": "note_on", "time": 39, "note": 82, "velocity": 107, "channel": 0}, {"type": "note_off", "time": 69, "note": 82, "velocity": 107, "channel": 0}, {"type": "note_on", "time": 37, "note": 72, "velocity": 85, "channel": 0}, {"type": "note_off", "time": 44, "note": 72, "velocity": 85, "channel": 0}, {"type": "note_on", "time": 30, "note": 78, "velocity": 99, "channel": 0}, {"type": "note_off", "time": 55, "note": 78, "velocity": 99, "channel": 0}, {"type": "note_on", "time": 32, "note": 75, "velocity": 106, "channel": 0}, {"type": "note_off", "time": 124, "note": 75, "velocity": 106, "channel": 0}, {"type": "note_on", "time": 101, "note": 77, "velocity": 86, "channel": 0}, {"type": "note_off", "time": 36, "note": 77, "velocity": 86, "channel": 0}, {"type": "note_on", "time": 0, "note": 78, "velocity": 103, "channel": 0}, {"type": "note_off", "time": 74, "note": 78, "velocity": 103, "channel": 0}, {"type": "note_on", "time": 38, "note": 75, "velocity": 109, "channel": 0}, {"type": "note_off", "time": 48, "note": 75, "velocity": 109, "channel": 0}, {"type": "note_on", "time": 6, "note": 73, "velocity": 105, "channel": 0}, {"type": "note_off", "time": 48, "note": 73, "velocity": 105, "channel": 0}, {"type": "note_on", "time": 19, "note": 70, "velocity": 113, "channel": 0}, {"type": "note_off", "time": 50, "note": 70, "velocity": 113, "channel": 0}, {"type": "note_on", "time": 11, "note": 69, "velocity": 116, "channel": 0}, {"type": "note_off", "time": 51, "note": 69, "velocity": 116, "channel": 0}, {"type": "note_on", "time": 9, "note": 68, "velocity": 114, "channel": 0}, {"type": "note_off", "time": 49, "note": 68, "velocity": 114, "channel": 0}, {"type": "note_on", "time": 11, "note": 66, "velocity": 112, "channel": 0}, {"type": "note_off", "time": 44, "note": 66, "velocity": 112, "channel": 0}, {"type": "note_on", "time": 42, "note": 77, "velocity": 98, "channel": 0}, {"type": "note_off", "time": 34, "note": 77, "velocity": 98, "channel": 0}, {"type": "note_on", "time": 4, "note": 78, "velocity": 110, "channel": 0}, {"type": "note_off", "time": 122, "note": 78, "velocity": 110, "channel": 0}, {"type": "note_on", "time": 2, "note": 75, "velocity": 105, "channel": 0}, {"type": "note_off", "time": 45, "note": 75, "velocity": 105, "channel": 0}, {"type": "note_on", "time": 16, "note": 73, "velocity": 100, "channel": 0}, {"type": "note_off", "time": 49, "note": 73, "velocity": 100, "channel": 0}, {"type": "note_on", "time": 13, "note": 70, "velocity": 114, "channel": 0}, {"type": "note_off", "time": 39, "note": 70, "velocity": 114, "channel": 0}, {"type": "note_on", "time": 44, "note": 69, "velocity": 108, "channel": 0}, {"type": "note_off", "time": 34, "note": 69, "velocity": 108, "channel": 0}, {"type": "note_on", "time": 18, "note": 68, "velocity": 103, "channel": 0}, {"type": "note_off", "time": 61, "note": 68, "velocity": 103, "channel": 0}, {"type": "note_on", "time": 0, "note": 66, "velocity": 105, "channel": 0}, {"type": "note_off", "time": 32, "note": 66, "velocity": 105, "channel": 0}, {"type": "note_on", "time": 53, "note": 77, "velocity": 94, "channel": 0}, {"type": "note_off", "time": 25, "note": 77, "velocity": 94, "channel": 0}, {"type": "note_on", "time": 2, "note": 78, "velocity": 110, "channel": 0}, {"type": "note_off", "time": 124, "note": 78, "velocity": 110, "channel": 0}, {"type": "note_on", "time": 28, "note": 75, "velocity": 106, "channel": 0}, {"type": "note_off", "time": 48, "note": 75, "velocity": 106, "channel": 0}, {"type": "note_on", "time": 14, "note": 73, "velocity": 101, "channel": 0}, {"type": "note_off", "time": 40, "note": 73, "velocity": 101, "channel": 0}, {"type": "note_on", "time": 18, "note": 70, "velocity": 109, "channel": 0}, {"type": "note_off", "time": 40, "note": 70, "velocity": 109, "channel": 0}, {"type": "note_on", "time": 18, "note": 68, "velocity": 116, "channel": 0}, {"type": "note_off", "time": 30, "note": 68, "velocity": 116, "channel": 0}, {"type": "note_on", "time": 8, "note": 69, "velocity": 113, "channel": 0}, {"type": "note_off", "time": 50, "note": 69, "velocity": 113, "channel": 0}, {"type": "note_on", "time": 28, "note": 63, "velocity": 110, "channel": 0}, {"type": "note_off", "time": 48, "note": 63, "velocity": 110, "channel": 0}, {"type": "note_on", "time": 40, "note": 69, "velocity": 109, "channel": 0}, {"type": "note_off", "time": 40, "note": 69, "velocity": 109, "channel": 0}, {"type": "note_on", "time": 0, "note": 68, "velocity": 110, "channel": 0}, {"type": "note_off", "time": 42, "note": 68, "velocity": 110, "channel": 0}, {"type": "note_on", "time": 13, "note": 66, "velocity": 108, "channel": 0}, {"type": "note_off", "time": 61, "note": 66, "velocity": 108, "channel": 0}, {"type": "note_on", "time": 7, "note": 63, "velocity": 111, "channel": 0}, {"type": "note_off", "time": 150, "note": 63, "velocity": 111, "channel": 0}, {"type": "note_on", "time": 126, "note": 63, "velocity": 116, "channel": 0}, {"type": "note_off", "time": 34, "note": 63, "velocity": 116, "channel": 0}, {"type": "note_on", "time": 19, "note": 63, "velocity": 118, "channel": 0}, {"type": "note_off", "time": 35, "note": 63, "velocity": 118, "channel": 0}, {"type": "note_on", "time": 29, "note": 66, "velocity": 113, "channel": 0}, {"type": "note_off", "time": 37, "note": 66, "velocity": 113, "channel": 0}, {"type": "note_on", "time": 6, "note": 67, "velocity": 108, "channel": 0}, {"type": "note_off", "time": 69, "note": 67, "velocity": 108, "channel": 0}, {"type": "note_on", "time": 4, "note": 72, "velocity": 116, "channel": 0}, {"type": "note_off", "time": 59, "note": 72, "velocity": 116, "channel": 0}, {"type": "note_on", "time": 4, "note": 71, "velocity": 112, "channel": 0}, {"type": "note_off", "time": 25, "note": 71, "velocity": 112, "channel": 0}, {"type": "note_on", "time": 9, "note": 70, "velocity": 117, "channel": 0}, {"type": "note_off", "time": 96, "note": 70, "velocity": 117, "channel": 0}, {"type": "note_on", "time": 6, "note": 63, "velocity": 106, "channel": 0}, {"type": "note_off", "time": 235, "note": 63, "velocity": 106, "channel": 0}, {"type": "note_on", "time": 114, "note": 63, "velocity": 111, "channel": 0}, {"type": "note_off", "time": 37, "note": 63, "velocity": 111, "channel": 0}, {"type": "note_on", "time": 9, "note": 63, "velocity": 117, "channel": 0}, {"type": "note_off", "time": 32, "note": 63, "velocity": 117, "channel": 0}, {"type": "note_on", "time": 79, "note": 70, "velocity": 116, "channel": 0}, {"type": "note_off", "time": 70, "note": 70, "velocity": 116, "channel": 0}, {"type": "note_on", "time": 9, "note": 68, "velocity": 115, "channel": 0}, {"type": "note_off", "time": 24, "note": 68, "velocity": 115, "channel": 0}, {"type": "note_on", "time": 44, "note": 66, "velocity": 107, "channel": 0}, {"type": "note_off", "time": 42, "note": 66, "velocity": 107, "channel": 0}, {"type": "note_on", "time": 6, "note": 61, "velocity": 111, "channel": 0}, {"type": "note_off", "time": 56, "note": 61, "velocity": 111, "channel": 0}, {"type": "note_on", "time": 3, "note": 63, "velocity": 99, "channel": 0}, {"type": "note_off", "time": 223, "note": 63, "velocity": 99, "channel": 0}, {"type": "note_on", "time": 123, "note": 58, "velocity": 110, "channel": 0}, {"type": "note_off", "time": 43, "note": 58, "velocity": 110, "channel": 0}, {"type": "note_on", "time": 23, "note": 58, "velocity": 107, "channel": 0}, {"type": "note_off", "time": 40, "note": 58, "velocity": 107, "channel": 0}, {"type": "note_on", "time": 25, "note": 61, "velocity": 116, "channel": 0}, {"type": "note_off", "time": 38, "note": 61, "velocity": 116, "channel": 0}, {"type": "note_on", "time": 7, "note": 62, "velocity": 121, "channel": 0}, {"type": "note_off", "time": 50, "note": 62, "velocity": 121, "channel": 0}, {"type": "note_on", "time": 4, "note": 65, "velocity": 115, "channel": 0}, {"type": "note_off", "time": 43, "note": 65, "velocity": 115, "channel": 0}, {"type": "note_on", "time": 2, "note": 64, "velocity": 120, "channel": 0}, {"type": "note_off", "time": 37, "note": 64, "velocity": 120, "channel": 0}, {"type": "note_on", "time": 6, "note": 63, "velocity": 123, "channel": 0}, {"type": "note_off", "time": 40, "note": 63, "velocity": 123, "channel": 0}, {"type": "note_on", "time": 4, "note": 62, "velocity": 122, "channel": 0}, {"type": "note_off", "time": 43, "note": 62, "velocity": 122, "channel": 0}, {"type": "note_on", "time": 4, "note": 61, "velocity": 114, "channel": 0}, {"type": "note_off", "time": 38, "note": 61, "velocity": 114, "channel": 0}, {"type": "note_on", "time": 8, "note": 53, "velocity": 104, "channel": 0}, {"type": "note_off", "time": 35, "note": 53, "velocity": 104, "channel": 0}, {"type": "note_on", "time": 13, "note": 60, "velocity": 117, "channel": 0}, {"type": "note_off", "time": 40, "note": 60, "velocity": 117, "channel": 0}, {"type": "note_on", "time": 0, "note": 58, "velocity": 108, "channel": 0}, {"type": "note_off", "time": 42, "note": 58, "velocity": 108, "channel": 0}, {"type": "note_on", "time": 9, "note": 53, "velocity": 109, "channel": 0}, {"type": "note_off", "time": 38, "note": 53, "velocity": 109, "channel": 0}, {"type": "note_on", "time": 7, "note": 56, "velocity": 118, "channel": 0}, {"type": "note_off", "time": 35, "note": 56, "velocity": 118, "channel": 0}, {"type": "note_on", "time": 2, "note": 55, "velocity": 114, "channel": 0}, {"type": "note_off", "time": 37, "note": 55, "velocity": 114, "channel": 0}, {"type": "note_on", "time": 8, "note": 51, "velocity": 103, "channel": 0}, {"type": "note_off", "time": 35, "note": 51, "velocity": 103, "channel": 0}, {"type": "note_on", "time": 7, "note": 53, "velocity": 106, "channel": 0}, {"type": "note_off", "time": 40, "note": 53, "velocity": 106, "channel": 0}, {"type": "note_on", "time": 6, "note": 49, "velocity": 64, "channel": 0}, {"type": "note_off", "time": 33, "note": 49, "velocity": 64, "channel": 0}, {"type": "note_on", "time": 12, "note": 48, "velocity": 108, "channel": 0}, {"type": "note_off", "time": 33, "note": 48, "velocity": 108, "channel": 0}, {"type": "note_on", "time": 11, "note": 46, "velocity": 111, "channel": 0}, {"type": "note_off", "time": 43, "note": 46, "velocity": 111, "channel": 0}, {"type": "note_on", "time": 11, "note": 51, "velocity": 109, "channel": 0}, {"type": "note_off", "time": 35, "note": 51, "velocity": 109, "channel": 0}, {"type": "note_on", "time": 4, "note": 50, "velocity": 110, "channel": 0}, {"type": "note_off", "time": 28, "note": 50, "velocity": 110, "channel": 0}, {"type": "note_on", "time": 12, "note": 49, "velocity": 108, "channel": 0}, {"type": "note_off", "time": 46, "note": 49, "velocity": 108, "channel": 0}, {"type": "note_on", "time": 19, "note": 50, "velocity": 104, "channel": 0}, {"type": "note_off", "time": 35, "note": 50, "velocity": 104, "channel": 0}, {"type": "note_on", "time": 6, "note": 55, "velocity": 107, "channel": 0}, {"type": "note_off", "time": 16, "note": 55, "velocity": 107, "channel": 0}, {"type": "note_on", "time": 3, "note": 59, "velocity": 108, "channel": 0}, {"type": "note_off", "time": 19, "note": 59, "velocity": 108, "channel": 0}, {"type": "note_on", "time": 9, "note": 66, "velocity": 110, "channel": 0}, {"type": "note_off", "time": 61, "note": 66, "velocity": 110, "channel": 0}, {"type": "note_on", "time": 1, "note": 64, "velocity": 110, "channel": 0}, {"type": "note_off", "time": 49, "note": 64, "velocity": 110, "channel": 0}, {"type": "note_on", "time": 1, "note": 59, "velocity": 105, "channel": 0}, {"type": "note_off", "time": 39, "note": 59, "velocity": 105, "channel": 0}, {"type": "note_on", "time": 4, "note": 57, "velocity": 112, "channel": 0}, {"type": "note_off", "time": 38, "note": 57, "velocity": 112, "channel": 0}, {"type": "note_on", "time": 3, "note": 55, "velocity": 118, "channel": 0}, {"type": "note_off", "time": 61, "note": 55, "velocity": 118, "channel": 0}, {"type": "note_on", "time": 8, "note": 61, "velocity": 121, "channel": 0}, {"type": "note_off", "time": 60, "note": 61, "velocity": 121, "channel": 0}, {"type": "note_on", "time": 89, "note": 60, "velocity": 119, "channel": 0}, {"type": "note_off", "time": 91, "note": 60, "velocity": 119, "channel": 0}, {"type": "note_on", "time": 253, "note": 56, "velocity": 105, "channel": 0}, {"type": "note_off", "time": 44, "note": 56, "velocity": 105, "channel": 0}, {"type": "note_on", "time": 8, "note": 58, "velocity": 101, "channel": 0}, {"type": "note_off", "time": 90, "note": 58, "velocity": 101, "channel": 0}, {"type": "note_on", "time": 21, "note": 54, "velocity": 108, "channel": 0}, {"type": "note_off", "time": 67, "note": 54, "velocity": 108, "channel": 0}, {"type": "note_on", "time": 2, "note": 51, "velocity": 100, "channel": 0}, {"type": "note_off", "time": 134, "note": 51, "velocity": 100, "channel": 0}, {"type": "note_on", "time": 13, "note": 49, "velocity": 103, "channel": 0}, {"type": "note_off", "time": 48, "note": 49, "velocity": 103, "channel": 0}, {"type": "note_on", "time": 17, "note": 48, "velocity": 99, "channel": 0}, {"type": "note_off", "time": 96, "note": 48, "velocity": 99, "channel": 0}, {"type": "note_on", "time": 32, "note": 56, "velocity": 101, "channel": 0}, {"type": "note_off", "time": 109, "note": 56, "velocity": 101, "channel": 0}, {"type": "note_on", "time": 264, "note": 56, "velocity": 110, "channel": 0}, {"type": "note_off", "time": 60, "note": 56, "velocity": 110, "channel": 0}, {"type": "note_on", "time": 4, "note": 57, "velocity": 100, "channel": 0}, {"type": "note_off", "time": 92, "note": 57, "velocity": 100, "channel": 0}, {"type": "note_on", "time": 17, "note": 60, "velocity": 113, "channel": 0}, {"type": "note_off", "time": 85, "note": 60, "velocity": 113, "channel": 0}, {"type": "note_on", "time": 9, "note": 58, "velocity": 102, "channel": 0}, {"type": "note_off", "time": 86, "note": 58, "velocity": 102, "channel": 0}, {"type": "note_on", "time": 11, "note": 55, "velocity": 110, "channel": 0}, {"type": "note_off", "time": 67, "note": 55, "velocity": 110, "channel": 0}, {"type": "note_on", "time": 17, "note": 51, "velocity": 103, "channel": 0}, {"type": "note_off", "time": 92, "note": 51, "velocity": 103, "channel": 0}, {"type": "note_on", "time": 13, "note": 48, "velocity": 98, "channel": 0}, {"type": "note_off", "time": 45, "note": 48, "velocity": 98, "channel": 0}, {"type": "note_on", "time": 22, "note": 56, "velocity": 105, "channel": 0}, {"type": "note_off", "time": 116, "note": 56, "velocity": 105, "channel": 0}, {"type": "note_on", "time": 0, "note": 58, "velocity": 104, "channel": 0}, {"type": "note_off", "time": 59, "note": 58, "velocity": 104, "channel": 0}, {"type": "note_on", "time": 16, "note": 54, "velocity": 110, "channel": 0}, {"type": "note_off", "time": 49, "note": 54, "velocity": 110, "channel": 0}, {"type": "note_on", "time": 2, "note": 55, "velocity": 105, "channel": 0}, {"type": "note_off", "time": 75, "note": 55, "velocity": 105, "channel": 0}, {"type": "note_on", "time": 8, "note": 51, "velocity": 103, "channel": 0}, {"type": "note_off", "time": 54, "note": 51, "velocity": 103, "channel": 0}, {"type": "note_on", "time": 515, "note": 48, "velocity": 111, "channel": 0}, {"type": "note_off", "time": 58, "note": 48, "velocity": 111, "channel": 0}, {"type": "note_on", "time": 16, "note": 51, "velocity": 104, "channel": 0}, {"type": "note_off", "time": 81, "note": 51, "velocity": 104, "channel": 0}, {"type": "note_on", "time": 29, "note": 55, "velocity": 116, "channel": 0}, {"type": "note_off", "time": 74, "note": 55, "velocity": 116, "channel": 0}, {"type": "note_on", "time": 34, "note": 51, "velocity": 99, "channel": 0}, {"type": "note_off", "time": 88, "note": 51, "velocity": 99, "channel": 0}, {"type": "note_on", "time": 32, "note": 48, "velocity": 104, "channel": 0}, {"type": "note_off", "time": 40, "note": 48, "velocity": 104, "channel": 0}, {"type": "note_on", "time": 32, "note": 51, "velocity": 98, "channel": 0}, {"type": "note_off", "time": 70, "note": 51, "velocity": 98, "channel": 0}, {"type": "note_on", "time": 19, "note": 54, "velocity": 112, "channel": 0}, {"type": "note_off", "time": 76, "note": 54, "velocity": 112, "channel": 0}, {"type": "note_on", "time": 14, "note": 51, "velocity": 97, "channel": 0}, {"type": "note_off", "time": 76, "note": 51, "velocity": 97, "channel": 0}, {"type": "note_on", "time": 19, "note": 48, "velocity": 98, "channel": 0}, {"type": "note_off", "time": 54, "note": 48, "velocity": 98, "channel": 0}, {"type": "note_on", "time": 33, "note": 51, "velocity": 101, "channel": 0}, {"type": "note_off", "time": 67, "note": 51, "velocity": 101, "channel": 0}, {"type": "note_on", "time": 29, "note": 55, "velocity": 111, "channel": 0}, {"type": "note_off", "time": 71, "note": 55, "velocity": 111, "channel": 0}, {"type": "note_on", "time": 6, "note": 58, "velocity": 103, "channel": 0}, {"type": "note_off", "time": 63, "note": 58, "velocity": 103, "channel": 0}, {"type": "note_on", "time": 11, "note": 57, "velocity": 107, "channel": 0}, {"type": "note_off", "time": 37, "note": 57, "velocity": 107, "channel": 0}, {"type": "note_on", "time": 11, "note": 56, "velocity": 106, "channel": 0}, {"type": "note_off", "time": 32, "note": 56, "velocity": 106, "channel": 0}, {"type": "note_on", "time": 33, "note": 55, "velocity": 107, "channel": 0}, {"type": "note_off", "time": 82, "note": 55, "velocity": 107, "channel": 0}, {"type": "note_on", "time": 42, "note": 51, "velocity": 111, "channel": 0}, {"type": "note_off", "time": 58, "note": 51, "velocity": 111, "channel": 0}, {"type": "note_on", "time": 33, "note": 46, "velocity": 108, "channel": 0}, {"type": "note_off", "time": 85, "note": 46, "velocity": 108, "channel": 0}, {"type": "note_on", "time": 4, "note": 45, "velocity": 115, "channel": 0}, {"type": "note_off", "time": 58, "note": 45, "velocity": 115, "channel": 0}, {"type": "note_on", "time": 11, "note": 44, "velocity": 123, "channel": 0}, {"type": "note_off", "time": 92, "note": 44, "velocity": 123, "channel": 0}, {"type": "note_on", "time": 33, "note": 53, "velocity": 107, "channel": 0}, {"type": "note_off", "time": 64, "note": 53, "velocity": 107, "channel": 0}, {"type": "note_on", "time": 12, "note": 50, "velocity": 102, "channel": 0}, {"type": "note_off", "time": 37, "note": 50, "velocity": 102, "channel": 0}, {"type": "note_on", "time": 7, "note": 51, "velocity": 103, "channel": 0}, {"type": "note_off", "time": 111, "note": 51, "velocity": 103, "channel": 0}, {"type": "note_on", "time": 42, "note": 60, "velocity": 115, "channel": 0}, {"type": "note_off", "time": 132, "note": 60, "velocity": 115, "channel": 0}, {"type": "note_on", "time": 12, "note": 58, "velocity": 100, "channel": 0}, {"type": "note_off", "time": 247, "note": 58, "velocity": 100, "channel": 0}, {"type": "note_on", "time": 28, "note": 51, "velocity": 104, "channel": 0}, {"type": "note_off", "time": 91, "note": 51, "velocity": 104, "channel": 0}, {"type": "note_on", "time": 88, "note": 56, "velocity": 104, "channel": 0}, {"type": "note_off", "time": 58, "note": 56, "velocity": 104, "channel": 0}, {"type": "note_on", "time": 9, "note": 55, "velocity": 101, "channel": 0}, {"type": "note_off", "time": 45, "note": 55, "velocity": 101, "channel": 0}, {"type": "note_on", "time": 80, "note": 56, "velocity": 98, "channel": 0}, {"type": "note_off", "time": 77, "note": 56, "velocity": 98, "channel": 0}, {"type": "note_on", "time": 28, "note": 54, "velocity": 101, "channel": 0}, {"type": "note_off", "time": 56, "note": 54, "velocity": 101, "channel": 0}, {"type": "note_on", "time": 17, "note": 51, "velocity": 101, "channel": 0}, {"type": "note_off", "time": 105, "note": 51, "velocity": 101, "channel": 0}, {"type": "note_on", "time": 17, "note": 46, "velocity": 109, "channel": 0}, {"type": "note_off", "time": 46, "note": 46, "velocity": 109, "channel": 0}, {"type": "note_on", "time": 12, "note": 49, "velocity": 99, "channel": 0}, {"type": "note_off", "time": 82, "note": 49, "velocity": 99, "channel": 0}, {"type": "note_on", "time": 45, "note": 51, "velocity": 97, "channel": 0}, {"type": "note_off", "time": 97, "note": 51, "velocity": 97, "channel": 0}, {"type": "end_of_track", "time": 0}]]}