{"ticks_per_beat": 840, "tracks": [[{"type": "track_name", "name": "Melody", "time": 0}, {"type": "set_tempo", "tempo": 387096, "time": 0}, {"type": "key_signature", "key": "D", "time": 0}, {"type": "time_signature", "numerator": 4, "denominator": 4, "clocks_per_click": 24, "notated_32nd_notes_per_beat": 8, "time": 0}, {"type": "note_on", "time": 8446, "note": 78, "velocity": 119, "channel": 0}, {"type": "note_off", "time": 478, "note": 78, "velocity": 119, "channel": 0}, {"type": "note_on", "time": 47, "note": 73, "velocity": 107, "channel": 0}, {"type": "note_off", "time": 4393, "note": 73, "velocity": 107, "channel": 0}, {"type": "note_on", "time": 69, "note": 75, "velocity": 111, "channel": 0}, {"type": "note_off", "time": 497, "note": 75, "velocity": 111, "channel": 0}, {"type": "note_on", "time": 50, "note": 70, "velocity": 109, "channel": 0}, {"type": "note_off", "time": 3256, "note": 70, "velocity": 109, "channel": 0}, {"type": "note_on", "time": 239, "note": 68, "velocity": 102, "channel": 0}, {"type": "note_off", "time": 170, "note": 68, "velocity": 102, "channel": 0}, {"type": "note_on", "time": 119, "note": 70, "velocity": 111, "channel": 0}, {"type": "note_off", "time": 623, "note": 70, "velocity": 111, "channel": 0}, {"type": "note_on", "time": 6, "note": 68, "velocity": 92, "channel": 0}, {"type": "note_off", "time": 176, "note": 68, "velocity": 92, "channel": 0}, {"type": "note_on", "time": 25, "note": 70, "velocity": 110, "channel": 0}, {"type": "note_off", "time": 604, "note": 70, "velocity": 110, "channel": 0}, {"type": "note_on", "time": 107, "note": 68, "velocity": 85, "channel": 0}, {"type": "note_off", "time": 2166, "note": 68, "velocity": 85, "channel": 0}, {"type": "note_on", "time": 3634, "note": 70, "velocity": 95, "channel": 0}, {"type": "note_off", "time": 154, "note": 70, "velocity": 95, "channel": 0}, {"type": "note_on", "time": 144, "note": 75, "velocity": 111, "channel": 0}, {"type": "note_off", "time": 393, "note": 75, "velocity": 111, "channel": 0}, {"type": "note_on", "time": 103, "note": 77, "velocity": 115, "channel": 0}, {"type": "note_off", "time": 349, "note": 77, "velocity": 115, "channel": 0}, {"type": "note_on", "time": 12, "note": 78, "velocity": 124, "channel": 0}, {"type": "note_off", "time": 406, "note": 78, "velocity": 124, "channel": 0}, {"type": "note_on", "time": 141, "note": 80, "velocity": 122, "channel": 0}, {"type": "note_off", "time": 289, "note": 80, "velocity": 122, "channel": 0}, {"type": "note_on", "time": 47, "note": 82, "velocity": 123, "channel": 0}, {"type": "note_off", "time": 377, "note": 82, "velocity": 123, "channel": 0}, {"type": "note_on", "time": 151, "note": 77, "velocity": 102, "channel": 0}, {"type": "note_off", "time": 157, "note": 77, "velocity": 102, "channel": 0}, {"type": "note_on", "time": 157, "note": 80, "velocity": 120, "channel": 0}, {"type": "note_off", "time": 551, "note": 80, "velocity": 120, "channel": 0}, {"type": "note_on", "time": 31, "note": 82, "velocity": 110, "channel": 0}, {"type": "note_off", "time": 163, "note": 82, "velocity": 110, "channel": 0}, {"type": "note_on", "time": 91, "note": 78, "velocity": 125, "channel": 0}, {"type": "note_off", "time": 459, "note": 78, "velocity": 125, "channel": 0}, {"type": "note_on", "time": 56, "note": 75, "velocity": 121, "channel": 0}, {"type": "note_off", "time": 1014, "note": 75, "velocity": 121, "channel": 0}, {"type": "note_on", "time": 22, "note": 70, "velocity": 121, "channel": 0}, {"type": "note_off", "time": 642, "note": 70, "velocity": 121, "channel": 0}, {"type": "note_on", "time": 0, "note": 68, "velocity": 117, "channel": 0}, {"type": "note_off", "time": 1618, "note": 68, "velocity": 117, "channel": 0}, {"type": "note_on", "time": 50, "note": 70, "velocity": 114, "channel": 0}, {"type": "note_off", "time": 214, "note": 70, "velocity": 114, "channel": 0}, {"type": "note_on", "time": 28, "note": 68, "velocity": 119, "channel": 0}, {"type": "note_off", "time": 494, "note": 68, "velocity": 119, "channel": 0}, {"type": "note_on", "time": 31, "note": 70, "velocity": 119, "channel": 0}, {"type": "note_off", "time": 891, "note": 70, "velocity": 119, "channel": 0}, {"type": "note_on", "time": 53, "note": 66, "velocity": 109, "channel": 0}, {"type": "note_off", "time": 182, "note": 66, "velocity": 109, "channel": 0}, {"type": "note_on", "time": 28, "note": 68, "velocity": 116, "channel": 0}, {"type": "note_off", "time": 513, "note": 68, "velocity": 116, "channel": 0}, {"type": "note_on", "time": 18, "note": 70, "velocity": 109, "channel": 0}, {"type": "note_off", "time": 2229, "note": 70, "velocity": 109, "channel": 0}, {"type": "note_on", "time": 1876, "note": 79, "velocity": 102, "channel": 0}, {"type": "note_off", "time": 132, "note": 79, "velocity": 102, "channel": 0}, {"type": "note_on", "time": 0, "note": 80, "velocity": 111, "channel": 0}, {"type": "note_off", "time": 100, "note": 80, "velocity": 111, "channel": 0}, {"type": "note_on", "time": 53, "note": 82, "velocity": 116, "channel": 0}, {"type": "note_off", "time": 239, "note": 82, "velocity": 116, "channel": 0}, {"type": "note_on", "time": 0, "note": 80, "velocity": 112, "channel": 0}, {"type": "note_off", "time": 325, "note": 80, "velocity": 112, "channel": 0}, {"type": "note_on", "time": 68, "note": 79, "velocity": 121, "channel": 0}, {"type": "note_off", "time": 332, "note": 79, "velocity": 121, "channel": 0}, {"type": "note_on", "time": 50, "note": 77, "velocity": 120, "channel": 0}, {"type": "note_off", "time": 367, "note": 77, "velocity": 120, "channel": 0}, {"type": "note_on", "time": 22, "note": 76, "velocity": 123, "channel": 0}, {"type": "note_off", "time": 425, "note": 76, "velocity": 123, "channel": 0}, {"type": "note_on", "time": 42, "note": 75, "velocity": 120, "channel": 0}, {"type": "note_off", "time": 394, "note": 75, "velocity": 120, "channel": 0}, {"type": "note_on", "time": 17, "note": 74, "velocity": 120, "channel": 0}, {"type": "note_off", "time": 400, "note": 74, "velocity": 120, "channel": 0}, {"type": "note_on", "time": 31, "note": 73, "velocity": 116, "channel": 0}, {"type": "note_off", "time": 414, "note": 73, "velocity": 116, "channel": 0}, {"type": "note_on", "time": 35, "note": 72, "velocity": 120, "channel": 0}, {"type": "note_off", "time": 385, "note": 72, "velocity": 120, "channel": 0}, {"type": "note_on", "time": 35, "note": 71, "velocity": 117, "channel": 0}, {"type": "note_off", "time": 562, "note": 71, "velocity": 117, "channel": 0}, {"type": "note_on", "time": 4, "note": 73, "velocity": 113, "channel": 0}, {"type": "note_off", "time": 270, "note": 73, "velocity": 113, "channel": 0}, {"type": "note_on", "time": 593, "note": 75, "velocity": 106, "channel": 0}, {"type": "note_off", "time": 93, "note": 75, "velocity": 106, "channel": 0}, {"type": "note_on", "time": 2, "note": 74, "velocity": 120, "channel": 0}, {"type": "note_off", "time": 223, "note": 74, "velocity": 120, "channel": 0}, {"type": "note_on", "time": 11, "note": 73, "velocity": 116, "channel": 0}, {"type": "note_off", "time": 349, "note": 73, "velocity": 116, "channel": 0}, {"type": "note_on", "time": 15, "note": 70, "velocity": 119, "channel": 0}, {"type": "note_off", "time": 363, "note": 70, "velocity": 119, "channel": 0}, {"type": "note_on", "time": 2, "note": 68, "velocity": 115, "channel": 0}, {"type": "note_off", "time": 387, "note": 68, "velocity": 115, "channel": 0}, {"type": "note_on", "time": 6, "note": 67, "velocity": 114, "channel": 0}, {"type": "note_off", "time": 389, "note": 67, "velocity": 114, "channel": 0}, {"type": "note_on", "time": 28, "note": 66, "velocity": 112, "channel": 0}, {"type": "note_off", "time": 389, "note": 66, "velocity": 112, "channel": 0}, {"type": "note_on", "time": 2, "note": 64, "velocity": 112, "channel": 0}, {"type": "note_off", "time": 383, "note": 64, "velocity": 112, "channel": 0}, {"type": "note_on", "time": 44, "note": 61, "velocity": 108, "channel": 0}, {"type": "note_off", "time": 329, "note": 61, "velocity": 108, "channel": 0}, {"type": "note_on", "time": 2, "note": 62, "velocity": 108, "channel": 0}, {"type": "note_off", "time": 354, "note": 62, "velocity": 108, "channel": 0}, {"type": "note_on", "time": 86, "note": 63, "velocity": 110, "channel": 0}, {"type": "note_off", "time": 190, "note": 63, "velocity": 110, "channel": 0}, {"type": "note_on", "time": 35, "note": 64, "velocity": 110, "channel": 0}, {"type": "note_off", "time": 316, "note": 64, "velocity": 110, "channel": 0}, {"type": "note_on", "time": 11, "note": 65, "velocity": 114, "channel": 0}, {"type": "note_off", "time": 221, "note": 65, "velocity": 114, "channel": 0}, {"type": "note_on", "time": 57, "note": 66, "velocity": 112, "channel": 0}, {"type": "note_off", "time": 431, "note": 66, "velocity": 112, "channel": 0}, {"type": "note_on", "time": 53, "note": 68, "velocity": 113, "channel": 0}, {"type": "note_off", "time": 296, "note": 68, "velocity": 113, "channel": 0}, {"type": "note_on", "time": 4, "note": 69, "velocity": 110, "channel": 0}, {"type": "note_off", "time": 152, "note": 69, "velocity": 110, "channel": 0}, {"type": "note_on", "time": 6, "note": 71, "velocity": 118, "channel": 0}, {"type": "note_off", "time": 230, "note": 71, "velocity": 118, "channel": 0}, {"type": "note_on", "time": 0, "note": 72, "velocity": 117, "channel": 0}, {"type": "note_off", "time": 347, "note": 72, "velocity": 117, "channel": 0}, {"type": "note_on", "time": 33, "note": 69, "velocity": 112, "channel": 0}, {"type": "note_off", "time": 407, "note": 69, "velocity": 112, "channel": 0}, {"type": "note_on", "time": 442, "note": 79, "velocity": 121, "channel": 0}, {"type": "note_off", "time": 186, "note": 79, "velocity": 121, "channel": 0}, {"type": "note_on", "time": 4, "note": 77, "velocity": 117, "channel": 0}, {"type": "note_off", "time": 112, "note": 77, "velocity": 117, "channel": 0}, {"type": "note_on", "time": 2, "note": 74, "velocity": 119, "channel": 0}, {"type": "note_off", "time": 484, "note": 74, "velocity": 119, "channel": 0}, {"type": "note_on", "time": 0, "note": 72, "velocity": 120, "channel": 0}, {"type": "note_off", "time": 354, "note": 72, "velocity": 120, "channel": 0}, {"type": "note_on", "time": 17, "note": 69, "velocity": 114, "channel": 0}, {"type": "note_off", "time": 467, "note": 69, "velocity": 114, "channel": 0}, {"type": "note_on", "time": 42, "note": 67, "velocity": 116, "channel": 0}, {"type": "note_off", "time": 385, "note": 67, "velocity": 116, "channel": 0}, {"type": "note_on", "time": 473, "note": 65, "velocity": 82, "channel": 0}, {"type": "note_off", "time": 152, "note": 65, "velocity": 82, "channel": 0}, {"type": "note_on", "time": 290, "note": 62, "velocity": 77, "channel": 0}, {"type": "note_off", "time": 86, "note": 62, "velocity": 77, "channel": 0}, {"type": "note_on", "time": 19, "note": 64, "velocity": 92, "channel": 0}, {"type": "note_off", "time": 84, "note": 64, "velocity": 92, "channel": 0}, {"type": "note_on", "time": 112, "note": 67, "velocity": 111, "channel": 0}, {"type": "note_off", "time": 135, "note": 67, "velocity": 111, "channel": 0}, {"type": "note_on", "time": 0, "note": 65, "velocity": 109, "channel": 0}, {"type": "note_off", "time": 232, "note": 65, "velocity": 109, "channel": 0}, {"type": "note_on", "time": 4, "note": 63, "velocity": 97, "channel": 0}, {"type": "note_off", "time": 349, "note": 63, "velocity": 97, "channel": 0}, {"type": "note_on", "time": 73, "note": 67, "velocity": 108, "channel": 0}, {"type": "note_off", "time": 365, "note": 67, "velocity": 108, "channel": 0}, {"type": "note_on", "time": 50, "note": 70, "velocity": 114, "channel": 0}, {"type": "note_off", "time": 360, "note": 70, "velocity": 114, "channel": 0}, {"type": "note_on", "time": 4, "note": 74, "velocity": 119, "channel": 0}, {"type": "note_off", "time": 363, "note": 74, "velocity": 119, "channel": 0}, {"type": "note_on", "time": 13, "note": 77, "velocity": 120, "channel": 0}, {"type": "note_off", "time": 371, "note": 77, "velocity": 120, "channel": 0}, {"type": "note_on", "time": 0, "note": 74, "velocity": 117, "channel": 0}, {"type": "note_off", "time": 420, "note": 74, "velocity": 117, "channel": 0}, {"type": "note_on", "time": 17, "note": 75, "velocity": 114, "channel": 0}, {"type": "note_off", "time": 398, "note": 75, "velocity": 114, "channel": 0}, {"type": "note_on", "time": 0, "note": 77, "velocity": 116, "channel": 0}, {"type": "note_off", "time": 398, "note": 77, "velocity": 116, "channel": 0}, {"type": "note_on", "time": 6, "note": 74, "velocity": 114, "channel": 0}, {"type": "note_off", "time": 533, "note": 74, "velocity": 114, "channel": 0}, {"type": "note_on", "time": 6, "note": 71, "velocity": 106, "channel": 0}, {"type": "note_off", "time": 294, "note": 71, "velocity": 106, "channel": 0}, {"type": "note_on", "time": 533, "note": 77, "velocity": 118, "channel": 0}, {"type": "note_off", "time": 345, "note": 77, "velocity": 118, "channel": 0}, {"type": "note_on", "time": 95, "note": 76, "velocity": 114, "channel": 0}, {"type": "note_off", "time": 469, "note": 76, "velocity": 114, "channel": 0}, {"type": "note_on", "time": 35, "note": 73, "velocity": 112, "channel": 0}, {"type": "note_off", "time": 389, "note": 73, "velocity": 112, "channel": 0}, {"type": "note_on", "time": 5971, "note": 76, "velocity": 108, "channel": 0}, {"type": "note_off", "time": 259, "note": 76, "velocity": 108, "channel": 0}, {"type": "note_on", "time": 166, "note": 76, "velocity": 123, "channel": 0}, {"type": "note_off", "time": 352, "note": 76, "velocity": 123, "channel": 0}, {"type": "note_on", "time": 22, "note": 78, "velocity": 127, "channel": 0}, {"type": "note_off", "time": 471, "note": 78, "velocity": 127, "channel": 0}, {"type": "note_on", "time": 17, "note": 73, "velocity": 120, "channel": 0}, {"type": "note_off", "time": 440, "note": 73, "velocity": 120, "channel": 0}, {"type": "note_on", "time": 338, "note": 71, "velocity": 121, "channel": 0}, {"type": "note_off", "time": 374, "note": 71, "velocity": 121, "channel": 0}, {"type": "note_on", "time": 62, "note": 73, "velocity": 120, "channel": 0}, {"type": "note_off", "time": 394, "note": 73, "velocity": 120, "channel": 0}, {"type": "note_on", "time": 19, "note": 71, "velocity": 119, "channel": 0}, {"type": "note_off", "time": 407, "note": 71, "velocity": 119, "channel": 0}, {"type": "note_on", "time": 3080, "note": 73, "velocity": 108, "channel": 0}, {"type": "note_off", "time": 201, "note": 73, "velocity": 108, "channel": 0}, {"type": "note_on", "time": 166, "note": 75, "velocity": 122, "channel": 0}, {"type": "note_off", "time": 476, "note": 75, "velocity": 122, "channel": 0}, {"type": "note_on", "time": 22, "note": 73, "velocity": 109, "channel": 0}, {"type": "note_off", "time": 199, "note": 73, "velocity": 109, "channel": 0}, {"type": "note_on", "time": 143, "note": 75, "velocity": 122, "channel": 0}, {"type": "note_off", "time": 469, "note": 75, "velocity": 122, "channel": 0}, {"type": "note_on", "time": 39, "note": 70, "velocity": 119, "channel": 0}, {"type": "note_off", "time": 442, "note": 70, "velocity": 119, "channel": 0}, {"type": "note_on", "time": 298, "note": 68, "velocity": 115, "channel": 0}, {"type": "note_off", "time": 346, "note": 68, "velocity": 115, "channel": 0}, {"type": "note_on", "time": 0, "note": 70, "velocity": 120, "channel": 0}, {"type": "note_off", "time": 160, "note": 70, "velocity": 120, "channel": 0}, {"type": "note_on", "time": 18, "note": 69, "velocity": 118, "channel": 0}, {"type": "note_off", "time": 53, "note": 69, "velocity": 118, "channel": 0}, {"type": "note_on", "time": 12, "note": 70, "velocity": 116, "channel": 0}, {"type": "note_off", "time": 1499, "note": 70, "velocity": 116, "channel": 0}, {"type": "note_on", "time": 45, "note": 68, "velocity": 108, "channel": 0}, {"type": "note_off", "time": 181, "note": 68, "velocity": 108, "channel": 0}, {"type": "note_on", "time": 19, "note": 67, "velocity": 107, "channel": 0}, {"type": "note_off", "time": 146, "note": 67, "velocity": 107, "channel": 0}, {"type": "note_on", "time": 0, "note": 65, "velocity": 105, "channel": 0}, {"type": "note_off", "time": 66, "note": 65, "velocity": 105, "channel": 0}, {"type": "note_on", "time": 4, "note": 63, "velocity": 112, "channel": 0}, {"type": "note_off", "time": 232, "note": 63, "velocity": 112, "channel": 0}, {"type": "note_on", "time": 121, "note": 59, "velocity": 106, "channel": 0}, {"type": "note_off", "time": 197, "note": 59, "velocity": 106, "channel": 0}, {"type": "note_on", "time": 79, "note": 58, "velocity": 103, "channel": 0}, {"type": "note_off", "time": 5376, "note": 58, "velocity": 103, "channel": 0}, {"type": "note_on", "time": 2550, "note": 82, "velocity": 114, "channel": 0}, {"type": "note_off", "time": 3464, "note": 82, "velocity": 114, "channel": 0}, {"type": "note_on", "time": 65, "note": 79, "velocity": 101, "channel": 0}, {"type": "note_off", "time": 67, "note": 79, "velocity": 101, "channel": 0}, {"type": "note_on", "time": 11, "note": 78, "velocity": 115, "channel": 0}, {"type": "note_off", "time": 115, "note": 78, "velocity": 115, "channel": 0}, {"type": "note_on", "time": 30, "note": 76, "velocity": 108, "channel": 0}, {"type": "note_off", "time": 69, "note": 76, "velocity": 108, "channel": 0}, {"type": "note_on", "time": 17, "note": 74, "velocity": 112, "channel": 0}, {"type": "note_off", "time": 147, "note": 74, "velocity": 112, "channel": 0}, {"type": "note_on", "time": 11, "note": 73, "velocity": 115, "channel": 0}, {"type": "note_off", "time": 206, "note": 73, "velocity": 115, "channel": 0}, {"type": "note_on", "time": 30, "note": 71, "velocity": 109, "channel": 0}, {"type": "note_off", "time": 153, "note": 71, "velocity": 109, "channel": 0}, {"type": "note_on", "time": 38, "note": 70, "velocity": 117, "channel": 0}, {"type": "note_off", "time": 106, "note": 70, "velocity": 117, "channel": 0}, {"type": "note_on", "time": 32, "note": 68, "velocity": 106, "channel": 0}, {"type": "note_off", "time": 273, "note": 68, "velocity": 106, "channel": 0}, {"type": "note_on", "time": 52, "note": 64, "velocity": 97, "channel": 0}, {"type": "note_off", "time": 77, "note": 64, "velocity": 97, "channel": 0}, {"type": "note_on", "time": 12, "note": 63, "velocity": 97, "channel": 0}, {"type": "note_off", "time": 74, "note": 63, "velocity": 97, "channel": 0}, {"type": "note_on", "time": 39, "note": 61, "velocity": 101, "channel": 0}, {"type": "note_off", "time": 159, "note": 61, "velocity": 101, "channel": 0}, {"type": "note_on", "time": 42, "note": 60, "velocity": 97, "channel": 0}, {"type": "note_off", "time": 168, "note": 60, "velocity": 97, "channel": 0}, {"type": "note_on", "time": 11, "note": 58, "velocity": 111, "channel": 0}, {"type": "note_off", "time": 1597, "note": 58, "velocity": 111, "channel": 0}, {"type": "note_on", "time": 0, "note": 60, "velocity": 99, "channel": 0}, {"type": "note_off", "time": 121, "note": 60, "velocity": 99, "channel": 0}, {"type": "note_on", "time": 26, "note": 61, "velocity": 107, "channel": 0}, {"type": "note_off", "time": 137, "note": 61, "velocity": 107, "channel": 0}, {"type": "note_on", "time": 25, "note": 63, "velocity": 98, "channel": 0}, {"type": "note_off", "time": 75, "note": 63, "velocity": 98, "channel": 0}, {"type": "note_on", "time": 45, "note": 64, "velocity": 107, "channel": 0}, {"type": "note_off", "time": 108, "note": 64, "velocity": 107, "channel": 0}, {"type": "note_on", "time": 11, "note": 66, "velocity": 103, "channel": 0}, {"type": "note_off", "time": 110, "note": 66, "velocity": 103, "channel": 0}, {"type": "note_on", "time": 15, "note": 67, "velocity": 106, "channel": 0}, {"type": "note_off", "time": 92, "note": 67, "velocity": 106, "channel": 0}, {"type": "note_on", "time": 23, "note": 69, "velocity": 106, "channel": 0}, {"type": "note_off", "time": 138, "note": 69, "velocity": 106, "channel": 0}, {"type": "note_on", "time": 23, "note": 71, "velocity": 104, "channel": 0}, {"type": "note_off", "time": 135, "note": 71, "velocity": 104, "channel": 0}, {"type": "note_on", "time": 20, "note": 73, "velocity": 112, "channel": 0}, {"type": "note_off", "time": 182, "note": 73, "velocity": 112, "channel": 0}, {"type": "note_on", "time": 25, "note": 75, "velocity": 109, "channel": 0}, {"type": "note_off", "time": 102, "note": 75, "velocity": 109, "channel": 0}, {"type": "note_on", "time": 97, "note": 77, "velocity": 104, "channel": 0}, {"type": "note_off", "time": 74, "note": 77, "velocity": 104, "channel": 0}, {"type": "note_on", "time": 46, "note": 80, "velocity": 112, "channel": 0}, {"type": "note_off", "time": 136, "note": 80, "velocity": 112, "channel": 0}, {"type": "note_on", "time": 40, "note": 81, "velocity": 119, "channel": 0}, {"type": "note_off", "time": 154, "note": 81, "velocity": 119, "channel": 0}, {"type": "note_on", "time": 20, "note": 82, "velocity": 118, "channel": 0}, {"type": "note_off", "time": 2305, "note": 82, "velocity": 118, "channel": 0}, {"type": "note_on", "time": 1875, "note": 79, "velocity": 118, "channel": 0}, {"type": "note_off", "time": 208, "note": 79, "velocity": 118, "channel": 0}, {"type": "note_on", "time": 8, "note": 80, "velocity": 110, "channel": 0}, {"type": "note_off", "time": 101, "note": 80, "velocity": 110, "channel": 0}, {"type": "note_on", "time": 62, "note": 82, "velocity": 116, "channel": 0}, {"type": "note_off", "time": 376, "note": 82, "velocity": 116, "channel": 0}, {"type": "note_on", "time": 0, "note": 79, "velocity": 121, "channel": 0}, {"type": "note_off", "time": 360, "note": 79, "velocity": 121, "channel": 0}, {"type": "note_on", "time": 31, "note": 80, "velocity": 116, "channel": 0}, {"type": "note_off", "time": 407, "note": 80, "velocity": 116, "channel": 0}, {"type": "note_on", "time": 31, "note": 82, "velocity": 117, "channel": 0}, {"type": "note_off", "time": 380, "note": 82, "velocity": 117, "channel": 0}, {"type": "note_on", "time": 55, "note": 79, "velocity": 121, "channel": 0}, {"type": "note_off", "time": 121, "note": 79, "velocity": 121, "channel": 0}, {"type": "note_on", "time": 13, "note": 78, "velocity": 120, "channel": 0}, {"type": "note_off", "time": 248, "note": 78, "velocity": 120, "channel": 0}, {"type": "note_on", "time": 4, "note": 79, "velocity": 115, "channel": 0}, {"type": "note_off", "time": 248, "note": 79, "velocity": 115, "channel": 0}, {"type": "note_on", "time": 11, "note": 82, "velocity": 107, "channel": 0}, {"type": "note_off", "time": 130, "note": 82, "velocity": 107, "channel": 0}, {"type": "note_on", "time": 26, "note": 77, "velocity": 115, "channel": 0}, {"type": "note_off", "time": 478, "note": 77, "velocity": 115, "channel": 0}, {"type": "note_on", "time": 26, "note": 75, "velocity": 98, "channel": 0}, {"type": "note_off", "time": 704, "note": 75, "velocity": 98, "channel": 0}, {"type": "note_on", "time": 11, "note": 73, "velocity": 115, "channel": 0}, {"type": "note_off", "time": 358, "note": 73, "velocity": 115, "channel": 0}, {"type": "note_on", "time": 124, "note": 71, "velocity": 114, "channel": 0}, {"type": "note_off", "time": 349, "note": 71, "velocity": 114, "channel": 0}, {"type": "note_on", "time": 2180, "note": 75, "velocity": 118, "channel": 0}, {"type": "note_off", "time": 469, "note": 75, "velocity": 118, "channel": 0}, {"type": "note_on", "time": 29, "note": 71, "velocity": 115, "channel": 0}, {"type": "note_off", "time": 373, "note": 71, "velocity": 115, "channel": 0}, {"type": "note_on", "time": 42, "note": 68, "velocity": 90, "channel": 0}, {"type": "note_off", "time": 302, "note": 68, "velocity": 90, "channel": 0}, {"type": "note_on", "time": 144, "note": 70, "velocity": 91, "channel": 0}, {"type": "note_off", "time": 278, "note": 70, "velocity": 91, "channel": 0}, {"type": "note_on", "time": 18, "note": 73, "velocity": 117, "channel": 0}, {"type": "note_off", "time": 478, "note": 73, "velocity": 117, "channel": 0}, {"type": "note_on", "time": 0, "note": 72, "velocity": 116, "channel": 0}, {"type": "note_off", "time": 300, "note": 72, "velocity": 116, "channel": 0}, {"type": "note_on", "time": 37, "note": 71, "velocity": 116, "channel": 0}, {"type": "note_off", "time": 487, "note": 71, "velocity": 116, "channel": 0}, {"type": "note_on", "time": 0, "note": 73, "velocity": 114, "channel": 0}, {"type": "note_off", "time": 272, "note": 73, "velocity": 114, "channel": 0}, {"type": "note_on", "time": 62, "note": 68, "velocity": 109, "channel": 0}, {"type": "note_off", "time": 473, "note": 68, "velocity": 109, "channel": 0}, {"type": "note_on", "time": 132, "note": 66, "velocity": 109, "channel": 0}, {"type": "note_off", "time": 259, "note": 66, "velocity": 109, "channel": 0}, {"type": "note_on", "time": 1729, "note": 60, "velocity": 100, "channel": 0}, {"type": "note_off", "time": 119, "note": 60, "velocity": 100, "channel": 0}, {"type": "note_on", "time": 11, "note": 62, "velocity": 92, "channel": 0}, {"type": "note_off", "time": 116, "note": 62, "velocity": 92, "channel": 0}, {"type": "note_on", "time": 1, "note": 63, "velocity": 90, "channel": 0}, {"type": "note_off", "time": 124, "note": 63, "velocity": 90, "channel": 0}, {"type": "note_on", "time": 6, "note": 70, "velocity": 95, "channel": 0}, {"type": "note_off", "time": 159, "note": 70, "velocity": 95, "channel": 0}, {"type": "note_on", "time": 44, "note": 74, "velocity": 119, "channel": 0}, {"type": "note_off", "time": 371, "note": 74, "velocity": 119, "channel": 0}, {"type": "note_on", "time": 29, "note": 77, "velocity": 121, "channel": 0}, {"type": "note_off", "time": 382, "note": 77, "velocity": 121, "channel": 0}, {"type": "note_on", "time": 10, "note": 76, "velocity": 120, "channel": 0}, {"type": "note_off", "time": 380, "note": 76, "velocity": 120, "channel": 0}, {"type": "note_on", "time": 11, "note": 75, "velocity": 120, "channel": 0}, {"type": "note_off", "time": 367, "note": 75, "velocity": 120, "channel": 0}, {"type": "note_on", "time": 17, "note": 74, "velocity": 121, "channel": 0}, {"type": "note_off", "time": 380, "note": 74, "velocity": 121, "channel": 0}, {"type": "note_on", "time": 59, "note": 72, "velocity": 118, "channel": 0}, {"type": "note_off", "time": 360, "note": 72, "velocity": 118, "channel": 0}, {"type": "note_on", "time": 17, "note": 70, "velocity": 119, "channel": 0}, {"type": "note_off", "time": 358, "note": 70, "velocity": 119, "channel": 0}, {"type": "note_on", "time": 81, "note": 69, "velocity": 114, "channel": 0}, {"type": "note_off", "time": 338, "note": 69, "velocity": 114, "channel": 0}, {"type": "note_on", "time": 37, "note": 67, "velocity": 114, "channel": 0}, {"type": "note_off", "time": 378, "note": 67, "velocity": 114, "channel": 0}, {"type": "note_on", "time": 0, "note": 65, "velocity": 113, "channel": 0}, {"type": "note_off", "time": 394, "note": 65, "velocity": 113, "channel": 0}, {"type": "note_on", "time": 81, "note": 64, "velocity": 112, "channel": 0}, {"type": "note_off", "time": 298, "note": 64, "velocity": 112, "channel": 0}, {"type": "note_on", "time": 28, "note": 63, "velocity": 103, "channel": 0}, {"type": "note_off", "time": 449, "note": 63, "velocity": 103, "channel": 0}, {"type": "note_on", "time": 42, "note": 74, "velocity": 115, "channel": 0}, {"type": "note_on", "time": 1239, "note": 71, "velocity": 112, "channel": 0}, {"type": "note_off", "time": 0, "note": 74, "velocity": 115, "channel": 0}, {"type": "note_off", "time": 467, "note": 71, "velocity": 112, "channel": 0}, {"type": "note_on", "time": 84, "note": 66, "velocity": 95, "channel": 0}, {"type": "note_off", "time": 146, "note": 66, "velocity": 95, "channel": 0}, {"type": "note_on", "time": 172, "note": 76, "velocity": 113, "channel": 0}, {"type": "note_off", "time": 622, "note": 76, "velocity": 113, "channel": 0}, {"type": "note_on", "time": 13, "note": 73, "velocity": 109, "channel": 0}, {"type": "note_off", "time": 1895, "note": 73, "velocity": 109, "channel": 0}, {"type": "note_on", "time": 4270, "note": 76, "velocity": 116, "channel": 0}, {"type": "note_off", "time": 196, "note": 76, "velocity": 116, "channel": 0}, {"type": "note_on", "time": 25, "note": 78, "velocity": 116, "channel": 0}, {"type": "note_off", "time": 155, "note": 78, "velocity": 116, "channel": 0}, {"type": "note_on", "time": 251, "note": 78, "velocity": 123, "channel": 0}, {"type": "note_off", "time": 752, "note": 78, "velocity": 123, "channel": 0}, {"type": "note_on", "time": 66, "note": 73, "velocity": 116, "channel": 0}, {"type": "note_off", "time": 196, "note": 73, "velocity": 116, "channel": 0}, {"type": "note_on", "time": 0, "note": 73, "velocity": 118, "channel": 0}, {"type": "note_off", "time": 181, "note": 73, "velocity": 118, "channel": 0}, {"type": "note_on", "time": 7, "note": 74, "velocity": 106, "channel": 0}, {"type": "note_off", "time": 48, "note": 74, "velocity": 106, "channel": 0}, {"type": "note_on", "time": 17, "note": 73, "velocity": 116, "channel": 0}, {"type": "note_off", "time": 274, "note": 73, "velocity": 116, "channel": 0}, {"type": "note_on", "time": 17, "note": 74, "velocity": 118, "channel": 0}, {"type": "note_off", "time": 35, "note": 74, "velocity": 118, "channel": 0}, {"type": "note_on", "time": 6, "note": 73, "velocity": 119, "channel": 0}, {"type": "note_off", "time": 254, "note": 73, "velocity": 119, "channel": 0}, {"type": "note_on", "time": 2, "note": 74, "velocity": 109, "channel": 0}, {"type": "note_off", "time": 37, "note": 74, "velocity": 109, "channel": 0}, {"type": "note_on", "time": 15, "note": 73, "velocity": 9, "channel": 0}, {"type": "note_off", "time": 259, "note": 73, "velocity": 9, "channel": 0}, {"type": "note_on", "time": 11, "note": 74, "velocity": 43, "channel": 0}, {"type": "note_off", "time": 55, "note": 74, "velocity": 43, "channel": 0}, {"type": "note_on", "time": 0, "note": 73, "velocity": 117, "channel": 0}, {"type": "note_off", "time": 274, "note": 73, "velocity": 117, "channel": 0}, {"type": "note_on", "time": 15, "note": 74, "velocity": 109, "channel": 0}, {"type": "note_off", "time": 50, "note": 74, "velocity": 109, "channel": 0}, {"type": "note_on", "time": 22, "note": 73, "velocity": 119, "channel": 0}, {"type": "note_off", "time": 232, "note": 73, "velocity": 119, "channel": 0}, {"type": "note_on", "time": 12, "note": 74, "velocity": 111, "channel": 0}, {"type": "note_off", "time": 55, "note": 74, "velocity": 111, "channel": 0}, {"type": "note_on", "time": 25, "note": 73, "velocity": 118, "channel": 0}, {"type": "note_off", "time": 250, "note": 73, "velocity": 118, "channel": 0}, {"type": "note_on", "time": 1, "note": 74, "velocity": 113, "channel": 0}, {"type": "note_off", "time": 58, "note": 74, "velocity": 113, "channel": 0}, {"type": "note_on", "time": 6, "note": 73, "velocity": 121, "channel": 0}, {"type": "note_off", "time": 248, "note": 73, "velocity": 121, "channel": 0}, {"type": "note_on", "time": 23, "note": 74, "velocity": 120, "channel": 0}, {"type": "note_off", "time": 34, "note": 74, "velocity": 120, "channel": 0}, {"type": "note_on", "time": 14, "note": 73, "velocity": 115, "channel": 0}, {"type": "note_off", "time": 119, "note": 73, "velocity": 115, "channel": 0}, {"type": "note_on", "time": 377, "note": 73, "velocity": 116, "channel": 0}, {"type": "note_off", "time": 170, "note": 73, "velocity": 116, "channel": 0}, {"type": "note_on", "time": 8, "note": 73, "velocity": 116, "channel": 0}, {"type": "note_off", "time": 138, "note": 73, "velocity": 116, "channel": 0}, {"type": "note_on", "time": 13, "note": 74, "velocity": 113, "channel": 0}, {"type": "note_off", "time": 39, "note": 74, "velocity": 113, "channel": 0}, {"type": "note_on", "time": 7, "note": 73, "velocity": 118, "channel": 0}, {"type": "note_off", "time": 140, "note": 73, "velocity": 118, "channel": 0}, {"type": "note_on", "time": 4, "note": 74, "velocity": 111, "channel": 0}, {"type": "note_off", "time": 28, "note": 74, "velocity": 111, "channel": 0}, {"type": "note_on", "time": 7, "note": 73, "velocity": 118, "channel": 0}, {"type": "note_off", "time": 151, "note": 73, "velocity": 118, "channel": 0}, {"type": "note_on", "time": 29, "note": 73, "velocity": 120, "channel": 0}, {"type": "note_off", "time": 144, "note": 73, "velocity": 120, "channel": 0}, {"type": "note_on", "time": 7, "note": 74, "velocity": 115, "channel": 0}, {"type": "note_off", "time": 28, "note": 74, "velocity": 115, "channel": 0}, {"type": "note_on", "time": 17, "note": 73, "velocity": 118, "channel": 0}, {"type": "note_off", "time": 127, "note": 73, "velocity": 118, "channel": 0}, {"type": "note_on", "time": 37, "note": 73, "velocity": 117, "channel": 0}, {"type": "note_off", "time": 101, "note": 73, "velocity": 117, "channel": 0}, {"type": "note_on", "time": 0, "note": 74, "velocity": 115, "channel": 0}, {"type": "note_off", "time": 20, "note": 74, "velocity": 115, "channel": 0}, {"type": "note_on", "time": 19, "note": 73, "velocity": 118, "channel": 0}, {"type": "note_off", "time": 139, "note": 73, "velocity": 118, "channel": 0}, {"type": "note_on", "time": 0, "note": 74, "velocity": 117, "channel": 0}, {"type": "note_off", "time": 37, "note": 74, "velocity": 117, "channel": 0}, {"type": "note_on", "time": 19, "note": 73, "velocity": 117, "channel": 0}, {"type": "note_off", "time": 122, "note": 73, "velocity": 117, "channel": 0}, {"type": "note_on", "time": 0, "note": 74, "velocity": 113, "channel": 0}, {"type": "note_off", "time": 25, "note": 74, "velocity": 113, "channel": 0}, {"type": "note_on", "time": 18, "note": 73, "velocity": 117, "channel": 0}, {"type": "note_off", "time": 182, "note": 73, "velocity": 117, "channel": 0}, {"type": "note_on", "time": 80, "note": 75, "velocity": 117, "channel": 0}, {"type": "note_off", "time": 1269, "note": 75, "velocity": 117, "channel": 0}, {"type": "note_on", "time": 111, "note": 70, "velocity": 110, "channel": 0}, {"type": "note_off", "time": 61, "note": 70, "velocity": 110, "channel": 0}, {"type": "note_on", "time": 7, "note": 71, "velocity": 117, "channel": 0}, {"type": "note_off", "time": 53, "note": 71, "velocity": 117, "channel": 0}, {"type": "note_on", "time": 15, "note": 70, "velocity": 114, "channel": 0}, {"type": "note_off", "time": 135, "note": 70, "velocity": 114, "channel": 0}, {"type": "note_on", "time": 0, "note": 71, "velocity": 116, "channel": 0}, {"type": "note_off", "time": 231, "note": 71, "velocity": 116, "channel": 0}, {"type": "note_on", "time": 14, "note": 70, "velocity": 117, "channel": 0}, {"type": "note_off", "time": 83, "note": 70, "velocity": 117, "channel": 0}, {"type": "note_on", "time": 4, "note": 71, "velocity": 110, "channel": 0}, {"type": "note_off", "time": 209, "note": 71, "velocity": 110, "channel": 0}, {"type": "note_on", "time": 18, "note": 70, "velocity": 114, "channel": 0}, {"type": "note_off", "time": 89, "note": 70, "velocity": 114, "channel": 0}, {"type": "note_on", "time": 14, "note": 71, "velocity": 117, "channel": 0}, {"type": "note_off", "time": 193, "note": 71, "velocity": 117, "channel": 0}, {"type": "note_on", "time": 11, "note": 70, "velocity": 112, "channel": 0}, {"type": "note_off", "time": 86, "note": 70, "velocity": 112, "channel": 0}, {"type": "note_on", "time": 6, "note": 71, "velocity": 112, "channel": 0}, {"type": "note_off", "time": 148, "note": 71, "velocity": 112, "channel": 0}, {"type": "note_on", "time": 15, "note": 70, "velocity": 117, "channel": 0}, {"type": "note_off", "time": 176, "note": 70, "velocity": 117, "channel": 0}, {"type": "note_on", "time": 11, "note": 71, "velocity": 112, "channel": 0}, {"type": "note_off", "time": 177, "note": 71, "velocity": 112, "channel": 0}, {"type": "note_on", "time": 18, "note": 70, "velocity": 106, "channel": 0}, {"type": "note_off", "time": 75, "note": 70, "velocity": 106, "channel": 0}, {"type": "note_on", "time": 11, "note": 71, "velocity": 115, "channel": 0}, {"type": "note_off", "time": 146, "note": 71, "velocity": 115, "channel": 0}, {"type": "note_on", "time": 0, "note": 70, "velocity": 116, "channel": 0}, {"type": "note_off", "time": 103, "note": 70, "velocity": 116, "channel": 0}, {"type": "note_on", "time": 31, "note": 67, "velocity": 109, "channel": 0}, {"type": "note_off", "time": 149, "note": 67, "velocity": 109, "channel": 0}, {"type": "note_on", "time": 0, "note": 70, "velocity": 107, "channel": 0}, {"type": "note_off", "time": 146, "note": 70, "velocity": 107, "channel": 0}, {"type": "note_on", "time": 0, "note": 71, "velocity": 110, "channel": 0}, {"type": "note_off", "time": 138, "note": 71, "velocity": 110, "channel": 0}, {"type": "note_on", "time": 11, "note": 70, "velocity": 107, "channel": 0}, {"type": "note_off", "time": 88, "note": 70, "velocity": 107, "channel": 0}, {"type": "note_on", "time": 0, "note": 67, "velocity": 115, "channel": 0}, {"type": "note_off", "time": 214, "note": 67, "velocity": 115, "channel": 0}, {"type": "note_on", "time": 18, "note": 68, "velocity": 105, "channel": 0}, {"type": "note_on", "time": 50, "note": 67, "velocity": 115, "channel": 0}, {"type": "note_off", "time": 0, "note": 68, "velocity": 105, "channel": 0}, {"type": "note_off", "time": 220, "note": 67, "velocity": 115, "channel": 0}, {"type": "note_on", "time": 22, "note": 68, "velocity": 106, "channel": 0}, {"type": "note_off", "time": 45, "note": 68, "velocity": 106, "channel": 0}, {"type": "note_on", "time": 25, "note": 67, "velocity": 113, "channel": 0}, {"type": "note_off", "time": 244, "note": 67, "velocity": 113, "channel": 0}, {"type": "note_on", "time": 4, "note": 68, "velocity": 109, "channel": 0}, {"type": "note_off", "time": 36, "note": 68, "velocity": 109, "channel": 0}, {"type": "note_on", "time": 17, "note": 67, "velocity": 117, "channel": 0}, {"type": "note_off", "time": 133, "note": 67, "velocity": 117, "channel": 0}, {"type": "note_on", "time": 12, "note": 66, "velocity": 113, "channel": 0}, {"type": "note_off", "time": 88, "note": 66, "velocity": 113, "channel": 0}, {"type": "note_on", "time": 3, "note": 65, "velocity": 110, "channel": 0}, {"type": "note_off", "time": 51, "note": 65, "velocity": 110, "channel": 0}, {"type": "note_on", "time": 23, "note": 63, "velocity": 111, "channel": 0}, {"type": "note_off", "time": 203, "note": 63, "velocity": 111, "channel": 0}, {"type": "note_on", "time": 0, "note": 64, "velocity": 98, "channel": 0}, {"type": "note_off", "time": 36, "note": 64, "velocity": 98, "channel": 0}, {"type": "note_on", "time": 1, "note": 63, "velocity": 112, "channel": 0}, {"type": "note_off", "time": 450, "note": 63, "velocity": 112, "channel": 0}, {"type": "note_on", "time": 20, "note": 64, "velocity": 98, "channel": 0}, {"type": "note_off", "time": 55, "note": 64, "velocity": 98, "channel": 0}, {"type": "note_on", "time": 12, "note": 63, "velocity": 107, "channel": 0}, {"type": "note_off", "time": 225, "note": 63, "velocity": 107, "channel": 0}, {"type": "note_on", "time": 7, "note": 64, "velocity": 92, "channel": 0}, {"type": "note_off", "time": 36, "note": 64, "velocity": 92, "channel": 0}, {"type": "note_on", "time": 9, "note": 63, "velocity": 107, "channel": 0}, {"type": "note_off", "time": 291, "note": 63, "velocity": 107, "channel": 0}, {"type": "note_on", "time": 4, "note": 64, "velocity": 101, "channel": 0}, {"type": "note_off", "time": 28, "note": 64, "velocity": 101, "channel": 0}, {"type": "note_on", "time": 12, "note": 63, "velocity": 107, "channel": 0}, {"type": "note_off", "time": 451, "note": 63, "velocity": 107, "channel": 0}, {"type": "note_on", "time": 6, "note": 64, "velocity": 91, "channel": 0}, {"type": "note_off", "time": 47, "note": 64, "velocity": 91, "channel": 0}, {"type": "note_on", "time": 6, "note": 63, "velocity": 99, "channel": 0}, {"type": "note_off", "time": 190, "note": 63, "velocity": 99, "channel": 0}, {"type": "note_on", "time": 18, "note": 64, "velocity": 99, "channel": 0}, {"type": "note_off", "time": 96, "note": 64, "velocity": 99, "channel": 0}, {"type": "note_on", "time": 12, "note": 63, "velocity": 102, "channel": 0}, {"type": "note_off", "time": 206, "note": 63, "velocity": 102, "channel": 0}, {"type": "note_on", "time": 3, "note": 64, "velocity": 88, "channel": 0}, {"type": "note_off", "time": 34, "note": 64, "velocity": 88, "channel": 0}, {"type": "note_on", "time": 17, "note": 63, "velocity": 100, "channel": 0}, {"type": "note_off", "time": 162, "note": 63, "velocity": 100, "channel": 0}, {"type": "note_on", "time": 22, "note": 64, "velocity": 98, "channel": 0}, {"type": "note_off", "time": 44, "note": 64, "velocity": 98, "channel": 0}, {"type": "note_on", "time": 9, "note": 63, "velocity": 110, "channel": 0}, {"type": "note_off", "time": 280, "note": 63, "velocity": 110, "channel": 0}, {"type": "note_on", "time": 26, "note": 63, "velocity": 98, "channel": 0}, {"type": "note_off", "time": 2213, "note": 63, "velocity": 98, "channel": 0}, {"type": "note_on", "time": 2749, "note": 63, "velocity": 107, "channel": 0}, {"type": "note_off", "time": 957, "note": 63, "velocity": 107, "channel": 0}, {"type": "note_on", "time": 101, "note": 64, "velocity": 113, "channel": 0}, {"type": "note_on", "time": 161, "note": 66, "velocity": 109, "channel": 0}, {"type": "note_off", "time": 0, "note": 64, "velocity": 113, "channel": 0}, {"type": "note_off", "time": 114, "note": 66, "velocity": 109, "channel": 0}, {"type": "note_on", "time": 42, "note": 68, "velocity": 108, "channel": 0}, {"type": "note_off", "time": 136, "note": 68, "velocity": 108, "channel": 0}, {"type": "note_on", "time": 28, "note": 69, "velocity": 115, "channel": 0}, {"type": "note_off", "time": 163, "note": 69, "velocity": 115, "channel": 0}, {"type": "note_on", "time": 44, "note": 72, "velocity": 109, "channel": 0}, {"type": "note_off", "time": 89, "note": 72, "velocity": 109, "channel": 0}, {"type": "note_on", "time": 11, "note": 73, "velocity": 119, "channel": 0}, {"type": "note_off", "time": 168, "note": 73, "velocity": 119, "channel": 0}, {"type": "note_on", "time": 40, "note": 75, "velocity": 117, "channel": 0}, {"type": "note_off", "time": 136, "note": 75, "velocity": 117, "channel": 0}, {"type": "note_on", "time": 15, "note": 76, "velocity": 118, "channel": 0}, {"type": "note_off", "time": 188, "note": 76, "velocity": 118, "channel": 0}, {"type": "note_on", "time": 7, "note": 79, "velocity": 115, "channel": 0}, {"type": "note_off", "time": 61, "note": 79, "velocity": 115, "channel": 0}, {"type": "note_on", "time": 0, "note": 80, "velocity": 113, "channel": 0}, {"type": "note_on", "time": 108, "note": 81, "velocity": 108, "channel": 0}, {"type": "note_off", "time": 0, "note": 80, "velocity": 113, "channel": 0}, {"type": "note_off", "time": 99, "note": 81, "velocity": 108, "channel": 0}, {"type": "note_on", "time": 0, "note": 82, "velocity": 121, "channel": 0}, {"type": "note_off", "time": 188, "note": 82, "velocity": 121, "channel": 0}, {"type": "note_on", "time": 9, "note": 83, "velocity": 122, "channel": 0}, {"type": "note_off", "time": 159, "note": 83, "velocity": 122, "channel": 0}, {"type": "note_on", "time": 29, "note": 85, "velocity": 123, "channel": 0}, {"type": "note_off", "time": 72, "note": 85, "velocity": 123, "channel": 0}, {"type": "note_on", "time": 11, "note": 87, "velocity": 113, "channel": 0}, {"type": "note_off", "time": 113, "note": 87, "velocity": 113, "channel": 0}, {"type": "note_on", "time": 4, "note": 88, "velocity": 118, "channel": 0}, {"type": "note_off", "time": 258, "note": 88, "velocity": 118, "channel": 0}, {"type": "note_on", "time": 0, "note": 87, "velocity": 117, "channel": 0}, {"type": "note_off", "time": 881, "note": 87, "velocity": 117, "channel": 0}, {"type": "note_on", "time": 51, "note": 85, "velocity": 117, "channel": 0}, {"type": "note_off", "time": 194, "note": 85, "velocity": 117, "channel": 0}, {"type": "note_on", "time": 15, "note": 84, "velocity": 112, "channel": 0}, {"type": "note_off", "time": 95, "note": 84, "velocity": 112, "channel": 0}, {"type": "note_on", "time": 0, "note": 81, "velocity": 107, "channel": 0}, {"type": "note_off", "time": 166, "note": 81, "velocity": 107, "channel": 0}, {"type": "note_on", "time": 0, "note": 78, "velocity": 107, "channel": 0}, {"type": "note_off", "time": 179, "note": 78, "velocity": 107, "channel": 0}, {"type": "note_on", "time": 18, "note": 76, "velocity": 104, "channel": 0}, {"type": "note_off", "time": 192, "note": 76, "velocity": 104, "channel": 0}, {"type": "note_on", "time": 38, "note": 75, "velocity": 100, "channel": 0}, {"type": "note_off", "time": 198, "note": 75, "velocity": 100, "channel": 0}, {"type": "note_on", "time": 39, "note": 74, "velocity": 120, "channel": 0}, {"type": "note_off", "time": 124, "note": 74, "velocity": 120, "channel": 0}, {"type": "note_on", "time": 14, "note": 75, "velocity": 120, "channel": 0}, {"type": "note_off", "time": 1265, "note": 75, "velocity": 120, "channel": 0}, {"type": "note_on", "time": 12, "note": 73, "velocity": 121, "channel": 0}, {"type": "note_off", "time": 210, "note": 73, "velocity": 121, "channel": 0}, {"type": "note_on", "time": 12, "note": 71, "velocity": 110, "channel": 0}, {"type": "note_off", "time": 69, "note": 71, "velocity": 110, "channel": 0}, {"type": "note_on", "time": 0, "note": 68, "velocity": 109, "channel": 0}, {"type": "note_off", "time": 135, "note": 68, "velocity": 109, "channel": 0}, {"type": "note_on", "time": 40, "note": 67, "velocity": 97, "channel": 0}, {"type": "note_off", "time": 66, "note": 67, "velocity": 97, "channel": 0}, {"type": "note_on", "time": 31, "note": 66, "velocity": 114, "channel": 0}, {"type": "note_off", "time": 84, "note": 66, "velocity": 114, "channel": 0}, {"type": "note_on", "time": 26, "note": 65, "velocity": 108, "channel": 0}, {"type": "note_off", "time": 174, "note": 65, "velocity": 108, "channel": 0}, {"type": "note_on", "time": 28, "note": 64, "velocity": 114, "channel": 0}, {"type": "note_off", "time": 183, "note": 64, "velocity": 114, "channel": 0}, {"type": "note_on", "time": 0, "note": 63, "velocity": 114, "channel": 0}, {"type": "note_off", "time": 3312, "note": 63, "velocity": 114, "channel": 0}, {"type": "note_on", "time": 1959, "note": 77, "velocity": 121, "channel": 0}, {"type": "note_off", "time": 141, "note": 77, "velocity": 121, "channel": 0}, {"type": "note_on", "time": 39, "note": 80, "velocity": 111, "channel": 0}, {"type": "note_off", "time": 64, "note": 80, "velocity": 111, "channel": 0}, {"type": "note_on", "time": 0, "note": 82, "velocity": 118, "channel": 0}, {"type": "note_off", "time": 390, "note": 82, "velocity": 118, "channel": 0}, {"type": "note_on", "time": 23, "note": 80, "velocity": 117, "channel": 0}, {"type": "note_off", "time": 53, "note": 80, "velocity": 117, "channel": 0}, {"type": "note_on", "time": 17, "note": 78, "velocity": 110, "channel": 0}, {"type": "note_off", "time": 53, "note": 78, "velocity": 110, "channel": 0}, {"type": "note_on", "time": 27, "note": 79, "velocity": 113, "channel": 0}, {"type": "note_off", "time": 214, "note": 79, "velocity": 113, "channel": 0}, {"type": "note_on", "time": 44, "note": 80, "velocity": 117, "channel": 0}, {"type": "note_off", "time": 302, "note": 80, "velocity": 117, "channel": 0}, {"type": "note_on", "time": 18, "note": 82, "velocity": 105, "channel": 0}, {"type": "note_off", "time": 204, "note": 82, "velocity": 105, "channel": 0}, {"type": "note_on", "time": 0, "note": 81, "velocity": 109, "channel": 0}, {"type": "note_off", "time": 59, "note": 81, "velocity": 109, "channel": 0}, {"type": "note_on", "time": 12, "note": 79, "velocity": 120, "channel": 0}, {"type": "note_off", "time": 239, "note": 79, "velocity": 120, "channel": 0}, {"type": "note_on", "time": 56, "note": 77, "velocity": 120, "channel": 0}, {"type": "note_off", "time": 327, "note": 77, "velocity": 120, "channel": 0}, {"type": "note_on", "time": 53, "note": 76, "velocity": 118, "channel": 0}, {"type": "note_off", "time": 349, "note": 76, "velocity": 118, "channel": 0}, {"type": "note_on", "time": 22, "note": 75, "velocity": 117, "channel": 0}, {"type": "note_off", "time": 406, "note": 75, "velocity": 117, "channel": 0}, {"type": "note_on", "time": 0, "note": 74, "velocity": 117, "channel": 0}, {"type": "note_off", "time": 368, "note": 74, "velocity": 117, "channel": 0}, {"type": "note_on", "time": 59, "note": 73, "velocity": 113, "channel": 0}, {"type": "note_off", "time": 733, "note": 73, "velocity": 113, "channel": 0}, {"type": "note_on", "time": 0, "note": 75, "velocity": 110, "channel": 0}, {"type": "note_off", "time": 434, "note": 75, "velocity": 110, "channel": 0}, {"type": "note_on", "time": 18, "note": 70, "velocity": 114, "channel": 0}, {"type": "note_off", "time": 1804, "note": 70, "velocity": 114, "channel": 0}, {"type": "note_on", "time": 0, "note": 68, "velocity": 99, "channel": 0}, {"type": "note_off", "time": 173, "note": 68, "velocity": 99, "channel": 0}, {"type": "note_on", "time": 28, "note": 70, "velocity": 109, "channel": 0}, {"type": "note_off", "time": 510, "note": 70, "velocity": 109, "channel": 0}, {"type": "note_on", "time": 31, "note": 68, "velocity": 112, "channel": 0}, {"type": "note_off", "time": 261, "note": 68, "velocity": 112, "channel": 0}, {"type": "note_on", "time": 25, "note": 63, "velocity": 107, "channel": 0}, {"type": "note_off", "time": 566, "note": 63, "velocity": 107, "channel": 0}, {"type": "note_on", "time": 50, "note": 61, "velocity": 104, "channel": 0}, {"type": "note_off", "time": 242, "note": 61, "velocity": 104, "channel": 0}, {"type": "note_on", "time": 40, "note": 66, "velocity": 108, "channel": 0}, {"type": "note_off", "time": 519, "note": 66, "velocity": 108, "channel": 0}, {"type": "note_on", "time": 56, "note": 68, "velocity": 109, "channel": 0}, {"type": "note_off", "time": 1584, "note": 68, "velocity": 109, "channel": 0}, {"type": "note_on", "time": 1800, "note": 74, "velocity": 113, "channel": 0}, {"type": "note_off", "time": 152, "note": 74, "velocity": 113, "channel": 0}, {"type": "note_on", "time": 155, "note": 77, "velocity": 120, "channel": 0}, {"type": "note_off", "time": 442, "note": 77, "velocity": 120, "channel": 0}, {"type": "note_on", "time": 31, "note": 74, "velocity": 119, "channel": 0}, {"type": "note_off", "time": 279, "note": 74, "velocity": 119, "channel": 0}, {"type": "note_on", "time": 37, "note": 75, "velocity": 117, "channel": 0}, {"type": "note_off", "time": 522, "note": 75, "velocity": 117, "channel": 0}, {"type": "note_on", "time": 19, "note": 71, "velocity": 106, "channel": 0}, {"type": "note_off", "time": 305, "note": 71, "velocity": 106, "channel": 0}, {"type": "note_on", "time": 912, "note": 74, "velocity": 114, "channel": 0}, {"type": "note_off", "time": 797, "note": 74, "velocity": 114, "channel": 0}, {"type": "note_on", "time": 0, "note": 75, "velocity": 114, "channel": 0}, {"type": "note_off", "time": 555, "note": 75, "velocity": 114, "channel": 0}, {"type": "note_on", "time": 19, "note": 72, "velocity": 114, "channel": 0}, {"type": "note_off", "time": 1594, "note": 72, "velocity": 114, "channel": 0}, {"type": "note_on", "time": 99, "note": 74, "velocity": 117, "channel": 0}, {"type": "note_off", "time": 318, "note": 74, "velocity": 117, "channel": 0}, {"type": "note_on", "time": 22, "note": 71, "velocity": 105, "channel": 0}, {"type": "note_off", "time": 522, "note": 71, "velocity": 105, "channel": 0}, {"type": "note_on", "time": 75, "note": 71, "velocity": 104, "channel": 0}, {"type": "note_off", "time": 194, "note": 71, "velocity": 104, "channel": 0}, {"type": "note_on", "time": 527, "note": 74, "velocity": 114, "channel": 0}, {"type": "note_off", "time": 398, "note": 74, "velocity": 114, "channel": 0}, {"type": "note_on", "time": 0, "note": 73, "velocity": 111, "channel": 0}, {"type": "note_off", "time": 620, "note": 73, "velocity": 111, "channel": 0}, {"type": "note_on", "time": 19, "note": 73, "velocity": 113, "channel": 0}, {"type": "note_off", "time": 254, "note": 73, "velocity": 113, "channel": 0}, {"type": "note_on", "time": 405, "note": 76, "velocity": 115, "channel": 0}, {"type": "note_off", "time": 376, "note": 76, "velocity": 115, "channel": 0}, {"type": "note_on", "time": 39, "note": 72, "velocity": 113, "channel": 0}, {"type": "note_off", "time": 575, "note": 72, "velocity": 113, "channel": 0}, {"type": "note_on", "time": 17, "note": 72, "velocity": 111, "channel": 0}, {"type": "note_off", "time": 234, "note": 72, "velocity": 111, "channel": 0}, {"type": "note_on", "time": 3489, "note": 78, "velocity": 119, "channel": 0}, {"type": "note_off", "time": 172, "note": 78, "velocity": 119, "channel": 0}, {"type": "note_on", "time": 11, "note": 79, "velocity": 118, "channel": 0}, {"type": "note_off", "time": 77, "note": 79, "velocity": 118, "channel": 0}, {"type": "note_on", "time": 6, "note": 78, "velocity": 120, "channel": 0}, {"type": "note_off", "time": 225, "note": 78, "velocity": 120, "channel": 0}, {"type": "note_on", "time": 0, "note": 76, "velocity": 121, "channel": 0}, {"type": "note_off", "time": 194, "note": 76, "velocity": 121, "channel": 0}, {"type": "note_on", "time": 0, "note": 77, "velocity": 113, "channel": 0}, {"type": "note_off", "time": 81, "note": 77, "velocity": 113, "channel": 0}, {"type": "note_on", "time": 2, "note": 76, "velocity": 121, "channel": 0}, {"type": "note_off", "time": 201, "note": 76, "velocity": 121, "channel": 0}, {"type": "note_on", "time": 24, "note": 75, "velocity": 112, "channel": 0}, {"type": "note_off", "time": 68, "note": 75, "velocity": 112, "channel": 0}, {"type": "note_on", "time": 22, "note": 76, "velocity": 120, "channel": 0}, {"type": "note_off", "time": 181, "note": 76, "velocity": 120, "channel": 0}, {"type": "note_on", "time": 13, "note": 75, "velocity": 110, "channel": 0}, {"type": "note_off", "time": 81, "note": 75, "velocity": 110, "channel": 0}, {"type": "note_on", "time": 0, "note": 76, "velocity": 122, "channel": 0}, {"type": "note_off", "time": 90, "note": 76, "velocity": 122, "channel": 0}, {"type": "note_on", "time": 17, "note": 77, "velocity": 117, "channel": 0}, {"type": "note_off", "time": 42, "note": 77, "velocity": 117, "channel": 0}, {"type": "note_on", "time": 22, "note": 76, "velocity": 120, "channel": 0}, {"type": "note_off", "time": 117, "note": 76, "velocity": 120, "channel": 0}, {"type": "note_on", "time": 0, "note": 75, "velocity": 109, "channel": 0}, {"type": "note_off", "time": 37, "note": 75, "velocity": 109, "channel": 0}, {"type": "note_on", "time": 15, "note": 76, "velocity": 119, "channel": 0}, {"type": "note_on", "time": 70, "note": 79, "velocity": 122, "channel": 0}, {"type": "note_off", "time": 0, "note": 76, "velocity": 119, "channel": 0}, {"type": "note_off", "time": 135, "note": 79, "velocity": 122, "channel": 0}, {"type": "note_on", "time": 35, "note": 76, "velocity": 113, "channel": 0}, {"type": "note_off", "time": 106, "note": 76, "velocity": 113, "channel": 0}, {"type": "note_on", "time": 10, "note": 73, "velocity": 119, "channel": 0}, {"type": "note_off", "time": 1102, "note": 73, "velocity": 119, "channel": 0}, {"type": "note_on", "time": 27, "note": 74, "velocity": 110, "channel": 0}, {"type": "note_off", "time": 100, "note": 74, "velocity": 110, "channel": 0}, {"type": "note_on", "time": 50, "note": 73, "velocity": 118, "channel": 0}, {"type": "note_off", "time": 130, "note": 73, "velocity": 118, "channel": 0}, {"type": "note_on", "time": 11, "note": 74, "velocity": 112, "channel": 0}, {"type": "note_off", "time": 35, "note": 74, "velocity": 112, "channel": 0}, {"type": "note_on", "time": 11, "note": 73, "velocity": 120, "channel": 0}, {"type": "note_off", "time": 141, "note": 73, "velocity": 120, "channel": 0}, {"type": "note_on", "time": 35, "note": 74, "velocity": 116, "channel": 0}, {"type": "note_off", "time": 55, "note": 74, "velocity": 116, "channel": 0}, {"type": "note_on", "time": 19, "note": 73, "velocity": 119, "channel": 0}, {"type": "note_off", "time": 181, "note": 73, "velocity": 119, "channel": 0}, {"type": "note_on", "time": 50, "note": 73, "velocity": 119, "channel": 0}, {"type": "note_off", "time": 130, "note": 73, "velocity": 119, "channel": 0}, {"type": "note_on", "time": 0, "note": 74, "velocity": 115, "channel": 0}, {"type": "note_off", "time": 42, "note": 74, "velocity": 115, "channel": 0}, {"type": "note_on", "time": 17, "note": 73, "velocity": 119, "channel": 0}, {"type": "note_off", "time": 77, "note": 73, "velocity": 119, "channel": 0}, {"type": "note_on", "time": 59, "note": 73, "velocity": 119, "channel": 0}, {"type": "note_off", "time": 137, "note": 73, "velocity": 119, "channel": 0}, {"type": "note_on", "time": 0, "note": 74, "velocity": 112, "channel": 0}, {"type": "note_off", "time": 31, "note": 74, "velocity": 112, "channel": 0}, {"type": "note_on", "time": 13, "note": 73, "velocity": 116, "channel": 0}, {"type": "note_off", "time": 93, "note": 73, "velocity": 116, "channel": 0}, {"type": "note_on", "time": 46, "note": 73, "velocity": 120, "channel": 0}, {"type": "note_off", "time": 143, "note": 73, "velocity": 120, "channel": 0}, {"type": "note_on", "time": 62, "note": 73, "velocity": 118, "channel": 0}, {"type": "note_off", "time": 192, "note": 73, "velocity": 118, "channel": 0}, {"type": "note_on", "time": 35, "note": 73, "velocity": 113, "channel": 0}, {"type": "note_off", "time": 132, "note": 73, "velocity": 113, "channel": 0}, {"type": "note_on", "time": 0, "note": 71, "velocity": 120, "channel": 0}, {"type": "note_off", "time": 261, "note": 71, "velocity": 120, "channel": 0}, {"type": "note_on", "time": 0, "note": 72, "velocity": 116, "channel": 0}, {"type": "note_off", "time": 112, "note": 72, "velocity": 116, "channel": 0}, {"type": "note_on", "time": 19, "note": 73, "velocity": 118, "channel": 0}, {"type": "note_off", "time": 1023, "note": 73, "velocity": 118, "channel": 0}, {"type": "note_on", "time": 245, "note": 70, "velocity": 120, "channel": 0}, {"type": "note_off", "time": 318, "note": 70, "velocity": 120, "channel": 0}, {"type": "note_on", "time": 0, "note": 68, "velocity": 117, "channel": 0}, {"type": "note_off", "time": 411, "note": 68, "velocity": 117, "channel": 0}, {"type": "note_on", "time": 15, "note": 70, "velocity": 119, "channel": 0}, {"type": "note_off", "time": 349, "note": 70, "velocity": 119, "channel": 0}, {"type": "note_on", "time": 0, "note": 68, "velocity": 117, "channel": 0}, {"type": "note_off", "time": 520, "note": 68, "velocity": 117, "channel": 0}, {"type": "note_on", "time": 6, "note": 70, "velocity": 119, "channel": 0}, {"type": "note_off", "time": 214, "note": 70, "velocity": 119, "channel": 0}, {"type": "note_on", "time": 13, "note": 68, "velocity": 118, "channel": 0}, {"type": "note_off", "time": 183, "note": 68, "velocity": 118, "channel": 0}, {"type": "note_on", "time": 8, "note": 67, "velocity": 114, "channel": 0}, {"type": "note_off", "time": 504, "note": 67, "velocity": 114, "channel": 0}, {"type": "note_on", "time": 0, "note": 63, "velocity": 108, "channel": 0}, {"type": "note_off", "time": 1873, "note": 63, "velocity": 108, "channel": 0}, {"type": "note_on", "time": 84, "note": 66, "velocity": 106, "channel": 0}, {"type": "note_off", "time": 248, "note": 66, "velocity": 106, "channel": 0}, {"type": "note_on", "time": 11, "note": 67, "velocity": 101, "channel": 0}, {"type": "note_off", "time": 106, "note": 67, "velocity": 101, "channel": 0}, {"type": "note_on", "time": 0, "note": 70, "velocity": 110, "channel": 0}, {"type": "note_off", "time": 236, "note": 70, "velocity": 110, "channel": 0}, {"type": "note_on", "time": 6, "note": 69, "velocity": 104, "channel": 0}, {"type": "note_off", "time": 168, "note": 69, "velocity": 104, "channel": 0}, {"type": "note_on", "time": 22, "note": 68, "velocity": 103, "channel": 0}, {"type": "note_off", "time": 250, "note": 68, "velocity": 103, "channel": 0}, {"type": "note_on", "time": 4, "note": 70, "velocity": 109, "channel": 0}, {"type": "note_off", "time": 250, "note": 70, "velocity": 109, "channel": 0}, {"type": "note_on", "time": 0, "note": 71, "velocity": 98, "channel": 0}, {"type": "note_off", "time": 73, "note": 71, "velocity": 98, "channel": 0}, {"type": "note_on", "time": 0, "note": 73, "velocity": 105, "channel": 0}, {"type": "note_off", "time": 236, "note": 73, "velocity": 105, "channel": 0}, {"type": "note_on", "time": 8, "note": 75, "velocity": 103, "channel": 0}, {"type": "note_off", "time": 239, "note": 75, "velocity": 103, "channel": 0}, {"type": "note_on", "time": 0, "note": 71, "velocity": 103, "channel": 0}, {"type": "note_off", "time": 243, "note": 71, "velocity": 103, "channel": 0}, {"type": "note_on", "time": 1185, "note": 68, "velocity": 108, "channel": 0}, {"type": "note_off", "time": 92, "note": 68, "velocity": 108, "channel": 0}, {"type": "note_on", "time": 3, "note": 67, "velocity": 103, "channel": 0}, {"type": "note_off", "time": 321, "note": 67, "velocity": 103, "channel": 0}, {"type": "note_on", "time": 3, "note": 66, "velocity": 107, "channel": 0}, {"type": "note_on", "time": 231, "note": 64, "velocity": 105, "channel": 0}, {"type": "note_off", "time": 0, "note": 66, "velocity": 107, "channel": 0}, {"type": "note_off", "time": 121, "note": 64, "velocity": 105, "channel": 0}, {"type": "note_on", "time": 12, "note": 65, "velocity": 109, "channel": 0}, {"type": "note_off", "time": 225, "note": 65, "velocity": 109, "channel": 0}, {"type": "note_on", "time": 4081, "note": 63, "velocity": 112, "channel": 0}, {"type": "note_off", "time": 225, "note": 63, "velocity": 112, "channel": 0}, {"type": "note_on", "time": 25, "note": 64, "velocity": 114, "channel": 0}, {"type": "note_off", "time": 210, "note": 64, "velocity": 114, "channel": 0}, {"type": "note_on", "time": 3, "note": 66, "velocity": 112, "channel": 0}, {"type": "note_off", "time": 228, "note": 66, "velocity": 112, "channel": 0}, {"type": "note_on", "time": 33, "note": 70, "velocity": 111, "channel": 0}, {"type": "note_off", "time": 138, "note": 70, "velocity": 111, "channel": 0}, {"type": "note_on", "time": 4, "note": 71, "velocity": 115, "channel": 0}, {"type": "note_on", "time": 141, "note": 72, "velocity": 113, "channel": 0}, {"type": "note_off", "time": 0, "note": 71, "velocity": 115, "channel": 0}, {"type": "note_off", "time": 85, "note": 72, "velocity": 113, "channel": 0}, {"type": "note_on", "time": 1, "note": 74, "velocity": 118, "channel": 0}, {"type": "note_off", "time": 140, "note": 74, "velocity": 118, "channel": 0}, {"type": "note_on", "time": 7, "note": 75, "velocity": 109, "channel": 0}, {"type": "note_off", "time": 56, "note": 75, "velocity": 109, "channel": 0}, {"type": "note_on", "time": 1, "note": 72, "velocity": 113, "channel": 0}, {"type": "note_off", "time": 620, "note": 72, "velocity": 113, "channel": 0}, {"type": "note_on", "time": 276, "note": 75, "velocity": 118, "channel": 0}, {"type": "note_off", "time": 265, "note": 75, "velocity": 118, "channel": 0}, {"type": "note_on", "time": 283, "note": 75, "velocity": 118, "channel": 0}, {"type": "note_off", "time": 343, "note": 75, "velocity": 118, "channel": 0}, {"type": "note_on", "time": 77, "note": 75, "velocity": 117, "channel": 0}, {"type": "note_off", "time": 279, "note": 75, "velocity": 117, "channel": 0}, {"type": "note_on", "time": 76, "note": 73, "velocity": 109, "channel": 0}, {"type": "note_off", "time": 105, "note": 73, "velocity": 109, "channel": 0}, {"type": "note_on", "time": 13, "note": 71, "velocity": 116, "channel": 0}, {"type": "note_off", "time": 97, "note": 71, "velocity": 116, "channel": 0}, {"type": "note_on", "time": 19, "note": 69, "velocity": 105, "channel": 0}, {"type": "note_off", "time": 88, "note": 69, "velocity": 105, "channel": 0}, {"type": "note_on", "time": 48, "note": 68, "velocity": 112, "channel": 0}, {"type": "note_off", "time": 201, "note": 68, "velocity": 112, "channel": 0}, {"type": "note_on", "time": 50, "note": 66, "velocity": 113, "channel": 0}, {"type": "note_off", "time": 53, "note": 66, "velocity": 113, "channel": 0}, {"type": "note_on", "time": 3, "note": 65, "velocity": 113, "channel": 0}, {"type": "note_off", "time": 130, "note": 65, "velocity": 113, "channel": 0}, {"type": "note_on", "time": 4, "note": 64, "velocity": 115, "channel": 0}, {"type": "note_off", "time": 103, "note": 64, "velocity": 115, "channel": 0}, {"type": "note_on", "time": 26, "note": 63, "velocity": 112, "channel": 0}, {"type": "note_off", "time": 3333, "note": 63, "velocity": 112, "channel": 0}, {"type": "note_on", "time": 0, "note": 64, "velocity": 115, "channel": 0}, {"type": "note_off", "time": 214, "note": 64, "velocity": 115, "channel": 0}, {"type": "note_on", "time": 37, "note": 66, "velocity": 112, "channel": 0}, {"type": "note_off", "time": 538, "note": 66, "velocity": 112, "channel": 0}, {"type": "note_on", "time": 17, "note": 68, "velocity": 109, "channel": 0}, {"type": "note_off", "time": 106, "note": 68, "velocity": 109, "channel": 0}, {"type": "note_on", "time": 110, "note": 70, "velocity": 112, "channel": 0}, {"type": "note_off", "time": 1499, "note": 70, "velocity": 112, "channel": 0}, {"type": "note_on", "time": 19, "note": 68, "velocity": 103, "channel": 0}, {"type": "note_off", "time": 117, "note": 68, "velocity": 103, "channel": 0}, {"type": "note_on", "time": 11, "note": 70, "velocity": 110, "channel": 0}, {"type": "note_off", "time": 551, "note": 70, "velocity": 110, "channel": 0}, {"type": "note_on", "time": 57, "note": 68, "velocity": 109, "channel": 0}, {"type": "note_off", "time": 354, "note": 68, "velocity": 109, "channel": 0}, {"type": "note_on", "time": 2187, "note": 77, "velocity": 111, "channel": 0}, {"type": "note_off", "time": 177, "note": 77, "velocity": 111, "channel": 0}, {"type": "note_on", "time": 24, "note": 80, "velocity": 96, "channel": 0}, {"type": "note_off", "time": 68, "note": 80, "velocity": 96, "channel": 0}, {"type": "note_on", "time": 108, "note": 82, "velocity": 111, "channel": 0}, {"type": "note_off", "time": 372, "note": 82, "velocity": 111, "channel": 0}, {"type": "note_on", "time": 26, "note": 81, "velocity": 114, "channel": 0}, {"type": "note_off", "time": 321, "note": 81, "velocity": 114, "channel": 0}, {"type": "note_on", "time": 86, "note": 80, "velocity": 115, "channel": 0}, {"type": "note_on", "time": 394, "note": 79, "velocity": 114, "channel": 0}, {"type": "note_off", "time": 0, "note": 80, "velocity": 115, "channel": 0}, {"type": "note_off", "time": 245, "note": 79, "velocity": 114, "channel": 0}, {"type": "note_on", "time": 6, "note": 78, "velocity": 107, "channel": 0}, {"type": "note_off", "time": 73, "note": 78, "velocity": 107, "channel": 0}, {"type": "note_on", "time": 66, "note": 77, "velocity": 114, "channel": 0}, {"type": "note_off", "time": 374, "note": 77, "velocity": 114, "channel": 0}, {"type": "note_on", "time": 15, "note": 76, "velocity": 115, "channel": 0}, {"type": "note_off", "time": 376, "note": 76, "velocity": 115, "channel": 0}, {"type": "note_on", "time": 55, "note": 75, "velocity": 110, "channel": 0}, {"type": "note_off", "time": 431, "note": 75, "velocity": 110, "channel": 0}, {"type": "note_on", "time": 75, "note": 74, "velocity": 103, "channel": 0}, {"type": "note_off", "time": 223, "note": 74, "velocity": 103, "channel": 0}, {"type": "note_on", "time": 28, "note": 71, "velocity": 105, "channel": 0}, {"type": "note_off", "time": 553, "note": 71, "velocity": 105, "channel": 0}, {"type": "note_on", "time": 31, "note": 73, "velocity": 113, "channel": 0}, {"type": "note_off", "time": 354, "note": 73, "velocity": 113, "channel": 0}, {"type": "note_on", "time": 438, "note": 75, "velocity": 106, "channel": 0}, {"type": "note_off", "time": 143, "note": 75, "velocity": 106, "channel": 0}, {"type": "note_on", "time": 0, "note": 74, "velocity": 115, "channel": 0}, {"type": "note_off", "time": 115, "note": 74, "velocity": 115, "channel": 0}, {"type": "note_on", "time": 6, "note": 73, "velocity": 109, "channel": 0}, {"type": "note_off", "time": 148, "note": 73, "velocity": 109, "channel": 0}, {"type": "note_on", "time": 4, "note": 70, "velocity": 112, "channel": 0}, {"type": "note_off", "time": 405, "note": 70, "velocity": 112, "channel": 0}, {"type": "note_on", "time": 53, "note": 68, "velocity": 110, "channel": 0}, {"type": "note_off", "time": 297, "note": 68, "velocity": 110, "channel": 0}, {"type": "note_on", "time": 25, "note": 66, "velocity": 107, "channel": 0}, {"type": "note_off", "time": 505, "note": 66, "velocity": 107, "channel": 0}, {"type": "note_on", "time": 26, "note": 65, "velocity": 110, "channel": 0}, {"type": "note_off", "time": 247, "note": 65, "velocity": 110, "channel": 0}, {"type": "note_on", "time": 31, "note": 64, "velocity": 89, "channel": 0}, {"type": "note_off", "time": 475, "note": 64, "velocity": 89, "channel": 0}, {"type": "note_on", "time": 153, "note": 66, "velocity": 106, "channel": 0}, {"type": "note_off", "time": 196, "note": 66, "velocity": 106, "channel": 0}, {"type": "note_on", "time": 61, "note": 68, "velocity": 107, "channel": 0}, {"type": "note_off", "time": 516, "note": 68, "velocity": 107, "channel": 0}, {"type": "note_on", "time": 42, "note": 71, "velocity": 114, "channel": 0}, {"type": "note_off", "time": 357, "note": 71, "velocity": 114, "channel": 0}, {"type": "note_on", "time": 1306, "note": 71, "velocity": 100, "channel": 0}, {"type": "note_off", "time": 201, "note": 71, "velocity": 100, "channel": 0}, {"type": "note_on", "time": 26, "note": 72, "velocity": 114, "channel": 0}, {"type": "note_off", "time": 538, "note": 72, "velocity": 114, "channel": 0}, {"type": "note_on", "time": 72, "note": 69, "velocity": 106, "channel": 0}, {"type": "note_off", "time": 222, "note": 69, "velocity": 106, "channel": 0}, {"type": "note_on", "time": 755, "note": 74, "velocity": 116, "channel": 0}, {"type": "note_off", "time": 190, "note": 74, "velocity": 116, "channel": 0}, {"type": "note_on", "time": 0, "note": 72, "velocity": 108, "channel": 0}, {"type": "note_off", "time": 119, "note": 72, "velocity": 108, "channel": 0}, {"type": "note_on", "time": 6, "note": 69, "velocity": 117, "channel": 0}, {"type": "note_off", "time": 420, "note": 69, "velocity": 117, "channel": 0}, {"type": "note_on", "time": 921, "note": 67, "velocity": 117, "channel": 0}, {"type": "note_off", "time": 324, "note": 67, "velocity": 117, "channel": 0}, {"type": "note_on", "time": 31, "note": 65, "velocity": 115, "channel": 0}, {"type": "note_off", "time": 360, "note": 65, "velocity": 115, "channel": 0}, {"type": "note_on", "time": 18, "note": 64, "velocity": 115, "channel": 0}, {"type": "note_off", "time": 325, "note": 64, "velocity": 115, "channel": 0}, {"type": "note_on", "time": 91, "note": 63, "velocity": 110, "channel": 0}, {"type": "note_off", "time": 379, "note": 63, "velocity": 110, "channel": 0}, {"type": "note_on", "time": 11, "note": 65, "velocity": 115, "channel": 0}, {"type": "note_off", "time": 272, "note": 65, "velocity": 115, "channel": 0}, {"type": "note_on", "time": 75, "note": 67, "velocity": 107, "channel": 0}, {"type": "note_off", "time": 546, "note": 67, "velocity": 107, "channel": 0}, {"type": "note_on", "time": 55, "note": 70, "velocity": 99, "channel": 0}, {"type": "note_off", "time": 149, "note": 70, "velocity": 99, "channel": 0}, {"type": "note_on", "time": 61, "note": 74, "velocity": 119, "channel": 0}, {"type": "note_off", "time": 546, "note": 74, "velocity": 119, "channel": 0}, {"type": "note_on", "time": 7, "note": 72, "velocity": 113, "channel": 0}, {"type": "note_off", "time": 1135, "note": 72, "velocity": 113, "channel": 0}, {"type": "note_on", "time": 57, "note": 69, "velocity": 115, "channel": 0}, {"type": "note_off", "time": 473, "note": 69, "velocity": 115, "channel": 0}, {"type": "note_on", "time": 0, "note": 73, "velocity": 116, "channel": 0}, {"type": "note_off", "time": 252, "note": 73, "velocity": 116, "channel": 0}, {"type": "note_on", "time": 46, "note": 74, "velocity": 118, "channel": 0}, {"type": "note_off", "time": 414, "note": 74, "velocity": 118, "channel": 0}, {"type": "note_on", "time": 26, "note": 74, "velocity": 117, "channel": 0}, {"type": "note_off", "time": 365, "note": 74, "velocity": 117, "channel": 0}, {"type": "note_on", "time": 19, "note": 71, "velocity": 108, "channel": 0}, {"type": "note_off", "time": 440, "note": 71, "velocity": 108, "channel": 0}, {"type": "note_on", "time": 59, "note": 74, "velocity": 112, "channel": 0}, {"type": "note_off", "time": 259, "note": 74, "velocity": 112, "channel": 0}, {"type": "note_on", "time": 22, "note": 76, "velocity": 110, "channel": 0}, {"type": "note_off", "time": 460, "note": 76, "velocity": 110, "channel": 0}, {"type": "note_on", "time": 26, "note": 76, "velocity": 108, "channel": 0}, {"type": "note_off", "time": 241, "note": 76, "velocity": 108, "channel": 0}, {"type": "note_on", "time": 19, "note": 73, "velocity": 104, "channel": 0}, {"type": "note_off", "time": 531, "note": 73, "velocity": 104, "channel": 0}, {"type": "note_on", "time": 48, "note": 76, "velocity": 95, "channel": 0}, {"type": "note_off", "time": 208, "note": 76, "velocity": 95, "channel": 0}, {"type": "note_on", "time": 26, "note": 78, "velocity": 115, "channel": 0}, {"type": "note_off", "time": 546, "note": 78, "velocity": 115, "channel": 0}, {"type": "note_on", "time": 44, "note": 75, "velocity": 104, "channel": 0}, {"type": "note_off", "time": 183, "note": 75, "velocity": 104, "channel": 0}, {"type": "note_on", "time": 892, "note": 79, "velocity": 112, "channel": 0}, {"type": "note_off", "time": 690, "note": 79, "velocity": 112, "channel": 0}, {"type": "note_on", "time": 37, "note": 76, "velocity": 108, "channel": 0}, {"type": "note_off", "time": 560, "note": 76, "velocity": 108, "channel": 0}, {"type": "note_on", "time": 0, "note": 71, "velocity": 97, "channel": 0}, {"type": "note_off", "time": 3312, "note": 71, "velocity": 97, "channel": 0}, {"type": "end_of_track", "time": 0}]]}