{"ticks_per_beat": 192, "tracks": [[{"type": "track_name", "name": "Melody", "time": 0}, {"type": "set_tempo", "tempo": 281690, "time": 0}, {"type": "key_signature", "key": "C", "time": 0}, {"type": "time_signature", "numerator": 4, "denominator": 4, "clocks_per_click": 24, "notated_32nd_notes_per_beat": 8, "time": 0}, {"type": "note_on", "time": 3995, "note": 70, "velocity": 107, "channel": 0}, {"type": "note_off", "time": 114, "note": 70, "velocity": 107, "channel": 0}, {"type": "note_on", "time": 7, "note": 68, "velocity": 100, "channel": 0}, {"type": "note_off", "time": 265, "note": 68, "velocity": 100, "channel": 0}, {"type": "note_on", "time": 91, "note": 67, "velocity": 102, "channel": 0}, {"type": "note_off", "time": 269, "note": 67, "velocity": 102, "channel": 0}, {"type": "note_on", "time": 11, "note": 69, "velocity": 109, "channel": 0}, {"type": "note_off", "time": 87, "note": 69, "velocity": 109, "channel": 0}, {"type": "note_on", "time": 3, "note": 67, "velocity": 102, "channel": 0}, {"type": "note_off", "time": 79, "note": 67, "velocity": 102, "channel": 0}, {"type": "note_on", "time": 11, "note": 68, "velocity": 97, "channel": 0}, {"type": "note_off", "time": 35, "note": 68, "velocity": 97, "channel": 0}, {"type": "note_on", "time": 15, "note": 65, "velocity": 96, "channel": 0}, {"type": "note_off", "time": 47, "note": 65, "velocity": 96, "channel": 0}, {"type": "note_on", "time": 19, "note": 64, "velocity": 102, "channel": 0}, {"type": "note_off", "time": 51, "note": 64, "velocity": 102, "channel": 0}, {"type": "note_on", "time": 35, "note": 65, "velocity": 104, "channel": 0}, {"type": "note_off", "time": 71, "note": 65, "velocity": 104, "channel": 0}, {"type": "note_on", "time": 15, "note": 67, "velocity": 107, "channel": 0}, {"type": "note_off", "time": 98, "note": 67, "velocity": 107, "channel": 0}, {"type": "note_on", "time": 87, "note": 76, "velocity": 116, "channel": 0}, {"type": "note_off", "time": 371, "note": 76, "velocity": 116, "channel": 0}, {"type": "note_on", "time": 39, "note": 74, "velocity": 99, "channel": 0}, {"type": "note_off", "time": 94, "note": 74, "velocity": 99, "channel": 0}, {"type": "note_on", "time": 15, "note": 76, "velocity": 114, "channel": 0}, {"type": "note_off", "time": 47, "note": 76, "velocity": 114, "channel": 0}, {"type": "note_on", "time": 15, "note": 74, "velocity": 118, "channel": 0}, {"type": "note_off", "time": 55, "note": 74, "velocity": 118, "channel": 0}, {"type": "note_on", "time": 3, "note": 72, "velocity": 102, "channel": 0}, {"type": "note_off", "time": 98, "note": 72, "velocity": 102, "channel": 0}, {"type": "note_on", "time": 67, "note": 70, "velocity": 105, "channel": 0}, {"type": "note_off", "time": 75, "note": 70, "velocity": 105, "channel": 0}, {"type": "note_on", "time": 27, "note": 73, "velocity": 93, "channel": 0}, {"type": "note_off", "time": 47, "note": 73, "velocity": 93, "channel": 0}, {"type": "note_on", "time": 7, "note": 70, "velocity": 105, "channel": 0}, {"type": "note_off", "time": 23, "note": 70, "velocity": 105, "channel": 0}, {"type": "note_on", "time": 3, "note": 68, "velocity": 108, "channel": 0}, {"type": "note_off", "time": 126, "note": 68, "velocity": 108, "channel": 0}, {"type": "note_on", "time": 83, "note": 67, "velocity": 116, "channel": 0}, {"type": "note_off", "time": 79, "note": 67, "velocity": 116, "channel": 0}, {"type": "note_on", "time": 15, "note": 68, "velocity": 100, "channel": 0}, {"type": "note_off", "time": 39, "note": 68, "velocity": 100, "channel": 0}, {"type": "note_on", "time": 15, "note": 67, "velocity": 111, "channel": 0}, {"type": "note_off", "time": 43, "note": 67, "velocity": 111, "channel": 0}, {"type": "note_on", "time": 35, "note": 65, "velocity": 108, "channel": 0}, {"type": "note_off", "time": 114, "note": 65, "velocity": 108, "channel": 0}, {"type": "note_on", "time": 269, "note": 70, "velocity": 119, "channel": 0}, {"type": "note_off", "time": 83, "note": 70, "velocity": 119, "channel": 0}, {"type": "note_on", "time": 11, "note": 69, "velocity": 118, "channel": 0}, {"type": "note_off", "time": 94, "note": 69, "velocity": 118, "channel": 0}, {"type": "note_on", "time": 0, "note": 68, "velocity": 117, "channel": 0}, {"type": "note_off", "time": 67, "note": 68, "velocity": 117, "channel": 0}, {"type": "note_on", "time": 19, "note": 70, "velocity": 122, "channel": 0}, {"type": "note_off", "time": 31, "note": 70, "velocity": 122, "channel": 0}, {"type": "note_on", "time": 7, "note": 68, "velocity": 109, "channel": 0}, {"type": "note_off", "time": 59, "note": 68, "velocity": 109, "channel": 0}, {"type": "note_on", "time": 0, "note": 67, "velocity": 113, "channel": 0}, {"type": "note_off", "time": 91, "note": 67, "velocity": 113, "channel": 0}, {"type": "note_on", "time": 35, "note": 65, "velocity": 118, "channel": 0}, {"type": "note_off", "time": 71, "note": 65, "velocity": 118, "channel": 0}, {"type": "note_on", "time": 316, "note": 67, "velocity": 112, "channel": 0}, {"type": "note_off", "time": 87, "note": 67, "velocity": 112, "channel": 0}, {"type": "note_on", "time": 15, "note": 69, "velocity": 115, "channel": 0}, {"type": "note_off", "time": 59, "note": 69, "velocity": 115, "channel": 0}, {"type": "note_on", "time": 15, "note": 71, "velocity": 101, "channel": 0}, {"type": "note_off", "time": 79, "note": 71, "velocity": 101, "channel": 0}, {"type": "note_on", "time": 19, "note": 74, "velocity": 124, "channel": 0}, {"type": "note_off", "time": 110, "note": 74, "velocity": 124, "channel": 0}, {"type": "note_on", "time": 19, "note": 71, "velocity": 99, "channel": 0}, {"type": "note_off", "time": 59, "note": 71, "velocity": 99, "channel": 0}, {"type": "note_on", "time": 15, "note": 73, "velocity": 124, "channel": 0}, {"type": "note_off", "time": 87, "note": 73, "velocity": 124, "channel": 0}, {"type": "note_on", "time": 23, "note": 71, "velocity": 115, "channel": 0}, {"type": "note_off", "time": 63, "note": 71, "velocity": 115, "channel": 0}, {"type": "note_on", "time": 15, "note": 72, "velocity": 113, "channel": 0}, {"type": "note_off", "time": 71, "note": 72, "velocity": 113, "channel": 0}, {"type": "note_on", "time": 39, "note": 67, "velocity": 109, "channel": 0}, {"type": "note_off", "time": 94, "note": 67, "velocity": 109, "channel": 0}, {"type": "note_on", "time": 300, "note": 62, "velocity": 94, "channel": 0}, {"type": "note_off", "time": 31, "note": 62, "velocity": 94, "channel": 0}, {"type": "note_on", "time": 37, "note": 64, "velocity": 94, "channel": 0}, {"type": "note_off", "time": 59, "note": 64, "velocity": 94, "channel": 0}, {"type": "note_on", "time": 33, "note": 69, "velocity": 119, "channel": 0}, {"type": "note_off", "time": 59, "note": 69, "velocity": 119, "channel": 0}, {"type": "note_on", "time": 39, "note": 68, "velocity": 122, "channel": 0}, {"type": "note_off", "time": 79, "note": 68, "velocity": 122, "channel": 0}, {"type": "note_on", "time": 11, "note": 71, "velocity": 85, "channel": 0}, {"type": "note_off", "time": 35, "note": 71, "velocity": 85, "channel": 0}, {"type": "note_on", "time": 9, "note": 70, "velocity": 122, "channel": 0}, {"type": "note_off", "time": 45, "note": 70, "velocity": 122, "channel": 0}, {"type": "note_on", "time": 27, "note": 78, "velocity": 116, "channel": 0}, {"type": "note_off", "time": 59, "note": 78, "velocity": 116, "channel": 0}, {"type": "note_on", "time": 7, "note": 80, "velocity": 126, "channel": 0}, {"type": "note_off", "time": 67, "note": 80, "velocity": 126, "channel": 0}, {"type": "note_on", "time": 15, "note": 79, "velocity": 123, "channel": 0}, {"type": "note_off", "time": 83, "note": 79, "velocity": 123, "channel": 0}, {"type": "note_on", "time": 12, "note": 78, "velocity": 123, "channel": 0}, {"type": "note_off", "time": 47, "note": 78, "velocity": 123, "channel": 0}, {"type": "note_on", "time": 0, "note": 77, "velocity": 124, "channel": 0}, {"type": "note_off", "time": 55, "note": 77, "velocity": 124, "channel": 0}, {"type": "note_on", "time": 16, "note": 75, "velocity": 119, "channel": 0}, {"type": "note_off", "time": 77, "note": 75, "velocity": 119, "channel": 0}, {"type": "note_on", "time": 8, "note": 74, "velocity": 119, "channel": 0}, {"type": "note_off", "time": 89, "note": 74, "velocity": 119, "channel": 0}, {"type": "note_on", "time": 0, "note": 73, "velocity": 120, "channel": 0}, {"type": "note_off", "time": 102, "note": 73, "velocity": 120, "channel": 0}, {"type": "note_on", "time": 5, "note": 75, "velocity": 108, "channel": 0}, {"type": "note_off", "time": 86, "note": 75, "velocity": 108, "channel": 0}, {"type": "note_on", "time": 2, "note": 72, "velocity": 116, "channel": 0}, {"type": "note_off", "time": 94, "note": 72, "velocity": 116, "channel": 0}, {"type": "note_on", "time": 0, "note": 70, "velocity": 117, "channel": 0}, {"type": "note_off", "time": 89, "note": 70, "velocity": 117, "channel": 0}, {"type": "note_on", "time": 5, "note": 68, "velocity": 113, "channel": 0}, {"type": "note_off", "time": 89, "note": 68, "velocity": 113, "channel": 0}, {"type": "note_on", "time": 19, "note": 64, "velocity": 107, "channel": 0}, {"type": "note_off", "time": 97, "note": 64, "velocity": 107, "channel": 0}, {"type": "note_on", "time": 219, "note": 63, "velocity": 103, "channel": 0}, {"type": "note_off", "time": 58, "note": 63, "velocity": 103, "channel": 0}, {"type": "note_on", "time": 19, "note": 65, "velocity": 112, "channel": 0}, {"type": "note_off", "time": 69, "note": 65, "velocity": 112, "channel": 0}, {"type": "note_on", "time": 11, "note": 67, "velocity": 91, "channel": 0}, {"type": "note_off", "time": 89, "note": 67, "velocity": 91, "channel": 0}, {"type": "note_on", "time": 13, "note": 68, "velocity": 103, "channel": 0}, {"type": "note_off", "time": 75, "note": 68, "velocity": 103, "channel": 0}, {"type": "note_on", "time": 22, "note": 70, "velocity": 109, "channel": 0}, {"type": "note_off", "time": 94, "note": 70, "velocity": 109, "channel": 0}, {"type": "note_on", "time": 8, "note": 68, "velocity": 94, "channel": 0}, {"type": "note_off", "time": 66, "note": 68, "velocity": 94, "channel": 0}, {"type": "note_on", "time": 25, "note": 67, "velocity": 99, "channel": 0}, {"type": "note_off", "time": 55, "note": 67, "velocity": 99, "channel": 0}, {"type": "note_on", "time": 8, "note": 70, "velocity": 112, "channel": 0}, {"type": "note_off", "time": 91, "note": 70, "velocity": 112, "channel": 0}, {"type": "note_on", "time": 30, "note": 72, "velocity": 95, "channel": 0}, {"type": "note_off", "time": 144, "note": 72, "velocity": 95, "channel": 0}, {"type": "note_on", "time": 19, "note": 75, "velocity": 111, "channel": 0}, {"type": "note_off", "time": 105, "note": 75, "velocity": 111, "channel": 0}, {"type": "note_on", "time": 16, "note": 77, "velocity": 127, "channel": 0}, {"type": "note_off", "time": 58, "note": 77, "velocity": 127, "channel": 0}, {"type": "note_on", "time": 25, "note": 74, "velocity": 119, "channel": 0}, {"type": "note_off", "time": 89, "note": 74, "velocity": 119, "channel": 0}, {"type": "note_on", "time": 27, "note": 71, "velocity": 106, "channel": 0}, {"type": "note_off", "time": 58, "note": 71, "velocity": 106, "channel": 0}, {"type": "note_on", "time": 13, "note": 72, "velocity": 114, "channel": 0}, {"type": "note_off", "time": 80, "note": 72, "velocity": 114, "channel": 0}, {"type": "note_on", "time": 13, "note": 74, "velocity": 111, "channel": 0}, {"type": "note_off", "time": 58, "note": 74, "velocity": 111, "channel": 0}, {"type": "note_on", "time": 2, "note": 72, "velocity": 118, "channel": 0}, {"type": "note_off", "time": 55, "note": 72, "velocity": 118, "channel": 0}, {"type": "note_on", "time": 8, "note": 71, "velocity": 105, "channel": 0}, {"type": "note_off", "time": 80, "note": 71, "velocity": 105, "channel": 0}, {"type": "note_on", "time": 2, "note": 69, "velocity": 104, "channel": 0}, {"type": "note_off", "time": 116, "note": 69, "velocity": 104, "channel": 0}, {"type": "note_on", "time": 8, "note": 68, "velocity": 93, "channel": 0}, {"type": "note_off", "time": 58, "note": 68, "velocity": 93, "channel": 0}, {"type": "note_on", "time": 0, "note": 71, "velocity": 117, "channel": 0}, {"type": "note_off", "time": 91, "note": 71, "velocity": 117, "channel": 0}, {"type": "note_on", "time": 197, "note": 67, "velocity": 103, "channel": 0}, {"type": "note_off", "time": 100, "note": 67, "velocity": 103, "channel": 0}, {"type": "note_on", "time": 0, "note": 64, "velocity": 108, "channel": 0}, {"type": "note_off", "time": 77, "note": 64, "velocity": 108, "channel": 0}, {"type": "note_on", "time": 13, "note": 66, "velocity": 103, "channel": 0}, {"type": "note_off", "time": 77, "note": 66, "velocity": 103, "channel": 0}, {"type": "note_on", "time": 19, "note": 64, "velocity": 103, "channel": 0}, {"type": "note_off", "time": 97, "note": 64, "velocity": 103, "channel": 0}, {"type": "note_on", "time": 8, "note": 65, "velocity": 104, "channel": 0}, {"type": "note_off", "time": 52, "note": 65, "velocity": 104, "channel": 0}, {"type": "note_on", "time": 5, "note": 63, "velocity": 108, "channel": 0}, {"type": "note_off", "time": 91, "note": 63, "velocity": 108, "channel": 0}, {"type": "note_on", "time": 13, "note": 62, "velocity": 99, "channel": 0}, {"type": "note_off", "time": 89, "note": 62, "velocity": 99, "channel": 0}, {"type": "note_on", "time": 27, "note": 64, "velocity": 105, "channel": 0}, {"type": "note_off", "time": 75, "note": 64, "velocity": 105, "channel": 0}, {"type": "note_on", "time": 2, "note": 65, "velocity": 99, "channel": 0}, {"type": "note_off", "time": 89, "note": 65, "velocity": 99, "channel": 0}, {"type": "note_on", "time": 30, "note": 67, "velocity": 104, "channel": 0}, {"type": "note_off", "time": 58, "note": 67, "velocity": 104, "channel": 0}, {"type": "note_on", "time": 22, "note": 69, "velocity": 106, "channel": 0}, {"type": "note_off", "time": 89, "note": 69, "velocity": 106, "channel": 0}, {"type": "note_on", "time": 38, "note": 74, "velocity": 89, "channel": 0}, {"type": "note_off", "time": 35, "note": 74, "velocity": 89, "channel": 0}, {"type": "note_on", "time": 6, "note": 76, "velocity": 92, "channel": 0}, {"type": "note_off", "time": 133, "note": 76, "velocity": 92, "channel": 0}, {"type": "note_on", "time": 22, "note": 74, "velocity": 118, "channel": 0}, {"type": "note_off", "time": 141, "note": 74, "velocity": 118, "channel": 0}, {"type": "note_on", "time": 38, "note": 74, "velocity": 114, "channel": 0}, {"type": "note_off", "time": 77, "note": 74, "velocity": 114, "channel": 0}, {"type": "note_on", "time": 11, "note": 72, "velocity": 119, "channel": 0}, {"type": "note_off", "time": 83, "note": 72, "velocity": 119, "channel": 0}, {"type": "note_on", "time": 0, "note": 74, "velocity": 110, "channel": 0}, {"type": "note_off", "time": 63, "note": 74, "velocity": 110, "channel": 0}, {"type": "note_on", "time": 2, "note": 72, "velocity": 120, "channel": 0}, {"type": "note_off", "time": 50, "note": 72, "velocity": 120, "channel": 0}, {"type": "note_on", "time": 13, "note": 71, "velocity": 110, "channel": 0}, {"type": "note_off", "time": 66, "note": 71, "velocity": 110, "channel": 0}, {"type": "note_on", "time": 11, "note": 68, "velocity": 118, "channel": 0}, {"type": "note_on", "time": 91, "note": 67, "velocity": 106, "channel": 0}, {"type": "note_off", "time": 0, "note": 68, "velocity": 118, "channel": 0}, {"type": "note_off", "time": 89, "note": 67, "velocity": 106, "channel": 0}, {"type": "note_on", "time": 22, "note": 65, "velocity": 105, "channel": 0}, {"type": "note_off", "time": 75, "note": 65, "velocity": 105, "channel": 0}, {"type": "note_on", "time": 22, "note": 64, "velocity": 101, "channel": 0}, {"type": "note_off", "time": 108, "note": 64, "velocity": 101, "channel": 0}, {"type": "note_on", "time": 1452, "note": 67, "velocity": 109, "channel": 0}, {"type": "note_off", "time": 41, "note": 67, "velocity": 109, "channel": 0}, {"type": "note_on", "time": 22, "note": 69, "velocity": 112, "channel": 0}, {"type": "note_off", "time": 36, "note": 69, "velocity": 112, "channel": 0}, {"type": "note_on", "time": 27, "note": 72, "velocity": 105, "channel": 0}, {"type": "note_off", "time": 44, "note": 72, "velocity": 105, "channel": 0}, {"type": "note_on", "time": 16, "note": 74, "velocity": 121, "channel": 0}, {"type": "note_off", "time": 130, "note": 74, "velocity": 121, "channel": 0}, {"type": "note_on", "time": 16, "note": 72, "velocity": 110, "channel": 0}, {"type": "note_off", "time": 225, "note": 72, "velocity": 110, "channel": 0}, {"type": "note_on", "time": 44, "note": 69, "velocity": 111, "channel": 0}, {"type": "note_off", "time": 89, "note": 69, "velocity": 111, "channel": 0}, {"type": "note_on", "time": 8, "note": 67, "velocity": 100, "channel": 0}, {"type": "note_off", "time": 66, "note": 67, "velocity": 100, "channel": 0}, {"type": "note_on", "time": 25, "note": 75, "velocity": 105, "channel": 0}, {"type": "note_off", "time": 47, "note": 75, "velocity": 105, "channel": 0}, {"type": "note_on", "time": 13, "note": 76, "velocity": 121, "channel": 0}, {"type": "note_off", "time": 139, "note": 76, "velocity": 121, "channel": 0}, {"type": "note_on", "time": 0, "note": 79, "velocity": 125, "channel": 0}, {"type": "note_off", "time": 186, "note": 79, "velocity": 125, "channel": 0}, {"type": "note_on", "time": 542, "note": 77, "velocity": 117, "channel": 0}, {"type": "note_off", "time": 114, "note": 77, "velocity": 117, "channel": 0}, {"type": "note_on", "time": 2, "note": 76, "velocity": 116, "channel": 0}, {"type": "note_off", "time": 83, "note": 76, "velocity": 116, "channel": 0}, {"type": "note_on", "time": 5, "note": 74, "velocity": 113, "channel": 0}, {"type": "note_off", "time": 91, "note": 74, "velocity": 113, "channel": 0}, {"type": "note_on", "time": 19, "note": 73, "velocity": 109, "channel": 0}, {"type": "note_off", "time": 89, "note": 73, "velocity": 109, "channel": 0}, {"type": "note_on", "time": 5, "note": 72, "velocity": 101, "channel": 0}, {"type": "note_off", "time": 80, "note": 72, "velocity": 101, "channel": 0}, {"type": "note_on", "time": 11, "note": 71, "velocity": 90, "channel": 0}, {"type": "note_off", "time": 80, "note": 71, "velocity": 90, "channel": 0}, {"type": "note_on", "time": 25, "note": 70, "velocity": 101, "channel": 0}, {"type": "note_off", "time": 66, "note": 70, "velocity": 101, "channel": 0}, {"type": "note_on", "time": 16, "note": 69, "velocity": 98, "channel": 0}, {"type": "note_off", "time": 77, "note": 69, "velocity": 98, "channel": 0}, {"type": "note_on", "time": 2, "note": 68, "velocity": 102, "channel": 0}, {"type": "note_off", "time": 91, "note": 68, "velocity": 102, "channel": 0}, {"type": "note_on", "time": 16, "note": 70, "velocity": 115, "channel": 0}, {"type": "note_off", "time": 33, "note": 70, "velocity": 115, "channel": 0}, {"type": "note_on", "time": 0, "note": 68, "velocity": 98, "channel": 0}, {"type": "note_off", "time": 86, "note": 68, "velocity": 98, "channel": 0}, {"type": "note_on", "time": 5, "note": 67, "velocity": 100, "channel": 0}, {"type": "note_off", "time": 83, "note": 67, "velocity": 100, "channel": 0}, {"type": "note_on", "time": 0, "note": 65, "velocity": 108, "channel": 0}, {"type": "note_off", "time": 80, "note": 65, "velocity": 108, "channel": 0}, {"type": "note_on", "time": 19, "note": 62, "velocity": 86, "channel": 0}, {"type": "note_off", "time": 47, "note": 62, "velocity": 86, "channel": 0}, {"type": "note_on", "time": 36, "note": 63, "velocity": 95, "channel": 0}, {"type": "note_off", "time": 66, "note": 63, "velocity": 95, "channel": 0}, {"type": "note_on", "time": 13, "note": 64, "velocity": 101, "channel": 0}, {"type": "note_off", "time": 72, "note": 64, "velocity": 101, "channel": 0}, {"type": "note_on", "time": 47, "note": 67, "velocity": 101, "channel": 0}, {"type": "note_off", "time": 72, "note": 67, "velocity": 101, "channel": 0}, {"type": "note_on", "time": 2, "note": 69, "velocity": 97, "channel": 0}, {"type": "note_off", "time": 58, "note": 69, "velocity": 97, "channel": 0}, {"type": "note_on", "time": 44, "note": 71, "velocity": 85, "channel": 0}, {"type": "note_off", "time": 83, "note": 71, "velocity": 85, "channel": 0}, {"type": "note_on", "time": 2, "note": 74, "velocity": 116, "channel": 0}, {"type": "note_off", "time": 119, "note": 74, "velocity": 116, "channel": 0}, {"type": "note_on", "time": 8, "note": 71, "velocity": 93, "channel": 0}, {"type": "note_off", "time": 55, "note": 71, "velocity": 93, "channel": 0}, {"type": "note_on", "time": 13, "note": 73, "velocity": 111, "channel": 0}, {"type": "note_off", "time": 116, "note": 73, "velocity": 111, "channel": 0}, {"type": "note_on", "time": 5, "note": 71, "velocity": 98, "channel": 0}, {"type": "note_off", "time": 50, "note": 71, "velocity": 98, "channel": 0}, {"type": "note_on", "time": 22, "note": 72, "velocity": 103, "channel": 0}, {"type": "note_off", "time": 108, "note": 72, "velocity": 103, "channel": 0}, {"type": "note_on", "time": 25, "note": 67, "velocity": 104, "channel": 0}, {"type": "note_off", "time": 122, "note": 67, "velocity": 104, "channel": 0}, {"type": "note_on", "time": 509, "note": 76, "velocity": 115, "channel": 0}, {"type": "note_off", "time": 61, "note": 76, "velocity": 115, "channel": 0}, {"type": "note_on", "time": 11, "note": 78, "velocity": 106, "channel": 0}, {"type": "note_off", "time": 55, "note": 78, "velocity": 106, "channel": 0}, {"type": "note_on", "time": 0, "note": 76, "velocity": 105, "channel": 0}, {"type": "note_off", "time": 80, "note": 76, "velocity": 105, "channel": 0}, {"type": "note_on", "time": 22, "note": 74, "velocity": 108, "channel": 0}, {"type": "note_off", "time": 55, "note": 74, "velocity": 108, "channel": 0}, {"type": "note_on", "time": 0, "note": 76, "velocity": 104, "channel": 0}, {"type": "note_off", "time": 33, "note": 76, "velocity": 104, "channel": 0}, {"type": "note_on", "time": 13, "note": 74, "velocity": 111, "channel": 0}, {"type": "note_off", "time": 69, "note": 74, "velocity": 111, "channel": 0}, {"type": "note_on", "time": 0, "note": 73, "velocity": 110, "channel": 0}, {"type": "note_off", "time": 50, "note": 73, "velocity": 110, "channel": 0}, {"type": "note_on", "time": 5, "note": 74, "velocity": 105, "channel": 0}, {"type": "note_off", "time": 50, "note": 74, "velocity": 105, "channel": 0}, {"type": "note_on", "time": 22, "note": 73, "velocity": 112, "channel": 0}, {"type": "note_off", "time": 69, "note": 73, "velocity": 112, "channel": 0}, {"type": "note_on", "time": 5, "note": 71, "velocity": 110, "channel": 0}, {"type": "note_off", "time": 38, "note": 71, "velocity": 110, "channel": 0}, {"type": "note_on", "time": 19, "note": 73, "velocity": 110, "channel": 0}, {"type": "note_off", "time": 36, "note": 73, "velocity": 110, "channel": 0}, {"type": "note_on", "time": 13, "note": 71, "velocity": 106, "channel": 0}, {"type": "note_off", "time": 61, "note": 71, "velocity": 106, "channel": 0}, {"type": "note_on", "time": 22, "note": 70, "velocity": 109, "channel": 0}, {"type": "note_off", "time": 50, "note": 70, "velocity": 109, "channel": 0}, {"type": "note_on", "time": 19, "note": 72, "velocity": 98, "channel": 0}, {"type": "note_off", "time": 36, "note": 72, "velocity": 98, "channel": 0}, {"type": "note_on", "time": 22, "note": 70, "velocity": 111, "channel": 0}, {"type": "note_off", "time": 47, "note": 70, "velocity": 111, "channel": 0}, {"type": "note_on", "time": 33, "note": 68, "velocity": 110, "channel": 0}, {"type": "note_off", "time": 50, "note": 68, "velocity": 110, "channel": 0}, {"type": "note_on", "time": 13, "note": 70, "velocity": 109, "channel": 0}, {"type": "note_off", "time": 50, "note": 70, "velocity": 109, "channel": 0}, {"type": "note_on", "time": 8, "note": 68, "velocity": 110, "channel": 0}, {"type": "note_off", "time": 47, "note": 68, "velocity": 110, "channel": 0}, {"type": "note_on", "time": 5, "note": 67, "velocity": 108, "channel": 0}, {"type": "note_off", "time": 50, "note": 67, "velocity": 108, "channel": 0}, {"type": "note_on", "time": 0, "note": 68, "velocity": 111, "channel": 0}, {"type": "note_off", "time": 44, "note": 68, "velocity": 111, "channel": 0}, {"type": "note_on", "time": 8, "note": 67, "velocity": 109, "channel": 0}, {"type": "note_off", "time": 55, "note": 67, "velocity": 109, "channel": 0}, {"type": "note_on", "time": 19, "note": 65, "velocity": 106, "channel": 0}, {"type": "note_off", "time": 55, "note": 65, "velocity": 106, "channel": 0}, {"type": "note_on", "time": 8, "note": 67, "velocity": 102, "channel": 0}, {"type": "note_off", "time": 47, "note": 67, "velocity": 102, "channel": 0}, {"type": "note_on", "time": 8, "note": 65, "velocity": 109, "channel": 0}, {"type": "note_off", "time": 69, "note": 65, "velocity": 109, "channel": 0}, {"type": "note_on", "time": 11, "note": 63, "velocity": 106, "channel": 0}, {"type": "note_off", "time": 66, "note": 63, "velocity": 106, "channel": 0}, {"type": "note_on", "time": 50, "note": 65, "velocity": 109, "channel": 0}, {"type": "note_off", "time": 66, "note": 65, "velocity": 109, "channel": 0}, {"type": "note_on", "time": 27, "note": 67, "velocity": 91, "channel": 0}, {"type": "note_off", "time": 58, "note": 67, "velocity": 91, "channel": 0}, {"type": "note_on", "time": 25, "note": 68, "velocity": 98, "channel": 0}, {"type": "note_off", "time": 80, "note": 68, "velocity": 98, "channel": 0}, {"type": "note_on", "time": 13, "note": 70, "velocity": 109, "channel": 0}, {"type": "note_off", "time": 108, "note": 70, "velocity": 109, "channel": 0}, {"type": "note_on", "time": 5, "note": 67, "velocity": 98, "channel": 0}, {"type": "note_off", "time": 50, "note": 67, "velocity": 98, "channel": 0}, {"type": "note_on", "time": 27, "note": 68, "velocity": 96, "channel": 0}, {"type": "note_off", "time": 72, "note": 68, "velocity": 96, "channel": 0}, {"type": "note_on", "time": 33, "note": 70, "velocity": 113, "channel": 0}, {"type": "note_off", "time": 102, "note": 70, "velocity": 113, "channel": 0}, {"type": "note_on", "time": 25, "note": 72, "velocity": 99, "channel": 0}, {"type": "note_off", "time": 114, "note": 72, "velocity": 99, "channel": 0}, {"type": "note_on", "time": 38, "note": 77, "velocity": 117, "channel": 0}, {"type": "note_off", "time": 111, "note": 77, "velocity": 117, "channel": 0}, {"type": "note_on", "time": 2, "note": 76, "velocity": 114, "channel": 0}, {"type": "note_off", "time": 86, "note": 76, "velocity": 114, "channel": 0}, {"type": "note_on", "time": 8, "note": 75, "velocity": 111, "channel": 0}, {"type": "note_off", "time": 97, "note": 75, "velocity": 111, "channel": 0}, {"type": "note_on", "time": 8, "note": 73, "velocity": 113, "channel": 0}, {"type": "note_off", "time": 86, "note": 73, "velocity": 113, "channel": 0}, {"type": "note_on", "time": 13, "note": 72, "velocity": 102, "channel": 0}, {"type": "note_off", "time": 83, "note": 72, "velocity": 102, "channel": 0}, {"type": "note_on", "time": 25, "note": 70, "velocity": 108, "channel": 0}, {"type": "note_off", "time": 69, "note": 70, "velocity": 108, "channel": 0}, {"type": "note_on", "time": 11, "note": 69, "velocity": 103, "channel": 0}, {"type": "note_off", "time": 91, "note": 69, "velocity": 103, "channel": 0}, {"type": "note_on", "time": 19, "note": 71, "velocity": 89, "channel": 0}, {"type": "note_off", "time": 80, "note": 71, "velocity": 89, "channel": 0}, {"type": "note_on", "time": 8, "note": 72, "velocity": 105, "channel": 0}, {"type": "note_off", "time": 75, "note": 72, "velocity": 105, "channel": 0}, {"type": "note_on", "time": 30, "note": 77, "velocity": 107, "channel": 0}, {"type": "note_off", "time": 58, "note": 77, "velocity": 107, "channel": 0}, {"type": "note_on", "time": 13, "note": 76, "velocity": 107, "channel": 0}, {"type": "note_off", "time": 100, "note": 76, "velocity": 107, "channel": 0}, {"type": "note_on", "time": 16, "note": 79, "velocity": 103, "channel": 0}, {"type": "note_off", "time": 80, "note": 79, "velocity": 103, "channel": 0}, {"type": "note_on", "time": 11, "note": 76, "velocity": 118, "channel": 0}, {"type": "note_off", "time": 83, "note": 76, "velocity": 118, "channel": 0}, {"type": "note_on", "time": 11, "note": 75, "velocity": 115, "channel": 0}, {"type": "note_off", "time": 102, "note": 75, "velocity": 115, "channel": 0}, {"type": "note_on", "time": 0, "note": 74, "velocity": 111, "channel": 0}, {"type": "note_off", "time": 80, "note": 74, "velocity": 111, "channel": 0}, {"type": "note_on", "time": 13, "note": 73, "velocity": 114, "channel": 0}, {"type": "note_off", "time": 75, "note": 73, "velocity": 114, "channel": 0}, {"type": "note_on", "time": 30, "note": 72, "velocity": 100, "channel": 0}, {"type": "note_off", "time": 86, "note": 72, "velocity": 100, "channel": 0}, {"type": "note_on", "time": 5, "note": 71, "velocity": 107, "channel": 0}, {"type": "note_off", "time": 69, "note": 71, "velocity": 107, "channel": 0}, {"type": "note_on", "time": 30, "note": 69, "velocity": 96, "channel": 0}, {"type": "note_off", "time": 100, "note": 69, "velocity": 96, "channel": 0}, {"type": "note_on", "time": 0, "note": 67, "velocity": 106, "channel": 0}, {"type": "note_off", "time": 83, "note": 67, "velocity": 106, "channel": 0}, {"type": "note_on", "time": 2, "note": 66, "velocity": 94, "channel": 0}, {"type": "note_off", "time": 102, "note": 66, "velocity": 94, "channel": 0}, {"type": "note_on", "time": 13, "note": 64, "velocity": 95, "channel": 0}, {"type": "note_off", "time": 75, "note": 64, "velocity": 95, "channel": 0}, {"type": "note_on", "time": 27, "note": 65, "velocity": 95, "channel": 0}, {"type": "note_off", "time": 83, "note": 65, "velocity": 95, "channel": 0}, {"type": "note_on", "time": 2, "note": 69, "velocity": 107, "channel": 0}, {"type": "note_off", "time": 86, "note": 69, "velocity": 107, "channel": 0}, {"type": "note_on", "time": 11, "note": 72, "velocity": 93, "channel": 0}, {"type": "note_off", "time": 86, "note": 72, "velocity": 93, "channel": 0}, {"type": "note_on", "time": 27, "note": 76, "velocity": 109, "channel": 0}, {"type": "note_off", "time": 63, "note": 76, "velocity": 109, "channel": 0}, {"type": "note_on", "time": 11, "note": 79, "velocity": 113, "channel": 0}, {"type": "note_off", "time": 77, "note": 79, "velocity": 113, "channel": 0}, {"type": "note_on", "time": 16, "note": 78, "velocity": 116, "channel": 0}, {"type": "note_off", "time": 86, "note": 78, "velocity": 116, "channel": 0}, {"type": "note_on", "time": 5, "note": 77, "velocity": 105, "channel": 0}, {"type": "note_off", "time": 72, "note": 77, "velocity": 105, "channel": 0}, {"type": "note_on", "time": 11, "note": 76, "velocity": 109, "channel": 0}, {"type": "note_off", "time": 111, "note": 76, "velocity": 109, "channel": 0}, {"type": "note_on", "time": 8, "note": 74, "velocity": 98, "channel": 0}, {"type": "note_off", "time": 75, "note": 74, "velocity": 98, "channel": 0}, {"type": "note_on", "time": 6, "note": 73, "velocity": 111, "channel": 0}, {"type": "note_off", "time": 120, "note": 73, "velocity": 111, "channel": 0}, {"type": "note_on", "time": 84, "note": 71, "velocity": 105, "channel": 0}, {"type": "note_off", "time": 69, "note": 71, "velocity": 105, "channel": 0}, {"type": "note_on", "time": 38, "note": 70, "velocity": 95, "channel": 0}, {"type": "note_off", "time": 66, "note": 70, "velocity": 95, "channel": 0}, {"type": "note_on", "time": 13, "note": 69, "velocity": 100, "channel": 0}, {"type": "note_off", "time": 58, "note": 69, "velocity": 100, "channel": 0}, {"type": "note_on", "time": 30, "note": 68, "velocity": 102, "channel": 0}, {"type": "note_off", "time": 77, "note": 68, "velocity": 102, "channel": 0}, {"type": "note_on", "time": 222, "note": 72, "velocity": 88, "channel": 0}, {"type": "note_off", "time": 83, "note": 72, "velocity": 88, "channel": 0}, {"type": "note_on", "time": 23, "note": 77, "velocity": 93, "channel": 0}, {"type": "note_off", "time": 58, "note": 77, "velocity": 93, "channel": 0}, {"type": "note_on", "time": 21, "note": 79, "velocity": 111, "channel": 0}, {"type": "note_off", "time": 75, "note": 79, "velocity": 111, "channel": 0}, {"type": "note_on", "time": 19, "note": 77, "velocity": 103, "channel": 0}, {"type": "note_off", "time": 83, "note": 77, "velocity": 103, "channel": 0}, {"type": "note_on", "time": 19, "note": 73, "velocity": 115, "channel": 0}, {"type": "note_off", "time": 75, "note": 73, "velocity": 115, "channel": 0}, {"type": "note_on", "time": 19, "note": 70, "velocity": 106, "channel": 0}, {"type": "note_off", "time": 66, "note": 70, "velocity": 106, "channel": 0}, {"type": "note_on", "time": 19, "note": 67, "velocity": 88, "channel": 0}, {"type": "note_off", "time": 66, "note": 67, "velocity": 88, "channel": 0}, {"type": "note_on", "time": 13, "note": 75, "velocity": 115, "channel": 0}, {"type": "note_off", "time": 111, "note": 75, "velocity": 115, "channel": 0}, {"type": "note_on", "time": 11, "note": 72, "velocity": 109, "channel": 0}, {"type": "note_off", "time": 77, "note": 72, "velocity": 109, "channel": 0}, {"type": "note_on", "time": 19, "note": 67, "velocity": 99, "channel": 0}, {"type": "note_off", "time": 97, "note": 67, "velocity": 99, "channel": 0}, {"type": "note_on", "time": 69, "note": 70, "velocity": 116, "channel": 0}, {"type": "note_off", "time": 94, "note": 70, "velocity": 116, "channel": 0}, {"type": "note_on", "time": 30, "note": 68, "velocity": 108, "channel": 0}, {"type": "note_off", "time": 80, "note": 68, "velocity": 108, "channel": 0}, {"type": "note_on", "time": 25, "note": 65, "velocity": 94, "channel": 0}, {"type": "note_off", "time": 75, "note": 65, "velocity": 94, "channel": 0}, {"type": "note_on", "time": 94, "note": 67, "velocity": 108, "channel": 0}, {"type": "note_off", "time": 77, "note": 67, "velocity": 108, "channel": 0}, {"type": "note_on", "time": 41, "note": 65, "velocity": 110, "channel": 0}, {"type": "note_off", "time": 66, "note": 65, "velocity": 110, "channel": 0}, {"type": "note_on", "time": 16, "note": 64, "velocity": 91, "channel": 0}, {"type": "note_off", "time": 50, "note": 64, "velocity": 91, "channel": 0}, {"type": "note_on", "time": 8, "note": 63, "velocity": 94, "channel": 0}, {"type": "note_off", "time": 100, "note": 63, "velocity": 94, "channel": 0}, {"type": "note_on", "time": 27, "note": 64, "velocity": 105, "channel": 0}, {"type": "note_off", "time": 61, "note": 64, "velocity": 105, "channel": 0}, {"type": "note_on", "time": 11, "note": 66, "velocity": 97, "channel": 0}, {"type": "note_off", "time": 38, "note": 66, "velocity": 97, "channel": 0}, {"type": "note_on", "time": 22, "note": 67, "velocity": 105, "channel": 0}, {"type": "note_off", "time": 66, "note": 67, "velocity": 105, "channel": 0}, {"type": "note_on", "time": 25, "note": 69, "velocity": 108, "channel": 0}, {"type": "note_off", "time": 69, "note": 69, "velocity": 108, "channel": 0}, {"type": "note_on", "time": 30, "note": 71, "velocity": 108, "channel": 0}, {"type": "note_off", "time": 75, "note": 71, "velocity": 108, "channel": 0}, {"type": "note_on", "time": 22, "note": 74, "velocity": 119, "channel": 0}, {"type": "note_off", "time": 105, "note": 74, "velocity": 119, "channel": 0}, {"type": "note_on", "time": 2, "note": 71, "velocity": 103, "channel": 0}, {"type": "note_off", "time": 63, "note": 71, "velocity": 103, "channel": 0}, {"type": "note_on", "time": 19, "note": 74, "velocity": 110, "channel": 0}, {"type": "note_off", "time": 52, "note": 74, "velocity": 110, "channel": 0}, {"type": "note_on", "time": 16, "note": 73, "velocity": 104, "channel": 0}, {"type": "note_off", "time": 50, "note": 73, "velocity": 104, "channel": 0}, {"type": "note_on", "time": 2, "note": 71, "velocity": 110, "channel": 0}, {"type": "note_off", "time": 52, "note": 71, "velocity": 110, "channel": 0}, {"type": "note_on", "time": 38, "note": 72, "velocity": 108, "channel": 0}, {"type": "note_off", "time": 72, "note": 72, "velocity": 108, "channel": 0}, {"type": "note_on", "time": 22, "note": 67, "velocity": 100, "channel": 0}, {"type": "note_off", "time": 108, "note": 67, "velocity": 100, "channel": 0}, {"type": "note_on", "time": 125, "note": 69, "velocity": 115, "channel": 0}, {"type": "note_off", "time": 38, "note": 69, "velocity": 115, "channel": 0}, {"type": "note_on", "time": 13, "note": 70, "velocity": 106, "channel": 0}, {"type": "note_off", "time": 169, "note": 70, "velocity": 106, "channel": 0}, {"type": "note_on", "time": 0, "note": 68, "velocity": 106, "channel": 0}, {"type": "note_off", "time": 108, "note": 68, "velocity": 106, "channel": 0}, {"type": "note_on", "time": 86, "note": 63, "velocity": 101, "channel": 0}, {"type": "note_off", "time": 175, "note": 63, "velocity": 101, "channel": 0}, {"type": "note_on", "time": 895, "note": 70, "velocity": 108, "channel": 0}, {"type": "note_off", "time": 44, "note": 70, "velocity": 108, "channel": 0}, {"type": "note_on", "time": 16, "note": 68, "velocity": 122, "channel": 0}, {"type": "note_off", "time": 66, "note": 68, "velocity": 122, "channel": 0}, {"type": "note_on", "time": 2, "note": 67, "velocity": 119, "channel": 0}, {"type": "note_off", "time": 72, "note": 67, "velocity": 119, "channel": 0}, {"type": "note_on", "time": 8, "note": 65, "velocity": 114, "channel": 0}, {"type": "note_off", "time": 80, "note": 65, "velocity": 114, "channel": 0}, {"type": "note_on", "time": 0, "note": 64, "velocity": 96, "channel": 0}, {"type": "note_off", "time": 89, "note": 64, "velocity": 96, "channel": 0}, {"type": "note_on", "time": 19, "note": 63, "velocity": 95, "channel": 0}, {"type": "note_off", "time": 61, "note": 63, "velocity": 95, "channel": 0}, {"type": "note_on", "time": 38, "note": 64, "velocity": 104, "channel": 0}, {"type": "note_off", "time": 80, "note": 64, "velocity": 104, "channel": 0}, {"type": "note_on", "time": 0, "note": 69, "velocity": 101, "channel": 0}, {"type": "note_off", "time": 44, "note": 69, "velocity": 101, "channel": 0}, {"type": "note_on", "time": 5, "note": 67, "velocity": 104, "channel": 0}, {"type": "note_off", "time": 80, "note": 67, "velocity": 104, "channel": 0}, {"type": "note_on", "time": 0, "note": 69, "velocity": 106, "channel": 0}, {"type": "note_off", "time": 77, "note": 69, "velocity": 106, "channel": 0}, {"type": "note_on", "time": 5, "note": 71, "velocity": 100, "channel": 0}, {"type": "note_off", "time": 80, "note": 71, "velocity": 100, "channel": 0}, {"type": "note_on", "time": 0, "note": 74, "velocity": 121, "channel": 0}, {"type": "note_off", "time": 114, "note": 74, "velocity": 121, "channel": 0}, {"type": "note_on", "time": 2, "note": 71, "velocity": 105, "channel": 0}, {"type": "note_off", "time": 66, "note": 71, "velocity": 105, "channel": 0}, {"type": "note_on", "time": 2, "note": 73, "velocity": 121, "channel": 0}, {"type": "note_off", "time": 111, "note": 73, "velocity": 121, "channel": 0}, {"type": "note_on", "time": 13, "note": 71, "velocity": 94, "channel": 0}, {"type": "note_off", "time": 83, "note": 71, "velocity": 94, "channel": 0}, {"type": "note_on", "time": 13, "note": 72, "velocity": 110, "channel": 0}, {"type": "note_off", "time": 89, "note": 72, "velocity": 110, "channel": 0}, {"type": "note_on", "time": 11, "note": 67, "velocity": 108, "channel": 0}, {"type": "note_off", "time": 114, "note": 67, "velocity": 108, "channel": 0}, {"type": "note_on", "time": 297, "note": 71, "velocity": 113, "channel": 0}, {"type": "note_off", "time": 50, "note": 71, "velocity": 113, "channel": 0}, {"type": "note_on", "time": 25, "note": 74, "velocity": 111, "channel": 0}, {"type": "note_off", "time": 71, "note": 74, "velocity": 111, "channel": 0}, {"type": "note_on", "time": 3, "note": 76, "velocity": 111, "channel": 0}, {"type": "note_off", "time": 30, "note": 76, "velocity": 111, "channel": 0}, {"type": "note_on", "time": 3, "note": 78, "velocity": 98, "channel": 0}, {"type": "note_off", "time": 22, "note": 78, "velocity": 98, "channel": 0}, {"type": "note_on", "time": 5, "note": 81, "velocity": 124, "channel": 0}, {"type": "note_off", "time": 61, "note": 81, "velocity": 124, "channel": 0}, {"type": "note_on", "time": 13, "note": 80, "velocity": 117, "channel": 0}, {"type": "note_off", "time": 105, "note": 80, "velocity": 117, "channel": 0}, {"type": "note_on", "time": 116, "note": 69, "velocity": 116, "channel": 0}, {"type": "note_off", "time": 72, "note": 69, "velocity": 116, "channel": 0}, {"type": "note_on", "time": 11, "note": 70, "velocity": 110, "channel": 0}, {"type": "note_off", "time": 247, "note": 70, "velocity": 110, "channel": 0}, {"type": "note_on", "time": 69, "note": 80, "velocity": 121, "channel": 0}, {"type": "note_off", "time": 114, "note": 80, "velocity": 121, "channel": 0}, {"type": "note_on", "time": 0, "note": 79, "velocity": 112, "channel": 0}, {"type": "note_off", "time": 89, "note": 79, "velocity": 112, "channel": 0}, {"type": "note_on", "time": 5, "note": 77, "velocity": 123, "channel": 0}, {"type": "note_off", "time": 100, "note": 77, "velocity": 123, "channel": 0}, {"type": "note_on", "time": 13, "note": 78, "velocity": 115, "channel": 0}, {"type": "note_off", "time": 61, "note": 78, "velocity": 115, "channel": 0}, {"type": "note_on", "time": 8, "note": 76, "velocity": 121, "channel": 0}, {"type": "note_off", "time": 94, "note": 76, "velocity": 121, "channel": 0}, {"type": "note_on", "time": 13, "note": 75, "velocity": 108, "channel": 0}, {"type": "note_off", "time": 89, "note": 75, "velocity": 108, "channel": 0}, {"type": "note_on", "time": 13, "note": 73, "velocity": 117, "channel": 0}, {"type": "note_off", "time": 75, "note": 73, "velocity": 117, "channel": 0}, {"type": "note_on", "time": 13, "note": 70, "velocity": 104, "channel": 0}, {"type": "note_off", "time": 80, "note": 70, "velocity": 104, "channel": 0}, {"type": "note_on", "time": 2, "note": 71, "velocity": 94, "channel": 0}, {"type": "note_off", "time": 75, "note": 71, "velocity": 94, "channel": 0}, {"type": "note_on", "time": 13, "note": 72, "velocity": 89, "channel": 0}, {"type": "note_off", "time": 89, "note": 72, "velocity": 89, "channel": 0}, {"type": "note_on", "time": 50, "note": 63, "velocity": 95, "channel": 0}, {"type": "note_off", "time": 77, "note": 63, "velocity": 95, "channel": 0}, {"type": "note_on", "time": 8, "note": 65, "velocity": 94, "channel": 0}, {"type": "note_off", "time": 91, "note": 65, "velocity": 94, "channel": 0}, {"type": "note_on", "time": 27, "note": 67, "velocity": 94, "channel": 0}, {"type": "note_off", "time": 52, "note": 67, "velocity": 94, "channel": 0}, {"type": "note_on", "time": 16, "note": 70, "velocity": 104, "channel": 0}, {"type": "note_on", "time": 94, "note": 67, "velocity": 94, "channel": 0}, {"type": "note_off", "time": 0, "note": 70, "velocity": 104, "channel": 0}, {"type": "note_off", "time": 94, "note": 67, "velocity": 94, "channel": 0}, {"type": "note_on", "time": 0, "note": 68, "velocity": 89, "channel": 0}, {"type": "note_off", "time": 80, "note": 68, "velocity": 89, "channel": 0}, {"type": "note_on", "time": 16, "note": 70, "velocity": 115, "channel": 0}, {"type": "note_off", "time": 94, "note": 70, "velocity": 115, "channel": 0}, {"type": "note_on", "time": 0, "note": 71, "velocity": 87, "channel": 0}, {"type": "note_off", "time": 77, "note": 71, "velocity": 87, "channel": 0}, {"type": "note_on", "time": 13, "note": 73, "velocity": 91, "channel": 0}, {"type": "note_off", "time": 72, "note": 73, "velocity": 91, "channel": 0}, {"type": "note_on", "time": 0, "note": 75, "velocity": 111, "channel": 0}, {"type": "note_off", "time": 116, "note": 75, "velocity": 111, "channel": 0}, {"type": "note_on", "time": 8, "note": 73, "velocity": 98, "channel": 0}, {"type": "note_off", "time": 69, "note": 73, "velocity": 98, "channel": 0}, {"type": "note_on", "time": 19, "note": 74, "velocity": 113, "channel": 0}, {"type": "note_off", "time": 100, "note": 74, "velocity": 113, "channel": 0}, {"type": "note_on", "time": 0, "note": 71, "velocity": 98, "channel": 0}, {"type": "note_off", "time": 63, "note": 71, "velocity": 98, "channel": 0}, {"type": "note_on", "time": 11, "note": 72, "velocity": 104, "channel": 0}, {"type": "note_off", "time": 102, "note": 72, "velocity": 104, "channel": 0}, {"type": "note_on", "time": 8, "note": 70, "velocity": 114, "channel": 0}, {"type": "note_off", "time": 61, "note": 70, "velocity": 114, "channel": 0}, {"type": "note_on", "time": 30, "note": 71, "velocity": 103, "channel": 0}, {"type": "note_off", "time": 83, "note": 71, "velocity": 103, "channel": 0}, {"type": "note_on", "time": 27, "note": 68, "velocity": 104, "channel": 0}, {"type": "note_off", "time": 69, "note": 68, "velocity": 104, "channel": 0}, {"type": "note_on", "time": 11, "note": 69, "velocity": 100, "channel": 0}, {"type": "note_off", "time": 94, "note": 69, "velocity": 100, "channel": 0}, {"type": "note_on", "time": 453, "note": 76, "velocity": 118, "channel": 0}, {"type": "note_off", "time": 69, "note": 76, "velocity": 118, "channel": 0}, {"type": "note_on", "time": 16, "note": 74, "velocity": 108, "channel": 0}, {"type": "note_off", "time": 41, "note": 74, "velocity": 108, "channel": 0}, {"type": "note_on", "time": 0, "note": 71, "velocity": 104, "channel": 0}, {"type": "note_off", "time": 52, "note": 71, "velocity": 104, "channel": 0}, {"type": "note_on", "time": 22, "note": 69, "velocity": 102, "channel": 0}, {"type": "note_off", "time": 72, "note": 69, "velocity": 102, "channel": 0}, {"type": "note_on", "time": 41, "note": 65, "velocity": 110, "channel": 0}, {"type": "note_off", "time": 66, "note": 65, "velocity": 110, "channel": 0}, {"type": "note_on", "time": 8, "note": 62, "velocity": 90, "channel": 0}, {"type": "note_off", "time": 72, "note": 62, "velocity": 90, "channel": 0}, {"type": "note_on", "time": 13, "note": 64, "velocity": 98, "channel": 0}, {"type": "note_off", "time": 91, "note": 64, "velocity": 98, "channel": 0}, {"type": "note_on", "time": 5, "note": 65, "velocity": 110, "channel": 0}, {"type": "note_off", "time": 100, "note": 65, "velocity": 110, "channel": 0}, {"type": "note_on", "time": 19, "note": 67, "velocity": 99, "channel": 0}, {"type": "note_off", "time": 72, "note": 67, "velocity": 99, "channel": 0}, {"type": "note_on", "time": 5, "note": 69, "velocity": 113, "channel": 0}, {"type": "note_off", "time": 89, "note": 69, "velocity": 113, "channel": 0}, {"type": "note_on", "time": 83, "note": 76, "velocity": 117, "channel": 0}, {"type": "note_off", "time": 141, "note": 76, "velocity": 117, "channel": 0}, {"type": "note_on", "time": 11, "note": 74, "velocity": 111, "channel": 0}, {"type": "note_off", "time": 258, "note": 74, "velocity": 111, "channel": 0}, {"type": "note_on", "time": 41, "note": 72, "velocity": 112, "channel": 0}, {"type": "note_off", "time": 47, "note": 72, "velocity": 112, "channel": 0}, {"type": "note_on", "time": 8, "note": 74, "velocity": 95, "channel": 0}, {"type": "note_on", "time": 55, "note": 72, "velocity": 112, "channel": 0}, {"type": "note_off", "time": 0, "note": 74, "velocity": 95, "channel": 0}, {"type": "note_off", "time": 69, "note": 72, "velocity": 112, "channel": 0}, {"type": "note_on", "time": 5, "note": 71, "velocity": 112, "channel": 0}, {"type": "note_off", "time": 66, "note": 71, "velocity": 112, "channel": 0}, {"type": "note_on", "time": 19, "note": 68, "velocity": 113, "channel": 0}, {"type": "note_off", "time": 75, "note": 68, "velocity": 113, "channel": 0}, {"type": "note_on", "time": 11, "note": 67, "velocity": 104, "channel": 0}, {"type": "note_off", "time": 77, "note": 67, "velocity": 104, "channel": 0}, {"type": "note_on", "time": 0, "note": 65, "velocity": 110, "channel": 0}, {"type": "note_off", "time": 100, "note": 65, "velocity": 110, "channel": 0}, {"type": "note_on", "time": 30, "note": 64, "velocity": 108, "channel": 0}, {"type": "note_off", "time": 86, "note": 64, "velocity": 108, "channel": 0}, {"type": "note_on", "time": 50, "note": 64, "velocity": 102, "channel": 0}, {"type": "note_off", "time": 242, "note": 64, "velocity": 102, "channel": 0}, {"type": "note_on", "time": 1032, "note": 62, "velocity": 117, "channel": 0}, {"type": "note_off", "time": 58, "note": 62, "velocity": 117, "channel": 0}, {"type": "note_on", "time": 11, "note": 64, "velocity": 118, "channel": 0}, {"type": "note_off", "time": 153, "note": 64, "velocity": 118, "channel": 0}, {"type": "note_on", "time": 16, "note": 67, "velocity": 116, "channel": 0}, {"type": "note_off", "time": 127, "note": 67, "velocity": 116, "channel": 0}, {"type": "note_on", "time": 13, "note": 71, "velocity": 120, "channel": 0}, {"type": "note_off", "time": 141, "note": 71, "velocity": 120, "channel": 0}, {"type": "note_on", "time": 22, "note": 74, "velocity": 120, "channel": 0}, {"type": "note_off", "time": 122, "note": 74, "velocity": 120, "channel": 0}, {"type": "note_on", "time": 41, "note": 73, "velocity": 118, "channel": 0}, {"type": "note_off", "time": 97, "note": 73, "velocity": 118, "channel": 0}, {"type": "note_on", "time": 22, "note": 72, "velocity": 113, "channel": 0}, {"type": "note_off", "time": 130, "note": 72, "velocity": 113, "channel": 0}, {"type": "note_on", "time": 44, "note": 64, "velocity": 102, "channel": 0}, {"type": "note_off", "time": 153, "note": 64, "velocity": 102, "channel": 0}, {"type": "note_on", "time": 219, "note": 69, "velocity": 116, "channel": 0}, {"type": "note_off", "time": 58, "note": 69, "velocity": 116, "channel": 0}, {"type": "note_on", "time": 0, "note": 70, "velocity": 108, "channel": 0}, {"type": "note_off", "time": 144, "note": 70, "velocity": 108, "channel": 0}, {"type": "note_on", "time": 16, "note": 65, "velocity": 97, "channel": 0}, {"type": "note_off", "time": 344, "note": 65, "velocity": 97, "channel": 0}, {"type": "note_on", "time": 97, "note": 67, "velocity": 107, "channel": 0}, {"type": "note_off", "time": 94, "note": 67, "velocity": 107, "channel": 0}, {"type": "note_on", "time": 33, "note": 70, "velocity": 110, "channel": 0}, {"type": "note_off", "time": 130, "note": 70, "velocity": 110, "channel": 0}, {"type": "note_on", "time": 13, "note": 68, "velocity": 107, "channel": 0}, {"type": "note_off", "time": 97, "note": 68, "velocity": 107, "channel": 0}, {"type": "note_on", "time": 272, "note": 69, "velocity": 104, "channel": 0}, {"type": "note_off", "time": 80, "note": 69, "velocity": 104, "channel": 0}, {"type": "note_on", "time": 8, "note": 68, "velocity": 101, "channel": 0}, {"type": "note_off", "time": 86, "note": 68, "velocity": 101, "channel": 0}, {"type": "note_on", "time": 25, "note": 72, "velocity": 108, "channel": 0}, {"type": "note_off", "time": 75, "note": 72, "velocity": 108, "channel": 0}, {"type": "note_on", "time": 19, "note": 67, "velocity": 100, "channel": 0}, {"type": "note_off", "time": 80, "note": 67, "velocity": 100, "channel": 0}, {"type": "note_on", "time": 13, "note": 65, "velocity": 99, "channel": 0}, {"type": "note_off", "time": 77, "note": 65, "velocity": 99, "channel": 0}, {"type": "note_on", "time": 25, "note": 64, "velocity": 92, "channel": 0}, {"type": "note_off", "time": 41, "note": 64, "velocity": 92, "channel": 0}, {"type": "note_on", "time": 55, "note": 67, "velocity": 96, "channel": 0}, {"type": "note_off", "time": 83, "note": 67, "velocity": 96, "channel": 0}, {"type": "note_on", "time": 19, "note": 69, "velocity": 100, "channel": 0}, {"type": "note_off", "time": 58, "note": 69, "velocity": 100, "channel": 0}, {"type": "note_on", "time": 13, "note": 71, "velocity": 93, "channel": 0}, {"type": "note_off", "time": 38, "note": 71, "velocity": 93, "channel": 0}, {"type": "note_on", "time": 16, "note": 74, "velocity": 99, "channel": 0}, {"type": "note_off", "time": 97, "note": 74, "velocity": 99, "channel": 0}, {"type": "note_on", "time": 33, "note": 71, "velocity": 94, "channel": 0}, {"type": "note_off", "time": 58, "note": 71, "velocity": 94, "channel": 0}, {"type": "note_on", "time": 13, "note": 72, "velocity": 97, "channel": 0}, {"type": "note_off", "time": 69, "note": 72, "velocity": 97, "channel": 0}, {"type": "note_on", "time": 38, "note": 74, "velocity": 112, "channel": 0}, {"type": "note_off", "time": 72, "note": 74, "velocity": 112, "channel": 0}, {"type": "note_on", "time": 8, "note": 76, "velocity": 112, "channel": 0}, {"type": "note_off", "time": 83, "note": 76, "velocity": 112, "channel": 0}, {"type": "note_on", "time": 47, "note": 67, "velocity": 108, "channel": 0}, {"type": "note_off", "time": 94, "note": 67, "velocity": 108, "channel": 0}, {"type": "note_on", "time": 534, "note": 78, "velocity": 115, "channel": 0}, {"type": "note_off", "time": 161, "note": 78, "velocity": 115, "channel": 0}, {"type": "note_on", "time": 0, "note": 76, "velocity": 108, "channel": 0}, {"type": "note_off", "time": 122, "note": 76, "velocity": 108, "channel": 0}, {"type": "note_on", "time": 16, "note": 73, "velocity": 109, "channel": 0}, {"type": "note_off", "time": 141, "note": 73, "velocity": 109, "channel": 0}, {"type": "note_on", "time": 620, "note": 76, "velocity": 114, "channel": 0}, {"type": "note_off", "time": 55, "note": 76, "velocity": 114, "channel": 0}, {"type": "note_on", "time": 13, "note": 77, "velocity": 106, "channel": 0}, {"type": "note_off", "time": 80, "note": 77, "velocity": 106, "channel": 0}, {"type": "note_on", "time": 44, "note": 76, "velocity": 113, "channel": 0}, {"type": "note_off", "time": 80, "note": 76, "velocity": 113, "channel": 0}, {"type": "note_on", "time": 108, "note": 74, "velocity": 113, "channel": 0}, {"type": "note_off", "time": 80, "note": 74, "velocity": 113, "channel": 0}, {"type": "note_on", "time": 0, "note": 75, "velocity": 105, "channel": 0}, {"type": "note_off", "time": 108, "note": 75, "velocity": 105, "channel": 0}, {"type": "note_on", "time": 13, "note": 67, "velocity": 86, "channel": 0}, {"type": "note_off", "time": 83, "note": 67, "velocity": 86, "channel": 0}, {"type": "note_on", "time": 5, "note": 68, "velocity": 97, "channel": 0}, {"type": "note_off", "time": 77, "note": 68, "velocity": 97, "channel": 0}, {"type": "note_on", "time": 19, "note": 73, "velocity": 110, "channel": 0}, {"type": "note_off", "time": 86, "note": 73, "velocity": 110, "channel": 0}, {"type": "note_on", "time": 2, "note": 72, "velocity": 101, "channel": 0}, {"type": "note_off", "time": 89, "note": 72, "velocity": 101, "channel": 0}, {"type": "note_on", "time": 22, "note": 68, "velocity": 103, "channel": 0}, {"type": "note_off", "time": 61, "note": 68, "velocity": 103, "channel": 0}, {"type": "note_on", "time": 0, "note": 64, "velocity": 95, "channel": 0}, {"type": "note_off", "time": 83, "note": 64, "velocity": 95, "channel": 0}, {"type": "note_on", "time": 164, "note": 63, "velocity": 85, "channel": 0}, {"type": "note_off", "time": 75, "note": 63, "velocity": 85, "channel": 0}, {"type": "note_on", "time": 11, "note": 65, "velocity": 92, "channel": 0}, {"type": "note_off", "time": 75, "note": 65, "velocity": 92, "channel": 0}, {"type": "note_on", "time": 8, "note": 67, "velocity": 91, "channel": 0}, {"type": "note_off", "time": 52, "note": 67, "velocity": 91, "channel": 0}, {"type": "note_on", "time": 25, "note": 68, "velocity": 86, "channel": 0}, {"type": "note_off", "time": 75, "note": 68, "velocity": 86, "channel": 0}, {"type": "note_on", "time": 25, "note": 70, "velocity": 106, "channel": 0}, {"type": "note_off", "time": 86, "note": 70, "velocity": 106, "channel": 0}, {"type": "note_on", "time": 13, "note": 67, "velocity": 91, "channel": 0}, {"type": "note_off", "time": 58, "note": 67, "velocity": 91, "channel": 0}, {"type": "note_on", "time": 8, "note": 68, "velocity": 103, "channel": 0}, {"type": "note_off", "time": 97, "note": 68, "velocity": 103, "channel": 0}, {"type": "note_on", "time": 16, "note": 70, "velocity": 114, "channel": 0}, {"type": "note_off", "time": 94, "note": 70, "velocity": 114, "channel": 0}, {"type": "note_on", "time": 0, "note": 69, "velocity": 107, "channel": 0}, {"type": "note_off", "time": 80, "note": 69, "velocity": 107, "channel": 0}, {"type": "note_on", "time": 22, "note": 71, "velocity": 101, "channel": 0}, {"type": "note_off", "time": 80, "note": 71, "velocity": 101, "channel": 0}, {"type": "note_on", "time": 11, "note": 72, "velocity": 113, "channel": 0}, {"type": "note_off", "time": 58, "note": 72, "velocity": 113, "channel": 0}, {"type": "note_on", "time": 16, "note": 74, "velocity": 116, "channel": 0}, {"type": "note_off", "time": 66, "note": 74, "velocity": 116, "channel": 0}, {"type": "note_on", "time": 41, "note": 76, "velocity": 116, "channel": 0}, {"type": "note_off", "time": 86, "note": 76, "velocity": 116, "channel": 0}, {"type": "note_on", "time": 8, "note": 72, "velocity": 110, "channel": 0}, {"type": "note_off", "time": 83, "note": 72, "velocity": 110, "channel": 0}, {"type": "note_on", "time": 0, "note": 69, "velocity": 100, "channel": 0}, {"type": "note_off", "time": 94, "note": 69, "velocity": 100, "channel": 0}, {"type": "note_on", "time": 141, "note": 68, "velocity": 104, "channel": 0}, {"type": "note_off", "time": 86, "note": 68, "velocity": 104, "channel": 0}, {"type": "note_on", "time": 0, "note": 64, "velocity": 93, "channel": 0}, {"type": "note_off", "time": 44, "note": 64, "velocity": 93, "channel": 0}, {"type": "note_on", "time": 25, "note": 67, "velocity": 102, "channel": 0}, {"type": "note_off", "time": 83, "note": 67, "velocity": 102, "channel": 0}, {"type": "note_on", "time": 33, "note": 67, "velocity": 104, "channel": 0}, {"type": "note_off", "time": 41, "note": 67, "velocity": 104, "channel": 0}, {"type": "note_on", "time": 33, "note": 66, "velocity": 94, "channel": 0}, {"type": "note_off", "time": 80, "note": 66, "velocity": 94, "channel": 0}, {"type": "note_on", "time": 22, "note": 64, "velocity": 99, "channel": 0}, {"type": "note_off", "time": 66, "note": 64, "velocity": 99, "channel": 0}, {"type": "note_on", "time": 8, "note": 63, "velocity": 98, "channel": 0}, {"type": "note_off", "time": 111, "note": 63, "velocity": 98, "channel": 0}, {"type": "note_on", "time": 0, "note": 61, "velocity": 81, "channel": 0}, {"type": "note_off", "time": 69, "note": 61, "velocity": 81, "channel": 0}, {"type": "note_on", "time": 11, "note": 62, "velocity": 92, "channel": 0}, {"type": "note_off", "time": 66, "note": 62, "velocity": 92, "channel": 0}, {"type": "note_on", "time": 22, "note": 64, "velocity": 97, "channel": 0}, {"type": "note_off", "time": 89, "note": 64, "velocity": 97, "channel": 0}, {"type": "note_on", "time": 33, "note": 65, "velocity": 98, "channel": 0}, {"type": "note_off", "time": 72, "note": 65, "velocity": 98, "channel": 0}, {"type": "note_on", "time": 19, "note": 67, "velocity": 93, "channel": 0}, {"type": "note_off", "time": 55, "note": 67, "velocity": 93, "channel": 0}, {"type": "note_on", "time": 0, "note": 69, "velocity": 102, "channel": 0}, {"type": "note_off", "time": 86, "note": 69, "velocity": 102, "channel": 0}, {"type": "note_on", "time": 44, "note": 72, "velocity": 105, "channel": 0}, {"type": "note_on", "time": 61, "note": 76, "velocity": 113, "channel": 0}, {"type": "note_off", "time": 0, "note": 72, "velocity": 105, "channel": 0}, {"type": "note_off", "time": 125, "note": 76, "velocity": 113, "channel": 0}, {"type": "note_on", "time": 5, "note": 74, "velocity": 110, "channel": 0}, {"type": "note_off", "time": 108, "note": 74, "velocity": 110, "channel": 0}, {"type": "note_on", "time": 72, "note": 74, "velocity": 105, "channel": 0}, {"type": "note_off", "time": 50, "note": 74, "velocity": 105, "channel": 0}, {"type": "note_on", "time": 8, "note": 72, "velocity": 110, "channel": 0}, {"type": "note_off", "time": 44, "note": 72, "velocity": 110, "channel": 0}, {"type": "note_on", "time": 13, "note": 71, "velocity": 103, "channel": 0}, {"type": "note_off", "time": 55, "note": 71, "velocity": 103, "channel": 0}, {"type": "note_on", "time": 19, "note": 73, "velocity": 108, "channel": 0}, {"type": "note_off", "time": 83, "note": 73, "velocity": 108, "channel": 0}, {"type": "note_on", "time": 16, "note": 70, "velocity": 104, "channel": 0}, {"type": "note_off", "time": 66, "note": 70, "velocity": 104, "channel": 0}, {"type": "note_on", "time": 25, "note": 68, "velocity": 105, "channel": 0}, {"type": "note_off", "time": 75, "note": 68, "velocity": 105, "channel": 0}, {"type": "note_on", "time": 30, "note": 65, "velocity": 85, "channel": 0}, {"type": "note_off", "time": 63, "note": 65, "velocity": 85, "channel": 0}, {"type": "note_on", "time": 5, "note": 66, "velocity": 88, "channel": 0}, {"type": "note_off", "time": 77, "note": 66, "velocity": 88, "channel": 0}, {"type": "note_on", "time": 8, "note": 67, "velocity": 90, "channel": 0}, {"type": "note_off", "time": 58, "note": 67, "velocity": 90, "channel": 0}, {"type": "note_on", "time": 1377, "note": 70, "velocity": 88, "channel": 0}, {"type": "note_off", "time": 33, "note": 70, "velocity": 88, "channel": 0}, {"type": "note_on", "time": 27, "note": 72, "velocity": 87, "channel": 0}, {"type": "note_off", "time": 52, "note": 72, "velocity": 87, "channel": 0}, {"type": "note_on", "time": 50, "note": 74, "velocity": 107, "channel": 0}, {"type": "note_off", "time": 61, "note": 74, "velocity": 107, "channel": 0}, {"type": "note_on", "time": 58, "note": 72, "velocity": 114, "channel": 0}, {"type": "note_off", "time": 63, "note": 72, "velocity": 114, "channel": 0}, {"type": "note_on", "time": 225, "note": 70, "velocity": 87, "channel": 0}, {"type": "note_off", "time": 27, "note": 70, "velocity": 87, "channel": 0}, {"type": "note_on", "time": 11, "note": 69, "velocity": 93, "channel": 0}, {"type": "note_off", "time": 83, "note": 69, "velocity": 93, "channel": 0}, {"type": "note_on", "time": 25, "note": 74, "velocity": 116, "channel": 0}, {"type": "note_off", "time": 139, "note": 74, "velocity": 116, "channel": 0}, {"type": "note_on", "time": 2, "note": 72, "velocity": 111, "channel": 0}, {"type": "note_off", "time": 108, "note": 72, "velocity": 111, "channel": 0}, {"type": "note_on", "time": 125, "note": 67, "velocity": 82, "channel": 0}, {"type": "note_off", "time": 33, "note": 67, "velocity": 82, "channel": 0}, {"type": "note_on", "time": 25, "note": 69, "velocity": 102, "channel": 0}, {"type": "note_off", "time": 38, "note": 69, "velocity": 102, "channel": 0}, {"type": "note_on", "time": 16, "note": 71, "velocity": 95, "channel": 0}, {"type": "note_off", "time": 22, "note": 71, "velocity": 95, "channel": 0}, {"type": "note_on", "time": 25, "note": 72, "velocity": 107, "channel": 0}, {"type": "note_off", "time": 36, "note": 72, "velocity": 107, "channel": 0}, {"type": "note_on", "time": 33, "note": 74, "velocity": 118, "channel": 0}, {"type": "note_off", "time": 122, "note": 74, "velocity": 118, "channel": 0}, {"type": "note_on", "time": 8, "note": 72, "velocity": 111, "channel": 0}, {"type": "note_off", "time": 61, "note": 72, "velocity": 111, "channel": 0}, {"type": "note_on", "time": 114, "note": 70, "velocity": 110, "channel": 0}, {"type": "note_off", "time": 108, "note": 70, "velocity": 110, "channel": 0}, {"type": "note_on", "time": 66, "note": 69, "velocity": 108, "channel": 0}, {"type": "note_off", "time": 94, "note": 69, "velocity": 108, "channel": 0}, {"type": "note_on", "time": 122, "note": 68, "velocity": 111, "channel": 0}, {"type": "note_off", "time": 91, "note": 68, "velocity": 111, "channel": 0}, {"type": "note_on", "time": 97, "note": 64, "velocity": 91, "channel": 0}, {"type": "note_off", "time": 55, "note": 64, "velocity": 91, "channel": 0}, {"type": "note_on", "time": 13, "note": 67, "velocity": 109, "channel": 0}, {"type": "note_off", "time": 102, "note": 67, "velocity": 109, "channel": 0}, {"type": "note_on", "time": 33, "note": 65, "velocity": 97, "channel": 0}, {"type": "note_off", "time": 222, "note": 65, "velocity": 97, "channel": 0}, {"type": "note_on", "time": 30, "note": 63, "velocity": 100, "channel": 0}, {"type": "note_off", "time": 63, "note": 63, "velocity": 100, "channel": 0}, {"type": "note_on", "time": 11, "note": 65, "velocity": 91, "channel": 0}, {"type": "note_off", "time": 47, "note": 65, "velocity": 91, "channel": 0}, {"type": "note_on", "time": 0, "note": 63, "velocity": 101, "channel": 0}, {"type": "note_off", "time": 36, "note": 63, "velocity": 101, "channel": 0}, {"type": "note_on", "time": 16, "note": 62, "velocity": 89, "channel": 0}, {"type": "note_off", "time": 116, "note": 62, "velocity": 89, "channel": 0}, {"type": "note_on", "time": 39, "note": 60, "velocity": 93, "channel": 0}, {"type": "note_off", "time": 59, "note": 60, "velocity": 93, "channel": 0}, {"type": "note_on", "time": 13, "note": 58, "velocity": 81, "channel": 0}, {"type": "note_off", "time": 92, "note": 58, "velocity": 81, "channel": 0}, {"type": "note_on", "time": 13, "note": 56, "velocity": 90, "channel": 0}, {"type": "note_off", "time": 65, "note": 56, "velocity": 90, "channel": 0}, {"type": "note_on", "time": 0, "note": 55, "velocity": 100, "channel": 0}, {"type": "note_off", "time": 69, "note": 55, "velocity": 100, "channel": 0}, {"type": "note_on", "time": 45, "note": 57, "velocity": 91, "channel": 0}, {"type": "note_off", "time": 75, "note": 57, "velocity": 91, "channel": 0}, {"type": "note_on", "time": 227, "note": 63, "velocity": 99, "channel": 0}, {"type": "note_off", "time": 45, "note": 63, "velocity": 99, "channel": 0}, {"type": "note_on", "time": 9, "note": 62, "velocity": 89, "channel": 0}, {"type": "note_off", "time": 31, "note": 62, "velocity": 89, "channel": 0}, {"type": "note_on", "time": 7, "note": 61, "velocity": 80, "channel": 0}, {"type": "note_off", "time": 27, "note": 61, "velocity": 80, "channel": 0}, {"type": "note_on", "time": 47, "note": 60, "velocity": 98, "channel": 0}, {"type": "note_off", "time": 67, "note": 60, "velocity": 98, "channel": 0}, {"type": "note_on", "time": 9, "note": 62, "velocity": 98, "channel": 0}, {"type": "note_off", "time": 63, "note": 62, "velocity": 98, "channel": 0}, {"type": "note_on", "time": 42, "note": 64, "velocity": 114, "channel": 0}, {"type": "note_off", "time": 102, "note": 64, "velocity": 114, "channel": 0}, {"type": "note_on", "time": 8, "note": 67, "velocity": 117, "channel": 0}, {"type": "note_off", "time": 200, "note": 67, "velocity": 117, "channel": 0}, {"type": "note_on", "time": 1969, "note": 75, "velocity": 85, "channel": 0}, {"type": "note_off", "time": 97, "note": 75, "velocity": 85, "channel": 0}, {"type": "note_on", "time": 44, "note": 77, "velocity": 95, "channel": 0}, {"type": "note_off", "time": 69, "note": 77, "velocity": 95, "channel": 0}, {"type": "note_on", "time": 44, "note": 75, "velocity": 90, "channel": 0}, {"type": "note_off", "time": 83, "note": 75, "velocity": 90, "channel": 0}, {"type": "note_on", "time": 25, "note": 72, "velocity": 86, "channel": 0}, {"type": "note_off", "time": 97, "note": 72, "velocity": 86, "channel": 0}, {"type": "note_on", "time": 66, "note": 72, "velocity": 96, "channel": 0}, {"type": "note_off", "time": 105, "note": 72, "velocity": 96, "channel": 0}, {"type": "note_on", "time": 77, "note": 72, "velocity": 101, "channel": 0}, {"type": "note_off", "time": 38, "note": 72, "velocity": 101, "channel": 0}, {"type": "note_on", "time": 8, "note": 74, "velocity": 103, "channel": 0}, {"type": "note_off", "time": 36, "note": 74, "velocity": 103, "channel": 0}, {"type": "note_on", "time": 13, "note": 72, "velocity": 107, "channel": 0}, {"type": "note_off", "time": 47, "note": 72, "velocity": 107, "channel": 0}, {"type": "note_on", "time": 2, "note": 71, "velocity": 105, "channel": 0}, {"type": "note_off", "time": 58, "note": 71, "velocity": 105, "channel": 0}, {"type": "note_on", "time": 8, "note": 72, "velocity": 98, "channel": 0}, {"type": "note_off", "time": 50, "note": 72, "velocity": 98, "channel": 0}, {"type": "note_on", "time": 33, "note": 73, "velocity": 109, "channel": 0}, {"type": "note_off", "time": 75, "note": 73, "velocity": 109, "channel": 0}, {"type": "note_on", "time": 11, "note": 72, "velocity": 102, "channel": 0}, {"type": "note_off", "time": 77, "note": 72, "velocity": 102, "channel": 0}, {"type": "note_on", "time": 33, "note": 71, "velocity": 111, "channel": 0}, {"type": "note_off", "time": 61, "note": 71, "velocity": 111, "channel": 0}, {"type": "note_on", "time": 2, "note": 70, "velocity": 102, "channel": 0}, {"type": "note_off", "time": 77, "note": 70, "velocity": 102, "channel": 0}, {"type": "note_on", "time": 19, "note": 68, "velocity": 94, "channel": 0}, {"type": "note_off", "time": 77, "note": 68, "velocity": 94, "channel": 0}, {"type": "note_on", "time": 8, "note": 69, "velocity": 98, "channel": 0}, {"type": "note_off", "time": 108, "note": 69, "velocity": 98, "channel": 0}, {"type": "note_on", "time": 33, "note": 71, "velocity": 110, "channel": 0}, {"type": "note_off", "time": 58, "note": 71, "velocity": 110, "channel": 0}, {"type": "note_on", "time": 5, "note": 72, "velocity": 104, "channel": 0}, {"type": "note_off", "time": 89, "note": 72, "velocity": 104, "channel": 0}, {"type": "note_on", "time": 22, "note": 74, "velocity": 92, "channel": 0}, {"type": "note_off", "time": 77, "note": 74, "velocity": 92, "channel": 0}, {"type": "note_on", "time": 2, "note": 76, "velocity": 116, "channel": 0}, {"type": "note_off", "time": 91, "note": 76, "velocity": 116, "channel": 0}, {"type": "note_on", "time": 30, "note": 79, "velocity": 117, "channel": 0}, {"type": "note_off", "time": 52, "note": 79, "velocity": 117, "channel": 0}, {"type": "note_on", "time": 27, "note": 80, "velocity": 104, "channel": 0}, {"type": "note_off", "time": 77, "note": 80, "velocity": 104, "channel": 0}, {"type": "note_on", "time": 27, "note": 76, "velocity": 118, "channel": 0}, {"type": "note_off", "time": 80, "note": 76, "velocity": 118, "channel": 0}, {"type": "note_on", "time": 25, "note": 74, "velocity": 100, "channel": 0}, {"type": "note_off", "time": 77, "note": 74, "velocity": 100, "channel": 0}, {"type": "note_on", "time": 5, "note": 73, "velocity": 115, "channel": 0}, {"type": "note_off", "time": 91, "note": 73, "velocity": 115, "channel": 0}, {"type": "note_on", "time": 22, "note": 72, "velocity": 106, "channel": 0}, {"type": "note_off", "time": 63, "note": 72, "velocity": 106, "channel": 0}, {"type": "note_on", "time": 13, "note": 71, "velocity": 111, "channel": 0}, {"type": "note_off", "time": 75, "note": 71, "velocity": 111, "channel": 0}, {"type": "note_on", "time": 8, "note": 69, "velocity": 102, "channel": 0}, {"type": "note_off", "time": 97, "note": 69, "velocity": 102, "channel": 0}, {"type": "note_on", "time": 22, "note": 67, "velocity": 105, "channel": 0}, {"type": "note_off", "time": 63, "note": 67, "velocity": 105, "channel": 0}, {"type": "note_on", "time": 16, "note": 66, "velocity": 99, "channel": 0}, {"type": "note_off", "time": 102, "note": 66, "velocity": 99, "channel": 0}, {"type": "note_on", "time": 69, "note": 67, "velocity": 97, "channel": 0}, {"type": "note_off", "time": 75, "note": 67, "velocity": 97, "channel": 0}, {"type": "note_on", "time": 30, "note": 69, "velocity": 109, "channel": 0}, {"type": "note_off", "time": 91, "note": 69, "velocity": 109, "channel": 0}, {"type": "note_on", "time": 8, "note": 72, "velocity": 99, "channel": 0}, {"type": "note_off", "time": 69, "note": 72, "velocity": 99, "channel": 0}, {"type": "note_on", "time": 25, "note": 76, "velocity": 105, "channel": 0}, {"type": "note_off", "time": 89, "note": 76, "velocity": 105, "channel": 0}, {"type": "note_on", "time": 139, "note": 76, "velocity": 111, "channel": 0}, {"type": "note_off", "time": 69, "note": 76, "velocity": 111, "channel": 0}, {"type": "note_on", "time": 0, "note": 77, "velocity": 118, "channel": 0}, {"type": "note_off", "time": 75, "note": 77, "velocity": 118, "channel": 0}, {"type": "note_on", "time": 19, "note": 76, "velocity": 114, "channel": 0}, {"type": "note_off", "time": 105, "note": 76, "velocity": 114, "channel": 0}, {"type": "note_on", "time": 72, "note": 74, "velocity": 117, "channel": 0}, {"type": "note_off", "time": 94, "note": 74, "velocity": 117, "channel": 0}, {"type": "note_on", "time": 27, "note": 72, "velocity": 112, "channel": 0}, {"type": "note_on", "time": 63, "note": 73, "velocity": 102, "channel": 0}, {"type": "note_off", "time": 0, "note": 72, "velocity": 112, "channel": 0}, {"type": "note_off", "time": 47, "note": 73, "velocity": 102, "channel": 0}, {"type": "note_on", "time": 11, "note": 72, "velocity": 112, "channel": 0}, {"type": "note_off", "time": 55, "note": 72, "velocity": 112, "channel": 0}, {"type": "note_on", "time": 2, "note": 71, "velocity": 105, "channel": 0}, {"type": "note_off", "time": 83, "note": 71, "velocity": 105, "channel": 0}, {"type": "note_on", "time": 13, "note": 69, "velocity": 104, "channel": 0}, {"type": "note_off", "time": 97, "note": 69, "velocity": 104, "channel": 0}, {"type": "note_on", "time": 11, "note": 67, "velocity": 102, "channel": 0}, {"type": "note_off", "time": 69, "note": 67, "velocity": 102, "channel": 0}, {"type": "note_on", "time": 598, "note": 72, "velocity": 113, "channel": 0}, {"type": "note_off", "time": 91, "note": 72, "velocity": 113, "channel": 0}, {"type": "note_on", "time": 41, "note": 70, "velocity": 116, "channel": 0}, {"type": "note_off", "time": 97, "note": 70, "velocity": 116, "channel": 0}, {"type": "note_on", "time": 58, "note": 63, "velocity": 105, "channel": 0}, {"type": "note_off", "time": 166, "note": 63, "velocity": 105, "channel": 0}, {"type": "note_on", "time": 86, "note": 69, "velocity": 107, "channel": 0}, {"type": "note_off", "time": 63, "note": 69, "velocity": 107, "channel": 0}, {"type": "note_on", "time": 13, "note": 70, "velocity": 111, "channel": 0}, {"type": "note_off", "time": 222, "note": 70, "velocity": 111, "channel": 0}, {"type": "note_on", "time": 30, "note": 68, "velocity": 105, "channel": 0}, {"type": "note_off", "time": 111, "note": 68, "velocity": 105, "channel": 0}, {"type": "note_on", "time": 27, "note": 67, "velocity": 107, "channel": 0}, {"type": "note_off", "time": 97, "note": 67, "velocity": 107, "channel": 0}, {"type": "note_on", "time": 22, "note": 64, "velocity": 95, "channel": 0}, {"type": "note_off", "time": 269, "note": 64, "velocity": 95, "channel": 0}, {"type": "end_of_track", "time": 0}]]}