{"ticks_per_beat": 192, "tracks": [[{"type": "track_name", "name": "Melody", "time": 0}, {"type": "set_tempo", "tempo": 389610, "time": 0}, {"type": "key_signature", "key": "Ab", "time": 0}, {"type": "time_signature", "numerator": 4, "denominator": 4, "clocks_per_click": 24, "notated_32nd_notes_per_beat": 8, "time": 0}, {"type": "note_on", "time": 1082, "note": 64, "velocity": 108, "channel": 0}, {"type": "note_off", "time": 20, "note": 64, "velocity": 108, "channel": 0}, {"type": "note_on", "time": 17, "note": 63, "velocity": 106, "channel": 0}, {"type": "note_off", "time": 65, "note": 63, "velocity": 106, "channel": 0}, {"type": "note_on", "time": 22, "note": 65, "velocity": 114, "channel": 0}, {"type": "note_off", "time": 65, "note": 65, "velocity": 114, "channel": 0}, {"type": "note_on", "time": 18, "note": 67, "velocity": 117, "channel": 0}, {"type": "note_off", "time": 68, "note": 67, "velocity": 117, "channel": 0}, {"type": "note_on", "time": 31, "note": 68, "velocity": 114, "channel": 0}, {"type": "note_off", "time": 61, "note": 68, "velocity": 114, "channel": 0}, {"type": "note_on", "time": 17, "note": 70, "velocity": 114, "channel": 0}, {"type": "note_off", "time": 82, "note": 70, "velocity": 114, "channel": 0}, {"type": "note_on", "time": 28, "note": 72, "velocity": 121, "channel": 0}, {"type": "note_off", "time": 74, "note": 72, "velocity": 121, "channel": 0}, {"type": "note_on", "time": 14, "note": 73, "velocity": 125, "channel": 0}, {"type": "note_off", "time": 91, "note": 73, "velocity": 125, "channel": 0}, {"type": "note_on", "time": 34, "note": 71, "velocity": 111, "channel": 0}, {"type": "note_off", "time": 70, "note": 71, "velocity": 111, "channel": 0}, {"type": "note_on", "time": 5, "note": 72, "velocity": 109, "channel": 0}, {"type": "note_off", "time": 177, "note": 72, "velocity": 109, "channel": 0}, {"type": "note_on", "time": 21, "note": 70, "velocity": 108, "channel": 0}, {"type": "note_off", "time": 74, "note": 70, "velocity": 108, "channel": 0}, {"type": "note_on", "time": 21, "note": 68, "velocity": 116, "channel": 0}, {"type": "note_off", "time": 72, "note": 68, "velocity": 116, "channel": 0}, {"type": "note_on", "time": 24, "note": 67, "velocity": 108, "channel": 0}, {"type": "note_off", "time": 80, "note": 67, "velocity": 108, "channel": 0}, {"type": "note_on", "time": 32, "note": 65, "velocity": 109, "channel": 0}, {"type": "note_off", "time": 81, "note": 65, "velocity": 109, "channel": 0}, {"type": "note_on", "time": 31, "note": 64, "velocity": 95, "channel": 0}, {"type": "note_off", "time": 158, "note": 64, "velocity": 95, "channel": 0}, {"type": "note_on", "time": 52, "note": 67, "velocity": 114, "channel": 0}, {"type": "note_off", "time": 91, "note": 67, "velocity": 114, "channel": 0}, {"type": "note_on", "time": 31, "note": 63, "velocity": 104, "channel": 0}, {"type": "note_off", "time": 54, "note": 63, "velocity": 104, "channel": 0}, {"type": "note_on", "time": 11, "note": 67, "velocity": 111, "channel": 0}, {"type": "note_off", "time": 121, "note": 67, "velocity": 111, "channel": 0}, {"type": "note_on", "time": 27, "note": 65, "velocity": 114, "channel": 0}, {"type": "note_off", "time": 90, "note": 65, "velocity": 114, "channel": 0}, {"type": "note_on", "time": 88, "note": 60, "velocity": 99, "channel": 0}, {"type": "note_off", "time": 34, "note": 60, "velocity": 99, "channel": 0}, {"type": "note_on", "time": 49, "note": 63, "velocity": 105, "channel": 0}, {"type": "note_off", "time": 37, "note": 63, "velocity": 105, "channel": 0}, {"type": "note_on", "time": 8, "note": 65, "velocity": 106, "channel": 0}, {"type": "note_off", "time": 24, "note": 65, "velocity": 106, "channel": 0}, {"type": "note_on", "time": 13, "note": 63, "velocity": 104, "channel": 0}, {"type": "note_off", "time": 27, "note": 63, "velocity": 104, "channel": 0}, {"type": "note_on", "time": 28, "note": 60, "velocity": 101, "channel": 0}, {"type": "note_off", "time": 56, "note": 60, "velocity": 101, "channel": 0}, {"type": "note_on", "time": 43, "note": 61, "velocity": 108, "channel": 0}, {"type": "note_off", "time": 76, "note": 61, "velocity": 108, "channel": 0}, {"type": "note_on", "time": 38, "note": 63, "velocity": 109, "channel": 0}, {"type": "note_off", "time": 29, "note": 63, "velocity": 109, "channel": 0}, {"type": "note_on", "time": 19, "note": 65, "velocity": 111, "channel": 0}, {"type": "note_off", "time": 47, "note": 65, "velocity": 111, "channel": 0}, {"type": "note_on", "time": 10, "note": 68, "velocity": 114, "channel": 0}, {"type": "note_off", "time": 49, "note": 68, "velocity": 114, "channel": 0}, {"type": "note_on", "time": 16, "note": 72, "velocity": 121, "channel": 0}, {"type": "note_off", "time": 71, "note": 72, "velocity": 121, "channel": 0}, {"type": "note_on", "time": 39, "note": 75, "velocity": 124, "channel": 0}, {"type": "note_off", "time": 80, "note": 75, "velocity": 124, "channel": 0}, {"type": "note_on", "time": 13, "note": 74, "velocity": 119, "channel": 0}, {"type": "note_off", "time": 87, "note": 74, "velocity": 119, "channel": 0}, {"type": "note_on", "time": 14, "note": 73, "velocity": 118, "channel": 0}, {"type": "note_off", "time": 104, "note": 73, "velocity": 118, "channel": 0}, {"type": "note_on", "time": 11, "note": 72, "velocity": 115, "channel": 0}, {"type": "note_off", "time": 54, "note": 72, "velocity": 115, "channel": 0}, {"type": "note_on", "time": 43, "note": 70, "velocity": 111, "channel": 0}, {"type": "note_off", "time": 73, "note": 70, "velocity": 111, "channel": 0}, {"type": "note_on", "time": 24, "note": 69, "velocity": 118, "channel": 0}, {"type": "note_off", "time": 65, "note": 69, "velocity": 118, "channel": 0}, {"type": "note_on", "time": 34, "note": 68, "velocity": 112, "channel": 0}, {"type": "note_off", "time": 22, "note": 68, "velocity": 112, "channel": 0}, {"type": "note_on", "time": 8, "note": 69, "velocity": 102, "channel": 0}, {"type": "note_off", "time": 14, "note": 69, "velocity": 102, "channel": 0}, {"type": "note_on", "time": 10, "note": 68, "velocity": 111, "channel": 0}, {"type": "note_off", "time": 26, "note": 68, "velocity": 111, "channel": 0}, {"type": "note_on", "time": 11, "note": 67, "velocity": 111, "channel": 0}, {"type": "note_off", "time": 67, "note": 67, "velocity": 111, "channel": 0}, {"type": "note_on", "time": 48, "note": 66, "velocity": 109, "channel": 0}, {"type": "note_off", "time": 60, "note": 66, "velocity": 109, "channel": 0}, {"type": "note_on", "time": 36, "note": 65, "velocity": 110, "channel": 0}, {"type": "note_off", "time": 66, "note": 65, "velocity": 110, "channel": 0}, {"type": "note_on", "time": 25, "note": 64, "velocity": 102, "channel": 0}, {"type": "note_off", "time": 76, "note": 64, "velocity": 102, "channel": 0}, {"type": "note_on", "time": 26, "note": 60, "velocity": 103, "channel": 0}, {"type": "note_off", "time": 64, "note": 60, "velocity": 103, "channel": 0}, {"type": "note_on", "time": 19, "note": 63, "velocity": 100, "channel": 0}, {"type": "note_off", "time": 109, "note": 63, "velocity": 100, "channel": 0}, {"type": "note_on", "time": 12, "note": 60, "velocity": 85, "channel": 0}, {"type": "note_off", "time": 160, "note": 60, "velocity": 85, "channel": 0}, {"type": "note_on", "time": 629, "note": 80, "velocity": 117, "channel": 0}, {"type": "note_off", "time": 84, "note": 80, "velocity": 117, "channel": 0}, {"type": "note_on", "time": 34, "note": 77, "velocity": 124, "channel": 0}, {"type": "note_off", "time": 69, "note": 77, "velocity": 124, "channel": 0}, {"type": "note_on", "time": 13, "note": 75, "velocity": 121, "channel": 0}, {"type": "note_off", "time": 69, "note": 75, "velocity": 121, "channel": 0}, {"type": "note_on", "time": 19, "note": 73, "velocity": 123, "channel": 0}, {"type": "note_off", "time": 77, "note": 73, "velocity": 123, "channel": 0}, {"type": "note_on", "time": 15, "note": 72, "velocity": 123, "channel": 0}, {"type": "note_off", "time": 82, "note": 72, "velocity": 123, "channel": 0}, {"type": "note_on", "time": 39, "note": 70, "velocity": 121, "channel": 0}, {"type": "note_off", "time": 88, "note": 70, "velocity": 121, "channel": 0}, {"type": "note_on", "time": 26, "note": 68, "velocity": 115, "channel": 0}, {"type": "note_off", "time": 37, "note": 68, "velocity": 115, "channel": 0}, {"type": "note_on", "time": 5, "note": 67, "velocity": 114, "channel": 0}, {"type": "note_off", "time": 34, "note": 67, "velocity": 114, "channel": 0}, {"type": "note_on", "time": 8, "note": 68, "velocity": 119, "channel": 0}, {"type": "note_off", "time": 180, "note": 68, "velocity": 119, "channel": 0}, {"type": "note_on", "time": 45, "note": 67, "velocity": 116, "channel": 0}, {"type": "note_off", "time": 66, "note": 67, "velocity": 116, "channel": 0}, {"type": "note_on", "time": 30, "note": 65, "velocity": 101, "channel": 0}, {"type": "note_off", "time": 66, "note": 65, "velocity": 101, "channel": 0}, {"type": "note_on", "time": 20, "note": 70, "velocity": 114, "channel": 0}, {"type": "note_off", "time": 96, "note": 70, "velocity": 114, "channel": 0}, {"type": "note_on", "time": 294, "note": 67, "velocity": 105, "channel": 0}, {"type": "note_off", "time": 33, "note": 67, "velocity": 105, "channel": 0}, {"type": "note_on", "time": 9, "note": 67, "velocity": 100, "channel": 0}, {"type": "note_off", "time": 25, "note": 67, "velocity": 100, "channel": 0}, {"type": "note_on", "time": 24, "note": 67, "velocity": 108, "channel": 0}, {"type": "note_off", "time": 26, "note": 67, "velocity": 108, "channel": 0}, {"type": "note_on", "time": 22, "note": 67, "velocity": 110, "channel": 0}, {"type": "note_off", "time": 32, "note": 67, "velocity": 110, "channel": 0}, {"type": "note_on", "time": 32, "note": 64, "velocity": 101, "channel": 0}, {"type": "note_off", "time": 38, "note": 64, "velocity": 101, "channel": 0}, {"type": "note_on", "time": 50, "note": 67, "velocity": 92, "channel": 0}, {"type": "note_off", "time": 44, "note": 67, "velocity": 92, "channel": 0}, {"type": "note_on", "time": 72, "note": 69, "velocity": 99, "channel": 0}, {"type": "note_off", "time": 37, "note": 69, "velocity": 99, "channel": 0}, {"type": "note_on", "time": 65, "note": 67, "velocity": 108, "channel": 0}, {"type": "note_off", "time": 36, "note": 67, "velocity": 108, "channel": 0}, {"type": "note_on", "time": 83, "note": 64, "velocity": 116, "channel": 0}, {"type": "note_off", "time": 100, "note": 64, "velocity": 116, "channel": 0}, {"type": "note_on", "time": 46, "note": 64, "velocity": 114, "channel": 0}, {"type": "note_off", "time": 114, "note": 64, "velocity": 114, "channel": 0}, {"type": "note_on", "time": 19, "note": 62, "velocity": 104, "channel": 0}, {"type": "note_off", "time": 91, "note": 62, "velocity": 104, "channel": 0}, {"type": "note_on", "time": 708, "note": 67, "velocity": 104, "channel": 0}, {"type": "note_off", "time": 32, "note": 67, "velocity": 104, "channel": 0}, {"type": "note_on", "time": 10, "note": 69, "velocity": 116, "channel": 0}, {"type": "note_off", "time": 37, "note": 69, "velocity": 116, "channel": 0}, {"type": "note_on", "time": 15, "note": 71, "velocity": 108, "channel": 0}, {"type": "note_off", "time": 45, "note": 71, "velocity": 108, "channel": 0}, {"type": "note_on", "time": 12, "note": 72, "velocity": 107, "channel": 0}, {"type": "note_off", "time": 30, "note": 72, "velocity": 107, "channel": 0}, {"type": "note_on", "time": 22, "note": 74, "velocity": 115, "channel": 0}, {"type": "note_off", "time": 41, "note": 74, "velocity": 115, "channel": 0}, {"type": "note_on", "time": 28, "note": 71, "velocity": 102, "channel": 0}, {"type": "note_off", "time": 39, "note": 71, "velocity": 102, "channel": 0}, {"type": "note_on", "time": 9, "note": 72, "velocity": 105, "channel": 0}, {"type": "note_off", "time": 27, "note": 72, "velocity": 105, "channel": 0}, {"type": "note_on", "time": 6, "note": 74, "velocity": 111, "channel": 0}, {"type": "note_off", "time": 30, "note": 74, "velocity": 111, "channel": 0}, {"type": "note_on", "time": 18, "note": 75, "velocity": 112, "channel": 0}, {"type": "note_off", "time": 42, "note": 75, "velocity": 112, "channel": 0}, {"type": "note_on", "time": 19, "note": 71, "velocity": 100, "channel": 0}, {"type": "note_off", "time": 37, "note": 71, "velocity": 100, "channel": 0}, {"type": "note_on", "time": 6, "note": 73, "velocity": 111, "channel": 0}, {"type": "note_off", "time": 35, "note": 73, "velocity": 111, "channel": 0}, {"type": "note_on", "time": 10, "note": 72, "velocity": 104, "channel": 0}, {"type": "note_off", "time": 32, "note": 72, "velocity": 104, "channel": 0}, {"type": "note_on", "time": 17, "note": 72, "velocity": 108, "channel": 0}, {"type": "note_off", "time": 35, "note": 72, "velocity": 108, "channel": 0}, {"type": "note_on", "time": 15, "note": 66, "velocity": 106, "channel": 0}, {"type": "note_off", "time": 41, "note": 66, "velocity": 106, "channel": 0}, {"type": "note_on", "time": 7, "note": 65, "velocity": 101, "channel": 0}, {"type": "note_off", "time": 39, "note": 65, "velocity": 101, "channel": 0}, {"type": "note_on", "time": 8, "note": 63, "velocity": 97, "channel": 0}, {"type": "note_off", "time": 23, "note": 63, "velocity": 97, "channel": 0}, {"type": "note_on", "time": 49, "note": 67, "velocity": 118, "channel": 0}, {"type": "note_off", "time": 43, "note": 67, "velocity": 118, "channel": 0}, {"type": "note_on", "time": 349, "note": 72, "velocity": 119, "channel": 0}, {"type": "note_off", "time": 33, "note": 72, "velocity": 119, "channel": 0}, {"type": "note_on", "time": 5, "note": 73, "velocity": 112, "channel": 0}, {"type": "note_off", "time": 42, "note": 73, "velocity": 112, "channel": 0}, {"type": "note_on", "time": 5, "note": 74, "velocity": 110, "channel": 0}, {"type": "note_off", "time": 41, "note": 74, "velocity": 110, "channel": 0}, {"type": "note_on", "time": 10, "note": 77, "velocity": 112, "channel": 0}, {"type": "note_off", "time": 55, "note": 77, "velocity": 112, "channel": 0}, {"type": "note_on", "time": 3, "note": 74, "velocity": 119, "channel": 0}, {"type": "note_off", "time": 40, "note": 74, "velocity": 119, "channel": 0}, {"type": "note_on", "time": 5, "note": 73, "velocity": 114, "channel": 0}, {"type": "note_off", "time": 32, "note": 73, "velocity": 114, "channel": 0}, {"type": "note_on", "time": 7, "note": 72, "velocity": 104, "channel": 0}, {"type": "note_off", "time": 36, "note": 72, "velocity": 104, "channel": 0}, {"type": "note_on", "time": 17, "note": 75, "velocity": 112, "channel": 0}, {"type": "note_off", "time": 29, "note": 75, "velocity": 112, "channel": 0}, {"type": "note_on", "time": 15, "note": 71, "velocity": 110, "channel": 0}, {"type": "note_off", "time": 46, "note": 71, "velocity": 110, "channel": 0}, {"type": "note_on", "time": 6, "note": 70, "velocity": 103, "channel": 0}, {"type": "note_off", "time": 38, "note": 70, "velocity": 103, "channel": 0}, {"type": "note_on", "time": 12, "note": 66, "velocity": 107, "channel": 0}, {"type": "note_off", "time": 42, "note": 66, "velocity": 107, "channel": 0}, {"type": "note_on", "time": 4, "note": 74, "velocity": 107, "channel": 0}, {"type": "note_off", "time": 36, "note": 74, "velocity": 107, "channel": 0}, {"type": "note_on", "time": 14, "note": 70, "velocity": 114, "channel": 0}, {"type": "note_off", "time": 36, "note": 70, "velocity": 114, "channel": 0}, {"type": "note_on", "time": 12, "note": 69, "velocity": 110, "channel": 0}, {"type": "note_off", "time": 38, "note": 69, "velocity": 110, "channel": 0}, {"type": "note_on", "time": 7, "note": 68, "velocity": 104, "channel": 0}, {"type": "note_off", "time": 54, "note": 68, "velocity": 104, "channel": 0}, {"type": "note_on", "time": 3, "note": 72, "velocity": 101, "channel": 0}, {"type": "note_off", "time": 31, "note": 72, "velocity": 101, "channel": 0}, {"type": "note_on", "time": 10, "note": 68, "velocity": 113, "channel": 0}, {"type": "note_off", "time": 39, "note": 68, "velocity": 113, "channel": 0}, {"type": "note_on", "time": 10, "note": 67, "velocity": 104, "channel": 0}, {"type": "note_off", "time": 47, "note": 67, "velocity": 104, "channel": 0}, {"type": "note_on", "time": 5, "note": 65, "velocity": 104, "channel": 0}, {"type": "note_off", "time": 37, "note": 65, "velocity": 104, "channel": 0}, {"type": "note_on", "time": 2, "note": 70, "velocity": 113, "channel": 0}, {"type": "note_off", "time": 37, "note": 70, "velocity": 113, "channel": 0}, {"type": "note_on", "time": 11, "note": 69, "velocity": 115, "channel": 0}, {"type": "note_off", "time": 48, "note": 69, "velocity": 115, "channel": 0}, {"type": "note_on", "time": 13, "note": 68, "velocity": 114, "channel": 0}, {"type": "note_off", "time": 38, "note": 68, "velocity": 114, "channel": 0}, {"type": "note_on", "time": 10, "note": 67, "velocity": 113, "channel": 0}, {"type": "note_off", "time": 39, "note": 67, "velocity": 113, "channel": 0}, {"type": "note_on", "time": 11, "note": 65, "velocity": 109, "channel": 0}, {"type": "note_off", "time": 44, "note": 65, "velocity": 109, "channel": 0}, {"type": "note_on", "time": 5, "note": 63, "velocity": 101, "channel": 0}, {"type": "note_off", "time": 59, "note": 63, "velocity": 101, "channel": 0}, {"type": "note_on", "time": 0, "note": 66, "velocity": 96, "channel": 0}, {"type": "note_off", "time": 36, "note": 66, "velocity": 96, "channel": 0}, {"type": "note_on", "time": 7, "note": 65, "velocity": 106, "channel": 0}, {"type": "note_off", "time": 52, "note": 65, "velocity": 106, "channel": 0}, {"type": "note_on", "time": 8, "note": 68, "velocity": 111, "channel": 0}, {"type": "note_off", "time": 32, "note": 68, "velocity": 111, "channel": 0}, {"type": "note_on", "time": 10, "note": 71, "velocity": 122, "channel": 0}, {"type": "note_off", "time": 40, "note": 71, "velocity": 122, "channel": 0}, {"type": "note_on", "time": 9, "note": 70, "velocity": 113, "channel": 0}, {"type": "note_off", "time": 30, "note": 70, "velocity": 113, "channel": 0}, {"type": "note_on", "time": 12, "note": 68, "velocity": 114, "channel": 0}, {"type": "note_off", "time": 41, "note": 68, "velocity": 114, "channel": 0}, {"type": "note_on", "time": 5, "note": 67, "velocity": 109, "channel": 0}, {"type": "note_off", "time": 40, "note": 67, "velocity": 109, "channel": 0}, {"type": "note_on", "time": 35, "note": 65, "velocity": 100, "channel": 0}, {"type": "note_off", "time": 21, "note": 65, "velocity": 100, "channel": 0}, {"type": "note_on", "time": 5, "note": 64, "velocity": 96, "channel": 0}, {"type": "note_off", "time": 58, "note": 64, "velocity": 96, "channel": 0}, {"type": "note_on", "time": 8, "note": 63, "velocity": 109, "channel": 0}, {"type": "note_off", "time": 80, "note": 63, "velocity": 109, "channel": 0}, {"type": "note_on", "time": 17, "note": 65, "velocity": 102, "channel": 0}, {"type": "note_off", "time": 24, "note": 65, "velocity": 102, "channel": 0}, {"type": "note_on", "time": 6, "note": 66, "velocity": 100, "channel": 0}, {"type": "note_off", "time": 30, "note": 66, "velocity": 100, "channel": 0}, {"type": "note_on", "time": 17, "note": 68, "velocity": 101, "channel": 0}, {"type": "note_off", "time": 52, "note": 68, "velocity": 101, "channel": 0}, {"type": "note_on", "time": 25, "note": 70, "velocity": 108, "channel": 0}, {"type": "note_off", "time": 26, "note": 70, "velocity": 108, "channel": 0}, {"type": "note_on", "time": 23, "note": 67, "velocity": 105, "channel": 0}, {"type": "note_off", "time": 47, "note": 67, "velocity": 105, "channel": 0}, {"type": "note_on", "time": 26, "note": 70, "velocity": 107, "channel": 0}, {"type": "note_off", "time": 39, "note": 70, "velocity": 107, "channel": 0}, {"type": "note_on", "time": 17, "note": 71, "velocity": 108, "channel": 0}, {"type": "note_off", "time": 29, "note": 71, "velocity": 108, "channel": 0}, {"type": "note_on", "time": 7, "note": 72, "velocity": 113, "channel": 0}, {"type": "note_off", "time": 35, "note": 72, "velocity": 113, "channel": 0}, {"type": "note_on", "time": 8, "note": 74, "velocity": 89, "channel": 0}, {"type": "note_off", "time": 28, "note": 74, "velocity": 89, "channel": 0}, {"type": "note_on", "time": 7, "note": 77, "velocity": 126, "channel": 0}, {"type": "note_off", "time": 34, "note": 77, "velocity": 126, "channel": 0}, {"type": "note_on", "time": 4, "note": 76, "velocity": 125, "channel": 0}, {"type": "note_off", "time": 57, "note": 76, "velocity": 125, "channel": 0}, {"type": "note_on", "time": 10, "note": 75, "velocity": 108, "channel": 0}, {"type": "note_off", "time": 28, "note": 75, "velocity": 108, "channel": 0}, {"type": "note_on", "time": 10, "note": 72, "velocity": 118, "channel": 0}, {"type": "note_off", "time": 68, "note": 72, "velocity": 118, "channel": 0}, {"type": "note_on", "time": 120, "note": 77, "velocity": 127, "channel": 0}, {"type": "note_off", "time": 56, "note": 77, "velocity": 127, "channel": 0}, {"type": "note_on", "time": 37, "note": 76, "velocity": 126, "channel": 0}, {"type": "note_off", "time": 65, "note": 76, "velocity": 126, "channel": 0}, {"type": "note_on", "time": 18, "note": 75, "velocity": 123, "channel": 0}, {"type": "note_off", "time": 75, "note": 75, "velocity": 123, "channel": 0}, {"type": "note_on", "time": 8, "note": 77, "velocity": 123, "channel": 0}, {"type": "note_off", "time": 79, "note": 77, "velocity": 123, "channel": 0}, {"type": "note_on", "time": 15, "note": 74, "velocity": 116, "channel": 0}, {"type": "note_off", "time": 261, "note": 74, "velocity": 116, "channel": 0}, {"type": "note_on", "time": 19, "note": 72, "velocity": 115, "channel": 0}, {"type": "note_off", "time": 75, "note": 72, "velocity": 115, "channel": 0}, {"type": "note_on", "time": 32, "note": 71, "velocity": 115, "channel": 0}, {"type": "note_off", "time": 78, "note": 71, "velocity": 115, "channel": 0}, {"type": "note_on", "time": 234, "note": 62, "velocity": 99, "channel": 0}, {"type": "note_off", "time": 48, "note": 62, "velocity": 99, "channel": 0}, {"type": "note_on", "time": 49, "note": 64, "velocity": 102, "channel": 0}, {"type": "note_off", "time": 241, "note": 64, "velocity": 102, "channel": 0}, {"type": "note_on", "time": 844, "note": 74, "velocity": 113, "channel": 0}, {"type": "note_off", "time": 140, "note": 74, "velocity": 113, "channel": 0}, {"type": "note_on", "time": 18, "note": 76, "velocity": 104, "channel": 0}, {"type": "note_off", "time": 45, "note": 76, "velocity": 104, "channel": 0}, {"type": "note_on", "time": 10, "note": 74, "velocity": 115, "channel": 0}, {"type": "note_off", "time": 93, "note": 74, "velocity": 115, "channel": 0}, {"type": "note_on", "time": 80, "note": 62, "velocity": 106, "channel": 0}, {"type": "note_off", "time": 51, "note": 62, "velocity": 106, "channel": 0}, {"type": "note_on", "time": 22, "note": 62, "velocity": 98, "channel": 0}, {"type": "note_off", "time": 47, "note": 62, "velocity": 98, "channel": 0}, {"type": "note_on", "time": 31, "note": 62, "velocity": 104, "channel": 0}, {"type": "note_off", "time": 258, "note": 62, "velocity": 104, "channel": 0}, {"type": "note_on", "time": 59, "note": 63, "velocity": 116, "channel": 0}, {"type": "note_off", "time": 112, "note": 63, "velocity": 116, "channel": 0}, {"type": "note_on", "time": 22, "note": 70, "velocity": 110, "channel": 0}, {"type": "note_off", "time": 67, "note": 70, "velocity": 110, "channel": 0}, {"type": "note_on", "time": 2, "note": 72, "velocity": 117, "channel": 0}, {"type": "note_off", "time": 152, "note": 72, "velocity": 117, "channel": 0}, {"type": "note_on", "time": 7, "note": 71, "velocity": 117, "channel": 0}, {"type": "note_off", "time": 136, "note": 71, "velocity": 117, "channel": 0}, {"type": "note_on", "time": 8, "note": 71, "velocity": 107, "channel": 0}, {"type": "note_off", "time": 76, "note": 71, "velocity": 107, "channel": 0}, {"type": "note_on", "time": 98, "note": 69, "velocity": 117, "channel": 0}, {"type": "note_off", "time": 72, "note": 69, "velocity": 117, "channel": 0}, {"type": "note_on", "time": 26, "note": 71, "velocity": 114, "channel": 0}, {"type": "note_off", "time": 107, "note": 71, "velocity": 114, "channel": 0}, {"type": "note_on", "time": 160, "note": 67, "velocity": 113, "channel": 0}, {"type": "note_off", "time": 87, "note": 67, "velocity": 113, "channel": 0}, {"type": "note_on", "time": 30, "note": 65, "velocity": 105, "channel": 0}, {"type": "note_off", "time": 70, "note": 65, "velocity": 105, "channel": 0}, {"type": "note_on", "time": 2, "note": 66, "velocity": 100, "channel": 0}, {"type": "note_off", "time": 75, "note": 66, "velocity": 100, "channel": 0}, {"type": "note_on", "time": 20, "note": 61, "velocity": 105, "channel": 0}, {"type": "note_off", "time": 103, "note": 61, "velocity": 105, "channel": 0}, {"type": "note_on", "time": 22, "note": 64, "velocity": 104, "channel": 0}, {"type": "note_off", "time": 227, "note": 64, "velocity": 104, "channel": 0}, {"type": "note_on", "time": 8, "note": 64, "velocity": 104, "channel": 0}, {"type": "note_off", "time": 45, "note": 64, "velocity": 104, "channel": 0}, {"type": "note_on", "time": 109, "note": 68, "velocity": 115, "channel": 0}, {"type": "note_off", "time": 42, "note": 68, "velocity": 115, "channel": 0}, {"type": "note_on", "time": 4, "note": 67, "velocity": 106, "channel": 0}, {"type": "note_off", "time": 34, "note": 67, "velocity": 106, "channel": 0}, {"type": "note_on", "time": 10, "note": 66, "velocity": 104, "channel": 0}, {"type": "note_off", "time": 59, "note": 66, "velocity": 104, "channel": 0}, {"type": "note_on", "time": 34, "note": 68, "velocity": 111, "channel": 0}, {"type": "note_off", "time": 66, "note": 68, "velocity": 111, "channel": 0}, {"type": "note_on", "time": 29, "note": 69, "velocity": 112, "channel": 0}, {"type": "note_off", "time": 70, "note": 69, "velocity": 112, "channel": 0}, {"type": "note_on", "time": 25, "note": 71, "velocity": 119, "channel": 0}, {"type": "note_off", "time": 76, "note": 71, "velocity": 119, "channel": 0}, {"type": "note_on", "time": 35, "note": 73, "velocity": 120, "channel": 0}, {"type": "note_off", "time": 80, "note": 73, "velocity": 120, "channel": 0}, {"type": "note_on", "time": 5, "note": 76, "velocity": 116, "channel": 0}, {"type": "note_off", "time": 87, "note": 76, "velocity": 116, "channel": 0}, {"type": "note_on", "time": 10, "note": 75, "velocity": 117, "channel": 0}, {"type": "note_off", "time": 81, "note": 75, "velocity": 117, "channel": 0}, {"type": "note_on", "time": 17, "note": 73, "velocity": 117, "channel": 0}, {"type": "note_off", "time": 74, "note": 73, "velocity": 117, "channel": 0}, {"type": "note_on", "time": 28, "note": 71, "velocity": 103, "channel": 0}, {"type": "note_off", "time": 70, "note": 71, "velocity": 103, "channel": 0}, {"type": "note_on", "time": 20, "note": 70, "velocity": 111, "channel": 0}, {"type": "note_off", "time": 68, "note": 70, "velocity": 111, "channel": 0}, {"type": "note_on", "time": 33, "note": 69, "velocity": 111, "channel": 0}, {"type": "note_off", "time": 69, "note": 69, "velocity": 111, "channel": 0}, {"type": "note_on", "time": 23, "note": 69, "velocity": 99, "channel": 0}, {"type": "note_off", "time": 51, "note": 69, "velocity": 99, "channel": 0}, {"type": "note_on", "time": 31, "note": 68, "velocity": 110, "channel": 0}, {"type": "note_off", "time": 65, "note": 68, "velocity": 110, "channel": 0}, {"type": "note_on", "time": 32, "note": 66, "velocity": 107, "channel": 0}, {"type": "note_off", "time": 53, "note": 66, "velocity": 107, "channel": 0}, {"type": "note_on", "time": 28, "note": 64, "velocity": 104, "channel": 0}, {"type": "note_off", "time": 115, "note": 64, "velocity": 104, "channel": 0}, {"type": "note_on", "time": 8, "note": 63, "velocity": 97, "channel": 0}, {"type": "note_off", "time": 158, "note": 63, "velocity": 97, "channel": 0}, {"type": "note_on", "time": 95, "note": 71, "velocity": 115, "channel": 0}, {"type": "note_off", "time": 83, "note": 71, "velocity": 115, "channel": 0}, {"type": "note_on", "time": 21, "note": 69, "velocity": 115, "channel": 0}, {"type": "note_off", "time": 77, "note": 69, "velocity": 115, "channel": 0}, {"type": "note_on", "time": 20, "note": 68, "velocity": 113, "channel": 0}, {"type": "note_off", "time": 85, "note": 68, "velocity": 113, "channel": 0}, {"type": "note_on", "time": 110, "note": 63, "velocity": 98, "channel": 0}, {"type": "note_off", "time": 22, "note": 63, "velocity": 98, "channel": 0}, {"type": "note_on", "time": 16, "note": 60, "velocity": 96, "channel": 0}, {"type": "note_off", "time": 89, "note": 60, "velocity": 96, "channel": 0}, {"type": "note_on", "time": 9, "note": 61, "velocity": 98, "channel": 0}, {"type": "note_off", "time": 235, "note": 61, "velocity": 98, "channel": 0}, {"type": "note_on", "time": 1181, "note": 79, "velocity": 124, "channel": 0}, {"type": "note_off", "time": 118, "note": 79, "velocity": 124, "channel": 0}, {"type": "note_on", "time": 34, "note": 77, "velocity": 123, "channel": 0}, {"type": "note_off", "time": 112, "note": 77, "velocity": 123, "channel": 0}, {"type": "note_on", "time": 46, "note": 72, "velocity": 115, "channel": 0}, {"type": "note_off", "time": 77, "note": 72, "velocity": 115, "channel": 0}, {"type": "note_on", "time": 37, "note": 75, "velocity": 120, "channel": 0}, {"type": "note_off", "time": 75, "note": 75, "velocity": 120, "channel": 0}, {"type": "note_on", "time": 19, "note": 72, "velocity": 117, "channel": 0}, {"type": "note_off", "time": 72, "note": 72, "velocity": 117, "channel": 0}, {"type": "note_on", "time": 31, "note": 73, "velocity": 120, "channel": 0}, {"type": "note_off", "time": 72, "note": 73, "velocity": 120, "channel": 0}, {"type": "note_on", "time": 17, "note": 75, "velocity": 121, "channel": 0}, {"type": "note_off", "time": 70, "note": 75, "velocity": 121, "channel": 0}, {"type": "note_on", "time": 24, "note": 77, "velocity": 121, "channel": 0}, {"type": "note_off", "time": 82, "note": 77, "velocity": 121, "channel": 0}, {"type": "note_on", "time": 10, "note": 80, "velocity": 123, "channel": 0}, {"type": "note_off", "time": 87, "note": 80, "velocity": 123, "channel": 0}, {"type": "note_on", "time": 27, "note": 79, "velocity": 118, "channel": 0}, {"type": "note_off", "time": 82, "note": 79, "velocity": 118, "channel": 0}, {"type": "note_on", "time": 11, "note": 77, "velocity": 122, "channel": 0}, {"type": "note_off", "time": 78, "note": 77, "velocity": 122, "channel": 0}, {"type": "note_on", "time": 19, "note": 75, "velocity": 113, "channel": 0}, {"type": "note_off", "time": 77, "note": 75, "velocity": 113, "channel": 0}, {"type": "note_on", "time": 13, "note": 74, "velocity": 117, "channel": 0}, {"type": "note_off", "time": 90, "note": 74, "velocity": 117, "channel": 0}, {"type": "note_on", "time": 19, "note": 73, "velocity": 115, "channel": 0}, {"type": "note_off", "time": 73, "note": 73, "velocity": 115, "channel": 0}, {"type": "note_on", "time": 27, "note": 72, "velocity": 109, "channel": 0}, {"type": "note_off", "time": 65, "note": 72, "velocity": 109, "channel": 0}, {"type": "note_on", "time": 43, "note": 71, "velocity": 105, "channel": 0}, {"type": "note_off", "time": 76, "note": 71, "velocity": 105, "channel": 0}, {"type": "note_on", "time": 25, "note": 67, "velocity": 109, "channel": 0}, {"type": "note_off", "time": 45, "note": 67, "velocity": 109, "channel": 0}, {"type": "note_on", "time": 43, "note": 66, "velocity": 97, "channel": 0}, {"type": "note_off", "time": 80, "note": 66, "velocity": 97, "channel": 0}, {"type": "note_on", "time": 35, "note": 66, "velocity": 100, "channel": 0}, {"type": "note_off", "time": 54, "note": 66, "velocity": 100, "channel": 0}, {"type": "note_on", "time": 21, "note": 64, "velocity": 99, "channel": 0}, {"type": "note_off", "time": 105, "note": 64, "velocity": 99, "channel": 0}, {"type": "note_on", "time": 67, "note": 63, "velocity": 99, "channel": 0}, {"type": "note_off", "time": 123, "note": 63, "velocity": 99, "channel": 0}, {"type": "note_on", "time": 30, "note": 60, "velocity": 81, "channel": 0}, {"type": "note_off", "time": 205, "note": 60, "velocity": 81, "channel": 0}, {"type": "note_on", "time": 371, "note": 70, "velocity": 112, "channel": 0}, {"type": "note_off", "time": 74, "note": 70, "velocity": 112, "channel": 0}, {"type": "note_on", "time": 22, "note": 68, "velocity": 102, "channel": 0}, {"type": "note_off", "time": 84, "note": 68, "velocity": 102, "channel": 0}, {"type": "note_on", "time": 9, "note": 69, "velocity": 106, "channel": 0}, {"type": "note_off", "time": 35, "note": 69, "velocity": 106, "channel": 0}, {"type": "note_on", "time": 12, "note": 68, "velocity": 101, "channel": 0}, {"type": "note_off", "time": 42, "note": 68, "velocity": 101, "channel": 0}, {"type": "note_on", "time": 20, "note": 65, "velocity": 99, "channel": 0}, {"type": "note_off", "time": 89, "note": 65, "velocity": 99, "channel": 0}, {"type": "note_on", "time": 18, "note": 70, "velocity": 115, "channel": 0}, {"type": "note_off", "time": 66, "note": 70, "velocity": 115, "channel": 0}, {"type": "note_on", "time": 34, "note": 68, "velocity": 100, "channel": 0}, {"type": "note_off", "time": 83, "note": 68, "velocity": 100, "channel": 0}, {"type": "note_on", "time": 11, "note": 70, "velocity": 109, "channel": 0}, {"type": "note_off", "time": 35, "note": 70, "velocity": 109, "channel": 0}, {"type": "note_on", "time": 12, "note": 68, "velocity": 107, "channel": 0}, {"type": "note_off", "time": 31, "note": 68, "velocity": 107, "channel": 0}, {"type": "note_on", "time": 27, "note": 65, "velocity": 97, "channel": 0}, {"type": "note_off", "time": 72, "note": 65, "velocity": 97, "channel": 0}, {"type": "note_on", "time": 5, "note": 70, "velocity": 113, "channel": 0}, {"type": "note_off", "time": 67, "note": 70, "velocity": 113, "channel": 0}, {"type": "note_on", "time": 15, "note": 68, "velocity": 104, "channel": 0}, {"type": "note_off", "time": 91, "note": 68, "velocity": 104, "channel": 0}, {"type": "note_on", "time": 5, "note": 70, "velocity": 83, "channel": 0}, {"type": "note_off", "time": 27, "note": 70, "velocity": 83, "channel": 0}, {"type": "note_on", "time": 22, "note": 68, "velocity": 109, "channel": 0}, {"type": "note_off", "time": 31, "note": 68, "velocity": 109, "channel": 0}, {"type": "note_on", "time": 10, "note": 64, "velocity": 103, "channel": 0}, {"type": "note_off", "time": 102, "note": 64, "velocity": 103, "channel": 0}, {"type": "note_on", "time": 35, "note": 71, "velocity": 117, "channel": 0}, {"type": "note_off", "time": 133, "note": 71, "velocity": 117, "channel": 0}, {"type": "note_on", "time": 283, "note": 70, "velocity": 120, "channel": 0}, {"type": "note_off", "time": 71, "note": 70, "velocity": 120, "channel": 0}, {"type": "note_on", "time": 27, "note": 67, "velocity": 107, "channel": 0}, {"type": "note_off", "time": 63, "note": 67, "velocity": 107, "channel": 0}, {"type": "note_on", "time": 22, "note": 68, "velocity": 107, "channel": 0}, {"type": "note_off", "time": 32, "note": 68, "velocity": 107, "channel": 0}, {"type": "note_on", "time": 7, "note": 67, "velocity": 107, "channel": 0}, {"type": "note_off", "time": 32, "note": 67, "velocity": 107, "channel": 0}, {"type": "note_on", "time": 19, "note": 63, "velocity": 103, "channel": 0}, {"type": "note_off", "time": 75, "note": 63, "velocity": 103, "channel": 0}, {"type": "note_on", "time": 22, "note": 70, "velocity": 115, "channel": 0}, {"type": "note_off", "time": 87, "note": 70, "velocity": 115, "channel": 0}, {"type": "note_on", "time": 21, "note": 67, "velocity": 110, "channel": 0}, {"type": "note_off", "time": 83, "note": 67, "velocity": 110, "channel": 0}, {"type": "note_on", "time": 12, "note": 67, "velocity": 109, "channel": 0}, {"type": "note_off", "time": 65, "note": 67, "velocity": 109, "channel": 0}, {"type": "note_on", "time": 22, "note": 63, "velocity": 103, "channel": 0}, {"type": "note_off", "time": 77, "note": 63, "velocity": 103, "channel": 0}, {"type": "note_on", "time": 38, "note": 73, "velocity": 117, "channel": 0}, {"type": "note_off", "time": 250, "note": 73, "velocity": 117, "channel": 0}, {"type": "note_on", "time": 29, "note": 71, "velocity": 109, "channel": 0}, {"type": "note_off", "time": 91, "note": 71, "velocity": 109, "channel": 0}, {"type": "note_on", "time": 27, "note": 66, "velocity": 100, "channel": 0}, {"type": "note_off", "time": 110, "note": 66, "velocity": 100, "channel": 0}, {"type": "note_on", "time": 274, "note": 70, "velocity": 116, "channel": 0}, {"type": "note_off", "time": 77, "note": 70, "velocity": 116, "channel": 0}, {"type": "note_on", "time": 7, "note": 68, "velocity": 107, "channel": 0}, {"type": "note_off", "time": 82, "note": 68, "velocity": 107, "channel": 0}, {"type": "note_on", "time": 7, "note": 70, "velocity": 114, "channel": 0}, {"type": "note_off", "time": 47, "note": 70, "velocity": 114, "channel": 0}, {"type": "note_on", "time": 5, "note": 67, "velocity": 101, "channel": 0}, {"type": "note_off", "time": 36, "note": 67, "velocity": 101, "channel": 0}, {"type": "note_on", "time": 6, "note": 65, "velocity": 101, "channel": 0}, {"type": "note_off", "time": 101, "note": 65, "velocity": 101, "channel": 0}, {"type": "note_on", "time": 2, "note": 70, "velocity": 116, "channel": 0}, {"type": "note_off", "time": 73, "note": 70, "velocity": 116, "channel": 0}, {"type": "note_on", "time": 27, "note": 68, "velocity": 115, "channel": 0}, {"type": "note_off", "time": 65, "note": 68, "velocity": 115, "channel": 0}, {"type": "note_on", "time": 27, "note": 70, "velocity": 113, "channel": 0}, {"type": "note_off", "time": 30, "note": 70, "velocity": 113, "channel": 0}, {"type": "note_on", "time": 8, "note": 68, "velocity": 101, "channel": 0}, {"type": "note_off", "time": 37, "note": 68, "velocity": 101, "channel": 0}, {"type": "note_on", "time": 32, "note": 65, "velocity": 98, "channel": 0}, {"type": "note_off", "time": 72, "note": 65, "velocity": 98, "channel": 0}, {"type": "note_on", "time": 25, "note": 68, "velocity": 114, "channel": 0}, {"type": "note_off", "time": 69, "note": 68, "velocity": 114, "channel": 0}, {"type": "note_on", "time": 30, "note": 71, "velocity": 10, "channel": 0}, {"type": "note_off", "time": 85, "note": 71, "velocity": 10, "channel": 0}, {"type": "note_on", "time": 6, "note": 72, "velocity": 116, "channel": 0}, {"type": "note_off", "time": 74, "note": 72, "velocity": 116, "channel": 0}, {"type": "note_on", "time": 36, "note": 73, "velocity": 117, "channel": 0}, {"type": "note_off", "time": 78, "note": 73, "velocity": 117, "channel": 0}, {"type": "note_on", "time": 15, "note": 74, "velocity": 118, "channel": 0}, {"type": "note_off", "time": 89, "note": 74, "velocity": 118, "channel": 0}, {"type": "note_on", "time": 12, "note": 75, "velocity": 117, "channel": 0}, {"type": "note_off", "time": 97, "note": 75, "velocity": 117, "channel": 0}, {"type": "note_on", "time": 10, "note": 71, "velocity": 109, "channel": 0}, {"type": "note_off", "time": 60, "note": 71, "velocity": 109, "channel": 0}, {"type": "note_on", "time": 0, "note": 72, "velocity": 111, "channel": 0}, {"type": "note_off", "time": 50, "note": 72, "velocity": 111, "channel": 0}, {"type": "note_on", "time": 76, "note": 70, "velocity": 116, "channel": 0}, {"type": "note_off", "time": 67, "note": 70, "velocity": 116, "channel": 0}, {"type": "note_on", "time": 34, "note": 68, "velocity": 111, "channel": 0}, {"type": "note_off", "time": 72, "note": 68, "velocity": 111, "channel": 0}, {"type": "note_on", "time": 26, "note": 63, "velocity": 103, "channel": 0}, {"type": "note_off", "time": 64, "note": 63, "velocity": 103, "channel": 0}, {"type": "note_on", "time": 7, "note": 60, "velocity": 90, "channel": 0}, {"type": "note_off", "time": 115, "note": 60, "velocity": 90, "channel": 0}, {"type": "note_on", "time": 67, "note": 61, "velocity": 104, "channel": 0}, {"type": "note_off", "time": 130, "note": 61, "velocity": 104, "channel": 0}, {"type": "note_on", "time": 21, "note": 63, "velocity": 105, "channel": 0}, {"type": "note_off", "time": 82, "note": 63, "velocity": 105, "channel": 0}, {"type": "note_on", "time": 354, "note": 73, "velocity": 108, "channel": 0}, {"type": "note_off", "time": 38, "note": 73, "velocity": 108, "channel": 0}, {"type": "note_on", "time": 7, "note": 72, "velocity": 106, "channel": 0}, {"type": "note_off", "time": 31, "note": 72, "velocity": 106, "channel": 0}, {"type": "note_on", "time": 16, "note": 70, "velocity": 109, "channel": 0}, {"type": "note_off", "time": 24, "note": 70, "velocity": 109, "channel": 0}, {"type": "note_on", "time": 11, "note": 68, "velocity": 108, "channel": 0}, {"type": "note_off", "time": 50, "note": 68, "velocity": 108, "channel": 0}, {"type": "note_on", "time": 11, "note": 67, "velocity": 104, "channel": 0}, {"type": "note_off", "time": 43, "note": 67, "velocity": 104, "channel": 0}, {"type": "note_on", "time": 11, "note": 65, "velocity": 106, "channel": 0}, {"type": "note_off", "time": 42, "note": 65, "velocity": 106, "channel": 0}, {"type": "note_on", "time": 7, "note": 64, "velocity": 102, "channel": 0}, {"type": "note_off", "time": 45, "note": 64, "velocity": 102, "channel": 0}, {"type": "note_on", "time": 6, "note": 67, "velocity": 101, "channel": 0}, {"type": "note_off", "time": 38, "note": 67, "velocity": 101, "channel": 0}, {"type": "note_on", "time": 4, "note": 70, "velocity": 90, "channel": 0}, {"type": "note_off", "time": 32, "note": 70, "velocity": 90, "channel": 0}, {"type": "note_on", "time": 6, "note": 73, "velocity": 107, "channel": 0}, {"type": "note_off", "time": 56, "note": 73, "velocity": 107, "channel": 0}, {"type": "note_on", "time": 2, "note": 72, "velocity": 108, "channel": 0}, {"type": "note_off", "time": 46, "note": 72, "velocity": 108, "channel": 0}, {"type": "note_on", "time": 2, "note": 70, "velocity": 107, "channel": 0}, {"type": "note_off", "time": 16, "note": 70, "velocity": 107, "channel": 0}, {"type": "note_on", "time": 9, "note": 68, "velocity": 92, "channel": 0}, {"type": "note_off", "time": 77, "note": 68, "velocity": 92, "channel": 0}, {"type": "note_on", "time": 20, "note": 65, "velocity": 103, "channel": 0}, {"type": "note_off", "time": 36, "note": 65, "velocity": 103, "channel": 0}, {"type": "note_on", "time": 25, "note": 68, "velocity": 114, "channel": 0}, {"type": "note_off", "time": 36, "note": 68, "velocity": 114, "channel": 0}, {"type": "note_on", "time": 7, "note": 67, "velocity": 104, "channel": 0}, {"type": "note_off", "time": 22, "note": 67, "velocity": 104, "channel": 0}, {"type": "note_on", "time": 19, "note": 65, "velocity": 106, "channel": 0}, {"type": "note_off", "time": 35, "note": 65, "velocity": 106, "channel": 0}, {"type": "note_on", "time": 9, "note": 64, "velocity": 100, "channel": 0}, {"type": "note_off", "time": 45, "note": 64, "velocity": 100, "channel": 0}, {"type": "note_on", "time": 52, "note": 66, "velocity": 110, "channel": 0}, {"type": "note_off", "time": 32, "note": 66, "velocity": 110, "channel": 0}, {"type": "note_on", "time": 3, "note": 65, "velocity": 105, "channel": 0}, {"type": "note_off", "time": 14, "note": 65, "velocity": 105, "channel": 0}, {"type": "note_on", "time": 3, "note": 64, "velocity": 102, "channel": 0}, {"type": "note_off", "time": 27, "note": 64, "velocity": 102, "channel": 0}, {"type": "note_on", "time": 1, "note": 65, "velocity": 100, "channel": 0}, {"type": "note_off", "time": 36, "note": 65, "velocity": 100, "channel": 0}, {"type": "note_on", "time": 5, "note": 66, "velocity": 103, "channel": 0}, {"type": "note_off", "time": 44, "note": 66, "velocity": 103, "channel": 0}, {"type": "note_on", "time": 10, "note": 68, "velocity": 100, "channel": 0}, {"type": "note_off", "time": 45, "note": 68, "velocity": 100, "channel": 0}, {"type": "note_on", "time": 10, "note": 70, "velocity": 109, "channel": 0}, {"type": "note_off", "time": 57, "note": 70, "velocity": 109, "channel": 0}, {"type": "note_on", "time": 10, "note": 72, "velocity": 105, "channel": 0}, {"type": "note_off", "time": 62, "note": 72, "velocity": 105, "channel": 0}, {"type": "note_on", "time": 13, "note": 77, "velocity": 116, "channel": 0}, {"type": "note_off", "time": 42, "note": 77, "velocity": 116, "channel": 0}, {"type": "note_on", "time": 6, "note": 74, "velocity": 99, "channel": 0}, {"type": "note_off", "time": 20, "note": 74, "velocity": 99, "channel": 0}, {"type": "note_on", "time": 9, "note": 71, "velocity": 106, "channel": 0}, {"type": "note_off", "time": 28, "note": 71, "velocity": 106, "channel": 0}, {"type": "note_on", "time": 9, "note": 70, "velocity": 101, "channel": 0}, {"type": "note_off", "time": 22, "note": 70, "velocity": 101, "channel": 0}, {"type": "note_on", "time": 13, "note": 68, "velocity": 102, "channel": 0}, {"type": "note_off", "time": 27, "note": 68, "velocity": 102, "channel": 0}, {"type": "note_on", "time": 21, "note": 72, "velocity": 115, "channel": 0}, {"type": "note_off", "time": 76, "note": 72, "velocity": 115, "channel": 0}, {"type": "note_on", "time": 361, "note": 72, "velocity": 116, "channel": 0}, {"type": "note_off", "time": 42, "note": 72, "velocity": 116, "channel": 0}, {"type": "note_on", "time": 9, "note": 72, "velocity": 99, "channel": 0}, {"type": "note_off", "time": 22, "note": 72, "velocity": 99, "channel": 0}, {"type": "note_on", "time": 2, "note": 69, "velocity": 107, "channel": 0}, {"type": "note_off", "time": 27, "note": 69, "velocity": 107, "channel": 0}, {"type": "note_on", "time": 6, "note": 70, "velocity": 111, "channel": 0}, {"type": "note_off", "time": 27, "note": 70, "velocity": 111, "channel": 0}, {"type": "note_on", "time": 9, "note": 72, "velocity": 112, "channel": 0}, {"type": "note_off", "time": 30, "note": 72, "velocity": 112, "channel": 0}, {"type": "note_on", "time": 15, "note": 73, "velocity": 110, "channel": 0}, {"type": "note_off", "time": 40, "note": 73, "velocity": 110, "channel": 0}, {"type": "note_on", "time": 7, "note": 75, "velocity": 109, "channel": 0}, {"type": "note_off", "time": 37, "note": 75, "velocity": 109, "channel": 0}, {"type": "note_on", "time": 7, "note": 77, "velocity": 111, "channel": 0}, {"type": "note_off", "time": 37, "note": 77, "velocity": 111, "channel": 0}, {"type": "note_on", "time": 12, "note": 80, "velocity": 121, "channel": 0}, {"type": "note_off", "time": 50, "note": 80, "velocity": 121, "channel": 0}, {"type": "note_on", "time": 7, "note": 79, "velocity": 116, "channel": 0}, {"type": "note_off", "time": 37, "note": 79, "velocity": 116, "channel": 0}, {"type": "note_on", "time": 6, "note": 77, "velocity": 120, "channel": 0}, {"type": "note_off", "time": 51, "note": 77, "velocity": 120, "channel": 0}, {"type": "note_on", "time": 8, "note": 75, "velocity": 115, "channel": 0}, {"type": "note_off", "time": 34, "note": 75, "velocity": 115, "channel": 0}, {"type": "note_on", "time": 7, "note": 74, "velocity": 114, "channel": 0}, {"type": "note_off", "time": 30, "note": 74, "velocity": 114, "channel": 0}, {"type": "note_on", "time": 7, "note": 73, "velocity": 112, "channel": 0}, {"type": "note_off", "time": 30, "note": 73, "velocity": 112, "channel": 0}, {"type": "note_on", "time": 5, "note": 74, "velocity": 107, "channel": 0}, {"type": "note_off", "time": 19, "note": 74, "velocity": 107, "channel": 0}, {"type": "note_on", "time": 7, "note": 73, "velocity": 87, "channel": 0}, {"type": "note_off", "time": 27, "note": 73, "velocity": 87, "channel": 0}, {"type": "note_on", "time": 2, "note": 70, "velocity": 97, "channel": 0}, {"type": "note_off", "time": 28, "note": 70, "velocity": 97, "channel": 0}, {"type": "note_on", "time": 6, "note": 68, "velocity": 106, "channel": 0}, {"type": "note_off", "time": 96, "note": 68, "velocity": 106, "channel": 0}, {"type": "note_on", "time": 11, "note": 74, "velocity": 107, "channel": 0}, {"type": "note_off", "time": 30, "note": 74, "velocity": 107, "channel": 0}, {"type": "note_on", "time": 9, "note": 73, "velocity": 113, "channel": 0}, {"type": "note_off", "time": 48, "note": 73, "velocity": 113, "channel": 0}, {"type": "note_on", "time": 11, "note": 77, "velocity": 125, "channel": 0}, {"type": "note_off", "time": 41, "note": 77, "velocity": 125, "channel": 0}, {"type": "note_on", "time": 10, "note": 75, "velocity": 108, "channel": 0}, {"type": "note_off", "time": 25, "note": 75, "velocity": 108, "channel": 0}, {"type": "note_on", "time": 12, "note": 72, "velocity": 113, "channel": 0}, {"type": "note_off", "time": 47, "note": 72, "velocity": 113, "channel": 0}, {"type": "note_on", "time": 9, "note": 73, "velocity": 119, "channel": 0}, {"type": "note_off", "time": 55, "note": 73, "velocity": 119, "channel": 0}, {"type": "note_on", "time": 5, "note": 71, "velocity": 113, "channel": 0}, {"type": "note_off", "time": 39, "note": 71, "velocity": 113, "channel": 0}, {"type": "note_on", "time": 10, "note": 72, "velocity": 113, "channel": 0}, {"type": "note_off", "time": 29, "note": 72, "velocity": 113, "channel": 0}, {"type": "note_on", "time": 18, "note": 70, "velocity": 116, "channel": 0}, {"type": "note_off", "time": 34, "note": 70, "velocity": 116, "channel": 0}, {"type": "note_on", "time": 4, "note": 69, "velocity": 107, "channel": 0}, {"type": "note_off", "time": 40, "note": 69, "velocity": 107, "channel": 0}, {"type": "note_on", "time": 18, "note": 67, "velocity": 100, "channel": 0}, {"type": "note_off", "time": 32, "note": 67, "velocity": 100, "channel": 0}, {"type": "note_on", "time": 5, "note": 68, "velocity": 111, "channel": 0}, {"type": "note_off", "time": 55, "note": 68, "velocity": 111, "channel": 0}, {"type": "note_on", "time": 144, "note": 70, "velocity": 112, "channel": 0}, {"type": "note_off", "time": 37, "note": 70, "velocity": 112, "channel": 0}, {"type": "note_on", "time": 22, "note": 69, "velocity": 112, "channel": 0}, {"type": "note_off", "time": 28, "note": 69, "velocity": 112, "channel": 0}, {"type": "note_on", "time": 2, "note": 70, "velocity": 109, "channel": 0}, {"type": "note_off", "time": 10, "note": 70, "velocity": 109, "channel": 0}, {"type": "note_on", "time": 6, "note": 68, "velocity": 100, "channel": 0}, {"type": "note_off", "time": 32, "note": 68, "velocity": 100, "channel": 0}, {"type": "note_on", "time": 5, "note": 67, "velocity": 113, "channel": 0}, {"type": "note_off", "time": 53, "note": 67, "velocity": 113, "channel": 0}, {"type": "note_on", "time": 8, "note": 66, "velocity": 108, "channel": 0}, {"type": "note_off", "time": 38, "note": 66, "velocity": 108, "channel": 0}, {"type": "note_on", "time": 13, "note": 68, "velocity": 107, "channel": 0}, {"type": "note_off", "time": 57, "note": 68, "velocity": 107, "channel": 0}, {"type": "note_on", "time": 4, "note": 70, "velocity": 104, "channel": 0}, {"type": "note_off", "time": 22, "note": 70, "velocity": 104, "channel": 0}, {"type": "note_on", "time": 6, "note": 69, "velocity": 103, "channel": 0}, {"type": "note_off", "time": 53, "note": 69, "velocity": 103, "channel": 0}, {"type": "note_on", "time": 12, "note": 79, "velocity": 113, "channel": 0}, {"type": "note_off", "time": 35, "note": 79, "velocity": 113, "channel": 0}, {"type": "note_on", "time": 5, "note": 77, "velocity": 117, "channel": 0}, {"type": "note_off", "time": 42, "note": 77, "velocity": 117, "channel": 0}, {"type": "note_on", "time": 248, "note": 72, "velocity": 112, "channel": 0}, {"type": "note_off", "time": 73, "note": 72, "velocity": 112, "channel": 0}, {"type": "note_on", "time": 17, "note": 75, "velocity": 120, "channel": 0}, {"type": "note_off", "time": 110, "note": 75, "velocity": 120, "channel": 0}, {"type": "note_on", "time": 0, "note": 73, "velocity": 118, "channel": 0}, {"type": "note_off", "time": 92, "note": 73, "velocity": 118, "channel": 0}, {"type": "note_on", "time": 2, "note": 72, "velocity": 115, "channel": 0}, {"type": "note_off", "time": 76, "note": 72, "velocity": 115, "channel": 0}, {"type": "note_on", "time": 16, "note": 68, "velocity": 109, "channel": 0}, {"type": "note_off", "time": 75, "note": 68, "velocity": 109, "channel": 0}, {"type": "note_on", "time": 15, "note": 65, "velocity": 101, "channel": 0}, {"type": "note_off", "time": 92, "note": 65, "velocity": 101, "channel": 0}, {"type": "note_on", "time": 62, "note": 70, "velocity": 114, "channel": 0}, {"type": "note_off", "time": 22, "note": 70, "velocity": 114, "channel": 0}, {"type": "note_on", "time": 9, "note": 68, "velocity": 112, "channel": 0}, {"type": "note_off", "time": 21, "note": 68, "velocity": 112, "channel": 0}, {"type": "note_on", "time": 8, "note": 67, "velocity": 109, "channel": 0}, {"type": "note_off", "time": 71, "note": 67, "velocity": 109, "channel": 0}, {"type": "note_on", "time": 22, "note": 65, "velocity": 110, "channel": 0}, {"type": "note_off", "time": 90, "note": 65, "velocity": 110, "channel": 0}, {"type": "note_on", "time": 15, "note": 62, "velocity": 93, "channel": 0}, {"type": "note_off", "time": 35, "note": 62, "velocity": 93, "channel": 0}, {"type": "note_on", "time": 5, "note": 63, "velocity": 91, "channel": 0}, {"type": "note_off", "time": 95, "note": 63, "velocity": 91, "channel": 0}, {"type": "note_on", "time": 16, "note": 64, "velocity": 94, "channel": 0}, {"type": "note_off", "time": 93, "note": 64, "velocity": 94, "channel": 0}, {"type": "note_on", "time": 13, "note": 67, "velocity": 106, "channel": 0}, {"type": "note_off", "time": 60, "note": 67, "velocity": 106, "channel": 0}, {"type": "note_on", "time": 45, "note": 69, "velocity": 104, "channel": 0}, {"type": "note_off", "time": 67, "note": 69, "velocity": 104, "channel": 0}, {"type": "note_on", "time": 29, "note": 71, "velocity": 112, "channel": 0}, {"type": "note_off", "time": 67, "note": 71, "velocity": 112, "channel": 0}, {"type": "note_on", "time": 37, "note": 74, "velocity": 119, "channel": 0}, {"type": "note_off", "time": 75, "note": 74, "velocity": 119, "channel": 0}, {"type": "note_on", "time": 9, "note": 71, "velocity": 106, "channel": 0}, {"type": "note_off", "time": 82, "note": 71, "velocity": 106, "channel": 0}, {"type": "note_on", "time": 15, "note": 72, "velocity": 108, "channel": 0}, {"type": "note_off", "time": 78, "note": 72, "velocity": 108, "channel": 0}, {"type": "note_on", "time": 17, "note": 74, "velocity": 115, "channel": 0}, {"type": "note_off", "time": 80, "note": 74, "velocity": 115, "channel": 0}, {"type": "note_on", "time": 30, "note": 77, "velocity": 108, "channel": 0}, {"type": "note_off", "time": 32, "note": 77, "velocity": 108, "channel": 0}, {"type": "note_on", "time": 16, "note": 75, "velocity": 103, "channel": 0}, {"type": "note_off", "time": 31, "note": 75, "velocity": 103, "channel": 0}, {"type": "note_on", "time": 13, "note": 76, "velocity": 119, "channel": 0}, {"type": "note_off", "time": 62, "note": 76, "velocity": 119, "channel": 0}, {"type": "note_on", "time": 37, "note": 81, "velocity": 115, "channel": 0}, {"type": "note_off", "time": 65, "note": 81, "velocity": 115, "channel": 0}, {"type": "note_on", "time": 15, "note": 80, "velocity": 119, "channel": 0}, {"type": "note_off", "time": 79, "note": 80, "velocity": 119, "channel": 0}, {"type": "note_on", "time": 15, "note": 79, "velocity": 112, "channel": 0}, {"type": "note_off", "time": 75, "note": 79, "velocity": 112, "channel": 0}, {"type": "note_on", "time": 15, "note": 78, "velocity": 112, "channel": 0}, {"type": "note_off", "time": 76, "note": 78, "velocity": 112, "channel": 0}, {"type": "note_on", "time": 16, "note": 77, "velocity": 114, "channel": 0}, {"type": "note_off", "time": 80, "note": 77, "velocity": 114, "channel": 0}, {"type": "note_on", "time": 7, "note": 76, "velocity": 115, "channel": 0}, {"type": "note_off", "time": 92, "note": 76, "velocity": 115, "channel": 0}, {"type": "note_on", "time": 7, "note": 75, "velocity": 113, "channel": 0}, {"type": "note_off", "time": 105, "note": 75, "velocity": 113, "channel": 0}, {"type": "note_on", "time": 13, "note": 67, "velocity": 87, "channel": 0}, {"type": "note_off", "time": 25, "note": 67, "velocity": 87, "channel": 0}, {"type": "note_on", "time": 55, "note": 72, "velocity": 110, "channel": 0}, {"type": "note_off", "time": 85, "note": 72, "velocity": 110, "channel": 0}, {"type": "note_on", "time": 22, "note": 75, "velocity": 116, "channel": 0}, {"type": "note_off", "time": 82, "note": 75, "velocity": 116, "channel": 0}, {"type": "note_on", "time": 23, "note": 74, "velocity": 115, "channel": 0}, {"type": "note_off", "time": 72, "note": 74, "velocity": 115, "channel": 0}, {"type": "note_on", "time": 18, "note": 72, "velocity": 113, "channel": 0}, {"type": "note_off", "time": 82, "note": 72, "velocity": 113, "channel": 0}, {"type": "note_on", "time": 17, "note": 71, "velocity": 107, "channel": 0}, {"type": "note_off", "time": 80, "note": 71, "velocity": 107, "channel": 0}, {"type": "note_on", "time": 12, "note": 63, "velocity": 98, "channel": 0}, {"type": "note_off", "time": 94, "note": 63, "velocity": 98, "channel": 0}, {"type": "note_on", "time": 9, "note": 70, "velocity": 106, "channel": 0}, {"type": "note_off", "time": 147, "note": 70, "velocity": 106, "channel": 0}, {"type": "note_on", "time": 25, "note": 68, "velocity": 108, "channel": 0}, {"type": "note_off", "time": 109, "note": 68, "velocity": 108, "channel": 0}, {"type": "note_on", "time": 9, "note": 65, "velocity": 108, "channel": 0}, {"type": "note_off", "time": 76, "note": 65, "velocity": 108, "channel": 0}, {"type": "note_on", "time": 230, "note": 79, "velocity": 123, "channel": 0}, {"type": "note_off", "time": 82, "note": 79, "velocity": 123, "channel": 0}, {"type": "note_on", "time": 5, "note": 80, "velocity": 117, "channel": 0}, {"type": "note_off", "time": 77, "note": 80, "velocity": 117, "channel": 0}, {"type": "note_on", "time": 15, "note": 79, "velocity": 114, "channel": 0}, {"type": "note_off", "time": 63, "note": 79, "velocity": 114, "channel": 0}, {"type": "note_on", "time": 11, "note": 77, "velocity": 114, "channel": 0}, {"type": "note_off", "time": 90, "note": 77, "velocity": 114, "channel": 0}, {"type": "note_on", "time": 30, "note": 76, "velocity": 115, "channel": 0}, {"type": "note_off", "time": 62, "note": 76, "velocity": 115, "channel": 0}, {"type": "note_on", "time": 29, "note": 74, "velocity": 112, "channel": 0}, {"type": "note_off", "time": 69, "note": 74, "velocity": 112, "channel": 0}, {"type": "note_on", "time": 30, "note": 75, "velocity": 113, "channel": 0}, {"type": "note_off", "time": 137, "note": 75, "velocity": 113, "channel": 0}, {"type": "note_on", "time": 32, "note": 73, "velocity": 113, "channel": 0}, {"type": "note_off", "time": 48, "note": 73, "velocity": 113, "channel": 0}, {"type": "note_on", "time": 13, "note": 71, "velocity": 105, "channel": 0}, {"type": "note_off", "time": 36, "note": 71, "velocity": 105, "channel": 0}, {"type": "note_on", "time": 17, "note": 70, "velocity": 105, "channel": 0}, {"type": "note_off", "time": 35, "note": 70, "velocity": 105, "channel": 0}, {"type": "note_on", "time": 7, "note": 68, "velocity": 102, "channel": 0}, {"type": "note_off", "time": 50, "note": 68, "velocity": 102, "channel": 0}, {"type": "note_on", "time": 6, "note": 67, "velocity": 107, "channel": 0}, {"type": "note_off", "time": 65, "note": 67, "velocity": 107, "channel": 0}, {"type": "note_on", "time": 42, "note": 65, "velocity": 104, "channel": 0}, {"type": "note_off", "time": 66, "note": 65, "velocity": 104, "channel": 0}, {"type": "note_on", "time": 550, "note": 74, "velocity": 114, "channel": 0}, {"type": "note_off", "time": 60, "note": 74, "velocity": 114, "channel": 0}, {"type": "note_on", "time": 2, "note": 75, "velocity": 114, "channel": 0}, {"type": "note_off", "time": 165, "note": 75, "velocity": 114, "channel": 0}, {"type": "note_on", "time": 64, "note": 72, "velocity": 110, "channel": 0}, {"type": "note_off", "time": 82, "note": 72, "velocity": 110, "channel": 0}, {"type": "note_on", "time": 30, "note": 70, "velocity": 110, "channel": 0}, {"type": "note_off", "time": 95, "note": 70, "velocity": 110, "channel": 0}, {"type": "note_on", "time": 18, "note": 68, "velocity": 116, "channel": 0}, {"type": "note_off", "time": 37, "note": 68, "velocity": 116, "channel": 0}, {"type": "note_on", "time": 5, "note": 67, "velocity": 105, "channel": 0}, {"type": "note_off", "time": 45, "note": 67, "velocity": 105, "channel": 0}, {"type": "note_on", "time": 5, "note": 68, "velocity": 109, "channel": 0}, {"type": "note_off", "time": 143, "note": 68, "velocity": 109, "channel": 0}, {"type": "note_on", "time": 36, "note": 67, "velocity": 101, "channel": 0}, {"type": "note_off", "time": 155, "note": 67, "velocity": 101, "channel": 0}, {"type": "note_on", "time": 12, "note": 63, "velocity": 101, "channel": 0}, {"type": "note_off", "time": 110, "note": 63, "velocity": 101, "channel": 0}, {"type": "note_on", "time": 92, "note": 65, "velocity": 103, "channel": 0}, {"type": "note_off", "time": 80, "note": 65, "velocity": 103, "channel": 0}, {"type": "note_on", "time": 27, "note": 63, "velocity": 101, "channel": 0}, {"type": "note_off", "time": 74, "note": 63, "velocity": 101, "channel": 0}, {"type": "note_on", "time": 32, "note": 62, "velocity": 96, "channel": 0}, {"type": "note_off", "time": 67, "note": 62, "velocity": 96, "channel": 0}, {"type": "note_on", "time": 20, "note": 60, "velocity": 90, "channel": 0}, {"type": "note_off", "time": 70, "note": 60, "velocity": 90, "channel": 0}, {"type": "note_on", "time": 18, "note": 59, "velocity": 80, "channel": 0}, {"type": "note_off", "time": 76, "note": 59, "velocity": 80, "channel": 0}, {"type": "note_on", "time": 17, "note": 62, "velocity": 91, "channel": 0}, {"type": "note_off", "time": 58, "note": 62, "velocity": 91, "channel": 0}, {"type": "note_on", "time": 39, "note": 64, "velocity": 98, "channel": 0}, {"type": "note_off", "time": 71, "note": 64, "velocity": 98, "channel": 0}, {"type": "note_on", "time": 40, "note": 66, "velocity": 100, "channel": 0}, {"type": "note_off", "time": 52, "note": 66, "velocity": 100, "channel": 0}, {"type": "note_on", "time": 39, "note": 69, "velocity": 108, "channel": 0}, {"type": "note_off", "time": 46, "note": 69, "velocity": 108, "channel": 0}, {"type": "note_on", "time": 3, "note": 70, "velocity": 106, "channel": 0}, {"type": "note_off", "time": 9, "note": 70, "velocity": 106, "channel": 0}, {"type": "note_on", "time": 10, "note": 69, "velocity": 101, "channel": 0}, {"type": "note_off", "time": 30, "note": 69, "velocity": 101, "channel": 0}, {"type": "note_on", "time": 6, "note": 66, "velocity": 101, "channel": 0}, {"type": "note_off", "time": 64, "note": 66, "velocity": 101, "channel": 0}, {"type": "note_on", "time": 33, "note": 67, "velocity": 106, "channel": 0}, {"type": "note_off", "time": 63, "note": 67, "velocity": 106, "channel": 0}, {"type": "note_on", "time": 23, "note": 69, "velocity": 109, "channel": 0}, {"type": "note_off", "time": 59, "note": 69, "velocity": 109, "channel": 0}, {"type": "note_on", "time": 38, "note": 70, "velocity": 109, "channel": 0}, {"type": "note_off", "time": 68, "note": 70, "velocity": 109, "channel": 0}, {"type": "note_on", "time": 14, "note": 71, "velocity": 112, "channel": 0}, {"type": "note_off", "time": 63, "note": 71, "velocity": 112, "channel": 0}, {"type": "note_on", "time": 65, "note": 76, "velocity": 114, "channel": 0}, {"type": "note_off", "time": 59, "note": 76, "velocity": 114, "channel": 0}, {"type": "note_on", "time": 8, "note": 75, "velocity": 118, "channel": 0}, {"type": "note_off", "time": 91, "note": 75, "velocity": 118, "channel": 0}, {"type": "note_on", "time": 6, "note": 74, "velocity": 115, "channel": 0}, {"type": "note_off", "time": 86, "note": 74, "velocity": 115, "channel": 0}, {"type": "note_on", "time": 11, "note": 71, "velocity": 94, "channel": 0}, {"type": "note_off", "time": 52, "note": 71, "velocity": 94, "channel": 0}, {"type": "note_on", "time": 29, "note": 72, "velocity": 109, "channel": 0}, {"type": "note_off", "time": 28, "note": 72, "velocity": 109, "channel": 0}, {"type": "note_on", "time": 6, "note": 73, "velocity": 113, "channel": 0}, {"type": "note_off", "time": 28, "note": 73, "velocity": 113, "channel": 0}, {"type": "note_on", "time": 4, "note": 72, "velocity": 104, "channel": 0}, {"type": "note_off", "time": 24, "note": 72, "velocity": 104, "channel": 0}, {"type": "note_on", "time": 6, "note": 71, "velocity": 108, "channel": 0}, {"type": "note_off", "time": 62, "note": 71, "velocity": 108, "channel": 0}, {"type": "note_on", "time": 25, "note": 72, "velocity": 113, "channel": 0}, {"type": "note_off", "time": 75, "note": 72, "velocity": 113, "channel": 0}, {"type": "note_on", "time": 26, "note": 74, "velocity": 116, "channel": 0}, {"type": "note_off", "time": 71, "note": 74, "velocity": 116, "channel": 0}, {"type": "note_on", "time": 26, "note": 76, "velocity": 119, "channel": 0}, {"type": "note_off", "time": 64, "note": 76, "velocity": 119, "channel": 0}, {"type": "note_on", "time": 35, "note": 79, "velocity": 118, "channel": 0}, {"type": "note_off", "time": 74, "note": 79, "velocity": 118, "channel": 0}, {"type": "note_on", "time": 37, "note": 83, "velocity": 119, "channel": 0}, {"type": "note_off", "time": 105, "note": 83, "velocity": 119, "channel": 0}, {"type": "note_on", "time": 27, "note": 81, "velocity": 117, "channel": 0}, {"type": "note_off", "time": 62, "note": 81, "velocity": 117, "channel": 0}, {"type": "note_on", "time": 55, "note": 79, "velocity": 116, "channel": 0}, {"type": "note_off", "time": 80, "note": 79, "velocity": 116, "channel": 0}, {"type": "note_on", "time": 20, "note": 78, "velocity": 117, "channel": 0}, {"type": "note_off", "time": 84, "note": 78, "velocity": 117, "channel": 0}, {"type": "note_on", "time": 185, "note": 82, "velocity": 108, "channel": 0}, {"type": "note_off", "time": 81, "note": 82, "velocity": 108, "channel": 0}, {"type": "note_on", "time": 28, "note": 77, "velocity": 114, "channel": 0}, {"type": "note_off", "time": 73, "note": 77, "velocity": 114, "channel": 0}, {"type": "note_on", "time": 19, "note": 76, "velocity": 115, "channel": 0}, {"type": "note_off", "time": 82, "note": 76, "velocity": 115, "channel": 0}, {"type": "note_on", "time": 14, "note": 75, "velocity": 113, "channel": 0}, {"type": "note_off", "time": 68, "note": 75, "velocity": 113, "channel": 0}, {"type": "note_on", "time": 11, "note": 77, "velocity": 115, "channel": 0}, {"type": "note_off", "time": 75, "note": 77, "velocity": 115, "channel": 0}, {"type": "note_on", "time": 29, "note": 74, "velocity": 117, "channel": 0}, {"type": "note_off", "time": 69, "note": 74, "velocity": 117, "channel": 0}, {"type": "note_on", "time": 14, "note": 71, "velocity": 110, "channel": 0}, {"type": "note_off", "time": 62, "note": 71, "velocity": 110, "channel": 0}, {"type": "note_on", "time": 36, "note": 72, "velocity": 109, "channel": 0}, {"type": "note_off", "time": 69, "note": 72, "velocity": 109, "channel": 0}, {"type": "note_on", "time": 17, "note": 70, "velocity": 107, "channel": 0}, {"type": "note_off", "time": 65, "note": 70, "velocity": 107, "channel": 0}, {"type": "note_on", "time": 40, "note": 71, "velocity": 106, "channel": 0}, {"type": "note_off", "time": 78, "note": 71, "velocity": 106, "channel": 0}, {"type": "note_on", "time": 38, "note": 66, "velocity": 101, "channel": 0}, {"type": "note_off", "time": 65, "note": 66, "velocity": 101, "channel": 0}, {"type": "note_on", "time": 31, "note": 62, "velocity": 94, "channel": 0}, {"type": "note_off", "time": 60, "note": 62, "velocity": 94, "channel": 0}, {"type": "note_on", "time": 112, "note": 64, "velocity": 90, "channel": 0}, {"type": "note_off", "time": 192, "note": 64, "velocity": 90, "channel": 0}, {"type": "note_on", "time": 962, "note": 83, "velocity": 106, "channel": 0}, {"type": "note_off", "time": 291, "note": 83, "velocity": 106, "channel": 0}, {"type": "note_on", "time": 87, "note": 82, "velocity": 115, "channel": 0}, {"type": "note_off", "time": 83, "note": 82, "velocity": 115, "channel": 0}, {"type": "note_on", "time": 12, "note": 80, "velocity": 121, "channel": 0}, {"type": "note_off", "time": 75, "note": 80, "velocity": 121, "channel": 0}, {"type": "note_on", "time": 20, "note": 78, "velocity": 115, "channel": 0}, {"type": "note_off", "time": 84, "note": 78, "velocity": 115, "channel": 0}, {"type": "note_on", "time": 5, "note": 76, "velocity": 120, "channel": 0}, {"type": "note_off", "time": 84, "note": 76, "velocity": 120, "channel": 0}, {"type": "note_on", "time": 12, "note": 75, "velocity": 115, "channel": 0}, {"type": "note_off", "time": 71, "note": 75, "velocity": 115, "channel": 0}, {"type": "note_on", "time": 14, "note": 73, "velocity": 116, "channel": 0}, {"type": "note_off", "time": 72, "note": 73, "velocity": 116, "channel": 0}, {"type": "note_on", "time": 25, "note": 71, "velocity": 114, "channel": 0}, {"type": "note_off", "time": 62, "note": 71, "velocity": 114, "channel": 0}, {"type": "note_on", "time": 20, "note": 69, "velocity": 111, "channel": 0}, {"type": "note_off", "time": 69, "note": 69, "velocity": 111, "channel": 0}, {"type": "note_on", "time": 29, "note": 68, "velocity": 111, "channel": 0}, {"type": "note_off", "time": 87, "note": 68, "velocity": 111, "channel": 0}, {"type": "note_on", "time": 22, "note": 63, "velocity": 104, "channel": 0}, {"type": "note_off", "time": 80, "note": 63, "velocity": 104, "channel": 0}, {"type": "note_on", "time": 30, "note": 61, "velocity": 88, "channel": 0}, {"type": "note_off", "time": 55, "note": 61, "velocity": 88, "channel": 0}, {"type": "note_on", "time": 30, "note": 63, "velocity": 99, "channel": 0}, {"type": "note_off", "time": 57, "note": 63, "velocity": 99, "channel": 0}, {"type": "note_on", "time": 45, "note": 66, "velocity": 99, "channel": 0}, {"type": "note_off", "time": 85, "note": 66, "velocity": 99, "channel": 0}, {"type": "note_on", "time": 36, "note": 64, "velocity": 93, "channel": 0}, {"type": "note_off", "time": 186, "note": 64, "velocity": 93, "channel": 0}, {"type": "note_on", "time": 892, "note": 78, "velocity": 121, "channel": 0}, {"type": "note_off", "time": 84, "note": 78, "velocity": 121, "channel": 0}, {"type": "note_on", "time": 7, "note": 79, "velocity": 118, "channel": 0}, {"type": "note_off", "time": 123, "note": 79, "velocity": 118, "channel": 0}, {"type": "note_on", "time": 60, "note": 77, "velocity": 118, "channel": 0}, {"type": "note_off", "time": 78, "note": 77, "velocity": 118, "channel": 0}, {"type": "note_on", "time": 27, "note": 72, "velocity": 108, "channel": 0}, {"type": "note_off", "time": 49, "note": 72, "velocity": 108, "channel": 0}, {"type": "note_on", "time": 51, "note": 75, "velocity": 114, "channel": 0}, {"type": "note_off", "time": 75, "note": 75, "velocity": 114, "channel": 0}, {"type": "note_on", "time": 9, "note": 72, "velocity": 108, "channel": 0}, {"type": "note_off", "time": 68, "note": 72, "velocity": 108, "channel": 0}, {"type": "note_on", "time": 11, "note": 73, "velocity": 109, "channel": 0}, {"type": "note_off", "time": 82, "note": 73, "velocity": 109, "channel": 0}, {"type": "note_on", "time": 11, "note": 75, "velocity": 114, "channel": 0}, {"type": "note_off", "time": 79, "note": 75, "velocity": 114, "channel": 0}, {"type": "note_on", "time": 21, "note": 77, "velocity": 111, "channel": 0}, {"type": "note_off", "time": 79, "note": 77, "velocity": 111, "channel": 0}, {"type": "note_on", "time": 12, "note": 80, "velocity": 111, "channel": 0}, {"type": "note_off", "time": 87, "note": 80, "velocity": 111, "channel": 0}, {"type": "note_on", "time": 23, "note": 79, "velocity": 112, "channel": 0}, {"type": "note_off", "time": 73, "note": 79, "velocity": 112, "channel": 0}, {"type": "note_on", "time": 25, "note": 77, "velocity": 110, "channel": 0}, {"type": "note_off", "time": 78, "note": 77, "velocity": 110, "channel": 0}, {"type": "note_on", "time": 19, "note": 75, "velocity": 111, "channel": 0}, {"type": "note_off", "time": 82, "note": 75, "velocity": 111, "channel": 0}, {"type": "note_on", "time": 7, "note": 74, "velocity": 116, "channel": 0}, {"type": "note_off", "time": 83, "note": 74, "velocity": 116, "channel": 0}, {"type": "note_on", "time": 6, "note": 73, "velocity": 114, "channel": 0}, {"type": "note_off", "time": 93, "note": 73, "velocity": 114, "channel": 0}, {"type": "note_on", "time": 8, "note": 72, "velocity": 109, "channel": 0}, {"type": "note_off", "time": 87, "note": 72, "velocity": 109, "channel": 0}, {"type": "note_on", "time": 17, "note": 71, "velocity": 114, "channel": 0}, {"type": "note_off", "time": 79, "note": 71, "velocity": 114, "channel": 0}, {"type": "note_on", "time": 10, "note": 67, "velocity": 115, "channel": 0}, {"type": "note_off", "time": 74, "note": 67, "velocity": 115, "channel": 0}, {"type": "note_on", "time": 34, "note": 66, "velocity": 103, "channel": 0}, {"type": "note_off", "time": 99, "note": 66, "velocity": 103, "channel": 0}, {"type": "note_on", "time": 5, "note": 66, "velocity": 109, "channel": 0}, {"type": "note_off", "time": 50, "note": 66, "velocity": 109, "channel": 0}, {"type": "note_on", "time": 29, "note": 64, "velocity": 110, "channel": 0}, {"type": "note_off", "time": 84, "note": 64, "velocity": 110, "channel": 0}, {"type": "note_on", "time": 28, "note": 60, "velocity": 98, "channel": 0}, {"type": "note_off", "time": 68, "note": 60, "velocity": 98, "channel": 0}, {"type": "note_on", "time": 10, "note": 63, "velocity": 105, "channel": 0}, {"type": "note_off", "time": 92, "note": 63, "velocity": 105, "channel": 0}, {"type": "note_on", "time": 25, "note": 60, "velocity": 82, "channel": 0}, {"type": "note_off", "time": 177, "note": 60, "velocity": 82, "channel": 0}, {"type": "note_on", "time": 388, "note": 69, "velocity": 115, "channel": 0}, {"type": "note_off", "time": 55, "note": 69, "velocity": 115, "channel": 0}, {"type": "note_on", "time": 18, "note": 70, "velocity": 117, "channel": 0}, {"type": "note_off", "time": 165, "note": 70, "velocity": 117, "channel": 0}, {"type": "note_on", "time": 23, "note": 68, "velocity": 114, "channel": 0}, {"type": "note_off", "time": 88, "note": 68, "velocity": 114, "channel": 0}, {"type": "note_on", "time": 14, "note": 65, "velocity": 114, "channel": 0}, {"type": "note_off", "time": 79, "note": 65, "velocity": 114, "channel": 0}, {"type": "note_on", "time": 22, "note": 63, "velocity": 105, "channel": 0}, {"type": "note_off", "time": 69, "note": 63, "velocity": 105, "channel": 0}, {"type": "note_on", "time": 27, "note": 65, "velocity": 117, "channel": 0}, {"type": "note_off", "time": 78, "note": 65, "velocity": 117, "channel": 0}, {"type": "note_on", "time": 22, "note": 68, "velocity": 118, "channel": 0}, {"type": "note_off", "time": 72, "note": 68, "velocity": 118, "channel": 0}, {"type": "note_on", "time": 17, "note": 70, "velocity": 120, "channel": 0}, {"type": "note_off", "time": 90, "note": 70, "velocity": 120, "channel": 0}, {"type": "note_on", "time": 12, "note": 71, "velocity": 117, "channel": 0}, {"type": "note_off", "time": 82, "note": 71, "velocity": 117, "channel": 0}, {"type": "note_on", "time": 15, "note": 72, "velocity": 112, "channel": 0}, {"type": "note_off", "time": 21, "note": 72, "velocity": 112, "channel": 0}, {"type": "note_on", "time": 9, "note": 71, "velocity": 111, "channel": 0}, {"type": "note_off", "time": 42, "note": 71, "velocity": 111, "channel": 0}, {"type": "note_on", "time": 11, "note": 68, "velocity": 111, "channel": 0}, {"type": "note_off", "time": 80, "note": 68, "velocity": 111, "channel": 0}, {"type": "note_on", "time": 26, "note": 64, "velocity": 110, "channel": 0}, {"type": "note_off", "time": 67, "note": 64, "velocity": 110, "channel": 0}, {"type": "note_on", "time": 38, "note": 61, "velocity": 99, "channel": 0}, {"type": "note_off", "time": 39, "note": 61, "velocity": 99, "channel": 0}, {"type": "note_on", "time": 46, "note": 64, "velocity": 110, "channel": 0}, {"type": "note_off", "time": 58, "note": 64, "velocity": 110, "channel": 0}, {"type": "note_on", "time": 43, "note": 68, "velocity": 113, "channel": 0}, {"type": "note_off", "time": 68, "note": 68, "velocity": 113, "channel": 0}, {"type": "note_on", "time": 15, "note": 71, "velocity": 117, "channel": 0}, {"type": "note_off", "time": 71, "note": 71, "velocity": 117, "channel": 0}, {"type": "note_on", "time": 36, "note": 70, "velocity": 110, "channel": 0}, {"type": "note_off", "time": 70, "note": 70, "velocity": 110, "channel": 0}, {"type": "note_on", "time": 17, "note": 67, "velocity": 97, "channel": 0}, {"type": "note_off", "time": 72, "note": 67, "velocity": 97, "channel": 0}, {"type": "note_on", "time": 27, "note": 68, "velocity": 108, "channel": 0}, {"type": "note_off", "time": 68, "note": 68, "velocity": 108, "channel": 0}, {"type": "note_on", "time": 41, "note": 70, "velocity": 111, "channel": 0}, {"type": "note_off", "time": 71, "note": 70, "velocity": 111, "channel": 0}, {"type": "note_on", "time": 12, "note": 72, "velocity": 98, "channel": 0}, {"type": "note_off", "time": 36, "note": 72, "velocity": 98, "channel": 0}, {"type": "note_on", "time": 10, "note": 71, "velocity": 107, "channel": 0}, {"type": "note_off", "time": 37, "note": 71, "velocity": 107, "channel": 0}, {"type": "note_on", "time": 14, "note": 72, "velocity": 118, "channel": 0}, {"type": "note_off", "time": 78, "note": 72, "velocity": 118, "channel": 0}, {"type": "note_on", "time": 29, "note": 73, "velocity": 120, "channel": 0}, {"type": "note_off", "time": 78, "note": 73, "velocity": 120, "channel": 0}, {"type": "note_on", "time": 15, "note": 74, "velocity": 116, "channel": 0}, {"type": "note_off", "time": 85, "note": 74, "velocity": 116, "channel": 0}, {"type": "note_on", "time": 22, "note": 77, "velocity": 105, "channel": 0}, {"type": "note_off", "time": 38, "note": 77, "velocity": 105, "channel": 0}, {"type": "note_on", "time": 5, "note": 75, "velocity": 112, "channel": 0}, {"type": "note_off", "time": 103, "note": 75, "velocity": 112, "channel": 0}, {"type": "note_on", "time": 136, "note": 73, "velocity": 108, "channel": 0}, {"type": "note_off", "time": 82, "note": 73, "velocity": 108, "channel": 0}, {"type": "note_on", "time": 29, "note": 71, "velocity": 112, "channel": 0}, {"type": "note_off", "time": 94, "note": 71, "velocity": 112, "channel": 0}, {"type": "note_on", "time": 25, "note": 73, "velocity": 111, "channel": 0}, {"type": "note_off", "time": 195, "note": 73, "velocity": 111, "channel": 0}, {"type": "note_on", "time": 49, "note": 70, "velocity": 111, "channel": 0}, {"type": "note_off", "time": 66, "note": 70, "velocity": 111, "channel": 0}, {"type": "note_on", "time": 33, "note": 65, "velocity": 105, "channel": 0}, {"type": "note_off", "time": 50, "note": 65, "velocity": 105, "channel": 0}, {"type": "note_on", "time": 32, "note": 68, "velocity": 109, "channel": 0}, {"type": "note_off", "time": 77, "note": 68, "velocity": 109, "channel": 0}, {"type": "note_on", "time": 5, "note": 70, "velocity": 113, "channel": 0}, {"type": "note_off", "time": 42, "note": 70, "velocity": 113, "channel": 0}, {"type": "note_on", "time": 7, "note": 68, "velocity": 104, "channel": 0}, {"type": "note_off", "time": 17, "note": 68, "velocity": 104, "channel": 0}, {"type": "note_on", "time": 15, "note": 67, "velocity": 107, "channel": 0}, {"type": "note_off", "time": 94, "note": 67, "velocity": 107, "channel": 0}, {"type": "note_on", "time": 24, "note": 65, "velocity": 111, "channel": 0}, {"type": "note_off", "time": 70, "note": 65, "velocity": 111, "channel": 0}, {"type": "note_on", "time": 38, "note": 63, "velocity": 102, "channel": 0}, {"type": "note_off", "time": 72, "note": 63, "velocity": 102, "channel": 0}, {"type": "note_on", "time": 37, "note": 60, "velocity": 89, "channel": 0}, {"type": "note_off", "time": 37, "note": 60, "velocity": 89, "channel": 0}, {"type": "note_on", "time": 7, "note": 61, "velocity": 97, "channel": 0}, {"type": "note_off", "time": 80, "note": 61, "velocity": 97, "channel": 0}, {"type": "note_on", "time": 43, "note": 63, "velocity": 101, "channel": 0}, {"type": "note_off", "time": 68, "note": 63, "velocity": 101, "channel": 0}, {"type": "note_on", "time": 13, "note": 65, "velocity": 103, "channel": 0}, {"type": "note_off", "time": 37, "note": 65, "velocity": 103, "channel": 0}, {"type": "note_on", "time": 17, "note": 68, "velocity": 105, "channel": 0}, {"type": "note_off", "time": 39, "note": 68, "velocity": 105, "channel": 0}, {"type": "note_on", "time": 13, "note": 72, "velocity": 115, "channel": 0}, {"type": "note_off", "time": 77, "note": 72, "velocity": 115, "channel": 0}, {"type": "note_on", "time": 4, "note": 71, "velocity": 108, "channel": 0}, {"type": "note_off", "time": 82, "note": 71, "velocity": 108, "channel": 0}, {"type": "note_on", "time": 11, "note": 67, "velocity": 110, "channel": 0}, {"type": "note_off", "time": 75, "note": 67, "velocity": 110, "channel": 0}, {"type": "note_on", "time": 15, "note": 66, "velocity": 106, "channel": 0}, {"type": "note_off", "time": 75, "note": 66, "velocity": 106, "channel": 0}, {"type": "note_on", "time": 37, "note": 64, "velocity": 109, "channel": 0}, {"type": "note_off", "time": 55, "note": 64, "velocity": 109, "channel": 0}, {"type": "note_on", "time": 40, "note": 63, "velocity": 104, "channel": 0}, {"type": "note_off", "time": 77, "note": 63, "velocity": 104, "channel": 0}, {"type": "note_on", "time": 8, "note": 64, "velocity": 95, "channel": 0}, {"type": "note_off", "time": 23, "note": 64, "velocity": 95, "channel": 0}, {"type": "note_on", "time": 9, "note": 63, "velocity": 102, "channel": 0}, {"type": "note_off", "time": 34, "note": 63, "velocity": 102, "channel": 0}, {"type": "note_on", "time": 17, "note": 60, "velocity": 85, "channel": 0}, {"type": "note_off", "time": 122, "note": 60, "velocity": 85, "channel": 0}, {"type": "note_on", "time": 25, "note": 63, "velocity": 90, "channel": 0}, {"type": "note_off", "time": 21, "note": 63, "velocity": 90, "channel": 0}, {"type": "note_on", "time": 37, "note": 68, "velocity": 112, "channel": 0}, {"type": "note_off", "time": 105, "note": 68, "velocity": 112, "channel": 0}, {"type": "note_on", "time": 29, "note": 63, "velocity": 94, "channel": 0}, {"type": "note_off", "time": 148, "note": 63, "velocity": 94, "channel": 0}, {"type": "note_on", "time": 1069, "note": 67, "velocity": 108, "channel": 0}, {"type": "note_off", "time": 168, "note": 67, "velocity": 108, "channel": 0}, {"type": "note_on", "time": 37, "note": 67, "velocity": 107, "channel": 0}, {"type": "note_off", "time": 229, "note": 67, "velocity": 107, "channel": 0}, {"type": "note_on", "time": 75, "note": 65, "velocity": 107, "channel": 0}, {"type": "note_off", "time": 105, "note": 65, "velocity": 107, "channel": 0}, {"type": "note_on", "time": 22, "note": 63, "velocity": 98, "channel": 0}, {"type": "note_off", "time": 45, "note": 63, "velocity": 98, "channel": 0}, {"type": "note_on", "time": 130, "note": 63, "velocity": 108, "channel": 0}, {"type": "note_off", "time": 129, "note": 63, "velocity": 108, "channel": 0}, {"type": "note_on", "time": 19, "note": 61, "velocity": 104, "channel": 0}, {"type": "note_off", "time": 47, "note": 61, "velocity": 104, "channel": 0}, {"type": "note_on", "time": 7, "note": 63, "velocity": 105, "channel": 0}, {"type": "note_off", "time": 50, "note": 63, "velocity": 105, "channel": 0}, {"type": "note_on", "time": 41, "note": 72, "velocity": 110, "channel": 0}, {"type": "note_off", "time": 79, "note": 72, "velocity": 110, "channel": 0}, {"type": "note_on", "time": 86, "note": 73, "velocity": 96, "channel": 0}, {"type": "note_off", "time": 30, "note": 73, "velocity": 96, "channel": 0}, {"type": "note_on", "time": 3, "note": 70, "velocity": 111, "channel": 0}, {"type": "note_off", "time": 32, "note": 70, "velocity": 111, "channel": 0}, {"type": "note_on", "time": 53, "note": 71, "velocity": 110, "channel": 0}, {"type": "note_off", "time": 118, "note": 71, "velocity": 110, "channel": 0}, {"type": "note_on", "time": 34, "note": 67, "velocity": 102, "channel": 0}, {"type": "note_off", "time": 87, "note": 67, "velocity": 102, "channel": 0}, {"type": "note_on", "time": 40, "note": 66, "velocity": 95, "channel": 0}, {"type": "note_off", "time": 63, "note": 66, "velocity": 95, "channel": 0}, {"type": "note_on", "time": 75, "note": 64, "velocity": 101, "channel": 0}, {"type": "note_off", "time": 72, "note": 64, "velocity": 101, "channel": 0}, {"type": "note_on", "time": 10, "note": 63, "velocity": 98, "channel": 0}, {"type": "note_off", "time": 88, "note": 63, "velocity": 98, "channel": 0}, {"type": "note_on", "time": 40, "note": 61, "velocity": 102, "channel": 0}, {"type": "note_off", "time": 46, "note": 61, "velocity": 102, "channel": 0}, {"type": "note_on", "time": 15, "note": 60, "velocity": 79, "channel": 0}, {"type": "note_off", "time": 167, "note": 60, "velocity": 79, "channel": 0}, {"type": "note_on", "time": 821, "note": 80, "velocity": 110, "channel": 0}, {"type": "note_off", "time": 72, "note": 80, "velocity": 110, "channel": 0}, {"type": "note_on", "time": 11, "note": 77, "velocity": 117, "channel": 0}, {"type": "note_off", "time": 80, "note": 77, "velocity": 117, "channel": 0}, {"type": "note_on", "time": 29, "note": 75, "velocity": 115, "channel": 0}, {"type": "note_off", "time": 69, "note": 75, "velocity": 115, "channel": 0}, {"type": "note_on", "time": 20, "note": 73, "velocity": 111, "channel": 0}, {"type": "note_off", "time": 81, "note": 73, "velocity": 111, "channel": 0}, {"type": "note_on", "time": 31, "note": 72, "velocity": 109, "channel": 0}, {"type": "note_off", "time": 88, "note": 72, "velocity": 109, "channel": 0}, {"type": "note_on", "time": 9, "note": 70, "velocity": 114, "channel": 0}, {"type": "note_off", "time": 71, "note": 70, "velocity": 114, "channel": 0}, {"type": "note_on", "time": 14, "note": 68, "velocity": 106, "channel": 0}, {"type": "note_off", "time": 59, "note": 68, "velocity": 106, "channel": 0}, {"type": "note_on", "time": 28, "note": 70, "velocity": 107, "channel": 0}, {"type": "note_off", "time": 60, "note": 70, "velocity": 107, "channel": 0}, {"type": "note_on", "time": 45, "note": 72, "velocity": 104, "channel": 0}, {"type": "note_off", "time": 73, "note": 72, "velocity": 104, "channel": 0}, {"type": "note_on", "time": 18, "note": 74, "velocity": 109, "channel": 0}, {"type": "note_off", "time": 42, "note": 74, "velocity": 109, "channel": 0}, {"type": "note_on", "time": 7, "note": 72, "velocity": 107, "channel": 0}, {"type": "note_off", "time": 50, "note": 72, "velocity": 107, "channel": 0}, {"type": "note_on", "time": 5, "note": 71, "velocity": 101, "channel": 0}, {"type": "note_off", "time": 67, "note": 71, "velocity": 101, "channel": 0}, {"type": "note_on", "time": 22, "note": 68, "velocity": 110, "channel": 0}, {"type": "note_off", "time": 76, "note": 68, "velocity": 110, "channel": 0}, {"type": "note_on", "time": 30, "note": 67, "velocity": 102, "channel": 0}, {"type": "note_off", "time": 80, "note": 67, "velocity": 102, "channel": 0}, {"type": "note_on", "time": 16, "note": 65, "velocity": 99, "channel": 0}, {"type": "note_off", "time": 57, "note": 65, "velocity": 99, "channel": 0}, {"type": "note_on", "time": 17, "note": 64, "velocity": 86, "channel": 0}, {"type": "note_off", "time": 62, "note": 64, "velocity": 86, "channel": 0}, {"type": "note_on", "time": 60, "note": 67, "velocity": 105, "channel": 0}, {"type": "note_off", "time": 55, "note": 67, "velocity": 105, "channel": 0}, {"type": "note_on", "time": 5, "note": 69, "velocity": 109, "channel": 0}, {"type": "note_off", "time": 113, "note": 69, "velocity": 109, "channel": 0}, {"type": "note_on", "time": 9, "note": 71, "velocity": 112, "channel": 0}, {"type": "note_off", "time": 66, "note": 71, "velocity": 112, "channel": 0}, {"type": "note_on", "time": 30, "note": 74, "velocity": 116, "channel": 0}, {"type": "note_off", "time": 97, "note": 74, "velocity": 116, "channel": 0}, {"type": "note_on", "time": 5, "note": 71, "velocity": 95, "channel": 0}, {"type": "note_off", "time": 67, "note": 71, "velocity": 95, "channel": 0}, {"type": "note_on", "time": 20, "note": 72, "velocity": 113, "channel": 0}, {"type": "note_off", "time": 46, "note": 72, "velocity": 113, "channel": 0}, {"type": "note_on", "time": 3, "note": 73, "velocity": 109, "channel": 0}, {"type": "note_off", "time": 22, "note": 73, "velocity": 109, "channel": 0}, {"type": "note_on", "time": 2, "note": 72, "velocity": 104, "channel": 0}, {"type": "note_off", "time": 25, "note": 72, "velocity": 104, "channel": 0}, {"type": "note_on", "time": 7, "note": 71, "velocity": 105, "channel": 0}, {"type": "note_off", "time": 66, "note": 71, "velocity": 105, "channel": 0}, {"type": "note_on", "time": 35, "note": 72, "velocity": 107, "channel": 0}, {"type": "note_off", "time": 90, "note": 72, "velocity": 107, "channel": 0}, {"type": "note_on", "time": 2, "note": 71, "velocity": 99, "channel": 0}, {"type": "note_off", "time": 92, "note": 71, "velocity": 99, "channel": 0}, {"type": "note_on", "time": 7, "note": 69, "velocity": 105, "channel": 0}, {"type": "note_off", "time": 85, "note": 69, "velocity": 105, "channel": 0}, {"type": "note_on", "time": 9, "note": 68, "velocity": 108, "channel": 0}, {"type": "note_off", "time": 48, "note": 68, "velocity": 108, "channel": 0}, {"type": "note_on", "time": 18, "note": 67, "velocity": 99, "channel": 0}, {"type": "note_off", "time": 108, "note": 67, "velocity": 99, "channel": 0}, {"type": "note_on", "time": 0, "note": 65, "velocity": 103, "channel": 0}, {"type": "note_off", "time": 82, "note": 65, "velocity": 103, "channel": 0}, {"type": "note_on", "time": 6, "note": 64, "velocity": 97, "channel": 0}, {"type": "note_off", "time": 82, "note": 64, "velocity": 97, "channel": 0}, {"type": "note_on", "time": 127, "note": 63, "velocity": 96, "channel": 0}, {"type": "note_off", "time": 69, "note": 63, "velocity": 96, "channel": 0}, {"type": "note_on", "time": 17, "note": 67, "velocity": 117, "channel": 0}, {"type": "note_off", "time": 60, "note": 67, "velocity": 117, "channel": 0}, {"type": "note_on", "time": 16, "note": 63, "velocity": 91, "channel": 0}, {"type": "note_off", "time": 104, "note": 63, "velocity": 91, "channel": 0}, {"type": "note_on", "time": 11, "note": 59, "velocity": 90, "channel": 0}, {"type": "note_off", "time": 52, "note": 59, "velocity": 90, "channel": 0}, {"type": "note_on", "time": 6, "note": 60, "velocity": 94, "channel": 0}, {"type": "note_off", "time": 82, "note": 60, "velocity": 94, "channel": 0}, {"type": "note_on", "time": 23, "note": 62, "velocity": 108, "channel": 0}, {"type": "note_off", "time": 63, "note": 62, "velocity": 108, "channel": 0}, {"type": "note_on", "time": 29, "note": 63, "velocity": 105, "channel": 0}, {"type": "note_off", "time": 60, "note": 63, "velocity": 105, "channel": 0}, {"type": "note_on", "time": 5, "note": 65, "velocity": 105, "channel": 0}, {"type": "note_off", "time": 30, "note": 65, "velocity": 105, "channel": 0}, {"type": "note_on", "time": 7, "note": 67, "velocity": 112, "channel": 0}, {"type": "note_off", "time": 70, "note": 67, "velocity": 112, "channel": 0}, {"type": "note_on", "time": 22, "note": 70, "velocity": 121, "channel": 0}, {"type": "note_off", "time": 83, "note": 70, "velocity": 121, "channel": 0}, {"type": "note_on", "time": 285, "note": 68, "velocity": 114, "channel": 0}, {"type": "note_off", "time": 70, "note": 68, "velocity": 114, "channel": 0}, {"type": "note_on", "time": 233, "note": 67, "velocity": 109, "channel": 0}, {"type": "note_off", "time": 79, "note": 67, "velocity": 109, "channel": 0}, {"type": "note_on", "time": 361, "note": 78, "velocity": 110, "channel": 0}, {"type": "note_off", "time": 70, "note": 78, "velocity": 110, "channel": 0}, {"type": "note_on", "time": 12, "note": 74, "velocity": 110, "channel": 0}, {"type": "note_off", "time": 98, "note": 74, "velocity": 110, "channel": 0}, {"type": "note_on", "time": 5, "note": 73, "velocity": 112, "channel": 0}, {"type": "note_off", "time": 93, "note": 73, "velocity": 112, "channel": 0}, {"type": "note_on", "time": 2, "note": 71, "velocity": 112, "channel": 0}, {"type": "note_off", "time": 78, "note": 71, "velocity": 112, "channel": 0}, {"type": "note_on", "time": 7, "note": 70, "velocity": 108, "channel": 0}, {"type": "note_off", "time": 89, "note": 70, "velocity": 108, "channel": 0}, {"type": "note_on", "time": 5, "note": 68, "velocity": 114, "channel": 0}, {"type": "note_off", "time": 92, "note": 68, "velocity": 114, "channel": 0}, {"type": "note_on", "time": 1, "note": 67, "velocity": 105, "channel": 0}, {"type": "note_off", "time": 97, "note": 67, "velocity": 105, "channel": 0}, {"type": "note_on", "time": 2, "note": 65, "velocity": 111, "channel": 0}, {"type": "note_off", "time": 74, "note": 65, "velocity": 111, "channel": 0}, {"type": "note_on", "time": 32, "note": 66, "velocity": 107, "channel": 0}, {"type": "note_off", "time": 180, "note": 66, "velocity": 107, "channel": 0}, {"type": "note_on", "time": 20, "note": 64, "velocity": 110, "channel": 0}, {"type": "note_off", "time": 88, "note": 64, "velocity": 110, "channel": 0}, {"type": "note_on", "time": 8, "note": 62, "velocity": 92, "channel": 0}, {"type": "note_off", "time": 37, "note": 62, "velocity": 92, "channel": 0}, {"type": "note_on", "time": 54, "note": 63, "velocity": 104, "channel": 0}, {"type": "note_off", "time": 60, "note": 63, "velocity": 104, "channel": 0}, {"type": "note_on", "time": 29, "note": 64, "velocity": 96, "channel": 0}, {"type": "note_off", "time": 45, "note": 64, "velocity": 96, "channel": 0}, {"type": "note_on", "time": 12, "note": 63, "velocity": 95, "channel": 0}, {"type": "note_off", "time": 77, "note": 63, "velocity": 95, "channel": 0}, {"type": "note_on", "time": 69, "note": 65, "velocity": 92, "channel": 0}, {"type": "note_off", "time": 64, "note": 65, "velocity": 92, "channel": 0}, {"type": "note_on", "time": 22, "note": 68, "velocity": 108, "channel": 0}, {"type": "note_off", "time": 80, "note": 68, "velocity": 108, "channel": 0}, {"type": "note_on", "time": 17, "note": 70, "velocity": 111, "channel": 0}, {"type": "note_off", "time": 62, "note": 70, "velocity": 111, "channel": 0}, {"type": "note_on", "time": 37, "note": 72, "velocity": 111, "channel": 0}, {"type": "note_off", "time": 60, "note": 72, "velocity": 111, "channel": 0}, {"type": "note_on", "time": 36, "note": 75, "velocity": 122, "channel": 0}, {"type": "note_off", "time": 72, "note": 75, "velocity": 122, "channel": 0}, {"type": "note_on", "time": 29, "note": 74, "velocity": 114, "channel": 0}, {"type": "note_off", "time": 166, "note": 74, "velocity": 114, "channel": 0}, {"type": "note_on", "time": 24, "note": 72, "velocity": 113, "channel": 0}, {"type": "note_off", "time": 64, "note": 72, "velocity": 113, "channel": 0}, {"type": "note_on", "time": 14, "note": 73, "velocity": 97, "channel": 0}, {"type": "note_off", "time": 23, "note": 73, "velocity": 97, "channel": 0}, {"type": "note_on", "time": 22, "note": 72, "velocity": 104, "channel": 0}, {"type": "note_off", "time": 60, "note": 72, "velocity": 104, "channel": 0}, {"type": "note_on", "time": 2, "note": 71, "velocity": 106, "channel": 0}, {"type": "note_off", "time": 84, "note": 71, "velocity": 106, "channel": 0}, {"type": "note_on", "time": 15, "note": 69, "velocity": 105, "channel": 0}, {"type": "note_off", "time": 82, "note": 69, "velocity": 105, "channel": 0}, {"type": "note_on", "time": 28, "note": 68, "velocity": 83, "channel": 0}, {"type": "note_off", "time": 10, "note": 68, "velocity": 83, "channel": 0}, {"type": "note_on", "time": 8, "note": 66, "velocity": 86, "channel": 0}, {"type": "note_off", "time": 35, "note": 66, "velocity": 86, "channel": 0}, {"type": "note_on", "time": 14, "note": 64, "velocity": 94, "channel": 0}, {"type": "note_off", "time": 18, "note": 64, "velocity": 94, "channel": 0}, {"type": "note_on", "time": 10, "note": 63, "velocity": 103, "channel": 0}, {"type": "note_off", "time": 60, "note": 63, "velocity": 103, "channel": 0}, {"type": "note_on", "time": 35, "note": 62, "velocity": 100, "channel": 0}, {"type": "note_off", "time": 92, "note": 62, "velocity": 100, "channel": 0}, {"type": "note_on", "time": 31, "note": 62, "velocity": 92, "channel": 0}, {"type": "note_off", "time": 213, "note": 62, "velocity": 92, "channel": 0}, {"type": "note_on", "time": 1265, "note": 61, "velocity": 100, "channel": 0}, {"type": "note_off", "time": 55, "note": 61, "velocity": 100, "channel": 0}, {"type": "note_on", "time": 5, "note": 62, "velocity": 99, "channel": 0}, {"type": "note_off", "time": 46, "note": 62, "velocity": 99, "channel": 0}, {"type": "note_on", "time": 20, "note": 67, "velocity": 103, "channel": 0}, {"type": "note_off", "time": 30, "note": 67, "velocity": 103, "channel": 0}, {"type": "note_on", "time": 25, "note": 71, "velocity": 118, "channel": 0}, {"type": "note_off", "time": 69, "note": 71, "velocity": 118, "channel": 0}, {"type": "note_on", "time": 19, "note": 74, "velocity": 121, "channel": 0}, {"type": "note_off", "time": 111, "note": 74, "velocity": 121, "channel": 0}, {"type": "note_on", "time": 15, "note": 71, "velocity": 116, "channel": 0}, {"type": "note_off", "time": 86, "note": 71, "velocity": 116, "channel": 0}, {"type": "note_on", "time": 103, "note": 61, "velocity": 98, "channel": 0}, {"type": "note_off", "time": 70, "note": 61, "velocity": 98, "channel": 0}, {"type": "note_on", "time": 35, "note": 67, "velocity": 101, "channel": 0}, {"type": "note_off", "time": 53, "note": 67, "velocity": 101, "channel": 0}, {"type": "note_on", "time": 10, "note": 71, "velocity": 118, "channel": 0}, {"type": "note_off", "time": 63, "note": 71, "velocity": 118, "channel": 0}, {"type": "note_on", "time": 13, "note": 74, "velocity": 122, "channel": 0}, {"type": "note_off", "time": 105, "note": 74, "velocity": 122, "channel": 0}, {"type": "note_on", "time": 19, "note": 71, "velocity": 113, "channel": 0}, {"type": "note_off", "time": 121, "note": 71, "velocity": 113, "channel": 0}, {"type": "note_on", "time": 632, "note": 72, "velocity": 108, "channel": 0}, {"type": "note_off", "time": 80, "note": 72, "velocity": 108, "channel": 0}, {"type": "note_on", "time": 4, "note": 73, "velocity": 102, "channel": 0}, {"type": "note_off", "time": 27, "note": 73, "velocity": 102, "channel": 0}, {"type": "note_on", "time": 3, "note": 72, "velocity": 109, "channel": 0}, {"type": "note_off", "time": 44, "note": 72, "velocity": 109, "channel": 0}, {"type": "note_on", "time": 11, "note": 71, "velocity": 108, "channel": 0}, {"type": "note_off", "time": 96, "note": 71, "velocity": 108, "channel": 0}, {"type": "note_on", "time": 83, "note": 74, "velocity": 113, "channel": 0}, {"type": "note_off", "time": 80, "note": 74, "velocity": 113, "channel": 0}, {"type": "note_on", "time": 11, "note": 66, "velocity": 91, "channel": 0}, {"type": "note_off", "time": 90, "note": 66, "velocity": 91, "channel": 0}, {"type": "note_on", "time": 122, "note": 71, "velocity": 115, "channel": 0}, {"type": "note_off", "time": 83, "note": 71, "velocity": 115, "channel": 0}, {"type": "note_on", "time": 6, "note": 72, "velocity": 116, "channel": 0}, {"type": "note_off", "time": 96, "note": 72, "velocity": 116, "channel": 0}, {"type": "note_on", "time": 7, "note": 74, "velocity": 116, "channel": 0}, {"type": "note_off", "time": 82, "note": 74, "velocity": 116, "channel": 0}, {"type": "note_on", "time": 13, "note": 72, "velocity": 107, "channel": 0}, {"type": "note_off", "time": 65, "note": 72, "velocity": 107, "channel": 0}, {"type": "note_on", "time": 35, "note": 64, "velocity": 95, "channel": 0}, {"type": "note_off", "time": 49, "note": 64, "velocity": 95, "channel": 0}, {"type": "note_on", "time": 30, "note": 71, "velocity": 112, "channel": 0}, {"type": "note_off", "time": 167, "note": 71, "velocity": 112, "channel": 0}, {"type": "note_on", "time": 7, "note": 72, "velocity": 115, "channel": 0}, {"type": "note_off", "time": 96, "note": 72, "velocity": 115, "channel": 0}, {"type": "note_on", "time": 465, "note": 69, "velocity": 115, "channel": 0}, {"type": "note_off", "time": 72, "note": 69, "velocity": 115, "channel": 0}, {"type": "note_on", "time": 18, "note": 68, "velocity": 113, "channel": 0}, {"type": "note_off", "time": 70, "note": 68, "velocity": 113, "channel": 0}, {"type": "note_on", "time": 40, "note": 66, "velocity": 102, "channel": 0}, {"type": "note_off", "time": 55, "note": 66, "velocity": 102, "channel": 0}, {"type": "note_on", "time": 36, "note": 64, "velocity": 106, "channel": 0}, {"type": "note_off", "time": 55, "note": 64, "velocity": 106, "channel": 0}, {"type": "note_on", "time": 53, "note": 63, "velocity": 103, "channel": 0}, {"type": "note_off", "time": 55, "note": 63, "velocity": 103, "channel": 0}, {"type": "note_on", "time": 41, "note": 66, "velocity": 98, "channel": 0}, {"type": "note_off", "time": 47, "note": 66, "velocity": 98, "channel": 0}, {"type": "note_on", "time": 42, "note": 71, "velocity": 118, "channel": 0}, {"type": "note_off", "time": 82, "note": 71, "velocity": 118, "channel": 0}, {"type": "note_on", "time": 17, "note": 69, "velocity": 112, "channel": 0}, {"type": "note_off", "time": 56, "note": 69, "velocity": 112, "channel": 0}, {"type": "note_on", "time": 46, "note": 68, "velocity": 113, "channel": 0}, {"type": "note_off", "time": 66, "note": 68, "velocity": 113, "channel": 0}, {"type": "note_on", "time": 37, "note": 59, "velocity": 89, "channel": 0}, {"type": "note_off", "time": 47, "note": 59, "velocity": 89, "channel": 0}, {"type": "note_on", "time": 20, "note": 60, "velocity": 94, "channel": 0}, {"type": "note_off", "time": 128, "note": 60, "velocity": 94, "channel": 0}, {"type": "note_on", "time": 12, "note": 61, "velocity": 90, "channel": 0}, {"type": "note_off", "time": 207, "note": 61, "velocity": 90, "channel": 0}, {"type": "note_on", "time": 1134, "note": 76, "velocity": 91, "channel": 0}, {"type": "note_off", "time": 65, "note": 76, "velocity": 91, "channel": 0}, {"type": "note_on", "time": 6, "note": 77, "velocity": 106, "channel": 0}, {"type": "note_off", "time": 67, "note": 77, "velocity": 106, "channel": 0}, {"type": "note_on", "time": 76, "note": 77, "velocity": 106, "channel": 0}, {"type": "note_off", "time": 85, "note": 77, "velocity": 106, "channel": 0}, {"type": "note_on", "time": 37, "note": 72, "velocity": 109, "channel": 0}, {"type": "note_off", "time": 97, "note": 72, "velocity": 109, "channel": 0}, {"type": "note_on", "time": 71, "note": 70, "velocity": 102, "channel": 0}, {"type": "note_off", "time": 60, "note": 70, "velocity": 102, "channel": 0}, {"type": "note_on", "time": 60, "note": 75, "velocity": 113, "channel": 0}, {"type": "note_off", "time": 148, "note": 75, "velocity": 113, "channel": 0}, {"type": "note_on", "time": 11, "note": 75, "velocity": 112, "channel": 0}, {"type": "note_off", "time": 103, "note": 75, "velocity": 112, "channel": 0}, {"type": "note_on", "time": 21, "note": 75, "velocity": 110, "channel": 0}, {"type": "note_off", "time": 93, "note": 75, "velocity": 110, "channel": 0}, {"type": "note_on", "time": 52, "note": 73, "velocity": 110, "channel": 0}, {"type": "note_off", "time": 74, "note": 73, "velocity": 110, "channel": 0}, {"type": "note_on", "time": 14, "note": 68, "velocity": 103, "channel": 0}, {"type": "note_off", "time": 78, "note": 68, "velocity": 103, "channel": 0}, {"type": "note_on", "time": 37, "note": 65, "velocity": 100, "channel": 0}, {"type": "note_off", "time": 48, "note": 65, "velocity": 100, "channel": 0}, {"type": "note_on", "time": 14, "note": 64, "velocity": 90, "channel": 0}, {"type": "note_off", "time": 77, "note": 64, "velocity": 90, "channel": 0}, {"type": "note_on", "time": 51, "note": 70, "velocity": 105, "channel": 0}, {"type": "note_off", "time": 66, "note": 70, "velocity": 105, "channel": 0}, {"type": "note_on", "time": 7, "note": 72, "velocity": 110, "channel": 0}, {"type": "note_off", "time": 145, "note": 72, "velocity": 110, "channel": 0}, {"type": "note_on", "time": 66, "note": 70, "velocity": 98, "channel": 0}, {"type": "note_off", "time": 68, "note": 70, "velocity": 98, "channel": 0}, {"type": "note_on", "time": 31, "note": 67, "velocity": 102, "channel": 0}, {"type": "note_off", "time": 64, "note": 67, "velocity": 102, "channel": 0}, {"type": "note_on", "time": 76, "note": 66, "velocity": 97, "channel": 0}, {"type": "note_off", "time": 32, "note": 66, "velocity": 97, "channel": 0}, {"type": "note_on", "time": 32, "note": 64, "velocity": 100, "channel": 0}, {"type": "note_off", "time": 96, "note": 64, "velocity": 100, "channel": 0}, {"type": "note_on", "time": 30, "note": 63, "velocity": 95, "channel": 0}, {"type": "note_off", "time": 85, "note": 63, "velocity": 95, "channel": 0}, {"type": "note_on", "time": 20, "note": 63, "velocity": 100, "channel": 0}, {"type": "note_off", "time": 73, "note": 63, "velocity": 100, "channel": 0}, {"type": "note_on", "time": 12, "note": 63, "velocity": 83, "channel": 0}, {"type": "note_off", "time": 90, "note": 63, "velocity": 83, "channel": 0}, {"type": "note_on", "time": 328, "note": 68, "velocity": 104, "channel": 0}, {"type": "note_off", "time": 62, "note": 68, "velocity": 104, "channel": 0}, {"type": "note_on", "time": 7, "note": 70, "velocity": 113, "channel": 0}, {"type": "note_off", "time": 155, "note": 70, "velocity": 113, "channel": 0}, {"type": "note_on", "time": 25, "note": 68, "velocity": 113, "channel": 0}, {"type": "note_off", "time": 70, "note": 68, "velocity": 113, "channel": 0}, {"type": "note_on", "time": 22, "note": 65, "velocity": 118, "channel": 0}, {"type": "note_off", "time": 67, "note": 65, "velocity": 118, "channel": 0}, {"type": "note_on", "time": 42, "note": 63, "velocity": 110, "channel": 0}, {"type": "note_off", "time": 58, "note": 63, "velocity": 110, "channel": 0}, {"type": "note_on", "time": 42, "note": 60, "velocity": 99, "channel": 0}, {"type": "note_off", "time": 40, "note": 60, "velocity": 99, "channel": 0}, {"type": "note_on", "time": 41, "note": 61, "velocity": 100, "channel": 0}, {"type": "note_off", "time": 59, "note": 61, "velocity": 100, "channel": 0}, {"type": "note_on", "time": 50, "note": 63, "velocity": 109, "channel": 0}, {"type": "note_off", "time": 57, "note": 63, "velocity": 109, "channel": 0}, {"type": "note_on", "time": 30, "note": 64, "velocity": 109, "channel": 0}, {"type": "note_off", "time": 70, "note": 64, "velocity": 109, "channel": 0}, {"type": "note_on", "time": 24, "note": 66, "velocity": 110, "channel": 0}, {"type": "note_off", "time": 64, "note": 66, "velocity": 110, "channel": 0}, {"type": "note_on", "time": 48, "note": 68, "velocity": 116, "channel": 0}, {"type": "note_off", "time": 65, "note": 68, "velocity": 116, "channel": 0}, {"type": "note_on", "time": 25, "note": 71, "velocity": 111, "channel": 0}, {"type": "note_off", "time": 75, "note": 71, "velocity": 111, "channel": 0}, {"type": "note_on", "time": 27, "note": 70, "velocity": 106, "channel": 0}, {"type": "note_off", "time": 76, "note": 70, "velocity": 106, "channel": 0}, {"type": "note_on", "time": 20, "note": 68, "velocity": 112, "channel": 0}, {"type": "note_off", "time": 57, "note": 68, "velocity": 112, "channel": 0}, {"type": "note_on", "time": 47, "note": 66, "velocity": 108, "channel": 0}, {"type": "note_off", "time": 61, "note": 66, "velocity": 108, "channel": 0}, {"type": "note_on", "time": 11, "note": 64, "velocity": 112, "channel": 0}, {"type": "note_off", "time": 72, "note": 64, "velocity": 112, "channel": 0}, {"type": "note_on", "time": 10, "note": 63, "velocity": 109, "channel": 0}, {"type": "note_off", "time": 78, "note": 63, "velocity": 109, "channel": 0}, {"type": "note_on", "time": 21, "note": 65, "velocity": 99, "channel": 0}, {"type": "note_off", "time": 41, "note": 65, "velocity": 99, "channel": 0}, {"type": "note_on", "time": 12, "note": 63, "velocity": 105, "channel": 0}, {"type": "note_off", "time": 38, "note": 63, "velocity": 105, "channel": 0}, {"type": "note_on", "time": 10, "note": 60, "velocity": 100, "channel": 0}, {"type": "note_off", "time": 68, "note": 60, "velocity": 100, "channel": 0}, {"type": "note_on", "time": 32, "note": 63, "velocity": 114, "channel": 0}, {"type": "note_off", "time": 56, "note": 63, "velocity": 114, "channel": 0}, {"type": "note_on", "time": 45, "note": 67, "velocity": 114, "channel": 0}, {"type": "note_off", "time": 68, "note": 67, "velocity": 114, "channel": 0}, {"type": "note_on", "time": 15, "note": 68, "velocity": 115, "channel": 0}, {"type": "note_off", "time": 76, "note": 68, "velocity": 115, "channel": 0}, {"type": "note_on", "time": 24, "note": 70, "velocity": 112, "channel": 0}, {"type": "note_off", "time": 83, "note": 70, "velocity": 112, "channel": 0}, {"type": "note_on", "time": 7, "note": 72, "velocity": 120, "channel": 0}, {"type": "note_off", "time": 92, "note": 72, "velocity": 120, "channel": 0}, {"type": "note_on", "time": 5, "note": 73, "velocity": 123, "channel": 0}, {"type": "note_off", "time": 149, "note": 73, "velocity": 123, "channel": 0}, {"type": "note_on", "time": 25, "note": 71, "velocity": 113, "channel": 0}, {"type": "note_off", "time": 84, "note": 71, "velocity": 113, "channel": 0}, {"type": "note_on", "time": 323, "note": 72, "velocity": 119, "channel": 0}, {"type": "note_off", "time": 61, "note": 72, "velocity": 119, "channel": 0}, {"type": "note_on", "time": 18, "note": 69, "velocity": 114, "channel": 0}, {"type": "note_off", "time": 81, "note": 69, "velocity": 114, "channel": 0}, {"type": "note_on", "time": 4, "note": 70, "velocity": 113, "channel": 0}, {"type": "note_off", "time": 84, "note": 70, "velocity": 113, "channel": 0}, {"type": "note_on", "time": 19, "note": 65, "velocity": 105, "channel": 0}, {"type": "note_off", "time": 70, "note": 65, "velocity": 105, "channel": 0}, {"type": "note_on", "time": 216, "note": 69, "velocity": 110, "channel": 0}, {"type": "note_off", "time": 75, "note": 69, "velocity": 110, "channel": 0}, {"type": "note_on", "time": 11, "note": 72, "velocity": 118, "channel": 0}, {"type": "note_off", "time": 72, "note": 72, "velocity": 118, "channel": 0}, {"type": "note_on", "time": 25, "note": 70, "velocity": 114, "channel": 0}, {"type": "note_off", "time": 76, "note": 70, "velocity": 114, "channel": 0}, {"type": "note_on", "time": 12, "note": 69, "velocity": 112, "channel": 0}, {"type": "note_off", "time": 77, "note": 69, "velocity": 112, "channel": 0}, {"type": "note_on", "time": 20, "note": 68, "velocity": 103, "channel": 0}, {"type": "note_off", "time": 81, "note": 68, "velocity": 103, "channel": 0}, {"type": "note_on", "time": 12, "note": 70, "velocity": 110, "channel": 0}, {"type": "note_off", "time": 42, "note": 70, "velocity": 110, "channel": 0}, {"type": "note_on", "time": 2, "note": 68, "velocity": 107, "channel": 0}, {"type": "note_off", "time": 45, "note": 68, "velocity": 107, "channel": 0}, {"type": "note_on", "time": 10, "note": 67, "velocity": 102, "channel": 0}, {"type": "note_off", "time": 61, "note": 67, "velocity": 102, "channel": 0}, {"type": "note_on", "time": 37, "note": 65, "velocity": 110, "channel": 0}, {"type": "note_off", "time": 57, "note": 65, "velocity": 110, "channel": 0}, {"type": "note_on", "time": 37, "note": 66, "velocity": 102, "channel": 0}, {"type": "note_off", "time": 63, "note": 66, "velocity": 102, "channel": 0}, {"type": "note_on", "time": 17, "note": 64, "velocity": 106, "channel": 0}, {"type": "note_off", "time": 73, "note": 64, "velocity": 106, "channel": 0}, {"type": "note_on", "time": 27, "note": 63, "velocity": 99, "channel": 0}, {"type": "note_off", "time": 68, "note": 63, "velocity": 99, "channel": 0}, {"type": "note_on", "time": 27, "note": 61, "velocity": 92, "channel": 0}, {"type": "note_off", "time": 61, "note": 61, "velocity": 92, "channel": 0}, {"type": "note_on", "time": 9, "note": 60, "velocity": 85, "channel": 0}, {"type": "note_off", "time": 120, "note": 60, "velocity": 85, "channel": 0}, {"type": "note_on", "time": 2, "note": 63, "velocity": 107, "channel": 0}, {"type": "note_off", "time": 63, "note": 63, "velocity": 107, "channel": 0}, {"type": "note_on", "time": 15, "note": 67, "velocity": 104, "channel": 0}, {"type": "note_off", "time": 80, "note": 67, "velocity": 104, "channel": 0}, {"type": "note_on", "time": 27, "note": 68, "velocity": 100, "channel": 0}, {"type": "note_off", "time": 169, "note": 68, "velocity": 100, "channel": 0}, {"type": "note_on", "time": 390, "note": 72, "velocity": 116, "channel": 0}, {"type": "note_off", "time": 64, "note": 72, "velocity": 116, "channel": 0}, {"type": "note_on", "time": 10, "note": 69, "velocity": 101, "channel": 0}, {"type": "note_off", "time": 30, "note": 69, "velocity": 101, "channel": 0}, {"type": "note_on", "time": 22, "note": 65, "velocity": 105, "channel": 0}, {"type": "note_off", "time": 47, "note": 65, "velocity": 105, "channel": 0}, {"type": "note_on", "time": 30, "note": 61, "velocity": 95, "channel": 0}, {"type": "note_off", "time": 84, "note": 61, "velocity": 95, "channel": 0}, {"type": "note_on", "time": 5, "note": 60, "velocity": 91, "channel": 0}, {"type": "note_off", "time": 120, "note": 60, "velocity": 91, "channel": 0}, {"type": "note_on", "time": 13, "note": 58, "velocity": 100, "channel": 0}, {"type": "note_off", "time": 246, "note": 58, "velocity": 100, "channel": 0}, {"type": "note_on", "time": 39, "note": 55, "velocity": 97, "channel": 0}, {"type": "note_off", "time": 431, "note": 55, "velocity": 97, "channel": 0}, {"type": "end_of_track", "time": 0}]]}