{"ticks_per_beat": 192, "tracks": [[{"type": "track_name", "name": "Melody", "time": 0}, {"type": "set_tempo", "tempo": 402684, "time": 0}, {"type": "key_signature", "key": "F", "time": 0}, {"type": "time_signature", "numerator": 4, "denominator": 4, "clocks_per_click": 24, "notated_32nd_notes_per_beat": 8, "time": 0}, {"type": "note_on", "time": 1591, "note": 69, "velocity": 114, "channel": 0}, {"type": "note_off", "time": 123, "note": 69, "velocity": 114, "channel": 0}, {"type": "note_on", "time": 0, "note": 70, "velocity": 105, "channel": 0}, {"type": "note_off", "time": 24, "note": 70, "velocity": 105, "channel": 0}, {"type": "note_on", "time": 4, "note": 72, "velocity": 106, "channel": 0}, {"type": "note_off", "time": 82, "note": 72, "velocity": 106, "channel": 0}, {"type": "note_on", "time": 17, "note": 72, "velocity": 107, "channel": 0}, {"type": "note_off", "time": 76, "note": 72, "velocity": 107, "channel": 0}, {"type": "note_on", "time": 77, "note": 72, "velocity": 108, "channel": 0}, {"type": "note_off", "time": 146, "note": 72, "velocity": 108, "channel": 0}, {"type": "note_on", "time": 9, "note": 72, "velocity": 109, "channel": 0}, {"type": "note_off", "time": 85, "note": 72, "velocity": 109, "channel": 0}, {"type": "note_on", "time": 893, "note": 65, "velocity": 108, "channel": 0}, {"type": "note_off", "time": 106, "note": 65, "velocity": 108, "channel": 0}, {"type": "note_on", "time": 7, "note": 72, "velocity": 111, "channel": 0}, {"type": "note_off", "time": 107, "note": 72, "velocity": 111, "channel": 0}, {"type": "note_on", "time": 15, "note": 72, "velocity": 90, "channel": 0}, {"type": "note_off", "time": 66, "note": 72, "velocity": 90, "channel": 0}, {"type": "note_on", "time": 93, "note": 72, "velocity": 110, "channel": 0}, {"type": "note_off", "time": 94, "note": 72, "velocity": 110, "channel": 0}, {"type": "note_on", "time": 10, "note": 72, "velocity": 108, "channel": 0}, {"type": "note_off", "time": 272, "note": 72, "velocity": 108, "channel": 0}, {"type": "note_on", "time": 7, "note": 72, "velocity": 101, "channel": 0}, {"type": "note_off", "time": 56, "note": 72, "velocity": 101, "channel": 0}, {"type": "note_on", "time": 727, "note": 65, "velocity": 92, "channel": 0}, {"type": "note_off", "time": 80, "note": 65, "velocity": 92, "channel": 0}, {"type": "note_on", "time": 21, "note": 72, "velocity": 107, "channel": 0}, {"type": "note_off", "time": 132, "note": 72, "velocity": 107, "channel": 0}, {"type": "note_on", "time": 21, "note": 72, "velocity": 100, "channel": 0}, {"type": "note_off", "time": 75, "note": 72, "velocity": 100, "channel": 0}, {"type": "note_on", "time": 55, "note": 72, "velocity": 108, "channel": 0}, {"type": "note_off", "time": 85, "note": 72, "velocity": 108, "channel": 0}, {"type": "note_on", "time": 13, "note": 71, "velocity": 103, "channel": 0}, {"type": "note_off", "time": 57, "note": 71, "velocity": 103, "channel": 0}, {"type": "note_on", "time": 7, "note": 72, "velocity": 109, "channel": 0}, {"type": "note_off", "time": 26, "note": 72, "velocity": 109, "channel": 0}, {"type": "note_on", "time": 0, "note": 73, "velocity": 112, "channel": 0}, {"type": "note_off", "time": 86, "note": 73, "velocity": 112, "channel": 0}, {"type": "note_on", "time": 3, "note": 72, "velocity": 105, "channel": 0}, {"type": "note_off", "time": 111, "note": 72, "velocity": 105, "channel": 0}, {"type": "note_on", "time": 7, "note": 69, "velocity": 103, "channel": 0}, {"type": "note_off", "time": 309, "note": 69, "velocity": 103, "channel": 0}, {"type": "note_on", "time": 275, "note": 69, "velocity": 117, "channel": 0}, {"type": "note_off", "time": 70, "note": 69, "velocity": 117, "channel": 0}, {"type": "note_on", "time": 8, "note": 68, "velocity": 103, "channel": 0}, {"type": "note_off", "time": 79, "note": 68, "velocity": 103, "channel": 0}, {"type": "note_on", "time": 5, "note": 69, "velocity": 117, "channel": 0}, {"type": "note_off", "time": 87, "note": 69, "velocity": 117, "channel": 0}, {"type": "note_on", "time": 6, "note": 70, "velocity": 104, "channel": 0}, {"type": "note_off", "time": 89, "note": 70, "velocity": 104, "channel": 0}, {"type": "note_on", "time": 9, "note": 68, "velocity": 105, "channel": 0}, {"type": "note_off", "time": 92, "note": 68, "velocity": 105, "channel": 0}, {"type": "note_on", "time": 0, "note": 69, "velocity": 112, "channel": 0}, {"type": "note_off", "time": 75, "note": 69, "velocity": 112, "channel": 0}, {"type": "note_on", "time": 5, "note": 67, "velocity": 103, "channel": 0}, {"type": "note_off", "time": 88, "note": 67, "velocity": 103, "channel": 0}, {"type": "note_on", "time": 2, "note": 68, "velocity": 104, "channel": 0}, {"type": "note_off", "time": 74, "note": 68, "velocity": 104, "channel": 0}, {"type": "note_on", "time": 5, "note": 69, "velocity": 115, "channel": 0}, {"type": "note_off", "time": 67, "note": 69, "velocity": 115, "channel": 0}, {"type": "note_on", "time": 13, "note": 65, "velocity": 106, "channel": 0}, {"type": "note_off", "time": 73, "note": 65, "velocity": 106, "channel": 0}, {"type": "note_on", "time": 8, "note": 62, "velocity": 99, "channel": 0}, {"type": "note_off", "time": 66, "note": 62, "velocity": 99, "channel": 0}, {"type": "note_on", "time": 19, "note": 57, "velocity": 96, "channel": 0}, {"type": "note_off", "time": 48, "note": 57, "velocity": 96, "channel": 0}, {"type": "note_on", "time": 12, "note": 62, "velocity": 98, "channel": 0}, {"type": "note_off", "time": 459, "note": 62, "velocity": 98, "channel": 0}, {"type": "note_on", "time": 254, "note": 69, "velocity": 114, "channel": 0}, {"type": "note_off", "time": 75, "note": 69, "velocity": 114, "channel": 0}, {"type": "note_on", "time": 36, "note": 72, "velocity": 112, "channel": 0}, {"type": "note_off", "time": 36, "note": 72, "velocity": 112, "channel": 0}, {"type": "note_on", "time": 1, "note": 73, "velocity": 111, "channel": 0}, {"type": "note_off", "time": 12, "note": 73, "velocity": 111, "channel": 0}, {"type": "note_on", "time": 8, "note": 74, "velocity": 104, "channel": 0}, {"type": "note_off", "time": 167, "note": 74, "velocity": 104, "channel": 0}, {"type": "note_on", "time": 17, "note": 69, "velocity": 116, "channel": 0}, {"type": "note_off", "time": 93, "note": 69, "velocity": 116, "channel": 0}, {"type": "note_on", "time": 28, "note": 67, "velocity": 99, "channel": 0}, {"type": "note_off", "time": 642, "note": 67, "velocity": 99, "channel": 0}, {"type": "note_on", "time": 44, "note": 65, "velocity": 98, "channel": 0}, {"type": "note_off", "time": 74, "note": 65, "velocity": 98, "channel": 0}, {"type": "note_on", "time": 73, "note": 71, "velocity": 106, "channel": 0}, {"type": "note_on", "time": 19, "note": 72, "velocity": 107, "channel": 0}, {"type": "note_off", "time": 0, "note": 71, "velocity": 106, "channel": 0}, {"type": "note_off", "time": 174, "note": 72, "velocity": 107, "channel": 0}, {"type": "note_on", "time": 0, "note": 70, "velocity": 100, "channel": 0}, {"type": "note_off", "time": 51, "note": 70, "velocity": 100, "channel": 0}, {"type": "note_on", "time": 19, "note": 67, "velocity": 103, "channel": 0}, {"type": "note_off", "time": 40, "note": 67, "velocity": 103, "channel": 0}, {"type": "note_on", "time": 26, "note": 65, "velocity": 101, "channel": 0}, {"type": "note_off", "time": 271, "note": 65, "velocity": 101, "channel": 0}, {"type": "note_on", "time": 24, "note": 63, "velocity": 97, "channel": 0}, {"type": "note_off", "time": 59, "note": 63, "velocity": 97, "channel": 0}, {"type": "note_on", "time": 41, "note": 65, "velocity": 102, "channel": 0}, {"type": "note_off", "time": 34, "note": 65, "velocity": 102, "channel": 0}, {"type": "note_on", "time": 8, "note": 67, "velocity": 104, "channel": 0}, {"type": "note_off", "time": 137, "note": 67, "velocity": 104, "channel": 0}, {"type": "note_on", "time": 0, "note": 60, "velocity": 102, "channel": 0}, {"type": "note_off", "time": 102, "note": 60, "velocity": 102, "channel": 0}, {"type": "note_on", "time": 15, "note": 58, "velocity": 92, "channel": 0}, {"type": "note_off", "time": 128, "note": 58, "velocity": 92, "channel": 0}, {"type": "note_on", "time": 333, "note": 66, "velocity": 102, "channel": 0}, {"type": "note_off", "time": 31, "note": 66, "velocity": 102, "channel": 0}, {"type": "note_on", "time": 0, "note": 67, "velocity": 105, "channel": 0}, {"type": "note_off", "time": 23, "note": 67, "velocity": 105, "channel": 0}, {"type": "note_on", "time": 9, "note": 68, "velocity": 108, "channel": 0}, {"type": "note_off", "time": 26, "note": 68, "velocity": 108, "channel": 0}, {"type": "note_on", "time": 12, "note": 69, "velocity": 112, "channel": 0}, {"type": "note_off", "time": 65, "note": 69, "velocity": 112, "channel": 0}, {"type": "note_on", "time": 27, "note": 74, "velocity": 93, "channel": 0}, {"type": "note_off", "time": 160, "note": 74, "velocity": 93, "channel": 0}, {"type": "note_on", "time": 32, "note": 68, "velocity": 105, "channel": 0}, {"type": "note_off", "time": 28, "note": 68, "velocity": 105, "channel": 0}, {"type": "note_on", "time": 1, "note": 67, "velocity": 101, "channel": 0}, {"type": "note_off", "time": 78, "note": 67, "velocity": 101, "channel": 0}, {"type": "note_on", "time": 8, "note": 65, "velocity": 89, "channel": 0}, {"type": "note_off", "time": 52, "note": 65, "velocity": 89, "channel": 0}, {"type": "note_on", "time": 12, "note": 67, "velocity": 103, "channel": 0}, {"type": "note_off", "time": 102, "note": 67, "velocity": 103, "channel": 0}, {"type": "note_on", "time": 13, "note": 65, "velocity": 84, "channel": 0}, {"type": "note_off", "time": 54, "note": 65, "velocity": 84, "channel": 0}, {"type": "note_on", "time": 44, "note": 62, "velocity": 99, "channel": 0}, {"type": "note_off", "time": 92, "note": 62, "velocity": 99, "channel": 0}, {"type": "note_on", "time": 20, "note": 62, "velocity": 100, "channel": 0}, {"type": "note_off", "time": 55, "note": 62, "velocity": 100, "channel": 0}, {"type": "note_on", "time": 125, "note": 62, "velocity": 100, "channel": 0}, {"type": "note_off", "time": 54, "note": 62, "velocity": 100, "channel": 0}, {"type": "note_on", "time": 137, "note": 62, "velocity": 103, "channel": 0}, {"type": "note_off", "time": 53, "note": 62, "velocity": 103, "channel": 0}, {"type": "note_on", "time": 141, "note": 62, "velocity": 94, "channel": 0}, {"type": "note_off", "time": 48, "note": 62, "velocity": 94, "channel": 0}, {"type": "note_on", "time": 143, "note": 62, "velocity": 99, "channel": 0}, {"type": "note_off", "time": 47, "note": 62, "velocity": 99, "channel": 0}, {"type": "note_on", "time": 149, "note": 62, "velocity": 101, "channel": 0}, {"type": "note_off", "time": 47, "note": 62, "velocity": 101, "channel": 0}, {"type": "note_on", "time": 44, "note": 62, "velocity": 101, "channel": 0}, {"type": "note_off", "time": 193, "note": 62, "velocity": 101, "channel": 0}, {"type": "note_on", "time": 7, "note": 62, "velocity": 101, "channel": 0}, {"type": "note_off", "time": 92, "note": 62, "velocity": 101, "channel": 0}, {"type": "note_on", "time": 17, "note": 59, "velocity": 93, "channel": 0}, {"type": "note_off", "time": 68, "note": 59, "velocity": 93, "channel": 0}, {"type": "note_on", "time": 29, "note": 62, "velocity": 102, "channel": 0}, {"type": "note_off", "time": 85, "note": 62, "velocity": 102, "channel": 0}, {"type": "note_on", "time": 17, "note": 64, "velocity": 102, "channel": 0}, {"type": "note_off", "time": 83, "note": 64, "velocity": 102, "channel": 0}, {"type": "note_on", "time": 8, "note": 65, "velocity": 100, "channel": 0}, {"type": "note_off", "time": 70, "note": 65, "velocity": 100, "channel": 0}, {"type": "note_on", "time": 715, "note": 59, "velocity": 87, "channel": 0}, {"type": "note_off", "time": 62, "note": 59, "velocity": 87, "channel": 0}, {"type": "note_on", "time": 22, "note": 62, "velocity": 102, "channel": 0}, {"type": "note_off", "time": 58, "note": 62, "velocity": 102, "channel": 0}, {"type": "note_on", "time": 117, "note": 62, "velocity": 95, "channel": 0}, {"type": "note_off", "time": 271, "note": 62, "velocity": 95, "channel": 0}, {"type": "note_on", "time": 33, "note": 59, "velocity": 100, "channel": 0}, {"type": "note_off", "time": 77, "note": 59, "velocity": 100, "channel": 0}, {"type": "note_on", "time": 23, "note": 62, "velocity": 106, "channel": 0}, {"type": "note_off", "time": 85, "note": 62, "velocity": 106, "channel": 0}, {"type": "note_on", "time": 195, "note": 65, "velocity": 109, "channel": 0}, {"type": "note_off", "time": 136, "note": 65, "velocity": 109, "channel": 0}, {"type": "note_on", "time": 240, "note": 59, "velocity": 102, "channel": 0}, {"type": "note_off", "time": 83, "note": 59, "velocity": 102, "channel": 0}, {"type": "note_on", "time": 29, "note": 62, "velocity": 105, "channel": 0}, {"type": "note_off", "time": 69, "note": 62, "velocity": 105, "channel": 0}, {"type": "note_on", "time": 6, "note": 62, "velocity": 103, "channel": 0}, {"type": "note_off", "time": 125, "note": 62, "velocity": 103, "channel": 0}, {"type": "note_on", "time": 5, "note": 59, "velocity": 94, "channel": 0}, {"type": "note_off", "time": 38, "note": 59, "velocity": 94, "channel": 0}, {"type": "note_on", "time": 131, "note": 64, "velocity": 110, "channel": 0}, {"type": "note_off", "time": 95, "note": 64, "velocity": 110, "channel": 0}, {"type": "note_on", "time": 0, "note": 65, "velocity": 94, "channel": 0}, {"type": "note_off", "time": 60, "note": 65, "velocity": 94, "channel": 0}, {"type": "note_on", "time": 134, "note": 59, "velocity": 98, "channel": 0}, {"type": "note_off", "time": 74, "note": 59, "velocity": 98, "channel": 0}, {"type": "note_on", "time": 28, "note": 62, "velocity": 103, "channel": 0}, {"type": "note_off", "time": 62, "note": 62, "velocity": 103, "channel": 0}, {"type": "note_on", "time": 17, "note": 62, "velocity": 103, "channel": 0}, {"type": "note_off", "time": 97, "note": 62, "velocity": 103, "channel": 0}, {"type": "note_on", "time": 14, "note": 59, "velocity": 87, "channel": 0}, {"type": "note_off", "time": 56, "note": 59, "velocity": 87, "channel": 0}, {"type": "note_on", "time": 21, "note": 62, "velocity": 104, "channel": 0}, {"type": "note_off", "time": 102, "note": 62, "velocity": 104, "channel": 0}, {"type": "note_on", "time": 9, "note": 62, "velocity": 105, "channel": 0}, {"type": "note_off", "time": 63, "note": 62, "velocity": 105, "channel": 0}, {"type": "note_on", "time": 14, "note": 62, "velocity": 103, "channel": 0}, {"type": "note_off", "time": 103, "note": 62, "velocity": 103, "channel": 0}, {"type": "note_on", "time": 22, "note": 59, "velocity": 89, "channel": 0}, {"type": "note_off", "time": 52, "note": 59, "velocity": 89, "channel": 0}, {"type": "note_on", "time": 15, "note": 62, "velocity": 103, "channel": 0}, {"type": "note_off", "time": 85, "note": 62, "velocity": 103, "channel": 0}, {"type": "note_on", "time": 38, "note": 62, "velocity": 103, "channel": 0}, {"type": "note_off", "time": 53, "note": 62, "velocity": 103, "channel": 0}, {"type": "note_on", "time": 11, "note": 62, "velocity": 99, "channel": 0}, {"type": "note_off", "time": 127, "note": 62, "velocity": 99, "channel": 0}, {"type": "note_on", "time": 4, "note": 59, "velocity": 96, "channel": 0}, {"type": "note_off", "time": 73, "note": 59, "velocity": 96, "channel": 0}, {"type": "note_on", "time": 63, "note": 65, "velocity": 103, "channel": 0}, {"type": "note_off", "time": 35, "note": 65, "velocity": 103, "channel": 0}, {"type": "note_on", "time": 0, "note": 67, "velocity": 102, "channel": 0}, {"type": "note_on", "time": 16, "note": 69, "velocity": 114, "channel": 0}, {"type": "note_off", "time": 0, "note": 67, "velocity": 102, "channel": 0}, {"type": "note_off", "time": 86, "note": 69, "velocity": 114, "channel": 0}, {"type": "note_on", "time": 0, "note": 67, "velocity": 107, "channel": 0}, {"type": "note_off", "time": 83, "note": 67, "velocity": 107, "channel": 0}, {"type": "note_on", "time": 53, "note": 65, "velocity": 107, "channel": 0}, {"type": "note_off", "time": 70, "note": 65, "velocity": 107, "channel": 0}, {"type": "note_on", "time": 39, "note": 65, "velocity": 105, "channel": 0}, {"type": "note_off", "time": 101, "note": 65, "velocity": 105, "channel": 0}, {"type": "note_on", "time": 36, "note": 57, "velocity": 101, "channel": 0}, {"type": "note_off", "time": 79, "note": 57, "velocity": 101, "channel": 0}, {"type": "note_on", "time": 21, "note": 62, "velocity": 90, "channel": 0}, {"type": "note_off", "time": 265, "note": 62, "velocity": 90, "channel": 0}, {"type": "note_on", "time": 8, "note": 59, "velocity": 99, "channel": 0}, {"type": "note_off", "time": 105, "note": 59, "velocity": 99, "channel": 0}, {"type": "note_on", "time": 0, "note": 57, "velocity": 87, "channel": 0}, {"type": "note_off", "time": 73, "note": 57, "velocity": 87, "channel": 0}, {"type": "note_on", "time": 402, "note": 67, "velocity": 85, "channel": 0}, {"type": "note_off", "time": 41, "note": 67, "velocity": 85, "channel": 0}, {"type": "note_on", "time": 7, "note": 69, "velocity": 114, "channel": 0}, {"type": "note_off", "time": 42, "note": 69, "velocity": 114, "channel": 0}, {"type": "note_on", "time": 9, "note": 74, "velocity": 104, "channel": 0}, {"type": "note_off", "time": 71, "note": 74, "velocity": 104, "channel": 0}, {"type": "note_on", "time": 33, "note": 74, "velocity": 110, "channel": 0}, {"type": "note_off", "time": 92, "note": 74, "velocity": 110, "channel": 0}, {"type": "note_on", "time": 0, "note": 75, "velocity": 111, "channel": 0}, {"type": "note_off", "time": 45, "note": 75, "velocity": 111, "channel": 0}, {"type": "note_on", "time": 4, "note": 72, "velocity": 105, "channel": 0}, {"type": "note_off", "time": 94, "note": 72, "velocity": 105, "channel": 0}, {"type": "note_on", "time": 29, "note": 69, "velocity": 117, "channel": 0}, {"type": "note_off", "time": 83, "note": 69, "velocity": 117, "channel": 0}, {"type": "note_on", "time": 24, "note": 67, "velocity": 107, "channel": 0}, {"type": "note_off", "time": 95, "note": 67, "velocity": 107, "channel": 0}, {"type": "note_on", "time": 41, "note": 65, "velocity": 102, "channel": 0}, {"type": "note_off", "time": 88, "note": 65, "velocity": 102, "channel": 0}, {"type": "note_on", "time": 0, "note": 64, "velocity": 84, "channel": 0}, {"type": "note_off", "time": 18, "note": 64, "velocity": 84, "channel": 0}, {"type": "note_on", "time": 1102, "note": 72, "velocity": 108, "channel": 0}, {"type": "note_off", "time": 81, "note": 72, "velocity": 108, "channel": 0}, {"type": "note_on", "time": 17, "note": 72, "velocity": 109, "channel": 0}, {"type": "note_off", "time": 74, "note": 72, "velocity": 109, "channel": 0}, {"type": "note_on", "time": 13, "note": 72, "velocity": 108, "channel": 0}, {"type": "note_off", "time": 89, "note": 72, "velocity": 108, "channel": 0}, {"type": "note_on", "time": 22, "note": 77, "velocity": 111, "channel": 0}, {"type": "note_off", "time": 68, "note": 77, "velocity": 111, "channel": 0}, {"type": "note_on", "time": 426, "note": 70, "velocity": 103, "channel": 0}, {"type": "note_off", "time": 78, "note": 70, "velocity": 103, "channel": 0}, {"type": "note_on", "time": 7, "note": 70, "velocity": 103, "channel": 0}, {"type": "note_off", "time": 69, "note": 70, "velocity": 103, "channel": 0}, {"type": "note_on", "time": 5, "note": 70, "velocity": 101, "channel": 0}, {"type": "note_off", "time": 93, "note": 70, "velocity": 101, "channel": 0}, {"type": "note_on", "time": 133, "note": 77, "velocity": 107, "channel": 0}, {"type": "note_off", "time": 91, "note": 77, "velocity": 107, "channel": 0}, {"type": "note_on", "time": 284, "note": 69, "velocity": 116, "channel": 0}, {"type": "note_off", "time": 100, "note": 69, "velocity": 116, "channel": 0}, {"type": "note_on", "time": 2, "note": 68, "velocity": 108, "channel": 0}, {"type": "note_off", "time": 80, "note": 68, "velocity": 108, "channel": 0}, {"type": "note_on", "time": 0, "note": 69, "velocity": 117, "channel": 0}, {"type": "note_off", "time": 107, "note": 69, "velocity": 117, "channel": 0}, {"type": "note_on", "time": 0, "note": 68, "velocity": 108, "channel": 0}, {"type": "note_off", "time": 83, "note": 68, "velocity": 108, "channel": 0}, {"type": "note_on", "time": 4, "note": 69, "velocity": 119, "channel": 0}, {"type": "note_off", "time": 95, "note": 69, "velocity": 119, "channel": 0}, {"type": "note_on", "time": 32, "note": 76, "velocity": 109, "channel": 0}, {"type": "note_off", "time": 27, "note": 76, "velocity": 109, "channel": 0}, {"type": "note_on", "time": 3, "note": 77, "velocity": 108, "channel": 0}, {"type": "note_off", "time": 73, "note": 77, "velocity": 108, "channel": 0}, {"type": "note_on", "time": 280, "note": 76, "velocity": 112, "channel": 0}, {"type": "note_off", "time": 53, "note": 76, "velocity": 112, "channel": 0}, {"type": "note_on", "time": 0, "note": 77, "velocity": 113, "channel": 0}, {"type": "note_off", "time": 33, "note": 77, "velocity": 113, "channel": 0}, {"type": "note_on", "time": 1, "note": 76, "velocity": 111, "channel": 0}, {"type": "note_off", "time": 65, "note": 76, "velocity": 111, "channel": 0}, {"type": "note_on", "time": 11, "note": 74, "velocity": 110, "channel": 0}, {"type": "note_off", "time": 89, "note": 74, "velocity": 110, "channel": 0}, {"type": "note_on", "time": 9, "note": 73, "velocity": 109, "channel": 0}, {"type": "note_off", "time": 93, "note": 73, "velocity": 109, "channel": 0}, {"type": "note_on", "time": 12, "note": 70, "velocity": 103, "channel": 0}, {"type": "note_off", "time": 77, "note": 70, "velocity": 103, "channel": 0}, {"type": "note_on", "time": 4, "note": 69, "velocity": 116, "channel": 0}, {"type": "note_off", "time": 94, "note": 69, "velocity": 116, "channel": 0}, {"type": "note_on", "time": 8, "note": 67, "velocity": 108, "channel": 0}, {"type": "note_off", "time": 88, "note": 67, "velocity": 108, "channel": 0}, {"type": "note_on", "time": 15, "note": 65, "velocity": 112, "channel": 0}, {"type": "note_off", "time": 74, "note": 65, "velocity": 112, "channel": 0}, {"type": "note_on", "time": 30, "note": 74, "velocity": 108, "channel": 0}, {"type": "note_off", "time": 69, "note": 74, "velocity": 108, "channel": 0}, {"type": "note_on", "time": 217, "note": 68, "velocity": 115, "channel": 0}, {"type": "note_off", "time": 33, "note": 68, "velocity": 115, "channel": 0}, {"type": "note_on", "time": 5, "note": 67, "velocity": 106, "channel": 0}, {"type": "note_off", "time": 12, "note": 67, "velocity": 106, "channel": 0}, {"type": "note_on", "time": 2, "note": 66, "velocity": 104, "channel": 0}, {"type": "note_off", "time": 21, "note": 66, "velocity": 104, "channel": 0}, {"type": "note_on", "time": 213, "note": 62, "velocity": 88, "channel": 0}, {"type": "note_off", "time": 40, "note": 62, "velocity": 88, "channel": 0}, {"type": "note_on", "time": 54, "note": 67, "velocity": 110, "channel": 0}, {"type": "note_off", "time": 102, "note": 67, "velocity": 110, "channel": 0}, {"type": "note_on", "time": 88, "note": 65, "velocity": 106, "channel": 0}, {"type": "note_off", "time": 104, "note": 65, "velocity": 106, "channel": 0}, {"type": "note_on", "time": 79, "note": 68, "velocity": 103, "channel": 0}, {"type": "note_off", "time": 32, "note": 68, "velocity": 103, "channel": 0}, {"type": "note_on", "time": 2, "note": 69, "velocity": 113, "channel": 0}, {"type": "note_off", "time": 67, "note": 69, "velocity": 113, "channel": 0}, {"type": "note_on", "time": 0, "note": 67, "velocity": 85, "channel": 0}, {"type": "note_off", "time": 13, "note": 67, "velocity": 85, "channel": 0}, {"type": "note_on", "time": 195, "note": 62, "velocity": 103, "channel": 0}, {"type": "note_off", "time": 29, "note": 62, "velocity": 103, "channel": 0}, {"type": "note_on", "time": 49, "note": 67, "velocity": 109, "channel": 0}, {"type": "note_off", "time": 86, "note": 67, "velocity": 109, "channel": 0}, {"type": "note_on", "time": 24, "note": 67, "velocity": 107, "channel": 0}, {"type": "note_off", "time": 80, "note": 67, "velocity": 107, "channel": 0}, {"type": "note_on", "time": 11, "note": 67, "velocity": 108, "channel": 0}, {"type": "note_off", "time": 83, "note": 67, "velocity": 108, "channel": 0}, {"type": "note_on", "time": 10, "note": 65, "velocity": 112, "channel": 0}, {"type": "note_off", "time": 61, "note": 65, "velocity": 112, "channel": 0}, {"type": "note_on", "time": 20, "note": 65, "velocity": 111, "channel": 0}, {"type": "note_off", "time": 64, "note": 65, "velocity": 111, "channel": 0}, {"type": "note_on", "time": 29, "note": 65, "velocity": 103, "channel": 0}, {"type": "note_off", "time": 85, "note": 65, "velocity": 103, "channel": 0}, {"type": "note_on", "time": 19, "note": 62, "velocity": 102, "channel": 0}, {"type": "note_off", "time": 60, "note": 62, "velocity": 102, "channel": 0}, {"type": "note_on", "time": 323, "note": 68, "velocity": 101, "channel": 0}, {"type": "note_off", "time": 26, "note": 68, "velocity": 101, "channel": 0}, {"type": "note_on", "time": 2, "note": 69, "velocity": 108, "channel": 0}, {"type": "note_off", "time": 61, "note": 69, "velocity": 108, "channel": 0}, {"type": "note_on", "time": 1, "note": 72, "velocity": 105, "channel": 0}, {"type": "note_off", "time": 70, "note": 72, "velocity": 105, "channel": 0}, {"type": "note_on", "time": 20, "note": 74, "velocity": 112, "channel": 0}, {"type": "note_off", "time": 86, "note": 74, "velocity": 112, "channel": 0}, {"type": "note_on", "time": 20, "note": 77, "velocity": 112, "channel": 0}, {"type": "note_off", "time": 67, "note": 77, "velocity": 112, "channel": 0}, {"type": "note_on", "time": 31, "note": 77, "velocity": 106, "channel": 0}, {"type": "note_off", "time": 98, "note": 77, "velocity": 106, "channel": 0}, {"type": "note_on", "time": 0, "note": 78, "velocity": 108, "channel": 0}, {"type": "note_off", "time": 11, "note": 78, "velocity": 108, "channel": 0}, {"type": "note_on", "time": 0, "note": 79, "velocity": 106, "channel": 0}, {"type": "note_off", "time": 74, "note": 79, "velocity": 106, "channel": 0}, {"type": "note_on", "time": 24, "note": 79, "velocity": 110, "channel": 0}, {"type": "note_off", "time": 208, "note": 79, "velocity": 110, "channel": 0}, {"type": "note_on", "time": 20, "note": 77, "velocity": 107, "channel": 0}, {"type": "note_off", "time": 71, "note": 77, "velocity": 107, "channel": 0}, {"type": "note_on", "time": 3, "note": 74, "velocity": 112, "channel": 0}, {"type": "note_off", "time": 56, "note": 74, "velocity": 112, "channel": 0}, {"type": "note_on", "time": 52, "note": 72, "velocity": 102, "channel": 0}, {"type": "note_off", "time": 150, "note": 72, "velocity": 102, "channel": 0}, {"type": "note_on", "time": 11, "note": 74, "velocity": 102, "channel": 0}, {"type": "note_off", "time": 79, "note": 74, "velocity": 102, "channel": 0}, {"type": "note_on", "time": 27, "note": 68, "velocity": 106, "channel": 0}, {"type": "note_off", "time": 44, "note": 68, "velocity": 106, "channel": 0}, {"type": "note_on", "time": 4, "note": 67, "velocity": 101, "channel": 0}, {"type": "note_off", "time": 49, "note": 67, "velocity": 101, "channel": 0}, {"type": "note_on", "time": 1, "note": 68, "velocity": 102, "channel": 0}, {"type": "note_off", "time": 68, "note": 68, "velocity": 102, "channel": 0}, {"type": "note_on", "time": 3, "note": 65, "velocity": 101, "channel": 0}, {"type": "note_off", "time": 68, "note": 65, "velocity": 101, "channel": 0}, {"type": "note_on", "time": 40, "note": 67, "velocity": 106, "channel": 0}, {"type": "note_off", "time": 100, "note": 67, "velocity": 106, "channel": 0}, {"type": "note_on", "time": 6, "note": 65, "velocity": 101, "channel": 0}, {"type": "note_off", "time": 76, "note": 65, "velocity": 101, "channel": 0}, {"type": "note_on", "time": 27, "note": 62, "velocity": 104, "channel": 0}, {"type": "note_off", "time": 162, "note": 62, "velocity": 104, "channel": 0}, {"type": "note_on", "time": 9, "note": 65, "velocity": 103, "channel": 0}, {"type": "note_off", "time": 102, "note": 65, "velocity": 103, "channel": 0}, {"type": "note_on", "time": 188, "note": 62, "velocity": 101, "channel": 0}, {"type": "note_off", "time": 37, "note": 62, "velocity": 101, "channel": 0}, {"type": "note_on", "time": 44, "note": 65, "velocity": 108, "channel": 0}, {"type": "note_off", "time": 101, "note": 65, "velocity": 108, "channel": 0}, {"type": "note_on", "time": 10, "note": 67, "velocity": 94, "channel": 0}, {"type": "note_off", "time": 63, "note": 67, "velocity": 94, "channel": 0}, {"type": "note_on", "time": 42, "note": 67, "velocity": 9, "channel": 0}, {"type": "note_off", "time": 167, "note": 67, "velocity": 9, "channel": 0}, {"type": "note_on", "time": 10, "note": 65, "velocity": 104, "channel": 0}, {"type": "note_off", "time": 71, "note": 65, "velocity": 104, "channel": 0}, {"type": "note_on", "time": 48, "note": 68, "velocity": 105, "channel": 0}, {"type": "note_off", "time": 49, "note": 68, "velocity": 105, "channel": 0}, {"type": "note_on", "time": 0, "note": 67, "velocity": 94, "channel": 0}, {"type": "note_off", "time": 15, "note": 67, "velocity": 94, "channel": 0}, {"type": "note_on", "time": 96, "note": 62, "velocity": 97, "channel": 0}, {"type": "note_off", "time": 34, "note": 62, "velocity": 97, "channel": 0}, {"type": "note_on", "time": 61, "note": 67, "velocity": 103, "channel": 0}, {"type": "note_off", "time": 84, "note": 67, "velocity": 103, "channel": 0}, {"type": "note_on", "time": 19, "note": 65, "velocity": 81, "channel": 0}, {"type": "note_off", "time": 74, "note": 65, "velocity": 81, "channel": 0}, {"type": "note_on", "time": 28, "note": 62, "velocity": 101, "channel": 0}, {"type": "note_off", "time": 96, "note": 62, "velocity": 101, "channel": 0}, {"type": "note_on", "time": 6, "note": 60, "velocity": 89, "channel": 0}, {"type": "note_off", "time": 69, "note": 60, "velocity": 89, "channel": 0}, {"type": "note_on", "time": 12, "note": 62, "velocity": 102, "channel": 0}, {"type": "note_off", "time": 58, "note": 62, "velocity": 102, "channel": 0}, {"type": "note_on", "time": 0, "note": 61, "velocity": 95, "channel": 0}, {"type": "note_off", "time": 11, "note": 61, "velocity": 95, "channel": 0}, {"type": "note_on", "time": 202, "note": 62, "velocity": 95, "channel": 0}, {"type": "note_off", "time": 38, "note": 62, "velocity": 95, "channel": 0}, {"type": "note_on", "time": 65, "note": 65, "velocity": 105, "channel": 0}, {"type": "note_off", "time": 92, "note": 65, "velocity": 105, "channel": 0}, {"type": "note_on", "time": 11, "note": 67, "velocity": 92, "channel": 0}, {"type": "note_off", "time": 51, "note": 67, "velocity": 92, "channel": 0}, {"type": "note_on", "time": 44, "note": 67, "velocity": 108, "channel": 0}, {"type": "note_off", "time": 91, "note": 67, "velocity": 108, "channel": 0}, {"type": "note_on", "time": 2, "note": 65, "velocity": 103, "channel": 0}, {"type": "note_off", "time": 29, "note": 65, "velocity": 103, "channel": 0}, {"type": "note_on", "time": 73, "note": 67, "velocity": 92, "channel": 0}, {"type": "note_off", "time": 35, "note": 67, "velocity": 92, "channel": 0}, {"type": "note_on", "time": 49, "note": 67, "velocity": 106, "channel": 0}, {"type": "note_off", "time": 93, "note": 67, "velocity": 106, "channel": 0}, {"type": "note_on", "time": 3, "note": 65, "velocity": 99, "channel": 0}, {"type": "note_off", "time": 24, "note": 65, "velocity": 99, "channel": 0}, {"type": "note_on", "time": 69, "note": 67, "velocity": 97, "channel": 0}, {"type": "note_off", "time": 47, "note": 67, "velocity": 97, "channel": 0}, {"type": "note_on", "time": 42, "note": 67, "velocity": 107, "channel": 0}, {"type": "note_off", "time": 90, "note": 67, "velocity": 107, "channel": 0}, {"type": "note_on", "time": 7, "note": 65, "velocity": 100, "channel": 0}, {"type": "note_off", "time": 36, "note": 65, "velocity": 100, "channel": 0}, {"type": "note_on", "time": 67, "note": 67, "velocity": 105, "channel": 0}, {"type": "note_off", "time": 89, "note": 67, "velocity": 105, "channel": 0}, {"type": "note_on", "time": 6, "note": 65, "velocity": 98, "channel": 0}, {"type": "note_off", "time": 37, "note": 65, "velocity": 98, "channel": 0}, {"type": "note_on", "time": 36, "note": 67, "velocity": 104, "channel": 0}, {"type": "note_off", "time": 122, "note": 67, "velocity": 104, "channel": 0}, {"type": "note_on", "time": 6, "note": 65, "velocity": 101, "channel": 0}, {"type": "note_off", "time": 37, "note": 65, "velocity": 101, "channel": 0}, {"type": "note_on", "time": 41, "note": 67, "velocity": 106, "channel": 0}, {"type": "note_off", "time": 33, "note": 67, "velocity": 106, "channel": 0}, {"type": "note_on", "time": 4, "note": 68, "velocity": 105, "channel": 0}, {"type": "note_off", "time": 36, "note": 68, "velocity": 105, "channel": 0}, {"type": "note_on", "time": 4, "note": 67, "velocity": 93, "channel": 0}, {"type": "note_off", "time": 42, "note": 67, "velocity": 93, "channel": 0}, {"type": "note_on", "time": 80, "note": 62, "velocity": 97, "channel": 0}, {"type": "note_off", "time": 76, "note": 62, "velocity": 97, "channel": 0}, {"type": "note_on", "time": 14, "note": 65, "velocity": 108, "channel": 0}, {"type": "note_off", "time": 184, "note": 65, "velocity": 108, "channel": 0}, {"type": "note_on", "time": 287, "note": 65, "velocity": 105, "channel": 0}, {"type": "note_on", "time": 51, "note": 66, "velocity": 108, "channel": 0}, {"type": "note_off", "time": 0, "note": 65, "velocity": 105, "channel": 0}, {"type": "note_off", "time": 27, "note": 66, "velocity": 108, "channel": 0}, {"type": "note_on", "time": 15, "note": 67, "velocity": 106, "channel": 0}, {"type": "note_off", "time": 280, "note": 67, "velocity": 106, "channel": 0}, {"type": "note_on", "time": 9, "note": 65, "velocity": 102, "channel": 0}, {"type": "note_off", "time": 91, "note": 65, "velocity": 102, "channel": 0}, {"type": "note_on", "time": 24, "note": 66, "velocity": 104, "channel": 0}, {"type": "note_off", "time": 37, "note": 66, "velocity": 104, "channel": 0}, {"type": "note_on", "time": 7, "note": 67, "velocity": 106, "channel": 0}, {"type": "note_off", "time": 36, "note": 67, "velocity": 106, "channel": 0}, {"type": "note_on", "time": 11, "note": 68, "velocity": 103, "channel": 0}, {"type": "note_off", "time": 337, "note": 68, "velocity": 103, "channel": 0}, {"type": "note_on", "time": 4, "note": 69, "velocity": 113, "channel": 0}, {"type": "note_off", "time": 390, "note": 69, "velocity": 113, "channel": 0}, {"type": "note_on", "time": 234, "note": 68, "velocity": 107, "channel": 0}, {"type": "note_off", "time": 54, "note": 68, "velocity": 107, "channel": 0}, {"type": "note_on", "time": 18, "note": 69, "velocity": 114, "channel": 0}, {"type": "note_off", "time": 89, "note": 69, "velocity": 114, "channel": 0}, {"type": "note_on", "time": 12, "note": 70, "velocity": 108, "channel": 0}, {"type": "note_off", "time": 57, "note": 70, "velocity": 108, "channel": 0}, {"type": "note_on", "time": 1, "note": 69, "velocity": 99, "channel": 0}, {"type": "note_off", "time": 35, "note": 69, "velocity": 99, "channel": 0}, {"type": "note_on", "time": 20, "note": 68, "velocity": 93, "channel": 0}, {"type": "note_off", "time": 52, "note": 68, "velocity": 93, "channel": 0}, {"type": "note_on", "time": 0, "note": 69, "velocity": 113, "channel": 0}, {"type": "note_off", "time": 110, "note": 69, "velocity": 113, "channel": 0}, {"type": "note_on", "time": 66, "note": 65, "velocity": 89, "channel": 0}, {"type": "note_off", "time": 34, "note": 65, "velocity": 89, "channel": 0}, {"type": "note_on", "time": 16, "note": 68, "velocity": 107, "channel": 0}, {"type": "note_off", "time": 85, "note": 68, "velocity": 107, "channel": 0}, {"type": "note_on", "time": 3, "note": 69, "velocity": 114, "channel": 0}, {"type": "note_off", "time": 90, "note": 69, "velocity": 114, "channel": 0}, {"type": "note_on", "time": 20, "note": 70, "velocity": 103, "channel": 0}, {"type": "note_off", "time": 47, "note": 70, "velocity": 103, "channel": 0}, {"type": "note_on", "time": 0, "note": 69, "velocity": 105, "channel": 0}, {"type": "note_off", "time": 50, "note": 69, "velocity": 105, "channel": 0}, {"type": "note_on", "time": 16, "note": 68, "velocity": 93, "channel": 0}, {"type": "note_off", "time": 60, "note": 68, "velocity": 93, "channel": 0}, {"type": "note_on", "time": 0, "note": 69, "velocity": 112, "channel": 0}, {"type": "note_off", "time": 125, "note": 69, "velocity": 112, "channel": 0}, {"type": "note_on", "time": 73, "note": 68, "velocity": 106, "channel": 0}, {"type": "note_off", "time": 98, "note": 68, "velocity": 106, "channel": 0}, {"type": "note_on", "time": 4, "note": 69, "velocity": 105, "channel": 0}, {"type": "note_off", "time": 50, "note": 69, "velocity": 105, "channel": 0}, {"type": "note_on", "time": 27, "note": 69, "velocity": 79, "channel": 0}, {"type": "note_off", "time": 15, "note": 69, "velocity": 79, "channel": 0}, {"type": "note_on", "time": 2, "note": 70, "velocity": 105, "channel": 0}, {"type": "note_off", "time": 42, "note": 70, "velocity": 105, "channel": 0}, {"type": "note_on", "time": 7, "note": 69, "velocity": 101, "channel": 0}, {"type": "note_off", "time": 67, "note": 69, "velocity": 101, "channel": 0}, {"type": "note_on", "time": 5, "note": 68, "velocity": 94, "channel": 0}, {"type": "note_off", "time": 59, "note": 68, "velocity": 94, "channel": 0}, {"type": "note_on", "time": 1, "note": 69, "velocity": 117, "channel": 0}, {"type": "note_off", "time": 53, "note": 69, "velocity": 117, "channel": 0}, {"type": "note_on", "time": 5, "note": 68, "velocity": 109, "channel": 0}, {"type": "note_off", "time": 46, "note": 68, "velocity": 109, "channel": 0}, {"type": "note_on", "time": 98, "note": 68, "velocity": 103, "channel": 0}, {"type": "note_off", "time": 96, "note": 68, "velocity": 103, "channel": 0}, {"type": "note_on", "time": 0, "note": 69, "velocity": 106, "channel": 0}, {"type": "note_off", "time": 48, "note": 69, "velocity": 106, "channel": 0}, {"type": "note_on", "time": 58, "note": 70, "velocity": 104, "channel": 0}, {"type": "note_off", "time": 29, "note": 70, "velocity": 104, "channel": 0}, {"type": "note_on", "time": 0, "note": 69, "velocity": 106, "channel": 0}, {"type": "note_off", "time": 56, "note": 69, "velocity": 106, "channel": 0}, {"type": "note_on", "time": 12, "note": 62, "velocity": 87, "channel": 0}, {"type": "note_off", "time": 65, "note": 62, "velocity": 87, "channel": 0}, {"type": "note_on", "time": 0, "note": 69, "velocity": 109, "channel": 0}, {"type": "note_off", "time": 110, "note": 69, "velocity": 109, "channel": 0}, {"type": "note_on", "time": 4, "note": 62, "velocity": 91, "channel": 0}, {"type": "note_off", "time": 74, "note": 62, "velocity": 91, "channel": 0}, {"type": "note_on", "time": 8, "note": 68, "velocity": 102, "channel": 0}, {"type": "note_off", "time": 99, "note": 68, "velocity": 102, "channel": 0}, {"type": "note_on", "time": 0, "note": 69, "velocity": 95, "channel": 0}, {"type": "note_off", "time": 39, "note": 69, "velocity": 95, "channel": 0}, {"type": "note_on", "time": 74, "note": 70, "velocity": 104, "channel": 0}, {"type": "note_off", "time": 29, "note": 70, "velocity": 104, "channel": 0}, {"type": "note_on", "time": 1, "note": 69, "velocity": 105, "channel": 0}, {"type": "note_off", "time": 69, "note": 69, "velocity": 105, "channel": 0}, {"type": "note_on", "time": 4, "note": 62, "velocity": 84, "channel": 0}, {"type": "note_off", "time": 69, "note": 62, "velocity": 84, "channel": 0}, {"type": "note_on", "time": 6, "note": 69, "velocity": 119, "channel": 0}, {"type": "note_off", "time": 38, "note": 69, "velocity": 119, "channel": 0}, {"type": "note_on", "time": 1, "note": 68, "velocity": 86, "channel": 0}, {"type": "note_off", "time": 22, "note": 68, "velocity": 86, "channel": 0}, {"type": "note_on", "time": 119, "note": 62, "velocity": 98, "channel": 0}, {"type": "note_off", "time": 96, "note": 62, "velocity": 98, "channel": 0}, {"type": "note_on", "time": 58, "note": 58, "velocity": 90, "channel": 0}, {"type": "note_off", "time": 34, "note": 58, "velocity": 90, "channel": 0}, {"type": "note_on", "time": 14, "note": 68, "velocity": 106, "channel": 0}, {"type": "note_off", "time": 84, "note": 68, "velocity": 106, "channel": 0}, {"type": "note_on", "time": 15, "note": 69, "velocity": 102, "channel": 0}, {"type": "note_off", "time": 30, "note": 69, "velocity": 102, "channel": 0}, {"type": "note_on", "time": 54, "note": 70, "velocity": 101, "channel": 0}, {"type": "note_off", "time": 34, "note": 70, "velocity": 101, "channel": 0}, {"type": "note_on", "time": 0, "note": 69, "velocity": 103, "channel": 0}, {"type": "note_off", "time": 58, "note": 69, "velocity": 103, "channel": 0}, {"type": "note_on", "time": 18, "note": 69, "velocity": 112, "channel": 0}, {"type": "note_off", "time": 49, "note": 69, "velocity": 112, "channel": 0}, {"type": "note_on", "time": 145, "note": 62, "velocity": 95, "channel": 0}, {"type": "note_off", "time": 33, "note": 62, "velocity": 95, "channel": 0}, {"type": "note_on", "time": 42, "note": 67, "velocity": 103, "channel": 0}, {"type": "note_off", "time": 47, "note": 67, "velocity": 103, "channel": 0}, {"type": "note_on", "time": 0, "note": 68, "velocity": 106, "channel": 0}, {"type": "note_off", "time": 53, "note": 68, "velocity": 106, "channel": 0}, {"type": "note_on", "time": 11, "note": 69, "velocity": 104, "channel": 0}, {"type": "note_off", "time": 23, "note": 69, "velocity": 104, "channel": 0}, {"type": "note_on", "time": 79, "note": 70, "velocity": 110, "channel": 0}, {"type": "note_off", "time": 24, "note": 70, "velocity": 110, "channel": 0}, {"type": "note_on", "time": 0, "note": 69, "velocity": 106, "channel": 0}, {"type": "note_off", "time": 27, "note": 69, "velocity": 106, "channel": 0}, {"type": "note_on", "time": 2, "note": 70, "velocity": 107, "channel": 0}, {"type": "note_off", "time": 33, "note": 70, "velocity": 107, "channel": 0}, {"type": "note_on", "time": 29, "note": 68, "velocity": 94, "channel": 0}, {"type": "note_off", "time": 40, "note": 68, "velocity": 94, "channel": 0}, {"type": "note_on", "time": 30, "note": 69, "velocity": 112, "channel": 0}, {"type": "note_off", "time": 92, "note": 69, "velocity": 112, "channel": 0}, {"type": "note_on", "time": 26, "note": 62, "velocity": 91, "channel": 0}, {"type": "note_off", "time": 42, "note": 62, "velocity": 91, "channel": 0}, {"type": "note_on", "time": 21, "note": 68, "velocity": 100, "channel": 0}, {"type": "note_off", "time": 50, "note": 68, "velocity": 100, "channel": 0}, {"type": "note_on", "time": 32, "note": 69, "velocity": 88, "channel": 0}, {"type": "note_off", "time": 35, "note": 69, "velocity": 88, "channel": 0}, {"type": "note_on", "time": 63, "note": 70, "velocity": 107, "channel": 0}, {"type": "note_off", "time": 37, "note": 70, "velocity": 107, "channel": 0}, {"type": "note_on", "time": 1, "note": 69, "velocity": 104, "channel": 0}, {"type": "note_off", "time": 32, "note": 69, "velocity": 104, "channel": 0}, {"type": "note_on", "time": 10, "note": 70, "velocity": 101, "channel": 0}, {"type": "note_off", "time": 53, "note": 70, "velocity": 101, "channel": 0}, {"type": "note_on", "time": 6, "note": 68, "velocity": 86, "channel": 0}, {"type": "note_off", "time": 33, "note": 68, "velocity": 86, "channel": 0}, {"type": "note_on", "time": 14, "note": 69, "velocity": 105, "channel": 0}, {"type": "note_off", "time": 80, "note": 69, "velocity": 105, "channel": 0}, {"type": "note_on", "time": 123, "note": 62, "velocity": 103, "channel": 0}, {"type": "note_off", "time": 103, "note": 62, "velocity": 103, "channel": 0}, {"type": "note_on", "time": 14, "note": 58, "velocity": 82, "channel": 0}, {"type": "note_off", "time": 27, "note": 58, "velocity": 82, "channel": 0}, {"type": "note_on", "time": 47, "note": 68, "velocity": 110, "channel": 0}, {"type": "note_off", "time": 52, "note": 68, "velocity": 110, "channel": 0}, {"type": "note_on", "time": 2, "note": 67, "velocity": 102, "channel": 0}, {"type": "note_off", "time": 10, "note": 67, "velocity": 102, "channel": 0}, {"type": "note_on", "time": 4, "note": 66, "velocity": 105, "channel": 0}, {"type": "note_off", "time": 16, "note": 66, "velocity": 105, "channel": 0}, {"type": "note_on", "time": 3, "note": 65, "velocity": 103, "channel": 0}, {"type": "note_off", "time": 21, "note": 65, "velocity": 103, "channel": 0}, {"type": "note_on", "time": 60, "note": 62, "velocity": 109, "channel": 0}, {"type": "note_off", "time": 53, "note": 62, "velocity": 109, "channel": 0}, {"type": "note_on", "time": 7, "note": 61, "velocity": 105, "channel": 0}, {"type": "note_off", "time": 38, "note": 61, "velocity": 105, "channel": 0}, {"type": "note_on", "time": 34, "note": 60, "velocity": 90, "channel": 0}, {"type": "note_off", "time": 42, "note": 60, "velocity": 90, "channel": 0}, {"type": "note_on", "time": 31, "note": 67, "velocity": 110, "channel": 0}, {"type": "note_off", "time": 38, "note": 67, "velocity": 110, "channel": 0}, {"type": "note_on", "time": 2, "note": 66, "velocity": 106, "channel": 0}, {"type": "note_off", "time": 15, "note": 66, "velocity": 106, "channel": 0}, {"type": "note_on", "time": 5, "note": 65, "velocity": 101, "channel": 0}, {"type": "note_off", "time": 15, "note": 65, "velocity": 101, "channel": 0}, {"type": "note_on", "time": 114, "note": 62, "velocity": 102, "channel": 0}, {"type": "note_off", "time": 105, "note": 62, "velocity": 102, "channel": 0}, {"type": "note_on", "time": 11, "note": 60, "velocity": 96, "channel": 0}, {"type": "note_off", "time": 48, "note": 60, "velocity": 96, "channel": 0}, {"type": "note_on", "time": 24, "note": 65, "velocity": 105, "channel": 0}, {"type": "note_off", "time": 127, "note": 65, "velocity": 105, "channel": 0}, {"type": "note_on", "time": 20, "note": 65, "velocity": 96, "channel": 0}, {"type": "note_off", "time": 107, "note": 65, "velocity": 96, "channel": 0}, {"type": "note_on", "time": 51, "note": 65, "velocity": 104, "channel": 0}, {"type": "note_off", "time": 48, "note": 65, "velocity": 104, "channel": 0}, {"type": "note_on", "time": 138, "note": 56, "velocity": 98, "channel": 0}, {"type": "note_off", "time": 53, "note": 56, "velocity": 98, "channel": 0}, {"type": "note_on", "time": 1, "note": 55, "velocity": 100, "channel": 0}, {"type": "note_off", "time": 11, "note": 55, "velocity": 100, "channel": 0}, {"type": "note_on", "time": 2, "note": 54, "velocity": 80, "channel": 0}, {"type": "note_on", "time": 3, "note": 53, "velocity": 110, "channel": 0}, {"type": "note_off", "time": 0, "note": 54, "velocity": 80, "channel": 0}, {"type": "note_off", "time": 19, "note": 53, "velocity": 110, "channel": 0}, {"type": "note_on", "time": 8, "note": 52, "velocity": 100, "channel": 0}, {"type": "note_off", "time": 23, "note": 52, "velocity": 100, "channel": 0}, {"type": "note_on", "time": 92, "note": 53, "velocity": 97, "channel": 0}, {"type": "note_off", "time": 37, "note": 53, "velocity": 97, "channel": 0}, {"type": "note_on", "time": 38, "note": 55, "velocity": 102, "channel": 0}, {"type": "note_off", "time": 101, "note": 55, "velocity": 102, "channel": 0}, {"type": "note_on", "time": 2, "note": 53, "velocity": 97, "channel": 0}, {"type": "note_off", "time": 51, "note": 53, "velocity": 97, "channel": 0}, {"type": "note_on", "time": 5, "note": 57, "velocity": 117, "channel": 0}, {"type": "note_off", "time": 33, "note": 57, "velocity": 117, "channel": 0}, {"type": "note_on", "time": 5, "note": 60, "velocity": 104, "channel": 0}, {"type": "note_off", "time": 19, "note": 60, "velocity": 104, "channel": 0}, {"type": "note_on", "time": 5, "note": 62, "velocity": 100, "channel": 0}, {"type": "note_off", "time": 38, "note": 62, "velocity": 100, "channel": 0}, {"type": "note_on", "time": 8, "note": 60, "velocity": 100, "channel": 0}, {"type": "note_off", "time": 30, "note": 60, "velocity": 100, "channel": 0}, {"type": "note_on", "time": 11, "note": 62, "velocity": 91, "channel": 0}, {"type": "note_off", "time": 166, "note": 62, "velocity": 91, "channel": 0}, {"type": "end_of_track", "time": 0}]]}