{"ticks_per_beat": 192, "tracks": [[{"type": "track_name", "name": "Melody", "time": 0}, {"type": "set_tempo", "tempo": 392156, "time": 0}, {"type": "key_signature", "key": "F", "time": 0}, {"type": "time_signature", "numerator": 4, "denominator": 4, "clocks_per_click": 24, "notated_32nd_notes_per_beat": 8, "time": 0}, {"type": "note_on", "time": 781, "note": 68, "velocity": 113, "channel": 0}, {"type": "note_off", "time": 31, "note": 68, "velocity": 113, "channel": 0}, {"type": "note_on", "time": 11, "note": 69, "velocity": 122, "channel": 0}, {"type": "note_off", "time": 471, "note": 69, "velocity": 122, "channel": 0}, {"type": "note_on", "time": 11, "note": 72, "velocity": 108, "channel": 0}, {"type": "note_off", "time": 33, "note": 72, "velocity": 108, "channel": 0}, {"type": "note_on", "time": 9, "note": 73, "velocity": 117, "channel": 0}, {"type": "note_off", "time": 87, "note": 73, "velocity": 117, "channel": 0}, {"type": "note_on", "time": 7, "note": 74, "velocity": 109, "channel": 0}, {"type": "note_off", "time": 1123, "note": 74, "velocity": 109, "channel": 0}, {"type": "note_on", "time": 31, "note": 72, "velocity": 118, "channel": 0}, {"type": "note_off", "time": 51, "note": 72, "velocity": 118, "channel": 0}, {"type": "note_on", "time": 7, "note": 73, "velocity": 109, "channel": 0}, {"type": "note_off", "time": 64, "note": 73, "velocity": 109, "channel": 0}, {"type": "note_on", "time": 0, "note": 72, "velocity": 116, "channel": 0}, {"type": "note_off", "time": 87, "note": 72, "velocity": 116, "channel": 0}, {"type": "note_on", "time": 4, "note": 69, "velocity": 125, "channel": 0}, {"type": "note_off", "time": 89, "note": 69, "velocity": 125, "channel": 0}, {"type": "note_on", "time": 5, "note": 65, "velocity": 113, "channel": 0}, {"type": "note_off", "time": 73, "note": 65, "velocity": 113, "channel": 0}, {"type": "note_on", "time": 10, "note": 67, "velocity": 116, "channel": 0}, {"type": "note_off", "time": 84, "note": 67, "velocity": 116, "channel": 0}, {"type": "note_on", "time": 14, "note": 68, "velocity": 114, "channel": 0}, {"type": "note_off", "time": 36, "note": 68, "velocity": 114, "channel": 0}, {"type": "note_on", "time": 1, "note": 69, "velocity": 117, "channel": 0}, {"type": "note_off", "time": 65, "note": 69, "velocity": 117, "channel": 0}, {"type": "note_on", "time": 6, "note": 68, "velocity": 115, "channel": 0}, {"type": "note_off", "time": 69, "note": 68, "velocity": 115, "channel": 0}, {"type": "note_on", "time": 3, "note": 69, "velocity": 105, "channel": 0}, {"type": "note_off", "time": 18, "note": 69, "velocity": 105, "channel": 0}, {"type": "note_on", "time": 4, "note": 67, "velocity": 114, "channel": 0}, {"type": "note_off", "time": 81, "note": 67, "velocity": 114, "channel": 0}, {"type": "note_on", "time": 3, "note": 66, "velocity": 112, "channel": 0}, {"type": "note_off", "time": 47, "note": 66, "velocity": 112, "channel": 0}, {"type": "note_on", "time": 0, "note": 67, "velocity": 114, "channel": 0}, {"type": "note_off", "time": 31, "note": 67, "velocity": 114, "channel": 0}, {"type": "note_on", "time": 16, "note": 65, "velocity": 106, "channel": 0}, {"type": "note_off", "time": 76, "note": 65, "velocity": 106, "channel": 0}, {"type": "note_on", "time": 13, "note": 62, "velocity": 114, "channel": 0}, {"type": "note_off", "time": 73, "note": 62, "velocity": 114, "channel": 0}, {"type": "note_on", "time": 5, "note": 61, "velocity": 110, "channel": 0}, {"type": "note_off", "time": 76, "note": 61, "velocity": 110, "channel": 0}, {"type": "note_on", "time": 14, "note": 60, "velocity": 108, "channel": 0}, {"type": "note_off", "time": 68, "note": 60, "velocity": 108, "channel": 0}, {"type": "note_on", "time": 10, "note": 57, "velocity": 110, "channel": 0}, {"type": "note_off", "time": 63, "note": 57, "velocity": 110, "channel": 0}, {"type": "note_on", "time": 7, "note": 56, "velocity": 101, "channel": 0}, {"type": "note_off", "time": 64, "note": 56, "velocity": 101, "channel": 0}, {"type": "note_on", "time": 10, "note": 53, "velocity": 100, "channel": 0}, {"type": "note_off", "time": 53, "note": 53, "velocity": 100, "channel": 0}, {"type": "note_on", "time": 14, "note": 52, "velocity": 107, "channel": 0}, {"type": "note_off", "time": 111, "note": 52, "velocity": 107, "channel": 0}, {"type": "note_on", "time": 0, "note": 51, "velocity": 108, "channel": 0}, {"type": "note_off", "time": 68, "note": 51, "velocity": 108, "channel": 0}, {"type": "note_on", "time": 206, "note": 66, "velocity": 113, "channel": 0}, {"type": "note_off", "time": 30, "note": 66, "velocity": 113, "channel": 0}, {"type": "note_on", "time": 0, "note": 67, "velocity": 113, "channel": 0}, {"type": "note_off", "time": 12, "note": 67, "velocity": 113, "channel": 0}, {"type": "note_on", "time": 1, "note": 68, "velocity": 116, "channel": 0}, {"type": "note_off", "time": 48, "note": 68, "velocity": 116, "channel": 0}, {"type": "note_on", "time": 0, "note": 67, "velocity": 100, "channel": 0}, {"type": "note_off", "time": 69, "note": 67, "velocity": 100, "channel": 0}, {"type": "note_on", "time": 54, "note": 72, "velocity": 103, "channel": 0}, {"type": "note_off", "time": 70, "note": 72, "velocity": 103, "channel": 0}, {"type": "note_on", "time": 11, "note": 67, "velocity": 111, "channel": 0}, {"type": "note_off", "time": 90, "note": 67, "velocity": 111, "channel": 0}, {"type": "note_on", "time": 0, "note": 65, "velocity": 110, "channel": 0}, {"type": "note_off", "time": 91, "note": 65, "velocity": 110, "channel": 0}, {"type": "note_on", "time": 0, "note": 62, "velocity": 111, "channel": 0}, {"type": "note_off", "time": 73, "note": 62, "velocity": 111, "channel": 0}, {"type": "note_on", "time": 42, "note": 62, "velocity": 101, "channel": 0}, {"type": "note_off", "time": 168, "note": 62, "velocity": 101, "channel": 0}, {"type": "note_on", "time": 1, "note": 60, "velocity": 101, "channel": 0}, {"type": "note_off", "time": 42, "note": 60, "velocity": 101, "channel": 0}, {"type": "note_on", "time": 350, "note": 68, "velocity": 110, "channel": 0}, {"type": "note_off", "time": 35, "note": 68, "velocity": 110, "channel": 0}, {"type": "note_on", "time": 4, "note": 69, "velocity": 115, "channel": 0}, {"type": "note_off", "time": 47, "note": 69, "velocity": 115, "channel": 0}, {"type": "note_on", "time": 5, "note": 72, "velocity": 101, "channel": 0}, {"type": "note_off", "time": 47, "note": 72, "velocity": 101, "channel": 0}, {"type": "note_on", "time": 64, "note": 68, "velocity": 116, "channel": 0}, {"type": "note_off", "time": 32, "note": 68, "velocity": 116, "channel": 0}, {"type": "note_on", "time": 0, "note": 67, "velocity": 112, "channel": 0}, {"type": "note_off", "time": 21, "note": 67, "velocity": 112, "channel": 0}, {"type": "note_on", "time": 1, "note": 68, "velocity": 113, "channel": 0}, {"type": "note_off", "time": 23, "note": 68, "velocity": 113, "channel": 0}, {"type": "note_on", "time": 5, "note": 67, "velocity": 101, "channel": 0}, {"type": "note_off", "time": 76, "note": 67, "velocity": 101, "channel": 0}, {"type": "note_on", "time": 6, "note": 68, "velocity": 114, "channel": 0}, {"type": "note_off", "time": 97, "note": 68, "velocity": 114, "channel": 0}, {"type": "note_on", "time": 13, "note": 68, "velocity": 115, "channel": 0}, {"type": "note_off", "time": 86, "note": 68, "velocity": 115, "channel": 0}, {"type": "note_on", "time": 7, "note": 67, "velocity": 113, "channel": 0}, {"type": "note_off", "time": 97, "note": 67, "velocity": 113, "channel": 0}, {"type": "note_on", "time": 10, "note": 65, "velocity": 114, "channel": 0}, {"type": "note_off", "time": 65, "note": 65, "velocity": 114, "channel": 0}, {"type": "note_on", "time": 21, "note": 62, "velocity": 106, "channel": 0}, {"type": "note_off", "time": 105, "note": 62, "velocity": 106, "channel": 0}, {"type": "note_on", "time": 4, "note": 65, "velocity": 115, "channel": 0}, {"type": "note_off", "time": 208, "note": 65, "velocity": 115, "channel": 0}, {"type": "note_on", "time": 1, "note": 64, "velocity": 91, "channel": 0}, {"type": "note_off", "time": 135, "note": 64, "velocity": 91, "channel": 0}, {"type": "note_on", "time": 228, "note": 62, "velocity": 114, "channel": 0}, {"type": "note_off", "time": 77, "note": 62, "velocity": 114, "channel": 0}, {"type": "note_on", "time": 12, "note": 62, "velocity": 107, "channel": 0}, {"type": "note_off", "time": 137, "note": 62, "velocity": 107, "channel": 0}, {"type": "note_on", "time": 77, "note": 65, "velocity": 120, "channel": 0}, {"type": "note_off", "time": 81, "note": 65, "velocity": 120, "channel": 0}, {"type": "note_on", "time": 0, "note": 62, "velocity": 95, "channel": 0}, {"type": "note_off", "time": 89, "note": 62, "velocity": 95, "channel": 0}, {"type": "note_on", "time": 0, "note": 64, "velocity": 114, "channel": 0}, {"type": "note_off", "time": 25, "note": 64, "velocity": 114, "channel": 0}, {"type": "note_on", "time": 1, "note": 65, "velocity": 119, "channel": 0}, {"type": "note_off", "time": 43, "note": 65, "velocity": 119, "channel": 0}, {"type": "note_on", "time": 2, "note": 77, "velocity": 119, "channel": 0}, {"type": "note_off", "time": 34, "note": 77, "velocity": 119, "channel": 0}, {"type": "note_on", "time": 6, "note": 74, "velocity": 104, "channel": 0}, {"type": "note_off", "time": 66, "note": 74, "velocity": 104, "channel": 0}, {"type": "note_on", "time": 411, "note": 65, "velocity": 97, "channel": 0}, {"type": "note_off", "time": 68, "note": 65, "velocity": 97, "channel": 0}, {"type": "note_on", "time": 29, "note": 65, "velocity": 97, "channel": 0}, {"type": "note_off", "time": 59, "note": 65, "velocity": 97, "channel": 0}, {"type": "note_on", "time": 30, "note": 65, "velocity": 117, "channel": 0}, {"type": "note_off", "time": 99, "note": 65, "velocity": 117, "channel": 0}, {"type": "note_on", "time": 5, "note": 64, "velocity": 96, "channel": 0}, {"type": "note_off", "time": 29, "note": 64, "velocity": 96, "channel": 0}, {"type": "note_on", "time": 162, "note": 62, "velocity": 84, "channel": 0}, {"type": "note_off", "time": 58, "note": 62, "velocity": 84, "channel": 0}, {"type": "note_on", "time": 32, "note": 62, "velocity": 108, "channel": 0}, {"type": "note_off", "time": 39, "note": 62, "velocity": 108, "channel": 0}, {"type": "note_on", "time": 97, "note": 62, "velocity": 120, "channel": 0}, {"type": "note_off", "time": 37, "note": 62, "velocity": 120, "channel": 0}, {"type": "note_on", "time": 69, "note": 62, "velocity": 111, "channel": 0}, {"type": "note_off", "time": 49, "note": 62, "velocity": 111, "channel": 0}, {"type": "note_on", "time": 96, "note": 65, "velocity": 119, "channel": 0}, {"type": "note_off", "time": 82, "note": 65, "velocity": 119, "channel": 0}, {"type": "note_on", "time": 0, "note": 64, "velocity": 116, "channel": 0}, {"type": "note_off", "time": 18, "note": 64, "velocity": 116, "channel": 0}, {"type": "note_on", "time": 185, "note": 59, "velocity": 106, "channel": 0}, {"type": "note_off", "time": 23, "note": 59, "velocity": 106, "channel": 0}, {"type": "note_on", "time": 76, "note": 62, "velocity": 99, "channel": 0}, {"type": "note_off", "time": 31, "note": 62, "velocity": 99, "channel": 0}, {"type": "note_on", "time": 51, "note": 62, "velocity": 103, "channel": 0}, {"type": "note_off", "time": 33, "note": 62, "velocity": 103, "channel": 0}, {"type": "note_on", "time": 65, "note": 62, "velocity": 115, "channel": 0}, {"type": "note_off", "time": 100, "note": 62, "velocity": 115, "channel": 0}, {"type": "note_on", "time": 17, "note": 62, "velocity": 113, "channel": 0}, {"type": "note_off", "time": 86, "note": 62, "velocity": 113, "channel": 0}, {"type": "note_on", "time": 8, "note": 65, "velocity": 116, "channel": 0}, {"type": "note_off", "time": 95, "note": 65, "velocity": 116, "channel": 0}, {"type": "note_on", "time": 140, "note": 59, "velocity": 113, "channel": 0}, {"type": "note_off", "time": 23, "note": 59, "velocity": 113, "channel": 0}, {"type": "note_on", "time": 24, "note": 62, "velocity": 112, "channel": 0}, {"type": "note_off", "time": 42, "note": 62, "velocity": 112, "channel": 0}, {"type": "note_on", "time": 54, "note": 62, "velocity": 112, "channel": 0}, {"type": "note_off", "time": 100, "note": 62, "velocity": 112, "channel": 0}, {"type": "note_on", "time": 103, "note": 62, "velocity": 114, "channel": 0}, {"type": "note_off", "time": 102, "note": 62, "velocity": 114, "channel": 0}, {"type": "note_on", "time": 75, "note": 65, "velocity": 114, "channel": 0}, {"type": "note_off", "time": 77, "note": 65, "velocity": 114, "channel": 0}, {"type": "note_on", "time": 155, "note": 59, "velocity": 105, "channel": 0}, {"type": "note_off", "time": 41, "note": 59, "velocity": 105, "channel": 0}, {"type": "note_on", "time": 15, "note": 62, "velocity": 105, "channel": 0}, {"type": "note_off", "time": 34, "note": 62, "velocity": 105, "channel": 0}, {"type": "note_on", "time": 55, "note": 62, "velocity": 91, "channel": 0}, {"type": "note_off", "time": 30, "note": 62, "velocity": 91, "channel": 0}, {"type": "note_on", "time": 72, "note": 62, "velocity": 103, "channel": 0}, {"type": "note_off", "time": 30, "note": 62, "velocity": 103, "channel": 0}, {"type": "note_on", "time": 72, "note": 62, "velocity": 112, "channel": 0}, {"type": "note_off", "time": 79, "note": 62, "velocity": 112, "channel": 0}, {"type": "note_on", "time": 104, "note": 65, "velocity": 115, "channel": 0}, {"type": "note_off", "time": 97, "note": 65, "velocity": 115, "channel": 0}, {"type": "note_on", "time": 132, "note": 59, "velocity": 110, "channel": 0}, {"type": "note_off", "time": 25, "note": 59, "velocity": 110, "channel": 0}, {"type": "note_on", "time": 24, "note": 62, "velocity": 115, "channel": 0}, {"type": "note_off", "time": 42, "note": 62, "velocity": 115, "channel": 0}, {"type": "note_on", "time": 61, "note": 62, "velocity": 103, "channel": 0}, {"type": "note_off", "time": 78, "note": 62, "velocity": 103, "channel": 0}, {"type": "note_on", "time": 25, "note": 62, "velocity": 117, "channel": 0}, {"type": "note_off", "time": 37, "note": 62, "velocity": 117, "channel": 0}, {"type": "note_on", "time": 69, "note": 62, "velocity": 111, "channel": 0}, {"type": "note_off", "time": 88, "note": 62, "velocity": 111, "channel": 0}, {"type": "note_on", "time": 19, "note": 59, "velocity": 100, "channel": 0}, {"type": "note_off", "time": 50, "note": 59, "velocity": 100, "channel": 0}, {"type": "note_on", "time": 12, "note": 65, "velocity": 110, "channel": 0}, {"type": "note_off", "time": 94, "note": 65, "velocity": 110, "channel": 0}, {"type": "note_on", "time": 136, "note": 59, "velocity": 112, "channel": 0}, {"type": "note_off", "time": 33, "note": 59, "velocity": 112, "channel": 0}, {"type": "note_on", "time": 13, "note": 62, "velocity": 111, "channel": 0}, {"type": "note_off", "time": 121, "note": 62, "velocity": 111, "channel": 0}, {"type": "note_on", "time": 9, "note": 59, "velocity": 97, "channel": 0}, {"type": "note_off", "time": 67, "note": 59, "velocity": 97, "channel": 0}, {"type": "note_on", "time": 36, "note": 62, "velocity": 115, "channel": 0}, {"type": "note_off", "time": 55, "note": 62, "velocity": 115, "channel": 0}, {"type": "note_on", "time": 45, "note": 59, "velocity": 97, "channel": 0}, {"type": "note_off", "time": 69, "note": 59, "velocity": 97, "channel": 0}, {"type": "note_on", "time": 7, "note": 62, "velocity": 113, "channel": 0}, {"type": "note_off", "time": 89, "note": 62, "velocity": 113, "channel": 0}, {"type": "note_on", "time": 0, "note": 65, "velocity": 115, "channel": 0}, {"type": "note_off", "time": 88, "note": 65, "velocity": 115, "channel": 0}, {"type": "note_on", "time": 163, "note": 59, "velocity": 100, "channel": 0}, {"type": "note_off", "time": 30, "note": 59, "velocity": 100, "channel": 0}, {"type": "note_on", "time": 7, "note": 62, "velocity": 115, "channel": 0}, {"type": "note_off", "time": 80, "note": 62, "velocity": 115, "channel": 0}, {"type": "note_on", "time": 10, "note": 62, "velocity": 111, "channel": 0}, {"type": "note_off", "time": 91, "note": 62, "velocity": 111, "channel": 0}, {"type": "note_on", "time": 12, "note": 62, "velocity": 113, "channel": 0}, {"type": "note_off", "time": 76, "note": 62, "velocity": 113, "channel": 0}, {"type": "note_on", "time": 18, "note": 62, "velocity": 107, "channel": 0}, {"type": "note_off", "time": 71, "note": 62, "velocity": 107, "channel": 0}, {"type": "note_on", "time": 12, "note": 62, "velocity": 106, "channel": 0}, {"type": "note_off", "time": 88, "note": 62, "velocity": 106, "channel": 0}, {"type": "note_on", "time": 7, "note": 67, "velocity": 110, "channel": 0}, {"type": "note_off", "time": 20, "note": 67, "velocity": 110, "channel": 0}, {"type": "note_on", "time": 1, "note": 68, "velocity": 117, "channel": 0}, {"type": "note_off", "time": 13, "note": 68, "velocity": 117, "channel": 0}, {"type": "note_on", "time": 2, "note": 69, "velocity": 121, "channel": 0}, {"type": "note_off", "time": 58, "note": 69, "velocity": 121, "channel": 0}, {"type": "note_on", "time": 156, "note": 59, "velocity": 96, "channel": 0}, {"type": "note_off", "time": 31, "note": 59, "velocity": 96, "channel": 0}, {"type": "note_on", "time": 4, "note": 62, "velocity": 107, "channel": 0}, {"type": "note_off", "time": 96, "note": 62, "velocity": 107, "channel": 0}, {"type": "note_on", "time": 7, "note": 62, "velocity": 114, "channel": 0}, {"type": "note_off", "time": 95, "note": 62, "velocity": 114, "channel": 0}, {"type": "note_on", "time": 0, "note": 67, "velocity": 114, "channel": 0}, {"type": "note_off", "time": 34, "note": 67, "velocity": 114, "channel": 0}, {"type": "note_on", "time": 0, "note": 68, "velocity": 118, "channel": 0}, {"type": "note_off", "time": 18, "note": 68, "velocity": 118, "channel": 0}, {"type": "note_on", "time": 2, "note": 69, "velocity": 119, "channel": 0}, {"type": "note_off", "time": 36, "note": 69, "velocity": 119, "channel": 0}, {"type": "note_on", "time": 9, "note": 67, "velocity": 112, "channel": 0}, {"type": "note_off", "time": 83, "note": 67, "velocity": 112, "channel": 0}, {"type": "note_on", "time": 13, "note": 65, "velocity": 105, "channel": 0}, {"type": "note_off", "time": 67, "note": 65, "velocity": 105, "channel": 0}, {"type": "note_on", "time": 16, "note": 62, "velocity": 116, "channel": 0}, {"type": "note_off", "time": 79, "note": 62, "velocity": 116, "channel": 0}, {"type": "note_on", "time": 0, "note": 61, "velocity": 101, "channel": 0}, {"type": "note_off", "time": 24, "note": 61, "velocity": 101, "channel": 0}, {"type": "note_on", "time": 171, "note": 59, "velocity": 99, "channel": 0}, {"type": "note_off", "time": 24, "note": 59, "velocity": 99, "channel": 0}, {"type": "note_on", "time": 82, "note": 62, "velocity": 113, "channel": 0}, {"type": "note_off", "time": 49, "note": 62, "velocity": 113, "channel": 0}, {"type": "note_on", "time": 2, "note": 63, "velocity": 113, "channel": 0}, {"type": "note_off", "time": 49, "note": 63, "velocity": 113, "channel": 0}, {"type": "note_on", "time": 18, "note": 59, "velocity": 100, "channel": 0}, {"type": "note_off", "time": 49, "note": 59, "velocity": 100, "channel": 0}, {"type": "note_on", "time": 45, "note": 65, "velocity": 112, "channel": 0}, {"type": "note_off", "time": 90, "note": 65, "velocity": 112, "channel": 0}, {"type": "note_on", "time": 79, "note": 67, "velocity": 100, "channel": 0}, {"type": "note_off", "time": 20, "note": 67, "velocity": 100, "channel": 0}, {"type": "note_on", "time": 4, "note": 68, "velocity": 118, "channel": 0}, {"type": "note_off", "time": 18, "note": 68, "velocity": 118, "channel": 0}, {"type": "note_on", "time": 2, "note": 69, "velocity": 120, "channel": 0}, {"type": "note_off", "time": 36, "note": 69, "velocity": 120, "channel": 0}, {"type": "note_on", "time": 202, "note": 62, "velocity": 100, "channel": 0}, {"type": "note_off", "time": 40, "note": 62, "velocity": 100, "channel": 0}, {"type": "note_on", "time": 50, "note": 67, "velocity": 119, "channel": 0}, {"type": "note_off", "time": 66, "note": 67, "velocity": 119, "channel": 0}, {"type": "note_on", "time": 1, "note": 68, "velocity": 118, "channel": 0}, {"type": "note_off", "time": 47, "note": 68, "velocity": 118, "channel": 0}, {"type": "note_on", "time": 2, "note": 65, "velocity": 108, "channel": 0}, {"type": "note_off", "time": 38, "note": 65, "velocity": 108, "channel": 0}, {"type": "note_on", "time": 57, "note": 67, "velocity": 115, "channel": 0}, {"type": "note_off", "time": 49, "note": 67, "velocity": 115, "channel": 0}, {"type": "note_on", "time": 0, "note": 68, "velocity": 115, "channel": 0}, {"type": "note_off", "time": 40, "note": 68, "velocity": 115, "channel": 0}, {"type": "note_on", "time": 1, "note": 65, "velocity": 95, "channel": 0}, {"type": "note_off", "time": 45, "note": 65, "velocity": 95, "channel": 0}, {"type": "note_on", "time": 38, "note": 67, "velocity": 121, "channel": 0}, {"type": "note_off", "time": 42, "note": 67, "velocity": 121, "channel": 0}, {"type": "note_on", "time": 5, "note": 66, "velocity": 118, "channel": 0}, {"type": "note_off", "time": 18, "note": 66, "velocity": 118, "channel": 0}, {"type": "note_on", "time": 2, "note": 68, "velocity": 119, "channel": 0}, {"type": "note_off", "time": 33, "note": 68, "velocity": 119, "channel": 0}, {"type": "note_on", "time": 0, "note": 65, "velocity": 109, "channel": 0}, {"type": "note_off", "time": 67, "note": 65, "velocity": 109, "channel": 0}, {"type": "note_on", "time": 27, "note": 67, "velocity": 114, "channel": 0}, {"type": "note_off", "time": 46, "note": 67, "velocity": 114, "channel": 0}, {"type": "note_on", "time": 46, "note": 67, "velocity": 105, "channel": 0}, {"type": "note_off", "time": 71, "note": 67, "velocity": 105, "channel": 0}, {"type": "note_on", "time": 40, "note": 67, "velocity": 118, "channel": 0}, {"type": "note_off", "time": 95, "note": 67, "velocity": 118, "channel": 0}, {"type": "note_on", "time": 9, "note": 65, "velocity": 90, "channel": 0}, {"type": "note_off", "time": 79, "note": 65, "velocity": 90, "channel": 0}, {"type": "note_on", "time": 7, "note": 67, "velocity": 111, "channel": 0}, {"type": "note_off", "time": 92, "note": 67, "velocity": 111, "channel": 0}, {"type": "note_on", "time": 7, "note": 65, "velocity": 95, "channel": 0}, {"type": "note_off", "time": 34, "note": 65, "velocity": 95, "channel": 0}, {"type": "note_on", "time": 55, "note": 67, "velocity": 119, "channel": 0}, {"type": "note_off", "time": 103, "note": 67, "velocity": 119, "channel": 0}, {"type": "note_on", "time": 0, "note": 65, "velocity": 94, "channel": 0}, {"type": "note_off", "time": 58, "note": 65, "velocity": 94, "channel": 0}, {"type": "note_on", "time": 39, "note": 67, "velocity": 111, "channel": 0}, {"type": "note_off", "time": 86, "note": 67, "velocity": 111, "channel": 0}, {"type": "note_on", "time": 7, "note": 65, "velocity": 95, "channel": 0}, {"type": "note_off", "time": 56, "note": 65, "velocity": 95, "channel": 0}, {"type": "note_on", "time": 47, "note": 67, "velocity": 115, "channel": 0}, {"type": "note_off", "time": 86, "note": 67, "velocity": 115, "channel": 0}, {"type": "note_on", "time": 1, "note": 65, "velocity": 107, "channel": 0}, {"type": "note_off", "time": 39, "note": 65, "velocity": 107, "channel": 0}, {"type": "note_on", "time": 71, "note": 67, "velocity": 110, "channel": 0}, {"type": "note_off", "time": 72, "note": 67, "velocity": 110, "channel": 0}, {"type": "note_on", "time": 8, "note": 67, "velocity": 99, "channel": 0}, {"type": "note_off", "time": 46, "note": 67, "velocity": 99, "channel": 0}, {"type": "note_on", "time": 147, "note": 65, "velocity": 113, "channel": 0}, {"type": "note_off", "time": 91, "note": 65, "velocity": 113, "channel": 0}, {"type": "note_on", "time": 17, "note": 68, "velocity": 105, "channel": 0}, {"type": "note_off", "time": 33, "note": 68, "velocity": 105, "channel": 0}, {"type": "note_on", "time": 2, "note": 69, "velocity": 110, "channel": 0}, {"type": "note_off", "time": 25, "note": 69, "velocity": 110, "channel": 0}, {"type": "note_on", "time": 3, "note": 70, "velocity": 85, "channel": 0}, {"type": "note_off", "time": 38, "note": 70, "velocity": 85, "channel": 0}, {"type": "note_on", "time": 0, "note": 72, "velocity": 111, "channel": 0}, {"type": "note_off", "time": 47, "note": 72, "velocity": 111, "channel": 0}, {"type": "note_on", "time": 49, "note": 72, "velocity": 114, "channel": 0}, {"type": "note_off", "time": 69, "note": 72, "velocity": 114, "channel": 0}, {"type": "note_on", "time": 1, "note": 74, "velocity": 114, "channel": 0}, {"type": "note_off", "time": 60, "note": 74, "velocity": 114, "channel": 0}, {"type": "note_on", "time": 64, "note": 68, "velocity": 111, "channel": 0}, {"type": "note_off", "time": 40, "note": 68, "velocity": 111, "channel": 0}, {"type": "note_on", "time": 3, "note": 67, "velocity": 95, "channel": 0}, {"type": "note_off", "time": 22, "note": 67, "velocity": 95, "channel": 0}, {"type": "note_on", "time": 114, "note": 67, "velocity": 116, "channel": 0}, {"type": "note_off", "time": 171, "note": 67, "velocity": 116, "channel": 0}, {"type": "note_on", "time": 33, "note": 65, "velocity": 114, "channel": 0}, {"type": "note_off", "time": 71, "note": 65, "velocity": 114, "channel": 0}, {"type": "note_on", "time": 32, "note": 62, "velocity": 112, "channel": 0}, {"type": "note_off", "time": 142, "note": 62, "velocity": 112, "channel": 0}, {"type": "note_on", "time": 20, "note": 62, "velocity": 112, "channel": 0}, {"type": "note_off", "time": 85, "note": 62, "velocity": 112, "channel": 0}, {"type": "note_on", "time": 28, "note": 62, "velocity": 106, "channel": 0}, {"type": "note_off", "time": 76, "note": 62, "velocity": 106, "channel": 0}, {"type": "note_on", "time": 9, "note": 68, "velocity": 112, "channel": 0}, {"type": "note_off", "time": 39, "note": 68, "velocity": 112, "channel": 0}, {"type": "note_on", "time": 0, "note": 69, "velocity": 112, "channel": 0}, {"type": "note_off", "time": 11, "note": 69, "velocity": 112, "channel": 0}, {"type": "note_on", "time": 4, "note": 70, "velocity": 84, "channel": 0}, {"type": "note_off", "time": 31, "note": 70, "velocity": 84, "channel": 0}, {"type": "note_on", "time": 332, "note": 62, "velocity": 99, "channel": 0}, {"type": "note_off", "time": 45, "note": 62, "velocity": 99, "channel": 0}, {"type": "note_on", "time": 33, "note": 72, "velocity": 104, "channel": 0}, {"type": "note_off", "time": 75, "note": 72, "velocity": 104, "channel": 0}, {"type": "note_on", "time": 9, "note": 74, "velocity": 117, "channel": 0}, {"type": "note_off", "time": 96, "note": 74, "velocity": 117, "channel": 0}, {"type": "note_on", "time": 14, "note": 75, "velocity": 115, "channel": 0}, {"type": "note_off", "time": 25, "note": 75, "velocity": 115, "channel": 0}, {"type": "note_on", "time": 13, "note": 76, "velocity": 111, "channel": 0}, {"type": "note_off", "time": 114, "note": 76, "velocity": 111, "channel": 0}, {"type": "note_on", "time": 3, "note": 77, "velocity": 109, "channel": 0}, {"type": "note_off", "time": 893, "note": 77, "velocity": 109, "channel": 0}, {"type": "note_on", "time": 98, "note": 74, "velocity": 110, "channel": 0}, {"type": "note_off", "time": 35, "note": 74, "velocity": 110, "channel": 0}, {"type": "note_on", "time": 12, "note": 73, "velocity": 108, "channel": 0}, {"type": "note_off", "time": 17, "note": 73, "velocity": 108, "channel": 0}, {"type": "note_on", "time": 17, "note": 72, "velocity": 98, "channel": 0}, {"type": "note_off", "time": 29, "note": 72, "velocity": 98, "channel": 0}, {"type": "note_on", "time": 90, "note": 68, "velocity": 118, "channel": 0}, {"type": "note_off", "time": 32, "note": 68, "velocity": 118, "channel": 0}, {"type": "note_on", "time": 10, "note": 67, "velocity": 113, "channel": 0}, {"type": "note_off", "time": 7, "note": 67, "velocity": 113, "channel": 0}, {"type": "note_on", "time": 7, "note": 66, "velocity": 102, "channel": 0}, {"type": "note_off", "time": 17, "note": 66, "velocity": 102, "channel": 0}, {"type": "note_on", "time": 124, "note": 67, "velocity": 111, "channel": 0}, {"type": "note_off", "time": 97, "note": 67, "velocity": 111, "channel": 0}, {"type": "note_on", "time": 1, "note": 65, "velocity": 95, "channel": 0}, {"type": "note_off", "time": 80, "note": 65, "velocity": 95, "channel": 0}, {"type": "note_on", "time": 0, "note": 67, "velocity": 113, "channel": 0}, {"type": "note_off", "time": 196, "note": 67, "velocity": 113, "channel": 0}, {"type": "note_on", "time": 14, "note": 65, "velocity": 113, "channel": 0}, {"type": "note_off", "time": 88, "note": 65, "velocity": 113, "channel": 0}, {"type": "note_on", "time": 12, "note": 65, "velocity": 113, "channel": 0}, {"type": "note_off", "time": 112, "note": 65, "velocity": 113, "channel": 0}, {"type": "note_on", "time": 57, "note": 65, "velocity": 116, "channel": 0}, {"type": "note_off", "time": 73, "note": 65, "velocity": 116, "channel": 0}, {"type": "note_on", "time": 0, "note": 64, "velocity": 108, "channel": 0}, {"type": "note_off", "time": 6, "note": 64, "velocity": 108, "channel": 0}, {"type": "note_on", "time": 2, "note": 62, "velocity": 106, "channel": 0}, {"type": "note_off", "time": 19, "note": 62, "velocity": 106, "channel": 0}, {"type": "note_on", "time": 548, "note": 69, "velocity": 122, "channel": 0}, {"type": "note_on", "time": 66, "note": 72, "velocity": 102, "channel": 0}, {"type": "note_off", "time": 0, "note": 69, "velocity": 122, "channel": 0}, {"type": "note_off", "time": 57, "note": 72, "velocity": 102, "channel": 0}, {"type": "note_on", "time": 5, "note": 74, "velocity": 115, "channel": 0}, {"type": "note_off", "time": 59, "note": 74, "velocity": 115, "channel": 0}, {"type": "note_on", "time": 3, "note": 77, "velocity": 110, "channel": 0}, {"type": "note_off", "time": 46, "note": 77, "velocity": 110, "channel": 0}, {"type": "note_on", "time": 65, "note": 79, "velocity": 115, "channel": 0}, {"type": "note_on", "time": 58, "note": 80, "velocity": 117, "channel": 0}, {"type": "note_off", "time": 0, "note": 79, "velocity": 115, "channel": 0}, {"type": "note_off", "time": 18, "note": 80, "velocity": 117, "channel": 0}, {"type": "note_on", "time": 2, "note": 81, "velocity": 102, "channel": 0}, {"type": "note_off", "time": 44, "note": 81, "velocity": 102, "channel": 0}, {"type": "note_on", "time": 39, "note": 79, "velocity": 113, "channel": 0}, {"type": "note_off", "time": 91, "note": 79, "velocity": 113, "channel": 0}, {"type": "note_on", "time": 36, "note": 78, "velocity": 116, "channel": 0}, {"type": "note_off", "time": 61, "note": 78, "velocity": 116, "channel": 0}, {"type": "note_on", "time": 1, "note": 77, "velocity": 116, "channel": 0}, {"type": "note_off", "time": 28, "note": 77, "velocity": 116, "channel": 0}, {"type": "note_on", "time": 43, "note": 74, "velocity": 122, "channel": 0}, {"type": "note_off", "time": 76, "note": 74, "velocity": 122, "channel": 0}, {"type": "note_on", "time": 18, "note": 72, "velocity": 107, "channel": 0}, {"type": "note_off", "time": 38, "note": 72, "velocity": 107, "channel": 0}, {"type": "note_on", "time": 7, "note": 74, "velocity": 115, "channel": 0}, {"type": "note_off", "time": 174, "note": 74, "velocity": 115, "channel": 0}, {"type": "note_on", "time": 21, "note": 72, "velocity": 104, "channel": 0}, {"type": "note_off", "time": 42, "note": 72, "velocity": 104, "channel": 0}, {"type": "note_on", "time": 45, "note": 69, "velocity": 121, "channel": 0}, {"type": "note_off", "time": 58, "note": 69, "velocity": 121, "channel": 0}, {"type": "note_on", "time": 2, "note": 68, "velocity": 116, "channel": 0}, {"type": "note_off", "time": 60, "note": 68, "velocity": 116, "channel": 0}, {"type": "note_on", "time": 86, "note": 67, "velocity": 114, "channel": 0}, {"type": "note_off", "time": 40, "note": 67, "velocity": 114, "channel": 0}, {"type": "note_on", "time": 8, "note": 67, "velocity": 111, "channel": 0}, {"type": "note_off", "time": 47, "note": 67, "velocity": 111, "channel": 0}, {"type": "note_on", "time": 7, "note": 65, "velocity": 89, "channel": 0}, {"type": "note_off", "time": 25, "note": 65, "velocity": 89, "channel": 0}, {"type": "note_on", "time": 65, "note": 67, "velocity": 115, "channel": 0}, {"type": "note_off", "time": 93, "note": 67, "velocity": 115, "channel": 0}, {"type": "note_on", "time": 3, "note": 65, "velocity": 108, "channel": 0}, {"type": "note_off", "time": 28, "note": 65, "velocity": 108, "channel": 0}, {"type": "note_on", "time": 84, "note": 68, "velocity": 111, "channel": 0}, {"type": "note_off", "time": 41, "note": 68, "velocity": 111, "channel": 0}, {"type": "note_on", "time": 35, "note": 67, "velocity": 118, "channel": 0}, {"type": "note_off", "time": 92, "note": 67, "velocity": 118, "channel": 0}, {"type": "note_on", "time": 2, "note": 65, "velocity": 119, "channel": 0}, {"type": "note_off", "time": 96, "note": 65, "velocity": 119, "channel": 0}, {"type": "note_on", "time": 12, "note": 65, "velocity": 105, "channel": 0}, {"type": "note_off", "time": 183, "note": 65, "velocity": 105, "channel": 0}, {"type": "note_on", "time": 16, "note": 62, "velocity": 112, "channel": 0}, {"type": "note_off", "time": 156, "note": 62, "velocity": 112, "channel": 0}, {"type": "note_on", "time": 27, "note": 62, "velocity": 110, "channel": 0}, {"type": "note_off", "time": 72, "note": 62, "velocity": 110, "channel": 0}, {"type": "note_on", "time": 483, "note": 75, "velocity": 117, "channel": 0}, {"type": "note_off", "time": 27, "note": 75, "velocity": 117, "channel": 0}, {"type": "note_on", "time": 4, "note": 76, "velocity": 121, "channel": 0}, {"type": "note_off", "time": 66, "note": 76, "velocity": 121, "channel": 0}, {"type": "note_on", "time": 0, "note": 77, "velocity": 118, "channel": 0}, {"type": "note_off", "time": 91, "note": 77, "velocity": 118, "channel": 0}, {"type": "note_on", "time": 13, "note": 74, "velocity": 113, "channel": 0}, {"type": "note_off", "time": 31, "note": 74, "velocity": 113, "channel": 0}, {"type": "note_on", "time": 90, "note": 76, "velocity": 117, "channel": 0}, {"type": "note_off", "time": 135, "note": 76, "velocity": 117, "channel": 0}, {"type": "note_on", "time": 3, "note": 77, "velocity": 109, "channel": 0}, {"type": "note_off", "time": 108, "note": 77, "velocity": 109, "channel": 0}, {"type": "note_on", "time": 21, "note": 74, "velocity": 112, "channel": 0}, {"type": "note_off", "time": 31, "note": 74, "velocity": 112, "channel": 0}, {"type": "note_on", "time": 61, "note": 76, "velocity": 118, "channel": 0}, {"type": "note_off", "time": 103, "note": 76, "velocity": 118, "channel": 0}, {"type": "note_on", "time": 1, "note": 77, "velocity": 118, "channel": 0}, {"type": "note_off", "time": 80, "note": 77, "velocity": 118, "channel": 0}, {"type": "note_on", "time": 2, "note": 78, "velocity": 78, "channel": 0}, {"type": "note_off", "time": 57, "note": 78, "velocity": 78, "channel": 0}, {"type": "note_on", "time": 62, "note": 74, "velocity": 106, "channel": 0}, {"type": "note_off", "time": 27, "note": 74, "velocity": 106, "channel": 0}, {"type": "note_on", "time": 132, "note": 74, "velocity": 91, "channel": 0}, {"type": "note_off", "time": 34, "note": 74, "velocity": 91, "channel": 0}, {"type": "note_on", "time": 65, "note": 74, "velocity": 110, "channel": 0}, {"type": "note_off", "time": 20, "note": 74, "velocity": 110, "channel": 0}, {"type": "note_on", "time": 0, "note": 75, "velocity": 125, "channel": 0}, {"type": "note_off", "time": 20, "note": 75, "velocity": 125, "channel": 0}, {"type": "note_on", "time": 2, "note": 76, "velocity": 119, "channel": 0}, {"type": "note_off", "time": 48, "note": 76, "velocity": 119, "channel": 0}, {"type": "note_on", "time": 0, "note": 77, "velocity": 119, "channel": 0}, {"type": "note_off", "time": 58, "note": 77, "velocity": 119, "channel": 0}, {"type": "note_on", "time": 1, "note": 75, "velocity": 104, "channel": 0}, {"type": "note_off", "time": 15, "note": 75, "velocity": 104, "channel": 0}, {"type": "note_on", "time": 0, "note": 74, "velocity": 89, "channel": 0}, {"type": "note_off", "time": 8, "note": 74, "velocity": 89, "channel": 0}, {"type": "note_on", "time": 88, "note": 74, "velocity": 114, "channel": 0}, {"type": "note_off", "time": 31, "note": 74, "velocity": 114, "channel": 0}, {"type": "note_on", "time": 0, "note": 73, "velocity": 90, "channel": 0}, {"type": "note_off", "time": 7, "note": 73, "velocity": 90, "channel": 0}, {"type": "note_on", "time": 102, "note": 74, "velocity": 111, "channel": 0}, {"type": "note_off", "time": 29, "note": 74, "velocity": 111, "channel": 0}, {"type": "note_on", "time": 0, "note": 73, "velocity": 99, "channel": 0}, {"type": "note_off", "time": 8, "note": 73, "velocity": 99, "channel": 0}, {"type": "note_on", "time": 92, "note": 74, "velocity": 119, "channel": 0}, {"type": "note_off", "time": 31, "note": 74, "velocity": 119, "channel": 0}, {"type": "note_on", "time": 77, "note": 74, "velocity": 112, "channel": 0}, {"type": "note_off", "time": 30, "note": 74, "velocity": 112, "channel": 0}, {"type": "note_on", "time": 75, "note": 74, "velocity": 102, "channel": 0}, {"type": "note_off", "time": 14, "note": 74, "velocity": 102, "channel": 0}, {"type": "note_on", "time": 4, "note": 75, "velocity": 120, "channel": 0}, {"type": "note_off", "time": 6, "note": 75, "velocity": 120, "channel": 0}, {"type": "note_on", "time": 3, "note": 76, "velocity": 123, "channel": 0}, {"type": "note_off", "time": 9, "note": 76, "velocity": 123, "channel": 0}, {"type": "note_on", "time": 3, "note": 77, "velocity": 123, "channel": 0}, {"type": "note_off", "time": 75, "note": 77, "velocity": 123, "channel": 0}, {"type": "note_on", "time": 2, "note": 76, "velocity": 116, "channel": 0}, {"type": "note_off", "time": 12, "note": 76, "velocity": 116, "channel": 0}, {"type": "note_on", "time": 3, "note": 75, "velocity": 87, "channel": 0}, {"type": "note_off", "time": 4, "note": 75, "velocity": 87, "channel": 0}, {"type": "note_on", "time": 127, "note": 74, "velocity": 115, "channel": 0}, {"type": "note_off", "time": 24, "note": 74, "velocity": 115, "channel": 0}, {"type": "note_on", "time": 0, "note": 73, "velocity": 94, "channel": 0}, {"type": "note_off", "time": 8, "note": 73, "velocity": 94, "channel": 0}, {"type": "note_on", "time": 110, "note": 74, "velocity": 121, "channel": 0}, {"type": "note_off", "time": 32, "note": 74, "velocity": 121, "channel": 0}, {"type": "note_on", "time": 2, "note": 73, "velocity": 99, "channel": 0}, {"type": "note_off", "time": 11, "note": 73, "velocity": 99, "channel": 0}, {"type": "note_on", "time": 84, "note": 74, "velocity": 115, "channel": 0}, {"type": "note_off", "time": 45, "note": 74, "velocity": 115, "channel": 0}, {"type": "note_on", "time": 66, "note": 74, "velocity": 115, "channel": 0}, {"type": "note_off", "time": 34, "note": 74, "velocity": 115, "channel": 0}, {"type": "note_on", "time": 0, "note": 73, "velocity": 98, "channel": 0}, {"type": "note_off", "time": 10, "note": 73, "velocity": 98, "channel": 0}, {"type": "note_on", "time": 88, "note": 74, "velocity": 114, "channel": 0}, {"type": "note_off", "time": 40, "note": 74, "velocity": 114, "channel": 0}, {"type": "note_on", "time": 82, "note": 74, "velocity": 112, "channel": 0}, {"type": "note_off", "time": 44, "note": 74, "velocity": 112, "channel": 0}, {"type": "note_on", "time": 77, "note": 74, "velocity": 117, "channel": 0}, {"type": "note_off", "time": 40, "note": 74, "velocity": 117, "channel": 0}, {"type": "note_on", "time": 107, "note": 74, "velocity": 119, "channel": 0}, {"type": "note_off", "time": 71, "note": 74, "velocity": 119, "channel": 0}, {"type": "note_on", "time": 8, "note": 74, "velocity": 118, "channel": 0}, {"type": "note_off", "time": 49, "note": 74, "velocity": 118, "channel": 0}, {"type": "note_on", "time": 63, "note": 74, "velocity": 92, "channel": 0}, {"type": "note_off", "time": 25, "note": 74, "velocity": 92, "channel": 0}, {"type": "note_on", "time": 56, "note": 74, "velocity": 116, "channel": 0}, {"type": "note_off", "time": 21, "note": 74, "velocity": 116, "channel": 0}, {"type": "note_on", "time": 61, "note": 75, "velocity": 96, "channel": 0}, {"type": "note_off", "time": 25, "note": 75, "velocity": 96, "channel": 0}, {"type": "note_on", "time": 2, "note": 76, "velocity": 123, "channel": 0}, {"type": "note_off", "time": 16, "note": 76, "velocity": 123, "channel": 0}, {"type": "note_on", "time": 8, "note": 77, "velocity": 116, "channel": 0}, {"type": "note_off", "time": 48, "note": 77, "velocity": 116, "channel": 0}, {"type": "note_on", "time": 2, "note": 76, "velocity": 111, "channel": 0}, {"type": "note_off", "time": 10, "note": 76, "velocity": 111, "channel": 0}, {"type": "note_on", "time": 144, "note": 74, "velocity": 113, "channel": 0}, {"type": "note_off", "time": 28, "note": 74, "velocity": 113, "channel": 0}, {"type": "note_on", "time": 6, "note": 72, "velocity": 94, "channel": 0}, {"type": "note_off", "time": 7, "note": 72, "velocity": 94, "channel": 0}, {"type": "note_on", "time": 97, "note": 74, "velocity": 115, "channel": 0}, {"type": "note_off", "time": 44, "note": 74, "velocity": 115, "channel": 0}, {"type": "note_on", "time": 0, "note": 72, "velocity": 103, "channel": 0}, {"type": "note_off", "time": 12, "note": 72, "velocity": 103, "channel": 0}, {"type": "note_on", "time": 81, "note": 74, "velocity": 117, "channel": 0}, {"type": "note_off", "time": 36, "note": 74, "velocity": 117, "channel": 0}, {"type": "note_on", "time": 66, "note": 74, "velocity": 113, "channel": 0}, {"type": "note_off", "time": 42, "note": 74, "velocity": 113, "channel": 0}, {"type": "note_on", "time": 90, "note": 74, "velocity": 113, "channel": 0}, {"type": "note_off", "time": 42, "note": 74, "velocity": 113, "channel": 0}, {"type": "note_on", "time": 85, "note": 74, "velocity": 113, "channel": 0}, {"type": "note_off", "time": 36, "note": 74, "velocity": 113, "channel": 0}, {"type": "note_on", "time": 3, "note": 73, "velocity": 84, "channel": 0}, {"type": "note_off", "time": 12, "note": 73, "velocity": 84, "channel": 0}, {"type": "note_on", "time": 78, "note": 74, "velocity": 111, "channel": 0}, {"type": "note_off", "time": 43, "note": 74, "velocity": 111, "channel": 0}, {"type": "note_on", "time": 89, "note": 74, "velocity": 117, "channel": 0}, {"type": "note_off", "time": 33, "note": 74, "velocity": 117, "channel": 0}, {"type": "note_on", "time": 68, "note": 74, "velocity": 111, "channel": 0}, {"type": "note_off", "time": 31, "note": 74, "velocity": 111, "channel": 0}, {"type": "note_on", "time": 72, "note": 74, "velocity": 112, "channel": 0}, {"type": "note_off", "time": 157, "note": 74, "velocity": 112, "channel": 0}, {"type": "note_on", "time": 29, "note": 76, "velocity": 114, "channel": 0}, {"type": "note_off", "time": 22, "note": 76, "velocity": 114, "channel": 0}, {"type": "note_on", "time": 5, "note": 79, "velocity": 117, "channel": 0}, {"type": "note_off", "time": 38, "note": 79, "velocity": 117, "channel": 0}, {"type": "note_on", "time": 0, "note": 78, "velocity": 106, "channel": 0}, {"type": "note_off", "time": 9, "note": 78, "velocity": 106, "channel": 0}, {"type": "note_on", "time": 0, "note": 77, "velocity": 89, "channel": 0}, {"type": "note_off", "time": 9, "note": 77, "velocity": 89, "channel": 0}, {"type": "note_on", "time": 122, "note": 74, "velocity": 109, "channel": 0}, {"type": "note_off", "time": 35, "note": 74, "velocity": 109, "channel": 0}, {"type": "note_on", "time": 1, "note": 73, "velocity": 98, "channel": 0}, {"type": "note_off", "time": 12, "note": 73, "velocity": 98, "channel": 0}, {"type": "note_on", "time": 112, "note": 75, "velocity": 118, "channel": 0}, {"type": "note_off", "time": 41, "note": 75, "velocity": 118, "channel": 0}, {"type": "note_on", "time": 1, "note": 74, "velocity": 83, "channel": 0}, {"type": "note_off", "time": 11, "note": 74, "velocity": 83, "channel": 0}, {"type": "note_on", "time": 73, "note": 74, "velocity": 114, "channel": 0}, {"type": "note_off", "time": 37, "note": 74, "velocity": 114, "channel": 0}, {"type": "note_on", "time": 0, "note": 73, "velocity": 93, "channel": 0}, {"type": "note_off", "time": 14, "note": 73, "velocity": 93, "channel": 0}, {"type": "note_on", "time": 62, "note": 73, "velocity": 111, "channel": 0}, {"type": "note_off", "time": 37, "note": 73, "velocity": 111, "channel": 0}, {"type": "note_on", "time": 0, "note": 72, "velocity": 107, "channel": 0}, {"type": "note_off", "time": 16, "note": 72, "velocity": 107, "channel": 0}, {"type": "note_on", "time": 181, "note": 74, "velocity": 121, "channel": 0}, {"type": "note_off", "time": 37, "note": 74, "velocity": 121, "channel": 0}, {"type": "note_on", "time": 0, "note": 72, "velocity": 119, "channel": 0}, {"type": "note_off", "time": 14, "note": 72, "velocity": 119, "channel": 0}, {"type": "note_on", "time": 170, "note": 76, "velocity": 77, "channel": 0}, {"type": "note_off", "time": 38, "note": 76, "velocity": 77, "channel": 0}, {"type": "note_on", "time": 63, "note": 82, "velocity": 101, "channel": 0}, {"type": "note_off", "time": 63, "note": 82, "velocity": 101, "channel": 0}, {"type": "note_on", "time": 8, "note": 84, "velocity": 115, "channel": 0}, {"type": "note_off", "time": 341, "note": 84, "velocity": 115, "channel": 0}, {"type": "note_on", "time": 4, "note": 83, "velocity": 113, "channel": 0}, {"type": "note_off", "time": 13, "note": 83, "velocity": 113, "channel": 0}, {"type": "note_on", "time": 0, "note": 82, "velocity": 100, "channel": 0}, {"type": "note_off", "time": 10, "note": 82, "velocity": 100, "channel": 0}, {"type": "note_on", "time": 2, "note": 80, "velocity": 117, "channel": 0}, {"type": "note_off", "time": 42, "note": 80, "velocity": 117, "channel": 0}, {"type": "note_on", "time": 4, "note": 81, "velocity": 114, "channel": 0}, {"type": "note_off", "time": 141, "note": 81, "velocity": 114, "channel": 0}, {"type": "note_on", "time": 0, "note": 80, "velocity": 115, "channel": 0}, {"type": "note_off", "time": 47, "note": 80, "velocity": 115, "channel": 0}, {"type": "note_on", "time": 346, "note": 83, "velocity": 114, "channel": 0}, {"type": "note_off", "time": 30, "note": 83, "velocity": 114, "channel": 0}, {"type": "note_on", "time": 4, "note": 82, "velocity": 112, "channel": 0}, {"type": "note_off", "time": 40, "note": 82, "velocity": 112, "channel": 0}, {"type": "note_on", "time": 4, "note": 84, "velocity": 116, "channel": 0}, {"type": "note_off", "time": 88, "note": 84, "velocity": 116, "channel": 0}, {"type": "note_on", "time": 7, "note": 83, "velocity": 109, "channel": 0}, {"type": "note_off", "time": 13, "note": 83, "velocity": 109, "channel": 0}, {"type": "note_on", "time": 7, "note": 81, "velocity": 110, "channel": 0}, {"type": "note_off", "time": 12, "note": 81, "velocity": 110, "channel": 0}, {"type": "note_on", "time": 7, "note": 79, "velocity": 104, "channel": 0}, {"type": "note_off", "time": 34, "note": 79, "velocity": 104, "channel": 0}, {"type": "note_on", "time": 0, "note": 80, "velocity": 111, "channel": 0}, {"type": "note_off", "time": 27, "note": 80, "velocity": 111, "channel": 0}, {"type": "note_on", "time": 10, "note": 81, "velocity": 108, "channel": 0}, {"type": "note_off", "time": 88, "note": 81, "velocity": 108, "channel": 0}, {"type": "note_on", "time": 4, "note": 80, "velocity": 85, "channel": 0}, {"type": "note_off", "time": 31, "note": 80, "velocity": 85, "channel": 0}, {"type": "note_on", "time": 286, "note": 79, "velocity": 118, "channel": 0}, {"type": "note_off", "time": 71, "note": 79, "velocity": 118, "channel": 0}, {"type": "note_on", "time": 103, "note": 77, "velocity": 114, "channel": 0}, {"type": "note_off", "time": 36, "note": 77, "velocity": 114, "channel": 0}, {"type": "note_on", "time": 0, "note": 83, "velocity": 116, "channel": 0}, {"type": "note_off", "time": 40, "note": 83, "velocity": 116, "channel": 0}, {"type": "note_on", "time": 2, "note": 84, "velocity": 116, "channel": 0}, {"type": "note_off", "time": 60, "note": 84, "velocity": 116, "channel": 0}, {"type": "note_on", "time": 66, "note": 77, "velocity": 109, "channel": 0}, {"type": "note_off", "time": 40, "note": 77, "velocity": 109, "channel": 0}, {"type": "note_on", "time": 0, "note": 81, "velocity": 111, "channel": 0}, {"type": "note_off", "time": 85, "note": 81, "velocity": 111, "channel": 0}, {"type": "note_on", "time": 5, "note": 80, "velocity": 101, "channel": 0}, {"type": "note_off", "time": 7, "note": 80, "velocity": 101, "channel": 0}, {"type": "note_on", "time": 3, "note": 79, "velocity": 87, "channel": 0}, {"type": "note_off", "time": 10, "note": 79, "velocity": 87, "channel": 0}, {"type": "note_on", "time": 233, "note": 84, "velocity": 121, "channel": 0}, {"type": "note_off", "time": 64, "note": 84, "velocity": 121, "channel": 0}, {"type": "note_on", "time": 10, "note": 83, "velocity": 104, "channel": 0}, {"type": "note_off", "time": 12, "note": 83, "velocity": 104, "channel": 0}, {"type": "note_on", "time": 3, "note": 82, "velocity": 113, "channel": 0}, {"type": "note_off", "time": 11, "note": 82, "velocity": 113, "channel": 0}, {"type": "note_on", "time": 5, "note": 80, "velocity": 108, "channel": 0}, {"type": "note_off", "time": 68, "note": 80, "velocity": 108, "channel": 0}, {"type": "note_on", "time": 11, "note": 81, "velocity": 108, "channel": 0}, {"type": "note_off", "time": 117, "note": 81, "velocity": 108, "channel": 0}, {"type": "note_on", "time": 89, "note": 79, "velocity": 115, "channel": 0}, {"type": "note_off", "time": 46, "note": 79, "velocity": 115, "channel": 0}, {"type": "note_on", "time": 44, "note": 77, "velocity": 82, "channel": 0}, {"type": "note_off", "time": 52, "note": 77, "velocity": 82, "channel": 0}, {"type": "note_on", "time": 47, "note": 74, "velocity": 116, "channel": 0}, {"type": "note_off", "time": 64, "note": 74, "velocity": 116, "channel": 0}, {"type": "note_on", "time": 19, "note": 72, "velocity": 112, "channel": 0}, {"type": "note_off", "time": 37, "note": 72, "velocity": 112, "channel": 0}, {"type": "note_on", "time": 79, "note": 68, "velocity": 112, "channel": 0}, {"type": "note_on", "time": 86, "note": 67, "velocity": 89, "channel": 0}, {"type": "note_off", "time": 0, "note": 68, "velocity": 112, "channel": 0}, {"type": "note_off", "time": 22, "note": 67, "velocity": 89, "channel": 0}, {"type": "note_on", "time": 59, "note": 79, "velocity": 118, "channel": 0}, {"type": "note_off", "time": 113, "note": 79, "velocity": 118, "channel": 0}, {"type": "note_on", "time": 0, "note": 77, "velocity": 112, "channel": 0}, {"type": "note_off", "time": 49, "note": 77, "velocity": 112, "channel": 0}, {"type": "note_on", "time": 54, "note": 69, "velocity": 93, "channel": 0}, {"type": "note_off", "time": 35, "note": 69, "velocity": 93, "channel": 0}, {"type": "note_on", "time": 0, "note": 70, "velocity": 106, "channel": 0}, {"type": "note_off", "time": 50, "note": 70, "velocity": 106, "channel": 0}, {"type": "note_on", "time": 4, "note": 74, "velocity": 110, "channel": 0}, {"type": "note_off", "time": 25, "note": 74, "velocity": 110, "channel": 0}, {"type": "note_on", "time": 68, "note": 80, "velocity": 119, "channel": 0}, {"type": "note_off", "time": 42, "note": 80, "velocity": 119, "channel": 0}, {"type": "note_on", "time": 8, "note": 79, "velocity": 107, "channel": 0}, {"type": "note_off", "time": 47, "note": 79, "velocity": 107, "channel": 0}, {"type": "note_on", "time": 27, "note": 65, "velocity": 100, "channel": 0}, {"type": "note_off", "time": 32, "note": 65, "velocity": 100, "channel": 0}, {"type": "note_on", "time": 47, "note": 67, "velocity": 110, "channel": 0}, {"type": "note_off", "time": 87, "note": 67, "velocity": 110, "channel": 0}, {"type": "note_on", "time": 1, "note": 65, "velocity": 96, "channel": 0}, {"type": "note_off", "time": 44, "note": 65, "velocity": 96, "channel": 0}, {"type": "note_on", "time": 34, "note": 67, "velocity": 117, "channel": 0}, {"type": "note_off", "time": 109, "note": 67, "velocity": 117, "channel": 0}, {"type": "note_on", "time": 2, "note": 65, "velocity": 98, "channel": 0}, {"type": "note_off", "time": 48, "note": 65, "velocity": 98, "channel": 0}, {"type": "note_on", "time": 44, "note": 67, "velocity": 115, "channel": 0}, {"type": "note_off", "time": 96, "note": 67, "velocity": 115, "channel": 0}, {"type": "note_on", "time": 5, "note": 65, "velocity": 86, "channel": 0}, {"type": "note_off", "time": 44, "note": 65, "velocity": 86, "channel": 0}, {"type": "note_on", "time": 47, "note": 67, "velocity": 122, "channel": 0}, {"type": "note_off", "time": 94, "note": 67, "velocity": 122, "channel": 0}, {"type": "note_on", "time": 9, "note": 65, "velocity": 96, "channel": 0}, {"type": "note_off", "time": 44, "note": 65, "velocity": 96, "channel": 0}, {"type": "note_on", "time": 58, "note": 68, "velocity": 106, "channel": 0}, {"type": "note_off", "time": 40, "note": 68, "velocity": 106, "channel": 0}, {"type": "note_on", "time": 69, "note": 67, "velocity": 117, "channel": 0}, {"type": "note_off", "time": 26, "note": 67, "velocity": 117, "channel": 0}, {"type": "note_on", "time": 2, "note": 65, "velocity": 121, "channel": 0}, {"type": "note_off", "time": 32, "note": 65, "velocity": 121, "channel": 0}, {"type": "note_on", "time": 0, "note": 61, "velocity": 119, "channel": 0}, {"type": "note_off", "time": 16, "note": 61, "velocity": 119, "channel": 0}, {"type": "note_on", "time": 0, "note": 62, "velocity": 118, "channel": 0}, {"type": "note_off", "time": 105, "note": 62, "velocity": 118, "channel": 0}, {"type": "note_on", "time": 0, "note": 60, "velocity": 101, "channel": 0}, {"type": "note_off", "time": 54, "note": 60, "velocity": 101, "channel": 0}, {"type": "note_on", "time": 19, "note": 62, "velocity": 111, "channel": 0}, {"type": "note_off", "time": 93, "note": 62, "velocity": 111, "channel": 0}, {"type": "note_on", "time": 15, "note": 65, "velocity": 120, "channel": 0}, {"type": "note_off", "time": 151, "note": 65, "velocity": 120, "channel": 0}, {"type": "note_on", "time": 14, "note": 65, "velocity": 114, "channel": 0}, {"type": "note_off", "time": 66, "note": 65, "velocity": 114, "channel": 0}, {"type": "note_on", "time": 0, "note": 64, "velocity": 98, "channel": 0}, {"type": "note_off", "time": 18, "note": 64, "velocity": 98, "channel": 0}, {"type": "note_on", "time": 225, "note": 69, "velocity": 115, "channel": 0}, {"type": "note_off", "time": 54, "note": 69, "velocity": 115, "channel": 0}, {"type": "note_on", "time": 7, "note": 72, "velocity": 107, "channel": 0}, {"type": "note_off", "time": 63, "note": 72, "velocity": 107, "channel": 0}, {"type": "note_on", "time": 8, "note": 82, "velocity": 97, "channel": 0}, {"type": "note_off", "time": 42, "note": 82, "velocity": 97, "channel": 0}, {"type": "note_on", "time": 12, "note": 84, "velocity": 101, "channel": 0}, {"type": "note_off", "time": 52, "note": 84, "velocity": 101, "channel": 0}, {"type": "note_on", "time": 38, "note": 81, "velocity": 101, "channel": 0}, {"type": "note_off", "time": 61, "note": 81, "velocity": 101, "channel": 0}, {"type": "note_on", "time": 42, "note": 84, "velocity": 100, "channel": 0}, {"type": "note_off", "time": 71, "note": 84, "velocity": 100, "channel": 0}, {"type": "note_on", "time": 54, "note": 78, "velocity": 109, "channel": 0}, {"type": "note_off", "time": 51, "note": 78, "velocity": 109, "channel": 0}, {"type": "note_on", "time": 64, "note": 84, "velocity": 95, "channel": 0}, {"type": "note_off", "time": 71, "note": 84, "velocity": 95, "channel": 0}, {"type": "note_on", "time": 0, "note": 85, "velocity": 101, "channel": 0}, {"type": "note_off", "time": 10, "note": 85, "velocity": 101, "channel": 0}, {"type": "note_on", "time": 0, "note": 86, "velocity": 99, "channel": 0}, {"type": "note_off", "time": 248, "note": 86, "velocity": 99, "channel": 0}, {"type": "note_on", "time": 25, "note": 84, "velocity": 107, "channel": 0}, {"type": "note_off", "time": 57, "note": 84, "velocity": 107, "channel": 0}, {"type": "note_on", "time": 36, "note": 82, "velocity": 123, "channel": 0}, {"type": "note_off", "time": 62, "note": 82, "velocity": 123, "channel": 0}, {"type": "note_on", "time": 24, "note": 80, "velocity": 85, "channel": 0}, {"type": "note_off", "time": 17, "note": 80, "velocity": 85, "channel": 0}, {"type": "note_on", "time": 3, "note": 81, "velocity": 113, "channel": 0}, {"type": "note_off", "time": 59, "note": 81, "velocity": 113, "channel": 0}, {"type": "note_on", "time": 6, "note": 79, "velocity": 117, "channel": 0}, {"type": "note_off", "time": 66, "note": 79, "velocity": 117, "channel": 0}, {"type": "note_on", "time": 39, "note": 77, "velocity": 117, "channel": 0}, {"type": "note_off", "time": 74, "note": 77, "velocity": 117, "channel": 0}, {"type": "note_on", "time": 6, "note": 74, "velocity": 115, "channel": 0}, {"type": "note_off", "time": 52, "note": 74, "velocity": 115, "channel": 0}, {"type": "note_on", "time": 45, "note": 74, "velocity": 122, "channel": 0}, {"type": "note_off", "time": 96, "note": 74, "velocity": 122, "channel": 0}, {"type": "note_on", "time": 0, "note": 72, "velocity": 115, "channel": 0}, {"type": "note_off", "time": 43, "note": 72, "velocity": 115, "channel": 0}, {"type": "note_on", "time": 56, "note": 68, "velocity": 113, "channel": 0}, {"type": "note_off", "time": 105, "note": 68, "velocity": 113, "channel": 0}, {"type": "note_on", "time": 4, "note": 65, "velocity": 98, "channel": 0}, {"type": "note_off", "time": 46, "note": 65, "velocity": 98, "channel": 0}, {"type": "note_on", "time": 30, "note": 67, "velocity": 118, "channel": 0}, {"type": "note_off", "time": 101, "note": 67, "velocity": 118, "channel": 0}, {"type": "note_on", "time": 2, "note": 65, "velocity": 110, "channel": 0}, {"type": "note_off", "time": 27, "note": 65, "velocity": 110, "channel": 0}, {"type": "note_on", "time": 176, "note": 84, "velocity": 86, "channel": 0}, {"type": "note_off", "time": 45, "note": 84, "velocity": 86, "channel": 0}, {"type": "note_on", "time": 115, "note": 85, "velocity": 104, "channel": 0}, {"type": "note_off", "time": 103, "note": 85, "velocity": 104, "channel": 0}, {"type": "note_on", "time": 35, "note": 82, "velocity": 99, "channel": 0}, {"type": "note_off", "time": 44, "note": 82, "velocity": 99, "channel": 0}, {"type": "note_on", "time": 38, "note": 79, "velocity": 114, "channel": 0}, {"type": "note_off", "time": 70, "note": 79, "velocity": 114, "channel": 0}, {"type": "note_on", "time": 10, "note": 77, "velocity": 119, "channel": 0}, {"type": "note_off", "time": 62, "note": 77, "velocity": 119, "channel": 0}, {"type": "note_on", "time": 7, "note": 74, "velocity": 118, "channel": 0}, {"type": "note_off", "time": 66, "note": 74, "velocity": 118, "channel": 0}, {"type": "note_on", "time": 57, "note": 74, "velocity": 113, "channel": 0}, {"type": "note_off", "time": 164, "note": 74, "velocity": 113, "channel": 0}, {"type": "note_on", "time": 4, "note": 72, "velocity": 115, "channel": 0}, {"type": "note_off", "time": 72, "note": 72, "velocity": 115, "channel": 0}, {"type": "note_on", "time": 36, "note": 68, "velocity": 119, "channel": 0}, {"type": "note_off", "time": 52, "note": 68, "velocity": 119, "channel": 0}, {"type": "note_on", "time": 0, "note": 67, "velocity": 99, "channel": 0}, {"type": "note_off", "time": 24, "note": 67, "velocity": 99, "channel": 0}, {"type": "note_on", "time": 117, "note": 65, "velocity": 97, "channel": 0}, {"type": "note_off", "time": 53, "note": 65, "velocity": 97, "channel": 0}, {"type": "note_on", "time": 40, "note": 67, "velocity": 122, "channel": 0}, {"type": "note_off", "time": 77, "note": 67, "velocity": 122, "channel": 0}, {"type": "note_on", "time": 26, "note": 65, "velocity": 93, "channel": 0}, {"type": "note_off", "time": 56, "note": 65, "velocity": 93, "channel": 0}, {"type": "note_on", "time": 35, "note": 67, "velocity": 114, "channel": 0}, {"type": "note_off", "time": 45, "note": 67, "velocity": 114, "channel": 0}, {"type": "note_on", "time": 0, "note": 68, "velocity": 110, "channel": 0}, {"type": "note_off", "time": 58, "note": 68, "velocity": 110, "channel": 0}, {"type": "note_on", "time": 5, "note": 67, "velocity": 93, "channel": 0}, {"type": "note_off", "time": 66, "note": 67, "velocity": 93, "channel": 0}, {"type": "note_on", "time": 7, "note": 65, "velocity": 127, "channel": 0}, {"type": "note_off", "time": 81, "note": 65, "velocity": 127, "channel": 0}, {"type": "note_on", "time": 15, "note": 62, "velocity": 109, "channel": 0}, {"type": "note_off", "time": 205, "note": 62, "velocity": 109, "channel": 0}, {"type": "note_on", "time": 2, "note": 65, "velocity": 120, "channel": 0}, {"type": "note_off", "time": 139, "note": 65, "velocity": 120, "channel": 0}, {"type": "note_on", "time": 67, "note": 65, "velocity": 119, "channel": 0}, {"type": "note_off", "time": 94, "note": 65, "velocity": 119, "channel": 0}, {"type": "note_on", "time": 3, "note": 64, "velocity": 95, "channel": 0}, {"type": "note_off", "time": 39, "note": 64, "velocity": 95, "channel": 0}, {"type": "note_on", "time": 120, "note": 62, "velocity": 118, "channel": 0}, {"type": "note_off", "time": 105, "note": 62, "velocity": 118, "channel": 0}, {"type": "note_on", "time": 21, "note": 59, "velocity": 104, "channel": 0}, {"type": "note_off", "time": 68, "note": 59, "velocity": 104, "channel": 0}, {"type": "note_on", "time": 11, "note": 62, "velocity": 114, "channel": 0}, {"type": "note_off", "time": 110, "note": 62, "velocity": 114, "channel": 0}, {"type": "note_on", "time": 0, "note": 59, "velocity": 98, "channel": 0}, {"type": "note_off", "time": 56, "note": 59, "velocity": 98, "channel": 0}, {"type": "note_on", "time": 19, "note": 62, "velocity": 117, "channel": 0}, {"type": "note_off", "time": 121, "note": 62, "velocity": 117, "channel": 0}, {"type": "note_on", "time": 12, "note": 59, "velocity": 96, "channel": 0}, {"type": "note_off", "time": 45, "note": 59, "velocity": 96, "channel": 0}, {"type": "note_on", "time": 11, "note": 67, "velocity": 110, "channel": 0}, {"type": "note_off", "time": 85, "note": 67, "velocity": 110, "channel": 0}, {"type": "note_on", "time": 10, "note": 65, "velocity": 113, "channel": 0}, {"type": "note_off", "time": 78, "note": 65, "velocity": 113, "channel": 0}, {"type": "note_on", "time": 10, "note": 62, "velocity": 117, "channel": 0}, {"type": "note_off", "time": 91, "note": 62, "velocity": 117, "channel": 0}, {"type": "note_on", "time": 9, "note": 62, "velocity": 108, "channel": 0}, {"type": "note_off", "time": 90, "note": 62, "velocity": 108, "channel": 0}, {"type": "note_on", "time": 11, "note": 62, "velocity": 105, "channel": 0}, {"type": "note_off", "time": 86, "note": 62, "velocity": 105, "channel": 0}, {"type": "note_on", "time": 10, "note": 62, "velocity": 106, "channel": 0}, {"type": "note_off", "time": 177, "note": 62, "velocity": 106, "channel": 0}, {"type": "note_on", "time": 14, "note": 62, "velocity": 108, "channel": 0}, {"type": "note_off", "time": 54, "note": 62, "velocity": 108, "channel": 0}, {"type": "note_on", "time": 222, "note": 67, "velocity": 117, "channel": 0}, {"type": "note_off", "time": 39, "note": 67, "velocity": 117, "channel": 0}, {"type": "note_on", "time": 7, "note": 66, "velocity": 112, "channel": 0}, {"type": "note_off", "time": 19, "note": 66, "velocity": 112, "channel": 0}, {"type": "note_on", "time": 0, "note": 67, "velocity": 113, "channel": 0}, {"type": "note_off", "time": 38, "note": 67, "velocity": 113, "channel": 0}, {"type": "note_on", "time": 9, "note": 65, "velocity": 98, "channel": 0}, {"type": "note_off", "time": 62, "note": 65, "velocity": 98, "channel": 0}, {"type": "note_on", "time": 9, "note": 67, "velocity": 113, "channel": 0}, {"type": "note_off", "time": 92, "note": 67, "velocity": 113, "channel": 0}, {"type": "note_on", "time": 4, "note": 65, "velocity": 91, "channel": 0}, {"type": "note_off", "time": 61, "note": 65, "velocity": 91, "channel": 0}, {"type": "note_on", "time": 37, "note": 62, "velocity": 114, "channel": 0}, {"type": "note_off", "time": 121, "note": 62, "velocity": 114, "channel": 0}, {"type": "note_on", "time": 12, "note": 60, "velocity": 102, "channel": 0}, {"type": "note_off", "time": 56, "note": 60, "velocity": 102, "channel": 0}, {"type": "note_on", "time": 5, "note": 62, "velocity": 104, "channel": 0}, {"type": "note_off", "time": 167, "note": 62, "velocity": 104, "channel": 0}, {"type": "note_on", "time": 0, "note": 63, "velocity": 113, "channel": 0}, {"type": "note_off", "time": 33, "note": 63, "velocity": 113, "channel": 0}, {"type": "note_on", "time": 10, "note": 64, "velocity": 116, "channel": 0}, {"type": "note_off", "time": 151, "note": 64, "velocity": 116, "channel": 0}, {"type": "note_on", "time": 2, "note": 65, "velocity": 110, "channel": 0}, {"type": "note_off", "time": 68, "note": 65, "velocity": 110, "channel": 0}, {"type": "note_on", "time": 55, "note": 62, "velocity": 108, "channel": 0}, {"type": "note_off", "time": 134, "note": 62, "velocity": 108, "channel": 0}, {"type": "note_on", "time": 48, "note": 62, "velocity": 110, "channel": 0}, {"type": "note_off", "time": 77, "note": 62, "velocity": 110, "channel": 0}, {"type": "note_on", "time": 30, "note": 62, "velocity": 101, "channel": 0}, {"type": "note_off", "time": 137, "note": 62, "velocity": 101, "channel": 0}, {"type": "note_on", "time": 230, "note": 60, "velocity": 105, "channel": 0}, {"type": "note_off", "time": 67, "note": 60, "velocity": 105, "channel": 0}, {"type": "note_on", "time": 0, "note": 59, "velocity": 90, "channel": 0}, {"type": "note_off", "time": 27, "note": 59, "velocity": 90, "channel": 0}, {"type": "note_on", "time": 90, "note": 60, "velocity": 100, "channel": 0}, {"type": "note_off", "time": 299, "note": 60, "velocity": 100, "channel": 0}, {"type": "note_on", "time": 0, "note": 65, "velocity": 113, "channel": 0}, {"type": "note_off", "time": 54, "note": 65, "velocity": 113, "channel": 0}, {"type": "note_on", "time": 0, "note": 66, "velocity": 115, "channel": 0}, {"type": "note_on", "time": 23, "note": 67, "velocity": 119, "channel": 0}, {"type": "note_off", "time": 0, "note": 66, "velocity": 115, "channel": 0}, {"type": "note_off", "time": 109, "note": 67, "velocity": 119, "channel": 0}, {"type": "note_on", "time": 6, "note": 65, "velocity": 111, "channel": 0}, {"type": "note_off", "time": 74, "note": 65, "velocity": 111, "channel": 0}, {"type": "note_on", "time": 114, "note": 60, "velocity": 109, "channel": 0}, {"type": "note_off", "time": 22, "note": 60, "velocity": 109, "channel": 0}, {"type": "note_on", "time": 1, "note": 62, "velocity": 105, "channel": 0}, {"type": "note_off", "time": 73, "note": 62, "velocity": 105, "channel": 0}, {"type": "note_on", "time": 81, "note": 62, "velocity": 106, "channel": 0}, {"type": "note_off", "time": 75, "note": 62, "velocity": 106, "channel": 0}, {"type": "note_on", "time": 3, "note": 62, "velocity": 97, "channel": 0}, {"type": "note_off", "time": 157, "note": 62, "velocity": 97, "channel": 0}, {"type": "note_on", "time": 230, "note": 60, "velocity": 105, "channel": 0}, {"type": "note_off", "time": 31, "note": 60, "velocity": 105, "channel": 0}, {"type": "note_on", "time": 0, "note": 61, "velocity": 104, "channel": 0}, {"type": "note_off", "time": 14, "note": 61, "velocity": 104, "channel": 0}, {"type": "note_on", "time": 6, "note": 60, "velocity": 95, "channel": 0}, {"type": "note_off", "time": 34, "note": 60, "velocity": 95, "channel": 0}, {"type": "note_on", "time": 113, "note": 60, "velocity": 102, "channel": 0}, {"type": "note_off", "time": 169, "note": 60, "velocity": 102, "channel": 0}, {"type": "note_on", "time": 312, "note": 53, "velocity": 92, "channel": 0}, {"type": "note_off", "time": 45, "note": 53, "velocity": 92, "channel": 0}, {"type": "note_on", "time": 43, "note": 60, "velocity": 110, "channel": 0}, {"type": "note_off", "time": 40, "note": 60, "velocity": 110, "channel": 0}, {"type": "note_on", "time": 8, "note": 62, "velocity": 99, "channel": 0}, {"type": "note_off", "time": 230, "note": 62, "velocity": 99, "channel": 0}, {"type": "note_on", "time": 27, "note": 62, "velocity": 101, "channel": 0}, {"type": "note_off", "time": 69, "note": 62, "velocity": 101, "channel": 0}, {"type": "note_on", "time": 22, "note": 62, "velocity": 102, "channel": 0}, {"type": "note_off", "time": 287, "note": 62, "velocity": 102, "channel": 0}, {"type": "note_on", "time": 91, "note": 60, "velocity": 100, "channel": 0}, {"type": "note_off", "time": 84, "note": 60, "velocity": 100, "channel": 0}, {"type": "note_on", "time": 109, "note": 60, "velocity": 92, "channel": 0}, {"type": "note_off", "time": 154, "note": 60, "velocity": 92, "channel": 0}, {"type": "note_on", "time": 417, "note": 60, "velocity": 112, "channel": 0}, {"type": "note_off", "time": 45, "note": 60, "velocity": 112, "channel": 0}, {"type": "note_on", "time": 0, "note": 62, "velocity": 95, "channel": 0}, {"type": "note_off", "time": 228, "note": 62, "velocity": 95, "channel": 0}, {"type": "note_on", "time": 33, "note": 62, "velocity": 99, "channel": 0}, {"type": "note_off", "time": 168, "note": 62, "velocity": 99, "channel": 0}, {"type": "note_on", "time": 298, "note": 60, "velocity": 100, "channel": 0}, {"type": "note_off", "time": 83, "note": 60, "velocity": 100, "channel": 0}, {"type": "note_on", "time": 240, "note": 60, "velocity": 95, "channel": 0}, {"type": "note_off", "time": 3109, "note": 60, "velocity": 95, "channel": 0}, {"type": "end_of_track", "time": 0}]]}