{"ticks_per_beat": 192, "tracks": [[{"type": "track_name", "name": "Melody", "time": 0}, {"type": "set_tempo", "tempo": 461538, "time": 0}, {"type": "key_signature", "key": "G", "time": 0}, {"type": "time_signature", "numerator": 4, "denominator": 4, "clocks_per_click": 24, "notated_32nd_notes_per_beat": 8, "time": 0}, {"type": "note_on", "time": 1250, "note": 67, "velocity": 113, "channel": 0}, {"type": "note_off", "time": 57, "note": 67, "velocity": 113, "channel": 0}, {"type": "note_on", "time": 84, "note": 62, "velocity": 108, "channel": 0}, {"type": "note_off", "time": 45, "note": 62, "velocity": 108, "channel": 0}, {"type": "note_on", "time": 5, "note": 59, "velocity": 111, "channel": 0}, {"type": "note_off", "time": 63, "note": 59, "velocity": 111, "channel": 0}, {"type": "note_on", "time": 49, "note": 55, "velocity": 108, "channel": 0}, {"type": "note_off", "time": 55, "note": 55, "velocity": 108, "channel": 0}, {"type": "note_on", "time": 409, "note": 67, "velocity": 119, "channel": 0}, {"type": "note_off", "time": 48, "note": 67, "velocity": 119, "channel": 0}, {"type": "note_on", "time": 8, "note": 66, "velocity": 107, "channel": 0}, {"type": "note_off", "time": 32, "note": 66, "velocity": 107, "channel": 0}, {"type": "note_on", "time": 60, "note": 62, "velocity": 105, "channel": 0}, {"type": "note_off", "time": 28, "note": 62, "velocity": 105, "channel": 0}, {"type": "note_on", "time": 11, "note": 59, "velocity": 112, "channel": 0}, {"type": "note_off", "time": 38, "note": 59, "velocity": 112, "channel": 0}, {"type": "note_on", "time": 80, "note": 55, "velocity": 105, "channel": 0}, {"type": "note_off", "time": 91, "note": 55, "velocity": 105, "channel": 0}, {"type": "note_on", "time": 359, "note": 67, "velocity": 118, "channel": 0}, {"type": "note_off", "time": 74, "note": 67, "velocity": 118, "channel": 0}, {"type": "note_on", "time": 6, "note": 66, "velocity": 100, "channel": 0}, {"type": "note_off", "time": 39, "note": 66, "velocity": 100, "channel": 0}, {"type": "note_on", "time": 32, "note": 62, "velocity": 110, "channel": 0}, {"type": "note_off", "time": 106, "note": 62, "velocity": 110, "channel": 0}, {"type": "note_on", "time": 138, "note": 65, "velocity": 117, "channel": 0}, {"type": "note_off", "time": 53, "note": 65, "velocity": 117, "channel": 0}, {"type": "note_on", "time": 91, "note": 62, "velocity": 107, "channel": 0}, {"type": "note_off", "time": 35, "note": 62, "velocity": 107, "channel": 0}, {"type": "note_on", "time": 4, "note": 59, "velocity": 107, "channel": 0}, {"type": "note_off", "time": 62, "note": 59, "velocity": 107, "channel": 0}, {"type": "note_on", "time": 134, "note": 67, "velocity": 115, "channel": 0}, {"type": "note_off", "time": 97, "note": 67, "velocity": 115, "channel": 0}, {"type": "note_on", "time": 2, "note": 64, "velocity": 95, "channel": 0}, {"type": "note_off", "time": 30, "note": 64, "velocity": 95, "channel": 0}, {"type": "note_on", "time": 9, "note": 62, "velocity": 109, "channel": 0}, {"type": "note_off", "time": 47, "note": 62, "velocity": 109, "channel": 0}, {"type": "note_on", "time": 7, "note": 59, "velocity": 109, "channel": 0}, {"type": "note_off", "time": 50, "note": 59, "velocity": 109, "channel": 0}, {"type": "note_on", "time": 64, "note": 55, "velocity": 114, "channel": 0}, {"type": "note_off", "time": 67, "note": 55, "velocity": 114, "channel": 0}, {"type": "note_on", "time": 403, "note": 58, "velocity": 113, "channel": 0}, {"type": "note_off", "time": 30, "note": 58, "velocity": 113, "channel": 0}, {"type": "note_on", "time": 5, "note": 59, "velocity": 110, "channel": 0}, {"type": "note_off", "time": 66, "note": 59, "velocity": 110, "channel": 0}, {"type": "note_on", "time": 18, "note": 58, "velocity": 113, "channel": 0}, {"type": "note_off", "time": 28, "note": 58, "velocity": 113, "channel": 0}, {"type": "note_on", "time": 6, "note": 59, "velocity": 117, "channel": 0}, {"type": "note_off", "time": 87, "note": 59, "velocity": 117, "channel": 0}, {"type": "note_on", "time": 4, "note": 58, "velocity": 108, "channel": 0}, {"type": "note_off", "time": 52, "note": 58, "velocity": 108, "channel": 0}, {"type": "note_on", "time": 7, "note": 55, "velocity": 105, "channel": 0}, {"type": "note_off", "time": 140, "note": 55, "velocity": 105, "channel": 0}, {"type": "note_on", "time": 317, "note": 58, "velocity": 115, "channel": 0}, {"type": "note_off", "time": 22, "note": 58, "velocity": 115, "channel": 0}, {"type": "note_on", "time": 2, "note": 59, "velocity": 120, "channel": 0}, {"type": "note_off", "time": 96, "note": 59, "velocity": 120, "channel": 0}, {"type": "note_on", "time": 8, "note": 58, "velocity": 114, "channel": 0}, {"type": "note_off", "time": 59, "note": 58, "velocity": 114, "channel": 0}, {"type": "note_on", "time": 17, "note": 55, "velocity": 96, "channel": 0}, {"type": "note_off", "time": 101, "note": 55, "velocity": 96, "channel": 0}, {"type": "note_on", "time": 18, "note": 62, "velocity": 117, "channel": 0}, {"type": "note_off", "time": 69, "note": 62, "velocity": 117, "channel": 0}, {"type": "note_on", "time": 11, "note": 59, "velocity": 117, "channel": 0}, {"type": "note_off", "time": 93, "note": 59, "velocity": 117, "channel": 0}, {"type": "note_on", "time": 6, "note": 58, "velocity": 108, "channel": 0}, {"type": "note_off", "time": 64, "note": 58, "velocity": 108, "channel": 0}, {"type": "note_on", "time": 27, "note": 55, "velocity": 104, "channel": 0}, {"type": "note_off", "time": 100, "note": 55, "velocity": 104, "channel": 0}, {"type": "note_on", "time": 43, "note": 55, "velocity": 95, "channel": 0}, {"type": "note_off", "time": 285, "note": 55, "velocity": 95, "channel": 0}, {"type": "note_on", "time": 147, "note": 49, "velocity": 111, "channel": 0}, {"type": "note_off", "time": 72, "note": 49, "velocity": 111, "channel": 0}, {"type": "note_on", "time": 3, "note": 50, "velocity": 115, "channel": 0}, {"type": "note_off", "time": 33, "note": 50, "velocity": 115, "channel": 0}, {"type": "note_on", "time": 36, "note": 49, "velocity": 110, "channel": 0}, {"type": "note_off", "time": 40, "note": 49, "velocity": 110, "channel": 0}, {"type": "note_on", "time": 2, "note": 50, "velocity": 113, "channel": 0}, {"type": "note_off", "time": 119, "note": 50, "velocity": 113, "channel": 0}, {"type": "note_on", "time": 4, "note": 49, "velocity": 104, "channel": 0}, {"type": "note_off", "time": 57, "note": 49, "velocity": 104, "channel": 0}, {"type": "note_on", "time": 31, "note": 43, "velocity": 96, "channel": 0}, {"type": "note_off", "time": 101, "note": 43, "velocity": 96, "channel": 0}, {"type": "note_on", "time": 399, "note": 61, "velocity": 124, "channel": 0}, {"type": "note_off", "time": 65, "note": 61, "velocity": 124, "channel": 0}, {"type": "note_on", "time": 4, "note": 62, "velocity": 110, "channel": 0}, {"type": "note_off", "time": 74, "note": 62, "velocity": 110, "channel": 0}, {"type": "note_on", "time": 5, "note": 61, "velocity": 124, "channel": 0}, {"type": "note_off", "time": 34, "note": 61, "velocity": 124, "channel": 0}, {"type": "note_on", "time": 5, "note": 62, "velocity": 121, "channel": 0}, {"type": "note_off", "time": 57, "note": 62, "velocity": 121, "channel": 0}, {"type": "note_on", "time": 4, "note": 61, "velocity": 127, "channel": 0}, {"type": "note_off", "time": 58, "note": 61, "velocity": 127, "channel": 0}, {"type": "note_on", "time": 3, "note": 62, "velocity": 119, "channel": 0}, {"type": "note_off", "time": 139, "note": 62, "velocity": 119, "channel": 0}, {"type": "note_on", "time": 6, "note": 61, "velocity": 123, "channel": 0}, {"type": "note_off", "time": 39, "note": 61, "velocity": 123, "channel": 0}, {"type": "note_on", "time": 70, "note": 50, "velocity": 107, "channel": 0}, {"type": "note_off", "time": 134, "note": 50, "velocity": 107, "channel": 0}, {"type": "note_on", "time": 305, "note": 61, "velocity": 123, "channel": 0}, {"type": "note_off", "time": 55, "note": 61, "velocity": 123, "channel": 0}, {"type": "note_on", "time": 4, "note": 62, "velocity": 114, "channel": 0}, {"type": "note_off", "time": 45, "note": 62, "velocity": 114, "channel": 0}, {"type": "note_on", "time": 49, "note": 61, "velocity": 122, "channel": 0}, {"type": "note_off", "time": 42, "note": 61, "velocity": 122, "channel": 0}, {"type": "note_on", "time": 4, "note": 62, "velocity": 117, "channel": 0}, {"type": "note_off", "time": 54, "note": 62, "velocity": 117, "channel": 0}, {"type": "note_on", "time": 53, "note": 61, "velocity": 124, "channel": 0}, {"type": "note_off", "time": 49, "note": 61, "velocity": 124, "channel": 0}, {"type": "note_on", "time": 3, "note": 62, "velocity": 118, "channel": 0}, {"type": "note_off", "time": 137, "note": 62, "velocity": 118, "channel": 0}, {"type": "note_on", "time": 10, "note": 61, "velocity": 121, "channel": 0}, {"type": "note_off", "time": 59, "note": 61, "velocity": 121, "channel": 0}, {"type": "note_on", "time": 8, "note": 59, "velocity": 108, "channel": 0}, {"type": "note_off", "time": 76, "note": 59, "velocity": 108, "channel": 0}, {"type": "note_on", "time": 219, "note": 62, "velocity": 94, "channel": 0}, {"type": "note_off", "time": 1300, "note": 62, "velocity": 94, "channel": 0}, {"type": "note_on", "time": 2, "note": 67, "velocity": 97, "channel": 0}, {"type": "note_off", "time": 443, "note": 67, "velocity": 97, "channel": 0}, {"type": "end_of_track", "time": 0}]]}