{"ticks_per_beat": 192, "tracks": [[{"type": "track_name", "name": "Melody", "time": 0}, {"type": "set_tempo", "tempo": 405405, "time": 0}, {"type": "key_signature", "key": "C", "time": 0}, {"type": "time_signature", "numerator": 4, "denominator": 4, "clocks_per_click": 24, "notated_32nd_notes_per_beat": 8, "time": 0}, {"type": "note_on", "time": 2904, "note": 50, "velocity": 112, "channel": 0}, {"type": "note_off", "time": 71, "note": 50, "velocity": 112, "channel": 0}, {"type": "note_on", "time": 13, "note": 52, "velocity": 113, "channel": 0}, {"type": "note_off", "time": 70, "note": 52, "velocity": 113, "channel": 0}, {"type": "note_on", "time": 37, "note": 55, "velocity": 105, "channel": 0}, {"type": "note_off", "time": 60, "note": 55, "velocity": 105, "channel": 0}, {"type": "note_on", "time": 26, "note": 57, "velocity": 119, "channel": 0}, {"type": "note_off", "time": 52, "note": 57, "velocity": 119, "channel": 0}, {"type": "note_on", "time": 44, "note": 60, "velocity": 104, "channel": 0}, {"type": "note_off", "time": 222, "note": 60, "velocity": 104, "channel": 0}, {"type": "note_on", "time": 423, "note": 62, "velocity": 102, "channel": 0}, {"type": "note_off", "time": 30, "note": 62, "velocity": 102, "channel": 0}, {"type": "note_on", "time": 4, "note": 64, "velocity": 116, "channel": 0}, {"type": "note_off", "time": 58, "note": 64, "velocity": 116, "channel": 0}, {"type": "note_on", "time": 41, "note": 63, "velocity": 113, "channel": 0}, {"type": "note_off", "time": 37, "note": 63, "velocity": 113, "channel": 0}, {"type": "note_on", "time": 8, "note": 64, "velocity": 120, "channel": 0}, {"type": "note_off", "time": 64, "note": 64, "velocity": 120, "channel": 0}, {"type": "note_on", "time": 68, "note": 60, "velocity": 117, "channel": 0}, {"type": "note_off", "time": 74, "note": 60, "velocity": 117, "channel": 0}, {"type": "note_on", "time": 10, "note": 57, "velocity": 120, "channel": 0}, {"type": "note_off", "time": 87, "note": 57, "velocity": 120, "channel": 0}, {"type": "note_on", "time": 29, "note": 51, "velocity": 116, "channel": 0}, {"type": "note_off", "time": 69, "note": 51, "velocity": 116, "channel": 0}, {"type": "note_on", "time": 7, "note": 52, "velocity": 109, "channel": 0}, {"type": "note_off", "time": 68, "note": 52, "velocity": 109, "channel": 0}, {"type": "note_on", "time": 1239, "note": 63, "velocity": 112, "channel": 0}, {"type": "note_off", "time": 24, "note": 63, "velocity": 112, "channel": 0}, {"type": "note_on", "time": 10, "note": 64, "velocity": 119, "channel": 0}, {"type": "note_off", "time": 46, "note": 64, "velocity": 119, "channel": 0}, {"type": "note_on", "time": 45, "note": 63, "velocity": 119, "channel": 0}, {"type": "note_off", "time": 30, "note": 63, "velocity": 119, "channel": 0}, {"type": "note_on", "time": 0, "note": 64, "velocity": 123, "channel": 0}, {"type": "note_off", "time": 48, "note": 64, "velocity": 123, "channel": 0}, {"type": "note_on", "time": 92, "note": 64, "velocity": 123, "channel": 0}, {"type": "note_off", "time": 109, "note": 64, "velocity": 123, "channel": 0}, {"type": "note_on", "time": 74, "note": 64, "velocity": 125, "channel": 0}, {"type": "note_off", "time": 87, "note": 64, "velocity": 125, "channel": 0}, {"type": "note_on", "time": 20, "note": 60, "velocity": 107, "channel": 0}, {"type": "note_off", "time": 45, "note": 60, "velocity": 107, "channel": 0}, {"type": "note_on", "time": 310, "note": 63, "velocity": 114, "channel": 0}, {"type": "note_off", "time": 37, "note": 63, "velocity": 114, "channel": 0}, {"type": "note_on", "time": 5, "note": 64, "velocity": 123, "channel": 0}, {"type": "note_off", "time": 45, "note": 64, "velocity": 123, "channel": 0}, {"type": "note_on", "time": 50, "note": 63, "velocity": 120, "channel": 0}, {"type": "note_off", "time": 32, "note": 63, "velocity": 120, "channel": 0}, {"type": "note_on", "time": 5, "note": 64, "velocity": 124, "channel": 0}, {"type": "note_off", "time": 40, "note": 64, "velocity": 124, "channel": 0}, {"type": "note_on", "time": 88, "note": 64, "velocity": 127, "channel": 0}, {"type": "note_off", "time": 70, "note": 64, "velocity": 127, "channel": 0}, {"type": "note_on", "time": 104, "note": 60, "velocity": 110, "channel": 0}, {"type": "note_off", "time": 74, "note": 60, "velocity": 110, "channel": 0}, {"type": "note_on", "time": 8, "note": 57, "velocity": 121, "channel": 0}, {"type": "note_off", "time": 107, "note": 57, "velocity": 121, "channel": 0}, {"type": "note_on", "time": 10, "note": 51, "velocity": 115, "channel": 0}, {"type": "note_off", "time": 94, "note": 51, "velocity": 115, "channel": 0}, {"type": "note_on", "time": 8, "note": 52, "velocity": 108, "channel": 0}, {"type": "note_off", "time": 114, "note": 52, "velocity": 108, "channel": 0}, {"type": "note_on", "time": 1097, "note": 60, "velocity": 113, "channel": 0}, {"type": "note_off", "time": 46, "note": 60, "velocity": 113, "channel": 0}, {"type": "note_on", "time": 7, "note": 62, "velocity": 122, "channel": 0}, {"type": "note_off", "time": 57, "note": 62, "velocity": 122, "channel": 0}, {"type": "note_on", "time": 81, "note": 62, "velocity": 114, "channel": 0}, {"type": "note_off", "time": 168, "note": 62, "velocity": 114, "channel": 0}, {"type": "note_on", "time": 98, "note": 59, "velocity": 117, "channel": 0}, {"type": "note_off", "time": 88, "note": 59, "velocity": 117, "channel": 0}, {"type": "note_on", "time": 8, "note": 58, "velocity": 115, "channel": 0}, {"type": "note_off", "time": 48, "note": 58, "velocity": 115, "channel": 0}, {"type": "note_on", "time": 4, "note": 59, "velocity": 116, "channel": 0}, {"type": "note_off", "time": 60, "note": 59, "velocity": 116, "channel": 0}, {"type": "note_on", "time": 34, "note": 55, "velocity": 113, "channel": 0}, {"type": "note_off", "time": 79, "note": 55, "velocity": 113, "channel": 0}, {"type": "note_on", "time": 204, "note": 60, "velocity": 121, "channel": 0}, {"type": "note_off", "time": 85, "note": 60, "velocity": 121, "channel": 0}, {"type": "note_on", "time": 69, "note": 58, "velocity": 121, "channel": 0}, {"type": "note_off", "time": 96, "note": 58, "velocity": 121, "channel": 0}, {"type": "note_on", "time": 60, "note": 57, "velocity": 115, "channel": 0}, {"type": "note_off", "time": 65, "note": 57, "velocity": 115, "channel": 0}, {"type": "note_on", "time": 35, "note": 55, "velocity": 115, "channel": 0}, {"type": "note_off", "time": 63, "note": 55, "velocity": 115, "channel": 0}, {"type": "note_on", "time": 83, "note": 50, "velocity": 115, "channel": 0}, {"type": "note_off", "time": 89, "note": 50, "velocity": 115, "channel": 0}, {"type": "note_on", "time": 61, "note": 52, "velocity": 114, "channel": 0}, {"type": "note_off", "time": 46, "note": 52, "velocity": 114, "channel": 0}, {"type": "note_on", "time": 23, "note": 48, "velocity": 111, "channel": 0}, {"type": "note_off", "time": 59, "note": 48, "velocity": 111, "channel": 0}, {"type": "end_of_track", "time": 0}]]}