{"ticks_per_beat": 192, "tracks": [[{"type": "track_name", "name": "Melody", "time": 0}, {"type": "set_tempo", "tempo": 413793, "time": 0}, {"type": "key_signature", "key": "F", "time": 0}, {"type": "time_signature", "numerator": 4, "denominator": 4, "clocks_per_click": 24, "notated_32nd_notes_per_beat": 8, "time": 0}, {"type": "note_on", "time": 1762, "note": 53, "velocity": 96, "channel": 0}, {"type": "note_off", "time": 68, "note": 53, "velocity": 96, "channel": 0}, {"type": "note_on", "time": 16, "note": 58, "velocity": 116, "channel": 0}, {"type": "note_off", "time": 113, "note": 58, "velocity": 116, "channel": 0}, {"type": "note_on", "time": 68, "note": 59, "velocity": 106, "channel": 0}, {"type": "note_off", "time": 202, "note": 59, "velocity": 106, "channel": 0}, {"type": "note_on", "time": 8, "note": 60, "velocity": 115, "channel": 0}, {"type": "note_off", "time": 84, "note": 60, "velocity": 115, "channel": 0}, {"type": "note_on", "time": 36, "note": 58, "velocity": 121, "channel": 0}, {"type": "note_off", "time": 68, "note": 58, "velocity": 121, "channel": 0}, {"type": "note_on", "time": 101, "note": 57, "velocity": 111, "channel": 0}, {"type": "note_off", "time": 123, "note": 57, "velocity": 111, "channel": 0}, {"type": "note_on", "time": 78, "note": 58, "velocity": 115, "channel": 0}, {"type": "note_off", "time": 61, "note": 58, "velocity": 115, "channel": 0}, {"type": "note_on", "time": 16, "note": 60, "velocity": 112, "channel": 0}, {"type": "note_off", "time": 67, "note": 60, "velocity": 112, "channel": 0}, {"type": "note_on", "time": 53, "note": 63, "velocity": 111, "channel": 0}, {"type": "note_off", "time": 80, "note": 63, "velocity": 111, "channel": 0}, {"type": "note_on", "time": 0, "note": 60, "velocity": 114, "channel": 0}, {"type": "note_off", "time": 61, "note": 60, "velocity": 114, "channel": 0}, {"type": "note_on", "time": 48, "note": 58, "velocity": 113, "channel": 0}, {"type": "note_off", "time": 48, "note": 58, "velocity": 113, "channel": 0}, {"type": "note_on", "time": 10, "note": 55, "velocity": 109, "channel": 0}, {"type": "note_off", "time": 75, "note": 55, "velocity": 109, "channel": 0}, {"type": "note_on", "time": 123, "note": 58, "velocity": 115, "channel": 0}, {"type": "note_off", "time": 96, "note": 58, "velocity": 115, "channel": 0}, {"type": "note_on", "time": 110, "note": 59, "velocity": 120, "channel": 0}, {"type": "note_off", "time": 86, "note": 59, "velocity": 120, "channel": 0}, {"type": "note_on", "time": 45, "note": 60, "velocity": 110, "channel": 0}, {"type": "note_off", "time": 196, "note": 60, "velocity": 110, "channel": 0}, {"type": "note_on", "time": 37, "note": 58, "velocity": 114, "channel": 0}, {"type": "note_off", "time": 88, "note": 58, "velocity": 114, "channel": 0}, {"type": "note_on", "time": 43, "note": 57, "velocity": 116, "channel": 0}, {"type": "note_off", "time": 83, "note": 57, "velocity": 116, "channel": 0}, {"type": "note_on", "time": 96, "note": 58, "velocity": 111, "channel": 0}, {"type": "note_off", "time": 59, "note": 58, "velocity": 111, "channel": 0}, {"type": "note_on", "time": 26, "note": 60, "velocity": 102, "channel": 0}, {"type": "note_off", "time": 102, "note": 60, "velocity": 102, "channel": 0}, {"type": "note_on", "time": 24, "note": 63, "velocity": 87, "channel": 0}, {"type": "note_off", "time": 78, "note": 63, "velocity": 87, "channel": 0}, {"type": "note_on", "time": 45, "note": 60, "velocity": 92, "channel": 0}, {"type": "note_off", "time": 115, "note": 60, "velocity": 92, "channel": 0}, {"type": "note_on", "time": 8, "note": 58, "velocity": 98, "channel": 0}, {"type": "note_off", "time": 80, "note": 58, "velocity": 98, "channel": 0}, {"type": "note_on", "time": 99, "note": 65, "velocity": 91, "channel": 0}, {"type": "note_off", "time": 53, "note": 65, "velocity": 91, "channel": 0}, {"type": "note_on", "time": 10, "note": 67, "velocity": 113, "channel": 0}, {"type": "note_off", "time": 554, "note": 67, "velocity": 113, "channel": 0}, {"type": "note_on", "time": 175, "note": 58, "velocity": 116, "channel": 0}, {"type": "note_off", "time": 99, "note": 58, "velocity": 116, "channel": 0}, {"type": "note_on", "time": 32, "note": 58, "velocity": 120, "channel": 0}, {"type": "note_off", "time": 113, "note": 58, "velocity": 120, "channel": 0}, {"type": "note_on", "time": 70, "note": 60, "velocity": 110, "channel": 0}, {"type": "note_off", "time": 110, "note": 60, "velocity": 110, "channel": 0}, {"type": "note_on", "time": 59, "note": 58, "velocity": 124, "channel": 0}, {"type": "note_off", "time": 94, "note": 58, "velocity": 124, "channel": 0}, {"type": "note_on", "time": 84, "note": 55, "velocity": 118, "channel": 0}, {"type": "note_off", "time": 86, "note": 55, "velocity": 118, "channel": 0}, {"type": "note_on", "time": 2, "note": 57, "velocity": 101, "channel": 0}, {"type": "note_off", "time": 554, "note": 57, "velocity": 101, "channel": 0}, {"type": "note_on", "time": 193, "note": 60, "velocity": 105, "channel": 0}, {"type": "note_off", "time": 51, "note": 60, "velocity": 105, "channel": 0}, {"type": "note_on", "time": 10, "note": 61, "velocity": 120, "channel": 0}, {"type": "note_off", "time": 70, "note": 61, "velocity": 120, "channel": 0}, {"type": "note_on", "time": 0, "note": 65, "velocity": 113, "channel": 0}, {"type": "note_off", "time": 99, "note": 65, "velocity": 113, "channel": 0}, {"type": "note_on", "time": 10, "note": 62, "velocity": 127, "channel": 0}, {"type": "note_off", "time": 64, "note": 62, "velocity": 127, "channel": 0}, {"type": "note_on", "time": 18, "note": 60, "velocity": 112, "channel": 0}, {"type": "note_off", "time": 102, "note": 60, "velocity": 112, "channel": 0}, {"type": "note_on", "time": 18, "note": 58, "velocity": 103, "channel": 0}, {"type": "note_off", "time": 177, "note": 58, "velocity": 103, "channel": 0}, {"type": "note_on", "time": 94, "note": 55, "velocity": 109, "channel": 0}, {"type": "note_off", "time": 59, "note": 55, "velocity": 109, "channel": 0}, {"type": "note_on", "time": 21, "note": 58, "velocity": 121, "channel": 0}, {"type": "note_off", "time": 99, "note": 58, "velocity": 121, "channel": 0}, {"type": "note_on", "time": 75, "note": 59, "velocity": 118, "channel": 0}, {"type": "note_off", "time": 102, "note": 59, "velocity": 118, "channel": 0}, {"type": "note_on", "time": 105, "note": 60, "velocity": 110, "channel": 0}, {"type": "note_off", "time": 75, "note": 60, "velocity": 110, "channel": 0}, {"type": "note_on", "time": 56, "note": 58, "velocity": 120, "channel": 0}, {"type": "note_off", "time": 91, "note": 58, "velocity": 120, "channel": 0}, {"type": "note_on", "time": 86, "note": 57, "velocity": 112, "channel": 0}, {"type": "note_off", "time": 121, "note": 57, "velocity": 112, "channel": 0}, {"type": "note_on", "time": 70, "note": 58, "velocity": 109, "channel": 0}, {"type": "note_off", "time": 72, "note": 58, "velocity": 109, "channel": 0}, {"type": "note_on", "time": 5, "note": 60, "velocity": 103, "channel": 0}, {"type": "note_off", "time": 96, "note": 60, "velocity": 103, "channel": 0}, {"type": "note_on", "time": 32, "note": 63, "velocity": 109, "channel": 0}, {"type": "note_off", "time": 64, "note": 63, "velocity": 109, "channel": 0}, {"type": "note_on", "time": 24, "note": 60, "velocity": 117, "channel": 0}, {"type": "note_off", "time": 64, "note": 60, "velocity": 117, "channel": 0}, {"type": "note_on", "time": 18, "note": 59, "velocity": 100, "channel": 0}, {"type": "note_off", "time": 75, "note": 59, "velocity": 100, "channel": 0}, {"type": "note_on", "time": 13, "note": 56, "velocity": 109, "channel": 0}, {"type": "note_off", "time": 70, "note": 56, "velocity": 109, "channel": 0}, {"type": "note_on", "time": 108, "note": 63, "velocity": 113, "channel": 0}, {"type": "note_off", "time": 105, "note": 63, "velocity": 113, "channel": 0}, {"type": "note_on", "time": 51, "note": 63, "velocity": 117, "channel": 0}, {"type": "note_off", "time": 83, "note": 63, "velocity": 117, "channel": 0}, {"type": "note_on", "time": 86, "note": 63, "velocity": 119, "channel": 0}, {"type": "note_off", "time": 105, "note": 63, "velocity": 119, "channel": 0}, {"type": "note_on", "time": 61, "note": 59, "velocity": 99, "channel": 0}, {"type": "note_off", "time": 64, "note": 59, "velocity": 99, "channel": 0}, {"type": "note_on", "time": 16, "note": 63, "velocity": 113, "channel": 0}, {"type": "note_off", "time": 105, "note": 63, "velocity": 113, "channel": 0}, {"type": "note_on", "time": 16, "note": 62, "velocity": 100, "channel": 0}, {"type": "note_off", "time": 72, "note": 62, "velocity": 100, "channel": 0}, {"type": "note_on", "time": 8, "note": 60, "velocity": 90, "channel": 0}, {"type": "note_off", "time": 360, "note": 60, "velocity": 90, "channel": 0}, {"type": "note_on", "time": 161, "note": 63, "velocity": 113, "channel": 0}, {"type": "note_off", "time": 86, "note": 63, "velocity": 113, "channel": 0}, {"type": "note_on", "time": 83, "note": 60, "velocity": 93, "channel": 0}, {"type": "note_off", "time": 80, "note": 60, "velocity": 93, "channel": 0}, {"type": "note_on", "time": 0, "note": 63, "velocity": 113, "channel": 0}, {"type": "note_off", "time": 105, "note": 63, "velocity": 113, "channel": 0}, {"type": "note_on", "time": 94, "note": 63, "velocity": 112, "channel": 0}, {"type": "note_off", "time": 91, "note": 63, "velocity": 112, "channel": 0}, {"type": "note_on", "time": 10, "note": 59, "velocity": 111, "channel": 0}, {"type": "note_off", "time": 75, "note": 59, "velocity": 111, "channel": 0}, {"type": "note_on", "time": 21, "note": 58, "velocity": 96, "channel": 0}, {"type": "note_off", "time": 72, "note": 58, "velocity": 96, "channel": 0}, {"type": "note_on", "time": 21, "note": 55, "velocity": 117, "channel": 0}, {"type": "note_off", "time": 123, "note": 55, "velocity": 117, "channel": 0}, {"type": "note_on", "time": 129, "note": 55, "velocity": 108, "channel": 0}, {"type": "note_off", "time": 51, "note": 55, "velocity": 108, "channel": 0}, {"type": "note_on", "time": 10, "note": 56, "velocity": 114, "channel": 0}, {"type": "note_off", "time": 75, "note": 56, "velocity": 114, "channel": 0}, {"type": "note_on", "time": 10, "note": 57, "velocity": 122, "channel": 0}, {"type": "note_off", "time": 78, "note": 57, "velocity": 122, "channel": 0}, {"type": "note_on", "time": 10, "note": 58, "velocity": 114, "channel": 0}, {"type": "note_off", "time": 75, "note": 58, "velocity": 114, "channel": 0}, {"type": "note_on", "time": 37, "note": 58, "velocity": 122, "channel": 0}, {"type": "note_off", "time": 88, "note": 58, "velocity": 122, "channel": 0}, {"type": "note_on", "time": 75, "note": 46, "velocity": 108, "channel": 0}, {"type": "note_off", "time": 218, "note": 46, "velocity": 108, "channel": 0}, {"type": "note_on", "time": 185, "note": 54, "velocity": 111, "channel": 0}, {"type": "note_off", "time": 107, "note": 54, "velocity": 111, "channel": 0}, {"type": "note_on", "time": 16, "note": 55, "velocity": 113, "channel": 0}, {"type": "note_off", "time": 78, "note": 55, "velocity": 113, "channel": 0}, {"type": "note_on", "time": 8, "note": 55, "velocity": 121, "channel": 0}, {"type": "note_off", "time": 45, "note": 55, "velocity": 121, "channel": 0}, {"type": "note_on", "time": 24, "note": 56, "velocity": 115, "channel": 0}, {"type": "note_off", "time": 64, "note": 56, "velocity": 115, "channel": 0}, {"type": "note_on", "time": 13, "note": 56, "velocity": 118, "channel": 0}, {"type": "note_off", "time": 53, "note": 56, "velocity": 118, "channel": 0}, {"type": "note_on", "time": 37, "note": 57, "velocity": 124, "channel": 0}, {"type": "note_off", "time": 64, "note": 57, "velocity": 124, "channel": 0}, {"type": "note_on", "time": 13, "note": 57, "velocity": 116, "channel": 0}, {"type": "note_off", "time": 75, "note": 57, "velocity": 116, "channel": 0}, {"type": "note_on", "time": 21, "note": 58, "velocity": 117, "channel": 0}, {"type": "note_off", "time": 86, "note": 58, "velocity": 117, "channel": 0}, {"type": "note_on", "time": 43, "note": 55, "velocity": 113, "channel": 0}, {"type": "note_off", "time": 80, "note": 55, "velocity": 113, "channel": 0}, {"type": "note_on", "time": 88, "note": 53, "velocity": 95, "channel": 0}, {"type": "note_off", "time": 110, "note": 53, "velocity": 95, "channel": 0}, {"type": "note_on", "time": 24, "note": 50, "velocity": 87, "channel": 0}, {"type": "note_off", "time": 72, "note": 50, "velocity": 87, "channel": 0}, {"type": "note_on", "time": 99, "note": 46, "velocity": 97, "channel": 0}, {"type": "note_off", "time": 91, "note": 46, "velocity": 97, "channel": 0}, {"type": "end_of_track", "time": 0}]]}