{"ticks_per_beat": 192, "tracks": [[{"type": "track_name", "name": "Melody", "time": 0}, {"type": "set_tempo", "tempo": 283018, "time": 0}, {"type": "key_signature", "key": "C", "time": 0}, {"type": "time_signature", "numerator": 4, "denominator": 4, "clocks_per_click": 24, "notated_32nd_notes_per_beat": 8, "time": 0}, {"type": "note_on", "time": 1727, "note": 52, "velocity": 108, "channel": 0}, {"type": "note_off", "time": 166, "note": 52, "velocity": 108, "channel": 0}, {"type": "note_on", "time": 11, "note": 53, "velocity": 120, "channel": 0}, {"type": "note_off", "time": 149, "note": 53, "velocity": 120, "channel": 0}, {"type": "note_on", "time": 33, "note": 54, "velocity": 113, "channel": 0}, {"type": "note_off", "time": 188, "note": 54, "velocity": 113, "channel": 0}, {"type": "note_on", "time": 5, "note": 55, "velocity": 118, "channel": 0}, {"type": "note_off", "time": 132, "note": 55, "velocity": 118, "channel": 0}, {"type": "note_on", "time": 17, "note": 65, "velocity": 121, "channel": 0}, {"type": "note_off", "time": 426, "note": 65, "velocity": 121, "channel": 0}, {"type": "note_on", "time": 29, "note": 64, "velocity": 125, "channel": 0}, {"type": "note_off", "time": 173, "note": 64, "velocity": 125, "channel": 0}, {"type": "note_on", "time": 92, "note": 57, "velocity": 105, "channel": 0}, {"type": "note_off", "time": 1125, "note": 57, "velocity": 105, "channel": 0}, {"type": "note_on", "time": 524, "note": 53, "velocity": 107, "channel": 0}, {"type": "note_off", "time": 95, "note": 53, "velocity": 107, "channel": 0}, {"type": "note_on", "time": 79, "note": 55, "velocity": 108, "channel": 0}, {"type": "note_off", "time": 171, "note": 55, "velocity": 108, "channel": 0}, {"type": "note_on", "time": 15, "note": 56, "velocity": 115, "channel": 0}, {"type": "note_off", "time": 111, "note": 56, "velocity": 115, "channel": 0}, {"type": "note_on", "time": 11, "note": 57, "velocity": 112, "channel": 0}, {"type": "note_off", "time": 110, "note": 57, "velocity": 112, "channel": 0}, {"type": "note_on", "time": 84, "note": 60, "velocity": 111, "channel": 0}, {"type": "note_off", "time": 94, "note": 60, "velocity": 111, "channel": 0}, {"type": "note_on", "time": 66, "note": 64, "velocity": 123, "channel": 0}, {"type": "note_off", "time": 149, "note": 64, "velocity": 123, "channel": 0}, {"type": "note_on", "time": 82, "note": 62, "velocity": 115, "channel": 0}, {"type": "note_off", "time": 244, "note": 62, "velocity": 115, "channel": 0}, {"type": "note_on", "time": 37, "note": 59, "velocity": 109, "channel": 0}, {"type": "note_off", "time": 98, "note": 59, "velocity": 109, "channel": 0}, {"type": "note_on", "time": 19, "note": 55, "velocity": 111, "channel": 0}, {"type": "note_off", "time": 982, "note": 55, "velocity": 111, "channel": 0}, {"type": "note_on", "time": 793, "note": 52, "velocity": 115, "channel": 0}, {"type": "note_off", "time": 171, "note": 52, "velocity": 115, "channel": 0}, {"type": "note_on", "time": 7, "note": 53, "velocity": 110, "channel": 0}, {"type": "note_off", "time": 110, "note": 53, "velocity": 110, "channel": 0}, {"type": "note_on", "time": 78, "note": 55, "velocity": 118, "channel": 0}, {"type": "note_off", "time": 71, "note": 55, "velocity": 118, "channel": 0}, {"type": "note_on", "time": 11, "note": 55, "velocity": 114, "channel": 0}, {"type": "note_off", "time": 44, "note": 55, "velocity": 114, "channel": 0}, {"type": "note_on", "time": 12, "note": 55, "velocity": 106, "channel": 0}, {"type": "note_off", "time": 38, "note": 55, "velocity": 106, "channel": 0}, {"type": "note_on", "time": 18, "note": 55, "velocity": 115, "channel": 0}, {"type": "note_off", "time": 51, "note": 55, "velocity": 115, "channel": 0}, {"type": "note_on", "time": 9, "note": 55, "velocity": 105, "channel": 0}, {"type": "note_off", "time": 130, "note": 55, "velocity": 105, "channel": 0}, {"type": "note_on", "time": 99, "note": 57, "velocity": 117, "channel": 0}, {"type": "note_off", "time": 299, "note": 57, "velocity": 117, "channel": 0}, {"type": "note_on", "time": 242, "note": 59, "velocity": 104, "channel": 0}, {"type": "note_off", "time": 169, "note": 59, "velocity": 104, "channel": 0}, {"type": "note_on", "time": 11, "note": 60, "velocity": 115, "channel": 0}, {"type": "note_off", "time": 142, "note": 60, "velocity": 115, "channel": 0}, {"type": "note_on", "time": 10, "note": 61, "velocity": 120, "channel": 0}, {"type": "note_off", "time": 106, "note": 61, "velocity": 120, "channel": 0}, {"type": "note_on", "time": 21, "note": 62, "velocity": 121, "channel": 0}, {"type": "note_off", "time": 101, "note": 62, "velocity": 121, "channel": 0}, {"type": "note_on", "time": 35, "note": 66, "velocity": 116, "channel": 0}, {"type": "note_off", "time": 332, "note": 66, "velocity": 116, "channel": 0}, {"type": "note_on", "time": 11, "note": 64, "velocity": 120, "channel": 0}, {"type": "note_off", "time": 310, "note": 64, "velocity": 120, "channel": 0}, {"type": "note_on", "time": 253, "note": 60, "velocity": 113, "channel": 0}, {"type": "note_off", "time": 102, "note": 60, "velocity": 113, "channel": 0}, {"type": "note_on", "time": 19, "note": 64, "velocity": 122, "channel": 0}, {"type": "note_off", "time": 110, "note": 64, "velocity": 122, "channel": 0}, {"type": "note_on", "time": 72, "note": 60, "velocity": 116, "channel": 0}, {"type": "note_off", "time": 152, "note": 60, "velocity": 116, "channel": 0}, {"type": "note_on", "time": 69, "note": 52, "velocity": 112, "channel": 0}, {"type": "note_off", "time": 114, "note": 52, "velocity": 112, "channel": 0}, {"type": "note_on", "time": 104, "note": 59, "velocity": 112, "channel": 0}, {"type": "note_off", "time": 221, "note": 59, "velocity": 112, "channel": 0}, {"type": "note_on", "time": 93, "note": 57, "velocity": 116, "channel": 0}, {"type": "note_off", "time": 334, "note": 57, "velocity": 116, "channel": 0}, {"type": "note_on", "time": 328, "note": 64, "velocity": 123, "channel": 0}, {"type": "note_off", "time": 331, "note": 64, "velocity": 123, "channel": 0}, {"type": "note_on", "time": 12, "note": 63, "velocity": 120, "channel": 0}, {"type": "note_off", "time": 106, "note": 63, "velocity": 120, "channel": 0}, {"type": "note_on", "time": 4, "note": 62, "velocity": 114, "channel": 0}, {"type": "note_off", "time": 634, "note": 62, "velocity": 114, "channel": 0}, {"type": "note_on", "time": 264, "note": 52, "velocity": 105, "channel": 0}, {"type": "note_off", "time": 170, "note": 52, "velocity": 105, "channel": 0}, {"type": "note_on", "time": 17, "note": 53, "velocity": 117, "channel": 0}, {"type": "note_off", "time": 164, "note": 53, "velocity": 117, "channel": 0}, {"type": "note_on", "time": 12, "note": 54, "velocity": 125, "channel": 0}, {"type": "note_off", "time": 121, "note": 54, "velocity": 125, "channel": 0}, {"type": "note_on", "time": 9, "note": 55, "velocity": 111, "channel": 0}, {"type": "note_off", "time": 127, "note": 55, "velocity": 111, "channel": 0}, {"type": "note_on", "time": 72, "note": 65, "velocity": 119, "channel": 0}, {"type": "note_off", "time": 443, "note": 65, "velocity": 119, "channel": 0}, {"type": "note_on", "time": 31, "note": 64, "velocity": 125, "channel": 0}, {"type": "note_off", "time": 171, "note": 64, "velocity": 125, "channel": 0}, {"type": "note_on", "time": 110, "note": 56, "velocity": 115, "channel": 0}, {"type": "note_off", "time": 93, "note": 56, "velocity": 115, "channel": 0}, {"type": "note_on", "time": 12, "note": 57, "velocity": 108, "channel": 0}, {"type": "note_off", "time": 909, "note": 57, "velocity": 108, "channel": 0}, {"type": "note_on", "time": 612, "note": 53, "velocity": 101, "channel": 0}, {"type": "note_off", "time": 163, "note": 53, "velocity": 101, "channel": 0}, {"type": "note_on", "time": 19, "note": 54, "velocity": 109, "channel": 0}, {"type": "note_off", "time": 173, "note": 54, "velocity": 109, "channel": 0}, {"type": "note_on", "time": 13, "note": 55, "velocity": 112, "channel": 0}, {"type": "note_off", "time": 86, "note": 55, "velocity": 112, "channel": 0}, {"type": "note_on", "time": 11, "note": 56, "velocity": 114, "channel": 0}, {"type": "note_off", "time": 153, "note": 56, "velocity": 114, "channel": 0}, {"type": "note_on", "time": 57, "note": 60, "velocity": 107, "channel": 0}, {"type": "note_off", "time": 77, "note": 60, "velocity": 107, "channel": 0}, {"type": "note_on", "time": 71, "note": 64, "velocity": 122, "channel": 0}, {"type": "note_off", "time": 195, "note": 64, "velocity": 122, "channel": 0}, {"type": "note_on", "time": 6, "note": 62, "velocity": 116, "channel": 0}, {"type": "note_off", "time": 197, "note": 62, "velocity": 116, "channel": 0}, {"type": "note_on", "time": 85, "note": 60, "velocity": 115, "channel": 0}, {"type": "note_off", "time": 74, "note": 60, "velocity": 115, "channel": 0}, {"type": "note_on", "time": 29, "note": 60, "velocity": 99, "channel": 0}, {"type": "note_off", "time": 825, "note": 60, "velocity": 99, "channel": 0}, {"type": "note_on", "time": 818, "note": 62, "velocity": 112, "channel": 0}, {"type": "note_off", "time": 51, "note": 62, "velocity": 112, "channel": 0}, {"type": "note_on", "time": 133, "note": 60, "velocity": 102, "channel": 0}, {"type": "note_off", "time": 59, "note": 60, "velocity": 102, "channel": 0}, {"type": "note_on", "time": 125, "note": 64, "velocity": 112, "channel": 0}, {"type": "note_off", "time": 86, "note": 64, "velocity": 112, "channel": 0}, {"type": "note_on", "time": 115, "note": 60, "velocity": 109, "channel": 0}, {"type": "note_off", "time": 59, "note": 60, "velocity": 109, "channel": 0}, {"type": "note_on", "time": 123, "note": 62, "velocity": 116, "channel": 0}, {"type": "note_off", "time": 111, "note": 62, "velocity": 116, "channel": 0}, {"type": "note_on", "time": 10, "note": 60, "velocity": 105, "channel": 0}, {"type": "note_off", "time": 70, "note": 60, "velocity": 105, "channel": 0}, {"type": "note_on", "time": 9, "note": 64, "velocity": 108, "channel": 0}, {"type": "note_off", "time": 78, "note": 64, "velocity": 108, "channel": 0}, {"type": "note_on", "time": 28, "note": 60, "velocity": 105, "channel": 0}, {"type": "note_off", "time": 255, "note": 60, "velocity": 105, "channel": 0}, {"type": "note_on", "time": 398, "note": 59, "velocity": 115, "channel": 0}, {"type": "note_off", "time": 105, "note": 59, "velocity": 115, "channel": 0}, {"type": "note_on", "time": 80, "note": 57, "velocity": 121, "channel": 0}, {"type": "note_off", "time": 118, "note": 57, "velocity": 121, "channel": 0}, {"type": "note_on", "time": 21, "note": 55, "velocity": 113, "channel": 0}, {"type": "note_off", "time": 181, "note": 55, "velocity": 113, "channel": 0}, {"type": "note_on", "time": 66, "note": 59, "velocity": 104, "channel": 0}, {"type": "note_off", "time": 145, "note": 59, "velocity": 104, "channel": 0}, {"type": "note_on", "time": 43, "note": 57, "velocity": 112, "channel": 0}, {"type": "note_off", "time": 129, "note": 57, "velocity": 112, "channel": 0}, {"type": "note_on", "time": 23, "note": 55, "velocity": 109, "channel": 0}, {"type": "note_off", "time": 196, "note": 55, "velocity": 109, "channel": 0}, {"type": "note_on", "time": 255, "note": 52, "velocity": 109, "channel": 0}, {"type": "note_off", "time": 141, "note": 52, "velocity": 109, "channel": 0}, {"type": "note_on", "time": 23, "note": 53, "velocity": 123, "channel": 0}, {"type": "note_off", "time": 157, "note": 53, "velocity": 123, "channel": 0}, {"type": "note_on", "time": 29, "note": 54, "velocity": 120, "channel": 0}, {"type": "note_off", "time": 132, "note": 54, "velocity": 120, "channel": 0}, {"type": "note_on", "time": 7, "note": 55, "velocity": 113, "channel": 0}, {"type": "note_off", "time": 121, "note": 55, "velocity": 113, "channel": 0}, {"type": "note_on", "time": 48, "note": 65, "velocity": 119, "channel": 0}, {"type": "note_off", "time": 433, "note": 65, "velocity": 119, "channel": 0}, {"type": "note_on", "time": 44, "note": 64, "velocity": 125, "channel": 0}, {"type": "note_off", "time": 279, "note": 64, "velocity": 125, "channel": 0}, {"type": "note_on", "time": 19, "note": 60, "velocity": 96, "channel": 0}, {"type": "note_off", "time": 878, "note": 60, "velocity": 96, "channel": 0}, {"type": "note_on", "time": 77, "note": 64, "velocity": 127, "channel": 0}, {"type": "note_off", "time": 66, "note": 64, "velocity": 127, "channel": 0}, {"type": "note_on", "time": 19, "note": 63, "velocity": 118, "channel": 0}, {"type": "note_off", "time": 94, "note": 63, "velocity": 118, "channel": 0}, {"type": "note_on", "time": 6, "note": 60, "velocity": 115, "channel": 0}, {"type": "note_off", "time": 53, "note": 60, "velocity": 115, "channel": 0}, {"type": "note_on", "time": 31, "note": 57, "velocity": 117, "channel": 0}, {"type": "note_off", "time": 72, "note": 57, "velocity": 117, "channel": 0}, {"type": "note_on", "time": 12, "note": 55, "velocity": 109, "channel": 0}, {"type": "note_off", "time": 99, "note": 55, "velocity": 109, "channel": 0}, {"type": "note_on", "time": 17, "note": 52, "velocity": 119, "channel": 0}, {"type": "note_off", "time": 52, "note": 52, "velocity": 119, "channel": 0}, {"type": "note_on", "time": 18, "note": 50, "velocity": 100, "channel": 0}, {"type": "note_off", "time": 80, "note": 50, "velocity": 100, "channel": 0}, {"type": "note_on", "time": 23, "note": 48, "velocity": 112, "channel": 0}, {"type": "note_off", "time": 196, "note": 48, "velocity": 112, "channel": 0}, {"type": "end_of_track", "time": 0}]]}