{"ticks_per_beat": 192, "tracks": [[{"type": "track_name", "name": "Melody", "time": 0}, {"type": "set_tempo", "tempo": 226415, "time": 0}, {"type": "key_signature", "key": "F", "time": 0}, {"type": "time_signature", "numerator": 4, "denominator": 4, "clocks_per_click": 24, "notated_32nd_notes_per_beat": 8, "time": 0}, {"type": "note_on", "time": 2583, "note": 61, "velocity": 95, "channel": 0}, {"type": "note_off", "time": 103, "note": 61, "velocity": 95, "channel": 0}, {"type": "note_on", "time": 3, "note": 62, "velocity": 95, "channel": 0}, {"type": "note_off", "time": 91, "note": 62, "velocity": 95, "channel": 0}, {"type": "note_on", "time": 3, "note": 63, "velocity": 97, "channel": 0}, {"type": "note_off", "time": 115, "note": 63, "velocity": 97, "channel": 0}, {"type": "note_on", "time": 7, "note": 61, "velocity": 87, "channel": 0}, {"type": "note_off", "time": 73, "note": 61, "velocity": 87, "channel": 0}, {"type": "note_on", "time": 7, "note": 62, "velocity": 91, "channel": 0}, {"type": "note_off", "time": 91, "note": 62, "velocity": 91, "channel": 0}, {"type": "note_on", "time": 9, "note": 63, "velocity": 80, "channel": 0}, {"type": "note_off", "time": 83, "note": 63, "velocity": 80, "channel": 0}, {"type": "note_on", "time": 7, "note": 64, "velocity": 102, "channel": 0}, {"type": "note_off", "time": 73, "note": 64, "velocity": 102, "channel": 0}, {"type": "note_on", "time": 19, "note": 65, "velocity": 110, "channel": 0}, {"type": "note_off", "time": 113, "note": 65, "velocity": 110, "channel": 0}, {"type": "note_on", "time": 7, "note": 66, "velocity": 101, "channel": 0}, {"type": "note_off", "time": 86, "note": 66, "velocity": 101, "channel": 0}, {"type": "note_on", "time": 2, "note": 67, "velocity": 99, "channel": 0}, {"type": "note_off", "time": 71, "note": 67, "velocity": 99, "channel": 0}, {"type": "note_on", "time": 17, "note": 69, "velocity": 101, "channel": 0}, {"type": "note_off", "time": 100, "note": 69, "velocity": 101, "channel": 0}, {"type": "note_on", "time": 9, "note": 67, "velocity": 98, "channel": 0}, {"type": "note_off", "time": 93, "note": 67, "velocity": 98, "channel": 0}, {"type": "note_on", "time": 9, "note": 65, "velocity": 86, "channel": 0}, {"type": "note_off", "time": 91, "note": 65, "velocity": 86, "channel": 0}, {"type": "note_on", "time": 0, "note": 67, "velocity": 82, "channel": 0}, {"type": "note_off", "time": 88, "note": 67, "velocity": 82, "channel": 0}, {"type": "note_on", "time": 4, "note": 69, "velocity": 98, "channel": 0}, {"type": "note_off", "time": 124, "note": 69, "velocity": 98, "channel": 0}, {"type": "note_on", "time": 0, "note": 70, "velocity": 77, "channel": 0}, {"type": "note_off", "time": 59, "note": 70, "velocity": 77, "channel": 0}, {"type": "note_on", "time": 11, "note": 72, "velocity": 103, "channel": 0}, {"type": "note_off", "time": 135, "note": 72, "velocity": 103, "channel": 0}, {"type": "note_on", "time": 12, "note": 71, "velocity": 90, "channel": 0}, {"type": "note_off", "time": 83, "note": 71, "velocity": 90, "channel": 0}, {"type": "note_on", "time": 2, "note": 70, "velocity": 88, "channel": 0}, {"type": "note_off", "time": 83, "note": 70, "velocity": 88, "channel": 0}, {"type": "note_on", "time": 8, "note": 69, "velocity": 94, "channel": 0}, {"type": "note_off", "time": 77, "note": 69, "velocity": 94, "channel": 0}, {"type": "note_on", "time": 7, "note": 67, "velocity": 90, "channel": 0}, {"type": "note_off", "time": 86, "note": 67, "velocity": 90, "channel": 0}, {"type": "note_on", "time": 9, "note": 65, "velocity": 94, "channel": 0}, {"type": "note_off", "time": 76, "note": 65, "velocity": 94, "channel": 0}, {"type": "note_on", "time": 9, "note": 63, "velocity": 96, "channel": 0}, {"type": "note_off", "time": 76, "note": 63, "velocity": 96, "channel": 0}, {"type": "note_on", "time": 12, "note": 61, "velocity": 100, "channel": 0}, {"type": "note_off", "time": 83, "note": 61, "velocity": 100, "channel": 0}, {"type": "note_on", "time": 9, "note": 58, "velocity": 85, "channel": 0}, {"type": "note_off", "time": 105, "note": 58, "velocity": 85, "channel": 0}, {"type": "note_on", "time": 0, "note": 53, "velocity": 81, "channel": 0}, {"type": "note_off", "time": 73, "note": 53, "velocity": 81, "channel": 0}, {"type": "note_on", "time": 19, "note": 57, "velocity": 84, "channel": 0}, {"type": "note_off", "time": 339, "note": 57, "velocity": 84, "channel": 0}, {"type": "note_on", "time": 814, "note": 62, "velocity": 102, "channel": 0}, {"type": "note_off", "time": 73, "note": 62, "velocity": 102, "channel": 0}, {"type": "note_on", "time": 9, "note": 61, "velocity": 90, "channel": 0}, {"type": "note_off", "time": 93, "note": 61, "velocity": 90, "channel": 0}, {"type": "note_on", "time": 4, "note": 62, "velocity": 92, "channel": 0}, {"type": "note_off", "time": 100, "note": 62, "velocity": 92, "channel": 0}, {"type": "note_on", "time": 7, "note": 63, "velocity": 86, "channel": 0}, {"type": "note_off", "time": 51, "note": 63, "velocity": 86, "channel": 0}, {"type": "note_on", "time": 2, "note": 65, "velocity": 112, "channel": 0}, {"type": "note_off", "time": 100, "note": 65, "velocity": 112, "channel": 0}, {"type": "note_on", "time": 785, "note": 62, "velocity": 95, "channel": 0}, {"type": "note_off", "time": 71, "note": 62, "velocity": 95, "channel": 0}, {"type": "note_on", "time": 22, "note": 64, "velocity": 105, "channel": 0}, {"type": "note_off", "time": 93, "note": 64, "velocity": 105, "channel": 0}, {"type": "note_on", "time": 2, "note": 67, "velocity": 102, "channel": 0}, {"type": "note_off", "time": 68, "note": 67, "velocity": 102, "channel": 0}, {"type": "note_on", "time": 17, "note": 72, "velocity": 119, "channel": 0}, {"type": "note_off", "time": 142, "note": 72, "velocity": 119, "channel": 0}, {"type": "note_on", "time": 0, "note": 67, "velocity": 103, "channel": 0}, {"type": "note_off", "time": 59, "note": 67, "velocity": 103, "channel": 0}, {"type": "note_on", "time": 2, "note": 69, "velocity": 80, "channel": 0}, {"type": "note_off", "time": 86, "note": 69, "velocity": 80, "channel": 0}, {"type": "note_on", "time": 7, "note": 72, "velocity": 101, "channel": 0}, {"type": "note_off", "time": 76, "note": 72, "velocity": 101, "channel": 0}, {"type": "note_on", "time": 2, "note": 77, "velocity": 118, "channel": 0}, {"type": "note_off", "time": 110, "note": 77, "velocity": 118, "channel": 0}, {"type": "note_on", "time": 4, "note": 76, "velocity": 121, "channel": 0}, {"type": "note_off", "time": 83, "note": 76, "velocity": 121, "channel": 0}, {"type": "note_on", "time": 7, "note": 75, "velocity": 109, "channel": 0}, {"type": "note_off", "time": 95, "note": 75, "velocity": 109, "channel": 0}, {"type": "note_on", "time": 12, "note": 73, "velocity": 108, "channel": 0}, {"type": "note_off", "time": 93, "note": 73, "velocity": 108, "channel": 0}, {"type": "note_on", "time": 7, "note": 72, "velocity": 104, "channel": 0}, {"type": "note_off", "time": 100, "note": 72, "velocity": 104, "channel": 0}, {"type": "note_on", "time": 2, "note": 70, "velocity": 100, "channel": 0}, {"type": "note_on", "time": 86, "note": 69, "velocity": 89, "channel": 0}, {"type": "note_off", "time": 0, "note": 70, "velocity": 100, "channel": 0}, {"type": "note_off", "time": 91, "note": 69, "velocity": 89, "channel": 0}, {"type": "note_on", "time": 19, "note": 70, "velocity": 84, "channel": 0}, {"type": "note_off", "time": 59, "note": 70, "velocity": 84, "channel": 0}, {"type": "note_on", "time": 12, "note": 72, "velocity": 118, "channel": 0}, {"type": "note_off", "time": 100, "note": 72, "velocity": 118, "channel": 0}, {"type": "note_on", "time": 22, "note": 65, "velocity": 96, "channel": 0}, {"type": "note_off", "time": 260, "note": 65, "velocity": 96, "channel": 0}, {"type": "note_on", "time": 12, "note": 69, "velocity": 105, "channel": 0}, {"type": "note_off", "time": 120, "note": 69, "velocity": 105, "channel": 0}, {"type": "note_on", "time": 4, "note": 67, "velocity": 99, "channel": 0}, {"type": "note_off", "time": 255, "note": 67, "velocity": 99, "channel": 0}, {"type": "note_on", "time": 9, "note": 70, "velocity": 94, "channel": 0}, {"type": "note_off", "time": 108, "note": 70, "velocity": 94, "channel": 0}, {"type": "note_on", "time": 10, "note": 69, "velocity": 96, "channel": 0}, {"type": "note_off", "time": 89, "note": 69, "velocity": 96, "channel": 0}, {"type": "note_on", "time": 7, "note": 67, "velocity": 96, "channel": 0}, {"type": "note_off", "time": 81, "note": 67, "velocity": 96, "channel": 0}, {"type": "note_on", "time": 9, "note": 72, "velocity": 79, "channel": 0}, {"type": "note_off", "time": 376, "note": 72, "velocity": 79, "channel": 0}, {"type": "note_on", "time": 767, "note": 73, "velocity": 97, "channel": 0}, {"type": "note_off", "time": 107, "note": 73, "velocity": 97, "channel": 0}, {"type": "note_on", "time": 6, "note": 74, "velocity": 99, "channel": 0}, {"type": "note_off", "time": 78, "note": 74, "velocity": 99, "channel": 0}, {"type": "note_on", "time": 4, "note": 76, "velocity": 127, "channel": 0}, {"type": "note_off", "time": 147, "note": 76, "velocity": 127, "channel": 0}, {"type": "note_on", "time": 17, "note": 74, "velocity": 114, "channel": 0}, {"type": "note_off", "time": 108, "note": 74, "velocity": 114, "channel": 0}, {"type": "note_on", "time": 388, "note": 65, "velocity": 100, "channel": 0}, {"type": "note_off", "time": 95, "note": 65, "velocity": 100, "channel": 0}, {"type": "note_on", "time": 13, "note": 69, "velocity": 100, "channel": 0}, {"type": "note_off", "time": 139, "note": 69, "velocity": 100, "channel": 0}, {"type": "note_on", "time": 41, "note": 72, "velocity": 115, "channel": 0}, {"type": "note_off", "time": 110, "note": 72, "velocity": 115, "channel": 0}, {"type": "note_on", "time": 9, "note": 71, "velocity": 111, "channel": 0}, {"type": "note_off", "time": 66, "note": 71, "velocity": 111, "channel": 0}, {"type": "note_on", "time": 9, "note": 70, "velocity": 95, "channel": 0}, {"type": "note_off", "time": 113, "note": 70, "velocity": 95, "channel": 0}, {"type": "note_on", "time": 2, "note": 69, "velocity": 96, "channel": 0}, {"type": "note_off", "time": 66, "note": 69, "velocity": 96, "channel": 0}, {"type": "note_on", "time": 7, "note": 70, "velocity": 87, "channel": 0}, {"type": "note_off", "time": 196, "note": 70, "velocity": 87, "channel": 0}, {"type": "note_on", "time": 42, "note": 70, "velocity": 86, "channel": 0}, {"type": "note_off", "time": 118, "note": 70, "velocity": 86, "channel": 0}, {"type": "note_on", "time": 452, "note": 62, "velocity": 92, "channel": 0}, {"type": "note_off", "time": 83, "note": 62, "velocity": 92, "channel": 0}, {"type": "note_on", "time": 7, "note": 64, "velocity": 93, "channel": 0}, {"type": "note_off", "time": 68, "note": 64, "velocity": 93, "channel": 0}, {"type": "note_on", "time": 0, "note": 67, "velocity": 106, "channel": 0}, {"type": "note_off", "time": 123, "note": 67, "velocity": 106, "channel": 0}, {"type": "note_on", "time": 63, "note": 72, "velocity": 121, "channel": 0}, {"type": "note_off", "time": 110, "note": 72, "velocity": 121, "channel": 0}, {"type": "note_on", "time": 108, "note": 75, "velocity": 110, "channel": 0}, {"type": "note_off", "time": 103, "note": 75, "velocity": 110, "channel": 0}, {"type": "note_on", "time": 2, "note": 72, "velocity": 114, "channel": 0}, {"type": "note_off", "time": 93, "note": 72, "velocity": 114, "channel": 0}, {"type": "note_on", "time": 9, "note": 73, "velocity": 104, "channel": 0}, {"type": "note_off", "time": 93, "note": 73, "velocity": 104, "channel": 0}, {"type": "note_on", "time": 7, "note": 72, "velocity": 101, "channel": 0}, {"type": "note_off", "time": 93, "note": 72, "velocity": 101, "channel": 0}, {"type": "note_on", "time": 2, "note": 70, "velocity": 97, "channel": 0}, {"type": "note_off", "time": 66, "note": 70, "velocity": 97, "channel": 0}, {"type": "note_on", "time": 9, "note": 69, "velocity": 99, "channel": 0}, {"type": "note_off", "time": 73, "note": 69, "velocity": 99, "channel": 0}, {"type": "note_on", "time": 9, "note": 67, "velocity": 96, "channel": 0}, {"type": "note_off", "time": 103, "note": 67, "velocity": 96, "channel": 0}, {"type": "note_on", "time": 9, "note": 65, "velocity": 88, "channel": 0}, {"type": "note_off", "time": 76, "note": 65, "velocity": 88, "channel": 0}, {"type": "note_on", "time": 12, "note": 64, "velocity": 96, "channel": 0}, {"type": "note_off", "time": 88, "note": 64, "velocity": 96, "channel": 0}, {"type": "note_on", "time": 12, "note": 62, "velocity": 100, "channel": 0}, {"type": "note_off", "time": 95, "note": 62, "velocity": 100, "channel": 0}, {"type": "note_on", "time": 17, "note": 60, "velocity": 88, "channel": 0}, {"type": "note_off", "time": 66, "note": 60, "velocity": 88, "channel": 0}, {"type": "note_on", "time": 14, "note": 58, "velocity": 89, "channel": 0}, {"type": "note_off", "time": 61, "note": 58, "velocity": 89, "channel": 0}, {"type": "note_on", "time": 36, "note": 57, "velocity": 89, "channel": 0}, {"type": "note_off", "time": 78, "note": 57, "velocity": 89, "channel": 0}, {"type": "note_on", "time": 9, "note": 60, "velocity": 88, "channel": 0}, {"type": "note_off", "time": 63, "note": 60, "velocity": 88, "channel": 0}, {"type": "note_on", "time": 17, "note": 65, "velocity": 105, "channel": 0}, {"type": "note_off", "time": 95, "note": 65, "velocity": 105, "channel": 0}, {"type": "note_on", "time": 706, "note": 58, "velocity": 88, "channel": 0}, {"type": "note_off", "time": 78, "note": 58, "velocity": 88, "channel": 0}, {"type": "note_on", "time": 4, "note": 60, "velocity": 92, "channel": 0}, {"type": "note_off", "time": 76, "note": 60, "velocity": 92, "channel": 0}, {"type": "note_on", "time": 19, "note": 61, "velocity": 95, "channel": 0}, {"type": "note_off", "time": 103, "note": 61, "velocity": 95, "channel": 0}, {"type": "note_on", "time": 0, "note": 60, "velocity": 94, "channel": 0}, {"type": "note_off", "time": 91, "note": 60, "velocity": 94, "channel": 0}, {"type": "note_on", "time": 9, "note": 58, "velocity": 89, "channel": 0}, {"type": "note_off", "time": 86, "note": 58, "velocity": 89, "channel": 0}, {"type": "note_on", "time": 0, "note": 61, "velocity": 88, "channel": 0}, {"type": "note_off", "time": 91, "note": 61, "velocity": 88, "channel": 0}, {"type": "note_on", "time": 0, "note": 65, "velocity": 106, "channel": 0}, {"type": "note_off", "time": 105, "note": 65, "velocity": 106, "channel": 0}, {"type": "note_on", "time": 2, "note": 68, "velocity": 103, "channel": 0}, {"type": "note_off", "time": 83, "note": 68, "velocity": 103, "channel": 0}, {"type": "note_on", "time": 2, "note": 65, "velocity": 99, "channel": 0}, {"type": "note_off", "time": 100, "note": 65, "velocity": 99, "channel": 0}, {"type": "note_on", "time": 7, "note": 67, "velocity": 91, "channel": 0}, {"type": "note_off", "time": 66, "note": 67, "velocity": 91, "channel": 0}, {"type": "note_on", "time": 24, "note": 69, "velocity": 94, "channel": 0}, {"type": "note_off", "time": 76, "note": 69, "velocity": 94, "channel": 0}, {"type": "note_on", "time": 9, "note": 70, "velocity": 84, "channel": 0}, {"type": "note_off", "time": 61, "note": 70, "velocity": 84, "channel": 0}, {"type": "note_on", "time": 9, "note": 72, "velocity": 116, "channel": 0}, {"type": "note_off", "time": 98, "note": 72, "velocity": 116, "channel": 0}, {"type": "note_on", "time": 7, "note": 71, "velocity": 103, "channel": 0}, {"type": "note_off", "time": 68, "note": 71, "velocity": 103, "channel": 0}, {"type": "note_on", "time": 7, "note": 70, "velocity": 89, "channel": 0}, {"type": "note_off", "time": 172, "note": 70, "velocity": 89, "channel": 0}, {"type": "note_on", "time": 34, "note": 68, "velocity": 99, "channel": 0}, {"type": "note_off", "time": 95, "note": 68, "velocity": 99, "channel": 0}, {"type": "note_on", "time": 12, "note": 67, "velocity": 98, "channel": 0}, {"type": "note_off", "time": 93, "note": 67, "velocity": 98, "channel": 0}, {"type": "note_on", "time": 12, "note": 65, "velocity": 97, "channel": 0}, {"type": "note_off", "time": 88, "note": 65, "velocity": 97, "channel": 0}, {"type": "note_on", "time": 14, "note": 63, "velocity": 97, "channel": 0}, {"type": "note_off", "time": 83, "note": 63, "velocity": 97, "channel": 0}, {"type": "note_on", "time": 9, "note": 61, "velocity": 90, "channel": 0}, {"type": "note_off", "time": 91, "note": 61, "velocity": 90, "channel": 0}, {"type": "note_on", "time": 4, "note": 60, "velocity": 95, "channel": 0}, {"type": "note_off", "time": 88, "note": 60, "velocity": 95, "channel": 0}, {"type": "note_on", "time": 4, "note": 58, "velocity": 87, "channel": 0}, {"type": "note_off", "time": 68, "note": 58, "velocity": 87, "channel": 0}, {"type": "note_on", "time": 9, "note": 56, "velocity": 89, "channel": 0}, {"type": "note_off", "time": 66, "note": 56, "velocity": 89, "channel": 0}, {"type": "note_on", "time": 29, "note": 55, "velocity": 93, "channel": 0}, {"type": "note_off", "time": 91, "note": 55, "velocity": 93, "channel": 0}, {"type": "note_on", "time": 0, "note": 56, "velocity": 90, "channel": 0}, {"type": "note_off", "time": 78, "note": 56, "velocity": 90, "channel": 0}, {"type": "note_on", "time": 22, "note": 58, "velocity": 93, "channel": 0}, {"type": "note_off", "time": 93, "note": 58, "velocity": 93, "channel": 0}, {"type": "note_on", "time": 41, "note": 55, "velocity": 89, "channel": 0}, {"type": "note_off", "time": 78, "note": 55, "velocity": 89, "channel": 0}, {"type": "note_on", "time": 4, "note": 56, "velocity": 90, "channel": 0}, {"type": "note_off", "time": 78, "note": 56, "velocity": 90, "channel": 0}, {"type": "note_on", "time": 2, "note": 57, "velocity": 92, "channel": 0}, {"type": "note_off", "time": 100, "note": 57, "velocity": 92, "channel": 0}, {"type": "note_on", "time": 9, "note": 58, "velocity": 93, "channel": 0}, {"type": "note_off", "time": 120, "note": 58, "velocity": 93, "channel": 0}, {"type": "note_on", "time": 7, "note": 59, "velocity": 95, "channel": 0}, {"type": "note_off", "time": 76, "note": 59, "velocity": 95, "channel": 0}, {"type": "note_on", "time": 4, "note": 60, "velocity": 95, "channel": 0}, {"type": "note_off", "time": 118, "note": 60, "velocity": 95, "channel": 0}, {"type": "note_on", "time": 7, "note": 62, "velocity": 95, "channel": 0}, {"type": "note_off", "time": 95, "note": 62, "velocity": 95, "channel": 0}, {"type": "note_on", "time": 14, "note": 63, "velocity": 89, "channel": 0}, {"type": "note_off", "time": 88, "note": 63, "velocity": 89, "channel": 0}, {"type": "note_on", "time": 0, "note": 65, "velocity": 108, "channel": 0}, {"type": "note_off", "time": 120, "note": 65, "velocity": 108, "channel": 0}, {"type": "note_on", "time": 7, "note": 66, "velocity": 99, "channel": 0}, {"type": "note_off", "time": 68, "note": 66, "velocity": 99, "channel": 0}, {"type": "note_on", "time": 7, "note": 67, "velocity": 97, "channel": 0}, {"type": "note_off", "time": 91, "note": 67, "velocity": 97, "channel": 0}, {"type": "note_on", "time": 4, "note": 68, "velocity": 95, "channel": 0}, {"type": "note_off", "time": 71, "note": 68, "velocity": 95, "channel": 0}, {"type": "note_on", "time": 12, "note": 69, "velocity": 103, "channel": 0}, {"type": "note_off", "time": 110, "note": 69, "velocity": 103, "channel": 0}, {"type": "note_on", "time": 7, "note": 70, "velocity": 90, "channel": 0}, {"type": "note_off", "time": 56, "note": 70, "velocity": 90, "channel": 0}, {"type": "note_on", "time": 7, "note": 71, "velocity": 97, "channel": 0}, {"type": "note_off", "time": 83, "note": 71, "velocity": 97, "channel": 0}, {"type": "note_on", "time": 14, "note": 72, "velocity": 92, "channel": 0}, {"type": "note_off", "time": 78, "note": 72, "velocity": 92, "channel": 0}, {"type": "note_on", "time": 7, "note": 73, "velocity": 96, "channel": 0}, {"type": "note_off", "time": 187, "note": 73, "velocity": 96, "channel": 0}, {"type": "note_on", "time": 1156, "note": 72, "velocity": 106, "channel": 0}, {"type": "note_off", "time": 125, "note": 72, "velocity": 106, "channel": 0}, {"type": "note_on", "time": 7, "note": 70, "velocity": 102, "channel": 0}, {"type": "note_off", "time": 113, "note": 70, "velocity": 102, "channel": 0}, {"type": "note_on", "time": 2, "note": 69, "velocity": 89, "channel": 0}, {"type": "note_off", "time": 71, "note": 69, "velocity": 89, "channel": 0}, {"type": "note_on", "time": 4, "note": 72, "velocity": 87, "channel": 0}, {"type": "note_off", "time": 78, "note": 72, "velocity": 87, "channel": 0}, {"type": "note_on", "time": 9, "note": 77, "velocity": 120, "channel": 0}, {"type": "note_off", "time": 115, "note": 77, "velocity": 120, "channel": 0}, {"type": "note_on", "time": 231, "note": 75, "velocity": 113, "channel": 0}, {"type": "note_off", "time": 120, "note": 75, "velocity": 113, "channel": 0}, {"type": "note_on", "time": 7, "note": 73, "velocity": 101, "channel": 0}, {"type": "note_off", "time": 83, "note": 73, "velocity": 101, "channel": 0}, {"type": "note_on", "time": 0, "note": 72, "velocity": 104, "channel": 0}, {"type": "note_off", "time": 103, "note": 72, "velocity": 104, "channel": 0}, {"type": "note_on", "time": 0, "note": 70, "velocity": 105, "channel": 0}, {"type": "note_off", "time": 91, "note": 70, "velocity": 105, "channel": 0}, {"type": "note_on", "time": 2, "note": 69, "velocity": 100, "channel": 0}, {"type": "note_off", "time": 83, "note": 69, "velocity": 100, "channel": 0}, {"type": "note_on", "time": 9, "note": 67, "velocity": 103, "channel": 0}, {"type": "note_off", "time": 88, "note": 67, "velocity": 103, "channel": 0}, {"type": "note_on", "time": 17, "note": 65, "velocity": 100, "channel": 0}, {"type": "note_off", "time": 93, "note": 65, "velocity": 100, "channel": 0}, {"type": "note_on", "time": 9, "note": 64, "velocity": 94, "channel": 0}, {"type": "note_off", "time": 66, "note": 64, "velocity": 94, "channel": 0}, {"type": "note_on", "time": 36, "note": 62, "velocity": 95, "channel": 0}, {"type": "note_off", "time": 189, "note": 62, "velocity": 95, "channel": 0}, {"type": "note_on", "time": 0, "note": 61, "velocity": 89, "channel": 0}, {"type": "note_off", "time": 172, "note": 61, "velocity": 89, "channel": 0}, {"type": "note_on", "time": 7, "note": 64, "velocity": 95, "channel": 0}, {"type": "note_off", "time": 167, "note": 64, "velocity": 95, "channel": 0}, {"type": "note_on", "time": 7, "note": 69, "velocity": 75, "channel": 0}, {"type": "note_off", "time": 369, "note": 69, "velocity": 75, "channel": 0}, {"type": "note_on", "time": 1215, "note": 67, "velocity": 112, "channel": 0}, {"type": "note_off", "time": 68, "note": 67, "velocity": 112, "channel": 0}, {"type": "note_on", "time": 7, "note": 66, "velocity": 103, "channel": 0}, {"type": "note_off", "time": 56, "note": 66, "velocity": 103, "channel": 0}, {"type": "note_on", "time": 7, "note": 67, "velocity": 102, "channel": 0}, {"type": "note_off", "time": 49, "note": 67, "velocity": 102, "channel": 0}, {"type": "note_on", "time": 77, "note": 77, "velocity": 121, "channel": 0}, {"type": "note_off", "time": 63, "note": 77, "velocity": 121, "channel": 0}, {"type": "note_on", "time": 574, "note": 69, "velocity": 97, "channel": 0}, {"type": "note_off", "time": 71, "note": 69, "velocity": 97, "channel": 0}, {"type": "note_on", "time": 7, "note": 70, "velocity": 86, "channel": 0}, {"type": "note_off", "time": 61, "note": 70, "velocity": 86, "channel": 0}, {"type": "note_on", "time": 2, "note": 72, "velocity": 117, "channel": 0}, {"type": "note_off", "time": 115, "note": 72, "velocity": 117, "channel": 0}, {"type": "note_on", "time": 9, "note": 71, "velocity": 112, "channel": 0}, {"type": "note_off", "time": 86, "note": 71, "velocity": 112, "channel": 0}, {"type": "note_on", "time": 12, "note": 70, "velocity": 102, "channel": 0}, {"type": "note_off", "time": 81, "note": 70, "velocity": 102, "channel": 0}, {"type": "note_on", "time": 4, "note": 69, "velocity": 105, "channel": 0}, {"type": "note_off", "time": 88, "note": 69, "velocity": 105, "channel": 0}, {"type": "note_on", "time": 4, "note": 67, "velocity": 101, "channel": 0}, {"type": "note_off", "time": 113, "note": 67, "velocity": 101, "channel": 0}, {"type": "note_on", "time": 9, "note": 65, "velocity": 94, "channel": 0}, {"type": "note_off", "time": 71, "note": 65, "velocity": 94, "channel": 0}, {"type": "note_on", "time": 125, "note": 64, "velocity": 89, "channel": 0}, {"type": "note_off", "time": 49, "note": 64, "velocity": 89, "channel": 0}, {"type": "note_on", "time": 4, "note": 67, "velocity": 104, "channel": 0}, {"type": "note_off", "time": 93, "note": 67, "velocity": 104, "channel": 0}, {"type": "note_on", "time": 19, "note": 64, "velocity": 85, "channel": 0}, {"type": "note_off", "time": 59, "note": 64, "velocity": 85, "channel": 0}, {"type": "note_on", "time": 7, "note": 65, "velocity": 94, "channel": 0}, {"type": "note_off", "time": 137, "note": 65, "velocity": 94, "channel": 0}, {"type": "note_on", "time": 0, "note": 67, "velocity": 85, "channel": 0}, {"type": "note_off", "time": 51, "note": 67, "velocity": 85, "channel": 0}, {"type": "note_on", "time": 19, "note": 69, "velocity": 105, "channel": 0}, {"type": "note_off", "time": 105, "note": 69, "velocity": 105, "channel": 0}, {"type": "note_on", "time": 14, "note": 67, "velocity": 99, "channel": 0}, {"type": "note_off", "time": 86, "note": 67, "velocity": 99, "channel": 0}, {"type": "note_on", "time": 9, "note": 65, "velocity": 79, "channel": 0}, {"type": "note_off", "time": 98, "note": 65, "velocity": 79, "channel": 0}, {"type": "note_on", "time": 2, "note": 64, "velocity": 86, "channel": 0}, {"type": "note_off", "time": 95, "note": 64, "velocity": 86, "channel": 0}, {"type": "note_on", "time": 19, "note": 62, "velocity": 80, "channel": 0}, {"type": "note_off", "time": 63, "note": 62, "velocity": 80, "channel": 0}, {"type": "note_on", "time": 4, "note": 65, "velocity": 86, "channel": 0}, {"type": "note_off", "time": 73, "note": 65, "velocity": 86, "channel": 0}, {"type": "note_on", "time": 100, "note": 72, "velocity": 77, "channel": 0}, {"type": "note_off", "time": 98, "note": 72, "velocity": 77, "channel": 0}, {"type": "note_on", "time": 17, "note": 76, "velocity": 123, "channel": 0}, {"type": "note_off", "time": 123, "note": 76, "velocity": 123, "channel": 0}, {"type": "note_on", "time": 4, "note": 75, "velocity": 108, "channel": 0}, {"type": "note_off", "time": 66, "note": 75, "velocity": 108, "channel": 0}, {"type": "note_on", "time": 7, "note": 74, "velocity": 106, "channel": 0}, {"type": "note_off", "time": 73, "note": 74, "velocity": 106, "channel": 0}, {"type": "note_on", "time": 12, "note": 73, "velocity": 108, "channel": 0}, {"type": "note_off", "time": 88, "note": 73, "velocity": 108, "channel": 0}, {"type": "note_on", "time": 9, "note": 72, "velocity": 93, "channel": 0}, {"type": "note_off", "time": 140, "note": 72, "velocity": 93, "channel": 0}, {"type": "note_on", "time": 1176, "note": 77, "velocity": 122, "channel": 0}, {"type": "note_off", "time": 127, "note": 77, "velocity": 122, "channel": 0}, {"type": "note_on", "time": 0, "note": 78, "velocity": 123, "channel": 0}, {"type": "note_off", "time": 76, "note": 78, "velocity": 123, "channel": 0}, {"type": "note_on", "time": 17, "note": 79, "velocity": 119, "channel": 0}, {"type": "note_off", "time": 88, "note": 79, "velocity": 119, "channel": 0}, {"type": "note_on", "time": 12, "note": 76, "velocity": 123, "channel": 0}, {"type": "note_off", "time": 91, "note": 76, "velocity": 123, "channel": 0}, {"type": "note_on", "time": 7, "note": 75, "velocity": 110, "channel": 0}, {"type": "note_off", "time": 103, "note": 75, "velocity": 110, "channel": 0}, {"type": "note_on", "time": 7, "note": 73, "velocity": 108, "channel": 0}, {"type": "note_off", "time": 78, "note": 73, "velocity": 108, "channel": 0}, {"type": "note_on", "time": 9, "note": 72, "velocity": 106, "channel": 0}, {"type": "note_off", "time": 76, "note": 72, "velocity": 106, "channel": 0}, {"type": "note_on", "time": 17, "note": 70, "velocity": 87, "channel": 0}, {"type": "note_off", "time": 81, "note": 70, "velocity": 87, "channel": 0}, {"type": "note_on", "time": 7, "note": 69, "velocity": 84, "channel": 0}, {"type": "note_off", "time": 83, "note": 69, "velocity": 84, "channel": 0}, {"type": "note_on", "time": 9, "note": 70, "velocity": 78, "channel": 0}, {"type": "note_off", "time": 71, "note": 70, "velocity": 78, "channel": 0}, {"type": "note_on", "time": 17, "note": 72, "velocity": 111, "channel": 0}, {"type": "note_off", "time": 83, "note": 72, "velocity": 111, "channel": 0}, {"type": "note_on", "time": 36, "note": 65, "velocity": 95, "channel": 0}, {"type": "note_off", "time": 66, "note": 65, "velocity": 95, "channel": 0}, {"type": "note_on", "time": 7, "note": 67, "velocity": 78, "channel": 0}, {"type": "note_off", "time": 78, "note": 67, "velocity": 78, "channel": 0}, {"type": "note_on", "time": 7, "note": 69, "velocity": 78, "channel": 0}, {"type": "note_off", "time": 59, "note": 69, "velocity": 78, "channel": 0}, {"type": "note_on", "time": 14, "note": 70, "velocity": 101, "channel": 0}, {"type": "note_off", "time": 100, "note": 70, "velocity": 101, "channel": 0}, {"type": "note_on", "time": 19, "note": 67, "velocity": 88, "channel": 0}, {"type": "note_off", "time": 63, "note": 67, "velocity": 88, "channel": 0}, {"type": "note_on", "time": 199, "note": 72, "velocity": 109, "channel": 0}, {"type": "note_off", "time": 113, "note": 72, "velocity": 109, "channel": 0}, {"type": "note_on", "time": 7, "note": 71, "velocity": 102, "channel": 0}, {"type": "note_off", "time": 88, "note": 71, "velocity": 102, "channel": 0}, {"type": "note_on", "time": 7, "note": 70, "velocity": 94, "channel": 0}, {"type": "note_off", "time": 81, "note": 70, "velocity": 94, "channel": 0}, {"type": "note_on", "time": 2, "note": 69, "velocity": 98, "channel": 0}, {"type": "note_off", "time": 76, "note": 69, "velocity": 98, "channel": 0}, {"type": "note_on", "time": 9, "note": 67, "velocity": 100, "channel": 0}, {"type": "note_off", "time": 95, "note": 67, "velocity": 100, "channel": 0}, {"type": "note_on", "time": 24, "note": 65, "velocity": 83, "channel": 0}, {"type": "note_off", "time": 100, "note": 65, "velocity": 83, "channel": 0}, {"type": "note_on", "time": 98, "note": 64, "velocity": 80, "channel": 0}, {"type": "note_off", "time": 71, "note": 64, "velocity": 80, "channel": 0}, {"type": "note_on", "time": 4, "note": 67, "velocity": 82, "channel": 0}, {"type": "note_off", "time": 98, "note": 67, "velocity": 82, "channel": 0}, {"type": "note_on", "time": 12, "note": 64, "velocity": 84, "channel": 0}, {"type": "note_off", "time": 71, "note": 64, "velocity": 84, "channel": 0}, {"type": "note_on", "time": 24, "note": 65, "velocity": 101, "channel": 0}, {"type": "note_off", "time": 59, "note": 65, "velocity": 101, "channel": 0}, {"type": "note_on", "time": 0, "note": 69, "velocity": 90, "channel": 0}, {"type": "note_off", "time": 59, "note": 69, "velocity": 90, "channel": 0}, {"type": "note_on", "time": 14, "note": 74, "velocity": 108, "channel": 0}, {"type": "note_off", "time": 61, "note": 74, "velocity": 108, "channel": 0}, {"type": "note_on", "time": 14, "note": 72, "velocity": 96, "channel": 0}, {"type": "note_off", "time": 103, "note": 72, "velocity": 96, "channel": 0}, {"type": "note_on", "time": 959, "note": 72, "velocity": 103, "channel": 0}, {"type": "note_off", "time": 76, "note": 72, "velocity": 103, "channel": 0}, {"type": "note_on", "time": 4, "note": 74, "velocity": 98, "channel": 0}, {"type": "note_off", "time": 54, "note": 74, "velocity": 98, "channel": 0}, {"type": "note_on", "time": 7, "note": 76, "velocity": 108, "channel": 0}, {"type": "note_off", "time": 56, "note": 76, "velocity": 108, "channel": 0}, {"type": "note_on", "time": 12, "note": 77, "velocity": 112, "channel": 0}, {"type": "note_off", "time": 137, "note": 77, "velocity": 112, "channel": 0}, {"type": "note_on", "time": 68, "note": 65, "velocity": 97, "channel": 0}, {"type": "note_off", "time": 108, "note": 65, "velocity": 97, "channel": 0}, {"type": "note_on", "time": 51, "note": 75, "velocity": 115, "channel": 0}, {"type": "note_off", "time": 127, "note": 75, "velocity": 115, "channel": 0}, {"type": "note_on", "time": 12, "note": 72, "velocity": 108, "channel": 0}, {"type": "note_off", "time": 78, "note": 72, "velocity": 108, "channel": 0}, {"type": "note_on", "time": 2, "note": 73, "velocity": 108, "channel": 0}, {"type": "note_off", "time": 103, "note": 73, "velocity": 108, "channel": 0}, {"type": "note_on", "time": 0, "note": 72, "velocity": 98, "channel": 0}, {"type": "note_off", "time": 81, "note": 72, "velocity": 98, "channel": 0}, {"type": "note_on", "time": 2, "note": 70, "velocity": 83, "channel": 0}, {"type": "note_off", "time": 91, "note": 70, "velocity": 83, "channel": 0}, {"type": "note_on", "time": 9, "note": 69, "velocity": 97, "channel": 0}, {"type": "note_off", "time": 86, "note": 69, "velocity": 97, "channel": 0}, {"type": "note_on", "time": 9, "note": 67, "velocity": 95, "channel": 0}, {"type": "note_off", "time": 88, "note": 67, "velocity": 95, "channel": 0}, {"type": "note_on", "time": 14, "note": 65, "velocity": 93, "channel": 0}, {"type": "note_off", "time": 83, "note": 65, "velocity": 93, "channel": 0}, {"type": "note_on", "time": 9, "note": 63, "velocity": 83, "channel": 0}, {"type": "note_off", "time": 70, "note": 63, "velocity": 83, "channel": 0}, {"type": "note_on", "time": 13, "note": 61, "velocity": 90, "channel": 0}, {"type": "note_off", "time": 289, "note": 61, "velocity": 90, "channel": 0}, {"type": "note_on", "time": 4, "note": 64, "velocity": 93, "channel": 0}, {"type": "note_off", "time": 120, "note": 64, "velocity": 93, "channel": 0}, {"type": "note_on", "time": 12, "note": 61, "velocity": 77, "channel": 0}, {"type": "note_off", "time": 91, "note": 61, "velocity": 77, "channel": 0}, {"type": "note_on", "time": 9, "note": 62, "velocity": 83, "channel": 0}, {"type": "note_off", "time": 310, "note": 62, "velocity": 83, "channel": 0}, {"type": "note_on", "time": 44, "note": 65, "velocity": 97, "channel": 0}, {"type": "note_off", "time": 566, "note": 65, "velocity": 97, "channel": 0}, {"type": "note_on", "time": 4, "note": 68, "velocity": 107, "channel": 0}, {"type": "note_off", "time": 91, "note": 68, "velocity": 107, "channel": 0}, {"type": "note_on", "time": 4, "note": 66, "velocity": 94, "channel": 0}, {"type": "note_off", "time": 81, "note": 66, "velocity": 94, "channel": 0}, {"type": "note_on", "time": 17, "note": 67, "velocity": 84, "channel": 0}, {"type": "note_off", "time": 332, "note": 67, "velocity": 84, "channel": 0}, {"type": "note_on", "time": 2, "note": 70, "velocity": 105, "channel": 0}, {"type": "note_off", "time": 95, "note": 70, "velocity": 105, "channel": 0}, {"type": "note_on", "time": 17, "note": 67, "velocity": 92, "channel": 0}, {"type": "note_off", "time": 73, "note": 67, "velocity": 92, "channel": 0}, {"type": "note_on", "time": 0, "note": 69, "velocity": 79, "channel": 0}, {"type": "note_off", "time": 383, "note": 69, "velocity": 79, "channel": 0}, {"type": "note_on", "time": 7, "note": 72, "velocity": 101, "channel": 0}, {"type": "note_off", "time": 145, "note": 72, "velocity": 101, "channel": 0}, {"type": "note_on", "time": 6, "note": 69, "velocity": 93, "channel": 0}, {"type": "note_off", "time": 100, "note": 69, "velocity": 93, "channel": 0}, {"type": "note_on", "time": 35, "note": 74, "velocity": 115, "channel": 0}, {"type": "note_off", "time": 120, "note": 74, "velocity": 115, "channel": 0}, {"type": "note_on", "time": 4, "note": 72, "velocity": 109, "channel": 0}, {"type": "note_off", "time": 88, "note": 72, "velocity": 109, "channel": 0}, {"type": "note_on", "time": 7, "note": 70, "velocity": 93, "channel": 0}, {"type": "note_off", "time": 73, "note": 70, "velocity": 93, "channel": 0}, {"type": "note_on", "time": 7, "note": 69, "velocity": 78, "channel": 0}, {"type": "note_off", "time": 115, "note": 69, "velocity": 78, "channel": 0}, {"type": "note_on", "time": 66, "note": 72, "velocity": 108, "channel": 0}, {"type": "note_off", "time": 95, "note": 72, "velocity": 108, "channel": 0}, {"type": "note_on", "time": 12, "note": 70, "velocity": 94, "channel": 0}, {"type": "note_off", "time": 73, "note": 70, "velocity": 94, "channel": 0}, {"type": "note_on", "time": 7, "note": 69, "velocity": 95, "channel": 0}, {"type": "note_off", "time": 76, "note": 69, "velocity": 95, "channel": 0}, {"type": "note_on", "time": 17, "note": 67, "velocity": 96, "channel": 0}, {"type": "note_off", "time": 78, "note": 67, "velocity": 96, "channel": 0}, {"type": "note_on", "time": 7, "note": 65, "velocity": 90, "channel": 0}, {"type": "note_off", "time": 91, "note": 65, "velocity": 90, "channel": 0}, {"type": "note_on", "time": 2, "note": 64, "velocity": 91, "channel": 0}, {"type": "note_off", "time": 81, "note": 64, "velocity": 91, "channel": 0}, {"type": "note_on", "time": 19, "note": 62, "velocity": 79, "channel": 0}, {"type": "note_off", "time": 71, "note": 62, "velocity": 79, "channel": 0}, {"type": "note_on", "time": 22, "note": 67, "velocity": 98, "channel": 0}, {"type": "note_off", "time": 88, "note": 67, "velocity": 98, "channel": 0}, {"type": "note_on", "time": 9, "note": 64, "velocity": 85, "channel": 0}, {"type": "note_off", "time": 81, "note": 64, "velocity": 85, "channel": 0}, {"type": "note_on", "time": 59, "note": 60, "velocity": 88, "channel": 0}, {"type": "note_off", "time": 76, "note": 60, "velocity": 88, "channel": 0}, {"type": "note_on", "time": 2, "note": 65, "velocity": 99, "channel": 0}, {"type": "note_off", "time": 76, "note": 65, "velocity": 99, "channel": 0}, {"type": "note_on", "time": 17, "note": 67, "velocity": 94, "channel": 0}, {"type": "note_off", "time": 81, "note": 67, "velocity": 94, "channel": 0}, {"type": "note_on", "time": 19, "note": 68, "velocity": 90, "channel": 0}, {"type": "note_off", "time": 78, "note": 68, "velocity": 90, "channel": 0}, {"type": "note_on", "time": 12, "note": 70, "velocity": 75, "channel": 0}, {"type": "note_off", "time": 63, "note": 70, "velocity": 75, "channel": 0}, {"type": "note_on", "time": 17, "note": 72, "velocity": 99, "channel": 0}, {"type": "note_off", "time": 103, "note": 72, "velocity": 99, "channel": 0}, {"type": "note_on", "time": 0, "note": 68, "velocity": 91, "channel": 0}, {"type": "note_off", "time": 86, "note": 68, "velocity": 91, "channel": 0}, {"type": "note_on", "time": 12, "note": 65, "velocity": 85, "channel": 0}, {"type": "note_off", "time": 98, "note": 65, "velocity": 85, "channel": 0}, {"type": "note_on", "time": 17, "note": 61, "velocity": 76, "channel": 0}, {"type": "note_off", "time": 63, "note": 61, "velocity": 76, "channel": 0}, {"type": "note_on", "time": 0, "note": 69, "velocity": 99, "channel": 0}, {"type": "note_off", "time": 103, "note": 69, "velocity": 99, "channel": 0}, {"type": "note_on", "time": 14, "note": 70, "velocity": 83, "channel": 0}, {"type": "note_off", "time": 66, "note": 70, "velocity": 83, "channel": 0}, {"type": "note_on", "time": 9, "note": 72, "velocity": 110, "channel": 0}, {"type": "note_off", "time": 105, "note": 72, "velocity": 110, "channel": 0}, {"type": "note_on", "time": 17, "note": 70, "velocity": 102, "channel": 0}, {"type": "note_off", "time": 51, "note": 70, "velocity": 102, "channel": 0}, {"type": "note_on", "time": 12, "note": 69, "velocity": 92, "channel": 0}, {"type": "note_off", "time": 68, "note": 69, "velocity": 92, "channel": 0}, {"type": "note_on", "time": 9, "note": 70, "velocity": 85, "channel": 0}, {"type": "note_off", "time": 54, "note": 70, "velocity": 85, "channel": 0}, {"type": "note_on", "time": 4, "note": 73, "velocity": 96, "channel": 0}, {"type": "note_off", "time": 54, "note": 73, "velocity": 96, "channel": 0}, {"type": "note_on", "time": 4, "note": 77, "velocity": 119, "channel": 0}, {"type": "note_off", "time": 68, "note": 77, "velocity": 119, "channel": 0}, {"type": "note_on", "time": 4, "note": 75, "velocity": 100, "channel": 0}, {"type": "note_off", "time": 164, "note": 75, "velocity": 100, "channel": 0}, {"type": "note_on", "time": 854, "note": 72, "velocity": 102, "channel": 0}, {"type": "note_off", "time": 83, "note": 72, "velocity": 102, "channel": 0}, {"type": "note_on", "time": 4, "note": 73, "velocity": 109, "channel": 0}, {"type": "note_off", "time": 54, "note": 73, "velocity": 109, "channel": 0}, {"type": "note_on", "time": 12, "note": 75, "velocity": 110, "channel": 0}, {"type": "note_off", "time": 49, "note": 75, "velocity": 110, "channel": 0}, {"type": "note_on", "time": 4, "note": 77, "velocity": 123, "channel": 0}, {"type": "note_off", "time": 120, "note": 77, "velocity": 123, "channel": 0}, {"type": "note_on", "time": 27, "note": 75, "velocity": 115, "channel": 0}, {"type": "note_off", "time": 88, "note": 75, "velocity": 115, "channel": 0}, {"type": "note_on", "time": 9, "note": 73, "velocity": 112, "channel": 0}, {"type": "note_off", "time": 78, "note": 73, "velocity": 112, "channel": 0}, {"type": "note_on", "time": 19, "note": 72, "velocity": 107, "channel": 0}, {"type": "note_off", "time": 78, "note": 72, "velocity": 107, "channel": 0}, {"type": "note_on", "time": 2, "note": 70, "velocity": 99, "channel": 0}, {"type": "note_off", "time": 71, "note": 70, "velocity": 99, "channel": 0}, {"type": "note_on", "time": 2, "note": 68, "velocity": 100, "channel": 0}, {"type": "note_off", "time": 103, "note": 68, "velocity": 100, "channel": 0}, {"type": "note_on", "time": 4, "note": 67, "velocity": 96, "channel": 0}, {"type": "note_off", "time": 88, "note": 67, "velocity": 96, "channel": 0}, {"type": "note_on", "time": 17, "note": 68, "velocity": 95, "channel": 0}, {"type": "note_off", "time": 56, "note": 68, "velocity": 95, "channel": 0}, {"type": "note_on", "time": 12, "note": 70, "velocity": 108, "channel": 0}, {"type": "note_off", "time": 95, "note": 70, "velocity": 108, "channel": 0}, {"type": "note_on", "time": 12, "note": 67, "velocity": 99, "channel": 0}, {"type": "note_off", "time": 81, "note": 67, "velocity": 99, "channel": 0}, {"type": "note_on", "time": 22, "note": 71, "velocity": 115, "channel": 0}, {"type": "note_off", "time": 93, "note": 71, "velocity": 115, "channel": 0}, {"type": "note_on", "time": 14, "note": 69, "velocity": 106, "channel": 0}, {"type": "note_off", "time": 86, "note": 69, "velocity": 106, "channel": 0}, {"type": "note_on", "time": 0, "note": 67, "velocity": 102, "channel": 0}, {"type": "note_off", "time": 86, "note": 67, "velocity": 102, "channel": 0}, {"type": "note_on", "time": 4, "note": 66, "velocity": 97, "channel": 0}, {"type": "note_off", "time": 88, "note": 66, "velocity": 97, "channel": 0}, {"type": "note_on", "time": 9, "note": 64, "velocity": 84, "channel": 0}, {"type": "note_off", "time": 110, "note": 64, "velocity": 84, "channel": 0}, {"type": "note_on", "time": 7, "note": 62, "velocity": 90, "channel": 0}, {"type": "note_off", "time": 86, "note": 62, "velocity": 90, "channel": 0}, {"type": "note_on", "time": 7, "note": 61, "velocity": 88, "channel": 0}, {"type": "note_off", "time": 174, "note": 61, "velocity": 88, "channel": 0}, {"type": "note_on", "time": 7, "note": 64, "velocity": 101, "channel": 0}, {"type": "note_off", "time": 88, "note": 64, "velocity": 101, "channel": 0}, {"type": "note_on", "time": 12, "note": 61, "velocity": 88, "channel": 0}, {"type": "note_off", "time": 81, "note": 61, "velocity": 88, "channel": 0}, {"type": "note_on", "time": 7, "note": 62, "velocity": 87, "channel": 0}, {"type": "note_off", "time": 95, "note": 62, "velocity": 87, "channel": 0}, {"type": "note_on", "time": 7, "note": 64, "velocity": 91, "channel": 0}, {"type": "note_off", "time": 71, "note": 64, "velocity": 91, "channel": 0}, {"type": "note_on", "time": 14, "note": 65, "velocity": 98, "channel": 0}, {"type": "note_off", "time": 105, "note": 65, "velocity": 98, "channel": 0}, {"type": "note_on", "time": 9, "note": 67, "velocity": 91, "channel": 0}, {"type": "note_off", "time": 81, "note": 67, "velocity": 91, "channel": 0}, {"type": "note_on", "time": 7, "note": 68, "velocity": 106, "channel": 0}, {"type": "note_off", "time": 86, "note": 68, "velocity": 106, "channel": 0}, {"type": "note_on", "time": 2, "note": 65, "velocity": 96, "channel": 0}, {"type": "note_off", "time": 81, "note": 65, "velocity": 96, "channel": 0}, {"type": "note_on", "time": 7, "note": 66, "velocity": 89, "channel": 0}, {"type": "note_off", "time": 71, "note": 66, "velocity": 89, "channel": 0}, {"type": "note_on", "time": 17, "note": 67, "velocity": 87, "channel": 0}, {"type": "note_off", "time": 81, "note": 67, "velocity": 87, "channel": 0}, {"type": "note_on", "time": 14, "note": 70, "velocity": 99, "channel": 0}, {"type": "note_off", "time": 98, "note": 70, "velocity": 99, "channel": 0}, {"type": "note_on", "time": 9, "note": 67, "velocity": 95, "channel": 0}, {"type": "note_off", "time": 86, "note": 67, "velocity": 95, "channel": 0}, {"type": "note_on", "time": 68, "note": 69, "velocity": 89, "channel": 0}, {"type": "note_off", "time": 68, "note": 69, "velocity": 89, "channel": 0}, {"type": "note_on", "time": 17, "note": 72, "velocity": 115, "channel": 0}, {"type": "note_off", "time": 110, "note": 72, "velocity": 115, "channel": 0}, {"type": "note_on", "time": 19, "note": 69, "velocity": 99, "channel": 0}, {"type": "note_off", "time": 66, "note": 69, "velocity": 99, "channel": 0}, {"type": "note_on", "time": 9, "note": 70, "velocity": 97, "channel": 0}, {"type": "note_off", "time": 46, "note": 70, "velocity": 97, "channel": 0}, {"type": "note_on", "time": 14, "note": 75, "velocity": 112, "channel": 0}, {"type": "note_off", "time": 91, "note": 75, "velocity": 112, "channel": 0}, {"type": "note_on", "time": 12, "note": 72, "velocity": 121, "channel": 0}, {"type": "note_off", "time": 71, "note": 72, "velocity": 121, "channel": 0}, {"type": "note_on", "time": 29, "note": 73, "velocity": 123, "channel": 0}, {"type": "note_off", "time": 46, "note": 73, "velocity": 123, "channel": 0}, {"type": "note_on", "time": 14, "note": 72, "velocity": 115, "channel": 0}, {"type": "note_off", "time": 59, "note": 72, "velocity": 115, "channel": 0}, {"type": "note_on", "time": 9, "note": 70, "velocity": 108, "channel": 0}, {"type": "note_off", "time": 68, "note": 70, "velocity": 108, "channel": 0}, {"type": "note_on", "time": 7, "note": 69, "velocity": 102, "channel": 0}, {"type": "note_off", "time": 61, "note": 69, "velocity": 102, "channel": 0}, {"type": "note_on", "time": 0, "note": 67, "velocity": 101, "channel": 0}, {"type": "note_off", "time": 61, "note": 67, "velocity": 101, "channel": 0}, {"type": "note_on", "time": 17, "note": 65, "velocity": 100, "channel": 0}, {"type": "note_off", "time": 125, "note": 65, "velocity": 100, "channel": 0}, {"type": "note_on", "time": 959, "note": 79, "velocity": 118, "channel": 0}, {"type": "note_off", "time": 110, "note": 79, "velocity": 118, "channel": 0}, {"type": "note_on", "time": 9, "note": 78, "velocity": 124, "channel": 0}, {"type": "note_off", "time": 88, "note": 78, "velocity": 124, "channel": 0}, {"type": "note_on", "time": 2, "note": 77, "velocity": 121, "channel": 0}, {"type": "note_off", "time": 88, "note": 77, "velocity": 121, "channel": 0}, {"type": "note_on", "time": 9, "note": 76, "velocity": 122, "channel": 0}, {"type": "note_on", "time": 105, "note": 75, "velocity": 112, "channel": 0}, {"type": "note_off", "time": 0, "note": 76, "velocity": 122, "channel": 0}, {"type": "note_off", "time": 95, "note": 75, "velocity": 112, "channel": 0}, {"type": "note_on", "time": 22, "note": 73, "velocity": 115, "channel": 0}, {"type": "note_off", "time": 93, "note": 73, "velocity": 115, "channel": 0}, {"type": "note_on", "time": 12, "note": 72, "velocity": 105, "channel": 0}, {"type": "note_off", "time": 86, "note": 72, "velocity": 105, "channel": 0}, {"type": "note_on", "time": 12, "note": 70, "velocity": 98, "channel": 0}, {"type": "note_off", "time": 66, "note": 70, "velocity": 98, "channel": 0}, {"type": "note_on", "time": 17, "note": 69, "velocity": 95, "channel": 0}, {"type": "note_off", "time": 61, "note": 69, "velocity": 95, "channel": 0}, {"type": "note_on", "time": 12, "note": 70, "velocity": 87, "channel": 0}, {"type": "note_off", "time": 54, "note": 70, "velocity": 87, "channel": 0}, {"type": "note_on", "time": 14, "note": 72, "velocity": 115, "channel": 0}, {"type": "note_off", "time": 105, "note": 72, "velocity": 115, "channel": 0}, {"type": "note_on", "time": 34, "note": 65, "velocity": 100, "channel": 0}, {"type": "note_off", "time": 83, "note": 65, "velocity": 100, "channel": 0}, {"type": "note_on", "time": 7, "note": 66, "velocity": 92, "channel": 0}, {"type": "note_off", "time": 59, "note": 66, "velocity": 92, "channel": 0}, {"type": "note_on", "time": 12, "note": 70, "velocity": 105, "channel": 0}, {"type": "note_off", "time": 88, "note": 70, "velocity": 105, "channel": 0}, {"type": "note_on", "time": 0, "note": 69, "velocity": 105, "channel": 0}, {"type": "note_off", "time": 120, "note": 69, "velocity": 105, "channel": 0}, {"type": "note_on", "time": 7, "note": 67, "velocity": 98, "channel": 0}, {"type": "note_off", "time": 71, "note": 67, "velocity": 98, "channel": 0}, {"type": "note_on", "time": 17, "note": 68, "velocity": 105, "channel": 0}, {"type": "note_off", "time": 76, "note": 68, "velocity": 105, "channel": 0}, {"type": "note_on", "time": 7, "note": 70, "velocity": 89, "channel": 0}, {"type": "note_off", "time": 31, "note": 70, "velocity": 89, "channel": 0}, {"type": "note_on", "time": 2, "note": 72, "velocity": 105, "channel": 0}, {"type": "note_off", "time": 113, "note": 72, "velocity": 105, "channel": 0}, {"type": "note_on", "time": 14, "note": 69, "velocity": 104, "channel": 0}, {"type": "note_off", "time": 81, "note": 69, "velocity": 104, "channel": 0}, {"type": "note_on", "time": 7, "note": 70, "velocity": 105, "channel": 0}, {"type": "note_off", "time": 71, "note": 70, "velocity": 105, "channel": 0}, {"type": "note_on", "time": 9, "note": 71, "velocity": 83, "channel": 0}, {"type": "note_off", "time": 315, "note": 71, "velocity": 83, "channel": 0}, {"type": "note_on", "time": 593, "note": 71, "velocity": 100, "channel": 0}, {"type": "note_off", "time": 93, "note": 71, "velocity": 100, "channel": 0}, {"type": "note_on", "time": 4, "note": 72, "velocity": 96, "channel": 0}, {"type": "note_off", "time": 98, "note": 72, "velocity": 96, "channel": 0}, {"type": "note_on", "time": 14, "note": 76, "velocity": 24, "channel": 0}, {"type": "note_off", "time": 98, "note": 76, "velocity": 24, "channel": 0}, {"type": "note_on", "time": 22, "note": 74, "velocity": 116, "channel": 0}, {"type": "note_off", "time": 59, "note": 74, "velocity": 116, "channel": 0}, {"type": "note_on", "time": 22, "note": 69, "velocity": 107, "channel": 0}, {"type": "note_off", "time": 76, "note": 69, "velocity": 107, "channel": 0}, {"type": "note_on", "time": 12, "note": 70, "velocity": 88, "channel": 0}, {"type": "note_off", "time": 68, "note": 70, "velocity": 88, "channel": 0}, {"type": "note_on", "time": 14, "note": 74, "velocity": 122, "channel": 0}, {"type": "note_off", "time": 108, "note": 74, "velocity": 122, "channel": 0}, {"type": "note_on", "time": 0, "note": 72, "velocity": 111, "channel": 0}, {"type": "note_off", "time": 86, "note": 72, "velocity": 111, "channel": 0}, {"type": "note_on", "time": 17, "note": 67, "velocity": 92, "channel": 0}, {"type": "note_off", "time": 93, "note": 67, "velocity": 92, "channel": 0}, {"type": "note_on", "time": 27, "note": 69, "velocity": 79, "channel": 0}, {"type": "note_off", "time": 68, "note": 69, "velocity": 79, "channel": 0}, {"type": "note_on", "time": 14, "note": 72, "velocity": 125, "channel": 0}, {"type": "note_off", "time": 88, "note": 72, "velocity": 125, "channel": 0}, {"type": "note_on", "time": 4, "note": 71, "velocity": 116, "channel": 0}, {"type": "note_off", "time": 68, "note": 71, "velocity": 116, "channel": 0}, {"type": "note_on", "time": 0, "note": 70, "velocity": 107, "channel": 0}, {"type": "note_off", "time": 103, "note": 70, "velocity": 107, "channel": 0}, {"type": "note_on", "time": 12, "note": 69, "velocity": 105, "channel": 0}, {"type": "note_off", "time": 71, "note": 69, "velocity": 105, "channel": 0}, {"type": "note_on", "time": 7, "note": 67, "velocity": 99, "channel": 0}, {"type": "note_off", "time": 83, "note": 67, "velocity": 99, "channel": 0}, {"type": "note_on", "time": 14, "note": 65, "velocity": 99, "channel": 0}, {"type": "note_off", "time": 86, "note": 65, "velocity": 99, "channel": 0}, {"type": "note_on", "time": 93, "note": 64, "velocity": 79, "channel": 0}, {"type": "note_off", "time": 71, "note": 64, "velocity": 79, "channel": 0}, {"type": "note_on", "time": 17, "note": 67, "velocity": 98, "channel": 0}, {"type": "note_off", "time": 63, "note": 67, "velocity": 98, "channel": 0}, {"type": "note_on", "time": 22, "note": 64, "velocity": 97, "channel": 0}, {"type": "note_off", "time": 51, "note": 64, "velocity": 97, "channel": 0}, {"type": "note_on", "time": 17, "note": 65, "velocity": 100, "channel": 0}, {"type": "note_off", "time": 91, "note": 65, "velocity": 100, "channel": 0}, {"type": "note_on", "time": 66, "note": 76, "velocity": 106, "channel": 0}, {"type": "note_off", "time": 93, "note": 76, "velocity": 106, "channel": 0}, {"type": "note_on", "time": 4, "note": 74, "velocity": 107, "channel": 0}, {"type": "note_off", "time": 78, "note": 74, "velocity": 107, "channel": 0}, {"type": "note_on", "time": 14, "note": 72, "velocity": 72, "channel": 0}, {"type": "note_off", "time": 61, "note": 72, "velocity": 72, "channel": 0}, {"type": "end_of_track", "time": 0}]]}