{"ticks_per_beat": 192, "tracks": [[{"type": "track_name", "name": "Melody", "time": 0}, {"type": "set_tempo", "tempo": 260869, "time": 0}, {"type": "key_signature", "key": "Bb", "time": 0}, {"type": "time_signature", "numerator": 4, "denominator": 4, "clocks_per_click": 24, "notated_32nd_notes_per_beat": 8, "time": 0}, {"type": "note_on", "time": 3960, "note": 72, "velocity": 108, "channel": 0}, {"type": "note_off", "time": 40, "note": 72, "velocity": 108, "channel": 0}, {"type": "note_on", "time": 6, "note": 70, "velocity": 110, "channel": 0}, {"type": "note_off", "time": 63, "note": 70, "velocity": 110, "channel": 0}, {"type": "note_on", "time": 8, "note": 69, "velocity": 93, "channel": 0}, {"type": "note_off", "time": 103, "note": 69, "velocity": 93, "channel": 0}, {"type": "note_on", "time": 7, "note": 70, "velocity": 91, "channel": 0}, {"type": "note_off", "time": 46, "note": 70, "velocity": 91, "channel": 0}, {"type": "note_on", "time": 8, "note": 72, "velocity": 111, "channel": 0}, {"type": "note_off", "time": 90, "note": 72, "velocity": 111, "channel": 0}, {"type": "note_on", "time": 16, "note": 70, "velocity": 107, "channel": 0}, {"type": "note_off", "time": 97, "note": 70, "velocity": 107, "channel": 0}, {"type": "note_on", "time": 3, "note": 69, "velocity": 99, "channel": 0}, {"type": "note_off", "time": 103, "note": 69, "velocity": 99, "channel": 0}, {"type": "note_on", "time": 4, "note": 70, "velocity": 96, "channel": 0}, {"type": "note_off", "time": 48, "note": 70, "velocity": 96, "channel": 0}, {"type": "note_on", "time": 15, "note": 74, "velocity": 107, "channel": 0}, {"type": "note_off", "time": 76, "note": 74, "velocity": 107, "channel": 0}, {"type": "note_on", "time": 19, "note": 70, "velocity": 111, "channel": 0}, {"type": "note_off", "time": 81, "note": 70, "velocity": 111, "channel": 0}, {"type": "note_on", "time": 15, "note": 65, "velocity": 104, "channel": 0}, {"type": "note_off", "time": 76, "note": 65, "velocity": 104, "channel": 0}, {"type": "note_on", "time": 16, "note": 64, "velocity": 93, "channel": 0}, {"type": "note_off", "time": 54, "note": 64, "velocity": 93, "channel": 0}, {"type": "note_on", "time": 19, "note": 69, "velocity": 112, "channel": 0}, {"type": "note_off", "time": 163, "note": 69, "velocity": 112, "channel": 0}, {"type": "note_on", "time": 31, "note": 72, "velocity": 111, "channel": 0}, {"type": "note_off", "time": 83, "note": 72, "velocity": 111, "channel": 0}, {"type": "note_on", "time": 4, "note": 69, "velocity": 117, "channel": 0}, {"type": "note_off", "time": 98, "note": 69, "velocity": 117, "channel": 0}, {"type": "note_on", "time": 6, "note": 70, "velocity": 114, "channel": 0}, {"type": "note_off", "time": 86, "note": 70, "velocity": 114, "channel": 0}, {"type": "note_on", "time": 5, "note": 69, "velocity": 119, "channel": 0}, {"type": "note_off", "time": 86, "note": 69, "velocity": 119, "channel": 0}, {"type": "note_on", "time": 5, "note": 68, "velocity": 119, "channel": 0}, {"type": "note_off", "time": 100, "note": 68, "velocity": 119, "channel": 0}, {"type": "note_on", "time": 6, "note": 67, "velocity": 109, "channel": 0}, {"type": "note_off", "time": 76, "note": 67, "velocity": 109, "channel": 0}, {"type": "note_on", "time": 5, "note": 65, "velocity": 105, "channel": 0}, {"type": "note_off", "time": 106, "note": 65, "velocity": 105, "channel": 0}, {"type": "note_on", "time": 8, "note": 63, "velocity": 95, "channel": 0}, {"type": "note_off", "time": 56, "note": 63, "velocity": 95, "channel": 0}, {"type": "note_on", "time": 9, "note": 61, "velocity": 85, "channel": 0}, {"type": "note_off", "time": 119, "note": 61, "velocity": 85, "channel": 0}, {"type": "note_on", "time": 14, "note": 62, "velocity": 89, "channel": 0}, {"type": "note_off", "time": 41, "note": 62, "velocity": 89, "channel": 0}, {"type": "note_on", "time": 20, "note": 70, "velocity": 114, "channel": 0}, {"type": "note_off", "time": 92, "note": 70, "velocity": 114, "channel": 0}, {"type": "note_on", "time": 9, "note": 65, "velocity": 107, "channel": 0}, {"type": "note_off", "time": 81, "note": 65, "velocity": 107, "channel": 0}, {"type": "note_on", "time": 21, "note": 62, "velocity": 89, "channel": 0}, {"type": "note_off", "time": 86, "note": 62, "velocity": 89, "channel": 0}, {"type": "note_on", "time": 19, "note": 58, "velocity": 93, "channel": 0}, {"type": "note_off", "time": 64, "note": 58, "velocity": 93, "channel": 0}, {"type": "note_on", "time": 12, "note": 63, "velocity": 99, "channel": 0}, {"type": "note_off", "time": 96, "note": 63, "velocity": 99, "channel": 0}, {"type": "note_on", "time": 7, "note": 60, "velocity": 99, "channel": 0}, {"type": "note_off", "time": 60, "note": 60, "velocity": 99, "channel": 0}, {"type": "note_on", "time": 32, "note": 63, "velocity": 100, "channel": 0}, {"type": "note_off", "time": 92, "note": 63, "velocity": 100, "channel": 0}, {"type": "note_on", "time": 14, "note": 61, "velocity": 93, "channel": 0}, {"type": "note_off", "time": 307, "note": 61, "velocity": 93, "channel": 0}, {"type": "note_on", "time": 2044, "note": 69, "velocity": 108, "channel": 0}, {"type": "note_off", "time": 157, "note": 69, "velocity": 108, "channel": 0}, {"type": "note_on", "time": 5, "note": 71, "velocity": 102, "channel": 0}, {"type": "note_off", "time": 110, "note": 71, "velocity": 102, "channel": 0}, {"type": "note_on", "time": 7, "note": 74, "velocity": 96, "channel": 0}, {"type": "note_off", "time": 68, "note": 74, "velocity": 96, "channel": 0}, {"type": "note_on", "time": 9, "note": 79, "velocity": 121, "channel": 0}, {"type": "note_off", "time": 107, "note": 79, "velocity": 121, "channel": 0}, {"type": "note_on", "time": 7, "note": 78, "velocity": 116, "channel": 0}, {"type": "note_off", "time": 57, "note": 78, "velocity": 116, "channel": 0}, {"type": "note_on", "time": 8, "note": 77, "velocity": 117, "channel": 0}, {"type": "note_off", "time": 105, "note": 77, "velocity": 117, "channel": 0}, {"type": "note_on", "time": 14, "note": 76, "velocity": 115, "channel": 0}, {"type": "note_off", "time": 76, "note": 76, "velocity": 115, "channel": 0}, {"type": "note_on", "time": 9, "note": 75, "velocity": 119, "channel": 0}, {"type": "note_off", "time": 90, "note": 75, "velocity": 119, "channel": 0}, {"type": "note_on", "time": 8, "note": 74, "velocity": 97, "channel": 0}, {"type": "note_off", "time": 83, "note": 74, "velocity": 97, "channel": 0}, {"type": "note_on", "time": 11, "note": 72, "velocity": 103, "channel": 0}, {"type": "note_off", "time": 77, "note": 72, "velocity": 103, "channel": 0}, {"type": "note_on", "time": 13, "note": 71, "velocity": 112, "channel": 0}, {"type": "note_off", "time": 103, "note": 71, "velocity": 112, "channel": 0}, {"type": "note_on", "time": 9, "note": 70, "velocity": 115, "channel": 0}, {"type": "note_off", "time": 88, "note": 70, "velocity": 115, "channel": 0}, {"type": "note_on", "time": 2, "note": 67, "velocity": 116, "channel": 0}, {"type": "note_off", "time": 107, "note": 67, "velocity": 116, "channel": 0}, {"type": "note_on", "time": 8, "note": 63, "velocity": 87, "channel": 0}, {"type": "note_off", "time": 81, "note": 63, "velocity": 87, "channel": 0}, {"type": "note_on", "time": 19, "note": 60, "velocity": 98, "channel": 0}, {"type": "note_off", "time": 55, "note": 60, "velocity": 98, "channel": 0}, {"type": "note_on", "time": 30, "note": 65, "velocity": 111, "channel": 0}, {"type": "note_off", "time": 98, "note": 65, "velocity": 111, "channel": 0}, {"type": "note_on", "time": 7, "note": 66, "velocity": 97, "channel": 0}, {"type": "note_off", "time": 55, "note": 66, "velocity": 97, "channel": 0}, {"type": "note_on", "time": 4, "note": 69, "velocity": 112, "channel": 0}, {"type": "note_off", "time": 100, "note": 69, "velocity": 112, "channel": 0}, {"type": "note_on", "time": 6, "note": 68, "velocity": 114, "channel": 0}, {"type": "note_off", "time": 90, "note": 68, "velocity": 114, "channel": 0}, {"type": "note_on", "time": 5, "note": 66, "velocity": 111, "channel": 0}, {"type": "note_off", "time": 93, "note": 66, "velocity": 111, "channel": 0}, {"type": "note_on", "time": 14, "note": 65, "velocity": 110, "channel": 0}, {"type": "note_off", "time": 90, "note": 65, "velocity": 110, "channel": 0}, {"type": "note_on", "time": 8, "note": 63, "velocity": 88, "channel": 0}, {"type": "note_off", "time": 66, "note": 63, "velocity": 88, "channel": 0}, {"type": "note_on", "time": 45, "note": 61, "velocity": 86, "channel": 0}, {"type": "note_off", "time": 60, "note": 61, "velocity": 86, "channel": 0}, {"type": "note_on", "time": 2, "note": 62, "velocity": 83, "channel": 0}, {"type": "note_off", "time": 91, "note": 62, "velocity": 83, "channel": 0}, {"type": "note_on", "time": 24, "note": 65, "velocity": 96, "channel": 0}, {"type": "note_off", "time": 54, "note": 65, "velocity": 96, "channel": 0}, {"type": "note_on", "time": 12, "note": 67, "velocity": 93, "channel": 0}, {"type": "note_off", "time": 107, "note": 67, "velocity": 93, "channel": 0}, {"type": "note_on", "time": 11, "note": 65, "velocity": 91, "channel": 0}, {"type": "note_off", "time": 43, "note": 65, "velocity": 91, "channel": 0}, {"type": "note_on", "time": 8, "note": 69, "velocity": 114, "channel": 0}, {"type": "note_off", "time": 171, "note": 69, "velocity": 114, "channel": 0}, {"type": "note_on", "time": 33, "note": 72, "velocity": 114, "channel": 0}, {"type": "note_off", "time": 96, "note": 72, "velocity": 114, "channel": 0}, {"type": "note_on", "time": 9, "note": 70, "velocity": 109, "channel": 0}, {"type": "note_off", "time": 80, "note": 70, "velocity": 109, "channel": 0}, {"type": "note_on", "time": 13, "note": 69, "velocity": 95, "channel": 0}, {"type": "note_off", "time": 113, "note": 69, "velocity": 95, "channel": 0}, {"type": "note_on", "time": 56, "note": 74, "velocity": 112, "channel": 0}, {"type": "note_off", "time": 96, "note": 74, "velocity": 112, "channel": 0}, {"type": "note_on", "time": 21, "note": 74, "velocity": 114, "channel": 0}, {"type": "note_off", "time": 80, "note": 74, "velocity": 114, "channel": 0}, {"type": "note_on", "time": 5, "note": 77, "velocity": 120, "channel": 0}, {"type": "note_off", "time": 91, "note": 77, "velocity": 120, "channel": 0}, {"type": "note_on", "time": 10, "note": 77, "velocity": 118, "channel": 0}, {"type": "note_off", "time": 74, "note": 77, "velocity": 118, "channel": 0}, {"type": "note_on", "time": 17, "note": 74, "velocity": 109, "channel": 0}, {"type": "note_off", "time": 76, "note": 74, "velocity": 109, "channel": 0}, {"type": "note_on", "time": 26, "note": 74, "velocity": 110, "channel": 0}, {"type": "note_off", "time": 73, "note": 74, "velocity": 110, "channel": 0}, {"type": "note_on", "time": 16, "note": 70, "velocity": 104, "channel": 0}, {"type": "note_off", "time": 97, "note": 70, "velocity": 104, "channel": 0}, {"type": "note_on", "time": 9, "note": 70, "velocity": 107, "channel": 0}, {"type": "note_off", "time": 75, "note": 70, "velocity": 107, "channel": 0}, {"type": "note_on", "time": 6, "note": 67, "velocity": 118, "channel": 0}, {"type": "note_off", "time": 92, "note": 67, "velocity": 118, "channel": 0}, {"type": "note_on", "time": 19, "note": 67, "velocity": 117, "channel": 0}, {"type": "note_off", "time": 63, "note": 67, "velocity": 117, "channel": 0}, {"type": "note_on", "time": 23, "note": 70, "velocity": 98, "channel": 0}, {"type": "note_off", "time": 322, "note": 70, "velocity": 98, "channel": 0}, {"type": "note_on", "time": 43, "note": 67, "velocity": 106, "channel": 0}, {"type": "note_off", "time": 138, "note": 67, "velocity": 106, "channel": 0}, {"type": "note_on", "time": 59, "note": 72, "velocity": 105, "channel": 0}, {"type": "note_off", "time": 97, "note": 72, "velocity": 105, "channel": 0}, {"type": "note_on", "time": 22, "note": 67, "velocity": 108, "channel": 0}, {"type": "note_off", "time": 106, "note": 67, "velocity": 108, "channel": 0}, {"type": "note_on", "time": 76, "note": 70, "velocity": 92, "channel": 0}, {"type": "note_off", "time": 365, "note": 70, "velocity": 92, "channel": 0}, {"type": "note_on", "time": 1147, "note": 72, "velocity": 105, "channel": 0}, {"type": "note_off", "time": 63, "note": 72, "velocity": 105, "channel": 0}, {"type": "note_on", "time": 31, "note": 66, "velocity": 103, "channel": 0}, {"type": "note_off", "time": 119, "note": 66, "velocity": 103, "channel": 0}, {"type": "note_on", "time": 7, "note": 67, "velocity": 85, "channel": 0}, {"type": "note_off", "time": 58, "note": 67, "velocity": 85, "channel": 0}, {"type": "note_on", "time": 14, "note": 70, "velocity": 96, "channel": 0}, {"type": "note_off", "time": 96, "note": 70, "velocity": 96, "channel": 0}, {"type": "note_on", "time": 23, "note": 73, "velocity": 95, "channel": 0}, {"type": "note_off", "time": 55, "note": 73, "velocity": 95, "channel": 0}, {"type": "note_on", "time": 12, "note": 77, "velocity": 122, "channel": 0}, {"type": "note_off", "time": 123, "note": 77, "velocity": 122, "channel": 0}, {"type": "note_on", "time": 5, "note": 76, "velocity": 113, "channel": 0}, {"type": "note_off", "time": 59, "note": 76, "velocity": 113, "channel": 0}, {"type": "note_on", "time": 4, "note": 75, "velocity": 116, "channel": 0}, {"type": "note_off", "time": 84, "note": 75, "velocity": 116, "channel": 0}, {"type": "note_on", "time": 5, "note": 74, "velocity": 115, "channel": 0}, {"type": "note_off", "time": 89, "note": 74, "velocity": 115, "channel": 0}, {"type": "note_on", "time": 5, "note": 72, "velocity": 113, "channel": 0}, {"type": "note_off", "time": 83, "note": 72, "velocity": 113, "channel": 0}, {"type": "note_on", "time": 6, "note": 71, "velocity": 117, "channel": 0}, {"type": "note_off", "time": 93, "note": 71, "velocity": 117, "channel": 0}, {"type": "note_on", "time": 5, "note": 70, "velocity": 113, "channel": 0}, {"type": "note_off", "time": 93, "note": 70, "velocity": 113, "channel": 0}, {"type": "note_on", "time": 5, "note": 67, "velocity": 116, "channel": 0}, {"type": "note_off", "time": 91, "note": 67, "velocity": 116, "channel": 0}, {"type": "note_on", "time": 6, "note": 63, "velocity": 89, "channel": 0}, {"type": "note_off", "time": 103, "note": 63, "velocity": 89, "channel": 0}, {"type": "note_on", "time": 6, "note": 60, "velocity": 88, "channel": 0}, {"type": "note_off", "time": 66, "note": 60, "velocity": 88, "channel": 0}, {"type": "note_on", "time": 15, "note": 66, "velocity": 115, "channel": 0}, {"type": "note_off", "time": 143, "note": 66, "velocity": 115, "channel": 0}, {"type": "note_on", "time": 0, "note": 63, "velocity": 93, "channel": 0}, {"type": "note_off", "time": 33, "note": 63, "velocity": 93, "channel": 0}, {"type": "note_on", "time": 6, "note": 65, "velocity": 103, "channel": 0}, {"type": "note_off", "time": 129, "note": 65, "velocity": 103, "channel": 0}, {"type": "note_on", "time": 14, "note": 63, "velocity": 91, "channel": 0}, {"type": "note_off", "time": 48, "note": 63, "velocity": 91, "channel": 0}, {"type": "note_on", "time": 16, "note": 60, "velocity": 94, "channel": 0}, {"type": "note_off", "time": 120, "note": 60, "velocity": 94, "channel": 0}, {"type": "note_on", "time": 6, "note": 61, "velocity": 91, "channel": 0}, {"type": "note_off", "time": 53, "note": 61, "velocity": 91, "channel": 0}, {"type": "note_on", "time": 10, "note": 62, "velocity": 89, "channel": 0}, {"type": "note_off", "time": 79, "note": 62, "velocity": 89, "channel": 0}, {"type": "note_on", "time": 21, "note": 65, "velocity": 102, "channel": 0}, {"type": "note_off", "time": 72, "note": 65, "velocity": 102, "channel": 0}, {"type": "note_on", "time": 3, "note": 67, "velocity": 123, "channel": 0}, {"type": "note_off", "time": 122, "note": 67, "velocity": 123, "channel": 0}, {"type": "note_on", "time": 5, "note": 65, "velocity": 100, "channel": 0}, {"type": "note_off", "time": 61, "note": 65, "velocity": 100, "channel": 0}, {"type": "note_on", "time": 11, "note": 70, "velocity": 115, "channel": 0}, {"type": "note_off", "time": 106, "note": 70, "velocity": 115, "channel": 0}, {"type": "note_on", "time": 7, "note": 69, "velocity": 119, "channel": 0}, {"type": "note_off", "time": 72, "note": 69, "velocity": 119, "channel": 0}, {"type": "note_on", "time": 9, "note": 68, "velocity": 117, "channel": 0}, {"type": "note_off", "time": 111, "note": 68, "velocity": 117, "channel": 0}, {"type": "note_on", "time": 8, "note": 70, "velocity": 99, "channel": 0}, {"type": "note_off", "time": 51, "note": 70, "velocity": 99, "channel": 0}, {"type": "note_on", "time": 14, "note": 71, "velocity": 109, "channel": 0}, {"type": "note_off", "time": 101, "note": 71, "velocity": 109, "channel": 0}, {"type": "note_on", "time": 4, "note": 67, "velocity": 110, "channel": 0}, {"type": "note_off", "time": 132, "note": 67, "velocity": 110, "channel": 0}, {"type": "note_on", "time": 443, "note": 70, "velocity": 106, "channel": 0}, {"type": "note_off", "time": 40, "note": 70, "velocity": 106, "channel": 0}, {"type": "note_on", "time": 6, "note": 69, "velocity": 113, "channel": 0}, {"type": "note_off", "time": 23, "note": 69, "velocity": 113, "channel": 0}, {"type": "note_on", "time": 3, "note": 67, "velocity": 115, "channel": 0}, {"type": "note_off", "time": 61, "note": 67, "velocity": 115, "channel": 0}, {"type": "note_on", "time": 9, "note": 65, "velocity": 105, "channel": 0}, {"type": "note_off", "time": 100, "note": 65, "velocity": 105, "channel": 0}, {"type": "note_on", "time": 814, "note": 70, "velocity": 109, "channel": 0}, {"type": "note_off", "time": 103, "note": 70, "velocity": 109, "channel": 0}, {"type": "note_on", "time": 13, "note": 70, "velocity": 103, "channel": 0}, {"type": "note_off", "time": 61, "note": 70, "velocity": 103, "channel": 0}, {"type": "note_on", "time": 4, "note": 69, "velocity": 92, "channel": 0}, {"type": "note_off", "time": 110, "note": 69, "velocity": 92, "channel": 0}, {"type": "note_on", "time": 12, "note": 70, "velocity": 94, "channel": 0}, {"type": "note_off", "time": 67, "note": 70, "velocity": 94, "channel": 0}, {"type": "note_on", "time": 5, "note": 72, "velocity": 109, "channel": 0}, {"type": "note_off", "time": 95, "note": 72, "velocity": 109, "channel": 0}, {"type": "note_on", "time": 10, "note": 70, "velocity": 112, "channel": 0}, {"type": "note_off", "time": 80, "note": 70, "velocity": 112, "channel": 0}, {"type": "note_on", "time": 10, "note": 69, "velocity": 111, "channel": 0}, {"type": "note_off", "time": 86, "note": 69, "velocity": 111, "channel": 0}, {"type": "note_on", "time": 5, "note": 67, "velocity": 111, "channel": 0}, {"type": "note_off", "time": 68, "note": 67, "velocity": 111, "channel": 0}, {"type": "note_on", "time": 14, "note": 65, "velocity": 108, "channel": 0}, {"type": "note_off", "time": 72, "note": 65, "velocity": 108, "channel": 0}, {"type": "note_on", "time": 3, "note": 66, "velocity": 98, "channel": 0}, {"type": "note_off", "time": 49, "note": 66, "velocity": 98, "channel": 0}, {"type": "note_on", "time": 4, "note": 65, "velocity": 108, "channel": 0}, {"type": "note_off", "time": 52, "note": 65, "velocity": 108, "channel": 0}, {"type": "note_on", "time": 13, "note": 62, "velocity": 89, "channel": 0}, {"type": "note_off", "time": 76, "note": 62, "velocity": 89, "channel": 0}, {"type": "note_on", "time": 32, "note": 65, "velocity": 97, "channel": 0}, {"type": "note_off", "time": 66, "note": 65, "velocity": 97, "channel": 0}, {"type": "note_on", "time": 23, "note": 70, "velocity": 115, "channel": 0}, {"type": "note_off", "time": 90, "note": 70, "velocity": 115, "channel": 0}, {"type": "note_on", "time": 13, "note": 70, "velocity": 99, "channel": 0}, {"type": "note_off", "time": 28, "note": 70, "velocity": 99, "channel": 0}, {"type": "note_on", "time": 16, "note": 65, "velocity": 105, "channel": 0}, {"type": "note_off", "time": 61, "note": 65, "velocity": 105, "channel": 0}, {"type": "note_on", "time": 4, "note": 67, "velocity": 110, "channel": 0}, {"type": "note_off", "time": 82, "note": 67, "velocity": 110, "channel": 0}, {"type": "note_on", "time": 16, "note": 70, "velocity": 106, "channel": 0}, {"type": "note_off", "time": 41, "note": 70, "velocity": 106, "channel": 0}, {"type": "note_on", "time": 7, "note": 67, "velocity": 103, "channel": 0}, {"type": "note_off", "time": 63, "note": 67, "velocity": 103, "channel": 0}, {"type": "note_on", "time": 6, "note": 63, "velocity": 85, "channel": 0}, {"type": "note_off", "time": 53, "note": 63, "velocity": 85, "channel": 0}, {"type": "note_on", "time": 45, "note": 67, "velocity": 88, "channel": 0}, {"type": "note_off", "time": 54, "note": 67, "velocity": 88, "channel": 0}, {"type": "note_on", "time": 21, "note": 72, "velocity": 117, "channel": 0}, {"type": "note_off", "time": 86, "note": 72, "velocity": 117, "channel": 0}, {"type": "note_on", "time": 11, "note": 67, "velocity": 108, "channel": 0}, {"type": "note_off", "time": 71, "note": 67, "velocity": 108, "channel": 0}, {"type": "note_on", "time": 3, "note": 69, "velocity": 103, "channel": 0}, {"type": "note_off", "time": 82, "note": 69, "velocity": 103, "channel": 0}, {"type": "note_on", "time": 6, "note": 70, "velocity": 115, "channel": 0}, {"type": "note_off", "time": 50, "note": 70, "velocity": 115, "channel": 0}, {"type": "note_on", "time": 3, "note": 69, "velocity": 110, "channel": 0}, {"type": "note_off", "time": 50, "note": 69, "velocity": 110, "channel": 0}, {"type": "note_on", "time": 2, "note": 65, "velocity": 105, "channel": 0}, {"type": "note_off", "time": 131, "note": 65, "velocity": 105, "channel": 0}, {"type": "note_on", "time": 244, "note": 67, "velocity": 109, "channel": 0}, {"type": "note_off", "time": 119, "note": 67, "velocity": 109, "channel": 0}, {"type": "note_on", "time": 1, "note": 69, "velocity": 94, "channel": 0}, {"type": "note_off", "time": 39, "note": 69, "velocity": 94, "channel": 0}, {"type": "note_on", "time": 15, "note": 72, "velocity": 115, "channel": 0}, {"type": "note_off", "time": 98, "note": 72, "velocity": 115, "channel": 0}, {"type": "note_on", "time": 13, "note": 70, "velocity": 114, "channel": 0}, {"type": "note_off", "time": 84, "note": 70, "velocity": 114, "channel": 0}, {"type": "note_on", "time": 12, "note": 69, "velocity": 108, "channel": 0}, {"type": "note_off", "time": 68, "note": 69, "velocity": 108, "channel": 0}, {"type": "note_on", "time": 8, "note": 70, "velocity": 102, "channel": 0}, {"type": "note_off", "time": 77, "note": 70, "velocity": 102, "channel": 0}, {"type": "note_on", "time": 17, "note": 72, "velocity": 108, "channel": 0}, {"type": "note_off", "time": 108, "note": 72, "velocity": 108, "channel": 0}, {"type": "note_on", "time": 5, "note": 74, "velocity": 111, "channel": 0}, {"type": "note_off", "time": 63, "note": 74, "velocity": 111, "channel": 0}, {"type": "note_on", "time": 6, "note": 75, "velocity": 117, "channel": 0}, {"type": "note_off", "time": 98, "note": 75, "velocity": 117, "channel": 0}, {"type": "note_on", "time": 10, "note": 76, "velocity": 108, "channel": 0}, {"type": "note_off", "time": 83, "note": 76, "velocity": 108, "channel": 0}, {"type": "note_on", "time": 1, "note": 77, "velocity": 119, "channel": 0}, {"type": "note_off", "time": 105, "note": 77, "velocity": 119, "channel": 0}, {"type": "note_on", "time": 7, "note": 74, "velocity": 110, "channel": 0}, {"type": "note_off", "time": 56, "note": 74, "velocity": 110, "channel": 0}, {"type": "note_on", "time": 6, "note": 70, "velocity": 117, "channel": 0}, {"type": "note_off", "time": 104, "note": 70, "velocity": 117, "channel": 0}, {"type": "note_on", "time": 9, "note": 69, "velocity": 118, "channel": 0}, {"type": "note_off", "time": 94, "note": 69, "velocity": 118, "channel": 0}, {"type": "note_on", "time": 4, "note": 67, "velocity": 96, "channel": 0}, {"type": "note_off", "time": 85, "note": 67, "velocity": 96, "channel": 0}, {"type": "note_on", "time": 15, "note": 68, "velocity": 112, "channel": 0}, {"type": "note_off", "time": 93, "note": 68, "velocity": 112, "channel": 0}, {"type": "note_on", "time": 103, "note": 74, "velocity": 115, "channel": 0}, {"type": "note_off", "time": 72, "note": 74, "velocity": 115, "channel": 0}, {"type": "note_on", "time": 8, "note": 78, "velocity": 119, "channel": 0}, {"type": "note_off", "time": 108, "note": 78, "velocity": 119, "channel": 0}, {"type": "note_on", "time": 6, "note": 74, "velocity": 112, "channel": 0}, {"type": "note_off", "time": 81, "note": 74, "velocity": 112, "channel": 0}, {"type": "note_on", "time": 10, "note": 71, "velocity": 118, "channel": 0}, {"type": "note_off", "time": 74, "note": 71, "velocity": 118, "channel": 0}, {"type": "note_on", "time": 11, "note": 68, "velocity": 108, "channel": 0}, {"type": "note_off", "time": 89, "note": 68, "velocity": 108, "channel": 0}, {"type": "note_on", "time": 12, "note": 66, "velocity": 95, "channel": 0}, {"type": "note_off", "time": 139, "note": 66, "velocity": 95, "channel": 0}, {"type": "note_on", "time": 134, "note": 70, "velocity": 82, "channel": 0}, {"type": "note_off", "time": 44, "note": 70, "velocity": 82, "channel": 0}, {"type": "note_on", "time": 9, "note": 73, "velocity": 97, "channel": 0}, {"type": "note_off", "time": 55, "note": 73, "velocity": 97, "channel": 0}, {"type": "note_on", "time": 12, "note": 75, "velocity": 115, "channel": 0}, {"type": "note_off", "time": 127, "note": 75, "velocity": 115, "channel": 0}, {"type": "note_on", "time": 9, "note": 73, "velocity": 92, "channel": 0}, {"type": "note_off", "time": 44, "note": 73, "velocity": 92, "channel": 0}, {"type": "note_on", "time": 9, "note": 75, "velocity": 113, "channel": 0}, {"type": "note_off", "time": 106, "note": 75, "velocity": 113, "channel": 0}, {"type": "note_on", "time": 7, "note": 73, "velocity": 85, "channel": 0}, {"type": "note_off", "time": 258, "note": 73, "velocity": 85, "channel": 0}, {"type": "note_on", "time": 1222, "note": 69, "velocity": 113, "channel": 0}, {"type": "note_off", "time": 84, "note": 69, "velocity": 113, "channel": 0}, {"type": "note_on", "time": 3, "note": 72, "velocity": 110, "channel": 0}, {"type": "note_off", "time": 95, "note": 72, "velocity": 110, "channel": 0}, {"type": "note_on", "time": 10, "note": 70, "velocity": 110, "channel": 0}, {"type": "note_off", "time": 99, "note": 70, "velocity": 110, "channel": 0}, {"type": "note_on", "time": 5, "note": 69, "velocity": 110, "channel": 0}, {"type": "note_off", "time": 102, "note": 69, "velocity": 110, "channel": 0}, {"type": "note_on", "time": 2, "note": 70, "velocity": 107, "channel": 0}, {"type": "note_off", "time": 60, "note": 70, "velocity": 107, "channel": 0}, {"type": "note_on", "time": 6, "note": 69, "velocity": 114, "channel": 0}, {"type": "note_off", "time": 114, "note": 69, "velocity": 114, "channel": 0}, {"type": "note_on", "time": 12, "note": 68, "velocity": 96, "channel": 0}, {"type": "note_off", "time": 71, "note": 68, "velocity": 96, "channel": 0}, {"type": "note_on", "time": 9, "note": 67, "velocity": 102, "channel": 0}, {"type": "note_off", "time": 93, "note": 67, "velocity": 102, "channel": 0}, {"type": "note_on", "time": 16, "note": 69, "velocity": 101, "channel": 0}, {"type": "note_off", "time": 61, "note": 69, "velocity": 101, "channel": 0}, {"type": "note_on", "time": 5, "note": 70, "velocity": 113, "channel": 0}, {"type": "note_off", "time": 99, "note": 70, "velocity": 113, "channel": 0}, {"type": "note_on", "time": 8, "note": 67, "velocity": 107, "channel": 0}, {"type": "note_off", "time": 95, "note": 67, "velocity": 107, "channel": 0}, {"type": "note_on", "time": 8, "note": 63, "velocity": 87, "channel": 0}, {"type": "note_off", "time": 108, "note": 63, "velocity": 87, "channel": 0}, {"type": "note_on", "time": 12, "note": 60, "velocity": 97, "channel": 0}, {"type": "note_off", "time": 61, "note": 60, "velocity": 97, "channel": 0}, {"type": "note_on", "time": 13, "note": 65, "velocity": 111, "channel": 0}, {"type": "note_off", "time": 114, "note": 65, "velocity": 111, "channel": 0}, {"type": "note_on", "time": 5, "note": 64, "velocity": 104, "channel": 0}, {"type": "note_off", "time": 68, "note": 64, "velocity": 104, "channel": 0}, {"type": "note_on", "time": 26, "note": 63, "velocity": 100, "channel": 0}, {"type": "note_off", "time": 41, "note": 63, "velocity": 100, "channel": 0}, {"type": "note_on", "time": 3, "note": 62, "velocity": 88, "channel": 0}, {"type": "note_off", "time": 32, "note": 62, "velocity": 88, "channel": 0}, {"type": "note_on", "time": 35, "note": 51, "velocity": 100, "channel": 0}, {"type": "note_off", "time": 46, "note": 51, "velocity": 100, "channel": 0}, {"type": "note_on", "time": 24, "note": 53, "velocity": 96, "channel": 0}, {"type": "note_off", "time": 90, "note": 53, "velocity": 96, "channel": 0}, {"type": "note_on", "time": 30, "note": 57, "velocity": 100, "channel": 0}, {"type": "note_off", "time": 38, "note": 57, "velocity": 100, "channel": 0}, {"type": "note_on", "time": 22, "note": 61, "velocity": 111, "channel": 0}, {"type": "note_off", "time": 113, "note": 61, "velocity": 111, "channel": 0}, {"type": "note_on", "time": 9, "note": 57, "velocity": 104, "channel": 0}, {"type": "note_off", "time": 44, "note": 57, "velocity": 104, "channel": 0}, {"type": "note_on", "time": 17, "note": 60, "velocity": 107, "channel": 0}, {"type": "note_off", "time": 111, "note": 60, "velocity": 107, "channel": 0}, {"type": "note_on", "time": 11, "note": 58, "velocity": 107, "channel": 0}, {"type": "note_off", "time": 74, "note": 58, "velocity": 107, "channel": 0}, {"type": "note_on", "time": 3, "note": 57, "velocity": 108, "channel": 0}, {"type": "note_off", "time": 62, "note": 57, "velocity": 108, "channel": 0}, {"type": "note_on", "time": 29, "note": 70, "velocity": 104, "channel": 0}, {"type": "note_off", "time": 82, "note": 70, "velocity": 104, "channel": 0}, {"type": "note_on", "time": 20, "note": 67, "velocity": 118, "channel": 0}, {"type": "note_off", "time": 98, "note": 67, "velocity": 118, "channel": 0}, {"type": "note_on", "time": 7, "note": 66, "velocity": 107, "channel": 0}, {"type": "note_off", "time": 82, "note": 66, "velocity": 107, "channel": 0}, {"type": "note_on", "time": 13, "note": 53, "velocity": 112, "channel": 0}, {"type": "note_off", "time": 86, "note": 53, "velocity": 112, "channel": 0}, {"type": "note_on", "time": 14, "note": 51, "velocity": 115, "channel": 0}, {"type": "note_off", "time": 91, "note": 51, "velocity": 115, "channel": 0}, {"type": "note_on", "time": 155, "note": 53, "velocity": 98, "channel": 0}, {"type": "note_off", "time": 60, "note": 53, "velocity": 98, "channel": 0}, {"type": "note_on", "time": 2, "note": 55, "velocity": 105, "channel": 0}, {"type": "note_off", "time": 87, "note": 55, "velocity": 105, "channel": 0}, {"type": "note_on", "time": 11, "note": 53, "velocity": 99, "channel": 0}, {"type": "note_off", "time": 74, "note": 53, "velocity": 99, "channel": 0}, {"type": "note_on", "time": 12, "note": 58, "velocity": 107, "channel": 0}, {"type": "note_off", "time": 131, "note": 58, "velocity": 107, "channel": 0}, {"type": "note_on", "time": 715, "note": 62, "velocity": 107, "channel": 0}, {"type": "note_off", "time": 97, "note": 62, "velocity": 107, "channel": 0}, {"type": "note_on", "time": 4, "note": 56, "velocity": 100, "channel": 0}, {"type": "note_off", "time": 99, "note": 56, "velocity": 100, "channel": 0}, {"type": "note_on", "time": 5, "note": 57, "velocity": 101, "channel": 0}, {"type": "note_off", "time": 74, "note": 57, "velocity": 101, "channel": 0}, {"type": "note_on", "time": 11, "note": 60, "velocity": 115, "channel": 0}, {"type": "note_off", "time": 106, "note": 60, "velocity": 115, "channel": 0}, {"type": "note_on", "time": 6, "note": 58, "velocity": 105, "channel": 0}, {"type": "note_off", "time": 79, "note": 58, "velocity": 105, "channel": 0}, {"type": "note_on", "time": 184, "note": 62, "velocity": 95, "channel": 0}, {"type": "note_off", "time": 95, "note": 62, "velocity": 95, "channel": 0}, {"type": "note_on", "time": 23, "note": 65, "velocity": 95, "channel": 0}, {"type": "note_off", "time": 53, "note": 65, "velocity": 95, "channel": 0}, {"type": "note_on", "time": 16, "note": 67, "velocity": 107, "channel": 0}, {"type": "note_off", "time": 103, "note": 67, "velocity": 107, "channel": 0}, {"type": "note_on", "time": 9, "note": 65, "velocity": 95, "channel": 0}, {"type": "note_off", "time": 50, "note": 65, "velocity": 95, "channel": 0}, {"type": "note_on", "time": 13, "note": 70, "velocity": 114, "channel": 0}, {"type": "note_off", "time": 99, "note": 70, "velocity": 114, "channel": 0}, {"type": "note_on", "time": 16, "note": 67, "velocity": 107, "channel": 0}, {"type": "note_off", "time": 69, "note": 67, "velocity": 107, "channel": 0}, {"type": "note_on", "time": 20, "note": 63, "velocity": 88, "channel": 0}, {"type": "note_off", "time": 97, "note": 63, "velocity": 88, "channel": 0}, {"type": "note_on", "time": 11, "note": 60, "velocity": 88, "channel": 0}, {"type": "note_off", "time": 57, "note": 60, "velocity": 88, "channel": 0}, {"type": "note_on", "time": 7, "note": 65, "velocity": 112, "channel": 0}, {"type": "note_off", "time": 76, "note": 65, "velocity": 112, "channel": 0}, {"type": "note_on", "time": 3, "note": 67, "velocity": 106, "channel": 0}, {"type": "note_off", "time": 44, "note": 67, "velocity": 106, "channel": 0}, {"type": "note_on", "time": 7, "note": 65, "velocity": 109, "channel": 0}, {"type": "note_off", "time": 83, "note": 65, "velocity": 109, "channel": 0}, {"type": "note_on", "time": 21, "note": 64, "velocity": 91, "channel": 0}, {"type": "note_off", "time": 100, "note": 64, "velocity": 91, "channel": 0}, {"type": "note_on", "time": 18, "note": 65, "velocity": 100, "channel": 0}, {"type": "note_off", "time": 58, "note": 65, "velocity": 100, "channel": 0}, {"type": "note_on", "time": 18, "note": 67, "velocity": 120, "channel": 0}, {"type": "note_off", "time": 90, "note": 67, "velocity": 120, "channel": 0}, {"type": "note_on", "time": 10, "note": 65, "velocity": 103, "channel": 0}, {"type": "note_off", "time": 146, "note": 65, "velocity": 103, "channel": 0}, {"type": "note_on", "time": 83, "note": 70, "velocity": 114, "channel": 0}, {"type": "note_off", "time": 143, "note": 70, "velocity": 114, "channel": 0}, {"type": "note_on", "time": 13, "note": 72, "velocity": 108, "channel": 0}, {"type": "note_off", "time": 33, "note": 72, "velocity": 108, "channel": 0}, {"type": "note_on", "time": 8, "note": 70, "velocity": 114, "channel": 0}, {"type": "note_off", "time": 40, "note": 70, "velocity": 114, "channel": 0}, {"type": "note_on", "time": 6, "note": 69, "velocity": 92, "channel": 0}, {"type": "note_off", "time": 95, "note": 69, "velocity": 92, "channel": 0}, {"type": "note_on", "time": 16, "note": 70, "velocity": 80, "channel": 0}, {"type": "note_off", "time": 43, "note": 70, "velocity": 80, "channel": 0}, {"type": "note_on", "time": 11, "note": 72, "velocity": 111, "channel": 0}, {"type": "note_off", "time": 96, "note": 72, "velocity": 111, "channel": 0}, {"type": "note_on", "time": 5, "note": 70, "velocity": 116, "channel": 0}, {"type": "note_off", "time": 86, "note": 70, "velocity": 116, "channel": 0}, {"type": "note_on", "time": 12, "note": 69, "velocity": 98, "channel": 0}, {"type": "note_off", "time": 68, "note": 69, "velocity": 98, "channel": 0}, {"type": "note_on", "time": 11, "note": 70, "velocity": 92, "channel": 0}, {"type": "note_off", "time": 80, "note": 70, "velocity": 92, "channel": 0}, {"type": "note_on", "time": 5, "note": 73, "velocity": 115, "channel": 0}, {"type": "note_off", "time": 98, "note": 73, "velocity": 115, "channel": 0}, {"type": "note_on", "time": 14, "note": 75, "velocity": 105, "channel": 0}, {"type": "note_off", "time": 26, "note": 75, "velocity": 105, "channel": 0}, {"type": "note_on", "time": 5, "note": 73, "velocity": 118, "channel": 0}, {"type": "note_off", "time": 50, "note": 73, "velocity": 118, "channel": 0}, {"type": "note_on", "time": 9, "note": 72, "velocity": 103, "channel": 0}, {"type": "note_off", "time": 86, "note": 72, "velocity": 103, "channel": 0}, {"type": "note_on", "time": 42, "note": 73, "velocity": 99, "channel": 0}, {"type": "note_off", "time": 49, "note": 73, "velocity": 99, "channel": 0}, {"type": "note_on", "time": 17, "note": 75, "velocity": 118, "channel": 0}, {"type": "note_off", "time": 90, "note": 75, "velocity": 118, "channel": 0}, {"type": "note_on", "time": 15, "note": 73, "velocity": 106, "channel": 0}, {"type": "note_off", "time": 65, "note": 73, "velocity": 106, "channel": 0}, {"type": "note_on", "time": 8, "note": 70, "velocity": 113, "channel": 0}, {"type": "note_off", "time": 110, "note": 70, "velocity": 113, "channel": 0}, {"type": "note_on", "time": 4, "note": 67, "velocity": 98, "channel": 0}, {"type": "note_off", "time": 120, "note": 67, "velocity": 98, "channel": 0}, {"type": "note_on", "time": 932, "note": 73, "velocity": 120, "channel": 0}, {"type": "note_off", "time": 132, "note": 73, "velocity": 120, "channel": 0}, {"type": "note_on", "time": 58, "note": 74, "velocity": 112, "channel": 0}, {"type": "note_off", "time": 109, "note": 74, "velocity": 112, "channel": 0}, {"type": "note_on", "time": 5, "note": 75, "velocity": 102, "channel": 0}, {"type": "note_off", "time": 33, "note": 75, "velocity": 102, "channel": 0}, {"type": "note_on", "time": 1, "note": 74, "velocity": 115, "channel": 0}, {"type": "note_off", "time": 51, "note": 74, "velocity": 115, "channel": 0}, {"type": "note_on", "time": 2, "note": 69, "velocity": 109, "channel": 0}, {"type": "note_off", "time": 138, "note": 69, "velocity": 109, "channel": 0}, {"type": "note_on", "time": 57, "note": 70, "velocity": 109, "channel": 0}, {"type": "note_off", "time": 106, "note": 70, "velocity": 109, "channel": 0}, {"type": "note_on", "time": 11, "note": 74, "velocity": 106, "channel": 0}, {"type": "note_off", "time": 49, "note": 74, "velocity": 106, "channel": 0}, {"type": "note_on", "time": 3, "note": 70, "velocity": 101, "channel": 0}, {"type": "note_off", "time": 35, "note": 70, "velocity": 101, "channel": 0}, {"type": "note_on", "time": 5, "note": 65, "velocity": 100, "channel": 0}, {"type": "note_off", "time": 118, "note": 65, "velocity": 100, "channel": 0}, {"type": "note_on", "time": 63, "note": 68, "velocity": 122, "channel": 0}, {"type": "note_off", "time": 103, "note": 68, "velocity": 122, "channel": 0}, {"type": "note_on", "time": 3, "note": 67, "velocity": 115, "channel": 0}, {"type": "note_off", "time": 114, "note": 67, "velocity": 115, "channel": 0}, {"type": "note_on", "time": 88, "note": 67, "velocity": 99, "channel": 0}, {"type": "note_off", "time": 58, "note": 67, "velocity": 99, "channel": 0}, {"type": "note_on", "time": 10, "note": 70, "velocity": 111, "channel": 0}, {"type": "note_off", "time": 114, "note": 70, "velocity": 111, "channel": 0}, {"type": "note_on", "time": 8, "note": 67, "velocity": 98, "channel": 0}, {"type": "note_off", "time": 55, "note": 67, "velocity": 98, "channel": 0}, {"type": "note_on", "time": 7, "note": 70, "velocity": 112, "channel": 0}, {"type": "note_off", "time": 104, "note": 70, "velocity": 112, "channel": 0}, {"type": "note_on", "time": 13, "note": 74, "velocity": 113, "channel": 0}, {"type": "note_off", "time": 63, "note": 74, "velocity": 113, "channel": 0}, {"type": "note_on", "time": 3, "note": 77, "velocity": 120, "channel": 0}, {"type": "note_off", "time": 136, "note": 77, "velocity": 120, "channel": 0}, {"type": "note_on", "time": 3, "note": 76, "velocity": 113, "channel": 0}, {"type": "note_off", "time": 41, "note": 76, "velocity": 113, "channel": 0}, {"type": "note_on", "time": 6, "note": 75, "velocity": 107, "channel": 0}, {"type": "note_off", "time": 110, "note": 75, "velocity": 107, "channel": 0}, {"type": "note_on", "time": 53, "note": 65, "velocity": 106, "channel": 0}, {"type": "note_off", "time": 65, "note": 65, "velocity": 106, "channel": 0}, {"type": "note_on", "time": 14, "note": 66, "velocity": 99, "channel": 0}, {"type": "note_off", "time": 77, "note": 66, "velocity": 99, "channel": 0}, {"type": "note_on", "time": 19, "note": 69, "velocity": 88, "channel": 0}, {"type": "note_off", "time": 52, "note": 69, "velocity": 88, "channel": 0}, {"type": "note_on", "time": 21, "note": 74, "velocity": 108, "channel": 0}, {"type": "note_off", "time": 128, "note": 74, "velocity": 108, "channel": 0}, {"type": "note_on", "time": 5, "note": 69, "velocity": 95, "channel": 0}, {"type": "note_off", "time": 39, "note": 69, "velocity": 95, "channel": 0}, {"type": "note_on", "time": 25, "note": 74, "velocity": 112, "channel": 0}, {"type": "note_off", "time": 108, "note": 74, "velocity": 112, "channel": 0}, {"type": "note_on", "time": 9, "note": 72, "velocity": 107, "channel": 0}, {"type": "note_off", "time": 91, "note": 72, "velocity": 107, "channel": 0}, {"type": "note_on", "time": 4, "note": 69, "velocity": 112, "channel": 0}, {"type": "note_off", "time": 103, "note": 69, "velocity": 112, "channel": 0}, {"type": "note_on", "time": 11, "note": 65, "velocity": 102, "channel": 0}, {"type": "note_off", "time": 51, "note": 65, "velocity": 102, "channel": 0}, {"type": "note_on", "time": 13, "note": 70, "velocity": 84, "channel": 0}, {"type": "note_off", "time": 342, "note": 70, "velocity": 84, "channel": 0}, {"type": "note_on", "time": 1211, "note": 70, "velocity": 113, "channel": 0}, {"type": "note_off", "time": 79, "note": 70, "velocity": 113, "channel": 0}, {"type": "note_on", "time": 2, "note": 72, "velocity": 99, "channel": 0}, {"type": "note_off", "time": 42, "note": 72, "velocity": 99, "channel": 0}, {"type": "note_on", "time": 3, "note": 70, "velocity": 111, "channel": 0}, {"type": "note_off", "time": 43, "note": 70, "velocity": 111, "channel": 0}, {"type": "note_on", "time": 4, "note": 67, "velocity": 113, "channel": 0}, {"type": "note_off", "time": 104, "note": 67, "velocity": 113, "channel": 0}, {"type": "note_on", "time": 93, "note": 70, "velocity": 115, "channel": 0}, {"type": "note_off", "time": 101, "note": 70, "velocity": 115, "channel": 0}, {"type": "note_on", "time": 4, "note": 72, "velocity": 107, "channel": 0}, {"type": "note_off", "time": 40, "note": 72, "velocity": 107, "channel": 0}, {"type": "note_on", "time": 5, "note": 70, "velocity": 115, "channel": 0}, {"type": "note_off", "time": 55, "note": 70, "velocity": 115, "channel": 0}, {"type": "note_on", "time": 3, "note": 67, "velocity": 118, "channel": 0}, {"type": "note_off", "time": 88, "note": 67, "velocity": 118, "channel": 0}, {"type": "note_on", "time": 97, "note": 70, "velocity": 118, "channel": 0}, {"type": "note_off", "time": 110, "note": 70, "velocity": 118, "channel": 0}, {"type": "note_on", "time": 5, "note": 72, "velocity": 101, "channel": 0}, {"type": "note_off", "time": 28, "note": 72, "velocity": 101, "channel": 0}, {"type": "note_on", "time": 3, "note": 70, "velocity": 111, "channel": 0}, {"type": "note_off", "time": 43, "note": 70, "velocity": 111, "channel": 0}, {"type": "note_on", "time": 9, "note": 67, "velocity": 101, "channel": 0}, {"type": "note_off", "time": 113, "note": 67, "velocity": 101, "channel": 0}, {"type": "note_on", "time": 10, "note": 69, "velocity": 79, "channel": 0}, {"type": "note_off", "time": 46, "note": 69, "velocity": 79, "channel": 0}, {"type": "note_on", "time": 7, "note": 72, "velocity": 114, "channel": 0}, {"type": "note_off", "time": 104, "note": 72, "velocity": 114, "channel": 0}, {"type": "note_on", "time": 2, "note": 73, "velocity": 112, "channel": 0}, {"type": "note_off", "time": 118, "note": 73, "velocity": 112, "channel": 0}, {"type": "note_on", "time": 2, "note": 72, "velocity": 116, "channel": 0}, {"type": "note_off", "time": 64, "note": 72, "velocity": 116, "channel": 0}, {"type": "note_on", "time": 12, "note": 71, "velocity": 115, "channel": 0}, {"type": "note_off", "time": 68, "note": 71, "velocity": 115, "channel": 0}, {"type": "note_on", "time": 12, "note": 70, "velocity": 115, "channel": 0}, {"type": "note_off", "time": 98, "note": 70, "velocity": 115, "channel": 0}, {"type": "note_on", "time": 7, "note": 67, "velocity": 114, "channel": 0}, {"type": "note_off", "time": 106, "note": 67, "velocity": 114, "channel": 0}, {"type": "note_on", "time": 12, "note": 63, "velocity": 88, "channel": 0}, {"type": "note_off", "time": 74, "note": 63, "velocity": 88, "channel": 0}, {"type": "note_on", "time": 13, "note": 60, "velocity": 85, "channel": 0}, {"type": "note_off", "time": 58, "note": 60, "velocity": 85, "channel": 0}, {"type": "note_on", "time": 11, "note": 65, "velocity": 114, "channel": 0}, {"type": "note_off", "time": 116, "note": 65, "velocity": 114, "channel": 0}, {"type": "note_on", "time": 14, "note": 63, "velocity": 89, "channel": 0}, {"type": "note_off", "time": 74, "note": 63, "velocity": 89, "channel": 0}, {"type": "note_on", "time": 18, "note": 60, "velocity": 84, "channel": 0}, {"type": "note_off", "time": 69, "note": 60, "velocity": 84, "channel": 0}, {"type": "note_on", "time": 20, "note": 61, "velocity": 94, "channel": 0}, {"type": "note_off", "time": 75, "note": 61, "velocity": 94, "channel": 0}, {"type": "note_on", "time": 16, "note": 62, "velocity": 95, "channel": 0}, {"type": "note_off", "time": 81, "note": 62, "velocity": 95, "channel": 0}, {"type": "note_on", "time": 26, "note": 65, "velocity": 108, "channel": 0}, {"type": "note_off", "time": 53, "note": 65, "velocity": 108, "channel": 0}, {"type": "note_on", "time": 9, "note": 67, "velocity": 124, "channel": 0}, {"type": "note_off", "time": 121, "note": 67, "velocity": 124, "channel": 0}, {"type": "note_on", "time": 11, "note": 65, "velocity": 103, "channel": 0}, {"type": "note_off", "time": 60, "note": 65, "velocity": 103, "channel": 0}, {"type": "note_on", "time": 6, "note": 70, "velocity": 117, "channel": 0}, {"type": "note_off", "time": 113, "note": 70, "velocity": 117, "channel": 0}, {"type": "note_on", "time": 12, "note": 71, "velocity": 108, "channel": 0}, {"type": "note_off", "time": 269, "note": 71, "velocity": 108, "channel": 0}, {"type": "note_on", "time": 10, "note": 70, "velocity": 85, "channel": 0}, {"type": "note_off", "time": 363, "note": 70, "velocity": 85, "channel": 0}, {"type": "note_on", "time": 1597, "note": 69, "velocity": 107, "channel": 0}, {"type": "note_off", "time": 136, "note": 69, "velocity": 107, "channel": 0}, {"type": "note_on", "time": 17, "note": 74, "velocity": 101, "channel": 0}, {"type": "note_off", "time": 96, "note": 74, "velocity": 101, "channel": 0}, {"type": "note_on", "time": 24, "note": 76, "velocity": 111, "channel": 0}, {"type": "note_off", "time": 58, "note": 76, "velocity": 111, "channel": 0}, {"type": "note_on", "time": 19, "note": 81, "velocity": 122, "channel": 0}, {"type": "note_off", "time": 96, "note": 81, "velocity": 122, "channel": 0}, {"type": "note_on", "time": 16, "note": 82, "velocity": 124, "channel": 0}, {"type": "note_off", "time": 85, "note": 82, "velocity": 124, "channel": 0}, {"type": "note_on", "time": 6, "note": 81, "velocity": 121, "channel": 0}, {"type": "note_off", "time": 90, "note": 81, "velocity": 121, "channel": 0}, {"type": "note_on", "time": 3, "note": 79, "velocity": 121, "channel": 0}, {"type": "note_off", "time": 87, "note": 79, "velocity": 121, "channel": 0}, {"type": "note_on", "time": 8, "note": 78, "velocity": 119, "channel": 0}, {"type": "note_off", "time": 88, "note": 78, "velocity": 119, "channel": 0}, {"type": "note_on", "time": 15, "note": 77, "velocity": 121, "channel": 0}, {"type": "note_off", "time": 72, "note": 77, "velocity": 121, "channel": 0}, {"type": "note_on", "time": 6, "note": 74, "velocity": 113, "channel": 0}, {"type": "note_off", "time": 80, "note": 74, "velocity": 113, "channel": 0}, {"type": "note_on", "time": 16, "note": 71, "velocity": 102, "channel": 0}, {"type": "note_off", "time": 95, "note": 71, "velocity": 102, "channel": 0}, {"type": "note_on", "time": 12, "note": 66, "velocity": 99, "channel": 0}, {"type": "note_off", "time": 95, "note": 66, "velocity": 99, "channel": 0}, {"type": "note_on", "time": 10, "note": 67, "velocity": 89, "channel": 0}, {"type": "note_off", "time": 56, "note": 67, "velocity": 89, "channel": 0}, {"type": "note_on", "time": 3, "note": 70, "velocity": 105, "channel": 0}, {"type": "note_off", "time": 93, "note": 70, "velocity": 105, "channel": 0}, {"type": "note_on", "time": 30, "note": 74, "velocity": 108, "channel": 0}, {"type": "note_off", "time": 79, "note": 74, "velocity": 108, "channel": 0}, {"type": "note_on", "time": 3, "note": 77, "velocity": 119, "channel": 0}, {"type": "note_off", "time": 146, "note": 77, "velocity": 119, "channel": 0}, {"type": "note_on", "time": 3, "note": 76, "velocity": 107, "channel": 0}, {"type": "note_off", "time": 39, "note": 76, "velocity": 107, "channel": 0}, {"type": "note_on", "time": 9, "note": 75, "velocity": 107, "channel": 0}, {"type": "note_off", "time": 96, "note": 75, "velocity": 107, "channel": 0}, {"type": "note_on", "time": 18, "note": 67, "velocity": 121, "channel": 0}, {"type": "note_off", "time": 93, "note": 67, "velocity": 121, "channel": 0}, {"type": "note_on", "time": 4, "note": 66, "velocity": 101, "channel": 0}, {"type": "note_off", "time": 59, "note": 66, "velocity": 101, "channel": 0}, {"type": "note_on", "time": 49, "note": 67, "velocity": 97, "channel": 0}, {"type": "note_off", "time": 52, "note": 67, "velocity": 97, "channel": 0}, {"type": "note_on", "time": 33, "note": 74, "velocity": 110, "channel": 0}, {"type": "note_off", "time": 96, "note": 74, "velocity": 110, "channel": 0}, {"type": "note_on", "time": 10, "note": 73, "velocity": 109, "channel": 0}, {"type": "note_off", "time": 82, "note": 73, "velocity": 109, "channel": 0}, {"type": "note_on", "time": 6, "note": 72, "velocity": 95, "channel": 0}, {"type": "note_off", "time": 99, "note": 72, "velocity": 95, "channel": 0}, {"type": "note_on", "time": 18, "note": 65, "velocity": 97, "channel": 0}, {"type": "note_off", "time": 100, "note": 65, "velocity": 97, "channel": 0}, {"type": "note_on", "time": 79, "note": 69, "velocity": 107, "channel": 0}, {"type": "note_off", "time": 63, "note": 69, "velocity": 107, "channel": 0}, {"type": "note_on", "time": 17, "note": 72, "velocity": 107, "channel": 0}, {"type": "note_off", "time": 96, "note": 72, "velocity": 107, "channel": 0}, {"type": "note_on", "time": 12, "note": 70, "velocity": 120, "channel": 0}, {"type": "note_off", "time": 78, "note": 70, "velocity": 120, "channel": 0}, {"type": "note_on", "time": 3, "note": 69, "velocity": 121, "channel": 0}, {"type": "note_off", "time": 82, "note": 69, "velocity": 121, "channel": 0}, {"type": "note_on", "time": 6, "note": 70, "velocity": 116, "channel": 0}, {"type": "note_off", "time": 62, "note": 70, "velocity": 116, "channel": 0}, {"type": "note_on", "time": 6, "note": 69, "velocity": 124, "channel": 0}, {"type": "note_off", "time": 124, "note": 69, "velocity": 124, "channel": 0}, {"type": "note_on", "time": 9, "note": 67, "velocity": 121, "channel": 0}, {"type": "note_off", "time": 74, "note": 67, "velocity": 121, "channel": 0}, {"type": "note_on", "time": 7, "note": 66, "velocity": 114, "channel": 0}, {"type": "note_off", "time": 88, "note": 66, "velocity": 114, "channel": 0}, {"type": "note_on", "time": 15, "note": 65, "velocity": 113, "channel": 0}, {"type": "note_off", "time": 99, "note": 65, "velocity": 113, "channel": 0}, {"type": "note_on", "time": 6, "note": 63, "velocity": 96, "channel": 0}, {"type": "note_off", "time": 101, "note": 63, "velocity": 96, "channel": 0}, {"type": "note_on", "time": 10, "note": 61, "velocity": 99, "channel": 0}, {"type": "note_off", "time": 84, "note": 61, "velocity": 99, "channel": 0}, {"type": "note_on", "time": 6, "note": 62, "velocity": 90, "channel": 0}, {"type": "note_off", "time": 96, "note": 62, "velocity": 90, "channel": 0}, {"type": "note_on", "time": 23, "note": 65, "velocity": 100, "channel": 0}, {"type": "note_off", "time": 54, "note": 65, "velocity": 100, "channel": 0}, {"type": "note_on", "time": 8, "note": 67, "velocity": 126, "channel": 0}, {"type": "note_off", "time": 119, "note": 67, "velocity": 126, "channel": 0}, {"type": "note_on", "time": 4, "note": 65, "velocity": 104, "channel": 0}, {"type": "note_off", "time": 59, "note": 65, "velocity": 104, "channel": 0}, {"type": "note_on", "time": 5, "note": 69, "velocity": 127, "channel": 0}, {"type": "note_off", "time": 129, "note": 69, "velocity": 127, "channel": 0}, {"type": "note_on", "time": 6, "note": 70, "velocity": 105, "channel": 0}, {"type": "note_off", "time": 67, "note": 70, "velocity": 105, "channel": 0}, {"type": "note_on", "time": 11, "note": 72, "velocity": 104, "channel": 0}, {"type": "note_off", "time": 93, "note": 72, "velocity": 104, "channel": 0}, {"type": "note_on", "time": 8, "note": 70, "velocity": 117, "channel": 0}, {"type": "note_off", "time": 79, "note": 70, "velocity": 117, "channel": 0}, {"type": "note_on", "time": 3, "note": 69, "velocity": 117, "channel": 0}, {"type": "note_off", "time": 83, "note": 69, "velocity": 117, "channel": 0}, {"type": "note_on", "time": 4, "note": 70, "velocity": 110, "channel": 0}, {"type": "note_off", "time": 48, "note": 70, "velocity": 110, "channel": 0}, {"type": "note_on", "time": 3, "note": 69, "velocity": 122, "channel": 0}, {"type": "note_off", "time": 71, "note": 69, "velocity": 122, "channel": 0}, {"type": "note_on", "time": 2, "note": 70, "velocity": 83, "channel": 0}, {"type": "note_off", "time": 335, "note": 70, "velocity": 83, "channel": 0}, {"type": "note_on", "time": 737, "note": 72, "velocity": 122, "channel": 0}, {"type": "note_off", "time": 81, "note": 72, "velocity": 122, "channel": 0}, {"type": "note_on", "time": 6, "note": 74, "velocity": 108, "channel": 0}, {"type": "note_off", "time": 108, "note": 74, "velocity": 108, "channel": 0}, {"type": "note_on", "time": 5, "note": 69, "velocity": 105, "channel": 0}, {"type": "note_off", "time": 73, "note": 69, "velocity": 105, "channel": 0}, {"type": "note_on", "time": 6, "note": 72, "velocity": 114, "channel": 0}, {"type": "note_off", "time": 98, "note": 72, "velocity": 114, "channel": 0}, {"type": "note_on", "time": 7, "note": 70, "velocity": 113, "channel": 0}, {"type": "note_off", "time": 84, "note": 70, "velocity": 113, "channel": 0}, {"type": "note_on", "time": 8, "note": 69, "velocity": 109, "channel": 0}, {"type": "note_off", "time": 89, "note": 69, "velocity": 109, "channel": 0}, {"type": "note_on", "time": 12, "note": 70, "velocity": 108, "channel": 0}, {"type": "note_off", "time": 56, "note": 70, "velocity": 108, "channel": 0}, {"type": "note_on", "time": 21, "note": 67, "velocity": 115, "channel": 0}, {"type": "note_off", "time": 108, "note": 67, "velocity": 115, "channel": 0}, {"type": "note_on", "time": 4, "note": 66, "velocity": 108, "channel": 0}, {"type": "note_off", "time": 81, "note": 66, "velocity": 108, "channel": 0}, {"type": "note_on", "time": 3, "note": 65, "velocity": 102, "channel": 0}, {"type": "note_off", "time": 96, "note": 65, "velocity": 102, "channel": 0}, {"type": "note_on", "time": 7, "note": 76, "velocity": 115, "channel": 0}, {"type": "note_off", "time": 57, "note": 76, "velocity": 115, "channel": 0}, {"type": "note_on", "time": 5, "note": 77, "velocity": 117, "channel": 0}, {"type": "note_off", "time": 205, "note": 77, "velocity": 117, "channel": 0}, {"type": "note_on", "time": 44, "note": 74, "velocity": 108, "channel": 0}, {"type": "note_off", "time": 76, "note": 74, "velocity": 108, "channel": 0}, {"type": "note_on", "time": 6, "note": 72, "velocity": 114, "channel": 0}, {"type": "note_off", "time": 89, "note": 72, "velocity": 114, "channel": 0}, {"type": "note_on", "time": 7, "note": 70, "velocity": 109, "channel": 0}, {"type": "note_off", "time": 92, "note": 70, "velocity": 109, "channel": 0}, {"type": "note_on", "time": 2, "note": 65, "velocity": 104, "channel": 0}, {"type": "note_off", "time": 199, "note": 65, "velocity": 104, "channel": 0}, {"type": "note_on", "time": 17, "note": 65, "velocity": 104, "channel": 0}, {"type": "note_off", "time": 65, "note": 65, "velocity": 104, "channel": 0}, {"type": "note_on", "time": 6, "note": 67, "velocity": 117, "channel": 0}, {"type": "note_off", "time": 117, "note": 67, "velocity": 117, "channel": 0}, {"type": "note_on", "time": 7, "note": 65, "velocity": 87, "channel": 0}, {"type": "note_off", "time": 334, "note": 65, "velocity": 87, "channel": 0}, {"type": "note_on", "time": 635, "note": 67, "velocity": 112, "channel": 0}, {"type": "note_off", "time": 66, "note": 67, "velocity": 112, "channel": 0}, {"type": "note_on", "time": 12, "note": 70, "velocity": 110, "channel": 0}, {"type": "note_off", "time": 115, "note": 70, "velocity": 110, "channel": 0}, {"type": "note_on", "time": 8, "note": 72, "velocity": 112, "channel": 0}, {"type": "note_off", "time": 74, "note": 72, "velocity": 112, "channel": 0}, {"type": "note_on", "time": 13, "note": 73, "velocity": 111, "channel": 0}, {"type": "note_off", "time": 105, "note": 73, "velocity": 111, "channel": 0}, {"type": "note_on", "time": 11, "note": 67, "velocity": 103, "channel": 0}, {"type": "note_off", "time": 66, "note": 67, "velocity": 103, "channel": 0}, {"type": "note_on", "time": 12, "note": 72, "velocity": 115, "channel": 0}, {"type": "note_off", "time": 88, "note": 72, "velocity": 115, "channel": 0}, {"type": "note_on", "time": 18, "note": 71, "velocity": 117, "channel": 0}, {"type": "note_off", "time": 72, "note": 71, "velocity": 117, "channel": 0}, {"type": "note_on", "time": 7, "note": 70, "velocity": 114, "channel": 0}, {"type": "note_off", "time": 105, "note": 70, "velocity": 114, "channel": 0}, {"type": "note_on", "time": 6, "note": 67, "velocity": 116, "channel": 0}, {"type": "note_off", "time": 80, "note": 67, "velocity": 116, "channel": 0}, {"type": "note_on", "time": 18, "note": 63, "velocity": 91, "channel": 0}, {"type": "note_off", "time": 119, "note": 63, "velocity": 91, "channel": 0}, {"type": "note_on", "time": 1, "note": 60, "velocity": 89, "channel": 0}, {"type": "note_off", "time": 54, "note": 60, "velocity": 89, "channel": 0}, {"type": "note_on", "time": 7, "note": 65, "velocity": 110, "channel": 0}, {"type": "note_off", "time": 108, "note": 65, "velocity": 110, "channel": 0}, {"type": "note_on", "time": 12, "note": 63, "velocity": 94, "channel": 0}, {"type": "note_off", "time": 85, "note": 63, "velocity": 94, "channel": 0}, {"type": "note_on", "time": 16, "note": 60, "velocity": 104, "channel": 0}, {"type": "note_off", "time": 104, "note": 60, "velocity": 104, "channel": 0}, {"type": "note_on", "time": 10, "note": 61, "velocity": 108, "channel": 0}, {"type": "note_off", "time": 52, "note": 61, "velocity": 108, "channel": 0}, {"type": "note_on", "time": 9, "note": 62, "velocity": 106, "channel": 0}, {"type": "note_off", "time": 115, "note": 62, "velocity": 106, "channel": 0}, {"type": "note_on", "time": 9, "note": 60, "velocity": 113, "channel": 0}, {"type": "note_off", "time": 63, "note": 60, "velocity": 113, "channel": 0}, {"type": "note_on", "time": 14, "note": 59, "velocity": 116, "channel": 0}, {"type": "note_off", "time": 115, "note": 59, "velocity": 116, "channel": 0}, {"type": "note_on", "time": 8, "note": 55, "velocity": 104, "channel": 0}, {"type": "note_off", "time": 59, "note": 55, "velocity": 104, "channel": 0}, {"type": "note_on", "time": 11, "note": 57, "velocity": 104, "channel": 0}, {"type": "note_off", "time": 93, "note": 57, "velocity": 104, "channel": 0}, {"type": "note_on", "time": 10, "note": 59, "velocity": 105, "channel": 0}, {"type": "note_off", "time": 70, "note": 59, "velocity": 105, "channel": 0}, {"type": "note_on", "time": 10, "note": 62, "velocity": 108, "channel": 0}, {"type": "note_off", "time": 113, "note": 62, "velocity": 108, "channel": 0}, {"type": "note_on", "time": 25, "note": 59, "velocity": 107, "channel": 0}, {"type": "note_off", "time": 67, "note": 59, "velocity": 107, "channel": 0}, {"type": "note_on", "time": 7, "note": 60, "velocity": 102, "channel": 0}, {"type": "note_off", "time": 98, "note": 60, "velocity": 102, "channel": 0}, {"type": "note_on", "time": 10, "note": 62, "velocity": 102, "channel": 0}, {"type": "note_off", "time": 81, "note": 62, "velocity": 102, "channel": 0}, {"type": "note_on", "time": 3, "note": 63, "velocity": 102, "channel": 0}, {"type": "note_off", "time": 103, "note": 63, "velocity": 102, "channel": 0}, {"type": "note_on", "time": 12, "note": 62, "velocity": 108, "channel": 0}, {"type": "note_off", "time": 70, "note": 62, "velocity": 108, "channel": 0}, {"type": "note_on", "time": 27, "note": 60, "velocity": 112, "channel": 0}, {"type": "note_off", "time": 86, "note": 60, "velocity": 112, "channel": 0}, {"type": "note_on", "time": 8, "note": 58, "velocity": 113, "channel": 0}, {"type": "note_off", "time": 86, "note": 58, "velocity": 113, "channel": 0}, {"type": "note_on", "time": 9, "note": 56, "velocity": 104, "channel": 0}, {"type": "note_off", "time": 72, "note": 56, "velocity": 104, "channel": 0}, {"type": "note_on", "time": 10, "note": 57, "velocity": 107, "channel": 0}, {"type": "note_off", "time": 82, "note": 57, "velocity": 107, "channel": 0}, {"type": "note_on", "time": 14, "note": 60, "velocity": 113, "channel": 0}, {"type": "note_off", "time": 105, "note": 60, "velocity": 113, "channel": 0}, {"type": "note_on", "time": 11, "note": 57, "velocity": 98, "channel": 0}, {"type": "note_off", "time": 78, "note": 57, "velocity": 98, "channel": 0}, {"type": "note_on", "time": 11, "note": 58, "velocity": 98, "channel": 0}, {"type": "note_off", "time": 81, "note": 58, "velocity": 98, "channel": 0}, {"type": "note_on", "time": 15, "note": 60, "velocity": 112, "channel": 0}, {"type": "note_off", "time": 79, "note": 60, "velocity": 112, "channel": 0}, {"type": "note_on", "time": 11, "note": 61, "velocity": 102, "channel": 0}, {"type": "note_off", "time": 89, "note": 61, "velocity": 102, "channel": 0}, {"type": "note_on", "time": 7, "note": 62, "velocity": 101, "channel": 0}, {"type": "note_off", "time": 76, "note": 62, "velocity": 101, "channel": 0}, {"type": "note_on", "time": 13, "note": 63, "velocity": 90, "channel": 0}, {"type": "note_off", "time": 88, "note": 63, "velocity": 90, "channel": 0}, {"type": "note_on", "time": 11, "note": 64, "velocity": 95, "channel": 0}, {"type": "note_off", "time": 70, "note": 64, "velocity": 95, "channel": 0}, {"type": "note_on", "time": 8, "note": 65, "velocity": 111, "channel": 0}, {"type": "note_off", "time": 114, "note": 65, "velocity": 111, "channel": 0}, {"type": "note_on", "time": 15, "note": 64, "velocity": 99, "channel": 0}, {"type": "note_off", "time": 78, "note": 64, "velocity": 99, "channel": 0}, {"type": "note_on", "time": 13, "note": 63, "velocity": 89, "channel": 0}, {"type": "note_off", "time": 73, "note": 63, "velocity": 89, "channel": 0}, {"type": "note_on", "time": 16, "note": 60, "velocity": 94, "channel": 0}, {"type": "note_off", "time": 204, "note": 60, "velocity": 94, "channel": 0}, {"type": "note_on", "time": 7, "note": 62, "velocity": 95, "channel": 0}, {"type": "note_off", "time": 53, "note": 62, "velocity": 95, "channel": 0}, {"type": "note_on", "time": 10, "note": 65, "velocity": 108, "channel": 0}, {"type": "note_off", "time": 123, "note": 65, "velocity": 108, "channel": 0}, {"type": "note_on", "time": 13, "note": 67, "velocity": 95, "channel": 0}, {"type": "note_off", "time": 46, "note": 67, "velocity": 95, "channel": 0}, {"type": "note_on", "time": 8, "note": 69, "velocity": 117, "channel": 0}, {"type": "note_off", "time": 127, "note": 69, "velocity": 117, "channel": 0}, {"type": "note_on", "time": 10, "note": 70, "velocity": 113, "channel": 0}, {"type": "note_off", "time": 53, "note": 70, "velocity": 113, "channel": 0}, {"type": "note_on", "time": 13, "note": 72, "velocity": 105, "channel": 0}, {"type": "note_off", "time": 57, "note": 72, "velocity": 105, "channel": 0}, {"type": "note_on", "time": 18, "note": 74, "velocity": 110, "channel": 0}, {"type": "note_off", "time": 42, "note": 74, "velocity": 110, "channel": 0}, {"type": "note_on", "time": 7, "note": 76, "velocity": 115, "channel": 0}, {"type": "note_off", "time": 40, "note": 76, "velocity": 115, "channel": 0}, {"type": "note_on", "time": 24, "note": 81, "velocity": 123, "channel": 0}, {"type": "note_off", "time": 52, "note": 81, "velocity": 123, "channel": 0}, {"type": "note_on", "time": 6, "note": 82, "velocity": 113, "channel": 0}, {"type": "note_off", "time": 173, "note": 82, "velocity": 113, "channel": 0}, {"type": "end_of_track", "time": 0}]]}