{"ticks_per_beat": 192, "tracks": [[{"type": "note_on", "time": 0, "note": 67, "velocity": 116, "channel": 0}, {"type": "note_off", "time": 109, "note": 67, "velocity": 116, "channel": 0}, {"type": "note_on", "time": 13, "note": 65, "velocity": 122, "channel": 0}, {"type": "note_off", "time": 74, "note": 65, "velocity": 122, "channel": 0}, {"type": "note_on", "time": 16, "note": 64, "velocity": 98, "channel": 0}, {"type": "note_off", "time": 76, "note": 64, "velocity": 98, "channel": 0}, {"type": "note_on", "time": 17, "note": 62, "velocity": 98, "channel": 0}, {"type": "note_off", "time": 68, "note": 62, "velocity": 98, "channel": 0}, {"type": "note_on", "time": 116, "note": 64, "velocity": 106, "channel": 0}, {"type": "note_off", "time": 64, "note": 64, "velocity": 106, "channel": 0}, {"type": "note_on", "time": 23, "note": 67, "velocity": 118, "channel": 0}, {"type": "note_off", "time": 96, "note": 67, "velocity": 118, "channel": 0}, {"type": "note_on", "time": 11, "note": 65, "velocity": 106, "channel": 0}, {"type": "note_off", "time": 46, "note": 65, "velocity": 106, "channel": 0}, {"type": "note_on", "time": 16, "note": 68, "velocity": 111, "channel": 0}, {"type": "note_off", "time": 91, "note": 68, "velocity": 111, "channel": 0}, {"type": "note_on", "time": 27, "note": 70, "velocity": 108, "channel": 0}, {"type": "note_off", "time": 69, "note": 70, "velocity": 108, "channel": 0}, {"type": "note_on", "time": 7, "note": 72, "velocity": 116, "channel": 0}, {"type": "note_off", "time": 87, "note": 72, "velocity": 116, "channel": 0}, {"type": "note_on", "time": 16, "note": 70, "velocity": 108, "channel": 0}, {"type": "note_off", "time": 59, "note": 70, "velocity": 108, "channel": 0}, {"type": "note_on", "time": 19, "note": 68, "velocity": 109, "channel": 0}, {"type": "note_off", "time": 98, "note": 68, "velocity": 109, "channel": 0}, {"type": "note_on", "time": 117, "note": 70, "velocity": 108, "channel": 0}, {"type": "note_off", "time": 92, "note": 70, "velocity": 108, "channel": 0}, {"type": "note_on", "time": 10, "note": 69, "velocity": 108, "channel": 0}, {"type": "note_off", "time": 56, "note": 69, "velocity": 108, "channel": 0}, {"type": "note_on", "time": 8, "note": 70, "velocity": 108, "channel": 0}, {"type": "note_off", "time": 86, "note": 70, "velocity": 108, "channel": 0}, {"type": "note_on", "time": 18, "note": 72, "velocity": 116, "channel": 0}, {"type": "note_off", "time": 97, "note": 72, "velocity": 116, "channel": 0}, {"type": "note_on", "time": 10, "note": 73, "velocity": 107, "channel": 0}, {"type": "note_off", "time": 88, "note": 73, "velocity": 107, "channel": 0}, {"type": "note_on", "time": 19, "note": 65, "velocity": 91, "channel": 0}, {"type": "note_off", "time": 48, "note": 65, "velocity": 91, "channel": 0}, {"type": "note_on", "time": 11, "note": 68, "velocity": 107, "channel": 0}, {"type": "note_off", "time": 169, "note": 68, "velocity": 107, "channel": 0}, {"type": "note_on", "time": 31, "note": 72, "velocity": 108, "channel": 0}, {"type": "note_off", "time": 92, "note": 72, "velocity": 108, "channel": 0}, {"type": "note_on", "time": 22, "note": 70, "velocity": 101, "channel": 0}, {"type": "note_off", "time": 52, "note": 70, "velocity": 101, "channel": 0}, {"type": "note_on", "time": 17, "note": 68, "velocity": 108, "channel": 0}, {"type": "note_off", "time": 107, "note": 68, "velocity": 108, "channel": 0}, {"type": "note_on", "time": 5, "note": 65, "velocity": 97, "channel": 0}, {"type": "note_off", "time": 54, "note": 65, "velocity": 97, "channel": 0}, {"type": "note_on", "time": 7, "note": 67, "velocity": 107, "channel": 0}, {"type": "note_off", "time": 98, "note": 67, "velocity": 107, "channel": 0}, {"type": "note_on", "time": 18, "note": 65, "velocity": 109, "channel": 0}, {"type": "note_off", "time": 73, "note": 65, "velocity": 109, "channel": 0}, {"type": "note_on", "time": 12, "note": 63, "velocity": 98, "channel": 0}, {"type": "note_off", "time": 74, "note": 63, "velocity": 98, "channel": 0}, {"type": "note_on", "time": 47, "note": 63, "velocity": 103, "channel": 0}, {"type": "note_off", "time": 54, "note": 63, "velocity": 103, "channel": 0}, {"type": "note_on", "time": 22, "note": 62, "velocity": 95, "channel": 0}, {"type": "note_off", "time": 86, "note": 62, "velocity": 95, "channel": 0}, {"type": "note_on", "time": 23, "note": 63, "velocity": 106, "channel": 0}, {"type": "note_off", "time": 42, "note": 63, "velocity": 106, "channel": 0}, {"type": "note_on", "time": 27, "note": 65, "velocity": 117, "channel": 0}, {"type": "note_off", "time": 85, "note": 65, "velocity": 117, "channel": 0}, {"type": "note_on", "time": 15, "note": 64, "velocity": 105, "channel": 0}, {"type": "note_off", "time": 66, "note": 64, "velocity": 105, "channel": 0}, {"type": "note_on", "time": 29, "note": 63, "velocity": 103, "channel": 0}, {"type": "note_off", "time": 58, "note": 63, "velocity": 103, "channel": 0}, {"type": "track_name", "name": "Melody", "time": 24}, {"type": "set_tempo", "tempo": 314136, "time": 0}, {"type": "key_signature", "key": "Ab", "time": 0}, {"type": "time_signature", "numerator": 4, "denominator": 4, "clocks_per_click": 24, "notated_32nd_notes_per_beat": 8, "time": 0}, {"type": "note_on", "time": 0, "note": 60, "velocity": 106, "channel": 0}, {"type": "note_off", "time": 70, "note": 60, "velocity": 106, "channel": 0}, {"type": "note_on", "time": 12, "note": 58, "velocity": 96, "channel": 0}, {"type": "note_off", "time": 107, "note": 58, "velocity": 96, "channel": 0}, {"type": "note_on", "time": 7, "note": 56, "velocity": 101, "channel": 0}, {"type": "note_off", "time": 53, "note": 56, "velocity": 101, "channel": 0}, {"type": "note_on", "time": 14, "note": 58, "velocity": 100, "channel": 0}, {"type": "note_off", "time": 92, "note": 58, "velocity": 100, "channel": 0}, {"type": "note_on", "time": 20, "note": 56, "velocity": 93, "channel": 0}, {"type": "note_off", "time": 43, "note": 56, "velocity": 93, "channel": 0}, {"type": "note_on", "time": 17, "note": 58, "velocity": 102, "channel": 0}, {"type": "note_off", "time": 103, "note": 58, "velocity": 102, "channel": 0}, {"type": "note_on", "time": 16, "note": 56, "velocity": 93, "channel": 0}, {"type": "note_off", "time": 259, "note": 56, "velocity": 93, "channel": 0}, {"type": "note_on", "time": 373, "note": 60, "velocity": 114, "channel": 0}, {"type": "note_off", "time": 96, "note": 60, "velocity": 114, "channel": 0}, {"type": "note_on", "time": 9, "note": 59, "velocity": 107, "channel": 0}, {"type": "note_off", "time": 77, "note": 59, "velocity": 107, "channel": 0}, {"type": "note_on", "time": 9, "note": 58, "velocity": 88, "channel": 0}, {"type": "note_off", "time": 86, "note": 58, "velocity": 88, "channel": 0}, {"type": "note_on", "time": 24, "note": 60, "velocity": 113, "channel": 0}, {"type": "note_off", "time": 76, "note": 60, "velocity": 113, "channel": 0}, {"type": "note_on", "time": 13, "note": 61, "velocity": 102, "channel": 0}, {"type": "note_off", "time": 68, "note": 61, "velocity": 102, "channel": 0}, {"type": "note_on", "time": 30, "note": 63, "velocity": 104, "channel": 0}, {"type": "note_off", "time": 55, "note": 63, "velocity": 104, "channel": 0}, {"type": "note_on", "time": 13, "note": 64, "velocity": 99, "channel": 0}, {"type": "note_off", "time": 116, "note": 64, "velocity": 99, "channel": 0}, {"type": "note_on", "time": 15, "note": 62, "velocity": 102, "channel": 0}, {"type": "note_off", "time": 40, "note": 62, "velocity": 102, "channel": 0}, {"type": "note_on", "time": 18, "note": 63, "velocity": 105, "channel": 0}, {"type": "note_off", "time": 93, "note": 63, "velocity": 105, "channel": 0}, {"type": "note_on", "time": 18, "note": 61, "velocity": 107, "channel": 0}, {"type": "note_off", "time": 72, "note": 61, "velocity": 107, "channel": 0}, {"type": "note_on", "time": 24, "note": 60, "velocity": 85, "channel": 0}, {"type": "note_off", "time": 67, "note": 60, "velocity": 85, "channel": 0}, {"type": "note_on", "time": 15, "note": 63, "velocity": 102, "channel": 0}, {"type": "note_off", "time": 56, "note": 63, "velocity": 102, "channel": 0}, {"type": "note_on", "time": 9, "note": 65, "velocity": 115, "channel": 0}, {"type": "note_off", "time": 124, "note": 65, "velocity": 115, "channel": 0}, {"type": "note_on", "time": 14, "note": 63, "velocity": 94, "channel": 0}, {"type": "note_off", "time": 39, "note": 63, "velocity": 94, "channel": 0}, {"type": "note_on", "time": 31, "note": 67, "velocity": 115, "channel": 0}, {"type": "note_off", "time": 109, "note": 67, "velocity": 115, "channel": 0}, {"type": "note_on", "time": 52, "note": 68, "velocity": 116, "channel": 0}, {"type": "note_off", "time": 112, "note": 68, "velocity": 116, "channel": 0}, {"type": "note_on", "time": 14, "note": 67, "velocity": 111, "channel": 0}, {"type": "note_off", "time": 68, "note": 67, "velocity": 111, "channel": 0}, {"type": "note_on", "time": 6, "note": 65, "velocity": 110, "channel": 0}, {"type": "note_off", "time": 103, "note": 65, "velocity": 110, "channel": 0}, {"type": "note_on", "time": 11, "note": 66, "velocity": 113, "channel": 0}, {"type": "note_off", "time": 50, "note": 66, "velocity": 113, "channel": 0}, {"type": "note_on", "time": 10, "note": 67, "velocity": 115, "channel": 0}, {"type": "note_off", "time": 101, "note": 67, "velocity": 115, "channel": 0}, {"type": "note_on", "time": 28, "note": 60, "velocity": 87, "channel": 0}, {"type": "note_off", "time": 34, "note": 60, "velocity": 87, "channel": 0}, {"type": "note_on", "time": 12, "note": 63, "velocity": 94, "channel": 0}, {"type": "note_off", "time": 365, "note": 63, "velocity": 94, "channel": 0}, {"type": "note_on", "time": 15, "note": 56, "velocity": 103, "channel": 0}, {"type": "note_off", "time": 168, "note": 56, "velocity": 103, "channel": 0}, {"type": "note_on", "time": 32, "note": 60, "velocity": 111, "channel": 0}, {"type": "note_off", "time": 88, "note": 60, "velocity": 111, "channel": 0}, {"type": "note_on", "time": 16, "note": 58, "velocity": 92, "channel": 0}, {"type": "note_off", "time": 256, "note": 58, "velocity": 92, "channel": 0}, {"type": "note_on", "time": 672, "note": 63, "velocity": 102, "channel": 0}, {"type": "note_off", "time": 38, "note": 63, "velocity": 102, "channel": 0}, {"type": "note_on", "time": 140, "note": 72, "velocity": 123, "channel": 0}, {"type": "note_off", "time": 79, "note": 72, "velocity": 123, "channel": 0}, {"type": "note_on", "time": 15, "note": 73, "velocity": 112, "channel": 0}, {"type": "note_off", "time": 86, "note": 73, "velocity": 112, "channel": 0}, {"type": "note_on", "time": 10, "note": 72, "velocity": 119, "channel": 0}, {"type": "note_off", "time": 80, "note": 72, "velocity": 119, "channel": 0}, {"type": "note_on", "time": 9, "note": 70, "velocity": 112, "channel": 0}, {"type": "note_off", "time": 86, "note": 70, "velocity": 112, "channel": 0}, {"type": "note_on", "time": 8, "note": 71, "velocity": 121, "channel": 0}, {"type": "note_off", "time": 87, "note": 71, "velocity": 121, "channel": 0}, {"type": "note_on", "time": 14, "note": 72, "velocity": 118, "channel": 0}, {"type": "note_off", "time": 92, "note": 72, "velocity": 118, "channel": 0}, {"type": "note_on", "time": 10, "note": 70, "velocity": 116, "channel": 0}, {"type": "note_off", "time": 78, "note": 70, "velocity": 116, "channel": 0}, {"type": "note_on", "time": 11, "note": 68, "velocity": 83, "channel": 0}, {"type": "note_off", "time": 87, "note": 68, "velocity": 83, "channel": 0}, {"type": "note_on", "time": 15, "note": 66, "velocity": 119, "channel": 0}, {"type": "note_off", "time": 66, "note": 66, "velocity": 119, "channel": 0}, {"type": "note_on", "time": 10, "note": 67, "velocity": 117, "channel": 0}, {"type": "note_off", "time": 95, "note": 67, "velocity": 117, "channel": 0}, {"type": "note_on", "time": 15, "note": 65, "velocity": 119, "channel": 0}, {"type": "note_off", "time": 70, "note": 65, "velocity": 119, "channel": 0}, {"type": "note_on", "time": 11, "note": 64, "velocity": 103, "channel": 0}, {"type": "note_off", "time": 85, "note": 64, "velocity": 103, "channel": 0}, {"type": "note_on", "time": 34, "note": 64, "velocity": 105, "channel": 0}, {"type": "note_off", "time": 48, "note": 64, "velocity": 105, "channel": 0}, {"type": "note_on", "time": 31, "note": 67, "velocity": 114, "channel": 0}, {"type": "note_off", "time": 90, "note": 67, "velocity": 114, "channel": 0}, {"type": "note_on", "time": 240, "note": 65, "velocity": 117, "channel": 0}, {"type": "note_off", "time": 35, "note": 65, "velocity": 117, "channel": 0}, {"type": "note_on", "time": 16, "note": 67, "velocity": 103, "channel": 0}, {"type": "note_off", "time": 267, "note": 67, "velocity": 103, "channel": 0}, {"type": "note_on", "time": 34, "note": 65, "velocity": 111, "channel": 0}, {"type": "note_off", "time": 39, "note": 65, "velocity": 111, "channel": 0}, {"type": "note_on", "time": 24, "note": 68, "velocity": 120, "channel": 0}, {"type": "note_off", "time": 105, "note": 68, "velocity": 120, "channel": 0}, {"type": "note_on", "time": 14, "note": 65, "velocity": 109, "channel": 0}, {"type": "note_off", "time": 44, "note": 65, "velocity": 109, "channel": 0}, {"type": "note_on", "time": 15, "note": 67, "velocity": 105, "channel": 0}, {"type": "note_off", "time": 120, "note": 67, "velocity": 105, "channel": 0}, {"type": "note_on", "time": 19, "note": 65, "velocity": 95, "channel": 0}, {"type": "note_off", "time": 25, "note": 65, "velocity": 95, "channel": 0}, {"type": "note_on", "time": 15, "note": 68, "velocity": 118, "channel": 0}, {"type": "note_off", "time": 102, "note": 68, "velocity": 118, "channel": 0}, {"type": "note_on", "time": 11, "note": 67, "velocity": 110, "channel": 0}, {"type": "note_off", "time": 68, "note": 67, "velocity": 110, "channel": 0}, {"type": "note_on", "time": 13, "note": 65, "velocity": 113, "channel": 0}, {"type": "note_off", "time": 108, "note": 65, "velocity": 113, "channel": 0}, {"type": "note_on", "time": 14, "note": 64, "velocity": 101, "channel": 0}, {"type": "note_off", "time": 51, "note": 64, "velocity": 101, "channel": 0}, {"type": "note_on", "time": 9, "note": 70, "velocity": 94, "channel": 0}, {"type": "note_off", "time": 310, "note": 70, "velocity": 94, "channel": 0}, {"type": "note_on", "time": 92, "note": 72, "velocity": 122, "channel": 0}, {"type": "note_off", "time": 106, "note": 72, "velocity": 122, "channel": 0}, {"type": "note_on", "time": 4, "note": 70, "velocity": 114, "channel": 0}, {"type": "note_off", "time": 66, "note": 70, "velocity": 114, "channel": 0}, {"type": "note_on", "time": 9, "note": 67, "velocity": 109, "channel": 0}, {"type": "note_off", "time": 94, "note": 67, "velocity": 109, "channel": 0}, {"type": "note_on", "time": 10, "note": 65, "velocity": 114, "channel": 0}, {"type": "note_off", "time": 74, "note": 65, "velocity": 114, "channel": 0}, {"type": "note_on", "time": 11, "note": 63, "velocity": 98, "channel": 0}, {"type": "note_off", "time": 175, "note": 63, "velocity": 98, "channel": 0}, {"type": "note_on", "time": 19, "note": 65, "velocity": 120, "channel": 0}, {"type": "note_off", "time": 100, "note": 65, "velocity": 120, "channel": 0}, {"type": "note_on", "time": 7, "note": 63, "velocity": 100, "channel": 0}, {"type": "note_off", "time": 51, "note": 63, "velocity": 100, "channel": 0}, {"type": "note_on", "time": 18, "note": 66, "velocity": 118, "channel": 0}, {"type": "note_off", "time": 110, "note": 66, "velocity": 118, "channel": 0}, {"type": "note_on", "time": 6, "note": 65, "velocity": 110, "channel": 0}, {"type": "note_off", "time": 57, "note": 65, "velocity": 110, "channel": 0}, {"type": "note_on", "time": 8, "note": 63, "velocity": 103, "channel": 0}, {"type": "note_off", "time": 159, "note": 63, "velocity": 103, "channel": 0}, {"type": "note_on", "time": 17, "note": 64, "velocity": 102, "channel": 0}, {"type": "note_off", "time": 183, "note": 64, "velocity": 102, "channel": 0}, {"type": "note_on", "time": 18, "note": 65, "velocity": 100, "channel": 0}, {"type": "note_off", "time": 334, "note": 65, "velocity": 100, "channel": 0}, {"type": "note_on", "time": 1223, "note": 60, "velocity": 95, "channel": 0}, {"type": "note_off", "time": 43, "note": 60, "velocity": 95, "channel": 0}, {"type": "note_on", "time": 8, "note": 65, "velocity": 124, "channel": 0}, {"type": "note_off", "time": 81, "note": 65, "velocity": 124, "channel": 0}, {"type": "note_on", "time": 14, "note": 62, "velocity": 96, "channel": 0}, {"type": "note_off", "time": 75, "note": 62, "velocity": 96, "channel": 0}, {"type": "note_on", "time": 14, "note": 63, "velocity": 102, "channel": 0}, {"type": "note_off", "time": 70, "note": 63, "velocity": 102, "channel": 0}, {"type": "note_on", "time": 22, "note": 64, "velocity": 103, "channel": 0}, {"type": "note_off", "time": 68, "note": 64, "velocity": 103, "channel": 0}, {"type": "note_on", "time": 23, "note": 62, "velocity": 106, "channel": 0}, {"type": "note_off", "time": 68, "note": 62, "velocity": 106, "channel": 0}, {"type": "note_on", "time": 18, "note": 60, "velocity": 104, "channel": 0}, {"type": "note_off", "time": 64, "note": 60, "velocity": 104, "channel": 0}, {"type": "note_on", "time": 231, "note": 59, "velocity": 105, "channel": 0}, {"type": "note_off", "time": 48, "note": 59, "velocity": 105, "channel": 0}, {"type": "note_on", "time": 13, "note": 62, "velocity": 108, "channel": 0}, {"type": "note_off", "time": 93, "note": 62, "velocity": 108, "channel": 0}, {"type": "note_on", "time": 11, "note": 60, "velocity": 107, "channel": 0}, {"type": "note_off", "time": 67, "note": 60, "velocity": 107, "channel": 0}, {"type": "note_on", "time": 153, "note": 60, "velocity": 91, "channel": 0}, {"type": "note_off", "time": 42, "note": 60, "velocity": 91, "channel": 0}, {"type": "note_on", "time": 16, "note": 63, "velocity": 100, "channel": 0}, {"type": "note_off", "time": 165, "note": 63, "velocity": 100, "channel": 0}, {"type": "note_on", "time": 22, "note": 65, "velocity": 125, "channel": 0}, {"type": "note_off", "time": 113, "note": 65, "velocity": 125, "channel": 0}, {"type": "note_on", "time": 10, "note": 63, "velocity": 97, "channel": 0}, {"type": "note_off", "time": 50, "note": 63, "velocity": 97, "channel": 0}, {"type": "note_on", "time": 17, "note": 62, "velocity": 95, "channel": 0}, {"type": "note_off", "time": 68, "note": 62, "velocity": 95, "channel": 0}, {"type": "note_on", "time": 23, "note": 63, "velocity": 109, "channel": 0}, {"type": "note_off", "time": 68, "note": 63, "velocity": 109, "channel": 0}, {"type": "note_on", "time": 14, "note": 62, "velocity": 102, "channel": 0}, {"type": "note_off", "time": 94, "note": 62, "velocity": 102, "channel": 0}, {"type": "note_on", "time": 24, "note": 61, "velocity": 108, "channel": 0}, {"type": "note_off", "time": 67, "note": 61, "velocity": 108, "channel": 0}, {"type": "note_on", "time": 16, "note": 60, "velocity": 97, "channel": 0}, {"type": "note_off", "time": 64, "note": 60, "velocity": 97, "channel": 0}, {"type": "note_on", "time": 24, "note": 62, "velocity": 98, "channel": 0}, {"type": "note_off", "time": 86, "note": 62, "velocity": 98, "channel": 0}, {"type": "note_on", "time": 18, "note": 63, "velocity": 88, "channel": 0}, {"type": "note_off", "time": 102, "note": 63, "velocity": 88, "channel": 0}, {"type": "note_on", "time": 19, "note": 64, "velocity": 100, "channel": 0}, {"type": "note_off", "time": 39, "note": 64, "velocity": 100, "channel": 0}, {"type": "note_on", "time": 11, "note": 65, "velocity": 115, "channel": 0}, {"type": "note_off", "time": 86, "note": 65, "velocity": 115, "channel": 0}, {"type": "note_on", "time": 23, "note": 67, "velocity": 110, "channel": 0}, {"type": "note_off", "time": 60, "note": 67, "velocity": 110, "channel": 0}, {"type": "note_on", "time": 15, "note": 68, "velocity": 105, "channel": 0}, {"type": "note_off", "time": 80, "note": 68, "velocity": 105, "channel": 0}, {"type": "note_on", "time": 89, "note": 70, "velocity": 97, "channel": 0}, {"type": "note_off", "time": 273, "note": 70, "velocity": 97, "channel": 0}, {"type": "note_on", "time": 228, "note": 75, "velocity": 114, "channel": 0}, {"type": "note_off", "time": 73, "note": 75, "velocity": 114, "channel": 0}, {"type": "note_on", "time": 22, "note": 72, "velocity": 111, "channel": 0}, {"type": "note_off", "time": 71, "note": 72, "velocity": 111, "channel": 0}, {"type": "note_on", "time": 17, "note": 70, "velocity": 102, "channel": 0}, {"type": "note_off", "time": 255, "note": 70, "velocity": 102, "channel": 0}, {"type": "note_on", "time": 17, "note": 67, "velocity": 112, "channel": 0}, {"type": "note_off", "time": 93, "note": 67, "velocity": 112, "channel": 0}, {"type": "note_on", "time": 8, "note": 65, "velocity": 116, "channel": 0}, {"type": "note_off", "time": 84, "note": 65, "velocity": 116, "channel": 0}, {"type": "note_on", "time": 11, "note": 63, "velocity": 89, "channel": 0}, {"type": "note_off", "time": 86, "note": 63, "velocity": 89, "channel": 0}, {"type": "note_on", "time": 10, "note": 65, "velocity": 121, "channel": 0}, {"type": "note_off", "time": 72, "note": 65, "velocity": 121, "channel": 0}, {"type": "note_on", "time": 15, "note": 67, "velocity": 95, "channel": 0}, {"type": "note_off", "time": 22, "note": 67, "velocity": 95, "channel": 0}, {"type": "note_on", "time": 7, "note": 68, "velocity": 100, "channel": 0}, {"type": "note_off", "time": 23, "note": 68, "velocity": 100, "channel": 0}, {"type": "note_on", "time": 7, "note": 67, "velocity": 103, "channel": 0}, {"type": "note_off", "time": 97, "note": 67, "velocity": 103, "channel": 0}, {"type": "note_on", "time": 12, "note": 68, "velocity": 111, "channel": 0}, {"type": "note_off", "time": 98, "note": 68, "velocity": 111, "channel": 0}, {"type": "note_on", "time": 32, "note": 69, "velocity": 115, "channel": 0}, {"type": "note_off", "time": 105, "note": 69, "velocity": 115, "channel": 0}, {"type": "note_on", "time": 9, "note": 70, "velocity": 104, "channel": 0}, {"type": "note_off", "time": 50, "note": 70, "velocity": 104, "channel": 0}, {"type": "note_on", "time": 9, "note": 67, "velocity": 114, "channel": 0}, {"type": "note_off", "time": 82, "note": 67, "velocity": 114, "channel": 0}, {"type": "note_on", "time": 9, "note": 63, "velocity": 99, "channel": 0}, {"type": "note_off", "time": 94, "note": 63, "velocity": 99, "channel": 0}, {"type": "note_on", "time": 9, "note": 60, "velocity": 101, "channel": 0}, {"type": "note_off", "time": 51, "note": 60, "velocity": 101, "channel": 0}, {"type": "note_on", "time": 8, "note": 63, "velocity": 104, "channel": 0}, {"type": "note_off", "time": 107, "note": 63, "velocity": 104, "channel": 0}, {"type": "note_on", "time": 23, "note": 61, "velocity": 102, "channel": 0}, {"type": "note_off", "time": 65, "note": 61, "velocity": 102, "channel": 0}, {"type": "note_on", "time": 20, "note": 62, "velocity": 103, "channel": 0}, {"type": "note_off", "time": 70, "note": 62, "velocity": 103, "channel": 0}, {"type": "note_on", "time": 14, "note": 61, "velocity": 107, "channel": 0}, {"type": "note_off", "time": 87, "note": 61, "velocity": 107, "channel": 0}, {"type": "note_on", "time": 16, "note": 60, "velocity": 93, "channel": 0}, {"type": "note_off", "time": 69, "note": 60, "velocity": 93, "channel": 0}, {"type": "note_on", "time": 28, "note": 64, "velocity": 108, "channel": 0}, {"type": "note_off", "time": 53, "note": 64, "velocity": 108, "channel": 0}, {"type": "note_on", "time": 11, "note": 67, "velocity": 110, "channel": 0}, {"type": "note_off", "time": 99, "note": 67, "velocity": 110, "channel": 0}, {"type": "note_on", "time": 14, "note": 71, "velocity": 112, "channel": 0}, {"type": "note_off", "time": 39, "note": 71, "velocity": 112, "channel": 0}, {"type": "note_on", "time": 12, "note": 74, "velocity": 113, "channel": 0}, {"type": "note_off", "time": 125, "note": 74, "velocity": 113, "channel": 0}, {"type": "note_on", "time": 70, "note": 76, "velocity": 126, "channel": 0}, {"type": "note_off", "time": 119, "note": 76, "velocity": 126, "channel": 0}, {"type": "note_on", "time": 11, "note": 74, "velocity": 113, "channel": 0}, {"type": "note_off", "time": 51, "note": 74, "velocity": 113, "channel": 0}, {"type": "note_on", "time": 23, "note": 71, "velocity": 112, "channel": 0}, {"type": "note_off", "time": 125, "note": 71, "velocity": 112, "channel": 0}, {"type": "note_on", "time": 10, "note": 67, "velocity": 95, "channel": 0}, {"type": "note_off", "time": 36, "note": 67, "velocity": 95, "channel": 0}, {"type": "note_on", "time": 6, "note": 69, "velocity": 115, "channel": 0}, {"type": "note_off", "time": 109, "note": 69, "velocity": 115, "channel": 0}, {"type": "note_on", "time": 6, "note": 71, "velocity": 93, "channel": 0}, {"type": "note_off", "time": 299, "note": 71, "velocity": 93, "channel": 0}, {"type": "note_on", "time": 1921, "note": 64, "velocity": 112, "channel": 0}, {"type": "note_off", "time": 54, "note": 64, "velocity": 112, "channel": 0}, {"type": "note_on", "time": 13, "note": 67, "velocity": 117, "channel": 0}, {"type": "note_off", "time": 104, "note": 67, "velocity": 117, "channel": 0}, {"type": "note_on", "time": 10, "note": 64, "velocity": 107, "channel": 0}, {"type": "note_off", "time": 72, "note": 64, "velocity": 107, "channel": 0}, {"type": "note_on", "time": 13, "note": 62, "velocity": 101, "channel": 0}, {"type": "note_off", "time": 86, "note": 62, "velocity": 101, "channel": 0}, {"type": "note_on", "time": 19, "note": 67, "velocity": 114, "channel": 0}, {"type": "note_off", "time": 70, "note": 67, "velocity": 114, "channel": 0}, {"type": "note_on", "time": 11, "note": 66, "velocity": 92, "channel": 0}, {"type": "note_off", "time": 53, "note": 66, "velocity": 92, "channel": 0}, {"type": "note_on", "time": 51, "note": 67, "velocity": 108, "channel": 0}, {"type": "note_off", "time": 69, "note": 67, "velocity": 108, "channel": 0}, {"type": "note_on", "time": 8, "note": 69, "velocity": 122, "channel": 0}, {"type": "note_off", "time": 93, "note": 69, "velocity": 122, "channel": 0}, {"type": "note_on", "time": 11, "note": 67, "velocity": 108, "channel": 0}, {"type": "note_off", "time": 79, "note": 67, "velocity": 108, "channel": 0}, {"type": "note_on", "time": 18, "note": 64, "velocity": 100, "channel": 0}, {"type": "note_off", "time": 82, "note": 64, "velocity": 100, "channel": 0}, {"type": "note_on", "time": 91, "note": 62, "velocity": 104, "channel": 0}, {"type": "note_off", "time": 164, "note": 62, "velocity": 104, "channel": 0}, {"type": "note_on", "time": 35, "note": 62, "velocity": 105, "channel": 0}, {"type": "note_off", "time": 157, "note": 62, "velocity": 105, "channel": 0}, {"type": "note_on", "time": 33, "note": 64, "velocity": 105, "channel": 0}, {"type": "note_off", "time": 78, "note": 64, "velocity": 105, "channel": 0}, {"type": "note_on", "time": 17, "note": 67, "velocity": 95, "channel": 0}, {"type": "note_off", "time": 46, "note": 67, "velocity": 95, "channel": 0}, {"type": "note_on", "time": 18, "note": 69, "velocity": 114, "channel": 0}, {"type": "note_off", "time": 111, "note": 69, "velocity": 114, "channel": 0}, {"type": "note_on", "time": 98, "note": 71, "velocity": 107, "channel": 0}, {"type": "note_off", "time": 114, "note": 71, "velocity": 107, "channel": 0}, {"type": "note_on", "time": 71, "note": 71, "velocity": 110, "channel": 0}, {"type": "note_off", "time": 165, "note": 71, "velocity": 110, "channel": 0}, {"type": "note_on", "time": 5, "note": 72, "velocity": 113, "channel": 0}, {"type": "note_off", "time": 101, "note": 72, "velocity": 113, "channel": 0}, {"type": "note_on", "time": 12, "note": 71, "velocity": 111, "channel": 0}, {"type": "note_off", "time": 68, "note": 71, "velocity": 111, "channel": 0}, {"type": "note_on", "time": 7, "note": 70, "velocity": 105, "channel": 0}, {"type": "note_off", "time": 105, "note": 70, "velocity": 105, "channel": 0}, {"type": "note_on", "time": 6, "note": 68, "velocity": 101, "channel": 0}, {"type": "note_off", "time": 62, "note": 68, "velocity": 101, "channel": 0}, {"type": "note_on", "time": 6, "note": 69, "velocity": 116, "channel": 0}, {"type": "note_off", "time": 163, "note": 69, "velocity": 116, "channel": 0}, {"type": "note_on", "time": 67, "note": 69, "velocity": 119, "channel": 0}, {"type": "note_off", "time": 166, "note": 69, "velocity": 119, "channel": 0}, {"type": "note_on", "time": 29, "note": 67, "velocity": 110, "channel": 0}, {"type": "note_off", "time": 101, "note": 67, "velocity": 110, "channel": 0}, {"type": "note_on", "time": 3, "note": 63, "velocity": 102, "channel": 0}, {"type": "note_off", "time": 49, "note": 63, "velocity": 102, "channel": 0}, {"type": "note_on", "time": 12, "note": 60, "velocity": 102, "channel": 0}, {"type": "note_off", "time": 125, "note": 60, "velocity": 102, "channel": 0}, {"type": "note_on", "time": 8, "note": 55, "velocity": 91, "channel": 0}, {"type": "note_off", "time": 45, "note": 55, "velocity": 91, "channel": 0}, {"type": "note_on", "time": 28, "note": 59, "velocity": 85, "channel": 0}, {"type": "note_off", "time": 249, "note": 59, "velocity": 85, "channel": 0}, {"type": "note_on", "time": 805, "note": 60, "velocity": 101, "channel": 0}, {"type": "note_off", "time": 59, "note": 60, "velocity": 101, "channel": 0}, {"type": "note_on", "time": 8, "note": 61, "velocity": 98, "channel": 0}, {"type": "note_off", "time": 76, "note": 61, "velocity": 98, "channel": 0}, {"type": "note_on", "time": 18, "note": 63, "velocity": 107, "channel": 0}, {"type": "note_off", "time": 73, "note": 63, "velocity": 107, "channel": 0}, {"type": "note_on", "time": 8, "note": 64, "velocity": 109, "channel": 0}, {"type": "note_off", "time": 87, "note": 64, "velocity": 109, "channel": 0}, {"type": "note_on", "time": 16, "note": 67, "velocity": 118, "channel": 0}, {"type": "note_off", "time": 77, "note": 67, "velocity": 118, "channel": 0}, {"type": "note_on", "time": 9, "note": 70, "velocity": 117, "channel": 0}, {"type": "note_off", "time": 80, "note": 70, "velocity": 117, "channel": 0}, {"type": "note_on", "time": 13, "note": 68, "velocity": 122, "channel": 0}, {"type": "note_off", "time": 76, "note": 68, "velocity": 122, "channel": 0}, {"type": "note_on", "time": 14, "note": 65, "velocity": 117, "channel": 0}, {"type": "note_off", "time": 99, "note": 65, "velocity": 117, "channel": 0}, {"type": "note_on", "time": 26, "note": 60, "velocity": 102, "channel": 0}, {"type": "note_off", "time": 53, "note": 60, "velocity": 102, "channel": 0}, {"type": "note_on", "time": 30, "note": 67, "velocity": 100, "channel": 0}, {"type": "note_off", "time": 64, "note": 67, "velocity": 100, "channel": 0}, {"type": "note_on", "time": 10, "note": 68, "velocity": 115, "channel": 0}, {"type": "note_off", "time": 56, "note": 68, "velocity": 115, "channel": 0}, {"type": "note_on", "time": 14, "note": 67, "velocity": 111, "channel": 0}, {"type": "note_off", "time": 36, "note": 67, "velocity": 111, "channel": 0}, {"type": "note_on", "time": 4, "note": 65, "velocity": 114, "channel": 0}, {"type": "note_off", "time": 93, "note": 65, "velocity": 114, "channel": 0}, {"type": "note_on", "time": 9, "note": 68, "velocity": 125, "channel": 0}, {"type": "note_off", "time": 78, "note": 68, "velocity": 125, "channel": 0}, {"type": "note_on", "time": 9, "note": 65, "velocity": 117, "channel": 0}, {"type": "note_off", "time": 83, "note": 65, "velocity": 117, "channel": 0}, {"type": "note_on", "time": 16, "note": 61, "velocity": 106, "channel": 0}, {"type": "note_off", "time": 80, "note": 61, "velocity": 106, "channel": 0}, {"type": "note_on", "time": 16, "note": 56, "velocity": 104, "channel": 0}, {"type": "note_off", "time": 89, "note": 56, "velocity": 104, "channel": 0}, {"type": "note_on", "time": 18, "note": 53, "velocity": 100, "channel": 0}, {"type": "note_off", "time": 53, "note": 53, "velocity": 100, "channel": 0}, {"type": "note_on", "time": 21, "note": 60, "velocity": 108, "channel": 0}, {"type": "note_off", "time": 169, "note": 60, "velocity": 108, "channel": 0}, {"type": "note_on", "time": 19, "note": 58, "velocity": 99, "channel": 0}, {"type": "note_off", "time": 103, "note": 58, "velocity": 99, "channel": 0}, {"type": "note_on", "time": 37, "note": 63, "velocity": 104, "channel": 0}, {"type": "note_off", "time": 104, "note": 63, "velocity": 104, "channel": 0}, {"type": "note_on", "time": 236, "note": 63, "velocity": 106, "channel": 0}, {"type": "note_off", "time": 79, "note": 63, "velocity": 106, "channel": 0}, {"type": "note_on", "time": 6, "note": 64, "velocity": 107, "channel": 0}, {"type": "note_off", "time": 91, "note": 64, "velocity": 107, "channel": 0}, {"type": "note_on", "time": 100, "note": 64, "velocity": 106, "channel": 0}, {"type": "note_off", "time": 174, "note": 64, "velocity": 106, "channel": 0}, {"type": "note_on", "time": 4, "note": 65, "velocity": 122, "channel": 0}, {"type": "note_off", "time": 118, "note": 65, "velocity": 122, "channel": 0}, {"type": "note_on", "time": 110, "note": 65, "velocity": 119, "channel": 0}, {"type": "note_off", "time": 82, "note": 65, "velocity": 119, "channel": 0}, {"type": "note_on", "time": 8, "note": 65, "velocity": 118, "channel": 0}, {"type": "note_off", "time": 68, "note": 65, "velocity": 118, "channel": 0}, {"type": "note_on", "time": 9, "note": 66, "velocity": 112, "channel": 0}, {"type": "note_off", "time": 102, "note": 66, "velocity": 112, "channel": 0}, {"type": "note_on", "time": 95, "note": 68, "velocity": 100, "channel": 0}, {"type": "note_off", "time": 328, "note": 68, "velocity": 100, "channel": 0}, {"type": "note_on", "time": 23, "note": 65, "velocity": 9, "channel": 0}, {"type": "note_off", "time": 109, "note": 65, "velocity": 9, "channel": 0}, {"type": "note_on", "time": 14, "note": 63, "velocity": 103, "channel": 0}, {"type": "note_off", "time": 69, "note": 63, "velocity": 103, "channel": 0}, {"type": "note_on", "time": 58, "note": 60, "velocity": 83, "channel": 0}, {"type": "note_off", "time": 64, "note": 60, "velocity": 83, "channel": 0}, {"type": "note_on", "time": 17, "note": 61, "velocity": 101, "channel": 0}, {"type": "note_off", "time": 51, "note": 61, "velocity": 101, "channel": 0}, {"type": "note_on", "time": 30, "note": 65, "velocity": 110, "channel": 0}, {"type": "note_off", "time": 71, "note": 65, "velocity": 110, "channel": 0}, {"type": "note_on", "time": 23, "note": 68, "velocity": 109, "channel": 0}, {"type": "note_off", "time": 69, "note": 68, "velocity": 109, "channel": 0}, {"type": "note_on", "time": 23, "note": 70, "velocity": 93, "channel": 0}, {"type": "note_off", "time": 265, "note": 70, "velocity": 93, "channel": 0}, {"type": "note_on", "time": 97, "note": 68, "velocity": 111, "channel": 0}, {"type": "note_off", "time": 91, "note": 68, "velocity": 111, "channel": 0}, {"type": "note_on", "time": 19, "note": 64, "velocity": 101, "channel": 0}, {"type": "note_off", "time": 51, "note": 64, "velocity": 101, "channel": 0}, {"type": "note_on", "time": 29, "note": 61, "velocity": 97, "channel": 0}, {"type": "note_off", "time": 70, "note": 61, "velocity": 97, "channel": 0}, {"type": "note_on", "time": 23, "note": 67, "velocity": 109, "channel": 0}, {"type": "note_off", "time": 81, "note": 67, "velocity": 109, "channel": 0}, {"type": "note_on", "time": 8, "note": 65, "velocity": 82, "channel": 0}, {"type": "note_off", "time": 109, "note": 65, "velocity": 82, "channel": 0}, {"type": "note_on", "time": 7, "note": 66, "velocity": 110, "channel": 0}, {"type": "note_off", "time": 57, "note": 66, "velocity": 110, "channel": 0}, {"type": "note_on", "time": 11, "note": 67, "velocity": 108, "channel": 0}, {"type": "note_off", "time": 103, "note": 67, "velocity": 108, "channel": 0}, {"type": "note_on", "time": 10, "note": 65, "velocity": 110, "channel": 0}, {"type": "note_off", "time": 67, "note": 65, "velocity": 110, "channel": 0}, {"type": "note_on", "time": 21, "note": 63, "velocity": 98, "channel": 0}, {"type": "note_off", "time": 73, "note": 63, "velocity": 98, "channel": 0}, {"type": "note_on", "time": 17, "note": 60, "velocity": 104, "channel": 0}, {"type": "note_off", "time": 72, "note": 60, "velocity": 104, "channel": 0}, {"type": "note_on", "time": 12, "note": 58, "velocity": 88, "channel": 0}, {"type": "note_off", "time": 126, "note": 58, "velocity": 88, "channel": 0}, {"type": "note_on", "time": 23, "note": 56, "velocity": 98, "channel": 0}, {"type": "note_off", "time": 44, "note": 56, "velocity": 98, "channel": 0}, {"type": "note_on", "time": 19, "note": 58, "velocity": 96, "channel": 0}, {"type": "note_off", "time": 109, "note": 58, "velocity": 96, "channel": 0}, {"type": "note_on", "time": 11, "note": 56, "velocity": 93, "channel": 0}, {"type": "note_off", "time": 52, "note": 56, "velocity": 93, "channel": 0}, {"type": "note_on", "time": 1, "note": 58, "velocity": 96, "channel": 0}, {"type": "note_off", "time": 95, "note": 58, "velocity": 96, "channel": 0}, {"type": "note_on", "time": 18, "note": 56, "velocity": 98, "channel": 0}, {"type": "note_off", "time": 151, "note": 56, "velocity": 98, "channel": 0}, {"type": "note_on", "time": 33, "note": 56, "velocity": 95, "channel": 0}, {"type": "note_off", "time": 59, "note": 56, "velocity": 95, "channel": 0}, {"type": "note_on", "time": 33, "note": 60, "velocity": 101, "channel": 0}, {"type": "note_off", "time": 119, "note": 60, "velocity": 101, "channel": 0}, {"type": "note_on", "time": 33, "note": 63, "velocity": 91, "channel": 0}, {"type": "note_off", "time": 374, "note": 63, "velocity": 91, "channel": 0}, {"type": "note_on", "time": 1050, "note": 72, "velocity": 116, "channel": 0}, {"type": "note_off", "time": 67, "note": 72, "velocity": 116, "channel": 0}, {"type": "note_on", "time": 4, "note": 75, "velocity": 113, "channel": 0}, {"type": "note_off", "time": 100, "note": 75, "velocity": 113, "channel": 0}, {"type": "note_on", "time": 14, "note": 76, "velocity": 119, "channel": 0}, {"type": "note_off", "time": 33, "note": 76, "velocity": 119, "channel": 0}, {"type": "note_on", "time": 9, "note": 75, "velocity": 113, "channel": 0}, {"type": "note_off", "time": 42, "note": 75, "velocity": 113, "channel": 0}, {"type": "note_on", "time": 7, "note": 72, "velocity": 119, "channel": 0}, {"type": "note_off", "time": 98, "note": 72, "velocity": 119, "channel": 0}, {"type": "note_on", "time": 15, "note": 70, "velocity": 116, "channel": 0}, {"type": "note_off", "time": 82, "note": 70, "velocity": 116, "channel": 0}, {"type": "note_on", "time": 10, "note": 68, "velocity": 108, "channel": 0}, {"type": "note_off", "time": 87, "note": 68, "velocity": 108, "channel": 0}, {"type": "note_on", "time": 11, "note": 70, "velocity": 114, "channel": 0}, {"type": "note_off", "time": 63, "note": 70, "velocity": 114, "channel": 0}, {"type": "note_on", "time": 6, "note": 72, "velocity": 119, "channel": 0}, {"type": "note_off", "time": 99, "note": 72, "velocity": 119, "channel": 0}, {"type": "note_on", "time": 16, "note": 73, "velocity": 103, "channel": 0}, {"type": "note_off", "time": 71, "note": 73, "velocity": 103, "channel": 0}, {"type": "note_on", "time": 34, "note": 70, "velocity": 94, "channel": 0}, {"type": "note_off", "time": 84, "note": 70, "velocity": 94, "channel": 0}, {"type": "note_on", "time": 11, "note": 71, "velocity": 117, "channel": 0}, {"type": "note_off", "time": 62, "note": 71, "velocity": 117, "channel": 0}, {"type": "note_on", "time": 11, "note": 72, "velocity": 119, "channel": 0}, {"type": "note_off", "time": 81, "note": 72, "velocity": 119, "channel": 0}, {"type": "note_on", "time": 21, "note": 70, "velocity": 115, "channel": 0}, {"type": "note_off", "time": 78, "note": 70, "velocity": 115, "channel": 0}, {"type": "note_on", "time": 14, "note": 68, "velocity": 118, "channel": 0}, {"type": "note_off", "time": 94, "note": 68, "velocity": 118, "channel": 0}, {"type": "note_on", "time": 11, "note": 64, "velocity": 108, "channel": 0}, {"type": "note_off", "time": 66, "note": 64, "velocity": 108, "channel": 0}, {"type": "note_on", "time": 16, "note": 60, "velocity": 99, "channel": 0}, {"type": "note_off", "time": 113, "note": 60, "velocity": 99, "channel": 0}, {"type": "note_on", "time": 73, "note": 65, "velocity": 121, "channel": 0}, {"type": "note_off", "time": 96, "note": 65, "velocity": 121, "channel": 0}, {"type": "note_on", "time": 4, "note": 60, "velocity": 99, "channel": 0}, {"type": "note_off", "time": 71, "note": 60, "velocity": 99, "channel": 0}, {"type": "note_on", "time": 8, "note": 65, "velocity": 117, "channel": 0}, {"type": "note_off", "time": 100, "note": 65, "velocity": 117, "channel": 0}, {"type": "note_on", "time": 31, "note": 68, "velocity": 120, "channel": 0}, {"type": "note_off", "time": 76, "note": 68, "velocity": 120, "channel": 0}, {"type": "note_on", "time": 31, "note": 65, "velocity": 88, "channel": 0}, {"type": "note_off", "time": 66, "note": 65, "velocity": 88, "channel": 0}, {"type": "note_on", "time": 4, "note": 66, "velocity": 111, "channel": 0}, {"type": "note_off", "time": 74, "note": 66, "velocity": 111, "channel": 0}, {"type": "note_on", "time": 12, "note": 67, "velocity": 111, "channel": 0}, {"type": "note_off", "time": 97, "note": 67, "velocity": 111, "channel": 0}, {"type": "note_on", "time": 18, "note": 66, "velocity": 111, "channel": 0}, {"type": "note_off", "time": 75, "note": 66, "velocity": 111, "channel": 0}, {"type": "note_on", "time": 10, "note": 65, "velocity": 91, "channel": 0}, {"type": "note_off", "time": 83, "note": 65, "velocity": 91, "channel": 0}, {"type": "note_on", "time": 14, "note": 67, "velocity": 107, "channel": 0}, {"type": "note_off", "time": 56, "note": 67, "velocity": 107, "channel": 0}, {"type": "note_on", "time": 6, "note": 68, "velocity": 114, "channel": 0}, {"type": "note_off", "time": 106, "note": 68, "velocity": 114, "channel": 0}, {"type": "note_on", "time": 109, "note": 70, "velocity": 109, "channel": 0}, {"type": "note_off", "time": 86, "note": 70, "velocity": 109, "channel": 0}, {"type": "note_on", "time": 18, "note": 72, "velocity": 114, "channel": 0}, {"type": "note_off", "time": 77, "note": 72, "velocity": 114, "channel": 0}, {"type": "note_on", "time": 14, "note": 73, "velocity": 89, "channel": 0}, {"type": "note_off", "time": 81, "note": 73, "velocity": 89, "channel": 0}, {"type": "note_on", "time": 104, "note": 75, "velocity": 116, "channel": 0}, {"type": "note_off", "time": 119, "note": 75, "velocity": 116, "channel": 0}, {"type": "note_on", "time": 67, "note": 79, "velocity": 106, "channel": 0}, {"type": "note_off", "time": 45, "note": 79, "velocity": 106, "channel": 0}, {"type": "note_on", "time": 5, "note": 80, "velocity": 116, "channel": 0}, {"type": "note_off", "time": 148, "note": 80, "velocity": 116, "channel": 0}, {"type": "note_on", "time": 13, "note": 75, "velocity": 115, "channel": 0}, {"type": "note_off", "time": 101, "note": 75, "velocity": 115, "channel": 0}, {"type": "note_on", "time": 5, "note": 73, "velocity": 97, "channel": 0}, {"type": "note_off", "time": 140, "note": 73, "velocity": 97, "channel": 0}, {"type": "note_on", "time": 6, "note": 72, "velocity": 101, "channel": 0}, {"type": "note_off", "time": 36, "note": 72, "velocity": 101, "channel": 0}, {"type": "note_on", "time": 7, "note": 70, "velocity": 106, "channel": 0}, {"type": "note_off", "time": 64, "note": 70, "velocity": 106, "channel": 0}, {"type": "note_on", "time": 15, "note": 68, "velocity": 110, "channel": 0}, {"type": "note_off", "time": 79, "note": 68, "velocity": 110, "channel": 0}, {"type": "note_on", "time": 6, "note": 77, "velocity": 116, "channel": 0}, {"type": "note_off", "time": 283, "note": 77, "velocity": 116, "channel": 0}, {"type": "note_on", "time": 14, "note": 75, "velocity": 113, "channel": 0}, {"type": "note_off", "time": 94, "note": 75, "velocity": 113, "channel": 0}, {"type": "note_on", "time": 11, "note": 73, "velocity": 96, "channel": 0}, {"type": "note_off", "time": 69, "note": 73, "velocity": 96, "channel": 0}, {"type": "note_on", "time": 9, "note": 72, "velocity": 107, "channel": 0}, {"type": "note_off", "time": 92, "note": 72, "velocity": 107, "channel": 0}, {"type": "note_on", "time": 12, "note": 70, "velocity": 107, "channel": 0}, {"type": "note_off", "time": 68, "note": 70, "velocity": 107, "channel": 0}, {"type": "note_on", "time": 4, "note": 69, "velocity": 109, "channel": 0}, {"type": "note_off", "time": 111, "note": 69, "velocity": 109, "channel": 0}, {"type": "note_on", "time": 11, "note": 67, "velocity": 93, "channel": 0}, {"type": "note_off", "time": 49, "note": 67, "velocity": 93, "channel": 0}, {"type": "note_on", "time": 14, "note": 68, "velocity": 110, "channel": 0}, {"type": "note_off", "time": 106, "note": 68, "velocity": 110, "channel": 0}, {"type": "note_on", "time": 11, "note": 66, "velocity": 111, "channel": 0}, {"type": "note_off", "time": 79, "note": 66, "velocity": 111, "channel": 0}, {"type": "note_on", "time": 25, "note": 63, "velocity": 88, "channel": 0}, {"type": "note_off", "time": 59, "note": 63, "velocity": 88, "channel": 0}, {"type": "note_on", "time": 9, "note": 64, "velocity": 104, "channel": 0}, {"type": "note_off", "time": 62, "note": 64, "velocity": 104, "channel": 0}, {"type": "note_on", "time": 18, "note": 65, "velocity": 114, "channel": 0}, {"type": "note_off", "time": 101, "note": 65, "velocity": 114, "channel": 0}, {"type": "note_on", "time": 30, "note": 63, "velocity": 101, "channel": 0}, {"type": "note_off", "time": 54, "note": 63, "velocity": 101, "channel": 0}, {"type": "note_on", "time": 23, "note": 60, "velocity": 89, "channel": 0}, {"type": "note_off", "time": 114, "note": 60, "velocity": 89, "channel": 0}, {"type": "note_on", "time": 14, "note": 61, "velocity": 89, "channel": 0}, {"type": "note_off", "time": 36, "note": 61, "velocity": 89, "channel": 0}, {"type": "note_on", "time": 17, "note": 62, "velocity": 98, "channel": 0}, {"type": "note_off", "time": 102, "note": 62, "velocity": 98, "channel": 0}, {"type": "note_on", "time": 12, "note": 60, "velocity": 99, "channel": 0}, {"type": "note_off", "time": 52, "note": 60, "velocity": 99, "channel": 0}, {"type": "note_on", "time": 163, "note": 62, "velocity": 91, "channel": 0}, {"type": "note_off", "time": 20, "note": 62, "velocity": 91, "channel": 0}, {"type": "note_on", "time": 13, "note": 67, "velocity": 113, "channel": 0}, {"type": "note_off", "time": 114, "note": 67, "velocity": 113, "channel": 0}, {"type": "note_on", "time": 15, "note": 65, "velocity": 106, "channel": 0}, {"type": "note_off", "time": 74, "note": 65, "velocity": 106, "channel": 0}, {"type": "note_on", "time": 143, "note": 67, "velocity": 90, "channel": 0}, {"type": "note_off", "time": 35, "note": 67, "velocity": 90, "channel": 0}, {"type": "note_on", "time": 19, "note": 69, "velocity": 112, "channel": 0}, {"type": "note_off", "time": 100, "note": 69, "velocity": 112, "channel": 0}, {"type": "note_on", "time": 63, "note": 72, "velocity": 85, "channel": 0}, {"type": "note_off", "time": 301, "note": 72, "velocity": 85, "channel": 0}, {"type": "note_on", "time": 290, "note": 67, "velocity": 106, "channel": 0}, {"type": "note_off", "time": 145, "note": 67, "velocity": 106, "channel": 0}, {"type": "note_on", "time": 51, "note": 64, "velocity": 106, "channel": 0}, {"type": "note_off", "time": 102, "note": 64, "velocity": 106, "channel": 0}, {"type": "note_on", "time": 11, "note": 60, "velocity": 104, "channel": 0}, {"type": "note_off", "time": 54, "note": 60, "velocity": 104, "channel": 0}, {"type": "note_on", "time": 26, "note": 68, "velocity": 118, "channel": 0}, {"type": "note_off", "time": 87, "note": 68, "velocity": 118, "channel": 0}, {"type": "note_on", "time": 28, "note": 65, "velocity": 115, "channel": 0}, {"type": "note_off", "time": 68, "note": 65, "velocity": 115, "channel": 0}, {"type": "note_on", "time": 11, "note": 61, "velocity": 101, "channel": 0}, {"type": "note_off", "time": 84, "note": 61, "velocity": 101, "channel": 0}, {"type": "note_on", "time": 20, "note": 59, "velocity": 102, "channel": 0}, {"type": "note_off", "time": 49, "note": 59, "velocity": 102, "channel": 0}, {"type": "note_on", "time": 19, "note": 62, "velocity": 101, "channel": 0}, {"type": "note_off", "time": 101, "note": 62, "velocity": 101, "channel": 0}, {"type": "note_on", "time": 8, "note": 60, "velocity": 104, "channel": 0}, {"type": "note_off", "time": 73, "note": 60, "velocity": 104, "channel": 0}, {"type": "note_on", "time": 202, "note": 63, "velocity": 100, "channel": 0}, {"type": "note_off", "time": 99, "note": 63, "velocity": 100, "channel": 0}, {"type": "note_on", "time": 21, "note": 67, "velocity": 90, "channel": 0}, {"type": "note_off", "time": 37, "note": 67, "velocity": 90, "channel": 0}, {"type": "note_on", "time": 12, "note": 70, "velocity": 111, "channel": 0}, {"type": "note_off", "time": 82, "note": 70, "velocity": 111, "channel": 0}, {"type": "note_on", "time": 11, "note": 72, "velocity": 110, "channel": 0}, {"type": "note_off", "time": 51, "note": 72, "velocity": 110, "channel": 0}, {"type": "note_on", "time": 3, "note": 70, "velocity": 110, "channel": 0}, {"type": "note_off", "time": 36, "note": 70, "velocity": 110, "channel": 0}, {"type": "note_on", "time": 13, "note": 69, "velocity": 110, "channel": 0}, {"type": "note_off", "time": 123, "note": 69, "velocity": 110, "channel": 0}, {"type": "note_on", "time": 27, "note": 67, "velocity": 80, "channel": 0}, {"type": "note_off", "time": 40, "note": 67, "velocity": 80, "channel": 0}, {"type": "note_on", "time": 14, "note": 68, "velocity": 107, "channel": 0}, {"type": "note_off", "time": 89, "note": 68, "velocity": 107, "channel": 0}, {"type": "note_on", "time": 18, "note": 72, "velocity": 104, "channel": 0}, {"type": "note_off", "time": 48, "note": 72, "velocity": 104, "channel": 0}, {"type": "note_on", "time": 30, "note": 75, "velocity": 110, "channel": 0}, {"type": "note_off", "time": 112, "note": 75, "velocity": 110, "channel": 0}, {"type": "note_on", "time": 70, "note": 77, "velocity": 121, "channel": 0}, {"type": "note_off", "time": 102, "note": 77, "velocity": 121, "channel": 0}, {"type": "note_on", "time": 12, "note": 78, "velocity": 120, "channel": 0}, {"type": "note_off", "time": 54, "note": 78, "velocity": 120, "channel": 0}, {"type": "note_on", "time": 15, "note": 79, "velocity": 116, "channel": 0}, {"type": "note_off", "time": 103, "note": 79, "velocity": 116, "channel": 0}, {"type": "note_on", "time": 20, "note": 77, "velocity": 119, "channel": 0}, {"type": "note_off", "time": 76, "note": 77, "velocity": 119, "channel": 0}, {"type": "note_on", "time": 19, "note": 74, "velocity": 98, "channel": 0}, {"type": "note_off", "time": 102, "note": 74, "velocity": 98, "channel": 0}, {"type": "note_on", "time": 84, "note": 72, "velocity": 107, "channel": 0}, {"type": "note_off", "time": 94, "note": 72, "velocity": 107, "channel": 0}, {"type": "note_on", "time": 7, "note": 75, "velocity": 114, "channel": 0}, {"type": "note_off", "time": 69, "note": 75, "velocity": 114, "channel": 0}, {"type": "note_on", "time": 14, "note": 72, "velocity": 102, "channel": 0}, {"type": "note_off", "time": 102, "note": 72, "velocity": 102, "channel": 0}, {"type": "note_on", "time": 30, "note": 72, "velocity": 85, "channel": 0}, {"type": "note_off", "time": 331, "note": 72, "velocity": 85, "channel": 0}, {"type": "note_on", "time": 968, "note": 74, "velocity": 108, "channel": 0}, {"type": "note_off", "time": 24, "note": 74, "velocity": 108, "channel": 0}, {"type": "note_on", "time": 8, "note": 72, "velocity": 121, "channel": 0}, {"type": "note_off", "time": 27, "note": 72, "velocity": 121, "channel": 0}, {"type": "note_on", "time": 33, "note": 66, "velocity": 125, "channel": 0}, {"type": "note_off", "time": 119, "note": 66, "velocity": 125, "channel": 0}, {"type": "note_on", "time": 9, "note": 69, "velocity": 96, "channel": 0}, {"type": "note_off", "time": 36, "note": 69, "velocity": 96, "channel": 0}, {"type": "note_on", "time": 18, "note": 72, "velocity": 117, "channel": 0}, {"type": "note_off", "time": 85, "note": 72, "velocity": 117, "channel": 0}, {"type": "note_on", "time": 21, "note": 75, "velocity": 116, "channel": 0}, {"type": "note_off", "time": 76, "note": 75, "velocity": 116, "channel": 0}, {"type": "note_on", "time": 8, "note": 72, "velocity": 119, "channel": 0}, {"type": "note_off", "time": 98, "note": 72, "velocity": 119, "channel": 0}, {"type": "note_on", "time": 9, "note": 73, "velocity": 103, "channel": 0}, {"type": "note_off", "time": 82, "note": 73, "velocity": 103, "channel": 0}, {"type": "note_on", "time": 7, "note": 74, "velocity": 109, "channel": 0}, {"type": "note_off", "time": 79, "note": 74, "velocity": 109, "channel": 0}, {"type": "note_on", "time": 92, "note": 72, "velocity": 121, "channel": 0}, {"type": "note_off", "time": 115, "note": 72, "velocity": 121, "channel": 0}, {"type": "note_on", "time": 26, "note": 69, "velocity": 103, "channel": 0}, {"type": "note_off", "time": 51, "note": 69, "velocity": 103, "channel": 0}, {"type": "note_on", "time": 8, "note": 70, "velocity": 115, "channel": 0}, {"type": "note_off", "time": 112, "note": 70, "velocity": 115, "channel": 0}, {"type": "note_on", "time": 6, "note": 71, "velocity": 111, "channel": 0}, {"type": "note_off", "time": 72, "note": 71, "velocity": 111, "channel": 0}, {"type": "note_on", "time": 7, "note": 72, "velocity": 110, "channel": 0}, {"type": "note_off", "time": 86, "note": 72, "velocity": 110, "channel": 0}, {"type": "note_on", "time": 11, "note": 71, "velocity": 114, "channel": 0}, {"type": "note_off", "time": 75, "note": 71, "velocity": 114, "channel": 0}, {"type": "note_on", "time": 9, "note": 67, "velocity": 113, "channel": 0}, {"type": "note_off", "time": 112, "note": 67, "velocity": 113, "channel": 0}, {"type": "note_on", "time": 21, "note": 62, "velocity": 95, "channel": 0}, {"type": "note_off", "time": 42, "note": 62, "velocity": 95, "channel": 0}, {"type": "note_on", "time": 21, "note": 66, "velocity": 114, "channel": 0}, {"type": "note_off", "time": 106, "note": 66, "velocity": 114, "channel": 0}, {"type": "note_on", "time": 38, "note": 62, "velocity": 93, "channel": 0}, {"type": "note_off", "time": 33, "note": 62, "velocity": 93, "channel": 0}, {"type": "note_on", "time": 25, "note": 65, "velocity": 114, "channel": 0}, {"type": "note_off", "time": 102, "note": 65, "velocity": 114, "channel": 0}, {"type": "note_on", "time": 14, "note": 62, "velocity": 89, "channel": 0}, {"type": "note_off", "time": 41, "note": 62, "velocity": 89, "channel": 0}, {"type": "note_on", "time": 21, "note": 66, "velocity": 116, "channel": 0}, {"type": "note_off", "time": 111, "note": 66, "velocity": 116, "channel": 0}, {"type": "note_on", "time": 19, "note": 62, "velocity": 86, "channel": 0}, {"type": "note_off", "time": 31, "note": 62, "velocity": 86, "channel": 0}, {"type": "note_on", "time": 10, "note": 65, "velocity": 115, "channel": 0}, {"type": "note_off", "time": 134, "note": 65, "velocity": 115, "channel": 0}, {"type": "note_on", "time": 16, "note": 60, "velocity": 97, "channel": 0}, {"type": "note_off", "time": 41, "note": 60, "velocity": 97, "channel": 0}, {"type": "note_on", "time": 28, "note": 66, "velocity": 107, "channel": 0}, {"type": "note_off", "time": 112, "note": 66, "velocity": 107, "channel": 0}, {"type": "note_on", "time": 20, "note": 62, "velocity": 81, "channel": 0}, {"type": "note_off", "time": 33, "note": 62, "velocity": 81, "channel": 0}, {"type": "note_on", "time": 21, "note": 67, "velocity": 77, "channel": 0}, {"type": "note_off", "time": 346, "note": 67, "velocity": 77, "channel": 0}, {"type": "note_on", "time": 329, "note": 67, "velocity": 114, "channel": 0}, {"type": "note_off", "time": 64, "note": 67, "velocity": 114, "channel": 0}, {"type": "note_on", "time": 8, "note": 68, "velocity": 115, "channel": 0}, {"type": "note_off", "time": 114, "note": 68, "velocity": 115, "channel": 0}, {"type": "note_on", "time": 376, "note": 64, "velocity": 96, "channel": 0}, {"type": "note_off", "time": 55, "note": 64, "velocity": 96, "channel": 0}, {"type": "note_on", "time": 3, "note": 69, "velocity": 121, "channel": 0}, {"type": "note_off", "time": 120, "note": 69, "velocity": 121, "channel": 0}, {"type": "note_on", "time": 14, "note": 64, "velocity": 97, "channel": 0}, {"type": "note_off", "time": 44, "note": 64, "velocity": 97, "channel": 0}, {"type": "note_on", "time": 26, "note": 70, "velocity": 114, "channel": 0}, {"type": "note_off", "time": 99, "note": 70, "velocity": 114, "channel": 0}, {"type": "note_on", "time": 8, "note": 71, "velocity": 116, "channel": 0}, {"type": "note_off", "time": 62, "note": 71, "velocity": 116, "channel": 0}, {"type": "note_on", "time": 9, "note": 72, "velocity": 115, "channel": 0}, {"type": "note_off", "time": 102, "note": 72, "velocity": 115, "channel": 0}, {"type": "note_on", "time": 10, "note": 71, "velocity": 113, "channel": 0}, {"type": "note_off", "time": 75, "note": 71, "velocity": 113, "channel": 0}, {"type": "note_on", "time": 13, "note": 69, "velocity": 109, "channel": 0}, {"type": "note_off", "time": 80, "note": 69, "velocity": 109, "channel": 0}, {"type": "note_on", "time": 23, "note": 68, "velocity": 112, "channel": 0}, {"type": "note_off", "time": 70, "note": 68, "velocity": 112, "channel": 0}, {"type": "note_on", "time": 8, "note": 67, "velocity": 107, "channel": 0}, {"type": "note_off", "time": 76, "note": 67, "velocity": 107, "channel": 0}, {"type": "note_on", "time": 14, "note": 68, "velocity": 104, "channel": 0}, {"type": "note_off", "time": 38, "note": 68, "velocity": 104, "channel": 0}, {"type": "note_on", "time": 8, "note": 67, "velocity": 108, "channel": 0}, {"type": "note_off", "time": 44, "note": 67, "velocity": 108, "channel": 0}, {"type": "note_on", "time": 6, "note": 66, "velocity": 109, "channel": 0}, {"type": "note_off", "time": 86, "note": 66, "velocity": 109, "channel": 0}, {"type": "note_on", "time": 16, "note": 64, "velocity": 97, "channel": 0}, {"type": "note_off", "time": 76, "note": 64, "velocity": 97, "channel": 0}, {"type": "note_on", "time": 18, "note": 62, "velocity": 101, "channel": 0}, {"type": "note_off", "time": 87, "note": 62, "velocity": 101, "channel": 0}, {"type": "note_on", "time": 7, "note": 59, "velocity": 100, "channel": 0}, {"type": "note_off", "time": 69, "note": 59, "velocity": 100, "channel": 0}, {"type": "note_on", "time": 16, "note": 57, "velocity": 102, "channel": 0}, {"type": "note_off", "time": 94, "note": 57, "velocity": 102, "channel": 0}, {"type": "note_on", "time": 21, "note": 55, "velocity": 99, "channel": 0}, {"type": "note_off", "time": 50, "note": 55, "velocity": 99, "channel": 0}, {"type": "note_on", "time": 42, "note": 59, "velocity": 102, "channel": 0}, {"type": "note_off", "time": 114, "note": 59, "velocity": 102, "channel": 0}, {"type": "note_on", "time": 6, "note": 58, "velocity": 94, "channel": 0}, {"type": "note_off", "time": 46, "note": 58, "velocity": 94, "channel": 0}, {"type": "note_on", "time": 17, "note": 57, "velocity": 95, "channel": 0}, {"type": "note_off", "time": 165, "note": 57, "velocity": 95, "channel": 0}, {"type": "note_on", "time": 21, "note": 67, "velocity": 106, "channel": 0}, {"type": "note_off", "time": 102, "note": 67, "velocity": 106, "channel": 0}, {"type": "note_on", "time": 10, "note": 66, "velocity": 116, "channel": 0}, {"type": "note_off", "time": 111, "note": 66, "velocity": 116, "channel": 0}, {"type": "note_on", "time": 8, "note": 65, "velocity": 114, "channel": 0}, {"type": "note_off", "time": 65, "note": 65, "velocity": 114, "channel": 0}, {"type": "note_on", "time": 16, "note": 64, "velocity": 100, "channel": 0}, {"type": "note_off", "time": 64, "note": 64, "velocity": 100, "channel": 0}, {"type": "note_on", "time": 14, "note": 63, "velocity": 94, "channel": 0}, {"type": "note_off", "time": 79, "note": 63, "velocity": 94, "channel": 0}, {"type": "note_on", "time": 12, "note": 65, "velocity": 115, "channel": 0}, {"type": "note_off", "time": 82, "note": 65, "velocity": 115, "channel": 0}, {"type": "note_on", "time": 7, "note": 66, "velocity": 90, "channel": 0}, {"type": "note_off", "time": 98, "note": 66, "velocity": 90, "channel": 0}, {"type": "note_on", "time": 14, "note": 69, "velocity": 113, "channel": 0}, {"type": "note_off", "time": 61, "note": 69, "velocity": 113, "channel": 0}, {"type": "note_on", "time": 15, "note": 72, "velocity": 114, "channel": 0}, {"type": "note_off", "time": 97, "note": 72, "velocity": 114, "channel": 0}, {"type": "note_on", "time": 13, "note": 69, "velocity": 103, "channel": 0}, {"type": "note_off", "time": 56, "note": 69, "velocity": 103, "channel": 0}, {"type": "note_on", "time": 13, "note": 71, "velocity": 108, "channel": 0}, {"type": "note_off", "time": 106, "note": 71, "velocity": 108, "channel": 0}, {"type": "note_on", "time": 15, "note": 69, "velocity": 114, "channel": 0}, {"type": "note_off", "time": 66, "note": 69, "velocity": 114, "channel": 0}, {"type": "note_on", "time": 33, "note": 68, "velocity": 95, "channel": 0}, {"type": "note_off", "time": 149, "note": 68, "velocity": 95, "channel": 0}, {"type": "note_on", "time": 22, "note": 69, "velocity": 117, "channel": 0}, {"type": "note_off", "time": 96, "note": 69, "velocity": 117, "channel": 0}, {"type": "note_on", "time": 9, "note": 70, "velocity": 104, "channel": 0}, {"type": "note_off", "time": 70, "note": 70, "velocity": 104, "channel": 0}, {"type": "note_on", "time": 9, "note": 71, "velocity": 108, "channel": 0}, {"type": "note_off", "time": 102, "note": 71, "velocity": 108, "channel": 0}, {"type": "note_on", "time": 34, "note": 64, "velocity": 83, "channel": 0}, {"type": "note_off", "time": 47, "note": 64, "velocity": 83, "channel": 0}, {"type": "note_on", "time": 26, "note": 68, "velocity": 108, "channel": 0}, {"type": "note_off", "time": 76, "note": 68, "velocity": 108, "channel": 0}, {"type": "note_on", "time": 17, "note": 69, "velocity": 118, "channel": 0}, {"type": "note_off", "time": 59, "note": 69, "velocity": 118, "channel": 0}, {"type": "note_on", "time": 19, "note": 70, "velocity": 107, "channel": 0}, {"type": "note_off", "time": 186, "note": 70, "velocity": 107, "channel": 0}, {"type": "note_on", "time": 24, "note": 71, "velocity": 109, "channel": 0}, {"type": "note_off", "time": 79, "note": 71, "velocity": 109, "channel": 0}, {"type": "note_on", "time": 9, "note": 72, "velocity": 111, "channel": 0}, {"type": "note_off", "time": 94, "note": 72, "velocity": 111, "channel": 0}, {"type": "note_on", "time": 14, "note": 73, "velocity": 100, "channel": 0}, {"type": "note_off", "time": 83, "note": 73, "velocity": 100, "channel": 0}, {"type": "note_on", "time": 13, "note": 70, "velocity": 103, "channel": 0}, {"type": "note_off", "time": 71, "note": 70, "velocity": 103, "channel": 0}, {"type": "note_on", "time": 15, "note": 67, "velocity": 107, "channel": 0}, {"type": "note_off", "time": 103, "note": 67, "velocity": 107, "channel": 0}, {"type": "note_on", "time": 13, "note": 64, "velocity": 95, "channel": 0}, {"type": "note_off", "time": 48, "note": 64, "velocity": 95, "channel": 0}, {"type": "note_on", "time": 43, "note": 65, "velocity": 110, "channel": 0}, {"type": "note_off", "time": 160, "note": 65, "velocity": 110, "channel": 0}, {"type": "note_on", "time": 21, "note": 68, "velocity": 109, "channel": 0}, {"type": "note_off", "time": 124, "note": 68, "velocity": 109, "channel": 0}, {"type": "note_on", "time": 14, "note": 65, "velocity": 101, "channel": 0}, {"type": "note_off", "time": 42, "note": 65, "velocity": 101, "channel": 0}, {"type": "note_on", "time": 2, "note": 67, "velocity": 106, "channel": 0}, {"type": "note_off", "time": 104, "note": 67, "velocity": 106, "channel": 0}, {"type": "note_on", "time": 13, "note": 65, "velocity": 112, "channel": 0}, {"type": "note_off", "time": 62, "note": 65, "velocity": 112, "channel": 0}, {"type": "note_on", "time": 31, "note": 60, "velocity": 105, "channel": 0}, {"type": "note_off", "time": 86, "note": 60, "velocity": 105, "channel": 0}, {"type": "note_on", "time": 23, "note": 56, "velocity": 96, "channel": 0}, {"type": "note_off", "time": 44, "note": 56, "velocity": 96, "channel": 0}, {"type": "note_on", "time": 24, "note": 58, "velocity": 97, "channel": 0}, {"type": "note_off", "time": 141, "note": 58, "velocity": 97, "channel": 0}, {"type": "note_on", "time": 58, "note": 53, "velocity": 97, "channel": 0}, {"type": "note_off", "time": 54, "note": 53, "velocity": 97, "channel": 0}, {"type": "note_on", "time": 14, "note": 56, "velocity": 96, "channel": 0}, {"type": "note_off", "time": 251, "note": 56, "velocity": 96, "channel": 0}, {"type": "note_on", "time": 33, "note": 60, "velocity": 104, "channel": 0}, {"type": "note_off", "time": 91, "note": 60, "velocity": 104, "channel": 0}, {"type": "note_on", "time": 18, "note": 63, "velocity": 97, "channel": 0}, {"type": "note_off", "time": 259, "note": 63, "velocity": 97, "channel": 0}, {"type": "note_on", "time": 34, "note": 60, "velocity": 97, "channel": 0}, {"type": "note_off", "time": 75, "note": 60, "velocity": 97, "channel": 0}, {"type": "note_on", "time": 13, "note": 63, "velocity": 104, "channel": 0}, {"type": "note_off", "time": 64, "note": 63, "velocity": 104, "channel": 0}, {"type": "note_on", "time": 19, "note": 60, "velocity": 103, "channel": 0}, {"type": "note_off", "time": 97, "note": 60, "velocity": 103, "channel": 0}, {"type": "note_on", "time": 16, "note": 58, "velocity": 100, "channel": 0}, {"type": "note_off", "time": 55, "note": 58, "velocity": 100, "channel": 0}, {"type": "note_on", "time": 26, "note": 56, "velocity": 105, "channel": 0}, {"type": "note_off", "time": 107, "note": 56, "velocity": 105, "channel": 0}, {"type": "note_on", "time": 5, "note": 53, "velocity": 85, "channel": 0}, {"type": "note_off", "time": 39, "note": 53, "velocity": 85, "channel": 0}, {"type": "note_on", "time": 23, "note": 56, "velocity": 94, "channel": 0}, {"type": "note_off", "time": 274, "note": 56, "velocity": 94, "channel": 0}, {"type": "note_on", "time": 798, "note": 73, "velocity": 79, "channel": 0}, {"type": "note_off", "time": 41, "note": 73, "velocity": 79, "channel": 0}, {"type": "note_on", "time": 26, "note": 75, "velocity": 119, "channel": 0}, {"type": "note_off", "time": 135, "note": 75, "velocity": 119, "channel": 0}, {"type": "note_on", "time": 46, "note": 77, "velocity": 125, "channel": 0}, {"type": "note_off", "time": 107, "note": 77, "velocity": 125, "channel": 0}, {"type": "note_on", "time": 16, "note": 75, "velocity": 117, "channel": 0}, {"type": "note_off", "time": 81, "note": 75, "velocity": 117, "channel": 0}, {"type": "note_on", "time": 15, "note": 73, "velocity": 103, "channel": 0}, {"type": "note_off", "time": 112, "note": 73, "velocity": 103, "channel": 0}, {"type": "note_on", "time": 65, "note": 75, "velocity": 117, "channel": 0}, {"type": "note_off", "time": 92, "note": 75, "velocity": 117, "channel": 0}, {"type": "note_on", "time": 11, "note": 73, "velocity": 99, "channel": 0}, {"type": "note_off", "time": 66, "note": 73, "velocity": 99, "channel": 0}, {"type": "note_on", "time": 7, "note": 71, "velocity": 111, "channel": 0}, {"type": "note_off", "time": 107, "note": 71, "velocity": 111, "channel": 0}, {"type": "note_on", "time": 18, "note": 70, "velocity": 107, "channel": 0}, {"type": "note_off", "time": 56, "note": 70, "velocity": 107, "channel": 0}, {"type": "note_on", "time": 15, "note": 68, "velocity": 114, "channel": 0}, {"type": "note_off", "time": 86, "note": 68, "velocity": 114, "channel": 0}, {"type": "note_on", "time": 19, "note": 70, "velocity": 104, "channel": 0}, {"type": "note_off", "time": 202, "note": 70, "velocity": 104, "channel": 0}, {"type": "note_on", "time": 22, "note": 70, "velocity": 105, "channel": 0}, {"type": "note_off", "time": 36, "note": 70, "velocity": 105, "channel": 0}, {"type": "note_on", "time": 24, "note": 72, "velocity": 114, "channel": 0}, {"type": "note_off", "time": 90, "note": 72, "velocity": 114, "channel": 0}, {"type": "note_on", "time": 13, "note": 70, "velocity": 108, "channel": 0}, {"type": "note_off", "time": 68, "note": 70, "velocity": 108, "channel": 0}, {"type": "note_on", "time": 10, "note": 68, "velocity": 109, "channel": 0}, {"type": "note_off", "time": 168, "note": 68, "velocity": 109, "channel": 0}, {"type": "note_on", "time": 18, "note": 70, "velocity": 108, "channel": 0}, {"type": "note_off", "time": 87, "note": 70, "velocity": 108, "channel": 0}, {"type": "note_on", "time": 8, "note": 68, "velocity": 109, "channel": 0}, {"type": "note_off", "time": 81, "note": 68, "velocity": 109, "channel": 0}, {"type": "note_on", "time": 6, "note": 67, "velocity": 108, "channel": 0}, {"type": "note_off", "time": 66, "note": 67, "velocity": 108, "channel": 0}, {"type": "note_on", "time": 7, "note": 68, "velocity": 103, "channel": 0}, {"type": "note_off", "time": 63, "note": 68, "velocity": 103, "channel": 0}, {"type": "note_on", "time": 9, "note": 67, "velocity": 107, "channel": 0}, {"type": "note_off", "time": 38, "note": 67, "velocity": 107, "channel": 0}, {"type": "note_on", "time": 14, "note": 66, "velocity": 110, "channel": 0}, {"type": "note_off", "time": 68, "note": 66, "velocity": 110, "channel": 0}, {"type": "note_on", "time": 6, "note": 67, "velocity": 98, "channel": 0}, {"type": "note_off", "time": 49, "note": 67, "velocity": 98, "channel": 0}, {"type": "note_on", "time": 6, "note": 66, "velocity": 109, "channel": 0}, {"type": "note_off", "time": 40, "note": 66, "velocity": 109, "channel": 0}, {"type": "note_on", "time": 9, "note": 65, "velocity": 112, "channel": 0}, {"type": "note_off", "time": 71, "note": 65, "velocity": 112, "channel": 0}, {"type": "note_on", "time": 14, "note": 67, "velocity": 96, "channel": 0}, {"type": "note_off", "time": 44, "note": 67, "velocity": 96, "channel": 0}, {"type": "note_on", "time": 12, "note": 65, "velocity": 108, "channel": 0}, {"type": "note_off", "time": 61, "note": 65, "velocity": 108, "channel": 0}, {"type": "note_on", "time": 21, "note": 64, "velocity": 101, "channel": 0}, {"type": "note_off", "time": 139, "note": 64, "velocity": 101, "channel": 0}, {"type": "note_on", "time": 37, "note": 63, "velocity": 100, "channel": 0}, {"type": "note_off", "time": 166, "note": 63, "velocity": 100, "channel": 0}, {"type": "note_on", "time": 214, "note": 60, "velocity": 111, "channel": 0}, {"type": "note_off", "time": 97, "note": 60, "velocity": 111, "channel": 0}, {"type": "note_on", "time": 11, "note": 59, "velocity": 103, "channel": 0}, {"type": "note_off", "time": 64, "note": 59, "velocity": 103, "channel": 0}, {"type": "note_on", "time": 20, "note": 58, "velocity": 94, "channel": 0}, {"type": "note_off", "time": 71, "note": 58, "velocity": 94, "channel": 0}, {"type": "note_on", "time": 9, "note": 56, "velocity": 106, "channel": 0}, {"type": "note_off", "time": 128, "note": 56, "velocity": 106, "channel": 0}, {"type": "note_on", "time": 60, "note": 53, "velocity": 95, "channel": 0}, {"type": "note_off", "time": 65, "note": 53, "velocity": 95, "channel": 0}, {"type": "note_on", "time": 17, "note": 55, "velocity": 102, "channel": 0}, {"type": "note_off", "time": 94, "note": 55, "velocity": 102, "channel": 0}, {"type": "note_on", "time": 7, "note": 53, "velocity": 94, "channel": 0}, {"type": "note_off", "time": 72, "note": 53, "velocity": 94, "channel": 0}, {"type": "note_on", "time": 38, "note": 51, "velocity": 97, "channel": 0}, {"type": "note_off", "time": 71, "note": 51, "velocity": 97, "channel": 0}, {"type": "note_on", "time": 4, "note": 60, "velocity": 110, "channel": 0}, {"type": "note_off", "time": 85, "note": 60, "velocity": 110, "channel": 0}, {"type": "note_on", "time": 36, "note": 55, "velocity": 93, "channel": 0}, {"type": "note_off", "time": 118, "note": 55, "velocity": 93, "channel": 0}, {"type": "note_on", "time": 47, "note": 58, "velocity": 101, "channel": 0}, {"type": "note_off", "time": 83, "note": 58, "velocity": 101, "channel": 0}, {"type": "note_on", "time": 5, "note": 56, "velocity": 104, "channel": 0}, {"type": "note_off", "time": 72, "note": 56, "velocity": 104, "channel": 0}, {"type": "note_on", "time": 32, "note": 53, "velocity": 95, "channel": 0}, {"type": "note_off", "time": 53, "note": 53, "velocity": 95, "channel": 0}, {"type": "note_on", "time": 26, "note": 56, "velocity": 98, "channel": 0}, {"type": "note_off", "time": 260, "note": 56, "velocity": 98, "channel": 0}, {"type": "note_on", "time": 670, "note": 72, "velocity": 127, "channel": 0}, {"type": "note_off", "time": 76, "note": 72, "velocity": 127, "channel": 0}, {"type": "note_on", "time": 23, "note": 68, "velocity": 111, "channel": 0}, {"type": "note_off", "time": 75, "note": 68, "velocity": 111, "channel": 0}, {"type": "note_on", "time": 10, "note": 70, "velocity": 120, "channel": 0}, {"type": "note_off", "time": 70, "note": 70, "velocity": 120, "channel": 0}, {"type": "note_on", "time": 38, "note": 72, "velocity": 118, "channel": 0}, {"type": "note_off", "time": 87, "note": 72, "velocity": 118, "channel": 0}, {"type": "note_on", "time": 15, "note": 68, "velocity": 120, "channel": 0}, {"type": "note_off", "time": 79, "note": 68, "velocity": 120, "channel": 0}, {"type": "note_on", "time": 5, "note": 65, "velocity": 109, "channel": 0}, {"type": "note_off", "time": 75, "note": 65, "velocity": 109, "channel": 0}, {"type": "note_on", "time": 19, "note": 68, "velocity": 120, "channel": 0}, {"type": "note_off", "time": 93, "note": 68, "velocity": 120, "channel": 0}, {"type": "note_on", "time": 40, "note": 72, "velocity": 111, "channel": 0}, {"type": "note_off", "time": 54, "note": 72, "velocity": 111, "channel": 0}, {"type": "note_on", "time": 15, "note": 68, "velocity": 110, "channel": 0}, {"type": "note_off", "time": 23, "note": 68, "velocity": 110, "channel": 0}, {"type": "note_on", "time": 7, "note": 65, "velocity": 109, "channel": 0}, {"type": "note_off", "time": 45, "note": 65, "velocity": 109, "channel": 0}, {"type": "note_on", "time": 19, "note": 73, "velocity": 108, "channel": 0}, {"type": "note_off", "time": 82, "note": 73, "velocity": 108, "channel": 0}, {"type": "note_on", "time": 9, "note": 69, "velocity": 117, "channel": 0}, {"type": "note_off", "time": 69, "note": 69, "velocity": 117, "channel": 0}, {"type": "note_on", "time": 28, "note": 72, "velocity": 117, "channel": 0}, {"type": "note_off", "time": 88, "note": 72, "velocity": 117, "channel": 0}, {"type": "note_on", "time": 10, "note": 71, "velocity": 113, "channel": 0}, {"type": "note_off", "time": 68, "note": 71, "velocity": 113, "channel": 0}, {"type": "note_on", "time": 15, "note": 70, "velocity": 113, "channel": 0}, {"type": "note_off", "time": 122, "note": 70, "velocity": 113, "channel": 0}, {"type": "note_on", "time": 20, "note": 65, "velocity": 87, "channel": 0}, {"type": "note_off", "time": 40, "note": 65, "velocity": 87, "channel": 0}, {"type": "note_on", "time": 14, "note": 68, "velocity": 120, "channel": 0}, {"type": "note_off", "time": 108, "note": 68, "velocity": 120, "channel": 0}, {"type": "note_on", "time": 8, "note": 67, "velocity": 111, "channel": 0}, {"type": "note_off", "time": 73, "note": 67, "velocity": 111, "channel": 0}, {"type": "note_on", "time": 5, "note": 65, "velocity": 86, "channel": 0}, {"type": "note_off", "time": 78, "note": 65, "velocity": 86, "channel": 0}, {"type": "note_on", "time": 19, "note": 67, "velocity": 106, "channel": 0}, {"type": "note_off", "time": 62, "note": 67, "velocity": 106, "channel": 0}, {"type": "note_on", "time": 16, "note": 75, "velocity": 117, "channel": 0}, {"type": "note_off", "time": 100, "note": 75, "velocity": 117, "channel": 0}, {"type": "note_on", "time": 16, "note": 76, "velocity": 123, "channel": 0}, {"type": "note_off", "time": 77, "note": 76, "velocity": 123, "channel": 0}, {"type": "note_on", "time": 7, "note": 77, "velocity": 121, "channel": 0}, {"type": "note_off", "time": 92, "note": 77, "velocity": 121, "channel": 0}, {"type": "note_on", "time": 14, "note": 76, "velocity": 119, "channel": 0}, {"type": "note_off", "time": 75, "note": 76, "velocity": 119, "channel": 0}, {"type": "note_on", "time": 20, "note": 75, "velocity": 114, "channel": 0}, {"type": "note_off", "time": 95, "note": 75, "velocity": 114, "channel": 0}, {"type": "note_on", "time": 16, "note": 68, "velocity": 111, "channel": 0}, {"type": "note_off", "time": 75, "note": 68, "velocity": 111, "channel": 0}, {"type": "note_on", "time": 11, "note": 65, "velocity": 104, "channel": 0}, {"type": "note_off", "time": 113, "note": 65, "velocity": 104, "channel": 0}, {"type": "note_on", "time": 13, "note": 63, "velocity": 84, "channel": 0}, {"type": "note_off", "time": 63, "note": 63, "velocity": 84, "channel": 0}, {"type": "note_on", "time": 2, "note": 68, "velocity": 92, "channel": 0}, {"type": "note_off", "time": 282, "note": 68, "velocity": 92, "channel": 0}, {"type": "note_on", "time": 23, "note": 65, "velocity": 114, "channel": 0}, {"type": "note_off", "time": 86, "note": 65, "velocity": 114, "channel": 0}, {"type": "note_on", "time": 16, "note": 63, "velocity": 87, "channel": 0}, {"type": "note_off", "time": 113, "note": 63, "velocity": 87, "channel": 0}, {"type": "note_on", "time": 54, "note": 68, "velocity": 98, "channel": 0}, {"type": "note_off", "time": 236, "note": 68, "velocity": 98, "channel": 0}, {"type": "note_on", "time": 27, "note": 65, "velocity": 111, "channel": 0}, {"type": "note_off", "time": 79, "note": 65, "velocity": 111, "channel": 0}, {"type": "note_on", "time": 26, "note": 61, "velocity": 98, "channel": 0}, {"type": "note_off", "time": 108, "note": 61, "velocity": 98, "channel": 0}, {"type": "note_on", "time": 69, "note": 68, "velocity": 112, "channel": 0}, {"type": "note_off", "time": 116, "note": 68, "velocity": 112, "channel": 0}, {"type": "note_on", "time": 12, "note": 65, "velocity": 113, "channel": 0}, {"type": "note_off", "time": 49, "note": 65, "velocity": 113, "channel": 0}, {"type": "note_on", "time": 47, "note": 61, "velocity": 105, "channel": 0}, {"type": "note_off", "time": 74, "note": 61, "velocity": 105, "channel": 0}, {"type": "note_on", "time": 28, "note": 58, "velocity": 85, "channel": 0}, {"type": "note_off", "time": 47, "note": 58, "velocity": 85, "channel": 0}, {"type": "note_on", "time": 16, "note": 69, "velocity": 112, "channel": 0}, {"type": "note_off", "time": 104, "note": 69, "velocity": 112, "channel": 0}, {"type": "note_on", "time": 18, "note": 65, "velocity": 114, "channel": 0}, {"type": "note_off", "time": 60, "note": 65, "velocity": 114, "channel": 0}, {"type": "note_on", "time": 9, "note": 62, "velocity": 95, "channel": 0}, {"type": "note_off", "time": 116, "note": 62, "velocity": 95, "channel": 0}, {"type": "note_on", "time": 76, "note": 67, "velocity": 107, "channel": 0}, {"type": "note_off", "time": 93, "note": 67, "velocity": 107, "channel": 0}, {"type": "note_on", "time": 23, "note": 65, "velocity": 112, "channel": 0}, {"type": "note_off", "time": 61, "note": 65, "velocity": 112, "channel": 0}, {"type": "note_on", "time": 31, "note": 62, "velocity": 86, "channel": 0}, {"type": "note_off", "time": 75, "note": 62, "velocity": 86, "channel": 0}, {"type": "note_on", "time": 10, "note": 63, "velocity": 103, "channel": 0}, {"type": "note_off", "time": 64, "note": 63, "velocity": 103, "channel": 0}, {"type": "note_on", "time": 14, "note": 64, "velocity": 97, "channel": 0}, {"type": "note_off", "time": 110, "note": 64, "velocity": 97, "channel": 0}, {"type": "note_on", "time": 5, "note": 65, "velocity": 105, "channel": 0}, {"type": "note_off", "time": 36, "note": 65, "velocity": 105, "channel": 0}, {"type": "note_on", "time": 11, "note": 64, "velocity": 102, "channel": 0}, {"type": "note_off", "time": 46, "note": 64, "velocity": 102, "channel": 0}, {"type": "note_on", "time": 22, "note": 60, "velocity": 95, "channel": 0}, {"type": "note_off", "time": 61, "note": 60, "velocity": 95, "channel": 0}, {"type": "note_on", "time": 28, "note": 64, "velocity": 105, "channel": 0}, {"type": "note_off", "time": 51, "note": 64, "velocity": 105, "channel": 0}, {"type": "note_on", "time": 18, "note": 65, "velocity": 110, "channel": 0}, {"type": "note_off", "time": 80, "note": 65, "velocity": 110, "channel": 0}, {"type": "note_on", "time": 16, "note": 67, "velocity": 107, "channel": 0}, {"type": "note_off", "time": 38, "note": 67, "velocity": 107, "channel": 0}, {"type": "note_on", "time": 11, "note": 65, "velocity": 110, "channel": 0}, {"type": "note_off", "time": 38, "note": 65, "velocity": 110, "channel": 0}, {"type": "note_on", "time": 14, "note": 62, "velocity": 79, "channel": 0}, {"type": "note_off", "time": 106, "note": 62, "velocity": 79, "channel": 0}, {"type": "note_on", "time": 14, "note": 65, "velocity": 112, "channel": 0}, {"type": "note_off", "time": 54, "note": 65, "velocity": 112, "channel": 0}, {"type": "note_on", "time": 7, "note": 66, "velocity": 112, "channel": 0}, {"type": "note_off", "time": 44, "note": 66, "velocity": 112, "channel": 0}, {"type": "note_on", "time": 7, "note": 67, "velocity": 104, "channel": 0}, {"type": "note_off", "time": 41, "note": 67, "velocity": 104, "channel": 0}, {"type": "note_on", "time": 11, "note": 72, "velocity": 107, "channel": 0}, {"type": "note_off", "time": 55, "note": 72, "velocity": 107, "channel": 0}, {"type": "note_on", "time": 7, "note": 67, "velocity": 109, "channel": 0}, {"type": "note_off", "time": 51, "note": 67, "velocity": 109, "channel": 0}, {"type": "note_on", "time": 7, "note": 65, "velocity": 106, "channel": 0}, {"type": "note_off", "time": 68, "note": 65, "velocity": 106, "channel": 0}, {"type": "note_on", "time": 7, "note": 64, "velocity": 94, "channel": 0}, {"type": "note_off", "time": 41, "note": 64, "velocity": 94, "channel": 0}, {"type": "note_on", "time": 8, "note": 65, "velocity": 101, "channel": 0}, {"type": "note_off", "time": 55, "note": 65, "velocity": 101, "channel": 0}, {"type": "note_on", "time": 10, "note": 64, "velocity": 93, "channel": 0}, {"type": "note_off", "time": 263, "note": 64, "velocity": 93, "channel": 0}, {"type": "note_on", "time": 53, "note": 63, "velocity": 87, "channel": 0}, {"type": "note_off", "time": 264, "note": 63, "velocity": 87, "channel": 0}, {"type": "note_on", "time": 1554, "note": 72, "velocity": 103, "channel": 0}, {"type": "note_off", "time": 73, "note": 72, "velocity": 103, "channel": 0}, {"type": "note_on", "time": 15, "note": 75, "velocity": 115, "channel": 0}, {"type": "note_off", "time": 91, "note": 75, "velocity": 115, "channel": 0}, {"type": "note_on", "time": 15, "note": 77, "velocity": 126, "channel": 0}, {"type": "note_off", "time": 87, "note": 77, "velocity": 126, "channel": 0}, {"type": "note_on", "time": 10, "note": 75, "velocity": 111, "channel": 0}, {"type": "note_off", "time": 100, "note": 75, "velocity": 111, "channel": 0}, {"type": "note_on", "time": 15, "note": 72, "velocity": 96, "channel": 0}, {"type": "note_off", "time": 50, "note": 72, "velocity": 96, "channel": 0}, {"type": "note_on", "time": 20, "note": 74, "velocity": 104, "channel": 0}, {"type": "note_off", "time": 84, "note": 74, "velocity": 104, "channel": 0}, {"type": "note_on", "time": 16, "note": 75, "velocity": 111, "channel": 0}, {"type": "note_off", "time": 84, "note": 75, "velocity": 111, "channel": 0}, {"type": "note_on", "time": 12, "note": 74, "velocity": 105, "channel": 0}, {"type": "note_off", "time": 98, "note": 74, "velocity": 105, "channel": 0}, {"type": "note_on", "time": 23, "note": 70, "velocity": 91, "channel": 0}, {"type": "note_off", "time": 52, "note": 70, "velocity": 91, "channel": 0}, {"type": "note_on", "time": 4, "note": 73, "velocity": 92, "channel": 0}, {"type": "note_off", "time": 94, "note": 73, "velocity": 92, "channel": 0}, {"type": "note_on", "time": 23, "note": 75, "velocity": 110, "channel": 0}, {"type": "note_off", "time": 60, "note": 75, "velocity": 110, "channel": 0}, {"type": "note_on", "time": 10, "note": 73, "velocity": 98, "channel": 0}, {"type": "note_off", "time": 103, "note": 73, "velocity": 98, "channel": 0}, {"type": "note_on", "time": 12, "note": 72, "velocity": 106, "channel": 0}, {"type": "note_off", "time": 277, "note": 72, "velocity": 106, "channel": 0}, {"type": "note_on", "time": 13, "note": 70, "velocity": 104, "channel": 0}, {"type": "note_off", "time": 83, "note": 70, "velocity": 104, "channel": 0}, {"type": "note_on", "time": 14, "note": 69, "velocity": 113, "channel": 0}, {"type": "note_off", "time": 73, "note": 69, "velocity": 113, "channel": 0}, {"type": "note_on", "time": 15, "note": 68, "velocity": 113, "channel": 0}, {"type": "note_off", "time": 94, "note": 68, "velocity": 113, "channel": 0}, {"type": "note_on", "time": 15, "note": 63, "velocity": 101, "channel": 0}, {"type": "note_off", "time": 46, "note": 63, "velocity": 101, "channel": 0}, {"type": "note_on", "time": 37, "note": 68, "velocity": 112, "channel": 0}, {"type": "note_off", "time": 89, "note": 68, "velocity": 112, "channel": 0}, {"type": "note_on", "time": 9, "note": 70, "velocity": 105, "channel": 0}, {"type": "note_off", "time": 72, "note": 70, "velocity": 105, "channel": 0}, {"type": "note_on", "time": 26, "note": 69, "velocity": 108, "channel": 0}, {"type": "note_off", "time": 86, "note": 69, "velocity": 108, "channel": 0}, {"type": "note_on", "time": 21, "note": 71, "velocity": 105, "channel": 0}, {"type": "note_off", "time": 62, "note": 71, "velocity": 105, "channel": 0}, {"type": "note_on", "time": 17, "note": 69, "velocity": 109, "channel": 0}, {"type": "note_off", "time": 110, "note": 69, "velocity": 109, "channel": 0}, {"type": "note_on", "time": 6, "note": 64, "velocity": 93, "channel": 0}, {"type": "note_off", "time": 39, "note": 64, "velocity": 93, "channel": 0}, {"type": "note_on", "time": 13, "note": 67, "velocity": 104, "channel": 0}, {"type": "note_off", "time": 96, "note": 67, "velocity": 104, "channel": 0}, {"type": "note_on", "time": 13, "note": 69, "velocity": 114, "channel": 0}, {"type": "note_off", "time": 76, "note": 69, "velocity": 114, "channel": 0}, {"type": "note_on", "time": 14, "note": 67, "velocity": 109, "channel": 0}, {"type": "note_off", "time": 107, "note": 67, "velocity": 109, "channel": 0}, {"type": "note_on", "time": 11, "note": 64, "velocity": 92, "channel": 0}, {"type": "note_off", "time": 39, "note": 64, "velocity": 92, "channel": 0}, {"type": "note_on", "time": 28, "note": 66, "velocity": 102, "channel": 0}, {"type": "note_off", "time": 94, "note": 66, "velocity": 102, "channel": 0}, {"type": "note_on", "time": 17, "note": 67, "velocity": 99, "channel": 0}, {"type": "note_off", "time": 64, "note": 67, "velocity": 99, "channel": 0}, {"type": "note_on", "time": 16, "note": 64, "velocity": 88, "channel": 0}, {"type": "note_off", "time": 107, "note": 64, "velocity": 88, "channel": 0}, {"type": "note_on", "time": 19, "note": 63, "velocity": 95, "channel": 0}, {"type": "note_off", "time": 47, "note": 63, "velocity": 95, "channel": 0}, {"type": "note_on", "time": 26, "note": 62, "velocity": 88, "channel": 0}, {"type": "note_off", "time": 97, "note": 62, "velocity": 88, "channel": 0}, {"type": "note_on", "time": 10, "note": 64, "velocity": 93, "channel": 0}, {"type": "note_off", "time": 52, "note": 64, "velocity": 93, "channel": 0}, {"type": "note_on", "time": 26, "note": 67, "velocity": 102, "channel": 0}, {"type": "note_off", "time": 110, "note": 67, "velocity": 102, "channel": 0}, {"type": "note_on", "time": 18, "note": 64, "velocity": 89, "channel": 0}, {"type": "note_off", "time": 47, "note": 64, "velocity": 89, "channel": 0}, {"type": "note_on", "time": 7, "note": 71, "velocity": 108, "channel": 0}, {"type": "note_off", "time": 132, "note": 71, "velocity": 108, "channel": 0}, {"type": "note_on", "time": 28, "note": 67, "velocity": 86, "channel": 0}, {"type": "note_off", "time": 45, "note": 67, "velocity": 86, "channel": 0}, {"type": "note_on", "time": 7, "note": 72, "velocity": 108, "channel": 0}, {"type": "note_off", "time": 93, "note": 72, "velocity": 108, "channel": 0}, {"type": "note_on", "time": 11, "note": 73, "velocity": 100, "channel": 0}, {"type": "note_off", "time": 72, "note": 73, "velocity": 100, "channel": 0}, {"type": "note_on", "time": 13, "note": 74, "velocity": 101, "channel": 0}, {"type": "note_off", "time": 75, "note": 74, "velocity": 101, "channel": 0}, {"type": "note_on", "time": 42, "note": 71, "velocity": 107, "channel": 0}, {"type": "note_off", "time": 44, "note": 71, "velocity": 107, "channel": 0}, {"type": "note_on", "time": 13, "note": 67, "velocity": 107, "channel": 0}, {"type": "note_off", "time": 84, "note": 67, "velocity": 107, "channel": 0}, {"type": "note_on", "time": 8, "note": 64, "velocity": 85, "channel": 0}, {"type": "note_off", "time": 33, "note": 64, "velocity": 85, "channel": 0}, {"type": "note_on", "time": 14, "note": 67, "velocity": 92, "channel": 0}, {"type": "note_off", "time": 241, "note": 67, "velocity": 92, "channel": 0}, {"type": "note_on", "time": 323, "note": 67, "velocity": 104, "channel": 0}, {"type": "note_off", "time": 55, "note": 67, "velocity": 104, "channel": 0}, {"type": "note_on", "time": 8, "note": 69, "velocity": 88, "channel": 0}, {"type": "note_off", "time": 33, "note": 69, "velocity": 88, "channel": 0}, {"type": "note_on", "time": 3, "note": 70, "velocity": 94, "channel": 0}, {"type": "note_off", "time": 30, "note": 70, "velocity": 94, "channel": 0}, {"type": "note_on", "time": 7, "note": 71, "velocity": 87, "channel": 0}, {"type": "note_off", "time": 34, "note": 71, "velocity": 87, "channel": 0}, {"type": "note_on", "time": 10, "note": 74, "velocity": 108, "channel": 0}, {"type": "note_off", "time": 64, "note": 74, "velocity": 108, "channel": 0}, {"type": "note_on", "time": 6, "note": 72, "velocity": 108, "channel": 0}, {"type": "note_off", "time": 179, "note": 72, "velocity": 108, "channel": 0}, {"type": "note_on", "time": 341, "note": 72, "velocity": 117, "channel": 0}, {"type": "note_off", "time": 90, "note": 72, "velocity": 117, "channel": 0}, {"type": "note_on", "time": 2, "note": 75, "velocity": 109, "channel": 0}, {"type": "note_off", "time": 49, "note": 75, "velocity": 109, "channel": 0}, {"type": "note_on", "time": 9, "note": 76, "velocity": 105, "channel": 0}, {"type": "note_off", "time": 49, "note": 76, "velocity": 105, "channel": 0}, {"type": "note_on", "time": 8, "note": 81, "velocity": 116, "channel": 0}, {"type": "note_off", "time": 79, "note": 81, "velocity": 116, "channel": 0}, {"type": "note_on", "time": 15, "note": 84, "velocity": 93, "channel": 0}, {"type": "note_off", "time": 50, "note": 84, "velocity": 93, "channel": 0}, {"type": "note_on", "time": 234, "note": 74, "velocity": 102, "channel": 0}, {"type": "note_off", "time": 62, "note": 74, "velocity": 102, "channel": 0}, {"type": "note_on", "time": 8, "note": 76, "velocity": 111, "channel": 0}, {"type": "note_off", "time": 38, "note": 76, "velocity": 111, "channel": 0}, {"type": "note_on", "time": 6, "note": 77, "velocity": 113, "channel": 0}, {"type": "note_off", "time": 39, "note": 77, "velocity": 113, "channel": 0}, {"type": "note_on", "time": 7, "note": 78, "velocity": 114, "channel": 0}, {"type": "note_off", "time": 24, "note": 78, "velocity": 114, "channel": 0}, {"type": "note_on", "time": 7, "note": 79, "velocity": 111, "channel": 0}, {"type": "note_off", "time": 82, "note": 79, "velocity": 111, "channel": 0}, {"type": "note_on", "time": 5, "note": 78, "velocity": 110, "channel": 0}, {"type": "note_off", "time": 95, "note": 78, "velocity": 110, "channel": 0}, {"type": "note_on", "time": 234, "note": 76, "velocity": 120, "channel": 0}, {"type": "note_off", "time": 91, "note": 76, "velocity": 120, "channel": 0}, {"type": "note_on", "time": 15, "note": 75, "velocity": 111, "channel": 0}, {"type": "note_off", "time": 75, "note": 75, "velocity": 111, "channel": 0}, {"type": "note_on", "time": 15, "note": 74, "velocity": 104, "channel": 0}, {"type": "note_off", "time": 93, "note": 74, "velocity": 104, "channel": 0}, {"type": "note_on", "time": 22, "note": 71, "velocity": 111, "channel": 0}, {"type": "note_off", "time": 70, "note": 71, "velocity": 111, "channel": 0}, {"type": "note_on", "time": 7, "note": 67, "velocity": 106, "channel": 0}, {"type": "note_off", "time": 103, "note": 67, "velocity": 106, "channel": 0}, {"type": "note_on", "time": 36, "note": 64, "velocity": 92, "channel": 0}, {"type": "note_off", "time": 47, "note": 64, "velocity": 92, "channel": 0}, {"type": "note_on", "time": 21, "note": 67, "velocity": 101, "channel": 0}, {"type": "note_off", "time": 249, "note": 67, "velocity": 101, "channel": 0}, {"type": "note_on", "time": 136, "note": 69, "velocity": 120, "channel": 0}, {"type": "note_off", "time": 97, "note": 69, "velocity": 120, "channel": 0}, {"type": "note_on", "time": 10, "note": 67, "velocity": 109, "channel": 0}, {"type": "note_off", "time": 84, "note": 67, "velocity": 109, "channel": 0}, {"type": "note_on", "time": 20, "note": 64, "velocity": 96, "channel": 0}, {"type": "note_off", "time": 62, "note": 64, "velocity": 96, "channel": 0}, {"type": "note_on", "time": 11, "note": 65, "velocity": 120, "channel": 0}, {"type": "note_off", "time": 79, "note": 65, "velocity": 120, "channel": 0}, {"type": "note_on", "time": 19, "note": 66, "velocity": 115, "channel": 0}, {"type": "note_off", "time": 99, "note": 66, "velocity": 115, "channel": 0}, {"type": "note_on", "time": 8, "note": 64, "velocity": 108, "channel": 0}, {"type": "note_off", "time": 66, "note": 64, "velocity": 108, "channel": 0}, {"type": "note_on", "time": 22, "note": 60, "velocity": 109, "channel": 0}, {"type": "note_off", "time": 95, "note": 60, "velocity": 109, "channel": 0}, {"type": "note_on", "time": 14, "note": 57, "velocity": 106, "channel": 0}, {"type": "note_off", "time": 62, "note": 57, "velocity": 106, "channel": 0}, {"type": "note_on", "time": 7, "note": 55, "velocity": 98, "channel": 0}, {"type": "note_off", "time": 129, "note": 55, "velocity": 98, "channel": 0}, {"type": "note_on", "time": 18, "note": 53, "velocity": 95, "channel": 0}, {"type": "note_off", "time": 143, "note": 53, "velocity": 95, "channel": 0}, {"type": "note_on", "time": 17, "note": 57, "velocity": 101, "channel": 0}, {"type": "note_off", "time": 64, "note": 57, "velocity": 101, "channel": 0}, {"type": "note_on", "time": 11, "note": 59, "velocity": 101, "channel": 0}, {"type": "note_off", "time": 119, "note": 59, "velocity": 101, "channel": 0}, {"type": "note_on", "time": 13, "note": 56, "velocity": 93, "channel": 0}, {"type": "note_off", "time": 282, "note": 56, "velocity": 93, "channel": 0}, {"type": "note_on", "time": 1302, "note": 60, "velocity": 86, "channel": 0}, {"type": "note_off", "time": 150, "note": 60, "velocity": 86, "channel": 0}, {"type": "note_on", "time": 41, "note": 60, "velocity": 105, "channel": 0}, {"type": "note_off", "time": 60, "note": 60, "velocity": 105, "channel": 0}, {"type": "note_on", "time": 24, "note": 65, "velocity": 122, "channel": 0}, {"type": "note_off", "time": 93, "note": 65, "velocity": 122, "channel": 0}, {"type": "note_on", "time": 7, "note": 60, "velocity": 94, "channel": 0}, {"type": "note_off", "time": 166, "note": 60, "velocity": 94, "channel": 0}, {"type": "note_on", "time": 18, "note": 60, "velocity": 114, "channel": 0}, {"type": "note_off", "time": 67, "note": 60, "velocity": 114, "channel": 0}, {"type": "note_on", "time": 10, "note": 61, "velocity": 110, "channel": 0}, {"type": "note_off", "time": 101, "note": 61, "velocity": 110, "channel": 0}, {"type": "note_on", "time": 28, "note": 58, "velocity": 86, "channel": 0}, {"type": "note_off", "time": 181, "note": 58, "velocity": 86, "channel": 0}, {"type": "note_on", "time": 85, "note": 60, "velocity": 108, "channel": 0}, {"type": "note_off", "time": 134, "note": 60, "velocity": 108, "channel": 0}, {"type": "note_on", "time": 17, "note": 58, "velocity": 89, "channel": 0}, {"type": "note_off", "time": 139, "note": 58, "velocity": 89, "channel": 0}, {"type": "note_on", "time": 208, "note": 65, "velocity": 111, "channel": 0}, {"type": "note_off", "time": 54, "note": 65, "velocity": 111, "channel": 0}, {"type": "note_on", "time": 11, "note": 68, "velocity": 107, "channel": 0}, {"type": "note_off", "time": 96, "note": 68, "velocity": 107, "channel": 0}, {"type": "note_on", "time": 15, "note": 67, "velocity": 93, "channel": 0}, {"type": "note_off", "time": 165, "note": 67, "velocity": 93, "channel": 0}, {"type": "note_on", "time": 33, "note": 67, "velocity": 102, "channel": 0}, {"type": "note_off", "time": 49, "note": 67, "velocity": 102, "channel": 0}, {"type": "note_on", "time": 28, "note": 72, "velocity": 107, "channel": 0}, {"type": "note_off", "time": 94, "note": 72, "velocity": 107, "channel": 0}, {"type": "note_on", "time": 17, "note": 70, "velocity": 103, "channel": 0}, {"type": "note_off", "time": 73, "note": 70, "velocity": 103, "channel": 0}, {"type": "note_on", "time": 25, "note": 67, "velocity": 105, "channel": 0}, {"type": "note_off", "time": 84, "note": 67, "velocity": 105, "channel": 0}, {"type": "note_on", "time": 17, "note": 63, "velocity": 92, "channel": 0}, {"type": "note_off", "time": 50, "note": 63, "velocity": 92, "channel": 0}, {"type": "note_on", "time": 33, "note": 68, "velocity": 106, "channel": 0}, {"type": "note_off", "time": 98, "note": 68, "velocity": 106, "channel": 0}, {"type": "note_on", "time": 20, "note": 63, "velocity": 93, "channel": 0}, {"type": "note_off", "time": 49, "note": 63, "velocity": 93, "channel": 0}, {"type": "note_on", "time": 23, "note": 66, "velocity": 103, "channel": 0}, {"type": "note_off", "time": 115, "note": 66, "velocity": 103, "channel": 0}, {"type": "note_on", "time": 16, "note": 63, "velocity": 82, "channel": 0}, {"type": "note_off", "time": 44, "note": 63, "velocity": 82, "channel": 0}, {"type": "note_on", "time": 20, "note": 65, "velocity": 109, "channel": 0}, {"type": "note_off", "time": 101, "note": 65, "velocity": 109, "channel": 0}, {"type": "note_on", "time": 29, "note": 63, "velocity": 88, "channel": 0}, {"type": "note_off", "time": 37, "note": 63, "velocity": 88, "channel": 0}, {"type": "note_on", "time": 25, "note": 68, "velocity": 103, "channel": 0}, {"type": "note_off", "time": 122, "note": 68, "velocity": 103, "channel": 0}, {"type": "note_on", "time": 63, "note": 65, "velocity": 111, "channel": 0}, {"type": "note_off", "time": 119, "note": 65, "velocity": 111, "channel": 0}, {"type": "note_on", "time": 18, "note": 63, "velocity": 87, "channel": 0}, {"type": "note_off", "time": 39, "note": 63, "velocity": 87, "channel": 0}, {"type": "note_on", "time": 34, "note": 68, "velocity": 86, "channel": 0}, {"type": "note_off", "time": 39, "note": 68, "velocity": 86, "channel": 0}, {"type": "note_on", "time": 18, "note": 63, "velocity": 92, "channel": 0}, {"type": "note_off", "time": 58, "note": 63, "velocity": 92, "channel": 0}, {"type": "note_on", "time": 20, "note": 61, "velocity": 94, "channel": 0}, {"type": "note_off", "time": 101, "note": 61, "velocity": 94, "channel": 0}, {"type": "note_on", "time": 343, "note": 68, "velocity": 110, "channel": 0}, {"type": "note_off", "time": 106, "note": 68, "velocity": 110, "channel": 0}, {"type": "note_on", "time": 23, "note": 64, "velocity": 107, "channel": 0}, {"type": "note_off", "time": 94, "note": 64, "velocity": 107, "channel": 0}, {"type": "note_on", "time": 76, "note": 63, "velocity": 101, "channel": 0}, {"type": "note_off", "time": 54, "note": 63, "velocity": 101, "channel": 0}, {"type": "note_on", "time": 33, "note": 61, "velocity": 103, "channel": 0}, {"type": "note_off", "time": 80, "note": 61, "velocity": 103, "channel": 0}, {"type": "note_on", "time": 13, "note": 68, "velocity": 102, "channel": 0}, {"type": "note_off", "time": 272, "note": 68, "velocity": 102, "channel": 0}, {"type": "note_on", "time": 43, "note": 63, "velocity": 99, "channel": 0}, {"type": "note_off", "time": 75, "note": 63, "velocity": 99, "channel": 0}, {"type": "note_on", "time": 8, "note": 61, "velocity": 106, "channel": 0}, {"type": "note_off", "time": 76, "note": 61, "velocity": 106, "channel": 0}, {"type": "note_on", "time": 116, "note": 59, "velocity": 97, "channel": 0}, {"type": "note_off", "time": 62, "note": 59, "velocity": 97, "channel": 0}, {"type": "note_on", "time": 9, "note": 60, "velocity": 108, "channel": 0}, {"type": "note_off", "time": 112, "note": 60, "velocity": 108, "channel": 0}, {"type": "note_on", "time": 14, "note": 58, "velocity": 93, "channel": 0}, {"type": "note_off", "time": 73, "note": 58, "velocity": 93, "channel": 0}, {"type": "note_on", "time": 7, "note": 57, "velocity": 98, "channel": 0}, {"type": "note_off", "time": 83, "note": 57, "velocity": 98, "channel": 0}, {"type": "note_on", "time": 23, "note": 55, "velocity": 94, "channel": 0}, {"type": "note_off", "time": 143, "note": 55, "velocity": 94, "channel": 0}, {"type": "note_on", "time": 46, "note": 58, "velocity": 95, "channel": 0}, {"type": "note_off", "time": 84, "note": 58, "velocity": 95, "channel": 0}, {"type": "note_on", "time": 6, "note": 59, "velocity": 98, "channel": 0}, {"type": "note_off", "time": 72, "note": 59, "velocity": 98, "channel": 0}, {"type": "note_on", "time": 13, "note": 62, "velocity": 102, "channel": 0}, {"type": "note_off", "time": 75, "note": 62, "velocity": 102, "channel": 0}, {"type": "note_on", "time": 23, "note": 67, "velocity": 113, "channel": 0}, {"type": "note_off", "time": 104, "note": 67, "velocity": 113, "channel": 0}, {"type": "note_on", "time": 9, "note": 65, "velocity": 103, "channel": 0}, {"type": "note_off", "time": 58, "note": 65, "velocity": 103, "channel": 0}, {"type": "note_on", "time": 19, "note": 68, "velocity": 111, "channel": 0}, {"type": "note_off", "time": 86, "note": 68, "velocity": 111, "channel": 0}, {"type": "note_on", "time": 17, "note": 65, "velocity": 115, "channel": 0}, {"type": "note_off", "time": 66, "note": 65, "velocity": 115, "channel": 0}, {"type": "note_on", "time": 11, "note": 60, "velocity": 103, "channel": 0}, {"type": "note_off", "time": 124, "note": 60, "velocity": 103, "channel": 0}, {"type": "note_on", "time": 63, "note": 58, "velocity": 85, "channel": 0}, {"type": "note_off", "time": 306, "note": 58, "velocity": 85, "channel": 0}, {"type": "note_on", "time": 753, "note": 63, "velocity": 99, "channel": 0}, {"type": "note_off", "time": 43, "note": 63, "velocity": 99, "channel": 0}, {"type": "note_on", "time": 5, "note": 65, "velocity": 116, "channel": 0}, {"type": "note_off", "time": 53, "note": 65, "velocity": 116, "channel": 0}, {"type": "note_on", "time": 23, "note": 68, "velocity": 115, "channel": 0}, {"type": "note_off", "time": 86, "note": 68, "velocity": 115, "channel": 0}, {"type": "note_on", "time": 13, "note": 70, "velocity": 108, "channel": 0}, {"type": "note_off", "time": 30, "note": 70, "velocity": 108, "channel": 0}, {"type": "note_on", "time": 9, "note": 68, "velocity": 116, "channel": 0}, {"type": "note_off", "time": 31, "note": 68, "velocity": 116, "channel": 0}, {"type": "note_on", "time": 11, "note": 67, "velocity": 91, "channel": 0}, {"type": "note_off", "time": 77, "note": 67, "velocity": 91, "channel": 0}, {"type": "note_on", "time": 46, "note": 68, "velocity": 105, "channel": 0}, {"type": "note_off", "time": 34, "note": 68, "velocity": 105, "channel": 0}, {"type": "note_on", "time": 13, "note": 70, "velocity": 111, "channel": 0}, {"type": "note_off", "time": 111, "note": 70, "velocity": 111, "channel": 0}, {"type": "note_on", "time": 14, "note": 68, "velocity": 116, "channel": 0}, {"type": "note_off", "time": 66, "note": 68, "velocity": 116, "channel": 0}, {"type": "note_on", "time": 9, "note": 65, "velocity": 106, "channel": 0}, {"type": "note_off", "time": 105, "note": 65, "velocity": 106, "channel": 0}, {"type": "note_on", "time": 22, "note": 63, "velocity": 88, "channel": 0}, {"type": "note_off", "time": 36, "note": 63, "velocity": 88, "channel": 0}, {"type": "note_on", "time": 28, "note": 67, "velocity": 109, "channel": 0}, {"type": "note_off", "time": 94, "note": 67, "velocity": 109, "channel": 0}, {"type": "note_on", "time": 13, "note": 65, "velocity": 116, "channel": 0}, {"type": "note_off", "time": 77, "note": 65, "velocity": 116, "channel": 0}, {"type": "note_on", "time": 27, "note": 62, "velocity": 88, "channel": 0}, {"type": "note_off", "time": 87, "note": 62, "velocity": 88, "channel": 0}, {"type": "note_on", "time": 16, "note": 63, "velocity": 103, "channel": 0}, {"type": "note_off", "time": 76, "note": 63, "velocity": 103, "channel": 0}, {"type": "note_on", "time": 1, "note": 64, "velocity": 96, "channel": 0}, {"type": "note_off", "time": 72, "note": 64, "velocity": 96, "channel": 0}, {"type": "note_on", "time": 97, "note": 72, "velocity": 118, "channel": 0}, {"type": "note_off", "time": 116, "note": 72, "velocity": 118, "channel": 0}, {"type": "note_on", "time": 20, "note": 72, "velocity": 110, "channel": 0}, {"type": "note_off", "time": 56, "note": 72, "velocity": 110, "channel": 0}, {"type": "note_on", "time": 16, "note": 68, "velocity": 114, "channel": 0}, {"type": "note_off", "time": 108, "note": 68, "velocity": 114, "channel": 0}, {"type": "note_on", "time": 16, "note": 65, "velocity": 92, "channel": 0}, {"type": "note_off", "time": 79, "note": 65, "velocity": 92, "channel": 0}, {"type": "end_of_track", "time": 0}]]}