{"ticks_per_beat": 192, "tracks": [[{"type": "track_name", "name": "Melody", "time": 0}, {"type": "set_tempo", "tempo": 234375, "time": 0}, {"type": "key_signature", "key": "F", "time": 0}, {"type": "time_signature", "numerator": 4, "denominator": 4, "clocks_per_click": 24, "notated_32nd_notes_per_beat": 8, "time": 0}, {"type": "note_on", "time": 3725, "note": 60, "velocity": 86, "channel": 0}, {"type": "note_off", "time": 115, "note": 60, "velocity": 86, "channel": 0}, {"type": "note_on", "time": 0, "note": 58, "velocity": 77, "channel": 0}, {"type": "note_off", "time": 79, "note": 58, "velocity": 77, "channel": 0}, {"type": "note_on", "time": 5, "note": 57, "velocity": 84, "channel": 0}, {"type": "note_off", "time": 101, "note": 57, "velocity": 84, "channel": 0}, {"type": "note_on", "time": 0, "note": 60, "velocity": 81, "channel": 0}, {"type": "note_off", "time": 92, "note": 60, "velocity": 81, "channel": 0}, {"type": "note_on", "time": 0, "note": 65, "velocity": 101, "channel": 0}, {"type": "note_off", "time": 101, "note": 65, "velocity": 101, "channel": 0}, {"type": "note_on", "time": 0, "note": 62, "velocity": 83, "channel": 0}, {"type": "note_off", "time": 88, "note": 62, "velocity": 83, "channel": 0}, {"type": "note_on", "time": 0, "note": 67, "velocity": 95, "channel": 0}, {"type": "note_off", "time": 104, "note": 67, "velocity": 95, "channel": 0}, {"type": "note_on", "time": 0, "note": 65, "velocity": 91, "channel": 0}, {"type": "note_off", "time": 86, "note": 65, "velocity": 91, "channel": 0}, {"type": "note_on", "time": 0, "note": 64, "velocity": 88, "channel": 0}, {"type": "note_on", "time": 93, "note": 62, "velocity": 86, "channel": 0}, {"type": "note_off", "time": 0, "note": 64, "velocity": 88, "channel": 0}, {"type": "note_off", "time": 83, "note": 62, "velocity": 86, "channel": 0}, {"type": "note_on", "time": 6, "note": 60, "velocity": 80, "channel": 0}, {"type": "note_off", "time": 113, "note": 60, "velocity": 80, "channel": 0}, {"type": "note_on", "time": 0, "note": 53, "velocity": 85, "channel": 0}, {"type": "note_off", "time": 66, "note": 53, "velocity": 85, "channel": 0}, {"type": "note_on", "time": 35, "note": 57, "velocity": 84, "channel": 0}, {"type": "note_off", "time": 92, "note": 57, "velocity": 84, "channel": 0}, {"type": "note_on", "time": 0, "note": 60, "velocity": 85, "channel": 0}, {"type": "note_off", "time": 84, "note": 60, "velocity": 85, "channel": 0}, {"type": "note_on", "time": 0, "note": 64, "velocity": 87, "channel": 0}, {"type": "note_off", "time": 99, "note": 64, "velocity": 87, "channel": 0}, {"type": "note_on", "time": 0, "note": 62, "velocity": 76, "channel": 0}, {"type": "note_off", "time": 86, "note": 62, "velocity": 76, "channel": 0}, {"type": "note_on", "time": 5, "note": 60, "velocity": 78, "channel": 0}, {"type": "note_off", "time": 91, "note": 60, "velocity": 78, "channel": 0}, {"type": "note_on", "time": 0, "note": 64, "velocity": 84, "channel": 0}, {"type": "note_off", "time": 87, "note": 64, "velocity": 84, "channel": 0}, {"type": "note_on", "time": 0, "note": 69, "velocity": 100, "channel": 0}, {"type": "note_off", "time": 105, "note": 69, "velocity": 100, "channel": 0}, {"type": "note_on", "time": 0, "note": 65, "velocity": 77, "channel": 0}, {"type": "note_off", "time": 87, "note": 65, "velocity": 77, "channel": 0}, {"type": "note_on", "time": 5, "note": 70, "velocity": 100, "channel": 0}, {"type": "note_off", "time": 88, "note": 70, "velocity": 100, "channel": 0}, {"type": "note_on", "time": 8, "note": 69, "velocity": 96, "channel": 0}, {"type": "note_off", "time": 83, "note": 69, "velocity": 96, "channel": 0}, {"type": "note_on", "time": 0, "note": 67, "velocity": 81, "channel": 0}, {"type": "note_off", "time": 102, "note": 67, "velocity": 81, "channel": 0}, {"type": "note_on", "time": 2, "note": 65, "velocity": 77, "channel": 0}, {"type": "note_off", "time": 91, "note": 65, "velocity": 77, "channel": 0}, {"type": "note_on", "time": 0, "note": 72, "velocity": 108, "channel": 0}, {"type": "note_off", "time": 87, "note": 72, "velocity": 108, "channel": 0}, {"type": "note_on", "time": 0, "note": 70, "velocity": 93, "channel": 0}, {"type": "note_off", "time": 84, "note": 70, "velocity": 93, "channel": 0}, {"type": "note_on", "time": 5, "note": 69, "velocity": 80, "channel": 0}, {"type": "note_off", "time": 113, "note": 69, "velocity": 80, "channel": 0}, {"type": "note_on", "time": 0, "note": 72, "velocity": 94, "channel": 0}, {"type": "note_on", "time": 97, "note": 77, "velocity": 96, "channel": 0}, {"type": "note_off", "time": 0, "note": 72, "velocity": 94, "channel": 0}, {"type": "note_off", "time": 110, "note": 77, "velocity": 96, "channel": 0}, {"type": "note_on", "time": 73, "note": 70, "velocity": 81, "channel": 0}, {"type": "note_off", "time": 119, "note": 70, "velocity": 81, "channel": 0}, {"type": "note_on", "time": 72, "note": 75, "velocity": 99, "channel": 0}, {"type": "note_off", "time": 107, "note": 75, "velocity": 99, "channel": 0}, {"type": "note_on", "time": 0, "note": 73, "velocity": 102, "channel": 0}, {"type": "note_off", "time": 97, "note": 73, "velocity": 102, "channel": 0}, {"type": "note_on", "time": 0, "note": 72, "velocity": 93, "channel": 0}, {"type": "note_off", "time": 111, "note": 72, "velocity": 93, "channel": 0}, {"type": "note_on", "time": 0, "note": 70, "velocity": 90, "channel": 0}, {"type": "note_off", "time": 76, "note": 70, "velocity": 90, "channel": 0}, {"type": "note_on", "time": 2, "note": 69, "velocity": 84, "channel": 0}, {"type": "note_off", "time": 112, "note": 69, "velocity": 84, "channel": 0}, {"type": "note_on", "time": 63, "note": 72, "velocity": 106, "channel": 0}, {"type": "note_off", "time": 96, "note": 72, "velocity": 106, "channel": 0}, {"type": "note_on", "time": 0, "note": 71, "velocity": 103, "channel": 0}, {"type": "note_off", "time": 89, "note": 71, "velocity": 103, "channel": 0}, {"type": "note_on", "time": 0, "note": 70, "velocity": 97, "channel": 0}, {"type": "note_off", "time": 89, "note": 70, "velocity": 97, "channel": 0}, {"type": "note_on", "time": 2, "note": 69, "velocity": 96, "channel": 0}, {"type": "note_off", "time": 106, "note": 69, "velocity": 96, "channel": 0}, {"type": "note_on", "time": 0, "note": 67, "velocity": 89, "channel": 0}, {"type": "note_off", "time": 95, "note": 67, "velocity": 89, "channel": 0}, {"type": "note_on", "time": 0, "note": 65, "velocity": 83, "channel": 0}, {"type": "note_off", "time": 96, "note": 65, "velocity": 83, "channel": 0}, {"type": "note_on", "time": 0, "note": 64, "velocity": 78, "channel": 0}, {"type": "note_off", "time": 91, "note": 64, "velocity": 78, "channel": 0}, {"type": "note_on", "time": 0, "note": 65, "velocity": 84, "channel": 0}, {"type": "note_off", "time": 92, "note": 65, "velocity": 84, "channel": 0}, {"type": "note_on", "time": 0, "note": 67, "velocity": 100, "channel": 0}, {"type": "note_off", "time": 106, "note": 67, "velocity": 100, "channel": 0}, {"type": "note_on", "time": 0, "note": 64, "velocity": 83, "channel": 0}, {"type": "note_on", "time": 96, "note": 65, "velocity": 84, "channel": 0}, {"type": "note_off", "time": 0, "note": 64, "velocity": 83, "channel": 0}, {"type": "note_off", "time": 99, "note": 65, "velocity": 84, "channel": 0}, {"type": "note_on", "time": 0, "note": 67, "velocity": 82, "channel": 0}, {"type": "note_off", "time": 90, "note": 67, "velocity": 82, "channel": 0}, {"type": "note_on", "time": 0, "note": 69, "velocity": 95, "channel": 0}, {"type": "note_off", "time": 104, "note": 69, "velocity": 95, "channel": 0}, {"type": "note_on", "time": 0, "note": 65, "velocity": 80, "channel": 0}, {"type": "note_off", "time": 143, "note": 65, "velocity": 80, "channel": 0}, {"type": "note_on", "time": 85, "note": 65, "velocity": 69, "channel": 0}, {"type": "note_off", "time": 144, "note": 65, "velocity": 69, "channel": 0}, {"type": "note_on", "time": 578, "note": 66, "velocity": 99, "channel": 0}, {"type": "note_off", "time": 64, "note": 66, "velocity": 99, "channel": 0}, {"type": "note_on", "time": 2, "note": 67, "velocity": 83, "channel": 0}, {"type": "note_off", "time": 60, "note": 67, "velocity": 83, "channel": 0}, {"type": "note_on", "time": 0, "note": 70, "velocity": 87, "channel": 0}, {"type": "note_off", "time": 57, "note": 70, "velocity": 87, "channel": 0}, {"type": "note_on", "time": 0, "note": 74, "velocity": 96, "channel": 0}, {"type": "note_off", "time": 85, "note": 74, "velocity": 96, "channel": 0}, {"type": "note_on", "time": 2, "note": 77, "velocity": 111, "channel": 0}, {"type": "note_off", "time": 114, "note": 77, "velocity": 111, "channel": 0}, {"type": "note_on", "time": 10, "note": 67, "velocity": 98, "channel": 0}, {"type": "note_off", "time": 179, "note": 67, "velocity": 98, "channel": 0}, {"type": "note_on", "time": 0, "note": 70, "velocity": 84, "channel": 0}, {"type": "note_off", "time": 77, "note": 70, "velocity": 84, "channel": 0}, {"type": "note_on", "time": 0, "note": 74, "velocity": 100, "channel": 0}, {"type": "note_off", "time": 95, "note": 74, "velocity": 100, "channel": 0}, {"type": "note_on", "time": 0, "note": 77, "velocity": 113, "channel": 0}, {"type": "note_off", "time": 86, "note": 77, "velocity": 113, "channel": 0}, {"type": "note_on", "time": 0, "note": 66, "velocity": 83, "channel": 0}, {"type": "note_off", "time": 254, "note": 66, "velocity": 83, "channel": 0}, {"type": "note_on", "time": 0, "note": 70, "velocity": 94, "channel": 0}, {"type": "note_off", "time": 62, "note": 70, "velocity": 94, "channel": 0}, {"type": "note_on", "time": 0, "note": 74, "velocity": 107, "channel": 0}, {"type": "note_off", "time": 80, "note": 74, "velocity": 107, "channel": 0}, {"type": "note_on", "time": 0, "note": 77, "velocity": 101, "channel": 0}, {"type": "note_off", "time": 84, "note": 77, "velocity": 101, "channel": 0}, {"type": "note_on", "time": 0, "note": 65, "velocity": 90, "channel": 0}, {"type": "note_off", "time": 138, "note": 65, "velocity": 90, "channel": 0}, {"type": "note_on", "time": 213, "note": 67, "velocity": 100, "channel": 0}, {"type": "note_off", "time": 61, "note": 67, "velocity": 100, "channel": 0}, {"type": "note_on", "time": 44, "note": 70, "velocity": 87, "channel": 0}, {"type": "note_off", "time": 113, "note": 70, "velocity": 87, "channel": 0}, {"type": "note_on", "time": 12, "note": 69, "velocity": 95, "channel": 0}, {"type": "note_off", "time": 104, "note": 69, "velocity": 95, "channel": 0}, {"type": "note_on", "time": 0, "note": 67, "velocity": 76, "channel": 0}, {"type": "note_on", "time": 136, "note": 72, "velocity": 102, "channel": 0}, {"type": "note_off", "time": 0, "note": 67, "velocity": 76, "channel": 0}, {"type": "note_off", "time": 118, "note": 72, "velocity": 102, "channel": 0}, {"type": "note_on", "time": 85, "note": 72, "velocity": 82, "channel": 0}, {"type": "note_off", "time": 85, "note": 72, "velocity": 82, "channel": 0}, {"type": "note_on", "time": 492, "note": 72, "velocity": 110, "channel": 0}, {"type": "note_off", "time": 109, "note": 72, "velocity": 110, "channel": 0}, {"type": "note_on", "time": 101, "note": 73, "velocity": 108, "channel": 0}, {"type": "note_off", "time": 116, "note": 73, "velocity": 108, "channel": 0}, {"type": "note_on", "time": 7, "note": 75, "velocity": 103, "channel": 0}, {"type": "note_on", "time": 86, "note": 73, "velocity": 103, "channel": 0}, {"type": "note_off", "time": 0, "note": 75, "velocity": 103, "channel": 0}, {"type": "note_off", "time": 87, "note": 73, "velocity": 103, "channel": 0}, {"type": "note_on", "time": 0, "note": 72, "velocity": 99, "channel": 0}, {"type": "note_off", "time": 97, "note": 72, "velocity": 99, "channel": 0}, {"type": "note_on", "time": 2, "note": 70, "velocity": 86, "channel": 0}, {"type": "note_off", "time": 92, "note": 70, "velocity": 86, "channel": 0}, {"type": "note_on", "time": 5, "note": 69, "velocity": 85, "channel": 0}, {"type": "note_off", "time": 90, "note": 69, "velocity": 85, "channel": 0}, {"type": "note_on", "time": 3, "note": 72, "velocity": 108, "channel": 0}, {"type": "note_off", "time": 89, "note": 72, "velocity": 108, "channel": 0}, {"type": "note_on", "time": 0, "note": 71, "velocity": 96, "channel": 0}, {"type": "note_off", "time": 101, "note": 71, "velocity": 96, "channel": 0}, {"type": "note_on", "time": 0, "note": 70, "velocity": 90, "channel": 0}, {"type": "note_off", "time": 97, "note": 70, "velocity": 90, "channel": 0}, {"type": "note_on", "time": 2, "note": 69, "velocity": 101, "channel": 0}, {"type": "note_off", "time": 92, "note": 69, "velocity": 101, "channel": 0}, {"type": "note_on", "time": 0, "note": 67, "velocity": 93, "channel": 0}, {"type": "note_off", "time": 93, "note": 67, "velocity": 93, "channel": 0}, {"type": "note_on", "time": 0, "note": 65, "velocity": 87, "channel": 0}, {"type": "note_off", "time": 87, "note": 65, "velocity": 87, "channel": 0}, {"type": "note_on", "time": 0, "note": 64, "velocity": 75, "channel": 0}, {"type": "note_off", "time": 101, "note": 64, "velocity": 75, "channel": 0}, {"type": "note_on", "time": 0, "note": 65, "velocity": 88, "channel": 0}, {"type": "note_off", "time": 96, "note": 65, "velocity": 88, "channel": 0}, {"type": "note_on", "time": 0, "note": 67, "velocity": 92, "channel": 0}, {"type": "note_on", "time": 101, "note": 64, "velocity": 81, "channel": 0}, {"type": "note_off", "time": 0, "note": 67, "velocity": 92, "channel": 0}, {"type": "note_off", "time": 88, "note": 64, "velocity": 81, "channel": 0}, {"type": "note_on", "time": 0, "note": 65, "velocity": 82, "channel": 0}, {"type": "note_on", "time": 90, "note": 67, "velocity": 77, "channel": 0}, {"type": "note_off", "time": 0, "note": 65, "velocity": 82, "channel": 0}, {"type": "note_off", "time": 90, "note": 67, "velocity": 77, "channel": 0}, {"type": "note_on", "time": 2, "note": 70, "velocity": 96, "channel": 0}, {"type": "note_off", "time": 99, "note": 70, "velocity": 96, "channel": 0}, {"type": "note_on", "time": 0, "note": 69, "velocity": 87, "channel": 0}, {"type": "note_off", "time": 86, "note": 69, "velocity": 87, "channel": 0}, {"type": "note_on", "time": 0, "note": 67, "velocity": 74, "channel": 0}, {"type": "note_off", "time": 115, "note": 67, "velocity": 74, "channel": 0}, {"type": "note_on", "time": 0, "note": 65, "velocity": 75, "channel": 0}, {"type": "note_on", "time": 89, "note": 72, "velocity": 78, "channel": 0}, {"type": "note_off", "time": 0, "note": 65, "velocity": 75, "channel": 0}, {"type": "note_off", "time": 152, "note": 72, "velocity": 78, "channel": 0}, {"type": "note_on", "time": 55, "note": 72, "velocity": 83, "channel": 0}, {"type": "note_off", "time": 51, "note": 72, "velocity": 83, "channel": 0}, {"type": "note_on", "time": 475, "note": 70, "velocity": 101, "channel": 0}, {"type": "note_off", "time": 104, "note": 70, "velocity": 101, "channel": 0}, {"type": "note_on", "time": 2, "note": 72, "velocity": 101, "channel": 0}, {"type": "note_off", "time": 99, "note": 72, "velocity": 101, "channel": 0}, {"type": "note_on", "time": 0, "note": 73, "velocity": 97, "channel": 0}, {"type": "note_off", "time": 96, "note": 73, "velocity": 97, "channel": 0}, {"type": "note_on", "time": 0, "note": 75, "velocity": 93, "channel": 0}, {"type": "note_off", "time": 84, "note": 75, "velocity": 93, "channel": 0}, {"type": "note_on", "time": 0, "note": 77, "velocity": 106, "channel": 0}, {"type": "note_off", "time": 94, "note": 77, "velocity": 106, "channel": 0}, {"type": "note_on", "time": 21, "note": 65, "velocity": 92, "channel": 0}, {"type": "note_off", "time": 95, "note": 65, "velocity": 92, "channel": 0}, {"type": "note_on", "time": 0, "note": 68, "velocity": 104, "channel": 0}, {"type": "note_off", "time": 95, "note": 68, "velocity": 104, "channel": 0}, {"type": "note_on", "time": 9, "note": 65, "velocity": 92, "channel": 0}, {"type": "note_off", "time": 91, "note": 65, "velocity": 92, "channel": 0}, {"type": "note_on", "time": 0, "note": 66, "velocity": 94, "channel": 0}, {"type": "note_off", "time": 94, "note": 66, "velocity": 94, "channel": 0}, {"type": "note_on", "time": 0, "note": 68, "velocity": 100, "channel": 0}, {"type": "note_off", "time": 82, "note": 68, "velocity": 100, "channel": 0}, {"type": "note_on", "time": 0, "note": 71, "velocity": 94, "channel": 0}, {"type": "note_off", "time": 90, "note": 71, "velocity": 94, "channel": 0}, {"type": "note_on", "time": 15, "note": 75, "velocity": 98, "channel": 0}, {"type": "note_off", "time": 94, "note": 75, "velocity": 98, "channel": 0}, {"type": "note_on", "time": 0, "note": 78, "velocity": 119, "channel": 0}, {"type": "note_off", "time": 70, "note": 78, "velocity": 119, "channel": 0}, {"type": "note_on", "time": 50, "note": 71, "velocity": 87, "channel": 0}, {"type": "note_off", "time": 98, "note": 71, "velocity": 87, "channel": 0}, {"type": "note_on", "time": 0, "note": 75, "velocity": 104, "channel": 0}, {"type": "note_off", "time": 96, "note": 75, "velocity": 104, "channel": 0}, {"type": "note_on", "time": 0, "note": 73, "velocity": 105, "channel": 0}, {"type": "note_off", "time": 89, "note": 73, "velocity": 105, "channel": 0}, {"type": "note_on", "time": 7, "note": 71, "velocity": 92, "channel": 0}, {"type": "note_off", "time": 94, "note": 71, "velocity": 92, "channel": 0}, {"type": "note_on", "time": 0, "note": 70, "velocity": 93, "channel": 0}, {"type": "note_on", "time": 101, "note": 68, "velocity": 91, "channel": 0}, {"type": "note_off", "time": 0, "note": 70, "velocity": 93, "channel": 0}, {"type": "note_off", "time": 95, "note": 68, "velocity": 91, "channel": 0}, {"type": "note_on", "time": 0, "note": 70, "velocity": 93, "channel": 0}, {"type": "note_off", "time": 85, "note": 70, "velocity": 93, "channel": 0}, {"type": "note_on", "time": 12, "note": 71, "velocity": 91, "channel": 0}, {"type": "note_off", "time": 101, "note": 71, "velocity": 91, "channel": 0}, {"type": "note_on", "time": 0, "note": 73, "velocity": 103, "channel": 0}, {"type": "note_off", "time": 76, "note": 73, "velocity": 103, "channel": 0}, {"type": "note_on", "time": 7, "note": 74, "velocity": 98, "channel": 0}, {"type": "note_off", "time": 108, "note": 74, "velocity": 98, "channel": 0}, {"type": "note_on", "time": 2, "note": 78, "velocity": 113, "channel": 0}, {"type": "note_off", "time": 79, "note": 78, "velocity": 113, "channel": 0}, {"type": "note_on", "time": 0, "note": 79, "velocity": 85, "channel": 0}, {"type": "note_off", "time": 142, "note": 79, "velocity": 85, "channel": 0}, {"type": "note_on", "time": 222, "note": 65, "velocity": 101, "channel": 0}, {"type": "note_off", "time": 106, "note": 65, "velocity": 101, "channel": 0}, {"type": "note_on", "time": 0, "note": 66, "velocity": 91, "channel": 0}, {"type": "note_off", "time": 102, "note": 66, "velocity": 91, "channel": 0}, {"type": "note_on", "time": 0, "note": 70, "velocity": 83, "channel": 0}, {"type": "note_off", "time": 94, "note": 70, "velocity": 83, "channel": 0}, {"type": "note_on", "time": 0, "note": 73, "velocity": 99, "channel": 0}, {"type": "note_off", "time": 99, "note": 73, "velocity": 99, "channel": 0}, {"type": "note_on", "time": 5, "note": 77, "velocity": 110, "channel": 0}, {"type": "note_off", "time": 98, "note": 77, "velocity": 110, "channel": 0}, {"type": "note_on", "time": 13, "note": 72, "velocity": 94, "channel": 0}, {"type": "note_off", "time": 80, "note": 72, "velocity": 94, "channel": 0}, {"type": "note_on", "time": 0, "note": 75, "velocity": 100, "channel": 0}, {"type": "note_off", "time": 123, "note": 75, "velocity": 100, "channel": 0}, {"type": "note_on", "time": 0, "note": 73, "velocity": 93, "channel": 0}, {"type": "note_off", "time": 188, "note": 73, "velocity": 93, "channel": 0}, {"type": "note_on", "time": 25, "note": 73, "velocity": 89, "channel": 0}, {"type": "note_off", "time": 62, "note": 73, "velocity": 89, "channel": 0}, {"type": "note_on", "time": 392, "note": 69, "velocity": 91, "channel": 0}, {"type": "note_off", "time": 112, "note": 69, "velocity": 91, "channel": 0}, {"type": "note_on", "time": 0, "note": 70, "velocity": 86, "channel": 0}, {"type": "note_off", "time": 97, "note": 70, "velocity": 86, "channel": 0}, {"type": "note_on", "time": 0, "note": 74, "velocity": 98, "channel": 0}, {"type": "note_off", "time": 93, "note": 74, "velocity": 98, "channel": 0}, {"type": "note_on", "time": 0, "note": 67, "velocity": 94, "channel": 0}, {"type": "note_off", "time": 95, "note": 67, "velocity": 94, "channel": 0}, {"type": "note_on", "time": 0, "note": 72, "velocity": 106, "channel": 0}, {"type": "note_off", "time": 100, "note": 72, "velocity": 106, "channel": 0}, {"type": "note_on", "time": 0, "note": 71, "velocity": 100, "channel": 0}, {"type": "note_off", "time": 93, "note": 71, "velocity": 100, "channel": 0}, {"type": "note_on", "time": 0, "note": 70, "velocity": 95, "channel": 0}, {"type": "note_off", "time": 89, "note": 70, "velocity": 95, "channel": 0}, {"type": "note_on", "time": 2, "note": 69, "velocity": 96, "channel": 0}, {"type": "note_off", "time": 90, "note": 69, "velocity": 96, "channel": 0}, {"type": "note_on", "time": 0, "note": 67, "velocity": 92, "channel": 0}, {"type": "note_off", "time": 95, "note": 67, "velocity": 92, "channel": 0}, {"type": "note_on", "time": 2, "note": 65, "velocity": 90, "channel": 0}, {"type": "note_off", "time": 83, "note": 65, "velocity": 90, "channel": 0}, {"type": "note_on", "time": 8, "note": 64, "velocity": 93, "channel": 0}, {"type": "note_off", "time": 89, "note": 64, "velocity": 93, "channel": 0}, {"type": "note_on", "time": 0, "note": 65, "velocity": 90, "channel": 0}, {"type": "note_off", "time": 93, "note": 65, "velocity": 90, "channel": 0}, {"type": "note_on", "time": 0, "note": 67, "velocity": 93, "channel": 0}, {"type": "note_off", "time": 93, "note": 67, "velocity": 93, "channel": 0}, {"type": "note_on", "time": 7, "note": 69, "velocity": 88, "channel": 0}, {"type": "note_off", "time": 99, "note": 69, "velocity": 88, "channel": 0}, {"type": "note_on", "time": 6, "note": 70, "velocity": 91, "channel": 0}, {"type": "note_off", "time": 100, "note": 70, "velocity": 91, "channel": 0}, {"type": "note_on", "time": 5, "note": 67, "velocity": 90, "channel": 0}, {"type": "note_off", "time": 84, "note": 67, "velocity": 90, "channel": 0}, {"type": "note_on", "time": 0, "note": 72, "velocity": 103, "channel": 0}, {"type": "note_off", "time": 92, "note": 72, "velocity": 103, "channel": 0}, {"type": "note_on", "time": 0, "note": 70, "velocity": 95, "channel": 0}, {"type": "note_off", "time": 99, "note": 70, "velocity": 95, "channel": 0}, {"type": "note_on", "time": 0, "note": 69, "velocity": 91, "channel": 0}, {"type": "note_off", "time": 77, "note": 69, "velocity": 91, "channel": 0}, {"type": "note_on", "time": 6, "note": 67, "velocity": 96, "channel": 0}, {"type": "note_off", "time": 97, "note": 67, "velocity": 96, "channel": 0}, {"type": "note_on", "time": 0, "note": 65, "velocity": 86, "channel": 0}, {"type": "note_off", "time": 94, "note": 65, "velocity": 86, "channel": 0}, {"type": "note_on", "time": 0, "note": 70, "velocity": 84, "channel": 0}, {"type": "note_off", "time": 172, "note": 70, "velocity": 84, "channel": 0}, {"type": "note_on", "time": 37, "note": 70, "velocity": 91, "channel": 0}, {"type": "note_off", "time": 150, "note": 70, "velocity": 91, "channel": 0}, {"type": "note_on", "time": 0, "note": 69, "velocity": 102, "channel": 0}, {"type": "note_off", "time": 80, "note": 69, "velocity": 102, "channel": 0}, {"type": "note_on", "time": 8, "note": 67, "velocity": 95, "channel": 0}, {"type": "note_off", "time": 51, "note": 67, "velocity": 95, "channel": 0}, {"type": "note_on", "time": 0, "note": 65, "velocity": 96, "channel": 0}, {"type": "note_off", "time": 55, "note": 65, "velocity": 96, "channel": 0}, {"type": "note_on", "time": 0, "note": 64, "velocity": 79, "channel": 0}, {"type": "note_off", "time": 72, "note": 64, "velocity": 79, "channel": 0}, {"type": "note_on", "time": 38, "note": 72, "velocity": 100, "channel": 0}, {"type": "note_off", "time": 135, "note": 72, "velocity": 100, "channel": 0}, {"type": "note_on", "time": 0, "note": 70, "velocity": 97, "channel": 0}, {"type": "note_off", "time": 63, "note": 70, "velocity": 97, "channel": 0}, {"type": "note_on", "time": 6, "note": 69, "velocity": 91, "channel": 0}, {"type": "note_off", "time": 42, "note": 69, "velocity": 91, "channel": 0}, {"type": "note_on", "time": 7, "note": 67, "velocity": 100, "channel": 0}, {"type": "note_off", "time": 40, "note": 67, "velocity": 100, "channel": 0}, {"type": "note_on", "time": 8, "note": 65, "velocity": 89, "channel": 0}, {"type": "note_off", "time": 70, "note": 65, "velocity": 89, "channel": 0}, {"type": "note_on", "time": 25, "note": 74, "velocity": 104, "channel": 0}, {"type": "note_off", "time": 104, "note": 74, "velocity": 104, "channel": 0}, {"type": "note_on", "time": 52, "note": 74, "velocity": 101, "channel": 0}, {"type": "note_off", "time": 135, "note": 74, "velocity": 101, "channel": 0}, {"type": "note_on", "time": 3, "note": 72, "velocity": 105, "channel": 0}, {"type": "note_off", "time": 63, "note": 72, "velocity": 105, "channel": 0}, {"type": "note_on", "time": 5, "note": 70, "velocity": 101, "channel": 0}, {"type": "note_off", "time": 45, "note": 70, "velocity": 101, "channel": 0}, {"type": "note_on", "time": 2, "note": 69, "velocity": 98, "channel": 0}, {"type": "note_off", "time": 47, "note": 69, "velocity": 98, "channel": 0}, {"type": "note_on", "time": 2, "note": 67, "velocity": 86, "channel": 0}, {"type": "note_off", "time": 81, "note": 67, "velocity": 86, "channel": 0}, {"type": "note_on", "time": 31, "note": 76, "velocity": 111, "channel": 0}, {"type": "note_off", "time": 115, "note": 76, "velocity": 111, "channel": 0}, {"type": "note_on", "time": 0, "note": 74, "velocity": 99, "channel": 0}, {"type": "note_off", "time": 64, "note": 74, "velocity": 99, "channel": 0}, {"type": "note_on", "time": 13, "note": 72, "velocity": 88, "channel": 0}, {"type": "note_off", "time": 47, "note": 72, "velocity": 88, "channel": 0}, {"type": "note_on", "time": 13, "note": 70, "velocity": 87, "channel": 0}, {"type": "note_off", "time": 41, "note": 70, "velocity": 87, "channel": 0}, {"type": "note_on", "time": 1, "note": 69, "velocity": 86, "channel": 0}, {"type": "note_off", "time": 54, "note": 69, "velocity": 86, "channel": 0}, {"type": "note_on", "time": 30, "note": 77, "velocity": 100, "channel": 0}, {"type": "note_off", "time": 152, "note": 77, "velocity": 100, "channel": 0}, {"type": "note_on", "time": 794, "note": 77, "velocity": 127, "channel": 0}, {"type": "note_off", "time": 121, "note": 77, "velocity": 127, "channel": 0}, {"type": "note_on", "time": 0, "note": 76, "velocity": 119, "channel": 0}, {"type": "note_off", "time": 88, "note": 76, "velocity": 119, "channel": 0}, {"type": "note_on", "time": 0, "note": 75, "velocity": 112, "channel": 0}, {"type": "note_off", "time": 95, "note": 75, "velocity": 112, "channel": 0}, {"type": "note_on", "time": 0, "note": 73, "velocity": 114, "channel": 0}, {"type": "note_off", "time": 92, "note": 73, "velocity": 114, "channel": 0}, {"type": "note_on", "time": 7, "note": 72, "velocity": 108, "channel": 0}, {"type": "note_off", "time": 95, "note": 72, "velocity": 108, "channel": 0}, {"type": "note_on", "time": 0, "note": 70, "velocity": 103, "channel": 0}, {"type": "note_off", "time": 94, "note": 70, "velocity": 103, "channel": 0}, {"type": "note_on", "time": 0, "note": 69, "velocity": 96, "channel": 0}, {"type": "note_on", "time": 103, "note": 70, "velocity": 79, "channel": 0}, {"type": "note_off", "time": 0, "note": 69, "velocity": 96, "channel": 0}, {"type": "note_off", "time": 85, "note": 70, "velocity": 79, "channel": 0}, {"type": "note_on", "time": 3, "note": 72, "velocity": 113, "channel": 0}, {"type": "note_off", "time": 88, "note": 72, "velocity": 113, "channel": 0}, {"type": "note_on", "time": 2, "note": 71, "velocity": 102, "channel": 0}, {"type": "note_off", "time": 83, "note": 71, "velocity": 102, "channel": 0}, {"type": "note_on", "time": 0, "note": 70, "velocity": 105, "channel": 0}, {"type": "note_off", "time": 87, "note": 70, "velocity": 105, "channel": 0}, {"type": "note_on", "time": 5, "note": 69, "velocity": 102, "channel": 0}, {"type": "note_off", "time": 91, "note": 69, "velocity": 102, "channel": 0}, {"type": "note_on", "time": 0, "note": 67, "velocity": 101, "channel": 0}, {"type": "note_off", "time": 103, "note": 67, "velocity": 101, "channel": 0}, {"type": "note_on", "time": 5, "note": 65, "velocity": 79, "channel": 0}, {"type": "note_off", "time": 84, "note": 65, "velocity": 79, "channel": 0}, {"type": "note_on", "time": 5, "note": 64, "velocity": 79, "channel": 0}, {"type": "note_off", "time": 94, "note": 64, "velocity": 79, "channel": 0}, {"type": "note_on", "time": 0, "note": 65, "velocity": 89, "channel": 0}, {"type": "note_off", "time": 84, "note": 65, "velocity": 89, "channel": 0}, {"type": "note_on", "time": 0, "note": 67, "velocity": 98, "channel": 0}, {"type": "note_off", "time": 112, "note": 67, "velocity": 98, "channel": 0}, {"type": "note_on", "time": 0, "note": 64, "velocity": 76, "channel": 0}, {"type": "note_off", "time": 91, "note": 64, "velocity": 76, "channel": 0}, {"type": "note_on", "time": 0, "note": 65, "velocity": 92, "channel": 0}, {"type": "note_off", "time": 112, "note": 65, "velocity": 92, "channel": 0}, {"type": "note_on", "time": 0, "note": 67, "velocity": 88, "channel": 0}, {"type": "note_off", "time": 189, "note": 67, "velocity": 88, "channel": 0}, {"type": "note_on", "time": 0, "note": 69, "velocity": 98, "channel": 0}, {"type": "note_on", "time": 156, "note": 65, "velocity": 90, "channel": 0}, {"type": "note_off", "time": 0, "note": 69, "velocity": 98, "channel": 0}, {"type": "note_off", "time": 86, "note": 65, "velocity": 90, "channel": 0}, {"type": "note_on", "time": 25, "note": 70, "velocity": 95, "channel": 0}, {"type": "note_off", "time": 103, "note": 70, "velocity": 95, "channel": 0}, {"type": "note_on", "time": 0, "note": 69, "velocity": 85, "channel": 0}, {"type": "note_off", "time": 190, "note": 69, "velocity": 85, "channel": 0}, {"type": "note_on", "time": 8, "note": 67, "velocity": 96, "channel": 0}, {"type": "note_off", "time": 156, "note": 67, "velocity": 96, "channel": 0}, {"type": "note_on", "time": 0, "note": 65, "velocity": 83, "channel": 0}, {"type": "note_off", "time": 87, "note": 65, "velocity": 83, "channel": 0}, {"type": "note_on", "time": 21, "note": 72, "velocity": 101, "channel": 0}, {"type": "note_off", "time": 75, "note": 72, "velocity": 101, "channel": 0}, {"type": "note_on", "time": 0, "note": 70, "velocity": 92, "channel": 0}, {"type": "note_off", "time": 91, "note": 70, "velocity": 92, "channel": 0}, {"type": "note_on", "time": 0, "note": 69, "velocity": 84, "channel": 0}, {"type": "note_off", "time": 95, "note": 69, "velocity": 84, "channel": 0}, {"type": "note_on", "time": 0, "note": 67, "velocity": 90, "channel": 0}, {"type": "note_off", "time": 83, "note": 67, "velocity": 90, "channel": 0}, {"type": "note_on", "time": 0, "note": 72, "velocity": 98, "channel": 0}, {"type": "note_off", "time": 129, "note": 72, "velocity": 98, "channel": 0}, {"type": "note_on", "time": 94, "note": 72, "velocity": 94, "channel": 0}, {"type": "note_off", "time": 48, "note": 72, "velocity": 94, "channel": 0}, {"type": "end_of_track", "time": 0}]]}