{"ticks_per_beat": 192, "tracks": [[{"type": "track_name", "name": "Melody", "time": 0}, {"type": "set_tempo", "tempo": 342857, "time": 0}, {"type": "key_signature", "key": "F", "time": 0}, {"type": "time_signature", "numerator": 4, "denominator": 4, "clocks_per_click": 24, "notated_32nd_notes_per_beat": 8, "time": 0}, {"type": "note_on", "time": 1937, "note": 67, "velocity": 100, "channel": 0}, {"type": "note_off", "time": 104, "note": 67, "velocity": 100, "channel": 0}, {"type": "note_on", "time": 11, "note": 70, "velocity": 103, "channel": 0}, {"type": "note_off", "time": 105, "note": 70, "velocity": 103, "channel": 0}, {"type": "note_on", "time": 3, "note": 69, "velocity": 92, "channel": 0}, {"type": "note_off", "time": 104, "note": 69, "velocity": 92, "channel": 0}, {"type": "note_on", "time": 4, "note": 73, "velocity": 90, "channel": 0}, {"type": "note_off", "time": 61, "note": 73, "velocity": 90, "channel": 0}, {"type": "note_on", "time": 0, "note": 78, "velocity": 125, "channel": 0}, {"type": "note_off", "time": 113, "note": 78, "velocity": 125, "channel": 0}, {"type": "note_on", "time": 10, "note": 76, "velocity": 121, "channel": 0}, {"type": "note_off", "time": 90, "note": 76, "velocity": 121, "channel": 0}, {"type": "note_on", "time": 1, "note": 75, "velocity": 106, "channel": 0}, {"type": "note_on", "time": 104, "note": 73, "velocity": 108, "channel": 0}, {"type": "note_off", "time": 0, "note": 75, "velocity": 106, "channel": 0}, {"type": "note_off", "time": 73, "note": 73, "velocity": 108, "channel": 0}, {"type": "note_on", "time": 6, "note": 72, "velocity": 102, "channel": 0}, {"type": "note_off", "time": 91, "note": 72, "velocity": 102, "channel": 0}, {"type": "note_on", "time": 9, "note": 70, "velocity": 104, "channel": 0}, {"type": "note_off", "time": 81, "note": 70, "velocity": 104, "channel": 0}, {"type": "note_on", "time": 8, "note": 69, "velocity": 94, "channel": 0}, {"type": "note_off", "time": 113, "note": 69, "velocity": 94, "channel": 0}, {"type": "note_on", "time": 38, "note": 70, "velocity": 91, "channel": 0}, {"type": "note_off", "time": 41, "note": 70, "velocity": 91, "channel": 0}, {"type": "note_on", "time": 0, "note": 72, "velocity": 106, "channel": 0}, {"type": "note_off", "time": 105, "note": 72, "velocity": 106, "channel": 0}, {"type": "note_on", "time": 3, "note": 70, "velocity": 105, "channel": 0}, {"type": "note_off", "time": 78, "note": 70, "velocity": 105, "channel": 0}, {"type": "note_on", "time": 13, "note": 69, "velocity": 99, "channel": 0}, {"type": "note_off", "time": 85, "note": 69, "velocity": 99, "channel": 0}, {"type": "note_on", "time": 3, "note": 65, "velocity": 100, "channel": 0}, {"type": "note_off", "time": 161, "note": 65, "velocity": 100, "channel": 0}, {"type": "note_on", "time": 26, "note": 65, "velocity": 105, "channel": 0}, {"type": "note_off", "time": 89, "note": 65, "velocity": 105, "channel": 0}, {"type": "note_on", "time": 21, "note": 70, "velocity": 109, "channel": 0}, {"type": "note_off", "time": 123, "note": 70, "velocity": 109, "channel": 0}, {"type": "note_on", "time": 0, "note": 65, "velocity": 96, "channel": 0}, {"type": "note_off", "time": 44, "note": 65, "velocity": 96, "channel": 0}, {"type": "note_on", "time": 22, "note": 68, "velocity": 113, "channel": 0}, {"type": "note_off", "time": 101, "note": 68, "velocity": 113, "channel": 0}, {"type": "note_on", "time": 13, "note": 70, "velocity": 106, "channel": 0}, {"type": "note_off", "time": 74, "note": 70, "velocity": 106, "channel": 0}, {"type": "note_on", "time": 6, "note": 72, "velocity": 101, "channel": 0}, {"type": "note_off", "time": 109, "note": 72, "velocity": 101, "channel": 0}, {"type": "note_on", "time": 5, "note": 73, "velocity": 95, "channel": 0}, {"type": "note_off", "time": 76, "note": 73, "velocity": 95, "channel": 0}, {"type": "note_on", "time": 5, "note": 74, "velocity": 105, "channel": 0}, {"type": "note_off", "time": 114, "note": 74, "velocity": 105, "channel": 0}, {"type": "note_on", "time": 1, "note": 72, "velocity": 96, "channel": 0}, {"type": "note_off", "time": 70, "note": 72, "velocity": 96, "channel": 0}, {"type": "note_on", "time": 13, "note": 71, "velocity": 90, "channel": 0}, {"type": "note_off", "time": 112, "note": 71, "velocity": 90, "channel": 0}, {"type": "note_on", "time": 1, "note": 66, "velocity": 96, "channel": 0}, {"type": "note_off", "time": 160, "note": 66, "velocity": 96, "channel": 0}, {"type": "note_on", "time": 11, "note": 66, "velocity": 86, "channel": 0}, {"type": "note_off", "time": 80, "note": 66, "velocity": 86, "channel": 0}, {"type": "note_on", "time": 570, "note": 75, "velocity": 106, "channel": 0}, {"type": "note_off", "time": 133, "note": 75, "velocity": 106, "channel": 0}, {"type": "note_on", "time": 3, "note": 73, "velocity": 116, "channel": 0}, {"type": "note_off", "time": 52, "note": 73, "velocity": 116, "channel": 0}, {"type": "note_on", "time": 11, "note": 72, "velocity": 114, "channel": 0}, {"type": "note_off", "time": 65, "note": 72, "velocity": 114, "channel": 0}, {"type": "note_on", "time": 14, "note": 70, "velocity": 114, "channel": 0}, {"type": "note_off", "time": 45, "note": 70, "velocity": 114, "channel": 0}, {"type": "note_on", "time": 14, "note": 69, "velocity": 108, "channel": 0}, {"type": "note_off", "time": 82, "note": 69, "velocity": 108, "channel": 0}, {"type": "note_on", "time": 9, "note": 67, "velocity": 108, "channel": 0}, {"type": "note_off", "time": 76, "note": 67, "velocity": 108, "channel": 0}, {"type": "note_on", "time": 14, "note": 65, "velocity": 105, "channel": 0}, {"type": "note_off", "time": 68, "note": 65, "velocity": 105, "channel": 0}, {"type": "note_on", "time": 8, "note": 64, "velocity": 100, "channel": 0}, {"type": "note_off", "time": 102, "note": 64, "velocity": 100, "channel": 0}, {"type": "note_on", "time": 13, "note": 62, "velocity": 102, "channel": 0}, {"type": "note_off", "time": 76, "note": 62, "velocity": 102, "channel": 0}, {"type": "note_on", "time": 4, "note": 60, "velocity": 86, "channel": 0}, {"type": "note_off", "time": 78, "note": 60, "velocity": 86, "channel": 0}, {"type": "note_on", "time": 16, "note": 62, "velocity": 95, "channel": 0}, {"type": "note_off", "time": 79, "note": 62, "velocity": 95, "channel": 0}, {"type": "note_on", "time": 32, "note": 64, "velocity": 95, "channel": 0}, {"type": "note_off", "time": 66, "note": 64, "velocity": 95, "channel": 0}, {"type": "note_on", "time": 11, "note": 65, "velocity": 99, "channel": 0}, {"type": "note_off", "time": 84, "note": 65, "velocity": 99, "channel": 0}, {"type": "note_on", "time": 17, "note": 67, "velocity": 99, "channel": 0}, {"type": "note_off", "time": 89, "note": 67, "velocity": 99, "channel": 0}, {"type": "note_on", "time": 16, "note": 69, "velocity": 96, "channel": 0}, {"type": "note_off", "time": 94, "note": 69, "velocity": 96, "channel": 0}, {"type": "note_on", "time": 8, "note": 70, "velocity": 105, "channel": 0}, {"type": "note_off", "time": 113, "note": 70, "velocity": 105, "channel": 0}, {"type": "note_on", "time": 4, "note": 66, "velocity": 96, "channel": 0}, {"type": "note_off", "time": 44, "note": 66, "velocity": 96, "channel": 0}, {"type": "note_on", "time": 20, "note": 68, "velocity": 110, "channel": 0}, {"type": "note_off", "time": 93, "note": 68, "velocity": 110, "channel": 0}, {"type": "note_on", "time": 90, "note": 71, "velocity": 105, "channel": 0}, {"type": "note_off", "time": 174, "note": 71, "velocity": 105, "channel": 0}, {"type": "note_on", "time": 13, "note": 69, "velocity": 96, "channel": 0}, {"type": "note_off", "time": 200, "note": 69, "velocity": 96, "channel": 0}, {"type": "note_on", "time": 0, "note": 67, "velocity": 110, "channel": 0}, {"type": "note_off", "time": 196, "note": 67, "velocity": 110, "channel": 0}, {"type": "note_on", "time": 14, "note": 72, "velocity": 112, "channel": 0}, {"type": "note_off", "time": 88, "note": 72, "velocity": 112, "channel": 0}, {"type": "note_on", "time": 86, "note": 77, "velocity": 127, "channel": 0}, {"type": "note_off", "time": 108, "note": 77, "velocity": 127, "channel": 0}, {"type": "note_on", "time": 3, "note": 76, "velocity": 124, "channel": 0}, {"type": "note_off", "time": 94, "note": 76, "velocity": 124, "channel": 0}, {"type": "note_on", "time": 3, "note": 75, "velocity": 102, "channel": 0}, {"type": "note_off", "time": 109, "note": 75, "velocity": 102, "channel": 0}, {"type": "note_on", "time": 8, "note": 73, "velocity": 106, "channel": 0}, {"type": "note_off", "time": 76, "note": 73, "velocity": 106, "channel": 0}, {"type": "note_on", "time": 41, "note": 72, "velocity": 104, "channel": 0}, {"type": "note_off", "time": 138, "note": 72, "velocity": 104, "channel": 0}, {"type": "note_on", "time": 5, "note": 70, "velocity": 104, "channel": 0}, {"type": "note_off", "time": 129, "note": 70, "velocity": 104, "channel": 0}, {"type": "note_on", "time": 3, "note": 69, "velocity": 96, "channel": 0}, {"type": "note_off", "time": 64, "note": 69, "velocity": 96, "channel": 0}, {"type": "note_on", "time": 2, "note": 72, "velocity": 102, "channel": 0}, {"type": "note_off", "time": 110, "note": 72, "velocity": 102, "channel": 0}, {"type": "note_on", "time": 6, "note": 70, "velocity": 105, "channel": 0}, {"type": "note_off", "time": 68, "note": 70, "velocity": 105, "channel": 0}, {"type": "note_on", "time": 6, "note": 69, "velocity": 91, "channel": 0}, {"type": "note_off", "time": 145, "note": 69, "velocity": 91, "channel": 0}, {"type": "note_on", "time": 4, "note": 72, "velocity": 84, "channel": 0}, {"type": "note_off", "time": 49, "note": 72, "velocity": 84, "channel": 0}, {"type": "note_on", "time": 0, "note": 77, "velocity": 115, "channel": 0}, {"type": "note_off", "time": 108, "note": 77, "velocity": 115, "channel": 0}, {"type": "note_on", "time": 14, "note": 74, "velocity": 90, "channel": 0}, {"type": "note_off", "time": 251, "note": 74, "velocity": 90, "channel": 0}, {"type": "note_on", "time": 389, "note": 72, "velocity": 120, "channel": 0}, {"type": "note_off", "time": 108, "note": 72, "velocity": 120, "channel": 0}, {"type": "note_on", "time": 0, "note": 70, "velocity": 111, "channel": 0}, {"type": "note_off", "time": 78, "note": 70, "velocity": 111, "channel": 0}, {"type": "note_on", "time": 13, "note": 68, "velocity": 112, "channel": 0}, {"type": "note_off", "time": 58, "note": 68, "velocity": 112, "channel": 0}, {"type": "note_on", "time": 17, "note": 67, "velocity": 109, "channel": 0}, {"type": "note_off", "time": 56, "note": 67, "velocity": 109, "channel": 0}, {"type": "note_on", "time": 0, "note": 65, "velocity": 104, "channel": 0}, {"type": "note_off", "time": 54, "note": 65, "velocity": 104, "channel": 0}, {"type": "note_on", "time": 9, "note": 63, "velocity": 96, "channel": 0}, {"type": "note_off", "time": 56, "note": 63, "velocity": 96, "channel": 0}, {"type": "note_on", "time": 14, "note": 61, "velocity": 85, "channel": 0}, {"type": "note_off", "time": 43, "note": 61, "velocity": 85, "channel": 0}, {"type": "note_on", "time": 11, "note": 62, "velocity": 100, "channel": 0}, {"type": "note_off", "time": 70, "note": 62, "velocity": 100, "channel": 0}, {"type": "note_on", "time": 8, "note": 64, "velocity": 99, "channel": 0}, {"type": "note_off", "time": 67, "note": 64, "velocity": 99, "channel": 0}, {"type": "note_on", "time": 2, "note": 66, "velocity": 100, "channel": 0}, {"type": "note_off", "time": 43, "note": 66, "velocity": 100, "channel": 0}, {"type": "note_on", "time": 9, "note": 67, "velocity": 101, "channel": 0}, {"type": "note_off", "time": 53, "note": 67, "velocity": 101, "channel": 0}, {"type": "note_on", "time": 0, "note": 69, "velocity": 103, "channel": 0}, {"type": "note_off", "time": 82, "note": 69, "velocity": 103, "channel": 0}, {"type": "note_on", "time": 5, "note": 71, "velocity": 103, "channel": 0}, {"type": "note_off", "time": 48, "note": 71, "velocity": 103, "channel": 0}, {"type": "note_on", "time": 3, "note": 67, "velocity": 106, "channel": 0}, {"type": "note_off", "time": 58, "note": 67, "velocity": 106, "channel": 0}, {"type": "note_on", "time": 8, "note": 69, "velocity": 103, "channel": 0}, {"type": "note_off", "time": 50, "note": 69, "velocity": 103, "channel": 0}, {"type": "note_on", "time": 10, "note": 70, "velocity": 108, "channel": 0}, {"type": "note_off", "time": 42, "note": 70, "velocity": 108, "channel": 0}, {"type": "note_on", "time": 8, "note": 71, "velocity": 108, "channel": 0}, {"type": "note_off", "time": 61, "note": 71, "velocity": 108, "channel": 0}, {"type": "note_on", "time": 3, "note": 70, "velocity": 108, "channel": 0}, {"type": "note_off", "time": 51, "note": 70, "velocity": 108, "channel": 0}, {"type": "note_on", "time": 14, "note": 69, "velocity": 107, "channel": 0}, {"type": "note_off", "time": 59, "note": 69, "velocity": 107, "channel": 0}, {"type": "note_on", "time": 10, "note": 68, "velocity": 105, "channel": 0}, {"type": "note_off", "time": 55, "note": 68, "velocity": 105, "channel": 0}, {"type": "note_on", "time": 4, "note": 67, "velocity": 105, "channel": 0}, {"type": "note_off", "time": 33, "note": 67, "velocity": 105, "channel": 0}, {"type": "note_on", "time": 11, "note": 66, "velocity": 103, "channel": 0}, {"type": "note_off", "time": 52, "note": 66, "velocity": 103, "channel": 0}, {"type": "note_on", "time": 3, "note": 64, "velocity": 103, "channel": 0}, {"type": "note_off", "time": 61, "note": 64, "velocity": 103, "channel": 0}, {"type": "note_on", "time": 0, "note": 63, "velocity": 96, "channel": 0}, {"type": "note_off", "time": 66, "note": 63, "velocity": 96, "channel": 0}, {"type": "note_on", "time": 14, "note": 61, "velocity": 98, "channel": 0}, {"type": "note_off", "time": 66, "note": 61, "velocity": 98, "channel": 0}, {"type": "note_on", "time": 19, "note": 60, "velocity": 90, "channel": 0}, {"type": "note_off", "time": 46, "note": 60, "velocity": 90, "channel": 0}, {"type": "note_on", "time": 3, "note": 58, "velocity": 95, "channel": 0}, {"type": "note_off", "time": 44, "note": 58, "velocity": 95, "channel": 0}, {"type": "note_on", "time": 10, "note": 57, "velocity": 92, "channel": 0}, {"type": "note_off", "time": 69, "note": 57, "velocity": 92, "channel": 0}, {"type": "note_on", "time": 0, "note": 58, "velocity": 93, "channel": 0}, {"type": "note_off", "time": 46, "note": 58, "velocity": 93, "channel": 0}, {"type": "note_on", "time": 2, "note": 60, "velocity": 90, "channel": 0}, {"type": "note_off", "time": 92, "note": 60, "velocity": 90, "channel": 0}, {"type": "note_on", "time": 50, "note": 64, "velocity": 99, "channel": 0}, {"type": "note_off", "time": 40, "note": 64, "velocity": 99, "channel": 0}, {"type": "note_on", "time": 13, "note": 65, "velocity": 102, "channel": 0}, {"type": "note_off", "time": 54, "note": 65, "velocity": 102, "channel": 0}, {"type": "note_on", "time": 376, "note": 62, "velocity": 92, "channel": 0}, {"type": "note_off", "time": 32, "note": 62, "velocity": 92, "channel": 0}, {"type": "note_on", "time": 0, "note": 64, "velocity": 99, "channel": 0}, {"type": "note_off", "time": 43, "note": 64, "velocity": 99, "channel": 0}, {"type": "note_on", "time": 7, "note": 65, "velocity": 105, "channel": 0}, {"type": "note_off", "time": 50, "note": 65, "velocity": 105, "channel": 0}, {"type": "note_on", "time": 8, "note": 67, "velocity": 110, "channel": 0}, {"type": "note_off", "time": 57, "note": 67, "velocity": 110, "channel": 0}, {"type": "note_on", "time": 1, "note": 64, "velocity": 99, "channel": 0}, {"type": "note_off", "time": 37, "note": 64, "velocity": 99, "channel": 0}, {"type": "note_on", "time": 4, "note": 65, "velocity": 104, "channel": 0}, {"type": "note_off", "time": 58, "note": 65, "velocity": 104, "channel": 0}, {"type": "note_on", "time": 4, "note": 67, "velocity": 106, "channel": 0}, {"type": "note_off", "time": 49, "note": 67, "velocity": 106, "channel": 0}, {"type": "note_on", "time": 0, "note": 69, "velocity": 109, "channel": 0}, {"type": "note_off", "time": 26, "note": 69, "velocity": 109, "channel": 0}, {"type": "note_on", "time": 0, "note": 70, "velocity": 110, "channel": 0}, {"type": "note_off", "time": 39, "note": 70, "velocity": 110, "channel": 0}, {"type": "note_on", "time": 8, "note": 69, "velocity": 112, "channel": 0}, {"type": "note_off", "time": 42, "note": 69, "velocity": 112, "channel": 0}, {"type": "note_on", "time": 5, "note": 67, "velocity": 106, "channel": 0}, {"type": "note_off", "time": 50, "note": 67, "velocity": 106, "channel": 0}, {"type": "note_on", "time": 3, "note": 65, "velocity": 101, "channel": 0}, {"type": "note_off", "time": 39, "note": 65, "velocity": 101, "channel": 0}, {"type": "note_on", "time": 3, "note": 64, "velocity": 99, "channel": 0}, {"type": "note_off", "time": 53, "note": 64, "velocity": 99, "channel": 0}, {"type": "note_on", "time": 0, "note": 62, "velocity": 89, "channel": 0}, {"type": "note_off", "time": 35, "note": 62, "velocity": 89, "channel": 0}, {"type": "note_on", "time": 7, "note": 60, "velocity": 92, "channel": 0}, {"type": "note_off", "time": 39, "note": 60, "velocity": 92, "channel": 0}, {"type": "note_on", "time": 8, "note": 58, "velocity": 100, "channel": 0}, {"type": "note_off", "time": 42, "note": 58, "velocity": 100, "channel": 0}, {"type": "note_on", "time": 2, "note": 57, "velocity": 100, "channel": 0}, {"type": "note_off", "time": 48, "note": 57, "velocity": 100, "channel": 0}, {"type": "note_on", "time": 0, "note": 60, "velocity": 94, "channel": 0}, {"type": "note_off", "time": 33, "note": 60, "velocity": 94, "channel": 0}, {"type": "note_on", "time": 14, "note": 64, "velocity": 102, "channel": 0}, {"type": "note_off", "time": 38, "note": 64, "velocity": 102, "channel": 0}, {"type": "note_on", "time": 4, "note": 67, "velocity": 112, "channel": 0}, {"type": "note_off", "time": 65, "note": 67, "velocity": 112, "channel": 0}, {"type": "note_on", "time": 0, "note": 65, "velocity": 101, "channel": 0}, {"type": "note_off", "time": 51, "note": 65, "velocity": 101, "channel": 0}, {"type": "note_on", "time": 2, "note": 66, "velocity": 106, "channel": 0}, {"type": "note_off", "time": 47, "note": 66, "velocity": 106, "channel": 0}, {"type": "note_on", "time": 0, "note": 69, "velocity": 110, "channel": 0}, {"type": "note_off", "time": 30, "note": 69, "velocity": 110, "channel": 0}, {"type": "note_on", "time": 11, "note": 77, "velocity": 104, "channel": 0}, {"type": "note_off", "time": 66, "note": 77, "velocity": 104, "channel": 0}, {"type": "end_of_track", "time": 0}]]}