{"ticks_per_beat": 192, "tracks": [[{"type": "track_name", "name": "Melody", "time": 0}, {"type": "set_tempo", "tempo": 284360, "time": 0}, {"type": "key_signature", "key": "G", "time": 0}, {"type": "time_signature", "numerator": 4, "denominator": 4, "clocks_per_click": 24, "notated_32nd_notes_per_beat": 8, "time": 0}, {"type": "note_on", "time": 3861, "note": 64, "velocity": 94, "channel": 0}, {"type": "note_off", "time": 49, "note": 64, "velocity": 94, "channel": 0}, {"type": "note_on", "time": 8, "note": 67, "velocity": 122, "channel": 0}, {"type": "note_off", "time": 77, "note": 67, "velocity": 122, "channel": 0}, {"type": "note_on", "time": 34, "note": 67, "velocity": 121, "channel": 0}, {"type": "note_off", "time": 81, "note": 67, "velocity": 121, "channel": 0}, {"type": "note_on", "time": 111, "note": 67, "velocity": 95, "channel": 0}, {"type": "note_off", "time": 63, "note": 67, "velocity": 95, "channel": 0}, {"type": "note_on", "time": 9, "note": 69, "velocity": 120, "channel": 0}, {"type": "note_off", "time": 110, "note": 69, "velocity": 120, "channel": 0}, {"type": "note_on", "time": 6, "note": 67, "velocity": 112, "channel": 0}, {"type": "note_off", "time": 73, "note": 67, "velocity": 112, "channel": 0}, {"type": "note_on", "time": 22, "note": 64, "velocity": 92, "channel": 0}, {"type": "note_off", "time": 77, "note": 64, "velocity": 92, "channel": 0}, {"type": "note_on", "time": 6, "note": 67, "velocity": 110, "channel": 0}, {"type": "note_off", "time": 263, "note": 67, "velocity": 110, "channel": 0}, {"type": "note_on", "time": 346, "note": 64, "velocity": 91, "channel": 0}, {"type": "note_off", "time": 33, "note": 64, "velocity": 91, "channel": 0}, {"type": "note_on", "time": 8, "note": 67, "velocity": 98, "channel": 0}, {"type": "note_off", "time": 70, "note": 67, "velocity": 98, "channel": 0}, {"type": "note_on", "time": 6, "note": 70, "velocity": 97, "channel": 0}, {"type": "note_off", "time": 48, "note": 70, "velocity": 97, "channel": 0}, {"type": "note_on", "time": 7, "note": 72, "velocity": 98, "channel": 0}, {"type": "note_off", "time": 57, "note": 72, "velocity": 98, "channel": 0}, {"type": "note_on", "time": 7, "note": 74, "velocity": 109, "channel": 0}, {"type": "note_off", "time": 170, "note": 74, "velocity": 109, "channel": 0}, {"type": "note_on", "time": 697, "note": 67, "velocity": 118, "channel": 0}, {"type": "note_off", "time": 70, "note": 67, "velocity": 118, "channel": 0}, {"type": "note_on", "time": 8, "note": 72, "velocity": 108, "channel": 0}, {"type": "note_off", "time": 101, "note": 72, "velocity": 108, "channel": 0}, {"type": "note_on", "time": 5, "note": 71, "velocity": 99, "channel": 0}, {"type": "note_off", "time": 71, "note": 71, "velocity": 99, "channel": 0}, {"type": "note_on", "time": 11, "note": 69, "velocity": 102, "channel": 0}, {"type": "note_off", "time": 104, "note": 69, "velocity": 102, "channel": 0}, {"type": "note_on", "time": 5, "note": 70, "velocity": 111, "channel": 0}, {"type": "note_off", "time": 72, "note": 70, "velocity": 111, "channel": 0}, {"type": "note_on", "time": 9, "note": 71, "velocity": 104, "channel": 0}, {"type": "note_off", "time": 86, "note": 71, "velocity": 104, "channel": 0}, {"type": "note_on", "time": 16, "note": 67, "velocity": 93, "channel": 0}, {"type": "note_off", "time": 124, "note": 67, "velocity": 93, "channel": 0}, {"type": "note_on", "time": 135, "note": 67, "velocity": 121, "channel": 0}, {"type": "note_off", "time": 101, "note": 67, "velocity": 121, "channel": 0}, {"type": "note_on", "time": 11, "note": 67, "velocity": 118, "channel": 0}, {"type": "note_off", "time": 75, "note": 67, "velocity": 118, "channel": 0}, {"type": "note_on", "time": 28, "note": 64, "velocity": 85, "channel": 0}, {"type": "note_off", "time": 66, "note": 64, "velocity": 85, "channel": 0}, {"type": "note_on", "time": 6, "note": 67, "velocity": 115, "channel": 0}, {"type": "note_off", "time": 81, "note": 67, "velocity": 115, "channel": 0}, {"type": "note_on", "time": 8, "note": 69, "velocity": 121, "channel": 0}, {"type": "note_off", "time": 104, "note": 69, "velocity": 121, "channel": 0}, {"type": "note_on", "time": 5, "note": 67, "velocity": 111, "channel": 0}, {"type": "note_off", "time": 91, "note": 67, "velocity": 111, "channel": 0}, {"type": "note_on", "time": 20, "note": 64, "velocity": 92, "channel": 0}, {"type": "note_off", "time": 125, "note": 64, "velocity": 92, "channel": 0}, {"type": "note_on", "time": 340, "note": 61, "velocity": 96, "channel": 0}, {"type": "note_off", "time": 50, "note": 61, "velocity": 96, "channel": 0}, {"type": "note_on", "time": 23, "note": 63, "velocity": 96, "channel": 0}, {"type": "note_off", "time": 79, "note": 63, "velocity": 96, "channel": 0}, {"type": "note_on", "time": 7, "note": 61, "velocity": 89, "channel": 0}, {"type": "note_off", "time": 76, "note": 61, "velocity": 89, "channel": 0}, {"type": "note_on", "time": 10, "note": 62, "velocity": 95, "channel": 0}, {"type": "note_off", "time": 88, "note": 62, "velocity": 95, "channel": 0}, {"type": "note_on", "time": 26, "note": 60, "velocity": 101, "channel": 0}, {"type": "note_off", "time": 78, "note": 60, "velocity": 101, "channel": 0}, {"type": "note_on", "time": 6, "note": 57, "velocity": 84, "channel": 0}, {"type": "note_off", "time": 88, "note": 57, "velocity": 84, "channel": 0}, {"type": "note_on", "time": 23, "note": 58, "velocity": 94, "channel": 0}, {"type": "note_off", "time": 69, "note": 58, "velocity": 94, "channel": 0}, {"type": "note_on", "time": 7, "note": 60, "velocity": 105, "channel": 0}, {"type": "note_off", "time": 119, "note": 60, "velocity": 105, "channel": 0}, {"type": "note_on", "time": 9, "note": 58, "velocity": 98, "channel": 0}, {"type": "note_off", "time": 63, "note": 58, "velocity": 98, "channel": 0}, {"type": "note_on", "time": 14, "note": 57, "velocity": 94, "channel": 0}, {"type": "note_off", "time": 77, "note": 57, "velocity": 94, "channel": 0}, {"type": "note_on", "time": 8, "note": 58, "velocity": 100, "channel": 0}, {"type": "note_off", "time": 73, "note": 58, "velocity": 100, "channel": 0}, {"type": "note_on", "time": 14, "note": 57, "velocity": 102, "channel": 0}, {"type": "note_off", "time": 83, "note": 57, "velocity": 102, "channel": 0}, {"type": "note_on", "time": 12, "note": 56, "velocity": 102, "channel": 0}, {"type": "note_off", "time": 78, "note": 56, "velocity": 102, "channel": 0}, {"type": "note_on", "time": 30, "note": 55, "velocity": 89, "channel": 0}, {"type": "note_off", "time": 65, "note": 55, "velocity": 89, "channel": 0}, {"type": "note_on", "time": 17, "note": 56, "velocity": 96, "channel": 0}, {"type": "note_off", "time": 85, "note": 56, "velocity": 96, "channel": 0}, {"type": "note_on", "time": 14, "note": 57, "velocity": 96, "channel": 0}, {"type": "note_off", "time": 91, "note": 57, "velocity": 96, "channel": 0}, {"type": "note_on", "time": 12, "note": 60, "velocity": 99, "channel": 0}, {"type": "note_off", "time": 66, "note": 60, "velocity": 99, "channel": 0}, {"type": "note_on", "time": 6, "note": 61, "velocity": 100, "channel": 0}, {"type": "note_off", "time": 95, "note": 61, "velocity": 100, "channel": 0}, {"type": "note_on", "time": 17, "note": 60, "velocity": 94, "channel": 0}, {"type": "note_off", "time": 75, "note": 60, "velocity": 94, "channel": 0}, {"type": "note_on", "time": 8, "note": 63, "velocity": 93, "channel": 0}, {"type": "note_off", "time": 93, "note": 63, "velocity": 93, "channel": 0}, {"type": "note_on", "time": 27, "note": 60, "velocity": 97, "channel": 0}, {"type": "note_off", "time": 86, "note": 60, "velocity": 97, "channel": 0}, {"type": "note_on", "time": 815, "note": 69, "velocity": 120, "channel": 0}, {"type": "note_off", "time": 79, "note": 69, "velocity": 120, "channel": 0}, {"type": "note_on", "time": 3, "note": 70, "velocity": 110, "channel": 0}, {"type": "note_off", "time": 101, "note": 70, "velocity": 110, "channel": 0}, {"type": "note_on", "time": 2, "note": 71, "velocity": 111, "channel": 0}, {"type": "note_off", "time": 81, "note": 71, "velocity": 111, "channel": 0}, {"type": "note_on", "time": 8, "note": 72, "velocity": 103, "channel": 0}, {"type": "note_off", "time": 84, "note": 72, "velocity": 103, "channel": 0}, {"type": "note_on", "time": 13, "note": 69, "velocity": 125, "channel": 0}, {"type": "note_off", "time": 84, "note": 69, "velocity": 125, "channel": 0}, {"type": "note_on", "time": 16, "note": 65, "velocity": 107, "channel": 0}, {"type": "note_off", "time": 96, "note": 65, "velocity": 107, "channel": 0}, {"type": "note_on", "time": 16, "note": 62, "velocity": 88, "channel": 0}, {"type": "note_off", "time": 48, "note": 62, "velocity": 88, "channel": 0}, {"type": "note_on", "time": 20, "note": 67, "velocity": 119, "channel": 0}, {"type": "note_off", "time": 127, "note": 67, "velocity": 119, "channel": 0}, {"type": "note_on", "time": 6, "note": 69, "velocity": 91, "channel": 0}, {"type": "note_off", "time": 39, "note": 69, "velocity": 91, "channel": 0}, {"type": "note_on", "time": 27, "note": 71, "velocity": 107, "channel": 0}, {"type": "note_off", "time": 90, "note": 71, "velocity": 107, "channel": 0}, {"type": "note_on", "time": 10, "note": 69, "velocity": 116, "channel": 0}, {"type": "note_off", "time": 77, "note": 69, "velocity": 116, "channel": 0}, {"type": "note_on", "time": 7, "note": 71, "velocity": 107, "channel": 0}, {"type": "note_off", "time": 93, "note": 71, "velocity": 107, "channel": 0}, {"type": "note_on", "time": 5, "note": 69, "velocity": 116, "channel": 0}, {"type": "note_off", "time": 81, "note": 69, "velocity": 116, "channel": 0}, {"type": "note_on", "time": 6, "note": 71, "velocity": 105, "channel": 0}, {"type": "note_off", "time": 100, "note": 71, "velocity": 105, "channel": 0}, {"type": "note_on", "time": 9, "note": 69, "velocity": 113, "channel": 0}, {"type": "note_off", "time": 74, "note": 69, "velocity": 113, "channel": 0}, {"type": "note_on", "time": 4, "note": 71, "velocity": 102, "channel": 0}, {"type": "note_off", "time": 91, "note": 71, "velocity": 102, "channel": 0}, {"type": "note_on", "time": 10, "note": 69, "velocity": 112, "channel": 0}, {"type": "note_off", "time": 80, "note": 69, "velocity": 112, "channel": 0}, {"type": "note_on", "time": 6, "note": 68, "velocity": 113, "channel": 0}, {"type": "note_off", "time": 121, "note": 68, "velocity": 113, "channel": 0}, {"type": "note_on", "time": 16, "note": 64, "velocity": 85, "channel": 0}, {"type": "note_off", "time": 46, "note": 64, "velocity": 85, "channel": 0}, {"type": "note_on", "time": 9, "note": 66, "velocity": 87, "channel": 0}, {"type": "note_off", "time": 84, "note": 66, "velocity": 87, "channel": 0}, {"type": "note_on", "time": 17, "note": 68, "velocity": 107, "channel": 0}, {"type": "note_off", "time": 89, "note": 68, "velocity": 107, "channel": 0}, {"type": "note_on", "time": 13, "note": 71, "velocity": 97, "channel": 0}, {"type": "note_off", "time": 99, "note": 71, "velocity": 97, "channel": 0}, {"type": "note_on", "time": 11, "note": 68, "velocity": 88, "channel": 0}, {"type": "note_off", "time": 51, "note": 68, "velocity": 88, "channel": 0}, {"type": "note_on", "time": 5, "note": 69, "velocity": 106, "channel": 0}, {"type": "note_off", "time": 109, "note": 69, "velocity": 106, "channel": 0}, {"type": "note_on", "time": 11, "note": 71, "velocity": 99, "channel": 0}, {"type": "note_off", "time": 108, "note": 71, "velocity": 99, "channel": 0}, {"type": "note_on", "time": 8, "note": 72, "velocity": 96, "channel": 0}, {"type": "note_off", "time": 147, "note": 72, "velocity": 96, "channel": 0}, {"type": "note_on", "time": 31, "note": 69, "velocity": 112, "channel": 0}, {"type": "note_off", "time": 126, "note": 69, "velocity": 112, "channel": 0}, {"type": "note_on", "time": 38, "note": 64, "velocity": 84, "channel": 0}, {"type": "note_off", "time": 199, "note": 64, "velocity": 84, "channel": 0}, {"type": "note_on", "time": 11, "note": 60, "velocity": 86, "channel": 0}, {"type": "note_off", "time": 143, "note": 60, "velocity": 86, "channel": 0}, {"type": "note_on", "time": 18, "note": 63, "velocity": 91, "channel": 0}, {"type": "note_off", "time": 139, "note": 63, "velocity": 91, "channel": 0}, {"type": "note_on", "time": 4, "note": 60, "velocity": 88, "channel": 0}, {"type": "note_off", "time": 58, "note": 60, "velocity": 88, "channel": 0}, {"type": "note_on", "time": 3, "note": 62, "velocity": 93, "channel": 0}, {"type": "note_off", "time": 86, "note": 62, "velocity": 93, "channel": 0}, {"type": "note_on", "time": 19, "note": 60, "velocity": 101, "channel": 0}, {"type": "note_off", "time": 90, "note": 60, "velocity": 101, "channel": 0}, {"type": "note_on", "time": 108, "note": 58, "velocity": 94, "channel": 0}, {"type": "note_off", "time": 54, "note": 58, "velocity": 94, "channel": 0}, {"type": "note_on", "time": 5, "note": 59, "velocity": 83, "channel": 0}, {"type": "note_off", "time": 96, "note": 59, "velocity": 83, "channel": 0}, {"type": "note_on", "time": 23, "note": 62, "velocity": 90, "channel": 0}, {"type": "note_off", "time": 63, "note": 62, "velocity": 90, "channel": 0}, {"type": "note_on", "time": 18, "note": 64, "velocity": 92, "channel": 0}, {"type": "note_off", "time": 93, "note": 64, "velocity": 92, "channel": 0}, {"type": "note_on", "time": 7, "note": 66, "velocity": 94, "channel": 0}, {"type": "note_off", "time": 57, "note": 66, "velocity": 94, "channel": 0}, {"type": "note_on", "time": 10, "note": 69, "velocity": 118, "channel": 0}, {"type": "note_off", "time": 107, "note": 69, "velocity": 118, "channel": 0}, {"type": "note_on", "time": 10, "note": 67, "velocity": 116, "channel": 0}, {"type": "note_off", "time": 74, "note": 67, "velocity": 116, "channel": 0}, {"type": "note_on", "time": 8, "note": 66, "velocity": 101, "channel": 0}, {"type": "note_off", "time": 91, "note": 66, "velocity": 101, "channel": 0}, {"type": "note_on", "time": 11, "note": 67, "velocity": 106, "channel": 0}, {"type": "note_off", "time": 82, "note": 67, "velocity": 106, "channel": 0}, {"type": "note_on", "time": 14, "note": 64, "velocity": 93, "channel": 0}, {"type": "note_off", "time": 97, "note": 64, "velocity": 93, "channel": 0}, {"type": "note_on", "time": 4, "note": 63, "velocity": 90, "channel": 0}, {"type": "note_off", "time": 57, "note": 63, "velocity": 90, "channel": 0}, {"type": "note_on", "time": 241, "note": 65, "velocity": 99, "channel": 0}, {"type": "note_off", "time": 135, "note": 65, "velocity": 99, "channel": 0}, {"type": "note_on", "time": 11, "note": 70, "velocity": 100, "channel": 0}, {"type": "note_off", "time": 177, "note": 70, "velocity": 100, "channel": 0}, {"type": "note_on", "time": 987, "note": 65, "velocity": 102, "channel": 0}, {"type": "note_off", "time": 97, "note": 65, "velocity": 102, "channel": 0}, {"type": "note_on", "time": 7, "note": 67, "velocity": 86, "channel": 0}, {"type": "note_off", "time": 58, "note": 67, "velocity": 86, "channel": 0}, {"type": "note_on", "time": 8, "note": 70, "velocity": 111, "channel": 0}, {"type": "note_off", "time": 94, "note": 70, "velocity": 111, "channel": 0}, {"type": "note_on", "time": 12, "note": 74, "velocity": 113, "channel": 0}, {"type": "note_off", "time": 91, "note": 74, "velocity": 113, "channel": 0}, {"type": "note_on", "time": 12, "note": 69, "velocity": 101, "channel": 0}, {"type": "note_off", "time": 90, "note": 69, "velocity": 101, "channel": 0}, {"type": "note_on", "time": 5, "note": 70, "velocity": 96, "channel": 0}, {"type": "note_off", "time": 70, "note": 70, "velocity": 96, "channel": 0}, {"type": "note_on", "time": 4, "note": 72, "velocity": 114, "channel": 0}, {"type": "note_off", "time": 110, "note": 72, "velocity": 114, "channel": 0}, {"type": "note_on", "time": 6, "note": 70, "velocity": 108, "channel": 0}, {"type": "note_off", "time": 84, "note": 70, "velocity": 108, "channel": 0}, {"type": "note_on", "time": 9, "note": 69, "velocity": 100, "channel": 0}, {"type": "note_off", "time": 84, "note": 69, "velocity": 100, "channel": 0}, {"type": "note_on", "time": 9, "note": 67, "velocity": 106, "channel": 0}, {"type": "note_off", "time": 94, "note": 67, "velocity": 106, "channel": 0}, {"type": "note_on", "time": 10, "note": 65, "velocity": 101, "channel": 0}, {"type": "note_off", "time": 95, "note": 65, "velocity": 101, "channel": 0}, {"type": "note_on", "time": 7, "note": 63, "velocity": 89, "channel": 0}, {"type": "note_off", "time": 63, "note": 63, "velocity": 89, "channel": 0}, {"type": "note_on", "time": 31, "note": 60, "velocity": 88, "channel": 0}, {"type": "note_off", "time": 94, "note": 60, "velocity": 88, "channel": 0}, {"type": "note_on", "time": 11, "note": 61, "velocity": 93, "channel": 0}, {"type": "note_off", "time": 48, "note": 61, "velocity": 93, "channel": 0}, {"type": "note_on", "time": 12, "note": 62, "velocity": 95, "channel": 0}, {"type": "note_off", "time": 100, "note": 62, "velocity": 95, "channel": 0}, {"type": "note_on", "time": 12, "note": 63, "velocity": 85, "channel": 0}, {"type": "note_off", "time": 51, "note": 63, "velocity": 85, "channel": 0}, {"type": "note_on", "time": 12, "note": 64, "velocity": 93, "channel": 0}, {"type": "note_off", "time": 97, "note": 64, "velocity": 93, "channel": 0}, {"type": "note_on", "time": 13, "note": 65, "velocity": 107, "channel": 0}, {"type": "note_off", "time": 79, "note": 65, "velocity": 107, "channel": 0}, {"type": "note_on", "time": 18, "note": 67, "velocity": 108, "channel": 0}, {"type": "note_off", "time": 105, "note": 67, "velocity": 108, "channel": 0}, {"type": "note_on", "time": 5, "note": 65, "velocity": 96, "channel": 0}, {"type": "note_off", "time": 50, "note": 65, "velocity": 96, "channel": 0}, {"type": "note_on", "time": 5, "note": 70, "velocity": 111, "channel": 0}, {"type": "note_off", "time": 169, "note": 70, "velocity": 111, "channel": 0}, {"type": "note_on", "time": 54, "note": 69, "velocity": 94, "channel": 0}, {"type": "note_off", "time": 32, "note": 69, "velocity": 94, "channel": 0}, {"type": "note_on", "time": 7, "note": 70, "velocity": 99, "channel": 0}, {"type": "note_off", "time": 35, "note": 70, "velocity": 99, "channel": 0}, {"type": "note_on", "time": 19, "note": 67, "velocity": 110, "channel": 0}, {"type": "note_off", "time": 81, "note": 67, "velocity": 110, "channel": 0}, {"type": "note_on", "time": 15, "note": 63, "velocity": 89, "channel": 0}, {"type": "note_off", "time": 94, "note": 63, "velocity": 89, "channel": 0}, {"type": "note_on", "time": 10, "note": 60, "velocity": 85, "channel": 0}, {"type": "note_off", "time": 35, "note": 60, "velocity": 85, "channel": 0}, {"type": "note_on", "time": 10, "note": 70, "velocity": 108, "channel": 0}, {"type": "note_off", "time": 173, "note": 70, "velocity": 108, "channel": 0}, {"type": "note_on", "time": 39, "note": 69, "velocity": 100, "channel": 0}, {"type": "note_off", "time": 31, "note": 69, "velocity": 100, "channel": 0}, {"type": "note_on", "time": 1, "note": 70, "velocity": 102, "channel": 0}, {"type": "note_off", "time": 41, "note": 70, "velocity": 102, "channel": 0}, {"type": "note_on", "time": 14, "note": 66, "velocity": 95, "channel": 0}, {"type": "note_off", "time": 100, "note": 66, "velocity": 95, "channel": 0}, {"type": "note_on", "time": 5, "note": 63, "velocity": 80, "channel": 0}, {"type": "note_off", "time": 75, "note": 63, "velocity": 80, "channel": 0}, {"type": "note_on", "time": 54, "note": 60, "velocity": 83, "channel": 0}, {"type": "note_off", "time": 45, "note": 60, "velocity": 83, "channel": 0}, {"type": "note_on", "time": 6, "note": 69, "velocity": 113, "channel": 0}, {"type": "note_off", "time": 106, "note": 69, "velocity": 113, "channel": 0}, {"type": "note_on", "time": 14, "note": 70, "velocity": 92, "channel": 0}, {"type": "note_off", "time": 56, "note": 70, "velocity": 92, "channel": 0}, {"type": "note_on", "time": 12, "note": 72, "velocity": 108, "channel": 0}, {"type": "note_off", "time": 93, "note": 72, "velocity": 108, "channel": 0}, {"type": "note_on", "time": 17, "note": 70, "velocity": 106, "channel": 0}, {"type": "note_off", "time": 111, "note": 70, "velocity": 106, "channel": 0}, {"type": "note_on", "time": 18, "note": 69, "velocity": 102, "channel": 0}, {"type": "note_off", "time": 38, "note": 69, "velocity": 102, "channel": 0}, {"type": "note_on", "time": 3, "note": 70, "velocity": 100, "channel": 0}, {"type": "note_off", "time": 81, "note": 70, "velocity": 100, "channel": 0}, {"type": "note_on", "time": 4, "note": 67, "velocity": 115, "channel": 0}, {"type": "note_off", "time": 93, "note": 67, "velocity": 115, "channel": 0}, {"type": "note_on", "time": 12, "note": 66, "velocity": 107, "channel": 0}, {"type": "note_off", "time": 91, "note": 66, "velocity": 107, "channel": 0}, {"type": "note_on", "time": 8, "note": 65, "velocity": 103, "channel": 0}, {"type": "note_off", "time": 88, "note": 65, "velocity": 103, "channel": 0}, {"type": "note_on", "time": 20, "note": 63, "velocity": 91, "channel": 0}, {"type": "note_off", "time": 61, "note": 63, "velocity": 91, "channel": 0}, {"type": "note_on", "time": 24, "note": 60, "velocity": 91, "channel": 0}, {"type": "note_off", "time": 95, "note": 60, "velocity": 91, "channel": 0}, {"type": "note_on", "time": 6, "note": 61, "velocity": 88, "channel": 0}, {"type": "note_off", "time": 71, "note": 61, "velocity": 88, "channel": 0}, {"type": "note_on", "time": 4, "note": 62, "velocity": 95, "channel": 0}, {"type": "note_off", "time": 81, "note": 62, "velocity": 95, "channel": 0}, {"type": "note_on", "time": 13, "note": 61, "velocity": 79, "channel": 0}, {"type": "note_off", "time": 64, "note": 61, "velocity": 79, "channel": 0}, {"type": "note_on", "time": 171, "note": 62, "velocity": 99, "channel": 0}, {"type": "note_off", "time": 44, "note": 62, "velocity": 99, "channel": 0}, {"type": "note_on", "time": 18, "note": 65, "velocity": 107, "channel": 0}, {"type": "note_off", "time": 92, "note": 65, "velocity": 107, "channel": 0}, {"type": "note_on", "time": 28, "note": 62, "velocity": 100, "channel": 0}, {"type": "note_off", "time": 39, "note": 62, "velocity": 100, "channel": 0}, {"type": "note_on", "time": 26, "note": 58, "velocity": 100, "channel": 0}, {"type": "note_off", "time": 107, "note": 58, "velocity": 100, "channel": 0}, {"type": "note_on", "time": 88, "note": 64, "velocity": 93, "channel": 0}, {"type": "note_off", "time": 91, "note": 64, "velocity": 93, "channel": 0}, {"type": "note_on", "time": 36, "note": 55, "velocity": 92, "channel": 0}, {"type": "note_off", "time": 73, "note": 55, "velocity": 92, "channel": 0}, {"type": "note_on", "time": 712, "note": 57, "velocity": 101, "channel": 0}, {"type": "note_off", "time": 99, "note": 57, "velocity": 101, "channel": 0}, {"type": "note_on", "time": 6, "note": 58, "velocity": 97, "channel": 0}, {"type": "note_off", "time": 46, "note": 58, "velocity": 97, "channel": 0}, {"type": "note_on", "time": 9, "note": 60, "velocity": 105, "channel": 0}, {"type": "note_off", "time": 52, "note": 60, "velocity": 105, "channel": 0}, {"type": "note_on", "time": 7, "note": 61, "velocity": 95, "channel": 0}, {"type": "note_off", "time": 37, "note": 61, "velocity": 95, "channel": 0}, {"type": "note_on", "time": 3, "note": 63, "velocity": 96, "channel": 0}, {"type": "note_off", "time": 87, "note": 63, "velocity": 96, "channel": 0}, {"type": "note_on", "time": 18, "note": 60, "velocity": 105, "channel": 0}, {"type": "note_off", "time": 78, "note": 60, "velocity": 105, "channel": 0}, {"type": "note_on", "time": 20, "note": 61, "velocity": 90, "channel": 0}, {"type": "note_off", "time": 67, "note": 61, "velocity": 90, "channel": 0}, {"type": "note_on", "time": 9, "note": 62, "velocity": 103, "channel": 0}, {"type": "note_off", "time": 83, "note": 62, "velocity": 103, "channel": 0}, {"type": "note_on", "time": 13, "note": 57, "velocity": 90, "channel": 0}, {"type": "note_off", "time": 24, "note": 57, "velocity": 90, "channel": 0}, {"type": "note_on", "time": 150, "note": 60, "velocity": 106, "channel": 0}, {"type": "note_off", "time": 89, "note": 60, "velocity": 106, "channel": 0}, {"type": "note_on", "time": 18, "note": 59, "velocity": 110, "channel": 0}, {"type": "note_off", "time": 61, "note": 59, "velocity": 110, "channel": 0}, {"type": "note_on", "time": 15, "note": 57, "velocity": 106, "channel": 0}, {"type": "note_off", "time": 66, "note": 57, "velocity": 106, "channel": 0}, {"type": "note_on", "time": 10, "note": 55, "velocity": 108, "channel": 0}, {"type": "note_off", "time": 91, "note": 55, "velocity": 108, "channel": 0}, {"type": "note_on", "time": 20, "note": 54, "velocity": 94, "channel": 0}, {"type": "note_off", "time": 76, "note": 54, "velocity": 94, "channel": 0}, {"type": "note_on", "time": 14, "note": 55, "velocity": 98, "channel": 0}, {"type": "note_off", "time": 68, "note": 55, "velocity": 98, "channel": 0}, {"type": "note_on", "time": 23, "note": 57, "velocity": 109, "channel": 0}, {"type": "note_off", "time": 96, "note": 57, "velocity": 109, "channel": 0}, {"type": "note_on", "time": 21, "note": 55, "velocity": 102, "channel": 0}, {"type": "note_off", "time": 80, "note": 55, "velocity": 102, "channel": 0}, {"type": "note_on", "time": 12, "note": 54, "velocity": 91, "channel": 0}, {"type": "note_off", "time": 77, "note": 54, "velocity": 91, "channel": 0}, {"type": "note_on", "time": 8, "note": 55, "velocity": 99, "channel": 0}, {"type": "note_off", "time": 88, "note": 55, "velocity": 99, "channel": 0}, {"type": "note_on", "time": 189, "note": 64, "velocity": 101, "channel": 0}, {"type": "note_off", "time": 92, "note": 64, "velocity": 101, "channel": 0}, {"type": "note_on", "time": 14, "note": 62, "velocity": 89, "channel": 0}, {"type": "note_off", "time": 55, "note": 62, "velocity": 89, "channel": 0}, {"type": "note_on", "time": 17, "note": 64, "velocity": 102, "channel": 0}, {"type": "note_off", "time": 111, "note": 64, "velocity": 102, "channel": 0}, {"type": "note_on", "time": 9, "note": 56, "velocity": 102, "channel": 0}, {"type": "note_off", "time": 132, "note": 56, "velocity": 102, "channel": 0}, {"type": "note_on", "time": 660, "note": 57, "velocity": 103, "channel": 0}, {"type": "note_off", "time": 70, "note": 57, "velocity": 103, "channel": 0}, {"type": "note_on", "time": 2, "note": 58, "velocity": 92, "channel": 0}, {"type": "note_off", "time": 50, "note": 58, "velocity": 92, "channel": 0}, {"type": "note_on", "time": 4, "note": 59, "velocity": 99, "channel": 0}, {"type": "note_off", "time": 86, "note": 59, "velocity": 99, "channel": 0}, {"type": "note_on", "time": 13, "note": 60, "velocity": 108, "channel": 0}, {"type": "note_off", "time": 113, "note": 60, "velocity": 108, "channel": 0}, {"type": "note_on", "time": 11, "note": 59, "velocity": 105, "channel": 0}, {"type": "note_off", "time": 71, "note": 59, "velocity": 105, "channel": 0}, {"type": "note_on", "time": 25, "note": 58, "velocity": 90, "channel": 0}, {"type": "note_off", "time": 62, "note": 58, "velocity": 90, "channel": 0}, {"type": "note_on", "time": 13, "note": 59, "velocity": 96, "channel": 0}, {"type": "note_off", "time": 74, "note": 59, "velocity": 96, "channel": 0}, {"type": "note_on", "time": 6, "note": 68, "velocity": 105, "channel": 0}, {"type": "note_off", "time": 90, "note": 68, "velocity": 105, "channel": 0}, {"type": "note_on", "time": 25, "note": 66, "velocity": 106, "channel": 0}, {"type": "note_off", "time": 74, "note": 66, "velocity": 106, "channel": 0}, {"type": "note_on", "time": 20, "note": 64, "velocity": 97, "channel": 0}, {"type": "note_off", "time": 87, "note": 64, "velocity": 97, "channel": 0}, {"type": "note_on", "time": 17, "note": 62, "velocity": 91, "channel": 0}, {"type": "note_off", "time": 68, "note": 62, "velocity": 91, "channel": 0}, {"type": "note_on", "time": 13, "note": 63, "velocity": 86, "channel": 0}, {"type": "note_off", "time": 81, "note": 63, "velocity": 86, "channel": 0}, {"type": "note_on", "time": 5, "note": 65, "velocity": 101, "channel": 0}, {"type": "note_off", "time": 85, "note": 65, "velocity": 101, "channel": 0}, {"type": "note_on", "time": 11, "note": 67, "velocity": 88, "channel": 0}, {"type": "note_off", "time": 68, "note": 67, "velocity": 88, "channel": 0}, {"type": "note_on", "time": 29, "note": 70, "velocity": 109, "channel": 0}, {"type": "note_off", "time": 89, "note": 70, "velocity": 109, "channel": 0}, {"type": "note_on", "time": 19, "note": 68, "velocity": 106, "channel": 0}, {"type": "note_off", "time": 110, "note": 68, "velocity": 106, "channel": 0}, {"type": "note_on", "time": 13, "note": 69, "velocity": 95, "channel": 0}, {"type": "note_off", "time": 42, "note": 69, "velocity": 95, "channel": 0}, {"type": "note_on", "time": 6, "note": 72, "velocity": 113, "channel": 0}, {"type": "note_off", "time": 94, "note": 72, "velocity": 113, "channel": 0}, {"type": "note_on", "time": 8, "note": 75, "velocity": 108, "channel": 0}, {"type": "note_off", "time": 69, "note": 75, "velocity": 108, "channel": 0}, {"type": "note_on", "time": 15, "note": 72, "velocity": 118, "channel": 0}, {"type": "note_off", "time": 109, "note": 72, "velocity": 118, "channel": 0}, {"type": "note_on", "time": 8, "note": 73, "velocity": 107, "channel": 0}, {"type": "note_off", "time": 52, "note": 73, "velocity": 107, "channel": 0}, {"type": "note_on", "time": 8, "note": 74, "velocity": 112, "channel": 0}, {"type": "note_off", "time": 99, "note": 74, "velocity": 112, "channel": 0}, {"type": "note_on", "time": 12, "note": 72, "velocity": 115, "channel": 0}, {"type": "note_off", "time": 92, "note": 72, "velocity": 115, "channel": 0}, {"type": "note_on", "time": 6, "note": 69, "velocity": 95, "channel": 0}, {"type": "note_off", "time": 81, "note": 69, "velocity": 95, "channel": 0}, {"type": "note_on", "time": 14, "note": 70, "velocity": 108, "channel": 0}, {"type": "note_off", "time": 71, "note": 70, "velocity": 108, "channel": 0}, {"type": "note_on", "time": 12, "note": 71, "velocity": 113, "channel": 0}, {"type": "note_off", "time": 104, "note": 71, "velocity": 113, "channel": 0}, {"type": "note_on", "time": 36, "note": 62, "velocity": 85, "channel": 0}, {"type": "note_off", "time": 39, "note": 62, "velocity": 85, "channel": 0}, {"type": "note_on", "time": 40, "note": 67, "velocity": 84, "channel": 0}, {"type": "note_off", "time": 70, "note": 67, "velocity": 84, "channel": 0}, {"type": "note_on", "time": 26, "note": 69, "velocity": 100, "channel": 0}, {"type": "note_off", "time": 78, "note": 69, "velocity": 100, "channel": 0}, {"type": "note_on", "time": 2, "note": 71, "velocity": 111, "channel": 0}, {"type": "note_off", "time": 87, "note": 71, "velocity": 111, "channel": 0}, {"type": "note_on", "time": 17, "note": 72, "velocity": 116, "channel": 0}, {"type": "note_off", "time": 81, "note": 72, "velocity": 116, "channel": 0}, {"type": "note_on", "time": 8, "note": 74, "velocity": 117, "channel": 0}, {"type": "note_off", "time": 80, "note": 74, "velocity": 117, "channel": 0}, {"type": "note_on", "time": 14, "note": 74, "velocity": 114, "channel": 0}, {"type": "note_off", "time": 58, "note": 74, "velocity": 114, "channel": 0}, {"type": "note_on", "time": 11, "note": 72, "velocity": 114, "channel": 0}, {"type": "note_off", "time": 93, "note": 72, "velocity": 114, "channel": 0}, {"type": "note_on", "time": 8, "note": 74, "velocity": 89, "channel": 0}, {"type": "note_off", "time": 34, "note": 74, "velocity": 89, "channel": 0}, {"type": "note_on", "time": 9, "note": 72, "velocity": 112, "channel": 0}, {"type": "note_off", "time": 49, "note": 72, "velocity": 112, "channel": 0}, {"type": "note_on", "time": 9, "note": 71, "velocity": 111, "channel": 0}, {"type": "note_off", "time": 90, "note": 71, "velocity": 111, "channel": 0}, {"type": "note_on", "time": 12, "note": 72, "velocity": 100, "channel": 0}, {"type": "note_off", "time": 27, "note": 72, "velocity": 100, "channel": 0}, {"type": "note_on", "time": 3, "note": 71, "velocity": 106, "channel": 0}, {"type": "note_off", "time": 25, "note": 71, "velocity": 106, "channel": 0}, {"type": "note_on", "time": 27, "note": 69, "velocity": 102, "channel": 0}, {"type": "note_off", "time": 90, "note": 69, "velocity": 102, "channel": 0}, {"type": "note_on", "time": 10, "note": 70, "velocity": 94, "channel": 0}, {"type": "note_off", "time": 41, "note": 70, "velocity": 94, "channel": 0}, {"type": "note_on", "time": 8, "note": 69, "velocity": 107, "channel": 0}, {"type": "note_off", "time": 19, "note": 69, "velocity": 107, "channel": 0}, {"type": "note_on", "time": 17, "note": 67, "velocity": 114, "channel": 0}, {"type": "note_off", "time": 97, "note": 67, "velocity": 114, "channel": 0}, {"type": "note_on", "time": 12, "note": 68, "velocity": 96, "channel": 0}, {"type": "note_off", "time": 27, "note": 68, "velocity": 96, "channel": 0}, {"type": "note_on", "time": 8, "note": 67, "velocity": 109, "channel": 0}, {"type": "note_off", "time": 34, "note": 67, "velocity": 109, "channel": 0}, {"type": "note_on", "time": 42, "note": 64, "velocity": 90, "channel": 0}, {"type": "note_off", "time": 97, "note": 64, "velocity": 90, "channel": 0}, {"type": "note_on", "time": 10, "note": 67, "velocity": 100, "channel": 0}, {"type": "note_off", "time": 51, "note": 67, "velocity": 100, "channel": 0}, {"type": "note_on", "time": 9, "note": 69, "velocity": 113, "channel": 0}, {"type": "note_off", "time": 90, "note": 69, "velocity": 113, "channel": 0}, {"type": "note_on", "time": 18, "note": 67, "velocity": 109, "channel": 0}, {"type": "note_off", "time": 60, "note": 67, "velocity": 109, "channel": 0}, {"type": "note_on", "time": 43, "note": 64, "velocity": 90, "channel": 0}, {"type": "note_off", "time": 61, "note": 64, "velocity": 90, "channel": 0}, {"type": "note_on", "time": 7, "note": 74, "velocity": 117, "channel": 0}, {"type": "note_off", "time": 151, "note": 74, "velocity": 117, "channel": 0}, {"type": "note_on", "time": 10, "note": 76, "velocity": 92, "channel": 0}, {"type": "note_off", "time": 38, "note": 76, "velocity": 92, "channel": 0}, {"type": "note_on", "time": 12, "note": 74, "velocity": 109, "channel": 0}, {"type": "note_off", "time": 50, "note": 74, "velocity": 109, "channel": 0}, {"type": "note_on", "time": 17, "note": 72, "velocity": 104, "channel": 0}, {"type": "note_off", "time": 109, "note": 72, "velocity": 104, "channel": 0}, {"type": "note_on", "time": 93, "note": 70, "velocity": 108, "channel": 0}, {"type": "note_off", "time": 83, "note": 70, "velocity": 108, "channel": 0}, {"type": "note_on", "time": 11, "note": 72, "velocity": 97, "channel": 0}, {"type": "note_off", "time": 35, "note": 72, "velocity": 97, "channel": 0}, {"type": "note_on", "time": 5, "note": 70, "velocity": 106, "channel": 0}, {"type": "note_off", "time": 42, "note": 70, "velocity": 106, "channel": 0}, {"type": "note_on", "time": 7, "note": 69, "velocity": 113, "channel": 0}, {"type": "note_off", "time": 97, "note": 69, "velocity": 113, "channel": 0}, {"type": "note_on", "time": 88, "note": 67, "velocity": 112, "channel": 0}, {"type": "note_off", "time": 99, "note": 67, "velocity": 112, "channel": 0}, {"type": "note_on", "time": 11, "note": 68, "velocity": 110, "channel": 0}, {"type": "note_off", "time": 31, "note": 68, "velocity": 110, "channel": 0}, {"type": "note_on", "time": 6, "note": 67, "velocity": 114, "channel": 0}, {"type": "note_off", "time": 67, "note": 67, "velocity": 114, "channel": 0}, {"type": "note_on", "time": 19, "note": 64, "velocity": 92, "channel": 0}, {"type": "note_off", "time": 90, "note": 64, "velocity": 92, "channel": 0}, {"type": "note_on", "time": 4, "note": 67, "velocity": 100, "channel": 0}, {"type": "note_off", "time": 57, "note": 67, "velocity": 100, "channel": 0}, {"type": "note_on", "time": 8, "note": 69, "velocity": 119, "channel": 0}, {"type": "note_off", "time": 93, "note": 69, "velocity": 119, "channel": 0}, {"type": "note_on", "time": 7, "note": 67, "velocity": 115, "channel": 0}, {"type": "note_off", "time": 84, "note": 67, "velocity": 115, "channel": 0}, {"type": "note_on", "time": 16, "note": 66, "velocity": 85, "channel": 0}, {"type": "note_off", "time": 89, "note": 66, "velocity": 85, "channel": 0}, {"type": "note_on", "time": 11, "note": 67, "velocity": 88, "channel": 0}, {"type": "note_off", "time": 44, "note": 67, "velocity": 88, "channel": 0}, {"type": "note_on", "time": 18, "note": 70, "velocity": 109, "channel": 0}, {"type": "note_off", "time": 105, "note": 70, "velocity": 109, "channel": 0}, {"type": "note_on", "time": 18, "note": 73, "velocity": 113, "channel": 0}, {"type": "note_off", "time": 107, "note": 73, "velocity": 113, "channel": 0}, {"type": "note_on", "time": 4, "note": 74, "velocity": 101, "channel": 0}, {"type": "note_off", "time": 124, "note": 74, "velocity": 101, "channel": 0}, {"type": "note_on", "time": 20, "note": 69, "velocity": 117, "channel": 0}, {"type": "note_off", "time": 105, "note": 69, "velocity": 117, "channel": 0}, {"type": "note_on", "time": 16, "note": 70, "velocity": 104, "channel": 0}, {"type": "note_off", "time": 134, "note": 70, "velocity": 104, "channel": 0}, {"type": "note_on", "time": 27, "note": 70, "velocity": 101, "channel": 0}, {"type": "note_off", "time": 81, "note": 70, "velocity": 101, "channel": 0}, {"type": "note_on", "time": 15, "note": 67, "velocity": 108, "channel": 0}, {"type": "note_off", "time": 138, "note": 67, "velocity": 108, "channel": 0}, {"type": "note_on", "time": 1388, "note": 70, "velocity": 114, "channel": 0}, {"type": "note_off", "time": 93, "note": 70, "velocity": 114, "channel": 0}, {"type": "note_on", "time": 11, "note": 72, "velocity": 112, "channel": 0}, {"type": "note_off", "time": 57, "note": 72, "velocity": 112, "channel": 0}, {"type": "note_on", "time": 14, "note": 75, "velocity": 102, "channel": 0}, {"type": "note_off", "time": 95, "note": 75, "velocity": 102, "channel": 0}, {"type": "note_on", "time": 21, "note": 72, "velocity": 115, "channel": 0}, {"type": "note_off", "time": 82, "note": 72, "velocity": 115, "channel": 0}, {"type": "note_on", "time": 6, "note": 73, "velocity": 108, "channel": 0}, {"type": "note_off", "time": 85, "note": 73, "velocity": 108, "channel": 0}, {"type": "note_on", "time": 22, "note": 70, "velocity": 110, "channel": 0}, {"type": "note_off", "time": 60, "note": 70, "velocity": 110, "channel": 0}, {"type": "note_on", "time": 12, "note": 67, "velocity": 100, "channel": 0}, {"type": "note_off", "time": 96, "note": 67, "velocity": 100, "channel": 0}, {"type": "note_on", "time": 20, "note": 64, "velocity": 85, "channel": 0}, {"type": "note_off", "time": 47, "note": 64, "velocity": 85, "channel": 0}, {"type": "note_on", "time": 36, "note": 68, "velocity": 110, "channel": 0}, {"type": "note_off", "time": 90, "note": 68, "velocity": 110, "channel": 0}, {"type": "note_on", "time": 3, "note": 69, "velocity": 115, "channel": 0}, {"type": "note_off", "time": 77, "note": 69, "velocity": 115, "channel": 0}, {"type": "note_on", "time": 12, "note": 70, "velocity": 111, "channel": 0}, {"type": "note_off", "time": 84, "note": 70, "velocity": 111, "channel": 0}, {"type": "note_on", "time": 10, "note": 71, "velocity": 111, "channel": 0}, {"type": "note_off", "time": 79, "note": 71, "velocity": 111, "channel": 0}, {"type": "note_on", "time": 6, "note": 72, "velocity": 105, "channel": 0}, {"type": "note_off", "time": 92, "note": 72, "velocity": 105, "channel": 0}, {"type": "note_on", "time": 15, "note": 69, "velocity": 109, "channel": 0}, {"type": "note_off", "time": 74, "note": 69, "velocity": 109, "channel": 0}, {"type": "note_on", "time": 12, "note": 66, "velocity": 108, "channel": 0}, {"type": "note_off", "time": 105, "note": 66, "velocity": 108, "channel": 0}, {"type": "note_on", "time": 20, "note": 62, "velocity": 88, "channel": 0}, {"type": "note_off", "time": 47, "note": 62, "velocity": 88, "channel": 0}, {"type": "note_on", "time": 19, "note": 65, "velocity": 102, "channel": 0}, {"type": "note_off", "time": 125, "note": 65, "velocity": 102, "channel": 0}, {"type": "note_on", "time": 9, "note": 67, "velocity": 83, "channel": 0}, {"type": "note_off", "time": 44, "note": 67, "velocity": 83, "channel": 0}, {"type": "note_on", "time": 8, "note": 69, "velocity": 112, "channel": 0}, {"type": "note_off", "time": 106, "note": 69, "velocity": 112, "channel": 0}, {"type": "note_on", "time": 23, "note": 65, "velocity": 100, "channel": 0}, {"type": "note_off", "time": 75, "note": 65, "velocity": 100, "channel": 0}, {"type": "note_on", "time": 11, "note": 67, "velocity": 94, "channel": 0}, {"type": "note_off", "time": 75, "note": 67, "velocity": 94, "channel": 0}, {"type": "note_on", "time": 31, "note": 65, "velocity": 100, "channel": 0}, {"type": "note_off", "time": 75, "note": 65, "velocity": 100, "channel": 0}, {"type": "note_on", "time": 12, "note": 64, "velocity": 83, "channel": 0}, {"type": "note_off", "time": 79, "note": 64, "velocity": 83, "channel": 0}, {"type": "note_on", "time": 3, "note": 65, "velocity": 94, "channel": 0}, {"type": "note_off", "time": 66, "note": 65, "velocity": 94, "channel": 0}, {"type": "note_on", "time": 10, "note": 68, "velocity": 109, "channel": 0}, {"type": "note_off", "time": 115, "note": 68, "velocity": 109, "channel": 0}, {"type": "note_on", "time": 12, "note": 69, "velocity": 96, "channel": 0}, {"type": "note_off", "time": 46, "note": 69, "velocity": 96, "channel": 0}, {"type": "note_on", "time": 15, "note": 71, "velocity": 115, "channel": 0}, {"type": "note_off", "time": 103, "note": 71, "velocity": 115, "channel": 0}, {"type": "note_on", "time": 18, "note": 68, "velocity": 105, "channel": 0}, {"type": "note_off", "time": 81, "note": 68, "velocity": 105, "channel": 0}, {"type": "note_on", "time": 66, "note": 71, "velocity": 98, "channel": 0}, {"type": "note_off", "time": 33, "note": 71, "velocity": 98, "channel": 0}, {"type": "note_on", "time": 9, "note": 68, "velocity": 107, "channel": 0}, {"type": "note_off", "time": 70, "note": 68, "velocity": 107, "channel": 0}, {"type": "note_on", "time": 9, "note": 72, "velocity": 116, "channel": 0}, {"type": "note_off", "time": 115, "note": 72, "velocity": 116, "channel": 0}, {"type": "note_on", "time": 11, "note": 67, "velocity": 93, "channel": 0}, {"type": "note_off", "time": 47, "note": 67, "velocity": 93, "channel": 0}, {"type": "note_on", "time": 19, "note": 76, "velocity": 108, "channel": 0}, {"type": "note_off", "time": 97, "note": 76, "velocity": 108, "channel": 0}, {"type": "note_on", "time": 20, "note": 72, "velocity": 108, "channel": 0}, {"type": "note_off", "time": 134, "note": 72, "velocity": 108, "channel": 0}, {"type": "note_on", "time": 2, "note": 74, "velocity": 111, "channel": 0}, {"type": "note_off", "time": 65, "note": 74, "velocity": 111, "channel": 0}, {"type": "note_on", "time": 8, "note": 72, "velocity": 109, "channel": 0}, {"type": "note_off", "time": 33, "note": 72, "velocity": 109, "channel": 0}, {"type": "note_on", "time": 17, "note": 69, "velocity": 105, "channel": 0}, {"type": "note_off", "time": 115, "note": 69, "velocity": 105, "channel": 0}, {"type": "note_on", "time": 10, "note": 71, "velocity": 91, "channel": 0}, {"type": "note_off", "time": 44, "note": 71, "velocity": 91, "channel": 0}, {"type": "note_on", "time": 6, "note": 72, "velocity": 105, "channel": 0}, {"type": "note_off", "time": 103, "note": 72, "velocity": 105, "channel": 0}, {"type": "note_on", "time": 20, "note": 69, "velocity": 107, "channel": 0}, {"type": "note_off", "time": 148, "note": 69, "velocity": 107, "channel": 0}, {"type": "note_on", "time": 11, "note": 70, "velocity": 94, "channel": 0}, {"type": "note_off", "time": 31, "note": 70, "velocity": 94, "channel": 0}, {"type": "note_on", "time": 10, "note": 69, "velocity": 110, "channel": 0}, {"type": "note_off", "time": 47, "note": 69, "velocity": 110, "channel": 0}, {"type": "note_on", "time": 14, "note": 66, "velocity": 106, "channel": 0}, {"type": "note_off", "time": 115, "note": 66, "velocity": 106, "channel": 0}, {"type": "note_on", "time": 7, "note": 67, "velocity": 90, "channel": 0}, {"type": "note_off", "time": 55, "note": 67, "velocity": 90, "channel": 0}, {"type": "note_on", "time": 5, "note": 69, "velocity": 110, "channel": 0}, {"type": "note_off", "time": 154, "note": 69, "velocity": 110, "channel": 0}, {"type": "note_on", "time": 161, "note": 66, "velocity": 104, "channel": 0}, {"type": "note_off", "time": 69, "note": 66, "velocity": 104, "channel": 0}, {"type": "note_on", "time": 0, "note": 67, "velocity": 104, "channel": 0}, {"type": "note_off", "time": 104, "note": 67, "velocity": 104, "channel": 0}, {"type": "note_on", "time": 26, "note": 69, "velocity": 110, "channel": 0}, {"type": "note_off", "time": 58, "note": 69, "velocity": 110, "channel": 0}, {"type": "note_on", "time": 13, "note": 71, "velocity": 104, "channel": 0}, {"type": "note_off", "time": 98, "note": 71, "velocity": 104, "channel": 0}, {"type": "note_on", "time": 12, "note": 74, "velocity": 116, "channel": 0}, {"type": "note_off", "time": 71, "note": 74, "velocity": 116, "channel": 0}, {"type": "note_on", "time": 14, "note": 72, "velocity": 105, "channel": 0}, {"type": "note_off", "time": 93, "note": 72, "velocity": 105, "channel": 0}, {"type": "note_on", "time": 14, "note": 74, "velocity": 95, "channel": 0}, {"type": "note_off", "time": 46, "note": 74, "velocity": 95, "channel": 0}, {"type": "note_on", "time": 11, "note": 76, "velocity": 109, "channel": 0}, {"type": "note_off", "time": 107, "note": 76, "velocity": 109, "channel": 0}, {"type": "note_on", "time": 11, "note": 78, "velocity": 107, "channel": 0}, {"type": "note_off", "time": 60, "note": 78, "velocity": 107, "channel": 0}, {"type": "note_on", "time": 13, "note": 79, "velocity": 107, "channel": 0}, {"type": "note_off", "time": 104, "note": 79, "velocity": 107, "channel": 0}, {"type": "note_on", "time": 11, "note": 76, "velocity": 104, "channel": 0}, {"type": "note_off", "time": 69, "note": 76, "velocity": 104, "channel": 0}, {"type": "note_on", "time": 7, "note": 72, "velocity": 99, "channel": 0}, {"type": "note_off", "time": 106, "note": 72, "velocity": 99, "channel": 0}, {"type": "note_on", "time": 20, "note": 69, "velocity": 98, "channel": 0}, {"type": "note_off", "time": 56, "note": 69, "velocity": 98, "channel": 0}, {"type": "note_on", "time": 19, "note": 75, "velocity": 105, "channel": 0}, {"type": "note_off", "time": 103, "note": 75, "velocity": 105, "channel": 0}, {"type": "note_on", "time": 5, "note": 74, "velocity": 87, "channel": 0}, {"type": "note_off", "time": 13, "note": 74, "velocity": 87, "channel": 0}, {"type": "note_on", "time": 9, "note": 73, "velocity": 92, "channel": 0}, {"type": "note_off", "time": 39, "note": 73, "velocity": 92, "channel": 0}, {"type": "note_on", "time": 8, "note": 74, "velocity": 107, "channel": 0}, {"type": "note_off", "time": 103, "note": 74, "velocity": 107, "channel": 0}, {"type": "note_on", "time": 16, "note": 76, "velocity": 106, "channel": 0}, {"type": "note_off", "time": 60, "note": 76, "velocity": 106, "channel": 0}, {"type": "note_on", "time": 8, "note": 78, "velocity": 107, "channel": 0}, {"type": "note_off", "time": 118, "note": 78, "velocity": 107, "channel": 0}, {"type": "note_on", "time": 6, "note": 77, "velocity": 102, "channel": 0}, {"type": "note_off", "time": 13, "note": 77, "velocity": 102, "channel": 0}, {"type": "note_on", "time": 6, "note": 76, "velocity": 103, "channel": 0}, {"type": "note_off", "time": 39, "note": 76, "velocity": 103, "channel": 0}, {"type": "note_on", "time": 2, "note": 78, "velocity": 106, "channel": 0}, {"type": "note_off", "time": 107, "note": 78, "velocity": 106, "channel": 0}, {"type": "note_on", "time": 22, "note": 76, "velocity": 84, "channel": 0}, {"type": "note_off", "time": 272, "note": 76, "velocity": 84, "channel": 0}, {"type": "note_on", "time": 970, "note": 74, "velocity": 120, "channel": 0}, {"type": "note_off", "time": 119, "note": 74, "velocity": 120, "channel": 0}, {"type": "note_on", "time": 13, "note": 67, "velocity": 95, "channel": 0}, {"type": "note_off", "time": 54, "note": 67, "velocity": 95, "channel": 0}, {"type": "note_on", "time": 9, "note": 74, "velocity": 122, "channel": 0}, {"type": "note_off", "time": 138, "note": 74, "velocity": 122, "channel": 0}, {"type": "note_on", "time": 53, "note": 74, "velocity": 119, "channel": 0}, {"type": "note_off", "time": 120, "note": 74, "velocity": 119, "channel": 0}, {"type": "note_on", "time": 10, "note": 70, "velocity": 106, "channel": 0}, {"type": "note_off", "time": 69, "note": 70, "velocity": 106, "channel": 0}, {"type": "note_on", "time": 13, "note": 67, "velocity": 114, "channel": 0}, {"type": "note_off", "time": 101, "note": 67, "velocity": 114, "channel": 0}, {"type": "note_on", "time": 17, "note": 64, "velocity": 89, "channel": 0}, {"type": "note_off", "time": 50, "note": 64, "velocity": 89, "channel": 0}, {"type": "note_on", "time": 10, "note": 69, "velocity": 114, "channel": 0}, {"type": "note_off", "time": 92, "note": 69, "velocity": 114, "channel": 0}, {"type": "note_on", "time": 4, "note": 72, "velocity": 111, "channel": 0}, {"type": "note_off", "time": 70, "note": 72, "velocity": 111, "channel": 0}, {"type": "note_on", "time": 19, "note": 69, "velocity": 114, "channel": 0}, {"type": "note_off", "time": 116, "note": 69, "velocity": 114, "channel": 0}, {"type": "note_on", "time": 8, "note": 70, "velocity": 109, "channel": 0}, {"type": "note_off", "time": 51, "note": 70, "velocity": 109, "channel": 0}, {"type": "note_on", "time": 8, "note": 71, "velocity": 108, "channel": 0}, {"type": "note_off", "time": 105, "note": 71, "velocity": 108, "channel": 0}, {"type": "note_on", "time": 4, "note": 67, "velocity": 97, "channel": 0}, {"type": "note_off", "time": 128, "note": 67, "velocity": 97, "channel": 0}, {"type": "note_on", "time": 137, "note": 67, "velocity": 116, "channel": 0}, {"type": "note_off", "time": 135, "note": 67, "velocity": 116, "channel": 0}, {"type": "note_on", "time": 5, "note": 69, "velocity": 95, "channel": 0}, {"type": "note_off", "time": 56, "note": 69, "velocity": 95, "channel": 0}, {"type": "note_on", "time": 7, "note": 70, "velocity": 113, "channel": 0}, {"type": "note_off", "time": 87, "note": 70, "velocity": 113, "channel": 0}, {"type": "note_on", "time": 11, "note": 67, "velocity": 106, "channel": 0}, {"type": "note_off", "time": 223, "note": 67, "velocity": 106, "channel": 0}, {"type": "note_on", "time": 555, "note": 64, "velocity": 104, "channel": 0}, {"type": "note_off", "time": 58, "note": 64, "velocity": 104, "channel": 0}, {"type": "note_on", "time": 11, "note": 63, "velocity": 97, "channel": 0}, {"type": "note_off", "time": 18, "note": 63, "velocity": 97, "channel": 0}, {"type": "note_on", "time": 20, "note": 61, "velocity": 95, "channel": 0}, {"type": "note_off", "time": 95, "note": 61, "velocity": 95, "channel": 0}, {"type": "note_on", "time": 23, "note": 62, "velocity": 90, "channel": 0}, {"type": "note_off", "time": 57, "note": 62, "velocity": 90, "channel": 0}, {"type": "note_on", "time": 11, "note": 63, "velocity": 94, "channel": 0}, {"type": "note_off", "time": 95, "note": 63, "velocity": 94, "channel": 0}, {"type": "note_on", "time": 12, "note": 62, "velocity": 100, "channel": 0}, {"type": "note_off", "time": 52, "note": 62, "velocity": 100, "channel": 0}, {"type": "note_on", "time": 21, "note": 61, "velocity": 93, "channel": 0}, {"type": "note_off", "time": 65, "note": 61, "velocity": 93, "channel": 0}, {"type": "note_on", "time": 13, "note": 62, "velocity": 90, "channel": 0}, {"type": "note_off", "time": 70, "note": 62, "velocity": 90, "channel": 0}, {"type": "note_on", "time": 10, "note": 67, "velocity": 111, "channel": 0}, {"type": "note_off", "time": 117, "note": 67, "velocity": 111, "channel": 0}, {"type": "note_on", "time": 11, "note": 69, "velocity": 95, "channel": 0}, {"type": "note_off", "time": 50, "note": 69, "velocity": 95, "channel": 0}, {"type": "note_on", "time": 14, "note": 70, "velocity": 114, "channel": 0}, {"type": "note_off", "time": 111, "note": 70, "velocity": 114, "channel": 0}, {"type": "note_on", "time": 16, "note": 67, "velocity": 95, "channel": 0}, {"type": "note_off", "time": 57, "note": 67, "velocity": 95, "channel": 0}, {"type": "note_on", "time": 8, "note": 69, "velocity": 115, "channel": 0}, {"type": "note_off", "time": 100, "note": 69, "velocity": 115, "channel": 0}, {"type": "note_on", "time": 5, "note": 68, "velocity": 110, "channel": 0}, {"type": "note_off", "time": 85, "note": 68, "velocity": 110, "channel": 0}, {"type": "note_on", "time": 4, "note": 67, "velocity": 106, "channel": 0}, {"type": "note_off", "time": 101, "note": 67, "velocity": 106, "channel": 0}, {"type": "note_on", "time": 8, "note": 69, "velocity": 115, "channel": 0}, {"type": "note_off", "time": 73, "note": 69, "velocity": 115, "channel": 0}, {"type": "note_on", "time": 17, "note": 70, "velocity": 117, "channel": 0}, {"type": "note_off", "time": 97, "note": 70, "velocity": 117, "channel": 0}, {"type": "note_on", "time": 9, "note": 72, "velocity": 108, "channel": 0}, {"type": "note_off", "time": 84, "note": 72, "velocity": 108, "channel": 0}, {"type": "note_on", "time": 5, "note": 73, "velocity": 113, "channel": 0}, {"type": "note_off", "time": 105, "note": 73, "velocity": 113, "channel": 0}, {"type": "note_on", "time": 11, "note": 70, "velocity": 98, "channel": 0}, {"type": "note_off", "time": 58, "note": 70, "velocity": 98, "channel": 0}, {"type": "note_on", "time": 7, "note": 72, "velocity": 115, "channel": 0}, {"type": "note_off", "time": 97, "note": 72, "velocity": 115, "channel": 0}, {"type": "note_on", "time": 5, "note": 71, "velocity": 116, "channel": 0}, {"type": "note_off", "time": 90, "note": 71, "velocity": 116, "channel": 0}, {"type": "note_on", "time": 9, "note": 70, "velocity": 114, "channel": 0}, {"type": "note_off", "time": 82, "note": 70, "velocity": 114, "channel": 0}, {"type": "note_on", "time": 19, "note": 67, "velocity": 114, "channel": 0}, {"type": "note_off", "time": 82, "note": 67, "velocity": 114, "channel": 0}, {"type": "note_on", "time": 26, "note": 63, "velocity": 82, "channel": 0}, {"type": "note_off", "time": 88, "note": 63, "velocity": 82, "channel": 0}, {"type": "note_on", "time": 14, "note": 60, "velocity": 93, "channel": 0}, {"type": "note_off", "time": 44, "note": 60, "velocity": 93, "channel": 0}, {"type": "note_on", "time": 34, "note": 65, "velocity": 106, "channel": 0}, {"type": "note_off", "time": 104, "note": 65, "velocity": 106, "channel": 0}, {"type": "note_on", "time": 8, "note": 67, "velocity": 93, "channel": 0}, {"type": "note_off", "time": 46, "note": 67, "velocity": 93, "channel": 0}, {"type": "note_on", "time": 9, "note": 69, "velocity": 116, "channel": 0}, {"type": "note_off", "time": 92, "note": 69, "velocity": 116, "channel": 0}, {"type": "note_on", "time": 13, "note": 67, "velocity": 112, "channel": 0}, {"type": "note_off", "time": 69, "note": 67, "velocity": 112, "channel": 0}, {"type": "note_on", "time": 13, "note": 65, "velocity": 105, "channel": 0}, {"type": "note_off", "time": 104, "note": 65, "velocity": 105, "channel": 0}, {"type": "note_on", "time": 16, "note": 63, "velocity": 92, "channel": 0}, {"type": "note_off", "time": 63, "note": 63, "velocity": 92, "channel": 0}, {"type": "note_on", "time": 15, "note": 60, "velocity": 99, "channel": 0}, {"type": "note_off", "time": 105, "note": 60, "velocity": 99, "channel": 0}, {"type": "note_on", "time": 23, "note": 61, "velocity": 96, "channel": 0}, {"type": "note_off", "time": 57, "note": 61, "velocity": 96, "channel": 0}, {"type": "note_on", "time": 5, "note": 62, "velocity": 108, "channel": 0}, {"type": "note_off", "time": 101, "note": 62, "velocity": 108, "channel": 0}, {"type": "note_on", "time": 21, "note": 60, "velocity": 107, "channel": 0}, {"type": "note_off", "time": 81, "note": 60, "velocity": 107, "channel": 0}, {"type": "note_on", "time": 15, "note": 57, "velocity": 90, "channel": 0}, {"type": "note_off", "time": 78, "note": 57, "velocity": 90, "channel": 0}, {"type": "note_on", "time": 9, "note": 58, "velocity": 108, "channel": 0}, {"type": "note_off", "time": 68, "note": 58, "velocity": 108, "channel": 0}, {"type": "note_on", "time": 11, "note": 59, "velocity": 112, "channel": 0}, {"type": "note_off", "time": 104, "note": 59, "velocity": 112, "channel": 0}, {"type": "note_on", "time": 23, "note": 57, "velocity": 105, "channel": 0}, {"type": "note_off", "time": 65, "note": 57, "velocity": 105, "channel": 0}, {"type": "note_on", "time": 129, "note": 55, "velocity": 99, "channel": 0}, {"type": "note_off", "time": 61, "note": 55, "velocity": 99, "channel": 0}, {"type": "note_on", "time": 3, "note": 56, "velocity": 116, "channel": 0}, {"type": "note_off", "time": 110, "note": 56, "velocity": 116, "channel": 0}, {"type": "note_on", "time": 20, "note": 53, "velocity": 101, "channel": 0}, {"type": "note_off", "time": 100, "note": 53, "velocity": 101, "channel": 0}, {"type": "note_on", "time": 14, "note": 48, "velocity": 83, "channel": 0}, {"type": "note_off", "time": 110, "note": 48, "velocity": 83, "channel": 0}, {"type": "note_on", "time": 431, "note": 63, "velocity": 110, "channel": 0}, {"type": "note_off", "time": 46, "note": 63, "velocity": 110, "channel": 0}, {"type": "note_on", "time": 9, "note": 62, "velocity": 100, "channel": 0}, {"type": "note_off", "time": 26, "note": 62, "velocity": 100, "channel": 0}, {"type": "note_on", "time": 40, "note": 55, "velocity": 102, "channel": 0}, {"type": "note_off", "time": 54, "note": 55, "velocity": 102, "channel": 0}, {"type": "note_on", "time": 142, "note": 62, "velocity": 93, "channel": 0}, {"type": "note_off", "time": 37, "note": 62, "velocity": 93, "channel": 0}, {"type": "note_on", "time": 2, "note": 65, "velocity": 112, "channel": 0}, {"type": "note_off", "time": 97, "note": 65, "velocity": 112, "channel": 0}, {"type": "note_on", "time": 8, "note": 64, "velocity": 100, "channel": 0}, {"type": "note_off", "time": 71, "note": 64, "velocity": 100, "channel": 0}, {"type": "note_on", "time": 16, "note": 62, "velocity": 104, "channel": 0}, {"type": "note_off", "time": 97, "note": 62, "velocity": 104, "channel": 0}, {"type": "note_on", "time": 24, "note": 60, "velocity": 103, "channel": 0}, {"type": "note_off", "time": 119, "note": 60, "velocity": 103, "channel": 0}, {"type": "note_on", "time": 517, "note": 62, "velocity": 106, "channel": 0}, {"type": "note_off", "time": 98, "note": 62, "velocity": 106, "channel": 0}, {"type": "note_on", "time": 14, "note": 61, "velocity": 105, "channel": 0}, {"type": "note_off", "time": 81, "note": 61, "velocity": 105, "channel": 0}, {"type": "note_on", "time": 17, "note": 64, "velocity": 88, "channel": 0}, {"type": "note_off", "time": 98, "note": 64, "velocity": 88, "channel": 0}, {"type": "note_on", "time": 6, "note": 67, "velocity": 118, "channel": 0}, {"type": "note_off", "time": 49, "note": 67, "velocity": 118, "channel": 0}, {"type": "note_on", "time": 22, "note": 71, "velocity": 117, "channel": 0}, {"type": "note_off", "time": 100, "note": 71, "velocity": 117, "channel": 0}, {"type": "note_on", "time": 10, "note": 69, "velocity": 117, "channel": 0}, {"type": "note_off", "time": 86, "note": 69, "velocity": 117, "channel": 0}, {"type": "note_on", "time": 18, "note": 67, "velocity": 88, "channel": 0}, {"type": "note_off", "time": 143, "note": 67, "velocity": 88, "channel": 0}, {"type": "note_on", "time": 22, "note": 69, "velocity": 120, "channel": 0}, {"type": "note_off", "time": 96, "note": 69, "velocity": 120, "channel": 0}, {"type": "note_on", "time": 15, "note": 67, "velocity": 123, "channel": 0}, {"type": "note_off", "time": 94, "note": 67, "velocity": 123, "channel": 0}, {"type": "note_on", "time": 22, "note": 64, "velocity": 98, "channel": 0}, {"type": "note_off", "time": 72, "note": 64, "velocity": 98, "channel": 0}, {"type": "note_on", "time": 13, "note": 63, "velocity": 97, "channel": 0}, {"type": "note_off", "time": 70, "note": 63, "velocity": 97, "channel": 0}, {"type": "note_on", "time": 6, "note": 62, "velocity": 86, "channel": 0}, {"type": "note_off", "time": 74, "note": 62, "velocity": 86, "channel": 0}, {"type": "note_on", "time": 10, "note": 67, "velocity": 94, "channel": 0}, {"type": "note_off", "time": 81, "note": 67, "velocity": 94, "channel": 0}, {"type": "note_on", "time": 20, "note": 66, "velocity": 113, "channel": 0}, {"type": "note_off", "time": 98, "note": 66, "velocity": 113, "channel": 0}, {"type": "note_on", "time": 7, "note": 67, "velocity": 105, "channel": 0}, {"type": "note_off", "time": 55, "note": 67, "velocity": 105, "channel": 0}, {"type": "note_on", "time": 5, "note": 69, "velocity": 126, "channel": 0}, {"type": "note_off", "time": 106, "note": 69, "velocity": 126, "channel": 0}, {"type": "note_on", "time": 11, "note": 67, "velocity": 113, "channel": 0}, {"type": "note_off", "time": 211, "note": 67, "velocity": 113, "channel": 0}, {"type": "note_on", "time": 8, "note": 69, "velocity": 112, "channel": 0}, {"type": "note_off", "time": 25, "note": 69, "velocity": 112, "channel": 0}, {"type": "note_on", "time": 11, "note": 70, "velocity": 109, "channel": 0}, {"type": "note_off", "time": 146, "note": 70, "velocity": 109, "channel": 0}, {"type": "note_on", "time": 4, "note": 74, "velocity": 106, "channel": 0}, {"type": "note_off", "time": 288, "note": 74, "velocity": 106, "channel": 0}, {"type": "note_on", "time": 43, "note": 74, "velocity": 102, "channel": 0}, {"type": "note_off", "time": 89, "note": 74, "velocity": 102, "channel": 0}, {"type": "note_on", "time": 36, "note": 70, "velocity": 109, "channel": 0}, {"type": "note_off", "time": 115, "note": 70, "velocity": 109, "channel": 0}, {"type": "note_on", "time": 32, "note": 65, "velocity": 106, "channel": 0}, {"type": "note_off", "time": 103, "note": 65, "velocity": 106, "channel": 0}, {"type": "note_on", "time": 34, "note": 63, "velocity": 90, "channel": 0}, {"type": "note_off", "time": 284, "note": 63, "velocity": 90, "channel": 0}, {"type": "note_on", "time": 381, "note": 74, "velocity": 115, "channel": 0}, {"type": "note_off", "time": 105, "note": 74, "velocity": 115, "channel": 0}, {"type": "note_on", "time": 8, "note": 69, "velocity": 106, "channel": 0}, {"type": "note_off", "time": 62, "note": 69, "velocity": 106, "channel": 0}, {"type": "note_on", "time": 4, "note": 72, "velocity": 106, "channel": 0}, {"type": "note_off", "time": 107, "note": 72, "velocity": 106, "channel": 0}, {"type": "note_on", "time": 7, "note": 70, "velocity": 111, "channel": 0}, {"type": "note_off", "time": 85, "note": 70, "velocity": 111, "channel": 0}, {"type": "note_on", "time": 15, "note": 69, "velocity": 102, "channel": 0}, {"type": "note_off", "time": 76, "note": 69, "velocity": 102, "channel": 0}, {"type": "note_on", "time": 10, "note": 70, "velocity": 102, "channel": 0}, {"type": "note_off", "time": 79, "note": 70, "velocity": 102, "channel": 0}, {"type": "note_on", "time": 6, "note": 67, "velocity": 114, "channel": 0}, {"type": "note_off", "time": 107, "note": 67, "velocity": 114, "channel": 0}, {"type": "note_on", "time": 12, "note": 69, "velocity": 104, "channel": 0}, {"type": "note_off", "time": 78, "note": 69, "velocity": 104, "channel": 0}, {"type": "note_on", "time": 9, "note": 70, "velocity": 109, "channel": 0}, {"type": "note_off", "time": 85, "note": 70, "velocity": 109, "channel": 0}, {"type": "note_on", "time": 8, "note": 72, "velocity": 95, "channel": 0}, {"type": "note_off", "time": 69, "note": 72, "velocity": 95, "channel": 0}, {"type": "note_on", "time": 9, "note": 74, "velocity": 109, "channel": 0}, {"type": "note_off", "time": 108, "note": 74, "velocity": 109, "channel": 0}, {"type": "note_on", "time": 15, "note": 75, "velocity": 98, "channel": 0}, {"type": "note_off", "time": 58, "note": 75, "velocity": 98, "channel": 0}, {"type": "note_on", "time": 18, "note": 77, "velocity": 108, "channel": 0}, {"type": "note_off", "time": 108, "note": 77, "velocity": 108, "channel": 0}, {"type": "note_on", "time": 41, "note": 77, "velocity": 106, "channel": 0}, {"type": "note_off", "time": 148, "note": 77, "velocity": 106, "channel": 0}, {"type": "note_on", "time": 17, "note": 79, "velocity": 113, "channel": 0}, {"type": "note_off", "time": 165, "note": 79, "velocity": 113, "channel": 0}, {"type": "note_on", "time": 16, "note": 81, "velocity": 105, "channel": 0}, {"type": "note_off", "time": 19, "note": 81, "velocity": 105, "channel": 0}, {"type": "note_on", "time": 2, "note": 82, "velocity": 118, "channel": 0}, {"type": "note_off", "time": 163, "note": 82, "velocity": 118, "channel": 0}, {"type": "note_on", "time": 10, "note": 77, "velocity": 102, "channel": 0}, {"type": "note_off", "time": 206, "note": 77, "velocity": 102, "channel": 0}, {"type": "note_on", "time": 933, "note": 79, "velocity": 115, "channel": 0}, {"type": "note_off", "time": 40, "note": 79, "velocity": 115, "channel": 0}, {"type": "note_on", "time": 7, "note": 78, "velocity": 114, "channel": 0}, {"type": "note_off", "time": 51, "note": 78, "velocity": 114, "channel": 0}, {"type": "note_on", "time": 13, "note": 77, "velocity": 117, "channel": 0}, {"type": "note_off", "time": 76, "note": 77, "velocity": 117, "channel": 0}, {"type": "note_on", "time": 29, "note": 74, "velocity": 103, "channel": 0}, {"type": "note_off", "time": 53, "note": 74, "velocity": 103, "channel": 0}, {"type": "note_on", "time": 10, "note": 75, "velocity": 120, "channel": 0}, {"type": "note_off", "time": 98, "note": 75, "velocity": 120, "channel": 0}, {"type": "note_on", "time": 17, "note": 74, "velocity": 106, "channel": 0}, {"type": "note_off", "time": 88, "note": 74, "velocity": 106, "channel": 0}, {"type": "note_on", "time": 4, "note": 72, "velocity": 114, "channel": 0}, {"type": "note_off", "time": 81, "note": 72, "velocity": 114, "channel": 0}, {"type": "note_on", "time": 9, "note": 73, "velocity": 114, "channel": 0}, {"type": "note_off", "time": 70, "note": 73, "velocity": 114, "channel": 0}, {"type": "note_on", "time": 10, "note": 74, "velocity": 115, "channel": 0}, {"type": "note_off", "time": 106, "note": 74, "velocity": 115, "channel": 0}, {"type": "note_on", "time": 4, "note": 70, "velocity": 111, "channel": 0}, {"type": "note_off", "time": 77, "note": 70, "velocity": 111, "channel": 0}, {"type": "note_on", "time": 18, "note": 65, "velocity": 107, "channel": 0}, {"type": "note_off", "time": 123, "note": 65, "velocity": 107, "channel": 0}, {"type": "note_on", "time": 64, "note": 69, "velocity": 119, "channel": 0}, {"type": "note_off", "time": 96, "note": 69, "velocity": 119, "channel": 0}, {"type": "note_on", "time": 6, "note": 72, "velocity": 116, "channel": 0}, {"type": "note_off", "time": 72, "note": 72, "velocity": 116, "channel": 0}, {"type": "note_on", "time": 15, "note": 71, "velocity": 116, "channel": 0}, {"type": "note_off", "time": 81, "note": 71, "velocity": 116, "channel": 0}, {"type": "note_on", "time": 29, "note": 69, "velocity": 112, "channel": 0}, {"type": "note_off", "time": 69, "note": 69, "velocity": 112, "channel": 0}, {"type": "note_on", "time": 8, "note": 70, "velocity": 112, "channel": 0}, {"type": "note_off", "time": 95, "note": 70, "velocity": 112, "channel": 0}, {"type": "note_on", "time": 12, "note": 65, "velocity": 108, "channel": 0}, {"type": "note_off", "time": 70, "note": 65, "velocity": 108, "channel": 0}, {"type": "note_on", "time": 41, "note": 62, "velocity": 90, "channel": 0}, {"type": "note_off", "time": 83, "note": 62, "velocity": 90, "channel": 0}, {"type": "note_on", "time": 19, "note": 58, "velocity": 97, "channel": 0}, {"type": "note_off", "time": 60, "note": 58, "velocity": 97, "channel": 0}, {"type": "note_on", "time": 7, "note": 67, "velocity": 120, "channel": 0}, {"type": "note_off", "time": 113, "note": 67, "velocity": 120, "channel": 0}, {"type": "note_on", "time": 11, "note": 69, "velocity": 101, "channel": 0}, {"type": "note_off", "time": 49, "note": 69, "velocity": 101, "channel": 0}, {"type": "note_on", "time": 8, "note": 71, "velocity": 115, "channel": 0}, {"type": "note_off", "time": 88, "note": 71, "velocity": 115, "channel": 0}, {"type": "note_on", "time": 12, "note": 72, "velocity": 111, "channel": 0}, {"type": "note_off", "time": 69, "note": 72, "velocity": 111, "channel": 0}, {"type": "note_on", "time": 6, "note": 74, "velocity": 116, "channel": 0}, {"type": "note_off", "time": 99, "note": 74, "velocity": 116, "channel": 0}, {"type": "note_on", "time": 9, "note": 72, "velocity": 112, "channel": 0}, {"type": "note_off", "time": 88, "note": 72, "velocity": 112, "channel": 0}, {"type": "note_on", "time": 16, "note": 69, "velocity": 99, "channel": 0}, {"type": "note_off", "time": 71, "note": 69, "velocity": 99, "channel": 0}, {"type": "note_on", "time": 17, "note": 70, "velocity": 109, "channel": 0}, {"type": "note_off", "time": 83, "note": 70, "velocity": 109, "channel": 0}, {"type": "note_on", "time": 5, "note": 71, "velocity": 115, "channel": 0}, {"type": "note_off", "time": 74, "note": 71, "velocity": 115, "channel": 0}, {"type": "note_on", "time": 19, "note": 67, "velocity": 118, "channel": 0}, {"type": "note_off", "time": 88, "note": 67, "velocity": 118, "channel": 0}, {"type": "note_on", "time": 20, "note": 64, "velocity": 92, "channel": 0}, {"type": "note_off", "time": 104, "note": 64, "velocity": 92, "channel": 0}, {"type": "note_on", "time": 11, "note": 60, "velocity": 92, "channel": 0}, {"type": "note_off", "time": 44, "note": 60, "velocity": 92, "channel": 0}, {"type": "note_on", "time": 20, "note": 70, "velocity": 113, "channel": 0}, {"type": "note_off", "time": 96, "note": 70, "velocity": 113, "channel": 0}, {"type": "note_on", "time": 25, "note": 66, "velocity": 97, "channel": 0}, {"type": "note_off", "time": 49, "note": 66, "velocity": 97, "channel": 0}, {"type": "note_on", "time": 9, "note": 69, "velocity": 114, "channel": 0}, {"type": "note_off", "time": 88, "note": 69, "velocity": 114, "channel": 0}, {"type": "note_on", "time": 16, "note": 67, "velocity": 117, "channel": 0}, {"type": "note_off", "time": 98, "note": 67, "velocity": 117, "channel": 0}, {"type": "note_on", "time": 9, "note": 66, "velocity": 111, "channel": 0}, {"type": "note_off", "time": 94, "note": 66, "velocity": 111, "channel": 0}, {"type": "note_on", "time": 8, "note": 67, "velocity": 107, "channel": 0}, {"type": "note_off", "time": 64, "note": 67, "velocity": 107, "channel": 0}, {"type": "note_on", "time": 27, "note": 64, "velocity": 98, "channel": 0}, {"type": "note_off", "time": 86, "note": 64, "velocity": 98, "channel": 0}, {"type": "note_on", "time": 5, "note": 63, "velocity": 93, "channel": 0}, {"type": "note_off", "time": 59, "note": 63, "velocity": 93, "channel": 0}, {"type": "note_on", "time": 15, "note": 62, "velocity": 101, "channel": 0}, {"type": "note_off", "time": 96, "note": 62, "velocity": 101, "channel": 0}, {"type": "note_on", "time": 14, "note": 60, "velocity": 111, "channel": 0}, {"type": "note_off", "time": 92, "note": 60, "velocity": 111, "channel": 0}, {"type": "note_on", "time": 13, "note": 57, "velocity": 93, "channel": 0}, {"type": "note_off", "time": 83, "note": 57, "velocity": 93, "channel": 0}, {"type": "note_on", "time": 7, "note": 58, "velocity": 108, "channel": 0}, {"type": "note_off", "time": 76, "note": 58, "velocity": 108, "channel": 0}, {"type": "note_on", "time": 9, "note": 59, "velocity": 113, "channel": 0}, {"type": "note_off", "time": 152, "note": 59, "velocity": 113, "channel": 0}, {"type": "note_on", "time": 159, "note": 59, "velocity": 104, "channel": 0}, {"type": "note_off", "time": 46, "note": 59, "velocity": 104, "channel": 0}, {"type": "note_on", "time": 30, "note": 60, "velocity": 113, "channel": 0}, {"type": "note_off", "time": 87, "note": 60, "velocity": 113, "channel": 0}, {"type": "note_on", "time": 24, "note": 59, "velocity": 112, "channel": 0}, {"type": "note_off", "time": 62, "note": 59, "velocity": 112, "channel": 0}, {"type": "note_on", "time": 6, "note": 57, "velocity": 108, "channel": 0}, {"type": "note_off", "time": 98, "note": 57, "velocity": 108, "channel": 0}, {"type": "note_on", "time": 41, "note": 55, "velocity": 104, "channel": 0}, {"type": "note_off", "time": 48, "note": 55, "velocity": 104, "channel": 0}, {"type": "note_on", "time": 8, "note": 59, "velocity": 110, "channel": 0}, {"type": "note_off", "time": 101, "note": 59, "velocity": 110, "channel": 0}, {"type": "note_on", "time": 18, "note": 57, "velocity": 107, "channel": 0}, {"type": "note_off", "time": 49, "note": 57, "velocity": 107, "channel": 0}, {"type": "note_on", "time": 9, "note": 59, "velocity": 111, "channel": 0}, {"type": "note_off", "time": 110, "note": 59, "velocity": 111, "channel": 0}, {"type": "note_on", "time": 15, "note": 57, "velocity": 106, "channel": 0}, {"type": "note_off", "time": 175, "note": 57, "velocity": 106, "channel": 0}, {"type": "note_on", "time": 965, "note": 64, "velocity": 96, "channel": 0}, {"type": "note_off", "time": 43, "note": 64, "velocity": 96, "channel": 0}, {"type": "note_on", "time": 13, "note": 66, "velocity": 106, "channel": 0}, {"type": "note_off", "time": 47, "note": 66, "velocity": 106, "channel": 0}, {"type": "note_on", "time": 9, "note": 70, "velocity": 116, "channel": 0}, {"type": "note_off", "time": 89, "note": 70, "velocity": 116, "channel": 0}, {"type": "note_on", "time": 17, "note": 66, "velocity": 110, "channel": 0}, {"type": "note_off", "time": 98, "note": 66, "velocity": 110, "channel": 0}, {"type": "note_on", "time": 15, "note": 63, "velocity": 89, "channel": 0}, {"type": "note_off", "time": 48, "note": 63, "velocity": 89, "channel": 0}, {"type": "note_on", "time": 22, "note": 60, "velocity": 99, "channel": 0}, {"type": "note_off", "time": 57, "note": 60, "velocity": 99, "channel": 0}, {"type": "note_on", "time": 14, "note": 69, "velocity": 117, "channel": 0}, {"type": "note_off", "time": 102, "note": 69, "velocity": 117, "channel": 0}, {"type": "note_on", "time": 16, "note": 65, "velocity": 109, "channel": 0}, {"type": "note_off", "time": 69, "note": 65, "velocity": 109, "channel": 0}, {"type": "note_on", "time": 16, "note": 61, "velocity": 96, "channel": 0}, {"type": "note_off", "time": 70, "note": 61, "velocity": 96, "channel": 0}, {"type": "note_on", "time": 13, "note": 58, "velocity": 95, "channel": 0}, {"type": "note_off", "time": 52, "note": 58, "velocity": 95, "channel": 0}, {"type": "note_on", "time": 33, "note": 70, "velocity": 113, "channel": 0}, {"type": "note_off", "time": 98, "note": 70, "velocity": 113, "channel": 0}, {"type": "note_on", "time": 10, "note": 66, "velocity": 100, "channel": 0}, {"type": "note_off", "time": 57, "note": 66, "velocity": 100, "channel": 0}, {"type": "note_on", "time": 6, "note": 70, "velocity": 114, "channel": 0}, {"type": "note_off", "time": 98, "note": 70, "velocity": 114, "channel": 0}, {"type": "note_on", "time": 17, "note": 66, "velocity": 101, "channel": 0}, {"type": "note_off", "time": 65, "note": 66, "velocity": 101, "channel": 0}, {"type": "note_on", "time": 14, "note": 69, "velocity": 111, "channel": 0}, {"type": "note_off", "time": 97, "note": 69, "velocity": 111, "channel": 0}, {"type": "note_on", "time": 14, "note": 66, "velocity": 115, "channel": 0}, {"type": "note_off", "time": 97, "note": 66, "velocity": 115, "channel": 0}, {"type": "note_on", "time": 157, "note": 67, "velocity": 112, "channel": 0}, {"type": "note_off", "time": 130, "note": 67, "velocity": 112, "channel": 0}, {"type": "note_on", "time": 10, "note": 71, "velocity": 110, "channel": 0}, {"type": "note_off", "time": 120, "note": 71, "velocity": 110, "channel": 0}, {"type": "note_on", "time": 848, "note": 67, "velocity": 104, "channel": 0}, {"type": "note_off", "time": 74, "note": 67, "velocity": 104, "channel": 0}, {"type": "note_on", "time": 5, "note": 72, "velocity": 125, "channel": 0}, {"type": "note_off", "time": 84, "note": 72, "velocity": 125, "channel": 0}, {"type": "note_on", "time": 5, "note": 71, "velocity": 118, "channel": 0}, {"type": "note_off", "time": 12, "note": 71, "velocity": 118, "channel": 0}, {"type": "note_on", "time": 8, "note": 72, "velocity": 121, "channel": 0}, {"type": "note_off", "time": 69, "note": 72, "velocity": 121, "channel": 0}, {"type": "note_on", "time": 10, "note": 73, "velocity": 117, "channel": 0}, {"type": "note_off", "time": 102, "note": 73, "velocity": 117, "channel": 0}, {"type": "note_on", "time": 69, "note": 74, "velocity": 116, "channel": 0}, {"type": "note_off", "time": 165, "note": 74, "velocity": 116, "channel": 0}, {"type": "note_on", "time": 15, "note": 76, "velocity": 112, "channel": 0}, {"type": "note_off", "time": 132, "note": 76, "velocity": 112, "channel": 0}, {"type": "note_on", "time": 104, "note": 78, "velocity": 91, "channel": 0}, {"type": "note_off", "time": 447, "note": 78, "velocity": 91, "channel": 0}, {"type": "note_on", "time": 216, "note": 76, "velocity": 114, "channel": 0}, {"type": "note_off", "time": 63, "note": 76, "velocity": 114, "channel": 0}, {"type": "note_on", "time": 9, "note": 74, "velocity": 116, "channel": 0}, {"type": "note_off", "time": 97, "note": 74, "velocity": 116, "channel": 0}, {"type": "note_on", "time": 19, "note": 66, "velocity": 109, "channel": 0}, {"type": "note_off", "time": 72, "note": 66, "velocity": 109, "channel": 0}, {"type": "note_on", "time": 11, "note": 67, "velocity": 107, "channel": 0}, {"type": "note_off", "time": 97, "note": 67, "velocity": 107, "channel": 0}, {"type": "note_on", "time": 92, "note": 76, "velocity": 102, "channel": 0}, {"type": "note_off", "time": 162, "note": 76, "velocity": 102, "channel": 0}, {"type": "note_on", "time": 18, "note": 74, "velocity": 104, "channel": 0}, {"type": "note_off", "time": 131, "note": 74, "velocity": 104, "channel": 0}, {"type": "note_on", "time": 10, "note": 72, "velocity": 108, "channel": 0}, {"type": "note_off", "time": 124, "note": 72, "velocity": 108, "channel": 0}, {"type": "note_on", "time": 455, "note": 61, "velocity": 101, "channel": 0}, {"type": "note_off", "time": 76, "note": 61, "velocity": 101, "channel": 0}, {"type": "note_on", "time": 18, "note": 62, "velocity": 91, "channel": 0}, {"type": "note_off", "time": 72, "note": 62, "velocity": 91, "channel": 0}, {"type": "note_on", "time": 116, "note": 72, "velocity": 114, "channel": 0}, {"type": "note_off", "time": 93, "note": 72, "velocity": 114, "channel": 0}, {"type": "note_on", "time": 20, "note": 70, "velocity": 101, "channel": 0}, {"type": "note_on", "time": 64, "note": 72, "velocity": 118, "channel": 0}, {"type": "note_off", "time": 0, "note": 70, "velocity": 101, "channel": 0}, {"type": "note_off", "time": 83, "note": 72, "velocity": 118, "channel": 0}, {"type": "note_on", "time": 15, "note": 70, "velocity": 115, "channel": 0}, {"type": "note_off", "time": 92, "note": 70, "velocity": 115, "channel": 0}, {"type": "note_on", "time": 7, "note": 69, "velocity": 111, "channel": 0}, {"type": "note_off", "time": 87, "note": 69, "velocity": 111, "channel": 0}, {"type": "note_on", "time": 1, "note": 70, "velocity": 105, "channel": 0}, {"type": "note_off", "time": 67, "note": 70, "velocity": 105, "channel": 0}, {"type": "note_on", "time": 12, "note": 69, "velocity": 126, "channel": 0}, {"type": "note_off", "time": 82, "note": 69, "velocity": 126, "channel": 0}, {"type": "note_on", "time": 18, "note": 68, "velocity": 121, "channel": 0}, {"type": "note_off", "time": 88, "note": 68, "velocity": 121, "channel": 0}, {"type": "note_on", "time": 13, "note": 67, "velocity": 118, "channel": 0}, {"type": "note_off", "time": 102, "note": 67, "velocity": 118, "channel": 0}, {"type": "note_on", "time": 6, "note": 69, "velocity": 125, "channel": 0}, {"type": "note_off", "time": 72, "note": 69, "velocity": 125, "channel": 0}, {"type": "note_on", "time": 7, "note": 70, "velocity": 109, "channel": 0}, {"type": "note_off", "time": 103, "note": 70, "velocity": 109, "channel": 0}, {"type": "note_on", "time": 17, "note": 72, "velocity": 97, "channel": 0}, {"type": "note_off", "time": 52, "note": 72, "velocity": 97, "channel": 0}, {"type": "note_on", "time": 6, "note": 74, "velocity": 117, "channel": 0}, {"type": "note_off", "time": 92, "note": 74, "velocity": 117, "channel": 0}, {"type": "note_on", "time": 13, "note": 79, "velocity": 121, "channel": 0}, {"type": "note_off", "time": 97, "note": 79, "velocity": 121, "channel": 0}, {"type": "note_on", "time": 14, "note": 74, "velocity": 106, "channel": 0}, {"type": "note_off", "time": 74, "note": 74, "velocity": 106, "channel": 0}, {"type": "note_on", "time": 11, "note": 72, "velocity": 103, "channel": 0}, {"type": "note_off", "time": 75, "note": 72, "velocity": 103, "channel": 0}, {"type": "note_on", "time": 21, "note": 70, "velocity": 112, "channel": 0}, {"type": "note_off", "time": 86, "note": 70, "velocity": 112, "channel": 0}, {"type": "note_on", "time": 13, "note": 74, "velocity": 112, "channel": 0}, {"type": "note_off", "time": 79, "note": 74, "velocity": 112, "channel": 0}, {"type": "note_on", "time": 6, "note": 70, "velocity": 110, "channel": 0}, {"type": "note_off", "time": 92, "note": 70, "velocity": 110, "channel": 0}, {"type": "note_on", "time": 9, "note": 69, "velocity": 127, "channel": 0}, {"type": "note_off", "time": 75, "note": 69, "velocity": 127, "channel": 0}, {"type": "note_on", "time": 11, "note": 67, "velocity": 125, "channel": 0}, {"type": "note_off", "time": 99, "note": 67, "velocity": 125, "channel": 0}, {"type": "note_on", "time": 6, "note": 70, "velocity": 115, "channel": 0}, {"type": "note_off", "time": 77, "note": 70, "velocity": 115, "channel": 0}, {"type": "note_on", "time": 6, "note": 67, "velocity": 121, "channel": 0}, {"type": "note_off", "time": 106, "note": 67, "velocity": 121, "channel": 0}, {"type": "note_on", "time": 7, "note": 65, "velocity": 107, "channel": 0}, {"type": "note_off", "time": 91, "note": 65, "velocity": 107, "channel": 0}, {"type": "note_on", "time": 20, "note": 63, "velocity": 90, "channel": 0}, {"type": "note_off", "time": 68, "note": 63, "velocity": 90, "channel": 0}, {"type": "note_on", "time": 13, "note": 67, "velocity": 118, "channel": 0}, {"type": "note_off", "time": 97, "note": 67, "velocity": 118, "channel": 0}, {"type": "note_on", "time": 18, "note": 63, "velocity": 94, "channel": 0}, {"type": "note_off", "time": 64, "note": 63, "velocity": 94, "channel": 0}, {"type": "note_on", "time": 14, "note": 62, "velocity": 99, "channel": 0}, {"type": "note_off", "time": 69, "note": 62, "velocity": 99, "channel": 0}, {"type": "note_on", "time": 20, "note": 61, "velocity": 92, "channel": 0}, {"type": "note_off", "time": 97, "note": 61, "velocity": 92, "channel": 0}, {"type": "note_on", "time": 13, "note": 62, "velocity": 93, "channel": 0}, {"type": "note_off", "time": 53, "note": 62, "velocity": 93, "channel": 0}, {"type": "note_on", "time": 14, "note": 63, "velocity": 102, "channel": 0}, {"type": "note_off", "time": 87, "note": 63, "velocity": 102, "channel": 0}, {"type": "note_on", "time": 20, "note": 62, "velocity": 96, "channel": 0}, {"type": "note_off", "time": 72, "note": 62, "velocity": 96, "channel": 0}, {"type": "note_on", "time": 32, "note": 61, "velocity": 91, "channel": 0}, {"type": "note_off", "time": 97, "note": 61, "velocity": 91, "channel": 0}, {"type": "note_on", "time": 6, "note": 62, "velocity": 100, "channel": 0}, {"type": "note_off", "time": 53, "note": 62, "velocity": 100, "channel": 0}, {"type": "note_on", "time": 12, "note": 65, "velocity": 104, "channel": 0}, {"type": "note_off", "time": 106, "note": 65, "velocity": 104, "channel": 0}, {"type": "note_on", "time": 7, "note": 67, "velocity": 97, "channel": 0}, {"type": "note_off", "time": 67, "note": 67, "velocity": 97, "channel": 0}, {"type": "note_on", "time": 6, "note": 69, "velocity": 117, "channel": 0}, {"type": "note_off", "time": 105, "note": 69, "velocity": 117, "channel": 0}, {"type": "note_on", "time": 4, "note": 72, "velocity": 107, "channel": 0}, {"type": "note_off", "time": 61, "note": 72, "velocity": 107, "channel": 0}, {"type": "note_on", "time": 9, "note": 69, "velocity": 117, "channel": 0}, {"type": "note_off", "time": 92, "note": 69, "velocity": 117, "channel": 0}, {"type": "note_on", "time": 7, "note": 67, "velocity": 119, "channel": 0}, {"type": "note_off", "time": 88, "note": 67, "velocity": 119, "channel": 0}, {"type": "note_on", "time": 20, "note": 65, "velocity": 103, "channel": 0}, {"type": "note_off", "time": 90, "note": 65, "velocity": 103, "channel": 0}, {"type": "note_on", "time": 9, "note": 69, "velocity": 109, "channel": 0}, {"type": "note_off", "time": 80, "note": 69, "velocity": 109, "channel": 0}, {"type": "note_on", "time": 7, "note": 65, "velocity": 107, "channel": 0}, {"type": "note_off", "time": 100, "note": 65, "velocity": 107, "channel": 0}, {"type": "note_on", "time": 12, "note": 63, "velocity": 94, "channel": 0}, {"type": "note_off", "time": 70, "note": 63, "velocity": 94, "channel": 0}, {"type": "note_on", "time": 15, "note": 61, "velocity": 85, "channel": 0}, {"type": "note_off", "time": 94, "note": 61, "velocity": 85, "channel": 0}, {"type": "note_on", "time": 6, "note": 62, "velocity": 90, "channel": 0}, {"type": "note_off", "time": 72, "note": 62, "velocity": 90, "channel": 0}, {"type": "note_on", "time": 30, "note": 63, "velocity": 92, "channel": 0}, {"type": "note_off", "time": 95, "note": 63, "velocity": 92, "channel": 0}, {"type": "note_on", "time": 10, "note": 64, "velocity": 94, "channel": 0}, {"type": "note_off", "time": 202, "note": 64, "velocity": 94, "channel": 0}, {"type": "note_on", "time": 18, "note": 64, "velocity": 89, "channel": 0}, {"type": "note_off", "time": 49, "note": 64, "velocity": 89, "channel": 0}, {"type": "note_on", "time": 18, "note": 59, "velocity": 99, "channel": 0}, {"type": "note_off", "time": 117, "note": 59, "velocity": 99, "channel": 0}, {"type": "note_on", "time": 556, "note": 62, "velocity": 95, "channel": 0}, {"type": "note_off", "time": 33, "note": 62, "velocity": 95, "channel": 0}, {"type": "note_on", "time": 7, "note": 60, "velocity": 104, "channel": 0}, {"type": "note_off", "time": 37, "note": 60, "velocity": 104, "channel": 0}, {"type": "note_on", "time": 15, "note": 59, "velocity": 100, "channel": 0}, {"type": "note_off", "time": 52, "note": 59, "velocity": 100, "channel": 0}, {"type": "note_on", "time": 5, "note": 60, "velocity": 104, "channel": 0}, {"type": "note_off", "time": 52, "note": 60, "velocity": 104, "channel": 0}, {"type": "note_on", "time": 8, "note": 63, "velocity": 96, "channel": 0}, {"type": "note_off", "time": 25, "note": 63, "velocity": 96, "channel": 0}, {"type": "note_on", "time": 14, "note": 67, "velocity": 117, "channel": 0}, {"type": "note_off", "time": 39, "note": 67, "velocity": 117, "channel": 0}, {"type": "note_on", "time": 12, "note": 71, "velocity": 122, "channel": 0}, {"type": "note_off", "time": 78, "note": 71, "velocity": 122, "channel": 0}, {"type": "note_on", "time": 12, "note": 69, "velocity": 115, "channel": 0}, {"type": "note_off", "time": 75, "note": 69, "velocity": 115, "channel": 0}, {"type": "note_on", "time": 13, "note": 68, "velocity": 114, "channel": 0}, {"type": "note_off", "time": 49, "note": 68, "velocity": 114, "channel": 0}, {"type": "note_on", "time": 8, "note": 67, "velocity": 108, "channel": 0}, {"type": "note_off", "time": 25, "note": 67, "velocity": 108, "channel": 0}, {"type": "note_on", "time": 2, "note": 69, "velocity": 109, "channel": 0}, {"type": "note_off", "time": 22, "note": 69, "velocity": 109, "channel": 0}, {"type": "note_on", "time": 3, "note": 72, "velocity": 106, "channel": 0}, {"type": "note_off", "time": 25, "note": 72, "velocity": 106, "channel": 0}, {"type": "note_on", "time": 7, "note": 75, "velocity": 113, "channel": 0}, {"type": "note_off", "time": 46, "note": 75, "velocity": 113, "channel": 0}, {"type": "note_on", "time": 5, "note": 72, "velocity": 118, "channel": 0}, {"type": "note_off", "time": 76, "note": 72, "velocity": 118, "channel": 0}, {"type": "note_on", "time": 6, "note": 73, "velocity": 108, "channel": 0}, {"type": "note_off", "time": 52, "note": 73, "velocity": 108, "channel": 0}, {"type": "note_on", "time": 2, "note": 74, "velocity": 113, "channel": 0}, {"type": "note_off", "time": 58, "note": 74, "velocity": 113, "channel": 0}, {"type": "note_on", "time": 13, "note": 69, "velocity": 118, "channel": 0}, {"type": "note_off", "time": 69, "note": 69, "velocity": 118, "channel": 0}, {"type": "note_on", "time": 11, "note": 70, "velocity": 102, "channel": 0}, {"type": "note_off", "time": 30, "note": 70, "velocity": 102, "channel": 0}, {"type": "note_on", "time": 15, "note": 71, "velocity": 101, "channel": 0}, {"type": "note_off", "time": 50, "note": 71, "velocity": 101, "channel": 0}, {"type": "note_on", "time": 23, "note": 67, "velocity": 109, "channel": 0}, {"type": "note_off", "time": 105, "note": 67, "velocity": 109, "channel": 0}, {"type": "note_on", "time": 711, "note": 71, "velocity": 112, "channel": 0}, {"type": "note_off", "time": 84, "note": 71, "velocity": 112, "channel": 0}, {"type": "note_on", "time": 3, "note": 72, "velocity": 109, "channel": 0}, {"type": "note_off", "time": 97, "note": 72, "velocity": 109, "channel": 0}, {"type": "note_on", "time": 13, "note": 73, "velocity": 109, "channel": 0}, {"type": "note_off", "time": 76, "note": 73, "velocity": 109, "channel": 0}, {"type": "note_on", "time": 17, "note": 74, "velocity": 106, "channel": 0}, {"type": "note_off", "time": 100, "note": 74, "velocity": 106, "channel": 0}, {"type": "note_on", "time": 24, "note": 71, "velocity": 93, "channel": 0}, {"type": "note_off", "time": 61, "note": 71, "velocity": 93, "channel": 0}, {"type": "note_on", "time": 3, "note": 72, "velocity": 109, "channel": 0}, {"type": "note_off", "time": 98, "note": 72, "velocity": 109, "channel": 0}, {"type": "note_on", "time": 11, "note": 73, "velocity": 104, "channel": 0}, {"type": "note_off", "time": 97, "note": 73, "velocity": 104, "channel": 0}, {"type": "note_on", "time": 23, "note": 74, "velocity": 103, "channel": 0}, {"type": "note_off", "time": 74, "note": 74, "velocity": 103, "channel": 0}, {"type": "note_on", "time": 19, "note": 74, "velocity": 108, "channel": 0}, {"type": "note_off", "time": 77, "note": 74, "velocity": 108, "channel": 0}, {"type": "note_on", "time": 7, "note": 75, "velocity": 107, "channel": 0}, {"type": "note_off", "time": 82, "note": 75, "velocity": 107, "channel": 0}, {"type": "note_on", "time": 33, "note": 75, "velocity": 106, "channel": 0}, {"type": "note_off", "time": 77, "note": 75, "velocity": 106, "channel": 0}, {"type": "note_on", "time": 8, "note": 76, "velocity": 110, "channel": 0}, {"type": "note_off", "time": 89, "note": 76, "velocity": 110, "channel": 0}, {"type": "note_on", "time": 22, "note": 76, "velocity": 111, "channel": 0}, {"type": "note_off", "time": 65, "note": 76, "velocity": 111, "channel": 0}, {"type": "note_on", "time": 8, "note": 72, "velocity": 106, "channel": 0}, {"type": "note_off", "time": 101, "note": 72, "velocity": 106, "channel": 0}, {"type": "note_on", "time": 20, "note": 72, "velocity": 108, "channel": 0}, {"type": "note_off", "time": 59, "note": 72, "velocity": 108, "channel": 0}, {"type": "note_on", "time": 17, "note": 69, "velocity": 106, "channel": 0}, {"type": "note_off", "time": 78, "note": 69, "velocity": 106, "channel": 0}, {"type": "note_on", "time": 18, "note": 69, "velocity": 106, "channel": 0}, {"type": "note_off", "time": 83, "note": 69, "velocity": 106, "channel": 0}, {"type": "note_on", "time": 10, "note": 70, "velocity": 103, "channel": 0}, {"type": "note_off", "time": 114, "note": 70, "velocity": 103, "channel": 0}, {"type": "note_on", "time": 95, "note": 71, "velocity": 108, "channel": 0}, {"type": "note_off", "time": 107, "note": 71, "velocity": 108, "channel": 0}, {"type": "note_on", "time": 268, "note": 66, "velocity": 114, "channel": 0}, {"type": "note_off", "time": 119, "note": 66, "velocity": 114, "channel": 0}, {"type": "note_on", "time": 23, "note": 64, "velocity": 91, "channel": 0}, {"type": "note_off", "time": 41, "note": 64, "velocity": 91, "channel": 0}, {"type": "note_on", "time": 15, "note": 66, "velocity": 110, "channel": 0}, {"type": "note_off", "time": 107, "note": 66, "velocity": 110, "channel": 0}, {"type": "note_on", "time": 22, "note": 64, "velocity": 92, "channel": 0}, {"type": "note_off", "time": 237, "note": 64, "velocity": 92, "channel": 0}, {"type": "note_on", "time": 9, "note": 69, "velocity": 110, "channel": 0}, {"type": "note_off", "time": 152, "note": 69, "velocity": 110, "channel": 0}, {"type": "note_on", "time": 588, "note": 67, "velocity": 112, "channel": 0}, {"type": "note_off", "time": 76, "note": 67, "velocity": 112, "channel": 0}, {"type": "note_on", "time": 6, "note": 66, "velocity": 94, "channel": 0}, {"type": "note_off", "time": 101, "note": 66, "velocity": 94, "channel": 0}, {"type": "note_on", "time": 10, "note": 67, "velocity": 107, "channel": 0}, {"type": "note_off", "time": 66, "note": 67, "velocity": 107, "channel": 0}, {"type": "note_on", "time": 4, "note": 69, "velocity": 115, "channel": 0}, {"type": "note_off", "time": 91, "note": 69, "velocity": 115, "channel": 0}, {"type": "note_on", "time": 14, "note": 67, "velocity": 113, "channel": 0}, {"type": "note_off", "time": 70, "note": 67, "velocity": 113, "channel": 0}, {"type": "note_on", "time": 14, "note": 66, "velocity": 92, "channel": 0}, {"type": "note_off", "time": 90, "note": 66, "velocity": 92, "channel": 0}, {"type": "note_on", "time": 20, "note": 67, "velocity": 101, "channel": 0}, {"type": "note_off", "time": 51, "note": 67, "velocity": 101, "channel": 0}, {"type": "note_on", "time": 16, "note": 70, "velocity": 114, "channel": 0}, {"type": "note_off", "time": 120, "note": 70, "velocity": 114, "channel": 0}, {"type": "note_on", "time": 8, "note": 74, "velocity": 89, "channel": 0}, {"type": "note_off", "time": 47, "note": 74, "velocity": 89, "channel": 0}, {"type": "note_on", "time": 8, "note": 76, "velocity": 109, "channel": 0}, {"type": "note_off", "time": 100, "note": 76, "velocity": 109, "channel": 0}, {"type": "note_on", "time": 18, "note": 79, "velocity": 113, "channel": 0}, {"type": "note_off", "time": 161, "note": 79, "velocity": 113, "channel": 0}, {"type": "note_on", "time": 49, "note": 76, "velocity": 114, "channel": 0}, {"type": "note_off", "time": 56, "note": 76, "velocity": 114, "channel": 0}, {"type": "note_on", "time": 12, "note": 79, "velocity": 9, "channel": 0}, {"type": "note_off", "time": 200, "note": 79, "velocity": 9, "channel": 0}, {"type": "note_on", "time": 18, "note": 73, "velocity": 89, "channel": 0}, {"type": "note_off", "time": 33, "note": 73, "velocity": 89, "channel": 0}, {"type": "note_on", "time": 24, "note": 76, "velocity": 96, "channel": 0}, {"type": "note_off", "time": 86, "note": 76, "velocity": 96, "channel": 0}, {"type": "note_on", "time": 1179, "note": 74, "velocity": 115, "channel": 0}, {"type": "note_off", "time": 94, "note": 74, "velocity": 115, "channel": 0}, {"type": "note_on", "time": 9, "note": 73, "velocity": 106, "channel": 0}, {"type": "note_off", "time": 73, "note": 73, "velocity": 106, "channel": 0}, {"type": "note_on", "time": 8, "note": 72, "velocity": 108, "channel": 0}, {"type": "note_off", "time": 75, "note": 72, "velocity": 108, "channel": 0}, {"type": "note_on", "time": 25, "note": 70, "velocity": 108, "channel": 0}, {"type": "note_off", "time": 70, "note": 70, "velocity": 108, "channel": 0}, {"type": "note_on", "time": 12, "note": 67, "velocity": 108, "channel": 0}, {"type": "note_off", "time": 91, "note": 67, "velocity": 108, "channel": 0}, {"type": "note_on", "time": 25, "note": 64, "velocity": 88, "channel": 0}, {"type": "note_off", "time": 32, "note": 64, "velocity": 88, "channel": 0}, {"type": "note_on", "time": 47, "note": 69, "velocity": 109, "channel": 0}, {"type": "note_off", "time": 98, "note": 69, "velocity": 109, "channel": 0}, {"type": "note_on", "time": 10, "note": 72, "velocity": 110, "channel": 0}, {"type": "note_off", "time": 70, "note": 72, "velocity": 110, "channel": 0}, {"type": "note_on", "time": 17, "note": 71, "velocity": 113, "channel": 0}, {"type": "note_off", "time": 93, "note": 71, "velocity": 113, "channel": 0}, {"type": "note_on", "time": 16, "note": 69, "velocity": 109, "channel": 0}, {"type": "note_off", "time": 81, "note": 69, "velocity": 109, "channel": 0}, {"type": "note_on", "time": 8, "note": 70, "velocity": 108, "channel": 0}, {"type": "note_off", "time": 73, "note": 70, "velocity": 108, "channel": 0}, {"type": "note_on", "time": 29, "note": 67, "velocity": 108, "channel": 0}, {"type": "note_off", "time": 75, "note": 67, "velocity": 108, "channel": 0}, {"type": "note_on", "time": 13, "note": 63, "velocity": 86, "channel": 0}, {"type": "note_off", "time": 76, "note": 63, "velocity": 86, "channel": 0}, {"type": "note_on", "time": 21, "note": 60, "velocity": 100, "channel": 0}, {"type": "note_off", "time": 88, "note": 60, "velocity": 100, "channel": 0}, {"type": "note_on", "time": 11, "note": 68, "velocity": 105, "channel": 0}, {"type": "note_off", "time": 101, "note": 68, "velocity": 105, "channel": 0}, {"type": "note_on", "time": 4, "note": 69, "velocity": 109, "channel": 0}, {"type": "note_off", "time": 77, "note": 69, "velocity": 109, "channel": 0}, {"type": "note_on", "time": 5, "note": 70, "velocity": 106, "channel": 0}, {"type": "note_off", "time": 93, "note": 70, "velocity": 106, "channel": 0}, {"type": "note_on", "time": 4, "note": 71, "velocity": 110, "channel": 0}, {"type": "note_off", "time": 76, "note": 71, "velocity": 110, "channel": 0}, {"type": "note_on", "time": 10, "note": 72, "velocity": 91, "channel": 0}, {"type": "note_off", "time": 248, "note": 72, "velocity": 91, "channel": 0}, {"type": "note_on", "time": 131, "note": 65, "velocity": 100, "channel": 0}, {"type": "note_off", "time": 123, "note": 65, "velocity": 100, "channel": 0}, {"type": "note_on", "time": 14, "note": 62, "velocity": 88, "channel": 0}, {"type": "note_off", "time": 30, "note": 62, "velocity": 88, "channel": 0}, {"type": "note_on", "time": 20, "note": 65, "velocity": 96, "channel": 0}, {"type": "note_off", "time": 200, "note": 65, "velocity": 96, "channel": 0}, {"type": "note_on", "time": 16, "note": 69, "velocity": 105, "channel": 0}, {"type": "note_off", "time": 107, "note": 69, "velocity": 105, "channel": 0}, {"type": "note_on", "time": 12, "note": 65, "velocity": 103, "channel": 0}, {"type": "note_off", "time": 72, "note": 65, "velocity": 103, "channel": 0}, {"type": "note_on", "time": 21, "note": 62, "velocity": 88, "channel": 0}, {"type": "note_off", "time": 59, "note": 62, "velocity": 88, "channel": 0}, {"type": "note_on", "time": 22, "note": 57, "velocity": 101, "channel": 0}, {"type": "note_off", "time": 81, "note": 57, "velocity": 101, "channel": 0}, {"type": "note_on", "time": 23, "note": 59, "velocity": 84, "channel": 0}, {"type": "note_off", "time": 88, "note": 59, "velocity": 84, "channel": 0}, {"type": "note_on", "time": 15, "note": 56, "velocity": 101, "channel": 0}, {"type": "note_off", "time": 68, "note": 56, "velocity": 101, "channel": 0}, {"type": "note_on", "time": 145, "note": 62, "velocity": 88, "channel": 0}, {"type": "note_off", "time": 28, "note": 62, "velocity": 88, "channel": 0}, {"type": "note_on", "time": 19, "note": 67, "velocity": 118, "channel": 0}, {"type": "note_off", "time": 117, "note": 67, "velocity": 118, "channel": 0}, {"type": "note_on", "time": 10, "note": 64, "velocity": 93, "channel": 0}, {"type": "note_off", "time": 86, "note": 64, "velocity": 93, "channel": 0}, {"type": "note_on", "time": 12, "note": 59, "velocity": 102, "channel": 0}, {"type": "note_off", "time": 89, "note": 59, "velocity": 102, "channel": 0}, {"type": "note_on", "time": 15, "note": 55, "velocity": 99, "channel": 0}, {"type": "note_off", "time": 46, "note": 55, "velocity": 99, "channel": 0}, {"type": "note_on", "time": 22, "note": 62, "velocity": 100, "channel": 0}, {"type": "note_off", "time": 94, "note": 62, "velocity": 100, "channel": 0}, {"type": "note_on", "time": 13, "note": 60, "velocity": 91, "channel": 0}, {"type": "note_off", "time": 176, "note": 60, "velocity": 91, "channel": 0}, {"type": "note_on", "time": 78, "note": 64, "velocity": 95, "channel": 0}, {"type": "note_off", "time": 41, "note": 64, "velocity": 95, "channel": 0}, {"type": "note_on", "time": 12, "note": 67, "velocity": 106, "channel": 0}, {"type": "note_off", "time": 65, "note": 67, "velocity": 106, "channel": 0}, {"type": "note_on", "time": 8, "note": 71, "velocity": 106, "channel": 0}, {"type": "note_off", "time": 60, "note": 71, "velocity": 106, "channel": 0}, {"type": "note_on", "time": 12, "note": 69, "velocity": 103, "channel": 0}, {"type": "note_off", "time": 162, "note": 69, "velocity": 103, "channel": 0}, {"type": "note_on", "time": 546, "note": 65, "velocity": 103, "channel": 0}, {"type": "note_off", "time": 60, "note": 65, "velocity": 103, "channel": 0}, {"type": "note_on", "time": 3, "note": 66, "velocity": 99, "channel": 0}, {"type": "note_off", "time": 35, "note": 66, "velocity": 99, "channel": 0}, {"type": "note_on", "time": 14, "note": 69, "velocity": 102, "channel": 0}, {"type": "note_off", "time": 57, "note": 69, "velocity": 102, "channel": 0}, {"type": "note_on", "time": 9, "note": 67, "velocity": 108, "channel": 0}, {"type": "note_off", "time": 48, "note": 67, "velocity": 108, "channel": 0}, {"type": "note_on", "time": 13, "note": 66, "velocity": 97, "channel": 0}, {"type": "note_off", "time": 61, "note": 66, "velocity": 97, "channel": 0}, {"type": "note_on", "time": 13, "note": 67, "velocity": 88, "channel": 0}, {"type": "note_off", "time": 57, "note": 67, "velocity": 88, "channel": 0}, {"type": "note_on", "time": 21, "note": 69, "velocity": 98, "channel": 0}, {"type": "note_off", "time": 41, "note": 69, "velocity": 98, "channel": 0}, {"type": "note_on", "time": 6, "note": 71, "velocity": 106, "channel": 0}, {"type": "note_off", "time": 50, "note": 71, "velocity": 106, "channel": 0}, {"type": "note_on", "time": 11, "note": 72, "velocity": 111, "channel": 0}, {"type": "note_off", "time": 54, "note": 72, "velocity": 111, "channel": 0}, {"type": "note_on", "time": 14, "note": 71, "velocity": 109, "channel": 0}, {"type": "note_off", "time": 49, "note": 71, "velocity": 109, "channel": 0}, {"type": "note_on", "time": 6, "note": 70, "velocity": 101, "channel": 0}, {"type": "note_off", "time": 65, "note": 70, "velocity": 101, "channel": 0}, {"type": "note_on", "time": 19, "note": 71, "velocity": 98, "channel": 0}, {"type": "note_off", "time": 44, "note": 71, "velocity": 98, "channel": 0}, {"type": "note_on", "time": 6, "note": 72, "velocity": 105, "channel": 0}, {"type": "note_off", "time": 46, "note": 72, "velocity": 105, "channel": 0}, {"type": "note_on", "time": 8, "note": 73, "velocity": 102, "channel": 0}, {"type": "note_off", "time": 42, "note": 73, "velocity": 102, "channel": 0}, {"type": "note_on", "time": 5, "note": 74, "velocity": 99, "channel": 0}, {"type": "note_off", "time": 57, "note": 74, "velocity": 99, "channel": 0}, {"type": "note_on", "time": 11, "note": 79, "velocity": 112, "channel": 0}, {"type": "note_off", "time": 75, "note": 79, "velocity": 112, "channel": 0}, {"type": "note_on", "time": 10, "note": 75, "velocity": 98, "channel": 0}, {"type": "note_off", "time": 27, "note": 75, "velocity": 98, "channel": 0}, {"type": "note_on", "time": 14, "note": 70, "velocity": 98, "channel": 0}, {"type": "note_off", "time": 42, "note": 70, "velocity": 98, "channel": 0}, {"type": "note_on", "time": 16, "note": 67, "velocity": 113, "channel": 0}, {"type": "note_off", "time": 55, "note": 67, "velocity": 113, "channel": 0}, {"type": "note_on", "time": 7, "note": 69, "velocity": 104, "channel": 0}, {"type": "note_off", "time": 135, "note": 69, "velocity": 104, "channel": 0}, {"type": "note_on", "time": 2, "note": 68, "velocity": 89, "channel": 0}, {"type": "note_off", "time": 37, "note": 68, "velocity": 89, "channel": 0}, {"type": "note_on", "time": 909, "note": 67, "velocity": 102, "channel": 0}, {"type": "note_off", "time": 66, "note": 67, "velocity": 102, "channel": 0}, {"type": "note_on", "time": 7, "note": 70, "velocity": 112, "channel": 0}, {"type": "note_off", "time": 95, "note": 70, "velocity": 112, "channel": 0}, {"type": "note_on", "time": 13, "note": 71, "velocity": 115, "channel": 0}, {"type": "note_off", "time": 64, "note": 71, "velocity": 115, "channel": 0}, {"type": "note_on", "time": 11, "note": 72, "velocity": 114, "channel": 0}, {"type": "note_off", "time": 97, "note": 72, "velocity": 114, "channel": 0}, {"type": "note_on", "time": 10, "note": 75, "velocity": 100, "channel": 0}, {"type": "note_off", "time": 78, "note": 75, "velocity": 100, "channel": 0}, {"type": "note_on", "time": 7, "note": 72, "velocity": 106, "channel": 0}, {"type": "note_off", "time": 109, "note": 72, "velocity": 106, "channel": 0}, {"type": "note_on", "time": 5, "note": 73, "velocity": 105, "channel": 0}, {"type": "note_off", "time": 75, "note": 73, "velocity": 105, "channel": 0}, {"type": "note_on", "time": 12, "note": 74, "velocity": 113, "channel": 0}, {"type": "note_off", "time": 73, "note": 74, "velocity": 113, "channel": 0}, {"type": "note_on", "time": 13, "note": 72, "velocity": 111, "channel": 0}, {"type": "note_off", "time": 79, "note": 72, "velocity": 111, "channel": 0}, {"type": "note_on", "time": 10, "note": 69, "velocity": 112, "channel": 0}, {"type": "note_off", "time": 93, "note": 69, "velocity": 112, "channel": 0}, {"type": "note_on", "time": 8, "note": 67, "velocity": 104, "channel": 0}, {"type": "note_off", "time": 58, "note": 67, "velocity": 104, "channel": 0}, {"type": "note_on", "time": 8, "note": 65, "velocity": 94, "channel": 0}, {"type": "note_off", "time": 123, "note": 65, "velocity": 94, "channel": 0}, {"type": "note_on", "time": 91, "note": 65, "velocity": 99, "channel": 0}, {"type": "note_off", "time": 184, "note": 65, "velocity": 99, "channel": 0}, {"type": "note_on", "time": 24, "note": 67, "velocity": 110, "channel": 0}, {"type": "note_off", "time": 84, "note": 67, "velocity": 110, "channel": 0}, {"type": "note_on", "time": 11, "note": 69, "velocity": 113, "channel": 0}, {"type": "note_off", "time": 68, "note": 69, "velocity": 113, "channel": 0}, {"type": "note_on", "time": 17, "note": 67, "velocity": 106, "channel": 0}, {"type": "note_off", "time": 86, "note": 67, "velocity": 106, "channel": 0}, {"type": "note_on", "time": 25, "note": 65, "velocity": 102, "channel": 0}, {"type": "note_off", "time": 79, "note": 65, "velocity": 102, "channel": 0}, {"type": "note_on", "time": 15, "note": 63, "velocity": 88, "channel": 0}, {"type": "note_off", "time": 71, "note": 63, "velocity": 88, "channel": 0}, {"type": "note_on", "time": 10, "note": 62, "velocity": 96, "channel": 0}, {"type": "note_off", "time": 81, "note": 62, "velocity": 96, "channel": 0}, {"type": "note_on", "time": 16, "note": 61, "velocity": 88, "channel": 0}, {"type": "note_off", "time": 60, "note": 61, "velocity": 88, "channel": 0}, {"type": "note_on", "time": 108, "note": 67, "velocity": 113, "channel": 0}, {"type": "note_off", "time": 113, "note": 67, "velocity": 113, "channel": 0}, {"type": "note_on", "time": 13, "note": 65, "velocity": 103, "channel": 0}, {"type": "note_off", "time": 74, "note": 65, "velocity": 103, "channel": 0}, {"type": "note_on", "time": 12, "note": 62, "velocity": 94, "channel": 0}, {"type": "note_off", "time": 72, "note": 62, "velocity": 94, "channel": 0}, {"type": "note_on", "time": 21, "note": 58, "velocity": 99, "channel": 0}, {"type": "note_off", "time": 76, "note": 58, "velocity": 99, "channel": 0}, {"type": "note_on", "time": 14, "note": 60, "velocity": 104, "channel": 0}, {"type": "note_off", "time": 86, "note": 60, "velocity": 104, "channel": 0}, {"type": "note_on", "time": 4, "note": 62, "velocity": 103, "channel": 0}, {"type": "note_off", "time": 76, "note": 62, "velocity": 103, "channel": 0}, {"type": "note_on", "time": 9, "note": 60, "velocity": 101, "channel": 0}, {"type": "note_off", "time": 75, "note": 60, "velocity": 101, "channel": 0}, {"type": "note_on", "time": 16, "note": 62, "velocity": 86, "channel": 0}, {"type": "note_off", "time": 293, "note": 62, "velocity": 86, "channel": 0}, {"type": "note_on", "time": 875, "note": 62, "velocity": 86, "channel": 0}, {"type": "note_off", "time": 30, "note": 62, "velocity": 86, "channel": 0}, {"type": "note_on", "time": 8, "note": 65, "velocity": 104, "channel": 0}, {"type": "note_off", "time": 57, "note": 65, "velocity": 104, "channel": 0}, {"type": "note_on", "time": 21, "note": 69, "velocity": 103, "channel": 0}, {"type": "note_off", "time": 83, "note": 69, "velocity": 103, "channel": 0}, {"type": "note_on", "time": 17, "note": 67, "velocity": 112, "channel": 0}, {"type": "note_off", "time": 74, "note": 67, "velocity": 112, "channel": 0}, {"type": "note_on", "time": 11, "note": 66, "velocity": 91, "channel": 0}, {"type": "note_off", "time": 84, "note": 66, "velocity": 91, "channel": 0}, {"type": "note_on", "time": 7, "note": 67, "velocity": 93, "channel": 0}, {"type": "note_off", "time": 70, "note": 67, "velocity": 93, "channel": 0}, {"type": "note_on", "time": 19, "note": 70, "velocity": 106, "channel": 0}, {"type": "note_off", "time": 80, "note": 70, "velocity": 106, "channel": 0}, {"type": "note_on", "time": 24, "note": 67, "velocity": 105, "channel": 0}, {"type": "note_off", "time": 87, "note": 67, "velocity": 105, "channel": 0}, {"type": "note_on", "time": 12, "note": 63, "velocity": 88, "channel": 0}, {"type": "note_off", "time": 49, "note": 63, "velocity": 88, "channel": 0}, {"type": "note_on", "time": 26, "note": 60, "velocity": 94, "channel": 0}, {"type": "note_off", "time": 48, "note": 60, "velocity": 94, "channel": 0}, {"type": "note_on", "time": 34, "note": 65, "velocity": 103, "channel": 0}, {"type": "note_off", "time": 70, "note": 65, "velocity": 103, "channel": 0}, {"type": "note_on", "time": 8, "note": 67, "velocity": 101, "channel": 0}, {"type": "note_off", "time": 49, "note": 67, "velocity": 101, "channel": 0}, {"type": "note_on", "time": 11, "note": 65, "velocity": 106, "channel": 0}, {"type": "note_off", "time": 54, "note": 65, "velocity": 106, "channel": 0}, {"type": "note_on", "time": 31, "note": 62, "velocity": 93, "channel": 0}, {"type": "note_off", "time": 73, "note": 62, "velocity": 93, "channel": 0}, {"type": "note_on", "time": 15, "note": 65, "velocity": 101, "channel": 0}, {"type": "note_off", "time": 57, "note": 65, "velocity": 101, "channel": 0}, {"type": "note_on", "time": 15, "note": 70, "velocity": 112, "channel": 0}, {"type": "note_off", "time": 106, "note": 70, "velocity": 112, "channel": 0}, {"type": "note_on", "time": 12, "note": 65, "velocity": 92, "channel": 0}, {"type": "note_off", "time": 59, "note": 65, "velocity": 92, "channel": 0}, {"type": "note_on", "time": 7, "note": 67, "velocity": 114, "channel": 0}, {"type": "note_off", "time": 107, "note": 67, "velocity": 114, "channel": 0}, {"type": "note_on", "time": 7, "note": 70, "velocity": 102, "channel": 0}, {"type": "note_off", "time": 26, "note": 70, "velocity": 102, "channel": 0}, {"type": "note_on", "time": 10, "note": 67, "velocity": 98, "channel": 0}, {"type": "note_off", "time": 23, "note": 67, "velocity": 98, "channel": 0}, {"type": "note_on", "time": 23, "note": 64, "velocity": 90, "channel": 0}, {"type": "note_off", "time": 107, "note": 64, "velocity": 90, "channel": 0}, {"type": "note_on", "time": 7, "note": 67, "velocity": 94, "channel": 0}, {"type": "note_off", "time": 50, "note": 67, "velocity": 94, "channel": 0}, {"type": "note_on", "time": 15, "note": 71, "velocity": 116, "channel": 0}, {"type": "note_off", "time": 114, "note": 71, "velocity": 116, "channel": 0}, {"type": "note_on", "time": 22, "note": 67, "velocity": 94, "channel": 0}, {"type": "note_off", "time": 45, "note": 67, "velocity": 94, "channel": 0}, {"type": "note_on", "time": 16, "note": 69, "velocity": 109, "channel": 0}, {"type": "note_off", "time": 103, "note": 69, "velocity": 109, "channel": 0}, {"type": "note_on", "time": 2, "note": 70, "velocity": 103, "channel": 0}, {"type": "note_off", "time": 15, "note": 70, "velocity": 103, "channel": 0}, {"type": "note_on", "time": 7, "note": 69, "velocity": 109, "channel": 0}, {"type": "note_off", "time": 46, "note": 69, "velocity": 109, "channel": 0}, {"type": "note_on", "time": 19, "note": 66, "velocity": 96, "channel": 0}, {"type": "note_off", "time": 115, "note": 66, "velocity": 96, "channel": 0}, {"type": "note_on", "time": 15, "note": 69, "velocity": 91, "channel": 0}, {"type": "note_off", "time": 48, "note": 69, "velocity": 91, "channel": 0}, {"type": "note_on", "time": 3, "note": 75, "velocity": 109, "channel": 0}, {"type": "note_off", "time": 127, "note": 75, "velocity": 109, "channel": 0}, {"type": "note_on", "time": 7, "note": 73, "velocity": 99, "channel": 0}, {"type": "note_off", "time": 58, "note": 73, "velocity": 99, "channel": 0}, {"type": "note_on", "time": 4, "note": 74, "velocity": 112, "channel": 0}, {"type": "note_off", "time": 92, "note": 74, "velocity": 112, "channel": 0}, {"type": "note_on", "time": 10, "note": 72, "velocity": 113, "channel": 0}, {"type": "note_off", "time": 94, "note": 72, "velocity": 113, "channel": 0}, {"type": "note_on", "time": 8, "note": 69, "velocity": 102, "channel": 0}, {"type": "note_off", "time": 107, "note": 69, "velocity": 102, "channel": 0}, {"type": "note_on", "time": 16, "note": 70, "velocity": 96, "channel": 0}, {"type": "note_off", "time": 46, "note": 70, "velocity": 96, "channel": 0}, {"type": "note_on", "time": 7, "note": 71, "velocity": 110, "channel": 0}, {"type": "note_off", "time": 123, "note": 71, "velocity": 110, "channel": 0}, {"type": "note_on", "time": 9, "note": 67, "velocity": 94, "channel": 0}, {"type": "note_off", "time": 59, "note": 67, "velocity": 94, "channel": 0}, {"type": "note_on", "time": 19, "note": 74, "velocity": 103, "channel": 0}, {"type": "note_off", "time": 27, "note": 74, "velocity": 103, "channel": 0}, {"type": "note_on", "time": 10, "note": 72, "velocity": 110, "channel": 0}, {"type": "note_off", "time": 82, "note": 72, "velocity": 110, "channel": 0}, {"type": "note_on", "time": 10, "note": 73, "velocity": 101, "channel": 0}, {"type": "note_off", "time": 156, "note": 73, "velocity": 101, "channel": 0}, {"type": "note_on", "time": 26, "note": 74, "velocity": 103, "channel": 0}, {"type": "note_off", "time": 197, "note": 74, "velocity": 103, "channel": 0}, {"type": "note_on", "time": 24, "note": 76, "velocity": 103, "channel": 0}, {"type": "note_off", "time": 121, "note": 76, "velocity": 103, "channel": 0}, {"type": "note_on", "time": 13, "note": 78, "velocity": 103, "channel": 0}, {"type": "note_off", "time": 69, "note": 78, "velocity": 103, "channel": 0}, {"type": "note_on", "time": 17, "note": 79, "velocity": 110, "channel": 0}, {"type": "note_off", "time": 109, "note": 79, "velocity": 110, "channel": 0}, {"type": "note_on", "time": 10, "note": 78, "velocity": 104, "channel": 0}, {"type": "note_off", "time": 60, "note": 78, "velocity": 104, "channel": 0}, {"type": "note_on", "time": 20, "note": 76, "velocity": 102, "channel": 0}, {"type": "note_off", "time": 108, "note": 76, "velocity": 102, "channel": 0}, {"type": "note_on", "time": 7, "note": 75, "velocity": 104, "channel": 0}, {"type": "note_off", "time": 72, "note": 75, "velocity": 104, "channel": 0}, {"type": "note_on", "time": 12, "note": 74, "velocity": 104, "channel": 0}, {"type": "note_off", "time": 81, "note": 74, "velocity": 104, "channel": 0}, {"type": "note_on", "time": 29, "note": 71, "velocity": 99, "channel": 0}, {"type": "note_off", "time": 63, "note": 71, "velocity": 99, "channel": 0}, {"type": "note_on", "time": 6, "note": 67, "velocity": 117, "channel": 0}, {"type": "note_off", "time": 105, "note": 67, "velocity": 117, "channel": 0}, {"type": "note_on", "time": 78, "note": 69, "velocity": 118, "channel": 0}, {"type": "note_off", "time": 107, "note": 69, "velocity": 118, "channel": 0}, {"type": "note_on", "time": 7, "note": 71, "velocity": 105, "channel": 0}, {"type": "note_off", "time": 67, "note": 71, "velocity": 105, "channel": 0}, {"type": "note_on", "time": 8, "note": 69, "velocity": 117, "channel": 0}, {"type": "note_off", "time": 87, "note": 69, "velocity": 117, "channel": 0}, {"type": "note_on", "time": 10, "note": 71, "velocity": 95, "channel": 0}, {"type": "note_off", "time": 297, "note": 71, "velocity": 95, "channel": 0}, {"type": "note_on", "time": 659, "note": 75, "velocity": 116, "channel": 0}, {"type": "note_off", "time": 88, "note": 75, "velocity": 116, "channel": 0}, {"type": "note_on", "time": 4, "note": 76, "velocity": 113, "channel": 0}, {"type": "note_off", "time": 83, "note": 76, "velocity": 113, "channel": 0}, {"type": "note_on", "time": 9, "note": 77, "velocity": 119, "channel": 0}, {"type": "note_off", "time": 84, "note": 77, "velocity": 119, "channel": 0}, {"type": "note_on", "time": 3, "note": 78, "velocity": 113, "channel": 0}, {"type": "note_off", "time": 92, "note": 78, "velocity": 113, "channel": 0}, {"type": "note_on", "time": 13, "note": 75, "velocity": 112, "channel": 0}, {"type": "note_off", "time": 80, "note": 75, "velocity": 112, "channel": 0}, {"type": "note_on", "time": 16, "note": 71, "velocity": 108, "channel": 0}, {"type": "note_off", "time": 89, "note": 71, "velocity": 108, "channel": 0}, {"type": "note_on", "time": 12, "note": 68, "velocity": 107, "channel": 0}, {"type": "note_off", "time": 68, "note": 68, "velocity": 107, "channel": 0}, {"type": "note_on", "time": 19, "note": 75, "velocity": 106, "channel": 0}, {"type": "note_off", "time": 96, "note": 75, "velocity": 106, "channel": 0}, {"type": "note_on", "time": 8, "note": 73, "velocity": 102, "channel": 0}, {"type": "note_off", "time": 75, "note": 73, "velocity": 102, "channel": 0}, {"type": "note_on", "time": 2, "note": 75, "velocity": 101, "channel": 0}, {"type": "note_off", "time": 93, "note": 75, "velocity": 101, "channel": 0}, {"type": "note_on", "time": 24, "note": 73, "velocity": 106, "channel": 0}, {"type": "note_off", "time": 86, "note": 73, "velocity": 106, "channel": 0}, {"type": "note_on", "time": 7, "note": 74, "velocity": 110, "channel": 0}, {"type": "note_off", "time": 73, "note": 74, "velocity": 110, "channel": 0}, {"type": "note_on", "time": 19, "note": 72, "velocity": 102, "channel": 0}, {"type": "note_off", "time": 75, "note": 72, "velocity": 102, "channel": 0}, {"type": "note_on", "time": 9, "note": 69, "velocity": 110, "channel": 0}, {"type": "note_off", "time": 114, "note": 69, "velocity": 110, "channel": 0}, {"type": "note_on", "time": 13, "note": 70, "velocity": 98, "channel": 0}, {"type": "note_off", "time": 55, "note": 70, "velocity": 98, "channel": 0}, {"type": "note_on", "time": 7, "note": 71, "velocity": 98, "channel": 0}, {"type": "note_off", "time": 100, "note": 71, "velocity": 98, "channel": 0}, {"type": "note_on", "time": 9, "note": 66, "velocity": 104, "channel": 0}, {"type": "note_off", "time": 108, "note": 66, "velocity": 104, "channel": 0}, {"type": "note_on", "time": 182, "note": 70, "velocity": 102, "channel": 0}, {"type": "note_off", "time": 102, "note": 70, "velocity": 102, "channel": 0}, {"type": "note_on", "time": 8, "note": 66, "velocity": 93, "channel": 0}, {"type": "note_off", "time": 52, "note": 66, "velocity": 93, "channel": 0}, {"type": "note_on", "time": 5, "note": 69, "velocity": 109, "channel": 0}, {"type": "note_off", "time": 97, "note": 69, "velocity": 109, "channel": 0}, {"type": "note_on", "time": 5, "note": 67, "velocity": 111, "channel": 0}, {"type": "note_off", "time": 88, "note": 67, "velocity": 111, "channel": 0}, {"type": "note_on", "time": 12, "note": 66, "velocity": 102, "channel": 0}, {"type": "note_off", "time": 95, "note": 66, "velocity": 102, "channel": 0}, {"type": "note_on", "time": 8, "note": 67, "velocity": 101, "channel": 0}, {"type": "note_off", "time": 75, "note": 67, "velocity": 101, "channel": 0}, {"type": "note_on", "time": 10, "note": 64, "velocity": 94, "channel": 0}, {"type": "note_off", "time": 86, "note": 64, "velocity": 94, "channel": 0}, {"type": "note_on", "time": 9, "note": 63, "velocity": 88, "channel": 0}, {"type": "note_off", "time": 65, "note": 63, "velocity": 88, "channel": 0}, {"type": "note_on", "time": 11, "note": 62, "velocity": 92, "channel": 0}, {"type": "note_off", "time": 107, "note": 62, "velocity": 92, "channel": 0}, {"type": "note_on", "time": 100, "note": 66, "velocity": 109, "channel": 0}, {"type": "note_off", "time": 121, "note": 66, "velocity": 109, "channel": 0}, {"type": "note_on", "time": 13, "note": 67, "velocity": 98, "channel": 0}, {"type": "note_off", "time": 58, "note": 67, "velocity": 98, "channel": 0}, {"type": "note_on", "time": 7, "note": 69, "velocity": 114, "channel": 0}, {"type": "note_off", "time": 97, "note": 69, "velocity": 114, "channel": 0}, {"type": "note_on", "time": 8, "note": 67, "velocity": 109, "channel": 0}, {"type": "note_off", "time": 82, "note": 67, "velocity": 109, "channel": 0}, {"type": "note_on", "time": 13, "note": 66, "velocity": 97, "channel": 0}, {"type": "note_off", "time": 96, "note": 66, "velocity": 97, "channel": 0}, {"type": "note_on", "time": 13, "note": 67, "velocity": 90, "channel": 0}, {"type": "note_off", "time": 58, "note": 67, "velocity": 90, "channel": 0}, {"type": "note_on", "time": 12, "note": 70, "velocity": 107, "channel": 0}, {"type": "note_off", "time": 136, "note": 70, "velocity": 107, "channel": 0}, {"type": "note_on", "time": 9, "note": 74, "velocity": 92, "channel": 0}, {"type": "note_off", "time": 37, "note": 74, "velocity": 92, "channel": 0}, {"type": "note_on", "time": 12, "note": 76, "velocity": 107, "channel": 0}, {"type": "note_off", "time": 99, "note": 76, "velocity": 107, "channel": 0}, {"type": "note_on", "time": 9, "note": 79, "velocity": 115, "channel": 0}, {"type": "note_off", "time": 73, "note": 79, "velocity": 115, "channel": 0}, {"type": "note_on", "time": 24, "note": 81, "velocity": 112, "channel": 0}, {"type": "note_off", "time": 97, "note": 81, "velocity": 112, "channel": 0}, {"type": "note_on", "time": 15, "note": 79, "velocity": 110, "channel": 0}, {"type": "note_off", "time": 85, "note": 79, "velocity": 110, "channel": 0}, {"type": "note_on", "time": 14, "note": 76, "velocity": 101, "channel": 0}, {"type": "note_off", "time": 84, "note": 76, "velocity": 101, "channel": 0}, {"type": "note_on", "time": 13, "note": 74, "velocity": 98, "channel": 0}, {"type": "note_off", "time": 71, "note": 74, "velocity": 98, "channel": 0}, {"type": "note_on", "time": 616, "note": 58, "velocity": 110, "channel": 0}, {"type": "note_off", "time": 69, "note": 58, "velocity": 110, "channel": 0}, {"type": "note_on", "time": 17, "note": 76, "velocity": 100, "channel": 0}, {"type": "note_off", "time": 73, "note": 76, "velocity": 100, "channel": 0}, {"type": "note_on", "time": 10, "note": 74, "velocity": 94, "channel": 0}, {"type": "note_off", "time": 188, "note": 74, "velocity": 94, "channel": 0}, {"type": "note_on", "time": 403, "note": 69, "velocity": 103, "channel": 0}, {"type": "note_off", "time": 81, "note": 69, "velocity": 103, "channel": 0}, {"type": "note_on", "time": 8, "note": 72, "velocity": 111, "channel": 0}, {"type": "note_off", "time": 70, "note": 72, "velocity": 111, "channel": 0}, {"type": "note_on", "time": 16, "note": 70, "velocity": 100, "channel": 0}, {"type": "note_off", "time": 133, "note": 70, "velocity": 100, "channel": 0}, {"type": "note_on", "time": 60, "note": 66, "velocity": 108, "channel": 0}, {"type": "note_off", "time": 102, "note": 66, "velocity": 108, "channel": 0}, {"type": "note_on", "time": 11, "note": 69, "velocity": 103, "channel": 0}, {"type": "note_off", "time": 73, "note": 69, "velocity": 103, "channel": 0}, {"type": "note_on", "time": 14, "note": 67, "velocity": 109, "channel": 0}, {"type": "note_off", "time": 156, "note": 67, "velocity": 109, "channel": 0}, {"type": "note_on", "time": 74, "note": 62, "velocity": 78, "channel": 0}, {"type": "note_off", "time": 45, "note": 62, "velocity": 78, "channel": 0}, {"type": "note_on", "time": 21, "note": 63, "velocity": 89, "channel": 0}, {"type": "note_off", "time": 56, "note": 63, "velocity": 89, "channel": 0}, {"type": "note_on", "time": 108, "note": 67, "velocity": 104, "channel": 0}, {"type": "note_off", "time": 153, "note": 67, "velocity": 104, "channel": 0}, {"type": "note_on", "time": 47, "note": 64, "velocity": 82, "channel": 0}, {"type": "note_off", "time": 69, "note": 64, "velocity": 82, "channel": 0}, {"type": "note_on", "time": 7, "note": 69, "velocity": 108, "channel": 0}, {"type": "note_off", "time": 116, "note": 69, "velocity": 108, "channel": 0}, {"type": "note_on", "time": 34, "note": 64, "velocity": 89, "channel": 0}, {"type": "note_off", "time": 48, "note": 64, "velocity": 89, "channel": 0}, {"type": "note_on", "time": 4, "note": 66, "velocity": 109, "channel": 0}, {"type": "note_off", "time": 101, "note": 66, "velocity": 109, "channel": 0}, {"type": "note_on", "time": 5, "note": 67, "velocity": 103, "channel": 0}, {"type": "note_off", "time": 56, "note": 67, "velocity": 103, "channel": 0}, {"type": "note_on", "time": 10, "note": 69, "velocity": 112, "channel": 0}, {"type": "note_off", "time": 82, "note": 69, "velocity": 112, "channel": 0}, {"type": "note_on", "time": 11, "note": 67, "velocity": 117, "channel": 0}, {"type": "note_off", "time": 85, "note": 67, "velocity": 117, "channel": 0}, {"type": "note_on", "time": 7, "note": 66, "velocity": 113, "channel": 0}, {"type": "note_off", "time": 105, "note": 66, "velocity": 113, "channel": 0}, {"type": "note_on", "time": 18, "note": 64, "velocity": 96, "channel": 0}, {"type": "note_off", "time": 61, "note": 64, "velocity": 96, "channel": 0}, {"type": "note_on", "time": 7, "note": 62, "velocity": 87, "channel": 0}, {"type": "note_off", "time": 57, "note": 62, "velocity": 87, "channel": 0}, {"type": "note_on", "time": 11, "note": 64, "velocity": 90, "channel": 0}, {"type": "note_off", "time": 49, "note": 64, "velocity": 90, "channel": 0}, {"type": "note_on", "time": 9, "note": 62, "velocity": 94, "channel": 0}, {"type": "note_off", "time": 55, "note": 62, "velocity": 94, "channel": 0}, {"type": "note_on", "time": 13, "note": 67, "velocity": 109, "channel": 0}, {"type": "note_off", "time": 139, "note": 67, "velocity": 109, "channel": 0}, {"type": "note_on", "time": 19, "note": 69, "velocity": 98, "channel": 0}, {"type": "note_off", "time": 223, "note": 69, "velocity": 98, "channel": 0}, {"type": "note_on", "time": 85, "note": 65, "velocity": 92, "channel": 0}, {"type": "note_off", "time": 31, "note": 65, "velocity": 92, "channel": 0}, {"type": "note_on", "time": 11, "note": 61, "velocity": 100, "channel": 0}, {"type": "note_off", "time": 31, "note": 61, "velocity": 100, "channel": 0}, {"type": "note_on", "time": 28, "note": 58, "velocity": 85, "channel": 0}, {"type": "note_off", "time": 56, "note": 58, "velocity": 85, "channel": 0}, {"type": "end_of_track", "time": 0}]]}