{"ticks_per_beat": 192, "tracks": [[{"type": "track_name", "name": "Melody", "time": 0}, {"type": "set_tempo", "tempo": 201342, "time": 0}, {"type": "key_signature", "key": "Bb", "time": 0}, {"type": "time_signature", "numerator": 4, "denominator": 4, "clocks_per_click": 24, "notated_32nd_notes_per_beat": 8, "time": 0}, {"type": "note_on", "time": 2784, "note": 65, "velocity": 88, "channel": 0}, {"type": "note_off", "time": 77, "note": 65, "velocity": 88, "channel": 0}, {"type": "note_on", "time": 6, "note": 69, "velocity": 101, "channel": 0}, {"type": "note_off", "time": 77, "note": 69, "velocity": 101, "channel": 0}, {"type": "note_on", "time": 6, "note": 70, "velocity": 89, "channel": 0}, {"type": "note_off", "time": 59, "note": 70, "velocity": 89, "channel": 0}, {"type": "note_on", "time": 11, "note": 72, "velocity": 107, "channel": 0}, {"type": "note_off", "time": 128, "note": 72, "velocity": 107, "channel": 0}, {"type": "note_on", "time": 7, "note": 70, "velocity": 103, "channel": 0}, {"type": "note_off", "time": 54, "note": 70, "velocity": 103, "channel": 0}, {"type": "note_on", "time": 3, "note": 69, "velocity": 92, "channel": 0}, {"type": "note_off", "time": 85, "note": 69, "velocity": 92, "channel": 0}, {"type": "note_on", "time": 3, "note": 70, "velocity": 95, "channel": 0}, {"type": "note_off", "time": 73, "note": 70, "velocity": 95, "channel": 0}, {"type": "note_on", "time": 7, "note": 74, "velocity": 105, "channel": 0}, {"type": "note_off", "time": 108, "note": 74, "velocity": 105, "channel": 0}, {"type": "note_on", "time": 31, "note": 65, "velocity": 89, "channel": 0}, {"type": "note_off", "time": 73, "note": 65, "velocity": 89, "channel": 0}, {"type": "note_on", "time": 7, "note": 67, "velocity": 97, "channel": 0}, {"type": "note_off", "time": 85, "note": 67, "velocity": 97, "channel": 0}, {"type": "note_on", "time": 19, "note": 69, "velocity": 90, "channel": 0}, {"type": "note_off", "time": 73, "note": 69, "velocity": 90, "channel": 0}, {"type": "note_on", "time": 3, "note": 70, "velocity": 100, "channel": 0}, {"type": "note_off", "time": 99, "note": 70, "velocity": 100, "channel": 0}, {"type": "note_on", "time": 13, "note": 67, "velocity": 97, "channel": 0}, {"type": "note_off", "time": 77, "note": 67, "velocity": 97, "channel": 0}, {"type": "note_on", "time": 38, "note": 63, "velocity": 87, "channel": 0}, {"type": "note_off", "time": 66, "note": 63, "velocity": 87, "channel": 0}, {"type": "note_on", "time": 11, "note": 60, "velocity": 79, "channel": 0}, {"type": "note_off", "time": 66, "note": 60, "velocity": 79, "channel": 0}, {"type": "note_on", "time": 0, "note": 69, "velocity": 106, "channel": 0}, {"type": "note_off", "time": 93, "note": 69, "velocity": 106, "channel": 0}, {"type": "note_on", "time": 15, "note": 70, "velocity": 102, "channel": 0}, {"type": "note_off", "time": 81, "note": 70, "velocity": 102, "channel": 0}, {"type": "note_on", "time": 0, "note": 72, "velocity": 114, "channel": 0}, {"type": "note_off", "time": 93, "note": 72, "velocity": 114, "channel": 0}, {"type": "note_on", "time": 15, "note": 71, "velocity": 106, "channel": 0}, {"type": "note_off", "time": 89, "note": 71, "velocity": 106, "channel": 0}, {"type": "note_on", "time": 11, "note": 70, "velocity": 100, "channel": 0}, {"type": "note_off", "time": 81, "note": 70, "velocity": 100, "channel": 0}, {"type": "note_on", "time": 3, "note": 69, "velocity": 101, "channel": 0}, {"type": "note_off", "time": 70, "note": 69, "velocity": 101, "channel": 0}, {"type": "note_on", "time": 3, "note": 68, "velocity": 99, "channel": 0}, {"type": "note_off", "time": 97, "note": 68, "velocity": 99, "channel": 0}, {"type": "note_on", "time": 11, "note": 67, "velocity": 103, "channel": 0}, {"type": "note_off", "time": 85, "note": 67, "velocity": 103, "channel": 0}, {"type": "note_on", "time": 0, "note": 65, "velocity": 98, "channel": 0}, {"type": "note_off", "time": 77, "note": 65, "velocity": 98, "channel": 0}, {"type": "note_on", "time": 15, "note": 63, "velocity": 89, "channel": 0}, {"type": "note_off", "time": 77, "note": 63, "velocity": 89, "channel": 0}, {"type": "note_on", "time": 15, "note": 62, "velocity": 99, "channel": 0}, {"type": "note_off", "time": 112, "note": 62, "velocity": 99, "channel": 0}, {"type": "note_on", "time": 19, "note": 65, "velocity": 88, "channel": 0}, {"type": "note_off", "time": 50, "note": 65, "velocity": 88, "channel": 0}, {"type": "note_on", "time": 7, "note": 70, "velocity": 112, "channel": 0}, {"type": "note_off", "time": 101, "note": 70, "velocity": 112, "channel": 0}, {"type": "note_on", "time": 3, "note": 69, "velocity": 111, "channel": 0}, {"type": "note_off", "time": 101, "note": 69, "velocity": 111, "channel": 0}, {"type": "note_on", "time": 0, "note": 68, "velocity": 105, "channel": 0}, {"type": "note_off", "time": 70, "note": 68, "velocity": 105, "channel": 0}, {"type": "note_on", "time": 16, "note": 67, "velocity": 105, "channel": 0}, {"type": "note_off", "time": 77, "note": 67, "velocity": 105, "channel": 0}, {"type": "note_on", "time": 16, "note": 65, "velocity": 104, "channel": 0}, {"type": "note_off", "time": 85, "note": 65, "velocity": 104, "channel": 0}, {"type": "note_on", "time": 13, "note": 63, "velocity": 94, "channel": 0}, {"type": "note_off", "time": 88, "note": 63, "velocity": 94, "channel": 0}, {"type": "note_on", "time": 5, "note": 62, "velocity": 84, "channel": 0}, {"type": "note_off", "time": 69, "note": 62, "velocity": 84, "channel": 0}, {"type": "note_on", "time": 11, "note": 63, "velocity": 94, "channel": 0}, {"type": "note_off", "time": 71, "note": 63, "velocity": 94, "channel": 0}, {"type": "note_on", "time": 13, "note": 65, "velocity": 104, "channel": 0}, {"type": "note_off", "time": 94, "note": 65, "velocity": 104, "channel": 0}, {"type": "note_on", "time": 19, "note": 62, "velocity": 98, "channel": 0}, {"type": "note_off", "time": 66, "note": 62, "velocity": 98, "channel": 0}, {"type": "note_on", "time": 22, "note": 63, "velocity": 99, "channel": 0}, {"type": "note_off", "time": 99, "note": 63, "velocity": 99, "channel": 0}, {"type": "note_on", "time": 16, "note": 66, "velocity": 111, "channel": 0}, {"type": "note_off", "time": 132, "note": 66, "velocity": 111, "channel": 0}, {"type": "note_on", "time": 35, "note": 67, "velocity": 106, "channel": 0}, {"type": "note_off", "time": 71, "note": 67, "velocity": 106, "channel": 0}, {"type": "note_on", "time": 13, "note": 68, "velocity": 100, "channel": 0}, {"type": "note_off", "time": 60, "note": 68, "velocity": 100, "channel": 0}, {"type": "note_on", "time": 5, "note": 69, "velocity": 108, "channel": 0}, {"type": "note_off", "time": 88, "note": 69, "velocity": 108, "channel": 0}, {"type": "note_on", "time": 16, "note": 70, "velocity": 107, "channel": 0}, {"type": "note_off", "time": 107, "note": 70, "velocity": 107, "channel": 0}, {"type": "note_on", "time": 19, "note": 67, "velocity": 91, "channel": 0}, {"type": "note_off", "time": 74, "note": 67, "velocity": 91, "channel": 0}, {"type": "note_on", "time": 8, "note": 63, "velocity": 90, "channel": 0}, {"type": "note_off", "time": 74, "note": 63, "velocity": 90, "channel": 0}, {"type": "note_on", "time": 19, "note": 60, "velocity": 83, "channel": 0}, {"type": "note_off", "time": 58, "note": 60, "velocity": 83, "channel": 0}, {"type": "note_on", "time": 5, "note": 70, "velocity": 102, "channel": 0}, {"type": "note_off", "time": 116, "note": 70, "velocity": 102, "channel": 0}, {"type": "note_on", "time": 13, "note": 66, "velocity": 93, "channel": 0}, {"type": "note_off", "time": 58, "note": 66, "velocity": 93, "channel": 0}, {"type": "note_on", "time": 8, "note": 70, "velocity": 93, "channel": 0}, {"type": "note_off", "time": 143, "note": 70, "velocity": 93, "channel": 0}, {"type": "note_on", "time": 38, "note": 70, "velocity": 90, "channel": 0}, {"type": "note_off", "time": 332, "note": 70, "velocity": 90, "channel": 0}, {"type": "note_on", "time": 952, "note": 66, "velocity": 79, "channel": 0}, {"type": "note_off", "time": 49, "note": 66, "velocity": 79, "channel": 0}, {"type": "note_on", "time": 22, "note": 67, "velocity": 100, "channel": 0}, {"type": "note_off", "time": 101, "note": 67, "velocity": 100, "channel": 0}, {"type": "note_on", "time": 1, "note": 74, "velocity": 113, "channel": 0}, {"type": "note_off", "time": 88, "note": 74, "velocity": 113, "channel": 0}, {"type": "note_on", "time": 2, "note": 77, "velocity": 110, "channel": 0}, {"type": "note_off", "time": 127, "note": 77, "velocity": 110, "channel": 0}, {"type": "note_on", "time": 2, "note": 65, "velocity": 108, "channel": 0}, {"type": "note_off", "time": 63, "note": 65, "velocity": 108, "channel": 0}, {"type": "note_on", "time": 13, "note": 67, "velocity": 100, "channel": 0}, {"type": "note_off", "time": 52, "note": 67, "velocity": 100, "channel": 0}, {"type": "note_on", "time": 5, "note": 70, "velocity": 90, "channel": 0}, {"type": "note_off", "time": 38, "note": 70, "velocity": 90, "channel": 0}, {"type": "note_on", "time": 16, "note": 72, "velocity": 106, "channel": 0}, {"type": "note_off", "time": 49, "note": 72, "velocity": 106, "channel": 0}, {"type": "note_on", "time": 16, "note": 77, "velocity": 122, "channel": 0}, {"type": "note_off", "time": 94, "note": 77, "velocity": 122, "channel": 0}, {"type": "note_on", "time": 11, "note": 76, "velocity": 127, "channel": 0}, {"type": "note_off", "time": 77, "note": 76, "velocity": 127, "channel": 0}, {"type": "note_on", "time": 16, "note": 75, "velocity": 118, "channel": 0}, {"type": "note_off", "time": 80, "note": 75, "velocity": 118, "channel": 0}, {"type": "note_on", "time": 16, "note": 74, "velocity": 114, "channel": 0}, {"type": "note_off", "time": 85, "note": 74, "velocity": 114, "channel": 0}, {"type": "note_on", "time": 19, "note": 72, "velocity": 104, "channel": 0}, {"type": "note_off", "time": 91, "note": 72, "velocity": 104, "channel": 0}, {"type": "note_on", "time": 19, "note": 70, "velocity": 98, "channel": 0}, {"type": "note_off", "time": 88, "note": 70, "velocity": 98, "channel": 0}, {"type": "note_on", "time": 5, "note": 69, "velocity": 93, "channel": 0}, {"type": "note_off", "time": 99, "note": 69, "velocity": 93, "channel": 0}, {"type": "note_on", "time": 2, "note": 70, "velocity": 85, "channel": 0}, {"type": "note_off", "time": 52, "note": 70, "velocity": 85, "channel": 0}, {"type": "note_on", "time": 5, "note": 72, "velocity": 111, "channel": 0}, {"type": "note_off", "time": 96, "note": 72, "velocity": 111, "channel": 0}, {"type": "note_on", "time": 27, "note": 66, "velocity": 105, "channel": 0}, {"type": "note_off", "time": 85, "note": 66, "velocity": 105, "channel": 0}, {"type": "note_on", "time": 0, "note": 67, "velocity": 91, "channel": 0}, {"type": "note_off", "time": 52, "note": 67, "velocity": 91, "channel": 0}, {"type": "note_on", "time": 8, "note": 70, "velocity": 83, "channel": 0}, {"type": "note_off", "time": 49, "note": 70, "velocity": 83, "channel": 0}, {"type": "note_on", "time": 5, "note": 74, "velocity": 104, "channel": 0}, {"type": "note_off", "time": 63, "note": 74, "velocity": 104, "channel": 0}, {"type": "note_on", "time": 5, "note": 78, "velocity": 122, "channel": 0}, {"type": "note_off", "time": 116, "note": 78, "velocity": 122, "channel": 0}, {"type": "note_on", "time": 24, "note": 76, "velocity": 112, "channel": 0}, {"type": "note_off", "time": 163, "note": 76, "velocity": 112, "channel": 0}, {"type": "note_on", "time": 27, "note": 78, "velocity": 120, "channel": 0}, {"type": "note_off", "time": 102, "note": 78, "velocity": 120, "channel": 0}, {"type": "note_on", "time": 19, "note": 76, "velocity": 116, "channel": 0}, {"type": "note_off", "time": 124, "note": 76, "velocity": 116, "channel": 0}, {"type": "note_on", "time": 1295, "note": 79, "velocity": 111, "channel": 0}, {"type": "note_off", "time": 110, "note": 79, "velocity": 111, "channel": 0}, {"type": "note_on", "time": 8, "note": 78, "velocity": 122, "channel": 0}, {"type": "note_off", "time": 102, "note": 78, "velocity": 122, "channel": 0}, {"type": "note_on", "time": 21, "note": 77, "velocity": 121, "channel": 0}, {"type": "note_off", "time": 71, "note": 77, "velocity": 121, "channel": 0}, {"type": "note_on", "time": 14, "note": 76, "velocity": 123, "channel": 0}, {"type": "note_off", "time": 85, "note": 76, "velocity": 123, "channel": 0}, {"type": "note_on", "time": 8, "note": 75, "velocity": 116, "channel": 0}, {"type": "note_off", "time": 94, "note": 75, "velocity": 116, "channel": 0}, {"type": "note_on", "time": 30, "note": 69, "velocity": 101, "channel": 0}, {"type": "note_off", "time": 105, "note": 69, "velocity": 101, "channel": 0}, {"type": "note_on", "time": 5, "note": 66, "velocity": 97, "channel": 0}, {"type": "note_off", "time": 163, "note": 66, "velocity": 97, "channel": 0}, {"type": "note_on", "time": 481, "note": 74, "velocity": 114, "channel": 0}, {"type": "note_off", "time": 119, "note": 74, "velocity": 114, "channel": 0}, {"type": "note_on", "time": 11, "note": 73, "velocity": 115, "channel": 0}, {"type": "note_off", "time": 99, "note": 73, "velocity": 115, "channel": 0}, {"type": "note_on", "time": 8, "note": 72, "velocity": 117, "channel": 0}, {"type": "note_off", "time": 116, "note": 72, "velocity": 117, "channel": 0}, {"type": "note_on", "time": 8, "note": 71, "velocity": 113, "channel": 0}, {"type": "note_off", "time": 99, "note": 71, "velocity": 113, "channel": 0}, {"type": "note_on", "time": 2, "note": 70, "velocity": 107, "channel": 0}, {"type": "note_off", "time": 80, "note": 70, "velocity": 107, "channel": 0}, {"type": "note_on", "time": 5, "note": 69, "velocity": 107, "channel": 0}, {"type": "note_off", "time": 91, "note": 69, "velocity": 107, "channel": 0}, {"type": "note_on", "time": 8, "note": 67, "velocity": 101, "channel": 0}, {"type": "note_off", "time": 77, "note": 67, "velocity": 101, "channel": 0}, {"type": "note_on", "time": 5, "note": 65, "velocity": 98, "channel": 0}, {"type": "note_off", "time": 74, "note": 65, "velocity": 98, "channel": 0}, {"type": "note_on", "time": 2, "note": 64, "velocity": 96, "channel": 0}, {"type": "note_off", "time": 71, "note": 64, "velocity": 96, "channel": 0}, {"type": "note_on", "time": 5, "note": 63, "velocity": 94, "channel": 0}, {"type": "note_off", "time": 88, "note": 63, "velocity": 94, "channel": 0}, {"type": "note_on", "time": 22, "note": 62, "velocity": 98, "channel": 0}, {"type": "note_off", "time": 88, "note": 62, "velocity": 98, "channel": 0}, {"type": "note_on", "time": 8, "note": 60, "velocity": 87, "channel": 0}, {"type": "note_off", "time": 77, "note": 60, "velocity": 87, "channel": 0}, {"type": "note_on", "time": 11, "note": 58, "velocity": 84, "channel": 0}, {"type": "note_off", "time": 143, "note": 58, "velocity": 84, "channel": 0}, {"type": "note_on", "time": 66, "note": 60, "velocity": 90, "channel": 0}, {"type": "note_off", "time": 107, "note": 60, "velocity": 90, "channel": 0}, {"type": "note_on", "time": 19, "note": 57, "velocity": 78, "channel": 0}, {"type": "note_off", "time": 69, "note": 57, "velocity": 78, "channel": 0}, {"type": "note_on", "time": 16, "note": 58, "velocity": 77, "channel": 0}, {"type": "note_off", "time": 81, "note": 58, "velocity": 77, "channel": 0}, {"type": "note_on", "time": 7, "note": 60, "velocity": 83, "channel": 0}, {"type": "note_off", "time": 85, "note": 60, "velocity": 83, "channel": 0}, {"type": "note_on", "time": 0, "note": 62, "velocity": 93, "channel": 0}, {"type": "note_off", "time": 70, "note": 62, "velocity": 93, "channel": 0}, {"type": "note_on", "time": 23, "note": 63, "velocity": 92, "channel": 0}, {"type": "note_off", "time": 89, "note": 63, "velocity": 92, "channel": 0}, {"type": "note_on", "time": 15, "note": 65, "velocity": 103, "channel": 0}, {"type": "note_off", "time": 99, "note": 65, "velocity": 103, "channel": 0}, {"type": "note_on", "time": 0, "note": 67, "velocity": 100, "channel": 0}, {"type": "note_off", "time": 91, "note": 67, "velocity": 100, "channel": 0}, {"type": "note_on", "time": 22, "note": 69, "velocity": 100, "channel": 0}, {"type": "note_off", "time": 107, "note": 69, "velocity": 100, "channel": 0}, {"type": "note_on", "time": 5, "note": 70, "velocity": 91, "channel": 0}, {"type": "note_off", "time": 60, "note": 70, "velocity": 91, "channel": 0}, {"type": "note_on", "time": 19, "note": 72, "velocity": 104, "channel": 0}, {"type": "note_off", "time": 110, "note": 72, "velocity": 104, "channel": 0}, {"type": "note_on", "time": 5, "note": 70, "velocity": 100, "channel": 0}, {"type": "note_off", "time": 96, "note": 70, "velocity": 100, "channel": 0}, {"type": "note_on", "time": 19, "note": 69, "velocity": 97, "channel": 0}, {"type": "note_off", "time": 69, "note": 69, "velocity": 97, "channel": 0}, {"type": "note_on", "time": 5, "note": 70, "velocity": 97, "channel": 0}, {"type": "note_off", "time": 94, "note": 70, "velocity": 97, "channel": 0}, {"type": "note_on", "time": 13, "note": 76, "velocity": 113, "channel": 0}, {"type": "note_off", "time": 99, "note": 76, "velocity": 113, "channel": 0}, {"type": "note_on", "time": 66, "note": 78, "velocity": 108, "channel": 0}, {"type": "note_off", "time": 196, "note": 78, "velocity": 108, "channel": 0}, {"type": "note_on", "time": 555, "note": 66, "velocity": 105, "channel": 0}, {"type": "note_off", "time": 97, "note": 66, "velocity": 105, "channel": 0}, {"type": "note_on", "time": 27, "note": 68, "velocity": 90, "channel": 0}, {"type": "note_off", "time": 54, "note": 68, "velocity": 90, "channel": 0}, {"type": "note_on", "time": 7, "note": 70, "velocity": 103, "channel": 0}, {"type": "note_off", "time": 81, "note": 70, "velocity": 103, "channel": 0}, {"type": "note_on", "time": 23, "note": 72, "velocity": 107, "channel": 0}, {"type": "note_off", "time": 97, "note": 72, "velocity": 107, "channel": 0}, {"type": "note_on", "time": 23, "note": 74, "velocity": 113, "channel": 0}, {"type": "note_off", "time": 85, "note": 74, "velocity": 113, "channel": 0}, {"type": "note_on", "time": 97, "note": 75, "velocity": 101, "channel": 0}, {"type": "note_off", "time": 155, "note": 75, "velocity": 101, "channel": 0}, {"type": "note_on", "time": 54, "note": 76, "velocity": 93, "channel": 0}, {"type": "note_off", "time": 206, "note": 76, "velocity": 93, "channel": 0}, {"type": "note_on", "time": 1253, "note": 77, "velocity": 121, "channel": 0}, {"type": "note_off", "time": 186, "note": 77, "velocity": 121, "channel": 0}, {"type": "note_on", "time": 19, "note": 78, "velocity": 120, "channel": 0}, {"type": "note_off", "time": 112, "note": 78, "velocity": 120, "channel": 0}, {"type": "note_on", "time": 11, "note": 77, "velocity": 113, "channel": 0}, {"type": "note_off", "time": 136, "note": 77, "velocity": 113, "channel": 0}, {"type": "note_on", "time": 295, "note": 75, "velocity": 104, "channel": 0}, {"type": "note_off", "time": 120, "note": 75, "velocity": 104, "channel": 0}, {"type": "note_on", "time": 15, "note": 70, "velocity": 109, "channel": 0}, {"type": "note_off", "time": 85, "note": 70, "velocity": 109, "channel": 0}, {"type": "note_on", "time": 15, "note": 66, "velocity": 95, "channel": 0}, {"type": "note_off", "time": 101, "note": 66, "velocity": 95, "channel": 0}, {"type": "note_on", "time": 8, "note": 65, "velocity": 93, "channel": 0}, {"type": "note_off", "time": 73, "note": 65, "velocity": 93, "channel": 0}, {"type": "note_on", "time": 10, "note": 63, "velocity": 100, "channel": 0}, {"type": "note_off", "time": 89, "note": 63, "velocity": 100, "channel": 0}, {"type": "note_on", "time": 5, "note": 65, "velocity": 88, "channel": 0}, {"type": "note_off", "time": 303, "note": 65, "velocity": 88, "channel": 0}, {"type": "note_on", "time": 470, "note": 65, "velocity": 106, "channel": 0}, {"type": "note_off", "time": 101, "note": 65, "velocity": 106, "channel": 0}, {"type": "note_on", "time": 7, "note": 67, "velocity": 96, "channel": 0}, {"type": "note_off", "time": 66, "note": 67, "velocity": 96, "channel": 0}, {"type": "note_on", "time": 3, "note": 69, "velocity": 103, "channel": 0}, {"type": "note_off", "time": 120, "note": 69, "velocity": 103, "channel": 0}, {"type": "note_on", "time": 7, "note": 72, "velocity": 122, "channel": 0}, {"type": "note_off", "time": 101, "note": 72, "velocity": 122, "channel": 0}, {"type": "note_on", "time": 19, "note": 70, "velocity": 118, "channel": 0}, {"type": "note_off", "time": 70, "note": 70, "velocity": 118, "channel": 0}, {"type": "note_on", "time": 7, "note": 69, "velocity": 103, "channel": 0}, {"type": "note_off", "time": 73, "note": 69, "velocity": 103, "channel": 0}, {"type": "note_on", "time": 15, "note": 70, "velocity": 97, "channel": 0}, {"type": "note_off", "time": 81, "note": 70, "velocity": 97, "channel": 0}, {"type": "note_on", "time": 7, "note": 74, "velocity": 116, "channel": 0}, {"type": "note_off", "time": 93, "note": 74, "velocity": 116, "channel": 0}, {"type": "note_on", "time": 27, "note": 65, "velocity": 104, "channel": 0}, {"type": "note_off", "time": 73, "note": 65, "velocity": 104, "channel": 0}, {"type": "note_on", "time": 3, "note": 67, "velocity": 90, "channel": 0}, {"type": "note_off", "time": 66, "note": 67, "velocity": 90, "channel": 0}, {"type": "note_on", "time": 19, "note": 69, "velocity": 91, "channel": 0}, {"type": "note_off", "time": 93, "note": 69, "velocity": 91, "channel": 0}, {"type": "note_on", "time": 11, "note": 70, "velocity": 114, "channel": 0}, {"type": "note_off", "time": 73, "note": 70, "velocity": 114, "channel": 0}, {"type": "note_on", "time": 3, "note": 67, "velocity": 105, "channel": 0}, {"type": "note_off", "time": 85, "note": 67, "velocity": 105, "channel": 0}, {"type": "note_on", "time": 15, "note": 63, "velocity": 84, "channel": 0}, {"type": "note_off", "time": 97, "note": 63, "velocity": 84, "channel": 0}, {"type": "note_on", "time": 3, "note": 60, "velocity": 78, "channel": 0}, {"type": "note_off", "time": 70, "note": 60, "velocity": 78, "channel": 0}, {"type": "note_on", "time": 0, "note": 69, "velocity": 113, "channel": 0}, {"type": "note_off", "time": 108, "note": 69, "velocity": 113, "channel": 0}, {"type": "note_on", "time": 15, "note": 70, "velocity": 101, "channel": 0}, {"type": "note_off", "time": 70, "note": 70, "velocity": 101, "channel": 0}, {"type": "note_on", "time": 7, "note": 72, "velocity": 116, "channel": 0}, {"type": "note_off", "time": 101, "note": 72, "velocity": 116, "channel": 0}, {"type": "note_on", "time": 3, "note": 71, "velocity": 111, "channel": 0}, {"type": "note_off", "time": 89, "note": 71, "velocity": 111, "channel": 0}, {"type": "note_on", "time": 19, "note": 70, "velocity": 108, "channel": 0}, {"type": "note_off", "time": 81, "note": 70, "velocity": 108, "channel": 0}, {"type": "note_on", "time": 23, "note": 66, "velocity": 111, "channel": 0}, {"type": "note_off", "time": 70, "note": 66, "velocity": 111, "channel": 0}, {"type": "note_on", "time": 15, "note": 64, "velocity": 90, "channel": 0}, {"type": "note_off", "time": 81, "note": 64, "velocity": 90, "channel": 0}, {"type": "note_on", "time": 19, "note": 60, "velocity": 83, "channel": 0}, {"type": "note_off", "time": 93, "note": 60, "velocity": 83, "channel": 0}, {"type": "note_on", "time": 3, "note": 69, "velocity": 99, "channel": 0}, {"type": "note_off", "time": 167, "note": 69, "velocity": 99, "channel": 0}, {"type": "note_on", "time": 84, "note": 69, "velocity": 85, "channel": 0}, {"type": "note_off", "time": 128, "note": 69, "velocity": 85, "channel": 0}, {"type": "note_on", "time": 565, "note": 67, "velocity": 111, "channel": 0}, {"type": "note_off", "time": 83, "note": 67, "velocity": 111, "channel": 0}, {"type": "note_on", "time": 25, "note": 69, "velocity": 112, "channel": 0}, {"type": "note_off", "time": 69, "note": 69, "velocity": 112, "channel": 0}, {"type": "note_on", "time": 4, "note": 70, "velocity": 109, "channel": 0}, {"type": "note_off", "time": 130, "note": 70, "velocity": 109, "channel": 0}, {"type": "note_on", "time": 0, "note": 67, "velocity": 97, "channel": 0}, {"type": "note_off", "time": 71, "note": 67, "velocity": 97, "channel": 0}, {"type": "note_on", "time": 8, "note": 69, "velocity": 82, "channel": 0}, {"type": "note_off", "time": 58, "note": 69, "velocity": 82, "channel": 0}, {"type": "note_on", "time": 19, "note": 70, "velocity": 94, "channel": 0}, {"type": "note_off", "time": 85, "note": 70, "velocity": 94, "channel": 0}, {"type": "note_on", "time": 16, "note": 72, "velocity": 115, "channel": 0}, {"type": "note_off", "time": 80, "note": 72, "velocity": 115, "channel": 0}, {"type": "note_on", "time": 11, "note": 70, "velocity": 107, "channel": 0}, {"type": "note_off", "time": 77, "note": 70, "velocity": 107, "channel": 0}, {"type": "note_on", "time": 5, "note": 69, "velocity": 99, "channel": 0}, {"type": "note_off", "time": 80, "note": 69, "velocity": 99, "channel": 0}, {"type": "note_on", "time": 22, "note": 70, "velocity": 94, "channel": 0}, {"type": "note_off", "time": 49, "note": 70, "velocity": 94, "channel": 0}, {"type": "note_on", "time": 19, "note": 74, "velocity": 111, "channel": 0}, {"type": "note_off", "time": 91, "note": 74, "velocity": 111, "channel": 0}, {"type": "note_on", "time": 58, "note": 65, "velocity": 97, "channel": 0}, {"type": "note_off", "time": 188, "note": 65, "velocity": 97, "channel": 0}, {"type": "note_on", "time": 74, "note": 65, "velocity": 77, "channel": 0}, {"type": "note_off", "time": 124, "note": 65, "velocity": 77, "channel": 0}, {"type": "note_on", "time": 597, "note": 73, "velocity": 110, "channel": 0}, {"type": "note_off", "time": 108, "note": 73, "velocity": 110, "channel": 0}, {"type": "note_on", "time": 4, "note": 68, "velocity": 102, "channel": 0}, {"type": "note_off", "time": 77, "note": 68, "velocity": 102, "channel": 0}, {"type": "note_on", "time": 7, "note": 64, "velocity": 90, "channel": 0}, {"type": "note_off", "time": 98, "note": 64, "velocity": 90, "channel": 0}, {"type": "note_on", "time": 22, "note": 60, "velocity": 83, "channel": 0}, {"type": "note_off", "time": 62, "note": 60, "velocity": 83, "channel": 0}, {"type": "note_on", "time": 15, "note": 61, "velocity": 88, "channel": 0}, {"type": "note_off", "time": 62, "note": 61, "velocity": 88, "channel": 0}, {"type": "note_on", "time": 23, "note": 64, "velocity": 84, "channel": 0}, {"type": "note_off", "time": 73, "note": 64, "velocity": 84, "channel": 0}, {"type": "note_on", "time": 19, "note": 66, "velocity": 104, "channel": 0}, {"type": "note_off", "time": 93, "note": 66, "velocity": 104, "channel": 0}, {"type": "note_on", "time": 15, "note": 67, "velocity": 98, "channel": 0}, {"type": "note_on", "time": 54, "note": 70, "velocity": 103, "channel": 0}, {"type": "note_off", "time": 0, "note": 67, "velocity": 98, "channel": 0}, {"type": "note_off", "time": 46, "note": 70, "velocity": 103, "channel": 0}, {"type": "note_on", "time": 0, "note": 75, "velocity": 113, "channel": 0}, {"type": "note_off", "time": 140, "note": 75, "velocity": 113, "channel": 0}, {"type": "note_on", "time": 27, "note": 73, "velocity": 110, "channel": 0}, {"type": "note_off", "time": 58, "note": 73, "velocity": 110, "channel": 0}, {"type": "note_on", "time": 19, "note": 72, "velocity": 107, "channel": 0}, {"type": "note_off", "time": 97, "note": 72, "velocity": 107, "channel": 0}, {"type": "note_on", "time": 15, "note": 70, "velocity": 102, "channel": 0}, {"type": "note_off", "time": 54, "note": 70, "velocity": 102, "channel": 0}, {"type": "note_on", "time": 3, "note": 69, "velocity": 101, "channel": 0}, {"type": "note_off", "time": 77, "note": 69, "velocity": 101, "channel": 0}, {"type": "note_on", "time": 3, "note": 67, "velocity": 97, "channel": 0}, {"type": "note_off", "time": 77, "note": 67, "velocity": 97, "channel": 0}, {"type": "note_on", "time": 7, "note": 66, "velocity": 97, "channel": 0}, {"type": "note_off", "time": 85, "note": 66, "velocity": 97, "channel": 0}, {"type": "note_on", "time": 19, "note": 64, "velocity": 95, "channel": 0}, {"type": "note_off", "time": 85, "note": 64, "velocity": 95, "channel": 0}, {"type": "note_on", "time": 9, "note": 63, "velocity": 94, "channel": 0}, {"type": "note_off", "time": 112, "note": 63, "velocity": 94, "channel": 0}, {"type": "note_on", "time": 18, "note": 66, "velocity": 93, "channel": 0}, {"type": "note_off", "time": 73, "note": 66, "velocity": 93, "channel": 0}, {"type": "note_on", "time": 3, "note": 71, "velocity": 103, "channel": 0}, {"type": "note_off", "time": 93, "note": 71, "velocity": 103, "channel": 0}, {"type": "note_on", "time": 3, "note": 66, "velocity": 97, "channel": 0}, {"type": "note_off", "time": 70, "note": 66, "velocity": 97, "channel": 0}, {"type": "note_on", "time": 23, "note": 68, "velocity": 91, "channel": 0}, {"type": "note_off", "time": 38, "note": 68, "velocity": 91, "channel": 0}, {"type": "note_on", "time": 7, "note": 70, "velocity": 89, "channel": 0}, {"type": "note_off", "time": 38, "note": 70, "velocity": 89, "channel": 0}, {"type": "note_on", "time": 23, "note": 73, "velocity": 113, "channel": 0}, {"type": "note_off", "time": 97, "note": 73, "velocity": 113, "channel": 0}, {"type": "note_on", "time": 23, "note": 71, "velocity": 111, "channel": 0}, {"type": "note_off", "time": 89, "note": 71, "velocity": 111, "channel": 0}, {"type": "note_on", "time": 3, "note": 70, "velocity": 98, "channel": 0}, {"type": "note_off", "time": 58, "note": 70, "velocity": 98, "channel": 0}, {"type": "note_on", "time": 7, "note": 68, "velocity": 105, "channel": 0}, {"type": "note_off", "time": 97, "note": 68, "velocity": 105, "channel": 0}, {"type": "note_on", "time": 7, "note": 66, "velocity": 102, "channel": 0}, {"type": "note_off", "time": 93, "note": 66, "velocity": 102, "channel": 0}, {"type": "note_on", "time": 7, "note": 64, "velocity": 98, "channel": 0}, {"type": "note_off", "time": 85, "note": 64, "velocity": 98, "channel": 0}, {"type": "note_on", "time": 11, "note": 63, "velocity": 96, "channel": 0}, {"type": "note_off", "time": 101, "note": 63, "velocity": 96, "channel": 0}, {"type": "note_on", "time": 11, "note": 61, "velocity": 92, "channel": 0}, {"type": "note_off", "time": 70, "note": 61, "velocity": 92, "channel": 0}, {"type": "note_on", "time": 23, "note": 59, "velocity": 90, "channel": 0}, {"type": "note_off", "time": 101, "note": 59, "velocity": 90, "channel": 0}, {"type": "note_on", "time": 7, "note": 58, "velocity": 84, "channel": 0}, {"type": "note_off", "time": 77, "note": 58, "velocity": 84, "channel": 0}, {"type": "note_on", "time": 27, "note": 57, "velocity": 89, "channel": 0}, {"type": "note_off", "time": 145, "note": 57, "velocity": 89, "channel": 0}, {"type": "note_on", "time": 22, "note": 62, "velocity": 96, "channel": 0}, {"type": "note_off", "time": 89, "note": 62, "velocity": 96, "channel": 0}, {"type": "note_on", "time": 0, "note": 66, "velocity": 101, "channel": 0}, {"type": "note_off", "time": 81, "note": 66, "velocity": 101, "channel": 0}, {"type": "note_on", "time": 23, "note": 69, "velocity": 112, "channel": 0}, {"type": "note_off", "time": 112, "note": 69, "velocity": 112, "channel": 0}, {"type": "note_on", "time": 19, "note": 66, "velocity": 96, "channel": 0}, {"type": "note_off", "time": 260, "note": 66, "velocity": 96, "channel": 0}, {"type": "note_on", "time": 11, "note": 68, "velocity": 105, "channel": 0}, {"type": "note_off", "time": 108, "note": 68, "velocity": 105, "channel": 0}, {"type": "note_on", "time": 23, "note": 66, "velocity": 94, "channel": 0}, {"type": "note_off", "time": 221, "note": 66, "velocity": 94, "channel": 0}, {"type": "note_on", "time": 27, "note": 64, "velocity": 93, "channel": 0}, {"type": "note_off", "time": 182, "note": 64, "velocity": 93, "channel": 0}, {"type": "note_on", "time": 62, "note": 66, "velocity": 97, "channel": 0}, {"type": "note_off", "time": 186, "note": 66, "velocity": 97, "channel": 0}, {"type": "note_on", "time": 11, "note": 64, "velocity": 88, "channel": 0}, {"type": "note_off", "time": 272, "note": 64, "velocity": 88, "channel": 0}, {"type": "note_on", "time": 31, "note": 68, "velocity": 89, "channel": 0}, {"type": "note_off", "time": 276, "note": 68, "velocity": 89, "channel": 0}, {"type": "note_on", "time": 15, "note": 64, "velocity": 75, "channel": 0}, {"type": "note_off", "time": 58, "note": 64, "velocity": 75, "channel": 0}, {"type": "note_on", "time": 15, "note": 66, "velocity": 91, "channel": 0}, {"type": "note_off", "time": 299, "note": 66, "velocity": 91, "channel": 0}, {"type": "note_on", "time": 1031, "note": 71, "velocity": 102, "channel": 0}, {"type": "note_off", "time": 73, "note": 71, "velocity": 102, "channel": 0}, {"type": "note_on", "time": 19, "note": 72, "velocity": 106, "channel": 0}, {"type": "note_off", "time": 73, "note": 72, "velocity": 106, "channel": 0}, {"type": "note_on", "time": 19, "note": 76, "velocity": 118, "channel": 0}, {"type": "note_off", "time": 116, "note": 76, "velocity": 118, "channel": 0}, {"type": "note_on", "time": 27, "note": 67, "velocity": 106, "channel": 0}, {"type": "note_off", "time": 66, "note": 67, "velocity": 106, "channel": 0}, {"type": "note_on", "time": 15, "note": 69, "velocity": 97, "channel": 0}, {"type": "note_off", "time": 81, "note": 69, "velocity": 97, "channel": 0}, {"type": "note_on", "time": 19, "note": 71, "velocity": 102, "channel": 0}, {"type": "note_off", "time": 62, "note": 71, "velocity": 102, "channel": 0}, {"type": "note_on", "time": 19, "note": 74, "velocity": 112, "channel": 0}, {"type": "note_off", "time": 108, "note": 74, "velocity": 112, "channel": 0}, {"type": "note_on", "time": 7, "note": 72, "velocity": 112, "channel": 0}, {"type": "note_off", "time": 97, "note": 72, "velocity": 112, "channel": 0}, {"type": "note_on", "time": 11, "note": 71, "velocity": 111, "channel": 0}, {"type": "note_off", "time": 81, "note": 71, "velocity": 111, "channel": 0}, {"type": "note_on", "time": 0, "note": 69, "velocity": 100, "channel": 0}, {"type": "note_off", "time": 66, "note": 69, "velocity": 100, "channel": 0}, {"type": "note_on", "time": 7, "note": 67, "velocity": 103, "channel": 0}, {"type": "note_off", "time": 108, "note": 67, "velocity": 103, "channel": 0}, {"type": "note_on", "time": 7, "note": 66, "velocity": 91, "channel": 0}, {"type": "note_off", "time": 93, "note": 66, "velocity": 91, "channel": 0}, {"type": "note_on", "time": 15, "note": 69, "velocity": 111, "channel": 0}, {"type": "note_off", "time": 50, "note": 69, "velocity": 111, "channel": 0}, {"type": "note_on", "time": 27, "note": 66, "velocity": 99, "channel": 0}, {"type": "note_off", "time": 85, "note": 66, "velocity": 99, "channel": 0}, {"type": "note_on", "time": 11, "note": 67, "velocity": 93, "channel": 0}, {"type": "note_off", "time": 58, "note": 67, "velocity": 93, "channel": 0}, {"type": "note_on", "time": 31, "note": 69, "velocity": 97, "channel": 0}, {"type": "note_off", "time": 58, "note": 69, "velocity": 97, "channel": 0}, {"type": "note_on", "time": 15, "note": 71, "velocity": 92, "channel": 0}, {"type": "note_off", "time": 58, "note": 71, "velocity": 92, "channel": 0}, {"type": "note_on", "time": 31, "note": 72, "velocity": 90, "channel": 0}, {"type": "note_off", "time": 85, "note": 72, "velocity": 90, "channel": 0}, {"type": "note_on", "time": 15, "note": 74, "velocity": 114, "channel": 0}, {"type": "note_off", "time": 105, "note": 74, "velocity": 114, "channel": 0}, {"type": "note_on", "time": 3, "note": 73, "velocity": 106, "channel": 0}, {"type": "note_off", "time": 85, "note": 73, "velocity": 106, "channel": 0}, {"type": "note_on", "time": 0, "note": 72, "velocity": 112, "channel": 0}, {"type": "note_off", "time": 89, "note": 72, "velocity": 112, "channel": 0}, {"type": "note_on", "time": 15, "note": 71, "velocity": 110, "channel": 0}, {"type": "note_off", "time": 93, "note": 71, "velocity": 110, "channel": 0}, {"type": "note_on", "time": 7, "note": 69, "velocity": 103, "channel": 0}, {"type": "note_off", "time": 73, "note": 69, "velocity": 103, "channel": 0}, {"type": "note_on", "time": 3, "note": 67, "velocity": 98, "channel": 0}, {"type": "note_off", "time": 105, "note": 67, "velocity": 98, "channel": 0}, {"type": "note_on", "time": 3, "note": 66, "velocity": 95, "channel": 0}, {"type": "note_off", "time": 81, "note": 66, "velocity": 95, "channel": 0}, {"type": "note_on", "time": 15, "note": 67, "velocity": 88, "channel": 0}, {"type": "note_off", "time": 77, "note": 67, "velocity": 88, "channel": 0}, {"type": "note_on", "time": 15, "note": 69, "velocity": 115, "channel": 0}, {"type": "note_off", "time": 81, "note": 69, "velocity": 115, "channel": 0}, {"type": "note_on", "time": 19, "note": 66, "velocity": 109, "channel": 0}, {"type": "note_off", "time": 85, "note": 66, "velocity": 109, "channel": 0}, {"type": "note_on", "time": 7, "note": 67, "velocity": 110, "channel": 0}, {"type": "note_off", "time": 81, "note": 67, "velocity": 110, "channel": 0}, {"type": "note_on", "time": 10, "note": 70, "velocity": 101, "channel": 0}, {"type": "note_off", "time": 43, "note": 70, "velocity": 101, "channel": 0}, {"type": "note_on", "time": 9, "note": 74, "velocity": 110, "channel": 0}, {"type": "note_off", "time": 54, "note": 74, "velocity": 110, "channel": 0}, {"type": "note_on", "time": 11, "note": 77, "velocity": 117, "channel": 0}, {"type": "note_off", "time": 89, "note": 77, "velocity": 117, "channel": 0}, {"type": "note_on", "time": 15, "note": 76, "velocity": 126, "channel": 0}, {"type": "note_off", "time": 50, "note": 76, "velocity": 126, "channel": 0}, {"type": "note_on", "time": 15, "note": 75, "velocity": 119, "channel": 0}, {"type": "note_off", "time": 81, "note": 75, "velocity": 119, "channel": 0}, {"type": "note_on", "time": 0, "note": 73, "velocity": 120, "channel": 0}, {"type": "note_off", "time": 89, "note": 73, "velocity": 120, "channel": 0}, {"type": "note_on", "time": 23, "note": 72, "velocity": 110, "channel": 0}, {"type": "note_off", "time": 101, "note": 72, "velocity": 110, "channel": 0}, {"type": "note_on", "time": 11, "note": 70, "velocity": 101, "channel": 0}, {"type": "note_off", "time": 62, "note": 70, "velocity": 101, "channel": 0}, {"type": "note_on", "time": 15, "note": 69, "velocity": 102, "channel": 0}, {"type": "note_off", "time": 77, "note": 69, "velocity": 102, "channel": 0}, {"type": "note_on", "time": 11, "note": 67, "velocity": 101, "channel": 0}, {"type": "note_off", "time": 58, "note": 67, "velocity": 101, "channel": 0}, {"type": "note_on", "time": 19, "note": 65, "velocity": 98, "channel": 0}, {"type": "note_off", "time": 101, "note": 65, "velocity": 98, "channel": 0}, {"type": "note_on", "time": 7, "note": 64, "velocity": 92, "channel": 0}, {"type": "note_off", "time": 85, "note": 64, "velocity": 92, "channel": 0}, {"type": "note_on", "time": 11, "note": 63, "velocity": 97, "channel": 0}, {"type": "note_off", "time": 81, "note": 63, "velocity": 97, "channel": 0}, {"type": "note_on", "time": 3, "note": 65, "velocity": 109, "channel": 0}, {"type": "note_off", "time": 93, "note": 65, "velocity": 109, "channel": 0}, {"type": "note_on", "time": 27, "note": 66, "velocity": 104, "channel": 0}, {"type": "note_off", "time": 112, "note": 66, "velocity": 104, "channel": 0}, {"type": "note_on", "time": 3, "note": 69, "velocity": 107, "channel": 0}, {"type": "note_off", "time": 58, "note": 69, "velocity": 107, "channel": 0}, {"type": "note_on", "time": 15, "note": 72, "velocity": 111, "channel": 0}, {"type": "note_off", "time": 81, "note": 72, "velocity": 111, "channel": 0}, {"type": "note_on", "time": 8, "note": 77, "velocity": 98, "channel": 0}, {"type": "note_off", "time": 280, "note": 77, "velocity": 98, "channel": 0}, {"type": "note_on", "time": 10, "note": 72, "velocity": 108, "channel": 0}, {"type": "note_off", "time": 77, "note": 72, "velocity": 108, "channel": 0}, {"type": "note_on", "time": 3, "note": 77, "velocity": 91, "channel": 0}, {"type": "note_off", "time": 323, "note": 77, "velocity": 91, "channel": 0}, {"type": "note_on", "time": 875, "note": 74, "velocity": 114, "channel": 0}, {"type": "note_off", "time": 101, "note": 74, "velocity": 114, "channel": 0}, {"type": "note_on", "time": 3, "note": 75, "velocity": 114, "channel": 0}, {"type": "note_off", "time": 93, "note": 75, "velocity": 114, "channel": 0}, {"type": "note_on", "time": 0, "note": 74, "velocity": 118, "channel": 0}, {"type": "note_off", "time": 93, "note": 74, "velocity": 118, "channel": 0}, {"type": "note_on", "time": 15, "note": 72, "velocity": 111, "channel": 0}, {"type": "note_off", "time": 93, "note": 72, "velocity": 111, "channel": 0}, {"type": "note_on", "time": 15, "note": 70, "velocity": 108, "channel": 0}, {"type": "note_off", "time": 62, "note": 70, "velocity": 108, "channel": 0}, {"type": "note_on", "time": 3, "note": 69, "velocity": 101, "channel": 0}, {"type": "note_off", "time": 73, "note": 69, "velocity": 101, "channel": 0}, {"type": "note_on", "time": 19, "note": 72, "velocity": 114, "channel": 0}, {"type": "note_off", "time": 124, "note": 72, "velocity": 114, "channel": 0}, {"type": "note_on", "time": 19, "note": 69, "velocity": 113, "channel": 0}, {"type": "note_off", "time": 81, "note": 69, "velocity": 113, "channel": 0}, {"type": "note_on", "time": 3, "note": 70, "velocity": 97, "channel": 0}, {"type": "note_off", "time": 58, "note": 70, "velocity": 97, "channel": 0}, {"type": "note_on", "time": 11, "note": 72, "velocity": 89, "channel": 0}, {"type": "note_off", "time": 70, "note": 72, "velocity": 89, "channel": 0}, {"type": "note_on", "time": 7, "note": 74, "velocity": 111, "channel": 0}, {"type": "note_off", "time": 93, "note": 74, "velocity": 111, "channel": 0}, {"type": "note_on", "time": 31, "note": 75, "velocity": 110, "channel": 0}, {"type": "note_off", "time": 81, "note": 75, "velocity": 110, "channel": 0}, {"type": "note_on", "time": 11, "note": 77, "velocity": 122, "channel": 0}, {"type": "note_off", "time": 136, "note": 77, "velocity": 122, "channel": 0}, {"type": "note_on", "time": 3, "note": 76, "velocity": 118, "channel": 0}, {"type": "note_off", "time": 85, "note": 76, "velocity": 118, "channel": 0}, {"type": "note_on", "time": 15, "note": 75, "velocity": 113, "channel": 0}, {"type": "note_off", "time": 81, "note": 75, "velocity": 113, "channel": 0}, {"type": "note_on", "time": 7, "note": 74, "velocity": 116, "channel": 0}, {"type": "note_off", "time": 77, "note": 74, "velocity": 116, "channel": 0}, {"type": "note_on", "time": 15, "note": 72, "velocity": 104, "channel": 0}, {"type": "note_off", "time": 70, "note": 72, "velocity": 104, "channel": 0}, {"type": "note_on", "time": 19, "note": 70, "velocity": 107, "channel": 0}, {"type": "note_off", "time": 70, "note": 70, "velocity": 107, "channel": 0}, {"type": "note_on", "time": 15, "note": 69, "velocity": 98, "channel": 0}, {"type": "note_off", "time": 85, "note": 69, "velocity": 98, "channel": 0}, {"type": "note_on", "time": 11, "note": 70, "velocity": 97, "channel": 0}, {"type": "note_off", "time": 54, "note": 70, "velocity": 97, "channel": 0}, {"type": "note_on", "time": 15, "note": 72, "velocity": 114, "channel": 0}, {"type": "note_off", "time": 97, "note": 72, "velocity": 114, "channel": 0}, {"type": "note_on", "time": 19, "note": 65, "velocity": 104, "channel": 0}, {"type": "note_off", "time": 70, "note": 65, "velocity": 104, "channel": 0}, {"type": "note_on", "time": 27, "note": 67, "velocity": 95, "channel": 0}, {"type": "note_off", "time": 93, "note": 67, "velocity": 95, "channel": 0}, {"type": "note_on", "time": 7, "note": 68, "velocity": 98, "channel": 0}, {"type": "note_off", "time": 77, "note": 68, "velocity": 98, "channel": 0}, {"type": "note_on", "time": 3, "note": 70, "velocity": 115, "channel": 0}, {"type": "note_off", "time": 93, "note": 70, "velocity": 115, "channel": 0}, {"type": "note_on", "time": 15, "note": 69, "velocity": 111, "channel": 0}, {"type": "note_off", "time": 73, "note": 69, "velocity": 111, "channel": 0}, {"type": "note_on", "time": 15, "note": 68, "velocity": 99, "channel": 0}, {"type": "note_off", "time": 77, "note": 68, "velocity": 99, "channel": 0}, {"type": "note_on", "time": 7, "note": 67, "velocity": 94, "channel": 0}, {"type": "note_off", "time": 93, "note": 67, "velocity": 94, "channel": 0}, {"type": "note_on", "time": 7, "note": 65, "velocity": 99, "channel": 0}, {"type": "note_off", "time": 112, "note": 65, "velocity": 99, "channel": 0}, {"type": "note_on", "time": 3, "note": 63, "velocity": 87, "channel": 0}, {"type": "note_off", "time": 73, "note": 63, "velocity": 87, "channel": 0}, {"type": "note_on", "time": 15, "note": 62, "velocity": 88, "channel": 0}, {"type": "note_off", "time": 112, "note": 62, "velocity": 88, "channel": 0}, {"type": "note_on", "time": 64, "note": 65, "velocity": 95, "channel": 0}, {"type": "note_off", "time": 199, "note": 65, "velocity": 95, "channel": 0}, {"type": "note_on", "time": 49, "note": 65, "velocity": 81, "channel": 0}, {"type": "note_off", "time": 134, "note": 65, "velocity": 81, "channel": 0}, {"type": "note_on", "time": 805, "note": 77, "velocity": 117, "channel": 0}, {"type": "note_off", "time": 89, "note": 77, "velocity": 117, "channel": 0}, {"type": "note_on", "time": 11, "note": 76, "velocity": 116, "channel": 0}, {"type": "note_off", "time": 70, "note": 76, "velocity": 116, "channel": 0}, {"type": "note_on", "time": 12, "note": 75, "velocity": 114, "channel": 0}, {"type": "note_off", "time": 132, "note": 75, "velocity": 114, "channel": 0}, {"type": "note_on", "time": 30, "note": 66, "velocity": 105, "channel": 0}, {"type": "note_off", "time": 66, "note": 66, "velocity": 105, "channel": 0}, {"type": "note_on", "time": 15, "note": 65, "velocity": 102, "channel": 0}, {"type": "note_off", "time": 186, "note": 65, "velocity": 102, "channel": 0}, {"type": "note_on", "time": 19, "note": 63, "velocity": 91, "channel": 0}, {"type": "note_off", "time": 66, "note": 63, "velocity": 91, "channel": 0}, {"type": "note_on", "time": 27, "note": 65, "velocity": 101, "channel": 0}, {"type": "note_off", "time": 334, "note": 65, "velocity": 101, "channel": 0}, {"type": "note_on", "time": 7, "note": 63, "velocity": 95, "channel": 0}, {"type": "note_off", "time": 70, "note": 63, "velocity": 95, "channel": 0}, {"type": "note_on", "time": 27, "note": 65, "velocity": 108, "channel": 0}, {"type": "note_off", "time": 101, "note": 65, "velocity": 108, "channel": 0}, {"type": "note_on", "time": 7, "note": 63, "velocity": 93, "channel": 0}, {"type": "note_off", "time": 66, "note": 63, "velocity": 93, "channel": 0}, {"type": "note_on", "time": 23, "note": 58, "velocity": 78, "channel": 0}, {"type": "note_off", "time": 89, "note": 58, "velocity": 78, "channel": 0}, {"type": "note_on", "time": 3, "note": 60, "velocity": 83, "channel": 0}, {"type": "note_off", "time": 66, "note": 60, "velocity": 83, "channel": 0}, {"type": "note_on", "time": 25, "note": 62, "velocity": 93, "channel": 0}, {"type": "note_off", "time": 174, "note": 62, "velocity": 93, "channel": 0}, {"type": "note_on", "time": 86, "note": 62, "velocity": 87, "channel": 0}, {"type": "note_off", "time": 79, "note": 62, "velocity": 87, "channel": 0}, {"type": "note_on", "time": 603, "note": 65, "velocity": 112, "channel": 0}, {"type": "note_off", "time": 101, "note": 65, "velocity": 112, "channel": 0}, {"type": "note_on", "time": 7, "note": 67, "velocity": 104, "channel": 0}, {"type": "note_off", "time": 58, "note": 67, "velocity": 104, "channel": 0}, {"type": "note_on", "time": 15, "note": 69, "velocity": 105, "channel": 0}, {"type": "note_off", "time": 77, "note": 69, "velocity": 105, "channel": 0}, {"type": "note_on", "time": 19, "note": 70, "velocity": 103, "channel": 0}, {"type": "note_off", "time": 85, "note": 70, "velocity": 103, "channel": 0}, {"type": "note_on", "time": 15, "note": 72, "velocity": 114, "channel": 0}, {"type": "note_off", "time": 112, "note": 72, "velocity": 114, "channel": 0}, {"type": "note_on", "time": 11, "note": 70, "velocity": 114, "channel": 0}, {"type": "note_off", "time": 70, "note": 70, "velocity": 114, "channel": 0}, {"type": "note_on", "time": 15, "note": 69, "velocity": 101, "channel": 0}, {"type": "note_off", "time": 77, "note": 69, "velocity": 101, "channel": 0}, {"type": "note_on", "time": 15, "note": 70, "velocity": 99, "channel": 0}, {"type": "note_off", "time": 81, "note": 70, "velocity": 99, "channel": 0}, {"type": "note_on", "time": 0, "note": 64, "velocity": 112, "channel": 0}, {"type": "note_off", "time": 66, "note": 64, "velocity": 112, "channel": 0}, {"type": "note_on", "time": 19, "note": 66, "velocity": 106, "channel": 0}, {"type": "note_off", "time": 108, "note": 66, "velocity": 106, "channel": 0}, {"type": "note_on", "time": 19, "note": 67, "velocity": 96, "channel": 0}, {"type": "note_off", "time": 77, "note": 67, "velocity": 96, "channel": 0}, {"type": "note_on", "time": 3, "note": 69, "velocity": 86, "channel": 0}, {"type": "note_off", "time": 77, "note": 69, "velocity": 86, "channel": 0}, {"type": "note_on", "time": 11, "note": 73, "velocity": 116, "channel": 0}, {"type": "note_off", "time": 93, "note": 73, "velocity": 116, "channel": 0}, {"type": "note_on", "time": 27, "note": 68, "velocity": 108, "channel": 0}, {"type": "note_off", "time": 77, "note": 68, "velocity": 108, "channel": 0}, {"type": "note_on", "time": 23, "note": 64, "velocity": 88, "channel": 0}, {"type": "note_off", "time": 62, "note": 64, "velocity": 88, "channel": 0}, {"type": "note_on", "time": 27, "note": 60, "velocity": 81, "channel": 0}, {"type": "note_off", "time": 62, "note": 60, "velocity": 81, "channel": 0}, {"type": "note_on", "time": 27, "note": 70, "velocity": 108, "channel": 0}, {"type": "note_off", "time": 179, "note": 70, "velocity": 108, "channel": 0}, {"type": "note_on", "time": 11, "note": 69, "velocity": 104, "channel": 0}, {"type": "note_off", "time": 112, "note": 69, "velocity": 104, "channel": 0}, {"type": "note_on", "time": 3, "note": 67, "velocity": 102, "channel": 0}, {"type": "note_off", "time": 93, "note": 67, "velocity": 102, "channel": 0}, {"type": "note_on", "time": 11, "note": 65, "velocity": 100, "channel": 0}, {"type": "note_off", "time": 93, "note": 65, "velocity": 100, "channel": 0}, {"type": "note_on", "time": 3, "note": 63, "velocity": 93, "channel": 0}, {"type": "note_off", "time": 77, "note": 63, "velocity": 93, "channel": 0}, {"type": "note_on", "time": 16, "note": 62, "velocity": 80, "channel": 0}, {"type": "note_off", "time": 203, "note": 62, "velocity": 80, "channel": 0}, {"type": "note_on", "time": 28, "note": 62, "velocity": 81, "channel": 0}, {"type": "note_off", "time": 109, "note": 62, "velocity": 81, "channel": 0}, {"type": "note_on", "time": 552, "note": 62, "velocity": 105, "channel": 0}, {"type": "note_off", "time": 112, "note": 62, "velocity": 105, "channel": 0}, {"type": "note_on", "time": 15, "note": 60, "velocity": 90, "channel": 0}, {"type": "note_off", "time": 70, "note": 60, "velocity": 90, "channel": 0}, {"type": "note_on", "time": 3, "note": 62, "velocity": 107, "channel": 0}, {"type": "note_off", "time": 89, "note": 62, "velocity": 107, "channel": 0}, {"type": "note_on", "time": 9, "note": 60, "velocity": 97, "channel": 0}, {"type": "note_off", "time": 110, "note": 60, "velocity": 97, "channel": 0}, {"type": "note_on", "time": 6, "note": 58, "velocity": 88, "channel": 0}, {"type": "note_off", "time": 155, "note": 58, "velocity": 88, "channel": 0}, {"type": "note_on", "time": 36, "note": 60, "velocity": 101, "channel": 0}, {"type": "note_off", "time": 112, "note": 60, "velocity": 101, "channel": 0}, {"type": "note_on", "time": 23, "note": 57, "velocity": 85, "channel": 0}, {"type": "note_off", "time": 81, "note": 57, "velocity": 85, "channel": 0}, {"type": "note_on", "time": 15, "note": 58, "velocity": 76, "channel": 0}, {"type": "note_off", "time": 70, "note": 58, "velocity": 76, "channel": 0}, {"type": "note_on", "time": 3, "note": 60, "velocity": 85, "channel": 0}, {"type": "note_off", "time": 81, "note": 60, "velocity": 85, "channel": 0}, {"type": "note_on", "time": 23, "note": 62, "velocity": 97, "channel": 0}, {"type": "note_off", "time": 73, "note": 62, "velocity": 97, "channel": 0}, {"type": "note_on", "time": 23, "note": 63, "velocity": 95, "channel": 0}, {"type": "note_off", "time": 93, "note": 63, "velocity": 95, "channel": 0}, {"type": "note_on", "time": 11, "note": 65, "velocity": 111, "channel": 0}, {"type": "note_off", "time": 93, "note": 65, "velocity": 111, "channel": 0}, {"type": "note_on", "time": 15, "note": 64, "velocity": 101, "channel": 0}, {"type": "note_off", "time": 77, "note": 64, "velocity": 101, "channel": 0}, {"type": "note_on", "time": 11, "note": 63, "velocity": 101, "channel": 0}, {"type": "note_off", "time": 89, "note": 63, "velocity": 101, "channel": 0}, {"type": "note_on", "time": 3, "note": 62, "velocity": 96, "channel": 0}, {"type": "note_off", "time": 73, "note": 62, "velocity": 96, "channel": 0}, {"type": "note_on", "time": 11, "note": 60, "velocity": 92, "channel": 0}, {"type": "note_off", "time": 85, "note": 60, "velocity": 92, "channel": 0}, {"type": "note_on", "time": 11, "note": 58, "velocity": 90, "channel": 0}, {"type": "note_off", "time": 97, "note": 58, "velocity": 90, "channel": 0}, {"type": "note_on", "time": 15, "note": 57, "velocity": 88, "channel": 0}, {"type": "note_off", "time": 66, "note": 57, "velocity": 88, "channel": 0}, {"type": "note_on", "time": 11, "note": 58, "velocity": 81, "channel": 0}, {"type": "note_off", "time": 95, "note": 58, "velocity": 81, "channel": 0}, {"type": "note_on", "time": 5, "note": 60, "velocity": 87, "channel": 0}, {"type": "note_off", "time": 116, "note": 60, "velocity": 87, "channel": 0}, {"type": "note_on", "time": 3, "note": 62, "velocity": 90, "channel": 0}, {"type": "note_off", "time": 89, "note": 62, "velocity": 90, "channel": 0}, {"type": "note_on", "time": 31, "note": 58, "velocity": 86, "channel": 0}, {"type": "note_off", "time": 225, "note": 58, "velocity": 86, "channel": 0}, {"type": "end_of_track", "time": 0}]]}