{"ticks_per_beat": 192, "tracks": [[{"type": "track_name", "name": "Melody", "time": 0}, {"type": "set_tempo", "tempo": 384615, "time": 0}, {"type": "key_signature", "key": "Eb", "time": 0}, {"type": "time_signature", "numerator": 4, "denominator": 4, "clocks_per_click": 24, "notated_32nd_notes_per_beat": 8, "time": 0}, {"type": "note_on", "time": 1865, "note": 73, "velocity": 106, "channel": 0}, {"type": "note_off", "time": 179, "note": 73, "velocity": 106, "channel": 0}, {"type": "note_on", "time": 16, "note": 70, "velocity": 101, "channel": 0}, {"type": "note_off", "time": 89, "note": 70, "velocity": 101, "channel": 0}, {"type": "note_on", "time": 0, "note": 68, "velocity": 103, "channel": 0}, {"type": "note_off", "time": 75, "note": 68, "velocity": 103, "channel": 0}, {"type": "note_on", "time": 24, "note": 70, "velocity": 97, "channel": 0}, {"type": "note_off", "time": 79, "note": 70, "velocity": 97, "channel": 0}, {"type": "note_on", "time": 8, "note": 63, "velocity": 102, "channel": 0}, {"type": "note_off", "time": 107, "note": 63, "velocity": 102, "channel": 0}, {"type": "note_on", "time": 18, "note": 58, "velocity": 87, "channel": 0}, {"type": "note_off", "time": 38, "note": 58, "velocity": 87, "channel": 0}, {"type": "note_on", "time": 31, "note": 63, "velocity": 95, "channel": 0}, {"type": "note_off", "time": 185, "note": 63, "velocity": 95, "channel": 0}, {"type": "note_on", "time": 580, "note": 73, "velocity": 120, "channel": 0}, {"type": "note_off", "time": 218, "note": 73, "velocity": 120, "channel": 0}, {"type": "note_on", "time": 12, "note": 74, "velocity": 107, "channel": 0}, {"type": "note_off", "time": 44, "note": 74, "velocity": 107, "channel": 0}, {"type": "note_on", "time": 4, "note": 72, "velocity": 115, "channel": 0}, {"type": "note_off", "time": 26, "note": 72, "velocity": 115, "channel": 0}, {"type": "note_on", "time": 0, "note": 70, "velocity": 119, "channel": 0}, {"type": "note_off", "time": 59, "note": 70, "velocity": 119, "channel": 0}, {"type": "note_on", "time": 20, "note": 68, "velocity": 109, "channel": 0}, {"type": "note_off", "time": 85, "note": 68, "velocity": 109, "channel": 0}, {"type": "note_on", "time": 24, "note": 70, "velocity": 120, "channel": 0}, {"type": "note_off", "time": 69, "note": 70, "velocity": 120, "channel": 0}, {"type": "note_on", "time": 0, "note": 63, "velocity": 114, "channel": 0}, {"type": "note_off", "time": 83, "note": 63, "velocity": 114, "channel": 0}, {"type": "note_on", "time": 20, "note": 63, "velocity": 113, "channel": 0}, {"type": "note_off", "time": 85, "note": 63, "velocity": 113, "channel": 0}, {"type": "note_on", "time": 8, "note": 66, "velocity": 104, "channel": 0}, {"type": "note_off", "time": 169, "note": 66, "velocity": 104, "channel": 0}, {"type": "note_on", "time": 20, "note": 67, "velocity": 108, "channel": 0}, {"type": "note_off", "time": 191, "note": 67, "velocity": 108, "channel": 0}, {"type": "note_on", "time": 14, "note": 67, "velocity": 113, "channel": 0}, {"type": "note_off", "time": 146, "note": 67, "velocity": 113, "channel": 0}, {"type": "note_on", "time": 44, "note": 66, "velocity": 96, "channel": 0}, {"type": "note_off", "time": 69, "note": 66, "velocity": 96, "channel": 0}, {"type": "note_on", "time": 6, "note": 67, "velocity": 109, "channel": 0}, {"type": "note_off", "time": 195, "note": 67, "velocity": 109, "channel": 0}, {"type": "note_on", "time": 17, "note": 63, "velocity": 111, "channel": 0}, {"type": "note_off", "time": 71, "note": 63, "velocity": 111, "channel": 0}, {"type": "note_on", "time": 12, "note": 61, "velocity": 91, "channel": 0}, {"type": "note_off", "time": 44, "note": 61, "velocity": 91, "channel": 0}, {"type": "note_on", "time": 2, "note": 63, "velocity": 100, "channel": 0}, {"type": "note_off", "time": 16, "note": 63, "velocity": 100, "channel": 0}, {"type": "note_on", "time": 6, "note": 61, "velocity": 92, "channel": 0}, {"type": "note_off", "time": 38, "note": 61, "velocity": 92, "channel": 0}, {"type": "note_on", "time": 4, "note": 58, "velocity": 104, "channel": 0}, {"type": "note_off", "time": 89, "note": 58, "velocity": 104, "channel": 0}, {"type": "note_on", "time": 2, "note": 61, "velocity": 108, "channel": 0}, {"type": "note_off", "time": 71, "note": 61, "velocity": 108, "channel": 0}, {"type": "note_on", "time": 0, "note": 58, "velocity": 98, "channel": 0}, {"type": "note_off", "time": 81, "note": 58, "velocity": 98, "channel": 0}, {"type": "note_on", "time": 22, "note": 63, "velocity": 108, "channel": 0}, {"type": "note_off", "time": 121, "note": 63, "velocity": 108, "channel": 0}, {"type": "note_on", "time": 72, "note": 63, "velocity": 97, "channel": 0}, {"type": "note_off", "time": 211, "note": 63, "velocity": 97, "channel": 0}, {"type": "note_on", "time": 1216, "note": 70, "velocity": 106, "channel": 0}, {"type": "note_off", "time": 28, "note": 70, "velocity": 106, "channel": 0}, {"type": "note_on", "time": 7, "note": 73, "velocity": 98, "channel": 0}, {"type": "note_off", "time": 27, "note": 73, "velocity": 98, "channel": 0}, {"type": "note_on", "time": 17, "note": 75, "velocity": 115, "channel": 0}, {"type": "note_off", "time": 47, "note": 75, "velocity": 115, "channel": 0}, {"type": "note_on", "time": 44, "note": 75, "velocity": 113, "channel": 0}, {"type": "note_off", "time": 47, "note": 75, "velocity": 113, "channel": 0}, {"type": "note_on", "time": 49, "note": 75, "velocity": 110, "channel": 0}, {"type": "note_off", "time": 43, "note": 75, "velocity": 110, "channel": 0}, {"type": "note_on", "time": 49, "note": 70, "velocity": 109, "channel": 0}, {"type": "note_off", "time": 47, "note": 70, "velocity": 109, "channel": 0}, {"type": "note_on", "time": 65, "note": 73, "velocity": 119, "channel": 0}, {"type": "note_off", "time": 84, "note": 73, "velocity": 119, "channel": 0}, {"type": "note_on", "time": 4, "note": 75, "velocity": 123, "channel": 0}, {"type": "note_off", "time": 121, "note": 75, "velocity": 123, "channel": 0}, {"type": "note_on", "time": 0, "note": 77, "velocity": 110, "channel": 0}, {"type": "note_off", "time": 44, "note": 77, "velocity": 110, "channel": 0}, {"type": "note_on", "time": 11, "note": 75, "velocity": 107, "channel": 0}, {"type": "note_off", "time": 33, "note": 75, "velocity": 107, "channel": 0}, {"type": "note_on", "time": 2, "note": 74, "velocity": 116, "channel": 0}, {"type": "note_off", "time": 59, "note": 74, "velocity": 116, "channel": 0}, {"type": "note_on", "time": 5, "note": 73, "velocity": 113, "channel": 0}, {"type": "note_off", "time": 101, "note": 73, "velocity": 113, "channel": 0}, {"type": "note_on", "time": 24, "note": 77, "velocity": 119, "channel": 0}, {"type": "note_off", "time": 66, "note": 77, "velocity": 119, "channel": 0}, {"type": "note_on", "time": 17, "note": 74, "velocity": 110, "channel": 0}, {"type": "note_off", "time": 42, "note": 74, "velocity": 110, "channel": 0}, {"type": "note_on", "time": 1, "note": 72, "velocity": 117, "channel": 0}, {"type": "note_off", "time": 28, "note": 72, "velocity": 117, "channel": 0}, {"type": "note_on", "time": 5, "note": 71, "velocity": 124, "channel": 0}, {"type": "note_off", "time": 89, "note": 71, "velocity": 124, "channel": 0}, {"type": "note_on", "time": 15, "note": 70, "velocity": 122, "channel": 0}, {"type": "note_off", "time": 78, "note": 70, "velocity": 122, "channel": 0}, {"type": "note_on", "time": 1, "note": 69, "velocity": 123, "channel": 0}, {"type": "note_off", "time": 95, "note": 69, "velocity": 123, "channel": 0}, {"type": "note_on", "time": 18, "note": 68, "velocity": 92, "channel": 0}, {"type": "note_off", "time": 155, "note": 68, "velocity": 92, "channel": 0}, {"type": "note_on", "time": 13, "note": 68, "velocity": 111, "channel": 0}, {"type": "note_off", "time": 114, "note": 68, "velocity": 111, "channel": 0}, {"type": "note_on", "time": 7, "note": 68, "velocity": 103, "channel": 0}, {"type": "note_off", "time": 62, "note": 68, "velocity": 103, "channel": 0}, {"type": "note_on", "time": 7, "note": 68, "velocity": 111, "channel": 0}, {"type": "note_off", "time": 107, "note": 68, "velocity": 111, "channel": 0}, {"type": "note_on", "time": 2, "note": 68, "velocity": 101, "channel": 0}, {"type": "note_off", "time": 91, "note": 68, "velocity": 101, "channel": 0}, {"type": "note_on", "time": 7, "note": 68, "velocity": 111, "channel": 0}, {"type": "note_off", "time": 88, "note": 68, "velocity": 111, "channel": 0}, {"type": "note_on", "time": 13, "note": 68, "velocity": 96, "channel": 0}, {"type": "note_off", "time": 69, "note": 68, "velocity": 96, "channel": 0}, {"type": "note_on", "time": 4, "note": 66, "velocity": 107, "channel": 0}, {"type": "note_off", "time": 189, "note": 66, "velocity": 107, "channel": 0}, {"type": "note_on", "time": 1, "note": 68, "velocity": 101, "channel": 0}, {"type": "note_off", "time": 105, "note": 68, "velocity": 101, "channel": 0}, {"type": "note_on", "time": 0, "note": 70, "velocity": 101, "channel": 0}, {"type": "note_off", "time": 91, "note": 70, "velocity": 101, "channel": 0}, {"type": "note_on", "time": 102, "note": 66, "velocity": 107, "channel": 0}, {"type": "note_off", "time": 86, "note": 66, "velocity": 107, "channel": 0}, {"type": "note_on", "time": 2, "note": 63, "velocity": 87, "channel": 0}, {"type": "note_off", "time": 110, "note": 63, "velocity": 87, "channel": 0}, {"type": "note_on", "time": 7, "note": 63, "velocity": 98, "channel": 0}, {"type": "note_off", "time": 50, "note": 63, "velocity": 98, "channel": 0}, {"type": "note_on", "time": 7, "note": 63, "velocity": 99, "channel": 0}, {"type": "note_off", "time": 105, "note": 63, "velocity": 99, "channel": 0}, {"type": "note_on", "time": 74, "note": 65, "velocity": 114, "channel": 0}, {"type": "note_off", "time": 104, "note": 65, "velocity": 114, "channel": 0}, {"type": "note_on", "time": 15, "note": 68, "velocity": 101, "channel": 0}, {"type": "note_off", "time": 91, "note": 68, "velocity": 101, "channel": 0}, {"type": "note_on", "time": 8, "note": 68, "velocity": 119, "channel": 0}, {"type": "note_off", "time": 69, "note": 68, "velocity": 119, "channel": 0}, {"type": "note_on", "time": 10, "note": 68, "velocity": 117, "channel": 0}, {"type": "note_off", "time": 50, "note": 68, "velocity": 117, "channel": 0}, {"type": "note_on", "time": 30, "note": 68, "velocity": 118, "channel": 0}, {"type": "note_off", "time": 56, "note": 68, "velocity": 118, "channel": 0}, {"type": "note_on", "time": 42, "note": 68, "velocity": 114, "channel": 0}, {"type": "note_off", "time": 91, "note": 68, "velocity": 114, "channel": 0}, {"type": "note_on", "time": 2, "note": 66, "velocity": 104, "channel": 0}, {"type": "note_off", "time": 181, "note": 66, "velocity": 104, "channel": 0}, {"type": "note_on", "time": 5, "note": 68, "velocity": 95, "channel": 0}, {"type": "note_off", "time": 98, "note": 68, "velocity": 95, "channel": 0}, {"type": "note_on", "time": 55, "note": 68, "velocity": 101, "channel": 0}, {"type": "note_off", "time": 33, "note": 68, "velocity": 101, "channel": 0}, {"type": "note_on", "time": 5, "note": 70, "velocity": 98, "channel": 0}, {"type": "note_off", "time": 36, "note": 70, "velocity": 98, "channel": 0}, {"type": "note_on", "time": 78, "note": 63, "velocity": 105, "channel": 0}, {"type": "note_off", "time": 308, "note": 63, "velocity": 105, "channel": 0}, {"type": "note_on", "time": 0, "note": 70, "velocity": 98, "channel": 0}, {"type": "note_on", "time": 24, "note": 68, "velocity": 103, "channel": 0}, {"type": "note_off", "time": 0, "note": 70, "velocity": 98, "channel": 0}, {"type": "note_off", "time": 43, "note": 68, "velocity": 103, "channel": 0}, {"type": "note_on", "time": 7, "note": 67, "velocity": 105, "channel": 0}, {"type": "note_off", "time": 69, "note": 67, "velocity": 105, "channel": 0}, {"type": "note_on", "time": 21, "note": 63, "velocity": 104, "channel": 0}, {"type": "note_off", "time": 98, "note": 63, "velocity": 104, "channel": 0}, {"type": "note_on", "time": 81, "note": 61, "velocity": 92, "channel": 0}, {"type": "note_off", "time": 94, "note": 61, "velocity": 92, "channel": 0}, {"type": "note_on", "time": 7, "note": 63, "velocity": 88, "channel": 0}, {"type": "note_off", "time": 297, "note": 63, "velocity": 88, "channel": 0}, {"type": "note_on", "time": 462, "note": 67, "velocity": 108, "channel": 0}, {"type": "note_off", "time": 47, "note": 67, "velocity": 108, "channel": 0}, {"type": "note_on", "time": 62, "note": 70, "velocity": 120, "channel": 0}, {"type": "note_off", "time": 30, "note": 70, "velocity": 120, "channel": 0}, {"type": "note_on", "time": 0, "note": 68, "velocity": 113, "channel": 0}, {"type": "note_off", "time": 33, "note": 68, "velocity": 113, "channel": 0}, {"type": "note_on", "time": 5, "note": 67, "velocity": 110, "channel": 0}, {"type": "note_off", "time": 76, "note": 67, "velocity": 110, "channel": 0}, {"type": "note_on", "time": 28, "note": 68, "velocity": 118, "channel": 0}, {"type": "note_off", "time": 42, "note": 68, "velocity": 118, "channel": 0}, {"type": "note_on", "time": 4, "note": 67, "velocity": 116, "channel": 0}, {"type": "note_off", "time": 56, "note": 67, "velocity": 116, "channel": 0}, {"type": "note_on", "time": 8, "note": 68, "velocity": 110, "channel": 0}, {"type": "note_off", "time": 55, "note": 68, "velocity": 110, "channel": 0}, {"type": "note_on", "time": 7, "note": 67, "velocity": 111, "channel": 0}, {"type": "note_off", "time": 52, "note": 67, "velocity": 111, "channel": 0}, {"type": "note_on", "time": 47, "note": 63, "velocity": 92, "channel": 0}, {"type": "note_off", "time": 53, "note": 63, "velocity": 92, "channel": 0}, {"type": "note_on", "time": 159, "note": 68, "velocity": 117, "channel": 0}, {"type": "note_off", "time": 86, "note": 68, "velocity": 117, "channel": 0}, {"type": "note_on", "time": 8, "note": 67, "velocity": 113, "channel": 0}, {"type": "note_off", "time": 78, "note": 67, "velocity": 113, "channel": 0}, {"type": "note_on", "time": 5, "note": 63, "velocity": 97, "channel": 0}, {"type": "note_off", "time": 40, "note": 63, "velocity": 97, "channel": 0}, {"type": "note_on", "time": 69, "note": 68, "velocity": 118, "channel": 0}, {"type": "note_off", "time": 15, "note": 68, "velocity": 118, "channel": 0}, {"type": "note_on", "time": 5, "note": 67, "velocity": 114, "channel": 0}, {"type": "note_off", "time": 55, "note": 67, "velocity": 114, "channel": 0}, {"type": "note_on", "time": 7, "note": 68, "velocity": 104, "channel": 0}, {"type": "note_off", "time": 133, "note": 68, "velocity": 104, "channel": 0}, {"type": "note_on", "time": 7, "note": 67, "velocity": 106, "channel": 0}, {"type": "note_off", "time": 55, "note": 67, "velocity": 106, "channel": 0}, {"type": "note_on", "time": 21, "note": 65, "velocity": 117, "channel": 0}, {"type": "note_off", "time": 52, "note": 65, "velocity": 117, "channel": 0}, {"type": "note_on", "time": 4, "note": 64, "velocity": 96, "channel": 0}, {"type": "note_off", "time": 24, "note": 64, "velocity": 96, "channel": 0}, {"type": "note_on", "time": 4, "note": 65, "velocity": 110, "channel": 0}, {"type": "note_off", "time": 15, "note": 65, "velocity": 110, "channel": 0}, {"type": "note_on", "time": 7, "note": 63, "velocity": 107, "channel": 0}, {"type": "note_off", "time": 31, "note": 63, "velocity": 107, "channel": 0}, {"type": "note_on", "time": 2, "note": 61, "velocity": 110, "channel": 0}, {"type": "note_off", "time": 97, "note": 61, "velocity": 110, "channel": 0}, {"type": "note_on", "time": 0, "note": 60, "velocity": 106, "channel": 0}, {"type": "note_off", "time": 88, "note": 60, "velocity": 106, "channel": 0}, {"type": "note_on", "time": 2, "note": 58, "velocity": 112, "channel": 0}, {"type": "note_off", "time": 86, "note": 58, "velocity": 112, "channel": 0}, {"type": "note_on", "time": 0, "note": 56, "velocity": 99, "channel": 0}, {"type": "note_off", "time": 124, "note": 56, "velocity": 99, "channel": 0}, {"type": "note_on", "time": 13, "note": 58, "velocity": 105, "channel": 0}, {"type": "note_off", "time": 49, "note": 58, "velocity": 105, "channel": 0}, {"type": "note_on", "time": 2, "note": 60, "velocity": 101, "channel": 0}, {"type": "note_off", "time": 182, "note": 60, "velocity": 101, "channel": 0}, {"type": "note_on", "time": 28, "note": 53, "velocity": 101, "channel": 0}, {"type": "note_off", "time": 330, "note": 53, "velocity": 101, "channel": 0}, {"type": "note_on", "time": 964, "note": 65, "velocity": 108, "channel": 0}, {"type": "note_off", "time": 101, "note": 65, "velocity": 108, "channel": 0}, {"type": "note_on", "time": 15, "note": 67, "velocity": 105, "channel": 0}, {"type": "note_off", "time": 72, "note": 67, "velocity": 105, "channel": 0}, {"type": "note_on", "time": 8, "note": 68, "velocity": 104, "channel": 0}, {"type": "note_off", "time": 91, "note": 68, "velocity": 104, "channel": 0}, {"type": "note_on", "time": 10, "note": 70, "velocity": 124, "channel": 0}, {"type": "note_off", "time": 98, "note": 70, "velocity": 124, "channel": 0}, {"type": "note_on", "time": 7, "note": 72, "velocity": 117, "channel": 0}, {"type": "note_off", "time": 75, "note": 72, "velocity": 117, "channel": 0}, {"type": "note_on", "time": 1, "note": 77, "velocity": 104, "channel": 0}, {"type": "note_off", "time": 50, "note": 77, "velocity": 104, "channel": 0}, {"type": "note_on", "time": 0, "note": 75, "velocity": 122, "channel": 0}, {"type": "note_off", "time": 59, "note": 75, "velocity": 122, "channel": 0}, {"type": "note_on", "time": 4, "note": 74, "velocity": 107, "channel": 0}, {"type": "note_off", "time": 79, "note": 74, "velocity": 107, "channel": 0}, {"type": "note_on", "time": 20, "note": 73, "velocity": 118, "channel": 0}, {"type": "note_off", "time": 89, "note": 73, "velocity": 118, "channel": 0}, {"type": "note_on", "time": 13, "note": 74, "velocity": 104, "channel": 0}, {"type": "note_off", "time": 30, "note": 74, "velocity": 104, "channel": 0}, {"type": "note_on", "time": 2, "note": 72, "velocity": 118, "channel": 0}, {"type": "note_off", "time": 30, "note": 72, "velocity": 118, "channel": 0}, {"type": "note_on", "time": 4, "note": 71, "velocity": 122, "channel": 0}, {"type": "note_off", "time": 92, "note": 71, "velocity": 122, "channel": 0}, {"type": "note_on", "time": 4, "note": 70, "velocity": 116, "channel": 0}, {"type": "note_off", "time": 87, "note": 70, "velocity": 116, "channel": 0}, {"type": "note_on", "time": 10, "note": 68, "velocity": 117, "channel": 0}, {"type": "note_off", "time": 85, "note": 68, "velocity": 117, "channel": 0}, {"type": "note_on", "time": 10, "note": 67, "velocity": 101, "channel": 0}, {"type": "note_off", "time": 73, "note": 67, "velocity": 101, "channel": 0}, {"type": "note_on", "time": 20, "note": 70, "velocity": 117, "channel": 0}, {"type": "note_off", "time": 83, "note": 70, "velocity": 117, "channel": 0}, {"type": "note_on", "time": 18, "note": 63, "velocity": 114, "channel": 0}, {"type": "note_off", "time": 112, "note": 63, "velocity": 114, "channel": 0}, {"type": "note_on", "time": 2, "note": 58, "velocity": 89, "channel": 0}, {"type": "note_off", "time": 37, "note": 58, "velocity": 89, "channel": 0}, {"type": "note_on", "time": 11, "note": 63, "velocity": 92, "channel": 0}, {"type": "note_off", "time": 203, "note": 63, "velocity": 92, "channel": 0}, {"type": "note_on", "time": 780, "note": 67, "velocity": 108, "channel": 0}, {"type": "note_off", "time": 36, "note": 67, "velocity": 108, "channel": 0}, {"type": "note_on", "time": 8, "note": 66, "velocity": 103, "channel": 0}, {"type": "note_off", "time": 38, "note": 66, "velocity": 103, "channel": 0}, {"type": "note_on", "time": 10, "note": 68, "velocity": 118, "channel": 0}, {"type": "note_off", "time": 252, "note": 68, "velocity": 118, "channel": 0}, {"type": "note_on", "time": 14, "note": 66, "velocity": 114, "channel": 0}, {"type": "note_off", "time": 83, "note": 66, "velocity": 114, "channel": 0}, {"type": "note_on", "time": 12, "note": 67, "velocity": 105, "channel": 0}, {"type": "note_off", "time": 83, "note": 67, "velocity": 105, "channel": 0}, {"type": "note_on", "time": 14, "note": 63, "velocity": 108, "channel": 0}, {"type": "note_off", "time": 101, "note": 63, "velocity": 108, "channel": 0}, {"type": "note_on", "time": 18, "note": 58, "velocity": 87, "channel": 0}, {"type": "note_off", "time": 65, "note": 58, "velocity": 87, "channel": 0}, {"type": "note_on", "time": 10, "note": 61, "velocity": 90, "channel": 0}, {"type": "note_off", "time": 85, "note": 61, "velocity": 90, "channel": 0}, {"type": "note_on", "time": 8, "note": 63, "velocity": 92, "channel": 0}, {"type": "note_off", "time": 213, "note": 63, "velocity": 92, "channel": 0}, {"type": "note_on", "time": 1132, "note": 70, "velocity": 109, "channel": 0}, {"type": "note_off", "time": 50, "note": 70, "velocity": 109, "channel": 0}, {"type": "note_on", "time": 148, "note": 75, "velocity": 123, "channel": 0}, {"type": "note_off", "time": 61, "note": 75, "velocity": 123, "channel": 0}, {"type": "note_on", "time": 124, "note": 80, "velocity": 120, "channel": 0}, {"type": "note_off", "time": 73, "note": 80, "velocity": 120, "channel": 0}, {"type": "note_on", "time": 126, "note": 78, "velocity": 125, "channel": 0}, {"type": "note_off", "time": 77, "note": 78, "velocity": 125, "channel": 0}, {"type": "note_on", "time": 8, "note": 79, "velocity": 117, "channel": 0}, {"type": "note_off", "time": 82, "note": 79, "velocity": 117, "channel": 0}, {"type": "note_on", "time": 2, "note": 75, "velocity": 122, "channel": 0}, {"type": "note_off", "time": 91, "note": 75, "velocity": 122, "channel": 0}, {"type": "note_on", "time": 2, "note": 73, "velocity": 99, "channel": 0}, {"type": "note_off", "time": 24, "note": 73, "velocity": 99, "channel": 0}, {"type": "note_on", "time": 0, "note": 74, "velocity": 112, "channel": 0}, {"type": "note_off", "time": 28, "note": 74, "velocity": 112, "channel": 0}, {"type": "note_on", "time": 0, "note": 73, "velocity": 116, "channel": 0}, {"type": "note_off", "time": 50, "note": 73, "velocity": 116, "channel": 0}, {"type": "note_on", "time": 1, "note": 70, "velocity": 122, "channel": 0}, {"type": "note_off", "time": 85, "note": 70, "velocity": 122, "channel": 0}, {"type": "note_on", "time": 2, "note": 68, "velocity": 107, "channel": 0}, {"type": "note_off", "time": 91, "note": 68, "velocity": 107, "channel": 0}, {"type": "note_on", "time": 18, "note": 70, "velocity": 115, "channel": 0}, {"type": "note_off", "time": 81, "note": 70, "velocity": 115, "channel": 0}, {"type": "note_on", "time": 18, "note": 66, "velocity": 103, "channel": 0}, {"type": "note_off", "time": 91, "note": 66, "velocity": 103, "channel": 0}, {"type": "note_on", "time": 0, "note": 67, "velocity": 92, "channel": 0}, {"type": "note_off", "time": 40, "note": 67, "velocity": 92, "channel": 0}, {"type": "note_on", "time": 1472, "note": 70, "velocity": 105, "channel": 0}, {"type": "note_off", "time": 57, "note": 70, "velocity": 105, "channel": 0}, {"type": "note_on", "time": 61, "note": 78, "velocity": 117, "channel": 0}, {"type": "note_off", "time": 46, "note": 78, "velocity": 117, "channel": 0}, {"type": "note_on", "time": 8, "note": 82, "velocity": 125, "channel": 0}, {"type": "note_off", "time": 75, "note": 82, "velocity": 125, "channel": 0}, {"type": "note_on", "time": 28, "note": 82, "velocity": 125, "channel": 0}, {"type": "note_off", "time": 63, "note": 82, "velocity": 125, "channel": 0}, {"type": "note_on", "time": 0, "note": 80, "velocity": 124, "channel": 0}, {"type": "note_off", "time": 215, "note": 80, "velocity": 124, "channel": 0}, {"type": "note_on", "time": 12, "note": 82, "velocity": 111, "channel": 0}, {"type": "note_off", "time": 71, "note": 82, "velocity": 111, "channel": 0}, {"type": "note_on", "time": 49, "note": 78, "velocity": 127, "channel": 0}, {"type": "note_off", "time": 62, "note": 78, "velocity": 127, "channel": 0}, {"type": "note_on", "time": 7, "note": 79, "velocity": 114, "channel": 0}, {"type": "note_off", "time": 60, "note": 79, "velocity": 114, "channel": 0}, {"type": "note_on", "time": 33, "note": 80, "velocity": 122, "channel": 0}, {"type": "note_off", "time": 73, "note": 80, "velocity": 122, "channel": 0}, {"type": "note_on", "time": 57, "note": 79, "velocity": 123, "channel": 0}, {"type": "note_off", "time": 79, "note": 79, "velocity": 123, "channel": 0}, {"type": "note_on", "time": 27, "note": 81, "velocity": 116, "channel": 0}, {"type": "note_off", "time": 39, "note": 81, "velocity": 116, "channel": 0}, {"type": "note_on", "time": 0, "note": 77, "velocity": 107, "channel": 0}, {"type": "note_off", "time": 26, "note": 77, "velocity": 107, "channel": 0}, {"type": "note_on", "time": 0, "note": 75, "velocity": 122, "channel": 0}, {"type": "note_off", "time": 76, "note": 75, "velocity": 122, "channel": 0}, {"type": "note_on", "time": 26, "note": 70, "velocity": 122, "channel": 0}, {"type": "note_off", "time": 81, "note": 70, "velocity": 122, "channel": 0}, {"type": "note_on", "time": 13, "note": 68, "velocity": 117, "channel": 0}, {"type": "note_off", "time": 47, "note": 68, "velocity": 117, "channel": 0}, {"type": "note_on", "time": 2, "note": 70, "velocity": 116, "channel": 0}, {"type": "note_off", "time": 65, "note": 70, "velocity": 116, "channel": 0}, {"type": "note_on", "time": 28, "note": 65, "velocity": 107, "channel": 0}, {"type": "note_off", "time": 23, "note": 65, "velocity": 107, "channel": 0}, {"type": "note_on", "time": 5, "note": 67, "velocity": 108, "channel": 0}, {"type": "note_off", "time": 92, "note": 67, "velocity": 108, "channel": 0}, {"type": "note_on", "time": 654, "note": 84, "velocity": 122, "channel": 0}, {"type": "note_off", "time": 150, "note": 84, "velocity": 122, "channel": 0}, {"type": "note_on", "time": 4, "note": 82, "velocity": 104, "channel": 0}, {"type": "note_off", "time": 44, "note": 82, "velocity": 104, "channel": 0}, {"type": "note_on", "time": 1, "note": 80, "velocity": 123, "channel": 0}, {"type": "note_off", "time": 89, "note": 80, "velocity": 123, "channel": 0}, {"type": "note_on", "time": 4, "note": 79, "velocity": 124, "channel": 0}, {"type": "note_off", "time": 86, "note": 79, "velocity": 124, "channel": 0}, {"type": "note_on", "time": 10, "note": 76, "velocity": 124, "channel": 0}, {"type": "note_off", "time": 73, "note": 76, "velocity": 124, "channel": 0}, {"type": "note_on", "time": 20, "note": 77, "velocity": 126, "channel": 0}, {"type": "note_off", "time": 89, "note": 77, "velocity": 126, "channel": 0}, {"type": "note_on", "time": 1, "note": 76, "velocity": 126, "channel": 0}, {"type": "note_off", "time": 88, "note": 76, "velocity": 126, "channel": 0}, {"type": "note_on", "time": 27, "note": 75, "velocity": 125, "channel": 0}, {"type": "note_off", "time": 89, "note": 75, "velocity": 125, "channel": 0}, {"type": "note_on", "time": 8, "note": 70, "velocity": 98, "channel": 0}, {"type": "note_off", "time": 46, "note": 70, "velocity": 98, "channel": 0}, {"type": "note_on", "time": 31, "note": 73, "velocity": 113, "channel": 0}, {"type": "note_off", "time": 86, "note": 73, "velocity": 113, "channel": 0}, {"type": "note_on", "time": 11, "note": 75, "velocity": 124, "channel": 0}, {"type": "note_off", "time": 102, "note": 75, "velocity": 124, "channel": 0}, {"type": "note_on", "time": 11, "note": 72, "velocity": 102, "channel": 0}, {"type": "note_off", "time": 59, "note": 72, "velocity": 102, "channel": 0}, {"type": "note_on", "time": 33, "note": 73, "velocity": 120, "channel": 0}, {"type": "note_off", "time": 95, "note": 73, "velocity": 120, "channel": 0}, {"type": "note_on", "time": 5, "note": 70, "velocity": 98, "channel": 0}, {"type": "note_off", "time": 59, "note": 70, "velocity": 98, "channel": 0}, {"type": "note_on", "time": 15, "note": 71, "velocity": 122, "channel": 0}, {"type": "note_off", "time": 102, "note": 71, "velocity": 122, "channel": 0}, {"type": "note_on", "time": 18, "note": 74, "velocity": 101, "channel": 0}, {"type": "note_off", "time": 37, "note": 74, "velocity": 101, "channel": 0}, {"type": "note_on", "time": 4, "note": 72, "velocity": 113, "channel": 0}, {"type": "note_off", "time": 36, "note": 72, "velocity": 113, "channel": 0}, {"type": "note_on", "time": 4, "note": 71, "velocity": 123, "channel": 0}, {"type": "note_off", "time": 92, "note": 71, "velocity": 123, "channel": 0}, {"type": "note_on", "time": 14, "note": 70, "velocity": 121, "channel": 0}, {"type": "note_off", "time": 65, "note": 70, "velocity": 121, "channel": 0}, {"type": "note_on", "time": 11, "note": 69, "velocity": 120, "channel": 0}, {"type": "note_off", "time": 84, "note": 69, "velocity": 120, "channel": 0}, {"type": "note_on", "time": 44, "note": 70, "velocity": 96, "channel": 0}, {"type": "note_off", "time": 20, "note": 70, "velocity": 96, "channel": 0}, {"type": "note_on", "time": 2, "note": 68, "velocity": 98, "channel": 0}, {"type": "note_off", "time": 23, "note": 68, "velocity": 98, "channel": 0}, {"type": "note_on", "time": 5, "note": 67, "velocity": 119, "channel": 0}, {"type": "note_off", "time": 88, "note": 67, "velocity": 119, "channel": 0}, {"type": "note_on", "time": 14, "note": 66, "velocity": 105, "channel": 0}, {"type": "note_off", "time": 102, "note": 66, "velocity": 105, "channel": 0}, {"type": "note_on", "time": 4, "note": 70, "velocity": 120, "channel": 0}, {"type": "note_off", "time": 75, "note": 70, "velocity": 120, "channel": 0}, {"type": "note_on", "time": 104, "note": 66, "velocity": 118, "channel": 0}, {"type": "note_off", "time": 78, "note": 66, "velocity": 118, "channel": 0}, {"type": "note_on", "time": 4, "note": 62, "velocity": 103, "channel": 0}, {"type": "note_off", "time": 95, "note": 62, "velocity": 103, "channel": 0}, {"type": "note_on", "time": 44, "note": 63, "velocity": 106, "channel": 0}, {"type": "note_off", "time": 57, "note": 63, "velocity": 106, "channel": 0}, {"type": "note_on", "time": 23, "note": 65, "velocity": 111, "channel": 0}, {"type": "note_off", "time": 149, "note": 65, "velocity": 111, "channel": 0}, {"type": "note_on", "time": 8, "note": 63, "velocity": 111, "channel": 0}, {"type": "note_off", "time": 108, "note": 63, "velocity": 111, "channel": 0}, {"type": "note_on", "time": 5, "note": 60, "velocity": 108, "channel": 0}, {"type": "note_off", "time": 66, "note": 60, "velocity": 108, "channel": 0}, {"type": "note_on", "time": 7, "note": 61, "velocity": 102, "channel": 0}, {"type": "note_off", "time": 43, "note": 61, "velocity": 102, "channel": 0}, {"type": "note_on", "time": 1, "note": 63, "velocity": 90, "channel": 0}, {"type": "note_off", "time": 52, "note": 63, "velocity": 90, "channel": 0}, {"type": "note_on", "time": 4, "note": 58, "velocity": 94, "channel": 0}, {"type": "note_off", "time": 78, "note": 58, "velocity": 94, "channel": 0}, {"type": "note_on", "time": 1, "note": 63, "velocity": 105, "channel": 0}, {"type": "note_off", "time": 97, "note": 63, "velocity": 105, "channel": 0}, {"type": "note_on", "time": 13, "note": 59, "velocity": 90, "channel": 0}, {"type": "note_off", "time": 72, "note": 59, "velocity": 90, "channel": 0}, {"type": "note_on", "time": 20, "note": 62, "velocity": 112, "channel": 0}, {"type": "note_off", "time": 105, "note": 62, "velocity": 112, "channel": 0}, {"type": "note_on", "time": 21, "note": 60, "velocity": 103, "channel": 0}, {"type": "note_off", "time": 56, "note": 60, "velocity": 103, "channel": 0}, {"type": "note_on", "time": 21, "note": 63, "velocity": 113, "channel": 0}, {"type": "note_off", "time": 92, "note": 63, "velocity": 113, "channel": 0}, {"type": "note_on", "time": 8, "note": 62, "velocity": 99, "channel": 0}, {"type": "note_off", "time": 52, "note": 62, "velocity": 99, "channel": 0}, {"type": "note_on", "time": 10, "note": 63, "velocity": 93, "channel": 0}, {"type": "note_off", "time": 252, "note": 63, "velocity": 93, "channel": 0}, {"type": "note_on", "time": 820, "note": 63, "velocity": 97, "channel": 0}, {"type": "note_off", "time": 55, "note": 63, "velocity": 97, "channel": 0}, {"type": "note_on", "time": 62, "note": 65, "velocity": 109, "channel": 0}, {"type": "note_off", "time": 68, "note": 65, "velocity": 109, "channel": 0}, {"type": "note_on", "time": 7, "note": 67, "velocity": 118, "channel": 0}, {"type": "note_off", "time": 84, "note": 67, "velocity": 118, "channel": 0}, {"type": "note_on", "time": 17, "note": 68, "velocity": 117, "channel": 0}, {"type": "note_off", "time": 75, "note": 68, "velocity": 117, "channel": 0}, {"type": "note_on", "time": 5, "note": 69, "velocity": 123, "channel": 0}, {"type": "note_off", "time": 105, "note": 69, "velocity": 123, "channel": 0}, {"type": "note_on", "time": 47, "note": 70, "velocity": 124, "channel": 0}, {"type": "note_off", "time": 79, "note": 70, "velocity": 124, "channel": 0}, {"type": "note_on", "time": 78, "note": 72, "velocity": 117, "channel": 0}, {"type": "note_off", "time": 88, "note": 72, "velocity": 117, "channel": 0}, {"type": "note_on", "time": 140, "note": 73, "velocity": 122, "channel": 0}, {"type": "note_off", "time": 52, "note": 73, "velocity": 122, "channel": 0}, {"type": "note_on", "time": 7, "note": 72, "velocity": 122, "channel": 0}, {"type": "note_off", "time": 60, "note": 72, "velocity": 122, "channel": 0}, {"type": "note_on", "time": 7, "note": 73, "velocity": 121, "channel": 0}, {"type": "note_off", "time": 53, "note": 73, "velocity": 121, "channel": 0}, {"type": "note_on", "time": 59, "note": 72, "velocity": 103, "channel": 0}, {"type": "note_off", "time": 37, "note": 72, "velocity": 103, "channel": 0}, {"type": "note_on", "time": 4, "note": 70, "velocity": 113, "channel": 0}, {"type": "note_off", "time": 27, "note": 70, "velocity": 113, "channel": 0}, {"type": "note_on", "time": 2, "note": 71, "velocity": 118, "channel": 0}, {"type": "note_off", "time": 43, "note": 71, "velocity": 118, "channel": 0}, {"type": "note_on", "time": 11, "note": 70, "velocity": 121, "channel": 0}, {"type": "note_off", "time": 53, "note": 70, "velocity": 121, "channel": 0}, {"type": "note_on", "time": 55, "note": 71, "velocity": 114, "channel": 0}, {"type": "note_off", "time": 50, "note": 71, "velocity": 114, "channel": 0}, {"type": "note_on", "time": 23, "note": 68, "velocity": 100, "channel": 0}, {"type": "note_off", "time": 31, "note": 68, "velocity": 100, "channel": 0}, {"type": "note_on", "time": 8, "note": 67, "velocity": 109, "channel": 0}, {"type": "note_off", "time": 42, "note": 67, "velocity": 109, "channel": 0}, {"type": "note_on", "time": 8, "note": 65, "velocity": 116, "channel": 0}, {"type": "note_off", "time": 72, "note": 65, "velocity": 116, "channel": 0}, {"type": "note_on", "time": 7, "note": 64, "velocity": 113, "channel": 0}, {"type": "note_off", "time": 69, "note": 64, "velocity": 113, "channel": 0}, {"type": "note_on", "time": 26, "note": 61, "velocity": 115, "channel": 0}, {"type": "note_off", "time": 75, "note": 61, "velocity": 115, "channel": 0}, {"type": "note_on", "time": 18, "note": 60, "velocity": 107, "channel": 0}, {"type": "note_off", "time": 76, "note": 60, "velocity": 107, "channel": 0}, {"type": "note_on", "time": 13, "note": 58, "velocity": 105, "channel": 0}, {"type": "note_off", "time": 78, "note": 58, "velocity": 105, "channel": 0}, {"type": "note_on", "time": 26, "note": 56, "velocity": 105, "channel": 0}, {"type": "note_off", "time": 170, "note": 56, "velocity": 105, "channel": 0}, {"type": "note_on", "time": 26, "note": 60, "velocity": 104, "channel": 0}, {"type": "note_off", "time": 49, "note": 60, "velocity": 104, "channel": 0}, {"type": "note_on", "time": 5, "note": 63, "velocity": 106, "channel": 0}, {"type": "note_off", "time": 21, "note": 63, "velocity": 106, "channel": 0}, {"type": "note_on", "time": 7, "note": 67, "velocity": 111, "channel": 0}, {"type": "note_off", "time": 82, "note": 67, "velocity": 111, "channel": 0}, {"type": "note_on", "time": 0, "note": 65, "velocity": 112, "channel": 0}, {"type": "note_off", "time": 195, "note": 65, "velocity": 112, "channel": 0}, {"type": "note_on", "time": 7, "note": 67, "velocity": 114, "channel": 0}, {"type": "note_off", "time": 79, "note": 67, "velocity": 114, "channel": 0}, {"type": "note_on", "time": 15, "note": 60, "velocity": 94, "channel": 0}, {"type": "note_off", "time": 373, "note": 60, "velocity": 94, "channel": 0}, {"type": "note_on", "time": 594, "note": 76, "velocity": 111, "channel": 0}, {"type": "note_off", "time": 36, "note": 76, "velocity": 111, "channel": 0}, {"type": "note_on", "time": 4, "note": 74, "velocity": 118, "channel": 0}, {"type": "note_off", "time": 31, "note": 74, "velocity": 118, "channel": 0}, {"type": "note_on", "time": 7, "note": 73, "velocity": 113, "channel": 0}, {"type": "note_off", "time": 36, "note": 73, "velocity": 113, "channel": 0}, {"type": "note_on", "time": 1, "note": 74, "velocity": 109, "channel": 0}, {"type": "note_off", "time": 39, "note": 74, "velocity": 109, "channel": 0}, {"type": "note_on", "time": 15, "note": 75, "velocity": 110, "channel": 0}, {"type": "note_off", "time": 27, "note": 75, "velocity": 110, "channel": 0}, {"type": "note_on", "time": 8, "note": 76, "velocity": 104, "channel": 0}, {"type": "note_off", "time": 52, "note": 76, "velocity": 104, "channel": 0}, {"type": "note_on", "time": 4, "note": 75, "velocity": 111, "channel": 0}, {"type": "note_off", "time": 31, "note": 75, "velocity": 111, "channel": 0}, {"type": "note_on", "time": 8, "note": 74, "velocity": 123, "channel": 0}, {"type": "note_off", "time": 62, "note": 74, "velocity": 123, "channel": 0}, {"type": "note_on", "time": 21, "note": 72, "velocity": 121, "channel": 0}, {"type": "note_off", "time": 79, "note": 72, "velocity": 121, "channel": 0}, {"type": "note_on", "time": 27, "note": 73, "velocity": 106, "channel": 0}, {"type": "note_off", "time": 37, "note": 73, "velocity": 106, "channel": 0}, {"type": "note_on", "time": 0, "note": 72, "velocity": 113, "channel": 0}, {"type": "note_off", "time": 28, "note": 72, "velocity": 113, "channel": 0}, {"type": "note_on", "time": 1, "note": 71, "velocity": 120, "channel": 0}, {"type": "note_off", "time": 84, "note": 71, "velocity": 120, "channel": 0}, {"type": "note_on", "time": 1, "note": 70, "velocity": 118, "channel": 0}, {"type": "note_off", "time": 86, "note": 70, "velocity": 118, "channel": 0}, {"type": "note_on", "time": 10, "note": 69, "velocity": 119, "channel": 0}, {"type": "note_off", "time": 79, "note": 69, "velocity": 119, "channel": 0}, {"type": "note_on", "time": 5, "note": 68, "velocity": 103, "channel": 0}, {"type": "note_off", "time": 30, "note": 68, "velocity": 103, "channel": 0}, {"type": "note_on", "time": 1, "note": 70, "velocity": 111, "channel": 0}, {"type": "note_off", "time": 21, "note": 70, "velocity": 111, "channel": 0}, {"type": "note_on", "time": 2, "note": 68, "velocity": 113, "channel": 0}, {"type": "note_off", "time": 42, "note": 68, "velocity": 113, "channel": 0}, {"type": "note_on", "time": 2, "note": 67, "velocity": 117, "channel": 0}, {"type": "note_off", "time": 94, "note": 67, "velocity": 117, "channel": 0}, {"type": "note_on", "time": 5, "note": 66, "velocity": 112, "channel": 0}, {"type": "note_off", "time": 86, "note": 66, "velocity": 112, "channel": 0}, {"type": "note_on", "time": 15, "note": 62, "velocity": 111, "channel": 0}, {"type": "note_off", "time": 70, "note": 62, "velocity": 111, "channel": 0}, {"type": "note_on", "time": 13, "note": 59, "velocity": 108, "channel": 0}, {"type": "note_off", "time": 95, "note": 59, "velocity": 108, "channel": 0}, {"type": "note_on", "time": 4, "note": 57, "velocity": 99, "channel": 0}, {"type": "note_off", "time": 73, "note": 57, "velocity": 99, "channel": 0}, {"type": "note_on", "time": 13, "note": 58, "velocity": 98, "channel": 0}, {"type": "note_off", "time": 72, "note": 58, "velocity": 98, "channel": 0}, {"type": "note_on", "time": 34, "note": 63, "velocity": 91, "channel": 0}, {"type": "note_off", "time": 386, "note": 63, "velocity": 91, "channel": 0}, {"type": "note_on", "time": 95, "note": 68, "velocity": 113, "channel": 0}, {"type": "note_off", "time": 34, "note": 68, "velocity": 113, "channel": 0}, {"type": "note_on", "time": 49, "note": 68, "velocity": 107, "channel": 0}, {"type": "note_off", "time": 81, "note": 68, "velocity": 107, "channel": 0}, {"type": "note_on", "time": 30, "note": 68, "velocity": 100, "channel": 0}, {"type": "note_off", "time": 65, "note": 68, "velocity": 100, "channel": 0}, {"type": "note_on", "time": 15, "note": 68, "velocity": 118, "channel": 0}, {"type": "note_off", "time": 84, "note": 68, "velocity": 118, "channel": 0}, {"type": "note_on", "time": 20, "note": 68, "velocity": 121, "channel": 0}, {"type": "note_off", "time": 81, "note": 68, "velocity": 121, "channel": 0}, {"type": "note_on", "time": 18, "note": 68, "velocity": 119, "channel": 0}, {"type": "note_off", "time": 75, "note": 68, "velocity": 119, "channel": 0}, {"type": "note_on", "time": 28, "note": 68, "velocity": 115, "channel": 0}, {"type": "note_off", "time": 73, "note": 68, "velocity": 115, "channel": 0}, {"type": "note_on", "time": 15, "note": 68, "velocity": 120, "channel": 0}, {"type": "note_off", "time": 78, "note": 68, "velocity": 120, "channel": 0}, {"type": "note_on", "time": 27, "note": 68, "velocity": 118, "channel": 0}, {"type": "note_off", "time": 70, "note": 68, "velocity": 118, "channel": 0}, {"type": "note_on", "time": 21, "note": 68, "velocity": 117, "channel": 0}, {"type": "note_off", "time": 73, "note": 68, "velocity": 117, "channel": 0}, {"type": "note_on", "time": 43, "note": 67, "velocity": 108, "channel": 0}, {"type": "note_off", "time": 27, "note": 67, "velocity": 108, "channel": 0}, {"type": "note_on", "time": 5, "note": 66, "velocity": 104, "channel": 0}, {"type": "note_off", "time": 36, "note": 66, "velocity": 104, "channel": 0}, {"type": "note_on", "time": 7, "note": 63, "velocity": 100, "channel": 0}, {"type": "note_off", "time": 43, "note": 63, "velocity": 100, "channel": 0}, {"type": "note_on", "time": 2, "note": 60, "velocity": 105, "channel": 0}, {"type": "note_off", "time": 26, "note": 60, "velocity": 105, "channel": 0}, {"type": "note_on", "time": 8, "note": 58, "velocity": 97, "channel": 0}, {"type": "note_off", "time": 173, "note": 58, "velocity": 97, "channel": 0}, {"type": "note_on", "time": 5, "note": 63, "velocity": 100, "channel": 0}, {"type": "note_off", "time": 223, "note": 63, "velocity": 100, "channel": 0}, {"type": "note_on", "time": 546, "note": 73, "velocity": 103, "channel": 0}, {"type": "note_off", "time": 63, "note": 73, "velocity": 103, "channel": 0}, {"type": "note_on", "time": 2, "note": 70, "velocity": 105, "channel": 0}, {"type": "note_off", "time": 2988, "note": 70, "velocity": 105, "channel": 0}, {"type": "note_on", "time": 31, "note": 69, "velocity": 110, "channel": 0}, {"type": "note_off", "time": 33, "note": 69, "velocity": 110, "channel": 0}, {"type": "note_on", "time": 59, "note": 69, "velocity": 116, "channel": 0}, {"type": "note_off", "time": 75, "note": 69, "velocity": 116, "channel": 0}, {"type": "note_on", "time": 23, "note": 68, "velocity": 114, "channel": 0}, {"type": "note_off", "time": 42, "note": 68, "velocity": 114, "channel": 0}, {"type": "note_on", "time": 7, "note": 66, "velocity": 100, "channel": 0}, {"type": "note_off", "time": 42, "note": 66, "velocity": 100, "channel": 0}, {"type": "note_on", "time": 7, "note": 63, "velocity": 104, "channel": 0}, {"type": "note_off", "time": 21, "note": 63, "velocity": 104, "channel": 0}, {"type": "note_on", "time": 2, "note": 62, "velocity": 92, "channel": 0}, {"type": "note_off", "time": 56, "note": 62, "velocity": 92, "channel": 0}, {"type": "note_on", "time": 10, "note": 63, "velocity": 94, "channel": 0}, {"type": "note_off", "time": 146, "note": 63, "velocity": 94, "channel": 0}, {"type": "note_on", "time": 1037, "note": 70, "velocity": 108, "channel": 0}, {"type": "note_off", "time": 1112, "note": 70, "velocity": 108, "channel": 0}, {"type": "note_on", "time": 8, "note": 70, "velocity": 123, "channel": 0}, {"type": "note_off", "time": 44, "note": 70, "velocity": 123, "channel": 0}, {"type": "note_on", "time": 7, "note": 72, "velocity": 116, "channel": 0}, {"type": "note_off", "time": 27, "note": 72, "velocity": 116, "channel": 0}, {"type": "note_on", "time": 4, "note": 73, "velocity": 122, "channel": 0}, {"type": "note_off", "time": 39, "note": 73, "velocity": 122, "channel": 0}, {"type": "note_on", "time": 5, "note": 75, "velocity": 124, "channel": 0}, {"type": "note_off", "time": 31, "note": 75, "velocity": 124, "channel": 0}, {"type": "note_on", "time": 11, "note": 77, "velocity": 118, "channel": 0}, {"type": "note_off", "time": 46, "note": 77, "velocity": 118, "channel": 0}, {"type": "note_on", "time": 56, "note": 73, "velocity": 119, "channel": 0}, {"type": "note_off", "time": 55, "note": 73, "velocity": 119, "channel": 0}, {"type": "note_on", "time": 55, "note": 69, "velocity": 119, "channel": 0}, {"type": "note_off", "time": 63, "note": 69, "velocity": 119, "channel": 0}, {"type": "note_on", "time": 18, "note": 72, "velocity": 108, "channel": 0}, {"type": "note_off", "time": 46, "note": 72, "velocity": 108, "channel": 0}, {"type": "note_on", "time": 7, "note": 69, "velocity": 114, "channel": 0}, {"type": "note_off", "time": 40, "note": 69, "velocity": 114, "channel": 0}, {"type": "note_on", "time": 5, "note": 70, "velocity": 115, "channel": 0}, {"type": "note_off", "time": 33, "note": 70, "velocity": 115, "channel": 0}, {"type": "note_on", "time": 13, "note": 65, "velocity": 100, "channel": 0}, {"type": "note_off", "time": 36, "note": 65, "velocity": 100, "channel": 0}, {"type": "note_on", "time": 4, "note": 68, "velocity": 115, "channel": 0}, {"type": "note_off", "time": 33, "note": 68, "velocity": 115, "channel": 0}, {"type": "note_on", "time": 18, "note": 70, "velocity": 100, "channel": 0}, {"type": "note_off", "time": 28, "note": 70, "velocity": 100, "channel": 0}, {"type": "note_on", "time": 1, "note": 68, "velocity": 104, "channel": 0}, {"type": "note_off", "time": 28, "note": 68, "velocity": 104, "channel": 0}, {"type": "note_on", "time": 0, "note": 67, "velocity": 115, "channel": 0}, {"type": "note_off", "time": 40, "note": 67, "velocity": 115, "channel": 0}, {"type": "note_on", "time": 2, "note": 66, "velocity": 105, "channel": 0}, {"type": "note_off", "time": 40, "note": 66, "velocity": 105, "channel": 0}, {"type": "note_on", "time": 1, "note": 65, "velocity": 116, "channel": 0}, {"type": "note_off", "time": 37, "note": 65, "velocity": 116, "channel": 0}, {"type": "note_on", "time": 7, "note": 64, "velocity": 112, "channel": 0}, {"type": "note_off", "time": 47, "note": 64, "velocity": 112, "channel": 0}, {"type": "note_on", "time": 5, "note": 63, "velocity": 113, "channel": 0}, {"type": "note_off", "time": 46, "note": 63, "velocity": 113, "channel": 0}, {"type": "note_on", "time": 4, "note": 59, "velocity": 107, "channel": 0}, {"type": "note_off", "time": 40, "note": 59, "velocity": 107, "channel": 0}, {"type": "note_on", "time": 5, "note": 61, "velocity": 105, "channel": 0}, {"type": "note_off", "time": 42, "note": 61, "velocity": 105, "channel": 0}, {"type": "note_on", "time": 4, "note": 59, "velocity": 90, "channel": 0}, {"type": "note_off", "time": 46, "note": 59, "velocity": 90, "channel": 0}, {"type": "note_on", "time": 7, "note": 58, "velocity": 98, "channel": 0}, {"type": "note_off", "time": 47, "note": 58, "velocity": 98, "channel": 0}, {"type": "note_on", "time": 20, "note": 60, "velocity": 100, "channel": 0}, {"type": "note_off", "time": 217, "note": 60, "velocity": 100, "channel": 0}, {"type": "note_on", "time": 4, "note": 68, "velocity": 113, "channel": 0}, {"type": "note_off", "time": 192, "note": 68, "velocity": 113, "channel": 0}, {"type": "note_on", "time": 7, "note": 70, "velocity": 119, "channel": 0}, {"type": "note_off", "time": 184, "note": 70, "velocity": 119, "channel": 0}, {"type": "note_on", "time": 2, "note": 66, "velocity": 112, "channel": 0}, {"type": "note_off", "time": 176, "note": 66, "velocity": 112, "channel": 0}, {"type": "note_on", "time": 13, "note": 68, "velocity": 118, "channel": 0}, {"type": "note_off", "time": 104, "note": 68, "velocity": 118, "channel": 0}, {"type": "note_on", "time": 8, "note": 65, "velocity": 105, "channel": 0}, {"type": "note_off", "time": 72, "note": 65, "velocity": 105, "channel": 0}, {"type": "note_on", "time": 13, "note": 66, "velocity": 116, "channel": 0}, {"type": "note_off", "time": 86, "note": 66, "velocity": 116, "channel": 0}, {"type": "note_on", "time": 0, "note": 62, "velocity": 114, "channel": 0}, {"type": "note_off", "time": 123, "note": 62, "velocity": 114, "channel": 0}, {"type": "note_on", "time": 13, "note": 58, "velocity": 86, "channel": 0}, {"type": "note_off", "time": 39, "note": 58, "velocity": 86, "channel": 0}, {"type": "note_on", "time": 37, "note": 65, "velocity": 117, "channel": 0}, {"type": "note_off", "time": 131, "note": 65, "velocity": 117, "channel": 0}, {"type": "note_on", "time": 42, "note": 63, "velocity": 113, "channel": 0}, {"type": "note_off", "time": 204, "note": 63, "velocity": 113, "channel": 0}, {"type": "note_on", "time": 7, "note": 65, "velocity": 115, "channel": 0}, {"type": "note_off", "time": 94, "note": 65, "velocity": 115, "channel": 0}, {"type": "note_on", "time": 13, "note": 60, "velocity": 103, "channel": 0}, {"type": "note_off", "time": 79, "note": 60, "velocity": 103, "channel": 0}, {"type": "note_on", "time": 130, "note": 67, "velocity": 99, "channel": 0}, {"type": "note_off", "time": 30, "note": 67, "velocity": 99, "channel": 0}, {"type": "note_on", "time": 8, "note": 68, "velocity": 103, "channel": 0}, {"type": "note_off", "time": 101, "note": 68, "velocity": 103, "channel": 0}, {"type": "note_on", "time": 55, "note": 69, "velocity": 117, "channel": 0}, {"type": "note_off", "time": 65, "note": 69, "velocity": 117, "channel": 0}, {"type": "note_on", "time": 32, "note": 68, "velocity": 113, "channel": 0}, {"type": "note_off", "time": 68, "note": 68, "velocity": 113, "channel": 0}, {"type": "note_on", "time": 5, "note": 66, "velocity": 113, "channel": 0}, {"type": "note_off", "time": 103, "note": 66, "velocity": 113, "channel": 0}, {"type": "note_on", "time": 36, "note": 67, "velocity": 96, "channel": 0}, {"type": "note_off", "time": 28, "note": 67, "velocity": 96, "channel": 0}, {"type": "note_on", "time": 8, "note": 68, "velocity": 97, "channel": 0}, {"type": "note_off", "time": 112, "note": 68, "velocity": 97, "channel": 0}, {"type": "note_on", "time": 6, "note": 63, "velocity": 110, "channel": 0}, {"type": "note_off", "time": 87, "note": 63, "velocity": 110, "channel": 0}, {"type": "note_on", "time": 16, "note": 58, "velocity": 97, "channel": 0}, {"type": "note_off", "time": 71, "note": 58, "velocity": 97, "channel": 0}, {"type": "note_on", "time": 0, "note": 61, "velocity": 102, "channel": 0}, {"type": "note_off", "time": 103, "note": 61, "velocity": 102, "channel": 0}, {"type": "note_on", "time": 7, "note": 63, "velocity": 94, "channel": 0}, {"type": "note_off", "time": 318, "note": 63, "velocity": 94, "channel": 0}, {"type": "note_on", "time": 1248, "note": 70, "velocity": 117, "channel": 0}, {"type": "note_off", "time": 75, "note": 70, "velocity": 117, "channel": 0}, {"type": "note_on", "time": 101, "note": 75, "velocity": 121, "channel": 0}, {"type": "note_off", "time": 98, "note": 75, "velocity": 121, "channel": 0}, {"type": "note_on", "time": 124, "note": 80, "velocity": 119, "channel": 0}, {"type": "note_off", "time": 107, "note": 80, "velocity": 119, "channel": 0}, {"type": "note_on", "time": 60, "note": 81, "velocity": 102, "channel": 0}, {"type": "note_off", "time": 37, "note": 81, "velocity": 102, "channel": 0}, {"type": "note_on", "time": 5, "note": 79, "velocity": 124, "channel": 0}, {"type": "note_off", "time": 52, "note": 79, "velocity": 124, "channel": 0}, {"type": "note_on", "time": 8, "note": 80, "velocity": 115, "channel": 0}, {"type": "note_off", "time": 20, "note": 80, "velocity": 115, "channel": 0}, {"type": "note_on", "time": 20, "note": 81, "velocity": 113, "channel": 0}, {"type": "note_off", "time": 34, "note": 81, "velocity": 113, "channel": 0}, {"type": "note_on", "time": 2, "note": 79, "velocity": 105, "channel": 0}, {"type": "note_off", "time": 34, "note": 79, "velocity": 105, "channel": 0}, {"type": "note_on", "time": 0, "note": 77, "velocity": 121, "channel": 0}, {"type": "note_off", "time": 77, "note": 77, "velocity": 121, "channel": 0}, {"type": "note_on", "time": 10, "note": 76, "velocity": 120, "channel": 0}, {"type": "note_off", "time": 85, "note": 76, "velocity": 120, "channel": 0}, {"type": "note_on", "time": 2, "note": 73, "velocity": 117, "channel": 0}, {"type": "note_off", "time": 91, "note": 73, "velocity": 117, "channel": 0}, {"type": "note_on", "time": 16, "note": 74, "velocity": 118, "channel": 0}, {"type": "note_off", "time": 28, "note": 74, "velocity": 118, "channel": 0}, {"type": "note_on", "time": 12, "note": 72, "velocity": 117, "channel": 0}, {"type": "note_off", "time": 42, "note": 72, "velocity": 117, "channel": 0}, {"type": "note_on", "time": 0, "note": 70, "velocity": 120, "channel": 0}, {"type": "note_off", "time": 91, "note": 70, "velocity": 120, "channel": 0}, {"type": "note_on", "time": 4, "note": 68, "velocity": 118, "channel": 0}, {"type": "note_off", "time": 105, "note": 68, "velocity": 118, "channel": 0}, {"type": "note_on", "time": 89, "note": 72, "velocity": 120, "channel": 0}, {"type": "note_off", "time": 110, "note": 72, "velocity": 120, "channel": 0}, {"type": "note_on", "time": 81, "note": 75, "velocity": 122, "channel": 0}, {"type": "note_off", "time": 118, "note": 75, "velocity": 122, "channel": 0}, {"type": "note_on", "time": 81, "note": 79, "velocity": 117, "channel": 0}, {"type": "note_off", "time": 87, "note": 79, "velocity": 117, "channel": 0}, {"type": "note_on", "time": 22, "note": 75, "velocity": 121, "channel": 0}, {"type": "note_off", "time": 93, "note": 75, "velocity": 121, "channel": 0}, {"type": "note_on", "time": 97, "note": 71, "velocity": 122, "channel": 0}, {"type": "note_off", "time": 44, "note": 71, "velocity": 122, "channel": 0}, {"type": "note_on", "time": 6, "note": 70, "velocity": 120, "channel": 0}, {"type": "note_off", "time": 42, "note": 70, "velocity": 120, "channel": 0}, {"type": "note_on", "time": 4, "note": 72, "velocity": 114, "channel": 0}, {"type": "note_off", "time": 197, "note": 72, "velocity": 114, "channel": 0}, {"type": "note_on", "time": 10, "note": 71, "velocity": 113, "channel": 0}, {"type": "note_off", "time": 65, "note": 71, "velocity": 113, "channel": 0}, {"type": "note_on", "time": 10, "note": 68, "velocity": 98, "channel": 0}, {"type": "note_off", "time": 46, "note": 68, "velocity": 98, "channel": 0}, {"type": "note_on", "time": 48, "note": 67, "velocity": 116, "channel": 0}, {"type": "note_off", "time": 103, "note": 67, "velocity": 116, "channel": 0}, {"type": "note_on", "time": 124, "note": 68, "velocity": 110, "channel": 0}, {"type": "note_off", "time": 44, "note": 68, "velocity": 110, "channel": 0}, {"type": "note_on", "time": 2, "note": 70, "velocity": 106, "channel": 0}, {"type": "note_off", "time": 99, "note": 70, "velocity": 106, "channel": 0}, {"type": "note_on", "time": 2, "note": 72, "velocity": 119, "channel": 0}, {"type": "note_off", "time": 93, "note": 72, "velocity": 119, "channel": 0}, {"type": "note_on", "time": 148, "note": 66, "velocity": 94, "channel": 0}, {"type": "note_off", "time": 32, "note": 66, "velocity": 94, "channel": 0}, {"type": "note_on", "time": 14, "note": 68, "velocity": 103, "channel": 0}, {"type": "note_off", "time": 99, "note": 68, "velocity": 103, "channel": 0}, {"type": "note_on", "time": 16, "note": 70, "velocity": 112, "channel": 0}, {"type": "note_off", "time": 81, "note": 70, "velocity": 112, "channel": 0}, {"type": "note_on", "time": 14, "note": 67, "velocity": 118, "channel": 0}, {"type": "note_off", "time": 85, "note": 67, "velocity": 118, "channel": 0}, {"type": "note_on", "time": 128, "note": 68, "velocity": 118, "channel": 0}, {"type": "note_off", "time": 69, "note": 68, "velocity": 118, "channel": 0}, {"type": "note_on", "time": 102, "note": 68, "velocity": 108, "channel": 0}, {"type": "note_off", "time": 52, "note": 68, "velocity": 108, "channel": 0}, {"type": "note_on", "time": 7, "note": 69, "velocity": 102, "channel": 0}, {"type": "note_off", "time": 50, "note": 69, "velocity": 102, "channel": 0}, {"type": "note_on", "time": 12, "note": 68, "velocity": 113, "channel": 0}, {"type": "note_off", "time": 59, "note": 68, "velocity": 113, "channel": 0}, {"type": "note_on", "time": 24, "note": 66, "velocity": 111, "channel": 0}, {"type": "note_off", "time": 59, "note": 66, "velocity": 111, "channel": 0}, {"type": "note_on", "time": 17, "note": 63, "velocity": 115, "channel": 0}, {"type": "note_off", "time": 132, "note": 63, "velocity": 115, "channel": 0}, {"type": "note_on", "time": 62, "note": 61, "velocity": 102, "channel": 0}, {"type": "note_off", "time": 85, "note": 61, "velocity": 102, "channel": 0}, {"type": "note_on", "time": 24, "note": 63, "velocity": 99, "channel": 0}, {"type": "note_off", "time": 262, "note": 63, "velocity": 99, "channel": 0}, {"type": "note_on", "time": 213, "note": 67, "velocity": 97, "channel": 0}, {"type": "note_off", "time": 85, "note": 67, "velocity": 97, "channel": 0}, {"type": "note_on", "time": 4, "note": 68, "velocity": 118, "channel": 0}, {"type": "note_off", "time": 85, "note": 68, "velocity": 118, "channel": 0}, {"type": "note_on", "time": 10, "note": 68, "velocity": 119, "channel": 0}, {"type": "note_off", "time": 81, "note": 68, "velocity": 119, "channel": 0}, {"type": "note_on", "time": 10, "note": 68, "velocity": 108, "channel": 0}, {"type": "note_off", "time": 95, "note": 68, "velocity": 108, "channel": 0}, {"type": "note_on", "time": 10, "note": 68, "velocity": 101, "channel": 0}, {"type": "note_off", "time": 65, "note": 68, "velocity": 101, "channel": 0}, {"type": "note_on", "time": 12, "note": 68, "velocity": 106, "channel": 0}, {"type": "note_off", "time": 83, "note": 68, "velocity": 106, "channel": 0}, {"type": "note_on", "time": 22, "note": 68, "velocity": 100, "channel": 0}, {"type": "note_off", "time": 83, "note": 68, "velocity": 100, "channel": 0}, {"type": "note_on", "time": 8, "note": 68, "velocity": 108, "channel": 0}, {"type": "note_off", "time": 81, "note": 68, "velocity": 108, "channel": 0}, {"type": "note_on", "time": 20, "note": 68, "velocity": 102, "channel": 0}, {"type": "note_off", "time": 81, "note": 68, "velocity": 102, "channel": 0}, {"type": "note_on", "time": 20, "note": 68, "velocity": 117, "channel": 0}, {"type": "note_off", "time": 77, "note": 68, "velocity": 117, "channel": 0}, {"type": "note_on", "time": 12, "note": 70, "velocity": 122, "channel": 0}, {"type": "note_off", "time": 67, "note": 70, "velocity": 122, "channel": 0}, {"type": "note_on", "time": 24, "note": 63, "velocity": 114, "channel": 0}, {"type": "note_off", "time": 83, "note": 63, "velocity": 114, "channel": 0}, {"type": "note_on", "time": 20, "note": 63, "velocity": 114, "channel": 0}, {"type": "note_off", "time": 69, "note": 63, "velocity": 114, "channel": 0}, {"type": "note_on", "time": 40, "note": 63, "velocity": 93, "channel": 0}, {"type": "note_off", "time": 71, "note": 63, "velocity": 93, "channel": 0}, {"type": "note_on", "time": 28, "note": 63, "velocity": 107, "channel": 0}, {"type": "note_off", "time": 179, "note": 63, "velocity": 107, "channel": 0}, {"type": "note_on", "time": 301, "note": 72, "velocity": 116, "channel": 0}, {"type": "note_off", "time": 56, "note": 72, "velocity": 116, "channel": 0}, {"type": "note_on", "time": 112, "note": 71, "velocity": 120, "channel": 0}, {"type": "note_off", "time": 91, "note": 71, "velocity": 120, "channel": 0}, {"type": "note_on", "time": 14, "note": 70, "velocity": 121, "channel": 0}, {"type": "note_off", "time": 75, "note": 70, "velocity": 121, "channel": 0}, {"type": "note_on", "time": 8, "note": 66, "velocity": 110, "channel": 0}, {"type": "note_off", "time": 57, "note": 66, "velocity": 110, "channel": 0}, {"type": "note_on", "time": 16, "note": 67, "velocity": 100, "channel": 0}, {"type": "note_off", "time": 118, "note": 67, "velocity": 100, "channel": 0}, {"type": "note_on", "time": 18, "note": 70, "velocity": 104, "channel": 0}, {"type": "note_off", "time": 99, "note": 70, "velocity": 104, "channel": 0}, {"type": "note_on", "time": 14, "note": 66, "velocity": 96, "channel": 0}, {"type": "note_off", "time": 72, "note": 66, "velocity": 96, "channel": 0}, {"type": "note_on", "time": 6, "note": 67, "velocity": 96, "channel": 0}, {"type": "note_off", "time": 74, "note": 67, "velocity": 96, "channel": 0}, {"type": "note_on", "time": 29, "note": 63, "velocity": 91, "channel": 0}, {"type": "note_off", "time": 360, "note": 63, "velocity": 91, "channel": 0}, {"type": "end_of_track", "time": 0}]]}