{"ticks_per_beat": 192, "tracks": [[{"type": "track_name", "name": "Melody", "time": 0}, {"type": "set_tempo", "tempo": 431654, "time": 0}, {"type": "key_signature", "key": "F#", "time": 0}, {"type": "time_signature", "numerator": 4, "denominator": 4, "clocks_per_click": 24, "notated_32nd_notes_per_beat": 8, "time": 0}, {"type": "note_on", "time": 2304, "note": 70, "velocity": 110, "channel": 0}, {"type": "note_off", "time": 64, "note": 70, "velocity": 110, "channel": 0}, {"type": "note_on", "time": 618, "note": 69, "velocity": 88, "channel": 0}, {"type": "note_off", "time": 36, "note": 69, "velocity": 88, "channel": 0}, {"type": "note_on", "time": 46, "note": 70, "velocity": 89, "channel": 0}, {"type": "note_off", "time": 46, "note": 70, "velocity": 89, "channel": 0}, {"type": "note_on", "time": 49, "note": 71, "velocity": 118, "channel": 0}, {"type": "note_off", "time": 47, "note": 71, "velocity": 118, "channel": 0}, {"type": "note_on", "time": 13, "note": 70, "velocity": 110, "channel": 0}, {"type": "note_on", "time": 37, "note": 71, "velocity": 107, "channel": 0}, {"type": "note_off", "time": 0, "note": 70, "velocity": 110, "channel": 0}, {"type": "note_off", "time": 66, "note": 71, "velocity": 107, "channel": 0}, {"type": "note_on", "time": 16, "note": 70, "velocity": 105, "channel": 0}, {"type": "note_off", "time": 84, "note": 70, "velocity": 105, "channel": 0}, {"type": "note_on", "time": 9, "note": 67, "velocity": 106, "channel": 0}, {"type": "note_off", "time": 52, "note": 67, "velocity": 106, "channel": 0}, {"type": "note_on", "time": 59, "note": 69, "velocity": 109, "channel": 0}, {"type": "note_off", "time": 55, "note": 69, "velocity": 109, "channel": 0}, {"type": "note_on", "time": 0, "note": 68, "velocity": 102, "channel": 0}, {"type": "note_off", "time": 59, "note": 68, "velocity": 102, "channel": 0}, {"type": "note_on", "time": 10, "note": 69, "velocity": 102, "channel": 0}, {"type": "note_off", "time": 58, "note": 69, "velocity": 102, "channel": 0}, {"type": "note_on", "time": 21, "note": 68, "velocity": 84, "channel": 0}, {"type": "note_off", "time": 39, "note": 68, "velocity": 84, "channel": 0}, {"type": "note_on", "time": 680, "note": 67, "velocity": 110, "channel": 0}, {"type": "note_off", "time": 113, "note": 67, "velocity": 110, "channel": 0}, {"type": "note_on", "time": 0, "note": 62, "velocity": 84, "channel": 0}, {"type": "note_off", "time": 263, "note": 62, "velocity": 84, "channel": 0}, {"type": "note_on", "time": 334, "note": 64, "velocity": 76, "channel": 0}, {"type": "note_off", "time": 23, "note": 64, "velocity": 76, "channel": 0}, {"type": "note_on", "time": 56, "note": 68, "velocity": 82, "channel": 0}, {"type": "note_off", "time": 258, "note": 68, "velocity": 82, "channel": 0}, {"type": "note_on", "time": 515, "note": 70, "velocity": 105, "channel": 0}, {"type": "note_off", "time": 37, "note": 70, "velocity": 105, "channel": 0}, {"type": "note_on", "time": 55, "note": 71, "velocity": 117, "channel": 0}, {"type": "note_off", "time": 38, "note": 71, "velocity": 117, "channel": 0}, {"type": "note_on", "time": 87, "note": 68, "velocity": 112, "channel": 0}, {"type": "note_off", "time": 110, "note": 68, "velocity": 112, "channel": 0}, {"type": "note_on", "time": 65, "note": 63, "velocity": 102, "channel": 0}, {"type": "note_off", "time": 77, "note": 63, "velocity": 102, "channel": 0}, {"type": "note_on", "time": 11, "note": 59, "velocity": 100, "channel": 0}, {"type": "note_off", "time": 83, "note": 59, "velocity": 100, "channel": 0}, {"type": "note_on", "time": 14, "note": 58, "velocity": 88, "channel": 0}, {"type": "note_off", "time": 334, "note": 58, "velocity": 88, "channel": 0}, {"type": "note_on", "time": 616, "note": 73, "velocity": 119, "channel": 0}, {"type": "note_off", "time": 40, "note": 73, "velocity": 119, "channel": 0}, {"type": "note_on", "time": 7, "note": 71, "velocity": 116, "channel": 0}, {"type": "note_off", "time": 46, "note": 71, "velocity": 116, "channel": 0}, {"type": "note_on", "time": 3, "note": 73, "velocity": 107, "channel": 0}, {"type": "note_off", "time": 46, "note": 73, "velocity": 107, "channel": 0}, {"type": "note_on", "time": 0, "note": 71, "velocity": 118, "channel": 0}, {"type": "note_off", "time": 38, "note": 71, "velocity": 118, "channel": 0}, {"type": "note_on", "time": 0, "note": 73, "velocity": 118, "channel": 0}, {"type": "note_off", "time": 41, "note": 73, "velocity": 118, "channel": 0}, {"type": "note_on", "time": 0, "note": 71, "velocity": 106, "channel": 0}, {"type": "note_off", "time": 54, "note": 71, "velocity": 106, "channel": 0}, {"type": "note_on", "time": 0, "note": 66, "velocity": 100, "channel": 0}, {"type": "note_off", "time": 50, "note": 66, "velocity": 100, "channel": 0}, {"type": "note_on", "time": 0, "note": 68, "velocity": 107, "channel": 0}, {"type": "note_off", "time": 45, "note": 68, "velocity": 107, "channel": 0}, {"type": "note_on", "time": 0, "note": 70, "velocity": 112, "channel": 0}, {"type": "note_off", "time": 61, "note": 70, "velocity": 112, "channel": 0}, {"type": "note_on", "time": 38, "note": 68, "velocity": 109, "channel": 0}, {"type": "note_off", "time": 29, "note": 68, "velocity": 109, "channel": 0}, {"type": "note_on", "time": 0, "note": 70, "velocity": 108, "channel": 0}, {"type": "note_off", "time": 30, "note": 70, "velocity": 108, "channel": 0}, {"type": "note_on", "time": 21, "note": 66, "velocity": 120, "channel": 0}, {"type": "note_off", "time": 65, "note": 66, "velocity": 120, "channel": 0}, {"type": "note_on", "time": 0, "note": 68, "velocity": 108, "channel": 0}, {"type": "note_off", "time": 49, "note": 68, "velocity": 108, "channel": 0}, {"type": "note_on", "time": 2, "note": 70, "velocity": 105, "channel": 0}, {"type": "note_off", "time": 51, "note": 70, "velocity": 105, "channel": 0}, {"type": "note_on", "time": 6, "note": 66, "velocity": 108, "channel": 0}, {"type": "note_off", "time": 62, "note": 66, "velocity": 108, "channel": 0}, {"type": "note_on", "time": 0, "note": 65, "velocity": 112, "channel": 0}, {"type": "note_off", "time": 90, "note": 65, "velocity": 112, "channel": 0}, {"type": "note_on", "time": 6, "note": 63, "velocity": 93, "channel": 0}, {"type": "note_off", "time": 126, "note": 63, "velocity": 93, "channel": 0}, {"type": "note_on", "time": 520, "note": 69, "velocity": 78, "channel": 0}, {"type": "note_off", "time": 27, "note": 69, "velocity": 78, "channel": 0}, {"type": "note_on", "time": 34, "note": 70, "velocity": 107, "channel": 0}, {"type": "note_off", "time": 73, "note": 70, "velocity": 107, "channel": 0}, {"type": "note_on", "time": 14, "note": 71, "velocity": 121, "channel": 0}, {"type": "note_off", "time": 80, "note": 71, "velocity": 121, "channel": 0}, {"type": "note_on", "time": 13, "note": 71, "velocity": 122, "channel": 0}, {"type": "note_off", "time": 92, "note": 71, "velocity": 122, "channel": 0}, {"type": "note_on", "time": 5, "note": 70, "velocity": 122, "channel": 0}, {"type": "note_off", "time": 87, "note": 70, "velocity": 122, "channel": 0}, {"type": "note_on", "time": 8, "note": 66, "velocity": 106, "channel": 0}, {"type": "note_off", "time": 53, "note": 66, "velocity": 106, "channel": 0}, {"type": "note_on", "time": 66, "note": 69, "velocity": 116, "channel": 0}, {"type": "note_off", "time": 70, "note": 69, "velocity": 116, "channel": 0}, {"type": "note_on", "time": 6, "note": 70, "velocity": 117, "channel": 0}, {"type": "note_off", "time": 103, "note": 70, "velocity": 117, "channel": 0}, {"type": "note_on", "time": 0, "note": 72, "velocity": 100, "channel": 0}, {"type": "note_off", "time": 89, "note": 72, "velocity": 100, "channel": 0}, {"type": "note_on", "time": 0, "note": 74, "velocity": 118, "channel": 0}, {"type": "note_off", "time": 96, "note": 74, "velocity": 118, "channel": 0}, {"type": "note_on", "time": 0, "note": 67, "velocity": 95, "channel": 0}, {"type": "note_off", "time": 92, "note": 67, "velocity": 95, "channel": 0}, {"type": "note_on", "time": 12, "note": 69, "velocity": 119, "channel": 0}, {"type": "note_off", "time": 92, "note": 69, "velocity": 119, "channel": 0}, {"type": "note_on", "time": 0, "note": 62, "velocity": 107, "channel": 0}, {"type": "note_off", "time": 38, "note": 62, "velocity": 107, "channel": 0}, {"type": "note_on", "time": 68, "note": 67, "velocity": 118, "channel": 0}, {"type": "note_off", "time": 98, "note": 67, "velocity": 118, "channel": 0}, {"type": "note_on", "time": 7, "note": 62, "velocity": 92, "channel": 0}, {"type": "note_off", "time": 89, "note": 62, "velocity": 92, "channel": 0}, {"type": "note_on", "time": 3, "note": 64, "velocity": 112, "channel": 0}, {"type": "note_off", "time": 67, "note": 64, "velocity": 112, "channel": 0}, {"type": "note_on", "time": 6, "note": 60, "velocity": 89, "channel": 0}, {"type": "note_off", "time": 87, "note": 60, "velocity": 89, "channel": 0}, {"type": "note_on", "time": 21, "note": 62, "velocity": 109, "channel": 0}, {"type": "note_off", "time": 81, "note": 62, "velocity": 109, "channel": 0}, {"type": "note_on", "time": 19, "note": 57, "velocity": 95, "channel": 0}, {"type": "note_off", "time": 180, "note": 57, "velocity": 95, "channel": 0}, {"type": "note_on", "time": 587, "note": 73, "velocity": 122, "channel": 0}, {"type": "note_off", "time": 74, "note": 73, "velocity": 122, "channel": 0}, {"type": "note_on", "time": 25, "note": 76, "velocity": 117, "channel": 0}, {"type": "note_off", "time": 72, "note": 76, "velocity": 117, "channel": 0}, {"type": "note_on", "time": 9, "note": 71, "velocity": 119, "channel": 0}, {"type": "note_off", "time": 100, "note": 71, "velocity": 119, "channel": 0}, {"type": "note_on", "time": 5, "note": 69, "velocity": 118, "channel": 0}, {"type": "note_off", "time": 76, "note": 69, "velocity": 118, "channel": 0}, {"type": "note_on", "time": 19, "note": 68, "velocity": 115, "channel": 0}, {"type": "note_off", "time": 85, "note": 68, "velocity": 115, "channel": 0}, {"type": "note_on", "time": 0, "note": 71, "velocity": 122, "channel": 0}, {"type": "note_off", "time": 77, "note": 71, "velocity": 122, "channel": 0}, {"type": "note_on", "time": 25, "note": 65, "velocity": 114, "channel": 0}, {"type": "note_off", "time": 87, "note": 65, "velocity": 114, "channel": 0}, {"type": "note_on", "time": 40, "note": 61, "velocity": 104, "channel": 0}, {"type": "note_off", "time": 50, "note": 61, "velocity": 104, "channel": 0}, {"type": "note_on", "time": 5, "note": 64, "velocity": 111, "channel": 0}, {"type": "note_off", "time": 201, "note": 64, "velocity": 111, "channel": 0}, {"type": "note_on", "time": 0, "note": 62, "velocity": 95, "channel": 0}, {"type": "note_off", "time": 28, "note": 62, "velocity": 95, "channel": 0}, {"type": "note_on", "time": 0, "note": 64, "velocity": 106, "channel": 0}, {"type": "note_off", "time": 25, "note": 64, "velocity": 106, "channel": 0}, {"type": "note_on", "time": 0, "note": 62, "velocity": 103, "channel": 0}, {"type": "note_off", "time": 130, "note": 62, "velocity": 103, "channel": 0}, {"type": "note_on", "time": 26, "note": 63, "velocity": 111, "channel": 0}, {"type": "note_off", "time": 149, "note": 63, "velocity": 111, "channel": 0}, {"type": "note_on", "time": 0, "note": 60, "velocity": 105, "channel": 0}, {"type": "note_off", "time": 120, "note": 60, "velocity": 105, "channel": 0}, {"type": "note_on", "time": 1, "note": 58, "velocity": 95, "channel": 0}, {"type": "note_off", "time": 281, "note": 58, "velocity": 95, "channel": 0}, {"type": "note_on", "time": 939, "note": 72, "velocity": 121, "channel": 0}, {"type": "note_off", "time": 64, "note": 72, "velocity": 121, "channel": 0}, {"type": "note_on", "time": 34, "note": 73, "velocity": 122, "channel": 0}, {"type": "note_off", "time": 67, "note": 73, "velocity": 122, "channel": 0}, {"type": "note_on", "time": 16, "note": 77, "velocity": 124, "channel": 0}, {"type": "note_off", "time": 67, "note": 77, "velocity": 124, "channel": 0}, {"type": "note_on", "time": 37, "note": 80, "velocity": 123, "channel": 0}, {"type": "note_off", "time": 72, "note": 80, "velocity": 123, "channel": 0}, {"type": "note_on", "time": 61, "note": 81, "velocity": 127, "channel": 0}, {"type": "note_off", "time": 54, "note": 81, "velocity": 127, "channel": 0}, {"type": "note_on", "time": 11, "note": 84, "velocity": 122, "channel": 0}, {"type": "note_off", "time": 161, "note": 84, "velocity": 122, "channel": 0}, {"type": "note_on", "time": 30, "note": 82, "velocity": 112, "channel": 0}, {"type": "note_off", "time": 54, "note": 82, "velocity": 112, "channel": 0}, {"type": "note_on", "time": 14, "note": 82, "velocity": 122, "channel": 0}, {"type": "note_off", "time": 32, "note": 82, "velocity": 122, "channel": 0}, {"type": "note_on", "time": 4, "note": 80, "velocity": 120, "channel": 0}, {"type": "note_off", "time": 20, "note": 80, "velocity": 120, "channel": 0}, {"type": "note_on", "time": 0, "note": 79, "velocity": 122, "channel": 0}, {"type": "note_off", "time": 65, "note": 79, "velocity": 122, "channel": 0}, {"type": "note_on", "time": 11, "note": 78, "velocity": 121, "channel": 0}, {"type": "note_off", "time": 84, "note": 78, "velocity": 121, "channel": 0}, {"type": "note_on", "time": 12, "note": 77, "velocity": 122, "channel": 0}, {"type": "note_off", "time": 74, "note": 77, "velocity": 122, "channel": 0}, {"type": "note_on", "time": 15, "note": 76, "velocity": 119, "channel": 0}, {"type": "note_off", "time": 85, "note": 76, "velocity": 119, "channel": 0}, {"type": "note_on", "time": 20, "note": 75, "velocity": 119, "channel": 0}, {"type": "note_off", "time": 80, "note": 75, "velocity": 119, "channel": 0}, {"type": "note_on", "time": 20, "note": 72, "velocity": 120, "channel": 0}, {"type": "note_off", "time": 77, "note": 72, "velocity": 120, "channel": 0}, {"type": "note_on", "time": 7, "note": 67, "velocity": 111, "channel": 0}, {"type": "note_off", "time": 95, "note": 67, "velocity": 111, "channel": 0}, {"type": "note_on", "time": 12, "note": 70, "velocity": 116, "channel": 0}, {"type": "note_off", "time": 98, "note": 70, "velocity": 116, "channel": 0}, {"type": "note_on", "time": 41, "note": 67, "velocity": 113, "channel": 0}, {"type": "note_off", "time": 59, "note": 67, "velocity": 113, "channel": 0}, {"type": "note_on", "time": 1, "note": 68, "velocity": 107, "channel": 0}, {"type": "note_off", "time": 87, "note": 68, "velocity": 107, "channel": 0}, {"type": "note_on", "time": 43, "note": 72, "velocity": 116, "channel": 0}, {"type": "note_off", "time": 56, "note": 72, "velocity": 116, "channel": 0}, {"type": "note_on", "time": 23, "note": 75, "velocity": 121, "channel": 0}, {"type": "note_off", "time": 59, "note": 75, "velocity": 121, "channel": 0}, {"type": "note_on", "time": 69, "note": 79, "velocity": 117, "channel": 0}, {"type": "note_off", "time": 60, "note": 79, "velocity": 117, "channel": 0}, {"type": "note_on", "time": 4, "note": 80, "velocity": 115, "channel": 0}, {"type": "note_off", "time": 46, "note": 80, "velocity": 115, "channel": 0}, {"type": "note_on", "time": 0, "note": 81, "velocity": 120, "channel": 0}, {"type": "note_off", "time": 61, "note": 81, "velocity": 120, "channel": 0}, {"type": "note_on", "time": 0, "note": 82, "velocity": 122, "channel": 0}, {"type": "note_off", "time": 49, "note": 82, "velocity": 122, "channel": 0}, {"type": "note_on", "time": 0, "note": 81, "velocity": 118, "channel": 0}, {"type": "note_off", "time": 41, "note": 81, "velocity": 118, "channel": 0}, {"type": "note_on", "time": 1, "note": 80, "velocity": 120, "channel": 0}, {"type": "note_off", "time": 76, "note": 80, "velocity": 120, "channel": 0}, {"type": "note_on", "time": 0, "note": 81, "velocity": 109, "channel": 0}, {"type": "note_off", "time": 20, "note": 81, "velocity": 109, "channel": 0}, {"type": "note_on", "time": 0, "note": 79, "velocity": 118, "channel": 0}, {"type": "note_off", "time": 72, "note": 79, "velocity": 118, "channel": 0}, {"type": "note_on", "time": 28, "note": 78, "velocity": 119, "channel": 0}, {"type": "note_off", "time": 78, "note": 78, "velocity": 119, "channel": 0}, {"type": "note_on", "time": 18, "note": 77, "velocity": 119, "channel": 0}, {"type": "note_off", "time": 72, "note": 77, "velocity": 119, "channel": 0}, {"type": "note_on", "time": 16, "note": 76, "velocity": 118, "channel": 0}, {"type": "note_off", "time": 69, "note": 76, "velocity": 118, "channel": 0}, {"type": "note_on", "time": 49, "note": 75, "velocity": 118, "channel": 0}, {"type": "note_off", "time": 74, "note": 75, "velocity": 118, "channel": 0}, {"type": "note_on", "time": 19, "note": 72, "velocity": 115, "channel": 0}, {"type": "note_off", "time": 47, "note": 72, "velocity": 115, "channel": 0}, {"type": "note_on", "time": 40, "note": 67, "velocity": 104, "channel": 0}, {"type": "note_on", "time": 52, "note": 68, "velocity": 102, "channel": 0}, {"type": "note_off", "time": 0, "note": 67, "velocity": 104, "channel": 0}, {"type": "note_off", "time": 54, "note": 68, "velocity": 102, "channel": 0}, {"type": "note_on", "time": 0, "note": 70, "velocity": 108, "channel": 0}, {"type": "note_off", "time": 49, "note": 70, "velocity": 108, "channel": 0}, {"type": "note_on", "time": 17, "note": 68, "velocity": 103, "channel": 0}, {"type": "note_off", "time": 69, "note": 68, "velocity": 103, "channel": 0}, {"type": "note_on", "time": 90, "note": 68, "velocity": 90, "channel": 0}, {"type": "note_off", "time": 119, "note": 68, "velocity": 90, "channel": 0}, {"type": "note_on", "time": 34, "note": 68, "velocity": 97, "channel": 0}, {"type": "note_off", "time": 158, "note": 68, "velocity": 97, "channel": 0}, {"type": "note_on", "time": 4, "note": 68, "velocity": 98, "channel": 0}, {"type": "note_off", "time": 81, "note": 68, "velocity": 98, "channel": 0}, {"type": "note_on", "time": 10, "note": 68, "velocity": 105, "channel": 0}, {"type": "note_off", "time": 144, "note": 68, "velocity": 105, "channel": 0}, {"type": "note_on", "time": 7, "note": 68, "velocity": 115, "channel": 0}, {"type": "note_off", "time": 49, "note": 68, "velocity": 115, "channel": 0}, {"type": "note_on", "time": 7, "note": 68, "velocity": 104, "channel": 0}, {"type": "note_off", "time": 108, "note": 68, "velocity": 104, "channel": 0}, {"type": "note_on", "time": 50, "note": 70, "velocity": 113, "channel": 0}, {"type": "note_off", "time": 69, "note": 70, "velocity": 113, "channel": 0}, {"type": "note_on", "time": 25, "note": 71, "velocity": 115, "channel": 0}, {"type": "note_off", "time": 56, "note": 71, "velocity": 115, "channel": 0}, {"type": "note_on", "time": 23, "note": 73, "velocity": 117, "channel": 0}, {"type": "note_off", "time": 81, "note": 73, "velocity": 117, "channel": 0}, {"type": "note_on", "time": 42, "note": 74, "velocity": 116, "channel": 0}, {"type": "note_off", "time": 61, "note": 74, "velocity": 116, "channel": 0}, {"type": "note_on", "time": 23, "note": 76, "velocity": 119, "channel": 0}, {"type": "note_off", "time": 64, "note": 76, "velocity": 119, "channel": 0}, {"type": "note_on", "time": 36, "note": 73, "velocity": 112, "channel": 0}, {"type": "note_off", "time": 69, "note": 73, "velocity": 112, "channel": 0}, {"type": "note_on", "time": 11, "note": 71, "velocity": 115, "channel": 0}, {"type": "note_off", "time": 76, "note": 71, "velocity": 115, "channel": 0}, {"type": "note_on", "time": 65, "note": 68, "velocity": 112, "channel": 0}, {"type": "note_off", "time": 56, "note": 68, "velocity": 112, "channel": 0}, {"type": "note_on", "time": 0, "note": 70, "velocity": 111, "channel": 0}, {"type": "note_off", "time": 64, "note": 70, "velocity": 111, "channel": 0}, {"type": "note_on", "time": 247, "note": 73, "velocity": 121, "channel": 0}, {"type": "note_off", "time": 64, "note": 73, "velocity": 121, "channel": 0}, {"type": "note_on", "time": 19, "note": 70, "velocity": 120, "channel": 0}, {"type": "note_off", "time": 51, "note": 70, "velocity": 120, "channel": 0}, {"type": "note_on", "time": 54, "note": 70, "velocity": 111, "channel": 0}, {"type": "note_off", "time": 37, "note": 70, "velocity": 111, "channel": 0}, {"type": "note_on", "time": 0, "note": 68, "velocity": 117, "channel": 0}, {"type": "note_off", "time": 33, "note": 68, "velocity": 117, "channel": 0}, {"type": "note_on", "time": 6, "note": 66, "velocity": 113, "channel": 0}, {"type": "note_off", "time": 50, "note": 66, "velocity": 113, "channel": 0}, {"type": "note_on", "time": 47, "note": 65, "velocity": 116, "channel": 0}, {"type": "note_off", "time": 72, "note": 65, "velocity": 116, "channel": 0}, {"type": "note_on", "time": 43, "note": 63, "velocity": 115, "channel": 0}, {"type": "note_off", "time": 46, "note": 63, "velocity": 115, "channel": 0}, {"type": "note_on", "time": 22, "note": 62, "velocity": 109, "channel": 0}, {"type": "note_off", "time": 43, "note": 62, "velocity": 109, "channel": 0}, {"type": "note_on", "time": 6, "note": 65, "velocity": 112, "channel": 0}, {"type": "note_off", "time": 29, "note": 65, "velocity": 112, "channel": 0}, {"type": "note_on", "time": 1, "note": 68, "velocity": 112, "channel": 0}, {"type": "note_off", "time": 30, "note": 68, "velocity": 112, "channel": 0}, {"type": "note_on", "time": 3, "note": 70, "velocity": 102, "channel": 0}, {"type": "note_off", "time": 49, "note": 70, "velocity": 102, "channel": 0}, {"type": "note_on", "time": 28, "note": 71, "velocity": 111, "channel": 0}, {"type": "note_off", "time": 36, "note": 71, "velocity": 111, "channel": 0}, {"type": "note_on", "time": 1, "note": 73, "velocity": 106, "channel": 0}, {"type": "note_off", "time": 40, "note": 73, "velocity": 106, "channel": 0}, {"type": "note_on", "time": 12, "note": 70, "velocity": 116, "channel": 0}, {"type": "note_off", "time": 231, "note": 70, "velocity": 116, "channel": 0}, {"type": "note_on", "time": 59, "note": 75, "velocity": 114, "channel": 0}, {"type": "note_off", "time": 68, "note": 75, "velocity": 114, "channel": 0}, {"type": "note_on", "time": 34, "note": 70, "velocity": 92, "channel": 0}, {"type": "note_off", "time": 34, "note": 70, "velocity": 92, "channel": 0}, {"type": "note_on", "time": 726, "note": 70, "velocity": 95, "channel": 0}, {"type": "note_on", "time": 20, "note": 72, "velocity": 105, "channel": 0}, {"type": "note_off", "time": 0, "note": 70, "velocity": 95, "channel": 0}, {"type": "note_on", "time": 20, "note": 74, "velocity": 115, "channel": 0}, {"type": "note_off", "time": 0, "note": 72, "velocity": 105, "channel": 0}, {"type": "note_off", "time": 30, "note": 74, "velocity": 115, "channel": 0}, {"type": "note_on", "time": 0, "note": 75, "velocity": 122, "channel": 0}, {"type": "note_off", "time": 102, "note": 75, "velocity": 122, "channel": 0}, {"type": "note_on", "time": 1, "note": 70, "velocity": 95, "channel": 0}, {"type": "note_off", "time": 33, "note": 70, "velocity": 95, "channel": 0}, {"type": "note_on", "time": 468, "note": 77, "velocity": 117, "channel": 0}, {"type": "note_off", "time": 103, "note": 77, "velocity": 117, "channel": 0}, {"type": "note_on", "time": 0, "note": 72, "velocity": 89, "channel": 0}, {"type": "note_off", "time": 30, "note": 72, "velocity": 89, "channel": 0}, {"type": "note_on", "time": 713, "note": 72, "velocity": 95, "channel": 0}, {"type": "note_off", "time": 29, "note": 72, "velocity": 95, "channel": 0}, {"type": "note_on", "time": 0, "note": 74, "velocity": 106, "channel": 0}, {"type": "note_off", "time": 21, "note": 74, "velocity": 106, "channel": 0}, {"type": "note_on", "time": 0, "note": 76, "velocity": 115, "channel": 0}, {"type": "note_off", "time": 50, "note": 76, "velocity": 115, "channel": 0}, {"type": "note_on", "time": 0, "note": 77, "velocity": 121, "channel": 0}, {"type": "note_off", "time": 94, "note": 77, "velocity": 121, "channel": 0}, {"type": "note_on", "time": 0, "note": 72, "velocity": 89, "channel": 0}, {"type": "note_off", "time": 32, "note": 72, "velocity": 89, "channel": 0}, {"type": "note_on", "time": 266, "note": 72, "velocity": 101, "channel": 0}, {"type": "note_off", "time": 36, "note": 72, "velocity": 101, "channel": 0}, {"type": "note_on", "time": 42, "note": 77, "velocity": 102, "channel": 0}, {"type": "note_off", "time": 39, "note": 77, "velocity": 102, "channel": 0}, {"type": "note_on", "time": 66, "note": 76, "velocity": 117, "channel": 0}, {"type": "note_off", "time": 87, "note": 76, "velocity": 117, "channel": 0}, {"type": "note_on", "time": 19, "note": 71, "velocity": 86, "channel": 0}, {"type": "note_off", "time": 35, "note": 71, "velocity": 86, "channel": 0}, {"type": "note_on", "time": 512, "note": 71, "velocity": 99, "channel": 0}, {"type": "note_off", "time": 33, "note": 71, "velocity": 99, "channel": 0}, {"type": "note_on", "time": 0, "note": 73, "velocity": 122, "channel": 0}, {"type": "note_off", "time": 47, "note": 73, "velocity": 122, "channel": 0}, {"type": "note_on", "time": 0, "note": 75, "velocity": 119, "channel": 0}, {"type": "note_off", "time": 43, "note": 75, "velocity": 119, "channel": 0}, {"type": "note_on", "time": 0, "note": 76, "velocity": 119, "channel": 0}, {"type": "note_off", "time": 136, "note": 76, "velocity": 119, "channel": 0}, {"type": "note_on", "time": 4, "note": 71, "velocity": 98, "channel": 0}, {"type": "note_off", "time": 28, "note": 71, "velocity": 98, "channel": 0}, {"type": "note_on", "time": 489, "note": 70, "velocity": 110, "channel": 0}, {"type": "note_off", "time": 16, "note": 70, "velocity": 110, "channel": 0}, {"type": "note_on", "time": 0, "note": 72, "velocity": 107, "channel": 0}, {"type": "note_off", "time": 20, "note": 72, "velocity": 107, "channel": 0}, {"type": "note_on", "time": 0, "note": 74, "velocity": 115, "channel": 0}, {"type": "note_off", "time": 38, "note": 74, "velocity": 115, "channel": 0}, {"type": "note_on", "time": 3, "note": 75, "velocity": 125, "channel": 0}, {"type": "note_off", "time": 120, "note": 75, "velocity": 125, "channel": 0}, {"type": "note_on", "time": 18, "note": 70, "velocity": 87, "channel": 0}, {"type": "note_off", "time": 28, "note": 70, "velocity": 87, "channel": 0}, {"type": "note_on", "time": 349, "note": 68, "velocity": 95, "channel": 0}, {"type": "note_off", "time": 21, "note": 68, "velocity": 95, "channel": 0}, {"type": "note_on", "time": 0, "note": 70, "velocity": 104, "channel": 0}, {"type": "note_off", "time": 18, "note": 70, "velocity": 104, "channel": 0}, {"type": "note_on", "time": 0, "note": 72, "velocity": 109, "channel": 0}, {"type": "note_off", "time": 26, "note": 72, "velocity": 109, "channel": 0}, {"type": "note_on", "time": 0, "note": 74, "velocity": 123, "channel": 0}, {"type": "note_off", "time": 36, "note": 74, "velocity": 123, "channel": 0}, {"type": "note_on", "time": 0, "note": 75, "velocity": 124, "channel": 0}, {"type": "note_off", "time": 106, "note": 75, "velocity": 124, "channel": 0}, {"type": "note_on", "time": 3, "note": 70, "velocity": 104, "channel": 0}, {"type": "note_off", "time": 28, "note": 70, "velocity": 104, "channel": 0}, {"type": "note_on", "time": 276, "note": 68, "velocity": 93, "channel": 0}, {"type": "note_off", "time": 16, "note": 68, "velocity": 93, "channel": 0}, {"type": "note_on", "time": 0, "note": 70, "velocity": 99, "channel": 0}, {"type": "note_off", "time": 26, "note": 70, "velocity": 99, "channel": 0}, {"type": "note_on", "time": 0, "note": 72, "velocity": 107, "channel": 0}, {"type": "note_off", "time": 24, "note": 72, "velocity": 107, "channel": 0}, {"type": "note_on", "time": 0, "note": 74, "velocity": 122, "channel": 0}, {"type": "note_off", "time": 47, "note": 74, "velocity": 122, "channel": 0}, {"type": "note_on", "time": 0, "note": 75, "velocity": 126, "channel": 0}, {"type": "note_off", "time": 100, "note": 75, "velocity": 126, "channel": 0}, {"type": "note_on", "time": 6, "note": 70, "velocity": 111, "channel": 0}, {"type": "note_off", "time": 36, "note": 70, "velocity": 111, "channel": 0}, {"type": "note_on", "time": 86, "note": 70, "velocity": 110, "channel": 0}, {"type": "note_off", "time": 40, "note": 70, "velocity": 110, "channel": 0}, {"type": "note_on", "time": 27, "note": 75, "velocity": 125, "channel": 0}, {"type": "note_off", "time": 39, "note": 75, "velocity": 125, "channel": 0}, {"type": "note_on", "time": 0, "note": 77, "velocity": 125, "channel": 0}, {"type": "note_off", "time": 42, "note": 77, "velocity": 125, "channel": 0}, {"type": "note_on", "time": 7, "note": 78, "velocity": 54, "channel": 0}, {"type": "note_off", "time": 43, "note": 78, "velocity": 54, "channel": 0}, {"type": "note_on", "time": 0, "note": 80, "velocity": 123, "channel": 0}, {"type": "note_off", "time": 67, "note": 80, "velocity": 123, "channel": 0}, {"type": "note_on", "time": 1, "note": 81, "velocity": 124, "channel": 0}, {"type": "note_off", "time": 37, "note": 81, "velocity": 124, "channel": 0}, {"type": "note_on", "time": 3, "note": 82, "velocity": 125, "channel": 0}, {"type": "note_off", "time": 75, "note": 82, "velocity": 125, "channel": 0}, {"type": "note_on", "time": 13, "note": 77, "velocity": 110, "channel": 0}, {"type": "note_off", "time": 40, "note": 77, "velocity": 110, "channel": 0}, {"type": "note_on", "time": 588, "note": 70, "velocity": 118, "channel": 0}, {"type": "note_off", "time": 54, "note": 70, "velocity": 118, "channel": 0}, {"type": "note_on", "time": 24, "note": 75, "velocity": 123, "channel": 0}, {"type": "note_off", "time": 59, "note": 75, "velocity": 123, "channel": 0}, {"type": "note_on", "time": 23, "note": 77, "velocity": 123, "channel": 0}, {"type": "note_off", "time": 68, "note": 77, "velocity": 123, "channel": 0}, {"type": "note_on", "time": 36, "note": 78, "velocity": 120, "channel": 0}, {"type": "note_off", "time": 62, "note": 78, "velocity": 120, "channel": 0}, {"type": "note_on", "time": 23, "note": 80, "velocity": 119, "channel": 0}, {"type": "note_off", "time": 75, "note": 80, "velocity": 119, "channel": 0}, {"type": "note_on", "time": 27, "note": 82, "velocity": 121, "channel": 0}, {"type": "note_off", "time": 91, "note": 82, "velocity": 121, "channel": 0}, {"type": "note_on", "time": 3, "note": 80, "velocity": 120, "channel": 0}, {"type": "note_off", "time": 93, "note": 80, "velocity": 120, "channel": 0}, {"type": "note_on", "time": 25, "note": 81, "velocity": 118, "channel": 0}, {"type": "note_on", "time": 89, "note": 77, "velocity": 122, "channel": 0}, {"type": "note_off", "time": 0, "note": 81, "velocity": 118, "channel": 0}, {"type": "note_off", "time": 87, "note": 77, "velocity": 122, "channel": 0}, {"type": "note_on", "time": 10, "note": 72, "velocity": 120, "channel": 0}, {"type": "note_off", "time": 86, "note": 72, "velocity": 120, "channel": 0}, {"type": "note_on", "time": 7, "note": 70, "velocity": 117, "channel": 0}, {"type": "note_off", "time": 130, "note": 70, "velocity": 117, "channel": 0}, {"type": "note_on", "time": 15, "note": 66, "velocity": 103, "channel": 0}, {"type": "note_off", "time": 47, "note": 66, "velocity": 103, "channel": 0}, {"type": "note_on", "time": 21, "note": 68, "velocity": 91, "channel": 0}, {"type": "note_off", "time": 45, "note": 68, "velocity": 91, "channel": 0}, {"type": "note_on", "time": 0, "note": 69, "velocity": 101, "channel": 0}, {"type": "note_off", "time": 23, "note": 69, "velocity": 101, "channel": 0}, {"type": "note_on", "time": 29, "note": 70, "velocity": 118, "channel": 0}, {"type": "note_off", "time": 79, "note": 70, "velocity": 118, "channel": 0}, {"type": "note_on", "time": 4, "note": 71, "velocity": 120, "channel": 0}, {"type": "note_off", "time": 71, "note": 71, "velocity": 120, "channel": 0}, {"type": "note_on", "time": 41, "note": 72, "velocity": 121, "channel": 0}, {"type": "note_off", "time": 61, "note": 72, "velocity": 121, "channel": 0}, {"type": "note_on", "time": 33, "note": 69, "velocity": 118, "channel": 0}, {"type": "note_off", "time": 54, "note": 69, "velocity": 118, "channel": 0}, {"type": "note_on", "time": 25, "note": 67, "velocity": 116, "channel": 0}, {"type": "note_off", "time": 73, "note": 67, "velocity": 116, "channel": 0}, {"type": "note_on", "time": 38, "note": 65, "velocity": 93, "channel": 0}, {"type": "note_off", "time": 58, "note": 65, "velocity": 93, "channel": 0}, {"type": "note_on", "time": 12, "note": 67, "velocity": 103, "channel": 0}, {"type": "note_off", "time": 175, "note": 67, "velocity": 103, "channel": 0}, {"type": "note_on", "time": 16, "note": 64, "velocity": 107, "channel": 0}, {"type": "note_off", "time": 90, "note": 64, "velocity": 107, "channel": 0}, {"type": "note_on", "time": 414, "note": 71, "velocity": 119, "channel": 0}, {"type": "note_off", "time": 62, "note": 71, "velocity": 119, "channel": 0}, {"type": "note_on", "time": 34, "note": 76, "velocity": 119, "channel": 0}, {"type": "note_off", "time": 74, "note": 76, "velocity": 119, "channel": 0}, {"type": "note_on", "time": 98, "note": 80, "velocity": 122, "channel": 0}, {"type": "note_off", "time": 81, "note": 80, "velocity": 122, "channel": 0}, {"type": "note_on", "time": 30, "note": 81, "velocity": 123, "channel": 0}, {"type": "note_off", "time": 84, "note": 81, "velocity": 123, "channel": 0}, {"type": "note_on", "time": 53, "note": 77, "velocity": 123, "channel": 0}, {"type": "note_off", "time": 56, "note": 77, "velocity": 123, "channel": 0}, {"type": "note_on", "time": 0, "note": 78, "velocity": 120, "channel": 0}, {"type": "note_off", "time": 63, "note": 78, "velocity": 120, "channel": 0}, {"type": "note_on", "time": 36, "note": 76, "velocity": 120, "channel": 0}, {"type": "note_off", "time": 68, "note": 76, "velocity": 120, "channel": 0}, {"type": "note_on", "time": 31, "note": 73, "velocity": 121, "channel": 0}, {"type": "note_off", "time": 66, "note": 73, "velocity": 121, "channel": 0}, {"type": "note_on", "time": 9, "note": 71, "velocity": 118, "channel": 0}, {"type": "note_off", "time": 72, "note": 71, "velocity": 118, "channel": 0}, {"type": "note_on", "time": 24, "note": 73, "velocity": 125, "channel": 0}, {"type": "note_off", "time": 65, "note": 73, "velocity": 125, "channel": 0}, {"type": "note_on", "time": 27, "note": 66, "velocity": 103, "channel": 0}, {"type": "note_off", "time": 79, "note": 66, "velocity": 103, "channel": 0}, {"type": "note_on", "time": 8, "note": 68, "velocity": 118, "channel": 0}, {"type": "note_off", "time": 87, "note": 68, "velocity": 118, "channel": 0}, {"type": "note_on", "time": 17, "note": 70, "velocity": 119, "channel": 0}, {"type": "note_off", "time": 95, "note": 70, "velocity": 119, "channel": 0}, {"type": "note_on", "time": 54, "note": 77, "velocity": 126, "channel": 0}, {"type": "note_off", "time": 75, "note": 77, "velocity": 126, "channel": 0}, {"type": "note_on", "time": 38, "note": 76, "velocity": 120, "channel": 0}, {"type": "note_off", "time": 91, "note": 76, "velocity": 120, "channel": 0}, {"type": "note_on", "time": 35, "note": 75, "velocity": 117, "channel": 0}, {"type": "note_off", "time": 63, "note": 75, "velocity": 117, "channel": 0}, {"type": "note_on", "time": 15, "note": 78, "velocity": 119, "channel": 0}, {"type": "note_off", "time": 31, "note": 78, "velocity": 119, "channel": 0}, {"type": "note_on", "time": 15, "note": 74, "velocity": 110, "channel": 0}, {"type": "note_off", "time": 18, "note": 74, "velocity": 110, "channel": 0}, {"type": "note_on", "time": 0, "note": 72, "velocity": 115, "channel": 0}, {"type": "note_off", "time": 75, "note": 72, "velocity": 115, "channel": 0}, {"type": "note_on", "time": 0, "note": 70, "velocity": 118, "channel": 0}, {"type": "note_off", "time": 84, "note": 70, "velocity": 118, "channel": 0}, {"type": "note_on", "time": 0, "note": 66, "velocity": 117, "channel": 0}, {"type": "note_off", "time": 72, "note": 66, "velocity": 117, "channel": 0}, {"type": "note_on", "time": 13, "note": 65, "velocity": 117, "channel": 0}, {"type": "note_off", "time": 59, "note": 65, "velocity": 117, "channel": 0}, {"type": "note_on", "time": 0, "note": 63, "velocity": 108, "channel": 0}, {"type": "note_off", "time": 85, "note": 63, "velocity": 108, "channel": 0}, {"type": "note_on", "time": 45, "note": 67, "velocity": 118, "channel": 0}, {"type": "note_off", "time": 54, "note": 67, "velocity": 118, "channel": 0}, {"type": "note_on", "time": 13, "note": 68, "velocity": 117, "channel": 0}, {"type": "note_off", "time": 260, "note": 68, "velocity": 117, "channel": 0}, {"type": "note_on", "time": 0, "note": 65, "velocity": 116, "channel": 0}, {"type": "note_off", "time": 72, "note": 65, "velocity": 116, "channel": 0}, {"type": "note_on", "time": 4, "note": 60, "velocity": 107, "channel": 0}, {"type": "note_off", "time": 95, "note": 60, "velocity": 107, "channel": 0}, {"type": "note_on", "time": 20, "note": 63, "velocity": 107, "channel": 0}, {"type": "note_off", "time": 186, "note": 63, "velocity": 107, "channel": 0}, {"type": "note_on", "time": 14, "note": 65, "velocity": 105, "channel": 0}, {"type": "note_off", "time": 97, "note": 65, "velocity": 105, "channel": 0}, {"type": "note_on", "time": 10, "note": 68, "velocity": 111, "channel": 0}, {"type": "note_off", "time": 68, "note": 68, "velocity": 111, "channel": 0}, {"type": "note_on", "time": 18, "note": 68, "velocity": 115, "channel": 0}, {"type": "note_off", "time": 185, "note": 68, "velocity": 115, "channel": 0}, {"type": "note_on", "time": 14, "note": 65, "velocity": 98, "channel": 0}, {"type": "note_off", "time": 27, "note": 65, "velocity": 98, "channel": 0}, {"type": "note_on", "time": 51, "note": 68, "velocity": 97, "channel": 0}, {"type": "note_off", "time": 41, "note": 68, "velocity": 97, "channel": 0}, {"type": "note_on", "time": 54, "note": 68, "velocity": 115, "channel": 0}, {"type": "note_off", "time": 176, "note": 68, "velocity": 115, "channel": 0}, {"type": "note_on", "time": 0, "note": 65, "velocity": 94, "channel": 0}, {"type": "note_off", "time": 50, "note": 65, "velocity": 94, "channel": 0}, {"type": "note_on", "time": 54, "note": 68, "velocity": 97, "channel": 0}, {"type": "note_off", "time": 15, "note": 68, "velocity": 97, "channel": 0}, {"type": "note_on", "time": 74, "note": 68, "velocity": 114, "channel": 0}, {"type": "note_off", "time": 80, "note": 68, "velocity": 114, "channel": 0}, {"type": "note_on", "time": 3, "note": 68, "velocity": 101, "channel": 0}, {"type": "note_off", "time": 98, "note": 68, "velocity": 101, "channel": 0}, {"type": "note_on", "time": 4, "note": 68, "velocity": 114, "channel": 0}, {"type": "note_off", "time": 93, "note": 68, "velocity": 114, "channel": 0}, {"type": "note_on", "time": 10, "note": 68, "velocity": 116, "channel": 0}, {"type": "note_off", "time": 39, "note": 68, "velocity": 116, "channel": 0}, {"type": "note_on", "time": 38, "note": 69, "velocity": 118, "channel": 0}, {"type": "note_off", "time": 106, "note": 69, "velocity": 118, "channel": 0}, {"type": "note_on", "time": 43, "note": 65, "velocity": 87, "channel": 0}, {"type": "note_off", "time": 37, "note": 65, "velocity": 87, "channel": 0}, {"type": "note_on", "time": 8, "note": 67, "velocity": 114, "channel": 0}, {"type": "note_off", "time": 115, "note": 67, "velocity": 114, "channel": 0}, {"type": "note_on", "time": 0, "note": 62, "velocity": 92, "channel": 0}, {"type": "note_off", "time": 75, "note": 62, "velocity": 92, "channel": 0}, {"type": "note_on", "time": 2, "note": 65, "velocity": 104, "channel": 0}, {"type": "note_off", "time": 88, "note": 65, "velocity": 104, "channel": 0}, {"type": "note_on", "time": 6, "note": 65, "velocity": 101, "channel": 0}, {"type": "note_off", "time": 90, "note": 65, "velocity": 101, "channel": 0}, {"type": "note_on", "time": 7, "note": 67, "velocity": 96, "channel": 0}, {"type": "note_off", "time": 90, "note": 67, "velocity": 96, "channel": 0}, {"type": "note_on", "time": 28, "note": 69, "velocity": 111, "channel": 0}, {"type": "note_off", "time": 50, "note": 69, "velocity": 111, "channel": 0}, {"type": "note_on", "time": 973, "note": 73, "velocity": 98, "channel": 0}, {"type": "note_off", "time": 39, "note": 73, "velocity": 98, "channel": 0}, {"type": "note_on", "time": 8, "note": 75, "velocity": 111, "channel": 0}, {"type": "note_off", "time": 20, "note": 75, "velocity": 111, "channel": 0}, {"type": "note_on", "time": 3, "note": 73, "velocity": 117, "channel": 0}, {"type": "note_off", "time": 21, "note": 73, "velocity": 117, "channel": 0}, {"type": "note_on", "time": 0, "note": 71, "velocity": 111, "channel": 0}, {"type": "note_off", "time": 49, "note": 71, "velocity": 111, "channel": 0}, {"type": "note_on", "time": 39, "note": 73, "velocity": 111, "channel": 0}, {"type": "note_off", "time": 84, "note": 73, "velocity": 111, "channel": 0}, {"type": "note_on", "time": 5, "note": 71, "velocity": 100, "channel": 0}, {"type": "note_off", "time": 32, "note": 71, "velocity": 100, "channel": 0}, {"type": "note_on", "time": 65, "note": 73, "velocity": 118, "channel": 0}, {"type": "note_off", "time": 79, "note": 73, "velocity": 118, "channel": 0}, {"type": "note_on", "time": 5, "note": 71, "velocity": 100, "channel": 0}, {"type": "note_off", "time": 34, "note": 71, "velocity": 100, "channel": 0}, {"type": "note_on", "time": 61, "note": 73, "velocity": 118, "channel": 0}, {"type": "note_off", "time": 93, "note": 73, "velocity": 118, "channel": 0}, {"type": "note_on", "time": 4, "note": 71, "velocity": 111, "channel": 0}, {"type": "note_off", "time": 34, "note": 71, "velocity": 111, "channel": 0}, {"type": "note_on", "time": 56, "note": 73, "velocity": 117, "channel": 0}, {"type": "note_off", "time": 72, "note": 73, "velocity": 117, "channel": 0}, {"type": "note_on", "time": 29, "note": 71, "velocity": 99, "channel": 0}, {"type": "note_off", "time": 42, "note": 71, "velocity": 99, "channel": 0}, {"type": "note_on", "time": 49, "note": 73, "velocity": 120, "channel": 0}, {"type": "note_off", "time": 90, "note": 73, "velocity": 120, "channel": 0}, {"type": "note_on", "time": 2, "note": 71, "velocity": 106, "channel": 0}, {"type": "note_off", "time": 31, "note": 71, "velocity": 106, "channel": 0}, {"type": "note_on", "time": 20, "note": 78, "velocity": 103, "channel": 0}, {"type": "note_off", "time": 29, "note": 78, "velocity": 103, "channel": 0}, {"type": "note_on", "time": 20, "note": 73, "velocity": 108, "channel": 0}, {"type": "note_off", "time": 75, "note": 73, "velocity": 108, "channel": 0}, {"type": "note_on", "time": 14, "note": 71, "velocity": 112, "channel": 0}, {"type": "note_off", "time": 29, "note": 71, "velocity": 112, "channel": 0}, {"type": "note_on", "time": 274, "note": 66, "velocity": 107, "channel": 0}, {"type": "note_off", "time": 22, "note": 66, "velocity": 107, "channel": 0}, {"type": "note_on", "time": 9, "note": 68, "velocity": 106, "channel": 0}, {"type": "note_off", "time": 23, "note": 68, "velocity": 106, "channel": 0}, {"type": "note_on", "time": 21, "note": 70, "velocity": 118, "channel": 0}, {"type": "note_off", "time": 71, "note": 70, "velocity": 118, "channel": 0}, {"type": "note_on", "time": 47, "note": 77, "velocity": 119, "channel": 0}, {"type": "note_off", "time": 59, "note": 77, "velocity": 119, "channel": 0}, {"type": "note_on", "time": 39, "note": 76, "velocity": 121, "channel": 0}, {"type": "note_off", "time": 65, "note": 76, "velocity": 121, "channel": 0}, {"type": "note_on", "time": 40, "note": 75, "velocity": 126, "channel": 0}, {"type": "note_off", "time": 62, "note": 75, "velocity": 126, "channel": 0}, {"type": "note_on", "time": 9, "note": 72, "velocity": 121, "channel": 0}, {"type": "note_off", "time": 85, "note": 72, "velocity": 121, "channel": 0}, {"type": "note_on", "time": 11, "note": 70, "velocity": 119, "channel": 0}, {"type": "note_off", "time": 71, "note": 70, "velocity": 119, "channel": 0}, {"type": "note_on", "time": 14, "note": 66, "velocity": 118, "channel": 0}, {"type": "note_off", "time": 91, "note": 66, "velocity": 118, "channel": 0}, {"type": "note_on", "time": 9, "note": 65, "velocity": 115, "channel": 0}, {"type": "note_off", "time": 111, "note": 65, "velocity": 115, "channel": 0}, {"type": "note_on", "time": 0, "note": 63, "velocity": 93, "channel": 0}, {"type": "note_off", "time": 37, "note": 63, "velocity": 93, "channel": 0}, {"type": "note_on", "time": 46, "note": 68, "velocity": 116, "channel": 0}, {"type": "note_on", "time": 117, "note": 65, "velocity": 108, "channel": 0}, {"type": "note_off", "time": 0, "note": 68, "velocity": 116, "channel": 0}, {"type": "note_off", "time": 49, "note": 65, "velocity": 108, "channel": 0}, {"type": "note_on", "time": 323, "note": 77, "velocity": 121, "channel": 0}, {"type": "note_off", "time": 33, "note": 77, "velocity": 121, "channel": 0}, {"type": "note_on", "time": 62, "note": 79, "velocity": 119, "channel": 0}, {"type": "note_off", "time": 35, "note": 79, "velocity": 119, "channel": 0}, {"type": "note_on", "time": 3, "note": 80, "velocity": 124, "channel": 0}, {"type": "note_off", "time": 47, "note": 80, "velocity": 124, "channel": 0}, {"type": "note_on", "time": 20, "note": 77, "velocity": 114, "channel": 0}, {"type": "note_off", "time": 35, "note": 77, "velocity": 114, "channel": 0}, {"type": "note_on", "time": 61, "note": 79, "velocity": 121, "channel": 0}, {"type": "note_off", "time": 49, "note": 79, "velocity": 121, "channel": 0}, {"type": "note_on", "time": 2, "note": 80, "velocity": 125, "channel": 0}, {"type": "note_off", "time": 61, "note": 80, "velocity": 125, "channel": 0}, {"type": "note_on", "time": 191, "note": 74, "velocity": 117, "channel": 0}, {"type": "note_off", "time": 54, "note": 74, "velocity": 117, "channel": 0}, {"type": "note_on", "time": 75, "note": 79, "velocity": 121, "channel": 0}, {"type": "note_off", "time": 66, "note": 79, "velocity": 121, "channel": 0}, {"type": "note_on", "time": 2, "note": 80, "velocity": 123, "channel": 0}, {"type": "note_off", "time": 68, "note": 80, "velocity": 123, "channel": 0}, {"type": "note_on", "time": 41, "note": 77, "velocity": 124, "channel": 0}, {"type": "note_off", "time": 71, "note": 77, "velocity": 124, "channel": 0}, {"type": "note_on", "time": 18, "note": 79, "velocity": 109, "channel": 0}, {"type": "note_off", "time": 97, "note": 79, "velocity": 109, "channel": 0}, {"type": "note_on", "time": 29, "note": 80, "velocity": 122, "channel": 0}, {"type": "note_off", "time": 74, "note": 80, "velocity": 122, "channel": 0}, {"type": "note_on", "time": 11, "note": 77, "velocity": 119, "channel": 0}, {"type": "note_off", "time": 86, "note": 77, "velocity": 119, "channel": 0}, {"type": "note_on", "time": 12, "note": 79, "velocity": 118, "channel": 0}, {"type": "note_off", "time": 88, "note": 79, "velocity": 118, "channel": 0}, {"type": "note_on", "time": 16, "note": 80, "velocity": 125, "channel": 0}, {"type": "note_off", "time": 81, "note": 80, "velocity": 125, "channel": 0}, {"type": "note_on", "time": 31, "note": 79, "velocity": 122, "channel": 0}, {"type": "note_off", "time": 74, "note": 79, "velocity": 122, "channel": 0}, {"type": "note_on", "time": 3, "note": 75, "velocity": 117, "channel": 0}, {"type": "note_off", "time": 76, "note": 75, "velocity": 117, "channel": 0}, {"type": "note_on", "time": 35, "note": 77, "velocity": 123, "channel": 0}, {"type": "note_off", "time": 79, "note": 77, "velocity": 123, "channel": 0}, {"type": "note_on", "time": 8, "note": 75, "velocity": 107, "channel": 0}, {"type": "note_off", "time": 81, "note": 75, "velocity": 107, "channel": 0}, {"type": "note_on", "time": 32, "note": 77, "velocity": 112, "channel": 0}, {"type": "note_off", "time": 72, "note": 77, "velocity": 112, "channel": 0}, {"type": "note_on", "time": 35, "note": 72, "velocity": 88, "channel": 0}, {"type": "note_off", "time": 59, "note": 72, "velocity": 88, "channel": 0}, {"type": "note_on", "time": 29, "note": 73, "velocity": 119, "channel": 0}, {"type": "note_off", "time": 77, "note": 73, "velocity": 119, "channel": 0}, {"type": "note_on", "time": 5, "note": 70, "velocity": 99, "channel": 0}, {"type": "note_off", "time": 44, "note": 70, "velocity": 99, "channel": 0}, {"type": "note_on", "time": 46, "note": 71, "velocity": 100, "channel": 0}, {"type": "note_off", "time": 18, "note": 71, "velocity": 100, "channel": 0}, {"type": "note_on", "time": 5, "note": 72, "velocity": 116, "channel": 0}, {"type": "note_off", "time": 62, "note": 72, "velocity": 116, "channel": 0}, {"type": "note_on", "time": 7, "note": 75, "velocity": 121, "channel": 0}, {"type": "note_off", "time": 73, "note": 75, "velocity": 121, "channel": 0}, {"type": "note_on", "time": 43, "note": 70, "velocity": 115, "channel": 0}, {"type": "note_off", "time": 90, "note": 70, "velocity": 115, "channel": 0}, {"type": "note_on", "time": 2, "note": 69, "velocity": 118, "channel": 0}, {"type": "note_off", "time": 103, "note": 69, "velocity": 118, "channel": 0}, {"type": "note_on", "time": 39, "note": 72, "velocity": 98, "channel": 0}, {"type": "note_off", "time": 48, "note": 72, "velocity": 98, "channel": 0}, {"type": "note_on", "time": 44, "note": 70, "velocity": 115, "channel": 0}, {"type": "note_off", "time": 68, "note": 70, "velocity": 115, "channel": 0}, {"type": "note_on", "time": 33, "note": 71, "velocity": 115, "channel": 0}, {"type": "note_off", "time": 62, "note": 71, "velocity": 115, "channel": 0}, {"type": "note_on", "time": 12, "note": 73, "velocity": 120, "channel": 0}, {"type": "note_off", "time": 62, "note": 73, "velocity": 120, "channel": 0}, {"type": "note_on", "time": 59, "note": 75, "velocity": 123, "channel": 0}, {"type": "note_off", "time": 61, "note": 75, "velocity": 123, "channel": 0}, {"type": "note_on", "time": 23, "note": 77, "velocity": 123, "channel": 0}, {"type": "note_off", "time": 62, "note": 77, "velocity": 123, "channel": 0}, {"type": "note_on", "time": 31, "note": 78, "velocity": 124, "channel": 0}, {"type": "note_off", "time": 57, "note": 78, "velocity": 124, "channel": 0}, {"type": "note_on", "time": 27, "note": 80, "velocity": 124, "channel": 0}, {"type": "note_off", "time": 91, "note": 80, "velocity": 124, "channel": 0}, {"type": "note_on", "time": 12, "note": 79, "velocity": 103, "channel": 0}, {"type": "note_off", "time": 29, "note": 79, "velocity": 103, "channel": 0}, {"type": "note_on", "time": 7, "note": 77, "velocity": 124, "channel": 0}, {"type": "note_off", "time": 51, "note": 77, "velocity": 124, "channel": 0}, {"type": "note_on", "time": 14, "note": 78, "velocity": 123, "channel": 0}, {"type": "note_off", "time": 88, "note": 78, "velocity": 123, "channel": 0}, {"type": "note_on", "time": 11, "note": 75, "velocity": 123, "channel": 0}, {"type": "note_off", "time": 65, "note": 75, "velocity": 123, "channel": 0}, {"type": "note_on", "time": 25, "note": 76, "velocity": 120, "channel": 0}, {"type": "note_off", "time": 100, "note": 76, "velocity": 120, "channel": 0}, {"type": "note_on", "time": 18, "note": 77, "velocity": 122, "channel": 0}, {"type": "note_off", "time": 74, "note": 77, "velocity": 122, "channel": 0}, {"type": "note_on", "time": 23, "note": 76, "velocity": 114, "channel": 0}, {"type": "note_off", "time": 71, "note": 76, "velocity": 114, "channel": 0}, {"type": "note_on", "time": 26, "note": 75, "velocity": 115, "channel": 0}, {"type": "note_off", "time": 90, "note": 75, "velocity": 115, "channel": 0}, {"type": "note_on", "time": 3, "note": 74, "velocity": 116, "channel": 0}, {"type": "note_off", "time": 95, "note": 74, "velocity": 116, "channel": 0}, {"type": "note_on", "time": 5, "note": 75, "velocity": 103, "channel": 0}, {"type": "note_off", "time": 23, "note": 75, "velocity": 103, "channel": 0}, {"type": "note_on", "time": 5, "note": 73, "velocity": 113, "channel": 0}, {"type": "note_off", "time": 48, "note": 73, "velocity": 113, "channel": 0}, {"type": "note_on", "time": 19, "note": 71, "velocity": 113, "channel": 0}, {"type": "note_off", "time": 74, "note": 71, "velocity": 113, "channel": 0}, {"type": "note_on", "time": 22, "note": 68, "velocity": 110, "channel": 0}, {"type": "note_off", "time": 81, "note": 68, "velocity": 110, "channel": 0}, {"type": "note_on", "time": 7, "note": 69, "velocity": 114, "channel": 0}, {"type": "note_off", "time": 94, "note": 69, "velocity": 114, "channel": 0}, {"type": "note_on", "time": 1, "note": 68, "velocity": 101, "channel": 0}, {"type": "note_off", "time": 75, "note": 68, "velocity": 101, "channel": 0}, {"type": "note_on", "time": 4, "note": 70, "velocity": 109, "channel": 0}, {"type": "note_off", "time": 56, "note": 70, "velocity": 109, "channel": 0}, {"type": "note_on", "time": 73, "note": 73, "velocity": 93, "channel": 0}, {"type": "note_off", "time": 42, "note": 73, "velocity": 93, "channel": 0}, {"type": "note_on", "time": 35, "note": 70, "velocity": 111, "channel": 0}, {"type": "note_off", "time": 72, "note": 70, "velocity": 111, "channel": 0}, {"type": "note_on", "time": 20, "note": 70, "velocity": 100, "channel": 0}, {"type": "note_off", "time": 37, "note": 70, "velocity": 100, "channel": 0}, {"type": "note_on", "time": 7, "note": 68, "velocity": 105, "channel": 0}, {"type": "note_off", "time": 53, "note": 68, "velocity": 105, "channel": 0}, {"type": "note_on", "time": 3, "note": 68, "velocity": 96, "channel": 0}, {"type": "note_off", "time": 93, "note": 68, "velocity": 96, "channel": 0}, {"type": "note_on", "time": 14, "note": 65, "velocity": 113, "channel": 0}, {"type": "note_off", "time": 78, "note": 65, "velocity": 113, "channel": 0}, {"type": "note_on", "time": 0, "note": 63, "velocity": 108, "channel": 0}, {"type": "note_off", "time": 79, "note": 63, "velocity": 108, "channel": 0}, {"type": "note_on", "time": 0, "note": 62, "velocity": 94, "channel": 0}, {"type": "note_off", "time": 55, "note": 62, "velocity": 94, "channel": 0}, {"type": "note_on", "time": 1, "note": 65, "velocity": 104, "channel": 0}, {"type": "note_off", "time": 39, "note": 65, "velocity": 104, "channel": 0}, {"type": "note_on", "time": 0, "note": 68, "velocity": 114, "channel": 0}, {"type": "note_off", "time": 42, "note": 68, "velocity": 114, "channel": 0}, {"type": "note_on", "time": 54, "note": 71, "velocity": 111, "channel": 0}, {"type": "note_off", "time": 43, "note": 71, "velocity": 111, "channel": 0}, {"type": "note_on", "time": 5, "note": 73, "velocity": 107, "channel": 0}, {"type": "note_off", "time": 56, "note": 73, "velocity": 107, "channel": 0}, {"type": "note_on", "time": 4, "note": 70, "velocity": 107, "channel": 0}, {"type": "note_off", "time": 261, "note": 70, "velocity": 107, "channel": 0}, {"type": "note_on", "time": 332, "note": 68, "velocity": 112, "channel": 0}, {"type": "note_off", "time": 87, "note": 68, "velocity": 112, "channel": 0}, {"type": "note_on", "time": 0, "note": 70, "velocity": 120, "channel": 0}, {"type": "note_off", "time": 203, "note": 70, "velocity": 120, "channel": 0}, {"type": "note_on", "time": 10, "note": 75, "velocity": 119, "channel": 0}, {"type": "note_off", "time": 49, "note": 75, "velocity": 119, "channel": 0}, {"type": "note_on", "time": 0, "note": 70, "velocity": 94, "channel": 0}, {"type": "note_off", "time": 27, "note": 70, "velocity": 94, "channel": 0}, {"type": "note_on", "time": 59, "note": 68, "velocity": 114, "channel": 0}, {"type": "note_off", "time": 32, "note": 68, "velocity": 114, "channel": 0}, {"type": "note_on", "time": 10, "note": 67, "velocity": 107, "channel": 0}, {"type": "note_off", "time": 59, "note": 67, "velocity": 107, "channel": 0}, {"type": "note_on", "time": 12, "note": 68, "velocity": 97, "channel": 0}, {"type": "note_off", "time": 78, "note": 68, "velocity": 97, "channel": 0}, {"type": "note_on", "time": 7, "note": 69, "velocity": 100, "channel": 0}, {"type": "note_off", "time": 174, "note": 69, "velocity": 100, "channel": 0}, {"type": "note_on", "time": 15, "note": 68, "velocity": 90, "channel": 0}, {"type": "note_off", "time": 200, "note": 68, "velocity": 90, "channel": 0}, {"type": "note_on", "time": 27, "note": 68, "velocity": 119, "channel": 0}, {"type": "note_off", "time": 98, "note": 68, "velocity": 119, "channel": 0}, {"type": "note_on", "time": 10, "note": 68, "velocity": 103, "channel": 0}, {"type": "note_off", "time": 54, "note": 68, "velocity": 103, "channel": 0}, {"type": "note_on", "time": 46, "note": 68, "velocity": 87, "channel": 0}, {"type": "note_off", "time": 59, "note": 68, "velocity": 87, "channel": 0}, {"type": "note_on", "time": 17, "note": 69, "velocity": 104, "channel": 0}, {"type": "note_off", "time": 62, "note": 69, "velocity": 104, "channel": 0}, {"type": "note_on", "time": 16, "note": 67, "velocity": 110, "channel": 0}, {"type": "note_off", "time": 63, "note": 67, "velocity": 110, "channel": 0}, {"type": "note_on", "time": 160, "note": 67, "velocity": 116, "channel": 0}, {"type": "note_off", "time": 103, "note": 67, "velocity": 116, "channel": 0}, {"type": "note_on", "time": 0, "note": 62, "velocity": 91, "channel": 0}, {"type": "note_off", "time": 42, "note": 62, "velocity": 91, "channel": 0}, {"type": "note_on", "time": 50, "note": 65, "velocity": 103, "channel": 0}, {"type": "note_off", "time": 175, "note": 65, "velocity": 103, "channel": 0}, {"type": "note_on", "time": 15, "note": 67, "velocity": 112, "channel": 0}, {"type": "note_off", "time": 66, "note": 67, "velocity": 112, "channel": 0}, {"type": "note_on", "time": 51, "note": 67, "velocity": 95, "channel": 0}, {"type": "note_off", "time": 78, "note": 67, "velocity": 95, "channel": 0}, {"type": "note_on", "time": 19, "note": 70, "velocity": 109, "channel": 0}, {"type": "note_off", "time": 48, "note": 70, "velocity": 109, "channel": 0}, {"type": "note_on", "time": 0, "note": 67, "velocity": 103, "channel": 0}, {"type": "note_off", "time": 34, "note": 67, "velocity": 103, "channel": 0}, {"type": "note_on", "time": 6, "note": 65, "velocity": 103, "channel": 0}, {"type": "note_off", "time": 63, "note": 65, "velocity": 103, "channel": 0}, {"type": "note_on", "time": 0, "note": 67, "velocity": 112, "channel": 0}, {"type": "note_off", "time": 78, "note": 67, "velocity": 112, "channel": 0}, {"type": "note_on", "time": 65, "note": 63, "velocity": 95, "channel": 0}, {"type": "note_off", "time": 26, "note": 63, "velocity": 95, "channel": 0}, {"type": "note_on", "time": 6, "note": 65, "velocity": 104, "channel": 0}, {"type": "note_off", "time": 85, "note": 65, "velocity": 104, "channel": 0}, {"type": "note_on", "time": 29, "note": 65, "velocity": 107, "channel": 0}, {"type": "note_off", "time": 71, "note": 65, "velocity": 107, "channel": 0}, {"type": "note_on", "time": 20, "note": 67, "velocity": 92, "channel": 0}, {"type": "note_off", "time": 65, "note": 67, "velocity": 92, "channel": 0}, {"type": "note_on", "time": 325, "note": 68, "velocity": 91, "channel": 0}, {"type": "note_off", "time": 36, "note": 68, "velocity": 91, "channel": 0}, {"type": "note_on", "time": 15, "note": 68, "velocity": 98, "channel": 0}, {"type": "note_off", "time": 134, "note": 68, "velocity": 98, "channel": 0}, {"type": "note_on", "time": 12, "note": 67, "velocity": 116, "channel": 0}, {"type": "note_off", "time": 39, "note": 67, "velocity": 116, "channel": 0}, {"type": "note_on", "time": 9, "note": 68, "velocity": 102, "channel": 0}, {"type": "note_off", "time": 42, "note": 68, "velocity": 102, "channel": 0}, {"type": "note_on", "time": 9, "note": 70, "velocity": 117, "channel": 0}, {"type": "note_off", "time": 72, "note": 70, "velocity": 117, "channel": 0}, {"type": "note_on", "time": 30, "note": 71, "velocity": 119, "channel": 0}, {"type": "note_off", "time": 63, "note": 71, "velocity": 119, "channel": 0}, {"type": "note_on", "time": 1, "note": 73, "velocity": 122, "channel": 0}, {"type": "note_off", "time": 90, "note": 73, "velocity": 122, "channel": 0}, {"type": "note_on", "time": 13, "note": 75, "velocity": 106, "channel": 0}, {"type": "note_off", "time": 21, "note": 75, "velocity": 106, "channel": 0}, {"type": "note_on", "time": 0, "note": 73, "velocity": 122, "channel": 0}, {"type": "note_off", "time": 174, "note": 73, "velocity": 122, "channel": 0}, {"type": "note_on", "time": 0, "note": 71, "velocity": 116, "channel": 0}, {"type": "note_off", "time": 78, "note": 71, "velocity": 116, "channel": 0}, {"type": "note_on", "time": 31, "note": 73, "velocity": 118, "channel": 0}, {"type": "note_off", "time": 108, "note": 73, "velocity": 118, "channel": 0}, {"type": "note_on", "time": 2, "note": 74, "velocity": 110, "channel": 0}, {"type": "note_off", "time": 35, "note": 74, "velocity": 110, "channel": 0}, {"type": "note_on", "time": 7, "note": 73, "velocity": 113, "channel": 0}, {"type": "note_off", "time": 26, "note": 73, "velocity": 113, "channel": 0}, {"type": "note_on", "time": 4, "note": 71, "velocity": 116, "channel": 0}, {"type": "note_off", "time": 103, "note": 71, "velocity": 116, "channel": 0}, {"type": "note_on", "time": 0, "note": 66, "velocity": 97, "channel": 0}, {"type": "note_off", "time": 46, "note": 66, "velocity": 97, "channel": 0}, {"type": "note_on", "time": 36, "note": 68, "velocity": 117, "channel": 0}, {"type": "note_off", "time": 82, "note": 68, "velocity": 117, "channel": 0}, {"type": "note_on", "time": 43, "note": 70, "velocity": 119, "channel": 0}, {"type": "note_off", "time": 135, "note": 70, "velocity": 119, "channel": 0}, {"type": "note_on", "time": 61, "note": 77, "velocity": 123, "channel": 0}, {"type": "note_off", "time": 77, "note": 77, "velocity": 123, "channel": 0}, {"type": "note_on", "time": 10, "note": 76, "velocity": 122, "channel": 0}, {"type": "note_off", "time": 85, "note": 76, "velocity": 122, "channel": 0}, {"type": "note_on", "time": 24, "note": 75, "velocity": 123, "channel": 0}, {"type": "note_off", "time": 75, "note": 75, "velocity": 123, "channel": 0}, {"type": "note_on", "time": 13, "note": 72, "velocity": 120, "channel": 0}, {"type": "note_off", "time": 90, "note": 72, "velocity": 120, "channel": 0}, {"type": "note_on", "time": 4, "note": 70, "velocity": 118, "channel": 0}, {"type": "note_off", "time": 79, "note": 70, "velocity": 118, "channel": 0}, {"type": "note_on", "time": 9, "note": 66, "velocity": 117, "channel": 0}, {"type": "note_off", "time": 83, "note": 66, "velocity": 117, "channel": 0}, {"type": "note_on", "time": 10, "note": 65, "velocity": 115, "channel": 0}, {"type": "note_off", "time": 95, "note": 65, "velocity": 115, "channel": 0}, {"type": "note_on", "time": 24, "note": 63, "velocity": 84, "channel": 0}, {"type": "note_off", "time": 53, "note": 63, "velocity": 84, "channel": 0}, {"type": "note_on", "time": 20, "note": 67, "velocity": 115, "channel": 0}, {"type": "note_off", "time": 61, "note": 67, "velocity": 115, "channel": 0}, {"type": "note_on", "time": 2, "note": 68, "velocity": 117, "channel": 0}, {"type": "note_off", "time": 286, "note": 68, "velocity": 117, "channel": 0}, {"type": "note_on", "time": 7, "note": 65, "velocity": 113, "channel": 0}, {"type": "note_off", "time": 98, "note": 65, "velocity": 113, "channel": 0}, {"type": "note_on", "time": 0, "note": 60, "velocity": 103, "channel": 0}, {"type": "note_off", "time": 97, "note": 60, "velocity": 103, "channel": 0}, {"type": "note_on", "time": 5, "note": 58, "velocity": 91, "channel": 0}, {"type": "note_off", "time": 331, "note": 58, "velocity": 91, "channel": 0}, {"type": "end_of_track", "time": 0}]]}