{"ticks_per_beat": 192, "tracks": [[{"type": "track_name", "name": "Melody", "time": 0}, {"type": "set_tempo", "tempo": 342857, "time": 0}, {"type": "key_signature", "key": "Db", "time": 0}, {"type": "time_signature", "numerator": 4, "denominator": 4, "clocks_per_click": 24, "notated_32nd_notes_per_beat": 8, "time": 0}, {"type": "note_on", "time": 2522, "note": 56, "velocity": 104, "channel": 0}, {"type": "note_off", "time": 117, "note": 56, "velocity": 104, "channel": 0}, {"type": "note_on", "time": 80, "note": 61, "velocity": 81, "channel": 0}, {"type": "note_off", "time": 276, "note": 61, "velocity": 81, "channel": 0}, {"type": "note_on", "time": 240, "note": 53, "velocity": 100, "channel": 0}, {"type": "note_off", "time": 43, "note": 53, "velocity": 100, "channel": 0}, {"type": "note_on", "time": 17, "note": 54, "velocity": 102, "channel": 0}, {"type": "note_off", "time": 128, "note": 54, "velocity": 102, "channel": 0}, {"type": "note_on", "time": 77, "note": 61, "velocity": 93, "channel": 0}, {"type": "note_off", "time": 187, "note": 61, "velocity": 93, "channel": 0}, {"type": "note_on", "time": 288, "note": 52, "velocity": 109, "channel": 0}, {"type": "note_off", "time": 74, "note": 52, "velocity": 109, "channel": 0}, {"type": "note_on", "time": 9, "note": 53, "velocity": 109, "channel": 0}, {"type": "note_off", "time": 100, "note": 53, "velocity": 109, "channel": 0}, {"type": "note_on", "time": 20, "note": 56, "velocity": 92, "channel": 0}, {"type": "note_off", "time": 60, "note": 56, "velocity": 92, "channel": 0}, {"type": "note_on", "time": 20, "note": 61, "velocity": 95, "channel": 0}, {"type": "note_off", "time": 235, "note": 61, "velocity": 95, "channel": 0}, {"type": "note_on", "time": 259, "note": 53, "velocity": 96, "channel": 0}, {"type": "note_off", "time": 67, "note": 53, "velocity": 96, "channel": 0}, {"type": "note_on", "time": 8, "note": 54, "velocity": 104, "channel": 0}, {"type": "note_off", "time": 133, "note": 54, "velocity": 104, "channel": 0}, {"type": "note_on", "time": 53, "note": 61, "velocity": 99, "channel": 0}, {"type": "note_off", "time": 205, "note": 61, "velocity": 99, "channel": 0}, {"type": "note_on", "time": 316, "note": 52, "velocity": 102, "channel": 0}, {"type": "note_off", "time": 46, "note": 52, "velocity": 102, "channel": 0}, {"type": "note_on", "time": 4, "note": 53, "velocity": 108, "channel": 0}, {"type": "note_off", "time": 127, "note": 53, "velocity": 108, "channel": 0}, {"type": "note_on", "time": 9, "note": 56, "velocity": 103, "channel": 0}, {"type": "note_off", "time": 53, "note": 56, "velocity": 103, "channel": 0}, {"type": "note_on", "time": 12, "note": 61, "velocity": 104, "channel": 0}, {"type": "note_off", "time": 102, "note": 61, "velocity": 104, "channel": 0}, {"type": "note_on", "time": 16, "note": 63, "velocity": 108, "channel": 0}, {"type": "note_off", "time": 54, "note": 63, "velocity": 108, "channel": 0}, {"type": "note_on", "time": 3, "note": 65, "velocity": 83, "channel": 0}, {"type": "note_off", "time": 84, "note": 65, "velocity": 83, "channel": 0}, {"type": "note_on", "time": 21, "note": 67, "velocity": 92, "channel": 0}, {"type": "note_off", "time": 33, "note": 67, "velocity": 92, "channel": 0}, {"type": "note_on", "time": 7, "note": 65, "velocity": 96, "channel": 0}, {"type": "note_off", "time": 44, "note": 65, "velocity": 96, "channel": 0}, {"type": "note_on", "time": 9, "note": 61, "velocity": 106, "channel": 0}, {"type": "note_off", "time": 100, "note": 61, "velocity": 106, "channel": 0}, {"type": "note_on", "time": 20, "note": 58, "velocity": 88, "channel": 0}, {"type": "note_off", "time": 42, "note": 58, "velocity": 88, "channel": 0}, {"type": "note_on", "time": 15, "note": 54, "velocity": 97, "channel": 0}, {"type": "note_off", "time": 97, "note": 54, "velocity": 97, "channel": 0}, {"type": "note_on", "time": 12, "note": 51, "velocity": 93, "channel": 0}, {"type": "note_off", "time": 98, "note": 51, "velocity": 93, "channel": 0}, {"type": "note_on", "time": 1, "note": 53, "velocity": 94, "channel": 0}, {"type": "note_off", "time": 109, "note": 53, "velocity": 94, "channel": 0}, {"type": "note_on", "time": 13, "note": 56, "velocity": 99, "channel": 0}, {"type": "note_off", "time": 78, "note": 56, "velocity": 99, "channel": 0}, {"type": "note_on", "time": 10, "note": 52, "velocity": 102, "channel": 0}, {"type": "note_off", "time": 91, "note": 52, "velocity": 102, "channel": 0}, {"type": "note_on", "time": 12, "note": 53, "velocity": 90, "channel": 0}, {"type": "note_off", "time": 42, "note": 53, "velocity": 90, "channel": 0}, {"type": "note_on", "time": 18, "note": 56, "velocity": 104, "channel": 0}, {"type": "note_off", "time": 99, "note": 56, "velocity": 104, "channel": 0}, {"type": "note_on", "time": 31, "note": 61, "velocity": 91, "channel": 0}, {"type": "note_off", "time": 118, "note": 61, "velocity": 91, "channel": 0}, {"type": "note_on", "time": 63, "note": 61, "velocity": 100, "channel": 0}, {"type": "note_off", "time": 75, "note": 61, "velocity": 100, "channel": 0}, {"type": "note_on", "time": 11, "note": 61, "velocity": 88, "channel": 0}, {"type": "note_off", "time": 130, "note": 61, "velocity": 88, "channel": 0}, {"type": "note_on", "time": 46, "note": 59, "velocity": 96, "channel": 0}, {"type": "note_off", "time": 102, "note": 59, "velocity": 96, "channel": 0}, {"type": "note_on", "time": 20, "note": 59, "velocity": 101, "channel": 0}, {"type": "note_off", "time": 69, "note": 59, "velocity": 101, "channel": 0}, {"type": "note_on", "time": 23, "note": 58, "velocity": 80, "channel": 0}, {"type": "note_off", "time": 95, "note": 58, "velocity": 80, "channel": 0}, {"type": "note_on", "time": 40, "note": 56, "velocity": 93, "channel": 0}, {"type": "note_off", "time": 278, "note": 56, "velocity": 93, "channel": 0}, {"type": "note_on", "time": 17, "note": 56, "velocity": 97, "channel": 0}, {"type": "note_off", "time": 66, "note": 56, "velocity": 97, "channel": 0}, {"type": "note_on", "time": 22, "note": 53, "velocity": 99, "channel": 0}, {"type": "note_off", "time": 93, "note": 53, "velocity": 99, "channel": 0}, {"type": "note_on", "time": 104, "note": 63, "velocity": 102, "channel": 0}, {"type": "note_off", "time": 114, "note": 63, "velocity": 102, "channel": 0}, {"type": "note_on", "time": 13, "note": 62, "velocity": 87, "channel": 0}, {"type": "note_off", "time": 42, "note": 62, "velocity": 87, "channel": 0}, {"type": "note_on", "time": 6, "note": 63, "velocity": 98, "channel": 0}, {"type": "note_off", "time": 156, "note": 63, "velocity": 98, "channel": 0}, {"type": "note_on", "time": 60, "note": 61, "velocity": 100, "channel": 0}, {"type": "note_off", "time": 123, "note": 61, "velocity": 100, "channel": 0}, {"type": "note_on", "time": 19, "note": 58, "velocity": 90, "channel": 0}, {"type": "note_off", "time": 85, "note": 58, "velocity": 90, "channel": 0}, {"type": "note_on", "time": 60, "note": 62, "velocity": 101, "channel": 0}, {"type": "note_off", "time": 52, "note": 62, "velocity": 101, "channel": 0}, {"type": "note_on", "time": 1, "note": 63, "velocity": 91, "channel": 0}, {"type": "note_off", "time": 144, "note": 63, "velocity": 91, "channel": 0}, {"type": "note_on", "time": 10, "note": 63, "velocity": 98, "channel": 0}, {"type": "note_off", "time": 47, "note": 63, "velocity": 98, "channel": 0}, {"type": "note_on", "time": 5, "note": 61, "velocity": 91, "channel": 0}, {"type": "note_off", "time": 97, "note": 61, "velocity": 91, "channel": 0}, {"type": "note_on", "time": 108, "note": 64, "velocity": 102, "channel": 0}, {"type": "note_off", "time": 72, "note": 64, "velocity": 102, "channel": 0}, {"type": "note_on", "time": 6, "note": 65, "velocity": 87, "channel": 0}, {"type": "note_off", "time": 178, "note": 65, "velocity": 87, "channel": 0}, {"type": "note_on", "time": 9, "note": 63, "velocity": 101, "channel": 0}, {"type": "note_off", "time": 70, "note": 63, "velocity": 101, "channel": 0}, {"type": "note_on", "time": 20, "note": 61, "velocity": 96, "channel": 0}, {"type": "note_off", "time": 107, "note": 61, "velocity": 96, "channel": 0}, {"type": "note_on", "time": 21, "note": 58, "velocity": 84, "channel": 0}, {"type": "note_off", "time": 498, "note": 58, "velocity": 84, "channel": 0}, {"type": "note_on", "time": 437, "note": 68, "velocity": 120, "channel": 0}, {"type": "note_off", "time": 253, "note": 68, "velocity": 120, "channel": 0}, {"type": "note_on", "time": 23, "note": 66, "velocity": 106, "channel": 0}, {"type": "note_off", "time": 52, "note": 66, "velocity": 106, "channel": 0}, {"type": "note_on", "time": 13, "note": 67, "velocity": 92, "channel": 0}, {"type": "note_off", "time": 26, "note": 67, "velocity": 92, "channel": 0}, {"type": "note_on", "time": 8, "note": 66, "velocity": 109, "channel": 0}, {"type": "note_off", "time": 65, "note": 66, "velocity": 109, "channel": 0}, {"type": "note_on", "time": 13, "note": 64, "velocity": 109, "channel": 0}, {"type": "note_off", "time": 134, "note": 64, "velocity": 109, "channel": 0}, {"type": "note_on", "time": 6, "note": 65, "velocity": 88, "channel": 0}, {"type": "note_off", "time": 224, "note": 65, "velocity": 88, "channel": 0}, {"type": "note_on", "time": 22, "note": 61, "velocity": 99, "channel": 0}, {"type": "note_off", "time": 107, "note": 61, "velocity": 99, "channel": 0}, {"type": "note_on", "time": 7, "note": 58, "velocity": 86, "channel": 0}, {"type": "note_off", "time": 56, "note": 58, "velocity": 86, "channel": 0}, {"type": "note_on", "time": 14, "note": 61, "velocity": 103, "channel": 0}, {"type": "note_off", "time": 92, "note": 61, "velocity": 103, "channel": 0}, {"type": "note_on", "time": 13, "note": 65, "velocity": 103, "channel": 0}, {"type": "note_off", "time": 70, "note": 65, "velocity": 103, "channel": 0}, {"type": "note_on", "time": 8, "note": 64, "velocity": 103, "channel": 0}, {"type": "note_off", "time": 101, "note": 64, "velocity": 103, "channel": 0}, {"type": "note_on", "time": 13, "note": 61, "velocity": 98, "channel": 0}, {"type": "note_off", "time": 56, "note": 61, "velocity": 98, "channel": 0}, {"type": "note_on", "time": 6, "note": 58, "velocity": 81, "channel": 0}, {"type": "note_off", "time": 112, "note": 58, "velocity": 81, "channel": 0}, {"type": "note_on", "time": 19, "note": 53, "velocity": 91, "channel": 0}, {"type": "note_off", "time": 52, "note": 53, "velocity": 91, "channel": 0}, {"type": "note_on", "time": 11, "note": 54, "velocity": 88, "channel": 0}, {"type": "note_off", "time": 91, "note": 54, "velocity": 88, "channel": 0}, {"type": "note_on", "time": 18, "note": 56, "velocity": 100, "channel": 0}, {"type": "note_off", "time": 80, "note": 56, "velocity": 100, "channel": 0}, {"type": "note_on", "time": 18, "note": 52, "velocity": 99, "channel": 0}, {"type": "note_off", "time": 96, "note": 52, "velocity": 99, "channel": 0}, {"type": "note_on", "time": 19, "note": 53, "velocity": 89, "channel": 0}, {"type": "note_off", "time": 52, "note": 53, "velocity": 89, "channel": 0}, {"type": "note_on", "time": 22, "note": 56, "velocity": 98, "channel": 0}, {"type": "note_off", "time": 102, "note": 56, "velocity": 98, "channel": 0}, {"type": "note_on", "time": 0, "note": 61, "velocity": 85, "channel": 0}, {"type": "note_off", "time": 238, "note": 61, "velocity": 85, "channel": 0}, {"type": "note_on", "time": 24, "note": 58, "velocity": 84, "channel": 0}, {"type": "note_off", "time": 101, "note": 58, "velocity": 84, "channel": 0}, {"type": "note_on", "time": 9, "note": 53, "velocity": 86, "channel": 0}, {"type": "note_off", "time": 24, "note": 53, "velocity": 86, "channel": 0}, {"type": "note_on", "time": 5, "note": 54, "velocity": 92, "channel": 0}, {"type": "note_off", "time": 106, "note": 54, "velocity": 92, "channel": 0}, {"type": "note_on", "time": 38, "note": 52, "velocity": 87, "channel": 0}, {"type": "note_off", "time": 74, "note": 52, "velocity": 87, "channel": 0}, {"type": "note_on", "time": 7, "note": 53, "velocity": 90, "channel": 0}, {"type": "note_off", "time": 121, "note": 53, "velocity": 90, "channel": 0}, {"type": "note_on", "time": 9, "note": 56, "velocity": 88, "channel": 0}, {"type": "note_off", "time": 205, "note": 56, "velocity": 88, "channel": 0}, {"type": "note_on", "time": 497, "note": 52, "velocity": 104, "channel": 0}, {"type": "note_off", "time": 99, "note": 52, "velocity": 104, "channel": 0}, {"type": "note_on", "time": 1, "note": 58, "velocity": 95, "channel": 0}, {"type": "note_off", "time": 91, "note": 58, "velocity": 95, "channel": 0}, {"type": "note_on", "time": 32, "note": 46, "velocity": 102, "channel": 0}, {"type": "note_off", "time": 262, "note": 46, "velocity": 102, "channel": 0}, {"type": "note_on", "time": 95, "note": 52, "velocity": 113, "channel": 0}, {"type": "note_off", "time": 99, "note": 52, "velocity": 113, "channel": 0}, {"type": "note_on", "time": 21, "note": 58, "velocity": 96, "channel": 0}, {"type": "note_off", "time": 71, "note": 58, "velocity": 96, "channel": 0}, {"type": "note_on", "time": 44, "note": 46, "velocity": 104, "channel": 0}, {"type": "note_off", "time": 191, "note": 46, "velocity": 104, "channel": 0}, {"type": "note_on", "time": 39, "note": 52, "velocity": 112, "channel": 0}, {"type": "note_off", "time": 163, "note": 52, "velocity": 112, "channel": 0}, {"type": "note_on", "time": 17, "note": 58, "velocity": 97, "channel": 0}, {"type": "note_off", "time": 76, "note": 58, "velocity": 97, "channel": 0}, {"type": "note_on", "time": 17, "note": 62, "velocity": 112, "channel": 0}, {"type": "note_off", "time": 96, "note": 62, "velocity": 112, "channel": 0}, {"type": "note_on", "time": 17, "note": 60, "velocity": 102, "channel": 0}, {"type": "note_off", "time": 204, "note": 60, "velocity": 102, "channel": 0}, {"type": "note_on", "time": 70, "note": 67, "velocity": 114, "channel": 0}, {"type": "note_off", "time": 86, "note": 67, "velocity": 114, "channel": 0}, {"type": "note_on", "time": 9, "note": 65, "velocity": 109, "channel": 0}, {"type": "note_off", "time": 186, "note": 65, "velocity": 109, "channel": 0}, {"type": "note_on", "time": 135, "note": 74, "velocity": 100, "channel": 0}, {"type": "note_off", "time": 135, "note": 74, "velocity": 100, "channel": 0}, {"type": "note_on", "time": 10, "note": 72, "velocity": 108, "channel": 0}, {"type": "note_off", "time": 104, "note": 72, "velocity": 108, "channel": 0}, {"type": "note_on", "time": 43, "note": 67, "velocity": 102, "channel": 0}, {"type": "note_off", "time": 118, "note": 67, "velocity": 102, "channel": 0}, {"type": "note_on", "time": 20, "note": 62, "velocity": 105, "channel": 0}, {"type": "note_off", "time": 94, "note": 62, "velocity": 105, "channel": 0}, {"type": "note_on", "time": 15, "note": 60, "velocity": 101, "channel": 0}, {"type": "note_off", "time": 95, "note": 60, "velocity": 101, "channel": 0}, {"type": "note_on", "time": 89, "note": 64, "velocity": 97, "channel": 0}, {"type": "note_off", "time": 103, "note": 64, "velocity": 97, "channel": 0}, {"type": "note_on", "time": 8, "note": 65, "velocity": 88, "channel": 0}, {"type": "note_off", "time": 252, "note": 65, "velocity": 88, "channel": 0}, {"type": "note_on", "time": 6, "note": 63, "velocity": 101, "channel": 0}, {"type": "note_off", "time": 78, "note": 63, "velocity": 101, "channel": 0}, {"type": "note_on", "time": 3, "note": 62, "velocity": 102, "channel": 0}, {"type": "note_off", "time": 97, "note": 62, "velocity": 102, "channel": 0}, {"type": "note_on", "time": 13, "note": 60, "velocity": 97, "channel": 0}, {"type": "note_off", "time": 68, "note": 60, "velocity": 97, "channel": 0}, {"type": "note_on", "time": 4, "note": 58, "velocity": 88, "channel": 0}, {"type": "note_off", "time": 87, "note": 58, "velocity": 88, "channel": 0}, {"type": "note_on", "time": 42, "note": 56, "velocity": 95, "channel": 0}, {"type": "note_off", "time": 77, "note": 56, "velocity": 95, "channel": 0}, {"type": "note_on", "time": 5, "note": 55, "velocity": 91, "channel": 0}, {"type": "note_off", "time": 91, "note": 55, "velocity": 91, "channel": 0}, {"type": "note_on", "time": 33, "note": 53, "velocity": 95, "channel": 0}, {"type": "note_off", "time": 60, "note": 53, "velocity": 95, "channel": 0}, {"type": "note_on", "time": 5, "note": 55, "velocity": 89, "channel": 0}, {"type": "note_off", "time": 218, "note": 55, "velocity": 89, "channel": 0}, {"type": "note_on", "time": 264, "note": 63, "velocity": 113, "channel": 0}, {"type": "note_off", "time": 171, "note": 63, "velocity": 113, "channel": 0}, {"type": "note_on", "time": 4, "note": 65, "velocity": 102, "channel": 0}, {"type": "note_off", "time": 269, "note": 65, "velocity": 102, "channel": 0}, {"type": "note_on", "time": 6, "note": 61, "velocity": 105, "channel": 0}, {"type": "note_off", "time": 116, "note": 61, "velocity": 105, "channel": 0}, {"type": "note_on", "time": 11, "note": 58, "velocity": 84, "channel": 0}, {"type": "note_off", "time": 39, "note": 58, "velocity": 84, "channel": 0}, {"type": "note_on", "time": 13, "note": 65, "velocity": 105, "channel": 0}, {"type": "note_off", "time": 136, "note": 65, "velocity": 105, "channel": 0}, {"type": "note_on", "time": 11, "note": 65, "velocity": 105, "channel": 0}, {"type": "note_off", "time": 58, "note": 65, "velocity": 105, "channel": 0}, {"type": "note_on", "time": 14, "note": 64, "velocity": 106, "channel": 0}, {"type": "note_off", "time": 104, "note": 64, "velocity": 106, "channel": 0}, {"type": "note_on", "time": 3, "note": 61, "velocity": 104, "channel": 0}, {"type": "note_off", "time": 57, "note": 61, "velocity": 104, "channel": 0}, {"type": "note_on", "time": 9, "note": 59, "velocity": 91, "channel": 0}, {"type": "note_off", "time": 109, "note": 59, "velocity": 91, "channel": 0}, {"type": "note_on", "time": 17, "note": 53, "velocity": 101, "channel": 0}, {"type": "note_off", "time": 61, "note": 53, "velocity": 101, "channel": 0}, {"type": "note_on", "time": 4, "note": 52, "velocity": 100, "channel": 0}, {"type": "note_off", "time": 88, "note": 52, "velocity": 100, "channel": 0}, {"type": "note_on", "time": 80, "note": 58, "velocity": 92, "channel": 0}, {"type": "note_off", "time": 116, "note": 58, "velocity": 92, "channel": 0}, {"type": "note_on", "time": 38, "note": 53, "velocity": 87, "channel": 0}, {"type": "note_off", "time": 40, "note": 53, "velocity": 87, "channel": 0}, {"type": "note_on", "time": 2, "note": 56, "velocity": 92, "channel": 0}, {"type": "note_off", "time": 198, "note": 56, "velocity": 92, "channel": 0}, {"type": "note_on", "time": 30, "note": 53, "velocity": 87, "channel": 0}, {"type": "note_off", "time": 78, "note": 53, "velocity": 87, "channel": 0}, {"type": "note_on", "time": 82, "note": 61, "velocity": 110, "channel": 0}, {"type": "note_off", "time": 91, "note": 61, "velocity": 110, "channel": 0}, {"type": "note_on", "time": 601, "note": 61, "velocity": 108, "channel": 0}, {"type": "note_off", "time": 272, "note": 61, "velocity": 108, "channel": 0}, {"type": "note_on", "time": 17, "note": 58, "velocity": 101, "channel": 0}, {"type": "note_off", "time": 48, "note": 58, "velocity": 101, "channel": 0}, {"type": "note_on", "time": 138, "note": 63, "velocity": 114, "channel": 0}, {"type": "note_off", "time": 64, "note": 63, "velocity": 114, "channel": 0}, {"type": "note_on", "time": 6, "note": 65, "velocity": 110, "channel": 0}, {"type": "note_off", "time": 215, "note": 65, "velocity": 110, "channel": 0}, {"type": "note_on", "time": 6, "note": 67, "velocity": 110, "channel": 0}, {"type": "note_off", "time": 27, "note": 67, "velocity": 110, "channel": 0}, {"type": "note_on", "time": 4, "note": 65, "velocity": 109, "channel": 0}, {"type": "note_off", "time": 31, "note": 65, "velocity": 109, "channel": 0}, {"type": "note_on", "time": 8, "note": 64, "velocity": 108, "channel": 0}, {"type": "note_off", "time": 116, "note": 64, "velocity": 108, "channel": 0}, {"type": "note_on", "time": 7, "note": 61, "velocity": 106, "channel": 0}, {"type": "note_off", "time": 58, "note": 61, "velocity": 106, "channel": 0}, {"type": "note_on", "time": 14, "note": 58, "velocity": 88, "channel": 0}, {"type": "note_off", "time": 84, "note": 58, "velocity": 88, "channel": 0}, {"type": "note_on", "time": 20, "note": 61, "velocity": 108, "channel": 0}, {"type": "note_off", "time": 74, "note": 61, "velocity": 108, "channel": 0}, {"type": "note_on", "time": 8, "note": 63, "velocity": 110, "channel": 0}, {"type": "note_off", "time": 105, "note": 63, "velocity": 110, "channel": 0}, {"type": "note_on", "time": 8, "note": 65, "velocity": 100, "channel": 0}, {"type": "note_off", "time": 197, "note": 65, "velocity": 100, "channel": 0}, {"type": "note_on", "time": 12, "note": 65, "velocity": 107, "channel": 0}, {"type": "note_off", "time": 50, "note": 65, "velocity": 107, "channel": 0}, {"type": "note_on", "time": 6, "note": 61, "velocity": 106, "channel": 0}, {"type": "note_off", "time": 111, "note": 61, "velocity": 106, "channel": 0}, {"type": "note_on", "time": 14, "note": 58, "velocity": 96, "channel": 0}, {"type": "note_off", "time": 38, "note": 58, "velocity": 96, "channel": 0}, {"type": "note_on", "time": 12, "note": 54, "velocity": 95, "channel": 0}, {"type": "note_off", "time": 109, "note": 54, "velocity": 95, "channel": 0}, {"type": "note_on", "time": 22, "note": 52, "velocity": 93, "channel": 0}, {"type": "note_off", "time": 52, "note": 52, "velocity": 93, "channel": 0}, {"type": "note_on", "time": 12, "note": 53, "velocity": 97, "channel": 0}, {"type": "note_off", "time": 106, "note": 53, "velocity": 97, "channel": 0}, {"type": "note_on", "time": 21, "note": 56, "velocity": 97, "channel": 0}, {"type": "note_off", "time": 111, "note": 56, "velocity": 97, "channel": 0}, {"type": "note_on", "time": 73, "note": 53, "velocity": 92, "channel": 0}, {"type": "note_off", "time": 47, "note": 53, "velocity": 92, "channel": 0}, {"type": "note_on", "time": 30, "note": 56, "velocity": 97, "channel": 0}, {"type": "note_off", "time": 196, "note": 56, "velocity": 97, "channel": 0}, {"type": "note_on", "time": 82, "note": 53, "velocity": 92, "channel": 0}, {"type": "note_off", "time": 76, "note": 53, "velocity": 92, "channel": 0}, {"type": "note_on", "time": 12, "note": 54, "velocity": 98, "channel": 0}, {"type": "note_off", "time": 112, "note": 54, "velocity": 98, "channel": 0}, {"type": "note_on", "time": 20, "note": 58, "velocity": 82, "channel": 0}, {"type": "note_off", "time": 245, "note": 58, "velocity": 82, "channel": 0}, {"type": "note_on", "time": 26, "note": 58, "velocity": 95, "channel": 0}, {"type": "note_off", "time": 227, "note": 58, "velocity": 95, "channel": 0}, {"type": "note_on", "time": 484, "note": 56, "velocity": 104, "channel": 0}, {"type": "note_off", "time": 118, "note": 56, "velocity": 104, "channel": 0}, {"type": "note_on", "time": 35, "note": 61, "velocity": 107, "channel": 0}, {"type": "note_off", "time": 104, "note": 61, "velocity": 107, "channel": 0}, {"type": "note_on", "time": 113, "note": 61, "velocity": 100, "channel": 0}, {"type": "note_off", "time": 212, "note": 61, "velocity": 100, "channel": 0}, {"type": "note_on", "time": 10, "note": 58, "velocity": 96, "channel": 0}, {"type": "note_off", "time": 89, "note": 58, "velocity": 96, "channel": 0}, {"type": "note_on", "time": 17, "note": 61, "velocity": 108, "channel": 0}, {"type": "note_off", "time": 74, "note": 61, "velocity": 108, "channel": 0}, {"type": "note_on", "time": 24, "note": 63, "velocity": 110, "channel": 0}, {"type": "note_off", "time": 109, "note": 63, "velocity": 110, "channel": 0}, {"type": "note_on", "time": 4, "note": 65, "velocity": 100, "channel": 0}, {"type": "note_off", "time": 241, "note": 65, "velocity": 100, "channel": 0}, {"type": "note_on", "time": 3, "note": 61, "velocity": 109, "channel": 0}, {"type": "note_off", "time": 248, "note": 61, "velocity": 109, "channel": 0}, {"type": "note_on", "time": 8, "note": 60, "velocity": 106, "channel": 0}, {"type": "note_off", "time": 147, "note": 60, "velocity": 106, "channel": 0}, {"type": "note_on", "time": 34, "note": 63, "velocity": 101, "channel": 0}, {"type": "note_off", "time": 257, "note": 63, "velocity": 101, "channel": 0}, {"type": "note_on", "time": 2, "note": 60, "velocity": 99, "channel": 0}, {"type": "note_off", "time": 84, "note": 60, "velocity": 99, "channel": 0}, {"type": "note_on", "time": 7, "note": 61, "velocity": 103, "channel": 0}, {"type": "note_off", "time": 166, "note": 61, "velocity": 103, "channel": 0}, {"type": "note_on", "time": 7, "note": 58, "velocity": 92, "channel": 0}, {"type": "note_off", "time": 125, "note": 58, "velocity": 92, "channel": 0}, {"type": "note_on", "time": 9, "note": 59, "velocity": 97, "channel": 0}, {"type": "note_off", "time": 44, "note": 59, "velocity": 97, "channel": 0}, {"type": "note_on", "time": 4, "note": 60, "velocity": 97, "channel": 0}, {"type": "note_off", "time": 179, "note": 60, "velocity": 97, "channel": 0}, {"type": "note_on", "time": 16, "note": 56, "velocity": 109, "channel": 0}, {"type": "note_off", "time": 51, "note": 56, "velocity": 109, "channel": 0}, {"type": "note_on", "time": 129, "note": 59, "velocity": 96, "channel": 0}, {"type": "note_off", "time": 57, "note": 59, "velocity": 96, "channel": 0}, {"type": "note_on", "time": 5, "note": 60, "velocity": 91, "channel": 0}, {"type": "note_off", "time": 124, "note": 60, "velocity": 91, "channel": 0}, {"type": "note_on", "time": 6, "note": 56, "velocity": 105, "channel": 0}, {"type": "note_off", "time": 137, "note": 56, "velocity": 105, "channel": 0}, {"type": "note_on", "time": 45, "note": 58, "velocity": 94, "channel": 0}, {"type": "note_off", "time": 262, "note": 58, "velocity": 94, "channel": 0}, {"type": "note_on", "time": 456, "note": 53, "velocity": 103, "channel": 0}, {"type": "note_off", "time": 89, "note": 53, "velocity": 103, "channel": 0}, {"type": "note_on", "time": 6, "note": 54, "velocity": 113, "channel": 0}, {"type": "note_off", "time": 158, "note": 54, "velocity": 113, "channel": 0}, {"type": "note_on", "time": 8, "note": 53, "velocity": 97, "channel": 0}, {"type": "note_off", "time": 118, "note": 53, "velocity": 97, "channel": 0}, {"type": "note_on", "time": 15, "note": 56, "velocity": 93, "channel": 0}, {"type": "note_off", "time": 280, "note": 56, "velocity": 93, "channel": 0}, {"type": "note_on", "time": 54, "note": 52, "velocity": 91, "channel": 0}, {"type": "note_off", "time": 83, "note": 52, "velocity": 91, "channel": 0}, {"type": "note_on", "time": 13, "note": 53, "velocity": 94, "channel": 0}, {"type": "note_off", "time": 179, "note": 53, "velocity": 94, "channel": 0}, {"type": "note_on", "time": 141, "note": 51, "velocity": 90, "channel": 0}, {"type": "note_off", "time": 320, "note": 51, "velocity": 90, "channel": 0}, {"type": "note_on", "time": 82, "note": 51, "velocity": 94, "channel": 0}, {"type": "note_off", "time": 62, "note": 51, "velocity": 94, "channel": 0}, {"type": "note_on", "time": 13, "note": 52, "velocity": 106, "channel": 0}, {"type": "note_off", "time": 87, "note": 52, "velocity": 106, "channel": 0}, {"type": "note_on", "time": 14, "note": 53, "velocity": 102, "channel": 0}, {"type": "note_off", "time": 73, "note": 53, "velocity": 102, "channel": 0}, {"type": "note_on", "time": 8, "note": 54, "velocity": 97, "channel": 0}, {"type": "note_off", "time": 86, "note": 54, "velocity": 97, "channel": 0}, {"type": "note_on", "time": 18, "note": 52, "velocity": 104, "channel": 0}, {"type": "note_off", "time": 76, "note": 52, "velocity": 104, "channel": 0}, {"type": "note_on", "time": 2, "note": 53, "velocity": 91, "channel": 0}, {"type": "note_off", "time": 97, "note": 53, "velocity": 91, "channel": 0}, {"type": "note_on", "time": 22, "note": 56, "velocity": 100, "channel": 0}, {"type": "note_off", "time": 64, "note": 56, "velocity": 100, "channel": 0}, {"type": "note_on", "time": 23, "note": 52, "velocity": 102, "channel": 0}, {"type": "note_off", "time": 69, "note": 52, "velocity": 102, "channel": 0}, {"type": "note_on", "time": 7, "note": 53, "velocity": 86, "channel": 0}, {"type": "note_off", "time": 56, "note": 53, "velocity": 86, "channel": 0}, {"type": "note_on", "time": 14, "note": 56, "velocity": 101, "channel": 0}, {"type": "note_off", "time": 117, "note": 56, "velocity": 101, "channel": 0}, {"type": "note_on", "time": 31, "note": 61, "velocity": 87, "channel": 0}, {"type": "note_off", "time": 228, "note": 61, "velocity": 87, "channel": 0}, {"type": "note_on", "time": 15, "note": 56, "velocity": 90, "channel": 0}, {"type": "note_off", "time": 80, "note": 56, "velocity": 90, "channel": 0}, {"type": "note_on", "time": 594, "note": 44, "velocity": 110, "channel": 0}, {"type": "note_off", "time": 84, "note": 44, "velocity": 110, "channel": 0}, {"type": "note_on", "time": 180, "note": 56, "velocity": 110, "channel": 0}, {"type": "note_off", "time": 227, "note": 56, "velocity": 110, "channel": 0}, {"type": "note_on", "time": 14, "note": 52, "velocity": 99, "channel": 0}, {"type": "note_off", "time": 52, "note": 52, "velocity": 99, "channel": 0}, {"type": "note_on", "time": 22, "note": 45, "velocity": 10, "channel": 0}, {"type": "note_off", "time": 417, "note": 45, "velocity": 10, "channel": 0}, {"type": "note_on", "time": 55, "note": 57, "velocity": 109, "channel": 0}, {"type": "note_off", "time": 81, "note": 57, "velocity": 109, "channel": 0}, {"type": "note_on", "time": 118, "note": 46, "velocity": 106, "channel": 0}, {"type": "note_off", "time": 104, "note": 46, "velocity": 106, "channel": 0}, {"type": "note_on", "time": 553, "note": 44, "velocity": 113, "channel": 0}, {"type": "note_off", "time": 82, "note": 44, "velocity": 113, "channel": 0}, {"type": "note_on", "time": 108, "note": 56, "velocity": 110, "channel": 0}, {"type": "note_off", "time": 34, "note": 56, "velocity": 110, "channel": 0}, {"type": "note_on", "time": 3, "note": 53, "velocity": 106, "channel": 0}, {"type": "note_off", "time": 28, "note": 53, "velocity": 106, "channel": 0}, {"type": "note_on", "time": 15, "note": 45, "velocity": 98, "channel": 0}, {"type": "note_off", "time": 438, "note": 45, "velocity": 98, "channel": 0}, {"type": "note_on", "time": 118, "note": 46, "velocity": 101, "channel": 0}, {"type": "note_off", "time": 122, "note": 46, "velocity": 101, "channel": 0}, {"type": "note_on", "time": 648, "note": 63, "velocity": 118, "channel": 0}, {"type": "note_off", "time": 109, "note": 63, "velocity": 118, "channel": 0}, {"type": "note_on", "time": 7, "note": 64, "velocity": 119, "channel": 0}, {"type": "note_off", "time": 166, "note": 64, "velocity": 119, "channel": 0}, {"type": "note_on", "time": 6, "note": 63, "velocity": 111, "channel": 0}, {"type": "note_off", "time": 42, "note": 63, "velocity": 111, "channel": 0}, {"type": "note_on", "time": 8, "note": 65, "velocity": 110, "channel": 0}, {"type": "note_off", "time": 222, "note": 65, "velocity": 110, "channel": 0}, {"type": "note_on", "time": 14, "note": 61, "velocity": 110, "channel": 0}, {"type": "note_off", "time": 110, "note": 61, "velocity": 110, "channel": 0}, {"type": "note_on", "time": 4, "note": 63, "velocity": 112, "channel": 0}, {"type": "note_off", "time": 65, "note": 63, "velocity": 112, "channel": 0}, {"type": "note_on", "time": 7, "note": 61, "velocity": 110, "channel": 0}, {"type": "note_off", "time": 115, "note": 61, "velocity": 110, "channel": 0}, {"type": "note_on", "time": 8, "note": 56, "velocity": 97, "channel": 0}, {"type": "note_off", "time": 58, "note": 56, "velocity": 97, "channel": 0}, {"type": "note_on", "time": 17, "note": 52, "velocity": 105, "channel": 0}, {"type": "note_off", "time": 114, "note": 52, "velocity": 105, "channel": 0}, {"type": "note_on", "time": 2, "note": 53, "velocity": 97, "channel": 0}, {"type": "note_off", "time": 63, "note": 53, "velocity": 97, "channel": 0}, {"type": "note_on", "time": 8, "note": 54, "velocity": 102, "channel": 0}, {"type": "note_off", "time": 91, "note": 54, "velocity": 102, "channel": 0}, {"type": "note_on", "time": 25, "note": 52, "velocity": 104, "channel": 0}, {"type": "note_off", "time": 65, "note": 52, "velocity": 104, "channel": 0}, {"type": "note_on", "time": 6, "note": 53, "velocity": 100, "channel": 0}, {"type": "note_off", "time": 110, "note": 53, "velocity": 100, "channel": 0}, {"type": "note_on", "time": 10, "note": 56, "velocity": 102, "channel": 0}, {"type": "note_off", "time": 57, "note": 56, "velocity": 102, "channel": 0}, {"type": "note_on", "time": 17, "note": 61, "velocity": 103, "channel": 0}, {"type": "note_off", "time": 95, "note": 61, "velocity": 103, "channel": 0}, {"type": "note_on", "time": 8, "note": 63, "velocity": 108, "channel": 0}, {"type": "note_off", "time": 63, "note": 63, "velocity": 108, "channel": 0}, {"type": "note_on", "time": 3, "note": 65, "velocity": 99, "channel": 0}, {"type": "note_off", "time": 102, "note": 65, "velocity": 99, "channel": 0}, {"type": "note_on", "time": 3, "note": 67, "velocity": 97, "channel": 0}, {"type": "note_off", "time": 35, "note": 67, "velocity": 97, "channel": 0}, {"type": "note_on", "time": 2, "note": 65, "velocity": 95, "channel": 0}, {"type": "note_off", "time": 46, "note": 65, "velocity": 95, "channel": 0}, {"type": "note_on", "time": 3, "note": 61, "velocity": 103, "channel": 0}, {"type": "note_off", "time": 126, "note": 61, "velocity": 103, "channel": 0}, {"type": "note_on", "time": 5, "note": 58, "velocity": 87, "channel": 0}, {"type": "note_off", "time": 256, "note": 58, "velocity": 87, "channel": 0}, {"type": "note_on", "time": 268, "note": 46, "velocity": 108, "channel": 0}, {"type": "note_off", "time": 78, "note": 46, "velocity": 108, "channel": 0}, {"type": "note_on", "time": 17, "note": 58, "velocity": 102, "channel": 0}, {"type": "note_off", "time": 73, "note": 58, "velocity": 102, "channel": 0}, {"type": "note_on", "time": 33, "note": 64, "velocity": 118, "channel": 0}, {"type": "note_off", "time": 84, "note": 64, "velocity": 118, "channel": 0}, {"type": "note_on", "time": 1, "note": 58, "velocity": 99, "channel": 0}, {"type": "note_off", "time": 55, "note": 58, "velocity": 99, "channel": 0}, {"type": "note_on", "time": 39, "note": 52, "velocity": 107, "channel": 0}, {"type": "note_off", "time": 116, "note": 52, "velocity": 107, "channel": 0}, {"type": "note_on", "time": 69, "note": 46, "velocity": 107, "channel": 0}, {"type": "note_off", "time": 301, "note": 46, "velocity": 107, "channel": 0}, {"type": "note_on", "time": 94, "note": 52, "velocity": 111, "channel": 0}, {"type": "note_off", "time": 78, "note": 52, "velocity": 111, "channel": 0}, {"type": "note_on", "time": 3, "note": 58, "velocity": 102, "channel": 0}, {"type": "note_off", "time": 83, "note": 58, "velocity": 102, "channel": 0}, {"type": "note_on", "time": 21, "note": 62, "velocity": 112, "channel": 0}, {"type": "note_off", "time": 75, "note": 62, "velocity": 112, "channel": 0}, {"type": "note_on", "time": 4, "note": 58, "velocity": 106, "channel": 0}, {"type": "note_off", "time": 106, "note": 58, "velocity": 106, "channel": 0}, {"type": "note_on", "time": 9, "note": 52, "velocity": 106, "channel": 0}, {"type": "note_off", "time": 284, "note": 52, "velocity": 106, "channel": 0}, {"type": "note_on", "time": 380, "note": 45, "velocity": 110, "channel": 0}, {"type": "note_off", "time": 267, "note": 45, "velocity": 110, "channel": 0}, {"type": "note_on", "time": 49, "note": 51, "velocity": 106, "channel": 0}, {"type": "note_off", "time": 65, "note": 51, "velocity": 106, "channel": 0}, {"type": "note_on", "time": 10, "note": 57, "velocity": 109, "channel": 0}, {"type": "note_off", "time": 110, "note": 57, "velocity": 109, "channel": 0}, {"type": "note_on", "time": 1, "note": 62, "velocity": 103, "channel": 0}, {"type": "note_off", "time": 238, "note": 62, "velocity": 103, "channel": 0}, {"type": "note_on", "time": 22, "note": 60, "velocity": 105, "channel": 0}, {"type": "note_off", "time": 105, "note": 60, "velocity": 105, "channel": 0}, {"type": "note_on", "time": 14, "note": 55, "velocity": 95, "channel": 0}, {"type": "note_off", "time": 183, "note": 55, "velocity": 95, "channel": 0}, {"type": "note_on", "time": 11, "note": 53, "velocity": 98, "channel": 0}, {"type": "note_off", "time": 269, "note": 53, "velocity": 98, "channel": 0}, {"type": "note_on", "time": 269, "note": 62, "velocity": 114, "channel": 0}, {"type": "note_off", "time": 41, "note": 62, "velocity": 114, "channel": 0}, {"type": "note_on", "time": 2, "note": 63, "velocity": 115, "channel": 0}, {"type": "note_off", "time": 54, "note": 63, "velocity": 115, "channel": 0}, {"type": "note_on", "time": 4, "note": 64, "velocity": 114, "channel": 0}, {"type": "note_off", "time": 42, "note": 64, "velocity": 114, "channel": 0}, {"type": "note_on", "time": 2, "note": 65, "velocity": 118, "channel": 0}, {"type": "note_off", "time": 34, "note": 65, "velocity": 118, "channel": 0}, {"type": "note_on", "time": 2, "note": 65, "velocity": 119, "channel": 0}, {"type": "note_off", "time": 66, "note": 65, "velocity": 119, "channel": 0}, {"type": "note_on", "time": 8, "note": 68, "velocity": 114, "channel": 0}, {"type": "note_off", "time": 85, "note": 68, "velocity": 114, "channel": 0}, {"type": "note_on", "time": 6, "note": 71, "velocity": 114, "channel": 0}, {"type": "note_off", "time": 77, "note": 71, "velocity": 114, "channel": 0}, {"type": "note_on", "time": 9, "note": 72, "velocity": 127, "channel": 0}, {"type": "note_off", "time": 97, "note": 72, "velocity": 127, "channel": 0}, {"type": "note_on", "time": 107, "note": 67, "velocity": 111, "channel": 0}, {"type": "note_off", "time": 291, "note": 67, "velocity": 111, "channel": 0}, {"type": "note_on", "time": 16, "note": 65, "velocity": 112, "channel": 0}, {"type": "note_off", "time": 46, "note": 65, "velocity": 112, "channel": 0}, {"type": "note_on", "time": 10, "note": 67, "velocity": 110, "channel": 0}, {"type": "note_off", "time": 27, "note": 67, "velocity": 110, "channel": 0}, {"type": "note_on", "time": 2, "note": 65, "velocity": 110, "channel": 0}, {"type": "note_off", "time": 97, "note": 65, "velocity": 110, "channel": 0}, {"type": "note_on", "time": 23, "note": 60, "velocity": 111, "channel": 0}, {"type": "note_off", "time": 59, "note": 60, "velocity": 111, "channel": 0}, {"type": "note_on", "time": 2, "note": 55, "velocity": 91, "channel": 0}, {"type": "note_off", "time": 104, "note": 55, "velocity": 91, "channel": 0}, {"type": "note_on", "time": 23, "note": 53, "velocity": 95, "channel": 0}, {"type": "note_off", "time": 62, "note": 53, "velocity": 95, "channel": 0}, {"type": "note_on", "time": 13, "note": 59, "velocity": 113, "channel": 0}, {"type": "note_off", "time": 66, "note": 59, "velocity": 113, "channel": 0}, {"type": "note_on", "time": 6, "note": 60, "velocity": 110, "channel": 0}, {"type": "note_off", "time": 202, "note": 60, "velocity": 110, "channel": 0}, {"type": "note_on", "time": 11, "note": 55, "velocity": 106, "channel": 0}, {"type": "note_off", "time": 80, "note": 55, "velocity": 106, "channel": 0}, {"type": "note_on", "time": 184, "note": 73, "velocity": 114, "channel": 0}, {"type": "note_off", "time": 65, "note": 73, "velocity": 114, "channel": 0}, {"type": "note_on", "time": 5, "note": 71, "velocity": 118, "channel": 0}, {"type": "note_off", "time": 45, "note": 71, "velocity": 118, "channel": 0}, {"type": "note_on", "time": 7, "note": 68, "velocity": 116, "channel": 0}, {"type": "note_off", "time": 28, "note": 68, "velocity": 116, "channel": 0}, {"type": "note_on", "time": 2, "note": 67, "velocity": 116, "channel": 0}, {"type": "note_off", "time": 34, "note": 67, "velocity": 116, "channel": 0}, {"type": "note_on", "time": 2, "note": 66, "velocity": 111, "channel": 0}, {"type": "note_off", "time": 41, "note": 66, "velocity": 111, "channel": 0}, {"type": "note_on", "time": 5, "note": 64, "velocity": 112, "channel": 0}, {"type": "note_off", "time": 46, "note": 64, "velocity": 112, "channel": 0}, {"type": "note_on", "time": 9, "note": 61, "velocity": 111, "channel": 0}, {"type": "note_off", "time": 36, "note": 61, "velocity": 111, "channel": 0}, {"type": "note_on", "time": 11, "note": 59, "velocity": 104, "channel": 0}, {"type": "note_off", "time": 42, "note": 59, "velocity": 104, "channel": 0}, {"type": "note_on", "time": 7, "note": 56, "velocity": 102, "channel": 0}, {"type": "note_off", "time": 54, "note": 56, "velocity": 102, "channel": 0}, {"type": "note_on", "time": 10, "note": 54, "velocity": 102, "channel": 0}, {"type": "note_off", "time": 70, "note": 54, "velocity": 102, "channel": 0}, {"type": "note_on", "time": 8, "note": 52, "velocity": 107, "channel": 0}, {"type": "note_off", "time": 53, "note": 52, "velocity": 107, "channel": 0}, {"type": "note_on", "time": 5, "note": 51, "velocity": 100, "channel": 0}, {"type": "note_off", "time": 490, "note": 51, "velocity": 100, "channel": 0}, {"type": "note_on", "time": 32, "note": 51, "velocity": 102, "channel": 0}, {"type": "note_off", "time": 36, "note": 51, "velocity": 102, "channel": 0}, {"type": "note_on", "time": 8, "note": 49, "velocity": 98, "channel": 0}, {"type": "note_off", "time": 74, "note": 49, "velocity": 98, "channel": 0}, {"type": "note_on", "time": 95, "note": 52, "velocity": 112, "channel": 0}, {"type": "note_off", "time": 68, "note": 52, "velocity": 112, "channel": 0}, {"type": "note_on", "time": 2, "note": 53, "velocity": 111, "channel": 0}, {"type": "note_off", "time": 99, "note": 53, "velocity": 111, "channel": 0}, {"type": "note_on", "time": 561, "note": 63, "velocity": 106, "channel": 0}, {"type": "note_off", "time": 245, "note": 63, "velocity": 106, "channel": 0}, {"type": "note_on", "time": 27, "note": 61, "velocity": 108, "channel": 0}, {"type": "note_off", "time": 94, "note": 61, "velocity": 108, "channel": 0}, {"type": "note_on", "time": 96, "note": 63, "velocity": 113, "channel": 0}, {"type": "note_off", "time": 144, "note": 63, "velocity": 113, "channel": 0}, {"type": "note_on", "time": 10, "note": 63, "velocity": 114, "channel": 0}, {"type": "note_off", "time": 36, "note": 63, "velocity": 114, "channel": 0}, {"type": "note_on", "time": 9, "note": 61, "velocity": 108, "channel": 0}, {"type": "note_off", "time": 80, "note": 61, "velocity": 108, "channel": 0}, {"type": "note_on", "time": 102, "note": 64, "velocity": 111, "channel": 0}, {"type": "note_off", "time": 126, "note": 64, "velocity": 111, "channel": 0}, {"type": "note_on", "time": 6, "note": 65, "velocity": 101, "channel": 0}, {"type": "note_off", "time": 68, "note": 65, "velocity": 101, "channel": 0}, {"type": "note_on", "time": 7, "note": 61, "velocity": 105, "channel": 0}, {"type": "note_off", "time": 93, "note": 61, "velocity": 105, "channel": 0}, {"type": "note_on", "time": 102, "note": 64, "velocity": 110, "channel": 0}, {"type": "note_off", "time": 63, "note": 64, "velocity": 110, "channel": 0}, {"type": "note_on", "time": 13, "note": 65, "velocity": 103, "channel": 0}, {"type": "note_off", "time": 99, "note": 65, "velocity": 103, "channel": 0}, {"type": "note_on", "time": 17, "note": 61, "velocity": 107, "channel": 0}, {"type": "note_off", "time": 97, "note": 61, "velocity": 107, "channel": 0}, {"type": "note_on", "time": 33, "note": 64, "velocity": 106, "channel": 0}, {"type": "note_off", "time": 105, "note": 64, "velocity": 106, "channel": 0}, {"type": "note_on", "time": 5, "note": 65, "velocity": 103, "channel": 0}, {"type": "note_off", "time": 93, "note": 65, "velocity": 103, "channel": 0}, {"type": "note_on", "time": 0, "note": 68, "velocity": 95, "channel": 0}, {"type": "note_off", "time": 261, "note": 68, "velocity": 95, "channel": 0}, {"type": "note_on", "time": 10, "note": 65, "velocity": 98, "channel": 0}, {"type": "note_off", "time": 106, "note": 65, "velocity": 98, "channel": 0}, {"type": "note_on", "time": 9, "note": 65, "velocity": 99, "channel": 0}, {"type": "note_off", "time": 41, "note": 65, "velocity": 99, "channel": 0}, {"type": "note_on", "time": 2, "note": 61, "velocity": 105, "channel": 0}, {"type": "note_off", "time": 107, "note": 61, "velocity": 105, "channel": 0}, {"type": "note_on", "time": 74, "note": 64, "velocity": 109, "channel": 0}, {"type": "note_off", "time": 123, "note": 64, "velocity": 109, "channel": 0}, {"type": "note_on", "time": 9, "note": 66, "velocity": 93, "channel": 0}, {"type": "note_off", "time": 19, "note": 66, "velocity": 93, "channel": 0}, {"type": "note_on", "time": 6, "note": 64, "velocity": 96, "channel": 0}, {"type": "note_off", "time": 36, "note": 64, "velocity": 96, "channel": 0}, {"type": "note_on", "time": 5, "note": 61, "velocity": 105, "channel": 0}, {"type": "note_off", "time": 123, "note": 61, "velocity": 105, "channel": 0}, {"type": "note_on", "time": 12, "note": 63, "velocity": 111, "channel": 0}, {"type": "note_off", "time": 75, "note": 63, "velocity": 111, "channel": 0}, {"type": "note_on", "time": 3, "note": 61, "velocity": 103, "channel": 0}, {"type": "note_off", "time": 109, "note": 61, "velocity": 103, "channel": 0}, {"type": "note_on", "time": 17, "note": 56, "velocity": 98, "channel": 0}, {"type": "note_off", "time": 67, "note": 56, "velocity": 98, "channel": 0}, {"type": "note_on", "time": 15, "note": 52, "velocity": 100, "channel": 0}, {"type": "note_off", "time": 87, "note": 52, "velocity": 100, "channel": 0}, {"type": "note_on", "time": 11, "note": 53, "velocity": 93, "channel": 0}, {"type": "note_off", "time": 53, "note": 53, "velocity": 93, "channel": 0}, {"type": "note_on", "time": 29, "note": 56, "velocity": 104, "channel": 0}, {"type": "note_off", "time": 106, "note": 56, "velocity": 104, "channel": 0}, {"type": "note_on", "time": 12, "note": 61, "velocity": 82, "channel": 0}, {"type": "note_off", "time": 149, "note": 61, "velocity": 82, "channel": 0}, {"type": "note_on", "time": 31, "note": 61, "velocity": 89, "channel": 0}, {"type": "note_off", "time": 226, "note": 61, "velocity": 89, "channel": 0}, {"type": "note_on", "time": 162, "note": 61, "velocity": 93, "channel": 0}, {"type": "note_off", "time": 245, "note": 61, "velocity": 93, "channel": 0}, {"type": "note_on", "time": 24, "note": 58, "velocity": 87, "channel": 0}, {"type": "note_off", "time": 84, "note": 58, "velocity": 87, "channel": 0}, {"type": "note_on", "time": 20, "note": 61, "velocity": 104, "channel": 0}, {"type": "note_off", "time": 53, "note": 61, "velocity": 104, "channel": 0}, {"type": "note_on", "time": 30, "note": 65, "velocity": 97, "channel": 0}, {"type": "note_off", "time": 75, "note": 65, "velocity": 97, "channel": 0}, {"type": "note_on", "time": 21, "note": 61, "velocity": 97, "channel": 0}, {"type": "note_off", "time": 63, "note": 61, "velocity": 97, "channel": 0}, {"type": "note_on", "time": 10, "note": 58, "velocity": 89, "channel": 0}, {"type": "note_off", "time": 108, "note": 58, "velocity": 89, "channel": 0}, {"type": "note_on", "time": 74, "note": 56, "velocity": 96, "channel": 0}, {"type": "note_off", "time": 216, "note": 56, "velocity": 96, "channel": 0}, {"type": "end_of_track", "time": 0}]]}