{"ticks_per_beat": 192, "tracks": [[{"type": "track_name", "name": "Melody", "time": 0}, {"type": "set_tempo", "tempo": 239043, "time": 0}, {"type": "key_signature", "key": "Bb", "time": 0}, {"type": "time_signature", "numerator": 4, "denominator": 4, "clocks_per_click": 24, "notated_32nd_notes_per_beat": 8, "time": 0}, {"type": "note_on", "time": 4756, "note": 53, "velocity": 100, "channel": 0}, {"type": "note_off", "time": 79, "note": 53, "velocity": 100, "channel": 0}, {"type": "note_on", "time": 13, "note": 58, "velocity": 112, "channel": 0}, {"type": "note_off", "time": 111, "note": 58, "velocity": 112, "channel": 0}, {"type": "note_on", "time": 51, "note": 63, "velocity": 92, "channel": 0}, {"type": "note_off", "time": 83, "note": 63, "velocity": 92, "channel": 0}, {"type": "note_on", "time": 93, "note": 65, "velocity": 112, "channel": 0}, {"type": "note_off", "time": 307, "note": 65, "velocity": 112, "channel": 0}, {"type": "note_on", "time": 60, "note": 62, "velocity": 103, "channel": 0}, {"type": "note_off", "time": 130, "note": 62, "velocity": 103, "channel": 0}, {"type": "note_on", "time": 32, "note": 60, "velocity": 119, "channel": 0}, {"type": "note_off", "time": 93, "note": 60, "velocity": 119, "channel": 0}, {"type": "note_on", "time": 0, "note": 58, "velocity": 112, "channel": 0}, {"type": "note_off", "time": 97, "note": 58, "velocity": 112, "channel": 0}, {"type": "note_on", "time": 23, "note": 55, "velocity": 106, "channel": 0}, {"type": "note_off", "time": 60, "note": 55, "velocity": 106, "channel": 0}, {"type": "note_on", "time": 0, "note": 53, "velocity": 97, "channel": 0}, {"type": "note_off", "time": 116, "note": 53, "velocity": 97, "channel": 0}, {"type": "note_on", "time": 13, "note": 50, "velocity": 96, "channel": 0}, {"type": "note_off", "time": 79, "note": 50, "velocity": 96, "channel": 0}, {"type": "note_on", "time": 4, "note": 51, "velocity": 98, "channel": 0}, {"type": "note_on", "time": 88, "note": 48, "velocity": 88, "channel": 0}, {"type": "note_off", "time": 0, "note": 51, "velocity": 98, "channel": 0}, {"type": "note_off", "time": 97, "note": 48, "velocity": 88, "channel": 0}, {"type": "note_on", "time": 23, "note": 50, "velocity": 94, "channel": 0}, {"type": "note_off", "time": 139, "note": 50, "velocity": 94, "channel": 0}, {"type": "note_on", "time": 18, "note": 55, "velocity": 92, "channel": 0}, {"type": "note_off", "time": 116, "note": 55, "velocity": 92, "channel": 0}, {"type": "note_on", "time": 37, "note": 58, "velocity": 110, "channel": 0}, {"type": "note_off", "time": 331, "note": 58, "velocity": 110, "channel": 0}, {"type": "note_on", "time": 4, "note": 55, "velocity": 107, "channel": 0}, {"type": "note_off", "time": 144, "note": 55, "velocity": 107, "channel": 0}, {"type": "note_on", "time": 811, "note": 72, "velocity": 123, "channel": 0}, {"type": "note_off", "time": 125, "note": 72, "velocity": 123, "channel": 0}, {"type": "note_on", "time": 0, "note": 70, "velocity": 122, "channel": 0}, {"type": "note_off", "time": 107, "note": 70, "velocity": 122, "channel": 0}, {"type": "note_on", "time": 0, "note": 67, "velocity": 123, "channel": 0}, {"type": "note_off", "time": 93, "note": 67, "velocity": 123, "channel": 0}, {"type": "note_on", "time": 0, "note": 65, "velocity": 117, "channel": 0}, {"type": "note_off", "time": 79, "note": 65, "velocity": 117, "channel": 0}, {"type": "note_on", "time": 13, "note": 62, "velocity": 122, "channel": 0}, {"type": "note_off", "time": 74, "note": 62, "velocity": 122, "channel": 0}, {"type": "note_on", "time": 0, "note": 60, "velocity": 124, "channel": 0}, {"type": "note_off", "time": 93, "note": 60, "velocity": 124, "channel": 0}, {"type": "note_on", "time": 9, "note": 58, "velocity": 110, "channel": 0}, {"type": "note_off", "time": 102, "note": 58, "velocity": 110, "channel": 0}, {"type": "note_on", "time": 4, "note": 55, "velocity": 103, "channel": 0}, {"type": "note_off", "time": 97, "note": 55, "velocity": 103, "channel": 0}, {"type": "note_on", "time": 18, "note": 47, "velocity": 98, "channel": 0}, {"type": "note_off", "time": 88, "note": 47, "velocity": 98, "channel": 0}, {"type": "note_on", "time": 4, "note": 48, "velocity": 92, "channel": 0}, {"type": "note_off", "time": 93, "note": 48, "velocity": 92, "channel": 0}, {"type": "note_on", "time": 0, "note": 50, "velocity": 90, "channel": 0}, {"type": "note_off", "time": 265, "note": 50, "velocity": 90, "channel": 0}, {"type": "note_on", "time": 13, "note": 53, "velocity": 99, "channel": 0}, {"type": "note_off", "time": 704, "note": 53, "velocity": 99, "channel": 0}, {"type": "note_on", "time": 18, "note": 58, "velocity": 108, "channel": 0}, {"type": "note_off", "time": 158, "note": 58, "velocity": 108, "channel": 0}, {"type": "note_on", "time": 694, "note": 68, "velocity": 117, "channel": 0}, {"type": "note_off", "time": 65, "note": 68, "velocity": 117, "channel": 0}, {"type": "note_on", "time": 13, "note": 65, "velocity": 109, "channel": 0}, {"type": "note_off", "time": 46, "note": 65, "velocity": 109, "channel": 0}, {"type": "note_on", "time": 23, "note": 67, "velocity": 118, "channel": 0}, {"type": "note_off", "time": 79, "note": 67, "velocity": 118, "channel": 0}, {"type": "note_on", "time": 18, "note": 65, "velocity": 102, "channel": 0}, {"type": "note_off", "time": 74, "note": 65, "velocity": 102, "channel": 0}, {"type": "note_on", "time": 13, "note": 68, "velocity": 122, "channel": 0}, {"type": "note_off", "time": 79, "note": 68, "velocity": 122, "channel": 0}, {"type": "note_on", "time": 32, "note": 65, "velocity": 107, "channel": 0}, {"type": "note_off", "time": 83, "note": 65, "velocity": 107, "channel": 0}, {"type": "note_on", "time": 18, "note": 67, "velocity": 118, "channel": 0}, {"type": "note_off", "time": 79, "note": 67, "velocity": 118, "channel": 0}, {"type": "note_on", "time": 13, "note": 65, "velocity": 107, "channel": 0}, {"type": "note_off", "time": 74, "note": 65, "velocity": 107, "channel": 0}, {"type": "note_on", "time": 13, "note": 68, "velocity": 118, "channel": 0}, {"type": "note_off", "time": 97, "note": 68, "velocity": 118, "channel": 0}, {"type": "note_on", "time": 4, "note": 65, "velocity": 105, "channel": 0}, {"type": "note_off", "time": 69, "note": 65, "velocity": 105, "channel": 0}, {"type": "note_on", "time": 0, "note": 67, "velocity": 115, "channel": 0}, {"type": "note_off", "time": 97, "note": 67, "velocity": 115, "channel": 0}, {"type": "note_on", "time": 23, "note": 65, "velocity": 103, "channel": 0}, {"type": "note_off", "time": 69, "note": 65, "velocity": 103, "channel": 0}, {"type": "note_on", "time": 0, "note": 67, "velocity": 112, "channel": 0}, {"type": "note_off", "time": 149, "note": 67, "velocity": 112, "channel": 0}, {"type": "note_on", "time": 37, "note": 65, "velocity": 108, "channel": 0}, {"type": "note_off", "time": 102, "note": 65, "velocity": 108, "channel": 0}, {"type": "note_on", "time": 0, "note": 62, "velocity": 116, "channel": 0}, {"type": "note_off", "time": 93, "note": 62, "velocity": 116, "channel": 0}, {"type": "note_on", "time": 13, "note": 61, "velocity": 118, "channel": 0}, {"type": "note_off", "time": 116, "note": 61, "velocity": 118, "channel": 0}, {"type": "note_on", "time": 0, "note": 58, "velocity": 109, "channel": 0}, {"type": "note_off", "time": 83, "note": 58, "velocity": 109, "channel": 0}, {"type": "note_on", "time": 18, "note": 55, "velocity": 99, "channel": 0}, {"type": "note_off", "time": 65, "note": 55, "velocity": 99, "channel": 0}, {"type": "note_on", "time": 13, "note": 54, "velocity": 93, "channel": 0}, {"type": "note_on", "time": 51, "note": 58, "velocity": 113, "channel": 0}, {"type": "note_off", "time": 0, "note": 54, "velocity": 93, "channel": 0}, {"type": "note_off", "time": 121, "note": 58, "velocity": 113, "channel": 0}, {"type": "note_on", "time": 0, "note": 55, "velocity": 108, "channel": 0}, {"type": "note_off", "time": 97, "note": 55, "velocity": 108, "channel": 0}, {"type": "note_on", "time": 23, "note": 54, "velocity": 103, "channel": 0}, {"type": "note_off", "time": 69, "note": 54, "velocity": 103, "channel": 0}, {"type": "note_on", "time": 13, "note": 50, "velocity": 90, "channel": 0}, {"type": "note_on", "time": 83, "note": 53, "velocity": 105, "channel": 0}, {"type": "note_off", "time": 0, "note": 50, "velocity": 90, "channel": 0}, {"type": "note_off", "time": 93, "note": 53, "velocity": 105, "channel": 0}, {"type": "note_on", "time": 0, "note": 50, "velocity": 92, "channel": 0}, {"type": "note_off", "time": 79, "note": 50, "velocity": 92, "channel": 0}, {"type": "note_on", "time": 4, "note": 51, "velocity": 92, "channel": 0}, {"type": "note_off", "time": 88, "note": 51, "velocity": 92, "channel": 0}, {"type": "note_on", "time": 0, "note": 53, "velocity": 94, "channel": 0}, {"type": "note_off", "time": 65, "note": 53, "velocity": 94, "channel": 0}, {"type": "note_on", "time": 4, "note": 55, "velocity": 110, "channel": 0}, {"type": "note_off", "time": 93, "note": 55, "velocity": 110, "channel": 0}, {"type": "note_on", "time": 0, "note": 60, "velocity": 120, "channel": 0}, {"type": "note_off", "time": 97, "note": 60, "velocity": 120, "channel": 0}, {"type": "note_on", "time": 23, "note": 62, "velocity": 114, "channel": 0}, {"type": "note_off", "time": 158, "note": 62, "velocity": 114, "channel": 0}, {"type": "note_on", "time": 0, "note": 58, "velocity": 102, "channel": 0}, {"type": "note_off", "time": 228, "note": 58, "velocity": 102, "channel": 0}, {"type": "note_on", "time": 377, "note": 63, "velocity": 122, "channel": 0}, {"type": "note_off", "time": 111, "note": 63, "velocity": 122, "channel": 0}, {"type": "note_on", "time": 13, "note": 65, "velocity": 119, "channel": 0}, {"type": "note_off", "time": 144, "note": 65, "velocity": 119, "channel": 0}, {"type": "note_on", "time": 4, "note": 64, "velocity": 110, "channel": 0}, {"type": "note_off", "time": 531, "note": 64, "velocity": 110, "channel": 0}, {"type": "note_on", "time": 0, "note": 65, "velocity": 112, "channel": 0}, {"type": "note_off", "time": 293, "note": 65, "velocity": 112, "channel": 0}, {"type": "note_on", "time": 0, "note": 61, "velocity": 118, "channel": 0}, {"type": "note_off", "time": 102, "note": 61, "velocity": 118, "channel": 0}, {"type": "note_on", "time": 0, "note": 62, "velocity": 115, "channel": 0}, {"type": "note_off", "time": 97, "note": 62, "velocity": 115, "channel": 0}, {"type": "note_on", "time": 0, "note": 58, "velocity": 107, "channel": 0}, {"type": "note_off", "time": 116, "note": 58, "velocity": 107, "channel": 0}, {"type": "note_on", "time": 0, "note": 55, "velocity": 100, "channel": 0}, {"type": "note_off", "time": 116, "note": 55, "velocity": 100, "channel": 0}, {"type": "note_on", "time": 0, "note": 53, "velocity": 95, "channel": 0}, {"type": "note_off", "time": 65, "note": 53, "velocity": 95, "channel": 0}, {"type": "note_on", "time": 0, "note": 50, "velocity": 89, "channel": 0}, {"type": "note_off", "time": 102, "note": 50, "velocity": 89, "channel": 0}, {"type": "note_on", "time": 23, "note": 50, "velocity": 97, "channel": 0}, {"type": "note_off", "time": 69, "note": 50, "velocity": 97, "channel": 0}, {"type": "note_on", "time": 13, "note": 53, "velocity": 95, "channel": 0}, {"type": "note_off", "time": 242, "note": 53, "velocity": 95, "channel": 0}, {"type": "note_on", "time": 606, "note": 51, "velocity": 107, "channel": 0}, {"type": "note_off", "time": 51, "note": 51, "velocity": 107, "channel": 0}, {"type": "note_on", "time": 0, "note": 54, "velocity": 110, "channel": 0}, {"type": "note_off", "time": 88, "note": 54, "velocity": 110, "channel": 0}, {"type": "note_on", "time": 9, "note": 59, "velocity": 113, "channel": 0}, {"type": "note_off", "time": 130, "note": 59, "velocity": 113, "channel": 0}, {"type": "note_on", "time": 0, "note": 64, "velocity": 111, "channel": 0}, {"type": "note_off", "time": 382, "note": 64, "velocity": 111, "channel": 0}, {"type": "note_on", "time": 46, "note": 52, "velocity": 100, "channel": 0}, {"type": "note_off", "time": 97, "note": 52, "velocity": 100, "channel": 0}, {"type": "note_on", "time": 23, "note": 54, "velocity": 105, "channel": 0}, {"type": "note_off", "time": 69, "note": 54, "velocity": 105, "channel": 0}, {"type": "note_on", "time": 0, "note": 59, "velocity": 115, "channel": 0}, {"type": "note_off", "time": 111, "note": 59, "velocity": 115, "channel": 0}, {"type": "note_on", "time": 9, "note": 64, "velocity": 110, "channel": 0}, {"type": "note_off", "time": 247, "note": 64, "velocity": 110, "channel": 0}, {"type": "note_on", "time": 4, "note": 58, "velocity": 107, "channel": 0}, {"type": "note_off", "time": 97, "note": 58, "velocity": 107, "channel": 0}, {"type": "note_on", "time": 32, "note": 57, "velocity": 108, "channel": 0}, {"type": "note_off", "time": 638, "note": 57, "velocity": 108, "channel": 0}, {"type": "note_on", "time": 9, "note": 50, "velocity": 104, "channel": 0}, {"type": "note_off", "time": 326, "note": 50, "velocity": 104, "channel": 0}, {"type": "note_on", "time": 0, "note": 55, "velocity": 105, "channel": 0}, {"type": "note_off", "time": 438, "note": 55, "velocity": 105, "channel": 0}, {"type": "note_on", "time": 508, "note": 66, "velocity": 114, "channel": 0}, {"type": "note_off", "time": 83, "note": 66, "velocity": 114, "channel": 0}, {"type": "note_on", "time": 27, "note": 64, "velocity": 117, "channel": 0}, {"type": "note_off", "time": 93, "note": 64, "velocity": 117, "channel": 0}, {"type": "note_on", "time": 0, "note": 65, "velocity": 113, "channel": 0}, {"type": "note_off", "time": 74, "note": 65, "velocity": 113, "channel": 0}, {"type": "note_on", "time": 23, "note": 64, "velocity": 115, "channel": 0}, {"type": "note_off", "time": 93, "note": 64, "velocity": 115, "channel": 0}, {"type": "note_on", "time": 9, "note": 62, "velocity": 119, "channel": 0}, {"type": "note_off", "time": 83, "note": 62, "velocity": 119, "channel": 0}, {"type": "note_on", "time": 0, "note": 58, "velocity": 111, "channel": 0}, {"type": "note_on", "time": 121, "note": 55, "velocity": 110, "channel": 0}, {"type": "note_off", "time": 0, "note": 58, "velocity": 111, "channel": 0}, {"type": "note_off", "time": 88, "note": 55, "velocity": 110, "channel": 0}, {"type": "note_on", "time": 9, "note": 53, "velocity": 106, "channel": 0}, {"type": "note_on", "time": 74, "note": 55, "velocity": 104, "channel": 0}, {"type": "note_off", "time": 0, "note": 53, "velocity": 106, "channel": 0}, {"type": "note_off", "time": 60, "note": 55, "velocity": 104, "channel": 0}, {"type": "note_on", "time": 18, "note": 53, "velocity": 101, "channel": 0}, {"type": "note_off", "time": 55, "note": 53, "velocity": 101, "channel": 0}, {"type": "note_on", "time": 9, "note": 52, "velocity": 101, "channel": 0}, {"type": "note_off", "time": 55, "note": 52, "velocity": 101, "channel": 0}, {"type": "note_on", "time": 23, "note": 53, "velocity": 100, "channel": 0}, {"type": "note_off", "time": 65, "note": 53, "velocity": 100, "channel": 0}, {"type": "note_on", "time": 9, "note": 55, "velocity": 110, "channel": 0}, {"type": "note_off", "time": 135, "note": 55, "velocity": 110, "channel": 0}, {"type": "note_on", "time": 4, "note": 52, "velocity": 99, "channel": 0}, {"type": "note_off", "time": 83, "note": 52, "velocity": 99, "channel": 0}, {"type": "note_on", "time": 0, "note": 53, "velocity": 100, "channel": 0}, {"type": "note_off", "time": 97, "note": 53, "velocity": 100, "channel": 0}, {"type": "note_on", "time": 13, "note": 57, "velocity": 118, "channel": 0}, {"type": "note_off", "time": 60, "note": 57, "velocity": 118, "channel": 0}, {"type": "note_on", "time": 0, "note": 61, "velocity": 122, "channel": 0}, {"type": "note_off", "time": 107, "note": 61, "velocity": 122, "channel": 0}, {"type": "note_on", "time": 18, "note": 65, "velocity": 112, "channel": 0}, {"type": "note_off", "time": 60, "note": 65, "velocity": 112, "channel": 0}, {"type": "note_on", "time": 9, "note": 63, "velocity": 115, "channel": 0}, {"type": "note_off", "time": 93, "note": 63, "velocity": 115, "channel": 0}, {"type": "note_on", "time": 9, "note": 61, "velocity": 117, "channel": 0}, {"type": "note_off", "time": 88, "note": 61, "velocity": 117, "channel": 0}, {"type": "note_on", "time": 0, "note": 57, "velocity": 102, "channel": 0}, {"type": "note_off", "time": 88, "note": 57, "velocity": 102, "channel": 0}, {"type": "note_on", "time": 4, "note": 53, "velocity": 90, "channel": 0}, {"type": "note_off", "time": 102, "note": 53, "velocity": 90, "channel": 0}, {"type": "note_on", "time": 125, "note": 55, "velocity": 96, "channel": 0}, {"type": "note_off", "time": 144, "note": 55, "velocity": 96, "channel": 0}, {"type": "note_on", "time": 79, "note": 55, "velocity": 108, "channel": 0}, {"type": "note_off", "time": 107, "note": 55, "velocity": 108, "channel": 0}, {"type": "note_on", "time": 4, "note": 53, "velocity": 98, "channel": 0}, {"type": "note_off", "time": 65, "note": 53, "velocity": 98, "channel": 0}, {"type": "note_on", "time": 0, "note": 60, "velocity": 112, "channel": 0}, {"type": "note_off", "time": 662, "note": 60, "velocity": 112, "channel": 0}, {"type": "note_on", "time": 116, "note": 60, "velocity": 119, "channel": 0}, {"type": "note_off", "time": 489, "note": 60, "velocity": 119, "channel": 0}, {"type": "note_on", "time": 0, "note": 58, "velocity": 109, "channel": 0}, {"type": "note_on", "time": 125, "note": 55, "velocity": 99, "channel": 0}, {"type": "note_off", "time": 0, "note": 58, "velocity": 109, "channel": 0}, {"type": "note_off", "time": 107, "note": 55, "velocity": 99, "channel": 0}, {"type": "note_on", "time": 27, "note": 60, "velocity": 112, "channel": 0}, {"type": "note_off", "time": 172, "note": 60, "velocity": 112, "channel": 0}, {"type": "note_on", "time": 65, "note": 60, "velocity": 110, "channel": 0}, {"type": "note_off", "time": 130, "note": 60, "velocity": 110, "channel": 0}, {"type": "note_on", "time": 60, "note": 60, "velocity": 116, "channel": 0}, {"type": "note_off", "time": 312, "note": 60, "velocity": 116, "channel": 0}, {"type": "note_on", "time": 326, "note": 60, "velocity": 126, "channel": 0}, {"type": "note_off", "time": 139, "note": 60, "velocity": 126, "channel": 0}, {"type": "note_on", "time": 41, "note": 61, "velocity": 115, "channel": 0}, {"type": "note_off", "time": 205, "note": 61, "velocity": 115, "channel": 0}, {"type": "note_on", "time": 13, "note": 58, "velocity": 106, "channel": 0}, {"type": "note_off", "time": 312, "note": 58, "velocity": 106, "channel": 0}, {"type": "note_on", "time": 13, "note": 53, "velocity": 101, "channel": 0}, {"type": "note_off", "time": 60, "note": 53, "velocity": 101, "channel": 0}, {"type": "note_on", "time": 181, "note": 53, "velocity": 98, "channel": 0}, {"type": "note_on", "time": 79, "note": 56, "velocity": 90, "channel": 0}, {"type": "note_off", "time": 0, "note": 53, "velocity": 98, "channel": 0}, {"type": "note_off", "time": 95, "note": 56, "velocity": 90, "channel": 0}, {"type": "note_on", "time": 51, "note": 55, "velocity": 100, "channel": 0}, {"type": "note_off", "time": 39, "note": 55, "velocity": 100, "channel": 0}, {"type": "note_on", "time": 3, "note": 58, "velocity": 107, "channel": 0}, {"type": "note_off", "time": 137, "note": 58, "velocity": 107, "channel": 0}, {"type": "note_on", "time": 0, "note": 55, "velocity": 100, "channel": 0}, {"type": "note_off", "time": 55, "note": 55, "velocity": 100, "channel": 0}, {"type": "note_on", "time": 0, "note": 58, "velocity": 109, "channel": 0}, {"type": "note_off", "time": 140, "note": 58, "velocity": 109, "channel": 0}, {"type": "note_on", "time": 0, "note": 55, "velocity": 106, "channel": 0}, {"type": "note_off", "time": 49, "note": 55, "velocity": 106, "channel": 0}, {"type": "note_on", "time": 3, "note": 58, "velocity": 112, "channel": 0}, {"type": "note_on", "time": 123, "note": 55, "velocity": 105, "channel": 0}, {"type": "note_off", "time": 0, "note": 58, "velocity": 112, "channel": 0}, {"type": "note_off", "time": 67, "note": 55, "velocity": 105, "channel": 0}, {"type": "note_on", "time": 20, "note": 49, "velocity": 93, "channel": 0}, {"type": "note_off", "time": 76, "note": 49, "velocity": 93, "channel": 0}, {"type": "note_on", "time": 16, "note": 50, "velocity": 95, "channel": 0}, {"type": "note_off", "time": 62, "note": 50, "velocity": 95, "channel": 0}, {"type": "note_on", "time": 6, "note": 53, "velocity": 102, "channel": 0}, {"type": "note_off", "time": 114, "note": 53, "velocity": 102, "channel": 0}, {"type": "note_on", "time": 13, "note": 58, "velocity": 103, "channel": 0}, {"type": "note_off", "time": 305, "note": 58, "velocity": 103, "channel": 0}, {"type": "note_on", "time": 1084, "note": 64, "velocity": 117, "channel": 0}, {"type": "note_off", "time": 104, "note": 64, "velocity": 117, "channel": 0}, {"type": "note_on", "time": 16, "note": 65, "velocity": 118, "channel": 0}, {"type": "note_off", "time": 83, "note": 65, "velocity": 118, "channel": 0}, {"type": "note_on", "time": 2, "note": 66, "velocity": 112, "channel": 0}, {"type": "note_off", "time": 104, "note": 66, "velocity": 112, "channel": 0}, {"type": "note_on", "time": 0, "note": 64, "velocity": 117, "channel": 0}, {"type": "note_off", "time": 86, "note": 64, "velocity": 117, "channel": 0}, {"type": "note_on", "time": 0, "note": 65, "velocity": 112, "channel": 0}, {"type": "note_off", "time": 128, "note": 65, "velocity": 112, "channel": 0}, {"type": "note_on", "time": 0, "note": 61, "velocity": 118, "channel": 0}, {"type": "note_off", "time": 74, "note": 61, "velocity": 118, "channel": 0}, {"type": "note_on", "time": 0, "note": 62, "velocity": 117, "channel": 0}, {"type": "note_off", "time": 95, "note": 62, "velocity": 117, "channel": 0}, {"type": "note_on", "time": 60, "note": 58, "velocity": 108, "channel": 0}, {"type": "note_off", "time": 333, "note": 58, "velocity": 108, "channel": 0}, {"type": "note_on", "time": 2, "note": 53, "velocity": 102, "channel": 0}, {"type": "note_off", "time": 86, "note": 53, "velocity": 102, "channel": 0}, {"type": "note_on", "time": 18, "note": 52, "velocity": 98, "channel": 0}, {"type": "note_off", "time": 88, "note": 52, "velocity": 98, "channel": 0}, {"type": "note_on", "time": 18, "note": 53, "velocity": 98, "channel": 0}, {"type": "note_off", "time": 69, "note": 53, "velocity": 98, "channel": 0}, {"type": "note_on", "time": 11, "note": 54, "velocity": 103, "channel": 0}, {"type": "note_off", "time": 95, "note": 54, "velocity": 103, "channel": 0}, {"type": "note_on", "time": 20, "note": 52, "velocity": 99, "channel": 0}, {"type": "note_off", "time": 55, "note": 52, "velocity": 99, "channel": 0}, {"type": "note_on", "time": 9, "note": 53, "velocity": 107, "channel": 0}, {"type": "note_off", "time": 102, "note": 53, "velocity": 107, "channel": 0}, {"type": "note_on", "time": 18, "note": 46, "velocity": 95, "channel": 0}, {"type": "note_off", "time": 55, "note": 46, "velocity": 95, "channel": 0}, {"type": "note_on", "time": 4, "note": 50, "velocity": 95, "channel": 0}, {"type": "note_off", "time": 95, "note": 50, "velocity": 95, "channel": 0}, {"type": "note_on", "time": 0, "note": 53, "velocity": 94, "channel": 0}, {"type": "note_off", "time": 69, "note": 53, "velocity": 94, "channel": 0}, {"type": "note_on", "time": 0, "note": 58, "velocity": 121, "channel": 0}, {"type": "note_off", "time": 109, "note": 58, "velocity": 121, "channel": 0}, {"type": "note_on", "time": 32, "note": 58, "velocity": 121, "channel": 0}, {"type": "note_off", "time": 125, "note": 58, "velocity": 121, "channel": 0}, {"type": "note_on", "time": 55, "note": 58, "velocity": 105, "channel": 0}, {"type": "note_off", "time": 277, "note": 58, "velocity": 105, "channel": 0}, {"type": "note_on", "time": 51, "note": 48, "velocity": 92, "channel": 0}, {"type": "note_off", "time": 60, "note": 48, "velocity": 92, "channel": 0}, {"type": "note_on", "time": 32, "note": 51, "velocity": 91, "channel": 0}, {"type": "note_off", "time": 62, "note": 51, "velocity": 91, "channel": 0}, {"type": "note_on", "time": 6, "note": 55, "velocity": 112, "channel": 0}, {"type": "note_off", "time": 114, "note": 55, "velocity": 112, "channel": 0}, {"type": "note_on", "time": 6, "note": 58, "velocity": 109, "channel": 0}, {"type": "note_off", "time": 270, "note": 58, "velocity": 109, "channel": 0}, {"type": "note_on", "time": 4, "note": 55, "velocity": 84, "channel": 0}, {"type": "note_off", "time": 333, "note": 55, "velocity": 84, "channel": 0}, {"type": "note_on", "time": 27, "note": 70, "velocity": 111, "channel": 0}, {"type": "note_off", "time": 128, "note": 70, "velocity": 111, "channel": 0}, {"type": "note_on", "time": 0, "note": 67, "velocity": 120, "channel": 0}, {"type": "note_off", "time": 95, "note": 67, "velocity": 120, "channel": 0}, {"type": "note_on", "time": 4, "note": 65, "velocity": 116, "channel": 0}, {"type": "note_off", "time": 76, "note": 65, "velocity": 116, "channel": 0}, {"type": "note_on", "time": 0, "note": 62, "velocity": 123, "channel": 0}, {"type": "note_off", "time": 81, "note": 62, "velocity": 123, "channel": 0}, {"type": "note_on", "time": 4, "note": 60, "velocity": 120, "channel": 0}, {"type": "note_off", "time": 128, "note": 60, "velocity": 120, "channel": 0}, {"type": "note_on", "time": 9, "note": 58, "velocity": 113, "channel": 0}, {"type": "note_off", "time": 62, "note": 58, "velocity": 113, "channel": 0}, {"type": "note_on", "time": 0, "note": 55, "velocity": 102, "channel": 0}, {"type": "note_off", "time": 132, "note": 55, "velocity": 102, "channel": 0}, {"type": "note_on", "time": 0, "note": 51, "velocity": 95, "channel": 0}, {"type": "note_off", "time": 88, "note": 51, "velocity": 95, "channel": 0}, {"type": "note_on", "time": 11, "note": 51, "velocity": 97, "channel": 0}, {"type": "note_off", "time": 67, "note": 51, "velocity": 97, "channel": 0}, {"type": "note_on", "time": 32, "note": 49, "velocity": 84, "channel": 0}, {"type": "note_off", "time": 74, "note": 49, "velocity": 84, "channel": 0}, {"type": "note_on", "time": 6, "note": 50, "velocity": 86, "channel": 0}, {"type": "note_off", "time": 93, "note": 50, "velocity": 86, "channel": 0}, {"type": "note_on", "time": 4, "note": 54, "velocity": 88, "channel": 0}, {"type": "note_off", "time": 58, "note": 54, "velocity": 88, "channel": 0}, {"type": "note_on", "time": 13, "note": 58, "velocity": 122, "channel": 0}, {"type": "note_off", "time": 93, "note": 58, "velocity": 122, "channel": 0}, {"type": "note_on", "time": 34, "note": 58, "velocity": 124, "channel": 0}, {"type": "note_off", "time": 151, "note": 58, "velocity": 124, "channel": 0}, {"type": "note_on", "time": 139, "note": 61, "velocity": 123, "channel": 0}, {"type": "note_off", "time": 83, "note": 61, "velocity": 123, "channel": 0}, {"type": "note_on", "time": 25, "note": 62, "velocity": 113, "channel": 0}, {"type": "note_off", "time": 121, "note": 62, "velocity": 113, "channel": 0}, {"type": "note_on", "time": 167, "note": 69, "velocity": 96, "channel": 0}, {"type": "note_off", "time": 177, "note": 69, "velocity": 96, "channel": 0}, {"type": "note_on", "time": 44, "note": 58, "velocity": 109, "channel": 0}, {"type": "note_off", "time": 72, "note": 58, "velocity": 109, "channel": 0}, {"type": "note_on", "time": 18, "note": 55, "velocity": 101, "channel": 0}, {"type": "note_off", "time": 244, "note": 55, "velocity": 101, "channel": 0}, {"type": "note_on", "time": 608, "note": 72, "velocity": 121, "channel": 0}, {"type": "note_off", "time": 100, "note": 72, "velocity": 121, "channel": 0}, {"type": "note_on", "time": 27, "note": 70, "velocity": 116, "channel": 0}, {"type": "note_off", "time": 62, "note": 70, "velocity": 116, "channel": 0}, {"type": "note_on", "time": 6, "note": 67, "velocity": 126, "channel": 0}, {"type": "note_off", "time": 100, "note": 67, "velocity": 126, "channel": 0}, {"type": "note_on", "time": 16, "note": 65, "velocity": 114, "channel": 0}, {"type": "note_off", "time": 76, "note": 65, "velocity": 114, "channel": 0}, {"type": "note_on", "time": 0, "note": 62, "velocity": 120, "channel": 0}, {"type": "note_off", "time": 107, "note": 62, "velocity": 120, "channel": 0}, {"type": "note_on", "time": 9, "note": 58, "velocity": 114, "channel": 0}, {"type": "note_off", "time": 74, "note": 58, "velocity": 114, "channel": 0}, {"type": "note_on", "time": 6, "note": 60, "velocity": 119, "channel": 0}, {"type": "note_off", "time": 93, "note": 60, "velocity": 119, "channel": 0}, {"type": "note_on", "time": 16, "note": 62, "velocity": 120, "channel": 0}, {"type": "note_off", "time": 58, "note": 62, "velocity": 120, "channel": 0}, {"type": "note_on", "time": 13, "note": 63, "velocity": 115, "channel": 0}, {"type": "note_off", "time": 118, "note": 63, "velocity": 115, "channel": 0}, {"type": "note_on", "time": 2, "note": 58, "velocity": 112, "channel": 0}, {"type": "note_off", "time": 88, "note": 58, "velocity": 112, "channel": 0}, {"type": "note_on", "time": 2, "note": 61, "velocity": 117, "channel": 0}, {"type": "note_off", "time": 65, "note": 61, "velocity": 117, "channel": 0}, {"type": "note_on", "time": 0, "note": 62, "velocity": 112, "channel": 0}, {"type": "note_off", "time": 51, "note": 62, "velocity": 112, "channel": 0}, {"type": "note_on", "time": 0, "note": 63, "velocity": 112, "channel": 0}, {"type": "note_off", "time": 27, "note": 63, "velocity": 112, "channel": 0}, {"type": "note_on", "time": 2, "note": 65, "velocity": 110, "channel": 0}, {"type": "note_off", "time": 107, "note": 65, "velocity": 110, "channel": 0}, {"type": "note_on", "time": 4, "note": 58, "velocity": 111, "channel": 0}, {"type": "note_off", "time": 90, "note": 58, "velocity": 111, "channel": 0}, {"type": "note_on", "time": 6, "note": 61, "velocity": 117, "channel": 0}, {"type": "note_off", "time": 79, "note": 61, "velocity": 117, "channel": 0}, {"type": "note_on", "time": 9, "note": 62, "velocity": 117, "channel": 0}, {"type": "note_off", "time": 72, "note": 62, "velocity": 117, "channel": 0}, {"type": "note_on", "time": 11, "note": 63, "velocity": 115, "channel": 0}, {"type": "note_off", "time": 109, "note": 63, "velocity": 115, "channel": 0}, {"type": "note_on", "time": 13, "note": 64, "velocity": 111, "channel": 0}, {"type": "note_off", "time": 74, "note": 64, "velocity": 111, "channel": 0}, {"type": "note_on", "time": 13, "note": 65, "velocity": 107, "channel": 0}, {"type": "note_off", "time": 67, "note": 65, "velocity": 107, "channel": 0}, {"type": "note_on", "time": 18, "note": 66, "velocity": 104, "channel": 0}, {"type": "note_off", "time": 30, "note": 66, "velocity": 104, "channel": 0}, {"type": "note_on", "time": 4, "note": 65, "velocity": 106, "channel": 0}, {"type": "note_off", "time": 65, "note": 65, "velocity": 106, "channel": 0}, {"type": "note_on", "time": 0, "note": 61, "velocity": 119, "channel": 0}, {"type": "note_off", "time": 100, "note": 61, "velocity": 119, "channel": 0}, {"type": "note_on", "time": 6, "note": 62, "velocity": 117, "channel": 0}, {"type": "note_off", "time": 100, "note": 62, "velocity": 117, "channel": 0}, {"type": "note_on", "time": 0, "note": 58, "velocity": 107, "channel": 0}, {"type": "note_off", "time": 128, "note": 58, "velocity": 107, "channel": 0}, {"type": "note_on", "time": 0, "note": 55, "velocity": 102, "channel": 0}, {"type": "note_off", "time": 74, "note": 55, "velocity": 102, "channel": 0}, {"type": "note_on", "time": 13, "note": 53, "velocity": 96, "channel": 0}, {"type": "note_off", "time": 86, "note": 53, "velocity": 96, "channel": 0}, {"type": "note_on", "time": 6, "note": 50, "velocity": 88, "channel": 0}, {"type": "note_off", "time": 76, "note": 50, "velocity": 88, "channel": 0}, {"type": "note_on", "time": 13, "note": 51, "velocity": 89, "channel": 0}, {"type": "note_off", "time": 65, "note": 51, "velocity": 89, "channel": 0}, {"type": "note_on", "time": 0, "note": 48, "velocity": 83, "channel": 0}, {"type": "note_off", "time": 55, "note": 48, "velocity": 83, "channel": 0}, {"type": "note_on", "time": 4, "note": 50, "velocity": 89, "channel": 0}, {"type": "note_off", "time": 277, "note": 50, "velocity": 89, "channel": 0}, {"type": "note_on", "time": 9, "note": 53, "velocity": 90, "channel": 0}, {"type": "note_off", "time": 62, "note": 53, "velocity": 90, "channel": 0}, {"type": "note_on", "time": 9, "note": 56, "velocity": 94, "channel": 0}, {"type": "note_off", "time": 37, "note": 56, "velocity": 94, "channel": 0}, {"type": "note_on", "time": 9, "note": 58, "velocity": 120, "channel": 0}, {"type": "note_off", "time": 568, "note": 58, "velocity": 120, "channel": 0}, {"type": "note_on", "time": 11, "note": 48, "velocity": 90, "channel": 0}, {"type": "note_off", "time": 55, "note": 48, "velocity": 90, "channel": 0}, {"type": "note_on", "time": 25, "note": 51, "velocity": 94, "channel": 0}, {"type": "note_off", "time": 58, "note": 51, "velocity": 94, "channel": 0}, {"type": "note_on", "time": 0, "note": 58, "velocity": 114, "channel": 0}, {"type": "note_off", "time": 496, "note": 58, "velocity": 114, "channel": 0}, {"type": "note_on", "time": 25, "note": 58, "velocity": 103, "channel": 0}, {"type": "note_off", "time": 237, "note": 58, "velocity": 103, "channel": 0}, {"type": "note_on", "time": 74, "note": 61, "velocity": 120, "channel": 0}, {"type": "note_off", "time": 132, "note": 61, "velocity": 120, "channel": 0}, {"type": "note_on", "time": 25, "note": 62, "velocity": 114, "channel": 0}, {"type": "note_off", "time": 132, "note": 62, "velocity": 114, "channel": 0}, {"type": "note_on", "time": 9, "note": 65, "velocity": 99, "channel": 0}, {"type": "note_off", "time": 72, "note": 65, "velocity": 99, "channel": 0}, {"type": "note_on", "time": 0, "note": 60, "velocity": 113, "channel": 0}, {"type": "note_off", "time": 198, "note": 60, "velocity": 113, "channel": 0}, {"type": "note_on", "time": 0, "note": 55, "velocity": 97, "channel": 0}, {"type": "note_off", "time": 97, "note": 55, "velocity": 97, "channel": 0}, {"type": "note_on", "time": 9, "note": 58, "velocity": 104, "channel": 0}, {"type": "note_off", "time": 396, "note": 58, "velocity": 104, "channel": 0}, {"type": "note_on", "time": 470, "note": 62, "velocity": 119, "channel": 0}, {"type": "note_off", "time": 116, "note": 62, "velocity": 119, "channel": 0}, {"type": "note_on", "time": 4, "note": 64, "velocity": 114, "channel": 0}, {"type": "note_off", "time": 86, "note": 64, "velocity": 114, "channel": 0}, {"type": "note_on", "time": 4, "note": 66, "velocity": 105, "channel": 0}, {"type": "note_off", "time": 97, "note": 66, "velocity": 105, "channel": 0}, {"type": "note_on", "time": 4, "note": 67, "velocity": 110, "channel": 0}, {"type": "note_off", "time": 90, "note": 67, "velocity": 110, "channel": 0}, {"type": "note_on", "time": 4, "note": 69, "velocity": 118, "channel": 0}, {"type": "note_off", "time": 151, "note": 69, "velocity": 118, "channel": 0}, {"type": "note_on", "time": 0, "note": 67, "velocity": 108, "channel": 0}, {"type": "note_off", "time": 69, "note": 67, "velocity": 108, "channel": 0}, {"type": "note_on", "time": 6, "note": 66, "velocity": 107, "channel": 0}, {"type": "note_off", "time": 62, "note": 66, "velocity": 107, "channel": 0}, {"type": "note_on", "time": 4, "note": 64, "velocity": 108, "channel": 0}, {"type": "note_off", "time": 104, "note": 64, "velocity": 108, "channel": 0}, {"type": "note_on", "time": 2, "note": 62, "velocity": 116, "channel": 0}, {"type": "note_off", "time": 109, "note": 62, "velocity": 116, "channel": 0}, {"type": "note_on", "time": 0, "note": 58, "velocity": 104, "channel": 0}, {"type": "note_off", "time": 90, "note": 58, "velocity": 104, "channel": 0}, {"type": "note_on", "time": 9, "note": 52, "velocity": 99, "channel": 0}, {"type": "note_off", "time": 69, "note": 52, "velocity": 99, "channel": 0}, {"type": "note_on", "time": 16, "note": 50, "velocity": 90, "channel": 0}, {"type": "note_off", "time": 81, "note": 50, "velocity": 90, "channel": 0}, {"type": "note_on", "time": 4, "note": 55, "velocity": 103, "channel": 0}, {"type": "note_off", "time": 139, "note": 55, "velocity": 103, "channel": 0}, {"type": "note_on", "time": 13, "note": 52, "velocity": 96, "channel": 0}, {"type": "note_off", "time": 65, "note": 52, "velocity": 96, "channel": 0}, {"type": "note_on", "time": 18, "note": 53, "velocity": 101, "channel": 0}, {"type": "note_off", "time": 46, "note": 53, "velocity": 101, "channel": 0}, {"type": "note_on", "time": 0, "note": 55, "velocity": 101, "channel": 0}, {"type": "note_off", "time": 53, "note": 55, "velocity": 101, "channel": 0}, {"type": "note_on", "time": 2, "note": 58, "velocity": 108, "channel": 0}, {"type": "note_off", "time": 62, "note": 58, "velocity": 108, "channel": 0}, {"type": "note_on", "time": 18, "note": 64, "velocity": 113, "channel": 0}, {"type": "note_off", "time": 104, "note": 64, "velocity": 113, "channel": 0}, {"type": "note_on", "time": 0, "note": 62, "velocity": 115, "channel": 0}, {"type": "note_off", "time": 81, "note": 62, "velocity": 115, "channel": 0}, {"type": "note_on", "time": 0, "note": 59, "velocity": 103, "channel": 0}, {"type": "note_off", "time": 90, "note": 59, "velocity": 103, "channel": 0}, {"type": "note_on", "time": 0, "note": 57, "velocity": 101, "channel": 0}, {"type": "note_off", "time": 317, "note": 57, "velocity": 101, "channel": 0}, {"type": "note_on", "time": 4, "note": 52, "velocity": 91, "channel": 0}, {"type": "note_off", "time": 88, "note": 52, "velocity": 91, "channel": 0}, {"type": "note_on", "time": 4, "note": 57, "velocity": 106, "channel": 0}, {"type": "note_off", "time": 251, "note": 57, "velocity": 106, "channel": 0}, {"type": "note_on", "time": 0, "note": 55, "velocity": 104, "channel": 0}, {"type": "note_off", "time": 130, "note": 55, "velocity": 104, "channel": 0}, {"type": "note_on", "time": 0, "note": 62, "velocity": 103, "channel": 0}, {"type": "note_off", "time": 338, "note": 62, "velocity": 103, "channel": 0}, {"type": "note_on", "time": 636, "note": 60, "velocity": 118, "channel": 0}, {"type": "note_off", "time": 79, "note": 60, "velocity": 118, "channel": 0}, {"type": "note_on", "time": 23, "note": 64, "velocity": 114, "channel": 0}, {"type": "note_off", "time": 51, "note": 64, "velocity": 114, "channel": 0}, {"type": "note_on", "time": 23, "note": 68, "velocity": 101, "channel": 0}, {"type": "note_off", "time": 46, "note": 68, "velocity": 101, "channel": 0}, {"type": "note_on", "time": 23, "note": 71, "velocity": 117, "channel": 0}, {"type": "note_off", "time": 41, "note": 71, "velocity": 117, "channel": 0}, {"type": "note_on", "time": 32, "note": 72, "velocity": 118, "channel": 0}, {"type": "note_off", "time": 135, "note": 72, "velocity": 118, "channel": 0}, {"type": "note_on", "time": 59, "note": 69, "velocity": 115, "channel": 0}, {"type": "note_off", "time": 104, "note": 69, "velocity": 115, "channel": 0}, {"type": "note_on", "time": 6, "note": 67, "velocity": 116, "channel": 0}, {"type": "note_off", "time": 114, "note": 67, "velocity": 116, "channel": 0}, {"type": "note_on", "time": 0, "note": 65, "velocity": 109, "channel": 0}, {"type": "note_off", "time": 45, "note": 65, "velocity": 109, "channel": 0}, {"type": "note_on", "time": 9, "note": 63, "velocity": 113, "channel": 0}, {"type": "note_off", "time": 114, "note": 63, "velocity": 113, "channel": 0}, {"type": "note_on", "time": 0, "note": 61, "velocity": 115, "channel": 0}, {"type": "note_off", "time": 91, "note": 61, "velocity": 115, "channel": 0}, {"type": "note_on", "time": 13, "note": 57, "velocity": 109, "channel": 0}, {"type": "note_off", "time": 111, "note": 57, "velocity": 109, "channel": 0}, {"type": "note_on", "time": 6, "note": 53, "velocity": 100, "channel": 0}, {"type": "note_off", "time": 95, "note": 53, "velocity": 100, "channel": 0}, {"type": "note_on", "time": 13, "note": 49, "velocity": 86, "channel": 0}, {"type": "note_off", "time": 65, "note": 49, "velocity": 86, "channel": 0}, {"type": "note_on", "time": 16, "note": 50, "velocity": 87, "channel": 0}, {"type": "note_off", "time": 39, "note": 50, "velocity": 87, "channel": 0}, {"type": "note_on", "time": 13, "note": 55, "velocity": 106, "channel": 0}, {"type": "note_off", "time": 124, "note": 55, "velocity": 106, "channel": 0}, {"type": "note_on", "time": 0, "note": 53, "velocity": 92, "channel": 0}, {"type": "note_off", "time": 68, "note": 53, "velocity": 92, "channel": 0}, {"type": "note_on", "time": 6, "note": 55, "velocity": 99, "channel": 0}, {"type": "note_off", "time": 373, "note": 55, "velocity": 99, "channel": 0}, {"type": "note_on", "time": 327, "note": 53, "velocity": 97, "channel": 0}, {"type": "note_on", "time": 88, "note": 58, "velocity": 115, "channel": 0}, {"type": "note_off", "time": 0, "note": 53, "velocity": 97, "channel": 0}, {"type": "note_off", "time": 111, "note": 58, "velocity": 115, "channel": 0}, {"type": "note_on", "time": 0, "note": 61, "velocity": 121, "channel": 0}, {"type": "note_off", "time": 55, "note": 61, "velocity": 121, "channel": 0}, {"type": "note_on", "time": 13, "note": 62, "velocity": 119, "channel": 0}, {"type": "note_off", "time": 127, "note": 62, "velocity": 119, "channel": 0}, {"type": "note_on", "time": 6, "note": 58, "velocity": 109, "channel": 0}, {"type": "note_off", "time": 68, "note": 58, "velocity": 109, "channel": 0}, {"type": "note_on", "time": 3, "note": 55, "velocity": 104, "channel": 0}, {"type": "note_off", "time": 134, "note": 55, "velocity": 104, "channel": 0}, {"type": "note_on", "time": 0, "note": 50, "velocity": 94, "channel": 0}, {"type": "note_off", "time": 81, "note": 50, "velocity": 94, "channel": 0}, {"type": "note_on", "time": 3, "note": 51, "velocity": 92, "channel": 0}, {"type": "note_off", "time": 104, "note": 51, "velocity": 92, "channel": 0}, {"type": "note_on", "time": 16, "note": 48, "velocity": 90, "channel": 0}, {"type": "note_off", "time": 95, "note": 48, "velocity": 90, "channel": 0}, {"type": "note_on", "time": 3, "note": 50, "velocity": 9, "channel": 0}, {"type": "note_off", "time": 101, "note": 50, "velocity": 9, "channel": 0}, {"type": "note_on", "time": 49, "note": 53, "velocity": 90, "channel": 0}, {"type": "note_off", "time": 406, "note": 53, "velocity": 90, "channel": 0}, {"type": "note_on", "time": 216, "note": 53, "velocity": 100, "channel": 0}, {"type": "note_off", "time": 85, "note": 53, "velocity": 100, "channel": 0}, {"type": "note_on", "time": 19, "note": 58, "velocity": 122, "channel": 0}, {"type": "note_off", "time": 101, "note": 58, "velocity": 122, "channel": 0}, {"type": "note_on", "time": 13, "note": 61, "velocity": 124, "channel": 0}, {"type": "note_off", "time": 55, "note": 61, "velocity": 124, "channel": 0}, {"type": "note_on", "time": 19, "note": 62, "velocity": 127, "channel": 0}, {"type": "note_off", "time": 98, "note": 62, "velocity": 127, "channel": 0}, {"type": "note_on", "time": 0, "note": 65, "velocity": 113, "channel": 0}, {"type": "note_off", "time": 72, "note": 65, "velocity": 113, "channel": 0}, {"type": "note_on", "time": 0, "note": 63, "velocity": 117, "channel": 0}, {"type": "note_off", "time": 124, "note": 63, "velocity": 117, "channel": 0}, {"type": "note_on", "time": 0, "note": 61, "velocity": 116, "channel": 0}, {"type": "note_off", "time": 75, "note": 61, "velocity": 116, "channel": 0}, {"type": "note_on", "time": 29, "note": 62, "velocity": 118, "channel": 0}, {"type": "note_off", "time": 68, "note": 62, "velocity": 118, "channel": 0}, {"type": "note_on", "time": 6, "note": 65, "velocity": 109, "channel": 0}, {"type": "note_off", "time": 91, "note": 65, "velocity": 109, "channel": 0}, {"type": "note_on", "time": 0, "note": 62, "velocity": 118, "channel": 0}, {"type": "note_off", "time": 111, "note": 62, "velocity": 118, "channel": 0}, {"type": "note_on", "time": 3, "note": 65, "velocity": 96, "channel": 0}, {"type": "note_off", "time": 337, "note": 65, "velocity": 96, "channel": 0}, {"type": "note_on", "time": 239, "note": 70, "velocity": 124, "channel": 0}, {"type": "note_off", "time": 85, "note": 70, "velocity": 124, "channel": 0}, {"type": "note_on", "time": 42, "note": 70, "velocity": 119, "channel": 0}, {"type": "note_off", "time": 62, "note": 70, "velocity": 119, "channel": 0}, {"type": "note_on", "time": 111, "note": 70, "velocity": 112, "channel": 0}, {"type": "note_off", "time": 311, "note": 70, "velocity": 112, "channel": 0}, {"type": "note_on", "time": 29, "note": 68, "velocity": 113, "channel": 0}, {"type": "note_off", "time": 81, "note": 68, "velocity": 113, "channel": 0}, {"type": "note_on", "time": 0, "note": 67, "velocity": 113, "channel": 0}, {"type": "note_off", "time": 78, "note": 67, "velocity": 113, "channel": 0}, {"type": "note_on", "time": 0, "note": 65, "velocity": 104, "channel": 0}, {"type": "note_off", "time": 91, "note": 65, "velocity": 104, "channel": 0}, {"type": "note_on", "time": 6, "note": 61, "velocity": 115, "channel": 0}, {"type": "note_off", "time": 114, "note": 61, "velocity": 115, "channel": 0}, {"type": "note_on", "time": 81, "note": 61, "velocity": 118, "channel": 0}, {"type": "note_off", "time": 140, "note": 61, "velocity": 118, "channel": 0}, {"type": "note_on", "time": 55, "note": 60, "velocity": 119, "channel": 0}, {"type": "note_off", "time": 98, "note": 60, "velocity": 119, "channel": 0}, {"type": "note_on", "time": 0, "note": 58, "velocity": 110, "channel": 0}, {"type": "note_off", "time": 98, "note": 58, "velocity": 110, "channel": 0}, {"type": "note_on", "time": 59, "note": 58, "velocity": 106, "channel": 0}, {"type": "note_off", "time": 236, "note": 58, "velocity": 106, "channel": 0}, {"type": "note_on", "time": 13, "note": 56, "velocity": 112, "channel": 0}, {"type": "note_off", "time": 255, "note": 56, "velocity": 112, "channel": 0}, {"type": "note_on", "time": 55, "note": 55, "velocity": 95, "channel": 0}, {"type": "note_off", "time": 65, "note": 55, "velocity": 95, "channel": 0}, {"type": "note_on", "time": 26, "note": 53, "velocity": 91, "channel": 0}, {"type": "note_off", "time": 334, "note": 53, "velocity": 91, "channel": 0}, {"type": "end_of_track", "time": 0}]]}