{"ticks_per_beat": 192, "tracks": [[{"type": "track_name", "name": "Melody", "time": 0}, {"type": "set_tempo", "tempo": 300000, "time": 0}, {"type": "key_signature", "key": "Ab", "time": 0}, {"type": "time_signature", "numerator": 4, "denominator": 4, "clocks_per_click": 24, "notated_32nd_notes_per_beat": 8, "time": 0}, {"type": "note_on", "time": 2548, "note": 75, "velocity": 107, "channel": 0}, {"type": "note_off", "time": 62, "note": 75, "velocity": 107, "channel": 0}, {"type": "note_on", "time": 15, "note": 77, "velocity": 96, "channel": 0}, {"type": "note_off", "time": 92, "note": 77, "velocity": 96, "channel": 0}, {"type": "note_on", "time": 24, "note": 79, "velocity": 90, "channel": 0}, {"type": "note_off", "time": 55, "note": 79, "velocity": 90, "channel": 0}, {"type": "note_on", "time": 9, "note": 80, "velocity": 110, "channel": 0}, {"type": "note_off", "time": 101, "note": 80, "velocity": 110, "channel": 0}, {"type": "note_on", "time": 10, "note": 80, "velocity": 111, "channel": 0}, {"type": "note_off", "time": 76, "note": 80, "velocity": 111, "channel": 0}, {"type": "note_on", "time": 0, "note": 79, "velocity": 106, "channel": 0}, {"type": "note_off", "time": 96, "note": 79, "velocity": 106, "channel": 0}, {"type": "note_on", "time": 14, "note": 77, "velocity": 102, "channel": 0}, {"type": "note_off", "time": 83, "note": 77, "velocity": 102, "channel": 0}, {"type": "note_on", "time": 5, "note": 79, "velocity": 103, "channel": 0}, {"type": "note_off", "time": 92, "note": 79, "velocity": 103, "channel": 0}, {"type": "note_on", "time": 20, "note": 79, "velocity": 95, "channel": 0}, {"type": "note_off", "time": 52, "note": 79, "velocity": 95, "channel": 0}, {"type": "note_on", "time": 17, "note": 77, "velocity": 98, "channel": 0}, {"type": "note_off", "time": 122, "note": 77, "velocity": 98, "channel": 0}, {"type": "note_on", "time": 4, "note": 75, "velocity": 101, "channel": 0}, {"type": "note_off", "time": 79, "note": 75, "velocity": 101, "channel": 0}, {"type": "note_on", "time": 3, "note": 77, "velocity": 111, "channel": 0}, {"type": "note_off", "time": 94, "note": 77, "velocity": 111, "channel": 0}, {"type": "note_on", "time": 16, "note": 77, "velocity": 101, "channel": 0}, {"type": "note_off", "time": 176, "note": 77, "velocity": 101, "channel": 0}, {"type": "note_on", "time": 198, "note": 75, "velocity": 113, "channel": 0}, {"type": "note_off", "time": 83, "note": 75, "velocity": 113, "channel": 0}, {"type": "note_on", "time": 9, "note": 77, "velocity": 94, "channel": 0}, {"type": "note_off", "time": 81, "note": 77, "velocity": 94, "channel": 0}, {"type": "note_on", "time": 13, "note": 79, "velocity": 97, "channel": 0}, {"type": "note_off", "time": 61, "note": 79, "velocity": 97, "channel": 0}, {"type": "note_on", "time": 14, "note": 80, "velocity": 97, "channel": 0}, {"type": "note_off", "time": 117, "note": 80, "velocity": 97, "channel": 0}, {"type": "note_on", "time": 9, "note": 80, "velocity": 114, "channel": 0}, {"type": "note_off", "time": 70, "note": 80, "velocity": 114, "channel": 0}, {"type": "note_on", "time": 17, "note": 79, "velocity": 102, "channel": 0}, {"type": "note_off", "time": 88, "note": 79, "velocity": 102, "channel": 0}, {"type": "note_on", "time": 10, "note": 77, "velocity": 99, "channel": 0}, {"type": "note_off", "time": 75, "note": 77, "velocity": 99, "channel": 0}, {"type": "note_on", "time": 0, "note": 79, "velocity": 109, "channel": 0}, {"type": "note_off", "time": 98, "note": 79, "velocity": 109, "channel": 0}, {"type": "note_on", "time": 16, "note": 79, "velocity": 121, "channel": 0}, {"type": "note_off", "time": 83, "note": 79, "velocity": 121, "channel": 0}, {"type": "note_on", "time": 22, "note": 77, "velocity": 103, "channel": 0}, {"type": "note_off", "time": 100, "note": 77, "velocity": 103, "channel": 0}, {"type": "note_on", "time": 18, "note": 75, "velocity": 100, "channel": 0}, {"type": "note_off", "time": 52, "note": 75, "velocity": 100, "channel": 0}, {"type": "note_on", "time": 5, "note": 77, "velocity": 107, "channel": 0}, {"type": "note_off", "time": 98, "note": 77, "velocity": 107, "channel": 0}, {"type": "note_on", "time": 19, "note": 77, "velocity": 101, "channel": 0}, {"type": "note_off", "time": 159, "note": 77, "velocity": 101, "channel": 0}, {"type": "note_on", "time": 231, "note": 75, "velocity": 99, "channel": 0}, {"type": "note_off", "time": 61, "note": 75, "velocity": 99, "channel": 0}, {"type": "note_on", "time": 16, "note": 77, "velocity": 96, "channel": 0}, {"type": "note_off", "time": 96, "note": 77, "velocity": 96, "channel": 0}, {"type": "note_on", "time": 1, "note": 79, "velocity": 95, "channel": 0}, {"type": "note_off", "time": 76, "note": 79, "velocity": 95, "channel": 0}, {"type": "note_on", "time": 16, "note": 80, "velocity": 109, "channel": 0}, {"type": "note_off", "time": 79, "note": 80, "velocity": 109, "channel": 0}, {"type": "note_on", "time": 24, "note": 80, "velocity": 109, "channel": 0}, {"type": "note_off", "time": 68, "note": 80, "velocity": 109, "channel": 0}, {"type": "note_on", "time": 11, "note": 75, "velocity": 108, "channel": 0}, {"type": "note_off", "time": 169, "note": 75, "velocity": 108, "channel": 0}, {"type": "note_on", "time": 14, "note": 77, "velocity": 101, "channel": 0}, {"type": "note_off", "time": 202, "note": 77, "velocity": 101, "channel": 0}, {"type": "note_on", "time": 3, "note": 72, "velocity": 94, "channel": 0}, {"type": "note_off", "time": 46, "note": 72, "velocity": 94, "channel": 0}, {"type": "note_on", "time": 7, "note": 73, "velocity": 108, "channel": 0}, {"type": "note_off", "time": 61, "note": 73, "velocity": 108, "channel": 0}, {"type": "note_on", "time": 1, "note": 76, "velocity": 120, "channel": 0}, {"type": "note_off", "time": 72, "note": 76, "velocity": 120, "channel": 0}, {"type": "note_on", "time": 14, "note": 79, "velocity": 106, "channel": 0}, {"type": "note_off", "time": 107, "note": 79, "velocity": 106, "channel": 0}, {"type": "note_on", "time": 7, "note": 83, "velocity": 103, "channel": 0}, {"type": "note_off", "time": 76, "note": 83, "velocity": 103, "channel": 0}, {"type": "note_on", "time": 0, "note": 79, "velocity": 102, "channel": 0}, {"type": "note_off", "time": 152, "note": 79, "velocity": 102, "channel": 0}, {"type": "note_on", "time": 31, "note": 73, "velocity": 117, "channel": 0}, {"type": "note_off", "time": 137, "note": 73, "velocity": 117, "channel": 0}, {"type": "note_on", "time": 0, "note": 71, "velocity": 103, "channel": 0}, {"type": "note_off", "time": 63, "note": 71, "velocity": 103, "channel": 0}, {"type": "note_on", "time": 9, "note": 67, "velocity": 101, "channel": 0}, {"type": "note_off", "time": 100, "note": 67, "velocity": 101, "channel": 0}, {"type": "note_on", "time": 5, "note": 64, "velocity": 96, "channel": 0}, {"type": "note_off", "time": 59, "note": 64, "velocity": 96, "channel": 0}, {"type": "note_on", "time": 11, "note": 70, "velocity": 108, "channel": 0}, {"type": "note_off", "time": 102, "note": 70, "velocity": 108, "channel": 0}, {"type": "note_on", "time": 0, "note": 68, "velocity": 107, "channel": 0}, {"type": "note_off", "time": 68, "note": 68, "velocity": 107, "channel": 0}, {"type": "note_on", "time": 21, "note": 63, "velocity": 109, "channel": 0}, {"type": "note_off", "time": 111, "note": 63, "velocity": 109, "channel": 0}, {"type": "note_on", "time": 88, "note": 58, "velocity": 99, "channel": 0}, {"type": "note_off", "time": 78, "note": 58, "velocity": 99, "channel": 0}, {"type": "note_on", "time": 0, "note": 63, "velocity": 113, "channel": 0}, {"type": "note_off", "time": 65, "note": 63, "velocity": 113, "channel": 0}, {"type": "note_on", "time": 11, "note": 58, "velocity": 95, "channel": 0}, {"type": "note_off", "time": 118, "note": 58, "velocity": 95, "channel": 0}, {"type": "note_on", "time": 87, "note": 63, "velocity": 106, "channel": 0}, {"type": "note_off", "time": 364, "note": 63, "velocity": 106, "channel": 0}, {"type": "note_on", "time": 520, "note": 63, "velocity": 102, "channel": 0}, {"type": "note_off", "time": 53, "note": 63, "velocity": 102, "channel": 0}, {"type": "note_on", "time": 16, "note": 68, "velocity": 106, "channel": 0}, {"type": "note_off", "time": 137, "note": 68, "velocity": 106, "channel": 0}, {"type": "note_on", "time": 48, "note": 75, "velocity": 117, "channel": 0}, {"type": "note_off", "time": 196, "note": 75, "velocity": 117, "channel": 0}, {"type": "note_on", "time": 14, "note": 73, "velocity": 106, "channel": 0}, {"type": "note_off", "time": 146, "note": 73, "velocity": 106, "channel": 0}, {"type": "note_on", "time": 35, "note": 75, "velocity": 108, "channel": 0}, {"type": "note_off", "time": 185, "note": 75, "velocity": 108, "channel": 0}, {"type": "note_on", "time": 9, "note": 73, "velocity": 114, "channel": 0}, {"type": "note_off", "time": 115, "note": 73, "velocity": 114, "channel": 0}, {"type": "note_on", "time": 37, "note": 71, "velocity": 110, "channel": 0}, {"type": "note_off", "time": 87, "note": 71, "velocity": 110, "channel": 0}, {"type": "note_on", "time": 89, "note": 68, "velocity": 88, "channel": 0}, {"type": "note_off", "time": 176, "note": 68, "velocity": 88, "channel": 0}, {"type": "note_on", "time": 200, "note": 63, "velocity": 117, "channel": 0}, {"type": "note_off", "time": 65, "note": 63, "velocity": 117, "channel": 0}, {"type": "note_on", "time": 14, "note": 68, "velocity": 109, "channel": 0}, {"type": "note_off", "time": 161, "note": 68, "velocity": 109, "channel": 0}, {"type": "note_on", "time": 20, "note": 75, "velocity": 109, "channel": 0}, {"type": "note_off", "time": 182, "note": 75, "velocity": 109, "channel": 0}, {"type": "note_on", "time": 18, "note": 73, "velocity": 105, "channel": 0}, {"type": "note_off", "time": 150, "note": 73, "velocity": 105, "channel": 0}, {"type": "note_on", "time": 26, "note": 75, "velocity": 110, "channel": 0}, {"type": "note_off", "time": 204, "note": 75, "velocity": 110, "channel": 0}, {"type": "note_on", "time": 16, "note": 73, "velocity": 113, "channel": 0}, {"type": "note_off", "time": 118, "note": 73, "velocity": 113, "channel": 0}, {"type": "note_on", "time": 5, "note": 75, "velocity": 106, "channel": 0}, {"type": "note_off", "time": 195, "note": 75, "velocity": 106, "channel": 0}, {"type": "note_on", "time": 59, "note": 77, "velocity": 96, "channel": 0}, {"type": "note_off", "time": 66, "note": 77, "velocity": 96, "channel": 0}, {"type": "note_on", "time": 22, "note": 78, "velocity": 111, "channel": 0}, {"type": "note_off", "time": 74, "note": 78, "velocity": 111, "channel": 0}, {"type": "note_on", "time": 16, "note": 80, "velocity": 114, "channel": 0}, {"type": "note_off", "time": 133, "note": 80, "velocity": 114, "channel": 0}, {"type": "note_on", "time": 7, "note": 77, "velocity": 96, "channel": 0}, {"type": "note_off", "time": 61, "note": 77, "velocity": 96, "channel": 0}, {"type": "note_on", "time": 5, "note": 75, "velocity": 108, "channel": 0}, {"type": "note_off", "time": 85, "note": 75, "velocity": 108, "channel": 0}, {"type": "note_on", "time": 20, "note": 73, "velocity": 108, "channel": 0}, {"type": "note_off", "time": 89, "note": 73, "velocity": 108, "channel": 0}, {"type": "note_on", "time": 14, "note": 70, "velocity": 97, "channel": 0}, {"type": "note_off", "time": 159, "note": 70, "velocity": 97, "channel": 0}, {"type": "note_on", "time": 11, "note": 63, "velocity": 96, "channel": 0}, {"type": "note_off", "time": 65, "note": 63, "velocity": 96, "channel": 0}, {"type": "note_on", "time": 7, "note": 65, "velocity": 91, "channel": 0}, {"type": "note_off", "time": 72, "note": 65, "velocity": 91, "channel": 0}, {"type": "note_on", "time": 29, "note": 70, "velocity": 111, "channel": 0}, {"type": "note_off", "time": 135, "note": 70, "velocity": 111, "channel": 0}, {"type": "note_on", "time": 9, "note": 68, "velocity": 105, "channel": 0}, {"type": "note_off", "time": 79, "note": 68, "velocity": 105, "channel": 0}, {"type": "note_on", "time": 11, "note": 64, "velocity": 101, "channel": 0}, {"type": "note_off", "time": 87, "note": 64, "velocity": 101, "channel": 0}, {"type": "note_on", "time": 13, "note": 61, "velocity": 92, "channel": 0}, {"type": "note_off", "time": 78, "note": 61, "velocity": 92, "channel": 0}, {"type": "note_on", "time": 7, "note": 58, "velocity": 96, "channel": 0}, {"type": "note_off", "time": 73, "note": 58, "velocity": 96, "channel": 0}, {"type": "note_on", "time": 26, "note": 61, "velocity": 103, "channel": 0}, {"type": "note_off", "time": 70, "note": 61, "velocity": 103, "channel": 0}, {"type": "note_on", "time": 18, "note": 61, "velocity": 107, "channel": 0}, {"type": "note_off", "time": 104, "note": 61, "velocity": 107, "channel": 0}, {"type": "note_on", "time": 10, "note": 60, "velocity": 106, "channel": 0}, {"type": "note_off", "time": 44, "note": 60, "velocity": 106, "channel": 0}, {"type": "note_on", "time": 26, "note": 60, "velocity": 93, "channel": 0}, {"type": "note_off", "time": 88, "note": 60, "velocity": 93, "channel": 0}, {"type": "note_on", "time": 5, "note": 60, "velocity": 103, "channel": 0}, {"type": "note_off", "time": 47, "note": 60, "velocity": 103, "channel": 0}, {"type": "note_on", "time": 18, "note": 60, "velocity": 95, "channel": 0}, {"type": "note_off", "time": 112, "note": 60, "velocity": 95, "channel": 0}, {"type": "note_on", "time": 28, "note": 63, "velocity": 98, "channel": 0}, {"type": "note_off", "time": 52, "note": 63, "velocity": 98, "channel": 0}, {"type": "note_on", "time": 11, "note": 68, "velocity": 113, "channel": 0}, {"type": "note_off", "time": 154, "note": 68, "velocity": 113, "channel": 0}, {"type": "note_on", "time": 39, "note": 75, "velocity": 110, "channel": 0}, {"type": "note_off", "time": 148, "note": 75, "velocity": 110, "channel": 0}, {"type": "note_on", "time": 37, "note": 80, "velocity": 110, "channel": 0}, {"type": "note_off", "time": 237, "note": 80, "velocity": 110, "channel": 0}, {"type": "note_on", "time": 529, "note": 64, "velocity": 100, "channel": 0}, {"type": "note_off", "time": 116, "note": 64, "velocity": 100, "channel": 0}, {"type": "note_on", "time": 10, "note": 65, "velocity": 98, "channel": 0}, {"type": "note_off", "time": 59, "note": 65, "velocity": 98, "channel": 0}, {"type": "note_on", "time": 2, "note": 68, "velocity": 117, "channel": 0}, {"type": "note_off", "time": 96, "note": 68, "velocity": 117, "channel": 0}, {"type": "note_on", "time": 23, "note": 70, "velocity": 108, "channel": 0}, {"type": "note_off", "time": 86, "note": 70, "velocity": 108, "channel": 0}, {"type": "note_on", "time": 10, "note": 72, "velocity": 107, "channel": 0}, {"type": "note_off", "time": 78, "note": 72, "velocity": 107, "channel": 0}, {"type": "note_on", "time": 23, "note": 77, "velocity": 103, "channel": 0}, {"type": "note_off", "time": 94, "note": 77, "velocity": 103, "channel": 0}, {"type": "note_on", "time": 5, "note": 72, "velocity": 96, "channel": 0}, {"type": "note_off", "time": 154, "note": 72, "velocity": 96, "channel": 0}, {"type": "note_on", "time": 2, "note": 71, "velocity": 101, "channel": 0}, {"type": "note_off", "time": 96, "note": 71, "velocity": 101, "channel": 0}, {"type": "note_on", "time": 23, "note": 77, "velocity": 94, "channel": 0}, {"type": "note_off", "time": 88, "note": 77, "velocity": 94, "channel": 0}, {"type": "note_on", "time": 18, "note": 71, "velocity": 96, "channel": 0}, {"type": "note_off", "time": 130, "note": 71, "velocity": 96, "channel": 0}, {"type": "note_on", "time": 13, "note": 70, "velocity": 108, "channel": 0}, {"type": "note_off", "time": 143, "note": 70, "velocity": 108, "channel": 0}, {"type": "note_on", "time": 7, "note": 77, "velocity": 92, "channel": 0}, {"type": "note_off", "time": 75, "note": 77, "velocity": 92, "channel": 0}, {"type": "note_on", "time": 0, "note": 70, "velocity": 97, "channel": 0}, {"type": "note_off", "time": 143, "note": 70, "velocity": 97, "channel": 0}, {"type": "note_on", "time": 15, "note": 68, "velocity": 111, "channel": 0}, {"type": "note_off", "time": 153, "note": 68, "velocity": 111, "channel": 0}, {"type": "note_on", "time": 0, "note": 77, "velocity": 113, "channel": 0}, {"type": "note_off", "time": 31, "note": 77, "velocity": 113, "channel": 0}, {"type": "note_on", "time": 13, "note": 68, "velocity": 106, "channel": 0}, {"type": "note_off", "time": 164, "note": 68, "velocity": 106, "channel": 0}, {"type": "note_on", "time": 20, "note": 67, "velocity": 98, "channel": 0}, {"type": "note_off", "time": 125, "note": 67, "velocity": 98, "channel": 0}, {"type": "note_on", "time": 10, "note": 77, "velocity": 100, "channel": 0}, {"type": "note_off", "time": 39, "note": 77, "velocity": 100, "channel": 0}, {"type": "note_on", "time": 18, "note": 67, "velocity": 96, "channel": 0}, {"type": "note_off", "time": 175, "note": 67, "velocity": 96, "channel": 0}, {"type": "note_on", "time": 0, "note": 65, "velocity": 95, "channel": 0}, {"type": "note_off", "time": 201, "note": 65, "velocity": 95, "channel": 0}, {"type": "note_on", "time": 49, "note": 65, "velocity": 106, "channel": 0}, {"type": "note_off", "time": 114, "note": 65, "velocity": 106, "channel": 0}, {"type": "note_on", "time": 7, "note": 67, "velocity": 102, "channel": 0}, {"type": "note_off", "time": 49, "note": 67, "velocity": 102, "channel": 0}, {"type": "note_on", "time": 13, "note": 68, "velocity": 103, "channel": 0}, {"type": "note_off", "time": 86, "note": 68, "velocity": 103, "channel": 0}, {"type": "note_on", "time": 5, "note": 70, "velocity": 110, "channel": 0}, {"type": "note_off", "time": 83, "note": 70, "velocity": 110, "channel": 0}, {"type": "note_on", "time": 10, "note": 67, "velocity": 100, "channel": 0}, {"type": "note_off", "time": 80, "note": 67, "velocity": 100, "channel": 0}, {"type": "note_on", "time": 15, "note": 68, "velocity": 120, "channel": 0}, {"type": "note_off", "time": 88, "note": 68, "velocity": 120, "channel": 0}, {"type": "note_on", "time": 13, "note": 65, "velocity": 88, "channel": 0}, {"type": "note_off", "time": 135, "note": 65, "velocity": 88, "channel": 0}, {"type": "note_on", "time": 41, "note": 63, "velocity": 108, "channel": 0}, {"type": "note_off", "time": 48, "note": 63, "velocity": 108, "channel": 0}, {"type": "note_on", "time": 9, "note": 68, "velocity": 112, "channel": 0}, {"type": "note_off", "time": 53, "note": 68, "velocity": 112, "channel": 0}, {"type": "note_on", "time": 9, "note": 71, "velocity": 90, "channel": 0}, {"type": "note_off", "time": 48, "note": 71, "velocity": 90, "channel": 0}, {"type": "note_on", "time": 8, "note": 78, "velocity": 114, "channel": 0}, {"type": "note_off", "time": 224, "note": 78, "velocity": 114, "channel": 0}, {"type": "note_on", "time": 7, "note": 75, "velocity": 105, "channel": 0}, {"type": "note_off", "time": 104, "note": 75, "velocity": 105, "channel": 0}, {"type": "note_on", "time": 5, "note": 73, "velocity": 101, "channel": 0}, {"type": "note_off", "time": 80, "note": 73, "velocity": 101, "channel": 0}, {"type": "note_on", "time": 10, "note": 71, "velocity": 98, "channel": 0}, {"type": "note_off", "time": 112, "note": 71, "velocity": 98, "channel": 0}, {"type": "note_on", "time": 18, "note": 68, "velocity": 110, "channel": 0}, {"type": "note_off", "time": 146, "note": 68, "velocity": 110, "channel": 0}, {"type": "note_on", "time": 15, "note": 66, "velocity": 107, "channel": 0}, {"type": "note_off", "time": 52, "note": 66, "velocity": 107, "channel": 0}, {"type": "note_on", "time": 0, "note": 68, "velocity": 121, "channel": 0}, {"type": "note_off", "time": 109, "note": 68, "velocity": 121, "channel": 0}, {"type": "note_on", "time": 2, "note": 66, "velocity": 106, "channel": 0}, {"type": "note_off", "time": 52, "note": 66, "velocity": 106, "channel": 0}, {"type": "note_on", "time": 15, "note": 68, "velocity": 108, "channel": 0}, {"type": "note_off", "time": 232, "note": 68, "velocity": 108, "channel": 0}, {"type": "note_on", "time": 0, "note": 70, "velocity": 110, "channel": 0}, {"type": "note_off", "time": 44, "note": 70, "velocity": 110, "channel": 0}, {"type": "note_on", "time": 5, "note": 73, "velocity": 109, "channel": 0}, {"type": "note_off", "time": 70, "note": 73, "velocity": 109, "channel": 0}, {"type": "note_on", "time": 0, "note": 78, "velocity": 122, "channel": 0}, {"type": "note_off", "time": 130, "note": 78, "velocity": 122, "channel": 0}, {"type": "note_on", "time": 15, "note": 76, "velocity": 98, "channel": 0}, {"type": "note_off", "time": 67, "note": 76, "velocity": 98, "channel": 0}, {"type": "note_on", "time": 18, "note": 73, "velocity": 102, "channel": 0}, {"type": "note_off", "time": 122, "note": 73, "velocity": 102, "channel": 0}, {"type": "note_on", "time": 0, "note": 71, "velocity": 99, "channel": 0}, {"type": "note_off", "time": 65, "note": 71, "velocity": 99, "channel": 0}, {"type": "note_on", "time": 5, "note": 68, "velocity": 104, "channel": 0}, {"type": "note_off", "time": 172, "note": 68, "velocity": 104, "channel": 0}, {"type": "note_on", "time": 26, "note": 67, "velocity": 111, "channel": 0}, {"type": "note_off", "time": 75, "note": 67, "velocity": 111, "channel": 0}, {"type": "note_on", "time": 13, "note": 71, "velocity": 107, "channel": 0}, {"type": "note_off", "time": 83, "note": 71, "velocity": 107, "channel": 0}, {"type": "note_on", "time": 0, "note": 64, "velocity": 99, "channel": 0}, {"type": "note_off", "time": 94, "note": 64, "velocity": 99, "channel": 0}, {"type": "note_on", "time": 13, "note": 63, "velocity": 117, "channel": 0}, {"type": "note_off", "time": 78, "note": 63, "velocity": 117, "channel": 0}, {"type": "note_on", "time": 13, "note": 59, "velocity": 109, "channel": 0}, {"type": "note_off", "time": 78, "note": 59, "velocity": 109, "channel": 0}, {"type": "note_on", "time": 23, "note": 63, "velocity": 108, "channel": 0}, {"type": "note_off", "time": 47, "note": 63, "velocity": 108, "channel": 0}, {"type": "note_on", "time": 31, "note": 59, "velocity": 111, "channel": 0}, {"type": "note_off", "time": 86, "note": 59, "velocity": 111, "channel": 0}, {"type": "note_on", "time": 15, "note": 63, "velocity": 104, "channel": 0}, {"type": "note_off", "time": 88, "note": 63, "velocity": 104, "channel": 0}, {"type": "note_on", "time": 112, "note": 60, "velocity": 115, "channel": 0}, {"type": "note_off", "time": 67, "note": 60, "velocity": 115, "channel": 0}, {"type": "note_on", "time": 7, "note": 63, "velocity": 112, "channel": 0}, {"type": "note_off", "time": 125, "note": 63, "velocity": 112, "channel": 0}, {"type": "note_on", "time": 52, "note": 68, "velocity": 115, "channel": 0}, {"type": "note_off", "time": 269, "note": 68, "velocity": 115, "channel": 0}, {"type": "note_on", "time": 532, "note": 63, "velocity": 108, "channel": 0}, {"type": "note_off", "time": 47, "note": 63, "velocity": 108, "channel": 0}, {"type": "note_on", "time": 0, "note": 68, "velocity": 114, "channel": 0}, {"type": "note_off", "time": 62, "note": 68, "velocity": 114, "channel": 0}, {"type": "note_on", "time": 7, "note": 72, "velocity": 107, "channel": 0}, {"type": "note_off", "time": 54, "note": 72, "velocity": 107, "channel": 0}, {"type": "note_on", "time": 7, "note": 75, "velocity": 120, "channel": 0}, {"type": "note_off", "time": 206, "note": 75, "velocity": 120, "channel": 0}, {"type": "note_on", "time": 161, "note": 63, "velocity": 106, "channel": 0}, {"type": "note_off", "time": 52, "note": 63, "velocity": 106, "channel": 0}, {"type": "note_on", "time": 20, "note": 68, "velocity": 110, "channel": 0}, {"type": "note_off", "time": 62, "note": 68, "velocity": 110, "channel": 0}, {"type": "note_on", "time": 0, "note": 72, "velocity": 110, "channel": 0}, {"type": "note_off", "time": 57, "note": 72, "velocity": 110, "channel": 0}, {"type": "note_on", "time": 18, "note": 75, "velocity": 117, "channel": 0}, {"type": "note_off", "time": 206, "note": 75, "velocity": 117, "channel": 0}, {"type": "note_on", "time": 177, "note": 63, "velocity": 116, "channel": 0}, {"type": "note_off", "time": 67, "note": 63, "velocity": 116, "channel": 0}, {"type": "note_on", "time": 5, "note": 68, "velocity": 117, "channel": 0}, {"type": "note_off", "time": 60, "note": 68, "velocity": 117, "channel": 0}, {"type": "note_on", "time": 2, "note": 72, "velocity": 100, "channel": 0}, {"type": "note_off", "time": 52, "note": 72, "velocity": 100, "channel": 0}, {"type": "note_on", "time": 13, "note": 75, "velocity": 118, "channel": 0}, {"type": "note_off", "time": 138, "note": 75, "velocity": 118, "channel": 0}, {"type": "note_on", "time": 6, "note": 74, "velocity": 111, "channel": 0}, {"type": "note_off", "time": 46, "note": 74, "velocity": 111, "channel": 0}, {"type": "note_on", "time": 4, "note": 73, "velocity": 107, "channel": 0}, {"type": "note_off", "time": 117, "note": 73, "velocity": 107, "channel": 0}, {"type": "note_on", "time": 5, "note": 71, "velocity": 100, "channel": 0}, {"type": "note_off", "time": 57, "note": 71, "velocity": 100, "channel": 0}, {"type": "note_on", "time": 14, "note": 72, "velocity": 114, "channel": 0}, {"type": "note_off", "time": 100, "note": 72, "velocity": 114, "channel": 0}, {"type": "note_on", "time": 7, "note": 60, "velocity": 114, "channel": 0}, {"type": "note_off", "time": 78, "note": 60, "velocity": 114, "channel": 0}, {"type": "note_on", "time": 9, "note": 65, "velocity": 106, "channel": 0}, {"type": "note_off", "time": 81, "note": 65, "velocity": 106, "channel": 0}, {"type": "note_on", "time": 16, "note": 68, "velocity": 118, "channel": 0}, {"type": "note_off", "time": 156, "note": 68, "velocity": 118, "channel": 0}, {"type": "note_on", "time": 24, "note": 65, "velocity": 89, "channel": 0}, {"type": "note_off", "time": 39, "note": 65, "velocity": 89, "channel": 0}, {"type": "note_on", "time": 24, "note": 68, "velocity": 118, "channel": 0}, {"type": "note_off", "time": 215, "note": 68, "velocity": 118, "channel": 0}, {"type": "note_on", "time": 154, "note": 68, "velocity": 121, "channel": 0}, {"type": "note_off", "time": 157, "note": 68, "velocity": 121, "channel": 0}, {"type": "note_on", "time": 27, "note": 68, "velocity": 127, "channel": 0}, {"type": "note_off", "time": 117, "note": 68, "velocity": 127, "channel": 0}, {"type": "note_on", "time": 102, "note": 71, "velocity": 118, "channel": 0}, {"type": "note_off", "time": 92, "note": 71, "velocity": 118, "channel": 0}, {"type": "note_on", "time": 13, "note": 68, "velocity": 94, "channel": 0}, {"type": "note_off", "time": 81, "note": 68, "velocity": 94, "channel": 0}, {"type": "note_on", "time": 14, "note": 65, "velocity": 103, "channel": 0}, {"type": "note_off", "time": 122, "note": 65, "velocity": 103, "channel": 0}, {"type": "note_on", "time": 50, "note": 63, "velocity": 102, "channel": 0}, {"type": "note_off", "time": 128, "note": 63, "velocity": 102, "channel": 0}, {"type": "note_on", "time": 177, "note": 68, "velocity": 120, "channel": 0}, {"type": "note_off", "time": 211, "note": 68, "velocity": 120, "channel": 0}, {"type": "note_on", "time": 245, "note": 68, "velocity": 126, "channel": 0}, {"type": "note_off", "time": 135, "note": 68, "velocity": 126, "channel": 0}, {"type": "note_on", "time": 65, "note": 68, "velocity": 123, "channel": 0}, {"type": "note_off", "time": 175, "note": 68, "velocity": 123, "channel": 0}, {"type": "note_on", "time": 0, "note": 71, "velocity": 115, "channel": 0}, {"type": "note_off", "time": 112, "note": 71, "velocity": 115, "channel": 0}, {"type": "note_on", "time": 10, "note": 68, "velocity": 93, "channel": 0}, {"type": "note_off", "time": 86, "note": 68, "velocity": 93, "channel": 0}, {"type": "note_on", "time": 13, "note": 65, "velocity": 104, "channel": 0}, {"type": "note_off", "time": 127, "note": 65, "velocity": 104, "channel": 0}, {"type": "note_on", "time": 1, "note": 64, "velocity": 94, "channel": 0}, {"type": "note_off", "time": 48, "note": 64, "velocity": 94, "channel": 0}, {"type": "note_on", "time": 3, "note": 63, "velocity": 119, "channel": 0}, {"type": "note_off", "time": 110, "note": 63, "velocity": 119, "channel": 0}, {"type": "note_on", "time": 32, "note": 68, "velocity": 114, "channel": 0}, {"type": "note_off", "time": 241, "note": 68, "velocity": 114, "channel": 0}, {"type": "note_on", "time": 41, "note": 71, "velocity": 113, "channel": 0}, {"type": "note_off", "time": 164, "note": 71, "velocity": 113, "channel": 0}, {"type": "note_on", "time": 213, "note": 68, "velocity": 115, "channel": 0}, {"type": "note_off", "time": 293, "note": 68, "velocity": 115, "channel": 0}, {"type": "note_on", "time": 10, "note": 71, "velocity": 119, "channel": 0}, {"type": "note_off", "time": 251, "note": 71, "velocity": 119, "channel": 0}, {"type": "note_on", "time": 198, "note": 68, "velocity": 98, "channel": 0}, {"type": "note_off", "time": 104, "note": 68, "velocity": 98, "channel": 0}, {"type": "note_on", "time": 40, "note": 68, "velocity": 110, "channel": 0}, {"type": "note_off", "time": 208, "note": 68, "velocity": 110, "channel": 0}, {"type": "note_on", "time": 18, "note": 71, "velocity": 112, "channel": 0}, {"type": "note_off", "time": 185, "note": 71, "velocity": 112, "channel": 0}, {"type": "note_on", "time": 229, "note": 68, "velocity": 118, "channel": 0}, {"type": "note_off", "time": 263, "note": 68, "velocity": 118, "channel": 0}, {"type": "note_on", "time": 26, "note": 71, "velocity": 116, "channel": 0}, {"type": "note_off", "time": 261, "note": 71, "velocity": 116, "channel": 0}, {"type": "note_on", "time": 326, "note": 68, "velocity": 109, "channel": 0}, {"type": "note_off", "time": 203, "note": 68, "velocity": 109, "channel": 0}, {"type": "note_on", "time": 54, "note": 71, "velocity": 114, "channel": 0}, {"type": "note_off", "time": 201, "note": 71, "velocity": 114, "channel": 0}, {"type": "note_on", "time": 190, "note": 63, "velocity": 118, "channel": 0}, {"type": "note_off", "time": 161, "note": 63, "velocity": 118, "channel": 0}, {"type": "note_on", "time": 28, "note": 63, "velocity": 123, "channel": 0}, {"type": "note_off", "time": 148, "note": 63, "velocity": 123, "channel": 0}, {"type": "note_on", "time": 39, "note": 63, "velocity": 114, "channel": 0}, {"type": "note_off", "time": 167, "note": 63, "velocity": 114, "channel": 0}, {"type": "note_on", "time": 54, "note": 61, "velocity": 112, "channel": 0}, {"type": "note_off", "time": 146, "note": 61, "velocity": 112, "channel": 0}, {"type": "note_on", "time": 28, "note": 60, "velocity": 110, "channel": 0}, {"type": "note_off", "time": 112, "note": 60, "velocity": 110, "channel": 0}, {"type": "note_on", "time": 73, "note": 60, "velocity": 108, "channel": 0}, {"type": "note_off", "time": 114, "note": 60, "velocity": 108, "channel": 0}, {"type": "note_on", "time": 1031, "note": 75, "velocity": 115, "channel": 0}, {"type": "note_off", "time": 101, "note": 75, "velocity": 115, "channel": 0}, {"type": "note_on", "time": 10, "note": 75, "velocity": 115, "channel": 0}, {"type": "note_off", "time": 175, "note": 75, "velocity": 115, "channel": 0}, {"type": "note_on", "time": 65, "note": 75, "velocity": 112, "channel": 0}, {"type": "note_off", "time": 245, "note": 75, "velocity": 112, "channel": 0}, {"type": "note_on", "time": 15, "note": 74, "velocity": 111, "channel": 0}, {"type": "note_off", "time": 167, "note": 74, "velocity": 111, "channel": 0}, {"type": "note_on", "time": 26, "note": 74, "velocity": 110, "channel": 0}, {"type": "note_off", "time": 180, "note": 74, "velocity": 110, "channel": 0}, {"type": "note_on", "time": 20, "note": 73, "velocity": 112, "channel": 0}, {"type": "note_off", "time": 159, "note": 73, "velocity": 112, "channel": 0}, {"type": "note_on", "time": 28, "note": 73, "velocity": 124, "channel": 0}, {"type": "note_on", "time": 127, "note": 72, "velocity": 108, "channel": 0}, {"type": "note_off", "time": 0, "note": 73, "velocity": 124, "channel": 0}, {"type": "note_off", "time": 143, "note": 72, "velocity": 108, "channel": 0}, {"type": "note_on", "time": 295, "note": 70, "velocity": 109, "channel": 0}, {"type": "note_off", "time": 167, "note": 70, "velocity": 109, "channel": 0}, {"type": "note_on", "time": 28, "note": 70, "velocity": 100, "channel": 0}, {"type": "note_off", "time": 135, "note": 70, "velocity": 100, "channel": 0}, {"type": "note_on", "time": 49, "note": 70, "velocity": 109, "channel": 0}, {"type": "note_off", "time": 180, "note": 70, "velocity": 109, "channel": 0}, {"type": "note_on", "time": 227, "note": 70, "velocity": 117, "channel": 0}, {"type": "note_off", "time": 125, "note": 70, "velocity": 117, "channel": 0}, {"type": "note_on", "time": 15, "note": 68, "velocity": 113, "channel": 0}, {"type": "note_off", "time": 75, "note": 68, "velocity": 113, "channel": 0}, {"type": "note_on", "time": 10, "note": 65, "velocity": 104, "channel": 0}, {"type": "note_off", "time": 78, "note": 65, "velocity": 104, "channel": 0}, {"type": "note_on", "time": 0, "note": 63, "velocity": 116, "channel": 0}, {"type": "note_off", "time": 222, "note": 63, "velocity": 116, "channel": 0}, {"type": "note_on", "time": 47, "note": 61, "velocity": 115, "channel": 0}, {"type": "note_off", "time": 167, "note": 61, "velocity": 115, "channel": 0}, {"type": "note_on", "time": 992, "note": 72, "velocity": 116, "channel": 0}, {"type": "note_off", "time": 135, "note": 72, "velocity": 116, "channel": 0}, {"type": "note_on", "time": 20, "note": 72, "velocity": 111, "channel": 0}, {"type": "note_off", "time": 182, "note": 72, "velocity": 111, "channel": 0}, {"type": "note_on", "time": 13, "note": 72, "velocity": 103, "channel": 0}, {"type": "note_off", "time": 130, "note": 72, "velocity": 103, "channel": 0}, {"type": "note_on", "time": 313, "note": 72, "velocity": 86, "channel": 0}, {"type": "note_off", "time": 131, "note": 72, "velocity": 86, "channel": 0}, {"type": "note_on", "time": 31, "note": 75, "velocity": 110, "channel": 0}, {"type": "note_off", "time": 174, "note": 75, "velocity": 110, "channel": 0}, {"type": "note_on", "time": 16, "note": 73, "velocity": 10, "channel": 0}, {"type": "note_off", "time": 98, "note": 73, "velocity": 10, "channel": 0}, {"type": "note_on", "time": 35, "note": 71, "velocity": 110, "channel": 0}, {"type": "note_off", "time": 89, "note": 71, "velocity": 110, "channel": 0}, {"type": "note_on", "time": 13, "note": 72, "velocity": 114, "channel": 0}, {"type": "note_off", "time": 78, "note": 72, "velocity": 114, "channel": 0}, {"type": "note_on", "time": 12, "note": 68, "velocity": 121, "channel": 0}, {"type": "note_off", "time": 117, "note": 68, "velocity": 121, "channel": 0}, {"type": "note_on", "time": 130, "note": 63, "velocity": 106, "channel": 0}, {"type": "note_off", "time": 125, "note": 63, "velocity": 106, "channel": 0}, {"type": "note_on", "time": 109, "note": 75, "velocity": 95, "channel": 0}, {"type": "note_off", "time": 99, "note": 75, "velocity": 95, "channel": 0}, {"type": "note_on", "time": 49, "note": 75, "velocity": 124, "channel": 0}, {"type": "note_off", "time": 120, "note": 75, "velocity": 124, "channel": 0}, {"type": "note_on", "time": 18, "note": 74, "velocity": 125, "channel": 0}, {"type": "note_off", "time": 66, "note": 74, "velocity": 125, "channel": 0}, {"type": "note_on", "time": 13, "note": 73, "velocity": 109, "channel": 0}, {"type": "note_off", "time": 118, "note": 73, "velocity": 109, "channel": 0}, {"type": "note_on", "time": 0, "note": 72, "velocity": 96, "channel": 0}, {"type": "note_off", "time": 46, "note": 72, "velocity": 96, "channel": 0}, {"type": "note_on", "time": 0, "note": 77, "velocity": 106, "channel": 0}, {"type": "note_off", "time": 178, "note": 77, "velocity": 106, "channel": 0}, {"type": "note_on", "time": 24, "note": 68, "velocity": 113, "channel": 0}, {"type": "note_off", "time": 118, "note": 68, "velocity": 113, "channel": 0}, {"type": "note_on", "time": 1, "note": 70, "velocity": 101, "channel": 0}, {"type": "note_off", "time": 48, "note": 70, "velocity": 101, "channel": 0}, {"type": "note_on", "time": 14, "note": 72, "velocity": 109, "channel": 0}, {"type": "note_off", "time": 79, "note": 72, "velocity": 109, "channel": 0}, {"type": "note_on", "time": 20, "note": 78, "velocity": 112, "channel": 0}, {"type": "note_off", "time": 161, "note": 78, "velocity": 112, "channel": 0}, {"type": "note_on", "time": 7, "note": 77, "velocity": 103, "channel": 0}, {"type": "note_off", "time": 63, "note": 77, "velocity": 103, "channel": 0}, {"type": "note_on", "time": 3, "note": 75, "velocity": 104, "channel": 0}, {"type": "note_off", "time": 50, "note": 75, "velocity": 104, "channel": 0}, {"type": "note_on", "time": 11, "note": 78, "velocity": 112, "channel": 0}, {"type": "note_off", "time": 219, "note": 78, "velocity": 112, "channel": 0}, {"type": "note_on", "time": 14, "note": 75, "velocity": 98, "channel": 0}, {"type": "note_off", "time": 44, "note": 75, "velocity": 98, "channel": 0}, {"type": "note_on", "time": 16, "note": 78, "velocity": 119, "channel": 0}, {"type": "note_off", "time": 174, "note": 78, "velocity": 119, "channel": 0}, {"type": "note_on", "time": 9, "note": 77, "velocity": 110, "channel": 0}, {"type": "note_off", "time": 61, "note": 77, "velocity": 110, "channel": 0}, {"type": "note_on", "time": 5, "note": 75, "velocity": 98, "channel": 0}, {"type": "note_on", "time": 35, "note": 78, "velocity": 125, "channel": 0}, {"type": "note_off", "time": 0, "note": 75, "velocity": 98, "channel": 0}, {"type": "note_off", "time": 146, "note": 78, "velocity": 125, "channel": 0}, {"type": "note_on", "time": 3, "note": 77, "velocity": 111, "channel": 0}, {"type": "note_off", "time": 53, "note": 77, "velocity": 111, "channel": 0}, {"type": "note_on", "time": 13, "note": 75, "velocity": 110, "channel": 0}, {"type": "note_off", "time": 107, "note": 75, "velocity": 110, "channel": 0}, {"type": "note_on", "time": 37, "note": 85, "velocity": 122, "channel": 0}, {"type": "note_off", "time": 122, "note": 85, "velocity": 122, "channel": 0}, {"type": "note_on", "time": 11, "note": 83, "velocity": 97, "channel": 0}, {"type": "note_off", "time": 72, "note": 83, "velocity": 97, "channel": 0}, {"type": "note_on", "time": 1, "note": 80, "velocity": 110, "channel": 0}, {"type": "note_off", "time": 115, "note": 80, "velocity": 110, "channel": 0}, {"type": "note_on", "time": 11, "note": 77, "velocity": 89, "channel": 0}, {"type": "note_off", "time": 85, "note": 77, "velocity": 89, "channel": 0}, {"type": "note_on", "time": 1, "note": 73, "velocity": 117, "channel": 0}, {"type": "note_off", "time": 109, "note": 73, "velocity": 117, "channel": 0}, {"type": "note_on", "time": 1, "note": 71, "velocity": 98, "channel": 0}, {"type": "note_off", "time": 53, "note": 71, "velocity": 98, "channel": 0}, {"type": "note_on", "time": 14, "note": 68, "velocity": 119, "channel": 0}, {"type": "note_off", "time": 76, "note": 68, "velocity": 119, "channel": 0}, {"type": "note_on", "time": 22, "note": 67, "velocity": 113, "channel": 0}, {"type": "note_off", "time": 66, "note": 67, "velocity": 113, "channel": 0}, {"type": "note_on", "time": 5, "note": 73, "velocity": 121, "channel": 0}, {"type": "note_off", "time": 131, "note": 73, "velocity": 121, "channel": 0}, {"type": "note_on", "time": 9, "note": 72, "velocity": 116, "channel": 0}, {"type": "note_off", "time": 59, "note": 72, "velocity": 116, "channel": 0}, {"type": "note_on", "time": 18, "note": 68, "velocity": 113, "channel": 0}, {"type": "note_off", "time": 161, "note": 68, "velocity": 113, "channel": 0}, {"type": "note_on", "time": 31, "note": 56, "velocity": 118, "channel": 0}, {"type": "note_off", "time": 67, "note": 56, "velocity": 118, "channel": 0}, {"type": "note_on", "time": 0, "note": 61, "velocity": 106, "channel": 0}, {"type": "note_off", "time": 36, "note": 61, "velocity": 106, "channel": 0}, {"type": "note_on", "time": 13, "note": 65, "velocity": 86, "channel": 0}, {"type": "note_off", "time": 47, "note": 65, "velocity": 86, "channel": 0}, {"type": "note_on", "time": 4, "note": 68, "velocity": 118, "channel": 0}, {"type": "note_off", "time": 143, "note": 68, "velocity": 118, "channel": 0}, {"type": "note_on", "time": 27, "note": 62, "velocity": 112, "channel": 0}, {"type": "note_off", "time": 76, "note": 62, "velocity": 112, "channel": 0}, {"type": "note_on", "time": 22, "note": 65, "velocity": 109, "channel": 0}, {"type": "note_off", "time": 53, "note": 65, "velocity": 109, "channel": 0}, {"type": "note_on", "time": 0, "note": 68, "velocity": 112, "channel": 0}, {"type": "note_on", "time": 63, "note": 72, "velocity": 124, "channel": 0}, {"type": "note_off", "time": 0, "note": 68, "velocity": 112, "channel": 0}, {"type": "note_off", "time": 176, "note": 72, "velocity": 124, "channel": 0}, {"type": "note_on", "time": 130, "note": 72, "velocity": 120, "channel": 0}, {"type": "note_off", "time": 235, "note": 72, "velocity": 120, "channel": 0}, {"type": "note_on", "time": 33, "note": 62, "velocity": 107, "channel": 0}, {"type": "note_off", "time": 46, "note": 62, "velocity": 107, "channel": 0}, {"type": "note_on", "time": 0, "note": 65, "velocity": 108, "channel": 0}, {"type": "note_off", "time": 40, "note": 65, "velocity": 108, "channel": 0}, {"type": "note_on", "time": 13, "note": 66, "velocity": 121, "channel": 0}, {"type": "note_off", "time": 63, "note": 66, "velocity": 121, "channel": 0}, {"type": "note_on", "time": 20, "note": 75, "velocity": 119, "channel": 0}, {"type": "note_off", "time": 208, "note": 75, "velocity": 119, "channel": 0}, {"type": "note_on", "time": 18, "note": 61, "velocity": 112, "channel": 0}, {"type": "note_off", "time": 42, "note": 61, "velocity": 112, "channel": 0}, {"type": "note_on", "time": 13, "note": 65, "velocity": 117, "channel": 0}, {"type": "note_off", "time": 33, "note": 65, "velocity": 117, "channel": 0}, {"type": "note_on", "time": 7, "note": 68, "velocity": 118, "channel": 0}, {"type": "note_off", "time": 40, "note": 68, "velocity": 118, "channel": 0}, {"type": "note_on", "time": 16, "note": 73, "velocity": 118, "channel": 0}, {"type": "note_off", "time": 198, "note": 73, "velocity": 118, "channel": 0}, {"type": "note_on", "time": 20, "note": 75, "velocity": 123, "channel": 0}, {"type": "note_off", "time": 120, "note": 75, "velocity": 123, "channel": 0}, {"type": "note_on", "time": 19, "note": 71, "velocity": 114, "channel": 0}, {"type": "note_off", "time": 78, "note": 71, "velocity": 114, "channel": 0}, {"type": "note_on", "time": 2, "note": 67, "velocity": 109, "channel": 0}, {"type": "note_off", "time": 78, "note": 67, "velocity": 109, "channel": 0}, {"type": "note_on", "time": 12, "note": 63, "velocity": 117, "channel": 0}, {"type": "note_off", "time": 94, "note": 63, "velocity": 117, "channel": 0}, {"type": "note_on", "time": 16, "note": 59, "velocity": 113, "channel": 0}, {"type": "note_off", "time": 76, "note": 59, "velocity": 113, "channel": 0}, {"type": "note_on", "time": 20, "note": 63, "velocity": 112, "channel": 0}, {"type": "note_off", "time": 65, "note": 63, "velocity": 112, "channel": 0}, {"type": "note_on", "time": 3, "note": 67, "velocity": 111, "channel": 0}, {"type": "note_off", "time": 100, "note": 67, "velocity": 111, "channel": 0}, {"type": "note_on", "time": 52, "note": 71, "velocity": 124, "channel": 0}, {"type": "note_off", "time": 222, "note": 71, "velocity": 124, "channel": 0}, {"type": "note_on", "time": 11, "note": 68, "velocity": 115, "channel": 0}, {"type": "note_off", "time": 163, "note": 68, "velocity": 115, "channel": 0}, {"type": "note_on", "time": 608, "note": 73, "velocity": 117, "channel": 0}, {"type": "note_off", "time": 156, "note": 73, "velocity": 117, "channel": 0}, {"type": "note_on", "time": 28, "note": 73, "velocity": 120, "channel": 0}, {"type": "note_off", "time": 159, "note": 73, "velocity": 120, "channel": 0}, {"type": "note_on", "time": 26, "note": 73, "velocity": 119, "channel": 0}, {"type": "note_off", "time": 83, "note": 73, "velocity": 119, "channel": 0}, {"type": "note_on", "time": 18, "note": 75, "velocity": 111, "channel": 0}, {"type": "note_off", "time": 169, "note": 75, "velocity": 111, "channel": 0}, {"type": "note_on", "time": 57, "note": 72, "velocity": 107, "channel": 0}, {"type": "note_off", "time": 99, "note": 72, "velocity": 107, "channel": 0}, {"type": "note_on", "time": 739, "note": 73, "velocity": 116, "channel": 0}, {"type": "note_off", "time": 120, "note": 73, "velocity": 116, "channel": 0}, {"type": "note_on", "time": 57, "note": 73, "velocity": 114, "channel": 0}, {"type": "note_off", "time": 141, "note": 73, "velocity": 114, "channel": 0}, {"type": "note_on", "time": 18, "note": 72, "velocity": 119, "channel": 0}, {"type": "note_off", "time": 39, "note": 72, "velocity": 119, "channel": 0}, {"type": "note_on", "time": 18, "note": 73, "velocity": 124, "channel": 0}, {"type": "note_off", "time": 104, "note": 73, "velocity": 124, "channel": 0}, {"type": "note_on", "time": 10, "note": 75, "velocity": 109, "channel": 0}, {"type": "note_off", "time": 99, "note": 75, "velocity": 109, "channel": 0}, {"type": "note_on", "time": 44, "note": 73, "velocity": 121, "channel": 0}, {"type": "note_off", "time": 60, "note": 73, "velocity": 121, "channel": 0}, {"type": "note_on", "time": 7, "note": 71, "velocity": 109, "channel": 0}, {"type": "note_off", "time": 31, "note": 71, "velocity": 109, "channel": 0}, {"type": "note_on", "time": 0, "note": 68, "velocity": 115, "channel": 0}, {"type": "note_off", "time": 112, "note": 68, "velocity": 115, "channel": 0}, {"type": "note_on", "time": 188, "note": 68, "velocity": 120, "channel": 0}, {"type": "note_off", "time": 198, "note": 68, "velocity": 120, "channel": 0}, {"type": "note_on", "time": 274, "note": 63, "velocity": 124, "channel": 0}, {"type": "note_off", "time": 55, "note": 63, "velocity": 124, "channel": 0}, {"type": "note_on", "time": 13, "note": 67, "velocity": 113, "channel": 0}, {"type": "note_off", "time": 50, "note": 67, "velocity": 113, "channel": 0}, {"type": "note_on", "time": 5, "note": 70, "velocity": 109, "channel": 0}, {"type": "note_off", "time": 63, "note": 70, "velocity": 109, "channel": 0}, {"type": "note_on", "time": 16, "note": 75, "velocity": 123, "channel": 0}, {"type": "note_off", "time": 175, "note": 75, "velocity": 123, "channel": 0}, {"type": "note_on", "time": 33, "note": 73, "velocity": 118, "channel": 0}, {"type": "note_off", "time": 78, "note": 73, "velocity": 118, "channel": 0}, {"type": "note_on", "time": 10, "note": 71, "velocity": 109, "channel": 0}, {"type": "note_off", "time": 57, "note": 71, "velocity": 109, "channel": 0}, {"type": "note_on", "time": 18, "note": 72, "velocity": 106, "channel": 0}, {"type": "note_off", "time": 203, "note": 72, "velocity": 106, "channel": 0}, {"type": "note_on", "time": 15, "note": 71, "velocity": 110, "channel": 0}, {"type": "note_off", "time": 67, "note": 71, "velocity": 110, "channel": 0}, {"type": "note_on", "time": 20, "note": 76, "velocity": 112, "channel": 0}, {"type": "note_off", "time": 99, "note": 76, "velocity": 112, "channel": 0}, {"type": "note_on", "time": 5, "note": 71, "velocity": 115, "channel": 0}, {"type": "note_off", "time": 65, "note": 71, "velocity": 115, "channel": 0}, {"type": "note_on", "time": 0, "note": 70, "velocity": 118, "channel": 0}, {"type": "note_off", "time": 94, "note": 70, "velocity": 118, "channel": 0}, {"type": "note_on", "time": 20, "note": 68, "velocity": 121, "channel": 0}, {"type": "note_off", "time": 125, "note": 68, "velocity": 121, "channel": 0}, {"type": "note_on", "time": 80, "note": 58, "velocity": 112, "channel": 0}, {"type": "note_off", "time": 112, "note": 58, "velocity": 112, "channel": 0}, {"type": "note_on", "time": 0, "note": 63, "velocity": 121, "channel": 0}, {"type": "note_off", "time": 169, "note": 63, "velocity": 121, "channel": 0}, {"type": "note_on", "time": 78, "note": 65, "velocity": 119, "channel": 0}, {"type": "note_off", "time": 99, "note": 65, "velocity": 119, "channel": 0}, {"type": "note_on", "time": 23, "note": 68, "velocity": 108, "channel": 0}, {"type": "note_off", "time": 289, "note": 68, "velocity": 108, "channel": 0}, {"type": "end_of_track", "time": 0}]]}