{"ticks_per_beat": 192, "tracks": [[{"type": "track_name", "name": "Melody", "time": 0}, {"type": "set_tempo", "tempo": 247933, "time": 0}, {"type": "key_signature", "key": "Eb", "time": 0}, {"type": "time_signature", "numerator": 4, "denominator": 4, "clocks_per_click": 24, "notated_32nd_notes_per_beat": 8, "time": 0}, {"type": "note_on", "time": 3722, "note": 77, "velocity": 114, "channel": 0}, {"type": "note_off", "time": 107, "note": 77, "velocity": 114, "channel": 0}, {"type": "note_on", "time": 8, "note": 74, "velocity": 98, "channel": 0}, {"type": "note_off", "time": 62, "note": 74, "velocity": 98, "channel": 0}, {"type": "note_on", "time": 26, "note": 68, "velocity": 96, "channel": 0}, {"type": "note_off", "time": 56, "note": 68, "velocity": 96, "channel": 0}, {"type": "note_on", "time": 24, "note": 74, "velocity": 87, "channel": 0}, {"type": "note_off", "time": 45, "note": 74, "velocity": 87, "channel": 0}, {"type": "note_on", "time": 62, "note": 79, "velocity": 111, "channel": 0}, {"type": "note_off", "time": 125, "note": 79, "velocity": 111, "channel": 0}, {"type": "note_on", "time": 13, "note": 74, "velocity": 105, "channel": 0}, {"type": "note_off", "time": 48, "note": 74, "velocity": 105, "channel": 0}, {"type": "note_on", "time": 13, "note": 68, "velocity": 98, "channel": 0}, {"type": "note_off", "time": 78, "note": 68, "velocity": 98, "channel": 0}, {"type": "note_on", "time": 15, "note": 74, "velocity": 93, "channel": 0}, {"type": "note_off", "time": 25, "note": 74, "velocity": 93, "channel": 0}, {"type": "note_on", "time": 37, "note": 80, "velocity": 108, "channel": 0}, {"type": "note_off", "time": 158, "note": 80, "velocity": 108, "channel": 0}, {"type": "note_on", "time": 23, "note": 74, "velocity": 93, "channel": 0}, {"type": "note_off", "time": 45, "note": 74, "velocity": 93, "channel": 0}, {"type": "note_on", "time": 24, "note": 68, "velocity": 96, "channel": 0}, {"type": "note_off", "time": 71, "note": 68, "velocity": 96, "channel": 0}, {"type": "note_on", "time": 4, "note": 74, "velocity": 102, "channel": 0}, {"type": "note_off", "time": 42, "note": 74, "velocity": 102, "channel": 0}, {"type": "note_on", "time": 17, "note": 82, "velocity": 101, "channel": 0}, {"type": "note_off", "time": 154, "note": 82, "velocity": 101, "channel": 0}, {"type": "note_on", "time": 9, "note": 74, "velocity": 88, "channel": 0}, {"type": "note_off", "time": 41, "note": 74, "velocity": 88, "channel": 0}, {"type": "note_on", "time": 30, "note": 68, "velocity": 98, "channel": 0}, {"type": "note_off", "time": 71, "note": 68, "velocity": 98, "channel": 0}, {"type": "note_on", "time": 13, "note": 74, "velocity": 103, "channel": 0}, {"type": "note_off", "time": 58, "note": 74, "velocity": 103, "channel": 0}, {"type": "note_on", "time": 18, "note": 80, "velocity": 107, "channel": 0}, {"type": "note_off", "time": 134, "note": 80, "velocity": 107, "channel": 0}, {"type": "note_on", "time": 26, "note": 74, "velocity": 101, "channel": 0}, {"type": "note_off", "time": 55, "note": 74, "velocity": 101, "channel": 0}, {"type": "note_on", "time": 27, "note": 68, "velocity": 90, "channel": 0}, {"type": "note_off", "time": 78, "note": 68, "velocity": 90, "channel": 0}, {"type": "note_on", "time": 11, "note": 74, "velocity": 111, "channel": 0}, {"type": "note_off", "time": 60, "note": 74, "velocity": 111, "channel": 0}, {"type": "note_on", "time": 23, "note": 79, "velocity": 105, "channel": 0}, {"type": "note_off", "time": 170, "note": 79, "velocity": 105, "channel": 0}, {"type": "note_on", "time": 85, "note": 77, "velocity": 108, "channel": 0}, {"type": "note_off", "time": 199, "note": 77, "velocity": 108, "channel": 0}, {"type": "note_on", "time": 69, "note": 87, "velocity": 98, "channel": 0}, {"type": "note_off", "time": 135, "note": 87, "velocity": 98, "channel": 0}, {"type": "note_on", "time": 39, "note": 81, "velocity": 97, "channel": 0}, {"type": "note_off", "time": 80, "note": 81, "velocity": 97, "channel": 0}, {"type": "note_on", "time": 4, "note": 80, "velocity": 90, "channel": 0}, {"type": "note_off", "time": 101, "note": 80, "velocity": 90, "channel": 0}, {"type": "note_on", "time": 38, "note": 82, "velocity": 111, "channel": 0}, {"type": "note_off", "time": 116, "note": 82, "velocity": 111, "channel": 0}, {"type": "note_on", "time": 22, "note": 79, "velocity": 83, "channel": 0}, {"type": "note_off", "time": 67, "note": 79, "velocity": 83, "channel": 0}, {"type": "note_on", "time": 22, "note": 75, "velocity": 90, "channel": 0}, {"type": "note_off", "time": 105, "note": 75, "velocity": 90, "channel": 0}, {"type": "note_on", "time": 67, "note": 70, "velocity": 94, "channel": 0}, {"type": "note_off", "time": 132, "note": 70, "velocity": 94, "channel": 0}, {"type": "note_on", "time": 35, "note": 70, "velocity": 103, "channel": 0}, {"type": "note_off", "time": 164, "note": 70, "velocity": 103, "channel": 0}, {"type": "note_on", "time": 422, "note": 67, "velocity": 93, "channel": 0}, {"type": "note_off", "time": 78, "note": 67, "velocity": 93, "channel": 0}, {"type": "note_on", "time": 15, "note": 70, "velocity": 102, "channel": 0}, {"type": "note_off", "time": 38, "note": 70, "velocity": 102, "channel": 0}, {"type": "note_on", "time": 15, "note": 71, "velocity": 108, "channel": 0}, {"type": "note_off", "time": 35, "note": 71, "velocity": 108, "channel": 0}, {"type": "note_on", "time": 8, "note": 82, "velocity": 107, "channel": 0}, {"type": "note_off", "time": 139, "note": 82, "velocity": 107, "channel": 0}, {"type": "note_on", "time": 67, "note": 80, "velocity": 117, "channel": 0}, {"type": "note_off", "time": 150, "note": 80, "velocity": 117, "channel": 0}, {"type": "note_on", "time": 44, "note": 79, "velocity": 100, "channel": 0}, {"type": "note_off", "time": 157, "note": 79, "velocity": 100, "channel": 0}, {"type": "note_on", "time": 11, "note": 75, "velocity": 95, "channel": 0}, {"type": "note_off", "time": 49, "note": 75, "velocity": 95, "channel": 0}, {"type": "note_on", "time": 20, "note": 70, "velocity": 101, "channel": 0}, {"type": "note_off", "time": 119, "note": 70, "velocity": 101, "channel": 0}, {"type": "note_on", "time": 47, "note": 63, "velocity": 91, "channel": 0}, {"type": "note_off", "time": 191, "note": 63, "velocity": 91, "channel": 0}, {"type": "note_on", "time": 279, "note": 58, "velocity": 71, "channel": 0}, {"type": "note_off", "time": 64, "note": 58, "velocity": 71, "channel": 0}, {"type": "note_on", "time": 16, "note": 61, "velocity": 98, "channel": 0}, {"type": "note_off", "time": 134, "note": 61, "velocity": 98, "channel": 0}, {"type": "note_on", "time": 24, "note": 64, "velocity": 108, "channel": 0}, {"type": "note_off", "time": 139, "note": 64, "velocity": 108, "channel": 0}, {"type": "note_on", "time": 20, "note": 68, "velocity": 105, "channel": 0}, {"type": "note_off", "time": 43, "note": 68, "velocity": 105, "channel": 0}, {"type": "note_on", "time": 21, "note": 73, "velocity": 116, "channel": 0}, {"type": "note_off", "time": 75, "note": 73, "velocity": 116, "channel": 0}, {"type": "note_on", "time": 119, "note": 75, "velocity": 105, "channel": 0}, {"type": "note_off", "time": 93, "note": 75, "velocity": 105, "channel": 0}, {"type": "note_on", "time": 15, "note": 74, "velocity": 107, "channel": 0}, {"type": "note_off", "time": 77, "note": 74, "velocity": 107, "channel": 0}, {"type": "note_on", "time": 25, "note": 73, "velocity": 102, "channel": 0}, {"type": "note_off", "time": 77, "note": 73, "velocity": 102, "channel": 0}, {"type": "note_on", "time": 20, "note": 74, "velocity": 88, "channel": 0}, {"type": "note_off", "time": 72, "note": 74, "velocity": 88, "channel": 0}, {"type": "note_on", "time": 12, "note": 75, "velocity": 102, "channel": 0}, {"type": "note_off", "time": 120, "note": 75, "velocity": 102, "channel": 0}, {"type": "note_on", "time": 15, "note": 74, "velocity": 92, "channel": 0}, {"type": "note_off", "time": 71, "note": 74, "velocity": 92, "channel": 0}, {"type": "note_on", "time": 23, "note": 73, "velocity": 92, "channel": 0}, {"type": "note_off", "time": 74, "note": 73, "velocity": 92, "channel": 0}, {"type": "note_on", "time": 7, "note": 74, "velocity": 93, "channel": 0}, {"type": "note_off", "time": 69, "note": 74, "velocity": 93, "channel": 0}, {"type": "note_on", "time": 17, "note": 75, "velocity": 103, "channel": 0}, {"type": "note_off", "time": 140, "note": 75, "velocity": 103, "channel": 0}, {"type": "note_on", "time": 15, "note": 74, "velocity": 101, "channel": 0}, {"type": "note_off", "time": 50, "note": 74, "velocity": 101, "channel": 0}, {"type": "note_on", "time": 14, "note": 73, "velocity": 88, "channel": 0}, {"type": "note_off", "time": 47, "note": 73, "velocity": 88, "channel": 0}, {"type": "note_on", "time": 31, "note": 80, "velocity": 119, "channel": 0}, {"type": "note_off", "time": 230, "note": 80, "velocity": 119, "channel": 0}, {"type": "note_on", "time": 50, "note": 75, "velocity": 111, "channel": 0}, {"type": "note_off", "time": 69, "note": 75, "velocity": 111, "channel": 0}, {"type": "note_on", "time": 11, "note": 74, "velocity": 112, "channel": 0}, {"type": "note_off", "time": 50, "note": 74, "velocity": 112, "channel": 0}, {"type": "note_on", "time": 17, "note": 73, "velocity": 105, "channel": 0}, {"type": "note_off", "time": 83, "note": 73, "velocity": 105, "channel": 0}, {"type": "note_on", "time": 126, "note": 68, "velocity": 95, "channel": 0}, {"type": "note_off", "time": 156, "note": 68, "velocity": 95, "channel": 0}, {"type": "note_on", "time": 39, "note": 68, "velocity": 110, "channel": 0}, {"type": "note_off", "time": 134, "note": 68, "velocity": 110, "channel": 0}, {"type": "note_on", "time": 14, "note": 67, "velocity": 97, "channel": 0}, {"type": "note_off", "time": 67, "note": 67, "velocity": 97, "channel": 0}, {"type": "note_on", "time": 15, "note": 65, "velocity": 101, "channel": 0}, {"type": "note_off", "time": 63, "note": 65, "velocity": 101, "channel": 0}, {"type": "note_on", "time": 9, "note": 67, "velocity": 84, "channel": 0}, {"type": "note_off", "time": 60, "note": 67, "velocity": 84, "channel": 0}, {"type": "note_on", "time": 26, "note": 70, "velocity": 102, "channel": 0}, {"type": "note_off", "time": 276, "note": 70, "velocity": 102, "channel": 0}, {"type": "note_on", "time": 39, "note": 70, "velocity": 110, "channel": 0}, {"type": "note_off", "time": 243, "note": 70, "velocity": 110, "channel": 0}, {"type": "note_on", "time": 30, "note": 70, "velocity": 98, "channel": 0}, {"type": "note_off", "time": 214, "note": 70, "velocity": 98, "channel": 0}, {"type": "note_on", "time": 161, "note": 82, "velocity": 113, "channel": 0}, {"type": "note_off", "time": 202, "note": 82, "velocity": 113, "channel": 0}, {"type": "note_on", "time": 25, "note": 81, "velocity": 102, "channel": 0}, {"type": "note_off", "time": 77, "note": 81, "velocity": 102, "channel": 0}, {"type": "note_on", "time": 9, "note": 80, "velocity": 106, "channel": 0}, {"type": "note_off", "time": 97, "note": 80, "velocity": 106, "channel": 0}, {"type": "note_on", "time": 178, "note": 80, "velocity": 112, "channel": 0}, {"type": "note_off", "time": 170, "note": 80, "velocity": 112, "channel": 0}, {"type": "note_on", "time": 18, "note": 79, "velocity": 92, "channel": 0}, {"type": "note_off", "time": 177, "note": 79, "velocity": 92, "channel": 0}, {"type": "note_on", "time": 18, "note": 80, "velocity": 104, "channel": 0}, {"type": "note_off", "time": 195, "note": 80, "velocity": 104, "channel": 0}, {"type": "note_on", "time": 17, "note": 75, "velocity": 93, "channel": 0}, {"type": "note_off", "time": 140, "note": 75, "velocity": 93, "channel": 0}, {"type": "note_on", "time": 17, "note": 75, "velocity": 96, "channel": 0}, {"type": "note_off", "time": 153, "note": 75, "velocity": 96, "channel": 0}, {"type": "note_on", "time": 33, "note": 70, "velocity": 91, "channel": 0}, {"type": "note_off", "time": 60, "note": 70, "velocity": 91, "channel": 0}, {"type": "note_on", "time": 34, "note": 67, "velocity": 97, "channel": 0}, {"type": "note_off", "time": 113, "note": 67, "velocity": 97, "channel": 0}, {"type": "note_on", "time": 630, "note": 63, "velocity": 91, "channel": 0}, {"type": "note_off", "time": 82, "note": 63, "velocity": 91, "channel": 0}, {"type": "note_on", "time": 9, "note": 65, "velocity": 90, "channel": 0}, {"type": "note_off", "time": 36, "note": 65, "velocity": 90, "channel": 0}, {"type": "note_on", "time": 17, "note": 70, "velocity": 108, "channel": 0}, {"type": "note_off", "time": 169, "note": 70, "velocity": 108, "channel": 0}, {"type": "note_on", "time": 30, "note": 68, "velocity": 101, "channel": 0}, {"type": "note_off", "time": 181, "note": 68, "velocity": 101, "channel": 0}, {"type": "note_on", "time": 64, "note": 65, "velocity": 85, "channel": 0}, {"type": "note_off", "time": 94, "note": 65, "velocity": 85, "channel": 0}, {"type": "note_on", "time": 36, "note": 68, "velocity": 117, "channel": 0}, {"type": "note_off", "time": 180, "note": 68, "velocity": 117, "channel": 0}, {"type": "note_on", "time": 34, "note": 67, "velocity": 94, "channel": 0}, {"type": "note_off", "time": 177, "note": 67, "velocity": 94, "channel": 0}, {"type": "note_on", "time": 249, "note": 60, "velocity": 79, "channel": 0}, {"type": "note_off", "time": 97, "note": 60, "velocity": 79, "channel": 0}, {"type": "note_on", "time": 48, "note": 67, "velocity": 100, "channel": 0}, {"type": "note_off", "time": 91, "note": 67, "velocity": 100, "channel": 0}, {"type": "note_on", "time": 22, "note": 70, "velocity": 85, "channel": 0}, {"type": "note_off", "time": 50, "note": 70, "velocity": 85, "channel": 0}, {"type": "note_on", "time": 22, "note": 74, "velocity": 119, "channel": 0}, {"type": "note_off", "time": 131, "note": 74, "velocity": 119, "channel": 0}, {"type": "note_on", "time": 48, "note": 74, "velocity": 114, "channel": 0}, {"type": "note_off", "time": 172, "note": 74, "velocity": 114, "channel": 0}, {"type": "note_on", "time": 47, "note": 73, "velocity": 105, "channel": 0}, {"type": "note_off", "time": 440, "note": 73, "velocity": 105, "channel": 0}, {"type": "note_on", "time": 316, "note": 81, "velocity": 116, "channel": 0}, {"type": "note_off", "time": 177, "note": 81, "velocity": 116, "channel": 0}, {"type": "note_on", "time": 23, "note": 67, "velocity": 93, "channel": 0}, {"type": "note_off", "time": 79, "note": 67, "velocity": 93, "channel": 0}, {"type": "note_on", "time": 37, "note": 84, "velocity": 116, "channel": 0}, {"type": "note_off", "time": 225, "note": 84, "velocity": 116, "channel": 0}, {"type": "note_on", "time": 34, "note": 84, "velocity": 117, "channel": 0}, {"type": "note_off", "time": 167, "note": 84, "velocity": 117, "channel": 0}, {"type": "note_on", "time": 30, "note": 76, "velocity": 89, "channel": 0}, {"type": "note_off", "time": 135, "note": 76, "velocity": 89, "channel": 0}, {"type": "note_on", "time": 58, "note": 72, "velocity": 88, "channel": 0}, {"type": "note_off", "time": 82, "note": 72, "velocity": 88, "channel": 0}, {"type": "note_on", "time": 9, "note": 68, "velocity": 84, "channel": 0}, {"type": "note_off", "time": 110, "note": 68, "velocity": 84, "channel": 0}, {"type": "note_on", "time": 7, "note": 67, "velocity": 92, "channel": 0}, {"type": "note_off", "time": 77, "note": 67, "velocity": 92, "channel": 0}, {"type": "note_on", "time": 6, "note": 72, "velocity": 79, "channel": 0}, {"type": "note_off", "time": 60, "note": 72, "velocity": 79, "channel": 0}, {"type": "note_on", "time": 26, "note": 77, "velocity": 104, "channel": 0}, {"type": "note_off", "time": 148, "note": 77, "velocity": 104, "channel": 0}, {"type": "note_on", "time": 25, "note": 77, "velocity": 104, "channel": 0}, {"type": "note_off", "time": 350, "note": 77, "velocity": 104, "channel": 0}, {"type": "note_on", "time": 45, "note": 79, "velocity": 104, "channel": 0}, {"type": "note_off", "time": 257, "note": 79, "velocity": 104, "channel": 0}, {"type": "note_on", "time": 39, "note": 82, "velocity": 106, "channel": 0}, {"type": "note_off", "time": 216, "note": 82, "velocity": 106, "channel": 0}, {"type": "note_on", "time": 240, "note": 80, "velocity": 115, "channel": 0}, {"type": "note_off", "time": 124, "note": 80, "velocity": 115, "channel": 0}, {"type": "note_on", "time": 11, "note": 77, "velocity": 88, "channel": 0}, {"type": "note_off", "time": 80, "note": 77, "velocity": 88, "channel": 0}, {"type": "note_on", "time": 20, "note": 75, "velocity": 97, "channel": 0}, {"type": "note_off", "time": 77, "note": 75, "velocity": 97, "channel": 0}, {"type": "note_on", "time": 11, "note": 71, "velocity": 89, "channel": 0}, {"type": "note_off", "time": 67, "note": 71, "velocity": 89, "channel": 0}, {"type": "note_on", "time": 14, "note": 68, "velocity": 99, "channel": 0}, {"type": "note_off", "time": 80, "note": 68, "velocity": 99, "channel": 0}, {"type": "note_on", "time": 18, "note": 65, "velocity": 94, "channel": 0}, {"type": "note_off", "time": 64, "note": 65, "velocity": 94, "channel": 0}, {"type": "note_on", "time": 18, "note": 63, "velocity": 94, "channel": 0}, {"type": "note_off", "time": 61, "note": 63, "velocity": 94, "channel": 0}, {"type": "note_on", "time": 18, "note": 65, "velocity": 94, "channel": 0}, {"type": "note_off", "time": 82, "note": 65, "velocity": 94, "channel": 0}, {"type": "note_on", "time": 23, "note": 68, "velocity": 97, "channel": 0}, {"type": "note_off", "time": 150, "note": 68, "velocity": 97, "channel": 0}, {"type": "note_on", "time": 444, "note": 67, "velocity": 93, "channel": 0}, {"type": "note_off", "time": 66, "note": 67, "velocity": 93, "channel": 0}, {"type": "note_on", "time": 23, "note": 70, "velocity": 89, "channel": 0}, {"type": "note_off", "time": 56, "note": 70, "velocity": 89, "channel": 0}, {"type": "note_on", "time": 18, "note": 75, "velocity": 101, "channel": 0}, {"type": "note_off", "time": 186, "note": 75, "velocity": 101, "channel": 0}, {"type": "note_on", "time": 50, "note": 63, "velocity": 91, "channel": 0}, {"type": "note_off", "time": 56, "note": 63, "velocity": 91, "channel": 0}, {"type": "note_on", "time": 18, "note": 68, "velocity": 105, "channel": 0}, {"type": "note_off", "time": 61, "note": 68, "velocity": 105, "channel": 0}, {"type": "note_on", "time": 15, "note": 73, "velocity": 120, "channel": 0}, {"type": "note_off", "time": 107, "note": 73, "velocity": 120, "channel": 0}, {"type": "note_on", "time": 23, "note": 73, "velocity": 118, "channel": 0}, {"type": "note_off", "time": 101, "note": 73, "velocity": 118, "channel": 0}, {"type": "note_on", "time": 14, "note": 73, "velocity": 121, "channel": 0}, {"type": "note_off", "time": 83, "note": 73, "velocity": 121, "channel": 0}, {"type": "note_on", "time": 30, "note": 73, "velocity": 122, "channel": 0}, {"type": "note_off", "time": 128, "note": 73, "velocity": 122, "channel": 0}, {"type": "note_on", "time": 72, "note": 73, "velocity": 112, "channel": 0}, {"type": "note_off", "time": 240, "note": 73, "velocity": 112, "channel": 0}, {"type": "note_on", "time": 15, "note": 71, "velocity": 83, "channel": 0}, {"type": "note_off", "time": 56, "note": 71, "velocity": 83, "channel": 0}, {"type": "note_on", "time": 15, "note": 70, "velocity": 93, "channel": 0}, {"type": "note_off", "time": 58, "note": 70, "velocity": 93, "channel": 0}, {"type": "note_on", "time": 14, "note": 67, "velocity": 92, "channel": 0}, {"type": "note_off", "time": 63, "note": 67, "velocity": 92, "channel": 0}, {"type": "note_on", "time": 42, "note": 76, "velocity": 100, "channel": 0}, {"type": "note_off", "time": 64, "note": 76, "velocity": 100, "channel": 0}, {"type": "note_on", "time": 20, "note": 80, "velocity": 108, "channel": 0}, {"type": "note_off", "time": 254, "note": 80, "velocity": 108, "channel": 0}, {"type": "note_on", "time": 36, "note": 79, "velocity": 101, "channel": 0}, {"type": "note_off", "time": 335, "note": 79, "velocity": 101, "channel": 0}, {"type": "note_on", "time": 331, "note": 84, "velocity": 124, "channel": 0}, {"type": "note_off", "time": 113, "note": 84, "velocity": 124, "channel": 0}, {"type": "note_on", "time": 20, "note": 80, "velocity": 94, "channel": 0}, {"type": "note_off", "time": 71, "note": 80, "velocity": 94, "channel": 0}, {"type": "note_on", "time": 25, "note": 77, "velocity": 110, "channel": 0}, {"type": "note_off", "time": 69, "note": 77, "velocity": 110, "channel": 0}, {"type": "note_on", "time": 23, "note": 72, "velocity": 103, "channel": 0}, {"type": "note_off", "time": 67, "note": 72, "velocity": 103, "channel": 0}, {"type": "note_on", "time": 30, "note": 68, "velocity": 97, "channel": 0}, {"type": "note_off", "time": 67, "note": 68, "velocity": 97, "channel": 0}, {"type": "note_on", "time": 14, "note": 65, "velocity": 90, "channel": 0}, {"type": "note_off", "time": 63, "note": 65, "velocity": 90, "channel": 0}, {"type": "note_on", "time": 167, "note": 68, "velocity": 104, "channel": 0}, {"type": "note_off", "time": 203, "note": 68, "velocity": 104, "channel": 0}, {"type": "note_on", "time": 34, "note": 67, "velocity": 96, "channel": 0}, {"type": "note_off", "time": 69, "note": 67, "velocity": 96, "channel": 0}, {"type": "note_on", "time": 12, "note": 68, "velocity": 95, "channel": 0}, {"type": "note_off", "time": 69, "note": 68, "velocity": 95, "channel": 0}, {"type": "note_on", "time": 22, "note": 70, "velocity": 98, "channel": 0}, {"type": "note_off", "time": 77, "note": 70, "velocity": 98, "channel": 0}, {"type": "note_on", "time": 14, "note": 72, "velocity": 83, "channel": 0}, {"type": "note_off", "time": 56, "note": 72, "velocity": 83, "channel": 0}, {"type": "note_on", "time": 26, "note": 74, "velocity": 127, "channel": 0}, {"type": "note_off", "time": 183, "note": 74, "velocity": 127, "channel": 0}, {"type": "note_on", "time": 25, "note": 79, "velocity": 100, "channel": 0}, {"type": "note_off", "time": 165, "note": 79, "velocity": 100, "channel": 0}, {"type": "note_on", "time": 30, "note": 75, "velocity": 99, "channel": 0}, {"type": "note_off", "time": 180, "note": 75, "velocity": 99, "channel": 0}, {"type": "note_on", "time": 17, "note": 82, "velocity": 80, "channel": 0}, {"type": "note_off", "time": 75, "note": 82, "velocity": 80, "channel": 0}, {"type": "note_on", "time": 28, "note": 75, "velocity": 97, "channel": 0}, {"type": "note_off", "time": 184, "note": 75, "velocity": 97, "channel": 0}, {"type": "note_on", "time": 12, "note": 82, "velocity": 81, "channel": 0}, {"type": "note_off", "time": 72, "note": 82, "velocity": 81, "channel": 0}, {"type": "note_on", "time": 28, "note": 75, "velocity": 101, "channel": 0}, {"type": "note_off", "time": 167, "note": 75, "velocity": 101, "channel": 0}, {"type": "note_on", "time": 11, "note": 82, "velocity": 87, "channel": 0}, {"type": "note_off", "time": 71, "note": 82, "velocity": 87, "channel": 0}, {"type": "note_on", "time": 20, "note": 75, "velocity": 109, "channel": 0}, {"type": "note_off", "time": 156, "note": 75, "velocity": 109, "channel": 0}, {"type": "note_on", "time": 37, "note": 82, "velocity": 92, "channel": 0}, {"type": "note_off", "time": 74, "note": 82, "velocity": 92, "channel": 0}, {"type": "note_on", "time": 3, "note": 75, "velocity": 104, "channel": 0}, {"type": "note_off", "time": 164, "note": 75, "velocity": 104, "channel": 0}, {"type": "note_on", "time": 82, "note": 75, "velocity": 92, "channel": 0}, {"type": "note_off", "time": 259, "note": 75, "velocity": 92, "channel": 0}, {"type": "end_of_track", "time": 0}]]}