{"ticks_per_beat": 192, "tracks": [[{"type": "track_name", "name": "Melody", "time": 0}, {"type": "set_tempo", "tempo": 213523, "time": 0}, {"type": "key_signature", "key": "Bb", "time": 0}, {"type": "time_signature", "numerator": 4, "denominator": 4, "clocks_per_click": 24, "notated_32nd_notes_per_beat": 8, "time": 0}, {"type": "note_on", "time": 4896, "note": 89, "velocity": 97, "channel": 0}, {"type": "note_off", "time": 91, "note": 89, "velocity": 97, "channel": 0}, {"type": "note_on", "time": 7, "note": 82, "velocity": 70, "channel": 0}, {"type": "note_off", "time": 78, "note": 82, "velocity": 70, "channel": 0}, {"type": "note_on", "time": 13, "note": 84, "velocity": 90, "channel": 0}, {"type": "note_off", "time": 93, "note": 84, "velocity": 90, "channel": 0}, {"type": "note_on", "time": 8, "note": 85, "velocity": 81, "channel": 0}, {"type": "note_off", "time": 86, "note": 85, "velocity": 81, "channel": 0}, {"type": "note_on", "time": 0, "note": 86, "velocity": 103, "channel": 0}, {"type": "note_off", "time": 109, "note": 86, "velocity": 103, "channel": 0}, {"type": "note_on", "time": 13, "note": 77, "velocity": 67, "channel": 0}, {"type": "note_off", "time": 67, "note": 77, "velocity": 67, "channel": 0}, {"type": "note_on", "time": 19, "note": 79, "velocity": 91, "channel": 0}, {"type": "note_off", "time": 75, "note": 79, "velocity": 91, "channel": 0}, {"type": "note_on", "time": 14, "note": 81, "velocity": 76, "channel": 0}, {"type": "note_off", "time": 86, "note": 81, "velocity": 76, "channel": 0}, {"type": "note_on", "time": 9, "note": 82, "velocity": 88, "channel": 0}, {"type": "note_off", "time": 111, "note": 82, "velocity": 88, "channel": 0}, {"type": "note_on", "time": 27, "note": 72, "velocity": 85, "channel": 0}, {"type": "note_off", "time": 83, "note": 72, "velocity": 85, "channel": 0}, {"type": "note_on", "time": 2, "note": 74, "velocity": 93, "channel": 0}, {"type": "note_off", "time": 80, "note": 74, "velocity": 93, "channel": 0}, {"type": "note_on", "time": 5, "note": 76, "velocity": 100, "channel": 0}, {"type": "note_off", "time": 75, "note": 76, "velocity": 100, "channel": 0}, {"type": "note_on", "time": 1, "note": 77, "velocity": 112, "channel": 0}, {"type": "note_off", "time": 73, "note": 77, "velocity": 112, "channel": 0}, {"type": "note_on", "time": 0, "note": 65, "velocity": 121, "channel": 0}, {"type": "note_off", "time": 66, "note": 65, "velocity": 121, "channel": 0}, {"type": "note_on", "time": 3, "note": 67, "velocity": 104, "channel": 0}, {"type": "note_off", "time": 51, "note": 67, "velocity": 104, "channel": 0}, {"type": "note_on", "time": 12, "note": 70, "velocity": 108, "channel": 0}, {"type": "note_off", "time": 75, "note": 70, "velocity": 108, "channel": 0}, {"type": "note_on", "time": 22, "note": 72, "velocity": 110, "channel": 0}, {"type": "note_off", "time": 69, "note": 72, "velocity": 110, "channel": 0}, {"type": "note_on", "time": 25, "note": 74, "velocity": 104, "channel": 0}, {"type": "note_off", "time": 67, "note": 74, "velocity": 104, "channel": 0}, {"type": "note_on", "time": 18, "note": 72, "velocity": 96, "channel": 0}, {"type": "note_off", "time": 53, "note": 72, "velocity": 96, "channel": 0}, {"type": "note_on", "time": 20, "note": 74, "velocity": 103, "channel": 0}, {"type": "note_off", "time": 69, "note": 74, "velocity": 103, "channel": 0}, {"type": "note_on", "time": 25, "note": 72, "velocity": 95, "channel": 0}, {"type": "note_off", "time": 49, "note": 72, "velocity": 95, "channel": 0}, {"type": "note_on", "time": 1, "note": 74, "velocity": 105, "channel": 0}, {"type": "note_off", "time": 69, "note": 74, "velocity": 105, "channel": 0}, {"type": "note_on", "time": 7, "note": 72, "velocity": 102, "channel": 0}, {"type": "note_off", "time": 82, "note": 72, "velocity": 102, "channel": 0}, {"type": "note_on", "time": 16, "note": 68, "velocity": 86, "channel": 0}, {"type": "note_off", "time": 66, "note": 68, "velocity": 86, "channel": 0}, {"type": "note_on", "time": 22, "note": 65, "velocity": 107, "channel": 0}, {"type": "note_off", "time": 71, "note": 65, "velocity": 107, "channel": 0}, {"type": "note_on", "time": 16, "note": 62, "velocity": 98, "channel": 0}, {"type": "note_off", "time": 110, "note": 62, "velocity": 98, "channel": 0}, {"type": "note_on", "time": 3, "note": 60, "velocity": 100, "channel": 0}, {"type": "note_off", "time": 115, "note": 60, "velocity": 100, "channel": 0}, {"type": "note_on", "time": 9, "note": 58, "velocity": 86, "channel": 0}, {"type": "note_off", "time": 89, "note": 58, "velocity": 86, "channel": 0}, {"type": "note_on", "time": 170, "note": 65, "velocity": 111, "channel": 0}, {"type": "note_off", "time": 78, "note": 65, "velocity": 111, "channel": 0}, {"type": "note_on", "time": 22, "note": 67, "velocity": 107, "channel": 0}, {"type": "note_off", "time": 93, "note": 67, "velocity": 107, "channel": 0}, {"type": "note_on", "time": 5, "note": 70, "velocity": 116, "channel": 0}, {"type": "note_off", "time": 80, "note": 70, "velocity": 116, "channel": 0}, {"type": "note_on", "time": 17, "note": 67, "velocity": 96, "channel": 0}, {"type": "note_off", "time": 93, "note": 67, "velocity": 96, "channel": 0}, {"type": "note_on", "time": 7, "note": 63, "velocity": 111, "channel": 0}, {"type": "note_off", "time": 117, "note": 63, "velocity": 111, "channel": 0}, {"type": "note_on", "time": 39, "note": 58, "velocity": 91, "channel": 0}, {"type": "note_off", "time": 101, "note": 58, "velocity": 91, "channel": 0}, {"type": "note_on", "time": 18, "note": 55, "velocity": 88, "channel": 0}, {"type": "note_off", "time": 91, "note": 55, "velocity": 88, "channel": 0}, {"type": "note_on", "time": 0, "note": 58, "velocity": 80, "channel": 0}, {"type": "note_on", "time": 91, "note": 62, "velocity": 89, "channel": 0}, {"type": "note_off", "time": 0, "note": 58, "velocity": 80, "channel": 0}, {"type": "note_off", "time": 96, "note": 62, "velocity": 89, "channel": 0}, {"type": "note_on", "time": 5, "note": 63, "velocity": 107, "channel": 0}, {"type": "note_off", "time": 167, "note": 63, "velocity": 107, "channel": 0}, {"type": "note_on", "time": 33, "note": 62, "velocity": 102, "channel": 0}, {"type": "note_off", "time": 153, "note": 62, "velocity": 102, "channel": 0}, {"type": "note_on", "time": 2, "note": 67, "velocity": 94, "channel": 0}, {"type": "note_off", "time": 167, "note": 67, "velocity": 94, "channel": 0}, {"type": "note_on", "time": 31, "note": 70, "velocity": 117, "channel": 0}, {"type": "note_off", "time": 104, "note": 70, "velocity": 117, "channel": 0}, {"type": "note_on", "time": 20, "note": 67, "velocity": 110, "channel": 0}, {"type": "note_off", "time": 54, "note": 67, "velocity": 110, "channel": 0}, {"type": "note_on", "time": 1, "note": 70, "velocity": 114, "channel": 0}, {"type": "note_off", "time": 150, "note": 70, "velocity": 114, "channel": 0}, {"type": "note_on", "time": 60, "note": 65, "velocity": 112, "channel": 0}, {"type": "note_off", "time": 80, "note": 65, "velocity": 112, "channel": 0}, {"type": "note_on", "time": 14, "note": 62, "velocity": 106, "channel": 0}, {"type": "note_off", "time": 62, "note": 62, "velocity": 106, "channel": 0}, {"type": "note_on", "time": 18, "note": 65, "velocity": 104, "channel": 0}, {"type": "note_off", "time": 95, "note": 65, "velocity": 104, "channel": 0}, {"type": "note_on", "time": 12, "note": 70, "velocity": 91, "channel": 0}, {"type": "note_off", "time": 82, "note": 70, "velocity": 91, "channel": 0}, {"type": "note_on", "time": 14, "note": 74, "velocity": 100, "channel": 0}, {"type": "note_off", "time": 157, "note": 74, "velocity": 100, "channel": 0}, {"type": "note_on", "time": 14, "note": 67, "velocity": 97, "channel": 0}, {"type": "note_off", "time": 86, "note": 67, "velocity": 97, "channel": 0}, {"type": "note_on", "time": 15, "note": 70, "velocity": 91, "channel": 0}, {"type": "note_off", "time": 83, "note": 70, "velocity": 91, "channel": 0}, {"type": "note_on", "time": 18, "note": 77, "velocity": 103, "channel": 0}, {"type": "note_off", "time": 179, "note": 77, "velocity": 103, "channel": 0}, {"type": "note_on", "time": 73, "note": 77, "velocity": 110, "channel": 0}, {"type": "note_off", "time": 133, "note": 77, "velocity": 110, "channel": 0}, {"type": "note_on", "time": 165, "note": 72, "velocity": 108, "channel": 0}, {"type": "note_off", "time": 82, "note": 72, "velocity": 108, "channel": 0}, {"type": "note_on", "time": 11, "note": 67, "velocity": 92, "channel": 0}, {"type": "note_off", "time": 71, "note": 67, "velocity": 92, "channel": 0}, {"type": "note_on", "time": 44, "note": 60, "velocity": 101, "channel": 0}, {"type": "note_off", "time": 165, "note": 60, "velocity": 101, "channel": 0}, {"type": "note_on", "time": 25, "note": 72, "velocity": 85, "channel": 0}, {"type": "note_off", "time": 185, "note": 72, "velocity": 85, "channel": 0}, {"type": "note_on", "time": 12, "note": 59, "velocity": 102, "channel": 0}, {"type": "note_off", "time": 196, "note": 59, "velocity": 102, "channel": 0}, {"type": "note_on", "time": 7, "note": 62, "velocity": 113, "channel": 0}, {"type": "note_off", "time": 164, "note": 62, "velocity": 113, "channel": 0}, {"type": "note_on", "time": 15, "note": 69, "velocity": 101, "channel": 0}, {"type": "note_off", "time": 83, "note": 69, "velocity": 101, "channel": 0}, {"type": "note_on", "time": 20, "note": 66, "velocity": 94, "channel": 0}, {"type": "note_off", "time": 96, "note": 66, "velocity": 94, "channel": 0}, {"type": "note_on", "time": 18, "note": 62, "velocity": 109, "channel": 0}, {"type": "note_off", "time": 78, "note": 62, "velocity": 109, "channel": 0}, {"type": "note_on", "time": 0, "note": 60, "velocity": 100, "channel": 0}, {"type": "note_off", "time": 78, "note": 60, "velocity": 100, "channel": 0}, {"type": "note_on", "time": 16, "note": 62, "velocity": 113, "channel": 0}, {"type": "note_off", "time": 86, "note": 62, "velocity": 113, "channel": 0}, {"type": "note_on", "time": 103, "note": 62, "velocity": 118, "channel": 0}, {"type": "note_off", "time": 80, "note": 62, "velocity": 118, "channel": 0}, {"type": "note_on", "time": 18, "note": 60, "velocity": 101, "channel": 0}, {"type": "note_off", "time": 80, "note": 60, "velocity": 101, "channel": 0}, {"type": "note_on", "time": 15, "note": 62, "velocity": 107, "channel": 0}, {"type": "note_off", "time": 114, "note": 62, "velocity": 107, "channel": 0}, {"type": "note_on", "time": 96, "note": 62, "velocity": 107, "channel": 0}, {"type": "note_off", "time": 73, "note": 62, "velocity": 107, "channel": 0}, {"type": "note_on", "time": 7, "note": 67, "velocity": 95, "channel": 0}, {"type": "note_off", "time": 83, "note": 67, "velocity": 95, "channel": 0}, {"type": "note_on", "time": 0, "note": 70, "velocity": 105, "channel": 0}, {"type": "note_off", "time": 125, "note": 70, "velocity": 105, "channel": 0}, {"type": "note_on", "time": 7, "note": 64, "velocity": 108, "channel": 0}, {"type": "note_off", "time": 62, "note": 64, "velocity": 108, "channel": 0}, {"type": "note_on", "time": 7, "note": 67, "velocity": 105, "channel": 0}, {"type": "note_off", "time": 75, "note": 67, "velocity": 105, "channel": 0}, {"type": "note_on", "time": 23, "note": 70, "velocity": 94, "channel": 0}, {"type": "note_off", "time": 71, "note": 70, "velocity": 94, "channel": 0}, {"type": "note_on", "time": 0, "note": 74, "velocity": 121, "channel": 0}, {"type": "note_off", "time": 178, "note": 74, "velocity": 121, "channel": 0}, {"type": "note_on", "time": 136, "note": 74, "velocity": 114, "channel": 0}, {"type": "note_off", "time": 179, "note": 74, "velocity": 114, "channel": 0}, {"type": "note_on", "time": 407, "note": 65, "velocity": 108, "channel": 0}, {"type": "note_off", "time": 80, "note": 65, "velocity": 108, "channel": 0}, {"type": "note_on", "time": 7, "note": 69, "velocity": 126, "channel": 0}, {"type": "note_off", "time": 80, "note": 69, "velocity": 126, "channel": 0}, {"type": "note_on", "time": 2, "note": 72, "velocity": 107, "channel": 0}, {"type": "note_off", "time": 80, "note": 72, "velocity": 107, "channel": 0}, {"type": "note_on", "time": 13, "note": 79, "velocity": 111, "channel": 0}, {"type": "note_off", "time": 169, "note": 79, "velocity": 111, "channel": 0}, {"type": "note_on", "time": 44, "note": 79, "velocity": 119, "channel": 0}, {"type": "note_off", "time": 107, "note": 79, "velocity": 119, "channel": 0}, {"type": "note_on", "time": 2, "note": 76, "velocity": 103, "channel": 0}, {"type": "note_off", "time": 91, "note": 76, "velocity": 103, "channel": 0}, {"type": "note_on", "time": 2, "note": 74, "velocity": 111, "channel": 0}, {"type": "note_off", "time": 96, "note": 74, "velocity": 111, "channel": 0}, {"type": "note_on", "time": 7, "note": 70, "velocity": 104, "channel": 0}, {"type": "note_off", "time": 93, "note": 70, "velocity": 104, "channel": 0}, {"type": "note_on", "time": 7, "note": 67, "velocity": 93, "channel": 0}, {"type": "note_off", "time": 80, "note": 67, "velocity": 93, "channel": 0}, {"type": "note_on", "time": 13, "note": 64, "velocity": 112, "channel": 0}, {"type": "note_off", "time": 117, "note": 64, "velocity": 112, "channel": 0}, {"type": "note_on", "time": 454, "note": 65, "velocity": 104, "channel": 0}, {"type": "note_off", "time": 112, "note": 65, "velocity": 104, "channel": 0}, {"type": "note_on", "time": 52, "note": 65, "velocity": 100, "channel": 0}, {"type": "note_off", "time": 73, "note": 65, "velocity": 100, "channel": 0}, {"type": "note_on", "time": 31, "note": 77, "velocity": 115, "channel": 0}, {"type": "note_off", "time": 75, "note": 77, "velocity": 115, "channel": 0}, {"type": "note_on", "time": 0, "note": 65, "velocity": 118, "channel": 0}, {"type": "note_off", "time": 33, "note": 65, "velocity": 118, "channel": 0}, {"type": "note_on", "time": 18, "note": 77, "velocity": 108, "channel": 0}, {"type": "note_off", "time": 26, "note": 77, "velocity": 108, "channel": 0}, {"type": "note_on", "time": 7, "note": 65, "velocity": 103, "channel": 0}, {"type": "note_off", "time": 88, "note": 65, "velocity": 103, "channel": 0}, {"type": "note_on", "time": 18, "note": 76, "velocity": 108, "channel": 0}, {"type": "note_off", "time": 101, "note": 76, "velocity": 108, "channel": 0}, {"type": "note_on", "time": 2, "note": 65, "velocity": 105, "channel": 0}, {"type": "note_off", "time": 31, "note": 65, "velocity": 105, "channel": 0}, {"type": "note_on", "time": 26, "note": 76, "velocity": 110, "channel": 0}, {"type": "note_on", "time": 70, "note": 65, "velocity": 96, "channel": 0}, {"type": "note_off", "time": 0, "note": 76, "velocity": 110, "channel": 0}, {"type": "note_off", "time": 39, "note": 65, "velocity": 96, "channel": 0}, {"type": "note_on", "time": 44, "note": 75, "velocity": 88, "channel": 0}, {"type": "note_off", "time": 86, "note": 75, "velocity": 88, "channel": 0}, {"type": "note_on", "time": 15, "note": 65, "velocity": 94, "channel": 0}, {"type": "note_off", "time": 67, "note": 65, "velocity": 94, "channel": 0}, {"type": "note_on", "time": 0, "note": 74, "velocity": 112, "channel": 0}, {"type": "note_off", "time": 185, "note": 74, "velocity": 112, "channel": 0}, {"type": "note_on", "time": 206, "note": 76, "velocity": 106, "channel": 0}, {"type": "note_off", "time": 200, "note": 76, "velocity": 106, "channel": 0}, {"type": "note_on", "time": 83, "note": 77, "velocity": 107, "channel": 0}, {"type": "note_off", "time": 281, "note": 77, "velocity": 107, "channel": 0}, {"type": "note_on", "time": 187, "note": 74, "velocity": 122, "channel": 0}, {"type": "note_off", "time": 193, "note": 74, "velocity": 122, "channel": 0}, {"type": "note_on", "time": 13, "note": 75, "velocity": 102, "channel": 0}, {"type": "note_off", "time": 169, "note": 75, "velocity": 102, "channel": 0}, {"type": "note_on", "time": 33, "note": 76, "velocity": 108, "channel": 0}, {"type": "note_off", "time": 187, "note": 76, "velocity": 108, "channel": 0}, {"type": "note_on", "time": 7, "note": 77, "velocity": 103, "channel": 0}, {"type": "note_off", "time": 174, "note": 77, "velocity": 103, "channel": 0}, {"type": "note_on", "time": 2, "note": 74, "velocity": 125, "channel": 0}, {"type": "note_off", "time": 83, "note": 74, "velocity": 125, "channel": 0}, {"type": "note_on", "time": 15, "note": 70, "velocity": 93, "channel": 0}, {"type": "note_off", "time": 83, "note": 70, "velocity": 93, "channel": 0}, {"type": "note_on", "time": 18, "note": 68, "velocity": 105, "channel": 0}, {"type": "note_off", "time": 67, "note": 68, "velocity": 105, "channel": 0}, {"type": "note_on", "time": 18, "note": 65, "velocity": 103, "channel": 0}, {"type": "note_off", "time": 88, "note": 65, "velocity": 103, "channel": 0}, {"type": "note_on", "time": 31, "note": 60, "velocity": 102, "channel": 0}, {"type": "note_off", "time": 125, "note": 60, "velocity": 102, "channel": 0}, {"type": "note_on", "time": 46, "note": 60, "velocity": 100, "channel": 0}, {"type": "note_off", "time": 138, "note": 60, "velocity": 100, "channel": 0}, {"type": "note_on", "time": 57, "note": 60, "velocity": 101, "channel": 0}, {"type": "note_off", "time": 182, "note": 60, "velocity": 101, "channel": 0}, {"type": "note_on", "time": 7, "note": 70, "velocity": 118, "channel": 0}, {"type": "note_off", "time": 107, "note": 70, "velocity": 118, "channel": 0}, {"type": "note_on", "time": 0, "note": 66, "velocity": 107, "channel": 0}, {"type": "note_off", "time": 96, "note": 66, "velocity": 107, "channel": 0}, {"type": "note_on", "time": 10, "note": 62, "velocity": 127, "channel": 0}, {"type": "note_off", "time": 104, "note": 62, "velocity": 127, "channel": 0}, {"type": "note_on", "time": 13, "note": 58, "velocity": 116, "channel": 0}, {"type": "note_off", "time": 70, "note": 58, "velocity": 116, "channel": 0}, {"type": "note_on", "time": 229, "note": 58, "velocity": 110, "channel": 0}, {"type": "note_off", "time": 75, "note": 58, "velocity": 110, "channel": 0}, {"type": "note_on", "time": 10, "note": 55, "velocity": 98, "channel": 0}, {"type": "note_off", "time": 73, "note": 55, "velocity": 98, "channel": 0}, {"type": "note_on", "time": 13, "note": 58, "velocity": 91, "channel": 0}, {"type": "note_off", "time": 70, "note": 58, "velocity": 91, "channel": 0}, {"type": "note_on", "time": 23, "note": 55, "velocity": 95, "channel": 0}, {"type": "note_off", "time": 67, "note": 55, "velocity": 95, "channel": 0}, {"type": "note_on", "time": 36, "note": 58, "velocity": 85, "channel": 0}, {"type": "note_off", "time": 78, "note": 58, "velocity": 85, "channel": 0}, {"type": "note_on", "time": 5, "note": 62, "velocity": 95, "channel": 0}, {"type": "note_off", "time": 96, "note": 62, "velocity": 95, "channel": 0}, {"type": "note_on", "time": 15, "note": 63, "velocity": 115, "channel": 0}, {"type": "note_off", "time": 135, "note": 63, "velocity": 115, "channel": 0}, {"type": "note_on", "time": 7, "note": 62, "velocity": 110, "channel": 0}, {"type": "note_off", "time": 138, "note": 62, "velocity": 110, "channel": 0}, {"type": "note_on", "time": 67, "note": 67, "velocity": 102, "channel": 0}, {"type": "note_off", "time": 135, "note": 67, "velocity": 102, "channel": 0}, {"type": "note_on", "time": 41, "note": 70, "velocity": 111, "channel": 0}, {"type": "note_off", "time": 174, "note": 70, "velocity": 111, "channel": 0}, {"type": "note_on", "time": 28, "note": 70, "velocity": 120, "channel": 0}, {"type": "note_off", "time": 169, "note": 70, "velocity": 120, "channel": 0}, {"type": "note_on", "time": 26, "note": 69, "velocity": 118, "channel": 0}, {"type": "note_off", "time": 78, "note": 69, "velocity": 118, "channel": 0}, {"type": "note_on", "time": 18, "note": 62, "velocity": 108, "channel": 0}, {"type": "note_off", "time": 60, "note": 62, "velocity": 108, "channel": 0}, {"type": "note_on", "time": 28, "note": 69, "velocity": 109, "channel": 0}, {"type": "note_off", "time": 91, "note": 69, "velocity": 109, "channel": 0}, {"type": "note_on", "time": 2, "note": 72, "velocity": 99, "channel": 0}, {"type": "note_off", "time": 91, "note": 72, "velocity": 99, "channel": 0}, {"type": "note_on", "time": 10, "note": 74, "velocity": 123, "channel": 0}, {"type": "note_off", "time": 143, "note": 74, "velocity": 123, "channel": 0}, {"type": "note_on", "time": 227, "note": 74, "velocity": 120, "channel": 0}, {"type": "note_off", "time": 190, "note": 74, "velocity": 120, "channel": 0}, {"type": "note_on", "time": 117, "note": 74, "velocity": 117, "channel": 0}, {"type": "note_off", "time": 156, "note": 74, "velocity": 117, "channel": 0}, {"type": "note_on", "time": 96, "note": 74, "velocity": 124, "channel": 0}, {"type": "note_off", "time": 172, "note": 74, "velocity": 124, "channel": 0}, {"type": "note_on", "time": 247, "note": 74, "velocity": 113, "channel": 0}, {"type": "note_off", "time": 153, "note": 74, "velocity": 113, "channel": 0}, {"type": "note_on", "time": 26, "note": 70, "velocity": 99, "channel": 0}, {"type": "note_off", "time": 219, "note": 70, "velocity": 99, "channel": 0}, {"type": "note_on", "time": 143, "note": 74, "velocity": 119, "channel": 0}, {"type": "note_off", "time": 167, "note": 74, "velocity": 119, "channel": 0}, {"type": "note_on", "time": 23, "note": 69, "velocity": 105, "channel": 0}, {"type": "note_off", "time": 146, "note": 69, "velocity": 105, "channel": 0}, {"type": "note_on", "time": 234, "note": 74, "velocity": 115, "channel": 0}, {"type": "note_off", "time": 164, "note": 74, "velocity": 115, "channel": 0}, {"type": "note_on", "time": 54, "note": 70, "velocity": 107, "channel": 0}, {"type": "note_off", "time": 143, "note": 70, "velocity": 107, "channel": 0}, {"type": "note_on", "time": 41, "note": 65, "velocity": 118, "channel": 0}, {"type": "note_off", "time": 146, "note": 65, "velocity": 118, "channel": 0}, {"type": "note_on", "time": 41, "note": 65, "velocity": 120, "channel": 0}, {"type": "note_off", "time": 146, "note": 65, "velocity": 120, "channel": 0}, {"type": "note_on", "time": 60, "note": 58, "velocity": 103, "channel": 0}, {"type": "note_off", "time": 83, "note": 58, "velocity": 103, "channel": 0}, {"type": "note_on", "time": 10, "note": 61, "velocity": 96, "channel": 0}, {"type": "note_off", "time": 75, "note": 61, "velocity": 96, "channel": 0}, {"type": "note_on", "time": 7, "note": 64, "velocity": 104, "channel": 0}, {"type": "note_off", "time": 65, "note": 64, "velocity": 104, "channel": 0}, {"type": "note_on", "time": 20, "note": 69, "velocity": 98, "channel": 0}, {"type": "note_off", "time": 93, "note": 69, "velocity": 98, "channel": 0}, {"type": "note_on", "time": 15, "note": 70, "velocity": 116, "channel": 0}, {"type": "note_off", "time": 78, "note": 70, "velocity": 116, "channel": 0}, {"type": "note_on", "time": 2, "note": 73, "velocity": 119, "channel": 0}, {"type": "note_off", "time": 67, "note": 73, "velocity": 119, "channel": 0}, {"type": "note_on", "time": 28, "note": 76, "velocity": 104, "channel": 0}, {"type": "note_off", "time": 83, "note": 76, "velocity": 104, "channel": 0}, {"type": "note_on", "time": 13, "note": 74, "velocity": 103, "channel": 0}, {"type": "note_off", "time": 88, "note": 74, "velocity": 103, "channel": 0}, {"type": "note_on", "time": 10, "note": 81, "velocity": 101, "channel": 0}, {"type": "note_off", "time": 83, "note": 81, "velocity": 101, "channel": 0}, {"type": "note_on", "time": 13, "note": 79, "velocity": 93, "channel": 0}, {"type": "note_off", "time": 60, "note": 79, "velocity": 93, "channel": 0}, {"type": "note_on", "time": 7, "note": 82, "velocity": 99, "channel": 0}, {"type": "note_off", "time": 101, "note": 82, "velocity": 99, "channel": 0}, {"type": "note_on", "time": 20, "note": 79, "velocity": 89, "channel": 0}, {"type": "note_off", "time": 75, "note": 79, "velocity": 89, "channel": 0}, {"type": "note_on", "time": 23, "note": 75, "velocity": 102, "channel": 0}, {"type": "note_off", "time": 75, "note": 75, "velocity": 102, "channel": 0}, {"type": "note_on", "time": 10, "note": 72, "velocity": 84, "channel": 0}, {"type": "note_off", "time": 80, "note": 72, "velocity": 84, "channel": 0}, {"type": "note_on", "time": 26, "note": 70, "velocity": 114, "channel": 0}, {"type": "note_off", "time": 88, "note": 70, "velocity": 114, "channel": 0}, {"type": "note_on", "time": 7, "note": 67, "velocity": 103, "channel": 0}, {"type": "note_off", "time": 70, "note": 67, "velocity": 103, "channel": 0}, {"type": "note_on", "time": 20, "note": 70, "velocity": 117, "channel": 0}, {"type": "note_off", "time": 65, "note": 70, "velocity": 117, "channel": 0}, {"type": "note_on", "time": 15, "note": 67, "velocity": 99, "channel": 0}, {"type": "note_off", "time": 80, "note": 67, "velocity": 99, "channel": 0}, {"type": "note_on", "time": 46, "note": 69, "velocity": 108, "channel": 0}, {"type": "note_off", "time": 153, "note": 69, "velocity": 108, "channel": 0}, {"type": "note_on", "time": 101, "note": 77, "velocity": 110, "channel": 0}, {"type": "note_off", "time": 216, "note": 77, "velocity": 110, "channel": 0}, {"type": "note_on", "time": 86, "note": 74, "velocity": 104, "channel": 0}, {"type": "note_off", "time": 198, "note": 74, "velocity": 104, "channel": 0}, {"type": "note_on", "time": 67, "note": 77, "velocity": 82, "channel": 0}, {"type": "note_off", "time": 242, "note": 77, "velocity": 82, "channel": 0}, {"type": "note_on", "time": 54, "note": 74, "velocity": 72, "channel": 0}, {"type": "note_off", "time": 232, "note": 74, "velocity": 72, "channel": 0}, {"type": "end_of_track", "time": 0}]]}