{"ticks_per_beat": 840, "tracks": [[{"type": "track_name", "name": "Melody", "time": 0}, {"type": "set_tempo", "tempo": 600000, "time": 0}, {"type": "key_signature", "key": "Eb", "time": 0}, {"type": "time_signature", "numerator": 4, "denominator": 4, "clocks_per_click": 24, "notated_32nd_notes_per_beat": 8, "time": 0}, {"type": "note_on", "time": 6404, "note": 69, "velocity": 89, "channel": 0}, {"type": "note_off", "time": 365, "note": 69, "velocity": 89, "channel": 0}, {"type": "note_on", "time": 56, "note": 70, "velocity": 121, "channel": 0}, {"type": "note_off", "time": 219, "note": 70, "velocity": 121, "channel": 0}, {"type": "note_on", "time": 69, "note": 75, "velocity": 112, "channel": 0}, {"type": "note_off", "time": 296, "note": 75, "velocity": 112, "channel": 0}, {"type": "note_on", "time": 300, "note": 69, "velocity": 87, "channel": 0}, {"type": "note_off", "time": 345, "note": 69, "velocity": 87, "channel": 0}, {"type": "note_on", "time": 40, "note": 70, "velocity": 118, "channel": 0}, {"type": "note_off", "time": 455, "note": 70, "velocity": 118, "channel": 0}, {"type": "note_on", "time": 414, "note": 60, "velocity": 102, "channel": 0}, {"type": "note_off", "time": 223, "note": 60, "velocity": 102, "channel": 0}, {"type": "note_on", "time": 8, "note": 61, "velocity": 93, "channel": 0}, {"type": "note_off", "time": 130, "note": 61, "velocity": 93, "channel": 0}, {"type": "note_on", "time": 24, "note": 63, "velocity": 101, "channel": 0}, {"type": "note_off", "time": 264, "note": 63, "velocity": 101, "channel": 0}, {"type": "note_on", "time": 56, "note": 60, "velocity": 99, "channel": 0}, {"type": "note_off", "time": 296, "note": 60, "velocity": 99, "channel": 0}, {"type": "note_on", "time": 85, "note": 66, "velocity": 112, "channel": 0}, {"type": "note_off", "time": 146, "note": 66, "velocity": 112, "channel": 0}, {"type": "note_on", "time": 48, "note": 69, "velocity": 100, "channel": 0}, {"type": "note_off", "time": 223, "note": 69, "velocity": 100, "channel": 0}, {"type": "note_on", "time": 166, "note": 74, "velocity": 127, "channel": 0}, {"type": "note_off", "time": 768, "note": 74, "velocity": 127, "channel": 0}, {"type": "note_on", "time": 89, "note": 72, "velocity": 107, "channel": 0}, {"type": "note_off", "time": 325, "note": 72, "velocity": 107, "channel": 0}, {"type": "note_on", "time": 28, "note": 75, "velocity": 106, "channel": 0}, {"type": "note_off", "time": 239, "note": 75, "velocity": 106, "channel": 0}, {"type": "note_on", "time": 44, "note": 72, "velocity": 93, "channel": 0}, {"type": "note_off", "time": 146, "note": 72, "velocity": 93, "channel": 0}, {"type": "note_on", "time": 32, "note": 68, "velocity": 97, "channel": 0}, {"type": "note_off", "time": 215, "note": 68, "velocity": 97, "channel": 0}, {"type": "note_on", "time": 223, "note": 70, "velocity": 109, "channel": 0}, {"type": "note_off", "time": 292, "note": 70, "velocity": 109, "channel": 0}, {"type": "note_on", "time": 954, "note": 67, "velocity": 84, "channel": 0}, {"type": "note_off", "time": 274, "note": 67, "velocity": 84, "channel": 0}, {"type": "note_on", "time": 117, "note": 68, "velocity": 121, "channel": 0}, {"type": "note_off", "time": 428, "note": 68, "velocity": 121, "channel": 0}, {"type": "note_on", "time": 28, "note": 65, "velocity": 105, "channel": 0}, {"type": "note_off", "time": 157, "note": 65, "velocity": 105, "channel": 0}, {"type": "note_on", "time": 222, "note": 67, "velocity": 99, "channel": 0}, {"type": "note_off", "time": 228, "note": 67, "velocity": 99, "channel": 0}, {"type": "note_on", "time": 22, "note": 68, "velocity": 102, "channel": 0}, {"type": "note_off", "time": 197, "note": 68, "velocity": 102, "channel": 0}, {"type": "note_on", "time": 34, "note": 64, "velocity": 105, "channel": 0}, {"type": "note_off", "time": 151, "note": 64, "velocity": 105, "channel": 0}, {"type": "note_on", "time": 8, "note": 63, "velocity": 87, "channel": 0}, {"type": "note_off", "time": 137, "note": 63, "velocity": 87, "channel": 0}, {"type": "note_on", "time": 114, "note": 58, "velocity": 91, "channel": 0}, {"type": "note_off", "time": 257, "note": 58, "velocity": 91, "channel": 0}, {"type": "note_on", "time": 111, "note": 58, "velocity": 97, "channel": 0}, {"type": "note_off", "time": 245, "note": 58, "velocity": 97, "channel": 0}, {"type": "note_on", "time": 128, "note": 71, "velocity": 96, "channel": 0}, {"type": "note_off", "time": 85, "note": 71, "velocity": 96, "channel": 0}, {"type": "note_on", "time": 11, "note": 70, "velocity": 113, "channel": 0}, {"type": "note_off", "time": 74, "note": 70, "velocity": 113, "channel": 0}, {"type": "note_on", "time": 17, "note": 68, "velocity": 112, "channel": 0}, {"type": "note_off", "time": 71, "note": 68, "velocity": 112, "channel": 0}, {"type": "note_on", "time": 42, "note": 66, "velocity": 116, "channel": 0}, {"type": "note_off", "time": 128, "note": 66, "velocity": 116, "channel": 0}, {"type": "note_on", "time": 31, "note": 64, "velocity": 107, "channel": 0}, {"type": "note_off", "time": 82, "note": 64, "velocity": 107, "channel": 0}, {"type": "note_on", "time": 48, "note": 62, "velocity": 96, "channel": 0}, {"type": "note_off", "time": 137, "note": 62, "velocity": 96, "channel": 0}, {"type": "note_on", "time": 20, "note": 61, "velocity": 102, "channel": 0}, {"type": "note_off", "time": 145, "note": 61, "velocity": 102, "channel": 0}, {"type": "note_on", "time": 25, "note": 60, "velocity": 112, "channel": 0}, {"type": "note_off", "time": 214, "note": 60, "velocity": 112, "channel": 0}, {"type": "note_on", "time": 191, "note": 59, "velocity": 94, "channel": 0}, {"type": "note_off", "time": 337, "note": 59, "velocity": 94, "channel": 0}, {"type": "note_on", "time": 65, "note": 57, "velocity": 99, "channel": 0}, {"type": "note_off", "time": 368, "note": 57, "velocity": 99, "channel": 0}, {"type": "note_on", "time": 94, "note": 57, "velocity": 98, "channel": 0}, {"type": "note_off", "time": 414, "note": 57, "velocity": 98, "channel": 0}, {"type": "note_on", "time": 271, "note": 57, "velocity": 94, "channel": 0}, {"type": "note_off", "time": 165, "note": 57, "velocity": 94, "channel": 0}, {"type": "note_on", "time": 85, "note": 60, "velocity": 114, "channel": 0}, {"type": "note_off", "time": 131, "note": 60, "velocity": 114, "channel": 0}, {"type": "note_on", "time": 42, "note": 63, "velocity": 90, "channel": 0}, {"type": "note_off", "time": 145, "note": 63, "velocity": 90, "channel": 0}, {"type": "note_on", "time": 34, "note": 67, "velocity": 98, "channel": 0}, {"type": "note_off", "time": 240, "note": 67, "velocity": 98, "channel": 0}, {"type": "note_on", "time": 160, "note": 72, "velocity": 106, "channel": 0}, {"type": "note_off", "time": 425, "note": 72, "velocity": 106, "channel": 0}, {"type": "note_on", "time": 202, "note": 67, "velocity": 100, "channel": 0}, {"type": "note_off", "time": 480, "note": 67, "velocity": 100, "channel": 0}, {"type": "note_on", "time": 108, "note": 80, "velocity": 106, "channel": 0}, {"type": "note_off", "time": 362, "note": 80, "velocity": 106, "channel": 0}, {"type": "note_on", "time": 508, "note": 70, "velocity": 96, "channel": 0}, {"type": "note_off", "time": 237, "note": 70, "velocity": 96, "channel": 0}, {"type": "note_on", "time": 208, "note": 65, "velocity": 103, "channel": 0}, {"type": "note_off", "time": 140, "note": 65, "velocity": 103, "channel": 0}, {"type": "note_on", "time": 2, "note": 59, "velocity": 99, "channel": 0}, {"type": "note_off", "time": 111, "note": 59, "velocity": 99, "channel": 0}, {"type": "note_on", "time": 37, "note": 62, "velocity": 102, "channel": 0}, {"type": "note_off", "time": 142, "note": 62, "velocity": 102, "channel": 0}, {"type": "note_on", "time": 45, "note": 65, "velocity": 107, "channel": 0}, {"type": "note_off", "time": 168, "note": 65, "velocity": 107, "channel": 0}, {"type": "note_on", "time": 59, "note": 68, "velocity": 83, "channel": 0}, {"type": "note_off", "time": 105, "note": 68, "velocity": 83, "channel": 0}, {"type": "note_on", "time": 42, "note": 72, "velocity": 112, "channel": 0}, {"type": "note_off", "time": 502, "note": 72, "velocity": 112, "channel": 0}, {"type": "note_on", "time": 114, "note": 67, "velocity": 107, "channel": 0}, {"type": "note_off", "time": 500, "note": 67, "velocity": 107, "channel": 0}, {"type": "note_on", "time": 134, "note": 62, "velocity": 100, "channel": 0}, {"type": "note_off", "time": 199, "note": 62, "velocity": 100, "channel": 0}, {"type": "note_on", "time": 940, "note": 63, "velocity": 102, "channel": 0}, {"type": "note_off", "time": 191, "note": 63, "velocity": 102, "channel": 0}, {"type": "note_on", "time": 17, "note": 65, "velocity": 87, "channel": 0}, {"type": "note_off", "time": 157, "note": 65, "velocity": 87, "channel": 0}, {"type": "note_on", "time": 57, "note": 67, "velocity": 100, "channel": 0}, {"type": "note_off", "time": 122, "note": 67, "velocity": 100, "channel": 0}, {"type": "note_on", "time": 42, "note": 70, "velocity": 121, "channel": 0}, {"type": "note_off", "time": 362, "note": 70, "velocity": 121, "channel": 0}, {"type": "note_on", "time": 48, "note": 70, "velocity": 120, "channel": 0}, {"type": "note_off", "time": 348, "note": 70, "velocity": 120, "channel": 0}, {"type": "note_on", "time": 88, "note": 72, "velocity": 100, "channel": 0}, {"type": "note_off", "time": 177, "note": 72, "velocity": 100, "channel": 0}, {"type": "note_on", "time": 28, "note": 78, "velocity": 90, "channel": 0}, {"type": "note_off", "time": 197, "note": 78, "velocity": 90, "channel": 0}, {"type": "note_on", "time": 388, "note": 77, "velocity": 101, "channel": 0}, {"type": "note_off", "time": 362, "note": 77, "velocity": 101, "channel": 0}, {"type": "note_on", "time": 368, "note": 77, "velocity": 98, "channel": 0}, {"type": "note_off", "time": 194, "note": 77, "velocity": 98, "channel": 0}, {"type": "note_on", "time": 171, "note": 84, "velocity": 90, "channel": 0}, {"type": "note_off", "time": 142, "note": 84, "velocity": 90, "channel": 0}, {"type": "note_on", "time": 25, "note": 87, "velocity": 95, "channel": 0}, {"type": "note_off", "time": 265, "note": 87, "velocity": 95, "channel": 0}, {"type": "note_on", "time": 28, "note": 80, "velocity": 86, "channel": 0}, {"type": "note_off", "time": 100, "note": 80, "velocity": 86, "channel": 0}, {"type": "note_on", "time": 37, "note": 84, "velocity": 84, "channel": 0}, {"type": "note_off", "time": 271, "note": 84, "velocity": 84, "channel": 0}, {"type": "note_on", "time": 157, "note": 67, "velocity": 114, "channel": 0}, {"type": "note_off", "time": 374, "note": 67, "velocity": 114, "channel": 0}, {"type": "note_on", "time": 180, "note": 67, "velocity": 99, "channel": 0}, {"type": "note_off", "time": 308, "note": 67, "velocity": 99, "channel": 0}, {"type": "note_on", "time": 831, "note": 70, "velocity": 118, "channel": 0}, {"type": "note_off", "time": 277, "note": 70, "velocity": 118, "channel": 0}, {"type": "note_on", "time": 85, "note": 82, "velocity": 106, "channel": 0}, {"type": "note_off", "time": 237, "note": 82, "velocity": 106, "channel": 0}, {"type": "note_on", "time": 45, "note": 79, "velocity": 110, "channel": 0}, {"type": "note_off", "time": 242, "note": 79, "velocity": 110, "channel": 0}, {"type": "note_on", "time": 37, "note": 77, "velocity": 83, "channel": 0}, {"type": "note_off", "time": 182, "note": 77, "velocity": 83, "channel": 0}, {"type": "note_on", "time": 22, "note": 75, "velocity": 95, "channel": 0}, {"type": "note_off", "time": 108, "note": 75, "velocity": 95, "channel": 0}, {"type": "note_on", "time": 34, "note": 74, "velocity": 123, "channel": 0}, {"type": "note_off", "time": 388, "note": 74, "velocity": 123, "channel": 0}, {"type": "note_on", "time": 34, "note": 72, "velocity": 112, "channel": 0}, {"type": "note_off", "time": 182, "note": 72, "velocity": 112, "channel": 0}, {"type": "note_on", "time": 17, "note": 74, "velocity": 121, "channel": 0}, {"type": "note_off", "time": 197, "note": 74, "velocity": 121, "channel": 0}, {"type": "note_on", "time": 48, "note": 75, "velocity": 107, "channel": 0}, {"type": "note_off", "time": 294, "note": 75, "velocity": 107, "channel": 0}, {"type": "note_on", "time": 80, "note": 79, "velocity": 107, "channel": 0}, {"type": "note_off", "time": 360, "note": 79, "velocity": 107, "channel": 0}, {"type": "note_on", "time": 99, "note": 74, "velocity": 125, "channel": 0}, {"type": "note_off", "time": 340, "note": 74, "velocity": 125, "channel": 0}, {"type": "note_on", "time": 31, "note": 72, "velocity": 102, "channel": 0}, {"type": "note_off", "time": 388, "note": 72, "velocity": 102, "channel": 0}, {"type": "note_on", "time": 377, "note": 69, "velocity": 99, "channel": 0}, {"type": "note_off", "time": 137, "note": 69, "velocity": 99, "channel": 0}, {"type": "note_on", "time": 28, "note": 66, "velocity": 111, "channel": 0}, {"type": "note_off", "time": 151, "note": 66, "velocity": 111, "channel": 0}, {"type": "note_on", "time": 65, "note": 63, "velocity": 111, "channel": 0}, {"type": "note_off", "time": 114, "note": 63, "velocity": 111, "channel": 0}, {"type": "note_on", "time": 40, "note": 62, "velocity": 111, "channel": 0}, {"type": "note_off", "time": 145, "note": 62, "velocity": 111, "channel": 0}, {"type": "note_on", "time": 54, "note": 60, "velocity": 83, "channel": 0}, {"type": "note_off", "time": 162, "note": 60, "velocity": 83, "channel": 0}, {"type": "note_on", "time": 54, "note": 60, "velocity": 107, "channel": 0}, {"type": "note_off", "time": 365, "note": 60, "velocity": 107, "channel": 0}, {"type": "note_on", "time": 42, "note": 66, "velocity": 115, "channel": 0}, {"type": "note_off", "time": 394, "note": 66, "velocity": 115, "channel": 0}, {"type": "note_on", "time": 51, "note": 72, "velocity": 107, "channel": 0}, {"type": "note_off", "time": 260, "note": 72, "velocity": 107, "channel": 0}, {"type": "note_on", "time": 37, "note": 68, "velocity": 102, "channel": 0}, {"type": "note_off", "time": 102, "note": 68, "velocity": 102, "channel": 0}, {"type": "note_on", "time": 42, "note": 65, "velocity": 98, "channel": 0}, {"type": "note_off", "time": 197, "note": 65, "velocity": 98, "channel": 0}, {"type": "note_on", "time": 17, "note": 70, "velocity": 113, "channel": 0}, {"type": "note_off", "time": 151, "note": 70, "velocity": 113, "channel": 0}, {"type": "note_on", "time": 65, "note": 67, "velocity": 95, "channel": 0}, {"type": "note_off", "time": 157, "note": 67, "velocity": 95, "channel": 0}, {"type": "note_on", "time": 65, "note": 63, "velocity": 104, "channel": 0}, {"type": "note_off", "time": 180, "note": 63, "velocity": 104, "channel": 0}, {"type": "note_on", "time": 88, "note": 60, "velocity": 86, "channel": 0}, {"type": "note_off", "time": 231, "note": 60, "velocity": 86, "channel": 0}, {"type": "note_on", "time": 57, "note": 58, "velocity": 92, "channel": 0}, {"type": "note_off", "time": 180, "note": 58, "velocity": 92, "channel": 0}, {"type": "note_on", "time": 1408, "note": 70, "velocity": 119, "channel": 0}, {"type": "note_off", "time": 157, "note": 70, "velocity": 119, "channel": 0}, {"type": "note_on", "time": 37, "note": 75, "velocity": 111, "channel": 0}, {"type": "note_off", "time": 300, "note": 75, "velocity": 111, "channel": 0}, {"type": "note_on", "time": 71, "note": 70, "velocity": 121, "channel": 0}, {"type": "note_off", "time": 357, "note": 70, "velocity": 121, "channel": 0}, {"type": "note_on", "time": 82, "note": 74, "velocity": 124, "channel": 0}, {"type": "note_off", "time": 245, "note": 74, "velocity": 124, "channel": 0}, {"type": "note_on", "time": 57, "note": 70, "velocity": 105, "channel": 0}, {"type": "note_off", "time": 139, "note": 70, "velocity": 105, "channel": 0}, {"type": "note_on", "time": 22, "note": 68, "velocity": 102, "channel": 0}, {"type": "note_off", "time": 122, "note": 68, "velocity": 102, "channel": 0}, {"type": "note_on", "time": 48, "note": 67, "velocity": 94, "channel": 0}, {"type": "note_off", "time": 148, "note": 67, "velocity": 94, "channel": 0}, {"type": "note_on", "time": 22, "note": 64, "velocity": 108, "channel": 0}, {"type": "note_off", "time": 139, "note": 64, "velocity": 108, "channel": 0}, {"type": "note_on", "time": 57, "note": 62, "velocity": 101, "channel": 0}, {"type": "note_off", "time": 222, "note": 62, "velocity": 101, "channel": 0}, {"type": "note_on", "time": 225, "note": 68, "velocity": 75, "channel": 0}, {"type": "note_off", "time": 282, "note": 68, "velocity": 75, "channel": 0}, {"type": "note_on", "time": 188, "note": 60, "velocity": 101, "channel": 0}, {"type": "note_off", "time": 157, "note": 60, "velocity": 101, "channel": 0}, {"type": "note_on", "time": 25, "note": 64, "velocity": 111, "channel": 0}, {"type": "note_off", "time": 208, "note": 64, "velocity": 111, "channel": 0}, {"type": "note_on", "time": 62, "note": 59, "velocity": 102, "channel": 0}, {"type": "note_off", "time": 248, "note": 59, "velocity": 102, "channel": 0}, {"type": "note_on", "time": 171, "note": 63, "velocity": 93, "channel": 0}, {"type": "note_off", "time": 168, "note": 63, "velocity": 93, "channel": 0}, {"type": "note_on", "time": 40, "note": 58, "velocity": 101, "channel": 0}, {"type": "note_off", "time": 351, "note": 58, "velocity": 101, "channel": 0}, {"type": "note_on", "time": 34, "note": 63, "velocity": 104, "channel": 0}, {"type": "note_off", "time": 177, "note": 63, "velocity": 104, "channel": 0}, {"type": "note_on", "time": 37, "note": 57, "velocity": 95, "channel": 0}, {"type": "note_off", "time": 145, "note": 57, "velocity": 95, "channel": 0}, {"type": "note_on", "time": 39, "note": 60, "velocity": 104, "channel": 0}, {"type": "note_off", "time": 217, "note": 60, "velocity": 104, "channel": 0}, {"type": "note_on", "time": 28, "note": 63, "velocity": 95, "channel": 0}, {"type": "note_off", "time": 157, "note": 63, "velocity": 95, "channel": 0}, {"type": "note_on", "time": 37, "note": 67, "velocity": 111, "channel": 0}, {"type": "note_off", "time": 211, "note": 67, "velocity": 111, "channel": 0}, {"type": "note_on", "time": 51, "note": 72, "velocity": 107, "channel": 0}, {"type": "note_off", "time": 898, "note": 72, "velocity": 107, "channel": 0}, {"type": "note_on", "time": 434, "note": 71, "velocity": 119, "channel": 0}, {"type": "note_off", "time": 369, "note": 71, "velocity": 119, "channel": 0}, {"type": "note_on", "time": 65, "note": 70, "velocity": 122, "channel": 0}, {"type": "note_off", "time": 357, "note": 70, "velocity": 122, "channel": 0}, {"type": "note_on", "time": 81, "note": 71, "velocity": 124, "channel": 0}, {"type": "note_off", "time": 272, "note": 71, "velocity": 124, "channel": 0}, {"type": "note_on", "time": 36, "note": 72, "velocity": 118, "channel": 0}, {"type": "note_off", "time": 142, "note": 72, "velocity": 118, "channel": 0}, {"type": "note_on", "time": 50, "note": 71, "velocity": 115, "channel": 0}, {"type": "note_off", "time": 111, "note": 71, "velocity": 115, "channel": 0}, {"type": "note_on", "time": 114, "note": 68, "velocity": 103, "channel": 0}, {"type": "note_off", "time": 140, "note": 68, "velocity": 103, "channel": 0}, {"type": "note_on", "time": 91, "note": 65, "velocity": 95, "channel": 0}, {"type": "note_off", "time": 251, "note": 65, "velocity": 95, "channel": 0}, {"type": "note_on", "time": 65, "note": 68, "velocity": 104, "channel": 0}, {"type": "note_off", "time": 185, "note": 68, "velocity": 104, "channel": 0}, {"type": "note_on", "time": 74, "note": 70, "velocity": 112, "channel": 0}, {"type": "note_off", "time": 177, "note": 70, "velocity": 112, "channel": 0}, {"type": "note_on", "time": 31, "note": 68, "velocity": 101, "channel": 0}, {"type": "note_off", "time": 197, "note": 68, "velocity": 101, "channel": 0}, {"type": "note_on", "time": 174, "note": 66, "velocity": 87, "channel": 0}, {"type": "note_off", "time": 222, "note": 66, "velocity": 87, "channel": 0}, {"type": "note_on", "time": 94, "note": 65, "velocity": 93, "channel": 0}, {"type": "note_off", "time": 388, "note": 65, "velocity": 93, "channel": 0}, {"type": "note_on", "time": 580, "note": 87, "velocity": 121, "channel": 0}, {"type": "note_off", "time": 205, "note": 87, "velocity": 121, "channel": 0}, {"type": "note_on", "time": 74, "note": 81, "velocity": 92, "channel": 0}, {"type": "note_off", "time": 137, "note": 81, "velocity": 92, "channel": 0}, {"type": "note_on", "time": 51, "note": 80, "velocity": 118, "channel": 0}, {"type": "note_off", "time": 134, "note": 80, "velocity": 118, "channel": 0}, {"type": "note_on", "time": 97, "note": 76, "velocity": 120, "channel": 0}, {"type": "note_off", "time": 128, "note": 76, "velocity": 120, "channel": 0}, {"type": "note_on", "time": 42, "note": 75, "velocity": 118, "channel": 0}, {"type": "note_off", "time": 182, "note": 75, "velocity": 118, "channel": 0}, {"type": "note_on", "time": 77, "note": 71, "velocity": 105, "channel": 0}, {"type": "note_off", "time": 117, "note": 71, "velocity": 105, "channel": 0}, {"type": "note_on", "time": 14, "note": 68, "velocity": 120, "channel": 0}, {"type": "note_off", "time": 234, "note": 68, "velocity": 120, "channel": 0}, {"type": "note_on", "time": 185, "note": 65, "velocity": 104, "channel": 0}, {"type": "note_off", "time": 88, "note": 65, "velocity": 104, "channel": 0}, {"type": "note_on", "time": 34, "note": 68, "velocity": 110, "channel": 0}, {"type": "note_off", "time": 137, "note": 68, "velocity": 110, "channel": 0}, {"type": "note_on", "time": 22, "note": 71, "velocity": 110, "channel": 0}, {"type": "note_off", "time": 122, "note": 71, "velocity": 110, "channel": 0}, {"type": "note_on", "time": 31, "note": 82, "velocity": 106, "channel": 0}, {"type": "note_off", "time": 322, "note": 82, "velocity": 106, "channel": 0}, {"type": "note_on", "time": 45, "note": 80, "velocity": 110, "channel": 0}, {"type": "note_off", "time": 411, "note": 80, "velocity": 110, "channel": 0}, {"type": "note_on", "time": 42, "note": 79, "velocity": 117, "channel": 0}, {"type": "note_off", "time": 271, "note": 79, "velocity": 117, "channel": 0}, {"type": "note_on", "time": 68, "note": 75, "velocity": 97, "channel": 0}, {"type": "note_off", "time": 314, "note": 75, "velocity": 97, "channel": 0}, {"type": "note_on", "time": 68, "note": 70, "velocity": 108, "channel": 0}, {"type": "note_off", "time": 357, "note": 70, "velocity": 108, "channel": 0}, {"type": "note_on", "time": 182, "note": 66, "velocity": 113, "channel": 0}, {"type": "note_off", "time": 422, "note": 66, "velocity": 113, "channel": 0}, {"type": "note_on", "time": 51, "note": 67, "velocity": 99, "channel": 0}, {"type": "note_off", "time": 365, "note": 67, "velocity": 99, "channel": 0}, {"type": "note_on", "time": 40, "note": 68, "velocity": 117, "channel": 0}, {"type": "note_off", "time": 365, "note": 68, "velocity": 117, "channel": 0}, {"type": "note_on", "time": 60, "note": 70, "velocity": 110, "channel": 0}, {"type": "note_off", "time": 322, "note": 70, "velocity": 110, "channel": 0}, {"type": "note_on", "time": 97, "note": 87, "velocity": 111, "channel": 0}, {"type": "note_off", "time": 242, "note": 87, "velocity": 111, "channel": 0}, {"type": "note_on", "time": 182, "note": 86, "velocity": 101, "channel": 0}, {"type": "note_off", "time": 125, "note": 86, "velocity": 101, "channel": 0}, {"type": "note_on", "time": 20, "note": 84, "velocity": 87, "channel": 0}, {"type": "note_off", "time": 117, "note": 84, "velocity": 87, "channel": 0}, {"type": "note_on", "time": 77, "note": 79, "velocity": 89, "channel": 0}, {"type": "note_off", "time": 88, "note": 79, "velocity": 89, "channel": 0}, {"type": "note_on", "time": 28, "note": 82, "velocity": 89, "channel": 0}, {"type": "note_off", "time": 265, "note": 82, "velocity": 89, "channel": 0}, {"type": "end_of_track", "time": 0}]]}