{"ticks_per_beat": 192, "tracks": [[{"type": "track_name", "name": "Melody", "time": 0}, {"type": "set_tempo", "tempo": 312500, "time": 0}, {"type": "key_signature", "key": "F", "time": 0}, {"type": "time_signature", "numerator": 4, "denominator": 4, "clocks_per_click": 24, "notated_32nd_notes_per_beat": 8, "time": 0}, {"type": "note_on", "time": 2046, "note": 72, "velocity": 117, "channel": 0}, {"type": "note_off", "time": 78, "note": 72, "velocity": 117, "channel": 0}, {"type": "note_on", "time": 70, "note": 77, "velocity": 115, "channel": 0}, {"type": "note_off", "time": 80, "note": 77, "velocity": 115, "channel": 0}, {"type": "note_on", "time": 72, "note": 72, "velocity": 107, "channel": 0}, {"type": "note_off", "time": 67, "note": 72, "velocity": 107, "channel": 0}, {"type": "note_on", "time": 14, "note": 77, "velocity": 112, "channel": 0}, {"type": "note_off", "time": 173, "note": 77, "velocity": 112, "channel": 0}, {"type": "note_on", "time": 147, "note": 72, "velocity": 109, "channel": 0}, {"type": "note_off", "time": 48, "note": 72, "velocity": 109, "channel": 0}, {"type": "note_on", "time": 22, "note": 77, "velocity": 120, "channel": 0}, {"type": "note_off", "time": 82, "note": 77, "velocity": 120, "channel": 0}, {"type": "note_on", "time": 44, "note": 72, "velocity": 108, "channel": 0}, {"type": "note_off", "time": 43, "note": 72, "velocity": 108, "channel": 0}, {"type": "note_on", "time": 7, "note": 77, "velocity": 120, "channel": 0}, {"type": "note_off", "time": 115, "note": 77, "velocity": 120, "channel": 0}, {"type": "note_on", "time": 65, "note": 77, "velocity": 112, "channel": 0}, {"type": "note_off", "time": 143, "note": 77, "velocity": 112, "channel": 0}, {"type": "note_on", "time": 41, "note": 81, "velocity": 95, "channel": 0}, {"type": "note_off", "time": 146, "note": 81, "velocity": 95, "channel": 0}, {"type": "note_on", "time": 55, "note": 77, "velocity": 100, "channel": 0}, {"type": "note_off", "time": 99, "note": 77, "velocity": 100, "channel": 0}, {"type": "note_on", "time": 16, "note": 72, "velocity": 119, "channel": 0}, {"type": "note_off", "time": 82, "note": 72, "velocity": 119, "channel": 0}, {"type": "note_on", "time": 12, "note": 74, "velocity": 119, "channel": 0}, {"type": "note_off", "time": 86, "note": 74, "velocity": 119, "channel": 0}, {"type": "note_on", "time": 11, "note": 77, "velocity": 123, "channel": 0}, {"type": "note_off", "time": 65, "note": 77, "velocity": 123, "channel": 0}, {"type": "note_on", "time": 19, "note": 74, "velocity": 119, "channel": 0}, {"type": "note_off", "time": 91, "note": 74, "velocity": 119, "channel": 0}, {"type": "note_on", "time": 27, "note": 72, "velocity": 121, "channel": 0}, {"type": "note_off", "time": 53, "note": 72, "velocity": 121, "channel": 0}, {"type": "note_on", "time": 14, "note": 69, "velocity": 122, "channel": 0}, {"type": "note_off", "time": 90, "note": 69, "velocity": 122, "channel": 0}, {"type": "note_on", "time": 31, "note": 65, "velocity": 102, "channel": 0}, {"type": "note_off", "time": 59, "note": 65, "velocity": 102, "channel": 0}, {"type": "note_on", "time": 5, "note": 69, "velocity": 122, "channel": 0}, {"type": "note_off", "time": 92, "note": 69, "velocity": 122, "channel": 0}, {"type": "note_on", "time": 36, "note": 67, "velocity": 114, "channel": 0}, {"type": "note_off", "time": 61, "note": 67, "velocity": 114, "channel": 0}, {"type": "note_on", "time": 14, "note": 66, "velocity": 123, "channel": 0}, {"type": "note_off", "time": 97, "note": 66, "velocity": 123, "channel": 0}, {"type": "note_on", "time": 16, "note": 67, "velocity": 112, "channel": 0}, {"type": "note_off", "time": 59, "note": 67, "velocity": 112, "channel": 0}, {"type": "note_on", "time": 6, "note": 74, "velocity": 106, "channel": 0}, {"type": "note_off", "time": 180, "note": 74, "velocity": 106, "channel": 0}, {"type": "note_on", "time": 9, "note": 72, "velocity": 111, "channel": 0}, {"type": "note_off", "time": 67, "note": 72, "velocity": 111, "channel": 0}, {"type": "note_on", "time": 126, "note": 65, "velocity": 126, "channel": 0}, {"type": "note_off", "time": 97, "note": 65, "velocity": 126, "channel": 0}, {"type": "note_on", "time": 12, "note": 60, "velocity": 102, "channel": 0}, {"type": "note_off", "time": 56, "note": 60, "velocity": 102, "channel": 0}, {"type": "note_on", "time": 19, "note": 65, "velocity": 121, "channel": 0}, {"type": "note_off", "time": 83, "note": 65, "velocity": 121, "channel": 0}, {"type": "note_on", "time": 18, "note": 69, "velocity": 117, "channel": 0}, {"type": "note_off", "time": 63, "note": 69, "velocity": 117, "channel": 0}, {"type": "note_on", "time": 24, "note": 72, "velocity": 119, "channel": 0}, {"type": "note_off", "time": 88, "note": 72, "velocity": 119, "channel": 0}, {"type": "note_on", "time": 22, "note": 65, "velocity": 123, "channel": 0}, {"type": "note_off", "time": 60, "note": 65, "velocity": 123, "channel": 0}, {"type": "note_on", "time": 13, "note": 69, "velocity": 122, "channel": 0}, {"type": "note_off", "time": 90, "note": 69, "velocity": 122, "channel": 0}, {"type": "note_on", "time": 24, "note": 72, "velocity": 118, "channel": 0}, {"type": "note_off", "time": 55, "note": 72, "velocity": 118, "channel": 0}, {"type": "note_on", "time": 3, "note": 74, "velocity": 122, "channel": 0}, {"type": "note_off", "time": 80, "note": 74, "velocity": 122, "channel": 0}, {"type": "note_on", "time": 32, "note": 70, "velocity": 107, "channel": 0}, {"type": "note_off", "time": 59, "note": 70, "velocity": 107, "channel": 0}, {"type": "note_on", "time": 17, "note": 79, "velocity": 116, "channel": 0}, {"type": "note_off", "time": 140, "note": 79, "velocity": 116, "channel": 0}, {"type": "note_on", "time": 43, "note": 73, "velocity": 117, "channel": 0}, {"type": "note_off", "time": 170, "note": 73, "velocity": 117, "channel": 0}, {"type": "note_on", "time": 266, "note": 72, "velocity": 124, "channel": 0}, {"type": "note_off", "time": 78, "note": 72, "velocity": 124, "channel": 0}, {"type": "note_on", "time": 47, "note": 77, "velocity": 124, "channel": 0}, {"type": "note_off", "time": 92, "note": 77, "velocity": 124, "channel": 0}, {"type": "note_on", "time": 56, "note": 74, "velocity": 123, "channel": 0}, {"type": "note_off", "time": 62, "note": 74, "velocity": 123, "channel": 0}, {"type": "note_on", "time": 20, "note": 68, "velocity": 120, "channel": 0}, {"type": "note_off", "time": 94, "note": 68, "velocity": 120, "channel": 0}, {"type": "note_on", "time": 11, "note": 69, "velocity": 126, "channel": 0}, {"type": "note_off", "time": 73, "note": 69, "velocity": 126, "channel": 0}, {"type": "note_on", "time": 20, "note": 65, "velocity": 112, "channel": 0}, {"type": "note_off", "time": 98, "note": 65, "velocity": 112, "channel": 0}, {"type": "note_on", "time": 18, "note": 68, "velocity": 123, "channel": 0}, {"type": "note_off", "time": 82, "note": 68, "velocity": 123, "channel": 0}, {"type": "note_on", "time": 83, "note": 65, "velocity": 126, "channel": 0}, {"type": "note_off", "time": 82, "note": 65, "velocity": 126, "channel": 0}, {"type": "note_on", "time": 26, "note": 68, "velocity": 124, "channel": 0}, {"type": "note_off", "time": 111, "note": 68, "velocity": 124, "channel": 0}, {"type": "note_on", "time": 54, "note": 65, "velocity": 124, "channel": 0}, {"type": "note_off", "time": 105, "note": 65, "velocity": 124, "channel": 0}, {"type": "note_on", "time": 288, "note": 69, "velocity": 117, "channel": 0}, {"type": "note_off", "time": 81, "note": 69, "velocity": 117, "channel": 0}, {"type": "note_on", "time": 42, "note": 72, "velocity": 110, "channel": 0}, {"type": "note_off", "time": 52, "note": 72, "velocity": 110, "channel": 0}, {"type": "note_on", "time": 8, "note": 77, "velocity": 121, "channel": 0}, {"type": "note_off", "time": 89, "note": 77, "velocity": 121, "channel": 0}, {"type": "note_on", "time": 24, "note": 69, "velocity": 112, "channel": 0}, {"type": "note_off", "time": 58, "note": 69, "velocity": 112, "channel": 0}, {"type": "note_on", "time": 10, "note": 72, "velocity": 118, "channel": 0}, {"type": "note_off", "time": 97, "note": 72, "velocity": 118, "channel": 0}, {"type": "note_on", "time": 24, "note": 77, "velocity": 122, "channel": 0}, {"type": "note_off", "time": 69, "note": 77, "velocity": 122, "channel": 0}, {"type": "note_on", "time": 221, "note": 69, "velocity": 124, "channel": 0}, {"type": "note_off", "time": 65, "note": 69, "velocity": 124, "channel": 0}, {"type": "note_on", "time": 44, "note": 72, "velocity": 111, "channel": 0}, {"type": "note_off", "time": 57, "note": 72, "velocity": 111, "channel": 0}, {"type": "note_on", "time": 12, "note": 77, "velocity": 120, "channel": 0}, {"type": "note_off", "time": 95, "note": 77, "velocity": 120, "channel": 0}, {"type": "note_on", "time": 16, "note": 69, "velocity": 104, "channel": 0}, {"type": "note_off", "time": 59, "note": 69, "velocity": 104, "channel": 0}, {"type": "note_on", "time": 15, "note": 72, "velocity": 119, "channel": 0}, {"type": "note_off", "time": 91, "note": 72, "velocity": 119, "channel": 0}, {"type": "note_on", "time": 18, "note": 77, "velocity": 119, "channel": 0}, {"type": "note_off", "time": 68, "note": 77, "velocity": 119, "channel": 0}, {"type": "note_on", "time": 221, "note": 69, "velocity": 127, "channel": 0}, {"type": "note_off", "time": 83, "note": 69, "velocity": 127, "channel": 0}, {"type": "note_on", "time": 46, "note": 74, "velocity": 116, "channel": 0}, {"type": "note_off", "time": 47, "note": 74, "velocity": 116, "channel": 0}, {"type": "note_on", "time": 10, "note": 77, "velocity": 122, "channel": 0}, {"type": "note_off", "time": 97, "note": 77, "velocity": 122, "channel": 0}, {"type": "note_on", "time": 18, "note": 69, "velocity": 108, "channel": 0}, {"type": "note_off", "time": 48, "note": 69, "velocity": 108, "channel": 0}, {"type": "note_on", "time": 16, "note": 74, "velocity": 123, "channel": 0}, {"type": "note_off", "time": 102, "note": 74, "velocity": 123, "channel": 0}, {"type": "note_on", "time": 30, "note": 77, "velocity": 123, "channel": 0}, {"type": "note_off", "time": 82, "note": 77, "velocity": 123, "channel": 0}, {"type": "note_on", "time": 101, "note": 74, "velocity": 122, "channel": 0}, {"type": "note_off", "time": 66, "note": 74, "velocity": 122, "channel": 0}, {"type": "note_on", "time": 14, "note": 76, "velocity": 125, "channel": 0}, {"type": "note_off", "time": 114, "note": 76, "velocity": 125, "channel": 0}, {"type": "note_on", "time": 16, "note": 75, "velocity": 112, "channel": 0}, {"type": "note_off", "time": 41, "note": 75, "velocity": 112, "channel": 0}, {"type": "note_on", "time": 15, "note": 78, "velocity": 113, "channel": 0}, {"type": "note_off", "time": 78, "note": 78, "velocity": 113, "channel": 0}, {"type": "note_on", "time": 44, "note": 74, "velocity": 112, "channel": 0}, {"type": "note_off", "time": 231, "note": 74, "velocity": 112, "channel": 0}, {"type": "note_on", "time": 16, "note": 72, "velocity": 113, "channel": 0}, {"type": "note_off", "time": 93, "note": 72, "velocity": 113, "channel": 0}, {"type": "note_on", "time": 236, "note": 77, "velocity": 123, "channel": 0}, {"type": "note_off", "time": 74, "note": 77, "velocity": 123, "channel": 0}, {"type": "note_on", "time": 7, "note": 75, "velocity": 122, "channel": 0}, {"type": "note_off", "time": 78, "note": 75, "velocity": 122, "channel": 0}, {"type": "note_on", "time": 19, "note": 74, "velocity": 125, "channel": 0}, {"type": "note_off", "time": 68, "note": 74, "velocity": 125, "channel": 0}, {"type": "note_on", "time": 11, "note": 72, "velocity": 123, "channel": 0}, {"type": "note_off", "time": 102, "note": 72, "velocity": 123, "channel": 0}, {"type": "note_on", "time": 16, "note": 69, "velocity": 120, "channel": 0}, {"type": "note_off", "time": 63, "note": 69, "velocity": 120, "channel": 0}, {"type": "note_on", "time": 22, "note": 65, "velocity": 116, "channel": 0}, {"type": "note_off", "time": 102, "note": 65, "velocity": 116, "channel": 0}, {"type": "note_on", "time": 15, "note": 72, "velocity": 123, "channel": 0}, {"type": "note_off", "time": 89, "note": 72, "velocity": 123, "channel": 0}, {"type": "note_on", "time": 69, "note": 70, "velocity": 121, "channel": 0}, {"type": "note_off", "time": 77, "note": 70, "velocity": 121, "channel": 0}, {"type": "note_on", "time": 7, "note": 72, "velocity": 122, "channel": 0}, {"type": "note_off", "time": 119, "note": 72, "velocity": 122, "channel": 0}, {"type": "note_on", "time": 72, "note": 72, "velocity": 116, "channel": 0}, {"type": "note_off", "time": 209, "note": 72, "velocity": 116, "channel": 0}, {"type": "note_on", "time": 88, "note": 70, "velocity": 119, "channel": 0}, {"type": "note_off", "time": 76, "note": 70, "velocity": 119, "channel": 0}, {"type": "note_on", "time": 32, "note": 68, "velocity": 118, "channel": 0}, {"type": "note_off", "time": 98, "note": 68, "velocity": 118, "channel": 0}, {"type": "note_on", "time": 14, "note": 69, "velocity": 120, "channel": 0}, {"type": "note_off", "time": 82, "note": 69, "velocity": 120, "channel": 0}, {"type": "note_on", "time": 25, "note": 60, "velocity": 99, "channel": 0}, {"type": "note_off", "time": 57, "note": 60, "velocity": 99, "channel": 0}, {"type": "note_on", "time": 9, "note": 62, "velocity": 106, "channel": 0}, {"type": "note_off", "time": 71, "note": 62, "velocity": 106, "channel": 0}, {"type": "note_on", "time": 1, "note": 65, "velocity": 122, "channel": 0}, {"type": "note_off", "time": 104, "note": 65, "velocity": 122, "channel": 0}, {"type": "note_on", "time": 28, "note": 68, "velocity": 120, "channel": 0}, {"type": "note_off", "time": 76, "note": 68, "velocity": 120, "channel": 0}, {"type": "note_on", "time": 14, "note": 71, "velocity": 117, "channel": 0}, {"type": "note_off", "time": 67, "note": 71, "velocity": 117, "channel": 0}, {"type": "note_on", "time": 11, "note": 74, "velocity": 123, "channel": 0}, {"type": "note_off", "time": 82, "note": 74, "velocity": 123, "channel": 0}, {"type": "note_on", "time": 5, "note": 72, "velocity": 123, "channel": 0}, {"type": "note_off", "time": 82, "note": 72, "velocity": 123, "channel": 0}, {"type": "note_on", "time": 110, "note": 65, "velocity": 124, "channel": 0}, {"type": "note_off", "time": 99, "note": 65, "velocity": 124, "channel": 0}, {"type": "note_on", "time": 23, "note": 69, "velocity": 115, "channel": 0}, {"type": "note_off", "time": 86, "note": 69, "velocity": 115, "channel": 0}, {"type": "end_of_track", "time": 0}]]}