{"ticks_per_beat": 192, "tracks": [[{"type": "track_name", "name": "Melody", "time": 0}, {"type": "set_tempo", "tempo": 200668, "time": 0}, {"type": "key_signature", "key": "Bb", "time": 0}, {"type": "time_signature", "numerator": 4, "denominator": 4, "clocks_per_click": 24, "notated_32nd_notes_per_beat": 8, "time": 0}, {"type": "note_on", "time": 4961, "note": 54, "velocity": 108, "channel": 0}, {"type": "note_off", "time": 82, "note": 54, "velocity": 108, "channel": 0}, {"type": "note_on", "time": 15, "note": 53, "velocity": 106, "channel": 0}, {"type": "note_off", "time": 80, "note": 53, "velocity": 106, "channel": 0}, {"type": "note_on", "time": 11, "note": 52, "velocity": 109, "channel": 0}, {"type": "note_off", "time": 82, "note": 52, "velocity": 109, "channel": 0}, {"type": "note_on", "time": 0, "note": 51, "velocity": 105, "channel": 0}, {"type": "note_off", "time": 78, "note": 51, "velocity": 105, "channel": 0}, {"type": "note_on", "time": 23, "note": 53, "velocity": 112, "channel": 0}, {"type": "note_off", "time": 83, "note": 53, "velocity": 112, "channel": 0}, {"type": "note_on", "time": 15, "note": 50, "velocity": 107, "channel": 0}, {"type": "note_off", "time": 204, "note": 50, "velocity": 107, "channel": 0}, {"type": "note_on", "time": 0, "note": 53, "velocity": 111, "channel": 0}, {"type": "note_off", "time": 90, "note": 53, "velocity": 111, "channel": 0}, {"type": "note_on", "time": 29, "note": 50, "velocity": 96, "channel": 0}, {"type": "note_off", "time": 69, "note": 50, "velocity": 96, "channel": 0}, {"type": "note_on", "time": 0, "note": 51, "velocity": 109, "channel": 0}, {"type": "note_off", "time": 184, "note": 51, "velocity": 109, "channel": 0}, {"type": "note_on", "time": 1, "note": 55, "velocity": 106, "channel": 0}, {"type": "note_off", "time": 91, "note": 55, "velocity": 106, "channel": 0}, {"type": "note_on", "time": 23, "note": 52, "velocity": 98, "channel": 0}, {"type": "note_off", "time": 77, "note": 52, "velocity": 98, "channel": 0}, {"type": "note_on", "time": 0, "note": 53, "velocity": 110, "channel": 0}, {"type": "note_off", "time": 186, "note": 53, "velocity": 110, "channel": 0}, {"type": "note_on", "time": 0, "note": 50, "velocity": 107, "channel": 0}, {"type": "note_off", "time": 115, "note": 50, "velocity": 107, "channel": 0}, {"type": "note_on", "time": 5, "note": 48, "velocity": 106, "channel": 0}, {"type": "note_off", "time": 191, "note": 48, "velocity": 106, "channel": 0}, {"type": "note_on", "time": 0, "note": 51, "velocity": 108, "channel": 0}, {"type": "note_off", "time": 187, "note": 51, "velocity": 108, "channel": 0}, {"type": "note_on", "time": 31, "note": 50, "velocity": 107, "channel": 0}, {"type": "note_off", "time": 162, "note": 50, "velocity": 107, "channel": 0}, {"type": "note_on", "time": 36, "note": 48, "velocity": 105, "channel": 0}, {"type": "note_off", "time": 168, "note": 48, "velocity": 105, "channel": 0}, {"type": "note_on", "time": 44, "note": 46, "velocity": 107, "channel": 0}, {"type": "note_off", "time": 199, "note": 46, "velocity": 107, "channel": 0}, {"type": "note_on", "time": 23, "note": 44, "velocity": 110, "channel": 0}, {"type": "note_off", "time": 338, "note": 44, "velocity": 110, "channel": 0}, {"type": "note_on", "time": 637, "note": 68, "velocity": 117, "channel": 0}, {"type": "note_on", "time": 93, "note": 67, "velocity": 113, "channel": 0}, {"type": "note_off", "time": 0, "note": 68, "velocity": 117, "channel": 0}, {"type": "note_off", "time": 65, "note": 67, "velocity": 113, "channel": 0}, {"type": "note_on", "time": 9, "note": 63, "velocity": 115, "channel": 0}, {"type": "note_off", "time": 112, "note": 63, "velocity": 115, "channel": 0}, {"type": "note_on", "time": 0, "note": 58, "velocity": 103, "channel": 0}, {"type": "note_off", "time": 118, "note": 58, "velocity": 103, "channel": 0}, {"type": "note_on", "time": 9, "note": 56, "velocity": 92, "channel": 0}, {"type": "note_off", "time": 61, "note": 56, "velocity": 92, "channel": 0}, {"type": "note_on", "time": 2, "note": 61, "velocity": 111, "channel": 0}, {"type": "note_off", "time": 126, "note": 61, "velocity": 111, "channel": 0}, {"type": "note_on", "time": 0, "note": 63, "velocity": 101, "channel": 0}, {"type": "note_off", "time": 61, "note": 63, "velocity": 101, "channel": 0}, {"type": "note_on", "time": 13, "note": 65, "velocity": 113, "channel": 0}, {"type": "note_off", "time": 86, "note": 65, "velocity": 113, "channel": 0}, {"type": "note_on", "time": 27, "note": 61, "velocity": 96, "channel": 0}, {"type": "note_on", "time": 87, "note": 64, "velocity": 110, "channel": 0}, {"type": "note_off", "time": 0, "note": 61, "velocity": 96, "channel": 0}, {"type": "note_off", "time": 122, "note": 64, "velocity": 110, "channel": 0}, {"type": "note_on", "time": 0, "note": 68, "velocity": 113, "channel": 0}, {"type": "note_off", "time": 98, "note": 68, "velocity": 113, "channel": 0}, {"type": "note_on", "time": 0, "note": 71, "velocity": 107, "channel": 0}, {"type": "note_off", "time": 86, "note": 71, "velocity": 107, "channel": 0}, {"type": "note_on", "time": 49, "note": 64, "velocity": 101, "channel": 0}, {"type": "note_off", "time": 31, "note": 64, "velocity": 101, "channel": 0}, {"type": "note_on", "time": 0, "note": 68, "velocity": 106, "channel": 0}, {"type": "note_off", "time": 62, "note": 68, "velocity": 106, "channel": 0}, {"type": "note_on", "time": 0, "note": 70, "velocity": 109, "channel": 0}, {"type": "note_off", "time": 190, "note": 70, "velocity": 109, "channel": 0}, {"type": "note_on", "time": 0, "note": 73, "velocity": 108, "channel": 0}, {"type": "note_off", "time": 281, "note": 73, "velocity": 108, "channel": 0}, {"type": "note_on", "time": 2, "note": 72, "velocity": 106, "channel": 0}, {"type": "note_off", "time": 26, "note": 72, "velocity": 106, "channel": 0}, {"type": "note_on", "time": 0, "note": 71, "velocity": 105, "channel": 0}, {"type": "note_on", "time": 30, "note": 70, "velocity": 105, "channel": 0}, {"type": "note_off", "time": 0, "note": 71, "velocity": 105, "channel": 0}, {"type": "note_off", "time": 159, "note": 70, "velocity": 105, "channel": 0}, {"type": "note_on", "time": 113, "note": 71, "velocity": 109, "channel": 0}, {"type": "note_off", "time": 44, "note": 71, "velocity": 109, "channel": 0}, {"type": "note_on", "time": 5, "note": 72, "velocity": 108, "channel": 0}, {"type": "note_off", "time": 222, "note": 72, "velocity": 108, "channel": 0}, {"type": "note_on", "time": 4, "note": 71, "velocity": 106, "channel": 0}, {"type": "note_off", "time": 24, "note": 71, "velocity": 106, "channel": 0}, {"type": "note_on", "time": 13, "note": 70, "velocity": 108, "channel": 0}, {"type": "note_off", "time": 49, "note": 70, "velocity": 108, "channel": 0}, {"type": "note_on", "time": 22, "note": 68, "velocity": 111, "channel": 0}, {"type": "note_off", "time": 152, "note": 68, "velocity": 111, "channel": 0}, {"type": "note_on", "time": 590, "note": 69, "velocity": 114, "channel": 0}, {"type": "note_off", "time": 90, "note": 69, "velocity": 114, "channel": 0}, {"type": "note_on", "time": 8, "note": 73, "velocity": 103, "channel": 0}, {"type": "note_off", "time": 83, "note": 73, "velocity": 103, "channel": 0}, {"type": "note_on", "time": 4, "note": 71, "velocity": 108, "channel": 0}, {"type": "note_off", "time": 77, "note": 71, "velocity": 108, "channel": 0}, {"type": "note_on", "time": 23, "note": 69, "velocity": 111, "channel": 0}, {"type": "note_off", "time": 63, "note": 69, "velocity": 111, "channel": 0}, {"type": "note_on", "time": 8, "note": 68, "velocity": 112, "channel": 0}, {"type": "note_off", "time": 104, "note": 68, "velocity": 112, "channel": 0}, {"type": "note_on", "time": 6, "note": 67, "velocity": 112, "channel": 0}, {"type": "note_off", "time": 102, "note": 67, "velocity": 112, "channel": 0}, {"type": "note_on", "time": 8, "note": 66, "velocity": 110, "channel": 0}, {"type": "note_off", "time": 102, "note": 66, "velocity": 110, "channel": 0}, {"type": "note_on", "time": 24, "note": 64, "velocity": 111, "channel": 0}, {"type": "note_off", "time": 74, "note": 64, "velocity": 111, "channel": 0}, {"type": "note_on", "time": 8, "note": 65, "velocity": 111, "channel": 0}, {"type": "note_off", "time": 56, "note": 65, "velocity": 111, "channel": 0}, {"type": "note_on", "time": 15, "note": 64, "velocity": 114, "channel": 0}, {"type": "note_off", "time": 83, "note": 64, "velocity": 114, "channel": 0}, {"type": "note_on", "time": 8, "note": 63, "velocity": 113, "channel": 0}, {"type": "note_off", "time": 81, "note": 63, "velocity": 113, "channel": 0}, {"type": "note_on", "time": 18, "note": 67, "velocity": 107, "channel": 0}, {"type": "note_off", "time": 98, "note": 67, "velocity": 107, "channel": 0}, {"type": "note_on", "time": 2, "note": 65, "velocity": 109, "channel": 0}, {"type": "note_off", "time": 90, "note": 65, "velocity": 109, "channel": 0}, {"type": "note_on", "time": 24, "note": 61, "velocity": 107, "channel": 0}, {"type": "note_off", "time": 80, "note": 61, "velocity": 107, "channel": 0}, {"type": "note_on", "time": 5, "note": 56, "velocity": 101, "channel": 0}, {"type": "note_off", "time": 112, "note": 56, "velocity": 101, "channel": 0}, {"type": "note_on", "time": 12, "note": 53, "velocity": 102, "channel": 0}, {"type": "note_off", "time": 52, "note": 53, "velocity": 102, "channel": 0}, {"type": "note_on", "time": 0, "note": 63, "velocity": 117, "channel": 0}, {"type": "note_off", "time": 120, "note": 63, "velocity": 117, "channel": 0}, {"type": "note_on", "time": 63, "note": 64, "velocity": 119, "channel": 0}, {"type": "note_off", "time": 122, "note": 64, "velocity": 119, "channel": 0}, {"type": "note_on", "time": 84, "note": 65, "velocity": 115, "channel": 0}, {"type": "note_off", "time": 187, "note": 65, "velocity": 115, "channel": 0}, {"type": "note_on", "time": 8, "note": 66, "velocity": 114, "channel": 0}, {"type": "note_off", "time": 111, "note": 66, "velocity": 114, "channel": 0}, {"type": "note_on", "time": 863, "note": 65, "velocity": 118, "channel": 0}, {"type": "note_off", "time": 98, "note": 65, "velocity": 118, "channel": 0}, {"type": "note_on", "time": 18, "note": 62, "velocity": 119, "channel": 0}, {"type": "note_off", "time": 90, "note": 62, "velocity": 119, "channel": 0}, {"type": "note_on", "time": 15, "note": 58, "velocity": 93, "channel": 0}, {"type": "note_off", "time": 84, "note": 58, "velocity": 93, "channel": 0}, {"type": "note_on", "time": 63, "note": 60, "velocity": 116, "channel": 0}, {"type": "note_off", "time": 106, "note": 60, "velocity": 116, "channel": 0}, {"type": "note_on", "time": 102, "note": 56, "velocity": 112, "channel": 0}, {"type": "note_off", "time": 123, "note": 56, "velocity": 112, "channel": 0}, {"type": "note_on", "time": 18, "note": 53, "velocity": 103, "channel": 0}, {"type": "note_off", "time": 49, "note": 53, "velocity": 103, "channel": 0}, {"type": "note_on", "time": 2, "note": 58, "velocity": 110, "channel": 0}, {"type": "note_off", "time": 98, "note": 58, "velocity": 110, "channel": 0}, {"type": "note_on", "time": 12, "note": 56, "velocity": 110, "channel": 0}, {"type": "note_off", "time": 76, "note": 56, "velocity": 110, "channel": 0}, {"type": "note_on", "time": 0, "note": 53, "velocity": 111, "channel": 0}, {"type": "note_off", "time": 104, "note": 53, "velocity": 111, "channel": 0}, {"type": "note_on", "time": 0, "note": 51, "velocity": 113, "channel": 0}, {"type": "note_off", "time": 80, "note": 51, "velocity": 113, "channel": 0}, {"type": "note_on", "time": 2, "note": 48, "velocity": 111, "channel": 0}, {"type": "note_off", "time": 205, "note": 48, "velocity": 111, "channel": 0}, {"type": "note_on", "time": 8, "note": 50, "velocity": 110, "channel": 0}, {"type": "note_off", "time": 190, "note": 50, "velocity": 110, "channel": 0}, {"type": "note_on", "time": 1, "note": 53, "velocity": 110, "channel": 0}, {"type": "note_off", "time": 169, "note": 53, "velocity": 110, "channel": 0}, {"type": "note_on", "time": 22, "note": 58, "velocity": 107, "channel": 0}, {"type": "note_off", "time": 158, "note": 58, "velocity": 107, "channel": 0}, {"type": "note_on", "time": 890, "note": 58, "velocity": 109, "channel": 0}, {"type": "note_off", "time": 76, "note": 58, "velocity": 109, "channel": 0}, {"type": "note_on", "time": 9, "note": 59, "velocity": 104, "channel": 0}, {"type": "note_off", "time": 70, "note": 59, "velocity": 104, "channel": 0}, {"type": "note_on", "time": 8, "note": 64, "velocity": 107, "channel": 0}, {"type": "note_off", "time": 56, "note": 64, "velocity": 107, "channel": 0}, {"type": "note_on", "time": 12, "note": 68, "velocity": 99, "channel": 0}, {"type": "note_off", "time": 76, "note": 68, "velocity": 99, "channel": 0}, {"type": "note_on", "time": 0, "note": 71, "velocity": 115, "channel": 0}, {"type": "note_off", "time": 101, "note": 71, "velocity": 115, "channel": 0}, {"type": "note_on", "time": 6, "note": 68, "velocity": 93, "channel": 0}, {"type": "note_off", "time": 63, "note": 68, "velocity": 93, "channel": 0}, {"type": "note_on", "time": 15, "note": 69, "velocity": 108, "channel": 0}, {"type": "note_off", "time": 95, "note": 69, "velocity": 108, "channel": 0}, {"type": "note_on", "time": 6, "note": 71, "velocity": 112, "channel": 0}, {"type": "note_off", "time": 105, "note": 71, "velocity": 112, "channel": 0}, {"type": "note_on", "time": 5, "note": 72, "velocity": 112, "channel": 0}, {"type": "note_off", "time": 122, "note": 72, "velocity": 112, "channel": 0}, {"type": "note_on", "time": 13, "note": 73, "velocity": 109, "channel": 0}, {"type": "note_off", "time": 109, "note": 73, "velocity": 109, "channel": 0}, {"type": "note_on", "time": 51, "note": 70, "velocity": 112, "channel": 0}, {"type": "note_off", "time": 87, "note": 70, "velocity": 112, "channel": 0}, {"type": "note_on", "time": 79, "note": 66, "velocity": 106, "channel": 0}, {"type": "note_off", "time": 104, "note": 66, "velocity": 106, "channel": 0}, {"type": "note_on", "time": 1, "note": 61, "velocity": 104, "channel": 0}, {"type": "note_off", "time": 61, "note": 61, "velocity": 104, "channel": 0}, {"type": "note_on", "time": 34, "note": 59, "velocity": 105, "channel": 0}, {"type": "note_off", "time": 86, "note": 59, "velocity": 105, "channel": 0}, {"type": "note_on", "time": 0, "note": 63, "velocity": 119, "channel": 0}, {"type": "note_off", "time": 113, "note": 63, "velocity": 119, "channel": 0}, {"type": "note_on", "time": 5, "note": 66, "velocity": 109, "channel": 0}, {"type": "note_off", "time": 70, "note": 66, "velocity": 109, "channel": 0}, {"type": "note_on", "time": 11, "note": 68, "velocity": 109, "channel": 0}, {"type": "note_off", "time": 91, "note": 68, "velocity": 109, "channel": 0}, {"type": "note_on", "time": 0, "note": 73, "velocity": 102, "channel": 0}, {"type": "note_off", "time": 93, "note": 73, "velocity": 102, "channel": 0}, {"type": "note_on", "time": 1, "note": 71, "velocity": 106, "channel": 0}, {"type": "note_off", "time": 93, "note": 71, "velocity": 106, "channel": 0}, {"type": "note_on", "time": 16, "note": 69, "velocity": 106, "channel": 0}, {"type": "note_off", "time": 66, "note": 69, "velocity": 106, "channel": 0}, {"type": "note_on", "time": 19, "note": 68, "velocity": 109, "channel": 0}, {"type": "note_off", "time": 73, "note": 68, "velocity": 109, "channel": 0}, {"type": "note_on", "time": 27, "note": 67, "velocity": 107, "channel": 0}, {"type": "note_off", "time": 69, "note": 67, "velocity": 107, "channel": 0}, {"type": "note_on", "time": 18, "note": 66, "velocity": 104, "channel": 0}, {"type": "note_off", "time": 91, "note": 66, "velocity": 104, "channel": 0}, {"type": "note_on", "time": 13, "note": 69, "velocity": 107, "channel": 0}, {"type": "note_off", "time": 79, "note": 69, "velocity": 107, "channel": 0}, {"type": "note_on", "time": 2, "note": 65, "velocity": 105, "channel": 0}, {"type": "note_off", "time": 97, "note": 65, "velocity": 105, "channel": 0}, {"type": "note_on", "time": 8, "note": 64, "velocity": 113, "channel": 0}, {"type": "note_off", "time": 83, "note": 64, "velocity": 113, "channel": 0}, {"type": "note_on", "time": 9, "note": 63, "velocity": 111, "channel": 0}, {"type": "note_off", "time": 98, "note": 63, "velocity": 111, "channel": 0}, {"type": "note_on", "time": 2, "note": 65, "velocity": 109, "channel": 0}, {"type": "note_off", "time": 93, "note": 65, "velocity": 109, "channel": 0}, {"type": "note_on", "time": 8, "note": 67, "velocity": 101, "channel": 0}, {"type": "note_off", "time": 74, "note": 67, "velocity": 101, "channel": 0}, {"type": "note_on", "time": 16, "note": 69, "velocity": 98, "channel": 0}, {"type": "note_off", "time": 90, "note": 69, "velocity": 98, "channel": 0}, {"type": "note_on", "time": 0, "note": 71, "velocity": 110, "channel": 0}, {"type": "note_off", "time": 102, "note": 71, "velocity": 110, "channel": 0}, {"type": "note_on", "time": 16, "note": 73, "velocity": 104, "channel": 0}, {"type": "note_off", "time": 50, "note": 73, "velocity": 104, "channel": 0}, {"type": "note_on", "time": 7, "note": 74, "velocity": 103, "channel": 0}, {"type": "note_off", "time": 97, "note": 74, "velocity": 103, "channel": 0}, {"type": "note_on", "time": 44, "note": 71, "velocity": 89, "channel": 0}, {"type": "note_off", "time": 79, "note": 71, "velocity": 89, "channel": 0}, {"type": "note_on", "time": 5, "note": 72, "velocity": 108, "channel": 0}, {"type": "note_off", "time": 47, "note": 72, "velocity": 108, "channel": 0}, {"type": "note_on", "time": 5, "note": 71, "velocity": 102, "channel": 0}, {"type": "note_off", "time": 76, "note": 71, "velocity": 102, "channel": 0}, {"type": "note_on", "time": 19, "note": 69, "velocity": 103, "channel": 0}, {"type": "note_off", "time": 87, "note": 69, "velocity": 103, "channel": 0}, {"type": "note_on", "time": 9, "note": 68, "velocity": 104, "channel": 0}, {"type": "note_off", "time": 83, "note": 68, "velocity": 104, "channel": 0}, {"type": "note_on", "time": 12, "note": 67, "velocity": 105, "channel": 0}, {"type": "note_off", "time": 102, "note": 67, "velocity": 105, "channel": 0}, {"type": "note_on", "time": 0, "note": 73, "velocity": 103, "channel": 0}, {"type": "note_off", "time": 79, "note": 73, "velocity": 103, "channel": 0}, {"type": "note_on", "time": 15, "note": 71, "velocity": 107, "channel": 0}, {"type": "note_off", "time": 99, "note": 71, "velocity": 107, "channel": 0}, {"type": "note_on", "time": 16, "note": 69, "velocity": 104, "channel": 0}, {"type": "note_off", "time": 80, "note": 69, "velocity": 104, "channel": 0}, {"type": "note_on", "time": 4, "note": 68, "velocity": 106, "channel": 0}, {"type": "note_off", "time": 74, "note": 68, "velocity": 106, "channel": 0}, {"type": "note_on", "time": 9, "note": 66, "velocity": 108, "channel": 0}, {"type": "note_off", "time": 136, "note": 66, "velocity": 108, "channel": 0}, {"type": "note_on", "time": 2, "note": 65, "velocity": 106, "channel": 0}, {"type": "note_off", "time": 52, "note": 65, "velocity": 106, "channel": 0}, {"type": "note_on", "time": 15, "note": 64, "velocity": 110, "channel": 0}, {"type": "note_off", "time": 88, "note": 64, "velocity": 110, "channel": 0}, {"type": "note_on", "time": 8, "note": 63, "velocity": 115, "channel": 0}, {"type": "note_off", "time": 81, "note": 63, "velocity": 115, "channel": 0}, {"type": "note_on", "time": 18, "note": 67, "velocity": 103, "channel": 0}, {"type": "note_off", "time": 66, "note": 67, "velocity": 103, "channel": 0}, {"type": "note_on", "time": 12, "note": 65, "velocity": 104, "channel": 0}, {"type": "note_off", "time": 329, "note": 65, "velocity": 104, "channel": 0}, {"type": "note_on", "time": 0, "note": 66, "velocity": 106, "channel": 0}, {"type": "note_off", "time": 63, "note": 66, "velocity": 106, "channel": 0}, {"type": "note_on", "time": 12, "note": 64, "velocity": 109, "channel": 0}, {"type": "note_off", "time": 172, "note": 64, "velocity": 109, "channel": 0}, {"type": "note_on", "time": 6, "note": 63, "velocity": 113, "channel": 0}, {"type": "note_off", "time": 93, "note": 63, "velocity": 113, "channel": 0}, {"type": "note_on", "time": 6, "note": 62, "velocity": 111, "channel": 0}, {"type": "note_off", "time": 84, "note": 62, "velocity": 111, "channel": 0}, {"type": "note_on", "time": 13, "note": 61, "velocity": 109, "channel": 0}, {"type": "note_off", "time": 66, "note": 61, "velocity": 109, "channel": 0}, {"type": "note_on", "time": 9, "note": 65, "velocity": 111, "channel": 0}, {"type": "note_off", "time": 93, "note": 65, "velocity": 111, "channel": 0}, {"type": "note_on", "time": 0, "note": 63, "velocity": 113, "channel": 0}, {"type": "note_off", "time": 77, "note": 63, "velocity": 113, "channel": 0}, {"type": "note_on", "time": 15, "note": 61, "velocity": 107, "channel": 0}, {"type": "note_off", "time": 105, "note": 61, "velocity": 107, "channel": 0}, {"type": "note_on", "time": 6, "note": 57, "velocity": 110, "channel": 0}, {"type": "note_off", "time": 73, "note": 57, "velocity": 110, "channel": 0}, {"type": "note_on", "time": 90, "note": 60, "velocity": 104, "channel": 0}, {"type": "note_off", "time": 47, "note": 60, "velocity": 104, "channel": 0}, {"type": "note_on", "time": 16, "note": 62, "velocity": 110, "channel": 0}, {"type": "note_off", "time": 43, "note": 62, "velocity": 110, "channel": 0}, {"type": "note_on", "time": 95, "note": 62, "velocity": 111, "channel": 0}, {"type": "note_off", "time": 104, "note": 62, "velocity": 111, "channel": 0}, {"type": "note_on", "time": 2021, "note": 61, "velocity": 117, "channel": 0}, {"type": "note_off", "time": 86, "note": 61, "velocity": 117, "channel": 0}, {"type": "note_on", "time": 80, "note": 62, "velocity": 124, "channel": 0}, {"type": "note_off", "time": 119, "note": 62, "velocity": 124, "channel": 0}, {"type": "note_on", "time": 52, "note": 58, "velocity": 106, "channel": 0}, {"type": "note_off", "time": 47, "note": 58, "velocity": 106, "channel": 0}, {"type": "note_on", "time": 1, "note": 61, "velocity": 117, "channel": 0}, {"type": "note_off", "time": 87, "note": 61, "velocity": 117, "channel": 0}, {"type": "note_on", "time": 18, "note": 62, "velocity": 124, "channel": 0}, {"type": "note_off", "time": 124, "note": 62, "velocity": 124, "channel": 0}, {"type": "note_on", "time": 149, "note": 60, "velocity": 117, "channel": 0}, {"type": "note_off", "time": 81, "note": 60, "velocity": 117, "channel": 0}, {"type": "note_on", "time": 106, "note": 61, "velocity": 118, "channel": 0}, {"type": "note_off", "time": 119, "note": 61, "velocity": 118, "channel": 0}, {"type": "note_on", "time": 1355, "note": 53, "velocity": 113, "channel": 0}, {"type": "note_off", "time": 85, "note": 53, "velocity": 113, "channel": 0}, {"type": "note_on", "time": 0, "note": 58, "velocity": 107, "channel": 0}, {"type": "note_off", "time": 78, "note": 58, "velocity": 107, "channel": 0}, {"type": "note_on", "time": 14, "note": 62, "velocity": 123, "channel": 0}, {"type": "note_off", "time": 69, "note": 62, "velocity": 123, "channel": 0}, {"type": "note_on", "time": 1, "note": 63, "velocity": 124, "channel": 0}, {"type": "note_off", "time": 112, "note": 63, "velocity": 124, "channel": 0}, {"type": "note_on", "time": 15, "note": 61, "velocity": 102, "channel": 0}, {"type": "note_off", "time": 77, "note": 61, "velocity": 102, "channel": 0}, {"type": "note_on", "time": 8, "note": 62, "velocity": 121, "channel": 0}, {"type": "note_off", "time": 86, "note": 62, "velocity": 121, "channel": 0}, {"type": "note_on", "time": 13, "note": 60, "velocity": 101, "channel": 0}, {"type": "note_off", "time": 73, "note": 60, "velocity": 101, "channel": 0}, {"type": "note_on", "time": 19, "note": 59, "velocity": 108, "channel": 0}, {"type": "note_off", "time": 79, "note": 59, "velocity": 108, "channel": 0}, {"type": "note_on", "time": 23, "note": 62, "velocity": 106, "channel": 0}, {"type": "note_off", "time": 43, "note": 62, "velocity": 106, "channel": 0}, {"type": "note_on", "time": 11, "note": 65, "velocity": 116, "channel": 0}, {"type": "note_off", "time": 93, "note": 65, "velocity": 116, "channel": 0}, {"type": "note_on", "time": 44, "note": 62, "velocity": 110, "channel": 0}, {"type": "note_on", "time": 59, "note": 68, "velocity": 117, "channel": 0}, {"type": "note_off", "time": 0, "note": 62, "velocity": 110, "channel": 0}, {"type": "note_off", "time": 59, "note": 68, "velocity": 117, "channel": 0}, {"type": "note_on", "time": 22, "note": 66, "velocity": 114, "channel": 0}, {"type": "note_off", "time": 81, "note": 66, "velocity": 114, "channel": 0}, {"type": "note_on", "time": 16, "note": 65, "velocity": 111, "channel": 0}, {"type": "note_off", "time": 41, "note": 65, "velocity": 111, "channel": 0}, {"type": "note_on", "time": 22, "note": 64, "velocity": 116, "channel": 0}, {"type": "note_off", "time": 93, "note": 64, "velocity": 116, "channel": 0}, {"type": "note_on", "time": 2, "note": 63, "velocity": 117, "channel": 0}, {"type": "note_off", "time": 79, "note": 63, "velocity": 117, "channel": 0}, {"type": "note_on", "time": 31, "note": 62, "velocity": 117, "channel": 0}, {"type": "note_off", "time": 98, "note": 62, "velocity": 117, "channel": 0}, {"type": "note_on", "time": 0, "note": 60, "velocity": 110, "channel": 0}, {"type": "note_off", "time": 62, "note": 60, "velocity": 110, "channel": 0}, {"type": "note_on", "time": 13, "note": 59, "velocity": 106, "channel": 0}, {"type": "note_off", "time": 130, "note": 59, "velocity": 106, "channel": 0}, {"type": "note_on", "time": 0, "note": 58, "velocity": 112, "channel": 0}, {"type": "note_off", "time": 59, "note": 58, "velocity": 112, "channel": 0}, {"type": "note_on", "time": 16, "note": 55, "velocity": 107, "channel": 0}, {"type": "note_off", "time": 66, "note": 55, "velocity": 107, "channel": 0}, {"type": "note_on", "time": 24, "note": 51, "velocity": 108, "channel": 0}, {"type": "note_off", "time": 147, "note": 51, "velocity": 108, "channel": 0}, {"type": "note_on", "time": 16, "note": 49, "velocity": 98, "channel": 0}, {"type": "note_off", "time": 51, "note": 49, "velocity": 98, "channel": 0}, {"type": "note_on", "time": 0, "note": 53, "velocity": 112, "channel": 0}, {"type": "note_off", "time": 108, "note": 53, "velocity": 112, "channel": 0}, {"type": "note_on", "time": 1, "note": 52, "velocity": 112, "channel": 0}, {"type": "note_off", "time": 69, "note": 52, "velocity": 112, "channel": 0}, {"type": "note_on", "time": 12, "note": 51, "velocity": 109, "channel": 0}, {"type": "note_off", "time": 93, "note": 51, "velocity": 109, "channel": 0}, {"type": "note_on", "time": 2, "note": 53, "velocity": 109, "channel": 0}, {"type": "note_off", "time": 112, "note": 53, "velocity": 109, "channel": 0}, {"type": "note_on", "time": 9, "note": 50, "velocity": 103, "channel": 0}, {"type": "note_off", "time": 40, "note": 50, "velocity": 103, "channel": 0}, {"type": "note_on", "time": 54, "note": 53, "velocity": 112, "channel": 0}, {"type": "note_on", "time": 72, "note": 57, "velocity": 107, "channel": 0}, {"type": "note_off", "time": 0, "note": 53, "velocity": 112, "channel": 0}, {"type": "note_off", "time": 95, "note": 57, "velocity": 107, "channel": 0}, {"type": "note_on", "time": 20, "note": 60, "velocity": 112, "channel": 0}, {"type": "note_off", "time": 101, "note": 60, "velocity": 112, "channel": 0}, {"type": "note_on", "time": 15, "note": 58, "velocity": 108, "channel": 0}, {"type": "note_off", "time": 72, "note": 58, "velocity": 108, "channel": 0}, {"type": "note_on", "time": 18, "note": 60, "velocity": 107, "channel": 0}, {"type": "note_off", "time": 119, "note": 60, "velocity": 107, "channel": 0}, {"type": "note_on", "time": 40, "note": 62, "velocity": 102, "channel": 0}, {"type": "note_off", "time": 51, "note": 62, "velocity": 102, "channel": 0}, {"type": "note_on", "time": 4, "note": 65, "velocity": 99, "channel": 0}, {"type": "note_off", "time": 33, "note": 65, "velocity": 99, "channel": 0}, {"type": "note_on", "time": 0, "note": 70, "velocity": 116, "channel": 0}, {"type": "note_off", "time": 104, "note": 70, "velocity": 116, "channel": 0}, {"type": "note_on", "time": 20, "note": 62, "velocity": 114, "channel": 0}, {"type": "note_off", "time": 112, "note": 62, "velocity": 114, "channel": 0}, {"type": "note_on", "time": 2096, "note": 65, "velocity": 121, "channel": 0}, {"type": "note_off", "time": 87, "note": 65, "velocity": 121, "channel": 0}, {"type": "note_on", "time": 5, "note": 64, "velocity": 119, "channel": 0}, {"type": "note_off", "time": 73, "note": 64, "velocity": 119, "channel": 0}, {"type": "note_on", "time": 12, "note": 63, "velocity": 116, "channel": 0}, {"type": "note_off", "time": 91, "note": 63, "velocity": 116, "channel": 0}, {"type": "note_on", "time": 43, "note": 58, "velocity": 94, "channel": 0}, {"type": "note_off", "time": 52, "note": 58, "velocity": 94, "channel": 0}, {"type": "note_on", "time": 0, "note": 60, "velocity": 112, "channel": 0}, {"type": "note_off", "time": 61, "note": 60, "velocity": 112, "channel": 0}, {"type": "note_on", "time": 15, "note": 62, "velocity": 111, "channel": 0}, {"type": "note_off", "time": 109, "note": 62, "velocity": 111, "channel": 0}, {"type": "note_on", "time": 13, "note": 63, "velocity": 119, "channel": 0}, {"type": "note_off", "time": 99, "note": 63, "velocity": 119, "channel": 0}, {"type": "note_on", "time": 33, "note": 61, "velocity": 104, "channel": 0}, {"type": "note_on", "time": 52, "note": 62, "velocity": 118, "channel": 0}, {"type": "note_off", "time": 0, "note": 61, "velocity": 104, "channel": 0}, {"type": "note_off", "time": 101, "note": 62, "velocity": 118, "channel": 0}, {"type": "note_on", "time": 2, "note": 60, "velocity": 108, "channel": 0}, {"type": "note_off", "time": 94, "note": 60, "velocity": 108, "channel": 0}, {"type": "note_on", "time": 0, "note": 58, "velocity": 102, "channel": 0}, {"type": "note_off", "time": 76, "note": 58, "velocity": 102, "channel": 0}, {"type": "note_on", "time": 52, "note": 55, "velocity": 95, "channel": 0}, {"type": "note_off", "time": 66, "note": 55, "velocity": 95, "channel": 0}, {"type": "note_on", "time": 2, "note": 60, "velocity": 115, "channel": 0}, {"type": "note_off", "time": 95, "note": 60, "velocity": 115, "channel": 0}, {"type": "note_on", "time": 18, "note": 56, "velocity": 107, "channel": 0}, {"type": "note_off", "time": 77, "note": 56, "velocity": 107, "channel": 0}, {"type": "note_on", "time": 20, "note": 55, "velocity": 107, "channel": 0}, {"type": "note_off", "time": 90, "note": 55, "velocity": 107, "channel": 0}, {"type": "note_on", "time": 12, "note": 53, "velocity": 106, "channel": 0}, {"type": "note_off", "time": 68, "note": 53, "velocity": 106, "channel": 0}, {"type": "note_on", "time": 0, "note": 58, "velocity": 110, "channel": 0}, {"type": "note_off", "time": 105, "note": 58, "velocity": 110, "channel": 0}, {"type": "note_on", "time": 19, "note": 55, "velocity": 111, "channel": 0}, {"type": "note_off", "time": 61, "note": 55, "velocity": 111, "channel": 0}, {"type": "note_on", "time": 11, "note": 56, "velocity": 106, "channel": 0}, {"type": "note_off", "time": 95, "note": 56, "velocity": 106, "channel": 0}, {"type": "note_on", "time": 0, "note": 58, "velocity": 108, "channel": 0}, {"type": "note_off", "time": 83, "note": 58, "velocity": 108, "channel": 0}, {"type": "note_on", "time": 0, "note": 55, "velocity": 102, "channel": 0}, {"type": "note_off", "time": 83, "note": 55, "velocity": 102, "channel": 0}, {"type": "note_on", "time": 15, "note": 54, "velocity": 107, "channel": 0}, {"type": "note_off", "time": 76, "note": 54, "velocity": 107, "channel": 0}, {"type": "note_on", "time": 13, "note": 53, "velocity": 109, "channel": 0}, {"type": "note_off", "time": 84, "note": 53, "velocity": 109, "channel": 0}, {"type": "note_on", "time": 27, "note": 52, "velocity": 106, "channel": 0}, {"type": "note_off", "time": 98, "note": 52, "velocity": 106, "channel": 0}, {"type": "note_on", "time": 0, "note": 51, "velocity": 108, "channel": 0}, {"type": "note_off", "time": 101, "note": 51, "velocity": 108, "channel": 0}, {"type": "note_on", "time": 12, "note": 54, "velocity": 107, "channel": 0}, {"type": "note_off", "time": 48, "note": 54, "velocity": 107, "channel": 0}, {"type": "note_on", "time": 12, "note": 58, "velocity": 107, "channel": 0}, {"type": "note_off", "time": 91, "note": 58, "velocity": 107, "channel": 0}, {"type": "note_on", "time": 26, "note": 61, "velocity": 98, "channel": 0}, {"type": "note_off", "time": 65, "note": 61, "velocity": 98, "channel": 0}, {"type": "note_on", "time": 13, "note": 65, "velocity": 114, "channel": 0}, {"type": "note_off", "time": 102, "note": 65, "velocity": 114, "channel": 0}, {"type": "note_on", "time": 11, "note": 63, "velocity": 102, "channel": 0}, {"type": "note_off", "time": 80, "note": 63, "velocity": 102, "channel": 0}, {"type": "note_on", "time": 6, "note": 70, "velocity": 107, "channel": 0}, {"type": "note_off", "time": 80, "note": 70, "velocity": 107, "channel": 0}, {"type": "note_on", "time": 26, "note": 66, "velocity": 109, "channel": 0}, {"type": "note_off", "time": 79, "note": 66, "velocity": 109, "channel": 0}, {"type": "note_on", "time": 11, "note": 65, "velocity": 108, "channel": 0}, {"type": "note_off", "time": 76, "note": 65, "velocity": 108, "channel": 0}, {"type": "note_on", "time": 13, "note": 64, "velocity": 117, "channel": 0}, {"type": "note_off", "time": 66, "note": 64, "velocity": 117, "channel": 0}, {"type": "note_on", "time": 11, "note": 63, "velocity": 115, "channel": 0}, {"type": "note_off", "time": 88, "note": 63, "velocity": 115, "channel": 0}, {"type": "note_on", "time": 13, "note": 65, "velocity": 113, "channel": 0}, {"type": "note_off", "time": 94, "note": 65, "velocity": 113, "channel": 0}, {"type": "note_on", "time": 5, "note": 62, "velocity": 112, "channel": 0}, {"type": "note_off", "time": 115, "note": 62, "velocity": 112, "channel": 0}, {"type": "note_on", "time": 5, "note": 60, "velocity": 111, "channel": 0}, {"type": "note_off", "time": 72, "note": 60, "velocity": 111, "channel": 0}, {"type": "note_on", "time": 6, "note": 57, "velocity": 107, "channel": 0}, {"type": "note_off", "time": 86, "note": 57, "velocity": 107, "channel": 0}, {"type": "note_on", "time": 15, "note": 53, "velocity": 104, "channel": 0}, {"type": "note_off", "time": 80, "note": 53, "velocity": 104, "channel": 0}, {"type": "note_on", "time": 0, "note": 58, "velocity": 108, "channel": 0}, {"type": "note_off", "time": 105, "note": 58, "velocity": 108, "channel": 0}, {"type": "note_on", "time": 26, "note": 53, "velocity": 92, "channel": 0}, {"type": "note_off", "time": 52, "note": 53, "velocity": 92, "channel": 0}, {"type": "note_on", "time": 0, "note": 58, "velocity": 105, "channel": 0}, {"type": "note_off", "time": 116, "note": 58, "velocity": 105, "channel": 0}, {"type": "note_on", "time": 0, "note": 62, "velocity": 116, "channel": 0}, {"type": "note_off", "time": 90, "note": 62, "velocity": 116, "channel": 0}, {"type": "note_on", "time": 12, "note": 63, "velocity": 117, "channel": 0}, {"type": "note_off", "time": 88, "note": 63, "velocity": 117, "channel": 0}, {"type": "note_on", "time": 23, "note": 61, "velocity": 106, "channel": 0}, {"type": "note_off", "time": 68, "note": 61, "velocity": 106, "channel": 0}, {"type": "note_on", "time": 11, "note": 62, "velocity": 113, "channel": 0}, {"type": "note_off", "time": 97, "note": 62, "velocity": 113, "channel": 0}, {"type": "note_on", "time": 13, "note": 60, "velocity": 105, "channel": 0}, {"type": "note_off", "time": 97, "note": 60, "velocity": 105, "channel": 0}, {"type": "note_on", "time": 0, "note": 59, "velocity": 101, "channel": 0}, {"type": "note_off", "time": 83, "note": 59, "velocity": 101, "channel": 0}, {"type": "note_on", "time": 29, "note": 62, "velocity": 104, "channel": 0}, {"type": "note_off", "time": 49, "note": 62, "velocity": 104, "channel": 0}, {"type": "note_on", "time": 16, "note": 65, "velocity": 113, "channel": 0}, {"type": "note_off", "time": 99, "note": 65, "velocity": 113, "channel": 0}, {"type": "note_on", "time": 56, "note": 62, "velocity": 104, "channel": 0}, {"type": "note_off", "time": 54, "note": 62, "velocity": 104, "channel": 0}, {"type": "note_on", "time": 6, "note": 68, "velocity": 111, "channel": 0}, {"type": "note_off", "time": 62, "note": 68, "velocity": 111, "channel": 0}, {"type": "note_on", "time": 7, "note": 67, "velocity": 105, "channel": 0}, {"type": "note_off", "time": 83, "note": 67, "velocity": 105, "channel": 0}, {"type": "note_on", "time": 49, "note": 65, "velocity": 105, "channel": 0}, {"type": "note_off", "time": 70, "note": 65, "velocity": 105, "channel": 0}, {"type": "note_on", "time": 1, "note": 64, "velocity": 117, "channel": 0}, {"type": "note_off", "time": 83, "note": 64, "velocity": 117, "channel": 0}, {"type": "note_on", "time": 36, "note": 63, "velocity": 112, "channel": 0}, {"type": "note_off", "time": 82, "note": 63, "velocity": 112, "channel": 0}, {"type": "note_on", "time": 5, "note": 65, "velocity": 106, "channel": 0}, {"type": "note_off", "time": 48, "note": 65, "velocity": 106, "channel": 0}, {"type": "note_on", "time": 3, "note": 68, "velocity": 97, "channel": 0}, {"type": "note_off", "time": 38, "note": 68, "velocity": 97, "channel": 0}, {"type": "note_on", "time": 108, "note": 71, "velocity": 97, "channel": 0}, {"type": "note_off", "time": 47, "note": 71, "velocity": 97, "channel": 0}, {"type": "note_on", "time": 40, "note": 74, "velocity": 108, "channel": 0}, {"type": "note_off", "time": 83, "note": 74, "velocity": 108, "channel": 0}, {"type": "note_on", "time": 9, "note": 73, "velocity": 108, "channel": 0}, {"type": "note_off", "time": 46, "note": 73, "velocity": 108, "channel": 0}, {"type": "note_on", "time": 5, "note": 72, "velocity": 108, "channel": 0}, {"type": "note_off", "time": 63, "note": 72, "velocity": 108, "channel": 0}, {"type": "note_on", "time": 5, "note": 71, "velocity": 109, "channel": 0}, {"type": "note_off", "time": 59, "note": 71, "velocity": 109, "channel": 0}, {"type": "note_on", "time": 18, "note": 69, "velocity": 108, "channel": 0}, {"type": "note_off", "time": 64, "note": 69, "velocity": 108, "channel": 0}, {"type": "note_on", "time": 8, "note": 67, "velocity": 102, "channel": 0}, {"type": "note_off", "time": 78, "note": 67, "velocity": 102, "channel": 0}, {"type": "note_on", "time": 15, "note": 66, "velocity": 107, "channel": 0}, {"type": "note_off", "time": 86, "note": 66, "velocity": 107, "channel": 0}, {"type": "note_on", "time": 25, "note": 65, "velocity": 108, "channel": 0}, {"type": "note_off", "time": 64, "note": 65, "velocity": 108, "channel": 0}, {"type": "note_on", "time": 14, "note": 64, "velocity": 116, "channel": 0}, {"type": "note_off", "time": 82, "note": 64, "velocity": 116, "channel": 0}, {"type": "note_on", "time": 3, "note": 63, "velocity": 112, "channel": 0}, {"type": "note_off", "time": 100, "note": 63, "velocity": 112, "channel": 0}, {"type": "note_on", "time": 0, "note": 67, "velocity": 107, "channel": 0}, {"type": "note_off", "time": 96, "note": 67, "velocity": 107, "channel": 0}, {"type": "note_on", "time": 0, "note": 65, "velocity": 108, "channel": 0}, {"type": "note_off", "time": 76, "note": 65, "velocity": 108, "channel": 0}, {"type": "note_on", "time": 13, "note": 61, "velocity": 106, "channel": 0}, {"type": "note_off", "time": 78, "note": 61, "velocity": 106, "channel": 0}, {"type": "note_on", "time": 0, "note": 58, "velocity": 104, "channel": 0}, {"type": "note_off", "time": 88, "note": 58, "velocity": 104, "channel": 0}, {"type": "note_on", "time": 15, "note": 55, "velocity": 103, "channel": 0}, {"type": "note_off", "time": 60, "note": 55, "velocity": 103, "channel": 0}, {"type": "note_on", "time": 28, "note": 61, "velocity": 111, "channel": 0}, {"type": "note_off", "time": 116, "note": 61, "velocity": 111, "channel": 0}, {"type": "note_on", "time": 6, "note": 58, "velocity": 94, "channel": 0}, {"type": "note_off", "time": 63, "note": 58, "velocity": 94, "channel": 0}, {"type": "note_on", "time": 10, "note": 62, "velocity": 117, "channel": 0}, {"type": "note_off", "time": 103, "note": 62, "velocity": 117, "channel": 0}, {"type": "note_on", "time": 67, "note": 63, "velocity": 108, "channel": 0}, {"type": "note_off", "time": 177, "note": 63, "velocity": 108, "channel": 0}, {"type": "note_on", "time": 23, "note": 64, "velocity": 116, "channel": 0}, {"type": "note_off", "time": 129, "note": 64, "velocity": 116, "channel": 0}, {"type": "note_on", "time": 23, "note": 60, "velocity": 100, "channel": 0}, {"type": "note_off", "time": 55, "note": 60, "velocity": 100, "channel": 0}, {"type": "note_on", "time": 10, "note": 65, "velocity": 101, "channel": 0}, {"type": "note_off", "time": 122, "note": 65, "velocity": 101, "channel": 0}, {"type": "note_on", "time": 713, "note": 53, "velocity": 111, "channel": 0}, {"type": "note_off", "time": 309, "note": 53, "velocity": 111, "channel": 0}, {"type": "note_on", "time": 0, "note": 58, "velocity": 110, "channel": 0}, {"type": "note_off", "time": 87, "note": 58, "velocity": 110, "channel": 0}, {"type": "note_on", "time": 25, "note": 53, "velocity": 97, "channel": 0}, {"type": "note_off", "time": 48, "note": 53, "velocity": 97, "channel": 0}, {"type": "note_on", "time": 0, "note": 60, "velocity": 115, "channel": 0}, {"type": "note_off", "time": 108, "note": 60, "velocity": 115, "channel": 0}, {"type": "note_on", "time": 456, "note": 53, "velocity": 104, "channel": 0}, {"type": "note_off", "time": 203, "note": 53, "velocity": 104, "channel": 0}, {"type": "note_on", "time": 11, "note": 58, "velocity": 107, "channel": 0}, {"type": "note_off", "time": 104, "note": 58, "velocity": 107, "channel": 0}, {"type": "note_on", "time": 567, "note": 54, "velocity": 101, "channel": 0}, {"type": "note_off", "time": 251, "note": 54, "velocity": 101, "channel": 0}, {"type": "note_on", "time": 0, "note": 59, "velocity": 114, "channel": 0}, {"type": "note_off", "time": 109, "note": 59, "velocity": 114, "channel": 0}, {"type": "note_on", "time": 11, "note": 54, "velocity": 106, "channel": 0}, {"type": "note_off", "time": 58, "note": 54, "velocity": 106, "channel": 0}, {"type": "note_on", "time": 4, "note": 61, "velocity": 114, "channel": 0}, {"type": "note_off", "time": 89, "note": 61, "velocity": 114, "channel": 0}, {"type": "note_on", "time": 7, "note": 63, "velocity": 115, "channel": 0}, {"type": "note_off", "time": 78, "note": 63, "velocity": 115, "channel": 0}, {"type": "note_on", "time": 3, "note": 64, "velocity": 117, "channel": 0}, {"type": "note_off", "time": 131, "note": 64, "velocity": 117, "channel": 0}, {"type": "note_on", "time": 415, "note": 66, "velocity": 118, "channel": 0}, {"type": "note_off", "time": 87, "note": 66, "velocity": 118, "channel": 0}, {"type": "note_on", "time": 7, "note": 63, "velocity": 119, "channel": 0}, {"type": "note_off", "time": 100, "note": 63, "velocity": 119, "channel": 0}, {"type": "note_on", "time": 0, "note": 61, "velocity": 108, "channel": 0}, {"type": "note_off", "time": 88, "note": 61, "velocity": 108, "channel": 0}, {"type": "note_on", "time": 3, "note": 59, "velocity": 108, "channel": 0}, {"type": "note_off", "time": 48, "note": 59, "velocity": 108, "channel": 0}, {"type": "note_on", "time": 7, "note": 58, "velocity": 92, "channel": 0}, {"type": "note_off", "time": 89, "note": 58, "velocity": 92, "channel": 0}, {"type": "note_on", "time": 17, "note": 59, "velocity": 109, "channel": 0}, {"type": "note_off", "time": 82, "note": 59, "velocity": 109, "channel": 0}, {"type": "note_on", "time": 16, "note": 61, "velocity": 111, "channel": 0}, {"type": "note_off", "time": 82, "note": 61, "velocity": 111, "channel": 0}, {"type": "note_on", "time": 11, "note": 63, "velocity": 115, "channel": 0}, {"type": "note_off", "time": 100, "note": 63, "velocity": 115, "channel": 0}, {"type": "note_on", "time": 6, "note": 66, "velocity": 112, "channel": 0}, {"type": "note_off", "time": 81, "note": 66, "velocity": 112, "channel": 0}, {"type": "note_on", "time": 5, "note": 65, "velocity": 113, "channel": 0}, {"type": "note_off", "time": 86, "note": 65, "velocity": 113, "channel": 0}, {"type": "note_on", "time": 2, "note": 64, "velocity": 120, "channel": 0}, {"type": "note_off", "time": 91, "note": 64, "velocity": 120, "channel": 0}, {"type": "note_on", "time": 1, "note": 63, "velocity": 120, "channel": 0}, {"type": "note_off", "time": 83, "note": 63, "velocity": 120, "channel": 0}, {"type": "note_on", "time": 0, "note": 67, "velocity": 110, "channel": 0}, {"type": "note_off", "time": 72, "note": 67, "velocity": 110, "channel": 0}, {"type": "note_on", "time": 27, "note": 62, "velocity": 114, "channel": 0}, {"type": "note_off", "time": 102, "note": 62, "velocity": 114, "channel": 0}, {"type": "note_on", "time": 1, "note": 64, "velocity": 117, "channel": 0}, {"type": "note_off", "time": 87, "note": 64, "velocity": 117, "channel": 0}, {"type": "note_on", "time": 7, "note": 65, "velocity": 112, "channel": 0}, {"type": "note_off", "time": 100, "note": 65, "velocity": 112, "channel": 0}, {"type": "note_on", "time": 4, "note": 62, "velocity": 102, "channel": 0}, {"type": "note_off", "time": 77, "note": 62, "velocity": 102, "channel": 0}, {"type": "note_on", "time": 3, "note": 63, "velocity": 120, "channel": 0}, {"type": "note_off", "time": 99, "note": 63, "velocity": 120, "channel": 0}, {"type": "note_on", "time": 9, "note": 61, "velocity": 108, "channel": 0}, {"type": "note_off", "time": 85, "note": 61, "velocity": 108, "channel": 0}, {"type": "note_on", "time": 0, "note": 62, "velocity": 114, "channel": 0}, {"type": "note_off", "time": 83, "note": 62, "velocity": 114, "channel": 0}, {"type": "note_on", "time": 5, "note": 60, "velocity": 108, "channel": 0}, {"type": "note_off", "time": 84, "note": 60, "velocity": 108, "channel": 0}, {"type": "note_on", "time": 0, "note": 59, "velocity": 104, "channel": 0}, {"type": "note_off", "time": 83, "note": 59, "velocity": 104, "channel": 0}, {"type": "note_on", "time": 18, "note": 62, "velocity": 110, "channel": 0}, {"type": "note_off", "time": 76, "note": 62, "velocity": 110, "channel": 0}, {"type": "note_on", "time": 2, "note": 65, "velocity": 110, "channel": 0}, {"type": "note_off", "time": 107, "note": 65, "velocity": 110, "channel": 0}, {"type": "note_on", "time": 30, "note": 62, "velocity": 101, "channel": 0}, {"type": "note_off", "time": 44, "note": 62, "velocity": 101, "channel": 0}, {"type": "note_on", "time": 0, "note": 67, "velocity": 118, "channel": 0}, {"type": "note_off", "time": 102, "note": 67, "velocity": 118, "channel": 0}, {"type": "note_on", "time": 4, "note": 66, "velocity": 113, "channel": 0}, {"type": "note_off", "time": 87, "note": 66, "velocity": 113, "channel": 0}, {"type": "note_on", "time": 6, "note": 65, "velocity": 114, "channel": 0}, {"type": "note_off", "time": 62, "note": 65, "velocity": 114, "channel": 0}, {"type": "note_on", "time": 15, "note": 64, "velocity": 118, "channel": 0}, {"type": "note_off", "time": 94, "note": 64, "velocity": 118, "channel": 0}, {"type": "note_on", "time": 10, "note": 63, "velocity": 113, "channel": 0}, {"type": "note_off", "time": 86, "note": 63, "velocity": 113, "channel": 0}, {"type": "note_on", "time": 9, "note": 65, "velocity": 109, "channel": 0}, {"type": "note_off", "time": 59, "note": 65, "velocity": 109, "channel": 0}, {"type": "note_on", "time": 8, "note": 67, "velocity": 108, "channel": 0}, {"type": "note_off", "time": 62, "note": 67, "velocity": 108, "channel": 0}, {"type": "note_on", "time": 17, "note": 70, "velocity": 89, "channel": 0}, {"type": "note_off", "time": 41, "note": 70, "velocity": 89, "channel": 0}, {"type": "note_on", "time": 46, "note": 74, "velocity": 107, "channel": 0}, {"type": "note_off", "time": 55, "note": 74, "velocity": 107, "channel": 0}, {"type": "note_on", "time": 31, "note": 77, "velocity": 106, "channel": 0}, {"type": "note_off", "time": 117, "note": 77, "velocity": 106, "channel": 0}, {"type": "note_on", "time": 25, "note": 76, "velocity": 117, "channel": 0}, {"type": "note_off", "time": 42, "note": 76, "velocity": 117, "channel": 0}, {"type": "note_on", "time": 1, "note": 75, "velocity": 111, "channel": 0}, {"type": "note_off", "time": 90, "note": 75, "velocity": 111, "channel": 0}, {"type": "note_on", "time": 8, "note": 74, "velocity": 107, "channel": 0}, {"type": "note_off", "time": 85, "note": 74, "velocity": 107, "channel": 0}, {"type": "note_on", "time": 3, "note": 72, "velocity": 106, "channel": 0}, {"type": "note_off", "time": 78, "note": 72, "velocity": 106, "channel": 0}, {"type": "note_on", "time": 45, "note": 70, "velocity": 101, "channel": 0}, {"type": "note_off", "time": 73, "note": 70, "velocity": 101, "channel": 0}, {"type": "note_on", "time": 6, "note": 69, "velocity": 111, "channel": 0}, {"type": "note_off", "time": 70, "note": 69, "velocity": 111, "channel": 0}, {"type": "note_on", "time": 7, "note": 67, "velocity": 110, "channel": 0}, {"type": "note_off", "time": 82, "note": 67, "velocity": 110, "channel": 0}, {"type": "note_on", "time": 1, "note": 65, "velocity": 112, "channel": 0}, {"type": "note_off", "time": 88, "note": 65, "velocity": 112, "channel": 0}, {"type": "note_on", "time": 0, "note": 64, "velocity": 115, "channel": 0}, {"type": "note_off", "time": 82, "note": 64, "velocity": 115, "channel": 0}, {"type": "note_on", "time": 3, "note": 63, "velocity": 113, "channel": 0}, {"type": "note_off", "time": 102, "note": 63, "velocity": 113, "channel": 0}, {"type": "note_on", "time": 10, "note": 67, "velocity": 110, "channel": 0}, {"type": "note_off", "time": 90, "note": 67, "velocity": 110, "channel": 0}, {"type": "note_on", "time": 3, "note": 62, "velocity": 113, "channel": 0}, {"type": "note_off", "time": 97, "note": 62, "velocity": 113, "channel": 0}, {"type": "note_on", "time": 11, "note": 61, "velocity": 112, "channel": 0}, {"type": "note_on", "time": 93, "note": 60, "velocity": 113, "channel": 0}, {"type": "note_off", "time": 0, "note": 61, "velocity": 112, "channel": 0}, {"type": "note_off", "time": 83, "note": 60, "velocity": 113, "channel": 0}, {"type": "note_on", "time": 1, "note": 59, "velocity": 111, "channel": 0}, {"type": "note_off", "time": 89, "note": 59, "velocity": 111, "channel": 0}, {"type": "note_on", "time": 7, "note": 58, "velocity": 109, "channel": 0}, {"type": "note_off", "time": 88, "note": 58, "velocity": 109, "channel": 0}, {"type": "note_on", "time": 21, "note": 55, "velocity": 109, "channel": 0}, {"type": "note_off", "time": 76, "note": 55, "velocity": 109, "channel": 0}, {"type": "note_on", "time": 11, "note": 51, "velocity": 108, "channel": 0}, {"type": "note_off", "time": 69, "note": 51, "velocity": 108, "channel": 0}, {"type": "note_on", "time": 21, "note": 50, "velocity": 107, "channel": 0}, {"type": "note_off", "time": 86, "note": 50, "velocity": 107, "channel": 0}, {"type": "note_on", "time": 0, "note": 49, "velocity": 103, "channel": 0}, {"type": "note_off", "time": 96, "note": 49, "velocity": 103, "channel": 0}, {"type": "note_on", "time": 17, "note": 52, "velocity": 109, "channel": 0}, {"type": "note_off", "time": 59, "note": 52, "velocity": 109, "channel": 0}, {"type": "note_on", "time": 4, "note": 57, "velocity": 114, "channel": 0}, {"type": "note_off", "time": 78, "note": 57, "velocity": 114, "channel": 0}, {"type": "note_on", "time": 23, "note": 55, "velocity": 105, "channel": 0}, {"type": "note_off", "time": 78, "note": 55, "velocity": 105, "channel": 0}, {"type": "note_on", "time": 11, "note": 54, "velocity": 112, "channel": 0}, {"type": "note_off", "time": 115, "note": 54, "velocity": 112, "channel": 0}, {"type": "note_on", "time": 25, "note": 52, "velocity": 106, "channel": 0}, {"type": "note_off", "time": 54, "note": 52, "velocity": 106, "channel": 0}, {"type": "note_on", "time": 0, "note": 53, "velocity": 112, "channel": 0}, {"type": "note_off", "time": 112, "note": 53, "velocity": 112, "channel": 0}, {"type": "note_on", "time": 9, "note": 51, "velocity": 111, "channel": 0}, {"type": "note_off", "time": 74, "note": 51, "velocity": 111, "channel": 0}, {"type": "note_on", "time": 9, "note": 50, "velocity": 116, "channel": 0}, {"type": "note_off", "time": 83, "note": 50, "velocity": 116, "channel": 0}, {"type": "note_on", "time": 16, "note": 48, "velocity": 116, "channel": 0}, {"type": "note_off", "time": 52, "note": 48, "velocity": 116, "channel": 0}, {"type": "note_on", "time": 17, "note": 46, "velocity": 118, "channel": 0}, {"type": "note_off", "time": 59, "note": 46, "velocity": 118, "channel": 0}, {"type": "note_on", "time": 35, "note": 45, "velocity": 119, "channel": 0}, {"type": "note_off", "time": 89, "note": 45, "velocity": 119, "channel": 0}, {"type": "note_on", "time": 2, "note": 44, "velocity": 122, "channel": 0}, {"type": "note_off", "time": 182, "note": 44, "velocity": 122, "channel": 0}, {"type": "note_on", "time": 11, "note": 51, "velocity": 116, "channel": 0}, {"type": "note_off", "time": 113, "note": 51, "velocity": 116, "channel": 0}, {"type": "note_on", "time": 7, "note": 44, "velocity": 111, "channel": 0}, {"type": "note_off", "time": 48, "note": 44, "velocity": 111, "channel": 0}, {"type": "note_on", "time": 11, "note": 46, "velocity": 113, "channel": 0}, {"type": "note_off", "time": 204, "note": 46, "velocity": 113, "channel": 0}, {"type": "note_on", "time": 0, "note": 53, "velocity": 113, "channel": 0}, {"type": "note_off", "time": 126, "note": 53, "velocity": 113, "channel": 0}, {"type": "note_on", "time": 719, "note": 73, "velocity": 110, "channel": 0}, {"type": "note_off", "time": 87, "note": 73, "velocity": 110, "channel": 0}, {"type": "note_on", "time": 5, "note": 71, "velocity": 117, "channel": 0}, {"type": "note_off", "time": 78, "note": 71, "velocity": 117, "channel": 0}, {"type": "note_on", "time": 13, "note": 66, "velocity": 99, "channel": 0}, {"type": "note_off", "time": 82, "note": 66, "velocity": 99, "channel": 0}, {"type": "note_on", "time": 6, "note": 69, "velocity": 114, "channel": 0}, {"type": "note_off", "time": 109, "note": 69, "velocity": 114, "channel": 0}, {"type": "note_on", "time": 11, "note": 66, "velocity": 100, "channel": 0}, {"type": "note_off", "time": 49, "note": 66, "velocity": 100, "channel": 0}, {"type": "note_on", "time": 0, "note": 68, "velocity": 110, "channel": 0}, {"type": "note_off", "time": 104, "note": 68, "velocity": 110, "channel": 0}, {"type": "note_on", "time": 13, "note": 71, "velocity": 112, "channel": 0}, {"type": "note_off", "time": 57, "note": 71, "velocity": 112, "channel": 0}, {"type": "note_on", "time": 5, "note": 70, "velocity": 111, "channel": 0}, {"type": "note_off", "time": 51, "note": 70, "velocity": 111, "channel": 0}, {"type": "note_on", "time": 3, "note": 69, "velocity": 107, "channel": 0}, {"type": "note_off", "time": 57, "note": 69, "velocity": 107, "channel": 0}, {"type": "note_on", "time": 16, "note": 68, "velocity": 109, "channel": 0}, {"type": "note_off", "time": 101, "note": 68, "velocity": 109, "channel": 0}, {"type": "note_on", "time": 5, "note": 67, "velocity": 110, "channel": 0}, {"type": "note_off", "time": 86, "note": 67, "velocity": 110, "channel": 0}, {"type": "note_on", "time": 4, "note": 69, "velocity": 106, "channel": 0}, {"type": "note_off", "time": 87, "note": 69, "velocity": 106, "channel": 0}, {"type": "note_on", "time": 0, "note": 65, "velocity": 112, "channel": 0}, {"type": "note_off", "time": 100, "note": 65, "velocity": 112, "channel": 0}, {"type": "note_on", "time": 5, "note": 64, "velocity": 117, "channel": 0}, {"type": "note_off", "time": 92, "note": 64, "velocity": 117, "channel": 0}, {"type": "note_on", "time": 4, "note": 63, "velocity": 116, "channel": 0}, {"type": "note_off", "time": 104, "note": 63, "velocity": 116, "channel": 0}, {"type": "note_on", "time": 9, "note": 65, "velocity": 112, "channel": 0}, {"type": "note_off", "time": 66, "note": 65, "velocity": 112, "channel": 0}, {"type": "note_on", "time": 13, "note": 67, "velocity": 105, "channel": 0}, {"type": "note_off", "time": 83, "note": 67, "velocity": 105, "channel": 0}, {"type": "note_on", "time": 0, "note": 70, "velocity": 98, "channel": 0}, {"type": "note_off", "time": 55, "note": 70, "velocity": 98, "channel": 0}, {"type": "note_on", "time": 28, "note": 71, "velocity": 105, "channel": 0}, {"type": "note_off", "time": 33, "note": 71, "velocity": 105, "channel": 0}, {"type": "note_on", "time": 36, "note": 73, "velocity": 105, "channel": 0}, {"type": "note_off", "time": 112, "note": 73, "velocity": 105, "channel": 0}, {"type": "note_on", "time": 18, "note": 70, "velocity": 104, "channel": 0}, {"type": "note_off", "time": 89, "note": 70, "velocity": 104, "channel": 0}, {"type": "note_on", "time": 13, "note": 66, "velocity": 108, "channel": 0}, {"type": "note_off", "time": 86, "note": 66, "velocity": 108, "channel": 0}, {"type": "note_on", "time": 21, "note": 65, "velocity": 109, "channel": 0}, {"type": "note_off", "time": 59, "note": 65, "velocity": 109, "channel": 0}, {"type": "note_on", "time": 13, "note": 64, "velocity": 110, "channel": 0}, {"type": "note_off", "time": 82, "note": 64, "velocity": 110, "channel": 0}, {"type": "note_on", "time": 11, "note": 63, "velocity": 116, "channel": 0}, {"type": "note_off", "time": 91, "note": 63, "velocity": 116, "channel": 0}, {"type": "note_on", "time": 5, "note": 65, "velocity": 112, "channel": 0}, {"type": "note_off", "time": 82, "note": 65, "velocity": 112, "channel": 0}, {"type": "note_on", "time": 10, "note": 64, "velocity": 110, "channel": 0}, {"type": "note_off", "time": 85, "note": 64, "velocity": 110, "channel": 0}, {"type": "note_on", "time": 26, "note": 65, "velocity": 108, "channel": 0}, {"type": "note_off", "time": 66, "note": 65, "velocity": 108, "channel": 0}, {"type": "note_on", "time": 0, "note": 69, "velocity": 104, "channel": 0}, {"type": "note_off", "time": 103, "note": 69, "velocity": 104, "channel": 0}, {"type": "note_on", "time": 29, "note": 72, "velocity": 112, "channel": 0}, {"type": "note_off", "time": 61, "note": 72, "velocity": 112, "channel": 0}, {"type": "note_on", "time": 8, "note": 76, "velocity": 116, "channel": 0}, {"type": "note_off", "time": 98, "note": 76, "velocity": 116, "channel": 0}, {"type": "note_on", "time": 0, "note": 72, "velocity": 110, "channel": 0}, {"type": "note_off", "time": 82, "note": 72, "velocity": 110, "channel": 0}, {"type": "note_on", "time": 0, "note": 69, "velocity": 100, "channel": 0}, {"type": "note_off", "time": 86, "note": 69, "velocity": 100, "channel": 0}, {"type": "note_on", "time": 96, "note": 70, "velocity": 111, "channel": 0}, {"type": "note_off", "time": 82, "note": 70, "velocity": 111, "channel": 0}, {"type": "note_on", "time": 29, "note": 75, "velocity": 99, "channel": 0}, {"type": "note_off", "time": 63, "note": 75, "velocity": 99, "channel": 0}, {"type": "note_on", "time": 5, "note": 73, "velocity": 100, "channel": 0}, {"type": "note_off", "time": 97, "note": 73, "velocity": 100, "channel": 0}, {"type": "note_on", "time": 35, "note": 71, "velocity": 104, "channel": 0}, {"type": "note_off", "time": 85, "note": 71, "velocity": 104, "channel": 0}, {"type": "note_on", "time": 0, "note": 70, "velocity": 105, "channel": 0}, {"type": "note_off", "time": 89, "note": 70, "velocity": 105, "channel": 0}, {"type": "note_on", "time": 4, "note": 68, "velocity": 108, "channel": 0}, {"type": "note_off", "time": 111, "note": 68, "velocity": 108, "channel": 0}, {"type": "note_on", "time": 0, "note": 67, "velocity": 107, "channel": 0}, {"type": "note_off", "time": 85, "note": 67, "velocity": 107, "channel": 0}, {"type": "note_on", "time": 25, "note": 65, "velocity": 110, "channel": 0}, {"type": "note_off", "time": 74, "note": 65, "velocity": 110, "channel": 0}, {"type": "note_on", "time": 4, "note": 64, "velocity": 113, "channel": 0}, {"type": "note_off", "time": 94, "note": 64, "velocity": 113, "channel": 0}, {"type": "note_on", "time": 79, "note": 70, "velocity": 112, "channel": 0}, {"type": "note_off", "time": 102, "note": 70, "velocity": 112, "channel": 0}, {"type": "note_on", "time": 5, "note": 74, "velocity": 92, "channel": 0}, {"type": "note_off", "time": 66, "note": 74, "velocity": 92, "channel": 0}, {"type": "note_on", "time": 24, "note": 63, "velocity": 112, "channel": 0}, {"type": "note_off", "time": 116, "note": 63, "velocity": 112, "channel": 0}, {"type": "note_on", "time": 105, "note": 69, "velocity": 40, "channel": 0}, {"type": "note_off", "time": 89, "note": 69, "velocity": 40, "channel": 0}, {"type": "note_on", "time": 12, "note": 73, "velocity": 109, "channel": 0}, {"type": "note_off", "time": 75, "note": 73, "velocity": 109, "channel": 0}, {"type": "note_on", "time": 1, "note": 71, "velocity": 103, "channel": 0}, {"type": "note_off", "time": 74, "note": 71, "velocity": 103, "channel": 0}, {"type": "note_on", "time": 7, "note": 69, "velocity": 106, "channel": 0}, {"type": "note_off", "time": 77, "note": 69, "velocity": 106, "channel": 0}, {"type": "note_on", "time": 8, "note": 68, "velocity": 110, "channel": 0}, {"type": "note_off", "time": 62, "note": 68, "velocity": 110, "channel": 0}, {"type": "note_on", "time": 25, "note": 66, "velocity": 106, "channel": 0}, {"type": "note_off", "time": 95, "note": 66, "velocity": 106, "channel": 0}, {"type": "note_on", "time": 13, "note": 65, "velocity": 108, "channel": 0}, {"type": "note_off", "time": 88, "note": 65, "velocity": 108, "channel": 0}, {"type": "note_on", "time": 16, "note": 64, "velocity": 115, "channel": 0}, {"type": "note_off", "time": 82, "note": 64, "velocity": 115, "channel": 0}, {"type": "note_on", "time": 3, "note": 63, "velocity": 116, "channel": 0}, {"type": "note_off", "time": 80, "note": 63, "velocity": 116, "channel": 0}, {"type": "note_on", "time": 20, "note": 67, "velocity": 110, "channel": 0}, {"type": "note_off", "time": 77, "note": 67, "velocity": 110, "channel": 0}, {"type": "note_on", "time": 12, "note": 62, "velocity": 111, "channel": 0}, {"type": "note_off", "time": 101, "note": 62, "velocity": 111, "channel": 0}, {"type": "note_on", "time": 13, "note": 60, "velocity": 107, "channel": 0}, {"type": "note_off", "time": 52, "note": 60, "velocity": 107, "channel": 0}, {"type": "note_on", "time": 13, "note": 56, "velocity": 105, "channel": 0}, {"type": "note_off", "time": 109, "note": 56, "velocity": 105, "channel": 0}, {"type": "note_on", "time": 18, "note": 53, "velocity": 96, "channel": 0}, {"type": "note_on", "time": 51, "note": 58, "velocity": 102, "channel": 0}, {"type": "note_off", "time": 0, "note": 53, "velocity": 96, "channel": 0}, {"type": "note_off", "time": 123, "note": 58, "velocity": 102, "channel": 0}, {"type": "note_on", "time": 906, "note": 53, "velocity": 110, "channel": 0}, {"type": "note_off", "time": 261, "note": 53, "velocity": 110, "channel": 0}, {"type": "note_on", "time": 32, "note": 58, "velocity": 111, "channel": 0}, {"type": "note_off", "time": 114, "note": 58, "velocity": 111, "channel": 0}, {"type": "note_on", "time": 66, "note": 60, "velocity": 120, "channel": 0}, {"type": "note_off", "time": 193, "note": 60, "velocity": 120, "channel": 0}, {"type": "note_on", "time": 7, "note": 65, "velocity": 118, "channel": 0}, {"type": "note_off", "time": 96, "note": 65, "velocity": 118, "channel": 0}, {"type": "note_on", "time": 82, "note": 63, "velocity": 124, "channel": 0}, {"type": "note_off", "time": 209, "note": 63, "velocity": 124, "channel": 0}, {"type": "note_on", "time": 17, "note": 67, "velocity": 115, "channel": 0}, {"type": "note_off", "time": 122, "note": 67, "velocity": 115, "channel": 0}, {"type": "note_on", "time": 63, "note": 65, "velocity": 115, "channel": 0}, {"type": "note_off", "time": 157, "note": 65, "velocity": 115, "channel": 0}, {"type": "note_on", "time": 0, "note": 67, "velocity": 116, "channel": 0}, {"type": "note_off", "time": 94, "note": 67, "velocity": 116, "channel": 0}, {"type": "note_on", "time": 0, "note": 68, "velocity": 115, "channel": 0}, {"type": "note_off", "time": 319, "note": 68, "velocity": 115, "channel": 0}, {"type": "note_on", "time": 0, "note": 67, "velocity": 111, "channel": 0}, {"type": "note_off", "time": 86, "note": 67, "velocity": 111, "channel": 0}, {"type": "note_on", "time": 2, "note": 66, "velocity": 111, "channel": 0}, {"type": "note_off", "time": 73, "note": 66, "velocity": 111, "channel": 0}, {"type": "note_on", "time": 24, "note": 65, "velocity": 112, "channel": 0}, {"type": "note_off", "time": 75, "note": 65, "velocity": 112, "channel": 0}, {"type": "note_on", "time": 6, "note": 64, "velocity": 117, "channel": 0}, {"type": "note_off", "time": 96, "note": 64, "velocity": 117, "channel": 0}, {"type": "note_on", "time": 0, "note": 63, "velocity": 117, "channel": 0}, {"type": "note_off", "time": 85, "note": 63, "velocity": 117, "channel": 0}, {"type": "note_on", "time": 8, "note": 67, "velocity": 109, "channel": 0}, {"type": "note_off", "time": 78, "note": 67, "velocity": 109, "channel": 0}, {"type": "note_on", "time": 19, "note": 64, "velocity": 114, "channel": 0}, {"type": "note_off", "time": 107, "note": 64, "velocity": 114, "channel": 0}, {"type": "note_on", "time": 26, "note": 61, "velocity": 111, "channel": 0}, {"type": "note_off", "time": 59, "note": 61, "velocity": 111, "channel": 0}, {"type": "note_on", "time": 16, "note": 56, "velocity": 109, "channel": 0}, {"type": "note_off", "time": 87, "note": 56, "velocity": 109, "channel": 0}, {"type": "note_on", "time": 24, "note": 53, "velocity": 101, "channel": 0}, {"type": "note_off", "time": 49, "note": 53, "velocity": 101, "channel": 0}, {"type": "note_on", "time": 17, "note": 58, "velocity": 105, "channel": 0}, {"type": "note_off", "time": 122, "note": 58, "velocity": 105, "channel": 0}, {"type": "note_on", "time": 73, "note": 54, "velocity": 110, "channel": 0}, {"type": "note_off", "time": 108, "note": 54, "velocity": 110, "channel": 0}, {"type": "note_on", "time": 0, "note": 57, "velocity": 109, "channel": 0}, {"type": "note_off", "time": 82, "note": 57, "velocity": 109, "channel": 0}, {"type": "note_on", "time": 21, "note": 52, "velocity": 111, "channel": 0}, {"type": "note_off", "time": 86, "note": 52, "velocity": 111, "channel": 0}, {"type": "note_on", "time": 12, "note": 54, "velocity": 106, "channel": 0}, {"type": "note_off", "time": 77, "note": 54, "velocity": 106, "channel": 0}, {"type": "note_on", "time": 34, "note": 57, "velocity": 106, "channel": 0}, {"type": "note_off", "time": 71, "note": 57, "velocity": 106, "channel": 0}, {"type": "note_on", "time": 37, "note": 59, "velocity": 99, "channel": 0}, {"type": "note_off", "time": 58, "note": 59, "velocity": 99, "channel": 0}, {"type": "note_on", "time": 0, "note": 64, "velocity": 122, "channel": 0}, {"type": "note_off", "time": 104, "note": 64, "velocity": 122, "channel": 0}, {"type": "note_on", "time": 0, "note": 62, "velocity": 121, "channel": 0}, {"type": "note_off", "time": 82, "note": 62, "velocity": 121, "channel": 0}, {"type": "note_on", "time": 10, "note": 59, "velocity": 107, "channel": 0}, {"type": "note_off", "time": 76, "note": 59, "velocity": 107, "channel": 0}, {"type": "note_on", "time": 6, "note": 57, "velocity": 109, "channel": 0}, {"type": "note_off", "time": 101, "note": 57, "velocity": 109, "channel": 0}, {"type": "note_on", "time": 1, "note": 53, "velocity": 109, "channel": 0}, {"type": "note_off", "time": 77, "note": 53, "velocity": 109, "channel": 0}, {"type": "note_on", "time": 11, "note": 57, "velocity": 102, "channel": 0}, {"type": "note_off", "time": 94, "note": 57, "velocity": 102, "channel": 0}, {"type": "note_on", "time": 6, "note": 59, "velocity": 110, "channel": 0}, {"type": "note_off", "time": 64, "note": 59, "velocity": 110, "channel": 0}, {"type": "note_on", "time": 28, "note": 62, "velocity": 119, "channel": 0}, {"type": "note_off", "time": 96, "note": 62, "velocity": 119, "channel": 0}, {"type": "note_on", "time": 0, "note": 58, "velocity": 108, "channel": 0}, {"type": "note_off", "time": 76, "note": 58, "velocity": 108, "channel": 0}, {"type": "note_on", "time": 20, "note": 55, "velocity": 103, "channel": 0}, {"type": "note_off", "time": 81, "note": 55, "velocity": 103, "channel": 0}, {"type": "note_on", "time": 0, "note": 56, "velocity": 105, "channel": 0}, {"type": "note_off", "time": 77, "note": 56, "velocity": 105, "channel": 0}, {"type": "note_on", "time": 17, "note": 58, "velocity": 103, "channel": 0}, {"type": "note_off", "time": 89, "note": 58, "velocity": 103, "channel": 0}, {"type": "note_on", "time": 3, "note": 59, "velocity": 108, "channel": 0}, {"type": "note_off", "time": 113, "note": 59, "velocity": 108, "channel": 0}, {"type": "note_on", "time": 9, "note": 61, "velocity": 108, "channel": 0}, {"type": "note_off", "time": 85, "note": 61, "velocity": 108, "channel": 0}, {"type": "note_on", "time": 8, "note": 63, "velocity": 113, "channel": 0}, {"type": "note_off", "time": 76, "note": 63, "velocity": 113, "channel": 0}, {"type": "note_on", "time": 19, "note": 66, "velocity": 99, "channel": 0}, {"type": "note_off", "time": 83, "note": 66, "velocity": 99, "channel": 0}, {"type": "note_on", "time": 0, "note": 67, "velocity": 114, "channel": 0}, {"type": "note_off", "time": 83, "note": 67, "velocity": 114, "channel": 0}, {"type": "note_on", "time": 3, "note": 66, "velocity": 105, "channel": 0}, {"type": "note_off", "time": 76, "note": 66, "velocity": 105, "channel": 0}, {"type": "note_on", "time": 6, "note": 63, "velocity": 113, "channel": 0}, {"type": "note_off", "time": 103, "note": 63, "velocity": 113, "channel": 0}, {"type": "note_on", "time": 24, "note": 59, "velocity": 96, "channel": 0}, {"type": "note_off", "time": 59, "note": 59, "velocity": 96, "channel": 0}, {"type": "note_on", "time": 3, "note": 65, "velocity": 112, "channel": 0}, {"type": "note_off", "time": 107, "note": 65, "velocity": 112, "channel": 0}, {"type": "note_on", "time": 2, "note": 64, "velocity": 111, "channel": 0}, {"type": "note_off", "time": 87, "note": 64, "velocity": 111, "channel": 0}, {"type": "note_on", "time": 3, "note": 61, "velocity": 105, "channel": 0}, {"type": "note_off", "time": 91, "note": 61, "velocity": 105, "channel": 0}, {"type": "note_on", "time": 11, "note": 58, "velocity": 98, "channel": 0}, {"type": "note_off", "time": 69, "note": 58, "velocity": 98, "channel": 0}, {"type": "note_on", "time": 23, "note": 63, "velocity": 121, "channel": 0}, {"type": "note_off", "time": 90, "note": 63, "velocity": 121, "channel": 0}, {"type": "note_on", "time": 5, "note": 62, "velocity": 107, "channel": 0}, {"type": "note_off", "time": 99, "note": 62, "velocity": 107, "channel": 0}, {"type": "note_on", "time": 5, "note": 59, "velocity": 98, "channel": 0}, {"type": "note_off", "time": 95, "note": 59, "velocity": 98, "channel": 0}, {"type": "note_on", "time": 371, "note": 68, "velocity": 112, "channel": 0}, {"type": "note_off", "time": 38, "note": 68, "velocity": 112, "channel": 0}, {"type": "note_on", "time": 21, "note": 70, "velocity": 108, "channel": 0}, {"type": "note_off", "time": 45, "note": 70, "velocity": 108, "channel": 0}, {"type": "note_on", "time": 67, "note": 68, "velocity": 115, "channel": 0}, {"type": "note_off", "time": 93, "note": 68, "velocity": 115, "channel": 0}, {"type": "note_on", "time": 11, "note": 65, "velocity": 108, "channel": 0}, {"type": "note_off", "time": 117, "note": 65, "velocity": 108, "channel": 0}, {"type": "note_on", "time": 8, "note": 62, "velocity": 95, "channel": 0}, {"type": "note_off", "time": 73, "note": 62, "velocity": 95, "channel": 0}, {"type": "note_on", "time": 8, "note": 71, "velocity": 104, "channel": 0}, {"type": "note_off", "time": 74, "note": 71, "velocity": 104, "channel": 0}, {"type": "note_on", "time": 4, "note": 70, "velocity": 110, "channel": 0}, {"type": "note_off", "time": 74, "note": 70, "velocity": 110, "channel": 0}, {"type": "note_on", "time": 3, "note": 67, "velocity": 108, "channel": 0}, {"type": "note_off", "time": 131, "note": 67, "velocity": 108, "channel": 0}, {"type": "note_on", "time": 23, "note": 63, "velocity": 99, "channel": 0}, {"type": "note_off", "time": 48, "note": 63, "velocity": 99, "channel": 0}, {"type": "note_on", "time": 0, "note": 69, "velocity": 113, "channel": 0}, {"type": "note_off", "time": 85, "note": 69, "velocity": 113, "channel": 0}, {"type": "note_on", "time": 413, "note": 68, "velocity": 115, "channel": 0}, {"type": "note_off", "time": 100, "note": 68, "velocity": 115, "channel": 0}, {"type": "note_on", "time": 454, "note": 66, "velocity": 117, "channel": 0}, {"type": "note_off", "time": 46, "note": 66, "velocity": 117, "channel": 0}, {"type": "note_on", "time": 7, "note": 67, "velocity": 112, "channel": 0}, {"type": "note_off", "time": 37, "note": 67, "velocity": 112, "channel": 0}, {"type": "note_on", "time": 91, "note": 66, "velocity": 115, "channel": 0}, {"type": "note_off", "time": 79, "note": 66, "velocity": 115, "channel": 0}, {"type": "note_on", "time": 0, "note": 63, "velocity": 111, "channel": 0}, {"type": "note_off", "time": 98, "note": 63, "velocity": 111, "channel": 0}, {"type": "note_on", "time": 20, "note": 59, "velocity": 105, "channel": 0}, {"type": "note_off", "time": 65, "note": 59, "velocity": 105, "channel": 0}, {"type": "note_on", "time": 1, "note": 65, "velocity": 113, "channel": 0}, {"type": "note_off", "time": 95, "note": 65, "velocity": 113, "channel": 0}, {"type": "note_on", "time": 423, "note": 64, "velocity": 122, "channel": 0}, {"type": "note_off", "time": 100, "note": 64, "velocity": 122, "channel": 0}, {"type": "note_on", "time": 468, "note": 62, "velocity": 127, "channel": 0}, {"type": "note_on", "time": 56, "note": 63, "velocity": 118, "channel": 0}, {"type": "note_off", "time": 0, "note": 62, "velocity": 127, "channel": 0}, {"type": "note_off", "time": 50, "note": 63, "velocity": 118, "channel": 0}, {"type": "note_on", "time": 77, "note": 62, "velocity": 125, "channel": 0}, {"type": "note_off", "time": 85, "note": 62, "velocity": 125, "channel": 0}, {"type": "note_on", "time": 0, "note": 59, "velocity": 107, "channel": 0}, {"type": "note_off", "time": 103, "note": 59, "velocity": 107, "channel": 0}, {"type": "note_on", "time": 111, "note": 61, "velocity": 118, "channel": 0}, {"type": "note_off", "time": 85, "note": 61, "velocity": 118, "channel": 0}, {"type": "note_on", "time": 28, "note": 57, "velocity": 110, "channel": 0}, {"type": "note_off", "time": 51, "note": 57, "velocity": 110, "channel": 0}, {"type": "note_on", "time": 5, "note": 53, "velocity": 109, "channel": 0}, {"type": "note_off", "time": 81, "note": 53, "velocity": 109, "channel": 0}, {"type": "note_on", "time": 402, "note": 70, "velocity": 113, "channel": 0}, {"type": "note_off", "time": 51, "note": 70, "velocity": 113, "channel": 0}, {"type": "note_on", "time": 3, "note": 71, "velocity": 117, "channel": 0}, {"type": "note_off", "time": 43, "note": 71, "velocity": 117, "channel": 0}, {"type": "note_on", "time": 281, "note": 70, "velocity": 115, "channel": 0}, {"type": "note_off", "time": 103, "note": 70, "velocity": 115, "channel": 0}, {"type": "note_on", "time": 320, "note": 72, "velocity": 112, "channel": 0}, {"type": "note_off", "time": 43, "note": 72, "velocity": 112, "channel": 0}, {"type": "note_on", "time": 0, "note": 73, "velocity": 113, "channel": 0}, {"type": "note_off", "time": 54, "note": 73, "velocity": 113, "channel": 0}, {"type": "note_on", "time": 254, "note": 69, "velocity": 117, "channel": 0}, {"type": "note_off", "time": 114, "note": 69, "velocity": 117, "channel": 0}, {"type": "note_on", "time": 362, "note": 69, "velocity": 117, "channel": 0}, {"type": "note_off", "time": 67, "note": 69, "velocity": 117, "channel": 0}, {"type": "note_on", "time": 130, "note": 69, "velocity": 115, "channel": 0}, {"type": "note_off", "time": 82, "note": 69, "velocity": 115, "channel": 0}, {"type": "note_on", "time": 32, "note": 64, "velocity": 105, "channel": 0}, {"type": "note_off", "time": 57, "note": 64, "velocity": 105, "channel": 0}, {"type": "note_on", "time": 12, "note": 69, "velocity": 114, "channel": 0}, {"type": "note_off", "time": 85, "note": 69, "velocity": 114, "channel": 0}, {"type": "note_on", "time": 14, "note": 64, "velocity": 101, "channel": 0}, {"type": "note_off", "time": 51, "note": 64, "velocity": 101, "channel": 0}, {"type": "note_on", "time": 8, "note": 69, "velocity": 113, "channel": 0}, {"type": "note_off", "time": 85, "note": 69, "velocity": 113, "channel": 0}, {"type": "note_on", "time": 15, "note": 71, "velocity": 105, "channel": 0}, {"type": "note_off", "time": 87, "note": 71, "velocity": 105, "channel": 0}, {"type": "note_on", "time": 0, "note": 73, "velocity": 104, "channel": 0}, {"type": "note_off", "time": 91, "note": 73, "velocity": 104, "channel": 0}, {"type": "note_on", "time": 12, "note": 71, "velocity": 104, "channel": 0}, {"type": "note_off", "time": 70, "note": 71, "velocity": 104, "channel": 0}, {"type": "note_on", "time": 3, "note": 69, "velocity": 109, "channel": 0}, {"type": "note_off", "time": 115, "note": 69, "velocity": 109, "channel": 0}, {"type": "note_on", "time": 30, "note": 65, "velocity": 100, "channel": 0}, {"type": "note_off", "time": 54, "note": 65, "velocity": 100, "channel": 0}, {"type": "note_on", "time": 5, "note": 69, "velocity": 111, "channel": 0}, {"type": "note_off", "time": 103, "note": 69, "velocity": 111, "channel": 0}, {"type": "note_on", "time": 12, "note": 62, "velocity": 104, "channel": 0}, {"type": "note_off", "time": 67, "note": 62, "velocity": 104, "channel": 0}, {"type": "note_on", "time": 8, "note": 67, "velocity": 108, "channel": 0}, {"type": "note_off", "time": 124, "note": 67, "velocity": 108, "channel": 0}, {"type": "note_on", "time": 0, "note": 69, "velocity": 112, "channel": 0}, {"type": "note_off", "time": 81, "note": 69, "velocity": 112, "channel": 0}, {"type": "note_on", "time": 2, "note": 71, "velocity": 110, "channel": 0}, {"type": "note_off", "time": 79, "note": 71, "velocity": 110, "channel": 0}, {"type": "note_on", "time": 15, "note": 69, "velocity": 112, "channel": 0}, {"type": "note_off", "time": 59, "note": 69, "velocity": 112, "channel": 0}, {"type": "note_on", "time": 23, "note": 67, "velocity": 108, "channel": 0}, {"type": "note_off", "time": 98, "note": 67, "velocity": 108, "channel": 0}, {"type": "note_on", "time": 27, "note": 62, "velocity": 97, "channel": 0}, {"type": "note_off", "time": 56, "note": 62, "velocity": 97, "channel": 0}, {"type": "note_on", "time": 0, "note": 67, "velocity": 114, "channel": 0}, {"type": "note_off", "time": 104, "note": 67, "velocity": 114, "channel": 0}, {"type": "note_on", "time": 28, "note": 60, "velocity": 104, "channel": 0}, {"type": "note_off", "time": 50, "note": 60, "velocity": 104, "channel": 0}, {"type": "note_on", "time": 4, "note": 65, "velocity": 109, "channel": 0}, {"type": "note_off", "time": 105, "note": 65, "velocity": 109, "channel": 0}, {"type": "note_on", "time": 1, "note": 67, "velocity": 101, "channel": 0}, {"type": "note_off", "time": 70, "note": 67, "velocity": 101, "channel": 0}, {"type": "note_on", "time": 4, "note": 69, "velocity": 117, "channel": 0}, {"type": "note_off", "time": 94, "note": 69, "velocity": 117, "channel": 0}, {"type": "note_on", "time": 8, "note": 67, "velocity": 108, "channel": 0}, {"type": "note_off", "time": 91, "note": 67, "velocity": 108, "channel": 0}, {"type": "note_on", "time": 7, "note": 65, "velocity": 105, "channel": 0}, {"type": "note_off", "time": 121, "note": 65, "velocity": 105, "channel": 0}, {"type": "note_on", "time": 14, "note": 60, "velocity": 104, "channel": 0}, {"type": "note_off", "time": 51, "note": 60, "velocity": 104, "channel": 0}, {"type": "note_on", "time": 7, "note": 67, "velocity": 110, "channel": 0}, {"type": "note_off", "time": 89, "note": 67, "velocity": 110, "channel": 0}, {"type": "note_on", "time": 10, "note": 66, "velocity": 108, "channel": 0}, {"type": "note_off", "time": 72, "note": 66, "velocity": 108, "channel": 0}, {"type": "note_on", "time": 5, "note": 63, "velocity": 104, "channel": 0}, {"type": "note_off", "time": 102, "note": 63, "velocity": 104, "channel": 0}, {"type": "note_on", "time": 0, "note": 67, "velocity": 112, "channel": 0}, {"type": "note_off", "time": 61, "note": 67, "velocity": 112, "channel": 0}, {"type": "note_on", "time": 38, "note": 63, "velocity": 113, "channel": 0}, {"type": "note_off", "time": 76, "note": 63, "velocity": 113, "channel": 0}, {"type": "note_on", "time": 11, "note": 65, "velocity": 112, "channel": 0}, {"type": "note_off", "time": 71, "note": 65, "velocity": 112, "channel": 0}, {"type": "note_on", "time": 7, "note": 67, "velocity": 104, "channel": 0}, {"type": "note_off", "time": 93, "note": 67, "velocity": 104, "channel": 0}, {"type": "note_on", "time": 39, "note": 70, "velocity": 98, "channel": 0}, {"type": "note_off", "time": 45, "note": 70, "velocity": 98, "channel": 0}, {"type": "note_on", "time": 39, "note": 72, "velocity": 107, "channel": 0}, {"type": "note_off", "time": 35, "note": 72, "velocity": 107, "channel": 0}, {"type": "note_on", "time": 5, "note": 73, "velocity": 109, "channel": 0}, {"type": "note_off", "time": 54, "note": 73, "velocity": 109, "channel": 0}, {"type": "note_on", "time": 1, "note": 72, "velocity": 111, "channel": 0}, {"type": "note_off", "time": 90, "note": 72, "velocity": 111, "channel": 0}, {"type": "note_on", "time": 0, "note": 71, "velocity": 110, "channel": 0}, {"type": "note_off", "time": 82, "note": 71, "velocity": 110, "channel": 0}, {"type": "note_on", "time": 13, "note": 69, "velocity": 108, "channel": 0}, {"type": "note_off", "time": 82, "note": 69, "velocity": 108, "channel": 0}, {"type": "note_on", "time": 2, "note": 68, "velocity": 111, "channel": 0}, {"type": "note_off", "time": 49, "note": 68, "velocity": 111, "channel": 0}, {"type": "note_on", "time": 47, "note": 66, "velocity": 109, "channel": 0}, {"type": "note_off", "time": 92, "note": 66, "velocity": 109, "channel": 0}, {"type": "note_on", "time": 4, "note": 65, "velocity": 107, "channel": 0}, {"type": "note_off", "time": 95, "note": 65, "velocity": 107, "channel": 0}, {"type": "note_on", "time": 0, "note": 64, "velocity": 110, "channel": 0}, {"type": "note_off", "time": 71, "note": 64, "velocity": 110, "channel": 0}, {"type": "note_on", "time": 1, "note": 63, "velocity": 113, "channel": 0}, {"type": "note_off", "time": 70, "note": 63, "velocity": 113, "channel": 0}, {"type": "note_on", "time": 19, "note": 65, "velocity": 111, "channel": 0}, {"type": "note_off", "time": 113, "note": 65, "velocity": 111, "channel": 0}, {"type": "note_on", "time": 1, "note": 62, "velocity": 119, "channel": 0}, {"type": "note_off", "time": 102, "note": 62, "velocity": 119, "channel": 0}, {"type": "note_on", "time": 1, "note": 60, "velocity": 109, "channel": 0}, {"type": "note_on", "time": 69, "note": 59, "velocity": 108, "channel": 0}, {"type": "note_off", "time": 0, "note": 60, "velocity": 109, "channel": 0}, {"type": "note_off", "time": 64, "note": 59, "velocity": 108, "channel": 0}, {"type": "note_on", "time": 58, "note": 67, "velocity": 115, "channel": 0}, {"type": "note_off", "time": 51, "note": 67, "velocity": 115, "channel": 0}, {"type": "note_on", "time": 9, "note": 66, "velocity": 111, "channel": 0}, {"type": "note_off", "time": 91, "note": 66, "velocity": 111, "channel": 0}, {"type": "note_on", "time": 11, "note": 66, "velocity": 110, "channel": 0}, {"type": "note_off", "time": 82, "note": 66, "velocity": 110, "channel": 0}, {"type": "note_on", "time": 9, "note": 65, "velocity": 109, "channel": 0}, {"type": "note_off", "time": 89, "note": 65, "velocity": 109, "channel": 0}, {"type": "note_on", "time": 10, "note": 64, "velocity": 118, "channel": 0}, {"type": "note_off", "time": 85, "note": 64, "velocity": 118, "channel": 0}, {"type": "note_on", "time": 0, "note": 63, "velocity": 117, "channel": 0}, {"type": "note_off", "time": 77, "note": 63, "velocity": 117, "channel": 0}, {"type": "note_on", "time": 21, "note": 65, "velocity": 112, "channel": 0}, {"type": "note_off", "time": 78, "note": 65, "velocity": 112, "channel": 0}, {"type": "note_on", "time": 7, "note": 62, "velocity": 114, "channel": 0}, {"type": "note_off", "time": 95, "note": 62, "velocity": 114, "channel": 0}, {"type": "note_on", "time": 0, "note": 63, "velocity": 114, "channel": 0}, {"type": "note_off", "time": 71, "note": 63, "velocity": 114, "channel": 0}, {"type": "note_on", "time": 9, "note": 65, "velocity": 110, "channel": 0}, {"type": "note_off", "time": 87, "note": 65, "velocity": 110, "channel": 0}, {"type": "note_on", "time": 10, "note": 62, "velocity": 102, "channel": 0}, {"type": "note_off", "time": 62, "note": 62, "velocity": 102, "channel": 0}, {"type": "note_on", "time": 26, "note": 63, "velocity": 119, "channel": 0}, {"type": "note_off", "time": 103, "note": 63, "velocity": 119, "channel": 0}, {"type": "note_on", "time": 3, "note": 62, "velocity": 117, "channel": 0}, {"type": "note_off", "time": 96, "note": 62, "velocity": 117, "channel": 0}, {"type": "note_on", "time": 371, "note": 63, "velocity": 123, "channel": 0}, {"type": "note_off", "time": 92, "note": 63, "velocity": 123, "channel": 0}, {"type": "note_on", "time": 6, "note": 62, "velocity": 116, "channel": 0}, {"type": "note_off", "time": 95, "note": 62, "velocity": 116, "channel": 0}, {"type": "note_on", "time": 398, "note": 63, "velocity": 123, "channel": 0}, {"type": "note_off", "time": 94, "note": 63, "velocity": 123, "channel": 0}, {"type": "note_on", "time": 0, "note": 62, "velocity": 116, "channel": 0}, {"type": "note_off", "time": 95, "note": 62, "velocity": 116, "channel": 0}, {"type": "note_on", "time": 2, "note": 58, "velocity": 108, "channel": 0}, {"type": "note_off", "time": 96, "note": 58, "velocity": 108, "channel": 0}, {"type": "note_on", "time": 6, "note": 55, "velocity": 100, "channel": 0}, {"type": "note_off", "time": 56, "note": 55, "velocity": 100, "channel": 0}, {"type": "note_on", "time": 10, "note": 63, "velocity": 121, "channel": 0}, {"type": "note_off", "time": 115, "note": 63, "velocity": 121, "channel": 0}, {"type": "note_on", "time": 2, "note": 61, "velocity": 115, "channel": 0}, {"type": "note_off", "time": 84, "note": 61, "velocity": 115, "channel": 0}, {"type": "note_on", "time": 0, "note": 56, "velocity": 107, "channel": 0}, {"type": "note_off", "time": 97, "note": 56, "velocity": 107, "channel": 0}, {"type": "note_on", "time": 86, "note": 63, "velocity": 125, "channel": 0}, {"type": "note_off", "time": 101, "note": 63, "velocity": 125, "channel": 0}, {"type": "note_on", "time": 2, "note": 62, "velocity": 116, "channel": 0}, {"type": "note_off", "time": 110, "note": 62, "velocity": 116, "channel": 0}, {"type": "note_on", "time": 349, "note": 63, "velocity": 122, "channel": 0}, {"type": "note_off", "time": 91, "note": 63, "velocity": 122, "channel": 0}, {"type": "note_on", "time": 3, "note": 62, "velocity": 121, "channel": 0}, {"type": "note_off", "time": 103, "note": 62, "velocity": 121, "channel": 0}, {"type": "note_on", "time": 393, "note": 63, "velocity": 122, "channel": 0}, {"type": "note_off", "time": 111, "note": 63, "velocity": 122, "channel": 0}, {"type": "note_on", "time": 4, "note": 61, "velocity": 114, "channel": 0}, {"type": "note_on", "time": 82, "note": 58, "velocity": 105, "channel": 0}, {"type": "note_off", "time": 0, "note": 61, "velocity": 114, "channel": 0}, {"type": "note_off", "time": 94, "note": 58, "velocity": 105, "channel": 0}, {"type": "note_on", "time": 82, "note": 61, "velocity": 122, "channel": 0}, {"type": "note_off", "time": 103, "note": 61, "velocity": 122, "channel": 0}, {"type": "note_on", "time": 11, "note": 63, "velocity": 120, "channel": 0}, {"type": "note_off", "time": 82, "note": 63, "velocity": 120, "channel": 0}, {"type": "note_on", "time": 6, "note": 65, "velocity": 117, "channel": 0}, {"type": "note_off", "time": 103, "note": 65, "velocity": 117, "channel": 0}, {"type": "note_on", "time": 4, "note": 61, "velocity": 101, "channel": 0}, {"type": "note_off", "time": 51, "note": 61, "velocity": 101, "channel": 0}, {"type": "note_on", "time": 11, "note": 63, "velocity": 122, "channel": 0}, {"type": "note_off", "time": 103, "note": 63, "velocity": 122, "channel": 0}, {"type": "note_on", "time": 3, "note": 61, "velocity": 118, "channel": 0}, {"type": "note_off", "time": 100, "note": 61, "velocity": 118, "channel": 0}, {"type": "note_on", "time": 17, "note": 58, "velocity": 99, "channel": 0}, {"type": "note_off", "time": 133, "note": 58, "velocity": 99, "channel": 0}, {"type": "note_on", "time": 2, "note": 64, "velocity": 121, "channel": 0}, {"type": "note_off", "time": 119, "note": 64, "velocity": 121, "channel": 0}, {"type": "note_on", "time": 0, "note": 61, "velocity": 114, "channel": 0}, {"type": "note_off", "time": 47, "note": 61, "velocity": 114, "channel": 0}, {"type": "note_on", "time": 16, "note": 59, "velocity": 107, "channel": 0}, {"type": "note_off", "time": 102, "note": 59, "velocity": 107, "channel": 0}, {"type": "note_on", "time": 33, "note": 54, "velocity": 106, "channel": 0}, {"type": "note_off", "time": 40, "note": 54, "velocity": 106, "channel": 0}, {"type": "note_on", "time": 2, "note": 57, "velocity": 112, "channel": 0}, {"type": "note_off", "time": 105, "note": 57, "velocity": 112, "channel": 0}, {"type": "note_on", "time": 11, "note": 54, "velocity": 111, "channel": 0}, {"type": "note_off", "time": 81, "note": 54, "velocity": 111, "channel": 0}, {"type": "note_on", "time": 12, "note": 52, "velocity": 113, "channel": 0}, {"type": "note_off", "time": 74, "note": 52, "velocity": 113, "channel": 0}, {"type": "note_on", "time": 8, "note": 54, "velocity": 108, "channel": 0}, {"type": "note_on", "time": 106, "note": 52, "velocity": 112, "channel": 0}, {"type": "note_off", "time": 0, "note": 54, "velocity": 108, "channel": 0}, {"type": "note_off", "time": 58, "note": 52, "velocity": 112, "channel": 0}, {"type": "note_on", "time": 11, "note": 54, "velocity": 104, "channel": 0}, {"type": "note_off", "time": 98, "note": 54, "velocity": 104, "channel": 0}, {"type": "note_on", "time": 10, "note": 57, "velocity": 110, "channel": 0}, {"type": "note_off", "time": 101, "note": 57, "velocity": 110, "channel": 0}, {"type": "note_on", "time": 7, "note": 59, "velocity": 97, "channel": 0}, {"type": "note_off", "time": 60, "note": 59, "velocity": 97, "channel": 0}, {"type": "note_on", "time": 6, "note": 61, "velocity": 115, "channel": 0}, {"type": "note_off", "time": 106, "note": 61, "velocity": 115, "channel": 0}, {"type": "note_on", "time": 5, "note": 66, "velocity": 112, "channel": 0}, {"type": "note_off", "time": 92, "note": 66, "velocity": 112, "channel": 0}, {"type": "note_on", "time": 0, "note": 64, "velocity": 117, "channel": 0}, {"type": "note_off", "time": 94, "note": 64, "velocity": 117, "channel": 0}, {"type": "note_on", "time": 9, "note": 61, "velocity": 104, "channel": 0}, {"type": "note_off", "time": 87, "note": 61, "velocity": 104, "channel": 0}, {"type": "note_on", "time": 0, "note": 59, "velocity": 106, "channel": 0}, {"type": "note_off", "time": 95, "note": 59, "velocity": 106, "channel": 0}, {"type": "note_on", "time": 3, "note": 61, "velocity": 102, "channel": 0}, {"type": "note_off", "time": 55, "note": 61, "velocity": 102, "channel": 0}, {"type": "note_on", "time": 0, "note": 64, "velocity": 118, "channel": 0}, {"type": "note_off", "time": 123, "note": 64, "velocity": 118, "channel": 0}, {"type": "note_on", "time": 6, "note": 66, "velocity": 108, "channel": 0}, {"type": "note_off", "time": 51, "note": 66, "velocity": 108, "channel": 0}, {"type": "note_on", "time": 22, "note": 60, "velocity": 103, "channel": 0}, {"type": "note_off", "time": 79, "note": 60, "velocity": 103, "channel": 0}, {"type": "note_on", "time": 42, "note": 67, "velocity": 110, "channel": 0}, {"type": "note_off", "time": 66, "note": 67, "velocity": 110, "channel": 0}, {"type": "note_on", "time": 1, "note": 65, "velocity": 109, "channel": 0}, {"type": "note_off", "time": 91, "note": 65, "velocity": 109, "channel": 0}, {"type": "note_on", "time": 21, "note": 62, "velocity": 117, "channel": 0}, {"type": "note_off", "time": 98, "note": 62, "velocity": 117, "channel": 0}, {"type": "note_on", "time": 0, "note": 60, "velocity": 105, "channel": 0}, {"type": "note_off", "time": 92, "note": 60, "velocity": 105, "channel": 0}, {"type": "note_on", "time": 7, "note": 62, "velocity": 117, "channel": 0}, {"type": "note_off", "time": 85, "note": 62, "velocity": 117, "channel": 0}, {"type": "note_on", "time": 18, "note": 65, "velocity": 113, "channel": 0}, {"type": "note_off", "time": 50, "note": 65, "velocity": 113, "channel": 0}, {"type": "note_on", "time": 4, "note": 67, "velocity": 113, "channel": 0}, {"type": "note_off", "time": 88, "note": 67, "velocity": 113, "channel": 0}, {"type": "note_on", "time": 0, "note": 63, "velocity": 113, "channel": 0}, {"type": "note_off", "time": 105, "note": 63, "velocity": 113, "channel": 0}, {"type": "note_on", "time": 15, "note": 67, "velocity": 111, "channel": 0}, {"type": "note_off", "time": 81, "note": 67, "velocity": 111, "channel": 0}, {"type": "note_on", "time": 0, "note": 65, "velocity": 112, "channel": 0}, {"type": "note_off", "time": 81, "note": 65, "velocity": 112, "channel": 0}, {"type": "note_on", "time": 337, "note": 63, "velocity": 123, "channel": 0}, {"type": "note_off", "time": 91, "note": 63, "velocity": 123, "channel": 0}, {"type": "note_on", "time": 10, "note": 68, "velocity": 109, "channel": 0}, {"type": "note_off", "time": 73, "note": 68, "velocity": 109, "channel": 0}, {"type": "note_on", "time": 24, "note": 66, "velocity": 105, "channel": 0}, {"type": "note_off", "time": 78, "note": 66, "velocity": 105, "channel": 0}, {"type": "note_on", "time": 6, "note": 63, "velocity": 117, "channel": 0}, {"type": "note_off", "time": 76, "note": 63, "velocity": 117, "channel": 0}, {"type": "note_on", "time": 16, "note": 61, "velocity": 100, "channel": 0}, {"type": "note_off", "time": 75, "note": 61, "velocity": 100, "channel": 0}, {"type": "note_on", "time": 6, "note": 63, "velocity": 115, "channel": 0}, {"type": "note_off", "time": 100, "note": 63, "velocity": 115, "channel": 0}, {"type": "note_on", "time": 4, "note": 66, "velocity": 106, "channel": 0}, {"type": "note_off", "time": 52, "note": 66, "velocity": 106, "channel": 0}, {"type": "note_on", "time": 14, "note": 68, "velocity": 113, "channel": 0}, {"type": "note_off", "time": 79, "note": 68, "velocity": 113, "channel": 0}, {"type": "note_on", "time": 6, "note": 64, "velocity": 109, "channel": 0}, {"type": "note_off", "time": 97, "note": 64, "velocity": 109, "channel": 0}, {"type": "note_on", "time": 10, "note": 69, "velocity": 112, "channel": 0}, {"type": "note_off", "time": 73, "note": 69, "velocity": 112, "channel": 0}, {"type": "note_on", "time": 11, "note": 67, "velocity": 109, "channel": 0}, {"type": "note_off", "time": 86, "note": 67, "velocity": 109, "channel": 0}, {"type": "note_on", "time": 6, "note": 64, "velocity": 119, "channel": 0}, {"type": "note_off", "time": 97, "note": 64, "velocity": 119, "channel": 0}, {"type": "note_on", "time": 13, "note": 62, "velocity": 112, "channel": 0}, {"type": "note_off", "time": 73, "note": 62, "velocity": 112, "channel": 0}, {"type": "note_on", "time": 32, "note": 64, "velocity": 106, "channel": 0}, {"type": "note_off", "time": 60, "note": 64, "velocity": 106, "channel": 0}, {"type": "note_on", "time": 0, "note": 67, "velocity": 110, "channel": 0}, {"type": "note_off", "time": 72, "note": 67, "velocity": 110, "channel": 0}, {"type": "note_on", "time": 27, "note": 69, "velocity": 109, "channel": 0}, {"type": "note_off", "time": 83, "note": 69, "velocity": 109, "channel": 0}, {"type": "note_on", "time": 13, "note": 65, "velocity": 106, "channel": 0}, {"type": "note_off", "time": 78, "note": 65, "velocity": 106, "channel": 0}, {"type": "note_on", "time": 16, "note": 70, "velocity": 106, "channel": 0}, {"type": "note_off", "time": 73, "note": 70, "velocity": 106, "channel": 0}, {"type": "note_on", "time": 33, "note": 67, "velocity": 110, "channel": 0}, {"type": "note_off", "time": 84, "note": 67, "velocity": 110, "channel": 0}, {"type": "note_on", "time": 7, "note": 65, "velocity": 110, "channel": 0}, {"type": "note_off", "time": 70, "note": 65, "velocity": 110, "channel": 0}, {"type": "note_on", "time": 0, "note": 63, "velocity": 109, "channel": 0}, {"type": "note_off", "time": 111, "note": 63, "velocity": 109, "channel": 0}, {"type": "note_on", "time": 6, "note": 68, "velocity": 109, "channel": 0}, {"type": "note_off", "time": 91, "note": 68, "velocity": 109, "channel": 0}, {"type": "note_on", "time": 11, "note": 65, "velocity": 108, "channel": 0}, {"type": "note_off", "time": 79, "note": 65, "velocity": 108, "channel": 0}, {"type": "note_on", "time": 44, "note": 60, "velocity": 103, "channel": 0}, {"type": "note_off", "time": 67, "note": 60, "velocity": 103, "channel": 0}, {"type": "note_on", "time": 9, "note": 58, "velocity": 102, "channel": 0}, {"type": "note_off", "time": 87, "note": 58, "velocity": 102, "channel": 0}, {"type": "note_on", "time": 15, "note": 55, "velocity": 103, "channel": 0}, {"type": "note_off", "time": 46, "note": 55, "velocity": 103, "channel": 0}, {"type": "note_on", "time": 2, "note": 63, "velocity": 121, "channel": 0}, {"type": "note_off", "time": 121, "note": 63, "velocity": 121, "channel": 0}, {"type": "note_on", "time": 0, "note": 60, "velocity": 108, "channel": 0}, {"type": "note_off", "time": 80, "note": 60, "velocity": 108, "channel": 0}, {"type": "note_on", "time": 0, "note": 56, "velocity": 112, "channel": 0}, {"type": "note_off", "time": 119, "note": 56, "velocity": 112, "channel": 0}, {"type": "note_on", "time": 9, "note": 54, "velocity": 104, "channel": 0}, {"type": "note_off", "time": 58, "note": 54, "velocity": 104, "channel": 0}, {"type": "note_on", "time": 0, "note": 58, "velocity": 107, "channel": 0}, {"type": "note_off", "time": 59, "note": 58, "velocity": 107, "channel": 0}, {"type": "note_on", "time": 6, "note": 59, "velocity": 106, "channel": 0}, {"type": "note_off", "time": 36, "note": 59, "velocity": 106, "channel": 0}, {"type": "note_on", "time": 7, "note": 56, "velocity": 109, "channel": 0}, {"type": "note_off", "time": 66, "note": 56, "velocity": 109, "channel": 0}, {"type": "note_on", "time": 0, "note": 53, "velocity": 119, "channel": 0}, {"type": "note_off", "time": 83, "note": 53, "velocity": 119, "channel": 0}, {"type": "note_on", "time": 6, "note": 51, "velocity": 117, "channel": 0}, {"type": "note_off", "time": 81, "note": 51, "velocity": 117, "channel": 0}, {"type": "note_on", "time": 0, "note": 44, "velocity": 125, "channel": 0}, {"type": "note_off", "time": 198, "note": 44, "velocity": 125, "channel": 0}, {"type": "note_on", "time": 0, "note": 46, "velocity": 124, "channel": 0}, {"type": "note_off", "time": 151, "note": 46, "velocity": 124, "channel": 0}, {"type": "note_on", "time": 565, "note": 47, "velocity": 109, "channel": 0}, {"type": "note_off", "time": 53, "note": 47, "velocity": 109, "channel": 0}, {"type": "note_on", "time": 24, "note": 52, "velocity": 126, "channel": 0}, {"type": "note_off", "time": 94, "note": 52, "velocity": 126, "channel": 0}, {"type": "note_on", "time": 16, "note": 50, "velocity": 122, "channel": 0}, {"type": "note_off", "time": 72, "note": 50, "velocity": 122, "channel": 0}, {"type": "note_on", "time": 0, "note": 49, "velocity": 115, "channel": 0}, {"type": "note_off", "time": 107, "note": 49, "velocity": 115, "channel": 0}, {"type": "note_on", "time": 20, "note": 54, "velocity": 108, "channel": 0}, {"type": "note_off", "time": 122, "note": 54, "velocity": 108, "channel": 0}, {"type": "note_on", "time": 0, "note": 57, "velocity": 103, "channel": 0}, {"type": "note_off", "time": 72, "note": 57, "velocity": 103, "channel": 0}, {"type": "note_on", "time": 8, "note": 59, "velocity": 109, "channel": 0}, {"type": "note_off", "time": 54, "note": 59, "velocity": 109, "channel": 0}, {"type": "note_on", "time": 2, "note": 61, "velocity": 112, "channel": 0}, {"type": "note_off", "time": 95, "note": 61, "velocity": 112, "channel": 0}, {"type": "note_on", "time": 4, "note": 60, "velocity": 107, "channel": 0}, {"type": "note_off", "time": 82, "note": 60, "velocity": 107, "channel": 0}, {"type": "note_on", "time": 0, "note": 59, "velocity": 109, "channel": 0}, {"type": "note_off", "time": 87, "note": 59, "velocity": 109, "channel": 0}, {"type": "note_on", "time": 8, "note": 52, "velocity": 102, "channel": 0}, {"type": "note_off", "time": 80, "note": 52, "velocity": 102, "channel": 0}, {"type": "note_on", "time": 6, "note": 59, "velocity": 107, "channel": 0}, {"type": "note_off", "time": 109, "note": 59, "velocity": 107, "channel": 0}, {"type": "note_on", "time": 91, "note": 56, "velocity": 112, "channel": 0}, {"type": "note_off", "time": 83, "note": 56, "velocity": 112, "channel": 0}, {"type": "note_on", "time": 1, "note": 59, "velocity": 106, "channel": 0}, {"type": "note_off", "time": 96, "note": 59, "velocity": 106, "channel": 0}, {"type": "note_on", "time": 9, "note": 58, "velocity": 107, "channel": 0}, {"type": "note_off", "time": 74, "note": 58, "velocity": 107, "channel": 0}, {"type": "note_on", "time": 17, "note": 56, "velocity": 106, "channel": 0}, {"type": "note_off", "time": 97, "note": 56, "velocity": 106, "channel": 0}, {"type": "note_on", "time": 9, "note": 54, "velocity": 102, "channel": 0}, {"type": "note_off", "time": 62, "note": 54, "velocity": 102, "channel": 0}, {"type": "note_on", "time": 33, "note": 54, "velocity": 105, "channel": 0}, {"type": "note_off", "time": 99, "note": 54, "velocity": 105, "channel": 0}, {"type": "note_on", "time": 6, "note": 53, "velocity": 105, "channel": 0}, {"type": "note_off", "time": 74, "note": 53, "velocity": 105, "channel": 0}, {"type": "note_on", "time": 9, "note": 52, "velocity": 105, "channel": 0}, {"type": "note_off", "time": 63, "note": 52, "velocity": 105, "channel": 0}, {"type": "note_on", "time": 28, "note": 51, "velocity": 108, "channel": 0}, {"type": "note_off", "time": 84, "note": 51, "velocity": 108, "channel": 0}, {"type": "note_on", "time": 14, "note": 53, "velocity": 111, "channel": 0}, {"type": "note_off", "time": 108, "note": 53, "velocity": 111, "channel": 0}, {"type": "note_on", "time": 3, "note": 50, "velocity": 105, "channel": 0}, {"type": "note_off", "time": 66, "note": 50, "velocity": 105, "channel": 0}, {"type": "note_on", "time": 23, "note": 53, "velocity": 106, "channel": 0}, {"type": "note_off", "time": 41, "note": 53, "velocity": 106, "channel": 0}, {"type": "note_on", "time": 27, "note": 57, "velocity": 114, "channel": 0}, {"type": "note_off", "time": 77, "note": 57, "velocity": 114, "channel": 0}, {"type": "note_on", "time": 19, "note": 60, "velocity": 110, "channel": 0}, {"type": "note_off", "time": 90, "note": 60, "velocity": 110, "channel": 0}, {"type": "note_on", "time": 0, "note": 58, "velocity": 109, "channel": 0}, {"type": "note_off", "time": 90, "note": 58, "velocity": 109, "channel": 0}, {"type": "note_on", "time": 14, "note": 60, "velocity": 110, "channel": 0}, {"type": "note_off", "time": 113, "note": 60, "velocity": 110, "channel": 0}, {"type": "note_on", "time": 19, "note": 62, "velocity": 100, "channel": 0}, {"type": "note_off", "time": 70, "note": 62, "velocity": 100, "channel": 0}, {"type": "note_on", "time": 11, "note": 65, "velocity": 101, "channel": 0}, {"type": "note_off", "time": 43, "note": 65, "velocity": 101, "channel": 0}, {"type": "note_on", "time": 20, "note": 70, "velocity": 113, "channel": 0}, {"type": "note_off", "time": 101, "note": 70, "velocity": 113, "channel": 0}, {"type": "note_on", "time": 14, "note": 74, "velocity": 104, "channel": 0}, {"type": "note_off", "time": 68, "note": 74, "velocity": 104, "channel": 0}, {"type": "note_on", "time": 29, "note": 72, "velocity": 101, "channel": 0}, {"type": "note_off", "time": 84, "note": 72, "velocity": 101, "channel": 0}, {"type": "note_on", "time": 62, "note": 71, "velocity": 110, "channel": 0}, {"type": "note_off", "time": 128, "note": 71, "velocity": 110, "channel": 0}, {"type": "note_on", "time": 18, "note": 68, "velocity": 109, "channel": 0}, {"type": "note_off", "time": 72, "note": 68, "velocity": 109, "channel": 0}, {"type": "note_on", "time": 23, "note": 66, "velocity": 103, "channel": 0}, {"type": "note_off", "time": 67, "note": 66, "velocity": 103, "channel": 0}, {"type": "note_on", "time": 26, "note": 65, "velocity": 106, "channel": 0}, {"type": "note_off", "time": 81, "note": 65, "velocity": 106, "channel": 0}, {"type": "note_on", "time": 5, "note": 63, "velocity": 106, "channel": 0}, {"type": "note_off", "time": 112, "note": 63, "velocity": 106, "channel": 0}, {"type": "note_on", "time": 21, "note": 65, "velocity": 102, "channel": 0}, {"type": "note_off", "time": 41, "note": 65, "velocity": 102, "channel": 0}, {"type": "note_on", "time": 8, "note": 67, "velocity": 107, "channel": 0}, {"type": "note_off", "time": 64, "note": 67, "velocity": 107, "channel": 0}, {"type": "note_on", "time": 50, "note": 70, "velocity": 108, "channel": 0}, {"type": "note_off", "time": 75, "note": 70, "velocity": 108, "channel": 0}, {"type": "note_on", "time": 0, "note": 72, "velocity": 109, "channel": 0}, {"type": "note_off", "time": 48, "note": 72, "velocity": 109, "channel": 0}, {"type": "note_on", "time": 0, "note": 74, "velocity": 109, "channel": 0}, {"type": "note_off", "time": 51, "note": 74, "velocity": 109, "channel": 0}, {"type": "note_on", "time": 0, "note": 73, "velocity": 113, "channel": 0}, {"type": "note_off", "time": 84, "note": 73, "velocity": 113, "channel": 0}, {"type": "note_on", "time": 0, "note": 71, "velocity": 107, "channel": 0}, {"type": "note_off", "time": 71, "note": 71, "velocity": 107, "channel": 0}, {"type": "note_on", "time": 20, "note": 69, "velocity": 111, "channel": 0}, {"type": "note_off", "time": 74, "note": 69, "velocity": 111, "channel": 0}, {"type": "note_on", "time": 25, "note": 67, "velocity": 111, "channel": 0}, {"type": "note_off", "time": 72, "note": 67, "velocity": 111, "channel": 0}, {"type": "note_on", "time": 49, "note": 66, "velocity": 99, "channel": 0}, {"type": "note_off", "time": 50, "note": 66, "velocity": 99, "channel": 0}, {"type": "note_on", "time": 0, "note": 65, "velocity": 109, "channel": 0}, {"type": "note_off", "time": 101, "note": 65, "velocity": 109, "channel": 0}, {"type": "note_on", "time": 9, "note": 64, "velocity": 113, "channel": 0}, {"type": "note_off", "time": 76, "note": 64, "velocity": 113, "channel": 0}, {"type": "note_on", "time": 0, "note": 63, "velocity": 112, "channel": 0}, {"type": "note_off", "time": 104, "note": 63, "velocity": 112, "channel": 0}, {"type": "note_on", "time": 308, "note": 61, "velocity": 104, "channel": 0}, {"type": "note_off", "time": 39, "note": 61, "velocity": 104, "channel": 0}, {"type": "note_on", "time": 11, "note": 62, "velocity": 120, "channel": 0}, {"type": "note_off", "time": 121, "note": 62, "velocity": 120, "channel": 0}, {"type": "note_on", "time": 3, "note": 65, "velocity": 119, "channel": 0}, {"type": "note_off", "time": 109, "note": 65, "velocity": 119, "channel": 0}, {"type": "note_on", "time": 18, "note": 58, "velocity": 112, "channel": 0}, {"type": "note_off", "time": 120, "note": 58, "velocity": 112, "channel": 0}, {"type": "note_on", "time": 810, "note": 63, "velocity": 125, "channel": 0}, {"type": "note_off", "time": 102, "note": 63, "velocity": 125, "channel": 0}, {"type": "note_on", "time": 3, "note": 65, "velocity": 119, "channel": 0}, {"type": "note_off", "time": 63, "note": 65, "velocity": 119, "channel": 0}, {"type": "note_on", "time": 0, "note": 68, "velocity": 119, "channel": 0}, {"type": "note_off", "time": 95, "note": 68, "velocity": 119, "channel": 0}, {"type": "note_on", "time": 7, "note": 71, "velocity": 113, "channel": 0}, {"type": "note_off", "time": 42, "note": 71, "velocity": 113, "channel": 0}, {"type": "note_on", "time": 7, "note": 72, "velocity": 110, "channel": 0}, {"type": "note_off", "time": 1003, "note": 72, "velocity": 110, "channel": 0}, {"type": "note_on", "time": 27, "note": 71, "velocity": 113, "channel": 0}, {"type": "note_off", "time": 97, "note": 71, "velocity": 113, "channel": 0}, {"type": "note_on", "time": 19, "note": 70, "velocity": 117, "channel": 0}, {"type": "note_off", "time": 56, "note": 70, "velocity": 117, "channel": 0}, {"type": "note_on", "time": 25, "note": 70, "velocity": 118, "channel": 0}, {"type": "note_off", "time": 68, "note": 70, "velocity": 118, "channel": 0}, {"type": "note_on", "time": 23, "note": 72, "velocity": 116, "channel": 0}, {"type": "note_off", "time": 91, "note": 72, "velocity": 116, "channel": 0}, {"type": "note_on", "time": 13, "note": 70, "velocity": 84, "channel": 0}, {"type": "note_off", "time": 63, "note": 70, "velocity": 84, "channel": 0}, {"type": "note_on", "time": 0, "note": 72, "velocity": 118, "channel": 0}, {"type": "note_off", "time": 81, "note": 72, "velocity": 118, "channel": 0}, {"type": "note_on", "time": 31, "note": 73, "velocity": 107, "channel": 0}, {"type": "note_off", "time": 40, "note": 73, "velocity": 107, "channel": 0}, {"type": "note_on", "time": 9, "note": 71, "velocity": 112, "channel": 0}, {"type": "note_off", "time": 108, "note": 71, "velocity": 112, "channel": 0}, {"type": "note_on", "time": 20, "note": 71, "velocity": 101, "channel": 0}, {"type": "note_off", "time": 63, "note": 71, "velocity": 101, "channel": 0}, {"type": "note_on", "time": 9, "note": 70, "velocity": 115, "channel": 0}, {"type": "note_off", "time": 81, "note": 70, "velocity": 115, "channel": 0}, {"type": "note_on", "time": 23, "note": 70, "velocity": 117, "channel": 0}, {"type": "note_off", "time": 91, "note": 70, "velocity": 117, "channel": 0}, {"type": "note_on", "time": 34, "note": 72, "velocity": 105, "channel": 0}, {"type": "note_off", "time": 58, "note": 72, "velocity": 105, "channel": 0}, {"type": "note_on", "time": 19, "note": 70, "velocity": 105, "channel": 0}, {"type": "note_off", "time": 86, "note": 70, "velocity": 105, "channel": 0}, {"type": "note_on", "time": 23, "note": 73, "velocity": 99, "channel": 0}, {"type": "note_off", "time": 68, "note": 73, "velocity": 99, "channel": 0}, {"type": "note_on", "time": 0, "note": 70, "velocity": 99, "channel": 0}, {"type": "note_off", "time": 68, "note": 70, "velocity": 99, "channel": 0}, {"type": "note_on", "time": 8, "note": 72, "velocity": 117, "channel": 0}, {"type": "note_off", "time": 88, "note": 72, "velocity": 117, "channel": 0}, {"type": "note_on", "time": 19, "note": 72, "velocity": 110, "channel": 0}, {"type": "note_off", "time": 106, "note": 72, "velocity": 110, "channel": 0}, {"type": "note_on", "time": 8, "note": 71, "velocity": 111, "channel": 0}, {"type": "note_off", "time": 84, "note": 71, "velocity": 111, "channel": 0}, {"type": "note_on", "time": 18, "note": 71, "velocity": 113, "channel": 0}, {"type": "note_off", "time": 47, "note": 71, "velocity": 113, "channel": 0}, {"type": "note_on", "time": 15, "note": 70, "velocity": 111, "channel": 0}, {"type": "note_off", "time": 84, "note": 70, "velocity": 111, "channel": 0}, {"type": "note_on", "time": 5, "note": 71, "velocity": 105, "channel": 0}, {"type": "note_off", "time": 91, "note": 71, "velocity": 105, "channel": 0}, {"type": "note_on", "time": 2, "note": 70, "velocity": 113, "channel": 0}, {"type": "note_off", "time": 69, "note": 70, "velocity": 113, "channel": 0}, {"type": "note_on", "time": 19, "note": 70, "velocity": 117, "channel": 0}, {"type": "note_off", "time": 111, "note": 70, "velocity": 117, "channel": 0}, {"type": "note_on", "time": 18, "note": 72, "velocity": 110, "channel": 0}, {"type": "note_off", "time": 86, "note": 72, "velocity": 110, "channel": 0}, {"type": "note_on", "time": 22, "note": 70, "velocity": 102, "channel": 0}, {"type": "note_off", "time": 94, "note": 70, "velocity": 102, "channel": 0}, {"type": "note_on", "time": 16, "note": 73, "velocity": 110, "channel": 0}, {"type": "note_off", "time": 80, "note": 73, "velocity": 110, "channel": 0}, {"type": "note_on", "time": 25, "note": 73, "velocity": 114, "channel": 0}, {"type": "note_off", "time": 62, "note": 73, "velocity": 114, "channel": 0}, {"type": "note_on", "time": 24, "note": 68, "velocity": 116, "channel": 0}, {"type": "note_off", "time": 80, "note": 68, "velocity": 116, "channel": 0}, {"type": "note_on", "time": 11, "note": 73, "velocity": 109, "channel": 0}, {"type": "note_off", "time": 86, "note": 73, "velocity": 109, "channel": 0}, {"type": "note_on", "time": 20, "note": 70, "velocity": 112, "channel": 0}, {"type": "note_off", "time": 83, "note": 70, "velocity": 112, "channel": 0}, {"type": "note_on", "time": 9, "note": 70, "velocity": 115, "channel": 0}, {"type": "note_off", "time": 83, "note": 70, "velocity": 115, "channel": 0}, {"type": "note_on", "time": 12, "note": 72, "velocity": 114, "channel": 0}, {"type": "note_off", "time": 68, "note": 72, "velocity": 114, "channel": 0}, {"type": "note_on", "time": 18, "note": 70, "velocity": 98, "channel": 0}, {"type": "note_off", "time": 59, "note": 70, "velocity": 98, "channel": 0}, {"type": "note_on", "time": 15, "note": 72, "velocity": 114, "channel": 0}, {"type": "note_off", "time": 83, "note": 72, "velocity": 114, "channel": 0}, {"type": "note_on", "time": 18, "note": 70, "velocity": 105, "channel": 0}, {"type": "note_off", "time": 81, "note": 70, "velocity": 105, "channel": 0}, {"type": "note_on", "time": 15, "note": 72, "velocity": 110, "channel": 0}, {"type": "note_off", "time": 97, "note": 72, "velocity": 110, "channel": 0}, {"type": "note_on", "time": 22, "note": 70, "velocity": 111, "channel": 0}, {"type": "note_off", "time": 88, "note": 70, "velocity": 111, "channel": 0}, {"type": "note_on", "time": 20, "note": 69, "velocity": 107, "channel": 0}, {"type": "note_off", "time": 56, "note": 69, "velocity": 107, "channel": 0}, {"type": "note_on", "time": 20, "note": 67, "velocity": 103, "channel": 0}, {"type": "note_off", "time": 58, "note": 67, "velocity": 103, "channel": 0}, {"type": "note_on", "time": 11, "note": 69, "velocity": 107, "channel": 0}, {"type": "note_off", "time": 83, "note": 69, "velocity": 107, "channel": 0}, {"type": "note_on", "time": 29, "note": 74, "velocity": 98, "channel": 0}, {"type": "note_off", "time": 48, "note": 74, "velocity": 98, "channel": 0}, {"type": "note_on", "time": 6, "note": 73, "velocity": 107, "channel": 0}, {"type": "note_off", "time": 40, "note": 73, "velocity": 107, "channel": 0}, {"type": "note_on", "time": 15, "note": 71, "velocity": 106, "channel": 0}, {"type": "note_off", "time": 61, "note": 71, "velocity": 106, "channel": 0}, {"type": "note_on", "time": 34, "note": 64, "velocity": 113, "channel": 0}, {"type": "note_off", "time": 77, "note": 64, "velocity": 113, "channel": 0}, {"type": "note_on", "time": 2, "note": 66, "velocity": 110, "channel": 0}, {"type": "note_off", "time": 45, "note": 66, "velocity": 110, "channel": 0}, {"type": "note_on", "time": 40, "note": 71, "velocity": 111, "channel": 0}, {"type": "note_off", "time": 59, "note": 71, "velocity": 111, "channel": 0}, {"type": "note_on", "time": 29, "note": 68, "velocity": 113, "channel": 0}, {"type": "note_off", "time": 84, "note": 68, "velocity": 113, "channel": 0}, {"type": "note_on", "time": 16, "note": 73, "velocity": 105, "channel": 0}, {"type": "note_off", "time": 65, "note": 73, "velocity": 105, "channel": 0}, {"type": "note_on", "time": 20, "note": 70, "velocity": 110, "channel": 0}, {"type": "note_off", "time": 78, "note": 70, "velocity": 110, "channel": 0}, {"type": "note_on", "time": 30, "note": 63, "velocity": 111, "channel": 0}, {"type": "note_off", "time": 74, "note": 63, "velocity": 111, "channel": 0}, {"type": "note_on", "time": 11, "note": 65, "velocity": 109, "channel": 0}, {"type": "note_off", "time": 68, "note": 65, "velocity": 109, "channel": 0}, {"type": "note_on", "time": 27, "note": 70, "velocity": 114, "channel": 0}, {"type": "note_off", "time": 84, "note": 70, "velocity": 114, "channel": 0}, {"type": "note_on", "time": 9, "note": 67, "velocity": 110, "channel": 0}, {"type": "note_off", "time": 88, "note": 67, "velocity": 110, "channel": 0}, {"type": "note_on", "time": 12, "note": 72, "velocity": 106, "channel": 0}, {"type": "note_off", "time": 65, "note": 72, "velocity": 106, "channel": 0}, {"type": "note_on", "time": 15, "note": 69, "velocity": 113, "channel": 0}, {"type": "note_off", "time": 69, "note": 69, "velocity": 113, "channel": 0}, {"type": "note_on", "time": 40, "note": 62, "velocity": 107, "channel": 0}, {"type": "note_off", "time": 65, "note": 62, "velocity": 107, "channel": 0}, {"type": "note_on", "time": 2, "note": 64, "velocity": 111, "channel": 0}, {"type": "note_off", "time": 68, "note": 64, "velocity": 111, "channel": 0}, {"type": "note_on", "time": 51, "note": 69, "velocity": 112, "channel": 0}, {"type": "note_off", "time": 59, "note": 69, "velocity": 112, "channel": 0}, {"type": "note_on", "time": 15, "note": 66, "velocity": 110, "channel": 0}, {"type": "note_off", "time": 72, "note": 66, "velocity": 110, "channel": 0}, {"type": "note_on", "time": 51, "note": 71, "velocity": 105, "channel": 0}, {"type": "note_off", "time": 44, "note": 71, "velocity": 105, "channel": 0}, {"type": "note_on", "time": 0, "note": 68, "velocity": 111, "channel": 0}, {"type": "note_off", "time": 97, "note": 68, "velocity": 111, "channel": 0}, {"type": "note_on", "time": 37, "note": 61, "velocity": 103, "channel": 0}, {"type": "note_off", "time": 58, "note": 61, "velocity": 103, "channel": 0}, {"type": "note_on", "time": 23, "note": 63, "velocity": 110, "channel": 0}, {"type": "note_off", "time": 70, "note": 63, "velocity": 110, "channel": 0}, {"type": "note_on", "time": 16, "note": 68, "velocity": 115, "channel": 0}, {"type": "note_on", "time": 102, "note": 67, "velocity": 113, "channel": 0}, {"type": "note_off", "time": 0, "note": 68, "velocity": 115, "channel": 0}, {"type": "note_off", "time": 69, "note": 67, "velocity": 113, "channel": 0}, {"type": "note_on", "time": 12, "note": 66, "velocity": 111, "channel": 0}, {"type": "note_off", "time": 109, "note": 66, "velocity": 111, "channel": 0}, {"type": "note_on", "time": 6, "note": 65, "velocity": 112, "channel": 0}, {"type": "note_off", "time": 66, "note": 65, "velocity": 112, "channel": 0}, {"type": "note_on", "time": 12, "note": 64, "velocity": 113, "channel": 0}, {"type": "note_off", "time": 73, "note": 64, "velocity": 113, "channel": 0}, {"type": "note_on", "time": 15, "note": 63, "velocity": 115, "channel": 0}, {"type": "note_off", "time": 77, "note": 63, "velocity": 115, "channel": 0}, {"type": "note_on", "time": 12, "note": 67, "velocity": 110, "channel": 0}, {"type": "note_off", "time": 68, "note": 67, "velocity": 110, "channel": 0}, {"type": "note_on", "time": 20, "note": 62, "velocity": 117, "channel": 0}, {"type": "note_off", "time": 134, "note": 62, "velocity": 117, "channel": 0}, {"type": "note_on", "time": 429, "note": 69, "velocity": 112, "channel": 0}, {"type": "note_off", "time": 95, "note": 69, "velocity": 112, "channel": 0}, {"type": "note_on", "time": 9, "note": 67, "velocity": 113, "channel": 0}, {"type": "note_off", "time": 81, "note": 67, "velocity": 113, "channel": 0}, {"type": "note_on", "time": 5, "note": 68, "velocity": 114, "channel": 0}, {"type": "note_off", "time": 68, "note": 68, "velocity": 114, "channel": 0}, {"type": "note_on", "time": 1, "note": 72, "velocity": 100, "channel": 0}, {"type": "note_off", "time": 61, "note": 72, "velocity": 100, "channel": 0}, {"type": "note_on", "time": 33, "note": 75, "velocity": 110, "channel": 0}, {"type": "note_off", "time": 62, "note": 75, "velocity": 110, "channel": 0}, {"type": "note_on", "time": 51, "note": 79, "velocity": 124, "channel": 0}, {"type": "note_off", "time": 82, "note": 79, "velocity": 124, "channel": 0}, {"type": "note_on", "time": 0, "note": 82, "velocity": 113, "channel": 0}, {"type": "note_off", "time": 788, "note": 82, "velocity": 113, "channel": 0}, {"type": "note_on", "time": 21, "note": 68, "velocity": 120, "channel": 0}, {"type": "note_off", "time": 322, "note": 68, "velocity": 120, "channel": 0}, {"type": "note_on", "time": 1, "note": 70, "velocity": 121, "channel": 0}, {"type": "note_off", "time": 304, "note": 70, "velocity": 121, "channel": 0}, {"type": "note_on", "time": 878, "note": 70, "velocity": 118, "channel": 0}, {"type": "note_off", "time": 69, "note": 70, "velocity": 118, "channel": 0}, {"type": "note_on", "time": 13, "note": 67, "velocity": 114, "channel": 0}, {"type": "note_off", "time": 68, "note": 67, "velocity": 114, "channel": 0}, {"type": "note_on", "time": 9, "note": 68, "velocity": 116, "channel": 0}, {"type": "note_off", "time": 81, "note": 68, "velocity": 116, "channel": 0}, {"type": "note_on", "time": 23, "note": 72, "velocity": 103, "channel": 0}, {"type": "note_off", "time": 38, "note": 72, "velocity": 103, "channel": 0}, {"type": "note_on", "time": 34, "note": 75, "velocity": 117, "channel": 0}, {"type": "note_off", "time": 86, "note": 75, "velocity": 117, "channel": 0}, {"type": "note_on", "time": 8, "note": 79, "velocity": 124, "channel": 0}, {"type": "note_off", "time": 82, "note": 79, "velocity": 124, "channel": 0}, {"type": "note_on", "time": 6, "note": 82, "velocity": 107, "channel": 0}, {"type": "note_off", "time": 64, "note": 82, "velocity": 107, "channel": 0}, {"type": "note_on", "time": 147, "note": 44, "velocity": 125, "channel": 0}, {"type": "note_off", "time": 188, "note": 44, "velocity": 125, "channel": 0}, {"type": "note_on", "time": 22, "note": 46, "velocity": 117, "channel": 0}, {"type": "note_off", "time": 125, "note": 46, "velocity": 117, "channel": 0}, {"type": "note_on", "time": 244, "note": 70, "velocity": 116, "channel": 0}, {"type": "note_off", "time": 91, "note": 70, "velocity": 116, "channel": 0}, {"type": "note_on", "time": 14, "note": 67, "velocity": 112, "channel": 0}, {"type": "note_off", "time": 66, "note": 67, "velocity": 112, "channel": 0}, {"type": "note_on", "time": 3, "note": 68, "velocity": 117, "channel": 0}, {"type": "note_off", "time": 63, "note": 68, "velocity": 117, "channel": 0}, {"type": "note_on", "time": 9, "note": 72, "velocity": 97, "channel": 0}, {"type": "note_off", "time": 91, "note": 72, "velocity": 97, "channel": 0}, {"type": "note_on", "time": 0, "note": 75, "velocity": 114, "channel": 0}, {"type": "note_off", "time": 94, "note": 75, "velocity": 114, "channel": 0}, {"type": "note_on", "time": 0, "note": 79, "velocity": 119, "channel": 0}, {"type": "note_off", "time": 115, "note": 79, "velocity": 119, "channel": 0}, {"type": "note_on", "time": 0, "note": 82, "velocity": 103, "channel": 0}, {"type": "note_off", "time": 234, "note": 82, "velocity": 103, "channel": 0}, {"type": "note_on", "time": 138, "note": 45, "velocity": 120, "channel": 0}, {"type": "note_on", "time": 209, "note": 47, "velocity": 117, "channel": 0}, {"type": "note_off", "time": 0, "note": 45, "velocity": 120, "channel": 0}, {"type": "note_off", "time": 123, "note": 47, "velocity": 117, "channel": 0}, {"type": "note_on", "time": 258, "note": 70, "velocity": 116, "channel": 0}, {"type": "note_off", "time": 78, "note": 70, "velocity": 116, "channel": 0}, {"type": "note_on", "time": 6, "note": 67, "velocity": 110, "channel": 0}, {"type": "note_off", "time": 69, "note": 67, "velocity": 110, "channel": 0}, {"type": "note_on", "time": 7, "note": 68, "velocity": 112, "channel": 0}, {"type": "note_off", "time": 70, "note": 68, "velocity": 112, "channel": 0}, {"type": "note_on", "time": 23, "note": 72, "velocity": 102, "channel": 0}, {"type": "note_off", "time": 83, "note": 72, "velocity": 102, "channel": 0}, {"type": "note_on", "time": 3, "note": 75, "velocity": 110, "channel": 0}, {"type": "note_off", "time": 93, "note": 75, "velocity": 110, "channel": 0}, {"type": "note_on", "time": 3, "note": 79, "velocity": 116, "channel": 0}, {"type": "note_off", "time": 101, "note": 79, "velocity": 116, "channel": 0}, {"type": "note_on", "time": 3, "note": 80, "velocity": 119, "channel": 0}, {"type": "note_off", "time": 255, "note": 80, "velocity": 119, "channel": 0}, {"type": "note_on", "time": 136, "note": 44, "velocity": 122, "channel": 0}, {"type": "note_off", "time": 164, "note": 44, "velocity": 122, "channel": 0}, {"type": "note_on", "time": 7, "note": 46, "velocity": 119, "channel": 0}, {"type": "note_off", "time": 151, "note": 46, "velocity": 119, "channel": 0}, {"type": "note_on", "time": 240, "note": 67, "velocity": 111, "channel": 0}, {"type": "note_off", "time": 123, "note": 67, "velocity": 111, "channel": 0}, {"type": "note_on", "time": 2, "note": 68, "velocity": 114, "channel": 0}, {"type": "note_off", "time": 55, "note": 68, "velocity": 114, "channel": 0}, {"type": "note_on", "time": 12, "note": 71, "velocity": 103, "channel": 0}, {"type": "note_off", "time": 70, "note": 71, "velocity": 103, "channel": 0}, {"type": "note_on", "time": 15, "note": 75, "velocity": 112, "channel": 0}, {"type": "note_off", "time": 74, "note": 75, "velocity": 112, "channel": 0}, {"type": "note_on", "time": 5, "note": 79, "velocity": 117, "channel": 0}, {"type": "note_off", "time": 87, "note": 79, "velocity": 117, "channel": 0}, {"type": "note_on", "time": 0, "note": 80, "velocity": 121, "channel": 0}, {"type": "note_off", "time": 341, "note": 80, "velocity": 121, "channel": 0}, {"type": "note_on", "time": 203, "note": 67, "velocity": 115, "channel": 0}, {"type": "note_off", "time": 87, "note": 67, "velocity": 115, "channel": 0}, {"type": "note_on", "time": 1, "note": 68, "velocity": 112, "channel": 0}, {"type": "note_off", "time": 58, "note": 68, "velocity": 112, "channel": 0}, {"type": "note_on", "time": 32, "note": 72, "velocity": 104, "channel": 0}, {"type": "note_off", "time": 84, "note": 72, "velocity": 104, "channel": 0}, {"type": "note_on", "time": 6, "note": 75, "velocity": 111, "channel": 0}, {"type": "note_off", "time": 69, "note": 75, "velocity": 111, "channel": 0}, {"type": "note_on", "time": 0, "note": 79, "velocity": 122, "channel": 0}, {"type": "note_off", "time": 125, "note": 79, "velocity": 122, "channel": 0}, {"type": "note_on", "time": 5, "note": 82, "velocity": 109, "channel": 0}, {"type": "note_off", "time": 194, "note": 82, "velocity": 109, "channel": 0}, {"type": "note_on", "time": 244, "note": 67, "velocity": 115, "channel": 0}, {"type": "note_off", "time": 110, "note": 67, "velocity": 115, "channel": 0}, {"type": "note_on", "time": 3, "note": 68, "velocity": 106, "channel": 0}, {"type": "note_off", "time": 38, "note": 68, "velocity": 106, "channel": 0}, {"type": "note_on", "time": 12, "note": 71, "velocity": 108, "channel": 0}, {"type": "note_off", "time": 69, "note": 71, "velocity": 108, "channel": 0}, {"type": "note_on", "time": 23, "note": 75, "velocity": 114, "channel": 0}, {"type": "note_off", "time": 86, "note": 75, "velocity": 114, "channel": 0}, {"type": "note_on", "time": 0, "note": 79, "velocity": 119, "channel": 0}, {"type": "note_off", "time": 203, "note": 79, "velocity": 119, "channel": 0}, {"type": "note_on", "time": 36, "note": 83, "velocity": 115, "channel": 0}, {"type": "note_off", "time": 54, "note": 83, "velocity": 115, "channel": 0}, {"type": "note_on", "time": 4, "note": 84, "velocity": 116, "channel": 0}, {"type": "note_off", "time": 78, "note": 84, "velocity": 116, "channel": 0}, {"type": "note_on", "time": 0, "note": 83, "velocity": 126, "channel": 0}, {"type": "note_off", "time": 82, "note": 83, "velocity": 126, "channel": 0}, {"type": "note_on", "time": 19, "note": 82, "velocity": 116, "channel": 0}, {"type": "note_off", "time": 85, "note": 82, "velocity": 116, "channel": 0}, {"type": "note_on", "time": 74, "note": 79, "velocity": 122, "channel": 0}, {"type": "note_off", "time": 116, "note": 79, "velocity": 122, "channel": 0}, {"type": "note_on", "time": 89, "note": 80, "velocity": 107, "channel": 0}, {"type": "note_off", "time": 34, "note": 80, "velocity": 107, "channel": 0}, {"type": "note_on", "time": 9, "note": 83, "velocity": 95, "channel": 0}, {"type": "note_off", "time": 49, "note": 83, "velocity": 95, "channel": 0}, {"type": "note_on", "time": 263, "note": 79, "velocity": 109, "channel": 0}, {"type": "note_off", "time": 154, "note": 79, "velocity": 109, "channel": 0}, {"type": "note_on", "time": 67, "note": 80, "velocity": 102, "channel": 0}, {"type": "note_off", "time": 29, "note": 80, "velocity": 102, "channel": 0}, {"type": "note_on", "time": 15, "note": 84, "velocity": 83, "channel": 0}, {"type": "note_off", "time": 54, "note": 84, "velocity": 83, "channel": 0}, {"type": "note_on", "time": 77, "note": 45, "velocity": 119, "channel": 0}, {"type": "note_off", "time": 174, "note": 45, "velocity": 119, "channel": 0}, {"type": "note_on", "time": 0, "note": 46, "velocity": 113, "channel": 0}, {"type": "note_off", "time": 170, "note": 46, "velocity": 113, "channel": 0}, {"type": "note_on", "time": 0, "note": 47, "velocity": 112, "channel": 0}, {"type": "note_off", "time": 157, "note": 47, "velocity": 112, "channel": 0}, {"type": "note_on", "time": 57, "note": 63, "velocity": 112, "channel": 0}, {"type": "note_off", "time": 152, "note": 63, "velocity": 112, "channel": 0}, {"type": "note_on", "time": 239, "note": 64, "velocity": 122, "channel": 0}, {"type": "note_off", "time": 139, "note": 64, "velocity": 122, "channel": 0}, {"type": "note_on", "time": 252, "note": 65, "velocity": 109, "channel": 0}, {"type": "note_off", "time": 128, "note": 65, "velocity": 109, "channel": 0}, {"type": "note_on", "time": 136, "note": 66, "velocity": 112, "channel": 0}, {"type": "note_off", "time": 123, "note": 66, "velocity": 112, "channel": 0}, {"type": "note_on", "time": 219, "note": 80, "velocity": 114, "channel": 0}, {"type": "note_off", "time": 110, "note": 80, "velocity": 114, "channel": 0}, {"type": "note_on", "time": 75, "note": 80, "velocity": 98, "channel": 0}, {"type": "note_off", "time": 54, "note": 80, "velocity": 98, "channel": 0}, {"type": "note_on", "time": 102, "note": 44, "velocity": 120, "channel": 0}, {"type": "note_off", "time": 162, "note": 44, "velocity": 120, "channel": 0}, {"type": "note_on", "time": 11, "note": 46, "velocity": 123, "channel": 0}, {"type": "note_off", "time": 151, "note": 46, "velocity": 123, "channel": 0}, {"type": "note_on", "time": 264, "note": 46, "velocity": 113, "channel": 0}, {"type": "note_off", "time": 99, "note": 46, "velocity": 113, "channel": 0}, {"type": "note_on", "time": 183, "note": 47, "velocity": 118, "channel": 0}, {"type": "note_off", "time": 92, "note": 47, "velocity": 118, "channel": 0}, {"type": "note_on", "time": 212, "note": 64, "velocity": 121, "channel": 0}, {"type": "note_off", "time": 105, "note": 64, "velocity": 121, "channel": 0}, {"type": "note_on", "time": 10, "note": 65, "velocity": 114, "channel": 0}, {"type": "note_off", "time": 48, "note": 65, "velocity": 114, "channel": 0}, {"type": "note_on", "time": 5, "note": 66, "velocity": 114, "channel": 0}, {"type": "note_off", "time": 93, "note": 66, "velocity": 114, "channel": 0}, {"type": "note_on", "time": 266, "note": 61, "velocity": 118, "channel": 0}, {"type": "note_off", "time": 102, "note": 61, "velocity": 118, "channel": 0}, {"type": "note_on", "time": 10, "note": 62, "velocity": 124, "channel": 0}, {"type": "note_off", "time": 101, "note": 62, "velocity": 124, "channel": 0}, {"type": "note_on", "time": 14, "note": 63, "velocity": 124, "channel": 0}, {"type": "note_off", "time": 68, "note": 63, "velocity": 124, "channel": 0}, {"type": "note_on", "time": 127, "note": 55, "velocity": 112, "channel": 0}, {"type": "note_on", "time": 102, "note": 56, "velocity": 104, "channel": 0}, {"type": "note_off", "time": 0, "note": 55, "velocity": 112, "channel": 0}, {"type": "note_off", "time": 41, "note": 56, "velocity": 104, "channel": 0}, {"type": "note_on", "time": 0, "note": 57, "velocity": 112, "channel": 0}, {"type": "note_off", "time": 104, "note": 57, "velocity": 112, "channel": 0}, {"type": "note_on", "time": 115, "note": 52, "velocity": 115, "channel": 0}, {"type": "note_off", "time": 125, "note": 52, "velocity": 115, "channel": 0}, {"type": "note_on", "time": 1, "note": 53, "velocity": 115, "channel": 0}, {"type": "note_off", "time": 54, "note": 53, "velocity": 115, "channel": 0}, {"type": "note_on", "time": 7, "note": 54, "velocity": 113, "channel": 0}, {"type": "note_off", "time": 69, "note": 54, "velocity": 113, "channel": 0}, {"type": "note_on", "time": 41, "note": 49, "velocity": 112, "channel": 0}, {"type": "note_off", "time": 114, "note": 49, "velocity": 112, "channel": 0}, {"type": "note_on", "time": 326, "note": 51, "velocity": 115, "channel": 0}, {"type": "note_off", "time": 168, "note": 51, "velocity": 115, "channel": 0}, {"type": "note_on", "time": 241, "note": 52, "velocity": 113, "channel": 0}, {"type": "note_off", "time": 110, "note": 52, "velocity": 113, "channel": 0}, {"type": "note_on", "time": 0, "note": 53, "velocity": 113, "channel": 0}, {"type": "note_off", "time": 52, "note": 53, "velocity": 113, "channel": 0}, {"type": "note_on", "time": 0, "note": 54, "velocity": 112, "channel": 0}, {"type": "note_off", "time": 109, "note": 54, "velocity": 112, "channel": 0}, {"type": "note_on", "time": 16, "note": 55, "velocity": 108, "channel": 0}, {"type": "note_off", "time": 83, "note": 55, "velocity": 108, "channel": 0}, {"type": "note_on", "time": 116, "note": 56, "velocity": 108, "channel": 0}, {"type": "note_off", "time": 102, "note": 56, "velocity": 108, "channel": 0}, {"type": "note_on", "time": 4, "note": 58, "velocity": 106, "channel": 0}, {"type": "note_on", "time": 96, "note": 59, "velocity": 109, "channel": 0}, {"type": "note_off", "time": 0, "note": 58, "velocity": 106, "channel": 0}, {"type": "note_off", "time": 78, "note": 59, "velocity": 109, "channel": 0}, {"type": "note_on", "time": 4, "note": 60, "velocity": 117, "channel": 0}, {"type": "note_off", "time": 86, "note": 60, "velocity": 117, "channel": 0}, {"type": "note_on", "time": 9, "note": 61, "velocity": 109, "channel": 0}, {"type": "note_off", "time": 82, "note": 61, "velocity": 109, "channel": 0}, {"type": "note_on", "time": 6, "note": 64, "velocity": 119, "channel": 0}, {"type": "note_off", "time": 113, "note": 64, "velocity": 119, "channel": 0}, {"type": "note_on", "time": 2, "note": 65, "velocity": 118, "channel": 0}, {"type": "note_off", "time": 91, "note": 65, "velocity": 118, "channel": 0}, {"type": "note_on", "time": 3, "note": 66, "velocity": 115, "channel": 0}, {"type": "note_off", "time": 77, "note": 66, "velocity": 115, "channel": 0}, {"type": "note_on", "time": 27, "note": 67, "velocity": 111, "channel": 0}, {"type": "note_off", "time": 37, "note": 67, "velocity": 111, "channel": 0}, {"type": "note_on", "time": 23, "note": 68, "velocity": 115, "channel": 0}, {"type": "note_off", "time": 87, "note": 68, "velocity": 115, "channel": 0}, {"type": "note_on", "time": 18, "note": 69, "velocity": 114, "channel": 0}, {"type": "note_off", "time": 60, "note": 69, "velocity": 114, "channel": 0}, {"type": "note_on", "time": 6, "note": 70, "velocity": 110, "channel": 0}, {"type": "note_off", "time": 102, "note": 70, "velocity": 110, "channel": 0}, {"type": "note_on", "time": 16, "note": 73, "velocity": 107, "channel": 0}, {"type": "note_off", "time": 67, "note": 73, "velocity": 107, "channel": 0}, {"type": "note_on", "time": 6, "note": 73, "velocity": 113, "channel": 0}, {"type": "note_off", "time": 122, "note": 73, "velocity": 113, "channel": 0}, {"type": "note_on", "time": 11, "note": 72, "velocity": 110, "channel": 0}, {"type": "note_off", "time": 80, "note": 72, "velocity": 110, "channel": 0}, {"type": "note_on", "time": 32, "note": 70, "velocity": 113, "channel": 0}, {"type": "note_off", "time": 48, "note": 70, "velocity": 113, "channel": 0}, {"type": "note_on", "time": 18, "note": 65, "velocity": 99, "channel": 0}, {"type": "note_off", "time": 63, "note": 65, "velocity": 99, "channel": 0}, {"type": "note_on", "time": 11, "note": 61, "velocity": 109, "channel": 0}, {"type": "note_off", "time": 120, "note": 61, "velocity": 109, "channel": 0}, {"type": "note_on", "time": 0, "note": 67, "velocity": 100, "channel": 0}, {"type": "note_off", "time": 61, "note": 67, "velocity": 100, "channel": 0}, {"type": "note_on", "time": 21, "note": 64, "velocity": 122, "channel": 0}, {"type": "note_off", "time": 118, "note": 64, "velocity": 122, "channel": 0}, {"type": "note_on", "time": 2, "note": 61, "velocity": 109, "channel": 0}, {"type": "note_off", "time": 85, "note": 61, "velocity": 109, "channel": 0}, {"type": "note_on", "time": 0, "note": 56, "velocity": 110, "channel": 0}, {"type": "note_off", "time": 88, "note": 56, "velocity": 110, "channel": 0}, {"type": "note_on", "time": 47, "note": 53, "velocity": 114, "channel": 0}, {"type": "note_off", "time": 51, "note": 53, "velocity": 114, "channel": 0}, {"type": "note_on", "time": 0, "note": 58, "velocity": 115, "channel": 0}, {"type": "note_off", "time": 89, "note": 58, "velocity": 115, "channel": 0}, {"type": "note_on", "time": 0, "note": 55, "velocity": 107, "channel": 0}, {"type": "note_off", "time": 45, "note": 55, "velocity": 107, "channel": 0}, {"type": "note_on", "time": 0, "note": 56, "velocity": 107, "channel": 0}, {"type": "note_off", "time": 103, "note": 56, "velocity": 107, "channel": 0}, {"type": "note_on", "time": 19, "note": 58, "velocity": 108, "channel": 0}, {"type": "note_off", "time": 101, "note": 58, "velocity": 108, "channel": 0}, {"type": "note_on", "time": 0, "note": 59, "velocity": 104, "channel": 0}, {"type": "note_off", "time": 72, "note": 59, "velocity": 104, "channel": 0}, {"type": "note_on", "time": 23, "note": 61, "velocity": 112, "channel": 0}, {"type": "note_off", "time": 97, "note": 61, "velocity": 112, "channel": 0}, {"type": "note_on", "time": 13, "note": 63, "velocity": 114, "channel": 0}, {"type": "note_off", "time": 81, "note": 63, "velocity": 114, "channel": 0}, {"type": "note_on", "time": 48, "note": 66, "velocity": 105, "channel": 0}, {"type": "note_off", "time": 49, "note": 66, "velocity": 105, "channel": 0}, {"type": "note_on", "time": 0, "note": 67, "velocity": 118, "channel": 0}, {"type": "note_off", "time": 90, "note": 67, "velocity": 118, "channel": 0}, {"type": "note_on", "time": 2, "note": 66, "velocity": 111, "channel": 0}, {"type": "note_off", "time": 76, "note": 66, "velocity": 111, "channel": 0}, {"type": "note_on", "time": 13, "note": 63, "velocity": 113, "channel": 0}, {"type": "note_off", "time": 79, "note": 63, "velocity": 113, "channel": 0}, {"type": "note_on", "time": 31, "note": 59, "velocity": 96, "channel": 0}, {"type": "note_off", "time": 56, "note": 59, "velocity": 96, "channel": 0}, {"type": "note_on", "time": 23, "note": 69, "velocity": 111, "channel": 0}, {"type": "note_off", "time": 105, "note": 69, "velocity": 111, "channel": 0}, {"type": "note_on", "time": 8, "note": 68, "velocity": 107, "channel": 0}, {"type": "note_off", "time": 55, "note": 68, "velocity": 107, "channel": 0}, {"type": "note_on", "time": 11, "note": 65, "velocity": 105, "channel": 0}, {"type": "note_off", "time": 101, "note": 65, "velocity": 105, "channel": 0}, {"type": "note_on", "time": 15, "note": 61, "velocity": 96, "channel": 0}, {"type": "note_off", "time": 67, "note": 61, "velocity": 96, "channel": 0}, {"type": "note_on", "time": 31, "note": 71, "velocity": 103, "channel": 0}, {"type": "note_off", "time": 74, "note": 71, "velocity": 103, "channel": 0}, {"type": "note_on", "time": 9, "note": 70, "velocity": 107, "channel": 0}, {"type": "note_off", "time": 67, "note": 70, "velocity": 107, "channel": 0}, {"type": "note_on", "time": 6, "note": 67, "velocity": 105, "channel": 0}, {"type": "note_on", "time": 99, "note": 64, "velocity": 105, "channel": 0}, {"type": "note_off", "time": 0, "note": 67, "velocity": 105, "channel": 0}, {"type": "note_off", "time": 69, "note": 64, "velocity": 105, "channel": 0}, {"type": "note_on", "time": 66, "note": 72, "velocity": 107, "channel": 0}, {"type": "note_off", "time": 47, "note": 72, "velocity": 107, "channel": 0}, {"type": "note_on", "time": 6, "note": 73, "velocity": 104, "channel": 0}, {"type": "note_off", "time": 145, "note": 73, "velocity": 104, "channel": 0}, {"type": "note_on", "time": 18, "note": 72, "velocity": 110, "channel": 0}, {"type": "note_off", "time": 70, "note": 72, "velocity": 110, "channel": 0}, {"type": "note_on", "time": 28, "note": 71, "velocity": 112, "channel": 0}, {"type": "note_off", "time": 98, "note": 71, "velocity": 112, "channel": 0}, {"type": "note_on", "time": 61, "note": 69, "velocity": 112, "channel": 0}, {"type": "note_off", "time": 61, "note": 69, "velocity": 112, "channel": 0}, {"type": "note_on", "time": 0, "note": 72, "velocity": 108, "channel": 0}, {"type": "note_off", "time": 32, "note": 72, "velocity": 108, "channel": 0}, {"type": "note_on", "time": 0, "note": 69, "velocity": 111, "channel": 0}, {"type": "note_off", "time": 95, "note": 69, "velocity": 111, "channel": 0}, {"type": "note_on", "time": 12, "note": 68, "velocity": 111, "channel": 0}, {"type": "note_off", "time": 54, "note": 68, "velocity": 111, "channel": 0}, {"type": "note_on", "time": 18, "note": 67, "velocity": 111, "channel": 0}, {"type": "note_off", "time": 78, "note": 67, "velocity": 111, "channel": 0}, {"type": "note_on", "time": 16, "note": 66, "velocity": 111, "channel": 0}, {"type": "note_off", "time": 90, "note": 66, "velocity": 111, "channel": 0}, {"type": "note_on", "time": 8, "note": 65, "velocity": 110, "channel": 0}, {"type": "note_off", "time": 81, "note": 65, "velocity": 110, "channel": 0}, {"type": "note_on", "time": 9, "note": 64, "velocity": 115, "channel": 0}, {"type": "note_off", "time": 86, "note": 64, "velocity": 115, "channel": 0}, {"type": "note_on", "time": 19, "note": 63, "velocity": 116, "channel": 0}, {"type": "note_off", "time": 82, "note": 63, "velocity": 116, "channel": 0}, {"type": "note_on", "time": 1, "note": 62, "velocity": 118, "channel": 0}, {"type": "note_off", "time": 81, "note": 62, "velocity": 118, "channel": 0}, {"type": "note_on", "time": 4, "note": 61, "velocity": 112, "channel": 0}, {"type": "note_off", "time": 90, "note": 61, "velocity": 112, "channel": 0}, {"type": "note_on", "time": 18, "note": 65, "velocity": 111, "channel": 0}, {"type": "note_off", "time": 74, "note": 65, "velocity": 111, "channel": 0}, {"type": "note_on", "time": 0, "note": 63, "velocity": 116, "channel": 0}, {"type": "note_off", "time": 90, "note": 63, "velocity": 116, "channel": 0}, {"type": "note_on", "time": 2, "note": 61, "velocity": 111, "channel": 0}, {"type": "note_off", "time": 89, "note": 61, "velocity": 111, "channel": 0}, {"type": "note_on", "time": 5, "note": 58, "velocity": 104, "channel": 0}, {"type": "note_off", "time": 85, "note": 58, "velocity": 104, "channel": 0}, {"type": "note_on", "time": 621, "note": 64, "velocity": 117, "channel": 0}, {"type": "note_off", "time": 72, "note": 64, "velocity": 117, "channel": 0}, {"type": "note_on", "time": 2, "note": 65, "velocity": 111, "channel": 0}, {"type": "note_off", "time": 55, "note": 65, "velocity": 111, "channel": 0}, {"type": "note_on", "time": 9, "note": 69, "velocity": 107, "channel": 0}, {"type": "note_off", "time": 52, "note": 69, "velocity": 107, "channel": 0}, {"type": "note_on", "time": 25, "note": 72, "velocity": 109, "channel": 0}, {"type": "note_off", "time": 55, "note": 72, "velocity": 109, "channel": 0}, {"type": "note_on", "time": 9, "note": 75, "velocity": 121, "channel": 0}, {"type": "note_off", "time": 117, "note": 75, "velocity": 121, "channel": 0}, {"type": "note_on", "time": 1, "note": 79, "velocity": 117, "channel": 0}, {"type": "note_off", "time": 630, "note": 79, "velocity": 117, "channel": 0}, {"type": "note_on", "time": 823, "note": 74, "velocity": 93, "channel": 0}, {"type": "note_off", "time": 33, "note": 74, "velocity": 93, "channel": 0}, {"type": "note_on", "time": 15, "note": 75, "velocity": 123, "channel": 0}, {"type": "note_off", "time": 297, "note": 75, "velocity": 123, "channel": 0}, {"type": "note_on", "time": 2, "note": 74, "velocity": 107, "channel": 0}, {"type": "note_off", "time": 52, "note": 74, "velocity": 107, "channel": 0}, {"type": "note_on", "time": 8, "note": 73, "velocity": 107, "channel": 0}, {"type": "note_off", "time": 37, "note": 73, "velocity": 107, "channel": 0}, {"type": "note_on", "time": 0, "note": 72, "velocity": 112, "channel": 0}, {"type": "note_off", "time": 338, "note": 72, "velocity": 112, "channel": 0}, {"type": "note_on", "time": 6, "note": 70, "velocity": 116, "channel": 0}, {"type": "note_off", "time": 85, "note": 70, "velocity": 116, "channel": 0}, {"type": "note_on", "time": 6, "note": 69, "velocity": 112, "channel": 0}, {"type": "note_off", "time": 278, "note": 69, "velocity": 112, "channel": 0}, {"type": "note_on", "time": 0, "note": 67, "velocity": 113, "channel": 0}, {"type": "note_off", "time": 65, "note": 67, "velocity": 113, "channel": 0}, {"type": "note_on", "time": 8, "note": 65, "velocity": 113, "channel": 0}, {"type": "note_off", "time": 94, "note": 65, "velocity": 113, "channel": 0}, {"type": "note_on", "time": 1, "note": 64, "velocity": 112, "channel": 0}, {"type": "note_off", "time": 71, "note": 64, "velocity": 112, "channel": 0}, {"type": "note_on", "time": 5, "note": 63, "velocity": 119, "channel": 0}, {"type": "note_off", "time": 65, "note": 63, "velocity": 119, "channel": 0}, {"type": "note_on", "time": 6, "note": 65, "velocity": 111, "channel": 0}, {"type": "note_off", "time": 108, "note": 65, "velocity": 111, "channel": 0}, {"type": "note_on", "time": 21, "note": 62, "velocity": 116, "channel": 0}, {"type": "note_off", "time": 101, "note": 62, "velocity": 116, "channel": 0}, {"type": "note_on", "time": 0, "note": 60, "velocity": 108, "channel": 0}, {"type": "note_off", "time": 93, "note": 60, "velocity": 108, "channel": 0}, {"type": "note_on", "time": 3, "note": 59, "velocity": 105, "channel": 0}, {"type": "note_off", "time": 81, "note": 59, "velocity": 105, "channel": 0}, {"type": "note_on", "time": 0, "note": 62, "velocity": 122, "channel": 0}, {"type": "note_off", "time": 99, "note": 62, "velocity": 122, "channel": 0}, {"type": "note_on", "time": 4, "note": 60, "velocity": 115, "channel": 0}, {"type": "note_off", "time": 78, "note": 60, "velocity": 115, "channel": 0}, {"type": "note_on", "time": 2, "note": 58, "velocity": 107, "channel": 0}, {"type": "note_off", "time": 79, "note": 58, "velocity": 107, "channel": 0}, {"type": "note_on", "time": 2, "note": 57, "velocity": 108, "channel": 0}, {"type": "note_off", "time": 86, "note": 57, "velocity": 108, "channel": 0}, {"type": "note_on", "time": 26, "note": 55, "velocity": 112, "channel": 0}, {"type": "note_off", "time": 73, "note": 55, "velocity": 112, "channel": 0}, {"type": "note_on", "time": 12, "note": 54, "velocity": 110, "channel": 0}, {"type": "note_off", "time": 105, "note": 54, "velocity": 110, "channel": 0}, {"type": "note_on", "time": 0, "note": 52, "velocity": 110, "channel": 0}, {"type": "note_off", "time": 100, "note": 52, "velocity": 110, "channel": 0}, {"type": "note_on", "time": 0, "note": 53, "velocity": 111, "channel": 0}, {"type": "note_off", "time": 109, "note": 53, "velocity": 111, "channel": 0}, {"type": "note_on", "time": 0, "note": 51, "velocity": 113, "channel": 0}, {"type": "note_off", "time": 58, "note": 51, "velocity": 113, "channel": 0}, {"type": "note_on", "time": 22, "note": 50, "velocity": 113, "channel": 0}, {"type": "note_off", "time": 100, "note": 50, "velocity": 113, "channel": 0}, {"type": "note_on", "time": 0, "note": 53, "velocity": 106, "channel": 0}, {"type": "note_off", "time": 59, "note": 53, "velocity": 106, "channel": 0}, {"type": "note_on", "time": 11, "note": 58, "velocity": 112, "channel": 0}, {"type": "note_off", "time": 98, "note": 58, "velocity": 112, "channel": 0}, {"type": "note_on", "time": 2, "note": 60, "velocity": 114, "channel": 0}, {"type": "note_off", "time": 89, "note": 60, "velocity": 114, "channel": 0}, {"type": "note_on", "time": 27, "note": 63, "velocity": 122, "channel": 0}, {"type": "note_off", "time": 75, "note": 63, "velocity": 122, "channel": 0}, {"type": "note_on", "time": 9, "note": 60, "velocity": 114, "channel": 0}, {"type": "note_off", "time": 81, "note": 60, "velocity": 114, "channel": 0}, {"type": "note_on", "time": 15, "note": 56, "velocity": 114, "channel": 0}, {"type": "note_off", "time": 88, "note": 56, "velocity": 114, "channel": 0}, {"type": "note_on", "time": 14, "note": 53, "velocity": 103, "channel": 0}, {"type": "note_off", "time": 58, "note": 53, "velocity": 103, "channel": 0}, {"type": "note_on", "time": 3, "note": 60, "velocity": 109, "channel": 0}, {"type": "note_off", "time": 95, "note": 60, "velocity": 109, "channel": 0}, {"type": "note_on", "time": 17, "note": 65, "velocity": 115, "channel": 0}, {"type": "note_off", "time": 98, "note": 65, "velocity": 115, "channel": 0}, {"type": "note_on", "time": 0, "note": 63, "velocity": 114, "channel": 0}, {"type": "note_off", "time": 93, "note": 63, "velocity": 114, "channel": 0}, {"type": "note_on", "time": 2, "note": 60, "velocity": 110, "channel": 0}, {"type": "note_off", "time": 87, "note": 60, "velocity": 110, "channel": 0}, {"type": "note_on", "time": 0, "note": 58, "velocity": 109, "channel": 0}, {"type": "note_off", "time": 93, "note": 58, "velocity": 109, "channel": 0}, {"type": "note_on", "time": 19, "note": 56, "velocity": 103, "channel": 0}, {"type": "note_off", "time": 59, "note": 56, "velocity": 103, "channel": 0}, {"type": "note_on", "time": 0, "note": 60, "velocity": 115, "channel": 0}, {"type": "note_off", "time": 104, "note": 60, "velocity": 115, "channel": 0}, {"type": "note_on", "time": 24, "note": 65, "velocity": 117, "channel": 0}, {"type": "note_off", "time": 81, "note": 65, "velocity": 117, "channel": 0}, {"type": "note_on", "time": 0, "note": 62, "velocity": 117, "channel": 0}, {"type": "note_off", "time": 79, "note": 62, "velocity": 117, "channel": 0}, {"type": "note_on", "time": 3, "note": 60, "velocity": 112, "channel": 0}, {"type": "note_off", "time": 97, "note": 60, "velocity": 112, "channel": 0}, {"type": "note_on", "time": 10, "note": 56, "velocity": 110, "channel": 0}, {"type": "note_off", "time": 77, "note": 56, "velocity": 110, "channel": 0}, {"type": "note_on", "time": 11, "note": 53, "velocity": 103, "channel": 0}, {"type": "note_off", "time": 68, "note": 53, "velocity": 103, "channel": 0}, {"type": "note_on", "time": 20, "note": 60, "velocity": 113, "channel": 0}, {"type": "note_off", "time": 102, "note": 60, "velocity": 113, "channel": 0}, {"type": "note_on", "time": 7, "note": 65, "velocity": 116, "channel": 0}, {"type": "note_off", "time": 84, "note": 65, "velocity": 116, "channel": 0}, {"type": "note_on", "time": 4, "note": 63, "velocity": 118, "channel": 0}, {"type": "note_off", "time": 86, "note": 63, "velocity": 118, "channel": 0}, {"type": "note_on", "time": 4, "note": 60, "velocity": 112, "channel": 0}, {"type": "note_off", "time": 115, "note": 60, "velocity": 112, "channel": 0}, {"type": "note_on", "time": 0, "note": 58, "velocity": 109, "channel": 0}, {"type": "note_off", "time": 89, "note": 58, "velocity": 109, "channel": 0}, {"type": "note_on", "time": 38, "note": 52, "velocity": 110, "channel": 0}, {"type": "note_off", "time": 35, "note": 52, "velocity": 110, "channel": 0}, {"type": "note_on", "time": 0, "note": 61, "velocity": 113, "channel": 0}, {"type": "note_off", "time": 93, "note": 61, "velocity": 113, "channel": 0}, {"type": "note_on", "time": 7, "note": 66, "velocity": 113, "channel": 0}, {"type": "note_off", "time": 90, "note": 66, "velocity": 113, "channel": 0}, {"type": "note_on", "time": 5, "note": 64, "velocity": 116, "channel": 0}, {"type": "note_off", "time": 87, "note": 64, "velocity": 116, "channel": 0}, {"type": "note_on", "time": 0, "note": 61, "velocity": 111, "channel": 0}, {"type": "note_off", "time": 91, "note": 61, "velocity": 111, "channel": 0}, {"type": "note_on", "time": 0, "note": 59, "velocity": 109, "channel": 0}, {"type": "note_on", "time": 99, "note": 55, "velocity": 101, "channel": 0}, {"type": "note_off", "time": 0, "note": 59, "velocity": 109, "channel": 0}, {"type": "note_off", "time": 74, "note": 55, "velocity": 101, "channel": 0}, {"type": "note_on", "time": 9, "note": 67, "velocity": 116, "channel": 0}, {"type": "note_off", "time": 116, "note": 67, "velocity": 116, "channel": 0}, {"type": "note_on", "time": 486, "note": 60, "velocity": 120, "channel": 0}, {"type": "note_off", "time": 78, "note": 60, "velocity": 120, "channel": 0}, {"type": "note_on", "time": 19, "note": 65, "velocity": 117, "channel": 0}, {"type": "note_off", "time": 76, "note": 65, "velocity": 117, "channel": 0}, {"type": "note_on", "time": 6, "note": 63, "velocity": 110, "channel": 0}, {"type": "note_off", "time": 87, "note": 63, "velocity": 110, "channel": 0}, {"type": "note_on", "time": 4, "note": 60, "velocity": 110, "channel": 0}, {"type": "note_off", "time": 83, "note": 60, "velocity": 110, "channel": 0}, {"type": "note_on", "time": 13, "note": 58, "velocity": 109, "channel": 0}, {"type": "note_off", "time": 75, "note": 58, "velocity": 109, "channel": 0}, {"type": "note_on", "time": 82, "note": 61, "velocity": 117, "channel": 0}, {"type": "note_off", "time": 103, "note": 61, "velocity": 117, "channel": 0}, {"type": "note_on", "time": 4, "note": 66, "velocity": 118, "channel": 0}, {"type": "note_off", "time": 91, "note": 66, "velocity": 118, "channel": 0}, {"type": "note_on", "time": 0, "note": 64, "velocity": 119, "channel": 0}, {"type": "note_off", "time": 107, "note": 64, "velocity": 119, "channel": 0}, {"type": "note_on", "time": 3, "note": 61, "velocity": 114, "channel": 0}, {"type": "note_off", "time": 101, "note": 61, "velocity": 114, "channel": 0}, {"type": "note_on", "time": 0, "note": 59, "velocity": 109, "channel": 0}, {"type": "note_off", "time": 98, "note": 59, "velocity": 109, "channel": 0}, {"type": "note_on", "time": 13, "note": 55, "velocity": 102, "channel": 0}, {"type": "note_off", "time": 59, "note": 55, "velocity": 102, "channel": 0}, {"type": "note_on", "time": 19, "note": 62, "velocity": 124, "channel": 0}, {"type": "note_off", "time": 95, "note": 62, "velocity": 124, "channel": 0}, {"type": "note_on", "time": 0, "note": 67, "velocity": 115, "channel": 0}, {"type": "note_off", "time": 72, "note": 67, "velocity": 115, "channel": 0}, {"type": "note_on", "time": 2, "note": 65, "velocity": 109, "channel": 0}, {"type": "note_off", "time": 99, "note": 65, "velocity": 109, "channel": 0}, {"type": "note_on", "time": 17, "note": 62, "velocity": 120, "channel": 0}, {"type": "note_off", "time": 72, "note": 62, "velocity": 120, "channel": 0}, {"type": "note_on", "time": 7, "note": 60, "velocity": 110, "channel": 0}, {"type": "note_off", "time": 117, "note": 60, "velocity": 110, "channel": 0}, {"type": "note_on", "time": 14, "note": 56, "velocity": 97, "channel": 0}, {"type": "note_off", "time": 58, "note": 56, "velocity": 97, "channel": 0}, {"type": "note_on", "time": 0, "note": 63, "velocity": 119, "channel": 0}, {"type": "note_off", "time": 118, "note": 63, "velocity": 119, "channel": 0}, {"type": "note_on", "time": 0, "note": 68, "velocity": 115, "channel": 0}, {"type": "note_off", "time": 82, "note": 68, "velocity": 115, "channel": 0}, {"type": "note_on", "time": 17, "note": 63, "velocity": 111, "channel": 0}, {"type": "note_off", "time": 75, "note": 63, "velocity": 111, "channel": 0}, {"type": "note_on", "time": 0, "note": 68, "velocity": 114, "channel": 0}, {"type": "note_off", "time": 99, "note": 68, "velocity": 114, "channel": 0}, {"type": "note_on", "time": 9, "note": 66, "velocity": 105, "channel": 0}, {"type": "note_off", "time": 70, "note": 66, "velocity": 105, "channel": 0}, {"type": "note_on", "time": 12, "note": 63, "velocity": 118, "channel": 0}, {"type": "note_off", "time": 81, "note": 63, "velocity": 118, "channel": 0}, {"type": "note_on", "time": 0, "note": 61, "velocity": 109, "channel": 0}, {"type": "note_off", "time": 87, "note": 61, "velocity": 109, "channel": 0}, {"type": "note_on", "time": 1, "note": 59, "velocity": 98, "channel": 0}, {"type": "note_off", "time": 81, "note": 59, "velocity": 98, "channel": 0}, {"type": "note_on", "time": 19, "note": 64, "velocity": 120, "channel": 0}, {"type": "note_off", "time": 111, "note": 64, "velocity": 120, "channel": 0}, {"type": "note_on", "time": 18, "note": 69, "velocity": 111, "channel": 0}, {"type": "note_off", "time": 72, "note": 69, "velocity": 111, "channel": 0}, {"type": "note_on", "time": 9, "note": 64, "velocity": 107, "channel": 0}, {"type": "note_off", "time": 93, "note": 64, "velocity": 107, "channel": 0}, {"type": "note_on", "time": 3, "note": 69, "velocity": 112, "channel": 0}, {"type": "note_off", "time": 71, "note": 69, "velocity": 112, "channel": 0}, {"type": "note_on", "time": 9, "note": 64, "velocity": 112, "channel": 0}, {"type": "note_off", "time": 88, "note": 64, "velocity": 112, "channel": 0}, {"type": "note_on", "time": 9, "note": 69, "velocity": 110, "channel": 0}, {"type": "note_off", "time": 83, "note": 69, "velocity": 110, "channel": 0}, {"type": "note_on", "time": 13, "note": 64, "velocity": 114, "channel": 0}, {"type": "note_off", "time": 77, "note": 64, "velocity": 114, "channel": 0}, {"type": "note_on", "time": 11, "note": 69, "velocity": 110, "channel": 0}, {"type": "note_off", "time": 86, "note": 69, "velocity": 110, "channel": 0}, {"type": "note_on", "time": 3, "note": 64, "velocity": 108, "channel": 0}, {"type": "note_off", "time": 92, "note": 64, "velocity": 108, "channel": 0}, {"type": "note_on", "time": 11, "note": 69, "velocity": 110, "channel": 0}, {"type": "note_off", "time": 77, "note": 69, "velocity": 110, "channel": 0}, {"type": "note_on", "time": 11, "note": 69, "velocity": 113, "channel": 0}, {"type": "note_off", "time": 97, "note": 69, "velocity": 113, "channel": 0}, {"type": "note_on", "time": 7, "note": 64, "velocity": 91, "channel": 0}, {"type": "note_off", "time": 74, "note": 64, "velocity": 91, "channel": 0}, {"type": "note_on", "time": 13, "note": 69, "velocity": 110, "channel": 0}, {"type": "note_off", "time": 75, "note": 69, "velocity": 110, "channel": 0}, {"type": "note_on", "time": 0, "note": 64, "velocity": 104, "channel": 0}, {"type": "note_off", "time": 81, "note": 64, "velocity": 104, "channel": 0}, {"type": "note_on", "time": 6, "note": 69, "velocity": 110, "channel": 0}, {"type": "note_off", "time": 85, "note": 69, "velocity": 110, "channel": 0}, {"type": "note_on", "time": 15, "note": 69, "velocity": 111, "channel": 0}, {"type": "note_off", "time": 104, "note": 69, "velocity": 111, "channel": 0}, {"type": "note_on", "time": 23, "note": 64, "velocity": 115, "channel": 0}, {"type": "note_off", "time": 89, "note": 64, "velocity": 115, "channel": 0}, {"type": "note_on", "time": 1, "note": 69, "velocity": 111, "channel": 0}, {"type": "note_off", "time": 81, "note": 69, "velocity": 111, "channel": 0}, {"type": "note_on", "time": 3, "note": 67, "velocity": 110, "channel": 0}, {"type": "note_on", "time": 95, "note": 64, "velocity": 116, "channel": 0}, {"type": "note_off", "time": 0, "note": 67, "velocity": 110, "channel": 0}, {"type": "note_off", "time": 77, "note": 64, "velocity": 116, "channel": 0}, {"type": "note_on", "time": 0, "note": 62, "velocity": 116, "channel": 0}, {"type": "note_off", "time": 97, "note": 62, "velocity": 116, "channel": 0}, {"type": "note_on", "time": 6, "note": 57, "velocity": 101, "channel": 0}, {"type": "note_off", "time": 84, "note": 57, "velocity": 101, "channel": 0}, {"type": "note_on", "time": 19, "note": 65, "velocity": 111, "channel": 0}, {"type": "note_off", "time": 83, "note": 65, "velocity": 111, "channel": 0}, {"type": "note_on", "time": 0, "note": 70, "velocity": 108, "channel": 0}, {"type": "note_off", "time": 80, "note": 70, "velocity": 108, "channel": 0}, {"type": "note_on", "time": 17, "note": 67, "velocity": 110, "channel": 0}, {"type": "note_off", "time": 88, "note": 67, "velocity": 110, "channel": 0}, {"type": "note_on", "time": 15, "note": 65, "velocity": 114, "channel": 0}, {"type": "note_off", "time": 71, "note": 65, "velocity": 114, "channel": 0}, {"type": "note_on", "time": 0, "note": 63, "velocity": 116, "channel": 0}, {"type": "note_off", "time": 139, "note": 63, "velocity": 116, "channel": 0}, {"type": "note_on", "time": 1, "note": 60, "velocity": 97, "channel": 0}, {"type": "note_off", "time": 47, "note": 60, "velocity": 97, "channel": 0}, {"type": "note_on", "time": 17, "note": 66, "velocity": 112, "channel": 0}, {"type": "note_off", "time": 103, "note": 66, "velocity": 112, "channel": 0}, {"type": "note_on", "time": 8, "note": 68, "velocity": 111, "channel": 0}, {"type": "note_off", "time": 90, "note": 68, "velocity": 111, "channel": 0}, {"type": "note_on", "time": 0, "note": 71, "velocity": 104, "channel": 0}, {"type": "note_off", "time": 76, "note": 71, "velocity": 104, "channel": 0}, {"type": "note_on", "time": 15, "note": 73, "velocity": 108, "channel": 0}, {"type": "note_off", "time": 763, "note": 73, "velocity": 108, "channel": 0}, {"type": "note_on", "time": 6, "note": 73, "velocity": 110, "channel": 0}, {"type": "note_off", "time": 72, "note": 73, "velocity": 110, "channel": 0}, {"type": "note_on", "time": 0, "note": 69, "velocity": 111, "channel": 0}, {"type": "note_off", "time": 55, "note": 69, "velocity": 111, "channel": 0}, {"type": "note_on", "time": 0, "note": 70, "velocity": 114, "channel": 0}, {"type": "note_off", "time": 116, "note": 70, "velocity": 114, "channel": 0}, {"type": "note_on", "time": 779, "note": 69, "velocity": 115, "channel": 0}, {"type": "note_off", "time": 101, "note": 69, "velocity": 115, "channel": 0}, {"type": "note_on", "time": 11, "note": 73, "velocity": 107, "channel": 0}, {"type": "note_off", "time": 72, "note": 73, "velocity": 107, "channel": 0}, {"type": "note_on", "time": 0, "note": 71, "velocity": 115, "channel": 0}, {"type": "note_off", "time": 88, "note": 71, "velocity": 115, "channel": 0}, {"type": "note_on", "time": 5, "note": 69, "velocity": 115, "channel": 0}, {"type": "note_off", "time": 87, "note": 69, "velocity": 115, "channel": 0}, {"type": "note_on", "time": 11, "note": 67, "velocity": 111, "channel": 0}, {"type": "note_off", "time": 102, "note": 67, "velocity": 111, "channel": 0}, {"type": "note_on", "time": 15, "note": 66, "velocity": 116, "channel": 0}, {"type": "note_off", "time": 82, "note": 66, "velocity": 116, "channel": 0}, {"type": "note_on", "time": 3, "note": 65, "velocity": 112, "channel": 0}, {"type": "note_off", "time": 99, "note": 65, "velocity": 112, "channel": 0}, {"type": "note_on", "time": 9, "note": 64, "velocity": 121, "channel": 0}, {"type": "note_off", "time": 86, "note": 64, "velocity": 121, "channel": 0}, {"type": "note_on", "time": 2, "note": 63, "velocity": 117, "channel": 0}, {"type": "note_off", "time": 64, "note": 63, "velocity": 117, "channel": 0}, {"type": "note_on", "time": 14, "note": 65, "velocity": 117, "channel": 0}, {"type": "note_off", "time": 81, "note": 65, "velocity": 117, "channel": 0}, {"type": "note_on", "time": 0, "note": 64, "velocity": 121, "channel": 0}, {"type": "note_off", "time": 102, "note": 64, "velocity": 121, "channel": 0}, {"type": "note_on", "time": 3, "note": 62, "velocity": 114, "channel": 0}, {"type": "note_off", "time": 71, "note": 62, "velocity": 114, "channel": 0}, {"type": "note_on", "time": 9, "note": 67, "velocity": 108, "channel": 0}, {"type": "note_off", "time": 50, "note": 67, "velocity": 108, "channel": 0}, {"type": "note_on", "time": 0, "note": 66, "velocity": 106, "channel": 0}, {"type": "note_off", "time": 62, "note": 66, "velocity": 106, "channel": 0}, {"type": "note_on", "time": 76, "note": 58, "velocity": 112, "channel": 0}, {"type": "note_off", "time": 103, "note": 58, "velocity": 112, "channel": 0}, {"type": "note_on", "time": 25, "note": 60, "velocity": 113, "channel": 0}, {"type": "note_off", "time": 85, "note": 60, "velocity": 113, "channel": 0}, {"type": "note_on", "time": 14, "note": 62, "velocity": 105, "channel": 0}, {"type": "note_on", "time": 100, "note": 65, "velocity": 103, "channel": 0}, {"type": "note_off", "time": 0, "note": 62, "velocity": 105, "channel": 0}, {"type": "note_off", "time": 42, "note": 65, "velocity": 103, "channel": 0}, {"type": "note_on", "time": 15, "note": 70, "velocity": 118, "channel": 0}, {"type": "note_off", "time": 95, "note": 70, "velocity": 118, "channel": 0}, {"type": "note_on", "time": 14, "note": 74, "velocity": 107, "channel": 0}, {"type": "note_off", "time": 131, "note": 74, "velocity": 107, "channel": 0}, {"type": "note_on", "time": 4, "note": 68, "velocity": 103, "channel": 0}, {"type": "note_off", "time": 73, "note": 68, "velocity": 103, "channel": 0}, {"type": "note_on", "time": 292, "note": 68, "velocity": 115, "channel": 0}, {"type": "note_off", "time": 109, "note": 68, "velocity": 115, "channel": 0}, {"type": "note_on", "time": 7, "note": 73, "velocity": 104, "channel": 0}, {"type": "note_off", "time": 64, "note": 73, "velocity": 104, "channel": 0}, {"type": "note_on", "time": 0, "note": 70, "velocity": 111, "channel": 0}, {"type": "note_off", "time": 70, "note": 70, "velocity": 111, "channel": 0}, {"type": "note_on", "time": 9, "note": 66, "velocity": 111, "channel": 0}, {"type": "note_off", "time": 69, "note": 66, "velocity": 111, "channel": 0}, {"type": "note_on", "time": 20, "note": 61, "velocity": 107, "channel": 0}, {"type": "note_off", "time": 93, "note": 61, "velocity": 107, "channel": 0}, {"type": "note_on", "time": 7, "note": 57, "velocity": 91, "channel": 0}, {"type": "note_off", "time": 75, "note": 57, "velocity": 91, "channel": 0}, {"type": "note_on", "time": 0, "note": 64, "velocity": 121, "channel": 0}, {"type": "note_off", "time": 130, "note": 64, "velocity": 121, "channel": 0}, {"type": "note_on", "time": 254, "note": 67, "velocity": 112, "channel": 0}, {"type": "note_off", "time": 116, "note": 67, "velocity": 112, "channel": 0}, {"type": "note_on", "time": 270, "note": 65, "velocity": 107, "channel": 0}, {"type": "note_off", "time": 29, "note": 65, "velocity": 107, "channel": 0}, {"type": "note_on", "time": 0, "note": 64, "velocity": 112, "channel": 0}, {"type": "note_off", "time": 38, "note": 64, "velocity": 112, "channel": 0}, {"type": "note_on", "time": 0, "note": 66, "velocity": 106, "channel": 0}, {"type": "note_off", "time": 44, "note": 66, "velocity": 106, "channel": 0}, {"type": "note_on", "time": 258, "note": 65, "velocity": 116, "channel": 0}, {"type": "note_off", "time": 120, "note": 65, "velocity": 116, "channel": 0}, {"type": "note_on", "time": 288, "note": 59, "velocity": 107, "channel": 0}, {"type": "note_off", "time": 89, "note": 59, "velocity": 107, "channel": 0}, {"type": "note_on", "time": 203, "note": 55, "velocity": 105, "channel": 0}, {"type": "note_on", "time": 88, "note": 59, "velocity": 105, "channel": 0}, {"type": "note_off", "time": 0, "note": 55, "velocity": 105, "channel": 0}, {"type": "note_off", "time": 63, "note": 59, "velocity": 105, "channel": 0}, {"type": "note_on", "time": 6, "note": 62, "velocity": 123, "channel": 0}, {"type": "note_off", "time": 105, "note": 62, "velocity": 123, "channel": 0}, {"type": "note_on", "time": 0, "note": 60, "velocity": 112, "channel": 0}, {"type": "note_off", "time": 81, "note": 60, "velocity": 112, "channel": 0}, {"type": "note_on", "time": 9, "note": 58, "velocity": 108, "channel": 0}, {"type": "note_off", "time": 72, "note": 58, "velocity": 108, "channel": 0}, {"type": "note_on", "time": 12, "note": 57, "velocity": 109, "channel": 0}, {"type": "note_off", "time": 81, "note": 57, "velocity": 109, "channel": 0}, {"type": "note_on", "time": 41, "note": 60, "velocity": 113, "channel": 0}, {"type": "note_off", "time": 98, "note": 60, "velocity": 113, "channel": 0}, {"type": "note_on", "time": 4, "note": 63, "velocity": 111, "channel": 0}, {"type": "note_off", "time": 56, "note": 63, "velocity": 111, "channel": 0}, {"type": "note_on", "time": 21, "note": 65, "velocity": 97, "channel": 0}, {"type": "note_off", "time": 80, "note": 65, "velocity": 97, "channel": 0}, {"type": "note_on", "time": 16, "note": 67, "velocity": 120, "channel": 0}, {"type": "note_off", "time": 58, "note": 67, "velocity": 120, "channel": 0}, {"type": "note_on", "time": 29, "note": 67, "velocity": 115, "channel": 0}, {"type": "note_off", "time": 76, "note": 67, "velocity": 115, "channel": 0}, {"type": "note_on", "time": 1, "note": 66, "velocity": 113, "channel": 0}, {"type": "note_off", "time": 104, "note": 66, "velocity": 113, "channel": 0}, {"type": "note_on", "time": 24, "note": 64, "velocity": 107, "channel": 0}, {"type": "note_off", "time": 79, "note": 64, "velocity": 107, "channel": 0}, {"type": "note_on", "time": 5, "note": 65, "velocity": 118, "channel": 0}, {"type": "note_off", "time": 86, "note": 65, "velocity": 118, "channel": 0}, {"type": "note_on", "time": 5, "note": 63, "velocity": 122, "channel": 0}, {"type": "note_off", "time": 87, "note": 63, "velocity": 122, "channel": 0}, {"type": "note_on", "time": 1, "note": 62, "velocity": 120, "channel": 0}, {"type": "note_off", "time": 99, "note": 62, "velocity": 120, "channel": 0}, {"type": "note_on", "time": 9, "note": 60, "velocity": 109, "channel": 0}, {"type": "note_off", "time": 51, "note": 60, "velocity": 109, "channel": 0}, {"type": "note_on", "time": 9, "note": 59, "velocity": 107, "channel": 0}, {"type": "note_off", "time": 90, "note": 59, "velocity": 107, "channel": 0}, {"type": "note_on", "time": 6, "note": 67, "velocity": 114, "channel": 0}, {"type": "note_off", "time": 54, "note": 67, "velocity": 114, "channel": 0}, {"type": "note_on", "time": 2, "note": 66, "velocity": 112, "channel": 0}, {"type": "note_off", "time": 77, "note": 66, "velocity": 112, "channel": 0}, {"type": "note_on", "time": 0, "note": 67, "velocity": 112, "channel": 0}, {"type": "note_off", "time": 49, "note": 67, "velocity": 112, "channel": 0}, {"type": "note_on", "time": 26, "note": 66, "velocity": 111, "channel": 0}, {"type": "note_off", "time": 77, "note": 66, "velocity": 111, "channel": 0}, {"type": "note_on", "time": 2, "note": 65, "velocity": 112, "channel": 0}, {"type": "note_off", "time": 91, "note": 65, "velocity": 112, "channel": 0}, {"type": "note_on", "time": 10, "note": 64, "velocity": 117, "channel": 0}, {"type": "note_on", "time": 81, "note": 63, "velocity": 116, "channel": 0}, {"type": "note_off", "time": 0, "note": 64, "velocity": 117, "channel": 0}, {"type": "note_off", "time": 91, "note": 63, "velocity": 116, "channel": 0}, {"type": "note_on", "time": 11, "note": 62, "velocity": 115, "channel": 0}, {"type": "note_off", "time": 96, "note": 62, "velocity": 115, "channel": 0}, {"type": "note_on", "time": 5, "note": 60, "velocity": 113, "channel": 0}, {"type": "note_off", "time": 68, "note": 60, "velocity": 113, "channel": 0}, {"type": "note_on", "time": 20, "note": 58, "velocity": 109, "channel": 0}, {"type": "note_off", "time": 63, "note": 58, "velocity": 109, "channel": 0}, {"type": "note_on", "time": 2, "note": 57, "velocity": 105, "channel": 0}, {"type": "note_off", "time": 120, "note": 57, "velocity": 105, "channel": 0}, {"type": "note_on", "time": 95, "note": 58, "velocity": 107, "channel": 0}, {"type": "note_off", "time": 104, "note": 58, "velocity": 107, "channel": 0}, {"type": "note_on", "time": 51, "note": 53, "velocity": 111, "channel": 0}, {"type": "note_off", "time": 34, "note": 53, "velocity": 111, "channel": 0}, {"type": "note_on", "time": 0, "note": 56, "velocity": 101, "channel": 0}, {"type": "note_off", "time": 188, "note": 56, "velocity": 101, "channel": 0}, {"type": "note_on", "time": 11, "note": 58, "velocity": 104, "channel": 0}, {"type": "note_off", "time": 134, "note": 58, "velocity": 104, "channel": 0}, {"type": "note_on", "time": 74, "note": 56, "velocity": 100, "channel": 0}, {"type": "note_off", "time": 143, "note": 56, "velocity": 100, "channel": 0}, {"type": "end_of_track", "time": 0}]]}