{"ticks_per_beat": 2520, "tracks": [[{"type": "track_name", "name": "Melody", "time": 0}, {"type": "set_tempo", "tempo": 652173, "time": 0}, {"type": "time_signature", "numerator": 4, "denominator": 4, "clocks_per_click": 24, "notated_32nd_notes_per_beat": 8, "time": 0}, {"type": "note_on", "time": 63859, "note": 62, "velocity": 100, "channel": 0}, {"type": "note_off", "time": 628, "note": 62, "velocity": 100, "channel": 0}, {"type": "note_on", "time": 67, "note": 67, "velocity": 101, "channel": 0}, {"type": "note_on", "time": 639, "note": 69, "velocity": 104, "channel": 0}, {"type": "note_off", "time": 0, "note": 67, "velocity": 101, "channel": 0}, {"type": "note_off", "time": 504, "note": 69, "velocity": 104, "channel": 0}, {"type": "note_on", "time": 11, "note": 70, "velocity": 102, "channel": 0}, {"type": "note_off", "time": 661, "note": 70, "velocity": 102, "channel": 0}, {"type": "note_on", "time": 0, "note": 72, "velocity": 105, "channel": 0}, {"type": "note_off", "time": 975, "note": 72, "velocity": 105, "channel": 0}, {"type": "note_on", "time": 118, "note": 73, "velocity": 97, "channel": 0}, {"type": "note_off", "time": 358, "note": 73, "velocity": 97, "channel": 0}, {"type": "note_on", "time": 78, "note": 74, "velocity": 97, "channel": 0}, {"type": "note_off", "time": 464, "note": 74, "velocity": 97, "channel": 0}, {"type": "note_on", "time": 0, "note": 72, "velocity": 103, "channel": 0}, {"type": "note_off", "time": 560, "note": 72, "velocity": 103, "channel": 0}, {"type": "note_on", "time": 56, "note": 70, "velocity": 101, "channel": 0}, {"type": "note_off", "time": 305, "note": 70, "velocity": 101, "channel": 0}, {"type": "note_on", "time": 64, "note": 69, "velocity": 81, "channel": 0}, {"type": "note_off", "time": 269, "note": 69, "velocity": 81, "channel": 0}, {"type": "note_on", "time": 416, "note": 69, "velocity": 102, "channel": 0}, {"type": "note_off", "time": 1640, "note": 69, "velocity": 102, "channel": 0}, {"type": "note_on", "time": 2476, "note": 60, "velocity": 87, "channel": 0}, {"type": "note_off", "time": 473, "note": 60, "velocity": 87, "channel": 0}, {"type": "note_on", "time": 954, "note": 60, "velocity": 91, "channel": 0}, {"type": "note_off", "time": 693, "note": 60, "velocity": 91, "channel": 0}, {"type": "note_on", "time": 1316, "note": 60, "velocity": 100, "channel": 0}, {"type": "note_off", "time": 3043, "note": 60, "velocity": 100, "channel": 0}, {"type": "note_on", "time": 2547, "note": 72, "velocity": 96, "channel": 0}, {"type": "note_off", "time": 954, "note": 72, "velocity": 96, "channel": 0}, {"type": "note_on", "time": 15, "note": 73, "velocity": 105, "channel": 0}, {"type": "note_off", "time": 2334, "note": 73, "velocity": 105, "channel": 0}, {"type": "note_on", "time": 371, "note": 71, "velocity": 95, "channel": 0}, {"type": "note_off", "time": 504, "note": 71, "velocity": 95, "channel": 0}, {"type": "note_on", "time": 134, "note": 70, "velocity": 94, "channel": 0}, {"type": "note_off", "time": 571, "note": 70, "velocity": 94, "channel": 0}, {"type": "note_on", "time": 404, "note": 69, "velocity": 100, "channel": 0}, {"type": "note_off", "time": 1230, "note": 69, "velocity": 100, "channel": 0}, {"type": "note_on", "time": 6900, "note": 60, "velocity": 94, "channel": 0}, {"type": "note_off", "time": 426, "note": 60, "velocity": 94, "channel": 0}, {"type": "note_on", "time": 1387, "note": 60, "velocity": 102, "channel": 0}, {"type": "note_off", "time": 2144, "note": 60, "velocity": 102, "channel": 0}, {"type": "note_on", "time": 970, "note": 70, "velocity": 90, "channel": 0}, {"type": "note_off", "time": 835, "note": 70, "velocity": 90, "channel": 0}, {"type": "note_on", "time": 0, "note": 70, "velocity": 80, "channel": 0}, {"type": "note_off", "time": 0, "note": 70, "velocity": 80, "channel": 0}, {"type": "note_on", "time": 62, "note": 72, "velocity": 106, "channel": 0}, {"type": "note_off", "time": 4337, "note": 72, "velocity": 106, "channel": 0}, {"type": "note_on", "time": 484, "note": 70, "velocity": 103, "channel": 0}, {"type": "note_off", "time": 487, "note": 70, "velocity": 103, "channel": 0}, {"type": "note_on", "time": 39, "note": 69, "velocity": 71, "channel": 0}, {"type": "note_off", "time": 193, "note": 69, "velocity": 71, "channel": 0}, {"type": "note_on", "time": 199, "note": 69, "velocity": 101, "channel": 0}, {"type": "note_off", "time": 403, "note": 69, "velocity": 101, "channel": 0}, {"type": "note_on", "time": 47, "note": 68, "velocity": 68, "channel": 0}, {"type": "note_off", "time": 218, "note": 68, "velocity": 68, "channel": 0}, {"type": "note_on", "time": 375, "note": 68, "velocity": 102, "channel": 0}, {"type": "note_off", "time": 400, "note": 68, "velocity": 102, "channel": 0}, {"type": "note_on", "time": 33, "note": 67, "velocity": 71, "channel": 0}, {"type": "note_off", "time": 159, "note": 67, "velocity": 71, "channel": 0}, {"type": "note_on", "time": 305, "note": 60, "velocity": 92, "channel": 0}, {"type": "note_off", "time": 549, "note": 60, "velocity": 92, "channel": 0}, {"type": "note_on", "time": 414, "note": 60, "velocity": 94, "channel": 0}, {"type": "note_off", "time": 471, "note": 60, "velocity": 94, "channel": 0}, {"type": "note_on", "time": 539, "note": 60, "velocity": 95, "channel": 0}, {"type": "note_off", "time": 1246, "note": 60, "velocity": 95, "channel": 0}, {"type": "note_on", "time": 49, "note": 63, "velocity": 106, "channel": 0}, {"type": "note_off", "time": 863, "note": 63, "velocity": 106, "channel": 0}, {"type": "note_on", "time": 16, "note": 61, "velocity": 97, "channel": 0}, {"type": "note_off", "time": 397, "note": 61, "velocity": 97, "channel": 0}, {"type": "note_on", "time": 42, "note": 60, "velocity": 94, "channel": 0}, {"type": "note_off", "time": 283, "note": 60, "velocity": 94, "channel": 0}, {"type": "note_on", "time": 47, "note": 59, "velocity": 86, "channel": 0}, {"type": "note_off", "time": 1514, "note": 59, "velocity": 86, "channel": 0}, {"type": "note_on", "time": 4958, "note": 70, "velocity": 96, "channel": 0}, {"type": "note_off", "time": 358, "note": 70, "velocity": 96, "channel": 0}, {"type": "note_on", "time": 22, "note": 71, "velocity": 104, "channel": 0}, {"type": "note_off", "time": 594, "note": 71, "velocity": 104, "channel": 0}, {"type": "note_on", "time": 47, "note": 68, "velocity": 107, "channel": 0}, {"type": "note_off", "time": 343, "note": 68, "velocity": 107, "channel": 0}, {"type": "note_on", "time": 49, "note": 63, "velocity": 105, "channel": 0}, {"type": "note_off", "time": 567, "note": 63, "velocity": 105, "channel": 0}, {"type": "note_on", "time": 287, "note": 68, "velocity": 110, "channel": 0}, {"type": "note_off", "time": 301, "note": 68, "velocity": 110, "channel": 0}, {"type": "note_on", "time": 91, "note": 67, "velocity": 107, "channel": 0}, {"type": "note_off", "time": 623, "note": 67, "velocity": 107, "channel": 0}, {"type": "note_on", "time": 168, "note": 65, "velocity": 100, "channel": 0}, {"type": "note_off", "time": 665, "note": 65, "velocity": 100, "channel": 0}, {"type": "note_on", "time": 105, "note": 62, "velocity": 97, "channel": 0}, {"type": "note_off", "time": 217, "note": 62, "velocity": 97, "channel": 0}, {"type": "note_on", "time": 14, "note": 64, "velocity": 103, "channel": 0}, {"type": "note_off", "time": 329, "note": 64, "velocity": 103, "channel": 0}, {"type": "note_on", "time": 28, "note": 62, "velocity": 104, "channel": 0}, {"type": "note_off", "time": 651, "note": 62, "velocity": 104, "channel": 0}, {"type": "note_on", "time": 207, "note": 60, "velocity": 104, "channel": 0}, {"type": "note_off", "time": 1233, "note": 60, "velocity": 104, "channel": 0}, {"type": "note_on", "time": 9760, "note": 57, "velocity": 86, "channel": 0}, {"type": "note_off", "time": 567, "note": 57, "velocity": 86, "channel": 0}, {"type": "note_on", "time": 70, "note": 58, "velocity": 95, "channel": 0}, {"type": "note_off", "time": 504, "note": 58, "velocity": 95, "channel": 0}, {"type": "note_on", "time": 21, "note": 60, "velocity": 105, "channel": 0}, {"type": "note_off", "time": 630, "note": 60, "velocity": 105, "channel": 0}, {"type": "note_on", "time": 56, "note": 61, "velocity": 104, "channel": 0}, {"type": "note_off", "time": 385, "note": 61, "velocity": 104, "channel": 0}, {"type": "note_on", "time": 49, "note": 64, "velocity": 110, "channel": 0}, {"type": "note_off", "time": 785, "note": 64, "velocity": 110, "channel": 0}, {"type": "note_on", "time": 42, "note": 67, "velocity": 104, "channel": 0}, {"type": "note_off", "time": 546, "note": 67, "velocity": 104, "channel": 0}, {"type": "note_on", "time": 56, "note": 69, "velocity": 107, "channel": 0}, {"type": "note_off", "time": 595, "note": 69, "velocity": 107, "channel": 0}, {"type": "note_on", "time": 21, "note": 70, "velocity": 105, "channel": 0}, {"type": "note_off", "time": 574, "note": 70, "velocity": 105, "channel": 0}, {"type": "note_on", "time": 63, "note": 71, "velocity": 106, "channel": 0}, {"type": "note_off", "time": 637, "note": 71, "velocity": 106, "channel": 0}, {"type": "note_on", "time": 56, "note": 72, "velocity": 103, "channel": 0}, {"type": "note_off", "time": 757, "note": 72, "velocity": 103, "channel": 0}, {"type": "note_on", "time": 70, "note": 71, "velocity": 105, "channel": 0}, {"type": "note_off", "time": 161, "note": 71, "velocity": 105, "channel": 0}, {"type": "note_on", "time": 42, "note": 72, "velocity": 105, "channel": 0}, {"type": "note_off", "time": 1787, "note": 72, "velocity": 105, "channel": 0}, {"type": "note_on", "time": 21, "note": 70, "velocity": 94, "channel": 0}, {"type": "note_off", "time": 231, "note": 70, "velocity": 94, "channel": 0}, {"type": "note_on", "time": 21, "note": 71, "velocity": 106, "channel": 0}, {"type": "note_off", "time": 378, "note": 71, "velocity": 106, "channel": 0}, {"type": "note_on", "time": 7, "note": 70, "velocity": 98, "channel": 0}, {"type": "note_off", "time": 560, "note": 70, "velocity": 98, "channel": 0}, {"type": "note_on", "time": 42, "note": 68, "velocity": 78, "channel": 0}, {"type": "note_off", "time": 371, "note": 68, "velocity": 78, "channel": 0}, {"type": "note_on", "time": 42, "note": 70, "velocity": 80, "channel": 0}, {"type": "note_off", "time": 2810, "note": 70, "velocity": 80, "channel": 0}, {"type": "note_on", "time": 168, "note": 68, "velocity": 97, "channel": 0}, {"type": "note_off", "time": 392, "note": 68, "velocity": 97, "channel": 0}, {"type": "note_on", "time": 14, "note": 65, "velocity": 97, "channel": 0}, {"type": "note_off", "time": 315, "note": 65, "velocity": 97, "channel": 0}, {"type": "note_on", "time": 28, "note": 63, "velocity": 96, "channel": 0}, {"type": "note_off", "time": 336, "note": 63, "velocity": 96, "channel": 0}, {"type": "note_on", "time": 21, "note": 59, "velocity": 88, "channel": 0}, {"type": "note_off", "time": 651, "note": 59, "velocity": 88, "channel": 0}, {"type": "note_on", "time": 196, "note": 63, "velocity": 95, "channel": 0}, {"type": "note_off", "time": 532, "note": 63, "velocity": 95, "channel": 0}, {"type": "note_on", "time": 560, "note": 58, "velocity": 90, "channel": 0}, {"type": "note_off", "time": 399, "note": 58, "velocity": 90, "channel": 0}, {"type": "note_on", "time": 315, "note": 63, "velocity": 93, "channel": 0}, {"type": "note_off", "time": 406, "note": 63, "velocity": 93, "channel": 0}, {"type": "note_on", "time": 336, "note": 56, "velocity": 89, "channel": 0}, {"type": "note_off", "time": 322, "note": 56, "velocity": 89, "channel": 0}, {"type": "note_on", "time": 180, "note": 62, "velocity": 89, "channel": 0}, {"type": "note_off", "time": 417, "note": 62, "velocity": 89, "channel": 0}, {"type": "note_on", "time": 587, "note": 53, "velocity": 81, "channel": 0}, {"type": "note_off", "time": 2129, "note": 53, "velocity": 81, "channel": 0}, {"type": "note_on", "time": 9840, "note": 51, "velocity": 87, "channel": 0}, {"type": "note_off", "time": 672, "note": 51, "velocity": 87, "channel": 0}, {"type": "note_on", "time": 544, "note": 50, "velocity": 90, "channel": 0}, {"type": "note_off", "time": 578, "note": 50, "velocity": 90, "channel": 0}, {"type": "note_on", "time": 43, "note": 51, "velocity": 96, "channel": 0}, {"type": "note_off", "time": 414, "note": 51, "velocity": 96, "channel": 0}, {"type": "note_on", "time": 33, "note": 53, "velocity": 95, "channel": 0}, {"type": "note_off", "time": 549, "note": 53, "velocity": 95, "channel": 0}, {"type": "note_on", "time": 100, "note": 55, "velocity": 98, "channel": 0}, {"type": "note_off", "time": 571, "note": 55, "velocity": 98, "channel": 0}, {"type": "note_on", "time": 64, "note": 56, "velocity": 95, "channel": 0}, {"type": "note_off", "time": 1474, "note": 56, "velocity": 95, "channel": 0}, {"type": "note_on", "time": 367, "note": 58, "velocity": 96, "channel": 0}, {"type": "note_off", "time": 515, "note": 58, "velocity": 96, "channel": 0}, {"type": "note_on", "time": 22, "note": 57, "velocity": 95, "channel": 0}, {"type": "note_off", "time": 213, "note": 57, "velocity": 95, "channel": 0}, {"type": "note_on", "time": 6033, "note": 61, "velocity": 84, "channel": 0}, {"type": "note_off", "time": 459, "note": 61, "velocity": 84, "channel": 0}, {"type": "note_on", "time": 67, "note": 63, "velocity": 105, "channel": 0}, {"type": "note_off", "time": 773, "note": 63, "velocity": 105, "channel": 0}, {"type": "note_on", "time": 44, "note": 64, "velocity": 111, "channel": 0}, {"type": "note_off", "time": 571, "note": 64, "velocity": 111, "channel": 0}, {"type": "note_on", "time": 33, "note": 66, "velocity": 105, "channel": 0}, {"type": "note_off", "time": 437, "note": 66, "velocity": 105, "channel": 0}, {"type": "note_on", "time": 67, "note": 67, "velocity": 106, "channel": 0}, {"type": "note_on", "time": 717, "note": 68, "velocity": 110, "channel": 0}, {"type": "note_off", "time": 0, "note": 67, "velocity": 106, "channel": 0}, {"type": "note_off", "time": 600, "note": 68, "velocity": 110, "channel": 0}, {"type": "note_on", "time": 28, "note": 70, "velocity": 109, "channel": 0}, {"type": "note_off", "time": 874, "note": 70, "velocity": 109, "channel": 0}, {"type": "note_on", "time": 22, "note": 68, "velocity": 110, "channel": 0}, {"type": "note_off", "time": 487, "note": 68, "velocity": 110, "channel": 0}, {"type": "note_on", "time": 431, "note": 67, "velocity": 106, "channel": 0}, {"type": "note_off", "time": 1609, "note": 67, "velocity": 106, "channel": 0}, {"type": "note_on", "time": 22, "note": 65, "velocity": 103, "channel": 0}, {"type": "note_off", "time": 600, "note": 65, "velocity": 103, "channel": 0}, {"type": "note_on", "time": 0, "note": 62, "velocity": 99, "channel": 0}, {"type": "note_off", "time": 213, "note": 62, "velocity": 99, "channel": 0}, {"type": "note_on", "time": 22, "note": 64, "velocity": 106, "channel": 0}, {"type": "note_off", "time": 560, "note": 64, "velocity": 106, "channel": 0}, {"type": "note_on", "time": 33, "note": 62, "velocity": 102, "channel": 0}, {"type": "note_off", "time": 684, "note": 62, "velocity": 102, "channel": 0}, {"type": "note_on", "time": 241, "note": 60, "velocity": 92, "channel": 0}, {"type": "note_off", "time": 3005, "note": 60, "velocity": 92, "channel": 0}, {"type": "note_on", "time": 196, "note": 58, "velocity": 90, "channel": 0}, {"type": "note_off", "time": 499, "note": 58, "velocity": 90, "channel": 0}, {"type": "note_on", "time": 22, "note": 56, "velocity": 93, "channel": 0}, {"type": "note_off", "time": 577, "note": 56, "velocity": 93, "channel": 0}, {"type": "note_on", "time": 50, "note": 52, "velocity": 95, "channel": 0}, {"type": "note_off", "time": 414, "note": 52, "velocity": 95, "channel": 0}, {"type": "note_on", "time": 67, "note": 56, "velocity": 92, "channel": 0}, {"type": "note_off", "time": 594, "note": 56, "velocity": 92, "channel": 0}, {"type": "note_on", "time": 22, "note": 51, "velocity": 87, "channel": 0}, {"type": "note_off", "time": 2411, "note": 51, "velocity": 87, "channel": 0}, {"type": "note_on", "time": 115, "note": 52, "velocity": 89, "channel": 0}, {"type": "note_off", "time": 257, "note": 52, "velocity": 89, "channel": 0}, {"type": "note_on", "time": 62, "note": 54, "velocity": 91, "channel": 0}, {"type": "note_off", "time": 280, "note": 54, "velocity": 91, "channel": 0}, {"type": "note_on", "time": 68, "note": 56, "velocity": 93, "channel": 0}, {"type": "note_off", "time": 319, "note": 56, "velocity": 93, "channel": 0}, {"type": "note_on", "time": 13, "note": 58, "velocity": 97, "channel": 0}, {"type": "note_off", "time": 239, "note": 58, "velocity": 97, "channel": 0}, {"type": "note_on", "time": 0, "note": 60, "velocity": 95, "channel": 0}, {"type": "note_off", "time": 302, "note": 60, "velocity": 95, "channel": 0}, {"type": "note_on", "time": 28, "note": 63, "velocity": 104, "channel": 0}, {"type": "note_off", "time": 381, "note": 63, "velocity": 104, "channel": 0}, {"type": "note_on", "time": 50, "note": 64, "velocity": 104, "channel": 0}, {"type": "note_off", "time": 274, "note": 64, "velocity": 104, "channel": 0}, {"type": "note_on", "time": 54, "note": 66, "velocity": 98, "channel": 0}, {"type": "note_off", "time": 284, "note": 66, "velocity": 98, "channel": 0}, {"type": "note_on", "time": 58, "note": 70, "velocity": 102, "channel": 0}, {"type": "note_off", "time": 224, "note": 70, "velocity": 102, "channel": 0}, {"type": "note_on", "time": 0, "note": 72, "velocity": 99, "channel": 0}, {"type": "note_off", "time": 431, "note": 72, "velocity": 99, "channel": 0}, {"type": "note_on", "time": 2388, "note": 70, "velocity": 91, "channel": 0}, {"type": "note_off", "time": 583, "note": 70, "velocity": 91, "channel": 0}, {"type": "note_on", "time": 39, "note": 68, "velocity": 104, "channel": 0}, {"type": "note_off", "time": 745, "note": 68, "velocity": 104, "channel": 0}, {"type": "note_on", "time": 72, "note": 67, "velocity": 102, "channel": 0}, {"type": "note_off", "time": 622, "note": 67, "velocity": 102, "channel": 0}, {"type": "note_on", "time": 44, "note": 65, "velocity": 99, "channel": 0}, {"type": "note_off", "time": 605, "note": 65, "velocity": 99, "channel": 0}, {"type": "note_on", "time": 56, "note": 62, "velocity": 98, "channel": 0}, {"type": "note_off", "time": 410, "note": 62, "velocity": 98, "channel": 0}, {"type": "note_on", "time": 0, "note": 64, "velocity": 100, "channel": 0}, {"type": "note_off", "time": 362, "note": 64, "velocity": 100, "channel": 0}, {"type": "note_on", "time": 55, "note": 62, "velocity": 96, "channel": 0}, {"type": "note_off", "time": 709, "note": 62, "velocity": 96, "channel": 0}, {"type": "note_on", "time": 19, "note": 60, "velocity": 91, "channel": 0}, {"type": "note_off", "time": 1151, "note": 60, "velocity": 91, "channel": 0}, {"type": "note_on", "time": 9768, "note": 74, "velocity": 93, "channel": 0}, {"type": "note_off", "time": 263, "note": 74, "velocity": 93, "channel": 0}, {"type": "note_on", "time": 57, "note": 72, "velocity": 106, "channel": 0}, {"type": "note_off", "time": 328, "note": 72, "velocity": 106, "channel": 0}, {"type": "note_on", "time": 2, "note": 70, "velocity": 101, "channel": 0}, {"type": "note_off", "time": 260, "note": 70, "velocity": 101, "channel": 0}, {"type": "note_on", "time": 101, "note": 68, "velocity": 107, "channel": 0}, {"type": "note_off", "time": 314, "note": 68, "velocity": 107, "channel": 0}, {"type": "note_on", "time": 26, "note": 67, "velocity": 104, "channel": 0}, {"type": "note_off", "time": 512, "note": 67, "velocity": 104, "channel": 0}, {"type": "note_on", "time": 63, "note": 66, "velocity": 103, "channel": 0}, {"type": "note_off", "time": 536, "note": 66, "velocity": 103, "channel": 0}, {"type": "note_on", "time": 28, "note": 70, "velocity": 101, "channel": 0}, {"type": "note_off", "time": 567, "note": 70, "velocity": 101, "channel": 0}, {"type": "note_on", "time": 19, "note": 65, "velocity": 101, "channel": 0}, {"type": "note_off", "time": 496, "note": 65, "velocity": 101, "channel": 0}, {"type": "note_on", "time": 82, "note": 64, "velocity": 107, "channel": 0}, {"type": "note_off", "time": 493, "note": 64, "velocity": 107, "channel": 0}, {"type": "note_on", "time": 46, "note": 63, "velocity": 106, "channel": 0}, {"type": "note_off", "time": 488, "note": 63, "velocity": 106, "channel": 0}, {"type": "note_on", "time": 47, "note": 65, "velocity": 97, "channel": 0}, {"type": "note_off", "time": 496, "note": 65, "velocity": 97, "channel": 0}, {"type": "note_on", "time": 55, "note": 61, "velocity": 90, "channel": 0}, {"type": "note_off", "time": 181, "note": 61, "velocity": 90, "channel": 0}, {"type": "note_on", "time": 47, "note": 62, "velocity": 104, "channel": 0}, {"type": "note_off", "time": 453, "note": 62, "velocity": 104, "channel": 0}, {"type": "note_on", "time": 59, "note": 61, "velocity": 98, "channel": 0}, {"type": "note_off", "time": 181, "note": 61, "velocity": 98, "channel": 0}, {"type": "note_on", "time": 39, "note": 60, "velocity": 100, "channel": 0}, {"type": "note_off", "time": 228, "note": 60, "velocity": 100, "channel": 0}, {"type": "note_on", "time": 346, "note": 58, "velocity": 92, "channel": 0}, {"type": "note_off", "time": 398, "note": 58, "velocity": 92, "channel": 0}, {"type": "note_on", "time": 27, "note": 55, "velocity": 91, "channel": 0}, {"type": "note_off", "time": 615, "note": 55, "velocity": 91, "channel": 0}, {"type": "note_on", "time": 59, "note": 50, "velocity": 86, "channel": 0}, {"type": "note_off", "time": 414, "note": 50, "velocity": 86, "channel": 0}, {"type": "note_on", "time": 11, "note": 58, "velocity": 95, "channel": 0}, {"type": "note_off", "time": 1864, "note": 58, "velocity": 95, "channel": 0}, {"type": "note_on", "time": 1876, "note": 60, "velocity": 90, "channel": 0}, {"type": "note_off", "time": 268, "note": 60, "velocity": 90, "channel": 0}, {"type": "note_on", "time": 56, "note": 62, "velocity": 107, "channel": 0}, {"type": "note_off", "time": 1655, "note": 62, "velocity": 107, "channel": 0}, {"type": "note_on", "time": 34, "note": 61, "velocity": 92, "channel": 0}, {"type": "note_off", "time": 111, "note": 61, "velocity": 92, "channel": 0}, {"type": "note_on", "time": 21, "note": 60, "velocity": 93, "channel": 0}, {"type": "note_off", "time": 318, "note": 60, "velocity": 93, "channel": 0}, {"type": "note_on", "time": 32, "note": 58, "velocity": 87, "channel": 0}, {"type": "note_off", "time": 612, "note": 58, "velocity": 87, "channel": 0}, {"type": "note_on", "time": 9, "note": 53, "velocity": 86, "channel": 0}, {"type": "note_off", "time": 545, "note": 53, "velocity": 86, "channel": 0}, {"type": "note_on", "time": 115, "note": 55, "velocity": 86, "channel": 0}, {"type": "note_off", "time": 287, "note": 55, "velocity": 86, "channel": 0}, {"type": "note_on", "time": 13, "note": 56, "velocity": 90, "channel": 0}, {"type": "note_off", "time": 240, "note": 56, "velocity": 90, "channel": 0}, {"type": "note_on", "time": 42, "note": 57, "velocity": 93, "channel": 0}, {"type": "note_off", "time": 316, "note": 57, "velocity": 93, "channel": 0}, {"type": "note_on", "time": 0, "note": 60, "velocity": 97, "channel": 0}, {"type": "note_off", "time": 603, "note": 60, "velocity": 97, "channel": 0}, {"type": "note_on", "time": 193, "note": 65, "velocity": 93, "channel": 0}, {"type": "note_off", "time": 4573, "note": 65, "velocity": 93, "channel": 0}, {"type": "note_on", "time": 47, "note": 62, "velocity": 96, "channel": 0}, {"type": "note_off", "time": 394, "note": 62, "velocity": 96, "channel": 0}, {"type": "note_on", "time": 31, "note": 60, "velocity": 90, "channel": 0}, {"type": "note_off", "time": 323, "note": 60, "velocity": 90, "channel": 0}, {"type": "note_on", "time": 86, "note": 59, "velocity": 85, "channel": 0}, {"type": "note_off", "time": 307, "note": 59, "velocity": 85, "channel": 0}, {"type": "note_on", "time": 488, "note": 65, "velocity": 102, "channel": 0}, {"type": "note_off", "time": 973, "note": 65, "velocity": 102, "channel": 0}, {"type": "note_on", "time": 156, "note": 63, "velocity": 98, "channel": 0}, {"type": "note_off", "time": 179, "note": 63, "velocity": 98, "channel": 0}, {"type": "note_on", "time": 27, "note": 62, "velocity": 100, "channel": 0}, {"type": "note_off", "time": 220, "note": 62, "velocity": 100, "channel": 0}, {"type": "note_on", "time": 63, "note": 61, "velocity": 91, "channel": 0}, {"type": "note_off", "time": 248, "note": 61, "velocity": 91, "channel": 0}, {"type": "note_on", "time": 39, "note": 59, "velocity": 89, "channel": 0}, {"type": "note_off", "time": 236, "note": 59, "velocity": 89, "channel": 0}, {"type": "note_on", "time": 346, "note": 64, "velocity": 104, "channel": 0}, {"type": "note_off", "time": 757, "note": 64, "velocity": 104, "channel": 0}, {"type": "note_on", "time": 51, "note": 63, "velocity": 100, "channel": 0}, {"type": "note_off", "time": 294, "note": 63, "velocity": 100, "channel": 0}, {"type": "note_on", "time": 16, "note": 62, "velocity": 97, "channel": 0}, {"type": "note_off", "time": 179, "note": 62, "velocity": 97, "channel": 0}, {"type": "note_on", "time": 36, "note": 61, "velocity": 92, "channel": 0}, {"type": "note_off", "time": 238, "note": 61, "velocity": 92, "channel": 0}, {"type": "note_on", "time": 28, "note": 59, "velocity": 88, "channel": 0}, {"type": "note_off", "time": 241, "note": 59, "velocity": 88, "channel": 0}, {"type": "note_on", "time": 53, "note": 58, "velocity": 88, "channel": 0}, {"type": "note_off", "time": 311, "note": 58, "velocity": 88, "channel": 0}, {"type": "note_on", "time": 19, "note": 57, "velocity": 88, "channel": 0}, {"type": "note_off", "time": 1640, "note": 57, "velocity": 88, "channel": 0}, {"type": "note_on", "time": 5484, "note": 51, "velocity": 94, "channel": 0}, {"type": "note_off", "time": 330, "note": 51, "velocity": 94, "channel": 0}, {"type": "note_on", "time": 8, "note": 54, "velocity": 95, "channel": 0}, {"type": "note_off", "time": 322, "note": 54, "velocity": 95, "channel": 0}, {"type": "note_on", "time": 64, "note": 55, "velocity": 92, "channel": 0}, {"type": "note_off", "time": 218, "note": 55, "velocity": 92, "channel": 0}, {"type": "note_on", "time": 16, "note": 58, "velocity": 95, "channel": 0}, {"type": "note_off", "time": 271, "note": 58, "velocity": 95, "channel": 0}, {"type": "note_on", "time": 64, "note": 60, "velocity": 104, "channel": 0}, {"type": "note_off", "time": 339, "note": 60, "velocity": 104, "channel": 0}, {"type": "note_on", "time": 22, "note": 62, "velocity": 106, "channel": 0}, {"type": "note_off", "time": 213, "note": 62, "velocity": 106, "channel": 0}, {"type": "note_on", "time": 39, "note": 63, "velocity": 109, "channel": 0}, {"type": "note_off", "time": 246, "note": 63, "velocity": 109, "channel": 0}, {"type": "note_on", "time": 8, "note": 65, "velocity": 103, "channel": 0}, {"type": "note_off", "time": 257, "note": 65, "velocity": 103, "channel": 0}, {"type": "note_on", "time": 14, "note": 66, "velocity": 105, "channel": 0}, {"type": "note_off", "time": 308, "note": 66, "velocity": 105, "channel": 0}, {"type": "note_on", "time": 56, "note": 68, "velocity": 107, "channel": 0}, {"type": "note_off", "time": 207, "note": 68, "velocity": 107, "channel": 0}, {"type": "note_on", "time": 44, "note": 70, "velocity": 105, "channel": 0}, {"type": "note_on", "time": 350, "note": 72, "velocity": 106, "channel": 0}, {"type": "note_off", "time": 0, "note": 70, "velocity": 105, "channel": 0}, {"type": "note_off", "time": 2088, "note": 72, "velocity": 106, "channel": 0}, {"type": "note_on", "time": 5, "note": 70, "velocity": 102, "channel": 0}, {"type": "note_off", "time": 227, "note": 70, "velocity": 102, "channel": 0}, {"type": "note_on", "time": 11, "note": 68, "velocity": 102, "channel": 0}, {"type": "note_off", "time": 316, "note": 68, "velocity": 102, "channel": 0}, {"type": "note_on", "time": 16, "note": 66, "velocity": 100, "channel": 0}, {"type": "note_off", "time": 221, "note": 66, "velocity": 100, "channel": 0}, {"type": "note_on", "time": 30, "note": 65, "velocity": 99, "channel": 0}, {"type": "note_off", "time": 5630, "note": 65, "velocity": 99, "channel": 0}, {"type": "note_on", "time": 23, "note": 60, "velocity": 96, "channel": 0}, {"type": "note_off", "time": 536, "note": 60, "velocity": 96, "channel": 0}, {"type": "note_on", "time": 132, "note": 58, "velocity": 95, "channel": 0}, {"type": "note_off", "time": 532, "note": 58, "velocity": 95, "channel": 0}, {"type": "note_on", "time": 61, "note": 59, "velocity": 89, "channel": 0}, {"type": "note_off", "time": 2125, "note": 59, "velocity": 89, "channel": 0}, {"type": "note_on", "time": 39, "note": 60, "velocity": 91, "channel": 0}, {"type": "note_off", "time": 902, "note": 60, "velocity": 91, "channel": 0}, {"type": "note_on", "time": 897, "note": 65, "velocity": 103, "channel": 0}, {"type": "note_off", "time": 409, "note": 65, "velocity": 103, "channel": 0}, {"type": "note_on", "time": 28, "note": 63, "velocity": 106, "channel": 0}, {"type": "note_off", "time": 414, "note": 63, "velocity": 106, "channel": 0}, {"type": "note_on", "time": 0, "note": 63, "velocity": 80, "channel": 0}, {"type": "note_off", "time": 0, "note": 63, "velocity": 80, "channel": 0}, {"type": "note_on", "time": 67, "note": 60, "velocity": 94, "channel": 0}, {"type": "note_off", "time": 465, "note": 60, "velocity": 94, "channel": 0}, {"type": "note_on", "time": 84, "note": 59, "velocity": 89, "channel": 0}, {"type": "note_off", "time": 471, "note": 59, "velocity": 89, "channel": 0}, {"type": "note_on", "time": 72, "note": 58, "velocity": 91, "channel": 0}, {"type": "note_off", "time": 471, "note": 58, "velocity": 91, "channel": 0}, {"type": "note_on", "time": 15, "note": 56, "velocity": 90, "channel": 0}, {"type": "note_off", "time": 350, "note": 56, "velocity": 90, "channel": 0}, {"type": "note_on", "time": 73, "note": 53, "velocity": 88, "channel": 0}, {"type": "note_off", "time": 908, "note": 53, "velocity": 88, "channel": 0}, {"type": "note_on", "time": 5331, "note": 68, "velocity": 105, "channel": 0}, {"type": "note_off", "time": 607, "note": 68, "velocity": 105, "channel": 0}, {"type": "note_on", "time": 16, "note": 67, "velocity": 102, "channel": 0}, {"type": "note_off", "time": 434, "note": 67, "velocity": 102, "channel": 0}, {"type": "note_on", "time": 37, "note": 66, "velocity": 103, "channel": 0}, {"type": "note_off", "time": 709, "note": 66, "velocity": 103, "channel": 0}, {"type": "note_on", "time": 80, "note": 70, "velocity": 102, "channel": 0}, {"type": "note_off", "time": 625, "note": 70, "velocity": 102, "channel": 0}, {"type": "note_on", "time": 0, "note": 68, "velocity": 104, "channel": 0}, {"type": "note_off", "time": 291, "note": 68, "velocity": 104, "channel": 0}, {"type": "note_on", "time": 28, "note": 63, "velocity": 103, "channel": 0}, {"type": "note_off", "time": 546, "note": 63, "velocity": 103, "channel": 0}, {"type": "note_on", "time": 53, "note": 68, "velocity": 108, "channel": 0}, {"type": "note_off", "time": 549, "note": 68, "velocity": 108, "channel": 0}, {"type": "note_on", "time": 44, "note": 67, "velocity": 101, "channel": 0}, {"type": "note_off", "time": 650, "note": 67, "velocity": 101, "channel": 0}, {"type": "note_on", "time": 36, "note": 65, "velocity": 103, "channel": 0}, {"type": "note_off", "time": 372, "note": 65, "velocity": 103, "channel": 0}, {"type": "note_on", "time": 19, "note": 67, "velocity": 99, "channel": 0}, {"type": "note_off", "time": 375, "note": 67, "velocity": 99, "channel": 0}, {"type": "note_on", "time": 86, "note": 62, "velocity": 103, "channel": 0}, {"type": "note_off", "time": 197, "note": 62, "velocity": 103, "channel": 0}, {"type": "note_on", "time": 35, "note": 64, "velocity": 105, "channel": 0}, {"type": "note_off", "time": 428, "note": 64, "velocity": 105, "channel": 0}, {"type": "note_on", "time": 11, "note": 62, "velocity": 105, "channel": 0}, {"type": "note_off", "time": 569, "note": 62, "velocity": 105, "channel": 0}, {"type": "note_on", "time": 56, "note": 60, "velocity": 100, "channel": 0}, {"type": "note_off", "time": 1884, "note": 60, "velocity": 100, "channel": 0}, {"type": "note_on", "time": 4051, "note": 65, "velocity": 106, "channel": 0}, {"type": "note_off", "time": 799, "note": 65, "velocity": 106, "channel": 0}, {"type": "note_on", "time": 43, "note": 63, "velocity": 94, "channel": 0}, {"type": "note_off", "time": 239, "note": 63, "velocity": 94, "channel": 0}, {"type": "note_on", "time": 6, "note": 64, "velocity": 110, "channel": 0}, {"type": "note_off", "time": 678, "note": 64, "velocity": 110, "channel": 0}, {"type": "note_on", "time": 6, "note": 67, "velocity": 105, "channel": 0}, {"type": "note_off", "time": 487, "note": 67, "velocity": 105, "channel": 0}, {"type": "note_on", "time": 140, "note": 70, "velocity": 104, "channel": 0}, {"type": "note_off", "time": 479, "note": 70, "velocity": 104, "channel": 0}, {"type": "note_on", "time": 19, "note": 72, "velocity": 101, "channel": 0}, {"type": "note_off", "time": 503, "note": 72, "velocity": 101, "channel": 0}, {"type": "note_on", "time": 19, "note": 73, "velocity": 103, "channel": 0}, {"type": "note_off", "time": 505, "note": 73, "velocity": 103, "channel": 0}, {"type": "note_on", "time": 59, "note": 76, "velocity": 112, "channel": 0}, {"type": "note_off", "time": 552, "note": 76, "velocity": 112, "channel": 0}, {"type": "note_on", "time": 339, "note": 70, "velocity": 103, "channel": 0}, {"type": "note_off", "time": 1631, "note": 70, "velocity": 103, "channel": 0}, {"type": "note_on", "time": 1486, "note": 69, "velocity": 104, "channel": 0}, {"type": "note_off", "time": 485, "note": 69, "velocity": 104, "channel": 0}, {"type": "note_on", "time": 25, "note": 70, "velocity": 105, "channel": 0}, {"type": "note_off", "time": 555, "note": 70, "velocity": 105, "channel": 0}, {"type": "note_on", "time": 5, "note": 72, "velocity": 103, "channel": 0}, {"type": "note_off", "time": 529, "note": 72, "velocity": 103, "channel": 0}, {"type": "note_on", "time": 106, "note": 73, "velocity": 99, "channel": 0}, {"type": "note_off", "time": 291, "note": 73, "velocity": 99, "channel": 0}, {"type": "note_on", "time": 19, "note": 75, "velocity": 97, "channel": 0}, {"type": "note_off", "time": 471, "note": 75, "velocity": 97, "channel": 0}, {"type": "note_on", "time": 487, "note": 72, "velocity": 104, "channel": 0}, {"type": "note_off", "time": 600, "note": 72, "velocity": 104, "channel": 0}, {"type": "note_on", "time": 16, "note": 70, "velocity": 103, "channel": 0}, {"type": "note_off", "time": 549, "note": 70, "velocity": 103, "channel": 0}, {"type": "note_on", "time": 229, "note": 68, "velocity": 106, "channel": 0}, {"type": "note_off", "time": 628, "note": 68, "velocity": 106, "channel": 0}, {"type": "note_on", "time": 81, "note": 65, "velocity": 101, "channel": 0}, {"type": "note_off", "time": 402, "note": 65, "velocity": 101, "channel": 0}, {"type": "note_on", "time": 78, "note": 63, "velocity": 105, "channel": 0}, {"type": "note_off", "time": 622, "note": 63, "velocity": 105, "channel": 0}, {"type": "note_on", "time": 39, "note": 60, "velocity": 98, "channel": 0}, {"type": "note_off", "time": 536, "note": 60, "velocity": 98, "channel": 0}, {"type": "note_on", "time": 134, "note": 58, "velocity": 91, "channel": 0}, {"type": "note_off", "time": 544, "note": 58, "velocity": 91, "channel": 0}, {"type": "note_on", "time": 47, "note": 56, "velocity": 88, "channel": 0}, {"type": "note_off", "time": 521, "note": 56, "velocity": 88, "channel": 0}, {"type": "note_on", "time": 44, "note": 53, "velocity": 93, "channel": 0}, {"type": "note_off", "time": 799, "note": 53, "velocity": 93, "channel": 0}, {"type": "note_on", "time": 25, "note": 48, "velocity": 90, "channel": 0}, {"type": "note_off", "time": 577, "note": 48, "velocity": 90, "channel": 0}, {"type": "note_on", "time": 102, "note": 51, "velocity": 91, "channel": 0}, {"type": "note_off", "time": 764, "note": 51, "velocity": 91, "channel": 0}, {"type": "note_on", "time": 4, "note": 48, "velocity": 84, "channel": 0}, {"type": "note_off", "time": 361, "note": 48, "velocity": 84, "channel": 0}, {"type": "note_on", "time": 2, "note": 53, "velocity": 92, "channel": 0}, {"type": "note_off", "time": 835, "note": 53, "velocity": 92, "channel": 0}, {"type": "note_on", "time": 78, "note": 51, "velocity": 89, "channel": 0}, {"type": "note_off", "time": 396, "note": 51, "velocity": 89, "channel": 0}, {"type": "note_on", "time": 11, "note": 56, "velocity": 95, "channel": 0}, {"type": "note_off", "time": 678, "note": 56, "velocity": 95, "channel": 0}, {"type": "note_on", "time": 11, "note": 53, "velocity": 92, "channel": 0}, {"type": "note_off", "time": 362, "note": 53, "velocity": 92, "channel": 0}, {"type": "note_on", "time": 173, "note": 58, "velocity": 97, "channel": 0}, {"type": "note_off", "time": 603, "note": 58, "velocity": 97, "channel": 0}, {"type": "note_on", "time": 106, "note": 53, "velocity": 86, "channel": 0}, {"type": "note_off", "time": 445, "note": 53, "velocity": 86, "channel": 0}, {"type": "note_on", "time": 80, "note": 60, "velocity": 106, "channel": 0}, {"type": "note_off", "time": 1775, "note": 60, "velocity": 106, "channel": 0}, {"type": "note_on", "time": 23, "note": 58, "velocity": 94, "channel": 0}, {"type": "note_off", "time": 485, "note": 58, "velocity": 94, "channel": 0}, {"type": "note_on", "time": 7, "note": 56, "velocity": 89, "channel": 0}, {"type": "note_off", "time": 470, "note": 56, "velocity": 89, "channel": 0}, {"type": "note_on", "time": 26, "note": 58, "velocity": 86, "channel": 0}, {"type": "note_off", "time": 1330, "note": 58, "velocity": 86, "channel": 0}, {"type": "note_on", "time": 4472, "note": 53, "velocity": 92, "channel": 0}, {"type": "note_off", "time": 370, "note": 53, "velocity": 92, "channel": 0}, {"type": "note_on", "time": 44, "note": 55, "velocity": 89, "channel": 0}, {"type": "note_off", "time": 515, "note": 55, "velocity": 89, "channel": 0}, {"type": "note_on", "time": 89, "note": 57, "velocity": 94, "channel": 0}, {"type": "note_off", "time": 437, "note": 57, "velocity": 94, "channel": 0}, {"type": "note_on", "time": 56, "note": 58, "velocity": 95, "channel": 0}, {"type": "note_off", "time": 650, "note": 58, "velocity": 95, "channel": 0}, {"type": "note_on", "time": 100, "note": 60, "velocity": 103, "channel": 0}, {"type": "note_off", "time": 527, "note": 60, "velocity": 103, "channel": 0}, {"type": "note_on", "time": 31, "note": 61, "velocity": 102, "channel": 0}, {"type": "note_off", "time": 410, "note": 61, "velocity": 102, "channel": 0}, {"type": "note_on", "time": 78, "note": 63, "velocity": 111, "channel": 0}, {"type": "note_off", "time": 622, "note": 63, "velocity": 111, "channel": 0}, {"type": "note_on", "time": 23, "note": 65, "velocity": 106, "channel": 0}, {"type": "note_off", "time": 633, "note": 65, "velocity": 106, "channel": 0}, {"type": "note_on", "time": 21, "note": 67, "velocity": 104, "channel": 0}, {"type": "note_off", "time": 481, "note": 67, "velocity": 104, "channel": 0}, {"type": "note_on", "time": 47, "note": 69, "velocity": 105, "channel": 0}, {"type": "note_off", "time": 552, "note": 69, "velocity": 105, "channel": 0}, {"type": "note_on", "time": 47, "note": 70, "velocity": 104, "channel": 0}, {"type": "note_off", "time": 441, "note": 70, "velocity": 104, "channel": 0}, {"type": "note_on", "time": 536, "note": 72, "velocity": 100, "channel": 0}, {"type": "note_off", "time": 181, "note": 72, "velocity": 100, "channel": 0}, {"type": "note_on", "time": 23, "note": 73, "velocity": 105, "channel": 0}, {"type": "note_off", "time": 410, "note": 73, "velocity": 105, "channel": 0}, {"type": "note_on", "time": 387, "note": 71, "velocity": 104, "channel": 0}, {"type": "note_off", "time": 521, "note": 71, "velocity": 104, "channel": 0}, {"type": "note_on", "time": 61, "note": 69, "velocity": 103, "channel": 0}, {"type": "note_off", "time": 566, "note": 69, "velocity": 103, "channel": 0}, {"type": "note_on", "time": 44, "note": 68, "velocity": 103, "channel": 0}, {"type": "note_off", "time": 616, "note": 68, "velocity": 103, "channel": 0}, {"type": "note_on", "time": 39, "note": 66, "velocity": 101, "channel": 0}, {"type": "note_off", "time": 779, "note": 66, "velocity": 101, "channel": 0}, {"type": "note_on", "time": 16, "note": 65, "velocity": 98, "channel": 0}, {"type": "note_off", "time": 476, "note": 65, "velocity": 98, "channel": 0}, {"type": "note_on", "time": 78, "note": 64, "velocity": 104, "channel": 0}, {"type": "note_off", "time": 521, "note": 64, "velocity": 104, "channel": 0}, {"type": "note_on", "time": 39, "note": 63, "velocity": 101, "channel": 0}, {"type": "note_off", "time": 482, "note": 63, "velocity": 101, "channel": 0}, {"type": "note_on", "time": 50, "note": 59, "velocity": 88, "channel": 0}, {"type": "note_off", "time": 661, "note": 59, "velocity": 88, "channel": 0}, {"type": "note_on", "time": 67, "note": 56, "velocity": 83, "channel": 0}, {"type": "note_off", "time": 628, "note": 56, "velocity": 83, "channel": 0}, {"type": "note_on", "time": 134, "note": 51, "velocity": 87, "channel": 0}, {"type": "note_off", "time": 358, "note": 51, "velocity": 87, "channel": 0}, {"type": "note_on", "time": 22, "note": 58, "velocity": 87, "channel": 0}, {"type": "note_off", "time": 2680, "note": 58, "velocity": 87, "channel": 0}, {"type": "note_on", "time": 2151, "note": 68, "velocity": 107, "channel": 0}, {"type": "note_off", "time": 583, "note": 68, "velocity": 107, "channel": 0}, {"type": "note_on", "time": 55, "note": 67, "velocity": 104, "channel": 0}, {"type": "note_off", "time": 236, "note": 67, "velocity": 104, "channel": 0}, {"type": "note_on", "time": 119, "note": 65, "velocity": 103, "channel": 0}, {"type": "note_off", "time": 684, "note": 65, "velocity": 103, "channel": 0}, {"type": "note_on", "time": 28, "note": 62, "velocity": 102, "channel": 0}, {"type": "note_off", "time": 235, "note": 62, "velocity": 102, "channel": 0}, {"type": "note_on", "time": 115, "note": 64, "velocity": 109, "channel": 0}, {"type": "note_off", "time": 741, "note": 64, "velocity": 109, "channel": 0}, {"type": "note_on", "time": 23, "note": 65, "velocity": 105, "channel": 0}, {"type": "note_off", "time": 807, "note": 65, "velocity": 105, "channel": 0}, {"type": "note_on", "time": 99, "note": 67, "velocity": 105, "channel": 0}, {"type": "note_off", "time": 646, "note": 67, "velocity": 105, "channel": 0}, {"type": "note_on", "time": 38, "note": 64, "velocity": 106, "channel": 0}, {"type": "note_off", "time": 914, "note": 64, "velocity": 106, "channel": 0}, {"type": "note_on", "time": 67, "note": 60, "velocity": 95, "channel": 0}, {"type": "note_off", "time": 1037, "note": 60, "velocity": 95, "channel": 0}, {"type": "note_on", "time": 4749, "note": 63, "velocity": 107, "channel": 0}, {"type": "note_off", "time": 577, "note": 63, "velocity": 107, "channel": 0}, {"type": "note_on", "time": 28, "note": 61, "velocity": 97, "channel": 0}, {"type": "note_off", "time": 302, "note": 61, "velocity": 97, "channel": 0}, {"type": "note_on", "time": 33, "note": 56, "velocity": 92, "channel": 0}, {"type": "note_off", "time": 381, "note": 56, "velocity": 92, "channel": 0}, {"type": "note_on", "time": 112, "note": 52, "velocity": 92, "channel": 0}, {"type": "note_off", "time": 314, "note": 52, "velocity": 92, "channel": 0}, {"type": "note_on", "time": 50, "note": 58, "velocity": 97, "channel": 0}, {"type": "note_off", "time": 863, "note": 58, "velocity": 97, "channel": 0}, {"type": "note_on", "time": 958, "note": 60, "velocity": 97, "channel": 0}, {"type": "note_off", "time": 611, "note": 60, "velocity": 97, "channel": 0}, {"type": "note_on", "time": 280, "note": 61, "velocity": 101, "channel": 0}, {"type": "note_off", "time": 1413, "note": 61, "velocity": 101, "channel": 0}, {"type": "note_on", "time": 235, "note": 63, "velocity": 110, "channel": 0}, {"type": "note_off", "time": 605, "note": 63, "velocity": 110, "channel": 0}, {"type": "note_on", "time": 308, "note": 64, "velocity": 113, "channel": 0}, {"type": "note_off", "time": 706, "note": 64, "velocity": 113, "channel": 0}, {"type": "note_on", "time": 53, "note": 66, "velocity": 102, "channel": 0}, {"type": "note_off", "time": 126, "note": 66, "velocity": 102, "channel": 0}, {"type": "note_on", "time": 31, "note": 68, "velocity": 106, "channel": 0}, {"type": "note_off", "time": 496, "note": 68, "velocity": 106, "channel": 0}, {"type": "note_on", "time": 4, "note": 67, "velocity": 97, "channel": 0}, {"type": "note_off", "time": 4564, "note": 67, "velocity": 97, "channel": 0}, {"type": "note_on", "time": 16, "note": 65, "velocity": 92, "channel": 0}, {"type": "note_off", "time": 454, "note": 65, "velocity": 92, "channel": 0}, {"type": "note_on", "time": 30, "note": 63, "velocity": 94, "channel": 0}, {"type": "note_off", "time": 567, "note": 63, "velocity": 94, "channel": 0}, {"type": "note_on", "time": 70, "note": 60, "velocity": 91, "channel": 0}, {"type": "note_off", "time": 520, "note": 60, "velocity": 91, "channel": 0}, {"type": "note_on", "time": 94, "note": 58, "velocity": 86, "channel": 0}, {"type": "note_off", "time": 520, "note": 58, "velocity": 86, "channel": 0}, {"type": "note_on", "time": 86, "note": 56, "velocity": 85, "channel": 0}, {"type": "note_off", "time": 370, "note": 56, "velocity": 85, "channel": 0}, {"type": "note_on", "time": 102, "note": 53, "velocity": 88, "channel": 0}, {"type": "note_off", "time": 559, "note": 53, "velocity": 88, "channel": 0}, {"type": "note_on", "time": 39, "note": 48, "velocity": 88, "channel": 0}, {"type": "note_off", "time": 686, "note": 48, "velocity": 88, "channel": 0}, {"type": "note_on", "time": 9, "note": 51, "velocity": 90, "channel": 0}, {"type": "note_off", "time": 521, "note": 51, "velocity": 90, "channel": 0}, {"type": "note_on", "time": 131, "note": 56, "velocity": 84, "channel": 0}, {"type": "note_off", "time": 591, "note": 56, "velocity": 84, "channel": 0}, {"type": "note_on", "time": 67, "note": 53, "velocity": 89, "channel": 0}, {"type": "note_off", "time": 947, "note": 53, "velocity": 89, "channel": 0}, {"type": "note_on", "time": 3378, "note": 62, "velocity": 103, "channel": 0}, {"type": "note_off", "time": 529, "note": 62, "velocity": 103, "channel": 0}, {"type": "note_on", "time": 33, "note": 63, "velocity": 103, "channel": 0}, {"type": "note_off", "time": 162, "note": 63, "velocity": 103, "channel": 0}, {"type": "note_on", "time": 329, "note": 70, "velocity": 97, "channel": 0}, {"type": "note_off", "time": 481, "note": 70, "velocity": 97, "channel": 0}, {"type": "note_on", "time": 307, "note": 74, "velocity": 89, "channel": 0}, {"type": "note_off", "time": 441, "note": 74, "velocity": 89, "channel": 0}, {"type": "note_on", "time": 43, "note": 74, "velocity": 102, "channel": 0}, {"type": "note_off", "time": 429, "note": 74, "velocity": 102, "channel": 0}, {"type": "note_on", "time": 22, "note": 77, "velocity": 97, "channel": 0}, {"type": "note_off", "time": 8759, "note": 77, "velocity": 97, "channel": 0}, {"type": "note_on", "time": 33, "note": 79, "velocity": 108, "channel": 0}, {"type": "note_off", "time": 1054, "note": 79, "velocity": 108, "channel": 0}, {"type": "note_on", "time": 3532, "note": 62, "velocity": 102, "channel": 0}, {"type": "note_off", "time": 471, "note": 62, "velocity": 102, "channel": 0}, {"type": "note_on", "time": 190, "note": 67, "velocity": 105, "channel": 0}, {"type": "note_off", "time": 672, "note": 67, "velocity": 105, "channel": 0}, {"type": "note_on", "time": 33, "note": 62, "velocity": 98, "channel": 0}, {"type": "note_off", "time": 426, "note": 62, "velocity": 98, "channel": 0}, {"type": "note_on", "time": 33, "note": 69, "velocity": 103, "channel": 0}, {"type": "note_off", "time": 818, "note": 69, "velocity": 103, "channel": 0}, {"type": "note_on", "time": 78, "note": 62, "velocity": 82, "channel": 0}, {"type": "note_off", "time": 314, "note": 62, "velocity": 82, "channel": 0}, {"type": "note_on", "time": 22, "note": 70, "velocity": 101, "channel": 0}, {"type": "note_off", "time": 672, "note": 70, "velocity": 101, "channel": 0}, {"type": "note_on", "time": 78, "note": 69, "velocity": 85, "channel": 0}, {"type": "note_off", "time": 291, "note": 69, "velocity": 85, "channel": 0}, {"type": "note_on", "time": 117, "note": 72, "velocity": 100, "channel": 0}, {"type": "note_off", "time": 3390, "note": 72, "velocity": 100, "channel": 0}, {"type": "note_on", "time": 35, "note": 73, "velocity": 96, "channel": 0}, {"type": "note_off", "time": 325, "note": 73, "velocity": 96, "channel": 0}, {"type": "note_on", "time": 78, "note": 72, "velocity": 95, "channel": 0}, {"type": "note_off", "time": 179, "note": 72, "velocity": 95, "channel": 0}, {"type": "note_on", "time": 22, "note": 70, "velocity": 94, "channel": 0}, {"type": "note_on", "time": 173, "note": 67, "velocity": 100, "channel": 0}, {"type": "note_off", "time": 0, "note": 70, "velocity": 94, "channel": 0}, {"type": "note_off", "time": 252, "note": 67, "velocity": 100, "channel": 0}, {"type": "note_on", "time": 39, "note": 65, "velocity": 97, "channel": 0}, {"type": "note_off", "time": 196, "note": 65, "velocity": 97, "channel": 0}, {"type": "note_on", "time": 11, "note": 62, "velocity": 106, "channel": 0}, {"type": "note_off", "time": 213, "note": 62, "velocity": 106, "channel": 0}, {"type": "note_on", "time": 100, "note": 60, "velocity": 98, "channel": 0}, {"type": "note_off", "time": 140, "note": 60, "velocity": 98, "channel": 0}, {"type": "note_on", "time": 56, "note": 58, "velocity": 103, "channel": 0}, {"type": "note_off", "time": 241, "note": 58, "velocity": 103, "channel": 0}, {"type": "note_on", "time": 33, "note": 55, "velocity": 97, "channel": 0}, {"type": "note_off", "time": 252, "note": 55, "velocity": 97, "channel": 0}, {"type": "note_on", "time": 61, "note": 53, "velocity": 98, "channel": 0}, {"type": "note_off", "time": 218, "note": 53, "velocity": 98, "channel": 0}, {"type": "note_on", "time": 28, "note": 50, "velocity": 97, "channel": 0}, {"type": "note_off", "time": 482, "note": 50, "velocity": 97, "channel": 0}, {"type": "note_on", "time": 2412, "note": 54, "velocity": 99, "channel": 0}, {"type": "note_off", "time": 433, "note": 54, "velocity": 99, "channel": 0}, {"type": "note_on", "time": 3, "note": 57, "velocity": 96, "channel": 0}, {"type": "note_off", "time": 248, "note": 57, "velocity": 96, "channel": 0}, {"type": "note_on", "time": 15, "note": 59, "velocity": 93, "channel": 0}, {"type": "note_off", "time": 236, "note": 59, "velocity": 93, "channel": 0}, {"type": "note_on", "time": 31, "note": 61, "velocity": 98, "channel": 0}, {"type": "note_off", "time": 149, "note": 61, "velocity": 98, "channel": 0}, {"type": "note_on", "time": 35, "note": 64, "velocity": 101, "channel": 0}, {"type": "note_off", "time": 343, "note": 64, "velocity": 101, "channel": 0}, {"type": "note_on", "time": 70, "note": 66, "velocity": 102, "channel": 0}, {"type": "note_off", "time": 161, "note": 66, "velocity": 102, "channel": 0}, {"type": "note_on", "time": 27, "note": 69, "velocity": 105, "channel": 0}, {"type": "note_off", "time": 248, "note": 69, "velocity": 105, "channel": 0}, {"type": "note_on", "time": 31, "note": 71, "velocity": 103, "channel": 0}, {"type": "note_off", "time": 319, "note": 71, "velocity": 103, "channel": 0}, {"type": "note_on", "time": 15, "note": 73, "velocity": 102, "channel": 0}, {"type": "note_off", "time": 299, "note": 73, "velocity": 102, "channel": 0}, {"type": "note_on", "time": 31, "note": 76, "velocity": 104, "channel": 0}, {"type": "note_off", "time": 725, "note": 76, "velocity": 104, "channel": 0}, {"type": "note_on", "time": 43, "note": 70, "velocity": 103, "channel": 0}, {"type": "note_off", "time": 149, "note": 70, "velocity": 103, "channel": 0}, {"type": "note_on", "time": 35, "note": 69, "velocity": 100, "channel": 0}, {"type": "note_off", "time": 157, "note": 69, "velocity": 100, "channel": 0}, {"type": "note_on", "time": 23, "note": 71, "velocity": 104, "channel": 0}, {"type": "note_off", "time": 1581, "note": 71, "velocity": 104, "channel": 0}, {"type": "note_on", "time": 47, "note": 72, "velocity": 101, "channel": 0}, {"type": "note_off", "time": 276, "note": 72, "velocity": 101, "channel": 0}, {"type": "note_on", "time": 35, "note": 70, "velocity": 93, "channel": 0}, {"type": "note_off", "time": 193, "note": 70, "velocity": 93, "channel": 0}, {"type": "note_on", "time": 70, "note": 69, "velocity": 97, "channel": 0}, {"type": "note_off", "time": 216, "note": 69, "velocity": 97, "channel": 0}, {"type": "note_on", "time": 63, "note": 66, "velocity": 92, "channel": 0}, {"type": "note_off", "time": 279, "note": 66, "velocity": 92, "channel": 0}, {"type": "note_on", "time": 111, "note": 64, "velocity": 99, "channel": 0}, {"type": "note_off", "time": 123, "note": 64, "velocity": 99, "channel": 0}, {"type": "note_on", "time": 44, "note": 62, "velocity": 98, "channel": 0}, {"type": "note_off", "time": 145, "note": 62, "velocity": 98, "channel": 0}, {"type": "note_on", "time": 11, "note": 61, "velocity": 89, "channel": 0}, {"type": "note_off", "time": 114, "note": 61, "velocity": 89, "channel": 0}, {"type": "note_on", "time": 65, "note": 59, "velocity": 92, "channel": 0}, {"type": "note_on", "time": 148, "note": 57, "velocity": 93, "channel": 0}, {"type": "note_off", "time": 0, "note": 59, "velocity": 92, "channel": 0}, {"type": "note_off", "time": 346, "note": 57, "velocity": 93, "channel": 0}, {"type": "note_on", "time": 20, "note": 54, "velocity": 94, "channel": 0}, {"type": "note_off", "time": 276, "note": 54, "velocity": 94, "channel": 0}, {"type": "note_on", "time": 25, "note": 53, "velocity": 95, "channel": 0}, {"type": "note_off", "time": 304, "note": 53, "velocity": 95, "channel": 0}, {"type": "note_on", "time": 19, "note": 52, "velocity": 95, "channel": 0}, {"type": "note_off", "time": 315, "note": 52, "velocity": 95, "channel": 0}, {"type": "note_on", "time": 48, "note": 50, "velocity": 100, "channel": 0}, {"type": "note_off", "time": 197, "note": 50, "velocity": 100, "channel": 0}, {"type": "note_on", "time": 31, "note": 53, "velocity": 99, "channel": 0}, {"type": "note_off", "time": 145, "note": 53, "velocity": 99, "channel": 0}, {"type": "note_on", "time": 13, "note": 54, "velocity": 100, "channel": 0}, {"type": "note_off", "time": 352, "note": 54, "velocity": 100, "channel": 0}, {"type": "note_on", "time": 6, "note": 56, "velocity": 94, "channel": 0}, {"type": "note_off", "time": 205, "note": 56, "velocity": 94, "channel": 0}, {"type": "note_on", "time": 3, "note": 58, "velocity": 92, "channel": 0}, {"type": "note_off", "time": 363, "note": 58, "velocity": 92, "channel": 0}, {"type": "note_on", "time": 9, "note": 60, "velocity": 97, "channel": 0}, {"type": "note_off", "time": 177, "note": 60, "velocity": 97, "channel": 0}, {"type": "note_on", "time": 15, "note": 62, "velocity": 100, "channel": 0}, {"type": "note_off", "time": 407, "note": 62, "velocity": 100, "channel": 0}, {"type": "note_on", "time": 2, "note": 64, "velocity": 105, "channel": 0}, {"type": "note_off", "time": 236, "note": 64, "velocity": 105, "channel": 0}, {"type": "note_on", "time": 9, "note": 62, "velocity": 107, "channel": 0}, {"type": "note_off", "time": 260, "note": 62, "velocity": 107, "channel": 0}, {"type": "note_on", "time": 1, "note": 63, "velocity": 107, "channel": 0}, {"type": "note_off", "time": 130, "note": 63, "velocity": 107, "channel": 0}, {"type": "note_on", "time": 14, "note": 65, "velocity": 101, "channel": 0}, {"type": "note_off", "time": 344, "note": 65, "velocity": 101, "channel": 0}, {"type": "note_on", "time": 15, "note": 66, "velocity": 102, "channel": 0}, {"type": "note_off", "time": 279, "note": 66, "velocity": 102, "channel": 0}, {"type": "note_on", "time": 15, "note": 68, "velocity": 102, "channel": 0}, {"type": "note_off", "time": 271, "note": 68, "velocity": 102, "channel": 0}, {"type": "note_on", "time": 2, "note": 70, "velocity": 101, "channel": 0}, {"type": "note_off", "time": 249, "note": 70, "velocity": 101, "channel": 0}, {"type": "note_on", "time": 46, "note": 72, "velocity": 102, "channel": 0}, {"type": "note_off", "time": 239, "note": 72, "velocity": 102, "channel": 0}, {"type": "note_on", "time": 11, "note": 74, "velocity": 91, "channel": 0}, {"type": "note_off", "time": 353, "note": 74, "velocity": 91, "channel": 0}, {"type": "note_on", "time": 11, "note": 71, "velocity": 100, "channel": 0}, {"type": "note_off", "time": 315, "note": 71, "velocity": 100, "channel": 0}, {"type": "note_on", "time": 0, "note": 66, "velocity": 101, "channel": 0}, {"type": "note_off", "time": 354, "note": 66, "velocity": 101, "channel": 0}, {"type": "note_on", "time": 7, "note": 65, "velocity": 101, "channel": 0}, {"type": "note_off", "time": 443, "note": 65, "velocity": 101, "channel": 0}, {"type": "note_on", "time": 9, "note": 71, "velocity": 101, "channel": 0}, {"type": "note_off", "time": 232, "note": 71, "velocity": 101, "channel": 0}, {"type": "note_on", "time": 2, "note": 68, "velocity": 102, "channel": 0}, {"type": "note_off", "time": 229, "note": 68, "velocity": 102, "channel": 0}, {"type": "note_on", "time": 6, "note": 63, "velocity": 100, "channel": 0}, {"type": "note_off", "time": 124, "note": 63, "velocity": 100, "channel": 0}, {"type": "note_on", "time": 15, "note": 62, "velocity": 106, "channel": 0}, {"type": "note_off", "time": 291, "note": 62, "velocity": 106, "channel": 0}, {"type": "note_on", "time": 5, "note": 68, "velocity": 101, "channel": 0}, {"type": "note_off", "time": 262, "note": 68, "velocity": 101, "channel": 0}, {"type": "note_on", "time": 40, "note": 66, "velocity": 94, "channel": 0}, {"type": "note_off", "time": 111, "note": 66, "velocity": 94, "channel": 0}, {"type": "note_on", "time": 34, "note": 65, "velocity": 98, "channel": 0}, {"type": "note_off", "time": 173, "note": 65, "velocity": 98, "channel": 0}, {"type": "note_on", "time": 11, "note": 61, "velocity": 94, "channel": 0}, {"type": "note_off", "time": 229, "note": 61, "velocity": 94, "channel": 0}, {"type": "note_on", "time": 33, "note": 59, "velocity": 92, "channel": 0}, {"type": "note_off", "time": 246, "note": 59, "velocity": 92, "channel": 0}, {"type": "note_on", "time": 154, "note": 62, "velocity": 105, "channel": 0}, {"type": "note_off", "time": 524, "note": 62, "velocity": 105, "channel": 0}, {"type": "note_on", "time": 30, "note": 57, "velocity": 97, "channel": 0}, {"type": "note_off", "time": 333, "note": 57, "velocity": 97, "channel": 0}, {"type": "note_on", "time": 42, "note": 56, "velocity": 95, "channel": 0}, {"type": "note_off", "time": 221, "note": 56, "velocity": 95, "channel": 0}, {"type": "note_on", "time": 39, "note": 60, "velocity": 99, "channel": 0}, {"type": "note_off", "time": 277, "note": 60, "velocity": 99, "channel": 0}, {"type": "note_on", "time": 11, "note": 59, "velocity": 101, "channel": 0}, {"type": "note_off", "time": 246, "note": 59, "velocity": 101, "channel": 0}, {"type": "note_on", "time": 66, "note": 58, "velocity": 100, "channel": 0}, {"type": "note_off", "time": 181, "note": 58, "velocity": 100, "channel": 0}, {"type": "note_on", "time": 46, "note": 57, "velocity": 102, "channel": 0}, {"type": "note_off", "time": 206, "note": 57, "velocity": 102, "channel": 0}, {"type": "note_on", "time": 60, "note": 54, "velocity": 100, "channel": 0}, {"type": "note_off", "time": 246, "note": 54, "velocity": 100, "channel": 0}, {"type": "note_on", "time": 30, "note": 53, "velocity": 96, "channel": 0}, {"type": "note_off", "time": 457, "note": 53, "velocity": 96, "channel": 0}, {"type": "note_on", "time": 67, "note": 51, "velocity": 102, "channel": 0}, {"type": "note_off", "time": 342, "note": 51, "velocity": 102, "channel": 0}, {"type": "note_on", "time": 30, "note": 48, "velocity": 101, "channel": 0}, {"type": "note_off", "time": 471, "note": 48, "velocity": 101, "channel": 0}, {"type": "note_on", "time": 74, "note": 51, "velocity": 97, "channel": 0}, {"type": "note_off", "time": 544, "note": 51, "velocity": 97, "channel": 0}, {"type": "note_on", "time": 31, "note": 53, "velocity": 94, "channel": 0}, {"type": "note_off", "time": 828, "note": 53, "velocity": 94, "channel": 0}, {"type": "note_on", "time": 32, "note": 56, "velocity": 91, "channel": 0}, {"type": "note_off", "time": 616, "note": 56, "velocity": 91, "channel": 0}, {"type": "note_on", "time": 128, "note": 58, "velocity": 93, "channel": 0}, {"type": "note_off", "time": 2259, "note": 58, "velocity": 93, "channel": 0}, {"type": "note_on", "time": 44, "note": 56, "velocity": 90, "channel": 0}, {"type": "note_off", "time": 611, "note": 56, "velocity": 90, "channel": 0}, {"type": "note_on", "time": 123, "note": 53, "velocity": 88, "channel": 0}, {"type": "note_off", "time": 538, "note": 53, "velocity": 88, "channel": 0}, {"type": "note_on", "time": 4284, "note": 67, "velocity": 105, "channel": 0}, {"type": "note_off", "time": 527, "note": 67, "velocity": 105, "channel": 0}, {"type": "note_on", "time": 64, "note": 68, "velocity": 109, "channel": 0}, {"type": "note_off", "time": 607, "note": 68, "velocity": 109, "channel": 0}, {"type": "note_on", "time": 128, "note": 66, "velocity": 89, "channel": 0}, {"type": "note_off", "time": 323, "note": 66, "velocity": 89, "channel": 0}, {"type": "note_on", "time": 86, "note": 67, "velocity": 103, "channel": 0}, {"type": "note_off", "time": 591, "note": 67, "velocity": 103, "channel": 0}, {"type": "note_on", "time": 130, "note": 79, "velocity": 102, "channel": 0}, {"type": "note_off", "time": 701, "note": 79, "velocity": 102, "channel": 0}, {"type": "note_on", "time": 63, "note": 79, "velocity": 101, "channel": 0}, {"type": "note_off", "time": 654, "note": 79, "velocity": 101, "channel": 0}, {"type": "note_on", "time": 11, "note": 75, "velocity": 106, "channel": 0}, {"type": "note_off", "time": 496, "note": 75, "velocity": 106, "channel": 0}, {"type": "note_on", "time": 3, "note": 71, "velocity": 101, "channel": 0}, {"type": "note_off", "time": 725, "note": 71, "velocity": 101, "channel": 0}, {"type": "note_on", "time": 220, "note": 63, "velocity": 90, "channel": 0}, {"type": "note_off", "time": 138, "note": 63, "velocity": 90, "channel": 0}, {"type": "note_on", "time": 177, "note": 68, "velocity": 107, "channel": 0}, {"type": "note_off", "time": 567, "note": 68, "velocity": 107, "channel": 0}, {"type": "note_on", "time": 59, "note": 70, "velocity": 104, "channel": 0}, {"type": "note_off", "time": 394, "note": 70, "velocity": 104, "channel": 0}, {"type": "note_on", "time": 35, "note": 71, "velocity": 103, "channel": 0}, {"type": "note_off", "time": 686, "note": 71, "velocity": 103, "channel": 0}, {"type": "note_on", "time": 27, "note": 73, "velocity": 98, "channel": 0}, {"type": "note_off", "time": 441, "note": 73, "velocity": 98, "channel": 0}, {"type": "note_on", "time": 43, "note": 75, "velocity": 86, "channel": 0}, {"type": "note_off", "time": 457, "note": 75, "velocity": 86, "channel": 0}, {"type": "note_on", "time": 3, "note": 73, "velocity": 97, "channel": 0}, {"type": "note_off", "time": 425, "note": 73, "velocity": 97, "channel": 0}, {"type": "note_on", "time": 0, "note": 71, "velocity": 103, "channel": 0}, {"type": "note_off", "time": 311, "note": 71, "velocity": 103, "channel": 0}, {"type": "note_on", "time": 202, "note": 70, "velocity": 103, "channel": 0}, {"type": "note_off", "time": 560, "note": 70, "velocity": 103, "channel": 0}, {"type": "note_on", "time": 61, "note": 68, "velocity": 107, "channel": 0}, {"type": "note_off", "time": 499, "note": 68, "velocity": 107, "channel": 0}, {"type": "note_on", "time": 72, "note": 67, "velocity": 100, "channel": 0}, {"type": "note_off", "time": 476, "note": 67, "velocity": 100, "channel": 0}, {"type": "note_on", "time": 117, "note": 65, "velocity": 99, "channel": 0}, {"type": "note_off", "time": 577, "note": 65, "velocity": 99, "channel": 0}, {"type": "note_on", "time": 89, "note": 64, "velocity": 108, "channel": 0}, {"type": "note_off", "time": 465, "note": 64, "velocity": 108, "channel": 0}, {"type": "note_on", "time": 67, "note": 65, "velocity": 99, "channel": 0}, {"type": "note_off", "time": 274, "note": 65, "velocity": 99, "channel": 0}, {"type": "note_on", "time": 28, "note": 66, "velocity": 99, "channel": 0}, {"type": "note_off", "time": 252, "note": 66, "velocity": 99, "channel": 0}, {"type": "note_on", "time": 50, "note": 67, "velocity": 103, "channel": 0}, {"type": "note_off", "time": 459, "note": 67, "velocity": 103, "channel": 0}, {"type": "note_on", "time": 22, "note": 69, "velocity": 103, "channel": 0}, {"type": "note_off", "time": 532, "note": 69, "velocity": 103, "channel": 0}, {"type": "note_on", "time": 67, "note": 70, "velocity": 104, "channel": 0}, {"type": "note_off", "time": 555, "note": 70, "velocity": 104, "channel": 0}, {"type": "note_on", "time": 28, "note": 72, "velocity": 99, "channel": 0}, {"type": "note_off", "time": 543, "note": 72, "velocity": 99, "channel": 0}, {"type": "note_on", "time": 44, "note": 73, "velocity": 98, "channel": 0}, {"type": "note_off", "time": 392, "note": 73, "velocity": 98, "channel": 0}, {"type": "note_on", "time": 448, "note": 75, "velocity": 96, "channel": 0}, {"type": "note_off", "time": 465, "note": 75, "velocity": 96, "channel": 0}, {"type": "note_on", "time": 39, "note": 72, "velocity": 98, "channel": 0}, {"type": "note_off", "time": 482, "note": 72, "velocity": 98, "channel": 0}, {"type": "note_on", "time": 190, "note": 65, "velocity": 90, "channel": 0}, {"type": "note_off", "time": 364, "note": 65, "velocity": 90, "channel": 0}, {"type": "note_on", "time": 46, "note": 67, "velocity": 103, "channel": 0}, {"type": "note_off", "time": 556, "note": 67, "velocity": 103, "channel": 0}, {"type": "note_on", "time": 0, "note": 72, "velocity": 101, "channel": 0}, {"type": "note_off", "time": 602, "note": 72, "velocity": 101, "channel": 0}, {"type": "note_on", "time": 14, "note": 69, "velocity": 102, "channel": 0}, {"type": "note_off", "time": 640, "note": 69, "velocity": 102, "channel": 0}, {"type": "note_on", "time": 5, "note": 68, "velocity": 101, "channel": 0}, {"type": "note_off", "time": 614, "note": 68, "velocity": 101, "channel": 0}, {"type": "note_on", "time": 58, "note": 67, "velocity": 101, "channel": 0}, {"type": "note_off", "time": 257, "note": 67, "velocity": 101, "channel": 0}, {"type": "note_on", "time": 340, "note": 72, "velocity": 102, "channel": 0}, {"type": "note_off", "time": 379, "note": 72, "velocity": 102, "channel": 0}, {"type": "note_on", "time": 30, "note": 69, "velocity": 101, "channel": 0}, {"type": "note_off", "time": 524, "note": 69, "velocity": 101, "channel": 0}, {"type": "note_on", "time": 140, "note": 66, "velocity": 100, "channel": 0}, {"type": "note_off", "time": 587, "note": 66, "velocity": 100, "channel": 0}, {"type": "note_on", "time": 25, "note": 61, "velocity": 94, "channel": 0}, {"type": "note_on", "time": 469, "note": 68, "velocity": 96, "channel": 0}, {"type": "note_off", "time": 0, "note": 61, "velocity": 94, "channel": 0}, {"type": "note_off", "time": 583, "note": 68, "velocity": 96, "channel": 0}, {"type": "note_on", "time": 67, "note": 63, "velocity": 103, "channel": 0}, {"type": "note_off", "time": 551, "note": 63, "velocity": 103, "channel": 0}, {"type": "note_on", "time": 256, "note": 61, "velocity": 92, "channel": 0}, {"type": "note_off", "time": 264, "note": 61, "velocity": 92, "channel": 0}, {"type": "note_on", "time": 0, "note": 56, "velocity": 9, "channel": 0}, {"type": "note_off", "time": 1012, "note": 56, "velocity": 9, "channel": 0}, {"type": "note_on", "time": 112, "note": 54, "velocity": 92, "channel": 0}, {"type": "note_off", "time": 168, "note": 54, "velocity": 92, "channel": 0}, {"type": "note_on", "time": 114, "note": 65, "velocity": 102, "channel": 0}, {"type": "note_off", "time": 402, "note": 65, "velocity": 102, "channel": 0}, {"type": "note_on", "time": 40, "note": 63, "velocity": 105, "channel": 0}, {"type": "note_off", "time": 274, "note": 63, "velocity": 105, "channel": 0}, {"type": "note_on", "time": 39, "note": 60, "velocity": 99, "channel": 0}, {"type": "note_off", "time": 389, "note": 60, "velocity": 99, "channel": 0}, {"type": "note_on", "time": 11, "note": 59, "velocity": 95, "channel": 0}, {"type": "note_off", "time": 986, "note": 59, "velocity": 95, "channel": 0}, {"type": "note_on", "time": 75, "note": 54, "velocity": 88, "channel": 0}, {"type": "note_off", "time": 297, "note": 54, "velocity": 88, "channel": 0}, {"type": "note_on", "time": 131, "note": 58, "velocity": 93, "channel": 0}, {"type": "note_off", "time": 928, "note": 58, "velocity": 93, "channel": 0}, {"type": "note_on", "time": 2167, "note": 53, "velocity": 96, "channel": 0}, {"type": "note_off", "time": 785, "note": 53, "velocity": 96, "channel": 0}, {"type": "note_on", "time": 28, "note": 56, "velocity": 99, "channel": 0}, {"type": "note_off", "time": 897, "note": 56, "velocity": 99, "channel": 0}, {"type": "note_on", "time": 87, "note": 58, "velocity": 98, "channel": 0}, {"type": "note_off", "time": 757, "note": 58, "velocity": 98, "channel": 0}, {"type": "note_on", "time": 36, "note": 56, "velocity": 100, "channel": 0}, {"type": "note_off", "time": 728, "note": 56, "velocity": 100, "channel": 0}, {"type": "note_on", "time": 15, "note": 53, "velocity": 99, "channel": 0}, {"type": "note_off", "time": 1592, "note": 53, "velocity": 99, "channel": 0}, {"type": "note_on", "time": 2322, "note": 44, "velocity": 105, "channel": 0}, {"type": "note_off", "time": 314, "note": 44, "velocity": 105, "channel": 0}, {"type": "note_on", "time": 78, "note": 47, "velocity": 98, "channel": 0}, {"type": "note_off", "time": 269, "note": 47, "velocity": 98, "channel": 0}, {"type": "note_on", "time": 72, "note": 51, "velocity": 95, "channel": 0}, {"type": "note_off", "time": 235, "note": 51, "velocity": 95, "channel": 0}, {"type": "note_on", "time": 33, "note": 54, "velocity": 96, "channel": 0}, {"type": "note_off", "time": 185, "note": 54, "velocity": 96, "channel": 0}, {"type": "note_on", "time": 39, "note": 58, "velocity": 94, "channel": 0}, {"type": "note_off", "time": 302, "note": 58, "velocity": 94, "channel": 0}, {"type": "note_on", "time": 67, "note": 56, "velocity": 98, "channel": 0}, {"type": "note_off", "time": 263, "note": 56, "velocity": 98, "channel": 0}, {"type": "note_on", "time": 50, "note": 53, "velocity": 101, "channel": 0}, {"type": "note_off", "time": 241, "note": 53, "velocity": 101, "channel": 0}, {"type": "note_on", "time": 112, "note": 52, "velocity": 101, "channel": 0}, {"type": "note_off", "time": 229, "note": 52, "velocity": 101, "channel": 0}, {"type": "note_on", "time": 78, "note": 51, "velocity": 98, "channel": 0}, {"type": "note_off", "time": 224, "note": 51, "velocity": 98, "channel": 0}, {"type": "note_on", "time": 61, "note": 53, "velocity": 96, "channel": 0}, {"type": "note_off", "time": 196, "note": 53, "velocity": 96, "channel": 0}, {"type": "note_on", "time": 39, "note": 56, "velocity": 95, "channel": 0}, {"type": "note_off", "time": 218, "note": 56, "velocity": 95, "channel": 0}, {"type": "note_on", "time": 39, "note": 59, "velocity": 95, "channel": 0}, {"type": "note_off", "time": 162, "note": 59, "velocity": 95, "channel": 0}, {"type": "note_on", "time": 39, "note": 63, "velocity": 102, "channel": 0}, {"type": "note_off", "time": 342, "note": 63, "velocity": 102, "channel": 0}, {"type": "note_on", "time": 89, "note": 61, "velocity": 98, "channel": 0}, {"type": "note_off", "time": 235, "note": 61, "velocity": 98, "channel": 0}, {"type": "note_on", "time": 72, "note": 59, "velocity": 102, "channel": 0}, {"type": "note_off", "time": 179, "note": 59, "velocity": 102, "channel": 0}, {"type": "note_on", "time": 56, "note": 56, "velocity": 99, "channel": 0}, {"type": "note_off", "time": 325, "note": 56, "velocity": 99, "channel": 0}, {"type": "note_on", "time": 39, "note": 53, "velocity": 99, "channel": 0}, {"type": "note_off", "time": 235, "note": 53, "velocity": 99, "channel": 0}, {"type": "note_on", "time": 50, "note": 55, "velocity": 95, "channel": 0}, {"type": "note_off", "time": 269, "note": 55, "velocity": 95, "channel": 0}, {"type": "note_on", "time": 22, "note": 59, "velocity": 94, "channel": 0}, {"type": "note_off", "time": 224, "note": 59, "velocity": 94, "channel": 0}, {"type": "note_on", "time": 14, "note": 63, "velocity": 100, "channel": 0}, {"type": "note_off", "time": 347, "note": 63, "velocity": 100, "channel": 0}, {"type": "note_on", "time": 30, "note": 58, "velocity": 102, "channel": 0}, {"type": "note_off", "time": 285, "note": 58, "velocity": 102, "channel": 0}, {"type": "note_on", "time": 36, "note": 55, "velocity": 99, "channel": 0}, {"type": "note_off", "time": 227, "note": 55, "velocity": 99, "channel": 0}, {"type": "note_on", "time": 44, "note": 56, "velocity": 99, "channel": 0}, {"type": "note_off", "time": 271, "note": 56, "velocity": 99, "channel": 0}, {"type": "note_on", "time": 61, "note": 58, "velocity": 97, "channel": 0}, {"type": "note_off", "time": 269, "note": 58, "velocity": 97, "channel": 0}, {"type": "note_on", "time": 25, "note": 60, "velocity": 100, "channel": 0}, {"type": "note_off", "time": 434, "note": 60, "velocity": 100, "channel": 0}, {"type": "note_on", "time": 106, "note": 63, "velocity": 105, "channel": 0}, {"type": "note_off", "time": 271, "note": 63, "velocity": 105, "channel": 0}, {"type": "note_on", "time": 39, "note": 65, "velocity": 101, "channel": 0}, {"type": "note_off", "time": 420, "note": 65, "velocity": 101, "channel": 0}, {"type": "note_on", "time": 14, "note": 68, "velocity": 102, "channel": 0}, {"type": "note_off", "time": 260, "note": 68, "velocity": 102, "channel": 0}, {"type": "note_on", "time": 19, "note": 70, "velocity": 101, "channel": 0}, {"type": "note_off", "time": 344, "note": 70, "velocity": 101, "channel": 0}, {"type": "note_on", "time": 14, "note": 72, "velocity": 104, "channel": 0}, {"type": "note_off", "time": 260, "note": 72, "velocity": 104, "channel": 0}, {"type": "note_on", "time": 16, "note": 74, "velocity": 100, "channel": 0}, {"type": "note_off", "time": 319, "note": 74, "velocity": 100, "channel": 0}, {"type": "note_on", "time": 39, "note": 73, "velocity": 102, "channel": 0}, {"type": "note_off", "time": 120, "note": 73, "velocity": 102, "channel": 0}, {"type": "note_on", "time": 28, "note": 72, "velocity": 102, "channel": 0}, {"type": "note_off", "time": 165, "note": 72, "velocity": 102, "channel": 0}, {"type": "note_on", "time": 25, "note": 71, "velocity": 104, "channel": 0}, {"type": "note_off", "time": 257, "note": 71, "velocity": 104, "channel": 0}, {"type": "note_on", "time": 22, "note": 70, "velocity": 99, "channel": 0}, {"type": "note_off", "time": 2299, "note": 70, "velocity": 99, "channel": 0}, {"type": "note_on", "time": 280, "note": 69, "velocity": 101, "channel": 0}, {"type": "note_off", "time": 277, "note": 69, "velocity": 101, "channel": 0}, {"type": "note_on", "time": 30, "note": 68, "velocity": 104, "channel": 0}, {"type": "note_off", "time": 703, "note": 68, "velocity": 104, "channel": 0}, {"type": "note_on", "time": 47, "note": 67, "velocity": 101, "channel": 0}, {"type": "note_off", "time": 437, "note": 67, "velocity": 101, "channel": 0}, {"type": "note_on", "time": 145, "note": 65, "velocity": 101, "channel": 0}, {"type": "note_off", "time": 420, "note": 65, "velocity": 101, "channel": 0}, {"type": "note_on", "time": 67, "note": 63, "velocity": 106, "channel": 0}, {"type": "note_off", "time": 515, "note": 63, "velocity": 106, "channel": 0}, {"type": "note_on", "time": 50, "note": 62, "velocity": 103, "channel": 0}, {"type": "note_off", "time": 585, "note": 62, "velocity": 103, "channel": 0}, {"type": "note_on", "time": 67, "note": 60, "velocity": 95, "channel": 0}, {"type": "note_off", "time": 353, "note": 60, "velocity": 95, "channel": 0}, {"type": "note_on", "time": 14, "note": 58, "velocity": 92, "channel": 0}, {"type": "note_off", "time": 762, "note": 58, "velocity": 92, "channel": 0}, {"type": "note_on", "time": 4696, "note": 64, "velocity": 101, "channel": 0}, {"type": "note_off", "time": 658, "note": 64, "velocity": 101, "channel": 0}, {"type": "note_on", "time": 218, "note": 73, "velocity": 102, "channel": 0}, {"type": "note_off", "time": 782, "note": 73, "velocity": 102, "channel": 0}, {"type": "note_on", "time": 19, "note": 72, "velocity": 100, "channel": 0}, {"type": "note_off", "time": 112, "note": 72, "velocity": 100, "channel": 0}, {"type": "note_on", "time": 30, "note": 71, "velocity": 100, "channel": 0}, {"type": "note_off", "time": 280, "note": 71, "velocity": 100, "channel": 0}, {"type": "note_on", "time": 47, "note": 70, "velocity": 100, "channel": 0}, {"type": "note_off", "time": 378, "note": 70, "velocity": 100, "channel": 0}, {"type": "note_on", "time": 42, "note": 69, "velocity": 103, "channel": 0}, {"type": "note_off", "time": 636, "note": 69, "velocity": 103, "channel": 0}, {"type": "note_on", "time": 644, "note": 78, "velocity": 96, "channel": 0}, {"type": "note_off", "time": 2271, "note": 78, "velocity": 96, "channel": 0}, {"type": "note_on", "time": 4379, "note": 72, "velocity": 106, "channel": 0}, {"type": "note_off", "time": 454, "note": 72, "velocity": 106, "channel": 0}, {"type": "note_on", "time": 44, "note": 76, "velocity": 110, "channel": 0}, {"type": "note_off", "time": 824, "note": 76, "velocity": 110, "channel": 0}, {"type": "note_on", "time": 123, "note": 79, "velocity": 97, "channel": 0}, {"type": "note_off", "time": 386, "note": 79, "velocity": 97, "channel": 0}, {"type": "note_on", "time": 95, "note": 80, "velocity": 108, "channel": 0}, {"type": "note_off", "time": 252, "note": 80, "velocity": 108, "channel": 0}, {"type": "note_on", "time": 44, "note": 79, "velocity": 115, "channel": 0}, {"type": "note_off", "time": 1390, "note": 79, "velocity": 115, "channel": 0}, {"type": "note_on", "time": 185, "note": 76, "velocity": 106, "channel": 0}, {"type": "note_off", "time": 583, "note": 76, "velocity": 106, "channel": 0}, {"type": "note_on", "time": 347, "note": 72, "velocity": 105, "channel": 0}, {"type": "note_off", "time": 246, "note": 72, "velocity": 105, "channel": 0}, {"type": "note_on", "time": 633, "note": 68, "velocity": 103, "channel": 0}, {"type": "note_off", "time": 863, "note": 68, "velocity": 103, "channel": 0}, {"type": "note_on", "time": 106, "note": 67, "velocity": 102, "channel": 0}, {"type": "note_off", "time": 302, "note": 67, "velocity": 102, "channel": 0}, {"type": "note_on", "time": 123, "note": 65, "velocity": 101, "channel": 0}, {"type": "note_off", "time": 403, "note": 65, "velocity": 101, "channel": 0}, {"type": "note_on", "time": 112, "note": 64, "velocity": 104, "channel": 0}, {"type": "note_off", "time": 409, "note": 64, "velocity": 104, "channel": 0}, {"type": "note_on", "time": 44, "note": 67, "velocity": 91, "channel": 0}, {"type": "note_off", "time": 260, "note": 67, "velocity": 91, "channel": 0}, {"type": "note_on", "time": 25, "note": 70, "velocity": 99, "channel": 0}, {"type": "note_off", "time": 588, "note": 70, "velocity": 99, "channel": 0}, {"type": "note_on", "time": 342, "note": 75, "velocity": 104, "channel": 0}, {"type": "note_off", "time": 588, "note": 75, "velocity": 104, "channel": 0}, {"type": "note_on", "time": 179, "note": 79, "velocity": 110, "channel": 0}, {"type": "note_off", "time": 381, "note": 79, "velocity": 110, "channel": 0}, {"type": "note_on", "time": 50, "note": 80, "velocity": 108, "channel": 0}, {"type": "note_off", "time": 824, "note": 80, "velocity": 108, "channel": 0}, {"type": "note_on", "time": 364, "note": 78, "velocity": 97, "channel": 0}, {"type": "note_off", "time": 487, "note": 78, "velocity": 97, "channel": 0}, {"type": "note_on", "time": 78, "note": 76, "velocity": 105, "channel": 0}, {"type": "note_off", "time": 600, "note": 76, "velocity": 105, "channel": 0}, {"type": "note_on", "time": 106, "note": 75, "velocity": 104, "channel": 0}, {"type": "note_off", "time": 482, "note": 75, "velocity": 104, "channel": 0}, {"type": "note_on", "time": 56, "note": 73, "velocity": 98, "channel": 0}, {"type": "note_off", "time": 473, "note": 73, "velocity": 98, "channel": 0}, {"type": "note_on", "time": 47, "note": 72, "velocity": 103, "channel": 0}, {"type": "note_off", "time": 512, "note": 72, "velocity": 103, "channel": 0}, {"type": "note_on", "time": 110, "note": 71, "velocity": 99, "channel": 0}, {"type": "note_off", "time": 528, "note": 71, "velocity": 99, "channel": 0}, {"type": "note_on", "time": 77, "note": 70, "velocity": 102, "channel": 0}, {"type": "note_off", "time": 431, "note": 70, "velocity": 102, "channel": 0}, {"type": "note_on", "time": 95, "note": 69, "velocity": 99, "channel": 0}, {"type": "note_off", "time": 448, "note": 69, "velocity": 99, "channel": 0}, {"type": "note_on", "time": 216, "note": 68, "velocity": 102, "channel": 0}, {"type": "note_off", "time": 528, "note": 68, "velocity": 102, "channel": 0}, {"type": "note_on", "time": 15, "note": 67, "velocity": 101, "channel": 0}, {"type": "note_off", "time": 504, "note": 67, "velocity": 101, "channel": 0}, {"type": "note_on", "time": 41, "note": 65, "velocity": 102, "channel": 0}, {"type": "note_off", "time": 745, "note": 65, "velocity": 102, "channel": 0}, {"type": "note_on", "time": 145, "note": 62, "velocity": 94, "channel": 0}, {"type": "note_off", "time": 185, "note": 62, "velocity": 94, "channel": 0}, {"type": "note_on", "time": 80, "note": 64, "velocity": 109, "channel": 0}, {"type": "note_off", "time": 599, "note": 64, "velocity": 109, "channel": 0}, {"type": "note_on", "time": 21, "note": 65, "velocity": 102, "channel": 0}, {"type": "note_off", "time": 482, "note": 65, "velocity": 102, "channel": 0}, {"type": "note_on", "time": 257, "note": 67, "velocity": 101, "channel": 0}, {"type": "note_off", "time": 218, "note": 67, "velocity": 101, "channel": 0}, {"type": "note_on", "time": 56, "note": 68, "velocity": 103, "channel": 0}, {"type": "note_off", "time": 656, "note": 68, "velocity": 103, "channel": 0}, {"type": "note_on", "time": 39, "note": 65, "velocity": 103, "channel": 0}, {"type": "note_off", "time": 476, "note": 65, "velocity": 103, "channel": 0}, {"type": "note_on", "time": 33, "note": 67, "velocity": 101, "channel": 0}, {"type": "note_off", "time": 532, "note": 67, "velocity": 101, "channel": 0}, {"type": "note_on", "time": 112, "note": 68, "velocity": 103, "channel": 0}, {"type": "note_off", "time": 527, "note": 68, "velocity": 103, "channel": 0}, {"type": "note_on", "time": 72, "note": 70, "velocity": 99, "channel": 0}, {"type": "note_off", "time": 639, "note": 70, "velocity": 99, "channel": 0}, {"type": "note_on", "time": 22, "note": 71, "velocity": 91, "channel": 0}, {"type": "note_off", "time": 302, "note": 71, "velocity": 91, "channel": 0}, {"type": "note_on", "time": 151, "note": 74, "velocity": 98, "channel": 0}, {"type": "note_off", "time": 370, "note": 74, "velocity": 98, "channel": 0}, {"type": "note_on", "time": 50, "note": 77, "velocity": 98, "channel": 0}, {"type": "note_off", "time": 1687, "note": 77, "velocity": 98, "channel": 0}, {"type": "note_on", "time": 1632, "note": 76, "velocity": 110, "channel": 0}, {"type": "note_off", "time": 764, "note": 76, "velocity": 110, "channel": 0}, {"type": "note_on", "time": 23, "note": 75, "velocity": 106, "channel": 0}, {"type": "note_off", "time": 528, "note": 75, "velocity": 106, "channel": 0}, {"type": "note_on", "time": 47, "note": 74, "velocity": 100, "channel": 0}, {"type": "note_off", "time": 615, "note": 74, "velocity": 100, "channel": 0}, {"type": "note_on", "time": 47, "note": 72, "velocity": 99, "channel": 0}, {"type": "note_off", "time": 465, "note": 72, "velocity": 99, "channel": 0}, {"type": "note_on", "time": 102, "note": 71, "velocity": 103, "channel": 0}, {"type": "note_off", "time": 512, "note": 71, "velocity": 103, "channel": 0}, {"type": "note_on", "time": 0, "note": 70, "velocity": 104, "channel": 0}, {"type": "note_off", "time": 552, "note": 70, "velocity": 104, "channel": 0}, {"type": "note_on", "time": 252, "note": 66, "velocity": 102, "channel": 0}, {"type": "note_off", "time": 417, "note": 66, "velocity": 102, "channel": 0}, {"type": "note_on", "time": 63, "note": 65, "velocity": 98, "channel": 0}, {"type": "note_off", "time": 378, "note": 65, "velocity": 98, "channel": 0}, {"type": "note_on", "time": 323, "note": 63, "velocity": 110, "channel": 0}, {"type": "note_off", "time": 433, "note": 63, "velocity": 110, "channel": 0}, {"type": "note_on", "time": 86, "note": 62, "velocity": 107, "channel": 0}, {"type": "note_off", "time": 544, "note": 62, "velocity": 107, "channel": 0}, {"type": "note_on", "time": 173, "note": 60, "velocity": 97, "channel": 0}, {"type": "note_off", "time": 536, "note": 60, "velocity": 97, "channel": 0}, {"type": "note_on", "time": 78, "note": 59, "velocity": 90, "channel": 0}, {"type": "note_off", "time": 575, "note": 59, "velocity": 90, "channel": 0}, {"type": "note_on", "time": 536, "note": 57, "velocity": 94, "channel": 0}, {"type": "note_off", "time": 484, "note": 57, "velocity": 94, "channel": 0}, {"type": "note_on", "time": 43, "note": 58, "velocity": 94, "channel": 0}, {"type": "note_off", "time": 354, "note": 58, "velocity": 94, "channel": 0}, {"type": "note_on", "time": 15, "note": 60, "velocity": 96, "channel": 0}, {"type": "note_off", "time": 315, "note": 60, "velocity": 96, "channel": 0}, {"type": "note_on", "time": 15, "note": 62, "velocity": 105, "channel": 0}, {"type": "note_off", "time": 654, "note": 62, "velocity": 105, "channel": 0}, {"type": "note_on", "time": 0, "note": 64, "velocity": 108, "channel": 0}, {"type": "note_off", "time": 615, "note": 64, "velocity": 108, "channel": 0}, {"type": "note_on", "time": 55, "note": 65, "velocity": 103, "channel": 0}, {"type": "note_off", "time": 599, "note": 65, "velocity": 103, "channel": 0}, {"type": "note_on", "time": 0, "note": 67, "velocity": 99, "channel": 0}, {"type": "note_off", "time": 575, "note": 67, "velocity": 99, "channel": 0}, {"type": "note_on", "time": 7, "note": 69, "velocity": 102, "channel": 0}, {"type": "note_off", "time": 465, "note": 69, "velocity": 102, "channel": 0}, {"type": "note_on", "time": 197, "note": 70, "velocity": 100, "channel": 0}, {"type": "note_off", "time": 386, "note": 70, "velocity": 100, "channel": 0}, {"type": "note_on", "time": 165, "note": 72, "velocity": 100, "channel": 0}, {"type": "note_off", "time": 678, "note": 72, "velocity": 100, "channel": 0}, {"type": "note_on", "time": 26, "note": 71, "velocity": 97, "channel": 0}, {"type": "note_off", "time": 134, "note": 71, "velocity": 97, "channel": 0}, {"type": "note_on", "time": 56, "note": 70, "velocity": 97, "channel": 0}, {"type": "note_off", "time": 218, "note": 70, "velocity": 97, "channel": 0}, {"type": "note_on", "time": 67, "note": 69, "velocity": 97, "channel": 0}, {"type": "note_off", "time": 375, "note": 69, "velocity": 97, "channel": 0}, {"type": "note_on", "time": 398, "note": 70, "velocity": 99, "channel": 0}, {"type": "note_off", "time": 504, "note": 70, "velocity": 99, "channel": 0}, {"type": "note_on", "time": 32, "note": 69, "velocity": 97, "channel": 0}, {"type": "note_off", "time": 201, "note": 69, "velocity": 97, "channel": 0}, {"type": "note_on", "time": 95, "note": 68, "velocity": 99, "channel": 0}, {"type": "note_off", "time": 162, "note": 68, "velocity": 99, "channel": 0}, {"type": "note_on", "time": 61, "note": 67, "velocity": 95, "channel": 0}, {"type": "note_off", "time": 487, "note": 67, "velocity": 95, "channel": 0}, {"type": "note_on", "time": 250, "note": 69, "velocity": 95, "channel": 0}, {"type": "note_off", "time": 701, "note": 69, "velocity": 95, "channel": 0}, {"type": "note_on", "time": 17, "note": 68, "velocity": 96, "channel": 0}, {"type": "note_off", "time": 196, "note": 68, "velocity": 96, "channel": 0}, {"type": "note_on", "time": 56, "note": 67, "velocity": 94, "channel": 0}, {"type": "note_off", "time": 218, "note": 67, "velocity": 94, "channel": 0}, {"type": "note_on", "time": 44, "note": 66, "velocity": 92, "channel": 0}, {"type": "note_off", "time": 358, "note": 66, "velocity": 92, "channel": 0}, {"type": "note_on", "time": 44, "note": 65, "velocity": 92, "channel": 0}, {"type": "note_off", "time": 807, "note": 65, "velocity": 92, "channel": 0}, {"type": "note_on", "time": 44, "note": 60, "velocity": 95, "channel": 0}, {"type": "note_off", "time": 532, "note": 60, "velocity": 95, "channel": 0}, {"type": "note_on", "time": 6325, "note": 53, "velocity": 106, "channel": 0}, {"type": "note_off", "time": 134, "note": 53, "velocity": 106, "channel": 0}, {"type": "note_on", "time": 0, "note": 54, "velocity": 95, "channel": 0}, {"type": "note_off", "time": 190, "note": 54, "velocity": 95, "channel": 0}, {"type": "note_on", "time": 107, "note": 57, "velocity": 101, "channel": 0}, {"type": "note_off", "time": 229, "note": 57, "velocity": 101, "channel": 0}, {"type": "note_on", "time": 36, "note": 59, "velocity": 96, "channel": 0}, {"type": "note_off", "time": 129, "note": 59, "velocity": 96, "channel": 0}, {"type": "note_on", "time": 25, "note": 61, "velocity": 96, "channel": 0}, {"type": "note_off", "time": 194, "note": 61, "velocity": 96, "channel": 0}, {"type": "note_on", "time": 79, "note": 62, "velocity": 102, "channel": 0}, {"type": "note_off", "time": 165, "note": 62, "velocity": 102, "channel": 0}, {"type": "note_on", "time": 7, "note": 64, "velocity": 106, "channel": 0}, {"type": "note_off", "time": 219, "note": 64, "velocity": 106, "channel": 0}, {"type": "note_on", "time": 57, "note": 66, "velocity": 106, "channel": 0}, {"type": "note_off", "time": 159, "note": 66, "velocity": 106, "channel": 0}, {"type": "note_on", "time": 26, "note": 61, "velocity": 103, "channel": 0}, {"type": "note_off", "time": 321, "note": 61, "velocity": 103, "channel": 0}, {"type": "note_on", "time": 26, "note": 64, "velocity": 108, "channel": 0}, {"type": "note_off", "time": 269, "note": 64, "velocity": 108, "channel": 0}, {"type": "note_on", "time": 13, "note": 66, "velocity": 104, "channel": 0}, {"type": "note_off", "time": 177, "note": 66, "velocity": 104, "channel": 0}, {"type": "note_on", "time": 19, "note": 69, "velocity": 103, "channel": 0}, {"type": "note_off", "time": 252, "note": 69, "velocity": 103, "channel": 0}, {"type": "note_on", "time": 7, "note": 71, "velocity": 103, "channel": 0}, {"type": "note_off", "time": 358, "note": 71, "velocity": 103, "channel": 0}, {"type": "note_on", "time": 15, "note": 73, "velocity": 98, "channel": 0}, {"type": "note_off", "time": 133, "note": 73, "velocity": 98, "channel": 0}, {"type": "note_on", "time": 23, "note": 76, "velocity": 103, "channel": 0}, {"type": "note_off", "time": 505, "note": 76, "velocity": 103, "channel": 0}, {"type": "note_on", "time": 38, "note": 71, "velocity": 106, "channel": 0}, {"type": "note_off", "time": 420, "note": 71, "velocity": 106, "channel": 0}, {"type": "note_on", "time": 26, "note": 76, "velocity": 94, "channel": 0}, {"type": "note_off", "time": 395, "note": 76, "velocity": 94, "channel": 0}, {"type": "note_on", "time": 17, "note": 69, "velocity": 103, "channel": 0}, {"type": "note_off", "time": 364, "note": 69, "velocity": 103, "channel": 0}, {"type": "note_on", "time": 7, "note": 64, "velocity": 96, "channel": 0}, {"type": "note_off", "time": 267, "note": 64, "velocity": 96, "channel": 0}, {"type": "note_on", "time": 17, "note": 71, "velocity": 96, "channel": 0}, {"type": "note_off", "time": 318, "note": 71, "velocity": 96, "channel": 0}, {"type": "note_on", "time": 117, "note": 76, "velocity": 90, "channel": 0}, {"type": "note_off", "time": 404, "note": 76, "velocity": 90, "channel": 0}, {"type": "note_on", "time": 23, "note": 69, "velocity": 102, "channel": 0}, {"type": "note_off", "time": 304, "note": 69, "velocity": 102, "channel": 0}, {"type": "note_on", "time": 53, "note": 71, "velocity": 96, "channel": 0}, {"type": "note_off", "time": 262, "note": 71, "velocity": 96, "channel": 0}, {"type": "note_on", "time": 52, "note": 73, "velocity": 97, "channel": 0}, {"type": "note_off", "time": 215, "note": 73, "velocity": 97, "channel": 0}, {"type": "note_on", "time": 33, "note": 76, "velocity": 104, "channel": 0}, {"type": "note_off", "time": 476, "note": 76, "velocity": 104, "channel": 0}, {"type": "note_on", "time": 10, "note": 71, "velocity": 102, "channel": 0}, {"type": "note_off", "time": 545, "note": 71, "velocity": 102, "channel": 0}, {"type": "note_on", "time": 796, "note": 53, "velocity": 96, "channel": 0}, {"type": "note_off", "time": 255, "note": 53, "velocity": 96, "channel": 0}, {"type": "note_on", "time": 17, "note": 54, "velocity": 95, "channel": 0}, {"type": "note_off", "time": 236, "note": 54, "velocity": 95, "channel": 0}, {"type": "note_on", "time": 7, "note": 56, "velocity": 95, "channel": 0}, {"type": "note_off", "time": 276, "note": 56, "velocity": 95, "channel": 0}, {"type": "note_on", "time": 102, "note": 58, "velocity": 96, "channel": 0}, {"type": "note_off", "time": 283, "note": 58, "velocity": 96, "channel": 0}, {"type": "note_on", "time": 86, "note": 60, "velocity": 101, "channel": 0}, {"type": "note_off", "time": 244, "note": 60, "velocity": 101, "channel": 0}, {"type": "note_on", "time": 70, "note": 63, "velocity": 108, "channel": 0}, {"type": "note_off", "time": 331, "note": 63, "velocity": 108, "channel": 0}, {"type": "note_on", "time": 118, "note": 65, "velocity": 104, "channel": 0}, {"type": "note_off", "time": 276, "note": 65, "velocity": 104, "channel": 0}, {"type": "note_on", "time": 23, "note": 66, "velocity": 103, "channel": 0}, {"type": "note_off", "time": 268, "note": 66, "velocity": 103, "channel": 0}, {"type": "note_on", "time": 63, "note": 68, "velocity": 108, "channel": 0}, {"type": "note_off", "time": 236, "note": 68, "velocity": 108, "channel": 0}, {"type": "note_on", "time": 31, "note": 70, "velocity": 104, "channel": 0}, {"type": "note_off", "time": 283, "note": 70, "velocity": 104, "channel": 0}, {"type": "note_on", "time": 41, "note": 72, "velocity": 107, "channel": 0}, {"type": "note_off", "time": 381, "note": 72, "velocity": 107, "channel": 0}, {"type": "note_on", "time": 56, "note": 74, "velocity": 100, "channel": 0}, {"type": "note_off", "time": 1929, "note": 74, "velocity": 100, "channel": 0}, {"type": "note_on", "time": 29, "note": 72, "velocity": 103, "channel": 0}, {"type": "note_off", "time": 276, "note": 72, "velocity": 103, "channel": 0}, {"type": "note_on", "time": 47, "note": 71, "velocity": 105, "channel": 0}, {"type": "note_off", "time": 291, "note": 71, "velocity": 105, "channel": 0}, {"type": "note_on", "time": 86, "note": 70, "velocity": 102, "channel": 0}, {"type": "note_off", "time": 567, "note": 70, "velocity": 102, "channel": 0}, {"type": "note_on", "time": 102, "note": 75, "velocity": 110, "channel": 0}, {"type": "note_off", "time": 410, "note": 75, "velocity": 110, "channel": 0}, {"type": "note_on", "time": 0, "note": 77, "velocity": 94, "channel": 0}, {"type": "note_off", "time": 6884, "note": 77, "velocity": 94, "channel": 0}, {"type": "note_on", "time": 1182, "note": 75, "velocity": 114, "channel": 0}, {"type": "note_off", "time": 546, "note": 75, "velocity": 114, "channel": 0}, {"type": "note_on", "time": 12, "note": 72, "velocity": 96, "channel": 0}, {"type": "note_off", "time": 431, "note": 72, "velocity": 96, "channel": 0}, {"type": "note_on", "time": 7, "note": 75, "velocity": 113, "channel": 0}, {"type": "note_off", "time": 518, "note": 75, "velocity": 113, "channel": 0}, {"type": "note_on", "time": 22, "note": 72, "velocity": 101, "channel": 0}, {"type": "note_off", "time": 511, "note": 72, "velocity": 101, "channel": 0}, {"type": "note_on", "time": 42, "note": 71, "velocity": 103, "channel": 0}, {"type": "note_off", "time": 692, "note": 71, "velocity": 103, "channel": 0}, {"type": "note_on", "time": 15, "note": 70, "velocity": 104, "channel": 0}, {"type": "note_off", "time": 396, "note": 70, "velocity": 104, "channel": 0}, {"type": "note_on", "time": 14, "note": 68, "velocity": 88, "channel": 0}, {"type": "note_off", "time": 409, "note": 68, "velocity": 88, "channel": 0}, {"type": "note_on", "time": 36, "note": 70, "velocity": 103, "channel": 0}, {"type": "note_off", "time": 462, "note": 70, "velocity": 103, "channel": 0}, {"type": "note_on", "time": 16, "note": 68, "velocity": 104, "channel": 0}, {"type": "note_off", "time": 496, "note": 68, "velocity": 104, "channel": 0}, {"type": "note_on", "time": 75, "note": 65, "velocity": 96, "channel": 0}, {"type": "note_off", "time": 1868, "note": 65, "velocity": 96, "channel": 0}, {"type": "note_on", "time": 2503, "note": 67, "velocity": 107, "channel": 0}, {"type": "note_off", "time": 571, "note": 67, "velocity": 107, "channel": 0}, {"type": "note_on", "time": 31, "note": 68, "velocity": 108, "channel": 0}, {"type": "note_off", "time": 441, "note": 68, "velocity": 108, "channel": 0}, {"type": "note_on", "time": 224, "note": 70, "velocity": 92, "channel": 0}, {"type": "note_off", "time": 212, "note": 70, "velocity": 92, "channel": 0}, {"type": "note_on", "time": 19, "note": 71, "velocity": 104, "channel": 0}, {"type": "note_off", "time": 559, "note": 71, "velocity": 104, "channel": 0}, {"type": "note_on", "time": 145, "note": 73, "velocity": 102, "channel": 0}, {"type": "note_off", "time": 524, "note": 73, "velocity": 102, "channel": 0}, {"type": "note_on", "time": 39, "note": 75, "velocity": 97, "channel": 0}, {"type": "note_off", "time": 701, "note": 75, "velocity": 97, "channel": 0}, {"type": "note_on", "time": 35, "note": 72, "velocity": 90, "channel": 0}, {"type": "note_off", "time": 398, "note": 72, "velocity": 90, "channel": 0}, {"type": "note_on", "time": 39, "note": 73, "velocity": 99, "channel": 0}, {"type": "note_off", "time": 528, "note": 73, "velocity": 99, "channel": 0}, {"type": "note_on", "time": 145, "note": 71, "velocity": 101, "channel": 0}, {"type": "note_off", "time": 374, "note": 71, "velocity": 101, "channel": 0}, {"type": "note_on", "time": 201, "note": 72, "velocity": 102, "channel": 0}, {"type": "note_off", "time": 615, "note": 72, "velocity": 102, "channel": 0}, {"type": "note_on", "time": 47, "note": 70, "velocity": 82, "channel": 0}, {"type": "note_off", "time": 406, "note": 70, "velocity": 82, "channel": 0}, {"type": "note_on", "time": 51, "note": 71, "velocity": 105, "channel": 0}, {"type": "note_off", "time": 626, "note": 71, "velocity": 105, "channel": 0}, {"type": "note_on", "time": 709, "note": 68, "velocity": 94, "channel": 0}, {"type": "note_off", "time": 504, "note": 68, "velocity": 94, "channel": 0}, {"type": "note_on", "time": 67, "note": 71, "velocity": 105, "channel": 0}, {"type": "note_off", "time": 524, "note": 71, "velocity": 105, "channel": 0}, {"type": "note_on", "time": 63, "note": 70, "velocity": 105, "channel": 0}, {"type": "note_off", "time": 473, "note": 70, "velocity": 105, "channel": 0}, {"type": "note_on", "time": 31, "note": 68, "velocity": 106, "channel": 0}, {"type": "note_off", "time": 587, "note": 68, "velocity": 106, "channel": 0}, {"type": "note_on", "time": 185, "note": 67, "velocity": 103, "channel": 0}, {"type": "note_off", "time": 441, "note": 67, "velocity": 103, "channel": 0}, {"type": "note_on", "time": 23, "note": 65, "velocity": 101, "channel": 0}, {"type": "note_off", "time": 465, "note": 65, "velocity": 101, "channel": 0}, {"type": "note_on", "time": 39, "note": 62, "velocity": 76, "channel": 0}, {"type": "note_off", "time": 102, "note": 62, "velocity": 76, "channel": 0}, {"type": "note_on", "time": 31, "note": 64, "velocity": 105, "channel": 0}, {"type": "note_off", "time": 492, "note": 64, "velocity": 105, "channel": 0}, {"type": "note_on", "time": 94, "note": 62, "velocity": 106, "channel": 0}, {"type": "note_off", "time": 504, "note": 62, "velocity": 106, "channel": 0}, {"type": "note_on", "time": 82, "note": 60, "velocity": 99, "channel": 0}, {"type": "note_off", "time": 441, "note": 60, "velocity": 99, "channel": 0}, {"type": "note_on", "time": 39, "note": 59, "velocity": 90, "channel": 0}, {"type": "note_off", "time": 713, "note": 59, "velocity": 90, "channel": 0}, {"type": "note_on", "time": 63, "note": 58, "velocity": 96, "channel": 0}, {"type": "note_off", "time": 437, "note": 58, "velocity": 96, "channel": 0}, {"type": "note_on", "time": 201, "note": 60, "velocity": 101, "channel": 0}, {"type": "note_off", "time": 390, "note": 60, "velocity": 101, "channel": 0}, {"type": "note_on", "time": 114, "note": 61, "velocity": 99, "channel": 0}, {"type": "note_off", "time": 555, "note": 61, "velocity": 99, "channel": 0}, {"type": "note_on", "time": 134, "note": 63, "velocity": 110, "channel": 0}, {"type": "note_off", "time": 459, "note": 63, "velocity": 110, "channel": 0}, {"type": "note_on", "time": 0, "note": 64, "velocity": 110, "channel": 0}, {"type": "note_off", "time": 686, "note": 64, "velocity": 110, "channel": 0}, {"type": "note_on", "time": 99, "note": 66, "velocity": 101, "channel": 0}, {"type": "note_off", "time": 611, "note": 66, "velocity": 101, "channel": 0}, {"type": "note_on", "time": 28, "note": 67, "velocity": 104, "channel": 0}, {"type": "note_off", "time": 484, "note": 67, "velocity": 104, "channel": 0}, {"type": "note_on", "time": 187, "note": 69, "velocity": 102, "channel": 0}, {"type": "note_off", "time": 484, "note": 69, "velocity": 102, "channel": 0}, {"type": "note_on", "time": 98, "note": 70, "velocity": 100, "channel": 0}, {"type": "note_off", "time": 459, "note": 70, "velocity": 100, "channel": 0}, {"type": "note_on", "time": 0, "note": 72, "velocity": 100, "channel": 0}, {"type": "note_off", "time": 587, "note": 72, "velocity": 100, "channel": 0}, {"type": "note_on", "time": 318, "note": 75, "velocity": 90, "channel": 0}, {"type": "note_off", "time": 611, "note": 75, "velocity": 90, "channel": 0}, {"type": "note_on", "time": 402, "note": 64, "velocity": 107, "channel": 0}, {"type": "note_off", "time": 268, "note": 64, "velocity": 107, "channel": 0}, {"type": "note_on", "time": 181, "note": 72, "velocity": 100, "channel": 0}, {"type": "note_off", "time": 370, "note": 72, "velocity": 100, "channel": 0}, {"type": "note_on", "time": 256, "note": 61, "velocity": 91, "channel": 0}, {"type": "note_off", "time": 378, "note": 61, "velocity": 91, "channel": 0}, {"type": "note_on", "time": 138, "note": 69, "velocity": 94, "channel": 0}, {"type": "note_off", "time": 433, "note": 69, "velocity": 94, "channel": 0}, {"type": "note_on", "time": 173, "note": 58, "velocity": 95, "channel": 0}, {"type": "note_off", "time": 283, "note": 58, "velocity": 95, "channel": 0}, {"type": "note_on", "time": 19, "note": 66, "velocity": 88, "channel": 0}, {"type": "note_off", "time": 575, "note": 66, "velocity": 88, "channel": 0}, {"type": "note_on", "time": 153, "note": 55, "velocity": 95, "channel": 0}, {"type": "note_off", "time": 307, "note": 55, "velocity": 95, "channel": 0}, {"type": "note_on", "time": 7, "note": 63, "velocity": 97, "channel": 0}, {"type": "note_off", "time": 354, "note": 63, "velocity": 97, "channel": 0}, {"type": "note_on", "time": 358, "note": 52, "velocity": 84, "channel": 0}, {"type": "note_off", "time": 820, "note": 52, "velocity": 84, "channel": 0}, {"type": "note_on", "time": 2070, "note": 60, "velocity": 86, "channel": 0}, {"type": "note_off", "time": 481, "note": 60, "velocity": 86, "channel": 0}, {"type": "note_on", "time": 27, "note": 63, "velocity": 95, "channel": 0}, {"type": "note_off", "time": 737, "note": 63, "velocity": 95, "channel": 0}, {"type": "note_on", "time": 101, "note": 65, "velocity": 105, "channel": 0}, {"type": "note_off", "time": 437, "note": 65, "velocity": 105, "channel": 0}, {"type": "note_on", "time": 145, "note": 68, "velocity": 105, "channel": 0}, {"type": "note_off", "time": 583, "note": 68, "velocity": 105, "channel": 0}, {"type": "note_on", "time": 230, "note": 69, "velocity": 98, "channel": 0}, {"type": "note_off", "time": 315, "note": 69, "velocity": 98, "channel": 0}, {"type": "note_on", "time": 47, "note": 72, "velocity": 104, "channel": 0}, {"type": "note_off", "time": 784, "note": 72, "velocity": 104, "channel": 0}, {"type": "note_on", "time": 55, "note": 70, "velocity": 95, "channel": 0}, {"type": "note_off", "time": 2823, "note": 70, "velocity": 95, "channel": 0}, {"type": "note_on", "time": 27, "note": 68, "velocity": 96, "channel": 0}, {"type": "note_off", "time": 922, "note": 68, "velocity": 96, "channel": 0}, {"type": "note_on", "time": 23, "note": 67, "velocity": 97, "channel": 0}, {"type": "note_off", "time": 362, "note": 67, "velocity": 97, "channel": 0}, {"type": "note_on", "time": 31, "note": 65, "velocity": 95, "channel": 0}, {"type": "note_off", "time": 910, "note": 65, "velocity": 95, "channel": 0}, {"type": "note_on", "time": 27, "note": 63, "velocity": 100, "channel": 0}, {"type": "note_off", "time": 599, "note": 63, "velocity": 100, "channel": 0}, {"type": "note_on", "time": 31, "note": 65, "velocity": 88, "channel": 0}, {"type": "note_off", "time": 583, "note": 65, "velocity": 88, "channel": 0}, {"type": "note_on", "time": 86, "note": 63, "velocity": 94, "channel": 0}, {"type": "note_off", "time": 1403, "note": 63, "velocity": 94, "channel": 0}, {"type": "note_on", "time": 5379, "note": 46, "velocity": 102, "channel": 0}, {"type": "note_off", "time": 246, "note": 46, "velocity": 102, "channel": 0}, {"type": "note_on", "time": 0, "note": 49, "velocity": 92, "channel": 0}, {"type": "note_off", "time": 161, "note": 49, "velocity": 92, "channel": 0}, {"type": "note_on", "time": 0, "note": 51, "velocity": 95, "channel": 0}, {"type": "note_off", "time": 307, "note": 51, "velocity": 95, "channel": 0}, {"type": "note_on", "time": 0, "note": 57, "velocity": 92, "channel": 0}, {"type": "note_off", "time": 370, "note": 57, "velocity": 92, "channel": 0}, {"type": "note_on", "time": 3, "note": 55, "velocity": 95, "channel": 0}, {"type": "note_off", "time": 264, "note": 55, "velocity": 95, "channel": 0}, {"type": "note_on", "time": 27, "note": 53, "velocity": 101, "channel": 0}, {"type": "note_off", "time": 228, "note": 53, "velocity": 101, "channel": 0}, {"type": "note_on", "time": 59, "note": 52, "velocity": 103, "channel": 0}, {"type": "note_off", "time": 157, "note": 52, "velocity": 103, "channel": 0}, {"type": "note_on", "time": 51, "note": 51, "velocity": 101, "channel": 0}, {"type": "note_off", "time": 212, "note": 51, "velocity": 101, "channel": 0}, {"type": "note_on", "time": 59, "note": 53, "velocity": 102, "channel": 0}, {"type": "note_off", "time": 216, "note": 53, "velocity": 102, "channel": 0}, {"type": "note_on", "time": 31, "note": 55, "velocity": 98, "channel": 0}, {"type": "note_off", "time": 201, "note": 55, "velocity": 98, "channel": 0}, {"type": "note_on", "time": 23, "note": 58, "velocity": 99, "channel": 0}, {"type": "note_off", "time": 220, "note": 58, "velocity": 99, "channel": 0}, {"type": "note_on", "time": 23, "note": 63, "velocity": 102, "channel": 0}, {"type": "note_off", "time": 216, "note": 63, "velocity": 102, "channel": 0}, {"type": "note_on", "time": 47, "note": 60, "velocity": 100, "channel": 0}, {"type": "note_off", "time": 311, "note": 60, "velocity": 100, "channel": 0}, {"type": "note_on", "time": 39, "note": 59, "velocity": 97, "channel": 0}, {"type": "note_off", "time": 232, "note": 59, "velocity": 97, "channel": 0}, {"type": "note_on", "time": 39, "note": 58, "velocity": 98, "channel": 0}, {"type": "note_off", "time": 283, "note": 58, "velocity": 98, "channel": 0}, {"type": "note_on", "time": 3, "note": 57, "velocity": 96, "channel": 0}, {"type": "note_off", "time": 279, "note": 57, "velocity": 96, "channel": 0}, {"type": "note_on", "time": 3, "note": 59, "velocity": 94, "channel": 0}, {"type": "note_off", "time": 335, "note": 59, "velocity": 94, "channel": 0}, {"type": "note_on", "time": 47, "note": 52, "velocity": 105, "channel": 0}, {"type": "note_off", "time": 279, "note": 52, "velocity": 105, "channel": 0}, {"type": "note_on", "time": 19, "note": 63, "velocity": 106, "channel": 0}, {"type": "note_off", "time": 394, "note": 63, "velocity": 106, "channel": 0}, {"type": "note_on", "time": 0, "note": 66, "velocity": 99, "channel": 0}, {"type": "note_off", "time": 323, "note": 66, "velocity": 99, "channel": 0}, {"type": "note_on", "time": 31, "note": 65, "velocity": 99, "channel": 0}, {"type": "note_off", "time": 398, "note": 65, "velocity": 99, "channel": 0}, {"type": "note_on", "time": 141, "note": 69, "velocity": 92, "channel": 0}, {"type": "note_off", "time": 283, "note": 69, "velocity": 92, "channel": 0}, {"type": "note_on", "time": 7, "note": 67, "velocity": 100, "channel": 0}, {"type": "note_off", "time": 295, "note": 67, "velocity": 100, "channel": 0}, {"type": "note_on", "time": 15, "note": 70, "velocity": 102, "channel": 0}, {"type": "note_off", "time": 335, "note": 70, "velocity": 102, "channel": 0}, {"type": "note_on", "time": 35, "note": 73, "velocity": 98, "channel": 0}, {"type": "note_off", "time": 279, "note": 73, "velocity": 98, "channel": 0}, {"type": "note_on", "time": 31, "note": 69, "velocity": 99, "channel": 0}, {"type": "note_off", "time": 244, "note": 69, "velocity": 99, "channel": 0}, {"type": "note_on", "time": 15, "note": 71, "velocity": 102, "channel": 0}, {"type": "note_off", "time": 157, "note": 71, "velocity": 102, "channel": 0}, {"type": "note_on", "time": 23, "note": 73, "velocity": 100, "channel": 0}, {"type": "note_off", "time": 256, "note": 73, "velocity": 100, "channel": 0}, {"type": "note_on", "time": 23, "note": 71, "velocity": 104, "channel": 0}, {"type": "note_off", "time": 193, "note": 71, "velocity": 104, "channel": 0}, {"type": "note_on", "time": 7, "note": 69, "velocity": 104, "channel": 0}, {"type": "note_off", "time": 260, "note": 69, "velocity": 104, "channel": 0}, {"type": "note_on", "time": 23, "note": 68, "velocity": 104, "channel": 0}, {"type": "note_off", "time": 315, "note": 68, "velocity": 104, "channel": 0}, {"type": "note_on", "time": 19, "note": 66, "velocity": 100, "channel": 0}, {"type": "note_off", "time": 256, "note": 66, "velocity": 100, "channel": 0}, {"type": "note_on", "time": 55, "note": 65, "velocity": 100, "channel": 0}, {"type": "note_off", "time": 272, "note": 65, "velocity": 100, "channel": 0}, {"type": "note_on", "time": 43, "note": 64, "velocity": 103, "channel": 0}, {"type": "note_off", "time": 220, "note": 64, "velocity": 103, "channel": 0}, {"type": "note_on", "time": 35, "note": 63, "velocity": 104, "channel": 0}, {"type": "note_off", "time": 201, "note": 63, "velocity": 104, "channel": 0}, {"type": "note_on", "time": 63, "note": 62, "velocity": 103, "channel": 0}, {"type": "note_off", "time": 189, "note": 62, "velocity": 103, "channel": 0}, {"type": "note_on", "time": 70, "note": 61, "velocity": 94, "channel": 0}, {"type": "note_off", "time": 311, "note": 61, "velocity": 94, "channel": 0}, {"type": "note_on", "time": 63, "note": 59, "velocity": 91, "channel": 0}, {"type": "note_off", "time": 303, "note": 59, "velocity": 91, "channel": 0}, {"type": "note_on", "time": 55, "note": 58, "velocity": 90, "channel": 0}, {"type": "note_off", "time": 1951, "note": 58, "velocity": 90, "channel": 0}, {"type": "note_on", "time": 86, "note": 53, "velocity": 96, "channel": 0}, {"type": "note_off", "time": 559, "note": 53, "velocity": 96, "channel": 0}, {"type": "note_on", "time": 55, "note": 56, "velocity": 95, "channel": 0}, {"type": "note_off", "time": 555, "note": 56, "velocity": 95, "channel": 0}, {"type": "note_on", "time": 67, "note": 58, "velocity": 98, "channel": 0}, {"type": "note_off", "time": 902, "note": 58, "velocity": 98, "channel": 0}, {"type": "note_on", "time": 1695, "note": 68, "velocity": 110, "channel": 0}, {"type": "note_off", "time": 311, "note": 68, "velocity": 110, "channel": 0}, {"type": "note_on", "time": 53, "note": 67, "velocity": 107, "channel": 0}, {"type": "note_off", "time": 300, "note": 67, "velocity": 107, "channel": 0}, {"type": "note_on", "time": 75, "note": 66, "velocity": 105, "channel": 0}, {"type": "note_off", "time": 238, "note": 66, "velocity": 105, "channel": 0}, {"type": "note_on", "time": 64, "note": 65, "velocity": 106, "channel": 0}, {"type": "note_off", "time": 644, "note": 65, "velocity": 106, "channel": 0}, {"type": "note_on", "time": 89, "note": 61, "velocity": 97, "channel": 0}, {"type": "note_off", "time": 271, "note": 61, "velocity": 97, "channel": 0}, {"type": "note_on", "time": 72, "note": 64, "velocity": 112, "channel": 0}, {"type": "note_off", "time": 574, "note": 64, "velocity": 112, "channel": 0}, {"type": "note_on", "time": 38, "note": 67, "velocity": 104, "channel": 0}, {"type": "note_off", "time": 555, "note": 67, "velocity": 104, "channel": 0}, {"type": "note_on", "time": 279, "note": 68, "velocity": 106, "channel": 0}, {"type": "note_off", "time": 559, "note": 68, "velocity": 106, "channel": 0}, {"type": "note_on", "time": 47, "note": 72, "velocity": 101, "channel": 0}, {"type": "note_off", "time": 603, "note": 72, "velocity": 101, "channel": 0}, {"type": "note_on", "time": 59, "note": 76, "velocity": 106, "channel": 0}, {"type": "note_off", "time": 800, "note": 76, "velocity": 106, "channel": 0}, {"type": "note_on", "time": 130, "note": 79, "velocity": 116, "channel": 0}, {"type": "note_off", "time": 3895, "note": 79, "velocity": 116, "channel": 0}, {"type": "note_on", "time": 2888, "note": 74, "velocity": 84, "channel": 0}, {"type": "note_off", "time": 190, "note": 74, "velocity": 84, "channel": 0}, {"type": "note_on", "time": 78, "note": 75, "velocity": 106, "channel": 0}, {"type": "note_off", "time": 269, "note": 75, "velocity": 106, "channel": 0}, {"type": "note_on", "time": 0, "note": 77, "velocity": 101, "channel": 0}, {"type": "note_off", "time": 841, "note": 77, "velocity": 101, "channel": 0}, {"type": "note_on", "time": 257, "note": 75, "velocity": 105, "channel": 0}, {"type": "note_off", "time": 1985, "note": 75, "velocity": 105, "channel": 0}, {"type": "note_on", "time": 628, "note": 69, "velocity": 90, "channel": 0}, {"type": "note_off", "time": 314, "note": 69, "velocity": 90, "channel": 0}, {"type": "note_on", "time": 179, "note": 71, "velocity": 104, "channel": 0}, {"type": "note_off", "time": 818, "note": 71, "velocity": 104, "channel": 0}, {"type": "note_on", "time": 44, "note": 70, "velocity": 102, "channel": 0}, {"type": "note_off", "time": 3185, "note": 70, "velocity": 102, "channel": 0}, {"type": "note_on", "time": 145, "note": 68, "velocity": 104, "channel": 0}, {"type": "note_off", "time": 594, "note": 68, "velocity": 104, "channel": 0}, {"type": "note_on", "time": 101, "note": 65, "velocity": 100, "channel": 0}, {"type": "note_off", "time": 410, "note": 65, "velocity": 100, "channel": 0}, {"type": "note_on", "time": 220, "note": 63, "velocity": 103, "channel": 0}, {"type": "note_off", "time": 433, "note": 63, "velocity": 103, "channel": 0}, {"type": "note_on", "time": 94, "note": 60, "velocity": 95, "channel": 0}, {"type": "note_off", "time": 670, "note": 60, "velocity": 95, "channel": 0}, {"type": "note_on", "time": 134, "note": 59, "velocity": 89, "channel": 0}, {"type": "note_off", "time": 457, "note": 59, "velocity": 89, "channel": 0}, {"type": "note_on", "time": 63, "note": 58, "velocity": 89, "channel": 0}, {"type": "note_off", "time": 441, "note": 58, "velocity": 89, "channel": 0}, {"type": "note_on", "time": 110, "note": 56, "velocity": 87, "channel": 0}, {"type": "note_off", "time": 575, "note": 56, "velocity": 87, "channel": 0}, {"type": "note_on", "time": 23, "note": 53, "velocity": 86, "channel": 0}, {"type": "note_off", "time": 646, "note": 53, "velocity": 86, "channel": 0}, {"type": "note_on", "time": 47, "note": 51, "velocity": 85, "channel": 0}, {"type": "note_off", "time": 465, "note": 51, "velocity": 85, "channel": 0}, {"type": "note_on", "time": 78, "note": 56, "velocity": 85, "channel": 0}, {"type": "note_off", "time": 488, "note": 56, "velocity": 85, "channel": 0}, {"type": "note_on", "time": 23, "note": 53, "velocity": 83, "channel": 0}, {"type": "note_off", "time": 2294, "note": 53, "velocity": 83, "channel": 0}, {"type": "note_on", "time": 5764, "note": 66, "velocity": 92, "channel": 0}, {"type": "note_off", "time": 378, "note": 66, "velocity": 92, "channel": 0}, {"type": "note_on", "time": 63, "note": 65, "velocity": 97, "channel": 0}, {"type": "note_off", "time": 228, "note": 65, "velocity": 97, "channel": 0}, {"type": "note_on", "time": 31, "note": 63, "velocity": 107, "channel": 0}, {"type": "note_off", "time": 512, "note": 63, "velocity": 107, "channel": 0}, {"type": "note_on", "time": 55, "note": 62, "velocity": 113, "channel": 0}, {"type": "note_off", "time": 559, "note": 62, "velocity": 113, "channel": 0}, {"type": "note_on", "time": 63, "note": 61, "velocity": 109, "channel": 0}, {"type": "note_off", "time": 496, "note": 61, "velocity": 109, "channel": 0}, {"type": "note_on", "time": 118, "note": 60, "velocity": 104, "channel": 0}, {"type": "note_off", "time": 481, "note": 60, "velocity": 104, "channel": 0}, {"type": "note_on", "time": 78, "note": 58, "velocity": 97, "channel": 0}, {"type": "note_off", "time": 488, "note": 58, "velocity": 97, "channel": 0}, {"type": "note_on", "time": 110, "note": 55, "velocity": 95, "channel": 0}, {"type": "note_off", "time": 512, "note": 55, "velocity": 95, "channel": 0}, {"type": "note_on", "time": 268, "note": 51, "velocity": 96, "channel": 0}, {"type": "note_off", "time": 386, "note": 51, "velocity": 96, "channel": 0}, {"type": "note_on", "time": 31, "note": 57, "velocity": 94, "channel": 0}, {"type": "note_off", "time": 552, "note": 57, "velocity": 94, "channel": 0}, {"type": "note_on", "time": 47, "note": 58, "velocity": 93, "channel": 0}, {"type": "note_off", "time": 607, "note": 58, "velocity": 93, "channel": 0}, {"type": "note_on", "time": 141, "note": 60, "velocity": 99, "channel": 0}, {"type": "note_off", "time": 441, "note": 60, "velocity": 99, "channel": 0}, {"type": "note_on", "time": 299, "note": 62, "velocity": 101, "channel": 0}, {"type": "note_off", "time": 496, "note": 62, "velocity": 101, "channel": 0}, {"type": "note_on", "time": 496, "note": 60, "velocity": 93, "channel": 0}, {"type": "note_off", "time": 1309, "note": 60, "velocity": 93, "channel": 0}, {"type": "note_on", "time": 47, "note": 58, "velocity": 85, "channel": 0}, {"type": "note_off", "time": 307, "note": 58, "velocity": 85, "channel": 0}, {"type": "note_on", "time": 102, "note": 55, "velocity": 87, "channel": 0}, {"type": "note_off", "time": 481, "note": 55, "velocity": 87, "channel": 0}, {"type": "note_on", "time": 102, "note": 50, "velocity": 80, "channel": 0}, {"type": "note_off", "time": 1088, "note": 50, "velocity": 80, "channel": 0}, {"type": "end_of_track", "time": 0}]]}