{"ticks_per_beat": 192, "tracks": [[{"type": "track_name", "name": "Melody", "time": 0}, {"type": "set_tempo", "tempo": 211267, "time": 0}, {"type": "key_signature", "key": "Bb", "time": 0}, {"type": "time_signature", "numerator": 4, "denominator": 4, "clocks_per_click": 24, "notated_32nd_notes_per_beat": 8, "time": 0}, {"type": "note_on", "time": 3614, "note": 57, "velocity": 107, "channel": 0}, {"type": "note_off", "time": 118, "note": 57, "velocity": 107, "channel": 0}, {"type": "note_on", "time": 0, "note": 55, "velocity": 102, "channel": 0}, {"type": "note_on", "time": 92, "note": 53, "velocity": 103, "channel": 0}, {"type": "note_off", "time": 0, "note": 55, "velocity": 102, "channel": 0}, {"type": "note_off", "time": 107, "note": 53, "velocity": 103, "channel": 0}, {"type": "note_on", "time": 3, "note": 52, "velocity": 106, "channel": 0}, {"type": "note_off", "time": 89, "note": 52, "velocity": 106, "channel": 0}, {"type": "note_on", "time": 11, "note": 51, "velocity": 105, "channel": 0}, {"type": "note_off", "time": 89, "note": 51, "velocity": 105, "channel": 0}, {"type": "note_on", "time": 22, "note": 53, "velocity": 109, "channel": 0}, {"type": "note_off", "time": 70, "note": 53, "velocity": 109, "channel": 0}, {"type": "note_on", "time": 11, "note": 55, "velocity": 97, "channel": 0}, {"type": "note_off", "time": 74, "note": 55, "velocity": 97, "channel": 0}, {"type": "note_on", "time": 7, "note": 58, "velocity": 97, "channel": 0}, {"type": "note_off", "time": 44, "note": 58, "velocity": 97, "channel": 0}, {"type": "note_on", "time": 18, "note": 62, "velocity": 110, "channel": 0}, {"type": "note_off", "time": 48, "note": 62, "velocity": 110, "channel": 0}, {"type": "note_on", "time": 7, "note": 65, "velocity": 115, "channel": 0}, {"type": "note_off", "time": 77, "note": 65, "velocity": 115, "channel": 0}, {"type": "note_on", "time": 22, "note": 61, "velocity": 113, "channel": 0}, {"type": "note_off", "time": 85, "note": 61, "velocity": 113, "channel": 0}, {"type": "note_on", "time": 0, "note": 57, "velocity": 104, "channel": 0}, {"type": "note_off", "time": 77, "note": 57, "velocity": 104, "channel": 0}, {"type": "note_on", "time": 7, "note": 56, "velocity": 105, "channel": 0}, {"type": "note_on", "time": 89, "note": 58, "velocity": 108, "channel": 0}, {"type": "note_off", "time": 0, "note": 56, "velocity": 105, "channel": 0}, {"type": "note_off", "time": 419, "note": 58, "velocity": 108, "channel": 0}, {"type": "note_on", "time": 14, "note": 57, "velocity": 112, "channel": 0}, {"type": "note_off", "time": 85, "note": 57, "velocity": 112, "channel": 0}, {"type": "note_on", "time": 3, "note": 59, "velocity": 112, "channel": 0}, {"type": "note_off", "time": 300, "note": 59, "velocity": 112, "channel": 0}, {"type": "note_on", "time": 25, "note": 58, "velocity": 96, "channel": 0}, {"type": "note_off", "time": 114, "note": 58, "velocity": 96, "channel": 0}, {"type": "note_on", "time": 1072, "note": 59, "velocity": 97, "channel": 0}, {"type": "note_off", "time": 129, "note": 59, "velocity": 97, "channel": 0}, {"type": "note_on", "time": 3, "note": 61, "velocity": 113, "channel": 0}, {"type": "note_off", "time": 100, "note": 61, "velocity": 113, "channel": 0}, {"type": "note_on", "time": 103, "note": 63, "velocity": 125, "channel": 0}, {"type": "note_off", "time": 126, "note": 63, "velocity": 125, "channel": 0}, {"type": "note_on", "time": 22, "note": 64, "velocity": 124, "channel": 0}, {"type": "note_off", "time": 281, "note": 64, "velocity": 124, "channel": 0}, {"type": "note_on", "time": 59, "note": 64, "velocity": 121, "channel": 0}, {"type": "note_off", "time": 152, "note": 64, "velocity": 121, "channel": 0}, {"type": "note_on", "time": 0, "note": 66, "velocity": 112, "channel": 0}, {"type": "note_off", "time": 129, "note": 66, "velocity": 112, "channel": 0}, {"type": "note_on", "time": 29, "note": 68, "velocity": 117, "channel": 0}, {"type": "note_off", "time": 144, "note": 68, "velocity": 117, "channel": 0}, {"type": "note_on", "time": 40, "note": 69, "velocity": 115, "channel": 0}, {"type": "note_off", "time": 1038, "note": 69, "velocity": 115, "channel": 0}, {"type": "note_on", "time": 3, "note": 66, "velocity": 108, "channel": 0}, {"type": "note_off", "time": 293, "note": 66, "velocity": 108, "channel": 0}, {"type": "note_on", "time": 22, "note": 65, "velocity": 105, "channel": 0}, {"type": "note_off", "time": 92, "note": 65, "velocity": 105, "channel": 0}, {"type": "note_on", "time": 1914, "note": 55, "velocity": 92, "channel": 0}, {"type": "note_off", "time": 118, "note": 55, "velocity": 92, "channel": 0}, {"type": "note_on", "time": 7, "note": 57, "velocity": 104, "channel": 0}, {"type": "note_off", "time": 63, "note": 57, "velocity": 104, "channel": 0}, {"type": "note_on", "time": 44, "note": 60, "velocity": 112, "channel": 0}, {"type": "note_off", "time": 92, "note": 60, "velocity": 112, "channel": 0}, {"type": "note_on", "time": 18, "note": 61, "velocity": 110, "channel": 0}, {"type": "note_off", "time": 126, "note": 61, "velocity": 110, "channel": 0}, {"type": "note_on", "time": 11, "note": 63, "velocity": 122, "channel": 0}, {"type": "note_off", "time": 137, "note": 63, "velocity": 122, "channel": 0}, {"type": "note_on", "time": 0, "note": 65, "velocity": 116, "channel": 0}, {"type": "note_off", "time": 114, "note": 65, "velocity": 116, "channel": 0}, {"type": "note_on", "time": 44, "note": 67, "velocity": 113, "channel": 0}, {"type": "note_off", "time": 100, "note": 67, "velocity": 113, "channel": 0}, {"type": "note_on", "time": 11, "note": 69, "velocity": 117, "channel": 0}, {"type": "note_off", "time": 140, "note": 69, "velocity": 117, "channel": 0}, {"type": "note_on", "time": 0, "note": 70, "velocity": 115, "channel": 0}, {"type": "note_off", "time": 152, "note": 70, "velocity": 115, "channel": 0}, {"type": "note_on", "time": 18, "note": 72, "velocity": 114, "channel": 0}, {"type": "note_off", "time": 1064, "note": 72, "velocity": 114, "channel": 0}, {"type": "note_on", "time": 14, "note": 65, "velocity": 101, "channel": 0}, {"type": "note_off", "time": 114, "note": 65, "velocity": 101, "channel": 0}, {"type": "note_on", "time": 1680, "note": 59, "velocity": 105, "channel": 0}, {"type": "note_off", "time": 85, "note": 59, "velocity": 105, "channel": 0}, {"type": "note_on", "time": 14, "note": 61, "velocity": 103, "channel": 0}, {"type": "note_off", "time": 85, "note": 61, "velocity": 103, "channel": 0}, {"type": "note_on", "time": 29, "note": 63, "velocity": 121, "channel": 0}, {"type": "note_off", "time": 92, "note": 63, "velocity": 121, "channel": 0}, {"type": "note_on", "time": 11, "note": 66, "velocity": 113, "channel": 0}, {"type": "note_off", "time": 92, "note": 66, "velocity": 113, "channel": 0}, {"type": "note_on", "time": 37, "note": 68, "velocity": 116, "channel": 0}, {"type": "note_off", "time": 89, "note": 68, "velocity": 116, "channel": 0}, {"type": "note_on", "time": 11, "note": 69, "velocity": 103, "channel": 0}, {"type": "note_off", "time": 70, "note": 69, "velocity": 103, "channel": 0}, {"type": "note_on", "time": 11, "note": 71, "velocity": 118, "channel": 0}, {"type": "note_off", "time": 103, "note": 71, "velocity": 118, "channel": 0}, {"type": "note_on", "time": 7, "note": 73, "velocity": 112, "channel": 0}, {"type": "note_off", "time": 103, "note": 73, "velocity": 112, "channel": 0}, {"type": "note_on", "time": 11, "note": 75, "velocity": 112, "channel": 0}, {"type": "note_off", "time": 519, "note": 75, "velocity": 112, "channel": 0}, {"type": "note_on", "time": 18, "note": 73, "velocity": 110, "channel": 0}, {"type": "note_off", "time": 81, "note": 73, "velocity": 110, "channel": 0}, {"type": "note_on", "time": 33, "note": 71, "velocity": 115, "channel": 0}, {"type": "note_off", "time": 103, "note": 71, "velocity": 115, "channel": 0}, {"type": "note_on", "time": 14, "note": 68, "velocity": 112, "channel": 0}, {"type": "note_off", "time": 715, "note": 68, "velocity": 112, "channel": 0}, {"type": "note_on", "time": 14, "note": 66, "velocity": 110, "channel": 0}, {"type": "note_off", "time": 103, "note": 66, "velocity": 110, "channel": 0}, {"type": "note_on", "time": 0, "note": 63, "velocity": 115, "channel": 0}, {"type": "note_off", "time": 92, "note": 63, "velocity": 115, "channel": 0}, {"type": "note_on", "time": 18, "note": 59, "velocity": 103, "channel": 0}, {"type": "note_off", "time": 122, "note": 59, "velocity": 103, "channel": 0}, {"type": "note_on", "time": 18, "note": 56, "velocity": 101, "channel": 0}, {"type": "note_off", "time": 77, "note": 56, "velocity": 101, "channel": 0}, {"type": "note_on", "time": 14, "note": 61, "velocity": 112, "channel": 0}, {"type": "note_off", "time": 118, "note": 61, "velocity": 112, "channel": 0}, {"type": "note_on", "time": 0, "note": 64, "velocity": 117, "channel": 0}, {"type": "note_off", "time": 137, "note": 64, "velocity": 117, "channel": 0}, {"type": "note_on", "time": 11, "note": 63, "velocity": 119, "channel": 0}, {"type": "note_off", "time": 233, "note": 63, "velocity": 119, "channel": 0}, {"type": "note_on", "time": 22, "note": 62, "velocity": 105, "channel": 0}, {"type": "note_off", "time": 70, "note": 62, "velocity": 105, "channel": 0}, {"type": "note_on", "time": 552, "note": 64, "velocity": 121, "channel": 0}, {"type": "note_off", "time": 100, "note": 64, "velocity": 121, "channel": 0}, {"type": "note_on", "time": 0, "note": 61, "velocity": 113, "channel": 0}, {"type": "note_off", "time": 100, "note": 61, "velocity": 113, "channel": 0}, {"type": "note_on", "time": 0, "note": 57, "velocity": 104, "channel": 0}, {"type": "note_off", "time": 85, "note": 57, "velocity": 104, "channel": 0}, {"type": "note_on", "time": 3, "note": 54, "velocity": 97, "channel": 0}, {"type": "note_off", "time": 81, "note": 54, "velocity": 97, "channel": 0}, {"type": "note_on", "time": 0, "note": 63, "velocity": 122, "channel": 0}, {"type": "note_off", "time": 92, "note": 63, "velocity": 122, "channel": 0}, {"type": "note_on", "time": 18, "note": 61, "velocity": 110, "channel": 0}, {"type": "note_off", "time": 81, "note": 61, "velocity": 110, "channel": 0}, {"type": "note_on", "time": 0, "note": 59, "velocity": 107, "channel": 0}, {"type": "note_off", "time": 74, "note": 59, "velocity": 107, "channel": 0}, {"type": "note_on", "time": 25, "note": 57, "velocity": 110, "channel": 0}, {"type": "note_off", "time": 92, "note": 57, "velocity": 110, "channel": 0}, {"type": "note_on", "time": 3, "note": 56, "velocity": 109, "channel": 0}, {"type": "note_off", "time": 92, "note": 56, "velocity": 109, "channel": 0}, {"type": "note_on", "time": 18, "note": 54, "velocity": 111, "channel": 0}, {"type": "note_off", "time": 103, "note": 54, "velocity": 111, "channel": 0}, {"type": "note_on", "time": 18, "note": 52, "velocity": 106, "channel": 0}, {"type": "note_off", "time": 70, "note": 52, "velocity": 106, "channel": 0}, {"type": "note_on", "time": 22, "note": 50, "velocity": 112, "channel": 0}, {"type": "note_off", "time": 89, "note": 50, "velocity": 112, "channel": 0}, {"type": "note_on", "time": 0, "note": 48, "velocity": 105, "channel": 0}, {"type": "note_off", "time": 322, "note": 48, "velocity": 105, "channel": 0}, {"type": "note_on", "time": 44, "note": 44, "velocity": 113, "channel": 0}, {"type": "note_off", "time": 370, "note": 44, "velocity": 113, "channel": 0}, {"type": "note_on", "time": 1268, "note": 59, "velocity": 113, "channel": 0}, {"type": "note_off", "time": 89, "note": 59, "velocity": 113, "channel": 0}, {"type": "note_on", "time": 0, "note": 58, "velocity": 108, "channel": 0}, {"type": "note_off", "time": 59, "note": 58, "velocity": 108, "channel": 0}, {"type": "note_on", "time": 3, "note": 57, "velocity": 108, "channel": 0}, {"type": "note_off", "time": 118, "note": 57, "velocity": 108, "channel": 0}, {"type": "note_on", "time": 0, "note": 54, "velocity": 112, "channel": 0}, {"type": "note_off", "time": 96, "note": 54, "velocity": 112, "channel": 0}, {"type": "note_on", "time": 11, "note": 53, "velocity": 112, "channel": 0}, {"type": "note_off", "time": 70, "note": 53, "velocity": 112, "channel": 0}, {"type": "note_on", "time": 3, "note": 52, "velocity": 111, "channel": 0}, {"type": "note_off", "time": 81, "note": 52, "velocity": 111, "channel": 0}, {"type": "note_on", "time": 25, "note": 51, "velocity": 110, "channel": 0}, {"type": "note_on", "time": 96, "note": 54, "velocity": 111, "channel": 0}, {"type": "note_off", "time": 0, "note": 51, "velocity": 110, "channel": 0}, {"type": "note_off", "time": 55, "note": 54, "velocity": 111, "channel": 0}, {"type": "note_on", "time": 33, "note": 57, "velocity": 104, "channel": 0}, {"type": "note_off", "time": 81, "note": 57, "velocity": 104, "channel": 0}, {"type": "note_on", "time": 0, "note": 62, "velocity": 97, "channel": 0}, {"type": "note_off", "time": 111, "note": 62, "velocity": 97, "channel": 0}, {"type": "note_on", "time": 0, "note": 63, "velocity": 124, "channel": 0}, {"type": "note_off", "time": 92, "note": 63, "velocity": 124, "channel": 0}, {"type": "note_on", "time": 7, "note": 61, "velocity": 113, "channel": 0}, {"type": "note_off", "time": 92, "note": 61, "velocity": 113, "channel": 0}, {"type": "note_on", "time": 0, "note": 59, "velocity": 111, "channel": 0}, {"type": "note_off", "time": 81, "note": 59, "velocity": 111, "channel": 0}, {"type": "note_on", "time": 11, "note": 57, "velocity": 109, "channel": 0}, {"type": "note_off", "time": 85, "note": 57, "velocity": 109, "channel": 0}, {"type": "note_on", "time": 11, "note": 56, "velocity": 107, "channel": 0}, {"type": "note_off", "time": 89, "note": 56, "velocity": 107, "channel": 0}, {"type": "note_on", "time": 22, "note": 54, "velocity": 109, "channel": 0}, {"type": "note_off", "time": 114, "note": 54, "velocity": 109, "channel": 0}, {"type": "note_on", "time": 7, "note": 53, "velocity": 104, "channel": 0}, {"type": "note_off", "time": 55, "note": 53, "velocity": 104, "channel": 0}, {"type": "note_on", "time": 3, "note": 52, "velocity": 107, "channel": 0}, {"type": "note_off", "time": 66, "note": 52, "velocity": 107, "channel": 0}, {"type": "note_on", "time": 0, "note": 51, "velocity": 117, "channel": 0}, {"type": "note_off", "time": 103, "note": 51, "velocity": 117, "channel": 0}, {"type": "note_on", "time": 0, "note": 53, "velocity": 115, "channel": 0}, {"type": "note_off", "time": 114, "note": 53, "velocity": 115, "channel": 0}, {"type": "note_on", "time": 7, "note": 52, "velocity": 108, "channel": 0}, {"type": "note_off", "time": 100, "note": 52, "velocity": 108, "channel": 0}, {"type": "note_on", "time": 126, "note": 49, "velocity": 103, "channel": 0}, {"type": "note_off", "time": 129, "note": 49, "velocity": 103, "channel": 0}, {"type": "note_on", "time": 25, "note": 52, "velocity": 106, "channel": 0}, {"type": "note_off", "time": 163, "note": 52, "velocity": 106, "channel": 0}, {"type": "note_on", "time": 44, "note": 49, "velocity": 109, "channel": 0}, {"type": "note_off", "time": 196, "note": 49, "velocity": 109, "channel": 0}, {"type": "note_on", "time": 48, "note": 52, "velocity": 114, "channel": 0}, {"type": "note_off", "time": 137, "note": 52, "velocity": 114, "channel": 0}, {"type": "note_on", "time": 14, "note": 49, "velocity": 111, "channel": 0}, {"type": "note_off", "time": 144, "note": 49, "velocity": 111, "channel": 0}, {"type": "note_on", "time": 18, "note": 53, "velocity": 111, "channel": 0}, {"type": "note_off", "time": 356, "note": 53, "velocity": 111, "channel": 0}, {"type": "note_on", "time": 18, "note": 49, "velocity": 102, "channel": 0}, {"type": "note_off", "time": 89, "note": 49, "velocity": 102, "channel": 0}, {"type": "note_on", "time": 7, "note": 55, "velocity": 105, "channel": 0}, {"type": "note_off", "time": 103, "note": 55, "velocity": 105, "channel": 0}, {"type": "note_on", "time": 25, "note": 49, "velocity": 116, "channel": 0}, {"type": "note_off", "time": 44, "note": 49, "velocity": 116, "channel": 0}, {"type": "note_on", "time": 18, "note": 56, "velocity": 114, "channel": 0}, {"type": "note_off", "time": 74, "note": 56, "velocity": 114, "channel": 0}, {"type": "note_on", "time": 0, "note": 52, "velocity": 105, "channel": 0}, {"type": "note_off", "time": 74, "note": 52, "velocity": 105, "channel": 0}, {"type": "note_on", "time": 22, "note": 58, "velocity": 107, "channel": 0}, {"type": "note_off", "time": 107, "note": 58, "velocity": 107, "channel": 0}, {"type": "note_on", "time": 25, "note": 54, "velocity": 118, "channel": 0}, {"type": "note_off", "time": 74, "note": 54, "velocity": 118, "channel": 0}, {"type": "note_on", "time": 3, "note": 59, "velocity": 113, "channel": 0}, {"type": "note_off", "time": 107, "note": 59, "velocity": 113, "channel": 0}, {"type": "note_on", "time": 11, "note": 56, "velocity": 109, "channel": 0}, {"type": "note_off", "time": 48, "note": 56, "velocity": 109, "channel": 0}, {"type": "note_on", "time": 0, "note": 61, "velocity": 115, "channel": 0}, {"type": "note_off", "time": 92, "note": 61, "velocity": 115, "channel": 0}, {"type": "note_on", "time": 7, "note": 58, "velocity": 94, "channel": 0}, {"type": "note_off", "time": 55, "note": 58, "velocity": 94, "channel": 0}, {"type": "note_on", "time": 18, "note": 62, "velocity": 118, "channel": 0}, {"type": "note_off", "time": 107, "note": 62, "velocity": 118, "channel": 0}, {"type": "note_on", "time": 18, "note": 59, "velocity": 100, "channel": 0}, {"type": "note_off", "time": 66, "note": 59, "velocity": 100, "channel": 0}, {"type": "note_on", "time": 33, "note": 64, "velocity": 120, "channel": 0}, {"type": "note_on", "time": 118, "note": 61, "velocity": 94, "channel": 0}, {"type": "note_off", "time": 0, "note": 64, "velocity": 120, "channel": 0}, {"type": "note_off", "time": 77, "note": 61, "velocity": 94, "channel": 0}, {"type": "note_on", "time": 0, "note": 65, "velocity": 109, "channel": 0}, {"type": "note_off", "time": 89, "note": 65, "velocity": 109, "channel": 0}, {"type": "note_on", "time": 11, "note": 62, "velocity": 96, "channel": 0}, {"type": "note_off", "time": 74, "note": 62, "velocity": 96, "channel": 0}, {"type": "note_on", "time": 22, "note": 67, "velocity": 112, "channel": 0}, {"type": "note_off", "time": 100, "note": 67, "velocity": 112, "channel": 0}, {"type": "note_on", "time": 7, "note": 64, "velocity": 98, "channel": 0}, {"type": "note_off", "time": 51, "note": 64, "velocity": 98, "channel": 0}, {"type": "note_on", "time": 7, "note": 68, "velocity": 113, "channel": 0}, {"type": "note_off", "time": 77, "note": 68, "velocity": 113, "channel": 0}, {"type": "note_on", "time": 33, "note": 71, "velocity": 112, "channel": 0}, {"type": "note_off", "time": 103, "note": 71, "velocity": 112, "channel": 0}, {"type": "note_on", "time": 667, "note": 73, "velocity": 105, "channel": 0}, {"type": "note_off", "time": 96, "note": 73, "velocity": 105, "channel": 0}, {"type": "note_on", "time": 0, "note": 71, "velocity": 114, "channel": 0}, {"type": "note_off", "time": 85, "note": 71, "velocity": 114, "channel": 0}, {"type": "note_on", "time": 0, "note": 68, "velocity": 115, "channel": 0}, {"type": "note_off", "time": 89, "note": 68, "velocity": 115, "channel": 0}, {"type": "note_on", "time": 14, "note": 66, "velocity": 117, "channel": 0}, {"type": "note_off", "time": 89, "note": 66, "velocity": 117, "channel": 0}, {"type": "note_on", "time": 3, "note": 64, "velocity": 116, "channel": 0}, {"type": "note_off", "time": 89, "note": 64, "velocity": 116, "channel": 0}, {"type": "note_on", "time": 7, "note": 62, "velocity": 117, "channel": 0}, {"type": "note_off", "time": 77, "note": 62, "velocity": 117, "channel": 0}, {"type": "note_on", "time": 11, "note": 59, "velocity": 109, "channel": 0}, {"type": "note_off", "time": 74, "note": 59, "velocity": 109, "channel": 0}, {"type": "note_on", "time": 0, "note": 58, "velocity": 110, "channel": 0}, {"type": "note_on", "time": 122, "note": 56, "velocity": 111, "channel": 0}, {"type": "note_off", "time": 0, "note": 58, "velocity": 110, "channel": 0}, {"type": "note_off", "time": 74, "note": 56, "velocity": 111, "channel": 0}, {"type": "note_on", "time": 14, "note": 54, "velocity": 120, "channel": 0}, {"type": "note_off", "time": 92, "note": 54, "velocity": 120, "channel": 0}, {"type": "note_on", "time": 11, "note": 50, "velocity": 115, "channel": 0}, {"type": "note_off", "time": 75, "note": 50, "velocity": 115, "channel": 0}, {"type": "note_on", "time": 0, "note": 49, "velocity": 116, "channel": 0}, {"type": "note_off", "time": 92, "note": 49, "velocity": 116, "channel": 0}, {"type": "note_on", "time": 6, "note": 47, "velocity": 119, "channel": 0}, {"type": "note_off", "time": 89, "note": 47, "velocity": 119, "channel": 0}, {"type": "note_on", "time": 11, "note": 46, "velocity": 116, "channel": 0}, {"type": "note_off", "time": 111, "note": 46, "velocity": 116, "channel": 0}, {"type": "note_on", "time": 0, "note": 58, "velocity": 110, "channel": 0}, {"type": "note_off", "time": 81, "note": 58, "velocity": 110, "channel": 0}, {"type": "note_on", "time": 612, "note": 57, "velocity": 111, "channel": 0}, {"type": "note_off", "time": 126, "note": 57, "velocity": 111, "channel": 0}, {"type": "note_on", "time": 0, "note": 61, "velocity": 108, "channel": 0}, {"type": "note_off", "time": 55, "note": 61, "velocity": 108, "channel": 0}, {"type": "note_on", "time": 7, "note": 65, "velocity": 106, "channel": 0}, {"type": "note_off", "time": 100, "note": 65, "velocity": 106, "channel": 0}, {"type": "note_on", "time": 14, "note": 69, "velocity": 114, "channel": 0}, {"type": "note_off", "time": 70, "note": 69, "velocity": 114, "channel": 0}, {"type": "note_on", "time": 7, "note": 72, "velocity": 102, "channel": 0}, {"type": "note_off", "time": 96, "note": 72, "velocity": 102, "channel": 0}, {"type": "note_on", "time": 0, "note": 75, "velocity": 104, "channel": 0}, {"type": "note_off", "time": 81, "note": 75, "velocity": 104, "channel": 0}, {"type": "note_on", "time": 3, "note": 77, "velocity": 113, "channel": 0}, {"type": "note_off", "time": 348, "note": 77, "velocity": 113, "channel": 0}, {"type": "note_on", "time": 7, "note": 75, "velocity": 103, "channel": 0}, {"type": "note_off", "time": 100, "note": 75, "velocity": 103, "channel": 0}, {"type": "note_on", "time": 14, "note": 73, "velocity": 107, "channel": 0}, {"type": "note_off", "time": 118, "note": 73, "velocity": 107, "channel": 0}, {"type": "note_on", "time": 11, "note": 72, "velocity": 106, "channel": 0}, {"type": "note_on", "time": 81, "note": 70, "velocity": 109, "channel": 0}, {"type": "note_off", "time": 0, "note": 72, "velocity": 106, "channel": 0}, {"type": "note_off", "time": 92, "note": 70, "velocity": 109, "channel": 0}, {"type": "note_on", "time": 7, "note": 69, "velocity": 109, "channel": 0}, {"type": "note_off", "time": 100, "note": 69, "velocity": 109, "channel": 0}, {"type": "note_on", "time": 7, "note": 67, "velocity": 109, "channel": 0}, {"type": "note_off", "time": 77, "note": 67, "velocity": 109, "channel": 0}, {"type": "note_on", "time": 7, "note": 65, "velocity": 107, "channel": 0}, {"type": "note_off", "time": 85, "note": 65, "velocity": 107, "channel": 0}, {"type": "note_on", "time": 22, "note": 64, "velocity": 114, "channel": 0}, {"type": "note_off", "time": 81, "note": 64, "velocity": 114, "channel": 0}, {"type": "note_on", "time": 7, "note": 63, "velocity": 116, "channel": 0}, {"type": "note_off", "time": 96, "note": 63, "velocity": 116, "channel": 0}, {"type": "note_on", "time": 3, "note": 61, "velocity": 111, "channel": 0}, {"type": "note_off", "time": 81, "note": 61, "velocity": 111, "channel": 0}, {"type": "note_on", "time": 3, "note": 57, "velocity": 107, "channel": 0}, {"type": "note_off", "time": 96, "note": 57, "velocity": 107, "channel": 0}, {"type": "note_on", "time": 11, "note": 54, "velocity": 112, "channel": 0}, {"type": "note_off", "time": 118, "note": 54, "velocity": 112, "channel": 0}, {"type": "note_on", "time": 7, "note": 53, "velocity": 114, "channel": 0}, {"type": "note_off", "time": 103, "note": 53, "velocity": 114, "channel": 0}, {"type": "note_on", "time": 14, "note": 52, "velocity": 107, "channel": 0}, {"type": "note_off", "time": 92, "note": 52, "velocity": 107, "channel": 0}, {"type": "note_on", "time": 7, "note": 51, "velocity": 113, "channel": 0}, {"type": "note_off", "time": 74, "note": 51, "velocity": 113, "channel": 0}, {"type": "note_on", "time": 7, "note": 53, "velocity": 111, "channel": 0}, {"type": "note_off", "time": 55, "note": 53, "velocity": 111, "channel": 0}, {"type": "note_on", "time": 25, "note": 50, "velocity": 101, "channel": 0}, {"type": "note_off", "time": 85, "note": 50, "velocity": 101, "channel": 0}, {"type": "note_on", "time": 0, "note": 53, "velocity": 98, "channel": 0}, {"type": "note_off", "time": 77, "note": 53, "velocity": 98, "channel": 0}, {"type": "note_on", "time": 0, "note": 58, "velocity": 107, "channel": 0}, {"type": "note_off", "time": 107, "note": 58, "velocity": 107, "channel": 0}, {"type": "note_on", "time": 0, "note": 62, "velocity": 117, "channel": 0}, {"type": "note_off", "time": 81, "note": 62, "velocity": 117, "channel": 0}, {"type": "note_on", "time": 14, "note": 63, "velocity": 120, "channel": 0}, {"type": "note_off", "time": 111, "note": 63, "velocity": 120, "channel": 0}, {"type": "note_on", "time": 11, "note": 60, "velocity": 109, "channel": 0}, {"type": "note_off", "time": 59, "note": 60, "velocity": 109, "channel": 0}, {"type": "note_on", "time": 29, "note": 56, "velocity": 112, "channel": 0}, {"type": "note_off", "time": 85, "note": 56, "velocity": 112, "channel": 0}, {"type": "note_on", "time": 14, "note": 53, "velocity": 103, "channel": 0}, {"type": "note_off", "time": 100, "note": 53, "velocity": 103, "channel": 0}, {"type": "note_on", "time": 0, "note": 58, "velocity": 110, "channel": 0}, {"type": "note_on", "time": 70, "note": 55, "velocity": 105, "channel": 0}, {"type": "note_off", "time": 0, "note": 58, "velocity": 110, "channel": 0}, {"type": "note_off", "time": 81, "note": 55, "velocity": 105, "channel": 0}, {"type": "note_on", "time": 14, "note": 56, "velocity": 106, "channel": 0}, {"type": "note_off", "time": 89, "note": 56, "velocity": 106, "channel": 0}, {"type": "note_on", "time": 0, "note": 58, "velocity": 105, "channel": 0}, {"type": "note_off", "time": 100, "note": 58, "velocity": 105, "channel": 0}, {"type": "note_on", "time": 11, "note": 59, "velocity": 106, "channel": 0}, {"type": "note_on", "time": 114, "note": 56, "velocity": 106, "channel": 0}, {"type": "note_off", "time": 0, "note": 59, "velocity": 106, "channel": 0}, {"type": "note_off", "time": 100, "note": 56, "velocity": 106, "channel": 0}, {"type": "note_on", "time": 3, "note": 57, "velocity": 107, "channel": 0}, {"type": "note_off", "time": 74, "note": 57, "velocity": 107, "channel": 0}, {"type": "note_on", "time": 18, "note": 59, "velocity": 110, "channel": 0}, {"type": "note_off", "time": 89, "note": 59, "velocity": 110, "channel": 0}, {"type": "note_on", "time": 0, "note": 60, "velocity": 106, "channel": 0}, {"type": "note_off", "time": 89, "note": 60, "velocity": 106, "channel": 0}, {"type": "note_on", "time": 0, "note": 62, "velocity": 100, "channel": 0}, {"type": "note_off", "time": 85, "note": 62, "velocity": 100, "channel": 0}, {"type": "note_on", "time": 3, "note": 63, "velocity": 118, "channel": 0}, {"type": "note_off", "time": 100, "note": 63, "velocity": 118, "channel": 0}, {"type": "note_on", "time": 14, "note": 60, "velocity": 97, "channel": 0}, {"type": "note_off", "time": 77, "note": 60, "velocity": 97, "channel": 0}, {"type": "note_on", "time": 14, "note": 64, "velocity": 118, "channel": 0}, {"type": "note_off", "time": 103, "note": 64, "velocity": 118, "channel": 0}, {"type": "note_on", "time": 56, "note": 65, "velocity": 108, "channel": 0}, {"type": "note_off", "time": 121, "note": 65, "velocity": 108, "channel": 0}, {"type": "note_on", "time": 15, "note": 66, "velocity": 114, "channel": 0}, {"type": "note_off", "time": 110, "note": 66, "velocity": 114, "channel": 0}, {"type": "note_on", "time": 933, "note": 68, "velocity": 115, "channel": 0}, {"type": "note_off", "time": 158, "note": 68, "velocity": 115, "channel": 0}, {"type": "note_on", "time": 36, "note": 64, "velocity": 118, "channel": 0}, {"type": "note_off", "time": 121, "note": 64, "velocity": 118, "channel": 0}, {"type": "note_on", "time": 0, "note": 61, "velocity": 107, "channel": 0}, {"type": "note_off", "time": 105, "note": 61, "velocity": 107, "channel": 0}, {"type": "note_on", "time": 5, "note": 58, "velocity": 105, "channel": 0}, {"type": "note_off", "time": 147, "note": 58, "velocity": 105, "channel": 0}, {"type": "note_on", "time": 15, "note": 61, "velocity": 113, "channel": 0}, {"type": "note_off", "time": 116, "note": 61, "velocity": 113, "channel": 0}, {"type": "note_on", "time": 15, "note": 64, "velocity": 121, "channel": 0}, {"type": "note_off", "time": 242, "note": 64, "velocity": 121, "channel": 0}, {"type": "note_on", "time": 627, "note": 69, "velocity": 117, "channel": 0}, {"type": "note_off", "time": 94, "note": 69, "velocity": 117, "channel": 0}, {"type": "note_on", "time": 5, "note": 73, "velocity": 106, "channel": 0}, {"type": "note_off", "time": 79, "note": 73, "velocity": 106, "channel": 0}, {"type": "note_on", "time": 0, "note": 71, "velocity": 108, "channel": 0}, {"type": "note_off", "time": 97, "note": 71, "velocity": 108, "channel": 0}, {"type": "note_on", "time": 0, "note": 69, "velocity": 113, "channel": 0}, {"type": "note_off", "time": 74, "note": 69, "velocity": 113, "channel": 0}, {"type": "note_on", "time": 7, "note": 68, "velocity": 111, "channel": 0}, {"type": "note_off", "time": 100, "note": 68, "velocity": 111, "channel": 0}, {"type": "note_on", "time": 0, "note": 66, "velocity": 111, "channel": 0}, {"type": "note_off", "time": 77, "note": 66, "velocity": 111, "channel": 0}, {"type": "note_on", "time": 14, "note": 65, "velocity": 115, "channel": 0}, {"type": "note_off", "time": 74, "note": 65, "velocity": 115, "channel": 0}, {"type": "note_on", "time": 3, "note": 64, "velocity": 117, "channel": 0}, {"type": "note_off", "time": 96, "note": 64, "velocity": 117, "channel": 0}, {"type": "note_on", "time": 3, "note": 63, "velocity": 118, "channel": 0}, {"type": "note_off", "time": 96, "note": 63, "velocity": 118, "channel": 0}, {"type": "note_on", "time": 25, "note": 65, "velocity": 114, "channel": 0}, {"type": "note_off", "time": 63, "note": 65, "velocity": 114, "channel": 0}, {"type": "note_on", "time": 25, "note": 66, "velocity": 115, "channel": 0}, {"type": "note_off", "time": 103, "note": 66, "velocity": 115, "channel": 0}, {"type": "note_on", "time": 14, "note": 64, "velocity": 104, "channel": 0}, {"type": "note_off", "time": 66, "note": 64, "velocity": 104, "channel": 0}, {"type": "note_on", "time": 14, "note": 65, "velocity": 114, "channel": 0}, {"type": "note_off", "time": 74, "note": 65, "velocity": 114, "channel": 0}, {"type": "note_on", "time": 7, "note": 64, "velocity": 117, "channel": 0}, {"type": "note_off", "time": 89, "note": 64, "velocity": 117, "channel": 0}, {"type": "note_on", "time": 3, "note": 63, "velocity": 122, "channel": 0}, {"type": "note_off", "time": 85, "note": 63, "velocity": 122, "channel": 0}, {"type": "note_on", "time": 0, "note": 67, "velocity": 114, "channel": 0}, {"type": "note_off", "time": 100, "note": 67, "velocity": 114, "channel": 0}, {"type": "note_on", "time": 3, "note": 64, "velocity": 118, "channel": 0}, {"type": "note_off", "time": 92, "note": 64, "velocity": 118, "channel": 0}, {"type": "note_on", "time": 7, "note": 60, "velocity": 113, "channel": 0}, {"type": "note_off", "time": 81, "note": 60, "velocity": 113, "channel": 0}, {"type": "note_on", "time": 18, "note": 56, "velocity": 118, "channel": 0}, {"type": "note_off", "time": 100, "note": 56, "velocity": 118, "channel": 0}, {"type": "note_on", "time": 11, "note": 52, "velocity": 111, "channel": 0}, {"type": "note_off", "time": 103, "note": 52, "velocity": 111, "channel": 0}, {"type": "note_on", "time": 3, "note": 57, "velocity": 108, "channel": 0}, {"type": "note_off", "time": 289, "note": 57, "velocity": 108, "channel": 0}, {"type": "note_on", "time": 3, "note": 55, "velocity": 107, "channel": 0}, {"type": "note_off", "time": 89, "note": 55, "velocity": 107, "channel": 0}, {"type": "note_on", "time": 18, "note": 52, "velocity": 109, "channel": 0}, {"type": "note_off", "time": 63, "note": 52, "velocity": 109, "channel": 0}, {"type": "note_on", "time": 7, "note": 48, "velocity": 112, "channel": 0}, {"type": "note_off", "time": 118, "note": 48, "velocity": 112, "channel": 0}, {"type": "note_on", "time": 1476, "note": 65, "velocity": 118, "channel": 0}, {"type": "note_off", "time": 81, "note": 65, "velocity": 118, "channel": 0}, {"type": "note_on", "time": 22, "note": 68, "velocity": 97, "channel": 0}, {"type": "note_off", "time": 89, "note": 68, "velocity": 97, "channel": 0}, {"type": "note_on", "time": 7, "note": 70, "velocity": 114, "channel": 0}, {"type": "note_off", "time": 712, "note": 70, "velocity": 114, "channel": 0}, {"type": "note_on", "time": 70, "note": 70, "velocity": 112, "channel": 0}, {"type": "note_off", "time": 126, "note": 70, "velocity": 112, "channel": 0}, {"type": "note_on", "time": 85, "note": 70, "velocity": 113, "channel": 0}, {"type": "note_off", "time": 541, "note": 70, "velocity": 113, "channel": 0}, {"type": "note_on", "time": 11, "note": 68, "velocity": 115, "channel": 0}, {"type": "note_off", "time": 137, "note": 68, "velocity": 115, "channel": 0}, {"type": "note_on", "time": 0, "note": 70, "velocity": 97, "channel": 0}, {"type": "note_off", "time": 81, "note": 70, "velocity": 97, "channel": 0}, {"type": "note_on", "time": 7, "note": 72, "velocity": 113, "channel": 0}, {"type": "note_off", "time": 92, "note": 72, "velocity": 113, "channel": 0}, {"type": "note_on", "time": 0, "note": 70, "velocity": 113, "channel": 0}, {"type": "note_off", "time": 489, "note": 70, "velocity": 113, "channel": 0}, {"type": "note_on", "time": 3, "note": 68, "velocity": 117, "channel": 0}, {"type": "note_off", "time": 107, "note": 68, "velocity": 117, "channel": 0}, {"type": "note_on", "time": 3, "note": 65, "velocity": 113, "channel": 0}, {"type": "note_off", "time": 107, "note": 65, "velocity": 113, "channel": 0}, {"type": "note_on", "time": 0, "note": 63, "velocity": 114, "channel": 0}, {"type": "note_off", "time": 126, "note": 63, "velocity": 114, "channel": 0}, {"type": "note_on", "time": 782, "note": 60, "velocity": 114, "channel": 0}, {"type": "note_off", "time": 103, "note": 60, "velocity": 114, "channel": 0}, {"type": "note_on", "time": 18, "note": 65, "velocity": 102, "channel": 0}, {"type": "note_off", "time": 51, "note": 65, "velocity": 102, "channel": 0}, {"type": "note_on", "time": 22, "note": 67, "velocity": 114, "channel": 0}, {"type": "note_off", "time": 66, "note": 67, "velocity": 114, "channel": 0}, {"type": "note_on", "time": 3, "note": 70, "velocity": 110, "channel": 0}, {"type": "note_off", "time": 92, "note": 70, "velocity": 110, "channel": 0}, {"type": "note_on", "time": 22, "note": 72, "velocity": 113, "channel": 0}, {"type": "note_off", "time": 89, "note": 72, "velocity": 113, "channel": 0}, {"type": "note_on", "time": 3, "note": 75, "velocity": 113, "channel": 0}, {"type": "note_off", "time": 81, "note": 75, "velocity": 113, "channel": 0}, {"type": "note_on", "time": 7, "note": 74, "velocity": 110, "channel": 0}, {"type": "note_off", "time": 81, "note": 74, "velocity": 110, "channel": 0}, {"type": "note_on", "time": 0, "note": 72, "velocity": 108, "channel": 0}, {"type": "note_off", "time": 100, "note": 72, "velocity": 108, "channel": 0}, {"type": "note_on", "time": 0, "note": 70, "velocity": 109, "channel": 0}, {"type": "note_off", "time": 92, "note": 70, "velocity": 109, "channel": 0}, {"type": "note_on", "time": 25, "note": 68, "velocity": 116, "channel": 0}, {"type": "note_off", "time": 66, "note": 68, "velocity": 116, "channel": 0}, {"type": "note_on", "time": 18, "note": 68, "velocity": 111, "channel": 0}, {"type": "note_off", "time": 77, "note": 68, "velocity": 111, "channel": 0}, {"type": "note_on", "time": 25, "note": 67, "velocity": 111, "channel": 0}, {"type": "note_off", "time": 92, "note": 67, "velocity": 111, "channel": 0}, {"type": "note_on", "time": 11, "note": 66, "velocity": 113, "channel": 0}, {"type": "note_off", "time": 81, "note": 66, "velocity": 113, "channel": 0}, {"type": "note_on", "time": 11, "note": 62, "velocity": 116, "channel": 0}, {"type": "note_off", "time": 63, "note": 62, "velocity": 116, "channel": 0}, {"type": "note_on", "time": 7, "note": 59, "velocity": 110, "channel": 0}, {"type": "note_off", "time": 118, "note": 59, "velocity": 110, "channel": 0}, {"type": "note_on", "time": 0, "note": 56, "velocity": 99, "channel": 0}, {"type": "note_off", "time": 92, "note": 56, "velocity": 99, "channel": 0}, {"type": "note_on", "time": 14, "note": 58, "velocity": 108, "channel": 0}, {"type": "note_off", "time": 103, "note": 58, "velocity": 108, "channel": 0}, {"type": "note_on", "time": 18, "note": 55, "velocity": 101, "channel": 0}, {"type": "note_off", "time": 63, "note": 55, "velocity": 101, "channel": 0}, {"type": "note_on", "time": 7, "note": 57, "velocity": 111, "channel": 0}, {"type": "note_off", "time": 100, "note": 57, "velocity": 111, "channel": 0}, {"type": "note_on", "time": 18, "note": 54, "velocity": 105, "channel": 0}, {"type": "note_off", "time": 48, "note": 54, "velocity": 105, "channel": 0}, {"type": "note_on", "time": 3, "note": 56, "velocity": 113, "channel": 0}, {"type": "note_off", "time": 70, "note": 56, "velocity": 113, "channel": 0}, {"type": "note_on", "time": 18, "note": 59, "velocity": 109, "channel": 0}, {"type": "note_off", "time": 66, "note": 59, "velocity": 109, "channel": 0}, {"type": "note_on", "time": 22, "note": 62, "velocity": 111, "channel": 0}, {"type": "note_off", "time": 103, "note": 62, "velocity": 111, "channel": 0}, {"type": "note_on", "time": 14, "note": 66, "velocity": 111, "channel": 0}, {"type": "note_off", "time": 85, "note": 66, "velocity": 111, "channel": 0}, {"type": "note_on", "time": 0, "note": 61, "velocity": 104, "channel": 0}, {"type": "note_off", "time": 81, "note": 61, "velocity": 104, "channel": 0}, {"type": "note_on", "time": 14, "note": 62, "velocity": 114, "channel": 0}, {"type": "note_off", "time": 100, "note": 62, "velocity": 114, "channel": 0}, {"type": "note_on", "time": 11, "note": 66, "velocity": 95, "channel": 0}, {"type": "note_off", "time": 70, "note": 66, "velocity": 95, "channel": 0}, {"type": "note_on", "time": 0, "note": 69, "velocity": 96, "channel": 0}, {"type": "note_off", "time": 114, "note": 69, "velocity": 96, "channel": 0}, {"type": "note_on", "time": 11, "note": 73, "velocity": 111, "channel": 0}, {"type": "note_off", "time": 103, "note": 73, "velocity": 111, "channel": 0}, {"type": "note_on", "time": 7, "note": 72, "velocity": 106, "channel": 0}, {"type": "note_off", "time": 85, "note": 72, "velocity": 106, "channel": 0}, {"type": "note_on", "time": 0, "note": 71, "velocity": 115, "channel": 0}, {"type": "note_on", "time": 96, "note": 68, "velocity": 94, "channel": 0}, {"type": "note_off", "time": 0, "note": 71, "velocity": 115, "channel": 0}, {"type": "note_off", "time": 92, "note": 68, "velocity": 94, "channel": 0}, {"type": "note_on", "time": 0, "note": 69, "velocity": 109, "channel": 0}, {"type": "note_off", "time": 77, "note": 69, "velocity": 109, "channel": 0}, {"type": "note_on", "time": 22, "note": 68, "velocity": 109, "channel": 0}, {"type": "note_off", "time": 70, "note": 68, "velocity": 109, "channel": 0}, {"type": "note_on", "time": 0, "note": 67, "velocity": 104, "channel": 0}, {"type": "note_off", "time": 92, "note": 67, "velocity": 104, "channel": 0}, {"type": "note_on", "time": 7, "note": 66, "velocity": 110, "channel": 0}, {"type": "note_off", "time": 70, "note": 66, "velocity": 110, "channel": 0}, {"type": "note_on", "time": 0, "note": 67, "velocity": 112, "channel": 0}, {"type": "note_off", "time": 85, "note": 67, "velocity": 112, "channel": 0}, {"type": "note_on", "time": 0, "note": 66, "velocity": 106, "channel": 0}, {"type": "note_off", "time": 114, "note": 66, "velocity": 106, "channel": 0}, {"type": "note_on", "time": 18, "note": 65, "velocity": 106, "channel": 0}, {"type": "note_off", "time": 81, "note": 65, "velocity": 106, "channel": 0}, {"type": "note_on", "time": 14, "note": 64, "velocity": 113, "channel": 0}, {"type": "note_off", "time": 85, "note": 64, "velocity": 113, "channel": 0}, {"type": "note_on", "time": 11, "note": 63, "velocity": 116, "channel": 0}, {"type": "note_off", "time": 81, "note": 63, "velocity": 116, "channel": 0}, {"type": "note_on", "time": 7, "note": 62, "velocity": 109, "channel": 0}, {"type": "note_off", "time": 89, "note": 62, "velocity": 109, "channel": 0}, {"type": "note_on", "time": 11, "note": 61, "velocity": 107, "channel": 0}, {"type": "note_off", "time": 85, "note": 61, "velocity": 107, "channel": 0}, {"type": "note_on", "time": 7, "note": 65, "velocity": 110, "channel": 0}, {"type": "note_off", "time": 100, "note": 65, "velocity": 110, "channel": 0}, {"type": "note_on", "time": 3, "note": 60, "velocity": 106, "channel": 0}, {"type": "note_off", "time": 77, "note": 60, "velocity": 106, "channel": 0}, {"type": "note_on", "time": 11, "note": 61, "velocity": 109, "channel": 0}, {"type": "note_off", "time": 100, "note": 61, "velocity": 109, "channel": 0}, {"type": "note_on", "time": 7, "note": 58, "velocity": 102, "channel": 0}, {"type": "note_off", "time": 92, "note": 58, "velocity": 102, "channel": 0}, {"type": "note_on", "time": 11, "note": 55, "velocity": 97, "channel": 0}, {"type": "note_off", "time": 51, "note": 55, "velocity": 97, "channel": 0}, {"type": "note_on", "time": 22, "note": 64, "velocity": 117, "channel": 0}, {"type": "note_on", "time": 111, "note": 62, "velocity": 118, "channel": 0}, {"type": "note_off", "time": 0, "note": 64, "velocity": 117, "channel": 0}, {"type": "note_off", "time": 59, "note": 62, "velocity": 118, "channel": 0}, {"type": "note_on", "time": 7, "note": 59, "velocity": 105, "channel": 0}, {"type": "note_off", "time": 96, "note": 59, "velocity": 105, "channel": 0}, {"type": "note_on", "time": 18, "note": 58, "velocity": 106, "channel": 0}, {"type": "note_off", "time": 70, "note": 58, "velocity": 106, "channel": 0}, {"type": "note_on", "time": 25, "note": 57, "velocity": 107, "channel": 0}, {"type": "note_off", "time": 89, "note": 57, "velocity": 107, "channel": 0}, {"type": "note_on", "time": 0, "note": 54, "velocity": 105, "channel": 0}, {"type": "note_off", "time": 77, "note": 54, "velocity": 105, "channel": 0}, {"type": "note_on", "time": 3, "note": 53, "velocity": 108, "channel": 0}, {"type": "note_off", "time": 103, "note": 53, "velocity": 108, "channel": 0}, {"type": "note_on", "time": 14, "note": 52, "velocity": 108, "channel": 0}, {"type": "note_off", "time": 89, "note": 52, "velocity": 108, "channel": 0}, {"type": "note_on", "time": 7, "note": 51, "velocity": 113, "channel": 0}, {"type": "note_off", "time": 81, "note": 51, "velocity": 113, "channel": 0}, {"type": "note_on", "time": 0, "note": 47, "velocity": 103, "channel": 0}, {"type": "note_off", "time": 89, "note": 47, "velocity": 103, "channel": 0}, {"type": "note_on", "time": 797, "note": 65, "velocity": 112, "channel": 0}, {"type": "note_off", "time": 100, "note": 65, "velocity": 112, "channel": 0}, {"type": "note_on", "time": 0, "note": 64, "velocity": 116, "channel": 0}, {"type": "note_off", "time": 111, "note": 64, "velocity": 116, "channel": 0}, {"type": "note_on", "time": 7, "note": 63, "velocity": 124, "channel": 0}, {"type": "note_off", "time": 100, "note": 63, "velocity": 124, "channel": 0}, {"type": "note_on", "time": 11, "note": 60, "velocity": 111, "channel": 0}, {"type": "note_off", "time": 81, "note": 60, "velocity": 111, "channel": 0}, {"type": "note_on", "time": 3, "note": 57, "velocity": 114, "channel": 0}, {"type": "note_off", "time": 100, "note": 57, "velocity": 114, "channel": 0}, {"type": "note_on", "time": 22, "note": 54, "velocity": 109, "channel": 0}, {"type": "note_off", "time": 70, "note": 54, "velocity": 109, "channel": 0}, {"type": "note_on", "time": 0, "note": 59, "velocity": 114, "channel": 0}, {"type": "note_off", "time": 81, "note": 59, "velocity": 114, "channel": 0}, {"type": "note_on", "time": 0, "note": 54, "velocity": 102, "channel": 0}, {"type": "note_off", "time": 74, "note": 54, "velocity": 102, "channel": 0}, {"type": "note_on", "time": 25, "note": 56, "velocity": 110, "channel": 0}, {"type": "note_off", "time": 92, "note": 56, "velocity": 110, "channel": 0}, {"type": "note_on", "time": 3, "note": 59, "velocity": 107, "channel": 0}, {"type": "note_off", "time": 81, "note": 59, "velocity": 107, "channel": 0}, {"type": "note_on", "time": 7, "note": 61, "velocity": 112, "channel": 0}, {"type": "note_on", "time": 85, "note": 63, "velocity": 120, "channel": 0}, {"type": "note_off", "time": 0, "note": 61, "velocity": 112, "channel": 0}, {"type": "note_off", "time": 81, "note": 63, "velocity": 120, "channel": 0}, {"type": "note_on", "time": 18, "note": 64, "velocity": 116, "channel": 0}, {"type": "note_off", "time": 103, "note": 64, "velocity": 116, "channel": 0}, {"type": "note_on", "time": 3, "note": 66, "velocity": 115, "channel": 0}, {"type": "note_off", "time": 118, "note": 66, "velocity": 115, "channel": 0}, {"type": "note_on", "time": 0, "note": 68, "velocity": 113, "channel": 0}, {"type": "note_off", "time": 66, "note": 68, "velocity": 113, "channel": 0}, {"type": "note_on", "time": 25, "note": 69, "velocity": 101, "channel": 0}, {"type": "note_off", "time": 55, "note": 69, "velocity": 101, "channel": 0}, {"type": "note_on", "time": 0, "note": 71, "velocity": 116, "channel": 0}, {"type": "note_off", "time": 111, "note": 71, "velocity": 116, "channel": 0}, {"type": "note_on", "time": 44, "note": 68, "velocity": 98, "channel": 0}, {"type": "note_off", "time": 70, "note": 68, "velocity": 98, "channel": 0}, {"type": "note_on", "time": 22, "note": 68, "velocity": 87, "channel": 0}, {"type": "note_off", "time": 70, "note": 68, "velocity": 87, "channel": 0}, {"type": "note_on", "time": 11, "note": 69, "velocity": 113, "channel": 0}, {"type": "note_off", "time": 63, "note": 69, "velocity": 113, "channel": 0}, {"type": "note_on", "time": 22, "note": 68, "velocity": 116, "channel": 0}, {"type": "note_off", "time": 63, "note": 68, "velocity": 116, "channel": 0}, {"type": "note_on", "time": 33, "note": 66, "velocity": 118, "channel": 0}, {"type": "note_off", "time": 241, "note": 66, "velocity": 118, "channel": 0}, {"type": "note_on", "time": 404, "note": 65, "velocity": 118, "channel": 0}, {"type": "note_off", "time": 118, "note": 65, "velocity": 118, "channel": 0}, {"type": "note_on", "time": 11, "note": 64, "velocity": 119, "channel": 0}, {"type": "note_off", "time": 92, "note": 64, "velocity": 119, "channel": 0}, {"type": "note_on", "time": 18, "note": 63, "velocity": 124, "channel": 0}, {"type": "note_off", "time": 63, "note": 63, "velocity": 124, "channel": 0}, {"type": "note_on", "time": 14, "note": 60, "velocity": 112, "channel": 0}, {"type": "note_off", "time": 81, "note": 60, "velocity": 112, "channel": 0}, {"type": "note_on", "time": 25, "note": 57, "velocity": 111, "channel": 0}, {"type": "note_off", "time": 77, "note": 57, "velocity": 111, "channel": 0}, {"type": "note_on", "time": 11, "note": 53, "velocity": 101, "channel": 0}, {"type": "note_off", "time": 63, "note": 53, "velocity": 101, "channel": 0}, {"type": "note_on", "time": 0, "note": 62, "velocity": 113, "channel": 0}, {"type": "note_on", "time": 107, "note": 60, "velocity": 109, "channel": 0}, {"type": "note_off", "time": 0, "note": 62, "velocity": 113, "channel": 0}, {"type": "note_off", "time": 81, "note": 60, "velocity": 109, "channel": 0}, {"type": "note_on", "time": 18, "note": 59, "velocity": 110, "channel": 0}, {"type": "note_off", "time": 103, "note": 59, "velocity": 110, "channel": 0}, {"type": "note_on", "time": 3, "note": 58, "velocity": 111, "channel": 0}, {"type": "note_off", "time": 74, "note": 58, "velocity": 111, "channel": 0}, {"type": "note_on", "time": 3, "note": 57, "velocity": 112, "channel": 0}, {"type": "note_off", "time": 89, "note": 57, "velocity": 112, "channel": 0}, {"type": "note_on", "time": 18, "note": 59, "velocity": 110, "channel": 0}, {"type": "note_off", "time": 66, "note": 59, "velocity": 110, "channel": 0}, {"type": "note_on", "time": 11, "note": 61, "velocity": 108, "channel": 0}, {"type": "note_off", "time": 85, "note": 61, "velocity": 108, "channel": 0}, {"type": "note_on", "time": 11, "note": 63, "velocity": 116, "channel": 0}, {"type": "note_off", "time": 96, "note": 63, "velocity": 116, "channel": 0}, {"type": "note_on", "time": 14, "note": 65, "velocity": 110, "channel": 0}, {"type": "note_off", "time": 96, "note": 65, "velocity": 110, "channel": 0}, {"type": "note_on", "time": 14, "note": 66, "velocity": 106, "channel": 0}, {"type": "note_off", "time": 100, "note": 66, "velocity": 106, "channel": 0}, {"type": "note_on", "time": 7, "note": 68, "velocity": 95, "channel": 0}, {"type": "note_off", "time": 74, "note": 68, "velocity": 95, "channel": 0}, {"type": "note_on", "time": 22, "note": 71, "velocity": 107, "channel": 0}, {"type": "note_on", "time": 96, "note": 73, "velocity": 106, "channel": 0}, {"type": "note_off", "time": 0, "note": 71, "velocity": 107, "channel": 0}, {"type": "note_off", "time": 107, "note": 73, "velocity": 106, "channel": 0}, {"type": "note_on", "time": 11, "note": 75, "velocity": 113, "channel": 0}, {"type": "note_off", "time": 89, "note": 75, "velocity": 113, "channel": 0}, {"type": "note_on", "time": 0, "note": 76, "velocity": 111, "channel": 0}, {"type": "note_on", "time": 107, "note": 75, "velocity": 111, "channel": 0}, {"type": "note_off", "time": 0, "note": 76, "velocity": 111, "channel": 0}, {"type": "note_off", "time": 92, "note": 75, "velocity": 111, "channel": 0}, {"type": "note_on", "time": 18, "note": 73, "velocity": 112, "channel": 0}, {"type": "note_off", "time": 92, "note": 73, "velocity": 112, "channel": 0}, {"type": "note_on", "time": 11, "note": 71, "velocity": 108, "channel": 0}, {"type": "note_off", "time": 92, "note": 71, "velocity": 108, "channel": 0}, {"type": "note_on", "time": 18, "note": 69, "velocity": 115, "channel": 0}, {"type": "note_off", "time": 66, "note": 69, "velocity": 115, "channel": 0}, {"type": "note_on", "time": 11, "note": 68, "velocity": 116, "channel": 0}, {"type": "note_off", "time": 66, "note": 68, "velocity": 116, "channel": 0}, {"type": "note_on", "time": 25, "note": 66, "velocity": 109, "channel": 0}, {"type": "note_off", "time": 85, "note": 66, "velocity": 109, "channel": 0}, {"type": "note_on", "time": 0, "note": 65, "velocity": 109, "channel": 0}, {"type": "note_off", "time": 96, "note": 65, "velocity": 109, "channel": 0}, {"type": "note_on", "time": 14, "note": 64, "velocity": 118, "channel": 0}, {"type": "note_off", "time": 85, "note": 64, "velocity": 118, "channel": 0}, {"type": "note_on", "time": 11, "note": 63, "velocity": 118, "channel": 0}, {"type": "note_off", "time": 103, "note": 63, "velocity": 118, "channel": 0}, {"type": "note_on", "time": 0, "note": 65, "velocity": 111, "channel": 0}, {"type": "note_off", "time": 81, "note": 65, "velocity": 111, "channel": 0}, {"type": "note_on", "time": 3, "note": 67, "velocity": 88, "channel": 0}, {"type": "note_off", "time": 48, "note": 67, "velocity": 88, "channel": 0}, {"type": "note_on", "time": 33, "note": 69, "velocity": 100, "channel": 0}, {"type": "note_off", "time": 70, "note": 69, "velocity": 100, "channel": 0}, {"type": "note_on", "time": 48, "note": 70, "velocity": 111, "channel": 0}, {"type": "note_off", "time": 74, "note": 70, "velocity": 111, "channel": 0}, {"type": "note_on", "time": 11, "note": 66, "velocity": 104, "channel": 0}, {"type": "note_off", "time": 77, "note": 66, "velocity": 104, "channel": 0}, {"type": "note_on", "time": 14, "note": 68, "velocity": 112, "channel": 0}, {"type": "note_off", "time": 74, "note": 68, "velocity": 112, "channel": 0}, {"type": "note_on", "time": 14, "note": 70, "velocity": 104, "channel": 0}, {"type": "note_off", "time": 81, "note": 70, "velocity": 104, "channel": 0}, {"type": "note_on", "time": 18, "note": 71, "velocity": 112, "channel": 0}, {"type": "note_off", "time": 77, "note": 71, "velocity": 112, "channel": 0}, {"type": "note_on", "time": 22, "note": 70, "velocity": 96, "channel": 0}, {"type": "note_off", "time": 55, "note": 70, "velocity": 96, "channel": 0}, {"type": "note_on", "time": 3, "note": 73, "velocity": 107, "channel": 0}, {"type": "note_off", "time": 111, "note": 73, "velocity": 107, "channel": 0}, {"type": "note_on", "time": 7, "note": 70, "velocity": 98, "channel": 0}, {"type": "note_off", "time": 55, "note": 70, "velocity": 98, "channel": 0}, {"type": "note_on", "time": 14, "note": 71, "velocity": 116, "channel": 0}, {"type": "note_off", "time": 96, "note": 71, "velocity": 116, "channel": 0}, {"type": "note_on", "time": 11, "note": 69, "velocity": 104, "channel": 0}, {"type": "note_off", "time": 70, "note": 69, "velocity": 104, "channel": 0}, {"type": "note_on", "time": 18, "note": 68, "velocity": 110, "channel": 0}, {"type": "note_off", "time": 81, "note": 68, "velocity": 110, "channel": 0}, {"type": "note_on", "time": 18, "note": 67, "velocity": 110, "channel": 0}, {"type": "note_off", "time": 92, "note": 67, "velocity": 110, "channel": 0}, {"type": "note_on", "time": 25, "note": 66, "velocity": 108, "channel": 0}, {"type": "note_off", "time": 66, "note": 66, "velocity": 108, "channel": 0}, {"type": "note_on", "time": 22, "note": 71, "velocity": 109, "channel": 0}, {"type": "note_off", "time": 105, "note": 71, "velocity": 109, "channel": 0}, {"type": "note_on", "time": 53, "note": 66, "velocity": 106, "channel": 0}, {"type": "note_off", "time": 92, "note": 66, "velocity": 106, "channel": 0}, {"type": "note_on", "time": 18, "note": 65, "velocity": 107, "channel": 0}, {"type": "note_off", "time": 70, "note": 65, "velocity": 107, "channel": 0}, {"type": "note_on", "time": 11, "note": 64, "velocity": 110, "channel": 0}, {"type": "note_off", "time": 89, "note": 64, "velocity": 110, "channel": 0}, {"type": "note_on", "time": 0, "note": 63, "velocity": 117, "channel": 0}, {"type": "note_off", "time": 92, "note": 63, "velocity": 117, "channel": 0}, {"type": "note_on", "time": 7, "note": 67, "velocity": 111, "channel": 0}, {"type": "note_off", "time": 89, "note": 67, "velocity": 111, "channel": 0}, {"type": "note_on", "time": 0, "note": 62, "velocity": 114, "channel": 0}, {"type": "note_on", "time": 103, "note": 60, "velocity": 111, "channel": 0}, {"type": "note_off", "time": 0, "note": 62, "velocity": 114, "channel": 0}, {"type": "note_off", "time": 77, "note": 60, "velocity": 111, "channel": 0}, {"type": "note_on", "time": 1, "note": 57, "velocity": 109, "channel": 0}, {"type": "note_off", "time": 81, "note": 57, "velocity": 109, "channel": 0}, {"type": "note_on", "time": 39, "note": 53, "velocity": 104, "channel": 0}, {"type": "note_off", "time": 63, "note": 53, "velocity": 104, "channel": 0}, {"type": "note_on", "time": 14, "note": 55, "velocity": 122, "channel": 0}, {"type": "note_off", "time": 77, "note": 55, "velocity": 122, "channel": 0}, {"type": "note_on", "time": 1, "note": 51, "velocity": 123, "channel": 0}, {"type": "note_off", "time": 81, "note": 51, "velocity": 123, "channel": 0}, {"type": "note_on", "time": 11, "note": 47, "velocity": 122, "channel": 0}, {"type": "note_off", "time": 74, "note": 47, "velocity": 122, "channel": 0}, {"type": "note_on", "time": 11, "note": 51, "velocity": 117, "channel": 0}, {"type": "note_off", "time": 66, "note": 51, "velocity": 117, "channel": 0}, {"type": "note_on", "time": 53, "note": 44, "velocity": 127, "channel": 0}, {"type": "note_off", "time": 226, "note": 44, "velocity": 127, "channel": 0}, {"type": "note_on", "time": 628, "note": 44, "velocity": 126, "channel": 0}, {"type": "note_off", "time": 98, "note": 44, "velocity": 126, "channel": 0}, {"type": "note_on", "time": 9, "note": 51, "velocity": 112, "channel": 0}, {"type": "note_off", "time": 87, "note": 51, "velocity": 112, "channel": 0}, {"type": "note_on", "time": 3, "note": 56, "velocity": 110, "channel": 0}, {"type": "note_off", "time": 102, "note": 56, "velocity": 110, "channel": 0}, {"type": "note_on", "time": 1, "note": 52, "velocity": 112, "channel": 0}, {"type": "note_off", "time": 170, "note": 52, "velocity": 112, "channel": 0}, {"type": "note_on", "time": 7, "note": 56, "velocity": 110, "channel": 0}, {"type": "note_off", "time": 87, "note": 56, "velocity": 110, "channel": 0}, {"type": "note_on", "time": 1, "note": 59, "velocity": 107, "channel": 0}, {"type": "note_off", "time": 85, "note": 59, "velocity": 107, "channel": 0}, {"type": "note_on", "time": 7, "note": 54, "velocity": 107, "channel": 0}, {"type": "note_off", "time": 166, "note": 54, "velocity": 107, "channel": 0}, {"type": "note_on", "time": 20, "note": 58, "velocity": 109, "channel": 0}, {"type": "note_off", "time": 77, "note": 58, "velocity": 109, "channel": 0}, {"type": "note_on", "time": 5, "note": 61, "velocity": 109, "channel": 0}, {"type": "note_off", "time": 103, "note": 61, "velocity": 109, "channel": 0}, {"type": "note_on", "time": 5, "note": 56, "velocity": 105, "channel": 0}, {"type": "note_off", "time": 159, "note": 56, "velocity": 105, "channel": 0}, {"type": "note_on", "time": 7, "note": 59, "velocity": 106, "channel": 0}, {"type": "note_off", "time": 79, "note": 59, "velocity": 106, "channel": 0}, {"type": "note_on", "time": 9, "note": 63, "velocity": 107, "channel": 0}, {"type": "note_off", "time": 92, "note": 63, "velocity": 107, "channel": 0}, {"type": "note_on", "time": 9, "note": 58, "velocity": 105, "channel": 0}, {"type": "note_off", "time": 100, "note": 58, "velocity": 105, "channel": 0}, {"type": "note_on", "time": 35, "note": 61, "velocity": 111, "channel": 0}, {"type": "note_off", "time": 89, "note": 61, "velocity": 111, "channel": 0}, {"type": "note_on", "time": 70, "note": 66, "velocity": 110, "channel": 0}, {"type": "note_off", "time": 87, "note": 66, "velocity": 110, "channel": 0}, {"type": "note_on", "time": 0, "note": 59, "velocity": 106, "channel": 0}, {"type": "note_off", "time": 185, "note": 59, "velocity": 106, "channel": 0}, {"type": "note_on", "time": 1, "note": 64, "velocity": 119, "channel": 0}, {"type": "note_off", "time": 107, "note": 64, "velocity": 119, "channel": 0}, {"type": "note_on", "time": 7, "note": 68, "velocity": 110, "channel": 0}, {"type": "note_off", "time": 90, "note": 68, "velocity": 110, "channel": 0}, {"type": "note_on", "time": 11, "note": 61, "velocity": 109, "channel": 0}, {"type": "note_off", "time": 94, "note": 61, "velocity": 109, "channel": 0}, {"type": "note_on", "time": 14, "note": 66, "velocity": 97, "channel": 0}, {"type": "note_off", "time": 94, "note": 66, "velocity": 97, "channel": 0}, {"type": "note_on", "time": 1, "note": 70, "velocity": 108, "channel": 0}, {"type": "note_off", "time": 87, "note": 70, "velocity": 108, "channel": 0}, {"type": "note_on", "time": 0, "note": 66, "velocity": 112, "channel": 0}, {"type": "note_off", "time": 76, "note": 66, "velocity": 112, "channel": 0}, {"type": "note_on", "time": 9, "note": 64, "velocity": 115, "channel": 0}, {"type": "note_off", "time": 81, "note": 64, "velocity": 115, "channel": 0}, {"type": "note_on", "time": 7, "note": 68, "velocity": 96, "channel": 0}, {"type": "note_off", "time": 87, "note": 68, "velocity": 96, "channel": 0}, {"type": "note_on", "time": 18, "note": 71, "velocity": 108, "channel": 0}, {"type": "note_on", "time": 90, "note": 68, "velocity": 89, "channel": 0}, {"type": "note_off", "time": 0, "note": 71, "velocity": 108, "channel": 0}, {"type": "note_off", "time": 77, "note": 68, "velocity": 89, "channel": 0}, {"type": "note_on", "time": 14, "note": 70, "velocity": 107, "channel": 0}, {"type": "note_off", "time": 94, "note": 70, "velocity": 107, "channel": 0}, {"type": "note_on", "time": 1, "note": 68, "velocity": 107, "channel": 0}, {"type": "note_off", "time": 61, "note": 68, "velocity": 107, "channel": 0}, {"type": "note_on", "time": 18, "note": 68, "velocity": 105, "channel": 0}, {"type": "note_off", "time": 92, "note": 68, "velocity": 105, "channel": 0}, {"type": "note_on", "time": 1, "note": 67, "velocity": 109, "channel": 0}, {"type": "note_off", "time": 85, "note": 67, "velocity": 109, "channel": 0}, {"type": "note_on", "time": 35, "note": 66, "velocity": 110, "channel": 0}, {"type": "note_off", "time": 109, "note": 66, "velocity": 110, "channel": 0}, {"type": "note_on", "time": 5, "note": 62, "velocity": 114, "channel": 0}, {"type": "note_on", "time": 98, "note": 58, "velocity": 106, "channel": 0}, {"type": "note_off", "time": 0, "note": 62, "velocity": 114, "channel": 0}, {"type": "note_off", "time": 70, "note": 58, "velocity": 106, "channel": 0}, {"type": "note_on", "time": 7, "note": 54, "velocity": 95, "channel": 0}, {"type": "note_off", "time": 76, "note": 54, "velocity": 95, "channel": 0}, {"type": "note_on", "time": 7, "note": 58, "velocity": 108, "channel": 0}, {"type": "note_off", "time": 111, "note": 58, "velocity": 108, "channel": 0}, {"type": "note_on", "time": 5, "note": 54, "velocity": 98, "channel": 0}, {"type": "note_off", "time": 79, "note": 54, "velocity": 98, "channel": 0}, {"type": "note_on", "time": 0, "note": 56, "velocity": 107, "channel": 0}, {"type": "note_off", "time": 157, "note": 56, "velocity": 107, "channel": 0}, {"type": "note_on", "time": 413, "note": 67, "velocity": 106, "channel": 0}, {"type": "note_off", "time": 27, "note": 67, "velocity": 106, "channel": 0}, {"type": "note_on", "time": 18, "note": 69, "velocity": 118, "channel": 0}, {"type": "note_off", "time": 38, "note": 69, "velocity": 118, "channel": 0}, {"type": "note_on", "time": 1, "note": 72, "velocity": 111, "channel": 0}, {"type": "note_off", "time": 33, "note": 72, "velocity": 111, "channel": 0}, {"type": "note_on", "time": 31, "note": 75, "velocity": 115, "channel": 0}, {"type": "note_off", "time": 105, "note": 75, "velocity": 115, "channel": 0}, {"type": "note_on", "time": 0, "note": 73, "velocity": 112, "channel": 0}, {"type": "note_off", "time": 53, "note": 73, "velocity": 112, "channel": 0}, {"type": "note_on", "time": 22, "note": 71, "velocity": 121, "channel": 0}, {"type": "note_off", "time": 59, "note": 71, "velocity": 121, "channel": 0}, {"type": "note_on", "time": 20, "note": 70, "velocity": 113, "channel": 0}, {"type": "note_on", "time": 107, "note": 68, "velocity": 118, "channel": 0}, {"type": "note_off", "time": 0, "note": 70, "velocity": 113, "channel": 0}, {"type": "note_off", "time": 61, "note": 68, "velocity": 118, "channel": 0}, {"type": "note_on", "time": 12, "note": 67, "velocity": 112, "channel": 0}, {"type": "note_off", "time": 87, "note": 67, "velocity": 112, "channel": 0}, {"type": "note_on", "time": 14, "note": 66, "velocity": 114, "channel": 0}, {"type": "note_off", "time": 92, "note": 66, "velocity": 114, "channel": 0}, {"type": "note_on", "time": 16, "note": 65, "velocity": 114, "channel": 0}, {"type": "note_off", "time": 59, "note": 65, "velocity": 114, "channel": 0}, {"type": "note_on", "time": 20, "note": 64, "velocity": 116, "channel": 0}, {"type": "note_off", "time": 72, "note": 64, "velocity": 116, "channel": 0}, {"type": "note_on", "time": 11, "note": 63, "velocity": 118, "channel": 0}, {"type": "note_off", "time": 107, "note": 63, "velocity": 118, "channel": 0}, {"type": "note_on", "time": 7, "note": 62, "velocity": 115, "channel": 0}, {"type": "note_off", "time": 81, "note": 62, "velocity": 115, "channel": 0}, {"type": "note_on", "time": 1, "note": 61, "velocity": 102, "channel": 0}, {"type": "note_off", "time": 74, "note": 61, "velocity": 102, "channel": 0}, {"type": "note_on", "time": 14, "note": 62, "velocity": 102, "channel": 0}, {"type": "note_off", "time": 70, "note": 62, "velocity": 102, "channel": 0}, {"type": "note_on", "time": 7, "note": 65, "velocity": 114, "channel": 0}, {"type": "note_off", "time": 77, "note": 65, "velocity": 114, "channel": 0}, {"type": "note_on", "time": 22, "note": 64, "velocity": 120, "channel": 0}, {"type": "note_off", "time": 81, "note": 64, "velocity": 120, "channel": 0}, {"type": "note_on", "time": 16, "note": 63, "velocity": 121, "channel": 0}, {"type": "note_off", "time": 83, "note": 63, "velocity": 121, "channel": 0}, {"type": "note_on", "time": 823, "note": 73, "velocity": 91, "channel": 0}, {"type": "note_off", "time": 29, "note": 73, "velocity": 91, "channel": 0}, {"type": "note_on", "time": 5, "note": 76, "velocity": 102, "channel": 0}, {"type": "note_off", "time": 109, "note": 76, "velocity": 102, "channel": 0}, {"type": "note_on", "time": 31, "note": 75, "velocity": 115, "channel": 0}, {"type": "note_off", "time": 96, "note": 75, "velocity": 115, "channel": 0}, {"type": "note_on", "time": 7, "note": 74, "velocity": 116, "channel": 0}, {"type": "note_off", "time": 96, "note": 74, "velocity": 116, "channel": 0}, {"type": "note_on", "time": 22, "note": 72, "velocity": 106, "channel": 0}, {"type": "note_off", "time": 87, "note": 72, "velocity": 106, "channel": 0}, {"type": "note_on", "time": 3, "note": 70, "velocity": 106, "channel": 0}, {"type": "note_off", "time": 63, "note": 70, "velocity": 106, "channel": 0}, {"type": "note_on", "time": 11, "note": 69, "velocity": 114, "channel": 0}, {"type": "note_off", "time": 85, "note": 69, "velocity": 114, "channel": 0}, {"type": "note_on", "time": 7, "note": 67, "velocity": 113, "channel": 0}, {"type": "note_off", "time": 87, "note": 67, "velocity": 113, "channel": 0}, {"type": "note_on", "time": 5, "note": 65, "velocity": 110, "channel": 0}, {"type": "note_off", "time": 79, "note": 65, "velocity": 110, "channel": 0}, {"type": "note_on", "time": 5, "note": 64, "velocity": 110, "channel": 0}, {"type": "note_off", "time": 77, "note": 64, "velocity": 110, "channel": 0}, {"type": "note_on", "time": 14, "note": 63, "velocity": 119, "channel": 0}, {"type": "note_off", "time": 57, "note": 63, "velocity": 119, "channel": 0}, {"type": "note_on", "time": 44, "note": 60, "velocity": 105, "channel": 0}, {"type": "note_off", "time": 61, "note": 60, "velocity": 105, "channel": 0}, {"type": "note_on", "time": 3, "note": 67, "velocity": 117, "channel": 0}, {"type": "note_off", "time": 102, "note": 67, "velocity": 117, "channel": 0}, {"type": "note_on", "time": 24, "note": 66, "velocity": 117, "channel": 0}, {"type": "note_off", "time": 113, "note": 66, "velocity": 117, "channel": 0}, {"type": "note_on", "time": 20, "note": 65, "velocity": 114, "channel": 0}, {"type": "note_off", "time": 66, "note": 65, "velocity": 114, "channel": 0}, {"type": "note_on", "time": 7, "note": 64, "velocity": 118, "channel": 0}, {"type": "note_off", "time": 76, "note": 64, "velocity": 118, "channel": 0}, {"type": "note_on", "time": 9, "note": 63, "velocity": 118, "channel": 0}, {"type": "note_off", "time": 102, "note": 63, "velocity": 118, "channel": 0}, {"type": "note_on", "time": 7, "note": 66, "velocity": 113, "channel": 0}, {"type": "note_on", "time": 81, "note": 62, "velocity": 115, "channel": 0}, {"type": "note_off", "time": 0, "note": 66, "velocity": 113, "channel": 0}, {"type": "note_off", "time": 103, "note": 62, "velocity": 115, "channel": 0}, {"type": "note_on", "time": 0, "note": 60, "velocity": 106, "channel": 0}, {"type": "note_off", "time": 72, "note": 60, "velocity": 106, "channel": 0}, {"type": "note_on", "time": 18, "note": 57, "velocity": 113, "channel": 0}, {"type": "note_off", "time": 89, "note": 57, "velocity": 113, "channel": 0}, {"type": "note_on", "time": 26, "note": 54, "velocity": 104, "channel": 0}, {"type": "note_off", "time": 59, "note": 54, "velocity": 104, "channel": 0}, {"type": "note_on", "time": 6, "note": 58, "velocity": 110, "channel": 0}, {"type": "note_off", "time": 105, "note": 58, "velocity": 110, "channel": 0}, {"type": "note_on", "time": 66, "note": 59, "velocity": 108, "channel": 0}, {"type": "note_off", "time": 120, "note": 59, "velocity": 108, "channel": 0}, {"type": "note_on", "time": 85, "note": 60, "velocity": 115, "channel": 0}, {"type": "note_off", "time": 103, "note": 60, "velocity": 115, "channel": 0}, {"type": "note_on", "time": 0, "note": 61, "velocity": 111, "channel": 0}, {"type": "note_off", "time": 94, "note": 61, "velocity": 111, "channel": 0}, {"type": "note_on", "time": 600, "note": 66, "velocity": 121, "channel": 0}, {"type": "note_off", "time": 92, "note": 66, "velocity": 121, "channel": 0}, {"type": "note_on", "time": 14, "note": 65, "velocity": 112, "channel": 0}, {"type": "note_off", "time": 63, "note": 65, "velocity": 112, "channel": 0}, {"type": "note_on", "time": 25, "note": 65, "velocity": 114, "channel": 0}, {"type": "note_off", "time": 55, "note": 65, "velocity": 114, "channel": 0}, {"type": "note_on", "time": 9, "note": 63, "velocity": 119, "channel": 0}, {"type": "note_off", "time": 96, "note": 63, "velocity": 119, "channel": 0}, {"type": "note_on", "time": 22, "note": 62, "velocity": 119, "channel": 0}, {"type": "note_off", "time": 61, "note": 62, "velocity": 119, "channel": 0}, {"type": "note_on", "time": 11, "note": 60, "velocity": 110, "channel": 0}, {"type": "note_off", "time": 79, "note": 60, "velocity": 110, "channel": 0}, {"type": "note_on", "time": 7, "note": 59, "velocity": 110, "channel": 0}, {"type": "note_off", "time": 90, "note": 59, "velocity": 110, "channel": 0}, {"type": "note_on", "time": 1, "note": 68, "velocity": 111, "channel": 0}, {"type": "note_off", "time": 83, "note": 68, "velocity": 111, "channel": 0}, {"type": "note_on", "time": 3, "note": 66, "velocity": 114, "channel": 0}, {"type": "note_off", "time": 90, "note": 66, "velocity": 114, "channel": 0}, {"type": "note_on", "time": 0, "note": 60, "velocity": 107, "channel": 0}, {"type": "note_off", "time": 81, "note": 60, "velocity": 107, "channel": 0}, {"type": "note_on", "time": 16, "note": 62, "velocity": 117, "channel": 0}, {"type": "note_on", "time": 98, "note": 65, "velocity": 113, "channel": 0}, {"type": "note_off", "time": 0, "note": 62, "velocity": 117, "channel": 0}, {"type": "note_off", "time": 89, "note": 65, "velocity": 113, "channel": 0}, {"type": "note_on", "time": 7, "note": 62, "velocity": 111, "channel": 0}, {"type": "note_off", "time": 59, "note": 62, "velocity": 111, "channel": 0}, {"type": "note_on", "time": 14, "note": 63, "velocity": 120, "channel": 0}, {"type": "note_off", "time": 103, "note": 63, "velocity": 120, "channel": 0}, {"type": "note_on", "time": 100, "note": 70, "velocity": 104, "channel": 0}, {"type": "note_off", "time": 48, "note": 70, "velocity": 104, "channel": 0}, {"type": "note_on", "time": 35, "note": 72, "velocity": 115, "channel": 0}, {"type": "note_off", "time": 94, "note": 72, "velocity": 115, "channel": 0}, {"type": "note_on", "time": 14, "note": 73, "velocity": 107, "channel": 0}, {"type": "note_off", "time": 100, "note": 73, "velocity": 107, "channel": 0}, {"type": "note_on", "time": 1, "note": 70, "velocity": 110, "channel": 0}, {"type": "note_off", "time": 109, "note": 70, "velocity": 110, "channel": 0}, {"type": "note_on", "time": 1, "note": 67, "velocity": 92, "channel": 0}, {"type": "note_off", "time": 59, "note": 67, "velocity": 92, "channel": 0}, {"type": "note_on", "time": 5, "note": 71, "velocity": 117, "channel": 0}, {"type": "note_off", "time": 92, "note": 71, "velocity": 117, "channel": 0}, {"type": "note_on", "time": 5, "note": 72, "velocity": 107, "channel": 0}, {"type": "note_off", "time": 89, "note": 72, "velocity": 107, "channel": 0}, {"type": "note_on", "time": 5, "note": 69, "velocity": 113, "channel": 0}, {"type": "note_off", "time": 146, "note": 69, "velocity": 113, "channel": 0}, {"type": "note_on", "time": 25, "note": 70, "velocity": 113, "channel": 0}, {"type": "note_off", "time": 76, "note": 70, "velocity": 113, "channel": 0}, {"type": "note_on", "time": 16, "note": 71, "velocity": 101, "channel": 0}, {"type": "note_off", "time": 85, "note": 71, "velocity": 101, "channel": 0}, {"type": "note_on", "time": 9, "note": 68, "velocity": 112, "channel": 0}, {"type": "note_off", "time": 135, "note": 68, "velocity": 112, "channel": 0}, {"type": "note_on", "time": 18, "note": 64, "velocity": 101, "channel": 0}, {"type": "note_off", "time": 48, "note": 64, "velocity": 101, "channel": 0}, {"type": "note_on", "time": 7, "note": 69, "velocity": 111, "channel": 0}, {"type": "note_off", "time": 89, "note": 69, "velocity": 111, "channel": 0}, {"type": "note_on", "time": 11, "note": 70, "velocity": 109, "channel": 0}, {"type": "note_off", "time": 70, "note": 70, "velocity": 109, "channel": 0}, {"type": "note_on", "time": 14, "note": 67, "velocity": 110, "channel": 0}, {"type": "note_off", "time": 107, "note": 67, "velocity": 110, "channel": 0}, {"type": "note_on", "time": 14, "note": 64, "velocity": 113, "channel": 0}, {"type": "note_off", "time": 51, "note": 64, "velocity": 113, "channel": 0}, {"type": "note_on", "time": 0, "note": 68, "velocity": 110, "channel": 0}, {"type": "note_off", "time": 103, "note": 68, "velocity": 110, "channel": 0}, {"type": "note_on", "time": 3, "note": 69, "velocity": 113, "channel": 0}, {"type": "note_off", "time": 98, "note": 69, "velocity": 113, "channel": 0}, {"type": "note_on", "time": 5, "note": 65, "velocity": 109, "channel": 0}, {"type": "note_off", "time": 116, "note": 65, "velocity": 109, "channel": 0}, {"type": "note_on", "time": 37, "note": 62, "velocity": 105, "channel": 0}, {"type": "note_off", "time": 38, "note": 62, "velocity": 105, "channel": 0}, {"type": "note_on", "time": 5, "note": 66, "velocity": 113, "channel": 0}, {"type": "note_off", "time": 74, "note": 66, "velocity": 113, "channel": 0}, {"type": "note_on", "time": 3, "note": 67, "velocity": 112, "channel": 0}, {"type": "note_off", "time": 79, "note": 67, "velocity": 112, "channel": 0}, {"type": "note_on", "time": 0, "note": 63, "velocity": 118, "channel": 0}, {"type": "note_off", "time": 135, "note": 63, "velocity": 118, "channel": 0}, {"type": "note_on", "time": 37, "note": 61, "velocity": 108, "channel": 0}, {"type": "note_off", "time": 40, "note": 61, "velocity": 108, "channel": 0}, {"type": "note_on", "time": 0, "note": 65, "velocity": 118, "channel": 0}, {"type": "note_off", "time": 59, "note": 65, "velocity": 118, "channel": 0}, {"type": "note_on", "time": 7, "note": 64, "velocity": 121, "channel": 0}, {"type": "note_off", "time": 63, "note": 64, "velocity": 121, "channel": 0}, {"type": "note_on", "time": 16, "note": 63, "velocity": 118, "channel": 0}, {"type": "note_off", "time": 96, "note": 63, "velocity": 118, "channel": 0}, {"type": "note_on", "time": 20, "note": 65, "velocity": 116, "channel": 0}, {"type": "note_off", "time": 85, "note": 65, "velocity": 116, "channel": 0}, {"type": "note_on", "time": 18, "note": 60, "velocity": 110, "channel": 0}, {"type": "note_off", "time": 85, "note": 60, "velocity": 110, "channel": 0}, {"type": "note_on", "time": 7, "note": 63, "velocity": 120, "channel": 0}, {"type": "note_off", "time": 66, "note": 63, "velocity": 120, "channel": 0}, {"type": "note_on", "time": 22, "note": 62, "velocity": 114, "channel": 0}, {"type": "note_off", "time": 76, "note": 62, "velocity": 114, "channel": 0}, {"type": "note_on", "time": 24, "note": 60, "velocity": 102, "channel": 0}, {"type": "note_off", "time": 59, "note": 60, "velocity": 102, "channel": 0}, {"type": "note_on", "time": 0, "note": 58, "velocity": 111, "channel": 0}, {"type": "note_off", "time": 105, "note": 58, "velocity": 111, "channel": 0}, {"type": "note_on", "time": 16, "note": 53, "velocity": 101, "channel": 0}, {"type": "note_off", "time": 129, "note": 53, "velocity": 101, "channel": 0}, {"type": "note_on", "time": 159, "note": 69, "velocity": 120, "channel": 0}, {"type": "note_off", "time": 89, "note": 69, "velocity": 120, "channel": 0}, {"type": "note_on", "time": 5, "note": 67, "velocity": 112, "channel": 0}, {"type": "note_off", "time": 81, "note": 67, "velocity": 112, "channel": 0}, {"type": "note_on", "time": 11, "note": 65, "velocity": 113, "channel": 0}, {"type": "note_off", "time": 81, "note": 65, "velocity": 113, "channel": 0}, {"type": "note_on", "time": 24, "note": 64, "velocity": 120, "channel": 0}, {"type": "note_off", "time": 90, "note": 64, "velocity": 120, "channel": 0}, {"type": "note_on", "time": 14, "note": 63, "velocity": 121, "channel": 0}, {"type": "note_off", "time": 79, "note": 63, "velocity": 121, "channel": 0}, {"type": "note_on", "time": 14, "note": 65, "velocity": 110, "channel": 0}, {"type": "note_off", "time": 57, "note": 65, "velocity": 110, "channel": 0}, {"type": "note_on", "time": 9, "note": 67, "velocity": 105, "channel": 0}, {"type": "note_off", "time": 64, "note": 67, "velocity": 105, "channel": 0}, {"type": "note_on", "time": 51, "note": 73, "velocity": 104, "channel": 0}, {"type": "note_off", "time": 48, "note": 73, "velocity": 104, "channel": 0}, {"type": "note_on", "time": 68, "note": 77, "velocity": 118, "channel": 0}, {"type": "note_off", "time": 83, "note": 77, "velocity": 118, "channel": 0}, {"type": "note_on", "time": 3, "note": 76, "velocity": 118, "channel": 0}, {"type": "note_off", "time": 61, "note": 76, "velocity": 118, "channel": 0}, {"type": "note_on", "time": 3, "note": 75, "velocity": 110, "channel": 0}, {"type": "note_off", "time": 68, "note": 75, "velocity": 110, "channel": 0}, {"type": "note_on", "time": 20, "note": 74, "velocity": 115, "channel": 0}, {"type": "note_off", "time": 51, "note": 74, "velocity": 115, "channel": 0}, {"type": "note_on", "time": 12, "note": 72, "velocity": 110, "channel": 0}, {"type": "note_off", "time": 64, "note": 72, "velocity": 110, "channel": 0}, {"type": "note_on", "time": 38, "note": 70, "velocity": 105, "channel": 0}, {"type": "note_off", "time": 66, "note": 70, "velocity": 105, "channel": 0}, {"type": "note_on", "time": 14, "note": 69, "velocity": 112, "channel": 0}, {"type": "note_off", "time": 103, "note": 69, "velocity": 112, "channel": 0}, {"type": "note_on", "time": 3, "note": 67, "velocity": 112, "channel": 0}, {"type": "note_off", "time": 89, "note": 67, "velocity": 112, "channel": 0}, {"type": "note_on", "time": 5, "note": 65, "velocity": 114, "channel": 0}, {"type": "note_off", "time": 64, "note": 65, "velocity": 114, "channel": 0}, {"type": "note_on", "time": 7, "note": 64, "velocity": 114, "channel": 0}, {"type": "note_off", "time": 66, "note": 64, "velocity": 114, "channel": 0}, {"type": "note_on", "time": 7, "note": 63, "velocity": 119, "channel": 0}, {"type": "note_off", "time": 98, "note": 63, "velocity": 119, "channel": 0}, {"type": "note_on", "time": 42, "note": 66, "velocity": 114, "channel": 0}, {"type": "note_off", "time": 85, "note": 66, "velocity": 114, "channel": 0}, {"type": "note_on", "time": 16, "note": 62, "velocity": 117, "channel": 0}, {"type": "note_off", "time": 77, "note": 62, "velocity": 117, "channel": 0}, {"type": "note_on", "time": 9, "note": 61, "velocity": 112, "channel": 0}, {"type": "note_off", "time": 92, "note": 61, "velocity": 112, "channel": 0}, {"type": "note_on", "time": 22, "note": 56, "velocity": 107, "channel": 0}, {"type": "note_off", "time": 118, "note": 56, "velocity": 107, "channel": 0}, {"type": "note_on", "time": 25, "note": 53, "velocity": 119, "channel": 0}, {"type": "note_off", "time": 40, "note": 53, "velocity": 119, "channel": 0}, {"type": "note_on", "time": 0, "note": 58, "velocity": 105, "channel": 0}, {"type": "note_off", "time": 515, "note": 58, "velocity": 105, "channel": 0}, {"type": "note_on", "time": 9, "note": 56, "velocity": 97, "channel": 0}, {"type": "note_off", "time": 61, "note": 56, "velocity": 97, "channel": 0}, {"type": "note_on", "time": 14, "note": 58, "velocity": 100, "channel": 0}, {"type": "note_off", "time": 146, "note": 58, "velocity": 100, "channel": 0}, {"type": "end_of_track", "time": 0}]]}