{"ticks_per_beat": 20160, "tracks": [[{"type": "track_name", "name": "Melody", "time": 0}, {"type": "set_tempo", "tempo": 1224489, "time": 0}, {"type": "key_signature", "key": "Ab", "time": 0}, {"type": "time_signature", "numerator": 4, "denominator": 4, "clocks_per_click": 24, "notated_32nd_notes_per_beat": 8, "time": 0}, {"type": "note_on", "time": 163363, "note": 53, "velocity": 84, "channel": 0}, {"type": "note_off", "time": 2284, "note": 53, "velocity": 84, "channel": 0}, {"type": "note_on", "time": 0, "note": 56, "velocity": 90, "channel": 0}, {"type": "note_off", "time": 2956, "note": 56, "velocity": 90, "channel": 0}, {"type": "note_on", "time": 672, "note": 58, "velocity": 96, "channel": 0}, {"type": "note_off", "time": 2956, "note": 58, "velocity": 96, "channel": 0}, {"type": "note_on", "time": 1343, "note": 60, "velocity": 99, "channel": 0}, {"type": "note_off", "time": 2150, "note": 60, "velocity": 99, "channel": 0}, {"type": "note_on", "time": 672, "note": 63, "velocity": 114, "channel": 0}, {"type": "note_off", "time": 2419, "note": 63, "velocity": 114, "channel": 0}, {"type": "note_on", "time": 537, "note": 65, "velocity": 109, "channel": 0}, {"type": "note_off", "time": 2688, "note": 65, "velocity": 109, "channel": 0}, {"type": "note_on", "time": 940, "note": 68, "velocity": 110, "channel": 0}, {"type": "note_off", "time": 2016, "note": 68, "velocity": 110, "channel": 0}, {"type": "note_on", "time": 537, "note": 70, "velocity": 82, "channel": 0}, {"type": "note_off", "time": 2016, "note": 70, "velocity": 82, "channel": 0}, {"type": "note_on", "time": 134, "note": 72, "velocity": 104, "channel": 0}, {"type": "note_off", "time": 30777, "note": 72, "velocity": 104, "channel": 0}, {"type": "note_on", "time": 671, "note": 70, "velocity": 104, "channel": 0}, {"type": "note_off", "time": 27417, "note": 70, "velocity": 104, "channel": 0}, {"type": "note_on", "time": 22579, "note": 60, "velocity": 107, "channel": 0}, {"type": "note_off", "time": 1478, "note": 60, "velocity": 107, "channel": 0}, {"type": "note_on", "time": 268, "note": 62, "velocity": 116, "channel": 0}, {"type": "note_off", "time": 4838, "note": 62, "velocity": 116, "channel": 0}, {"type": "note_on", "time": 134, "note": 65, "velocity": 114, "channel": 0}, {"type": "note_off", "time": 3763, "note": 65, "velocity": 114, "channel": 0}, {"type": "note_on", "time": 2822, "note": 72, "velocity": 95, "channel": 0}, {"type": "note_off", "time": 1344, "note": 72, "velocity": 95, "channel": 0}, {"type": "note_on", "time": 537, "note": 74, "velocity": 106, "channel": 0}, {"type": "note_off", "time": 2553, "note": 74, "velocity": 106, "channel": 0}, {"type": "note_on", "time": 268, "note": 72, "velocity": 111, "channel": 0}, {"type": "note_off", "time": 2822, "note": 72, "velocity": 111, "channel": 0}, {"type": "note_on", "time": 806, "note": 70, "velocity": 110, "channel": 0}, {"type": "note_off", "time": 18009, "note": 70, "velocity": 110, "channel": 0}, {"type": "note_on", "time": 16459, "note": 67, "velocity": 94, "channel": 0}, {"type": "note_off", "time": 1612, "note": 67, "velocity": 94, "channel": 0}, {"type": "note_on", "time": 206, "note": 68, "velocity": 111, "channel": 0}, {"type": "note_off", "time": 2284, "note": 68, "velocity": 111, "channel": 0}, {"type": "note_on", "time": 268, "note": 67, "velocity": 110, "channel": 0}, {"type": "note_on", "time": 8735, "note": 63, "velocity": 115, "channel": 0}, {"type": "note_off", "time": 0, "note": 67, "velocity": 110, "channel": 0}, {"type": "note_off", "time": 6047, "note": 63, "velocity": 115, "channel": 0}, {"type": "note_on", "time": 403, "note": 60, "velocity": 112, "channel": 0}, {"type": "note_off", "time": 3494, "note": 60, "velocity": 112, "channel": 0}, {"type": "note_on", "time": 940, "note": 56, "velocity": 100, "channel": 0}, {"type": "note_off", "time": 2419, "note": 56, "velocity": 100, "channel": 0}, {"type": "note_on", "time": 537, "note": 58, "velocity": 100, "channel": 0}, {"type": "note_off", "time": 19756, "note": 58, "velocity": 100, "channel": 0}, {"type": "note_on", "time": 43417, "note": 51, "velocity": 92, "channel": 0}, {"type": "note_off", "time": 955, "note": 51, "velocity": 92, "channel": 0}, {"type": "note_on", "time": 191, "note": 53, "velocity": 97, "channel": 0}, {"type": "note_off", "time": 1911, "note": 53, "velocity": 97, "channel": 0}, {"type": "note_on", "time": 191, "note": 55, "velocity": 101, "channel": 0}, {"type": "note_off", "time": 1911, "note": 55, "velocity": 101, "channel": 0}, {"type": "note_on", "time": 382, "note": 56, "velocity": 98, "channel": 0}, {"type": "note_off", "time": 1720, "note": 56, "velocity": 98, "channel": 0}, {"type": "note_on", "time": 382, "note": 58, "velocity": 101, "channel": 0}, {"type": "note_off", "time": 2389, "note": 58, "velocity": 101, "channel": 0}, {"type": "note_on", "time": 669, "note": 60, "velocity": 114, "channel": 0}, {"type": "note_off", "time": 2484, "note": 60, "velocity": 114, "channel": 0}, {"type": "note_on", "time": 286, "note": 62, "velocity": 119, "channel": 0}, {"type": "note_off", "time": 2102, "note": 62, "velocity": 119, "channel": 0}, {"type": "note_on", "time": 477, "note": 64, "velocity": 122, "channel": 0}, {"type": "note_off", "time": 1911, "note": 64, "velocity": 122, "channel": 0}, {"type": "note_on", "time": 0, "note": 65, "velocity": 113, "channel": 0}, {"type": "note_off", "time": 2007, "note": 65, "velocity": 113, "channel": 0}, {"type": "note_on", "time": 95, "note": 67, "velocity": 110, "channel": 0}, {"type": "note_off", "time": 2771, "note": 67, "velocity": 110, "channel": 0}, {"type": "note_on", "time": 0, "note": 68, "velocity": 113, "channel": 0}, {"type": "note_off", "time": 2102, "note": 68, "velocity": 113, "channel": 0}, {"type": "note_on", "time": 0, "note": 70, "velocity": 113, "channel": 0}, {"type": "note_off", "time": 2293, "note": 70, "velocity": 113, "channel": 0}, {"type": "note_on", "time": 442, "note": 72, "velocity": 112, "channel": 0}, {"type": "note_off", "time": 2419, "note": 72, "velocity": 112, "channel": 0}, {"type": "note_on", "time": 292, "note": 70, "velocity": 108, "channel": 0}, {"type": "note_off", "time": 2484, "note": 70, "velocity": 108, "channel": 0}, {"type": "note_on", "time": 95, "note": 68, "velocity": 110, "channel": 0}, {"type": "note_off", "time": 2389, "note": 68, "velocity": 110, "channel": 0}, {"type": "note_on", "time": 477, "note": 67, "velocity": 107, "channel": 0}, {"type": "note_off", "time": 10035, "note": 67, "velocity": 107, "channel": 0}, {"type": "note_on", "time": 286, "note": 65, "velocity": 106, "channel": 0}, {"type": "note_off", "time": 3058, "note": 65, "velocity": 106, "channel": 0}, {"type": "note_on", "time": 860, "note": 64, "velocity": 115, "channel": 0}, {"type": "note_off", "time": 2007, "note": 64, "velocity": 115, "channel": 0}, {"type": "note_on", "time": 0, "note": 67, "velocity": 100, "channel": 0}, {"type": "note_off", "time": 2293, "note": 67, "velocity": 100, "channel": 0}, {"type": "note_on", "time": 477, "note": 60, "velocity": 87, "channel": 0}, {"type": "note_off", "time": 24275, "note": 60, "velocity": 87, "channel": 0}, {"type": "note_on", "time": 5638, "note": 63, "velocity": 123, "channel": 0}, {"type": "note_off", "time": 2867, "note": 63, "velocity": 123, "channel": 0}, {"type": "note_on", "time": 2198, "note": 61, "velocity": 118, "channel": 0}, {"type": "note_off", "time": 2484, "note": 61, "velocity": 118, "channel": 0}, {"type": "note_on", "time": 0, "note": 60, "velocity": 116, "channel": 0}, {"type": "note_off", "time": 3918, "note": 60, "velocity": 116, "channel": 0}, {"type": "note_on", "time": 0, "note": 61, "velocity": 118, "channel": 0}, {"type": "note_off", "time": 3822, "note": 61, "velocity": 118, "channel": 0}, {"type": "note_on", "time": 0, "note": 60, "velocity": 110, "channel": 0}, {"type": "note_off", "time": 2580, "note": 60, "velocity": 110, "channel": 0}, {"type": "note_on", "time": 95, "note": 61, "velocity": 118, "channel": 0}, {"type": "note_off", "time": 10608, "note": 61, "velocity": 118, "channel": 0}, {"type": "note_on", "time": 33259, "note": 68, "velocity": 111, "channel": 0}, {"type": "note_off", "time": 1624, "note": 68, "velocity": 111, "channel": 0}, {"type": "note_on", "time": 286, "note": 67, "velocity": 112, "channel": 0}, {"type": "note_off", "time": 2676, "note": 67, "velocity": 112, "channel": 0}, {"type": "note_on", "time": 286, "note": 68, "velocity": 111, "channel": 0}, {"type": "note_off", "time": 3058, "note": 68, "velocity": 111, "channel": 0}, {"type": "note_on", "time": 286, "note": 67, "velocity": 110, "channel": 0}, {"type": "note_off", "time": 2676, "note": 67, "velocity": 110, "channel": 0}, {"type": "note_on", "time": 382, "note": 68, "velocity": 113, "channel": 0}, {"type": "note_off", "time": 5256, "note": 68, "velocity": 113, "channel": 0}, {"type": "note_on", "time": 477, "note": 61, "velocity": 101, "channel": 0}, {"type": "note_off", "time": 2867, "note": 61, "velocity": 101, "channel": 0}, {"type": "note_on", "time": 15100, "note": 54, "velocity": 100, "channel": 0}, {"type": "note_off", "time": 2867, "note": 54, "velocity": 100, "channel": 0}, {"type": "note_on", "time": 191, "note": 57, "velocity": 97, "channel": 0}, {"type": "note_off", "time": 2102, "note": 57, "velocity": 97, "channel": 0}, {"type": "note_on", "time": 286, "note": 62, "velocity": 121, "channel": 0}, {"type": "note_off", "time": 2484, "note": 62, "velocity": 121, "channel": 0}, {"type": "note_on", "time": 95, "note": 63, "velocity": 123, "channel": 0}, {"type": "note_off", "time": 2580, "note": 63, "velocity": 123, "channel": 0}, {"type": "note_on", "time": 286, "note": 66, "velocity": 114, "channel": 0}, {"type": "note_off", "time": 2771, "note": 66, "velocity": 114, "channel": 0}, {"type": "note_on", "time": 286, "note": 69, "velocity": 117, "channel": 0}, {"type": "note_off", "time": 2007, "note": 69, "velocity": 117, "channel": 0}, {"type": "note_on", "time": 2007, "note": 74, "velocity": 106, "channel": 0}, {"type": "note_off", "time": 2676, "note": 74, "velocity": 106, "channel": 0}, {"type": "note_on", "time": 191, "note": 72, "velocity": 113, "channel": 0}, {"type": "note_off", "time": 2007, "note": 72, "velocity": 113, "channel": 0}, {"type": "note_on", "time": 477, "note": 71, "velocity": 111, "channel": 0}, {"type": "note_off", "time": 8888, "note": 71, "velocity": 111, "channel": 0}, {"type": "note_on", "time": 2102, "note": 69, "velocity": 116, "channel": 0}, {"type": "note_off", "time": 2198, "note": 69, "velocity": 116, "channel": 0}, {"type": "note_on", "time": 1529, "note": 68, "velocity": 113, "channel": 0}, {"type": "note_off", "time": 8028, "note": 68, "velocity": 113, "channel": 0}, {"type": "note_on", "time": 1720, "note": 66, "velocity": 106, "channel": 0}, {"type": "note_off", "time": 1720, "note": 66, "velocity": 106, "channel": 0}, {"type": "note_on", "time": 2198, "note": 64, "velocity": 126, "channel": 0}, {"type": "note_off", "time": 8028, "note": 64, "velocity": 126, "channel": 0}, {"type": "note_on", "time": 2580, "note": 63, "velocity": 108, "channel": 0}, {"type": "note_off", "time": 2007, "note": 63, "velocity": 108, "channel": 0}, {"type": "note_on", "time": 2867, "note": 61, "velocity": 109, "channel": 0}, {"type": "note_off", "time": 5638, "note": 61, "velocity": 109, "channel": 0}, {"type": "note_on", "time": 17489, "note": 51, "velocity": 103, "channel": 0}, {"type": "note_off", "time": 1720, "note": 51, "velocity": 103, "channel": 0}, {"type": "note_on", "time": 382, "note": 54, "velocity": 98, "channel": 0}, {"type": "note_off", "time": 2389, "note": 54, "velocity": 98, "channel": 0}, {"type": "note_on", "time": 1146, "note": 59, "velocity": 115, "channel": 0}, {"type": "note_off", "time": 1815, "note": 59, "velocity": 115, "channel": 0}, {"type": "note_on", "time": 0, "note": 62, "velocity": 122, "channel": 0}, {"type": "note_off", "time": 1433, "note": 62, "velocity": 122, "channel": 0}, {"type": "note_on", "time": 95, "note": 63, "velocity": 120, "channel": 0}, {"type": "note_off", "time": 9748, "note": 63, "velocity": 120, "channel": 0}, {"type": "note_on", "time": 191, "note": 59, "velocity": 98, "channel": 0}, {"type": "note_off", "time": 2198, "note": 59, "velocity": 98, "channel": 0}, {"type": "note_on", "time": 0, "note": 63, "velocity": 110, "channel": 0}, {"type": "note_off", "time": 2771, "note": 63, "velocity": 110, "channel": 0}, {"type": "note_on", "time": 2102, "note": 66, "velocity": 108, "channel": 0}, {"type": "note_off", "time": 17394, "note": 66, "velocity": 108, "channel": 0}, {"type": "note_on", "time": 0, "note": 62, "velocity": 105, "channel": 0}, {"type": "note_off", "time": 1624, "note": 62, "velocity": 105, "channel": 0}, {"type": "note_on", "time": 0, "note": 57, "velocity": 99, "channel": 0}, {"type": "note_off", "time": 1720, "note": 57, "velocity": 99, "channel": 0}, {"type": "note_on", "time": 2198, "note": 66, "velocity": 105, "channel": 0}, {"type": "note_off", "time": 12520, "note": 66, "velocity": 105, "channel": 0}, {"type": "note_on", "time": 349, "note": 63, "velocity": 112, "channel": 0}, {"type": "note_off", "time": 1338, "note": 63, "velocity": 112, "channel": 0}, {"type": "note_on", "time": 128, "note": 66, "velocity": 107, "channel": 0}, {"type": "note_off", "time": 1720, "note": 66, "velocity": 107, "channel": 0}, {"type": "note_on", "time": 1529, "note": 68, "velocity": 104, "channel": 0}, {"type": "note_off", "time": 15865, "note": 68, "velocity": 104, "channel": 0}, {"type": "note_on", "time": 21695, "note": 73, "velocity": 108, "channel": 0}, {"type": "note_off", "time": 2389, "note": 73, "velocity": 108, "channel": 0}, {"type": "note_on", "time": 0, "note": 72, "velocity": 113, "channel": 0}, {"type": "note_off", "time": 1433, "note": 72, "velocity": 113, "channel": 0}, {"type": "note_on", "time": 0, "note": 71, "velocity": 114, "channel": 0}, {"type": "note_off", "time": 1242, "note": 71, "velocity": 114, "channel": 0}, {"type": "note_on", "time": 286, "note": 70, "velocity": 113, "channel": 0}, {"type": "note_off", "time": 21121, "note": 70, "velocity": 113, "channel": 0}, {"type": "note_on", "time": 669, "note": 68, "velocity": 111, "channel": 0}, {"type": "note_off", "time": 2867, "note": 68, "velocity": 111, "channel": 0}, {"type": "note_on", "time": 382, "note": 67, "velocity": 121, "channel": 0}, {"type": "note_on", "time": 2102, "note": 70, "velocity": 117, "channel": 0}, {"type": "note_off", "time": 0, "note": 67, "velocity": 121, "channel": 0}, {"type": "note_off", "time": 2867, "note": 70, "velocity": 117, "channel": 0}, {"type": "note_on", "time": 0, "note": 67, "velocity": 110, "channel": 0}, {"type": "note_off", "time": 2771, "note": 67, "velocity": 110, "channel": 0}, {"type": "note_on", "time": 0, "note": 63, "velocity": 121, "channel": 0}, {"type": "note_off", "time": 2580, "note": 63, "velocity": 121, "channel": 0}, {"type": "note_on", "time": 95, "note": 65, "velocity": 112, "channel": 0}, {"type": "note_off", "time": 2007, "note": 65, "velocity": 112, "channel": 0}, {"type": "note_on", "time": 95, "note": 67, "velocity": 103, "channel": 0}, {"type": "note_off", "time": 22173, "note": 67, "velocity": 103, "channel": 0}, {"type": "note_on", "time": 95, "note": 70, "velocity": 113, "channel": 0}, {"type": "note_off", "time": 2007, "note": 70, "velocity": 113, "channel": 0}, {"type": "note_on", "time": 0, "note": 67, "velocity": 109, "channel": 0}, {"type": "note_off", "time": 15674, "note": 67, "velocity": 109, "channel": 0}, {"type": "note_on", "time": 391, "note": 67, "velocity": 102, "channel": 0}, {"type": "note_off", "time": 873, "note": 67, "velocity": 102, "channel": 0}, {"type": "note_on", "time": 336, "note": 68, "velocity": 111, "channel": 0}, {"type": "note_off", "time": 1478, "note": 68, "velocity": 111, "channel": 0}, {"type": "note_on", "time": 134, "note": 67, "velocity": 116, "channel": 0}, {"type": "note_off", "time": 1142, "note": 67, "velocity": 116, "channel": 0}, {"type": "note_on", "time": 403, "note": 70, "velocity": 111, "channel": 0}, {"type": "note_off", "time": 1142, "note": 70, "velocity": 111, "channel": 0}, {"type": "note_on", "time": 201, "note": 67, "velocity": 116, "channel": 0}, {"type": "note_off", "time": 1142, "note": 67, "velocity": 116, "channel": 0}, {"type": "note_on", "time": 672, "note": 69, "velocity": 111, "channel": 0}, {"type": "note_off", "time": 1142, "note": 69, "velocity": 111, "channel": 0}, {"type": "note_on", "time": 201, "note": 67, "velocity": 104, "channel": 0}, {"type": "note_off", "time": 1411, "note": 67, "velocity": 104, "channel": 0}, {"type": "note_on", "time": 201, "note": 68, "velocity": 106, "channel": 0}, {"type": "note_off", "time": 1075, "note": 68, "velocity": 106, "channel": 0}, {"type": "note_on", "time": 0, "note": 71, "velocity": 102, "channel": 0}, {"type": "note_off", "time": 1948, "note": 71, "velocity": 102, "channel": 0}, {"type": "note_on", "time": 0, "note": 70, "velocity": 107, "channel": 0}, {"type": "note_off", "time": 10214, "note": 70, "velocity": 107, "channel": 0}, {"type": "note_on", "time": 5980, "note": 67, "velocity": 109, "channel": 0}, {"type": "note_off", "time": 2217, "note": 67, "velocity": 109, "channel": 0}, {"type": "note_on", "time": 537, "note": 63, "velocity": 119, "channel": 0}, {"type": "note_off", "time": 2284, "note": 63, "velocity": 119, "channel": 0}, {"type": "note_on", "time": 132, "note": 58, "velocity": 104, "channel": 0}, {"type": "note_off", "time": 860, "note": 58, "velocity": 104, "channel": 0}, {"type": "note_on", "time": 191, "note": 59, "velocity": 109, "channel": 0}, {"type": "note_off", "time": 764, "note": 59, "velocity": 109, "channel": 0}, {"type": "note_on", "time": 403, "note": 58, "velocity": 104, "channel": 0}, {"type": "note_off", "time": 3091, "note": 58, "velocity": 104, "channel": 0}, {"type": "note_on", "time": 67, "note": 59, "velocity": 102, "channel": 0}, {"type": "note_off", "time": 1545, "note": 59, "velocity": 102, "channel": 0}, {"type": "note_on", "time": 201, "note": 58, "velocity": 101, "channel": 0}, {"type": "note_off", "time": 9340, "note": 58, "velocity": 101, "channel": 0}, {"type": "note_on", "time": 201, "note": 53, "velocity": 107, "channel": 0}, {"type": "note_off", "time": 1680, "note": 53, "velocity": 107, "channel": 0}, {"type": "note_on", "time": 672, "note": 48, "velocity": 106, "channel": 0}, {"type": "note_off", "time": 2284, "note": 48, "velocity": 106, "channel": 0}, {"type": "note_on", "time": 21772, "note": 32, "velocity": 124, "channel": 0}, {"type": "note_off", "time": 2150, "note": 32, "velocity": 124, "channel": 0}, {"type": "note_on", "time": 1142, "note": 56, "velocity": 107, "channel": 0}, {"type": "note_off", "time": 1881, "note": 56, "velocity": 107, "channel": 0}, {"type": "note_on", "time": 134, "note": 53, "velocity": 107, "channel": 0}, {"type": "note_off", "time": 2352, "note": 53, "velocity": 107, "channel": 0}, {"type": "note_on", "time": 107, "note": 49, "velocity": 109, "channel": 0}, {"type": "note_off", "time": 2486, "note": 49, "velocity": 109, "channel": 0}, {"type": "note_on", "time": 26, "note": 53, "velocity": 110, "channel": 0}, {"type": "note_off", "time": 2217, "note": 53, "velocity": 110, "channel": 0}, {"type": "note_on", "time": 0, "note": 56, "velocity": 104, "channel": 0}, {"type": "note_off", "time": 2553, "note": 56, "velocity": 104, "channel": 0}, {"type": "note_on", "time": 268, "note": 63, "velocity": 119, "channel": 0}, {"type": "note_off", "time": 2217, "note": 63, "velocity": 119, "channel": 0}, {"type": "note_on", "time": 0, "note": 59, "velocity": 99, "channel": 0}, {"type": "note_off", "time": 2620, "note": 59, "velocity": 99, "channel": 0}, {"type": "note_on", "time": 335, "note": 63, "velocity": 100, "channel": 0}, {"type": "note_off", "time": 1612, "note": 63, "velocity": 100, "channel": 0}, {"type": "note_on", "time": 470, "note": 65, "velocity": 113, "channel": 0}, {"type": "note_off", "time": 1948, "note": 65, "velocity": 113, "channel": 0}, {"type": "note_on", "time": 0, "note": 67, "velocity": 108, "channel": 0}, {"type": "note_off", "time": 1948, "note": 67, "velocity": 108, "channel": 0}, {"type": "note_on", "time": 537, "note": 68, "velocity": 111, "channel": 0}, {"type": "note_off", "time": 1881, "note": 68, "velocity": 111, "channel": 0}, {"type": "note_on", "time": 470, "note": 70, "velocity": 114, "channel": 0}, {"type": "note_off", "time": 1881, "note": 70, "velocity": 114, "channel": 0}, {"type": "note_on", "time": 201, "note": 72, "velocity": 107, "channel": 0}, {"type": "note_off", "time": 2217, "note": 72, "velocity": 107, "channel": 0}, {"type": "note_on", "time": 470, "note": 73, "velocity": 108, "channel": 0}, {"type": "note_off", "time": 1814, "note": 73, "velocity": 108, "channel": 0}, {"type": "note_on", "time": 470, "note": 75, "velocity": 108, "channel": 0}, {"type": "note_off", "time": 2688, "note": 75, "velocity": 108, "channel": 0}, {"type": "note_on", "time": 739, "note": 72, "velocity": 95, "channel": 0}, {"type": "note_off", "time": 1142, "note": 72, "velocity": 95, "channel": 0}, {"type": "note_on", "time": 537, "note": 73, "velocity": 104, "channel": 0}, {"type": "note_off", "time": 2150, "note": 73, "velocity": 104, "channel": 0}, {"type": "note_on", "time": 201, "note": 72, "velocity": 104, "channel": 0}, {"type": "note_off", "time": 1276, "note": 72, "velocity": 104, "channel": 0}, {"type": "note_on", "time": 67, "note": 71, "velocity": 108, "channel": 0}, {"type": "note_off", "time": 1209, "note": 71, "velocity": 108, "channel": 0}, {"type": "note_on", "time": 604, "note": 70, "velocity": 111, "channel": 0}, {"type": "note_off", "time": 21100, "note": 70, "velocity": 111, "channel": 0}, {"type": "note_on", "time": 5980, "note": 70, "velocity": 112, "channel": 0}, {"type": "note_off", "time": 1612, "note": 70, "velocity": 112, "channel": 0}, {"type": "note_on", "time": 0, "note": 66, "velocity": 105, "channel": 0}, {"type": "note_off", "time": 1814, "note": 66, "velocity": 105, "channel": 0}, {"type": "note_on", "time": 403, "note": 62, "velocity": 118, "channel": 0}, {"type": "note_off", "time": 1680, "note": 62, "velocity": 118, "channel": 0}, {"type": "note_on", "time": 201, "note": 66, "velocity": 104, "channel": 0}, {"type": "note_off", "time": 1814, "note": 66, "velocity": 104, "channel": 0}, {"type": "note_on", "time": 134, "note": 64, "velocity": 121, "channel": 0}, {"type": "note_off", "time": 5980, "note": 64, "velocity": 121, "channel": 0}, {"type": "note_on", "time": 67, "note": 62, "velocity": 113, "channel": 0}, {"type": "note_off", "time": 1747, "note": 62, "velocity": 113, "channel": 0}, {"type": "note_on", "time": 134, "note": 59, "velocity": 62, "channel": 0}, {"type": "note_off", "time": 1411, "note": 59, "velocity": 62, "channel": 0}, {"type": "note_on", "time": 0, "note": 56, "velocity": 105, "channel": 0}, {"type": "note_off", "time": 1276, "note": 56, "velocity": 105, "channel": 0}, {"type": "note_on", "time": 537, "note": 54, "velocity": 105, "channel": 0}, {"type": "note_off", "time": 1344, "note": 54, "velocity": 105, "channel": 0}, {"type": "note_on", "time": 268, "note": 56, "velocity": 110, "channel": 0}, {"type": "note_off", "time": 1344, "note": 56, "velocity": 110, "channel": 0}, {"type": "note_on", "time": 268, "note": 59, "velocity": 106, "channel": 0}, {"type": "note_off", "time": 1209, "note": 59, "velocity": 106, "channel": 0}, {"type": "note_on", "time": 0, "note": 62, "velocity": 114, "channel": 0}, {"type": "note_off", "time": 1478, "note": 62, "velocity": 114, "channel": 0}, {"type": "note_on", "time": 67, "note": 58, "velocity": 107, "channel": 0}, {"type": "note_off", "time": 1545, "note": 58, "velocity": 107, "channel": 0}, {"type": "note_on", "time": 134, "note": 61, "velocity": 116, "channel": 0}, {"type": "note_off", "time": 1075, "note": 61, "velocity": 116, "channel": 0}, {"type": "note_on", "time": 67, "note": 62, "velocity": 112, "channel": 0}, {"type": "note_off", "time": 1314, "note": 62, "velocity": 112, "channel": 0}, {"type": "note_on", "time": 0, "note": 65, "velocity": 106, "channel": 0}, {"type": "note_off", "time": 1433, "note": 65, "velocity": 106, "channel": 0}, {"type": "note_on", "time": 95, "note": 68, "velocity": 107, "channel": 0}, {"type": "note_off", "time": 1255, "note": 68, "velocity": 107, "channel": 0}, {"type": "note_on", "time": 0, "note": 73, "velocity": 106, "channel": 0}, {"type": "note_off", "time": 2217, "note": 73, "velocity": 106, "channel": 0}, {"type": "note_on", "time": 158, "note": 71, "velocity": 109, "channel": 0}, {"type": "note_off", "time": 2007, "note": 71, "velocity": 109, "channel": 0}, {"type": "note_on", "time": 382, "note": 70, "velocity": 111, "channel": 0}, {"type": "note_off", "time": 5734, "note": 70, "velocity": 111, "channel": 0}, {"type": "note_on", "time": 0, "note": 68, "velocity": 109, "channel": 0}, {"type": "note_off", "time": 3058, "note": 68, "velocity": 109, "channel": 0}, {"type": "note_on", "time": 573, "note": 70, "velocity": 109, "channel": 0}, {"type": "note_off", "time": 1720, "note": 70, "velocity": 109, "channel": 0}, {"type": "note_on", "time": 477, "note": 63, "velocity": 101, "channel": 0}, {"type": "note_off", "time": 2198, "note": 63, "velocity": 101, "channel": 0}, {"type": "note_on", "time": 0, "note": 66, "velocity": 101, "channel": 0}, {"type": "note_off", "time": 10226, "note": 66, "velocity": 101, "channel": 0}, {"type": "note_on", "time": 11994, "note": 46, "velocity": 114, "channel": 0}, {"type": "note_off", "time": 2054, "note": 46, "velocity": 114, "channel": 0}, {"type": "note_on", "time": 0, "note": 51, "velocity": 115, "channel": 0}, {"type": "note_off", "time": 1624, "note": 51, "velocity": 115, "channel": 0}, {"type": "note_on", "time": 95, "note": 50, "velocity": 111, "channel": 0}, {"type": "note_off", "time": 1433, "note": 50, "velocity": 111, "channel": 0}, {"type": "note_on", "time": 0, "note": 54, "velocity": 105, "channel": 0}, {"type": "note_off", "time": 1720, "note": 54, "velocity": 105, "channel": 0}, {"type": "note_on", "time": 0, "note": 57, "velocity": 105, "channel": 0}, {"type": "note_off", "time": 1146, "note": 57, "velocity": 105, "channel": 0}, {"type": "note_on", "time": 286, "note": 58, "velocity": 103, "channel": 0}, {"type": "note_off", "time": 1051, "note": 58, "velocity": 103, "channel": 0}, {"type": "note_on", "time": 0, "note": 60, "velocity": 114, "channel": 0}, {"type": "note_off", "time": 1433, "note": 60, "velocity": 114, "channel": 0}, {"type": "note_on", "time": 0, "note": 62, "velocity": 121, "channel": 0}, {"type": "note_off", "time": 1529, "note": 62, "velocity": 121, "channel": 0}, {"type": "note_on", "time": 0, "note": 64, "velocity": 123, "channel": 0}, {"type": "note_off", "time": 1911, "note": 64, "velocity": 123, "channel": 0}, {"type": "note_on", "time": 191, "note": 62, "velocity": 117, "channel": 0}, {"type": "note_off", "time": 10035, "note": 62, "velocity": 117, "channel": 0}, {"type": "note_on", "time": 0, "note": 60, "velocity": 111, "channel": 0}, {"type": "note_off", "time": 1624, "note": 60, "velocity": 111, "channel": 0}, {"type": "note_on", "time": 191, "note": 58, "velocity": 105, "channel": 0}, {"type": "note_off", "time": 1433, "note": 58, "velocity": 105, "channel": 0}, {"type": "note_on", "time": 0, "note": 54, "velocity": 105, "channel": 0}, {"type": "note_off", "time": 1815, "note": 54, "velocity": 105, "channel": 0}, {"type": "note_on", "time": 167, "note": 50, "velocity": 112, "channel": 0}, {"type": "note_off", "time": 2317, "note": 50, "velocity": 112, "channel": 0}, {"type": "note_on", "time": 0, "note": 51, "velocity": 114, "channel": 0}, {"type": "note_off", "time": 669, "note": 51, "velocity": 114, "channel": 0}, {"type": "note_on", "time": 23, "note": 54, "velocity": 109, "channel": 0}, {"type": "note_off", "time": 501, "note": 54, "velocity": 109, "channel": 0}, {"type": "note_on", "time": 113, "note": 55, "velocity": 102, "channel": 0}, {"type": "note_off", "time": 873, "note": 55, "velocity": 102, "channel": 0}, {"type": "note_on", "time": 335, "note": 57, "velocity": 106, "channel": 0}, {"type": "note_off", "time": 739, "note": 57, "velocity": 106, "channel": 0}, {"type": "note_on", "time": 40, "note": 58, "velocity": 106, "channel": 0}, {"type": "note_off", "time": 860, "note": 58, "velocity": 106, "channel": 0}, {"type": "note_on", "time": 241, "note": 60, "velocity": 118, "channel": 0}, {"type": "note_off", "time": 940, "note": 60, "velocity": 118, "channel": 0}, {"type": "note_on", "time": 131, "note": 62, "velocity": 116, "channel": 0}, {"type": "note_off", "time": 477, "note": 62, "velocity": 116, "channel": 0}, {"type": "note_on", "time": 119, "note": 63, "velocity": 113, "channel": 0}, {"type": "note_off", "time": 382, "note": 63, "velocity": 113, "channel": 0}, {"type": "note_on", "time": 119, "note": 66, "velocity": 107, "channel": 0}, {"type": "note_off", "time": 669, "note": 66, "velocity": 107, "channel": 0}, {"type": "note_on", "time": 71, "note": 67, "velocity": 108, "channel": 0}, {"type": "note_off", "time": 1146, "note": 67, "velocity": 108, "channel": 0}, {"type": "note_on", "time": 95, "note": 70, "velocity": 111, "channel": 0}, {"type": "note_off", "time": 477, "note": 70, "velocity": 111, "channel": 0}, {"type": "note_on", "time": 71, "note": 72, "velocity": 106, "channel": 0}, {"type": "note_off", "time": 573, "note": 72, "velocity": 106, "channel": 0}, {"type": "note_on", "time": 98, "note": 74, "velocity": 103, "channel": 0}, {"type": "note_off", "time": 1948, "note": 74, "velocity": 103, "channel": 0}, {"type": "note_on", "time": 0, "note": 72, "velocity": 104, "channel": 0}, {"type": "note_off", "time": 739, "note": 72, "velocity": 104, "channel": 0}, {"type": "note_on", "time": 67, "note": 70, "velocity": 109, "channel": 0}, {"type": "note_off", "time": 1612, "note": 70, "velocity": 109, "channel": 0}, {"type": "note_on", "time": 134, "note": 69, "velocity": 114, "channel": 0}, {"type": "note_off", "time": 2352, "note": 69, "velocity": 114, "channel": 0}, {"type": "note_on", "time": 336, "note": 70, "velocity": 109, "channel": 0}, {"type": "note_off", "time": 1814, "note": 70, "velocity": 109, "channel": 0}, {"type": "note_on", "time": 1142, "note": 72, "velocity": 108, "channel": 0}, {"type": "note_off", "time": 2620, "note": 72, "velocity": 108, "channel": 0}, {"type": "note_on", "time": 1411, "note": 74, "velocity": 101, "channel": 0}, {"type": "note_off", "time": 7123, "note": 74, "velocity": 101, "channel": 0}, {"type": "note_on", "time": 2755, "note": 70, "velocity": 105, "channel": 0}, {"type": "note_off", "time": 2352, "note": 70, "velocity": 105, "channel": 0}, {"type": "note_on", "time": 537, "note": 67, "velocity": 104, "channel": 0}, {"type": "note_off", "time": 2284, "note": 67, "velocity": 104, "channel": 0}, {"type": "note_on", "time": 940, "note": 62, "velocity": 113, "channel": 0}, {"type": "note_off", "time": 2016, "note": 62, "velocity": 113, "channel": 0}, {"type": "note_on", "time": 403, "note": 60, "velocity": 108, "channel": 0}, {"type": "note_off", "time": 2822, "note": 60, "velocity": 108, "channel": 0}, {"type": "note_on", "time": 940, "note": 58, "velocity": 93, "channel": 0}, {"type": "note_off", "time": 2217, "note": 58, "velocity": 93, "channel": 0}, {"type": "note_on", "time": 1015, "note": 55, "velocity": 96, "channel": 0}, {"type": "note_off", "time": 3249, "note": 55, "velocity": 96, "channel": 0}, {"type": "note_on", "time": 17440, "note": 54, "velocity": 104, "channel": 0}, {"type": "note_off", "time": 2352, "note": 54, "velocity": 104, "channel": 0}, {"type": "note_on", "time": 268, "note": 57, "velocity": 107, "channel": 0}, {"type": "note_off", "time": 2352, "note": 57, "velocity": 107, "channel": 0}, {"type": "note_on", "time": 134, "note": 63, "velocity": 121, "channel": 0}, {"type": "note_off", "time": 2822, "note": 63, "velocity": 121, "channel": 0}, {"type": "note_on", "time": 201, "note": 66, "velocity": 111, "channel": 0}, {"type": "note_off", "time": 2620, "note": 66, "velocity": 111, "channel": 0}, {"type": "note_on", "time": 1545, "note": 68, "velocity": 110, "channel": 0}, {"type": "note_off", "time": 1948, "note": 68, "velocity": 110, "channel": 0}, {"type": "note_on", "time": 739, "note": 72, "velocity": 108, "channel": 0}, {"type": "note_off", "time": 1948, "note": 72, "velocity": 108, "channel": 0}, {"type": "note_on", "time": 672, "note": 70, "velocity": 110, "channel": 0}, {"type": "note_off", "time": 2083, "note": 70, "velocity": 110, "channel": 0}, {"type": "note_on", "time": 537, "note": 65, "velocity": 111, "channel": 0}, {"type": "note_off", "time": 3024, "note": 65, "velocity": 111, "channel": 0}, {"type": "note_on", "time": 1612, "note": 68, "velocity": 112, "channel": 0}, {"type": "note_off", "time": 2822, "note": 68, "velocity": 112, "channel": 0}, {"type": "note_on", "time": 403, "note": 63, "velocity": 120, "channel": 0}, {"type": "note_off", "time": 2620, "note": 63, "velocity": 120, "channel": 0}, {"type": "note_on", "time": 0, "note": 60, "velocity": 114, "channel": 0}, {"type": "note_off", "time": 2956, "note": 60, "velocity": 114, "channel": 0}, {"type": "note_on", "time": 119, "note": 56, "velocity": 106, "channel": 0}, {"type": "note_off", "time": 1290, "note": 56, "velocity": 106, "channel": 0}, {"type": "note_on", "time": 135, "note": 62, "velocity": 124, "channel": 0}, {"type": "note_off", "time": 2688, "note": 62, "velocity": 124, "channel": 0}, {"type": "note_on", "time": 672, "note": 67, "velocity": 110, "channel": 0}, {"type": "note_off", "time": 2016, "note": 67, "velocity": 110, "channel": 0}, {"type": "note_on", "time": 1276, "note": 69, "velocity": 118, "channel": 0}, {"type": "note_off", "time": 1881, "note": 69, "velocity": 118, "channel": 0}, {"type": "note_on", "time": 600, "note": 70, "velocity": 112, "channel": 0}, {"type": "note_off", "time": 3106, "note": 70, "velocity": 112, "channel": 0}, {"type": "note_on", "time": 258, "note": 72, "velocity": 112, "channel": 0}, {"type": "note_off", "time": 1612, "note": 72, "velocity": 112, "channel": 0}, {"type": "note_on", "time": 403, "note": 74, "velocity": 107, "channel": 0}, {"type": "note_off", "time": 2688, "note": 74, "velocity": 107, "channel": 0}, {"type": "note_on", "time": 0, "note": 72, "velocity": 105, "channel": 0}, {"type": "note_off", "time": 2284, "note": 72, "velocity": 105, "channel": 0}, {"type": "note_on", "time": 604, "note": 70, "velocity": 113, "channel": 0}, {"type": "note_off", "time": 1680, "note": 70, "velocity": 113, "channel": 0}, {"type": "note_on", "time": 739, "note": 69, "velocity": 116, "channel": 0}, {"type": "note_off", "time": 1881, "note": 69, "velocity": 116, "channel": 0}, {"type": "note_on", "time": 470, "note": 67, "velocity": 106, "channel": 0}, {"type": "note_off", "time": 2083, "note": 67, "velocity": 106, "channel": 0}, {"type": "note_on", "time": 537, "note": 62, "velocity": 117, "channel": 0}, {"type": "note_off", "time": 2822, "note": 62, "velocity": 117, "channel": 0}, {"type": "note_on", "time": 403, "note": 60, "velocity": 115, "channel": 0}, {"type": "note_off", "time": 2755, "note": 60, "velocity": 115, "channel": 0}, {"type": "note_on", "time": 134, "note": 58, "velocity": 106, "channel": 0}, {"type": "note_off", "time": 4838, "note": 58, "velocity": 106, "channel": 0}, {"type": "note_on", "time": 10012, "note": 67, "velocity": 111, "channel": 0}, {"type": "note_off", "time": 2352, "note": 67, "velocity": 111, "channel": 0}, {"type": "note_on", "time": 1276, "note": 70, "velocity": 117, "channel": 0}, {"type": "note_off", "time": 2150, "note": 70, "velocity": 117, "channel": 0}, {"type": "note_on", "time": 537, "note": 69, "velocity": 119, "channel": 0}, {"type": "note_off", "time": 2150, "note": 69, "velocity": 119, "channel": 0}, {"type": "note_on", "time": 537, "note": 68, "velocity": 112, "channel": 0}, {"type": "note_off", "time": 2352, "note": 68, "velocity": 112, "channel": 0}, {"type": "note_on", "time": 537, "note": 71, "velocity": 109, "channel": 0}, {"type": "note_off", "time": 2351, "note": 71, "velocity": 109, "channel": 0}, {"type": "note_on", "time": 1075, "note": 67, "velocity": 113, "channel": 0}, {"type": "note_off", "time": 2016, "note": 67, "velocity": 113, "channel": 0}, {"type": "note_on", "time": 403, "note": 68, "velocity": 112, "channel": 0}, {"type": "note_off", "time": 2486, "note": 68, "velocity": 112, "channel": 0}, {"type": "note_on", "time": 335, "note": 71, "velocity": 108, "channel": 0}, {"type": "note_off", "time": 2150, "note": 71, "velocity": 108, "channel": 0}, {"type": "note_on", "time": 470, "note": 75, "velocity": 113, "channel": 0}, {"type": "note_off", "time": 2083, "note": 75, "velocity": 113, "channel": 0}, {"type": "note_on", "time": 884, "note": 77, "velocity": 117, "channel": 0}, {"type": "note_off", "time": 940, "note": 77, "velocity": 117, "channel": 0}, {"type": "note_on", "time": 86, "note": 78, "velocity": 127, "channel": 0}, {"type": "note_off", "time": 940, "note": 78, "velocity": 127, "channel": 0}, {"type": "note_on", "time": 104, "note": 79, "velocity": 117, "channel": 0}, {"type": "note_off", "time": 15859, "note": 79, "velocity": 117, "channel": 0}, {"type": "note_on", "time": 7862, "note": 77, "velocity": 108, "channel": 0}, {"type": "note_off", "time": 2150, "note": 77, "velocity": 108, "channel": 0}, {"type": "note_on", "time": 268, "note": 76, "velocity": 118, "channel": 0}, {"type": "note_off", "time": 1814, "note": 76, "velocity": 118, "channel": 0}, {"type": "note_on", "time": 873, "note": 77, "velocity": 106, "channel": 0}, {"type": "note_off", "time": 10752, "note": 77, "velocity": 106, "channel": 0}, {"type": "note_on", "time": 7795, "note": 75, "velocity": 110, "channel": 0}, {"type": "note_off", "time": 2150, "note": 75, "velocity": 110, "channel": 0}, {"type": "note_on", "time": 1075, "note": 74, "velocity": 110, "channel": 0}, {"type": "note_off", "time": 2486, "note": 74, "velocity": 110, "channel": 0}, {"type": "note_on", "time": 1948, "note": 75, "velocity": 103, "channel": 0}, {"type": "note_off", "time": 6854, "note": 75, "velocity": 103, "channel": 0}, {"type": "note_on", "time": 806, "note": 74, "velocity": 108, "channel": 0}, {"type": "note_off", "time": 2150, "note": 74, "velocity": 108, "channel": 0}, {"type": "note_on", "time": 604, "note": 73, "velocity": 104, "channel": 0}, {"type": "note_off", "time": 1612, "note": 73, "velocity": 104, "channel": 0}, {"type": "note_on", "time": 672, "note": 74, "velocity": 109, "channel": 0}, {"type": "note_off", "time": 8400, "note": 74, "velocity": 109, "channel": 0}, {"type": "note_on", "time": 5107, "note": 72, "velocity": 106, "channel": 0}, {"type": "note_off", "time": 1881, "note": 72, "velocity": 106, "channel": 0}, {"type": "note_on", "time": 739, "note": 67, "velocity": 105, "channel": 0}, {"type": "note_off", "time": 1814, "note": 67, "velocity": 105, "channel": 0}, {"type": "note_on", "time": 2553, "note": 65, "velocity": 108, "channel": 0}, {"type": "note_off", "time": 9878, "note": 65, "velocity": 108, "channel": 0}, {"type": "note_on", "time": 201, "note": 63, "velocity": 118, "channel": 0}, {"type": "note_off", "time": 3494, "note": 63, "velocity": 118, "channel": 0}, {"type": "note_on", "time": 843, "note": 65, "velocity": 92, "channel": 0}, {"type": "note_off", "time": 2247, "note": 65, "velocity": 92, "channel": 0}, {"type": "note_on", "time": 0, "note": 67, "velocity": 106, "channel": 0}, {"type": "note_on", "time": 5913, "note": 65, "velocity": 108, "channel": 0}, {"type": "note_off", "time": 0, "note": 67, "velocity": 106, "channel": 0}, {"type": "note_off", "time": 8131, "note": 65, "velocity": 108, "channel": 0}, {"type": "note_on", "time": 0, "note": 63, "velocity": 109, "channel": 0}, {"type": "note_off", "time": 7391, "note": 63, "velocity": 109, "channel": 0}, {"type": "note_on", "time": 15883, "note": 47, "velocity": 111, "channel": 0}, {"type": "note_off", "time": 2484, "note": 47, "velocity": 111, "channel": 0}, {"type": "note_on", "time": 119, "note": 51, "velocity": 113, "channel": 0}, {"type": "note_off", "time": 1747, "note": 51, "velocity": 113, "channel": 0}, {"type": "note_on", "time": 68, "note": 56, "velocity": 110, "channel": 0}, {"type": "note_off", "time": 2813, "note": 56, "velocity": 110, "channel": 0}, {"type": "note_on", "time": 0, "note": 49, "velocity": 116, "channel": 0}, {"type": "note_off", "time": 2553, "note": 49, "velocity": 116, "channel": 0}, {"type": "note_on", "time": 201, "note": 53, "velocity": 103, "channel": 0}, {"type": "note_off", "time": 1478, "note": 53, "velocity": 103, "channel": 0}, {"type": "note_on", "time": 67, "note": 56, "velocity": 110, "channel": 0}, {"type": "note_on", "time": 2486, "note": 63, "velocity": 119, "channel": 0}, {"type": "note_off", "time": 0, "note": 56, "velocity": 110, "channel": 0}, {"type": "note_off", "time": 2419, "note": 63, "velocity": 119, "channel": 0}, {"type": "note_on", "time": 604, "note": 58, "velocity": 102, "channel": 0}, {"type": "note_off", "time": 1948, "note": 58, "velocity": 102, "channel": 0}, {"type": "note_on", "time": 336, "note": 61, "velocity": 118, "channel": 0}, {"type": "note_off", "time": 2016, "note": 61, "velocity": 118, "channel": 0}, {"type": "note_on", "time": 336, "note": 60, "velocity": 117, "channel": 0}, {"type": "note_off", "time": 2419, "note": 60, "velocity": 117, "channel": 0}, {"type": "note_on", "time": 67, "note": 58, "velocity": 108, "channel": 0}, {"type": "note_off", "time": 2486, "note": 58, "velocity": 108, "channel": 0}, {"type": "note_on", "time": 336, "note": 66, "velocity": 108, "channel": 0}, {"type": "note_off", "time": 2284, "note": 66, "velocity": 108, "channel": 0}, {"type": "note_on", "time": 201, "note": 63, "velocity": 108, "channel": 0}, {"type": "note_off", "time": 1881, "note": 63, "velocity": 108, "channel": 0}, {"type": "note_on", "time": 0, "note": 66, "velocity": 108, "channel": 0}, {"type": "note_off", "time": 2016, "note": 66, "velocity": 108, "channel": 0}, {"type": "note_on", "time": 604, "note": 70, "velocity": 112, "channel": 0}, {"type": "note_off", "time": 2217, "note": 70, "velocity": 112, "channel": 0}, {"type": "note_on", "time": 718, "note": 72, "velocity": 110, "channel": 0}, {"type": "note_off", "time": 1344, "note": 72, "velocity": 110, "channel": 0}, {"type": "note_on", "time": 20, "note": 73, "velocity": 110, "channel": 0}, {"type": "note_off", "time": 2016, "note": 73, "velocity": 110, "channel": 0}, {"type": "note_on", "time": 336, "note": 72, "velocity": 111, "channel": 0}, {"type": "note_off", "time": 1344, "note": 72, "velocity": 111, "channel": 0}, {"type": "note_on", "time": 67, "note": 71, "velocity": 111, "channel": 0}, {"type": "note_off", "time": 1612, "note": 71, "velocity": 111, "channel": 0}, {"type": "note_on", "time": 336, "note": 70, "velocity": 110, "channel": 0}, {"type": "note_off", "time": 11692, "note": 70, "velocity": 110, "channel": 0}, {"type": "note_on", "time": 10595, "note": 46, "velocity": 115, "channel": 0}, {"type": "note_off", "time": 1218, "note": 46, "velocity": 115, "channel": 0}, {"type": "note_on", "time": 0, "note": 52, "velocity": 117, "channel": 0}, {"type": "note_off", "time": 1142, "note": 52, "velocity": 117, "channel": 0}, {"type": "note_on", "time": 267, "note": 50, "velocity": 111, "channel": 0}, {"type": "note_off", "time": 1478, "note": 50, "velocity": 111, "channel": 0}, {"type": "note_on", "time": 241, "note": 54, "velocity": 111, "channel": 0}, {"type": "note_off", "time": 501, "note": 54, "velocity": 111, "channel": 0}, {"type": "note_on", "time": 167, "note": 57, "velocity": 108, "channel": 0}, {"type": "note_off", "time": 672, "note": 57, "velocity": 108, "channel": 0}, {"type": "note_on", "time": 355, "note": 59, "velocity": 105, "channel": 0}, {"type": "note_off", "time": 672, "note": 59, "velocity": 105, "channel": 0}, {"type": "note_on", "time": 630, "note": 64, "velocity": 118, "channel": 0}, {"type": "note_off", "time": 1411, "note": 64, "velocity": 118, "channel": 0}, {"type": "note_on", "time": 10, "note": 62, "velocity": 119, "channel": 0}, {"type": "note_off", "time": 1003, "note": 62, "velocity": 119, "channel": 0}, {"type": "note_on", "time": 47, "note": 59, "velocity": 108, "channel": 0}, {"type": "note_off", "time": 873, "note": 59, "velocity": 108, "channel": 0}, {"type": "note_on", "time": 215, "note": 56, "velocity": 113, "channel": 0}, {"type": "note_off", "time": 873, "note": 56, "velocity": 113, "channel": 0}, {"type": "note_on", "time": 403, "note": 54, "velocity": 111, "channel": 0}, {"type": "note_off", "time": 1209, "note": 54, "velocity": 111, "channel": 0}, {"type": "note_on", "time": 104, "note": 56, "velocity": 103, "channel": 0}, {"type": "note_off", "time": 788, "note": 56, "velocity": 103, "channel": 0}, {"type": "note_on", "time": 238, "note": 58, "velocity": 108, "channel": 0}, {"type": "note_off", "time": 645, "note": 58, "velocity": 108, "channel": 0}, {"type": "note_on", "time": 95, "note": 61, "velocity": 111, "channel": 0}, {"type": "note_off", "time": 1411, "note": 61, "velocity": 111, "channel": 0}, {"type": "note_on", "time": 76, "note": 58, "velocity": 106, "channel": 0}, {"type": "note_off", "time": 739, "note": 58, "velocity": 106, "channel": 0}, {"type": "note_on", "time": 162, "note": 54, "velocity": 106, "channel": 0}, {"type": "note_off", "time": 873, "note": 54, "velocity": 106, "channel": 0}, {"type": "note_on", "time": 607, "note": 55, "velocity": 112, "channel": 0}, {"type": "note_off", "time": 604, "note": 55, "velocity": 112, "channel": 0}, {"type": "note_on", "time": 237, "note": 58, "velocity": 107, "channel": 0}, {"type": "note_off", "time": 1008, "note": 58, "velocity": 107, "channel": 0}, {"type": "note_on", "time": 180, "note": 59, "velocity": 117, "channel": 0}, {"type": "note_off", "time": 453, "note": 59, "velocity": 117, "channel": 0}, {"type": "note_on", "time": 167, "note": 61, "velocity": 119, "channel": 0}, {"type": "note_off", "time": 716, "note": 61, "velocity": 119, "channel": 0}, {"type": "note_on", "time": 286, "note": 64, "velocity": 104, "channel": 0}, {"type": "note_off", "time": 931, "note": 64, "velocity": 104, "channel": 0}, {"type": "note_on", "time": 17, "note": 65, "velocity": 109, "channel": 0}, {"type": "note_off", "time": 1142, "note": 65, "velocity": 109, "channel": 0}, {"type": "note_on", "time": 249, "note": 70, "velocity": 108, "channel": 0}, {"type": "note_off", "time": 672, "note": 70, "velocity": 108, "channel": 0}, {"type": "note_on", "time": 489, "note": 71, "velocity": 111, "channel": 0}, {"type": "note_off", "time": 604, "note": 71, "velocity": 111, "channel": 0}, {"type": "note_on", "time": 201, "note": 73, "velocity": 107, "channel": 0}, {"type": "note_off", "time": 3158, "note": 73, "velocity": 107, "channel": 0}, {"type": "note_on", "time": 0, "note": 71, "velocity": 108, "channel": 0}, {"type": "note_off", "time": 806, "note": 71, "velocity": 108, "channel": 0}, {"type": "note_on", "time": 537, "note": 70, "velocity": 112, "channel": 0}, {"type": "note_off", "time": 1612, "note": 70, "velocity": 112, "channel": 0}, {"type": "note_on", "time": 201, "note": 74, "velocity": 103, "channel": 0}, {"type": "note_off", "time": 3225, "note": 74, "velocity": 103, "channel": 0}, {"type": "note_on", "time": 403, "note": 71, "velocity": 105, "channel": 0}, {"type": "note_off", "time": 1276, "note": 71, "velocity": 105, "channel": 0}, {"type": "note_on", "time": 739, "note": 70, "velocity": 111, "channel": 0}, {"type": "note_off", "time": 2284, "note": 70, "velocity": 111, "channel": 0}, {"type": "time_signature", "numerator": 5, "denominator": 4, "clocks_per_click": 24, "notated_32nd_notes_per_beat": 8, "time": 134}, {"type": "note_on", "time": 0, "note": 75, "velocity": 103, "channel": 0}, {"type": "note_off", "time": 3024, "note": 75, "velocity": 103, "channel": 0}, {"type": "note_on", "time": 315, "note": 74, "velocity": 107, "channel": 0}, {"type": "note_off", "time": 1218, "note": 74, "velocity": 107, "channel": 0}, {"type": "note_on", "time": 71, "note": 72, "velocity": 105, "channel": 0}, {"type": "note_off", "time": 430, "note": 72, "velocity": 105, "channel": 0}, {"type": "note_on", "time": 23, "note": 71, "velocity": 99, "channel": 0}, {"type": "note_off", "time": 716, "note": 71, "velocity": 99, "channel": 0}, {"type": "note_on", "time": 113, "note": 70, "velocity": 105, "channel": 0}, {"type": "note_off", "time": 14246, "note": 70, "velocity": 105, "channel": 0}, {"type": "note_on", "time": 5443, "note": 70, "velocity": 111, "channel": 0}, {"type": "note_on", "time": 2755, "note": 66, "velocity": 106, "channel": 0}, {"type": "note_off", "time": 0, "note": 70, "velocity": 111, "channel": 0}, {"type": "note_off", "time": 2150, "note": 66, "velocity": 106, "channel": 0}, {"type": "note_on", "time": 201, "note": 65, "velocity": 111, "channel": 0}, {"type": "note_off", "time": 2486, "note": 65, "velocity": 111, "channel": 0}, {"type": "note_on", "time": 67, "note": 63, "velocity": 118, "channel": 0}, {"type": "note_off", "time": 2688, "note": 63, "velocity": 118, "channel": 0}, {"type": "note_on", "time": 201, "note": 62, "velocity": 117, "channel": 0}, {"type": "note_off", "time": 2486, "note": 62, "velocity": 117, "channel": 0}, {"type": "note_on", "time": 0, "note": 66, "velocity": 103, "channel": 0}, {"type": "note_off", "time": 1747, "note": 66, "velocity": 103, "channel": 0}, {"type": "note_on", "time": 672, "note": 70, "velocity": 104, "channel": 0}, {"type": "note_off", "time": 1814, "note": 70, "velocity": 104, "channel": 0}, {"type": "note_on", "time": 671, "note": 72, "velocity": 105, "channel": 0}, {"type": "note_off", "time": 2016, "note": 72, "velocity": 105, "channel": 0}, {"type": "note_on", "time": 268, "note": 73, "velocity": 102, "channel": 0}, {"type": "note_off", "time": 1881, "note": 73, "velocity": 102, "channel": 0}, {"type": "note_on", "time": 0, "note": 74, "velocity": 98, "channel": 0}, {"type": "note_off", "time": 3158, "note": 74, "velocity": 98, "channel": 0}, {"type": "note_on", "time": 2015, "note": 70, "velocity": 111, "channel": 0}, {"type": "note_off", "time": 6854, "note": 70, "velocity": 111, "channel": 0}, {"type": "note_on", "time": 604, "note": 75, "velocity": 123, "channel": 0}, {"type": "note_off", "time": 1411, "note": 75, "velocity": 123, "channel": 0}, {"type": "note_on", "time": 1344, "note": 77, "velocity": 93, "channel": 0}, {"type": "note_off", "time": 31180, "note": 77, "velocity": 93, "channel": 0}, {"type": "end_of_track", "time": 0}]]}