{"ticks_per_beat": 192, "tracks": [[{"type": "track_name", "name": "Melody", "time": 0}, {"type": "set_tempo", "tempo": 333333, "time": 0}, {"type": "key_signature", "key": "F", "time": 0}, {"type": "time_signature", "numerator": 4, "denominator": 4, "clocks_per_click": 24, "notated_32nd_notes_per_beat": 8, "time": 0}, {"type": "note_on", "time": 2215, "note": 77, "velocity": 116, "channel": 0}, {"type": "note_off", "time": 108, "note": 77, "velocity": 116, "channel": 0}, {"type": "note_on", "time": 299, "note": 74, "velocity": 119, "channel": 0}, {"type": "note_off", "time": 157, "note": 74, "velocity": 119, "channel": 0}, {"type": "note_on", "time": 18, "note": 72, "velocity": 120, "channel": 0}, {"type": "note_off", "time": 119, "note": 72, "velocity": 120, "channel": 0}, {"type": "note_on", "time": 11, "note": 69, "velocity": 95, "channel": 0}, {"type": "note_off", "time": 56, "note": 69, "velocity": 95, "channel": 0}, {"type": "note_on", "time": 16, "note": 70, "velocity": 119, "channel": 0}, {"type": "note_off", "time": 98, "note": 70, "velocity": 119, "channel": 0}, {"type": "note_on", "time": 4, "note": 69, "velocity": 119, "channel": 0}, {"type": "note_off", "time": 70, "note": 69, "velocity": 119, "channel": 0}, {"type": "note_on", "time": 25, "note": 65, "velocity": 119, "channel": 0}, {"type": "note_off", "time": 115, "note": 65, "velocity": 119, "channel": 0}, {"type": "note_on", "time": 24, "note": 60, "velocity": 90, "channel": 0}, {"type": "note_off", "time": 43, "note": 60, "velocity": 90, "channel": 0}, {"type": "note_on", "time": 10, "note": 67, "velocity": 118, "channel": 0}, {"type": "note_off", "time": 103, "note": 67, "velocity": 118, "channel": 0}, {"type": "note_on", "time": 11, "note": 65, "velocity": 119, "channel": 0}, {"type": "note_off", "time": 89, "note": 65, "velocity": 119, "channel": 0}, {"type": "note_on", "time": 7, "note": 63, "velocity": 121, "channel": 0}, {"type": "note_off", "time": 94, "note": 63, "velocity": 121, "channel": 0}, {"type": "note_on", "time": 4, "note": 59, "velocity": 114, "channel": 0}, {"type": "note_off", "time": 91, "note": 59, "velocity": 114, "channel": 0}, {"type": "note_on", "time": 7, "note": 55, "velocity": 116, "channel": 0}, {"type": "note_off", "time": 112, "note": 55, "velocity": 116, "channel": 0}, {"type": "note_on", "time": 2, "note": 49, "velocity": 103, "channel": 0}, {"type": "note_off", "time": 40, "note": 49, "velocity": 103, "channel": 0}, {"type": "note_on", "time": 20, "note": 53, "velocity": 116, "channel": 0}, {"type": "note_off", "time": 101, "note": 53, "velocity": 116, "channel": 0}, {"type": "note_on", "time": 5, "note": 59, "velocity": 116, "channel": 0}, {"type": "note_off", "time": 56, "note": 59, "velocity": 116, "channel": 0}, {"type": "note_on", "time": 18, "note": 51, "velocity": 118, "channel": 0}, {"type": "note_off", "time": 28, "note": 51, "velocity": 118, "channel": 0}, {"type": "note_on", "time": 5, "note": 52, "velocity": 114, "channel": 0}, {"type": "note_off", "time": 137, "note": 52, "velocity": 114, "channel": 0}, {"type": "note_on", "time": 5, "note": 59, "velocity": 115, "channel": 0}, {"type": "note_off", "time": 125, "note": 59, "velocity": 115, "channel": 0}, {"type": "note_on", "time": 21, "note": 54, "velocity": 113, "channel": 0}, {"type": "note_off", "time": 112, "note": 54, "velocity": 113, "channel": 0}, {"type": "note_on", "time": 41, "note": 54, "velocity": 116, "channel": 0}, {"type": "note_off", "time": 80, "note": 54, "velocity": 116, "channel": 0}, {"type": "note_on", "time": 1, "note": 50, "velocity": 114, "channel": 0}, {"type": "note_off", "time": 118, "note": 50, "velocity": 114, "channel": 0}, {"type": "note_on", "time": 463, "note": 65, "velocity": 121, "channel": 0}, {"type": "note_off", "time": 86, "note": 65, "velocity": 121, "channel": 0}, {"type": "note_on", "time": 284, "note": 65, "velocity": 118, "channel": 0}, {"type": "note_off", "time": 122, "note": 65, "velocity": 118, "channel": 0}, {"type": "note_on", "time": 195, "note": 65, "velocity": 121, "channel": 0}, {"type": "note_off", "time": 81, "note": 65, "velocity": 121, "channel": 0}, {"type": "note_on", "time": 130, "note": 60, "velocity": 91, "channel": 0}, {"type": "note_off", "time": 30, "note": 60, "velocity": 91, "channel": 0}, {"type": "note_on", "time": 25, "note": 64, "velocity": 122, "channel": 0}, {"type": "note_off", "time": 108, "note": 64, "velocity": 122, "channel": 0}, {"type": "note_on", "time": 40, "note": 61, "velocity": 102, "channel": 0}, {"type": "note_off", "time": 30, "note": 61, "velocity": 102, "channel": 0}, {"type": "note_on", "time": 10, "note": 65, "velocity": 118, "channel": 0}, {"type": "note_off", "time": 142, "note": 65, "velocity": 118, "channel": 0}, {"type": "note_on", "time": 7, "note": 60, "velocity": 101, "channel": 0}, {"type": "note_off", "time": 24, "note": 60, "velocity": 101, "channel": 0}, {"type": "note_on", "time": 9, "note": 64, "velocity": 119, "channel": 0}, {"type": "note_off", "time": 137, "note": 64, "velocity": 119, "channel": 0}, {"type": "note_on", "time": 15, "note": 65, "velocity": 117, "channel": 0}, {"type": "note_off", "time": 289, "note": 65, "velocity": 117, "channel": 0}, {"type": "note_on", "time": 3, "note": 60, "velocity": 114, "channel": 0}, {"type": "note_off", "time": 43, "note": 60, "velocity": 114, "channel": 0}, {"type": "note_on", "time": 29, "note": 69, "velocity": 111, "channel": 0}, {"type": "note_off", "time": 39, "note": 69, "velocity": 111, "channel": 0}, {"type": "note_on", "time": 30, "note": 55, "velocity": 112, "channel": 0}, {"type": "note_off", "time": 40, "note": 55, "velocity": 112, "channel": 0}, {"type": "note_on", "time": 0, "note": 57, "velocity": 112, "channel": 0}, {"type": "note_off", "time": 101, "note": 57, "velocity": 112, "channel": 0}, {"type": "note_on", "time": 7, "note": 51, "velocity": 112, "channel": 0}, {"type": "note_off", "time": 43, "note": 51, "velocity": 112, "channel": 0}, {"type": "note_on", "time": 702, "note": 60, "velocity": 114, "channel": 0}, {"type": "note_off", "time": 95, "note": 60, "velocity": 114, "channel": 0}, {"type": "note_on", "time": 40, "note": 64, "velocity": 112, "channel": 0}, {"type": "note_off", "time": 51, "note": 64, "velocity": 112, "channel": 0}, {"type": "note_on", "time": 3, "note": 67, "velocity": 121, "channel": 0}, {"type": "note_off", "time": 48, "note": 67, "velocity": 121, "channel": 0}, {"type": "note_on", "time": 21, "note": 63, "velocity": 124, "channel": 0}, {"type": "note_off", "time": 105, "note": 63, "velocity": 124, "channel": 0}, {"type": "note_on", "time": 1, "note": 65, "velocity": 121, "channel": 0}, {"type": "note_off", "time": 46, "note": 65, "velocity": 121, "channel": 0}, {"type": "note_on", "time": 42, "note": 69, "velocity": 120, "channel": 0}, {"type": "note_off", "time": 81, "note": 69, "velocity": 120, "channel": 0}, {"type": "note_on", "time": 13, "note": 72, "velocity": 119, "channel": 0}, {"type": "note_off", "time": 78, "note": 72, "velocity": 119, "channel": 0}, {"type": "note_on", "time": 20, "note": 74, "velocity": 119, "channel": 0}, {"type": "note_off", "time": 80, "note": 74, "velocity": 119, "channel": 0}, {"type": "note_on", "time": 3, "note": 72, "velocity": 119, "channel": 0}, {"type": "note_off", "time": 73, "note": 72, "velocity": 119, "channel": 0}, {"type": "note_on", "time": 18, "note": 69, "velocity": 120, "channel": 0}, {"type": "note_off", "time": 97, "note": 69, "velocity": 120, "channel": 0}, {"type": "note_on", "time": 19, "note": 65, "velocity": 102, "channel": 0}, {"type": "note_off", "time": 48, "note": 65, "velocity": 102, "channel": 0}, {"type": "note_on", "time": 15, "note": 67, "velocity": 119, "channel": 0}, {"type": "note_off", "time": 95, "note": 67, "velocity": 119, "channel": 0}, {"type": "note_on", "time": 15, "note": 63, "velocity": 121, "channel": 0}, {"type": "note_off", "time": 98, "note": 63, "velocity": 121, "channel": 0}, {"type": "note_on", "time": 9, "note": 62, "velocity": 119, "channel": 0}, {"type": "note_off", "time": 124, "note": 62, "velocity": 119, "channel": 0}, {"type": "note_on", "time": 40, "note": 65, "velocity": 120, "channel": 0}, {"type": "note_off", "time": 83, "note": 65, "velocity": 120, "channel": 0}, {"type": "note_on", "time": 12, "note": 64, "velocity": 120, "channel": 0}, {"type": "note_off", "time": 81, "note": 64, "velocity": 120, "channel": 0}, {"type": "note_on", "time": 10, "note": 63, "velocity": 121, "channel": 0}, {"type": "note_off", "time": 99, "note": 63, "velocity": 121, "channel": 0}, {"type": "note_on", "time": 20, "note": 59, "velocity": 113, "channel": 0}, {"type": "note_off", "time": 68, "note": 59, "velocity": 113, "channel": 0}, {"type": "note_on", "time": 0, "note": 56, "velocity": 116, "channel": 0}, {"type": "note_off", "time": 118, "note": 56, "velocity": 116, "channel": 0}, {"type": "note_on", "time": 3, "note": 51, "velocity": 99, "channel": 0}, {"type": "note_off", "time": 74, "note": 51, "velocity": 99, "channel": 0}, {"type": "note_on", "time": 1, "note": 53, "velocity": 114, "channel": 0}, {"type": "note_off", "time": 127, "note": 53, "velocity": 114, "channel": 0}, {"type": "note_on", "time": 54, "note": 71, "velocity": 120, "channel": 0}, {"type": "note_off", "time": 88, "note": 71, "velocity": 120, "channel": 0}, {"type": "note_on", "time": 26, "note": 69, "velocity": 119, "channel": 0}, {"type": "note_off", "time": 78, "note": 69, "velocity": 119, "channel": 0}, {"type": "note_on", "time": 25, "note": 67, "velocity": 117, "channel": 0}, {"type": "note_off", "time": 105, "note": 67, "velocity": 117, "channel": 0}, {"type": "note_on", "time": 50, "note": 64, "velocity": 98, "channel": 0}, {"type": "note_off", "time": 30, "note": 64, "velocity": 98, "channel": 0}, {"type": "note_on", "time": 0, "note": 66, "velocity": 115, "channel": 0}, {"type": "note_off", "time": 108, "note": 66, "velocity": 115, "channel": 0}, {"type": "note_on", "time": 787, "note": 57, "velocity": 115, "channel": 0}, {"type": "note_off", "time": 68, "note": 57, "velocity": 115, "channel": 0}, {"type": "note_on", "time": 8, "note": 58, "velocity": 110, "channel": 0}, {"type": "note_off", "time": 53, "note": 58, "velocity": 110, "channel": 0}, {"type": "note_on", "time": 6, "note": 62, "velocity": 98, "channel": 0}, {"type": "note_off", "time": 35, "note": 62, "velocity": 98, "channel": 0}, {"type": "note_on", "time": 18, "note": 65, "velocity": 113, "channel": 0}, {"type": "note_off", "time": 70, "note": 65, "velocity": 113, "channel": 0}, {"type": "note_on", "time": 39, "note": 69, "velocity": 116, "channel": 0}, {"type": "note_off", "time": 67, "note": 69, "velocity": 116, "channel": 0}, {"type": "note_on", "time": 30, "note": 67, "velocity": 118, "channel": 0}, {"type": "note_off", "time": 61, "note": 67, "velocity": 118, "channel": 0}, {"type": "note_on", "time": 28, "note": 65, "velocity": 119, "channel": 0}, {"type": "note_off", "time": 85, "note": 65, "velocity": 119, "channel": 0}, {"type": "note_on", "time": 90, "note": 64, "velocity": 118, "channel": 0}, {"type": "note_off", "time": 117, "note": 64, "velocity": 118, "channel": 0}, {"type": "note_on", "time": 75, "note": 64, "velocity": 114, "channel": 0}, {"type": "note_off", "time": 83, "note": 64, "velocity": 114, "channel": 0}, {"type": "note_on", "time": 20, "note": 67, "velocity": 116, "channel": 0}, {"type": "note_off", "time": 60, "note": 67, "velocity": 116, "channel": 0}, {"type": "note_on", "time": 33, "note": 65, "velocity": 112, "channel": 0}, {"type": "note_off", "time": 38, "note": 65, "velocity": 112, "channel": 0}, {"type": "note_on", "time": 60, "note": 67, "velocity": 112, "channel": 0}, {"type": "note_off", "time": 48, "note": 67, "velocity": 112, "channel": 0}, {"type": "note_on", "time": 45, "note": 69, "velocity": 120, "channel": 0}, {"type": "note_off", "time": 71, "note": 69, "velocity": 120, "channel": 0}, {"type": "note_on", "time": 33, "note": 72, "velocity": 117, "channel": 0}, {"type": "note_off", "time": 40, "note": 72, "velocity": 117, "channel": 0}, {"type": "note_on", "time": 60, "note": 77, "velocity": 116, "channel": 0}, {"type": "note_off", "time": 73, "note": 77, "velocity": 116, "channel": 0}, {"type": "note_on", "time": 25, "note": 76, "velocity": 123, "channel": 0}, {"type": "note_off", "time": 70, "note": 76, "velocity": 123, "channel": 0}, {"type": "note_on", "time": 13, "note": 75, "velocity": 119, "channel": 0}, {"type": "note_off", "time": 61, "note": 75, "velocity": 119, "channel": 0}, {"type": "note_on", "time": 44, "note": 73, "velocity": 121, "channel": 0}, {"type": "note_off", "time": 53, "note": 73, "velocity": 121, "channel": 0}, {"type": "note_on", "time": 3, "note": 72, "velocity": 118, "channel": 0}, {"type": "note_off", "time": 95, "note": 72, "velocity": 118, "channel": 0}, {"type": "note_on", "time": 43, "note": 70, "velocity": 117, "channel": 0}, {"type": "note_off", "time": 53, "note": 70, "velocity": 117, "channel": 0}, {"type": "note_on", "time": 19, "note": 69, "velocity": 116, "channel": 0}, {"type": "note_off", "time": 73, "note": 69, "velocity": 116, "channel": 0}, {"type": "note_on", "time": 44, "note": 67, "velocity": 117, "channel": 0}, {"type": "note_off", "time": 51, "note": 67, "velocity": 117, "channel": 0}, {"type": "note_on", "time": 23, "note": 65, "velocity": 116, "channel": 0}, {"type": "note_off", "time": 76, "note": 65, "velocity": 116, "channel": 0}, {"type": "note_on", "time": 17, "note": 64, "velocity": 115, "channel": 0}, {"type": "note_off", "time": 79, "note": 64, "velocity": 115, "channel": 0}, {"type": "note_on", "time": 14, "note": 63, "velocity": 116, "channel": 0}, {"type": "note_off", "time": 98, "note": 63, "velocity": 116, "channel": 0}, {"type": "note_on", "time": 2, "note": 62, "velocity": 116, "channel": 0}, {"type": "note_off", "time": 89, "note": 62, "velocity": 116, "channel": 0}, {"type": "note_on", "time": 1, "note": 61, "velocity": 111, "channel": 0}, {"type": "note_off", "time": 88, "note": 61, "velocity": 111, "channel": 0}, {"type": "note_on", "time": 10, "note": 58, "velocity": 112, "channel": 0}, {"type": "note_off", "time": 76, "note": 58, "velocity": 112, "channel": 0}, {"type": "note_on", "time": 8, "note": 53, "velocity": 111, "channel": 0}, {"type": "note_off", "time": 83, "note": 53, "velocity": 111, "channel": 0}, {"type": "note_on", "time": 55, "note": 49, "velocity": 110, "channel": 0}, {"type": "note_off", "time": 25, "note": 49, "velocity": 110, "channel": 0}, {"type": "note_on", "time": 10, "note": 56, "velocity": 113, "channel": 0}, {"type": "note_off", "time": 124, "note": 56, "velocity": 113, "channel": 0}, {"type": "note_on", "time": 4, "note": 49, "velocity": 101, "channel": 0}, {"type": "note_off", "time": 40, "note": 49, "velocity": 101, "channel": 0}, {"type": "note_on", "time": 10, "note": 53, "velocity": 113, "channel": 0}, {"type": "note_off", "time": 142, "note": 53, "velocity": 113, "channel": 0}, {"type": "note_on", "time": 361, "note": 44, "velocity": 116, "channel": 0}, {"type": "note_off", "time": 63, "note": 44, "velocity": 116, "channel": 0}, {"type": "note_on", "time": 5, "note": 51, "velocity": 115, "channel": 0}, {"type": "note_off", "time": 122, "note": 51, "velocity": 115, "channel": 0}, {"type": "note_on", "time": 6, "note": 44, "velocity": 111, "channel": 0}, {"type": "note_off", "time": 45, "note": 44, "velocity": 111, "channel": 0}, {"type": "note_on", "time": 4, "note": 46, "velocity": 118, "channel": 0}, {"type": "note_off", "time": 155, "note": 46, "velocity": 118, "channel": 0}, {"type": "note_on", "time": 366, "note": 46, "velocity": 119, "channel": 0}, {"type": "note_off", "time": 68, "note": 46, "velocity": 119, "channel": 0}, {"type": "note_on", "time": 13, "note": 51, "velocity": 113, "channel": 0}, {"type": "note_off", "time": 103, "note": 51, "velocity": 113, "channel": 0}, {"type": "note_on", "time": 3, "note": 55, "velocity": 116, "channel": 0}, {"type": "note_off", "time": 84, "note": 55, "velocity": 116, "channel": 0}, {"type": "note_on", "time": 0, "note": 48, "velocity": 115, "channel": 0}, {"type": "note_off", "time": 130, "note": 48, "velocity": 115, "channel": 0}, {"type": "note_on", "time": 8, "note": 53, "velocity": 118, "channel": 0}, {"type": "note_off", "time": 41, "note": 53, "velocity": 118, "channel": 0}, {"type": "note_on", "time": 16, "note": 58, "velocity": 118, "channel": 0}, {"type": "note_off", "time": 100, "note": 58, "velocity": 118, "channel": 0}, {"type": "note_on", "time": 5, "note": 63, "velocity": 123, "channel": 0}, {"type": "note_off", "time": 51, "note": 63, "velocity": 123, "channel": 0}, {"type": "note_on", "time": 51, "note": 57, "velocity": 114, "channel": 0}, {"type": "note_off", "time": 101, "note": 57, "velocity": 114, "channel": 0}, {"type": "note_on", "time": 10, "note": 53, "velocity": 109, "channel": 0}, {"type": "note_off", "time": 42, "note": 53, "velocity": 109, "channel": 0}, {"type": "note_on", "time": 6, "note": 55, "velocity": 116, "channel": 0}, {"type": "note_off", "time": 108, "note": 55, "velocity": 116, "channel": 0}, {"type": "note_on", "time": 3, "note": 51, "velocity": 114, "channel": 0}, {"type": "note_off", "time": 70, "note": 51, "velocity": 114, "channel": 0}, {"type": "note_on", "time": 1, "note": 48, "velocity": 114, "channel": 0}, {"type": "note_off", "time": 115, "note": 48, "velocity": 114, "channel": 0}, {"type": "note_on", "time": 16, "note": 47, "velocity": 109, "channel": 0}, {"type": "note_off", "time": 331, "note": 47, "velocity": 109, "channel": 0}, {"type": "note_on", "time": 23, "note": 51, "velocity": 102, "channel": 0}, {"type": "note_off", "time": 46, "note": 51, "velocity": 102, "channel": 0}, {"type": "note_on", "time": 2, "note": 53, "velocity": 105, "channel": 0}, {"type": "note_off", "time": 42, "note": 53, "velocity": 105, "channel": 0}, {"type": "note_on", "time": 0, "note": 59, "velocity": 118, "channel": 0}, {"type": "note_off", "time": 48, "note": 59, "velocity": 118, "channel": 0}, {"type": "note_on", "time": 14, "note": 56, "velocity": 115, "channel": 0}, {"type": "note_off", "time": 44, "note": 56, "velocity": 115, "channel": 0}, {"type": "note_on", "time": 6, "note": 53, "velocity": 114, "channel": 0}, {"type": "note_off", "time": 46, "note": 53, "velocity": 114, "channel": 0}, {"type": "note_on", "time": 4, "note": 52, "velocity": 112, "channel": 0}, {"type": "note_off", "time": 59, "note": 52, "velocity": 112, "channel": 0}, {"type": "note_on", "time": 7, "note": 51, "velocity": 112, "channel": 0}, {"type": "note_off", "time": 48, "note": 51, "velocity": 112, "channel": 0}, {"type": "note_on", "time": 7, "note": 56, "velocity": 112, "channel": 0}, {"type": "note_off", "time": 48, "note": 56, "velocity": 112, "channel": 0}, {"type": "note_on", "time": 15, "note": 59, "velocity": 118, "channel": 0}, {"type": "note_off", "time": 48, "note": 59, "velocity": 118, "channel": 0}, {"type": "note_on", "time": 8, "note": 63, "velocity": 119, "channel": 0}, {"type": "note_off", "time": 46, "note": 63, "velocity": 119, "channel": 0}, {"type": "note_on", "time": 2, "note": 62, "velocity": 120, "channel": 0}, {"type": "note_off", "time": 51, "note": 62, "velocity": 120, "channel": 0}, {"type": "note_on", "time": 9, "note": 61, "velocity": 110, "channel": 0}, {"type": "note_off", "time": 61, "note": 61, "velocity": 110, "channel": 0}, {"type": "note_on", "time": 13, "note": 59, "velocity": 115, "channel": 0}, {"type": "note_off", "time": 44, "note": 59, "velocity": 115, "channel": 0}, {"type": "note_on", "time": 1, "note": 63, "velocity": 119, "channel": 0}, {"type": "note_off", "time": 37, "note": 63, "velocity": 119, "channel": 0}, {"type": "note_on", "time": 5, "note": 58, "velocity": 115, "channel": 0}, {"type": "note_off", "time": 38, "note": 58, "velocity": 115, "channel": 0}, {"type": "note_on", "time": 3, "note": 55, "velocity": 108, "channel": 0}, {"type": "note_off", "time": 60, "note": 55, "velocity": 108, "channel": 0}, {"type": "note_on", "time": 7, "note": 56, "velocity": 112, "channel": 0}, {"type": "note_off", "time": 36, "note": 56, "velocity": 112, "channel": 0}, {"type": "note_on", "time": 6, "note": 58, "velocity": 119, "channel": 0}, {"type": "note_off", "time": 31, "note": 58, "velocity": 119, "channel": 0}, {"type": "note_on", "time": 9, "note": 59, "velocity": 116, "channel": 0}, {"type": "note_off", "time": 30, "note": 59, "velocity": 116, "channel": 0}, {"type": "note_on", "time": 7, "note": 61, "velocity": 114, "channel": 0}, {"type": "note_off", "time": 38, "note": 61, "velocity": 114, "channel": 0}, {"type": "note_on", "time": 7, "note": 63, "velocity": 119, "channel": 0}, {"type": "note_off", "time": 41, "note": 63, "velocity": 119, "channel": 0}, {"type": "note_on", "time": 5, "note": 65, "velocity": 108, "channel": 0}, {"type": "note_off", "time": 26, "note": 65, "velocity": 108, "channel": 0}, {"type": "note_on", "time": 4, "note": 66, "velocity": 119, "channel": 0}, {"type": "note_off", "time": 70, "note": 66, "velocity": 119, "channel": 0}, {"type": "note_on", "time": 3, "note": 64, "velocity": 110, "channel": 0}, {"type": "note_off", "time": 31, "note": 64, "velocity": 110, "channel": 0}, {"type": "note_on", "time": 5, "note": 65, "velocity": 120, "channel": 0}, {"type": "note_off", "time": 47, "note": 65, "velocity": 120, "channel": 0}, {"type": "note_on", "time": 3, "note": 62, "velocity": 112, "channel": 0}, {"type": "note_off", "time": 30, "note": 62, "velocity": 112, "channel": 0}, {"type": "note_on", "time": 11, "note": 58, "velocity": 116, "channel": 0}, {"type": "note_off", "time": 45, "note": 58, "velocity": 116, "channel": 0}, {"type": "note_on", "time": 25, "note": 55, "velocity": 110, "channel": 0}, {"type": "note_off", "time": 26, "note": 55, "velocity": 110, "channel": 0}, {"type": "note_on", "time": 0, "note": 64, "velocity": 117, "channel": 0}, {"type": "note_off", "time": 41, "note": 64, "velocity": 117, "channel": 0}, {"type": "note_on", "time": 4, "note": 62, "velocity": 117, "channel": 0}, {"type": "note_off", "time": 36, "note": 62, "velocity": 117, "channel": 0}, {"type": "note_on", "time": 9, "note": 60, "velocity": 112, "channel": 0}, {"type": "note_off", "time": 29, "note": 60, "velocity": 112, "channel": 0}, {"type": "note_on", "time": 3, "note": 59, "velocity": 107, "channel": 0}, {"type": "note_off", "time": 38, "note": 59, "velocity": 107, "channel": 0}, {"type": "note_on", "time": 8, "note": 58, "velocity": 117, "channel": 0}, {"type": "note_off", "time": 54, "note": 58, "velocity": 117, "channel": 0}, {"type": "note_on", "time": 5, "note": 60, "velocity": 110, "channel": 0}, {"type": "note_off", "time": 30, "note": 60, "velocity": 110, "channel": 0}, {"type": "note_on", "time": 3, "note": 62, "velocity": 110, "channel": 0}, {"type": "note_off", "time": 45, "note": 62, "velocity": 110, "channel": 0}, {"type": "note_on", "time": 8, "note": 65, "velocity": 101, "channel": 0}, {"type": "note_off", "time": 42, "note": 65, "velocity": 101, "channel": 0}, {"type": "note_on", "time": 5, "note": 69, "velocity": 120, "channel": 0}, {"type": "note_off", "time": 30, "note": 69, "velocity": 120, "channel": 0}, {"type": "note_on", "time": 12, "note": 66, "velocity": 110, "channel": 0}, {"type": "note_off", "time": 43, "note": 66, "velocity": 110, "channel": 0}, {"type": "note_on", "time": 14, "note": 67, "velocity": 100, "channel": 0}, {"type": "note_off", "time": 38, "note": 67, "velocity": 100, "channel": 0}, {"type": "note_on", "time": 0, "note": 69, "velocity": 97, "channel": 0}, {"type": "note_off", "time": 35, "note": 69, "velocity": 97, "channel": 0}, {"type": "note_on", "time": 16, "note": 70, "velocity": 119, "channel": 0}, {"type": "note_off", "time": 45, "note": 70, "velocity": 119, "channel": 0}, {"type": "note_on", "time": 30, "note": 62, "velocity": 106, "channel": 0}, {"type": "note_off", "time": 45, "note": 62, "velocity": 106, "channel": 0}, {"type": "note_on", "time": 8, "note": 64, "velocity": 108, "channel": 0}, {"type": "note_off", "time": 58, "note": 64, "velocity": 108, "channel": 0}, {"type": "note_on", "time": 0, "note": 69, "velocity": 117, "channel": 0}, {"type": "note_off", "time": 46, "note": 69, "velocity": 117, "channel": 0}, {"type": "note_on", "time": 5, "note": 67, "velocity": 111, "channel": 0}, {"type": "note_off", "time": 45, "note": 67, "velocity": 111, "channel": 0}, {"type": "note_on", "time": 1, "note": 65, "velocity": 117, "channel": 0}, {"type": "note_off", "time": 36, "note": 65, "velocity": 117, "channel": 0}, {"type": "note_on", "time": 8, "note": 63, "velocity": 99, "channel": 0}, {"type": "note_off", "time": 25, "note": 63, "velocity": 99, "channel": 0}, {"type": "note_on", "time": 9, "note": 64, "velocity": 115, "channel": 0}, {"type": "note_off", "time": 56, "note": 64, "velocity": 115, "channel": 0}, {"type": "note_on", "time": 4, "note": 68, "velocity": 118, "channel": 0}, {"type": "note_off", "time": 47, "note": 68, "velocity": 118, "channel": 0}, {"type": "note_on", "time": 7, "note": 66, "velocity": 113, "channel": 0}, {"type": "note_off", "time": 30, "note": 66, "velocity": 113, "channel": 0}, {"type": "note_on", "time": 7, "note": 64, "velocity": 118, "channel": 0}, {"type": "note_off", "time": 47, "note": 64, "velocity": 118, "channel": 0}, {"type": "note_on", "time": 16, "note": 63, "velocity": 116, "channel": 0}, {"type": "note_off", "time": 38, "note": 63, "velocity": 116, "channel": 0}, {"type": "note_on", "time": 3, "note": 61, "velocity": 112, "channel": 0}, {"type": "note_off", "time": 52, "note": 61, "velocity": 112, "channel": 0}, {"type": "note_on", "time": 8, "note": 58, "velocity": 108, "channel": 0}, {"type": "note_off", "time": 48, "note": 58, "velocity": 108, "channel": 0}, {"type": "note_on", "time": 9, "note": 57, "velocity": 119, "channel": 0}, {"type": "note_off", "time": 35, "note": 57, "velocity": 119, "channel": 0}, {"type": "note_on", "time": 29, "note": 60, "velocity": 106, "channel": 0}, {"type": "note_off", "time": 55, "note": 60, "velocity": 106, "channel": 0}, {"type": "note_on", "time": 5, "note": 64, "velocity": 115, "channel": 0}, {"type": "note_off", "time": 36, "note": 64, "velocity": 115, "channel": 0}, {"type": "note_on", "time": 13, "note": 67, "velocity": 117, "channel": 0}, {"type": "note_off", "time": 34, "note": 67, "velocity": 117, "channel": 0}, {"type": "note_on", "time": 9, "note": 64, "velocity": 110, "channel": 0}, {"type": "note_off", "time": 39, "note": 64, "velocity": 110, "channel": 0}, {"type": "note_on", "time": 6, "note": 65, "velocity": 106, "channel": 0}, {"type": "note_off", "time": 40, "note": 65, "velocity": 106, "channel": 0}, {"type": "note_on", "time": 10, "note": 69, "velocity": 116, "channel": 0}, {"type": "note_off", "time": 38, "note": 69, "velocity": 116, "channel": 0}, {"type": "note_on", "time": 3, "note": 72, "velocity": 114, "channel": 0}, {"type": "note_off", "time": 30, "note": 72, "velocity": 114, "channel": 0}, {"type": "note_on", "time": 8, "note": 76, "velocity": 119, "channel": 0}, {"type": "note_off", "time": 59, "note": 76, "velocity": 119, "channel": 0}, {"type": "note_on", "time": 7, "note": 77, "velocity": 110, "channel": 0}, {"type": "note_off", "time": 152, "note": 77, "velocity": 110, "channel": 0}, {"type": "note_on", "time": 305, "note": 70, "velocity": 120, "channel": 0}, {"type": "note_off", "time": 65, "note": 70, "velocity": 120, "channel": 0}, {"type": "note_on", "time": 31, "note": 67, "velocity": 84, "channel": 0}, {"type": "note_off", "time": 21, "note": 67, "velocity": 84, "channel": 0}, {"type": "note_on", "time": 10, "note": 69, "velocity": 118, "channel": 0}, {"type": "note_off", "time": 81, "note": 69, "velocity": 118, "channel": 0}, {"type": "note_on", "time": 1, "note": 68, "velocity": 93, "channel": 0}, {"type": "note_off", "time": 26, "note": 68, "velocity": 93, "channel": 0}, {"type": "note_on", "time": 11, "note": 67, "velocity": 117, "channel": 0}, {"type": "note_off", "time": 74, "note": 67, "velocity": 117, "channel": 0}, {"type": "note_on", "time": 25, "note": 65, "velocity": 119, "channel": 0}, {"type": "note_off", "time": 117, "note": 65, "velocity": 119, "channel": 0}, {"type": "note_on", "time": 21, "note": 64, "velocity": 121, "channel": 0}, {"type": "note_off", "time": 98, "note": 64, "velocity": 121, "channel": 0}, {"type": "note_on", "time": 1, "note": 61, "velocity": 99, "channel": 0}, {"type": "note_off", "time": 18, "note": 61, "velocity": 99, "channel": 0}, {"type": "note_on", "time": 6, "note": 63, "velocity": 118, "channel": 0}, {"type": "note_off", "time": 274, "note": 63, "velocity": 118, "channel": 0}, {"type": "note_on", "time": 274, "note": 73, "velocity": 118, "channel": 0}, {"type": "note_off", "time": 35, "note": 73, "velocity": 118, "channel": 0}, {"type": "note_on", "time": 4, "note": 72, "velocity": 122, "channel": 0}, {"type": "note_off", "time": 20, "note": 72, "velocity": 122, "channel": 0}, {"type": "note_on", "time": 6, "note": 71, "velocity": 124, "channel": 0}, {"type": "note_off", "time": 35, "note": 71, "velocity": 124, "channel": 0}, {"type": "note_on", "time": 8, "note": 70, "velocity": 119, "channel": 0}, {"type": "note_off", "time": 38, "note": 70, "velocity": 119, "channel": 0}, {"type": "note_on", "time": 1, "note": 68, "velocity": 118, "channel": 0}, {"type": "note_off", "time": 44, "note": 68, "velocity": 118, "channel": 0}, {"type": "note_on", "time": 7, "note": 66, "velocity": 116, "channel": 0}, {"type": "note_off", "time": 32, "note": 66, "velocity": 116, "channel": 0}, {"type": "note_on", "time": 5, "note": 65, "velocity": 120, "channel": 0}, {"type": "note_off", "time": 50, "note": 65, "velocity": 120, "channel": 0}, {"type": "note_on", "time": 15, "note": 63, "velocity": 118, "channel": 0}, {"type": "note_off", "time": 35, "note": 63, "velocity": 118, "channel": 0}, {"type": "note_on", "time": 0, "note": 65, "velocity": 116, "channel": 0}, {"type": "note_off", "time": 74, "note": 65, "velocity": 116, "channel": 0}, {"type": "note_on", "time": 308, "note": 71, "velocity": 119, "channel": 0}, {"type": "note_off", "time": 27, "note": 71, "velocity": 119, "channel": 0}, {"type": "note_on", "time": 3, "note": 69, "velocity": 119, "channel": 0}, {"type": "note_off", "time": 27, "note": 69, "velocity": 119, "channel": 0}, {"type": "note_on", "time": 0, "note": 67, "velocity": 118, "channel": 0}, {"type": "note_off", "time": 29, "note": 67, "velocity": 118, "channel": 0}, {"type": "note_on", "time": 2, "note": 64, "velocity": 117, "channel": 0}, {"type": "note_off", "time": 46, "note": 64, "velocity": 117, "channel": 0}, {"type": "note_on", "time": 8, "note": 60, "velocity": 115, "channel": 0}, {"type": "note_off", "time": 31, "note": 60, "velocity": 115, "channel": 0}, {"type": "note_on", "time": 5, "note": 57, "velocity": 114, "channel": 0}, {"type": "note_off", "time": 43, "note": 57, "velocity": 114, "channel": 0}, {"type": "note_on", "time": 7, "note": 52, "velocity": 111, "channel": 0}, {"type": "note_off", "time": 37, "note": 52, "velocity": 111, "channel": 0}, {"type": "note_on", "time": 7, "note": 55, "velocity": 117, "channel": 0}, {"type": "note_off", "time": 98, "note": 55, "velocity": 117, "channel": 0}, {"type": "note_on", "time": 181, "note": 58, "velocity": 116, "channel": 0}, {"type": "note_off", "time": 115, "note": 58, "velocity": 116, "channel": 0}, {"type": "note_on", "time": 177, "note": 62, "velocity": 119, "channel": 0}, {"type": "note_off", "time": 115, "note": 62, "velocity": 119, "channel": 0}, {"type": "note_on", "time": 90, "note": 65, "velocity": 119, "channel": 0}, {"type": "note_off", "time": 90, "note": 65, "velocity": 119, "channel": 0}, {"type": "note_on", "time": 85, "note": 65, "velocity": 119, "channel": 0}, {"type": "note_off", "time": 118, "note": 65, "velocity": 119, "channel": 0}, {"type": "note_on", "time": 6, "note": 60, "velocity": 102, "channel": 0}, {"type": "note_off", "time": 48, "note": 60, "velocity": 102, "channel": 0}, {"type": "note_on", "time": 3, "note": 64, "velocity": 122, "channel": 0}, {"type": "note_off", "time": 115, "note": 64, "velocity": 122, "channel": 0}, {"type": "note_on", "time": 4, "note": 62, "velocity": 101, "channel": 0}, {"type": "note_off", "time": 43, "note": 62, "velocity": 101, "channel": 0}, {"type": "note_on", "time": 25, "note": 64, "velocity": 120, "channel": 0}, {"type": "note_off", "time": 112, "note": 64, "velocity": 120, "channel": 0}, {"type": "note_on", "time": 27, "note": 67, "velocity": 115, "channel": 0}, {"type": "note_off", "time": 49, "note": 67, "velocity": 115, "channel": 0}, {"type": "note_on", "time": 49, "note": 65, "velocity": 119, "channel": 0}, {"type": "note_off", "time": 76, "note": 65, "velocity": 119, "channel": 0}, {"type": "note_on", "time": 30, "note": 67, "velocity": 118, "channel": 0}, {"type": "note_off", "time": 53, "note": 67, "velocity": 118, "channel": 0}, {"type": "note_on", "time": 25, "note": 69, "velocity": 123, "channel": 0}, {"type": "note_off", "time": 79, "note": 69, "velocity": 123, "channel": 0}, {"type": "note_on", "time": 15, "note": 72, "velocity": 118, "channel": 0}, {"type": "note_off", "time": 68, "note": 72, "velocity": 118, "channel": 0}, {"type": "note_on", "time": 43, "note": 73, "velocity": 117, "channel": 0}, {"type": "note_off", "time": 74, "note": 73, "velocity": 117, "channel": 0}, {"type": "note_on", "time": 10, "note": 70, "velocity": 119, "channel": 0}, {"type": "note_off", "time": 56, "note": 70, "velocity": 119, "channel": 0}, {"type": "note_on", "time": 23, "note": 66, "velocity": 120, "channel": 0}, {"type": "note_off", "time": 91, "note": 66, "velocity": 120, "channel": 0}, {"type": "note_on", "time": 14, "note": 61, "velocity": 111, "channel": 0}, {"type": "note_off", "time": 64, "note": 61, "velocity": 111, "channel": 0}, {"type": "note_on", "time": 17, "note": 59, "velocity": 113, "channel": 0}, {"type": "note_off", "time": 108, "note": 59, "velocity": 113, "channel": 0}, {"type": "note_on", "time": 15, "note": 64, "velocity": 102, "channel": 0}, {"type": "note_off", "time": 42, "note": 64, "velocity": 102, "channel": 0}, {"type": "note_on", "time": 15, "note": 68, "velocity": 119, "channel": 0}, {"type": "note_off", "time": 91, "note": 68, "velocity": 119, "channel": 0}, {"type": "note_on", "time": 21, "note": 71, "velocity": 121, "channel": 0}, {"type": "note_off", "time": 61, "note": 71, "velocity": 121, "channel": 0}, {"type": "note_on", "time": 39, "note": 70, "velocity": 116, "channel": 0}, {"type": "note_off", "time": 76, "note": 70, "velocity": 116, "channel": 0}, {"type": "note_on", "time": 19, "note": 66, "velocity": 119, "channel": 0}, {"type": "note_off", "time": 61, "note": 66, "velocity": 119, "channel": 0}, {"type": "note_on", "time": 33, "note": 61, "velocity": 111, "channel": 0}, {"type": "note_off", "time": 102, "note": 61, "velocity": 111, "channel": 0}, {"type": "note_on", "time": 8, "note": 59, "velocity": 101, "channel": 0}, {"type": "note_off", "time": 44, "note": 59, "velocity": 101, "channel": 0}, {"type": "note_on", "time": 24, "note": 60, "velocity": 118, "channel": 0}, {"type": "note_off", "time": 106, "note": 60, "velocity": 118, "channel": 0}, {"type": "note_on", "time": 65, "note": 67, "velocity": 106, "channel": 0}, {"type": "note_off", "time": 35, "note": 67, "velocity": 106, "channel": 0}, {"type": "note_on", "time": 15, "note": 69, "velocity": 119, "channel": 0}, {"type": "note_off", "time": 138, "note": 69, "velocity": 119, "channel": 0}, {"type": "note_on", "time": 6, "note": 70, "velocity": 116, "channel": 0}, {"type": "note_off", "time": 370, "note": 70, "velocity": 116, "channel": 0}, {"type": "note_on", "time": 15, "note": 69, "velocity": 116, "channel": 0}, {"type": "note_off", "time": 58, "note": 69, "velocity": 116, "channel": 0}, {"type": "note_on", "time": 20, "note": 65, "velocity": 116, "channel": 0}, {"type": "note_off", "time": 46, "note": 65, "velocity": 116, "channel": 0}, {"type": "note_on", "time": 5, "note": 60, "velocity": 112, "channel": 0}, {"type": "note_off", "time": 48, "note": 60, "velocity": 112, "channel": 0}, {"type": "note_on", "time": 3, "note": 67, "velocity": 117, "channel": 0}, {"type": "note_off", "time": 49, "note": 67, "velocity": 117, "channel": 0}, {"type": "note_on", "time": 10, "note": 65, "velocity": 108, "channel": 0}, {"type": "note_off", "time": 35, "note": 65, "velocity": 108, "channel": 0}, {"type": "note_on", "time": 10, "note": 60, "velocity": 109, "channel": 0}, {"type": "note_off", "time": 30, "note": 60, "velocity": 109, "channel": 0}, {"type": "note_on", "time": 2, "note": 62, "velocity": 116, "channel": 0}, {"type": "note_off", "time": 35, "note": 62, "velocity": 116, "channel": 0}, {"type": "note_on", "time": 3, "note": 57, "velocity": 108, "channel": 0}, {"type": "note_off", "time": 47, "note": 57, "velocity": 108, "channel": 0}, {"type": "note_on", "time": 37, "note": 62, "velocity": 118, "channel": 0}, {"type": "note_off", "time": 68, "note": 62, "velocity": 118, "channel": 0}, {"type": "note_on", "time": 1, "note": 60, "velocity": 111, "channel": 0}, {"type": "note_off", "time": 36, "note": 60, "velocity": 111, "channel": 0}, {"type": "note_on", "time": 8, "note": 57, "velocity": 107, "channel": 0}, {"type": "note_off", "time": 53, "note": 57, "velocity": 107, "channel": 0}, {"type": "note_on", "time": 2, "note": 53, "velocity": 109, "channel": 0}, {"type": "note_off", "time": 43, "note": 53, "velocity": 109, "channel": 0}, {"type": "note_on", "time": 6, "note": 58, "velocity": 111, "channel": 0}, {"type": "note_off", "time": 48, "note": 58, "velocity": 111, "channel": 0}, {"type": "note_on", "time": 12, "note": 55, "velocity": 112, "channel": 0}, {"type": "note_off", "time": 46, "note": 55, "velocity": 112, "channel": 0}, {"type": "note_on", "time": 5, "note": 56, "velocity": 109, "channel": 0}, {"type": "note_off", "time": 29, "note": 56, "velocity": 109, "channel": 0}, {"type": "note_on", "time": 8, "note": 58, "velocity": 107, "channel": 0}, {"type": "note_off", "time": 51, "note": 58, "velocity": 107, "channel": 0}, {"type": "note_on", "time": 11, "note": 59, "velocity": 114, "channel": 0}, {"type": "note_off", "time": 55, "note": 59, "velocity": 114, "channel": 0}, {"type": "note_on", "time": 11, "note": 61, "velocity": 111, "channel": 0}, {"type": "note_off", "time": 37, "note": 61, "velocity": 111, "channel": 0}, {"type": "note_on", "time": 17, "note": 63, "velocity": 111, "channel": 0}, {"type": "note_off", "time": 59, "note": 63, "velocity": 111, "channel": 0}, {"type": "note_on", "time": 27, "note": 70, "velocity": 113, "channel": 0}, {"type": "note_off", "time": 39, "note": 70, "velocity": 113, "channel": 0}, {"type": "note_on", "time": 4, "note": 73, "velocity": 113, "channel": 0}, {"type": "note_off", "time": 62, "note": 73, "velocity": 113, "channel": 0}, {"type": "note_on", "time": 23, "note": 71, "velocity": 112, "channel": 0}, {"type": "note_off", "time": 28, "note": 71, "velocity": 112, "channel": 0}, {"type": "note_on", "time": 11, "note": 72, "velocity": 114, "channel": 0}, {"type": "note_off", "time": 57, "note": 72, "velocity": 114, "channel": 0}, {"type": "note_on", "time": 2, "note": 70, "velocity": 98, "channel": 0}, {"type": "note_off", "time": 50, "note": 70, "velocity": 98, "channel": 0}, {"type": "note_on", "time": 3, "note": 71, "velocity": 115, "channel": 0}, {"type": "note_off", "time": 62, "note": 71, "velocity": 115, "channel": 0}, {"type": "note_on", "time": 21, "note": 63, "velocity": 107, "channel": 0}, {"type": "note_off", "time": 37, "note": 63, "velocity": 107, "channel": 0}, {"type": "note_on", "time": 1, "note": 68, "velocity": 97, "channel": 0}, {"type": "note_off", "time": 25, "note": 68, "velocity": 97, "channel": 0}, {"type": "note_on", "time": 12, "note": 71, "velocity": 112, "channel": 0}, {"type": "note_off", "time": 77, "note": 71, "velocity": 112, "channel": 0}, {"type": "note_on", "time": 4, "note": 69, "velocity": 109, "channel": 0}, {"type": "note_off", "time": 59, "note": 69, "velocity": 109, "channel": 0}, {"type": "note_on", "time": 238, "note": 74, "velocity": 114, "channel": 0}, {"type": "note_off", "time": 67, "note": 74, "velocity": 114, "channel": 0}, {"type": "note_on", "time": 1, "note": 71, "velocity": 108, "channel": 0}, {"type": "note_off", "time": 11, "note": 71, "velocity": 108, "channel": 0}, {"type": "note_on", "time": 0, "note": 72, "velocity": 116, "channel": 0}, {"type": "note_off", "time": 82, "note": 72, "velocity": 116, "channel": 0}, {"type": "note_on", "time": 2, "note": 72, "velocity": 113, "channel": 0}, {"type": "note_off", "time": 51, "note": 72, "velocity": 113, "channel": 0}, {"type": "note_on", "time": 10, "note": 72, "velocity": 112, "channel": 0}, {"type": "note_off", "time": 45, "note": 72, "velocity": 112, "channel": 0}, {"type": "note_on", "time": 427, "note": 69, "velocity": 117, "channel": 0}, {"type": "note_off", "time": 67, "note": 69, "velocity": 117, "channel": 0}, {"type": "note_on", "time": 1, "note": 70, "velocity": 116, "channel": 0}, {"type": "note_off", "time": 60, "note": 70, "velocity": 116, "channel": 0}, {"type": "note_on", "time": 14, "note": 66, "velocity": 91, "channel": 0}, {"type": "note_off", "time": 31, "note": 66, "velocity": 91, "channel": 0}, {"type": "note_on", "time": 25, "note": 69, "velocity": 120, "channel": 0}, {"type": "note_on", "time": 55, "note": 67, "velocity": 103, "channel": 0}, {"type": "note_off", "time": 0, "note": 69, "velocity": 120, "channel": 0}, {"type": "note_off", "time": 79, "note": 67, "velocity": 103, "channel": 0}, {"type": "note_on", "time": 53, "note": 67, "velocity": 103, "channel": 0}, {"type": "note_off", "time": 85, "note": 67, "velocity": 103, "channel": 0}, {"type": "note_on", "time": 18, "note": 64, "velocity": 122, "channel": 0}, {"type": "note_off", "time": 63, "note": 64, "velocity": 122, "channel": 0}, {"type": "note_on", "time": 35, "note": 67, "velocity": 116, "channel": 0}, {"type": "note_off", "time": 56, "note": 67, "velocity": 116, "channel": 0}, {"type": "note_on", "time": 38, "note": 70, "velocity": 119, "channel": 0}, {"type": "note_off", "time": 58, "note": 70, "velocity": 119, "channel": 0}, {"type": "note_on", "time": 46, "note": 72, "velocity": 120, "channel": 0}, {"type": "note_off", "time": 63, "note": 72, "velocity": 120, "channel": 0}, {"type": "note_on", "time": 40, "note": 73, "velocity": 122, "channel": 0}, {"type": "note_off", "time": 77, "note": 73, "velocity": 122, "channel": 0}, {"type": "note_on", "time": 0, "note": 72, "velocity": 96, "channel": 0}, {"type": "note_off", "time": 61, "note": 72, "velocity": 96, "channel": 0}, {"type": "note_on", "time": 7, "note": 72, "velocity": 118, "channel": 0}, {"type": "note_off", "time": 85, "note": 72, "velocity": 118, "channel": 0}, {"type": "note_on", "time": 50, "note": 70, "velocity": 119, "channel": 0}, {"type": "note_off", "time": 52, "note": 70, "velocity": 119, "channel": 0}, {"type": "note_on", "time": 39, "note": 70, "velocity": 118, "channel": 0}, {"type": "note_off", "time": 93, "note": 70, "velocity": 118, "channel": 0}, {"type": "note_on", "time": 17, "note": 67, "velocity": 92, "channel": 0}, {"type": "note_off", "time": 35, "note": 67, "velocity": 92, "channel": 0}, {"type": "note_on", "time": 5, "note": 70, "velocity": 116, "channel": 0}, {"type": "note_off", "time": 91, "note": 70, "velocity": 116, "channel": 0}, {"type": "note_on", "time": 98, "note": 69, "velocity": 118, "channel": 0}, {"type": "note_off", "time": 101, "note": 69, "velocity": 118, "channel": 0}, {"type": "note_on", "time": 25, "note": 67, "velocity": 113, "channel": 0}, {"type": "note_off", "time": 70, "note": 67, "velocity": 113, "channel": 0}, {"type": "note_on", "time": 41, "note": 66, "velocity": 117, "channel": 0}, {"type": "note_off", "time": 65, "note": 66, "velocity": 117, "channel": 0}, {"type": "note_on", "time": 50, "note": 69, "velocity": 118, "channel": 0}, {"type": "note_off", "time": 46, "note": 69, "velocity": 118, "channel": 0}, {"type": "note_on", "time": 19, "note": 67, "velocity": 116, "channel": 0}, {"type": "note_off", "time": 144, "note": 67, "velocity": 116, "channel": 0}, {"type": "note_on", "time": 41, "note": 65, "velocity": 118, "channel": 0}, {"type": "note_off", "time": 136, "note": 65, "velocity": 118, "channel": 0}, {"type": "note_on", "time": 12, "note": 63, "velocity": 108, "channel": 0}, {"type": "note_off", "time": 39, "note": 63, "velocity": 108, "channel": 0}, {"type": "note_on", "time": 7, "note": 64, "velocity": 120, "channel": 0}, {"type": "note_off", "time": 85, "note": 64, "velocity": 120, "channel": 0}, {"type": "note_on", "time": 20, "note": 74, "velocity": 115, "channel": 0}, {"type": "note_off", "time": 25, "note": 74, "velocity": 115, "channel": 0}, {"type": "note_on", "time": 29, "note": 77, "velocity": 117, "channel": 0}, {"type": "note_off", "time": 137, "note": 77, "velocity": 117, "channel": 0}, {"type": "note_on", "time": 10, "note": 72, "velocity": 113, "channel": 0}, {"type": "note_off", "time": 57, "note": 72, "velocity": 113, "channel": 0}, {"type": "note_on", "time": 64, "note": 69, "velocity": 113, "channel": 0}, {"type": "note_off", "time": 170, "note": 69, "velocity": 113, "channel": 0}, {"type": "note_on", "time": 139, "note": 70, "velocity": 113, "channel": 0}, {"type": "note_off", "time": 66, "note": 70, "velocity": 113, "channel": 0}, {"type": "note_on", "time": 12, "note": 69, "velocity": 110, "channel": 0}, {"type": "note_off", "time": 29, "note": 69, "velocity": 110, "channel": 0}, {"type": "note_on", "time": 2, "note": 65, "velocity": 107, "channel": 0}, {"type": "note_off", "time": 48, "note": 65, "velocity": 107, "channel": 0}, {"type": "note_on", "time": 7, "note": 60, "velocity": 103, "channel": 0}, {"type": "note_off", "time": 24, "note": 60, "velocity": 103, "channel": 0}, {"type": "note_on", "time": 1, "note": 67, "velocity": 115, "channel": 0}, {"type": "note_off", "time": 43, "note": 67, "velocity": 115, "channel": 0}, {"type": "note_on", "time": 13, "note": 65, "velocity": 110, "channel": 0}, {"type": "note_off", "time": 62, "note": 65, "velocity": 110, "channel": 0}, {"type": "note_on", "time": 2, "note": 59, "velocity": 112, "channel": 0}, {"type": "note_off", "time": 35, "note": 59, "velocity": 112, "channel": 0}, {"type": "note_on", "time": 0, "note": 57, "velocity": 110, "channel": 0}, {"type": "note_off", "time": 38, "note": 57, "velocity": 110, "channel": 0}, {"type": "note_on", "time": 2, "note": 62, "velocity": 119, "channel": 0}, {"type": "note_off", "time": 41, "note": 62, "velocity": 119, "channel": 0}, {"type": "note_on", "time": 0, "note": 60, "velocity": 109, "channel": 0}, {"type": "note_off", "time": 31, "note": 60, "velocity": 109, "channel": 0}, {"type": "note_on", "time": 5, "note": 56, "velocity": 108, "channel": 0}, {"type": "note_off", "time": 18, "note": 56, "velocity": 108, "channel": 0}, {"type": "note_on", "time": 5, "note": 57, "velocity": 113, "channel": 0}, {"type": "note_off", "time": 28, "note": 57, "velocity": 113, "channel": 0}, {"type": "note_on", "time": 5, "note": 53, "velocity": 104, "channel": 0}, {"type": "note_off", "time": 30, "note": 53, "velocity": 104, "channel": 0}, {"type": "note_on", "time": 5, "note": 58, "velocity": 112, "channel": 0}, {"type": "note_off", "time": 61, "note": 58, "velocity": 112, "channel": 0}, {"type": "note_on", "time": 5, "note": 57, "velocity": 113, "channel": 0}, {"type": "note_off", "time": 24, "note": 57, "velocity": 113, "channel": 0}, {"type": "note_on", "time": 4, "note": 53, "velocity": 113, "channel": 0}, {"type": "note_off", "time": 51, "note": 53, "velocity": 113, "channel": 0}, {"type": "note_on", "time": 8, "note": 52, "velocity": 115, "channel": 0}, {"type": "note_off", "time": 25, "note": 52, "velocity": 115, "channel": 0}, {"type": "note_on", "time": 6, "note": 55, "velocity": 113, "channel": 0}, {"type": "note_off", "time": 48, "note": 55, "velocity": 113, "channel": 0}, {"type": "note_on", "time": 18, "note": 53, "velocity": 123, "channel": 0}, {"type": "note_off", "time": 40, "note": 53, "velocity": 123, "channel": 0}, {"type": "note_on", "time": 4, "note": 48, "velocity": 116, "channel": 0}, {"type": "note_off", "time": 40, "note": 48, "velocity": 116, "channel": 0}, {"type": "note_on", "time": 8, "note": 46, "velocity": 116, "channel": 0}, {"type": "note_off", "time": 37, "note": 46, "velocity": 116, "channel": 0}, {"type": "note_on", "time": 5, "note": 45, "velocity": 118, "channel": 0}, {"type": "note_off", "time": 71, "note": 45, "velocity": 118, "channel": 0}, {"type": "note_on", "time": 370, "note": 44, "velocity": 118, "channel": 0}, {"type": "note_off", "time": 59, "note": 44, "velocity": 118, "channel": 0}, {"type": "note_on", "time": 1, "note": 50, "velocity": 121, "channel": 0}, {"type": "note_off", "time": 29, "note": 50, "velocity": 121, "channel": 0}, {"type": "note_on", "time": 1, "note": 53, "velocity": 114, "channel": 0}, {"type": "note_off", "time": 46, "note": 53, "velocity": 114, "channel": 0}, {"type": "note_on", "time": 0, "note": 54, "velocity": 116, "channel": 0}, {"type": "note_off", "time": 26, "note": 54, "velocity": 116, "channel": 0}, {"type": "note_on", "time": 13, "note": 58, "velocity": 115, "channel": 0}, {"type": "note_off", "time": 38, "note": 58, "velocity": 115, "channel": 0}, {"type": "note_on", "time": 0, "note": 55, "velocity": 20, "channel": 0}, {"type": "note_off", "time": 41, "note": 55, "velocity": 20, "channel": 0}, {"type": "note_on", "time": 6, "note": 56, "velocity": 88, "channel": 0}, {"type": "note_off", "time": 33, "note": 56, "velocity": 88, "channel": 0}, {"type": "note_on", "time": 6, "note": 58, "velocity": 116, "channel": 0}, {"type": "note_off", "time": 47, "note": 58, "velocity": 116, "channel": 0}, {"type": "note_on", "time": 2, "note": 59, "velocity": 115, "channel": 0}, {"type": "note_off", "time": 42, "note": 59, "velocity": 115, "channel": 0}, {"type": "note_on", "time": 9, "note": 61, "velocity": 119, "channel": 0}, {"type": "note_off", "time": 41, "note": 61, "velocity": 119, "channel": 0}, {"type": "note_on", "time": 9, "note": 63, "velocity": 118, "channel": 0}, {"type": "note_off", "time": 31, "note": 63, "velocity": 118, "channel": 0}, {"type": "note_on", "time": 0, "note": 65, "velocity": 120, "channel": 0}, {"type": "note_off", "time": 54, "note": 65, "velocity": 120, "channel": 0}, {"type": "note_on", "time": 3, "note": 64, "velocity": 123, "channel": 0}, {"type": "note_off", "time": 45, "note": 64, "velocity": 123, "channel": 0}, {"type": "note_on", "time": 0, "note": 60, "velocity": 117, "channel": 0}, {"type": "note_off", "time": 37, "note": 60, "velocity": 117, "channel": 0}, {"type": "note_on", "time": 0, "note": 56, "velocity": 113, "channel": 0}, {"type": "note_off", "time": 62, "note": 56, "velocity": 113, "channel": 0}, {"type": "note_on", "time": 1, "note": 52, "velocity": 112, "channel": 0}, {"type": "note_off", "time": 28, "note": 52, "velocity": 112, "channel": 0}, {"type": "note_on", "time": 3, "note": 59, "velocity": 114, "channel": 0}, {"type": "note_off", "time": 57, "note": 59, "velocity": 114, "channel": 0}, {"type": "note_on", "time": 0, "note": 56, "velocity": 111, "channel": 0}, {"type": "note_off", "time": 75, "note": 56, "velocity": 111, "channel": 0}, {"type": "note_on", "time": 3, "note": 57, "velocity": 116, "channel": 0}, {"type": "note_off", "time": 23, "note": 57, "velocity": 116, "channel": 0}, {"type": "note_on", "time": 2, "note": 58, "velocity": 116, "channel": 0}, {"type": "note_off", "time": 37, "note": 58, "velocity": 116, "channel": 0}, {"type": "note_on", "time": 4, "note": 60, "velocity": 115, "channel": 0}, {"type": "note_off", "time": 52, "note": 60, "velocity": 115, "channel": 0}, {"type": "note_on", "time": 4, "note": 62, "velocity": 116, "channel": 0}, {"type": "note_off", "time": 31, "note": 62, "velocity": 116, "channel": 0}, {"type": "note_on", "time": 9, "note": 64, "velocity": 118, "channel": 0}, {"type": "note_off", "time": 51, "note": 64, "velocity": 118, "channel": 0}, {"type": "note_on", "time": 0, "note": 68, "velocity": 112, "channel": 0}, {"type": "note_off", "time": 22, "note": 68, "velocity": 112, "channel": 0}, {"type": "note_on", "time": 4, "note": 71, "velocity": 114, "channel": 0}, {"type": "note_off", "time": 58, "note": 71, "velocity": 114, "channel": 0}, {"type": "note_on", "time": 0, "note": 69, "velocity": 115, "channel": 0}, {"type": "note_off", "time": 47, "note": 69, "velocity": 115, "channel": 0}, {"type": "note_on", "time": 2, "note": 67, "velocity": 112, "channel": 0}, {"type": "note_off", "time": 45, "note": 67, "velocity": 112, "channel": 0}, {"type": "note_on", "time": 2, "note": 64, "velocity": 110, "channel": 0}, {"type": "note_off", "time": 30, "note": 64, "velocity": 110, "channel": 0}, {"type": "note_on", "time": 10, "note": 65, "velocity": 116, "channel": 0}, {"type": "note_off", "time": 165, "note": 65, "velocity": 116, "channel": 0}, {"type": "note_on", "time": 213, "note": 62, "velocity": 123, "channel": 0}, {"type": "note_off", "time": 152, "note": 62, "velocity": 123, "channel": 0}, {"type": "note_on", "time": 239, "note": 65, "velocity": 120, "channel": 0}, {"type": "note_off", "time": 98, "note": 65, "velocity": 120, "channel": 0}, {"type": "note_on", "time": 73, "note": 65, "velocity": 120, "channel": 0}, {"type": "note_off", "time": 138, "note": 65, "velocity": 120, "channel": 0}, {"type": "note_on", "time": 15, "note": 61, "velocity": 109, "channel": 0}, {"type": "note_off", "time": 45, "note": 61, "velocity": 109, "channel": 0}, {"type": "note_on", "time": 5, "note": 64, "velocity": 122, "channel": 0}, {"type": "note_off", "time": 130, "note": 64, "velocity": 122, "channel": 0}, {"type": "note_on", "time": 5, "note": 60, "velocity": 102, "channel": 0}, {"type": "note_off", "time": 48, "note": 60, "velocity": 102, "channel": 0}, {"type": "note_on", "time": 4, "note": 64, "velocity": 118, "channel": 0}, {"type": "note_off", "time": 120, "note": 64, "velocity": 118, "channel": 0}, {"type": "note_on", "time": 12, "note": 67, "velocity": 119, "channel": 0}, {"type": "note_off", "time": 55, "note": 67, "velocity": 119, "channel": 0}, {"type": "note_on", "time": 52, "note": 65, "velocity": 120, "channel": 0}, {"type": "note_off", "time": 80, "note": 65, "velocity": 120, "channel": 0}, {"type": "note_on", "time": 25, "note": 67, "velocity": 120, "channel": 0}, {"type": "note_off", "time": 50, "note": 67, "velocity": 120, "channel": 0}, {"type": "note_on", "time": 40, "note": 69, "velocity": 122, "channel": 0}, {"type": "note_off", "time": 55, "note": 69, "velocity": 122, "channel": 0}, {"type": "note_on", "time": 15, "note": 70, "velocity": 108, "channel": 0}, {"type": "note_off", "time": 76, "note": 70, "velocity": 108, "channel": 0}, {"type": "note_on", "time": 20, "note": 70, "velocity": 118, "channel": 0}, {"type": "note_off", "time": 55, "note": 70, "velocity": 118, "channel": 0}, {"type": "note_on", "time": 9, "note": 72, "velocity": 118, "channel": 0}, {"type": "note_off", "time": 216, "note": 72, "velocity": 118, "channel": 0}, {"type": "note_on", "time": 7, "note": 69, "velocity": 111, "channel": 0}, {"type": "note_off", "time": 19, "note": 69, "velocity": 111, "channel": 0}, {"type": "note_on", "time": 2, "note": 67, "velocity": 119, "channel": 0}, {"type": "note_off", "time": 31, "note": 67, "velocity": 119, "channel": 0}, {"type": "note_on", "time": 4, "note": 65, "velocity": 116, "channel": 0}, {"type": "note_off", "time": 26, "note": 65, "velocity": 116, "channel": 0}, {"type": "note_on", "time": 5, "note": 64, "velocity": 120, "channel": 0}, {"type": "note_off", "time": 44, "note": 64, "velocity": 120, "channel": 0}, {"type": "note_on", "time": 6, "note": 62, "velocity": 116, "channel": 0}, {"type": "note_off", "time": 22, "note": 62, "velocity": 116, "channel": 0}, {"type": "note_on", "time": 5, "note": 61, "velocity": 115, "channel": 0}, {"type": "note_off", "time": 41, "note": 61, "velocity": 115, "channel": 0}, {"type": "note_on", "time": 9, "note": 59, "velocity": 112, "channel": 0}, {"type": "note_off", "time": 31, "note": 59, "velocity": 112, "channel": 0}, {"type": "note_on", "time": 2, "note": 57, "velocity": 116, "channel": 0}, {"type": "note_off", "time": 21, "note": 57, "velocity": 116, "channel": 0}, {"type": "note_on", "time": 7, "note": 55, "velocity": 116, "channel": 0}, {"type": "note_off", "time": 28, "note": 55, "velocity": 116, "channel": 0}, {"type": "note_on", "time": 7, "note": 54, "velocity": 114, "channel": 0}, {"type": "note_off", "time": 22, "note": 54, "velocity": 114, "channel": 0}, {"type": "note_on", "time": 4, "note": 52, "velocity": 115, "channel": 0}, {"type": "note_off", "time": 28, "note": 52, "velocity": 115, "channel": 0}, {"type": "note_on", "time": 5, "note": 51, "velocity": 117, "channel": 0}, {"type": "note_off", "time": 31, "note": 51, "velocity": 117, "channel": 0}, {"type": "note_on", "time": 8, "note": 50, "velocity": 115, "channel": 0}, {"type": "note_off", "time": 25, "note": 50, "velocity": 115, "channel": 0}, {"type": "note_on", "time": 7, "note": 49, "velocity": 116, "channel": 0}, {"type": "note_off", "time": 32, "note": 49, "velocity": 116, "channel": 0}, {"type": "note_on", "time": 1, "note": 47, "velocity": 117, "channel": 0}, {"type": "note_off", "time": 41, "note": 47, "velocity": 117, "channel": 0}, {"type": "note_on", "time": 3, "note": 46, "velocity": 116, "channel": 0}, {"type": "note_off", "time": 22, "note": 46, "velocity": 116, "channel": 0}, {"type": "note_on", "time": 5, "note": 45, "velocity": 118, "channel": 0}, {"type": "note_off", "time": 109, "note": 45, "velocity": 118, "channel": 0}, {"type": "note_on", "time": 560, "note": 49, "velocity": 116, "channel": 0}, {"type": "note_off", "time": 36, "note": 49, "velocity": 116, "channel": 0}, {"type": "note_on", "time": 11, "note": 51, "velocity": 112, "channel": 0}, {"type": "note_off", "time": 36, "note": 51, "velocity": 112, "channel": 0}, {"type": "note_on", "time": 1, "note": 53, "velocity": 119, "channel": 0}, {"type": "note_off", "time": 44, "note": 53, "velocity": 119, "channel": 0}, {"type": "note_on", "time": 7, "note": 49, "velocity": 118, "channel": 0}, {"type": "note_off", "time": 41, "note": 49, "velocity": 118, "channel": 0}, {"type": "note_on", "time": 1, "note": 51, "velocity": 114, "channel": 0}, {"type": "note_off", "time": 36, "note": 51, "velocity": 114, "channel": 0}, {"type": "note_on", "time": 3, "note": 53, "velocity": 116, "channel": 0}, {"type": "note_off", "time": 26, "note": 53, "velocity": 116, "channel": 0}, {"type": "note_on", "time": 6, "note": 55, "velocity": 120, "channel": 0}, {"type": "note_off", "time": 20, "note": 55, "velocity": 120, "channel": 0}, {"type": "note_on", "time": 6, "note": 57, "velocity": 118, "channel": 0}, {"type": "note_off", "time": 34, "note": 57, "velocity": 118, "channel": 0}, {"type": "note_on", "time": 6, "note": 58, "velocity": 118, "channel": 0}, {"type": "note_off", "time": 52, "note": 58, "velocity": 118, "channel": 0}, {"type": "note_on", "time": 1, "note": 60, "velocity": 120, "channel": 0}, {"type": "note_off", "time": 20, "note": 60, "velocity": 120, "channel": 0}, {"type": "note_on", "time": 5, "note": 61, "velocity": 118, "channel": 0}, {"type": "note_off", "time": 18, "note": 61, "velocity": 118, "channel": 0}, {"type": "note_on", "time": 3, "note": 63, "velocity": 123, "channel": 0}, {"type": "note_off", "time": 29, "note": 63, "velocity": 123, "channel": 0}, {"type": "note_on", "time": 7, "note": 65, "velocity": 118, "channel": 0}, {"type": "note_off", "time": 61, "note": 65, "velocity": 118, "channel": 0}, {"type": "note_on", "time": 4, "note": 69, "velocity": 116, "channel": 0}, {"type": "note_off", "time": 30, "note": 69, "velocity": 116, "channel": 0}, {"type": "note_on", "time": 3, "note": 70, "velocity": 120, "channel": 0}, {"type": "note_off", "time": 40, "note": 70, "velocity": 120, "channel": 0}, {"type": "note_on", "time": 18, "note": 72, "velocity": 121, "channel": 0}, {"type": "note_off", "time": 112, "note": 72, "velocity": 121, "channel": 0}, {"type": "note_on", "time": 4, "note": 72, "velocity": 118, "channel": 0}, {"type": "note_off", "time": 65, "note": 72, "velocity": 118, "channel": 0}, {"type": "note_on", "time": 3, "note": 69, "velocity": 122, "channel": 0}, {"type": "note_off", "time": 48, "note": 69, "velocity": 122, "channel": 0}, {"type": "note_on", "time": 7, "note": 72, "velocity": 121, "channel": 0}, {"type": "note_off", "time": 218, "note": 72, "velocity": 121, "channel": 0}, {"type": "note_on", "time": 6, "note": 72, "velocity": 121, "channel": 0}, {"type": "note_off", "time": 61, "note": 72, "velocity": 121, "channel": 0}, {"type": "note_on", "time": 2, "note": 70, "velocity": 118, "channel": 0}, {"type": "note_off", "time": 51, "note": 70, "velocity": 118, "channel": 0}, {"type": "note_on", "time": 7, "note": 72, "velocity": 121, "channel": 0}, {"type": "note_off", "time": 38, "note": 72, "velocity": 121, "channel": 0}, {"type": "note_on", "time": 9, "note": 72, "velocity": 121, "channel": 0}, {"type": "note_off", "time": 46, "note": 72, "velocity": 121, "channel": 0}, {"type": "note_on", "time": 21, "note": 69, "velocity": 117, "channel": 0}, {"type": "note_off", "time": 43, "note": 69, "velocity": 117, "channel": 0}, {"type": "note_on", "time": 6, "note": 72, "velocity": 120, "channel": 0}, {"type": "note_off", "time": 43, "note": 72, "velocity": 120, "channel": 0}, {"type": "note_on", "time": 12, "note": 72, "velocity": 122, "channel": 0}, {"type": "note_off", "time": 39, "note": 72, "velocity": 122, "channel": 0}, {"type": "note_on", "time": 21, "note": 67, "velocity": 117, "channel": 0}, {"type": "note_off", "time": 37, "note": 67, "velocity": 117, "channel": 0}, {"type": "note_on", "time": 0, "note": 72, "velocity": 115, "channel": 0}, {"type": "note_off", "time": 51, "note": 72, "velocity": 115, "channel": 0}, {"type": "note_on", "time": 9, "note": 65, "velocity": 118, "channel": 0}, {"type": "note_off", "time": 148, "note": 65, "velocity": 118, "channel": 0}, {"type": "note_on", "time": 204, "note": 64, "velocity": 120, "channel": 0}, {"type": "note_off", "time": 123, "note": 64, "velocity": 120, "channel": 0}, {"type": "note_on", "time": 3, "note": 61, "velocity": 106, "channel": 0}, {"type": "note_off", "time": 43, "note": 61, "velocity": 106, "channel": 0}, {"type": "note_on", "time": 11, "note": 64, "velocity": 121, "channel": 0}, {"type": "note_off", "time": 115, "note": 64, "velocity": 121, "channel": 0}, {"type": "note_on", "time": 10, "note": 67, "velocity": 117, "channel": 0}, {"type": "note_off", "time": 78, "note": 67, "velocity": 117, "channel": 0}, {"type": "note_on", "time": 23, "note": 65, "velocity": 118, "channel": 0}, {"type": "note_off", "time": 89, "note": 65, "velocity": 118, "channel": 0}, {"type": "note_on", "time": 66, "note": 69, "velocity": 95, "channel": 0}, {"type": "note_off", "time": 26, "note": 69, "velocity": 95, "channel": 0}, {"type": "note_on", "time": 4, "note": 70, "velocity": 117, "channel": 0}, {"type": "note_off", "time": 85, "note": 70, "velocity": 117, "channel": 0}, {"type": "note_on", "time": 12, "note": 71, "velocity": 115, "channel": 0}, {"type": "note_off", "time": 115, "note": 71, "velocity": 115, "channel": 0}, {"type": "note_on", "time": 12, "note": 73, "velocity": 118, "channel": 0}, {"type": "note_off", "time": 51, "note": 73, "velocity": 118, "channel": 0}, {"type": "note_on", "time": 10, "note": 75, "velocity": 120, "channel": 0}, {"type": "note_off", "time": 96, "note": 75, "velocity": 120, "channel": 0}, {"type": "note_on", "time": 20, "note": 71, "velocity": 120, "channel": 0}, {"type": "note_off", "time": 70, "note": 71, "velocity": 120, "channel": 0}, {"type": "note_on", "time": 37, "note": 63, "velocity": 107, "channel": 0}, {"type": "note_off", "time": 49, "note": 63, "velocity": 107, "channel": 0}, {"type": "note_on", "time": 0, "note": 68, "velocity": 119, "channel": 0}, {"type": "note_off", "time": 117, "note": 68, "velocity": 119, "channel": 0}, {"type": "note_on", "time": 12, "note": 71, "velocity": 120, "channel": 0}, {"type": "note_off", "time": 78, "note": 71, "velocity": 120, "channel": 0}, {"type": "note_on", "time": 14, "note": 70, "velocity": 118, "channel": 0}, {"type": "note_off", "time": 94, "note": 70, "velocity": 118, "channel": 0}, {"type": "note_on", "time": 12, "note": 68, "velocity": 119, "channel": 0}, {"type": "note_off", "time": 95, "note": 68, "velocity": 119, "channel": 0}, {"type": "note_on", "time": 13, "note": 67, "velocity": 116, "channel": 0}, {"type": "note_off", "time": 90, "note": 67, "velocity": 116, "channel": 0}, {"type": "note_on", "time": 24, "note": 63, "velocity": 102, "channel": 0}, {"type": "note_off", "time": 35, "note": 63, "velocity": 102, "channel": 0}, {"type": "note_on", "time": 5, "note": 66, "velocity": 117, "channel": 0}, {"type": "note_off", "time": 125, "note": 66, "velocity": 117, "channel": 0}, {"type": "note_on", "time": 23, "note": 63, "velocity": 108, "channel": 0}, {"type": "note_off", "time": 40, "note": 63, "velocity": 108, "channel": 0}, {"type": "note_on", "time": 11, "note": 65, "velocity": 119, "channel": 0}, {"type": "note_off", "time": 111, "note": 65, "velocity": 119, "channel": 0}, {"type": "note_on", "time": 397, "note": 74, "velocity": 119, "channel": 0}, {"type": "note_off", "time": 68, "note": 74, "velocity": 119, "channel": 0}, {"type": "note_on", "time": 1, "note": 72, "velocity": 121, "channel": 0}, {"type": "note_off", "time": 46, "note": 72, "velocity": 121, "channel": 0}, {"type": "note_on", "time": 21, "note": 69, "velocity": 105, "channel": 0}, {"type": "note_off", "time": 52, "note": 69, "velocity": 105, "channel": 0}, {"type": "note_on", "time": 7, "note": 70, "velocity": 113, "channel": 0}, {"type": "note_off", "time": 63, "note": 70, "velocity": 113, "channel": 0}, {"type": "note_on", "time": 9, "note": 67, "velocity": 116, "channel": 0}, {"type": "note_off", "time": 74, "note": 67, "velocity": 116, "channel": 0}, {"type": "note_on", "time": 305, "note": 66, "velocity": 122, "channel": 0}, {"type": "note_off", "time": 100, "note": 66, "velocity": 122, "channel": 0}, {"type": "note_on", "time": 31, "note": 62, "velocity": 107, "channel": 0}, {"type": "note_off", "time": 50, "note": 62, "velocity": 107, "channel": 0}, {"type": "note_on", "time": 8, "note": 65, "velocity": 117, "channel": 0}, {"type": "note_off", "time": 107, "note": 65, "velocity": 117, "channel": 0}, {"type": "note_on", "time": 4, "note": 62, "velocity": 102, "channel": 0}, {"type": "note_off", "time": 41, "note": 62, "velocity": 102, "channel": 0}, {"type": "note_on", "time": 1, "note": 64, "velocity": 117, "channel": 0}, {"type": "note_off", "time": 131, "note": 64, "velocity": 117, "channel": 0}, {"type": "note_on", "time": 37, "note": 60, "velocity": 110, "channel": 0}, {"type": "note_off", "time": 50, "note": 60, "velocity": 110, "channel": 0}, {"type": "note_on", "time": 10, "note": 62, "velocity": 118, "channel": 0}, {"type": "note_off", "time": 85, "note": 62, "velocity": 118, "channel": 0}, {"type": "note_on", "time": 28, "note": 64, "velocity": 118, "channel": 0}, {"type": "note_off", "time": 81, "note": 64, "velocity": 118, "channel": 0}, {"type": "note_on", "time": 26, "note": 65, "velocity": 117, "channel": 0}, {"type": "note_off", "time": 68, "note": 65, "velocity": 117, "channel": 0}, {"type": "note_on", "time": 28, "note": 67, "velocity": 118, "channel": 0}, {"type": "note_off", "time": 56, "note": 67, "velocity": 118, "channel": 0}, {"type": "note_on", "time": 20, "note": 69, "velocity": 121, "channel": 0}, {"type": "note_on", "time": 81, "note": 70, "velocity": 115, "channel": 0}, {"type": "note_off", "time": 0, "note": 69, "velocity": 121, "channel": 0}, {"type": "note_off", "time": 70, "note": 70, "velocity": 115, "channel": 0}, {"type": "note_on", "time": 8, "note": 71, "velocity": 117, "channel": 0}, {"type": "note_off", "time": 26, "note": 71, "velocity": 117, "channel": 0}, {"type": "note_on", "time": 7, "note": 72, "velocity": 121, "channel": 0}, {"type": "note_off", "time": 77, "note": 72, "velocity": 121, "channel": 0}, {"type": "note_on", "time": 5, "note": 71, "velocity": 118, "channel": 0}, {"type": "note_off", "time": 29, "note": 71, "velocity": 118, "channel": 0}, {"type": "note_on", "time": 7, "note": 70, "velocity": 115, "channel": 0}, {"type": "note_off", "time": 57, "note": 70, "velocity": 115, "channel": 0}, {"type": "note_on", "time": 4, "note": 69, "velocity": 119, "channel": 0}, {"type": "note_off", "time": 82, "note": 69, "velocity": 119, "channel": 0}, {"type": "note_on", "time": 29, "note": 70, "velocity": 118, "channel": 0}, {"type": "note_off", "time": 105, "note": 70, "velocity": 118, "channel": 0}, {"type": "note_on", "time": 3, "note": 69, "velocity": 115, "channel": 0}, {"type": "note_off", "time": 45, "note": 69, "velocity": 115, "channel": 0}, {"type": "note_on", "time": 4, "note": 68, "velocity": 119, "channel": 0}, {"type": "note_off", "time": 54, "note": 68, "velocity": 119, "channel": 0}, {"type": "note_on", "time": 7, "note": 67, "velocity": 115, "channel": 0}, {"type": "note_off", "time": 59, "note": 67, "velocity": 115, "channel": 0}, {"type": "note_on", "time": 31, "note": 69, "velocity": 121, "channel": 0}, {"type": "note_off", "time": 78, "note": 69, "velocity": 121, "channel": 0}, {"type": "note_on", "time": 6, "note": 67, "velocity": 109, "channel": 0}, {"type": "note_off", "time": 43, "note": 67, "velocity": 109, "channel": 0}, {"type": "note_on", "time": 3, "note": 66, "velocity": 117, "channel": 0}, {"type": "note_off", "time": 60, "note": 66, "velocity": 117, "channel": 0}, {"type": "note_on", "time": 7, "note": 65, "velocity": 117, "channel": 0}, {"type": "note_off", "time": 63, "note": 65, "velocity": 117, "channel": 0}, {"type": "note_on", "time": 22, "note": 67, "velocity": 118, "channel": 0}, {"type": "note_off", "time": 90, "note": 67, "velocity": 118, "channel": 0}, {"type": "note_on", "time": 10, "note": 66, "velocity": 118, "channel": 0}, {"type": "note_off", "time": 37, "note": 66, "velocity": 118, "channel": 0}, {"type": "note_on", "time": 6, "note": 65, "velocity": 118, "channel": 0}, {"type": "note_off", "time": 32, "note": 65, "velocity": 118, "channel": 0}, {"type": "note_on", "time": 5, "note": 64, "velocity": 121, "channel": 0}, {"type": "note_off", "time": 50, "note": 64, "velocity": 121, "channel": 0}, {"type": "note_on", "time": 4, "note": 63, "velocity": 119, "channel": 0}, {"type": "note_off", "time": 215, "note": 63, "velocity": 119, "channel": 0}, {"type": "note_on", "time": 10, "note": 59, "velocity": 116, "channel": 0}, {"type": "note_off", "time": 51, "note": 59, "velocity": 116, "channel": 0}, {"type": "note_on", "time": 20, "note": 55, "velocity": 118, "channel": 0}, {"type": "note_off", "time": 23, "note": 55, "velocity": 118, "channel": 0}, {"type": "note_on", "time": 15, "note": 51, "velocity": 110, "channel": 0}, {"type": "note_off", "time": 37, "note": 51, "velocity": 110, "channel": 0}, {"type": "note_on", "time": 10, "note": 58, "velocity": 127, "channel": 0}, {"type": "note_off", "time": 38, "note": 58, "velocity": 127, "channel": 0}, {"type": "note_on", "time": 10, "note": 55, "velocity": 125, "channel": 0}, {"type": "note_off", "time": 44, "note": 55, "velocity": 125, "channel": 0}, {"type": "note_on", "time": 4, "note": 56, "velocity": 124, "channel": 0}, {"type": "note_off", "time": 39, "note": 56, "velocity": 124, "channel": 0}, {"type": "note_on", "time": 2, "note": 58, "velocity": 120, "channel": 0}, {"type": "note_off", "time": 50, "note": 58, "velocity": 120, "channel": 0}, {"type": "note_on", "time": 7, "note": 59, "velocity": 119, "channel": 0}, {"type": "note_off", "time": 43, "note": 59, "velocity": 119, "channel": 0}, {"type": "note_on", "time": 6, "note": 61, "velocity": 115, "channel": 0}, {"type": "note_off", "time": 45, "note": 61, "velocity": 115, "channel": 0}, {"type": "note_on", "time": 5, "note": 63, "velocity": 121, "channel": 0}, {"type": "note_off", "time": 36, "note": 63, "velocity": 121, "channel": 0}, {"type": "note_on", "time": 5, "note": 65, "velocity": 116, "channel": 0}, {"type": "note_off", "time": 45, "note": 65, "velocity": 116, "channel": 0}, {"type": "note_on", "time": 3, "note": 66, "velocity": 117, "channel": 0}, {"type": "note_off", "time": 37, "note": 66, "velocity": 117, "channel": 0}, {"type": "note_on", "time": 1, "note": 63, "velocity": 118, "channel": 0}, {"type": "note_off", "time": 33, "note": 63, "velocity": 118, "channel": 0}, {"type": "note_on", "time": 6, "note": 65, "velocity": 118, "channel": 0}, {"type": "note_off", "time": 46, "note": 65, "velocity": 118, "channel": 0}, {"type": "note_on", "time": 4, "note": 63, "velocity": 117, "channel": 0}, {"type": "note_off", "time": 38, "note": 63, "velocity": 117, "channel": 0}, {"type": "note_on", "time": 3, "note": 64, "velocity": 119, "channel": 0}, {"type": "note_off", "time": 46, "note": 64, "velocity": 119, "channel": 0}, {"type": "note_on", "time": 8, "note": 60, "velocity": 115, "channel": 0}, {"type": "note_off", "time": 36, "note": 60, "velocity": 115, "channel": 0}, {"type": "note_on", "time": 2, "note": 57, "velocity": 113, "channel": 0}, {"type": "note_off", "time": 34, "note": 57, "velocity": 113, "channel": 0}, {"type": "note_on", "time": 16, "note": 52, "velocity": 115, "channel": 0}, {"type": "note_off", "time": 41, "note": 52, "velocity": 115, "channel": 0}, {"type": "note_on", "time": 8, "note": 59, "velocity": 113, "channel": 0}, {"type": "note_off", "time": 41, "note": 59, "velocity": 113, "channel": 0}, {"type": "note_on", "time": 4, "note": 56, "velocity": 114, "channel": 0}, {"type": "note_off", "time": 46, "note": 56, "velocity": 114, "channel": 0}, {"type": "note_on", "time": 6, "note": 57, "velocity": 112, "channel": 0}, {"type": "note_off", "time": 38, "note": 57, "velocity": 112, "channel": 0}, {"type": "note_on", "time": 14, "note": 59, "velocity": 112, "channel": 0}, {"type": "note_off", "time": 32, "note": 59, "velocity": 112, "channel": 0}, {"type": "note_on", "time": 10, "note": 60, "velocity": 115, "channel": 0}, {"type": "note_off", "time": 40, "note": 60, "velocity": 115, "channel": 0}, {"type": "note_on", "time": 8, "note": 62, "velocity": 107, "channel": 0}, {"type": "note_off", "time": 36, "note": 62, "velocity": 107, "channel": 0}, {"type": "note_on", "time": 6, "note": 64, "velocity": 122, "channel": 0}, {"type": "note_off", "time": 61, "note": 64, "velocity": 122, "channel": 0}, {"type": "note_on", "time": 6, "note": 62, "velocity": 113, "channel": 0}, {"type": "note_off", "time": 24, "note": 62, "velocity": 113, "channel": 0}, {"type": "note_on", "time": 2, "note": 63, "velocity": 121, "channel": 0}, {"type": "note_off", "time": 42, "note": 63, "velocity": 121, "channel": 0}, {"type": "note_on", "time": 8, "note": 62, "velocity": 117, "channel": 0}, {"type": "note_off", "time": 37, "note": 62, "velocity": 117, "channel": 0}, {"type": "note_on", "time": 12, "note": 61, "velocity": 117, "channel": 0}, {"type": "note_off", "time": 47, "note": 61, "velocity": 117, "channel": 0}, {"type": "note_on", "time": 2, "note": 65, "velocity": 119, "channel": 0}, {"type": "note_off", "time": 49, "note": 65, "velocity": 119, "channel": 0}, {"type": "note_on", "time": 2, "note": 62, "velocity": 118, "channel": 0}, {"type": "note_off", "time": 35, "note": 62, "velocity": 118, "channel": 0}, {"type": "note_on", "time": 3, "note": 60, "velocity": 116, "channel": 0}, {"type": "note_off", "time": 25, "note": 60, "velocity": 116, "channel": 0}, {"type": "note_on", "time": 0, "note": 59, "velocity": 111, "channel": 0}, {"type": "note_off", "time": 61, "note": 59, "velocity": 111, "channel": 0}, {"type": "note_on", "time": 5, "note": 57, "velocity": 112, "channel": 0}, {"type": "note_off", "time": 31, "note": 57, "velocity": 112, "channel": 0}, {"type": "note_on", "time": 5, "note": 58, "velocity": 113, "channel": 0}, {"type": "note_off", "time": 38, "note": 58, "velocity": 113, "channel": 0}, {"type": "note_on", "time": 4, "note": 60, "velocity": 109, "channel": 0}, {"type": "note_off", "time": 34, "note": 60, "velocity": 109, "channel": 0}, {"type": "note_on", "time": 3, "note": 62, "velocity": 111, "channel": 0}, {"type": "note_off", "time": 48, "note": 62, "velocity": 111, "channel": 0}, {"type": "note_on", "time": 15, "note": 65, "velocity": 104, "channel": 0}, {"type": "note_off", "time": 33, "note": 65, "velocity": 104, "channel": 0}, {"type": "note_on", "time": 11, "note": 69, "velocity": 122, "channel": 0}, {"type": "note_off", "time": 43, "note": 69, "velocity": 122, "channel": 0}, {"type": "note_on", "time": 5, "note": 67, "velocity": 114, "channel": 0}, {"type": "note_off", "time": 35, "note": 67, "velocity": 114, "channel": 0}, {"type": "note_on", "time": 2, "note": 65, "velocity": 114, "channel": 0}, {"type": "note_off", "time": 45, "note": 65, "velocity": 114, "channel": 0}, {"type": "note_on", "time": 3, "note": 63, "velocity": 105, "channel": 0}, {"type": "note_off", "time": 20, "note": 63, "velocity": 105, "channel": 0}, {"type": "note_on", "time": 10, "note": 64, "velocity": 119, "channel": 0}, {"type": "note_off", "time": 30, "note": 64, "velocity": 119, "channel": 0}, {"type": "note_on", "time": 5, "note": 67, "velocity": 111, "channel": 0}, {"type": "note_off", "time": 33, "note": 67, "velocity": 111, "channel": 0}, {"type": "note_on", "time": 5, "note": 72, "velocity": 121, "channel": 0}, {"type": "note_off", "time": 36, "note": 72, "velocity": 121, "channel": 0}, {"type": "note_on", "time": 6, "note": 75, "velocity": 115, "channel": 0}, {"type": "note_off", "time": 36, "note": 75, "velocity": 115, "channel": 0}, {"type": "note_on", "time": 295, "note": 74, "velocity": 120, "channel": 0}, {"type": "note_off", "time": 23, "note": 74, "velocity": 120, "channel": 0}, {"type": "note_on", "time": 2, "note": 72, "velocity": 120, "channel": 0}, {"type": "note_off", "time": 21, "note": 72, "velocity": 120, "channel": 0}, {"type": "note_on", "time": 4, "note": 70, "velocity": 111, "channel": 0}, {"type": "note_off", "time": 19, "note": 70, "velocity": 111, "channel": 0}, {"type": "note_on", "time": 1, "note": 67, "velocity": 111, "channel": 0}, {"type": "note_off", "time": 26, "note": 67, "velocity": 111, "channel": 0}, {"type": "note_on", "time": 7, "note": 64, "velocity": 117, "channel": 0}, {"type": "note_off", "time": 23, "note": 64, "velocity": 117, "channel": 0}, {"type": "note_on", "time": 3, "note": 60, "velocity": 113, "channel": 0}, {"type": "note_off", "time": 43, "note": 60, "velocity": 113, "channel": 0}, {"type": "note_on", "time": 2, "note": 69, "velocity": 109, "channel": 0}, {"type": "note_off", "time": 43, "note": 69, "velocity": 109, "channel": 0}, {"type": "note_on", "time": 6, "note": 64, "velocity": 117, "channel": 0}, {"type": "note_off", "time": 40, "note": 64, "velocity": 117, "channel": 0}, {"type": "note_on", "time": 2, "note": 62, "velocity": 114, "channel": 0}, {"type": "note_off", "time": 51, "note": 62, "velocity": 114, "channel": 0}, {"type": "note_on", "time": 13, "note": 69, "velocity": 116, "channel": 0}, {"type": "note_off", "time": 36, "note": 69, "velocity": 116, "channel": 0}, {"type": "note_on", "time": 2, "note": 66, "velocity": 117, "channel": 0}, {"type": "note_on", "time": 35, "note": 61, "velocity": 114, "channel": 0}, {"type": "note_off", "time": 0, "note": 66, "velocity": 117, "channel": 0}, {"type": "note_off", "time": 43, "note": 61, "velocity": 114, "channel": 0}, {"type": "note_on", "time": 3, "note": 58, "velocity": 114, "channel": 0}, {"type": "note_off", "time": 45, "note": 58, "velocity": 114, "channel": 0}, {"type": "note_on", "time": 13, "note": 66, "velocity": 113, "channel": 0}, {"type": "note_off", "time": 56, "note": 66, "velocity": 113, "channel": 0}, {"type": "note_on", "time": 2, "note": 63, "velocity": 115, "channel": 0}, {"type": "note_off", "time": 33, "note": 63, "velocity": 115, "channel": 0}, {"type": "note_on", "time": 0, "note": 58, "velocity": 112, "channel": 0}, {"type": "note_off", "time": 53, "note": 58, "velocity": 112, "channel": 0}, {"type": "note_on", "time": 8, "note": 55, "velocity": 108, "channel": 0}, {"type": "note_on", "time": 35, "note": 63, "velocity": 120, "channel": 0}, {"type": "note_off", "time": 0, "note": 55, "velocity": 108, "channel": 0}, {"type": "note_off", "time": 51, "note": 63, "velocity": 120, "channel": 0}, {"type": "note_on", "time": 3, "note": 62, "velocity": 115, "channel": 0}, {"type": "note_off", "time": 40, "note": 62, "velocity": 115, "channel": 0}, {"type": "note_on", "time": 6, "note": 61, "velocity": 116, "channel": 0}, {"type": "note_off", "time": 26, "note": 61, "velocity": 116, "channel": 0}, {"type": "note_on", "time": 11, "note": 63, "velocity": 117, "channel": 0}, {"type": "note_off", "time": 41, "note": 63, "velocity": 117, "channel": 0}, {"type": "note_on", "time": 6, "note": 60, "velocity": 116, "channel": 0}, {"type": "note_off", "time": 49, "note": 60, "velocity": 116, "channel": 0}, {"type": "note_on", "time": 5, "note": 59, "velocity": 121, "channel": 0}, {"type": "note_off", "time": 41, "note": 59, "velocity": 121, "channel": 0}, {"type": "note_on", "time": 15, "note": 58, "velocity": 120, "channel": 0}, {"type": "note_off", "time": 50, "note": 58, "velocity": 120, "channel": 0}, {"type": "note_on", "time": 2, "note": 60, "velocity": 111, "channel": 0}, {"type": "note_off", "time": 27, "note": 60, "velocity": 111, "channel": 0}, {"type": "note_on", "time": 15, "note": 64, "velocity": 107, "channel": 0}, {"type": "note_off", "time": 54, "note": 64, "velocity": 107, "channel": 0}, {"type": "note_on", "time": 4, "note": 65, "velocity": 115, "channel": 0}, {"type": "note_off", "time": 31, "note": 65, "velocity": 115, "channel": 0}, {"type": "note_on", "time": 2, "note": 69, "velocity": 122, "channel": 0}, {"type": "note_off", "time": 42, "note": 69, "velocity": 122, "channel": 0}, {"type": "note_on", "time": 2, "note": 67, "velocity": 118, "channel": 0}, {"type": "note_off", "time": 38, "note": 67, "velocity": 118, "channel": 0}, {"type": "note_on", "time": 4, "note": 65, "velocity": 116, "channel": 0}, {"type": "note_off", "time": 38, "note": 65, "velocity": 116, "channel": 0}, {"type": "note_on", "time": 1, "note": 62, "velocity": 115, "channel": 0}, {"type": "note_off", "time": 44, "note": 62, "velocity": 115, "channel": 0}, {"type": "note_on", "time": 1, "note": 58, "velocity": 112, "channel": 0}, {"type": "note_off", "time": 35, "note": 58, "velocity": 112, "channel": 0}, {"type": "note_on", "time": 12, "note": 55, "velocity": 104, "channel": 0}, {"type": "note_off", "time": 37, "note": 55, "velocity": 104, "channel": 0}, {"type": "note_on", "time": 9, "note": 64, "velocity": 123, "channel": 0}, {"type": "note_off", "time": 55, "note": 64, "velocity": 123, "channel": 0}, {"type": "note_on", "time": 3, "note": 62, "velocity": 120, "channel": 0}, {"type": "note_off", "time": 45, "note": 62, "velocity": 120, "channel": 0}, {"type": "note_on", "time": 1, "note": 60, "velocity": 112, "channel": 0}, {"type": "note_off", "time": 33, "note": 60, "velocity": 112, "channel": 0}, {"type": "note_on", "time": 2, "note": 58, "velocity": 112, "channel": 0}, {"type": "note_off", "time": 54, "note": 58, "velocity": 112, "channel": 0}, {"type": "note_on", "time": 4, "note": 57, "velocity": 115, "channel": 0}, {"type": "note_off", "time": 31, "note": 57, "velocity": 115, "channel": 0}, {"type": "note_on", "time": 0, "note": 55, "velocity": 119, "channel": 0}, {"type": "note_off", "time": 39, "note": 55, "velocity": 119, "channel": 0}, {"type": "note_on", "time": 3, "note": 54, "velocity": 109, "channel": 0}, {"type": "note_off", "time": 34, "note": 54, "velocity": 109, "channel": 0}, {"type": "note_on", "time": 12, "note": 52, "velocity": 113, "channel": 0}, {"type": "note_off", "time": 83, "note": 52, "velocity": 113, "channel": 0}, {"type": "note_on", "time": 4, "note": 53, "velocity": 112, "channel": 0}, {"type": "note_off", "time": 106, "note": 53, "velocity": 112, "channel": 0}, {"type": "end_of_track", "time": 0}]]}