{"ticks_per_beat": 840, "tracks": [[{"type": "track_name", "name": "Melody", "time": 0}, {"type": "set_tempo", "tempo": 476190, "time": 0}, {"type": "key_signature", "key": "Eb", "time": 0}, {"type": "time_signature", "numerator": 4, "denominator": 4, "clocks_per_click": 24, "notated_32nd_notes_per_beat": 8, "time": 0}, {"type": "note_on", "time": 8016, "note": 55, "velocity": 100, "channel": 0}, {"type": "note_off", "time": 215, "note": 55, "velocity": 100, "channel": 0}, {"type": "note_on", "time": 46, "note": 60, "velocity": 116, "channel": 0}, {"type": "note_off", "time": 215, "note": 60, "velocity": 116, "channel": 0}, {"type": "note_on", "time": 81, "note": 63, "velocity": 123, "channel": 0}, {"type": "note_off", "time": 245, "note": 63, "velocity": 123, "channel": 0}, {"type": "note_on", "time": 20, "note": 65, "velocity": 119, "channel": 0}, {"type": "note_off", "time": 235, "note": 65, "velocity": 119, "channel": 0}, {"type": "note_on", "time": 71, "note": 67, "velocity": 116, "channel": 0}, {"type": "note_off", "time": 245, "note": 67, "velocity": 116, "channel": 0}, {"type": "note_on", "time": 81, "note": 63, "velocity": 121, "channel": 0}, {"type": "note_off", "time": 194, "note": 63, "velocity": 121, "channel": 0}, {"type": "note_on", "time": 0, "note": 65, "velocity": 114, "channel": 0}, {"type": "note_off", "time": 1310, "note": 65, "velocity": 114, "channel": 0}, {"type": "note_on", "time": 174, "note": 65, "velocity": 115, "channel": 0}, {"type": "note_off", "time": 634, "note": 65, "velocity": 115, "channel": 0}, {"type": "note_on", "time": 0, "note": 63, "velocity": 101, "channel": 0}, {"type": "note_off", "time": 71, "note": 63, "velocity": 101, "channel": 0}, {"type": "note_on", "time": 0, "note": 65, "velocity": 108, "channel": 0}, {"type": "note_off", "time": 634, "note": 65, "velocity": 108, "channel": 0}, {"type": "note_on", "time": 2252, "note": 55, "velocity": 95, "channel": 0}, {"type": "note_off", "time": 245, "note": 55, "velocity": 95, "channel": 0}, {"type": "note_on", "time": 0, "note": 60, "velocity": 112, "channel": 0}, {"type": "note_off", "time": 215, "note": 60, "velocity": 112, "channel": 0}, {"type": "note_on", "time": 51, "note": 63, "velocity": 122, "channel": 0}, {"type": "note_off", "time": 255, "note": 63, "velocity": 122, "channel": 0}, {"type": "note_on", "time": 30, "note": 65, "velocity": 120, "channel": 0}, {"type": "note_off", "time": 235, "note": 65, "velocity": 120, "channel": 0}, {"type": "note_on", "time": 30, "note": 66, "velocity": 115, "channel": 0}, {"type": "note_off", "time": 286, "note": 66, "velocity": 115, "channel": 0}, {"type": "note_on", "time": 71, "note": 65, "velocity": 112, "channel": 0}, {"type": "note_off", "time": 1433, "note": 65, "velocity": 112, "channel": 0}, {"type": "note_on", "time": 30, "note": 63, "velocity": 102, "channel": 0}, {"type": "note_off", "time": 92, "note": 63, "velocity": 102, "channel": 0}, {"type": "note_on", "time": 112, "note": 65, "velocity": 115, "channel": 0}, {"type": "note_off", "time": 829, "note": 65, "velocity": 115, "channel": 0}, {"type": "note_on", "time": 10, "note": 63, "velocity": 119, "channel": 0}, {"type": "note_on", "time": 511, "note": 66, "velocity": 114, "channel": 0}, {"type": "note_off", "time": 0, "note": 63, "velocity": 119, "channel": 0}, {"type": "note_off", "time": 634, "note": 66, "velocity": 114, "channel": 0}, {"type": "note_on", "time": 2493, "note": 66, "velocity": 114, "channel": 0}, {"type": "note_off", "time": 358, "note": 66, "velocity": 114, "channel": 0}, {"type": "note_on", "time": 46, "note": 63, "velocity": 104, "channel": 0}, {"type": "note_off", "time": 143, "note": 63, "velocity": 104, "channel": 0}, {"type": "note_on", "time": 102, "note": 65, "velocity": 118, "channel": 0}, {"type": "note_off", "time": 419, "note": 65, "velocity": 118, "channel": 0}, {"type": "note_on", "time": 92, "note": 64, "velocity": 124, "channel": 0}, {"type": "note_off", "time": 286, "note": 64, "velocity": 124, "channel": 0}, {"type": "note_on", "time": 163, "note": 63, "velocity": 124, "channel": 0}, {"type": "note_off", "time": 296, "note": 63, "velocity": 124, "channel": 0}, {"type": "note_on", "time": 153, "note": 61, "velocity": 116, "channel": 0}, {"type": "note_off", "time": 163, "note": 61, "velocity": 116, "channel": 0}, {"type": "note_on", "time": 266, "note": 63, "velocity": 120, "channel": 0}, {"type": "note_off", "time": 194, "note": 63, "velocity": 120, "channel": 0}, {"type": "note_on", "time": 20, "note": 62, "velocity": 115, "channel": 0}, {"type": "note_off", "time": 189, "note": 62, "velocity": 115, "channel": 0}, {"type": "note_on", "time": 66, "note": 60, "velocity": 111, "channel": 0}, {"type": "note_off", "time": 163, "note": 60, "velocity": 111, "channel": 0}, {"type": "note_on", "time": 133, "note": 59, "velocity": 100, "channel": 0}, {"type": "note_off", "time": 235, "note": 59, "velocity": 100, "channel": 0}, {"type": "note_on", "time": 20, "note": 62, "velocity": 110, "channel": 0}, {"type": "note_off", "time": 174, "note": 62, "velocity": 110, "channel": 0}, {"type": "note_on", "time": 10, "note": 65, "velocity": 112, "channel": 0}, {"type": "note_off", "time": 235, "note": 65, "velocity": 112, "channel": 0}, {"type": "note_on", "time": 204, "note": 70, "velocity": 117, "channel": 0}, {"type": "note_off", "time": 1013, "note": 70, "velocity": 117, "channel": 0}, {"type": "note_on", "time": 133, "note": 68, "velocity": 107, "channel": 0}, {"type": "note_off", "time": 163, "note": 68, "velocity": 107, "channel": 0}, {"type": "note_on", "time": 20, "note": 70, "velocity": 110, "channel": 0}, {"type": "note_off", "time": 174, "note": 70, "velocity": 110, "channel": 0}, {"type": "note_on", "time": 184, "note": 65, "velocity": 107, "channel": 0}, {"type": "note_off", "time": 727, "note": 65, "velocity": 107, "channel": 0}, {"type": "note_on", "time": 20, "note": 67, "velocity": 111, "channel": 0}, {"type": "note_off", "time": 491, "note": 67, "velocity": 111, "channel": 0}, {"type": "note_on", "time": 20, "note": 63, "velocity": 120, "channel": 0}, {"type": "note_off", "time": 194, "note": 63, "velocity": 120, "channel": 0}, {"type": "note_on", "time": 20, "note": 65, "velocity": 114, "channel": 0}, {"type": "note_off", "time": 450, "note": 65, "velocity": 114, "channel": 0}, {"type": "note_on", "time": 0, "note": 63, "velocity": 115, "channel": 0}, {"type": "note_off", "time": 245, "note": 63, "velocity": 115, "channel": 0}, {"type": "note_on", "time": 15, "note": 60, "velocity": 102, "channel": 0}, {"type": "note_off", "time": 189, "note": 60, "velocity": 102, "channel": 0}, {"type": "note_on", "time": 23, "note": 53, "velocity": 99, "channel": 0}, {"type": "note_off", "time": 199, "note": 53, "velocity": 99, "channel": 0}, {"type": "note_on", "time": 0, "note": 51, "velocity": 96, "channel": 0}, {"type": "note_off", "time": 204, "note": 51, "velocity": 96, "channel": 0}, {"type": "note_on", "time": 0, "note": 53, "velocity": 93, "channel": 0}, {"type": "note_off", "time": 207, "note": 53, "velocity": 93, "channel": 0}, {"type": "note_on", "time": 49, "note": 51, "velocity": 105, "channel": 0}, {"type": "note_off", "time": 144, "note": 51, "velocity": 105, "channel": 0}, {"type": "note_on", "time": 0, "note": 55, "velocity": 101, "channel": 0}, {"type": "note_off", "time": 250, "note": 55, "velocity": 101, "channel": 0}, {"type": "note_on", "time": 6, "note": 48, "velocity": 92, "channel": 0}, {"type": "note_off", "time": 196, "note": 48, "velocity": 92, "channel": 0}, {"type": "note_on", "time": 50, "note": 51, "velocity": 107, "channel": 0}, {"type": "note_off", "time": 253, "note": 51, "velocity": 107, "channel": 0}, {"type": "note_on", "time": 2806, "note": 73, "velocity": 110, "channel": 0}, {"type": "note_off", "time": 307, "note": 73, "velocity": 110, "channel": 0}, {"type": "note_on", "time": 0, "note": 74, "velocity": 112, "channel": 0}, {"type": "note_off", "time": 471, "note": 74, "velocity": 112, "channel": 0}, {"type": "note_on", "time": 92, "note": 72, "velocity": 111, "channel": 0}, {"type": "note_off", "time": 307, "note": 72, "velocity": 111, "channel": 0}, {"type": "note_on", "time": 235, "note": 70, "velocity": 111, "channel": 0}, {"type": "note_off", "time": 276, "note": 70, "velocity": 111, "channel": 0}, {"type": "note_on", "time": 297, "note": 69, "velocity": 114, "channel": 0}, {"type": "note_off", "time": 563, "note": 69, "velocity": 114, "channel": 0}, {"type": "note_on", "time": 71, "note": 67, "velocity": 111, "channel": 0}, {"type": "note_off", "time": 419, "note": 67, "velocity": 111, "channel": 0}, {"type": "note_on", "time": 82, "note": 65, "velocity": 114, "channel": 0}, {"type": "note_off", "time": 276, "note": 65, "velocity": 114, "channel": 0}, {"type": "note_on", "time": 225, "note": 63, "velocity": 114, "channel": 0}, {"type": "note_off", "time": 706, "note": 63, "velocity": 114, "channel": 0}, {"type": "note_on", "time": 30, "note": 62, "velocity": 117, "channel": 0}, {"type": "note_off", "time": 419, "note": 62, "velocity": 117, "channel": 0}, {"type": "note_on", "time": 61, "note": 60, "velocity": 110, "channel": 0}, {"type": "note_off", "time": 276, "note": 60, "velocity": 110, "channel": 0}, {"type": "note_on", "time": 61, "note": 59, "velocity": 101, "channel": 0}, {"type": "note_off", "time": 409, "note": 59, "velocity": 101, "channel": 0}, {"type": "note_on", "time": 81, "note": 62, "velocity": 113, "channel": 0}, {"type": "note_off", "time": 256, "note": 62, "velocity": 113, "channel": 0}, {"type": "note_on", "time": 10, "note": 58, "velocity": 100, "channel": 0}, {"type": "note_off", "time": 460, "note": 58, "velocity": 100, "channel": 0}, {"type": "note_on", "time": 0, "note": 58, "velocity": 103, "channel": 0}, {"type": "note_off", "time": 81, "note": 58, "velocity": 103, "channel": 0}, {"type": "note_on", "time": 0, "note": 57, "velocity": 101, "channel": 0}, {"type": "note_off", "time": 235, "note": 57, "velocity": 101, "channel": 0}, {"type": "note_on", "time": 82, "note": 56, "velocity": 100, "channel": 0}, {"type": "note_off", "time": 737, "note": 56, "velocity": 100, "channel": 0}, {"type": "note_on", "time": 102, "note": 54, "velocity": 91, "channel": 0}, {"type": "note_on", "time": 593, "note": 55, "velocity": 101, "channel": 0}, {"type": "note_off", "time": 0, "note": 54, "velocity": 91, "channel": 0}, {"type": "note_off", "time": 235, "note": 55, "velocity": 101, "channel": 0}, {"type": "note_on", "time": 133, "note": 63, "velocity": 108, "channel": 0}, {"type": "note_off", "time": 40, "note": 63, "velocity": 108, "channel": 0}, {"type": "note_on", "time": 0, "note": 65, "velocity": 111, "channel": 0}, {"type": "note_off", "time": 593, "note": 65, "velocity": 111, "channel": 0}, {"type": "note_on", "time": 10, "note": 63, "velocity": 107, "channel": 0}, {"type": "note_off", "time": 563, "note": 63, "velocity": 107, "channel": 0}, {"type": "note_on", "time": 40, "note": 60, "velocity": 101, "channel": 0}, {"type": "note_off", "time": 552, "note": 60, "velocity": 101, "channel": 0}, {"type": "note_on", "time": 932, "note": 69, "velocity": 114, "channel": 0}, {"type": "note_on", "time": 263, "note": 68, "velocity": 118, "channel": 0}, {"type": "note_off", "time": 0, "note": 69, "velocity": 114, "channel": 0}, {"type": "note_off", "time": 271, "note": 68, "velocity": 118, "channel": 0}, {"type": "note_on", "time": 48, "note": 67, "velocity": 115, "channel": 0}, {"type": "note_off", "time": 326, "note": 67, "velocity": 115, "channel": 0}, {"type": "note_on", "time": 235, "note": 69, "velocity": 117, "channel": 0}, {"type": "note_off", "time": 245, "note": 69, "velocity": 117, "channel": 0}, {"type": "note_on", "time": 215, "note": 71, "velocity": 114, "channel": 0}, {"type": "note_off", "time": 256, "note": 71, "velocity": 114, "channel": 0}, {"type": "note_on", "time": 143, "note": 67, "velocity": 115, "channel": 0}, {"type": "note_off", "time": 256, "note": 67, "velocity": 115, "channel": 0}, {"type": "note_on", "time": 132, "note": 66, "velocity": 110, "channel": 0}, {"type": "note_off", "time": 184, "note": 66, "velocity": 110, "channel": 0}, {"type": "note_on", "time": 0, "note": 67, "velocity": 105, "channel": 0}, {"type": "note_off", "time": 153, "note": 67, "velocity": 105, "channel": 0}, {"type": "note_on", "time": 15, "note": 66, "velocity": 117, "channel": 0}, {"type": "note_off", "time": 189, "note": 66, "velocity": 117, "channel": 0}, {"type": "note_on", "time": 20, "note": 65, "velocity": 103, "channel": 0}, {"type": "note_off", "time": 230, "note": 65, "velocity": 103, "channel": 0}, {"type": "note_on", "time": 56, "note": 64, "velocity": 117, "channel": 0}, {"type": "note_off", "time": 430, "note": 64, "velocity": 117, "channel": 0}, {"type": "note_on", "time": 76, "note": 62, "velocity": 98, "channel": 0}, {"type": "note_off", "time": 256, "note": 62, "velocity": 98, "channel": 0}, {"type": "note_on", "time": 25, "note": 63, "velocity": 117, "channel": 0}, {"type": "note_off", "time": 358, "note": 63, "velocity": 117, "channel": 0}, {"type": "note_on", "time": 149, "note": 65, "velocity": 116, "channel": 0}, {"type": "note_off", "time": 276, "note": 65, "velocity": 116, "channel": 0}, {"type": "note_on", "time": 122, "note": 66, "velocity": 111, "channel": 0}, {"type": "note_off", "time": 317, "note": 66, "velocity": 111, "channel": 0}, {"type": "note_on", "time": 122, "note": 68, "velocity": 117, "channel": 0}, {"type": "note_off", "time": 255, "note": 68, "velocity": 117, "channel": 0}, {"type": "note_on", "time": 174, "note": 70, "velocity": 110, "channel": 0}, {"type": "note_off", "time": 307, "note": 70, "velocity": 110, "channel": 0}, {"type": "note_on", "time": 153, "note": 73, "velocity": 107, "channel": 0}, {"type": "note_off", "time": 327, "note": 73, "velocity": 107, "channel": 0}, {"type": "note_on", "time": 0, "note": 72, "velocity": 108, "channel": 0}, {"type": "note_off", "time": 430, "note": 72, "velocity": 108, "channel": 0}, {"type": "note_on", "time": 95, "note": 70, "velocity": 94, "channel": 0}, {"type": "note_off", "time": 214, "note": 70, "velocity": 94, "channel": 0}, {"type": "note_on", "time": 99, "note": 71, "velocity": 110, "channel": 0}, {"type": "note_off", "time": 447, "note": 71, "velocity": 110, "channel": 0}, {"type": "note_on", "time": 0, "note": 62, "velocity": 101, "channel": 0}, {"type": "note_off", "time": 267, "note": 62, "velocity": 101, "channel": 0}, {"type": "note_on", "time": 134, "note": 65, "velocity": 109, "channel": 0}, {"type": "note_off", "time": 440, "note": 65, "velocity": 109, "channel": 0}, {"type": "note_on", "time": 20, "note": 67, "velocity": 106, "channel": 0}, {"type": "note_off", "time": 286, "note": 67, "velocity": 106, "channel": 0}, {"type": "note_on", "time": 92, "note": 68, "velocity": 105, "channel": 0}, {"type": "note_off", "time": 430, "note": 68, "velocity": 105, "channel": 0}, {"type": "note_on", "time": 82, "note": 67, "velocity": 106, "channel": 0}, {"type": "note_off", "time": 215, "note": 67, "velocity": 106, "channel": 0}, {"type": "note_on", "time": 102, "note": 65, "velocity": 106, "channel": 0}, {"type": "note_off", "time": 526, "note": 65, "velocity": 106, "channel": 0}, {"type": "note_on", "time": 0, "note": 62, "velocity": 96, "channel": 0}, {"type": "note_off", "time": 204, "note": 62, "velocity": 96, "channel": 0}, {"type": "note_on", "time": 119, "note": 63, "velocity": 113, "channel": 0}, {"type": "note_off", "time": 368, "note": 63, "velocity": 113, "channel": 0}, {"type": "note_on", "time": 638, "note": 55, "velocity": 101, "channel": 0}, {"type": "note_on", "time": 199, "note": 57, "velocity": 99, "channel": 0}, {"type": "note_off", "time": 0, "note": 55, "velocity": 101, "channel": 0}, {"type": "note_off", "time": 189, "note": 57, "velocity": 99, "channel": 0}, {"type": "note_on", "time": 0, "note": 62, "velocity": 114, "channel": 0}, {"type": "note_off", "time": 161, "note": 62, "velocity": 114, "channel": 0}, {"type": "note_on", "time": 265, "note": 60, "velocity": 109, "channel": 0}, {"type": "note_off", "time": 686, "note": 60, "velocity": 109, "channel": 0}, {"type": "note_on", "time": 2621, "note": 60, "velocity": 117, "channel": 0}, {"type": "note_off", "time": 389, "note": 60, "velocity": 117, "channel": 0}, {"type": "note_on", "time": 112, "note": 65, "velocity": 120, "channel": 0}, {"type": "note_off", "time": 225, "note": 65, "velocity": 120, "channel": 0}, {"type": "note_on", "time": 102, "note": 68, "velocity": 120, "channel": 0}, {"type": "note_off", "time": 296, "note": 68, "velocity": 120, "channel": 0}, {"type": "note_on", "time": 194, "note": 72, "velocity": 113, "channel": 0}, {"type": "note_on", "time": 450, "note": 70, "velocity": 112, "channel": 0}, {"type": "note_off", "time": 0, "note": 72, "velocity": 113, "channel": 0}, {"type": "note_off", "time": 1392, "note": 70, "velocity": 112, "channel": 0}, {"type": "note_on", "time": 245, "note": 70, "velocity": 110, "channel": 0}, {"type": "note_off", "time": 1259, "note": 70, "velocity": 110, "channel": 0}, {"type": "note_on", "time": 136, "note": 70, "velocity": 110, "channel": 0}, {"type": "note_off", "time": 1163, "note": 70, "velocity": 110, "channel": 0}, {"type": "note_on", "time": 0, "note": 67, "velocity": 109, "channel": 0}, {"type": "note_off", "time": 491, "note": 67, "velocity": 109, "channel": 0}, {"type": "note_on", "time": 111, "note": 62, "velocity": 89, "channel": 0}, {"type": "note_off", "time": 211, "note": 62, "velocity": 89, "channel": 0}, {"type": "note_on", "time": 14, "note": 70, "velocity": 111, "channel": 0}, {"type": "note_off", "time": 491, "note": 70, "velocity": 111, "channel": 0}, {"type": "note_on", "time": 307, "note": 70, "velocity": 107, "channel": 0}, {"type": "note_off", "time": 1587, "note": 70, "velocity": 107, "channel": 0}, {"type": "note_on", "time": 92, "note": 68, "velocity": 114, "channel": 0}, {"type": "note_off", "time": 194, "note": 68, "velocity": 114, "channel": 0}, {"type": "note_on", "time": 71, "note": 65, "velocity": 113, "channel": 0}, {"type": "note_off", "time": 204, "note": 65, "velocity": 113, "channel": 0}, {"type": "note_on", "time": 77, "note": 60, "velocity": 113, "channel": 0}, {"type": "note_off", "time": 260, "note": 60, "velocity": 113, "channel": 0}, {"type": "note_on", "time": 184, "note": 58, "velocity": 98, "channel": 0}, {"type": "note_off", "time": 711, "note": 58, "velocity": 98, "channel": 0}, {"type": "note_on", "time": 0, "note": 56, "velocity": 95, "channel": 0}, {"type": "note_off", "time": 480, "note": 56, "velocity": 95, "channel": 0}, {"type": "note_on", "time": 2084, "note": 72, "velocity": 118, "channel": 0}, {"type": "note_off", "time": 860, "note": 72, "velocity": 118, "channel": 0}, {"type": "note_on", "time": 0, "note": 70, "velocity": 115, "channel": 0}, {"type": "note_off", "time": 419, "note": 70, "velocity": 115, "channel": 0}, {"type": "note_on", "time": 112, "note": 68, "velocity": 119, "channel": 0}, {"type": "note_off", "time": 266, "note": 68, "velocity": 119, "channel": 0}, {"type": "note_on", "time": 645, "note": 67, "velocity": 119, "channel": 0}, {"type": "note_off", "time": 255, "note": 67, "velocity": 119, "channel": 0}, {"type": "note_on", "time": 0, "note": 66, "velocity": 106, "channel": 0}, {"type": "note_off", "time": 245, "note": 66, "velocity": 106, "channel": 0}, {"type": "note_on", "time": 20, "note": 69, "velocity": 110, "channel": 0}, {"type": "note_off", "time": 112, "note": 69, "velocity": 110, "channel": 0}, {"type": "note_on", "time": 30, "note": 66, "velocity": 111, "channel": 0}, {"type": "note_off", "time": 204, "note": 66, "velocity": 111, "channel": 0}, {"type": "note_on", "time": 0, "note": 65, "velocity": 114, "channel": 0}, {"type": "note_off", "time": 296, "note": 65, "velocity": 114, "channel": 0}, {"type": "note_on", "time": 133, "note": 63, "velocity": 119, "channel": 0}, {"type": "note_off", "time": 368, "note": 63, "velocity": 119, "channel": 0}, {"type": "note_on", "time": 81, "note": 61, "velocity": 106, "channel": 0}, {"type": "note_off", "time": 235, "note": 61, "velocity": 106, "channel": 0}, {"type": "note_on", "time": 122, "note": 62, "velocity": 112, "channel": 0}, {"type": "note_off", "time": 542, "note": 62, "velocity": 112, "channel": 0}, {"type": "note_on", "time": 0, "note": 60, "velocity": 112, "channel": 0}, {"type": "note_off", "time": 184, "note": 60, "velocity": 112, "channel": 0}, {"type": "note_on", "time": 112, "note": 59, "velocity": 107, "channel": 0}, {"type": "note_off", "time": 419, "note": 59, "velocity": 107, "channel": 0}, {"type": "note_on", "time": 92, "note": 62, "velocity": 119, "channel": 0}, {"type": "note_off", "time": 235, "note": 62, "velocity": 119, "channel": 0}, {"type": "note_on", "time": 0, "note": 65, "velocity": 115, "channel": 0}, {"type": "note_off", "time": 460, "note": 65, "velocity": 115, "channel": 0}, {"type": "note_on", "time": 102, "note": 67, "velocity": 112, "channel": 0}, {"type": "note_off", "time": 245, "note": 67, "velocity": 112, "channel": 0}, {"type": "note_on", "time": 143, "note": 68, "velocity": 118, "channel": 0}, {"type": "note_off", "time": 686, "note": 68, "velocity": 118, "channel": 0}, {"type": "note_on", "time": 0, "note": 67, "velocity": 111, "channel": 0}, {"type": "note_off", "time": 552, "note": 67, "velocity": 111, "channel": 0}, {"type": "note_on", "time": 30, "note": 65, "velocity": 112, "channel": 0}, {"type": "note_off", "time": 327, "note": 65, "velocity": 112, "channel": 0}, {"type": "note_on", "time": 81, "note": 63, "velocity": 114, "channel": 0}, {"type": "note_off", "time": 604, "note": 63, "velocity": 114, "channel": 0}, {"type": "note_on", "time": 0, "note": 62, "velocity": 113, "channel": 0}, {"type": "note_off", "time": 686, "note": 62, "velocity": 113, "channel": 0}, {"type": "note_on", "time": 40, "note": 60, "velocity": 108, "channel": 0}, {"type": "note_off", "time": 665, "note": 60, "velocity": 108, "channel": 0}, {"type": "note_on", "time": 737, "note": 63, "velocity": 115, "channel": 0}, {"type": "note_off", "time": 254, "note": 63, "velocity": 115, "channel": 0}, {"type": "note_on", "time": 0, "note": 58, "velocity": 101, "channel": 0}, {"type": "note_off", "time": 225, "note": 58, "velocity": 101, "channel": 0}, {"type": "note_on", "time": 32, "note": 64, "velocity": 113, "channel": 0}, {"type": "note_off", "time": 194, "note": 64, "velocity": 113, "channel": 0}, {"type": "note_on", "time": 10, "note": 67, "velocity": 110, "channel": 0}, {"type": "note_off", "time": 184, "note": 67, "velocity": 110, "channel": 0}, {"type": "note_on", "time": 0, "note": 66, "velocity": 111, "channel": 0}, {"type": "note_off", "time": 727, "note": 66, "velocity": 111, "channel": 0}, {"type": "note_on", "time": 20, "note": 64, "velocity": 115, "channel": 0}, {"type": "note_off", "time": 184, "note": 64, "velocity": 115, "channel": 0}, {"type": "note_on", "time": 0, "note": 63, "velocity": 116, "channel": 0}, {"type": "note_off", "time": 184, "note": 63, "velocity": 116, "channel": 0}, {"type": "note_on", "time": 0, "note": 62, "velocity": 116, "channel": 0}, {"type": "note_off", "time": 215, "note": 62, "velocity": 116, "channel": 0}, {"type": "note_on", "time": 10, "note": 61, "velocity": 108, "channel": 0}, {"type": "note_off", "time": 143, "note": 61, "velocity": 108, "channel": 0}, {"type": "note_on", "time": 0, "note": 63, "velocity": 115, "channel": 0}, {"type": "note_off", "time": 194, "note": 63, "velocity": 115, "channel": 0}, {"type": "note_on", "time": 3, "note": 60, "velocity": 109, "channel": 0}, {"type": "note_off", "time": 189, "note": 60, "velocity": 109, "channel": 0}, {"type": "note_on", "time": 11, "note": 62, "velocity": 116, "channel": 0}, {"type": "note_off", "time": 225, "note": 62, "velocity": 116, "channel": 0}, {"type": "note_on", "time": 3, "note": 64, "velocity": 113, "channel": 0}, {"type": "note_on", "time": 204, "note": 65, "velocity": 115, "channel": 0}, {"type": "note_off", "time": 0, "note": 64, "velocity": 113, "channel": 0}, {"type": "note_off", "time": 107, "note": 65, "velocity": 115, "channel": 0}, {"type": "note_on", "time": 20, "note": 66, "velocity": 107, "channel": 0}, {"type": "note_off", "time": 245, "note": 66, "velocity": 107, "channel": 0}, {"type": "note_on", "time": 20, "note": 68, "velocity": 95, "channel": 0}, {"type": "note_off", "time": 143, "note": 68, "velocity": 95, "channel": 0}, {"type": "note_on", "time": 21, "note": 70, "velocity": 112, "channel": 0}, {"type": "note_off", "time": 153, "note": 70, "velocity": 112, "channel": 0}, {"type": "note_on", "time": 20, "note": 73, "velocity": 108, "channel": 0}, {"type": "note_off", "time": 184, "note": 73, "velocity": 108, "channel": 0}, {"type": "note_on", "time": 0, "note": 72, "velocity": 106, "channel": 0}, {"type": "note_off", "time": 235, "note": 72, "velocity": 106, "channel": 0}, {"type": "note_on", "time": 71, "note": 70, "velocity": 113, "channel": 0}, {"type": "note_off", "time": 184, "note": 70, "velocity": 113, "channel": 0}, {"type": "note_on", "time": 102, "note": 68, "velocity": 113, "channel": 0}, {"type": "note_off", "time": 245, "note": 68, "velocity": 113, "channel": 0}, {"type": "note_on", "time": 44, "note": 70, "velocity": 94, "channel": 0}, {"type": "note_off", "time": 220, "note": 70, "velocity": 94, "channel": 0}, {"type": "note_on", "time": 11, "note": 72, "velocity": 112, "channel": 0}, {"type": "note_off", "time": 194, "note": 72, "velocity": 112, "channel": 0}, {"type": "note_on", "time": 133, "note": 70, "velocity": 111, "channel": 0}, {"type": "note_off", "time": 1228, "note": 70, "velocity": 111, "channel": 0}, {"type": "note_on", "time": 102, "note": 67, "velocity": 111, "channel": 0}, {"type": "note_off", "time": 41, "note": 67, "velocity": 111, "channel": 0}, {"type": "note_on", "time": 0, "note": 67, "velocity": 108, "channel": 0}, {"type": "note_off", "time": 264, "note": 67, "velocity": 108, "channel": 0}, {"type": "note_on", "time": 0, "note": 62, "velocity": 115, "channel": 0}, {"type": "note_off", "time": 265, "note": 62, "velocity": 115, "channel": 0}, {"type": "note_on", "time": 0, "note": 58, "velocity": 102, "channel": 0}, {"type": "note_off", "time": 217, "note": 58, "velocity": 102, "channel": 0}, {"type": "note_on", "time": 1743, "note": 53, "velocity": 109, "channel": 0}, {"type": "note_on", "time": 148, "note": 55, "velocity": 107, "channel": 0}, {"type": "note_off", "time": 0, "note": 53, "velocity": 109, "channel": 0}, {"type": "note_off", "time": 102, "note": 55, "velocity": 107, "channel": 0}, {"type": "note_on", "time": 0, "note": 56, "velocity": 117, "channel": 0}, {"type": "note_off", "time": 87, "note": 56, "velocity": 117, "channel": 0}, {"type": "note_on", "time": 0, "note": 58, "velocity": 114, "channel": 0}, {"type": "note_off", "time": 75, "note": 58, "velocity": 114, "channel": 0}, {"type": "note_on", "time": 21, "note": 60, "velocity": 114, "channel": 0}, {"type": "note_off", "time": 136, "note": 60, "velocity": 114, "channel": 0}, {"type": "note_on", "time": 73, "note": 62, "velocity": 119, "channel": 0}, {"type": "note_off", "time": 87, "note": 62, "velocity": 119, "channel": 0}, {"type": "note_on", "time": 0, "note": 63, "velocity": 121, "channel": 0}, {"type": "note_off", "time": 61, "note": 63, "velocity": 121, "channel": 0}, {"type": "note_on", "time": 25, "note": 65, "velocity": 108, "channel": 0}, {"type": "note_off", "time": 81, "note": 65, "velocity": 108, "channel": 0}, {"type": "note_on", "time": 40, "note": 67, "velocity": 115, "channel": 0}, {"type": "note_off", "time": 57, "note": 67, "velocity": 115, "channel": 0}, {"type": "note_on", "time": 14, "note": 68, "velocity": 113, "channel": 0}, {"type": "note_off", "time": 51, "note": 68, "velocity": 113, "channel": 0}, {"type": "note_on", "time": 0, "note": 70, "velocity": 117, "channel": 0}, {"type": "note_off", "time": 51, "note": 70, "velocity": 117, "channel": 0}, {"type": "note_on", "time": 0, "note": 71, "velocity": 112, "channel": 0}, {"type": "note_off", "time": 61, "note": 71, "velocity": 112, "channel": 0}, {"type": "note_on", "time": 5, "note": 72, "velocity": 124, "channel": 0}, {"type": "note_off", "time": 460, "note": 72, "velocity": 124, "channel": 0}, {"type": "note_on", "time": 5, "note": 70, "velocity": 103, "channel": 0}, {"type": "note_off", "time": 128, "note": 70, "velocity": 103, "channel": 0}, {"type": "note_on", "time": 20, "note": 71, "velocity": 111, "channel": 0}, {"type": "note_off", "time": 81, "note": 71, "velocity": 111, "channel": 0}, {"type": "note_on", "time": 15, "note": 70, "velocity": 115, "channel": 0}, {"type": "note_off", "time": 92, "note": 70, "velocity": 115, "channel": 0}, {"type": "note_on", "time": 2, "note": 68, "velocity": 117, "channel": 0}, {"type": "note_off", "time": 829, "note": 68, "velocity": 117, "channel": 0}, {"type": "note_on", "time": 1003, "note": 72, "velocity": 122, "channel": 0}, {"type": "note_off", "time": 204, "note": 72, "velocity": 122, "channel": 0}, {"type": "note_on", "time": 0, "note": 70, "velocity": 105, "channel": 0}, {"type": "note_off", "time": 215, "note": 70, "velocity": 105, "channel": 0}, {"type": "note_on", "time": 0, "note": 73, "velocity": 112, "channel": 0}, {"type": "note_off", "time": 307, "note": 73, "velocity": 112, "channel": 0}, {"type": "note_on", "time": 7, "note": 72, "velocity": 115, "channel": 0}, {"type": "note_off", "time": 128, "note": 72, "velocity": 115, "channel": 0}, {"type": "note_on", "time": 0, "note": 71, "velocity": 116, "channel": 0}, {"type": "note_off", "time": 81, "note": 71, "velocity": 116, "channel": 0}, {"type": "note_on", "time": 15, "note": 70, "velocity": 114, "channel": 0}, {"type": "note_off", "time": 107, "note": 70, "velocity": 114, "channel": 0}, {"type": "note_on", "time": 38, "note": 69, "velocity": 114, "channel": 0}, {"type": "note_off", "time": 931, "note": 69, "velocity": 114, "channel": 0}, {"type": "note_on", "time": 0, "note": 69, "velocity": 109, "channel": 0}, {"type": "note_off", "time": 225, "note": 69, "velocity": 109, "channel": 0}, {"type": "note_on", "time": 12, "note": 65, "velocity": 115, "channel": 0}, {"type": "note_off", "time": 122, "note": 65, "velocity": 115, "channel": 0}, {"type": "note_on", "time": 20, "note": 64, "velocity": 119, "channel": 0}, {"type": "note_off", "time": 122, "note": 64, "velocity": 119, "channel": 0}, {"type": "note_on", "time": 69, "note": 63, "velocity": 121, "channel": 0}, {"type": "note_off", "time": 358, "note": 63, "velocity": 121, "channel": 0}, {"type": "note_on", "time": 153, "note": 61, "velocity": 113, "channel": 0}, {"type": "note_off", "time": 317, "note": 61, "velocity": 113, "channel": 0}, {"type": "note_on", "time": 23, "note": 56, "velocity": 100, "channel": 0}, {"type": "note_off", "time": 268, "note": 56, "velocity": 100, "channel": 0}, {"type": "note_on", "time": 0, "note": 53, "velocity": 107, "channel": 0}, {"type": "note_off", "time": 265, "note": 53, "velocity": 107, "channel": 0}, {"type": "note_on", "time": 199, "note": 63, "velocity": 126, "channel": 0}, {"type": "note_off", "time": 483, "note": 63, "velocity": 126, "channel": 0}, {"type": "note_on", "time": 0, "note": 66, "velocity": 101, "channel": 0}, {"type": "note_off", "time": 204, "note": 66, "velocity": 101, "channel": 0}, {"type": "note_on", "time": 130, "note": 70, "velocity": 116, "channel": 0}, {"type": "note_off", "time": 440, "note": 70, "velocity": 116, "channel": 0}, {"type": "note_on", "time": 82, "note": 73, "velocity": 117, "channel": 0}, {"type": "note_off", "time": 337, "note": 73, "velocity": 117, "channel": 0}, {"type": "note_on", "time": 10, "note": 75, "velocity": 124, "channel": 0}, {"type": "note_off", "time": 215, "note": 75, "velocity": 124, "channel": 0}, {"type": "note_on", "time": 133, "note": 77, "velocity": 106, "channel": 0}, {"type": "note_off", "time": 716, "note": 77, "velocity": 106, "channel": 0}, {"type": "note_on", "time": 327, "note": 75, "velocity": 10, "channel": 0}, {"type": "note_off", "time": 194, "note": 75, "velocity": 10, "channel": 0}, {"type": "note_on", "time": 245, "note": 74, "velocity": 104, "channel": 0}, {"type": "note_off", "time": 378, "note": 74, "velocity": 104, "channel": 0}, {"type": "note_on", "time": 0, "note": 72, "velocity": 95, "channel": 0}, {"type": "note_off", "time": 368, "note": 72, "velocity": 95, "channel": 0}, {"type": "note_on", "time": 0, "note": 71, "velocity": 103, "channel": 0}, {"type": "note_off", "time": 245, "note": 71, "velocity": 103, "channel": 0}, {"type": "note_on", "time": 83, "note": 62, "velocity": 98, "channel": 0}, {"type": "note_off", "time": 160, "note": 62, "velocity": 98, "channel": 0}, {"type": "note_on", "time": 103, "note": 65, "velocity": 111, "channel": 0}, {"type": "note_off", "time": 184, "note": 65, "velocity": 111, "channel": 0}, {"type": "note_on", "time": 143, "note": 67, "velocity": 109, "channel": 0}, {"type": "note_off", "time": 143, "note": 67, "velocity": 109, "channel": 0}, {"type": "note_on", "time": 0, "note": 68, "velocity": 108, "channel": 0}, {"type": "note_off", "time": 266, "note": 68, "velocity": 108, "channel": 0}, {"type": "note_on", "time": 43, "note": 67, "velocity": 106, "channel": 0}, {"type": "note_off", "time": 225, "note": 67, "velocity": 106, "channel": 0}, {"type": "note_on", "time": 120, "note": 65, "velocity": 109, "channel": 0}, {"type": "note_off", "time": 491, "note": 65, "velocity": 109, "channel": 0}, {"type": "note_on", "time": 12, "note": 62, "velocity": 97, "channel": 0}, {"type": "note_off", "time": 240, "note": 62, "velocity": 97, "channel": 0}, {"type": "note_on", "time": 0, "note": 63, "velocity": 114, "channel": 0}, {"type": "note_off", "time": 414, "note": 63, "velocity": 114, "channel": 0}, {"type": "note_on", "time": 39, "note": 55, "velocity": 95, "channel": 0}, {"type": "note_off", "time": 318, "note": 55, "velocity": 95, "channel": 0}, {"type": "note_on", "time": 0, "note": 57, "velocity": 97, "channel": 0}, {"type": "note_off", "time": 325, "note": 57, "velocity": 97, "channel": 0}, {"type": "note_on", "time": 0, "note": 62, "velocity": 107, "channel": 0}, {"type": "note_off", "time": 296, "note": 62, "velocity": 107, "channel": 0}, {"type": "note_on", "time": 30, "note": 60, "velocity": 96, "channel": 0}, {"type": "note_off", "time": 788, "note": 60, "velocity": 96, "channel": 0}, {"type": "note_on", "time": 1976, "note": 66, "velocity": 114, "channel": 0}, {"type": "note_off", "time": 235, "note": 66, "velocity": 114, "channel": 0}, {"type": "note_on", "time": 92, "note": 63, "velocity": 105, "channel": 0}, {"type": "note_off", "time": 204, "note": 63, "velocity": 105, "channel": 0}, {"type": "note_on", "time": 0, "note": 65, "velocity": 117, "channel": 0}, {"type": "note_off", "time": 215, "note": 65, "velocity": 117, "channel": 0}, {"type": "note_on", "time": 18, "note": 63, "velocity": 110, "channel": 0}, {"type": "note_off", "time": 162, "note": 63, "velocity": 110, "channel": 0}, {"type": "note_on", "time": 178, "note": 65, "velocity": 112, "channel": 0}, {"type": "note_off", "time": 276, "note": 65, "velocity": 112, "channel": 0}, {"type": "note_on", "time": 99, "note": 63, "velocity": 101, "channel": 0}, {"type": "note_off", "time": 163, "note": 63, "velocity": 101, "channel": 0}, {"type": "note_on", "time": 44, "note": 65, "velocity": 119, "channel": 0}, {"type": "note_off", "time": 266, "note": 65, "velocity": 119, "channel": 0}, {"type": "note_on", "time": 43, "note": 60, "velocity": 96, "channel": 0}, {"type": "note_off", "time": 202, "note": 60, "velocity": 96, "channel": 0}, {"type": "note_on", "time": 9, "note": 63, "velocity": 117, "channel": 0}, {"type": "note_off", "time": 266, "note": 63, "velocity": 117, "channel": 0}, {"type": "note_on", "time": 112, "note": 65, "velocity": 115, "channel": 0}, {"type": "note_off", "time": 296, "note": 65, "velocity": 115, "channel": 0}, {"type": "note_on", "time": 1075, "note": 63, "velocity": 120, "channel": 0}, {"type": "note_off", "time": 307, "note": 63, "velocity": 120, "channel": 0}, {"type": "note_on", "time": 235, "note": 65, "velocity": 115, "channel": 0}, {"type": "note_off", "time": 317, "note": 65, "velocity": 115, "channel": 0}, {"type": "note_on", "time": 839, "note": 63, "velocity": 119, "channel": 0}, {"type": "note_off", "time": 225, "note": 63, "velocity": 119, "channel": 0}, {"type": "note_on", "time": 297, "note": 65, "velocity": 113, "channel": 0}, {"type": "note_off", "time": 235, "note": 65, "velocity": 113, "channel": 0}, {"type": "note_on", "time": 109, "note": 65, "velocity": 114, "channel": 0}, {"type": "note_off", "time": 266, "note": 65, "velocity": 114, "channel": 0}, {"type": "note_on", "time": 176, "note": 65, "velocity": 114, "channel": 0}, {"type": "note_off", "time": 435, "note": 65, "velocity": 114, "channel": 0}, {"type": "note_on", "time": 0, "note": 63, "velocity": 100, "channel": 0}, {"type": "note_off", "time": 157, "note": 63, "velocity": 100, "channel": 0}, {"type": "note_on", "time": 144, "note": 65, "velocity": 116, "channel": 0}, {"type": "note_off", "time": 368, "note": 65, "velocity": 116, "channel": 0}, {"type": "note_on", "time": 153, "note": 65, "velocity": 113, "channel": 0}, {"type": "note_off", "time": 266, "note": 65, "velocity": 113, "channel": 0}, {"type": "note_on", "time": 0, "note": 66, "velocity": 110, "channel": 0}, {"type": "note_off", "time": 560, "note": 66, "velocity": 110, "channel": 0}, {"type": "note_on", "time": 0, "note": 60, "velocity": 99, "channel": 0}, {"type": "note_off", "time": 165, "note": 60, "velocity": 99, "channel": 0}, {"type": "note_on", "time": 123, "note": 63, "velocity": 118, "channel": 0}, {"type": "note_off", "time": 727, "note": 63, "velocity": 118, "channel": 0}, {"type": "note_on", "time": 41, "note": 65, "velocity": 112, "channel": 0}, {"type": "note_off", "time": 573, "note": 65, "velocity": 112, "channel": 0}, {"type": "note_on", "time": 51, "note": 60, "velocity": 108, "channel": 0}, {"type": "note_off", "time": 788, "note": 60, "velocity": 108, "channel": 0}, {"type": "note_on", "time": 315, "note": 61, "velocity": 96, "channel": 0}, {"type": "note_off", "time": 140, "note": 61, "velocity": 96, "channel": 0}, {"type": "note_on", "time": 54, "note": 65, "velocity": 93, "channel": 0}, {"type": "note_off", "time": 115, "note": 65, "velocity": 93, "channel": 0}, {"type": "note_on", "time": 73, "note": 68, "velocity": 84, "channel": 0}, {"type": "note_off", "time": 87, "note": 68, "velocity": 84, "channel": 0}, {"type": "note_on", "time": 102, "note": 71, "velocity": 109, "channel": 0}, {"type": "note_off", "time": 131, "note": 71, "velocity": 109, "channel": 0}, {"type": "note_on", "time": 138, "note": 65, "velocity": 111, "channel": 0}, {"type": "note_off", "time": 207, "note": 65, "velocity": 111, "channel": 0}, {"type": "note_on", "time": 0, "note": 66, "velocity": 107, "channel": 0}, {"type": "note_off", "time": 209, "note": 66, "velocity": 107, "channel": 0}, {"type": "note_on", "time": 2, "note": 69, "velocity": 112, "channel": 0}, {"type": "note_off", "time": 235, "note": 69, "velocity": 112, "channel": 0}, {"type": "note_on", "time": 30, "note": 66, "velocity": 102, "channel": 0}, {"type": "note_on", "time": 132, "note": 67, "velocity": 111, "channel": 0}, {"type": "note_off", "time": 0, "note": 66, "velocity": 102, "channel": 0}, {"type": "note_off", "time": 163, "note": 67, "velocity": 111, "channel": 0}, {"type": "note_on", "time": 17, "note": 66, "velocity": 107, "channel": 0}, {"type": "note_off", "time": 138, "note": 66, "velocity": 107, "channel": 0}, {"type": "note_on", "time": 25, "note": 65, "velocity": 108, "channel": 0}, {"type": "note_off", "time": 209, "note": 65, "velocity": 108, "channel": 0}, {"type": "note_on", "time": 89, "note": 64, "velocity": 114, "channel": 0}, {"type": "note_off", "time": 215, "note": 64, "velocity": 114, "channel": 0}, {"type": "note_on", "time": 10, "note": 63, "velocity": 113, "channel": 0}, {"type": "note_off", "time": 153, "note": 63, "velocity": 113, "channel": 0}, {"type": "note_on", "time": 40, "note": 62, "velocity": 113, "channel": 0}, {"type": "note_off", "time": 204, "note": 62, "velocity": 113, "channel": 0}, {"type": "note_on", "time": 0, "note": 61, "velocity": 106, "channel": 0}, {"type": "note_off", "time": 163, "note": 61, "velocity": 106, "channel": 0}, {"type": "note_on", "time": 51, "note": 65, "velocity": 111, "channel": 0}, {"type": "note_off", "time": 184, "note": 65, "velocity": 111, "channel": 0}, {"type": "note_on", "time": 40, "note": 63, "velocity": 113, "channel": 0}, {"type": "note_off", "time": 174, "note": 63, "velocity": 113, "channel": 0}, {"type": "note_on", "time": 61, "note": 61, "velocity": 109, "channel": 0}, {"type": "note_off", "time": 163, "note": 61, "velocity": 109, "channel": 0}, {"type": "note_on", "time": 0, "note": 60, "velocity": 108, "channel": 0}, {"type": "note_off", "time": 225, "note": 60, "velocity": 108, "channel": 0}, {"type": "note_on", "time": 12, "note": 59, "velocity": 104, "channel": 0}, {"type": "note_on", "time": 204, "note": 58, "velocity": 101, "channel": 0}, {"type": "note_off", "time": 0, "note": 59, "velocity": 104, "channel": 0}, {"type": "note_off", "time": 133, "note": 58, "velocity": 101, "channel": 0}, {"type": "note_on", "time": 17, "note": 54, "velocity": 107, "channel": 0}, {"type": "note_off", "time": 41, "note": 54, "velocity": 107, "channel": 0}, {"type": "note_on", "time": 0, "note": 54, "velocity": 105, "channel": 0}, {"type": "note_off", "time": 163, "note": 54, "velocity": 105, "channel": 0}, {"type": "note_on", "time": 48, "note": 53, "velocity": 104, "channel": 0}, {"type": "note_off", "time": 172, "note": 53, "velocity": 104, "channel": 0}, {"type": "note_on", "time": 0, "note": 52, "velocity": 102, "channel": 0}, {"type": "note_on", "time": 163, "note": 51, "velocity": 106, "channel": 0}, {"type": "note_off", "time": 0, "note": 52, "velocity": 102, "channel": 0}, {"type": "note_off", "time": 159, "note": 51, "velocity": 106, "channel": 0}, {"type": "note_on", "time": 173, "note": 54, "velocity": 99, "channel": 0}, {"type": "note_off", "time": 163, "note": 54, "velocity": 99, "channel": 0}, {"type": "note_on", "time": 20, "note": 58, "velocity": 98, "channel": 0}, {"type": "note_off", "time": 206, "note": 58, "velocity": 98, "channel": 0}, {"type": "note_on", "time": 0, "note": 61, "velocity": 90, "channel": 0}, {"type": "note_off", "time": 157, "note": 61, "velocity": 90, "channel": 0}, {"type": "note_on", "time": 63, "note": 65, "velocity": 112, "channel": 0}, {"type": "note_off", "time": 165, "note": 65, "velocity": 112, "channel": 0}, {"type": "note_on", "time": 0, "note": 63, "velocity": 98, "channel": 0}, {"type": "note_off", "time": 161, "note": 63, "velocity": 98, "channel": 0}, {"type": "note_on", "time": 50, "note": 64, "velocity": 112, "channel": 0}, {"type": "note_off", "time": 163, "note": 64, "velocity": 112, "channel": 0}, {"type": "note_on", "time": 68, "note": 62, "velocity": 103, "channel": 0}, {"type": "note_off", "time": 160, "note": 62, "velocity": 103, "channel": 0}, {"type": "note_on", "time": 0, "note": 63, "velocity": 112, "channel": 0}, {"type": "note_off", "time": 161, "note": 63, "velocity": 112, "channel": 0}, {"type": "note_on", "time": 50, "note": 61, "velocity": 106, "channel": 0}, {"type": "note_off", "time": 156, "note": 61, "velocity": 106, "channel": 0}, {"type": "note_on", "time": 11, "note": 62, "velocity": 109, "channel": 0}, {"type": "note_off", "time": 213, "note": 62, "velocity": 109, "channel": 0}, {"type": "note_on", "time": 77, "note": 60, "velocity": 107, "channel": 0}, {"type": "note_off", "time": 153, "note": 60, "velocity": 107, "channel": 0}, {"type": "note_on", "time": 0, "note": 59, "velocity": 98, "channel": 0}, {"type": "note_off", "time": 168, "note": 59, "velocity": 98, "channel": 0}, {"type": "note_on", "time": 1260, "note": 62, "velocity": 125, "channel": 0}, {"type": "note_off", "time": 194, "note": 62, "velocity": 125, "channel": 0}, {"type": "note_on", "time": 149, "note": 71, "velocity": 102, "channel": 0}, {"type": "note_off", "time": 159, "note": 71, "velocity": 102, "channel": 0}, {"type": "note_on", "time": 112, "note": 71, "velocity": 109, "channel": 0}, {"type": "note_on", "time": 212, "note": 70, "velocity": 107, "channel": 0}, {"type": "note_off", "time": 0, "note": 71, "velocity": 109, "channel": 0}, {"type": "note_off", "time": 206, "note": 70, "velocity": 107, "channel": 0}, {"type": "note_on", "time": 60, "note": 67, "velocity": 107, "channel": 0}, {"type": "note_on", "time": 81, "note": 63, "velocity": 114, "channel": 0}, {"type": "note_off", "time": 0, "note": 67, "velocity": 107, "channel": 0}, {"type": "note_off", "time": 337, "note": 63, "velocity": 114, "channel": 0}, {"type": "note_on", "time": 194, "note": 67, "velocity": 112, "channel": 0}, {"type": "note_off", "time": 348, "note": 67, "velocity": 112, "channel": 0}, {"type": "note_on", "time": 0, "note": 67, "velocity": 105, "channel": 0}, {"type": "note_off", "time": 481, "note": 67, "velocity": 105, "channel": 0}, {"type": "note_on", "time": 47, "note": 63, "velocity": 109, "channel": 0}, {"type": "note_off", "time": 266, "note": 63, "velocity": 109, "channel": 0}, {"type": "note_on", "time": 71, "note": 59, "velocity": 97, "channel": 0}, {"type": "note_off", "time": 501, "note": 59, "velocity": 97, "channel": 0}, {"type": "note_on", "time": 210, "note": 62, "velocity": 113, "channel": 0}, {"type": "note_off", "time": 696, "note": 62, "velocity": 113, "channel": 0}, {"type": "note_on", "time": 75, "note": 63, "velocity": 110, "channel": 0}, {"type": "note_off", "time": 522, "note": 63, "velocity": 110, "channel": 0}, {"type": "note_on", "time": 1853, "note": 67, "velocity": 113, "channel": 0}, {"type": "note_off", "time": 143, "note": 67, "velocity": 113, "channel": 0}, {"type": "note_on", "time": 686, "note": 72, "velocity": 109, "channel": 0}, {"type": "note_off", "time": 194, "note": 72, "velocity": 109, "channel": 0}, {"type": "note_on", "time": 624, "note": 75, "velocity": 120, "channel": 0}, {"type": "note_off", "time": 194, "note": 75, "velocity": 120, "channel": 0}, {"type": "note_on", "time": 665, "note": 65, "velocity": 115, "channel": 0}, {"type": "note_off", "time": 184, "note": 65, "velocity": 115, "channel": 0}, {"type": "note_on", "time": 962, "note": 63, "velocity": 120, "channel": 0}, {"type": "note_off", "time": 296, "note": 63, "velocity": 120, "channel": 0}, {"type": "note_on", "time": 522, "note": 65, "velocity": 117, "channel": 0}, {"type": "note_off", "time": 307, "note": 65, "velocity": 117, "channel": 0}, {"type": "note_on", "time": 512, "note": 67, "velocity": 110, "channel": 0}, {"type": "note_off", "time": 337, "note": 67, "velocity": 110, "channel": 0}, {"type": "note_on", "time": 1054, "note": 75, "velocity": 114, "channel": 0}, {"type": "note_off", "time": 174, "note": 75, "velocity": 114, "channel": 0}, {"type": "note_on", "time": 419, "note": 66, "velocity": 108, "channel": 0}, {"type": "note_off", "time": 163, "note": 66, "velocity": 108, "channel": 0}, {"type": "note_on", "time": 358, "note": 65, "velocity": 113, "channel": 0}, {"type": "note_off", "time": 532, "note": 65, "velocity": 113, "channel": 0}, {"type": "note_on", "time": 5, "note": 63, "velocity": 102, "channel": 0}, {"type": "note_off", "time": 66, "note": 63, "velocity": 102, "channel": 0}, {"type": "note_on", "time": 163, "note": 65, "velocity": 117, "channel": 0}, {"type": "note_off", "time": 808, "note": 65, "velocity": 117, "channel": 0}, {"type": "note_on", "time": 102, "note": 63, "velocity": 118, "channel": 0}, {"type": "note_off", "time": 389, "note": 63, "velocity": 118, "channel": 0}, {"type": "note_on", "time": 57, "note": 60, "velocity": 110, "channel": 0}, {"type": "note_off", "time": 166, "note": 60, "velocity": 110, "channel": 0}, {"type": "note_on", "time": 350, "note": 69, "velocity": 121, "channel": 0}, {"type": "note_off", "time": 146, "note": 69, "velocity": 121, "channel": 0}, {"type": "note_on", "time": 0, "note": 70, "velocity": 116, "channel": 0}, {"type": "note_off", "time": 119, "note": 70, "velocity": 116, "channel": 0}, {"type": "note_on", "time": 0, "note": 69, "velocity": 116, "channel": 0}, {"type": "note_on", "time": 154, "note": 68, "velocity": 118, "channel": 0}, {"type": "note_off", "time": 0, "note": 69, "velocity": 116, "channel": 0}, {"type": "note_off", "time": 160, "note": 68, "velocity": 118, "channel": 0}, {"type": "note_on", "time": 283, "note": 67, "velocity": 113, "channel": 0}, {"type": "note_off", "time": 208, "note": 67, "velocity": 113, "channel": 0}, {"type": "note_on", "time": 225, "note": 65, "velocity": 119, "channel": 0}, {"type": "note_off", "time": 266, "note": 65, "velocity": 119, "channel": 0}, {"type": "note_on", "time": 122, "note": 66, "velocity": 113, "channel": 0}, {"type": "note_off", "time": 327, "note": 66, "velocity": 113, "channel": 0}, {"type": "note_on", "time": 102, "note": 69, "velocity": 115, "channel": 0}, {"type": "note_off", "time": 256, "note": 69, "velocity": 115, "channel": 0}, {"type": "note_on", "time": 225, "note": 64, "velocity": 120, "channel": 0}, {"type": "note_off", "time": 256, "note": 64, "velocity": 120, "channel": 0}, {"type": "note_on", "time": 153, "note": 67, "velocity": 114, "channel": 0}, {"type": "note_off", "time": 532, "note": 67, "velocity": 114, "channel": 0}, {"type": "note_on", "time": 40, "note": 66, "velocity": 109, "channel": 0}, {"type": "note_off", "time": 327, "note": 66, "velocity": 109, "channel": 0}, {"type": "note_on", "time": 20, "note": 62, "velocity": 116, "channel": 0}, {"type": "note_off", "time": 225, "note": 62, "velocity": 116, "channel": 0}, {"type": "note_on", "time": 99, "note": 59, "velocity": 110, "channel": 0}, {"type": "note_off", "time": 215, "note": 59, "velocity": 110, "channel": 0}, {"type": "note_on", "time": 472, "note": 63, "velocity": 118, "channel": 0}, {"type": "note_off", "time": 463, "note": 63, "velocity": 118, "channel": 0}, {"type": "note_on", "time": 0, "note": 66, "velocity": 91, "channel": 0}, {"type": "note_off", "time": 325, "note": 66, "velocity": 91, "channel": 0}, {"type": "note_on", "time": 50, "note": 70, "velocity": 115, "channel": 0}, {"type": "note_off", "time": 389, "note": 70, "velocity": 115, "channel": 0}, {"type": "note_on", "time": 153, "note": 73, "velocity": 109, "channel": 0}, {"type": "note_off", "time": 317, "note": 73, "velocity": 109, "channel": 0}, {"type": "note_on", "time": 20, "note": 75, "velocity": 119, "channel": 0}, {"type": "note_off", "time": 245, "note": 75, "velocity": 119, "channel": 0}, {"type": "note_on", "time": 30, "note": 77, "velocity": 102, "channel": 0}, {"type": "note_off", "time": 491, "note": 77, "velocity": 102, "channel": 0}, {"type": "note_on", "time": 870, "note": 74, "velocity": 113, "channel": 0}, {"type": "note_off", "time": 153, "note": 74, "velocity": 113, "channel": 0}, {"type": "note_on", "time": 40, "note": 75, "velocity": 115, "channel": 0}, {"type": "note_off", "time": 215, "note": 75, "velocity": 115, "channel": 0}, {"type": "note_on", "time": 20, "note": 71, "velocity": 114, "channel": 0}, {"type": "note_off", "time": 266, "note": 71, "velocity": 114, "channel": 0}, {"type": "note_on", "time": 235, "note": 70, "velocity": 117, "channel": 0}, {"type": "note_off", "time": 256, "note": 70, "velocity": 117, "channel": 0}, {"type": "note_on", "time": 163, "note": 69, "velocity": 110, "channel": 0}, {"type": "note_off", "time": 286, "note": 69, "velocity": 110, "channel": 0}, {"type": "note_on", "time": 174, "note": 68, "velocity": 116, "channel": 0}, {"type": "note_off", "time": 307, "note": 68, "velocity": 116, "channel": 0}, {"type": "note_on", "time": 81, "note": 65, "velocity": 115, "channel": 0}, {"type": "note_off", "time": 266, "note": 65, "velocity": 115, "channel": 0}, {"type": "note_on", "time": 71, "note": 63, "velocity": 114, "channel": 0}, {"type": "note_off", "time": 378, "note": 63, "velocity": 114, "channel": 0}, {"type": "note_on", "time": 337, "note": 67, "velocity": 111, "channel": 0}, {"type": "note_off", "time": 368, "note": 67, "velocity": 111, "channel": 0}, {"type": "note_on", "time": 41, "note": 55, "velocity": 99, "channel": 0}, {"type": "note_off", "time": 367, "note": 55, "velocity": 99, "channel": 0}, {"type": "note_on", "time": 31, "note": 57, "velocity": 97, "channel": 0}, {"type": "note_off", "time": 381, "note": 57, "velocity": 97, "channel": 0}, {"type": "note_on", "time": 99, "note": 62, "velocity": 121, "channel": 0}, {"type": "note_off", "time": 286, "note": 62, "velocity": 121, "channel": 0}, {"type": "note_on", "time": 51, "note": 60, "velocity": 107, "channel": 0}, {"type": "note_off", "time": 716, "note": 60, "velocity": 107, "channel": 0}, {"type": "note_on", "time": 71, "note": 62, "velocity": 111, "channel": 0}, {"type": "note_off", "time": 552, "note": 62, "velocity": 111, "channel": 0}, {"type": "note_on", "time": 0, "note": 63, "velocity": 105, "channel": 0}, {"type": "note_off", "time": 440, "note": 63, "velocity": 105, "channel": 0}, {"type": "note_on", "time": 4597, "note": 60, "velocity": 115, "channel": 0}, {"type": "note_off", "time": 235, "note": 60, "velocity": 115, "channel": 0}, {"type": "note_on", "time": 307, "note": 69, "velocity": 114, "channel": 0}, {"type": "note_off", "time": 634, "note": 69, "velocity": 114, "channel": 0}, {"type": "note_on", "time": 0, "note": 72, "velocity": 112, "channel": 0}, {"type": "note_off", "time": 399, "note": 72, "velocity": 112, "channel": 0}, {"type": "note_on", "time": 102, "note": 74, "velocity": 109, "channel": 0}, {"type": "note_off", "time": 368, "note": 74, "velocity": 109, "channel": 0}, {"type": "note_on", "time": 0, "note": 74, "velocity": 111, "channel": 0}, {"type": "note_off", "time": 296, "note": 74, "velocity": 111, "channel": 0}, {"type": "note_on", "time": 0, "note": 75, "velocity": 98, "channel": 0}, {"type": "note_off", "time": 286, "note": 75, "velocity": 98, "channel": 0}, {"type": "note_on", "time": 0, "note": 74, "velocity": 97, "channel": 0}, {"type": "note_off", "time": 215, "note": 74, "velocity": 97, "channel": 0}, {"type": "note_on", "time": 46, "note": 75, "velocity": 109, "channel": 0}, {"type": "note_off", "time": 419, "note": 75, "velocity": 109, "channel": 0}, {"type": "note_on", "time": 4, "note": 74, "velocity": 99, "channel": 0}, {"type": "note_off", "time": 256, "note": 74, "velocity": 99, "channel": 0}, {"type": "note_on", "time": 10, "note": 72, "velocity": 110, "channel": 0}, {"type": "note_off", "time": 942, "note": 72, "velocity": 110, "channel": 0}, {"type": "note_on", "time": 92, "note": 69, "velocity": 111, "channel": 0}, {"type": "note_off", "time": 522, "note": 69, "velocity": 111, "channel": 0}, {"type": "note_on", "time": 10, "note": 67, "velocity": 111, "channel": 0}, {"type": "note_off", "time": 890, "note": 67, "velocity": 111, "channel": 0}, {"type": "note_on", "time": 200, "note": 63, "velocity": 111, "channel": 0}, {"type": "note_off", "time": 435, "note": 63, "velocity": 111, "channel": 0}, {"type": "note_on", "time": 45, "note": 62, "velocity": 116, "channel": 0}, {"type": "note_off", "time": 1192, "note": 62, "velocity": 116, "channel": 0}, {"type": "note_on", "time": 1297, "note": 45, "velocity": 117, "channel": 0}, {"type": "note_off", "time": 699, "note": 45, "velocity": 117, "channel": 0}, {"type": "note_on", "time": 0, "note": 52, "velocity": 99, "channel": 0}, {"type": "note_on", "time": 143, "note": 55, "velocity": 110, "channel": 0}, {"type": "note_off", "time": 0, "note": 52, "velocity": 99, "channel": 0}, {"type": "note_off", "time": 143, "note": 55, "velocity": 110, "channel": 0}, {"type": "note_on", "time": 0, "note": 59, "velocity": 110, "channel": 0}, {"type": "note_off", "time": 156, "note": 59, "velocity": 110, "channel": 0}, {"type": "note_on", "time": 43, "note": 49, "velocity": 111, "channel": 0}, {"type": "note_off", "time": 250, "note": 49, "velocity": 111, "channel": 0}, {"type": "note_on", "time": 128, "note": 52, "velocity": 110, "channel": 0}, {"type": "note_on", "time": 107, "note": 55, "velocity": 108, "channel": 0}, {"type": "note_off", "time": 0, "note": 52, "velocity": 110, "channel": 0}, {"type": "note_off", "time": 71, "note": 55, "velocity": 108, "channel": 0}, {"type": "note_on", "time": 51, "note": 59, "velocity": 110, "channel": 0}, {"type": "note_off", "time": 143, "note": 59, "velocity": 110, "channel": 0}, {"type": "note_on", "time": 37, "note": 54, "velocity": 112, "channel": 0}, {"type": "note_off", "time": 460, "note": 54, "velocity": 112, "channel": 0}, {"type": "note_on", "time": 920, "note": 46, "velocity": 115, "channel": 0}, {"type": "note_off", "time": 481, "note": 46, "velocity": 115, "channel": 0}, {"type": "note_on", "time": 10, "note": 51, "velocity": 105, "channel": 0}, {"type": "note_off", "time": 174, "note": 51, "velocity": 105, "channel": 0}, {"type": "note_on", "time": 30, "note": 54, "velocity": 106, "channel": 0}, {"type": "note_off", "time": 143, "note": 54, "velocity": 106, "channel": 0}, {"type": "note_on", "time": 41, "note": 58, "velocity": 106, "channel": 0}, {"type": "note_off", "time": 204, "note": 58, "velocity": 106, "channel": 0}, {"type": "note_on", "time": 0, "note": 51, "velocity": 110, "channel": 0}, {"type": "note_off", "time": 368, "note": 51, "velocity": 110, "channel": 0}, {"type": "note_on", "time": 19, "note": 54, "velocity": 103, "channel": 0}, {"type": "note_off", "time": 102, "note": 54, "velocity": 103, "channel": 0}, {"type": "note_on", "time": 24, "note": 58, "velocity": 101, "channel": 0}, {"type": "note_off", "time": 57, "note": 58, "velocity": 101, "channel": 0}, {"type": "note_on", "time": 0, "note": 61, "velocity": 111, "channel": 0}, {"type": "note_off", "time": 161, "note": 61, "velocity": 111, "channel": 0}, {"type": "note_on", "time": 44, "note": 53, "velocity": 112, "channel": 0}, {"type": "note_off", "time": 430, "note": 53, "velocity": 112, "channel": 0}, {"type": "note_on", "time": 685, "note": 44, "velocity": 110, "channel": 0}, {"type": "note_off", "time": 167, "note": 44, "velocity": 110, "channel": 0}, {"type": "note_on", "time": 0, "note": 51, "velocity": 108, "channel": 0}, {"type": "note_off", "time": 273, "note": 51, "velocity": 108, "channel": 0}, {"type": "note_on", "time": 0, "note": 56, "velocity": 106, "channel": 0}, {"type": "note_off", "time": 214, "note": 56, "velocity": 106, "channel": 0}, {"type": "note_on", "time": 4, "note": 49, "velocity": 108, "channel": 0}, {"type": "note_off", "time": 162, "note": 49, "velocity": 108, "channel": 0}, {"type": "note_on", "time": 37, "note": 53, "velocity": 102, "channel": 0}, {"type": "note_off", "time": 261, "note": 53, "velocity": 102, "channel": 0}, {"type": "note_on", "time": 16, "note": 56, "velocity": 108, "channel": 0}, {"type": "note_off", "time": 163, "note": 56, "velocity": 108, "channel": 0}, {"type": "note_on", "time": 51, "note": 59, "velocity": 114, "channel": 0}, {"type": "note_off", "time": 101, "note": 59, "velocity": 114, "channel": 0}, {"type": "note_on", "time": 0, "note": 63, "velocity": 122, "channel": 0}, {"type": "note_off", "time": 184, "note": 63, "velocity": 122, "channel": 0}, {"type": "note_on", "time": 35, "note": 61, "velocity": 113, "channel": 0}, {"type": "note_off", "time": 149, "note": 61, "velocity": 113, "channel": 0}, {"type": "note_on", "time": 0, "note": 59, "velocity": 101, "channel": 0}, {"type": "note_off", "time": 204, "note": 59, "velocity": 101, "channel": 0}, {"type": "note_on", "time": 72, "note": 56, "velocity": 103, "channel": 0}, {"type": "note_off", "time": 194, "note": 56, "velocity": 103, "channel": 0}, {"type": "note_on", "time": 0, "note": 55, "velocity": 110, "channel": 0}, {"type": "note_off", "time": 184, "note": 55, "velocity": 110, "channel": 0}, {"type": "note_on", "time": 60, "note": 63, "velocity": 117, "channel": 0}, {"type": "note_off", "time": 174, "note": 63, "velocity": 117, "channel": 0}, {"type": "note_on", "time": 0, "note": 59, "velocity": 98, "channel": 0}, {"type": "note_off", "time": 276, "note": 59, "velocity": 98, "channel": 0}, {"type": "note_on", "time": 143, "note": 62, "velocity": 120, "channel": 0}, {"type": "note_off", "time": 147, "note": 62, "velocity": 120, "channel": 0}, {"type": "note_on", "time": 0, "note": 55, "velocity": 96, "channel": 0}, {"type": "note_off", "time": 245, "note": 55, "velocity": 96, "channel": 0}, {"type": "note_on", "time": 36, "note": 59, "velocity": 97, "channel": 0}, {"type": "note_off", "time": 143, "note": 59, "velocity": 97, "channel": 0}, {"type": "note_on", "time": 71, "note": 62, "velocity": 115, "channel": 0}, {"type": "note_off", "time": 163, "note": 62, "velocity": 115, "channel": 0}, {"type": "note_on", "time": 19, "note": 60, "velocity": 109, "channel": 0}, {"type": "note_off", "time": 215, "note": 60, "velocity": 109, "channel": 0}, {"type": "note_on", "time": 45, "note": 62, "velocity": 116, "channel": 0}, {"type": "note_off", "time": 199, "note": 62, "velocity": 116, "channel": 0}, {"type": "note_on", "time": 25, "note": 63, "velocity": 113, "channel": 0}, {"type": "note_off", "time": 143, "note": 63, "velocity": 113, "channel": 0}, {"type": "note_on", "time": 0, "note": 65, "velocity": 95, "channel": 0}, {"type": "note_off", "time": 97, "note": 65, "velocity": 95, "channel": 0}, {"type": "note_on", "time": 0, "note": 67, "velocity": 101, "channel": 0}, {"type": "note_off", "time": 296, "note": 67, "velocity": 101, "channel": 0}, {"type": "note_on", "time": 20, "note": 72, "velocity": 108, "channel": 0}, {"type": "note_off", "time": 194, "note": 72, "velocity": 108, "channel": 0}, {"type": "note_on", "time": 1, "note": 67, "velocity": 107, "channel": 0}, {"type": "note_off", "time": 133, "note": 67, "velocity": 107, "channel": 0}, {"type": "note_on", "time": 71, "note": 65, "velocity": 107, "channel": 0}, {"type": "note_on", "time": 183, "note": 63, "velocity": 113, "channel": 0}, {"type": "note_off", "time": 0, "note": 65, "velocity": 107, "channel": 0}, {"type": "note_off", "time": 163, "note": 63, "velocity": 113, "channel": 0}, {"type": "note_on", "time": 61, "note": 67, "velocity": 104, "channel": 0}, {"type": "note_off", "time": 174, "note": 67, "velocity": 104, "channel": 0}, {"type": "note_on", "time": 41, "note": 63, "velocity": 107, "channel": 0}, {"type": "note_off", "time": 143, "note": 63, "velocity": 107, "channel": 0}, {"type": "note_on", "time": 40, "note": 67, "velocity": 103, "channel": 0}, {"type": "note_off", "time": 163, "note": 67, "velocity": 103, "channel": 0}, {"type": "note_on", "time": 35, "note": 64, "velocity": 108, "channel": 0}, {"type": "note_off", "time": 174, "note": 64, "velocity": 108, "channel": 0}, {"type": "note_on", "time": 46, "note": 68, "velocity": 112, "channel": 0}, {"type": "note_off", "time": 215, "note": 68, "velocity": 112, "channel": 0}, {"type": "note_on", "time": 0, "note": 66, "velocity": 104, "channel": 0}, {"type": "note_off", "time": 153, "note": 66, "velocity": 104, "channel": 0}, {"type": "note_on", "time": 61, "note": 64, "velocity": 110, "channel": 0}, {"type": "note_off", "time": 184, "note": 64, "velocity": 110, "channel": 0}, {"type": "note_on", "time": 9, "note": 63, "velocity": 114, "channel": 0}, {"type": "note_off", "time": 235, "note": 63, "velocity": 114, "channel": 0}, {"type": "note_on", "time": 41, "note": 61, "velocity": 108, "channel": 0}, {"type": "note_off", "time": 174, "note": 61, "velocity": 108, "channel": 0}, {"type": "note_on", "time": 0, "note": 60, "velocity": 102, "channel": 0}, {"type": "note_off", "time": 153, "note": 60, "velocity": 102, "channel": 0}, {"type": "note_on", "time": 40, "note": 58, "velocity": 103, "channel": 0}, {"type": "note_off", "time": 224, "note": 58, "velocity": 103, "channel": 0}, {"type": "note_on", "time": 0, "note": 57, "velocity": 103, "channel": 0}, {"type": "note_off", "time": 117, "note": 57, "velocity": 103, "channel": 0}, {"type": "note_on", "time": 0, "note": 55, "velocity": 98, "channel": 0}, {"type": "note_off", "time": 164, "note": 55, "velocity": 98, "channel": 0}, {"type": "note_on", "time": 106, "note": 56, "velocity": 97, "channel": 0}, {"type": "note_off", "time": 155, "note": 56, "velocity": 97, "channel": 0}, {"type": "note_on", "time": 18, "note": 58, "velocity": 109, "channel": 0}, {"type": "note_off", "time": 209, "note": 58, "velocity": 109, "channel": 0}, {"type": "note_on", "time": 46, "note": 60, "velocity": 112, "channel": 0}, {"type": "note_off", "time": 184, "note": 60, "velocity": 112, "channel": 0}, {"type": "note_on", "time": 35, "note": 62, "velocity": 117, "channel": 0}, {"type": "note_off", "time": 112, "note": 62, "velocity": 117, "channel": 0}, {"type": "note_on", "time": 92, "note": 63, "velocity": 117, "channel": 0}, {"type": "note_off", "time": 168, "note": 63, "velocity": 117, "channel": 0}, {"type": "note_on", "time": 20, "note": 65, "velocity": 112, "channel": 0}, {"type": "note_off", "time": 174, "note": 65, "velocity": 112, "channel": 0}, {"type": "note_on", "time": 143, "note": 67, "velocity": 102, "channel": 0}, {"type": "note_off", "time": 788, "note": 67, "velocity": 102, "channel": 0}, {"type": "note_on", "time": 10, "note": 70, "velocity": 113, "channel": 0}, {"type": "note_off", "time": 440, "note": 70, "velocity": 113, "channel": 0}, {"type": "note_on", "time": 1874, "note": 67, "velocity": 113, "channel": 0}, {"type": "note_off", "time": 256, "note": 67, "velocity": 113, "channel": 0}, {"type": "note_on", "time": 184, "note": 68, "velocity": 118, "channel": 0}, {"type": "note_off", "time": 327, "note": 68, "velocity": 118, "channel": 0}, {"type": "note_on", "time": 347, "note": 72, "velocity": 112, "channel": 0}, {"type": "note_off", "time": 593, "note": 72, "velocity": 112, "channel": 0}, {"type": "note_on", "time": 0, "note": 70, "velocity": 109, "channel": 0}, {"type": "note_off", "time": 1607, "note": 70, "velocity": 109, "channel": 0}, {"type": "note_on", "time": 244, "note": 70, "velocity": 112, "channel": 0}, {"type": "note_off", "time": 1177, "note": 70, "velocity": 112, "channel": 0}, {"type": "note_on", "time": 81, "note": 67, "velocity": 109, "channel": 0}, {"type": "note_off", "time": 204, "note": 67, "velocity": 109, "channel": 0}, {"type": "note_on", "time": 72, "note": 63, "velocity": 118, "channel": 0}, {"type": "note_off", "time": 225, "note": 63, "velocity": 118, "channel": 0}, {"type": "note_on", "time": 245, "note": 60, "velocity": 115, "channel": 0}, {"type": "note_off", "time": 624, "note": 60, "velocity": 115, "channel": 0}, {"type": "note_on", "time": 10, "note": 58, "velocity": 99, "channel": 0}, {"type": "note_off", "time": 604, "note": 58, "velocity": 99, "channel": 0}, {"type": "note_on", "time": 1955, "note": 75, "velocity": 108, "channel": 0}, {"type": "note_off", "time": 153, "note": 75, "velocity": 108, "channel": 0}, {"type": "note_on", "time": 93, "note": 77, "velocity": 104, "channel": 0}, {"type": "note_off", "time": 378, "note": 77, "velocity": 104, "channel": 0}, {"type": "note_on", "time": 224, "note": 75, "velocity": 120, "channel": 0}, {"type": "note_off", "time": 337, "note": 75, "velocity": 120, "channel": 0}, {"type": "note_on", "time": 184, "note": 73, "velocity": 114, "channel": 0}, {"type": "note_off", "time": 389, "note": 73, "velocity": 114, "channel": 0}, {"type": "note_on", "time": 0, "note": 72, "velocity": 112, "channel": 0}, {"type": "note_off", "time": 378, "note": 72, "velocity": 112, "channel": 0}, {"type": "note_on", "time": 111, "note": 70, "velocity": 114, "channel": 0}, {"type": "note_off", "time": 235, "note": 70, "velocity": 114, "channel": 0}, {"type": "note_on", "time": 164, "note": 68, "velocity": 100, "channel": 0}, {"type": "note_off", "time": 91, "note": 68, "velocity": 100, "channel": 0}, {"type": "note_on", "time": 0, "note": 70, "velocity": 104, "channel": 0}, {"type": "note_off", "time": 143, "note": 70, "velocity": 104, "channel": 0}, {"type": "note_on", "time": 29, "note": 68, "velocity": 109, "channel": 0}, {"type": "note_off", "time": 256, "note": 68, "velocity": 109, "channel": 0}, {"type": "note_on", "time": 15, "note": 67, "velocity": 10, "channel": 0}, {"type": "note_off", "time": 240, "note": 67, "velocity": 10, "channel": 0}, {"type": "note_on", "time": 143, "note": 66, "velocity": 113, "channel": 0}, {"type": "note_off", "time": 307, "note": 66, "velocity": 113, "channel": 0}, {"type": "note_on", "time": 163, "note": 73, "velocity": 112, "channel": 0}, {"type": "note_off", "time": 245, "note": 73, "velocity": 112, "channel": 0}, {"type": "note_on", "time": 225, "note": 70, "velocity": 116, "channel": 0}, {"type": "note_off", "time": 256, "note": 70, "velocity": 116, "channel": 0}, {"type": "note_on", "time": 117, "note": 66, "velocity": 111, "channel": 0}, {"type": "note_off", "time": 363, "note": 66, "velocity": 111, "channel": 0}, {"type": "note_on", "time": 92, "note": 65, "velocity": 112, "channel": 0}, {"type": "note_off", "time": 256, "note": 65, "velocity": 112, "channel": 0}, {"type": "note_on", "time": 20, "note": 63, "velocity": 118, "channel": 0}, {"type": "note_off", "time": 302, "note": 63, "velocity": 118, "channel": 0}, {"type": "note_on", "time": 97, "note": 62, "velocity": 114, "channel": 0}, {"type": "note_off", "time": 266, "note": 62, "velocity": 114, "channel": 0}, {"type": "note_on", "time": 144, "note": 60, "velocity": 109, "channel": 0}, {"type": "note_off", "time": 256, "note": 60, "velocity": 109, "channel": 0}, {"type": "note_on", "time": 19, "note": 59, "velocity": 104, "channel": 0}, {"type": "note_off", "time": 399, "note": 59, "velocity": 104, "channel": 0}, {"type": "note_on", "time": 103, "note": 68, "velocity": 115, "channel": 0}, {"type": "note_off", "time": 347, "note": 68, "velocity": 115, "channel": 0}, {"type": "note_on", "time": 0, "note": 67, "velocity": 108, "channel": 0}, {"type": "note_off", "time": 399, "note": 67, "velocity": 108, "channel": 0}, {"type": "note_on", "time": 71, "note": 65, "velocity": 118, "channel": 0}, {"type": "note_off", "time": 348, "note": 65, "velocity": 118, "channel": 0}, {"type": "note_on", "time": 9, "note": 63, "velocity": 119, "channel": 0}, {"type": "note_off", "time": 491, "note": 63, "velocity": 119, "channel": 0}, {"type": "note_on", "time": 5, "note": 65, "velocity": 101, "channel": 0}, {"type": "note_off", "time": 204, "note": 65, "velocity": 101, "channel": 0}, {"type": "note_on", "time": 148, "note": 67, "velocity": 112, "channel": 0}, {"type": "note_off", "time": 491, "note": 67, "velocity": 112, "channel": 0}, {"type": "note_on", "time": 56, "note": 69, "velocity": 100, "channel": 0}, {"type": "note_off", "time": 133, "note": 69, "velocity": 100, "channel": 0}, {"type": "note_on", "time": 37, "note": 71, "velocity": 114, "channel": 0}, {"type": "note_off", "time": 419, "note": 71, "velocity": 114, "channel": 0}, {"type": "note_on", "time": 153, "note": 72, "velocity": 108, "channel": 0}, {"type": "note_off", "time": 204, "note": 72, "velocity": 108, "channel": 0}, {"type": "note_on", "time": 83, "note": 74, "velocity": 111, "channel": 0}, {"type": "note_off", "time": 1036, "note": 74, "velocity": 111, "channel": 0}, {"type": "note_on", "time": 36, "note": 75, "velocity": 108, "channel": 0}, {"type": "note_off", "time": 1281, "note": 75, "velocity": 108, "channel": 0}, {"type": "note_on", "time": 18, "note": 75, "velocity": 103, "channel": 0}, {"type": "note_off", "time": 1313, "note": 75, "velocity": 103, "channel": 0}, {"type": "note_on", "time": 42, "note": 73, "velocity": 114, "channel": 0}, {"type": "note_off", "time": 163, "note": 73, "velocity": 114, "channel": 0}, {"type": "note_on", "time": 52, "note": 75, "velocity": 121, "channel": 0}, {"type": "note_off", "time": 576, "note": 75, "velocity": 121, "channel": 0}, {"type": "note_on", "time": 799, "note": 70, "velocity": 114, "channel": 0}, {"type": "note_off", "time": 204, "note": 70, "velocity": 114, "channel": 0}, {"type": "note_on", "time": 29, "note": 68, "velocity": 118, "channel": 0}, {"type": "note_off", "time": 256, "note": 68, "velocity": 118, "channel": 0}, {"type": "note_on", "time": 122, "note": 67, "velocity": 114, "channel": 0}, {"type": "note_off", "time": 645, "note": 67, "velocity": 114, "channel": 0}, {"type": "note_on", "time": 81, "note": 65, "velocity": 114, "channel": 0}, {"type": "note_off", "time": 501, "note": 65, "velocity": 114, "channel": 0}, {"type": "note_on", "time": 20, "note": 63, "velocity": 118, "channel": 0}, {"type": "note_off", "time": 276, "note": 63, "velocity": 118, "channel": 0}, {"type": "note_on", "time": 132, "note": 62, "velocity": 119, "channel": 0}, {"type": "note_off", "time": 768, "note": 62, "velocity": 119, "channel": 0}, {"type": "note_on", "time": 11, "note": 60, "velocity": 112, "channel": 0}, {"type": "note_off", "time": 481, "note": 60, "velocity": 112, "channel": 0}, {"type": "note_on", "time": 19, "note": 58, "velocity": 96, "channel": 0}, {"type": "note_off", "time": 645, "note": 58, "velocity": 96, "channel": 0}, {"type": "note_on", "time": 1713, "note": 53, "velocity": 109, "channel": 0}, {"type": "note_off", "time": 155, "note": 53, "velocity": 109, "channel": 0}, {"type": "note_on", "time": 45, "note": 58, "velocity": 107, "channel": 0}, {"type": "note_off", "time": 204, "note": 58, "velocity": 107, "channel": 0}, {"type": "note_on", "time": 61, "note": 60, "velocity": 116, "channel": 0}, {"type": "note_off", "time": 215, "note": 60, "velocity": 116, "channel": 0}, {"type": "note_on", "time": 51, "note": 63, "velocity": 122, "channel": 0}, {"type": "note_off", "time": 215, "note": 63, "velocity": 122, "channel": 0}, {"type": "note_on", "time": 51, "note": 65, "velocity": 119, "channel": 0}, {"type": "note_off", "time": 204, "note": 65, "velocity": 119, "channel": 0}, {"type": "note_on", "time": 102, "note": 67, "velocity": 115, "channel": 0}, {"type": "note_off", "time": 266, "note": 67, "velocity": 115, "channel": 0}, {"type": "note_on", "time": 13, "note": 68, "velocity": 96, "channel": 0}, {"type": "note_off", "time": 153, "note": 68, "velocity": 96, "channel": 0}, {"type": "note_on", "time": 37, "note": 70, "velocity": 120, "channel": 0}, {"type": "note_off", "time": 235, "note": 70, "velocity": 120, "channel": 0}, {"type": "note_on", "time": 82, "note": 72, "velocity": 114, "channel": 0}, {"type": "note_off", "time": 112, "note": 72, "velocity": 114, "channel": 0}, {"type": "note_on", "time": 39, "note": 74, "velocity": 108, "channel": 0}, {"type": "note_off", "time": 307, "note": 74, "velocity": 108, "channel": 0}, {"type": "note_on", "time": 0, "note": 75, "velocity": 110, "channel": 0}, {"type": "note_off", "time": 261, "note": 75, "velocity": 110, "channel": 0}, {"type": "note_on", "time": 38, "note": 75, "velocity": 118, "channel": 0}, {"type": "note_off", "time": 174, "note": 75, "velocity": 118, "channel": 0}, {"type": "note_on", "time": 28, "note": 77, "velocity": 104, "channel": 0}, {"type": "note_off", "time": 1075, "note": 77, "velocity": 104, "channel": 0}, {"type": "note_on", "time": 25, "note": 75, "velocity": 117, "channel": 0}, {"type": "note_off", "time": 199, "note": 75, "velocity": 117, "channel": 0}, {"type": "note_on", "time": 20, "note": 73, "velocity": 114, "channel": 0}, {"type": "note_off", "time": 215, "note": 73, "velocity": 114, "channel": 0}, {"type": "note_on", "time": 2, "note": 72, "velocity": 114, "channel": 0}, {"type": "note_off", "time": 706, "note": 72, "velocity": 114, "channel": 0}, {"type": "note_on", "time": 122, "note": 70, "velocity": 117, "channel": 0}, {"type": "note_off", "time": 378, "note": 70, "velocity": 117, "channel": 0}, {"type": "note_on", "time": 194, "note": 68, "velocity": 120, "channel": 0}, {"type": "note_off", "time": 245, "note": 68, "velocity": 120, "channel": 0}, {"type": "note_on", "time": 163, "note": 65, "velocity": 116, "channel": 0}, {"type": "note_off", "time": 337, "note": 65, "velocity": 116, "channel": 0}, {"type": "note_on", "time": 0, "note": 66, "velocity": 112, "channel": 0}, {"type": "note_off", "time": 348, "note": 66, "velocity": 112, "channel": 0}, {"type": "note_on", "time": 163, "note": 70, "velocity": 111, "channel": 0}, {"type": "note_off", "time": 327, "note": 70, "velocity": 111, "channel": 0}, {"type": "note_on", "time": 132, "note": 73, "velocity": 106, "channel": 0}, {"type": "note_off", "time": 306, "note": 73, "velocity": 106, "channel": 0}, {"type": "note_on", "time": 0, "note": 75, "velocity": 118, "channel": 0}, {"type": "note_off", "time": 225, "note": 75, "velocity": 118, "channel": 0}, {"type": "note_on", "time": 0, "note": 77, "velocity": 107, "channel": 0}, {"type": "note_off", "time": 440, "note": 77, "velocity": 107, "channel": 0}, {"type": "note_on", "time": 142, "note": 75, "velocity": 119, "channel": 0}, {"type": "note_off", "time": 409, "note": 75, "velocity": 119, "channel": 0}, {"type": "note_on", "time": 117, "note": 76, "velocity": 111, "channel": 0}, {"type": "note_off", "time": 640, "note": 76, "velocity": 111, "channel": 0}, {"type": "note_on", "time": 1108, "note": 71, "velocity": 119, "channel": 0}, {"type": "note_off", "time": 276, "note": 71, "velocity": 119, "channel": 0}, {"type": "note_on", "time": 135, "note": 70, "velocity": 117, "channel": 0}, {"type": "note_off", "time": 138, "note": 70, "velocity": 117, "channel": 0}, {"type": "note_on", "time": 30, "note": 71, "velocity": 117, "channel": 0}, {"type": "note_off", "time": 128, "note": 71, "velocity": 117, "channel": 0}, {"type": "note_on", "time": 10, "note": 70, "velocity": 117, "channel": 0}, {"type": "note_off", "time": 153, "note": 70, "velocity": 117, "channel": 0}, {"type": "note_on", "time": 16, "note": 68, "velocity": 121, "channel": 0}, {"type": "note_off", "time": 266, "note": 68, "velocity": 121, "channel": 0}, {"type": "note_on", "time": 72, "note": 63, "velocity": 118, "channel": 0}, {"type": "note_off", "time": 481, "note": 63, "velocity": 118, "channel": 0}, {"type": "note_on", "time": 60, "note": 65, "velocity": 104, "channel": 0}, {"type": "note_off", "time": 154, "note": 65, "velocity": 104, "channel": 0}, {"type": "note_on", "time": 28, "note": 67, "velocity": 116, "channel": 0}, {"type": "note_off", "time": 471, "note": 67, "velocity": 116, "channel": 0}, {"type": "note_on", "time": 61, "note": 63, "velocity": 120, "channel": 0}, {"type": "note_off", "time": 327, "note": 63, "velocity": 120, "channel": 0}, {"type": "note_on", "time": 71, "note": 60, "velocity": 114, "channel": 0}, {"type": "note_off", "time": 331, "note": 60, "velocity": 114, "channel": 0}, {"type": "note_on", "time": 346, "note": 63, "velocity": 125, "channel": 0}, {"type": "note_on", "time": 172, "note": 65, "velocity": 116, "channel": 0}, {"type": "note_off", "time": 0, "note": 63, "velocity": 125, "channel": 0}, {"type": "note_off", "time": 675, "note": 65, "velocity": 116, "channel": 0}, {"type": "note_on", "time": 31, "note": 63, "velocity": 120, "channel": 0}, {"type": "note_off", "time": 348, "note": 63, "velocity": 120, "channel": 0}, {"type": "note_on", "time": 696, "note": 67, "velocity": 116, "channel": 0}, {"type": "note_off", "time": 143, "note": 67, "velocity": 116, "channel": 0}, {"type": "note_on", "time": 461, "note": 70, "velocity": 112, "channel": 0}, {"type": "note_off", "time": 532, "note": 70, "velocity": 112, "channel": 0}, {"type": "note_on", "time": 9, "note": 72, "velocity": 113, "channel": 0}, {"type": "note_off", "time": 501, "note": 72, "velocity": 113, "channel": 0}, {"type": "note_on", "time": 29, "note": 75, "velocity": 121, "channel": 0}, {"type": "note_off", "time": 619, "note": 75, "velocity": 121, "channel": 0}, {"type": "note_on", "time": 14, "note": 77, "velocity": 103, "channel": 0}, {"type": "note_off", "time": 318, "note": 77, "velocity": 103, "channel": 0}, {"type": "note_on", "time": 176, "note": 75, "velocity": 127, "channel": 0}, {"type": "note_off", "time": 276, "note": 75, "velocity": 127, "channel": 0}, {"type": "note_on", "time": 880, "note": 65, "velocity": 118, "channel": 0}, {"type": "note_off", "time": 521, "note": 65, "velocity": 118, "channel": 0}, {"type": "note_on", "time": 0, "note": 63, "velocity": 102, "channel": 0}, {"type": "note_off", "time": 156, "note": 63, "velocity": 102, "channel": 0}, {"type": "note_on", "time": 126, "note": 65, "velocity": 113, "channel": 0}, {"type": "note_off", "time": 798, "note": 65, "velocity": 113, "channel": 0}, {"type": "note_on", "time": 51, "note": 67, "velocity": 116, "channel": 0}, {"type": "note_off", "time": 471, "note": 67, "velocity": 116, "channel": 0}, {"type": "note_on", "time": 73, "note": 75, "velocity": 125, "channel": 0}, {"type": "note_off", "time": 159, "note": 75, "velocity": 125, "channel": 0}, {"type": "note_on", "time": 1007, "note": 66, "velocity": 116, "channel": 0}, {"type": "note_off", "time": 446, "note": 66, "velocity": 116, "channel": 0}, {"type": "note_on", "time": 0, "note": 63, "velocity": 100, "channel": 0}, {"type": "note_off", "time": 212, "note": 63, "velocity": 100, "channel": 0}, {"type": "note_on", "time": 149, "note": 65, "velocity": 117, "channel": 0}, {"type": "note_off", "time": 491, "note": 65, "velocity": 117, "channel": 0}, {"type": "note_on", "time": 62, "note": 63, "velocity": 119, "channel": 0}, {"type": "note_off", "time": 235, "note": 63, "velocity": 119, "channel": 0}, {"type": "note_on", "time": 31, "note": 60, "velocity": 115, "channel": 0}, {"type": "note_off", "time": 317, "note": 60, "velocity": 115, "channel": 0}, {"type": "note_on", "time": 264, "note": 75, "velocity": 126, "channel": 0}, {"type": "note_off", "time": 655, "note": 75, "velocity": 126, "channel": 0}, {"type": "note_on", "time": 30, "note": 72, "velocity": 112, "channel": 0}, {"type": "note_off", "time": 163, "note": 72, "velocity": 112, "channel": 0}, {"type": "note_on", "time": 51, "note": 70, "velocity": 117, "channel": 0}, {"type": "note_off", "time": 194, "note": 70, "velocity": 117, "channel": 0}, {"type": "note_on", "time": 92, "note": 67, "velocity": 113, "channel": 0}, {"type": "note_on", "time": 194, "note": 66, "velocity": 110, "channel": 0}, {"type": "note_off", "time": 0, "note": 67, "velocity": 113, "channel": 0}, {"type": "note_off", "time": 255, "note": 66, "velocity": 110, "channel": 0}, {"type": "note_on", "time": 50, "note": 65, "velocity": 114, "channel": 0}, {"type": "note_off", "time": 235, "note": 65, "velocity": 114, "channel": 0}, {"type": "note_on", "time": 62, "note": 63, "velocity": 117, "channel": 0}, {"type": "note_off", "time": 215, "note": 63, "velocity": 117, "channel": 0}, {"type": "note_on", "time": 0, "note": 63, "velocity": 115, "channel": 0}, {"type": "note_off", "time": 40, "note": 63, "velocity": 115, "channel": 0}, {"type": "note_on", "time": 20, "note": 60, "velocity": 113, "channel": 0}, {"type": "note_off", "time": 158, "note": 60, "velocity": 113, "channel": 0}, {"type": "note_on", "time": 24, "note": 58, "velocity": 104, "channel": 0}, {"type": "note_off", "time": 296, "note": 58, "velocity": 104, "channel": 0}, {"type": "note_on", "time": 39, "note": 55, "velocity": 102, "channel": 0}, {"type": "note_off", "time": 278, "note": 55, "velocity": 102, "channel": 0}, {"type": "note_on", "time": 0, "note": 53, "velocity": 102, "channel": 0}, {"type": "note_off", "time": 316, "note": 53, "velocity": 102, "channel": 0}, {"type": "note_on", "time": 69, "note": 54, "velocity": 106, "channel": 0}, {"type": "note_off", "time": 125, "note": 54, "velocity": 106, "channel": 0}, {"type": "note_on", "time": 43, "note": 55, "velocity": 105, "channel": 0}, {"type": "note_off", "time": 309, "note": 55, "velocity": 105, "channel": 0}, {"type": "note_on", "time": 75, "note": 54, "velocity": 111, "channel": 0}, {"type": "note_off", "time": 63, "note": 54, "velocity": 111, "channel": 0}, {"type": "note_on", "time": 0, "note": 55, "velocity": 108, "channel": 0}, {"type": "note_off", "time": 117, "note": 55, "velocity": 108, "channel": 0}, {"type": "note_on", "time": 0, "note": 57, "velocity": 106, "channel": 0}, {"type": "note_off", "time": 76, "note": 57, "velocity": 106, "channel": 0}, {"type": "note_on", "time": 0, "note": 59, "velocity": 102, "channel": 0}, {"type": "note_off", "time": 128, "note": 59, "velocity": 102, "channel": 0}, {"type": "note_on", "time": 5, "note": 61, "velocity": 120, "channel": 0}, {"type": "note_off", "time": 133, "note": 61, "velocity": 120, "channel": 0}, {"type": "note_on", "time": 40, "note": 62, "velocity": 119, "channel": 0}, {"type": "note_off", "time": 138, "note": 62, "velocity": 119, "channel": 0}, {"type": "note_on", "time": 35, "note": 64, "velocity": 117, "channel": 0}, {"type": "note_off", "time": 102, "note": 64, "velocity": 117, "channel": 0}, {"type": "note_on", "time": 5, "note": 66, "velocity": 111, "channel": 0}, {"type": "note_off", "time": 133, "note": 66, "velocity": 111, "channel": 0}, {"type": "note_on", "time": 0, "note": 67, "velocity": 104, "channel": 0}, {"type": "note_off", "time": 46, "note": 67, "velocity": 104, "channel": 0}, {"type": "note_on", "time": 20, "note": 68, "velocity": 110, "channel": 0}, {"type": "note_off", "time": 29, "note": 68, "velocity": 110, "channel": 0}, {"type": "note_on", "time": 0, "note": 69, "velocity": 115, "channel": 0}, {"type": "note_off", "time": 81, "note": 69, "velocity": 115, "channel": 0}, {"type": "note_on", "time": 0, "note": 71, "velocity": 118, "channel": 0}, {"type": "note_off", "time": 112, "note": 71, "velocity": 118, "channel": 0}, {"type": "note_on", "time": 0, "note": 73, "velocity": 116, "channel": 0}, {"type": "note_on", "time": 153, "note": 72, "velocity": 115, "channel": 0}, {"type": "note_off", "time": 0, "note": 73, "velocity": 116, "channel": 0}, {"type": "note_off", "time": 706, "note": 72, "velocity": 115, "channel": 0}, {"type": "note_on", "time": 9, "note": 68, "velocity": 115, "channel": 0}, {"type": "note_off", "time": 552, "note": 68, "velocity": 115, "channel": 0}, {"type": "note_on", "time": 41, "note": 70, "velocity": 116, "channel": 0}, {"type": "note_off", "time": 870, "note": 70, "velocity": 116, "channel": 0}, {"type": "note_on", "time": 22, "note": 70, "velocity": 105, "channel": 0}, {"type": "note_off", "time": 250, "note": 70, "velocity": 105, "channel": 0}, {"type": "note_on", "time": 3, "note": 66, "velocity": 105, "channel": 0}, {"type": "note_off", "time": 215, "note": 66, "velocity": 105, "channel": 0}, {"type": "note_on", "time": 47, "note": 63, "velocity": 100, "channel": 0}, {"type": "note_off", "time": 163, "note": 63, "velocity": 100, "channel": 0}, {"type": "note_on", "time": 76, "note": 58, "velocity": 103, "channel": 0}, {"type": "note_off", "time": 157, "note": 58, "velocity": 103, "channel": 0}, {"type": "note_on", "time": 251, "note": 65, "velocity": 108, "channel": 0}, {"type": "note_off", "time": 798, "note": 65, "velocity": 108, "channel": 0}, {"type": "note_on", "time": 0, "note": 63, "velocity": 105, "channel": 0}, {"type": "note_off", "time": 409, "note": 63, "velocity": 105, "channel": 0}, {"type": "note_on", "time": 1280, "note": 67, "velocity": 110, "channel": 0}, {"type": "note_off", "time": 541, "note": 67, "velocity": 110, "channel": 0}, {"type": "note_on", "time": 0, "note": 66, "velocity": 99, "channel": 0}, {"type": "note_off", "time": 174, "note": 66, "velocity": 99, "channel": 0}, {"type": "note_on", "time": 30, "note": 67, "velocity": 115, "channel": 0}, {"type": "note_off", "time": 491, "note": 67, "velocity": 115, "channel": 0}, {"type": "note_on", "time": 92, "note": 63, "velocity": 117, "channel": 0}, {"type": "note_off", "time": 276, "note": 63, "velocity": 117, "channel": 0}, {"type": "note_on", "time": 81, "note": 60, "velocity": 106, "channel": 0}, {"type": "note_off", "time": 392, "note": 60, "velocity": 106, "channel": 0}, {"type": "note_on", "time": 0, "note": 55, "velocity": 96, "channel": 0}, {"type": "note_off", "time": 273, "note": 55, "velocity": 96, "channel": 0}, {"type": "note_on", "time": 103, "note": 62, "velocity": 115, "channel": 0}, {"type": "note_off", "time": 614, "note": 62, "velocity": 115, "channel": 0}, {"type": "note_on", "time": 255, "note": 63, "velocity": 114, "channel": 0}, {"type": "note_off", "time": 419, "note": 63, "velocity": 114, "channel": 0}, {"type": "note_on", "time": 174, "note": 65, "velocity": 112, "channel": 0}, {"type": "note_off", "time": 327, "note": 65, "velocity": 112, "channel": 0}, {"type": "note_on", "time": 194, "note": 63, "velocity": 116, "channel": 0}, {"type": "note_off", "time": 225, "note": 63, "velocity": 116, "channel": 0}, {"type": "note_on", "time": 92, "note": 65, "velocity": 113, "channel": 0}, {"type": "note_off", "time": 215, "note": 65, "velocity": 113, "channel": 0}, {"type": "note_on", "time": 282, "note": 63, "velocity": 113, "channel": 0}, {"type": "note_off", "time": 204, "note": 63, "velocity": 113, "channel": 0}, {"type": "note_on", "time": 35, "note": 62, "velocity": 114, "channel": 0}, {"type": "note_on", "time": 214, "note": 60, "velocity": 114, "channel": 0}, {"type": "note_off", "time": 0, "note": 62, "velocity": 114, "channel": 0}, {"type": "note_off", "time": 163, "note": 60, "velocity": 114, "channel": 0}, {"type": "note_on", "time": 164, "note": 59, "velocity": 103, "channel": 0}, {"type": "note_off", "time": 296, "note": 59, "velocity": 103, "channel": 0}, {"type": "note_on", "time": 122, "note": 62, "velocity": 115, "channel": 0}, {"type": "note_off", "time": 245, "note": 62, "velocity": 115, "channel": 0}, {"type": "note_on", "time": 101, "note": 65, "velocity": 109, "channel": 0}, {"type": "note_off", "time": 348, "note": 65, "velocity": 109, "channel": 0}, {"type": "note_on", "time": 144, "note": 67, "velocity": 104, "channel": 0}, {"type": "note_off", "time": 215, "note": 67, "velocity": 104, "channel": 0}, {"type": "note_on", "time": 200, "note": 67, "velocity": 106, "channel": 0}, {"type": "note_off", "time": 179, "note": 67, "velocity": 106, "channel": 0}, {"type": "note_on", "time": 15, "note": 68, "velocity": 99, "channel": 0}, {"type": "note_off", "time": 133, "note": 68, "velocity": 99, "channel": 0}, {"type": "note_on", "time": 54, "note": 67, "velocity": 108, "channel": 0}, {"type": "note_off", "time": 184, "note": 67, "velocity": 108, "channel": 0}, {"type": "note_on", "time": 92, "note": 65, "velocity": 108, "channel": 0}, {"type": "note_off", "time": 501, "note": 65, "velocity": 108, "channel": 0}, {"type": "note_on", "time": 28, "note": 62, "velocity": 95, "channel": 0}, {"type": "note_off", "time": 217, "note": 62, "velocity": 95, "channel": 0}, {"type": "note_on", "time": 102, "note": 63, "velocity": 107, "channel": 0}, {"type": "note_off", "time": 348, "note": 63, "velocity": 107, "channel": 0}, {"type": "end_of_track", "time": 0}]]}