{"ticks_per_beat": 192, "tracks": [[{"type": "track_name", "name": "Melody", "time": 0}, {"type": "set_tempo", "tempo": 327868, "time": 0}, {"type": "key_signature", "key": "C", "time": 0}, {"type": "time_signature", "numerator": 4, "denominator": 4, "clocks_per_click": 24, "notated_32nd_notes_per_beat": 8, "time": 0}, {"type": "note_on", "time": 6558, "note": 58, "velocity": 96, "channel": 0}, {"type": "note_off", "time": 73, "note": 58, "velocity": 96, "channel": 0}, {"type": "note_on", "time": 12, "note": 55, "velocity": 97, "channel": 0}, {"type": "note_off", "time": 50, "note": 55, "velocity": 97, "channel": 0}, {"type": "note_on", "time": 53, "note": 60, "velocity": 103, "channel": 0}, {"type": "note_off", "time": 127, "note": 60, "velocity": 103, "channel": 0}, {"type": "note_on", "time": 152, "note": 62, "velocity": 110, "channel": 0}, {"type": "note_off", "time": 91, "note": 62, "velocity": 110, "channel": 0}, {"type": "note_on", "time": 389, "note": 60, "velocity": 93, "channel": 0}, {"type": "note_off", "time": 89, "note": 60, "velocity": 93, "channel": 0}, {"type": "note_on", "time": 84, "note": 62, "velocity": 107, "channel": 0}, {"type": "note_off", "time": 215, "note": 62, "velocity": 107, "channel": 0}, {"type": "note_on", "time": 6, "note": 58, "velocity": 93, "channel": 0}, {"type": "note_off", "time": 115, "note": 58, "velocity": 93, "channel": 0}, {"type": "note_on", "time": 3, "note": 53, "velocity": 97, "channel": 0}, {"type": "note_off", "time": 63, "note": 53, "velocity": 97, "channel": 0}, {"type": "note_on", "time": 4, "note": 50, "velocity": 100, "channel": 0}, {"type": "note_off", "time": 78, "note": 50, "velocity": 100, "channel": 0}, {"type": "note_on", "time": 23, "note": 55, "velocity": 95, "channel": 0}, {"type": "note_off", "time": 74, "note": 55, "velocity": 95, "channel": 0}, {"type": "note_on", "time": 3, "note": 52, "velocity": 94, "channel": 0}, {"type": "note_off", "time": 106, "note": 52, "velocity": 94, "channel": 0}, {"type": "note_on", "time": 19, "note": 60, "velocity": 100, "channel": 0}, {"type": "note_off", "time": 62, "note": 60, "velocity": 100, "channel": 0}, {"type": "note_on", "time": 195, "note": 62, "velocity": 103, "channel": 0}, {"type": "note_off", "time": 105, "note": 62, "velocity": 103, "channel": 0}, {"type": "note_on", "time": 178, "note": 64, "velocity": 110, "channel": 0}, {"type": "note_off", "time": 108, "note": 64, "velocity": 110, "channel": 0}, {"type": "note_on", "time": 10, "note": 65, "velocity": 104, "channel": 0}, {"type": "note_off", "time": 163, "note": 65, "velocity": 104, "channel": 0}, {"type": "note_on", "time": 16, "note": 64, "velocity": 106, "channel": 0}, {"type": "note_off", "time": 94, "note": 64, "velocity": 106, "channel": 0}, {"type": "note_on", "time": 7, "note": 62, "velocity": 104, "channel": 0}, {"type": "note_off", "time": 96, "note": 62, "velocity": 104, "channel": 0}, {"type": "note_on", "time": 6, "note": 61, "velocity": 99, "channel": 0}, {"type": "note_off", "time": 81, "note": 61, "velocity": 99, "channel": 0}, {"type": "note_on", "time": 18, "note": 59, "velocity": 85, "channel": 0}, {"type": "note_off", "time": 59, "note": 59, "velocity": 85, "channel": 0}, {"type": "note_on", "time": 10, "note": 60, "velocity": 99, "channel": 0}, {"type": "note_off", "time": 85, "note": 60, "velocity": 99, "channel": 0}, {"type": "note_on", "time": 17, "note": 59, "velocity": 95, "channel": 0}, {"type": "note_off", "time": 76, "note": 59, "velocity": 95, "channel": 0}, {"type": "note_on", "time": 12, "note": 58, "velocity": 94, "channel": 0}, {"type": "note_off", "time": 109, "note": 58, "velocity": 94, "channel": 0}, {"type": "note_on", "time": 11, "note": 55, "velocity": 95, "channel": 0}, {"type": "note_off", "time": 57, "note": 55, "velocity": 95, "channel": 0}, {"type": "note_on", "time": 14, "note": 54, "velocity": 92, "channel": 0}, {"type": "note_off", "time": 101, "note": 54, "velocity": 92, "channel": 0}, {"type": "note_on", "time": 2, "note": 52, "velocity": 91, "channel": 0}, {"type": "note_off", "time": 73, "note": 52, "velocity": 91, "channel": 0}, {"type": "note_on", "time": 5, "note": 53, "velocity": 96, "channel": 0}, {"type": "note_off", "time": 111, "note": 53, "velocity": 96, "channel": 0}, {"type": "note_on", "time": 10, "note": 51, "velocity": 96, "channel": 0}, {"type": "note_off", "time": 100, "note": 51, "velocity": 96, "channel": 0}, {"type": "note_on", "time": 7, "note": 48, "velocity": 93, "channel": 0}, {"type": "note_off", "time": 66, "note": 48, "velocity": 93, "channel": 0}, {"type": "note_on", "time": 41, "note": 46, "velocity": 98, "channel": 0}, {"type": "note_off", "time": 56, "note": 46, "velocity": 98, "channel": 0}, {"type": "note_on", "time": 5, "note": 51, "velocity": 99, "channel": 0}, {"type": "note_off", "time": 84, "note": 51, "velocity": 99, "channel": 0}, {"type": "note_on", "time": 9, "note": 48, "velocity": 87, "channel": 0}, {"type": "note_off", "time": 47, "note": 48, "velocity": 87, "channel": 0}, {"type": "note_on", "time": 34, "note": 53, "velocity": 101, "channel": 0}, {"type": "note_off", "time": 165, "note": 53, "velocity": 101, "channel": 0}, {"type": "note_on", "time": 15, "note": 54, "velocity": 101, "channel": 0}, {"type": "note_off", "time": 89, "note": 54, "velocity": 101, "channel": 0}, {"type": "note_on", "time": 14, "note": 53, "velocity": 98, "channel": 0}, {"type": "note_off", "time": 85, "note": 53, "velocity": 98, "channel": 0}, {"type": "note_on", "time": 13, "note": 51, "velocity": 103, "channel": 0}, {"type": "note_off", "time": 76, "note": 51, "velocity": 103, "channel": 0}, {"type": "note_on", "time": 0, "note": 48, "velocity": 102, "channel": 0}, {"type": "note_off", "time": 50, "note": 48, "velocity": 102, "channel": 0}, {"type": "note_on", "time": 45, "note": 52, "velocity": 94, "channel": 0}, {"type": "note_off", "time": 66, "note": 52, "velocity": 94, "channel": 0}, {"type": "note_on", "time": 61, "note": 60, "velocity": 96, "channel": 0}, {"type": "note_off", "time": 65, "note": 60, "velocity": 96, "channel": 0}, {"type": "note_on", "time": 101, "note": 62, "velocity": 98, "channel": 0}, {"type": "note_off", "time": 67, "note": 62, "velocity": 98, "channel": 0}, {"type": "note_on", "time": 113, "note": 64, "velocity": 104, "channel": 0}, {"type": "note_off", "time": 79, "note": 64, "velocity": 104, "channel": 0}, {"type": "note_on", "time": 113, "note": 65, "velocity": 101, "channel": 0}, {"type": "note_off", "time": 68, "note": 65, "velocity": 101, "channel": 0}, {"type": "note_on", "time": 122, "note": 64, "velocity": 100, "channel": 0}, {"type": "note_off", "time": 73, "note": 64, "velocity": 100, "channel": 0}, {"type": "note_on", "time": 117, "note": 62, "velocity": 98, "channel": 0}, {"type": "note_off", "time": 72, "note": 62, "velocity": 98, "channel": 0}, {"type": "note_on", "time": 105, "note": 65, "velocity": 99, "channel": 0}, {"type": "note_off", "time": 81, "note": 65, "velocity": 99, "channel": 0}, {"type": "note_on", "time": 28, "note": 62, "velocity": 106, "channel": 0}, {"type": "note_off", "time": 81, "note": 62, "velocity": 106, "channel": 0}, {"type": "note_on", "time": 6, "note": 65, "velocity": 100, "channel": 0}, {"type": "note_off", "time": 73, "note": 65, "velocity": 100, "channel": 0}, {"type": "note_on", "time": 12, "note": 64, "velocity": 108, "channel": 0}, {"type": "note_off", "time": 78, "note": 64, "velocity": 108, "channel": 0}, {"type": "note_on", "time": 22, "note": 67, "velocity": 88, "channel": 0}, {"type": "note_off", "time": 77, "note": 67, "velocity": 88, "channel": 0}, {"type": "note_on", "time": 40, "note": 72, "velocity": 101, "channel": 0}, {"type": "note_off", "time": 159, "note": 72, "velocity": 101, "channel": 0}, {"type": "note_on", "time": 36, "note": 70, "velocity": 94, "channel": 0}, {"type": "note_off", "time": 175, "note": 70, "velocity": 94, "channel": 0}, {"type": "note_on", "time": 10, "note": 72, "velocity": 99, "channel": 0}, {"type": "note_off", "time": 77, "note": 72, "velocity": 99, "channel": 0}, {"type": "note_on", "time": 381, "note": 62, "velocity": 106, "channel": 0}, {"type": "note_off", "time": 43, "note": 62, "velocity": 106, "channel": 0}, {"type": "note_on", "time": 4, "note": 65, "velocity": 103, "channel": 0}, {"type": "note_off", "time": 42, "note": 65, "velocity": 103, "channel": 0}, {"type": "note_on", "time": 5, "note": 64, "velocity": 105, "channel": 0}, {"type": "note_off", "time": 49, "note": 64, "velocity": 105, "channel": 0}, {"type": "note_on", "time": 48, "note": 67, "velocity": 102, "channel": 0}, {"type": "note_off", "time": 59, "note": 67, "velocity": 102, "channel": 0}, {"type": "note_on", "time": 41, "note": 70, "velocity": 99, "channel": 0}, {"type": "note_off", "time": 79, "note": 70, "velocity": 99, "channel": 0}, {"type": "note_on", "time": 11, "note": 72, "velocity": 98, "channel": 0}, {"type": "note_off", "time": 71, "note": 72, "velocity": 98, "channel": 0}, {"type": "note_on", "time": 12, "note": 73, "velocity": 91, "channel": 0}, {"type": "note_off", "time": 52, "note": 73, "velocity": 91, "channel": 0}, {"type": "note_on", "time": 0, "note": 74, "velocity": 90, "channel": 0}, {"type": "note_off", "time": 23, "note": 74, "velocity": 90, "channel": 0}, {"type": "note_on", "time": 27, "note": 72, "velocity": 86, "channel": 0}, {"type": "note_off", "time": 41, "note": 72, "velocity": 86, "channel": 0}, {"type": "note_on", "time": 1, "note": 70, "velocity": 96, "channel": 0}, {"type": "note_off", "time": 62, "note": 70, "velocity": 96, "channel": 0}, {"type": "note_on", "time": 10, "note": 67, "velocity": 99, "channel": 0}, {"type": "note_off", "time": 216, "note": 67, "velocity": 99, "channel": 0}, {"type": "note_on", "time": 350, "note": 66, "velocity": 104, "channel": 0}, {"type": "note_off", "time": 75, "note": 66, "velocity": 104, "channel": 0}, {"type": "note_on", "time": 21, "note": 65, "velocity": 90, "channel": 0}, {"type": "note_off", "time": 74, "note": 65, "velocity": 90, "channel": 0}, {"type": "note_on", "time": 10, "note": 66, "velocity": 106, "channel": 0}, {"type": "note_off", "time": 69, "note": 66, "velocity": 106, "channel": 0}, {"type": "note_on", "time": 14, "note": 65, "velocity": 100, "channel": 0}, {"type": "note_off", "time": 60, "note": 65, "velocity": 100, "channel": 0}, {"type": "note_on", "time": 12, "note": 63, "velocity": 108, "channel": 0}, {"type": "note_off", "time": 113, "note": 63, "velocity": 108, "channel": 0}, {"type": "note_on", "time": 10, "note": 60, "velocity": 91, "channel": 0}, {"type": "note_off", "time": 49, "note": 60, "velocity": 91, "channel": 0}, {"type": "note_on", "time": 11, "note": 65, "velocity": 104, "channel": 0}, {"type": "note_off", "time": 116, "note": 65, "velocity": 104, "channel": 0}, {"type": "note_on", "time": 20, "note": 63, "velocity": 92, "channel": 0}, {"type": "note_off", "time": 33, "note": 63, "velocity": 92, "channel": 0}, {"type": "note_on", "time": 10, "note": 65, "velocity": 97, "channel": 0}, {"type": "note_off", "time": 77, "note": 65, "velocity": 97, "channel": 0}, {"type": "note_on", "time": 22, "note": 66, "velocity": 99, "channel": 0}, {"type": "note_off", "time": 42, "note": 66, "velocity": 99, "channel": 0}, {"type": "note_on", "time": 5, "note": 65, "velocity": 99, "channel": 0}, {"type": "note_off", "time": 33, "note": 65, "velocity": 99, "channel": 0}, {"type": "note_on", "time": 32, "note": 63, "velocity": 103, "channel": 0}, {"type": "note_off", "time": 123, "note": 63, "velocity": 103, "channel": 0}, {"type": "note_on", "time": 11, "note": 60, "velocity": 88, "channel": 0}, {"type": "note_off", "time": 43, "note": 60, "velocity": 88, "channel": 0}, {"type": "note_on", "time": 0, "note": 65, "velocity": 98, "channel": 0}, {"type": "note_off", "time": 100, "note": 65, "velocity": 98, "channel": 0}, {"type": "note_on", "time": 8, "note": 64, "velocity": 98, "channel": 0}, {"type": "note_off", "time": 101, "note": 64, "velocity": 98, "channel": 0}, {"type": "note_on", "time": 11, "note": 63, "velocity": 102, "channel": 0}, {"type": "note_off", "time": 71, "note": 63, "velocity": 102, "channel": 0}, {"type": "note_on", "time": 19, "note": 61, "velocity": 101, "channel": 0}, {"type": "note_off", "time": 22, "note": 61, "velocity": 101, "channel": 0}, {"type": "note_on", "time": 0, "note": 60, "velocity": 96, "channel": 0}, {"type": "note_off", "time": 54, "note": 60, "velocity": 96, "channel": 0}, {"type": "note_on", "time": 0, "note": 58, "velocity": 93, "channel": 0}, {"type": "note_off", "time": 65, "note": 58, "velocity": 93, "channel": 0}, {"type": "note_on", "time": 18, "note": 54, "velocity": 95, "channel": 0}, {"type": "note_off", "time": 113, "note": 54, "velocity": 95, "channel": 0}, {"type": "note_on", "time": 11, "note": 53, "velocity": 95, "channel": 0}, {"type": "note_off", "time": 79, "note": 53, "velocity": 95, "channel": 0}, {"type": "note_on", "time": 12, "note": 51, "velocity": 97, "channel": 0}, {"type": "note_off", "time": 67, "note": 51, "velocity": 97, "channel": 0}, {"type": "note_on", "time": 3, "note": 53, "velocity": 102, "channel": 0}, {"type": "note_off", "time": 118, "note": 53, "velocity": 102, "channel": 0}, {"type": "note_on", "time": 5, "note": 51, "velocity": 96, "channel": 0}, {"type": "note_off", "time": 52, "note": 51, "velocity": 96, "channel": 0}, {"type": "note_on", "time": 4, "note": 53, "velocity": 98, "channel": 0}, {"type": "note_off", "time": 112, "note": 53, "velocity": 98, "channel": 0}, {"type": "note_on", "time": 20, "note": 51, "velocity": 97, "channel": 0}, {"type": "note_off", "time": 64, "note": 51, "velocity": 97, "channel": 0}, {"type": "note_on", "time": 16, "note": 52, "velocity": 93, "channel": 0}, {"type": "note_off", "time": 71, "note": 52, "velocity": 93, "channel": 0}, {"type": "note_on", "time": 34, "note": 60, "velocity": 98, "channel": 0}, {"type": "note_off", "time": 50, "note": 60, "velocity": 98, "channel": 0}, {"type": "note_on", "time": 89, "note": 62, "velocity": 107, "channel": 0}, {"type": "note_off", "time": 44, "note": 62, "velocity": 107, "channel": 0}, {"type": "note_on", "time": 86, "note": 64, "velocity": 104, "channel": 0}, {"type": "note_off", "time": 168, "note": 64, "velocity": 104, "channel": 0}, {"type": "note_on", "time": 8, "note": 62, "velocity": 99, "channel": 0}, {"type": "note_off", "time": 89, "note": 62, "velocity": 99, "channel": 0}, {"type": "note_on", "time": 24, "note": 60, "velocity": 86, "channel": 0}, {"type": "note_off", "time": 70, "note": 60, "velocity": 86, "channel": 0}, {"type": "note_on", "time": 10, "note": 62, "velocity": 102, "channel": 0}, {"type": "note_off", "time": 81, "note": 62, "velocity": 102, "channel": 0}, {"type": "note_on", "time": 30, "note": 64, "velocity": 101, "channel": 0}, {"type": "note_off", "time": 62, "note": 64, "velocity": 101, "channel": 0}, {"type": "note_on", "time": 20, "note": 60, "velocity": 95, "channel": 0}, {"type": "note_off", "time": 124, "note": 60, "velocity": 95, "channel": 0}, {"type": "time_signature", "numerator": 3, "denominator": 4, "clocks_per_click": 24, "notated_32nd_notes_per_beat": 8, "time": 420}, {"type": "note_on", "time": 0, "note": 69, "velocity": 97, "channel": 0}, {"type": "note_off", "time": 168, "note": 69, "velocity": 97, "channel": 0}, {"type": "note_on", "time": 7, "note": 65, "velocity": 85, "channel": 0}, {"type": "note_off", "time": 87, "note": 65, "velocity": 85, "channel": 0}, {"type": "note_on", "time": 22, "note": 70, "velocity": 98, "channel": 0}, {"type": "note_off", "time": 169, "note": 70, "velocity": 98, "channel": 0}, {"type": "note_on", "time": 10, "note": 65, "velocity": 84, "channel": 0}, {"type": "note_off", "time": 126, "note": 65, "velocity": 84, "channel": 0}, {"type": "note_on", "time": 1, "note": 67, "velocity": 101, "channel": 0}, {"type": "note_off", "time": 70, "note": 67, "velocity": 101, "channel": 0}, {"type": "note_on", "time": 19, "note": 67, "velocity": 99, "channel": 0}, {"type": "note_off", "time": 74, "note": 67, "velocity": 99, "channel": 0}, {"type": "note_on", "time": 9, "note": 63, "velocity": 97, "channel": 0}, {"type": "note_off", "time": 70, "note": 63, "velocity": 97, "channel": 0}, {"type": "note_on", "time": 33, "note": 67, "velocity": 99, "channel": 0}, {"type": "note_off", "time": 44, "note": 67, "velocity": 99, "channel": 0}, {"type": "note_on", "time": 11, "note": 69, "velocity": 103, "channel": 0}, {"type": "note_off", "time": 70, "note": 69, "velocity": 103, "channel": 0}, {"type": "note_on", "time": 6, "note": 67, "velocity": 88, "channel": 0}, {"type": "note_off", "time": 43, "note": 67, "velocity": 88, "channel": 0}, {"type": "note_on", "time": 199, "note": 65, "velocity": 99, "channel": 0}, {"type": "note_off", "time": 88, "note": 65, "velocity": 99, "channel": 0}, {"type": "note_on", "time": 15, "note": 61, "velocity": 94, "channel": 0}, {"type": "note_off", "time": 76, "note": 61, "velocity": 94, "channel": 0}, {"type": "note_on", "time": 22, "note": 67, "velocity": 101, "channel": 0}, {"type": "note_off", "time": 106, "note": 67, "velocity": 101, "channel": 0}, {"type": "note_on", "time": 81, "note": 63, "velocity": 94, "channel": 0}, {"type": "note_off", "time": 60, "note": 63, "velocity": 94, "channel": 0}, {"type": "note_on", "time": 66, "note": 69, "velocity": 101, "channel": 0}, {"type": "note_off", "time": 135, "note": 69, "velocity": 101, "channel": 0}, {"type": "note_on", "time": 26, "note": 65, "velocity": 91, "channel": 0}, {"type": "note_off", "time": 41, "note": 65, "velocity": 91, "channel": 0}, {"type": "note_on", "time": 62, "note": 71, "velocity": 99, "channel": 0}, {"type": "note_off", "time": 127, "note": 71, "velocity": 99, "channel": 0}, {"type": "time_signature", "numerator": 4, "denominator": 4, "clocks_per_click": 24, "notated_32nd_notes_per_beat": 8, "time": 144}, {"type": "note_on", "time": 0, "note": 71, "velocity": 90, "channel": 0}, {"type": "note_off", "time": 20, "note": 71, "velocity": 90, "channel": 0}, {"type": "note_on", "time": 8, "note": 72, "velocity": 97, "channel": 0}, {"type": "note_off", "time": 446, "note": 72, "velocity": 97, "channel": 0}, {"type": "note_on", "time": 9, "note": 71, "velocity": 104, "channel": 0}, {"type": "note_off", "time": 75, "note": 71, "velocity": 104, "channel": 0}, {"type": "note_on", "time": 3, "note": 72, "velocity": 100, "channel": 0}, {"type": "note_off", "time": 88, "note": 72, "velocity": 100, "channel": 0}, {"type": "note_on", "time": 14, "note": 71, "velocity": 99, "channel": 0}, {"type": "note_off", "time": 77, "note": 71, "velocity": 99, "channel": 0}, {"type": "note_on", "time": 23, "note": 70, "velocity": 100, "channel": 0}, {"type": "note_off", "time": 107, "note": 70, "velocity": 100, "channel": 0}, {"type": "note_on", "time": 10, "note": 70, "velocity": 104, "channel": 0}, {"type": "note_off", "time": 71, "note": 70, "velocity": 104, "channel": 0}, {"type": "note_on", "time": 5, "note": 72, "velocity": 100, "channel": 0}, {"type": "note_off", "time": 66, "note": 72, "velocity": 100, "channel": 0}, {"type": "note_on", "time": 17, "note": 70, "velocity": 96, "channel": 0}, {"type": "note_off", "time": 52, "note": 70, "velocity": 96, "channel": 0}, {"type": "note_on", "time": 50, "note": 69, "velocity": 101, "channel": 0}, {"type": "note_off", "time": 70, "note": 69, "velocity": 101, "channel": 0}, {"type": "note_on", "time": 5, "note": 71, "velocity": 95, "channel": 0}, {"type": "note_off", "time": 63, "note": 71, "velocity": 95, "channel": 0}, {"type": "note_on", "time": 5, "note": 72, "velocity": 99, "channel": 0}, {"type": "note_off", "time": 41, "note": 72, "velocity": 99, "channel": 0}, {"type": "note_on", "time": 3, "note": 73, "velocity": 93, "channel": 0}, {"type": "note_off", "time": 33, "note": 73, "velocity": 93, "channel": 0}, {"type": "note_on", "time": 8, "note": 74, "velocity": 92, "channel": 0}, {"type": "note_off", "time": 45, "note": 74, "velocity": 92, "channel": 0}, {"type": "note_on", "time": 7, "note": 72, "velocity": 95, "channel": 0}, {"type": "note_off", "time": 32, "note": 72, "velocity": 95, "channel": 0}, {"type": "note_on", "time": 7, "note": 71, "velocity": 95, "channel": 0}, {"type": "note_off", "time": 44, "note": 71, "velocity": 95, "channel": 0}, {"type": "note_on", "time": 11, "note": 70, "velocity": 95, "channel": 0}, {"type": "note_off", "time": 77, "note": 70, "velocity": 95, "channel": 0}, {"type": "note_on", "time": 32, "note": 67, "velocity": 97, "channel": 0}, {"type": "note_off", "time": 94, "note": 67, "velocity": 97, "channel": 0}, {"type": "note_on", "time": 28, "note": 62, "velocity": 103, "channel": 0}, {"type": "note_off", "time": 76, "note": 62, "velocity": 103, "channel": 0}, {"type": "note_on", "time": 10, "note": 67, "velocity": 100, "channel": 0}, {"type": "note_off", "time": 65, "note": 67, "velocity": 100, "channel": 0}, {"type": "note_on", "time": 11, "note": 66, "velocity": 98, "channel": 0}, {"type": "note_off", "time": 83, "note": 66, "velocity": 98, "channel": 0}, {"type": "note_on", "time": 23, "note": 62, "velocity": 102, "channel": 0}, {"type": "note_off", "time": 84, "note": 62, "velocity": 102, "channel": 0}, {"type": "note_on", "time": 4, "note": 58, "velocity": 92, "channel": 0}, {"type": "note_off", "time": 65, "note": 58, "velocity": 92, "channel": 0}, {"type": "note_on", "time": 30, "note": 55, "velocity": 91, "channel": 0}, {"type": "note_off", "time": 59, "note": 55, "velocity": 91, "channel": 0}, {"type": "note_on", "time": 14, "note": 64, "velocity": 107, "channel": 0}, {"type": "note_off", "time": 99, "note": 64, "velocity": 107, "channel": 0}, {"type": "note_on", "time": 4, "note": 67, "velocity": 98, "channel": 0}, {"type": "note_off", "time": 83, "note": 67, "velocity": 98, "channel": 0}, {"type": "note_on", "time": 11, "note": 64, "velocity": 102, "channel": 0}, {"type": "note_off", "time": 81, "note": 64, "velocity": 102, "channel": 0}, {"type": "note_on", "time": 7, "note": 67, "velocity": 95, "channel": 0}, {"type": "note_off", "time": 66, "note": 67, "velocity": 95, "channel": 0}, {"type": "note_on", "time": 17, "note": 65, "velocity": 97, "channel": 0}, {"type": "note_off", "time": 90, "note": 65, "velocity": 97, "channel": 0}, {"type": "note_on", "time": 11, "note": 64, "velocity": 105, "channel": 0}, {"type": "note_off", "time": 75, "note": 64, "velocity": 105, "channel": 0}, {"type": "note_on", "time": 8, "note": 63, "velocity": 101, "channel": 0}, {"type": "note_off", "time": 96, "note": 63, "velocity": 101, "channel": 0}, {"type": "note_on", "time": 0, "note": 60, "velocity": 92, "channel": 0}, {"type": "note_off", "time": 85, "note": 60, "velocity": 92, "channel": 0}, {"type": "note_on", "time": 8, "note": 58, "velocity": 90, "channel": 0}, {"type": "note_off", "time": 80, "note": 58, "velocity": 90, "channel": 0}, {"type": "note_on", "time": 20, "note": 54, "velocity": 96, "channel": 0}, {"type": "note_off", "time": 153, "note": 54, "velocity": 96, "channel": 0}, {"type": "note_on", "time": 547, "note": 54, "velocity": 95, "channel": 0}, {"type": "note_off", "time": 69, "note": 54, "velocity": 95, "channel": 0}, {"type": "note_on", "time": 7, "note": 58, "velocity": 95, "channel": 0}, {"type": "note_off", "time": 43, "note": 58, "velocity": 95, "channel": 0}, {"type": "note_on", "time": 5, "note": 62, "velocity": 96, "channel": 0}, {"type": "note_off", "time": 41, "note": 62, "velocity": 96, "channel": 0}, {"type": "note_on", "time": 10, "note": 65, "velocity": 101, "channel": 0}, {"type": "note_off", "time": 55, "note": 65, "velocity": 101, "channel": 0}, {"type": "note_on", "time": 2, "note": 62, "velocity": 103, "channel": 0}, {"type": "note_off", "time": 31, "note": 62, "velocity": 103, "channel": 0}, {"type": "note_on", "time": 6, "note": 63, "velocity": 102, "channel": 0}, {"type": "note_off", "time": 34, "note": 63, "velocity": 102, "channel": 0}, {"type": "note_on", "time": 4, "note": 65, "velocity": 97, "channel": 0}, {"type": "note_off", "time": 26, "note": 65, "velocity": 97, "channel": 0}, {"type": "note_on", "time": 5, "note": 68, "velocity": 109, "channel": 0}, {"type": "note_off", "time": 37, "note": 68, "velocity": 109, "channel": 0}, {"type": "note_on", "time": 10, "note": 67, "velocity": 100, "channel": 0}, {"type": "note_off", "time": 41, "note": 67, "velocity": 100, "channel": 0}, {"type": "note_on", "time": 5, "note": 66, "velocity": 103, "channel": 0}, {"type": "note_off", "time": 50, "note": 66, "velocity": 103, "channel": 0}, {"type": "note_on", "time": 7, "note": 62, "velocity": 98, "channel": 0}, {"type": "note_off", "time": 36, "note": 62, "velocity": 98, "channel": 0}, {"type": "note_on", "time": 0, "note": 65, "velocity": 102, "channel": 0}, {"type": "note_off", "time": 32, "note": 65, "velocity": 102, "channel": 0}, {"type": "note_on", "time": 14, "note": 64, "velocity": 103, "channel": 0}, {"type": "note_off", "time": 44, "note": 64, "velocity": 103, "channel": 0}, {"type": "note_on", "time": 7, "note": 63, "velocity": 104, "channel": 0}, {"type": "note_off", "time": 25, "note": 63, "velocity": 104, "channel": 0}, {"type": "note_on", "time": 5, "note": 67, "velocity": 96, "channel": 0}, {"type": "note_off", "time": 60, "note": 67, "velocity": 96, "channel": 0}, {"type": "note_on", "time": 7, "note": 62, "velocity": 99, "channel": 0}, {"type": "note_off", "time": 40, "note": 62, "velocity": 99, "channel": 0}, {"type": "note_on", "time": 8, "note": 64, "velocity": 102, "channel": 0}, {"type": "note_off", "time": 35, "note": 64, "velocity": 102, "channel": 0}, {"type": "note_on", "time": 7, "note": 65, "velocity": 99, "channel": 0}, {"type": "note_off", "time": 48, "note": 65, "velocity": 99, "channel": 0}, {"type": "note_on", "time": 7, "note": 62, "velocity": 92, "channel": 0}, {"type": "note_off", "time": 29, "note": 62, "velocity": 92, "channel": 0}, {"type": "note_on", "time": 3, "note": 64, "velocity": 106, "channel": 0}, {"type": "note_off", "time": 48, "note": 64, "velocity": 106, "channel": 0}, {"type": "note_on", "time": 15, "note": 62, "velocity": 103, "channel": 0}, {"type": "note_off", "time": 32, "note": 62, "velocity": 103, "channel": 0}, {"type": "note_on", "time": 8, "note": 61, "velocity": 93, "channel": 0}, {"type": "note_off", "time": 44, "note": 61, "velocity": 93, "channel": 0}, {"type": "note_on", "time": 4, "note": 62, "velocity": 85, "channel": 0}, {"type": "note_off", "time": 32, "note": 62, "velocity": 85, "channel": 0}, {"type": "note_on", "time": 9, "note": 65, "velocity": 104, "channel": 0}, {"type": "note_off", "time": 47, "note": 65, "velocity": 104, "channel": 0}, {"type": "note_on", "time": 5, "note": 62, "velocity": 103, "channel": 0}, {"type": "note_off", "time": 51, "note": 62, "velocity": 103, "channel": 0}, {"type": "note_on", "time": 4, "note": 58, "velocity": 97, "channel": 0}, {"type": "note_off", "time": 30, "note": 58, "velocity": 97, "channel": 0}, {"type": "note_on", "time": 23, "note": 55, "velocity": 93, "channel": 0}, {"type": "note_off", "time": 32, "note": 55, "velocity": 93, "channel": 0}, {"type": "note_on", "time": 14, "note": 57, "velocity": 98, "channel": 0}, {"type": "note_off", "time": 45, "note": 57, "velocity": 98, "channel": 0}, {"type": "note_on", "time": 6, "note": 55, "velocity": 102, "channel": 0}, {"type": "note_off", "time": 30, "note": 55, "velocity": 102, "channel": 0}, {"type": "note_on", "time": 6, "note": 54, "velocity": 98, "channel": 0}, {"type": "note_off", "time": 40, "note": 54, "velocity": 98, "channel": 0}, {"type": "note_on", "time": 21, "note": 57, "velocity": 91, "channel": 0}, {"type": "note_off", "time": 27, "note": 57, "velocity": 91, "channel": 0}, {"type": "note_on", "time": 4, "note": 60, "velocity": 99, "channel": 0}, {"type": "note_off", "time": 40, "note": 60, "velocity": 99, "channel": 0}, {"type": "note_on", "time": 9, "note": 57, "velocity": 96, "channel": 0}, {"type": "note_off", "time": 44, "note": 57, "velocity": 96, "channel": 0}, {"type": "note_on", "time": 8, "note": 58, "velocity": 100, "channel": 0}, {"type": "note_off", "time": 41, "note": 58, "velocity": 100, "channel": 0}, {"type": "note_on", "time": 8, "note": 60, "velocity": 98, "channel": 0}, {"type": "note_off", "time": 25, "note": 60, "velocity": 98, "channel": 0}, {"type": "note_on", "time": 7, "note": 61, "velocity": 97, "channel": 0}, {"type": "note_off", "time": 25, "note": 61, "velocity": 97, "channel": 0}, {"type": "note_on", "time": 8, "note": 65, "velocity": 85, "channel": 0}, {"type": "note_off", "time": 48, "note": 65, "velocity": 85, "channel": 0}, {"type": "note_on", "time": 10, "note": 69, "velocity": 102, "channel": 0}, {"type": "note_off", "time": 37, "note": 69, "velocity": 102, "channel": 0}, {"type": "note_on", "time": 10, "note": 67, "velocity": 95, "channel": 0}, {"type": "note_off", "time": 43, "note": 67, "velocity": 95, "channel": 0}, {"type": "note_on", "time": 2, "note": 65, "velocity": 100, "channel": 0}, {"type": "note_off", "time": 57, "note": 65, "velocity": 100, "channel": 0}, {"type": "note_on", "time": 5, "note": 62, "velocity": 96, "channel": 0}, {"type": "note_off", "time": 26, "note": 62, "velocity": 96, "channel": 0}, {"type": "note_on", "time": 2, "note": 58, "velocity": 90, "channel": 0}, {"type": "note_off", "time": 62, "note": 58, "velocity": 90, "channel": 0}, {"type": "note_on", "time": 7, "note": 55, "velocity": 105, "channel": 0}, {"type": "note_off", "time": 21, "note": 55, "velocity": 105, "channel": 0}, {"type": "note_on", "time": 7, "note": 64, "velocity": 105, "channel": 0}, {"type": "note_off", "time": 48, "note": 64, "velocity": 105, "channel": 0}, {"type": "note_on", "time": 10, "note": 62, "velocity": 107, "channel": 0}, {"type": "note_off", "time": 63, "note": 62, "velocity": 107, "channel": 0}, {"type": "note_on", "time": 6, "note": 59, "velocity": 92, "channel": 0}, {"type": "note_off", "time": 35, "note": 59, "velocity": 92, "channel": 0}, {"type": "note_on", "time": 6, "note": 58, "velocity": 106, "channel": 0}, {"type": "note_off", "time": 57, "note": 58, "velocity": 106, "channel": 0}, {"type": "note_on", "time": 2, "note": 60, "velocity": 104, "channel": 0}, {"type": "note_off", "time": 28, "note": 60, "velocity": 104, "channel": 0}, {"type": "note_on", "time": 3, "note": 62, "velocity": 103, "channel": 0}, {"type": "note_off", "time": 30, "note": 62, "velocity": 103, "channel": 0}, {"type": "note_on", "time": 9, "note": 64, "velocity": 102, "channel": 0}, {"type": "note_off", "time": 38, "note": 64, "velocity": 102, "channel": 0}, {"type": "note_on", "time": 7, "note": 67, "velocity": 102, "channel": 0}, {"type": "note_off", "time": 30, "note": 67, "velocity": 102, "channel": 0}, {"type": "note_on", "time": 6, "note": 69, "velocity": 105, "channel": 0}, {"type": "note_off", "time": 28, "note": 69, "velocity": 105, "channel": 0}, {"type": "note_on", "time": 9, "note": 70, "velocity": 102, "channel": 0}, {"type": "note_off", "time": 26, "note": 70, "velocity": 102, "channel": 0}, {"type": "note_on", "time": 7, "note": 72, "velocity": 102, "channel": 0}, {"type": "note_off", "time": 207, "note": 72, "velocity": 102, "channel": 0}, {"type": "note_on", "time": 7, "note": 72, "velocity": 104, "channel": 0}, {"type": "note_off", "time": 64, "note": 72, "velocity": 104, "channel": 0}, {"type": "note_on", "time": 4, "note": 70, "velocity": 96, "channel": 0}, {"type": "note_off", "time": 71, "note": 70, "velocity": 96, "channel": 0}, {"type": "note_on", "time": 4, "note": 72, "velocity": 100, "channel": 0}, {"type": "note_off", "time": 44, "note": 72, "velocity": 100, "channel": 0}, {"type": "note_on", "time": 6, "note": 72, "velocity": 103, "channel": 0}, {"type": "note_off", "time": 39, "note": 72, "velocity": 103, "channel": 0}, {"type": "note_on", "time": 5, "note": 69, "velocity": 99, "channel": 0}, {"type": "note_off", "time": 57, "note": 69, "velocity": 99, "channel": 0}, {"type": "note_on", "time": 10, "note": 72, "velocity": 98, "channel": 0}, {"type": "note_off", "time": 43, "note": 72, "velocity": 98, "channel": 0}, {"type": "note_on", "time": 13, "note": 72, "velocity": 101, "channel": 0}, {"type": "note_off", "time": 28, "note": 72, "velocity": 101, "channel": 0}, {"type": "note_on", "time": 26, "note": 67, "velocity": 93, "channel": 0}, {"type": "note_off", "time": 49, "note": 67, "velocity": 93, "channel": 0}, {"type": "note_on", "time": 9, "note": 72, "velocity": 97, "channel": 0}, {"type": "note_off", "time": 22, "note": 72, "velocity": 97, "channel": 0}, {"type": "note_on", "time": 25, "note": 72, "velocity": 102, "channel": 0}, {"type": "note_off", "time": 22, "note": 72, "velocity": 102, "channel": 0}, {"type": "note_on", "time": 1, "note": 69, "velocity": 98, "channel": 0}, {"type": "note_off", "time": 35, "note": 69, "velocity": 98, "channel": 0}, {"type": "note_on", "time": 2, "note": 72, "velocity": 97, "channel": 0}, {"type": "note_off", "time": 78, "note": 72, "velocity": 97, "channel": 0}, {"type": "note_on", "time": 354, "note": 72, "velocity": 86, "channel": 0}, {"type": "note_off", "time": 66, "note": 72, "velocity": 86, "channel": 0}, {"type": "note_on", "time": 7, "note": 72, "velocity": 99, "channel": 0}, {"type": "note_off", "time": 57, "note": 72, "velocity": 99, "channel": 0}, {"type": "note_on", "time": 13, "note": 72, "velocity": 105, "channel": 0}, {"type": "note_off", "time": 42, "note": 72, "velocity": 105, "channel": 0}, {"type": "note_on", "time": 2, "note": 70, "velocity": 102, "channel": 0}, {"type": "note_off", "time": 74, "note": 70, "velocity": 102, "channel": 0}, {"type": "note_on", "time": 7, "note": 72, "velocity": 101, "channel": 0}, {"type": "note_off", "time": 79, "note": 72, "velocity": 101, "channel": 0}, {"type": "note_on", "time": 4, "note": 74, "velocity": 85, "channel": 0}, {"type": "note_off", "time": 19, "note": 74, "velocity": 85, "channel": 0}, {"type": "note_on", "time": 5, "note": 69, "velocity": 100, "channel": 0}, {"type": "note_off", "time": 112, "note": 69, "velocity": 100, "channel": 0}, {"type": "note_on", "time": 11, "note": 72, "velocity": 99, "channel": 0}, {"type": "note_off", "time": 30, "note": 72, "velocity": 99, "channel": 0}, {"type": "note_on", "time": 4, "note": 72, "velocity": 102, "channel": 0}, {"type": "note_off", "time": 38, "note": 72, "velocity": 102, "channel": 0}, {"type": "note_on", "time": 4, "note": 73, "velocity": 90, "channel": 0}, {"type": "note_off", "time": 46, "note": 73, "velocity": 90, "channel": 0}, {"type": "note_on", "time": 8, "note": 67, "velocity": 95, "channel": 0}, {"type": "note_off", "time": 62, "note": 67, "velocity": 95, "channel": 0}, {"type": "note_on", "time": 11, "note": 72, "velocity": 101, "channel": 0}, {"type": "note_off", "time": 32, "note": 72, "velocity": 101, "channel": 0}, {"type": "note_on", "time": 3, "note": 72, "velocity": 101, "channel": 0}, {"type": "note_off", "time": 33, "note": 72, "velocity": 101, "channel": 0}, {"type": "note_on", "time": 0, "note": 69, "velocity": 102, "channel": 0}, {"type": "note_off", "time": 68, "note": 69, "velocity": 102, "channel": 0}, {"type": "note_on", "time": 4, "note": 72, "velocity": 98, "channel": 0}, {"type": "note_off", "time": 51, "note": 72, "velocity": 98, "channel": 0}, {"type": "note_on", "time": 6, "note": 72, "velocity": 94, "channel": 0}, {"type": "note_off", "time": 42, "note": 72, "velocity": 94, "channel": 0}, {"type": "note_on", "time": 5, "note": 70, "velocity": 99, "channel": 0}, {"type": "note_off", "time": 79, "note": 70, "velocity": 99, "channel": 0}, {"type": "note_on", "time": 5, "note": 72, "velocity": 96, "channel": 0}, {"type": "note_off", "time": 71, "note": 72, "velocity": 96, "channel": 0}, {"type": "note_on", "time": 5, "note": 72, "velocity": 96, "channel": 0}, {"type": "note_off", "time": 50, "note": 72, "velocity": 96, "channel": 0}, {"type": "note_on", "time": 7, "note": 69, "velocity": 102, "channel": 0}, {"type": "note_off", "time": 40, "note": 69, "velocity": 102, "channel": 0}, {"type": "note_on", "time": 10, "note": 72, "velocity": 100, "channel": 0}, {"type": "note_off", "time": 39, "note": 72, "velocity": 100, "channel": 0}, {"type": "note_on", "time": 8, "note": 72, "velocity": 101, "channel": 0}, {"type": "note_off", "time": 55, "note": 72, "velocity": 101, "channel": 0}, {"type": "note_on", "time": 27, "note": 67, "velocity": 99, "channel": 0}, {"type": "note_off", "time": 83, "note": 67, "velocity": 99, "channel": 0}, {"type": "note_on", "time": 7, "note": 72, "velocity": 99, "channel": 0}, {"type": "note_off", "time": 25, "note": 72, "velocity": 99, "channel": 0}, {"type": "note_on", "time": 5, "note": 72, "velocity": 103, "channel": 0}, {"type": "note_off", "time": 33, "note": 72, "velocity": 103, "channel": 0}, {"type": "note_on", "time": 7, "note": 68, "velocity": 105, "channel": 0}, {"type": "note_off", "time": 91, "note": 68, "velocity": 105, "channel": 0}, {"type": "note_on", "time": 13, "note": 72, "velocity": 93, "channel": 0}, {"type": "note_off", "time": 40, "note": 72, "velocity": 93, "channel": 0}, {"type": "note_on", "time": 11, "note": 72, "velocity": 100, "channel": 0}, {"type": "note_off", "time": 44, "note": 72, "velocity": 100, "channel": 0}, {"type": "note_on", "time": 6, "note": 70, "velocity": 99, "channel": 0}, {"type": "note_off", "time": 71, "note": 70, "velocity": 99, "channel": 0}, {"type": "note_on", "time": 7, "note": 72, "velocity": 101, "channel": 0}, {"type": "note_off", "time": 36, "note": 72, "velocity": 101, "channel": 0}, {"type": "note_on", "time": 10, "note": 72, "velocity": 98, "channel": 0}, {"type": "note_off", "time": 50, "note": 72, "velocity": 98, "channel": 0}, {"type": "note_on", "time": 20, "note": 68, "velocity": 102, "channel": 0}, {"type": "note_off", "time": 97, "note": 68, "velocity": 102, "channel": 0}, {"type": "note_on", "time": 7, "note": 72, "velocity": 96, "channel": 0}, {"type": "note_off", "time": 46, "note": 72, "velocity": 96, "channel": 0}, {"type": "note_on", "time": 7, "note": 72, "velocity": 96, "channel": 0}, {"type": "note_off", "time": 41, "note": 72, "velocity": 96, "channel": 0}, {"type": "note_on", "time": 7, "note": 63, "velocity": 106, "channel": 0}, {"type": "note_off", "time": 58, "note": 63, "velocity": 106, "channel": 0}, {"type": "note_on", "time": 13, "note": 72, "velocity": 96, "channel": 0}, {"type": "note_off", "time": 36, "note": 72, "velocity": 96, "channel": 0}, {"type": "note_on", "time": 6, "note": 72, "velocity": 99, "channel": 0}, {"type": "note_off", "time": 62, "note": 72, "velocity": 99, "channel": 0}, {"type": "note_on", "time": 20, "note": 61, "velocity": 101, "channel": 0}, {"type": "note_off", "time": 18, "note": 61, "velocity": 101, "channel": 0}, {"type": "note_on", "time": 3, "note": 62, "velocity": 105, "channel": 0}, {"type": "note_off", "time": 26, "note": 62, "velocity": 105, "channel": 0}, {"type": "note_on", "time": 8, "note": 72, "velocity": 87, "channel": 0}, {"type": "note_off", "time": 47, "note": 72, "velocity": 87, "channel": 0}, {"type": "note_on", "time": 8, "note": 72, "velocity": 87, "channel": 0}, {"type": "note_off", "time": 35, "note": 72, "velocity": 87, "channel": 0}, {"type": "note_on", "time": 6, "note": 61, "velocity": 96, "channel": 0}, {"type": "note_off", "time": 93, "note": 61, "velocity": 96, "channel": 0}, {"type": "note_on", "time": 9, "note": 72, "velocity": 84, "channel": 0}, {"type": "note_off", "time": 41, "note": 72, "velocity": 84, "channel": 0}, {"type": "note_on", "time": 10, "note": 72, "velocity": 95, "channel": 0}, {"type": "note_off", "time": 35, "note": 72, "velocity": 95, "channel": 0}, {"type": "note_on", "time": 7, "note": 68, "velocity": 101, "channel": 0}, {"type": "note_off", "time": 77, "note": 68, "velocity": 101, "channel": 0}, {"type": "note_on", "time": 9, "note": 72, "velocity": 91, "channel": 0}, {"type": "note_off", "time": 49, "note": 72, "velocity": 91, "channel": 0}, {"type": "note_on", "time": 8, "note": 72, "velocity": 95, "channel": 0}, {"type": "note_off", "time": 39, "note": 72, "velocity": 95, "channel": 0}, {"type": "note_on", "time": 7, "note": 70, "velocity": 95, "channel": 0}, {"type": "note_off", "time": 87, "note": 70, "velocity": 95, "channel": 0}, {"type": "note_on", "time": 7, "note": 72, "velocity": 95, "channel": 0}, {"type": "note_off", "time": 57, "note": 72, "velocity": 95, "channel": 0}, {"type": "note_on", "time": 5, "note": 72, "velocity": 96, "channel": 0}, {"type": "note_off", "time": 43, "note": 72, "velocity": 96, "channel": 0}, {"type": "note_on", "time": 5, "note": 68, "velocity": 98, "channel": 0}, {"type": "note_off", "time": 20, "note": 68, "velocity": 98, "channel": 0}, {"type": "note_on", "time": 10, "note": 69, "velocity": 96, "channel": 0}, {"type": "note_off", "time": 50, "note": 69, "velocity": 96, "channel": 0}, {"type": "note_on", "time": 4, "note": 72, "velocity": 92, "channel": 0}, {"type": "note_off", "time": 56, "note": 72, "velocity": 92, "channel": 0}, {"type": "note_on", "time": 37, "note": 67, "velocity": 99, "channel": 0}, {"type": "note_off", "time": 155, "note": 67, "velocity": 99, "channel": 0}, {"type": "note_on", "time": 245, "note": 69, "velocity": 98, "channel": 0}, {"type": "note_off", "time": 74, "note": 69, "velocity": 98, "channel": 0}, {"type": "note_on", "time": 5, "note": 72, "velocity": 96, "channel": 0}, {"type": "note_off", "time": 90, "note": 72, "velocity": 96, "channel": 0}, {"type": "note_on", "time": 2, "note": 76, "velocity": 110, "channel": 0}, {"type": "note_off", "time": 62, "note": 76, "velocity": 110, "channel": 0}, {"type": "note_on", "time": 7, "note": 77, "velocity": 93, "channel": 0}, {"type": "note_off", "time": 678, "note": 77, "velocity": 93, "channel": 0}, {"type": "note_on", "time": 20, "note": 76, "velocity": 102, "channel": 0}, {"type": "note_off", "time": 149, "note": 76, "velocity": 102, "channel": 0}, {"type": "note_on", "time": 32, "note": 76, "velocity": 101, "channel": 0}, {"type": "note_off", "time": 107, "note": 76, "velocity": 101, "channel": 0}, {"type": "note_on", "time": 15, "note": 72, "velocity": 93, "channel": 0}, {"type": "note_off", "time": 84, "note": 72, "velocity": 93, "channel": 0}, {"type": "note_on", "time": 7, "note": 69, "velocity": 100, "channel": 0}, {"type": "note_off", "time": 108, "note": 69, "velocity": 100, "channel": 0}, {"type": "note_on", "time": 88, "note": 77, "velocity": 85, "channel": 0}, {"type": "note_off", "time": 20, "note": 77, "velocity": 85, "channel": 0}, {"type": "note_on", "time": 7, "note": 79, "velocity": 103, "channel": 0}, {"type": "note_off", "time": 58, "note": 79, "velocity": 103, "channel": 0}, {"type": "note_on", "time": 10, "note": 82, "velocity": 107, "channel": 0}, {"type": "note_off", "time": 16, "note": 82, "velocity": 107, "channel": 0}, {"type": "note_on", "time": 9, "note": 81, "velocity": 92, "channel": 0}, {"type": "note_off", "time": 252, "note": 81, "velocity": 92, "channel": 0}, {"type": "note_on", "time": 4, "note": 79, "velocity": 105, "channel": 0}, {"type": "note_off", "time": 83, "note": 79, "velocity": 105, "channel": 0}, {"type": "note_on", "time": 13, "note": 79, "velocity": 104, "channel": 0}, {"type": "note_off", "time": 95, "note": 79, "velocity": 104, "channel": 0}, {"type": "note_on", "time": 11, "note": 79, "velocity": 103, "channel": 0}, {"type": "note_off", "time": 114, "note": 79, "velocity": 103, "channel": 0}, {"type": "note_on", "time": 239, "note": 75, "velocity": 105, "channel": 0}, {"type": "note_off", "time": 32, "note": 75, "velocity": 105, "channel": 0}, {"type": "note_on", "time": 1, "note": 76, "velocity": 102, "channel": 0}, {"type": "note_off", "time": 95, "note": 76, "velocity": 102, "channel": 0}, {"type": "note_on", "time": 10, "note": 70, "velocity": 97, "channel": 0}, {"type": "note_off", "time": 71, "note": 70, "velocity": 97, "channel": 0}, {"type": "note_on", "time": 182, "note": 67, "velocity": 101, "channel": 0}, {"type": "note_off", "time": 70, "note": 67, "velocity": 101, "channel": 0}, {"type": "note_on", "time": 31, "note": 62, "velocity": 107, "channel": 0}, {"type": "note_off", "time": 64, "note": 62, "velocity": 107, "channel": 0}, {"type": "note_on", "time": 191, "note": 66, "velocity": 45, "channel": 0}, {"type": "note_off", "time": 56, "note": 66, "velocity": 45, "channel": 0}, {"type": "note_on", "time": 7, "note": 62, "velocity": 93, "channel": 0}, {"type": "note_off", "time": 38, "note": 62, "velocity": 93, "channel": 0}, {"type": "note_on", "time": 7, "note": 59, "velocity": 98, "channel": 0}, {"type": "note_off", "time": 31, "note": 59, "velocity": 98, "channel": 0}, {"type": "note_on", "time": 9, "note": 55, "velocity": 96, "channel": 0}, {"type": "note_off", "time": 25, "note": 55, "velocity": 96, "channel": 0}, {"type": "note_on", "time": 9, "note": 65, "velocity": 97, "channel": 0}, {"type": "note_off", "time": 44, "note": 65, "velocity": 97, "channel": 0}, {"type": "note_on", "time": 11, "note": 62, "velocity": 100, "channel": 0}, {"type": "note_off", "time": 41, "note": 62, "velocity": 100, "channel": 0}, {"type": "note_on", "time": 9, "note": 58, "velocity": 102, "channel": 0}, {"type": "note_off", "time": 44, "note": 58, "velocity": 102, "channel": 0}, {"type": "note_on", "time": 3, "note": 55, "velocity": 99, "channel": 0}, {"type": "note_off", "time": 28, "note": 55, "velocity": 99, "channel": 0}, {"type": "note_on", "time": 9, "note": 62, "velocity": 99, "channel": 0}, {"type": "note_off", "time": 29, "note": 62, "velocity": 99, "channel": 0}, {"type": "note_on", "time": 8, "note": 64, "velocity": 103, "channel": 0}, {"type": "note_off", "time": 37, "note": 64, "velocity": 103, "channel": 0}, {"type": "note_on", "time": 7, "note": 65, "velocity": 102, "channel": 0}, {"type": "note_off", "time": 51, "note": 65, "velocity": 102, "channel": 0}, {"type": "note_on", "time": 4, "note": 62, "velocity": 96, "channel": 0}, {"type": "note_off", "time": 29, "note": 62, "velocity": 96, "channel": 0}, {"type": "note_on", "time": 13, "note": 63, "velocity": 106, "channel": 0}, {"type": "note_off", "time": 54, "note": 63, "velocity": 106, "channel": 0}, {"type": "note_on", "time": 5, "note": 62, "velocity": 107, "channel": 0}, {"type": "note_off", "time": 39, "note": 62, "velocity": 107, "channel": 0}, {"type": "note_on", "time": 13, "note": 61, "velocity": 100, "channel": 0}, {"type": "note_off", "time": 31, "note": 61, "velocity": 100, "channel": 0}, {"type": "note_on", "time": 5, "note": 65, "velocity": 103, "channel": 0}, {"type": "note_off", "time": 25, "note": 65, "velocity": 103, "channel": 0}, {"type": "note_on", "time": 3, "note": 63, "velocity": 103, "channel": 0}, {"type": "note_off", "time": 47, "note": 63, "velocity": 103, "channel": 0}, {"type": "note_on", "time": 3, "note": 60, "velocity": 101, "channel": 0}, {"type": "note_off", "time": 53, "note": 60, "velocity": 101, "channel": 0}, {"type": "note_on", "time": 4, "note": 56, "velocity": 100, "channel": 0}, {"type": "note_off", "time": 39, "note": 56, "velocity": 100, "channel": 0}, {"type": "note_on", "time": 5, "note": 53, "velocity": 95, "channel": 0}, {"type": "note_off", "time": 31, "note": 53, "velocity": 95, "channel": 0}, {"type": "note_on", "time": 16, "note": 58, "velocity": 96, "channel": 0}, {"type": "note_off", "time": 40, "note": 58, "velocity": 96, "channel": 0}, {"type": "note_on", "time": 3, "note": 56, "velocity": 98, "channel": 0}, {"type": "note_off", "time": 35, "note": 56, "velocity": 98, "channel": 0}, {"type": "note_on", "time": 8, "note": 53, "velocity": 99, "channel": 0}, {"type": "note_off", "time": 44, "note": 53, "velocity": 99, "channel": 0}, {"type": "note_on", "time": 3, "note": 51, "velocity": 103, "channel": 0}, {"type": "note_off", "time": 33, "note": 51, "velocity": 103, "channel": 0}, {"type": "note_on", "time": 11, "note": 44, "velocity": 110, "channel": 0}, {"type": "note_off", "time": 87, "note": 44, "velocity": 110, "channel": 0}, {"type": "note_on", "time": 20, "note": 51, "velocity": 102, "channel": 0}, {"type": "note_off", "time": 48, "note": 51, "velocity": 102, "channel": 0}, {"type": "note_on", "time": 20, "note": 44, "velocity": 115, "channel": 0}, {"type": "note_off", "time": 32, "note": 44, "velocity": 115, "channel": 0}, {"type": "note_on", "time": 9, "note": 46, "velocity": 105, "channel": 0}, {"type": "note_off", "time": 93, "note": 46, "velocity": 105, "channel": 0}, {"type": "note_on", "time": 174, "note": 68, "velocity": 108, "channel": 0}, {"type": "note_off", "time": 74, "note": 68, "velocity": 108, "channel": 0}, {"type": "note_on", "time": 38, "note": 72, "velocity": 111, "channel": 0}, {"type": "note_off", "time": 131, "note": 72, "velocity": 111, "channel": 0}, {"type": "note_on", "time": 151, "note": 46, "velocity": 104, "channel": 0}, {"type": "note_off", "time": 77, "note": 46, "velocity": 104, "channel": 0}, {"type": "note_on", "time": 20, "note": 53, "velocity": 104, "channel": 0}, {"type": "note_off", "time": 101, "note": 53, "velocity": 104, "channel": 0}, {"type": "note_on", "time": 37, "note": 51, "velocity": 97, "channel": 0}, {"type": "note_off", "time": 35, "note": 51, "velocity": 97, "channel": 0}, {"type": "note_on", "time": 8, "note": 52, "velocity": 103, "channel": 0}, {"type": "note_off", "time": 114, "note": 52, "velocity": 103, "channel": 0}, {"type": "note_on", "time": 208, "note": 60, "velocity": 92, "channel": 0}, {"type": "note_off", "time": 52, "note": 60, "velocity": 92, "channel": 0}, {"type": "note_on", "time": 22, "note": 62, "velocity": 109, "channel": 0}, {"type": "note_off", "time": 106, "note": 62, "velocity": 109, "channel": 0}, {"type": "note_on", "time": 16, "note": 60, "velocity": 91, "channel": 0}, {"type": "note_off", "time": 34, "note": 60, "velocity": 91, "channel": 0}, {"type": "note_on", "time": 26, "note": 64, "velocity": 112, "channel": 0}, {"type": "note_off", "time": 94, "note": 64, "velocity": 112, "channel": 0}, {"type": "note_on", "time": 5, "note": 62, "velocity": 93, "channel": 0}, {"type": "note_off", "time": 44, "note": 62, "velocity": 93, "channel": 0}, {"type": "note_on", "time": 32, "note": 65, "velocity": 106, "channel": 0}, {"type": "note_off", "time": 94, "note": 65, "velocity": 106, "channel": 0}, {"type": "note_on", "time": 19, "note": 62, "velocity": 91, "channel": 0}, {"type": "note_off", "time": 52, "note": 62, "velocity": 91, "channel": 0}, {"type": "note_on", "time": 31, "note": 66, "velocity": 103, "channel": 0}, {"type": "note_off", "time": 106, "note": 66, "velocity": 103, "channel": 0}, {"type": "note_on", "time": 8, "note": 62, "velocity": 93, "channel": 0}, {"type": "note_off", "time": 47, "note": 62, "velocity": 93, "channel": 0}, {"type": "note_on", "time": 9, "note": 65, "velocity": 100, "channel": 0}, {"type": "note_off", "time": 52, "note": 65, "velocity": 100, "channel": 0}, {"type": "note_on", "time": 3, "note": 67, "velocity": 101, "channel": 0}, {"type": "note_off", "time": 115, "note": 67, "velocity": 101, "channel": 0}, {"type": "time_signature", "numerator": 3, "denominator": 4, "clocks_per_click": 24, "notated_32nd_notes_per_beat": 8, "time": 251}, {"type": "note_on", "time": 0, "note": 67, "velocity": 104, "channel": 0}, {"type": "note_off", "time": 31, "note": 67, "velocity": 104, "channel": 0}, {"type": "note_on", "time": 17, "note": 69, "velocity": 100, "channel": 0}, {"type": "note_off", "time": 123, "note": 69, "velocity": 100, "channel": 0}, {"type": "note_on", "time": 7, "note": 72, "velocity": 100, "channel": 0}, {"type": "note_off", "time": 56, "note": 72, "velocity": 100, "channel": 0}, {"type": "note_on", "time": 22, "note": 70, "velocity": 98, "channel": 0}, {"type": "note_off", "time": 91, "note": 70, "velocity": 98, "channel": 0}, {"type": "note_on", "time": 18, "note": 67, "velocity": 98, "channel": 0}, {"type": "note_off", "time": 53, "note": 67, "velocity": 98, "channel": 0}, {"type": "note_on", "time": 133, "note": 63, "velocity": 109, "channel": 0}, {"type": "note_off", "time": 87, "note": 63, "velocity": 109, "channel": 0}, {"type": "note_on", "time": 10, "note": 65, "velocity": 99, "channel": 0}, {"type": "note_off", "time": 69, "note": 65, "velocity": 99, "channel": 0}, {"type": "note_on", "time": 7, "note": 67, "velocity": 101, "channel": 0}, {"type": "note_off", "time": 107, "note": 67, "velocity": 101, "channel": 0}, {"type": "note_on", "time": 7, "note": 63, "velocity": 83, "channel": 0}, {"type": "note_off", "time": 57, "note": 63, "velocity": 83, "channel": 0}, {"type": "note_on", "time": 26, "note": 65, "velocity": 102, "channel": 0}, {"type": "note_off", "time": 108, "note": 65, "velocity": 102, "channel": 0}, {"type": "note_on", "time": 7, "note": 60, "velocity": 82, "channel": 0}, {"type": "note_off", "time": 90, "note": 60, "velocity": 82, "channel": 0}, {"type": "note_on", "time": 117, "note": 65, "velocity": 103, "channel": 0}, {"type": "note_off", "time": 73, "note": 65, "velocity": 103, "channel": 0}, {"type": "note_on", "time": 4, "note": 61, "velocity": 96, "channel": 0}, {"type": "note_off", "time": 83, "note": 61, "velocity": 96, "channel": 0}, {"type": "note_on", "time": 142, "note": 67, "velocity": 101, "channel": 0}, {"type": "note_off", "time": 66, "note": 67, "velocity": 101, "channel": 0}, {"type": "note_on", "time": 13, "note": 63, "velocity": 101, "channel": 0}, {"type": "note_off", "time": 70, "note": 63, "velocity": 101, "channel": 0}, {"type": "note_on", "time": 126, "note": 69, "velocity": 99, "channel": 0}, {"type": "note_off", "time": 59, "note": 69, "velocity": 99, "channel": 0}, {"type": "note_on", "time": 125, "note": 67, "velocity": 104, "channel": 0}, {"type": "note_off", "time": 37, "note": 67, "velocity": 104, "channel": 0}, {"type": "note_on", "time": 49, "note": 69, "velocity": 95, "channel": 0}, {"type": "note_off", "time": 41, "note": 69, "velocity": 95, "channel": 0}, {"type": "note_on", "time": 18, "note": 70, "velocity": 94, "channel": 0}, {"type": "note_off", "time": 35, "note": 70, "velocity": 94, "channel": 0}, {"type": "note_on", "time": 18, "note": 74, "velocity": 97, "channel": 0}, {"type": "note_off", "time": 37, "note": 74, "velocity": 97, "channel": 0}, {"type": "time_signature", "numerator": 4, "denominator": 4, "clocks_per_click": 24, "notated_32nd_notes_per_beat": 8, "time": 52}, {"type": "note_on", "time": 0, "note": 76, "velocity": 101, "channel": 0}, {"type": "note_off", "time": 62, "note": 76, "velocity": 101, "channel": 0}, {"type": "note_on", "time": 10, "note": 77, "velocity": 97, "channel": 0}, {"type": "note_off", "time": 65, "note": 77, "velocity": 97, "channel": 0}, {"type": "note_on", "time": 7, "note": 78, "velocity": 106, "channel": 0}, {"type": "note_off", "time": 51, "note": 78, "velocity": 106, "channel": 0}, {"type": "note_on", "time": 8, "note": 79, "velocity": 110, "channel": 0}, {"type": "note_off", "time": 66, "note": 79, "velocity": 110, "channel": 0}, {"type": "note_on", "time": 8, "note": 80, "velocity": 99, "channel": 0}, {"type": "note_off", "time": 54, "note": 80, "velocity": 99, "channel": 0}, {"type": "note_on", "time": 4, "note": 81, "velocity": 99, "channel": 0}, {"type": "note_off", "time": 59, "note": 81, "velocity": 99, "channel": 0}, {"type": "note_on", "time": 2, "note": 82, "velocity": 99, "channel": 0}, {"type": "note_off", "time": 359, "note": 82, "velocity": 99, "channel": 0}, {"type": "note_on", "time": 19, "note": 81, "velocity": 96, "channel": 0}, {"type": "note_off", "time": 126, "note": 81, "velocity": 96, "channel": 0}, {"type": "note_on", "time": 62, "note": 82, "velocity": 96, "channel": 0}, {"type": "note_off", "time": 173, "note": 82, "velocity": 96, "channel": 0}, {"type": "note_on", "time": 4, "note": 81, "velocity": 97, "channel": 0}, {"type": "note_off", "time": 142, "note": 81, "velocity": 97, "channel": 0}, {"type": "note_on", "time": 48, "note": 81, "velocity": 99, "channel": 0}, {"type": "note_off", "time": 46, "note": 81, "velocity": 99, "channel": 0}, {"type": "note_on", "time": 8, "note": 82, "velocity": 98, "channel": 0}, {"type": "note_off", "time": 126, "note": 82, "velocity": 98, "channel": 0}, {"type": "note_on", "time": 3, "note": 81, "velocity": 103, "channel": 0}, {"type": "note_off", "time": 75, "note": 81, "velocity": 103, "channel": 0}, {"type": "note_on", "time": 21, "note": 79, "velocity": 107, "channel": 0}, {"type": "note_off", "time": 481, "note": 79, "velocity": 107, "channel": 0}, {"type": "note_on", "time": 270, "note": 76, "velocity": 76, "channel": 0}, {"type": "note_off", "time": 33, "note": 76, "velocity": 76, "channel": 0}, {"type": "note_on", "time": 4, "note": 77, "velocity": 91, "channel": 0}, {"type": "note_off", "time": 28, "note": 77, "velocity": 91, "channel": 0}, {"type": "note_on", "time": 8, "note": 76, "velocity": 106, "channel": 0}, {"type": "note_off", "time": 107, "note": 76, "velocity": 106, "channel": 0}, {"type": "note_on", "time": 0, "note": 76, "velocity": 80, "channel": 0}, {"type": "note_off", "time": 0, "note": 76, "velocity": 80, "channel": 0}, {"type": "note_on", "time": 18, "note": 72, "velocity": 91, "channel": 0}, {"type": "note_off", "time": 80, "note": 72, "velocity": 91, "channel": 0}, {"type": "note_on", "time": 4, "note": 69, "velocity": 101, "channel": 0}, {"type": "note_off", "time": 113, "note": 69, "velocity": 101, "channel": 0}, {"type": "note_on", "time": 11, "note": 65, "velocity": 95, "channel": 0}, {"type": "note_off", "time": 43, "note": 65, "velocity": 95, "channel": 0}, {"type": "note_on", "time": 21, "note": 70, "velocity": 102, "channel": 0}, {"type": "note_off", "time": 117, "note": 70, "velocity": 102, "channel": 0}, {"type": "note_on", "time": 19, "note": 69, "velocity": 90, "channel": 0}, {"type": "note_off", "time": 58, "note": 69, "velocity": 90, "channel": 0}, {"type": "note_on", "time": 15, "note": 70, "velocity": 99, "channel": 0}, {"type": "note_off", "time": 272, "note": 70, "velocity": 99, "channel": 0}, {"type": "note_on", "time": 373, "note": 70, "velocity": 105, "channel": 0}, {"type": "note_off", "time": 79, "note": 70, "velocity": 105, "channel": 0}, {"type": "note_on", "time": 5, "note": 68, "velocity": 106, "channel": 0}, {"type": "note_off", "time": 91, "note": 68, "velocity": 106, "channel": 0}, {"type": "note_on", "time": 5, "note": 65, "velocity": 104, "channel": 0}, {"type": "note_off", "time": 96, "note": 65, "velocity": 104, "channel": 0}, {"type": "note_on", "time": 6, "note": 63, "velocity": 111, "channel": 0}, {"type": "note_off", "time": 89, "note": 63, "velocity": 111, "channel": 0}, {"type": "note_on", "time": 4, "note": 60, "velocity": 100, "channel": 0}, {"type": "note_off", "time": 83, "note": 60, "velocity": 100, "channel": 0}, {"type": "note_on", "time": 11, "note": 59, "velocity": 92, "channel": 0}, {"type": "note_off", "time": 103, "note": 59, "velocity": 92, "channel": 0}, {"type": "note_on", "time": 3, "note": 58, "velocity": 98, "channel": 0}, {"type": "note_off", "time": 69, "note": 58, "velocity": 98, "channel": 0}, {"type": "note_on", "time": 14, "note": 56, "velocity": 97, "channel": 0}, {"type": "note_off", "time": 112, "note": 56, "velocity": 97, "channel": 0}, {"type": "note_on", "time": 15, "note": 53, "velocity": 92, "channel": 0}, {"type": "note_off", "time": 67, "note": 53, "velocity": 92, "channel": 0}, {"type": "note_on", "time": 11, "note": 57, "velocity": 101, "channel": 0}, {"type": "note_off", "time": 81, "note": 57, "velocity": 101, "channel": 0}, {"type": "note_on", "time": 6, "note": 60, "velocity": 103, "channel": 0}, {"type": "note_off", "time": 82, "note": 60, "velocity": 103, "channel": 0}, {"type": "note_on", "time": 113, "note": 65, "velocity": 104, "channel": 0}, {"type": "note_off", "time": 72, "note": 65, "velocity": 104, "channel": 0}, {"type": "note_on", "time": 112, "note": 69, "velocity": 104, "channel": 0}, {"type": "note_off", "time": 55, "note": 69, "velocity": 104, "channel": 0}, {"type": "note_on", "time": 154, "note": 72, "velocity": 103, "channel": 0}, {"type": "note_off", "time": 46, "note": 72, "velocity": 103, "channel": 0}, {"type": "note_on", "time": 29, "note": 70, "velocity": 104, "channel": 0}, {"type": "note_off", "time": 85, "note": 70, "velocity": 104, "channel": 0}, {"type": "note_on", "time": 18, "note": 67, "velocity": 103, "channel": 0}, {"type": "note_off", "time": 64, "note": 67, "velocity": 103, "channel": 0}, {"type": "note_on", "time": 18, "note": 62, "velocity": 103, "channel": 0}, {"type": "note_off", "time": 79, "note": 62, "velocity": 103, "channel": 0}, {"type": "note_on", "time": 6, "note": 58, "velocity": 95, "channel": 0}, {"type": "note_off", "time": 72, "note": 58, "velocity": 95, "channel": 0}, {"type": "note_on", "time": 30, "note": 62, "velocity": 108, "channel": 0}, {"type": "note_off", "time": 70, "note": 62, "velocity": 108, "channel": 0}, {"type": "note_on", "time": 11, "note": 64, "velocity": 105, "channel": 0}, {"type": "note_off", "time": 97, "note": 64, "velocity": 105, "channel": 0}, {"type": "note_on", "time": 16, "note": 65, "velocity": 99, "channel": 0}, {"type": "note_off", "time": 89, "note": 65, "velocity": 99, "channel": 0}, {"type": "note_on", "time": 6, "note": 62, "velocity": 92, "channel": 0}, {"type": "note_off", "time": 55, "note": 62, "velocity": 92, "channel": 0}, {"type": "note_on", "time": 15, "note": 64, "velocity": 97, "channel": 0}, {"type": "note_off", "time": 288, "note": 64, "velocity": 97, "channel": 0}, {"type": "note_on", "time": 5, "note": 62, "velocity": 93, "channel": 0}, {"type": "note_off", "time": 88, "note": 62, "velocity": 93, "channel": 0}, {"type": "note_on", "time": 10, "note": 60, "velocity": 86, "channel": 0}, {"type": "note_off", "time": 130, "note": 60, "velocity": 86, "channel": 0}, {"type": "end_of_track", "time": 0}]]}