{"ticks_per_beat": 192, "tracks": [[{"type": "track_name", "name": "Melody", "time": 0}, {"type": "set_tempo", "tempo": 333333, "time": 0}, {"type": "key_signature", "key": "Bb", "time": 0}, {"type": "time_signature", "numerator": 4, "denominator": 4, "clocks_per_click": 24, "notated_32nd_notes_per_beat": 8, "time": 0}, {"type": "note_on", "time": 1746, "note": 70, "velocity": 111, "channel": 0}, {"type": "note_off", "time": 51, "note": 70, "velocity": 111, "channel": 0}, {"type": "note_on", "time": 125, "note": 70, "velocity": 122, "channel": 0}, {"type": "note_off", "time": 60, "note": 70, "velocity": 122, "channel": 0}, {"type": "note_on", "time": 124, "note": 70, "velocity": 123, "channel": 0}, {"type": "note_off", "time": 120, "note": 70, "velocity": 123, "channel": 0}, {"type": "note_on", "time": 600, "note": 73, "velocity": 127, "channel": 0}, {"type": "note_off", "time": 75, "note": 73, "velocity": 127, "channel": 0}, {"type": "note_on", "time": 15, "note": 74, "velocity": 125, "channel": 0}, {"type": "note_off", "time": 85, "note": 74, "velocity": 125, "channel": 0}, {"type": "note_on", "time": 11, "note": 73, "velocity": 118, "channel": 0}, {"type": "note_off", "time": 76, "note": 73, "velocity": 118, "channel": 0}, {"type": "note_on", "time": 11, "note": 74, "velocity": 113, "channel": 0}, {"type": "note_off", "time": 88, "note": 74, "velocity": 113, "channel": 0}, {"type": "note_on", "time": 71, "note": 70, "velocity": 113, "channel": 0}, {"type": "note_off", "time": 98, "note": 70, "velocity": 113, "channel": 0}, {"type": "note_on", "time": 64, "note": 70, "velocity": 105, "channel": 0}, {"type": "note_off", "time": 238, "note": 70, "velocity": 105, "channel": 0}, {"type": "note_on", "time": 1201, "note": 67, "velocity": 98, "channel": 0}, {"type": "note_off", "time": 105, "note": 67, "velocity": 98, "channel": 0}, {"type": "note_on", "time": 31, "note": 65, "velocity": 93, "channel": 0}, {"type": "note_off", "time": 39, "note": 65, "velocity": 93, "channel": 0}, {"type": "note_on", "time": 41, "note": 72, "velocity": 124, "channel": 0}, {"type": "note_off", "time": 91, "note": 72, "velocity": 124, "channel": 0}, {"type": "note_on", "time": 34, "note": 70, "velocity": 115, "channel": 0}, {"type": "note_off", "time": 197, "note": 70, "velocity": 115, "channel": 0}, {"type": "note_on", "time": 63, "note": 72, "velocity": 117, "channel": 0}, {"type": "note_off", "time": 127, "note": 72, "velocity": 117, "channel": 0}, {"type": "note_on", "time": 80, "note": 67, "velocity": 97, "channel": 0}, {"type": "note_off", "time": 100, "note": 67, "velocity": 97, "channel": 0}, {"type": "note_on", "time": 30, "note": 70, "velocity": 117, "channel": 0}, {"type": "note_off", "time": 35, "note": 70, "velocity": 117, "channel": 0}, {"type": "note_on", "time": 41, "note": 72, "velocity": 119, "channel": 0}, {"type": "note_off", "time": 63, "note": 72, "velocity": 119, "channel": 0}, {"type": "note_on", "time": 82, "note": 70, "velocity": 107, "channel": 0}, {"type": "note_off", "time": 264, "note": 70, "velocity": 107, "channel": 0}, {"type": "note_on", "time": 79, "note": 67, "velocity": 102, "channel": 0}, {"type": "note_off", "time": 71, "note": 67, "velocity": 102, "channel": 0}, {"type": "note_on", "time": 98, "note": 65, "velocity": 101, "channel": 0}, {"type": "note_off", "time": 71, "note": 65, "velocity": 101, "channel": 0}, {"type": "note_on", "time": 44, "note": 65, "velocity": 98, "channel": 0}, {"type": "note_off", "time": 157, "note": 65, "velocity": 98, "channel": 0}, {"type": "note_on", "time": 556, "note": 73, "velocity": 117, "channel": 0}, {"type": "note_off", "time": 71, "note": 73, "velocity": 117, "channel": 0}, {"type": "note_on", "time": 18, "note": 74, "velocity": 118, "channel": 0}, {"type": "note_off", "time": 62, "note": 74, "velocity": 118, "channel": 0}, {"type": "note_on", "time": 39, "note": 73, "velocity": 98, "channel": 0}, {"type": "note_off", "time": 49, "note": 73, "velocity": 98, "channel": 0}, {"type": "note_on", "time": 4, "note": 74, "velocity": 121, "channel": 0}, {"type": "note_off", "time": 131, "note": 74, "velocity": 121, "channel": 0}, {"type": "note_on", "time": 80, "note": 75, "velocity": 119, "channel": 0}, {"type": "note_off", "time": 156, "note": 75, "velocity": 119, "channel": 0}, {"type": "note_on", "time": 43, "note": 72, "velocity": 107, "channel": 0}, {"type": "note_off", "time": 165, "note": 72, "velocity": 107, "channel": 0}, {"type": "note_on", "time": 49, "note": 65, "velocity": 95, "channel": 0}, {"type": "note_off", "time": 221, "note": 65, "velocity": 95, "channel": 0}, {"type": "note_on", "time": 497, "note": 72, "velocity": 116, "channel": 0}, {"type": "note_off", "time": 87, "note": 72, "velocity": 116, "channel": 0}, {"type": "note_on", "time": 99, "note": 72, "velocity": 116, "channel": 0}, {"type": "note_off", "time": 120, "note": 72, "velocity": 116, "channel": 0}, {"type": "note_on", "time": 48, "note": 73, "velocity": 117, "channel": 0}, {"type": "note_off", "time": 60, "note": 73, "velocity": 117, "channel": 0}, {"type": "note_on", "time": 10, "note": 74, "velocity": 115, "channel": 0}, {"type": "note_off", "time": 119, "note": 74, "velocity": 115, "channel": 0}, {"type": "note_on", "time": 65, "note": 70, "velocity": 104, "channel": 0}, {"type": "note_off", "time": 178, "note": 70, "velocity": 104, "channel": 0}, {"type": "note_on", "time": 28, "note": 65, "velocity": 99, "channel": 0}, {"type": "note_off", "time": 172, "note": 65, "velocity": 99, "channel": 0}, {"type": "note_on", "time": 11, "note": 58, "velocity": 90, "channel": 0}, {"type": "note_off", "time": 140, "note": 58, "velocity": 90, "channel": 0}, {"type": "note_on", "time": 812, "note": 65, "velocity": 106, "channel": 0}, {"type": "note_off", "time": 40, "note": 65, "velocity": 106, "channel": 0}, {"type": "note_on", "time": 7, "note": 70, "velocity": 116, "channel": 0}, {"type": "note_off", "time": 75, "note": 70, "velocity": 116, "channel": 0}, {"type": "note_on", "time": 86, "note": 73, "velocity": 118, "channel": 0}, {"type": "note_off", "time": 211, "note": 73, "velocity": 118, "channel": 0}, {"type": "note_on", "time": 726, "note": 65, "velocity": 80, "channel": 0}, {"type": "note_off", "time": 52, "note": 65, "velocity": 80, "channel": 0}, {"type": "note_on", "time": 6, "note": 70, "velocity": 115, "channel": 0}, {"type": "note_off", "time": 70, "note": 70, "velocity": 115, "channel": 0}, {"type": "note_on", "time": 72, "note": 73, "velocity": 118, "channel": 0}, {"type": "note_off", "time": 129, "note": 73, "velocity": 118, "channel": 0}, {"type": "note_on", "time": 75, "note": 73, "velocity": 118, "channel": 0}, {"type": "note_off", "time": 102, "note": 73, "velocity": 118, "channel": 0}, {"type": "note_on", "time": 95, "note": 73, "velocity": 118, "channel": 0}, {"type": "note_on", "time": 203, "note": 74, "velocity": 103, "channel": 0}, {"type": "note_off", "time": 0, "note": 73, "velocity": 118, "channel": 0}, {"type": "note_off", "time": 39, "note": 74, "velocity": 103, "channel": 0}, {"type": "note_on", "time": 35, "note": 72, "velocity": 111, "channel": 0}, {"type": "note_off", "time": 83, "note": 72, "velocity": 111, "channel": 0}, {"type": "note_on", "time": 40, "note": 72, "velocity": 98, "channel": 0}, {"type": "note_off", "time": 320, "note": 72, "velocity": 98, "channel": 0}, {"type": "note_on", "time": 903, "note": 63, "velocity": 86, "channel": 0}, {"type": "note_off", "time": 59, "note": 63, "velocity": 86, "channel": 0}, {"type": "note_on", "time": 27, "note": 66, "velocity": 88, "channel": 0}, {"type": "note_off", "time": 43, "note": 66, "velocity": 88, "channel": 0}, {"type": "note_on", "time": 27, "note": 67, "velocity": 105, "channel": 0}, {"type": "note_off", "time": 163, "note": 67, "velocity": 105, "channel": 0}, {"type": "note_on", "time": 32, "note": 72, "velocity": 118, "channel": 0}, {"type": "note_off", "time": 129, "note": 72, "velocity": 118, "channel": 0}, {"type": "note_on", "time": 382, "note": 65, "velocity": 97, "channel": 0}, {"type": "note_off", "time": 30, "note": 65, "velocity": 97, "channel": 0}, {"type": "note_on", "time": 2, "note": 67, "velocity": 88, "channel": 0}, {"type": "note_off", "time": 29, "note": 67, "velocity": 88, "channel": 0}, {"type": "note_on", "time": 31, "note": 70, "velocity": 114, "channel": 0}, {"type": "note_off", "time": 105, "note": 70, "velocity": 114, "channel": 0}, {"type": "note_on", "time": 6, "note": 72, "velocity": 118, "channel": 0}, {"type": "note_off", "time": 87, "note": 72, "velocity": 118, "channel": 0}, {"type": "note_on", "time": 33, "note": 73, "velocity": 116, "channel": 0}, {"type": "note_off", "time": 61, "note": 73, "velocity": 116, "channel": 0}, {"type": "note_on", "time": 34, "note": 69, "velocity": 108, "channel": 0}, {"type": "note_off", "time": 36, "note": 69, "velocity": 108, "channel": 0}, {"type": "note_on", "time": 15, "note": 66, "velocity": 105, "channel": 0}, {"type": "note_off", "time": 99, "note": 66, "velocity": 105, "channel": 0}, {"type": "note_on", "time": 58, "note": 64, "velocity": 92, "channel": 0}, {"type": "note_off", "time": 44, "note": 64, "velocity": 92, "channel": 0}, {"type": "note_on", "time": 10, "note": 65, "velocity": 92, "channel": 0}, {"type": "note_off", "time": 236, "note": 65, "velocity": 92, "channel": 0}, {"type": "note_on", "time": 74, "note": 70, "velocity": 118, "channel": 0}, {"type": "note_off", "time": 99, "note": 70, "velocity": 118, "channel": 0}, {"type": "note_on", "time": 28, "note": 67, "velocity": 111, "channel": 0}, {"type": "note_off", "time": 52, "note": 67, "velocity": 111, "channel": 0}, {"type": "note_on", "time": 38, "note": 67, "velocity": 97, "channel": 0}, {"type": "note_off", "time": 103, "note": 67, "velocity": 97, "channel": 0}, {"type": "note_on", "time": 606, "note": 69, "velocity": 106, "channel": 0}, {"type": "note_off", "time": 62, "note": 69, "velocity": 106, "channel": 0}, {"type": "note_on", "time": 17, "note": 70, "velocity": 119, "channel": 0}, {"type": "note_off", "time": 106, "note": 70, "velocity": 119, "channel": 0}, {"type": "note_on", "time": 4, "note": 69, "velocity": 90, "channel": 0}, {"type": "note_off", "time": 88, "note": 69, "velocity": 90, "channel": 0}, {"type": "note_on", "time": 26, "note": 70, "velocity": 117, "channel": 0}, {"type": "note_off", "time": 159, "note": 70, "velocity": 117, "channel": 0}, {"type": "note_on", "time": 27, "note": 67, "velocity": 114, "channel": 0}, {"type": "note_off", "time": 60, "note": 67, "velocity": 114, "channel": 0}, {"type": "note_on", "time": 91, "note": 63, "velocity": 99, "channel": 0}, {"type": "note_off", "time": 174, "note": 63, "velocity": 99, "channel": 0}, {"type": "note_on", "time": 16, "note": 63, "velocity": 104, "channel": 0}, {"type": "note_off", "time": 40, "note": 63, "velocity": 104, "channel": 0}, {"type": "note_on", "time": 476, "note": 73, "velocity": 112, "channel": 0}, {"type": "note_off", "time": 73, "note": 73, "velocity": 112, "channel": 0}, {"type": "note_on", "time": 8, "note": 74, "velocity": 121, "channel": 0}, {"type": "note_off", "time": 121, "note": 74, "velocity": 121, "channel": 0}, {"type": "note_on", "time": 4, "note": 73, "velocity": 103, "channel": 0}, {"type": "note_off", "time": 75, "note": 73, "velocity": 103, "channel": 0}, {"type": "note_on", "time": 5, "note": 74, "velocity": 116, "channel": 0}, {"type": "note_off", "time": 102, "note": 74, "velocity": 116, "channel": 0}, {"type": "note_on", "time": 21, "note": 70, "velocity": 114, "channel": 0}, {"type": "note_off", "time": 53, "note": 70, "velocity": 114, "channel": 0}, {"type": "note_on", "time": 36, "note": 66, "velocity": 109, "channel": 0}, {"type": "note_off", "time": 15, "note": 66, "velocity": 109, "channel": 0}, {"type": "note_on", "time": 10, "note": 68, "velocity": 103, "channel": 0}, {"type": "note_off", "time": 124, "note": 68, "velocity": 103, "channel": 0}, {"type": "note_on", "time": 0, "note": 65, "velocity": 107, "channel": 0}, {"type": "note_off", "time": 218, "note": 65, "velocity": 107, "channel": 0}, {"type": "note_on", "time": 1262, "note": 68, "velocity": 104, "channel": 0}, {"type": "note_off", "time": 37, "note": 68, "velocity": 104, "channel": 0}, {"type": "note_on", "time": 19, "note": 70, "velocity": 120, "channel": 0}, {"type": "note_off", "time": 68, "note": 70, "velocity": 120, "channel": 0}, {"type": "note_on", "time": 39, "note": 70, "velocity": 122, "channel": 0}, {"type": "note_off", "time": 41, "note": 70, "velocity": 122, "channel": 0}, {"type": "note_on", "time": 28, "note": 72, "velocity": 120, "channel": 0}, {"type": "note_off", "time": 92, "note": 72, "velocity": 120, "channel": 0}, {"type": "note_on", "time": 34, "note": 72, "velocity": 117, "channel": 0}, {"type": "note_off", "time": 47, "note": 72, "velocity": 117, "channel": 0}, {"type": "note_on", "time": 16, "note": 70, "velocity": 112, "channel": 0}, {"type": "note_off", "time": 112, "note": 70, "velocity": 112, "channel": 0}, {"type": "note_on", "time": 25, "note": 70, "velocity": 114, "channel": 0}, {"type": "note_off", "time": 45, "note": 70, "velocity": 114, "channel": 0}, {"type": "note_on", "time": 28, "note": 68, "velocity": 107, "channel": 0}, {"type": "note_off", "time": 134, "note": 68, "velocity": 107, "channel": 0}, {"type": "note_on", "time": 19, "note": 65, "velocity": 94, "channel": 0}, {"type": "note_off", "time": 24, "note": 65, "velocity": 94, "channel": 0}, {"type": "note_on", "time": 0, "note": 68, "velocity": 110, "channel": 0}, {"type": "note_off", "time": 89, "note": 68, "velocity": 110, "channel": 0}, {"type": "note_on", "time": 56, "note": 68, "velocity": 108, "channel": 0}, {"type": "note_off", "time": 196, "note": 68, "velocity": 108, "channel": 0}, {"type": "note_on", "time": 2, "note": 65, "velocity": 93, "channel": 0}, {"type": "note_off", "time": 40, "note": 65, "velocity": 93, "channel": 0}, {"type": "note_on", "time": 8, "note": 68, "velocity": 99, "channel": 0}, {"type": "note_off", "time": 132, "note": 68, "velocity": 99, "channel": 0}, {"type": "note_on", "time": 0, "note": 70, "velocity": 117, "channel": 0}, {"type": "note_off", "time": 142, "note": 70, "velocity": 117, "channel": 0}, {"type": "note_on", "time": 103, "note": 70, "velocity": 114, "channel": 0}, {"type": "note_off", "time": 169, "note": 70, "velocity": 114, "channel": 0}, {"type": "note_on", "time": 41, "note": 72, "velocity": 120, "channel": 0}, {"type": "note_off", "time": 157, "note": 72, "velocity": 120, "channel": 0}, {"type": "note_on", "time": 1180, "note": 70, "velocity": 115, "channel": 0}, {"type": "note_off", "time": 134, "note": 70, "velocity": 115, "channel": 0}, {"type": "note_on", "time": 10, "note": 70, "velocity": 117, "channel": 0}, {"type": "note_off", "time": 54, "note": 70, "velocity": 117, "channel": 0}, {"type": "note_on", "time": 11, "note": 72, "velocity": 104, "channel": 0}, {"type": "note_off", "time": 89, "note": 72, "velocity": 104, "channel": 0}, {"type": "note_on", "time": 19, "note": 72, "velocity": 112, "channel": 0}, {"type": "note_off", "time": 52, "note": 72, "velocity": 112, "channel": 0}, {"type": "note_on", "time": 8, "note": 70, "velocity": 113, "channel": 0}, {"type": "note_off", "time": 97, "note": 70, "velocity": 113, "channel": 0}, {"type": "note_on", "time": 51, "note": 70, "velocity": 116, "channel": 0}, {"type": "note_off", "time": 45, "note": 70, "velocity": 116, "channel": 0}, {"type": "note_on", "time": 18, "note": 68, "velocity": 106, "channel": 0}, {"type": "note_off", "time": 144, "note": 68, "velocity": 106, "channel": 0}, {"type": "note_on", "time": 13, "note": 65, "velocity": 90, "channel": 0}, {"type": "note_off", "time": 33, "note": 65, "velocity": 90, "channel": 0}, {"type": "note_on", "time": 3, "note": 68, "velocity": 110, "channel": 0}, {"type": "note_off", "time": 76, "note": 68, "velocity": 110, "channel": 0}, {"type": "note_on", "time": 55, "note": 68, "velocity": 106, "channel": 0}, {"type": "note_off", "time": 362, "note": 68, "velocity": 106, "channel": 0}, {"type": "note_on", "time": 5, "note": 65, "velocity": 91, "channel": 0}, {"type": "note_off", "time": 39, "note": 65, "velocity": 91, "channel": 0}, {"type": "note_on", "time": 15, "note": 68, "velocity": 112, "channel": 0}, {"type": "note_off", "time": 152, "note": 68, "velocity": 112, "channel": 0}, {"type": "note_on", "time": 14, "note": 69, "velocity": 104, "channel": 0}, {"type": "note_off", "time": 42, "note": 69, "velocity": 104, "channel": 0}, {"type": "note_on", "time": 33, "note": 70, "velocity": 118, "channel": 0}, {"type": "note_off", "time": 125, "note": 70, "velocity": 118, "channel": 0}, {"type": "note_on", "time": 13, "note": 65, "velocity": 93, "channel": 0}, {"type": "note_off", "time": 256, "note": 65, "velocity": 93, "channel": 0}, {"type": "note_on", "time": 1082, "note": 67, "velocity": 102, "channel": 0}, {"type": "note_off", "time": 42, "note": 67, "velocity": 102, "channel": 0}, {"type": "note_on", "time": 39, "note": 70, "velocity": 115, "channel": 0}, {"type": "note_off", "time": 42, "note": 70, "velocity": 115, "channel": 0}, {"type": "note_on", "time": 39, "note": 74, "velocity": 124, "channel": 0}, {"type": "note_off", "time": 62, "note": 74, "velocity": 124, "channel": 0}, {"type": "note_on", "time": 52, "note": 79, "velocity": 125, "channel": 0}, {"type": "note_off", "time": 82, "note": 79, "velocity": 125, "channel": 0}, {"type": "note_on", "time": 70, "note": 77, "velocity": 123, "channel": 0}, {"type": "note_off", "time": 88, "note": 77, "velocity": 123, "channel": 0}, {"type": "note_on", "time": 132, "note": 73, "velocity": 103, "channel": 0}, {"type": "note_off", "time": 35, "note": 73, "velocity": 103, "channel": 0}, {"type": "note_on", "time": 0, "note": 75, "velocity": 107, "channel": 0}, {"type": "note_off", "time": 123, "note": 75, "velocity": 107, "channel": 0}, {"type": "note_on", "time": 20, "note": 74, "velocity": 111, "channel": 0}, {"type": "note_off", "time": 89, "note": 74, "velocity": 111, "channel": 0}, {"type": "note_on", "time": 32, "note": 72, "velocity": 114, "channel": 0}, {"type": "note_off", "time": 44, "note": 72, "velocity": 114, "channel": 0}, {"type": "note_on", "time": 25, "note": 70, "velocity": 111, "channel": 0}, {"type": "note_off", "time": 110, "note": 70, "velocity": 111, "channel": 0}, {"type": "note_on", "time": 25, "note": 65, "velocity": 106, "channel": 0}, {"type": "note_off", "time": 44, "note": 65, "velocity": 106, "channel": 0}, {"type": "note_on", "time": 26, "note": 62, "velocity": 86, "channel": 0}, {"type": "note_off", "time": 145, "note": 62, "velocity": 86, "channel": 0}, {"type": "note_on", "time": 0, "note": 65, "velocity": 100, "channel": 0}, {"type": "note_off", "time": 155, "note": 65, "velocity": 100, "channel": 0}, {"type": "note_on", "time": 0, "note": 70, "velocity": 112, "channel": 0}, {"type": "note_off", "time": 50, "note": 70, "velocity": 112, "channel": 0}, {"type": "note_on", "time": 1587, "note": 77, "velocity": 123, "channel": 0}, {"type": "note_off", "time": 84, "note": 77, "velocity": 123, "channel": 0}, {"type": "note_on", "time": 55, "note": 79, "velocity": 120, "channel": 0}, {"type": "note_off", "time": 150, "note": 79, "velocity": 120, "channel": 0}, {"type": "note_on", "time": 387, "note": 77, "velocity": 122, "channel": 0}, {"type": "note_off", "time": 58, "note": 77, "velocity": 122, "channel": 0}, {"type": "note_on", "time": 18, "note": 76, "velocity": 105, "channel": 0}, {"type": "note_off", "time": 83, "note": 76, "velocity": 105, "channel": 0}, {"type": "note_on", "time": 0, "note": 75, "velocity": 114, "channel": 0}, {"type": "note_off", "time": 107, "note": 75, "velocity": 114, "channel": 0}, {"type": "note_on", "time": 533, "note": 73, "velocity": 120, "channel": 0}, {"type": "note_off", "time": 103, "note": 73, "velocity": 120, "channel": 0}, {"type": "note_on", "time": 124, "note": 73, "velocity": 117, "channel": 0}, {"type": "note_off", "time": 170, "note": 73, "velocity": 117, "channel": 0}, {"type": "note_on", "time": 226, "note": 74, "velocity": 124, "channel": 0}, {"type": "note_off", "time": 72, "note": 74, "velocity": 124, "channel": 0}, {"type": "note_on", "time": 23, "note": 70, "velocity": 111, "channel": 0}, {"type": "note_off", "time": 94, "note": 70, "velocity": 111, "channel": 0}, {"type": "note_on", "time": 141, "note": 67, "velocity": 112, "channel": 0}, {"type": "note_off", "time": 49, "note": 67, "velocity": 112, "channel": 0}, {"type": "note_on", "time": 17, "note": 68, "velocity": 107, "channel": 0}, {"type": "note_off", "time": 115, "note": 68, "velocity": 107, "channel": 0}, {"type": "note_on", "time": 1, "note": 72, "velocity": 120, "channel": 0}, {"type": "note_off", "time": 69, "note": 72, "velocity": 120, "channel": 0}, {"type": "note_on", "time": 28, "note": 75, "velocity": 124, "channel": 0}, {"type": "note_off", "time": 50, "note": 75, "velocity": 124, "channel": 0}, {"type": "note_on", "time": 48, "note": 79, "velocity": 122, "channel": 0}, {"type": "note_off", "time": 96, "note": 79, "velocity": 122, "channel": 0}, {"type": "note_on", "time": 32, "note": 82, "velocity": 83, "channel": 0}, {"type": "note_off", "time": 43, "note": 82, "velocity": 83, "channel": 0}, {"type": "note_on", "time": 0, "note": 85, "velocity": 116, "channel": 0}, {"type": "note_off", "time": 195, "note": 85, "velocity": 116, "channel": 0}, {"type": "note_on", "time": 35, "note": 84, "velocity": 110, "channel": 0}, {"type": "note_off", "time": 64, "note": 84, "velocity": 110, "channel": 0}, {"type": "note_on", "time": 29, "note": 82, "velocity": 121, "channel": 0}, {"type": "note_off", "time": 64, "note": 82, "velocity": 121, "channel": 0}, {"type": "note_on", "time": 31, "note": 80, "velocity": 115, "channel": 0}, {"type": "note_off", "time": 53, "note": 80, "velocity": 115, "channel": 0}, {"type": "note_on", "time": 39, "note": 79, "velocity": 120, "channel": 0}, {"type": "note_off", "time": 70, "note": 79, "velocity": 120, "channel": 0}, {"type": "note_on", "time": 48, "note": 78, "velocity": 115, "channel": 0}, {"type": "note_off", "time": 63, "note": 78, "velocity": 115, "channel": 0}, {"type": "note_on", "time": 14, "note": 77, "velocity": 112, "channel": 0}, {"type": "note_off", "time": 82, "note": 77, "velocity": 112, "channel": 0}, {"type": "note_on", "time": 34, "note": 76, "velocity": 118, "channel": 0}, {"type": "note_off", "time": 73, "note": 76, "velocity": 118, "channel": 0}, {"type": "note_on", "time": 19, "note": 75, "velocity": 112, "channel": 0}, {"type": "note_off", "time": 56, "note": 75, "velocity": 112, "channel": 0}, {"type": "note_on", "time": 24, "note": 72, "velocity": 115, "channel": 0}, {"type": "note_off", "time": 87, "note": 72, "velocity": 115, "channel": 0}, {"type": "note_on", "time": 138, "note": 70, "velocity": 114, "channel": 0}, {"type": "note_off", "time": 84, "note": 70, "velocity": 114, "channel": 0}, {"type": "note_on", "time": 78, "note": 65, "velocity": 106, "channel": 0}, {"type": "note_off", "time": 64, "note": 65, "velocity": 106, "channel": 0}, {"type": "note_on", "time": 17, "note": 63, "velocity": 105, "channel": 0}, {"type": "note_off", "time": 77, "note": 63, "velocity": 105, "channel": 0}, {"type": "note_on", "time": 26, "note": 62, "velocity": 9, "channel": 0}, {"type": "note_off", "time": 206, "note": 62, "velocity": 9, "channel": 0}, {"type": "note_on", "time": 600, "note": 63, "velocity": 97, "channel": 0}, {"type": "note_off", "time": 50, "note": 63, "velocity": 97, "channel": 0}, {"type": "note_on", "time": 19, "note": 64, "velocity": 99, "channel": 0}, {"type": "note_off", "time": 51, "note": 64, "velocity": 99, "channel": 0}, {"type": "note_on", "time": 42, "note": 65, "velocity": 112, "channel": 0}, {"type": "note_off", "time": 65, "note": 65, "velocity": 112, "channel": 0}, {"type": "note_on", "time": 29, "note": 67, "velocity": 113, "channel": 0}, {"type": "note_off", "time": 72, "note": 67, "velocity": 113, "channel": 0}, {"type": "note_on", "time": 14, "note": 69, "velocity": 113, "channel": 0}, {"type": "note_off", "time": 67, "note": 69, "velocity": 113, "channel": 0}, {"type": "note_on", "time": 11, "note": 70, "velocity": 120, "channel": 0}, {"type": "note_off", "time": 85, "note": 70, "velocity": 120, "channel": 0}, {"type": "note_on", "time": 17, "note": 72, "velocity": 117, "channel": 0}, {"type": "note_off", "time": 87, "note": 72, "velocity": 117, "channel": 0}, {"type": "note_on", "time": 57, "note": 72, "velocity": 106, "channel": 0}, {"type": "note_off", "time": 30, "note": 72, "velocity": 106, "channel": 0}, {"type": "note_on", "time": 3, "note": 74, "velocity": 116, "channel": 0}, {"type": "note_off", "time": 110, "note": 74, "velocity": 116, "channel": 0}, {"type": "note_on", "time": 0, "note": 72, "velocity": 116, "channel": 0}, {"type": "note_off", "time": 115, "note": 72, "velocity": 116, "channel": 0}, {"type": "note_on", "time": 58, "note": 74, "velocity": 116, "channel": 0}, {"type": "note_off", "time": 178, "note": 74, "velocity": 116, "channel": 0}, {"type": "note_on", "time": 30, "note": 72, "velocity": 108, "channel": 0}, {"type": "note_off", "time": 114, "note": 72, "velocity": 108, "channel": 0}, {"type": "note_on", "time": 16, "note": 65, "velocity": 90, "channel": 0}, {"type": "note_on", "time": 597, "note": 67, "velocity": 96, "channel": 0}, {"type": "note_off", "time": 0, "note": 65, "velocity": 90, "channel": 0}, {"type": "note_off", "time": 44, "note": 67, "velocity": 96, "channel": 0}, {"type": "note_on", "time": 0, "note": 70, "velocity": 116, "channel": 0}, {"type": "note_off", "time": 89, "note": 70, "velocity": 116, "channel": 0}, {"type": "note_on", "time": 37, "note": 70, "velocity": 104, "channel": 0}, {"type": "note_off", "time": 397, "note": 70, "velocity": 104, "channel": 0}, {"type": "note_on", "time": 15, "note": 67, "velocity": 79, "channel": 0}, {"type": "note_off", "time": 43, "note": 67, "velocity": 79, "channel": 0}, {"type": "note_on", "time": 9, "note": 70, "velocity": 107, "channel": 0}, {"type": "note_off", "time": 84, "note": 70, "velocity": 107, "channel": 0}, {"type": "note_on", "time": 33, "note": 74, "velocity": 114, "channel": 0}, {"type": "note_off", "time": 47, "note": 74, "velocity": 114, "channel": 0}, {"type": "note_on", "time": 979, "note": 82, "velocity": 121, "channel": 0}, {"type": "note_off", "time": 46, "note": 82, "velocity": 121, "channel": 0}, {"type": "note_on", "time": 0, "note": 84, "velocity": 117, "channel": 0}, {"type": "note_off", "time": 51, "note": 84, "velocity": 117, "channel": 0}, {"type": "note_on", "time": 8, "note": 85, "velocity": 118, "channel": 0}, {"type": "note_off", "time": 50, "note": 85, "velocity": 118, "channel": 0}, {"type": "note_on", "time": 21, "note": 86, "velocity": 120, "channel": 0}, {"type": "note_off", "time": 195, "note": 86, "velocity": 120, "channel": 0}, {"type": "note_on", "time": 41, "note": 84, "velocity": 97, "channel": 0}, {"type": "note_off", "time": 107, "note": 84, "velocity": 97, "channel": 0}, {"type": "note_on", "time": 63, "note": 81, "velocity": 122, "channel": 0}, {"type": "note_off", "time": 123, "note": 81, "velocity": 122, "channel": 0}, {"type": "note_on", "time": 65, "note": 82, "velocity": 123, "channel": 0}, {"type": "note_off", "time": 96, "note": 82, "velocity": 123, "channel": 0}, {"type": "note_on", "time": 89, "note": 81, "velocity": 110, "channel": 0}, {"type": "note_off", "time": 113, "note": 81, "velocity": 110, "channel": 0}, {"type": "note_on", "time": 106, "note": 80, "velocity": 125, "channel": 0}, {"type": "note_off", "time": 111, "note": 80, "velocity": 125, "channel": 0}, {"type": "note_on", "time": 51, "note": 79, "velocity": 124, "channel": 0}, {"type": "note_off", "time": 63, "note": 79, "velocity": 124, "channel": 0}, {"type": "note_on", "time": 60, "note": 77, "velocity": 117, "channel": 0}, {"type": "note_off", "time": 100, "note": 77, "velocity": 117, "channel": 0}, {"type": "note_on", "time": 196, "note": 72, "velocity": 114, "channel": 0}, {"type": "note_on", "time": 29, "note": 75, "velocity": 114, "channel": 0}, {"type": "note_off", "time": 0, "note": 72, "velocity": 114, "channel": 0}, {"type": "note_off", "time": 103, "note": 75, "velocity": 114, "channel": 0}, {"type": "note_on", "time": 0, "note": 72, "velocity": 98, "channel": 0}, {"type": "note_off", "time": 32, "note": 72, "velocity": 98, "channel": 0}, {"type": "note_on", "time": 0, "note": 74, "velocity": 115, "channel": 0}, {"type": "note_off", "time": 107, "note": 74, "velocity": 115, "channel": 0}, {"type": "note_on", "time": 0, "note": 72, "velocity": 117, "channel": 0}, {"type": "note_off", "time": 93, "note": 72, "velocity": 117, "channel": 0}, {"type": "note_on", "time": 13, "note": 73, "velocity": 118, "channel": 0}, {"type": "note_off", "time": 42, "note": 73, "velocity": 118, "channel": 0}, {"type": "note_on", "time": 45, "note": 71, "velocity": 117, "channel": 0}, {"type": "note_off", "time": 55, "note": 71, "velocity": 117, "channel": 0}, {"type": "note_on", "time": 22, "note": 72, "velocity": 112, "channel": 0}, {"type": "note_off", "time": 102, "note": 72, "velocity": 112, "channel": 0}, {"type": "note_on", "time": 102, "note": 79, "velocity": 123, "channel": 0}, {"type": "note_off", "time": 135, "note": 79, "velocity": 123, "channel": 0}, {"type": "note_on", "time": 7, "note": 72, "velocity": 83, "channel": 0}, {"type": "note_off", "time": 45, "note": 72, "velocity": 83, "channel": 0}, {"type": "note_on", "time": 1, "note": 78, "velocity": 116, "channel": 0}, {"type": "note_off", "time": 116, "note": 78, "velocity": 116, "channel": 0}, {"type": "note_on", "time": 38, "note": 79, "velocity": 110, "channel": 0}, {"type": "note_off", "time": 19, "note": 79, "velocity": 110, "channel": 0}, {"type": "note_on", "time": 0, "note": 77, "velocity": 105, "channel": 0}, {"type": "note_off", "time": 22, "note": 77, "velocity": 105, "channel": 0}, {"type": "note_on", "time": 3, "note": 71, "velocity": 115, "channel": 0}, {"type": "note_off", "time": 72, "note": 71, "velocity": 115, "channel": 0}, {"type": "note_on", "time": 55, "note": 72, "velocity": 104, "channel": 0}, {"type": "note_off", "time": 115, "note": 72, "velocity": 104, "channel": 0}, {"type": "note_on", "time": 834, "note": 71, "velocity": 118, "channel": 0}, {"type": "note_off", "time": 87, "note": 71, "velocity": 118, "channel": 0}, {"type": "note_on", "time": 10, "note": 72, "velocity": 119, "channel": 0}, {"type": "note_off", "time": 84, "note": 72, "velocity": 119, "channel": 0}, {"type": "note_on", "time": 18, "note": 73, "velocity": 118, "channel": 0}, {"type": "note_off", "time": 63, "note": 73, "velocity": 118, "channel": 0}, {"type": "note_on", "time": 45, "note": 72, "velocity": 116, "channel": 0}, {"type": "note_off", "time": 106, "note": 72, "velocity": 116, "channel": 0}, {"type": "note_on", "time": 48, "note": 70, "velocity": 106, "channel": 0}, {"type": "note_off", "time": 148, "note": 70, "velocity": 106, "channel": 0}, {"type": "note_on", "time": 50, "note": 72, "velocity": 114, "channel": 0}, {"type": "note_off", "time": 170, "note": 72, "velocity": 114, "channel": 0}, {"type": "note_on", "time": 10, "note": 72, "velocity": 104, "channel": 0}, {"type": "note_off", "time": 125, "note": 72, "velocity": 104, "channel": 0}, {"type": "note_on", "time": 27, "note": 67, "velocity": 110, "channel": 0}, {"type": "note_off", "time": 118, "note": 67, "velocity": 110, "channel": 0}, {"type": "note_on", "time": 0, "note": 65, "velocity": 112, "channel": 0}, {"type": "note_off", "time": 73, "note": 65, "velocity": 112, "channel": 0}, {"type": "note_on", "time": 33, "note": 65, "velocity": 101, "channel": 0}, {"type": "note_off", "time": 275, "note": 65, "velocity": 101, "channel": 0}, {"type": "note_on", "time": 886, "note": 63, "velocity": 103, "channel": 0}, {"type": "note_off", "time": 53, "note": 63, "velocity": 103, "channel": 0}, {"type": "note_on", "time": 21, "note": 67, "velocity": 109, "channel": 0}, {"type": "note_off", "time": 71, "note": 67, "velocity": 109, "channel": 0}, {"type": "note_on", "time": 16, "note": 70, "velocity": 122, "channel": 0}, {"type": "note_off", "time": 69, "note": 70, "velocity": 122, "channel": 0}, {"type": "note_on", "time": 22, "note": 69, "velocity": 104, "channel": 0}, {"type": "note_off", "time": 101, "note": 69, "velocity": 104, "channel": 0}, {"type": "note_on", "time": 0, "note": 70, "velocity": 91, "channel": 0}, {"type": "note_off", "time": 76, "note": 70, "velocity": 91, "channel": 0}, {"type": "note_on", "time": 14, "note": 72, "velocity": 104, "channel": 0}, {"type": "note_off", "time": 66, "note": 72, "velocity": 104, "channel": 0}, {"type": "note_on", "time": 30, "note": 74, "velocity": 103, "channel": 0}, {"type": "note_off", "time": 106, "note": 74, "velocity": 103, "channel": 0}, {"type": "note_on", "time": 15, "note": 78, "velocity": 118, "channel": 0}, {"type": "note_on", "time": 50, "note": 81, "velocity": 89, "channel": 0}, {"type": "note_off", "time": 0, "note": 78, "velocity": 118, "channel": 0}, {"type": "note_off", "time": 91, "note": 81, "velocity": 89, "channel": 0}, {"type": "note_on", "time": 40, "note": 79, "velocity": 114, "channel": 0}, {"type": "note_off", "time": 126, "note": 79, "velocity": 114, "channel": 0}, {"type": "note_on", "time": 4, "note": 77, "velocity": 122, "channel": 0}, {"type": "note_off", "time": 61, "note": 77, "velocity": 122, "channel": 0}, {"type": "note_on", "time": 94, "note": 75, "velocity": 104, "channel": 0}, {"type": "note_off", "time": 86, "note": 75, "velocity": 104, "channel": 0}, {"type": "note_on", "time": 10, "note": 77, "velocity": 106, "channel": 0}, {"type": "note_off", "time": 40, "note": 77, "velocity": 106, "channel": 0}, {"type": "note_on", "time": 3, "note": 74, "velocity": 116, "channel": 0}, {"type": "note_off", "time": 53, "note": 74, "velocity": 116, "channel": 0}, {"type": "note_on", "time": 7, "note": 72, "velocity": 116, "channel": 0}, {"type": "note_off", "time": 77, "note": 72, "velocity": 116, "channel": 0}, {"type": "note_on", "time": 20, "note": 70, "velocity": 113, "channel": 0}, {"type": "note_off", "time": 63, "note": 70, "velocity": 113, "channel": 0}, {"type": "note_on", "time": 83, "note": 70, "velocity": 107, "channel": 0}, {"type": "note_off", "time": 189, "note": 70, "velocity": 107, "channel": 0}, {"type": "note_on", "time": 1359, "note": 73, "velocity": 119, "channel": 0}, {"type": "note_off", "time": 95, "note": 73, "velocity": 119, "channel": 0}, {"type": "note_on", "time": 102, "note": 73, "velocity": 113, "channel": 0}, {"type": "note_off", "time": 158, "note": 73, "velocity": 113, "channel": 0}, {"type": "note_on", "time": 10, "note": 73, "velocity": 96, "channel": 0}, {"type": "note_off", "time": 105, "note": 73, "velocity": 96, "channel": 0}, {"type": "note_on", "time": 239, "note": 70, "velocity": 115, "channel": 0}, {"type": "note_off", "time": 107, "note": 70, "velocity": 115, "channel": 0}, {"type": "note_on", "time": 72, "note": 70, "velocity": 117, "channel": 0}, {"type": "note_off", "time": 122, "note": 70, "velocity": 117, "channel": 0}, {"type": "note_on", "time": 63, "note": 70, "velocity": 119, "channel": 0}, {"type": "note_off", "time": 86, "note": 70, "velocity": 119, "channel": 0}, {"type": "note_on", "time": 27, "note": 68, "velocity": 93, "channel": 0}, {"type": "note_off", "time": 120, "note": 68, "velocity": 93, "channel": 0}, {"type": "note_on", "time": 249, "note": 73, "velocity": 117, "channel": 0}, {"type": "note_off", "time": 107, "note": 73, "velocity": 117, "channel": 0}, {"type": "note_on", "time": 33, "note": 70, "velocity": 82, "channel": 0}, {"type": "note_off", "time": 53, "note": 70, "velocity": 82, "channel": 0}, {"type": "note_on", "time": 3, "note": 73, "velocity": 111, "channel": 0}, {"type": "note_off", "time": 92, "note": 73, "velocity": 111, "channel": 0}, {"type": "note_on", "time": 50, "note": 73, "velocity": 117, "channel": 0}, {"type": "note_off", "time": 68, "note": 73, "velocity": 117, "channel": 0}, {"type": "note_on", "time": 383, "note": 70, "velocity": 121, "channel": 0}, {"type": "note_off", "time": 136, "note": 70, "velocity": 121, "channel": 0}, {"type": "note_on", "time": 8, "note": 65, "velocity": 94, "channel": 0}, {"type": "note_off", "time": 51, "note": 65, "velocity": 94, "channel": 0}, {"type": "note_on", "time": 3, "note": 70, "velocity": 107, "channel": 0}, {"type": "note_off", "time": 134, "note": 70, "velocity": 107, "channel": 0}, {"type": "note_on", "time": 0, "note": 68, "velocity": 106, "channel": 0}, {"type": "note_off", "time": 71, "note": 68, "velocity": 106, "channel": 0}, {"type": "note_on", "time": 382, "note": 70, "velocity": 112, "channel": 0}, {"type": "note_off", "time": 134, "note": 70, "velocity": 112, "channel": 0}, {"type": "note_on", "time": 0, "note": 65, "velocity": 89, "channel": 0}, {"type": "note_off", "time": 46, "note": 65, "velocity": 89, "channel": 0}, {"type": "note_on", "time": 0, "note": 70, "velocity": 103, "channel": 0}, {"type": "note_off", "time": 132, "note": 70, "velocity": 103, "channel": 0}, {"type": "note_on", "time": 0, "note": 73, "velocity": 110, "channel": 0}, {"type": "note_off", "time": 74, "note": 73, "velocity": 110, "channel": 0}, {"type": "note_on", "time": 394, "note": 75, "velocity": 115, "channel": 0}, {"type": "note_off", "time": 27, "note": 75, "velocity": 115, "channel": 0}, {"type": "note_on", "time": 4, "note": 74, "velocity": 103, "channel": 0}, {"type": "note_off", "time": 35, "note": 74, "velocity": 103, "channel": 0}, {"type": "note_on", "time": 0, "note": 73, "velocity": 110, "channel": 0}, {"type": "note_off", "time": 39, "note": 73, "velocity": 110, "channel": 0}, {"type": "note_on", "time": 100, "note": 73, "velocity": 99, "channel": 0}, {"type": "note_off", "time": 110, "note": 73, "velocity": 99, "channel": 0}, {"type": "note_on", "time": 15, "note": 73, "velocity": 111, "channel": 0}, {"type": "note_off", "time": 63, "note": 73, "velocity": 111, "channel": 0}, {"type": "note_on", "time": 395, "note": 73, "velocity": 113, "channel": 0}, {"type": "note_off", "time": 183, "note": 73, "velocity": 113, "channel": 0}, {"type": "note_on", "time": 2, "note": 74, "velocity": 123, "channel": 0}, {"type": "note_off", "time": 57, "note": 74, "velocity": 123, "channel": 0}, {"type": "note_on", "time": 2, "note": 73, "velocity": 114, "channel": 0}, {"type": "note_off", "time": 33, "note": 73, "velocity": 114, "channel": 0}, {"type": "note_on", "time": 11, "note": 74, "velocity": 115, "channel": 0}, {"type": "note_off", "time": 123, "note": 74, "velocity": 115, "channel": 0}, {"type": "note_on", "time": 94, "note": 70, "velocity": 118, "channel": 0}, {"type": "note_off", "time": 84, "note": 70, "velocity": 118, "channel": 0}, {"type": "note_on", "time": 23, "note": 65, "velocity": 102, "channel": 0}, {"type": "note_off", "time": 132, "note": 65, "velocity": 102, "channel": 0}, {"type": "note_on", "time": 44, "note": 63, "velocity": 106, "channel": 0}, {"type": "note_off", "time": 136, "note": 63, "velocity": 106, "channel": 0}, {"type": "note_on", "time": 6, "note": 62, "velocity": 106, "channel": 0}, {"type": "note_off", "time": 45, "note": 62, "velocity": 106, "channel": 0}, {"type": "note_on", "time": 114, "note": 70, "velocity": 117, "channel": 0}, {"type": "note_off", "time": 192, "note": 70, "velocity": 117, "channel": 0}, {"type": "note_on", "time": 14, "note": 70, "velocity": 104, "channel": 0}, {"type": "note_off", "time": 236, "note": 70, "velocity": 104, "channel": 0}, {"type": "note_on", "time": 748, "note": 70, "velocity": 101, "channel": 0}, {"type": "note_off", "time": 42, "note": 70, "velocity": 101, "channel": 0}, {"type": "note_on", "time": 3, "note": 72, "velocity": 119, "channel": 0}, {"type": "note_off", "time": 126, "note": 72, "velocity": 119, "channel": 0}, {"type": "note_on", "time": 66, "note": 70, "velocity": 106, "channel": 0}, {"type": "note_off", "time": 175, "note": 70, "velocity": 106, "channel": 0}, {"type": "note_on", "time": 7, "note": 72, "velocity": 117, "channel": 0}, {"type": "note_off", "time": 81, "note": 72, "velocity": 117, "channel": 0}, {"type": "note_on", "time": 99, "note": 70, "velocity": 107, "channel": 0}, {"type": "note_off", "time": 335, "note": 70, "velocity": 107, "channel": 0}, {"type": "note_on", "time": 10, "note": 70, "velocity": 106, "channel": 0}, {"type": "note_off", "time": 92, "note": 70, "velocity": 106, "channel": 0}, {"type": "note_on", "time": 1241, "note": 82, "velocity": 125, "channel": 0}, {"type": "note_off", "time": 73, "note": 82, "velocity": 125, "channel": 0}, {"type": "note_on", "time": 17, "note": 79, "velocity": 100, "channel": 0}, {"type": "note_off", "time": 93, "note": 79, "velocity": 100, "channel": 0}, {"type": "note_on", "time": 10, "note": 77, "velocity": 117, "channel": 0}, {"type": "note_off", "time": 99, "note": 77, "velocity": 117, "channel": 0}, {"type": "note_on", "time": 463, "note": 76, "velocity": 104, "channel": 0}, {"type": "note_off", "time": 127, "note": 76, "velocity": 104, "channel": 0}, {"type": "note_on", "time": 80, "note": 75, "velocity": 114, "channel": 0}, {"type": "note_off", "time": 290, "note": 75, "velocity": 114, "channel": 0}, {"type": "note_on", "time": 0, "note": 73, "velocity": 115, "channel": 0}, {"type": "note_off", "time": 63, "note": 73, "velocity": 115, "channel": 0}, {"type": "note_on", "time": 295, "note": 70, "velocity": 119, "channel": 0}, {"type": "note_off", "time": 152, "note": 70, "velocity": 119, "channel": 0}, {"type": "note_on", "time": 2, "note": 67, "velocity": 93, "channel": 0}, {"type": "note_off", "time": 23, "note": 67, "velocity": 93, "channel": 0}, {"type": "note_on", "time": 2, "note": 65, "velocity": 84, "channel": 0}, {"type": "note_off", "time": 27, "note": 65, "velocity": 84, "channel": 0}, {"type": "note_on", "time": 12, "note": 68, "velocity": 91, "channel": 0}, {"type": "note_off", "time": 128, "note": 68, "velocity": 91, "channel": 0}, {"type": "note_on", "time": 0, "note": 72, "velocity": 120, "channel": 0}, {"type": "note_off", "time": 83, "note": 72, "velocity": 120, "channel": 0}, {"type": "note_on", "time": 288, "note": 67, "velocity": 106, "channel": 0}, {"type": "note_off", "time": 56, "note": 67, "velocity": 106, "channel": 0}, {"type": "note_on", "time": 13, "note": 65, "velocity": 98, "channel": 0}, {"type": "note_on", "time": 117, "note": 64, "velocity": 106, "channel": 0}, {"type": "note_off", "time": 0, "note": 65, "velocity": 98, "channel": 0}, {"type": "note_off", "time": 224, "note": 64, "velocity": 106, "channel": 0}, {"type": "note_on", "time": 9, "note": 63, "velocity": 108, "channel": 0}, {"type": "note_off", "time": 401, "note": 63, "velocity": 108, "channel": 0}, {"type": "note_on", "time": 105, "note": 63, "velocity": 112, "channel": 0}, {"type": "note_off", "time": 107, "note": 63, "velocity": 112, "channel": 0}, {"type": "note_on", "time": 19, "note": 64, "velocity": 117, "channel": 0}, {"type": "note_off", "time": 85, "note": 64, "velocity": 117, "channel": 0}, {"type": "note_on", "time": 24, "note": 65, "velocity": 123, "channel": 0}, {"type": "note_off", "time": 59, "note": 65, "velocity": 123, "channel": 0}, {"type": "note_on", "time": 17, "note": 67, "velocity": 121, "channel": 0}, {"type": "note_off", "time": 62, "note": 67, "velocity": 121, "channel": 0}, {"type": "note_on", "time": 42, "note": 69, "velocity": 116, "channel": 0}, {"type": "note_off", "time": 76, "note": 69, "velocity": 116, "channel": 0}, {"type": "note_on", "time": 10, "note": 70, "velocity": 118, "channel": 0}, {"type": "note_off", "time": 90, "note": 70, "velocity": 118, "channel": 0}, {"type": "note_on", "time": 13, "note": 72, "velocity": 119, "channel": 0}, {"type": "note_off", "time": 65, "note": 72, "velocity": 119, "channel": 0}, {"type": "note_on", "time": 16, "note": 73, "velocity": 118, "channel": 0}, {"type": "note_off", "time": 90, "note": 73, "velocity": 118, "channel": 0}, {"type": "note_on", "time": 16, "note": 74, "velocity": 113, "channel": 0}, {"type": "note_off", "time": 93, "note": 74, "velocity": 113, "channel": 0}, {"type": "note_on", "time": 1, "note": 75, "velocity": 116, "channel": 0}, {"type": "note_off", "time": 106, "note": 75, "velocity": 116, "channel": 0}, {"type": "note_on", "time": 78, "note": 72, "velocity": 112, "channel": 0}, {"type": "note_off", "time": 69, "note": 72, "velocity": 112, "channel": 0}, {"type": "note_on", "time": 9, "note": 74, "velocity": 112, "channel": 0}, {"type": "note_off", "time": 80, "note": 74, "velocity": 112, "channel": 0}, {"type": "note_on", "time": 24, "note": 70, "velocity": 117, "channel": 0}, {"type": "note_off", "time": 85, "note": 70, "velocity": 117, "channel": 0}, {"type": "note_on", "time": 30, "note": 65, "velocity": 109, "channel": 0}, {"type": "note_off", "time": 53, "note": 65, "velocity": 109, "channel": 0}, {"type": "note_on", "time": 45, "note": 63, "velocity": 102, "channel": 0}, {"type": "note_off", "time": 103, "note": 63, "velocity": 102, "channel": 0}, {"type": "note_on", "time": 15, "note": 65, "velocity": 112, "channel": 0}, {"type": "note_off", "time": 51, "note": 65, "velocity": 112, "channel": 0}, {"type": "note_on", "time": 45, "note": 62, "velocity": 99, "channel": 0}, {"type": "note_off", "time": 71, "note": 62, "velocity": 99, "channel": 0}, {"type": "note_on", "time": 16, "note": 58, "velocity": 81, "channel": 0}, {"type": "note_off", "time": 25, "note": 58, "velocity": 81, "channel": 0}, {"type": "note_on", "time": 23, "note": 70, "velocity": 114, "channel": 0}, {"type": "note_off", "time": 210, "note": 70, "velocity": 114, "channel": 0}, {"type": "note_on", "time": 5, "note": 67, "velocity": 97, "channel": 0}, {"type": "note_off", "time": 253, "note": 67, "velocity": 97, "channel": 0}, {"type": "note_on", "time": 115, "note": 70, "velocity": 119, "channel": 0}, {"type": "note_off", "time": 76, "note": 70, "velocity": 119, "channel": 0}, {"type": "note_on", "time": 2, "note": 69, "velocity": 114, "channel": 0}, {"type": "note_off", "time": 52, "note": 69, "velocity": 114, "channel": 0}, {"type": "note_on", "time": 7, "note": 70, "velocity": 118, "channel": 0}, {"type": "note_off", "time": 189, "note": 70, "velocity": 118, "channel": 0}, {"type": "note_on", "time": 0, "note": 67, "velocity": 91, "channel": 0}, {"type": "note_off", "time": 73, "note": 67, "velocity": 91, "channel": 0}, {"type": "note_on", "time": 0, "note": 70, "velocity": 118, "channel": 0}, {"type": "note_off", "time": 180, "note": 70, "velocity": 118, "channel": 0}, {"type": "note_on", "time": 0, "note": 67, "velocity": 91, "channel": 0}, {"type": "note_off", "time": 120, "note": 67, "velocity": 91, "channel": 0}, {"type": "note_on", "time": 67, "note": 61, "velocity": 105, "channel": 0}, {"type": "note_off", "time": 135, "note": 61, "velocity": 105, "channel": 0}, {"type": "note_on", "time": 762, "note": 69, "velocity": 112, "channel": 0}, {"type": "note_off", "time": 70, "note": 69, "velocity": 112, "channel": 0}, {"type": "note_on", "time": 0, "note": 70, "velocity": 118, "channel": 0}, {"type": "note_off", "time": 131, "note": 70, "velocity": 118, "channel": 0}, {"type": "note_on", "time": 5, "note": 70, "velocity": 109, "channel": 0}, {"type": "note_off", "time": 251, "note": 70, "velocity": 109, "channel": 0}, {"type": "note_on", "time": 23, "note": 67, "velocity": 95, "channel": 0}, {"type": "note_off", "time": 79, "note": 67, "velocity": 95, "channel": 0}, {"type": "note_on", "time": 78, "note": 62, "velocity": 107, "channel": 0}, {"type": "note_off", "time": 143, "note": 62, "velocity": 107, "channel": 0}, {"type": "note_on", "time": 951, "note": 65, "velocity": 99, "channel": 0}, {"type": "note_off", "time": 160, "note": 65, "velocity": 99, "channel": 0}, {"type": "note_on", "time": 5, "note": 67, "velocity": 95, "channel": 0}, {"type": "note_off", "time": 83, "note": 67, "velocity": 95, "channel": 0}, {"type": "note_on", "time": 0, "note": 69, "velocity": 118, "channel": 0}, {"type": "note_off", "time": 95, "note": 69, "velocity": 118, "channel": 0}, {"type": "note_on", "time": 67, "note": 70, "velocity": 116, "channel": 0}, {"type": "note_off", "time": 164, "note": 70, "velocity": 116, "channel": 0}, {"type": "note_on", "time": 2, "note": 72, "velocity": 112, "channel": 0}, {"type": "note_on", "time": 43, "note": 74, "velocity": 114, "channel": 0}, {"type": "note_off", "time": 0, "note": 72, "velocity": 112, "channel": 0}, {"type": "note_off", "time": 123, "note": 74, "velocity": 114, "channel": 0}, {"type": "note_on", "time": 2, "note": 70, "velocity": 119, "channel": 0}, {"type": "note_off", "time": 61, "note": 70, "velocity": 119, "channel": 0}, {"type": "note_on", "time": 6, "note": 72, "velocity": 115, "channel": 0}, {"type": "note_off", "time": 109, "note": 72, "velocity": 115, "channel": 0}, {"type": "note_on", "time": 5, "note": 74, "velocity": 120, "channel": 0}, {"type": "note_off", "time": 67, "note": 74, "velocity": 120, "channel": 0}, {"type": "note_on", "time": 6, "note": 78, "velocity": 118, "channel": 0}, {"type": "note_off", "time": 123, "note": 78, "velocity": 118, "channel": 0}, {"type": "note_on", "time": 0, "note": 79, "velocity": 122, "channel": 0}, {"type": "note_off", "time": 76, "note": 79, "velocity": 122, "channel": 0}, {"type": "note_on", "time": 32, "note": 77, "velocity": 110, "channel": 0}, {"type": "note_off", "time": 139, "note": 77, "velocity": 110, "channel": 0}, {"type": "note_on", "time": 9, "note": 79, "velocity": 112, "channel": 0}, {"type": "note_off", "time": 115, "note": 79, "velocity": 112, "channel": 0}, {"type": "note_on", "time": 2, "note": 80, "velocity": 118, "channel": 0}, {"type": "note_off", "time": 203, "note": 80, "velocity": 118, "channel": 0}, {"type": "note_on", "time": 7, "note": 76, "velocity": 115, "channel": 0}, {"type": "note_off", "time": 61, "note": 76, "velocity": 115, "channel": 0}, {"type": "note_on", "time": 4, "note": 79, "velocity": 113, "channel": 0}, {"type": "note_off", "time": 127, "note": 79, "velocity": 113, "channel": 0}, {"type": "note_on", "time": 0, "note": 78, "velocity": 112, "channel": 0}, {"type": "note_off", "time": 72, "note": 78, "velocity": 112, "channel": 0}, {"type": "note_on", "time": 12, "note": 77, "velocity": 114, "channel": 0}, {"type": "note_off", "time": 121, "note": 77, "velocity": 114, "channel": 0}, {"type": "note_on", "time": 0, "note": 76, "velocity": 19, "channel": 0}, {"type": "note_off", "time": 84, "note": 76, "velocity": 19, "channel": 0}, {"type": "note_on", "time": 0, "note": 75, "velocity": 111, "channel": 0}, {"type": "note_off", "time": 71, "note": 75, "velocity": 111, "channel": 0}, {"type": "note_on", "time": 30, "note": 73, "velocity": 114, "channel": 0}, {"type": "note_off", "time": 89, "note": 73, "velocity": 114, "channel": 0}, {"type": "note_on", "time": 0, "note": 74, "velocity": 109, "channel": 0}, {"type": "note_off", "time": 86, "note": 74, "velocity": 109, "channel": 0}, {"type": "note_on", "time": 0, "note": 70, "velocity": 104, "channel": 0}, {"type": "note_off", "time": 101, "note": 70, "velocity": 104, "channel": 0}, {"type": "note_on", "time": 0, "note": 69, "velocity": 101, "channel": 0}, {"type": "note_off", "time": 20, "note": 69, "velocity": 101, "channel": 0}, {"type": "note_on", "time": 0, "note": 70, "velocity": 100, "channel": 0}, {"type": "note_off", "time": 71, "note": 70, "velocity": 100, "channel": 0}, {"type": "note_on", "time": 32, "note": 67, "velocity": 103, "channel": 0}, {"type": "note_off", "time": 48, "note": 67, "velocity": 103, "channel": 0}, {"type": "note_on", "time": 6, "note": 68, "velocity": 112, "channel": 0}, {"type": "note_off", "time": 117, "note": 68, "velocity": 112, "channel": 0}, {"type": "note_on", "time": 0, "note": 72, "velocity": 111, "channel": 0}, {"type": "note_off", "time": 82, "note": 72, "velocity": 111, "channel": 0}, {"type": "note_on", "time": 0, "note": 67, "velocity": 94, "channel": 0}, {"type": "note_off", "time": 107, "note": 67, "velocity": 94, "channel": 0}, {"type": "note_on", "time": 6, "note": 65, "velocity": 94, "channel": 0}, {"type": "note_off", "time": 53, "note": 65, "velocity": 94, "channel": 0}, {"type": "note_on", "time": 16, "note": 70, "velocity": 107, "channel": 0}, {"type": "note_off", "time": 182, "note": 70, "velocity": 107, "channel": 0}, {"type": "note_on", "time": 777, "note": 75, "velocity": 111, "channel": 0}, {"type": "note_off", "time": 1159, "note": 75, "velocity": 111, "channel": 0}, {"type": "note_on", "time": 14, "note": 73, "velocity": 109, "channel": 0}, {"type": "note_off", "time": 119, "note": 73, "velocity": 109, "channel": 0}, {"type": "note_on", "time": 79, "note": 73, "velocity": 112, "channel": 0}, {"type": "note_off", "time": 163, "note": 73, "velocity": 112, "channel": 0}, {"type": "note_on", "time": 745, "note": 70, "velocity": 118, "channel": 0}, {"type": "note_off", "time": 56, "note": 70, "velocity": 118, "channel": 0}, {"type": "note_on", "time": 13, "note": 72, "velocity": 119, "channel": 0}, {"type": "note_off", "time": 91, "note": 72, "velocity": 119, "channel": 0}, {"type": "note_on", "time": 20, "note": 74, "velocity": 121, "channel": 0}, {"type": "note_off", "time": 67, "note": 74, "velocity": 121, "channel": 0}, {"type": "note_on", "time": 20, "note": 75, "velocity": 120, "channel": 0}, {"type": "note_off", "time": 82, "note": 75, "velocity": 120, "channel": 0}, {"type": "note_on", "time": 19, "note": 77, "velocity": 123, "channel": 0}, {"type": "note_off", "time": 63, "note": 77, "velocity": 123, "channel": 0}, {"type": "note_on", "time": 13, "note": 79, "velocity": 122, "channel": 0}, {"type": "note_off", "time": 93, "note": 79, "velocity": 122, "channel": 0}, {"type": "note_on", "time": 23, "note": 82, "velocity": 124, "channel": 0}, {"type": "note_off", "time": 80, "note": 82, "velocity": 124, "channel": 0}, {"type": "note_on", "time": 48, "note": 79, "velocity": 106, "channel": 0}, {"type": "note_off", "time": 85, "note": 79, "velocity": 106, "channel": 0}, {"type": "note_on", "time": 1, "note": 81, "velocity": 117, "channel": 0}, {"type": "note_off", "time": 191, "note": 81, "velocity": 117, "channel": 0}, {"type": "note_on", "time": 0, "note": 79, "velocity": 124, "channel": 0}, {"type": "note_off", "time": 63, "note": 79, "velocity": 124, "channel": 0}, {"type": "note_on", "time": 30, "note": 77, "velocity": 121, "channel": 0}, {"type": "note_off", "time": 65, "note": 77, "velocity": 121, "channel": 0}, {"type": "note_on", "time": 13, "note": 75, "velocity": 117, "channel": 0}, {"type": "note_off", "time": 80, "note": 75, "velocity": 117, "channel": 0}, {"type": "note_on", "time": 26, "note": 73, "velocity": 113, "channel": 0}, {"type": "note_off", "time": 37, "note": 73, "velocity": 113, "channel": 0}, {"type": "note_on", "time": 10, "note": 74, "velocity": 111, "channel": 0}, {"type": "note_off", "time": 52, "note": 74, "velocity": 111, "channel": 0}, {"type": "note_on", "time": 3, "note": 72, "velocity": 117, "channel": 0}, {"type": "note_off", "time": 71, "note": 72, "velocity": 117, "channel": 0}, {"type": "note_on", "time": 21, "note": 70, "velocity": 113, "channel": 0}, {"type": "note_off", "time": 107, "note": 70, "velocity": 113, "channel": 0}, {"type": "note_on", "time": 57, "note": 70, "velocity": 117, "channel": 0}, {"type": "note_off", "time": 127, "note": 70, "velocity": 117, "channel": 0}, {"type": "note_on", "time": 98, "note": 67, "velocity": 92, "channel": 0}, {"type": "note_off", "time": 188, "note": 67, "velocity": 92, "channel": 0}, {"type": "note_on", "time": 0, "note": 68, "velocity": 117, "channel": 0}, {"type": "note_off", "time": 306, "note": 68, "velocity": 117, "channel": 0}, {"type": "note_on", "time": 5, "note": 68, "velocity": 115, "channel": 0}, {"type": "note_on", "time": 70, "note": 67, "velocity": 98, "channel": 0}, {"type": "note_off", "time": 0, "note": 68, "velocity": 115, "channel": 0}, {"type": "note_off", "time": 121, "note": 67, "velocity": 98, "channel": 0}, {"type": "note_on", "time": 12, "note": 67, "velocity": 120, "channel": 0}, {"type": "note_off", "time": 36, "note": 67, "velocity": 120, "channel": 0}, {"type": "note_on", "time": 23, "note": 66, "velocity": 105, "channel": 0}, {"type": "note_off", "time": 94, "note": 66, "velocity": 105, "channel": 0}, {"type": "note_on", "time": 14, "note": 66, "velocity": 118, "channel": 0}, {"type": "note_off", "time": 41, "note": 66, "velocity": 118, "channel": 0}, {"type": "note_on", "time": 42, "note": 65, "velocity": 109, "channel": 0}, {"type": "note_off", "time": 82, "note": 65, "velocity": 109, "channel": 0}, {"type": "note_on", "time": 24, "note": 65, "velocity": 119, "channel": 0}, {"type": "note_off", "time": 63, "note": 65, "velocity": 119, "channel": 0}, {"type": "note_on", "time": 12, "note": 64, "velocity": 103, "channel": 0}, {"type": "note_off", "time": 672, "note": 64, "velocity": 103, "channel": 0}, {"type": "end_of_track", "time": 0}]]}