{"ticks_per_beat": 192, "tracks": [[{"type": "track_name", "name": "Melody", "time": 0}, {"type": "set_tempo", "tempo": 229007, "time": 0}, {"type": "time_signature", "numerator": 4, "denominator": 4, "clocks_per_click": 24, "notated_32nd_notes_per_beat": 8, "time": 0}, {"type": "note_on", "time": 5353, "note": 65, "velocity": 108, "channel": 0}, {"type": "note_off", "time": 68, "note": 65, "velocity": 108, "channel": 0}, {"type": "note_on", "time": 5, "note": 67, "velocity": 122, "channel": 0}, {"type": "note_off", "time": 78, "note": 67, "velocity": 122, "channel": 0}, {"type": "note_on", "time": 15, "note": 68, "velocity": 121, "channel": 0}, {"type": "note_off", "time": 71, "note": 68, "velocity": 121, "channel": 0}, {"type": "note_on", "time": 18, "note": 70, "velocity": 113, "channel": 0}, {"type": "note_off", "time": 68, "note": 70, "velocity": 113, "channel": 0}, {"type": "note_on", "time": 24, "note": 74, "velocity": 118, "channel": 0}, {"type": "note_off", "time": 68, "note": 74, "velocity": 118, "channel": 0}, {"type": "note_on", "time": 23, "note": 75, "velocity": 118, "channel": 0}, {"type": "note_off", "time": 68, "note": 75, "velocity": 118, "channel": 0}, {"type": "note_on", "time": 33, "note": 75, "velocity": 122, "channel": 0}, {"type": "note_off", "time": 75, "note": 75, "velocity": 122, "channel": 0}, {"type": "note_on", "time": 2, "note": 77, "velocity": 122, "channel": 0}, {"type": "note_off", "time": 112, "note": 77, "velocity": 122, "channel": 0}, {"type": "note_on", "time": 94, "note": 79, "velocity": 109, "channel": 0}, {"type": "note_off", "time": 95, "note": 79, "velocity": 109, "channel": 0}, {"type": "note_on", "time": 85, "note": 80, "velocity": 123, "channel": 0}, {"type": "note_off", "time": 253, "note": 80, "velocity": 123, "channel": 0}, {"type": "note_on", "time": 23, "note": 79, "velocity": 121, "channel": 0}, {"type": "note_off", "time": 71, "note": 79, "velocity": 121, "channel": 0}, {"type": "note_on", "time": 119, "note": 77, "velocity": 118, "channel": 0}, {"type": "note_off", "time": 260, "note": 77, "velocity": 118, "channel": 0}, {"type": "note_on", "time": 307, "note": 73, "velocity": 122, "channel": 0}, {"type": "note_off", "time": 109, "note": 73, "velocity": 122, "channel": 0}, {"type": "note_on", "time": 17, "note": 71, "velocity": 106, "channel": 0}, {"type": "note_off", "time": 61, "note": 71, "velocity": 106, "channel": 0}, {"type": "note_on", "time": 20, "note": 72, "velocity": 121, "channel": 0}, {"type": "note_off", "time": 82, "note": 72, "velocity": 121, "channel": 0}, {"type": "note_on", "time": 27, "note": 71, "velocity": 120, "channel": 0}, {"type": "note_off", "time": 44, "note": 71, "velocity": 120, "channel": 0}, {"type": "note_on", "time": 17, "note": 70, "velocity": 109, "channel": 0}, {"type": "note_off", "time": 85, "note": 70, "velocity": 109, "channel": 0}, {"type": "note_on", "time": 13, "note": 69, "velocity": 117, "channel": 0}, {"type": "note_off", "time": 82, "note": 69, "velocity": 117, "channel": 0}, {"type": "note_on", "time": 10, "note": 68, "velocity": 106, "channel": 0}, {"type": "note_off", "time": 78, "note": 68, "velocity": 106, "channel": 0}, {"type": "note_on", "time": 23, "note": 70, "velocity": 108, "channel": 0}, {"type": "note_off", "time": 85, "note": 70, "velocity": 108, "channel": 0}, {"type": "note_on", "time": 121, "note": 65, "velocity": 115, "channel": 0}, {"type": "note_off", "time": 85, "note": 65, "velocity": 115, "channel": 0}, {"type": "note_on", "time": 123, "note": 65, "velocity": 107, "channel": 0}, {"type": "note_off", "time": 119, "note": 65, "velocity": 107, "channel": 0}, {"type": "note_on", "time": 192, "note": 63, "velocity": 108, "channel": 0}, {"type": "note_off", "time": 119, "note": 63, "velocity": 108, "channel": 0}, {"type": "note_on", "time": 54, "note": 65, "velocity": 118, "channel": 0}, {"type": "note_off", "time": 109, "note": 65, "velocity": 118, "channel": 0}, {"type": "note_on", "time": 71, "note": 66, "velocity": 113, "channel": 0}, {"type": "note_off", "time": 85, "note": 66, "velocity": 113, "channel": 0}, {"type": "note_on", "time": 0, "note": 68, "velocity": 114, "channel": 0}, {"type": "note_off", "time": 68, "note": 68, "velocity": 114, "channel": 0}, {"type": "note_on", "time": 10, "note": 70, "velocity": 122, "channel": 0}, {"type": "note_off", "time": 99, "note": 70, "velocity": 122, "channel": 0}, {"type": "note_on", "time": 6, "note": 72, "velocity": 120, "channel": 0}, {"type": "note_off", "time": 88, "note": 72, "velocity": 120, "channel": 0}, {"type": "note_on", "time": 6, "note": 73, "velocity": 120, "channel": 0}, {"type": "note_off", "time": 88, "note": 73, "velocity": 120, "channel": 0}, {"type": "note_on", "time": 17, "note": 71, "velocity": 104, "channel": 0}, {"type": "note_off", "time": 65, "note": 71, "velocity": 104, "channel": 0}, {"type": "note_on", "time": 3, "note": 72, "velocity": 121, "channel": 0}, {"type": "note_off", "time": 78, "note": 72, "velocity": 121, "channel": 0}, {"type": "note_on", "time": 27, "note": 71, "velocity": 111, "channel": 0}, {"type": "note_off", "time": 65, "note": 71, "velocity": 111, "channel": 0}, {"type": "note_on", "time": 13, "note": 70, "velocity": 112, "channel": 0}, {"type": "note_off", "time": 92, "note": 70, "velocity": 112, "channel": 0}, {"type": "note_on", "time": 6, "note": 69, "velocity": 117, "channel": 0}, {"type": "note_off", "time": 75, "note": 69, "velocity": 117, "channel": 0}, {"type": "note_on", "time": 0, "note": 72, "velocity": 115, "channel": 0}, {"type": "note_off", "time": 102, "note": 72, "velocity": 115, "channel": 0}, {"type": "note_on", "time": 6, "note": 74, "velocity": 117, "channel": 0}, {"type": "note_off", "time": 102, "note": 74, "velocity": 117, "channel": 0}, {"type": "note_on", "time": 0, "note": 75, "velocity": 119, "channel": 0}, {"type": "note_off", "time": 92, "note": 75, "velocity": 119, "channel": 0}, {"type": "note_on", "time": 27, "note": 77, "velocity": 120, "channel": 0}, {"type": "note_off", "time": 82, "note": 77, "velocity": 120, "channel": 0}, {"type": "note_on", "time": 3, "note": 79, "velocity": 122, "channel": 0}, {"type": "note_off", "time": 109, "note": 79, "velocity": 122, "channel": 0}, {"type": "note_on", "time": 0, "note": 80, "velocity": 120, "channel": 0}, {"type": "note_off", "time": 85, "note": 80, "velocity": 120, "channel": 0}, {"type": "note_on", "time": 6, "note": 79, "velocity": 122, "channel": 0}, {"type": "note_off", "time": 88, "note": 79, "velocity": 122, "channel": 0}, {"type": "note_on", "time": 10, "note": 79, "velocity": 109, "channel": 0}, {"type": "note_off", "time": 34, "note": 79, "velocity": 109, "channel": 0}, {"type": "note_on", "time": 12, "note": 78, "velocity": 119, "channel": 0}, {"type": "note_off", "time": 26, "note": 78, "velocity": 119, "channel": 0}, {"type": "note_on", "time": 5, "note": 77, "velocity": 111, "channel": 0}, {"type": "note_off", "time": 68, "note": 77, "velocity": 111, "channel": 0}, {"type": "note_on", "time": 5, "note": 78, "velocity": 97, "channel": 0}, {"type": "note_off", "time": 29, "note": 78, "velocity": 97, "channel": 0}, {"type": "note_on", "time": 2, "note": 76, "velocity": 111, "channel": 0}, {"type": "note_off", "time": 92, "note": 76, "velocity": 111, "channel": 0}, {"type": "note_on", "time": 10, "note": 75, "velocity": 118, "channel": 0}, {"type": "note_off", "time": 88, "note": 75, "velocity": 118, "channel": 0}, {"type": "note_on", "time": 3, "note": 73, "velocity": 113, "channel": 0}, {"type": "note_off", "time": 112, "note": 73, "velocity": 113, "channel": 0}, {"type": "note_on", "time": 384, "note": 71, "velocity": 117, "channel": 0}, {"type": "note_off", "time": 284, "note": 71, "velocity": 117, "channel": 0}, {"type": "note_on", "time": 1, "note": 68, "velocity": 118, "channel": 0}, {"type": "note_off", "time": 65, "note": 68, "velocity": 118, "channel": 0}, {"type": "note_on", "time": 102, "note": 70, "velocity": 119, "channel": 0}, {"type": "note_off", "time": 191, "note": 70, "velocity": 119, "channel": 0}, {"type": "note_on", "time": 3, "note": 67, "velocity": 107, "channel": 0}, {"type": "note_off", "time": 54, "note": 67, "velocity": 107, "channel": 0}, {"type": "note_on", "time": 47, "note": 68, "velocity": 115, "channel": 0}, {"type": "note_off", "time": 82, "note": 68, "velocity": 115, "channel": 0}, {"type": "note_on", "time": 3, "note": 70, "velocity": 117, "channel": 0}, {"type": "note_off", "time": 78, "note": 70, "velocity": 117, "channel": 0}, {"type": "note_on", "time": 0, "note": 71, "velocity": 120, "channel": 0}, {"type": "note_off", "time": 116, "note": 71, "velocity": 120, "channel": 0}, {"type": "note_on", "time": 160, "note": 73, "velocity": 121, "channel": 0}, {"type": "note_off", "time": 102, "note": 73, "velocity": 121, "channel": 0}, {"type": "note_on", "time": 378, "note": 67, "velocity": 85, "channel": 0}, {"type": "note_off", "time": 68, "note": 67, "velocity": 85, "channel": 0}, {"type": "note_on", "time": 101, "note": 69, "velocity": 108, "channel": 0}, {"type": "note_off", "time": 116, "note": 69, "velocity": 108, "channel": 0}, {"type": "note_on", "time": 71, "note": 70, "velocity": 120, "channel": 0}, {"type": "note_off", "time": 78, "note": 70, "velocity": 120, "channel": 0}, {"type": "note_on", "time": 17, "note": 72, "velocity": 120, "channel": 0}, {"type": "note_off", "time": 65, "note": 72, "velocity": 120, "channel": 0}, {"type": "note_on", "time": 17, "note": 73, "velocity": 113, "channel": 0}, {"type": "note_off", "time": 58, "note": 73, "velocity": 113, "channel": 0}, {"type": "note_on", "time": 58, "note": 75, "velocity": 113, "channel": 0}, {"type": "note_off", "time": 54, "note": 75, "velocity": 113, "channel": 0}, {"type": "note_on", "time": 102, "note": 77, "velocity": 110, "channel": 0}, {"type": "note_off", "time": 78, "note": 77, "velocity": 110, "channel": 0}, {"type": "note_on", "time": 27, "note": 79, "velocity": 116, "channel": 0}, {"type": "note_off", "time": 95, "note": 79, "velocity": 116, "channel": 0}, {"type": "note_on", "time": 6, "note": 80, "velocity": 122, "channel": 0}, {"type": "note_off", "time": 112, "note": 80, "velocity": 122, "channel": 0}, {"type": "note_on", "time": 704, "note": 79, "velocity": 124, "channel": 0}, {"type": "note_off", "time": 85, "note": 79, "velocity": 124, "channel": 0}, {"type": "note_on", "time": 20, "note": 76, "velocity": 107, "channel": 0}, {"type": "note_off", "time": 68, "note": 76, "velocity": 107, "channel": 0}, {"type": "note_on", "time": 0, "note": 79, "velocity": 112, "channel": 0}, {"type": "note_off", "time": 44, "note": 79, "velocity": 112, "channel": 0}, {"type": "note_on", "time": 17, "note": 77, "velocity": 108, "channel": 0}, {"type": "note_off", "time": 37, "note": 77, "velocity": 108, "channel": 0}, {"type": "note_on", "time": 13, "note": 76, "velocity": 118, "channel": 0}, {"type": "note_off", "time": 75, "note": 76, "velocity": 118, "channel": 0}, {"type": "note_on", "time": 11, "note": 75, "velocity": 115, "channel": 0}, {"type": "note_off", "time": 97, "note": 75, "velocity": 115, "channel": 0}, {"type": "note_on", "time": 5, "note": 74, "velocity": 119, "channel": 0}, {"type": "note_off", "time": 90, "note": 74, "velocity": 119, "channel": 0}, {"type": "note_on", "time": 0, "note": 72, "velocity": 110, "channel": 0}, {"type": "note_off", "time": 71, "note": 72, "velocity": 110, "channel": 0}, {"type": "note_on", "time": 10, "note": 71, "velocity": 119, "channel": 0}, {"type": "note_off", "time": 65, "note": 71, "velocity": 119, "channel": 0}, {"type": "note_on", "time": 17, "note": 70, "velocity": 118, "channel": 0}, {"type": "note_off", "time": 85, "note": 70, "velocity": 118, "channel": 0}, {"type": "note_on", "time": 20, "note": 69, "velocity": 117, "channel": 0}, {"type": "note_off", "time": 68, "note": 69, "velocity": 117, "channel": 0}, {"type": "note_on", "time": 13, "note": 68, "velocity": 110, "channel": 0}, {"type": "note_off", "time": 71, "note": 68, "velocity": 110, "channel": 0}, {"type": "note_on", "time": 37, "note": 70, "velocity": 118, "channel": 0}, {"type": "note_off", "time": 85, "note": 70, "velocity": 118, "channel": 0}, {"type": "note_on", "time": 11, "note": 68, "velocity": 91, "channel": 0}, {"type": "note_off", "time": 114, "note": 68, "velocity": 91, "channel": 0}, {"type": "note_on", "time": 1, "note": 65, "velocity": 86, "channel": 0}, {"type": "note_off", "time": 30, "note": 65, "velocity": 86, "channel": 0}, {"type": "note_on", "time": 73, "note": 69, "velocity": 111, "channel": 0}, {"type": "note_off", "time": 99, "note": 69, "velocity": 111, "channel": 0}, {"type": "note_on", "time": 11, "note": 65, "velocity": 90, "channel": 0}, {"type": "note_off", "time": 51, "note": 65, "velocity": 90, "channel": 0}, {"type": "note_on", "time": 9, "note": 70, "velocity": 122, "channel": 0}, {"type": "note_off", "time": 75, "note": 70, "velocity": 122, "channel": 0}, {"type": "note_on", "time": 17, "note": 65, "velocity": 103, "channel": 0}, {"type": "note_off", "time": 65, "note": 65, "velocity": 103, "channel": 0}, {"type": "note_on", "time": 22, "note": 72, "velocity": 122, "channel": 0}, {"type": "note_off", "time": 82, "note": 72, "velocity": 122, "channel": 0}, {"type": "note_on", "time": 31, "note": 68, "velocity": 95, "channel": 0}, {"type": "note_off", "time": 43, "note": 68, "velocity": 95, "channel": 0}, {"type": "note_on", "time": 31, "note": 73, "velocity": 121, "channel": 0}, {"type": "note_off", "time": 138, "note": 73, "velocity": 121, "channel": 0}, {"type": "note_on", "time": 15, "note": 72, "velocity": 88, "channel": 0}, {"type": "note_off", "time": 37, "note": 72, "velocity": 88, "channel": 0}, {"type": "note_on", "time": 0, "note": 75, "velocity": 121, "channel": 0}, {"type": "note_off", "time": 88, "note": 75, "velocity": 121, "channel": 0}, {"type": "note_on", "time": 27, "note": 77, "velocity": 113, "channel": 0}, {"type": "note_off", "time": 75, "note": 77, "velocity": 113, "channel": 0}, {"type": "note_on", "time": 68, "note": 81, "velocity": 117, "channel": 0}, {"type": "note_off", "time": 119, "note": 81, "velocity": 117, "channel": 0}, {"type": "note_on", "time": 10, "note": 80, "velocity": 119, "channel": 0}, {"type": "note_off", "time": 75, "note": 80, "velocity": 119, "channel": 0}, {"type": "note_on", "time": 3, "note": 82, "velocity": 124, "channel": 0}, {"type": "note_off", "time": 92, "note": 82, "velocity": 124, "channel": 0}, {"type": "note_on", "time": 85, "note": 84, "velocity": 123, "channel": 0}, {"type": "note_off", "time": 277, "note": 84, "velocity": 123, "channel": 0}, {"type": "note_on", "time": 0, "note": 82, "velocity": 122, "channel": 0}, {"type": "note_off", "time": 284, "note": 82, "velocity": 122, "channel": 0}, {"type": "note_on", "time": 20, "note": 80, "velocity": 119, "channel": 0}, {"type": "note_off", "time": 273, "note": 80, "velocity": 119, "channel": 0}, {"type": "note_on", "time": 13, "note": 79, "velocity": 123, "channel": 0}, {"type": "note_off", "time": 246, "note": 79, "velocity": 123, "channel": 0}, {"type": "note_on", "time": 8, "note": 77, "velocity": 112, "channel": 0}, {"type": "note_off", "time": 39, "note": 77, "velocity": 112, "channel": 0}, {"type": "note_on", "time": 10, "note": 76, "velocity": 123, "channel": 0}, {"type": "note_off", "time": 133, "note": 76, "velocity": 123, "channel": 0}, {"type": "note_on", "time": 561, "note": 66, "velocity": 96, "channel": 0}, {"type": "note_off", "time": 123, "note": 66, "velocity": 96, "channel": 0}, {"type": "note_on", "time": 10, "note": 68, "velocity": 119, "channel": 0}, {"type": "note_off", "time": 489, "note": 68, "velocity": 119, "channel": 0}, {"type": "note_on", "time": 13, "note": 70, "velocity": 119, "channel": 0}, {"type": "note_off", "time": 68, "note": 70, "velocity": 119, "channel": 0}, {"type": "note_on", "time": 6, "note": 72, "velocity": 124, "channel": 0}, {"type": "note_off", "time": 78, "note": 72, "velocity": 124, "channel": 0}, {"type": "note_on", "time": 6, "note": 73, "velocity": 123, "channel": 0}, {"type": "note_off", "time": 92, "note": 73, "velocity": 123, "channel": 0}, {"type": "note_on", "time": 581, "note": 65, "velocity": 84, "channel": 0}, {"type": "note_off", "time": 54, "note": 65, "velocity": 84, "channel": 0}, {"type": "note_on", "time": 3, "note": 67, "velocity": 83, "channel": 0}, {"type": "note_on", "time": 37, "note": 68, "velocity": 92, "channel": 0}, {"type": "note_off", "time": 0, "note": 67, "velocity": 83, "channel": 0}, {"type": "note_off", "time": 44, "note": 68, "velocity": 92, "channel": 0}, {"type": "note_on", "time": 17, "note": 70, "velocity": 112, "channel": 0}, {"type": "note_off", "time": 85, "note": 70, "velocity": 112, "channel": 0}, {"type": "note_on", "time": 3, "note": 72, "velocity": 119, "channel": 0}, {"type": "note_off", "time": 82, "note": 72, "velocity": 119, "channel": 0}, {"type": "note_on", "time": 27, "note": 73, "velocity": 118, "channel": 0}, {"type": "note_off", "time": 88, "note": 73, "velocity": 118, "channel": 0}, {"type": "note_on", "time": 3, "note": 75, "velocity": 123, "channel": 0}, {"type": "note_off", "time": 88, "note": 75, "velocity": 123, "channel": 0}, {"type": "note_on", "time": 0, "note": 77, "velocity": 111, "channel": 0}, {"type": "note_off", "time": 95, "note": 77, "velocity": 111, "channel": 0}, {"type": "note_on", "time": 17, "note": 79, "velocity": 125, "channel": 0}, {"type": "note_off", "time": 253, "note": 79, "velocity": 125, "channel": 0}, {"type": "note_on", "time": 0, "note": 80, "velocity": 121, "channel": 0}, {"type": "note_off", "time": 116, "note": 80, "velocity": 121, "channel": 0}, {"type": "note_on", "time": 653, "note": 70, "velocity": 112, "channel": 0}, {"type": "note_off", "time": 88, "note": 70, "velocity": 112, "channel": 0}, {"type": "note_on", "time": 0, "note": 72, "velocity": 119, "channel": 0}, {"type": "note_off", "time": 51, "note": 72, "velocity": 119, "channel": 0}, {"type": "note_on", "time": 17, "note": 72, "velocity": 121, "channel": 0}, {"type": "note_off", "time": 246, "note": 72, "velocity": 121, "channel": 0}, {"type": "note_on", "time": 10, "note": 72, "velocity": 91, "channel": 0}, {"type": "note_off", "time": 143, "note": 72, "velocity": 91, "channel": 0}, {"type": "note_on", "time": 47, "note": 72, "velocity": 123, "channel": 0}, {"type": "note_off", "time": 75, "note": 72, "velocity": 123, "channel": 0}, {"type": "note_on", "time": 10, "note": 72, "velocity": 118, "channel": 0}, {"type": "note_off", "time": 140, "note": 72, "velocity": 118, "channel": 0}, {"type": "note_on", "time": 410, "note": 70, "velocity": 121, "channel": 0}, {"type": "note_off", "time": 172, "note": 70, "velocity": 121, "channel": 0}, {"type": "note_on", "time": 1, "note": 67, "velocity": 95, "channel": 0}, {"type": "note_off", "time": 106, "note": 67, "velocity": 95, "channel": 0}, {"type": "note_on", "time": 20, "note": 68, "velocity": 115, "channel": 0}, {"type": "note_off", "time": 126, "note": 68, "velocity": 115, "channel": 0}, {"type": "note_on", "time": 18, "note": 67, "velocity": 88, "channel": 0}, {"type": "note_off", "time": 92, "note": 67, "velocity": 88, "channel": 0}, {"type": "note_on", "time": 16, "note": 66, "velocity": 94, "channel": 0}, {"type": "note_off", "time": 34, "note": 66, "velocity": 94, "channel": 0}, {"type": "note_on", "time": 4, "note": 65, "velocity": 111, "channel": 0}, {"type": "note_off", "time": 41, "note": 65, "velocity": 111, "channel": 0}, {"type": "note_on", "time": 7, "note": 64, "velocity": 99, "channel": 0}, {"type": "note_off", "time": 80, "note": 64, "velocity": 99, "channel": 0}, {"type": "note_on", "time": 45, "note": 62, "velocity": 97, "channel": 0}, {"type": "note_off", "time": 93, "note": 62, "velocity": 97, "channel": 0}, {"type": "note_on", "time": 0, "note": 63, "velocity": 105, "channel": 0}, {"type": "note_off", "time": 60, "note": 63, "velocity": 105, "channel": 0}, {"type": "note_on", "time": 25, "note": 65, "velocity": 113, "channel": 0}, {"type": "note_off", "time": 68, "note": 65, "velocity": 113, "channel": 0}, {"type": "note_on", "time": 15, "note": 66, "velocity": 108, "channel": 0}, {"type": "note_off", "time": 76, "note": 66, "velocity": 108, "channel": 0}, {"type": "note_on", "time": 6, "note": 68, "velocity": 87, "channel": 0}, {"type": "note_off", "time": 28, "note": 68, "velocity": 87, "channel": 0}, {"type": "note_on", "time": 0, "note": 69, "velocity": 118, "channel": 0}, {"type": "note_off", "time": 65, "note": 69, "velocity": 118, "channel": 0}, {"type": "note_on", "time": 451, "note": 67, "velocity": 92, "channel": 0}, {"type": "note_off", "time": 43, "note": 67, "velocity": 92, "channel": 0}, {"type": "note_on", "time": 2, "note": 68, "velocity": 88, "channel": 0}, {"type": "note_off", "time": 51, "note": 68, "velocity": 88, "channel": 0}, {"type": "note_on", "time": 53, "note": 69, "velocity": 115, "channel": 0}, {"type": "note_off", "time": 73, "note": 69, "velocity": 115, "channel": 0}, {"type": "note_on", "time": 4, "note": 70, "velocity": 113, "channel": 0}, {"type": "note_off", "time": 85, "note": 70, "velocity": 113, "channel": 0}, {"type": "note_on", "time": 7, "note": 71, "velocity": 100, "channel": 0}, {"type": "note_off", "time": 70, "note": 71, "velocity": 100, "channel": 0}, {"type": "note_on", "time": 21, "note": 72, "velocity": 114, "channel": 0}, {"type": "note_off", "time": 80, "note": 72, "velocity": 114, "channel": 0}, {"type": "note_on", "time": 21, "note": 73, "velocity": 111, "channel": 0}, {"type": "note_off", "time": 85, "note": 73, "velocity": 111, "channel": 0}, {"type": "note_on", "time": 9, "note": 73, "velocity": 116, "channel": 0}, {"type": "note_off", "time": 87, "note": 73, "velocity": 116, "channel": 0}, {"type": "note_on", "time": 107, "note": 75, "velocity": 111, "channel": 0}, {"type": "note_off", "time": 70, "note": 75, "velocity": 111, "channel": 0}, {"type": "note_on", "time": 228, "note": 77, "velocity": 120, "channel": 0}, {"type": "note_off", "time": 90, "note": 77, "velocity": 120, "channel": 0}, {"type": "note_on", "time": 92, "note": 78, "velocity": 124, "channel": 0}, {"type": "note_off", "time": 99, "note": 78, "velocity": 124, "channel": 0}, {"type": "note_on", "time": 82, "note": 80, "velocity": 121, "channel": 0}, {"type": "note_off", "time": 87, "note": 80, "velocity": 121, "channel": 0}, {"type": "note_on", "time": 12, "note": 82, "velocity": 116, "channel": 0}, {"type": "note_off", "time": 99, "note": 82, "velocity": 116, "channel": 0}, {"type": "note_on", "time": 932, "note": 79, "velocity": 123, "channel": 0}, {"type": "note_off", "time": 674, "note": 79, "velocity": 123, "channel": 0}, {"type": "note_on", "time": 12, "note": 76, "velocity": 117, "channel": 0}, {"type": "note_off", "time": 68, "note": 76, "velocity": 117, "channel": 0}, {"type": "note_on", "time": 23, "note": 75, "velocity": 123, "channel": 0}, {"type": "note_off", "time": 192, "note": 75, "velocity": 123, "channel": 0}, {"type": "note_on", "time": 4, "note": 73, "velocity": 120, "channel": 0}, {"type": "note_off", "time": 172, "note": 73, "velocity": 120, "channel": 0}, {"type": "note_on", "time": 11, "note": 71, "velocity": 120, "channel": 0}, {"type": "note_off", "time": 192, "note": 71, "velocity": 120, "channel": 0}, {"type": "note_on", "time": 2, "note": 70, "velocity": 118, "channel": 0}, {"type": "note_off", "time": 128, "note": 70, "velocity": 118, "channel": 0}, {"type": "note_on", "time": 345, "note": 67, "velocity": 110, "channel": 0}, {"type": "note_off", "time": 189, "note": 67, "velocity": 110, "channel": 0}, {"type": "note_on", "time": 7, "note": 69, "velocity": 118, "channel": 0}, {"type": "note_off", "time": 94, "note": 69, "velocity": 118, "channel": 0}, {"type": "note_on", "time": 9, "note": 70, "velocity": 120, "channel": 0}, {"type": "note_off", "time": 77, "note": 70, "velocity": 120, "channel": 0}, {"type": "note_on", "time": 7, "note": 72, "velocity": 123, "channel": 0}, {"type": "note_off", "time": 99, "note": 72, "velocity": 123, "channel": 0}, {"type": "note_on", "time": 4, "note": 73, "velocity": 122, "channel": 0}, {"type": "note_off", "time": 155, "note": 73, "velocity": 122, "channel": 0}, {"type": "note_on", "time": 2, "note": 75, "velocity": 122, "channel": 0}, {"type": "note_off", "time": 221, "note": 75, "velocity": 122, "channel": 0}, {"type": "note_on", "time": 0, "note": 77, "velocity": 118, "channel": 0}, {"type": "note_off", "time": 172, "note": 77, "velocity": 118, "channel": 0}, {"type": "note_on", "time": 4, "note": 79, "velocity": 113, "channel": 0}, {"type": "note_off", "time": 75, "note": 79, "velocity": 113, "channel": 0}, {"type": "note_on", "time": 428, "note": 79, "velocity": 125, "channel": 0}, {"type": "note_off", "time": 411, "note": 79, "velocity": 125, "channel": 0}, {"type": "note_on", "time": 13, "note": 80, "velocity": 120, "channel": 0}, {"type": "note_on", "time": 200, "note": 79, "velocity": 116, "channel": 0}, {"type": "note_off", "time": 0, "note": 80, "velocity": 120, "channel": 0}, {"type": "note_off", "time": 83, "note": 79, "velocity": 116, "channel": 0}, {"type": "note_on", "time": 109, "note": 77, "velocity": 121, "channel": 0}, {"type": "note_off", "time": 172, "note": 77, "velocity": 121, "channel": 0}, {"type": "note_on", "time": 4, "note": 75, "velocity": 109, "channel": 0}, {"type": "note_off", "time": 73, "note": 75, "velocity": 109, "channel": 0}, {"type": "note_on", "time": 450, "note": 77, "velocity": 118, "channel": 0}, {"type": "note_off", "time": 46, "note": 77, "velocity": 118, "channel": 0}, {"type": "note_on", "time": 7, "note": 76, "velocity": 119, "channel": 0}, {"type": "note_off", "time": 97, "note": 76, "velocity": 119, "channel": 0}, {"type": "note_on", "time": 7, "note": 75, "velocity": 123, "channel": 0}, {"type": "note_off", "time": 199, "note": 75, "velocity": 123, "channel": 0}, {"type": "note_on", "time": 17, "note": 72, "velocity": 120, "channel": 0}, {"type": "note_off", "time": 65, "note": 72, "velocity": 120, "channel": 0}, {"type": "note_on", "time": 94, "note": 68, "velocity": 104, "channel": 0}, {"type": "note_off", "time": 73, "note": 68, "velocity": 104, "channel": 0}, {"type": "note_on", "time": 138, "note": 72, "velocity": 95, "channel": 0}, {"type": "note_off", "time": 73, "note": 72, "velocity": 95, "channel": 0}, {"type": "note_on", "time": 0, "note": 73, "velocity": 119, "channel": 0}, {"type": "note_off", "time": 107, "note": 73, "velocity": 119, "channel": 0}, {"type": "note_on", "time": 218, "note": 73, "velocity": 102, "channel": 0}, {"type": "note_off", "time": 47, "note": 73, "velocity": 102, "channel": 0}, {"type": "note_on", "time": 10, "note": 73, "velocity": 118, "channel": 0}, {"type": "note_off", "time": 183, "note": 73, "velocity": 118, "channel": 0}, {"type": "note_on", "time": 7, "note": 71, "velocity": 114, "channel": 0}, {"type": "note_off", "time": 70, "note": 71, "velocity": 114, "channel": 0}, {"type": "note_on", "time": 77, "note": 72, "velocity": 117, "channel": 0}, {"type": "note_off", "time": 107, "note": 72, "velocity": 117, "channel": 0}, {"type": "note_on", "time": 60, "note": 71, "velocity": 106, "channel": 0}, {"type": "note_off", "time": 87, "note": 71, "velocity": 106, "channel": 0}, {"type": "note_on", "time": 13, "note": 70, "velocity": 117, "channel": 0}, {"type": "note_off", "time": 78, "note": 70, "velocity": 117, "channel": 0}, {"type": "note_on", "time": 0, "note": 69, "velocity": 113, "channel": 0}, {"type": "note_off", "time": 80, "note": 69, "velocity": 113, "channel": 0}, {"type": "note_on", "time": 14, "note": 68, "velocity": 96, "channel": 0}, {"type": "note_off", "time": 90, "note": 68, "velocity": 96, "channel": 0}, {"type": "note_on", "time": 29, "note": 64, "velocity": 105, "channel": 0}, {"type": "note_off", "time": 35, "note": 64, "velocity": 105, "channel": 0}, {"type": "note_on", "time": 1, "note": 65, "velocity": 86, "channel": 0}, {"type": "note_off", "time": 53, "note": 65, "velocity": 86, "channel": 0}, {"type": "note_on", "time": 4, "note": 62, "velocity": 87, "channel": 0}, {"type": "note_off", "time": 41, "note": 62, "velocity": 87, "channel": 0}, {"type": "note_on", "time": 13, "note": 58, "velocity": 95, "channel": 0}, {"type": "note_off", "time": 41, "note": 58, "velocity": 95, "channel": 0}, {"type": "note_on", "time": 13, "note": 57, "velocity": 105, "channel": 0}, {"type": "note_off", "time": 42, "note": 57, "velocity": 105, "channel": 0}, {"type": "note_on", "time": 9, "note": 56, "velocity": 102, "channel": 0}, {"type": "note_off", "time": 77, "note": 56, "velocity": 102, "channel": 0}, {"type": "note_on", "time": 4, "note": 58, "velocity": 109, "channel": 0}, {"type": "note_off", "time": 55, "note": 58, "velocity": 109, "channel": 0}, {"type": "note_on", "time": 24, "note": 62, "velocity": 95, "channel": 0}, {"type": "note_off", "time": 82, "note": 62, "velocity": 95, "channel": 0}, {"type": "note_on", "time": 1, "note": 63, "velocity": 90, "channel": 0}, {"type": "note_off", "time": 27, "note": 63, "velocity": 90, "channel": 0}, {"type": "note_on", "time": 1, "note": 64, "velocity": 94, "channel": 0}, {"type": "note_off", "time": 17, "note": 64, "velocity": 94, "channel": 0}, {"type": "note_on", "time": 0, "note": 65, "velocity": 89, "channel": 0}, {"type": "note_off", "time": 63, "note": 65, "velocity": 89, "channel": 0}, {"type": "note_on", "time": 9, "note": 65, "velocity": 111, "channel": 0}, {"type": "note_off", "time": 73, "note": 65, "velocity": 111, "channel": 0}, {"type": "note_on", "time": 21, "note": 63, "velocity": 95, "channel": 0}, {"type": "note_off", "time": 48, "note": 63, "velocity": 95, "channel": 0}, {"type": "note_on", "time": 12, "note": 64, "velocity": 97, "channel": 0}, {"type": "note_off", "time": 155, "note": 64, "velocity": 97, "channel": 0}, {"type": "note_on", "time": 374, "note": 64, "velocity": 115, "channel": 0}, {"type": "note_off", "time": 163, "note": 64, "velocity": 115, "channel": 0}, {"type": "note_on", "time": 0, "note": 62, "velocity": 88, "channel": 0}, {"type": "note_off", "time": 68, "note": 62, "velocity": 88, "channel": 0}, {"type": "note_on", "time": 14, "note": 63, "velocity": 98, "channel": 0}, {"type": "note_off", "time": 78, "note": 63, "velocity": 98, "channel": 0}, {"type": "note_on", "time": 10, "note": 65, "velocity": 109, "channel": 0}, {"type": "note_off", "time": 87, "note": 65, "velocity": 109, "channel": 0}, {"type": "note_on", "time": 18, "note": 67, "velocity": 102, "channel": 0}, {"type": "note_off", "time": 68, "note": 67, "velocity": 102, "channel": 0}, {"type": "note_on", "time": 2, "note": 69, "velocity": 119, "channel": 0}, {"type": "note_off", "time": 99, "note": 69, "velocity": 119, "channel": 0}, {"type": "note_on", "time": 7, "note": 70, "velocity": 121, "channel": 0}, {"type": "note_off", "time": 68, "note": 70, "velocity": 121, "channel": 0}, {"type": "note_on", "time": 7, "note": 69, "velocity": 110, "channel": 0}, {"type": "note_off", "time": 102, "note": 69, "velocity": 110, "channel": 0}, {"type": "note_on", "time": 4, "note": 68, "velocity": 99, "channel": 0}, {"type": "note_off", "time": 85, "note": 68, "velocity": 99, "channel": 0}, {"type": "note_on", "time": 116, "note": 70, "velocity": 120, "channel": 0}, {"type": "note_off", "time": 148, "note": 70, "velocity": 120, "channel": 0}, {"type": "note_on", "time": 7, "note": 71, "velocity": 121, "channel": 0}, {"type": "note_off", "time": 187, "note": 71, "velocity": 121, "channel": 0}, {"type": "note_on", "time": 17, "note": 70, "velocity": 116, "channel": 0}, {"type": "note_off", "time": 75, "note": 70, "velocity": 116, "channel": 0}, {"type": "note_on", "time": 53, "note": 70, "velocity": 115, "channel": 0}, {"type": "note_off", "time": 150, "note": 70, "velocity": 115, "channel": 0}, {"type": "note_on", "time": 0, "note": 69, "velocity": 102, "channel": 0}, {"type": "note_off", "time": 80, "note": 69, "velocity": 102, "channel": 0}, {"type": "note_on", "time": 635, "note": 61, "velocity": 87, "channel": 0}, {"type": "note_off", "time": 38, "note": 61, "velocity": 87, "channel": 0}, {"type": "note_on", "time": 102, "note": 66, "velocity": 121, "channel": 0}, {"type": "note_off", "time": 382, "note": 66, "velocity": 121, "channel": 0}, {"type": "note_on", "time": 77, "note": 61, "velocity": 98, "channel": 0}, {"type": "note_off", "time": 82, "note": 61, "velocity": 98, "channel": 0}, {"type": "note_on", "time": 9, "note": 60, "velocity": 110, "channel": 0}, {"type": "note_off", "time": 43, "note": 60, "velocity": 110, "channel": 0}, {"type": "note_on", "time": 138, "note": 61, "velocity": 91, "channel": 0}, {"type": "note_off", "time": 167, "note": 61, "velocity": 91, "channel": 0}, {"type": "note_on", "time": 82, "note": 63, "velocity": 106, "channel": 0}, {"type": "note_off", "time": 119, "note": 63, "velocity": 106, "channel": 0}, {"type": "note_on", "time": 65, "note": 65, "velocity": 114, "channel": 0}, {"type": "note_off", "time": 111, "note": 65, "velocity": 114, "channel": 0}, {"type": "note_on", "time": 487, "note": 63, "velocity": 104, "channel": 0}, {"type": "note_off", "time": 102, "note": 63, "velocity": 104, "channel": 0}, {"type": "note_on", "time": 84, "note": 65, "velocity": 113, "channel": 0}, {"type": "note_off", "time": 170, "note": 65, "velocity": 113, "channel": 0}, {"type": "note_on", "time": 21, "note": 66, "velocity": 117, "channel": 0}, {"type": "note_off", "time": 114, "note": 66, "velocity": 117, "channel": 0}, {"type": "note_on", "time": 11, "note": 65, "velocity": 113, "channel": 0}, {"type": "note_off", "time": 153, "note": 65, "velocity": 113, "channel": 0}, {"type": "note_on", "time": 22, "note": 61, "velocity": 102, "channel": 0}, {"type": "note_off", "time": 85, "note": 61, "velocity": 102, "channel": 0}, {"type": "note_on", "time": 136, "note": 60, "velocity": 112, "channel": 0}, {"type": "note_off", "time": 60, "note": 60, "velocity": 112, "channel": 0}, {"type": "note_on", "time": 379, "note": 65, "velocity": 98, "channel": 0}, {"type": "note_off", "time": 124, "note": 65, "velocity": 98, "channel": 0}, {"type": "note_on", "time": 66, "note": 65, "velocity": 110, "channel": 0}, {"type": "note_off", "time": 285, "note": 65, "velocity": 110, "channel": 0}, {"type": "note_on", "time": 30, "note": 67, "velocity": 119, "channel": 0}, {"type": "note_off", "time": 94, "note": 67, "velocity": 119, "channel": 0}, {"type": "note_on", "time": 2, "note": 68, "velocity": 120, "channel": 0}, {"type": "note_off", "time": 68, "note": 68, "velocity": 120, "channel": 0}, {"type": "note_on", "time": 9, "note": 70, "velocity": 122, "channel": 0}, {"type": "note_off", "time": 75, "note": 70, "velocity": 122, "channel": 0}, {"type": "note_on", "time": 4, "note": 67, "velocity": 96, "channel": 0}, {"type": "note_off", "time": 94, "note": 67, "velocity": 96, "channel": 0}, {"type": "note_on", "time": 9, "note": 69, "velocity": 106, "channel": 0}, {"type": "note_off", "time": 53, "note": 69, "velocity": 106, "channel": 0}, {"type": "note_on", "time": 12, "note": 70, "velocity": 118, "channel": 0}, {"type": "note_off", "time": 85, "note": 70, "velocity": 118, "channel": 0}, {"type": "note_on", "time": 0, "note": 71, "velocity": 112, "channel": 0}, {"type": "note_off", "time": 46, "note": 71, "velocity": 112, "channel": 0}, {"type": "note_on", "time": 2, "note": 72, "velocity": 118, "channel": 0}, {"type": "note_off", "time": 160, "note": 72, "velocity": 118, "channel": 0}, {"type": "note_on", "time": 92, "note": 72, "velocity": 121, "channel": 0}, {"type": "note_off", "time": 121, "note": 72, "velocity": 121, "channel": 0}, {"type": "note_on", "time": 7, "note": 71, "velocity": 118, "channel": 0}, {"type": "note_off", "time": 75, "note": 71, "velocity": 118, "channel": 0}, {"type": "note_on", "time": 77, "note": 71, "velocity": 120, "channel": 0}, {"type": "note_off", "time": 102, "note": 71, "velocity": 120, "channel": 0}, {"type": "note_on", "time": 4, "note": 70, "velocity": 117, "channel": 0}, {"type": "note_off", "time": 80, "note": 70, "velocity": 117, "channel": 0}, {"type": "note_on", "time": 14, "note": 70, "velocity": 116, "channel": 0}, {"type": "note_off", "time": 160, "note": 70, "velocity": 116, "channel": 0}, {"type": "note_on", "time": 12, "note": 69, "velocity": 114, "channel": 0}, {"type": "note_off", "time": 94, "note": 69, "velocity": 114, "channel": 0}, {"type": "note_on", "time": 4, "note": 68, "velocity": 106, "channel": 0}, {"type": "note_off", "time": 68, "note": 68, "velocity": 106, "channel": 0}, {"type": "note_on", "time": 34, "note": 69, "velocity": 118, "channel": 0}, {"type": "note_off", "time": 60, "note": 69, "velocity": 118, "channel": 0}, {"type": "note_on", "time": 102, "note": 65, "velocity": 117, "channel": 0}, {"type": "note_off", "time": 94, "note": 65, "velocity": 117, "channel": 0}, {"type": "note_on", "time": 4, "note": 64, "velocity": 109, "channel": 0}, {"type": "note_off", "time": 90, "note": 64, "velocity": 109, "channel": 0}, {"type": "note_on", "time": 7, "note": 62, "velocity": 94, "channel": 0}, {"type": "note_off", "time": 87, "note": 62, "velocity": 94, "channel": 0}, {"type": "note_on", "time": 2, "note": 63, "velocity": 110, "channel": 0}, {"type": "note_off", "time": 82, "note": 63, "velocity": 110, "channel": 0}, {"type": "note_on", "time": 14, "note": 65, "velocity": 116, "channel": 0}, {"type": "note_off", "time": 82, "note": 65, "velocity": 116, "channel": 0}, {"type": "note_on", "time": 14, "note": 67, "velocity": 104, "channel": 0}, {"type": "note_off", "time": 92, "note": 67, "velocity": 104, "channel": 0}, {"type": "note_on", "time": 7, "note": 69, "velocity": 96, "channel": 0}, {"type": "note_off", "time": 75, "note": 69, "velocity": 96, "channel": 0}, {"type": "note_on", "time": 12, "note": 70, "velocity": 117, "channel": 0}, {"type": "note_off", "time": 80, "note": 70, "velocity": 117, "channel": 0}, {"type": "note_on", "time": 32, "note": 67, "velocity": 89, "channel": 0}, {"type": "note_off", "time": 54, "note": 67, "velocity": 89, "channel": 0}, {"type": "note_on", "time": 15, "note": 72, "velocity": 112, "channel": 0}, {"type": "note_off", "time": 99, "note": 72, "velocity": 112, "channel": 0}, {"type": "note_on", "time": 87, "note": 74, "velocity": 122, "channel": 0}, {"type": "note_off", "time": 209, "note": 74, "velocity": 122, "channel": 0}, {"type": "note_on", "time": 2, "note": 77, "velocity": 120, "channel": 0}, {"type": "note_off", "time": 287, "note": 77, "velocity": 120, "channel": 0}, {"type": "note_on", "time": 7, "note": 75, "velocity": 123, "channel": 0}, {"type": "note_off", "time": 146, "note": 75, "velocity": 123, "channel": 0}, {"type": "note_on", "time": 58, "note": 73, "velocity": 112, "channel": 0}, {"type": "note_off", "time": 233, "note": 73, "velocity": 112, "channel": 0}, {"type": "note_on", "time": 1591, "note": 79, "velocity": 124, "channel": 0}, {"type": "note_off", "time": 508, "note": 79, "velocity": 124, "channel": 0}, {"type": "note_on", "time": 0, "note": 78, "velocity": 111, "channel": 0}, {"type": "note_off", "time": 43, "note": 78, "velocity": 111, "channel": 0}, {"type": "note_on", "time": 0, "note": 76, "velocity": 120, "channel": 0}, {"type": "note_off", "time": 85, "note": 76, "velocity": 120, "channel": 0}, {"type": "note_on", "time": 0, "note": 75, "velocity": 121, "channel": 0}, {"type": "note_off", "time": 104, "note": 75, "velocity": 121, "channel": 0}, {"type": "note_on", "time": 17, "note": 73, "velocity": 124, "channel": 0}, {"type": "note_off", "time": 133, "note": 73, "velocity": 124, "channel": 0}, {"type": "note_on", "time": 0, "note": 72, "velocity": 120, "channel": 0}, {"type": "note_off", "time": 179, "note": 72, "velocity": 120, "channel": 0}, {"type": "note_on", "time": 8, "note": 73, "velocity": 89, "channel": 0}, {"type": "note_off", "time": 54, "note": 73, "velocity": 89, "channel": 0}, {"type": "note_on", "time": 12, "note": 71, "velocity": 116, "channel": 0}, {"type": "note_off", "time": 189, "note": 71, "velocity": 116, "channel": 0}, {"type": "note_on", "time": 596, "note": 70, "velocity": 10, "channel": 0}, {"type": "note_off", "time": 97, "note": 70, "velocity": 10, "channel": 0}, {"type": "note_on", "time": 0, "note": 72, "velocity": 50, "channel": 0}, {"type": "note_off", "time": 82, "note": 72, "velocity": 50, "channel": 0}, {"type": "note_on", "time": 2, "note": 74, "velocity": 108, "channel": 0}, {"type": "note_off", "time": 75, "note": 74, "velocity": 108, "channel": 0}, {"type": "note_on", "time": 0, "note": 77, "velocity": 118, "channel": 0}, {"type": "note_off", "time": 90, "note": 77, "velocity": 118, "channel": 0}, {"type": "note_on", "time": 4, "note": 76, "velocity": 115, "channel": 0}, {"type": "note_off", "time": 126, "note": 76, "velocity": 115, "channel": 0}, {"type": "note_on", "time": 7, "note": 77, "velocity": 121, "channel": 0}, {"type": "note_off", "time": 73, "note": 77, "velocity": 121, "channel": 0}, {"type": "note_on", "time": 17, "note": 77, "velocity": 122, "channel": 0}, {"type": "note_off", "time": 75, "note": 77, "velocity": 122, "channel": 0}, {"type": "note_on", "time": 1, "note": 79, "velocity": 127, "channel": 0}, {"type": "note_off", "time": 80, "note": 79, "velocity": 127, "channel": 0}, {"type": "note_on", "time": 8, "note": 79, "velocity": 111, "channel": 0}, {"type": "note_off", "time": 119, "note": 79, "velocity": 111, "channel": 0}, {"type": "note_on", "time": 558, "note": 79, "velocity": 124, "channel": 0}, {"type": "note_off", "time": 80, "note": 79, "velocity": 124, "channel": 0}, {"type": "note_on", "time": 2, "note": 80, "velocity": 114, "channel": 0}, {"type": "note_off", "time": 68, "note": 80, "velocity": 114, "channel": 0}, {"type": "note_on", "time": 12, "note": 78, "velocity": 118, "channel": 0}, {"type": "note_off", "time": 63, "note": 78, "velocity": 118, "channel": 0}, {"type": "note_on", "time": 7, "note": 79, "velocity": 117, "channel": 0}, {"type": "note_off", "time": 102, "note": 79, "velocity": 117, "channel": 0}, {"type": "note_on", "time": 17, "note": 77, "velocity": 118, "channel": 0}, {"type": "note_off", "time": 160, "note": 77, "velocity": 118, "channel": 0}, {"type": "note_on", "time": 2, "note": 76, "velocity": 121, "channel": 0}, {"type": "note_off", "time": 97, "note": 76, "velocity": 121, "channel": 0}, {"type": "note_on", "time": 9, "note": 75, "velocity": 119, "channel": 0}, {"type": "note_off", "time": 82, "note": 75, "velocity": 119, "channel": 0}, {"type": "note_on", "time": 7, "note": 72, "velocity": 115, "channel": 0}, {"type": "note_off", "time": 92, "note": 72, "velocity": 115, "channel": 0}, {"type": "note_on", "time": 4, "note": 73, "velocity": 112, "channel": 0}, {"type": "note_off", "time": 87, "note": 73, "velocity": 112, "channel": 0}, {"type": "note_on", "time": 21, "note": 71, "velocity": 88, "channel": 0}, {"type": "note_off", "time": 58, "note": 71, "velocity": 88, "channel": 0}, {"type": "note_on", "time": 7, "note": 72, "velocity": 112, "channel": 0}, {"type": "note_off", "time": 124, "note": 72, "velocity": 112, "channel": 0}, {"type": "note_on", "time": 82, "note": 77, "velocity": 120, "channel": 0}, {"type": "note_off", "time": 267, "note": 77, "velocity": 120, "channel": 0}, {"type": "note_on", "time": 12, "note": 74, "velocity": 112, "channel": 0}, {"type": "note_off", "time": 51, "note": 74, "velocity": 112, "channel": 0}, {"type": "note_on", "time": 4, "note": 75, "velocity": 114, "channel": 0}, {"type": "note_off", "time": 55, "note": 75, "velocity": 114, "channel": 0}, {"type": "note_on", "time": 87, "note": 72, "velocity": 121, "channel": 0}, {"type": "note_on", "time": 87, "note": 73, "velocity": 121, "channel": 0}, {"type": "note_off", "time": 0, "note": 72, "velocity": 121, "channel": 0}, {"type": "note_off", "time": 104, "note": 73, "velocity": 121, "channel": 0}, {"type": "note_on", "time": 12, "note": 71, "velocity": 107, "channel": 0}, {"type": "note_off", "time": 104, "note": 71, "velocity": 107, "channel": 0}, {"type": "note_on", "time": 0, "note": 72, "velocity": 114, "channel": 0}, {"type": "note_off", "time": 80, "note": 72, "velocity": 114, "channel": 0}, {"type": "note_on", "time": 4, "note": 71, "velocity": 115, "channel": 0}, {"type": "note_off", "time": 87, "note": 71, "velocity": 115, "channel": 0}, {"type": "note_on", "time": 4, "note": 70, "velocity": 107, "channel": 0}, {"type": "note_off", "time": 92, "note": 70, "velocity": 107, "channel": 0}, {"type": "note_on", "time": 4, "note": 69, "velocity": 113, "channel": 0}, {"type": "note_off", "time": 73, "note": 69, "velocity": 113, "channel": 0}, {"type": "note_on", "time": 2, "note": 68, "velocity": 102, "channel": 0}, {"type": "note_off", "time": 99, "note": 68, "velocity": 102, "channel": 0}, {"type": "note_on", "time": 9, "note": 65, "velocity": 114, "channel": 0}, {"type": "note_off", "time": 80, "note": 65, "velocity": 114, "channel": 0}, {"type": "note_on", "time": 124, "note": 65, "velocity": 112, "channel": 0}, {"type": "note_off", "time": 51, "note": 65, "velocity": 112, "channel": 0}, {"type": "note_on", "time": 24, "note": 63, "velocity": 99, "channel": 0}, {"type": "note_off", "time": 70, "note": 63, "velocity": 99, "channel": 0}, {"type": "note_on", "time": 55, "note": 66, "velocity": 114, "channel": 0}, {"type": "note_off", "time": 70, "note": 66, "velocity": 114, "channel": 0}, {"type": "note_on", "time": 0, "note": 67, "velocity": 109, "channel": 0}, {"type": "note_off", "time": 85, "note": 67, "velocity": 109, "channel": 0}, {"type": "note_on", "time": 48, "note": 65, "velocity": 94, "channel": 0}, {"type": "note_off", "time": 73, "note": 65, "velocity": 94, "channel": 0}, {"type": "note_on", "time": 0, "note": 70, "velocity": 117, "channel": 0}, {"type": "note_off", "time": 92, "note": 70, "velocity": 117, "channel": 0}, {"type": "note_on", "time": 9, "note": 65, "velocity": 100, "channel": 0}, {"type": "note_off", "time": 68, "note": 65, "velocity": 100, "channel": 0}, {"type": "note_on", "time": 14, "note": 73, "velocity": 124, "channel": 0}, {"type": "note_off", "time": 104, "note": 73, "velocity": 124, "channel": 0}, {"type": "note_on", "time": 17, "note": 68, "velocity": 96, "channel": 0}, {"type": "note_off", "time": 53, "note": 68, "velocity": 96, "channel": 0}, {"type": "note_on", "time": 2, "note": 75, "velocity": 121, "channel": 0}, {"type": "note_off", "time": 109, "note": 75, "velocity": 121, "channel": 0}, {"type": "note_on", "time": 31, "note": 71, "velocity": 88, "channel": 0}, {"type": "note_off", "time": 41, "note": 71, "velocity": 88, "channel": 0}, {"type": "note_on", "time": 19, "note": 77, "velocity": 122, "channel": 0}, {"type": "note_off", "time": 82, "note": 77, "velocity": 122, "channel": 0}, {"type": "note_on", "time": 24, "note": 74, "velocity": 97, "channel": 0}, {"type": "note_off", "time": 48, "note": 74, "velocity": 97, "channel": 0}, {"type": "note_on", "time": 34, "note": 79, "velocity": 125, "channel": 0}, {"type": "note_off", "time": 114, "note": 79, "velocity": 125, "channel": 0}, {"type": "note_on", "time": 7, "note": 80, "velocity": 118, "channel": 0}, {"type": "note_off", "time": 43, "note": 80, "velocity": 118, "channel": 0}, {"type": "note_on", "time": 31, "note": 76, "velocity": 119, "channel": 0}, {"type": "note_off", "time": 104, "note": 76, "velocity": 119, "channel": 0}, {"type": "note_on", "time": 416, "note": 66, "velocity": 113, "channel": 0}, {"type": "note_off", "time": 238, "note": 66, "velocity": 113, "channel": 0}, {"type": "note_on", "time": 165, "note": 61, "velocity": 108, "channel": 0}, {"type": "note_off", "time": 167, "note": 61, "velocity": 108, "channel": 0}, {"type": "note_on", "time": 7, "note": 60, "velocity": 106, "channel": 0}, {"type": "note_off", "time": 382, "note": 60, "velocity": 106, "channel": 0}, {"type": "note_on", "time": 450, "note": 65, "velocity": 115, "channel": 0}, {"type": "note_off", "time": 97, "note": 65, "velocity": 115, "channel": 0}, {"type": "note_on", "time": 0, "note": 67, "velocity": 117, "channel": 0}, {"type": "note_off", "time": 77, "note": 67, "velocity": 117, "channel": 0}, {"type": "note_on", "time": 4, "note": 68, "velocity": 113, "channel": 0}, {"type": "note_off", "time": 87, "note": 68, "velocity": 113, "channel": 0}, {"type": "note_on", "time": 7, "note": 70, "velocity": 112, "channel": 0}, {"type": "note_off", "time": 97, "note": 70, "velocity": 112, "channel": 0}, {"type": "note_on", "time": 2, "note": 72, "velocity": 115, "channel": 0}, {"type": "note_off", "time": 92, "note": 72, "velocity": 115, "channel": 0}, {"type": "note_on", "time": 2, "note": 73, "velocity": 118, "channel": 0}, {"type": "note_off", "time": 126, "note": 73, "velocity": 118, "channel": 0}, {"type": "note_on", "time": 16, "note": 72, "velocity": 123, "channel": 0}, {"type": "note_off", "time": 172, "note": 72, "velocity": 123, "channel": 0}, {"type": "note_on", "time": 0, "note": 71, "velocity": 112, "channel": 0}, {"type": "note_off", "time": 148, "note": 71, "velocity": 112, "channel": 0}, {"type": "note_on", "time": 135, "note": 70, "velocity": 120, "channel": 0}, {"type": "note_off", "time": 126, "note": 70, "velocity": 120, "channel": 0}, {"type": "note_on", "time": 1, "note": 68, "velocity": 118, "channel": 0}, {"type": "note_off", "time": 68, "note": 68, "velocity": 118, "channel": 0}, {"type": "note_on", "time": 130, "note": 61, "velocity": 96, "channel": 0}, {"type": "note_off", "time": 260, "note": 61, "velocity": 96, "channel": 0}, {"type": "note_on", "time": 17, "note": 66, "velocity": 115, "channel": 0}, {"type": "note_off", "time": 261, "note": 66, "velocity": 115, "channel": 0}, {"type": "note_on", "time": 50, "note": 61, "velocity": 102, "channel": 0}, {"type": "note_off", "time": 73, "note": 61, "velocity": 102, "channel": 0}, {"type": "note_on", "time": 4, "note": 60, "velocity": 105, "channel": 0}, {"type": "note_off", "time": 352, "note": 60, "velocity": 105, "channel": 0}, {"type": "note_on", "time": 386, "note": 60, "velocity": 93, "channel": 0}, {"type": "note_off", "time": 87, "note": 60, "velocity": 93, "channel": 0}, {"type": "note_on", "time": 12, "note": 61, "velocity": 100, "channel": 0}, {"type": "note_off", "time": 80, "note": 61, "velocity": 100, "channel": 0}, {"type": "note_on", "time": 5, "note": 64, "velocity": 96, "channel": 0}, {"type": "note_off", "time": 90, "note": 64, "velocity": 96, "channel": 0}, {"type": "note_on", "time": 0, "note": 65, "velocity": 120, "channel": 0}, {"type": "note_off", "time": 80, "note": 65, "velocity": 120, "channel": 0}, {"type": "note_on", "time": 1, "note": 66, "velocity": 114, "channel": 0}, {"type": "note_off", "time": 92, "note": 66, "velocity": 114, "channel": 0}, {"type": "note_on", "time": 13, "note": 68, "velocity": 104, "channel": 0}, {"type": "note_off", "time": 99, "note": 68, "velocity": 104, "channel": 0}, {"type": "note_on", "time": 2, "note": 70, "velocity": 122, "channel": 0}, {"type": "note_off", "time": 70, "note": 70, "velocity": 122, "channel": 0}, {"type": "note_on", "time": 9, "note": 72, "velocity": 125, "channel": 0}, {"type": "note_off", "time": 90, "note": 72, "velocity": 125, "channel": 0}, {"type": "note_on", "time": 4, "note": 73, "velocity": 124, "channel": 0}, {"type": "note_off", "time": 107, "note": 73, "velocity": 124, "channel": 0}, {"type": "note_on", "time": 12, "note": 72, "velocity": 119, "channel": 0}, {"type": "note_off", "time": 292, "note": 72, "velocity": 119, "channel": 0}, {"type": "note_on", "time": 5, "note": 70, "velocity": 113, "channel": 0}, {"type": "note_off", "time": 272, "note": 70, "velocity": 113, "channel": 0}, {"type": "note_on", "time": 1, "note": 68, "velocity": 119, "channel": 0}, {"type": "note_off", "time": 160, "note": 68, "velocity": 119, "channel": 0}, {"type": "note_on", "time": 60, "note": 61, "velocity": 101, "channel": 0}, {"type": "note_off", "time": 262, "note": 61, "velocity": 101, "channel": 0}, {"type": "note_on", "time": 17, "note": 66, "velocity": 116, "channel": 0}, {"type": "note_off", "time": 201, "note": 66, "velocity": 116, "channel": 0}, {"type": "note_on", "time": 0, "note": 61, "velocity": 99, "channel": 0}, {"type": "note_off", "time": 119, "note": 61, "velocity": 99, "channel": 0}, {"type": "note_on", "time": 2, "note": 60, "velocity": 94, "channel": 0}, {"type": "note_off", "time": 411, "note": 60, "velocity": 94, "channel": 0}, {"type": "end_of_track", "time": 0}]]}