{"ticks_per_beat": 192, "tracks": [[{"type": "track_name", "name": "Melody", "time": 0}, {"type": "set_tempo", "tempo": 218181, "time": 0}, {"type": "time_signature", "numerator": 4, "denominator": 4, "clocks_per_click": 24, "notated_32nd_notes_per_beat": 8, "time": 0}, {"type": "note_on", "time": 1715, "note": 70, "velocity": 9, "channel": 0}, {"type": "note_off", "time": 66, "note": 70, "velocity": 9, "channel": 0}, {"type": "note_on", "time": 35, "note": 65, "velocity": 9, "channel": 0}, {"type": "note_off", "time": 45, "note": 65, "velocity": 9, "channel": 0}, {"type": "note_on", "time": 30, "note": 68, "velocity": 9, "channel": 0}, {"type": "note_off", "time": 90, "note": 68, "velocity": 9, "channel": 0}, {"type": "note_on", "time": 34, "note": 65, "velocity": 9, "channel": 0}, {"type": "note_off", "time": 48, "note": 65, "velocity": 9, "channel": 0}, {"type": "note_on", "time": 43, "note": 67, "velocity": 77, "channel": 0}, {"type": "note_off", "time": 263, "note": 67, "velocity": 77, "channel": 0}, {"type": "note_on", "time": 37, "note": 62, "velocity": 87, "channel": 0}, {"type": "note_off", "time": 45, "note": 62, "velocity": 87, "channel": 0}, {"type": "note_on", "time": 53, "note": 65, "velocity": 85, "channel": 0}, {"type": "note_off", "time": 72, "note": 65, "velocity": 85, "channel": 0}, {"type": "note_on", "time": 28, "note": 62, "velocity": 80, "channel": 0}, {"type": "note_off", "time": 47, "note": 62, "velocity": 80, "channel": 0}, {"type": "note_on", "time": 42, "note": 63, "velocity": 76, "channel": 0}, {"type": "note_off", "time": 76, "note": 63, "velocity": 76, "channel": 0}, {"type": "note_on", "time": 14, "note": 60, "velocity": 72, "channel": 0}, {"type": "note_off", "time": 51, "note": 60, "velocity": 72, "channel": 0}, {"type": "note_on", "time": 2722, "note": 74, "velocity": 96, "channel": 0}, {"type": "note_off", "time": 44, "note": 74, "velocity": 96, "channel": 0}, {"type": "note_on", "time": 17, "note": 74, "velocity": 111, "channel": 0}, {"type": "note_off", "time": 71, "note": 74, "velocity": 111, "channel": 0}, {"type": "note_on", "time": 15, "note": 74, "velocity": 97, "channel": 0}, {"type": "note_off", "time": 48, "note": 74, "velocity": 97, "channel": 0}, {"type": "note_on", "time": 5, "note": 74, "velocity": 9, "channel": 0}, {"type": "note_off", "time": 48, "note": 74, "velocity": 9, "channel": 0}, {"type": "note_on", "time": 16, "note": 74, "velocity": 9, "channel": 0}, {"type": "note_off", "time": 43, "note": 74, "velocity": 9, "channel": 0}, {"type": "note_on", "time": 14, "note": 74, "velocity": 9, "channel": 0}, {"type": "note_off", "time": 35, "note": 74, "velocity": 9, "channel": 0}, {"type": "note_on", "time": 27, "note": 74, "velocity": 9, "channel": 0}, {"type": "note_off", "time": 47, "note": 74, "velocity": 9, "channel": 0}, {"type": "note_on", "time": 8, "note": 74, "velocity": 9, "channel": 0}, {"type": "note_off", "time": 50, "note": 74, "velocity": 9, "channel": 0}, {"type": "note_on", "time": 17, "note": 74, "velocity": 9, "channel": 0}, {"type": "note_off", "time": 352, "note": 74, "velocity": 9, "channel": 0}, {"type": "note_on", "time": 7, "note": 75, "velocity": 94, "channel": 0}, {"type": "note_off", "time": 200, "note": 75, "velocity": 94, "channel": 0}, {"type": "note_on", "time": 21, "note": 72, "velocity": 98, "channel": 0}, {"type": "note_off", "time": 79, "note": 72, "velocity": 98, "channel": 0}, {"type": "note_on", "time": 493, "note": 74, "velocity": 109, "channel": 0}, {"type": "note_off", "time": 29, "note": 74, "velocity": 109, "channel": 0}, {"type": "note_on", "time": 3, "note": 74, "velocity": 101, "channel": 0}, {"type": "note_off", "time": 51, "note": 74, "velocity": 101, "channel": 0}, {"type": "note_on", "time": 19, "note": 74, "velocity": 95, "channel": 0}, {"type": "note_off", "time": 79, "note": 74, "velocity": 95, "channel": 0}, {"type": "note_on", "time": 10, "note": 74, "velocity": 103, "channel": 0}, {"type": "note_off", "time": 104, "note": 74, "velocity": 103, "channel": 0}, {"type": "note_on", "time": 10, "note": 74, "velocity": 76, "channel": 0}, {"type": "note_off", "time": 164, "note": 74, "velocity": 76, "channel": 0}, {"type": "note_on", "time": 15, "note": 75, "velocity": 9, "channel": 0}, {"type": "note_off", "time": 82, "note": 75, "velocity": 9, "channel": 0}, {"type": "note_on", "time": 26, "note": 72, "velocity": 9, "channel": 0}, {"type": "note_off", "time": 71, "note": 72, "velocity": 9, "channel": 0}, {"type": "note_on", "time": 115, "note": 67, "velocity": 9, "channel": 0}, {"type": "note_off", "time": 176, "note": 67, "velocity": 9, "channel": 0}, {"type": "note_on", "time": 16, "note": 62, "velocity": 9, "channel": 0}, {"type": "note_off", "time": 63, "note": 62, "velocity": 9, "channel": 0}, {"type": "note_on", "time": 10, "note": 63, "velocity": 9, "channel": 0}, {"type": "note_off", "time": 99, "note": 63, "velocity": 9, "channel": 0}, {"type": "note_on", "time": 1017, "note": 63, "velocity": 116, "channel": 0}, {"type": "note_off", "time": 70, "note": 63, "velocity": 116, "channel": 0}, {"type": "note_on", "time": 13, "note": 62, "velocity": 112, "channel": 0}, {"type": "note_off", "time": 84, "note": 62, "velocity": 112, "channel": 0}, {"type": "note_on", "time": 21, "note": 63, "velocity": 98, "channel": 0}, {"type": "note_off", "time": 66, "note": 63, "velocity": 98, "channel": 0}, {"type": "note_on", "time": 14, "note": 65, "velocity": 98, "channel": 0}, {"type": "note_off", "time": 84, "note": 65, "velocity": 98, "channel": 0}, {"type": "note_on", "time": 19, "note": 67, "velocity": 114, "channel": 0}, {"type": "note_off", "time": 99, "note": 67, "velocity": 114, "channel": 0}, {"type": "note_on", "time": 15, "note": 69, "velocity": 107, "channel": 0}, {"type": "note_off", "time": 64, "note": 69, "velocity": 107, "channel": 0}, {"type": "note_on", "time": 16, "note": 70, "velocity": 96, "channel": 0}, {"type": "note_off", "time": 79, "note": 70, "velocity": 96, "channel": 0}, {"type": "note_on", "time": 8, "note": 69, "velocity": 100, "channel": 0}, {"type": "note_off", "time": 66, "note": 69, "velocity": 100, "channel": 0}, {"type": "note_on", "time": 12, "note": 68, "velocity": 105, "channel": 0}, {"type": "note_off", "time": 104, "note": 68, "velocity": 105, "channel": 0}, {"type": "note_on", "time": 21, "note": 70, "velocity": 102, "channel": 0}, {"type": "note_off", "time": 62, "note": 70, "velocity": 102, "channel": 0}, {"type": "note_on", "time": 18, "note": 71, "velocity": 96, "channel": 0}, {"type": "note_off", "time": 98, "note": 71, "velocity": 96, "channel": 0}, {"type": "note_on", "time": 12, "note": 72, "velocity": 103, "channel": 0}, {"type": "note_off", "time": 67, "note": 72, "velocity": 103, "channel": 0}, {"type": "note_on", "time": 15, "note": 73, "velocity": 9, "channel": 0}, {"type": "note_off", "time": 100, "note": 73, "velocity": 9, "channel": 0}, {"type": "note_on", "time": 11, "note": 74, "velocity": 9, "channel": 0}, {"type": "note_off", "time": 89, "note": 74, "velocity": 9, "channel": 0}, {"type": "note_on", "time": 7, "note": 75, "velocity": 9, "channel": 0}, {"type": "note_off", "time": 104, "note": 75, "velocity": 9, "channel": 0}, {"type": "note_on", "time": 295, "note": 72, "velocity": 69, "channel": 0}, {"type": "note_off", "time": 62, "note": 72, "velocity": 69, "channel": 0}, {"type": "note_on", "time": 30, "note": 74, "velocity": 111, "channel": 0}, {"type": "note_off", "time": 79, "note": 74, "velocity": 111, "channel": 0}, {"type": "note_on", "time": 1416, "note": 74, "velocity": 9, "channel": 0}, {"type": "note_off", "time": 46, "note": 74, "velocity": 9, "channel": 0}, {"type": "note_on", "time": 61, "note": 74, "velocity": 9, "channel": 0}, {"type": "note_off", "time": 55, "note": 74, "velocity": 9, "channel": 0}, {"type": "note_on", "time": 134, "note": 74, "velocity": 9, "channel": 0}, {"type": "note_off", "time": 55, "note": 74, "velocity": 9, "channel": 0}, {"type": "note_on", "time": 131, "note": 74, "velocity": 89, "channel": 0}, {"type": "note_off", "time": 55, "note": 74, "velocity": 89, "channel": 0}, {"type": "note_on", "time": 134, "note": 74, "velocity": 104, "channel": 0}, {"type": "note_off", "time": 264, "note": 74, "velocity": 104, "channel": 0}, {"type": "note_on", "time": 16, "note": 75, "velocity": 66, "channel": 0}, {"type": "note_off", "time": 82, "note": 75, "velocity": 66, "channel": 0}, {"type": "note_on", "time": 136, "note": 72, "velocity": 9, "channel": 0}, {"type": "note_off", "time": 184, "note": 72, "velocity": 9, "channel": 0}, {"type": "note_on", "time": 32, "note": 72, "velocity": 9, "channel": 0}, {"type": "note_off", "time": 79, "note": 72, "velocity": 9, "channel": 0}, {"type": "note_on", "time": 1693, "note": 68, "velocity": 9, "channel": 0}, {"type": "note_off", "time": 22, "note": 68, "velocity": 9, "channel": 0}, {"type": "note_on", "time": 53, "note": 67, "velocity": 9, "channel": 0}, {"type": "note_off", "time": 46, "note": 67, "velocity": 9, "channel": 0}, {"type": "note_on", "time": 36, "note": 68, "velocity": 9, "channel": 0}, {"type": "note_off", "time": 75, "note": 68, "velocity": 9, "channel": 0}, {"type": "note_on", "time": 39, "note": 73, "velocity": 9, "channel": 0}, {"type": "note_off", "time": 55, "note": 73, "velocity": 9, "channel": 0}, {"type": "note_on", "time": 17, "note": 72, "velocity": 9, "channel": 0}, {"type": "note_off", "time": 75, "note": 72, "velocity": 9, "channel": 0}, {"type": "note_on", "time": 5, "note": 74, "velocity": 64, "channel": 0}, {"type": "note_off", "time": 84, "note": 74, "velocity": 64, "channel": 0}, {"type": "note_on", "time": 6, "note": 75, "velocity": 94, "channel": 0}, {"type": "note_off", "time": 86, "note": 75, "velocity": 94, "channel": 0}, {"type": "note_on", "time": 13, "note": 77, "velocity": 100, "channel": 0}, {"type": "note_off", "time": 87, "note": 77, "velocity": 100, "channel": 0}, {"type": "note_on", "time": 14, "note": 79, "velocity": 95, "channel": 0}, {"type": "note_off", "time": 73, "note": 79, "velocity": 95, "channel": 0}, {"type": "note_on", "time": 8, "note": 80, "velocity": 116, "channel": 0}, {"type": "note_off", "time": 89, "note": 80, "velocity": 116, "channel": 0}, {"type": "note_on", "time": 6, "note": 79, "velocity": 105, "channel": 0}, {"type": "note_off", "time": 90, "note": 79, "velocity": 105, "channel": 0}, {"type": "note_on", "time": 8, "note": 78, "velocity": 9, "channel": 0}, {"type": "note_off", "time": 70, "note": 78, "velocity": 9, "channel": 0}, {"type": "note_on", "time": 4, "note": 79, "velocity": 9, "channel": 0}, {"type": "note_off", "time": 40, "note": 79, "velocity": 9, "channel": 0}, {"type": "note_on", "time": 9, "note": 77, "velocity": 9, "channel": 0}, {"type": "note_off", "time": 59, "note": 77, "velocity": 9, "channel": 0}, {"type": "note_on", "time": 17, "note": 76, "velocity": 9, "channel": 0}, {"type": "note_off", "time": 80, "note": 76, "velocity": 9, "channel": 0}, {"type": "note_on", "time": 8, "note": 75, "velocity": 9, "channel": 0}, {"type": "note_off", "time": 89, "note": 75, "velocity": 9, "channel": 0}, {"type": "note_on", "time": 9, "note": 74, "velocity": 9, "channel": 0}, {"type": "note_off", "time": 85, "note": 74, "velocity": 9, "channel": 0}, {"type": "note_on", "time": 7, "note": 72, "velocity": 9, "channel": 0}, {"type": "note_off", "time": 82, "note": 72, "velocity": 9, "channel": 0}, {"type": "note_on", "time": 26, "note": 71, "velocity": 84, "channel": 0}, {"type": "note_off", "time": 74, "note": 71, "velocity": 84, "channel": 0}, {"type": "note_on", "time": 23, "note": 70, "velocity": 110, "channel": 0}, {"type": "note_off", "time": 76, "note": 70, "velocity": 110, "channel": 0}, {"type": "note_on", "time": 20, "note": 69, "velocity": 99, "channel": 0}, {"type": "note_off", "time": 68, "note": 69, "velocity": 99, "channel": 0}, {"type": "note_on", "time": 12, "note": 68, "velocity": 95, "channel": 0}, {"type": "note_off", "time": 83, "note": 68, "velocity": 95, "channel": 0}, {"type": "note_on", "time": 37, "note": 63, "velocity": 97, "channel": 0}, {"type": "note_off", "time": 72, "note": 63, "velocity": 97, "channel": 0}, {"type": "note_on", "time": 6, "note": 60, "velocity": 38, "channel": 0}, {"type": "note_off", "time": 65, "note": 60, "velocity": 38, "channel": 0}, {"type": "note_on", "time": 25, "note": 54, "velocity": 9, "channel": 0}, {"type": "note_off", "time": 29, "note": 54, "velocity": 9, "channel": 0}, {"type": "note_on", "time": 16, "note": 57, "velocity": 9, "channel": 0}, {"type": "note_off", "time": 88, "note": 57, "velocity": 9, "channel": 0}, {"type": "note_on", "time": 10, "note": 58, "velocity": 9, "channel": 0}, {"type": "note_off", "time": 121, "note": 58, "velocity": 9, "channel": 0}, {"type": "note_on", "time": 17, "note": 56, "velocity": 9, "channel": 0}, {"type": "note_off", "time": 95, "note": 56, "velocity": 9, "channel": 0}, {"type": "note_on", "time": 1261, "note": 67, "velocity": 104, "channel": 0}, {"type": "note_off", "time": 118, "note": 67, "velocity": 104, "channel": 0}, {"type": "note_on", "time": 185, "note": 67, "velocity": 110, "channel": 0}, {"type": "note_off", "time": 191, "note": 67, "velocity": 110, "channel": 0}, {"type": "note_on", "time": 341, "note": 72, "velocity": 96, "channel": 0}, {"type": "note_off", "time": 49, "note": 72, "velocity": 96, "channel": 0}, {"type": "note_on", "time": 120, "note": 74, "velocity": 106, "channel": 0}, {"type": "note_off", "time": 104, "note": 74, "velocity": 106, "channel": 0}, {"type": "note_on", "time": 510, "note": 72, "velocity": 94, "channel": 0}, {"type": "note_off", "time": 80, "note": 72, "velocity": 94, "channel": 0}, {"type": "note_on", "time": 43, "note": 75, "velocity": 87, "channel": 0}, {"type": "note_off", "time": 54, "note": 75, "velocity": 87, "channel": 0}, {"type": "note_on", "time": 605, "note": 67, "velocity": 9, "channel": 0}, {"type": "note_off", "time": 57, "note": 67, "velocity": 9, "channel": 0}, {"type": "note_on", "time": 125, "note": 67, "velocity": 58, "channel": 0}, {"type": "note_off", "time": 472, "note": 67, "velocity": 58, "channel": 0}, {"type": "note_on", "time": 123, "note": 72, "velocity": 106, "channel": 0}, {"type": "note_off", "time": 84, "note": 72, "velocity": 106, "channel": 0}, {"type": "note_on", "time": 5, "note": 74, "velocity": 112, "channel": 0}, {"type": "note_off", "time": 86, "note": 74, "velocity": 112, "channel": 0}, {"type": "note_on", "time": 6, "note": 75, "velocity": 94, "channel": 0}, {"type": "note_off", "time": 83, "note": 75, "velocity": 94, "channel": 0}, {"type": "note_on", "time": 20, "note": 74, "velocity": 9, "channel": 0}, {"type": "note_off", "time": 95, "note": 74, "velocity": 9, "channel": 0}, {"type": "note_on", "time": 406, "note": 72, "velocity": 89, "channel": 0}, {"type": "note_off", "time": 54, "note": 72, "velocity": 89, "channel": 0}, {"type": "note_on", "time": 120, "note": 71, "velocity": 93, "channel": 0}, {"type": "note_off", "time": 72, "note": 71, "velocity": 93, "channel": 0}, {"type": "note_on", "time": 539, "note": 74, "velocity": 94, "channel": 0}, {"type": "note_off", "time": 73, "note": 74, "velocity": 94, "channel": 0}, {"type": "note_on", "time": 28, "note": 71, "velocity": 106, "channel": 0}, {"type": "note_off", "time": 75, "note": 71, "velocity": 106, "channel": 0}, {"type": "note_on", "time": 23, "note": 72, "velocity": 108, "channel": 0}, {"type": "note_off", "time": 59, "note": 72, "velocity": 108, "channel": 0}, {"type": "note_on", "time": 11, "note": 74, "velocity": 93, "channel": 0}, {"type": "note_off", "time": 88, "note": 74, "velocity": 93, "channel": 0}, {"type": "note_on", "time": 9, "note": 75, "velocity": 87, "channel": 0}, {"type": "note_off", "time": 75, "note": 75, "velocity": 87, "channel": 0}, {"type": "note_on", "time": 6, "note": 78, "velocity": 105, "channel": 0}, {"type": "note_off", "time": 52, "note": 78, "velocity": 105, "channel": 0}, {"type": "note_on", "time": 6, "note": 77, "velocity": 113, "channel": 0}, {"type": "note_off", "time": 42, "note": 77, "velocity": 113, "channel": 0}, {"type": "note_on", "time": 0, "note": 79, "velocity": 112, "channel": 0}, {"type": "note_off", "time": 83, "note": 79, "velocity": 112, "channel": 0}, {"type": "note_on", "time": 5, "note": 80, "velocity": 102, "channel": 0}, {"type": "note_off", "time": 105, "note": 80, "velocity": 102, "channel": 0}, {"type": "note_on", "time": 7, "note": 79, "velocity": 68, "channel": 0}, {"type": "note_off", "time": 819, "note": 79, "velocity": 68, "channel": 0}, {"type": "note_on", "time": 8, "note": 80, "velocity": 9, "channel": 0}, {"type": "note_off", "time": 71, "note": 80, "velocity": 9, "channel": 0}, {"type": "note_on", "time": 26, "note": 73, "velocity": 78, "channel": 0}, {"type": "note_off", "time": 81, "note": 73, "velocity": 78, "channel": 0}, {"type": "note_on", "time": 10, "note": 71, "velocity": 114, "channel": 0}, {"type": "note_off", "time": 54, "note": 71, "velocity": 114, "channel": 0}, {"type": "note_on", "time": 532, "note": 70, "velocity": 91, "channel": 0}, {"type": "note_off", "time": 75, "note": 70, "velocity": 91, "channel": 0}, {"type": "note_on", "time": 38, "note": 67, "velocity": 109, "channel": 0}, {"type": "note_off", "time": 65, "note": 67, "velocity": 109, "channel": 0}, {"type": "note_on", "time": 15, "note": 68, "velocity": 100, "channel": 0}, {"type": "note_off", "time": 63, "note": 68, "velocity": 100, "channel": 0}, {"type": "note_on", "time": 38, "note": 63, "velocity": 108, "channel": 0}, {"type": "note_off", "time": 75, "note": 63, "velocity": 108, "channel": 0}, {"type": "note_on", "time": 10, "note": 59, "velocity": 91, "channel": 0}, {"type": "note_off", "time": 62, "note": 59, "velocity": 91, "channel": 0}, {"type": "note_on", "time": 16, "note": 58, "velocity": 94, "channel": 0}, {"type": "note_off", "time": 66, "note": 58, "velocity": 94, "channel": 0}, {"type": "note_on", "time": 43, "note": 56, "velocity": 96, "channel": 0}, {"type": "note_off", "time": 141, "note": 56, "velocity": 96, "channel": 0}, {"type": "note_on", "time": 51, "note": 58, "velocity": 109, "channel": 0}, {"type": "note_off", "time": 195, "note": 58, "velocity": 109, "channel": 0}, {"type": "note_on", "time": 619, "note": 67, "velocity": 9, "channel": 0}, {"type": "note_off", "time": 60, "note": 67, "velocity": 9, "channel": 0}, {"type": "note_on", "time": 17, "note": 64, "velocity": 9, "channel": 0}, {"type": "note_off", "time": 70, "note": 64, "velocity": 9, "channel": 0}, {"type": "note_on", "time": 19, "note": 65, "velocity": 9, "channel": 0}, {"type": "note_off", "time": 65, "note": 65, "velocity": 9, "channel": 0}, {"type": "note_on", "time": 11, "note": 64, "velocity": 9, "channel": 0}, {"type": "note_off", "time": 69, "note": 64, "velocity": 9, "channel": 0}, {"type": "note_on", "time": 35, "note": 63, "velocity": 9, "channel": 0}, {"type": "note_off", "time": 93, "note": 63, "velocity": 9, "channel": 0}, {"type": "note_on", "time": 16, "note": 66, "velocity": 9, "channel": 0}, {"type": "note_off", "time": 86, "note": 66, "velocity": 9, "channel": 0}, {"type": "note_on", "time": 14, "note": 67, "velocity": 94, "channel": 0}, {"type": "note_off", "time": 94, "note": 67, "velocity": 94, "channel": 0}, {"type": "note_on", "time": 14, "note": 69, "velocity": 78, "channel": 0}, {"type": "note_off", "time": 74, "note": 69, "velocity": 78, "channel": 0}, {"type": "note_on", "time": 16, "note": 70, "velocity": 105, "channel": 0}, {"type": "note_off", "time": 76, "note": 70, "velocity": 105, "channel": 0}, {"type": "note_on", "time": 6, "note": 68, "velocity": 106, "channel": 0}, {"type": "note_off", "time": 75, "note": 68, "velocity": 106, "channel": 0}, {"type": "note_on", "time": 15, "note": 69, "velocity": 89, "channel": 0}, {"type": "note_off", "time": 98, "note": 69, "velocity": 89, "channel": 0}, {"type": "note_on", "time": 8, "note": 67, "velocity": 103, "channel": 0}, {"type": "note_off", "time": 79, "note": 67, "velocity": 103, "channel": 0}, {"type": "note_on", "time": 16, "note": 68, "velocity": 99, "channel": 0}, {"type": "note_off", "time": 74, "note": 68, "velocity": 99, "channel": 0}, {"type": "note_on", "time": 18, "note": 70, "velocity": 112, "channel": 0}, {"type": "note_off", "time": 71, "note": 70, "velocity": 112, "channel": 0}, {"type": "note_on", "time": 8, "note": 71, "velocity": 106, "channel": 0}, {"type": "note_off", "time": 97, "note": 71, "velocity": 106, "channel": 0}, {"type": "note_on", "time": 9, "note": 72, "velocity": 84, "channel": 0}, {"type": "note_off", "time": 65, "note": 72, "velocity": 84, "channel": 0}, {"type": "note_on", "time": 15, "note": 73, "velocity": 109, "channel": 0}, {"type": "note_off", "time": 79, "note": 73, "velocity": 109, "channel": 0}, {"type": "note_on", "time": 18, "note": 74, "velocity": 112, "channel": 0}, {"type": "note_off", "time": 86, "note": 74, "velocity": 112, "channel": 0}, {"type": "note_on", "time": 10, "note": 75, "velocity": 119, "channel": 0}, {"type": "note_off", "time": 89, "note": 75, "velocity": 119, "channel": 0}, {"type": "note_on", "time": 17, "note": 77, "velocity": 106, "channel": 0}, {"type": "note_off", "time": 89, "note": 77, "velocity": 106, "channel": 0}, {"type": "note_on", "time": 22, "note": 79, "velocity": 76, "channel": 0}, {"type": "note_off", "time": 72, "note": 79, "velocity": 76, "channel": 0}, {"type": "note_on", "time": 5, "note": 80, "velocity": 117, "channel": 0}, {"type": "note_off", "time": 88, "note": 80, "velocity": 117, "channel": 0}, {"type": "note_on", "time": 3, "note": 79, "velocity": 99, "channel": 0}, {"type": "note_off", "time": 96, "note": 79, "velocity": 99, "channel": 0}, {"type": "note_on", "time": 17, "note": 76, "velocity": 113, "channel": 0}, {"type": "note_off", "time": 70, "note": 76, "velocity": 113, "channel": 0}, {"type": "note_on", "time": 19, "note": 77, "velocity": 105, "channel": 0}, {"type": "note_off", "time": 62, "note": 77, "velocity": 105, "channel": 0}, {"type": "note_on", "time": 19, "note": 76, "velocity": 102, "channel": 0}, {"type": "note_off", "time": 85, "note": 76, "velocity": 102, "channel": 0}, {"type": "note_on", "time": 12, "note": 75, "velocity": 101, "channel": 0}, {"type": "note_off", "time": 70, "note": 75, "velocity": 101, "channel": 0}, {"type": "note_on", "time": 15, "note": 73, "velocity": 103, "channel": 0}, {"type": "note_off", "time": 88, "note": 73, "velocity": 103, "channel": 0}, {"type": "note_on", "time": 416, "note": 74, "velocity": 9, "channel": 0}, {"type": "note_off", "time": 72, "note": 74, "velocity": 9, "channel": 0}, {"type": "note_on", "time": 332, "note": 75, "velocity": 91, "channel": 0}, {"type": "note_off", "time": 76, "note": 75, "velocity": 91, "channel": 0}, {"type": "note_on", "time": 227, "note": 72, "velocity": 96, "channel": 0}, {"type": "note_off", "time": 58, "note": 72, "velocity": 96, "channel": 0}, {"type": "note_on", "time": 219, "note": 74, "velocity": 99, "channel": 0}, {"type": "note_off", "time": 63, "note": 74, "velocity": 99, "channel": 0}, {"type": "note_on", "time": 254, "note": 75, "velocity": 99, "channel": 0}, {"type": "note_off", "time": 75, "note": 75, "velocity": 99, "channel": 0}, {"type": "note_on", "time": 201, "note": 72, "velocity": 94, "channel": 0}, {"type": "note_off", "time": 58, "note": 72, "velocity": 94, "channel": 0}, {"type": "note_on", "time": 228, "note": 74, "velocity": 104, "channel": 0}, {"type": "note_off", "time": 260, "note": 74, "velocity": 104, "channel": 0}, {"type": "note_on", "time": 19, "note": 75, "velocity": 9, "channel": 0}, {"type": "note_off", "time": 323, "note": 75, "velocity": 9, "channel": 0}, {"type": "note_on", "time": 25, "note": 72, "velocity": 9, "channel": 0}, {"type": "note_off", "time": 245, "note": 72, "velocity": 9, "channel": 0}, {"type": "note_on", "time": 17, "note": 74, "velocity": 77, "channel": 0}, {"type": "note_off", "time": 375, "note": 74, "velocity": 77, "channel": 0}, {"type": "note_on", "time": 8, "note": 75, "velocity": 100, "channel": 0}, {"type": "note_off", "time": 79, "note": 75, "velocity": 100, "channel": 0}, {"type": "note_on", "time": 16, "note": 73, "velocity": 105, "channel": 0}, {"type": "note_off", "time": 75, "note": 73, "velocity": 105, "channel": 0}, {"type": "note_on", "time": 15, "note": 71, "velocity": 109, "channel": 0}, {"type": "note_off", "time": 90, "note": 71, "velocity": 109, "channel": 0}, {"type": "note_on", "time": 35, "note": 69, "velocity": 114, "channel": 0}, {"type": "note_off", "time": 60, "note": 69, "velocity": 114, "channel": 0}, {"type": "note_on", "time": 11, "note": 70, "velocity": 113, "channel": 0}, {"type": "note_off", "time": 66, "note": 70, "velocity": 113, "channel": 0}, {"type": "note_on", "time": 16, "note": 69, "velocity": 97, "channel": 0}, {"type": "note_off", "time": 67, "note": 69, "velocity": 97, "channel": 0}, {"type": "note_on", "time": 14, "note": 68, "velocity": 90, "channel": 0}, {"type": "note_off", "time": 84, "note": 68, "velocity": 90, "channel": 0}, {"type": "note_on", "time": 316, "note": 70, "velocity": 104, "channel": 0}, {"type": "note_off", "time": 76, "note": 70, "velocity": 104, "channel": 0}, {"type": "note_on", "time": 12, "note": 68, "velocity": 103, "channel": 0}, {"type": "note_off", "time": 93, "note": 68, "velocity": 103, "channel": 0}, {"type": "note_on", "time": 392, "note": 70, "velocity": 98, "channel": 0}, {"type": "note_off", "time": 88, "note": 70, "velocity": 98, "channel": 0}, {"type": "note_on", "time": 1059, "note": 65, "velocity": 9, "channel": 0}, {"type": "note_off", "time": 62, "note": 65, "velocity": 9, "channel": 0}, {"type": "note_on", "time": 99, "note": 65, "velocity": 9, "channel": 0}, {"type": "note_off", "time": 84, "note": 65, "velocity": 9, "channel": 0}, {"type": "note_on", "time": 33, "note": 62, "velocity": 9, "channel": 0}, {"type": "note_off", "time": 66, "note": 62, "velocity": 9, "channel": 0}, {"type": "note_on", "time": 11, "note": 63, "velocity": 9, "channel": 0}, {"type": "note_off", "time": 75, "note": 63, "velocity": 9, "channel": 0}, {"type": "note_on", "time": 17, "note": 66, "velocity": 9, "channel": 0}, {"type": "note_off", "time": 80, "note": 66, "velocity": 9, "channel": 0}, {"type": "note_on", "time": 10, "note": 67, "velocity": 9, "channel": 0}, {"type": "note_off", "time": 88, "note": 67, "velocity": 9, "channel": 0}, {"type": "note_on", "time": 15, "note": 69, "velocity": 9, "channel": 0}, {"type": "note_off", "time": 75, "note": 69, "velocity": 9, "channel": 0}, {"type": "note_on", "time": 11, "note": 70, "velocity": 9, "channel": 0}, {"type": "note_off", "time": 68, "note": 70, "velocity": 9, "channel": 0}, {"type": "note_on", "time": 12, "note": 69, "velocity": 9, "channel": 0}, {"type": "note_off", "time": 76, "note": 69, "velocity": 9, "channel": 0}, {"type": "note_on", "time": 20, "note": 68, "velocity": 9, "channel": 0}, {"type": "note_off", "time": 86, "note": 68, "velocity": 9, "channel": 0}, {"type": "note_on", "time": 3, "note": 70, "velocity": 9, "channel": 0}, {"type": "note_off", "time": 74, "note": 70, "velocity": 9, "channel": 0}, {"type": "note_on", "time": 21, "note": 71, "velocity": 9, "channel": 0}, {"type": "note_off", "time": 75, "note": 71, "velocity": 9, "channel": 0}, {"type": "note_on", "time": 11, "note": 73, "velocity": 9, "channel": 0}, {"type": "note_off", "time": 89, "note": 73, "velocity": 9, "channel": 0}, {"type": "note_on", "time": 20, "note": 75, "velocity": 9, "channel": 0}, {"type": "note_off", "time": 63, "note": 75, "velocity": 9, "channel": 0}, {"type": "note_on", "time": 25, "note": 77, "velocity": 9, "channel": 0}, {"type": "note_off", "time": 70, "note": 77, "velocity": 9, "channel": 0}, {"type": "note_on", "time": 31, "note": 79, "velocity": 9, "channel": 0}, {"type": "note_off", "time": 67, "note": 79, "velocity": 9, "channel": 0}, {"type": "note_on", "time": 7, "note": 80, "velocity": 73, "channel": 0}, {"type": "note_off", "time": 76, "note": 80, "velocity": 73, "channel": 0}, {"type": "note_on", "time": 29, "note": 75, "velocity": 115, "channel": 0}, {"type": "note_off", "time": 77, "note": 75, "velocity": 115, "channel": 0}, {"type": "note_on", "time": 35, "note": 71, "velocity": 96, "channel": 0}, {"type": "note_off", "time": 103, "note": 71, "velocity": 96, "channel": 0}, {"type": "note_on", "time": 748, "note": 70, "velocity": 109, "channel": 0}, {"type": "note_off", "time": 56, "note": 70, "velocity": 109, "channel": 0}, {"type": "note_on", "time": 42, "note": 70, "velocity": 108, "channel": 0}, {"type": "note_off", "time": 67, "note": 70, "velocity": 108, "channel": 0}, {"type": "note_on", "time": 16, "note": 68, "velocity": 93, "channel": 0}, {"type": "note_off", "time": 60, "note": 68, "velocity": 93, "channel": 0}, {"type": "note_on", "time": 26, "note": 70, "velocity": 9, "channel": 0}, {"type": "note_off", "time": 68, "note": 70, "velocity": 9, "channel": 0}, {"type": "note_on", "time": 37, "note": 61, "velocity": 9, "channel": 0}, {"type": "note_off", "time": 67, "note": 61, "velocity": 9, "channel": 0}, {"type": "note_on", "time": 33, "note": 65, "velocity": 9, "channel": 0}, {"type": "note_off", "time": 74, "note": 65, "velocity": 9, "channel": 0}, {"type": "note_on", "time": 15, "note": 64, "velocity": 30, "channel": 0}, {"type": "note_off", "time": 67, "note": 64, "velocity": 30, "channel": 0}, {"type": "note_on", "time": 31, "note": 66, "velocity": 110, "channel": 0}, {"type": "note_off", "time": 70, "note": 66, "velocity": 110, "channel": 0}, {"type": "note_on", "time": 16, "note": 67, "velocity": 102, "channel": 0}, {"type": "note_off", "time": 84, "note": 67, "velocity": 102, "channel": 0}, {"type": "note_on", "time": 26, "note": 69, "velocity": 109, "channel": 0}, {"type": "note_off", "time": 76, "note": 69, "velocity": 109, "channel": 0}, {"type": "note_on", "time": 12, "note": 70, "velocity": 112, "channel": 0}, {"type": "note_off", "time": 80, "note": 70, "velocity": 112, "channel": 0}, {"type": "note_on", "time": 7, "note": 69, "velocity": 70, "channel": 0}, {"type": "note_off", "time": 72, "note": 69, "velocity": 70, "channel": 0}, {"type": "note_on", "time": 30, "note": 68, "velocity": 9, "channel": 0}, {"type": "note_off", "time": 58, "note": 68, "velocity": 9, "channel": 0}, {"type": "note_on", "time": 28, "note": 70, "velocity": 9, "channel": 0}, {"type": "note_off", "time": 65, "note": 70, "velocity": 9, "channel": 0}, {"type": "note_on", "time": 19, "note": 71, "velocity": 9, "channel": 0}, {"type": "note_off", "time": 72, "note": 71, "velocity": 9, "channel": 0}, {"type": "note_on", "time": 15, "note": 72, "velocity": 77, "channel": 0}, {"type": "note_off", "time": 71, "note": 72, "velocity": 77, "channel": 0}, {"type": "note_on", "time": 16, "note": 75, "velocity": 104, "channel": 0}, {"type": "note_off", "time": 71, "note": 75, "velocity": 104, "channel": 0}, {"type": "note_on", "time": 29, "note": 77, "velocity": 105, "channel": 0}, {"type": "note_off", "time": 85, "note": 77, "velocity": 105, "channel": 0}, {"type": "note_on", "time": 12, "note": 79, "velocity": 109, "channel": 0}, {"type": "note_off", "time": 71, "note": 79, "velocity": 109, "channel": 0}, {"type": "note_on", "time": 12, "note": 80, "velocity": 106, "channel": 0}, {"type": "note_off", "time": 431, "note": 80, "velocity": 106, "channel": 0}, {"type": "note_on", "time": 7, "note": 79, "velocity": 94, "channel": 0}, {"type": "note_off", "time": 80, "note": 79, "velocity": 94, "channel": 0}, {"type": "note_on", "time": 19, "note": 73, "velocity": 112, "channel": 0}, {"type": "note_off", "time": 72, "note": 73, "velocity": 112, "channel": 0}, {"type": "note_on", "time": 3, "note": 71, "velocity": 105, "channel": 0}, {"type": "note_off", "time": 99, "note": 71, "velocity": 105, "channel": 0}, {"type": "note_on", "time": 29, "note": 70, "velocity": 93, "channel": 0}, {"type": "note_off", "time": 74, "note": 70, "velocity": 93, "channel": 0}, {"type": "note_on", "time": 658, "note": 70, "velocity": 119, "channel": 0}, {"type": "note_off", "time": 73, "note": 70, "velocity": 119, "channel": 0}, {"type": "note_on", "time": 8, "note": 69, "velocity": 109, "channel": 0}, {"type": "note_off", "time": 66, "note": 69, "velocity": 109, "channel": 0}, {"type": "note_on", "time": 33, "note": 67, "velocity": 88, "channel": 0}, {"type": "note_off", "time": 58, "note": 67, "velocity": 88, "channel": 0}, {"type": "note_on", "time": 34, "note": 70, "velocity": 113, "channel": 0}, {"type": "note_off", "time": 60, "note": 70, "velocity": 113, "channel": 0}, {"type": "note_on", "time": 35, "note": 71, "velocity": 107, "channel": 0}, {"type": "note_off", "time": 67, "note": 71, "velocity": 107, "channel": 0}, {"type": "note_on", "time": 39, "note": 73, "velocity": 106, "channel": 0}, {"type": "note_off", "time": 76, "note": 73, "velocity": 106, "channel": 0}, {"type": "note_on", "time": 11, "note": 76, "velocity": 106, "channel": 0}, {"type": "note_off", "time": 58, "note": 76, "velocity": 106, "channel": 0}, {"type": "note_on", "time": 19, "note": 77, "velocity": 94, "channel": 0}, {"type": "note_off", "time": 93, "note": 77, "velocity": 94, "channel": 0}, {"type": "note_on", "time": 15, "note": 81, "velocity": 105, "channel": 0}, {"type": "note_off", "time": 67, "note": 81, "velocity": 105, "channel": 0}, {"type": "note_on", "time": 10, "note": 80, "velocity": 106, "channel": 0}, {"type": "note_off", "time": 74, "note": 80, "velocity": 106, "channel": 0}, {"type": "note_on", "time": 22, "note": 79, "velocity": 100, "channel": 0}, {"type": "note_off", "time": 271, "note": 79, "velocity": 100, "channel": 0}, {"type": "note_on", "time": 38, "note": 78, "velocity": 88, "channel": 0}, {"type": "note_off", "time": 78, "note": 78, "velocity": 88, "channel": 0}, {"type": "note_on", "time": 13, "note": 77, "velocity": 101, "channel": 0}, {"type": "note_off", "time": 87, "note": 77, "velocity": 101, "channel": 0}, {"type": "note_on", "time": 24, "note": 76, "velocity": 95, "channel": 0}, {"type": "note_off", "time": 56, "note": 76, "velocity": 95, "channel": 0}, {"type": "note_on", "time": 9, "note": 75, "velocity": 101, "channel": 0}, {"type": "note_off", "time": 87, "note": 75, "velocity": 101, "channel": 0}, {"type": "note_on", "time": 17, "note": 73, "velocity": 113, "channel": 0}, {"type": "note_off", "time": 77, "note": 73, "velocity": 113, "channel": 0}, {"type": "note_on", "time": 27, "note": 72, "velocity": 101, "channel": 0}, {"type": "note_off", "time": 81, "note": 72, "velocity": 101, "channel": 0}, {"type": "note_on", "time": 17, "note": 69, "velocity": 102, "channel": 0}, {"type": "note_off", "time": 60, "note": 69, "velocity": 102, "channel": 0}, {"type": "note_on", "time": 20, "note": 70, "velocity": 91, "channel": 0}, {"type": "note_off", "time": 78, "note": 70, "velocity": 91, "channel": 0}, {"type": "note_on", "time": 26, "note": 69, "velocity": 98, "channel": 0}, {"type": "note_off", "time": 88, "note": 69, "velocity": 98, "channel": 0}, {"type": "note_on", "time": 12, "note": 64, "velocity": 96, "channel": 0}, {"type": "note_off", "time": 72, "note": 64, "velocity": 96, "channel": 0}, {"type": "note_on", "time": 10, "note": 62, "velocity": 112, "channel": 0}, {"type": "note_off", "time": 67, "note": 62, "velocity": 112, "channel": 0}, {"type": "note_on", "time": 19, "note": 59, "velocity": 108, "channel": 0}, {"type": "note_off", "time": 45, "note": 59, "velocity": 108, "channel": 0}, {"type": "note_on", "time": 17, "note": 56, "velocity": 103, "channel": 0}, {"type": "note_off", "time": 146, "note": 56, "velocity": 103, "channel": 0}, {"type": "note_on", "time": 372, "note": 66, "velocity": 107, "channel": 0}, {"type": "note_off", "time": 79, "note": 66, "velocity": 107, "channel": 0}, {"type": "note_on", "time": 22, "note": 63, "velocity": 100, "channel": 0}, {"type": "note_off", "time": 67, "note": 63, "velocity": 100, "channel": 0}, {"type": "note_on", "time": 11, "note": 64, "velocity": 103, "channel": 0}, {"type": "note_off", "time": 61, "note": 64, "velocity": 103, "channel": 0}, {"type": "note_on", "time": 20, "note": 66, "velocity": 102, "channel": 0}, {"type": "note_off", "time": 72, "note": 66, "velocity": 102, "channel": 0}, {"type": "note_on", "time": 17, "note": 67, "velocity": 112, "channel": 0}, {"type": "note_off", "time": 105, "note": 67, "velocity": 112, "channel": 0}, {"type": "note_on", "time": 10, "note": 69, "velocity": 105, "channel": 0}, {"type": "note_off", "time": 72, "note": 69, "velocity": 105, "channel": 0}, {"type": "note_on", "time": 4, "note": 70, "velocity": 101, "channel": 0}, {"type": "note_off", "time": 61, "note": 70, "velocity": 101, "channel": 0}, {"type": "note_on", "time": 17, "note": 69, "velocity": 102, "channel": 0}, {"type": "note_off", "time": 57, "note": 69, "velocity": 102, "channel": 0}, {"type": "note_on", "time": 19, "note": 68, "velocity": 91, "channel": 0}, {"type": "note_off", "time": 63, "note": 68, "velocity": 91, "channel": 0}, {"type": "note_on", "time": 35, "note": 70, "velocity": 101, "channel": 0}, {"type": "note_off", "time": 79, "note": 70, "velocity": 101, "channel": 0}, {"type": "note_on", "time": 17, "note": 71, "velocity": 112, "channel": 0}, {"type": "note_off", "time": 76, "note": 71, "velocity": 112, "channel": 0}, {"type": "note_on", "time": 8, "note": 73, "velocity": 103, "channel": 0}, {"type": "note_off", "time": 74, "note": 73, "velocity": 103, "channel": 0}, {"type": "note_on", "time": 17, "note": 75, "velocity": 99, "channel": 0}, {"type": "note_off", "time": 84, "note": 75, "velocity": 99, "channel": 0}, {"type": "note_on", "time": 7, "note": 77, "velocity": 94, "channel": 0}, {"type": "note_off", "time": 82, "note": 77, "velocity": 94, "channel": 0}, {"type": "note_on", "time": 3, "note": 79, "velocity": 104, "channel": 0}, {"type": "note_off", "time": 73, "note": 79, "velocity": 104, "channel": 0}, {"type": "note_on", "time": 8, "note": 80, "velocity": 105, "channel": 0}, {"type": "note_off", "time": 103, "note": 80, "velocity": 105, "channel": 0}, {"type": "note_on", "time": 8, "note": 79, "velocity": 109, "channel": 0}, {"type": "note_off", "time": 88, "note": 79, "velocity": 109, "channel": 0}, {"type": "note_on", "time": 11, "note": 78, "velocity": 100, "channel": 0}, {"type": "note_off", "time": 71, "note": 78, "velocity": 100, "channel": 0}, {"type": "note_on", "time": 7, "note": 76, "velocity": 101, "channel": 0}, {"type": "note_off", "time": 35, "note": 76, "velocity": 101, "channel": 0}, {"type": "note_on", "time": 2, "note": 74, "velocity": 93, "channel": 0}, {"type": "note_off", "time": 72, "note": 74, "velocity": 93, "channel": 0}, {"type": "note_on", "time": 6, "note": 76, "velocity": 95, "channel": 0}, {"type": "note_off", "time": 75, "note": 76, "velocity": 95, "channel": 0}, {"type": "note_on", "time": 17, "note": 75, "velocity": 99, "channel": 0}, {"type": "note_off", "time": 69, "note": 75, "velocity": 99, "channel": 0}, {"type": "note_on", "time": 21, "note": 73, "velocity": 113, "channel": 0}, {"type": "note_off", "time": 77, "note": 73, "velocity": 113, "channel": 0}, {"type": "note_on", "time": 18, "note": 71, "velocity": 106, "channel": 0}, {"type": "note_off", "time": 71, "note": 71, "velocity": 106, "channel": 0}, {"type": "note_on", "time": 33, "note": 69, "velocity": 100, "channel": 0}, {"type": "note_off", "time": 67, "note": 69, "velocity": 100, "channel": 0}, {"type": "note_on", "time": 28, "note": 70, "velocity": 93, "channel": 0}, {"type": "note_off", "time": 75, "note": 70, "velocity": 93, "channel": 0}, {"type": "note_on", "time": 9, "note": 69, "velocity": 97, "channel": 0}, {"type": "note_off", "time": 76, "note": 69, "velocity": 97, "channel": 0}, {"type": "note_on", "time": 12, "note": 68, "velocity": 103, "channel": 0}, {"type": "note_off", "time": 65, "note": 68, "velocity": 103, "channel": 0}, {"type": "note_on", "time": 858, "note": 77, "velocity": 119, "channel": 0}, {"type": "note_off", "time": 85, "note": 77, "velocity": 119, "channel": 0}, {"type": "note_on", "time": 12, "note": 79, "velocity": 109, "channel": 0}, {"type": "note_off", "time": 448, "note": 79, "velocity": 109, "channel": 0}, {"type": "note_on", "time": 11, "note": 80, "velocity": 100, "channel": 0}, {"type": "note_off", "time": 97, "note": 80, "velocity": 100, "channel": 0}, {"type": "note_on", "time": 29, "note": 79, "velocity": 99, "channel": 0}, {"type": "note_off", "time": 429, "note": 79, "velocity": 99, "channel": 0}, {"type": "note_on", "time": 20, "note": 77, "velocity": 103, "channel": 0}, {"type": "note_off", "time": 91, "note": 77, "velocity": 103, "channel": 0}, {"type": "note_on", "time": 76, "note": 79, "velocity": 100, "channel": 0}, {"type": "note_off", "time": 163, "note": 79, "velocity": 100, "channel": 0}, {"type": "note_on", "time": 33, "note": 80, "velocity": 9, "channel": 0}, {"type": "note_off", "time": 363, "note": 80, "velocity": 9, "channel": 0}, {"type": "note_on", "time": 19, "note": 72, "velocity": 9, "channel": 0}, {"type": "note_off", "time": 251, "note": 72, "velocity": 9, "channel": 0}, {"type": "note_on", "time": 34, "note": 79, "velocity": 9, "channel": 0}, {"type": "note_off", "time": 383, "note": 79, "velocity": 9, "channel": 0}, {"type": "note_on", "time": 6, "note": 80, "velocity": 105, "channel": 0}, {"type": "note_off", "time": 107, "note": 80, "velocity": 105, "channel": 0}, {"type": "note_on", "time": 8, "note": 79, "velocity": 82, "channel": 0}, {"type": "note_off", "time": 73, "note": 79, "velocity": 82, "channel": 0}, {"type": "note_on", "time": 14, "note": 78, "velocity": 101, "channel": 0}, {"type": "note_off", "time": 86, "note": 78, "velocity": 101, "channel": 0}, {"type": "note_on", "time": 14, "note": 76, "velocity": 106, "channel": 0}, {"type": "note_off", "time": 55, "note": 76, "velocity": 106, "channel": 0}, {"type": "note_on", "time": 764, "note": 75, "velocity": 108, "channel": 0}, {"type": "note_off", "time": 65, "note": 75, "velocity": 108, "channel": 0}, {"type": "note_on", "time": 16, "note": 81, "velocity": 93, "channel": 0}, {"type": "note_off", "time": 94, "note": 81, "velocity": 93, "channel": 0}, {"type": "note_on", "time": 25, "note": 71, "velocity": 9, "channel": 0}, {"type": "note_off", "time": 46, "note": 71, "velocity": 9, "channel": 0}, {"type": "note_on", "time": 20, "note": 77, "velocity": 9, "channel": 0}, {"type": "note_off", "time": 90, "note": 77, "velocity": 9, "channel": 0}, {"type": "note_on", "time": 27, "note": 69, "velocity": 9, "channel": 0}, {"type": "note_off", "time": 63, "note": 69, "velocity": 9, "channel": 0}, {"type": "note_on", "time": 4, "note": 75, "velocity": 9, "channel": 0}, {"type": "note_off", "time": 79, "note": 75, "velocity": 9, "channel": 0}, {"type": "note_on", "time": 31, "note": 68, "velocity": 9, "channel": 0}, {"type": "note_off", "time": 44, "note": 68, "velocity": 9, "channel": 0}, {"type": "note_on", "time": 29, "note": 74, "velocity": 9, "channel": 0}, {"type": "note_off", "time": 87, "note": 74, "velocity": 9, "channel": 0}, {"type": "note_on", "time": 11, "note": 69, "velocity": 46, "channel": 0}, {"type": "note_off", "time": 50, "note": 69, "velocity": 46, "channel": 0}, {"type": "note_on", "time": 30, "note": 72, "velocity": 110, "channel": 0}, {"type": "note_off", "time": 100, "note": 72, "velocity": 110, "channel": 0}, {"type": "note_on", "time": 211, "note": 70, "velocity": 114, "channel": 0}, {"type": "note_off", "time": 63, "note": 70, "velocity": 114, "channel": 0}, {"type": "note_on", "time": 332, "note": 68, "velocity": 95, "channel": 0}, {"type": "note_off", "time": 63, "note": 68, "velocity": 95, "channel": 0}, {"type": "note_on", "time": 395, "note": 67, "velocity": 9, "channel": 0}, {"type": "note_off", "time": 71, "note": 67, "velocity": 9, "channel": 0}, {"type": "note_on", "time": 214, "note": 66, "velocity": 115, "channel": 0}, {"type": "note_off", "time": 79, "note": 66, "velocity": 115, "channel": 0}, {"type": "note_on", "time": 199, "note": 70, "velocity": 100, "channel": 0}, {"type": "note_off", "time": 66, "note": 70, "velocity": 100, "channel": 0}, {"type": "note_on", "time": 136, "note": 69, "velocity": 111, "channel": 0}, {"type": "note_off", "time": 59, "note": 69, "velocity": 111, "channel": 0}, {"type": "note_on", "time": 125, "note": 74, "velocity": 9, "channel": 0}, {"type": "note_off", "time": 62, "note": 74, "velocity": 9, "channel": 0}, {"type": "note_on", "time": 127, "note": 75, "velocity": 9, "channel": 0}, {"type": "note_off", "time": 48, "note": 75, "velocity": 9, "channel": 0}, {"type": "note_on", "time": 129, "note": 77, "velocity": 96, "channel": 0}, {"type": "note_off", "time": 64, "note": 77, "velocity": 96, "channel": 0}, {"type": "note_on", "time": 129, "note": 79, "velocity": 104, "channel": 0}, {"type": "note_off", "time": 80, "note": 79, "velocity": 104, "channel": 0}, {"type": "note_on", "time": 5, "note": 80, "velocity": 104, "channel": 0}, {"type": "note_off", "time": 70, "note": 80, "velocity": 104, "channel": 0}, {"type": "note_on", "time": 10, "note": 79, "velocity": 96, "channel": 0}, {"type": "note_off", "time": 70, "note": 79, "velocity": 96, "channel": 0}, {"type": "note_on", "time": 7, "note": 79, "velocity": 96, "channel": 0}, {"type": "note_off", "time": 43, "note": 79, "velocity": 96, "channel": 0}, {"type": "note_on", "time": 14, "note": 78, "velocity": 102, "channel": 0}, {"type": "note_off", "time": 85, "note": 78, "velocity": 102, "channel": 0}, {"type": "note_on", "time": 16, "note": 77, "velocity": 101, "channel": 0}, {"type": "note_off", "time": 42, "note": 77, "velocity": 101, "channel": 0}, {"type": "note_on", "time": 14, "note": 76, "velocity": 9, "channel": 0}, {"type": "note_off", "time": 80, "note": 76, "velocity": 9, "channel": 0}, {"type": "note_on", "time": 19, "note": 75, "velocity": 9, "channel": 0}, {"type": "note_off", "time": 66, "note": 75, "velocity": 9, "channel": 0}, {"type": "note_on", "time": 22, "note": 73, "velocity": 9, "channel": 0}, {"type": "note_off", "time": 92, "note": 73, "velocity": 9, "channel": 0}, {"type": "note_on", "time": 17, "note": 71, "velocity": 9, "channel": 0}, {"type": "note_off", "time": 74, "note": 71, "velocity": 9, "channel": 0}, {"type": "note_on", "time": 28, "note": 69, "velocity": 9, "channel": 0}, {"type": "note_off", "time": 57, "note": 69, "velocity": 9, "channel": 0}, {"type": "note_on", "time": 15, "note": 70, "velocity": 115, "channel": 0}, {"type": "note_off", "time": 58, "note": 70, "velocity": 115, "channel": 0}, {"type": "note_on", "time": 24, "note": 69, "velocity": 110, "channel": 0}, {"type": "note_off", "time": 71, "note": 69, "velocity": 110, "channel": 0}, {"type": "note_on", "time": 10, "note": 68, "velocity": 95, "channel": 0}, {"type": "note_off", "time": 70, "note": 68, "velocity": 95, "channel": 0}, {"type": "note_on", "time": 300, "note": 74, "velocity": 54, "channel": 0}, {"type": "note_off", "time": 85, "note": 74, "velocity": 54, "channel": 0}, {"type": "note_on", "time": 10, "note": 74, "velocity": 9, "channel": 0}, {"type": "note_off", "time": 59, "note": 74, "velocity": 9, "channel": 0}, {"type": "note_on", "time": 14, "note": 74, "velocity": 9, "channel": 0}, {"type": "note_off", "time": 88, "note": 74, "velocity": 9, "channel": 0}, {"type": "note_on", "time": 17, "note": 74, "velocity": 9, "channel": 0}, {"type": "note_off", "time": 77, "note": 74, "velocity": 9, "channel": 0}, {"type": "note_on", "time": 21, "note": 74, "velocity": 9, "channel": 0}, {"type": "note_off", "time": 91, "note": 74, "velocity": 9, "channel": 0}, {"type": "note_on", "time": 12, "note": 75, "velocity": 74, "channel": 0}, {"type": "note_off", "time": 92, "note": 75, "velocity": 74, "channel": 0}, {"type": "note_on", "time": 85, "note": 72, "velocity": 106, "channel": 0}, {"type": "note_off", "time": 89, "note": 72, "velocity": 106, "channel": 0}, {"type": "note_on", "time": 770, "note": 74, "velocity": 9, "channel": 0}, {"type": "note_off", "time": 85, "note": 74, "velocity": 9, "channel": 0}, {"type": "note_on", "time": 9, "note": 74, "velocity": 95, "channel": 0}, {"type": "note_off", "time": 53, "note": 74, "velocity": 95, "channel": 0}, {"type": "note_on", "time": 15, "note": 74, "velocity": 93, "channel": 0}, {"type": "note_off", "time": 86, "note": 74, "velocity": 93, "channel": 0}, {"type": "note_on", "time": 12, "note": 74, "velocity": 89, "channel": 0}, {"type": "note_off", "time": 71, "note": 74, "velocity": 89, "channel": 0}, {"type": "note_on", "time": 17, "note": 74, "velocity": 100, "channel": 0}, {"type": "note_off", "time": 104, "note": 74, "velocity": 100, "channel": 0}, {"type": "note_on", "time": 8, "note": 75, "velocity": 93, "channel": 0}, {"type": "note_off", "time": 79, "note": 75, "velocity": 93, "channel": 0}, {"type": "note_on", "time": 781, "note": 73, "velocity": 108, "channel": 0}, {"type": "note_off", "time": 78, "note": 73, "velocity": 108, "channel": 0}, {"type": "note_on", "time": 18, "note": 71, "velocity": 107, "channel": 0}, {"type": "note_off", "time": 63, "note": 71, "velocity": 107, "channel": 0}, {"type": "note_on", "time": 6, "note": 72, "velocity": 90, "channel": 0}, {"type": "note_off", "time": 71, "note": 72, "velocity": 90, "channel": 0}, {"type": "note_on", "time": 15, "note": 71, "velocity": 89, "channel": 0}, {"type": "note_off", "time": 59, "note": 71, "velocity": 89, "channel": 0}, {"type": "note_on", "time": 14, "note": 70, "velocity": 94, "channel": 0}, {"type": "note_off", "time": 84, "note": 70, "velocity": 94, "channel": 0}, {"type": "note_on", "time": 8, "note": 69, "velocity": 83, "channel": 0}, {"type": "note_off", "time": 70, "note": 69, "velocity": 83, "channel": 0}, {"type": "note_on", "time": 26, "note": 68, "velocity": 86, "channel": 0}, {"type": "note_off", "time": 54, "note": 68, "velocity": 86, "channel": 0}, {"type": "note_on", "time": 23, "note": 63, "velocity": 82, "channel": 0}, {"type": "note_off", "time": 67, "note": 63, "velocity": 82, "channel": 0}, {"type": "note_on", "time": 40, "note": 53, "velocity": 76, "channel": 0}, {"type": "note_off", "time": 71, "note": 53, "velocity": 76, "channel": 0}, {"type": "note_on", "time": 28, "note": 55, "velocity": 73, "channel": 0}, {"type": "note_off", "time": 65, "note": 55, "velocity": 73, "channel": 0}, {"type": "note_on", "time": 24, "note": 56, "velocity": 73, "channel": 0}, {"type": "note_off", "time": 352, "note": 56, "velocity": 73, "channel": 0}, {"type": "note_on", "time": 8, "note": 58, "velocity": 71, "channel": 0}, {"type": "note_off", "time": 83, "note": 58, "velocity": 71, "channel": 0}, {"type": "note_on", "time": 10, "note": 56, "velocity": 58, "channel": 0}, {"type": "note_off", "time": 102, "note": 56, "velocity": 58, "channel": 0}, {"type": "note_on", "time": 8, "note": 57, "velocity": 9, "channel": 0}, {"type": "note_off", "time": 68, "note": 57, "velocity": 9, "channel": 0}, {"type": "note_on", "time": 10, "note": 59, "velocity": 9, "channel": 0}, {"type": "note_off", "time": 55, "note": 59, "velocity": 9, "channel": 0}, {"type": "note_on", "time": 32, "note": 61, "velocity": 9, "channel": 0}, {"type": "note_off", "time": 89, "note": 61, "velocity": 9, "channel": 0}, {"type": "note_on", "time": 18, "note": 65, "velocity": 9, "channel": 0}, {"type": "note_off", "time": 287, "note": 65, "velocity": 9, "channel": 0}, {"type": "note_on", "time": 111, "note": 62, "velocity": 9, "channel": 0}, {"type": "note_off", "time": 35, "note": 62, "velocity": 9, "channel": 0}, {"type": "note_on", "time": 6, "note": 63, "velocity": 9, "channel": 0}, {"type": "note_off", "time": 104, "note": 63, "velocity": 9, "channel": 0}, {"type": "note_on", "time": 4, "note": 65, "velocity": 9, "channel": 0}, {"type": "note_off", "time": 68, "note": 65, "velocity": 9, "channel": 0}, {"type": "note_on", "time": 1, "note": 67, "velocity": 9, "channel": 0}, {"type": "note_off", "time": 311, "note": 67, "velocity": 9, "channel": 0}, {"type": "note_on", "time": 146, "note": 65, "velocity": 9, "channel": 0}, {"type": "note_off", "time": 218, "note": 65, "velocity": 9, "channel": 0}, {"type": "note_on", "time": 6, "note": 62, "velocity": 9, "channel": 0}, {"type": "note_off", "time": 64, "note": 62, "velocity": 9, "channel": 0}, {"type": "note_on", "time": 13, "note": 63, "velocity": 9, "channel": 0}, {"type": "note_off", "time": 66, "note": 63, "velocity": 9, "channel": 0}, {"type": "note_on", "time": 27, "note": 65, "velocity": 9, "channel": 0}, {"type": "note_off", "time": 63, "note": 65, "velocity": 9, "channel": 0}, {"type": "note_on", "time": 7, "note": 67, "velocity": 9, "channel": 0}, {"type": "note_off", "time": 102, "note": 67, "velocity": 9, "channel": 0}, {"type": "note_on", "time": 24, "note": 69, "velocity": 9, "channel": 0}, {"type": "note_off", "time": 52, "note": 69, "velocity": 9, "channel": 0}, {"type": "note_on", "time": 8, "note": 70, "velocity": 9, "channel": 0}, {"type": "note_off", "time": 95, "note": 70, "velocity": 9, "channel": 0}, {"type": "note_on", "time": 10, "note": 69, "velocity": 9, "channel": 0}, {"type": "note_off", "time": 72, "note": 69, "velocity": 9, "channel": 0}, {"type": "note_on", "time": 24, "note": 68, "velocity": 9, "channel": 0}, {"type": "note_off", "time": 68, "note": 68, "velocity": 9, "channel": 0}, {"type": "note_on", "time": 19, "note": 70, "velocity": 9, "channel": 0}, {"type": "note_off", "time": 63, "note": 70, "velocity": 9, "channel": 0}, {"type": "note_on", "time": 7, "note": 74, "velocity": 9, "channel": 0}, {"type": "note_off", "time": 65, "note": 74, "velocity": 9, "channel": 0}, {"type": "note_on", "time": 17, "note": 73, "velocity": 9, "channel": 0}, {"type": "note_off", "time": 77, "note": 73, "velocity": 9, "channel": 0}, {"type": "note_on", "time": 6, "note": 75, "velocity": 9, "channel": 0}, {"type": "note_off", "time": 108, "note": 75, "velocity": 9, "channel": 0}, {"type": "note_on", "time": 2535, "note": 74, "velocity": 80, "channel": 0}, {"type": "note_off", "time": 71, "note": 74, "velocity": 80, "channel": 0}, {"type": "note_on", "time": 19, "note": 74, "velocity": 80, "channel": 0}, {"type": "note_off", "time": 77, "note": 74, "velocity": 80, "channel": 0}, {"type": "note_on", "time": 15, "note": 74, "velocity": 80, "channel": 0}, {"type": "note_off", "time": 70, "note": 74, "velocity": 80, "channel": 0}, {"type": "note_on", "time": 8, "note": 74, "velocity": 80, "channel": 0}, {"type": "note_off", "time": 79, "note": 74, "velocity": 80, "channel": 0}, {"type": "note_on", "time": 16, "note": 74, "velocity": 80, "channel": 0}, {"type": "note_off", "time": 65, "note": 74, "velocity": 80, "channel": 0}, {"type": "note_on", "time": 16, "note": 74, "velocity": 80, "channel": 0}, {"type": "note_off", "time": 63, "note": 74, "velocity": 80, "channel": 0}, {"type": "note_on", "time": 22, "note": 74, "velocity": 80, "channel": 0}, {"type": "note_off", "time": 58, "note": 74, "velocity": 80, "channel": 0}, {"type": "note_on", "time": 15, "note": 74, "velocity": 80, "channel": 0}, {"type": "note_off", "time": 123, "note": 74, "velocity": 80, "channel": 0}, {"type": "note_on", "time": 16, "note": 75, "velocity": 80, "channel": 0}, {"type": "note_off", "time": 5775, "note": 75, "velocity": 80, "channel": 0}, {"type": "note_on", "time": 120, "note": 77, "velocity": 80, "channel": 0}, {"type": "note_off", "time": 68, "note": 77, "velocity": 80, "channel": 0}, {"type": "note_on", "time": 122, "note": 75, "velocity": 80, "channel": 0}, {"type": "note_off", "time": 62, "note": 75, "velocity": 80, "channel": 0}, {"type": "note_on", "time": 102, "note": 75, "velocity": 80, "channel": 0}, {"type": "note_off", "time": 80, "note": 75, "velocity": 80, "channel": 0}, {"type": "note_on", "time": 100, "note": 75, "velocity": 80, "channel": 0}, {"type": "note_off", "time": 163, "note": 75, "velocity": 80, "channel": 0}, {"type": "note_on", "time": 12, "note": 74, "velocity": 80, "channel": 0}, {"type": "note_off", "time": 91, "note": 74, "velocity": 80, "channel": 0}, {"type": "note_on", "time": 95, "note": 72, "velocity": 80, "channel": 0}, {"type": "note_off", "time": 256, "note": 72, "velocity": 80, "channel": 0}, {"type": "note_on", "time": 19, "note": 72, "velocity": 80, "channel": 0}, {"type": "note_off", "time": 89, "note": 72, "velocity": 80, "channel": 0}, {"type": "note_on", "time": 75, "note": 72, "velocity": 80, "channel": 0}, {"type": "note_off", "time": 145, "note": 72, "velocity": 80, "channel": 0}, {"type": "note_on", "time": 28, "note": 72, "velocity": 80, "channel": 0}, {"type": "note_off", "time": 362, "note": 72, "velocity": 80, "channel": 0}, {"type": "note_on", "time": 100, "note": 72, "velocity": 80, "channel": 0}, {"type": "note_off", "time": 66, "note": 72, "velocity": 80, "channel": 0}, {"type": "note_on", "time": 125, "note": 70, "velocity": 80, "channel": 0}, {"type": "note_off", "time": 66, "note": 70, "velocity": 80, "channel": 0}, {"type": "note_on", "time": 475, "note": 70, "velocity": 80, "channel": 0}, {"type": "note_off", "time": 56, "note": 70, "velocity": 80, "channel": 0}, {"type": "note_on", "time": 35, "note": 70, "velocity": 80, "channel": 0}, {"type": "note_off", "time": 61, "note": 70, "velocity": 80, "channel": 0}, {"type": "note_on", "time": 125, "note": 70, "velocity": 80, "channel": 0}, {"type": "note_off", "time": 303, "note": 70, "velocity": 80, "channel": 0}, {"type": "note_on", "time": 137, "note": 70, "velocity": 80, "channel": 0}, {"type": "note_off", "time": 66, "note": 70, "velocity": 80, "channel": 0}, {"type": "note_on", "time": 114, "note": 68, "velocity": 80, "channel": 0}, {"type": "note_off", "time": 189, "note": 68, "velocity": 80, "channel": 0}, {"type": "note_on", "time": 5, "note": 67, "velocity": 80, "channel": 0}, {"type": "note_off", "time": 217, "note": 67, "velocity": 80, "channel": 0}, {"type": "note_on", "time": 137, "note": 67, "velocity": 80, "channel": 0}, {"type": "note_off", "time": 217, "note": 67, "velocity": 80, "channel": 0}, {"type": "note_on", "time": 71, "note": 67, "velocity": 80, "channel": 0}, {"type": "note_off", "time": 265, "note": 67, "velocity": 80, "channel": 0}, {"type": "note_on", "time": 962, "note": 79, "velocity": 80, "channel": 0}, {"type": "note_off", "time": 68, "note": 79, "velocity": 80, "channel": 0}, {"type": "note_on", "time": 196, "note": 77, "velocity": 80, "channel": 0}, {"type": "note_off", "time": 86, "note": 77, "velocity": 80, "channel": 0}, {"type": "note_on", "time": 293, "note": 77, "velocity": 80, "channel": 0}, {"type": "note_off", "time": 76, "note": 77, "velocity": 80, "channel": 0}, {"type": "note_on", "time": 309, "note": 72, "velocity": 80, "channel": 0}, {"type": "note_off", "time": 66, "note": 72, "velocity": 80, "channel": 0}, {"type": "note_on", "time": 286, "note": 74, "velocity": 80, "channel": 0}, {"type": "note_off", "time": 89, "note": 74, "velocity": 80, "channel": 0}, {"type": "note_on", "time": 441, "note": 75, "velocity": 80, "channel": 0}, {"type": "note_off", "time": 260, "note": 75, "velocity": 80, "channel": 0}, {"type": "note_on", "time": 51, "note": 68, "velocity": 80, "channel": 0}, {"type": "note_off", "time": 43, "note": 68, "velocity": 80, "channel": 0}, {"type": "note_on", "time": 51, "note": 77, "velocity": 80, "channel": 0}, {"type": "note_off", "time": 194, "note": 77, "velocity": 80, "channel": 0}, {"type": "note_on", "time": 625, "note": 77, "velocity": 80, "channel": 0}, {"type": "note_off", "time": 268, "note": 77, "velocity": 80, "channel": 0}, {"type": "note_on", "time": 28, "note": 75, "velocity": 80, "channel": 0}, {"type": "note_off", "time": 79, "note": 75, "velocity": 80, "channel": 0}, {"type": "note_on", "time": 280, "note": 74, "velocity": 80, "channel": 0}, {"type": "note_off", "time": 76, "note": 74, "velocity": 80, "channel": 0}, {"type": "note_on", "time": 314, "note": 72, "velocity": 80, "channel": 0}, {"type": "note_off", "time": 88, "note": 72, "velocity": 80, "channel": 0}, {"type": "note_on", "time": 339, "note": 70, "velocity": 80, "channel": 0}, {"type": "note_off", "time": 66, "note": 70, "velocity": 80, "channel": 0}, {"type": "note_on", "time": 475, "note": 70, "velocity": 80, "channel": 0}, {"type": "note_off", "time": 272, "note": 70, "velocity": 80, "channel": 0}, {"type": "note_on", "time": 61, "note": 64, "velocity": 80, "channel": 0}, {"type": "note_off", "time": 34, "note": 64, "velocity": 80, "channel": 0}, {"type": "note_on", "time": 26, "note": 68, "velocity": 80, "channel": 0}, {"type": "note_off", "time": 118, "note": 68, "velocity": 80, "channel": 0}, {"type": "note_on", "time": 763, "note": 74, "velocity": 80, "channel": 0}, {"type": "note_off", "time": 96, "note": 74, "velocity": 80, "channel": 0}, {"type": "note_on", "time": 34, "note": 75, "velocity": 80, "channel": 0}, {"type": "note_off", "time": 140, "note": 75, "velocity": 80, "channel": 0}, {"type": "note_on", "time": 23, "note": 77, "velocity": 80, "channel": 0}, {"type": "note_off", "time": 219, "note": 77, "velocity": 80, "channel": 0}, {"type": "note_on", "time": 7, "note": 79, "velocity": 80, "channel": 0}, {"type": "note_off", "time": 163, "note": 79, "velocity": 80, "channel": 0}, {"type": "note_on", "time": 3, "note": 80, "velocity": 80, "channel": 0}, {"type": "note_off", "time": 682, "note": 80, "velocity": 80, "channel": 0}, {"type": "note_on", "time": 12, "note": 85, "velocity": 80, "channel": 0}, {"type": "note_off", "time": 481, "note": 85, "velocity": 80, "channel": 0}, {"type": "note_on", "time": 4279, "note": 79, "velocity": 80, "channel": 0}, {"type": "note_off", "time": 79, "note": 79, "velocity": 80, "channel": 0}, {"type": "note_on", "time": 47, "note": 70, "velocity": 80, "channel": 0}, {"type": "note_off", "time": 63, "note": 70, "velocity": 80, "channel": 0}, {"type": "note_on", "time": 21, "note": 77, "velocity": 80, "channel": 0}, {"type": "note_off", "time": 68, "note": 77, "velocity": 80, "channel": 0}, {"type": "note_on", "time": 34, "note": 67, "velocity": 80, "channel": 0}, {"type": "note_off", "time": 68, "note": 67, "velocity": 80, "channel": 0}, {"type": "note_on", "time": 17, "note": 75, "velocity": 80, "channel": 0}, {"type": "note_off", "time": 67, "note": 75, "velocity": 80, "channel": 0}, {"type": "note_on", "time": 57, "note": 67, "velocity": 80, "channel": 0}, {"type": "note_off", "time": 44, "note": 67, "velocity": 80, "channel": 0}, {"type": "note_on", "time": 17, "note": 74, "velocity": 80, "channel": 0}, {"type": "note_off", "time": 77, "note": 74, "velocity": 80, "channel": 0}, {"type": "note_on", "time": 19, "note": 65, "velocity": 80, "channel": 0}, {"type": "note_off", "time": 58, "note": 65, "velocity": 80, "channel": 0}, {"type": "note_on", "time": 34, "note": 72, "velocity": 80, "channel": 0}, {"type": "note_off", "time": 87, "note": 72, "velocity": 80, "channel": 0}, {"type": "note_on", "time": 23, "note": 65, "velocity": 80, "channel": 0}, {"type": "note_off", "time": 61, "note": 65, "velocity": 80, "channel": 0}, {"type": "note_on", "time": 23, "note": 70, "velocity": 80, "channel": 0}, {"type": "note_off", "time": 77, "note": 70, "velocity": 80, "channel": 0}, {"type": "note_on", "time": 30, "note": 63, "velocity": 80, "channel": 0}, {"type": "note_off", "time": 66, "note": 63, "velocity": 80, "channel": 0}, {"type": "note_on", "time": 32, "note": 68, "velocity": 80, "channel": 0}, {"type": "note_off", "time": 79, "note": 68, "velocity": 80, "channel": 0}, {"type": "note_on", "time": 20, "note": 59, "velocity": 80, "channel": 0}, {"type": "note_off", "time": 51, "note": 59, "velocity": 80, "channel": 0}, {"type": "note_on", "time": 33, "note": 67, "velocity": 80, "channel": 0}, {"type": "note_off", "time": 90, "note": 67, "velocity": 80, "channel": 0}, {"type": "note_on", "time": 24, "note": 59, "velocity": 80, "channel": 0}, {"type": "note_off", "time": 56, "note": 59, "velocity": 80, "channel": 0}, {"type": "note_on", "time": 30, "note": 65, "velocity": 80, "channel": 0}, {"type": "note_off", "time": 91, "note": 65, "velocity": 80, "channel": 0}, {"type": "note_on", "time": 28, "note": 58, "velocity": 80, "channel": 0}, {"type": "note_off", "time": 43, "note": 58, "velocity": 80, "channel": 0}, {"type": "note_on", "time": 34, "note": 63, "velocity": 80, "channel": 0}, {"type": "note_off", "time": 72, "note": 63, "velocity": 80, "channel": 0}, {"type": "note_on", "time": 49, "note": 55, "velocity": 80, "channel": 0}, {"type": "note_off", "time": 52, "note": 55, "velocity": 80, "channel": 0}, {"type": "note_on", "time": 21, "note": 62, "velocity": 80, "channel": 0}, {"type": "note_off", "time": 80, "note": 62, "velocity": 80, "channel": 0}, {"type": "note_on", "time": 45, "note": 58, "velocity": 80, "channel": 0}, {"type": "note_off", "time": 49, "note": 58, "velocity": 80, "channel": 0}, {"type": "note_on", "time": 21, "note": 60, "velocity": 80, "channel": 0}, {"type": "note_off", "time": 89, "note": 60, "velocity": 80, "channel": 0}, {"type": "note_on", "time": 47, "note": 57, "velocity": 80, "channel": 0}, {"type": "note_off", "time": 63, "note": 57, "velocity": 80, "channel": 0}, {"type": "note_on", "time": 22, "note": 58, "velocity": 80, "channel": 0}, {"type": "note_off", "time": 71, "note": 58, "velocity": 80, "channel": 0}, {"type": "note_on", "time": 25, "note": 54, "velocity": 80, "channel": 0}, {"type": "note_off", "time": 63, "note": 54, "velocity": 80, "channel": 0}, {"type": "note_on", "time": 17, "note": 56, "velocity": 80, "channel": 0}, {"type": "note_off", "time": 104, "note": 56, "velocity": 80, "channel": 0}, {"type": "end_of_track", "time": 0}]]}