{"ticks_per_beat": 192, "tracks": [[{"type": "track_name", "name": "Melody", "time": 0}, {"type": "set_tempo", "tempo": 521739, "time": 0}, {"type": "key_signature", "key": "Bb", "time": 0}, {"type": "time_signature", "numerator": 4, "denominator": 4, "clocks_per_click": 24, "notated_32nd_notes_per_beat": 8, "time": 0}, {"type": "note_on", "time": 585, "note": 71, "velocity": 117, "channel": 0}, {"type": "note_off", "time": 32, "note": 71, "velocity": 117, "channel": 0}, {"type": "note_on", "time": 3, "note": 72, "velocity": 112, "channel": 0}, {"type": "note_off", "time": 252, "note": 72, "velocity": 112, "channel": 0}, {"type": "note_on", "time": 106, "note": 72, "velocity": 116, "channel": 0}, {"type": "note_off", "time": 124, "note": 72, "velocity": 116, "channel": 0}, {"type": "note_on", "time": 13, "note": 72, "velocity": 118, "channel": 0}, {"type": "note_off", "time": 42, "note": 72, "velocity": 118, "channel": 0}, {"type": "note_on", "time": 807, "note": 73, "velocity": 119, "channel": 0}, {"type": "note_off", "time": 14, "note": 73, "velocity": 119, "channel": 0}, {"type": "note_on", "time": 5, "note": 75, "velocity": 124, "channel": 0}, {"type": "note_off", "time": 297, "note": 75, "velocity": 124, "channel": 0}, {"type": "note_on", "time": 11, "note": 72, "velocity": 110, "channel": 0}, {"type": "note_off", "time": 60, "note": 72, "velocity": 110, "channel": 0}, {"type": "note_on", "time": 191, "note": 72, "velocity": 109, "channel": 0}, {"type": "note_off", "time": 259, "note": 72, "velocity": 109, "channel": 0}, {"type": "note_on", "time": 72, "note": 65, "velocity": 102, "channel": 0}, {"type": "note_off", "time": 78, "note": 65, "velocity": 102, "channel": 0}, {"type": "note_on", "time": 4, "note": 67, "velocity": 97, "channel": 0}, {"type": "note_off", "time": 65, "note": 67, "velocity": 97, "channel": 0}, {"type": "note_on", "time": 97, "note": 67, "velocity": 93, "channel": 0}, {"type": "note_off", "time": 159, "note": 67, "velocity": 93, "channel": 0}, {"type": "note_on", "time": 630, "note": 73, "velocity": 107, "channel": 0}, {"type": "note_off", "time": 113, "note": 73, "velocity": 107, "channel": 0}, {"type": "note_on", "time": 82, "note": 70, "velocity": 109, "channel": 0}, {"type": "note_off", "time": 257, "note": 70, "velocity": 109, "channel": 0}, {"type": "note_on", "time": 147, "note": 74, "velocity": 123, "channel": 0}, {"type": "note_off", "time": 16, "note": 74, "velocity": 123, "channel": 0}, {"type": "note_on", "time": 4, "note": 75, "velocity": 127, "channel": 0}, {"type": "note_off", "time": 166, "note": 75, "velocity": 127, "channel": 0}, {"type": "note_on", "time": 10, "note": 73, "velocity": 108, "channel": 0}, {"type": "note_off", "time": 85, "note": 73, "velocity": 108, "channel": 0}, {"type": "note_on", "time": 53, "note": 70, "velocity": 106, "channel": 0}, {"type": "note_off", "time": 176, "note": 70, "velocity": 106, "channel": 0}, {"type": "note_on", "time": 56, "note": 70, "velocity": 110, "channel": 0}, {"type": "note_off", "time": 121, "note": 70, "velocity": 110, "channel": 0}, {"type": "note_on", "time": 13, "note": 70, "velocity": 109, "channel": 0}, {"type": "note_off", "time": 212, "note": 70, "velocity": 109, "channel": 0}, {"type": "note_on", "time": 4, "note": 65, "velocity": 91, "channel": 0}, {"type": "note_off", "time": 22, "note": 65, "velocity": 91, "channel": 0}, {"type": "note_on", "time": 19, "note": 68, "velocity": 109, "channel": 0}, {"type": "note_off", "time": 116, "note": 68, "velocity": 109, "channel": 0}, {"type": "note_on", "time": 83, "note": 65, "velocity": 88, "channel": 0}, {"type": "note_off", "time": 166, "note": 65, "velocity": 88, "channel": 0}, {"type": "note_on", "time": 1009, "note": 74, "velocity": 111, "channel": 0}, {"type": "note_off", "time": 26, "note": 74, "velocity": 111, "channel": 0}, {"type": "note_on", "time": 9, "note": 73, "velocity": 107, "channel": 0}, {"type": "note_off", "time": 30, "note": 73, "velocity": 107, "channel": 0}, {"type": "note_on", "time": 6, "note": 74, "velocity": 108, "channel": 0}, {"type": "note_off", "time": 76, "note": 74, "velocity": 108, "channel": 0}, {"type": "note_on", "time": 52, "note": 71, "velocity": 104, "channel": 0}, {"type": "note_off", "time": 23, "note": 71, "velocity": 104, "channel": 0}, {"type": "note_on", "time": 4, "note": 73, "velocity": 110, "channel": 0}, {"type": "note_off", "time": 18, "note": 73, "velocity": 110, "channel": 0}, {"type": "note_on", "time": 6, "note": 74, "velocity": 111, "channel": 0}, {"type": "note_off", "time": 76, "note": 74, "velocity": 111, "channel": 0}, {"type": "note_on", "time": 44, "note": 71, "velocity": 104, "channel": 0}, {"type": "note_off", "time": 20, "note": 71, "velocity": 104, "channel": 0}, {"type": "note_on", "time": 0, "note": 73, "velocity": 111, "channel": 0}, {"type": "note_off", "time": 23, "note": 73, "velocity": 111, "channel": 0}, {"type": "note_on", "time": 3, "note": 74, "velocity": 110, "channel": 0}, {"type": "note_off", "time": 23, "note": 74, "velocity": 110, "channel": 0}, {"type": "note_on", "time": 9, "note": 74, "velocity": 115, "channel": 0}, {"type": "note_off", "time": 66, "note": 74, "velocity": 115, "channel": 0}, {"type": "note_on", "time": 44, "note": 74, "velocity": 108, "channel": 0}, {"type": "note_off", "time": 18, "note": 74, "velocity": 108, "channel": 0}, {"type": "note_on", "time": 2, "note": 73, "velocity": 113, "channel": 0}, {"type": "note_off", "time": 18, "note": 73, "velocity": 113, "channel": 0}, {"type": "note_on", "time": 6, "note": 74, "velocity": 117, "channel": 0}, {"type": "note_off", "time": 20, "note": 74, "velocity": 117, "channel": 0}, {"type": "note_on", "time": 12, "note": 74, "velocity": 119, "channel": 0}, {"type": "note_off", "time": 45, "note": 74, "velocity": 119, "channel": 0}, {"type": "note_on", "time": 72, "note": 74, "velocity": 111, "channel": 0}, {"type": "note_off", "time": 14, "note": 74, "velocity": 111, "channel": 0}, {"type": "note_on", "time": 4, "note": 73, "velocity": 109, "channel": 0}, {"type": "note_off", "time": 14, "note": 73, "velocity": 109, "channel": 0}, {"type": "note_on", "time": 5, "note": 74, "velocity": 114, "channel": 0}, {"type": "note_off", "time": 18, "note": 74, "velocity": 114, "channel": 0}, {"type": "note_on", "time": 13, "note": 74, "velocity": 119, "channel": 0}, {"type": "note_off", "time": 43, "note": 74, "velocity": 119, "channel": 0}, {"type": "note_on", "time": 56, "note": 71, "velocity": 105, "channel": 0}, {"type": "note_off", "time": 33, "note": 71, "velocity": 105, "channel": 0}, {"type": "note_on", "time": 5, "note": 73, "velocity": 111, "channel": 0}, {"type": "note_off", "time": 14, "note": 73, "velocity": 111, "channel": 0}, {"type": "note_on", "time": 6, "note": 74, "velocity": 114, "channel": 0}, {"type": "note_off", "time": 17, "note": 74, "velocity": 114, "channel": 0}, {"type": "note_on", "time": 16, "note": 74, "velocity": 114, "channel": 0}, {"type": "note_off", "time": 50, "note": 74, "velocity": 114, "channel": 0}, {"type": "note_on", "time": 54, "note": 74, "velocity": 110, "channel": 0}, {"type": "note_off", "time": 17, "note": 74, "velocity": 110, "channel": 0}, {"type": "note_on", "time": 2, "note": 73, "velocity": 110, "channel": 0}, {"type": "note_off", "time": 24, "note": 73, "velocity": 110, "channel": 0}, {"type": "note_on", "time": 7, "note": 74, "velocity": 114, "channel": 0}, {"type": "note_off", "time": 11, "note": 74, "velocity": 114, "channel": 0}, {"type": "note_on", "time": 18, "note": 74, "velocity": 116, "channel": 0}, {"type": "note_off", "time": 43, "note": 74, "velocity": 116, "channel": 0}, {"type": "note_on", "time": 61, "note": 74, "velocity": 113, "channel": 0}, {"type": "note_off", "time": 24, "note": 74, "velocity": 113, "channel": 0}, {"type": "note_on", "time": 5, "note": 73, "velocity": 109, "channel": 0}, {"type": "note_off", "time": 16, "note": 73, "velocity": 109, "channel": 0}, {"type": "note_on", "time": 4, "note": 74, "velocity": 115, "channel": 0}, {"type": "note_off", "time": 18, "note": 74, "velocity": 115, "channel": 0}, {"type": "note_on", "time": 13, "note": 74, "velocity": 119, "channel": 0}, {"type": "note_off", "time": 60, "note": 74, "velocity": 119, "channel": 0}, {"type": "note_on", "time": 47, "note": 70, "velocity": 116, "channel": 0}, {"type": "note_off", "time": 81, "note": 70, "velocity": 116, "channel": 0}, {"type": "note_on", "time": 60, "note": 67, "velocity": 111, "channel": 0}, {"type": "note_off", "time": 23, "note": 67, "velocity": 111, "channel": 0}, {"type": "note_on", "time": 3, "note": 68, "velocity": 110, "channel": 0}, {"type": "note_off", "time": 45, "note": 68, "velocity": 110, "channel": 0}, {"type": "note_on", "time": 30, "note": 65, "velocity": 107, "channel": 0}, {"type": "note_off", "time": 90, "note": 65, "velocity": 107, "channel": 0}, {"type": "note_on", "time": 57, "note": 65, "velocity": 99, "channel": 0}, {"type": "note_off", "time": 135, "note": 65, "velocity": 99, "channel": 0}, {"type": "note_on", "time": 561, "note": 66, "velocity": 70, "channel": 0}, {"type": "note_off", "time": 9, "note": 66, "velocity": 70, "channel": 0}, {"type": "note_on", "time": 31, "note": 70, "velocity": 105, "channel": 0}, {"type": "note_off", "time": 108, "note": 70, "velocity": 105, "channel": 0}, {"type": "note_on", "time": 75, "note": 70, "velocity": 106, "channel": 0}, {"type": "note_off", "time": 137, "note": 70, "velocity": 106, "channel": 0}, {"type": "note_on", "time": 14, "note": 70, "velocity": 98, "channel": 0}, {"type": "note_off", "time": 221, "note": 70, "velocity": 98, "channel": 0}, {"type": "note_on", "time": 797, "note": 73, "velocity": 118, "channel": 0}, {"type": "note_off", "time": 29, "note": 73, "velocity": 118, "channel": 0}, {"type": "note_on", "time": 6, "note": 74, "velocity": 107, "channel": 0}, {"type": "note_off", "time": 129, "note": 74, "velocity": 107, "channel": 0}, {"type": "note_on", "time": 27, "note": 70, "velocity": 106, "channel": 0}, {"type": "note_off", "time": 141, "note": 70, "velocity": 106, "channel": 0}, {"type": "note_on", "time": 12, "note": 65, "velocity": 104, "channel": 0}, {"type": "note_off", "time": 39, "note": 65, "velocity": 104, "channel": 0}, {"type": "note_on", "time": 3, "note": 69, "velocity": 112, "channel": 0}, {"type": "note_off", "time": 129, "note": 69, "velocity": 112, "channel": 0}, {"type": "note_on", "time": 2, "note": 68, "velocity": 103, "channel": 0}, {"type": "note_off", "time": 64, "note": 68, "velocity": 103, "channel": 0}, {"type": "note_on", "time": 1168, "note": 74, "velocity": 117, "channel": 0}, {"type": "note_off", "time": 58, "note": 74, "velocity": 117, "channel": 0}, {"type": "note_on", "time": 4, "note": 75, "velocity": 126, "channel": 0}, {"type": "note_off", "time": 94, "note": 75, "velocity": 126, "channel": 0}, {"type": "note_on", "time": 14, "note": 73, "velocity": 113, "channel": 0}, {"type": "note_off", "time": 49, "note": 73, "velocity": 113, "channel": 0}, {"type": "note_on", "time": 59, "note": 70, "velocity": 109, "channel": 0}, {"type": "note_off", "time": 66, "note": 70, "velocity": 109, "channel": 0}, {"type": "note_on", "time": 49, "note": 65, "velocity": 92, "channel": 0}, {"type": "note_off", "time": 274, "note": 65, "velocity": 92, "channel": 0}, {"type": "note_on", "time": 18, "note": 65, "velocity": 103, "channel": 0}, {"type": "note_off", "time": 75, "note": 65, "velocity": 103, "channel": 0}, {"type": "note_on", "time": 776, "note": 62, "velocity": 106, "channel": 0}, {"type": "note_off", "time": 19, "note": 62, "velocity": 106, "channel": 0}, {"type": "note_on", "time": 2, "note": 63, "velocity": 109, "channel": 0}, {"type": "note_off", "time": 442, "note": 63, "velocity": 109, "channel": 0}, {"type": "note_on", "time": 24, "note": 61, "velocity": 100, "channel": 0}, {"type": "note_off", "time": 46, "note": 61, "velocity": 100, "channel": 0}, {"type": "note_on", "time": 34, "note": 63, "velocity": 112, "channel": 0}, {"type": "note_off", "time": 31, "note": 63, "velocity": 112, "channel": 0}, {"type": "note_on", "time": 4, "note": 65, "velocity": 105, "channel": 0}, {"type": "note_off", "time": 329, "note": 65, "velocity": 105, "channel": 0}, {"type": "note_on", "time": 18, "note": 70, "velocity": 124, "channel": 0}, {"type": "note_off", "time": 111, "note": 70, "velocity": 124, "channel": 0}, {"type": "note_on", "time": 615, "note": 74, "velocity": 117, "channel": 0}, {"type": "note_off", "time": 126, "note": 74, "velocity": 117, "channel": 0}, {"type": "note_on", "time": 1, "note": 74, "velocity": 124, "channel": 0}, {"type": "note_off", "time": 198, "note": 74, "velocity": 124, "channel": 0}, {"type": "note_on", "time": 3, "note": 72, "velocity": 113, "channel": 0}, {"type": "note_off", "time": 52, "note": 72, "velocity": 113, "channel": 0}, {"type": "note_on", "time": 788, "note": 74, "velocity": 101, "channel": 0}, {"type": "note_off", "time": 175, "note": 74, "velocity": 101, "channel": 0}, {"type": "note_on", "time": 7, "note": 74, "velocity": 117, "channel": 0}, {"type": "note_off", "time": 273, "note": 74, "velocity": 117, "channel": 0}, {"type": "note_on", "time": 55, "note": 72, "velocity": 108, "channel": 0}, {"type": "note_off", "time": 82, "note": 72, "velocity": 108, "channel": 0}, {"type": "note_on", "time": 42, "note": 70, "velocity": 111, "channel": 0}, {"type": "note_off", "time": 99, "note": 70, "velocity": 111, "channel": 0}, {"type": "note_on", "time": 63, "note": 67, "velocity": 102, "channel": 0}, {"type": "note_off", "time": 39, "note": 67, "velocity": 102, "channel": 0}, {"type": "note_on", "time": 2, "note": 68, "velocity": 98, "channel": 0}, {"type": "note_off", "time": 97, "note": 68, "velocity": 98, "channel": 0}, {"type": "note_on", "time": 35, "note": 65, "velocity": 94, "channel": 0}, {"type": "note_off", "time": 162, "note": 65, "velocity": 94, "channel": 0}, {"type": "note_on", "time": 755, "note": 66, "velocity": 107, "channel": 0}, {"type": "note_off", "time": 44, "note": 66, "velocity": 107, "channel": 0}, {"type": "note_on", "time": 9, "note": 67, "velocity": 96, "channel": 0}, {"type": "note_off", "time": 107, "note": 67, "velocity": 96, "channel": 0}, {"type": "note_on", "time": 9, "note": 66, "velocity": 92, "channel": 0}, {"type": "note_off", "time": 35, "note": 66, "velocity": 92, "channel": 0}, {"type": "note_on", "time": 12, "note": 67, "velocity": 102, "channel": 0}, {"type": "note_off", "time": 122, "note": 67, "velocity": 102, "channel": 0}, {"type": "note_on", "time": 6, "note": 66, "velocity": 90, "channel": 0}, {"type": "note_off", "time": 36, "note": 66, "velocity": 90, "channel": 0}, {"type": "note_on", "time": 9, "note": 67, "velocity": 103, "channel": 0}, {"type": "note_off", "time": 136, "note": 67, "velocity": 103, "channel": 0}, {"type": "note_on", "time": 7, "note": 66, "velocity": 89, "channel": 0}, {"type": "note_off", "time": 48, "note": 66, "velocity": 89, "channel": 0}, {"type": "note_on", "time": 11, "note": 67, "velocity": 99, "channel": 0}, {"type": "note_off", "time": 114, "note": 67, "velocity": 99, "channel": 0}, {"type": "note_on", "time": 44, "note": 70, "velocity": 114, "channel": 0}, {"type": "note_off", "time": 68, "note": 70, "velocity": 114, "channel": 0}, {"type": "note_on", "time": 602, "note": 63, "velocity": 99, "channel": 0}, {"type": "note_off", "time": 41, "note": 63, "velocity": 99, "channel": 0}, {"type": "note_on", "time": 1, "note": 67, "velocity": 102, "channel": 0}, {"type": "note_off", "time": 235, "note": 67, "velocity": 102, "channel": 0}, {"type": "note_on", "time": 11, "note": 66, "velocity": 104, "channel": 0}, {"type": "note_off", "time": 48, "note": 66, "velocity": 104, "channel": 0}, {"type": "note_on", "time": 15, "note": 67, "velocity": 106, "channel": 0}, {"type": "note_off", "time": 116, "note": 67, "velocity": 106, "channel": 0}, {"type": "note_on", "time": 15, "note": 66, "velocity": 96, "channel": 0}, {"type": "note_off", "time": 33, "note": 66, "velocity": 96, "channel": 0}, {"type": "note_on", "time": 14, "note": 67, "velocity": 104, "channel": 0}, {"type": "note_off", "time": 118, "note": 67, "velocity": 104, "channel": 0}, {"type": "note_on", "time": 15, "note": 66, "velocity": 99, "channel": 0}, {"type": "note_off", "time": 37, "note": 66, "velocity": 99, "channel": 0}, {"type": "note_on", "time": 5, "note": 67, "velocity": 102, "channel": 0}, {"type": "note_off", "time": 122, "note": 67, "velocity": 102, "channel": 0}, {"type": "note_on", "time": 25, "note": 70, "velocity": 116, "channel": 0}, {"type": "note_off", "time": 64, "note": 70, "velocity": 116, "channel": 0}, {"type": "note_on", "time": 1142, "note": 71, "velocity": 119, "channel": 0}, {"type": "note_off", "time": 27, "note": 71, "velocity": 119, "channel": 0}, {"type": "note_on", "time": 7, "note": 72, "velocity": 107, "channel": 0}, {"type": "note_off", "time": 698, "note": 72, "velocity": 107, "channel": 0}, {"type": "note_on", "time": 45, "note": 73, "velocity": 110, "channel": 0}, {"type": "note_off", "time": 81, "note": 73, "velocity": 110, "channel": 0}, {"type": "note_on", "time": 25, "note": 70, "velocity": 112, "channel": 0}, {"type": "note_off", "time": 54, "note": 70, "velocity": 112, "channel": 0}, {"type": "note_on", "time": 59, "note": 65, "velocity": 100, "channel": 0}, {"type": "note_off", "time": 131, "note": 65, "velocity": 100, "channel": 0}, {"type": "note_on", "time": 9, "note": 65, "velocity": 103, "channel": 0}, {"type": "note_off", "time": 123, "note": 65, "velocity": 103, "channel": 0}, {"type": "note_on", "time": 8, "note": 65, "velocity": 104, "channel": 0}, {"type": "note_off", "time": 215, "note": 65, "velocity": 104, "channel": 0}, {"type": "note_on", "time": 12, "note": 69, "velocity": 117, "channel": 0}, {"type": "note_off", "time": 38, "note": 69, "velocity": 117, "channel": 0}, {"type": "note_on", "time": 11, "note": 70, "velocity": 114, "channel": 0}, {"type": "note_off", "time": 72, "note": 70, "velocity": 114, "channel": 0}, {"type": "note_on", "time": 1455, "note": 73, "velocity": 105, "channel": 0}, {"type": "note_off", "time": 102, "note": 73, "velocity": 105, "channel": 0}, {"type": "note_on", "time": 464, "note": 70, "velocity": 122, "channel": 0}, {"type": "note_off", "time": 88, "note": 70, "velocity": 122, "channel": 0}, {"type": "note_on", "time": 98, "note": 67, "velocity": 106, "channel": 0}, {"type": "note_off", "time": 67, "note": 67, "velocity": 106, "channel": 0}, {"type": "note_on", "time": 2, "note": 68, "velocity": 102, "channel": 0}, {"type": "note_off", "time": 103, "note": 68, "velocity": 102, "channel": 0}, {"type": "note_on", "time": 18, "note": 65, "velocity": 98, "channel": 0}, {"type": "note_off", "time": 168, "note": 65, "velocity": 98, "channel": 0}, {"type": "note_on", "time": 11, "note": 69, "velocity": 105, "channel": 0}, {"type": "note_off", "time": 129, "note": 69, "velocity": 105, "channel": 0}, {"type": "note_on", "time": 10, "note": 68, "velocity": 107, "channel": 0}, {"type": "note_off", "time": 453, "note": 68, "velocity": 107, "channel": 0}, {"type": "note_on", "time": 2, "note": 68, "velocity": 111, "channel": 0}, {"type": "note_off", "time": 88, "note": 68, "velocity": 111, "channel": 0}, {"type": "note_on", "time": 606, "note": 65, "velocity": 90, "channel": 0}, {"type": "note_off", "time": 66, "note": 65, "velocity": 90, "channel": 0}, {"type": "note_on", "time": 20, "note": 70, "velocity": 103, "channel": 0}, {"type": "note_off", "time": 88, "note": 70, "velocity": 103, "channel": 0}, {"type": "note_on", "time": 52, "note": 70, "velocity": 101, "channel": 0}, {"type": "note_off", "time": 130, "note": 70, "velocity": 101, "channel": 0}, {"type": "note_on", "time": 17, "note": 70, "velocity": 97, "channel": 0}, {"type": "note_off", "time": 416, "note": 70, "velocity": 97, "channel": 0}, {"type": "note_on", "time": 11, "note": 70, "velocity": 106, "channel": 0}, {"type": "note_off", "time": 197, "note": 70, "velocity": 106, "channel": 0}, {"type": "note_on", "time": 10, "note": 70, "velocity": 104, "channel": 0}, {"type": "note_off", "time": 373, "note": 70, "velocity": 104, "channel": 0}, {"type": "note_on", "time": 14, "note": 70, "velocity": 106, "channel": 0}, {"type": "note_off", "time": 370, "note": 70, "velocity": 106, "channel": 0}, {"type": "note_on", "time": 22, "note": 70, "velocity": 103, "channel": 0}, {"type": "note_off", "time": 106, "note": 70, "velocity": 103, "channel": 0}, {"type": "note_on", "time": 19, "note": 70, "velocity": 98, "channel": 0}, {"type": "note_off", "time": 236, "note": 70, "velocity": 98, "channel": 0}, {"type": "note_on", "time": 9, "note": 70, "velocity": 108, "channel": 0}, {"type": "note_off", "time": 140, "note": 70, "velocity": 108, "channel": 0}, {"type": "note_on", "time": 1227, "note": 63, "velocity": 93, "channel": 0}, {"type": "note_off", "time": 35, "note": 63, "velocity": 93, "channel": 0}, {"type": "note_on", "time": 61, "note": 70, "velocity": 122, "channel": 0}, {"type": "note_off", "time": 64, "note": 70, "velocity": 122, "channel": 0}, {"type": "note_on", "time": 45, "note": 70, "velocity": 116, "channel": 0}, {"type": "note_off", "time": 95, "note": 70, "velocity": 116, "channel": 0}, {"type": "note_on", "time": 57, "note": 70, "velocity": 120, "channel": 0}, {"type": "note_off", "time": 118, "note": 70, "velocity": 120, "channel": 0}, {"type": "note_on", "time": 62, "note": 70, "velocity": 118, "channel": 0}, {"type": "note_off", "time": 125, "note": 70, "velocity": 118, "channel": 0}, {"type": "note_on", "time": 85, "note": 70, "velocity": 116, "channel": 0}, {"type": "note_off", "time": 148, "note": 70, "velocity": 116, "channel": 0}, {"type": "note_on", "time": 148, "note": 70, "velocity": 118, "channel": 0}, {"type": "note_off", "time": 77, "note": 70, "velocity": 118, "channel": 0}, {"type": "note_on", "time": 66, "note": 70, "velocity": 120, "channel": 0}, {"type": "note_off", "time": 85, "note": 70, "velocity": 120, "channel": 0}, {"type": "note_on", "time": 79, "note": 70, "velocity": 121, "channel": 0}, {"type": "note_off", "time": 81, "note": 70, "velocity": 121, "channel": 0}, {"type": "note_on", "time": 100, "note": 70, "velocity": 122, "channel": 0}, {"type": "note_off", "time": 33, "note": 70, "velocity": 122, "channel": 0}, {"type": "note_on", "time": 6, "note": 69, "velocity": 105, "channel": 0}, {"type": "note_off", "time": 259, "note": 69, "velocity": 105, "channel": 0}, {"type": "note_on", "time": 64, "note": 65, "velocity": 96, "channel": 0}, {"type": "note_off", "time": 178, "note": 65, "velocity": 96, "channel": 0}, {"type": "note_on", "time": 509, "note": 65, "velocity": 116, "channel": 0}, {"type": "note_off", "time": 48, "note": 65, "velocity": 116, "channel": 0}, {"type": "note_on", "time": 18, "note": 68, "velocity": 115, "channel": 0}, {"type": "note_off", "time": 165, "note": 68, "velocity": 115, "channel": 0}, {"type": "note_on", "time": 15, "note": 67, "velocity": 105, "channel": 0}, {"type": "note_off", "time": 185, "note": 67, "velocity": 105, "channel": 0}, {"type": "note_on", "time": 11, "note": 66, "velocity": 104, "channel": 0}, {"type": "note_off", "time": 343, "note": 66, "velocity": 104, "channel": 0}, {"type": "note_on", "time": 631, "note": 67, "velocity": 99, "channel": 0}, {"type": "note_off", "time": 12, "note": 67, "velocity": 99, "channel": 0}, {"type": "note_on", "time": 9, "note": 68, "velocity": 117, "channel": 0}, {"type": "note_off", "time": 301, "note": 68, "velocity": 117, "channel": 0}, {"type": "note_on", "time": 50, "note": 64, "velocity": 95, "channel": 0}, {"type": "note_off", "time": 99, "note": 64, "velocity": 95, "channel": 0}, {"type": "note_on", "time": 16, "note": 63, "velocity": 102, "channel": 0}, {"type": "note_off", "time": 767, "note": 63, "velocity": 102, "channel": 0}, {"type": "note_on", "time": 466, "note": 64, "velocity": 106, "channel": 0}, {"type": "note_off", "time": 17, "note": 64, "velocity": 106, "channel": 0}, {"type": "note_on", "time": 6, "note": 65, "velocity": 101, "channel": 0}, {"type": "note_off", "time": 120, "note": 65, "velocity": 101, "channel": 0}, {"type": "note_on", "time": 9, "note": 63, "velocity": 102, "channel": 0}, {"type": "note_off", "time": 138, "note": 63, "velocity": 102, "channel": 0}, {"type": "end_of_track", "time": 0}]]}