{"ticks_per_beat": 360, "tracks": [[{"type": "track_name", "name": "Melody", "time": 0}, {"type": "set_tempo", "tempo": 618556, "time": 0}, {"type": "key_signature", "key": "C", "time": 0}, {"type": "time_signature", "numerator": 4, "denominator": 4, "clocks_per_click": 24, "notated_32nd_notes_per_beat": 8, "time": 0}, {"type": "note_on", "time": 4812, "note": 67, "velocity": 95, "channel": 0}, {"type": "note_off", "time": 144, "note": 67, "velocity": 95, "channel": 0}, {"type": "note_on", "time": 47, "note": 72, "velocity": 117, "channel": 0}, {"type": "note_off", "time": 287, "note": 72, "velocity": 117, "channel": 0}, {"type": "note_on", "time": 30, "note": 71, "velocity": 118, "channel": 0}, {"type": "note_off", "time": 201, "note": 71, "velocity": 118, "channel": 0}, {"type": "note_on", "time": 35, "note": 70, "velocity": 111, "channel": 0}, {"type": "note_off", "time": 594, "note": 70, "velocity": 111, "channel": 0}, {"type": "note_on", "time": 2094, "note": 72, "velocity": 123, "channel": 0}, {"type": "note_off", "time": 199, "note": 72, "velocity": 123, "channel": 0}, {"type": "note_on", "time": 23, "note": 74, "velocity": 118, "channel": 0}, {"type": "note_off", "time": 199, "note": 74, "velocity": 118, "channel": 0}, {"type": "note_on", "time": 0, "note": 70, "velocity": 113, "channel": 0}, {"type": "note_off", "time": 574, "note": 70, "velocity": 113, "channel": 0}, {"type": "note_on", "time": 1493, "note": 76, "velocity": 112, "channel": 0}, {"type": "note_off", "time": 54, "note": 76, "velocity": 112, "channel": 0}, {"type": "note_on", "time": 20, "note": 78, "velocity": 121, "channel": 0}, {"type": "note_off", "time": 537, "note": 78, "velocity": 121, "channel": 0}, {"type": "note_on", "time": 16, "note": 79, "velocity": 115, "channel": 0}, {"type": "note_off", "time": 118, "note": 79, "velocity": 115, "channel": 0}, {"type": "note_on", "time": 1037, "note": 72, "velocity": 114, "channel": 0}, {"type": "note_on", "time": 23, "note": 75, "velocity": 118, "channel": 0}, {"type": "note_off", "time": 0, "note": 72, "velocity": 114, "channel": 0}, {"type": "note_off", "time": 109, "note": 75, "velocity": 118, "channel": 0}, {"type": "note_on", "time": 0, "note": 72, "velocity": 120, "channel": 0}, {"type": "note_off", "time": 49, "note": 72, "velocity": 120, "channel": 0}, {"type": "note_on", "time": 116, "note": 68, "velocity": 118, "channel": 0}, {"type": "note_off", "time": 59, "note": 68, "velocity": 118, "channel": 0}, {"type": "note_on", "time": 13, "note": 67, "velocity": 120, "channel": 0}, {"type": "note_off", "time": 192, "note": 67, "velocity": 120, "channel": 0}, {"type": "note_on", "time": 146, "note": 65, "velocity": 117, "channel": 0}, {"type": "note_off", "time": 97, "note": 65, "velocity": 117, "channel": 0}, {"type": "note_on", "time": 7, "note": 63, "velocity": 110, "channel": 0}, {"type": "note_off", "time": 85, "note": 63, "velocity": 110, "channel": 0}, {"type": "note_on", "time": 204, "note": 64, "velocity": 119, "channel": 0}, {"type": "note_off", "time": 351, "note": 64, "velocity": 119, "channel": 0}, {"type": "note_on", "time": 11, "note": 63, "velocity": 116, "channel": 0}, {"type": "note_off", "time": 361, "note": 63, "velocity": 116, "channel": 0}, {"type": "note_on", "time": 1422, "note": 81, "velocity": 109, "channel": 0}, {"type": "note_off", "time": 42, "note": 81, "velocity": 109, "channel": 0}, {"type": "note_on", "time": 52, "note": 85, "velocity": 125, "channel": 0}, {"type": "note_off", "time": 168, "note": 85, "velocity": 125, "channel": 0}, {"type": "note_on", "time": 5, "note": 87, "velocity": 116, "channel": 0}, {"type": "note_off", "time": 551, "note": 87, "velocity": 116, "channel": 0}, {"type": "note_on", "time": 933, "note": 86, "velocity": 114, "channel": 0}, {"type": "note_off", "time": 42, "note": 86, "velocity": 114, "channel": 0}, {"type": "note_on", "time": 16, "note": 87, "velocity": 116, "channel": 0}, {"type": "note_off", "time": 235, "note": 87, "velocity": 116, "channel": 0}, {"type": "note_on", "time": 9, "note": 90, "velocity": 106, "channel": 0}, {"type": "note_off", "time": 35, "note": 90, "velocity": 106, "channel": 0}, {"type": "note_on", "time": 1392, "note": 65, "velocity": 109, "channel": 0}, {"type": "note_off", "time": 77, "note": 65, "velocity": 109, "channel": 0}, {"type": "note_on", "time": 5, "note": 66, "velocity": 114, "channel": 0}, {"type": "note_off", "time": 80, "note": 66, "velocity": 114, "channel": 0}, {"type": "note_on", "time": 11, "note": 70, "velocity": 114, "channel": 0}, {"type": "note_off", "time": 76, "note": 70, "velocity": 114, "channel": 0}, {"type": "note_on", "time": 0, "note": 68, "velocity": 118, "channel": 0}, {"type": "note_off", "time": 95, "note": 68, "velocity": 118, "channel": 0}, {"type": "note_on", "time": 15, "note": 71, "velocity": 113, "channel": 0}, {"type": "note_off", "time": 81, "note": 71, "velocity": 113, "channel": 0}, {"type": "note_on", "time": 3, "note": 72, "velocity": 119, "channel": 0}, {"type": "note_off", "time": 80, "note": 72, "velocity": 119, "channel": 0}, {"type": "note_on", "time": 13, "note": 73, "velocity": 116, "channel": 0}, {"type": "note_off", "time": 68, "note": 73, "velocity": 116, "channel": 0}, {"type": "note_on", "time": 7, "note": 74, "velocity": 115, "channel": 0}, {"type": "note_off", "time": 73, "note": 74, "velocity": 115, "channel": 0}, {"type": "note_on", "time": 5, "note": 75, "velocity": 121, "channel": 0}, {"type": "note_off", "time": 81, "note": 75, "velocity": 121, "channel": 0}, {"type": "note_on", "time": 2, "note": 76, "velocity": 118, "channel": 0}, {"type": "note_off", "time": 67, "note": 76, "velocity": 118, "channel": 0}, {"type": "note_on", "time": 10, "note": 77, "velocity": 120, "channel": 0}, {"type": "note_off", "time": 83, "note": 77, "velocity": 120, "channel": 0}, {"type": "note_on", "time": 3, "note": 78, "velocity": 117, "channel": 0}, {"type": "note_off", "time": 90, "note": 78, "velocity": 117, "channel": 0}, {"type": "note_on", "time": 4, "note": 74, "velocity": 112, "channel": 0}, {"type": "note_off", "time": 71, "note": 74, "velocity": 112, "channel": 0}, {"type": "note_on", "time": 7, "note": 73, "velocity": 118, "channel": 0}, {"type": "note_off", "time": 87, "note": 73, "velocity": 118, "channel": 0}, {"type": "note_on", "time": 5, "note": 75, "velocity": 123, "channel": 0}, {"type": "note_off", "time": 182, "note": 75, "velocity": 123, "channel": 0}, {"type": "note_on", "time": 10, "note": 71, "velocity": 107, "channel": 0}, {"type": "note_off", "time": 146, "note": 71, "velocity": 107, "channel": 0}, {"type": "note_on", "time": 4, "note": 72, "velocity": 116, "channel": 0}, {"type": "note_off", "time": 161, "note": 72, "velocity": 116, "channel": 0}, {"type": "note_on", "time": 2, "note": 71, "velocity": 114, "channel": 0}, {"type": "note_off", "time": 185, "note": 71, "velocity": 114, "channel": 0}, {"type": "note_on", "time": 11, "note": 69, "velocity": 116, "channel": 0}, {"type": "note_off", "time": 77, "note": 69, "velocity": 116, "channel": 0}, {"type": "note_on", "time": 6, "note": 70, "velocity": 117, "channel": 0}, {"type": "note_off", "time": 99, "note": 70, "velocity": 117, "channel": 0}, {"type": "note_on", "time": 1, "note": 69, "velocity": 120, "channel": 0}, {"type": "note_off", "time": 77, "note": 69, "velocity": 120, "channel": 0}, {"type": "note_on", "time": 5, "note": 68, "velocity": 114, "channel": 0}, {"type": "note_off", "time": 81, "note": 68, "velocity": 114, "channel": 0}, {"type": "note_on", "time": 8, "note": 67, "velocity": 111, "channel": 0}, {"type": "note_off", "time": 86, "note": 67, "velocity": 111, "channel": 0}, {"type": "note_on", "time": 11, "note": 64, "velocity": 110, "channel": 0}, {"type": "note_off", "time": 143, "note": 64, "velocity": 110, "channel": 0}, {"type": "note_on", "time": 33, "note": 60, "velocity": 97, "channel": 0}, {"type": "note_off", "time": 206, "note": 60, "velocity": 97, "channel": 0}, {"type": "note_on", "time": 1223, "note": 78, "velocity": 123, "channel": 0}, {"type": "note_off", "time": 86, "note": 78, "velocity": 123, "channel": 0}, {"type": "note_on", "time": 5, "note": 77, "velocity": 122, "channel": 0}, {"type": "note_off", "time": 77, "note": 77, "velocity": 122, "channel": 0}, {"type": "note_on", "time": 0, "note": 78, "velocity": 123, "channel": 0}, {"type": "note_off", "time": 97, "note": 78, "velocity": 123, "channel": 0}, {"type": "note_on", "time": 1, "note": 77, "velocity": 123, "channel": 0}, {"type": "note_off", "time": 77, "note": 77, "velocity": 123, "channel": 0}, {"type": "note_on", "time": 3, "note": 76, "velocity": 124, "channel": 0}, {"type": "note_off", "time": 84, "note": 76, "velocity": 124, "channel": 0}, {"type": "note_on", "time": 10, "note": 73, "velocity": 122, "channel": 0}, {"type": "note_on", "time": 74, "note": 71, "velocity": 122, "channel": 0}, {"type": "note_off", "time": 0, "note": 73, "velocity": 122, "channel": 0}, {"type": "note_off", "time": 87, "note": 71, "velocity": 122, "channel": 0}, {"type": "note_on", "time": 10, "note": 69, "velocity": 119, "channel": 0}, {"type": "note_off", "time": 97, "note": 69, "velocity": 119, "channel": 0}, {"type": "note_on", "time": 6, "note": 66, "velocity": 118, "channel": 0}, {"type": "note_off", "time": 89, "note": 66, "velocity": 118, "channel": 0}, {"type": "note_on", "time": 5, "note": 64, "velocity": 115, "channel": 0}, {"type": "note_off", "time": 72, "note": 64, "velocity": 115, "channel": 0}, {"type": "note_on", "time": 0, "note": 62, "velocity": 112, "channel": 0}, {"type": "note_off", "time": 60, "note": 62, "velocity": 112, "channel": 0}, {"type": "note_on", "time": 148, "note": 63, "velocity": 95, "channel": 0}, {"type": "note_off", "time": 243, "note": 63, "velocity": 95, "channel": 0}, {"type": "note_on", "time": 125, "note": 64, "velocity": 117, "channel": 0}, {"type": "note_off", "time": 234, "note": 64, "velocity": 117, "channel": 0}, {"type": "note_on", "time": 265, "note": 63, "velocity": 115, "channel": 0}, {"type": "note_off", "time": 383, "note": 63, "velocity": 115, "channel": 0}, {"type": "note_on", "time": 1590, "note": 75, "velocity": 120, "channel": 0}, {"type": "note_off", "time": 323, "note": 75, "velocity": 120, "channel": 0}, {"type": "note_on", "time": 7, "note": 76, "velocity": 121, "channel": 0}, {"type": "note_off", "time": 197, "note": 76, "velocity": 121, "channel": 0}, {"type": "note_on", "time": 16, "note": 75, "velocity": 122, "channel": 0}, {"type": "note_off", "time": 467, "note": 75, "velocity": 122, "channel": 0}, {"type": "note_on", "time": 76, "note": 76, "velocity": 121, "channel": 0}, {"type": "note_off", "time": 427, "note": 76, "velocity": 121, "channel": 0}, {"type": "note_on", "time": 244, "note": 70, "velocity": 121, "channel": 0}, {"type": "note_off", "time": 90, "note": 70, "velocity": 121, "channel": 0}, {"type": "note_on", "time": 2, "note": 71, "velocity": 122, "channel": 0}, {"type": "note_off", "time": 175, "note": 71, "velocity": 122, "channel": 0}, {"type": "note_on", "time": 33, "note": 67, "velocity": 117, "channel": 0}, {"type": "note_off", "time": 47, "note": 67, "velocity": 117, "channel": 0}, {"type": "note_on", "time": 9, "note": 68, "velocity": 122, "channel": 0}, {"type": "note_off", "time": 254, "note": 68, "velocity": 122, "channel": 0}, {"type": "note_on", "time": 45, "note": 68, "velocity": 117, "channel": 0}, {"type": "note_off", "time": 97, "note": 68, "velocity": 117, "channel": 0}, {"type": "note_on", "time": 0, "note": 69, "velocity": 116, "channel": 0}, {"type": "note_off", "time": 68, "note": 69, "velocity": 116, "channel": 0}, {"type": "note_on", "time": 2, "note": 67, "velocity": 117, "channel": 0}, {"type": "note_off", "time": 40, "note": 67, "velocity": 117, "channel": 0}, {"type": "note_on", "time": 16, "note": 68, "velocity": 111, "channel": 0}, {"type": "note_off", "time": 201, "note": 68, "velocity": 111, "channel": 0}, {"type": "note_on", "time": 1413, "note": 75, "velocity": 124, "channel": 0}, {"type": "note_off", "time": 95, "note": 75, "velocity": 124, "channel": 0}, {"type": "note_on", "time": 0, "note": 74, "velocity": 118, "channel": 0}, {"type": "note_off", "time": 73, "note": 74, "velocity": 118, "channel": 0}, {"type": "note_on", "time": 2, "note": 75, "velocity": 121, "channel": 0}, {"type": "note_off", "time": 95, "note": 75, "velocity": 121, "channel": 0}, {"type": "note_on", "time": 0, "note": 76, "velocity": 120, "channel": 0}, {"type": "note_off", "time": 76, "note": 76, "velocity": 120, "channel": 0}, {"type": "note_on", "time": 14, "note": 77, "velocity": 120, "channel": 0}, {"type": "note_off", "time": 78, "note": 77, "velocity": 120, "channel": 0}, {"type": "note_on", "time": 9, "note": 78, "velocity": 120, "channel": 0}, {"type": "note_off", "time": 76, "note": 78, "velocity": 120, "channel": 0}, {"type": "note_on", "time": 0, "note": 77, "velocity": 122, "channel": 0}, {"type": "note_off", "time": 80, "note": 77, "velocity": 122, "channel": 0}, {"type": "note_on", "time": 15, "note": 76, "velocity": 120, "channel": 0}, {"type": "note_off", "time": 77, "note": 76, "velocity": 120, "channel": 0}, {"type": "note_on", "time": 3, "note": 75, "velocity": 121, "channel": 0}, {"type": "note_off", "time": 101, "note": 75, "velocity": 121, "channel": 0}, {"type": "note_on", "time": 2, "note": 68, "velocity": 107, "channel": 0}, {"type": "note_off", "time": 91, "note": 68, "velocity": 107, "channel": 0}, {"type": "note_on", "time": 10, "note": 71, "velocity": 112, "channel": 0}, {"type": "note_off", "time": 64, "note": 71, "velocity": 112, "channel": 0}, {"type": "note_on", "time": 2, "note": 69, "velocity": 98, "channel": 0}, {"type": "note_off", "time": 37, "note": 69, "velocity": 98, "channel": 0}, {"type": "note_on", "time": 0, "note": 70, "velocity": 108, "channel": 0}, {"type": "note_off", "time": 45, "note": 70, "velocity": 108, "channel": 0}, {"type": "note_on", "time": 1, "note": 68, "velocity": 111, "channel": 0}, {"type": "note_off", "time": 70, "note": 68, "velocity": 111, "channel": 0}, {"type": "note_on", "time": 6, "note": 67, "velocity": 109, "channel": 0}, {"type": "note_off", "time": 285, "note": 67, "velocity": 109, "channel": 0}, {"type": "note_on", "time": 1, "note": 68, "velocity": 109, "channel": 0}, {"type": "note_off", "time": 675, "note": 68, "velocity": 109, "channel": 0}, {"type": "note_on", "time": 3, "note": 67, "velocity": 116, "channel": 0}, {"type": "note_off", "time": 202, "note": 67, "velocity": 116, "channel": 0}, {"type": "note_on", "time": 1569, "note": 72, "velocity": 115, "channel": 0}, {"type": "note_off", "time": 111, "note": 72, "velocity": 115, "channel": 0}, {"type": "note_on", "time": 7, "note": 72, "velocity": 118, "channel": 0}, {"type": "note_off", "time": 64, "note": 72, "velocity": 118, "channel": 0}, {"type": "note_on", "time": 197, "note": 72, "velocity": 115, "channel": 0}, {"type": "note_off", "time": 114, "note": 72, "velocity": 115, "channel": 0}, {"type": "note_on", "time": 11, "note": 72, "velocity": 103, "channel": 0}, {"type": "note_off", "time": 66, "note": 72, "velocity": 103, "channel": 0}, {"type": "note_on", "time": 147, "note": 74, "velocity": 113, "channel": 0}, {"type": "note_off", "time": 91, "note": 74, "velocity": 113, "channel": 0}, {"type": "note_on", "time": 3, "note": 72, "velocity": 116, "channel": 0}, {"type": "note_off", "time": 80, "note": 72, "velocity": 116, "channel": 0}, {"type": "note_on", "time": 2368, "note": 76, "velocity": 115, "channel": 0}, {"type": "note_off", "time": 78, "note": 76, "velocity": 115, "channel": 0}, {"type": "note_on", "time": 235, "note": 81, "velocity": 116, "channel": 0}, {"type": "note_off", "time": 220, "note": 81, "velocity": 116, "channel": 0}, {"type": "note_on", "time": 5, "note": 80, "velocity": 120, "channel": 0}, {"type": "note_off", "time": 101, "note": 80, "velocity": 120, "channel": 0}, {"type": "note_on", "time": 764, "note": 80, "velocity": 118, "channel": 0}, {"type": "note_off", "time": 351, "note": 80, "velocity": 118, "channel": 0}, {"type": "note_on", "time": 0, "note": 79, "velocity": 113, "channel": 0}, {"type": "note_off", "time": 199, "note": 79, "velocity": 113, "channel": 0}, {"type": "note_on", "time": 7, "note": 78, "velocity": 119, "channel": 0}, {"type": "note_off", "time": 90, "note": 78, "velocity": 119, "channel": 0}, {"type": "note_on", "time": 1142, "note": 75, "velocity": 110, "channel": 0}, {"type": "note_off", "time": 57, "note": 75, "velocity": 110, "channel": 0}, {"type": "note_on", "time": 121, "note": 82, "velocity": 108, "channel": 0}, {"type": "note_off", "time": 40, "note": 82, "velocity": 108, "channel": 0}, {"type": "note_on", "time": 0, "note": 81, "velocity": 123, "channel": 0}, {"type": "note_off", "time": 149, "note": 81, "velocity": 123, "channel": 0}, {"type": "note_on", "time": 4, "note": 80, "velocity": 116, "channel": 0}, {"type": "note_off", "time": 161, "note": 80, "velocity": 116, "channel": 0}, {"type": "note_on", "time": 567, "note": 78, "velocity": 118, "channel": 0}, {"type": "note_off", "time": 168, "note": 78, "velocity": 118, "channel": 0}, {"type": "note_on", "time": 4, "note": 77, "velocity": 117, "channel": 0}, {"type": "note_off", "time": 159, "note": 77, "velocity": 117, "channel": 0}, {"type": "note_on", "time": 19, "note": 71, "velocity": 118, "channel": 0}, {"type": "note_off", "time": 185, "note": 71, "velocity": 118, "channel": 0}, {"type": "note_on", "time": 9, "note": 68, "velocity": 113, "channel": 0}, {"type": "note_off", "time": 244, "note": 68, "velocity": 113, "channel": 0}, {"type": "note_on", "time": 865, "note": 67, "velocity": 88, "channel": 0}, {"type": "note_off", "time": 59, "note": 67, "velocity": 88, "channel": 0}, {"type": "note_on", "time": 27, "note": 68, "velocity": 114, "channel": 0}, {"type": "note_off", "time": 65, "note": 68, "velocity": 114, "channel": 0}, {"type": "note_on", "time": 10, "note": 69, "velocity": 118, "channel": 0}, {"type": "note_off", "time": 79, "note": 69, "velocity": 118, "channel": 0}, {"type": "note_on", "time": 1, "note": 70, "velocity": 116, "channel": 0}, {"type": "note_off", "time": 69, "note": 70, "velocity": 116, "channel": 0}, {"type": "note_on", "time": 5, "note": 71, "velocity": 117, "channel": 0}, {"type": "note_off", "time": 89, "note": 71, "velocity": 117, "channel": 0}, {"type": "note_on", "time": 8, "note": 72, "velocity": 115, "channel": 0}, {"type": "note_off", "time": 79, "note": 72, "velocity": 115, "channel": 0}, {"type": "note_on", "time": 8, "note": 73, "velocity": 114, "channel": 0}, {"type": "note_off", "time": 81, "note": 73, "velocity": 114, "channel": 0}, {"type": "note_on", "time": 10, "note": 74, "velocity": 114, "channel": 0}, {"type": "note_off", "time": 65, "note": 74, "velocity": 114, "channel": 0}, {"type": "note_on", "time": 6, "note": 75, "velocity": 118, "channel": 0}, {"type": "note_off", "time": 91, "note": 75, "velocity": 118, "channel": 0}, {"type": "note_on", "time": 18, "note": 76, "velocity": 115, "channel": 0}, {"type": "note_off", "time": 65, "note": 76, "velocity": 115, "channel": 0}, {"type": "note_on", "time": 59, "note": 83, "velocity": 114, "channel": 0}, {"type": "note_off", "time": 148, "note": 83, "velocity": 114, "channel": 0}, {"type": "note_on", "time": 8, "note": 80, "velocity": 118, "channel": 0}, {"type": "note_off", "time": 185, "note": 80, "velocity": 118, "channel": 0}, {"type": "note_on", "time": 5, "note": 79, "velocity": 114, "channel": 0}, {"type": "note_off", "time": 320, "note": 79, "velocity": 114, "channel": 0}, {"type": "note_on", "time": 0, "note": 78, "velocity": 119, "channel": 0}, {"type": "note_off", "time": 177, "note": 78, "velocity": 119, "channel": 0}, {"type": "note_on", "time": 18, "note": 71, "velocity": 114, "channel": 0}, {"type": "note_off", "time": 138, "note": 71, "velocity": 114, "channel": 0}, {"type": "note_on", "time": 748, "note": 77, "velocity": 120, "channel": 0}, {"type": "note_off", "time": 550, "note": 77, "velocity": 120, "channel": 0}, {"type": "note_on", "time": 18, "note": 75, "velocity": 117, "channel": 0}, {"type": "note_off", "time": 165, "note": 75, "velocity": 117, "channel": 0}, {"type": "note_on", "time": 359, "note": 72, "velocity": 117, "channel": 0}, {"type": "note_off", "time": 145, "note": 72, "velocity": 117, "channel": 0}, {"type": "note_on", "time": 1502, "note": 67, "velocity": 108, "channel": 0}, {"type": "note_off", "time": 87, "note": 67, "velocity": 108, "channel": 0}, {"type": "note_on", "time": 83, "note": 72, "velocity": 118, "channel": 0}, {"type": "note_off", "time": 152, "note": 72, "velocity": 118, "channel": 0}, {"type": "note_on", "time": 9, "note": 71, "velocity": 118, "channel": 0}, {"type": "note_off", "time": 116, "note": 71, "velocity": 118, "channel": 0}, {"type": "note_on", "time": 463, "note": 70, "velocity": 116, "channel": 0}, {"type": "note_off", "time": 308, "note": 70, "velocity": 116, "channel": 0}, {"type": "note_on", "time": 437, "note": 67, "velocity": 108, "channel": 0}, {"type": "note_off", "time": 68, "note": 67, "velocity": 108, "channel": 0}, {"type": "note_on", "time": 2, "note": 70, "velocity": 118, "channel": 0}, {"type": "note_off", "time": 80, "note": 70, "velocity": 118, "channel": 0}, {"type": "note_on", "time": 4, "note": 68, "velocity": 116, "channel": 0}, {"type": "note_off", "time": 87, "note": 68, "velocity": 116, "channel": 0}, {"type": "note_on", "time": 9, "note": 70, "velocity": 119, "channel": 0}, {"type": "note_off", "time": 66, "note": 70, "velocity": 119, "channel": 0}, {"type": "note_on", "time": 9, "note": 71, "velocity": 122, "channel": 0}, {"type": "note_off", "time": 78, "note": 71, "velocity": 122, "channel": 0}, {"type": "note_on", "time": 2, "note": 73, "velocity": 121, "channel": 0}, {"type": "note_off", "time": 64, "note": 73, "velocity": 121, "channel": 0}, {"type": "note_on", "time": 0, "note": 75, "velocity": 121, "channel": 0}, {"type": "note_off", "time": 102, "note": 75, "velocity": 121, "channel": 0}, {"type": "note_on", "time": 2, "note": 76, "velocity": 118, "channel": 0}, {"type": "note_off", "time": 204, "note": 76, "velocity": 118, "channel": 0}, {"type": "note_on", "time": 641, "note": 75, "velocity": 116, "channel": 0}, {"type": "note_off", "time": 268, "note": 75, "velocity": 116, "channel": 0}, {"type": "note_on", "time": 261, "note": 80, "velocity": 116, "channel": 0}, {"type": "note_off", "time": 365, "note": 80, "velocity": 116, "channel": 0}, {"type": "note_on", "time": 513, "note": 79, "velocity": 117, "channel": 0}, {"type": "note_off", "time": 437, "note": 79, "velocity": 117, "channel": 0}, {"type": "note_on", "time": 957, "note": 67, "velocity": 113, "channel": 0}, {"type": "note_off", "time": 61, "note": 67, "velocity": 113, "channel": 0}, {"type": "note_on", "time": 7, "note": 72, "velocity": 121, "channel": 0}, {"type": "note_off", "time": 59, "note": 72, "velocity": 121, "channel": 0}, {"type": "note_on", "time": 7, "note": 74, "velocity": 117, "channel": 0}, {"type": "note_off", "time": 80, "note": 74, "velocity": 117, "channel": 0}, {"type": "note_on", "time": 2, "note": 75, "velocity": 118, "channel": 0}, {"type": "note_off", "time": 90, "note": 75, "velocity": 118, "channel": 0}, {"type": "note_on", "time": 4, "note": 76, "velocity": 118, "channel": 0}, {"type": "note_off", "time": 95, "note": 76, "velocity": 118, "channel": 0}, {"type": "note_on", "time": 4, "note": 77, "velocity": 117, "channel": 0}, {"type": "note_off", "time": 76, "note": 77, "velocity": 117, "channel": 0}, {"type": "note_on", "time": 2, "note": 78, "velocity": 121, "channel": 0}, {"type": "note_off", "time": 102, "note": 78, "velocity": 121, "channel": 0}, {"type": "note_on", "time": 92, "note": 78, "velocity": 120, "channel": 0}, {"type": "note_off", "time": 266, "note": 78, "velocity": 120, "channel": 0}, {"type": "note_on", "time": 11, "note": 77, "velocity": 117, "channel": 0}, {"type": "note_off", "time": 33, "note": 77, "velocity": 117, "channel": 0}, {"type": "note_on", "time": 9, "note": 76, "velocity": 118, "channel": 0}, {"type": "note_off", "time": 42, "note": 76, "velocity": 118, "channel": 0}, {"type": "note_on", "time": 2, "note": 75, "velocity": 118, "channel": 0}, {"type": "note_off", "time": 273, "note": 75, "velocity": 118, "channel": 0}, {"type": "note_on", "time": 2, "note": 72, "velocity": 105, "channel": 0}, {"type": "note_off", "time": 403, "note": 72, "velocity": 105, "channel": 0}, {"type": "note_on", "time": 47, "note": 68, "velocity": 116, "channel": 0}, {"type": "note_off", "time": 353, "note": 68, "velocity": 116, "channel": 0}, {"type": "note_on", "time": 49, "note": 64, "velocity": 112, "channel": 0}, {"type": "note_off", "time": 489, "note": 64, "velocity": 112, "channel": 0}, {"type": "note_on", "time": 26, "note": 63, "velocity": 102, "channel": 0}, {"type": "note_off", "time": 845, "note": 63, "velocity": 102, "channel": 0}, {"type": "note_on", "time": 2232, "note": 72, "velocity": 118, "channel": 0}, {"type": "note_off", "time": 119, "note": 72, "velocity": 118, "channel": 0}, {"type": "note_on", "time": 10, "note": 71, "velocity": 118, "channel": 0}, {"type": "note_off", "time": 84, "note": 71, "velocity": 118, "channel": 0}, {"type": "note_on", "time": 11, "note": 72, "velocity": 120, "channel": 0}, {"type": "note_off", "time": 273, "note": 72, "velocity": 120, "channel": 0}, {"type": "note_on", "time": 15, "note": 71, "velocity": 120, "channel": 0}, {"type": "note_off", "time": 241, "note": 71, "velocity": 120, "channel": 0}, {"type": "note_on", "time": 13, "note": 70, "velocity": 120, "channel": 0}, {"type": "note_off", "time": 672, "note": 70, "velocity": 120, "channel": 0}, {"type": "note_on", "time": 59, "note": 69, "velocity": 119, "channel": 0}, {"type": "note_off", "time": 166, "note": 69, "velocity": 119, "channel": 0}, {"type": "note_on", "time": 0, "note": 68, "velocity": 116, "channel": 0}, {"type": "note_off", "time": 327, "note": 68, "velocity": 116, "channel": 0}, {"type": "note_on", "time": 19, "note": 67, "velocity": 114, "channel": 0}, {"type": "note_off", "time": 410, "note": 67, "velocity": 114, "channel": 0}, {"type": "note_on", "time": 824, "note": 72, "velocity": 125, "channel": 0}, {"type": "note_off", "time": 178, "note": 72, "velocity": 125, "channel": 0}, {"type": "note_on", "time": 7, "note": 75, "velocity": 119, "channel": 0}, {"type": "note_off", "time": 180, "note": 75, "velocity": 119, "channel": 0}, {"type": "note_on", "time": 194, "note": 78, "velocity": 122, "channel": 0}, {"type": "note_off", "time": 470, "note": 78, "velocity": 122, "channel": 0}, {"type": "note_on", "time": 102, "note": 77, "velocity": 118, "channel": 0}, {"type": "note_off", "time": 344, "note": 77, "velocity": 118, "channel": 0}, {"type": "note_on", "time": 14, "note": 76, "velocity": 119, "channel": 0}, {"type": "note_off", "time": 166, "note": 76, "velocity": 119, "channel": 0}, {"type": "note_on", "time": 0, "note": 75, "velocity": 114, "channel": 0}, {"type": "note_off", "time": 372, "note": 75, "velocity": 114, "channel": 0}, {"type": "note_on", "time": 1299, "note": 87, "velocity": 114, "channel": 0}, {"type": "note_off", "time": 173, "note": 87, "velocity": 114, "channel": 0}, {"type": "note_on", "time": 19, "note": 90, "velocity": 108, "channel": 0}, {"type": "note_off", "time": 21, "note": 90, "velocity": 108, "channel": 0}, {"type": "note_on", "time": 9, "note": 88, "velocity": 114, "channel": 0}, {"type": "note_off", "time": 47, "note": 88, "velocity": 114, "channel": 0}, {"type": "note_on", "time": 0, "note": 86, "velocity": 122, "channel": 0}, {"type": "note_off", "time": 154, "note": 86, "velocity": 122, "channel": 0}, {"type": "note_on", "time": 11, "note": 87, "velocity": 119, "channel": 0}, {"type": "note_off", "time": 106, "note": 87, "velocity": 119, "channel": 0}, {"type": "note_on", "time": 14, "note": 86, "velocity": 124, "channel": 0}, {"type": "note_off", "time": 95, "note": 86, "velocity": 124, "channel": 0}, {"type": "note_on", "time": 4, "note": 84, "velocity": 118, "channel": 0}, {"type": "note_off", "time": 97, "note": 84, "velocity": 118, "channel": 0}, {"type": "note_on", "time": 2, "note": 82, "velocity": 115, "channel": 0}, {"type": "note_off", "time": 73, "note": 82, "velocity": 115, "channel": 0}, {"type": "note_on", "time": 7, "note": 80, "velocity": 124, "channel": 0}, {"type": "note_off", "time": 78, "note": 80, "velocity": 124, "channel": 0}, {"type": "note_on", "time": 0, "note": 79, "velocity": 123, "channel": 0}, {"type": "note_off", "time": 95, "note": 79, "velocity": 123, "channel": 0}, {"type": "note_on", "time": 4, "note": 80, "velocity": 123, "channel": 0}, {"type": "note_off", "time": 66, "note": 80, "velocity": 123, "channel": 0}, {"type": "note_on", "time": 4, "note": 79, "velocity": 118, "channel": 0}, {"type": "note_off", "time": 97, "note": 79, "velocity": 118, "channel": 0}, {"type": "note_on", "time": 4, "note": 78, "velocity": 123, "channel": 0}, {"type": "note_off", "time": 106, "note": 78, "velocity": 123, "channel": 0}, {"type": "note_on", "time": 256, "note": 76, "velocity": 9, "channel": 0}, {"type": "note_off", "time": 116, "note": 76, "velocity": 9, "channel": 0}, {"type": "note_on", "time": 7, "note": 75, "velocity": 116, "channel": 0}, {"type": "note_off", "time": 185, "note": 75, "velocity": 116, "channel": 0}, {"type": "note_on", "time": 11, "note": 72, "velocity": 115, "channel": 0}, {"type": "note_off", "time": 111, "note": 72, "velocity": 115, "channel": 0}, {"type": "note_on", "time": 7, "note": 71, "velocity": 117, "channel": 0}, {"type": "note_off", "time": 125, "note": 71, "velocity": 117, "channel": 0}, {"type": "note_on", "time": 2, "note": 70, "velocity": 117, "channel": 0}, {"type": "note_off", "time": 123, "note": 70, "velocity": 117, "channel": 0}, {"type": "note_on", "time": 0, "note": 69, "velocity": 114, "channel": 0}, {"type": "note_off", "time": 116, "note": 69, "velocity": 114, "channel": 0}, {"type": "note_on", "time": 9, "note": 68, "velocity": 112, "channel": 0}, {"type": "note_off", "time": 104, "note": 68, "velocity": 112, "channel": 0}, {"type": "note_on", "time": 7, "note": 67, "velocity": 113, "channel": 0}, {"type": "note_off", "time": 118, "note": 67, "velocity": 113, "channel": 0}, {"type": "note_on", "time": 9, "note": 66, "velocity": 111, "channel": 0}, {"type": "note_off", "time": 1014, "note": 66, "velocity": 111, "channel": 0}, {"type": "note_on", "time": 1285, "note": 76, "velocity": 123, "channel": 0}, {"type": "note_off", "time": 318, "note": 76, "velocity": 123, "channel": 0}, {"type": "note_on", "time": 7, "note": 78, "velocity": 124, "channel": 0}, {"type": "note_off", "time": 206, "note": 78, "velocity": 124, "channel": 0}, {"type": "note_on", "time": 2, "note": 75, "velocity": 120, "channel": 0}, {"type": "note_off", "time": 429, "note": 75, "velocity": 120, "channel": 0}, {"type": "note_on", "time": 0, "note": 74, "velocity": 116, "channel": 0}, {"type": "note_off", "time": 408, "note": 74, "velocity": 116, "channel": 0}, {"type": "note_on", "time": 7, "note": 75, "velocity": 122, "channel": 0}, {"type": "note_off", "time": 401, "note": 75, "velocity": 122, "channel": 0}, {"type": "note_on", "time": 7, "note": 76, "velocity": 122, "channel": 0}, {"type": "note_off", "time": 206, "note": 76, "velocity": 122, "channel": 0}, {"type": "note_on", "time": 0, "note": 73, "velocity": 117, "channel": 0}, {"type": "note_off", "time": 472, "note": 73, "velocity": 117, "channel": 0}, {"type": "note_on", "time": 736, "note": 76, "velocity": 119, "channel": 0}, {"type": "note_off", "time": 166, "note": 76, "velocity": 119, "channel": 0}, {"type": "note_on", "time": 11, "note": 78, "velocity": 120, "channel": 0}, {"type": "note_off", "time": 161, "note": 78, "velocity": 120, "channel": 0}, {"type": "note_on", "time": 11, "note": 75, "velocity": 122, "channel": 0}, {"type": "note_off", "time": 470, "note": 75, "velocity": 122, "channel": 0}, {"type": "note_on", "time": 270, "note": 75, "velocity": 120, "channel": 0}, {"type": "note_off", "time": 71, "note": 75, "velocity": 120, "channel": 0}, {"type": "note_on", "time": 277, "note": 76, "velocity": 120, "channel": 0}, {"type": "note_on", "time": 218, "note": 73, "velocity": 114, "channel": 0}, {"type": "note_off", "time": 0, "note": 76, "velocity": 120, "channel": 0}, {"type": "note_off", "time": 232, "note": 73, "velocity": 114, "channel": 0}, {"type": "note_on", "time": 774, "note": 76, "velocity": 103, "channel": 0}, {"type": "note_off", "time": 64, "note": 76, "velocity": 103, "channel": 0}, {"type": "note_on", "time": 116, "note": 78, "velocity": 122, "channel": 0}, {"type": "note_off", "time": 173, "note": 78, "velocity": 122, "channel": 0}, {"type": "note_on", "time": 4, "note": 76, "velocity": 118, "channel": 0}, {"type": "note_off", "time": 175, "note": 76, "velocity": 118, "channel": 0}, {"type": "note_on", "time": 9, "note": 75, "velocity": 119, "channel": 0}, {"type": "note_off", "time": 380, "note": 75, "velocity": 119, "channel": 0}, {"type": "note_on", "time": 9, "note": 72, "velocity": 120, "channel": 0}, {"type": "note_off", "time": 180, "note": 72, "velocity": 120, "channel": 0}, {"type": "note_on", "time": 0, "note": 71, "velocity": 115, "channel": 0}, {"type": "note_off", "time": 344, "note": 71, "velocity": 115, "channel": 0}, {"type": "note_on", "time": 4, "note": 70, "velocity": 115, "channel": 0}, {"type": "note_off", "time": 64, "note": 70, "velocity": 115, "channel": 0}, {"type": "note_on", "time": 2, "note": 69, "velocity": 115, "channel": 0}, {"type": "note_off", "time": 66, "note": 69, "velocity": 115, "channel": 0}, {"type": "note_on", "time": 11, "note": 68, "velocity": 115, "channel": 0}, {"type": "note_off", "time": 218, "note": 68, "velocity": 115, "channel": 0}, {"type": "note_on", "time": 19, "note": 64, "velocity": 109, "channel": 0}, {"type": "note_off", "time": 517, "note": 64, "velocity": 109, "channel": 0}, {"type": "note_on", "time": 814, "note": 62, "velocity": 108, "channel": 0}, {"type": "note_off", "time": 54, "note": 62, "velocity": 108, "channel": 0}, {"type": "note_on", "time": 3, "note": 64, "velocity": 117, "channel": 0}, {"type": "note_off", "time": 47, "note": 64, "velocity": 117, "channel": 0}, {"type": "note_on", "time": 1, "note": 65, "velocity": 115, "channel": 0}, {"type": "note_off", "time": 37, "note": 65, "velocity": 115, "channel": 0}, {"type": "note_on", "time": 10, "note": 66, "velocity": 120, "channel": 0}, {"type": "note_off", "time": 43, "note": 66, "velocity": 120, "channel": 0}, {"type": "note_on", "time": 1, "note": 67, "velocity": 122, "channel": 0}, {"type": "note_off", "time": 55, "note": 67, "velocity": 122, "channel": 0}, {"type": "note_on", "time": 10, "note": 68, "velocity": 120, "channel": 0}, {"type": "note_off", "time": 123, "note": 68, "velocity": 120, "channel": 0}, {"type": "note_on", "time": 6, "note": 70, "velocity": 120, "channel": 0}, {"type": "note_off", "time": 52, "note": 70, "velocity": 120, "channel": 0}, {"type": "note_on", "time": 3, "note": 71, "velocity": 121, "channel": 0}, {"type": "note_off", "time": 35, "note": 71, "velocity": 121, "channel": 0}, {"type": "note_on", "time": 10, "note": 73, "velocity": 121, "channel": 0}, {"type": "note_off", "time": 32, "note": 73, "velocity": 121, "channel": 0}, {"type": "note_on", "time": 8, "note": 75, "velocity": 123, "channel": 0}, {"type": "note_off", "time": 195, "note": 75, "velocity": 123, "channel": 0}, {"type": "note_on", "time": 1, "note": 77, "velocity": 119, "channel": 0}, {"type": "note_off", "time": 40, "note": 77, "velocity": 119, "channel": 0}, {"type": "note_on", "time": 5, "note": 79, "velocity": 105, "channel": 0}, {"type": "note_off", "time": 42, "note": 79, "velocity": 105, "channel": 0}, {"type": "note_on", "time": 11, "note": 80, "velocity": 123, "channel": 0}, {"type": "note_off", "time": 64, "note": 80, "velocity": 123, "channel": 0}, {"type": "note_on", "time": 0, "note": 79, "velocity": 117, "channel": 0}, {"type": "note_off", "time": 185, "note": 79, "velocity": 117, "channel": 0}, {"type": "note_on", "time": 13, "note": 78, "velocity": 123, "channel": 0}, {"type": "note_off", "time": 35, "note": 78, "velocity": 123, "channel": 0}, {"type": "note_on", "time": 3, "note": 77, "velocity": 114, "channel": 0}, {"type": "note_off", "time": 37, "note": 77, "velocity": 114, "channel": 0}, {"type": "note_on", "time": 1, "note": 76, "velocity": 122, "channel": 0}, {"type": "note_off", "time": 40, "note": 76, "velocity": 122, "channel": 0}, {"type": "note_on", "time": 10, "note": 75, "velocity": 114, "channel": 0}, {"type": "note_off", "time": 54, "note": 75, "velocity": 114, "channel": 0}, {"type": "note_on", "time": 6, "note": 74, "velocity": 108, "channel": 0}, {"type": "note_off", "time": 33, "note": 74, "velocity": 108, "channel": 0}, {"type": "note_on", "time": 8, "note": 72, "velocity": 122, "channel": 0}, {"type": "note_off", "time": 32, "note": 72, "velocity": 122, "channel": 0}, {"type": "note_on", "time": 0, "note": 71, "velocity": 117, "channel": 0}, {"type": "note_off", "time": 43, "note": 71, "velocity": 117, "channel": 0}, {"type": "note_on", "time": 13, "note": 68, "velocity": 111, "channel": 0}, {"type": "note_off", "time": 47, "note": 68, "velocity": 111, "channel": 0}, {"type": "note_on", "time": 3, "note": 69, "velocity": 117, "channel": 0}, {"type": "note_off", "time": 38, "note": 69, "velocity": 117, "channel": 0}, {"type": "note_on", "time": 6, "note": 68, "velocity": 114, "channel": 0}, {"type": "note_off", "time": 96, "note": 68, "velocity": 114, "channel": 0}, {"type": "note_on", "time": 989, "note": 67, "velocity": 109, "channel": 0}, {"type": "note_off", "time": 43, "note": 67, "velocity": 109, "channel": 0}, {"type": "note_on", "time": 131, "note": 72, "velocity": 120, "channel": 0}, {"type": "note_off", "time": 180, "note": 72, "velocity": 120, "channel": 0}, {"type": "note_on", "time": 10, "note": 73, "velocity": 123, "channel": 0}, {"type": "note_off", "time": 160, "note": 73, "velocity": 123, "channel": 0}, {"type": "note_on", "time": 18, "note": 76, "velocity": 123, "channel": 0}, {"type": "note_off", "time": 163, "note": 76, "velocity": 123, "channel": 0}, {"type": "note_on", "time": 601, "note": 75, "velocity": 122, "channel": 0}, {"type": "note_off", "time": 87, "note": 75, "velocity": 122, "channel": 0}, {"type": "note_on", "time": 11, "note": 74, "velocity": 118, "channel": 0}, {"type": "note_off", "time": 64, "note": 74, "velocity": 118, "channel": 0}, {"type": "note_on", "time": 0, "note": 75, "velocity": 117, "channel": 0}, {"type": "note_off", "time": 170, "note": 75, "velocity": 117, "channel": 0}, {"type": "note_on", "time": 0, "note": 72, "velocity": 120, "channel": 0}, {"type": "note_off", "time": 185, "note": 72, "velocity": 120, "channel": 0}, {"type": "note_on", "time": 21, "note": 66, "velocity": 111, "channel": 0}, {"type": "note_off", "time": 170, "note": 66, "velocity": 111, "channel": 0}, {"type": "note_on", "time": 1194, "note": 67, "velocity": 115, "channel": 0}, {"type": "note_off", "time": 55, "note": 67, "velocity": 115, "channel": 0}, {"type": "note_on", "time": 152, "note": 72, "velocity": 127, "channel": 0}, {"type": "note_off", "time": 152, "note": 72, "velocity": 127, "channel": 0}, {"type": "note_on", "time": 18, "note": 76, "velocity": 121, "channel": 0}, {"type": "note_off", "time": 152, "note": 76, "velocity": 121, "channel": 0}, {"type": "note_on", "time": 5, "note": 78, "velocity": 123, "channel": 0}, {"type": "note_off", "time": 209, "note": 78, "velocity": 123, "channel": 0}, {"type": "note_on", "time": 1, "note": 76, "velocity": 118, "channel": 0}, {"type": "note_off", "time": 153, "note": 76, "velocity": 118, "channel": 0}, {"type": "note_on", "time": 5, "note": 75, "velocity": 112, "channel": 0}, {"type": "note_off", "time": 359, "note": 75, "velocity": 112, "channel": 0}, {"type": "note_on", "time": 10, "note": 72, "velocity": 103, "channel": 0}, {"type": "note_off", "time": 177, "note": 72, "velocity": 103, "channel": 0}, {"type": "note_on", "time": 55, "note": 66, "velocity": 99, "channel": 0}, {"type": "note_off", "time": 766, "note": 66, "velocity": 99, "channel": 0}, {"type": "end_of_track", "time": 0}]]}