{"ticks_per_beat": 192, "tracks": [[{"type": "track_name", "name": "Melody", "time": 0}, {"type": "set_tempo", "tempo": 224719, "time": 0}, {"type": "key_signature", "key": "Bb", "time": 0}, {"type": "time_signature", "numerator": 4, "denominator": 4, "clocks_per_click": 24, "notated_32nd_notes_per_beat": 8, "time": 0}, {"type": "note_on", "time": 2078, "note": 74, "velocity": 102, "channel": 0}, {"type": "note_off", "time": 84, "note": 74, "velocity": 102, "channel": 0}, {"type": "note_on", "time": 17, "note": 72, "velocity": 102, "channel": 0}, {"type": "note_off", "time": 79, "note": 72, "velocity": 102, "channel": 0}, {"type": "note_on", "time": 101, "note": 74, "velocity": 112, "channel": 0}, {"type": "note_off", "time": 173, "note": 74, "velocity": 112, "channel": 0}, {"type": "note_on", "time": 39, "note": 72, "velocity": 107, "channel": 0}, {"type": "note_off", "time": 505, "note": 72, "velocity": 107, "channel": 0}, {"type": "note_on", "time": 719, "note": 65, "velocity": 113, "channel": 0}, {"type": "note_off", "time": 64, "note": 65, "velocity": 113, "channel": 0}, {"type": "note_on", "time": 115, "note": 67, "velocity": 106, "channel": 0}, {"type": "note_off", "time": 95, "note": 67, "velocity": 106, "channel": 0}, {"type": "note_on", "time": 27, "note": 70, "velocity": 114, "channel": 0}, {"type": "note_off", "time": 114, "note": 70, "velocity": 114, "channel": 0}, {"type": "note_on", "time": 59, "note": 72, "velocity": 105, "channel": 0}, {"type": "note_off", "time": 138, "note": 72, "velocity": 105, "channel": 0}, {"type": "note_on", "time": 94, "note": 70, "velocity": 109, "channel": 0}, {"type": "note_off", "time": 238, "note": 70, "velocity": 109, "channel": 0}, {"type": "note_on", "time": 138, "note": 70, "velocity": 107, "channel": 0}, {"type": "note_off", "time": 153, "note": 70, "velocity": 107, "channel": 0}, {"type": "note_on", "time": 57, "note": 72, "velocity": 97, "channel": 0}, {"type": "note_off", "time": 59, "note": 72, "velocity": 97, "channel": 0}, {"type": "note_on", "time": 12, "note": 70, "velocity": 101, "channel": 0}, {"type": "note_off", "time": 79, "note": 70, "velocity": 101, "channel": 0}, {"type": "note_on", "time": 109, "note": 70, "velocity": 95, "channel": 0}, {"type": "note_off", "time": 342, "note": 70, "velocity": 95, "channel": 0}, {"type": "note_on", "time": 1115, "note": 73, "velocity": 100, "channel": 0}, {"type": "note_off", "time": 69, "note": 73, "velocity": 100, "channel": 0}, {"type": "note_on", "time": 29, "note": 74, "velocity": 102, "channel": 0}, {"type": "note_off", "time": 99, "note": 74, "velocity": 102, "channel": 0}, {"type": "note_on", "time": 19, "note": 73, "velocity": 103, "channel": 0}, {"type": "note_off", "time": 44, "note": 73, "velocity": 103, "channel": 0}, {"type": "note_on", "time": 24, "note": 74, "velocity": 107, "channel": 0}, {"type": "note_off", "time": 302, "note": 74, "velocity": 107, "channel": 0}, {"type": "note_on", "time": 19, "note": 73, "velocity": 106, "channel": 0}, {"type": "note_off", "time": 69, "note": 73, "velocity": 106, "channel": 0}, {"type": "note_on", "time": 14, "note": 74, "velocity": 108, "channel": 0}, {"type": "note_off", "time": 228, "note": 74, "velocity": 108, "channel": 0}, {"type": "note_on", "time": 29, "note": 73, "velocity": 100, "channel": 0}, {"type": "note_off", "time": 94, "note": 73, "velocity": 100, "channel": 0}, {"type": "note_on", "time": 4, "note": 74, "velocity": 106, "channel": 0}, {"type": "note_off", "time": 178, "note": 74, "velocity": 106, "channel": 0}, {"type": "note_on", "time": 9, "note": 72, "velocity": 99, "channel": 0}, {"type": "note_off", "time": 109, "note": 72, "velocity": 99, "channel": 0}, {"type": "note_on", "time": 29, "note": 70, "velocity": 90, "channel": 0}, {"type": "note_off", "time": 114, "note": 70, "velocity": 90, "channel": 0}, {"type": "note_on", "time": 69, "note": 65, "velocity": 105, "channel": 0}, {"type": "note_off", "time": 89, "note": 65, "velocity": 105, "channel": 0}, {"type": "note_on", "time": 9, "note": 62, "velocity": 106, "channel": 0}, {"type": "note_off", "time": 99, "note": 62, "velocity": 106, "channel": 0}, {"type": "note_on", "time": 2, "note": 63, "velocity": 105, "channel": 0}, {"type": "note_off", "time": 59, "note": 63, "velocity": 105, "channel": 0}, {"type": "note_on", "time": 14, "note": 65, "velocity": 99, "channel": 0}, {"type": "note_off", "time": 424, "note": 65, "velocity": 99, "channel": 0}, {"type": "note_on", "time": 251, "note": 62, "velocity": 113, "channel": 0}, {"type": "note_off", "time": 64, "note": 62, "velocity": 113, "channel": 0}, {"type": "note_on", "time": 11, "note": 63, "velocity": 116, "channel": 0}, {"type": "note_off", "time": 123, "note": 63, "velocity": 116, "channel": 0}, {"type": "note_on", "time": 15, "note": 67, "velocity": 106, "channel": 0}, {"type": "note_off", "time": 45, "note": 67, "velocity": 106, "channel": 0}, {"type": "note_on", "time": 5, "note": 70, "velocity": 113, "channel": 0}, {"type": "note_off", "time": 88, "note": 70, "velocity": 113, "channel": 0}, {"type": "note_on", "time": 17, "note": 73, "velocity": 113, "channel": 0}, {"type": "note_off", "time": 71, "note": 73, "velocity": 113, "channel": 0}, {"type": "note_on", "time": 13, "note": 74, "velocity": 107, "channel": 0}, {"type": "note_off", "time": 89, "note": 74, "velocity": 107, "channel": 0}, {"type": "note_on", "time": 19, "note": 73, "velocity": 100, "channel": 0}, {"type": "note_off", "time": 89, "note": 73, "velocity": 100, "channel": 0}, {"type": "note_on", "time": 0, "note": 74, "velocity": 96, "channel": 0}, {"type": "note_off", "time": 133, "note": 74, "velocity": 96, "channel": 0}, {"type": "note_on", "time": 64, "note": 70, "velocity": 103, "channel": 0}, {"type": "note_off", "time": 148, "note": 70, "velocity": 103, "channel": 0}, {"type": "note_on", "time": 48, "note": 70, "velocity": 107, "channel": 0}, {"type": "note_off", "time": 267, "note": 70, "velocity": 107, "channel": 0}, {"type": "note_on", "time": 293, "note": 68, "velocity": 119, "channel": 0}, {"type": "note_off", "time": 89, "note": 68, "velocity": 119, "channel": 0}, {"type": "note_on", "time": 44, "note": 66, "velocity": 120, "channel": 0}, {"type": "note_off", "time": 59, "note": 66, "velocity": 120, "channel": 0}, {"type": "note_on", "time": 4, "note": 68, "velocity": 118, "channel": 0}, {"type": "note_off", "time": 69, "note": 68, "velocity": 118, "channel": 0}, {"type": "note_on", "time": 11, "note": 65, "velocity": 114, "channel": 0}, {"type": "note_off", "time": 128, "note": 65, "velocity": 114, "channel": 0}, {"type": "note_on", "time": 84, "note": 63, "velocity": 115, "channel": 0}, {"type": "note_off", "time": 114, "note": 63, "velocity": 115, "channel": 0}, {"type": "note_on", "time": 89, "note": 52, "velocity": 106, "channel": 0}, {"type": "note_off", "time": 69, "note": 52, "velocity": 106, "channel": 0}, {"type": "note_on", "time": 16, "note": 62, "velocity": 122, "channel": 0}, {"type": "note_off", "time": 115, "note": 62, "velocity": 122, "channel": 0}, {"type": "note_on", "time": 620, "note": 61, "velocity": 116, "channel": 0}, {"type": "note_off", "time": 49, "note": 61, "velocity": 116, "channel": 0}, {"type": "note_on", "time": 7, "note": 63, "velocity": 122, "channel": 0}, {"type": "note_off", "time": 42, "note": 63, "velocity": 122, "channel": 0}, {"type": "note_on", "time": 23, "note": 64, "velocity": 127, "channel": 0}, {"type": "note_off", "time": 37, "note": 64, "velocity": 127, "channel": 0}, {"type": "note_on", "time": 13, "note": 65, "velocity": 125, "channel": 0}, {"type": "note_off", "time": 71, "note": 65, "velocity": 125, "channel": 0}, {"type": "note_on", "time": 7, "note": 67, "velocity": 120, "channel": 0}, {"type": "note_off", "time": 54, "note": 67, "velocity": 120, "channel": 0}, {"type": "note_on", "time": 12, "note": 68, "velocity": 108, "channel": 0}, {"type": "note_off", "time": 49, "note": 68, "velocity": 108, "channel": 0}, {"type": "note_on", "time": 32, "note": 69, "velocity": 107, "channel": 0}, {"type": "note_off", "time": 49, "note": 69, "velocity": 107, "channel": 0}, {"type": "note_on", "time": 14, "note": 70, "velocity": 113, "channel": 0}, {"type": "note_off", "time": 66, "note": 70, "velocity": 113, "channel": 0}, {"type": "note_on", "time": 19, "note": 71, "velocity": 112, "channel": 0}, {"type": "note_off", "time": 54, "note": 71, "velocity": 112, "channel": 0}, {"type": "note_on", "time": 22, "note": 72, "velocity": 111, "channel": 0}, {"type": "note_off", "time": 49, "note": 72, "velocity": 111, "channel": 0}, {"type": "note_on", "time": 21, "note": 73, "velocity": 116, "channel": 0}, {"type": "note_off", "time": 52, "note": 73, "velocity": 116, "channel": 0}, {"type": "note_on", "time": 17, "note": 74, "velocity": 115, "channel": 0}, {"type": "note_off", "time": 69, "note": 74, "velocity": 115, "channel": 0}, {"type": "note_on", "time": 128, "note": 76, "velocity": 113, "channel": 0}, {"type": "note_off", "time": 188, "note": 76, "velocity": 113, "channel": 0}, {"type": "note_on", "time": 17, "note": 74, "velocity": 113, "channel": 0}, {"type": "note_off", "time": 173, "note": 74, "velocity": 113, "channel": 0}, {"type": "note_on", "time": 96, "note": 76, "velocity": 112, "channel": 0}, {"type": "note_off", "time": 76, "note": 76, "velocity": 112, "channel": 0}, {"type": "note_on", "time": 14, "note": 74, "velocity": 99, "channel": 0}, {"type": "note_off", "time": 59, "note": 74, "velocity": 99, "channel": 0}, {"type": "note_on", "time": 61, "note": 72, "velocity": 112, "channel": 0}, {"type": "note_off", "time": 54, "note": 72, "velocity": 112, "channel": 0}, {"type": "note_on", "time": 12, "note": 71, "velocity": 110, "channel": 0}, {"type": "note_off", "time": 81, "note": 71, "velocity": 110, "channel": 0}, {"type": "note_on", "time": 34, "note": 69, "velocity": 109, "channel": 0}, {"type": "note_off", "time": 74, "note": 69, "velocity": 109, "channel": 0}, {"type": "note_on", "time": 42, "note": 67, "velocity": 104, "channel": 0}, {"type": "note_off", "time": 101, "note": 67, "velocity": 104, "channel": 0}, {"type": "note_on", "time": 59, "note": 67, "velocity": 108, "channel": 0}, {"type": "note_off", "time": 81, "note": 67, "velocity": 108, "channel": 0}, {"type": "note_on", "time": 119, "note": 67, "velocity": 100, "channel": 0}, {"type": "note_off", "time": 171, "note": 67, "velocity": 100, "channel": 0}, {"type": "note_on", "time": 1079, "note": 64, "velocity": 95, "channel": 0}, {"type": "note_off", "time": 84, "note": 64, "velocity": 95, "channel": 0}, {"type": "note_on", "time": 26, "note": 70, "velocity": 102, "channel": 0}, {"type": "note_off", "time": 71, "note": 70, "velocity": 102, "channel": 0}, {"type": "note_on", "time": 34, "note": 72, "velocity": 104, "channel": 0}, {"type": "note_off", "time": 81, "note": 72, "velocity": 104, "channel": 0}, {"type": "note_on", "time": 22, "note": 74, "velocity": 111, "channel": 0}, {"type": "note_off", "time": 59, "note": 74, "velocity": 111, "channel": 0}, {"type": "note_on", "time": 24, "note": 74, "velocity": 116, "channel": 0}, {"type": "note_off", "time": 81, "note": 74, "velocity": 116, "channel": 0}, {"type": "note_on", "time": 7, "note": 72, "velocity": 104, "channel": 0}, {"type": "note_off", "time": 76, "note": 72, "velocity": 104, "channel": 0}, {"type": "note_on", "time": 131, "note": 74, "velocity": 103, "channel": 0}, {"type": "note_off", "time": 39, "note": 74, "velocity": 103, "channel": 0}, {"type": "note_on", "time": 39, "note": 74, "velocity": 109, "channel": 0}, {"type": "note_off", "time": 76, "note": 74, "velocity": 109, "channel": 0}, {"type": "note_on", "time": 24, "note": 72, "velocity": 90, "channel": 0}, {"type": "note_off", "time": 59, "note": 72, "velocity": 90, "channel": 0}, {"type": "note_on", "time": 121, "note": 74, "velocity": 92, "channel": 0}, {"type": "note_off", "time": 89, "note": 74, "velocity": 92, "channel": 0}, {"type": "note_on", "time": 29, "note": 74, "velocity": 103, "channel": 0}, {"type": "note_off", "time": 71, "note": 74, "velocity": 103, "channel": 0}, {"type": "note_on", "time": 9, "note": 72, "velocity": 95, "channel": 0}, {"type": "note_off", "time": 74, "note": 72, "velocity": 95, "channel": 0}, {"type": "note_on", "time": 156, "note": 74, "velocity": 99, "channel": 0}, {"type": "note_off", "time": 143, "note": 74, "velocity": 99, "channel": 0}, {"type": "note_on", "time": 37, "note": 72, "velocity": 91, "channel": 0}, {"type": "note_off", "time": 74, "note": 72, "velocity": 91, "channel": 0}, {"type": "note_on", "time": 114, "note": 74, "velocity": 100, "channel": 0}, {"type": "note_off", "time": 57, "note": 74, "velocity": 100, "channel": 0}, {"type": "note_on", "time": 47, "note": 74, "velocity": 101, "channel": 0}, {"type": "note_off", "time": 66, "note": 74, "velocity": 101, "channel": 0}, {"type": "note_on", "time": 27, "note": 72, "velocity": 98, "channel": 0}, {"type": "note_off", "time": 54, "note": 72, "velocity": 98, "channel": 0}, {"type": "note_on", "time": 164, "note": 74, "velocity": 103, "channel": 0}, {"type": "note_off", "time": 57, "note": 74, "velocity": 103, "channel": 0}, {"type": "note_on", "time": 53, "note": 74, "velocity": 102, "channel": 0}, {"type": "note_off", "time": 42, "note": 74, "velocity": 102, "channel": 0}, {"type": "note_on", "time": 27, "note": 72, "velocity": 100, "channel": 0}, {"type": "note_off", "time": 54, "note": 72, "velocity": 100, "channel": 0}, {"type": "note_on", "time": 128, "note": 74, "velocity": 99, "channel": 0}, {"type": "note_off", "time": 34, "note": 74, "velocity": 99, "channel": 0}, {"type": "note_on", "time": 42, "note": 74, "velocity": 103, "channel": 0}, {"type": "note_off", "time": 109, "note": 74, "velocity": 103, "channel": 0}, {"type": "note_on", "time": 2, "note": 72, "velocity": 95, "channel": 0}, {"type": "note_off", "time": 74, "note": 72, "velocity": 95, "channel": 0}, {"type": "note_on", "time": 138, "note": 74, "velocity": 100, "channel": 0}, {"type": "note_off", "time": 66, "note": 74, "velocity": 100, "channel": 0}, {"type": "note_on", "time": 27, "note": 74, "velocity": 102, "channel": 0}, {"type": "note_off", "time": 69, "note": 74, "velocity": 102, "channel": 0}, {"type": "note_on", "time": 17, "note": 72, "velocity": 98, "channel": 0}, {"type": "note_off", "time": 66, "note": 72, "velocity": 98, "channel": 0}, {"type": "note_on", "time": 136, "note": 74, "velocity": 104, "channel": 0}, {"type": "note_off", "time": 52, "note": 74, "velocity": 104, "channel": 0}, {"type": "note_on", "time": 27, "note": 74, "velocity": 103, "channel": 0}, {"type": "note_off", "time": 114, "note": 74, "velocity": 103, "channel": 0}, {"type": "note_on", "time": 7, "note": 72, "velocity": 98, "channel": 0}, {"type": "note_off", "time": 54, "note": 72, "velocity": 98, "channel": 0}, {"type": "note_on", "time": 126, "note": 74, "velocity": 105, "channel": 0}, {"type": "note_off", "time": 44, "note": 74, "velocity": 105, "channel": 0}, {"type": "note_on", "time": 19, "note": 74, "velocity": 101, "channel": 0}, {"type": "note_off", "time": 91, "note": 74, "velocity": 101, "channel": 0}, {"type": "note_on", "time": 34, "note": 72, "velocity": 97, "channel": 0}, {"type": "note_off", "time": 49, "note": 72, "velocity": 97, "channel": 0}, {"type": "note_on", "time": 156, "note": 74, "velocity": 102, "channel": 0}, {"type": "note_off", "time": 44, "note": 74, "velocity": 102, "channel": 0}, {"type": "note_on", "time": 12, "note": 74, "velocity": 97, "channel": 0}, {"type": "note_off", "time": 89, "note": 74, "velocity": 97, "channel": 0}, {"type": "note_on", "time": 27, "note": 72, "velocity": 89, "channel": 0}, {"type": "note_off", "time": 64, "note": 72, "velocity": 89, "channel": 0}, {"type": "note_on", "time": 109, "note": 73, "velocity": 91, "channel": 0}, {"type": "note_off", "time": 49, "note": 73, "velocity": 91, "channel": 0}, {"type": "note_on", "time": 7, "note": 74, "velocity": 98, "channel": 0}, {"type": "note_off", "time": 131, "note": 74, "velocity": 98, "channel": 0}, {"type": "note_on", "time": 14, "note": 72, "velocity": 96, "channel": 0}, {"type": "note_off", "time": 79, "note": 72, "velocity": 96, "channel": 0}, {"type": "note_on", "time": 126, "note": 74, "velocity": 98, "channel": 0}, {"type": "note_off", "time": 42, "note": 74, "velocity": 98, "channel": 0}, {"type": "note_on", "time": 29, "note": 74, "velocity": 98, "channel": 0}, {"type": "note_off", "time": 71, "note": 74, "velocity": 98, "channel": 0}, {"type": "note_on", "time": 27, "note": 72, "velocity": 96, "channel": 0}, {"type": "note_off", "time": 89, "note": 72, "velocity": 96, "channel": 0}, {"type": "note_on", "time": 114, "note": 74, "velocity": 97, "channel": 0}, {"type": "note_off", "time": 128, "note": 74, "velocity": 97, "channel": 0}, {"type": "note_on", "time": 57, "note": 72, "velocity": 93, "channel": 0}, {"type": "note_off", "time": 64, "note": 72, "velocity": 93, "channel": 0}, {"type": "note_on", "time": 126, "note": 74, "velocity": 94, "channel": 0}, {"type": "note_off", "time": 49, "note": 74, "velocity": 94, "channel": 0}, {"type": "note_on", "time": 34, "note": 74, "velocity": 95, "channel": 0}, {"type": "note_off", "time": 99, "note": 74, "velocity": 95, "channel": 0}, {"type": "note_on", "time": 14, "note": 72, "velocity": 90, "channel": 0}, {"type": "note_off", "time": 81, "note": 72, "velocity": 90, "channel": 0}, {"type": "note_on", "time": 128, "note": 74, "velocity": 95, "channel": 0}, {"type": "note_off", "time": 42, "note": 74, "velocity": 95, "channel": 0}, {"type": "note_on", "time": 32, "note": 74, "velocity": 97, "channel": 0}, {"type": "note_off", "time": 119, "note": 74, "velocity": 97, "channel": 0}, {"type": "note_on", "time": 12, "note": 72, "velocity": 94, "channel": 0}, {"type": "note_off", "time": 61, "note": 72, "velocity": 94, "channel": 0}, {"type": "note_on", "time": 146, "note": 74, "velocity": 98, "channel": 0}, {"type": "note_off", "time": 106, "note": 74, "velocity": 98, "channel": 0}, {"type": "note_on", "time": 47, "note": 72, "velocity": 95, "channel": 0}, {"type": "note_off", "time": 64, "note": 72, "velocity": 95, "channel": 0}, {"type": "note_on", "time": 19, "note": 65, "velocity": 91, "channel": 0}, {"type": "note_off", "time": 448, "note": 65, "velocity": 91, "channel": 0}, {"type": "note_on", "time": 1993, "note": 65, "velocity": 89, "channel": 0}, {"type": "note_off", "time": 61, "note": 65, "velocity": 89, "channel": 0}, {"type": "note_on", "time": 4, "note": 69, "velocity": 103, "channel": 0}, {"type": "note_off", "time": 76, "note": 69, "velocity": 103, "channel": 0}, {"type": "note_on", "time": 141, "note": 70, "velocity": 107, "channel": 0}, {"type": "note_off", "time": 79, "note": 70, "velocity": 107, "channel": 0}, {"type": "note_on", "time": 11, "note": 72, "velocity": 97, "channel": 0}, {"type": "note_off", "time": 56, "note": 72, "velocity": 97, "channel": 0}, {"type": "note_on", "time": 6, "note": 74, "velocity": 100, "channel": 0}, {"type": "note_off", "time": 101, "note": 74, "velocity": 100, "channel": 0}, {"type": "note_on", "time": 14, "note": 70, "velocity": 98, "channel": 0}, {"type": "note_off", "time": 66, "note": 70, "velocity": 98, "channel": 0}, {"type": "note_on", "time": 2, "note": 72, "velocity": 104, "channel": 0}, {"type": "note_off", "time": 241, "note": 72, "velocity": 104, "channel": 0}, {"type": "note_on", "time": 19, "note": 70, "velocity": 82, "channel": 0}, {"type": "note_off", "time": 46, "note": 70, "velocity": 82, "channel": 0}, {"type": "note_on", "time": 2080, "note": 62, "velocity": 96, "channel": 0}, {"type": "note_off", "time": 52, "note": 62, "velocity": 96, "channel": 0}, {"type": "note_on", "time": 44, "note": 69, "velocity": 114, "channel": 0}, {"type": "note_off", "time": 81, "note": 69, "velocity": 114, "channel": 0}, {"type": "note_on", "time": 123, "note": 70, "velocity": 115, "channel": 0}, {"type": "note_off", "time": 79, "note": 70, "velocity": 115, "channel": 0}, {"type": "note_on", "time": 14, "note": 72, "velocity": 97, "channel": 0}, {"type": "note_off", "time": 64, "note": 72, "velocity": 97, "channel": 0}, {"type": "note_on", "time": 0, "note": 74, "velocity": 111, "channel": 0}, {"type": "note_off", "time": 104, "note": 74, "velocity": 111, "channel": 0}, {"type": "note_on", "time": 0, "note": 70, "velocity": 103, "channel": 0}, {"type": "note_off", "time": 69, "note": 70, "velocity": 103, "channel": 0}, {"type": "note_on", "time": 7, "note": 72, "velocity": 111, "channel": 0}, {"type": "note_off", "time": 213, "note": 72, "velocity": 111, "channel": 0}, {"type": "note_on", "time": 729, "note": 69, "velocity": 115, "channel": 0}, {"type": "note_off", "time": 106, "note": 69, "velocity": 115, "channel": 0}, {"type": "note_on", "time": 0, "note": 65, "velocity": 114, "channel": 0}, {"type": "note_off", "time": 136, "note": 65, "velocity": 114, "channel": 0}, {"type": "note_on", "time": 63, "note": 65, "velocity": 107, "channel": 0}, {"type": "note_off", "time": 364, "note": 65, "velocity": 107, "channel": 0}, {"type": "note_on", "time": 1833, "note": 82, "velocity": 125, "channel": 0}, {"type": "note_off", "time": 119, "note": 82, "velocity": 125, "channel": 0}, {"type": "note_on", "time": 9, "note": 74, "velocity": 104, "channel": 0}, {"type": "note_off", "time": 555, "note": 74, "velocity": 104, "channel": 0}, {"type": "note_on", "time": 54, "note": 76, "velocity": 104, "channel": 0}, {"type": "note_off", "time": 52, "note": 76, "velocity": 104, "channel": 0}, {"type": "note_on", "time": 14, "note": 77, "velocity": 116, "channel": 0}, {"type": "note_off", "time": 243, "note": 77, "velocity": 116, "channel": 0}, {"type": "note_on", "time": 32, "note": 73, "velocity": 102, "channel": 0}, {"type": "note_off", "time": 64, "note": 73, "velocity": 102, "channel": 0}, {"type": "note_on", "time": 0, "note": 74, "velocity": 107, "channel": 0}, {"type": "note_off", "time": 255, "note": 74, "velocity": 107, "channel": 0}, {"type": "note_on", "time": 37, "note": 69, "velocity": 98, "channel": 0}, {"type": "note_off", "time": 69, "note": 69, "velocity": 98, "channel": 0}, {"type": "note_on", "time": 0, "note": 70, "velocity": 105, "channel": 0}, {"type": "note_off", "time": 71, "note": 70, "velocity": 105, "channel": 0}, {"type": "note_on", "time": 42, "note": 64, "velocity": 107, "channel": 0}, {"type": "note_off", "time": 54, "note": 64, "velocity": 107, "channel": 0}, {"type": "note_on", "time": 9, "note": 65, "velocity": 112, "channel": 0}, {"type": "note_off", "time": 94, "note": 65, "velocity": 112, "channel": 0}, {"type": "note_on", "time": 4, "note": 61, "velocity": 106, "channel": 0}, {"type": "note_off", "time": 101, "note": 61, "velocity": 106, "channel": 0}, {"type": "note_on", "time": 7, "note": 62, "velocity": 92, "channel": 0}, {"type": "note_off", "time": 302, "note": 62, "velocity": 92, "channel": 0}, {"type": "note_on", "time": 381, "note": 69, "velocity": 102, "channel": 0}, {"type": "note_off", "time": 71, "note": 69, "velocity": 102, "channel": 0}, {"type": "note_on", "time": 7, "note": 70, "velocity": 96, "channel": 0}, {"type": "note_off", "time": 252, "note": 70, "velocity": 96, "channel": 0}, {"type": "note_on", "time": 12, "note": 73, "velocity": 98, "channel": 0}, {"type": "note_off", "time": 69, "note": 73, "velocity": 98, "channel": 0}, {"type": "note_on", "time": 0, "note": 74, "velocity": 100, "channel": 0}, {"type": "note_off", "time": 126, "note": 74, "velocity": 100, "channel": 0}, {"type": "note_on", "time": 0, "note": 76, "velocity": 111, "channel": 0}, {"type": "note_off", "time": 74, "note": 76, "velocity": 111, "channel": 0}, {"type": "note_on", "time": 0, "note": 77, "velocity": 105, "channel": 0}, {"type": "note_off", "time": 114, "note": 77, "velocity": 105, "channel": 0}, {"type": "note_on", "time": 9, "note": 73, "velocity": 88, "channel": 0}, {"type": "note_off", "time": 52, "note": 73, "velocity": 88, "channel": 0}, {"type": "note_on", "time": 7, "note": 74, "velocity": 103, "channel": 0}, {"type": "note_off", "time": 91, "note": 74, "velocity": 103, "channel": 0}, {"type": "note_on", "time": 0, "note": 69, "velocity": 94, "channel": 0}, {"type": "note_off", "time": 84, "note": 69, "velocity": 94, "channel": 0}, {"type": "note_on", "time": 7, "note": 70, "velocity": 103, "channel": 0}, {"type": "note_off", "time": 91, "note": 70, "velocity": 103, "channel": 0}, {"type": "note_on", "time": 49, "note": 64, "velocity": 98, "channel": 0}, {"type": "note_off", "time": 47, "note": 64, "velocity": 98, "channel": 0}, {"type": "note_on", "time": 0, "note": 65, "velocity": 109, "channel": 0}, {"type": "note_off", "time": 101, "note": 65, "velocity": 109, "channel": 0}, {"type": "note_on", "time": 14, "note": 61, "velocity": 109, "channel": 0}, {"type": "note_off", "time": 84, "note": 61, "velocity": 109, "channel": 0}, {"type": "note_on", "time": 24, "note": 62, "velocity": 102, "channel": 0}, {"type": "note_off", "time": 94, "note": 62, "velocity": 102, "channel": 0}, {"type": "note_on", "time": 19, "note": 64, "velocity": 105, "channel": 0}, {"type": "note_off", "time": 44, "note": 64, "velocity": 105, "channel": 0}, {"type": "note_on", "time": 14, "note": 65, "velocity": 115, "channel": 0}, {"type": "note_off", "time": 102, "note": 65, "velocity": 115, "channel": 0}, {"type": "note_on", "time": 13, "note": 67, "velocity": 108, "channel": 0}, {"type": "note_off", "time": 39, "note": 67, "velocity": 108, "channel": 0}, {"type": "note_on", "time": 32, "note": 68, "velocity": 100, "channel": 0}, {"type": "note_off", "time": 99, "note": 68, "velocity": 100, "channel": 0}, {"type": "note_on", "time": 0, "note": 69, "velocity": 106, "channel": 0}, {"type": "note_off", "time": 81, "note": 69, "velocity": 106, "channel": 0}, {"type": "note_on", "time": 12, "note": 70, "velocity": 107, "channel": 0}, {"type": "note_off", "time": 104, "note": 70, "velocity": 107, "channel": 0}, {"type": "note_on", "time": 7, "note": 71, "velocity": 106, "channel": 0}, {"type": "note_off", "time": 52, "note": 71, "velocity": 106, "channel": 0}, {"type": "note_on", "time": 19, "note": 72, "velocity": 105, "channel": 0}, {"type": "note_off", "time": 79, "note": 72, "velocity": 105, "channel": 0}, {"type": "note_on", "time": 22, "note": 73, "velocity": 102, "channel": 0}, {"type": "note_off", "time": 79, "note": 73, "velocity": 102, "channel": 0}, {"type": "note_on", "time": 0, "note": 74, "velocity": 92, "channel": 0}, {"type": "note_off", "time": 198, "note": 74, "velocity": 92, "channel": 0}, {"type": "note_on", "time": 21, "note": 76, "velocity": 103, "channel": 0}, {"type": "note_off", "time": 168, "note": 76, "velocity": 103, "channel": 0}, {"type": "note_on", "time": 0, "note": 74, "velocity": 106, "channel": 0}, {"type": "note_off", "time": 230, "note": 74, "velocity": 106, "channel": 0}, {"type": "note_on", "time": 84, "note": 72, "velocity": 110, "channel": 0}, {"type": "note_off", "time": 61, "note": 72, "velocity": 110, "channel": 0}, {"type": "note_on", "time": 9, "note": 71, "velocity": 109, "channel": 0}, {"type": "note_off", "time": 104, "note": 71, "velocity": 109, "channel": 0}, {"type": "note_on", "time": 14, "note": 69, "velocity": 116, "channel": 0}, {"type": "note_off", "time": 64, "note": 69, "velocity": 116, "channel": 0}, {"type": "note_on", "time": 7, "note": 68, "velocity": 112, "channel": 0}, {"type": "note_on", "time": 109, "note": 71, "velocity": 114, "channel": 0}, {"type": "note_off", "time": 0, "note": 68, "velocity": 112, "channel": 0}, {"type": "note_off", "time": 91, "note": 71, "velocity": 114, "channel": 0}, {"type": "note_on", "time": 7, "note": 69, "velocity": 110, "channel": 0}, {"type": "note_off", "time": 86, "note": 69, "velocity": 110, "channel": 0}, {"type": "note_on", "time": 27, "note": 67, "velocity": 116, "channel": 0}, {"type": "note_off", "time": 74, "note": 67, "velocity": 116, "channel": 0}, {"type": "note_on", "time": 7, "note": 66, "velocity": 93, "channel": 0}, {"type": "note_off", "time": 86, "note": 66, "velocity": 93, "channel": 0}, {"type": "note_on", "time": 14, "note": 64, "velocity": 116, "channel": 0}, {"type": "note_off", "time": 54, "note": 64, "velocity": 116, "channel": 0}, {"type": "note_on", "time": 26, "note": 65, "velocity": 119, "channel": 0}, {"type": "note_off", "time": 109, "note": 65, "velocity": 119, "channel": 0}, {"type": "note_on", "time": 64, "note": 65, "velocity": 117, "channel": 0}, {"type": "note_off", "time": 102, "note": 65, "velocity": 117, "channel": 0}, {"type": "note_on", "time": 111, "note": 65, "velocity": 118, "channel": 0}, {"type": "note_off", "time": 122, "note": 65, "velocity": 118, "channel": 0}, {"type": "note_on", "time": 1343, "note": 64, "velocity": 118, "channel": 0}, {"type": "note_off", "time": 667, "note": 64, "velocity": 118, "channel": 0}, {"type": "note_on", "time": 13, "note": 65, "velocity": 115, "channel": 0}, {"type": "note_off", "time": 524, "note": 65, "velocity": 115, "channel": 0}, {"type": "note_on", "time": 29, "note": 66, "velocity": 97, "channel": 0}, {"type": "note_off", "time": 309, "note": 66, "velocity": 97, "channel": 0}, {"type": "note_on", "time": 39, "note": 67, "velocity": 104, "channel": 0}, {"type": "note_off", "time": 171, "note": 67, "velocity": 104, "channel": 0}, {"type": "note_on", "time": 954, "note": 65, "velocity": 104, "channel": 0}, {"type": "note_off", "time": 166, "note": 65, "velocity": 104, "channel": 0}, {"type": "note_on", "time": 34, "note": 74, "velocity": 96, "channel": 0}, {"type": "note_off", "time": 121, "note": 74, "velocity": 96, "channel": 0}, {"type": "note_on", "time": 2, "note": 72, "velocity": 101, "channel": 0}, {"type": "note_off", "time": 76, "note": 72, "velocity": 101, "channel": 0}, {"type": "note_on", "time": 0, "note": 70, "velocity": 104, "channel": 0}, {"type": "note_off", "time": 163, "note": 70, "velocity": 104, "channel": 0}, {"type": "note_on", "time": 32, "note": 77, "velocity": 118, "channel": 0}, {"type": "note_off", "time": 183, "note": 77, "velocity": 118, "channel": 0}, {"type": "note_on", "time": 19, "note": 74, "velocity": 95, "channel": 0}, {"type": "note_off", "time": 114, "note": 74, "velocity": 95, "channel": 0}, {"type": "note_on", "time": 81, "note": 82, "velocity": 111, "channel": 0}, {"type": "note_off", "time": 178, "note": 82, "velocity": 111, "channel": 0}, {"type": "note_on", "time": 59, "note": 74, "velocity": 79, "channel": 0}, {"type": "note_off", "time": 131, "note": 74, "velocity": 79, "channel": 0}, {"type": "note_on", "time": 44, "note": 77, "velocity": 106, "channel": 0}, {"type": "note_off", "time": 141, "note": 77, "velocity": 106, "channel": 0}, {"type": "note_on", "time": 14, "note": 79, "velocity": 93, "channel": 0}, {"type": "note_off", "time": 114, "note": 79, "velocity": 93, "channel": 0}, {"type": "note_on", "time": 7, "note": 77, "velocity": 94, "channel": 0}, {"type": "note_off", "time": 69, "note": 77, "velocity": 94, "channel": 0}, {"type": "note_on", "time": 19, "note": 75, "velocity": 100, "channel": 0}, {"type": "note_off", "time": 82, "note": 75, "velocity": 100, "channel": 0}, {"type": "note_on", "time": 13, "note": 77, "velocity": 96, "channel": 0}, {"type": "note_off", "time": 83, "note": 77, "velocity": 96, "channel": 0}, {"type": "note_on", "time": 11, "note": 82, "velocity": 113, "channel": 0}, {"type": "note_off", "time": 162, "note": 82, "velocity": 113, "channel": 0}, {"type": "note_on", "time": 47, "note": 79, "velocity": 101, "channel": 0}, {"type": "note_off", "time": 121, "note": 79, "velocity": 101, "channel": 0}, {"type": "note_on", "time": 69, "note": 77, "velocity": 111, "channel": 0}, {"type": "note_off", "time": 47, "note": 77, "velocity": 111, "channel": 0}, {"type": "note_on", "time": 54, "note": 75, "velocity": 107, "channel": 0}, {"type": "note_off", "time": 44, "note": 75, "velocity": 107, "channel": 0}, {"type": "note_on", "time": 7, "note": 74, "velocity": 92, "channel": 0}, {"type": "note_off", "time": 86, "note": 74, "velocity": 92, "channel": 0}, {"type": "note_on", "time": 143, "note": 82, "velocity": 110, "channel": 0}, {"type": "note_off", "time": 153, "note": 82, "velocity": 110, "channel": 0}, {"type": "note_on", "time": 47, "note": 79, "velocity": 96, "channel": 0}, {"type": "note_off", "time": 121, "note": 79, "velocity": 96, "channel": 0}, {"type": "note_on", "time": 52, "note": 77, "velocity": 107, "channel": 0}, {"type": "note_off", "time": 49, "note": 77, "velocity": 107, "channel": 0}, {"type": "note_on", "time": 47, "note": 75, "velocity": 102, "channel": 0}, {"type": "note_off", "time": 64, "note": 75, "velocity": 102, "channel": 0}, {"type": "note_on", "time": 9, "note": 74, "velocity": 92, "channel": 0}, {"type": "note_off", "time": 109, "note": 74, "velocity": 92, "channel": 0}, {"type": "note_on", "time": 81, "note": 82, "velocity": 108, "channel": 0}, {"type": "note_off", "time": 158, "note": 82, "velocity": 108, "channel": 0}, {"type": "note_on", "time": 37, "note": 79, "velocity": 98, "channel": 0}, {"type": "note_off", "time": 166, "note": 79, "velocity": 98, "channel": 0}, {"type": "note_on", "time": 24, "note": 77, "velocity": 103, "channel": 0}, {"type": "note_off", "time": 158, "note": 77, "velocity": 103, "channel": 0}, {"type": "note_on", "time": 17, "note": 74, "velocity": 100, "channel": 0}, {"type": "note_off", "time": 240, "note": 74, "velocity": 100, "channel": 0}, {"type": "note_on", "time": 22, "note": 73, "velocity": 83, "channel": 0}, {"type": "note_off", "time": 59, "note": 73, "velocity": 83, "channel": 0}, {"type": "note_on", "time": 0, "note": 75, "velocity": 98, "channel": 0}, {"type": "note_off", "time": 438, "note": 75, "velocity": 98, "channel": 0}, {"type": "note_on", "time": 4, "note": 74, "velocity": 91, "channel": 0}, {"type": "note_off", "time": 349, "note": 74, "velocity": 91, "channel": 0}, {"type": "note_on", "time": 34, "note": 72, "velocity": 88, "channel": 0}, {"type": "note_off", "time": 369, "note": 72, "velocity": 88, "channel": 0}, {"type": "note_on", "time": 29, "note": 70, "velocity": 91, "channel": 0}, {"type": "note_off", "time": 156, "note": 70, "velocity": 91, "channel": 0}, {"type": "note_on", "time": 32, "note": 69, "velocity": 88, "channel": 0}, {"type": "note_off", "time": 121, "note": 69, "velocity": 88, "channel": 0}, {"type": "end_of_track", "time": 0}]]}