{"ticks_per_beat": 192, "tracks": [[{"type": "track_name", "name": "Melody", "time": 0}, {"type": "set_tempo", "tempo": 247933, "time": 0}, {"type": "key_signature", "key": "Ab", "time": 0}, {"type": "time_signature", "numerator": 4, "denominator": 4, "clocks_per_click": 24, "notated_32nd_notes_per_beat": 8, "time": 0}, {"type": "note_on", "time": 412, "note": 72, "velocity": 103, "channel": 0}, {"type": "note_off", "time": 96, "note": 72, "velocity": 103, "channel": 0}, {"type": "note_on", "time": 0, "note": 73, "velocity": 121, "channel": 0}, {"type": "note_off", "time": 89, "note": 73, "velocity": 121, "channel": 0}, {"type": "note_on", "time": 2, "note": 72, "velocity": 114, "channel": 0}, {"type": "note_off", "time": 98, "note": 72, "velocity": 114, "channel": 0}, {"type": "note_on", "time": 0, "note": 70, "velocity": 116, "channel": 0}, {"type": "note_off", "time": 80, "note": 70, "velocity": 116, "channel": 0}, {"type": "note_on", "time": 6, "note": 68, "velocity": 120, "channel": 0}, {"type": "note_off", "time": 89, "note": 68, "velocity": 120, "channel": 0}, {"type": "note_on", "time": 4, "note": 67, "velocity": 105, "channel": 0}, {"type": "note_off", "time": 94, "note": 67, "velocity": 105, "channel": 0}, {"type": "note_on", "time": 15, "note": 64, "velocity": 112, "channel": 0}, {"type": "note_off", "time": 56, "note": 64, "velocity": 112, "channel": 0}, {"type": "note_on", "time": 164, "note": 60, "velocity": 103, "channel": 0}, {"type": "note_off", "time": 166, "note": 60, "velocity": 103, "channel": 0}, {"type": "note_on", "time": 26, "note": 65, "velocity": 115, "channel": 0}, {"type": "note_off", "time": 119, "note": 65, "velocity": 115, "channel": 0}, {"type": "note_on", "time": 287, "note": 72, "velocity": 113, "channel": 0}, {"type": "note_off", "time": 125, "note": 72, "velocity": 113, "channel": 0}, {"type": "note_on", "time": 274, "note": 68, "velocity": 109, "channel": 0}, {"type": "note_off", "time": 112, "note": 68, "velocity": 109, "channel": 0}, {"type": "note_on", "time": 177, "note": 64, "velocity": 98, "channel": 0}, {"type": "note_off", "time": 80, "note": 64, "velocity": 98, "channel": 0}, {"type": "note_on", "time": 148, "note": 71, "velocity": 121, "channel": 0}, {"type": "note_off", "time": 114, "note": 71, "velocity": 121, "channel": 0}, {"type": "note_on", "time": 40, "note": 72, "velocity": 107, "channel": 0}, {"type": "note_off", "time": 377, "note": 72, "velocity": 107, "channel": 0}, {"type": "note_on", "time": 11, "note": 73, "velocity": 116, "channel": 0}, {"type": "note_off", "time": 80, "note": 73, "velocity": 116, "channel": 0}, {"type": "note_on", "time": 33, "note": 72, "velocity": 106, "channel": 0}, {"type": "note_off", "time": 103, "note": 72, "velocity": 106, "channel": 0}, {"type": "note_on", "time": 6, "note": 70, "velocity": 116, "channel": 0}, {"type": "note_off", "time": 92, "note": 70, "velocity": 116, "channel": 0}, {"type": "note_on", "time": 1132, "note": 73, "velocity": 112, "channel": 0}, {"type": "note_off", "time": 110, "note": 73, "velocity": 112, "channel": 0}, {"type": "note_on", "time": 92, "note": 77, "velocity": 119, "channel": 0}, {"type": "note_off", "time": 384, "note": 77, "velocity": 119, "channel": 0}, {"type": "note_on", "time": 42, "note": 72, "velocity": 104, "channel": 0}, {"type": "note_off", "time": 260, "note": 72, "velocity": 104, "channel": 0}, {"type": "note_on", "time": 15, "note": 75, "velocity": 95, "channel": 0}, {"type": "note_off", "time": 130, "note": 75, "velocity": 95, "channel": 0}, {"type": "note_on", "time": 164, "note": 73, "velocity": 120, "channel": 0}, {"type": "note_off", "time": 80, "note": 73, "velocity": 120, "channel": 0}, {"type": "note_on", "time": 244, "note": 64, "velocity": 104, "channel": 0}, {"type": "note_off", "time": 40, "note": 64, "velocity": 104, "channel": 0}, {"type": "note_on", "time": 0, "note": 65, "velocity": 101, "channel": 0}, {"type": "note_off", "time": 94, "note": 65, "velocity": 101, "channel": 0}, {"type": "note_on", "time": 35, "note": 72, "velocity": 121, "channel": 0}, {"type": "note_off", "time": 76, "note": 72, "velocity": 121, "channel": 0}, {"type": "note_on", "time": 1341, "note": 61, "velocity": 88, "channel": 0}, {"type": "note_off", "time": 51, "note": 61, "velocity": 88, "channel": 0}, {"type": "note_on", "time": 85, "note": 63, "velocity": 108, "channel": 0}, {"type": "note_off", "time": 53, "note": 63, "velocity": 108, "channel": 0}, {"type": "note_on", "time": 0, "note": 65, "velocity": 113, "channel": 0}, {"type": "note_off", "time": 110, "note": 65, "velocity": 113, "channel": 0}, {"type": "note_on", "time": 15, "note": 67, "velocity": 108, "channel": 0}, {"type": "note_on", "time": 92, "note": 68, "velocity": 115, "channel": 0}, {"type": "note_off", "time": 0, "note": 67, "velocity": 108, "channel": 0}, {"type": "note_off", "time": 89, "note": 68, "velocity": 115, "channel": 0}, {"type": "note_on", "time": 0, "note": 70, "velocity": 111, "channel": 0}, {"type": "note_off", "time": 92, "note": 70, "velocity": 111, "channel": 0}, {"type": "note_on", "time": 150, "note": 64, "velocity": 95, "channel": 0}, {"type": "note_off", "time": 53, "note": 64, "velocity": 95, "channel": 0}, {"type": "note_on", "time": 4, "note": 65, "velocity": 96, "channel": 0}, {"type": "note_off", "time": 78, "note": 65, "velocity": 96, "channel": 0}, {"type": "note_on", "time": 15, "note": 67, "velocity": 110, "channel": 0}, {"type": "note_off", "time": 83, "note": 67, "velocity": 110, "channel": 0}, {"type": "note_on", "time": 11, "note": 69, "velocity": 110, "channel": 0}, {"type": "note_off", "time": 98, "note": 69, "velocity": 110, "channel": 0}, {"type": "note_on", "time": 13, "note": 71, "velocity": 126, "channel": 0}, {"type": "note_off", "time": 60, "note": 71, "velocity": 126, "channel": 0}, {"type": "note_on", "time": 8, "note": 72, "velocity": 116, "channel": 0}, {"type": "note_off", "time": 112, "note": 72, "velocity": 116, "channel": 0}, {"type": "note_on", "time": 6, "note": 73, "velocity": 107, "channel": 0}, {"type": "note_off", "time": 103, "note": 73, "velocity": 107, "channel": 0}, {"type": "note_on", "time": 0, "note": 74, "velocity": 122, "channel": 0}, {"type": "note_off", "time": 92, "note": 74, "velocity": 122, "channel": 0}, {"type": "note_on", "time": 4, "note": 76, "velocity": 121, "channel": 0}, {"type": "note_off", "time": 98, "note": 76, "velocity": 121, "channel": 0}, {"type": "note_on", "time": 0, "note": 74, "velocity": 119, "channel": 0}, {"type": "note_off", "time": 92, "note": 74, "velocity": 119, "channel": 0}, {"type": "note_on", "time": 20, "note": 72, "velocity": 103, "channel": 0}, {"type": "note_off", "time": 87, "note": 72, "velocity": 103, "channel": 0}, {"type": "note_on", "time": 6, "note": 71, "velocity": 117, "channel": 0}, {"type": "note_off", "time": 78, "note": 71, "velocity": 117, "channel": 0}, {"type": "note_on", "time": 15, "note": 69, "velocity": 119, "channel": 0}, {"type": "note_off", "time": 80, "note": 69, "velocity": 119, "channel": 0}, {"type": "note_on", "time": 0, "note": 67, "velocity": 113, "channel": 0}, {"type": "note_off", "time": 94, "note": 67, "velocity": 113, "channel": 0}, {"type": "note_on", "time": 498, "note": 80, "velocity": 126, "channel": 0}, {"type": "note_off", "time": 85, "note": 80, "velocity": 126, "channel": 0}, {"type": "note_on", "time": 11, "note": 78, "velocity": 116, "channel": 0}, {"type": "note_off", "time": 44, "note": 78, "velocity": 116, "channel": 0}, {"type": "note_on", "time": 6, "note": 76, "velocity": 111, "channel": 0}, {"type": "note_off", "time": 49, "note": 76, "velocity": 111, "channel": 0}, {"type": "note_on", "time": 4, "note": 75, "velocity": 121, "channel": 0}, {"type": "note_off", "time": 92, "note": 75, "velocity": 121, "channel": 0}, {"type": "note_on", "time": 8, "note": 73, "velocity": 116, "channel": 0}, {"type": "note_off", "time": 92, "note": 73, "velocity": 116, "channel": 0}, {"type": "note_on", "time": 6, "note": 71, "velocity": 116, "channel": 0}, {"type": "note_on", "time": 94, "note": 69, "velocity": 105, "channel": 0}, {"type": "note_off", "time": 0, "note": 71, "velocity": 116, "channel": 0}, {"type": "note_off", "time": 89, "note": 69, "velocity": 105, "channel": 0}, {"type": "note_on", "time": 13, "note": 70, "velocity": 113, "channel": 0}, {"type": "note_off", "time": 368, "note": 70, "velocity": 113, "channel": 0}, {"type": "note_on", "time": 442, "note": 62, "velocity": 86, "channel": 0}, {"type": "note_off", "time": 58, "note": 62, "velocity": 86, "channel": 0}, {"type": "note_on", "time": 21, "note": 63, "velocity": 97, "channel": 0}, {"type": "note_off", "time": 69, "note": 63, "velocity": 97, "channel": 0}, {"type": "note_on", "time": 14, "note": 65, "velocity": 119, "channel": 0}, {"type": "note_off", "time": 79, "note": 65, "velocity": 119, "channel": 0}, {"type": "note_on", "time": 28, "note": 67, "velocity": 115, "channel": 0}, {"type": "note_off", "time": 62, "note": 67, "velocity": 115, "channel": 0}, {"type": "note_on", "time": 0, "note": 69, "velocity": 120, "channel": 0}, {"type": "note_off", "time": 92, "note": 69, "velocity": 120, "channel": 0}, {"type": "note_on", "time": 4, "note": 70, "velocity": 115, "channel": 0}, {"type": "note_off", "time": 89, "note": 70, "velocity": 115, "channel": 0}, {"type": "note_on", "time": 33, "note": 72, "velocity": 119, "channel": 0}, {"type": "note_off", "time": 80, "note": 72, "velocity": 119, "channel": 0}, {"type": "note_on", "time": 0, "note": 69, "velocity": 109, "channel": 0}, {"type": "note_off", "time": 94, "note": 69, "velocity": 109, "channel": 0}, {"type": "note_on", "time": 2, "note": 70, "velocity": 105, "channel": 0}, {"type": "note_off", "time": 83, "note": 70, "velocity": 105, "channel": 0}, {"type": "note_on", "time": 18, "note": 72, "velocity": 113, "channel": 0}, {"type": "note_off", "time": 71, "note": 72, "velocity": 113, "channel": 0}, {"type": "note_on", "time": 7, "note": 74, "velocity": 119, "channel": 0}, {"type": "note_off", "time": 105, "note": 74, "velocity": 119, "channel": 0}, {"type": "note_on", "time": 27, "note": 70, "velocity": 85, "channel": 0}, {"type": "note_off", "time": 44, "note": 70, "velocity": 85, "channel": 0}, {"type": "note_on", "time": 903, "note": 77, "velocity": 121, "channel": 0}, {"type": "note_off", "time": 59, "note": 77, "velocity": 121, "channel": 0}, {"type": "note_on", "time": 20, "note": 72, "velocity": 107, "channel": 0}, {"type": "note_off", "time": 102, "note": 72, "velocity": 107, "channel": 0}, {"type": "note_on", "time": 72, "note": 75, "velocity": 125, "channel": 0}, {"type": "note_off", "time": 178, "note": 75, "velocity": 125, "channel": 0}, {"type": "note_on", "time": 17, "note": 73, "velocity": 110, "channel": 0}, {"type": "note_off", "time": 93, "note": 73, "velocity": 110, "channel": 0}, {"type": "note_on", "time": 305, "note": 72, "velocity": 117, "channel": 0}, {"type": "note_off", "time": 191, "note": 72, "velocity": 117, "channel": 0}, {"type": "note_on", "time": 15, "note": 70, "velocity": 112, "channel": 0}, {"type": "note_off", "time": 99, "note": 70, "velocity": 112, "channel": 0}, {"type": "note_on", "time": 4, "note": 68, "velocity": 117, "channel": 0}, {"type": "note_off", "time": 85, "note": 68, "velocity": 117, "channel": 0}, {"type": "note_on", "time": 3, "note": 67, "velocity": 103, "channel": 0}, {"type": "note_off", "time": 102, "note": 67, "velocity": 103, "channel": 0}, {"type": "note_on", "time": 20, "note": 65, "velocity": 116, "channel": 0}, {"type": "note_off", "time": 66, "note": 65, "velocity": 116, "channel": 0}, {"type": "note_on", "time": 11, "note": 63, "velocity": 100, "channel": 0}, {"type": "note_off", "time": 90, "note": 63, "velocity": 100, "channel": 0}, {"type": "note_on", "time": 3, "note": 61, "velocity": 104, "channel": 0}, {"type": "note_off", "time": 82, "note": 61, "velocity": 104, "channel": 0}, {"type": "note_on", "time": 3, "note": 60, "velocity": 99, "channel": 0}, {"type": "note_off", "time": 158, "note": 60, "velocity": 99, "channel": 0}, {"type": "note_on", "time": 102, "note": 65, "velocity": 93, "channel": 0}, {"type": "note_off", "time": 31, "note": 65, "velocity": 93, "channel": 0}, {"type": "note_on", "time": 12, "note": 64, "velocity": 97, "channel": 0}, {"type": "note_off", "time": 45, "note": 64, "velocity": 97, "channel": 0}, {"type": "note_on", "time": 1, "note": 65, "velocity": 103, "channel": 0}, {"type": "note_off", "time": 56, "note": 65, "velocity": 103, "channel": 0}, {"type": "note_on", "time": 3, "note": 70, "velocity": 115, "channel": 0}, {"type": "note_off", "time": 90, "note": 70, "velocity": 115, "channel": 0}, {"type": "note_on", "time": 6, "note": 67, "velocity": 107, "channel": 0}, {"type": "note_off", "time": 74, "note": 67, "velocity": 107, "channel": 0}, {"type": "note_on", "time": 9, "note": 68, "velocity": 104, "channel": 0}, {"type": "note_off", "time": 82, "note": 68, "velocity": 104, "channel": 0}, {"type": "note_on", "time": 42, "note": 70, "velocity": 108, "channel": 0}, {"type": "note_off", "time": 72, "note": 70, "velocity": 108, "channel": 0}, {"type": "note_on", "time": 11, "note": 72, "velocity": 113, "channel": 0}, {"type": "note_off", "time": 88, "note": 72, "velocity": 113, "channel": 0}, {"type": "note_on", "time": 1, "note": 73, "velocity": 118, "channel": 0}, {"type": "note_off", "time": 86, "note": 73, "velocity": 118, "channel": 0}, {"type": "note_on", "time": 6, "note": 72, "velocity": 114, "channel": 0}, {"type": "note_off", "time": 99, "note": 72, "velocity": 114, "channel": 0}, {"type": "note_on", "time": 0, "note": 70, "velocity": 117, "channel": 0}, {"type": "note_off", "time": 79, "note": 70, "velocity": 117, "channel": 0}, {"type": "note_on", "time": 7, "note": 68, "velocity": 113, "channel": 0}, {"type": "note_off", "time": 80, "note": 68, "velocity": 113, "channel": 0}, {"type": "note_on", "time": 0, "note": 67, "velocity": 102, "channel": 0}, {"type": "note_off", "time": 82, "note": 67, "velocity": 102, "channel": 0}, {"type": "note_on", "time": 18, "note": 64, "velocity": 105, "channel": 0}, {"type": "note_off", "time": 110, "note": 64, "velocity": 105, "channel": 0}, {"type": "note_on", "time": 12, "note": 61, "velocity": 88, "channel": 0}, {"type": "note_off", "time": 36, "note": 61, "velocity": 88, "channel": 0}, {"type": "note_on", "time": 4, "note": 65, "velocity": 104, "channel": 0}, {"type": "note_off", "time": 379, "note": 65, "velocity": 104, "channel": 0}, {"type": "note_on", "time": 63, "note": 72, "velocity": 108, "channel": 0}, {"type": "note_off", "time": 93, "note": 72, "velocity": 108, "channel": 0}, {"type": "note_on", "time": 61, "note": 68, "velocity": 113, "channel": 0}, {"type": "note_off", "time": 181, "note": 68, "velocity": 113, "channel": 0}, {"type": "note_on", "time": 11, "note": 64, "velocity": 97, "channel": 0}, {"type": "note_off", "time": 268, "note": 64, "velocity": 97, "channel": 0}, {"type": "note_on", "time": 47, "note": 72, "velocity": 120, "channel": 0}, {"type": "note_off", "time": 85, "note": 72, "velocity": 120, "channel": 0}, {"type": "note_on", "time": 790, "note": 72, "velocity": 108, "channel": 0}, {"type": "note_off", "time": 79, "note": 72, "velocity": 108, "channel": 0}, {"type": "note_on", "time": 3, "note": 73, "velocity": 114, "channel": 0}, {"type": "note_on", "time": 91, "note": 72, "velocity": 114, "channel": 0}, {"type": "note_off", "time": 0, "note": 73, "velocity": 114, "channel": 0}, {"type": "note_off", "time": 102, "note": 72, "velocity": 114, "channel": 0}, {"type": "note_on", "time": 0, "note": 70, "velocity": 116, "channel": 0}, {"type": "note_off", "time": 66, "note": 70, "velocity": 116, "channel": 0}, {"type": "note_on", "time": 6, "note": 68, "velocity": 120, "channel": 0}, {"type": "note_off", "time": 83, "note": 68, "velocity": 120, "channel": 0}, {"type": "note_on", "time": 15, "note": 65, "velocity": 114, "channel": 0}, {"type": "note_off", "time": 110, "note": 65, "velocity": 114, "channel": 0}, {"type": "note_on", "time": 586, "note": 73, "velocity": 111, "channel": 0}, {"type": "note_off", "time": 270, "note": 73, "velocity": 111, "channel": 0}, {"type": "note_on", "time": 112, "note": 72, "velocity": 117, "channel": 0}, {"type": "note_off", "time": 232, "note": 72, "velocity": 117, "channel": 0}, {"type": "note_on", "time": 67, "note": 69, "velocity": 115, "channel": 0}, {"type": "note_off", "time": 96, "note": 69, "velocity": 115, "channel": 0}, {"type": "note_on", "time": 15, "note": 70, "velocity": 109, "channel": 0}, {"type": "note_off", "time": 74, "note": 70, "velocity": 109, "channel": 0}, {"type": "note_on", "time": 3, "note": 65, "velocity": 115, "channel": 0}, {"type": "note_off", "time": 45, "note": 65, "velocity": 115, "channel": 0}, {"type": "note_on", "time": 26, "note": 61, "velocity": 98, "channel": 0}, {"type": "note_off", "time": 80, "note": 61, "velocity": 98, "channel": 0}, {"type": "note_on", "time": 36, "note": 57, "velocity": 102, "channel": 0}, {"type": "note_off", "time": 88, "note": 57, "velocity": 102, "channel": 0}, {"type": "note_on", "time": 34, "note": 63, "velocity": 113, "channel": 0}, {"type": "note_off", "time": 121, "note": 63, "velocity": 113, "channel": 0}, {"type": "note_on", "time": 33, "note": 61, "velocity": 106, "channel": 0}, {"type": "note_off", "time": 165, "note": 61, "velocity": 106, "channel": 0}, {"type": "note_on", "time": 11, "note": 60, "velocity": 104, "channel": 0}, {"type": "note_off", "time": 205, "note": 60, "velocity": 104, "channel": 0}, {"type": "note_on", "time": 1246, "note": 72, "velocity": 122, "channel": 0}, {"type": "note_off", "time": 94, "note": 72, "velocity": 122, "channel": 0}, {"type": "note_on", "time": 89, "note": 72, "velocity": 116, "channel": 0}, {"type": "note_off", "time": 86, "note": 72, "velocity": 116, "channel": 0}, {"type": "note_on", "time": 102, "note": 68, "velocity": 117, "channel": 0}, {"type": "note_off", "time": 79, "note": 68, "velocity": 117, "channel": 0}, {"type": "note_on", "time": 12, "note": 65, "velocity": 112, "channel": 0}, {"type": "note_off", "time": 200, "note": 65, "velocity": 112, "channel": 0}, {"type": "note_on", "time": 1, "note": 61, "velocity": 99, "channel": 0}, {"type": "note_off", "time": 90, "note": 61, "velocity": 99, "channel": 0}, {"type": "note_on", "time": 102, "note": 72, "velocity": 110, "channel": 0}, {"type": "note_off", "time": 270, "note": 72, "velocity": 110, "channel": 0}, {"type": "note_on", "time": 44, "note": 72, "velocity": 121, "channel": 0}, {"type": "note_off", "time": 72, "note": 72, "velocity": 121, "channel": 0}, {"type": "note_on", "time": 523, "note": 67, "velocity": 117, "channel": 0}, {"type": "note_off", "time": 60, "note": 67, "velocity": 117, "channel": 0}, {"type": "note_on", "time": 17, "note": 70, "velocity": 119, "channel": 0}, {"type": "note_off", "time": 99, "note": 70, "velocity": 119, "channel": 0}, {"type": "note_on", "time": 9, "note": 67, "velocity": 111, "channel": 0}, {"type": "note_off", "time": 86, "note": 67, "velocity": 111, "channel": 0}, {"type": "note_on", "time": 9, "note": 68, "velocity": 113, "channel": 0}, {"type": "note_off", "time": 129, "note": 68, "velocity": 113, "channel": 0}, {"type": "note_on", "time": 9, "note": 70, "velocity": 119, "channel": 0}, {"type": "note_off", "time": 139, "note": 70, "velocity": 119, "channel": 0}, {"type": "note_on", "time": 0, "note": 73, "velocity": 110, "channel": 0}, {"type": "note_off", "time": 276, "note": 73, "velocity": 110, "channel": 0}, {"type": "note_on", "time": 1, "note": 71, "velocity": 116, "channel": 0}, {"type": "note_off", "time": 116, "note": 71, "velocity": 116, "channel": 0}, {"type": "note_on", "time": 396, "note": 71, "velocity": 122, "channel": 0}, {"type": "note_off", "time": 64, "note": 71, "velocity": 122, "channel": 0}, {"type": "note_on", "time": 4, "note": 72, "velocity": 108, "channel": 0}, {"type": "note_off", "time": 41, "note": 72, "velocity": 108, "channel": 0}, {"type": "note_on", "time": 94, "note": 72, "velocity": 120, "channel": 0}, {"type": "note_off", "time": 61, "note": 72, "velocity": 120, "channel": 0}, {"type": "note_on", "time": 135, "note": 67, "velocity": 92, "channel": 0}, {"type": "note_off", "time": 60, "note": 67, "velocity": 92, "channel": 0}, {"type": "note_on", "time": 4, "note": 63, "velocity": 104, "channel": 0}, {"type": "note_off", "time": 162, "note": 63, "velocity": 104, "channel": 0}, {"type": "note_on", "time": 28, "note": 61, "velocity": 105, "channel": 0}, {"type": "note_off", "time": 150, "note": 61, "velocity": 105, "channel": 0}, {"type": "note_on", "time": 82, "note": 70, "velocity": 112, "channel": 0}, {"type": "note_off", "time": 297, "note": 70, "velocity": 112, "channel": 0}, {"type": "note_on", "time": 0, "note": 70, "velocity": 116, "channel": 0}, {"type": "note_off", "time": 63, "note": 70, "velocity": 116, "channel": 0}, {"type": "note_on", "time": 772, "note": 72, "velocity": 103, "channel": 0}, {"type": "note_off", "time": 97, "note": 72, "velocity": 103, "channel": 0}, {"type": "note_on", "time": 0, "note": 75, "velocity": 121, "channel": 0}, {"type": "note_off", "time": 74, "note": 75, "velocity": 121, "channel": 0}, {"type": "note_on", "time": 17, "note": 72, "velocity": 107, "channel": 0}, {"type": "note_on", "time": 104, "note": 70, "velocity": 111, "channel": 0}, {"type": "note_off", "time": 0, "note": 72, "velocity": 107, "channel": 0}, {"type": "note_off", "time": 82, "note": 70, "velocity": 111, "channel": 0}, {"type": "note_on", "time": 0, "note": 68, "velocity": 119, "channel": 0}, {"type": "note_off", "time": 63, "note": 68, "velocity": 119, "channel": 0}, {"type": "note_on", "time": 2, "note": 69, "velocity": 115, "channel": 0}, {"type": "note_off", "time": 53, "note": 69, "velocity": 115, "channel": 0}, {"type": "note_on", "time": 3, "note": 68, "velocity": 122, "channel": 0}, {"type": "note_off", "time": 37, "note": 68, "velocity": 122, "channel": 0}, {"type": "note_on", "time": 0, "note": 67, "velocity": 118, "channel": 0}, {"type": "note_off", "time": 113, "note": 67, "velocity": 118, "channel": 0}, {"type": "note_on", "time": 0, "note": 64, "velocity": 117, "channel": 0}, {"type": "note_off", "time": 105, "note": 64, "velocity": 117, "channel": 0}, {"type": "note_on", "time": 286, "note": 74, "velocity": 124, "channel": 0}, {"type": "note_off", "time": 53, "note": 74, "velocity": 124, "channel": 0}, {"type": "note_on", "time": 7, "note": 74, "velocity": 123, "channel": 0}, {"type": "note_off", "time": 61, "note": 74, "velocity": 123, "channel": 0}, {"type": "note_on", "time": 7, "note": 72, "velocity": 120, "channel": 0}, {"type": "note_off", "time": 240, "note": 72, "velocity": 120, "channel": 0}, {"type": "note_on", "time": 0, "note": 74, "velocity": 117, "channel": 0}, {"type": "note_off", "time": 44, "note": 74, "velocity": 117, "channel": 0}, {"type": "note_on", "time": 14, "note": 74, "velocity": 122, "channel": 0}, {"type": "note_off", "time": 58, "note": 74, "velocity": 122, "channel": 0}, {"type": "note_on", "time": 4, "note": 72, "velocity": 122, "channel": 0}, {"type": "note_off", "time": 263, "note": 72, "velocity": 122, "channel": 0}, {"type": "note_on", "time": 22, "note": 74, "velocity": 118, "channel": 0}, {"type": "note_off", "time": 53, "note": 74, "velocity": 118, "channel": 0}, {"type": "note_on", "time": 15, "note": 74, "velocity": 123, "channel": 0}, {"type": "note_off", "time": 53, "note": 74, "velocity": 123, "channel": 0}, {"type": "note_on", "time": 0, "note": 72, "velocity": 121, "channel": 0}, {"type": "note_off", "time": 243, "note": 72, "velocity": 121, "channel": 0}, {"type": "note_on", "time": 52, "note": 70, "velocity": 112, "channel": 0}, {"type": "note_off", "time": 72, "note": 70, "velocity": 112, "channel": 0}, {"type": "note_on", "time": 0, "note": 68, "velocity": 115, "channel": 0}, {"type": "note_off", "time": 83, "note": 68, "velocity": 115, "channel": 0}, {"type": "note_on", "time": 4, "note": 64, "velocity": 108, "channel": 0}, {"type": "note_off", "time": 83, "note": 64, "velocity": 108, "channel": 0}, {"type": "note_on", "time": 164, "note": 67, "velocity": 100, "channel": 0}, {"type": "note_off", "time": 64, "note": 67, "velocity": 100, "channel": 0}, {"type": "note_on", "time": 77, "note": 64, "velocity": 93, "channel": 0}, {"type": "note_off", "time": 74, "note": 64, "velocity": 93, "channel": 0}, {"type": "note_on", "time": 7, "note": 65, "velocity": 93, "channel": 0}, {"type": "note_off", "time": 90, "note": 65, "velocity": 93, "channel": 0}, {"type": "note_on", "time": 23, "note": 67, "velocity": 108, "channel": 0}, {"type": "note_off", "time": 79, "note": 67, "velocity": 108, "channel": 0}, {"type": "note_on", "time": 3, "note": 68, "velocity": 102, "channel": 0}, {"type": "note_off", "time": 90, "note": 68, "velocity": 102, "channel": 0}, {"type": "note_on", "time": 11, "note": 72, "velocity": 112, "channel": 0}, {"type": "note_off", "time": 69, "note": 72, "velocity": 112, "channel": 0}, {"type": "note_on", "time": 894, "note": 64, "velocity": 92, "channel": 0}, {"type": "note_off", "time": 34, "note": 64, "velocity": 92, "channel": 0}, {"type": "note_on", "time": 0, "note": 65, "velocity": 114, "channel": 0}, {"type": "note_off", "time": 137, "note": 65, "velocity": 114, "channel": 0}, {"type": "note_on", "time": 0, "note": 67, "velocity": 106, "channel": 0}, {"type": "note_on", "time": 124, "note": 69, "velocity": 104, "channel": 0}, {"type": "note_off", "time": 0, "note": 67, "velocity": 106, "channel": 0}, {"type": "note_off", "time": 60, "note": 69, "velocity": 104, "channel": 0}, {"type": "note_on", "time": 0, "note": 70, "velocity": 100, "channel": 0}, {"type": "note_off", "time": 102, "note": 70, "velocity": 100, "channel": 0}, {"type": "note_on", "time": 1, "note": 72, "velocity": 122, "channel": 0}, {"type": "note_off", "time": 109, "note": 72, "velocity": 122, "channel": 0}, {"type": "note_on", "time": 6, "note": 73, "velocity": 111, "channel": 0}, {"type": "note_off", "time": 66, "note": 73, "velocity": 111, "channel": 0}, {"type": "note_on", "time": 0, "note": 75, "velocity": 117, "channel": 0}, {"type": "note_off", "time": 115, "note": 75, "velocity": 117, "channel": 0}, {"type": "note_on", "time": 3, "note": 71, "velocity": 123, "channel": 0}, {"type": "note_off", "time": 34, "note": 71, "velocity": 123, "channel": 0}, {"type": "note_on", "time": 0, "note": 72, "velocity": 122, "channel": 0}, {"type": "note_off", "time": 244, "note": 72, "velocity": 122, "channel": 0}, {"type": "note_on", "time": 0, "note": 73, "velocity": 117, "channel": 0}, {"type": "note_off", "time": 365, "note": 73, "velocity": 117, "channel": 0}, {"type": "note_on", "time": 3, "note": 69, "velocity": 104, "channel": 0}, {"type": "note_off", "time": 377, "note": 69, "velocity": 104, "channel": 0}, {"type": "note_on", "time": 15, "note": 70, "velocity": 113, "channel": 0}, {"type": "note_off", "time": 346, "note": 70, "velocity": 113, "channel": 0}, {"type": "note_on", "time": 230, "note": 70, "velocity": 105, "channel": 0}, {"type": "note_off", "time": 167, "note": 70, "velocity": 105, "channel": 0}, {"type": "note_on", "time": 6, "note": 72, "velocity": 121, "channel": 0}, {"type": "note_off", "time": 197, "note": 72, "velocity": 121, "channel": 0}, {"type": "note_on", "time": 4, "note": 73, "velocity": 113, "channel": 0}, {"type": "note_off", "time": 123, "note": 73, "velocity": 113, "channel": 0}, {"type": "note_on", "time": 1141, "note": 64, "velocity": 102, "channel": 0}, {"type": "note_off", "time": 42, "note": 64, "velocity": 102, "channel": 0}, {"type": "note_on", "time": 28, "note": 65, "velocity": 102, "channel": 0}, {"type": "note_off", "time": 74, "note": 65, "velocity": 102, "channel": 0}, {"type": "note_on", "time": 12, "note": 67, "velocity": 111, "channel": 0}, {"type": "note_off", "time": 79, "note": 67, "velocity": 111, "channel": 0}, {"type": "note_on", "time": 11, "note": 69, "velocity": 107, "channel": 0}, {"type": "note_off", "time": 72, "note": 69, "velocity": 107, "channel": 0}, {"type": "note_on", "time": 3, "note": 71, "velocity": 113, "channel": 0}, {"type": "note_off", "time": 109, "note": 71, "velocity": 113, "channel": 0}, {"type": "note_on", "time": 1, "note": 72, "velocity": 107, "channel": 0}, {"type": "note_off", "time": 102, "note": 72, "velocity": 107, "channel": 0}, {"type": "note_on", "time": 14, "note": 73, "velocity": 118, "channel": 0}, {"type": "note_off", "time": 66, "note": 73, "velocity": 118, "channel": 0}, {"type": "note_on", "time": 12, "note": 74, "velocity": 118, "channel": 0}, {"type": "note_off", "time": 61, "note": 74, "velocity": 118, "channel": 0}, {"type": "note_on", "time": 18, "note": 76, "velocity": 115, "channel": 0}, {"type": "note_off", "time": 91, "note": 76, "velocity": 115, "channel": 0}, {"type": "note_on", "time": 0, "note": 74, "velocity": 115, "channel": 0}, {"type": "note_off", "time": 101, "note": 74, "velocity": 115, "channel": 0}, {"type": "note_on", "time": 0, "note": 72, "velocity": 116, "channel": 0}, {"type": "note_off", "time": 93, "note": 72, "velocity": 116, "channel": 0}, {"type": "note_on", "time": 0, "note": 71, "velocity": 115, "channel": 0}, {"type": "note_off", "time": 199, "note": 71, "velocity": 115, "channel": 0}, {"type": "note_on", "time": 0, "note": 67, "velocity": 103, "channel": 0}, {"type": "note_off", "time": 309, "note": 67, "velocity": 103, "channel": 0}, {"type": "note_on", "time": 734, "note": 70, "velocity": 117, "channel": 0}, {"type": "note_off", "time": 71, "note": 70, "velocity": 117, "channel": 0}, {"type": "note_on", "time": 0, "note": 66, "velocity": 97, "channel": 0}, {"type": "note_off", "time": 61, "note": 66, "velocity": 97, "channel": 0}, {"type": "note_on", "time": 143, "note": 70, "velocity": 112, "channel": 0}, {"type": "note_off", "time": 199, "note": 70, "velocity": 112, "channel": 0}, {"type": "note_on", "time": 23, "note": 66, "velocity": 107, "channel": 0}, {"type": "note_off", "time": 71, "note": 66, "velocity": 107, "channel": 0}, {"type": "note_on", "time": 695, "note": 65, "velocity": 110, "channel": 0}, {"type": "note_off", "time": 75, "note": 65, "velocity": 110, "channel": 0}, {"type": "note_on", "time": 9, "note": 67, "velocity": 115, "channel": 0}, {"type": "note_off", "time": 86, "note": 67, "velocity": 115, "channel": 0}, {"type": "note_on", "time": 12, "note": 69, "velocity": 109, "channel": 0}, {"type": "note_off", "time": 94, "note": 69, "velocity": 109, "channel": 0}, {"type": "note_on", "time": 0, "note": 70, "velocity": 115, "channel": 0}, {"type": "note_off", "time": 75, "note": 70, "velocity": 115, "channel": 0}, {"type": "note_on", "time": 11, "note": 72, "velocity": 109, "channel": 0}, {"type": "note_off", "time": 97, "note": 72, "velocity": 109, "channel": 0}, {"type": "note_on", "time": 0, "note": 74, "velocity": 122, "channel": 0}, {"type": "note_off", "time": 102, "note": 74, "velocity": 122, "channel": 0}, {"type": "note_on", "time": 4, "note": 72, "velocity": 119, "channel": 0}, {"type": "note_off", "time": 254, "note": 72, "velocity": 119, "channel": 0}, {"type": "note_on", "time": 47, "note": 70, "velocity": 116, "channel": 0}, {"type": "note_off", "time": 66, "note": 70, "velocity": 116, "channel": 0}, {"type": "note_on", "time": 4, "note": 69, "velocity": 113, "channel": 0}, {"type": "note_off", "time": 183, "note": 69, "velocity": 113, "channel": 0}, {"type": "note_on", "time": 0, "note": 65, "velocity": 110, "channel": 0}, {"type": "note_off", "time": 431, "note": 65, "velocity": 110, "channel": 0}, {"type": "note_on", "time": 365, "note": 68, "velocity": 118, "channel": 0}, {"type": "note_off", "time": 85, "note": 68, "velocity": 118, "channel": 0}, {"type": "note_on", "time": 18, "note": 65, "velocity": 102, "channel": 0}, {"type": "note_off", "time": 42, "note": 65, "velocity": 102, "channel": 0}, {"type": "note_on", "time": 45, "note": 67, "velocity": 109, "channel": 0}, {"type": "note_off", "time": 83, "note": 67, "velocity": 109, "channel": 0}, {"type": "note_on", "time": 9, "note": 65, "velocity": 113, "channel": 0}, {"type": "note_off", "time": 79, "note": 65, "velocity": 113, "channel": 0}, {"type": "note_on", "time": 6, "note": 63, "velocity": 99, "channel": 0}, {"type": "note_off", "time": 99, "note": 63, "velocity": 99, "channel": 0}, {"type": "note_on", "time": 4, "note": 62, "velocity": 109, "channel": 0}, {"type": "note_off", "time": 79, "note": 62, "velocity": 109, "channel": 0}, {"type": "note_on", "time": 12, "note": 61, "velocity": 107, "channel": 0}, {"type": "note_off", "time": 77, "note": 61, "velocity": 107, "channel": 0}, {"type": "note_on", "time": 15, "note": 63, "velocity": 99, "channel": 0}, {"type": "note_off", "time": 79, "note": 63, "velocity": 99, "channel": 0}, {"type": "note_on", "time": 14, "note": 65, "velocity": 100, "channel": 0}, {"type": "note_off", "time": 82, "note": 65, "velocity": 100, "channel": 0}, {"type": "note_on", "time": 30, "note": 68, "velocity": 114, "channel": 0}, {"type": "note_off", "time": 56, "note": 68, "velocity": 114, "channel": 0}, {"type": "note_on", "time": 48, "note": 72, "velocity": 114, "channel": 0}, {"type": "note_off", "time": 94, "note": 72, "velocity": 114, "channel": 0}, {"type": "note_on", "time": 252, "note": 70, "velocity": 103, "channel": 0}, {"type": "note_off", "time": 305, "note": 70, "velocity": 103, "channel": 0}, {"type": "note_on", "time": 9, "note": 67, "velocity": 107, "channel": 0}, {"type": "note_off", "time": 110, "note": 67, "velocity": 107, "channel": 0}, {"type": "note_on", "time": 0, "note": 68, "velocity": 98, "channel": 0}, {"type": "note_off", "time": 93, "note": 68, "velocity": 98, "channel": 0}, {"type": "note_on", "time": 0, "note": 70, "velocity": 90, "channel": 0}, {"type": "note_off", "time": 93, "note": 70, "velocity": 90, "channel": 0}, {"type": "note_on", "time": 7, "note": 72, "velocity": 121, "channel": 0}, {"type": "note_on", "time": 85, "note": 73, "velocity": 120, "channel": 0}, {"type": "note_off", "time": 0, "note": 72, "velocity": 121, "channel": 0}, {"type": "note_off", "time": 99, "note": 73, "velocity": 120, "channel": 0}, {"type": "note_on", "time": 11, "note": 72, "velocity": 102, "channel": 0}, {"type": "note_off", "time": 80, "note": 72, "velocity": 102, "channel": 0}, {"type": "note_on", "time": 1, "note": 70, "velocity": 111, "channel": 0}, {"type": "note_off", "time": 88, "note": 70, "velocity": 111, "channel": 0}, {"type": "note_on", "time": 7, "note": 68, "velocity": 107, "channel": 0}, {"type": "note_off", "time": 60, "note": 68, "velocity": 107, "channel": 0}, {"type": "note_on", "time": 7, "note": 67, "velocity": 104, "channel": 0}, {"type": "note_off", "time": 79, "note": 67, "velocity": 104, "channel": 0}, {"type": "note_on", "time": 20, "note": 64, "velocity": 112, "channel": 0}, {"type": "note_off", "time": 180, "note": 64, "velocity": 112, "channel": 0}, {"type": "note_on", "time": 0, "note": 60, "velocity": 95, "channel": 0}, {"type": "note_off", "time": 140, "note": 60, "velocity": 95, "channel": 0}, {"type": "note_on", "time": 65, "note": 65, "velocity": 107, "channel": 0}, {"type": "note_off", "time": 308, "note": 65, "velocity": 107, "channel": 0}, {"type": "note_on", "time": 11, "note": 72, "velocity": 118, "channel": 0}, {"type": "note_off", "time": 85, "note": 72, "velocity": 118, "channel": 0}, {"type": "note_on", "time": 371, "note": 64, "velocity": 108, "channel": 0}, {"type": "note_off", "time": 161, "note": 64, "velocity": 108, "channel": 0}, {"type": "note_on", "time": 34, "note": 64, "velocity": 107, "channel": 0}, {"type": "note_off", "time": 66, "note": 64, "velocity": 107, "channel": 0}, {"type": "note_on", "time": 26, "note": 72, "velocity": 121, "channel": 0}, {"type": "note_off", "time": 86, "note": 72, "velocity": 121, "channel": 0}, {"type": "note_on", "time": 387, "note": 72, "velocity": 10, "channel": 0}, {"type": "note_off", "time": 77, "note": 72, "velocity": 10, "channel": 0}, {"type": "note_on", "time": 120, "note": 72, "velocity": 111, "channel": 0}, {"type": "note_off", "time": 85, "note": 72, "velocity": 111, "channel": 0}, {"type": "note_on", "time": 99, "note": 72, "velocity": 115, "channel": 0}, {"type": "note_off", "time": 305, "note": 72, "velocity": 115, "channel": 0}, {"type": "note_on", "time": 17, "note": 73, "velocity": 125, "channel": 0}, {"type": "note_off", "time": 85, "note": 73, "velocity": 125, "channel": 0}, {"type": "note_on", "time": 11, "note": 72, "velocity": 116, "channel": 0}, {"type": "note_off", "time": 90, "note": 72, "velocity": 116, "channel": 0}, {"type": "note_on", "time": 0, "note": 70, "velocity": 117, "channel": 0}, {"type": "note_off", "time": 71, "note": 70, "velocity": 117, "channel": 0}, {"type": "note_on", "time": 1, "note": 68, "velocity": 119, "channel": 0}, {"type": "note_off", "time": 82, "note": 68, "velocity": 119, "channel": 0}, {"type": "note_on", "time": 663, "note": 73, "velocity": 124, "channel": 0}, {"type": "note_off", "time": 77, "note": 73, "velocity": 124, "channel": 0}, {"type": "note_on", "time": 110, "note": 79, "velocity": 124, "channel": 0}, {"type": "note_off", "time": 86, "note": 79, "velocity": 124, "channel": 0}, {"type": "note_on", "time": 143, "note": 72, "velocity": 108, "channel": 0}, {"type": "note_off", "time": 74, "note": 72, "velocity": 108, "channel": 0}, {"type": "note_on", "time": 79, "note": 75, "velocity": 118, "channel": 0}, {"type": "note_off", "time": 278, "note": 75, "velocity": 118, "channel": 0}, {"type": "note_on", "time": 61, "note": 73, "velocity": 102, "channel": 0}, {"type": "note_off", "time": 72, "note": 73, "velocity": 102, "channel": 0}, {"type": "note_on", "time": 71, "note": 63, "velocity": 105, "channel": 0}, {"type": "note_off", "time": 53, "note": 63, "velocity": 105, "channel": 0}, {"type": "note_on", "time": 17, "note": 65, "velocity": 106, "channel": 0}, {"type": "note_off", "time": 104, "note": 65, "velocity": 106, "channel": 0}, {"type": "note_on", "time": 97, "note": 72, "velocity": 99, "channel": 0}, {"type": "note_off", "time": 99, "note": 72, "velocity": 99, "channel": 0}, {"type": "note_on", "time": 110, "note": 72, "velocity": 113, "channel": 0}, {"type": "note_off", "time": 112, "note": 72, "velocity": 113, "channel": 0}, {"type": "note_on", "time": 56, "note": 75, "velocity": 117, "channel": 0}, {"type": "note_off", "time": 260, "note": 75, "velocity": 117, "channel": 0}, {"type": "note_on", "time": 58, "note": 72, "velocity": 115, "channel": 0}, {"type": "note_on", "time": 90, "note": 73, "velocity": 120, "channel": 0}, {"type": "note_off", "time": 0, "note": 72, "velocity": 115, "channel": 0}, {"type": "note_off", "time": 97, "note": 73, "velocity": 120, "channel": 0}, {"type": "note_on", "time": 14, "note": 65, "velocity": 99, "channel": 0}, {"type": "note_off", "time": 71, "note": 65, "velocity": 99, "channel": 0}, {"type": "note_on", "time": 134, "note": 72, "velocity": 117, "channel": 0}, {"type": "note_off", "time": 99, "note": 72, "velocity": 117, "channel": 0}, {"type": "note_on", "time": 97, "note": 70, "velocity": 117, "channel": 0}, {"type": "note_off", "time": 82, "note": 70, "velocity": 117, "channel": 0}, {"type": "note_on", "time": 802, "note": 61, "velocity": 86, "channel": 0}, {"type": "note_off", "time": 66, "note": 61, "velocity": 86, "channel": 0}, {"type": "note_on", "time": 0, "note": 63, "velocity": 109, "channel": 0}, {"type": "note_off", "time": 80, "note": 63, "velocity": 109, "channel": 0}, {"type": "note_on", "time": 0, "note": 65, "velocity": 114, "channel": 0}, {"type": "note_off", "time": 93, "note": 65, "velocity": 114, "channel": 0}, {"type": "note_on", "time": 3, "note": 67, "velocity": 122, "channel": 0}, {"type": "note_off", "time": 91, "note": 67, "velocity": 122, "channel": 0}, {"type": "note_on", "time": 3, "note": 68, "velocity": 114, "channel": 0}, {"type": "note_off", "time": 88, "note": 68, "velocity": 114, "channel": 0}, {"type": "note_on", "time": 7, "note": 70, "velocity": 107, "channel": 0}, {"type": "note_off", "time": 101, "note": 70, "velocity": 107, "channel": 0}, {"type": "note_on", "time": 4, "note": 71, "velocity": 119, "channel": 0}, {"type": "note_off", "time": 75, "note": 71, "velocity": 119, "channel": 0}, {"type": "note_on", "time": 7, "note": 72, "velocity": 111, "channel": 0}, {"type": "note_off", "time": 96, "note": 72, "velocity": 111, "channel": 0}, {"type": "note_on", "time": 6, "note": 73, "velocity": 125, "channel": 0}, {"type": "note_off", "time": 99, "note": 73, "velocity": 125, "channel": 0}, {"type": "note_on", "time": 11, "note": 74, "velocity": 123, "channel": 0}, {"type": "note_off", "time": 79, "note": 74, "velocity": 123, "channel": 0}, {"type": "note_on", "time": 3, "note": 75, "velocity": 114, "channel": 0}, {"type": "note_off", "time": 30, "note": 75, "velocity": 114, "channel": 0}, {"type": "note_on", "time": 14, "note": 72, "velocity": 104, "channel": 0}, {"type": "note_off", "time": 44, "note": 72, "velocity": 104, "channel": 0}, {"type": "note_on", "time": 17, "note": 72, "velocity": 110, "channel": 0}, {"type": "note_off", "time": 86, "note": 72, "velocity": 110, "channel": 0}, {"type": "note_on", "time": 3, "note": 73, "velocity": 121, "channel": 0}, {"type": "note_off", "time": 61, "note": 73, "velocity": 121, "channel": 0}, {"type": "note_on", "time": 3, "note": 74, "velocity": 115, "channel": 0}, {"type": "note_off", "time": 52, "note": 74, "velocity": 115, "channel": 0}, {"type": "note_on", "time": 1, "note": 73, "velocity": 121, "channel": 0}, {"type": "note_off", "time": 75, "note": 73, "velocity": 121, "channel": 0}, {"type": "note_on", "time": 4, "note": 72, "velocity": 108, "channel": 0}, {"type": "note_off", "time": 109, "note": 72, "velocity": 108, "channel": 0}, {"type": "note_on", "time": 1, "note": 69, "velocity": 117, "channel": 0}, {"type": "note_off", "time": 82, "note": 69, "velocity": 117, "channel": 0}, {"type": "note_on", "time": 189, "note": 70, "velocity": 110, "channel": 0}, {"type": "note_off", "time": 271, "note": 70, "velocity": 110, "channel": 0}, {"type": "note_on", "time": 12, "note": 74, "velocity": 118, "channel": 0}, {"type": "note_off", "time": 85, "note": 74, "velocity": 118, "channel": 0}, {"type": "note_on", "time": 385, "note": 71, "velocity": 121, "channel": 0}, {"type": "note_off", "time": 82, "note": 71, "velocity": 121, "channel": 0}, {"type": "note_on", "time": 3, "note": 72, "velocity": 121, "channel": 0}, {"type": "note_off", "time": 96, "note": 72, "velocity": 121, "channel": 0}, {"type": "note_on", "time": 115, "note": 68, "velocity": 116, "channel": 0}, {"type": "note_off", "time": 80, "note": 68, "velocity": 116, "channel": 0}, {"type": "note_on", "time": 113, "note": 65, "velocity": 95, "channel": 0}, {"type": "note_off", "time": 77, "note": 65, "velocity": 95, "channel": 0}, {"type": "note_on", "time": 110, "note": 63, "velocity": 115, "channel": 0}, {"type": "note_off", "time": 52, "note": 63, "velocity": 115, "channel": 0}, {"type": "note_on", "time": 17, "note": 61, "velocity": 92, "channel": 0}, {"type": "note_off", "time": 90, "note": 61, "velocity": 92, "channel": 0}, {"type": "note_on", "time": 18, "note": 63, "velocity": 109, "channel": 0}, {"type": "note_off", "time": 72, "note": 63, "velocity": 109, "channel": 0}, {"type": "note_on", "time": 31, "note": 65, "velocity": 117, "channel": 0}, {"type": "note_off", "time": 93, "note": 65, "velocity": 117, "channel": 0}, {"type": "note_on", "time": 0, "note": 68, "velocity": 118, "channel": 0}, {"type": "note_off", "time": 75, "note": 68, "velocity": 118, "channel": 0}, {"type": "note_on", "time": 0, "note": 72, "velocity": 117, "channel": 0}, {"type": "note_off", "time": 93, "note": 72, "velocity": 117, "channel": 0}, {"type": "note_on", "time": 0, "note": 71, "velocity": 114, "channel": 0}, {"type": "note_on", "time": 96, "note": 70, "velocity": 112, "channel": 0}, {"type": "note_off", "time": 0, "note": 71, "velocity": 114, "channel": 0}, {"type": "note_off", "time": 93, "note": 70, "velocity": 112, "channel": 0}, {"type": "note_on", "time": 26, "note": 69, "velocity": 118, "channel": 0}, {"type": "note_off", "time": 80, "note": 69, "velocity": 118, "channel": 0}, {"type": "note_on", "time": 0, "note": 68, "velocity": 117, "channel": 0}, {"type": "note_off", "time": 93, "note": 68, "velocity": 117, "channel": 0}, {"type": "note_on", "time": 1, "note": 63, "velocity": 101, "channel": 0}, {"type": "note_off", "time": 105, "note": 63, "velocity": 101, "channel": 0}, {"type": "note_on", "time": 183, "note": 63, "velocity": 113, "channel": 0}, {"type": "note_off", "time": 96, "note": 63, "velocity": 113, "channel": 0}, {"type": "note_on", "time": 583, "note": 62, "velocity": 107, "channel": 0}, {"type": "note_off", "time": 77, "note": 62, "velocity": 107, "channel": 0}, {"type": "note_on", "time": 1, "note": 64, "velocity": 121, "channel": 0}, {"type": "note_off", "time": 120, "note": 64, "velocity": 121, "channel": 0}, {"type": "note_on", "time": 0, "note": 65, "velocity": 115, "channel": 0}, {"type": "note_off", "time": 75, "note": 65, "velocity": 115, "channel": 0}, {"type": "note_on", "time": 3, "note": 67, "velocity": 121, "channel": 0}, {"type": "note_on", "time": 134, "note": 69, "velocity": 113, "channel": 0}, {"type": "note_off", "time": 0, "note": 67, "velocity": 121, "channel": 0}, {"type": "note_off", "time": 229, "note": 69, "velocity": 113, "channel": 0}, {"type": "note_on", "time": 0, "note": 70, "velocity": 120, "channel": 0}, {"type": "note_off", "time": 194, "note": 70, "velocity": 120, "channel": 0}, {"type": "note_on", "time": 0, "note": 68, "velocity": 122, "channel": 0}, {"type": "note_off", "time": 414, "note": 68, "velocity": 122, "channel": 0}, {"type": "note_on", "time": 3, "note": 67, "velocity": 117, "channel": 0}, {"type": "note_off", "time": 161, "note": 67, "velocity": 117, "channel": 0}, {"type": "note_on", "time": 1, "note": 64, "velocity": 116, "channel": 0}, {"type": "note_off", "time": 199, "note": 64, "velocity": 116, "channel": 0}, {"type": "note_on", "time": 0, "note": 64, "velocity": 117, "channel": 0}, {"type": "note_off", "time": 205, "note": 64, "velocity": 117, "channel": 0}, {"type": "note_on", "time": 1, "note": 65, "velocity": 117, "channel": 0}, {"type": "note_off", "time": 189, "note": 65, "velocity": 117, "channel": 0}, {"type": "note_on", "time": 192, "note": 67, "velocity": 121, "channel": 0}, {"type": "note_off", "time": 37, "note": 67, "velocity": 121, "channel": 0}, {"type": "note_on", "time": 0, "note": 68, "velocity": 125, "channel": 0}, {"type": "note_off", "time": 186, "note": 68, "velocity": 125, "channel": 0}, {"type": "note_on", "time": 0, "note": 70, "velocity": 116, "channel": 0}, {"type": "note_off", "time": 289, "note": 70, "velocity": 116, "channel": 0}, {"type": "note_on", "time": 6, "note": 68, "velocity": 116, "channel": 0}, {"type": "note_off", "time": 243, "note": 68, "velocity": 116, "channel": 0}, {"type": "note_on", "time": 7, "note": 65, "velocity": 108, "channel": 0}, {"type": "note_off", "time": 307, "note": 65, "velocity": 108, "channel": 0}, {"type": "note_on", "time": 450, "note": 72, "velocity": 120, "channel": 0}, {"type": "note_off", "time": 135, "note": 72, "velocity": 120, "channel": 0}, {"type": "note_on", "time": 4, "note": 73, "velocity": 122, "channel": 0}, {"type": "note_off", "time": 145, "note": 73, "velocity": 122, "channel": 0}, {"type": "note_on", "time": 7, "note": 72, "velocity": 123, "channel": 0}, {"type": "note_off", "time": 211, "note": 72, "velocity": 123, "channel": 0}, {"type": "note_on", "time": 0, "note": 69, "velocity": 120, "channel": 0}, {"type": "note_off", "time": 94, "note": 69, "velocity": 120, "channel": 0}, {"type": "note_on", "time": 6, "note": 70, "velocity": 114, "channel": 0}, {"type": "note_off", "time": 96, "note": 70, "velocity": 114, "channel": 0}, {"type": "note_on", "time": 6, "note": 65, "velocity": 113, "channel": 0}, {"type": "note_off", "time": 82, "note": 65, "velocity": 113, "channel": 0}, {"type": "note_on", "time": 12, "note": 61, "velocity": 100, "channel": 0}, {"type": "note_off", "time": 94, "note": 61, "velocity": 100, "channel": 0}, {"type": "note_on", "time": 1, "note": 63, "velocity": 103, "channel": 0}, {"type": "note_off", "time": 110, "note": 63, "velocity": 103, "channel": 0}, {"type": "note_on", "time": 11, "note": 60, "velocity": 106, "channel": 0}, {"type": "note_off", "time": 142, "note": 60, "velocity": 106, "channel": 0}, {"type": "note_on", "time": 9, "note": 57, "velocity": 96, "channel": 0}, {"type": "note_off", "time": 116, "note": 57, "velocity": 96, "channel": 0}, {"type": "note_on", "time": 4, "note": 58, "velocity": 93, "channel": 0}, {"type": "note_off", "time": 86, "note": 58, "velocity": 93, "channel": 0}, {"type": "note_on", "time": 22, "note": 65, "velocity": 113, "channel": 0}, {"type": "note_off", "time": 287, "note": 65, "velocity": 113, "channel": 0}, {"type": "note_on", "time": 1340, "note": 63, "velocity": 114, "channel": 0}, {"type": "note_off", "time": 104, "note": 63, "velocity": 114, "channel": 0}, {"type": "note_on", "time": 0, "note": 65, "velocity": 116, "channel": 0}, {"type": "note_off", "time": 82, "note": 65, "velocity": 116, "channel": 0}, {"type": "note_on", "time": 3, "note": 67, "velocity": 122, "channel": 0}, {"type": "note_on", "time": 90, "note": 68, "velocity": 109, "channel": 0}, {"type": "note_off", "time": 0, "note": 67, "velocity": 122, "channel": 0}, {"type": "note_off", "time": 93, "note": 68, "velocity": 109, "channel": 0}, {"type": "note_on", "time": 0, "note": 70, "velocity": 107, "channel": 0}, {"type": "note_off", "time": 93, "note": 70, "velocity": 107, "channel": 0}, {"type": "note_on", "time": 6, "note": 72, "velocity": 121, "channel": 0}, {"type": "note_off", "time": 99, "note": 72, "velocity": 121, "channel": 0}, {"type": "note_on", "time": 109, "note": 72, "velocity": 121, "channel": 0}, {"type": "note_off", "time": 67, "note": 72, "velocity": 121, "channel": 0}, {"type": "note_on", "time": 3, "note": 73, "velocity": 112, "channel": 0}, {"type": "note_off", "time": 97, "note": 73, "velocity": 112, "channel": 0}, {"type": "note_on", "time": 9, "note": 71, "velocity": 117, "channel": 0}, {"type": "note_off", "time": 94, "note": 71, "velocity": 117, "channel": 0}, {"type": "note_on", "time": 3, "note": 70, "velocity": 120, "channel": 0}, {"type": "note_off", "time": 75, "note": 70, "velocity": 120, "channel": 0}, {"type": "note_on", "time": 4, "note": 68, "velocity": 108, "channel": 0}, {"type": "note_off", "time": 96, "note": 68, "velocity": 108, "channel": 0}, {"type": "note_on", "time": 14, "note": 65, "velocity": 117, "channel": 0}, {"type": "note_on", "time": 91, "note": 63, "velocity": 111, "channel": 0}, {"type": "note_off", "time": 0, "note": 65, "velocity": 117, "channel": 0}, {"type": "note_off", "time": 91, "note": 63, "velocity": 111, "channel": 0}, {"type": "note_on", "time": 0, "note": 62, "velocity": 99, "channel": 0}, {"type": "note_off", "time": 69, "note": 62, "velocity": 99, "channel": 0}, {"type": "note_on", "time": 3, "note": 61, "velocity": 118, "channel": 0}, {"type": "note_off", "time": 67, "note": 61, "velocity": 118, "channel": 0}, {"type": "note_on", "time": 12, "note": 60, "velocity": 110, "channel": 0}, {"type": "note_off", "time": 49, "note": 60, "velocity": 110, "channel": 0}, {"type": "note_on", "time": 1503, "note": 69, "velocity": 123, "channel": 0}, {"type": "note_off", "time": 90, "note": 69, "velocity": 123, "channel": 0}, {"type": "note_on", "time": 1, "note": 70, "velocity": 121, "channel": 0}, {"type": "note_off", "time": 175, "note": 70, "velocity": 121, "channel": 0}, {"type": "note_on", "time": 12, "note": 66, "velocity": 98, "channel": 0}, {"type": "note_off", "time": 320, "note": 66, "velocity": 98, "channel": 0}, {"type": "note_on", "time": 154, "note": 63, "velocity": 100, "channel": 0}, {"type": "note_off", "time": 86, "note": 63, "velocity": 100, "channel": 0}, {"type": "note_on", "time": 1, "note": 65, "velocity": 116, "channel": 0}, {"type": "note_off", "time": 109, "note": 65, "velocity": 116, "channel": 0}, {"type": "note_on", "time": 7, "note": 67, "velocity": 117, "channel": 0}, {"type": "note_off", "time": 107, "note": 67, "velocity": 117, "channel": 0}, {"type": "note_on", "time": 0, "note": 69, "velocity": 114, "channel": 0}, {"type": "note_off", "time": 93, "note": 69, "velocity": 114, "channel": 0}, {"type": "note_on", "time": 0, "note": 73, "velocity": 114, "channel": 0}, {"type": "note_off", "time": 91, "note": 73, "velocity": 114, "channel": 0}, {"type": "note_on", "time": 1, "note": 72, "velocity": 123, "channel": 0}, {"type": "note_off", "time": 85, "note": 72, "velocity": 123, "channel": 0}, {"type": "note_on", "time": 18, "note": 68, "velocity": 105, "channel": 0}, {"type": "note_off", "time": 72, "note": 68, "velocity": 105, "channel": 0}, {"type": "note_on", "time": 4, "note": 70, "velocity": 115, "channel": 0}, {"type": "note_off", "time": 79, "note": 70, "velocity": 115, "channel": 0}, {"type": "note_on", "time": 4, "note": 69, "velocity": 123, "channel": 0}, {"type": "note_off", "time": 90, "note": 69, "velocity": 123, "channel": 0}, {"type": "note_on", "time": 0, "note": 67, "velocity": 112, "channel": 0}, {"type": "note_off", "time": 96, "note": 67, "velocity": 112, "channel": 0}, {"type": "note_on", "time": 22, "note": 65, "velocity": 98, "channel": 0}, {"type": "note_off", "time": 88, "note": 65, "velocity": 98, "channel": 0}, {"type": "note_on", "time": 14, "note": 69, "velocity": 119, "channel": 0}, {"type": "note_off", "time": 158, "note": 69, "velocity": 119, "channel": 0}, {"type": "note_on", "time": 14, "note": 67, "velocity": 119, "channel": 0}, {"type": "note_off", "time": 172, "note": 67, "velocity": 119, "channel": 0}, {"type": "note_on", "time": 9, "note": 65, "velocity": 117, "channel": 0}, {"type": "note_off", "time": 177, "note": 65, "velocity": 117, "channel": 0}, {"type": "note_on", "time": 3, "note": 62, "velocity": 103, "channel": 0}, {"type": "note_off", "time": 177, "note": 62, "velocity": 103, "channel": 0}, {"type": "note_on", "time": 82, "note": 70, "velocity": 115, "channel": 0}, {"type": "note_off", "time": 67, "note": 70, "velocity": 115, "channel": 0}, {"type": "note_on", "time": 93, "note": 72, "velocity": 123, "channel": 0}, {"type": "note_off", "time": 110, "note": 72, "velocity": 123, "channel": 0}, {"type": "note_on", "time": 0, "note": 73, "velocity": 127, "channel": 0}, {"type": "note_off", "time": 74, "note": 73, "velocity": 127, "channel": 0}, {"type": "note_on", "time": 109, "note": 63, "velocity": 92, "channel": 0}, {"type": "note_off", "time": 23, "note": 63, "velocity": 92, "channel": 0}, {"type": "note_on", "time": 20, "note": 65, "velocity": 89, "channel": 0}, {"type": "note_off", "time": 90, "note": 65, "velocity": 89, "channel": 0}, {"type": "note_on", "time": 39, "note": 72, "velocity": 121, "channel": 0}, {"type": "note_off", "time": 86, "note": 72, "velocity": 121, "channel": 0}, {"type": "note_on", "time": 371, "note": 70, "velocity": 89, "channel": 0}, {"type": "note_off", "time": 104, "note": 70, "velocity": 89, "channel": 0}, {"type": "note_on", "time": 12, "note": 68, "velocity": 118, "channel": 0}, {"type": "note_off", "time": 79, "note": 68, "velocity": 118, "channel": 0}, {"type": "note_on", "time": 15, "note": 67, "velocity": 109, "channel": 0}, {"type": "note_off", "time": 83, "note": 67, "velocity": 109, "channel": 0}, {"type": "note_on", "time": 11, "note": 70, "velocity": 110, "channel": 0}, {"type": "note_off", "time": 97, "note": 70, "velocity": 110, "channel": 0}, {"type": "note_on", "time": 11, "note": 73, "velocity": 105, "channel": 0}, {"type": "note_off", "time": 85, "note": 73, "velocity": 105, "channel": 0}, {"type": "note_on", "time": 80, "note": 76, "velocity": 116, "channel": 0}, {"type": "note_off", "time": 107, "note": 76, "velocity": 116, "channel": 0}, {"type": "note_on", "time": 1, "note": 74, "velocity": 122, "channel": 0}, {"type": "note_off", "time": 85, "note": 74, "velocity": 122, "channel": 0}, {"type": "note_on", "time": 0, "note": 75, "velocity": 118, "channel": 0}, {"type": "note_off", "time": 104, "note": 75, "velocity": 118, "channel": 0}, {"type": "note_on", "time": 7, "note": 72, "velocity": 114, "channel": 0}, {"type": "note_off", "time": 94, "note": 72, "velocity": 114, "channel": 0}, {"type": "note_on", "time": 6, "note": 73, "velocity": 118, "channel": 0}, {"type": "note_off", "time": 164, "note": 73, "velocity": 118, "channel": 0}, {"type": "note_on", "time": 14, "note": 72, "velocity": 107, "channel": 0}, {"type": "note_off", "time": 112, "note": 72, "velocity": 107, "channel": 0}, {"type": "note_on", "time": 14, "note": 71, "velocity": 123, "channel": 0}, {"type": "note_off", "time": 77, "note": 71, "velocity": 123, "channel": 0}, {"type": "note_on", "time": 0, "note": 70, "velocity": 114, "channel": 0}, {"type": "note_off", "time": 79, "note": 70, "velocity": 114, "channel": 0}, {"type": "note_on", "time": 0, "note": 69, "velocity": 117, "channel": 0}, {"type": "note_off", "time": 93, "note": 69, "velocity": 117, "channel": 0}, {"type": "note_on", "time": 233, "note": 70, "velocity": 110, "channel": 0}, {"type": "note_on", "time": 72, "note": 72, "velocity": 115, "channel": 0}, {"type": "note_off", "time": 0, "note": 70, "velocity": 110, "channel": 0}, {"type": "note_off", "time": 112, "note": 72, "velocity": 115, "channel": 0}, {"type": "note_on", "time": 1, "note": 73, "velocity": 125, "channel": 0}, {"type": "note_off", "time": 161, "note": 73, "velocity": 125, "channel": 0}, {"type": "note_on", "time": 1, "note": 72, "velocity": 111, "channel": 0}, {"type": "note_off", "time": 110, "note": 72, "velocity": 111, "channel": 0}, {"type": "note_on", "time": 11, "note": 70, "velocity": 120, "channel": 0}, {"type": "note_off", "time": 77, "note": 70, "velocity": 120, "channel": 0}, {"type": "note_on", "time": 3, "note": 68, "velocity": 110, "channel": 0}, {"type": "note_off", "time": 129, "note": 68, "velocity": 110, "channel": 0}, {"type": "note_on", "time": 79, "note": 65, "velocity": 108, "channel": 0}, {"type": "note_off", "time": 298, "note": 65, "velocity": 108, "channel": 0}, {"type": "note_on", "time": 451, "note": 72, "velocity": 114, "channel": 0}, {"type": "note_off", "time": 83, "note": 72, "velocity": 114, "channel": 0}, {"type": "note_on", "time": 0, "note": 73, "velocity": 126, "channel": 0}, {"type": "note_off", "time": 90, "note": 73, "velocity": 126, "channel": 0}, {"type": "note_on", "time": 7, "note": 72, "velocity": 121, "channel": 0}, {"type": "note_off", "time": 262, "note": 72, "velocity": 121, "channel": 0}, {"type": "note_on", "time": 11, "note": 70, "velocity": 113, "channel": 0}, {"type": "note_off", "time": 82, "note": 70, "velocity": 113, "channel": 0}, {"type": "note_on", "time": 0, "note": 68, "velocity": 114, "channel": 0}, {"type": "note_off", "time": 101, "note": 68, "velocity": 114, "channel": 0}, {"type": "note_on", "time": 20, "note": 65, "velocity": 109, "channel": 0}, {"type": "note_off", "time": 77, "note": 65, "velocity": 109, "channel": 0}, {"type": "note_on", "time": 194, "note": 65, "velocity": 106, "channel": 0}, {"type": "note_off", "time": 199, "note": 65, "velocity": 106, "channel": 0}, {"type": "note_on", "time": 954, "note": 72, "velocity": 105, "channel": 0}, {"type": "note_off", "time": 74, "note": 72, "velocity": 105, "channel": 0}, {"type": "note_on", "time": 103, "note": 75, "velocity": 123, "channel": 0}, {"type": "note_off", "time": 213, "note": 75, "velocity": 123, "channel": 0}, {"type": "note_on", "time": 3, "note": 73, "velocity": 119, "channel": 0}, {"type": "note_off", "time": 175, "note": 73, "velocity": 119, "channel": 0}, {"type": "note_on", "time": 42, "note": 64, "velocity": 106, "channel": 0}, {"type": "note_off", "time": 131, "note": 64, "velocity": 106, "channel": 0}, {"type": "note_on", "time": 15, "note": 65, "velocity": 114, "channel": 0}, {"type": "note_off", "time": 248, "note": 65, "velocity": 114, "channel": 0}, {"type": "note_on", "time": 79, "note": 72, "velocity": 124, "channel": 0}, {"type": "note_off", "time": 112, "note": 72, "velocity": 124, "channel": 0}, {"type": "note_on", "time": 0, "note": 73, "velocity": 125, "channel": 0}, {"type": "note_off", "time": 260, "note": 73, "velocity": 125, "channel": 0}, {"type": "note_on", "time": 0, "note": 72, "velocity": 120, "channel": 0}, {"type": "note_off", "time": 124, "note": 72, "velocity": 120, "channel": 0}, {"type": "note_on", "time": 0, "note": 70, "velocity": 119, "channel": 0}, {"type": "note_off", "time": 96, "note": 70, "velocity": 119, "channel": 0}, {"type": "note_on", "time": 101, "note": 70, "velocity": 104, "channel": 0}, {"type": "note_off", "time": 300, "note": 70, "velocity": 104, "channel": 0}, {"type": "note_on", "time": 1131, "note": 72, "velocity": 119, "channel": 0}, {"type": "note_off", "time": 96, "note": 72, "velocity": 119, "channel": 0}, {"type": "note_on", "time": 128, "note": 72, "velocity": 123, "channel": 0}, {"type": "note_off", "time": 410, "note": 72, "velocity": 123, "channel": 0}, {"type": "note_on", "time": 3, "note": 72, "velocity": 117, "channel": 0}, {"type": "note_off", "time": 96, "note": 72, "velocity": 117, "channel": 0}, {"type": "note_on", "time": 77, "note": 75, "velocity": 122, "channel": 0}, {"type": "note_off", "time": 225, "note": 75, "velocity": 122, "channel": 0}, {"type": "note_on", "time": 0, "note": 72, "velocity": 120, "channel": 0}, {"type": "note_off", "time": 183, "note": 72, "velocity": 120, "channel": 0}, {"type": "note_on", "time": 0, "note": 70, "velocity": 115, "channel": 0}, {"type": "note_off", "time": 169, "note": 70, "velocity": 115, "channel": 0}, {"type": "note_on", "time": 0, "note": 63, "velocity": 103, "channel": 0}, {"type": "note_off", "time": 319, "note": 63, "velocity": 103, "channel": 0}, {"type": "note_on", "time": 1, "note": 63, "velocity": 97, "channel": 0}, {"type": "note_off", "time": 267, "note": 63, "velocity": 97, "channel": 0}, {"type": "note_on", "time": 137, "note": 66, "velocity": 110, "channel": 0}, {"type": "note_off", "time": 342, "note": 66, "velocity": 110, "channel": 0}, {"type": "note_on", "time": 1, "note": 65, "velocity": 101, "channel": 0}, {"type": "note_off", "time": 319, "note": 65, "velocity": 101, "channel": 0}, {"type": "note_on", "time": 401, "note": 61, "velocity": 94, "channel": 0}, {"type": "note_off", "time": 74, "note": 61, "velocity": 94, "channel": 0}, {"type": "note_on", "time": 0, "note": 63, "velocity": 98, "channel": 0}, {"type": "note_off", "time": 58, "note": 63, "velocity": 98, "channel": 0}, {"type": "note_on", "time": 9, "note": 65, "velocity": 112, "channel": 0}, {"type": "note_off", "time": 112, "note": 65, "velocity": 112, "channel": 0}, {"type": "note_on", "time": 7, "note": 67, "velocity": 118, "channel": 0}, {"type": "note_off", "time": 91, "note": 67, "velocity": 118, "channel": 0}, {"type": "note_on", "time": 6, "note": 68, "velocity": 119, "channel": 0}, {"type": "note_off", "time": 86, "note": 68, "velocity": 119, "channel": 0}, {"type": "note_on", "time": 0, "note": 70, "velocity": 117, "channel": 0}, {"type": "note_off", "time": 75, "note": 70, "velocity": 117, "channel": 0}, {"type": "note_on", "time": 0, "note": 72, "velocity": 109, "channel": 0}, {"type": "note_off", "time": 96, "note": 72, "velocity": 109, "channel": 0}, {"type": "note_on", "time": 11, "note": 73, "velocity": 123, "channel": 0}, {"type": "note_off", "time": 80, "note": 73, "velocity": 123, "channel": 0}, {"type": "note_on", "time": 0, "note": 72, "velocity": 116, "channel": 0}, {"type": "note_off", "time": 96, "note": 72, "velocity": 116, "channel": 0}, {"type": "note_on", "time": 4, "note": 71, "velocity": 119, "channel": 0}, {"type": "note_off", "time": 86, "note": 71, "velocity": 119, "channel": 0}, {"type": "note_on", "time": 6, "note": 70, "velocity": 105, "channel": 0}, {"type": "note_off", "time": 91, "note": 70, "velocity": 105, "channel": 0}, {"type": "note_on", "time": 1, "note": 69, "velocity": 116, "channel": 0}, {"type": "note_off", "time": 80, "note": 69, "velocity": 116, "channel": 0}, {"type": "note_on", "time": 0, "note": 68, "velocity": 114, "channel": 0}, {"type": "note_off", "time": 99, "note": 68, "velocity": 114, "channel": 0}, {"type": "note_on", "time": 37, "note": 63, "velocity": 99, "channel": 0}, {"type": "note_off", "time": 241, "note": 63, "velocity": 99, "channel": 0}, {"type": "note_on", "time": 311, "note": 60, "velocity": 100, "channel": 0}, {"type": "note_off", "time": 63, "note": 60, "velocity": 100, "channel": 0}, {"type": "note_on", "time": 36, "note": 63, "velocity": 106, "channel": 0}, {"type": "note_off", "time": 74, "note": 63, "velocity": 106, "channel": 0}, {"type": "note_on", "time": 0, "note": 65, "velocity": 109, "channel": 0}, {"type": "note_off", "time": 96, "note": 65, "velocity": 109, "channel": 0}, {"type": "note_on", "time": 0, "note": 67, "velocity": 123, "channel": 0}, {"type": "note_off", "time": 115, "note": 67, "velocity": 123, "channel": 0}, {"type": "note_on", "time": 0, "note": 68, "velocity": 107, "channel": 0}, {"type": "note_off", "time": 88, "note": 68, "velocity": 107, "channel": 0}, {"type": "note_on", "time": 0, "note": 70, "velocity": 122, "channel": 0}, {"type": "note_off", "time": 75, "note": 70, "velocity": 122, "channel": 0}, {"type": "note_on", "time": 0, "note": 68, "velocity": 117, "channel": 0}, {"type": "note_off", "time": 107, "note": 68, "velocity": 117, "channel": 0}, {"type": "note_on", "time": 1, "note": 67, "velocity": 116, "channel": 0}, {"type": "note_off", "time": 175, "note": 67, "velocity": 116, "channel": 0}, {"type": "note_on", "time": 15, "note": 64, "velocity": 113, "channel": 0}, {"type": "note_off", "time": 191, "note": 64, "velocity": 113, "channel": 0}, {"type": "note_on", "time": 4, "note": 65, "velocity": 113, "channel": 0}, {"type": "note_off", "time": 293, "note": 65, "velocity": 113, "channel": 0}, {"type": "end_of_track", "time": 0}]]}