{"ticks_per_beat": 192, "tracks": [[{"type": "track_name", "name": "Melody", "time": 0}, {"type": "set_tempo", "tempo": 500000, "time": 0}, {"type": "key_signature", "key": "C", "time": 0}, {"type": "time_signature", "numerator": 4, "denominator": 4, "clocks_per_click": 24, "notated_32nd_notes_per_beat": 8, "time": 0}, {"type": "note_on", "time": 1945, "note": 67, "velocity": 91, "channel": 0}, {"type": "note_off", "time": 46, "note": 67, "velocity": 91, "channel": 0}, {"type": "note_on", "time": 43, "note": 72, "velocity": 115, "channel": 0}, {"type": "note_off", "time": 101, "note": 72, "velocity": 115, "channel": 0}, {"type": "note_on", "time": 16, "note": 74, "velocity": 120, "channel": 0}, {"type": "note_off", "time": 84, "note": 74, "velocity": 120, "channel": 0}, {"type": "note_on", "time": 0, "note": 72, "velocity": 116, "channel": 0}, {"type": "note_off", "time": 73, "note": 72, "velocity": 116, "channel": 0}, {"type": "note_on", "time": 7, "note": 74, "velocity": 120, "channel": 0}, {"type": "note_off", "time": 89, "note": 74, "velocity": 120, "channel": 0}, {"type": "note_on", "time": 5, "note": 72, "velocity": 116, "channel": 0}, {"type": "note_off", "time": 94, "note": 72, "velocity": 116, "channel": 0}, {"type": "note_on", "time": 255, "note": 74, "velocity": 120, "channel": 0}, {"type": "note_off", "time": 126, "note": 74, "velocity": 120, "channel": 0}, {"type": "note_on", "time": 0, "note": 72, "velocity": 115, "channel": 0}, {"type": "note_off", "time": 230, "note": 72, "velocity": 115, "channel": 0}, {"type": "note_on", "time": 46, "note": 67, "velocity": 101, "channel": 0}, {"type": "note_off", "time": 186, "note": 67, "velocity": 101, "channel": 0}, {"type": "note_on", "time": 14, "note": 69, "velocity": 111, "channel": 0}, {"type": "note_off", "time": 120, "note": 69, "velocity": 111, "channel": 0}, {"type": "note_on", "time": 74, "note": 72, "velocity": 120, "channel": 0}, {"type": "note_off", "time": 94, "note": 72, "velocity": 120, "channel": 0}, {"type": "note_on", "time": 5, "note": 74, "velocity": 119, "channel": 0}, {"type": "note_off", "time": 78, "note": 74, "velocity": 119, "channel": 0}, {"type": "note_on", "time": 12, "note": 72, "velocity": 116, "channel": 0}, {"type": "note_off", "time": 131, "note": 72, "velocity": 116, "channel": 0}, {"type": "note_on", "time": 685, "note": 73, "velocity": 119, "channel": 0}, {"type": "note_off", "time": 60, "note": 73, "velocity": 119, "channel": 0}, {"type": "note_on", "time": 2, "note": 71, "velocity": 112, "channel": 0}, {"type": "note_off", "time": 40, "note": 71, "velocity": 112, "channel": 0}, {"type": "note_on", "time": 3, "note": 72, "velocity": 108, "channel": 0}, {"type": "note_off", "time": 43, "note": 72, "velocity": 108, "channel": 0}, {"type": "note_on", "time": 2, "note": 70, "velocity": 117, "channel": 0}, {"type": "note_off", "time": 50, "note": 70, "velocity": 117, "channel": 0}, {"type": "note_on", "time": 3, "note": 67, "velocity": 100, "channel": 0}, {"type": "note_off", "time": 45, "note": 67, "velocity": 100, "channel": 0}, {"type": "note_on", "time": 6, "note": 68, "velocity": 105, "channel": 0}, {"type": "note_off", "time": 37, "note": 68, "velocity": 105, "channel": 0}, {"type": "note_on", "time": 3, "note": 69, "velocity": 117, "channel": 0}, {"type": "note_off", "time": 45, "note": 69, "velocity": 117, "channel": 0}, {"type": "note_on", "time": 16, "note": 63, "velocity": 98, "channel": 0}, {"type": "note_off", "time": 99, "note": 63, "velocity": 98, "channel": 0}, {"type": "note_on", "time": 448, "note": 73, "velocity": 119, "channel": 0}, {"type": "note_off", "time": 61, "note": 73, "velocity": 119, "channel": 0}, {"type": "note_on", "time": 2, "note": 74, "velocity": 121, "channel": 0}, {"type": "note_off", "time": 112, "note": 74, "velocity": 121, "channel": 0}, {"type": "note_on", "time": 0, "note": 72, "velocity": 117, "channel": 0}, {"type": "note_off", "time": 86, "note": 72, "velocity": 117, "channel": 0}, {"type": "note_on", "time": 37, "note": 67, "velocity": 107, "channel": 0}, {"type": "note_off", "time": 79, "note": 67, "velocity": 107, "channel": 0}, {"type": "note_on", "time": 17, "note": 65, "velocity": 108, "channel": 0}, {"type": "note_off", "time": 134, "note": 65, "velocity": 108, "channel": 0}, {"type": "note_on", "time": 20, "note": 67, "velocity": 102, "channel": 0}, {"type": "note_off", "time": 100, "note": 67, "velocity": 102, "channel": 0}, {"type": "note_on", "time": 3, "note": 64, "velocity": 97, "channel": 0}, {"type": "note_off", "time": 230, "note": 64, "velocity": 97, "channel": 0}, {"type": "note_on", "time": 250, "note": 69, "velocity": 116, "channel": 0}, {"type": "note_off", "time": 105, "note": 69, "velocity": 116, "channel": 0}, {"type": "note_on", "time": 1, "note": 67, "velocity": 110, "channel": 0}, {"type": "note_off", "time": 82, "note": 67, "velocity": 110, "channel": 0}, {"type": "note_on", "time": 7, "note": 64, "velocity": 111, "channel": 0}, {"type": "note_off", "time": 91, "note": 64, "velocity": 111, "channel": 0}, {"type": "note_on", "time": 2, "note": 62, "velocity": 108, "channel": 0}, {"type": "note_off", "time": 90, "note": 62, "velocity": 108, "channel": 0}, {"type": "note_on", "time": 17, "note": 60, "velocity": 85, "channel": 0}, {"type": "note_off", "time": 77, "note": 60, "velocity": 85, "channel": 0}, {"type": "note_on", "time": 2, "note": 62, "velocity": 112, "channel": 0}, {"type": "note_off", "time": 87, "note": 62, "velocity": 112, "channel": 0}, {"type": "note_on", "time": 3, "note": 64, "velocity": 114, "channel": 0}, {"type": "note_off", "time": 90, "note": 64, "velocity": 114, "channel": 0}, {"type": "note_on", "time": 2, "note": 62, "velocity": 108, "channel": 0}, {"type": "note_off", "time": 91, "note": 62, "velocity": 108, "channel": 0}, {"type": "note_on", "time": 2, "note": 63, "velocity": 107, "channel": 0}, {"type": "note_off", "time": 67, "note": 63, "velocity": 107, "channel": 0}, {"type": "note_on", "time": 37, "note": 68, "velocity": 107, "channel": 0}, {"type": "note_off", "time": 178, "note": 68, "velocity": 107, "channel": 0}, {"type": "note_on", "time": 102, "note": 68, "velocity": 113, "channel": 0}, {"type": "note_off", "time": 33, "note": 68, "velocity": 113, "channel": 0}, {"type": "note_on", "time": 10, "note": 67, "velocity": 114, "channel": 0}, {"type": "note_off", "time": 50, "note": 67, "velocity": 114, "channel": 0}, {"type": "note_on", "time": 1, "note": 69, "velocity": 113, "channel": 0}, {"type": "note_off", "time": 68, "note": 69, "velocity": 113, "channel": 0}, {"type": "note_on", "time": 29, "note": 65, "velocity": 114, "channel": 0}, {"type": "note_off", "time": 87, "note": 65, "velocity": 114, "channel": 0}, {"type": "note_on", "time": 10, "note": 62, "velocity": 112, "channel": 0}, {"type": "note_off", "time": 81, "note": 62, "velocity": 112, "channel": 0}, {"type": "note_on", "time": 21, "note": 60, "velocity": 102, "channel": 0}, {"type": "note_off", "time": 97, "note": 60, "velocity": 102, "channel": 0}, {"type": "note_on", "time": 7, "note": 59, "velocity": 87, "channel": 0}, {"type": "note_off", "time": 131, "note": 59, "velocity": 87, "channel": 0}, {"type": "note_on", "time": 897, "note": 76, "velocity": 126, "channel": 0}, {"type": "note_off", "time": 111, "note": 76, "velocity": 126, "channel": 0}, {"type": "note_on", "time": 4, "note": 79, "velocity": 127, "channel": 0}, {"type": "note_off", "time": 77, "note": 79, "velocity": 127, "channel": 0}, {"type": "note_on", "time": 25, "note": 79, "velocity": 126, "channel": 0}, {"type": "note_off", "time": 106, "note": 79, "velocity": 126, "channel": 0}, {"type": "note_on", "time": 57, "note": 77, "velocity": 123, "channel": 0}, {"type": "note_off", "time": 90, "note": 77, "velocity": 123, "channel": 0}, {"type": "note_on", "time": 36, "note": 79, "velocity": 124, "channel": 0}, {"type": "note_off", "time": 85, "note": 79, "velocity": 124, "channel": 0}, {"type": "note_on", "time": 8, "note": 79, "velocity": 123, "channel": 0}, {"type": "note_off", "time": 110, "note": 79, "velocity": 123, "channel": 0}, {"type": "note_on", "time": 63, "note": 76, "velocity": 105, "channel": 0}, {"type": "note_off", "time": 108, "note": 76, "velocity": 105, "channel": 0}, {"type": "note_on", "time": 0, "note": 79, "velocity": 125, "channel": 0}, {"type": "note_off", "time": 66, "note": 79, "velocity": 125, "channel": 0}, {"type": "note_on", "time": 22, "note": 79, "velocity": 125, "channel": 0}, {"type": "note_off", "time": 82, "note": 79, "velocity": 125, "channel": 0}, {"type": "note_on", "time": 95, "note": 77, "velocity": 124, "channel": 0}, {"type": "note_off", "time": 114, "note": 77, "velocity": 124, "channel": 0}, {"type": "note_on", "time": 1, "note": 79, "velocity": 124, "channel": 0}, {"type": "note_off", "time": 80, "note": 79, "velocity": 124, "channel": 0}, {"type": "note_on", "time": 17, "note": 79, "velocity": 124, "channel": 0}, {"type": "note_off", "time": 89, "note": 79, "velocity": 124, "channel": 0}, {"type": "note_on", "time": 106, "note": 76, "velocity": 123, "channel": 0}, {"type": "note_off", "time": 156, "note": 76, "velocity": 123, "channel": 0}, {"type": "note_on", "time": 51, "note": 72, "velocity": 116, "channel": 0}, {"type": "note_off", "time": 105, "note": 72, "velocity": 116, "channel": 0}, {"type": "note_on", "time": 10, "note": 67, "velocity": 99, "channel": 0}, {"type": "note_off", "time": 195, "note": 67, "velocity": 99, "channel": 0}, {"type": "note_on", "time": 650, "note": 69, "velocity": 119, "channel": 0}, {"type": "note_off", "time": 82, "note": 69, "velocity": 119, "channel": 0}, {"type": "note_on", "time": 4, "note": 70, "velocity": 100, "channel": 0}, {"type": "note_off", "time": 40, "note": 70, "velocity": 100, "channel": 0}, {"type": "note_on", "time": 0, "note": 68, "velocity": 114, "channel": 0}, {"type": "note_off", "time": 37, "note": 68, "velocity": 114, "channel": 0}, {"type": "note_on", "time": 6, "note": 69, "velocity": 119, "channel": 0}, {"type": "note_off", "time": 91, "note": 69, "velocity": 119, "channel": 0}, {"type": "note_on", "time": 5, "note": 68, "velocity": 118, "channel": 0}, {"type": "note_off", "time": 92, "note": 68, "velocity": 118, "channel": 0}, {"type": "note_on", "time": 12, "note": 69, "velocity": 118, "channel": 0}, {"type": "note_off", "time": 86, "note": 69, "velocity": 118, "channel": 0}, {"type": "note_on", "time": 92, "note": 77, "velocity": 123, "channel": 0}, {"type": "note_off", "time": 135, "note": 77, "velocity": 123, "channel": 0}, {"type": "note_on", "time": 3, "note": 76, "velocity": 122, "channel": 0}, {"type": "note_off", "time": 180, "note": 76, "velocity": 122, "channel": 0}, {"type": "note_on", "time": 62, "note": 72, "velocity": 118, "channel": 0}, {"type": "note_off", "time": 112, "note": 72, "velocity": 118, "channel": 0}, {"type": "note_on", "time": 10, "note": 70, "velocity": 105, "channel": 0}, {"type": "note_off", "time": 174, "note": 70, "velocity": 105, "channel": 0}, {"type": "note_on", "time": 288, "note": 81, "velocity": 123, "channel": 0}, {"type": "note_off", "time": 92, "note": 81, "velocity": 123, "channel": 0}, {"type": "note_on", "time": 1, "note": 79, "velocity": 120, "channel": 0}, {"type": "note_off", "time": 84, "note": 79, "velocity": 120, "channel": 0}, {"type": "note_on", "time": 7, "note": 76, "velocity": 120, "channel": 0}, {"type": "note_off", "time": 82, "note": 76, "velocity": 120, "channel": 0}, {"type": "note_on", "time": 10, "note": 72, "velocity": 113, "channel": 0}, {"type": "note_off", "time": 87, "note": 72, "velocity": 113, "channel": 0}, {"type": "note_on", "time": 218, "note": 65, "velocity": 114, "channel": 0}, {"type": "note_off", "time": 91, "note": 65, "velocity": 114, "channel": 0}, {"type": "note_on", "time": 10, "note": 67, "velocity": 110, "channel": 0}, {"type": "note_off", "time": 78, "note": 67, "velocity": 110, "channel": 0}, {"type": "note_on", "time": 7, "note": 65, "velocity": 113, "channel": 0}, {"type": "note_off", "time": 92, "note": 65, "velocity": 113, "channel": 0}, {"type": "note_on", "time": 3, "note": 67, "velocity": 116, "channel": 0}, {"type": "note_off", "time": 80, "note": 67, "velocity": 116, "channel": 0}, {"type": "note_on", "time": 5, "note": 65, "velocity": 112, "channel": 0}, {"type": "note_off", "time": 80, "note": 65, "velocity": 112, "channel": 0}, {"type": "note_on", "time": 127, "note": 72, "velocity": 118, "channel": 0}, {"type": "note_off", "time": 163, "note": 72, "velocity": 118, "channel": 0}, {"type": "note_on", "time": 8, "note": 67, "velocity": 106, "channel": 0}, {"type": "note_off", "time": 96, "note": 67, "velocity": 106, "channel": 0}, {"type": "note_on", "time": 6, "note": 65, "velocity": 114, "channel": 0}, {"type": "note_off", "time": 95, "note": 65, "velocity": 114, "channel": 0}, {"type": "note_on", "time": 3, "note": 63, "velocity": 110, "channel": 0}, {"type": "note_off", "time": 81, "note": 63, "velocity": 110, "channel": 0}, {"type": "note_on", "time": 351, "note": 63, "velocity": 99, "channel": 0}, {"type": "note_off", "time": 36, "note": 63, "velocity": 99, "channel": 0}, {"type": "note_on", "time": 7, "note": 64, "velocity": 111, "channel": 0}, {"type": "note_off", "time": 87, "note": 64, "velocity": 111, "channel": 0}, {"type": "note_on", "time": 10, "note": 65, "velocity": 117, "channel": 0}, {"type": "note_off", "time": 83, "note": 65, "velocity": 117, "channel": 0}, {"type": "note_on", "time": 15, "note": 66, "velocity": 114, "channel": 0}, {"type": "note_off", "time": 72, "note": 66, "velocity": 114, "channel": 0}, {"type": "note_on", "time": 13, "note": 67, "velocity": 115, "channel": 0}, {"type": "note_off", "time": 72, "note": 67, "velocity": 115, "channel": 0}, {"type": "note_on", "time": 11, "note": 72, "velocity": 118, "channel": 0}, {"type": "note_off", "time": 85, "note": 72, "velocity": 118, "channel": 0}, {"type": "note_on", "time": 1020, "note": 73, "velocity": 124, "channel": 0}, {"type": "note_off", "time": 77, "note": 73, "velocity": 124, "channel": 0}, {"type": "note_on", "time": 0, "note": 74, "velocity": 121, "channel": 0}, {"type": "note_off", "time": 65, "note": 74, "velocity": 121, "channel": 0}, {"type": "note_on", "time": 29, "note": 69, "velocity": 120, "channel": 0}, {"type": "note_off", "time": 67, "note": 69, "velocity": 120, "channel": 0}, {"type": "note_on", "time": 10, "note": 65, "velocity": 116, "channel": 0}, {"type": "note_off", "time": 75, "note": 65, "velocity": 116, "channel": 0}, {"type": "note_on", "time": 7, "note": 64, "velocity": 117, "channel": 0}, {"type": "note_off", "time": 97, "note": 64, "velocity": 117, "channel": 0}, {"type": "note_on", "time": 7, "note": 61, "velocity": 105, "channel": 0}, {"type": "note_off", "time": 67, "note": 61, "velocity": 105, "channel": 0}, {"type": "note_on", "time": 52, "note": 64, "velocity": 116, "channel": 0}, {"type": "note_off", "time": 86, "note": 64, "velocity": 116, "channel": 0}, {"type": "note_on", "time": 12, "note": 61, "velocity": 109, "channel": 0}, {"type": "note_off", "time": 56, "note": 61, "velocity": 109, "channel": 0}, {"type": "note_on", "time": 6, "note": 62, "velocity": 98, "channel": 0}, {"type": "note_off", "time": 86, "note": 62, "velocity": 98, "channel": 0}, {"type": "note_on", "time": 6, "note": 64, "velocity": 116, "channel": 0}, {"type": "note_off", "time": 82, "note": 64, "velocity": 116, "channel": 0}, {"type": "note_on", "time": 18, "note": 65, "velocity": 116, "channel": 0}, {"type": "note_off", "time": 72, "note": 65, "velocity": 116, "channel": 0}, {"type": "note_on", "time": 0, "note": 67, "velocity": 118, "channel": 0}, {"type": "note_off", "time": 92, "note": 67, "velocity": 118, "channel": 0}, {"type": "note_on", "time": 3, "note": 68, "velocity": 119, "channel": 0}, {"type": "note_off", "time": 92, "note": 68, "velocity": 119, "channel": 0}, {"type": "note_on", "time": 8, "note": 71, "velocity": 117, "channel": 0}, {"type": "note_off", "time": 75, "note": 71, "velocity": 117, "channel": 0}, {"type": "note_on", "time": 23, "note": 72, "velocity": 121, "channel": 0}, {"type": "note_off", "time": 52, "note": 72, "velocity": 121, "channel": 0}, {"type": "note_on", "time": 2, "note": 74, "velocity": 120, "channel": 0}, {"type": "note_off", "time": 270, "note": 74, "velocity": 120, "channel": 0}, {"type": "note_on", "time": 22, "note": 69, "velocity": 119, "channel": 0}, {"type": "note_off", "time": 99, "note": 69, "velocity": 119, "channel": 0}, {"type": "note_on", "time": 88, "note": 69, "velocity": 111, "channel": 0}, {"type": "note_off", "time": 297, "note": 69, "velocity": 111, "channel": 0}, {"type": "note_on", "time": 15, "note": 69, "velocity": 118, "channel": 0}, {"type": "note_off", "time": 98, "note": 69, "velocity": 118, "channel": 0}, {"type": "note_on", "time": 189, "note": 67, "velocity": 95, "channel": 0}, {"type": "note_off", "time": 32, "note": 67, "velocity": 95, "channel": 0}, {"type": "note_on", "time": 34, "note": 69, "velocity": 112, "channel": 0}, {"type": "note_off", "time": 80, "note": 69, "velocity": 112, "channel": 0}, {"type": "note_on", "time": 10, "note": 72, "velocity": 113, "channel": 0}, {"type": "note_off", "time": 83, "note": 72, "velocity": 113, "channel": 0}, {"type": "note_on", "time": 25, "note": 76, "velocity": 121, "channel": 0}, {"type": "note_off", "time": 90, "note": 76, "velocity": 121, "channel": 0}, {"type": "note_on", "time": 1, "note": 72, "velocity": 114, "channel": 0}, {"type": "note_off", "time": 80, "note": 72, "velocity": 114, "channel": 0}, {"type": "note_on", "time": 106, "note": 72, "velocity": 94, "channel": 0}, {"type": "note_off", "time": 77, "note": 72, "velocity": 94, "channel": 0}, {"type": "note_on", "time": 18, "note": 76, "velocity": 121, "channel": 0}, {"type": "note_off", "time": 92, "note": 76, "velocity": 121, "channel": 0}, {"type": "note_on", "time": 192, "note": 72, "velocity": 112, "channel": 0}, {"type": "note_off", "time": 119, "note": 72, "velocity": 112, "channel": 0}, {"type": "end_of_track", "time": 0}]]}