{"ticks_per_beat": 192, "tracks": [[{"type": "track_name", "name": "Melody", "time": 0}, {"type": "set_tempo", "tempo": 431654, "time": 0}, {"type": "key_signature", "key": "F", "time": 0}, {"type": "time_signature", "numerator": 4, "denominator": 4, "clocks_per_click": 24, "notated_32nd_notes_per_beat": 8, "time": 0}, {"type": "note_on", "time": 3173, "note": 70, "velocity": 104, "channel": 0}, {"type": "note_off", "time": 46, "note": 70, "velocity": 104, "channel": 0}, {"type": "note_on", "time": 3, "note": 71, "velocity": 109, "channel": 0}, {"type": "note_off", "time": 30, "note": 71, "velocity": 109, "channel": 0}, {"type": "note_on", "time": 6, "note": 77, "velocity": 120, "channel": 0}, {"type": "note_off", "time": 95, "note": 77, "velocity": 120, "channel": 0}, {"type": "note_on", "time": 9, "note": 77, "velocity": 118, "channel": 0}, {"type": "note_off", "time": 94, "note": 77, "velocity": 118, "channel": 0}, {"type": "note_on", "time": 2, "note": 75, "velocity": 97, "channel": 0}, {"type": "note_off", "time": 38, "note": 75, "velocity": 97, "channel": 0}, {"type": "note_on", "time": 769, "note": 79, "velocity": 114, "channel": 0}, {"type": "note_off", "time": 39, "note": 79, "velocity": 114, "channel": 0}, {"type": "note_on", "time": 128, "note": 77, "velocity": 119, "channel": 0}, {"type": "note_off", "time": 96, "note": 77, "velocity": 119, "channel": 0}, {"type": "note_on", "time": 0, "note": 77, "velocity": 118, "channel": 0}, {"type": "note_off", "time": 108, "note": 77, "velocity": 118, "channel": 0}, {"type": "note_on", "time": 1, "note": 75, "velocity": 111, "channel": 0}, {"type": "note_off", "time": 76, "note": 75, "velocity": 111, "channel": 0}, {"type": "note_on", "time": 12, "note": 72, "velocity": 97, "channel": 0}, {"type": "note_off", "time": 78, "note": 72, "velocity": 97, "channel": 0}, {"type": "note_on", "time": 10, "note": 67, "velocity": 95, "channel": 0}, {"type": "note_off", "time": 67, "note": 67, "velocity": 95, "channel": 0}, {"type": "note_on", "time": 35, "note": 65, "velocity": 84, "channel": 0}, {"type": "note_off", "time": 94, "note": 65, "velocity": 84, "channel": 0}, {"type": "note_on", "time": 12, "note": 65, "velocity": 94, "channel": 0}, {"type": "note_off", "time": 49, "note": 65, "velocity": 94, "channel": 0}, {"type": "note_on", "time": 1092, "note": 79, "velocity": 121, "channel": 0}, {"type": "note_off", "time": 56, "note": 79, "velocity": 121, "channel": 0}, {"type": "note_on", "time": 0, "note": 78, "velocity": 117, "channel": 0}, {"type": "note_off", "time": 25, "note": 78, "velocity": 117, "channel": 0}, {"type": "note_on", "time": 0, "note": 79, "velocity": 112, "channel": 0}, {"type": "note_off", "time": 32, "note": 79, "velocity": 112, "channel": 0}, {"type": "note_on", "time": 49, "note": 77, "velocity": 114, "channel": 0}, {"type": "note_off", "time": 108, "note": 77, "velocity": 114, "channel": 0}, {"type": "note_on", "time": 1, "note": 77, "velocity": 115, "channel": 0}, {"type": "note_off", "time": 87, "note": 77, "velocity": 115, "channel": 0}, {"type": "note_on", "time": 7, "note": 75, "velocity": 107, "channel": 0}, {"type": "note_off", "time": 78, "note": 75, "velocity": 107, "channel": 0}, {"type": "note_on", "time": 0, "note": 72, "velocity": 94, "channel": 0}, {"type": "note_off", "time": 108, "note": 72, "velocity": 94, "channel": 0}, {"type": "note_on", "time": 19, "note": 67, "velocity": 91, "channel": 0}, {"type": "note_off", "time": 70, "note": 67, "velocity": 91, "channel": 0}, {"type": "note_on", "time": 128, "note": 65, "velocity": 95, "channel": 0}, {"type": "note_off", "time": 68, "note": 65, "velocity": 95, "channel": 0}, {"type": "note_on", "time": 588, "note": 68, "velocity": 94, "channel": 0}, {"type": "note_off", "time": 34, "note": 68, "velocity": 94, "channel": 0}, {"type": "note_on", "time": 0, "note": 70, "velocity": 104, "channel": 0}, {"type": "note_off", "time": 29, "note": 70, "velocity": 104, "channel": 0}, {"type": "note_on", "time": 76, "note": 68, "velocity": 100, "channel": 0}, {"type": "note_off", "time": 29, "note": 68, "velocity": 100, "channel": 0}, {"type": "note_on", "time": 3, "note": 70, "velocity": 103, "channel": 0}, {"type": "note_off", "time": 27, "note": 70, "velocity": 103, "channel": 0}, {"type": "note_on", "time": 47, "note": 68, "velocity": 95, "channel": 0}, {"type": "note_off", "time": 36, "note": 68, "velocity": 95, "channel": 0}, {"type": "note_on", "time": 3, "note": 70, "velocity": 103, "channel": 0}, {"type": "note_off", "time": 52, "note": 70, "velocity": 103, "channel": 0}, {"type": "note_on", "time": 32, "note": 68, "velocity": 98, "channel": 0}, {"type": "note_off", "time": 36, "note": 68, "velocity": 98, "channel": 0}, {"type": "note_on", "time": 4, "note": 70, "velocity": 93, "channel": 0}, {"type": "note_off", "time": 123, "note": 70, "velocity": 93, "channel": 0}, {"type": "note_on", "time": 2, "note": 68, "velocity": 88, "channel": 0}, {"type": "note_off", "time": 94, "note": 68, "velocity": 88, "channel": 0}, {"type": "note_on", "time": 23, "note": 65, "velocity": 86, "channel": 0}, {"type": "note_off", "time": 159, "note": 65, "velocity": 86, "channel": 0}, {"type": "note_on", "time": 39, "note": 63, "velocity": 90, "channel": 0}, {"type": "note_off", "time": 76, "note": 63, "velocity": 90, "channel": 0}, {"type": "note_on", "time": 770, "note": 68, "velocity": 86, "channel": 0}, {"type": "note_off", "time": 61, "note": 68, "velocity": 86, "channel": 0}, {"type": "note_on", "time": 2, "note": 70, "velocity": 113, "channel": 0}, {"type": "note_off", "time": 79, "note": 70, "velocity": 113, "channel": 0}, {"type": "note_on", "time": 1, "note": 73, "velocity": 117, "channel": 0}, {"type": "note_off", "time": 87, "note": 73, "velocity": 117, "channel": 0}, {"type": "note_on", "time": 3, "note": 75, "velocity": 119, "channel": 0}, {"type": "note_off", "time": 81, "note": 75, "velocity": 119, "channel": 0}, {"type": "note_on", "time": 3, "note": 77, "velocity": 120, "channel": 0}, {"type": "note_off", "time": 91, "note": 77, "velocity": 120, "channel": 0}, {"type": "note_on", "time": 4, "note": 79, "velocity": 120, "channel": 0}, {"type": "note_off", "time": 96, "note": 79, "velocity": 120, "channel": 0}, {"type": "note_on", "time": 7, "note": 80, "velocity": 116, "channel": 0}, {"type": "note_off", "time": 79, "note": 80, "velocity": 116, "channel": 0}, {"type": "note_on", "time": 4, "note": 85, "velocity": 116, "channel": 0}, {"type": "note_off", "time": 55, "note": 85, "velocity": 116, "channel": 0}, {"type": "note_on", "time": 16, "note": 87, "velocity": 119, "channel": 0}, {"type": "note_off", "time": 226, "note": 87, "velocity": 119, "channel": 0}, {"type": "note_on", "time": 9, "note": 85, "velocity": 125, "channel": 0}, {"type": "note_off", "time": 110, "note": 85, "velocity": 125, "channel": 0}, {"type": "note_on", "time": 5, "note": 85, "velocity": 120, "channel": 0}, {"type": "note_off", "time": 79, "note": 85, "velocity": 120, "channel": 0}, {"type": "note_on", "time": 281, "note": 80, "velocity": 109, "channel": 0}, {"type": "note_off", "time": 143, "note": 80, "velocity": 109, "channel": 0}, {"type": "note_on", "time": 18, "note": 80, "velocity": 116, "channel": 0}, {"type": "note_off", "time": 112, "note": 80, "velocity": 116, "channel": 0}, {"type": "note_on", "time": 5, "note": 80, "velocity": 115, "channel": 0}, {"type": "note_off", "time": 92, "note": 80, "velocity": 115, "channel": 0}, {"type": "note_on", "time": 1, "note": 79, "velocity": 116, "channel": 0}, {"type": "note_off", "time": 79, "note": 79, "velocity": 116, "channel": 0}, {"type": "note_on", "time": 3, "note": 77, "velocity": 108, "channel": 0}, {"type": "note_off", "time": 90, "note": 77, "velocity": 108, "channel": 0}, {"type": "note_on", "time": 0, "note": 75, "velocity": 104, "channel": 0}, {"type": "note_off", "time": 88, "note": 75, "velocity": 104, "channel": 0}, {"type": "note_on", "time": 7, "note": 72, "velocity": 94, "channel": 0}, {"type": "note_off", "time": 99, "note": 72, "velocity": 94, "channel": 0}, {"type": "note_on", "time": 7, "note": 72, "velocity": 106, "channel": 0}, {"type": "note_off", "time": 43, "note": 72, "velocity": 106, "channel": 0}, {"type": "note_on", "time": 632, "note": 81, "velocity": 121, "channel": 0}, {"type": "note_off", "time": 41, "note": 81, "velocity": 121, "channel": 0}, {"type": "note_on", "time": 3, "note": 82, "velocity": 121, "channel": 0}, {"type": "note_off", "time": 27, "note": 82, "velocity": 121, "channel": 0}, {"type": "note_on", "time": 3, "note": 81, "velocity": 126, "channel": 0}, {"type": "note_off", "time": 38, "note": 81, "velocity": 126, "channel": 0}, {"type": "note_on", "time": 16, "note": 79, "velocity": 110, "channel": 0}, {"type": "note_off", "time": 246, "note": 79, "velocity": 110, "channel": 0}, {"type": "note_on", "time": 3, "note": 77, "velocity": 98, "channel": 0}, {"type": "note_off", "time": 130, "note": 77, "velocity": 98, "channel": 0}, {"type": "note_on", "time": 693, "note": 81, "velocity": 116, "channel": 0}, {"type": "note_off", "time": 92, "note": 81, "velocity": 116, "channel": 0}, {"type": "note_on", "time": 2, "note": 79, "velocity": 107, "channel": 0}, {"type": "note_off", "time": 24, "note": 79, "velocity": 107, "channel": 0}, {"type": "note_on", "time": 10, "note": 77, "velocity": 109, "channel": 0}, {"type": "note_off", "time": 49, "note": 77, "velocity": 109, "channel": 0}, {"type": "note_on", "time": 4, "note": 75, "velocity": 112, "channel": 0}, {"type": "note_off", "time": 92, "note": 75, "velocity": 112, "channel": 0}, {"type": "note_on", "time": 5, "note": 75, "velocity": 107, "channel": 0}, {"type": "note_off", "time": 94, "note": 75, "velocity": 107, "channel": 0}, {"type": "note_on", "time": 3, "note": 72, "velocity": 101, "channel": 0}, {"type": "note_off", "time": 85, "note": 72, "velocity": 101, "channel": 0}, {"type": "note_on", "time": 99, "note": 67, "velocity": 102, "channel": 0}, {"type": "note_on", "time": 65, "note": 66, "velocity": 99, "channel": 0}, {"type": "note_off", "time": 0, "note": 67, "velocity": 102, "channel": 0}, {"type": "note_off", "time": 36, "note": 66, "velocity": 99, "channel": 0}, {"type": "note_on", "time": 0, "note": 67, "velocity": 87, "channel": 0}, {"type": "note_off", "time": 32, "note": 67, "velocity": 87, "channel": 0}, {"type": "note_on", "time": 717, "note": 74, "velocity": 79, "channel": 0}, {"type": "note_off", "time": 34, "note": 74, "velocity": 79, "channel": 0}, {"type": "note_on", "time": 43, "note": 77, "velocity": 117, "channel": 0}, {"type": "note_off", "time": 81, "note": 77, "velocity": 117, "channel": 0}, {"type": "note_on", "time": 0, "note": 79, "velocity": 111, "channel": 0}, {"type": "note_off", "time": 94, "note": 79, "velocity": 111, "channel": 0}, {"type": "note_on", "time": 0, "note": 77, "velocity": 113, "channel": 0}, {"type": "note_off", "time": 88, "note": 77, "velocity": 113, "channel": 0}, {"type": "note_on", "time": 14, "note": 77, "velocity": 113, "channel": 0}, {"type": "note_off", "time": 87, "note": 77, "velocity": 113, "channel": 0}, {"type": "note_on", "time": 0, "note": 75, "velocity": 103, "channel": 0}, {"type": "note_off", "time": 79, "note": 75, "velocity": 103, "channel": 0}, {"type": "note_on", "time": 5, "note": 75, "velocity": 103, "channel": 0}, {"type": "note_off", "time": 96, "note": 75, "velocity": 103, "channel": 0}, {"type": "note_on", "time": 32, "note": 72, "velocity": 102, "channel": 0}, {"type": "note_off", "time": 39, "note": 72, "velocity": 102, "channel": 0}, {"type": "note_on", "time": 59, "note": 72, "velocity": 105, "channel": 0}, {"type": "note_off", "time": 85, "note": 72, "velocity": 105, "channel": 0}, {"type": "note_on", "time": 10, "note": 70, "velocity": 90, "channel": 0}, {"type": "note_off", "time": 79, "note": 70, "velocity": 90, "channel": 0}, {"type": "note_on", "time": 456, "note": 79, "velocity": 115, "channel": 0}, {"type": "note_off", "time": 488, "note": 79, "velocity": 115, "channel": 0}, {"type": "note_on", "time": 4, "note": 80, "velocity": 114, "channel": 0}, {"type": "note_off", "time": 103, "note": 80, "velocity": 114, "channel": 0}, {"type": "note_on", "time": 5, "note": 73, "velocity": 110, "channel": 0}, {"type": "note_off", "time": 168, "note": 73, "velocity": 110, "channel": 0}, {"type": "note_on", "time": 12, "note": 73, "velocity": 113, "channel": 0}, {"type": "note_off", "time": 343, "note": 73, "velocity": 113, "channel": 0}, {"type": "note_on", "time": 21, "note": 71, "velocity": 92, "channel": 0}, {"type": "note_off", "time": 81, "note": 71, "velocity": 92, "channel": 0}, {"type": "note_on", "time": 5, "note": 70, "velocity": 90, "channel": 0}, {"type": "note_off", "time": 87, "note": 70, "velocity": 90, "channel": 0}, {"type": "note_on", "time": 14, "note": 68, "velocity": 83, "channel": 0}, {"type": "note_off", "time": 39, "note": 68, "velocity": 83, "channel": 0}, {"type": "note_on", "time": 757, "note": 62, "velocity": 96, "channel": 0}, {"type": "note_off", "time": 41, "note": 62, "velocity": 96, "channel": 0}, {"type": "note_on", "time": 5, "note": 65, "velocity": 94, "channel": 0}, {"type": "note_off", "time": 36, "note": 65, "velocity": 94, "channel": 0}, {"type": "note_on", "time": 21, "note": 62, "velocity": 92, "channel": 0}, {"type": "note_off", "time": 38, "note": 62, "velocity": 92, "channel": 0}, {"type": "note_on", "time": 1, "note": 63, "velocity": 88, "channel": 0}, {"type": "note_on", "time": 34, "note": 65, "velocity": 99, "channel": 0}, {"type": "note_off", "time": 0, "note": 63, "velocity": 88, "channel": 0}, {"type": "note_off", "time": 36, "note": 65, "velocity": 99, "channel": 0}, {"type": "note_on", "time": 10, "note": 66, "velocity": 95, "channel": 0}, {"type": "note_off", "time": 41, "note": 66, "velocity": 95, "channel": 0}, {"type": "note_on", "time": 3, "note": 68, "velocity": 92, "channel": 0}, {"type": "note_off", "time": 27, "note": 68, "velocity": 92, "channel": 0}, {"type": "note_on", "time": 3, "note": 70, "velocity": 106, "channel": 0}, {"type": "note_off", "time": 39, "note": 70, "velocity": 106, "channel": 0}, {"type": "note_on", "time": 1, "note": 69, "velocity": 107, "channel": 0}, {"type": "note_off", "time": 36, "note": 69, "velocity": 107, "channel": 0}, {"type": "note_on", "time": 10, "note": 68, "velocity": 96, "channel": 0}, {"type": "note_off", "time": 270, "note": 68, "velocity": 96, "channel": 0}, {"type": "note_on", "time": 10, "note": 73, "velocity": 113, "channel": 0}, {"type": "note_off", "time": 88, "note": 73, "velocity": 113, "channel": 0}, {"type": "note_on", "time": 0, "note": 77, "velocity": 115, "channel": 0}, {"type": "note_off", "time": 96, "note": 77, "velocity": 115, "channel": 0}, {"type": "note_on", "time": 14, "note": 77, "velocity": 118, "channel": 0}, {"type": "note_off", "time": 78, "note": 77, "velocity": 118, "channel": 0}, {"type": "note_on", "time": 1, "note": 79, "velocity": 114, "channel": 0}, {"type": "note_off", "time": 45, "note": 79, "velocity": 114, "channel": 0}, {"type": "note_on", "time": 2, "note": 80, "velocity": 117, "channel": 0}, {"type": "note_off", "time": 43, "note": 80, "velocity": 117, "channel": 0}, {"type": "note_on", "time": 1, "note": 82, "velocity": 119, "channel": 0}, {"type": "note_off", "time": 41, "note": 82, "velocity": 119, "channel": 0}, {"type": "note_on", "time": 3, "note": 83, "velocity": 125, "channel": 0}, {"type": "note_off", "time": 34, "note": 83, "velocity": 125, "channel": 0}, {"type": "note_on", "time": 3, "note": 84, "velocity": 127, "channel": 0}, {"type": "note_off", "time": 16, "note": 84, "velocity": 127, "channel": 0}, {"type": "note_on", "time": 0, "note": 85, "velocity": 125, "channel": 0}, {"type": "note_off", "time": 18, "note": 85, "velocity": 125, "channel": 0}, {"type": "note_on", "time": 0, "note": 86, "velocity": 118, "channel": 0}, {"type": "note_off", "time": 27, "note": 86, "velocity": 118, "channel": 0}, {"type": "note_on", "time": 9, "note": 87, "velocity": 116, "channel": 0}, {"type": "note_off", "time": 63, "note": 87, "velocity": 116, "channel": 0}, {"type": "note_on", "time": 3, "note": 88, "velocity": 98, "channel": 0}, {"type": "note_off", "time": 36, "note": 88, "velocity": 98, "channel": 0}, {"type": "note_on", "time": 437, "note": 84, "velocity": 110, "channel": 0}, {"type": "note_off", "time": 41, "note": 84, "velocity": 110, "channel": 0}, {"type": "note_on", "time": 7, "note": 87, "velocity": 104, "channel": 0}, {"type": "note_off", "time": 25, "note": 87, "velocity": 104, "channel": 0}, {"type": "note_on", "time": 21, "note": 89, "velocity": 111, "channel": 0}, {"type": "note_off", "time": 27, "note": 89, "velocity": 111, "channel": 0}, {"type": "note_on", "time": 3, "note": 90, "velocity": 119, "channel": 0}, {"type": "note_off", "time": 36, "note": 90, "velocity": 119, "channel": 0}, {"type": "note_on", "time": 1, "note": 90, "velocity": 103, "channel": 0}, {"type": "note_off", "time": 38, "note": 90, "velocity": 103, "channel": 0}, {"type": "note_on", "time": 5, "note": 89, "velocity": 118, "channel": 0}, {"type": "note_on", "time": 23, "note": 88, "velocity": 118, "channel": 0}, {"type": "note_off", "time": 0, "note": 89, "velocity": 118, "channel": 0}, {"type": "note_off", "time": 61, "note": 88, "velocity": 118, "channel": 0}, {"type": "note_on", "time": 0, "note": 90, "velocity": 90, "channel": 0}, {"type": "note_off", "time": 49, "note": 90, "velocity": 90, "channel": 0}, {"type": "note_on", "time": 1, "note": 88, "velocity": 107, "channel": 0}, {"type": "note_off", "time": 29, "note": 88, "velocity": 107, "channel": 0}, {"type": "note_on", "time": 1, "note": 87, "velocity": 117, "channel": 0}, {"type": "note_off", "time": 101, "note": 87, "velocity": 117, "channel": 0}, {"type": "note_on", "time": 5, "note": 85, "velocity": 113, "channel": 0}, {"type": "note_off", "time": 78, "note": 85, "velocity": 113, "channel": 0}, {"type": "note_on", "time": 127, "note": 84, "velocity": 118, "channel": 0}, {"type": "note_off", "time": 50, "note": 84, "velocity": 118, "channel": 0}, {"type": "note_on", "time": 116, "note": 82, "velocity": 109, "channel": 0}, {"type": "note_off", "time": 61, "note": 82, "velocity": 109, "channel": 0}, {"type": "note_on", "time": 136, "note": 80, "velocity": 112, "channel": 0}, {"type": "note_off", "time": 47, "note": 80, "velocity": 112, "channel": 0}, {"type": "note_on", "time": 151, "note": 79, "velocity": 111, "channel": 0}, {"type": "note_off", "time": 67, "note": 79, "velocity": 111, "channel": 0}, {"type": "note_on", "time": 21, "note": 74, "velocity": 102, "channel": 0}, {"type": "note_off", "time": 94, "note": 74, "velocity": 102, "channel": 0}, {"type": "note_on", "time": 0, "note": 75, "velocity": 111, "channel": 0}, {"type": "note_off", "time": 79, "note": 75, "velocity": 111, "channel": 0}, {"type": "note_on", "time": 842, "note": 79, "velocity": 118, "channel": 0}, {"type": "note_off", "time": 188, "note": 79, "velocity": 118, "channel": 0}, {"type": "note_on", "time": 0, "note": 79, "velocity": 116, "channel": 0}, {"type": "note_off", "time": 203, "note": 79, "velocity": 116, "channel": 0}, {"type": "note_on", "time": 3, "note": 77, "velocity": 111, "channel": 0}, {"type": "note_off", "time": 83, "note": 77, "velocity": 111, "channel": 0}, {"type": "note_on", "time": 0, "note": 75, "velocity": 103, "channel": 0}, {"type": "note_off", "time": 125, "note": 75, "velocity": 103, "channel": 0}, {"type": "note_on", "time": 7, "note": 77, "velocity": 88, "channel": 0}, {"type": "note_off", "time": 30, "note": 77, "velocity": 88, "channel": 0}, {"type": "note_on", "time": 0, "note": 75, "velocity": 102, "channel": 0}, {"type": "note_off", "time": 128, "note": 75, "velocity": 102, "channel": 0}, {"type": "note_on", "time": 14, "note": 75, "velocity": 88, "channel": 0}, {"type": "note_off", "time": 41, "note": 75, "velocity": 88, "channel": 0}, {"type": "note_on", "time": 786, "note": 79, "velocity": 120, "channel": 0}, {"type": "note_off", "time": 105, "note": 79, "velocity": 120, "channel": 0}, {"type": "note_on", "time": 5, "note": 77, "velocity": 113, "channel": 0}, {"type": "note_off", "time": 74, "note": 77, "velocity": 113, "channel": 0}, {"type": "note_on", "time": 5, "note": 75, "velocity": 100, "channel": 0}, {"type": "note_off", "time": 90, "note": 75, "velocity": 100, "channel": 0}, {"type": "note_on", "time": 39, "note": 72, "velocity": 72, "channel": 0}, {"type": "note_off", "time": 52, "note": 72, "velocity": 72, "channel": 0}, {"type": "note_on", "time": 36, "note": 68, "velocity": 88, "channel": 0}, {"type": "note_off", "time": 98, "note": 68, "velocity": 88, "channel": 0}, {"type": "note_on", "time": 16, "note": 65, "velocity": 80, "channel": 0}, {"type": "note_off", "time": 47, "note": 65, "velocity": 80, "channel": 0}, {"type": "note_on", "time": 9, "note": 68, "velocity": 101, "channel": 0}, {"type": "note_off", "time": 56, "note": 68, "velocity": 101, "channel": 0}, {"type": "note_on", "time": 0, "note": 67, "velocity": 94, "channel": 0}, {"type": "note_off", "time": 49, "note": 67, "velocity": 94, "channel": 0}, {"type": "note_on", "time": 1, "note": 68, "velocity": 86, "channel": 0}, {"type": "note_off", "time": 23, "note": 68, "velocity": 86, "channel": 0}, {"type": "note_on", "time": 802, "note": 79, "velocity": 101, "channel": 0}, {"type": "note_off", "time": 23, "note": 79, "velocity": 101, "channel": 0}, {"type": "note_on", "time": 0, "note": 77, "velocity": 119, "channel": 0}, {"type": "note_off", "time": 92, "note": 77, "velocity": 119, "channel": 0}, {"type": "note_on", "time": 58, "note": 72, "velocity": 80, "channel": 0}, {"type": "note_off", "time": 21, "note": 72, "velocity": 80, "channel": 0}, {"type": "note_on", "time": 5, "note": 75, "velocity": 110, "channel": 0}, {"type": "note_off", "time": 194, "note": 75, "velocity": 110, "channel": 0}, {"type": "note_on", "time": 1, "note": 75, "velocity": 110, "channel": 0}, {"type": "note_off", "time": 108, "note": 75, "velocity": 110, "channel": 0}, {"type": "note_on", "time": 0, "note": 75, "velocity": 108, "channel": 0}, {"type": "note_off", "time": 246, "note": 75, "velocity": 108, "channel": 0}, {"type": "note_on", "time": 13, "note": 72, "velocity": 100, "channel": 0}, {"type": "note_off", "time": 79, "note": 72, "velocity": 100, "channel": 0}, {"type": "note_on", "time": 814, "note": 65, "velocity": 84, "channel": 0}, {"type": "note_off", "time": 23, "note": 65, "velocity": 84, "channel": 0}, {"type": "note_on", "time": 1, "note": 67, "velocity": 80, "channel": 0}, {"type": "note_off", "time": 34, "note": 67, "velocity": 80, "channel": 0}, {"type": "note_on", "time": 5, "note": 68, "velocity": 10, "channel": 0}, {"type": "note_off", "time": 87, "note": 68, "velocity": 10, "channel": 0}, {"type": "note_on", "time": 12, "note": 70, "velocity": 113, "channel": 0}, {"type": "note_off", "time": 90, "note": 70, "velocity": 113, "channel": 0}, {"type": "note_on", "time": 2, "note": 71, "velocity": 109, "channel": 0}, {"type": "note_off", "time": 30, "note": 71, "velocity": 109, "channel": 0}, {"type": "note_on", "time": 4, "note": 72, "velocity": 114, "channel": 0}, {"type": "note_off", "time": 32, "note": 72, "velocity": 114, "channel": 0}, {"type": "note_on", "time": 9, "note": 73, "velocity": 113, "channel": 0}, {"type": "note_off", "time": 36, "note": 73, "velocity": 113, "channel": 0}, {"type": "note_on", "time": 7, "note": 74, "velocity": 115, "channel": 0}, {"type": "note_off", "time": 94, "note": 74, "velocity": 115, "channel": 0}, {"type": "note_on", "time": 8, "note": 75, "velocity": 113, "channel": 0}, {"type": "note_off", "time": 77, "note": 75, "velocity": 113, "channel": 0}, {"type": "note_on", "time": 1, "note": 77, "velocity": 118, "channel": 0}, {"type": "note_off", "time": 72, "note": 77, "velocity": 118, "channel": 0}, {"type": "note_on", "time": 9, "note": 79, "velocity": 113, "channel": 0}, {"type": "note_off", "time": 23, "note": 79, "velocity": 113, "channel": 0}, {"type": "note_on", "time": 6, "note": 80, "velocity": 114, "channel": 0}, {"type": "note_off", "time": 39, "note": 80, "velocity": 114, "channel": 0}, {"type": "note_on", "time": 6, "note": 83, "velocity": 103, "channel": 0}, {"type": "note_off", "time": 28, "note": 83, "velocity": 103, "channel": 0}, {"type": "note_on", "time": 1, "note": 84, "velocity": 122, "channel": 0}, {"type": "note_off", "time": 34, "note": 84, "velocity": 122, "channel": 0}, {"type": "note_on", "time": 1, "note": 86, "velocity": 122, "channel": 0}, {"type": "note_off", "time": 43, "note": 86, "velocity": 122, "channel": 0}, {"type": "note_on", "time": 0, "note": 87, "velocity": 111, "channel": 0}, {"type": "note_off", "time": 36, "note": 87, "velocity": 111, "channel": 0}, {"type": "note_on", "time": 4, "note": 88, "velocity": 84, "channel": 0}, {"type": "note_off", "time": 29, "note": 88, "velocity": 84, "channel": 0}, {"type": "note_on", "time": 677, "note": 80, "velocity": 110, "channel": 0}, {"type": "note_on", "time": 159, "note": 80, "velocity": 110, "channel": 0}, {"type": "note_off", "time": 0, "note": 80, "velocity": 110, "channel": 0}, {"type": "note_off", "time": 132, "note": 80, "velocity": 110, "channel": 0}, {"type": "note_on", "time": 1, "note": 79, "velocity": 113, "channel": 0}, {"type": "note_off", "time": 94, "note": 79, "velocity": 113, "channel": 0}, {"type": "note_on", "time": 1, "note": 77, "velocity": 109, "channel": 0}, {"type": "note_off", "time": 103, "note": 77, "velocity": 109, "channel": 0}, {"type": "note_on", "time": 3, "note": 75, "velocity": 102, "channel": 0}, {"type": "note_off", "time": 72, "note": 75, "velocity": 102, "channel": 0}, {"type": "note_on", "time": 7, "note": 72, "velocity": 99, "channel": 0}, {"type": "note_off", "time": 56, "note": 72, "velocity": 99, "channel": 0}, {"type": "note_on", "time": 1060, "note": 79, "velocity": 114, "channel": 0}, {"type": "note_off", "time": 62, "note": 79, "velocity": 114, "channel": 0}, {"type": "note_on", "time": 164, "note": 77, "velocity": 116, "channel": 0}, {"type": "note_off", "time": 203, "note": 77, "velocity": 116, "channel": 0}, {"type": "note_on", "time": 5, "note": 75, "velocity": 105, "channel": 0}, {"type": "note_off", "time": 83, "note": 75, "velocity": 105, "channel": 0}, {"type": "note_on", "time": 96, "note": 72, "velocity": 103, "channel": 0}, {"type": "note_off", "time": 118, "note": 72, "velocity": 103, "channel": 0}, {"type": "note_on", "time": 79, "note": 65, "velocity": 91, "channel": 0}, {"type": "note_off", "time": 92, "note": 65, "velocity": 91, "channel": 0}, {"type": "note_on", "time": 94, "note": 65, "velocity": 84, "channel": 0}, {"type": "note_off", "time": 110, "note": 65, "velocity": 84, "channel": 0}, {"type": "note_on", "time": 90, "note": 65, "velocity": 83, "channel": 0}, {"type": "note_off", "time": 143, "note": 65, "velocity": 83, "channel": 0}, {"type": "note_on", "time": 52, "note": 65, "velocity": 82, "channel": 0}, {"type": "note_off", "time": 101, "note": 65, "velocity": 82, "channel": 0}, {"type": "note_on", "time": 3, "note": 68, "velocity": 104, "channel": 0}, {"type": "note_off", "time": 58, "note": 68, "velocity": 104, "channel": 0}, {"type": "note_on", "time": 1, "note": 70, "velocity": 95, "channel": 0}, {"type": "note_off", "time": 105, "note": 70, "velocity": 95, "channel": 0}, {"type": "note_on", "time": 9, "note": 68, "velocity": 96, "channel": 0}, {"type": "note_off", "time": 67, "note": 68, "velocity": 96, "channel": 0}, {"type": "note_on", "time": 14, "note": 65, "velocity": 82, "channel": 0}, {"type": "note_off", "time": 101, "note": 65, "velocity": 82, "channel": 0}, {"type": "note_on", "time": 1, "note": 65, "velocity": 95, "channel": 0}, {"type": "note_off", "time": 65, "note": 65, "velocity": 95, "channel": 0}, {"type": "note_on", "time": 1005, "note": 71, "velocity": 89, "channel": 0}, {"type": "note_off", "time": 38, "note": 71, "velocity": 89, "channel": 0}, {"type": "note_on", "time": 3, "note": 74, "velocity": 100, "channel": 0}, {"type": "note_off", "time": 50, "note": 74, "velocity": 100, "channel": 0}, {"type": "note_on", "time": 0, "note": 79, "velocity": 120, "channel": 0}, {"type": "note_off", "time": 192, "note": 79, "velocity": 120, "channel": 0}, {"type": "note_on", "time": 0, "note": 79, "velocity": 118, "channel": 0}, {"type": "note_off", "time": 92, "note": 79, "velocity": 118, "channel": 0}, {"type": "note_on", "time": 5, "note": 79, "velocity": 114, "channel": 0}, {"type": "note_off", "time": 90, "note": 79, "velocity": 114, "channel": 0}, {"type": "note_on", "time": 7, "note": 77, "velocity": 110, "channel": 0}, {"type": "note_off", "time": 79, "note": 77, "velocity": 110, "channel": 0}, {"type": "note_on", "time": 1, "note": 75, "velocity": 105, "channel": 0}, {"type": "note_off", "time": 103, "note": 75, "velocity": 105, "channel": 0}, {"type": "note_on", "time": 597, "note": 72, "velocity": 93, "channel": 0}, {"type": "note_off", "time": 24, "note": 72, "velocity": 93, "channel": 0}, {"type": "note_on", "time": 2, "note": 74, "velocity": 98, "channel": 0}, {"type": "note_off", "time": 38, "note": 74, "velocity": 98, "channel": 0}, {"type": "note_on", "time": 9, "note": 74, "velocity": 115, "channel": 0}, {"type": "note_off", "time": 25, "note": 74, "velocity": 115, "channel": 0}, {"type": "note_on", "time": 0, "note": 74, "velocity": 117, "channel": 0}, {"type": "note_off", "time": 43, "note": 74, "velocity": 117, "channel": 0}, {"type": "note_on", "time": 0, "note": 74, "velocity": 118, "channel": 0}, {"type": "note_off", "time": 36, "note": 74, "velocity": 118, "channel": 0}, {"type": "note_on", "time": 0, "note": 74, "velocity": 115, "channel": 0}, {"type": "note_off", "time": 39, "note": 74, "velocity": 115, "channel": 0}, {"type": "note_on", "time": 1, "note": 74, "velocity": 116, "channel": 0}, {"type": "note_off", "time": 29, "note": 74, "velocity": 116, "channel": 0}, {"type": "note_on", "time": 0, "note": 74, "velocity": 117, "channel": 0}, {"type": "note_off", "time": 43, "note": 74, "velocity": 117, "channel": 0}, {"type": "note_on", "time": 0, "note": 74, "velocity": 116, "channel": 0}, {"type": "note_off", "time": 45, "note": 74, "velocity": 116, "channel": 0}, {"type": "note_on", "time": 0, "note": 74, "velocity": 117, "channel": 0}, {"type": "note_off", "time": 32, "note": 74, "velocity": 117, "channel": 0}, {"type": "note_on", "time": 3, "note": 74, "velocity": 118, "channel": 0}, {"type": "note_off", "time": 27, "note": 74, "velocity": 118, "channel": 0}, {"type": "note_on", "time": 0, "note": 74, "velocity": 109, "channel": 0}, {"type": "note_off", "time": 39, "note": 74, "velocity": 109, "channel": 0}, {"type": "note_on", "time": 5, "note": 75, "velocity": 112, "channel": 0}, {"type": "note_off", "time": 27, "note": 75, "velocity": 112, "channel": 0}, {"type": "note_on", "time": 0, "note": 75, "velocity": 112, "channel": 0}, {"type": "note_off", "time": 39, "note": 75, "velocity": 112, "channel": 0}, {"type": "note_on", "time": 3, "note": 75, "velocity": 114, "channel": 0}, {"type": "note_off", "time": 19, "note": 75, "velocity": 114, "channel": 0}, {"type": "note_on", "time": 0, "note": 75, "velocity": 107, "channel": 0}, {"type": "note_off", "time": 30, "note": 75, "velocity": 107, "channel": 0}, {"type": "note_on", "time": 2, "note": 74, "velocity": 107, "channel": 0}, {"type": "note_off", "time": 20, "note": 74, "velocity": 107, "channel": 0}, {"type": "note_on", "time": 1, "note": 72, "velocity": 103, "channel": 0}, {"type": "note_off", "time": 32, "note": 72, "velocity": 103, "channel": 0}, {"type": "note_on", "time": 1, "note": 72, "velocity": 99, "channel": 0}, {"type": "note_off", "time": 19, "note": 72, "velocity": 99, "channel": 0}, {"type": "note_on", "time": 0, "note": 72, "velocity": 103, "channel": 0}, {"type": "note_off", "time": 39, "note": 72, "velocity": 103, "channel": 0}, {"type": "note_on", "time": 0, "note": 72, "velocity": 110, "channel": 0}, {"type": "note_off", "time": 32, "note": 72, "velocity": 110, "channel": 0}, {"type": "note_on", "time": 0, "note": 72, "velocity": 110, "channel": 0}, {"type": "note_off", "time": 41, "note": 72, "velocity": 110, "channel": 0}, {"type": "note_on", "time": 0, "note": 72, "velocity": 113, "channel": 0}, {"type": "note_off", "time": 30, "note": 72, "velocity": 113, "channel": 0}, {"type": "note_on", "time": 2, "note": 72, "velocity": 109, "channel": 0}, {"type": "note_off", "time": 29, "note": 72, "velocity": 109, "channel": 0}, {"type": "note_on", "time": 9, "note": 74, "velocity": 105, "channel": 0}, {"type": "note_off", "time": 27, "note": 74, "velocity": 105, "channel": 0}, {"type": "note_on", "time": 1, "note": 72, "velocity": 106, "channel": 0}, {"type": "note_off", "time": 34, "note": 72, "velocity": 106, "channel": 0}, {"type": "note_on", "time": 0, "note": 72, "velocity": 98, "channel": 0}, {"type": "note_off", "time": 29, "note": 72, "velocity": 98, "channel": 0}, {"type": "note_on", "time": 2, "note": 72, "velocity": 104, "channel": 0}, {"type": "note_off", "time": 34, "note": 72, "velocity": 104, "channel": 0}, {"type": "note_on", "time": 2, "note": 74, "velocity": 98, "channel": 0}, {"type": "note_off", "time": 30, "note": 74, "velocity": 98, "channel": 0}, {"type": "note_on", "time": 5, "note": 72, "velocity": 95, "channel": 0}, {"type": "note_off", "time": 34, "note": 72, "velocity": 95, "channel": 0}, {"type": "note_on", "time": 12, "note": 74, "velocity": 90, "channel": 0}, {"type": "note_off", "time": 34, "note": 74, "velocity": 90, "channel": 0}, {"type": "note_on", "time": 3, "note": 72, "velocity": 101, "channel": 0}, {"type": "note_off", "time": 16, "note": 72, "velocity": 101, "channel": 0}, {"type": "note_on", "time": 1, "note": 70, "velocity": 96, "channel": 0}, {"type": "note_off", "time": 83, "note": 70, "velocity": 96, "channel": 0}, {"type": "note_on", "time": 908, "note": 69, "velocity": 108, "channel": 0}, {"type": "note_off", "time": 81, "note": 69, "velocity": 108, "channel": 0}, {"type": "note_on", "time": 2, "note": 70, "velocity": 113, "channel": 0}, {"type": "note_off", "time": 78, "note": 70, "velocity": 113, "channel": 0}, {"type": "note_on", "time": 0, "note": 73, "velocity": 113, "channel": 0}, {"type": "note_off", "time": 176, "note": 73, "velocity": 113, "channel": 0}, {"type": "note_on", "time": 3, "note": 75, "velocity": 113, "channel": 0}, {"type": "note_off", "time": 176, "note": 75, "velocity": 113, "channel": 0}, {"type": "note_on", "time": 0, "note": 77, "velocity": 118, "channel": 0}, {"type": "note_off", "time": 85, "note": 77, "velocity": 118, "channel": 0}, {"type": "note_on", "time": 6, "note": 79, "velocity": 117, "channel": 0}, {"type": "note_off", "time": 86, "note": 79, "velocity": 117, "channel": 0}, {"type": "note_on", "time": 1, "note": 80, "velocity": 115, "channel": 0}, {"type": "note_off", "time": 87, "note": 80, "velocity": 115, "channel": 0}, {"type": "note_on", "time": 1, "note": 82, "velocity": 112, "channel": 0}, {"type": "note_off", "time": 9, "note": 82, "velocity": 112, "channel": 0}, {"type": "note_on", "time": 1, "note": 80, "velocity": 112, "channel": 0}, {"type": "note_off", "time": 88, "note": 80, "velocity": 112, "channel": 0}, {"type": "note_on", "time": 1, "note": 79, "velocity": 109, "channel": 0}, {"type": "note_off", "time": 78, "note": 79, "velocity": 109, "channel": 0}, {"type": "note_on", "time": 0, "note": 82, "velocity": 96, "channel": 0}, {"type": "note_off", "time": 14, "note": 82, "velocity": 96, "channel": 0}, {"type": "note_on", "time": 1, "note": 80, "velocity": 112, "channel": 0}, {"type": "note_off", "time": 81, "note": 80, "velocity": 112, "channel": 0}, {"type": "note_on", "time": 1, "note": 79, "velocity": 110, "channel": 0}, {"type": "note_off", "time": 83, "note": 79, "velocity": 110, "channel": 0}, {"type": "note_on", "time": 9, "note": 77, "velocity": 110, "channel": 0}, {"type": "note_off", "time": 79, "note": 77, "velocity": 110, "channel": 0}, {"type": "note_on", "time": 0, "note": 75, "velocity": 95, "channel": 0}, {"type": "note_off", "time": 23, "note": 75, "velocity": 95, "channel": 0}, {"type": "note_on", "time": 10, "note": 72, "velocity": 110, "channel": 0}, {"type": "note_off", "time": 76, "note": 72, "velocity": 110, "channel": 0}, {"type": "note_on", "time": 0, "note": 71, "velocity": 104, "channel": 0}, {"type": "note_off", "time": 90, "note": 71, "velocity": 104, "channel": 0}, {"type": "note_on", "time": 3, "note": 70, "velocity": 105, "channel": 0}, {"type": "note_off", "time": 81, "note": 70, "velocity": 105, "channel": 0}, {"type": "note_on", "time": 16, "note": 68, "velocity": 93, "channel": 0}, {"type": "note_off", "time": 98, "note": 68, "velocity": 93, "channel": 0}, {"type": "note_on", "time": 25, "note": 68, "velocity": 99, "channel": 0}, {"type": "note_off", "time": 32, "note": 68, "velocity": 99, "channel": 0}, {"type": "note_on", "time": 1194, "note": 77, "velocity": 115, "channel": 0}, {"type": "note_off", "time": 121, "note": 77, "velocity": 115, "channel": 0}, {"type": "note_on", "time": 58, "note": 79, "velocity": 118, "channel": 0}, {"type": "note_off", "time": 183, "note": 79, "velocity": 118, "channel": 0}, {"type": "note_on", "time": 0, "note": 77, "velocity": 108, "channel": 0}, {"type": "note_off", "time": 134, "note": 77, "velocity": 108, "channel": 0}, {"type": "note_on", "time": 4, "note": 75, "velocity": 106, "channel": 0}, {"type": "note_off", "time": 223, "note": 75, "velocity": 106, "channel": 0}, {"type": "note_on", "time": 6, "note": 72, "velocity": 105, "channel": 0}, {"type": "note_off", "time": 117, "note": 72, "velocity": 105, "channel": 0}, {"type": "note_on", "time": 96, "note": 70, "velocity": 101, "channel": 0}, {"type": "note_off", "time": 85, "note": 70, "velocity": 101, "channel": 0}, {"type": "note_on", "time": 4, "note": 69, "velocity": 96, "channel": 0}, {"type": "note_off", "time": 32, "note": 69, "velocity": 96, "channel": 0}, {"type": "note_on", "time": 6, "note": 70, "velocity": 95, "channel": 0}, {"type": "note_off", "time": 36, "note": 70, "velocity": 95, "channel": 0}, {"type": "note_on", "time": 27, "note": 68, "velocity": 93, "channel": 0}, {"type": "note_off", "time": 130, "note": 68, "velocity": 93, "channel": 0}, {"type": "note_on", "time": 61, "note": 65, "velocity": 90, "channel": 0}, {"type": "note_off", "time": 163, "note": 65, "velocity": 90, "channel": 0}, {"type": "note_on", "time": 5, "note": 67, "velocity": 98, "channel": 0}, {"type": "note_off", "time": 78, "note": 67, "velocity": 98, "channel": 0}, {"type": "note_on", "time": 322, "note": 77, "velocity": 119, "channel": 0}, {"type": "note_off", "time": 125, "note": 77, "velocity": 119, "channel": 0}, {"type": "note_on", "time": 86, "note": 79, "velocity": 119, "channel": 0}, {"type": "note_off", "time": 119, "note": 79, "velocity": 119, "channel": 0}, {"type": "note_on", "time": 5, "note": 77, "velocity": 121, "channel": 0}, {"type": "note_off", "time": 59, "note": 77, "velocity": 121, "channel": 0}, {"type": "note_on", "time": 1, "note": 75, "velocity": 107, "channel": 0}, {"type": "note_off", "time": 123, "note": 75, "velocity": 107, "channel": 0}, {"type": "note_on", "time": 5, "note": 72, "velocity": 109, "channel": 0}, {"type": "note_off", "time": 79, "note": 72, "velocity": 109, "channel": 0}, {"type": "note_on", "time": 128, "note": 65, "velocity": 94, "channel": 0}, {"type": "note_off", "time": 101, "note": 65, "velocity": 94, "channel": 0}, {"type": "note_on", "time": 81, "note": 68, "velocity": 107, "channel": 0}, {"type": "note_off", "time": 67, "note": 68, "velocity": 107, "channel": 0}, {"type": "note_on", "time": 50, "note": 70, "velocity": 111, "channel": 0}, {"type": "note_off", "time": 45, "note": 70, "velocity": 111, "channel": 0}, {"type": "note_on", "time": 0, "note": 69, "velocity": 106, "channel": 0}, {"type": "note_off", "time": 63, "note": 69, "velocity": 106, "channel": 0}, {"type": "note_on", "time": 49, "note": 70, "velocity": 104, "channel": 0}, {"type": "note_off", "time": 114, "note": 70, "velocity": 104, "channel": 0}, {"type": "note_on", "time": 12, "note": 70, "velocity": 110, "channel": 0}, {"type": "note_off", "time": 56, "note": 70, "velocity": 110, "channel": 0}, {"type": "note_on", "time": 20, "note": 70, "velocity": 98, "channel": 0}, {"type": "note_off", "time": 111, "note": 70, "velocity": 98, "channel": 0}, {"type": "note_on", "time": 30, "note": 68, "velocity": 92, "channel": 0}, {"type": "note_off", "time": 30, "note": 68, "velocity": 92, "channel": 0}, {"type": "note_on", "time": 18, "note": 71, "velocity": 110, "channel": 0}, {"type": "note_off", "time": 43, "note": 71, "velocity": 110, "channel": 0}, {"type": "note_on", "time": 1, "note": 70, "velocity": 105, "channel": 0}, {"type": "note_off", "time": 49, "note": 70, "velocity": 105, "channel": 0}, {"type": "note_on", "time": 3, "note": 71, "velocity": 98, "channel": 0}, {"type": "note_off", "time": 29, "note": 71, "velocity": 98, "channel": 0}, {"type": "note_on", "time": 648, "note": 79, "velocity": 120, "channel": 0}, {"type": "note_off", "time": 114, "note": 79, "velocity": 120, "channel": 0}, {"type": "note_on", "time": 88, "note": 79, "velocity": 94, "channel": 0}, {"type": "note_off", "time": 14, "note": 79, "velocity": 94, "channel": 0}, {"type": "note_on", "time": 0, "note": 77, "velocity": 110, "channel": 0}, {"type": "note_on", "time": 125, "note": 75, "velocity": 106, "channel": 0}, {"type": "note_off", "time": 0, "note": 77, "velocity": 110, "channel": 0}, {"type": "note_off", "time": 67, "note": 75, "velocity": 106, "channel": 0}, {"type": "note_on", "time": 3, "note": 72, "velocity": 90, "channel": 0}, {"type": "note_off", "time": 128, "note": 72, "velocity": 90, "channel": 0}, {"type": "note_on", "time": 25, "note": 72, "velocity": 97, "channel": 0}, {"type": "note_off", "time": 188, "note": 72, "velocity": 97, "channel": 0}, {"type": "note_on", "time": 19, "note": 65, "velocity": 83, "channel": 0}, {"type": "note_off", "time": 45, "note": 65, "velocity": 83, "channel": 0}, {"type": "note_on", "time": 0, "note": 68, "velocity": 96, "channel": 0}, {"type": "note_off", "time": 61, "note": 68, "velocity": 96, "channel": 0}, {"type": "note_on", "time": 0, "note": 67, "velocity": 89, "channel": 0}, {"type": "note_off", "time": 58, "note": 67, "velocity": 89, "channel": 0}, {"type": "note_on", "time": 974, "note": 65, "velocity": 97, "channel": 0}, {"type": "note_off", "time": 41, "note": 65, "velocity": 97, "channel": 0}, {"type": "note_on", "time": 2, "note": 67, "velocity": 98, "channel": 0}, {"type": "note_off", "time": 63, "note": 67, "velocity": 98, "channel": 0}, {"type": "note_on", "time": 0, "note": 68, "velocity": 106, "channel": 0}, {"type": "note_off", "time": 59, "note": 68, "velocity": 106, "channel": 0}, {"type": "note_on", "time": 1, "note": 69, "velocity": 111, "channel": 0}, {"type": "note_off", "time": 59, "note": 69, "velocity": 111, "channel": 0}, {"type": "note_on", "time": 7, "note": 70, "velocity": 115, "channel": 0}, {"type": "note_off", "time": 78, "note": 70, "velocity": 115, "channel": 0}, {"type": "note_on", "time": 9, "note": 71, "velocity": 111, "channel": 0}, {"type": "note_off", "time": 275, "note": 71, "velocity": 111, "channel": 0}, {"type": "note_on", "time": 14, "note": 70, "velocity": 112, "channel": 0}, {"type": "note_off", "time": 190, "note": 70, "velocity": 112, "channel": 0}, {"type": "note_on", "time": 12, "note": 67, "velocity": 99, "channel": 0}, {"type": "note_off", "time": 67, "note": 67, "velocity": 99, "channel": 0}, {"type": "note_on", "time": 12, "note": 71, "velocity": 103, "channel": 0}, {"type": "note_off", "time": 23, "note": 71, "velocity": 103, "channel": 0}, {"type": "note_on", "time": 5, "note": 70, "velocity": 106, "channel": 0}, {"type": "note_off", "time": 38, "note": 70, "velocity": 106, "channel": 0}, {"type": "note_on", "time": 10, "note": 71, "velocity": 113, "channel": 0}, {"type": "note_off", "time": 50, "note": 71, "velocity": 113, "channel": 0}, {"type": "note_on", "time": 1, "note": 72, "velocity": 117, "channel": 0}, {"type": "note_off", "time": 39, "note": 72, "velocity": 117, "channel": 0}, {"type": "note_on", "time": 9, "note": 73, "velocity": 118, "channel": 0}, {"type": "note_on", "time": 343, "note": 71, "velocity": 113, "channel": 0}, {"type": "note_off", "time": 0, "note": 73, "velocity": 118, "channel": 0}, {"type": "note_off", "time": 92, "note": 71, "velocity": 113, "channel": 0}, {"type": "note_on", "time": 1, "note": 70, "velocity": 103, "channel": 0}, {"type": "note_off", "time": 74, "note": 70, "velocity": 103, "channel": 0}, {"type": "note_on", "time": 16, "note": 66, "velocity": 87, "channel": 0}, {"type": "note_off", "time": 78, "note": 66, "velocity": 87, "channel": 0}, {"type": "note_on", "time": 3, "note": 68, "velocity": 101, "channel": 0}, {"type": "note_off", "time": 54, "note": 68, "velocity": 101, "channel": 0}, {"type": "note_on", "time": 9, "note": 69, "velocity": 109, "channel": 0}, {"type": "note_off", "time": 49, "note": 69, "velocity": 109, "channel": 0}, {"type": "note_on", "time": 3, "note": 70, "velocity": 116, "channel": 0}, {"type": "note_off", "time": 85, "note": 70, "velocity": 116, "channel": 0}, {"type": "note_on", "time": 7, "note": 71, "velocity": 115, "channel": 0}, {"type": "note_off", "time": 107, "note": 71, "velocity": 115, "channel": 0}, {"type": "note_on", "time": 0, "note": 70, "velocity": 111, "channel": 0}, {"type": "note_off", "time": 56, "note": 70, "velocity": 111, "channel": 0}, {"type": "note_on", "time": 25, "note": 68, "velocity": 94, "channel": 0}, {"type": "note_off", "time": 118, "note": 68, "velocity": 94, "channel": 0}, {"type": "note_on", "time": 21, "note": 66, "velocity": 85, "channel": 0}, {"type": "note_off", "time": 30, "note": 66, "velocity": 85, "channel": 0}, {"type": "note_on", "time": 7, "note": 70, "velocity": 105, "channel": 0}, {"type": "note_off", "time": 150, "note": 70, "velocity": 105, "channel": 0}, {"type": "note_on", "time": 0, "note": 70, "velocity": 97, "channel": 0}, {"type": "note_off", "time": 58, "note": 70, "velocity": 97, "channel": 0}, {"type": "note_on", "time": 637, "note": 79, "velocity": 118, "channel": 0}, {"type": "note_off", "time": 145, "note": 79, "velocity": 118, "channel": 0}, {"type": "note_on", "time": 47, "note": 79, "velocity": 115, "channel": 0}, {"type": "note_off", "time": 150, "note": 79, "velocity": 115, "channel": 0}, {"type": "note_on", "time": 3, "note": 80, "velocity": 107, "channel": 0}, {"type": "note_off", "time": 628, "note": 80, "velocity": 107, "channel": 0}, {"type": "note_on", "time": 12, "note": 79, "velocity": 105, "channel": 0}, {"type": "note_off", "time": 56, "note": 79, "velocity": 105, "channel": 0}, {"type": "note_on", "time": 280, "note": 77, "velocity": 95, "channel": 0}, {"type": "note_off", "time": 45, "note": 77, "velocity": 95, "channel": 0}, {"type": "note_on", "time": 221, "note": 79, "velocity": 119, "channel": 0}, {"type": "note_off", "time": 64, "note": 79, "velocity": 119, "channel": 0}, {"type": "note_on", "time": 1, "note": 78, "velocity": 113, "channel": 0}, {"type": "note_off", "time": 29, "note": 78, "velocity": 113, "channel": 0}, {"type": "note_on", "time": 3, "note": 79, "velocity": 105, "channel": 0}, {"type": "note_off", "time": 32, "note": 79, "velocity": 105, "channel": 0}, {"type": "note_on", "time": 192, "note": 77, "velocity": 114, "channel": 0}, {"type": "note_off", "time": 38, "note": 77, "velocity": 114, "channel": 0}, {"type": "note_on", "time": 233, "note": 75, "velocity": 113, "channel": 0}, {"type": "note_off", "time": 36, "note": 75, "velocity": 113, "channel": 0}, {"type": "note_on", "time": 302, "note": 77, "velocity": 117, "channel": 0}, {"type": "note_off", "time": 34, "note": 77, "velocity": 117, "channel": 0}, {"type": "note_on", "time": 148, "note": 78, "velocity": 108, "channel": 0}, {"type": "note_off", "time": 29, "note": 78, "velocity": 108, "channel": 0}, {"type": "note_on", "time": 0, "note": 80, "velocity": 119, "channel": 0}, {"type": "note_off", "time": 21, "note": 80, "velocity": 119, "channel": 0}, {"type": "note_on", "time": 10, "note": 81, "velocity": 108, "channel": 0}, {"type": "note_off", "time": 25, "note": 81, "velocity": 108, "channel": 0}, {"type": "note_on", "time": 7, "note": 87, "velocity": 124, "channel": 0}, {"type": "note_off", "time": 47, "note": 87, "velocity": 124, "channel": 0}, {"type": "note_on", "time": 1, "note": 89, "velocity": 116, "channel": 0}, {"type": "note_off", "time": 21, "note": 89, "velocity": 116, "channel": 0}, {"type": "note_on", "time": 232, "note": 85, "velocity": 105, "channel": 0}, {"type": "note_off", "time": 77, "note": 85, "velocity": 105, "channel": 0}, {"type": "note_on", "time": 194, "note": 84, "velocity": 121, "channel": 0}, {"type": "note_off", "time": 141, "note": 84, "velocity": 121, "channel": 0}, {"type": "note_on", "time": 7, "note": 83, "velocity": 117, "channel": 0}, {"type": "note_off", "time": 49, "note": 83, "velocity": 117, "channel": 0}, {"type": "note_on", "time": 208, "note": 82, "velocity": 114, "channel": 0}, {"type": "note_off", "time": 43, "note": 82, "velocity": 114, "channel": 0}, {"type": "note_on", "time": 156, "note": 79, "velocity": 106, "channel": 0}, {"type": "note_off", "time": 94, "note": 79, "velocity": 106, "channel": 0}, {"type": "note_on", "time": 7, "note": 80, "velocity": 111, "channel": 0}, {"type": "note_off", "time": 23, "note": 80, "velocity": 111, "channel": 0}, {"type": "note_on", "time": 1, "note": 79, "velocity": 111, "channel": 0}, {"type": "note_off", "time": 39, "note": 79, "velocity": 111, "channel": 0}, {"type": "note_on", "time": 163, "note": 77, "velocity": 112, "channel": 0}, {"type": "note_off", "time": 47, "note": 77, "velocity": 112, "channel": 0}, {"type": "note_on", "time": 223, "note": 75, "velocity": 106, "channel": 0}, {"type": "note_off", "time": 61, "note": 75, "velocity": 106, "channel": 0}, {"type": "note_on", "time": 116, "note": 71, "velocity": 94, "channel": 0}, {"type": "note_off", "time": 51, "note": 71, "velocity": 94, "channel": 0}, {"type": "note_on", "time": 4, "note": 68, "velocity": 91, "channel": 0}, {"type": "note_off", "time": 71, "note": 68, "velocity": 91, "channel": 0}, {"type": "note_on", "time": 3, "note": 71, "velocity": 105, "channel": 0}, {"type": "note_off", "time": 78, "note": 71, "velocity": 105, "channel": 0}, {"type": "note_on", "time": 11, "note": 70, "velocity": 101, "channel": 0}, {"type": "note_off", "time": 29, "note": 70, "velocity": 101, "channel": 0}, {"type": "note_on", "time": 332, "note": 65, "velocity": 81, "channel": 0}, {"type": "note_off", "time": 52, "note": 65, "velocity": 81, "channel": 0}, {"type": "note_on", "time": 10, "note": 68, "velocity": 95, "channel": 0}, {"type": "note_off", "time": 79, "note": 68, "velocity": 95, "channel": 0}, {"type": "note_on", "time": 23, "note": 70, "velocity": 114, "channel": 0}, {"type": "note_off", "time": 68, "note": 70, "velocity": 114, "channel": 0}, {"type": "note_on", "time": 50, "note": 70, "velocity": 113, "channel": 0}, {"type": "note_off", "time": 107, "note": 70, "velocity": 113, "channel": 0}, {"type": "note_on", "time": 3, "note": 69, "velocity": 80, "channel": 0}, {"type": "note_off", "time": 36, "note": 69, "velocity": 80, "channel": 0}, {"type": "note_on", "time": 3, "note": 70, "velocity": 114, "channel": 0}, {"type": "note_off", "time": 123, "note": 70, "velocity": 114, "channel": 0}, {"type": "note_on", "time": 3, "note": 71, "velocity": 115, "channel": 0}, {"type": "note_off", "time": 61, "note": 71, "velocity": 115, "channel": 0}, {"type": "note_on", "time": 0, "note": 70, "velocity": 108, "channel": 0}, {"type": "note_off", "time": 159, "note": 70, "velocity": 108, "channel": 0}, {"type": "note_on", "time": 0, "note": 71, "velocity": 104, "channel": 0}, {"type": "note_off", "time": 47, "note": 71, "velocity": 104, "channel": 0}, {"type": "note_on", "time": 45, "note": 70, "velocity": 109, "channel": 0}, {"type": "note_off", "time": 85, "note": 70, "velocity": 109, "channel": 0}, {"type": "note_on", "time": 32, "note": 68, "velocity": 109, "channel": 0}, {"type": "note_off", "time": 65, "note": 68, "velocity": 109, "channel": 0}, {"type": "note_on", "time": 50, "note": 65, "velocity": 107, "channel": 0}, {"type": "note_off", "time": 67, "note": 65, "velocity": 107, "channel": 0}, {"type": "note_on", "time": 18, "note": 68, "velocity": 108, "channel": 0}, {"type": "note_off", "time": 59, "note": 68, "velocity": 108, "channel": 0}, {"type": "note_on", "time": 7, "note": 70, "velocity": 112, "channel": 0}, {"type": "note_off", "time": 92, "note": 70, "velocity": 112, "channel": 0}, {"type": "note_on", "time": 19, "note": 68, "velocity": 108, "channel": 0}, {"type": "note_off", "time": 80, "note": 68, "velocity": 108, "channel": 0}, {"type": "note_on", "time": 20, "note": 69, "velocity": 110, "channel": 0}, {"type": "note_off", "time": 103, "note": 69, "velocity": 110, "channel": 0}, {"type": "note_on", "time": 7, "note": 70, "velocity": 115, "channel": 0}, {"type": "note_off", "time": 96, "note": 70, "velocity": 115, "channel": 0}, {"type": "note_on", "time": 12, "note": 71, "velocity": 113, "channel": 0}, {"type": "note_off", "time": 54, "note": 71, "velocity": 113, "channel": 0}, {"type": "note_on", "time": 1, "note": 72, "velocity": 115, "channel": 0}, {"type": "note_off", "time": 45, "note": 72, "velocity": 115, "channel": 0}, {"type": "note_on", "time": 1, "note": 73, "velocity": 112, "channel": 0}, {"type": "note_off", "time": 45, "note": 73, "velocity": 112, "channel": 0}, {"type": "note_on", "time": 3, "note": 74, "velocity": 117, "channel": 0}, {"type": "note_off", "time": 45, "note": 74, "velocity": 117, "channel": 0}, {"type": "note_on", "time": 0, "note": 75, "velocity": 115, "channel": 0}, {"type": "note_off", "time": 94, "note": 75, "velocity": 115, "channel": 0}, {"type": "note_on", "time": 16, "note": 70, "velocity": 112, "channel": 0}, {"type": "note_off", "time": 52, "note": 70, "velocity": 112, "channel": 0}, {"type": "note_on", "time": 0, "note": 69, "velocity": 110, "channel": 0}, {"type": "note_off", "time": 58, "note": 69, "velocity": 110, "channel": 0}, {"type": "note_on", "time": 38, "note": 67, "velocity": 106, "channel": 0}, {"type": "note_off", "time": 39, "note": 67, "velocity": 106, "channel": 0}, {"type": "note_on", "time": 0, "note": 68, "velocity": 107, "channel": 0}, {"type": "note_off", "time": 179, "note": 68, "velocity": 107, "channel": 0}, {"type": "note_on", "time": 12, "note": 69, "velocity": 103, "channel": 0}, {"type": "note_off", "time": 32, "note": 69, "velocity": 103, "channel": 0}, {"type": "note_on", "time": 1, "note": 70, "velocity": 113, "channel": 0}, {"type": "note_off", "time": 43, "note": 70, "velocity": 113, "channel": 0}, {"type": "note_on", "time": 5, "note": 71, "velocity": 113, "channel": 0}, {"type": "note_off", "time": 38, "note": 71, "velocity": 113, "channel": 0}, {"type": "note_on", "time": 3, "note": 72, "velocity": 115, "channel": 0}, {"type": "note_off", "time": 36, "note": 72, "velocity": 115, "channel": 0}, {"type": "note_on", "time": 5, "note": 73, "velocity": 111, "channel": 0}, {"type": "note_off", "time": 21, "note": 73, "velocity": 111, "channel": 0}, {"type": "note_on", "time": 2, "note": 74, "velocity": 116, "channel": 0}, {"type": "note_off", "time": 40, "note": 74, "velocity": 116, "channel": 0}, {"type": "note_on", "time": 1, "note": 75, "velocity": 116, "channel": 0}, {"type": "note_off", "time": 67, "note": 75, "velocity": 116, "channel": 0}, {"type": "note_on", "time": 18, "note": 73, "velocity": 107, "channel": 0}, {"type": "note_off", "time": 67, "note": 73, "velocity": 107, "channel": 0}, {"type": "note_on", "time": 406, "note": 74, "velocity": 121, "channel": 0}, {"type": "note_off", "time": 102, "note": 74, "velocity": 121, "channel": 0}, {"type": "note_on", "time": 0, "note": 75, "velocity": 114, "channel": 0}, {"type": "note_off", "time": 379, "note": 75, "velocity": 114, "channel": 0}, {"type": "note_on", "time": 9, "note": 72, "velocity": 107, "channel": 0}, {"type": "note_off", "time": 74, "note": 72, "velocity": 107, "channel": 0}, {"type": "note_on", "time": 357, "note": 58, "velocity": 88, "channel": 0}, {"type": "note_off", "time": 90, "note": 58, "velocity": 88, "channel": 0}, {"type": "note_on", "time": 9, "note": 62, "velocity": 99, "channel": 0}, {"type": "note_off", "time": 270, "note": 62, "velocity": 99, "channel": 0}, {"type": "note_on", "time": 23, "note": 65, "velocity": 93, "channel": 0}, {"type": "note_off", "time": 79, "note": 65, "velocity": 93, "channel": 0}, {"type": "note_on", "time": 10, "note": 68, "velocity": 100, "channel": 0}, {"type": "note_off", "time": 54, "note": 68, "velocity": 100, "channel": 0}, {"type": "note_on", "time": 2, "note": 67, "velocity": 102, "channel": 0}, {"type": "note_off", "time": 29, "note": 67, "velocity": 102, "channel": 0}, {"type": "end_of_track", "time": 0}]]}