{"ticks_per_beat": 192, "tracks": [[{"type": "track_name", "name": "Melody", "time": 0}, {"type": "set_tempo", "tempo": 833333, "time": 0}, {"type": "key_signature", "key": "C", "time": 0}, {"type": "time_signature", "numerator": 4, "denominator": 4, "clocks_per_click": 24, "notated_32nd_notes_per_beat": 8, "time": 0}, {"type": "note_on", "time": 1358, "note": 72, "velocity": 83, "channel": 0}, {"type": "note_off", "time": 20, "note": 72, "velocity": 83, "channel": 0}, {"type": "note_on", "time": 0, "note": 74, "velocity": 103, "channel": 0}, {"type": "note_off", "time": 26, "note": 74, "velocity": 103, "channel": 0}, {"type": "note_on", "time": 1, "note": 76, "velocity": 103, "channel": 0}, {"type": "note_off", "time": 41, "note": 76, "velocity": 103, "channel": 0}, {"type": "note_on", "time": 1, "note": 77, "velocity": 114, "channel": 0}, {"type": "note_off", "time": 94, "note": 77, "velocity": 114, "channel": 0}, {"type": "note_on", "time": 0, "note": 72, "velocity": 85, "channel": 0}, {"type": "note_off", "time": 41, "note": 72, "velocity": 85, "channel": 0}, {"type": "note_on", "time": 1, "note": 69, "velocity": 95, "channel": 0}, {"type": "note_off", "time": 43, "note": 69, "velocity": 95, "channel": 0}, {"type": "note_on", "time": 3, "note": 65, "velocity": 83, "channel": 0}, {"type": "note_off", "time": 48, "note": 65, "velocity": 83, "channel": 0}, {"type": "note_on", "time": 14, "note": 65, "velocity": 94, "channel": 0}, {"type": "note_off", "time": 44, "note": 65, "velocity": 94, "channel": 0}, {"type": "note_on", "time": 1, "note": 69, "velocity": 75, "channel": 0}, {"type": "note_off", "time": 29, "note": 69, "velocity": 75, "channel": 0}, {"type": "note_on", "time": 1, "note": 72, "velocity": 90, "channel": 0}, {"type": "note_off", "time": 55, "note": 72, "velocity": 90, "channel": 0}, {"type": "note_on", "time": 8, "note": 73, "velocity": 97, "channel": 0}, {"type": "note_off", "time": 41, "note": 73, "velocity": 97, "channel": 0}, {"type": "note_on", "time": 0, "note": 74, "velocity": 94, "channel": 0}, {"type": "note_off", "time": 22, "note": 74, "velocity": 94, "channel": 0}, {"type": "note_on", "time": 2, "note": 70, "velocity": 81, "channel": 0}, {"type": "note_off", "time": 22, "note": 70, "velocity": 81, "channel": 0}, {"type": "note_on", "time": 5, "note": 67, "velocity": 68, "channel": 0}, {"type": "note_off", "time": 28, "note": 67, "velocity": 68, "channel": 0}, {"type": "note_on", "time": 1, "note": 72, "velocity": 106, "channel": 0}, {"type": "note_off", "time": 203, "note": 72, "velocity": 106, "channel": 0}, {"type": "note_on", "time": 12, "note": 70, "velocity": 87, "channel": 0}, {"type": "note_off", "time": 18, "note": 70, "velocity": 87, "channel": 0}, {"type": "note_on", "time": 2, "note": 69, "velocity": 102, "channel": 0}, {"type": "note_off", "time": 21, "note": 69, "velocity": 102, "channel": 0}, {"type": "note_on", "time": 1, "note": 68, "velocity": 99, "channel": 0}, {"type": "note_off", "time": 28, "note": 68, "velocity": 99, "channel": 0}, {"type": "note_on", "time": 16, "note": 67, "velocity": 91, "channel": 0}, {"type": "note_off", "time": 26, "note": 67, "velocity": 91, "channel": 0}, {"type": "note_on", "time": 2, "note": 66, "velocity": 83, "channel": 0}, {"type": "note_off", "time": 21, "note": 66, "velocity": 83, "channel": 0}, {"type": "note_on", "time": 1, "note": 68, "velocity": 98, "channel": 0}, {"type": "note_off", "time": 22, "note": 68, "velocity": 98, "channel": 0}, {"type": "note_on", "time": 4, "note": 66, "velocity": 107, "channel": 0}, {"type": "note_off", "time": 21, "note": 66, "velocity": 107, "channel": 0}, {"type": "note_on", "time": 0, "note": 65, "velocity": 99, "channel": 0}, {"type": "note_off", "time": 48, "note": 65, "velocity": 99, "channel": 0}, {"type": "note_on", "time": 21, "note": 63, "velocity": 102, "channel": 0}, {"type": "note_off", "time": 120, "note": 63, "velocity": 102, "channel": 0}, {"type": "note_on", "time": 2, "note": 61, "velocity": 95, "channel": 0}, {"type": "note_off", "time": 36, "note": 61, "velocity": 95, "channel": 0}, {"type": "note_on", "time": 24, "note": 60, "velocity": 97, "channel": 0}, {"type": "note_off", "time": 22, "note": 60, "velocity": 97, "channel": 0}, {"type": "note_on", "time": 12, "note": 63, "velocity": 96, "channel": 0}, {"type": "note_off", "time": 24, "note": 63, "velocity": 96, "channel": 0}, {"type": "note_on", "time": 6, "note": 66, "velocity": 86, "channel": 0}, {"type": "note_off", "time": 32, "note": 66, "velocity": 86, "channel": 0}, {"type": "note_on", "time": 1, "note": 69, "velocity": 121, "channel": 0}, {"type": "note_off", "time": 48, "note": 69, "velocity": 121, "channel": 0}, {"type": "note_on", "time": 1, "note": 68, "velocity": 108, "channel": 0}, {"type": "note_off", "time": 30, "note": 68, "velocity": 108, "channel": 0}, {"type": "note_on", "time": 1, "note": 69, "velocity": 102, "channel": 0}, {"type": "note_off", "time": 22, "note": 69, "velocity": 102, "channel": 0}, {"type": "note_on", "time": 5, "note": 68, "velocity": 97, "channel": 0}, {"type": "note_off", "time": 32, "note": 68, "velocity": 97, "channel": 0}, {"type": "note_on", "time": 1, "note": 66, "velocity": 98, "channel": 0}, {"type": "note_off", "time": 20, "note": 66, "velocity": 98, "channel": 0}, {"type": "note_on", "time": 89, "note": 61, "velocity": 105, "channel": 0}, {"type": "note_off", "time": 34, "note": 61, "velocity": 105, "channel": 0}, {"type": "note_on", "time": 4, "note": 64, "velocity": 94, "channel": 0}, {"type": "note_off", "time": 24, "note": 64, "velocity": 94, "channel": 0}, {"type": "note_on", "time": 7, "note": 65, "velocity": 83, "channel": 0}, {"type": "note_off", "time": 42, "note": 65, "velocity": 83, "channel": 0}, {"type": "note_on", "time": 6, "note": 68, "velocity": 112, "channel": 0}, {"type": "note_off", "time": 62, "note": 68, "velocity": 112, "channel": 0}, {"type": "note_on", "time": 40, "note": 68, "velocity": 97, "channel": 0}, {"type": "note_off", "time": 594, "note": 68, "velocity": 97, "channel": 0}, {"type": "note_on", "time": 127, "note": 77, "velocity": 89, "channel": 0}, {"type": "note_off", "time": 56, "note": 77, "velocity": 89, "channel": 0}, {"type": "note_on", "time": 1, "note": 79, "velocity": 98, "channel": 0}, {"type": "note_off", "time": 28, "note": 79, "velocity": 98, "channel": 0}, {"type": "note_on", "time": 0, "note": 80, "velocity": 113, "channel": 0}, {"type": "note_off", "time": 28, "note": 80, "velocity": 113, "channel": 0}, {"type": "note_on", "time": 1, "note": 79, "velocity": 112, "channel": 0}, {"type": "note_off", "time": 24, "note": 79, "velocity": 112, "channel": 0}, {"type": "note_on", "time": 1, "note": 77, "velocity": 97, "channel": 0}, {"type": "note_off", "time": 56, "note": 77, "velocity": 97, "channel": 0}, {"type": "note_on", "time": 1, "note": 75, "velocity": 116, "channel": 0}, {"type": "note_off", "time": 73, "note": 75, "velocity": 116, "channel": 0}, {"type": "note_on", "time": 3, "note": 73, "velocity": 99, "channel": 0}, {"type": "note_off", "time": 50, "note": 73, "velocity": 99, "channel": 0}, {"type": "note_on", "time": 1, "note": 70, "velocity": 101, "channel": 0}, {"type": "note_off", "time": 41, "note": 70, "velocity": 101, "channel": 0}, {"type": "note_on", "time": 3, "note": 67, "velocity": 67, "channel": 0}, {"type": "note_off", "time": 35, "note": 67, "velocity": 67, "channel": 0}, {"type": "note_on", "time": 0, "note": 72, "velocity": 99, "channel": 0}, {"type": "note_off", "time": 60, "note": 72, "velocity": 99, "channel": 0}, {"type": "note_on", "time": 7, "note": 70, "velocity": 95, "channel": 0}, {"type": "note_off", "time": 37, "note": 70, "velocity": 95, "channel": 0}, {"type": "note_on", "time": 0, "note": 68, "velocity": 106, "channel": 0}, {"type": "note_off", "time": 43, "note": 68, "velocity": 106, "channel": 0}, {"type": "note_on", "time": 5, "note": 60, "velocity": 95, "channel": 0}, {"type": "note_off", "time": 43, "note": 60, "velocity": 95, "channel": 0}, {"type": "note_on", "time": 9, "note": 67, "velocity": 103, "channel": 0}, {"type": "note_off", "time": 65, "note": 67, "velocity": 103, "channel": 0}, {"type": "note_on", "time": 0, "note": 65, "velocity": 74, "channel": 0}, {"type": "note_on", "time": 31, "note": 67, "velocity": 99, "channel": 0}, {"type": "note_off", "time": 0, "note": 65, "velocity": 74, "channel": 0}, {"type": "note_off", "time": 52, "note": 67, "velocity": 99, "channel": 0}, {"type": "note_on", "time": 5, "note": 68, "velocity": 104, "channel": 0}, {"type": "note_off", "time": 193, "note": 68, "velocity": 104, "channel": 0}, {"type": "note_on", "time": 0, "note": 60, "velocity": 87, "channel": 0}, {"type": "note_off", "time": 48, "note": 60, "velocity": 87, "channel": 0}, {"type": "note_on", "time": 1, "note": 65, "velocity": 92, "channel": 0}, {"type": "note_off", "time": 13, "note": 65, "velocity": 92, "channel": 0}, {"type": "note_on", "time": 1, "note": 67, "velocity": 102, "channel": 0}, {"type": "note_off", "time": 12, "note": 67, "velocity": 102, "channel": 0}, {"type": "note_on", "time": 0, "note": 68, "velocity": 100, "channel": 0}, {"type": "note_off", "time": 12, "note": 68, "velocity": 100, "channel": 0}, {"type": "note_on", "time": 0, "note": 70, "velocity": 97, "channel": 0}, {"type": "note_off", "time": 18, "note": 70, "velocity": 97, "channel": 0}, {"type": "note_on", "time": 3, "note": 72, "velocity": 80, "channel": 0}, {"type": "note_on", "time": 26, "note": 77, "velocity": 114, "channel": 0}, {"type": "note_off", "time": 0, "note": 72, "velocity": 80, "channel": 0}, {"type": "note_off", "time": 19, "note": 77, "velocity": 114, "channel": 0}, {"type": "note_on", "time": 0, "note": 72, "velocity": 99, "channel": 0}, {"type": "note_off", "time": 14, "note": 72, "velocity": 99, "channel": 0}, {"type": "note_on", "time": 8, "note": 70, "velocity": 100, "channel": 0}, {"type": "note_off", "time": 12, "note": 70, "velocity": 100, "channel": 0}, {"type": "note_on", "time": 17, "note": 68, "velocity": 100, "channel": 0}, {"type": "note_off", "time": 15, "note": 68, "velocity": 100, "channel": 0}, {"type": "note_on", "time": 5, "note": 72, "velocity": 91, "channel": 0}, {"type": "note_off", "time": 23, "note": 72, "velocity": 91, "channel": 0}, {"type": "note_on", "time": 1, "note": 68, "velocity": 98, "channel": 0}, {"type": "note_off", "time": 20, "note": 68, "velocity": 98, "channel": 0}, {"type": "note_on", "time": 0, "note": 67, "velocity": 99, "channel": 0}, {"type": "note_off", "time": 23, "note": 67, "velocity": 99, "channel": 0}, {"type": "note_on", "time": 1, "note": 65, "velocity": 81, "channel": 0}, {"type": "note_on", "time": 18, "note": 67, "velocity": 88, "channel": 0}, {"type": "note_off", "time": 0, "note": 65, "velocity": 81, "channel": 0}, {"type": "note_off", "time": 13, "note": 67, "velocity": 88, "channel": 0}, {"type": "note_on", "time": 1, "note": 68, "velocity": 96, "channel": 0}, {"type": "note_off", "time": 22, "note": 68, "velocity": 96, "channel": 0}, {"type": "note_on", "time": 42, "note": 71, "velocity": 96, "channel": 0}, {"type": "note_off", "time": 20, "note": 71, "velocity": 96, "channel": 0}, {"type": "note_on", "time": 1, "note": 72, "velocity": 85, "channel": 0}, {"type": "note_off", "time": 15, "note": 72, "velocity": 85, "channel": 0}, {"type": "note_on", "time": 0, "note": 71, "velocity": 76, "channel": 0}, {"type": "note_off", "time": 10, "note": 71, "velocity": 76, "channel": 0}, {"type": "note_on", "time": 1, "note": 70, "velocity": 98, "channel": 0}, {"type": "note_off", "time": 301, "note": 70, "velocity": 98, "channel": 0}, {"type": "note_on", "time": 0, "note": 72, "velocity": 93, "channel": 0}, {"type": "note_off", "time": 15, "note": 72, "velocity": 93, "channel": 0}, {"type": "note_on", "time": 1, "note": 71, "velocity": 87, "channel": 0}, {"type": "note_off", "time": 14, "note": 71, "velocity": 87, "channel": 0}, {"type": "note_on", "time": 2, "note": 70, "velocity": 99, "channel": 0}, {"type": "note_off", "time": 15, "note": 70, "velocity": 99, "channel": 0}, {"type": "note_on", "time": 1, "note": 68, "velocity": 108, "channel": 0}, {"type": "note_off", "time": 17, "note": 68, "velocity": 108, "channel": 0}, {"type": "note_on", "time": 28, "note": 65, "velocity": 86, "channel": 0}, {"type": "note_off", "time": 17, "note": 65, "velocity": 86, "channel": 0}, {"type": "note_on", "time": 0, "note": 64, "velocity": 84, "channel": 0}, {"type": "note_off", "time": 19, "note": 64, "velocity": 84, "channel": 0}, {"type": "note_on", "time": 11, "note": 68, "velocity": 97, "channel": 0}, {"type": "note_off", "time": 17, "note": 68, "velocity": 97, "channel": 0}, {"type": "note_on", "time": 4, "note": 73, "velocity": 103, "channel": 0}, {"type": "note_off", "time": 31, "note": 73, "velocity": 103, "channel": 0}, {"type": "note_on", "time": 12, "note": 72, "velocity": 105, "channel": 0}, {"type": "note_off", "time": 184, "note": 72, "velocity": 105, "channel": 0}, {"type": "note_on", "time": 2, "note": 70, "velocity": 94, "channel": 0}, {"type": "note_off", "time": 30, "note": 70, "velocity": 94, "channel": 0}, {"type": "note_on", "time": 264, "note": 68, "velocity": 105, "channel": 0}, {"type": "note_off", "time": 29, "note": 68, "velocity": 105, "channel": 0}, {"type": "note_on", "time": 1, "note": 69, "velocity": 105, "channel": 0}, {"type": "note_off", "time": 33, "note": 69, "velocity": 105, "channel": 0}, {"type": "note_on", "time": 0, "note": 72, "velocity": 95, "channel": 0}, {"type": "note_off", "time": 15, "note": 72, "velocity": 95, "channel": 0}, {"type": "note_on", "time": 1, "note": 76, "velocity": 118, "channel": 0}, {"type": "note_off", "time": 45, "note": 76, "velocity": 118, "channel": 0}, {"type": "note_on", "time": 0, "note": 79, "velocity": 109, "channel": 0}, {"type": "note_off", "time": 56, "note": 79, "velocity": 109, "channel": 0}, {"type": "note_on", "time": 2, "note": 76, "velocity": 99, "channel": 0}, {"type": "note_off", "time": 26, "note": 76, "velocity": 99, "channel": 0}, {"type": "note_on", "time": 1, "note": 77, "velocity": 105, "channel": 0}, {"type": "note_off", "time": 48, "note": 77, "velocity": 105, "channel": 0}, {"type": "note_on", "time": 0, "note": 79, "velocity": 97, "channel": 0}, {"type": "note_off", "time": 44, "note": 79, "velocity": 97, "channel": 0}, {"type": "note_on", "time": 2, "note": 81, "velocity": 109, "channel": 0}, {"type": "note_off", "time": 44, "note": 81, "velocity": 109, "channel": 0}, {"type": "note_on", "time": 0, "note": 82, "velocity": 108, "channel": 0}, {"type": "note_off", "time": 39, "note": 82, "velocity": 108, "channel": 0}, {"type": "note_on", "time": 15, "note": 83, "velocity": 94, "channel": 0}, {"type": "note_off", "time": 25, "note": 83, "velocity": 94, "channel": 0}, {"type": "note_on", "time": 1, "note": 84, "velocity": 97, "channel": 0}, {"type": "note_off", "time": 23, "note": 84, "velocity": 97, "channel": 0}, {"type": "note_on", "time": 1, "note": 83, "velocity": 92, "channel": 0}, {"type": "note_off", "time": 35, "note": 83, "velocity": 92, "channel": 0}, {"type": "note_on", "time": 6, "note": 82, "velocity": 99, "channel": 0}, {"type": "note_off", "time": 46, "note": 82, "velocity": 99, "channel": 0}, {"type": "note_on", "time": 6, "note": 80, "velocity": 119, "channel": 0}, {"type": "note_off", "time": 39, "note": 80, "velocity": 119, "channel": 0}, {"type": "note_on", "time": 3, "note": 77, "velocity": 108, "channel": 0}, {"type": "note_off", "time": 63, "note": 77, "velocity": 108, "channel": 0}, {"type": "note_on", "time": 23, "note": 79, "velocity": 118, "channel": 0}, {"type": "note_off", "time": 64, "note": 79, "velocity": 118, "channel": 0}, {"type": "note_on", "time": 0, "note": 77, "velocity": 111, "channel": 0}, {"type": "note_off", "time": 30, "note": 77, "velocity": 111, "channel": 0}, {"type": "note_on", "time": 0, "note": 74, "velocity": 104, "channel": 0}, {"type": "note_off", "time": 31, "note": 74, "velocity": 104, "channel": 0}, {"type": "note_on", "time": 2, "note": 72, "velocity": 89, "channel": 0}, {"type": "note_off", "time": 40, "note": 72, "velocity": 89, "channel": 0}, {"type": "note_on", "time": 3, "note": 68, "velocity": 77, "channel": 0}, {"type": "note_off", "time": 36, "note": 68, "velocity": 77, "channel": 0}, {"type": "note_on", "time": 7, "note": 74, "velocity": 110, "channel": 0}, {"type": "note_off", "time": 26, "note": 74, "velocity": 110, "channel": 0}, {"type": "note_on", "time": 2, "note": 75, "velocity": 95, "channel": 0}, {"type": "note_off", "time": 21, "note": 75, "velocity": 95, "channel": 0}, {"type": "note_on", "time": 1, "note": 74, "velocity": 104, "channel": 0}, {"type": "note_off", "time": 18, "note": 74, "velocity": 104, "channel": 0}, {"type": "note_on", "time": 2, "note": 72, "velocity": 95, "channel": 0}, {"type": "note_off", "time": 30, "note": 72, "velocity": 95, "channel": 0}, {"type": "note_on", "time": 6, "note": 74, "velocity": 103, "channel": 0}, {"type": "note_off", "time": 27, "note": 74, "velocity": 103, "channel": 0}, {"type": "note_on", "time": 1, "note": 77, "velocity": 101, "channel": 0}, {"type": "note_off", "time": 36, "note": 77, "velocity": 101, "channel": 0}, {"type": "note_on", "time": 1, "note": 80, "velocity": 110, "channel": 0}, {"type": "note_off", "time": 82, "note": 80, "velocity": 110, "channel": 0}, {"type": "note_on", "time": 47, "note": 82, "velocity": 90, "channel": 0}, {"type": "note_off", "time": 14, "note": 82, "velocity": 90, "channel": 0}, {"type": "note_on", "time": 0, "note": 83, "velocity": 103, "channel": 0}, {"type": "note_off", "time": 60, "note": 83, "velocity": 103, "channel": 0}, {"type": "note_on", "time": 14, "note": 84, "velocity": 85, "channel": 0}, {"type": "note_off", "time": 714, "note": 84, "velocity": 85, "channel": 0}, {"type": "note_on", "time": 66, "note": 83, "velocity": 103, "channel": 0}, {"type": "note_off", "time": 27, "note": 83, "velocity": 103, "channel": 0}, {"type": "note_on", "time": 0, "note": 84, "velocity": 93, "channel": 0}, {"type": "note_off", "time": 45, "note": 84, "velocity": 93, "channel": 0}, {"type": "note_on", "time": 2, "note": 83, "velocity": 107, "channel": 0}, {"type": "note_off", "time": 28, "note": 83, "velocity": 107, "channel": 0}, {"type": "note_on", "time": 2, "note": 84, "velocity": 89, "channel": 0}, {"type": "note_off", "time": 34, "note": 84, "velocity": 89, "channel": 0}, {"type": "note_on", "time": 0, "note": 83, "velocity": 103, "channel": 0}, {"type": "note_off", "time": 31, "note": 83, "velocity": 103, "channel": 0}, {"type": "note_on", "time": 11, "note": 84, "velocity": 85, "channel": 0}, {"type": "note_off", "time": 28, "note": 84, "velocity": 85, "channel": 0}, {"type": "note_on", "time": 2, "note": 80, "velocity": 111, "channel": 0}, {"type": "note_off", "time": 38, "note": 80, "velocity": 111, "channel": 0}, {"type": "note_on", "time": 2, "note": 77, "velocity": 96, "channel": 0}, {"type": "note_off", "time": 31, "note": 77, "velocity": 96, "channel": 0}, {"type": "note_on", "time": 0, "note": 80, "velocity": 127, "channel": 0}, {"type": "note_off", "time": 72, "note": 80, "velocity": 127, "channel": 0}, {"type": "note_on", "time": 2, "note": 77, "velocity": 98, "channel": 0}, {"type": "note_off", "time": 34, "note": 77, "velocity": 98, "channel": 0}, {"type": "note_on", "time": 5, "note": 78, "velocity": 100, "channel": 0}, {"type": "note_off", "time": 30, "note": 78, "velocity": 100, "channel": 0}, {"type": "note_on", "time": 5, "note": 77, "velocity": 102, "channel": 0}, {"type": "note_off", "time": 34, "note": 77, "velocity": 102, "channel": 0}, {"type": "note_on", "time": 1, "note": 78, "velocity": 98, "channel": 0}, {"type": "note_off", "time": 42, "note": 78, "velocity": 98, "channel": 0}, {"type": "note_on", "time": 3, "note": 77, "velocity": 102, "channel": 0}, {"type": "note_off", "time": 48, "note": 77, "velocity": 102, "channel": 0}, {"type": "note_on", "time": 2, "note": 78, "velocity": 90, "channel": 0}, {"type": "note_off", "time": 26, "note": 78, "velocity": 90, "channel": 0}, {"type": "note_on", "time": 1, "note": 76, "velocity": 102, "channel": 0}, {"type": "note_off", "time": 22, "note": 76, "velocity": 102, "channel": 0}, {"type": "note_on", "time": 0, "note": 75, "velocity": 100, "channel": 0}, {"type": "note_off", "time": 18, "note": 75, "velocity": 100, "channel": 0}, {"type": "note_on", "time": 1, "note": 73, "velocity": 96, "channel": 0}, {"type": "note_off", "time": 18, "note": 73, "velocity": 96, "channel": 0}, {"type": "note_on", "time": 0, "note": 75, "velocity": 118, "channel": 0}, {"type": "note_off", "time": 52, "note": 75, "velocity": 118, "channel": 0}, {"type": "note_on", "time": 5, "note": 73, "velocity": 98, "channel": 0}, {"type": "note_off", "time": 26, "note": 73, "velocity": 98, "channel": 0}, {"type": "note_on", "time": 3, "note": 68, "velocity": 87, "channel": 0}, {"type": "note_off", "time": 25, "note": 68, "velocity": 87, "channel": 0}, {"type": "note_on", "time": 6, "note": 71, "velocity": 97, "channel": 0}, {"type": "note_off", "time": 27, "note": 71, "velocity": 97, "channel": 0}, {"type": "note_on", "time": 3, "note": 72, "velocity": 96, "channel": 0}, {"type": "note_off", "time": 23, "note": 72, "velocity": 96, "channel": 0}, {"type": "note_on", "time": 3, "note": 75, "velocity": 111, "channel": 0}, {"type": "note_off", "time": 61, "note": 75, "velocity": 111, "channel": 0}, {"type": "note_on", "time": 7, "note": 75, "velocity": 117, "channel": 0}, {"type": "note_off", "time": 83, "note": 75, "velocity": 117, "channel": 0}, {"type": "note_on", "time": 2, "note": 73, "velocity": 101, "channel": 0}, {"type": "note_off", "time": 17, "note": 73, "velocity": 101, "channel": 0}, {"type": "note_on", "time": 0, "note": 72, "velocity": 86, "channel": 0}, {"type": "note_off", "time": 14, "note": 72, "velocity": 86, "channel": 0}, {"type": "note_on", "time": 0, "note": 75, "velocity": 93, "channel": 0}, {"type": "note_off", "time": 14, "note": 75, "velocity": 93, "channel": 0}, {"type": "note_on", "time": 1, "note": 79, "velocity": 107, "channel": 0}, {"type": "note_off", "time": 21, "note": 79, "velocity": 107, "channel": 0}, {"type": "note_on", "time": 2, "note": 82, "velocity": 109, "channel": 0}, {"type": "note_off", "time": 33, "note": 82, "velocity": 109, "channel": 0}, {"type": "note_on", "time": 2, "note": 79, "velocity": 107, "channel": 0}, {"type": "note_off", "time": 45, "note": 79, "velocity": 107, "channel": 0}, {"type": "note_on", "time": 1, "note": 80, "velocity": 105, "channel": 0}, {"type": "note_off", "time": 45, "note": 80, "velocity": 105, "channel": 0}, {"type": "note_on", "time": 0, "note": 82, "velocity": 99, "channel": 0}, {"type": "note_off", "time": 56, "note": 82, "velocity": 99, "channel": 0}, {"type": "note_on", "time": 1, "note": 84, "velocity": 104, "channel": 0}, {"type": "note_off", "time": 57, "note": 84, "velocity": 104, "channel": 0}, {"type": "note_on", "time": 5, "note": 83, "velocity": 93, "channel": 0}, {"type": "note_off", "time": 20, "note": 83, "velocity": 93, "channel": 0}, {"type": "note_on", "time": 2, "note": 82, "velocity": 110, "channel": 0}, {"type": "note_off", "time": 18, "note": 82, "velocity": 110, "channel": 0}, {"type": "note_on", "time": 1, "note": 80, "velocity": 100, "channel": 0}, {"type": "note_off", "time": 38, "note": 80, "velocity": 100, "channel": 0}, {"type": "note_on", "time": 2, "note": 79, "velocity": 102, "channel": 0}, {"type": "note_off", "time": 88, "note": 79, "velocity": 102, "channel": 0}, {"type": "note_on", "time": 15, "note": 77, "velocity": 109, "channel": 0}, {"type": "note_off", "time": 84, "note": 77, "velocity": 109, "channel": 0}, {"type": "note_on", "time": 11, "note": 77, "velocity": 112, "channel": 0}, {"type": "note_off", "time": 66, "note": 77, "velocity": 112, "channel": 0}, {"type": "note_on", "time": 15, "note": 77, "velocity": 111, "channel": 0}, {"type": "note_off", "time": 61, "note": 77, "velocity": 111, "channel": 0}, {"type": "note_on", "time": 8, "note": 75, "velocity": 92, "channel": 0}, {"type": "note_off", "time": 25, "note": 75, "velocity": 92, "channel": 0}, {"type": "note_on", "time": 2, "note": 74, "velocity": 96, "channel": 0}, {"type": "note_off", "time": 21, "note": 74, "velocity": 96, "channel": 0}, {"type": "note_on", "time": 0, "note": 75, "velocity": 97, "channel": 0}, {"type": "note_off", "time": 22, "note": 75, "velocity": 97, "channel": 0}, {"type": "note_on", "time": 0, "note": 74, "velocity": 89, "channel": 0}, {"type": "note_off", "time": 16, "note": 74, "velocity": 89, "channel": 0}, {"type": "note_on", "time": 4, "note": 72, "velocity": 101, "channel": 0}, {"type": "note_off", "time": 33, "note": 72, "velocity": 101, "channel": 0}, {"type": "note_on", "time": 2, "note": 71, "velocity": 91, "channel": 0}, {"type": "note_off", "time": 30, "note": 71, "velocity": 91, "channel": 0}, {"type": "note_on", "time": 0, "note": 74, "velocity": 97, "channel": 0}, {"type": "note_off", "time": 18, "note": 74, "velocity": 97, "channel": 0}, {"type": "note_on", "time": 1, "note": 77, "velocity": 102, "channel": 0}, {"type": "note_off", "time": 34, "note": 77, "velocity": 102, "channel": 0}, {"type": "note_on", "time": 0, "note": 80, "velocity": 124, "channel": 0}, {"type": "note_off", "time": 66, "note": 80, "velocity": 124, "channel": 0}, {"type": "note_on", "time": 0, "note": 79, "velocity": 114, "channel": 0}, {"type": "note_off", "time": 86, "note": 79, "velocity": 114, "channel": 0}, {"type": "note_on", "time": 4, "note": 74, "velocity": 98, "channel": 0}, {"type": "note_off", "time": 40, "note": 74, "velocity": 98, "channel": 0}, {"type": "note_on", "time": 0, "note": 77, "velocity": 115, "channel": 0}, {"type": "note_off", "time": 61, "note": 77, "velocity": 115, "channel": 0}, {"type": "note_on", "time": 0, "note": 75, "velocity": 85, "channel": 0}, {"type": "note_off", "time": 26, "note": 75, "velocity": 85, "channel": 0}, {"type": "note_on", "time": 17, "note": 67, "velocity": 83, "channel": 0}, {"type": "note_off", "time": 44, "note": 67, "velocity": 83, "channel": 0}, {"type": "note_on", "time": 0, "note": 72, "velocity": 106, "channel": 0}, {"type": "note_off", "time": 45, "note": 72, "velocity": 106, "channel": 0}, {"type": "note_on", "time": 0, "note": 74, "velocity": 99, "channel": 0}, {"type": "note_off", "time": 14, "note": 74, "velocity": 99, "channel": 0}, {"type": "note_on", "time": 0, "note": 75, "velocity": 95, "channel": 0}, {"type": "note_off", "time": 26, "note": 75, "velocity": 95, "channel": 0}, {"type": "note_on", "time": 0, "note": 77, "velocity": 98, "channel": 0}, {"type": "note_off", "time": 32, "note": 77, "velocity": 98, "channel": 0}, {"type": "note_on", "time": 0, "note": 79, "velocity": 107, "channel": 0}, {"type": "note_off", "time": 69, "note": 79, "velocity": 107, "channel": 0}, {"type": "note_on", "time": 8, "note": 69, "velocity": 99, "channel": 0}, {"type": "note_off", "time": 292, "note": 69, "velocity": 99, "channel": 0}, {"type": "note_on", "time": 1, "note": 72, "velocity": 94, "channel": 0}, {"type": "note_off", "time": 94, "note": 72, "velocity": 94, "channel": 0}, {"type": "note_on", "time": 49, "note": 67, "velocity": 94, "channel": 0}, {"type": "note_off", "time": 26, "note": 67, "velocity": 94, "channel": 0}, {"type": "note_on", "time": 3, "note": 63, "velocity": 86, "channel": 0}, {"type": "note_off", "time": 25, "note": 63, "velocity": 86, "channel": 0}, {"type": "note_on", "time": 1, "note": 60, "velocity": 84, "channel": 0}, {"type": "note_off", "time": 33, "note": 60, "velocity": 84, "channel": 0}, {"type": "note_on", "time": 3, "note": 65, "velocity": 85, "channel": 0}, {"type": "note_off", "time": 276, "note": 65, "velocity": 85, "channel": 0}, {"type": "note_on", "time": 16, "note": 65, "velocity": 85, "channel": 0}, {"type": "note_off", "time": 31, "note": 65, "velocity": 85, "channel": 0}, {"type": "note_on", "time": 4, "note": 67, "velocity": 91, "channel": 0}, {"type": "note_off", "time": 27, "note": 67, "velocity": 91, "channel": 0}, {"type": "note_on", "time": 2, "note": 63, "velocity": 97, "channel": 0}, {"type": "note_off", "time": 315, "note": 63, "velocity": 97, "channel": 0}, {"type": "note_on", "time": 6, "note": 59, "velocity": 93, "channel": 0}, {"type": "note_off", "time": 39, "note": 59, "velocity": 93, "channel": 0}, {"type": "note_on", "time": 1, "note": 55, "velocity": 84, "channel": 0}, {"type": "note_off", "time": 39, "note": 55, "velocity": 84, "channel": 0}, {"type": "note_on", "time": 24, "note": 62, "velocity": 95, "channel": 0}, {"type": "note_off", "time": 50, "note": 62, "velocity": 95, "channel": 0}, {"type": "note_on", "time": 24, "note": 60, "velocity": 85, "channel": 0}, {"type": "note_off", "time": 33, "note": 60, "velocity": 85, "channel": 0}, {"type": "note_on", "time": 29, "note": 60, "velocity": 81, "channel": 0}, {"type": "note_off", "time": 42, "note": 60, "velocity": 81, "channel": 0}, {"type": "note_on", "time": 22, "note": 60, "velocity": 88, "channel": 0}, {"type": "note_off", "time": 172, "note": 60, "velocity": 88, "channel": 0}, {"type": "end_of_track", "time": 0}]]}