{"ticks_per_beat": 192, "tracks": [[{"type": "track_name", "name": "Melody", "time": 0}, {"type": "set_tempo", "tempo": 359281, "time": 0}, {"type": "key_signature", "key": "Ab", "time": 0}, {"type": "time_signature", "numerator": 4, "denominator": 4, "clocks_per_click": 24, "notated_32nd_notes_per_beat": 8, "time": 0}, {"type": "note_on", "time": 1856, "note": 83, "velocity": 99, "channel": 0}, {"type": "note_off", "time": 76, "note": 83, "velocity": 99, "channel": 0}, {"type": "note_on", "time": 7, "note": 84, "velocity": 87, "channel": 0}, {"type": "note_off", "time": 149, "note": 84, "velocity": 87, "channel": 0}, {"type": "note_on", "time": 11, "note": 88, "velocity": 88, "channel": 0}, {"type": "note_off", "time": 100, "note": 88, "velocity": 88, "channel": 0}, {"type": "note_on", "time": 4, "note": 84, "velocity": 91, "channel": 0}, {"type": "note_off", "time": 73, "note": 84, "velocity": 91, "channel": 0}, {"type": "note_on", "time": 11, "note": 83, "velocity": 106, "channel": 0}, {"type": "note_off", "time": 82, "note": 83, "velocity": 106, "channel": 0}, {"type": "note_on", "time": 13, "note": 82, "velocity": 104, "channel": 0}, {"type": "note_off", "time": 81, "note": 82, "velocity": 104, "channel": 0}, {"type": "note_on", "time": 5, "note": 80, "velocity": 83, "channel": 0}, {"type": "note_off", "time": 95, "note": 80, "velocity": 83, "channel": 0}, {"type": "note_on", "time": 3, "note": 77, "velocity": 89, "channel": 0}, {"type": "note_off", "time": 74, "note": 77, "velocity": 89, "channel": 0}, {"type": "note_on", "time": 19, "note": 82, "velocity": 94, "channel": 0}, {"type": "note_off", "time": 78, "note": 82, "velocity": 94, "channel": 0}, {"type": "note_on", "time": 15, "note": 79, "velocity": 102, "channel": 0}, {"type": "note_off", "time": 41, "note": 79, "velocity": 102, "channel": 0}, {"type": "note_on", "time": 4, "note": 80, "velocity": 108, "channel": 0}, {"type": "note_off", "time": 48, "note": 80, "velocity": 108, "channel": 0}, {"type": "note_on", "time": 6, "note": 79, "velocity": 97, "channel": 0}, {"type": "note_off", "time": 32, "note": 79, "velocity": 97, "channel": 0}, {"type": "note_on", "time": 3, "note": 77, "velocity": 116, "channel": 0}, {"type": "note_off", "time": 49, "note": 77, "velocity": 116, "channel": 0}, {"type": "note_on", "time": 11, "note": 76, "velocity": 104, "channel": 0}, {"type": "note_off", "time": 79, "note": 76, "velocity": 104, "channel": 0}, {"type": "note_on", "time": 7, "note": 75, "velocity": 116, "channel": 0}, {"type": "note_off", "time": 87, "note": 75, "velocity": 116, "channel": 0}, {"type": "note_on", "time": 12, "note": 73, "velocity": 103, "channel": 0}, {"type": "note_off", "time": 70, "note": 73, "velocity": 103, "channel": 0}, {"type": "note_on", "time": 11, "note": 72, "velocity": 100, "channel": 0}, {"type": "note_off", "time": 83, "note": 72, "velocity": 100, "channel": 0}, {"type": "note_on", "time": 16, "note": 70, "velocity": 95, "channel": 0}, {"type": "note_off", "time": 64, "note": 70, "velocity": 95, "channel": 0}, {"type": "note_on", "time": 43, "note": 65, "velocity": 82, "channel": 0}, {"type": "note_off", "time": 63, "note": 65, "velocity": 82, "channel": 0}, {"type": "note_on", "time": 13, "note": 68, "velocity": 97, "channel": 0}, {"type": "note_off", "time": 76, "note": 68, "velocity": 97, "channel": 0}, {"type": "note_on", "time": 10, "note": 65, "velocity": 82, "channel": 0}, {"type": "note_off", "time": 103, "note": 65, "velocity": 82, "channel": 0}, {"type": "note_on", "time": 8, "note": 67, "velocity": 120, "channel": 0}, {"type": "note_off", "time": 73, "note": 67, "velocity": 120, "channel": 0}, {"type": "note_on", "time": 20, "note": 65, "velocity": 100, "channel": 0}, {"type": "note_off", "time": 100, "note": 65, "velocity": 100, "channel": 0}, {"type": "note_on", "time": 10, "note": 60, "velocity": 88, "channel": 0}, {"type": "note_off", "time": 64, "note": 60, "velocity": 88, "channel": 0}, {"type": "note_on", "time": 46, "note": 65, "velocity": 98, "channel": 0}, {"type": "note_off", "time": 64, "note": 65, "velocity": 98, "channel": 0}, {"type": "note_on", "time": 14, "note": 68, "velocity": 94, "channel": 0}, {"type": "note_off", "time": 61, "note": 68, "velocity": 94, "channel": 0}, {"type": "note_on", "time": 28, "note": 72, "velocity": 98, "channel": 0}, {"type": "note_off", "time": 111, "note": 72, "velocity": 98, "channel": 0}, {"type": "note_on", "time": 11, "note": 70, "velocity": 77, "channel": 0}, {"type": "note_off", "time": 51, "note": 70, "velocity": 77, "channel": 0}, {"type": "note_on", "time": 17, "note": 72, "velocity": 98, "channel": 0}, {"type": "note_off", "time": 119, "note": 72, "velocity": 98, "channel": 0}, {"type": "note_on", "time": 13, "note": 70, "velocity": 94, "channel": 0}, {"type": "note_off", "time": 148, "note": 70, "velocity": 94, "channel": 0}, {"type": "note_on", "time": 45, "note": 72, "velocity": 115, "channel": 0}, {"type": "note_off", "time": 62, "note": 72, "velocity": 115, "channel": 0}, {"type": "note_on", "time": 10, "note": 73, "velocity": 92, "channel": 0}, {"type": "note_off", "time": 80, "note": 73, "velocity": 92, "channel": 0}, {"type": "note_on", "time": 15, "note": 75, "velocity": 117, "channel": 0}, {"type": "note_off", "time": 71, "note": 75, "velocity": 117, "channel": 0}, {"type": "note_on", "time": 8, "note": 78, "velocity": 96, "channel": 0}, {"type": "note_off", "time": 133, "note": 78, "velocity": 96, "channel": 0}, {"type": "note_on", "time": 8, "note": 76, "velocity": 81, "channel": 0}, {"type": "note_off", "time": 59, "note": 76, "velocity": 81, "channel": 0}, {"type": "note_on", "time": 13, "note": 78, "velocity": 96, "channel": 0}, {"type": "note_off", "time": 123, "note": 78, "velocity": 96, "channel": 0}, {"type": "note_on", "time": 8, "note": 76, "velocity": 96, "channel": 0}, {"type": "note_off", "time": 163, "note": 76, "velocity": 96, "channel": 0}, {"type": "note_on", "time": 9, "note": 74, "velocity": 84, "channel": 0}, {"type": "note_off", "time": 70, "note": 74, "velocity": 84, "channel": 0}, {"type": "note_on", "time": 9, "note": 75, "velocity": 118, "channel": 0}, {"type": "note_off", "time": 98, "note": 75, "velocity": 118, "channel": 0}, {"type": "note_on", "time": 20, "note": 73, "velocity": 101, "channel": 0}, {"type": "note_off", "time": 88, "note": 73, "velocity": 101, "channel": 0}, {"type": "note_on", "time": 28, "note": 72, "velocity": 78, "channel": 0}, {"type": "note_off", "time": 92, "note": 72, "velocity": 78, "channel": 0}, {"type": "note_on", "time": 162, "note": 71, "velocity": 127, "channel": 0}, {"type": "note_off", "time": 23, "note": 71, "velocity": 127, "channel": 0}, {"type": "note_on", "time": 7, "note": 69, "velocity": 108, "channel": 0}, {"type": "note_off", "time": 47, "note": 69, "velocity": 108, "channel": 0}, {"type": "note_on", "time": 10, "note": 68, "velocity": 95, "channel": 0}, {"type": "note_off", "time": 88, "note": 68, "velocity": 95, "channel": 0}, {"type": "note_on", "time": 14, "note": 66, "velocity": 103, "channel": 0}, {"type": "note_off", "time": 93, "note": 66, "velocity": 103, "channel": 0}, {"type": "note_on", "time": 8, "note": 62, "velocity": 81, "channel": 0}, {"type": "note_off", "time": 94, "note": 62, "velocity": 81, "channel": 0}, {"type": "note_on", "time": 9, "note": 60, "velocity": 88, "channel": 0}, {"type": "note_off", "time": 58, "note": 60, "velocity": 88, "channel": 0}, {"type": "note_on", "time": 11, "note": 61, "velocity": 92, "channel": 0}, {"type": "note_off", "time": 131, "note": 61, "velocity": 92, "channel": 0}, {"type": "note_on", "time": 4, "note": 65, "velocity": 84, "channel": 0}, {"type": "note_off", "time": 62, "note": 65, "velocity": 84, "channel": 0}, {"type": "note_on", "time": 25, "note": 66, "velocity": 82, "channel": 0}, {"type": "note_off", "time": 89, "note": 66, "velocity": 82, "channel": 0}, {"type": "note_on", "time": 4, "note": 71, "velocity": 98, "channel": 0}, {"type": "note_off", "time": 50, "note": 71, "velocity": 98, "channel": 0}, {"type": "note_on", "time": 19, "note": 73, "velocity": 99, "channel": 0}, {"type": "note_off", "time": 41, "note": 73, "velocity": 99, "channel": 0}, {"type": "note_on", "time": 5, "note": 71, "velocity": 97, "channel": 0}, {"type": "note_off", "time": 58, "note": 71, "velocity": 97, "channel": 0}, {"type": "note_on", "time": 17, "note": 70, "velocity": 103, "channel": 0}, {"type": "note_off", "time": 44, "note": 70, "velocity": 103, "channel": 0}, {"type": "note_on", "time": 10, "note": 68, "velocity": 90, "channel": 0}, {"type": "note_off", "time": 114, "note": 68, "velocity": 90, "channel": 0}, {"type": "note_on", "time": 10, "note": 67, "velocity": 114, "channel": 0}, {"type": "note_off", "time": 82, "note": 67, "velocity": 114, "channel": 0}, {"type": "note_on", "time": 24, "note": 65, "velocity": 85, "channel": 0}, {"type": "note_off", "time": 143, "note": 65, "velocity": 85, "channel": 0}, {"type": "note_on", "time": 13, "note": 62, "velocity": 82, "channel": 0}, {"type": "note_off", "time": 66, "note": 62, "velocity": 82, "channel": 0}, {"type": "note_on", "time": 9, "note": 65, "velocity": 82, "channel": 0}, {"type": "note_off", "time": 47, "note": 65, "velocity": 82, "channel": 0}, {"type": "note_on", "time": 8, "note": 67, "velocity": 99, "channel": 0}, {"type": "note_off", "time": 76, "note": 67, "velocity": 99, "channel": 0}, {"type": "note_on", "time": 4, "note": 68, "velocity": 91, "channel": 0}, {"type": "note_off", "time": 79, "note": 68, "velocity": 91, "channel": 0}, {"type": "note_on", "time": 13, "note": 70, "velocity": 101, "channel": 0}, {"type": "note_off", "time": 75, "note": 70, "velocity": 101, "channel": 0}, {"type": "note_on", "time": 18, "note": 71, "velocity": 86, "channel": 0}, {"type": "note_off", "time": 121, "note": 71, "velocity": 86, "channel": 0}, {"type": "note_on", "time": 11, "note": 67, "velocity": 77, "channel": 0}, {"type": "note_off", "time": 60, "note": 67, "velocity": 77, "channel": 0}, {"type": "note_on", "time": 3, "note": 72, "velocity": 103, "channel": 0}, {"type": "note_off", "time": 102, "note": 72, "velocity": 103, "channel": 0}, {"type": "note_on", "time": 19, "note": 67, "velocity": 93, "channel": 0}, {"type": "note_off", "time": 52, "note": 67, "velocity": 93, "channel": 0}, {"type": "note_on", "time": 7, "note": 74, "velocity": 92, "channel": 0}, {"type": "note_off", "time": 113, "note": 74, "velocity": 92, "channel": 0}, {"type": "note_on", "time": 9, "note": 75, "velocity": 98, "channel": 0}, {"type": "note_off", "time": 76, "note": 75, "velocity": 98, "channel": 0}, {"type": "note_on", "time": 8, "note": 76, "velocity": 99, "channel": 0}, {"type": "note_off", "time": 107, "note": 76, "velocity": 99, "channel": 0}, {"type": "note_on", "time": 11, "note": 72, "velocity": 79, "channel": 0}, {"type": "note_off", "time": 57, "note": 72, "velocity": 79, "channel": 0}, {"type": "note_on", "time": 20, "note": 77, "velocity": 101, "channel": 0}, {"type": "note_off", "time": 80, "note": 77, "velocity": 101, "channel": 0}, {"type": "note_on", "time": 16, "note": 78, "velocity": 96, "channel": 0}, {"type": "note_off", "time": 92, "note": 78, "velocity": 96, "channel": 0}, {"type": "note_on", "time": 4, "note": 79, "velocity": 101, "channel": 0}, {"type": "note_off", "time": 112, "note": 79, "velocity": 101, "channel": 0}, {"type": "note_on", "time": 8, "note": 77, "velocity": 105, "channel": 0}, {"type": "note_off", "time": 65, "note": 77, "velocity": 105, "channel": 0}, {"type": "note_on", "time": 108, "note": 75, "velocity": 105, "channel": 0}, {"type": "note_off", "time": 87, "note": 75, "velocity": 105, "channel": 0}, {"type": "note_on", "time": 7, "note": 76, "velocity": 101, "channel": 0}, {"type": "note_off", "time": 55, "note": 76, "velocity": 101, "channel": 0}, {"type": "note_on", "time": 3, "note": 80, "velocity": 94, "channel": 0}, {"type": "note_off", "time": 45, "note": 80, "velocity": 94, "channel": 0}, {"type": "note_on", "time": 8, "note": 83, "velocity": 109, "channel": 0}, {"type": "note_off", "time": 91, "note": 83, "velocity": 109, "channel": 0}, {"type": "note_on", "time": 11, "note": 80, "velocity": 93, "channel": 0}, {"type": "note_off", "time": 59, "note": 80, "velocity": 93, "channel": 0}, {"type": "note_on", "time": 14, "note": 81, "velocity": 92, "channel": 0}, {"type": "note_off", "time": 69, "note": 81, "velocity": 92, "channel": 0}, {"type": "note_on", "time": 19, "note": 82, "velocity": 109, "channel": 0}, {"type": "note_off", "time": 99, "note": 82, "velocity": 109, "channel": 0}, {"type": "note_on", "time": 8, "note": 80, "velocity": 89, "channel": 0}, {"type": "note_off", "time": 65, "note": 80, "velocity": 89, "channel": 0}, {"type": "note_on", "time": 9, "note": 79, "velocity": 98, "channel": 0}, {"type": "note_off", "time": 103, "note": 79, "velocity": 98, "channel": 0}, {"type": "note_on", "time": 8, "note": 77, "velocity": 99, "channel": 0}, {"type": "note_off", "time": 86, "note": 77, "velocity": 99, "channel": 0}, {"type": "note_on", "time": 13, "note": 75, "velocity": 99, "channel": 0}, {"type": "note_off", "time": 103, "note": 75, "velocity": 99, "channel": 0}, {"type": "note_on", "time": 7, "note": 71, "velocity": 113, "channel": 0}, {"type": "note_off", "time": 41, "note": 71, "velocity": 113, "channel": 0}, {"type": "note_on", "time": 9, "note": 67, "velocity": 85, "channel": 0}, {"type": "note_off", "time": 136, "note": 67, "velocity": 85, "channel": 0}, {"type": "note_on", "time": 13, "note": 63, "velocity": 79, "channel": 0}, {"type": "note_off", "time": 56, "note": 63, "velocity": 79, "channel": 0}, {"type": "note_on", "time": 27, "note": 72, "velocity": 105, "channel": 0}, {"type": "note_off", "time": 110, "note": 72, "velocity": 105, "channel": 0}, {"type": "note_on", "time": 6, "note": 68, "velocity": 86, "channel": 0}, {"type": "note_off", "time": 75, "note": 68, "velocity": 86, "channel": 0}, {"type": "note_on", "time": 47, "note": 72, "velocity": 90, "channel": 0}, {"type": "note_off", "time": 53, "note": 72, "velocity": 90, "channel": 0}, {"type": "note_on", "time": 1, "note": 75, "velocity": 101, "channel": 0}, {"type": "note_off", "time": 83, "note": 75, "velocity": 101, "channel": 0}, {"type": "note_on", "time": 5, "note": 79, "velocity": 98, "channel": 0}, {"type": "note_off", "time": 104, "note": 79, "velocity": 98, "channel": 0}, {"type": "note_on", "time": 8, "note": 77, "velocity": 98, "channel": 0}, {"type": "note_off", "time": 90, "note": 77, "velocity": 98, "channel": 0}, {"type": "note_on", "time": 9, "note": 75, "velocity": 99, "channel": 0}, {"type": "note_off", "time": 153, "note": 75, "velocity": 99, "channel": 0}, {"type": "note_on", "time": 21, "note": 74, "velocity": 92, "channel": 0}, {"type": "note_off", "time": 180, "note": 74, "velocity": 92, "channel": 0}, {"type": "note_on", "time": 99, "note": 85, "velocity": 102, "channel": 0}, {"type": "note_off", "time": 25, "note": 85, "velocity": 102, "channel": 0}, {"type": "note_on", "time": 4, "note": 83, "velocity": 113, "channel": 0}, {"type": "note_off", "time": 75, "note": 83, "velocity": 113, "channel": 0}, {"type": "note_on", "time": 4, "note": 82, "velocity": 99, "channel": 0}, {"type": "note_off", "time": 92, "note": 82, "velocity": 99, "channel": 0}, {"type": "note_on", "time": 6, "note": 78, "velocity": 91, "channel": 0}, {"type": "note_off", "time": 91, "note": 78, "velocity": 91, "channel": 0}, {"type": "note_on", "time": 13, "note": 76, "velocity": 98, "channel": 0}, {"type": "note_off", "time": 126, "note": 76, "velocity": 98, "channel": 0}, {"type": "note_on", "time": 52, "note": 77, "velocity": 96, "channel": 0}, {"type": "note_off", "time": 106, "note": 77, "velocity": 96, "channel": 0}, {"type": "note_on", "time": 10, "note": 74, "velocity": 91, "channel": 0}, {"type": "note_off", "time": 78, "note": 74, "velocity": 91, "channel": 0}, {"type": "note_on", "time": 7, "note": 75, "velocity": 98, "channel": 0}, {"type": "note_off", "time": 80, "note": 75, "velocity": 98, "channel": 0}, {"type": "note_on", "time": 10, "note": 77, "velocity": 100, "channel": 0}, {"type": "note_off", "time": 82, "note": 77, "velocity": 100, "channel": 0}, {"type": "note_on", "time": 18, "note": 78, "velocity": 79, "channel": 0}, {"type": "note_off", "time": 81, "note": 78, "velocity": 79, "channel": 0}, {"type": "note_on", "time": 4, "note": 76, "velocity": 94, "channel": 0}, {"type": "note_off", "time": 97, "note": 76, "velocity": 94, "channel": 0}, {"type": "note_on", "time": 3, "note": 75, "velocity": 101, "channel": 0}, {"type": "note_off", "time": 93, "note": 75, "velocity": 101, "channel": 0}, {"type": "note_on", "time": 9, "note": 73, "velocity": 106, "channel": 0}, {"type": "note_off", "time": 77, "note": 73, "velocity": 106, "channel": 0}, {"type": "note_on", "time": 22, "note": 74, "velocity": 86, "channel": 0}, {"type": "note_off", "time": 51, "note": 74, "velocity": 86, "channel": 0}, {"type": "note_on", "time": 5, "note": 75, "velocity": 97, "channel": 0}, {"type": "note_off", "time": 40, "note": 75, "velocity": 97, "channel": 0}, {"type": "note_on", "time": 4, "note": 79, "velocity": 94, "channel": 0}, {"type": "note_off", "time": 82, "note": 79, "velocity": 94, "channel": 0}, {"type": "note_on", "time": 0, "note": 82, "velocity": 89, "channel": 0}, {"type": "note_off", "time": 177, "note": 82, "velocity": 89, "channel": 0}, {"type": "note_on", "time": 12, "note": 80, "velocity": 103, "channel": 0}, {"type": "note_off", "time": 98, "note": 80, "velocity": 103, "channel": 0}, {"type": "note_on", "time": 17, "note": 80, "velocity": 95, "channel": 0}, {"type": "note_off", "time": 39, "note": 80, "velocity": 95, "channel": 0}, {"type": "note_on", "time": 9, "note": 81, "velocity": 106, "channel": 0}, {"type": "note_off", "time": 40, "note": 81, "velocity": 106, "channel": 0}, {"type": "note_on", "time": 6, "note": 82, "velocity": 102, "channel": 0}, {"type": "note_off", "time": 32, "note": 82, "velocity": 102, "channel": 0}, {"type": "note_on", "time": 7, "note": 79, "velocity": 108, "channel": 0}, {"type": "note_off", "time": 46, "note": 79, "velocity": 108, "channel": 0}, {"type": "note_on", "time": 7, "note": 78, "velocity": 103, "channel": 0}, {"type": "note_off", "time": 86, "note": 78, "velocity": 103, "channel": 0}, {"type": "note_on", "time": 15, "note": 77, "velocity": 100, "channel": 0}, {"type": "note_off", "time": 83, "note": 77, "velocity": 100, "channel": 0}, {"type": "note_on", "time": 10, "note": 75, "velocity": 101, "channel": 0}, {"type": "note_off", "time": 71, "note": 75, "velocity": 101, "channel": 0}, {"type": "note_on", "time": 28, "note": 74, "velocity": 107, "channel": 0}, {"type": "note_off", "time": 66, "note": 74, "velocity": 107, "channel": 0}, {"type": "note_on", "time": 19, "note": 71, "velocity": 76, "channel": 0}, {"type": "note_off", "time": 68, "note": 71, "velocity": 76, "channel": 0}, {"type": "note_on", "time": 45, "note": 72, "velocity": 79, "channel": 0}, {"type": "note_off", "time": 74, "note": 72, "velocity": 79, "channel": 0}, {"type": "note_on", "time": 16, "note": 74, "velocity": 101, "channel": 0}, {"type": "note_off", "time": 92, "note": 74, "velocity": 101, "channel": 0}, {"type": "note_on", "time": 2, "note": 71, "velocity": 87, "channel": 0}, {"type": "note_off", "time": 74, "note": 71, "velocity": 87, "channel": 0}, {"type": "note_on", "time": 35, "note": 67, "velocity": 82, "channel": 0}, {"type": "note_off", "time": 47, "note": 67, "velocity": 82, "channel": 0}, {"type": "note_on", "time": 38, "note": 69, "velocity": 93, "channel": 0}, {"type": "note_off", "time": 98, "note": 69, "velocity": 93, "channel": 0}, {"type": "note_on", "time": 11, "note": 67, "velocity": 75, "channel": 0}, {"type": "note_off", "time": 61, "note": 67, "velocity": 75, "channel": 0}, {"type": "note_on", "time": 11, "note": 69, "velocity": 89, "channel": 0}, {"type": "note_off", "time": 75, "note": 69, "velocity": 89, "channel": 0}, {"type": "note_on", "time": 20, "note": 71, "velocity": 92, "channel": 0}, {"type": "note_off", "time": 61, "note": 71, "velocity": 92, "channel": 0}, {"type": "note_on", "time": 44, "note": 67, "velocity": 92, "channel": 0}, {"type": "note_off", "time": 86, "note": 67, "velocity": 92, "channel": 0}, {"type": "note_on", "time": 57, "note": 62, "velocity": 82, "channel": 0}, {"type": "note_off", "time": 671, "note": 62, "velocity": 82, "channel": 0}, {"type": "note_on", "time": 247, "note": 75, "velocity": 114, "channel": 0}, {"type": "note_off", "time": 60, "note": 75, "velocity": 114, "channel": 0}, {"type": "note_on", "time": 13, "note": 76, "velocity": 102, "channel": 0}, {"type": "note_off", "time": 55, "note": 76, "velocity": 102, "channel": 0}, {"type": "note_on", "time": 5, "note": 79, "velocity": 90, "channel": 0}, {"type": "note_off", "time": 45, "note": 79, "velocity": 90, "channel": 0}, {"type": "note_on", "time": 4, "note": 83, "velocity": 85, "channel": 0}, {"type": "note_off", "time": 65, "note": 83, "velocity": 85, "channel": 0}, {"type": "note_on", "time": 3, "note": 86, "velocity": 100, "channel": 0}, {"type": "note_off", "time": 135, "note": 86, "velocity": 100, "channel": 0}, {"type": "note_on", "time": 8, "note": 84, "velocity": 104, "channel": 0}, {"type": "note_off", "time": 171, "note": 84, "velocity": 104, "channel": 0}, {"type": "note_on", "time": 17, "note": 79, "velocity": 106, "channel": 0}, {"type": "note_off", "time": 158, "note": 79, "velocity": 106, "channel": 0}, {"type": "note_on", "time": 7, "note": 76, "velocity": 90, "channel": 0}, {"type": "note_off", "time": 82, "note": 76, "velocity": 90, "channel": 0}, {"type": "note_on", "time": 25, "note": 82, "velocity": 94, "channel": 0}, {"type": "note_off", "time": 51, "note": 82, "velocity": 94, "channel": 0}, {"type": "note_on", "time": 10, "note": 83, "velocity": 93, "channel": 0}, {"type": "note_off", "time": 120, "note": 83, "velocity": 93, "channel": 0}, {"type": "note_on", "time": 10, "note": 81, "velocity": 99, "channel": 0}, {"type": "note_off", "time": 100, "note": 81, "velocity": 99, "channel": 0}, {"type": "note_on", "time": 9, "note": 79, "velocity": 98, "channel": 0}, {"type": "note_off", "time": 82, "note": 79, "velocity": 98, "channel": 0}, {"type": "note_on", "time": 9, "note": 78, "velocity": 99, "channel": 0}, {"type": "note_off", "time": 41, "note": 78, "velocity": 99, "channel": 0}, {"type": "note_on", "time": 8, "note": 78, "velocity": 86, "channel": 0}, {"type": "note_off", "time": 38, "note": 78, "velocity": 86, "channel": 0}, {"type": "note_on", "time": 5, "note": 81, "velocity": 100, "channel": 0}, {"type": "note_off", "time": 73, "note": 81, "velocity": 100, "channel": 0}, {"type": "note_on", "time": 19, "note": 75, "velocity": 82, "channel": 0}, {"type": "note_off", "time": 94, "note": 75, "velocity": 82, "channel": 0}, {"type": "note_on", "time": 11, "note": 73, "velocity": 91, "channel": 0}, {"type": "note_off", "time": 76, "note": 73, "velocity": 91, "channel": 0}, {"type": "note_on", "time": 19, "note": 74, "velocity": 99, "channel": 0}, {"type": "note_off", "time": 101, "note": 74, "velocity": 99, "channel": 0}, {"type": "note_on", "time": 8, "note": 72, "velocity": 98, "channel": 0}, {"type": "note_off", "time": 69, "note": 72, "velocity": 98, "channel": 0}, {"type": "note_on", "time": 15, "note": 69, "velocity": 74, "channel": 0}, {"type": "note_off", "time": 95, "note": 69, "velocity": 74, "channel": 0}, {"type": "note_on", "time": 11, "note": 70, "velocity": 88, "channel": 0}, {"type": "note_off", "time": 66, "note": 70, "velocity": 88, "channel": 0}, {"type": "note_on", "time": 13, "note": 71, "velocity": 82, "channel": 0}, {"type": "note_off", "time": 65, "note": 71, "velocity": 82, "channel": 0}, {"type": "note_on", "time": 15, "note": 74, "velocity": 98, "channel": 0}, {"type": "note_off", "time": 80, "note": 74, "velocity": 98, "channel": 0}, {"type": "note_on", "time": 5, "note": 76, "velocity": 87, "channel": 0}, {"type": "note_off", "time": 166, "note": 76, "velocity": 87, "channel": 0}, {"type": "note_on", "time": 25, "note": 79, "velocity": 104, "channel": 0}, {"type": "note_off", "time": 131, "note": 79, "velocity": 104, "channel": 0}, {"type": "note_on", "time": 1, "note": 74, "velocity": 83, "channel": 0}, {"type": "note_off", "time": 50, "note": 74, "velocity": 83, "channel": 0}, {"type": "note_on", "time": 6, "note": 81, "velocity": 102, "channel": 0}, {"type": "note_off", "time": 78, "note": 81, "velocity": 102, "channel": 0}, {"type": "note_on", "time": 28, "note": 82, "velocity": 99, "channel": 0}, {"type": "note_off", "time": 67, "note": 82, "velocity": 99, "channel": 0}, {"type": "note_on", "time": 12, "note": 83, "velocity": 97, "channel": 0}, {"type": "note_off", "time": 96, "note": 83, "velocity": 97, "channel": 0}, {"type": "note_on", "time": 10, "note": 84, "velocity": 115, "channel": 0}, {"type": "note_off", "time": 90, "note": 84, "velocity": 115, "channel": 0}, {"type": "note_on", "time": 8, "note": 83, "velocity": 96, "channel": 0}, {"type": "note_off", "time": 100, "note": 83, "velocity": 96, "channel": 0}, {"type": "note_on", "time": 11, "note": 79, "velocity": 86, "channel": 0}, {"type": "note_off", "time": 58, "note": 79, "velocity": 86, "channel": 0}, {"type": "note_on", "time": 2, "note": 81, "velocity": 95, "channel": 0}, {"type": "note_off", "time": 200, "note": 81, "velocity": 95, "channel": 0}, {"type": "note_on", "time": 115, "note": 87, "velocity": 97, "channel": 0}, {"type": "note_off", "time": 59, "note": 87, "velocity": 97, "channel": 0}, {"type": "note_on", "time": 4, "note": 88, "velocity": 102, "channel": 0}, {"type": "note_off", "time": 189, "note": 88, "velocity": 102, "channel": 0}, {"type": "note_on", "time": 6, "note": 86, "velocity": 100, "channel": 0}, {"type": "note_off", "time": 91, "note": 86, "velocity": 100, "channel": 0}, {"type": "note_on", "time": 17, "note": 84, "velocity": 101, "channel": 0}, {"type": "note_off", "time": 125, "note": 84, "velocity": 101, "channel": 0}, {"type": "note_on", "time": 10, "note": 81, "velocity": 86, "channel": 0}, {"type": "note_off", "time": 44, "note": 81, "velocity": 86, "channel": 0}, {"type": "note_on", "time": 15, "note": 83, "velocity": 100, "channel": 0}, {"type": "note_off", "time": 59, "note": 83, "velocity": 100, "channel": 0}, {"type": "note_on", "time": 17, "note": 81, "velocity": 97, "channel": 0}, {"type": "note_off", "time": 92, "note": 81, "velocity": 97, "channel": 0}, {"type": "note_on", "time": 17, "note": 76, "velocity": 90, "channel": 0}, {"type": "note_off", "time": 84, "note": 76, "velocity": 90, "channel": 0}, {"type": "note_on", "time": 8, "note": 79, "velocity": 98, "channel": 0}, {"type": "note_off", "time": 89, "note": 79, "velocity": 98, "channel": 0}, {"type": "note_on", "time": 14, "note": 80, "velocity": 92, "channel": 0}, {"type": "note_off", "time": 66, "note": 80, "velocity": 92, "channel": 0}, {"type": "note_on", "time": 16, "note": 76, "velocity": 92, "channel": 0}, {"type": "note_off", "time": 101, "note": 76, "velocity": 92, "channel": 0}, {"type": "note_on", "time": 15, "note": 71, "velocity": 82, "channel": 0}, {"type": "note_off", "time": 64, "note": 71, "velocity": 82, "channel": 0}, {"type": "note_on", "time": 29, "note": 76, "velocity": 98, "channel": 0}, {"type": "note_off", "time": 339, "note": 76, "velocity": 98, "channel": 0}, {"type": "note_on", "time": 201, "note": 87, "velocity": 87, "channel": 0}, {"type": "note_off", "time": 94, "note": 87, "velocity": 87, "channel": 0}, {"type": "note_on", "time": 8, "note": 88, "velocity": 99, "channel": 0}, {"type": "note_off", "time": 89, "note": 88, "velocity": 99, "channel": 0}, {"type": "note_on", "time": 9, "note": 84, "velocity": 98, "channel": 0}, {"type": "note_off", "time": 100, "note": 84, "velocity": 98, "channel": 0}, {"type": "note_on", "time": 4, "note": 80, "velocity": 86, "channel": 0}, {"type": "note_off", "time": 79, "note": 80, "velocity": 86, "channel": 0}, {"type": "note_on", "time": 16, "note": 76, "velocity": 93, "channel": 0}, {"type": "note_off", "time": 83, "note": 76, "velocity": 93, "channel": 0}, {"type": "note_on", "time": 8, "note": 72, "velocity": 94, "channel": 0}, {"type": "note_off", "time": 77, "note": 72, "velocity": 94, "channel": 0}, {"type": "note_on", "time": 12, "note": 68, "velocity": 89, "channel": 0}, {"type": "note_off", "time": 89, "note": 68, "velocity": 89, "channel": 0}, {"type": "note_on", "time": 5, "note": 60, "velocity": 91, "channel": 0}, {"type": "note_off", "time": 127, "note": 60, "velocity": 91, "channel": 0}, {"type": "note_on", "time": 252, "note": 64, "velocity": 101, "channel": 0}, {"type": "note_off", "time": 72, "note": 64, "velocity": 101, "channel": 0}, {"type": "note_on", "time": 3, "note": 65, "velocity": 92, "channel": 0}, {"type": "note_off", "time": 51, "note": 65, "velocity": 92, "channel": 0}, {"type": "note_on", "time": 8, "note": 68, "velocity": 97, "channel": 0}, {"type": "note_off", "time": 41, "note": 68, "velocity": 97, "channel": 0}, {"type": "note_on", "time": 8, "note": 72, "velocity": 95, "channel": 0}, {"type": "note_off", "time": 75, "note": 72, "velocity": 95, "channel": 0}, {"type": "note_on", "time": 26, "note": 77, "velocity": 97, "channel": 0}, {"type": "note_off", "time": 147, "note": 77, "velocity": 97, "channel": 0}, {"type": "note_on", "time": 20, "note": 72, "velocity": 79, "channel": 0}, {"type": "note_off", "time": 172, "note": 72, "velocity": 79, "channel": 0}, {"type": "note_on", "time": 144, "note": 73, "velocity": 95, "channel": 0}, {"type": "note_off", "time": 60, "note": 73, "velocity": 95, "channel": 0}, {"type": "note_on", "time": 7, "note": 77, "velocity": 82, "channel": 0}, {"type": "note_off", "time": 56, "note": 77, "velocity": 82, "channel": 0}, {"type": "note_on", "time": 6, "note": 80, "velocity": 98, "channel": 0}, {"type": "note_off", "time": 48, "note": 80, "velocity": 98, "channel": 0}, {"type": "note_on", "time": 8, "note": 84, "velocity": 109, "channel": 0}, {"type": "note_off", "time": 95, "note": 84, "velocity": 109, "channel": 0}, {"type": "note_on", "time": 12, "note": 82, "velocity": 86, "channel": 0}, {"type": "note_off", "time": 156, "note": 82, "velocity": 86, "channel": 0}, {"type": "note_on", "time": 7, "note": 80, "velocity": 94, "channel": 0}, {"type": "note_off", "time": 100, "note": 80, "velocity": 94, "channel": 0}, {"type": "note_on", "time": 6, "note": 77, "velocity": 88, "channel": 0}, {"type": "note_off", "time": 64, "note": 77, "velocity": 88, "channel": 0}, {"type": "note_on", "time": 29, "note": 79, "velocity": 104, "channel": 0}, {"type": "note_off", "time": 58, "note": 79, "velocity": 104, "channel": 0}, {"type": "note_on", "time": 4, "note": 82, "velocity": 85, "channel": 0}, {"type": "note_off", "time": 48, "note": 82, "velocity": 85, "channel": 0}, {"type": "note_on", "time": 7, "note": 85, "velocity": 83, "channel": 0}, {"type": "note_off", "time": 57, "note": 85, "velocity": 83, "channel": 0}, {"type": "note_on", "time": 5, "note": 88, "velocity": 105, "channel": 0}, {"type": "note_off", "time": 135, "note": 88, "velocity": 105, "channel": 0}, {"type": "note_on", "time": 5, "note": 87, "velocity": 75, "channel": 0}, {"type": "note_off", "time": 224, "note": 87, "velocity": 75, "channel": 0}, {"type": "note_on", "time": 127, "note": 85, "velocity": 103, "channel": 0}, {"type": "note_off", "time": 86, "note": 85, "velocity": 103, "channel": 0}, {"type": "note_on", "time": 4, "note": 83, "velocity": 93, "channel": 0}, {"type": "note_off", "time": 41, "note": 83, "velocity": 93, "channel": 0}, {"type": "note_on", "time": 15, "note": 84, "velocity": 96, "channel": 0}, {"type": "note_off", "time": 43, "note": 84, "velocity": 96, "channel": 0}, {"type": "note_on", "time": 9, "note": 83, "velocity": 94, "channel": 0}, {"type": "note_off", "time": 63, "note": 83, "velocity": 94, "channel": 0}, {"type": "note_on", "time": 16, "note": 82, "velocity": 99, "channel": 0}, {"type": "note_off", "time": 89, "note": 82, "velocity": 99, "channel": 0}, {"type": "note_on", "time": 6, "note": 80, "velocity": 92, "channel": 0}, {"type": "note_off", "time": 70, "note": 80, "velocity": 92, "channel": 0}, {"type": "note_on", "time": 20, "note": 83, "velocity": 104, "channel": 0}, {"type": "note_off", "time": 91, "note": 83, "velocity": 104, "channel": 0}, {"type": "note_on", "time": 10, "note": 81, "velocity": 97, "channel": 0}, {"type": "note_off", "time": 91, "note": 81, "velocity": 97, "channel": 0}, {"type": "note_on", "time": 5, "note": 80, "velocity": 82, "channel": 0}, {"type": "note_off", "time": 86, "note": 80, "velocity": 82, "channel": 0}, {"type": "note_on", "time": 8, "note": 78, "velocity": 94, "channel": 0}, {"type": "note_off", "time": 74, "note": 78, "velocity": 94, "channel": 0}, {"type": "note_on", "time": 11, "note": 77, "velocity": 85, "channel": 0}, {"type": "note_off", "time": 102, "note": 77, "velocity": 85, "channel": 0}, {"type": "note_on", "time": 5, "note": 80, "velocity": 95, "channel": 0}, {"type": "note_off", "time": 71, "note": 80, "velocity": 95, "channel": 0}, {"type": "note_on", "time": 9, "note": 75, "velocity": 94, "channel": 0}, {"type": "note_off", "time": 95, "note": 75, "velocity": 94, "channel": 0}, {"type": "note_on", "time": 14, "note": 72, "velocity": 74, "channel": 0}, {"type": "note_off", "time": 77, "note": 72, "velocity": 74, "channel": 0}, {"type": "note_on", "time": 13, "note": 73, "velocity": 76, "channel": 0}, {"type": "note_off", "time": 94, "note": 73, "velocity": 76, "channel": 0}, {"type": "note_on", "time": 8, "note": 75, "velocity": 102, "channel": 0}, {"type": "note_off", "time": 81, "note": 75, "velocity": 102, "channel": 0}, {"type": "note_on", "time": 8, "note": 76, "velocity": 86, "channel": 0}, {"type": "note_off", "time": 74, "note": 76, "velocity": 86, "channel": 0}, {"type": "note_on", "time": 13, "note": 79, "velocity": 96, "channel": 0}, {"type": "note_off", "time": 79, "note": 79, "velocity": 96, "channel": 0}, {"type": "note_on", "time": 13, "note": 80, "velocity": 88, "channel": 0}, {"type": "note_off", "time": 101, "note": 80, "velocity": 88, "channel": 0}, {"type": "note_on", "time": 11, "note": 78, "velocity": 105, "channel": 0}, {"type": "note_off", "time": 80, "note": 78, "velocity": 105, "channel": 0}, {"type": "note_on", "time": 11, "note": 76, "velocity": 88, "channel": 0}, {"type": "note_off", "time": 77, "note": 76, "velocity": 88, "channel": 0}, {"type": "note_on", "time": 21, "note": 64, "velocity": 92, "channel": 0}, {"type": "note_off", "time": 45, "note": 64, "velocity": 92, "channel": 0}, {"type": "note_on", "time": 7, "note": 68, "velocity": 76, "channel": 0}, {"type": "note_off", "time": 42, "note": 68, "velocity": 76, "channel": 0}, {"type": "note_on", "time": 12, "note": 71, "velocity": 65, "channel": 0}, {"type": "note_off", "time": 76, "note": 71, "velocity": 65, "channel": 0}, {"type": "note_on", "time": 19, "note": 75, "velocity": 118, "channel": 0}, {"type": "note_off", "time": 56, "note": 75, "velocity": 118, "channel": 0}, {"type": "note_on", "time": 19, "note": 73, "velocity": 79, "channel": 0}, {"type": "note_off", "time": 106, "note": 73, "velocity": 79, "channel": 0}, {"type": "note_on", "time": 15, "note": 71, "velocity": 88, "channel": 0}, {"type": "note_off", "time": 48, "note": 71, "velocity": 88, "channel": 0}, {"type": "note_on", "time": 13, "note": 72, "velocity": 89, "channel": 0}, {"type": "note_off", "time": 74, "note": 72, "velocity": 89, "channel": 0}, {"type": "note_on", "time": 13, "note": 75, "velocity": 96, "channel": 0}, {"type": "note_off", "time": 71, "note": 75, "velocity": 96, "channel": 0}, {"type": "note_on", "time": 10, "note": 77, "velocity": 94, "channel": 0}, {"type": "note_off", "time": 121, "note": 77, "velocity": 94, "channel": 0}, {"type": "note_on", "time": 9, "note": 75, "velocity": 87, "channel": 0}, {"type": "note_off", "time": 62, "note": 75, "velocity": 87, "channel": 0}, {"type": "note_on", "time": 7, "note": 79, "velocity": 103, "channel": 0}, {"type": "note_off", "time": 95, "note": 79, "velocity": 103, "channel": 0}, {"type": "note_on", "time": 10, "note": 80, "velocity": 96, "channel": 0}, {"type": "note_off", "time": 81, "note": 80, "velocity": 96, "channel": 0}, {"type": "note_on", "time": 14, "note": 75, "velocity": 93, "channel": 0}, {"type": "note_off", "time": 85, "note": 75, "velocity": 93, "channel": 0}, {"type": "note_on", "time": 12, "note": 73, "velocity": 105, "channel": 0}, {"type": "note_off", "time": 69, "note": 73, "velocity": 105, "channel": 0}, {"type": "note_on", "time": 1, "note": 71, "velocity": 74, "channel": 0}, {"type": "note_off", "time": 107, "note": 71, "velocity": 74, "channel": 0}, {"type": "note_on", "time": 13, "note": 73, "velocity": 94, "channel": 0}, {"type": "note_off", "time": 58, "note": 73, "velocity": 94, "channel": 0}, {"type": "note_on", "time": 6, "note": 74, "velocity": 100, "channel": 0}, {"type": "note_off", "time": 56, "note": 74, "velocity": 100, "channel": 0}, {"type": "note_on", "time": 4, "note": 73, "velocity": 94, "channel": 0}, {"type": "note_off", "time": 36, "note": 73, "velocity": 94, "channel": 0}, {"type": "note_on", "time": 4, "note": 71, "velocity": 107, "channel": 0}, {"type": "note_off", "time": 30, "note": 71, "velocity": 107, "channel": 0}, {"type": "note_on", "time": 9, "note": 69, "velocity": 90, "channel": 0}, {"type": "note_off", "time": 63, "note": 69, "velocity": 90, "channel": 0}, {"type": "note_on", "time": 9, "note": 73, "velocity": 98, "channel": 0}, {"type": "note_off", "time": 101, "note": 73, "velocity": 98, "channel": 0}, {"type": "note_on", "time": 12, "note": 71, "velocity": 112, "channel": 0}, {"type": "note_off", "time": 57, "note": 71, "velocity": 112, "channel": 0}, {"type": "note_on", "time": 33, "note": 68, "velocity": 87, "channel": 0}, {"type": "note_off", "time": 72, "note": 68, "velocity": 87, "channel": 0}, {"type": "note_on", "time": 28, "note": 66, "velocity": 81, "channel": 0}, {"type": "note_off", "time": 48, "note": 66, "velocity": 81, "channel": 0}, {"type": "note_on", "time": 29, "note": 68, "velocity": 104, "channel": 0}, {"type": "note_off", "time": 193, "note": 68, "velocity": 104, "channel": 0}, {"type": "note_on", "time": 169, "note": 61, "velocity": 82, "channel": 0}, {"type": "note_off", "time": 56, "note": 61, "velocity": 82, "channel": 0}, {"type": "note_on", "time": 5, "note": 65, "velocity": 91, "channel": 0}, {"type": "note_off", "time": 69, "note": 65, "velocity": 91, "channel": 0}, {"type": "note_on", "time": 9, "note": 68, "velocity": 88, "channel": 0}, {"type": "note_off", "time": 55, "note": 68, "velocity": 88, "channel": 0}, {"type": "note_on", "time": 7, "note": 70, "velocity": 88, "channel": 0}, {"type": "note_off", "time": 184, "note": 70, "velocity": 88, "channel": 0}, {"type": "note_on", "time": 36, "note": 70, "velocity": 84, "channel": 0}, {"type": "note_off", "time": 51, "note": 70, "velocity": 84, "channel": 0}, {"type": "note_on", "time": 7, "note": 71, "velocity": 88, "channel": 0}, {"type": "note_off", "time": 91, "note": 71, "velocity": 88, "channel": 0}, {"type": "note_on", "time": 38, "note": 65, "velocity": 73, "channel": 0}, {"type": "note_off", "time": 114, "note": 65, "velocity": 73, "channel": 0}, {"type": "note_on", "time": 20, "note": 61, "velocity": 87, "channel": 0}, {"type": "note_off", "time": 219, "note": 61, "velocity": 87, "channel": 0}, {"type": "note_on", "time": 115, "note": 63, "velocity": 89, "channel": 0}, {"type": "note_off", "time": 81, "note": 63, "velocity": 89, "channel": 0}, {"type": "note_on", "time": 4, "note": 67, "velocity": 88, "channel": 0}, {"type": "note_off", "time": 95, "note": 67, "velocity": 88, "channel": 0}, {"type": "note_on", "time": 11, "note": 68, "velocity": 105, "channel": 0}, {"type": "note_off", "time": 75, "note": 68, "velocity": 105, "channel": 0}, {"type": "note_on", "time": 8, "note": 67, "velocity": 90, "channel": 0}, {"type": "note_off", "time": 100, "note": 67, "velocity": 90, "channel": 0}, {"type": "note_on", "time": 6, "note": 65, "velocity": 103, "channel": 0}, {"type": "note_off", "time": 74, "note": 65, "velocity": 103, "channel": 0}, {"type": "note_on", "time": 18, "note": 63, "velocity": 88, "channel": 0}, {"type": "note_off", "time": 182, "note": 63, "velocity": 88, "channel": 0}, {"type": "note_on", "time": 98, "note": 65, "velocity": 101, "channel": 0}, {"type": "note_off", "time": 29, "note": 65, "velocity": 101, "channel": 0}, {"type": "note_on", "time": 6, "note": 63, "velocity": 100, "channel": 0}, {"type": "note_off", "time": 42, "note": 63, "velocity": 100, "channel": 0}, {"type": "note_on", "time": 11, "note": 62, "velocity": 84, "channel": 0}, {"type": "note_off", "time": 106, "note": 62, "velocity": 84, "channel": 0}, {"type": "note_on", "time": 10, "note": 59, "velocity": 92, "channel": 0}, {"type": "note_off", "time": 56, "note": 59, "velocity": 92, "channel": 0}, {"type": "note_on", "time": 5, "note": 60, "velocity": 90, "channel": 0}, {"type": "note_off", "time": 113, "note": 60, "velocity": 90, "channel": 0}, {"type": "note_on", "time": 6, "note": 62, "velocity": 85, "channel": 0}, {"type": "note_off", "time": 76, "note": 62, "velocity": 85, "channel": 0}, {"type": "note_on", "time": 11, "note": 63, "velocity": 83, "channel": 0}, {"type": "note_off", "time": 73, "note": 63, "velocity": 83, "channel": 0}, {"type": "note_on", "time": 15, "note": 67, "velocity": 111, "channel": 0}, {"type": "note_off", "time": 55, "note": 67, "velocity": 111, "channel": 0}, {"type": "note_on", "time": 18, "note": 72, "velocity": 99, "channel": 0}, {"type": "note_off", "time": 27, "note": 72, "velocity": 99, "channel": 0}, {"type": "note_on", "time": 21, "note": 74, "velocity": 92, "channel": 0}, {"type": "note_off", "time": 40, "note": 74, "velocity": 92, "channel": 0}, {"type": "note_on", "time": 21, "note": 74, "velocity": 97, "channel": 0}, {"type": "note_off", "time": 58, "note": 74, "velocity": 97, "channel": 0}, {"type": "note_on", "time": 34, "note": 74, "velocity": 9, "channel": 0}, {"type": "note_off", "time": 161, "note": 74, "velocity": 9, "channel": 0}, {"type": "end_of_track", "time": 0}]]}