{"ticks_per_beat": 192, "tracks": [[{"type": "track_name", "name": "Melody", "time": 0}, {"type": "set_tempo", "tempo": 342857, "time": 0}, {"type": "key_signature", "key": "F", "time": 0}, {"type": "time_signature", "numerator": 4, "denominator": 4, "clocks_per_click": 24, "notated_32nd_notes_per_beat": 8, "time": 0}, {"type": "note_on", "time": 2579, "note": 77, "velocity": 127, "channel": 0}, {"type": "note_off", "time": 87, "note": 77, "velocity": 127, "channel": 0}, {"type": "note_on", "time": 3, "note": 80, "velocity": 118, "channel": 0}, {"type": "note_off", "time": 81, "note": 80, "velocity": 118, "channel": 0}, {"type": "note_on", "time": 0, "note": 82, "velocity": 102, "channel": 0}, {"type": "note_off", "time": 100, "note": 82, "velocity": 102, "channel": 0}, {"type": "note_on", "time": 6, "note": 83, "velocity": 110, "channel": 0}, {"type": "note_off", "time": 68, "note": 83, "velocity": 110, "channel": 0}, {"type": "note_on", "time": 9, "note": 84, "velocity": 100, "channel": 0}, {"type": "note_off", "time": 91, "note": 84, "velocity": 100, "channel": 0}, {"type": "note_on", "time": 19, "note": 82, "velocity": 112, "channel": 0}, {"type": "note_off", "time": 91, "note": 82, "velocity": 112, "channel": 0}, {"type": "note_on", "time": 6, "note": 80, "velocity": 105, "channel": 0}, {"type": "note_off", "time": 74, "note": 80, "velocity": 105, "channel": 0}, {"type": "note_on", "time": 22, "note": 77, "velocity": 109, "channel": 0}, {"type": "note_off", "time": 159, "note": 77, "velocity": 109, "channel": 0}, {"type": "note_on", "time": 32, "note": 77, "velocity": 105, "channel": 0}, {"type": "note_off", "time": 107, "note": 77, "velocity": 105, "channel": 0}, {"type": "note_on", "time": 6, "note": 80, "velocity": 122, "channel": 0}, {"type": "note_off", "time": 71, "note": 80, "velocity": 122, "channel": 0}, {"type": "note_on", "time": 13, "note": 81, "velocity": 105, "channel": 0}, {"type": "note_off", "time": 100, "note": 81, "velocity": 105, "channel": 0}, {"type": "note_on", "time": 19, "note": 77, "velocity": 105, "channel": 0}, {"type": "note_off", "time": 172, "note": 77, "velocity": 105, "channel": 0}, {"type": "note_on", "time": 94, "note": 77, "velocity": 101, "channel": 0}, {"type": "note_off", "time": 120, "note": 77, "velocity": 101, "channel": 0}, {"type": "note_on", "time": 9, "note": 75, "velocity": 109, "channel": 0}, {"type": "note_off", "time": 52, "note": 75, "velocity": 109, "channel": 0}, {"type": "note_on", "time": 32, "note": 74, "velocity": 98, "channel": 0}, {"type": "note_off", "time": 78, "note": 74, "velocity": 98, "channel": 0}, {"type": "note_on", "time": 19, "note": 77, "velocity": 117, "channel": 0}, {"type": "note_off", "time": 94, "note": 77, "velocity": 117, "channel": 0}, {"type": "note_on", "time": 0, "note": 73, "velocity": 101, "channel": 0}, {"type": "note_off", "time": 42, "note": 73, "velocity": 101, "channel": 0}, {"type": "note_on", "time": 3, "note": 74, "velocity": 113, "channel": 0}, {"type": "note_off", "time": 61, "note": 74, "velocity": 113, "channel": 0}, {"type": "note_on", "time": 3, "note": 73, "velocity": 112, "channel": 0}, {"type": "note_off", "time": 58, "note": 73, "velocity": 112, "channel": 0}, {"type": "note_on", "time": 26, "note": 72, "velocity": 91, "channel": 0}, {"type": "note_off", "time": 61, "note": 72, "velocity": 91, "channel": 0}, {"type": "note_on", "time": 18, "note": 70, "velocity": 100, "channel": 0}, {"type": "note_off", "time": 70, "note": 70, "velocity": 100, "channel": 0}, {"type": "note_on", "time": 6, "note": 69, "velocity": 89, "channel": 0}, {"type": "note_off", "time": 121, "note": 69, "velocity": 89, "channel": 0}, {"type": "note_on", "time": 20, "note": 72, "velocity": 110, "channel": 0}, {"type": "note_off", "time": 82, "note": 72, "velocity": 110, "channel": 0}, {"type": "note_on", "time": 2, "note": 67, "velocity": 88, "channel": 0}, {"type": "note_off", "time": 61, "note": 67, "velocity": 88, "channel": 0}, {"type": "note_on", "time": 27, "note": 64, "velocity": 78, "channel": 0}, {"type": "note_off", "time": 68, "note": 64, "velocity": 78, "channel": 0}, {"type": "note_on", "time": 13, "note": 65, "velocity": 106, "channel": 0}, {"type": "note_off", "time": 114, "note": 65, "velocity": 106, "channel": 0}, {"type": "note_on", "time": 25, "note": 63, "velocity": 107, "channel": 0}, {"type": "note_off", "time": 52, "note": 63, "velocity": 107, "channel": 0}, {"type": "note_on", "time": 290, "note": 73, "velocity": 106, "channel": 0}, {"type": "note_off", "time": 61, "note": 73, "velocity": 106, "channel": 0}, {"type": "note_on", "time": 1, "note": 74, "velocity": 123, "channel": 0}, {"type": "note_off", "time": 79, "note": 74, "velocity": 123, "channel": 0}, {"type": "note_on", "time": 11, "note": 73, "velocity": 101, "channel": 0}, {"type": "note_off", "time": 73, "note": 73, "velocity": 101, "channel": 0}, {"type": "note_on", "time": 34, "note": 71, "velocity": 104, "channel": 0}, {"type": "note_off", "time": 35, "note": 71, "velocity": 104, "channel": 0}, {"type": "note_on", "time": 29, "note": 68, "velocity": 103, "channel": 0}, {"type": "note_off", "time": 42, "note": 68, "velocity": 103, "channel": 0}, {"type": "note_on", "time": 30, "note": 66, "velocity": 104, "channel": 0}, {"type": "note_off", "time": 34, "note": 66, "velocity": 104, "channel": 0}, {"type": "note_on", "time": 24, "note": 65, "velocity": 106, "channel": 0}, {"type": "note_off", "time": 87, "note": 65, "velocity": 106, "channel": 0}, {"type": "note_on", "time": 52, "note": 63, "velocity": 103, "channel": 0}, {"type": "note_off", "time": 60, "note": 63, "velocity": 103, "channel": 0}, {"type": "note_on", "time": 4, "note": 62, "velocity": 104, "channel": 0}, {"type": "note_off", "time": 82, "note": 62, "velocity": 104, "channel": 0}, {"type": "note_on", "time": 63, "note": 65, "velocity": 109, "channel": 0}, {"type": "note_off", "time": 65, "note": 65, "velocity": 109, "channel": 0}, {"type": "note_on", "time": 5, "note": 67, "velocity": 96, "channel": 0}, {"type": "note_off", "time": 41, "note": 67, "velocity": 96, "channel": 0}, {"type": "note_on", "time": 13, "note": 68, "velocity": 106, "channel": 0}, {"type": "note_off", "time": 43, "note": 68, "velocity": 106, "channel": 0}, {"type": "note_on", "time": 6, "note": 70, "velocity": 106, "channel": 0}, {"type": "note_off", "time": 43, "note": 70, "velocity": 106, "channel": 0}, {"type": "note_on", "time": 45, "note": 71, "velocity": 103, "channel": 0}, {"type": "note_off", "time": 82, "note": 71, "velocity": 103, "channel": 0}, {"type": "note_on", "time": 10, "note": 70, "velocity": 105, "channel": 0}, {"type": "note_off", "time": 84, "note": 70, "velocity": 105, "channel": 0}, {"type": "note_on", "time": 24, "note": 68, "velocity": 112, "channel": 0}, {"type": "note_off", "time": 61, "note": 68, "velocity": 112, "channel": 0}, {"type": "note_on", "time": 42, "note": 65, "velocity": 104, "channel": 0}, {"type": "note_off", "time": 139, "note": 65, "velocity": 104, "channel": 0}, {"type": "note_on", "time": 63, "note": 61, "velocity": 107, "channel": 0}, {"type": "note_off", "time": 66, "note": 61, "velocity": 107, "channel": 0}, {"type": "note_on", "time": 18, "note": 62, "velocity": 105, "channel": 0}, {"type": "note_off", "time": 41, "note": 62, "velocity": 105, "channel": 0}, {"type": "note_on", "time": 0, "note": 65, "velocity": 98, "channel": 0}, {"type": "note_off", "time": 41, "note": 65, "velocity": 98, "channel": 0}, {"type": "note_on", "time": 4, "note": 67, "velocity": 121, "channel": 0}, {"type": "note_off", "time": 45, "note": 67, "velocity": 121, "channel": 0}, {"type": "note_on", "time": 18, "note": 68, "velocity": 109, "channel": 0}, {"type": "note_off", "time": 48, "note": 68, "velocity": 109, "channel": 0}, {"type": "note_on", "time": 4, "note": 69, "velocity": 99, "channel": 0}, {"type": "note_off", "time": 29, "note": 69, "velocity": 99, "channel": 0}, {"type": "note_on", "time": 2, "note": 70, "velocity": 98, "channel": 0}, {"type": "note_off", "time": 43, "note": 70, "velocity": 98, "channel": 0}, {"type": "note_on", "time": 2, "note": 69, "velocity": 106, "channel": 0}, {"type": "note_off", "time": 32, "note": 69, "velocity": 106, "channel": 0}, {"type": "note_on", "time": 52, "note": 65, "velocity": 115, "channel": 0}, {"type": "note_off", "time": 105, "note": 65, "velocity": 115, "channel": 0}, {"type": "note_on", "time": 13, "note": 60, "velocity": 99, "channel": 0}, {"type": "note_off", "time": 116, "note": 60, "velocity": 99, "channel": 0}, {"type": "note_on", "time": 77, "note": 65, "velocity": 120, "channel": 0}, {"type": "note_off", "time": 73, "note": 65, "velocity": 120, "channel": 0}, {"type": "note_on", "time": 0, "note": 67, "velocity": 103, "channel": 0}, {"type": "note_off", "time": 48, "note": 67, "velocity": 103, "channel": 0}, {"type": "note_on", "time": 9, "note": 69, "velocity": 108, "channel": 0}, {"type": "note_off", "time": 50, "note": 69, "velocity": 108, "channel": 0}, {"type": "note_on", "time": 11, "note": 70, "velocity": 115, "channel": 0}, {"type": "note_off", "time": 54, "note": 70, "velocity": 115, "channel": 0}, {"type": "note_on", "time": 9, "note": 72, "velocity": 115, "channel": 0}, {"type": "note_off", "time": 160, "note": 72, "velocity": 115, "channel": 0}, {"type": "note_on", "time": 0, "note": 62, "velocity": 93, "channel": 0}, {"type": "note_off", "time": 155, "note": 62, "velocity": 93, "channel": 0}, {"type": "note_on", "time": 187, "note": 62, "velocity": 112, "channel": 0}, {"type": "note_off", "time": 66, "note": 62, "velocity": 112, "channel": 0}, {"type": "note_on", "time": 0, "note": 65, "velocity": 107, "channel": 0}, {"type": "note_off", "time": 52, "note": 65, "velocity": 107, "channel": 0}, {"type": "note_on", "time": 6, "note": 69, "velocity": 104, "channel": 0}, {"type": "note_off", "time": 43, "note": 69, "velocity": 104, "channel": 0}, {"type": "note_on", "time": 0, "note": 72, "velocity": 110, "channel": 0}, {"type": "note_off", "time": 57, "note": 72, "velocity": 110, "channel": 0}, {"type": "note_on", "time": 7, "note": 62, "velocity": 115, "channel": 0}, {"type": "note_off", "time": 70, "note": 62, "velocity": 115, "channel": 0}, {"type": "note_on", "time": 5, "note": 67, "velocity": 99, "channel": 0}, {"type": "note_off", "time": 48, "note": 67, "velocity": 99, "channel": 0}, {"type": "note_on", "time": 8, "note": 68, "velocity": 96, "channel": 0}, {"type": "note_off", "time": 50, "note": 68, "velocity": 96, "channel": 0}, {"type": "note_on", "time": 9, "note": 71, "velocity": 106, "channel": 0}, {"type": "note_off", "time": 121, "note": 71, "velocity": 106, "channel": 0}, {"type": "note_on", "time": 9, "note": 69, "velocity": 95, "channel": 0}, {"type": "note_off", "time": 70, "note": 69, "velocity": 95, "channel": 0}, {"type": "note_on", "time": 11, "note": 70, "velocity": 124, "channel": 0}, {"type": "note_off", "time": 75, "note": 70, "velocity": 124, "channel": 0}, {"type": "note_on", "time": 66, "note": 66, "velocity": 97, "channel": 0}, {"type": "note_off", "time": 57, "note": 66, "velocity": 97, "channel": 0}, {"type": "note_on", "time": 13, "note": 67, "velocity": 112, "channel": 0}, {"type": "note_off", "time": 73, "note": 67, "velocity": 112, "channel": 0}, {"type": "note_on", "time": 18, "note": 69, "velocity": 109, "channel": 0}, {"type": "note_off", "time": 86, "note": 69, "velocity": 109, "channel": 0}, {"type": "note_on", "time": 22, "note": 70, "velocity": 97, "channel": 0}, {"type": "note_off", "time": 66, "note": 70, "velocity": 97, "channel": 0}, {"type": "note_on", "time": 27, "note": 72, "velocity": 104, "channel": 0}, {"type": "note_off", "time": 66, "note": 72, "velocity": 104, "channel": 0}, {"type": "note_on", "time": 27, "note": 73, "velocity": 115, "channel": 0}, {"type": "note_off", "time": 48, "note": 73, "velocity": 115, "channel": 0}, {"type": "note_on", "time": 11, "note": 74, "velocity": 113, "channel": 0}, {"type": "note_off", "time": 54, "note": 74, "velocity": 113, "channel": 0}, {"type": "note_on", "time": 4, "note": 73, "velocity": 114, "channel": 0}, {"type": "note_off", "time": 66, "note": 73, "velocity": 114, "channel": 0}, {"type": "note_on", "time": 9, "note": 72, "velocity": 98, "channel": 0}, {"type": "note_off", "time": 75, "note": 72, "velocity": 98, "channel": 0}, {"type": "note_on", "time": 26, "note": 67, "velocity": 98, "channel": 0}, {"type": "note_off", "time": 61, "note": 67, "velocity": 98, "channel": 0}, {"type": "note_on", "time": 7, "note": 72, "velocity": 89, "channel": 0}, {"type": "note_off", "time": 41, "note": 72, "velocity": 89, "channel": 0}, {"type": "note_on", "time": 0, "note": 74, "velocity": 116, "channel": 0}, {"type": "note_off", "time": 48, "note": 74, "velocity": 116, "channel": 0}, {"type": "note_on", "time": 6, "note": 77, "velocity": 115, "channel": 0}, {"type": "note_off", "time": 91, "note": 77, "velocity": 115, "channel": 0}, {"type": "note_on", "time": 2, "note": 79, "velocity": 114, "channel": 0}, {"type": "note_off", "time": 79, "note": 79, "velocity": 114, "channel": 0}, {"type": "note_on", "time": 6, "note": 80, "velocity": 119, "channel": 0}, {"type": "note_off", "time": 100, "note": 80, "velocity": 119, "channel": 0}, {"type": "note_on", "time": 0, "note": 76, "velocity": 123, "channel": 0}, {"type": "note_off", "time": 48, "note": 76, "velocity": 123, "channel": 0}, {"type": "note_on", "time": 61, "note": 72, "velocity": 93, "channel": 0}, {"type": "note_off", "time": 70, "note": 72, "velocity": 93, "channel": 0}, {"type": "note_on", "time": 2, "note": 77, "velocity": 118, "channel": 0}, {"type": "note_off", "time": 283, "note": 77, "velocity": 118, "channel": 0}, {"type": "note_on", "time": 146, "note": 72, "velocity": 80, "channel": 0}, {"type": "note_off", "time": 77, "note": 72, "velocity": 80, "channel": 0}, {"type": "note_on", "time": 9, "note": 74, "velocity": 112, "channel": 0}, {"type": "note_off", "time": 82, "note": 74, "velocity": 112, "channel": 0}, {"type": "note_on", "time": 9, "note": 77, "velocity": 104, "channel": 0}, {"type": "note_off", "time": 77, "note": 77, "velocity": 104, "channel": 0}, {"type": "note_on", "time": 2, "note": 79, "velocity": 121, "channel": 0}, {"type": "note_off", "time": 100, "note": 79, "velocity": 121, "channel": 0}, {"type": "note_on", "time": 4, "note": 80, "velocity": 102, "channel": 0}, {"type": "note_off", "time": 79, "note": 80, "velocity": 102, "channel": 0}, {"type": "note_on", "time": 4, "note": 81, "velocity": 108, "channel": 0}, {"type": "note_off", "time": 96, "note": 81, "velocity": 108, "channel": 0}, {"type": "note_on", "time": 4, "note": 82, "velocity": 95, "channel": 0}, {"type": "note_off", "time": 68, "note": 82, "velocity": 95, "channel": 0}, {"type": "note_on", "time": 6, "note": 83, "velocity": 107, "channel": 0}, {"type": "note_off", "time": 107, "note": 83, "velocity": 107, "channel": 0}, {"type": "note_on", "time": 0, "note": 84, "velocity": 98, "channel": 0}, {"type": "note_off", "time": 84, "note": 84, "velocity": 98, "channel": 0}, {"type": "note_on", "time": 4, "note": 86, "velocity": 115, "channel": 0}, {"type": "note_off", "time": 96, "note": 86, "velocity": 115, "channel": 0}, {"type": "note_on", "time": 0, "note": 87, "velocity": 100, "channel": 0}, {"type": "note_off", "time": 100, "note": 87, "velocity": 100, "channel": 0}, {"type": "note_on", "time": 4, "note": 85, "velocity": 94, "channel": 0}, {"type": "note_off", "time": 68, "note": 85, "velocity": 94, "channel": 0}, {"type": "note_on", "time": 9, "note": 86, "velocity": 108, "channel": 0}, {"type": "note_off", "time": 102, "note": 86, "velocity": 108, "channel": 0}, {"type": "note_on", "time": 2, "note": 84, "velocity": 104, "channel": 0}, {"type": "note_off", "time": 82, "note": 84, "velocity": 104, "channel": 0}, {"type": "note_on", "time": 4, "note": 85, "velocity": 115, "channel": 0}, {"type": "note_off", "time": 105, "note": 85, "velocity": 115, "channel": 0}, {"type": "note_on", "time": 2, "note": 83, "velocity": 111, "channel": 0}, {"type": "note_off", "time": 68, "note": 83, "velocity": 111, "channel": 0}, {"type": "note_on", "time": 18, "note": 84, "velocity": 93, "channel": 0}, {"type": "note_off", "time": 112, "note": 84, "velocity": 93, "channel": 0}, {"type": "note_on", "time": 4, "note": 82, "velocity": 122, "channel": 0}, {"type": "note_off", "time": 57, "note": 82, "velocity": 122, "channel": 0}, {"type": "note_on", "time": 34, "note": 81, "velocity": 112, "channel": 0}, {"type": "note_off", "time": 96, "note": 81, "velocity": 112, "channel": 0}, {"type": "note_on", "time": 6, "note": 79, "velocity": 108, "channel": 0}, {"type": "note_off", "time": 86, "note": 79, "velocity": 108, "channel": 0}, {"type": "note_on", "time": 0, "note": 77, "velocity": 102, "channel": 0}, {"type": "note_off", "time": 100, "note": 77, "velocity": 102, "channel": 0}, {"type": "note_on", "time": 4, "note": 75, "velocity": 102, "channel": 0}, {"type": "note_off", "time": 77, "note": 75, "velocity": 102, "channel": 0}, {"type": "note_on", "time": 2, "note": 74, "velocity": 112, "channel": 0}, {"type": "note_off", "time": 66, "note": 74, "velocity": 112, "channel": 0}, {"type": "note_on", "time": 2, "note": 77, "velocity": 104, "channel": 0}, {"type": "note_off", "time": 52, "note": 77, "velocity": 104, "channel": 0}, {"type": "note_on", "time": 0, "note": 81, "velocity": 107, "channel": 0}, {"type": "note_off", "time": 80, "note": 81, "velocity": 107, "channel": 0}, {"type": "note_on", "time": 11, "note": 84, "velocity": 85, "channel": 0}, {"type": "note_off", "time": 84, "note": 84, "velocity": 85, "channel": 0}, {"type": "note_on", "time": 9, "note": 82, "velocity": 117, "channel": 0}, {"type": "note_off", "time": 63, "note": 82, "velocity": 117, "channel": 0}, {"type": "note_on", "time": 41, "note": 73, "velocity": 90, "channel": 0}, {"type": "note_off", "time": 61, "note": 73, "velocity": 90, "channel": 0}, {"type": "note_on", "time": 32, "note": 71, "velocity": 77, "channel": 0}, {"type": "note_off", "time": 63, "note": 71, "velocity": 77, "channel": 0}, {"type": "note_on", "time": 27, "note": 72, "velocity": 101, "channel": 0}, {"type": "note_off", "time": 75, "note": 72, "velocity": 101, "channel": 0}, {"type": "note_on", "time": 36, "note": 82, "velocity": 104, "channel": 0}, {"type": "note_off", "time": 75, "note": 82, "velocity": 104, "channel": 0}, {"type": "note_on", "time": 16, "note": 79, "velocity": 109, "channel": 0}, {"type": "note_off", "time": 50, "note": 79, "velocity": 109, "channel": 0}, {"type": "note_on", "time": 34, "note": 80, "velocity": 107, "channel": 0}, {"type": "note_off", "time": 66, "note": 80, "velocity": 107, "channel": 0}, {"type": "note_on", "time": 11, "note": 81, "velocity": 102, "channel": 0}, {"type": "note_off", "time": 50, "note": 81, "velocity": 102, "channel": 0}, {"type": "note_on", "time": 4, "note": 82, "velocity": 103, "channel": 0}, {"type": "note_off", "time": 43, "note": 82, "velocity": 103, "channel": 0}, {"type": "note_on", "time": 4, "note": 81, "velocity": 107, "channel": 0}, {"type": "note_off", "time": 73, "note": 81, "velocity": 107, "channel": 0}, {"type": "note_on", "time": 9, "note": 79, "velocity": 111, "channel": 0}, {"type": "note_off", "time": 102, "note": 79, "velocity": 111, "channel": 0}, {"type": "note_on", "time": 4, "note": 77, "velocity": 110, "channel": 0}, {"type": "note_off", "time": 100, "note": 77, "velocity": 110, "channel": 0}, {"type": "note_on", "time": 4, "note": 75, "velocity": 110, "channel": 0}, {"type": "note_off", "time": 48, "note": 75, "velocity": 110, "channel": 0}, {"type": "note_on", "time": 4, "note": 79, "velocity": 115, "channel": 0}, {"type": "note_off", "time": 50, "note": 79, "velocity": 115, "channel": 0}, {"type": "note_on", "time": 4, "note": 82, "velocity": 106, "channel": 0}, {"type": "note_off", "time": 66, "note": 82, "velocity": 106, "channel": 0}, {"type": "note_on", "time": 9, "note": 86, "velocity": 120, "channel": 0}, {"type": "note_off", "time": 105, "note": 86, "velocity": 120, "channel": 0}, {"type": "note_on", "time": 4, "note": 85, "velocity": 102, "channel": 0}, {"type": "note_off", "time": 93, "note": 85, "velocity": 102, "channel": 0}, {"type": "note_on", "time": 11, "note": 81, "velocity": 108, "channel": 0}, {"type": "note_on", "time": 43, "note": 80, "velocity": 109, "channel": 0}, {"type": "note_off", "time": 0, "note": 81, "velocity": 108, "channel": 0}, {"type": "note_off", "time": 43, "note": 80, "velocity": 109, "channel": 0}, {"type": "note_on", "time": 2, "note": 78, "velocity": 110, "channel": 0}, {"type": "note_off", "time": 66, "note": 78, "velocity": 110, "channel": 0}, {"type": "note_on", "time": 16, "note": 77, "velocity": 113, "channel": 0}, {"type": "note_off", "time": 98, "note": 77, "velocity": 113, "channel": 0}, {"type": "note_on", "time": 2, "note": 75, "velocity": 112, "channel": 0}, {"type": "note_off", "time": 45, "note": 75, "velocity": 112, "channel": 0}, {"type": "note_on", "time": 61, "note": 74, "velocity": 102, "channel": 0}, {"type": "note_off", "time": 73, "note": 74, "velocity": 102, "channel": 0}, {"type": "note_on", "time": 0, "note": 77, "velocity": 112, "channel": 0}, {"type": "note_off", "time": 80, "note": 77, "velocity": 112, "channel": 0}, {"type": "note_on", "time": 4, "note": 79, "velocity": 117, "channel": 0}, {"type": "note_off", "time": 105, "note": 79, "velocity": 117, "channel": 0}, {"type": "note_on", "time": 0, "note": 76, "velocity": 88, "channel": 0}, {"type": "note_off", "time": 61, "note": 76, "velocity": 88, "channel": 0}, {"type": "note_on", "time": 36, "note": 79, "velocity": 123, "channel": 0}, {"type": "note_off", "time": 70, "note": 79, "velocity": 123, "channel": 0}, {"type": "note_on", "time": 2, "note": 80, "velocity": 117, "channel": 0}, {"type": "note_off", "time": 32, "note": 80, "velocity": 117, "channel": 0}, {"type": "note_on", "time": 6, "note": 79, "velocity": 117, "channel": 0}, {"type": "note_off", "time": 73, "note": 79, "velocity": 117, "channel": 0}, {"type": "note_on", "time": 2, "note": 77, "velocity": 109, "channel": 0}, {"type": "note_off", "time": 84, "note": 77, "velocity": 109, "channel": 0}, {"type": "note_on", "time": 11, "note": 75, "velocity": 123, "channel": 0}, {"type": "note_off", "time": 73, "note": 75, "velocity": 123, "channel": 0}, {"type": "note_on", "time": 25, "note": 72, "velocity": 88, "channel": 0}, {"type": "note_off", "time": 98, "note": 72, "velocity": 88, "channel": 0}, {"type": "note_on", "time": 11, "note": 70, "velocity": 105, "channel": 0}, {"type": "note_off", "time": 70, "note": 70, "velocity": 105, "channel": 0}, {"type": "note_on", "time": 9, "note": 68, "velocity": 103, "channel": 0}, {"type": "note_off", "time": 64, "note": 68, "velocity": 103, "channel": 0}, {"type": "note_on", "time": 11, "note": 65, "velocity": 86, "channel": 0}, {"type": "note_off", "time": 36, "note": 65, "velocity": 86, "channel": 0}, {"type": "note_on", "time": 0, "note": 67, "velocity": 97, "channel": 0}, {"type": "note_off", "time": 59, "note": 67, "velocity": 97, "channel": 0}, {"type": "note_on", "time": 9, "note": 70, "velocity": 115, "channel": 0}, {"type": "note_off", "time": 50, "note": 70, "velocity": 115, "channel": 0}, {"type": "note_on", "time": 4, "note": 71, "velocity": 108, "channel": 0}, {"type": "note_off", "time": 52, "note": 71, "velocity": 108, "channel": 0}, {"type": "note_on", "time": 0, "note": 70, "velocity": 115, "channel": 0}, {"type": "note_off", "time": 59, "note": 70, "velocity": 115, "channel": 0}, {"type": "note_on", "time": 16, "note": 68, "velocity": 112, "channel": 0}, {"type": "note_off", "time": 93, "note": 68, "velocity": 112, "channel": 0}, {"type": "note_on", "time": 15, "note": 65, "velocity": 93, "channel": 0}, {"type": "note_off", "time": 182, "note": 65, "velocity": 93, "channel": 0}, {"type": "note_on", "time": 82, "note": 62, "velocity": 98, "channel": 0}, {"type": "note_off", "time": 125, "note": 62, "velocity": 98, "channel": 0}, {"type": "note_on", "time": 0, "note": 65, "velocity": 98, "channel": 0}, {"type": "note_off", "time": 68, "note": 65, "velocity": 98, "channel": 0}, {"type": "note_on", "time": 12, "note": 68, "velocity": 103, "channel": 0}, {"type": "note_off", "time": 82, "note": 68, "velocity": 103, "channel": 0}, {"type": "note_on", "time": 5, "note": 69, "velocity": 100, "channel": 0}, {"type": "note_off", "time": 75, "note": 69, "velocity": 100, "channel": 0}, {"type": "note_on", "time": 32, "note": 72, "velocity": 112, "channel": 0}, {"type": "note_off", "time": 123, "note": 72, "velocity": 112, "channel": 0}, {"type": "note_on", "time": 20, "note": 62, "velocity": 113, "channel": 0}, {"type": "note_off", "time": 70, "note": 62, "velocity": 113, "channel": 0}, {"type": "note_on", "time": 102, "note": 62, "velocity": 113, "channel": 0}, {"type": "note_off", "time": 54, "note": 62, "velocity": 113, "channel": 0}, {"type": "note_on", "time": 6, "note": 65, "velocity": 107, "channel": 0}, {"type": "note_off", "time": 59, "note": 65, "velocity": 107, "channel": 0}, {"type": "note_on", "time": 0, "note": 69, "velocity": 102, "channel": 0}, {"type": "note_off", "time": 43, "note": 69, "velocity": 102, "channel": 0}, {"type": "note_on", "time": 6, "note": 72, "velocity": 107, "channel": 0}, {"type": "note_off", "time": 70, "note": 72, "velocity": 107, "channel": 0}, {"type": "note_on", "time": 25, "note": 68, "velocity": 103, "channel": 0}, {"type": "note_off", "time": 50, "note": 68, "velocity": 103, "channel": 0}, {"type": "note_on", "time": 11, "note": 69, "velocity": 107, "channel": 0}, {"type": "note_off", "time": 43, "note": 69, "velocity": 107, "channel": 0}, {"type": "note_on", "time": 11, "note": 70, "velocity": 112, "channel": 0}, {"type": "note_off", "time": 52, "note": 70, "velocity": 112, "channel": 0}, {"type": "note_on", "time": 13, "note": 71, "velocity": 116, "channel": 0}, {"type": "note_off", "time": 64, "note": 71, "velocity": 116, "channel": 0}, {"type": "note_on", "time": 164, "note": 70, "velocity": 122, "channel": 0}, {"type": "note_off", "time": 84, "note": 70, "velocity": 122, "channel": 0}, {"type": "note_on", "time": 22, "note": 66, "velocity": 101, "channel": 0}, {"type": "note_on", "time": 50, "note": 67, "velocity": 109, "channel": 0}, {"type": "note_off", "time": 0, "note": 66, "velocity": 101, "channel": 0}, {"type": "note_off", "time": 105, "note": 67, "velocity": 109, "channel": 0}, {"type": "note_on", "time": 25, "note": 69, "velocity": 108, "channel": 0}, {"type": "note_off", "time": 75, "note": 69, "velocity": 108, "channel": 0}, {"type": "note_on", "time": 0, "note": 70, "velocity": 117, "channel": 0}, {"type": "note_off", "time": 50, "note": 70, "velocity": 117, "channel": 0}, {"type": "note_on", "time": 34, "note": 72, "velocity": 99, "channel": 0}, {"type": "note_off", "time": 70, "note": 72, "velocity": 99, "channel": 0}, {"type": "note_on", "time": 11, "note": 73, "velocity": 113, "channel": 0}, {"type": "note_off", "time": 112, "note": 73, "velocity": 113, "channel": 0}, {"type": "note_on", "time": 20, "note": 74, "velocity": 114, "channel": 0}, {"type": "note_off", "time": 128, "note": 74, "velocity": 114, "channel": 0}, {"type": "note_on", "time": 34, "note": 74, "velocity": 112, "channel": 0}, {"type": "note_off", "time": 96, "note": 74, "velocity": 112, "channel": 0}, {"type": "note_on", "time": 6, "note": 73, "velocity": 119, "channel": 0}, {"type": "note_off", "time": 93, "note": 73, "velocity": 119, "channel": 0}, {"type": "note_on", "time": 4, "note": 71, "velocity": 115, "channel": 0}, {"type": "note_off", "time": 66, "note": 71, "velocity": 115, "channel": 0}, {"type": "note_on", "time": 18, "note": 70, "velocity": 100, "channel": 0}, {"type": "note_off", "time": 84, "note": 70, "velocity": 100, "channel": 0}, {"type": "note_on", "time": 16, "note": 68, "velocity": 111, "channel": 0}, {"type": "note_off", "time": 89, "note": 68, "velocity": 111, "channel": 0}, {"type": "note_on", "time": 13, "note": 66, "velocity": 102, "channel": 0}, {"type": "note_off", "time": 77, "note": 66, "velocity": 102, "channel": 0}, {"type": "note_on", "time": 75, "note": 65, "velocity": 108, "channel": 0}, {"type": "note_off", "time": 102, "note": 65, "velocity": 108, "channel": 0}, {"type": "note_on", "time": 9, "note": 67, "velocity": 115, "channel": 0}, {"type": "note_on", "time": 57, "note": 69, "velocity": 103, "channel": 0}, {"type": "note_off", "time": 0, "note": 67, "velocity": 115, "channel": 0}, {"type": "note_off", "time": 116, "note": 69, "velocity": 103, "channel": 0}, {"type": "note_on", "time": 32, "note": 70, "velocity": 106, "channel": 0}, {"type": "note_off", "time": 75, "note": 70, "velocity": 106, "channel": 0}, {"type": "note_on", "time": 13, "note": 72, "velocity": 114, "channel": 0}, {"type": "note_off", "time": 146, "note": 72, "velocity": 114, "channel": 0}, {"type": "note_on", "time": 139, "note": 65, "velocity": 103, "channel": 0}, {"type": "note_off", "time": 75, "note": 65, "velocity": 103, "channel": 0}, {"type": "note_on", "time": 22, "note": 70, "velocity": 121, "channel": 0}, {"type": "note_off", "time": 61, "note": 70, "velocity": 121, "channel": 0}, {"type": "note_on", "time": 4, "note": 72, "velocity": 100, "channel": 0}, {"type": "note_off", "time": 41, "note": 72, "velocity": 100, "channel": 0}, {"type": "note_on", "time": 4, "note": 70, "velocity": 117, "channel": 0}, {"type": "note_off", "time": 43, "note": 70, "velocity": 117, "channel": 0}, {"type": "note_on", "time": 25, "note": 68, "velocity": 96, "channel": 0}, {"type": "note_off", "time": 80, "note": 68, "velocity": 96, "channel": 0}, {"type": "note_on", "time": 29, "note": 70, "velocity": 112, "channel": 0}, {"type": "note_off", "time": 63, "note": 70, "velocity": 112, "channel": 0}, {"type": "note_on", "time": 6, "note": 72, "velocity": 103, "channel": 0}, {"type": "note_off", "time": 45, "note": 72, "velocity": 103, "channel": 0}, {"type": "note_on", "time": 11, "note": 70, "velocity": 110, "channel": 0}, {"type": "note_off", "time": 41, "note": 70, "velocity": 110, "channel": 0}, {"type": "note_on", "time": 27, "note": 68, "velocity": 114, "channel": 0}, {"type": "note_off", "time": 84, "note": 68, "velocity": 114, "channel": 0}, {"type": "note_on", "time": 191, "note": 65, "velocity": 121, "channel": 0}, {"type": "note_off", "time": 349, "note": 65, "velocity": 121, "channel": 0}, {"type": "end_of_track", "time": 0}]]}