{"ticks_per_beat": 192, "tracks": [[{"type": "track_name", "name": "Melody", "time": 0}, {"type": "set_tempo", "tempo": 327868, "time": 0}, {"type": "key_signature", "key": "C", "time": 0}, {"type": "time_signature", "numerator": 4, "denominator": 4, "clocks_per_click": 24, "notated_32nd_notes_per_beat": 8, "time": 0}, {"type": "note_on", "time": 1754, "note": 76, "velocity": 88, "channel": 0}, {"type": "note_off", "time": 95, "note": 76, "velocity": 88, "channel": 0}, {"type": "note_on", "time": 37, "note": 78, "velocity": 94, "channel": 0}, {"type": "note_off", "time": 71, "note": 78, "velocity": 94, "channel": 0}, {"type": "note_on", "time": 0, "note": 79, "velocity": 115, "channel": 0}, {"type": "note_off", "time": 122, "note": 79, "velocity": 115, "channel": 0}, {"type": "note_on", "time": 6, "note": 76, "velocity": 95, "channel": 0}, {"type": "note_off", "time": 61, "note": 76, "velocity": 95, "channel": 0}, {"type": "note_on", "time": 0, "note": 77, "velocity": 105, "channel": 0}, {"type": "note_off", "time": 95, "note": 77, "velocity": 105, "channel": 0}, {"type": "note_on", "time": 20, "note": 75, "velocity": 102, "channel": 0}, {"type": "note_off", "time": 105, "note": 75, "velocity": 102, "channel": 0}, {"type": "note_on", "time": 0, "note": 76, "velocity": 97, "channel": 0}, {"type": "note_off", "time": 91, "note": 76, "velocity": 97, "channel": 0}, {"type": "note_on", "time": 0, "note": 79, "velocity": 113, "channel": 0}, {"type": "note_off", "time": 88, "note": 79, "velocity": 113, "channel": 0}, {"type": "note_on", "time": 13, "note": 86, "velocity": 123, "channel": 0}, {"type": "note_off", "time": 91, "note": 86, "velocity": 123, "channel": 0}, {"type": "note_on", "time": 20, "note": 84, "velocity": 76, "channel": 0}, {"type": "note_off", "time": 84, "note": 84, "velocity": 76, "channel": 0}, {"type": "note_on", "time": 6, "note": 83, "velocity": 103, "channel": 0}, {"type": "note_off", "time": 159, "note": 83, "velocity": 103, "channel": 0}, {"type": "note_on", "time": 6, "note": 82, "velocity": 100, "channel": 0}, {"type": "note_off", "time": 67, "note": 82, "velocity": 100, "channel": 0}, {"type": "note_on", "time": 16, "note": 83, "velocity": 92, "channel": 0}, {"type": "note_off", "time": 33, "note": 83, "velocity": 92, "channel": 0}, {"type": "note_on", "time": 13, "note": 82, "velocity": 106, "channel": 0}, {"type": "note_on", "time": 71, "note": 81, "velocity": 94, "channel": 0}, {"type": "note_off", "time": 0, "note": 82, "velocity": 106, "channel": 0}, {"type": "note_off", "time": 88, "note": 81, "velocity": 94, "channel": 0}, {"type": "note_on", "time": 27, "note": 80, "velocity": 105, "channel": 0}, {"type": "note_off", "time": 122, "note": 80, "velocity": 105, "channel": 0}, {"type": "note_on", "time": 71, "note": 76, "velocity": 83, "channel": 0}, {"type": "note_off", "time": 57, "note": 76, "velocity": 83, "channel": 0}, {"type": "note_on", "time": 30, "note": 79, "velocity": 98, "channel": 0}, {"type": "note_off", "time": 132, "note": 79, "velocity": 98, "channel": 0}, {"type": "note_on", "time": 0, "note": 77, "velocity": 99, "channel": 0}, {"type": "note_off", "time": 67, "note": 77, "velocity": 99, "channel": 0}, {"type": "note_on", "time": 16, "note": 76, "velocity": 96, "channel": 0}, {"type": "note_off", "time": 44, "note": 76, "velocity": 96, "channel": 0}, {"type": "note_on", "time": 6, "note": 77, "velocity": 88, "channel": 0}, {"type": "note_off", "time": 40, "note": 77, "velocity": 88, "channel": 0}, {"type": "note_on", "time": 10, "note": 76, "velocity": 111, "channel": 0}, {"type": "note_off", "time": 71, "note": 76, "velocity": 111, "channel": 0}, {"type": "note_on", "time": 20, "note": 74, "velocity": 97, "channel": 0}, {"type": "note_off", "time": 81, "note": 74, "velocity": 97, "channel": 0}, {"type": "note_on", "time": 30, "note": 72, "velocity": 91, "channel": 0}, {"type": "note_off", "time": 54, "note": 72, "velocity": 91, "channel": 0}, {"type": "note_on", "time": 6, "note": 73, "velocity": 100, "channel": 0}, {"type": "note_off", "time": 78, "note": 73, "velocity": 100, "channel": 0}, {"type": "note_on", "time": 13, "note": 71, "velocity": 86, "channel": 0}, {"type": "note_off", "time": 27, "note": 71, "velocity": 86, "channel": 0}, {"type": "note_on", "time": 0, "note": 70, "velocity": 104, "channel": 0}, {"type": "note_off", "time": 61, "note": 70, "velocity": 104, "channel": 0}, {"type": "note_on", "time": 30, "note": 69, "velocity": 95, "channel": 0}, {"type": "note_off", "time": 105, "note": 69, "velocity": 95, "channel": 0}, {"type": "note_on", "time": 3, "note": 67, "velocity": 106, "channel": 0}, {"type": "note_off", "time": 74, "note": 67, "velocity": 106, "channel": 0}, {"type": "note_on", "time": 0, "note": 73, "velocity": 91, "channel": 0}, {"type": "note_off", "time": 105, "note": 73, "velocity": 91, "channel": 0}, {"type": "note_on", "time": 13, "note": 75, "velocity": 96, "channel": 0}, {"type": "note_off", "time": 61, "note": 75, "velocity": 96, "channel": 0}, {"type": "note_on", "time": 30, "note": 72, "velocity": 88, "channel": 0}, {"type": "note_off", "time": 67, "note": 72, "velocity": 88, "channel": 0}, {"type": "note_on", "time": 23, "note": 73, "velocity": 100, "channel": 0}, {"type": "note_off", "time": 74, "note": 73, "velocity": 100, "channel": 0}, {"type": "note_on", "time": 0, "note": 74, "velocity": 102, "channel": 0}, {"type": "note_off", "time": 129, "note": 74, "velocity": 102, "channel": 0}, {"type": "note_on", "time": 193, "note": 69, "velocity": 99, "channel": 0}, {"type": "note_off", "time": 74, "note": 69, "velocity": 99, "channel": 0}, {"type": "note_on", "time": 0, "note": 72, "velocity": 94, "channel": 0}, {"type": "note_off", "time": 84, "note": 72, "velocity": 94, "channel": 0}, {"type": "note_on", "time": 13, "note": 69, "velocity": 87, "channel": 0}, {"type": "note_off", "time": 61, "note": 69, "velocity": 87, "channel": 0}, {"type": "note_on", "time": 16, "note": 71, "velocity": 93, "channel": 0}, {"type": "note_off", "time": 64, "note": 71, "velocity": 93, "channel": 0}, {"type": "note_on", "time": 13, "note": 74, "velocity": 96, "channel": 0}, {"type": "note_off", "time": 33, "note": 74, "velocity": 96, "channel": 0}, {"type": "note_on", "time": 10, "note": 77, "velocity": 119, "channel": 0}, {"type": "note_off", "time": 84, "note": 77, "velocity": 119, "channel": 0}, {"type": "note_on", "time": 16, "note": 80, "velocity": 127, "channel": 0}, {"type": "note_off", "time": 44, "note": 80, "velocity": 127, "channel": 0}, {"type": "note_on", "time": 23, "note": 82, "velocity": 103, "channel": 0}, {"type": "note_on", "time": 33, "note": 80, "velocity": 106, "channel": 0}, {"type": "note_off", "time": 0, "note": 82, "velocity": 103, "channel": 0}, {"type": "note_off", "time": 61, "note": 80, "velocity": 106, "channel": 0}, {"type": "note_on", "time": 27, "note": 79, "velocity": 114, "channel": 0}, {"type": "note_off", "time": 91, "note": 79, "velocity": 114, "channel": 0}, {"type": "note_on", "time": 0, "note": 77, "velocity": 104, "channel": 0}, {"type": "note_off", "time": 81, "note": 77, "velocity": 104, "channel": 0}, {"type": "note_on", "time": 3, "note": 76, "velocity": 104, "channel": 0}, {"type": "note_off", "time": 105, "note": 76, "velocity": 104, "channel": 0}, {"type": "note_on", "time": 0, "note": 74, "velocity": 112, "channel": 0}, {"type": "note_off", "time": 101, "note": 74, "velocity": 112, "channel": 0}, {"type": "note_on", "time": 0, "note": 71, "velocity": 102, "channel": 0}, {"type": "note_off", "time": 78, "note": 71, "velocity": 102, "channel": 0}, {"type": "note_on", "time": 91, "note": 73, "velocity": 103, "channel": 0}, {"type": "note_off", "time": 101, "note": 73, "velocity": 103, "channel": 0}, {"type": "note_on", "time": 27, "note": 70, "velocity": 100, "channel": 0}, {"type": "note_off", "time": 84, "note": 70, "velocity": 100, "channel": 0}, {"type": "note_on", "time": 0, "note": 67, "velocity": 92, "channel": 0}, {"type": "note_off", "time": 98, "note": 67, "velocity": 92, "channel": 0}, {"type": "note_on", "time": 3, "note": 68, "velocity": 108, "channel": 0}, {"type": "note_off", "time": 78, "note": 68, "velocity": 108, "channel": 0}, {"type": "note_on", "time": 6, "note": 69, "velocity": 101, "channel": 0}, {"type": "note_off", "time": 84, "note": 69, "velocity": 101, "channel": 0}, {"type": "note_on", "time": 27, "note": 72, "velocity": 111, "channel": 0}, {"type": "note_off", "time": 78, "note": 72, "velocity": 111, "channel": 0}, {"type": "note_on", "time": 0, "note": 68, "velocity": 96, "channel": 0}, {"type": "note_off", "time": 50, "note": 68, "velocity": 96, "channel": 0}, {"type": "note_on", "time": 0, "note": 69, "velocity": 98, "channel": 0}, {"type": "note_off", "time": 54, "note": 69, "velocity": 98, "channel": 0}, {"type": "note_on", "time": 10, "note": 68, "velocity": 105, "channel": 0}, {"type": "note_off", "time": 54, "note": 68, "velocity": 105, "channel": 0}, {"type": "note_on", "time": 23, "note": 67, "velocity": 104, "channel": 0}, {"type": "note_off", "time": 101, "note": 67, "velocity": 104, "channel": 0}, {"type": "note_on", "time": 27, "note": 65, "velocity": 114, "channel": 0}, {"type": "note_off", "time": 71, "note": 65, "velocity": 114, "channel": 0}, {"type": "note_on", "time": 0, "note": 62, "velocity": 104, "channel": 0}, {"type": "note_off", "time": 98, "note": 62, "velocity": 104, "channel": 0}, {"type": "note_on", "time": 6, "note": 63, "velocity": 101, "channel": 0}, {"type": "note_off", "time": 101, "note": 63, "velocity": 101, "channel": 0}, {"type": "note_on", "time": 16, "note": 64, "velocity": 101, "channel": 0}, {"type": "note_off", "time": 84, "note": 64, "velocity": 101, "channel": 0}, {"type": "note_on", "time": 0, "note": 67, "velocity": 99, "channel": 0}, {"type": "note_off", "time": 71, "note": 67, "velocity": 99, "channel": 0}, {"type": "note_on", "time": 0, "note": 69, "velocity": 100, "channel": 0}, {"type": "note_off", "time": 108, "note": 69, "velocity": 100, "channel": 0}, {"type": "note_on", "time": 23, "note": 67, "velocity": 93, "channel": 0}, {"type": "note_off", "time": 57, "note": 67, "velocity": 93, "channel": 0}, {"type": "note_on", "time": 0, "note": 72, "velocity": 122, "channel": 0}, {"type": "note_off", "time": 190, "note": 72, "velocity": 122, "channel": 0}, {"type": "note_on", "time": 316, "note": 67, "velocity": 116, "channel": 0}, {"type": "note_off", "time": 57, "note": 67, "velocity": 116, "channel": 0}, {"type": "note_on", "time": 23, "note": 72, "velocity": 113, "channel": 0}, {"type": "note_off", "time": 78, "note": 72, "velocity": 113, "channel": 0}, {"type": "note_on", "time": 16, "note": 74, "velocity": 124, "channel": 0}, {"type": "note_off", "time": 98, "note": 74, "velocity": 124, "channel": 0}, {"type": "note_on", "time": 0, "note": 75, "velocity": 120, "channel": 0}, {"type": "note_off", "time": 84, "note": 75, "velocity": 120, "channel": 0}, {"type": "note_on", "time": 0, "note": 76, "velocity": 107, "channel": 0}, {"type": "note_off", "time": 108, "note": 76, "velocity": 107, "channel": 0}, {"type": "note_on", "time": 6, "note": 77, "velocity": 112, "channel": 0}, {"type": "note_off", "time": 81, "note": 77, "velocity": 112, "channel": 0}, {"type": "note_on", "time": 13, "note": 78, "velocity": 114, "channel": 0}, {"type": "note_off", "time": 81, "note": 78, "velocity": 114, "channel": 0}, {"type": "note_on", "time": 0, "note": 79, "velocity": 123, "channel": 0}, {"type": "note_off", "time": 98, "note": 79, "velocity": 123, "channel": 0}, {"type": "note_on", "time": 6, "note": 81, "velocity": 110, "channel": 0}, {"type": "note_off", "time": 91, "note": 81, "velocity": 110, "channel": 0}, {"type": "note_on", "time": 0, "note": 82, "velocity": 124, "channel": 0}, {"type": "note_off", "time": 105, "note": 82, "velocity": 124, "channel": 0}, {"type": "note_on", "time": 10, "note": 84, "velocity": 96, "channel": 0}, {"type": "note_off", "time": 54, "note": 84, "velocity": 96, "channel": 0}, {"type": "note_on", "time": 0, "note": 80, "velocity": 108, "channel": 0}, {"type": "note_off", "time": 78, "note": 80, "velocity": 108, "channel": 0}, {"type": "note_on", "time": 0, "note": 81, "velocity": 98, "channel": 0}, {"type": "note_off", "time": 33, "note": 81, "velocity": 98, "channel": 0}, {"type": "note_on", "time": 27, "note": 80, "velocity": 121, "channel": 0}, {"type": "note_off", "time": 67, "note": 80, "velocity": 121, "channel": 0}, {"type": "note_on", "time": 13, "note": 79, "velocity": 109, "channel": 0}, {"type": "note_off", "time": 81, "note": 79, "velocity": 109, "channel": 0}, {"type": "note_on", "time": 0, "note": 77, "velocity": 103, "channel": 0}, {"type": "note_off", "time": 95, "note": 77, "velocity": 103, "channel": 0}, {"type": "note_on", "time": 0, "note": 76, "velocity": 103, "channel": 0}, {"type": "note_off", "time": 64, "note": 76, "velocity": 103, "channel": 0}, {"type": "note_on", "time": 3, "note": 77, "velocity": 109, "channel": 0}, {"type": "note_on", "time": 54, "note": 76, "velocity": 102, "channel": 0}, {"type": "note_off", "time": 0, "note": 77, "velocity": 109, "channel": 0}, {"type": "note_off", "time": 57, "note": 76, "velocity": 102, "channel": 0}, {"type": "note_on", "time": 13, "note": 74, "velocity": 110, "channel": 0}, {"type": "note_off", "time": 122, "note": 74, "velocity": 110, "channel": 0}, {"type": "note_on", "time": 0, "note": 73, "velocity": 107, "channel": 0}, {"type": "note_off", "time": 84, "note": 73, "velocity": 107, "channel": 0}, {"type": "note_on", "time": 3, "note": 74, "velocity": 88, "channel": 0}, {"type": "note_off", "time": 98, "note": 74, "velocity": 88, "channel": 0}, {"type": "note_on", "time": 3, "note": 70, "velocity": 114, "channel": 0}, {"type": "note_off", "time": 67, "note": 70, "velocity": 114, "channel": 0}, {"type": "note_on", "time": 27, "note": 69, "velocity": 97, "channel": 0}, {"type": "note_off", "time": 81, "note": 69, "velocity": 97, "channel": 0}, {"type": "note_on", "time": 6, "note": 67, "velocity": 104, "channel": 0}, {"type": "note_off", "time": 67, "note": 67, "velocity": 104, "channel": 0}, {"type": "note_on", "time": 23, "note": 66, "velocity": 94, "channel": 0}, {"type": "note_off", "time": 84, "note": 66, "velocity": 94, "channel": 0}, {"type": "note_on", "time": 6, "note": 69, "velocity": 105, "channel": 0}, {"type": "note_off", "time": 78, "note": 69, "velocity": 105, "channel": 0}, {"type": "note_on", "time": 20, "note": 72, "velocity": 100, "channel": 0}, {"type": "note_off", "time": 88, "note": 72, "velocity": 100, "channel": 0}, {"type": "note_on", "time": 3, "note": 74, "velocity": 110, "channel": 0}, {"type": "note_on", "time": 91, "note": 75, "velocity": 116, "channel": 0}, {"type": "note_off", "time": 0, "note": 74, "velocity": 110, "channel": 0}, {"type": "note_off", "time": 78, "note": 75, "velocity": 116, "channel": 0}, {"type": "note_on", "time": 3, "note": 76, "velocity": 96, "channel": 0}, {"type": "note_off", "time": 33, "note": 76, "velocity": 96, "channel": 0}, {"type": "note_on", "time": 13, "note": 75, "velocity": 104, "channel": 0}, {"type": "note_off", "time": 50, "note": 75, "velocity": 104, "channel": 0}, {"type": "note_on", "time": 0, "note": 74, "velocity": 104, "channel": 0}, {"type": "note_off", "time": 95, "note": 74, "velocity": 104, "channel": 0}, {"type": "note_on", "time": 13, "note": 72, "velocity": 102, "channel": 0}, {"type": "note_off", "time": 108, "note": 72, "velocity": 102, "channel": 0}, {"type": "note_on", "time": 23, "note": 71, "velocity": 95, "channel": 0}, {"type": "note_on", "time": 61, "note": 80, "velocity": 100, "channel": 0}, {"type": "note_off", "time": 0, "note": 71, "velocity": 95, "channel": 0}, {"type": "note_off", "time": 91, "note": 80, "velocity": 100, "channel": 0}, {"type": "note_on", "time": 0, "note": 77, "velocity": 110, "channel": 0}, {"type": "note_off", "time": 91, "note": 77, "velocity": 110, "channel": 0}, {"type": "note_on", "time": 3, "note": 78, "velocity": 112, "channel": 0}, {"type": "note_off", "time": 88, "note": 78, "velocity": 112, "channel": 0}, {"type": "note_on", "time": 10, "note": 79, "velocity": 115, "channel": 0}, {"type": "note_off", "time": 91, "note": 79, "velocity": 115, "channel": 0}, {"type": "note_on", "time": 13, "note": 79, "velocity": 114, "channel": 0}, {"type": "note_off", "time": 54, "note": 79, "velocity": 114, "channel": 0}, {"type": "note_on", "time": 30, "note": 74, "velocity": 102, "channel": 0}, {"type": "note_off", "time": 74, "note": 74, "velocity": 102, "channel": 0}, {"type": "note_on", "time": 10, "note": 75, "velocity": 101, "channel": 0}, {"type": "note_off", "time": 81, "note": 75, "velocity": 101, "channel": 0}, {"type": "note_on", "time": 16, "note": 76, "velocity": 96, "channel": 0}, {"type": "note_off", "time": 74, "note": 76, "velocity": 96, "channel": 0}, {"type": "note_on", "time": 16, "note": 79, "velocity": 112, "channel": 0}, {"type": "note_off", "time": 84, "note": 79, "velocity": 112, "channel": 0}, {"type": "note_on", "time": 3, "note": 81, "velocity": 109, "channel": 0}, {"type": "note_off", "time": 95, "note": 81, "velocity": 109, "channel": 0}, {"type": "note_on", "time": 10, "note": 79, "velocity": 101, "channel": 0}, {"type": "note_off", "time": 61, "note": 79, "velocity": 101, "channel": 0}, {"type": "note_on", "time": 20, "note": 84, "velocity": 104, "channel": 0}, {"type": "note_off", "time": 183, "note": 84, "velocity": 104, "channel": 0}, {"type": "note_on", "time": 132, "note": 82, "velocity": 121, "channel": 0}, {"type": "note_off", "time": 95, "note": 82, "velocity": 121, "channel": 0}, {"type": "note_on", "time": 16, "note": 84, "velocity": 87, "channel": 0}, {"type": "note_off", "time": 64, "note": 84, "velocity": 87, "channel": 0}, {"type": "note_on", "time": 10, "note": 82, "velocity": 110, "channel": 0}, {"type": "note_off", "time": 95, "note": 82, "velocity": 110, "channel": 0}, {"type": "note_on", "time": 0, "note": 81, "velocity": 108, "channel": 0}, {"type": "note_off", "time": 78, "note": 81, "velocity": 108, "channel": 0}, {"type": "note_on", "time": 40, "note": 80, "velocity": 114, "channel": 0}, {"type": "note_off", "time": 78, "note": 80, "velocity": 114, "channel": 0}, {"type": "note_on", "time": 6, "note": 79, "velocity": 113, "channel": 0}, {"type": "note_off", "time": 98, "note": 79, "velocity": 113, "channel": 0}, {"type": "note_on", "time": 10, "note": 76, "velocity": 88, "channel": 0}, {"type": "note_off", "time": 47, "note": 76, "velocity": 88, "channel": 0}, {"type": "note_on", "time": 10, "note": 79, "velocity": 108, "channel": 0}, {"type": "note_off", "time": 115, "note": 79, "velocity": 108, "channel": 0}, {"type": "note_on", "time": 3, "note": 76, "velocity": 107, "channel": 0}, {"type": "note_off", "time": 67, "note": 76, "velocity": 107, "channel": 0}, {"type": "note_on", "time": 20, "note": 77, "velocity": 102, "channel": 0}, {"type": "note_off", "time": 98, "note": 77, "velocity": 102, "channel": 0}, {"type": "note_on", "time": 6, "note": 84, "velocity": 102, "channel": 0}, {"type": "note_off", "time": 84, "note": 84, "velocity": 102, "channel": 0}, {"type": "note_on", "time": 91, "note": 84, "velocity": 89, "channel": 0}, {"type": "note_off", "time": 163, "note": 84, "velocity": 89, "channel": 0}, {"type": "note_on", "time": 363, "note": 84, "velocity": 74, "channel": 0}, {"type": "note_off", "time": 50, "note": 84, "velocity": 74, "channel": 0}, {"type": "note_on", "time": 0, "note": 83, "velocity": 114, "channel": 0}, {"type": "note_off", "time": 33, "note": 83, "velocity": 114, "channel": 0}, {"type": "note_on", "time": 0, "note": 82, "velocity": 103, "channel": 0}, {"type": "note_off", "time": 112, "note": 82, "velocity": 103, "channel": 0}, {"type": "note_on", "time": 30, "note": 81, "velocity": 119, "channel": 0}, {"type": "note_off", "time": 67, "note": 81, "velocity": 119, "channel": 0}, {"type": "note_on", "time": 0, "note": 80, "velocity": 107, "channel": 0}, {"type": "note_off", "time": 159, "note": 80, "velocity": 107, "channel": 0}, {"type": "note_on", "time": 27, "note": 79, "velocity": 118, "channel": 0}, {"type": "note_off", "time": 129, "note": 79, "velocity": 118, "channel": 0}, {"type": "note_on", "time": 0, "note": 77, "velocity": 110, "channel": 0}, {"type": "note_off", "time": 74, "note": 77, "velocity": 110, "channel": 0}, {"type": "note_on", "time": 23, "note": 75, "velocity": 107, "channel": 0}, {"type": "note_off", "time": 88, "note": 75, "velocity": 107, "channel": 0}, {"type": "note_on", "time": 10, "note": 76, "velocity": 108, "channel": 0}, {"type": "note_off", "time": 98, "note": 76, "velocity": 108, "channel": 0}, {"type": "note_on", "time": 0, "note": 72, "velocity": 90, "channel": 0}, {"type": "note_off", "time": 67, "note": 72, "velocity": 90, "channel": 0}, {"type": "note_on", "time": 33, "note": 71, "velocity": 107, "channel": 0}, {"type": "note_off", "time": 78, "note": 71, "velocity": 107, "channel": 0}, {"type": "note_on", "time": 13, "note": 70, "velocity": 95, "channel": 0}, {"type": "note_off", "time": 40, "note": 70, "velocity": 95, "channel": 0}, {"type": "note_on", "time": 0, "note": 72, "velocity": 90, "channel": 0}, {"type": "note_off", "time": 78, "note": 72, "velocity": 90, "channel": 0}, {"type": "note_on", "time": 0, "note": 70, "velocity": 101, "channel": 0}, {"type": "note_off", "time": 47, "note": 70, "velocity": 101, "channel": 0}, {"type": "note_on", "time": 16, "note": 69, "velocity": 104, "channel": 0}, {"type": "note_off", "time": 108, "note": 69, "velocity": 104, "channel": 0}, {"type": "note_on", "time": 0, "note": 65, "velocity": 94, "channel": 0}, {"type": "note_off", "time": 88, "note": 65, "velocity": 94, "channel": 0}, {"type": "note_on", "time": 23, "note": 62, "velocity": 92, "channel": 0}, {"type": "note_off", "time": 78, "note": 62, "velocity": 92, "channel": 0}, {"type": "note_on", "time": 0, "note": 65, "velocity": 94, "channel": 0}, {"type": "note_off", "time": 78, "note": 65, "velocity": 94, "channel": 0}, {"type": "note_on", "time": 30, "note": 69, "velocity": 93, "channel": 0}, {"type": "note_off", "time": 57, "note": 69, "velocity": 93, "channel": 0}, {"type": "note_on", "time": 6, "note": 70, "velocity": 106, "channel": 0}, {"type": "note_off", "time": 54, "note": 70, "velocity": 106, "channel": 0}, {"type": "note_on", "time": 20, "note": 75, "velocity": 103, "channel": 0}, {"type": "note_off", "time": 84, "note": 75, "velocity": 103, "channel": 0}, {"type": "note_on", "time": 33, "note": 73, "velocity": 121, "channel": 0}, {"type": "note_off", "time": 81, "note": 73, "velocity": 121, "channel": 0}, {"type": "note_on", "time": 3, "note": 72, "velocity": 103, "channel": 0}, {"type": "note_off", "time": 91, "note": 72, "velocity": 103, "channel": 0}, {"type": "note_on", "time": 54, "note": 70, "velocity": 92, "channel": 0}, {"type": "note_off", "time": 71, "note": 70, "velocity": 92, "channel": 0}, {"type": "note_on", "time": 37, "note": 72, "velocity": 93, "channel": 0}, {"type": "note_off", "time": 27, "note": 72, "velocity": 93, "channel": 0}, {"type": "note_on", "time": 0, "note": 74, "velocity": 83, "channel": 0}, {"type": "note_off", "time": 37, "note": 74, "velocity": 83, "channel": 0}, {"type": "note_on", "time": 20, "note": 76, "velocity": 106, "channel": 0}, {"type": "note_off", "time": 44, "note": 76, "velocity": 106, "channel": 0}, {"type": "note_on", "time": 10, "note": 79, "velocity": 125, "channel": 0}, {"type": "note_off", "time": 95, "note": 79, "velocity": 125, "channel": 0}, {"type": "note_on", "time": 13, "note": 76, "velocity": 92, "channel": 0}, {"type": "note_off", "time": 64, "note": 76, "velocity": 92, "channel": 0}, {"type": "note_on", "time": 0, "note": 77, "velocity": 117, "channel": 0}, {"type": "note_off", "time": 210, "note": 77, "velocity": 117, "channel": 0}, {"type": "note_on", "time": 0, "note": 78, "velocity": 106, "channel": 0}, {"type": "note_on", "time": 54, "note": 79, "velocity": 115, "channel": 0}, {"type": "note_off", "time": 0, "note": 78, "velocity": 106, "channel": 0}, {"type": "note_off", "time": 47, "note": 79, "velocity": 115, "channel": 0}, {"type": "note_on", "time": 3, "note": 78, "velocity": 120, "channel": 0}, {"type": "note_off", "time": 30, "note": 78, "velocity": 120, "channel": 0}, {"type": "note_on", "time": 0, "note": 76, "velocity": 117, "channel": 0}, {"type": "note_off", "time": 74, "note": 76, "velocity": 117, "channel": 0}, {"type": "note_on", "time": 3, "note": 75, "velocity": 103, "channel": 0}, {"type": "note_off", "time": 54, "note": 75, "velocity": 103, "channel": 0}, {"type": "note_on", "time": 0, "note": 78, "velocity": 98, "channel": 0}, {"type": "note_off", "time": 88, "note": 78, "velocity": 98, "channel": 0}, {"type": "note_on", "time": 0, "note": 81, "velocity": 105, "channel": 0}, {"type": "note_off", "time": 115, "note": 81, "velocity": 105, "channel": 0}, {"type": "note_on", "time": 3, "note": 86, "velocity": 109, "channel": 0}, {"type": "note_off", "time": 173, "note": 86, "velocity": 109, "channel": 0}, {"type": "note_on", "time": 20, "note": 84, "velocity": 93, "channel": 0}, {"type": "note_off", "time": 50, "note": 84, "velocity": 93, "channel": 0}, {"type": "note_on", "time": 10, "note": 83, "velocity": 95, "channel": 0}, {"type": "note_off", "time": 88, "note": 83, "velocity": 95, "channel": 0}, {"type": "note_on", "time": 3, "note": 81, "velocity": 94, "channel": 0}, {"type": "note_off", "time": 84, "note": 81, "velocity": 94, "channel": 0}, {"type": "note_on", "time": 10, "note": 79, "velocity": 106, "channel": 0}, {"type": "note_off", "time": 101, "note": 79, "velocity": 106, "channel": 0}, {"type": "note_on", "time": 0, "note": 77, "velocity": 106, "channel": 0}, {"type": "note_off", "time": 74, "note": 77, "velocity": 106, "channel": 0}, {"type": "note_on", "time": 16, "note": 76, "velocity": 101, "channel": 0}, {"type": "note_off", "time": 91, "note": 76, "velocity": 101, "channel": 0}, {"type": "note_on", "time": 6, "note": 74, "velocity": 117, "channel": 0}, {"type": "note_off", "time": 95, "note": 74, "velocity": 117, "channel": 0}, {"type": "note_on", "time": 6, "note": 73, "velocity": 103, "channel": 0}, {"type": "note_on", "time": 95, "note": 82, "velocity": 92, "channel": 0}, {"type": "note_off", "time": 0, "note": 73, "velocity": 103, "channel": 0}, {"type": "note_off", "time": 84, "note": 82, "velocity": 92, "channel": 0}, {"type": "note_on", "time": 11, "note": 81, "velocity": 90, "channel": 0}, {"type": "note_off", "time": 59, "note": 81, "velocity": 90, "channel": 0}, {"type": "note_on", "time": 13, "note": 79, "velocity": 110, "channel": 0}, {"type": "note_off", "time": 101, "note": 79, "velocity": 110, "channel": 0}, {"type": "note_on", "time": 18, "note": 77, "velocity": 81, "channel": 0}, {"type": "note_off", "time": 76, "note": 77, "velocity": 81, "channel": 0}, {"type": "note_on", "time": 7, "note": 76, "velocity": 95, "channel": 0}, {"type": "note_off", "time": 81, "note": 76, "velocity": 95, "channel": 0}, {"type": "note_on", "time": 0, "note": 74, "velocity": 102, "channel": 0}, {"type": "note_on", "time": 129, "note": 72, "velocity": 101, "channel": 0}, {"type": "note_off", "time": 0, "note": 74, "velocity": 102, "channel": 0}, {"type": "note_off", "time": 88, "note": 72, "velocity": 101, "channel": 0}, {"type": "note_on", "time": 0, "note": 71, "velocity": 94, "channel": 0}, {"type": "note_off", "time": 67, "note": 71, "velocity": 94, "channel": 0}, {"type": "note_on", "time": 33, "note": 80, "velocity": 93, "channel": 0}, {"type": "note_off", "time": 91, "note": 80, "velocity": 93, "channel": 0}, {"type": "note_on", "time": 0, "note": 77, "velocity": 98, "channel": 0}, {"type": "note_off", "time": 84, "note": 77, "velocity": 98, "channel": 0}, {"type": "note_on", "time": 20, "note": 78, "velocity": 103, "channel": 0}, {"type": "note_off", "time": 84, "note": 78, "velocity": 103, "channel": 0}, {"type": "note_on", "time": 13, "note": 79, "velocity": 113, "channel": 0}, {"type": "note_off", "time": 101, "note": 79, "velocity": 113, "channel": 0}, {"type": "note_on", "time": 0, "note": 77, "velocity": 90, "channel": 0}, {"type": "note_off", "time": 81, "note": 77, "velocity": 90, "channel": 0}, {"type": "note_on", "time": 3, "note": 74, "velocity": 102, "channel": 0}, {"type": "note_off", "time": 98, "note": 74, "velocity": 102, "channel": 0}, {"type": "note_on", "time": 0, "note": 75, "velocity": 107, "channel": 0}, {"type": "note_off", "time": 81, "note": 75, "velocity": 107, "channel": 0}, {"type": "note_on", "time": 3, "note": 76, "velocity": 96, "channel": 0}, {"type": "note_off", "time": 81, "note": 76, "velocity": 96, "channel": 0}, {"type": "note_on", "time": 20, "note": 79, "velocity": 110, "channel": 0}, {"type": "note_off", "time": 88, "note": 79, "velocity": 110, "channel": 0}, {"type": "note_on", "time": 0, "note": 81, "velocity": 101, "channel": 0}, {"type": "note_off", "time": 101, "note": 81, "velocity": 101, "channel": 0}, {"type": "note_on", "time": 6, "note": 79, "velocity": 93, "channel": 0}, {"type": "note_off", "time": 71, "note": 79, "velocity": 93, "channel": 0}, {"type": "note_on", "time": 0, "note": 84, "velocity": 87, "channel": 0}, {"type": "note_off", "time": 118, "note": 84, "velocity": 87, "channel": 0}, {"type": "note_on", "time": 0, "note": 79, "velocity": 95, "channel": 0}, {"type": "note_off", "time": 71, "note": 79, "velocity": 95, "channel": 0}, {"type": "note_on", "time": 0, "note": 86, "velocity": 101, "channel": 0}, {"type": "note_off", "time": 101, "note": 86, "velocity": 101, "channel": 0}, {"type": "note_on", "time": 23, "note": 87, "velocity": 106, "channel": 0}, {"type": "note_off", "time": 54, "note": 87, "velocity": 106, "channel": 0}, {"type": "note_on", "time": 50, "note": 88, "velocity": 88, "channel": 0}, {"type": "note_off", "time": 78, "note": 88, "velocity": 88, "channel": 0}, {"type": "note_on", "time": 16, "note": 86, "velocity": 103, "channel": 0}, {"type": "note_off", "time": 84, "note": 86, "velocity": 103, "channel": 0}, {"type": "note_on", "time": 16, "note": 84, "velocity": 97, "channel": 0}, {"type": "note_off", "time": 81, "note": 84, "velocity": 97, "channel": 0}, {"type": "note_on", "time": 33, "note": 85, "velocity": 105, "channel": 0}, {"type": "note_off", "time": 118, "note": 85, "velocity": 105, "channel": 0}, {"type": "note_on", "time": 57, "note": 85, "velocity": 105, "channel": 0}, {"type": "note_on", "time": 71, "note": 82, "velocity": 92, "channel": 0}, {"type": "note_off", "time": 0, "note": 85, "velocity": 105, "channel": 0}, {"type": "note_off", "time": 159, "note": 82, "velocity": 92, "channel": 0}, {"type": "note_on", "time": 197, "note": 80, "velocity": 114, "channel": 0}, {"type": "note_off", "time": 81, "note": 80, "velocity": 114, "channel": 0}, {"type": "note_on", "time": 3, "note": 81, "velocity": 115, "channel": 0}, {"type": "note_off", "time": 37, "note": 81, "velocity": 115, "channel": 0}, {"type": "note_on", "time": 10, "note": 80, "velocity": 107, "channel": 0}, {"type": "note_off", "time": 74, "note": 80, "velocity": 107, "channel": 0}, {"type": "note_on", "time": 0, "note": 79, "velocity": 101, "channel": 0}, {"type": "note_off", "time": 91, "note": 79, "velocity": 101, "channel": 0}, {"type": "note_on", "time": 23, "note": 77, "velocity": 110, "channel": 0}, {"type": "note_off", "time": 84, "note": 77, "velocity": 110, "channel": 0}, {"type": "note_on", "time": 16, "note": 76, "velocity": 97, "channel": 0}, {"type": "note_off", "time": 84, "note": 76, "velocity": 97, "channel": 0}, {"type": "note_on", "time": 13, "note": 74, "velocity": 110, "channel": 0}, {"type": "note_off", "time": 74, "note": 74, "velocity": 110, "channel": 0}, {"type": "note_on", "time": 10, "note": 73, "velocity": 96, "channel": 0}, {"type": "note_off", "time": 101, "note": 73, "velocity": 96, "channel": 0}, {"type": "note_on", "time": 0, "note": 70, "velocity": 101, "channel": 0}, {"type": "note_off", "time": 88, "note": 70, "velocity": 101, "channel": 0}, {"type": "note_on", "time": 6, "note": 69, "velocity": 90, "channel": 0}, {"type": "note_off", "time": 105, "note": 69, "velocity": 90, "channel": 0}, {"type": "note_on", "time": 0, "note": 67, "velocity": 111, "channel": 0}, {"type": "note_off", "time": 78, "note": 67, "velocity": 111, "channel": 0}, {"type": "note_on", "time": 13, "note": 66, "velocity": 96, "channel": 0}, {"type": "note_off", "time": 84, "note": 66, "velocity": 96, "channel": 0}, {"type": "note_on", "time": 6, "note": 64, "velocity": 108, "channel": 0}, {"type": "note_off", "time": 71, "note": 64, "velocity": 108, "channel": 0}, {"type": "note_on", "time": 6, "note": 72, "velocity": 87, "channel": 0}, {"type": "note_off", "time": 71, "note": 72, "velocity": 87, "channel": 0}, {"type": "note_on", "time": 47, "note": 74, "velocity": 115, "channel": 0}, {"type": "note_off", "time": 81, "note": 74, "velocity": 115, "channel": 0}, {"type": "note_on", "time": 6, "note": 75, "velocity": 99, "channel": 0}, {"type": "note_off", "time": 44, "note": 75, "velocity": 99, "channel": 0}, {"type": "note_on", "time": 13, "note": 74, "velocity": 116, "channel": 0}, {"type": "note_off", "time": 64, "note": 74, "velocity": 116, "channel": 0}, {"type": "note_on", "time": 0, "note": 72, "velocity": 96, "channel": 0}, {"type": "note_off", "time": 50, "note": 72, "velocity": 96, "channel": 0}, {"type": "note_on", "time": 3, "note": 74, "velocity": 106, "channel": 0}, {"type": "note_off", "time": 95, "note": 74, "velocity": 106, "channel": 0}, {"type": "note_on", "time": 30, "note": 72, "velocity": 101, "channel": 0}, {"type": "note_off", "time": 156, "note": 72, "velocity": 101, "channel": 0}, {"type": "note_on", "time": 41, "note": 71, "velocity": 105, "channel": 0}, {"type": "note_off", "time": 28, "note": 71, "velocity": 105, "channel": 0}, {"type": "note_on", "time": 4, "note": 68, "velocity": 100, "channel": 0}, {"type": "note_off", "time": 45, "note": 68, "velocity": 100, "channel": 0}, {"type": "note_on", "time": 4, "note": 67, "velocity": 94, "channel": 0}, {"type": "note_off", "time": 67, "note": 67, "velocity": 94, "channel": 0}, {"type": "note_on", "time": 6, "note": 65, "velocity": 94, "channel": 0}, {"type": "note_off", "time": 84, "note": 65, "velocity": 94, "channel": 0}, {"type": "note_on", "time": 0, "note": 63, "velocity": 96, "channel": 0}, {"type": "note_off", "time": 98, "note": 63, "velocity": 96, "channel": 0}, {"type": "note_on", "time": 23, "note": 60, "velocity": 105, "channel": 0}, {"type": "note_off", "time": 81, "note": 60, "velocity": 105, "channel": 0}, {"type": "note_on", "time": 3, "note": 57, "velocity": 99, "channel": 0}, {"type": "note_off", "time": 88, "note": 57, "velocity": 99, "channel": 0}, {"type": "note_on", "time": 84, "note": 60, "velocity": 109, "channel": 0}, {"type": "note_off", "time": 115, "note": 60, "velocity": 109, "channel": 0}, {"type": "note_on", "time": 16, "note": 57, "velocity": 96, "channel": 0}, {"type": "note_off", "time": 61, "note": 57, "velocity": 96, "channel": 0}, {"type": "note_on", "time": 0, "note": 62, "velocity": 104, "channel": 0}, {"type": "note_off", "time": 101, "note": 62, "velocity": 104, "channel": 0}, {"type": "note_on", "time": 30, "note": 63, "velocity": 100, "channel": 0}, {"type": "note_off", "time": 58, "note": 63, "velocity": 100, "channel": 0}, {"type": "note_on", "time": 0, "note": 64, "velocity": 96, "channel": 0}, {"type": "note_off", "time": 95, "note": 64, "velocity": 96, "channel": 0}, {"type": "note_on", "time": 23, "note": 60, "velocity": 91, "channel": 0}, {"type": "note_off", "time": 57, "note": 60, "velocity": 91, "channel": 0}, {"type": "note_on", "time": 19, "note": 65, "velocity": 81, "channel": 0}, {"type": "note_off", "time": 105, "note": 65, "velocity": 81, "channel": 0}, {"type": "note_on", "time": 4, "note": 66, "velocity": 109, "channel": 0}, {"type": "note_off", "time": 76, "note": 66, "velocity": 109, "channel": 0}, {"type": "note_on", "time": 14, "note": 67, "velocity": 108, "channel": 0}, {"type": "note_off", "time": 114, "note": 67, "velocity": 108, "channel": 0}, {"type": "note_on", "time": 4, "note": 64, "velocity": 91, "channel": 0}, {"type": "note_off", "time": 81, "note": 64, "velocity": 91, "channel": 0}, {"type": "note_on", "time": 14, "note": 65, "velocity": 86, "channel": 0}, {"type": "note_off", "time": 86, "note": 65, "velocity": 86, "channel": 0}, {"type": "note_on", "time": 0, "note": 67, "velocity": 97, "channel": 0}, {"type": "note_off", "time": 57, "note": 67, "velocity": 97, "channel": 0}, {"type": "note_on", "time": 28, "note": 68, "velocity": 92, "channel": 0}, {"type": "note_off", "time": 95, "note": 68, "velocity": 92, "channel": 0}, {"type": "note_on", "time": 14, "note": 72, "velocity": 112, "channel": 0}, {"type": "note_off", "time": 95, "note": 72, "velocity": 112, "channel": 0}, {"type": "note_on", "time": 14, "note": 67, "velocity": 90, "channel": 0}, {"type": "note_off", "time": 66, "note": 67, "velocity": 90, "channel": 0}, {"type": "note_on", "time": 23, "note": 65, "velocity": 98, "channel": 0}, {"type": "note_off", "time": 81, "note": 65, "velocity": 98, "channel": 0}, {"type": "note_on", "time": 9, "note": 64, "velocity": 104, "channel": 0}, {"type": "note_off", "time": 411, "note": 64, "velocity": 104, "channel": 0}, {"type": "end_of_track", "time": 0}]]}