{"ticks_per_beat": 192, "tracks": [[{"type": "track_name", "name": "Melody", "time": 0}, {"type": "set_tempo", "tempo": 203389, "time": 0}, {"type": "key_signature", "key": "Bb", "time": 0}, {"type": "time_signature", "numerator": 4, "denominator": 4, "clocks_per_click": 24, "notated_32nd_notes_per_beat": 8, "time": 0}, {"type": "note_on", "time": 3725, "note": 72, "velocity": 106, "channel": 0}, {"type": "note_off", "time": 119, "note": 72, "velocity": 106, "channel": 0}, {"type": "note_on", "time": 4, "note": 74, "velocity": 106, "channel": 0}, {"type": "note_off", "time": 62, "note": 74, "velocity": 106, "channel": 0}, {"type": "note_on", "time": 98, "note": 74, "velocity": 112, "channel": 0}, {"type": "note_off", "time": 1207, "note": 74, "velocity": 112, "channel": 0}, {"type": "note_on", "time": 52, "note": 72, "velocity": 100, "channel": 0}, {"type": "note_off", "time": 94, "note": 72, "velocity": 100, "channel": 0}, {"type": "note_on", "time": 13, "note": 74, "velocity": 99, "channel": 0}, {"type": "note_off", "time": 87, "note": 74, "velocity": 99, "channel": 0}, {"type": "note_on", "time": 73, "note": 77, "velocity": 100, "channel": 0}, {"type": "note_off", "time": 100, "note": 77, "velocity": 100, "channel": 0}, {"type": "note_on", "time": 101, "note": 74, "velocity": 114, "channel": 0}, {"type": "note_off", "time": 1046, "note": 74, "velocity": 114, "channel": 0}, {"type": "note_on", "time": 17, "note": 72, "velocity": 111, "channel": 0}, {"type": "note_off", "time": 90, "note": 72, "velocity": 111, "channel": 0}, {"type": "note_on", "time": 2, "note": 74, "velocity": 109, "channel": 0}, {"type": "note_off", "time": 109, "note": 74, "velocity": 109, "channel": 0}, {"type": "note_on", "time": 87, "note": 81, "velocity": 114, "channel": 0}, {"type": "note_off", "time": 36, "note": 81, "velocity": 114, "channel": 0}, {"type": "note_on", "time": 5, "note": 79, "velocity": 98, "channel": 0}, {"type": "note_off", "time": 84, "note": 79, "velocity": 98, "channel": 0}, {"type": "note_on", "time": 70, "note": 77, "velocity": 113, "channel": 0}, {"type": "note_off", "time": 1055, "note": 77, "velocity": 113, "channel": 0}, {"type": "note_on", "time": 32, "note": 74, "velocity": 115, "channel": 0}, {"type": "note_off", "time": 84, "note": 74, "velocity": 115, "channel": 0}, {"type": "note_on", "time": 26, "note": 77, "velocity": 113, "channel": 0}, {"type": "note_off", "time": 88, "note": 77, "velocity": 113, "channel": 0}, {"type": "note_on", "time": 90, "note": 74, "velocity": 113, "channel": 0}, {"type": "note_off", "time": 695, "note": 74, "velocity": 113, "channel": 0}, {"type": "note_on", "time": 1046, "note": 76, "velocity": 126, "channel": 0}, {"type": "note_off", "time": 110, "note": 76, "velocity": 126, "channel": 0}, {"type": "note_on", "time": 163, "note": 76, "velocity": 122, "channel": 0}, {"type": "note_off", "time": 380, "note": 76, "velocity": 122, "channel": 0}, {"type": "note_on", "time": 45, "note": 72, "velocity": 103, "channel": 0}, {"type": "note_off", "time": 67, "note": 72, "velocity": 103, "channel": 0}, {"type": "note_on", "time": 105, "note": 72, "velocity": 114, "channel": 0}, {"type": "note_off", "time": 176, "note": 72, "velocity": 114, "channel": 0}, {"type": "note_on", "time": 42, "note": 70, "velocity": 111, "channel": 0}, {"type": "note_off", "time": 168, "note": 70, "velocity": 111, "channel": 0}, {"type": "note_on", "time": 27, "note": 72, "velocity": 110, "channel": 0}, {"type": "note_off", "time": 242, "note": 72, "velocity": 110, "channel": 0}, {"type": "note_on", "time": 54, "note": 76, "velocity": 122, "channel": 0}, {"type": "note_off", "time": 117, "note": 76, "velocity": 122, "channel": 0}, {"type": "note_on", "time": 160, "note": 76, "velocity": 123, "channel": 0}, {"type": "note_off", "time": 332, "note": 76, "velocity": 123, "channel": 0}, {"type": "note_on", "time": 30, "note": 79, "velocity": 107, "channel": 0}, {"type": "note_off", "time": 89, "note": 79, "velocity": 107, "channel": 0}, {"type": "note_on", "time": 105, "note": 79, "velocity": 122, "channel": 0}, {"type": "note_off", "time": 191, "note": 79, "velocity": 122, "channel": 0}, {"type": "note_on", "time": 10, "note": 76, "velocity": 126, "channel": 0}, {"type": "note_off", "time": 190, "note": 76, "velocity": 126, "channel": 0}, {"type": "note_on", "time": 6, "note": 79, "velocity": 121, "channel": 0}, {"type": "note_off", "time": 237, "note": 79, "velocity": 121, "channel": 0}, {"type": "note_on", "time": 78, "note": 76, "velocity": 119, "channel": 0}, {"type": "note_off", "time": 86, "note": 76, "velocity": 119, "channel": 0}, {"type": "note_on", "time": 179, "note": 76, "velocity": 118, "channel": 0}, {"type": "note_off", "time": 367, "note": 76, "velocity": 118, "channel": 0}, {"type": "note_on", "time": 15, "note": 77, "velocity": 117, "channel": 0}, {"type": "note_off", "time": 69, "note": 77, "velocity": 117, "channel": 0}, {"type": "note_on", "time": 6, "note": 76, "velocity": 120, "channel": 0}, {"type": "note_off", "time": 76, "note": 76, "velocity": 120, "channel": 0}, {"type": "note_on", "time": 17, "note": 76, "velocity": 116, "channel": 0}, {"type": "note_off", "time": 76, "note": 76, "velocity": 116, "channel": 0}, {"type": "note_on", "time": 0, "note": 74, "velocity": 120, "channel": 0}, {"type": "note_off", "time": 132, "note": 74, "velocity": 120, "channel": 0}, {"type": "note_on", "time": 12, "note": 72, "velocity": 111, "channel": 0}, {"type": "note_off", "time": 53, "note": 72, "velocity": 111, "channel": 0}, {"type": "note_on", "time": 0, "note": 74, "velocity": 114, "channel": 0}, {"type": "note_off", "time": 113, "note": 74, "velocity": 114, "channel": 0}, {"type": "note_on", "time": 0, "note": 72, "velocity": 108, "channel": 0}, {"type": "note_off", "time": 180, "note": 72, "velocity": 108, "channel": 0}, {"type": "note_on", "time": 42, "note": 70, "velocity": 113, "channel": 0}, {"type": "note_off", "time": 73, "note": 70, "velocity": 113, "channel": 0}, {"type": "note_on", "time": 10, "note": 72, "velocity": 103, "channel": 0}, {"type": "note_off", "time": 73, "note": 72, "velocity": 103, "channel": 0}, {"type": "note_on", "time": 0, "note": 70, "velocity": 112, "channel": 0}, {"type": "note_off", "time": 187, "note": 70, "velocity": 112, "channel": 0}, {"type": "note_on", "time": 12, "note": 69, "velocity": 110, "channel": 0}, {"type": "note_off", "time": 113, "note": 69, "velocity": 110, "channel": 0}, {"type": "note_on", "time": 5, "note": 70, "velocity": 110, "channel": 0}, {"type": "note_off", "time": 64, "note": 70, "velocity": 110, "channel": 0}, {"type": "note_on", "time": 12, "note": 69, "velocity": 109, "channel": 0}, {"type": "note_off", "time": 198, "note": 69, "velocity": 109, "channel": 0}, {"type": "note_on", "time": 35, "note": 67, "velocity": 110, "channel": 0}, {"type": "note_off", "time": 63, "note": 67, "velocity": 110, "channel": 0}, {"type": "note_on", "time": 15, "note": 69, "velocity": 109, "channel": 0}, {"type": "note_off", "time": 83, "note": 69, "velocity": 109, "channel": 0}, {"type": "note_on", "time": 12, "note": 70, "velocity": 101, "channel": 0}, {"type": "note_off", "time": 79, "note": 70, "velocity": 101, "channel": 0}, {"type": "note_on", "time": 6, "note": 67, "velocity": 107, "channel": 0}, {"type": "note_off", "time": 101, "note": 67, "velocity": 107, "channel": 0}, {"type": "note_on", "time": 20, "note": 65, "velocity": 111, "channel": 0}, {"type": "note_off", "time": 79, "note": 65, "velocity": 111, "channel": 0}, {"type": "note_on", "time": 6, "note": 67, "velocity": 95, "channel": 0}, {"type": "note_off", "time": 69, "note": 67, "velocity": 95, "channel": 0}, {"type": "note_on", "time": 4, "note": 65, "velocity": 98, "channel": 0}, {"type": "note_off", "time": 731, "note": 65, "velocity": 98, "channel": 0}, {"type": "note_on", "time": 9, "note": 62, "velocity": 101, "channel": 0}, {"type": "note_off", "time": 71, "note": 62, "velocity": 101, "channel": 0}, {"type": "note_on", "time": 158, "note": 65, "velocity": 102, "channel": 0}, {"type": "note_off", "time": 267, "note": 65, "velocity": 102, "channel": 0}, {"type": "note_on", "time": 32, "note": 69, "velocity": 112, "channel": 0}, {"type": "note_off", "time": 87, "note": 69, "velocity": 112, "channel": 0}, {"type": "note_on", "time": 1546, "note": 69, "velocity": 119, "channel": 0}, {"type": "note_off", "time": 82, "note": 69, "velocity": 119, "channel": 0}, {"type": "note_on", "time": 9, "note": 66, "velocity": 113, "channel": 0}, {"type": "note_off", "time": 68, "note": 66, "velocity": 113, "channel": 0}, {"type": "note_on", "time": 2, "note": 65, "velocity": 109, "channel": 0}, {"type": "note_off", "time": 28, "note": 65, "velocity": 109, "channel": 0}, {"type": "note_on", "time": 17, "note": 67, "velocity": 111, "channel": 0}, {"type": "note_off", "time": 58, "note": 67, "velocity": 111, "channel": 0}, {"type": "note_on", "time": 10, "note": 69, "velocity": 118, "channel": 0}, {"type": "note_off", "time": 78, "note": 69, "velocity": 118, "channel": 0}, {"type": "note_on", "time": 0, "note": 70, "velocity": 118, "channel": 0}, {"type": "note_on", "time": 78, "note": 72, "velocity": 118, "channel": 0}, {"type": "note_off", "time": 0, "note": 70, "velocity": 118, "channel": 0}, {"type": "note_off", "time": 79, "note": 72, "velocity": 118, "channel": 0}, {"type": "note_on", "time": 8, "note": 73, "velocity": 122, "channel": 0}, {"type": "note_off", "time": 91, "note": 73, "velocity": 122, "channel": 0}, {"type": "note_on", "time": 12, "note": 74, "velocity": 119, "channel": 0}, {"type": "note_off", "time": 108, "note": 74, "velocity": 119, "channel": 0}, {"type": "note_on", "time": 0, "note": 75, "velocity": 116, "channel": 0}, {"type": "note_off", "time": 39, "note": 75, "velocity": 116, "channel": 0}, {"type": "note_on", "time": 534, "note": 73, "velocity": 118, "channel": 0}, {"type": "note_off", "time": 57, "note": 73, "velocity": 118, "channel": 0}, {"type": "note_on", "time": 4, "note": 74, "velocity": 122, "channel": 0}, {"type": "note_off", "time": 113, "note": 74, "velocity": 122, "channel": 0}, {"type": "note_on", "time": 12, "note": 75, "velocity": 121, "channel": 0}, {"type": "note_off", "time": 89, "note": 75, "velocity": 121, "channel": 0}, {"type": "note_on", "time": 8, "note": 73, "velocity": 121, "channel": 0}, {"type": "note_off", "time": 72, "note": 73, "velocity": 121, "channel": 0}, {"type": "note_on", "time": 13, "note": 74, "velocity": 118, "channel": 0}, {"type": "note_off", "time": 76, "note": 74, "velocity": 118, "channel": 0}, {"type": "note_on", "time": 16, "note": 70, "velocity": 118, "channel": 0}, {"type": "note_off", "time": 72, "note": 70, "velocity": 118, "channel": 0}, {"type": "note_on", "time": 23, "note": 72, "velocity": 114, "channel": 0}, {"type": "note_off", "time": 61, "note": 72, "velocity": 114, "channel": 0}, {"type": "note_on", "time": 43, "note": 69, "velocity": 100, "channel": 0}, {"type": "note_off", "time": 50, "note": 69, "velocity": 100, "channel": 0}, {"type": "note_on", "time": 39, "note": 70, "velocity": 112, "channel": 0}, {"type": "note_off", "time": 94, "note": 70, "velocity": 112, "channel": 0}, {"type": "note_on", "time": 91, "note": 79, "velocity": 124, "channel": 0}, {"type": "note_off", "time": 112, "note": 79, "velocity": 124, "channel": 0}, {"type": "note_on", "time": 8, "note": 79, "velocity": 119, "channel": 0}, {"type": "note_off", "time": 97, "note": 79, "velocity": 119, "channel": 0}, {"type": "note_on", "time": 1339, "note": 79, "velocity": 116, "channel": 0}, {"type": "note_off", "time": 91, "note": 79, "velocity": 116, "channel": 0}, {"type": "note_on", "time": 12, "note": 82, "velocity": 120, "channel": 0}, {"type": "note_off", "time": 71, "note": 82, "velocity": 120, "channel": 0}, {"type": "note_on", "time": 86, "note": 85, "velocity": 121, "channel": 0}, {"type": "note_off", "time": 84, "note": 85, "velocity": 121, "channel": 0}, {"type": "note_on", "time": 13, "note": 88, "velocity": 118, "channel": 0}, {"type": "note_off", "time": 131, "note": 88, "velocity": 118, "channel": 0}, {"type": "note_on", "time": 13, "note": 86, "velocity": 127, "channel": 0}, {"type": "note_off", "time": 28, "note": 86, "velocity": 127, "channel": 0}, {"type": "note_on", "time": 5, "note": 85, "velocity": 99, "channel": 0}, {"type": "note_off", "time": 31, "note": 85, "velocity": 99, "channel": 0}, {"type": "note_on", "time": 10, "note": 82, "velocity": 108, "channel": 0}, {"type": "note_off", "time": 73, "note": 82, "velocity": 108, "channel": 0}, {"type": "note_on", "time": 19, "note": 82, "velocity": 119, "channel": 0}, {"type": "note_off", "time": 73, "note": 82, "velocity": 119, "channel": 0}, {"type": "note_on", "time": 8, "note": 81, "velocity": 117, "channel": 0}, {"type": "note_off", "time": 83, "note": 81, "velocity": 117, "channel": 0}, {"type": "note_on", "time": 6, "note": 79, "velocity": 115, "channel": 0}, {"type": "note_off", "time": 57, "note": 79, "velocity": 115, "channel": 0}, {"type": "note_on", "time": 9, "note": 79, "velocity": 110, "channel": 0}, {"type": "note_off", "time": 56, "note": 79, "velocity": 110, "channel": 0}, {"type": "note_on", "time": 0, "note": 80, "velocity": 104, "channel": 0}, {"type": "note_off", "time": 31, "note": 80, "velocity": 104, "channel": 0}, {"type": "note_on", "time": 27, "note": 82, "velocity": 112, "channel": 0}, {"type": "note_off", "time": 50, "note": 82, "velocity": 112, "channel": 0}, {"type": "note_on", "time": 1, "note": 81, "velocity": 110, "channel": 0}, {"type": "note_off", "time": 45, "note": 81, "velocity": 110, "channel": 0}, {"type": "note_on", "time": 4, "note": 79, "velocity": 117, "channel": 0}, {"type": "note_off", "time": 94, "note": 79, "velocity": 117, "channel": 0}, {"type": "note_on", "time": 5, "note": 81, "velocity": 112, "channel": 0}, {"type": "note_off", "time": 101, "note": 81, "velocity": 112, "channel": 0}, {"type": "note_on", "time": 15, "note": 83, "velocity": 108, "channel": 0}, {"type": "note_off", "time": 82, "note": 83, "velocity": 108, "channel": 0}, {"type": "note_on", "time": 1, "note": 84, "velocity": 117, "channel": 0}, {"type": "note_off", "time": 110, "note": 84, "velocity": 117, "channel": 0}, {"type": "note_on", "time": 1919, "note": 85, "velocity": 109, "channel": 0}, {"type": "note_off", "time": 50, "note": 85, "velocity": 109, "channel": 0}, {"type": "note_on", "time": 0, "note": 89, "velocity": 104, "channel": 0}, {"type": "note_off", "time": 39, "note": 89, "velocity": 104, "channel": 0}, {"type": "note_on", "time": 4, "note": 90, "velocity": 113, "channel": 0}, {"type": "note_off", "time": 102, "note": 90, "velocity": 113, "channel": 0}, {"type": "note_on", "time": 26, "note": 92, "velocity": 107, "channel": 0}, {"type": "note_off", "time": 278, "note": 92, "velocity": 107, "channel": 0}, {"type": "note_on", "time": 10, "note": 91, "velocity": 111, "channel": 0}, {"type": "note_off", "time": 105, "note": 91, "velocity": 111, "channel": 0}, {"type": "note_on", "time": 1, "note": 92, "velocity": 111, "channel": 0}, {"type": "note_off", "time": 94, "note": 92, "velocity": 111, "channel": 0}, {"type": "note_on", "time": 1, "note": 90, "velocity": 111, "channel": 0}, {"type": "note_off", "time": 120, "note": 90, "velocity": 111, "channel": 0}, {"type": "note_on", "time": 13, "note": 92, "velocity": 105, "channel": 0}, {"type": "note_off", "time": 100, "note": 92, "velocity": 105, "channel": 0}, {"type": "note_on", "time": 13, "note": 90, "velocity": 93, "channel": 0}, {"type": "note_off", "time": 121, "note": 90, "velocity": 93, "channel": 0}, {"type": "note_on", "time": 0, "note": 92, "velocity": 82, "channel": 0}, {"type": "note_off", "time": 53, "note": 92, "velocity": 82, "channel": 0}, {"type": "note_on", "time": 54, "note": 89, "velocity": 115, "channel": 0}, {"type": "note_off", "time": 30, "note": 89, "velocity": 115, "channel": 0}, {"type": "note_on", "time": 8, "note": 90, "velocity": 83, "channel": 0}, {"type": "note_off", "time": 46, "note": 90, "velocity": 83, "channel": 0}, {"type": "note_on", "time": 68, "note": 86, "velocity": 107, "channel": 0}, {"type": "note_off", "time": 106, "note": 86, "velocity": 107, "channel": 0}, {"type": "note_on", "time": 9, "note": 85, "velocity": 117, "channel": 0}, {"type": "note_off", "time": 67, "note": 85, "velocity": 117, "channel": 0}, {"type": "note_on", "time": 4, "note": 87, "velocity": 105, "channel": 0}, {"type": "note_off", "time": 27, "note": 87, "velocity": 105, "channel": 0}, {"type": "note_on", "time": 102, "note": 84, "velocity": 124, "channel": 0}, {"type": "note_off", "time": 42, "note": 84, "velocity": 124, "channel": 0}, {"type": "note_on", "time": 6, "note": 85, "velocity": 94, "channel": 0}, {"type": "note_off", "time": 54, "note": 85, "velocity": 94, "channel": 0}, {"type": "note_on", "time": 72, "note": 80, "velocity": 116, "channel": 0}, {"type": "note_off", "time": 49, "note": 80, "velocity": 116, "channel": 0}, {"type": "note_on", "time": 8, "note": 83, "velocity": 108, "channel": 0}, {"type": "note_off", "time": 41, "note": 83, "velocity": 108, "channel": 0}, {"type": "note_on", "time": 46, "note": 79, "velocity": 100, "channel": 0}, {"type": "note_off", "time": 46, "note": 79, "velocity": 100, "channel": 0}, {"type": "note_on", "time": 10, "note": 77, "velocity": 120, "channel": 0}, {"type": "note_off", "time": 91, "note": 77, "velocity": 120, "channel": 0}, {"type": "note_on", "time": 43, "note": 76, "velocity": 110, "channel": 0}, {"type": "note_off", "time": 54, "note": 76, "velocity": 110, "channel": 0}, {"type": "note_on", "time": 5, "note": 75, "velocity": 107, "channel": 0}, {"type": "note_off", "time": 100, "note": 75, "velocity": 107, "channel": 0}, {"type": "note_on", "time": 43, "note": 68, "velocity": 106, "channel": 0}, {"type": "note_off", "time": 50, "note": 68, "velocity": 106, "channel": 0}, {"type": "note_on", "time": 0, "note": 70, "velocity": 109, "channel": 0}, {"type": "note_off", "time": 69, "note": 70, "velocity": 109, "channel": 0}, {"type": "note_on", "time": 63, "note": 66, "velocity": 89, "channel": 0}, {"type": "note_off", "time": 34, "note": 66, "velocity": 89, "channel": 0}, {"type": "note_on", "time": 53, "note": 70, "velocity": 109, "channel": 0}, {"type": "note_off", "time": 76, "note": 70, "velocity": 109, "channel": 0}, {"type": "note_on", "time": 331, "note": 70, "velocity": 107, "channel": 0}, {"type": "note_off", "time": 65, "note": 70, "velocity": 107, "channel": 0}, {"type": "note_on", "time": 12, "note": 67, "velocity": 101, "channel": 0}, {"type": "note_off", "time": 78, "note": 67, "velocity": 101, "channel": 0}, {"type": "note_on", "time": 16, "note": 69, "velocity": 101, "channel": 0}, {"type": "note_off", "time": 75, "note": 69, "velocity": 101, "channel": 0}, {"type": "note_on", "time": 27, "note": 70, "velocity": 109, "channel": 0}, {"type": "note_off", "time": 54, "note": 70, "velocity": 109, "channel": 0}, {"type": "note_on", "time": 15, "note": 72, "velocity": 99, "channel": 0}, {"type": "note_off", "time": 80, "note": 72, "velocity": 99, "channel": 0}, {"type": "note_on", "time": 46, "note": 69, "velocity": 103, "channel": 0}, {"type": "note_off", "time": 67, "note": 69, "velocity": 103, "channel": 0}, {"type": "note_on", "time": 0, "note": 70, "velocity": 95, "channel": 0}, {"type": "note_off", "time": 67, "note": 70, "velocity": 95, "channel": 0}, {"type": "note_on", "time": 19, "note": 72, "velocity": 95, "channel": 0}, {"type": "note_off", "time": 82, "note": 72, "velocity": 95, "channel": 0}, {"type": "note_on", "time": 20, "note": 73, "velocity": 114, "channel": 0}, {"type": "note_off", "time": 72, "note": 73, "velocity": 114, "channel": 0}, {"type": "note_on", "time": 4, "note": 74, "velocity": 108, "channel": 0}, {"type": "note_off", "time": 102, "note": 74, "velocity": 108, "channel": 0}, {"type": "note_on", "time": 6, "note": 75, "velocity": 106, "channel": 0}, {"type": "note_off", "time": 117, "note": 75, "velocity": 106, "channel": 0}, {"type": "note_on", "time": 4, "note": 73, "velocity": 110, "channel": 0}, {"type": "note_off", "time": 58, "note": 73, "velocity": 110, "channel": 0}, {"type": "note_on", "time": 8, "note": 74, "velocity": 112, "channel": 0}, {"type": "note_off", "time": 76, "note": 74, "velocity": 112, "channel": 0}, {"type": "note_on", "time": 12, "note": 70, "velocity": 108, "channel": 0}, {"type": "note_off", "time": 83, "note": 70, "velocity": 108, "channel": 0}, {"type": "note_on", "time": 5, "note": 72, "velocity": 91, "channel": 0}, {"type": "note_off", "time": 61, "note": 72, "velocity": 91, "channel": 0}, {"type": "note_on", "time": 116, "note": 70, "velocity": 106, "channel": 0}, {"type": "note_off", "time": 71, "note": 70, "velocity": 106, "channel": 0}, {"type": "note_on", "time": 71, "note": 67, "velocity": 92, "channel": 0}, {"type": "note_off", "time": 52, "note": 67, "velocity": 92, "channel": 0}, {"type": "note_on", "time": 12, "note": 69, "velocity": 102, "channel": 0}, {"type": "note_off", "time": 98, "note": 69, "velocity": 102, "channel": 0}, {"type": "note_on", "time": 16, "note": 66, "velocity": 104, "channel": 0}, {"type": "note_off", "time": 43, "note": 66, "velocity": 104, "channel": 0}, {"type": "note_on", "time": 36, "note": 67, "velocity": 91, "channel": 0}, {"type": "note_off", "time": 71, "note": 67, "velocity": 91, "channel": 0}, {"type": "note_on", "time": 36, "note": 65, "velocity": 95, "channel": 0}, {"type": "note_off", "time": 56, "note": 65, "velocity": 95, "channel": 0}, {"type": "note_on", "time": 28, "note": 70, "velocity": 104, "channel": 0}, {"type": "note_off", "time": 94, "note": 70, "velocity": 104, "channel": 0}, {"type": "note_on", "time": 35, "note": 67, "velocity": 105, "channel": 0}, {"type": "note_off", "time": 52, "note": 67, "velocity": 105, "channel": 0}, {"type": "note_on", "time": 26, "note": 69, "velocity": 107, "channel": 0}, {"type": "note_off", "time": 68, "note": 69, "velocity": 107, "channel": 0}, {"type": "note_on", "time": 19, "note": 70, "velocity": 113, "channel": 0}, {"type": "note_off", "time": 84, "note": 70, "velocity": 113, "channel": 0}, {"type": "note_on", "time": 80, "note": 72, "velocity": 86, "channel": 0}, {"type": "note_off", "time": 41, "note": 72, "velocity": 86, "channel": 0}, {"type": "note_on", "time": 8, "note": 74, "velocity": 102, "channel": 0}, {"type": "note_off", "time": 52, "note": 74, "velocity": 102, "channel": 0}, {"type": "note_on", "time": 15, "note": 74, "velocity": 113, "channel": 0}, {"type": "note_off", "time": 82, "note": 74, "velocity": 113, "channel": 0}, {"type": "note_on", "time": 674, "note": 79, "velocity": 114, "channel": 0}, {"type": "note_off", "time": 83, "note": 79, "velocity": 114, "channel": 0}, {"type": "note_on", "time": 9, "note": 77, "velocity": 116, "channel": 0}, {"type": "note_off", "time": 95, "note": 77, "velocity": 116, "channel": 0}, {"type": "note_on", "time": 2, "note": 74, "velocity": 118, "channel": 0}, {"type": "note_off", "time": 46, "note": 74, "velocity": 118, "channel": 0}, {"type": "note_on", "time": 8, "note": 73, "velocity": 113, "channel": 0}, {"type": "note_off", "time": 76, "note": 73, "velocity": 113, "channel": 0}, {"type": "note_on", "time": 8, "note": 72, "velocity": 111, "channel": 0}, {"type": "note_off", "time": 71, "note": 72, "velocity": 111, "channel": 0}, {"type": "note_on", "time": 12, "note": 74, "velocity": 111, "channel": 0}, {"type": "note_off", "time": 49, "note": 74, "velocity": 111, "channel": 0}, {"type": "note_on", "time": 0, "note": 70, "velocity": 114, "channel": 0}, {"type": "note_off", "time": 53, "note": 70, "velocity": 114, "channel": 0}, {"type": "note_on", "time": 2, "note": 67, "velocity": 112, "channel": 0}, {"type": "note_off", "time": 58, "note": 67, "velocity": 112, "channel": 0}, {"type": "note_on", "time": 87, "note": 65, "velocity": 94, "channel": 0}, {"type": "note_off", "time": 49, "note": 65, "velocity": 94, "channel": 0}, {"type": "note_on", "time": 20, "note": 72, "velocity": 113, "channel": 0}, {"type": "note_off", "time": 171, "note": 72, "velocity": 113, "channel": 0}, {"type": "note_on", "time": 13, "note": 70, "velocity": 111, "channel": 0}, {"type": "note_off", "time": 87, "note": 70, "velocity": 111, "channel": 0}, {"type": "note_on", "time": 131, "note": 72, "velocity": 112, "channel": 0}, {"type": "note_off", "time": 152, "note": 72, "velocity": 112, "channel": 0}, {"type": "note_on", "time": 34, "note": 70, "velocity": 110, "channel": 0}, {"type": "note_off", "time": 60, "note": 70, "velocity": 110, "channel": 0}, {"type": "note_on", "time": 124, "note": 72, "velocity": 110, "channel": 0}, {"type": "note_off", "time": 163, "note": 72, "velocity": 110, "channel": 0}, {"type": "note_on", "time": 31, "note": 70, "velocity": 109, "channel": 0}, {"type": "note_off", "time": 64, "note": 70, "velocity": 109, "channel": 0}, {"type": "note_on", "time": 131, "note": 75, "velocity": 108, "channel": 0}, {"type": "note_off", "time": 42, "note": 75, "velocity": 108, "channel": 0}, {"type": "note_on", "time": 0, "note": 77, "velocity": 114, "channel": 0}, {"type": "note_off", "time": 28, "note": 77, "velocity": 114, "channel": 0}, {"type": "note_on", "time": 1, "note": 76, "velocity": 123, "channel": 0}, {"type": "note_off", "time": 194, "note": 76, "velocity": 123, "channel": 0}, {"type": "note_on", "time": 17, "note": 74, "velocity": 120, "channel": 0}, {"type": "note_off", "time": 73, "note": 74, "velocity": 120, "channel": 0}, {"type": "note_on", "time": 10, "note": 72, "velocity": 110, "channel": 0}, {"type": "note_off", "time": 152, "note": 72, "velocity": 110, "channel": 0}, {"type": "note_on", "time": 49, "note": 74, "velocity": 113, "channel": 0}, {"type": "note_off", "time": 95, "note": 74, "velocity": 113, "channel": 0}, {"type": "note_on", "time": 108, "note": 76, "velocity": 122, "channel": 0}, {"type": "note_off", "time": 242, "note": 76, "velocity": 122, "channel": 0}, {"type": "note_on", "time": 36, "note": 67, "velocity": 99, "channel": 0}, {"type": "note_off", "time": 364, "note": 67, "velocity": 99, "channel": 0}, {"type": "note_on", "time": 1293, "note": 79, "velocity": 110, "channel": 0}, {"type": "note_off", "time": 90, "note": 79, "velocity": 110, "channel": 0}, {"type": "note_on", "time": 19, "note": 75, "velocity": 119, "channel": 0}, {"type": "note_off", "time": 52, "note": 75, "velocity": 119, "channel": 0}, {"type": "note_on", "time": 24, "note": 74, "velocity": 123, "channel": 0}, {"type": "note_off", "time": 78, "note": 74, "velocity": 123, "channel": 0}, {"type": "note_on", "time": 4, "note": 73, "velocity": 104, "channel": 0}, {"type": "note_off", "time": 46, "note": 73, "velocity": 104, "channel": 0}, {"type": "note_on", "time": 2, "note": 75, "velocity": 107, "channel": 0}, {"type": "note_off", "time": 75, "note": 75, "velocity": 107, "channel": 0}, {"type": "note_on", "time": 43, "note": 71, "velocity": 113, "channel": 0}, {"type": "note_off", "time": 54, "note": 71, "velocity": 113, "channel": 0}, {"type": "note_on", "time": 15, "note": 70, "velocity": 105, "channel": 0}, {"type": "note_off", "time": 67, "note": 70, "velocity": 105, "channel": 0}, {"type": "note_on", "time": 46, "note": 74, "velocity": 113, "channel": 0}, {"type": "note_off", "time": 86, "note": 74, "velocity": 113, "channel": 0}, {"type": "note_on", "time": 4, "note": 69, "velocity": 115, "channel": 0}, {"type": "note_off", "time": 53, "note": 69, "velocity": 115, "channel": 0}, {"type": "note_on", "time": 2, "note": 70, "velocity": 114, "channel": 0}, {"type": "note_off", "time": 53, "note": 70, "velocity": 114, "channel": 0}, {"type": "note_on", "time": 8, "note": 69, "velocity": 113, "channel": 0}, {"type": "note_off", "time": 75, "note": 69, "velocity": 113, "channel": 0}, {"type": "note_on", "time": 0, "note": 67, "velocity": 109, "channel": 0}, {"type": "note_off", "time": 64, "note": 67, "velocity": 109, "channel": 0}, {"type": "note_on", "time": 28, "note": 65, "velocity": 113, "channel": 0}, {"type": "note_off", "time": 71, "note": 65, "velocity": 113, "channel": 0}, {"type": "note_on", "time": 8, "note": 64, "velocity": 105, "channel": 0}, {"type": "note_off", "time": 75, "note": 64, "velocity": 105, "channel": 0}, {"type": "note_on", "time": 13, "note": 65, "velocity": 109, "channel": 0}, {"type": "note_off", "time": 100, "note": 65, "velocity": 109, "channel": 0}, {"type": "note_on", "time": 23, "note": 67, "velocity": 113, "channel": 0}, {"type": "note_off", "time": 56, "note": 67, "velocity": 113, "channel": 0}, {"type": "note_on", "time": 20, "note": 69, "velocity": 111, "channel": 0}, {"type": "note_off", "time": 105, "note": 69, "velocity": 111, "channel": 0}, {"type": "note_on", "time": 2, "note": 70, "velocity": 111, "channel": 0}, {"type": "note_off", "time": 65, "note": 70, "velocity": 111, "channel": 0}, {"type": "note_on", "time": 35, "note": 72, "velocity": 110, "channel": 0}, {"type": "note_off", "time": 52, "note": 72, "velocity": 110, "channel": 0}, {"type": "note_on", "time": 8, "note": 73, "velocity": 113, "channel": 0}, {"type": "note_off", "time": 117, "note": 73, "velocity": 113, "channel": 0}, {"type": "note_on", "time": 15, "note": 68, "velocity": 96, "channel": 0}, {"type": "note_off", "time": 49, "note": 68, "velocity": 96, "channel": 0}, {"type": "note_on", "time": 15, "note": 72, "velocity": 104, "channel": 0}, {"type": "note_off", "time": 48, "note": 72, "velocity": 104, "channel": 0}, {"type": "note_on", "time": 8, "note": 73, "velocity": 99, "channel": 0}, {"type": "note_off", "time": 25, "note": 73, "velocity": 99, "channel": 0}, {"type": "note_on", "time": 17, "note": 69, "velocity": 112, "channel": 0}, {"type": "note_off", "time": 68, "note": 69, "velocity": 112, "channel": 0}, {"type": "note_on", "time": 5, "note": 70, "velocity": 111, "channel": 0}, {"type": "note_off", "time": 71, "note": 70, "velocity": 111, "channel": 0}, {"type": "note_on", "time": 90, "note": 68, "velocity": 94, "channel": 0}, {"type": "note_off", "time": 39, "note": 68, "velocity": 94, "channel": 0}, {"type": "note_on", "time": 20, "note": 69, "velocity": 113, "channel": 0}, {"type": "note_off", "time": 78, "note": 69, "velocity": 113, "channel": 0}, {"type": "note_on", "time": 1, "note": 66, "velocity": 103, "channel": 0}, {"type": "note_off", "time": 76, "note": 66, "velocity": 103, "channel": 0}, {"type": "note_on", "time": 32, "note": 67, "velocity": 102, "channel": 0}, {"type": "note_off", "time": 53, "note": 67, "velocity": 102, "channel": 0}, {"type": "note_on", "time": 23, "note": 69, "velocity": 111, "channel": 0}, {"type": "note_off", "time": 84, "note": 69, "velocity": 111, "channel": 0}, {"type": "note_on", "time": 15, "note": 70, "velocity": 108, "channel": 0}, {"type": "note_off", "time": 63, "note": 70, "velocity": 108, "channel": 0}, {"type": "note_on", "time": 21, "note": 72, "velocity": 108, "channel": 0}, {"type": "note_off", "time": 89, "note": 72, "velocity": 108, "channel": 0}, {"type": "note_on", "time": 1, "note": 74, "velocity": 105, "channel": 0}, {"type": "note_off", "time": 119, "note": 74, "velocity": 105, "channel": 0}, {"type": "note_on", "time": 79, "note": 73, "velocity": 104, "channel": 0}, {"type": "note_off", "time": 43, "note": 73, "velocity": 104, "channel": 0}, {"type": "note_on", "time": 1, "note": 74, "velocity": 114, "channel": 0}, {"type": "note_off", "time": 141, "note": 74, "velocity": 114, "channel": 0}, {"type": "note_on", "time": 0, "note": 72, "velocity": 107, "channel": 0}, {"type": "note_off", "time": 56, "note": 72, "velocity": 107, "channel": 0}, {"type": "note_on", "time": 4, "note": 74, "velocity": 117, "channel": 0}, {"type": "note_off", "time": 134, "note": 74, "velocity": 117, "channel": 0}, {"type": "note_on", "time": 4, "note": 72, "velocity": 106, "channel": 0}, {"type": "note_off", "time": 58, "note": 72, "velocity": 106, "channel": 0}, {"type": "note_on", "time": 4, "note": 74, "velocity": 120, "channel": 0}, {"type": "note_off", "time": 250, "note": 74, "velocity": 120, "channel": 0}, {"type": "note_on", "time": 15, "note": 67, "velocity": 96, "channel": 0}, {"type": "note_off", "time": 68, "note": 67, "velocity": 96, "channel": 0}, {"type": "note_on", "time": 116, "note": 70, "velocity": 106, "channel": 0}, {"type": "note_off", "time": 190, "note": 70, "velocity": 106, "channel": 0}, {"type": "note_on", "time": 68, "note": 70, "velocity": 108, "channel": 0}, {"type": "note_off", "time": 87, "note": 70, "velocity": 108, "channel": 0}, {"type": "note_on", "time": 701, "note": 74, "velocity": 122, "channel": 0}, {"type": "note_off", "time": 49, "note": 74, "velocity": 122, "channel": 0}, {"type": "note_on", "time": 108, "note": 77, "velocity": 126, "channel": 0}, {"type": "note_off", "time": 224, "note": 77, "velocity": 126, "channel": 0}, {"type": "note_on", "time": 0, "note": 74, "velocity": 126, "channel": 0}, {"type": "note_off", "time": 194, "note": 74, "velocity": 126, "channel": 0}, {"type": "note_on", "time": 0, "note": 77, "velocity": 120, "channel": 0}, {"type": "note_off", "time": 493, "note": 77, "velocity": 120, "channel": 0}, {"type": "note_on", "time": 1635, "note": 77, "velocity": 118, "channel": 0}, {"type": "note_off", "time": 78, "note": 77, "velocity": 118, "channel": 0}, {"type": "note_on", "time": 43, "note": 77, "velocity": 121, "channel": 0}, {"type": "note_off", "time": 61, "note": 77, "velocity": 121, "channel": 0}, {"type": "note_on", "time": 112, "note": 80, "velocity": 105, "channel": 0}, {"type": "note_off", "time": 36, "note": 80, "velocity": 105, "channel": 0}, {"type": "note_on", "time": 2, "note": 81, "velocity": 105, "channel": 0}, {"type": "note_off", "time": 45, "note": 81, "velocity": 105, "channel": 0}, {"type": "note_on", "time": 104, "note": 81, "velocity": 104, "channel": 0}, {"type": "note_off", "time": 279, "note": 81, "velocity": 104, "channel": 0}, {"type": "note_on", "time": 1146, "note": 83, "velocity": 112, "channel": 0}, {"type": "note_off", "time": 34, "note": 83, "velocity": 112, "channel": 0}, {"type": "note_on", "time": 8, "note": 84, "velocity": 122, "channel": 0}, {"type": "note_off", "time": 38, "note": 84, "velocity": 122, "channel": 0}, {"type": "note_on", "time": 9, "note": 83, "velocity": 116, "channel": 0}, {"type": "note_on", "time": 56, "note": 81, "velocity": 109, "channel": 0}, {"type": "note_off", "time": 0, "note": 83, "velocity": 116, "channel": 0}, {"type": "note_off", "time": 61, "note": 81, "velocity": 109, "channel": 0}, {"type": "note_on", "time": 38, "note": 77, "velocity": 118, "channel": 0}, {"type": "note_off", "time": 67, "note": 77, "velocity": 118, "channel": 0}, {"type": "note_on", "time": 8, "note": 76, "velocity": 119, "channel": 0}, {"type": "note_off", "time": 78, "note": 76, "velocity": 119, "channel": 0}, {"type": "note_on", "time": 15, "note": 77, "velocity": 100, "channel": 0}, {"type": "note_on", "time": 31, "note": 74, "velocity": 117, "channel": 0}, {"type": "note_off", "time": 0, "note": 77, "velocity": 100, "channel": 0}, {"type": "note_off", "time": 76, "note": 74, "velocity": 117, "channel": 0}, {"type": "note_on", "time": 0, "note": 73, "velocity": 112, "channel": 0}, {"type": "note_off", "time": 86, "note": 73, "velocity": 112, "channel": 0}, {"type": "note_on", "time": 32, "note": 76, "velocity": 111, "channel": 0}, {"type": "note_off", "time": 83, "note": 76, "velocity": 111, "channel": 0}, {"type": "note_on", "time": 6, "note": 74, "velocity": 111, "channel": 0}, {"type": "note_off", "time": 86, "note": 74, "velocity": 111, "channel": 0}, {"type": "note_on", "time": 104, "note": 74, "velocity": 121, "channel": 0}, {"type": "note_off", "time": 184, "note": 74, "velocity": 121, "channel": 0}, {"type": "note_on", "time": 24, "note": 74, "velocity": 117, "channel": 0}, {"type": "note_off", "time": 184, "note": 74, "velocity": 117, "channel": 0}, {"type": "note_on", "time": 5, "note": 76, "velocity": 114, "channel": 0}, {"type": "note_off", "time": 73, "note": 76, "velocity": 114, "channel": 0}, {"type": "note_on", "time": 119, "note": 77, "velocity": 121, "channel": 0}, {"type": "note_off", "time": 235, "note": 77, "velocity": 121, "channel": 0}, {"type": "note_on", "time": 46, "note": 74, "velocity": 109, "channel": 0}, {"type": "note_off", "time": 337, "note": 74, "velocity": 109, "channel": 0}, {"type": "note_on", "time": 1001, "note": 79, "velocity": 106, "channel": 0}, {"type": "note_off", "time": 46, "note": 79, "velocity": 106, "channel": 0}, {"type": "note_on", "time": 5, "note": 77, "velocity": 111, "channel": 0}, {"type": "note_off", "time": 93, "note": 77, "velocity": 111, "channel": 0}, {"type": "note_on", "time": 135, "note": 74, "velocity": 118, "channel": 0}, {"type": "note_off", "time": 184, "note": 74, "velocity": 118, "channel": 0}, {"type": "note_on", "time": 9, "note": 73, "velocity": 113, "channel": 0}, {"type": "note_off", "time": 176, "note": 73, "velocity": 113, "channel": 0}, {"type": "note_on", "time": 10, "note": 72, "velocity": 106, "channel": 0}, {"type": "note_off", "time": 178, "note": 72, "velocity": 106, "channel": 0}, {"type": "note_on", "time": 20, "note": 70, "velocity": 111, "channel": 0}, {"type": "note_off", "time": 194, "note": 70, "velocity": 111, "channel": 0}, {"type": "note_on", "time": 2, "note": 67, "velocity": 101, "channel": 0}, {"type": "note_off", "time": 58, "note": 67, "velocity": 101, "channel": 0}, {"type": "note_on", "time": 52, "note": 70, "velocity": 109, "channel": 0}, {"type": "note_off", "time": 64, "note": 70, "velocity": 109, "channel": 0}, {"type": "note_on", "time": 4, "note": 72, "velocity": 105, "channel": 0}, {"type": "note_off", "time": 76, "note": 72, "velocity": 105, "channel": 0}, {"type": "note_on", "time": 30, "note": 73, "velocity": 103, "channel": 0}, {"type": "note_off", "time": 235, "note": 73, "velocity": 103, "channel": 0}, {"type": "note_on", "time": 43, "note": 72, "velocity": 102, "channel": 0}, {"type": "note_off", "time": 84, "note": 72, "velocity": 102, "channel": 0}, {"type": "note_on", "time": 93, "note": 69, "velocity": 93, "channel": 0}, {"type": "note_off", "time": 31, "note": 69, "velocity": 93, "channel": 0}, {"type": "note_on", "time": 0, "note": 72, "velocity": 102, "channel": 0}, {"type": "note_off", "time": 127, "note": 72, "velocity": 102, "channel": 0}, {"type": "note_on", "time": 19, "note": 74, "velocity": 92, "channel": 0}, {"type": "note_off", "time": 34, "note": 74, "velocity": 92, "channel": 0}, {"type": "note_on", "time": 13, "note": 70, "velocity": 110, "channel": 0}, {"type": "note_off", "time": 102, "note": 70, "velocity": 110, "channel": 0}, {"type": "note_on", "time": 961, "note": 70, "velocity": 101, "channel": 0}, {"type": "note_off", "time": 38, "note": 70, "velocity": 101, "channel": 0}, {"type": "note_on", "time": 2, "note": 69, "velocity": 114, "channel": 0}, {"type": "note_off", "time": 35, "note": 69, "velocity": 114, "channel": 0}, {"type": "note_on", "time": 9, "note": 67, "velocity": 99, "channel": 0}, {"type": "note_off", "time": 83, "note": 67, "velocity": 99, "channel": 0}, {"type": "note_on", "time": 68, "note": 70, "velocity": 88, "channel": 0}, {"type": "note_off", "time": 26, "note": 70, "velocity": 88, "channel": 0}, {"type": "note_on", "time": 1, "note": 72, "velocity": 113, "channel": 0}, {"type": "note_off", "time": 189, "note": 72, "velocity": 113, "channel": 0}, {"type": "note_on", "time": 26, "note": 73, "velocity": 118, "channel": 0}, {"type": "note_off", "time": 169, "note": 73, "velocity": 118, "channel": 0}, {"type": "note_on", "time": 10, "note": 72, "velocity": 103, "channel": 0}, {"type": "note_off", "time": 179, "note": 72, "velocity": 103, "channel": 0}, {"type": "note_on", "time": 45, "note": 70, "velocity": 109, "channel": 0}, {"type": "note_off", "time": 54, "note": 70, "velocity": 109, "channel": 0}, {"type": "note_on", "time": 146, "note": 73, "velocity": 115, "channel": 0}, {"type": "note_off", "time": 67, "note": 73, "velocity": 115, "channel": 0}, {"type": "note_on", "time": 4, "note": 74, "velocity": 126, "channel": 0}, {"type": "note_off", "time": 112, "note": 74, "velocity": 126, "channel": 0}, {"type": "note_on", "time": 0, "note": 77, "velocity": 119, "channel": 0}, {"type": "note_off", "time": 141, "note": 77, "velocity": 119, "channel": 0}, {"type": "note_on", "time": 304, "note": 67, "velocity": 95, "channel": 0}, {"type": "note_off", "time": 53, "note": 67, "velocity": 95, "channel": 0}, {"type": "note_on", "time": 31, "note": 70, "velocity": 95, "channel": 0}, {"type": "note_off", "time": 34, "note": 70, "velocity": 95, "channel": 0}, {"type": "note_on", "time": 45, "note": 72, "velocity": 106, "channel": 0}, {"type": "note_off", "time": 108, "note": 72, "velocity": 106, "channel": 0}, {"type": "note_on", "time": 28, "note": 73, "velocity": 117, "channel": 0}, {"type": "note_off", "time": 189, "note": 73, "velocity": 117, "channel": 0}, {"type": "note_on", "time": 4, "note": 72, "velocity": 106, "channel": 0}, {"type": "note_off", "time": 173, "note": 72, "velocity": 106, "channel": 0}, {"type": "note_on", "time": 43, "note": 70, "velocity": 106, "channel": 0}, {"type": "note_off", "time": 160, "note": 70, "velocity": 106, "channel": 0}, {"type": "note_on", "time": 21, "note": 73, "velocity": 110, "channel": 0}, {"type": "note_off", "time": 58, "note": 73, "velocity": 110, "channel": 0}, {"type": "note_on", "time": 15, "note": 74, "velocity": 116, "channel": 0}, {"type": "note_off", "time": 112, "note": 74, "velocity": 116, "channel": 0}, {"type": "note_on", "time": 0, "note": 78, "velocity": 119, "channel": 0}, {"type": "note_off", "time": 109, "note": 78, "velocity": 119, "channel": 0}, {"type": "note_on", "time": 10, "note": 79, "velocity": 111, "channel": 0}, {"type": "note_off", "time": 104, "note": 79, "velocity": 111, "channel": 0}, {"type": "note_on", "time": 79, "note": 75, "velocity": 101, "channel": 0}, {"type": "note_on", "time": 21, "note": 77, "velocity": 117, "channel": 0}, {"type": "note_off", "time": 0, "note": 75, "velocity": 101, "channel": 0}, {"type": "note_off", "time": 91, "note": 77, "velocity": 117, "channel": 0}, {"type": "note_on", "time": 60, "note": 74, "velocity": 9, "channel": 0}, {"type": "note_off", "time": 130, "note": 74, "velocity": 9, "channel": 0}, {"type": "note_on", "time": 58, "note": 73, "velocity": 110, "channel": 0}, {"type": "note_off", "time": 110, "note": 73, "velocity": 110, "channel": 0}, {"type": "note_on", "time": 97, "note": 72, "velocity": 103, "channel": 0}, {"type": "note_off", "time": 67, "note": 72, "velocity": 103, "channel": 0}, {"type": "note_on", "time": 82, "note": 70, "velocity": 113, "channel": 0}, {"type": "note_off", "time": 105, "note": 70, "velocity": 113, "channel": 0}, {"type": "note_on", "time": 112, "note": 66, "velocity": 95, "channel": 0}, {"type": "note_off", "time": 60, "note": 66, "velocity": 95, "channel": 0}, {"type": "note_on", "time": 24, "note": 73, "velocity": 115, "channel": 0}, {"type": "note_off", "time": 72, "note": 73, "velocity": 115, "channel": 0}, {"type": "note_on", "time": 2, "note": 74, "velocity": 120, "channel": 0}, {"type": "note_off", "time": 87, "note": 74, "velocity": 120, "channel": 0}, {"type": "note_on", "time": 9, "note": 75, "velocity": 113, "channel": 0}, {"type": "note_off", "time": 95, "note": 75, "velocity": 113, "channel": 0}, {"type": "note_on", "time": 5, "note": 73, "velocity": 115, "channel": 0}, {"type": "note_off", "time": 78, "note": 73, "velocity": 115, "channel": 0}, {"type": "note_on", "time": 9, "note": 74, "velocity": 118, "channel": 0}, {"type": "note_off", "time": 91, "note": 74, "velocity": 118, "channel": 0}, {"type": "note_on", "time": 15, "note": 70, "velocity": 114, "channel": 0}, {"type": "note_off", "time": 86, "note": 70, "velocity": 114, "channel": 0}, {"type": "note_on", "time": 2, "note": 72, "velocity": 99, "channel": 0}, {"type": "note_off", "time": 58, "note": 72, "velocity": 99, "channel": 0}, {"type": "note_on", "time": 68, "note": 69, "velocity": 97, "channel": 0}, {"type": "note_off", "time": 36, "note": 69, "velocity": 97, "channel": 0}, {"type": "note_on", "time": 31, "note": 70, "velocity": 111, "channel": 0}, {"type": "note_off", "time": 101, "note": 70, "velocity": 111, "channel": 0}, {"type": "note_on", "time": 31, "note": 68, "velocity": 94, "channel": 0}, {"type": "note_off", "time": 56, "note": 68, "velocity": 94, "channel": 0}, {"type": "note_on", "time": 10, "note": 69, "velocity": 111, "channel": 0}, {"type": "note_off", "time": 50, "note": 69, "velocity": 111, "channel": 0}, {"type": "note_on", "time": 0, "note": 70, "velocity": 102, "channel": 0}, {"type": "note_off", "time": 36, "note": 70, "velocity": 102, "channel": 0}, {"type": "note_on", "time": 4, "note": 68, "velocity": 110, "channel": 0}, {"type": "note_off", "time": 80, "note": 68, "velocity": 110, "channel": 0}, {"type": "note_on", "time": 5, "note": 66, "velocity": 104, "channel": 0}, {"type": "note_off", "time": 60, "note": 66, "velocity": 104, "channel": 0}, {"type": "note_on", "time": 58, "note": 67, "velocity": 102, "channel": 0}, {"type": "note_off", "time": 54, "note": 67, "velocity": 102, "channel": 0}, {"type": "note_on", "time": 38, "note": 69, "velocity": 108, "channel": 0}, {"type": "note_off", "time": 76, "note": 69, "velocity": 108, "channel": 0}, {"type": "note_on", "time": 38, "note": 65, "velocity": 106, "channel": 0}, {"type": "note_off", "time": 32, "note": 65, "velocity": 106, "channel": 0}, {"type": "note_on", "time": 20, "note": 68, "velocity": 104, "channel": 0}, {"type": "note_off", "time": 53, "note": 68, "velocity": 104, "channel": 0}, {"type": "note_on", "time": 16, "note": 69, "velocity": 92, "channel": 0}, {"type": "note_off", "time": 68, "note": 69, "velocity": 92, "channel": 0}, {"type": "note_on", "time": 100, "note": 67, "velocity": 104, "channel": 0}, {"type": "note_off", "time": 590, "note": 67, "velocity": 104, "channel": 0}, {"type": "note_on", "time": 1193, "note": 78, "velocity": 108, "channel": 0}, {"type": "note_off", "time": 35, "note": 78, "velocity": 108, "channel": 0}, {"type": "note_on", "time": 0, "note": 77, "velocity": 115, "channel": 0}, {"type": "note_off", "time": 43, "note": 77, "velocity": 115, "channel": 0}, {"type": "note_on", "time": 4, "note": 75, "velocity": 118, "channel": 0}, {"type": "note_off", "time": 42, "note": 75, "velocity": 118, "channel": 0}, {"type": "note_on", "time": 0, "note": 74, "velocity": 117, "channel": 0}, {"type": "note_off", "time": 73, "note": 74, "velocity": 117, "channel": 0}, {"type": "note_on", "time": 1, "note": 73, "velocity": 114, "channel": 0}, {"type": "note_off", "time": 23, "note": 73, "velocity": 114, "channel": 0}, {"type": "note_on", "time": 12, "note": 72, "velocity": 113, "channel": 0}, {"type": "note_off", "time": 116, "note": 72, "velocity": 113, "channel": 0}, {"type": "note_on", "time": 10, "note": 71, "velocity": 106, "channel": 0}, {"type": "note_off", "time": 75, "note": 71, "velocity": 106, "channel": 0}, {"type": "note_on", "time": 6, "note": 70, "velocity": 111, "channel": 0}, {"type": "note_off", "time": 79, "note": 70, "velocity": 111, "channel": 0}, {"type": "note_on", "time": 24, "note": 74, "velocity": 114, "channel": 0}, {"type": "note_off", "time": 64, "note": 74, "velocity": 114, "channel": 0}, {"type": "note_on", "time": 34, "note": 69, "velocity": 115, "channel": 0}, {"type": "note_off", "time": 43, "note": 69, "velocity": 115, "channel": 0}, {"type": "note_on", "time": 8, "note": 70, "velocity": 117, "channel": 0}, {"type": "note_off", "time": 47, "note": 70, "velocity": 117, "channel": 0}, {"type": "note_on", "time": 20, "note": 69, "velocity": 112, "channel": 0}, {"type": "note_off", "time": 63, "note": 69, "velocity": 112, "channel": 0}, {"type": "note_on", "time": 13, "note": 67, "velocity": 107, "channel": 0}, {"type": "note_off", "time": 67, "note": 67, "velocity": 107, "channel": 0}, {"type": "note_on", "time": 19, "note": 65, "velocity": 112, "channel": 0}, {"type": "note_off", "time": 89, "note": 65, "velocity": 112, "channel": 0}, {"type": "note_on", "time": 21, "note": 64, "velocity": 109, "channel": 0}, {"type": "note_off", "time": 47, "note": 64, "velocity": 109, "channel": 0}, {"type": "note_on", "time": 27, "note": 65, "velocity": 114, "channel": 0}, {"type": "note_off", "time": 95, "note": 65, "velocity": 114, "channel": 0}, {"type": "note_on", "time": 23, "note": 66, "velocity": 100, "channel": 0}, {"type": "note_off", "time": 46, "note": 66, "velocity": 100, "channel": 0}, {"type": "note_on", "time": 27, "note": 69, "velocity": 114, "channel": 0}, {"type": "note_off", "time": 102, "note": 69, "velocity": 114, "channel": 0}, {"type": "note_on", "time": 15, "note": 70, "velocity": 117, "channel": 0}, {"type": "note_off", "time": 67, "note": 70, "velocity": 117, "channel": 0}, {"type": "note_on", "time": 30, "note": 72, "velocity": 107, "channel": 0}, {"type": "note_off", "time": 69, "note": 72, "velocity": 107, "channel": 0}, {"type": "note_on", "time": 9, "note": 73, "velocity": 112, "channel": 0}, {"type": "note_off", "time": 31, "note": 73, "velocity": 112, "channel": 0}, {"type": "note_on", "time": 17, "note": 74, "velocity": 116, "channel": 0}, {"type": "note_off", "time": 73, "note": 74, "velocity": 116, "channel": 0}, {"type": "note_on", "time": 1, "note": 73, "velocity": 116, "channel": 0}, {"type": "note_off", "time": 73, "note": 73, "velocity": 116, "channel": 0}, {"type": "note_on", "time": 10, "note": 72, "velocity": 109, "channel": 0}, {"type": "note_off", "time": 46, "note": 72, "velocity": 109, "channel": 0}, {"type": "note_on", "time": 38, "note": 70, "velocity": 112, "channel": 0}, {"type": "note_off", "time": 79, "note": 70, "velocity": 112, "channel": 0}, {"type": "note_on", "time": 4, "note": 69, "velocity": 112, "channel": 0}, {"type": "note_off", "time": 47, "note": 69, "velocity": 112, "channel": 0}, {"type": "note_on", "time": 9, "note": 70, "velocity": 114, "channel": 0}, {"type": "note_off", "time": 52, "note": 70, "velocity": 114, "channel": 0}, {"type": "note_on", "time": 23, "note": 69, "velocity": 111, "channel": 0}, {"type": "note_off", "time": 76, "note": 69, "velocity": 111, "channel": 0}, {"type": "note_on", "time": 93, "note": 65, "velocity": 109, "channel": 0}, {"type": "note_off", "time": 84, "note": 65, "velocity": 109, "channel": 0}, {"type": "note_on", "time": 0, "note": 64, "velocity": 97, "channel": 0}, {"type": "note_off", "time": 61, "note": 64, "velocity": 97, "channel": 0}, {"type": "note_on", "time": 11, "note": 65, "velocity": 92, "channel": 0}, {"type": "note_off", "time": 86, "note": 65, "velocity": 92, "channel": 0}, {"type": "note_on", "time": 27, "note": 67, "velocity": 104, "channel": 0}, {"type": "note_off", "time": 87, "note": 67, "velocity": 104, "channel": 0}, {"type": "note_on", "time": 35, "note": 64, "velocity": 105, "channel": 0}, {"type": "note_off", "time": 77, "note": 64, "velocity": 105, "channel": 0}, {"type": "note_on", "time": 15, "note": 65, "velocity": 104, "channel": 0}, {"type": "note_off", "time": 66, "note": 65, "velocity": 104, "channel": 0}, {"type": "note_on", "time": 44, "note": 64, "velocity": 103, "channel": 0}, {"type": "note_off", "time": 52, "note": 64, "velocity": 103, "channel": 0}, {"type": "note_on", "time": 0, "note": 69, "velocity": 110, "channel": 0}, {"type": "note_off", "time": 71, "note": 69, "velocity": 110, "channel": 0}, {"type": "note_on", "time": 26, "note": 72, "velocity": 107, "channel": 0}, {"type": "note_off", "time": 87, "note": 72, "velocity": 107, "channel": 0}, {"type": "note_on", "time": 991, "note": 72, "velocity": 119, "channel": 0}, {"type": "note_off", "time": 73, "note": 72, "velocity": 119, "channel": 0}, {"type": "note_on", "time": 16, "note": 74, "velocity": 118, "channel": 0}, {"type": "note_off", "time": 151, "note": 74, "velocity": 118, "channel": 0}, {"type": "note_on", "time": 44, "note": 70, "velocity": 122, "channel": 0}, {"type": "note_off", "time": 176, "note": 70, "velocity": 122, "channel": 0}, {"type": "note_on", "time": 23, "note": 69, "velocity": 117, "channel": 0}, {"type": "note_off", "time": 919, "note": 69, "velocity": 117, "channel": 0}, {"type": "note_on", "time": 179, "note": 76, "velocity": 126, "channel": 0}, {"type": "note_off", "time": 256, "note": 76, "velocity": 126, "channel": 0}, {"type": "note_on", "time": 34, "note": 70, "velocity": 117, "channel": 0}, {"type": "note_off", "time": 197, "note": 70, "velocity": 117, "channel": 0}, {"type": "note_on", "time": 4, "note": 69, "velocity": 112, "channel": 0}, {"type": "note_off", "time": 449, "note": 69, "velocity": 112, "channel": 0}, {"type": "note_on", "time": 557, "note": 69, "velocity": 118, "channel": 0}, {"type": "note_off", "time": 35, "note": 69, "velocity": 118, "channel": 0}, {"type": "note_on", "time": 3, "note": 70, "velocity": 121, "channel": 0}, {"type": "note_off", "time": 36, "note": 70, "velocity": 121, "channel": 0}, {"type": "note_on", "time": 4, "note": 69, "velocity": 111, "channel": 0}, {"type": "note_off", "time": 57, "note": 69, "velocity": 111, "channel": 0}, {"type": "note_on", "time": 41, "note": 67, "velocity": 109, "channel": 0}, {"type": "note_off", "time": 55, "note": 67, "velocity": 109, "channel": 0}, {"type": "note_on", "time": 34, "note": 69, "velocity": 118, "channel": 0}, {"type": "note_off", "time": 85, "note": 69, "velocity": 118, "channel": 0}, {"type": "note_on", "time": 13, "note": 70, "velocity": 114, "channel": 0}, {"type": "note_off", "time": 47, "note": 70, "velocity": 114, "channel": 0}, {"type": "note_on", "time": 33, "note": 69, "velocity": 119, "channel": 0}, {"type": "note_off", "time": 83, "note": 69, "velocity": 119, "channel": 0}, {"type": "note_on", "time": 14, "note": 73, "velocity": 109, "channel": 0}, {"type": "note_off", "time": 62, "note": 73, "velocity": 109, "channel": 0}, {"type": "note_on", "time": 493, "note": 73, "velocity": 113, "channel": 0}, {"type": "note_off", "time": 45, "note": 73, "velocity": 113, "channel": 0}, {"type": "note_on", "time": 0, "note": 74, "velocity": 118, "channel": 0}, {"type": "note_off", "time": 55, "note": 74, "velocity": 118, "channel": 0}, {"type": "note_on", "time": 14, "note": 73, "velocity": 118, "channel": 0}, {"type": "note_off", "time": 66, "note": 73, "velocity": 118, "channel": 0}, {"type": "note_on", "time": 16, "note": 72, "velocity": 111, "channel": 0}, {"type": "note_off", "time": 69, "note": 72, "velocity": 111, "channel": 0}, {"type": "note_on", "time": 38, "note": 70, "velocity": 117, "channel": 0}, {"type": "note_off", "time": 68, "note": 70, "velocity": 117, "channel": 0}, {"type": "note_on", "time": 22, "note": 68, "velocity": 113, "channel": 0}, {"type": "note_off", "time": 64, "note": 68, "velocity": 113, "channel": 0}, {"type": "note_on", "time": 23, "note": 73, "velocity": 111, "channel": 0}, {"type": "note_off", "time": 35, "note": 73, "velocity": 111, "channel": 0}, {"type": "note_on", "time": 11, "note": 70, "velocity": 117, "channel": 0}, {"type": "note_off", "time": 43, "note": 70, "velocity": 117, "channel": 0}, {"type": "note_on", "time": 24, "note": 67, "velocity": 108, "channel": 0}, {"type": "note_off", "time": 63, "note": 67, "velocity": 108, "channel": 0}, {"type": "note_on", "time": 144, "note": 67, "velocity": 110, "channel": 0}, {"type": "note_off", "time": 67, "note": 67, "velocity": 110, "channel": 0}, {"type": "note_on", "time": 117, "note": 70, "velocity": 106, "channel": 0}, {"type": "note_off", "time": 102, "note": 70, "velocity": 106, "channel": 0}, {"type": "note_on", "time": 89, "note": 72, "velocity": 117, "channel": 0}, {"type": "note_off", "time": 156, "note": 72, "velocity": 117, "channel": 0}, {"type": "note_on", "time": 11, "note": 70, "velocity": 108, "channel": 0}, {"type": "note_off", "time": 92, "note": 70, "velocity": 108, "channel": 0}, {"type": "note_on", "time": 99, "note": 72, "velocity": 113, "channel": 0}, {"type": "note_off", "time": 167, "note": 72, "velocity": 113, "channel": 0}, {"type": "note_on", "time": 45, "note": 70, "velocity": 101, "channel": 0}, {"type": "note_off", "time": 104, "note": 70, "velocity": 101, "channel": 0}, {"type": "note_on", "time": 72, "note": 72, "velocity": 114, "channel": 0}, {"type": "note_off", "time": 69, "note": 72, "velocity": 114, "channel": 0}, {"type": "note_on", "time": 20, "note": 70, "velocity": 113, "channel": 0}, {"type": "note_off", "time": 55, "note": 70, "velocity": 113, "channel": 0}, {"type": "note_on", "time": 12, "note": 67, "velocity": 112, "channel": 0}, {"type": "note_off", "time": 84, "note": 67, "velocity": 112, "channel": 0}, {"type": "note_on", "time": 69, "note": 67, "velocity": 112, "channel": 0}, {"type": "note_off", "time": 228, "note": 67, "velocity": 112, "channel": 0}, {"type": "note_on", "time": 7, "note": 70, "velocity": 109, "channel": 0}, {"type": "note_off", "time": 87, "note": 70, "velocity": 109, "channel": 0}, {"type": "note_on", "time": 53, "note": 61, "velocity": 105, "channel": 0}, {"type": "note_off", "time": 57, "note": 61, "velocity": 105, "channel": 0}, {"type": "note_on", "time": 0, "note": 67, "velocity": 109, "channel": 0}, {"type": "note_off", "time": 183, "note": 67, "velocity": 109, "channel": 0}, {"type": "note_on", "time": 0, "note": 70, "velocity": 112, "channel": 0}, {"type": "note_off", "time": 824, "note": 70, "velocity": 112, "channel": 0}, {"type": "note_on", "time": 60, "note": 67, "velocity": 109, "channel": 0}, {"type": "note_off", "time": 256, "note": 67, "velocity": 109, "channel": 0}, {"type": "note_on", "time": 16, "note": 67, "velocity": 108, "channel": 0}, {"type": "note_off", "time": 89, "note": 67, "velocity": 108, "channel": 0}, {"type": "note_on", "time": 119, "note": 65, "velocity": 105, "channel": 0}, {"type": "note_off", "time": 156, "note": 65, "velocity": 105, "channel": 0}, {"type": "note_on", "time": 39, "note": 67, "velocity": 96, "channel": 0}, {"type": "note_off", "time": 707, "note": 67, "velocity": 96, "channel": 0}, {"type": "end_of_track", "time": 0}]]}