{"ticks_per_beat": 192, "tracks": [[{"type": "note_on", "time": 0, "note": 74, "velocity": 116, "channel": 0}, {"type": "note_off", "time": 162, "note": 74, "velocity": 116, "channel": 0}, {"type": "note_on", "time": 126, "note": 71, "velocity": 114, "channel": 0}, {"type": "note_off", "time": 131, "note": 71, "velocity": 114, "channel": 0}, {"type": "note_on", "time": 94, "note": 69, "velocity": 113, "channel": 0}, {"type": "note_off", "time": 120, "note": 69, "velocity": 113, "channel": 0}, {"type": "note_on", "time": 194, "note": 66, "velocity": 114, "channel": 0}, {"type": "note_off", "time": 120, "note": 66, "velocity": 114, "channel": 0}, {"type": "note_on", "time": 162, "note": 62, "velocity": 86, "channel": 0}, {"type": "note_off", "time": 115, "note": 62, "velocity": 86, "channel": 0}, {"type": "note_on", "time": 52, "note": 71, "velocity": 107, "channel": 0}, {"type": "track_name", "name": "Melody", "time": 38}, {"type": "set_tempo", "tempo": 298507, "time": 0}, {"type": "time_signature", "numerator": 1, "denominator": 4, "clocks_per_click": 24, "notated_32nd_notes_per_beat": 8, "time": 0}, {"type": "note_off", "time": 84, "note": 71, "velocity": 107, "channel": 0}, {"type": "note_on", "time": 70, "note": 69, "velocity": 108, "channel": 0}, {"type": "note_off", "time": 138, "note": 69, "velocity": 108, "channel": 0}, {"type": "note_on", "time": 63, "note": 71, "velocity": 105, "channel": 0}, {"type": "note_off", "time": 104, "note": 71, "velocity": 105, "channel": 0}, {"type": "note_on", "time": 298, "note": 71, "velocity": 108, "channel": 0}, {"type": "note_off", "time": 97, "note": 71, "velocity": 108, "channel": 0}, {"type": "note_on", "time": 85, "note": 69, "velocity": 108, "channel": 0}, {"type": "note_off", "time": 130, "note": 69, "velocity": 108, "channel": 0}, {"type": "note_on", "time": 74, "note": 66, "velocity": 101, "channel": 0}, {"type": "note_off", "time": 112, "note": 66, "velocity": 101, "channel": 0}, {"type": "note_on", "time": 253, "note": 66, "velocity": 107, "channel": 0}, {"type": "note_off", "time": 70, "note": 66, "velocity": 107, "channel": 0}, {"type": "note_on", "time": 26, "note": 66, "velocity": 103, "channel": 0}, {"type": "note_off", "time": 74, "note": 66, "velocity": 103, "channel": 0}, {"type": "note_on", "time": 33, "note": 69, "velocity": 110, "channel": 0}, {"type": "note_off", "time": 119, "note": 69, "velocity": 110, "channel": 0}, {"type": "note_on", "time": 67, "note": 69, "velocity": 112, "channel": 0}, {"type": "note_off", "time": 81, "note": 69, "velocity": 112, "channel": 0}, {"type": "note_on", "time": 139, "note": 71, "velocity": 111, "channel": 0}, {"type": "note_off", "time": 78, "note": 71, "velocity": 111, "channel": 0}, {"type": "note_on", "time": 5, "note": 69, "velocity": 107, "channel": 0}, {"type": "note_off", "time": 78, "note": 69, "velocity": 107, "channel": 0}, {"type": "note_on", "time": 15, "note": 65, "velocity": 97, "channel": 0}, {"type": "note_off", "time": 70, "note": 65, "velocity": 97, "channel": 0}, {"type": "note_on", "time": 55, "note": 62, "velocity": 92, "channel": 0}, {"type": "note_off", "time": 94, "note": 62, "velocity": 92, "channel": 0}, {"type": "note_on", "time": 55, "note": 62, "velocity": 92, "channel": 0}, {"type": "note_off", "time": 97, "note": 62, "velocity": 92, "channel": 0}, {"type": "note_on", "time": 107, "note": 66, "velocity": 115, "channel": 0}, {"type": "note_off", "time": 86, "note": 66, "velocity": 115, "channel": 0}, {"type": "note_on", "time": 213, "note": 62, "velocity": 81, "channel": 0}, {"type": "note_off", "time": 56, "note": 62, "velocity": 81, "channel": 0}, {"type": "note_on", "time": 22, "note": 62, "velocity": 85, "channel": 0}, {"type": "note_off", "time": 61, "note": 62, "velocity": 85, "channel": 0}, {"type": "note_on", "time": 31, "note": 67, "velocity": 109, "channel": 0}, {"type": "note_off", "time": 93, "note": 67, "velocity": 109, "channel": 0}, {"type": "note_on", "time": 87, "note": 67, "velocity": 115, "channel": 0}, {"type": "note_off", "time": 104, "note": 67, "velocity": 115, "channel": 0}, {"type": "note_on", "time": 85, "note": 71, "velocity": 107, "channel": 0}, {"type": "note_off", "time": 106, "note": 71, "velocity": 107, "channel": 0}, {"type": "note_on", "time": 24, "note": 69, "velocity": 113, "channel": 0}, {"type": "note_off", "time": 74, "note": 69, "velocity": 113, "channel": 0}, {"type": "note_on", "time": 98, "note": 69, "velocity": 110, "channel": 0}, {"type": "note_off", "time": 132, "note": 69, "velocity": 110, "channel": 0}, {"type": "note_on", "time": 610, "note": 67, "velocity": 95, "channel": 0}, {"type": "note_off", "time": 78, "note": 67, "velocity": 95, "channel": 0}, {"type": "note_on", "time": 15, "note": 71, "velocity": 111, "channel": 0}, {"type": "note_off", "time": 98, "note": 71, "velocity": 111, "channel": 0}, {"type": "note_on", "time": 99, "note": 74, "velocity": 113, "channel": 0}, {"type": "note_off", "time": 115, "note": 74, "velocity": 113, "channel": 0}, {"type": "note_on", "time": 54, "note": 76, "velocity": 121, "channel": 0}, {"type": "note_off", "time": 112, "note": 76, "velocity": 121, "channel": 0}, {"type": "note_on", "time": 18, "note": 74, "velocity": 105, "channel": 0}, {"type": "note_off", "time": 80, "note": 74, "velocity": 105, "channel": 0}, {"type": "note_on", "time": 113, "note": 74, "velocity": 91, "channel": 0}, {"type": "note_off", "time": 278, "note": 74, "velocity": 91, "channel": 0}, {"type": "note_on", "time": 350, "note": 71, "velocity": 114, "channel": 0}, {"type": "note_off", "time": 89, "note": 71, "velocity": 114, "channel": 0}, {"type": "note_on", "time": 18, "note": 67, "velocity": 106, "channel": 0}, {"type": "note_off", "time": 65, "note": 67, "velocity": 106, "channel": 0}, {"type": "note_on", "time": 11, "note": 69, "velocity": 105, "channel": 0}, {"type": "note_off", "time": 190, "note": 69, "velocity": 105, "channel": 0}, {"type": "note_on", "time": 14, "note": 66, "velocity": 111, "channel": 0}, {"type": "note_on", "time": 112, "note": 62, "velocity": 84, "channel": 0}, {"type": "note_off", "time": 0, "note": 66, "velocity": 111, "channel": 0}, {"type": "note_off", "time": 52, "note": 62, "velocity": 84, "channel": 0}, {"type": "note_on", "time": 29, "note": 67, "velocity": 113, "channel": 0}, {"type": "note_off", "time": 87, "note": 67, "velocity": 113, "channel": 0}, {"type": "note_on", "time": 0, "note": 66, "velocity": 100, "channel": 0}, {"type": "note_off", "time": 26, "note": 66, "velocity": 100, "channel": 0}, {"type": "note_on", "time": 24, "note": 62, "velocity": 95, "channel": 0}, {"type": "note_off", "time": 110, "note": 62, "velocity": 95, "channel": 0}, {"type": "note_on", "time": 339, "note": 77, "velocity": 120, "channel": 0}, {"type": "note_off", "time": 56, "note": 77, "velocity": 120, "channel": 0}, {"type": "note_on", "time": 0, "note": 78, "velocity": 119, "channel": 0}, {"type": "note_off", "time": 63, "note": 78, "velocity": 119, "channel": 0}, {"type": "note_on", "time": 0, "note": 76, "velocity": 121, "channel": 0}, {"type": "note_off", "time": 63, "note": 76, "velocity": 121, "channel": 0}, {"type": "note_on", "time": 26, "note": 74, "velocity": 106, "channel": 0}, {"type": "note_off", "time": 89, "note": 74, "velocity": 106, "channel": 0}, {"type": "note_on", "time": 7, "note": 71, "velocity": 111, "channel": 0}, {"type": "note_off", "time": 67, "note": 71, "velocity": 111, "channel": 0}, {"type": "note_on", "time": 11, "note": 70, "velocity": 108, "channel": 0}, {"type": "note_off", "time": 84, "note": 70, "velocity": 108, "channel": 0}, {"type": "note_on", "time": 16, "note": 67, "velocity": 108, "channel": 0}, {"type": "note_off", "time": 74, "note": 67, "velocity": 108, "channel": 0}, {"type": "note_on", "time": 7, "note": 69, "velocity": 111, "channel": 0}, {"type": "note_off", "time": 95, "note": 69, "velocity": 111, "channel": 0}, {"type": "note_on", "time": 14, "note": 67, "velocity": 112, "channel": 0}, {"type": "note_off", "time": 82, "note": 67, "velocity": 112, "channel": 0}, {"type": "note_on", "time": 7, "note": 66, "velocity": 107, "channel": 0}, {"type": "note_off", "time": 84, "note": 66, "velocity": 107, "channel": 0}, {"type": "note_on", "time": 20, "note": 62, "velocity": 91, "channel": 0}, {"type": "note_off", "time": 42, "note": 62, "velocity": 91, "channel": 0}, {"type": "note_on", "time": 46, "note": 66, "velocity": 104, "channel": 0}, {"type": "note_off", "time": 98, "note": 66, "velocity": 104, "channel": 0}, {"type": "note_on", "time": 1, "note": 62, "velocity": 81, "channel": 0}, {"type": "note_off", "time": 52, "note": 62, "velocity": 81, "channel": 0}, {"type": "note_on", "time": 14, "note": 64, "velocity": 102, "channel": 0}, {"type": "note_off", "time": 91, "note": 64, "velocity": 102, "channel": 0}, {"type": "note_on", "time": 33, "note": 60, "velocity": 93, "channel": 0}, {"type": "note_off", "time": 54, "note": 60, "velocity": 93, "channel": 0}, {"type": "note_on", "time": 13, "note": 62, "velocity": 97, "channel": 0}, {"type": "note_off", "time": 100, "note": 62, "velocity": 97, "channel": 0}, {"type": "note_on", "time": 31, "note": 59, "velocity": 94, "channel": 0}, {"type": "note_off", "time": 54, "note": 59, "velocity": 94, "channel": 0}, {"type": "note_on", "time": 24, "note": 57, "velocity": 93, "channel": 0}, {"type": "note_off", "time": 93, "note": 57, "velocity": 93, "channel": 0}, {"type": "note_on", "time": 0, "note": 56, "velocity": 82, "channel": 0}, {"type": "note_off", "time": 33, "note": 56, "velocity": 82, "channel": 0}, {"type": "note_on", "time": 184, "note": 65, "velocity": 102, "channel": 0}, {"type": "note_off", "time": 41, "note": 65, "velocity": 102, "channel": 0}, {"type": "note_on", "time": 3, "note": 66, "velocity": 111, "channel": 0}, {"type": "note_off", "time": 80, "note": 66, "velocity": 111, "channel": 0}, {"type": "note_on", "time": 1, "note": 62, "velocity": 86, "channel": 0}, {"type": "note_off", "time": 50, "note": 62, "velocity": 86, "channel": 0}, {"type": "note_on", "time": 106, "note": 63, "velocity": 102, "channel": 0}, {"type": "note_off", "time": 43, "note": 63, "velocity": 102, "channel": 0}, {"type": "note_on", "time": 5, "note": 64, "velocity": 103, "channel": 0}, {"type": "note_off", "time": 27, "note": 64, "velocity": 103, "channel": 0}, {"type": "note_on", "time": 10, "note": 63, "velocity": 106, "channel": 0}, {"type": "note_off", "time": 26, "note": 63, "velocity": 106, "channel": 0}, {"type": "note_on", "time": 4, "note": 64, "velocity": 106, "channel": 0}, {"type": "note_off", "time": 252, "note": 64, "velocity": 106, "channel": 0}, {"type": "note_on", "time": 0, "note": 65, "velocity": 101, "channel": 0}, {"type": "note_off", "time": 169, "note": 65, "velocity": 101, "channel": 0}, {"type": "note_on", "time": 11, "note": 64, "velocity": 94, "channel": 0}, {"type": "note_off", "time": 35, "note": 64, "velocity": 94, "channel": 0}, {"type": "note_on", "time": 10, "note": 62, "velocity": 92, "channel": 0}, {"type": "note_off", "time": 106, "note": 62, "velocity": 92, "channel": 0}, {"type": "note_on", "time": 960, "note": 64, "velocity": 105, "channel": 0}, {"type": "note_off", "time": 39, "note": 64, "velocity": 105, "channel": 0}, {"type": "note_on", "time": 14, "note": 63, "velocity": 113, "channel": 0}, {"type": "note_off", "time": 324, "note": 63, "velocity": 113, "channel": 0}, {"type": "note_on", "time": 10, "note": 64, "velocity": 103, "channel": 0}, {"type": "note_off", "time": 78, "note": 64, "velocity": 103, "channel": 0}, {"type": "note_on", "time": 30, "note": 65, "velocity": 98, "channel": 0}, {"type": "note_off", "time": 284, "note": 65, "velocity": 98, "channel": 0}, {"type": "note_on", "time": 13, "note": 65, "velocity": 102, "channel": 0}, {"type": "note_off", "time": 44, "note": 65, "velocity": 102, "channel": 0}, {"type": "note_on", "time": 11, "note": 64, "velocity": 101, "channel": 0}, {"type": "note_off", "time": 99, "note": 64, "velocity": 101, "channel": 0}, {"type": "note_on", "time": 24, "note": 62, "velocity": 98, "channel": 0}, {"type": "note_off", "time": 157, "note": 62, "velocity": 98, "channel": 0}, {"type": "note_on", "time": 70, "note": 59, "velocity": 91, "channel": 0}, {"type": "note_off", "time": 82, "note": 59, "velocity": 91, "channel": 0}, {"type": "note_on", "time": 39, "note": 53, "velocity": 101, "channel": 0}, {"type": "note_off", "time": 40, "note": 53, "velocity": 101, "channel": 0}, {"type": "note_on", "time": 19, "note": 57, "velocity": 94, "channel": 0}, {"type": "note_off", "time": 77, "note": 57, "velocity": 94, "channel": 0}, {"type": "note_on", "time": 31, "note": 64, "velocity": 105, "channel": 0}, {"type": "note_off", "time": 51, "note": 64, "velocity": 105, "channel": 0}, {"type": "note_on", "time": 1, "note": 62, "velocity": 104, "channel": 0}, {"type": "note_off", "time": 31, "note": 62, "velocity": 104, "channel": 0}, {"type": "note_on", "time": 10, "note": 63, "velocity": 103, "channel": 0}, {"type": "note_off", "time": 220, "note": 63, "velocity": 103, "channel": 0}, {"type": "note_on", "time": 7, "note": 64, "velocity": 104, "channel": 0}, {"type": "note_off", "time": 397, "note": 64, "velocity": 104, "channel": 0}, {"type": "note_on", "time": 7, "note": 65, "velocity": 97, "channel": 0}, {"type": "note_off", "time": 51, "note": 65, "velocity": 97, "channel": 0}, {"type": "note_on", "time": 7, "note": 64, "velocity": 103, "channel": 0}, {"type": "note_off", "time": 127, "note": 64, "velocity": 103, "channel": 0}, {"type": "note_on", "time": 21, "note": 62, "velocity": 89, "channel": 0}, {"type": "note_off", "time": 192, "note": 62, "velocity": 89, "channel": 0}, {"type": "note_on", "time": 65, "note": 58, "velocity": 94, "channel": 0}, {"type": "note_off", "time": 57, "note": 58, "velocity": 94, "channel": 0}, {"type": "note_on", "time": 0, "note": 57, "velocity": 84, "channel": 0}, {"type": "note_off", "time": 13, "note": 57, "velocity": 84, "channel": 0}, {"type": "note_on", "time": 455, "note": 66, "velocity": 111, "channel": 0}, {"type": "note_off", "time": 60, "note": 66, "velocity": 111, "channel": 0}, {"type": "note_on", "time": 18, "note": 69, "velocity": 125, "channel": 0}, {"type": "note_off", "time": 99, "note": 69, "velocity": 125, "channel": 0}, {"type": "note_on", "time": 10, "note": 70, "velocity": 115, "channel": 0}, {"type": "note_off", "time": 53, "note": 70, "velocity": 115, "channel": 0}, {"type": "note_on", "time": 10, "note": 72, "velocity": 117, "channel": 0}, {"type": "note_off", "time": 111, "note": 72, "velocity": 117, "channel": 0}, {"type": "note_on", "time": 1, "note": 70, "velocity": 109, "channel": 0}, {"type": "note_off", "time": 245, "note": 70, "velocity": 109, "channel": 0}, {"type": "note_on", "time": 2, "note": 69, "velocity": 109, "channel": 0}, {"type": "note_off", "time": 95, "note": 69, "velocity": 109, "channel": 0}, {"type": "note_on", "time": 14, "note": 67, "velocity": 108, "channel": 0}, {"type": "note_off", "time": 76, "note": 67, "velocity": 108, "channel": 0}, {"type": "note_on", "time": 32, "note": 65, "velocity": 98, "channel": 0}, {"type": "note_off", "time": 31, "note": 65, "velocity": 98, "channel": 0}, {"type": "note_on", "time": 5, "note": 66, "velocity": 99, "channel": 0}, {"type": "note_off", "time": 49, "note": 66, "velocity": 99, "channel": 0}, {"type": "note_on", "time": 6, "note": 62, "velocity": 99, "channel": 0}, {"type": "note_off", "time": 65, "note": 62, "velocity": 99, "channel": 0}, {"type": "note_on", "time": 6, "note": 59, "velocity": 90, "channel": 0}, {"type": "note_off", "time": 77, "note": 59, "velocity": 90, "channel": 0}, {"type": "note_on", "time": 32, "note": 54, "velocity": 87, "channel": 0}, {"type": "note_off", "time": 52, "note": 54, "velocity": 87, "channel": 0}, {"type": "note_on", "time": 27, "note": 62, "velocity": 94, "channel": 0}, {"type": "note_off", "time": 64, "note": 62, "velocity": 94, "channel": 0}, {"type": "note_on", "time": 111, "note": 66, "velocity": 102, "channel": 0}, {"type": "note_off", "time": 106, "note": 66, "velocity": 102, "channel": 0}, {"type": "note_on", "time": 78, "note": 67, "velocity": 102, "channel": 0}, {"type": "note_off", "time": 110, "note": 67, "velocity": 102, "channel": 0}, {"type": "note_on", "time": 16, "note": 69, "velocity": 104, "channel": 0}, {"type": "note_off", "time": 84, "note": 69, "velocity": 104, "channel": 0}, {"type": "note_on", "time": 98, "note": 69, "velocity": 88, "channel": 0}, {"type": "note_off", "time": 250, "note": 69, "velocity": 88, "channel": 0}, {"type": "note_on", "time": 510, "note": 69, "velocity": 115, "channel": 0}, {"type": "note_off", "time": 116, "note": 69, "velocity": 115, "channel": 0}, {"type": "note_on", "time": 1, "note": 71, "velocity": 116, "channel": 0}, {"type": "note_off", "time": 73, "note": 71, "velocity": 116, "channel": 0}, {"type": "note_on", "time": 10, "note": 71, "velocity": 116, "channel": 0}, {"type": "note_off", "time": 34, "note": 71, "velocity": 116, "channel": 0}, {"type": "note_on", "time": 0, "note": 72, "velocity": 114, "channel": 0}, {"type": "note_off", "time": 36, "note": 72, "velocity": 114, "channel": 0}, {"type": "note_on", "time": 10, "note": 72, "velocity": 107, "channel": 0}, {"type": "note_off", "time": 34, "note": 72, "velocity": 107, "channel": 0}, {"type": "note_on", "time": 3, "note": 74, "velocity": 102, "channel": 0}, {"type": "note_off", "time": 85, "note": 74, "velocity": 102, "channel": 0}, {"type": "note_on", "time": 13, "note": 74, "velocity": 117, "channel": 0}, {"type": "note_off", "time": 82, "note": 74, "velocity": 117, "channel": 0}, {"type": "note_on", "time": 5, "note": 76, "velocity": 122, "channel": 0}, {"type": "note_off", "time": 93, "note": 76, "velocity": 122, "channel": 0}, {"type": "note_on", "time": 11, "note": 73, "velocity": 109, "channel": 0}, {"type": "note_off", "time": 76, "note": 73, "velocity": 109, "channel": 0}, {"type": "note_on", "time": 15, "note": 71, "velocity": 106, "channel": 0}, {"type": "note_off", "time": 72, "note": 71, "velocity": 106, "channel": 0}, {"type": "note_on", "time": 15, "note": 70, "velocity": 108, "channel": 0}, {"type": "note_off", "time": 76, "note": 70, "velocity": 108, "channel": 0}, {"type": "note_on", "time": 11, "note": 69, "velocity": 108, "channel": 0}, {"type": "note_off", "time": 99, "note": 69, "velocity": 108, "channel": 0}, {"type": "note_on", "time": 10, "note": 67, "velocity": 102, "channel": 0}, {"type": "note_off", "time": 61, "note": 67, "velocity": 102, "channel": 0}, {"type": "note_on", "time": 21, "note": 66, "velocity": 93, "channel": 0}, {"type": "note_off", "time": 87, "note": 66, "velocity": 93, "channel": 0}, {"type": "note_on", "time": 97, "note": 64, "velocity": 97, "channel": 0}, {"type": "note_off", "time": 84, "note": 64, "velocity": 97, "channel": 0}, {"type": "note_on", "time": 13, "note": 65, "velocity": 96, "channel": 0}, {"type": "note_off", "time": 74, "note": 65, "velocity": 96, "channel": 0}, {"type": "note_on", "time": 115, "note": 70, "velocity": 90, "channel": 0}, {"type": "note_off", "time": 64, "note": 70, "velocity": 90, "channel": 0}, {"type": "note_on", "time": 31, "note": 75, "velocity": 112, "channel": 0}, {"type": "note_off", "time": 107, "note": 75, "velocity": 112, "channel": 0}, {"type": "note_on", "time": 105, "note": 69, "velocity": 110, "channel": 0}, {"type": "note_off", "time": 89, "note": 69, "velocity": 110, "channel": 0}, {"type": "note_on", "time": 5, "note": 70, "velocity": 97, "channel": 0}, {"type": "note_off", "time": 80, "note": 70, "velocity": 97, "channel": 0}, {"type": "note_on", "time": 22, "note": 69, "velocity": 95, "channel": 0}, {"type": "note_off", "time": 77, "note": 69, "velocity": 95, "channel": 0}, {"type": "note_on", "time": 14, "note": 67, "velocity": 91, "channel": 0}, {"type": "note_off", "time": 72, "note": 67, "velocity": 91, "channel": 0}, {"type": "note_on", "time": 963, "note": 69, "velocity": 123, "channel": 0}, {"type": "note_off", "time": 115, "note": 69, "velocity": 123, "channel": 0}, {"type": "note_on", "time": 24, "note": 69, "velocity": 120, "channel": 0}, {"type": "note_off", "time": 145, "note": 69, "velocity": 120, "channel": 0}, {"type": "note_on", "time": 0, "note": 70, "velocity": 97, "channel": 0}, {"type": "note_off", "time": 18, "note": 70, "velocity": 97, "channel": 0}, {"type": "note_on", "time": 9, "note": 69, "velocity": 92, "channel": 0}, {"type": "note_off", "time": 45, "note": 69, "velocity": 92, "channel": 0}, {"type": "note_on", "time": 7, "note": 69, "velocity": 119, "channel": 0}, {"type": "note_off", "time": 114, "note": 69, "velocity": 119, "channel": 0}, {"type": "note_on", "time": 31, "note": 74, "velocity": 116, "channel": 0}, {"type": "note_off", "time": 72, "note": 74, "velocity": 116, "channel": 0}, {"type": "note_on", "time": 103, "note": 71, "velocity": 115, "channel": 0}, {"type": "note_off", "time": 85, "note": 71, "velocity": 115, "channel": 0}, {"type": "note_on", "time": 97, "note": 67, "velocity": 110, "channel": 0}, {"type": "note_off", "time": 90, "note": 67, "velocity": 110, "channel": 0}, {"type": "note_on", "time": 78, "note": 69, "velocity": 99, "channel": 0}, {"type": "note_off", "time": 240, "note": 69, "velocity": 99, "channel": 0}, {"type": "note_on", "time": 161, "note": 62, "velocity": 87, "channel": 0}, {"type": "note_off", "time": 80, "note": 62, "velocity": 87, "channel": 0}, {"type": "note_on", "time": 0, "note": 66, "velocity": 107, "channel": 0}, {"type": "note_off", "time": 110, "note": 66, "velocity": 107, "channel": 0}, {"type": "note_on", "time": 95, "note": 66, "velocity": 100, "channel": 0}, {"type": "note_off", "time": 106, "note": 66, "velocity": 100, "channel": 0}, {"type": "note_on", "time": 89, "note": 67, "velocity": 109, "channel": 0}, {"type": "note_off", "time": 107, "note": 67, "velocity": 109, "channel": 0}, {"type": "note_on", "time": 19, "note": 69, "velocity": 111, "channel": 0}, {"type": "note_off", "time": 84, "note": 69, "velocity": 111, "channel": 0}, {"type": "note_on", "time": 87, "note": 66, "velocity": 100, "channel": 0}, {"type": "note_off", "time": 91, "note": 66, "velocity": 100, "channel": 0}, {"type": "note_on", "time": 107, "note": 62, "velocity": 98, "channel": 0}, {"type": "note_off", "time": 87, "note": 62, "velocity": 98, "channel": 0}, {"type": "note_on", "time": 101, "note": 59, "velocity": 93, "channel": 0}, {"type": "note_off", "time": 99, "note": 59, "velocity": 93, "channel": 0}, {"type": "note_on", "time": 73, "note": 71, "velocity": 105, "channel": 0}, {"type": "note_off", "time": 39, "note": 71, "velocity": 105, "channel": 0}, {"type": "note_on", "time": 0, "note": 72, "velocity": 111, "channel": 0}, {"type": "note_off", "time": 22, "note": 72, "velocity": 111, "channel": 0}, {"type": "note_on", "time": 11, "note": 73, "velocity": 111, "channel": 0}, {"type": "note_off", "time": 31, "note": 73, "velocity": 111, "channel": 0}, {"type": "note_on", "time": 1, "note": 74, "velocity": 108, "channel": 0}, {"type": "note_off", "time": 358, "note": 74, "velocity": 108, "channel": 0}, {"type": "note_on", "time": 24, "note": 74, "velocity": 107, "channel": 0}, {"type": "note_off", "time": 108, "note": 74, "velocity": 107, "channel": 0}, {"type": "note_on", "time": 72, "note": 74, "velocity": 107, "channel": 0}, {"type": "note_off", "time": 168, "note": 74, "velocity": 107, "channel": 0}, {"type": "note_on", "time": 397, "note": 70, "velocity": 114, "channel": 0}, {"type": "note_off", "time": 13, "note": 70, "velocity": 114, "channel": 0}, {"type": "note_on", "time": 3, "note": 72, "velocity": 114, "channel": 0}, {"type": "note_off", "time": 98, "note": 72, "velocity": 114, "channel": 0}, {"type": "note_on", "time": 13, "note": 69, "velocity": 100, "channel": 0}, {"type": "note_off", "time": 166, "note": 69, "velocity": 100, "channel": 0}, {"type": "note_on", "time": 90, "note": 62, "velocity": 90, "channel": 0}, {"type": "note_off", "time": 82, "note": 62, "velocity": 90, "channel": 0}, {"type": "note_on", "time": 58, "note": 66, "velocity": 102, "channel": 0}, {"type": "note_off", "time": 74, "note": 66, "velocity": 102, "channel": 0}, {"type": "note_on", "time": 7, "note": 69, "velocity": 111, "channel": 0}, {"type": "note_off", "time": 91, "note": 69, "velocity": 111, "channel": 0}, {"type": "note_on", "time": 23, "note": 66, "velocity": 97, "channel": 0}, {"type": "note_off", "time": 45, "note": 66, "velocity": 97, "channel": 0}, {"type": "note_on", "time": 14, "note": 69, "velocity": 108, "channel": 0}, {"type": "note_off", "time": 115, "note": 69, "velocity": 108, "channel": 0}, {"type": "note_on", "time": 17, "note": 66, "velocity": 98, "channel": 0}, {"type": "note_off", "time": 61, "note": 66, "velocity": 98, "channel": 0}, {"type": "note_on", "time": 2, "note": 67, "velocity": 106, "channel": 0}, {"type": "note_off", "time": 120, "note": 67, "velocity": 106, "channel": 0}, {"type": "note_on", "time": 34, "note": 62, "velocity": 95, "channel": 0}, {"type": "note_off", "time": 91, "note": 62, "velocity": 95, "channel": 0}, {"type": "note_on", "time": 65, "note": 66, "velocity": 95, "channel": 0}, {"type": "note_off", "time": 206, "note": 66, "velocity": 95, "channel": 0}, {"type": "note_on", "time": 459, "note": 62, "velocity": 98, "channel": 0}, {"type": "note_off", "time": 97, "note": 62, "velocity": 98, "channel": 0}, {"type": "note_on", "time": 11, "note": 62, "velocity": 105, "channel": 0}, {"type": "note_off", "time": 84, "note": 62, "velocity": 105, "channel": 0}, {"type": "note_on", "time": 18, "note": 66, "velocity": 118, "channel": 0}, {"type": "note_off", "time": 82, "note": 66, "velocity": 118, "channel": 0}, {"type": "note_on", "time": 14, "note": 66, "velocity": 117, "channel": 0}, {"type": "note_off", "time": 49, "note": 66, "velocity": 117, "channel": 0}, {"type": "note_on", "time": 0, "note": 67, "velocity": 113, "channel": 0}, {"type": "note_off", "time": 24, "note": 67, "velocity": 113, "channel": 0}, {"type": "note_on", "time": 13, "note": 67, "velocity": 117, "channel": 0}, {"type": "note_off", "time": 98, "note": 67, "velocity": 117, "channel": 0}, {"type": "note_on", "time": 89, "note": 69, "velocity": 119, "channel": 0}, {"type": "note_off", "time": 128, "note": 69, "velocity": 119, "channel": 0}, {"type": "note_on", "time": 11, "note": 70, "velocity": 111, "channel": 0}, {"type": "note_off", "time": 114, "note": 70, "velocity": 111, "channel": 0}, {"type": "note_on", "time": 47, "note": 70, "velocity": 109, "channel": 0}, {"type": "note_off", "time": 115, "note": 70, "velocity": 109, "channel": 0}, {"type": "note_on", "time": 69, "note": 69, "velocity": 111, "channel": 0}, {"type": "note_off", "time": 131, "note": 69, "velocity": 111, "channel": 0}, {"type": "note_on", "time": 59, "note": 67, "velocity": 100, "channel": 0}, {"type": "note_off", "time": 275, "note": 67, "velocity": 100, "channel": 0}, {"type": "note_on", "time": 136, "note": 62, "velocity": 101, "channel": 0}, {"type": "note_off", "time": 40, "note": 62, "velocity": 101, "channel": 0}, {"type": "note_on", "time": 38, "note": 66, "velocity": 98, "channel": 0}, {"type": "note_off", "time": 107, "note": 66, "velocity": 98, "channel": 0}, {"type": "note_on", "time": 76, "note": 66, "velocity": 101, "channel": 0}, {"type": "note_off", "time": 123, "note": 66, "velocity": 101, "channel": 0}, {"type": "note_on", "time": 72, "note": 67, "velocity": 106, "channel": 0}, {"type": "note_off", "time": 114, "note": 67, "velocity": 106, "channel": 0}, {"type": "note_on", "time": 2, "note": 69, "velocity": 107, "channel": 0}, {"type": "note_off", "time": 93, "note": 69, "velocity": 107, "channel": 0}, {"type": "note_on", "time": 731, "note": 62, "velocity": 98, "channel": 0}, {"type": "note_off", "time": 63, "note": 62, "velocity": 98, "channel": 0}, {"type": "note_on", "time": 15, "note": 66, "velocity": 110, "channel": 0}, {"type": "note_off", "time": 90, "note": 66, "velocity": 110, "channel": 0}, {"type": "note_on", "time": 10, "note": 67, "velocity": 118, "channel": 0}, {"type": "note_off", "time": 98, "note": 67, "velocity": 118, "channel": 0}, {"type": "note_on", "time": 6, "note": 69, "velocity": 114, "channel": 0}, {"type": "note_off", "time": 91, "note": 69, "velocity": 114, "channel": 0}, {"type": "note_on", "time": 14, "note": 76, "velocity": 120, "channel": 0}, {"type": "note_off", "time": 47, "note": 76, "velocity": 120, "channel": 0}, {"type": "note_on", "time": 0, "note": 78, "velocity": 124, "channel": 0}, {"type": "note_off", "time": 196, "note": 78, "velocity": 124, "channel": 0}, {"type": "note_on", "time": 22, "note": 74, "velocity": 110, "channel": 0}, {"type": "note_off", "time": 156, "note": 74, "velocity": 110, "channel": 0}, {"type": "note_on", "time": 217, "note": 68, "velocity": 94, "channel": 0}, {"type": "note_off", "time": 23, "note": 68, "velocity": 94, "channel": 0}, {"type": "note_on", "time": 3, "note": 70, "velocity": 100, "channel": 0}, {"type": "note_off", "time": 19, "note": 70, "velocity": 100, "channel": 0}, {"type": "note_on", "time": 7, "note": 71, "velocity": 95, "channel": 0}, {"type": "note_off", "time": 94, "note": 71, "velocity": 95, "channel": 0}, {"type": "note_on", "time": 48, "note": 69, "velocity": 100, "channel": 0}, {"type": "note_off", "time": 23, "note": 69, "velocity": 100, "channel": 0}, {"type": "note_on", "time": 2, "note": 70, "velocity": 104, "channel": 0}, {"type": "note_off", "time": 13, "note": 70, "velocity": 104, "channel": 0}, {"type": "note_on", "time": 0, "note": 71, "velocity": 103, "channel": 0}, {"type": "note_off", "time": 126, "note": 71, "velocity": 103, "channel": 0}, {"type": "note_on", "time": 19, "note": 69, "velocity": 110, "channel": 0}, {"type": "note_off", "time": 115, "note": 69, "velocity": 110, "channel": 0}, {"type": "note_on", "time": 94, "note": 62, "velocity": 93, "channel": 0}, {"type": "note_off", "time": 82, "note": 62, "velocity": 93, "channel": 0}, {"type": "note_on", "time": 13, "note": 62, "velocity": 94, "channel": 0}, {"type": "note_off", "time": 76, "note": 62, "velocity": 94, "channel": 0}, {"type": "note_on", "time": 0, "note": 65, "velocity": 96, "channel": 0}, {"type": "note_off", "time": 32, "note": 65, "velocity": 96, "channel": 0}, {"type": "note_on", "time": 3, "note": 66, "velocity": 99, "channel": 0}, {"type": "note_off", "time": 73, "note": 66, "velocity": 99, "channel": 0}, {"type": "note_on", "time": 21, "note": 69, "velocity": 104, "channel": 0}, {"type": "note_off", "time": 38, "note": 69, "velocity": 104, "channel": 0}, {"type": "note_on", "time": 2, "note": 70, "velocity": 103, "channel": 0}, {"type": "note_off", "time": 23, "note": 70, "velocity": 103, "channel": 0}, {"type": "note_on", "time": 5, "note": 71, "velocity": 107, "channel": 0}, {"type": "note_off", "time": 147, "note": 71, "velocity": 107, "channel": 0}, {"type": "note_on", "time": 40, "note": 69, "velocity": 114, "channel": 0}, {"type": "note_off", "time": 150, "note": 69, "velocity": 114, "channel": 0}, {"type": "note_on", "time": 258, "note": 64, "velocity": 102, "channel": 0}, {"type": "note_off", "time": 36, "note": 64, "velocity": 102, "channel": 0}, {"type": "note_on", "time": 11, "note": 66, "velocity": 105, "channel": 0}, {"type": "note_off", "time": 74, "note": 66, "velocity": 105, "channel": 0}, {"type": "note_on", "time": 66, "note": 65, "velocity": 100, "channel": 0}, {"type": "note_off", "time": 34, "note": 65, "velocity": 100, "channel": 0}, {"type": "note_on", "time": 0, "note": 66, "velocity": 103, "channel": 0}, {"type": "note_off", "time": 135, "note": 66, "velocity": 103, "channel": 0}, {"type": "note_on", "time": 22, "note": 62, "velocity": 94, "channel": 0}, {"type": "note_on", "time": 78, "note": 61, "velocity": 88, "channel": 0}, {"type": "note_off", "time": 0, "note": 62, "velocity": 94, "channel": 0}, {"type": "note_off", "time": 82, "note": 61, "velocity": 88, "channel": 0}, {"type": "note_on", "time": 774, "note": 77, "velocity": 116, "channel": 0}, {"type": "note_off", "time": 39, "note": 77, "velocity": 116, "channel": 0}, {"type": "note_on", "time": 7, "note": 78, "velocity": 121, "channel": 0}, {"type": "note_off", "time": 80, "note": 78, "velocity": 121, "channel": 0}, {"type": "note_on", "time": 16, "note": 77, "velocity": 118, "channel": 0}, {"type": "note_off", "time": 87, "note": 77, "velocity": 118, "channel": 0}, {"type": "note_on", "time": 1, "note": 78, "velocity": 116, "channel": 0}, {"type": "note_off", "time": 136, "note": 78, "velocity": 116, "channel": 0}, {"type": "note_on", "time": 16, "note": 76, "velocity": 107, "channel": 0}, {"type": "note_off", "time": 35, "note": 76, "velocity": 107, "channel": 0}, {"type": "note_on", "time": 5, "note": 74, "velocity": 105, "channel": 0}, {"type": "note_off", "time": 108, "note": 74, "velocity": 105, "channel": 0}, {"type": "note_on", "time": 11, "note": 70, "velocity": 110, "channel": 0}, {"type": "note_off", "time": 175, "note": 70, "velocity": 110, "channel": 0}, {"type": "note_on", "time": 29, "note": 69, "velocity": 107, "channel": 0}, {"type": "note_off", "time": 103, "note": 69, "velocity": 107, "channel": 0}, {"type": "note_on", "time": 34, "note": 65, "velocity": 103, "channel": 0}, {"type": "note_off", "time": 63, "note": 65, "velocity": 103, "channel": 0}, {"type": "note_on", "time": 0, "note": 66, "velocity": 98, "channel": 0}, {"type": "note_off", "time": 73, "note": 66, "velocity": 98, "channel": 0}, {"type": "note_on", "time": 6, "note": 65, "velocity": 94, "channel": 0}, {"type": "note_off", "time": 85, "note": 65, "velocity": 94, "channel": 0}, {"type": "note_on", "time": 14, "note": 63, "velocity": 99, "channel": 0}, {"type": "note_off", "time": 30, "note": 63, "velocity": 99, "channel": 0}, {"type": "note_on", "time": 2, "note": 64, "velocity": 94, "channel": 0}, {"type": "note_off", "time": 80, "note": 64, "velocity": 94, "channel": 0}, {"type": "note_on", "time": 31, "note": 62, "velocity": 86, "channel": 0}, {"type": "note_off", "time": 232, "note": 62, "velocity": 86, "channel": 0}, {"type": "note_on", "time": 367, "note": 71, "velocity": 119, "channel": 0}, {"type": "note_off", "time": 56, "note": 71, "velocity": 119, "channel": 0}, {"type": "note_on", "time": 0, "note": 72, "velocity": 117, "channel": 0}, {"type": "note_off", "time": 486, "note": 72, "velocity": 117, "channel": 0}, {"type": "note_on", "time": 26, "note": 69, "velocity": 96, "channel": 0}, {"type": "note_off", "time": 43, "note": 69, "velocity": 96, "channel": 0}, {"type": "note_on", "time": 15, "note": 74, "velocity": 108, "channel": 0}, {"type": "note_off", "time": 110, "note": 74, "velocity": 108, "channel": 0}, {"type": "note_on", "time": 5, "note": 69, "velocity": 108, "channel": 0}, {"type": "note_off", "time": 97, "note": 69, "velocity": 108, "channel": 0}, {"type": "note_on", "time": 459, "note": 68, "velocity": 107, "channel": 0}, {"type": "note_off", "time": 63, "note": 68, "velocity": 107, "channel": 0}, {"type": "note_on", "time": 36, "note": 72, "velocity": 115, "channel": 0}, {"type": "note_off", "time": 107, "note": 72, "velocity": 115, "channel": 0}, {"type": "note_on", "time": 64, "note": 71, "velocity": 112, "channel": 0}, {"type": "note_off", "time": 171, "note": 71, "velocity": 112, "channel": 0}, {"type": "note_on", "time": 21, "note": 69, "velocity": 101, "channel": 0}, {"type": "note_off", "time": 179, "note": 69, "velocity": 101, "channel": 0}, {"type": "note_on", "time": 6, "note": 66, "velocity": 101, "channel": 0}, {"type": "note_off", "time": 131, "note": 66, "velocity": 101, "channel": 0}, {"type": "note_on", "time": 10, "note": 62, "velocity": 91, "channel": 0}, {"type": "note_off", "time": 90, "note": 62, "velocity": 91, "channel": 0}, {"type": "note_on", "time": 160, "note": 66, "velocity": 90, "channel": 0}, {"type": "note_off", "time": 85, "note": 66, "velocity": 90, "channel": 0}, {"type": "note_on", "time": 28, "note": 69, "velocity": 94, "channel": 0}, {"type": "note_off", "time": 276, "note": 69, "velocity": 94, "channel": 0}, {"type": "note_on", "time": 862, "note": 65, "velocity": 108, "channel": 0}, {"type": "note_off", "time": 102, "note": 65, "velocity": 108, "channel": 0}, {"type": "note_on", "time": 18, "note": 66, "velocity": 90, "channel": 0}, {"type": "note_off", "time": 70, "note": 66, "velocity": 90, "channel": 0}, {"type": "note_on", "time": 162, "note": 65, "velocity": 106, "channel": 0}, {"type": "note_off", "time": 161, "note": 65, "velocity": 106, "channel": 0}, {"type": "note_on", "time": 12, "note": 66, "velocity": 101, "channel": 0}, {"type": "note_off", "time": 50, "note": 66, "velocity": 101, "channel": 0}, {"type": "note_on", "time": 25, "note": 65, "velocity": 112, "channel": 0}, {"type": "note_off", "time": 158, "note": 65, "velocity": 112, "channel": 0}, {"type": "note_on", "time": 0, "note": 66, "velocity": 94, "channel": 0}, {"type": "note_off", "time": 50, "note": 66, "velocity": 94, "channel": 0}, {"type": "note_on", "time": 5, "note": 65, "velocity": 102, "channel": 0}, {"type": "note_off", "time": 141, "note": 65, "velocity": 102, "channel": 0}, {"type": "note_on", "time": 29, "note": 66, "velocity": 78, "channel": 0}, {"type": "note_off", "time": 39, "note": 66, "velocity": 78, "channel": 0}, {"type": "note_on", "time": 46, "note": 65, "velocity": 99, "channel": 0}, {"type": "note_off", "time": 929, "note": 65, "velocity": 99, "channel": 0}, {"type": "note_on", "time": 18, "note": 67, "velocity": 106, "channel": 0}, {"type": "note_off", "time": 105, "note": 67, "velocity": 106, "channel": 0}, {"type": "note_on", "time": 7, "note": 69, "velocity": 99, "channel": 0}, {"type": "note_off", "time": 133, "note": 69, "velocity": 99, "channel": 0}, {"type": "note_on", "time": 4, "note": 62, "velocity": 89, "channel": 0}, {"type": "note_off", "time": 276, "note": 62, "velocity": 89, "channel": 0}, {"type": "note_on", "time": 69, "note": 65, "velocity": 87, "channel": 0}, {"type": "note_off", "time": 31, "note": 65, "velocity": 87, "channel": 0}, {"type": "note_on", "time": 15, "note": 66, "velocity": 107, "channel": 0}, {"type": "note_off", "time": 98, "note": 66, "velocity": 107, "channel": 0}, {"type": "note_on", "time": 632, "note": 66, "velocity": 123, "channel": 0}, {"type": "note_off", "time": 59, "note": 66, "velocity": 123, "channel": 0}, {"type": "note_on", "time": 3, "note": 67, "velocity": 118, "channel": 0}, {"type": "note_off", "time": 93, "note": 67, "velocity": 118, "channel": 0}, {"type": "note_on", "time": 27, "note": 65, "velocity": 107, "channel": 0}, {"type": "note_off", "time": 111, "note": 65, "velocity": 107, "channel": 0}, {"type": "note_on", "time": 7, "note": 66, "velocity": 114, "channel": 0}, {"type": "note_off", "time": 134, "note": 66, "velocity": 114, "channel": 0}, {"type": "note_on", "time": 7, "note": 67, "velocity": 110, "channel": 0}, {"type": "note_off", "time": 474, "note": 67, "velocity": 110, "channel": 0}, {"type": "note_on", "time": 18, "note": 68, "velocity": 113, "channel": 0}, {"type": "note_off", "time": 69, "note": 68, "velocity": 113, "channel": 0}, {"type": "note_on", "time": 11, "note": 69, "velocity": 111, "channel": 0}, {"type": "note_off", "time": 132, "note": 69, "velocity": 111, "channel": 0}, {"type": "note_on", "time": 20, "note": 62, "velocity": 87, "channel": 0}, {"type": "note_off", "time": 257, "note": 62, "velocity": 87, "channel": 0}, {"type": "note_on", "time": 76, "note": 65, "velocity": 106, "channel": 0}, {"type": "note_off", "time": 30, "note": 65, "velocity": 106, "channel": 0}, {"type": "note_on", "time": 3, "note": 66, "velocity": 106, "channel": 0}, {"type": "note_off", "time": 110, "note": 66, "velocity": 106, "channel": 0}, {"type": "note_on", "time": 518, "note": 62, "velocity": 100, "channel": 0}, {"type": "note_off", "time": 95, "note": 62, "velocity": 100, "channel": 0}, {"type": "note_on", "time": 7, "note": 62, "velocity": 103, "channel": 0}, {"type": "note_off", "time": 86, "note": 62, "velocity": 103, "channel": 0}, {"type": "note_on", "time": 6, "note": 65, "velocity": 106, "channel": 0}, {"type": "note_on", "time": 57, "note": 66, "velocity": 108, "channel": 0}, {"type": "note_off", "time": 0, "note": 65, "velocity": 106, "channel": 0}, {"type": "note_off", "time": 32, "note": 66, "velocity": 108, "channel": 0}, {"type": "note_on", "time": 9, "note": 67, "velocity": 113, "channel": 0}, {"type": "note_off", "time": 77, "note": 67, "velocity": 113, "channel": 0}, {"type": "note_on", "time": 7, "note": 69, "velocity": 119, "channel": 0}, {"type": "note_off", "time": 84, "note": 69, "velocity": 119, "channel": 0}, {"type": "note_on", "time": 18, "note": 69, "velocity": 111, "channel": 0}, {"type": "note_off", "time": 80, "note": 69, "velocity": 111, "channel": 0}, {"type": "note_on", "time": 3, "note": 70, "velocity": 115, "channel": 0}, {"type": "note_off", "time": 186, "note": 70, "velocity": 115, "channel": 0}, {"type": "note_on", "time": 11, "note": 69, "velocity": 114, "channel": 0}, {"type": "note_off", "time": 95, "note": 69, "velocity": 114, "channel": 0}, {"type": "note_on", "time": 24, "note": 67, "velocity": 97, "channel": 0}, {"type": "note_off", "time": 234, "note": 67, "velocity": 97, "channel": 0}, {"type": "note_on", "time": 328, "note": 75, "velocity": 116, "channel": 0}, {"type": "note_off", "time": 74, "note": 75, "velocity": 116, "channel": 0}, {"type": "note_on", "time": 0, "note": 76, "velocity": 122, "channel": 0}, {"type": "note_off", "time": 498, "note": 76, "velocity": 122, "channel": 0}, {"type": "note_on", "time": 9, "note": 78, "velocity": 120, "channel": 0}, {"type": "note_off", "time": 82, "note": 78, "velocity": 120, "channel": 0}, {"type": "note_on", "time": 9, "note": 76, "velocity": 103, "channel": 0}, {"type": "note_off", "time": 250, "note": 76, "velocity": 103, "channel": 0}, {"type": "note_on", "time": 19, "note": 74, "velocity": 84, "channel": 0}, {"type": "note_off", "time": 225, "note": 74, "velocity": 84, "channel": 0}, {"type": "note_on", "time": 1060, "note": 75, "velocity": 115, "channel": 0}, {"type": "note_off", "time": 91, "note": 75, "velocity": 115, "channel": 0}, {"type": "note_on", "time": 1, "note": 74, "velocity": 95, "channel": 0}, {"type": "note_off", "time": 48, "note": 74, "velocity": 95, "channel": 0}, {"type": "note_on", "time": 9, "note": 76, "velocity": 107, "channel": 0}, {"type": "note_off", "time": 78, "note": 76, "velocity": 107, "channel": 0}, {"type": "note_on", "time": 31, "note": 78, "velocity": 114, "channel": 0}, {"type": "note_off", "time": 65, "note": 78, "velocity": 114, "channel": 0}, {"type": "note_on", "time": 37, "note": 74, "velocity": 93, "channel": 0}, {"type": "note_off", "time": 56, "note": 74, "velocity": 93, "channel": 0}, {"type": "note_on", "time": 121, "note": 74, "velocity": 101, "channel": 0}, {"type": "note_off", "time": 44, "note": 74, "velocity": 101, "channel": 0}, {"type": "note_on", "time": 158, "note": 71, "velocity": 90, "channel": 0}, {"type": "note_off", "time": 60, "note": 71, "velocity": 90, "channel": 0}, {"type": "note_on", "time": 114, "note": 71, "velocity": 95, "channel": 0}, {"type": "note_off", "time": 57, "note": 71, "velocity": 95, "channel": 0}, {"type": "note_on", "time": 131, "note": 69, "velocity": 97, "channel": 0}, {"type": "note_off", "time": 139, "note": 69, "velocity": 97, "channel": 0}, {"type": "note_on", "time": 280, "note": 66, "velocity": 89, "channel": 0}, {"type": "note_off", "time": 52, "note": 66, "velocity": 89, "channel": 0}, {"type": "note_on", "time": 114, "note": 66, "velocity": 96, "channel": 0}, {"type": "note_off", "time": 56, "note": 66, "velocity": 96, "channel": 0}, {"type": "note_on", "time": 139, "note": 62, "velocity": 90, "channel": 0}, {"type": "note_off", "time": 74, "note": 62, "velocity": 90, "channel": 0}, {"type": "note_on", "time": 85, "note": 62, "velocity": 94, "channel": 0}, {"type": "note_off", "time": 90, "note": 62, "velocity": 94, "channel": 0}, {"type": "note_on", "time": 118, "note": 71, "velocity": 94, "channel": 0}, {"type": "note_off", "time": 81, "note": 71, "velocity": 94, "channel": 0}, {"type": "note_on", "time": 99, "note": 71, "velocity": 103, "channel": 0}, {"type": "note_off", "time": 66, "note": 71, "velocity": 103, "channel": 0}, {"type": "note_on", "time": 144, "note": 69, "velocity": 100, "channel": 0}, {"type": "note_off", "time": 90, "note": 69, "velocity": 100, "channel": 0}, {"type": "note_on", "time": 99, "note": 77, "velocity": 121, "channel": 0}, {"type": "note_off", "time": 31, "note": 77, "velocity": 121, "channel": 0}, {"type": "note_on", "time": 0, "note": 78, "velocity": 119, "channel": 0}, {"type": "note_off", "time": 81, "note": 78, "velocity": 119, "channel": 0}, {"type": "note_on", "time": 69, "note": 77, "velocity": 117, "channel": 0}, {"type": "note_off", "time": 127, "note": 77, "velocity": 117, "channel": 0}, {"type": "note_on", "time": 53, "note": 75, "velocity": 117, "channel": 0}, {"type": "note_off", "time": 84, "note": 75, "velocity": 117, "channel": 0}, {"type": "note_on", "time": 141, "note": 74, "velocity": 104, "channel": 0}, {"type": "note_off", "time": 233, "note": 74, "velocity": 104, "channel": 0}, {"type": "note_on", "time": 66, "note": 69, "velocity": 91, "channel": 0}, {"type": "note_off", "time": 153, "note": 69, "velocity": 91, "channel": 0}, {"type": "note_on", "time": 832, "note": 76, "velocity": 127, "channel": 0}, {"type": "note_off", "time": 59, "note": 76, "velocity": 127, "channel": 0}, {"type": "note_on", "time": 4, "note": 77, "velocity": 126, "channel": 0}, {"type": "note_off", "time": 98, "note": 77, "velocity": 126, "channel": 0}, {"type": "note_on", "time": 11, "note": 74, "velocity": 87, "channel": 0}, {"type": "note_off", "time": 210, "note": 74, "velocity": 87, "channel": 0}, {"type": "note_on", "time": 26, "note": 77, "velocity": 119, "channel": 0}, {"type": "note_off", "time": 32, "note": 77, "velocity": 119, "channel": 0}, {"type": "note_on", "time": 3, "note": 78, "velocity": 116, "channel": 0}, {"type": "note_off", "time": 94, "note": 78, "velocity": 116, "channel": 0}, {"type": "note_on", "time": 0, "note": 76, "velocity": 105, "channel": 0}, {"type": "note_off", "time": 19, "note": 76, "velocity": 105, "channel": 0}, {"type": "note_on", "time": 5, "note": 74, "velocity": 85, "channel": 0}, {"type": "note_off", "time": 168, "note": 74, "velocity": 85, "channel": 0}, {"type": "note_on", "time": 6, "note": 77, "velocity": 85, "channel": 0}, {"type": "note_off", "time": 27, "note": 77, "velocity": 85, "channel": 0}, {"type": "note_on", "time": 26, "note": 79, "velocity": 113, "channel": 0}, {"type": "note_off", "time": 84, "note": 79, "velocity": 113, "channel": 0}, {"type": "note_on", "time": 98, "note": 78, "velocity": 112, "channel": 0}, {"type": "note_off", "time": 105, "note": 78, "velocity": 112, "channel": 0}, {"type": "note_on", "time": 0, "note": 76, "velocity": 93, "channel": 0}, {"type": "note_off", "time": 21, "note": 76, "velocity": 93, "channel": 0}, {"type": "note_on", "time": 1, "note": 74, "velocity": 99, "channel": 0}, {"type": "note_off", "time": 51, "note": 74, "velocity": 99, "channel": 0}, {"type": "note_on", "time": 521, "note": 70, "velocity": 122, "channel": 0}, {"type": "note_off", "time": 48, "note": 70, "velocity": 122, "channel": 0}, {"type": "note_on", "time": 2, "note": 71, "velocity": 119, "channel": 0}, {"type": "note_off", "time": 189, "note": 71, "velocity": 119, "channel": 0}, {"type": "note_on", "time": 3, "note": 76, "velocity": 119, "channel": 0}, {"type": "note_off", "time": 91, "note": 76, "velocity": 119, "channel": 0}, {"type": "note_on", "time": 68, "note": 74, "velocity": 96, "channel": 0}, {"type": "note_off", "time": 207, "note": 74, "velocity": 96, "channel": 0}, {"type": "note_on", "time": 39, "note": 71, "velocity": 103, "channel": 0}, {"type": "note_off", "time": 90, "note": 71, "velocity": 103, "channel": 0}, {"type": "note_on", "time": 36, "note": 69, "velocity": 102, "channel": 0}, {"type": "note_off", "time": 82, "note": 69, "velocity": 102, "channel": 0}, {"type": "note_on", "time": 77, "note": 67, "velocity": 106, "channel": 0}, {"type": "note_off", "time": 95, "note": 67, "velocity": 106, "channel": 0}, {"type": "note_on", "time": 30, "note": 62, "velocity": 85, "channel": 0}, {"type": "note_off", "time": 39, "note": 62, "velocity": 85, "channel": 0}, {"type": "note_on", "time": 118, "note": 75, "velocity": 113, "channel": 0}, {"type": "note_off", "time": 76, "note": 75, "velocity": 113, "channel": 0}, {"type": "note_on", "time": 3, "note": 76, "velocity": 120, "channel": 0}, {"type": "note_off", "time": 98, "note": 76, "velocity": 120, "channel": 0}, {"type": "note_on", "time": 0, "note": 78, "velocity": 118, "channel": 0}, {"type": "note_off", "time": 111, "note": 78, "velocity": 118, "channel": 0}, {"type": "note_on", "time": 7, "note": 75, "velocity": 114, "channel": 0}, {"type": "note_off", "time": 59, "note": 75, "velocity": 114, "channel": 0}, {"type": "note_on", "time": 5, "note": 74, "velocity": 106, "channel": 0}, {"type": "note_off", "time": 55, "note": 74, "velocity": 106, "channel": 0}, {"type": "note_on", "time": 23, "note": 72, "velocity": 99, "channel": 0}, {"type": "note_off", "time": 89, "note": 72, "velocity": 99, "channel": 0}, {"type": "note_on", "time": 0, "note": 71, "velocity": 104, "channel": 0}, {"type": "note_off", "time": 55, "note": 71, "velocity": 104, "channel": 0}, {"type": "note_on", "time": 31, "note": 70, "velocity": 92, "channel": 0}, {"type": "note_off", "time": 42, "note": 70, "velocity": 92, "channel": 0}, {"type": "note_on", "time": 15, "note": 67, "velocity": 102, "channel": 0}, {"type": "note_off", "time": 76, "note": 67, "velocity": 102, "channel": 0}, {"type": "note_on", "time": 5, "note": 69, "velocity": 102, "channel": 0}, {"type": "note_off", "time": 105, "note": 69, "velocity": 102, "channel": 0}, {"type": "note_on", "time": 29, "note": 77, "velocity": 107, "channel": 0}, {"type": "note_off", "time": 19, "note": 77, "velocity": 107, "channel": 0}, {"type": "note_on", "time": 2, "note": 78, "velocity": 109, "channel": 0}, {"type": "note_off", "time": 15, "note": 78, "velocity": 109, "channel": 0}, {"type": "note_on", "time": 0, "note": 79, "velocity": 111, "channel": 0}, {"type": "note_off", "time": 105, "note": 79, "velocity": 111, "channel": 0}, {"type": "note_on", "time": 397, "note": 61, "velocity": 114, "channel": 0}, {"type": "note_off", "time": 31, "note": 61, "velocity": 114, "channel": 0}, {"type": "note_on", "time": 0, "note": 62, "velocity": 114, "channel": 0}, {"type": "note_off", "time": 22, "note": 62, "velocity": 114, "channel": 0}, {"type": "note_on", "time": 1, "note": 63, "velocity": 109, "channel": 0}, {"type": "note_off", "time": 18, "note": 63, "velocity": 109, "channel": 0}, {"type": "note_on", "time": 1, "note": 64, "velocity": 110, "channel": 0}, {"type": "note_off", "time": 283, "note": 64, "velocity": 110, "channel": 0}, {"type": "note_on", "time": 9, "note": 69, "velocity": 119, "channel": 0}, {"type": "note_off", "time": 74, "note": 69, "velocity": 119, "channel": 0}, {"type": "note_on", "time": 5, "note": 67, "velocity": 110, "channel": 0}, {"type": "note_off", "time": 89, "note": 67, "velocity": 110, "channel": 0}, {"type": "note_on", "time": 29, "note": 62, "velocity": 83, "channel": 0}, {"type": "note_off", "time": 181, "note": 62, "velocity": 83, "channel": 0}, {"type": "note_on", "time": 638, "note": 62, "velocity": 91, "channel": 0}, {"type": "note_off", "time": 74, "note": 62, "velocity": 91, "channel": 0}, {"type": "note_on", "time": 31, "note": 67, "velocity": 112, "channel": 0}, {"type": "note_off", "time": 85, "note": 67, "velocity": 112, "channel": 0}, {"type": "note_on", "time": 11, "note": 69, "velocity": 109, "channel": 0}, {"type": "note_off", "time": 56, "note": 69, "velocity": 109, "channel": 0}, {"type": "note_on", "time": 0, "note": 71, "velocity": 114, "channel": 0}, {"type": "note_off", "time": 95, "note": 71, "velocity": 114, "channel": 0}, {"type": "note_on", "time": 5, "note": 74, "velocity": 119, "channel": 0}, {"type": "note_off", "time": 97, "note": 74, "velocity": 119, "channel": 0}, {"type": "note_on", "time": 52, "note": 74, "velocity": 109, "channel": 0}, {"type": "note_off", "time": 252, "note": 74, "velocity": 109, "channel": 0}, {"type": "note_on", "time": 13, "note": 71, "velocity": 108, "channel": 0}, {"type": "note_off", "time": 102, "note": 71, "velocity": 108, "channel": 0}, {"type": "note_on", "time": 20, "note": 67, "velocity": 102, "channel": 0}, {"type": "note_off", "time": 69, "note": 67, "velocity": 102, "channel": 0}, {"type": "note_on", "time": 5, "note": 69, "velocity": 108, "channel": 0}, {"type": "note_off", "time": 89, "note": 69, "velocity": 108, "channel": 0}, {"type": "note_on", "time": 28, "note": 69, "velocity": 104, "channel": 0}, {"type": "note_off", "time": 95, "note": 69, "velocity": 104, "channel": 0}, {"type": "note_on", "time": 69, "note": 69, "velocity": 96, "channel": 0}, {"type": "note_off", "time": 224, "note": 69, "velocity": 96, "channel": 0}, {"type": "note_on", "time": 50, "note": 62, "velocity": 91, "channel": 0}, {"type": "note_off", "time": 74, "note": 62, "velocity": 91, "channel": 0}, {"type": "note_on", "time": 41, "note": 66, "velocity": 101, "channel": 0}, {"type": "note_off", "time": 59, "note": 66, "velocity": 101, "channel": 0}, {"type": "note_on", "time": 16, "note": 67, "velocity": 102, "channel": 0}, {"type": "note_off", "time": 80, "note": 67, "velocity": 102, "channel": 0}, {"type": "note_on", "time": 35, "note": 69, "velocity": 93, "channel": 0}, {"type": "note_off", "time": 132, "note": 69, "velocity": 93, "channel": 0}, {"type": "note_on", "time": 37, "note": 69, "velocity": 94, "channel": 0}, {"type": "note_off", "time": 250, "note": 69, "velocity": 94, "channel": 0}, {"type": "note_on", "time": 29, "note": 67, "velocity": 105, "channel": 0}, {"type": "note_off", "time": 97, "note": 67, "velocity": 105, "channel": 0}, {"type": "note_on", "time": 108, "note": 66, "velocity": 102, "channel": 0}, {"type": "note_off", "time": 115, "note": 66, "velocity": 102, "channel": 0}, {"type": "note_on", "time": 56, "note": 62, "velocity": 77, "channel": 0}, {"type": "note_off", "time": 69, "note": 62, "velocity": 77, "channel": 0}, {"type": "note_on", "time": 26, "note": 64, "velocity": 98, "channel": 0}, {"type": "note_off", "time": 93, "note": 64, "velocity": 98, "channel": 0}, {"type": "note_on", "time": 478, "note": 75, "velocity": 119, "channel": 0}, {"type": "note_off", "time": 26, "note": 75, "velocity": 119, "channel": 0}, {"type": "note_on", "time": 1, "note": 76, "velocity": 120, "channel": 0}, {"type": "note_off", "time": 422, "note": 76, "velocity": 120, "channel": 0}, {"type": "note_on", "time": 7, "note": 74, "velocity": 98, "channel": 0}, {"type": "note_off", "time": 101, "note": 74, "velocity": 98, "channel": 0}, {"type": "note_on", "time": 0, "note": 72, "velocity": 91, "channel": 0}, {"type": "note_off", "time": 65, "note": 72, "velocity": 91, "channel": 0}, {"type": "note_on", "time": 3, "note": 74, "velocity": 104, "channel": 0}, {"type": "note_off", "time": 100, "note": 74, "velocity": 104, "channel": 0}, {"type": "note_on", "time": 18, "note": 77, "velocity": 110, "channel": 0}, {"type": "note_off", "time": 104, "note": 77, "velocity": 110, "channel": 0}, {"type": "note_on", "time": 869, "note": 71, "velocity": 102, "channel": 0}, {"type": "note_off", "time": 67, "note": 71, "velocity": 102, "channel": 0}, {"type": "note_on", "time": 7, "note": 74, "velocity": 103, "channel": 0}, {"type": "note_off", "time": 72, "note": 74, "velocity": 103, "channel": 0}, {"type": "note_on", "time": 11, "note": 77, "velocity": 110, "channel": 0}, {"type": "note_off", "time": 84, "note": 77, "velocity": 110, "channel": 0}, {"type": "note_on", "time": 9, "note": 78, "velocity": 118, "channel": 0}, {"type": "note_off", "time": 102, "note": 78, "velocity": 118, "channel": 0}, {"type": "note_on", "time": 29, "note": 75, "velocity": 119, "channel": 0}, {"type": "note_off", "time": 85, "note": 75, "velocity": 119, "channel": 0}, {"type": "note_on", "time": 14, "note": 76, "velocity": 113, "channel": 0}, {"type": "note_off", "time": 115, "note": 76, "velocity": 113, "channel": 0}, {"type": "note_on", "time": 28, "note": 74, "velocity": 111, "channel": 0}, {"type": "note_off", "time": 121, "note": 74, "velocity": 111, "channel": 0}, {"type": "note_on", "time": 16, "note": 71, "velocity": 111, "channel": 0}, {"type": "note_off", "time": 56, "note": 71, "velocity": 111, "channel": 0}, {"type": "note_on", "time": 1, "note": 72, "velocity": 107, "channel": 0}, {"type": "note_off", "time": 166, "note": 72, "velocity": 107, "channel": 0}, {"type": "note_on", "time": 0, "note": 70, "velocity": 105, "channel": 0}, {"type": "note_off", "time": 104, "note": 70, "velocity": 105, "channel": 0}, {"type": "note_on", "time": 41, "note": 69, "velocity": 100, "channel": 0}, {"type": "note_off", "time": 209, "note": 69, "velocity": 100, "channel": 0}, {"type": "note_on", "time": 14, "note": 67, "velocity": 103, "channel": 0}, {"type": "note_off", "time": 100, "note": 67, "velocity": 103, "channel": 0}, {"type": "note_on", "time": 44, "note": 66, "velocity": 96, "channel": 0}, {"type": "note_on", "time": 188, "note": 67, "velocity": 101, "channel": 0}, {"type": "note_off", "time": 0, "note": 66, "velocity": 96, "channel": 0}, {"type": "note_off", "time": 70, "note": 67, "velocity": 101, "channel": 0}, {"type": "note_on", "time": 1, "note": 69, "velocity": 100, "channel": 0}, {"type": "note_off", "time": 112, "note": 69, "velocity": 100, "channel": 0}, {"type": "note_on", "time": 31, "note": 69, "velocity": 113, "channel": 0}, {"type": "note_off", "time": 52, "note": 69, "velocity": 113, "channel": 0}, {"type": "note_on", "time": 7, "note": 70, "velocity": 108, "channel": 0}, {"type": "note_off", "time": 154, "note": 70, "velocity": 108, "channel": 0}, {"type": "note_on", "time": 0, "note": 69, "velocity": 107, "channel": 0}, {"type": "note_off", "time": 125, "note": 69, "velocity": 107, "channel": 0}, {"type": "note_on", "time": 13, "note": 67, "velocity": 98, "channel": 0}, {"type": "note_off", "time": 237, "note": 67, "velocity": 98, "channel": 0}, {"type": "note_on", "time": 708, "note": 68, "velocity": 100, "channel": 0}, {"type": "note_off", "time": 22, "note": 68, "velocity": 100, "channel": 0}, {"type": "note_on", "time": 5, "note": 70, "velocity": 114, "channel": 0}, {"type": "note_off", "time": 30, "note": 70, "velocity": 114, "channel": 0}, {"type": "note_on", "time": 5, "note": 71, "velocity": 116, "channel": 0}, {"type": "note_off", "time": 145, "note": 71, "velocity": 116, "channel": 0}, {"type": "note_on", "time": 2, "note": 74, "velocity": 107, "channel": 0}, {"type": "note_off", "time": 250, "note": 74, "velocity": 107, "channel": 0}, {"type": "note_on", "time": 500, "note": 68, "velocity": 109, "channel": 0}, {"type": "note_off", "time": 38, "note": 68, "velocity": 109, "channel": 0}, {"type": "note_on", "time": 2, "note": 69, "velocity": 111, "channel": 0}, {"type": "note_off", "time": 39, "note": 69, "velocity": 111, "channel": 0}, {"type": "note_on", "time": 0, "note": 71, "velocity": 115, "channel": 0}, {"type": "note_off", "time": 99, "note": 71, "velocity": 115, "channel": 0}, {"type": "note_on", "time": 14, "note": 71, "velocity": 110, "channel": 0}, {"type": "note_off", "time": 90, "note": 71, "velocity": 110, "channel": 0}, {"type": "note_on", "time": 14, "note": 74, "velocity": 113, "channel": 0}, {"type": "note_off", "time": 127, "note": 74, "velocity": 113, "channel": 0}, {"type": "note_on", "time": 3, "note": 70, "velocity": 95, "channel": 0}, {"type": "note_off", "time": 72, "note": 70, "velocity": 95, "channel": 0}, {"type": "note_on", "time": 7, "note": 71, "velocity": 104, "channel": 0}, {"type": "note_off", "time": 102, "note": 71, "velocity": 104, "channel": 0}, {"type": "note_on", "time": 6, "note": 71, "velocity": 102, "channel": 0}, {"type": "note_off", "time": 69, "note": 71, "velocity": 102, "channel": 0}, {"type": "note_on", "time": 3, "note": 74, "velocity": 111, "channel": 0}, {"type": "note_off", "time": 107, "note": 74, "velocity": 111, "channel": 0}, {"type": "note_on", "time": 7, "note": 70, "velocity": 94, "channel": 0}, {"type": "note_off", "time": 57, "note": 70, "velocity": 94, "channel": 0}, {"type": "note_on", "time": 17, "note": 70, "velocity": 91, "channel": 0}, {"type": "note_off", "time": 85, "note": 70, "velocity": 91, "channel": 0}, {"type": "note_on", "time": 95, "note": 78, "velocity": 119, "channel": 0}, {"type": "note_off", "time": 115, "note": 78, "velocity": 119, "channel": 0}, {"type": "note_on", "time": 11, "note": 74, "velocity": 106, "channel": 0}, {"type": "note_off", "time": 95, "note": 74, "velocity": 106, "channel": 0}, {"type": "note_on", "time": 114, "note": 62, "velocity": 88, "channel": 0}, {"type": "note_off", "time": 303, "note": 62, "velocity": 88, "channel": 0}, {"type": "note_on", "time": 66, "note": 62, "velocity": 90, "channel": 0}, {"type": "note_off", "time": 66, "note": 62, "velocity": 90, "channel": 0}, {"type": "note_on", "time": 22, "note": 66, "velocity": 109, "channel": 0}, {"type": "note_off", "time": 103, "note": 66, "velocity": 109, "channel": 0}, {"type": "note_on", "time": 91, "note": 62, "velocity": 84, "channel": 0}, {"type": "note_off", "time": 154, "note": 62, "velocity": 84, "channel": 0}, {"type": "note_on", "time": 43, "note": 62, "velocity": 88, "channel": 0}, {"type": "note_off", "time": 166, "note": 62, "velocity": 88, "channel": 0}, {"type": "note_on", "time": 35, "note": 62, "velocity": 89, "channel": 0}, {"type": "note_off", "time": 98, "note": 62, "velocity": 89, "channel": 0}, {"type": "note_on", "time": 53, "note": 69, "velocity": 112, "channel": 0}, {"type": "note_off", "time": 87, "note": 69, "velocity": 112, "channel": 0}, {"type": "note_on", "time": 57, "note": 67, "velocity": 98, "channel": 0}, {"type": "note_off", "time": 118, "note": 67, "velocity": 98, "channel": 0}, {"type": "note_on", "time": 888, "note": 73, "velocity": 115, "channel": 0}, {"type": "note_on", "time": 31, "note": 75, "velocity": 125, "channel": 0}, {"type": "note_off", "time": 0, "note": 73, "velocity": 115, "channel": 0}, {"type": "note_off", "time": 29, "note": 75, "velocity": 125, "channel": 0}, {"type": "note_on", "time": 23, "note": 77, "velocity": 9, "channel": 0}, {"type": "note_off", "time": 46, "note": 77, "velocity": 9, "channel": 0}, {"type": "note_on", "time": 1, "note": 78, "velocity": 9, "channel": 0}, {"type": "note_off", "time": 647, "note": 78, "velocity": 9, "channel": 0}, {"type": "note_on", "time": 7, "note": 76, "velocity": 108, "channel": 0}, {"type": "note_off", "time": 37, "note": 76, "velocity": 108, "channel": 0}, {"type": "note_on", "time": 20, "note": 74, "velocity": 103, "channel": 0}, {"type": "note_off", "time": 65, "note": 74, "velocity": 103, "channel": 0}, {"type": "note_on", "time": 13, "note": 71, "velocity": 97, "channel": 0}, {"type": "note_off", "time": 48, "note": 71, "velocity": 97, "channel": 0}, {"type": "note_on", "time": 5, "note": 74, "velocity": 100, "channel": 0}, {"type": "note_off", "time": 233, "note": 74, "velocity": 100, "channel": 0}, {"type": "note_on", "time": 626, "note": 70, "velocity": 99, "channel": 0}, {"type": "note_off", "time": 55, "note": 70, "velocity": 99, "channel": 0}, {"type": "note_on", "time": 28, "note": 74, "velocity": 107, "channel": 0}, {"type": "note_off", "time": 74, "note": 74, "velocity": 107, "channel": 0}, {"type": "note_on", "time": 6, "note": 77, "velocity": 111, "channel": 0}, {"type": "note_off", "time": 140, "note": 77, "velocity": 111, "channel": 0}, {"type": "note_on", "time": 19, "note": 77, "velocity": 118, "channel": 0}, {"type": "note_off", "time": 80, "note": 77, "velocity": 118, "channel": 0}, {"type": "note_on", "time": 5, "note": 78, "velocity": 118, "channel": 0}, {"type": "note_off", "time": 71, "note": 78, "velocity": 118, "channel": 0}, {"type": "note_on", "time": 2, "note": 79, "velocity": 123, "channel": 0}, {"type": "note_off", "time": 467, "note": 79, "velocity": 123, "channel": 0}, {"type": "note_on", "time": 18, "note": 80, "velocity": 116, "channel": 0}, {"type": "note_off", "time": 123, "note": 80, "velocity": 116, "channel": 0}, {"type": "note_on", "time": 927, "note": 71, "velocity": 110, "channel": 0}, {"type": "note_off", "time": 98, "note": 71, "velocity": 110, "channel": 0}, {"type": "note_on", "time": 31, "note": 74, "velocity": 104, "channel": 0}, {"type": "note_off", "time": 63, "note": 74, "velocity": 104, "channel": 0}, {"type": "note_on", "time": 1, "note": 77, "velocity": 114, "channel": 0}, {"type": "note_off", "time": 97, "note": 77, "velocity": 114, "channel": 0}, {"type": "note_on", "time": 26, "note": 77, "velocity": 121, "channel": 0}, {"type": "note_off", "time": 134, "note": 77, "velocity": 121, "channel": 0}, {"type": "note_on", "time": 11, "note": 76, "velocity": 112, "channel": 0}, {"type": "note_off", "time": 31, "note": 76, "velocity": 112, "channel": 0}, {"type": "note_on", "time": 3, "note": 74, "velocity": 101, "channel": 0}, {"type": "note_off", "time": 76, "note": 74, "velocity": 101, "channel": 0}, {"type": "note_on", "time": 11, "note": 76, "velocity": 121, "channel": 0}, {"type": "note_off", "time": 113, "note": 76, "velocity": 121, "channel": 0}, {"type": "note_on", "time": 3, "note": 74, "velocity": 109, "channel": 0}, {"type": "note_off", "time": 67, "note": 74, "velocity": 109, "channel": 0}, {"type": "note_on", "time": 5, "note": 71, "velocity": 100, "channel": 0}, {"type": "note_off", "time": 80, "note": 71, "velocity": 100, "channel": 0}, {"type": "note_on", "time": 29, "note": 67, "velocity": 105, "channel": 0}, {"type": "note_off", "time": 72, "note": 67, "velocity": 105, "channel": 0}, {"type": "note_on", "time": 0, "note": 70, "velocity": 106, "channel": 0}, {"type": "note_off", "time": 98, "note": 70, "velocity": 106, "channel": 0}, {"type": "note_on", "time": 57, "note": 74, "velocity": 99, "channel": 0}, {"type": "note_off", "time": 91, "note": 74, "velocity": 99, "channel": 0}, {"type": "note_on", "time": 628, "note": 76, "velocity": 124, "channel": 0}, {"type": "note_off", "time": 182, "note": 76, "velocity": 124, "channel": 0}, {"type": "note_on", "time": 42, "note": 71, "velocity": 99, "channel": 0}, {"type": "note_off", "time": 35, "note": 71, "velocity": 99, "channel": 0}, {"type": "note_on", "time": 19, "note": 76, "velocity": 119, "channel": 0}, {"type": "note_off", "time": 112, "note": 76, "velocity": 119, "channel": 0}, {"type": "note_on", "time": 1, "note": 74, "velocity": 100, "channel": 0}, {"type": "note_off", "time": 49, "note": 74, "velocity": 100, "channel": 0}, {"type": "note_on", "time": 0, "note": 71, "velocity": 101, "channel": 0}, {"type": "note_off", "time": 65, "note": 71, "velocity": 101, "channel": 0}, {"type": "note_on", "time": 6, "note": 67, "velocity": 111, "channel": 0}, {"type": "note_off", "time": 64, "note": 67, "velocity": 111, "channel": 0}, {"type": "note_on", "time": 21, "note": 64, "velocity": 98, "channel": 0}, {"type": "note_off", "time": 53, "note": 64, "velocity": 98, "channel": 0}, {"type": "note_on", "time": 9, "note": 71, "velocity": 109, "channel": 0}, {"type": "note_off", "time": 157, "note": 71, "velocity": 109, "channel": 0}, {"type": "note_on", "time": 49, "note": 74, "velocity": 107, "channel": 0}, {"type": "note_off", "time": 168, "note": 74, "velocity": 107, "channel": 0}, {"type": "note_on", "time": 23, "note": 71, "velocity": 106, "channel": 0}, {"type": "note_off", "time": 87, "note": 71, "velocity": 106, "channel": 0}, {"type": "note_on", "time": 6, "note": 69, "velocity": 108, "channel": 0}, {"type": "note_off", "time": 76, "note": 69, "velocity": 108, "channel": 0}, {"type": "note_on", "time": 14, "note": 67, "velocity": 110, "channel": 0}, {"type": "note_off", "time": 90, "note": 67, "velocity": 110, "channel": 0}, {"type": "note_on", "time": 58, "note": 61, "velocity": 87, "channel": 0}, {"type": "note_off", "time": 36, "note": 61, "velocity": 87, "channel": 0}, {"type": "note_on", "time": 12, "note": 69, "velocity": 104, "channel": 0}, {"type": "note_off", "time": 102, "note": 69, "velocity": 104, "channel": 0}, {"type": "note_on", "time": 6, "note": 66, "velocity": 105, "channel": 0}, {"type": "note_off", "time": 70, "note": 66, "velocity": 105, "channel": 0}, {"type": "note_on", "time": 14, "note": 62, "velocity": 94, "channel": 0}, {"type": "note_off", "time": 133, "note": 62, "velocity": 94, "channel": 0}, {"type": "note_on", "time": 52, "note": 64, "velocity": 103, "channel": 0}, {"type": "note_off", "time": 93, "note": 64, "velocity": 103, "channel": 0}, {"type": "note_on", "time": 3, "note": 65, "velocity": 99, "channel": 0}, {"type": "note_off", "time": 36, "note": 65, "velocity": 99, "channel": 0}, {"type": "note_on", "time": 22, "note": 62, "velocity": 95, "channel": 0}, {"type": "note_off", "time": 128, "note": 62, "velocity": 95, "channel": 0}, {"type": "note_on", "time": 26, "note": 59, "velocity": 93, "channel": 0}, {"type": "note_off", "time": 44, "note": 59, "velocity": 93, "channel": 0}, {"type": "note_on", "time": 14, "note": 62, "velocity": 88, "channel": 0}, {"type": "note_off", "time": 164, "note": 62, "velocity": 88, "channel": 0}, {"type": "note_on", "time": 941, "note": 70, "velocity": 118, "channel": 0}, {"type": "note_off", "time": 70, "note": 70, "velocity": 118, "channel": 0}, {"type": "note_on", "time": 13, "note": 71, "velocity": 92, "channel": 0}, {"type": "note_off", "time": 1690, "note": 71, "velocity": 92, "channel": 0}, {"type": "note_on", "time": 26, "note": 70, "velocity": 95, "channel": 0}, {"type": "note_off", "time": 67, "note": 70, "velocity": 95, "channel": 0}, {"type": "note_on", "time": 5, "note": 69, "velocity": 106, "channel": 0}, {"type": "note_off", "time": 33, "note": 69, "velocity": 106, "channel": 0}, {"type": "note_on", "time": 5, "note": 68, "velocity": 102, "channel": 0}, {"type": "note_off", "time": 48, "note": 68, "velocity": 102, "channel": 0}, {"type": "note_on", "time": 5, "note": 71, "velocity": 87, "channel": 0}, {"type": "note_off", "time": 395, "note": 71, "velocity": 87, "channel": 0}, {"type": "note_on", "time": 210, "note": 57, "velocity": 94, "channel": 0}, {"type": "note_off", "time": 89, "note": 57, "velocity": 94, "channel": 0}, {"type": "note_on", "time": 39, "note": 57, "velocity": 90, "channel": 0}, {"type": "note_off", "time": 177, "note": 57, "velocity": 90, "channel": 0}, {"type": "note_on", "time": 53, "note": 60, "velocity": 93, "channel": 0}, {"type": "note_off", "time": 112, "note": 60, "velocity": 93, "channel": 0}, {"type": "note_on", "time": 24, "note": 57, "velocity": 92, "channel": 0}, {"type": "note_off", "time": 64, "note": 57, "velocity": 92, "channel": 0}, {"type": "note_on", "time": 10, "note": 62, "velocity": 99, "channel": 0}, {"type": "note_off", "time": 91, "note": 62, "velocity": 99, "channel": 0}, {"type": "note_on", "time": 19, "note": 66, "velocity": 108, "channel": 0}, {"type": "note_off", "time": 127, "note": 66, "velocity": 108, "channel": 0}, {"type": "note_on", "time": 78, "note": 62, "velocity": 91, "channel": 0}, {"type": "note_off", "time": 47, "note": 62, "velocity": 91, "channel": 0}, {"type": "note_on", "time": 15, "note": 67, "velocity": 112, "channel": 0}, {"type": "note_off", "time": 108, "note": 67, "velocity": 112, "channel": 0}, {"type": "note_on", "time": 68, "note": 67, "velocity": 107, "channel": 0}, {"type": "note_off", "time": 127, "note": 67, "velocity": 107, "channel": 0}, {"type": "note_on", "time": 57, "note": 69, "velocity": 109, "channel": 0}, {"type": "note_off", "time": 144, "note": 69, "velocity": 109, "channel": 0}, {"type": "note_on", "time": 63, "note": 74, "velocity": 109, "channel": 0}, {"type": "note_off", "time": 118, "note": 74, "velocity": 109, "channel": 0}, {"type": "note_on", "time": 16, "note": 70, "velocity": 110, "channel": 0}, {"type": "note_off", "time": 82, "note": 70, "velocity": 110, "channel": 0}, {"type": "note_on", "time": 5, "note": 71, "velocity": 99, "channel": 0}, {"type": "note_off", "time": 212, "note": 71, "velocity": 99, "channel": 0}, {"type": "note_on", "time": 50, "note": 69, "velocity": 87, "channel": 0}, {"type": "note_off", "time": 189, "note": 69, "velocity": 87, "channel": 0}, {"type": "end_of_track", "time": 0}]]}