{"ticks_per_beat": 192, "tracks": [[{"type": "track_name", "name": "Melody", "time": 0}, {"type": "set_tempo", "tempo": 196078, "time": 0}, {"type": "key_signature", "key": "F", "time": 0}, {"type": "time_signature", "numerator": 4, "denominator": 4, "clocks_per_click": 24, "notated_32nd_notes_per_beat": 8, "time": 0}, {"type": "note_on", "time": 4128, "note": 70, "velocity": 114, "channel": 0}, {"type": "note_off", "time": 107, "note": 70, "velocity": 114, "channel": 0}, {"type": "note_on", "time": 11, "note": 69, "velocity": 123, "channel": 0}, {"type": "note_off", "time": 111, "note": 69, "velocity": 123, "channel": 0}, {"type": "note_on", "time": 11, "note": 68, "velocity": 118, "channel": 0}, {"type": "note_off", "time": 99, "note": 68, "velocity": 118, "channel": 0}, {"type": "note_on", "time": 7, "note": 65, "velocity": 95, "channel": 0}, {"type": "note_off", "time": 49, "note": 65, "velocity": 95, "channel": 0}, {"type": "note_on", "time": 9, "note": 67, "velocity": 118, "channel": 0}, {"type": "note_off", "time": 99, "note": 67, "velocity": 118, "channel": 0}, {"type": "note_on", "time": 11, "note": 64, "velocity": 111, "channel": 0}, {"type": "note_off", "time": 91, "note": 64, "velocity": 111, "channel": 0}, {"type": "note_on", "time": 7, "note": 63, "velocity": 106, "channel": 0}, {"type": "note_off", "time": 71, "note": 63, "velocity": 106, "channel": 0}, {"type": "note_on", "time": 27, "note": 62, "velocity": 113, "channel": 0}, {"type": "note_off", "time": 79, "note": 62, "velocity": 113, "channel": 0}, {"type": "note_on", "time": 7, "note": 59, "velocity": 107, "channel": 0}, {"type": "note_off", "time": 91, "note": 59, "velocity": 107, "channel": 0}, {"type": "note_on", "time": 11, "note": 60, "velocity": 113, "channel": 0}, {"type": "note_off", "time": 83, "note": 60, "velocity": 113, "channel": 0}, {"type": "note_on", "time": 7, "note": 61, "velocity": 110, "channel": 0}, {"type": "note_off", "time": 91, "note": 61, "velocity": 110, "channel": 0}, {"type": "note_on", "time": 11, "note": 64, "velocity": 116, "channel": 0}, {"type": "note_off", "time": 107, "note": 64, "velocity": 116, "channel": 0}, {"type": "note_on", "time": 3, "note": 61, "velocity": 113, "channel": 0}, {"type": "note_off", "time": 83, "note": 61, "velocity": 113, "channel": 0}, {"type": "note_on", "time": 19, "note": 60, "velocity": 116, "channel": 0}, {"type": "note_off", "time": 131, "note": 60, "velocity": 116, "channel": 0}, {"type": "note_on", "time": 15, "note": 59, "velocity": 106, "channel": 0}, {"type": "note_off", "time": 87, "note": 59, "velocity": 106, "channel": 0}, {"type": "note_on", "time": 87, "note": 58, "velocity": 114, "channel": 0}, {"type": "note_off", "time": 111, "note": 58, "velocity": 114, "channel": 0}, {"type": "note_on", "time": 59, "note": 57, "velocity": 105, "channel": 0}, {"type": "note_off", "time": 99, "note": 57, "velocity": 105, "channel": 0}, {"type": "note_on", "time": 79, "note": 56, "velocity": 96, "channel": 0}, {"type": "note_off", "time": 179, "note": 56, "velocity": 96, "channel": 0}, {"type": "note_on", "time": 119, "note": 58, "velocity": 109, "channel": 0}, {"type": "note_off", "time": 103, "note": 58, "velocity": 109, "channel": 0}, {"type": "note_on", "time": 69, "note": 60, "velocity": 112, "channel": 0}, {"type": "note_off", "time": 115, "note": 60, "velocity": 112, "channel": 0}, {"type": "note_on", "time": 183, "note": 61, "velocity": 111, "channel": 0}, {"type": "note_off", "time": 161, "note": 61, "velocity": 111, "channel": 0}, {"type": "note_on", "time": 203, "note": 58, "velocity": 114, "channel": 0}, {"type": "note_off", "time": 116, "note": 58, "velocity": 114, "channel": 0}, {"type": "note_on", "time": 14, "note": 57, "velocity": 115, "channel": 0}, {"type": "note_off", "time": 110, "note": 57, "velocity": 115, "channel": 0}, {"type": "note_on", "time": 14, "note": 56, "velocity": 110, "channel": 0}, {"type": "note_off", "time": 71, "note": 56, "velocity": 110, "channel": 0}, {"type": "note_on", "time": 35, "note": 52, "velocity": 110, "channel": 0}, {"type": "note_off", "time": 51, "note": 52, "velocity": 110, "channel": 0}, {"type": "note_on", "time": 27, "note": 55, "velocity": 109, "channel": 0}, {"type": "note_off", "time": 161, "note": 55, "velocity": 109, "channel": 0}, {"type": "note_on", "time": 15, "note": 56, "velocity": 105, "channel": 0}, {"type": "note_off", "time": 133, "note": 56, "velocity": 105, "channel": 0}, {"type": "note_on", "time": 67, "note": 58, "velocity": 116, "channel": 0}, {"type": "note_off", "time": 191, "note": 58, "velocity": 116, "channel": 0}, {"type": "note_on", "time": 13, "note": 51, "velocity": 102, "channel": 0}, {"type": "note_off", "time": 93, "note": 51, "velocity": 102, "channel": 0}, {"type": "note_on", "time": 12, "note": 60, "velocity": 115, "channel": 0}, {"type": "note_off", "time": 107, "note": 60, "velocity": 115, "channel": 0}, {"type": "note_on", "time": 79, "note": 61, "velocity": 104, "channel": 0}, {"type": "note_off", "time": 103, "note": 61, "velocity": 104, "channel": 0}, {"type": "note_on", "time": 79, "note": 63, "velocity": 115, "channel": 0}, {"type": "note_off", "time": 131, "note": 63, "velocity": 115, "channel": 0}, {"type": "note_on", "time": 23, "note": 62, "velocity": 102, "channel": 0}, {"type": "note_off", "time": 71, "note": 62, "velocity": 102, "channel": 0}, {"type": "note_on", "time": 167, "note": 56, "velocity": 113, "channel": 0}, {"type": "note_off", "time": 97, "note": 56, "velocity": 113, "channel": 0}, {"type": "note_on", "time": 17, "note": 55, "velocity": 104, "channel": 0}, {"type": "note_off", "time": 151, "note": 55, "velocity": 104, "channel": 0}, {"type": "note_on", "time": 27, "note": 56, "velocity": 99, "channel": 0}, {"type": "note_off", "time": 103, "note": 56, "velocity": 99, "channel": 0}, {"type": "note_on", "time": 71, "note": 65, "velocity": 115, "channel": 0}, {"type": "note_off", "time": 191, "note": 65, "velocity": 115, "channel": 0}, {"type": "note_on", "time": 19, "note": 67, "velocity": 118, "channel": 0}, {"type": "note_off", "time": 115, "note": 67, "velocity": 118, "channel": 0}, {"type": "note_on", "time": 87, "note": 68, "velocity": 118, "channel": 0}, {"type": "note_off", "time": 127, "note": 68, "velocity": 118, "channel": 0}, {"type": "note_on", "time": 179, "note": 67, "velocity": 118, "channel": 0}, {"type": "note_off", "time": 101, "note": 67, "velocity": 118, "channel": 0}, {"type": "note_on", "time": 99, "note": 66, "velocity": 120, "channel": 0}, {"type": "note_off", "time": 95, "note": 66, "velocity": 120, "channel": 0}, {"type": "note_on", "time": 9, "note": 65, "velocity": 113, "channel": 0}, {"type": "note_off", "time": 95, "note": 65, "velocity": 113, "channel": 0}, {"type": "note_on", "time": 27, "note": 62, "velocity": 93, "channel": 0}, {"type": "note_off", "time": 71, "note": 62, "velocity": 93, "channel": 0}, {"type": "note_on", "time": 3, "note": 64, "velocity": 115, "channel": 0}, {"type": "note_off", "time": 143, "note": 64, "velocity": 115, "channel": 0}, {"type": "note_on", "time": 33, "note": 65, "velocity": 114, "channel": 0}, {"type": "note_off", "time": 175, "note": 65, "velocity": 114, "channel": 0}, {"type": "note_on", "time": 225, "note": 67, "velocity": 119, "channel": 0}, {"type": "note_off", "time": 139, "note": 67, "velocity": 119, "channel": 0}, {"type": "note_on", "time": 551, "note": 65, "velocity": 116, "channel": 0}, {"type": "note_off", "time": 111, "note": 65, "velocity": 116, "channel": 0}, {"type": "note_on", "time": 5, "note": 64, "velocity": 111, "channel": 0}, {"type": "note_off", "time": 73, "note": 64, "velocity": 111, "channel": 0}, {"type": "note_on", "time": 107, "note": 63, "velocity": 117, "channel": 0}, {"type": "note_off", "time": 299, "note": 63, "velocity": 117, "channel": 0}, {"type": "note_on", "time": 23, "note": 60, "velocity": 100, "channel": 0}, {"type": "note_off", "time": 97, "note": 60, "velocity": 100, "channel": 0}, {"type": "note_on", "time": 83, "note": 65, "velocity": 112, "channel": 0}, {"type": "note_off", "time": 257, "note": 65, "velocity": 112, "channel": 0}, {"type": "note_on", "time": 31, "note": 68, "velocity": 115, "channel": 0}, {"type": "note_off", "time": 139, "note": 68, "velocity": 115, "channel": 0}, {"type": "note_on", "time": 79, "note": 63, "velocity": 107, "channel": 0}, {"type": "note_off", "time": 123, "note": 63, "velocity": 107, "channel": 0}, {"type": "note_on", "time": 71, "note": 62, "velocity": 112, "channel": 0}, {"type": "note_off", "time": 243, "note": 62, "velocity": 112, "channel": 0}, {"type": "note_on", "time": 51, "note": 63, "velocity": 117, "channel": 0}, {"type": "note_off", "time": 99, "note": 63, "velocity": 117, "channel": 0}, {"type": "note_on", "time": 77, "note": 65, "velocity": 113, "channel": 0}, {"type": "note_off", "time": 101, "note": 65, "velocity": 113, "channel": 0}, {"type": "note_on", "time": 89, "note": 58, "velocity": 91, "channel": 0}, {"type": "note_off", "time": 105, "note": 58, "velocity": 91, "channel": 0}, {"type": "note_on", "time": 13, "note": 67, "velocity": 115, "channel": 0}, {"type": "note_off", "time": 187, "note": 67, "velocity": 115, "channel": 0}, {"type": "note_on", "time": 11, "note": 68, "velocity": 112, "channel": 0}, {"type": "note_off", "time": 171, "note": 68, "velocity": 112, "channel": 0}, {"type": "note_on", "time": 11, "note": 70, "velocity": 114, "channel": 0}, {"type": "note_off", "time": 187, "note": 70, "velocity": 114, "channel": 0}, {"type": "note_on", "time": 11, "note": 63, "velocity": 98, "channel": 0}, {"type": "note_off", "time": 191, "note": 63, "velocity": 98, "channel": 0}, {"type": "note_on", "time": 665, "note": 63, "velocity": 116, "channel": 0}, {"type": "note_off", "time": 95, "note": 63, "velocity": 116, "channel": 0}, {"type": "note_on", "time": 93, "note": 60, "velocity": 110, "channel": 0}, {"type": "note_off", "time": 103, "note": 60, "velocity": 110, "channel": 0}, {"type": "note_on", "time": 3, "note": 57, "velocity": 101, "channel": 0}, {"type": "note_off", "time": 95, "note": 57, "velocity": 101, "channel": 0}, {"type": "note_on", "time": 15, "note": 55, "velocity": 98, "channel": 0}, {"type": "note_off", "time": 79, "note": 55, "velocity": 98, "channel": 0}, {"type": "note_on", "time": 19, "note": 54, "velocity": 94, "channel": 0}, {"type": "note_off", "time": 51, "note": 54, "velocity": 94, "channel": 0}, {"type": "note_on", "time": 25, "note": 63, "velocity": 116, "channel": 0}, {"type": "note_off", "time": 117, "note": 63, "velocity": 116, "channel": 0}, {"type": "note_on", "time": 11, "note": 60, "velocity": 99, "channel": 0}, {"type": "note_off", "time": 59, "note": 60, "velocity": 99, "channel": 0}, {"type": "note_on", "time": 13, "note": 61, "velocity": 89, "channel": 0}, {"type": "note_off", "time": 75, "note": 61, "velocity": 89, "channel": 0}, {"type": "note_on", "time": 29, "note": 62, "velocity": 102, "channel": 0}, {"type": "note_off", "time": 83, "note": 62, "velocity": 102, "channel": 0}, {"type": "note_on", "time": 19, "note": 61, "velocity": 113, "channel": 0}, {"type": "note_off", "time": 95, "note": 61, "velocity": 113, "channel": 0}, {"type": "note_on", "time": 3, "note": 60, "velocity": 108, "channel": 0}, {"type": "note_off", "time": 99, "note": 60, "velocity": 108, "channel": 0}, {"type": "note_on", "time": 19, "note": 55, "velocity": 94, "channel": 0}, {"type": "note_off", "time": 41, "note": 55, "velocity": 94, "channel": 0}, {"type": "note_on", "time": 29, "note": 59, "velocity": 93, "channel": 0}, {"type": "note_off", "time": 75, "note": 59, "velocity": 93, "channel": 0}, {"type": "note_on", "time": 0, "note": 64, "velocity": 118, "channel": 0}, {"type": "note_off", "time": 135, "note": 64, "velocity": 118, "channel": 0}, {"type": "note_on", "time": 19, "note": 63, "velocity": 110, "channel": 0}, {"type": "note_off", "time": 123, "note": 63, "velocity": 110, "channel": 0}, {"type": "note_on", "time": 39, "note": 62, "velocity": 109, "channel": 0}, {"type": "note_off", "time": 97, "note": 62, "velocity": 109, "channel": 0}, {"type": "note_on", "time": 11, "note": 59, "velocity": 102, "channel": 0}, {"type": "note_off", "time": 53, "note": 59, "velocity": 102, "channel": 0}, {"type": "note_on", "time": 27, "note": 55, "velocity": 99, "channel": 0}, {"type": "note_off", "time": 103, "note": 55, "velocity": 99, "channel": 0}, {"type": "note_on", "time": 15, "note": 54, "velocity": 106, "channel": 0}, {"type": "note_off", "time": 99, "note": 54, "velocity": 106, "channel": 0}, {"type": "note_on", "time": 15, "note": 53, "velocity": 109, "channel": 0}, {"type": "note_off", "time": 103, "note": 53, "velocity": 109, "channel": 0}, {"type": "note_on", "time": 63, "note": 52, "velocity": 99, "channel": 0}, {"type": "note_off", "time": 279, "note": 52, "velocity": 99, "channel": 0}, {"type": "note_on", "time": 15, "note": 54, "velocity": 107, "channel": 0}, {"type": "note_off", "time": 259, "note": 54, "velocity": 107, "channel": 0}, {"type": "note_on", "time": 15, "note": 55, "velocity": 109, "channel": 0}, {"type": "note_off", "time": 227, "note": 55, "velocity": 109, "channel": 0}, {"type": "note_on", "time": 41, "note": 57, "velocity": 110, "channel": 0}, {"type": "note_off", "time": 79, "note": 57, "velocity": 110, "channel": 0}, {"type": "note_on", "time": 33, "note": 59, "velocity": 101, "channel": 0}, {"type": "note_off", "time": 171, "note": 59, "velocity": 101, "channel": 0}, {"type": "note_on", "time": 25, "note": 60, "velocity": 104, "channel": 0}, {"type": "note_off", "time": 163, "note": 60, "velocity": 104, "channel": 0}, {"type": "note_on", "time": 13, "note": 62, "velocity": 118, "channel": 0}, {"type": "note_off", "time": 159, "note": 62, "velocity": 118, "channel": 0}, {"type": "note_on", "time": 23, "note": 64, "velocity": 117, "channel": 0}, {"type": "note_off", "time": 115, "note": 64, "velocity": 117, "channel": 0}, {"type": "note_on", "time": 79, "note": 65, "velocity": 117, "channel": 0}, {"type": "note_off", "time": 63, "note": 65, "velocity": 117, "channel": 0}, {"type": "note_on", "time": 27, "note": 66, "velocity": 112, "channel": 0}, {"type": "note_off", "time": 169, "note": 66, "velocity": 112, "channel": 0}, {"type": "note_on", "time": 85, "note": 62, "velocity": 101, "channel": 0}, {"type": "note_off", "time": 227, "note": 62, "velocity": 101, "channel": 0}, {"type": "note_on", "time": 47, "note": 59, "velocity": 96, "channel": 0}, {"type": "note_off", "time": 81, "note": 59, "velocity": 96, "channel": 0}, {"type": "note_on", "time": 19, "note": 58, "velocity": 91, "channel": 0}, {"type": "note_off", "time": 127, "note": 58, "velocity": 91, "channel": 0}, {"type": "note_on", "time": 17, "note": 59, "velocity": 92, "channel": 0}, {"type": "note_off", "time": 49, "note": 59, "velocity": 92, "channel": 0}, {"type": "note_on", "time": 247, "note": 62, "velocity": 116, "channel": 0}, {"type": "note_off", "time": 123, "note": 62, "velocity": 116, "channel": 0}, {"type": "note_on", "time": 87, "note": 66, "velocity": 116, "channel": 0}, {"type": "note_off", "time": 137, "note": 66, "velocity": 116, "channel": 0}, {"type": "note_on", "time": 59, "note": 67, "velocity": 119, "channel": 0}, {"type": "note_off", "time": 79, "note": 67, "velocity": 119, "channel": 0}, {"type": "note_on", "time": 35, "note": 68, "velocity": 115, "channel": 0}, {"type": "note_off", "time": 187, "note": 68, "velocity": 115, "channel": 0}, {"type": "note_on", "time": 31, "note": 64, "velocity": 115, "channel": 0}, {"type": "note_off", "time": 247, "note": 64, "velocity": 115, "channel": 0}, {"type": "note_on", "time": 39, "note": 61, "velocity": 97, "channel": 0}, {"type": "note_off", "time": 121, "note": 61, "velocity": 97, "channel": 0}, {"type": "note_on", "time": 29, "note": 60, "velocity": 92, "channel": 0}, {"type": "note_off", "time": 81, "note": 60, "velocity": 92, "channel": 0}, {"type": "note_on", "time": 13, "note": 61, "velocity": 80, "channel": 0}, {"type": "note_off", "time": 79, "note": 61, "velocity": 80, "channel": 0}, {"type": "note_on", "time": 203, "note": 64, "velocity": 117, "channel": 0}, {"type": "note_off", "time": 123, "note": 64, "velocity": 117, "channel": 0}, {"type": "note_on", "time": 63, "note": 67, "velocity": 118, "channel": 0}, {"type": "note_off", "time": 131, "note": 67, "velocity": 118, "channel": 0}, {"type": "note_on", "time": 103, "note": 70, "velocity": 105, "channel": 0}, {"type": "note_off", "time": 93, "note": 70, "velocity": 105, "channel": 0}, {"type": "note_on", "time": 2, "note": 71, "velocity": 100, "channel": 0}, {"type": "note_off", "time": 147, "note": 71, "velocity": 100, "channel": 0}, {"type": "note_on", "time": 89, "note": 63, "velocity": 92, "channel": 0}, {"type": "note_off", "time": 139, "note": 63, "velocity": 92, "channel": 0}, {"type": "note_on", "time": 14, "note": 62, "velocity": 86, "channel": 0}, {"type": "note_off", "time": 48, "note": 62, "velocity": 86, "channel": 0}, {"type": "note_on", "time": 606, "note": 66, "velocity": 116, "channel": 0}, {"type": "note_off", "time": 131, "note": 66, "velocity": 116, "channel": 0}, {"type": "note_on", "time": 3, "note": 63, "velocity": 103, "channel": 0}, {"type": "note_off", "time": 39, "note": 63, "velocity": 103, "channel": 0}, {"type": "note_on", "time": 19, "note": 64, "velocity": 101, "channel": 0}, {"type": "note_off", "time": 79, "note": 64, "velocity": 101, "channel": 0}, {"type": "note_on", "time": 11, "note": 66, "velocity": 117, "channel": 0}, {"type": "note_off", "time": 79, "note": 66, "velocity": 117, "channel": 0}, {"type": "note_on", "time": 15, "note": 67, "velocity": 119, "channel": 0}, {"type": "note_off", "time": 73, "note": 67, "velocity": 119, "channel": 0}, {"type": "note_on", "time": 37, "note": 67, "velocity": 117, "channel": 0}, {"type": "note_off", "time": 95, "note": 67, "velocity": 117, "channel": 0}, {"type": "note_on", "time": 15, "note": 66, "velocity": 110, "channel": 0}, {"type": "note_off", "time": 87, "note": 66, "velocity": 110, "channel": 0}, {"type": "note_on", "time": 25, "note": 63, "velocity": 91, "channel": 0}, {"type": "note_off", "time": 57, "note": 63, "velocity": 91, "channel": 0}, {"type": "note_on", "time": 33, "note": 65, "velocity": 115, "channel": 0}, {"type": "note_off", "time": 129, "note": 65, "velocity": 115, "channel": 0}, {"type": "note_on", "time": 7, "note": 67, "velocity": 119, "channel": 0}, {"type": "note_off", "time": 109, "note": 67, "velocity": 119, "channel": 0}, {"type": "note_on", "time": 21, "note": 66, "velocity": 103, "channel": 0}, {"type": "note_off", "time": 53, "note": 66, "velocity": 103, "channel": 0}, {"type": "note_on", "time": 9, "note": 68, "velocity": 110, "channel": 0}, {"type": "note_off", "time": 159, "note": 68, "velocity": 110, "channel": 0}, {"type": "note_on", "time": 23, "note": 70, "velocity": 111, "channel": 0}, {"type": "note_off", "time": 151, "note": 70, "velocity": 111, "channel": 0}, {"type": "note_on", "time": 63, "note": 65, "velocity": 106, "channel": 0}, {"type": "note_off", "time": 117, "note": 65, "velocity": 106, "channel": 0}, {"type": "note_on", "time": 11, "note": 64, "velocity": 94, "channel": 0}, {"type": "note_off", "time": 43, "note": 64, "velocity": 94, "channel": 0}, {"type": "note_on", "time": 101, "note": 61, "velocity": 107, "channel": 0}, {"type": "note_off", "time": 99, "note": 61, "velocity": 107, "channel": 0}, {"type": "note_on", "time": 87, "note": 58, "velocity": 114, "channel": 0}, {"type": "note_off", "time": 75, "note": 58, "velocity": 114, "channel": 0}, {"type": "note_on", "time": 35, "note": 56, "velocity": 108, "channel": 0}, {"type": "note_off", "time": 115, "note": 56, "velocity": 108, "channel": 0}, {"type": "note_on", "time": 7, "note": 51, "velocity": 110, "channel": 0}, {"type": "note_off", "time": 91, "note": 51, "velocity": 110, "channel": 0}, {"type": "note_on", "time": 13, "note": 55, "velocity": 106, "channel": 0}, {"type": "note_off", "time": 133, "note": 55, "velocity": 106, "channel": 0}, {"type": "note_on", "time": 27, "note": 56, "velocity": 114, "channel": 0}, {"type": "note_off", "time": 155, "note": 56, "velocity": 114, "channel": 0}, {"type": "note_on", "time": 19, "note": 58, "velocity": 102, "channel": 0}, {"type": "note_off", "time": 179, "note": 58, "velocity": 102, "channel": 0}, {"type": "note_on", "time": 27, "note": 59, "velocity": 111, "channel": 0}, {"type": "note_off", "time": 179, "note": 59, "velocity": 111, "channel": 0}, {"type": "note_on", "time": 9, "note": 60, "velocity": 109, "channel": 0}, {"type": "note_off", "time": 153, "note": 60, "velocity": 109, "channel": 0}, {"type": "note_on", "time": 27, "note": 61, "velocity": 109, "channel": 0}, {"type": "note_off", "time": 153, "note": 61, "velocity": 109, "channel": 0}, {"type": "note_on", "time": 45, "note": 62, "velocity": 116, "channel": 0}, {"type": "note_off", "time": 161, "note": 62, "velocity": 116, "channel": 0}, {"type": "note_on", "time": 25, "note": 63, "velocity": 117, "channel": 0}, {"type": "note_off", "time": 207, "note": 63, "velocity": 117, "channel": 0}, {"type": "note_on", "time": 15, "note": 60, "velocity": 103, "channel": 0}, {"type": "note_off", "time": 171, "note": 60, "velocity": 103, "channel": 0}, {"type": "note_on", "time": 15, "note": 56, "velocity": 102, "channel": 0}, {"type": "note_off", "time": 73, "note": 56, "velocity": 102, "channel": 0}, {"type": "note_on", "time": 93, "note": 54, "velocity": 92, "channel": 0}, {"type": "note_off", "time": 155, "note": 54, "velocity": 92, "channel": 0}, {"type": "note_on", "time": 11, "note": 53, "velocity": 94, "channel": 0}, {"type": "note_off", "time": 69, "note": 53, "velocity": 94, "channel": 0}, {"type": "note_on", "time": 95, "note": 59, "velocity": 99, "channel": 0}, {"type": "note_off", "time": 71, "note": 59, "velocity": 99, "channel": 0}, {"type": "note_on", "time": 103, "note": 64, "velocity": 118, "channel": 0}, {"type": "note_off", "time": 113, "note": 64, "velocity": 118, "channel": 0}, {"type": "note_on", "time": 23, "note": 59, "velocity": 91, "channel": 0}, {"type": "note_off", "time": 125, "note": 59, "velocity": 91, "channel": 0}, {"type": "note_on", "time": 143, "note": 58, "velocity": 99, "channel": 0}, {"type": "note_off", "time": 101, "note": 58, "velocity": 99, "channel": 0}, {"type": "note_on", "time": 83, "note": 63, "velocity": 102, "channel": 0}, {"type": "note_off", "time": 79, "note": 63, "velocity": 102, "channel": 0}, {"type": "note_on", "time": 15, "note": 67, "velocity": 114, "channel": 0}, {"type": "note_off", "time": 143, "note": 67, "velocity": 114, "channel": 0}, {"type": "note_on", "time": 3, "note": 70, "velocity": 118, "channel": 0}, {"type": "note_off", "time": 175, "note": 70, "velocity": 118, "channel": 0}, {"type": "note_on", "time": 11, "note": 71, "velocity": 109, "channel": 0}, {"type": "note_off", "time": 191, "note": 71, "velocity": 109, "channel": 0}, {"type": "note_on", "time": 11, "note": 68, "velocity": 112, "channel": 0}, {"type": "note_off", "time": 175, "note": 68, "velocity": 112, "channel": 0}, {"type": "note_on", "time": 3, "note": 65, "velocity": 95, "channel": 0}, {"type": "note_off", "time": 155, "note": 65, "velocity": 95, "channel": 0}, {"type": "note_on", "time": 65, "note": 62, "velocity": 98, "channel": 0}, {"type": "note_off", "time": 97, "note": 62, "velocity": 98, "channel": 0}, {"type": "note_on", "time": 13, "note": 61, "velocity": 93, "channel": 0}, {"type": "note_off", "time": 39, "note": 61, "velocity": 93, "channel": 0}, {"type": "note_on", "time": 337, "note": 61, "velocity": 109, "channel": 0}, {"type": "note_off", "time": 83, "note": 61, "velocity": 109, "channel": 0}, {"type": "note_on", "time": 95, "note": 65, "velocity": 104, "channel": 0}, {"type": "note_off", "time": 77, "note": 65, "velocity": 104, "channel": 0}, {"type": "note_on", "time": 83, "note": 68, "velocity": 115, "channel": 0}, {"type": "note_off", "time": 79, "note": 68, "velocity": 115, "channel": 0}, {"type": "note_on", "time": 23, "note": 71, "velocity": 109, "channel": 0}, {"type": "note_off", "time": 157, "note": 71, "velocity": 109, "channel": 0}, {"type": "note_on", "time": 7, "note": 74, "velocity": 113, "channel": 0}, {"type": "note_off", "time": 167, "note": 74, "velocity": 113, "channel": 0}, {"type": "note_on", "time": 51, "note": 76, "velocity": 120, "channel": 0}, {"type": "note_off", "time": 105, "note": 76, "velocity": 120, "channel": 0}, {"type": "note_on", "time": 9, "note": 77, "velocity": 94, "channel": 0}, {"type": "note_off", "time": 147, "note": 77, "velocity": 94, "channel": 0}, {"type": "note_on", "time": 139, "note": 72, "velocity": 112, "channel": 0}, {"type": "note_off", "time": 243, "note": 72, "velocity": 112, "channel": 0}, {"type": "note_on", "time": 49, "note": 70, "velocity": 103, "channel": 0}, {"type": "note_off", "time": 101, "note": 70, "velocity": 103, "channel": 0}, {"type": "note_on", "time": 51, "note": 68, "velocity": 112, "channel": 0}, {"type": "note_off", "time": 143, "note": 68, "velocity": 112, "channel": 0}, {"type": "note_on", "time": 537, "note": 73, "velocity": 106, "channel": 0}, {"type": "note_off", "time": 102, "note": 73, "velocity": 106, "channel": 0}, {"type": "note_on", "time": 7, "note": 70, "velocity": 117, "channel": 0}, {"type": "note_off", "time": 91, "note": 70, "velocity": 117, "channel": 0}, {"type": "note_on", "time": 15, "note": 68, "velocity": 115, "channel": 0}, {"type": "note_off", "time": 95, "note": 68, "velocity": 115, "channel": 0}, {"type": "note_on", "time": 19, "note": 65, "velocity": 101, "channel": 0}, {"type": "note_off", "time": 47, "note": 65, "velocity": 101, "channel": 0}, {"type": "note_on", "time": 15, "note": 67, "velocity": 115, "channel": 0}, {"type": "note_off", "time": 111, "note": 67, "velocity": 115, "channel": 0}, {"type": "note_on", "time": 0, "note": 64, "velocity": 110, "channel": 0}, {"type": "note_off", "time": 79, "note": 64, "velocity": 110, "channel": 0}, {"type": "note_on", "time": 15, "note": 63, "velocity": 106, "channel": 0}, {"type": "note_off", "time": 71, "note": 63, "velocity": 106, "channel": 0}, {"type": "note_on", "time": 7, "note": 61, "velocity": 107, "channel": 0}, {"type": "note_off", "time": 103, "note": 61, "velocity": 107, "channel": 0}, {"type": "note_on", "time": 3, "note": 60, "velocity": 94, "channel": 0}, {"type": "note_off", "time": 87, "note": 60, "velocity": 94, "channel": 0}, {"type": "note_on", "time": 23, "note": 59, "velocity": 112, "channel": 0}, {"type": "note_off", "time": 71, "note": 59, "velocity": 112, "channel": 0}, {"type": "note_on", "time": 11, "note": 58, "velocity": 106, "channel": 0}, {"type": "note_off", "time": 71, "note": 58, "velocity": 106, "channel": 0}, {"type": "note_on", "time": 17, "note": 53, "velocity": 104, "channel": 0}, {"type": "note_off", "time": 57, "note": 53, "velocity": 104, "channel": 0}, {"type": "note_on", "time": 27, "note": 56, "velocity": 104, "channel": 0}, {"type": "note_off", "time": 67, "note": 56, "velocity": 104, "channel": 0}, {"type": "note_on", "time": 7, "note": 58, "velocity": 103, "channel": 0}, {"type": "note_off", "time": 95, "note": 58, "velocity": 103, "channel": 0}, {"type": "note_on", "time": 19, "note": 60, "velocity": 112, "channel": 0}, {"type": "note_off", "time": 143, "note": 60, "velocity": 112, "channel": 0}, {"type": "note_on", "time": 47, "note": 61, "velocity": 106, "channel": 0}, {"type": "note_off", "time": 227, "note": 61, "velocity": 106, "channel": 0}, {"type": "note_on", "time": 41, "note": 58, "velocity": 115, "channel": 0}, {"type": "note_off", "time": 101, "note": 58, "velocity": 115, "channel": 0}, {"type": "note_on", "time": 21, "note": 56, "velocity": 99, "channel": 0}, {"type": "note_off", "time": 81, "note": 56, "velocity": 99, "channel": 0}, {"type": "note_on", "time": 13, "note": 52, "velocity": 113, "channel": 0}, {"type": "note_off", "time": 69, "note": 52, "velocity": 113, "channel": 0}, {"type": "note_on", "time": 35, "note": 55, "velocity": 108, "channel": 0}, {"type": "note_off", "time": 167, "note": 55, "velocity": 108, "channel": 0}, {"type": "note_on", "time": 91, "note": 56, "velocity": 112, "channel": 0}, {"type": "note_off", "time": 107, "note": 56, "velocity": 112, "channel": 0}, {"type": "note_on", "time": 7, "note": 58, "velocity": 102, "channel": 0}, {"type": "note_off", "time": 71, "note": 58, "velocity": 102, "channel": 0}, {"type": "note_on", "time": 99, "note": 60, "velocity": 112, "channel": 0}, {"type": "note_off", "time": 187, "note": 60, "velocity": 112, "channel": 0}, {"type": "note_on", "time": 103, "note": 51, "velocity": 103, "channel": 0}, {"type": "note_off", "time": 97, "note": 51, "velocity": 103, "channel": 0}, {"type": "note_on", "time": 91, "note": 53, "velocity": 103, "channel": 0}, {"type": "note_off", "time": 67, "note": 53, "velocity": 103, "channel": 0}, {"type": "note_on", "time": 23, "note": 58, "velocity": 108, "channel": 0}, {"type": "note_off", "time": 57, "note": 58, "velocity": 108, "channel": 0}, {"type": "note_on", "time": 25, "note": 55, "velocity": 106, "channel": 0}, {"type": "note_off", "time": 53, "note": 55, "velocity": 106, "channel": 0}, {"type": "note_on", "time": 13, "note": 56, "velocity": 99, "channel": 0}, {"type": "note_off", "time": 79, "note": 56, "velocity": 99, "channel": 0}, {"type": "note_on", "time": 45, "note": 60, "velocity": 112, "channel": 0}, {"type": "note_off", "time": 115, "note": 60, "velocity": 112, "channel": 0}, {"type": "note_on", "time": 5, "note": 58, "velocity": 107, "channel": 0}, {"type": "note_off", "time": 85, "note": 58, "velocity": 107, "channel": 0}, {"type": "note_on", "time": 9, "note": 62, "velocity": 115, "channel": 0}, {"type": "note_off", "time": 129, "note": 62, "velocity": 115, "channel": 0}, {"type": "note_on", "time": 5, "note": 61, "velocity": 108, "channel": 0}, {"type": "note_off", "time": 53, "note": 61, "velocity": 108, "channel": 0}, {"type": "note_on", "time": 27, "note": 57, "velocity": 103, "channel": 0}, {"type": "note_off", "time": 51, "note": 57, "velocity": 103, "channel": 0}, {"type": "note_on", "time": 19, "note": 60, "velocity": 113, "channel": 0}, {"type": "note_off", "time": 115, "note": 60, "velocity": 113, "channel": 0}, {"type": "note_on", "time": 13, "note": 56, "velocity": 100, "channel": 0}, {"type": "note_off", "time": 49, "note": 56, "velocity": 100, "channel": 0}, {"type": "note_on", "time": 19, "note": 59, "velocity": 99, "channel": 0}, {"type": "note_off", "time": 95, "note": 59, "velocity": 99, "channel": 0}, {"type": "note_on", "time": 7, "note": 55, "velocity": 113, "channel": 0}, {"type": "note_off", "time": 59, "note": 55, "velocity": 113, "channel": 0}, {"type": "note_on", "time": 15, "note": 56, "velocity": 104, "channel": 0}, {"type": "note_off", "time": 107, "note": 56, "velocity": 104, "channel": 0}, {"type": "note_on", "time": 5, "note": 58, "velocity": 112, "channel": 0}, {"type": "note_off", "time": 55, "note": 58, "velocity": 112, "channel": 0}, {"type": "note_on", "time": 13, "note": 59, "velocity": 110, "channel": 0}, {"type": "note_off", "time": 71, "note": 59, "velocity": 110, "channel": 0}, {"type": "note_on", "time": 35, "note": 62, "velocity": 109, "channel": 0}, {"type": "note_off", "time": 43, "note": 62, "velocity": 109, "channel": 0}, {"type": "note_on", "time": 35, "note": 65, "velocity": 117, "channel": 0}, {"type": "note_off", "time": 91, "note": 65, "velocity": 117, "channel": 0}, {"type": "note_on", "time": 23, "note": 62, "velocity": 110, "channel": 0}, {"type": "note_off", "time": 45, "note": 62, "velocity": 110, "channel": 0}, {"type": "note_on", "time": 17, "note": 64, "velocity": 103, "channel": 0}, {"type": "note_off", "time": 73, "note": 64, "velocity": 103, "channel": 0}, {"type": "note_on", "time": 23, "note": 67, "velocity": 110, "channel": 0}, {"type": "note_off", "time": 83, "note": 67, "velocity": 110, "channel": 0}, {"type": "note_on", "time": 31, "note": 64, "velocity": 100, "channel": 0}, {"type": "note_off", "time": 57, "note": 64, "velocity": 100, "channel": 0}, {"type": "note_on", "time": 131, "note": 60, "velocity": 97, "channel": 0}, {"type": "note_off", "time": 91, "note": 60, "velocity": 97, "channel": 0}, {"type": "note_on", "time": 511, "note": 55, "velocity": 105, "channel": 0}, {"type": "note_off", "time": 71, "note": 55, "velocity": 105, "channel": 0}, {"type": "note_on", "time": 3, "note": 57, "velocity": 106, "channel": 0}, {"type": "note_off", "time": 79, "note": 57, "velocity": 106, "channel": 0}, {"type": "note_on", "time": 0, "note": 59, "velocity": 110, "channel": 0}, {"type": "note_off", "time": 75, "note": 59, "velocity": 110, "channel": 0}, {"type": "note_on", "time": 7, "note": 60, "velocity": 113, "channel": 0}, {"type": "note_off", "time": 111, "note": 60, "velocity": 113, "channel": 0}, {"type": "note_on", "time": 0, "note": 59, "velocity": 109, "channel": 0}, {"type": "note_off", "time": 95, "note": 59, "velocity": 109, "channel": 0}, {"type": "note_on", "time": 11, "note": 58, "velocity": 112, "channel": 0}, {"type": "note_off", "time": 75, "note": 58, "velocity": 112, "channel": 0}, {"type": "note_on", "time": 3, "note": 57, "velocity": 106, "channel": 0}, {"type": "note_off", "time": 87, "note": 57, "velocity": 106, "channel": 0}, {"type": "note_on", "time": 19, "note": 56, "velocity": 115, "channel": 0}, {"type": "note_off", "time": 95, "note": 56, "velocity": 115, "channel": 0}, {"type": "note_on", "time": 19, "note": 55, "velocity": 110, "channel": 0}, {"type": "note_off", "time": 79, "note": 55, "velocity": 110, "channel": 0}, {"type": "note_on", "time": 11, "note": 51, "velocity": 99, "channel": 0}, {"type": "note_off", "time": 79, "note": 51, "velocity": 99, "channel": 0}, {"type": "note_on", "time": 15, "note": 54, "velocity": 109, "channel": 0}, {"type": "note_off", "time": 71, "note": 54, "velocity": 109, "channel": 0}, {"type": "note_on", "time": 29, "note": 50, "velocity": 102, "channel": 0}, {"type": "note_off", "time": 61, "note": 50, "velocity": 102, "channel": 0}, {"type": "note_on", "time": 19, "note": 53, "velocity": 112, "channel": 0}, {"type": "note_off", "time": 71, "note": 53, "velocity": 112, "channel": 0}, {"type": "note_on", "time": 11, "note": 55, "velocity": 112, "channel": 0}, {"type": "note_off", "time": 79, "note": 55, "velocity": 112, "channel": 0}, {"type": "note_on", "time": 19, "note": 56, "velocity": 106, "channel": 0}, {"type": "note_off", "time": 67, "note": 56, "velocity": 106, "channel": 0}, {"type": "note_on", "time": 15, "note": 58, "velocity": 105, "channel": 0}, {"type": "note_off", "time": 79, "note": 58, "velocity": 105, "channel": 0}, {"type": "note_on", "time": 3, "note": 60, "velocity": 106, "channel": 0}, {"type": "note_off", "time": 107, "note": 60, "velocity": 106, "channel": 0}, {"type": "note_on", "time": 11, "note": 63, "velocity": 108, "channel": 0}, {"type": "note_off", "time": 79, "note": 63, "velocity": 108, "channel": 0}, {"type": "note_on", "time": 3, "note": 67, "velocity": 116, "channel": 0}, {"type": "note_off", "time": 75, "note": 67, "velocity": 116, "channel": 0}, {"type": "note_on", "time": 19, "note": 68, "velocity": 119, "channel": 0}, {"type": "note_off", "time": 91, "note": 68, "velocity": 119, "channel": 0}, {"type": "note_on", "time": 7, "note": 67, "velocity": 111, "channel": 0}, {"type": "note_off", "time": 75, "note": 67, "velocity": 111, "channel": 0}, {"type": "note_on", "time": 15, "note": 66, "velocity": 111, "channel": 0}, {"type": "note_off", "time": 103, "note": 66, "velocity": 111, "channel": 0}, {"type": "note_on", "time": 23, "note": 63, "velocity": 98, "channel": 0}, {"type": "note_off", "time": 71, "note": 63, "velocity": 98, "channel": 0}, {"type": "note_on", "time": 19, "note": 60, "velocity": 91, "channel": 0}, {"type": "note_off", "time": 59, "note": 60, "velocity": 91, "channel": 0}, {"type": "note_on", "time": 23, "note": 62, "velocity": 114, "channel": 0}, {"type": "note_off", "time": 111, "note": 62, "velocity": 114, "channel": 0}, {"type": "note_on", "time": 0, "note": 59, "velocity": 106, "channel": 0}, {"type": "note_off", "time": 71, "note": 59, "velocity": 106, "channel": 0}, {"type": "note_on", "time": 15, "note": 58, "velocity": 107, "channel": 0}, {"type": "note_off", "time": 67, "note": 58, "velocity": 107, "channel": 0}, {"type": "note_on", "time": 13, "note": 56, "velocity": 104, "channel": 0}, {"type": "note_off", "time": 85, "note": 56, "velocity": 104, "channel": 0}, {"type": "note_on", "time": 23, "note": 55, "velocity": 100, "channel": 0}, {"type": "note_off", "time": 123, "note": 55, "velocity": 100, "channel": 0}, {"type": "note_on", "time": 1107, "note": 50, "velocity": 100, "channel": 0}, {"type": "note_off", "time": 71, "note": 50, "velocity": 100, "channel": 0}, {"type": "note_on", "time": 3, "note": 53, "velocity": 109, "channel": 0}, {"type": "note_on", "time": 99, "note": 50, "velocity": 103, "channel": 0}, {"type": "note_off", "time": 0, "note": 53, "velocity": 109, "channel": 0}, {"type": "note_off", "time": 71, "note": 50, "velocity": 103, "channel": 0}, {"type": "note_on", "time": 25, "note": 51, "velocity": 107, "channel": 0}, {"type": "note_off", "time": 95, "note": 51, "velocity": 107, "channel": 0}, {"type": "note_on", "time": 5, "note": 55, "velocity": 116, "channel": 0}, {"type": "note_off", "time": 75, "note": 55, "velocity": 116, "channel": 0}, {"type": "note_on", "time": 3, "note": 53, "velocity": 105, "channel": 0}, {"type": "note_off", "time": 99, "note": 53, "velocity": 105, "channel": 0}, {"type": "note_on", "time": 9, "note": 57, "velocity": 118, "channel": 0}, {"type": "note_off", "time": 115, "note": 57, "velocity": 118, "channel": 0}, {"type": "note_on", "time": 13, "note": 56, "velocity": 106, "channel": 0}, {"type": "note_off", "time": 57, "note": 56, "velocity": 106, "channel": 0}, {"type": "note_on", "time": 29, "note": 52, "velocity": 113, "channel": 0}, {"type": "note_off", "time": 67, "note": 52, "velocity": 113, "channel": 0}, {"type": "note_on", "time": 29, "note": 55, "velocity": 115, "channel": 0}, {"type": "note_off", "time": 105, "note": 55, "velocity": 115, "channel": 0}, {"type": "note_on", "time": 15, "note": 51, "velocity": 105, "channel": 0}, {"type": "note_off", "time": 41, "note": 51, "velocity": 105, "channel": 0}, {"type": "note_on", "time": 23, "note": 54, "velocity": 109, "channel": 0}, {"type": "note_off", "time": 83, "note": 54, "velocity": 109, "channel": 0}, {"type": "note_on", "time": 5, "note": 56, "velocity": 109, "channel": 0}, {"type": "note_off", "time": 67, "note": 56, "velocity": 109, "channel": 0}, {"type": "note_on", "time": 19, "note": 57, "velocity": 109, "channel": 0}, {"type": "note_off", "time": 87, "note": 57, "velocity": 109, "channel": 0}, {"type": "note_on", "time": 3, "note": 59, "velocity": 112, "channel": 0}, {"type": "note_off", "time": 49, "note": 59, "velocity": 112, "channel": 0}, {"type": "note_on", "time": 7, "note": 60, "velocity": 105, "channel": 0}, {"type": "note_off", "time": 103, "note": 60, "velocity": 105, "channel": 0}, {"type": "note_on", "time": 21, "note": 63, "velocity": 115, "channel": 0}, {"type": "note_off", "time": 51, "note": 63, "velocity": 115, "channel": 0}, {"type": "note_on", "time": 3, "note": 67, "velocity": 120, "channel": 0}, {"type": "note_off", "time": 123, "note": 67, "velocity": 120, "channel": 0}, {"type": "note_on", "time": 5, "note": 64, "velocity": 106, "channel": 0}, {"type": "note_off", "time": 51, "note": 64, "velocity": 106, "channel": 0}, {"type": "note_on", "time": 13, "note": 66, "velocity": 108, "channel": 0}, {"type": "note_off", "time": 99, "note": 66, "velocity": 108, "channel": 0}, {"type": "note_on", "time": 7, "note": 69, "velocity": 118, "channel": 0}, {"type": "note_off", "time": 119, "note": 69, "velocity": 118, "channel": 0}, {"type": "note_on", "time": 15, "note": 62, "velocity": 111, "channel": 0}, {"type": "note_off", "time": 75, "note": 62, "velocity": 111, "channel": 0}, {"type": "note_on", "time": 11, "note": 61, "velocity": 113, "channel": 0}, {"type": "note_off", "time": 91, "note": 61, "velocity": 113, "channel": 0}, {"type": "note_on", "time": 11, "note": 60, "velocity": 107, "channel": 0}, {"type": "note_off", "time": 95, "note": 60, "velocity": 107, "channel": 0}, {"type": "note_on", "time": 83, "note": 60, "velocity": 107, "channel": 0}, {"type": "note_off", "time": 91, "note": 60, "velocity": 107, "channel": 0}, {"type": "note_on", "time": 7, "note": 64, "velocity": 119, "channel": 0}, {"type": "note_off", "time": 111, "note": 64, "velocity": 119, "channel": 0}, {"type": "note_on", "time": 5, "note": 63, "velocity": 107, "channel": 0}, {"type": "note_off", "time": 73, "note": 63, "velocity": 107, "channel": 0}, {"type": "note_on", "time": 29, "note": 60, "velocity": 91, "channel": 0}, {"type": "note_off", "time": 69, "note": 60, "velocity": 91, "channel": 0}, {"type": "note_on", "time": 25, "note": 62, "velocity": 107, "channel": 0}, {"type": "note_off", "time": 57, "note": 62, "velocity": 107, "channel": 0}, {"type": "note_on", "time": 23, "note": 59, "velocity": 109, "channel": 0}, {"type": "note_off", "time": 83, "note": 59, "velocity": 109, "channel": 0}, {"type": "note_on", "time": 5, "note": 60, "velocity": 107, "channel": 0}, {"type": "note_off", "time": 63, "note": 60, "velocity": 107, "channel": 0}, {"type": "note_on", "time": 19, "note": 62, "velocity": 112, "channel": 0}, {"type": "note_off", "time": 63, "note": 62, "velocity": 112, "channel": 0}, {"type": "note_on", "time": 25, "note": 64, "velocity": 109, "channel": 0}, {"type": "note_off", "time": 65, "note": 64, "velocity": 109, "channel": 0}, {"type": "note_on", "time": 7, "note": 67, "velocity": 104, "channel": 0}, {"type": "note_off", "time": 53, "note": 67, "velocity": 104, "channel": 0}, {"type": "note_on", "time": 19, "note": 71, "velocity": 116, "channel": 0}, {"type": "note_off", "time": 117, "note": 71, "velocity": 116, "channel": 0}, {"type": "note_on", "time": 29, "note": 68, "velocity": 110, "channel": 0}, {"type": "note_off", "time": 47, "note": 68, "velocity": 110, "channel": 0}, {"type": "note_on", "time": 25, "note": 72, "velocity": 115, "channel": 0}, {"type": "note_off", "time": 87, "note": 72, "velocity": 115, "channel": 0}, {"type": "note_on", "time": 29, "note": 68, "velocity": 96, "channel": 0}, {"type": "note_off", "time": 45, "note": 68, "velocity": 96, "channel": 0}, {"type": "note_on", "time": 25, "note": 71, "velocity": 116, "channel": 0}, {"type": "note_off", "time": 83, "note": 71, "velocity": 116, "channel": 0}, {"type": "note_on", "time": 31, "note": 68, "velocity": 112, "channel": 0}, {"type": "note_off", "time": 77, "note": 68, "velocity": 112, "channel": 0}, {"type": "note_on", "time": 13, "note": 72, "velocity": 115, "channel": 0}, {"type": "note_off", "time": 75, "note": 72, "velocity": 115, "channel": 0}, {"type": "note_on", "time": 37, "note": 68, "velocity": 102, "channel": 0}, {"type": "note_off", "time": 49, "note": 68, "velocity": 102, "channel": 0}, {"type": "note_on", "time": 25, "note": 71, "velocity": 113, "channel": 0}, {"type": "note_off", "time": 99, "note": 71, "velocity": 113, "channel": 0}, {"type": "note_on", "time": 25, "note": 68, "velocity": 101, "channel": 0}, {"type": "note_off", "time": 41, "note": 68, "velocity": 101, "channel": 0}, {"type": "note_on", "time": 23, "note": 72, "velocity": 114, "channel": 0}, {"type": "note_off", "time": 97, "note": 72, "velocity": 114, "channel": 0}, {"type": "note_on", "time": 9, "note": 71, "velocity": 94, "channel": 0}, {"type": "note_off", "time": 59, "note": 71, "velocity": 94, "channel": 0}, {"type": "note_on", "time": 131, "note": 67, "velocity": 98, "channel": 0}, {"type": "note_off", "time": 87, "note": 67, "velocity": 98, "channel": 0}, {"type": "note_on", "time": 91, "note": 62, "velocity": 107, "channel": 0}, {"type": "note_off", "time": 91, "note": 62, "velocity": 107, "channel": 0}, {"type": "note_on", "time": 77, "note": 59, "velocity": 100, "channel": 0}, {"type": "note_off", "time": 81, "note": 59, "velocity": 100, "channel": 0}, {"type": "note_on", "time": 105, "note": 55, "velocity": 93, "channel": 0}, {"type": "note_off", "time": 109, "note": 55, "velocity": 93, "channel": 0}, {"type": "note_on", "time": 385, "note": 59, "velocity": 109, "channel": 0}, {"type": "note_off", "time": 109, "note": 59, "velocity": 109, "channel": 0}, {"type": "note_on", "time": 61, "note": 60, "velocity": 110, "channel": 0}, {"type": "note_off", "time": 183, "note": 60, "velocity": 110, "channel": 0}, {"type": "note_on", "time": 25, "note": 62, "velocity": 118, "channel": 0}, {"type": "note_off", "time": 109, "note": 62, "velocity": 118, "channel": 0}, {"type": "note_on", "time": 75, "note": 64, "velocity": 111, "channel": 0}, {"type": "note_off", "time": 143, "note": 64, "velocity": 111, "channel": 0}, {"type": "note_on", "time": 27, "note": 63, "velocity": 101, "channel": 0}, {"type": "note_off", "time": 117, "note": 63, "velocity": 101, "channel": 0}, {"type": "note_on", "time": 17, "note": 64, "velocity": 114, "channel": 0}, {"type": "note_off", "time": 107, "note": 64, "velocity": 114, "channel": 0}, {"type": "note_on", "time": 39, "note": 65, "velocity": 116, "channel": 0}, {"type": "note_off", "time": 95, "note": 65, "velocity": 116, "channel": 0}, {"type": "note_on", "time": 91, "note": 66, "velocity": 115, "channel": 0}, {"type": "note_off", "time": 99, "note": 66, "velocity": 115, "channel": 0}, {"type": "note_on", "time": 77, "note": 63, "velocity": 115, "channel": 0}, {"type": "note_off", "time": 99, "note": 63, "velocity": 115, "channel": 0}, {"type": "note_on", "time": 9, "note": 60, "velocity": 103, "channel": 0}, {"type": "note_off", "time": 103, "note": 60, "velocity": 103, "channel": 0}, {"type": "note_on", "time": 23, "note": 60, "velocity": 116, "channel": 0}, {"type": "note_off", "time": 87, "note": 60, "velocity": 116, "channel": 0}, {"type": "note_on", "time": 19, "note": 59, "velocity": 107, "channel": 0}, {"type": "note_off", "time": 115, "note": 59, "velocity": 107, "channel": 0}, {"type": "note_on", "time": 19, "note": 57, "velocity": 111, "channel": 0}, {"type": "note_off", "time": 95, "note": 57, "velocity": 111, "channel": 0}, {"type": "note_on", "time": 45, "note": 55, "velocity": 97, "channel": 0}, {"type": "note_off", "time": 49, "note": 55, "velocity": 97, "channel": 0}, {"type": "note_on", "time": 17, "note": 56, "velocity": 111, "channel": 0}, {"type": "note_off", "time": 85, "note": 56, "velocity": 111, "channel": 0}, {"type": "note_on", "time": 55, "note": 59, "velocity": 113, "channel": 0}, {"type": "note_off", "time": 111, "note": 59, "velocity": 113, "channel": 0}, {"type": "note_on", "time": 495, "note": 63, "velocity": 108, "channel": 0}, {"type": "note_off", "time": 59, "note": 63, "velocity": 108, "channel": 0}, {"type": "note_on", "time": 9, "note": 64, "velocity": 104, "channel": 0}, {"type": "note_off", "time": 63, "note": 64, "velocity": 104, "channel": 0}, {"type": "note_on", "time": 23, "note": 67, "velocity": 114, "channel": 0}, {"type": "note_off", "time": 61, "note": 67, "velocity": 114, "channel": 0}, {"type": "note_on", "time": 31, "note": 70, "velocity": 114, "channel": 0}, {"type": "note_off", "time": 71, "note": 70, "velocity": 114, "channel": 0}, {"type": "note_on", "time": 15, "note": 72, "velocity": 115, "channel": 0}, {"type": "note_off", "time": 67, "note": 72, "velocity": 115, "channel": 0}, {"type": "note_on", "time": 21, "note": 73, "velocity": 121, "channel": 0}, {"type": "note_off", "time": 103, "note": 73, "velocity": 121, "channel": 0}, {"type": "note_on", "time": 17, "note": 72, "velocity": 115, "channel": 0}, {"type": "note_off", "time": 71, "note": 72, "velocity": 115, "channel": 0}, {"type": "note_on", "time": 25, "note": 71, "velocity": 116, "channel": 0}, {"type": "note_off", "time": 69, "note": 71, "velocity": 116, "channel": 0}, {"type": "note_on", "time": 25, "note": 70, "velocity": 117, "channel": 0}, {"type": "note_off", "time": 75, "note": 70, "velocity": 117, "channel": 0}, {"type": "note_on", "time": 17, "note": 69, "velocity": 120, "channel": 0}, {"type": "note_off", "time": 115, "note": 69, "velocity": 120, "channel": 0}, {"type": "note_on", "time": 5, "note": 68, "velocity": 112, "channel": 0}, {"type": "note_off", "time": 85, "note": 68, "velocity": 112, "channel": 0}, {"type": "note_on", "time": 13, "note": 65, "velocity": 99, "channel": 0}, {"type": "note_off", "time": 62, "note": 65, "velocity": 99, "channel": 0}, {"type": "note_on", "time": 23, "note": 67, "velocity": 103, "channel": 0}, {"type": "note_off", "time": 61, "note": 67, "velocity": 103, "channel": 0}, {"type": "note_on", "time": 1, "note": 70, "velocity": 121, "channel": 0}, {"type": "note_off", "time": 123, "note": 70, "velocity": 121, "channel": 0}, {"type": "note_on", "time": 3, "note": 68, "velocity": 118, "channel": 0}, {"type": "note_off", "time": 91, "note": 68, "velocity": 118, "channel": 0}, {"type": "note_on", "time": 0, "note": 65, "velocity": 113, "channel": 0}, {"type": "note_off", "time": 101, "note": 65, "velocity": 113, "channel": 0}, {"type": "note_on", "time": 31, "note": 63, "velocity": 96, "channel": 0}, {"type": "note_off", "time": 51, "note": 63, "velocity": 96, "channel": 0}, {"type": "note_on", "time": 27, "note": 60, "velocity": 94, "channel": 0}, {"type": "note_off", "time": 77, "note": 60, "velocity": 94, "channel": 0}, {"type": "note_on", "time": 13, "note": 62, "velocity": 104, "channel": 0}, {"type": "note_off", "time": 135, "note": 62, "velocity": 104, "channel": 0}, {"type": "note_on", "time": 117, "note": 63, "velocity": 107, "channel": 0}, {"type": "note_off", "time": 79, "note": 63, "velocity": 107, "channel": 0}, {"type": "note_on", "time": 23, "note": 65, "velocity": 116, "channel": 0}, {"type": "note_off", "time": 55, "note": 65, "velocity": 116, "channel": 0}, {"type": "note_on", "time": 19, "note": 67, "velocity": 120, "channel": 0}, {"type": "note_off", "time": 127, "note": 67, "velocity": 120, "channel": 0}, {"type": "note_on", "time": 0, "note": 65, "velocity": 114, "channel": 0}, {"type": "note_off", "time": 99, "note": 65, "velocity": 114, "channel": 0}, {"type": "note_on", "time": 15, "note": 63, "velocity": 110, "channel": 0}, {"type": "note_off", "time": 83, "note": 63, "velocity": 110, "channel": 0}, {"type": "note_on", "time": 63, "note": 57, "velocity": 102, "channel": 0}, {"type": "note_off", "time": 83, "note": 57, "velocity": 102, "channel": 0}, {"type": "note_on", "time": 43, "note": 60, "velocity": 104, "channel": 0}, {"type": "note_off", "time": 79, "note": 60, "velocity": 104, "channel": 0}, {"type": "note_on", "time": 13, "note": 65, "velocity": 115, "channel": 0}, {"type": "note_off", "time": 93, "note": 65, "velocity": 115, "channel": 0}, {"type": "note_on", "time": 3, "note": 64, "velocity": 109, "channel": 0}, {"type": "note_off", "time": 101, "note": 64, "velocity": 109, "channel": 0}, {"type": "note_on", "time": 79, "note": 63, "velocity": 102, "channel": 0}, {"type": "note_off", "time": 81, "note": 63, "velocity": 102, "channel": 0}, {"type": "note_on", "time": 21, "note": 60, "velocity": 109, "channel": 0}, {"type": "note_off", "time": 57, "note": 60, "velocity": 109, "channel": 0}, {"type": "note_on", "time": 49, "note": 56, "velocity": 113, "channel": 0}, {"type": "note_off", "time": 99, "note": 56, "velocity": 113, "channel": 0}, {"type": "note_on", "time": 151, "note": 63, "velocity": 118, "channel": 0}, {"type": "note_off", "time": 69, "note": 63, "velocity": 118, "channel": 0}, {"type": "note_on", "time": 21, "note": 65, "velocity": 110, "channel": 0}, {"type": "note_off", "time": 91, "note": 65, "velocity": 110, "channel": 0}, {"type": "note_on", "time": 101, "note": 68, "velocity": 114, "channel": 0}, {"type": "note_off", "time": 151, "note": 68, "velocity": 114, "channel": 0}, {"type": "note_on", "time": 145, "note": 71, "velocity": 117, "channel": 0}, {"type": "note_off", "time": 95, "note": 71, "velocity": 117, "channel": 0}, {"type": "note_on", "time": 75, "note": 68, "velocity": 115, "channel": 0}, {"type": "note_off", "time": 107, "note": 68, "velocity": 115, "channel": 0}, {"type": "note_on", "time": 15, "note": 66, "velocity": 106, "channel": 0}, {"type": "note_off", "time": 69, "note": 66, "velocity": 106, "channel": 0}, {"type": "note_on", "time": 97, "note": 65, "velocity": 116, "channel": 0}, {"type": "note_off", "time": 151, "note": 65, "velocity": 116, "channel": 0}, {"type": "note_on", "time": 25, "note": 66, "velocity": 105, "channel": 0}, {"type": "note_off", "time": 189, "note": 66, "velocity": 105, "channel": 0}, {"type": "note_on", "time": 17, "note": 64, "velocity": 110, "channel": 0}, {"type": "note_off", "time": 147, "note": 64, "velocity": 110, "channel": 0}, {"type": "note_on", "time": 17, "note": 66, "velocity": 106, "channel": 0}, {"type": "note_off", "time": 77, "note": 66, "velocity": 106, "channel": 0}, {"type": "note_on", "time": 117, "note": 63, "velocity": 117, "channel": 0}, {"type": "note_off", "time": 173, "note": 63, "velocity": 117, "channel": 0}, {"type": "note_on", "time": 17, "note": 65, "velocity": 103, "channel": 0}, {"type": "note_off", "time": 93, "note": 65, "velocity": 103, "channel": 0}, {"type": "note_on", "time": 107, "note": 62, "velocity": 116, "channel": 0}, {"type": "note_off", "time": 183, "note": 62, "velocity": 116, "channel": 0}, {"type": "note_on", "time": 21, "note": 63, "velocity": 116, "channel": 0}, {"type": "note_off", "time": 67, "note": 63, "velocity": 116, "channel": 0}, {"type": "note_on", "time": 93, "note": 59, "velocity": 9, "channel": 0}, {"type": "note_on", "time": 191, "note": 62, "velocity": 104, "channel": 0}, {"type": "note_off", "time": 0, "note": 59, "velocity": 9, "channel": 0}, {"type": "note_off", "time": 115, "note": 62, "velocity": 104, "channel": 0}, {"type": "note_on", "time": 87, "note": 56, "velocity": 89, "channel": 0}, {"type": "note_off", "time": 159, "note": 56, "velocity": 89, "channel": 0}, {"type": "note_on", "time": 19, "note": 61, "velocity": 95, "channel": 0}, {"type": "note_off", "time": 139, "note": 61, "velocity": 95, "channel": 0}, {"type": "note_on", "time": 55, "note": 65, "velocity": 105, "channel": 0}, {"type": "note_off", "time": 191, "note": 65, "velocity": 105, "channel": 0}, {"type": "note_on", "time": 0, "note": 68, "velocity": 109, "channel": 0}, {"type": "note_off", "time": 141, "note": 68, "velocity": 109, "channel": 0}, {"type": "note_on", "time": 49, "note": 72, "velocity": 106, "channel": 0}, {"type": "note_off", "time": 179, "note": 72, "velocity": 106, "channel": 0}, {"type": "note_on", "time": 29, "note": 73, "velocity": 112, "channel": 0}, {"type": "note_off", "time": 141, "note": 73, "velocity": 112, "channel": 0}, {"type": "note_on", "time": 31, "note": 65, "velocity": 99, "channel": 0}, {"type": "note_off", "time": 207, "note": 65, "velocity": 99, "channel": 0}, {"type": "note_on", "time": 67, "note": 67, "velocity": 101, "channel": 0}, {"type": "note_off", "time": 111, "note": 67, "velocity": 101, "channel": 0}, {"type": "note_on", "time": 93, "note": 70, "velocity": 111, "channel": 0}, {"type": "note_off", "time": 117, "note": 70, "velocity": 111, "channel": 0}, {"type": "note_on", "time": 95, "note": 59, "velocity": 91, "channel": 0}, {"type": "note_on", "time": 55, "note": 68, "velocity": 109, "channel": 0}, {"type": "note_off", "time": 0, "note": 59, "velocity": 91, "channel": 0}, {"type": "note_off", "time": 187, "note": 68, "velocity": 109, "channel": 0}, {"type": "note_on", "time": 11, "note": 70, "velocity": 108, "channel": 0}, {"type": "note_off", "time": 167, "note": 70, "velocity": 108, "channel": 0}, {"type": "note_on", "time": 3, "note": 72, "velocity": 106, "channel": 0}, {"type": "note_off", "time": 191, "note": 72, "velocity": 106, "channel": 0}, {"type": "note_on", "time": 23, "note": 73, "velocity": 111, "channel": 0}, {"type": "note_off", "time": 167, "note": 73, "velocity": 111, "channel": 0}, {"type": "note_on", "time": 7, "note": 75, "velocity": 104, "channel": 0}, {"type": "note_off", "time": 175, "note": 75, "velocity": 104, "channel": 0}, {"type": "note_on", "time": 19, "note": 76, "velocity": 110, "channel": 0}, {"type": "note_off", "time": 159, "note": 76, "velocity": 110, "channel": 0}, {"type": "note_on", "time": 51, "note": 72, "velocity": 103, "channel": 0}, {"type": "note_off", "time": 119, "note": 72, "velocity": 103, "channel": 0}, {"type": "note_on", "time": 47, "note": 78, "velocity": 105, "channel": 0}, {"type": "note_off", "time": 65, "note": 78, "velocity": 105, "channel": 0}, {"type": "note_on", "time": 25, "note": 79, "velocity": 102, "channel": 0}, {"type": "note_off", "time": 269, "note": 79, "velocity": 102, "channel": 0}, {"type": "note_on", "time": 15, "note": 77, "velocity": 106, "channel": 0}, {"type": "note_off", "time": 129, "note": 77, "velocity": 106, "channel": 0}, {"type": "note_on", "time": 107, "note": 71, "velocity": 110, "channel": 0}, {"type": "note_off", "time": 151, "note": 71, "velocity": 110, "channel": 0}, {"type": "note_on", "time": 13, "note": 72, "velocity": 94, "channel": 0}, {"type": "note_off", "time": 81, "note": 72, "velocity": 94, "channel": 0}, {"type": "note_on", "time": 35, "note": 70, "velocity": 107, "channel": 0}, {"type": "note_off", "time": 327, "note": 70, "velocity": 107, "channel": 0}, {"type": "note_on", "time": 231, "note": 66, "velocity": 111, "channel": 0}, {"type": "note_off", "time": 85, "note": 66, "velocity": 111, "channel": 0}, {"type": "note_on", "time": 17, "note": 67, "velocity": 108, "channel": 0}, {"type": "note_off", "time": 141, "note": 67, "velocity": 108, "channel": 0}, {"type": "note_on", "time": 41, "note": 63, "velocity": 95, "channel": 0}, {"type": "note_off", "time": 217, "note": 63, "velocity": 95, "channel": 0}, {"type": "note_on", "time": 183, "note": 71, "velocity": 108, "channel": 0}, {"type": "note_off", "time": 97, "note": 71, "velocity": 108, "channel": 0}, {"type": "note_on", "time": 11, "note": 72, "velocity": 104, "channel": 0}, {"type": "note_off", "time": 135, "note": 72, "velocity": 104, "channel": 0}, {"type": "note_on", "time": 47, "note": 68, "velocity": 104, "channel": 0}, {"type": "note_off", "time": 307, "note": 68, "velocity": 104, "channel": 0}, {"type": "note_on", "time": 175, "note": 68, "velocity": 109, "channel": 0}, {"type": "note_off", "time": 115, "note": 68, "velocity": 109, "channel": 0}, {"type": "note_on", "time": 11, "note": 65, "velocity": 100, "channel": 0}, {"type": "note_off", "time": 83, "note": 65, "velocity": 100, "channel": 0}, {"type": "note_on", "time": 0, "note": 63, "velocity": 96, "channel": 0}, {"type": "note_off", "time": 99, "note": 63, "velocity": 96, "channel": 0}, {"type": "note_on", "time": 3, "note": 61, "velocity": 91, "channel": 0}, {"type": "note_off", "time": 107, "note": 61, "velocity": 91, "channel": 0}, {"type": "note_on", "time": 7, "note": 60, "velocity": 89, "channel": 0}, {"type": "note_off", "time": 125, "note": 60, "velocity": 89, "channel": 0}, {"type": "note_on", "time": 13, "note": 63, "velocity": 110, "channel": 0}, {"type": "note_off", "time": 95, "note": 63, "velocity": 110, "channel": 0}, {"type": "note_on", "time": 87, "note": 65, "velocity": 106, "channel": 0}, {"type": "note_off", "time": 271, "note": 65, "velocity": 106, "channel": 0}, {"type": "note_on", "time": 27, "note": 59, "velocity": 94, "channel": 0}, {"type": "note_off", "time": 89, "note": 59, "velocity": 94, "channel": 0}, {"type": "note_on", "time": 17, "note": 58, "velocity": 85, "channel": 0}, {"type": "note_off", "time": 75, "note": 58, "velocity": 85, "channel": 0}, {"type": "note_on", "time": 111, "note": 67, "velocity": 103, "channel": 0}, {"type": "note_off", "time": 311, "note": 67, "velocity": 103, "channel": 0}, {"type": "note_on", "time": 227, "note": 67, "velocity": 109, "channel": 0}, {"type": "note_off", "time": 99, "note": 67, "velocity": 109, "channel": 0}, {"type": "note_on", "time": 7, "note": 64, "velocity": 106, "channel": 0}, {"type": "note_on", "time": 115, "note": 62, "velocity": 97, "channel": 0}, {"type": "note_off", "time": 0, "note": 64, "velocity": 106, "channel": 0}, {"type": "note_off", "time": 123, "note": 62, "velocity": 97, "channel": 0}, {"type": "note_on", "time": 101, "note": 72, "velocity": 112, "channel": 0}, {"type": "note_off", "time": 65, "note": 72, "velocity": 112, "channel": 0}, {"type": "note_on", "time": 27, "note": 74, "velocity": 107, "channel": 0}, {"type": "note_off", "time": 145, "note": 74, "velocity": 107, "channel": 0}, {"type": "note_on", "time": 41, "note": 72, "velocity": 99, "channel": 0}, {"type": "note_off", "time": 325, "note": 72, "velocity": 99, "channel": 0}, {"type": "note_on", "time": 129, "note": 67, "velocity": 101, "channel": 0}, {"type": "note_off", "time": 95, "note": 67, "velocity": 101, "channel": 0}, {"type": "note_on", "time": 9, "note": 69, "velocity": 85, "channel": 0}, {"type": "note_off", "time": 69, "note": 69, "velocity": 85, "channel": 0}, {"type": "note_on", "time": 33, "note": 72, "velocity": 106, "channel": 0}, {"type": "note_off", "time": 127, "note": 72, "velocity": 106, "channel": 0}, {"type": "note_on", "time": 35, "note": 74, "velocity": 112, "channel": 0}, {"type": "note_off", "time": 153, "note": 74, "velocity": 112, "channel": 0}, {"type": "note_on", "time": 129, "note": 68, "velocity": 104, "channel": 0}, {"type": "note_off", "time": 171, "note": 68, "velocity": 104, "channel": 0}, {"type": "note_on", "time": 295, "note": 68, "velocity": 108, "channel": 0}, {"type": "note_off", "time": 91, "note": 68, "velocity": 108, "channel": 0}, {"type": "note_on", "time": 27, "note": 68, "velocity": 116, "channel": 0}, {"type": "note_off", "time": 81, "note": 68, "velocity": 116, "channel": 0}, {"type": "note_on", "time": 23, "note": 67, "velocity": 110, "channel": 0}, {"type": "note_off", "time": 95, "note": 67, "velocity": 110, "channel": 0}, {"type": "note_on", "time": 19, "note": 64, "velocity": 88, "channel": 0}, {"type": "note_off", "time": 49, "note": 64, "velocity": 88, "channel": 0}, {"type": "note_on", "time": 25, "note": 65, "velocity": 106, "channel": 0}, {"type": "note_off", "time": 155, "note": 65, "velocity": 106, "channel": 0}, {"type": "note_on", "time": 23, "note": 67, "velocity": 110, "channel": 0}, {"type": "note_off", "time": 157, "note": 67, "velocity": 110, "channel": 0}, {"type": "note_on", "time": 7, "note": 68, "velocity": 106, "channel": 0}, {"type": "note_off", "time": 163, "note": 68, "velocity": 106, "channel": 0}, {"type": "note_on", "time": 35, "note": 70, "velocity": 112, "channel": 0}, {"type": "note_off", "time": 115, "note": 70, "velocity": 112, "channel": 0}, {"type": "note_on", "time": 25, "note": 67, "velocity": 97, "channel": 0}, {"type": "note_off", "time": 107, "note": 67, "velocity": 97, "channel": 0}, {"type": "note_on", "time": 329, "note": 67, "velocity": 97, "channel": 0}, {"type": "note_off", "time": 109, "note": 67, "velocity": 97, "channel": 0}, {"type": "note_on", "time": 27, "note": 66, "velocity": 109, "channel": 0}, {"type": "note_off", "time": 83, "note": 66, "velocity": 109, "channel": 0}, {"type": "note_on", "time": 23, "note": 65, "velocity": 108, "channel": 0}, {"type": "note_off", "time": 91, "note": 65, "velocity": 108, "channel": 0}, {"type": "note_on", "time": 0, "note": 62, "velocity": 90, "channel": 0}, {"type": "note_off", "time": 59, "note": 62, "velocity": 90, "channel": 0}, {"type": "note_on", "time": 19, "note": 64, "velocity": 105, "channel": 0}, {"type": "note_off", "time": 113, "note": 64, "velocity": 105, "channel": 0}, {"type": "note_on", "time": 73, "note": 63, "velocity": 109, "channel": 0}, {"type": "note_off", "time": 219, "note": 63, "velocity": 109, "channel": 0}, {"type": "note_on", "time": 42, "note": 60, "velocity": 97, "channel": 0}, {"type": "note_off", "time": 73, "note": 60, "velocity": 97, "channel": 0}, {"type": "note_on", "time": 11, "note": 56, "velocity": 101, "channel": 0}, {"type": "note_off", "time": 119, "note": 56, "velocity": 101, "channel": 0}, {"type": "note_on", "time": 92, "note": 57, "velocity": 103, "channel": 0}, {"type": "note_off", "time": 252, "note": 57, "velocity": 103, "channel": 0}, {"type": "note_on", "time": 34, "note": 60, "velocity": 90, "channel": 0}, {"type": "note_off", "time": 82, "note": 60, "velocity": 90, "channel": 0}, {"type": "note_on", "time": 17, "note": 63, "velocity": 106, "channel": 0}, {"type": "note_off", "time": 88, "note": 63, "velocity": 106, "channel": 0}, {"type": "note_on", "time": 22, "note": 67, "velocity": 107, "channel": 0}, {"type": "note_off", "time": 102, "note": 67, "velocity": 107, "channel": 0}, {"type": "note_on", "time": 9, "note": 64, "velocity": 101, "channel": 0}, {"type": "note_off", "time": 61, "note": 64, "velocity": 101, "channel": 0}, {"type": "note_on", "time": 23, "note": 65, "velocity": 81, "channel": 0}, {"type": "note_off", "time": 95, "note": 65, "velocity": 81, "channel": 0}, {"type": "note_on", "time": 63, "note": 69, "velocity": 113, "channel": 0}, {"type": "note_off", "time": 113, "note": 69, "velocity": 113, "channel": 0}, {"type": "note_on", "time": 25, "note": 62, "velocity": 101, "channel": 0}, {"type": "note_off", "time": 65, "note": 62, "velocity": 101, "channel": 0}, {"type": "note_on", "time": 11, "note": 61, "velocity": 101, "channel": 0}, {"type": "note_off", "time": 85, "note": 61, "velocity": 101, "channel": 0}, {"type": "note_on", "time": 15, "note": 60, "velocity": 100, "channel": 0}, {"type": "note_off", "time": 67, "note": 60, "velocity": 100, "channel": 0}, {"type": "note_on", "time": 11, "note": 56, "velocity": 96, "channel": 0}, {"type": "note_off", "time": 39, "note": 56, "velocity": 96, "channel": 0}, {"type": "note_on", "time": 47, "note": 59, "velocity": 94, "channel": 0}, {"type": "note_off", "time": 79, "note": 59, "velocity": 94, "channel": 0}, {"type": "note_on", "time": 25, "note": 64, "velocity": 109, "channel": 0}, {"type": "note_off", "time": 95, "note": 64, "velocity": 109, "channel": 0}, {"type": "note_on", "time": 13, "note": 63, "velocity": 104, "channel": 0}, {"type": "note_off", "time": 117, "note": 63, "velocity": 104, "channel": 0}, {"type": "note_on", "time": 27, "note": 62, "velocity": 104, "channel": 0}, {"type": "note_off", "time": 87, "note": 62, "velocity": 104, "channel": 0}, {"type": "note_on", "time": 29, "note": 59, "velocity": 104, "channel": 0}, {"type": "note_off", "time": 57, "note": 59, "velocity": 104, "channel": 0}, {"type": "note_on", "time": 43, "note": 55, "velocity": 90, "channel": 0}, {"type": "note_off", "time": 71, "note": 55, "velocity": 90, "channel": 0}, {"type": "note_on", "time": 19, "note": 54, "velocity": 108, "channel": 0}, {"type": "note_off", "time": 87, "note": 54, "velocity": 108, "channel": 0}, {"type": "note_on", "time": 9, "note": 53, "velocity": 103, "channel": 0}, {"type": "note_off", "time": 77, "note": 53, "velocity": 103, "channel": 0}, {"type": "note_on", "time": 77, "note": 52, "velocity": 97, "channel": 0}, {"type": "note_off", "time": 399, "note": 52, "velocity": 97, "channel": 0}, {"type": "note_on", "time": 22, "note": 58, "velocity": 106, "channel": 0}, {"type": "note_off", "time": 42, "note": 58, "velocity": 106, "channel": 0}, {"type": "note_on", "time": 24, "note": 59, "velocity": 102, "channel": 0}, {"type": "note_off", "time": 41, "note": 59, "velocity": 102, "channel": 0}, {"type": "note_on", "time": 32, "note": 60, "velocity": 99, "channel": 0}, {"type": "note_off", "time": 102, "note": 60, "velocity": 99, "channel": 0}, {"type": "note_on", "time": 19, "note": 60, "velocity": 102, "channel": 0}, {"type": "note_off", "time": 119, "note": 60, "velocity": 102, "channel": 0}, {"type": "note_on", "time": 33, "note": 62, "velocity": 110, "channel": 0}, {"type": "note_off", "time": 77, "note": 62, "velocity": 110, "channel": 0}, {"type": "note_on", "time": 23, "note": 64, "velocity": 96, "channel": 0}, {"type": "note_off", "time": 95, "note": 64, "velocity": 96, "channel": 0}, {"type": "note_on", "time": 51, "note": 64, "velocity": 103, "channel": 0}, {"type": "note_off", "time": 67, "note": 64, "velocity": 103, "channel": 0}, {"type": "note_on", "time": 38, "note": 67, "velocity": 113, "channel": 0}, {"type": "note_off", "time": 88, "note": 67, "velocity": 113, "channel": 0}, {"type": "note_on", "time": 19, "note": 67, "velocity": 104, "channel": 0}, {"type": "note_on", "time": 116, "note": 67, "velocity": 80, "channel": 0}, {"type": "note_off", "time": 0, "note": 67, "velocity": 104, "channel": 0}, {"type": "note_off", "time": 0, "note": 67, "velocity": 80, "channel": 0}, {"type": "note_on", "time": 14, "note": 67, "velocity": 91, "channel": 0}, {"type": "note_off", "time": 96, "note": 67, "velocity": 91, "channel": 0}, {"type": "note_on", "time": 80, "note": 59, "velocity": 97, "channel": 0}, {"type": "note_off", "time": 113, "note": 59, "velocity": 97, "channel": 0}, {"type": "note_on", "time": 47, "note": 59, "velocity": 90, "channel": 0}, {"type": "note_off", "time": 103, "note": 59, "velocity": 90, "channel": 0}, {"type": "note_on", "time": 85, "note": 62, "velocity": 102, "channel": 0}, {"type": "note_off", "time": 113, "note": 62, "velocity": 102, "channel": 0}, {"type": "note_on", "time": 29, "note": 62, "velocity": 95, "channel": 0}, {"type": "note_off", "time": 127, "note": 62, "velocity": 95, "channel": 0}, {"type": "note_on", "time": 75, "note": 67, "velocity": 110, "channel": 0}, {"type": "note_off", "time": 161, "note": 67, "velocity": 110, "channel": 0}, {"type": "note_on", "time": 29, "note": 67, "velocity": 100, "channel": 0}, {"type": "note_off", "time": 135, "note": 67, "velocity": 100, "channel": 0}, {"type": "note_on", "time": 81, "note": 72, "velocity": 107, "channel": 0}, {"type": "note_off", "time": 87, "note": 72, "velocity": 107, "channel": 0}, {"type": "note_on", "time": 4, "note": 74, "velocity": 103, "channel": 0}, {"type": "note_off", "time": 88, "note": 74, "velocity": 103, "channel": 0}, {"type": "note_on", "time": 5, "note": 74, "velocity": 107, "channel": 0}, {"type": "note_off", "time": 79, "note": 74, "velocity": 107, "channel": 0}, {"type": "note_on", "time": 31, "note": 74, "velocity": 106, "channel": 0}, {"type": "note_off", "time": 93, "note": 74, "velocity": 106, "channel": 0}, {"type": "note_on", "time": 34, "note": 62, "velocity": 91, "channel": 0}, {"type": "note_off", "time": 113, "note": 62, "velocity": 91, "channel": 0}, {"type": "note_on", "time": 261, "note": 64, "velocity": 103, "channel": 0}, {"type": "note_off", "time": 173, "note": 64, "velocity": 103, "channel": 0}, {"type": "note_on", "time": 165, "note": 63, "velocity": 102, "channel": 0}, {"type": "note_off", "time": 199, "note": 63, "velocity": 102, "channel": 0}, {"type": "note_on", "time": 187, "note": 66, "velocity": 107, "channel": 0}, {"type": "note_off", "time": 149, "note": 66, "velocity": 107, "channel": 0}, {"type": "note_on", "time": 29, "note": 66, "velocity": 103, "channel": 0}, {"type": "note_off", "time": 123, "note": 66, "velocity": 103, "channel": 0}, {"type": "note_on", "time": 79, "note": 67, "velocity": 96, "channel": 0}, {"type": "note_off", "time": 65, "note": 67, "velocity": 96, "channel": 0}, {"type": "note_on", "time": 9, "note": 68, "velocity": 101, "channel": 0}, {"type": "note_off", "time": 77, "note": 68, "velocity": 101, "channel": 0}, {"type": "note_on", "time": 21, "note": 71, "velocity": 105, "channel": 0}, {"type": "note_off", "time": 131, "note": 71, "velocity": 105, "channel": 0}, {"type": "note_on", "time": 63, "note": 73, "velocity": 108, "channel": 0}, {"type": "note_off", "time": 65, "note": 73, "velocity": 108, "channel": 0}, {"type": "note_on", "time": 7, "note": 75, "velocity": 94, "channel": 0}, {"type": "note_off", "time": 71, "note": 75, "velocity": 94, "channel": 0}, {"type": "note_on", "time": 299, "note": 73, "velocity": 112, "channel": 0}, {"type": "note_off", "time": 99, "note": 73, "velocity": 112, "channel": 0}, {"type": "note_on", "time": 7, "note": 72, "velocity": 102, "channel": 0}, {"type": "note_off", "time": 77, "note": 72, "velocity": 102, "channel": 0}, {"type": "note_on", "time": 35, "note": 68, "velocity": 110, "channel": 0}, {"type": "note_off", "time": 93, "note": 68, "velocity": 110, "channel": 0}, {"type": "note_on", "time": 1, "note": 67, "velocity": 107, "channel": 0}, {"type": "note_off", "time": 49, "note": 67, "velocity": 107, "channel": 0}, {"type": "note_on", "time": 35, "note": 64, "velocity": 101, "channel": 0}, {"type": "note_off", "time": 83, "note": 64, "velocity": 101, "channel": 0}, {"type": "note_on", "time": 3, "note": 63, "velocity": 97, "channel": 0}, {"type": "note_off", "time": 53, "note": 63, "velocity": 97, "channel": 0}, {"type": "note_on", "time": 37, "note": 61, "velocity": 105, "channel": 0}, {"type": "note_off", "time": 65, "note": 61, "velocity": 105, "channel": 0}, {"type": "note_on", "time": 17, "note": 60, "velocity": 100, "channel": 0}, {"type": "note_off", "time": 97, "note": 60, "velocity": 100, "channel": 0}, {"type": "note_on", "time": 23, "note": 59, "velocity": 111, "channel": 0}, {"type": "note_off", "time": 71, "note": 59, "velocity": 111, "channel": 0}, {"type": "note_on", "time": 17, "note": 58, "velocity": 102, "channel": 0}, {"type": "note_off", "time": 77, "note": 58, "velocity": 102, "channel": 0}, {"type": "note_on", "time": 21, "note": 54, "velocity": 99, "channel": 0}, {"type": "note_off", "time": 63, "note": 54, "velocity": 99, "channel": 0}, {"type": "note_on", "time": 29, "note": 57, "velocity": 99, "channel": 0}, {"type": "note_off", "time": 61, "note": 57, "velocity": 99, "channel": 0}, {"type": "note_on", "time": 19, "note": 60, "velocity": 103, "channel": 0}, {"type": "note_off", "time": 63, "note": 60, "velocity": 103, "channel": 0}, {"type": "note_on", "time": 17, "note": 65, "velocity": 104, "channel": 0}, {"type": "note_off", "time": 141, "note": 65, "velocity": 104, "channel": 0}, {"type": "note_on", "time": 37, "note": 47, "velocity": 104, "channel": 0}, {"type": "note_off", "time": 89, "note": 47, "velocity": 104, "channel": 0}, {"type": "note_on", "time": 37, "note": 51, "velocity": 104, "channel": 0}, {"type": "note_off", "time": 53, "note": 51, "velocity": 104, "channel": 0}, {"type": "note_on", "time": 21, "note": 54, "velocity": 105, "channel": 0}, {"type": "note_off", "time": 83, "note": 54, "velocity": 105, "channel": 0}, {"type": "note_on", "time": 27, "note": 50, "velocity": 97, "channel": 0}, {"type": "note_off", "time": 57, "note": 50, "velocity": 97, "channel": 0}, {"type": "note_on", "time": 27, "note": 53, "velocity": 97, "channel": 0}, {"type": "note_off", "time": 59, "note": 53, "velocity": 97, "channel": 0}, {"type": "note_on", "time": 41, "note": 57, "velocity": 109, "channel": 0}, {"type": "note_off", "time": 63, "note": 57, "velocity": 109, "channel": 0}, {"type": "note_on", "time": 19, "note": 60, "velocity": 109, "channel": 0}, {"type": "note_off", "time": 163, "note": 60, "velocity": 109, "channel": 0}, {"type": "note_on", "time": 73, "note": 46, "velocity": 107, "channel": 0}, {"type": "note_off", "time": 79, "note": 46, "velocity": 107, "channel": 0}, {"type": "note_on", "time": 21, "note": 50, "velocity": 106, "channel": 0}, {"type": "note_off", "time": 31, "note": 50, "velocity": 106, "channel": 0}, {"type": "note_on", "time": 43, "note": 53, "velocity": 106, "channel": 0}, {"type": "note_off", "time": 85, "note": 53, "velocity": 106, "channel": 0}, {"type": "note_on", "time": 33, "note": 50, "velocity": 104, "channel": 0}, {"type": "note_off", "time": 39, "note": 50, "velocity": 104, "channel": 0}, {"type": "note_on", "time": 19, "note": 52, "velocity": 104, "channel": 0}, {"type": "note_off", "time": 85, "note": 52, "velocity": 104, "channel": 0}, {"type": "note_on", "time": 29, "note": 56, "velocity": 107, "channel": 0}, {"type": "note_off", "time": 67, "note": 56, "velocity": 107, "channel": 0}, {"type": "note_on", "time": 13, "note": 59, "velocity": 104, "channel": 0}, {"type": "note_off", "time": 127, "note": 59, "velocity": 104, "channel": 0}, {"type": "note_on", "time": 27, "note": 51, "velocity": 107, "channel": 0}, {"type": "note_off", "time": 97, "note": 51, "velocity": 107, "channel": 0}, {"type": "note_on", "time": 55, "note": 55, "velocity": 107, "channel": 0}, {"type": "note_off", "time": 53, "note": 55, "velocity": 107, "channel": 0}, {"type": "note_on", "time": 19, "note": 58, "velocity": 106, "channel": 0}, {"type": "note_off", "time": 101, "note": 58, "velocity": 106, "channel": 0}, {"type": "note_on", "time": 21, "note": 55, "velocity": 103, "channel": 0}, {"type": "note_off", "time": 37, "note": 55, "velocity": 103, "channel": 0}, {"type": "note_on", "time": 13, "note": 56, "velocity": 99, "channel": 0}, {"type": "note_off", "time": 73, "note": 56, "velocity": 99, "channel": 0}, {"type": "note_on", "time": 29, "note": 60, "velocity": 101, "channel": 0}, {"type": "note_off", "time": 57, "note": 60, "velocity": 101, "channel": 0}, {"type": "note_on", "time": 27, "note": 63, "velocity": 104, "channel": 0}, {"type": "note_off", "time": 89, "note": 63, "velocity": 104, "channel": 0}, {"type": "note_on", "time": 33, "note": 60, "velocity": 100, "channel": 0}, {"type": "note_off", "time": 53, "note": 60, "velocity": 100, "channel": 0}, {"type": "note_on", "time": 11, "note": 61, "velocity": 97, "channel": 0}, {"type": "note_off", "time": 157, "note": 61, "velocity": 97, "channel": 0}, {"type": "note_on", "time": 149, "note": 68, "velocity": 111, "channel": 0}, {"type": "note_off", "time": 127, "note": 68, "velocity": 111, "channel": 0}, {"type": "note_on", "time": 15, "note": 64, "velocity": 97, "channel": 0}, {"type": "note_off", "time": 111, "note": 64, "velocity": 97, "channel": 0}, {"type": "note_on", "time": 25, "note": 63, "velocity": 90, "channel": 0}, {"type": "note_off", "time": 81, "note": 63, "velocity": 90, "channel": 0}, {"type": "note_on", "time": 23, "note": 61, "velocity": 86, "channel": 0}, {"type": "note_off", "time": 93, "note": 61, "velocity": 86, "channel": 0}, {"type": "note_on", "time": 349, "note": 68, "velocity": 109, "channel": 0}, {"type": "note_off", "time": 107, "note": 68, "velocity": 109, "channel": 0}, {"type": "note_on", "time": 15, "note": 71, "velocity": 105, "channel": 0}, {"type": "note_off", "time": 87, "note": 71, "velocity": 105, "channel": 0}, {"type": "note_on", "time": 11, "note": 68, "velocity": 93, "channel": 0}, {"type": "note_off", "time": 75, "note": 68, "velocity": 93, "channel": 0}, {"type": "note_on", "time": 21, "note": 64, "velocity": 94, "channel": 0}, {"type": "note_off", "time": 55, "note": 64, "velocity": 94, "channel": 0}, {"type": "note_on", "time": 5, "note": 67, "velocity": 104, "channel": 0}, {"type": "note_off", "time": 75, "note": 67, "velocity": 104, "channel": 0}, {"type": "note_on", "time": 15, "note": 70, "velocity": 105, "channel": 0}, {"type": "note_off", "time": 99, "note": 70, "velocity": 105, "channel": 0}, {"type": "note_on", "time": 23, "note": 67, "velocity": 102, "channel": 0}, {"type": "note_off", "time": 83, "note": 67, "velocity": 102, "channel": 0}, {"type": "note_on", "time": 27, "note": 63, "velocity": 102, "channel": 0}, {"type": "note_off", "time": 99, "note": 63, "velocity": 102, "channel": 0}, {"type": "note_on", "time": 158, "note": 71, "velocity": 111, "channel": 0}, {"type": "note_off", "time": 76, "note": 71, "velocity": 111, "channel": 0}, {"type": "note_on", "time": 12, "note": 72, "velocity": 100, "channel": 0}, {"type": "note_off", "time": 53, "note": 72, "velocity": 100, "channel": 0}, {"type": "note_on", "time": 11, "note": 73, "velocity": 97, "channel": 0}, {"type": "note_off", "time": 109, "note": 73, "velocity": 97, "channel": 0}, {"type": "note_on", "time": 21, "note": 72, "velocity": 111, "channel": 0}, {"type": "note_off", "time": 79, "note": 72, "velocity": 111, "channel": 0}, {"type": "note_on", "time": 14, "note": 71, "velocity": 108, "channel": 0}, {"type": "note_off", "time": 79, "note": 71, "velocity": 108, "channel": 0}, {"type": "note_on", "time": 19, "note": 70, "velocity": 105, "channel": 0}, {"type": "note_off", "time": 82, "note": 70, "velocity": 105, "channel": 0}, {"type": "note_on", "time": 5, "note": 69, "velocity": 107, "channel": 0}, {"type": "note_off", "time": 85, "note": 69, "velocity": 107, "channel": 0}, {"type": "note_on", "time": 14, "note": 68, "velocity": 110, "channel": 0}, {"type": "note_off", "time": 102, "note": 68, "velocity": 110, "channel": 0}, {"type": "note_on", "time": 14, "note": 67, "velocity": 106, "channel": 0}, {"type": "note_off", "time": 90, "note": 67, "velocity": 106, "channel": 0}, {"type": "note_on", "time": 23, "note": 64, "velocity": 86, "channel": 0}, {"type": "note_off", "time": 47, "note": 64, "velocity": 86, "channel": 0}, {"type": "note_on", "time": 5, "note": 66, "velocity": 106, "channel": 0}, {"type": "note_off", "time": 105, "note": 66, "velocity": 106, "channel": 0}, {"type": "note_on", "time": 3, "note": 63, "velocity": 94, "channel": 0}, {"type": "note_off", "time": 51, "note": 63, "velocity": 94, "channel": 0}, {"type": "note_on", "time": 21, "note": 65, "velocity": 101, "channel": 0}, {"type": "note_off", "time": 79, "note": 65, "velocity": 101, "channel": 0}, {"type": "note_on", "time": 10, "note": 67, "velocity": 105, "channel": 0}, {"type": "note_off", "time": 87, "note": 67, "velocity": 105, "channel": 0}, {"type": "note_on", "time": 9, "note": 68, "velocity": 106, "channel": 0}, {"type": "note_off", "time": 65, "note": 68, "velocity": 106, "channel": 0}, {"type": "note_on", "time": 15, "note": 70, "velocity": 108, "channel": 0}, {"type": "note_off", "time": 96, "note": 70, "velocity": 108, "channel": 0}, {"type": "note_on", "time": 11, "note": 67, "velocity": 103, "channel": 0}, {"type": "note_off", "time": 71, "note": 67, "velocity": 103, "channel": 0}, {"type": "note_on", "time": 25, "note": 66, "velocity": 112, "channel": 0}, {"type": "note_off", "time": 82, "note": 66, "velocity": 112, "channel": 0}, {"type": "note_on", "time": 14, "note": 65, "velocity": 107, "channel": 0}, {"type": "note_off", "time": 85, "note": 65, "velocity": 107, "channel": 0}, {"type": "note_on", "time": 13, "note": 64, "velocity": 98, "channel": 0}, {"type": "note_off", "time": 77, "note": 64, "velocity": 98, "channel": 0}, {"type": "note_on", "time": 9, "note": 63, "velocity": 100, "channel": 0}, {"type": "note_off", "time": 87, "note": 63, "velocity": 100, "channel": 0}, {"type": "note_on", "time": 15, "note": 62, "velocity": 97, "channel": 0}, {"type": "note_off", "time": 81, "note": 62, "velocity": 97, "channel": 0}, {"type": "note_on", "time": 39, "note": 61, "velocity": 95, "channel": 0}, {"type": "note_off", "time": 61, "note": 61, "velocity": 95, "channel": 0}, {"type": "note_on", "time": 7, "note": 59, "velocity": 91, "channel": 0}, {"type": "note_off", "time": 61, "note": 59, "velocity": 91, "channel": 0}, {"type": "note_on", "time": 5, "note": 60, "velocity": 91, "channel": 0}, {"type": "note_off", "time": 69, "note": 60, "velocity": 91, "channel": 0}, {"type": "note_on", "time": 39, "note": 65, "velocity": 112, "channel": 0}, {"type": "note_off", "time": 89, "note": 65, "velocity": 112, "channel": 0}, {"type": "note_on", "time": 21, "note": 64, "velocity": 108, "channel": 0}, {"type": "note_off", "time": 91, "note": 64, "velocity": 108, "channel": 0}, {"type": "note_on", "time": 17, "note": 61, "velocity": 87, "channel": 0}, {"type": "note_off", "time": 59, "note": 61, "velocity": 87, "channel": 0}, {"type": "note_on", "time": 25, "note": 63, "velocity": 105, "channel": 0}, {"type": "note_off", "time": 77, "note": 63, "velocity": 105, "channel": 0}, {"type": "note_on", "time": 8, "note": 62, "velocity": 103, "channel": 0}, {"type": "note_off", "time": 105, "note": 62, "velocity": 103, "channel": 0}, {"type": "note_on", "time": 0, "note": 59, "velocity": 90, "channel": 0}, {"type": "note_off", "time": 88, "note": 59, "velocity": 90, "channel": 0}, {"type": "note_on", "time": 10, "note": 57, "velocity": 104, "channel": 0}, {"type": "note_off", "time": 81, "note": 57, "velocity": 104, "channel": 0}, {"type": "note_on", "time": 27, "note": 54, "velocity": 98, "channel": 0}, {"type": "note_off", "time": 47, "note": 54, "velocity": 98, "channel": 0}, {"type": "note_on", "time": 13, "note": 51, "velocity": 105, "channel": 0}, {"type": "note_off", "time": 85, "note": 51, "velocity": 105, "channel": 0}, {"type": "note_on", "time": 5, "note": 55, "velocity": 109, "channel": 0}, {"type": "note_off", "time": 73, "note": 55, "velocity": 109, "channel": 0}, {"type": "note_on", "time": 19, "note": 58, "velocity": 98, "channel": 0}, {"type": "note_off", "time": 90, "note": 58, "velocity": 98, "channel": 0}, {"type": "note_on", "time": 8, "note": 60, "velocity": 109, "channel": 0}, {"type": "note_off", "time": 90, "note": 60, "velocity": 109, "channel": 0}, {"type": "note_on", "time": 10, "note": 57, "velocity": 98, "channel": 0}, {"type": "note_off", "time": 51, "note": 57, "velocity": 98, "channel": 0}, {"type": "note_on", "time": 29, "note": 61, "velocity": 104, "channel": 0}, {"type": "note_off", "time": 69, "note": 61, "velocity": 104, "channel": 0}, {"type": "note_on", "time": 17, "note": 64, "velocity": 101, "channel": 0}, {"type": "note_off", "time": 97, "note": 64, "velocity": 101, "channel": 0}, {"type": "note_on", "time": 17, "note": 65, "velocity": 109, "channel": 0}, {"type": "note_off", "time": 105, "note": 65, "velocity": 109, "channel": 0}, {"type": "note_on", "time": 59, "note": 66, "velocity": 103, "channel": 0}, {"type": "note_off", "time": 61, "note": 66, "velocity": 103, "channel": 0}, {"type": "note_on", "time": 14, "note": 69, "velocity": 114, "channel": 0}, {"type": "note_off", "time": 153, "note": 69, "velocity": 114, "channel": 0}, {"type": "note_on", "time": 2, "note": 66, "velocity": 105, "channel": 0}, {"type": "note_off", "time": 82, "note": 66, "velocity": 105, "channel": 0}, {"type": "note_on", "time": 88, "note": 67, "velocity": 114, "channel": 0}, {"type": "note_off", "time": 56, "note": 67, "velocity": 114, "channel": 0}, {"type": "note_on", "time": 17, "note": 70, "velocity": 111, "channel": 0}, {"type": "note_off", "time": 130, "note": 70, "velocity": 111, "channel": 0}, {"type": "note_on", "time": 1, "note": 67, "velocity": 103, "channel": 0}, {"type": "note_off", "time": 121, "note": 67, "velocity": 103, "channel": 0}, {"type": "note_on", "time": 69, "note": 68, "velocity": 112, "channel": 0}, {"type": "note_off", "time": 101, "note": 68, "velocity": 112, "channel": 0}, {"type": "note_on", "time": 7, "note": 69, "velocity": 108, "channel": 0}, {"type": "note_off", "time": 63, "note": 69, "velocity": 108, "channel": 0}, {"type": "note_on", "time": 13, "note": 70, "velocity": 107, "channel": 0}, {"type": "note_off", "time": 87, "note": 70, "velocity": 107, "channel": 0}, {"type": "note_on", "time": 19, "note": 69, "velocity": 114, "channel": 0}, {"type": "note_off", "time": 115, "note": 69, "velocity": 114, "channel": 0}, {"type": "note_on", "time": 27, "note": 68, "velocity": 111, "channel": 0}, {"type": "note_off", "time": 115, "note": 68, "velocity": 111, "channel": 0}, {"type": "note_on", "time": 27, "note": 67, "velocity": 111, "channel": 0}, {"type": "note_off", "time": 151, "note": 67, "velocity": 111, "channel": 0}, {"type": "note_on", "time": 32, "note": 66, "velocity": 104, "channel": 0}, {"type": "note_off", "time": 85, "note": 66, "velocity": 104, "channel": 0}, {"type": "note_on", "time": 5, "note": 69, "velocity": 114, "channel": 0}, {"type": "note_off", "time": 122, "note": 69, "velocity": 114, "channel": 0}, {"type": "note_on", "time": 4, "note": 66, "velocity": 98, "channel": 0}, {"type": "note_off", "time": 89, "note": 66, "velocity": 98, "channel": 0}, {"type": "note_on", "time": 10, "note": 65, "velocity": 101, "channel": 0}, {"type": "note_off", "time": 93, "note": 65, "velocity": 101, "channel": 0}, {"type": "note_on", "time": 5, "note": 62, "velocity": 98, "channel": 0}, {"type": "note_off", "time": 57, "note": 62, "velocity": 98, "channel": 0}, {"type": "note_on", "time": 87, "note": 65, "velocity": 105, "channel": 0}, {"type": "note_off", "time": 82, "note": 65, "velocity": 105, "channel": 0}, {"type": "note_on", "time": 14, "note": 68, "velocity": 111, "channel": 0}, {"type": "note_off", "time": 108, "note": 68, "velocity": 111, "channel": 0}, {"type": "note_on", "time": 5, "note": 65, "velocity": 108, "channel": 0}, {"type": "note_off", "time": 85, "note": 65, "velocity": 108, "channel": 0}, {"type": "note_on", "time": 2, "note": 64, "velocity": 97, "channel": 0}, {"type": "note_off", "time": 81, "note": 64, "velocity": 97, "channel": 0}, {"type": "note_on", "time": 37, "note": 61, "velocity": 94, "channel": 0}, {"type": "note_off", "time": 59, "note": 61, "velocity": 94, "channel": 0}, {"type": "note_on", "time": 71, "note": 64, "velocity": 108, "channel": 0}, {"type": "note_off", "time": 87, "note": 64, "velocity": 108, "channel": 0}, {"type": "note_on", "time": 15, "note": 67, "velocity": 109, "channel": 0}, {"type": "note_off", "time": 95, "note": 67, "velocity": 109, "channel": 0}, {"type": "note_on", "time": 41, "note": 64, "velocity": 100, "channel": 0}, {"type": "note_off", "time": 81, "note": 64, "velocity": 100, "channel": 0}, {"type": "note_on", "time": 5, "note": 61, "velocity": 83, "channel": 0}, {"type": "note_off", "time": 71, "note": 61, "velocity": 83, "channel": 0}, {"type": "note_on", "time": 15, "note": 63, "velocity": 112, "channel": 0}, {"type": "note_off", "time": 73, "note": 63, "velocity": 112, "channel": 0}, {"type": "note_on", "time": 17, "note": 64, "velocity": 101, "channel": 0}, {"type": "note_off", "time": 79, "note": 64, "velocity": 101, "channel": 0}, {"type": "note_on", "time": 5, "note": 65, "velocity": 99, "channel": 0}, {"type": "note_off", "time": 69, "note": 65, "velocity": 99, "channel": 0}, {"type": "note_on", "time": 13, "note": 68, "velocity": 108, "channel": 0}, {"type": "note_off", "time": 79, "note": 68, "velocity": 108, "channel": 0}, {"type": "note_on", "time": 23, "note": 65, "velocity": 101, "channel": 0}, {"type": "note_off", "time": 81, "note": 65, "velocity": 101, "channel": 0}, {"type": "note_on", "time": 29, "note": 64, "velocity": 109, "channel": 0}, {"type": "note_off", "time": 73, "note": 64, "velocity": 109, "channel": 0}, {"type": "note_on", "time": 25, "note": 63, "velocity": 106, "channel": 0}, {"type": "note_off", "time": 71, "note": 63, "velocity": 106, "channel": 0}, {"type": "note_on", "time": 27, "note": 61, "velocity": 84, "channel": 0}, {"type": "note_off", "time": 59, "note": 61, "velocity": 84, "channel": 0}, {"type": "note_on", "time": 5, "note": 62, "velocity": 104, "channel": 0}, {"type": "note_off", "time": 89, "note": 62, "velocity": 104, "channel": 0}, {"type": "note_on", "time": 17, "note": 59, "velocity": 103, "channel": 0}, {"type": "note_off", "time": 81, "note": 59, "velocity": 103, "channel": 0}, {"type": "note_on", "time": 3, "note": 58, "velocity": 101, "channel": 0}, {"type": "note_off", "time": 59, "note": 58, "velocity": 101, "channel": 0}, {"type": "note_on", "time": 6, "note": 56, "velocity": 103, "channel": 0}, {"type": "note_off", "time": 69, "note": 56, "velocity": 103, "channel": 0}, {"type": "note_on", "time": 55, "note": 53, "velocity": 104, "channel": 0}, {"type": "note_off", "time": 79, "note": 53, "velocity": 104, "channel": 0}, {"type": "note_on", "time": 7, "note": 54, "velocity": 108, "channel": 0}, {"type": "note_off", "time": 73, "note": 54, "velocity": 108, "channel": 0}, {"type": "note_on", "time": 7, "note": 55, "velocity": 102, "channel": 0}, {"type": "note_off", "time": 83, "note": 55, "velocity": 102, "channel": 0}, {"type": "note_on", "time": 9, "note": 58, "velocity": 103, "channel": 0}, {"type": "note_off", "time": 83, "note": 58, "velocity": 103, "channel": 0}, {"type": "note_on", "time": 23, "note": 55, "velocity": 102, "channel": 0}, {"type": "note_off", "time": 71, "note": 55, "velocity": 102, "channel": 0}, {"type": "note_on", "time": 15, "note": 54, "velocity": 105, "channel": 0}, {"type": "note_off", "time": 105, "note": 54, "velocity": 105, "channel": 0}, {"type": "note_on", "time": 9, "note": 53, "velocity": 95, "channel": 0}, {"type": "note_off", "time": 63, "note": 53, "velocity": 95, "channel": 0}, {"type": "note_on", "time": 23, "note": 51, "velocity": 90, "channel": 0}, {"type": "note_off", "time": 53, "note": 51, "velocity": 90, "channel": 0}, {"type": "note_on", "time": 10, "note": 52, "velocity": 96, "channel": 0}, {"type": "note_off", "time": 93, "note": 52, "velocity": 96, "channel": 0}, {"type": "note_on", "time": 5, "note": 59, "velocity": 105, "channel": 0}, {"type": "note_off", "time": 116, "note": 59, "velocity": 105, "channel": 0}, {"type": "note_on", "time": 537, "note": 71, "velocity": 110, "channel": 0}, {"type": "note_off", "time": 85, "note": 71, "velocity": 110, "channel": 0}, {"type": "note_on", "time": 11, "note": 74, "velocity": 113, "channel": 0}, {"type": "note_off", "time": 105, "note": 74, "velocity": 113, "channel": 0}, {"type": "note_on", "time": 2, "note": 71, "velocity": 110, "channel": 0}, {"type": "note_off", "time": 76, "note": 71, "velocity": 110, "channel": 0}, {"type": "note_on", "time": 8, "note": 69, "velocity": 113, "channel": 0}, {"type": "note_off", "time": 96, "note": 69, "velocity": 113, "channel": 0}, {"type": "note_on", "time": 12, "note": 67, "velocity": 95, "channel": 0}, {"type": "note_off", "time": 57, "note": 67, "velocity": 95, "channel": 0}, {"type": "note_on", "time": 134, "note": 65, "velocity": 108, "channel": 0}, {"type": "note_off", "time": 267, "note": 65, "velocity": 108, "channel": 0}, {"type": "note_on", "time": 18, "note": 67, "velocity": 106, "channel": 0}, {"type": "note_off", "time": 77, "note": 67, "velocity": 106, "channel": 0}, {"type": "note_on", "time": 195, "note": 68, "velocity": 109, "channel": 0}, {"type": "note_off", "time": 105, "note": 68, "velocity": 109, "channel": 0}, {"type": "note_on", "time": 11, "note": 67, "velocity": 97, "channel": 0}, {"type": "note_off", "time": 73, "note": 67, "velocity": 97, "channel": 0}, {"type": "note_on", "time": 11, "note": 68, "velocity": 83, "channel": 0}, {"type": "note_off", "time": 127, "note": 68, "velocity": 83, "channel": 0}, {"type": "note_on", "time": 439, "note": 65, "velocity": 103, "channel": 0}, {"type": "note_off", "time": 90, "note": 65, "velocity": 103, "channel": 0}, {"type": "note_on", "time": 8, "note": 64, "velocity": 111, "channel": 0}, {"type": "note_off", "time": 82, "note": 64, "velocity": 111, "channel": 0}, {"type": "note_on", "time": 11, "note": 63, "velocity": 108, "channel": 0}, {"type": "note_off", "time": 102, "note": 63, "velocity": 108, "channel": 0}, {"type": "note_on", "time": 0, "note": 60, "velocity": 90, "channel": 0}, {"type": "note_off", "time": 53, "note": 60, "velocity": 90, "channel": 0}, {"type": "note_on", "time": 23, "note": 62, "velocity": 98, "channel": 0}, {"type": "note_off", "time": 67, "note": 62, "velocity": 98, "channel": 0}, {"type": "note_on", "time": 23, "note": 65, "velocity": 100, "channel": 0}, {"type": "note_off", "time": 89, "note": 65, "velocity": 100, "channel": 0}, {"type": "note_on", "time": 103, "note": 70, "velocity": 111, "channel": 0}, {"type": "note_off", "time": 130, "note": 70, "velocity": 111, "channel": 0}, {"type": "note_on", "time": 59, "note": 58, "velocity": 94, "channel": 0}, {"type": "note_off", "time": 97, "note": 58, "velocity": 94, "channel": 0}, {"type": "note_on", "time": 92, "note": 60, "velocity": 99, "channel": 0}, {"type": "note_off", "time": 90, "note": 60, "velocity": 99, "channel": 0}, {"type": "note_on", "time": 8, "note": 62, "velocity": 111, "channel": 0}, {"type": "note_off", "time": 187, "note": 62, "velocity": 111, "channel": 0}, {"type": "note_on", "time": 12, "note": 63, "velocity": 110, "channel": 0}, {"type": "note_off", "time": 215, "note": 63, "velocity": 110, "channel": 0}, {"type": "note_on", "time": 499, "note": 56, "velocity": 102, "channel": 0}, {"type": "note_off", "time": 77, "note": 56, "velocity": 102, "channel": 0}, {"type": "note_on", "time": 7, "note": 57, "velocity": 100, "channel": 0}, {"type": "note_off", "time": 62, "note": 57, "velocity": 100, "channel": 0}, {"type": "note_on", "time": 8, "note": 59, "velocity": 104, "channel": 0}, {"type": "note_off", "time": 71, "note": 59, "velocity": 104, "channel": 0}, {"type": "note_on", "time": 5, "note": 60, "velocity": 105, "channel": 0}, {"type": "note_off", "time": 93, "note": 60, "velocity": 105, "channel": 0}, {"type": "note_on", "time": 8, "note": 63, "velocity": 102, "channel": 0}, {"type": "note_off", "time": 71, "note": 63, "velocity": 102, "channel": 0}, {"type": "note_on", "time": 17, "note": 67, "velocity": 113, "channel": 0}, {"type": "note_off", "time": 102, "note": 67, "velocity": 113, "channel": 0}, {"type": "note_on", "time": 8, "note": 64, "velocity": 104, "channel": 0}, {"type": "note_off", "time": 62, "note": 64, "velocity": 104, "channel": 0}, {"type": "note_on", "time": 8, "note": 66, "velocity": 96, "channel": 0}, {"type": "note_off", "time": 76, "note": 66, "velocity": 96, "channel": 0}, {"type": "note_on", "time": 11, "note": 69, "velocity": 112, "channel": 0}, {"type": "note_off", "time": 113, "note": 69, "velocity": 112, "channel": 0}, {"type": "note_on", "time": 8, "note": 62, "velocity": 101, "channel": 0}, {"type": "note_off", "time": 73, "note": 62, "velocity": 101, "channel": 0}, {"type": "note_on", "time": 13, "note": 61, "velocity": 104, "channel": 0}, {"type": "note_off", "time": 85, "note": 61, "velocity": 104, "channel": 0}, {"type": "note_on", "time": 17, "note": 60, "velocity": 99, "channel": 0}, {"type": "note_off", "time": 87, "note": 60, "velocity": 99, "channel": 0}, {"type": "note_on", "time": 15, "note": 57, "velocity": 91, "channel": 0}, {"type": "note_off", "time": 73, "note": 57, "velocity": 91, "channel": 0}, {"type": "note_on", "time": 11, "note": 59, "velocity": 95, "channel": 0}, {"type": "note_off", "time": 76, "note": 59, "velocity": 95, "channel": 0}, {"type": "note_on", "time": 5, "note": 64, "velocity": 111, "channel": 0}, {"type": "note_off", "time": 109, "note": 64, "velocity": 111, "channel": 0}, {"type": "note_on", "time": 21, "note": 62, "velocity": 108, "channel": 0}, {"type": "note_off", "time": 67, "note": 62, "velocity": 108, "channel": 0}, {"type": "note_on", "time": 5, "note": 63, "velocity": 101, "channel": 0}, {"type": "note_off", "time": 77, "note": 63, "velocity": 101, "channel": 0}, {"type": "note_on", "time": 6, "note": 62, "velocity": 109, "channel": 0}, {"type": "note_off", "time": 79, "note": 62, "velocity": 109, "channel": 0}, {"type": "note_on", "time": 17, "note": 61, "velocity": 105, "channel": 0}, {"type": "note_off", "time": 96, "note": 61, "velocity": 105, "channel": 0}, {"type": "note_on", "time": 14, "note": 58, "velocity": 96, "channel": 0}, {"type": "note_off", "time": 82, "note": 58, "velocity": 96, "channel": 0}, {"type": "note_on", "time": 25, "note": 56, "velocity": 104, "channel": 0}, {"type": "note_off", "time": 76, "note": 56, "velocity": 104, "channel": 0}, {"type": "note_on", "time": 11, "note": 53, "velocity": 100, "channel": 0}, {"type": "note_off", "time": 75, "note": 53, "velocity": 100, "channel": 0}, {"type": "note_on", "time": 27, "note": 50, "velocity": 99, "channel": 0}, {"type": "note_off", "time": 53, "note": 50, "velocity": 99, "channel": 0}, {"type": "note_on", "time": 7, "note": 52, "velocity": 101, "channel": 0}, {"type": "note_off", "time": 145, "note": 52, "velocity": 101, "channel": 0}, {"type": "note_on", "time": 17, "note": 54, "velocity": 107, "channel": 0}, {"type": "note_off", "time": 159, "note": 54, "velocity": 107, "channel": 0}, {"type": "note_on", "time": 39, "note": 55, "velocity": 101, "channel": 0}, {"type": "note_off", "time": 153, "note": 55, "velocity": 101, "channel": 0}, {"type": "note_on", "time": 19, "note": 57, "velocity": 104, "channel": 0}, {"type": "note_off", "time": 190, "note": 57, "velocity": 104, "channel": 0}, {"type": "note_on", "time": 8, "note": 59, "velocity": 104, "channel": 0}, {"type": "note_off", "time": 139, "note": 59, "velocity": 104, "channel": 0}, {"type": "note_on", "time": 25, "note": 60, "velocity": 102, "channel": 0}, {"type": "note_off", "time": 213, "note": 60, "velocity": 102, "channel": 0}, {"type": "note_on", "time": 8, "note": 62, "velocity": 107, "channel": 0}, {"type": "note_off", "time": 196, "note": 62, "velocity": 107, "channel": 0}, {"type": "note_on", "time": 22, "note": 64, "velocity": 100, "channel": 0}, {"type": "note_off", "time": 176, "note": 64, "velocity": 100, "channel": 0}, {"type": "note_on", "time": 5, "note": 66, "velocity": 105, "channel": 0}, {"type": "note_off", "time": 184, "note": 66, "velocity": 105, "channel": 0}, {"type": "note_on", "time": 25, "note": 67, "velocity": 106, "channel": 0}, {"type": "note_off", "time": 163, "note": 67, "velocity": 106, "channel": 0}, {"type": "note_on", "time": 18, "note": 69, "velocity": 108, "channel": 0}, {"type": "note_off", "time": 127, "note": 69, "velocity": 108, "channel": 0}, {"type": "note_on", "time": 34, "note": 71, "velocity": 98, "channel": 0}, {"type": "note_off", "time": 187, "note": 71, "velocity": 98, "channel": 0}, {"type": "note_on", "time": 11, "note": 72, "velocity": 101, "channel": 0}, {"type": "note_off", "time": 159, "note": 72, "velocity": 101, "channel": 0}, {"type": "note_on", "time": 19, "note": 73, "velocity": 108, "channel": 0}, {"type": "note_on", "time": 196, "note": 74, "velocity": 101, "channel": 0}, {"type": "note_off", "time": 0, "note": 73, "velocity": 108, "channel": 0}, {"type": "note_off", "time": 187, "note": 74, "velocity": 101, "channel": 0}, {"type": "note_on", "time": 19, "note": 71, "velocity": 109, "channel": 0}, {"type": "note_off", "time": 127, "note": 71, "velocity": 109, "channel": 0}, {"type": "note_on", "time": 65, "note": 69, "velocity": 100, "channel": 0}, {"type": "note_off", "time": 159, "note": 69, "velocity": 100, "channel": 0}, {"type": "note_on", "time": 8, "note": 67, "velocity": 111, "channel": 0}, {"type": "note_off", "time": 141, "note": 67, "velocity": 111, "channel": 0}, {"type": "note_on", "time": 54, "note": 66, "velocity": 100, "channel": 0}, {"type": "note_off", "time": 250, "note": 66, "velocity": 100, "channel": 0}, {"type": "note_on", "time": 155, "note": 74, "velocity": 111, "channel": 0}, {"type": "note_off", "time": 71, "note": 74, "velocity": 111, "channel": 0}, {"type": "note_on", "time": 15, "note": 76, "velocity": 103, "channel": 0}, {"type": "note_off", "time": 155, "note": 76, "velocity": 103, "channel": 0}, {"type": "note_on", "time": 19, "note": 75, "velocity": 99, "channel": 0}, {"type": "note_off", "time": 279, "note": 75, "velocity": 99, "channel": 0}, {"type": "note_on", "time": 215, "note": 75, "velocity": 108, "channel": 0}, {"type": "note_off", "time": 91, "note": 75, "velocity": 108, "channel": 0}, {"type": "note_on", "time": 36, "note": 76, "velocity": 103, "channel": 0}, {"type": "note_off", "time": 122, "note": 76, "velocity": 103, "channel": 0}, {"type": "note_on", "time": 17, "note": 78, "velocity": 100, "channel": 0}, {"type": "note_off", "time": 109, "note": 78, "velocity": 100, "channel": 0}, {"type": "note_on", "time": 51, "note": 79, "velocity": 109, "channel": 0}, {"type": "note_off", "time": 51, "note": 79, "velocity": 109, "channel": 0}, {"type": "note_on", "time": 18, "note": 80, "velocity": 97, "channel": 0}, {"type": "note_off", "time": 193, "note": 80, "velocity": 97, "channel": 0}, {"type": "note_on", "time": 77, "note": 71, "velocity": 103, "channel": 0}, {"type": "note_off", "time": 85, "note": 71, "velocity": 103, "channel": 0}, {"type": "note_on", "time": 33, "note": 73, "velocity": 102, "channel": 0}, {"type": "note_off", "time": 89, "note": 73, "velocity": 102, "channel": 0}, {"type": "note_on", "time": 47, "note": 71, "velocity": 106, "channel": 0}, {"type": "note_off", "time": 285, "note": 71, "velocity": 106, "channel": 0}, {"type": "note_on", "time": 219, "note": 71, "velocity": 105, "channel": 0}, {"type": "note_off", "time": 91, "note": 71, "velocity": 105, "channel": 0}, {"type": "note_on", "time": 1, "note": 70, "velocity": 114, "channel": 0}, {"type": "note_off", "time": 115, "note": 70, "velocity": 114, "channel": 0}, {"type": "note_on", "time": 9, "note": 69, "velocity": 111, "channel": 0}, {"type": "note_off", "time": 103, "note": 69, "velocity": 111, "channel": 0}, {"type": "note_on", "time": 49, "note": 68, "velocity": 100, "channel": 0}, {"type": "note_off", "time": 137, "note": 68, "velocity": 100, "channel": 0}, {"type": "note_on", "time": 36, "note": 67, "velocity": 107, "channel": 0}, {"type": "note_off", "time": 96, "note": 67, "velocity": 107, "channel": 0}, {"type": "note_on", "time": 11, "note": 64, "velocity": 101, "channel": 0}, {"type": "note_off", "time": 88, "note": 64, "velocity": 101, "channel": 0}, {"type": "note_on", "time": 17, "note": 63, "velocity": 96, "channel": 0}, {"type": "note_off", "time": 82, "note": 63, "velocity": 96, "channel": 0}, {"type": "note_on", "time": 19, "note": 61, "velocity": 101, "channel": 0}, {"type": "note_off", "time": 131, "note": 61, "velocity": 101, "channel": 0}, {"type": "note_on", "time": 50, "note": 59, "velocity": 108, "channel": 0}, {"type": "note_off", "time": 113, "note": 59, "velocity": 108, "channel": 0}, {"type": "note_on", "time": 19, "note": 58, "velocity": 96, "channel": 0}, {"type": "note_off", "time": 59, "note": 58, "velocity": 96, "channel": 0}, {"type": "note_on", "time": 5, "note": 54, "velocity": 106, "channel": 0}, {"type": "note_off", "time": 93, "note": 54, "velocity": 106, "channel": 0}, {"type": "note_on", "time": 6, "note": 57, "velocity": 98, "channel": 0}, {"type": "note_off", "time": 57, "note": 57, "velocity": 98, "channel": 0}, {"type": "note_on", "time": 29, "note": 60, "velocity": 92, "channel": 0}, {"type": "note_off", "time": 75, "note": 60, "velocity": 92, "channel": 0}, {"type": "note_on", "time": 2, "note": 65, "velocity": 106, "channel": 0}, {"type": "note_off", "time": 122, "note": 65, "velocity": 106, "channel": 0}, {"type": "note_on", "time": 156, "note": 52, "velocity": 98, "channel": 0}, {"type": "note_off", "time": 111, "note": 52, "velocity": 98, "channel": 0}, {"type": "note_on", "time": 85, "note": 56, "velocity": 106, "channel": 0}, {"type": "note_off", "time": 57, "note": 56, "velocity": 106, "channel": 0}, {"type": "note_on", "time": 5, "note": 59, "velocity": 101, "channel": 0}, {"type": "note_off", "time": 119, "note": 59, "velocity": 101, "channel": 0}, {"type": "note_on", "time": 7, "note": 56, "velocity": 96, "channel": 0}, {"type": "note_off", "time": 49, "note": 56, "velocity": 96, "channel": 0}, {"type": "note_on", "time": 19, "note": 58, "velocity": 95, "channel": 0}, {"type": "note_off", "time": 108, "note": 58, "velocity": 95, "channel": 0}, {"type": "note_on", "time": 6, "note": 62, "velocity": 104, "channel": 0}, {"type": "note_off", "time": 71, "note": 62, "velocity": 104, "channel": 0}, {"type": "note_on", "time": 15, "note": 59, "velocity": 104, "channel": 0}, {"type": "note_off", "time": 116, "note": 59, "velocity": 104, "channel": 0}, {"type": "note_on", "time": 15, "note": 63, "velocity": 107, "channel": 0}, {"type": "note_off", "time": 121, "note": 63, "velocity": 107, "channel": 0}, {"type": "note_on", "time": 9, "note": 62, "velocity": 100, "channel": 0}, {"type": "note_off", "time": 68, "note": 62, "velocity": 100, "channel": 0}, {"type": "note_on", "time": 17, "note": 58, "velocity": 89, "channel": 0}, {"type": "note_off", "time": 64, "note": 58, "velocity": 89, "channel": 0}, {"type": "note_on", "time": 0, "note": 61, "velocity": 103, "channel": 0}, {"type": "note_off", "time": 103, "note": 61, "velocity": 103, "channel": 0}, {"type": "note_on", "time": 15, "note": 57, "velocity": 90, "channel": 0}, {"type": "note_off", "time": 47, "note": 57, "velocity": 90, "channel": 0}, {"type": "note_on", "time": 19, "note": 60, "velocity": 101, "channel": 0}, {"type": "note_off", "time": 105, "note": 60, "velocity": 101, "channel": 0}, {"type": "note_on", "time": 8, "note": 62, "velocity": 96, "channel": 0}, {"type": "note_off", "time": 76, "note": 62, "velocity": 96, "channel": 0}, {"type": "note_on", "time": 28, "note": 64, "velocity": 107, "channel": 0}, {"type": "note_off", "time": 93, "note": 64, "velocity": 107, "channel": 0}, {"type": "note_on", "time": 2, "note": 66, "velocity": 106, "channel": 0}, {"type": "note_off", "time": 102, "note": 66, "velocity": 106, "channel": 0}, {"type": "note_on", "time": 2, "note": 67, "velocity": 106, "channel": 0}, {"type": "note_off", "time": 51, "note": 67, "velocity": 106, "channel": 0}, {"type": "note_on", "time": 9, "note": 69, "velocity": 98, "channel": 0}, {"type": "note_off", "time": 77, "note": 69, "velocity": 98, "channel": 0}, {"type": "note_on", "time": 17, "note": 66, "velocity": 101, "channel": 0}, {"type": "note_off", "time": 99, "note": 66, "velocity": 101, "channel": 0}, {"type": "note_on", "time": 79, "note": 68, "velocity": 107, "channel": 0}, {"type": "note_off", "time": 292, "note": 68, "velocity": 107, "channel": 0}, {"type": "note_on", "time": 28, "note": 64, "velocity": 98, "channel": 0}, {"type": "note_off", "time": 88, "note": 64, "velocity": 98, "channel": 0}, {"type": "note_on", "time": 11, "note": 63, "velocity": 95, "channel": 0}, {"type": "note_off", "time": 56, "note": 63, "velocity": 95, "channel": 0}, {"type": "note_on", "time": 11, "note": 61, "velocity": 97, "channel": 0}, {"type": "note_off", "time": 85, "note": 61, "velocity": 97, "channel": 0}, {"type": "note_on", "time": 0, "note": 59, "velocity": 79, "channel": 0}, {"type": "note_off", "time": 108, "note": 59, "velocity": 79, "channel": 0}, {"type": "note_on", "time": 108, "note": 68, "velocity": 108, "channel": 0}, {"type": "note_off", "time": 213, "note": 68, "velocity": 108, "channel": 0}, {"type": "note_on", "time": 28, "note": 71, "velocity": 107, "channel": 0}, {"type": "note_off", "time": 133, "note": 71, "velocity": 107, "channel": 0}, {"type": "note_on", "time": 68, "note": 64, "velocity": 89, "channel": 0}, {"type": "note_off", "time": 68, "note": 64, "velocity": 89, "channel": 0}, {"type": "note_on", "time": 19, "note": 67, "velocity": 102, "channel": 0}, {"type": "note_off", "time": 261, "note": 67, "velocity": 102, "channel": 0}, {"type": "note_on", "time": 14, "note": 70, "velocity": 106, "channel": 0}, {"type": "note_off", "time": 81, "note": 70, "velocity": 106, "channel": 0}, {"type": "note_on", "time": 7, "note": 67, "velocity": 97, "channel": 0}, {"type": "note_off", "time": 77, "note": 67, "velocity": 97, "channel": 0}, {"type": "note_on", "time": 118, "note": 71, "velocity": 108, "channel": 0}, {"type": "note_off", "time": 247, "note": 71, "velocity": 108, "channel": 0}, {"type": "note_on", "time": 14, "note": 74, "velocity": 105, "channel": 0}, {"type": "note_off", "time": 116, "note": 74, "velocity": 105, "channel": 0}, {"type": "note_on", "time": 96, "note": 68, "velocity": 84, "channel": 0}, {"type": "note_off", "time": 65, "note": 68, "velocity": 84, "channel": 0}, {"type": "note_on", "time": 30, "note": 70, "velocity": 106, "channel": 0}, {"type": "note_off", "time": 230, "note": 70, "velocity": 106, "channel": 0}, {"type": "note_on", "time": 334, "note": 72, "velocity": 108, "channel": 0}, {"type": "note_off", "time": 69, "note": 72, "velocity": 108, "channel": 0}, {"type": "note_on", "time": 19, "note": 75, "velocity": 108, "channel": 0}, {"type": "note_off", "time": 83, "note": 75, "velocity": 108, "channel": 0}, {"type": "note_on", "time": 37, "note": 72, "velocity": 101, "channel": 0}, {"type": "note_off", "time": 56, "note": 72, "velocity": 101, "channel": 0}, {"type": "note_on", "time": 17, "note": 70, "velocity": 86, "channel": 0}, {"type": "note_off", "time": 71, "note": 70, "velocity": 86, "channel": 0}, {"type": "note_on", "time": 13, "note": 73, "velocity": 107, "channel": 0}, {"type": "note_off", "time": 79, "note": 73, "velocity": 107, "channel": 0}, {"type": "note_on", "time": 17, "note": 76, "velocity": 113, "channel": 0}, {"type": "note_off", "time": 116, "note": 76, "velocity": 113, "channel": 0}, {"type": "note_on", "time": 19, "note": 73, "velocity": 101, "channel": 0}, {"type": "note_off", "time": 62, "note": 73, "velocity": 101, "channel": 0}, {"type": "note_on", "time": 71, "note": 73, "velocity": 108, "channel": 0}, {"type": "note_off", "time": 73, "note": 73, "velocity": 108, "channel": 0}, {"type": "note_on", "time": 17, "note": 76, "velocity": 110, "channel": 0}, {"type": "note_off", "time": 116, "note": 76, "velocity": 110, "channel": 0}, {"type": "note_on", "time": 0, "note": 73, "velocity": 102, "channel": 0}, {"type": "note_off", "time": 89, "note": 73, "velocity": 102, "channel": 0}, {"type": "note_on", "time": 62, "note": 72, "velocity": 94, "channel": 0}, {"type": "note_off", "time": 88, "note": 72, "velocity": 94, "channel": 0}, {"type": "note_on", "time": 19, "note": 73, "velocity": 109, "channel": 0}, {"type": "note_off", "time": 88, "note": 73, "velocity": 109, "channel": 0}, {"type": "note_on", "time": 5, "note": 74, "velocity": 104, "channel": 0}, {"type": "note_off", "time": 93, "note": 74, "velocity": 104, "channel": 0}, {"type": "note_on", "time": 8, "note": 73, "velocity": 110, "channel": 0}, {"type": "note_off", "time": 105, "note": 73, "velocity": 110, "channel": 0}, {"type": "note_on", "time": 0, "note": 72, "velocity": 103, "channel": 0}, {"type": "note_off", "time": 79, "note": 72, "velocity": 103, "channel": 0}, {"type": "note_on", "time": 8, "note": 71, "velocity": 109, "channel": 0}, {"type": "note_off", "time": 105, "note": 71, "velocity": 109, "channel": 0}, {"type": "note_on", "time": 0, "note": 70, "velocity": 112, "channel": 0}, {"type": "note_off", "time": 76, "note": 70, "velocity": 112, "channel": 0}, {"type": "note_on", "time": 19, "note": 69, "velocity": 112, "channel": 0}, {"type": "note_off", "time": 93, "note": 69, "velocity": 112, "channel": 0}, {"type": "note_on", "time": 8, "note": 68, "velocity": 106, "channel": 0}, {"type": "note_off", "time": 93, "note": 68, "velocity": 106, "channel": 0}, {"type": "note_on", "time": 15, "note": 66, "velocity": 80, "channel": 0}, {"type": "note_off", "time": 57, "note": 66, "velocity": 80, "channel": 0}, {"type": "note_on", "time": 1, "note": 67, "velocity": 104, "channel": 0}, {"type": "note_off", "time": 83, "note": 67, "velocity": 104, "channel": 0}, {"type": "note_on", "time": 19, "note": 64, "velocity": 101, "channel": 0}, {"type": "note_off", "time": 77, "note": 64, "velocity": 101, "channel": 0}, {"type": "note_on", "time": 15, "note": 63, "velocity": 89, "channel": 0}, {"type": "note_off", "time": 81, "note": 63, "velocity": 89, "channel": 0}, {"type": "note_on", "time": 14, "note": 61, "velocity": 90, "channel": 0}, {"type": "note_on", "time": 73, "note": 60, "velocity": 86, "channel": 0}, {"type": "note_off", "time": 0, "note": 61, "velocity": 90, "channel": 0}, {"type": "note_off", "time": 82, "note": 60, "velocity": 86, "channel": 0}, {"type": "note_on", "time": 17, "note": 59, "velocity": 100, "channel": 0}, {"type": "note_off", "time": 91, "note": 59, "velocity": 100, "channel": 0}, {"type": "note_on", "time": 5, "note": 58, "velocity": 83, "channel": 0}, {"type": "note_off", "time": 35, "note": 58, "velocity": 83, "channel": 0}, {"type": "note_on", "time": 29, "note": 54, "velocity": 104, "channel": 0}, {"type": "note_off", "time": 79, "note": 54, "velocity": 104, "channel": 0}, {"type": "note_on", "time": 17, "note": 57, "velocity": 99, "channel": 0}, {"type": "note_off", "time": 99, "note": 57, "velocity": 99, "channel": 0}, {"type": "note_on", "time": 538, "note": 60, "velocity": 102, "channel": 0}, {"type": "note_off", "time": 111, "note": 60, "velocity": 102, "channel": 0}, {"type": "note_on", "time": 429, "note": 65, "velocity": 108, "channel": 0}, {"type": "note_off", "time": 141, "note": 65, "velocity": 108, "channel": 0}, {"type": "note_on", "time": 71, "note": 58, "velocity": 91, "channel": 0}, {"type": "note_off", "time": 156, "note": 58, "velocity": 91, "channel": 0}, {"type": "note_on", "time": 156, "note": 59, "velocity": 85, "channel": 0}, {"type": "note_off", "time": 82, "note": 59, "velocity": 85, "channel": 0}, {"type": "note_on", "time": 5, "note": 58, "velocity": 102, "channel": 0}, {"type": "note_off", "time": 88, "note": 58, "velocity": 102, "channel": 0}, {"type": "note_on", "time": 11, "note": 57, "velocity": 101, "channel": 0}, {"type": "note_off", "time": 65, "note": 57, "velocity": 101, "channel": 0}, {"type": "note_on", "time": 11, "note": 56, "velocity": 94, "channel": 0}, {"type": "note_off", "time": 71, "note": 56, "velocity": 94, "channel": 0}, {"type": "note_on", "time": 19, "note": 51, "velocity": 103, "channel": 0}, {"type": "note_off", "time": 48, "note": 51, "velocity": 103, "channel": 0}, {"type": "note_on", "time": 5, "note": 55, "velocity": 99, "channel": 0}, {"type": "note_off", "time": 90, "note": 55, "velocity": 99, "channel": 0}, {"type": "note_on", "time": 9, "note": 61, "velocity": 109, "channel": 0}, {"type": "note_off", "time": 103, "note": 61, "velocity": 109, "channel": 0}, {"type": "note_on", "time": 9, "note": 60, "velocity": 98, "channel": 0}, {"type": "note_off", "time": 59, "note": 60, "velocity": 98, "channel": 0}, {"type": "note_on", "time": 47, "note": 56, "velocity": 84, "channel": 0}, {"type": "note_off", "time": 39, "note": 56, "velocity": 84, "channel": 0}, {"type": "note_on", "time": 10, "note": 59, "velocity": 101, "channel": 0}, {"type": "note_off", "time": 85, "note": 59, "velocity": 101, "channel": 0}, {"type": "note_on", "time": 17, "note": 55, "velocity": 103, "channel": 0}, {"type": "note_off", "time": 76, "note": 55, "velocity": 103, "channel": 0}, {"type": "note_on", "time": 517, "note": 55, "velocity": 101, "channel": 0}, {"type": "note_off", "time": 82, "note": 55, "velocity": 101, "channel": 0}, {"type": "note_on", "time": 2, "note": 56, "velocity": 97, "channel": 0}, {"type": "note_off", "time": 73, "note": 56, "velocity": 97, "channel": 0}, {"type": "note_on", "time": 2, "note": 58, "velocity": 99, "channel": 0}, {"type": "note_off", "time": 76, "note": 58, "velocity": 99, "channel": 0}, {"type": "note_on", "time": 0, "note": 60, "velocity": 100, "channel": 0}, {"type": "note_off", "time": 113, "note": 60, "velocity": 100, "channel": 0}, {"type": "note_on", "time": 21, "note": 63, "velocity": 89, "channel": 0}, {"type": "note_off", "time": 51, "note": 63, "velocity": 89, "channel": 0}, {"type": "note_on", "time": 25, "note": 67, "velocity": 110, "channel": 0}, {"type": "note_off", "time": 65, "note": 67, "velocity": 110, "channel": 0}, {"type": "note_on", "time": 14, "note": 68, "velocity": 110, "channel": 0}, {"type": "note_off", "time": 76, "note": 68, "velocity": 110, "channel": 0}, {"type": "note_on", "time": 14, "note": 69, "velocity": 108, "channel": 0}, {"type": "note_off", "time": 99, "note": 69, "velocity": 108, "channel": 0}, {"type": "note_on", "time": 14, "note": 68, "velocity": 108, "channel": 0}, {"type": "note_off", "time": 85, "note": 68, "velocity": 108, "channel": 0}, {"type": "note_on", "time": 5, "note": 67, "velocity": 106, "channel": 0}, {"type": "note_off", "time": 76, "note": 67, "velocity": 106, "channel": 0}, {"type": "note_on", "time": 17, "note": 66, "velocity": 101, "channel": 0}, {"type": "note_off", "time": 88, "note": 66, "velocity": 101, "channel": 0}, {"type": "note_on", "time": 19, "note": 63, "velocity": 100, "channel": 0}, {"type": "note_off", "time": 73, "note": 63, "velocity": 100, "channel": 0}, {"type": "note_on", "time": 17, "note": 65, "velocity": 96, "channel": 0}, {"type": "note_off", "time": 139, "note": 65, "velocity": 96, "channel": 0}, {"type": "note_on", "time": 17, "note": 67, "velocity": 109, "channel": 0}, {"type": "note_off", "time": 62, "note": 67, "velocity": 109, "channel": 0}, {"type": "note_on", "time": 2, "note": 69, "velocity": 107, "channel": 0}, {"type": "note_off", "time": 122, "note": 69, "velocity": 107, "channel": 0}, {"type": "note_on", "time": 28, "note": 63, "velocity": 105, "channel": 0}, {"type": "note_off", "time": 99, "note": 63, "velocity": 105, "channel": 0}, {"type": "note_on", "time": 25, "note": 62, "velocity": 101, "channel": 0}, {"type": "note_off", "time": 110, "note": 62, "velocity": 101, "channel": 0}, {"type": "note_on", "time": 22, "note": 61, "velocity": 102, "channel": 0}, {"type": "note_off", "time": 136, "note": 61, "velocity": 102, "channel": 0}, {"type": "note_on", "time": 63, "note": 60, "velocity": 100, "channel": 0}, {"type": "note_off", "time": 231, "note": 60, "velocity": 100, "channel": 0}, {"type": "note_on", "time": 61, "note": 60, "velocity": 97, "channel": 0}, {"type": "note_off", "time": 57, "note": 60, "velocity": 97, "channel": 0}, {"type": "note_on", "time": 19, "note": 62, "velocity": 105, "channel": 0}, {"type": "note_off", "time": 75, "note": 62, "velocity": 105, "channel": 0}, {"type": "note_on", "time": 22, "note": 64, "velocity": 103, "channel": 0}, {"type": "note_off", "time": 73, "note": 64, "velocity": 103, "channel": 0}, {"type": "note_on", "time": 25, "note": 64, "velocity": 100, "channel": 0}, {"type": "note_off", "time": 62, "note": 64, "velocity": 100, "channel": 0}, {"type": "note_on", "time": 19, "note": 64, "velocity": 102, "channel": 0}, {"type": "note_off", "time": 85, "note": 64, "velocity": 102, "channel": 0}, {"type": "note_on", "time": 63, "note": 65, "velocity": 108, "channel": 0}, {"type": "note_off", "time": 45, "note": 65, "velocity": 108, "channel": 0}, {"type": "note_on", "time": 32, "note": 67, "velocity": 98, "channel": 0}, {"type": "note_off", "time": 68, "note": 67, "velocity": 98, "channel": 0}, {"type": "note_on", "time": 8, "note": 67, "velocity": 96, "channel": 0}, {"type": "note_off", "time": 82, "note": 67, "velocity": 96, "channel": 0}, {"type": "note_on", "time": 5, "note": 67, "velocity": 101, "channel": 0}, {"type": "note_off", "time": 79, "note": 67, "velocity": 101, "channel": 0}, {"type": "note_on", "time": 12, "note": 70, "velocity": 110, "channel": 0}, {"type": "note_off", "time": 69, "note": 70, "velocity": 110, "channel": 0}, {"type": "note_on", "time": 47, "note": 72, "velocity": 98, "channel": 0}, {"type": "note_off", "time": 76, "note": 72, "velocity": 98, "channel": 0}, {"type": "note_on", "time": 11, "note": 72, "velocity": 97, "channel": 0}, {"type": "note_off", "time": 82, "note": 72, "velocity": 97, "channel": 0}, {"type": "note_on", "time": 8, "note": 72, "velocity": 107, "channel": 0}, {"type": "note_off", "time": 76, "note": 72, "velocity": 107, "channel": 0}, {"type": "note_on", "time": 40, "note": 68, "velocity": 99, "channel": 0}, {"type": "note_off", "time": 197, "note": 68, "velocity": 99, "channel": 0}, {"type": "note_on", "time": 25, "note": 68, "velocity": 99, "channel": 0}, {"type": "note_off", "time": 115, "note": 68, "velocity": 99, "channel": 0}, {"type": "note_on", "time": 49, "note": 72, "velocity": 109, "channel": 0}, {"type": "note_off", "time": 45, "note": 72, "velocity": 109, "channel": 0}, {"type": "note_on", "time": 44, "note": 75, "velocity": 105, "channel": 0}, {"type": "note_off", "time": 62, "note": 75, "velocity": 105, "channel": 0}, {"type": "note_on", "time": 14, "note": 75, "velocity": 99, "channel": 0}, {"type": "note_off", "time": 82, "note": 75, "velocity": 99, "channel": 0}, {"type": "note_on", "time": 25, "note": 75, "velocity": 110, "channel": 0}, {"type": "note_off", "time": 110, "note": 75, "velocity": 110, "channel": 0}, {"type": "note_on", "time": 2, "note": 74, "velocity": 109, "channel": 0}, {"type": "note_off", "time": 99, "note": 74, "velocity": 109, "channel": 0}, {"type": "note_on", "time": 22, "note": 74, "velocity": 101, "channel": 0}, {"type": "note_off", "time": 96, "note": 74, "velocity": 101, "channel": 0}, {"type": "note_on", "time": 45, "note": 74, "velocity": 105, "channel": 0}, {"type": "note_off", "time": 99, "note": 74, "velocity": 105, "channel": 0}, {"type": "note_on", "time": 42, "note": 65, "velocity": 86, "channel": 0}, {"type": "note_off", "time": 77, "note": 65, "velocity": 86, "channel": 0}, {"type": "note_on", "time": 23, "note": 67, "velocity": 86, "channel": 0}, {"type": "note_off", "time": 95, "note": 67, "velocity": 86, "channel": 0}, {"type": "note_on", "time": 43, "note": 67, "velocity": 96, "channel": 0}, {"type": "note_off", "time": 101, "note": 67, "velocity": 96, "channel": 0}, {"type": "note_on", "time": 17, "note": 65, "velocity": 103, "channel": 0}, {"type": "note_off", "time": 85, "note": 65, "velocity": 103, "channel": 0}, {"type": "note_on", "time": 5, "note": 65, "velocity": 99, "channel": 0}, {"type": "note_off", "time": 90, "note": 65, "velocity": 99, "channel": 0}, {"type": "note_on", "time": 17, "note": 65, "velocity": 91, "channel": 0}, {"type": "note_off", "time": 119, "note": 65, "velocity": 91, "channel": 0}, {"type": "note_on", "time": 25, "note": 70, "velocity": 113, "channel": 0}, {"type": "note_off", "time": 105, "note": 70, "velocity": 113, "channel": 0}, {"type": "note_on", "time": 19, "note": 70, "velocity": 105, "channel": 0}, {"type": "note_off", "time": 119, "note": 70, "velocity": 105, "channel": 0}, {"type": "note_on", "time": 28, "note": 70, "velocity": 94, "channel": 0}, {"type": "note_off", "time": 85, "note": 70, "velocity": 94, "channel": 0}, {"type": "note_on", "time": 52, "note": 65, "velocity": 108, "channel": 0}, {"type": "note_off", "time": 65, "note": 65, "velocity": 108, "channel": 0}, {"type": "note_on", "time": 29, "note": 67, "velocity": 103, "channel": 0}, {"type": "note_off", "time": 76, "note": 67, "velocity": 103, "channel": 0}, {"type": "note_on", "time": 8, "note": 67, "velocity": 93, "channel": 0}, {"type": "note_off", "time": 73, "note": 67, "velocity": 93, "channel": 0}, {"type": "note_on", "time": 14, "note": 67, "velocity": 105, "channel": 0}, {"type": "note_off", "time": 79, "note": 67, "velocity": 105, "channel": 0}, {"type": "note_on", "time": 31, "note": 63, "velocity": 108, "channel": 0}, {"type": "note_off", "time": 197, "note": 63, "velocity": 108, "channel": 0}, {"type": "note_on", "time": 25, "note": 63, "velocity": 97, "channel": 0}, {"type": "note_off", "time": 101, "note": 63, "velocity": 97, "channel": 0}, {"type": "note_on", "time": 25, "note": 64, "velocity": 108, "channel": 0}, {"type": "note_off", "time": 87, "note": 64, "velocity": 108, "channel": 0}, {"type": "note_on", "time": 11, "note": 65, "velocity": 106, "channel": 0}, {"type": "note_off", "time": 39, "note": 65, "velocity": 106, "channel": 0}, {"type": "note_on", "time": 11, "note": 66, "velocity": 95, "channel": 0}, {"type": "note_off", "time": 57, "note": 66, "velocity": 95, "channel": 0}, {"type": "note_on", "time": 53, "note": 66, "velocity": 101, "channel": 0}, {"type": "note_off", "time": 95, "note": 66, "velocity": 101, "channel": 0}, {"type": "note_on", "time": 51, "note": 69, "velocity": 111, "channel": 0}, {"type": "note_off", "time": 111, "note": 69, "velocity": 111, "channel": 0}, {"type": "note_on", "time": 41, "note": 69, "velocity": 95, "channel": 0}, {"type": "note_off", "time": 65, "note": 69, "velocity": 95, "channel": 0}, {"type": "note_on", "time": 23, "note": 69, "velocity": 96, "channel": 0}, {"type": "note_off", "time": 65, "note": 69, "velocity": 96, "channel": 0}, {"type": "note_on", "time": 89, "note": 60, "velocity": 101, "channel": 0}, {"type": "note_off", "time": 59, "note": 60, "velocity": 101, "channel": 0}, {"type": "note_on", "time": 11, "note": 62, "velocity": 98, "channel": 0}, {"type": "note_off", "time": 90, "note": 62, "velocity": 98, "channel": 0}, {"type": "note_on", "time": 22, "note": 62, "velocity": 90, "channel": 0}, {"type": "note_off", "time": 39, "note": 62, "velocity": 90, "channel": 0}, {"type": "note_on", "time": 25, "note": 62, "velocity": 91, "channel": 0}, {"type": "note_off", "time": 71, "note": 62, "velocity": 91, "channel": 0}, {"type": "note_on", "time": 27, "note": 69, "velocity": 103, "channel": 0}, {"type": "note_off", "time": 63, "note": 69, "velocity": 103, "channel": 0}, {"type": "note_on", "time": 25, "note": 71, "velocity": 103, "channel": 0}, {"type": "note_off", "time": 113, "note": 71, "velocity": 103, "channel": 0}, {"type": "note_on", "time": 22, "note": 71, "velocity": 98, "channel": 0}, {"type": "note_off", "time": 56, "note": 71, "velocity": 98, "channel": 0}, {"type": "note_on", "time": 28, "note": 71, "velocity": 103, "channel": 0}, {"type": "note_off", "time": 79, "note": 71, "velocity": 103, "channel": 0}, {"type": "note_on", "time": 5, "note": 70, "velocity": 105, "channel": 0}, {"type": "note_off", "time": 65, "note": 70, "velocity": 105, "channel": 0}, {"type": "note_on", "time": 34, "note": 72, "velocity": 102, "channel": 0}, {"type": "note_off", "time": 54, "note": 72, "velocity": 102, "channel": 0}, {"type": "note_on", "time": 25, "note": 72, "velocity": 90, "channel": 0}, {"type": "note_off", "time": 73, "note": 72, "velocity": 90, "channel": 0}, {"type": "note_on", "time": 8, "note": 72, "velocity": 100, "channel": 0}, {"type": "note_off", "time": 65, "note": 72, "velocity": 100, "channel": 0}, {"type": "note_on", "time": 51, "note": 72, "velocity": 107, "channel": 0}, {"type": "note_off", "time": 65, "note": 72, "velocity": 107, "channel": 0}, {"type": "note_on", "time": 13, "note": 74, "velocity": 104, "channel": 0}, {"type": "note_off", "time": 63, "note": 74, "velocity": 104, "channel": 0}, {"type": "note_on", "time": 79, "note": 62, "velocity": 92, "channel": 0}, {"type": "note_off", "time": 167, "note": 62, "velocity": 92, "channel": 0}, {"type": "note_on", "time": 13, "note": 61, "velocity": 86, "channel": 0}, {"type": "note_off", "time": 163, "note": 61, "velocity": 86, "channel": 0}, {"type": "note_on", "time": 577, "note": 72, "velocity": 110, "channel": 0}, {"type": "note_off", "time": 45, "note": 72, "velocity": 110, "channel": 0}, {"type": "note_on", "time": 13, "note": 74, "velocity": 103, "channel": 0}, {"type": "note_off", "time": 125, "note": 74, "velocity": 103, "channel": 0}, {"type": "note_on", "time": 31, "note": 74, "velocity": 111, "channel": 0}, {"type": "note_off", "time": 165, "note": 74, "velocity": 111, "channel": 0}, {"type": "note_on", "time": 15, "note": 75, "velocity": 108, "channel": 0}, {"type": "note_off", "time": 151, "note": 75, "velocity": 108, "channel": 0}, {"type": "note_on", "time": 89, "note": 63, "velocity": 95, "channel": 0}, {"type": "note_off", "time": 99, "note": 63, "velocity": 95, "channel": 0}, {"type": "note_on", "time": 28, "note": 62, "velocity": 83, "channel": 0}, {"type": "note_off", "time": 176, "note": 62, "velocity": 83, "channel": 0}, {"type": "note_on", "time": 576, "note": 75, "velocity": 106, "channel": 0}, {"type": "note_off", "time": 116, "note": 75, "velocity": 106, "channel": 0}, {"type": "note_on", "time": 17, "note": 73, "velocity": 93, "channel": 0}, {"type": "note_off", "time": 62, "note": 73, "velocity": 93, "channel": 0}, {"type": "note_on", "time": 14, "note": 75, "velocity": 108, "channel": 0}, {"type": "note_off", "time": 167, "note": 75, "velocity": 108, "channel": 0}, {"type": "note_on", "time": 8, "note": 76, "velocity": 113, "channel": 0}, {"type": "note_off", "time": 136, "note": 76, "velocity": 113, "channel": 0}, {"type": "note_on", "time": 62, "note": 64, "velocity": 93, "channel": 0}, {"type": "note_off", "time": 105, "note": 64, "velocity": 93, "channel": 0}, {"type": "note_on", "time": 25, "note": 63, "velocity": 89, "channel": 0}, {"type": "note_off", "time": 85, "note": 63, "velocity": 89, "channel": 0}, {"type": "note_on", "time": 345, "note": 76, "velocity": 114, "channel": 0}, {"type": "note_off", "time": 95, "note": 76, "velocity": 114, "channel": 0}, {"type": "note_on", "time": 75, "note": 76, "velocity": 115, "channel": 0}, {"type": "note_off", "time": 139, "note": 76, "velocity": 115, "channel": 0}, {"type": "note_on", "time": 76, "note": 76, "velocity": 100, "channel": 0}, {"type": "note_off", "time": 82, "note": 76, "velocity": 100, "channel": 0}, {"type": "note_on", "time": 9, "note": 78, "velocity": 103, "channel": 0}, {"type": "note_off", "time": 161, "note": 78, "velocity": 103, "channel": 0}, {"type": "note_on", "time": 65, "note": 66, "velocity": 92, "channel": 0}, {"type": "note_off", "time": 131, "note": 66, "velocity": 92, "channel": 0}, {"type": "note_on", "time": 89, "note": 79, "velocity": 104, "channel": 0}, {"type": "note_off", "time": 79, "note": 79, "velocity": 104, "channel": 0}, {"type": "note_on", "time": 9, "note": 80, "velocity": 99, "channel": 0}, {"type": "note_off", "time": 269, "note": 80, "velocity": 99, "channel": 0}, {"type": "note_on", "time": 249, "note": 78, "velocity": 109, "channel": 0}, {"type": "note_off", "time": 122, "note": 78, "velocity": 109, "channel": 0}, {"type": "note_on", "time": 0, "note": 76, "velocity": 114, "channel": 0}, {"type": "note_off", "time": 119, "note": 76, "velocity": 114, "channel": 0}, {"type": "note_on", "time": 11, "note": 75, "velocity": 103, "channel": 0}, {"type": "note_off", "time": 76, "note": 75, "velocity": 103, "channel": 0}, {"type": "note_on", "time": 5, "note": 71, "velocity": 81, "channel": 0}, {"type": "note_off", "time": 56, "note": 71, "velocity": 81, "channel": 0}, {"type": "note_on", "time": 3, "note": 74, "velocity": 107, "channel": 0}, {"type": "note_off", "time": 111, "note": 74, "velocity": 107, "channel": 0}, {"type": "note_on", "time": 80, "note": 73, "velocity": 106, "channel": 0}, {"type": "note_off", "time": 110, "note": 73, "velocity": 106, "channel": 0}, {"type": "note_on", "time": 71, "note": 72, "velocity": 95, "channel": 0}, {"type": "note_off", "time": 88, "note": 72, "velocity": 95, "channel": 0}, {"type": "note_on", "time": 0, "note": 68, "velocity": 113, "channel": 0}, {"type": "note_off", "time": 110, "note": 68, "velocity": 113, "channel": 0}, {"type": "note_on", "time": 2, "note": 67, "velocity": 101, "channel": 0}, {"type": "note_off", "time": 79, "note": 67, "velocity": 101, "channel": 0}, {"type": "note_on", "time": 3, "note": 64, "velocity": 97, "channel": 0}, {"type": "note_off", "time": 93, "note": 64, "velocity": 97, "channel": 0}, {"type": "note_on", "time": 1, "note": 63, "velocity": 97, "channel": 0}, {"type": "note_off", "time": 76, "note": 63, "velocity": 97, "channel": 0}, {"type": "note_on", "time": 11, "note": 61, "velocity": 99, "channel": 0}, {"type": "note_off", "time": 73, "note": 61, "velocity": 99, "channel": 0}, {"type": "note_on", "time": 22, "note": 60, "velocity": 104, "channel": 0}, {"type": "note_off", "time": 96, "note": 60, "velocity": 104, "channel": 0}, {"type": "note_on", "time": 5, "note": 59, "velocity": 105, "channel": 0}, {"type": "note_off", "time": 127, "note": 59, "velocity": 105, "channel": 0}, {"type": "note_on", "time": 14, "note": 58, "velocity": 101, "channel": 0}, {"type": "note_off", "time": 65, "note": 58, "velocity": 101, "channel": 0}, {"type": "note_on", "time": 17, "note": 54, "velocity": 94, "channel": 0}, {"type": "note_off", "time": 62, "note": 54, "velocity": 94, "channel": 0}, {"type": "note_on", "time": 42, "note": 57, "velocity": 99, "channel": 0}, {"type": "note_off", "time": 258, "note": 57, "velocity": 99, "channel": 0}, {"type": "note_on", "time": 11, "note": 60, "velocity": 105, "channel": 0}, {"type": "note_off", "time": 141, "note": 60, "velocity": 105, "channel": 0}, {"type": "note_on", "time": 73, "note": 61, "velocity": 97, "channel": 0}, {"type": "note_off", "time": 275, "note": 61, "velocity": 97, "channel": 0}, {"type": "note_on", "time": 20, "note": 63, "velocity": 100, "channel": 0}, {"type": "note_off", "time": 129, "note": 63, "velocity": 100, "channel": 0}, {"type": "note_on", "time": 125, "note": 65, "velocity": 102, "channel": 0}, {"type": "note_off", "time": 295, "note": 65, "velocity": 102, "channel": 0}, {"type": "note_on", "time": 58, "note": 55, "velocity": 92, "channel": 0}, {"type": "note_off", "time": 209, "note": 55, "velocity": 92, "channel": 0}, {"type": "note_on", "time": 19, "note": 56, "velocity": 111, "channel": 0}, {"type": "note_off", "time": 83, "note": 56, "velocity": 111, "channel": 0}, {"type": "note_on", "time": 59, "note": 58, "velocity": 101, "channel": 0}, {"type": "note_off", "time": 121, "note": 58, "velocity": 101, "channel": 0}, {"type": "note_on", "time": 87, "note": 60, "velocity": 103, "channel": 0}, {"type": "note_off", "time": 210, "note": 60, "velocity": 103, "channel": 0}, {"type": "note_on", "time": 31, "note": 61, "velocity": 105, "channel": 0}, {"type": "note_off", "time": 99, "note": 61, "velocity": 105, "channel": 0}, {"type": "note_on", "time": 51, "note": 63, "velocity": 97, "channel": 0}, {"type": "note_off", "time": 227, "note": 63, "velocity": 97, "channel": 0}, {"type": "note_on", "time": 529, "note": 68, "velocity": 109, "channel": 0}, {"type": "note_off", "time": 99, "note": 68, "velocity": 109, "channel": 0}, {"type": "note_on", "time": 12, "note": 65, "velocity": 103, "channel": 0}, {"type": "note_off", "time": 82, "note": 65, "velocity": 103, "channel": 0}, {"type": "note_on", "time": 2, "note": 63, "velocity": 100, "channel": 0}, {"type": "note_off", "time": 102, "note": 63, "velocity": 100, "channel": 0}, {"type": "note_on", "time": 17, "note": 61, "velocity": 90, "channel": 0}, {"type": "note_off", "time": 79, "note": 61, "velocity": 90, "channel": 0}, {"type": "note_on", "time": 14, "note": 68, "velocity": 107, "channel": 0}, {"type": "note_off", "time": 105, "note": 68, "velocity": 107, "channel": 0}, {"type": "note_on", "time": 7, "note": 64, "velocity": 100, "channel": 0}, {"type": "note_off", "time": 87, "note": 64, "velocity": 100, "channel": 0}, {"type": "note_on", "time": 24, "note": 63, "velocity": 97, "channel": 0}, {"type": "note_off", "time": 68, "note": 63, "velocity": 97, "channel": 0}, {"type": "note_on", "time": 8, "note": 61, "velocity": 90, "channel": 0}, {"type": "note_off", "time": 93, "note": 61, "velocity": 90, "channel": 0}, {"type": "note_on", "time": 8, "note": 67, "velocity": 104, "channel": 0}, {"type": "note_off", "time": 90, "note": 67, "velocity": 104, "channel": 0}, {"type": "note_on", "time": 11, "note": 63, "velocity": 107, "channel": 0}, {"type": "note_off", "time": 89, "note": 63, "velocity": 107, "channel": 0}, {"type": "note_on", "time": 15, "note": 62, "velocity": 101, "channel": 0}, {"type": "note_off", "time": 68, "note": 62, "velocity": 101, "channel": 0}, {"type": "note_on", "time": 11, "note": 60, "velocity": 97, "channel": 0}, {"type": "note_off", "time": 82, "note": 60, "velocity": 97, "channel": 0}, {"type": "note_on", "time": 18, "note": 67, "velocity": 106, "channel": 0}, {"type": "note_off", "time": 97, "note": 67, "velocity": 106, "channel": 0}, {"type": "note_on", "time": 53, "note": 67, "velocity": 107, "channel": 0}, {"type": "note_off", "time": 81, "note": 67, "velocity": 107, "channel": 0}, {"type": "note_on", "time": 34, "note": 63, "velocity": 110, "channel": 0}, {"type": "note_off", "time": 93, "note": 63, "velocity": 110, "channel": 0}, {"type": "note_on", "time": 2, "note": 62, "velocity": 106, "channel": 0}, {"type": "note_off", "time": 72, "note": 62, "velocity": 106, "channel": 0}, {"type": "note_on", "time": 0, "note": 60, "velocity": 93, "channel": 0}, {"type": "note_off", "time": 77, "note": 60, "velocity": 93, "channel": 0}, {"type": "note_on", "time": 187, "note": 68, "velocity": 109, "channel": 0}, {"type": "note_off", "time": 108, "note": 68, "velocity": 109, "channel": 0}, {"type": "note_on", "time": 8, "note": 65, "velocity": 106, "channel": 0}, {"type": "note_off", "time": 82, "note": 65, "velocity": 106, "channel": 0}, {"type": "note_on", "time": 14, "note": 63, "velocity": 102, "channel": 0}, {"type": "note_off", "time": 85, "note": 63, "velocity": 102, "channel": 0}, {"type": "note_on", "time": 9, "note": 62, "velocity": 91, "channel": 0}, {"type": "note_off", "time": 59, "note": 62, "velocity": 91, "channel": 0}, {"type": "note_on", "time": 27, "note": 68, "velocity": 105, "channel": 0}, {"type": "note_off", "time": 83, "note": 68, "velocity": 105, "channel": 0}, {"type": "note_on", "time": 23, "note": 65, "velocity": 105, "channel": 0}, {"type": "note_off", "time": 81, "note": 65, "velocity": 105, "channel": 0}, {"type": "note_on", "time": 16, "note": 63, "velocity": 101, "channel": 0}, {"type": "note_off", "time": 71, "note": 63, "velocity": 101, "channel": 0}, {"type": "note_on", "time": 8, "note": 62, "velocity": 89, "channel": 0}, {"type": "note_off", "time": 71, "note": 62, "velocity": 89, "channel": 0}, {"type": "note_on", "time": 10, "note": 68, "velocity": 108, "channel": 0}, {"type": "note_off", "time": 103, "note": 68, "velocity": 108, "channel": 0}, {"type": "note_on", "time": 16, "note": 65, "velocity": 107, "channel": 0}, {"type": "note_off", "time": 102, "note": 65, "velocity": 107, "channel": 0}, {"type": "note_on", "time": 13, "note": 63, "velocity": 101, "channel": 0}, {"type": "note_off", "time": 71, "note": 63, "velocity": 101, "channel": 0}, {"type": "note_on", "time": 8, "note": 62, "velocity": 88, "channel": 0}, {"type": "note_off", "time": 56, "note": 62, "velocity": 88, "channel": 0}, {"type": "note_on", "time": 36, "note": 68, "velocity": 105, "channel": 0}, {"type": "note_off", "time": 130, "note": 68, "velocity": 105, "channel": 0}, {"type": "note_on", "time": 0, "note": 64, "velocity": 86, "channel": 0}, {"type": "note_off", "time": 31, "note": 64, "velocity": 86, "channel": 0}, {"type": "note_on", "time": 33, "note": 68, "velocity": 108, "channel": 0}, {"type": "note_off", "time": 177, "note": 68, "velocity": 108, "channel": 0}, {"type": "note_on", "time": 83, "note": 64, "velocity": 106, "channel": 0}, {"type": "note_off", "time": 97, "note": 64, "velocity": 106, "channel": 0}, {"type": "note_on", "time": 14, "note": 63, "velocity": 105, "channel": 0}, {"type": "note_off", "time": 68, "note": 63, "velocity": 105, "channel": 0}, {"type": "note_on", "time": 7, "note": 61, "velocity": 86, "channel": 0}, {"type": "note_off", "time": 75, "note": 61, "velocity": 86, "channel": 0}, {"type": "note_on", "time": 27, "note": 68, "velocity": 109, "channel": 0}, {"type": "note_off", "time": 90, "note": 68, "velocity": 109, "channel": 0}, {"type": "note_on", "time": 8, "note": 65, "velocity": 105, "channel": 0}, {"type": "note_off", "time": 79, "note": 65, "velocity": 105, "channel": 0}, {"type": "note_on", "time": 2, "note": 63, "velocity": 104, "channel": 0}, {"type": "note_off", "time": 96, "note": 63, "velocity": 104, "channel": 0}, {"type": "note_on", "time": 15, "note": 60, "velocity": 89, "channel": 0}, {"type": "note_off", "time": 71, "note": 60, "velocity": 89, "channel": 0}, {"type": "note_on", "time": 8, "note": 68, "velocity": 105, "channel": 0}, {"type": "note_off", "time": 122, "note": 68, "velocity": 105, "channel": 0}, {"type": "note_on", "time": 238, "note": 68, "velocity": 107, "channel": 0}, {"type": "note_off", "time": 110, "note": 68, "velocity": 107, "channel": 0}, {"type": "note_on", "time": 16, "note": 64, "velocity": 89, "channel": 0}, {"type": "note_off", "time": 71, "note": 64, "velocity": 89, "channel": 0}, {"type": "note_on", "time": 16, "note": 63, "velocity": 91, "channel": 0}, {"type": "note_off", "time": 76, "note": 63, "velocity": 91, "channel": 0}, {"type": "note_on", "time": 11, "note": 61, "velocity": 86, "channel": 0}, {"type": "note_off", "time": 71, "note": 61, "velocity": 86, "channel": 0}, {"type": "note_on", "time": 5, "note": 68, "velocity": 110, "channel": 0}, {"type": "note_off", "time": 102, "note": 68, "velocity": 110, "channel": 0}, {"type": "note_on", "time": 11, "note": 64, "velocity": 108, "channel": 0}, {"type": "note_off", "time": 93, "note": 64, "velocity": 108, "channel": 0}, {"type": "note_on", "time": 2, "note": 63, "velocity": 104, "channel": 0}, {"type": "note_off", "time": 71, "note": 63, "velocity": 104, "channel": 0}, {"type": "note_on", "time": 8, "note": 61, "velocity": 96, "channel": 0}, {"type": "note_off", "time": 85, "note": 61, "velocity": 96, "channel": 0}, {"type": "note_on", "time": 1, "note": 68, "velocity": 107, "channel": 0}, {"type": "note_off", "time": 93, "note": 68, "velocity": 107, "channel": 0}, {"type": "note_on", "time": 13, "note": 65, "velocity": 105, "channel": 0}, {"type": "note_off", "time": 61, "note": 65, "velocity": 105, "channel": 0}, {"type": "note_on", "time": 15, "note": 63, "velocity": 98, "channel": 0}, {"type": "note_off", "time": 57, "note": 63, "velocity": 98, "channel": 0}, {"type": "note_on", "time": 13, "note": 60, "velocity": 102, "channel": 0}, {"type": "note_off", "time": 150, "note": 60, "velocity": 102, "channel": 0}, {"type": "note_on", "time": 141, "note": 68, "velocity": 110, "channel": 0}, {"type": "note_off", "time": 87, "note": 68, "velocity": 110, "channel": 0}, {"type": "note_on", "time": 27, "note": 65, "velocity": 103, "channel": 0}, {"type": "note_off", "time": 77, "note": 65, "velocity": 103, "channel": 0}, {"type": "note_on", "time": 7, "note": 63, "velocity": 97, "channel": 0}, {"type": "note_off", "time": 71, "note": 63, "velocity": 97, "channel": 0}, {"type": "note_on", "time": 19, "note": 61, "velocity": 99, "channel": 0}, {"type": "note_off", "time": 83, "note": 61, "velocity": 99, "channel": 0}, {"type": "note_on", "time": 195, "note": 68, "velocity": 100, "channel": 0}, {"type": "note_off", "time": 77, "note": 68, "velocity": 100, "channel": 0}, {"type": "note_on", "time": 19, "note": 65, "velocity": 101, "channel": 0}, {"type": "note_off", "time": 103, "note": 65, "velocity": 101, "channel": 0}, {"type": "note_on", "time": 27, "note": 63, "velocity": 96, "channel": 0}, {"type": "note_off", "time": 69, "note": 63, "velocity": 96, "channel": 0}, {"type": "note_on", "time": 21, "note": 61, "velocity": 87, "channel": 0}, {"type": "note_off", "time": 63, "note": 61, "velocity": 87, "channel": 0}, {"type": "note_on", "time": 4, "note": 68, "velocity": 110, "channel": 0}, {"type": "note_off", "time": 99, "note": 68, "velocity": 110, "channel": 0}, {"type": "note_on", "time": 17, "note": 64, "velocity": 100, "channel": 0}, {"type": "note_off", "time": 79, "note": 64, "velocity": 100, "channel": 0}, {"type": "note_on", "time": 14, "note": 63, "velocity": 101, "channel": 0}, {"type": "note_off", "time": 89, "note": 63, "velocity": 101, "channel": 0}, {"type": "note_on", "time": 29, "note": 60, "velocity": 92, "channel": 0}, {"type": "note_off", "time": 201, "note": 60, "velocity": 92, "channel": 0}, {"type": "note_on", "time": 589, "note": 68, "velocity": 108, "channel": 0}, {"type": "note_off", "time": 111, "note": 68, "velocity": 108, "channel": 0}, {"type": "note_on", "time": 23, "note": 64, "velocity": 93, "channel": 0}, {"type": "note_off", "time": 71, "note": 64, "velocity": 93, "channel": 0}, {"type": "note_on", "time": 11, "note": 63, "velocity": 91, "channel": 0}, {"type": "note_off", "time": 57, "note": 63, "velocity": 91, "channel": 0}, {"type": "note_on", "time": 29, "note": 61, "velocity": 95, "channel": 0}, {"type": "note_off", "time": 77, "note": 61, "velocity": 95, "channel": 0}, {"type": "note_on", "time": 25, "note": 68, "velocity": 108, "channel": 0}, {"type": "note_off", "time": 91, "note": 68, "velocity": 108, "channel": 0}, {"type": "note_on", "time": 13, "note": 65, "velocity": 105, "channel": 0}, {"type": "note_off", "time": 67, "note": 65, "velocity": 105, "channel": 0}, {"type": "note_on", "time": 8, "note": 63, "velocity": 100, "channel": 0}, {"type": "note_off", "time": 93, "note": 63, "velocity": 100, "channel": 0}, {"type": "note_on", "time": 0, "note": 63, "velocity": 80, "channel": 0}, {"type": "note_off", "time": 0, "note": 63, "velocity": 80, "channel": 0}, {"type": "note_on", "time": 17, "note": 63, "velocity": 96, "channel": 0}, {"type": "note_off", "time": 54, "note": 63, "velocity": 96, "channel": 0}, {"type": "note_on", "time": 16, "note": 70, "velocity": 109, "channel": 0}, {"type": "note_off", "time": 103, "note": 70, "velocity": 109, "channel": 0}, {"type": "note_on", "time": 10, "note": 67, "velocity": 109, "channel": 0}, {"type": "note_off", "time": 93, "note": 67, "velocity": 109, "channel": 0}, {"type": "note_on", "time": 17, "note": 65, "velocity": 98, "channel": 0}, {"type": "note_off", "time": 82, "note": 65, "velocity": 98, "channel": 0}, {"type": "note_on", "time": 11, "note": 65, "velocity": 99, "channel": 0}, {"type": "note_off", "time": 56, "note": 65, "velocity": 99, "channel": 0}, {"type": "note_on", "time": 14, "note": 71, "velocity": 110, "channel": 0}, {"type": "note_off", "time": 96, "note": 71, "velocity": 110, "channel": 0}, {"type": "note_on", "time": 14, "note": 67, "velocity": 108, "channel": 0}, {"type": "note_off", "time": 79, "note": 67, "velocity": 108, "channel": 0}, {"type": "note_on", "time": 4, "note": 66, "velocity": 106, "channel": 0}, {"type": "note_off", "time": 65, "note": 66, "velocity": 106, "channel": 0}, {"type": "note_on", "time": 5, "note": 66, "velocity": 91, "channel": 0}, {"type": "note_off", "time": 56, "note": 66, "velocity": 91, "channel": 0}, {"type": "note_on", "time": 39, "note": 72, "velocity": 110, "channel": 0}, {"type": "note_off", "time": 93, "note": 72, "velocity": 110, "channel": 0}, {"type": "note_on", "time": 14, "note": 69, "velocity": 110, "channel": 0}, {"type": "note_off", "time": 82, "note": 69, "velocity": 110, "channel": 0}, {"type": "note_on", "time": 5, "note": 67, "velocity": 103, "channel": 0}, {"type": "note_off", "time": 71, "note": 67, "velocity": 103, "channel": 0}, {"type": "note_on", "time": 11, "note": 67, "velocity": 84, "channel": 0}, {"type": "note_off", "time": 62, "note": 67, "velocity": 84, "channel": 0}, {"type": "note_on", "time": 25, "note": 74, "velocity": 109, "channel": 0}, {"type": "note_off", "time": 105, "note": 74, "velocity": 109, "channel": 0}, {"type": "note_on", "time": 13, "note": 71, "velocity": 108, "channel": 0}, {"type": "note_off", "time": 87, "note": 71, "velocity": 108, "channel": 0}, {"type": "note_on", "time": 12, "note": 69, "velocity": 98, "channel": 0}, {"type": "note_off", "time": 62, "note": 69, "velocity": 98, "channel": 0}, {"type": "note_on", "time": 5, "note": 67, "velocity": 88, "channel": 0}, {"type": "note_off", "time": 216, "note": 67, "velocity": 88, "channel": 0}, {"type": "note_on", "time": 230, "note": 74, "velocity": 113, "channel": 0}, {"type": "note_off", "time": 105, "note": 74, "velocity": 113, "channel": 0}, {"type": "note_on", "time": 25, "note": 71, "velocity": 109, "channel": 0}, {"type": "note_off", "time": 87, "note": 71, "velocity": 109, "channel": 0}, {"type": "note_on", "time": 15, "note": 69, "velocity": 105, "channel": 0}, {"type": "note_off", "time": 88, "note": 69, "velocity": 105, "channel": 0}, {"type": "note_on", "time": 19, "note": 68, "velocity": 86, "channel": 0}, {"type": "note_off", "time": 48, "note": 68, "velocity": 86, "channel": 0}, {"type": "note_on", "time": 5, "note": 74, "velocity": 108, "channel": 0}, {"type": "note_off", "time": 102, "note": 74, "velocity": 108, "channel": 0}, {"type": "note_on", "time": 13, "note": 70, "velocity": 108, "channel": 0}, {"type": "note_off", "time": 87, "note": 70, "velocity": 108, "channel": 0}, {"type": "note_on", "time": 9, "note": 69, "velocity": 106, "channel": 0}, {"type": "note_off", "time": 65, "note": 69, "velocity": 106, "channel": 0}, {"type": "note_on", "time": 3, "note": 67, "velocity": 97, "channel": 0}, {"type": "note_off", "time": 67, "note": 67, "velocity": 97, "channel": 0}, {"type": "note_on", "time": 28, "note": 72, "velocity": 101, "channel": 0}, {"type": "note_off", "time": 267, "note": 72, "velocity": 101, "channel": 0}, {"type": "note_on", "time": 31, "note": 74, "velocity": 108, "channel": 0}, {"type": "note_off", "time": 105, "note": 74, "velocity": 108, "channel": 0}, {"type": "note_on", "time": 83, "note": 75, "velocity": 103, "channel": 0}, {"type": "note_off", "time": 108, "note": 75, "velocity": 103, "channel": 0}, {"type": "note_on", "time": 69, "note": 72, "velocity": 104, "channel": 0}, {"type": "note_off", "time": 102, "note": 72, "velocity": 104, "channel": 0}, {"type": "note_on", "time": 14, "note": 68, "velocity": 103, "channel": 0}, {"type": "note_off", "time": 164, "note": 68, "velocity": 103, "channel": 0}, {"type": "note_on", "time": 0, "note": 65, "velocity": 99, "channel": 0}, {"type": "note_off", "time": 175, "note": 65, "velocity": 99, "channel": 0}, {"type": "note_on", "time": 19, "note": 64, "velocity": 95, "channel": 0}, {"type": "note_off", "time": 159, "note": 64, "velocity": 95, "channel": 0}, {"type": "note_on", "time": 25, "note": 63, "velocity": 102, "channel": 0}, {"type": "note_off", "time": 162, "note": 63, "velocity": 102, "channel": 0}, {"type": "note_on", "time": 25, "note": 62, "velocity": 97, "channel": 0}, {"type": "note_off", "time": 153, "note": 62, "velocity": 97, "channel": 0}, {"type": "note_on", "time": 19, "note": 74, "velocity": 112, "channel": 0}, {"type": "note_off", "time": 113, "note": 74, "velocity": 112, "channel": 0}, {"type": "note_on", "time": 73, "note": 70, "velocity": 107, "channel": 0}, {"type": "note_off", "time": 201, "note": 70, "velocity": 107, "channel": 0}, {"type": "note_on", "time": 30, "note": 67, "velocity": 90, "channel": 0}, {"type": "note_off", "time": 179, "note": 67, "velocity": 90, "channel": 0}, {"type": "note_on", "time": 363, "note": 65, "velocity": 109, "channel": 0}, {"type": "note_off", "time": 135, "note": 65, "velocity": 109, "channel": 0}, {"type": "note_on", "time": 17, "note": 62, "velocity": 96, "channel": 0}, {"type": "note_off", "time": 65, "note": 62, "velocity": 96, "channel": 0}, {"type": "note_on", "time": 5, "note": 63, "velocity": 91, "channel": 0}, {"type": "note_off", "time": 73, "note": 63, "velocity": 91, "channel": 0}, {"type": "note_on", "time": 8, "note": 65, "velocity": 103, "channel": 0}, {"type": "note_off", "time": 73, "note": 65, "velocity": 103, "channel": 0}, {"type": "note_on", "time": 0, "note": 67, "velocity": 105, "channel": 0}, {"type": "note_off", "time": 79, "note": 67, "velocity": 105, "channel": 0}, {"type": "note_on", "time": 31, "note": 67, "velocity": 109, "channel": 0}, {"type": "note_off", "time": 87, "note": 67, "velocity": 109, "channel": 0}, {"type": "note_on", "time": 23, "note": 65, "velocity": 107, "channel": 0}, {"type": "note_off", "time": 96, "note": 65, "velocity": 107, "channel": 0}, {"type": "note_on", "time": 71, "note": 63, "velocity": 109, "channel": 0}, {"type": "note_off", "time": 250, "note": 63, "velocity": 109, "channel": 0}, {"type": "note_on", "time": 11, "note": 60, "velocity": 103, "channel": 0}, {"type": "note_off", "time": 102, "note": 60, "velocity": 103, "channel": 0}, {"type": "note_on", "time": 8, "note": 57, "velocity": 99, "channel": 0}, {"type": "note_off", "time": 62, "note": 57, "velocity": 99, "channel": 0}, {"type": "note_on", "time": 15, "note": 54, "velocity": 81, "channel": 0}, {"type": "note_off", "time": 53, "note": 54, "velocity": 81, "channel": 0}, {"type": "note_on", "time": 147, "note": 63, "velocity": 103, "channel": 0}, {"type": "note_off", "time": 103, "note": 63, "velocity": 103, "channel": 0}, {"type": "note_on", "time": 5, "note": 60, "velocity": 97, "channel": 0}, {"type": "note_off", "time": 42, "note": 60, "velocity": 97, "channel": 0}, {"type": "note_on", "time": 17, "note": 61, "velocity": 94, "channel": 0}, {"type": "note_off", "time": 88, "note": 61, "velocity": 94, "channel": 0}, {"type": "note_on", "time": 8, "note": 62, "velocity": 89, "channel": 0}, {"type": "note_off", "time": 90, "note": 62, "velocity": 89, "channel": 0}, {"type": "note_on", "time": 11, "note": 61, "velocity": 102, "channel": 0}, {"type": "note_off", "time": 105, "note": 61, "velocity": 102, "channel": 0}, {"type": "note_on", "time": 11, "note": 60, "velocity": 98, "channel": 0}, {"type": "note_off", "time": 102, "note": 60, "velocity": 98, "channel": 0}, {"type": "note_on", "time": 4, "note": 58, "velocity": 83, "channel": 0}, {"type": "note_off", "time": 41, "note": 58, "velocity": 83, "channel": 0}, {"type": "note_on", "time": 1, "note": 59, "velocity": 97, "channel": 0}, {"type": "note_off", "time": 113, "note": 59, "velocity": 97, "channel": 0}, {"type": "note_on", "time": 7, "note": 58, "velocity": 90, "channel": 0}, {"type": "note_off", "time": 43, "note": 58, "velocity": 90, "channel": 0}, {"type": "note_on", "time": 422, "note": 62, "velocity": 99, "channel": 0}, {"type": "note_off", "time": 122, "note": 62, "velocity": 99, "channel": 0}, {"type": "note_on", "time": 45, "note": 67, "velocity": 101, "channel": 0}, {"type": "note_off", "time": 116, "note": 67, "velocity": 101, "channel": 0}, {"type": "note_on", "time": 85, "note": 71, "velocity": 104, "channel": 0}, {"type": "note_off", "time": 119, "note": 71, "velocity": 104, "channel": 0}, {"type": "note_on", "time": 79, "note": 74, "velocity": 92, "channel": 0}, {"type": "note_off", "time": 520, "note": 74, "velocity": 92, "channel": 0}, {"type": "note_on", "time": 0, "note": 74, "velocity": 80, "channel": 0}, {"type": "note_off", "time": 0, "note": 74, "velocity": 80, "channel": 0}, {"type": "note_on", "time": 39, "note": 72, "velocity": 99, "channel": 0}, {"type": "note_off", "time": 133, "note": 72, "velocity": 99, "channel": 0}, {"type": "note_on", "time": 62, "note": 77, "velocity": 97, "channel": 0}, {"type": "note_off", "time": 383, "note": 77, "velocity": 97, "channel": 0}, {"type": "note_on", "time": 179, "note": 75, "velocity": 103, "channel": 0}, {"type": "note_off", "time": 109, "note": 75, "velocity": 103, "channel": 0}, {"type": "note_on", "time": 74, "note": 78, "velocity": 92, "channel": 0}, {"type": "note_off", "time": 409, "note": 78, "velocity": 92, "channel": 0}, {"type": "note_on", "time": 150, "note": 76, "velocity": 112, "channel": 0}, {"type": "note_off", "time": 93, "note": 76, "velocity": 112, "channel": 0}, {"type": "note_on", "time": 19, "note": 76, "velocity": 115, "channel": 0}, {"type": "note_off", "time": 99, "note": 76, "velocity": 115, "channel": 0}, {"type": "note_on", "time": 22, "note": 74, "velocity": 104, "channel": 0}, {"type": "note_off", "time": 76, "note": 74, "velocity": 104, "channel": 0}, {"type": "note_on", "time": 96, "note": 73, "velocity": 107, "channel": 0}, {"type": "note_off", "time": 165, "note": 73, "velocity": 107, "channel": 0}, {"type": "note_on", "time": 25, "note": 74, "velocity": 100, "channel": 0}, {"type": "note_off", "time": 90, "note": 74, "velocity": 100, "channel": 0}, {"type": "note_on", "time": 95, "note": 76, "velocity": 112, "channel": 0}, {"type": "note_off", "time": 153, "note": 76, "velocity": 112, "channel": 0}, {"type": "note_on", "time": 28, "note": 75, "velocity": 94, "channel": 0}, {"type": "note_off", "time": 443, "note": 75, "velocity": 94, "channel": 0}, {"type": "note_on", "time": 147, "note": 73, "velocity": 107, "channel": 0}, {"type": "note_off", "time": 165, "note": 73, "velocity": 107, "channel": 0}, {"type": "note_on", "time": 30, "note": 71, "velocity": 100, "channel": 0}, {"type": "note_off", "time": 187, "note": 71, "velocity": 100, "channel": 0}, {"type": "note_on", "time": 47, "note": 71, "velocity": 91, "channel": 0}, {"type": "note_off", "time": 231, "note": 71, "velocity": 91, "channel": 0}, {"type": "note_on", "time": 29, "note": 69, "velocity": 106, "channel": 0}, {"type": "note_off", "time": 185, "note": 69, "velocity": 106, "channel": 0}, {"type": "note_on", "time": 105, "note": 68, "velocity": 89, "channel": 0}, {"type": "note_off", "time": 287, "note": 68, "velocity": 89, "channel": 0}, {"type": "note_on", "time": 239, "note": 68, "velocity": 107, "channel": 0}, {"type": "note_off", "time": 79, "note": 68, "velocity": 107, "channel": 0}, {"type": "note_on", "time": 28, "note": 71, "velocity": 106, "channel": 0}, {"type": "note_off", "time": 133, "note": 71, "velocity": 106, "channel": 0}, {"type": "note_on", "time": 10, "note": 68, "velocity": 88, "channel": 0}, {"type": "note_off", "time": 117, "note": 68, "velocity": 88, "channel": 0}, {"type": "note_on", "time": 170, "note": 69, "velocity": 109, "channel": 0}, {"type": "note_off", "time": 90, "note": 69, "velocity": 109, "channel": 0}, {"type": "note_on", "time": 14, "note": 72, "velocity": 106, "channel": 0}, {"type": "note_off", "time": 125, "note": 72, "velocity": 106, "channel": 0}, {"type": "note_on", "time": 0, "note": 69, "velocity": 93, "channel": 0}, {"type": "note_off", "time": 65, "note": 69, "velocity": 93, "channel": 0}, {"type": "note_on", "time": 11, "note": 65, "velocity": 96, "channel": 0}, {"type": "note_off", "time": 116, "note": 65, "velocity": 96, "channel": 0}, {"type": "note_on", "time": 625, "note": 72, "velocity": 103, "channel": 0}, {"type": "note_off", "time": 89, "note": 72, "velocity": 103, "channel": 0}, {"type": "note_on", "time": 21, "note": 72, "velocity": 97, "channel": 0}, {"type": "note_off", "time": 81, "note": 72, "velocity": 97, "channel": 0}, {"type": "note_on", "time": 0, "note": 70, "velocity": 89, "channel": 0}, {"type": "note_off", "time": 82, "note": 70, "velocity": 89, "channel": 0}, {"type": "note_on", "time": 22, "note": 66, "velocity": 89, "channel": 0}, {"type": "note_off", "time": 79, "note": 66, "velocity": 89, "channel": 0}, {"type": "note_on", "time": 8, "note": 69, "velocity": 103, "channel": 0}, {"type": "note_off", "time": 110, "note": 69, "velocity": 103, "channel": 0}, {"type": "note_on", "time": 39, "note": 68, "velocity": 101, "channel": 0}, {"type": "note_off", "time": 292, "note": 68, "velocity": 101, "channel": 0}, {"type": "note_on", "time": 5, "note": 65, "velocity": 99, "channel": 0}, {"type": "note_off", "time": 99, "note": 65, "velocity": 99, "channel": 0}, {"type": "note_on", "time": 130, "note": 61, "velocity": 83, "channel": 0}, {"type": "note_off", "time": 113, "note": 61, "velocity": 83, "channel": 0}, {"type": "note_on", "time": 326, "note": 73, "velocity": 107, "channel": 0}, {"type": "note_off", "time": 144, "note": 73, "velocity": 107, "channel": 0}, {"type": "note_on", "time": 51, "note": 67, "velocity": 99, "channel": 0}, {"type": "note_off", "time": 238, "note": 67, "velocity": 99, "channel": 0}, {"type": "note_on", "time": 315, "note": 72, "velocity": 97, "channel": 0}, {"type": "note_off", "time": 218, "note": 72, "velocity": 97, "channel": 0}, {"type": "note_on", "time": 76, "note": 65, "velocity": 90, "channel": 0}, {"type": "note_off", "time": 93, "note": 65, "velocity": 90, "channel": 0}, {"type": "note_on", "time": 99, "note": 65, "velocity": 103, "channel": 0}, {"type": "note_off", "time": 111, "note": 65, "velocity": 103, "channel": 0}, {"type": "note_on", "time": 7, "note": 64, "velocity": 98, "channel": 0}, {"type": "note_off", "time": 125, "note": 64, "velocity": 98, "channel": 0}, {"type": "note_on", "time": 36, "note": 65, "velocity": 102, "channel": 0}, {"type": "note_off", "time": 93, "note": 65, "velocity": 102, "channel": 0}, {"type": "note_on", "time": 62, "note": 76, "velocity": 91, "channel": 0}, {"type": "note_off", "time": 414, "note": 76, "velocity": 91, "channel": 0}, {"type": "note_on", "time": 194, "note": 73, "velocity": 101, "channel": 0}, {"type": "note_off", "time": 183, "note": 73, "velocity": 101, "channel": 0}, {"type": "note_on", "time": 195, "note": 63, "velocity": 85, "channel": 0}, {"type": "note_off", "time": 184, "note": 63, "velocity": 85, "channel": 0}, {"type": "note_on", "time": 90, "note": 63, "velocity": 106, "channel": 0}, {"type": "note_off", "time": 113, "note": 63, "velocity": 106, "channel": 0}, {"type": "note_on", "time": 19, "note": 62, "velocity": 98, "channel": 0}, {"type": "note_off", "time": 108, "note": 62, "velocity": 98, "channel": 0}, {"type": "note_on", "time": 34, "note": 63, "velocity": 106, "channel": 0}, {"type": "note_off", "time": 108, "note": 63, "velocity": 106, "channel": 0}, {"type": "note_on", "time": 85, "note": 65, "velocity": 103, "channel": 0}, {"type": "note_off", "time": 71, "note": 65, "velocity": 103, "channel": 0}, {"type": "note_on", "time": 0, "note": 65, "velocity": 80, "channel": 0}, {"type": "note_off", "time": 0, "note": 65, "velocity": 80, "channel": 0}, {"type": "note_on", "time": 32, "note": 67, "velocity": 100, "channel": 0}, {"type": "note_off", "time": 97, "note": 67, "velocity": 100, "channel": 0}, {"type": "note_on", "time": 67, "note": 65, "velocity": 104, "channel": 0}, {"type": "note_off", "time": 191, "note": 65, "velocity": 104, "channel": 0}, {"type": "note_on", "time": 27, "note": 64, "velocity": 92, "channel": 0}, {"type": "note_off", "time": 93, "note": 64, "velocity": 92, "channel": 0}, {"type": "note_on", "time": 231, "note": 61, "velocity": 95, "channel": 0}, {"type": "note_off", "time": 175, "note": 61, "velocity": 95, "channel": 0}, {"type": "note_on", "time": 75, "note": 65, "velocity": 101, "channel": 0}, {"type": "note_off", "time": 191, "note": 65, "velocity": 101, "channel": 0}, {"type": "note_on", "time": 40, "note": 68, "velocity": 107, "channel": 0}, {"type": "note_off", "time": 108, "note": 68, "velocity": 107, "channel": 0}, {"type": "note_on", "time": 105, "note": 77, "velocity": 97, "channel": 0}, {"type": "note_off", "time": 284, "note": 77, "velocity": 97, "channel": 0}, {"type": "note_on", "time": 275, "note": 67, "velocity": 91, "channel": 0}, {"type": "note_off", "time": 267, "note": 67, "velocity": 91, "channel": 0}, {"type": "note_on", "time": 15, "note": 68, "velocity": 100, "channel": 0}, {"type": "note_off", "time": 297, "note": 68, "velocity": 100, "channel": 0}, {"type": "note_on", "time": 15, "note": 67, "velocity": 92, "channel": 0}, {"type": "note_off", "time": 89, "note": 67, "velocity": 92, "channel": 0}, {"type": "note_on", "time": 41, "note": 66, "velocity": 84, "channel": 0}, {"type": "note_off", "time": 109, "note": 66, "velocity": 84, "channel": 0}, {"type": "note_on", "time": 147, "note": 67, "velocity": 95, "channel": 0}, {"type": "note_off", "time": 156, "note": 67, "velocity": 95, "channel": 0}, {"type": "note_on", "time": 24, "note": 65, "velocity": 101, "channel": 0}, {"type": "note_off", "time": 111, "note": 65, "velocity": 101, "channel": 0}, {"type": "note_on", "time": 94, "note": 64, "velocity": 104, "channel": 0}, {"type": "note_off", "time": 201, "note": 64, "velocity": 104, "channel": 0}, {"type": "note_on", "time": 3, "note": 61, "velocity": 87, "channel": 0}, {"type": "note_off", "time": 75, "note": 61, "velocity": 87, "channel": 0}, {"type": "note_on", "time": 139, "note": 60, "velocity": 75, "channel": 0}, {"type": "note_off", "time": 1226, "note": 60, "velocity": 75, "channel": 0}, {"type": "end_of_track", "time": 0}]]}