{"ticks_per_beat": 192, "tracks": [[{"type": "track_name", "name": "Melody", "time": 0}, {"type": "set_tempo", "tempo": 196078, "time": 0}, {"type": "key_signature", "key": "Bb", "time": 0}, {"type": "time_signature", "numerator": 4, "denominator": 4, "clocks_per_click": 24, "notated_32nd_notes_per_beat": 8, "time": 0}, {"type": "note_on", "time": 3680, "note": 63, "velocity": 115, "channel": 0}, {"type": "note_off", "time": 81, "note": 63, "velocity": 115, "channel": 0}, {"type": "note_on", "time": 23, "note": 63, "velocity": 109, "channel": 0}, {"type": "note_off", "time": 87, "note": 63, "velocity": 109, "channel": 0}, {"type": "note_on", "time": 33, "note": 61, "velocity": 106, "channel": 0}, {"type": "note_off", "time": 109, "note": 61, "velocity": 106, "channel": 0}, {"type": "note_on", "time": 69, "note": 61, "velocity": 111, "channel": 0}, {"type": "note_off", "time": 61, "note": 61, "velocity": 111, "channel": 0}, {"type": "note_on", "time": 31, "note": 62, "velocity": 104, "channel": 0}, {"type": "note_off", "time": 93, "note": 62, "velocity": 104, "channel": 0}, {"type": "note_on", "time": 205, "note": 61, "velocity": 113, "channel": 0}, {"type": "note_off", "time": 95, "note": 61, "velocity": 113, "channel": 0}, {"type": "note_on", "time": 13, "note": 62, "velocity": 93, "channel": 0}, {"type": "note_off", "time": 61, "note": 62, "velocity": 93, "channel": 0}, {"type": "note_on", "time": 159, "note": 58, "velocity": 106, "channel": 0}, {"type": "note_off", "time": 111, "note": 58, "velocity": 106, "channel": 0}, {"type": "note_on", "time": 37, "note": 53, "velocity": 99, "channel": 0}, {"type": "note_off", "time": 113, "note": 53, "velocity": 99, "channel": 0}, {"type": "note_on", "time": 63, "note": 51, "velocity": 101, "channel": 0}, {"type": "note_off", "time": 75, "note": 51, "velocity": 101, "channel": 0}, {"type": "note_on", "time": 131, "note": 50, "velocity": 100, "channel": 0}, {"type": "note_off", "time": 137, "note": 50, "velocity": 100, "channel": 0}, {"type": "note_on", "time": 25, "note": 49, "velocity": 87, "channel": 0}, {"type": "note_off", "time": 107, "note": 49, "velocity": 87, "channel": 0}, {"type": "note_on", "time": 1097, "note": 64, "velocity": 122, "channel": 0}, {"type": "note_off", "time": 39, "note": 64, "velocity": 122, "channel": 0}, {"type": "note_on", "time": 21, "note": 63, "velocity": 116, "channel": 0}, {"type": "note_off", "time": 61, "note": 63, "velocity": 116, "channel": 0}, {"type": "note_on", "time": 23, "note": 61, "velocity": 110, "channel": 0}, {"type": "note_off", "time": 63, "note": 61, "velocity": 110, "channel": 0}, {"type": "note_on", "time": 27, "note": 58, "velocity": 105, "channel": 0}, {"type": "note_off", "time": 99, "note": 58, "velocity": 105, "channel": 0}, {"type": "note_on", "time": 75, "note": 56, "velocity": 100, "channel": 0}, {"type": "note_off", "time": 191, "note": 56, "velocity": 100, "channel": 0}, {"type": "note_on", "time": 23, "note": 58, "velocity": 99, "channel": 0}, {"type": "note_off", "time": 61, "note": 58, "velocity": 99, "channel": 0}, {"type": "note_on", "time": 15, "note": 57, "velocity": 81, "channel": 0}, {"type": "note_off", "time": 71, "note": 57, "velocity": 81, "channel": 0}, {"type": "note_on", "time": 37, "note": 61, "velocity": 114, "channel": 0}, {"type": "note_off", "time": 147, "note": 61, "velocity": 114, "channel": 0}, {"type": "note_on", "time": 21, "note": 62, "velocity": 102, "channel": 0}, {"type": "note_off", "time": 45, "note": 62, "velocity": 102, "channel": 0}, {"type": "note_on", "time": 39, "note": 63, "velocity": 93, "channel": 0}, {"type": "note_off", "time": 73, "note": 63, "velocity": 93, "channel": 0}, {"type": "note_on", "time": 1562, "note": 68, "velocity": 114, "channel": 0}, {"type": "note_off", "time": 87, "note": 68, "velocity": 114, "channel": 0}, {"type": "note_on", "time": 15, "note": 70, "velocity": 115, "channel": 0}, {"type": "note_off", "time": 73, "note": 70, "velocity": 115, "channel": 0}, {"type": "note_on", "time": 37, "note": 72, "velocity": 115, "channel": 0}, {"type": "note_off", "time": 61, "note": 72, "velocity": 115, "channel": 0}, {"type": "note_on", "time": 15, "note": 73, "velocity": 116, "channel": 0}, {"type": "note_off", "time": 59, "note": 73, "velocity": 116, "channel": 0}, {"type": "note_on", "time": 13, "note": 74, "velocity": 115, "channel": 0}, {"type": "note_off", "time": 103, "note": 74, "velocity": 115, "channel": 0}, {"type": "note_on", "time": 37, "note": 72, "velocity": 106, "channel": 0}, {"type": "note_off", "time": 53, "note": 72, "velocity": 106, "channel": 0}, {"type": "note_on", "time": 7, "note": 73, "velocity": 114, "channel": 0}, {"type": "note_off", "time": 71, "note": 73, "velocity": 114, "channel": 0}, {"type": "note_on", "time": 43, "note": 72, "velocity": 116, "channel": 0}, {"type": "note_off", "time": 99, "note": 72, "velocity": 116, "channel": 0}, {"type": "note_on", "time": 37, "note": 71, "velocity": 114, "channel": 0}, {"type": "note_off", "time": 61, "note": 71, "velocity": 114, "channel": 0}, {"type": "note_on", "time": 25, "note": 70, "velocity": 118, "channel": 0}, {"type": "note_off", "time": 69, "note": 70, "velocity": 118, "channel": 0}, {"type": "note_on", "time": 43, "note": 69, "velocity": 111, "channel": 0}, {"type": "note_off", "time": 69, "note": 69, "velocity": 111, "channel": 0}, {"type": "note_on", "time": 9, "note": 68, "velocity": 116, "channel": 0}, {"type": "note_off", "time": 97, "note": 68, "velocity": 116, "channel": 0}, {"type": "note_on", "time": 9, "note": 67, "velocity": 112, "channel": 0}, {"type": "note_off", "time": 103, "note": 67, "velocity": 112, "channel": 0}, {"type": "note_on", "time": 71, "note": 66, "velocity": 115, "channel": 0}, {"type": "note_off", "time": 75, "note": 66, "velocity": 115, "channel": 0}, {"type": "note_on", "time": 21, "note": 67, "velocity": 108, "channel": 0}, {"type": "note_off", "time": 65, "note": 67, "velocity": 108, "channel": 0}, {"type": "note_on", "time": 25, "note": 65, "velocity": 117, "channel": 0}, {"type": "note_off", "time": 77, "note": 65, "velocity": 117, "channel": 0}, {"type": "note_on", "time": 27, "note": 62, "velocity": 108, "channel": 0}, {"type": "note_off", "time": 59, "note": 62, "velocity": 108, "channel": 0}, {"type": "note_on", "time": 35, "note": 61, "velocity": 105, "channel": 0}, {"type": "note_off", "time": 85, "note": 61, "velocity": 105, "channel": 0}, {"type": "note_on", "time": 25, "note": 59, "velocity": 99, "channel": 0}, {"type": "note_off", "time": 77, "note": 59, "velocity": 99, "channel": 0}, {"type": "note_on", "time": 25, "note": 58, "velocity": 89, "channel": 0}, {"type": "note_off", "time": 49, "note": 58, "velocity": 89, "channel": 0}, {"type": "note_on", "time": 43, "note": 57, "velocity": 107, "channel": 0}, {"type": "note_off", "time": 99, "note": 57, "velocity": 107, "channel": 0}, {"type": "note_on", "time": 15, "note": 56, "velocity": 97, "channel": 0}, {"type": "note_off", "time": 83, "note": 56, "velocity": 97, "channel": 0}, {"type": "note_on", "time": 91, "note": 55, "velocity": 105, "channel": 0}, {"type": "note_off", "time": 155, "note": 55, "velocity": 105, "channel": 0}, {"type": "note_on", "time": 45, "note": 63, "velocity": 109, "channel": 0}, {"type": "note_off", "time": 85, "note": 63, "velocity": 109, "channel": 0}, {"type": "note_on", "time": 99, "note": 54, "velocity": 102, "channel": 0}, {"type": "note_off", "time": 117, "note": 54, "velocity": 102, "channel": 0}, {"type": "note_on", "time": 21, "note": 53, "velocity": 89, "channel": 0}, {"type": "note_off", "time": 111, "note": 53, "velocity": 89, "channel": 0}, {"type": "note_on", "time": 5, "note": 54, "velocity": 88, "channel": 0}, {"type": "note_off", "time": 67, "note": 54, "velocity": 88, "channel": 0}, {"type": "note_on", "time": 67, "note": 57, "velocity": 102, "channel": 0}, {"type": "note_off", "time": 109, "note": 57, "velocity": 102, "channel": 0}, {"type": "note_on", "time": 95, "note": 62, "velocity": 112, "channel": 0}, {"type": "note_off", "time": 107, "note": 62, "velocity": 112, "channel": 0}, {"type": "note_on", "time": 96, "note": 53, "velocity": 97, "channel": 0}, {"type": "note_off", "time": 159, "note": 53, "velocity": 97, "channel": 0}, {"type": "note_on", "time": 22, "note": 52, "velocity": 90, "channel": 0}, {"type": "note_off", "time": 55, "note": 52, "velocity": 90, "channel": 0}, {"type": "note_on", "time": 12, "note": 53, "velocity": 80, "channel": 0}, {"type": "note_off", "time": 115, "note": 53, "velocity": 80, "channel": 0}, {"type": "note_on", "time": 281, "note": 58, "velocity": 105, "channel": 0}, {"type": "note_off", "time": 123, "note": 58, "velocity": 105, "channel": 0}, {"type": "note_on", "time": 65, "note": 61, "velocity": 104, "channel": 0}, {"type": "note_off", "time": 75, "note": 61, "velocity": 104, "channel": 0}, {"type": "note_on", "time": 77, "note": 61, "velocity": 113, "channel": 0}, {"type": "note_off", "time": 143, "note": 61, "velocity": 113, "channel": 0}, {"type": "note_on", "time": 53, "note": 58, "velocity": 105, "channel": 0}, {"type": "note_off", "time": 91, "note": 58, "velocity": 105, "channel": 0}, {"type": "note_on", "time": 35, "note": 57, "velocity": 101, "channel": 0}, {"type": "note_off", "time": 71, "note": 57, "velocity": 101, "channel": 0}, {"type": "note_on", "time": 47, "note": 55, "velocity": 95, "channel": 0}, {"type": "note_off", "time": 45, "note": 55, "velocity": 95, "channel": 0}, {"type": "note_on", "time": 37, "note": 54, "velocity": 95, "channel": 0}, {"type": "note_off", "time": 75, "note": 54, "velocity": 95, "channel": 0}, {"type": "note_on", "time": 21, "note": 53, "velocity": 103, "channel": 0}, {"type": "note_off", "time": 69, "note": 53, "velocity": 103, "channel": 0}, {"type": "note_on", "time": 37, "note": 52, "velocity": 98, "channel": 0}, {"type": "note_off", "time": 91, "note": 52, "velocity": 98, "channel": 0}, {"type": "note_on", "time": 81, "note": 51, "velocity": 99, "channel": 0}, {"type": "note_off", "time": 193, "note": 51, "velocity": 99, "channel": 0}, {"type": "note_on", "time": 69, "note": 53, "velocity": 102, "channel": 0}, {"type": "note_off", "time": 117, "note": 53, "velocity": 102, "channel": 0}, {"type": "note_on", "time": 93, "note": 54, "velocity": 96, "channel": 0}, {"type": "note_off", "time": 87, "note": 54, "velocity": 96, "channel": 0}, {"type": "note_on", "time": 41, "note": 56, "velocity": 105, "channel": 0}, {"type": "note_off", "time": 223, "note": 56, "velocity": 105, "channel": 0}, {"type": "note_on", "time": 41, "note": 57, "velocity": 95, "channel": 0}, {"type": "note_off", "time": 149, "note": 57, "velocity": 95, "channel": 0}, {"type": "note_on", "time": 77, "note": 59, "velocity": 96, "channel": 0}, {"type": "note_off", "time": 71, "note": 59, "velocity": 96, "channel": 0}, {"type": "note_on", "time": 35, "note": 61, "velocity": 113, "channel": 0}, {"type": "note_off", "time": 165, "note": 61, "velocity": 113, "channel": 0}, {"type": "note_on", "time": 133, "note": 62, "velocity": 114, "channel": 0}, {"type": "note_off", "time": 115, "note": 62, "velocity": 114, "channel": 0}, {"type": "note_on", "time": 35, "note": 63, "velocity": 109, "channel": 0}, {"type": "note_off", "time": 131, "note": 63, "velocity": 109, "channel": 0}, {"type": "note_on", "time": 29, "note": 66, "velocity": 112, "channel": 0}, {"type": "note_off", "time": 101, "note": 66, "velocity": 112, "channel": 0}, {"type": "note_on", "time": 33, "note": 63, "velocity": 115, "channel": 0}, {"type": "note_off", "time": 71, "note": 63, "velocity": 115, "channel": 0}, {"type": "note_on", "time": 17, "note": 62, "velocity": 107, "channel": 0}, {"type": "note_off", "time": 81, "note": 62, "velocity": 107, "channel": 0}, {"type": "note_on", "time": 39, "note": 61, "velocity": 97, "channel": 0}, {"type": "note_off", "time": 107, "note": 61, "velocity": 97, "channel": 0}, {"type": "note_on", "time": 31, "note": 60, "velocity": 112, "channel": 0}, {"type": "note_off", "time": 137, "note": 60, "velocity": 112, "channel": 0}, {"type": "note_on", "time": 15, "note": 57, "velocity": 101, "channel": 0}, {"type": "note_off", "time": 61, "note": 57, "velocity": 101, "channel": 0}, {"type": "note_on", "time": 15, "note": 56, "velocity": 95, "channel": 0}, {"type": "note_off", "time": 37, "note": 56, "velocity": 95, "channel": 0}, {"type": "note_on", "time": 43, "note": 54, "velocity": 93, "channel": 0}, {"type": "note_off", "time": 73, "note": 54, "velocity": 93, "channel": 0}, {"type": "note_on", "time": 27, "note": 53, "velocity": 95, "channel": 0}, {"type": "note_off", "time": 99, "note": 53, "velocity": 95, "channel": 0}, {"type": "note_on", "time": 27, "note": 52, "velocity": 100, "channel": 0}, {"type": "note_off", "time": 73, "note": 52, "velocity": 100, "channel": 0}, {"type": "note_on", "time": 35, "note": 51, "velocity": 97, "channel": 0}, {"type": "note_off", "time": 119, "note": 51, "velocity": 97, "channel": 0}, {"type": "note_on", "time": 55, "note": 50, "velocity": 99, "channel": 0}, {"type": "note_off", "time": 157, "note": 50, "velocity": 99, "channel": 0}, {"type": "note_on", "time": 63, "note": 52, "velocity": 89, "channel": 0}, {"type": "note_off", "time": 83, "note": 52, "velocity": 89, "channel": 0}, {"type": "note_on", "time": 81, "note": 57, "velocity": 99, "channel": 0}, {"type": "note_off", "time": 127, "note": 57, "velocity": 99, "channel": 0}, {"type": "note_on", "time": 81, "note": 61, "velocity": 114, "channel": 0}, {"type": "note_off", "time": 117, "note": 61, "velocity": 114, "channel": 0}, {"type": "note_on", "time": 57, "note": 62, "velocity": 112, "channel": 0}, {"type": "note_off", "time": 257, "note": 62, "velocity": 112, "channel": 0}, {"type": "note_on", "time": 27, "note": 59, "velocity": 101, "channel": 0}, {"type": "note_off", "time": 101, "note": 59, "velocity": 101, "channel": 0}, {"type": "note_on", "time": 85, "note": 66, "velocity": 112, "channel": 0}, {"type": "note_off", "time": 113, "note": 66, "velocity": 112, "channel": 0}, {"type": "note_on", "time": 79, "note": 64, "velocity": 112, "channel": 0}, {"type": "note_off", "time": 133, "note": 64, "velocity": 112, "channel": 0}, {"type": "note_on", "time": 77, "note": 60, "velocity": 99, "channel": 0}, {"type": "note_off", "time": 99, "note": 60, "velocity": 99, "channel": 0}, {"type": "note_on", "time": 589, "note": 59, "velocity": 102, "channel": 0}, {"type": "note_off", "time": 189, "note": 59, "velocity": 102, "channel": 0}, {"type": "note_on", "time": 17, "note": 61, "velocity": 106, "channel": 0}, {"type": "note_off", "time": 119, "note": 61, "velocity": 106, "channel": 0}, {"type": "note_on", "time": 63, "note": 63, "velocity": 110, "channel": 0}, {"type": "note_off", "time": 207, "note": 63, "velocity": 110, "channel": 0}, {"type": "note_on", "time": 45, "note": 64, "velocity": 114, "channel": 0}, {"type": "note_off", "time": 155, "note": 64, "velocity": 114, "channel": 0}, {"type": "note_on", "time": 43, "note": 66, "velocity": 108, "channel": 0}, {"type": "note_off", "time": 175, "note": 66, "velocity": 108, "channel": 0}, {"type": "note_on", "time": 31, "note": 68, "velocity": 112, "channel": 0}, {"type": "note_off", "time": 115, "note": 68, "velocity": 112, "channel": 0}, {"type": "note_on", "time": 49, "note": 69, "velocity": 116, "channel": 0}, {"type": "note_off", "time": 145, "note": 69, "velocity": 116, "channel": 0}, {"type": "note_on", "time": 47, "note": 65, "velocity": 108, "channel": 0}, {"type": "note_off", "time": 85, "note": 65, "velocity": 108, "channel": 0}, {"type": "note_on", "time": 37, "note": 60, "velocity": 98, "channel": 0}, {"type": "note_off", "time": 97, "note": 60, "velocity": 98, "channel": 0}, {"type": "note_on", "time": 725, "note": 59, "velocity": 104, "channel": 0}, {"type": "note_off", "time": 103, "note": 59, "velocity": 104, "channel": 0}, {"type": "note_on", "time": 73, "note": 61, "velocity": 102, "channel": 0}, {"type": "note_off", "time": 73, "note": 61, "velocity": 102, "channel": 0}, {"type": "note_on", "time": 113, "note": 63, "velocity": 113, "channel": 0}, {"type": "note_off", "time": 189, "note": 63, "velocity": 113, "channel": 0}, {"type": "note_on", "time": 77, "note": 66, "velocity": 110, "channel": 0}, {"type": "note_off", "time": 143, "note": 66, "velocity": 110, "channel": 0}, {"type": "note_on", "time": 39, "note": 68, "velocity": 110, "channel": 0}, {"type": "note_off", "time": 89, "note": 68, "velocity": 110, "channel": 0}, {"type": "note_on", "time": 25, "note": 70, "velocity": 115, "channel": 0}, {"type": "note_off", "time": 143, "note": 70, "velocity": 115, "channel": 0}, {"type": "note_on", "time": 67, "note": 72, "velocity": 118, "channel": 0}, {"type": "note_off", "time": 79, "note": 72, "velocity": 118, "channel": 0}, {"type": "note_on", "time": 11, "note": 73, "velocity": 117, "channel": 0}, {"type": "note_off", "time": 67, "note": 73, "velocity": 117, "channel": 0}, {"type": "note_on", "time": 11, "note": 74, "velocity": 111, "channel": 0}, {"type": "note_off", "time": 107, "note": 74, "velocity": 111, "channel": 0}, {"type": "note_on", "time": 15, "note": 73, "velocity": 118, "channel": 0}, {"type": "note_off", "time": 83, "note": 73, "velocity": 118, "channel": 0}, {"type": "note_on", "time": 7, "note": 72, "velocity": 116, "channel": 0}, {"type": "note_off", "time": 69, "note": 72, "velocity": 116, "channel": 0}, {"type": "note_on", "time": 11, "note": 71, "velocity": 110, "channel": 0}, {"type": "note_off", "time": 105, "note": 71, "velocity": 110, "channel": 0}, {"type": "note_on", "time": 35, "note": 70, "velocity": 110, "channel": 0}, {"type": "note_off", "time": 47, "note": 70, "velocity": 110, "channel": 0}, {"type": "note_on", "time": 21, "note": 69, "velocity": 113, "channel": 0}, {"type": "note_off", "time": 109, "note": 69, "velocity": 113, "channel": 0}, {"type": "note_on", "time": 13, "note": 68, "velocity": 109, "channel": 0}, {"type": "note_off", "time": 101, "note": 68, "velocity": 109, "channel": 0}, {"type": "note_on", "time": 2, "note": 66, "velocity": 84, "channel": 0}, {"type": "note_off", "time": 73, "note": 66, "velocity": 84, "channel": 0}, {"type": "note_on", "time": 13, "note": 67, "velocity": 114, "channel": 0}, {"type": "note_off", "time": 123, "note": 67, "velocity": 114, "channel": 0}, {"type": "note_on", "time": 33, "note": 66, "velocity": 114, "channel": 0}, {"type": "note_off", "time": 175, "note": 66, "velocity": 114, "channel": 0}, {"type": "note_on", "time": 295, "note": 61, "velocity": 84, "channel": 0}, {"type": "note_off", "time": 59, "note": 61, "velocity": 84, "channel": 0}, {"type": "note_on", "time": 119, "note": 64, "velocity": 91, "channel": 0}, {"type": "note_off", "time": 83, "note": 64, "velocity": 91, "channel": 0}, {"type": "note_on", "time": 9, "note": 65, "velocity": 107, "channel": 0}, {"type": "note_off", "time": 113, "note": 65, "velocity": 107, "channel": 0}, {"type": "note_on", "time": 13, "note": 64, "velocity": 107, "channel": 0}, {"type": "note_off", "time": 79, "note": 64, "velocity": 107, "channel": 0}, {"type": "note_on", "time": 23, "note": 63, "velocity": 103, "channel": 0}, {"type": "note_off", "time": 125, "note": 63, "velocity": 103, "channel": 0}, {"type": "note_on", "time": 21, "note": 62, "velocity": 103, "channel": 0}, {"type": "note_off", "time": 97, "note": 62, "velocity": 103, "channel": 0}, {"type": "note_on", "time": 35, "note": 53, "velocity": 97, "channel": 0}, {"type": "note_off", "time": 75, "note": 53, "velocity": 97, "channel": 0}, {"type": "note_on", "time": 19, "note": 55, "velocity": 96, "channel": 0}, {"type": "note_off", "time": 57, "note": 55, "velocity": 96, "channel": 0}, {"type": "note_on", "time": 11, "note": 57, "velocity": 91, "channel": 0}, {"type": "note_off", "time": 55, "note": 57, "velocity": 91, "channel": 0}, {"type": "note_on", "time": 51, "note": 60, "velocity": 104, "channel": 0}, {"type": "note_off", "time": 109, "note": 60, "velocity": 104, "channel": 0}, {"type": "note_on", "time": 51, "note": 58, "velocity": 91, "channel": 0}, {"type": "note_off", "time": 75, "note": 58, "velocity": 91, "channel": 0}, {"type": "note_on", "time": 37, "note": 62, "velocity": 105, "channel": 0}, {"type": "note_off", "time": 101, "note": 62, "velocity": 105, "channel": 0}, {"type": "note_on", "time": 23, "note": 60, "velocity": 99, "channel": 0}, {"type": "note_off", "time": 67, "note": 60, "velocity": 99, "channel": 0}, {"type": "note_on", "time": 29, "note": 64, "velocity": 110, "channel": 0}, {"type": "note_off", "time": 97, "note": 64, "velocity": 110, "channel": 0}, {"type": "note_on", "time": 15, "note": 63, "velocity": 106, "channel": 0}, {"type": "note_off", "time": 67, "note": 63, "velocity": 106, "channel": 0}, {"type": "note_on", "time": 37, "note": 59, "velocity": 89, "channel": 0}, {"type": "note_off", "time": 51, "note": 59, "velocity": 89, "channel": 0}, {"type": "note_on", "time": 21, "note": 62, "velocity": 98, "channel": 0}, {"type": "note_off", "time": 111, "note": 62, "velocity": 98, "channel": 0}, {"type": "note_on", "time": 29, "note": 58, "velocity": 89, "channel": 0}, {"type": "note_off", "time": 29, "note": 58, "velocity": 89, "channel": 0}, {"type": "note_on", "time": 15, "note": 61, "velocity": 104, "channel": 0}, {"type": "note_off", "time": 99, "note": 61, "velocity": 104, "channel": 0}, {"type": "note_on", "time": 17, "note": 57, "velocity": 90, "channel": 0}, {"type": "note_off", "time": 43, "note": 57, "velocity": 90, "channel": 0}, {"type": "note_on", "time": 13, "note": 60, "velocity": 95, "channel": 0}, {"type": "note_off", "time": 75, "note": 60, "velocity": 95, "channel": 0}, {"type": "note_on", "time": 30, "note": 65, "velocity": 117, "channel": 0}, {"type": "note_off", "time": 45, "note": 65, "velocity": 117, "channel": 0}, {"type": "note_on", "time": 22, "note": 65, "velocity": 114, "channel": 0}, {"type": "note_off", "time": 272, "note": 65, "velocity": 114, "channel": 0}, {"type": "note_on", "time": 8, "note": 55, "velocity": 100, "channel": 0}, {"type": "note_off", "time": 71, "note": 55, "velocity": 100, "channel": 0}, {"type": "note_on", "time": 17, "note": 57, "velocity": 89, "channel": 0}, {"type": "note_off", "time": 43, "note": 57, "velocity": 89, "channel": 0}, {"type": "note_on", "time": 31, "note": 60, "velocity": 107, "channel": 0}, {"type": "note_off", "time": 273, "note": 60, "velocity": 107, "channel": 0}, {"type": "note_on", "time": 131, "note": 53, "velocity": 93, "channel": 0}, {"type": "note_off", "time": 103, "note": 53, "velocity": 93, "channel": 0}, {"type": "note_on", "time": 21, "note": 54, "velocity": 92, "channel": 0}, {"type": "note_off", "time": 55, "note": 54, "velocity": 92, "channel": 0}, {"type": "note_on", "time": 43, "note": 58, "velocity": 103, "channel": 0}, {"type": "note_off", "time": 211, "note": 58, "velocity": 103, "channel": 0}, {"type": "note_on", "time": 41, "note": 52, "velocity": 101, "channel": 0}, {"type": "note_off", "time": 93, "note": 52, "velocity": 101, "channel": 0}, {"type": "note_on", "time": 75, "note": 57, "velocity": 99, "channel": 0}, {"type": "note_off", "time": 147, "note": 57, "velocity": 99, "channel": 0}, {"type": "note_on", "time": 33, "note": 49, "velocity": 94, "channel": 0}, {"type": "note_off", "time": 95, "note": 49, "velocity": 94, "channel": 0}, {"type": "note_on", "time": 33, "note": 54, "velocity": 98, "channel": 0}, {"type": "note_off", "time": 159, "note": 54, "velocity": 98, "channel": 0}, {"type": "note_on", "time": 32, "note": 59, "velocity": 108, "channel": 0}, {"type": "note_off", "time": 39, "note": 59, "velocity": 108, "channel": 0}, {"type": "note_on", "time": 17, "note": 59, "velocity": 98, "channel": 0}, {"type": "note_off", "time": 130, "note": 59, "velocity": 98, "channel": 0}, {"type": "note_on", "time": 9, "note": 56, "velocity": 98, "channel": 0}, {"type": "note_off", "time": 111, "note": 56, "velocity": 98, "channel": 0}, {"type": "note_on", "time": 66, "note": 61, "velocity": 105, "channel": 0}, {"type": "note_off", "time": 34, "note": 61, "velocity": 105, "channel": 0}, {"type": "note_on", "time": 28, "note": 61, "velocity": 105, "channel": 0}, {"type": "note_off", "time": 135, "note": 61, "velocity": 105, "channel": 0}, {"type": "note_on", "time": 0, "note": 59, "velocity": 89, "channel": 0}, {"type": "note_off", "time": 135, "note": 59, "velocity": 89, "channel": 0}, {"type": "note_on", "time": 52, "note": 64, "velocity": 116, "channel": 0}, {"type": "note_off", "time": 34, "note": 64, "velocity": 116, "channel": 0}, {"type": "note_on", "time": 34, "note": 64, "velocity": 113, "channel": 0}, {"type": "note_off", "time": 136, "note": 64, "velocity": 113, "channel": 0}, {"type": "note_on", "time": 10, "note": 61, "velocity": 92, "channel": 0}, {"type": "note_off", "time": 115, "note": 61, "velocity": 92, "channel": 0}, {"type": "note_on", "time": 44, "note": 66, "velocity": 106, "channel": 0}, {"type": "note_off", "time": 34, "note": 66, "velocity": 106, "channel": 0}, {"type": "note_on", "time": 22, "note": 66, "velocity": 116, "channel": 0}, {"type": "note_off", "time": 153, "note": 66, "velocity": 116, "channel": 0}, {"type": "note_on", "time": 0, "note": 63, "velocity": 105, "channel": 0}, {"type": "note_off", "time": 75, "note": 63, "velocity": 105, "channel": 0}, {"type": "note_on", "time": 99, "note": 68, "velocity": 109, "channel": 0}, {"type": "note_off", "time": 269, "note": 68, "velocity": 109, "channel": 0}, {"type": "note_on", "time": 13, "note": 65, "velocity": 115, "channel": 0}, {"type": "note_off", "time": 101, "note": 65, "velocity": 115, "channel": 0}, {"type": "note_on", "time": 89, "note": 70, "velocity": 111, "channel": 0}, {"type": "note_off", "time": 141, "note": 70, "velocity": 111, "channel": 0}, {"type": "note_on", "time": 69, "note": 62, "velocity": 108, "channel": 0}, {"type": "note_off", "time": 93, "note": 62, "velocity": 108, "channel": 0}, {"type": "note_on", "time": 87, "note": 67, "velocity": 108, "channel": 0}, {"type": "note_off", "time": 285, "note": 67, "velocity": 108, "channel": 0}, {"type": "note_on", "time": 33, "note": 64, "velocity": 112, "channel": 0}, {"type": "note_off", "time": 105, "note": 64, "velocity": 112, "channel": 0}, {"type": "note_on", "time": 57, "note": 59, "velocity": 101, "channel": 0}, {"type": "note_off", "time": 149, "note": 59, "velocity": 101, "channel": 0}, {"type": "note_on", "time": 53, "note": 54, "velocity": 98, "channel": 0}, {"type": "note_off", "time": 85, "note": 54, "velocity": 98, "channel": 0}, {"type": "note_on", "time": 117, "note": 52, "velocity": 91, "channel": 0}, {"type": "note_off", "time": 127, "note": 52, "velocity": 91, "channel": 0}, {"type": "note_on", "time": 57, "note": 57, "velocity": 92, "channel": 0}, {"type": "note_off", "time": 161, "note": 57, "velocity": 92, "channel": 0}, {"type": "note_on", "time": 745, "note": 66, "velocity": 116, "channel": 0}, {"type": "note_off", "time": 97, "note": 66, "velocity": 116, "channel": 0}, {"type": "note_on", "time": 11, "note": 63, "velocity": 116, "channel": 0}, {"type": "note_off", "time": 91, "note": 63, "velocity": 116, "channel": 0}, {"type": "note_on", "time": 33, "note": 61, "velocity": 96, "channel": 0}, {"type": "note_off", "time": 79, "note": 61, "velocity": 96, "channel": 0}, {"type": "note_on", "time": 15, "note": 57, "velocity": 87, "channel": 0}, {"type": "note_off", "time": 65, "note": 57, "velocity": 87, "channel": 0}, {"type": "note_on", "time": 21, "note": 60, "velocity": 112, "channel": 0}, {"type": "note_off", "time": 107, "note": 60, "velocity": 112, "channel": 0}, {"type": "note_on", "time": 7, "note": 57, "velocity": 100, "channel": 0}, {"type": "note_off", "time": 89, "note": 57, "velocity": 100, "channel": 0}, {"type": "note_on", "time": 13, "note": 56, "velocity": 89, "channel": 0}, {"type": "note_off", "time": 35, "note": 56, "velocity": 89, "channel": 0}, {"type": "note_on", "time": 17, "note": 54, "velocity": 96, "channel": 0}, {"type": "note_off", "time": 65, "note": 54, "velocity": 96, "channel": 0}, {"type": "note_on", "time": 17, "note": 53, "velocity": 86, "channel": 0}, {"type": "note_off", "time": 53, "note": 53, "velocity": 86, "channel": 0}, {"type": "note_on", "time": 33, "note": 51, "velocity": 99, "channel": 0}, {"type": "note_off", "time": 99, "note": 51, "velocity": 99, "channel": 0}, {"type": "note_on", "time": 21, "note": 50, "velocity": 96, "channel": 0}, {"type": "note_off", "time": 141, "note": 50, "velocity": 96, "channel": 0}, {"type": "note_on", "time": 31, "note": 53, "velocity": 99, "channel": 0}, {"type": "note_off", "time": 173, "note": 53, "velocity": 99, "channel": 0}, {"type": "note_on", "time": 37, "note": 58, "velocity": 102, "channel": 0}, {"type": "note_off", "time": 153, "note": 58, "velocity": 102, "channel": 0}, {"type": "note_on", "time": 683, "note": 64, "velocity": 110, "channel": 0}, {"type": "note_off", "time": 97, "note": 64, "velocity": 110, "channel": 0}, {"type": "note_on", "time": 85, "note": 59, "velocity": 106, "channel": 0}, {"type": "note_off", "time": 93, "note": 59, "velocity": 106, "channel": 0}, {"type": "note_on", "time": 13, "note": 56, "velocity": 106, "channel": 0}, {"type": "note_off", "time": 99, "note": 56, "velocity": 106, "channel": 0}, {"type": "note_on", "time": 15, "note": 55, "velocity": 90, "channel": 0}, {"type": "note_off", "time": 73, "note": 55, "velocity": 90, "channel": 0}, {"type": "note_on", "time": 7, "note": 58, "velocity": 98, "channel": 0}, {"type": "note_off", "time": 67, "note": 58, "velocity": 98, "channel": 0}, {"type": "note_on", "time": 29, "note": 62, "velocity": 99, "channel": 0}, {"type": "note_off", "time": 55, "note": 62, "velocity": 99, "channel": 0}, {"type": "note_on", "time": 17, "note": 65, "velocity": 112, "channel": 0}, {"type": "note_off", "time": 167, "note": 65, "velocity": 112, "channel": 0}, {"type": "note_on", "time": 29, "note": 64, "velocity": 93, "channel": 0}, {"type": "note_off", "time": 85, "note": 64, "velocity": 93, "channel": 0}, {"type": "note_on", "time": 27, "note": 68, "velocity": 106, "channel": 0}, {"type": "note_off", "time": 75, "note": 68, "velocity": 106, "channel": 0}, {"type": "note_on", "time": 27, "note": 71, "velocity": 115, "channel": 0}, {"type": "note_off", "time": 121, "note": 71, "velocity": 115, "channel": 0}, {"type": "note_on", "time": 57, "note": 74, "velocity": 111, "channel": 0}, {"type": "note_off", "time": 85, "note": 74, "velocity": 111, "channel": 0}, {"type": "note_on", "time": 15, "note": 75, "velocity": 118, "channel": 0}, {"type": "note_off", "time": 65, "note": 75, "velocity": 118, "channel": 0}, {"type": "note_on", "time": 27, "note": 77, "velocity": 105, "channel": 0}, {"type": "note_off", "time": 107, "note": 77, "velocity": 105, "channel": 0}, {"type": "note_on", "time": 23, "note": 75, "velocity": 118, "channel": 0}, {"type": "note_off", "time": 131, "note": 75, "velocity": 118, "channel": 0}, {"type": "note_on", "time": 35, "note": 73, "velocity": 118, "channel": 0}, {"type": "note_off", "time": 131, "note": 73, "velocity": 118, "channel": 0}, {"type": "note_on", "time": 19, "note": 72, "velocity": 117, "channel": 0}, {"type": "note_off", "time": 51, "note": 72, "velocity": 117, "channel": 0}, {"type": "note_on", "time": 35, "note": 71, "velocity": 118, "channel": 0}, {"type": "note_off", "time": 99, "note": 71, "velocity": 118, "channel": 0}, {"type": "note_on", "time": 25, "note": 70, "velocity": 116, "channel": 0}, {"type": "note_off", "time": 123, "note": 70, "velocity": 116, "channel": 0}, {"type": "note_on", "time": 13, "note": 69, "velocity": 113, "channel": 0}, {"type": "note_off", "time": 157, "note": 69, "velocity": 113, "channel": 0}, {"type": "note_on", "time": 39, "note": 68, "velocity": 114, "channel": 0}, {"type": "note_off", "time": 149, "note": 68, "velocity": 114, "channel": 0}, {"type": "note_on", "time": 33, "note": 67, "velocity": 111, "channel": 0}, {"type": "note_off", "time": 61, "note": 67, "velocity": 111, "channel": 0}, {"type": "note_on", "time": 31, "note": 70, "velocity": 119, "channel": 0}, {"type": "note_off", "time": 109, "note": 70, "velocity": 119, "channel": 0}, {"type": "note_on", "time": 19, "note": 68, "velocity": 111, "channel": 0}, {"type": "note_off", "time": 45, "note": 68, "velocity": 111, "channel": 0}, {"type": "note_on", "time": 25, "note": 65, "velocity": 107, "channel": 0}, {"type": "note_off", "time": 105, "note": 65, "velocity": 107, "channel": 0}, {"type": "note_on", "time": 13, "note": 64, "velocity": 94, "channel": 0}, {"type": "note_off", "time": 43, "note": 64, "velocity": 94, "channel": 0}, {"type": "note_on", "time": 27, "note": 59, "velocity": 94, "channel": 0}, {"type": "note_off", "time": 53, "note": 59, "velocity": 94, "channel": 0}, {"type": "note_on", "time": 11, "note": 58, "velocity": 92, "channel": 0}, {"type": "note_off", "time": 47, "note": 58, "velocity": 92, "channel": 0}, {"type": "note_on", "time": 9, "note": 61, "velocity": 100, "channel": 0}, {"type": "note_off", "time": 53, "note": 61, "velocity": 100, "channel": 0}, {"type": "note_on", "time": 19, "note": 63, "velocity": 102, "channel": 0}, {"type": "note_off", "time": 63, "note": 63, "velocity": 102, "channel": 0}, {"type": "note_on", "time": 27, "note": 65, "velocity": 115, "channel": 0}, {"type": "note_off", "time": 115, "note": 65, "velocity": 115, "channel": 0}, {"type": "note_on", "time": 101, "note": 66, "velocity": 115, "channel": 0}, {"type": "note_off", "time": 117, "note": 66, "velocity": 115, "channel": 0}, {"type": "note_on", "time": 5, "note": 67, "velocity": 100, "channel": 0}, {"type": "note_off", "time": 45, "note": 67, "velocity": 100, "channel": 0}, {"type": "note_on", "time": 69, "note": 68, "velocity": 116, "channel": 0}, {"type": "note_off", "time": 125, "note": 68, "velocity": 116, "channel": 0}, {"type": "note_on", "time": 75, "note": 71, "velocity": 112, "channel": 0}, {"type": "note_off", "time": 117, "note": 71, "velocity": 112, "channel": 0}, {"type": "note_on", "time": 49, "note": 68, "velocity": 113, "channel": 0}, {"type": "note_off", "time": 117, "note": 68, "velocity": 113, "channel": 0}, {"type": "note_on", "time": 17, "note": 66, "velocity": 106, "channel": 0}, {"type": "note_off", "time": 75, "note": 66, "velocity": 106, "channel": 0}, {"type": "note_on", "time": 21, "note": 64, "velocity": 105, "channel": 0}, {"type": "note_off", "time": 103, "note": 64, "velocity": 105, "channel": 0}, {"type": "note_on", "time": 19, "note": 62, "velocity": 102, "channel": 0}, {"type": "note_off", "time": 49, "note": 62, "velocity": 102, "channel": 0}, {"type": "note_on", "time": 35, "note": 59, "velocity": 97, "channel": 0}, {"type": "note_off", "time": 53, "note": 59, "velocity": 97, "channel": 0}, {"type": "note_on", "time": 33, "note": 57, "velocity": 94, "channel": 0}, {"type": "note_off", "time": 65, "note": 57, "velocity": 94, "channel": 0}, {"type": "note_on", "time": 21, "note": 53, "velocity": 94, "channel": 0}, {"type": "note_off", "time": 77, "note": 53, "velocity": 94, "channel": 0}, {"type": "note_on", "time": 33, "note": 56, "velocity": 104, "channel": 0}, {"type": "note_off", "time": 89, "note": 56, "velocity": 104, "channel": 0}, {"type": "note_on", "time": 25, "note": 51, "velocity": 99, "channel": 0}, {"type": "note_off", "time": 34, "note": 51, "velocity": 99, "channel": 0}, {"type": "note_on", "time": 11, "note": 50, "velocity": 94, "channel": 0}, {"type": "note_off", "time": 56, "note": 50, "velocity": 94, "channel": 0}, {"type": "note_on", "time": 5, "note": 55, "velocity": 92, "channel": 0}, {"type": "note_off", "time": 177, "note": 55, "velocity": 92, "channel": 0}, {"type": "note_on", "time": 1007, "note": 62, "velocity": 108, "channel": 0}, {"type": "note_off", "time": 111, "note": 62, "velocity": 108, "channel": 0}, {"type": "note_on", "time": 67, "note": 63, "velocity": 105, "channel": 0}, {"type": "note_off", "time": 85, "note": 63, "velocity": 105, "channel": 0}, {"type": "note_on", "time": 89, "note": 67, "velocity": 118, "channel": 0}, {"type": "note_off", "time": 119, "note": 67, "velocity": 118, "channel": 0}, {"type": "note_on", "time": 77, "note": 70, "velocity": 123, "channel": 0}, {"type": "note_off", "time": 125, "note": 70, "velocity": 123, "channel": 0}, {"type": "note_on", "time": 91, "note": 73, "velocity": 121, "channel": 0}, {"type": "note_off", "time": 125, "note": 73, "velocity": 121, "channel": 0}, {"type": "note_on", "time": 37, "note": 74, "velocity": 123, "channel": 0}, {"type": "note_off", "time": 77, "note": 74, "velocity": 123, "channel": 0}, {"type": "note_on", "time": 31, "note": 75, "velocity": 118, "channel": 0}, {"type": "note_off", "time": 251, "note": 75, "velocity": 118, "channel": 0}, {"type": "note_on", "time": 35, "note": 74, "velocity": 123, "channel": 0}, {"type": "note_off", "time": 111, "note": 74, "velocity": 123, "channel": 0}, {"type": "note_on", "time": 19, "note": 73, "velocity": 120, "channel": 0}, {"type": "note_off", "time": 55, "note": 73, "velocity": 120, "channel": 0}, {"type": "note_on", "time": 23, "note": 70, "velocity": 121, "channel": 0}, {"type": "note_off", "time": 79, "note": 70, "velocity": 121, "channel": 0}, {"type": "note_on", "time": 29, "note": 68, "velocity": 113, "channel": 0}, {"type": "note_off", "time": 71, "note": 68, "velocity": 113, "channel": 0}, {"type": "note_on", "time": 27, "note": 65, "velocity": 104, "channel": 0}, {"type": "note_off", "time": 81, "note": 65, "velocity": 104, "channel": 0}, {"type": "note_on", "time": 13, "note": 64, "velocity": 91, "channel": 0}, {"type": "note_off", "time": 75, "note": 64, "velocity": 91, "channel": 0}, {"type": "note_on", "time": 19, "note": 60, "velocity": 91, "channel": 0}, {"type": "note_off", "time": 45, "note": 60, "velocity": 91, "channel": 0}, {"type": "note_on", "time": 29, "note": 63, "velocity": 100, "channel": 0}, {"type": "note_off", "time": 121, "note": 63, "velocity": 100, "channel": 0}, {"type": "note_on", "time": 43, "note": 61, "velocity": 91, "channel": 0}, {"type": "note_off", "time": 203, "note": 61, "velocity": 91, "channel": 0}, {"type": "note_on", "time": 639, "note": 54, "velocity": 93, "channel": 0}, {"type": "note_off", "time": 59, "note": 54, "velocity": 93, "channel": 0}, {"type": "note_on", "time": 25, "note": 58, "velocity": 88, "channel": 0}, {"type": "note_off", "time": 55, "note": 58, "velocity": 88, "channel": 0}, {"type": "note_on", "time": 37, "note": 61, "velocity": 99, "channel": 0}, {"type": "note_off", "time": 119, "note": 61, "velocity": 99, "channel": 0}, {"type": "note_on", "time": 23, "note": 63, "velocity": 106, "channel": 0}, {"type": "note_off", "time": 67, "note": 63, "velocity": 106, "channel": 0}, {"type": "note_on", "time": 9, "note": 65, "velocity": 111, "channel": 0}, {"type": "note_off", "time": 83, "note": 65, "velocity": 111, "channel": 0}, {"type": "note_on", "time": 9, "note": 66, "velocity": 102, "channel": 0}, {"type": "note_off", "time": 65, "note": 66, "velocity": 102, "channel": 0}, {"type": "note_on", "time": 35, "note": 68, "velocity": 110, "channel": 0}, {"type": "note_off", "time": 87, "note": 68, "velocity": 110, "channel": 0}, {"type": "note_on", "time": 11, "note": 67, "velocity": 106, "channel": 0}, {"type": "note_off", "time": 75, "note": 67, "velocity": 106, "channel": 0}, {"type": "note_on", "time": 29, "note": 70, "velocity": 119, "channel": 0}, {"type": "note_off", "time": 107, "note": 70, "velocity": 119, "channel": 0}, {"type": "note_on", "time": 21, "note": 69, "velocity": 112, "channel": 0}, {"type": "note_off", "time": 95, "note": 69, "velocity": 112, "channel": 0}, {"type": "note_on", "time": 49, "note": 68, "velocity": 114, "channel": 0}, {"type": "note_off", "time": 107, "note": 68, "velocity": 114, "channel": 0}, {"type": "note_on", "time": 21, "note": 65, "velocity": 110, "channel": 0}, {"type": "note_off", "time": 81, "note": 65, "velocity": 110, "channel": 0}, {"type": "note_on", "time": 21, "note": 64, "velocity": 104, "channel": 0}, {"type": "note_off", "time": 61, "note": 64, "velocity": 104, "channel": 0}, {"type": "note_on", "time": 21, "note": 63, "velocity": 96, "channel": 0}, {"type": "note_off", "time": 77, "note": 63, "velocity": 96, "channel": 0}, {"type": "note_on", "time": 87, "note": 61, "velocity": 104, "channel": 0}, {"type": "note_off", "time": 139, "note": 61, "velocity": 104, "channel": 0}, {"type": "note_on", "time": 27, "note": 60, "velocity": 99, "channel": 0}, {"type": "note_off", "time": 69, "note": 60, "velocity": 99, "channel": 0}, {"type": "note_on", "time": 9, "note": 56, "velocity": 94, "channel": 0}, {"type": "note_off", "time": 49, "note": 56, "velocity": 94, "channel": 0}, {"type": "note_on", "time": 21, "note": 59, "velocity": 107, "channel": 0}, {"type": "note_off", "time": 103, "note": 59, "velocity": 107, "channel": 0}, {"type": "note_on", "time": 21, "note": 55, "velocity": 94, "channel": 0}, {"type": "note_off", "time": 39, "note": 55, "velocity": 94, "channel": 0}, {"type": "note_on", "time": 21, "note": 58, "velocity": 98, "channel": 0}, {"type": "note_off", "time": 91, "note": 58, "velocity": 98, "channel": 0}, {"type": "note_on", "time": 103, "note": 78, "velocity": 109, "channel": 0}, {"type": "note_off", "time": 99, "note": 78, "velocity": 109, "channel": 0}, {"type": "note_on", "time": 9, "note": 79, "velocity": 104, "channel": 0}, {"type": "note_off", "time": 65, "note": 79, "velocity": 104, "channel": 0}, {"type": "note_on", "time": 171, "note": 77, "velocity": 118, "channel": 0}, {"type": "note_off", "time": 227, "note": 77, "velocity": 118, "channel": 0}, {"type": "note_on", "time": 63, "note": 70, "velocity": 116, "channel": 0}, {"type": "note_off", "time": 121, "note": 70, "velocity": 116, "channel": 0}, {"type": "note_on", "time": 71, "note": 70, "velocity": 120, "channel": 0}, {"type": "note_off", "time": 113, "note": 70, "velocity": 120, "channel": 0}, {"type": "note_on", "time": 179, "note": 70, "velocity": 118, "channel": 0}, {"type": "note_off", "time": 135, "note": 70, "velocity": 118, "channel": 0}, {"type": "note_on", "time": 57, "note": 70, "velocity": 120, "channel": 0}, {"type": "note_off", "time": 89, "note": 70, "velocity": 120, "channel": 0}, {"type": "note_on", "time": 103, "note": 81, "velocity": 108, "channel": 0}, {"type": "note_off", "time": 153, "note": 81, "velocity": 108, "channel": 0}, {"type": "note_on", "time": 9, "note": 82, "velocity": 89, "channel": 0}, {"type": "note_off", "time": 51, "note": 82, "velocity": 89, "channel": 0}, {"type": "note_on", "time": 155, "note": 80, "velocity": 108, "channel": 0}, {"type": "note_off", "time": 191, "note": 80, "velocity": 108, "channel": 0}, {"type": "note_on", "time": 77, "note": 77, "velocity": 102, "channel": 0}, {"type": "note_off", "time": 59, "note": 77, "velocity": 102, "channel": 0}, {"type": "note_on", "time": 29, "note": 76, "velocity": 119, "channel": 0}, {"type": "note_off", "time": 77, "note": 76, "velocity": 119, "channel": 0}, {"type": "note_on", "time": 35, "note": 73, "velocity": 107, "channel": 0}, {"type": "note_off", "time": 73, "note": 73, "velocity": 107, "channel": 0}, {"type": "note_on", "time": 19, "note": 70, "velocity": 102, "channel": 0}, {"type": "note_off", "time": 71, "note": 70, "velocity": 102, "channel": 0}, {"type": "note_on", "time": 25, "note": 68, "velocity": 89, "channel": 0}, {"type": "note_off", "time": 63, "note": 68, "velocity": 89, "channel": 0}, {"type": "note_on", "time": 27, "note": 65, "velocity": 104, "channel": 0}, {"type": "note_off", "time": 115, "note": 65, "velocity": 104, "channel": 0}, {"type": "note_on", "time": 23, "note": 64, "velocity": 114, "channel": 0}, {"type": "note_off", "time": 67, "note": 64, "velocity": 114, "channel": 0}, {"type": "note_on", "time": 35, "note": 63, "velocity": 106, "channel": 0}, {"type": "note_off", "time": 71, "note": 63, "velocity": 106, "channel": 0}, {"type": "note_on", "time": 25, "note": 64, "velocity": 92, "channel": 0}, {"type": "note_off", "time": 37, "note": 64, "velocity": 92, "channel": 0}, {"type": "note_on", "time": 19, "note": 61, "velocity": 97, "channel": 0}, {"type": "note_off", "time": 109, "note": 61, "velocity": 97, "channel": 0}, {"type": "note_on", "time": 17, "note": 62, "velocity": 99, "channel": 0}, {"type": "note_off", "time": 33, "note": 62, "velocity": 99, "channel": 0}, {"type": "note_on", "time": 43, "note": 70, "velocity": 108, "channel": 0}, {"type": "note_off", "time": 81, "note": 70, "velocity": 108, "channel": 0}, {"type": "note_on", "time": 43, "note": 67, "velocity": 101, "channel": 0}, {"type": "note_off", "time": 153, "note": 67, "velocity": 101, "channel": 0}, {"type": "note_on", "time": 17, "note": 59, "velocity": 99, "channel": 0}, {"type": "note_off", "time": 119, "note": 59, "velocity": 99, "channel": 0}, {"type": "note_on", "time": 377, "note": 62, "velocity": 110, "channel": 0}, {"type": "note_off", "time": 79, "note": 62, "velocity": 110, "channel": 0}, {"type": "note_on", "time": 37, "note": 59, "velocity": 101, "channel": 0}, {"type": "note_off", "time": 81, "note": 59, "velocity": 101, "channel": 0}, {"type": "note_on", "time": 19, "note": 62, "velocity": 105, "channel": 0}, {"type": "note_off", "time": 97, "note": 62, "velocity": 105, "channel": 0}, {"type": "note_on", "time": 5, "note": 63, "velocity": 104, "channel": 0}, {"type": "note_off", "time": 117, "note": 63, "velocity": 104, "channel": 0}, {"type": "note_on", "time": 51, "note": 70, "velocity": 111, "channel": 0}, {"type": "note_off", "time": 107, "note": 70, "velocity": 111, "channel": 0}, {"type": "note_on", "time": 19, "note": 67, "velocity": 92, "channel": 0}, {"type": "note_off", "time": 51, "note": 67, "velocity": 92, "channel": 0}, {"type": "note_on", "time": 15, "note": 69, "velocity": 106, "channel": 0}, {"type": "note_off", "time": 73, "note": 69, "velocity": 106, "channel": 0}, {"type": "note_on", "time": 39, "note": 77, "velocity": 121, "channel": 0}, {"type": "note_off", "time": 99, "note": 77, "velocity": 121, "channel": 0}, {"type": "note_on", "time": 13, "note": 76, "velocity": 109, "channel": 0}, {"type": "note_off", "time": 89, "note": 76, "velocity": 109, "channel": 0}, {"type": "note_on", "time": 11, "note": 73, "velocity": 85, "channel": 0}, {"type": "note_off", "time": 43, "note": 73, "velocity": 85, "channel": 0}, {"type": "note_on", "time": 19, "note": 75, "velocity": 115, "channel": 0}, {"type": "note_off", "time": 91, "note": 75, "velocity": 115, "channel": 0}, {"type": "note_on", "time": 39, "note": 72, "velocity": 119, "channel": 0}, {"type": "note_off", "time": 77, "note": 72, "velocity": 119, "channel": 0}, {"type": "note_on", "time": 17, "note": 70, "velocity": 115, "channel": 0}, {"type": "note_off", "time": 71, "note": 70, "velocity": 115, "channel": 0}, {"type": "note_on", "time": 25, "note": 68, "velocity": 109, "channel": 0}, {"type": "note_off", "time": 85, "note": 68, "velocity": 109, "channel": 0}, {"type": "note_on", "time": 49, "note": 66, "velocity": 99, "channel": 0}, {"type": "note_off", "time": 73, "note": 66, "velocity": 99, "channel": 0}, {"type": "note_on", "time": 13, "note": 62, "velocity": 98, "channel": 0}, {"type": "note_off", "time": 39, "note": 62, "velocity": 98, "channel": 0}, {"type": "note_on", "time": 13, "note": 65, "velocity": 103, "channel": 0}, {"type": "note_off", "time": 113, "note": 65, "velocity": 103, "channel": 0}, {"type": "note_on", "time": 97, "note": 64, "velocity": 104, "channel": 0}, {"type": "note_off", "time": 165, "note": 64, "velocity": 104, "channel": 0}, {"type": "note_on", "time": 35, "note": 63, "velocity": 88, "channel": 0}, {"type": "note_off", "time": 135, "note": 63, "velocity": 88, "channel": 0}, {"type": "note_on", "time": 13, "note": 64, "velocity": 89, "channel": 0}, {"type": "note_off", "time": 59, "note": 64, "velocity": 89, "channel": 0}, {"type": "note_on", "time": 407, "note": 64, "velocity": 103, "channel": 0}, {"type": "note_off", "time": 111, "note": 64, "velocity": 103, "channel": 0}, {"type": "note_on", "time": 59, "note": 66, "velocity": 98, "channel": 0}, {"type": "note_off", "time": 61, "note": 66, "velocity": 98, "channel": 0}, {"type": "note_on", "time": 37, "note": 68, "velocity": 114, "channel": 0}, {"type": "note_off", "time": 97, "note": 68, "velocity": 114, "channel": 0}, {"type": "note_on", "time": 17, "note": 66, "velocity": 100, "channel": 0}, {"type": "note_off", "time": 35, "note": 66, "velocity": 100, "channel": 0}, {"type": "note_on", "time": 23, "note": 67, "velocity": 110, "channel": 0}, {"type": "note_off", "time": 77, "note": 67, "velocity": 110, "channel": 0}, {"type": "note_on", "time": 29, "note": 65, "velocity": 109, "channel": 0}, {"type": "note_off", "time": 85, "note": 65, "velocity": 109, "channel": 0}, {"type": "note_on", "time": 35, "note": 63, "velocity": 98, "channel": 0}, {"type": "note_off", "time": 69, "note": 63, "velocity": 98, "channel": 0}, {"type": "note_on", "time": 37, "note": 59, "velocity": 94, "channel": 0}, {"type": "note_off", "time": 51, "note": 59, "velocity": 94, "channel": 0}, {"type": "note_on", "time": 31, "note": 62, "velocity": 97, "channel": 0}, {"type": "note_off", "time": 53, "note": 62, "velocity": 97, "channel": 0}, {"type": "note_on", "time": 25, "note": 64, "velocity": 106, "channel": 0}, {"type": "note_off", "time": 65, "note": 64, "velocity": 106, "channel": 0}, {"type": "note_on", "time": 35, "note": 66, "velocity": 115, "channel": 0}, {"type": "note_off", "time": 71, "note": 66, "velocity": 115, "channel": 0}, {"type": "note_on", "time": 17, "note": 67, "velocity": 101, "channel": 0}, {"type": "note_off", "time": 93, "note": 67, "velocity": 101, "channel": 0}, {"type": "note_on", "time": 17, "note": 69, "velocity": 98, "channel": 0}, {"type": "note_off", "time": 55, "note": 69, "velocity": 98, "channel": 0}, {"type": "note_on", "time": 9, "note": 70, "velocity": 112, "channel": 0}, {"type": "note_off", "time": 75, "note": 70, "velocity": 112, "channel": 0}, {"type": "note_on", "time": 13, "note": 71, "velocity": 113, "channel": 0}, {"type": "note_off", "time": 93, "note": 71, "velocity": 113, "channel": 0}, {"type": "note_on", "time": 17, "note": 72, "velocity": 115, "channel": 0}, {"type": "note_off", "time": 99, "note": 72, "velocity": 115, "channel": 0}, {"type": "note_on", "time": 13, "note": 73, "velocity": 113, "channel": 0}, {"type": "note_off", "time": 45, "note": 73, "velocity": 113, "channel": 0}, {"type": "note_on", "time": 7, "note": 72, "velocity": 120, "channel": 0}, {"type": "note_off", "time": 103, "note": 72, "velocity": 120, "channel": 0}, {"type": "note_on", "time": 23, "note": 71, "velocity": 117, "channel": 0}, {"type": "note_off", "time": 61, "note": 71, "velocity": 117, "channel": 0}, {"type": "note_on", "time": 23, "note": 69, "velocity": 114, "channel": 0}, {"type": "note_off", "time": 87, "note": 69, "velocity": 114, "channel": 0}, {"type": "note_on", "time": 19, "note": 68, "velocity": 105, "channel": 0}, {"type": "note_off", "time": 85, "note": 68, "velocity": 105, "channel": 0}, {"type": "note_on", "time": 25, "note": 67, "velocity": 115, "channel": 0}, {"type": "note_off", "time": 43, "note": 67, "velocity": 115, "channel": 0}, {"type": "note_on", "time": 35, "note": 66, "velocity": 92, "channel": 0}, {"type": "note_off", "time": 51, "note": 66, "velocity": 92, "channel": 0}, {"type": "note_on", "time": 29, "note": 63, "velocity": 91, "channel": 0}, {"type": "note_off", "time": 63, "note": 63, "velocity": 91, "channel": 0}, {"type": "note_on", "time": 21, "note": 65, "velocity": 115, "channel": 0}, {"type": "note_off", "time": 101, "note": 65, "velocity": 115, "channel": 0}, {"type": "note_on", "time": 25, "note": 62, "velocity": 108, "channel": 0}, {"type": "note_off", "time": 83, "note": 62, "velocity": 108, "channel": 0}, {"type": "note_on", "time": 17, "note": 61, "velocity": 103, "channel": 0}, {"type": "note_off", "time": 65, "note": 61, "velocity": 103, "channel": 0}, {"type": "note_on", "time": 11, "note": 59, "velocity": 90, "channel": 0}, {"type": "note_off", "time": 91, "note": 59, "velocity": 90, "channel": 0}, {"type": "note_on", "time": 9, "note": 58, "velocity": 88, "channel": 0}, {"type": "note_off", "time": 25, "note": 58, "velocity": 88, "channel": 0}, {"type": "note_on", "time": 21, "note": 57, "velocity": 106, "channel": 0}, {"type": "note_off", "time": 121, "note": 57, "velocity": 106, "channel": 0}, {"type": "note_on", "time": 17, "note": 56, "velocity": 97, "channel": 0}, {"type": "note_off", "time": 81, "note": 56, "velocity": 97, "channel": 0}, {"type": "note_on", "time": 57, "note": 55, "velocity": 97, "channel": 0}, {"type": "note_off", "time": 67, "note": 55, "velocity": 97, "channel": 0}, {"type": "note_on", "time": 19, "note": 58, "velocity": 96, "channel": 0}, {"type": "note_off", "time": 73, "note": 58, "velocity": 96, "channel": 0}, {"type": "note_on", "time": 25, "note": 63, "velocity": 110, "channel": 0}, {"type": "note_off", "time": 85, "note": 63, "velocity": 110, "channel": 0}, {"type": "note_on", "time": 192, "note": 48, "velocity": 93, "channel": 0}, {"type": "note_off", "time": 62, "note": 48, "velocity": 93, "channel": 0}, {"type": "note_on", "time": 17, "note": 49, "velocity": 95, "channel": 0}, {"type": "note_off", "time": 79, "note": 49, "velocity": 95, "channel": 0}, {"type": "note_on", "time": 0, "note": 52, "velocity": 23, "channel": 0}, {"type": "note_off", "time": 63, "note": 52, "velocity": 23, "channel": 0}, {"type": "note_on", "time": 15, "note": 49, "velocity": 95, "channel": 0}, {"type": "note_off", "time": 93, "note": 49, "velocity": 95, "channel": 0}, {"type": "note_on", "time": 14, "note": 51, "velocity": 88, "channel": 0}, {"type": "note_off", "time": 57, "note": 51, "velocity": 88, "channel": 0}, {"type": "note_on", "time": 0, "note": 55, "velocity": 105, "channel": 0}, {"type": "note_off", "time": 101, "note": 55, "velocity": 105, "channel": 0}, {"type": "note_on", "time": 22, "note": 58, "velocity": 85, "channel": 0}, {"type": "note_off", "time": 59, "note": 58, "velocity": 85, "channel": 0}, {"type": "note_on", "time": 37, "note": 61, "velocity": 110, "channel": 0}, {"type": "note_off", "time": 93, "note": 61, "velocity": 110, "channel": 0}, {"type": "note_on", "time": 21, "note": 60, "velocity": 105, "channel": 0}, {"type": "note_off", "time": 89, "note": 60, "velocity": 105, "channel": 0}, {"type": "note_on", "time": 13, "note": 56, "velocity": 85, "channel": 0}, {"type": "note_off", "time": 31, "note": 56, "velocity": 85, "channel": 0}, {"type": "note_on", "time": 25, "note": 59, "velocity": 105, "channel": 0}, {"type": "note_off", "time": 135, "note": 59, "velocity": 105, "channel": 0}, {"type": "note_on", "time": 85, "note": 53, "velocity": 96, "channel": 0}, {"type": "note_off", "time": 89, "note": 53, "velocity": 96, "channel": 0}, {"type": "note_on", "time": 47, "note": 56, "velocity": 104, "channel": 0}, {"type": "note_off", "time": 91, "note": 56, "velocity": 104, "channel": 0}, {"type": "note_on", "time": 15, "note": 60, "velocity": 99, "channel": 0}, {"type": "note_off", "time": 61, "note": 60, "velocity": 99, "channel": 0}, {"type": "note_on", "time": 25, "note": 63, "velocity": 104, "channel": 0}, {"type": "note_off", "time": 71, "note": 63, "velocity": 104, "channel": 0}, {"type": "note_on", "time": 23, "note": 65, "velocity": 118, "channel": 0}, {"type": "note_off", "time": 95, "note": 65, "velocity": 118, "channel": 0}, {"type": "note_on", "time": 15, "note": 66, "velocity": 113, "channel": 0}, {"type": "note_off", "time": 79, "note": 66, "velocity": 113, "channel": 0}, {"type": "note_on", "time": 29, "note": 67, "velocity": 112, "channel": 0}, {"type": "note_off", "time": 61, "note": 67, "velocity": 112, "channel": 0}, {"type": "note_on", "time": 15, "note": 68, "velocity": 118, "channel": 0}, {"type": "note_off", "time": 75, "note": 68, "velocity": 118, "channel": 0}, {"type": "note_on", "time": 37, "note": 69, "velocity": 98, "channel": 0}, {"type": "note_off", "time": 107, "note": 69, "velocity": 98, "channel": 0}, {"type": "note_on", "time": 39, "note": 69, "velocity": 116, "channel": 0}, {"type": "note_off", "time": 103, "note": 69, "velocity": 116, "channel": 0}, {"type": "note_on", "time": 19, "note": 68, "velocity": 108, "channel": 0}, {"type": "note_off", "time": 65, "note": 68, "velocity": 108, "channel": 0}, {"type": "note_on", "time": 19, "note": 67, "velocity": 99, "channel": 0}, {"type": "note_off", "time": 51, "note": 67, "velocity": 99, "channel": 0}, {"type": "note_on", "time": 37, "note": 66, "velocity": 89, "channel": 0}, {"type": "note_off", "time": 69, "note": 66, "velocity": 89, "channel": 0}, {"type": "note_on", "time": 33, "note": 65, "velocity": 115, "channel": 0}, {"type": "note_off", "time": 71, "note": 65, "velocity": 115, "channel": 0}, {"type": "note_on", "time": 43, "note": 64, "velocity": 112, "channel": 0}, {"type": "note_off", "time": 83, "note": 64, "velocity": 112, "channel": 0}, {"type": "note_on", "time": 17, "note": 61, "velocity": 88, "channel": 0}, {"type": "note_off", "time": 57, "note": 61, "velocity": 88, "channel": 0}, {"type": "note_on", "time": 9, "note": 63, "velocity": 115, "channel": 0}, {"type": "note_off", "time": 71, "note": 63, "velocity": 115, "channel": 0}, {"type": "note_on", "time": 23, "note": 60, "velocity": 89, "channel": 0}, {"type": "note_off", "time": 33, "note": 60, "velocity": 89, "channel": 0}, {"type": "note_on", "time": 23, "note": 62, "velocity": 109, "channel": 0}, {"type": "note_off", "time": 103, "note": 62, "velocity": 109, "channel": 0}, {"type": "note_on", "time": 11, "note": 59, "velocity": 102, "channel": 0}, {"type": "note_off", "time": 57, "note": 59, "velocity": 102, "channel": 0}, {"type": "note_on", "time": 23, "note": 58, "velocity": 96, "channel": 0}, {"type": "note_off", "time": 51, "note": 58, "velocity": 96, "channel": 0}, {"type": "note_on", "time": 41, "note": 56, "velocity": 84, "channel": 0}, {"type": "note_off", "time": 41, "note": 56, "velocity": 84, "channel": 0}, {"type": "note_on", "time": 25, "note": 55, "velocity": 83, "channel": 0}, {"type": "note_off", "time": 63, "note": 55, "velocity": 83, "channel": 0}, {"type": "note_on", "time": 49, "note": 54, "velocity": 93, "channel": 0}, {"type": "note_off", "time": 91, "note": 54, "velocity": 93, "channel": 0}, {"type": "note_on", "time": 23, "note": 53, "velocity": 78, "channel": 0}, {"type": "note_off", "time": 49, "note": 53, "velocity": 78, "channel": 0}, {"type": "note_on", "time": 73, "note": 64, "velocity": 89, "channel": 0}, {"type": "note_off", "time": 69, "note": 64, "velocity": 89, "channel": 0}, {"type": "note_on", "time": 43, "note": 61, "velocity": 109, "channel": 0}, {"type": "note_off", "time": 95, "note": 61, "velocity": 109, "channel": 0}, {"type": "note_on", "time": 25, "note": 62, "velocity": 82, "channel": 0}, {"type": "note_off", "time": 87, "note": 62, "velocity": 82, "channel": 0}, {"type": "note_on", "time": 17, "note": 59, "velocity": 95, "channel": 0}, {"type": "note_off", "time": 69, "note": 59, "velocity": 95, "channel": 0}, {"type": "note_on", "time": 17, "note": 60, "velocity": 100, "channel": 0}, {"type": "note_off", "time": 95, "note": 60, "velocity": 100, "channel": 0}, {"type": "note_on", "time": 33, "note": 59, "velocity": 106, "channel": 0}, {"type": "note_off", "time": 81, "note": 59, "velocity": 106, "channel": 0}, {"type": "note_on", "time": 16, "note": 58, "velocity": 102, "channel": 0}, {"type": "note_off", "time": 68, "note": 58, "velocity": 102, "channel": 0}, {"type": "note_on", "time": 17, "note": 54, "velocity": 87, "channel": 0}, {"type": "note_off", "time": 68, "note": 54, "velocity": 87, "channel": 0}, {"type": "note_on", "time": 12, "note": 57, "velocity": 103, "channel": 0}, {"type": "note_off", "time": 111, "note": 57, "velocity": 103, "channel": 0}, {"type": "note_on", "time": 89, "note": 58, "velocity": 104, "channel": 0}, {"type": "note_off", "time": 97, "note": 58, "velocity": 104, "channel": 0}, {"type": "note_on", "time": 23, "note": 57, "velocity": 95, "channel": 0}, {"type": "note_off", "time": 131, "note": 57, "velocity": 95, "channel": 0}, {"type": "note_on", "time": 561, "note": 59, "velocity": 109, "channel": 0}, {"type": "note_off", "time": 79, "note": 59, "velocity": 109, "channel": 0}, {"type": "note_on", "time": 91, "note": 64, "velocity": 112, "channel": 0}, {"type": "note_off", "time": 89, "note": 64, "velocity": 112, "channel": 0}, {"type": "note_on", "time": 77, "note": 68, "velocity": 111, "channel": 0}, {"type": "note_off", "time": 129, "note": 68, "velocity": 111, "channel": 0}, {"type": "note_on", "time": 87, "note": 70, "velocity": 114, "channel": 0}, {"type": "note_off", "time": 103, "note": 70, "velocity": 114, "channel": 0}, {"type": "note_on", "time": 81, "note": 65, "velocity": 110, "channel": 0}, {"type": "note_off", "time": 105, "note": 65, "velocity": 110, "channel": 0}, {"type": "note_on", "time": 17, "note": 62, "velocity": 104, "channel": 0}, {"type": "note_off", "time": 165, "note": 62, "velocity": 104, "channel": 0}, {"type": "note_on", "time": 29, "note": 62, "velocity": 103, "channel": 0}, {"type": "note_off", "time": 165, "note": 62, "velocity": 103, "channel": 0}, {"type": "note_on", "time": 23, "note": 67, "velocity": 114, "channel": 0}, {"type": "note_off", "time": 155, "note": 67, "velocity": 114, "channel": 0}, {"type": "note_on", "time": 45, "note": 71, "velocity": 116, "channel": 0}, {"type": "note_off", "time": 131, "note": 71, "velocity": 116, "channel": 0}, {"type": "note_on", "time": 67, "note": 73, "velocity": 116, "channel": 0}, {"type": "note_off", "time": 165, "note": 73, "velocity": 116, "channel": 0}, {"type": "note_on", "time": 33, "note": 69, "velocity": 113, "channel": 0}, {"type": "note_off", "time": 99, "note": 69, "velocity": 113, "channel": 0}, {"type": "note_on", "time": 53, "note": 64, "velocity": 102, "channel": 0}, {"type": "note_off", "time": 79, "note": 64, "velocity": 102, "channel": 0}, {"type": "note_on", "time": 67, "note": 63, "velocity": 102, "channel": 0}, {"type": "note_off", "time": 97, "note": 63, "velocity": 102, "channel": 0}, {"type": "note_on", "time": 63, "note": 68, "velocity": 112, "channel": 0}, {"type": "note_off", "time": 141, "note": 68, "velocity": 112, "channel": 0}, {"type": "note_on", "time": 57, "note": 72, "velocity": 116, "channel": 0}, {"type": "note_off", "time": 117, "note": 72, "velocity": 116, "channel": 0}, {"type": "note_on", "time": 75, "note": 73, "velocity": 118, "channel": 0}, {"type": "note_off", "time": 103, "note": 73, "velocity": 118, "channel": 0}, {"type": "note_on", "time": 63, "note": 75, "velocity": 114, "channel": 0}, {"type": "note_off", "time": 93, "note": 75, "velocity": 114, "channel": 0}, {"type": "note_on", "time": 17, "note": 76, "velocity": 118, "channel": 0}, {"type": "note_off", "time": 103, "note": 76, "velocity": 118, "channel": 0}, {"type": "note_on", "time": 29, "note": 73, "velocity": 95, "channel": 0}, {"type": "note_off", "time": 41, "note": 73, "velocity": 95, "channel": 0}, {"type": "note_on", "time": 11, "note": 75, "velocity": 119, "channel": 0}, {"type": "note_off", "time": 163, "note": 75, "velocity": 119, "channel": 0}, {"type": "note_on", "time": 27, "note": 74, "velocity": 105, "channel": 0}, {"type": "note_off", "time": 159, "note": 74, "velocity": 105, "channel": 0}, {"type": "note_on", "time": 351, "note": 73, "velocity": 118, "channel": 0}, {"type": "note_off", "time": 69, "note": 73, "velocity": 118, "channel": 0}, {"type": "note_on", "time": 31, "note": 70, "velocity": 119, "channel": 0}, {"type": "note_off", "time": 63, "note": 70, "velocity": 119, "channel": 0}, {"type": "note_on", "time": 47, "note": 68, "velocity": 117, "channel": 0}, {"type": "note_off", "time": 99, "note": 68, "velocity": 117, "channel": 0}, {"type": "note_on", "time": 15, "note": 66, "velocity": 88, "channel": 0}, {"type": "note_off", "time": 39, "note": 66, "velocity": 88, "channel": 0}, {"type": "note_on", "time": 13, "note": 67, "velocity": 115, "channel": 0}, {"type": "note_off", "time": 101, "note": 67, "velocity": 115, "channel": 0}, {"type": "note_on", "time": 17, "note": 65, "velocity": 109, "channel": 0}, {"type": "note_off", "time": 65, "note": 65, "velocity": 109, "channel": 0}, {"type": "note_on", "time": 41, "note": 63, "velocity": 108, "channel": 0}, {"type": "note_off", "time": 85, "note": 63, "velocity": 108, "channel": 0}, {"type": "note_on", "time": 19, "note": 59, "velocity": 97, "channel": 0}, {"type": "note_off", "time": 59, "note": 59, "velocity": 97, "channel": 0}, {"type": "note_on", "time": 31, "note": 62, "velocity": 98, "channel": 0}, {"type": "note_off", "time": 77, "note": 62, "velocity": 98, "channel": 0}, {"type": "note_on", "time": 17, "note": 58, "velocity": 89, "channel": 0}, {"type": "note_off", "time": 33, "note": 58, "velocity": 89, "channel": 0}, {"type": "note_on", "time": 9, "note": 61, "velocity": 104, "channel": 0}, {"type": "note_off", "time": 95, "note": 61, "velocity": 104, "channel": 0}, {"type": "note_on", "time": 61, "note": 68, "velocity": 115, "channel": 0}, {"type": "note_off", "time": 113, "note": 68, "velocity": 115, "channel": 0}, {"type": "note_on", "time": 113, "note": 78, "velocity": 113, "channel": 0}, {"type": "note_off", "time": 107, "note": 78, "velocity": 113, "channel": 0}, {"type": "note_on", "time": 19, "note": 79, "velocity": 99, "channel": 0}, {"type": "note_off", "time": 75, "note": 79, "velocity": 99, "channel": 0}, {"type": "note_on", "time": 1115, "note": 76, "velocity": 120, "channel": 0}, {"type": "note_off", "time": 49, "note": 76, "velocity": 120, "channel": 0}, {"type": "note_on", "time": 13, "note": 75, "velocity": 127, "channel": 0}, {"type": "note_off", "time": 45, "note": 75, "velocity": 127, "channel": 0}, {"type": "note_on", "time": 37, "note": 73, "velocity": 118, "channel": 0}, {"type": "note_off", "time": 43, "note": 73, "velocity": 118, "channel": 0}, {"type": "note_on", "time": 19, "note": 70, "velocity": 110, "channel": 0}, {"type": "note_off", "time": 87, "note": 70, "velocity": 110, "channel": 0}, {"type": "note_on", "time": 27, "note": 67, "velocity": 77, "channel": 0}, {"type": "note_off", "time": 57, "note": 67, "velocity": 77, "channel": 0}, {"type": "note_on", "time": 43, "note": 73, "velocity": 106, "channel": 0}, {"type": "note_off", "time": 323, "note": 73, "velocity": 106, "channel": 0}, {"type": "note_on", "time": 47, "note": 70, "velocity": 117, "channel": 0}, {"type": "note_off", "time": 223, "note": 70, "velocity": 117, "channel": 0}, {"type": "note_on", "time": 55, "note": 68, "velocity": 114, "channel": 0}, {"type": "note_off", "time": 79, "note": 68, "velocity": 114, "channel": 0}, {"type": "note_on", "time": 19, "note": 65, "velocity": 107, "channel": 0}, {"type": "note_off", "time": 63, "note": 65, "velocity": 107, "channel": 0}, {"type": "note_on", "time": 23, "note": 63, "velocity": 103, "channel": 0}, {"type": "note_off", "time": 83, "note": 63, "velocity": 103, "channel": 0}, {"type": "note_on", "time": 165, "note": 65, "velocity": 84, "channel": 0}, {"type": "note_off", "time": 59, "note": 65, "velocity": 84, "channel": 0}, {"type": "note_on", "time": 25, "note": 63, "velocity": 111, "channel": 0}, {"type": "note_off", "time": 75, "note": 63, "velocity": 111, "channel": 0}, {"type": "note_on", "time": 23, "note": 61, "velocity": 104, "channel": 0}, {"type": "note_off", "time": 47, "note": 61, "velocity": 104, "channel": 0}, {"type": "note_on", "time": 25, "note": 58, "velocity": 104, "channel": 0}, {"type": "note_off", "time": 59, "note": 58, "velocity": 104, "channel": 0}, {"type": "note_on", "time": 17, "note": 56, "velocity": 97, "channel": 0}, {"type": "note_off", "time": 49, "note": 56, "velocity": 97, "channel": 0}, {"type": "note_on", "time": 25, "note": 53, "velocity": 106, "channel": 0}, {"type": "note_off", "time": 81, "note": 53, "velocity": 106, "channel": 0}, {"type": "note_on", "time": 11, "note": 52, "velocity": 102, "channel": 0}, {"type": "note_off", "time": 93, "note": 52, "velocity": 102, "channel": 0}, {"type": "note_on", "time": 15, "note": 51, "velocity": 103, "channel": 0}, {"type": "note_off", "time": 73, "note": 51, "velocity": 103, "channel": 0}, {"type": "note_on", "time": 29, "note": 46, "velocity": 101, "channel": 0}, {"type": "note_off", "time": 47, "note": 46, "velocity": 101, "channel": 0}, {"type": "note_on", "time": 24, "note": 49, "velocity": 100, "channel": 0}, {"type": "note_off", "time": 68, "note": 49, "velocity": 100, "channel": 0}, {"type": "note_on", "time": 0, "note": 50, "velocity": 93, "channel": 0}, {"type": "note_off", "time": 113, "note": 50, "velocity": 93, "channel": 0}, {"type": "note_on", "time": 42, "note": 58, "velocity": 86, "channel": 0}, {"type": "note_off", "time": 1071, "note": 58, "velocity": 86, "channel": 0}, {"type": "end_of_track", "time": 0}]]}