{"ticks_per_beat": 192, "tracks": [[{"type": "track_name", "name": "Melody", "time": 0}, {"type": "set_tempo", "tempo": 253164, "time": 0}, {"type": "key_signature", "key": "Bb", "time": 0}, {"type": "time_signature", "numerator": 4, "denominator": 4, "clocks_per_click": 24, "notated_32nd_notes_per_beat": 8, "time": 0}, {"type": "note_on", "time": 2352, "note": 65, "velocity": 122, "channel": 0}, {"type": "note_off", "time": 108, "note": 65, "velocity": 122, "channel": 0}, {"type": "note_on", "time": 6, "note": 67, "velocity": 115, "channel": 0}, {"type": "note_off", "time": 55, "note": 67, "velocity": 115, "channel": 0}, {"type": "note_on", "time": 6, "note": 69, "velocity": 118, "channel": 0}, {"type": "note_off", "time": 123, "note": 69, "velocity": 118, "channel": 0}, {"type": "note_on", "time": 40, "note": 70, "velocity": 122, "channel": 0}, {"type": "note_off", "time": 102, "note": 70, "velocity": 122, "channel": 0}, {"type": "note_on", "time": 58, "note": 72, "velocity": 109, "channel": 0}, {"type": "note_off", "time": 80, "note": 72, "velocity": 109, "channel": 0}, {"type": "note_on", "time": 92, "note": 70, "velocity": 119, "channel": 0}, {"type": "note_off", "time": 95, "note": 70, "velocity": 119, "channel": 0}, {"type": "note_on", "time": 86, "note": 72, "velocity": 108, "channel": 0}, {"type": "note_off", "time": 86, "note": 72, "velocity": 108, "channel": 0}, {"type": "note_on", "time": 0, "note": 69, "velocity": 108, "channel": 0}, {"type": "note_off", "time": 365, "note": 69, "velocity": 108, "channel": 0}, {"type": "note_on", "time": 83, "note": 67, "velocity": 118, "channel": 0}, {"type": "note_off", "time": 86, "note": 67, "velocity": 118, "channel": 0}, {"type": "note_on", "time": 37, "note": 69, "velocity": 112, "channel": 0}, {"type": "note_off", "time": 235, "note": 69, "velocity": 112, "channel": 0}, {"type": "note_on", "time": 0, "note": 66, "velocity": 104, "channel": 0}, {"type": "note_off", "time": 303, "note": 66, "velocity": 104, "channel": 0}, {"type": "note_on", "time": 222, "note": 66, "velocity": 118, "channel": 0}, {"type": "note_off", "time": 204, "note": 66, "velocity": 118, "channel": 0}, {"type": "note_on", "time": 27, "note": 62, "velocity": 106, "channel": 0}, {"type": "note_off", "time": 219, "note": 62, "velocity": 106, "channel": 0}, {"type": "note_on", "time": 776, "note": 58, "velocity": 99, "channel": 0}, {"type": "note_off", "time": 68, "note": 58, "velocity": 99, "channel": 0}, {"type": "note_on", "time": 21, "note": 62, "velocity": 97, "channel": 0}, {"type": "note_off", "time": 55, "note": 62, "velocity": 97, "channel": 0}, {"type": "note_on", "time": 0, "note": 67, "velocity": 126, "channel": 0}, {"type": "note_off", "time": 89, "note": 67, "velocity": 126, "channel": 0}, {"type": "note_on", "time": 27, "note": 69, "velocity": 124, "channel": 0}, {"type": "note_off", "time": 74, "note": 69, "velocity": 124, "channel": 0}, {"type": "note_on", "time": 24, "note": 70, "velocity": 127, "channel": 0}, {"type": "note_off", "time": 86, "note": 70, "velocity": 127, "channel": 0}, {"type": "note_on", "time": 9, "note": 71, "velocity": 121, "channel": 0}, {"type": "note_off", "time": 68, "note": 71, "velocity": 121, "channel": 0}, {"type": "note_on", "time": 3, "note": 72, "velocity": 116, "channel": 0}, {"type": "note_off", "time": 108, "note": 72, "velocity": 116, "channel": 0}, {"type": "note_on", "time": 12, "note": 70, "velocity": 120, "channel": 0}, {"type": "note_off", "time": 86, "note": 70, "velocity": 120, "channel": 0}, {"type": "note_on", "time": 0, "note": 67, "velocity": 121, "channel": 0}, {"type": "note_off", "time": 86, "note": 67, "velocity": 121, "channel": 0}, {"type": "note_on", "time": 9, "note": 65, "velocity": 87, "channel": 0}, {"type": "note_off", "time": 65, "note": 65, "velocity": 87, "channel": 0}, {"type": "note_on", "time": 40, "note": 60, "velocity": 108, "channel": 0}, {"type": "note_off", "time": 95, "note": 60, "velocity": 108, "channel": 0}, {"type": "note_on", "time": 3, "note": 62, "velocity": 114, "channel": 0}, {"type": "note_off", "time": 278, "note": 62, "velocity": 114, "channel": 0}, {"type": "note_on", "time": 585, "note": 72, "velocity": 119, "channel": 0}, {"type": "note_off", "time": 108, "note": 72, "velocity": 119, "channel": 0}, {"type": "note_on", "time": 3, "note": 70, "velocity": 124, "channel": 0}, {"type": "note_off", "time": 80, "note": 70, "velocity": 124, "channel": 0}, {"type": "note_on", "time": 0, "note": 67, "velocity": 118, "channel": 0}, {"type": "note_off", "time": 105, "note": 67, "velocity": 118, "channel": 0}, {"type": "note_on", "time": 21, "note": 63, "velocity": 112, "channel": 0}, {"type": "note_off", "time": 71, "note": 63, "velocity": 112, "channel": 0}, {"type": "note_on", "time": 0, "note": 60, "velocity": 111, "channel": 0}, {"type": "note_off", "time": 80, "note": 60, "velocity": 111, "channel": 0}, {"type": "note_on", "time": 6, "note": 55, "velocity": 100, "channel": 0}, {"type": "note_off", "time": 74, "note": 55, "velocity": 100, "channel": 0}, {"type": "note_on", "time": 61, "note": 58, "velocity": 103, "channel": 0}, {"type": "note_off", "time": 95, "note": 58, "velocity": 103, "channel": 0}, {"type": "note_on", "time": 49, "note": 55, "velocity": 97, "channel": 0}, {"type": "note_off", "time": 198, "note": 55, "velocity": 97, "channel": 0}, {"type": "note_on", "time": 24, "note": 62, "velocity": 107, "channel": 0}, {"type": "note_off", "time": 292, "note": 62, "velocity": 107, "channel": 0}, {"type": "note_on", "time": 29, "note": 60, "velocity": 118, "channel": 0}, {"type": "note_off", "time": 61, "note": 60, "velocity": 118, "channel": 0}, {"type": "note_on", "time": 34, "note": 56, "velocity": 108, "channel": 0}, {"type": "note_off", "time": 114, "note": 56, "velocity": 108, "channel": 0}, {"type": "note_on", "time": 21, "note": 57, "velocity": 114, "channel": 0}, {"type": "note_off", "time": 176, "note": 57, "velocity": 114, "channel": 0}, {"type": "note_on", "time": 43, "note": 67, "velocity": 119, "channel": 0}, {"type": "note_off", "time": 188, "note": 67, "velocity": 119, "channel": 0}, {"type": "note_on", "time": 108, "note": 65, "velocity": 109, "channel": 0}, {"type": "note_off", "time": 396, "note": 65, "velocity": 109, "channel": 0}, {"type": "note_on", "time": 83, "note": 69, "velocity": 111, "channel": 0}, {"type": "note_off", "time": 179, "note": 69, "velocity": 111, "channel": 0}, {"type": "note_on", "time": 12, "note": 66, "velocity": 106, "channel": 0}, {"type": "note_off", "time": 86, "note": 66, "velocity": 106, "channel": 0}, {"type": "note_on", "time": 18, "note": 67, "velocity": 107, "channel": 0}, {"type": "note_off", "time": 430, "note": 67, "velocity": 107, "channel": 0}, {"type": "note_on", "time": 43, "note": 71, "velocity": 111, "channel": 0}, {"type": "note_off", "time": 111, "note": 71, "velocity": 111, "channel": 0}, {"type": "note_on", "time": 77, "note": 67, "velocity": 117, "channel": 0}, {"type": "note_off", "time": 173, "note": 67, "velocity": 117, "channel": 0}, {"type": "note_on", "time": 18, "note": 69, "velocity": 111, "channel": 0}, {"type": "note_off", "time": 238, "note": 69, "velocity": 111, "channel": 0}, {"type": "note_on", "time": 114, "note": 73, "velocity": 103, "channel": 0}, {"type": "note_off", "time": 139, "note": 73, "velocity": 103, "channel": 0}, {"type": "note_on", "time": 83, "note": 69, "velocity": 116, "channel": 0}, {"type": "note_off", "time": 114, "note": 69, "velocity": 116, "channel": 0}, {"type": "note_on", "time": 15, "note": 71, "velocity": 112, "channel": 0}, {"type": "note_off", "time": 123, "note": 71, "velocity": 112, "channel": 0}, {"type": "note_on", "time": 34, "note": 67, "velocity": 110, "channel": 0}, {"type": "note_off", "time": 99, "note": 67, "velocity": 110, "channel": 0}, {"type": "note_on", "time": 12, "note": 69, "velocity": 117, "channel": 0}, {"type": "note_off", "time": 179, "note": 69, "velocity": 117, "channel": 0}, {"type": "note_on", "time": 9, "note": 66, "velocity": 111, "channel": 0}, {"type": "note_off", "time": 303, "note": 66, "velocity": 111, "channel": 0}, {"type": "note_on", "time": 49, "note": 69, "velocity": 109, "channel": 0}, {"type": "note_off", "time": 145, "note": 69, "velocity": 109, "channel": 0}, {"type": "note_on", "time": 1170, "note": 65, "velocity": 120, "channel": 0}, {"type": "note_off", "time": 145, "note": 65, "velocity": 120, "channel": 0}, {"type": "note_on", "time": 126, "note": 65, "velocity": 109, "channel": 0}, {"type": "note_off", "time": 117, "note": 65, "velocity": 109, "channel": 0}, {"type": "note_on", "time": 55, "note": 66, "velocity": 103, "channel": 0}, {"type": "note_off", "time": 139, "note": 66, "velocity": 103, "channel": 0}, {"type": "note_on", "time": 105, "note": 66, "velocity": 114, "channel": 0}, {"type": "note_off", "time": 111, "note": 66, "velocity": 114, "channel": 0}, {"type": "note_on", "time": 6, "note": 67, "velocity": 107, "channel": 0}, {"type": "note_off", "time": 123, "note": 67, "velocity": 107, "channel": 0}, {"type": "note_on", "time": 40, "note": 67, "velocity": 112, "channel": 0}, {"type": "note_off", "time": 213, "note": 67, "velocity": 112, "channel": 0}, {"type": "note_on", "time": 24, "note": 67, "velocity": 108, "channel": 0}, {"type": "note_off", "time": 130, "note": 67, "velocity": 108, "channel": 0}, {"type": "note_on", "time": 77, "note": 67, "velocity": 117, "channel": 0}, {"type": "note_off", "time": 148, "note": 67, "velocity": 117, "channel": 0}, {"type": "note_on", "time": 40, "note": 68, "velocity": 99, "channel": 0}, {"type": "note_off", "time": 114, "note": 68, "velocity": 99, "channel": 0}, {"type": "note_on", "time": 77, "note": 68, "velocity": 110, "channel": 0}, {"type": "note_off", "time": 117, "note": 68, "velocity": 110, "channel": 0}, {"type": "note_on", "time": 99, "note": 69, "velocity": 112, "channel": 0}, {"type": "note_off", "time": 95, "note": 69, "velocity": 112, "channel": 0}, {"type": "note_on", "time": 133, "note": 69, "velocity": 116, "channel": 0}, {"type": "note_off", "time": 133, "note": 69, "velocity": 116, "channel": 0}, {"type": "note_on", "time": 117, "note": 70, "velocity": 119, "channel": 0}, {"type": "note_off", "time": 108, "note": 70, "velocity": 119, "channel": 0}, {"type": "note_on", "time": 9, "note": 72, "velocity": 112, "channel": 0}, {"type": "note_off", "time": 99, "note": 72, "velocity": 112, "channel": 0}, {"type": "note_on", "time": 68, "note": 69, "velocity": 113, "channel": 0}, {"type": "note_off", "time": 123, "note": 69, "velocity": 113, "channel": 0}, {"type": "note_on", "time": 61, "note": 70, "velocity": 119, "channel": 0}, {"type": "note_off", "time": 108, "note": 70, "velocity": 119, "channel": 0}, {"type": "note_on", "time": 40, "note": 70, "velocity": 117, "channel": 0}, {"type": "note_off", "time": 89, "note": 70, "velocity": 117, "channel": 0}, {"type": "note_on", "time": 0, "note": 67, "velocity": 116, "channel": 0}, {"type": "note_off", "time": 92, "note": 67, "velocity": 116, "channel": 0}, {"type": "note_on", "time": 89, "note": 69, "velocity": 117, "channel": 0}, {"type": "note_off", "time": 99, "note": 69, "velocity": 117, "channel": 0}, {"type": "note_on", "time": 21, "note": 70, "velocity": 119, "channel": 0}, {"type": "note_off", "time": 99, "note": 70, "velocity": 119, "channel": 0}, {"type": "note_on", "time": 74, "note": 69, "velocity": 119, "channel": 0}, {"type": "note_off", "time": 86, "note": 69, "velocity": 119, "channel": 0}, {"type": "note_on", "time": 114, "note": 67, "velocity": 117, "channel": 0}, {"type": "note_off", "time": 111, "note": 67, "velocity": 117, "channel": 0}, {"type": "note_on", "time": 43, "note": 62, "velocity": 115, "channel": 0}, {"type": "note_off", "time": 111, "note": 62, "velocity": 115, "channel": 0}, {"type": "note_on", "time": 27, "note": 57, "velocity": 108, "channel": 0}, {"type": "note_off", "time": 111, "note": 57, "velocity": 108, "channel": 0}, {"type": "note_on", "time": 30, "note": 58, "velocity": 107, "channel": 0}, {"type": "note_off", "time": 154, "note": 58, "velocity": 107, "channel": 0}, {"type": "note_on", "time": 34, "note": 62, "velocity": 98, "channel": 0}, {"type": "note_off", "time": 275, "note": 62, "velocity": 98, "channel": 0}, {"type": "note_on", "time": 981, "note": 60, "velocity": 107, "channel": 0}, {"type": "note_off", "time": 99, "note": 60, "velocity": 107, "channel": 0}, {"type": "note_on", "time": 95, "note": 67, "velocity": 117, "channel": 0}, {"type": "note_off", "time": 102, "note": 67, "velocity": 117, "channel": 0}, {"type": "note_on", "time": 18, "note": 70, "velocity": 111, "channel": 0}, {"type": "note_off", "time": 328, "note": 70, "velocity": 111, "channel": 0}, {"type": "note_on", "time": 40, "note": 72, "velocity": 116, "channel": 0}, {"type": "note_off", "time": 68, "note": 72, "velocity": 116, "channel": 0}, {"type": "note_on", "time": 37, "note": 70, "velocity": 119, "channel": 0}, {"type": "note_off", "time": 80, "note": 70, "velocity": 119, "channel": 0}, {"type": "note_on", "time": 0, "note": 67, "velocity": 116, "channel": 0}, {"type": "note_off", "time": 86, "note": 67, "velocity": 116, "channel": 0}, {"type": "note_on", "time": 0, "note": 63, "velocity": 108, "channel": 0}, {"type": "note_off", "time": 83, "note": 63, "velocity": 108, "channel": 0}, {"type": "note_on", "time": 40, "note": 62, "velocity": 110, "channel": 0}, {"type": "note_off", "time": 92, "note": 62, "velocity": 110, "channel": 0}, {"type": "note_on", "time": 34, "note": 60, "velocity": 114, "channel": 0}, {"type": "note_off", "time": 105, "note": 60, "velocity": 114, "channel": 0}, {"type": "note_on", "time": 83, "note": 59, "velocity": 111, "channel": 0}, {"type": "note_off", "time": 105, "note": 59, "velocity": 111, "channel": 0}, {"type": "note_on", "time": 49, "note": 60, "velocity": 110, "channel": 0}, {"type": "note_off", "time": 216, "note": 60, "velocity": 110, "channel": 0}, {"type": "note_on", "time": 24, "note": 68, "velocity": 114, "channel": 0}, {"type": "note_off", "time": 89, "note": 68, "velocity": 114, "channel": 0}, {"type": "note_on", "time": 12, "note": 69, "velocity": 112, "channel": 0}, {"type": "note_off", "time": 306, "note": 69, "velocity": 112, "channel": 0}, {"type": "note_on", "time": 21, "note": 65, "velocity": 112, "channel": 0}, {"type": "note_off", "time": 343, "note": 65, "velocity": 112, "channel": 0}, {"type": "note_on", "time": 43, "note": 62, "velocity": 99, "channel": 0}, {"type": "note_off", "time": 260, "note": 62, "velocity": 99, "channel": 0}, {"type": "note_on", "time": 619, "note": 70, "velocity": 112, "channel": 0}, {"type": "note_off", "time": 266, "note": 70, "velocity": 112, "channel": 0}, {"type": "note_on", "time": 21, "note": 67, "velocity": 117, "channel": 0}, {"type": "note_off", "time": 86, "note": 67, "velocity": 117, "channel": 0}, {"type": "note_on", "time": 89, "note": 58, "velocity": 102, "channel": 0}, {"type": "note_off", "time": 204, "note": 58, "velocity": 102, "channel": 0}, {"type": "note_on", "time": 53, "note": 61, "velocity": 119, "channel": 0}, {"type": "note_off", "time": 86, "note": 61, "velocity": 119, "channel": 0}, {"type": "note_on", "time": 5, "note": 62, "velocity": 115, "channel": 0}, {"type": "note_off", "time": 248, "note": 62, "velocity": 115, "channel": 0}, {"type": "note_on", "time": 100, "note": 62, "velocity": 112, "channel": 0}, {"type": "note_off", "time": 244, "note": 62, "velocity": 112, "channel": 0}, {"type": "note_on", "time": 3, "note": 58, "velocity": 108, "channel": 0}, {"type": "note_off", "time": 256, "note": 58, "velocity": 108, "channel": 0}, {"type": "note_on", "time": 213, "note": 62, "velocity": 108, "channel": 0}, {"type": "note_off", "time": 303, "note": 62, "velocity": 108, "channel": 0}, {"type": "note_on", "time": 34, "note": 65, "velocity": 107, "channel": 0}, {"type": "note_off", "time": 176, "note": 65, "velocity": 107, "channel": 0}, {"type": "end_of_track", "time": 0}]]}