{"ticks_per_beat": 192, "tracks": [[{"type": "track_name", "name": "Melody", "time": 0}, {"type": "set_tempo", "tempo": 394736, "time": 0}, {"type": "key_signature", "key": "Ab", "time": 0}, {"type": "time_signature", "numerator": 4, "denominator": 4, "clocks_per_click": 24, "notated_32nd_notes_per_beat": 8, "time": 0}, {"type": "note_on", "time": 1197, "note": 68, "velocity": 115, "channel": 0}, {"type": "note_off", "time": 118, "note": 68, "velocity": 115, "channel": 0}, {"type": "note_on", "time": 45, "note": 70, "velocity": 99, "channel": 0}, {"type": "note_off", "time": 265, "note": 70, "velocity": 99, "channel": 0}, {"type": "note_on", "time": 59, "note": 65, "velocity": 121, "channel": 0}, {"type": "note_off", "time": 93, "note": 65, "velocity": 121, "channel": 0}, {"type": "note_on", "time": 72, "note": 67, "velocity": 116, "channel": 0}, {"type": "note_off", "time": 363, "note": 67, "velocity": 116, "channel": 0}, {"type": "note_on", "time": 51, "note": 70, "velocity": 107, "channel": 0}, {"type": "note_off", "time": 103, "note": 70, "velocity": 107, "channel": 0}, {"type": "note_on", "time": 61, "note": 73, "velocity": 100, "channel": 0}, {"type": "note_off", "time": 251, "note": 73, "velocity": 100, "channel": 0}, {"type": "note_on", "time": 21, "note": 72, "velocity": 106, "channel": 0}, {"type": "note_off", "time": 109, "note": 72, "velocity": 106, "channel": 0}, {"type": "note_on", "time": 80, "note": 68, "velocity": 108, "channel": 0}, {"type": "note_off", "time": 265, "note": 68, "velocity": 108, "channel": 0}, {"type": "note_on", "time": 35, "note": 70, "velocity": 106, "channel": 0}, {"type": "note_off", "time": 134, "note": 70, "velocity": 106, "channel": 0}, {"type": "note_on", "time": 27, "note": 67, "velocity": 105, "channel": 0}, {"type": "note_off", "time": 367, "note": 67, "velocity": 105, "channel": 0}, {"type": "note_on", "time": 37, "note": 68, "velocity": 117, "channel": 0}, {"type": "note_off", "time": 77, "note": 68, "velocity": 117, "channel": 0}, {"type": "note_on", "time": 22, "note": 65, "velocity": 120, "channel": 0}, {"type": "note_off", "time": 82, "note": 65, "velocity": 120, "channel": 0}, {"type": "note_on", "time": 9, "note": 67, "velocity": 117, "channel": 0}, {"type": "note_off", "time": 57, "note": 67, "velocity": 117, "channel": 0}, {"type": "note_on", "time": 5, "note": 68, "velocity": 115, "channel": 0}, {"type": "note_off", "time": 122, "note": 68, "velocity": 115, "channel": 0}, {"type": "note_on", "time": 208, "note": 61, "velocity": 98, "channel": 0}, {"type": "note_off", "time": 260, "note": 61, "velocity": 98, "channel": 0}, {"type": "note_on", "time": 489, "note": 63, "velocity": 95, "channel": 0}, {"type": "note_off", "time": 44, "note": 63, "velocity": 95, "channel": 0}, {"type": "note_on", "time": 22, "note": 65, "velocity": 117, "channel": 0}, {"type": "note_off", "time": 89, "note": 65, "velocity": 117, "channel": 0}, {"type": "note_on", "time": 14, "note": 68, "velocity": 122, "channel": 0}, {"type": "note_off", "time": 84, "note": 68, "velocity": 122, "channel": 0}, {"type": "note_on", "time": 11, "note": 67, "velocity": 112, "channel": 0}, {"type": "note_off", "time": 93, "note": 67, "velocity": 112, "channel": 0}, {"type": "note_on", "time": 15, "note": 65, "velocity": 118, "channel": 0}, {"type": "note_off", "time": 72, "note": 65, "velocity": 118, "channel": 0}, {"type": "note_on", "time": 23, "note": 63, "velocity": 111, "channel": 0}, {"type": "note_off", "time": 71, "note": 63, "velocity": 111, "channel": 0}, {"type": "note_on", "time": 20, "note": 61, "velocity": 106, "channel": 0}, {"type": "note_off", "time": 75, "note": 61, "velocity": 106, "channel": 0}, {"type": "note_on", "time": 22, "note": 60, "velocity": 100, "channel": 0}, {"type": "note_off", "time": 746, "note": 60, "velocity": 100, "channel": 0}, {"type": "note_on", "time": 778, "note": 63, "velocity": 106, "channel": 0}, {"type": "note_off", "time": 238, "note": 63, "velocity": 106, "channel": 0}, {"type": "note_on", "time": 14, "note": 64, "velocity": 105, "channel": 0}, {"type": "note_off", "time": 236, "note": 64, "velocity": 105, "channel": 0}, {"type": "note_on", "time": 35, "note": 75, "velocity": 108, "channel": 0}, {"type": "note_off", "time": 382, "note": 75, "velocity": 108, "channel": 0}, {"type": "note_on", "time": 16, "note": 73, "velocity": 111, "channel": 0}, {"type": "note_off", "time": 100, "note": 73, "velocity": 111, "channel": 0}, {"type": "note_on", "time": 9, "note": 69, "velocity": 119, "channel": 0}, {"type": "note_off", "time": 73, "note": 69, "velocity": 119, "channel": 0}, {"type": "note_on", "time": 19, "note": 70, "velocity": 113, "channel": 0}, {"type": "note_off", "time": 88, "note": 70, "velocity": 113, "channel": 0}, {"type": "note_on", "time": 11, "note": 71, "velocity": 112, "channel": 0}, {"type": "note_off", "time": 72, "note": 71, "velocity": 112, "channel": 0}, {"type": "note_on", "time": 7, "note": 72, "velocity": 109, "channel": 0}, {"type": "note_off", "time": 99, "note": 72, "velocity": 109, "channel": 0}, {"type": "note_on", "time": 8, "note": 68, "velocity": 112, "channel": 0}, {"type": "note_off", "time": 85, "note": 68, "velocity": 112, "channel": 0}, {"type": "note_on", "time": 9, "note": 70, "velocity": 113, "channel": 0}, {"type": "note_off", "time": 94, "note": 70, "velocity": 113, "channel": 0}, {"type": "note_on", "time": 17, "note": 72, "velocity": 110, "channel": 0}, {"type": "note_off", "time": 70, "note": 72, "velocity": 110, "channel": 0}, {"type": "note_on", "time": 7, "note": 68, "velocity": 114, "channel": 0}, {"type": "note_off", "time": 96, "note": 68, "velocity": 114, "channel": 0}, {"type": "note_on", "time": 8, "note": 67, "velocity": 117, "channel": 0}, {"type": "note_off", "time": 84, "note": 67, "velocity": 117, "channel": 0}, {"type": "note_on", "time": 11, "note": 68, "velocity": 115, "channel": 0}, {"type": "note_off", "time": 95, "note": 68, "velocity": 115, "channel": 0}, {"type": "note_on", "time": 11, "note": 70, "velocity": 112, "channel": 0}, {"type": "note_off", "time": 77, "note": 70, "velocity": 112, "channel": 0}, {"type": "note_on", "time": 9, "note": 72, "velocity": 96, "channel": 0}, {"type": "note_off", "time": 146, "note": 72, "velocity": 96, "channel": 0}, {"type": "note_on", "time": 811, "note": 79, "velocity": 119, "channel": 0}, {"type": "note_off", "time": 100, "note": 79, "velocity": 119, "channel": 0}, {"type": "note_on", "time": 11, "note": 76, "velocity": 120, "channel": 0}, {"type": "note_off", "time": 82, "note": 76, "velocity": 120, "channel": 0}, {"type": "note_on", "time": 12, "note": 72, "velocity": 110, "channel": 0}, {"type": "note_off", "time": 85, "note": 72, "velocity": 110, "channel": 0}, {"type": "note_on", "time": 6, "note": 69, "velocity": 121, "channel": 0}, {"type": "note_off", "time": 80, "note": 69, "velocity": 121, "channel": 0}, {"type": "note_on", "time": 11, "note": 65, "velocity": 115, "channel": 0}, {"type": "note_off", "time": 69, "note": 65, "velocity": 115, "channel": 0}, {"type": "note_on", "time": 14, "note": 60, "velocity": 117, "channel": 0}, {"type": "note_off", "time": 86, "note": 60, "velocity": 117, "channel": 0}, {"type": "note_on", "time": 12, "note": 57, "velocity": 110, "channel": 0}, {"type": "note_off", "time": 92, "note": 57, "velocity": 110, "channel": 0}, {"type": "note_on", "time": 5, "note": 58, "velocity": 114, "channel": 0}, {"type": "note_off", "time": 82, "note": 58, "velocity": 114, "channel": 0}, {"type": "note_on", "time": 12, "note": 59, "velocity": 125, "channel": 0}, {"type": "note_off", "time": 74, "note": 59, "velocity": 125, "channel": 0}, {"type": "note_on", "time": 18, "note": 62, "velocity": 112, "channel": 0}, {"type": "note_off", "time": 68, "note": 62, "velocity": 112, "channel": 0}, {"type": "note_on", "time": 10, "note": 65, "velocity": 121, "channel": 0}, {"type": "note_off", "time": 86, "note": 65, "velocity": 121, "channel": 0}, {"type": "note_on", "time": 14, "note": 67, "velocity": 119, "channel": 0}, {"type": "note_off", "time": 86, "note": 67, "velocity": 119, "channel": 0}, {"type": "note_on", "time": 13, "note": 68, "velocity": 117, "channel": 0}, {"type": "note_off", "time": 86, "note": 68, "velocity": 117, "channel": 0}, {"type": "note_on", "time": 13, "note": 69, "velocity": 123, "channel": 0}, {"type": "note_off", "time": 65, "note": 69, "velocity": 123, "channel": 0}, {"type": "note_on", "time": 12, "note": 70, "velocity": 113, "channel": 0}, {"type": "note_off", "time": 86, "note": 70, "velocity": 113, "channel": 0}, {"type": "note_on", "time": 11, "note": 71, "velocity": 115, "channel": 0}, {"type": "note_off", "time": 77, "note": 71, "velocity": 115, "channel": 0}, {"type": "note_on", "time": 9, "note": 72, "velocity": 112, "channel": 0}, {"type": "note_off", "time": 84, "note": 72, "velocity": 112, "channel": 0}, {"type": "note_on", "time": 14, "note": 68, "velocity": 115, "channel": 0}, {"type": "note_off", "time": 86, "note": 68, "velocity": 115, "channel": 0}, {"type": "note_on", "time": 11, "note": 65, "velocity": 115, "channel": 0}, {"type": "note_off", "time": 76, "note": 65, "velocity": 115, "channel": 0}, {"type": "note_on", "time": 21, "note": 62, "velocity": 118, "channel": 0}, {"type": "note_off", "time": 91, "note": 62, "velocity": 118, "channel": 0}, {"type": "note_on", "time": 4, "note": 60, "velocity": 112, "channel": 0}, {"type": "note_off", "time": 69, "note": 60, "velocity": 112, "channel": 0}, {"type": "note_on", "time": 18, "note": 56, "velocity": 99, "channel": 0}, {"type": "note_off", "time": 89, "note": 56, "velocity": 99, "channel": 0}, {"type": "note_on", "time": 21, "note": 58, "velocity": 111, "channel": 0}, {"type": "note_off", "time": 95, "note": 58, "velocity": 111, "channel": 0}, {"type": "note_on", "time": 12, "note": 59, "velocity": 110, "channel": 0}, {"type": "note_off", "time": 65, "note": 59, "velocity": 110, "channel": 0}, {"type": "note_on", "time": 14, "note": 62, "velocity": 108, "channel": 0}, {"type": "note_off", "time": 82, "note": 62, "velocity": 108, "channel": 0}, {"type": "note_on", "time": 11, "note": 65, "velocity": 122, "channel": 0}, {"type": "note_off", "time": 84, "note": 65, "velocity": 122, "channel": 0}, {"type": "note_on", "time": 12, "note": 67, "velocity": 118, "channel": 0}, {"type": "note_off", "time": 79, "note": 67, "velocity": 118, "channel": 0}, {"type": "note_on", "time": 21, "note": 68, "velocity": 115, "channel": 0}, {"type": "note_off", "time": 79, "note": 68, "velocity": 115, "channel": 0}, {"type": "note_on", "time": 4, "note": 70, "velocity": 111, "channel": 0}, {"type": "note_off", "time": 168, "note": 70, "velocity": 111, "channel": 0}, {"type": "note_on", "time": 14, "note": 72, "velocity": 111, "channel": 0}, {"type": "note_off", "time": 162, "note": 72, "velocity": 111, "channel": 0}, {"type": "note_on", "time": 28, "note": 72, "velocity": 89, "channel": 0}, {"type": "note_off", "time": 410, "note": 72, "velocity": 89, "channel": 0}, {"type": "note_on", "time": 562, "note": 65, "velocity": 118, "channel": 0}, {"type": "note_off", "time": 93, "note": 65, "velocity": 118, "channel": 0}, {"type": "note_on", "time": 9, "note": 67, "velocity": 118, "channel": 0}, {"type": "note_off", "time": 75, "note": 67, "velocity": 118, "channel": 0}, {"type": "note_on", "time": 14, "note": 68, "velocity": 113, "channel": 0}, {"type": "note_off", "time": 165, "note": 68, "velocity": 113, "channel": 0}, {"type": "note_on", "time": 18, "note": 70, "velocity": 110, "channel": 0}, {"type": "note_off", "time": 94, "note": 70, "velocity": 110, "channel": 0}, {"type": "note_on", "time": 8, "note": 69, "velocity": 103, "channel": 0}, {"type": "note_off", "time": 48, "note": 69, "velocity": 103, "channel": 0}, {"type": "note_on", "time": 38, "note": 70, "velocity": 98, "channel": 0}, {"type": "note_off", "time": 738, "note": 70, "velocity": 98, "channel": 0}, {"type": "note_on", "time": 351, "note": 67, "velocity": 118, "channel": 0}, {"type": "note_off", "time": 81, "note": 67, "velocity": 118, "channel": 0}, {"type": "note_on", "time": 9, "note": 68, "velocity": 119, "channel": 0}, {"type": "note_off", "time": 98, "note": 68, "velocity": 119, "channel": 0}, {"type": "note_on", "time": 8, "note": 70, "velocity": 115, "channel": 0}, {"type": "note_off", "time": 88, "note": 70, "velocity": 115, "channel": 0}, {"type": "note_on", "time": 61, "note": 67, "velocity": 116, "channel": 0}, {"type": "note_off", "time": 96, "note": 67, "velocity": 116, "channel": 0}, {"type": "note_on", "time": 12, "note": 68, "velocity": 110, "channel": 0}, {"type": "note_off", "time": 284, "note": 68, "velocity": 110, "channel": 0}, {"type": "note_on", "time": 16, "note": 67, "velocity": 115, "channel": 0}, {"type": "note_off", "time": 82, "note": 67, "velocity": 115, "channel": 0}, {"type": "note_on", "time": 12, "note": 68, "velocity": 115, "channel": 0}, {"type": "note_off", "time": 92, "note": 68, "velocity": 115, "channel": 0}, {"type": "note_on", "time": 17, "note": 70, "velocity": 113, "channel": 0}, {"type": "note_off", "time": 61, "note": 70, "velocity": 113, "channel": 0}, {"type": "note_on", "time": 7, "note": 68, "velocity": 113, "channel": 0}, {"type": "note_off", "time": 34, "note": 68, "velocity": 113, "channel": 0}, {"type": "note_on", "time": 4, "note": 70, "velocity": 103, "channel": 0}, {"type": "note_off", "time": 26, "note": 70, "velocity": 103, "channel": 0}, {"type": "note_on", "time": 6, "note": 68, "velocity": 114, "channel": 0}, {"type": "note_off", "time": 48, "note": 68, "velocity": 114, "channel": 0}, {"type": "note_on", "time": 16, "note": 65, "velocity": 113, "channel": 0}, {"type": "note_off", "time": 58, "note": 65, "velocity": 113, "channel": 0}, {"type": "note_on", "time": 5, "note": 68, "velocity": 113, "channel": 0}, {"type": "note_off", "time": 167, "note": 68, "velocity": 113, "channel": 0}, {"type": "note_on", "time": 4, "note": 67, "velocity": 113, "channel": 0}, {"type": "note_off", "time": 35, "note": 67, "velocity": 113, "channel": 0}, {"type": "note_on", "time": 3, "note": 65, "velocity": 111, "channel": 0}, {"type": "note_off", "time": 90, "note": 65, "velocity": 111, "channel": 0}, {"type": "note_on", "time": 6, "note": 67, "velocity": 115, "channel": 0}, {"type": "note_off", "time": 184, "note": 67, "velocity": 115, "channel": 0}, {"type": "note_on", "time": 51, "note": 76, "velocity": 120, "channel": 0}, {"type": "note_off", "time": 47, "note": 76, "velocity": 120, "channel": 0}, {"type": "note_on", "time": 4, "note": 77, "velocity": 122, "channel": 0}, {"type": "note_off", "time": 155, "note": 77, "velocity": 122, "channel": 0}, {"type": "note_on", "time": 9, "note": 75, "velocity": 110, "channel": 0}, {"type": "note_off", "time": 433, "note": 75, "velocity": 110, "channel": 0}, {"type": "note_on", "time": 625, "note": 65, "velocity": 123, "channel": 0}, {"type": "note_off", "time": 84, "note": 65, "velocity": 123, "channel": 0}, {"type": "note_on", "time": 3, "note": 66, "velocity": 120, "channel": 0}, {"type": "note_off", "time": 82, "note": 66, "velocity": 120, "channel": 0}, {"type": "note_on", "time": 7, "note": 69, "velocity": 127, "channel": 0}, {"type": "note_off", "time": 86, "note": 69, "velocity": 127, "channel": 0}, {"type": "note_on", "time": 7, "note": 70, "velocity": 114, "channel": 0}, {"type": "note_off", "time": 88, "note": 70, "velocity": 114, "channel": 0}, {"type": "note_on", "time": 9, "note": 72, "velocity": 115, "channel": 0}, {"type": "note_off", "time": 92, "note": 72, "velocity": 115, "channel": 0}, {"type": "note_on", "time": 13, "note": 75, "velocity": 118, "channel": 0}, {"type": "note_off", "time": 108, "note": 75, "velocity": 118, "channel": 0}, {"type": "note_on", "time": 18, "note": 73, "velocity": 114, "channel": 0}, {"type": "note_off", "time": 240, "note": 73, "velocity": 114, "channel": 0}, {"type": "note_on", "time": 13, "note": 72, "velocity": 109, "channel": 0}, {"type": "note_off", "time": 311, "note": 72, "velocity": 109, "channel": 0}, {"type": "note_on", "time": 6, "note": 70, "velocity": 115, "channel": 0}, {"type": "note_off", "time": 81, "note": 70, "velocity": 115, "channel": 0}, {"type": "note_on", "time": 30, "note": 72, "velocity": 112, "channel": 0}, {"type": "note_off", "time": 37, "note": 72, "velocity": 112, "channel": 0}, {"type": "note_on", "time": 7, "note": 73, "velocity": 110, "channel": 0}, {"type": "note_off", "time": 94, "note": 73, "velocity": 110, "channel": 0}, {"type": "note_on", "time": 9, "note": 72, "velocity": 104, "channel": 0}, {"type": "note_off", "time": 93, "note": 72, "velocity": 104, "channel": 0}, {"type": "note_on", "time": 30, "note": 70, "velocity": 106, "channel": 0}, {"type": "note_off", "time": 211, "note": 70, "velocity": 106, "channel": 0}, {"type": "note_on", "time": 393, "note": 72, "velocity": 117, "channel": 0}, {"type": "note_off", "time": 115, "note": 72, "velocity": 117, "channel": 0}, {"type": "note_on", "time": 9, "note": 70, "velocity": 118, "channel": 0}, {"type": "note_off", "time": 91, "note": 70, "velocity": 118, "channel": 0}, {"type": "note_on", "time": 10, "note": 68, "velocity": 120, "channel": 0}, {"type": "note_off", "time": 100, "note": 68, "velocity": 120, "channel": 0}, {"type": "note_on", "time": 14, "note": 67, "velocity": 115, "channel": 0}, {"type": "note_off", "time": 220, "note": 67, "velocity": 115, "channel": 0}, {"type": "note_on", "time": 3, "note": 69, "velocity": 118, "channel": 0}, {"type": "note_off", "time": 40, "note": 69, "velocity": 118, "channel": 0}, {"type": "note_on", "time": 8, "note": 70, "velocity": 111, "channel": 0}, {"type": "note_off", "time": 447, "note": 70, "velocity": 111, "channel": 0}, {"type": "note_on", "time": 25, "note": 68, "velocity": 113, "channel": 0}, {"type": "note_off", "time": 104, "note": 68, "velocity": 113, "channel": 0}, {"type": "note_on", "time": 6, "note": 67, "velocity": 114, "channel": 0}, {"type": "note_off", "time": 70, "note": 67, "velocity": 114, "channel": 0}, {"type": "note_on", "time": 15, "note": 68, "velocity": 112, "channel": 0}, {"type": "note_off", "time": 81, "note": 68, "velocity": 112, "channel": 0}, {"type": "note_on", "time": 18, "note": 60, "velocity": 106, "channel": 0}, {"type": "note_off", "time": 489, "note": 60, "velocity": 106, "channel": 0}, {"type": "note_on", "time": 350, "note": 65, "velocity": 122, "channel": 0}, {"type": "note_off", "time": 85, "note": 65, "velocity": 122, "channel": 0}, {"type": "note_on", "time": 10, "note": 64, "velocity": 110, "channel": 0}, {"type": "note_off", "time": 59, "note": 64, "velocity": 110, "channel": 0}, {"type": "note_on", "time": 32, "note": 65, "velocity": 120, "channel": 0}, {"type": "note_off", "time": 71, "note": 65, "velocity": 120, "channel": 0}, {"type": "note_on", "time": 7, "note": 67, "velocity": 119, "channel": 0}, {"type": "note_off", "time": 82, "note": 67, "velocity": 119, "channel": 0}, {"type": "note_on", "time": 9, "note": 68, "velocity": 116, "channel": 0}, {"type": "note_off", "time": 85, "note": 68, "velocity": 116, "channel": 0}, {"type": "note_on", "time": 20, "note": 70, "velocity": 112, "channel": 0}, {"type": "note_off", "time": 83, "note": 70, "velocity": 112, "channel": 0}, {"type": "note_on", "time": 13, "note": 67, "velocity": 112, "channel": 0}, {"type": "note_off", "time": 83, "note": 67, "velocity": 112, "channel": 0}, {"type": "note_on", "time": 8, "note": 68, "velocity": 109, "channel": 0}, {"type": "note_off", "time": 289, "note": 68, "velocity": 109, "channel": 0}, {"type": "note_on", "time": 14, "note": 70, "velocity": 91, "channel": 0}, {"type": "note_off", "time": 465, "note": 70, "velocity": 91, "channel": 0}, {"type": "end_of_track", "time": 0}]]}