{"ticks_per_beat": 192, "tracks": [[{"type": "track_name", "name": "Melody", "time": 0}, {"type": "set_tempo", "tempo": 257510, "time": 0}, {"type": "key_signature", "key": "Bb", "time": 0}, {"type": "time_signature", "numerator": 4, "denominator": 4, "clocks_per_click": 24, "notated_32nd_notes_per_beat": 8, "time": 0}, {"type": "note_on", "time": 2120, "note": 69, "velocity": 113, "channel": 0}, {"type": "note_off", "time": 60, "note": 69, "velocity": 113, "channel": 0}, {"type": "note_on", "time": 15, "note": 70, "velocity": 124, "channel": 0}, {"type": "note_off", "time": 133, "note": 70, "velocity": 124, "channel": 0}, {"type": "note_on", "time": 24, "note": 72, "velocity": 114, "channel": 0}, {"type": "note_off", "time": 106, "note": 72, "velocity": 114, "channel": 0}, {"type": "note_on", "time": 48, "note": 74, "velocity": 109, "channel": 0}, {"type": "note_off", "time": 124, "note": 74, "velocity": 109, "channel": 0}, {"type": "note_on", "time": 85, "note": 72, "velocity": 111, "channel": 0}, {"type": "note_off", "time": 234, "note": 72, "velocity": 111, "channel": 0}, {"type": "note_on", "time": 42, "note": 70, "velocity": 104, "channel": 0}, {"type": "note_off", "time": 267, "note": 70, "velocity": 104, "channel": 0}, {"type": "note_on", "time": 447, "note": 67, "velocity": 111, "channel": 0}, {"type": "note_off", "time": 57, "note": 67, "velocity": 111, "channel": 0}, {"type": "note_on", "time": 21, "note": 69, "velocity": 118, "channel": 0}, {"type": "note_off", "time": 130, "note": 69, "velocity": 118, "channel": 0}, {"type": "note_on", "time": 24, "note": 70, "velocity": 118, "channel": 0}, {"type": "note_off", "time": 100, "note": 70, "velocity": 118, "channel": 0}, {"type": "note_on", "time": 57, "note": 72, "velocity": 113, "channel": 0}, {"type": "note_off", "time": 97, "note": 72, "velocity": 113, "channel": 0}, {"type": "note_on", "time": 76, "note": 70, "velocity": 117, "channel": 0}, {"type": "note_off", "time": 264, "note": 70, "velocity": 117, "channel": 0}, {"type": "note_on", "time": 33, "note": 69, "velocity": 105, "channel": 0}, {"type": "note_off", "time": 289, "note": 69, "velocity": 105, "channel": 0}, {"type": "note_on", "time": 18, "note": 62, "velocity": 100, "channel": 0}, {"type": "note_off", "time": 76, "note": 62, "velocity": 100, "channel": 0}, {"type": "note_on", "time": 39, "note": 63, "velocity": 109, "channel": 0}, {"type": "note_off", "time": 115, "note": 63, "velocity": 109, "channel": 0}, {"type": "note_on", "time": 3, "note": 62, "velocity": 104, "channel": 0}, {"type": "note_off", "time": 179, "note": 62, "velocity": 104, "channel": 0}, {"type": "note_on", "time": 30, "note": 61, "velocity": 108, "channel": 0}, {"type": "note_off", "time": 91, "note": 61, "velocity": 108, "channel": 0}, {"type": "note_on", "time": 30, "note": 62, "velocity": 108, "channel": 0}, {"type": "note_off", "time": 228, "note": 62, "velocity": 108, "channel": 0}, {"type": "note_on", "time": 30, "note": 70, "velocity": 118, "channel": 0}, {"type": "note_off", "time": 112, "note": 70, "velocity": 118, "channel": 0}, {"type": "note_on", "time": 60, "note": 69, "velocity": 114, "channel": 0}, {"type": "note_off", "time": 194, "note": 69, "velocity": 114, "channel": 0}, {"type": "note_on", "time": 33, "note": 67, "velocity": 103, "channel": 0}, {"type": "note_off", "time": 240, "note": 67, "velocity": 103, "channel": 0}, {"type": "note_on", "time": 626, "note": 57, "velocity": 109, "channel": 0}, {"type": "note_off", "time": 94, "note": 57, "velocity": 109, "channel": 0}, {"type": "note_on", "time": 42, "note": 58, "velocity": 112, "channel": 0}, {"type": "note_off", "time": 118, "note": 58, "velocity": 112, "channel": 0}, {"type": "note_on", "time": 48, "note": 62, "velocity": 113, "channel": 0}, {"type": "note_off", "time": 334, "note": 62, "velocity": 113, "channel": 0}, {"type": "note_on", "time": 48, "note": 66, "velocity": 112, "channel": 0}, {"type": "note_off", "time": 76, "note": 66, "velocity": 112, "channel": 0}, {"type": "note_on", "time": 36, "note": 67, "velocity": 113, "channel": 0}, {"type": "note_off", "time": 240, "note": 67, "velocity": 113, "channel": 0}, {"type": "note_on", "time": 12, "note": 70, "velocity": 112, "channel": 0}, {"type": "note_off", "time": 261, "note": 70, "velocity": 112, "channel": 0}, {"type": "note_on", "time": 115, "note": 72, "velocity": 114, "channel": 0}, {"type": "note_off", "time": 109, "note": 72, "velocity": 114, "channel": 0}, {"type": "note_on", "time": 76, "note": 70, "velocity": 125, "channel": 0}, {"type": "note_off", "time": 143, "note": 70, "velocity": 125, "channel": 0}, {"type": "note_on", "time": 73, "note": 63, "velocity": 92, "channel": 0}, {"type": "note_off", "time": 818, "note": 63, "velocity": 92, "channel": 0}, {"type": "note_on", "time": 289, "note": 72, "velocity": 117, "channel": 0}, {"type": "note_off", "time": 130, "note": 72, "velocity": 117, "channel": 0}, {"type": "note_on", "time": 3, "note": 71, "velocity": 113, "channel": 0}, {"type": "note_off", "time": 33, "note": 71, "velocity": 113, "channel": 0}, {"type": "note_on", "time": 27, "note": 70, "velocity": 122, "channel": 0}, {"type": "note_off", "time": 27, "note": 70, "velocity": 122, "channel": 0}, {"type": "note_on", "time": 3, "note": 69, "velocity": 114, "channel": 0}, {"type": "note_off", "time": 167, "note": 69, "velocity": 114, "channel": 0}, {"type": "note_on", "time": 0, "note": 65, "velocity": 103, "channel": 0}, {"type": "note_off", "time": 724, "note": 65, "velocity": 103, "channel": 0}, {"type": "note_on", "time": 441, "note": 68, "velocity": 109, "channel": 0}, {"type": "note_off", "time": 42, "note": 68, "velocity": 109, "channel": 0}, {"type": "note_on", "time": 39, "note": 69, "velocity": 116, "channel": 0}, {"type": "note_off", "time": 283, "note": 69, "velocity": 116, "channel": 0}, {"type": "note_on", "time": 15, "note": 67, "velocity": 108, "channel": 0}, {"type": "note_off", "time": 587, "note": 67, "velocity": 108, "channel": 0}, {"type": "note_on", "time": 505, "note": 69, "velocity": 113, "channel": 0}, {"type": "note_off", "time": 106, "note": 69, "velocity": 113, "channel": 0}, {"type": "note_on", "time": 48, "note": 70, "velocity": 117, "channel": 0}, {"type": "note_off", "time": 118, "note": 70, "velocity": 117, "channel": 0}, {"type": "note_on", "time": 73, "note": 67, "velocity": 111, "channel": 0}, {"type": "note_off", "time": 79, "note": 67, "velocity": 111, "channel": 0}, {"type": "note_on", "time": 0, "note": 69, "velocity": 114, "channel": 0}, {"type": "note_off", "time": 359, "note": 69, "velocity": 114, "channel": 0}, {"type": "note_on", "time": 3, "note": 66, "velocity": 117, "channel": 0}, {"type": "note_off", "time": 356, "note": 66, "velocity": 117, "channel": 0}, {"type": "note_on", "time": 39, "note": 67, "velocity": 112, "channel": 0}, {"type": "note_off", "time": 243, "note": 67, "velocity": 112, "channel": 0}, {"type": "note_on", "time": 167, "note": 68, "velocity": 114, "channel": 0}, {"type": "note_off", "time": 63, "note": 68, "velocity": 114, "channel": 0}, {"type": "note_on", "time": 6, "note": 69, "velocity": 111, "channel": 0}, {"type": "note_off", "time": 267, "note": 69, "velocity": 111, "channel": 0}, {"type": "note_on", "time": 9, "note": 65, "velocity": 113, "channel": 0}, {"type": "note_off", "time": 371, "note": 65, "velocity": 113, "channel": 0}, {"type": "note_on", "time": 51, "note": 60, "velocity": 113, "channel": 0}, {"type": "note_off", "time": 82, "note": 60, "velocity": 113, "channel": 0}, {"type": "note_on", "time": 24, "note": 62, "velocity": 106, "channel": 0}, {"type": "note_off", "time": 273, "note": 62, "velocity": 106, "channel": 0}, {"type": "note_on", "time": 27, "note": 57, "velocity": 103, "channel": 0}, {"type": "note_off", "time": 526, "note": 57, "velocity": 103, "channel": 0}, {"type": "note_on", "time": 526, "note": 69, "velocity": 114, "channel": 0}, {"type": "note_off", "time": 82, "note": 69, "velocity": 114, "channel": 0}, {"type": "note_on", "time": 15, "note": 72, "velocity": 122, "channel": 0}, {"type": "note_off", "time": 63, "note": 72, "velocity": 122, "channel": 0}, {"type": "note_on", "time": 33, "note": 72, "velocity": 116, "channel": 0}, {"type": "note_off", "time": 82, "note": 72, "velocity": 116, "channel": 0}, {"type": "note_on", "time": 6, "note": 69, "velocity": 121, "channel": 0}, {"type": "note_off", "time": 85, "note": 69, "velocity": 121, "channel": 0}, {"type": "note_on", "time": 24, "note": 69, "velocity": 120, "channel": 0}, {"type": "note_off", "time": 69, "note": 69, "velocity": 120, "channel": 0}, {"type": "note_on", "time": 0, "note": 66, "velocity": 126, "channel": 0}, {"type": "note_off", "time": 82, "note": 66, "velocity": 126, "channel": 0}, {"type": "note_on", "time": 27, "note": 66, "velocity": 118, "channel": 0}, {"type": "note_off", "time": 85, "note": 66, "velocity": 118, "channel": 0}, {"type": "note_on", "time": 3, "note": 62, "velocity": 116, "channel": 0}, {"type": "note_off", "time": 94, "note": 62, "velocity": 116, "channel": 0}, {"type": "note_on", "time": 15, "note": 62, "velocity": 109, "channel": 0}, {"type": "note_off", "time": 82, "note": 62, "velocity": 109, "channel": 0}, {"type": "note_on", "time": 0, "note": 57, "velocity": 107, "channel": 0}, {"type": "note_off", "time": 88, "note": 57, "velocity": 107, "channel": 0}, {"type": "note_on", "time": 15, "note": 57, "velocity": 112, "channel": 0}, {"type": "note_off", "time": 60, "note": 57, "velocity": 112, "channel": 0}, {"type": "note_on", "time": 0, "note": 62, "velocity": 117, "channel": 0}, {"type": "note_off", "time": 57, "note": 62, "velocity": 117, "channel": 0}, {"type": "note_on", "time": 39, "note": 62, "velocity": 117, "channel": 0}, {"type": "note_off", "time": 85, "note": 62, "velocity": 117, "channel": 0}, {"type": "note_on", "time": 3, "note": 58, "velocity": 97, "channel": 0}, {"type": "note_off", "time": 371, "note": 58, "velocity": 97, "channel": 0}, {"type": "note_on", "time": 146, "note": 58, "velocity": 103, "channel": 0}, {"type": "note_off", "time": 69, "note": 58, "velocity": 103, "channel": 0}, {"type": "note_on", "time": 24, "note": 62, "velocity": 91, "channel": 0}, {"type": "note_off", "time": 60, "note": 62, "velocity": 91, "channel": 0}, {"type": "note_on", "time": 0, "note": 67, "velocity": 113, "channel": 0}, {"type": "note_off", "time": 97, "note": 67, "velocity": 113, "channel": 0}, {"type": "note_on", "time": 18, "note": 70, "velocity": 116, "channel": 0}, {"type": "note_off", "time": 240, "note": 70, "velocity": 116, "channel": 0}, {"type": "note_on", "time": 143, "note": 72, "velocity": 119, "channel": 0}, {"type": "note_off", "time": 85, "note": 72, "velocity": 119, "channel": 0}, {"type": "note_on", "time": 3, "note": 70, "velocity": 123, "channel": 0}, {"type": "note_off", "time": 94, "note": 70, "velocity": 123, "channel": 0}, {"type": "note_on", "time": 0, "note": 67, "velocity": 117, "channel": 0}, {"type": "note_off", "time": 79, "note": 67, "velocity": 117, "channel": 0}, {"type": "note_on", "time": 33, "note": 62, "velocity": 115, "channel": 0}, {"type": "note_off", "time": 69, "note": 62, "velocity": 115, "channel": 0}, {"type": "note_on", "time": 12, "note": 60, "velocity": 113, "channel": 0}, {"type": "note_off", "time": 103, "note": 60, "velocity": 113, "channel": 0}, {"type": "note_on", "time": 0, "note": 62, "velocity": 103, "channel": 0}, {"type": "note_off", "time": 508, "note": 62, "velocity": 103, "channel": 0}, {"type": "note_on", "time": 642, "note": 62, "velocity": 110, "channel": 0}, {"type": "note_on", "time": 42, "note": 63, "velocity": 115, "channel": 0}, {"type": "note_off", "time": 0, "note": 62, "velocity": 110, "channel": 0}, {"type": "note_off", "time": 66, "note": 63, "velocity": 115, "channel": 0}, {"type": "note_on", "time": 6, "note": 62, "velocity": 113, "channel": 0}, {"type": "note_off", "time": 170, "note": 62, "velocity": 113, "channel": 0}, {"type": "note_on", "time": 12, "note": 63, "velocity": 110, "channel": 0}, {"type": "note_off", "time": 152, "note": 63, "velocity": 110, "channel": 0}, {"type": "note_on", "time": 33, "note": 65, "velocity": 121, "channel": 0}, {"type": "note_off", "time": 127, "note": 65, "velocity": 121, "channel": 0}, {"type": "note_on", "time": 66, "note": 65, "velocity": 120, "channel": 0}, {"type": "note_off", "time": 158, "note": 65, "velocity": 120, "channel": 0}, {"type": "note_on", "time": 33, "note": 67, "velocity": 111, "channel": 0}, {"type": "note_off", "time": 115, "note": 67, "velocity": 111, "channel": 0}, {"type": "note_on", "time": 79, "note": 67, "velocity": 118, "channel": 0}, {"type": "note_off", "time": 191, "note": 67, "velocity": 118, "channel": 0}, {"type": "note_on", "time": 0, "note": 69, "velocity": 120, "channel": 0}, {"type": "note_off", "time": 94, "note": 69, "velocity": 120, "channel": 0}, {"type": "note_on", "time": 82, "note": 69, "velocity": 120, "channel": 0}, {"type": "note_off", "time": 167, "note": 69, "velocity": 120, "channel": 0}, {"type": "note_on", "time": 15, "note": 72, "velocity": 108, "channel": 0}, {"type": "note_off", "time": 124, "note": 72, "velocity": 108, "channel": 0}, {"type": "note_on", "time": 85, "note": 72, "velocity": 114, "channel": 0}, {"type": "note_off", "time": 179, "note": 72, "velocity": 114, "channel": 0}, {"type": "note_on", "time": 0, "note": 74, "velocity": 112, "channel": 0}, {"type": "note_off", "time": 124, "note": 74, "velocity": 112, "channel": 0}, {"type": "note_on", "time": 51, "note": 74, "velocity": 109, "channel": 0}, {"type": "note_off", "time": 240, "note": 74, "velocity": 109, "channel": 0}, {"type": "note_on", "time": 161, "note": 67, "velocity": 118, "channel": 0}, {"type": "note_off", "time": 136, "note": 67, "velocity": 118, "channel": 0}, {"type": "note_on", "time": 36, "note": 68, "velocity": 114, "channel": 0}, {"type": "note_off", "time": 103, "note": 68, "velocity": 114, "channel": 0}, {"type": "note_on", "time": 85, "note": 66, "velocity": 110, "channel": 0}, {"type": "note_off", "time": 85, "note": 66, "velocity": 110, "channel": 0}, {"type": "note_on", "time": 39, "note": 67, "velocity": 115, "channel": 0}, {"type": "note_off", "time": 270, "note": 67, "velocity": 115, "channel": 0}, {"type": "note_on", "time": 33, "note": 70, "velocity": 100, "channel": 0}, {"type": "note_off", "time": 389, "note": 70, "velocity": 100, "channel": 0}, {"type": "note_on", "time": 24, "note": 63, "velocity": 103, "channel": 0}, {"type": "note_off", "time": 88, "note": 63, "velocity": 103, "channel": 0}, {"type": "note_on", "time": 100, "note": 60, "velocity": 103, "channel": 0}, {"type": "note_off", "time": 82, "note": 60, "velocity": 103, "channel": 0}, {"type": "note_on", "time": 94, "note": 69, "velocity": 116, "channel": 0}, {"type": "note_off", "time": 319, "note": 69, "velocity": 116, "channel": 0}, {"type": "note_on", "time": 82, "note": 65, "velocity": 116, "channel": 0}, {"type": "note_off", "time": 112, "note": 65, "velocity": 116, "channel": 0}, {"type": "note_on", "time": 18, "note": 62, "velocity": 101, "channel": 0}, {"type": "note_off", "time": 82, "note": 62, "velocity": 101, "channel": 0}, {"type": "note_on", "time": 54, "note": 58, "velocity": 90, "channel": 0}, {"type": "note_off", "time": 404, "note": 58, "velocity": 90, "channel": 0}, {"type": "note_on", "time": 830, "note": 69, "velocity": 121, "channel": 0}, {"type": "note_off", "time": 97, "note": 69, "velocity": 121, "channel": 0}, {"type": "note_on", "time": 24, "note": 69, "velocity": 118, "channel": 0}, {"type": "note_off", "time": 85, "note": 69, "velocity": 118, "channel": 0}, {"type": "note_on", "time": 115, "note": 69, "velocity": 119, "channel": 0}, {"type": "note_off", "time": 82, "note": 69, "velocity": 119, "channel": 0}, {"type": "note_on", "time": 24, "note": 69, "velocity": 118, "channel": 0}, {"type": "note_off", "time": 82, "note": 69, "velocity": 118, "channel": 0}, {"type": "note_on", "time": 79, "note": 69, "velocity": 117, "channel": 0}, {"type": "note_off", "time": 73, "note": 69, "velocity": 117, "channel": 0}, {"type": "note_on", "time": 36, "note": 69, "velocity": 107, "channel": 0}, {"type": "note_off", "time": 97, "note": 69, "velocity": 107, "channel": 0}, {"type": "note_on", "time": 82, "note": 69, "velocity": 119, "channel": 0}, {"type": "note_off", "time": 57, "note": 69, "velocity": 119, "channel": 0}, {"type": "note_on", "time": 33, "note": 69, "velocity": 112, "channel": 0}, {"type": "note_off", "time": 115, "note": 69, "velocity": 112, "channel": 0}, {"type": "note_on", "time": 60, "note": 69, "velocity": 111, "channel": 0}, {"type": "note_off", "time": 106, "note": 69, "velocity": 111, "channel": 0}, {"type": "note_on", "time": 94, "note": 69, "velocity": 120, "channel": 0}, {"type": "note_off", "time": 94, "note": 69, "velocity": 120, "channel": 0}, {"type": "note_on", "time": 91, "note": 69, "velocity": 119, "channel": 0}, {"type": "note_off", "time": 76, "note": 69, "velocity": 119, "channel": 0}, {"type": "note_on", "time": 45, "note": 69, "velocity": 108, "channel": 0}, {"type": "note_off", "time": 106, "note": 69, "velocity": 108, "channel": 0}, {"type": "note_on", "time": 82, "note": 69, "velocity": 119, "channel": 0}, {"type": "note_off", "time": 94, "note": 69, "velocity": 119, "channel": 0}, {"type": "note_on", "time": 94, "note": 69, "velocity": 119, "channel": 0}, {"type": "note_off", "time": 88, "note": 69, "velocity": 119, "channel": 0}, {"type": "note_on", "time": 12, "note": 69, "velocity": 111, "channel": 0}, {"type": "note_off", "time": 423, "note": 69, "velocity": 111, "channel": 0}, {"type": "note_on", "time": 161, "note": 69, "velocity": 109, "channel": 0}, {"type": "note_off", "time": 219, "note": 69, "velocity": 109, "channel": 0}, {"type": "note_on", "time": 48, "note": 66, "velocity": 115, "channel": 0}, {"type": "note_off", "time": 94, "note": 66, "velocity": 115, "channel": 0}, {"type": "note_on", "time": 12, "note": 62, "velocity": 97, "channel": 0}, {"type": "note_off", "time": 76, "note": 62, "velocity": 97, "channel": 0}, {"type": "note_on", "time": 39, "note": 60, "velocity": 106, "channel": 0}, {"type": "note_off", "time": 66, "note": 60, "velocity": 106, "channel": 0}, {"type": "note_on", "time": 12, "note": 58, "velocity": 113, "channel": 0}, {"type": "note_off", "time": 51, "note": 58, "velocity": 113, "channel": 0}, {"type": "note_on", "time": 42, "note": 59, "velocity": 118, "channel": 0}, {"type": "note_off", "time": 57, "note": 59, "velocity": 118, "channel": 0}, {"type": "note_on", "time": 27, "note": 60, "velocity": 108, "channel": 0}, {"type": "note_off", "time": 149, "note": 60, "velocity": 108, "channel": 0}, {"type": "note_on", "time": 797, "note": 58, "velocity": 98, "channel": 0}, {"type": "note_off", "time": 60, "note": 58, "velocity": 98, "channel": 0}, {"type": "note_on", "time": 36, "note": 62, "velocity": 95, "channel": 0}, {"type": "note_off", "time": 66, "note": 62, "velocity": 95, "channel": 0}, {"type": "note_on", "time": 12, "note": 67, "velocity": 124, "channel": 0}, {"type": "note_off", "time": 88, "note": 67, "velocity": 124, "channel": 0}, {"type": "note_on", "time": 15, "note": 69, "velocity": 121, "channel": 0}, {"type": "note_off", "time": 82, "note": 69, "velocity": 121, "channel": 0}, {"type": "note_on", "time": 6, "note": 70, "velocity": 126, "channel": 0}, {"type": "note_off", "time": 94, "note": 70, "velocity": 126, "channel": 0}, {"type": "note_on", "time": 9, "note": 71, "velocity": 121, "channel": 0}, {"type": "note_off", "time": 63, "note": 71, "velocity": 121, "channel": 0}, {"type": "note_on", "time": 15, "note": 72, "velocity": 119, "channel": 0}, {"type": "note_off", "time": 88, "note": 72, "velocity": 119, "channel": 0}, {"type": "note_on", "time": 9, "note": 70, "velocity": 118, "channel": 0}, {"type": "note_off", "time": 82, "note": 70, "velocity": 118, "channel": 0}, {"type": "note_on", "time": 0, "note": 67, "velocity": 119, "channel": 0}, {"type": "note_off", "time": 73, "note": 67, "velocity": 119, "channel": 0}, {"type": "note_on", "time": 21, "note": 62, "velocity": 112, "channel": 0}, {"type": "note_off", "time": 112, "note": 62, "velocity": 112, "channel": 0}, {"type": "note_on", "time": 0, "note": 60, "velocity": 111, "channel": 0}, {"type": "note_off", "time": 76, "note": 60, "velocity": 111, "channel": 0}, {"type": "note_on", "time": 36, "note": 62, "velocity": 102, "channel": 0}, {"type": "note_off", "time": 240, "note": 62, "velocity": 102, "channel": 0}, {"type": "note_on", "time": 821, "note": 70, "velocity": 114, "channel": 0}, {"type": "note_off", "time": 143, "note": 70, "velocity": 114, "channel": 0}, {"type": "note_on", "time": 45, "note": 63, "velocity": 110, "channel": 0}, {"type": "note_off", "time": 209, "note": 63, "velocity": 110, "channel": 0}, {"type": "note_on", "time": 118, "note": 67, "velocity": 114, "channel": 0}, {"type": "note_off", "time": 188, "note": 67, "velocity": 114, "channel": 0}, {"type": "note_on", "time": 51, "note": 75, "velocity": 100, "channel": 0}, {"type": "note_off", "time": 155, "note": 75, "velocity": 100, "channel": 0}, {"type": "note_on", "time": 185, "note": 69, "velocity": 109, "channel": 0}, {"type": "note_off", "time": 182, "note": 69, "velocity": 109, "channel": 0}, {"type": "note_on", "time": 82, "note": 72, "velocity": 105, "channel": 0}, {"type": "note_off", "time": 164, "note": 72, "velocity": 105, "channel": 0}, {"type": "note_on", "time": 161, "note": 62, "velocity": 115, "channel": 0}, {"type": "note_off", "time": 179, "note": 62, "velocity": 115, "channel": 0}, {"type": "note_on", "time": 66, "note": 65, "velocity": 106, "channel": 0}, {"type": "note_off", "time": 286, "note": 65, "velocity": 106, "channel": 0}, {"type": "note_on", "time": 6, "note": 69, "velocity": 114, "channel": 0}, {"type": "note_off", "time": 155, "note": 69, "velocity": 114, "channel": 0}, {"type": "note_on", "time": 112, "note": 72, "velocity": 112, "channel": 0}, {"type": "note_off", "time": 149, "note": 72, "velocity": 112, "channel": 0}, {"type": "note_on", "time": 158, "note": 70, "velocity": 120, "channel": 0}, {"type": "note_off", "time": 267, "note": 70, "velocity": 120, "channel": 0}, {"type": "note_on", "time": 18, "note": 71, "velocity": 97, "channel": 0}, {"type": "note_off", "time": 252, "note": 71, "velocity": 97, "channel": 0}, {"type": "note_on", "time": 45, "note": 67, "velocity": 117, "channel": 0}, {"type": "note_off", "time": 124, "note": 67, "velocity": 117, "channel": 0}, {"type": "note_on", "time": 79, "note": 64, "velocity": 106, "channel": 0}, {"type": "note_off", "time": 249, "note": 64, "velocity": 106, "channel": 0}, {"type": "note_on", "time": 57, "note": 61, "velocity": 113, "channel": 0}, {"type": "note_off", "time": 130, "note": 61, "velocity": 113, "channel": 0}, {"type": "note_on", "time": 18, "note": 62, "velocity": 112, "channel": 0}, {"type": "note_off", "time": 88, "note": 62, "velocity": 112, "channel": 0}, {"type": "note_on", "time": 106, "note": 61, "velocity": 110, "channel": 0}, {"type": "note_off", "time": 146, "note": 61, "velocity": 110, "channel": 0}, {"type": "note_on", "time": 18, "note": 64, "velocity": 103, "channel": 0}, {"type": "note_off", "time": 79, "note": 64, "velocity": 103, "channel": 0}, {"type": "note_on", "time": 133, "note": 69, "velocity": 99, "channel": 0}, {"type": "note_off", "time": 392, "note": 69, "velocity": 99, "channel": 0}, {"type": "note_on", "time": 1138, "note": 72, "velocity": 115, "channel": 0}, {"type": "note_off", "time": 118, "note": 72, "velocity": 115, "channel": 0}, {"type": "note_on", "time": 30, "note": 74, "velocity": 113, "channel": 0}, {"type": "note_off", "time": 133, "note": 74, "velocity": 113, "channel": 0}, {"type": "note_on", "time": 88, "note": 74, "velocity": 116, "channel": 0}, {"type": "note_off", "time": 103, "note": 74, "velocity": 116, "channel": 0}, {"type": "note_on", "time": 118, "note": 74, "velocity": 98, "channel": 0}, {"type": "note_off", "time": 112, "note": 74, "velocity": 98, "channel": 0}, {"type": "note_on", "time": 88, "note": 74, "velocity": 114, "channel": 0}, {"type": "note_off", "time": 112, "note": 74, "velocity": 114, "channel": 0}, {"type": "note_on", "time": 18, "note": 74, "velocity": 114, "channel": 0}, {"type": "note_off", "time": 88, "note": 74, "velocity": 114, "channel": 0}, {"type": "note_on", "time": 69, "note": 74, "velocity": 106, "channel": 0}, {"type": "note_off", "time": 100, "note": 74, "velocity": 106, "channel": 0}, {"type": "note_on", "time": 45, "note": 72, "velocity": 113, "channel": 0}, {"type": "note_off", "time": 85, "note": 72, "velocity": 113, "channel": 0}, {"type": "note_on", "time": 0, "note": 70, "velocity": 109, "channel": 0}, {"type": "note_off", "time": 146, "note": 70, "velocity": 109, "channel": 0}, {"type": "note_on", "time": 45, "note": 62, "velocity": 100, "channel": 0}, {"type": "note_off", "time": 136, "note": 62, "velocity": 100, "channel": 0}, {"type": "note_on", "time": 30, "note": 62, "velocity": 117, "channel": 0}, {"type": "note_off", "time": 185, "note": 62, "velocity": 117, "channel": 0}, {"type": "note_on", "time": 57, "note": 62, "velocity": 108, "channel": 0}, {"type": "note_off", "time": 346, "note": 62, "velocity": 108, "channel": 0}, {"type": "note_on", "time": 30, "note": 62, "velocity": 107, "channel": 0}, {"type": "note_off", "time": 155, "note": 62, "velocity": 107, "channel": 0}, {"type": "note_on", "time": 106, "note": 62, "velocity": 116, "channel": 0}, {"type": "note_off", "time": 164, "note": 62, "velocity": 116, "channel": 0}, {"type": "note_on", "time": 76, "note": 61, "velocity": 116, "channel": 0}, {"type": "note_off", "time": 57, "note": 61, "velocity": 116, "channel": 0}, {"type": "note_on", "time": 33, "note": 62, "velocity": 115, "channel": 0}, {"type": "note_off", "time": 124, "note": 62, "velocity": 115, "channel": 0}, {"type": "note_on", "time": 0, "note": 70, "velocity": 121, "channel": 0}, {"type": "note_off", "time": 295, "note": 70, "velocity": 121, "channel": 0}, {"type": "note_on", "time": 36, "note": 72, "velocity": 116, "channel": 0}, {"type": "note_off", "time": 152, "note": 72, "velocity": 116, "channel": 0}, {"type": "note_on", "time": 57, "note": 72, "velocity": 110, "channel": 0}, {"type": "note_off", "time": 194, "note": 72, "velocity": 110, "channel": 0}, {"type": "note_on", "time": 82, "note": 72, "velocity": 113, "channel": 0}, {"type": "note_off", "time": 185, "note": 72, "velocity": 113, "channel": 0}, {"type": "note_on", "time": 130, "note": 70, "velocity": 112, "channel": 0}, {"type": "note_off", "time": 97, "note": 70, "velocity": 112, "channel": 0}, {"type": "note_on", "time": 139, "note": 69, "velocity": 110, "channel": 0}, {"type": "note_off", "time": 36, "note": 69, "velocity": 110, "channel": 0}, {"type": "note_on", "time": 0, "note": 70, "velocity": 113, "channel": 0}, {"type": "note_off", "time": 112, "note": 70, "velocity": 113, "channel": 0}, {"type": "note_on", "time": 136, "note": 60, "velocity": 89, "channel": 0}, {"type": "note_off", "time": 477, "note": 60, "velocity": 89, "channel": 0}, {"type": "note_on", "time": 730, "note": 63, "velocity": 98, "channel": 0}, {"type": "note_off", "time": 39, "note": 63, "velocity": 98, "channel": 0}, {"type": "note_on", "time": 15, "note": 67, "velocity": 118, "channel": 0}, {"type": "note_off", "time": 130, "note": 67, "velocity": 118, "channel": 0}, {"type": "note_on", "time": 69, "note": 70, "velocity": 116, "channel": 0}, {"type": "note_off", "time": 267, "note": 70, "velocity": 116, "channel": 0}, {"type": "note_on", "time": 63, "note": 58, "velocity": 106, "channel": 0}, {"type": "note_off", "time": 60, "note": 58, "velocity": 106, "channel": 0}, {"type": "note_on", "time": 27, "note": 59, "velocity": 116, "channel": 0}, {"type": "note_off", "time": 33, "note": 59, "velocity": 116, "channel": 0}, {"type": "note_on", "time": 30, "note": 60, "velocity": 103, "channel": 0}, {"type": "note_off", "time": 66, "note": 60, "velocity": 103, "channel": 0}, {"type": "note_on", "time": 6, "note": 63, "velocity": 98, "channel": 0}, {"type": "note_off", "time": 100, "note": 63, "velocity": 98, "channel": 0}, {"type": "note_on", "time": 18, "note": 67, "velocity": 102, "channel": 0}, {"type": "note_off", "time": 69, "note": 67, "velocity": 102, "channel": 0}, {"type": "note_on", "time": 27, "note": 70, "velocity": 127, "channel": 0}, {"type": "note_off", "time": 146, "note": 70, "velocity": 127, "channel": 0}, {"type": "note_on", "time": 27, "note": 72, "velocity": 79, "channel": 0}, {"type": "note_off", "time": 73, "note": 72, "velocity": 79, "channel": 0}, {"type": "note_on", "time": 57, "note": 69, "velocity": 110, "channel": 0}, {"type": "note_off", "time": 133, "note": 69, "velocity": 110, "channel": 0}, {"type": "note_on", "time": 42, "note": 67, "velocity": 119, "channel": 0}, {"type": "note_off", "time": 252, "note": 67, "velocity": 119, "channel": 0}, {"type": "note_on", "time": 21, "note": 65, "velocity": 111, "channel": 0}, {"type": "note_off", "time": 359, "note": 65, "velocity": 111, "channel": 0}, {"type": "note_on", "time": 42, "note": 67, "velocity": 119, "channel": 0}, {"type": "note_off", "time": 146, "note": 67, "velocity": 119, "channel": 0}, {"type": "note_on", "time": 21, "note": 68, "velocity": 100, "channel": 0}, {"type": "note_off", "time": 112, "note": 68, "velocity": 100, "channel": 0}, {"type": "note_on", "time": 12, "note": 67, "velocity": 104, "channel": 0}, {"type": "note_off", "time": 690, "note": 67, "velocity": 104, "channel": 0}, {"type": "note_on", "time": 499, "note": 62, "velocity": 79, "channel": 0}, {"type": "note_off", "time": 54, "note": 62, "velocity": 79, "channel": 0}, {"type": "note_on", "time": 24, "note": 65, "velocity": 124, "channel": 0}, {"type": "note_off", "time": 91, "note": 65, "velocity": 124, "channel": 0}, {"type": "note_on", "time": 42, "note": 66, "velocity": 123, "channel": 0}, {"type": "note_off", "time": 127, "note": 66, "velocity": 123, "channel": 0}, {"type": "note_on", "time": 33, "note": 65, "velocity": 108, "channel": 0}, {"type": "note_off", "time": 316, "note": 65, "velocity": 108, "channel": 0}, {"type": "note_on", "time": 0, "note": 63, "velocity": 91, "channel": 0}, {"type": "note_off", "time": 100, "note": 63, "velocity": 91, "channel": 0}, {"type": "note_on", "time": 34, "note": 60, "velocity": 76, "channel": 0}, {"type": "note_off", "time": 118, "note": 60, "velocity": 76, "channel": 0}, {"type": "note_on", "time": 69, "note": 65, "velocity": 119, "channel": 0}, {"type": "note_off", "time": 155, "note": 65, "velocity": 119, "channel": 0}, {"type": "note_on", "time": 60, "note": 70, "velocity": 92, "channel": 0}, {"type": "note_off", "time": 937, "note": 70, "velocity": 92, "channel": 0}, {"type": "note_on", "time": 57, "note": 67, "velocity": 114, "channel": 0}, {"type": "note_off", "time": 103, "note": 67, "velocity": 114, "channel": 0}, {"type": "note_on", "time": 143, "note": 61, "velocity": 118, "channel": 0}, {"type": "note_off", "time": 66, "note": 61, "velocity": 118, "channel": 0}, {"type": "note_on", "time": 27, "note": 62, "velocity": 104, "channel": 0}, {"type": "note_off", "time": 133, "note": 62, "velocity": 104, "channel": 0}, {"type": "note_on", "time": 36, "note": 58, "velocity": 78, "channel": 0}, {"type": "note_off", "time": 678, "note": 58, "velocity": 78, "channel": 0}, {"type": "end_of_track", "time": 0}]]}