{"ticks_per_beat": 192, "tracks": [[{"type": "track_name", "name": "Melody", "time": 0}, {"type": "set_tempo", "tempo": 422535, "time": 0}, {"type": "key_signature", "key": "Ab", "time": 0}, {"type": "time_signature", "numerator": 4, "denominator": 4, "clocks_per_click": 24, "notated_32nd_notes_per_beat": 8, "time": 0}, {"type": "note_on", "time": 1980, "note": 63, "velocity": 105, "channel": 0}, {"type": "note_off", "time": 215, "note": 63, "velocity": 105, "channel": 0}, {"type": "note_on", "time": 51, "note": 65, "velocity": 119, "channel": 0}, {"type": "note_off", "time": 92, "note": 65, "velocity": 119, "channel": 0}, {"type": "note_on", "time": 29, "note": 67, "velocity": 120, "channel": 0}, {"type": "note_off", "time": 103, "note": 67, "velocity": 120, "channel": 0}, {"type": "note_on", "time": 14, "note": 68, "velocity": 120, "channel": 0}, {"type": "note_off", "time": 207, "note": 68, "velocity": 120, "channel": 0}, {"type": "note_on", "time": 33, "note": 70, "velocity": 79, "channel": 0}, {"type": "note_off", "time": 567, "note": 70, "velocity": 79, "channel": 0}, {"type": "note_on", "time": 122, "note": 68, "velocity": 123, "channel": 0}, {"type": "note_off", "time": 66, "note": 68, "velocity": 123, "channel": 0}, {"type": "note_on", "time": 3, "note": 66, "velocity": 113, "channel": 0}, {"type": "note_off", "time": 40, "note": 66, "velocity": 113, "channel": 0}, {"type": "note_on", "time": 11, "note": 67, "velocity": 123, "channel": 0}, {"type": "note_off", "time": 53, "note": 67, "velocity": 123, "channel": 0}, {"type": "note_on", "time": 33, "note": 67, "velocity": 127, "channel": 0}, {"type": "note_off", "time": 38, "note": 67, "velocity": 127, "channel": 0}, {"type": "note_on", "time": 57, "note": 67, "velocity": 126, "channel": 0}, {"type": "note_off", "time": 33, "note": 67, "velocity": 126, "channel": 0}, {"type": "note_on", "time": 55, "note": 67, "velocity": 126, "channel": 0}, {"type": "note_off", "time": 55, "note": 67, "velocity": 126, "channel": 0}, {"type": "note_on", "time": 9, "note": 66, "velocity": 115, "channel": 0}, {"type": "note_off", "time": 24, "note": 66, "velocity": 115, "channel": 0}, {"type": "note_on", "time": 11, "note": 67, "velocity": 125, "channel": 0}, {"type": "note_off", "time": 166, "note": 67, "velocity": 125, "channel": 0}, {"type": "note_on", "time": 14, "note": 67, "velocity": 124, "channel": 0}, {"type": "note_off", "time": 137, "note": 67, "velocity": 124, "channel": 0}, {"type": "note_on", "time": 20, "note": 66, "velocity": 112, "channel": 0}, {"type": "note_off", "time": 25, "note": 66, "velocity": 112, "channel": 0}, {"type": "note_on", "time": 9, "note": 67, "velocity": 124, "channel": 0}, {"type": "note_off", "time": 185, "note": 67, "velocity": 124, "channel": 0}, {"type": "note_on", "time": 18, "note": 67, "velocity": 121, "channel": 0}, {"type": "note_off", "time": 124, "note": 67, "velocity": 121, "channel": 0}, {"type": "note_on", "time": 22, "note": 66, "velocity": 107, "channel": 0}, {"type": "note_off", "time": 29, "note": 66, "velocity": 107, "channel": 0}, {"type": "note_on", "time": 16, "note": 67, "velocity": 126, "channel": 0}, {"type": "note_off", "time": 153, "note": 67, "velocity": 126, "channel": 0}, {"type": "note_on", "time": 3, "note": 63, "velocity": 105, "channel": 0}, {"type": "note_off", "time": 185, "note": 63, "velocity": 105, "channel": 0}, {"type": "note_on", "time": 7, "note": 63, "velocity": 97, "channel": 0}, {"type": "note_off", "time": 758, "note": 63, "velocity": 97, "channel": 0}, {"type": "note_on", "time": 344, "note": 72, "velocity": 120, "channel": 0}, {"type": "note_off", "time": 59, "note": 72, "velocity": 120, "channel": 0}, {"type": "note_on", "time": 14, "note": 71, "velocity": 115, "channel": 0}, {"type": "note_off", "time": 42, "note": 71, "velocity": 115, "channel": 0}, {"type": "note_on", "time": 7, "note": 72, "velocity": 118, "channel": 0}, {"type": "note_off", "time": 66, "note": 72, "velocity": 118, "channel": 0}, {"type": "note_on", "time": 1, "note": 70, "velocity": 123, "channel": 0}, {"type": "note_off", "time": 81, "note": 70, "velocity": 123, "channel": 0}, {"type": "note_on", "time": 0, "note": 67, "velocity": 123, "channel": 0}, {"type": "note_off", "time": 85, "note": 67, "velocity": 123, "channel": 0}, {"type": "note_on", "time": 0, "note": 63, "velocity": 121, "channel": 0}, {"type": "note_off", "time": 72, "note": 63, "velocity": 121, "channel": 0}, {"type": "note_on", "time": 7, "note": 60, "velocity": 112, "channel": 0}, {"type": "note_off", "time": 35, "note": 60, "velocity": 112, "channel": 0}, {"type": "note_on", "time": 3, "note": 61, "velocity": 108, "channel": 0}, {"type": "note_off", "time": 593, "note": 61, "velocity": 108, "channel": 0}, {"type": "note_on", "time": 458, "note": 70, "velocity": 123, "channel": 0}, {"type": "note_off", "time": 83, "note": 70, "velocity": 123, "channel": 0}, {"type": "note_on", "time": 9, "note": 68, "velocity": 120, "channel": 0}, {"type": "note_off", "time": 29, "note": 68, "velocity": 120, "channel": 0}, {"type": "note_on", "time": 7, "note": 70, "velocity": 122, "channel": 0}, {"type": "note_off", "time": 133, "note": 70, "velocity": 122, "channel": 0}, {"type": "note_on", "time": 3, "note": 68, "velocity": 116, "channel": 0}, {"type": "note_off", "time": 191, "note": 68, "velocity": 116, "channel": 0}, {"type": "note_on", "time": 5, "note": 65, "velocity": 113, "channel": 0}, {"type": "note_off", "time": 645, "note": 65, "velocity": 113, "channel": 0}, {"type": "note_on", "time": 465, "note": 68, "velocity": 102, "channel": 0}, {"type": "note_off", "time": 61, "note": 68, "velocity": 102, "channel": 0}, {"type": "note_on", "time": 7, "note": 72, "velocity": 121, "channel": 0}, {"type": "note_off", "time": 89, "note": 72, "velocity": 121, "channel": 0}, {"type": "note_on", "time": 7, "note": 75, "velocity": 119, "channel": 0}, {"type": "note_off", "time": 77, "note": 75, "velocity": 119, "channel": 0}, {"type": "note_on", "time": 3, "note": 72, "velocity": 118, "channel": 0}, {"type": "note_off", "time": 79, "note": 72, "velocity": 118, "channel": 0}, {"type": "note_on", "time": 9, "note": 68, "velocity": 119, "channel": 0}, {"type": "note_off", "time": 79, "note": 68, "velocity": 119, "channel": 0}, {"type": "note_on", "time": 0, "note": 62, "velocity": 107, "channel": 0}, {"type": "note_off", "time": 33, "note": 62, "velocity": 107, "channel": 0}, {"type": "note_on", "time": 14, "note": 64, "velocity": 112, "channel": 0}, {"type": "note_off", "time": 146, "note": 64, "velocity": 112, "channel": 0}, {"type": "note_on", "time": 31, "note": 64, "velocity": 102, "channel": 0}, {"type": "note_off", "time": 485, "note": 64, "velocity": 102, "channel": 0}, {"type": "note_on", "time": 376, "note": 75, "velocity": 120, "channel": 0}, {"type": "note_off", "time": 98, "note": 75, "velocity": 120, "channel": 0}, {"type": "note_on", "time": 5, "note": 78, "velocity": 120, "channel": 0}, {"type": "note_off", "time": 85, "note": 78, "velocity": 120, "channel": 0}, {"type": "note_on", "time": 7, "note": 75, "velocity": 116, "channel": 0}, {"type": "note_off", "time": 77, "note": 75, "velocity": 116, "channel": 0}, {"type": "note_on", "time": 14, "note": 73, "velocity": 115, "channel": 0}, {"type": "note_off", "time": 68, "note": 73, "velocity": 115, "channel": 0}, {"type": "note_on", "time": 12, "note": 70, "velocity": 116, "channel": 0}, {"type": "note_off", "time": 89, "note": 70, "velocity": 116, "channel": 0}, {"type": "note_on", "time": 11, "note": 69, "velocity": 112, "channel": 0}, {"type": "note_off", "time": 120, "note": 69, "velocity": 112, "channel": 0}, {"type": "note_on", "time": 22, "note": 69, "velocity": 110, "channel": 0}, {"type": "note_off", "time": 222, "note": 69, "velocity": 110, "channel": 0}, {"type": "note_on", "time": 35, "note": 71, "velocity": 116, "channel": 0}, {"type": "note_off", "time": 79, "note": 71, "velocity": 116, "channel": 0}, {"type": "note_on", "time": 1, "note": 68, "velocity": 119, "channel": 0}, {"type": "note_off", "time": 98, "note": 68, "velocity": 119, "channel": 0}, {"type": "note_on", "time": 3, "note": 69, "velocity": 119, "channel": 0}, {"type": "note_off", "time": 79, "note": 69, "velocity": 119, "channel": 0}, {"type": "note_on", "time": 14, "note": 71, "velocity": 115, "channel": 0}, {"type": "note_off", "time": 85, "note": 71, "velocity": 115, "channel": 0}, {"type": "note_on", "time": 0, "note": 68, "velocity": 119, "channel": 0}, {"type": "note_off", "time": 85, "note": 68, "velocity": 119, "channel": 0}, {"type": "note_on", "time": 14, "note": 69, "velocity": 109, "channel": 0}, {"type": "note_off", "time": 300, "note": 69, "velocity": 109, "channel": 0}, {"type": "note_on", "time": 15, "note": 67, "velocity": 118, "channel": 0}, {"type": "note_off", "time": 77, "note": 67, "velocity": 118, "channel": 0}, {"type": "note_on", "time": 5, "note": 68, "velocity": 119, "channel": 0}, {"type": "note_off", "time": 67, "note": 68, "velocity": 119, "channel": 0}, {"type": "note_on", "time": 0, "note": 71, "velocity": 103, "channel": 0}, {"type": "note_off", "time": 155, "note": 71, "velocity": 103, "channel": 0}, {"type": "note_on", "time": 44, "note": 64, "velocity": 96, "channel": 0}, {"type": "note_off", "time": 356, "note": 64, "velocity": 96, "channel": 0}, {"type": "note_on", "time": 537, "note": 65, "velocity": 117, "channel": 0}, {"type": "note_off", "time": 64, "note": 65, "velocity": 117, "channel": 0}, {"type": "note_on", "time": 21, "note": 67, "velocity": 116, "channel": 0}, {"type": "note_off", "time": 171, "note": 67, "velocity": 116, "channel": 0}, {"type": "note_on", "time": 11, "note": 71, "velocity": 112, "channel": 0}, {"type": "note_off", "time": 165, "note": 71, "velocity": 112, "channel": 0}, {"type": "note_on", "time": 12, "note": 67, "velocity": 117, "channel": 0}, {"type": "note_off", "time": 135, "note": 67, "velocity": 117, "channel": 0}, {"type": "note_on", "time": 57, "note": 70, "velocity": 98, "channel": 0}, {"type": "note_off", "time": 276, "note": 70, "velocity": 98, "channel": 0}, {"type": "note_on", "time": 24, "note": 63, "velocity": 117, "channel": 0}, {"type": "note_off", "time": 98, "note": 63, "velocity": 117, "channel": 0}, {"type": "note_on", "time": 20, "note": 63, "velocity": 108, "channel": 0}, {"type": "note_off", "time": 139, "note": 63, "velocity": 108, "channel": 0}, {"type": "note_on", "time": 129, "note": 70, "velocity": 95, "channel": 0}, {"type": "note_off", "time": 127, "note": 70, "velocity": 95, "channel": 0}, {"type": "note_on", "time": 280, "note": 63, "velocity": 100, "channel": 0}, {"type": "note_off", "time": 85, "note": 63, "velocity": 100, "channel": 0}, {"type": "note_on", "time": 7, "note": 70, "velocity": 120, "channel": 0}, {"type": "note_off", "time": 77, "note": 70, "velocity": 120, "channel": 0}, {"type": "note_on", "time": 22, "note": 70, "velocity": 114, "channel": 0}, {"type": "note_off", "time": 94, "note": 70, "velocity": 114, "channel": 0}, {"type": "note_on", "time": 0, "note": 63, "velocity": 105, "channel": 0}, {"type": "note_off", "time": 85, "note": 63, "velocity": 105, "channel": 0}, {"type": "note_on", "time": 3, "note": 63, "velocity": 113, "channel": 0}, {"type": "note_off", "time": 72, "note": 63, "velocity": 113, "channel": 0}, {"type": "note_on", "time": 16, "note": 70, "velocity": 114, "channel": 0}, {"type": "note_off", "time": 107, "note": 70, "velocity": 114, "channel": 0}, {"type": "note_on", "time": 79, "note": 70, "velocity": 111, "channel": 0}, {"type": "note_off", "time": 150, "note": 70, "velocity": 111, "channel": 0}, {"type": "note_on", "time": 35, "note": 70, "velocity": 104, "channel": 0}, {"type": "note_off", "time": 213, "note": 70, "velocity": 104, "channel": 0}, {"type": "note_on", "time": 7, "note": 63, "velocity": 103, "channel": 0}, {"type": "note_off", "time": 116, "note": 63, "velocity": 103, "channel": 0}, {"type": "note_on", "time": 37, "note": 63, "velocity": 104, "channel": 0}, {"type": "note_off", "time": 215, "note": 63, "velocity": 104, "channel": 0}, {"type": "note_on", "time": 300, "note": 72, "velocity": 115, "channel": 0}, {"type": "note_off", "time": 90, "note": 72, "velocity": 115, "channel": 0}, {"type": "note_on", "time": 198, "note": 72, "velocity": 112, "channel": 0}, {"type": "note_off", "time": 159, "note": 72, "velocity": 112, "channel": 0}, {"type": "note_on", "time": 350, "note": 65, "velocity": 117, "channel": 0}, {"type": "note_off", "time": 142, "note": 65, "velocity": 117, "channel": 0}, {"type": "note_on", "time": 38, "note": 63, "velocity": 109, "channel": 0}, {"type": "note_off", "time": 74, "note": 63, "velocity": 109, "channel": 0}, {"type": "note_on", "time": 15, "note": 67, "velocity": 123, "channel": 0}, {"type": "note_off", "time": 121, "note": 67, "velocity": 123, "channel": 0}, {"type": "note_on", "time": 14, "note": 68, "velocity": 120, "channel": 0}, {"type": "note_off", "time": 207, "note": 68, "velocity": 120, "channel": 0}, {"type": "note_on", "time": 30, "note": 69, "velocity": 120, "channel": 0}, {"type": "note_off", "time": 110, "note": 69, "velocity": 120, "channel": 0}, {"type": "note_on", "time": 9, "note": 70, "velocity": 116, "channel": 0}, {"type": "note_off", "time": 280, "note": 70, "velocity": 116, "channel": 0}, {"type": "note_on", "time": 27, "note": 70, "velocity": 85, "channel": 0}, {"type": "note_off", "time": 402, "note": 70, "velocity": 85, "channel": 0}, {"type": "note_on", "time": 40, "note": 65, "velocity": 118, "channel": 0}, {"type": "note_off", "time": 68, "note": 65, "velocity": 118, "channel": 0}, {"type": "note_on", "time": 16, "note": 66, "velocity": 121, "channel": 0}, {"type": "note_off", "time": 85, "note": 66, "velocity": 121, "channel": 0}, {"type": "note_on", "time": 16, "note": 68, "velocity": 118, "channel": 0}, {"type": "note_off", "time": 85, "note": 68, "velocity": 118, "channel": 0}, {"type": "note_on", "time": 16, "note": 69, "velocity": 121, "channel": 0}, {"type": "note_off", "time": 79, "note": 69, "velocity": 121, "channel": 0}, {"type": "note_on", "time": 12, "note": 72, "velocity": 117, "channel": 0}, {"type": "note_off", "time": 87, "note": 72, "velocity": 117, "channel": 0}, {"type": "note_on", "time": 7, "note": 77, "velocity": 120, "channel": 0}, {"type": "note_off", "time": 85, "note": 77, "velocity": 120, "channel": 0}, {"type": "note_on", "time": 25, "note": 65, "velocity": 116, "channel": 0}, {"type": "note_off", "time": 68, "note": 65, "velocity": 116, "channel": 0}, {"type": "note_on", "time": 11, "note": 69, "velocity": 119, "channel": 0}, {"type": "note_off", "time": 83, "note": 69, "velocity": 119, "channel": 0}, {"type": "note_on", "time": 18, "note": 72, "velocity": 114, "channel": 0}, {"type": "note_off", "time": 74, "note": 72, "velocity": 114, "channel": 0}, {"type": "note_on", "time": 11, "note": 69, "velocity": 120, "channel": 0}, {"type": "note_off", "time": 77, "note": 69, "velocity": 120, "channel": 0}, {"type": "note_on", "time": 16, "note": 65, "velocity": 116, "channel": 0}, {"type": "note_off", "time": 79, "note": 65, "velocity": 116, "channel": 0}, {"type": "note_on", "time": 9, "note": 60, "velocity": 109, "channel": 0}, {"type": "note_off", "time": 461, "note": 60, "velocity": 109, "channel": 0}, {"type": "note_on", "time": 59, "note": 61, "velocity": 104, "channel": 0}, {"type": "note_off", "time": 59, "note": 61, "velocity": 104, "channel": 0}, {"type": "note_on", "time": 5, "note": 65, "velocity": 119, "channel": 0}, {"type": "note_off", "time": 81, "note": 65, "velocity": 119, "channel": 0}, {"type": "note_on", "time": 22, "note": 68, "velocity": 121, "channel": 0}, {"type": "note_on", "time": 87, "note": 71, "velocity": 119, "channel": 0}, {"type": "note_off", "time": 0, "note": 68, "velocity": 121, "channel": 0}, {"type": "note_off", "time": 89, "note": 71, "velocity": 119, "channel": 0}, {"type": "note_on", "time": 12, "note": 70, "velocity": 119, "channel": 0}, {"type": "note_off", "time": 89, "note": 70, "velocity": 119, "channel": 0}, {"type": "note_on", "time": 167, "note": 68, "velocity": 102, "channel": 0}, {"type": "note_off", "time": 30, "note": 68, "velocity": 102, "channel": 0}, {"type": "note_on", "time": 1047, "note": 70, "velocity": 124, "channel": 0}, {"type": "note_off", "time": 87, "note": 70, "velocity": 124, "channel": 0}, {"type": "note_on", "time": 7, "note": 69, "velocity": 117, "channel": 0}, {"type": "note_off", "time": 233, "note": 69, "velocity": 117, "channel": 0}, {"type": "note_on", "time": 66, "note": 65, "velocity": 119, "channel": 0}, {"type": "note_off", "time": 85, "note": 65, "velocity": 119, "channel": 0}, {"type": "note_on", "time": 5, "note": 60, "velocity": 126, "channel": 0}, {"type": "note_off", "time": 89, "note": 60, "velocity": 126, "channel": 0}, {"type": "note_on", "time": 5, "note": 57, "velocity": 124, "channel": 0}, {"type": "note_off", "time": 76, "note": 57, "velocity": 124, "channel": 0}, {"type": "note_on", "time": 12, "note": 60, "velocity": 124, "channel": 0}, {"type": "note_off", "time": 83, "note": 60, "velocity": 124, "channel": 0}, {"type": "note_on", "time": 20, "note": 65, "velocity": 115, "channel": 0}, {"type": "note_off", "time": 83, "note": 65, "velocity": 115, "channel": 0}, {"type": "note_on", "time": 18, "note": 69, "velocity": 121, "channel": 0}, {"type": "note_off", "time": 113, "note": 69, "velocity": 121, "channel": 0}, {"type": "note_on", "time": 14, "note": 70, "velocity": 105, "channel": 0}, {"type": "note_off", "time": 793, "note": 70, "velocity": 105, "channel": 0}, {"type": "note_on", "time": 140, "note": 68, "velocity": 121, "channel": 0}, {"type": "note_off", "time": 77, "note": 68, "velocity": 121, "channel": 0}, {"type": "note_on", "time": 11, "note": 67, "velocity": 119, "channel": 0}, {"type": "note_off", "time": 27, "note": 67, "velocity": 119, "channel": 0}, {"type": "note_on", "time": 3, "note": 68, "velocity": 122, "channel": 0}, {"type": "note_on", "time": 29, "note": 67, "velocity": 123, "channel": 0}, {"type": "note_off", "time": 0, "note": 68, "velocity": 122, "channel": 0}, {"type": "note_off", "time": 48, "note": 67, "velocity": 123, "channel": 0}, {"type": "note_on", "time": 0, "note": 65, "velocity": 120, "channel": 0}, {"type": "note_off", "time": 38, "note": 65, "velocity": 120, "channel": 0}, {"type": "note_on", "time": 3, "note": 63, "velocity": 118, "channel": 0}, {"type": "note_off", "time": 92, "note": 63, "velocity": 118, "channel": 0}, {"type": "note_on", "time": 31, "note": 61, "velocity": 118, "channel": 0}, {"type": "note_off", "time": 70, "note": 61, "velocity": 118, "channel": 0}, {"type": "note_on", "time": 14, "note": 63, "velocity": 113, "channel": 0}, {"type": "note_off", "time": 140, "note": 63, "velocity": 113, "channel": 0}, {"type": "note_on", "time": 40, "note": 63, "velocity": 119, "channel": 0}, {"type": "note_off", "time": 152, "note": 63, "velocity": 119, "channel": 0}, {"type": "note_on", "time": 66, "note": 70, "velocity": 110, "channel": 0}, {"type": "note_off", "time": 170, "note": 70, "velocity": 110, "channel": 0}, {"type": "note_on", "time": 0, "note": 75, "velocity": 103, "channel": 0}, {"type": "note_off", "time": 127, "note": 75, "velocity": 103, "channel": 0}, {"type": "note_on", "time": 385, "note": 63, "velocity": 108, "channel": 0}, {"type": "note_off", "time": 59, "note": 63, "velocity": 108, "channel": 0}, {"type": "note_on", "time": 11, "note": 70, "velocity": 118, "channel": 0}, {"type": "note_off", "time": 85, "note": 70, "velocity": 118, "channel": 0}, {"type": "note_on", "time": 29, "note": 70, "velocity": 118, "channel": 0}, {"type": "note_off", "time": 85, "note": 70, "velocity": 118, "channel": 0}, {"type": "note_on", "time": 0, "note": 75, "velocity": 117, "channel": 0}, {"type": "note_off", "time": 89, "note": 75, "velocity": 117, "channel": 0}, {"type": "note_on", "time": 24, "note": 75, "velocity": 118, "channel": 0}, {"type": "note_off", "time": 77, "note": 75, "velocity": 118, "channel": 0}, {"type": "note_on", "time": 16, "note": 70, "velocity": 122, "channel": 0}, {"type": "note_off", "time": 142, "note": 70, "velocity": 122, "channel": 0}, {"type": "note_on", "time": 37, "note": 70, "velocity": 114, "channel": 0}, {"type": "note_on", "time": 179, "note": 63, "velocity": 9, "channel": 0}, {"type": "note_off", "time": 0, "note": 70, "velocity": 114, "channel": 0}, {"type": "note_off", "time": 306, "note": 63, "velocity": 9, "channel": 0}, {"type": "note_on", "time": 246, "note": 70, "velocity": 107, "channel": 0}, {"type": "note_on", "time": 44, "note": 75, "velocity": 117, "channel": 0}, {"type": "note_off", "time": 0, "note": 70, "velocity": 107, "channel": 0}, {"type": "note_off", "time": 83, "note": 75, "velocity": 117, "channel": 0}, {"type": "note_on", "time": 242, "note": 75, "velocity": 117, "channel": 0}, {"type": "note_off", "time": 72, "note": 75, "velocity": 117, "channel": 0}, {"type": "note_on", "time": 0, "note": 79, "velocity": 120, "channel": 0}, {"type": "note_off", "time": 102, "note": 79, "velocity": 120, "channel": 0}, {"type": "note_on", "time": 370, "note": 79, "velocity": 123, "channel": 0}, {"type": "note_off", "time": 90, "note": 79, "velocity": 123, "channel": 0}, {"type": "note_on", "time": 18, "note": 75, "velocity": 121, "channel": 0}, {"type": "note_off", "time": 66, "note": 75, "velocity": 121, "channel": 0}, {"type": "note_on", "time": 31, "note": 75, "velocity": 117, "channel": 0}, {"type": "note_off", "time": 64, "note": 75, "velocity": 117, "channel": 0}, {"type": "note_on", "time": 1, "note": 70, "velocity": 120, "channel": 0}, {"type": "note_off", "time": 68, "note": 70, "velocity": 120, "channel": 0}, {"type": "note_on", "time": 44, "note": 70, "velocity": 121, "channel": 0}, {"type": "note_off", "time": 79, "note": 70, "velocity": 121, "channel": 0}, {"type": "note_on", "time": 1, "note": 67, "velocity": 120, "channel": 0}, {"type": "note_off", "time": 96, "note": 67, "velocity": 120, "channel": 0}, {"type": "note_on", "time": 76, "note": 67, "velocity": 123, "channel": 0}, {"type": "note_off", "time": 124, "note": 67, "velocity": 123, "channel": 0}, {"type": "note_on", "time": 77, "note": 69, "velocity": 112, "channel": 0}, {"type": "note_off", "time": 187, "note": 69, "velocity": 112, "channel": 0}, {"type": "note_on", "time": 20, "note": 65, "velocity": 119, "channel": 0}, {"type": "note_off", "time": 168, "note": 65, "velocity": 119, "channel": 0}, {"type": "note_on", "time": 7, "note": 72, "velocity": 103, "channel": 0}, {"type": "note_off", "time": 191, "note": 72, "velocity": 103, "channel": 0}, {"type": "note_on", "time": 122, "note": 65, "velocity": 121, "channel": 0}, {"type": "note_off", "time": 66, "note": 65, "velocity": 121, "channel": 0}, {"type": "note_on", "time": 7, "note": 68, "velocity": 118, "channel": 0}, {"type": "note_off", "time": 85, "note": 68, "velocity": 118, "channel": 0}, {"type": "note_on", "time": 408, "note": 58, "velocity": 108, "channel": 0}, {"type": "note_off", "time": 79, "note": 58, "velocity": 108, "channel": 0}, {"type": "note_on", "time": 20, "note": 60, "velocity": 121, "channel": 0}, {"type": "note_off", "time": 87, "note": 60, "velocity": 121, "channel": 0}, {"type": "note_on", "time": 9, "note": 61, "velocity": 123, "channel": 0}, {"type": "note_off", "time": 72, "note": 61, "velocity": 123, "channel": 0}, {"type": "note_on", "time": 14, "note": 63, "velocity": 109, "channel": 0}, {"type": "note_off", "time": 87, "note": 63, "velocity": 109, "channel": 0}, {"type": "note_on", "time": 7, "note": 65, "velocity": 118, "channel": 0}, {"type": "note_off", "time": 76, "note": 65, "velocity": 118, "channel": 0}, {"type": "note_on", "time": 18, "note": 66, "velocity": 116, "channel": 0}, {"type": "note_off", "time": 79, "note": 66, "velocity": 116, "channel": 0}, {"type": "note_on", "time": 9, "note": 68, "velocity": 119, "channel": 0}, {"type": "note_off", "time": 68, "note": 68, "velocity": 119, "channel": 0}, {"type": "note_on", "time": 18, "note": 69, "velocity": 118, "channel": 0}, {"type": "note_off", "time": 38, "note": 69, "velocity": 118, "channel": 0}, {"type": "note_on", "time": 5, "note": 70, "velocity": 119, "channel": 0}, {"type": "note_off", "time": 105, "note": 70, "velocity": 119, "channel": 0}, {"type": "note_on", "time": 18, "note": 69, "velocity": 113, "channel": 0}, {"type": "note_off", "time": 35, "note": 69, "velocity": 113, "channel": 0}, {"type": "note_on", "time": 9, "note": 70, "velocity": 119, "channel": 0}, {"type": "note_off", "time": 158, "note": 70, "velocity": 119, "channel": 0}, {"type": "note_on", "time": 15, "note": 70, "velocity": 110, "channel": 0}, {"type": "note_off", "time": 277, "note": 70, "velocity": 110, "channel": 0}, {"type": "note_on", "time": 26, "note": 63, "velocity": 101, "channel": 0}, {"type": "note_off", "time": 304, "note": 63, "velocity": 101, "channel": 0}, {"type": "note_on", "time": 272, "note": 68, "velocity": 114, "channel": 0}, {"type": "note_off", "time": 105, "note": 68, "velocity": 114, "channel": 0}, {"type": "note_on", "time": 92, "note": 63, "velocity": 108, "channel": 0}, {"type": "note_off", "time": 336, "note": 63, "velocity": 108, "channel": 0}, {"type": "note_on", "time": 55, "note": 61, "velocity": 122, "channel": 0}, {"type": "note_off", "time": 66, "note": 61, "velocity": 122, "channel": 0}, {"type": "note_on", "time": 16, "note": 65, "velocity": 115, "channel": 0}, {"type": "note_off", "time": 76, "note": 65, "velocity": 115, "channel": 0}, {"type": "note_on", "time": 22, "note": 68, "velocity": 115, "channel": 0}, {"type": "note_off", "time": 79, "note": 68, "velocity": 115, "channel": 0}, {"type": "note_on", "time": 14, "note": 72, "velocity": 114, "channel": 0}, {"type": "note_off", "time": 83, "note": 72, "velocity": 114, "channel": 0}, {"type": "note_on", "time": 9, "note": 75, "velocity": 113, "channel": 0}, {"type": "note_off", "time": 70, "note": 75, "velocity": 113, "channel": 0}, {"type": "note_on", "time": 33, "note": 72, "velocity": 113, "channel": 0}, {"type": "note_off", "time": 70, "note": 72, "velocity": 113, "channel": 0}, {"type": "note_on", "time": 29, "note": 68, "velocity": 116, "channel": 0}, {"type": "note_off", "time": 64, "note": 68, "velocity": 116, "channel": 0}, {"type": "note_on", "time": 11, "note": 65, "velocity": 110, "channel": 0}, {"type": "note_off", "time": 85, "note": 65, "velocity": 110, "channel": 0}, {"type": "note_on", "time": 29, "note": 68, "velocity": 114, "channel": 0}, {"type": "note_off", "time": 66, "note": 68, "velocity": 114, "channel": 0}, {"type": "note_on", "time": 9, "note": 72, "velocity": 114, "channel": 0}, {"type": "note_off", "time": 85, "note": 72, "velocity": 114, "channel": 0}, {"type": "note_on", "time": 12, "note": 65, "velocity": 104, "channel": 0}, {"type": "note_off", "time": 77, "note": 65, "velocity": 104, "channel": 0}, {"type": "note_on", "time": 27, "note": 68, "velocity": 115, "channel": 0}, {"type": "note_off", "time": 85, "note": 68, "velocity": 115, "channel": 0}, {"type": "note_on", "time": 1, "note": 71, "velocity": 115, "channel": 0}, {"type": "note_off", "time": 96, "note": 71, "velocity": 115, "channel": 0}, {"type": "note_on", "time": 0, "note": 68, "velocity": 115, "channel": 0}, {"type": "note_off", "time": 77, "note": 68, "velocity": 115, "channel": 0}, {"type": "note_on", "time": 31, "note": 64, "velocity": 111, "channel": 0}, {"type": "note_off", "time": 90, "note": 64, "velocity": 111, "channel": 0}, {"type": "note_on", "time": 3, "note": 61, "velocity": 111, "channel": 0}, {"type": "note_on", "time": 72, "note": 59, "velocity": 107, "channel": 0}, {"type": "note_off", "time": 0, "note": 61, "velocity": 111, "channel": 0}, {"type": "note_off", "time": 85, "note": 59, "velocity": 107, "channel": 0}, {"type": "note_on", "time": 33, "note": 63, "velocity": 110, "channel": 0}, {"type": "note_off", "time": 146, "note": 63, "velocity": 110, "channel": 0}, {"type": "note_on", "time": 12, "note": 66, "velocity": 113, "channel": 0}, {"type": "note_off", "time": 168, "note": 66, "velocity": 113, "channel": 0}, {"type": "note_on", "time": 0, "note": 63, "velocity": 101, "channel": 0}, {"type": "note_off", "time": 408, "note": 63, "velocity": 101, "channel": 0}, {"type": "note_on", "time": 294, "note": 66, "velocity": 119, "channel": 0}, {"type": "note_off", "time": 87, "note": 66, "velocity": 119, "channel": 0}, {"type": "note_on", "time": 24, "note": 73, "velocity": 114, "channel": 0}, {"type": "note_off", "time": 133, "note": 73, "velocity": 114, "channel": 0}, {"type": "note_on", "time": 14, "note": 71, "velocity": 111, "channel": 0}, {"type": "note_off", "time": 111, "note": 71, "velocity": 111, "channel": 0}, {"type": "note_on", "time": 37, "note": 66, "velocity": 110, "channel": 0}, {"type": "note_off", "time": 194, "note": 66, "velocity": 110, "channel": 0}, {"type": "note_on", "time": 57, "note": 68, "velocity": 100, "channel": 0}, {"type": "note_off", "time": 218, "note": 68, "velocity": 100, "channel": 0}, {"type": "note_on", "time": 257, "note": 69, "velocity": 117, "channel": 0}, {"type": "note_off", "time": 96, "note": 69, "velocity": 117, "channel": 0}, {"type": "note_on", "time": 5, "note": 71, "velocity": 113, "channel": 0}, {"type": "note_off", "time": 89, "note": 71, "velocity": 113, "channel": 0}, {"type": "note_on", "time": 3, "note": 68, "velocity": 117, "channel": 0}, {"type": "note_off", "time": 64, "note": 68, "velocity": 117, "channel": 0}, {"type": "note_on", "time": 18, "note": 69, "velocity": 113, "channel": 0}, {"type": "note_off", "time": 77, "note": 69, "velocity": 113, "channel": 0}, {"type": "note_on", "time": 11, "note": 71, "velocity": 112, "channel": 0}, {"type": "note_off", "time": 90, "note": 71, "velocity": 112, "channel": 0}, {"type": "note_on", "time": 0, "note": 66, "velocity": 115, "channel": 0}, {"type": "note_off", "time": 38, "note": 66, "velocity": 115, "channel": 0}, {"type": "note_on", "time": 11, "note": 68, "velocity": 112, "channel": 0}, {"type": "note_off", "time": 131, "note": 68, "velocity": 112, "channel": 0}, {"type": "note_on", "time": 9, "note": 67, "velocity": 106, "channel": 0}, {"type": "note_off", "time": 38, "note": 67, "velocity": 106, "channel": 0}, {"type": "note_on", "time": 5, "note": 68, "velocity": 112, "channel": 0}, {"type": "note_off", "time": 142, "note": 68, "velocity": 112, "channel": 0}, {"type": "note_on", "time": 25, "note": 64, "velocity": 97, "channel": 0}, {"type": "note_off", "time": 374, "note": 64, "velocity": 97, "channel": 0}, {"type": "note_on", "time": 498, "note": 65, "velocity": 116, "channel": 0}, {"type": "note_off", "time": 68, "note": 65, "velocity": 116, "channel": 0}, {"type": "note_on", "time": 46, "note": 71, "velocity": 100, "channel": 0}, {"type": "note_off", "time": 25, "note": 71, "velocity": 100, "channel": 0}, {"type": "note_on", "time": 1, "note": 72, "velocity": 113, "channel": 0}, {"type": "note_off", "time": 122, "note": 72, "velocity": 113, "channel": 0}, {"type": "note_on", "time": 5, "note": 75, "velocity": 111, "channel": 0}, {"type": "note_off", "time": 179, "note": 75, "velocity": 111, "channel": 0}, {"type": "note_on", "time": 0, "note": 67, "velocity": 115, "channel": 0}, {"type": "note_off", "time": 142, "note": 67, "velocity": 115, "channel": 0}, {"type": "note_on", "time": 51, "note": 75, "velocity": 98, "channel": 0}, {"type": "note_off", "time": 296, "note": 75, "velocity": 98, "channel": 0}, {"type": "note_on", "time": 20, "note": 65, "velocity": 112, "channel": 0}, {"type": "note_off", "time": 79, "note": 65, "velocity": 112, "channel": 0}, {"type": "note_on", "time": 267, "note": 75, "velocity": 105, "channel": 0}, {"type": "note_off", "time": 257, "note": 75, "velocity": 105, "channel": 0}, {"type": "note_on", "time": 26, "note": 67, "velocity": 121, "channel": 0}, {"type": "note_off", "time": 90, "note": 67, "velocity": 121, "channel": 0}, {"type": "note_on", "time": 215, "note": 75, "velocity": 113, "channel": 0}, {"type": "note_off", "time": 89, "note": 75, "velocity": 113, "channel": 0}, {"type": "note_on", "time": 27, "note": 67, "velocity": 111, "channel": 0}, {"type": "note_off", "time": 72, "note": 67, "velocity": 111, "channel": 0}, {"type": "note_on", "time": 77, "note": 75, "velocity": 101, "channel": 0}, {"type": "note_off", "time": 172, "note": 75, "velocity": 101, "channel": 0}, {"type": "note_on", "time": 25, "note": 65, "velocity": 113, "channel": 0}, {"type": "note_off", "time": 85, "note": 65, "velocity": 113, "channel": 0}, {"type": "note_on", "time": 90, "note": 67, "velocity": 112, "channel": 0}, {"type": "note_off", "time": 163, "note": 67, "velocity": 112, "channel": 0}, {"type": "note_on", "time": 48, "note": 75, "velocity": 101, "channel": 0}, {"type": "note_off", "time": 94, "note": 75, "velocity": 101, "channel": 0}, {"type": "note_on", "time": 11, "note": 69, "velocity": 117, "channel": 0}, {"type": "note_off", "time": 77, "note": 69, "velocity": 117, "channel": 0}, {"type": "note_on", "time": 485, "note": 77, "velocity": 117, "channel": 0}, {"type": "note_off", "time": 66, "note": 77, "velocity": 117, "channel": 0}, {"type": "note_on", "time": 27, "note": 68, "velocity": 117, "channel": 0}, {"type": "note_off", "time": 116, "note": 68, "velocity": 117, "channel": 0}, {"type": "note_on", "time": 44, "note": 65, "velocity": 112, "channel": 0}, {"type": "note_off", "time": 250, "note": 65, "velocity": 112, "channel": 0}, {"type": "note_on", "time": 31, "note": 68, "velocity": 121, "channel": 0}, {"type": "note_off", "time": 102, "note": 68, "velocity": 121, "channel": 0}, {"type": "note_on", "time": 42, "note": 69, "velocity": 109, "channel": 0}, {"type": "note_off", "time": 87, "note": 69, "velocity": 109, "channel": 0}, {"type": "note_on", "time": 29, "note": 70, "velocity": 109, "channel": 0}, {"type": "note_off", "time": 111, "note": 70, "velocity": 109, "channel": 0}, {"type": "note_on", "time": 36, "note": 72, "velocity": 105, "channel": 0}, {"type": "note_off", "time": 259, "note": 72, "velocity": 105, "channel": 0}, {"type": "note_on", "time": 10, "note": 73, "velocity": 113, "channel": 0}, {"type": "note_off", "time": 137, "note": 73, "velocity": 113, "channel": 0}, {"type": "note_on", "time": 55, "note": 77, "velocity": 116, "channel": 0}, {"type": "note_off", "time": 81, "note": 77, "velocity": 116, "channel": 0}, {"type": "note_on", "time": 25, "note": 78, "velocity": 111, "channel": 0}, {"type": "note_off", "time": 68, "note": 78, "velocity": 111, "channel": 0}, {"type": "note_on", "time": 18, "note": 75, "velocity": 111, "channel": 0}, {"type": "note_off", "time": 90, "note": 75, "velocity": 111, "channel": 0}, {"type": "note_on", "time": 16, "note": 73, "velocity": 117, "channel": 0}, {"type": "note_off", "time": 87, "note": 73, "velocity": 117, "channel": 0}, {"type": "note_on", "time": 14, "note": 70, "velocity": 113, "channel": 0}, {"type": "note_off", "time": 83, "note": 70, "velocity": 113, "channel": 0}, {"type": "note_on", "time": 5, "note": 66, "velocity": 116, "channel": 0}, {"type": "note_off", "time": 85, "note": 66, "velocity": 116, "channel": 0}, {"type": "note_on", "time": 7, "note": 65, "velocity": 112, "channel": 0}, {"type": "note_off", "time": 63, "note": 65, "velocity": 112, "channel": 0}, {"type": "note_on", "time": 38, "note": 63, "velocity": 110, "channel": 0}, {"type": "note_off", "time": 85, "note": 63, "velocity": 110, "channel": 0}, {"type": "note_on", "time": 7, "note": 68, "velocity": 108, "channel": 0}, {"type": "note_off", "time": 194, "note": 68, "velocity": 108, "channel": 0}, {"type": "note_on", "time": 469, "note": 72, "velocity": 113, "channel": 0}, {"type": "note_off", "time": 85, "note": 72, "velocity": 113, "channel": 0}, {"type": "note_on", "time": 24, "note": 75, "velocity": 107, "channel": 0}, {"type": "note_off", "time": 81, "note": 75, "velocity": 107, "channel": 0}, {"type": "note_on", "time": 16, "note": 72, "velocity": 111, "channel": 0}, {"type": "note_off", "time": 87, "note": 72, "velocity": 111, "channel": 0}, {"type": "note_on", "time": 1, "note": 68, "velocity": 114, "channel": 0}, {"type": "note_off", "time": 81, "note": 68, "velocity": 114, "channel": 0}, {"type": "note_on", "time": 33, "note": 65, "velocity": 112, "channel": 0}, {"type": "note_off", "time": 72, "note": 65, "velocity": 112, "channel": 0}, {"type": "note_on", "time": 22, "note": 68, "velocity": 114, "channel": 0}, {"type": "note_off", "time": 252, "note": 68, "velocity": 114, "channel": 0}, {"type": "note_on", "time": 20, "note": 70, "velocity": 114, "channel": 0}, {"type": "note_off", "time": 83, "note": 70, "velocity": 114, "channel": 0}, {"type": "note_on", "time": 29, "note": 71, "velocity": 110, "channel": 0}, {"type": "note_off", "time": 74, "note": 71, "velocity": 110, "channel": 0}, {"type": "note_on", "time": 29, "note": 68, "velocity": 115, "channel": 0}, {"type": "note_off", "time": 72, "note": 68, "velocity": 115, "channel": 0}, {"type": "note_on", "time": 35, "note": 64, "velocity": 109, "channel": 0}, {"type": "note_off", "time": 50, "note": 64, "velocity": 109, "channel": 0}, {"type": "note_on", "time": 33, "note": 61, "velocity": 97, "channel": 0}, {"type": "note_off", "time": 57, "note": 61, "velocity": 97, "channel": 0}, {"type": "note_on", "time": 25, "note": 63, "velocity": 110, "channel": 0}, {"type": "note_off", "time": 163, "note": 63, "velocity": 110, "channel": 0}, {"type": "note_on", "time": 16, "note": 64, "velocity": 111, "channel": 0}, {"type": "note_off", "time": 157, "note": 64, "velocity": 111, "channel": 0}, {"type": "note_on", "time": 7, "note": 66, "velocity": 103, "channel": 0}, {"type": "note_off", "time": 374, "note": 66, "velocity": 103, "channel": 0}, {"type": "note_on", "time": 296, "note": 61, "velocity": 121, "channel": 0}, {"type": "note_off", "time": 92, "note": 61, "velocity": 121, "channel": 0}, {"type": "note_on", "time": 18, "note": 60, "velocity": 115, "channel": 0}, {"type": "note_off", "time": 96, "note": 60, "velocity": 115, "channel": 0}, {"type": "note_on", "time": 7, "note": 65, "velocity": 113, "channel": 0}, {"type": "note_off", "time": 79, "note": 65, "velocity": 113, "channel": 0}, {"type": "note_on", "time": 9, "note": 69, "velocity": 119, "channel": 0}, {"type": "note_off", "time": 83, "note": 69, "velocity": 119, "channel": 0}, {"type": "note_on", "time": 0, "note": 72, "velocity": 117, "channel": 0}, {"type": "note_off", "time": 76, "note": 72, "velocity": 117, "channel": 0}, {"type": "note_on", "time": 31, "note": 77, "velocity": 112, "channel": 0}, {"type": "note_off", "time": 87, "note": 77, "velocity": 112, "channel": 0}, {"type": "note_on", "time": 3, "note": 72, "velocity": 112, "channel": 0}, {"type": "note_off", "time": 79, "note": 72, "velocity": 112, "channel": 0}, {"type": "note_on", "time": 16, "note": 69, "velocity": 117, "channel": 0}, {"type": "note_off", "time": 90, "note": 69, "velocity": 117, "channel": 0}, {"type": "note_on", "time": 90, "note": 70, "velocity": 90, "channel": 0}, {"type": "note_off", "time": 374, "note": 70, "velocity": 90, "channel": 0}, {"type": "note_on", "time": 380, "note": 70, "velocity": 107, "channel": 0}, {"type": "note_off", "time": 53, "note": 70, "velocity": 107, "channel": 0}, {"type": "note_on", "time": 14, "note": 71, "velocity": 116, "channel": 0}, {"type": "note_off", "time": 42, "note": 71, "velocity": 116, "channel": 0}, {"type": "note_on", "time": 18, "note": 72, "velocity": 113, "channel": 0}, {"type": "note_off", "time": 61, "note": 72, "velocity": 113, "channel": 0}, {"type": "note_on", "time": 3, "note": 75, "velocity": 106, "channel": 0}, {"type": "note_off", "time": 558, "note": 75, "velocity": 106, "channel": 0}, {"type": "note_on", "time": 61, "note": 70, "velocity": 112, "channel": 0}, {"type": "note_off", "time": 98, "note": 70, "velocity": 112, "channel": 0}, {"type": "note_on", "time": 77, "note": 70, "velocity": 115, "channel": 0}, {"type": "note_off", "time": 92, "note": 70, "velocity": 115, "channel": 0}, {"type": "note_on", "time": 5, "note": 68, "velocity": 109, "channel": 0}, {"type": "note_off", "time": 63, "note": 68, "velocity": 109, "channel": 0}, {"type": "note_on", "time": 25, "note": 70, "velocity": 114, "channel": 0}, {"type": "note_off", "time": 87, "note": 70, "velocity": 114, "channel": 0}, {"type": "note_on", "time": 40, "note": 70, "velocity": 116, "channel": 0}, {"type": "note_off", "time": 64, "note": 70, "velocity": 116, "channel": 0}, {"type": "note_on", "time": 94, "note": 70, "velocity": 105, "channel": 0}, {"type": "note_off", "time": 319, "note": 70, "velocity": 105, "channel": 0}, {"type": "note_on", "time": 33, "note": 70, "velocity": 115, "channel": 0}, {"type": "note_off", "time": 18, "note": 70, "velocity": 115, "channel": 0}, {"type": "note_on", "time": 12, "note": 69, "velocity": 118, "channel": 0}, {"type": "note_off", "time": 25, "note": 69, "velocity": 118, "channel": 0}, {"type": "note_on", "time": 11, "note": 68, "velocity": 117, "channel": 0}, {"type": "note_off", "time": 33, "note": 68, "velocity": 117, "channel": 0}, {"type": "note_on", "time": 12, "note": 67, "velocity": 120, "channel": 0}, {"type": "note_off", "time": 90, "note": 67, "velocity": 120, "channel": 0}, {"type": "note_on", "time": 9, "note": 66, "velocity": 118, "channel": 0}, {"type": "note_off", "time": 59, "note": 66, "velocity": 118, "channel": 0}, {"type": "note_on", "time": 12, "note": 65, "velocity": 113, "channel": 0}, {"type": "note_off", "time": 72, "note": 65, "velocity": 113, "channel": 0}, {"type": "note_on", "time": 31, "note": 64, "velocity": 109, "channel": 0}, {"type": "note_off", "time": 79, "note": 64, "velocity": 109, "channel": 0}, {"type": "note_on", "time": 12, "note": 63, "velocity": 97, "channel": 0}, {"type": "note_off", "time": 307, "note": 63, "velocity": 97, "channel": 0}, {"type": "end_of_track", "time": 0}]]}