{"ticks_per_beat": 192, "tracks": [[{"type": "track_name", "name": "Melody", "time": 0}, {"type": "set_tempo", "tempo": 312500, "time": 0}, {"type": "key_signature", "key": "Ab", "time": 0}, {"type": "time_signature", "numerator": 4, "denominator": 4, "clocks_per_click": 24, "notated_32nd_notes_per_beat": 8, "time": 0}, {"type": "note_on", "time": 1482, "note": 72, "velocity": 108, "channel": 0}, {"type": "note_off", "time": 130, "note": 72, "velocity": 108, "channel": 0}, {"type": "note_on", "time": 60, "note": 68, "velocity": 113, "channel": 0}, {"type": "note_off", "time": 128, "note": 68, "velocity": 113, "channel": 0}, {"type": "note_on", "time": 69, "note": 63, "velocity": 104, "channel": 0}, {"type": "note_off", "time": 420, "note": 63, "velocity": 104, "channel": 0}, {"type": "note_on", "time": 691, "note": 65, "velocity": 114, "channel": 0}, {"type": "note_off", "time": 74, "note": 65, "velocity": 114, "channel": 0}, {"type": "note_on", "time": 24, "note": 67, "velocity": 121, "channel": 0}, {"type": "note_off", "time": 82, "note": 67, "velocity": 121, "channel": 0}, {"type": "note_on", "time": 24, "note": 68, "velocity": 117, "channel": 0}, {"type": "note_off", "time": 46, "note": 68, "velocity": 117, "channel": 0}, {"type": "note_on", "time": 32, "note": 70, "velocity": 114, "channel": 0}, {"type": "note_off", "time": 74, "note": 70, "velocity": 114, "channel": 0}, {"type": "note_on", "time": 24, "note": 73, "velocity": 117, "channel": 0}, {"type": "note_off", "time": 82, "note": 73, "velocity": 117, "channel": 0}, {"type": "note_on", "time": 17, "note": 72, "velocity": 110, "channel": 0}, {"type": "note_off", "time": 78, "note": 72, "velocity": 110, "channel": 0}, {"type": "note_on", "time": 57, "note": 68, "velocity": 116, "channel": 0}, {"type": "note_off", "time": 39, "note": 68, "velocity": 116, "channel": 0}, {"type": "note_on", "time": 103, "note": 63, "velocity": 106, "channel": 0}, {"type": "note_off", "time": 156, "note": 63, "velocity": 106, "channel": 0}, {"type": "note_on", "time": 702, "note": 77, "velocity": 124, "channel": 0}, {"type": "note_off", "time": 114, "note": 77, "velocity": 124, "channel": 0}, {"type": "note_on", "time": 0, "note": 75, "velocity": 117, "channel": 0}, {"type": "note_off", "time": 67, "note": 75, "velocity": 117, "channel": 0}, {"type": "note_on", "time": 24, "note": 72, "velocity": 110, "channel": 0}, {"type": "note_off", "time": 82, "note": 72, "velocity": 110, "channel": 0}, {"type": "note_on", "time": 14, "note": 70, "velocity": 113, "channel": 0}, {"type": "note_off", "time": 82, "note": 70, "velocity": 113, "channel": 0}, {"type": "note_on", "time": 10, "note": 68, "velocity": 111, "channel": 0}, {"type": "note_off", "time": 92, "note": 68, "velocity": 111, "channel": 0}, {"type": "note_on", "time": 46, "note": 63, "velocity": 106, "channel": 0}, {"type": "note_off", "time": 99, "note": 63, "velocity": 106, "channel": 0}, {"type": "note_on", "time": 49, "note": 63, "velocity": 98, "channel": 0}, {"type": "note_off", "time": 395, "note": 63, "velocity": 98, "channel": 0}, {"type": "note_on", "time": 203, "note": 65, "velocity": 115, "channel": 0}, {"type": "note_off", "time": 71, "note": 65, "velocity": 115, "channel": 0}, {"type": "note_on", "time": 14, "note": 67, "velocity": 116, "channel": 0}, {"type": "note_off", "time": 89, "note": 67, "velocity": 116, "channel": 0}, {"type": "note_on", "time": 17, "note": 68, "velocity": 117, "channel": 0}, {"type": "note_off", "time": 96, "note": 68, "velocity": 117, "channel": 0}, {"type": "note_on", "time": 10, "note": 70, "velocity": 114, "channel": 0}, {"type": "note_off", "time": 74, "note": 70, "velocity": 114, "channel": 0}, {"type": "note_on", "time": 10, "note": 67, "velocity": 118, "channel": 0}, {"type": "note_off", "time": 57, "note": 67, "velocity": 118, "channel": 0}, {"type": "note_on", "time": 35, "note": 63, "velocity": 114, "channel": 0}, {"type": "note_off", "time": 67, "note": 63, "velocity": 114, "channel": 0}, {"type": "note_on", "time": 28, "note": 61, "velocity": 112, "channel": 0}, {"type": "note_off", "time": 74, "note": 61, "velocity": 112, "channel": 0}, {"type": "note_on", "time": 17, "note": 60, "velocity": 110, "channel": 0}, {"type": "note_off", "time": 92, "note": 60, "velocity": 110, "channel": 0}, {"type": "note_on", "time": 28, "note": 63, "velocity": 100, "channel": 0}, {"type": "note_off", "time": 331, "note": 63, "velocity": 100, "channel": 0}, {"type": "note_on", "time": 431, "note": 60, "velocity": 106, "channel": 0}, {"type": "note_off", "time": 74, "note": 60, "velocity": 106, "channel": 0}, {"type": "note_on", "time": 32, "note": 63, "velocity": 100, "channel": 0}, {"type": "note_off", "time": 74, "note": 63, "velocity": 100, "channel": 0}, {"type": "note_on", "time": 7, "note": 65, "velocity": 119, "channel": 0}, {"type": "note_off", "time": 82, "note": 65, "velocity": 119, "channel": 0}, {"type": "note_on", "time": 10, "note": 66, "velocity": 118, "channel": 0}, {"type": "note_off", "time": 78, "note": 66, "velocity": 118, "channel": 0}, {"type": "note_on", "time": 24, "note": 65, "velocity": 107, "channel": 0}, {"type": "note_off", "time": 67, "note": 65, "velocity": 107, "channel": 0}, {"type": "note_on", "time": 28, "note": 63, "velocity": 111, "channel": 0}, {"type": "note_on", "time": 82, "note": 60, "velocity": 102, "channel": 0}, {"type": "note_off", "time": 0, "note": 63, "velocity": 111, "channel": 0}, {"type": "note_off", "time": 96, "note": 60, "velocity": 102, "channel": 0}, {"type": "note_on", "time": 7, "note": 61, "velocity": 99, "channel": 0}, {"type": "note_off", "time": 206, "note": 61, "velocity": 99, "channel": 0}, {"type": "note_on", "time": 106, "note": 72, "velocity": 106, "channel": 0}, {"type": "note_off", "time": 135, "note": 72, "velocity": 106, "channel": 0}, {"type": "note_on", "time": 171, "note": 70, "velocity": 106, "channel": 0}, {"type": "note_off", "time": 274, "note": 70, "velocity": 106, "channel": 0}, {"type": "note_on", "time": 110, "note": 67, "velocity": 118, "channel": 0}, {"type": "note_off", "time": 96, "note": 67, "velocity": 118, "channel": 0}, {"type": "note_on", "time": 0, "note": 68, "velocity": 107, "channel": 0}, {"type": "note_off", "time": 60, "note": 68, "velocity": 107, "channel": 0}, {"type": "note_on", "time": 21, "note": 70, "velocity": 113, "channel": 0}, {"type": "note_off", "time": 89, "note": 70, "velocity": 113, "channel": 0}, {"type": "note_on", "time": 24, "note": 67, "velocity": 119, "channel": 0}, {"type": "note_off", "time": 78, "note": 67, "velocity": 119, "channel": 0}, {"type": "note_on", "time": 0, "note": 63, "velocity": 112, "channel": 0}, {"type": "note_off", "time": 96, "note": 63, "velocity": 112, "channel": 0}, {"type": "note_on", "time": 21, "note": 61, "velocity": 112, "channel": 0}, {"type": "note_off", "time": 60, "note": 61, "velocity": 112, "channel": 0}, {"type": "note_on", "time": 14, "note": 60, "velocity": 107, "channel": 0}, {"type": "note_off", "time": 238, "note": 60, "velocity": 107, "channel": 0}, {"type": "note_on", "time": 110, "note": 70, "velocity": 114, "channel": 0}, {"type": "note_off", "time": 128, "note": 70, "velocity": 114, "channel": 0}, {"type": "note_on", "time": 96, "note": 68, "velocity": 111, "channel": 0}, {"type": "note_off", "time": 224, "note": 68, "velocity": 111, "channel": 0}, {"type": "note_on", "time": 164, "note": 65, "velocity": 110, "channel": 0}, {"type": "note_off", "time": 78, "note": 65, "velocity": 110, "channel": 0}, {"type": "note_on", "time": 17, "note": 67, "velocity": 116, "channel": 0}, {"type": "note_off", "time": 85, "note": 67, "velocity": 116, "channel": 0}, {"type": "note_on", "time": 0, "note": 68, "velocity": 116, "channel": 0}, {"type": "note_off", "time": 74, "note": 68, "velocity": 116, "channel": 0}, {"type": "note_on", "time": 46, "note": 67, "velocity": 120, "channel": 0}, {"type": "note_off", "time": 64, "note": 67, "velocity": 120, "channel": 0}, {"type": "note_on", "time": 14, "note": 65, "velocity": 113, "channel": 0}, {"type": "note_off", "time": 74, "note": 65, "velocity": 113, "channel": 0}, {"type": "note_on", "time": 39, "note": 61, "velocity": 103, "channel": 0}, {"type": "note_off", "time": 71, "note": 61, "velocity": 103, "channel": 0}, {"type": "note_on", "time": 21, "note": 60, "velocity": 105, "channel": 0}, {"type": "note_off", "time": 167, "note": 60, "velocity": 105, "channel": 0}, {"type": "note_on", "time": 731, "note": 62, "velocity": 112, "channel": 0}, {"type": "note_off", "time": 71, "note": 62, "velocity": 112, "channel": 0}, {"type": "note_on", "time": 0, "note": 65, "velocity": 113, "channel": 0}, {"type": "note_off", "time": 92, "note": 65, "velocity": 113, "channel": 0}, {"type": "note_on", "time": 10, "note": 69, "velocity": 121, "channel": 0}, {"type": "note_off", "time": 92, "note": 69, "velocity": 121, "channel": 0}, {"type": "note_on", "time": 17, "note": 71, "velocity": 117, "channel": 0}, {"type": "note_off", "time": 57, "note": 71, "velocity": 117, "channel": 0}, {"type": "note_on", "time": 28, "note": 72, "velocity": 114, "channel": 0}, {"type": "note_off", "time": 82, "note": 72, "velocity": 114, "channel": 0}, {"type": "note_on", "time": 10, "note": 73, "velocity": 104, "channel": 0}, {"type": "note_off", "time": 53, "note": 73, "velocity": 104, "channel": 0}, {"type": "note_on", "time": 39, "note": 74, "velocity": 120, "channel": 0}, {"type": "note_off", "time": 89, "note": 74, "velocity": 120, "channel": 0}, {"type": "note_on", "time": 14, "note": 71, "velocity": 109, "channel": 0}, {"type": "note_off", "time": 71, "note": 71, "velocity": 109, "channel": 0}, {"type": "note_on", "time": 42, "note": 67, "velocity": 118, "channel": 0}, {"type": "note_off", "time": 85, "note": 67, "velocity": 118, "channel": 0}, {"type": "note_on", "time": 103, "note": 67, "velocity": 112, "channel": 0}, {"type": "note_off", "time": 271, "note": 67, "velocity": 112, "channel": 0}, {"type": "note_on", "time": 96, "note": 69, "velocity": 117, "channel": 0}, {"type": "note_off", "time": 82, "note": 69, "velocity": 117, "channel": 0}, {"type": "note_on", "time": 46, "note": 71, "velocity": 112, "channel": 0}, {"type": "note_off", "time": 64, "note": 71, "velocity": 112, "channel": 0}, {"type": "note_on", "time": 32, "note": 67, "velocity": 113, "channel": 0}, {"type": "note_off", "time": 89, "note": 67, "velocity": 113, "channel": 0}, {"type": "note_on", "time": 85, "note": 67, "velocity": 110, "channel": 0}, {"type": "note_off", "time": 260, "note": 67, "velocity": 110, "channel": 0}, {"type": "note_on", "time": 24, "note": 69, "velocity": 116, "channel": 0}, {"type": "note_off", "time": 71, "note": 69, "velocity": 116, "channel": 0}, {"type": "note_on", "time": 32, "note": 71, "velocity": 111, "channel": 0}, {"type": "note_off", "time": 92, "note": 71, "velocity": 111, "channel": 0}, {"type": "note_on", "time": 24, "note": 72, "velocity": 110, "channel": 0}, {"type": "note_off", "time": 64, "note": 72, "velocity": 110, "channel": 0}, {"type": "note_on", "time": 35, "note": 69, "velocity": 103, "channel": 0}, {"type": "note_off", "time": 89, "note": 69, "velocity": 103, "channel": 0}, {"type": "note_on", "time": 89, "note": 69, "velocity": 115, "channel": 0}, {"type": "note_off", "time": 192, "note": 69, "velocity": 115, "channel": 0}, {"type": "note_on", "time": 39, "note": 71, "velocity": 112, "channel": 0}, {"type": "note_off", "time": 96, "note": 71, "velocity": 112, "channel": 0}, {"type": "note_on", "time": 14, "note": 72, "velocity": 107, "channel": 0}, {"type": "note_off", "time": 92, "note": 72, "velocity": 107, "channel": 0}, {"type": "note_on", "time": 21, "note": 73, "velocity": 113, "channel": 0}, {"type": "note_off", "time": 89, "note": 73, "velocity": 113, "channel": 0}, {"type": "note_on", "time": 53, "note": 74, "velocity": 116, "channel": 0}, {"type": "note_off", "time": 85, "note": 74, "velocity": 116, "channel": 0}, {"type": "note_on", "time": 85, "note": 72, "velocity": 106, "channel": 0}, {"type": "note_off", "time": 64, "note": 72, "velocity": 106, "channel": 0}, {"type": "note_on", "time": 117, "note": 71, "velocity": 104, "channel": 0}, {"type": "note_off", "time": 139, "note": 71, "velocity": 104, "channel": 0}, {"type": "note_on", "time": 24, "note": 69, "velocity": 117, "channel": 0}, {"type": "note_off", "time": 110, "note": 69, "velocity": 117, "channel": 0}, {"type": "note_on", "time": 3, "note": 71, "velocity": 105, "channel": 0}, {"type": "note_off", "time": 124, "note": 71, "velocity": 105, "channel": 0}, {"type": "note_on", "time": 32, "note": 67, "velocity": 113, "channel": 0}, {"type": "note_off", "time": 74, "note": 67, "velocity": 113, "channel": 0}, {"type": "note_on", "time": 74, "note": 67, "velocity": 109, "channel": 0}, {"type": "note_off", "time": 263, "note": 67, "velocity": 109, "channel": 0}, {"type": "note_on", "time": 502, "note": 69, "velocity": 123, "channel": 0}, {"type": "note_off", "time": 78, "note": 69, "velocity": 123, "channel": 0}, {"type": "note_on", "time": 3, "note": 71, "velocity": 112, "channel": 0}, {"type": "note_off", "time": 110, "note": 71, "velocity": 112, "channel": 0}, {"type": "note_on", "time": 0, "note": 72, "velocity": 111, "channel": 0}, {"type": "note_off", "time": 74, "note": 72, "velocity": 111, "channel": 0}, {"type": "note_on", "time": 17, "note": 71, "velocity": 110, "channel": 0}, {"type": "note_off", "time": 85, "note": 71, "velocity": 110, "channel": 0}, {"type": "note_on", "time": 21, "note": 69, "velocity": 119, "channel": 0}, {"type": "note_off", "time": 78, "note": 69, "velocity": 119, "channel": 0}, {"type": "note_on", "time": 17, "note": 71, "velocity": 110, "channel": 0}, {"type": "note_off", "time": 92, "note": 71, "velocity": 110, "channel": 0}, {"type": "note_on", "time": 32, "note": 67, "velocity": 112, "channel": 0}, {"type": "note_off", "time": 121, "note": 67, "velocity": 112, "channel": 0}, {"type": "note_on", "time": 17, "note": 67, "velocity": 114, "channel": 0}, {"type": "note_off", "time": 256, "note": 67, "velocity": 114, "channel": 0}, {"type": "note_on", "time": 46, "note": 64, "velocity": 112, "channel": 0}, {"type": "note_off", "time": 92, "note": 64, "velocity": 112, "channel": 0}, {"type": "note_on", "time": 17, "note": 62, "velocity": 110, "channel": 0}, {"type": "note_off", "time": 57, "note": 62, "velocity": 110, "channel": 0}, {"type": "note_on", "time": 24, "note": 64, "velocity": 103, "channel": 0}, {"type": "note_off", "time": 110, "note": 64, "velocity": 103, "channel": 0}, {"type": "note_on", "time": 42, "note": 67, "velocity": 120, "channel": 0}, {"type": "note_off", "time": 99, "note": 67, "velocity": 120, "channel": 0}, {"type": "note_on", "time": 78, "note": 67, "velocity": 116, "channel": 0}, {"type": "note_off", "time": 121, "note": 67, "velocity": 116, "channel": 0}, {"type": "note_on", "time": 117, "note": 64, "velocity": 106, "channel": 0}, {"type": "note_off", "time": 178, "note": 64, "velocity": 106, "channel": 0}, {"type": "note_on", "time": 46, "note": 60, "velocity": 100, "channel": 0}, {"type": "note_off", "time": 317, "note": 60, "velocity": 100, "channel": 0}, {"type": "note_on", "time": 1194, "note": 65, "velocity": 114, "channel": 0}, {"type": "note_off", "time": 96, "note": 65, "velocity": 114, "channel": 0}, {"type": "note_on", "time": 103, "note": 72, "velocity": 106, "channel": 0}, {"type": "note_off", "time": 114, "note": 72, "velocity": 106, "channel": 0}, {"type": "note_on", "time": 74, "note": 69, "velocity": 119, "channel": 0}, {"type": "note_off", "time": 103, "note": 69, "velocity": 119, "channel": 0}, {"type": "note_on", "time": 49, "note": 70, "velocity": 114, "channel": 0}, {"type": "note_off", "time": 42, "note": 70, "velocity": 114, "channel": 0}, {"type": "note_on", "time": 124, "note": 72, "velocity": 106, "channel": 0}, {"type": "note_off", "time": 117, "note": 72, "velocity": 106, "channel": 0}, {"type": "note_on", "time": 89, "note": 70, "velocity": 104, "channel": 0}, {"type": "note_off", "time": 217, "note": 70, "velocity": 104, "channel": 0}, {"type": "note_on", "time": 39, "note": 66, "velocity": 117, "channel": 0}, {"type": "note_off", "time": 89, "note": 66, "velocity": 117, "channel": 0}, {"type": "note_on", "time": 14, "note": 67, "velocity": 118, "channel": 0}, {"type": "note_off", "time": 78, "note": 67, "velocity": 118, "channel": 0}, {"type": "note_on", "time": 21, "note": 70, "velocity": 115, "channel": 0}, {"type": "note_off", "time": 74, "note": 70, "velocity": 115, "channel": 0}, {"type": "note_on", "time": 21, "note": 69, "velocity": 118, "channel": 0}, {"type": "note_off", "time": 71, "note": 69, "velocity": 118, "channel": 0}, {"type": "note_on", "time": 21, "note": 68, "velocity": 115, "channel": 0}, {"type": "note_off", "time": 89, "note": 68, "velocity": 115, "channel": 0}, {"type": "note_on", "time": 7, "note": 67, "velocity": 113, "channel": 0}, {"type": "note_off", "time": 85, "note": 67, "velocity": 113, "channel": 0}, {"type": "note_on", "time": 21, "note": 63, "velocity": 109, "channel": 0}, {"type": "note_off", "time": 85, "note": 63, "velocity": 109, "channel": 0}, {"type": "note_on", "time": 7, "note": 60, "velocity": 101, "channel": 0}, {"type": "note_off", "time": 110, "note": 60, "velocity": 101, "channel": 0}, {"type": "note_on", "time": 0, "note": 63, "velocity": 114, "channel": 0}, {"type": "note_off", "time": 78, "note": 63, "velocity": 114, "channel": 0}, {"type": "note_on", "time": 39, "note": 65, "velocity": 113, "channel": 0}, {"type": "note_off", "time": 117, "note": 65, "velocity": 113, "channel": 0}, {"type": "note_on", "time": 42, "note": 63, "velocity": 103, "channel": 0}, {"type": "note_off", "time": 103, "note": 63, "velocity": 103, "channel": 0}, {"type": "note_on", "time": 96, "note": 65, "velocity": 108, "channel": 0}, {"type": "note_off", "time": 217, "note": 65, "velocity": 108, "channel": 0}, {"type": "note_on", "time": 74, "note": 63, "velocity": 92, "channel": 0}, {"type": "note_off", "time": 103, "note": 63, "velocity": 92, "channel": 0}, {"type": "note_on", "time": 35, "note": 65, "velocity": 110, "channel": 0}, {"type": "note_off", "time": 213, "note": 65, "velocity": 110, "channel": 0}, {"type": "note_on", "time": 7, "note": 63, "velocity": 101, "channel": 0}, {"type": "note_off", "time": 356, "note": 63, "velocity": 101, "channel": 0}, {"type": "note_on", "time": 556, "note": 70, "velocity": 114, "channel": 0}, {"type": "note_off", "time": 192, "note": 70, "velocity": 114, "channel": 0}, {"type": "note_on", "time": 42, "note": 72, "velocity": 114, "channel": 0}, {"type": "note_off", "time": 92, "note": 72, "velocity": 114, "channel": 0}, {"type": "note_on", "time": 10, "note": 75, "velocity": 114, "channel": 0}, {"type": "note_off", "time": 89, "note": 75, "velocity": 114, "channel": 0}, {"type": "note_on", "time": 0, "note": 72, "velocity": 109, "channel": 0}, {"type": "note_off", "time": 106, "note": 72, "velocity": 109, "channel": 0}, {"type": "note_on", "time": 7, "note": 70, "velocity": 111, "channel": 0}, {"type": "note_off", "time": 85, "note": 70, "velocity": 111, "channel": 0}, {"type": "note_on", "time": 7, "note": 67, "velocity": 120, "channel": 0}, {"type": "note_off", "time": 99, "note": 67, "velocity": 120, "channel": 0}, {"type": "note_on", "time": 7, "note": 68, "velocity": 110, "channel": 0}, {"type": "note_off", "time": 78, "note": 68, "velocity": 110, "channel": 0}, {"type": "note_on", "time": 21, "note": 65, "velocity": 110, "channel": 0}, {"type": "note_off", "time": 74, "note": 65, "velocity": 110, "channel": 0}, {"type": "note_on", "time": 10, "note": 67, "velocity": 115, "channel": 0}, {"type": "note_off", "time": 67, "note": 67, "velocity": 115, "channel": 0}, {"type": "note_on", "time": 53, "note": 63, "velocity": 112, "channel": 0}, {"type": "note_off", "time": 64, "note": 63, "velocity": 112, "channel": 0}, {"type": "note_on", "time": 28, "note": 63, "velocity": 103, "channel": 0}, {"type": "note_off", "time": 164, "note": 63, "velocity": 103, "channel": 0}, {"type": "note_on", "time": 841, "note": 77, "velocity": 120, "channel": 0}, {"type": "note_off", "time": 110, "note": 77, "velocity": 120, "channel": 0}, {"type": "note_on", "time": 96, "note": 65, "velocity": 112, "channel": 0}, {"type": "note_off", "time": 71, "note": 65, "velocity": 112, "channel": 0}, {"type": "note_on", "time": 53, "note": 67, "velocity": 119, "channel": 0}, {"type": "note_off", "time": 106, "note": 67, "velocity": 119, "channel": 0}, {"type": "note_on", "time": 82, "note": 68, "velocity": 111, "channel": 0}, {"type": "note_off", "time": 92, "note": 68, "velocity": 111, "channel": 0}, {"type": "note_on", "time": 78, "note": 69, "velocity": 118, "channel": 0}, {"type": "note_off", "time": 96, "note": 69, "velocity": 118, "channel": 0}, {"type": "note_on", "time": 99, "note": 70, "velocity": 113, "channel": 0}, {"type": "note_off", "time": 153, "note": 70, "velocity": 113, "channel": 0}, {"type": "note_on", "time": 139, "note": 72, "velocity": 109, "channel": 0}, {"type": "note_off", "time": 117, "note": 72, "velocity": 109, "channel": 0}, {"type": "note_on", "time": 0, "note": 73, "velocity": 111, "channel": 0}, {"type": "note_off", "time": 153, "note": 73, "velocity": 111, "channel": 0}, {"type": "note_on", "time": 14, "note": 74, "velocity": 115, "channel": 0}, {"type": "note_off", "time": 142, "note": 74, "velocity": 115, "channel": 0}, {"type": "note_on", "time": 46, "note": 77, "velocity": 117, "channel": 0}, {"type": "note_off", "time": 253, "note": 77, "velocity": 117, "channel": 0}, {"type": "note_on", "time": 28, "note": 75, "velocity": 109, "channel": 0}, {"type": "note_off", "time": 131, "note": 75, "velocity": 109, "channel": 0}, {"type": "note_on", "time": 53, "note": 63, "velocity": 116, "channel": 0}, {"type": "note_off", "time": 96, "note": 63, "velocity": 116, "channel": 0}, {"type": "note_on", "time": 57, "note": 71, "velocity": 106, "channel": 0}, {"type": "note_off", "time": 99, "note": 71, "velocity": 106, "channel": 0}, {"type": "note_on", "time": 53, "note": 72, "velocity": 108, "channel": 0}, {"type": "note_off", "time": 189, "note": 72, "velocity": 108, "channel": 0}, {"type": "note_on", "time": 117, "note": 75, "velocity": 115, "channel": 0}, {"type": "note_off", "time": 103, "note": 75, "velocity": 115, "channel": 0}, {"type": "note_on", "time": 78, "note": 72, "velocity": 107, "channel": 0}, {"type": "note_off", "time": 89, "note": 72, "velocity": 107, "channel": 0}, {"type": "note_on", "time": 32, "note": 70, "velocity": 110, "channel": 0}, {"type": "note_off", "time": 67, "note": 70, "velocity": 110, "channel": 0}, {"type": "note_on", "time": 3, "note": 68, "velocity": 109, "channel": 0}, {"type": "note_off", "time": 85, "note": 68, "velocity": 109, "channel": 0}, {"type": "note_on", "time": 32, "note": 65, "velocity": 108, "channel": 0}, {"type": "note_off", "time": 49, "note": 65, "velocity": 108, "channel": 0}, {"type": "note_on", "time": 32, "note": 61, "velocity": 106, "channel": 0}, {"type": "note_off", "time": 57, "note": 61, "velocity": 106, "channel": 0}, {"type": "note_on", "time": 42, "note": 58, "velocity": 92, "channel": 0}, {"type": "note_off", "time": 74, "note": 58, "velocity": 92, "channel": 0}, {"type": "note_on", "time": 3, "note": 63, "velocity": 108, "channel": 0}, {"type": "note_off", "time": 103, "note": 63, "velocity": 108, "channel": 0}, {"type": "note_on", "time": 39, "note": 63, "velocity": 105, "channel": 0}, {"type": "note_off", "time": 324, "note": 63, "velocity": 105, "channel": 0}, {"type": "note_on", "time": 460, "note": 60, "velocity": 95, "channel": 0}, {"type": "note_off", "time": 57, "note": 60, "velocity": 95, "channel": 0}, {"type": "note_on", "time": 0, "note": 63, "velocity": 114, "channel": 0}, {"type": "note_off", "time": 67, "note": 63, "velocity": 114, "channel": 0}, {"type": "note_on", "time": 17, "note": 65, "velocity": 114, "channel": 0}, {"type": "note_off", "time": 60, "note": 65, "velocity": 114, "channel": 0}, {"type": "note_on", "time": 35, "note": 67, "velocity": 123, "channel": 0}, {"type": "note_off", "time": 64, "note": 67, "velocity": 123, "channel": 0}, {"type": "note_on", "time": 32, "note": 67, "velocity": 120, "channel": 0}, {"type": "note_off", "time": 89, "note": 67, "velocity": 120, "channel": 0}, {"type": "note_on", "time": 7, "note": 65, "velocity": 109, "channel": 0}, {"type": "note_off", "time": 64, "note": 65, "velocity": 109, "channel": 0}, {"type": "note_on", "time": 21, "note": 65, "velocity": 111, "channel": 0}, {"type": "note_off", "time": 67, "note": 65, "velocity": 111, "channel": 0}, {"type": "note_on", "time": 17, "note": 67, "velocity": 121, "channel": 0}, {"type": "note_off", "time": 71, "note": 67, "velocity": 121, "channel": 0}, {"type": "note_on", "time": 24, "note": 67, "velocity": 120, "channel": 0}, {"type": "note_off", "time": 71, "note": 67, "velocity": 120, "channel": 0}, {"type": "note_on", "time": 39, "note": 65, "velocity": 109, "channel": 0}, {"type": "note_off", "time": 57, "note": 65, "velocity": 109, "channel": 0}, {"type": "note_on", "time": 35, "note": 65, "velocity": 105, "channel": 0}, {"type": "note_off", "time": 74, "note": 65, "velocity": 105, "channel": 0}, {"type": "note_on", "time": 21, "note": 67, "velocity": 112, "channel": 0}, {"type": "note_off", "time": 249, "note": 67, "velocity": 112, "channel": 0}, {"type": "note_on", "time": 28, "note": 65, "velocity": 112, "channel": 0}, {"type": "note_off", "time": 67, "note": 65, "velocity": 112, "channel": 0}, {"type": "note_on", "time": 53, "note": 67, "velocity": 121, "channel": 0}, {"type": "note_off", "time": 53, "note": 67, "velocity": 121, "channel": 0}, {"type": "note_on", "time": 35, "note": 67, "velocity": 122, "channel": 0}, {"type": "note_off", "time": 64, "note": 67, "velocity": 122, "channel": 0}, {"type": "note_on", "time": 24, "note": 65, "velocity": 108, "channel": 0}, {"type": "note_off", "time": 53, "note": 65, "velocity": 108, "channel": 0}, {"type": "note_on", "time": 21, "note": 65, "velocity": 106, "channel": 0}, {"type": "note_off", "time": 64, "note": 65, "velocity": 106, "channel": 0}, {"type": "note_on", "time": 28, "note": 63, "velocity": 109, "channel": 0}, {"type": "note_off", "time": 71, "note": 63, "velocity": 109, "channel": 0}, {"type": "note_on", "time": 17, "note": 63, "velocity": 104, "channel": 0}, {"type": "note_off", "time": 406, "note": 63, "velocity": 104, "channel": 0}, {"type": "note_on", "time": 559, "note": 61, "velocity": 111, "channel": 0}, {"type": "note_off", "time": 67, "note": 61, "velocity": 111, "channel": 0}, {"type": "note_on", "time": 49, "note": 63, "velocity": 121, "channel": 0}, {"type": "note_off", "time": 49, "note": 63, "velocity": 121, "channel": 0}, {"type": "note_on", "time": 35, "note": 63, "velocity": 114, "channel": 0}, {"type": "note_off", "time": 64, "note": 63, "velocity": 114, "channel": 0}, {"type": "note_on", "time": 21, "note": 61, "velocity": 112, "channel": 0}, {"type": "note_off", "time": 57, "note": 61, "velocity": 112, "channel": 0}, {"type": "note_on", "time": 32, "note": 61, "velocity": 113, "channel": 0}, {"type": "note_off", "time": 49, "note": 61, "velocity": 113, "channel": 0}, {"type": "note_on", "time": 29, "note": 60, "velocity": 115, "channel": 0}, {"type": "note_off", "time": 82, "note": 60, "velocity": 115, "channel": 0}, {"type": "note_on", "time": 30, "note": 60, "velocity": 109, "channel": 0}, {"type": "note_off", "time": 171, "note": 60, "velocity": 109, "channel": 0}, {"type": "note_on", "time": 763, "note": 60, "velocity": 112, "channel": 0}, {"type": "note_off", "time": 92, "note": 60, "velocity": 112, "channel": 0}, {"type": "note_on", "time": 35, "note": 66, "velocity": 123, "channel": 0}, {"type": "note_off", "time": 78, "note": 66, "velocity": 123, "channel": 0}, {"type": "note_on", "time": 10, "note": 65, "velocity": 113, "channel": 0}, {"type": "note_off", "time": 60, "note": 65, "velocity": 113, "channel": 0}, {"type": "note_on", "time": 24, "note": 63, "velocity": 112, "channel": 0}, {"type": "note_off", "time": 67, "note": 63, "velocity": 112, "channel": 0}, {"type": "note_on", "time": 35, "note": 60, "velocity": 108, "channel": 0}, {"type": "note_off", "time": 78, "note": 60, "velocity": 108, "channel": 0}, {"type": "note_on", "time": 28, "note": 61, "velocity": 107, "channel": 0}, {"type": "note_off", "time": 57, "note": 61, "velocity": 107, "channel": 0}, {"type": "note_on", "time": 24, "note": 63, "velocity": 115, "channel": 0}, {"type": "note_off", "time": 96, "note": 63, "velocity": 115, "channel": 0}, {"type": "note_on", "time": 89, "note": 61, "velocity": 116, "channel": 0}, {"type": "note_off", "time": 60, "note": 61, "velocity": 116, "channel": 0}, {"type": "note_on", "time": 24, "note": 58, "velocity": 103, "channel": 0}, {"type": "note_off", "time": 85, "note": 58, "velocity": 103, "channel": 0}, {"type": "note_on", "time": 42, "note": 60, "velocity": 113, "channel": 0}, {"type": "note_off", "time": 74, "note": 60, "velocity": 113, "channel": 0}, {"type": "note_on", "time": 0, "note": 61, "velocity": 108, "channel": 0}, {"type": "note_off", "time": 67, "note": 61, "velocity": 108, "channel": 0}, {"type": "note_on", "time": 39, "note": 63, "velocity": 122, "channel": 0}, {"type": "note_off", "time": 42, "note": 63, "velocity": 122, "channel": 0}, {"type": "note_on", "time": 24, "note": 64, "velocity": 118, "channel": 0}, {"type": "note_off", "time": 89, "note": 64, "velocity": 118, "channel": 0}, {"type": "note_on", "time": 39, "note": 61, "velocity": 97, "channel": 0}, {"type": "note_off", "time": 146, "note": 61, "velocity": 97, "channel": 0}, {"type": "note_on", "time": 253, "note": 64, "velocity": 9, "channel": 0}, {"type": "note_off", "time": 106, "note": 64, "velocity": 9, "channel": 0}, {"type": "note_on", "time": 17, "note": 62, "velocity": 105, "channel": 0}, {"type": "note_off", "time": 139, "note": 62, "velocity": 105, "channel": 0}, {"type": "note_on", "time": 417, "note": 60, "velocity": 98, "channel": 0}, {"type": "note_off", "time": 78, "note": 60, "velocity": 98, "channel": 0}, {"type": "note_on", "time": 35, "note": 64, "velocity": 111, "channel": 0}, {"type": "note_off", "time": 74, "note": 64, "velocity": 111, "channel": 0}, {"type": "note_on", "time": 17, "note": 67, "velocity": 127, "channel": 0}, {"type": "note_off", "time": 74, "note": 67, "velocity": 127, "channel": 0}, {"type": "note_on", "time": 17, "note": 71, "velocity": 116, "channel": 0}, {"type": "note_off", "time": 67, "note": 71, "velocity": 116, "channel": 0}, {"type": "note_on", "time": 17, "note": 71, "velocity": 111, "channel": 0}, {"type": "note_off", "time": 57, "note": 71, "velocity": 111, "channel": 0}, {"type": "note_on", "time": 42, "note": 67, "velocity": 123, "channel": 0}, {"type": "note_off", "time": 60, "note": 67, "velocity": 123, "channel": 0}, {"type": "note_on", "time": 24, "note": 67, "velocity": 125, "channel": 0}, {"type": "note_off", "time": 78, "note": 67, "velocity": 125, "channel": 0}, {"type": "note_on", "time": 17, "note": 64, "velocity": 118, "channel": 0}, {"type": "note_off", "time": 60, "note": 64, "velocity": 118, "channel": 0}, {"type": "note_on", "time": 21, "note": 64, "velocity": 117, "channel": 0}, {"type": "note_off", "time": 96, "note": 64, "velocity": 117, "channel": 0}, {"type": "note_on", "time": 35, "note": 60, "velocity": 114, "channel": 0}, {"type": "note_off", "time": 64, "note": 60, "velocity": 114, "channel": 0}, {"type": "note_on", "time": 28, "note": 60, "velocity": 110, "channel": 0}, {"type": "note_off", "time": 67, "note": 60, "velocity": 110, "channel": 0}, {"type": "note_on", "time": 3, "note": 57, "velocity": 101, "channel": 0}, {"type": "note_off", "time": 470, "note": 57, "velocity": 101, "channel": 0}, {"type": "note_on", "time": 399, "note": 69, "velocity": 115, "channel": 0}, {"type": "note_off", "time": 196, "note": 69, "velocity": 115, "channel": 0}, {"type": "note_on", "time": 53, "note": 65, "velocity": 115, "channel": 0}, {"type": "note_off", "time": 85, "note": 65, "velocity": 115, "channel": 0}, {"type": "note_on", "time": 53, "note": 62, "velocity": 116, "channel": 0}, {"type": "note_off", "time": 67, "note": 62, "velocity": 116, "channel": 0}, {"type": "note_on", "time": 28, "note": 59, "velocity": 110, "channel": 0}, {"type": "note_off", "time": 67, "note": 59, "velocity": 110, "channel": 0}, {"type": "note_on", "time": 17, "note": 55, "velocity": 105, "channel": 0}, {"type": "note_off", "time": 627, "note": 55, "velocity": 105, "channel": 0}, {"type": "note_on", "time": 328, "note": 64, "velocity": 126, "channel": 0}, {"type": "note_off", "time": 32, "note": 64, "velocity": 126, "channel": 0}, {"type": "note_on", "time": 0, "note": 66, "velocity": 120, "channel": 0}, {"type": "note_off", "time": 35, "note": 66, "velocity": 120, "channel": 0}, {"type": "note_on", "time": 0, "note": 67, "velocity": 123, "channel": 0}, {"type": "note_off", "time": 178, "note": 67, "velocity": 123, "channel": 0}, {"type": "note_on", "time": 21, "note": 64, "velocity": 121, "channel": 0}, {"type": "note_off", "time": 99, "note": 64, "velocity": 121, "channel": 0}, {"type": "note_on", "time": 14, "note": 60, "velocity": 103, "channel": 0}, {"type": "note_off", "time": 96, "note": 60, "velocity": 103, "channel": 0}, {"type": "note_on", "time": 46, "note": 57, "velocity": 114, "channel": 0}, {"type": "note_off", "time": 85, "note": 57, "velocity": 114, "channel": 0}, {"type": "note_on", "time": 14, "note": 64, "velocity": 115, "channel": 0}, {"type": "note_off", "time": 256, "note": 64, "velocity": 115, "channel": 0}, {"type": "note_on", "time": 49, "note": 60, "velocity": 110, "channel": 0}, {"type": "note_off", "time": 106, "note": 60, "velocity": 110, "channel": 0}, {"type": "note_on", "time": 49, "note": 57, "velocity": 117, "channel": 0}, {"type": "note_off", "time": 110, "note": 57, "velocity": 117, "channel": 0}, {"type": "note_on", "time": 0, "note": 64, "velocity": 115, "channel": 0}, {"type": "note_off", "time": 196, "note": 64, "velocity": 115, "channel": 0}, {"type": "note_on", "time": 114, "note": 62, "velocity": 114, "channel": 0}, {"type": "note_off", "time": 96, "note": 62, "velocity": 114, "channel": 0}, {"type": "note_on", "time": 71, "note": 60, "velocity": 114, "channel": 0}, {"type": "note_off", "time": 67, "note": 60, "velocity": 114, "channel": 0}, {"type": "note_on", "time": 14, "note": 59, "velocity": 110, "channel": 0}, {"type": "note_off", "time": 60, "note": 59, "velocity": 110, "channel": 0}, {"type": "note_on", "time": 17, "note": 60, "velocity": 102, "channel": 0}, {"type": "note_off", "time": 74, "note": 60, "velocity": 102, "channel": 0}, {"type": "note_on", "time": 28, "note": 62, "velocity": 119, "channel": 0}, {"type": "note_off", "time": 74, "note": 62, "velocity": 119, "channel": 0}, {"type": "note_on", "time": 17, "note": 59, "velocity": 113, "channel": 0}, {"type": "note_off", "time": 82, "note": 59, "velocity": 113, "channel": 0}, {"type": "note_on", "time": 28, "note": 60, "velocity": 104, "channel": 0}, {"type": "note_off", "time": 520, "note": 60, "velocity": 104, "channel": 0}, {"type": "note_on", "time": 513, "note": 65, "velocity": 116, "channel": 0}, {"type": "note_off", "time": 131, "note": 65, "velocity": 116, "channel": 0}, {"type": "note_on", "time": 49, "note": 65, "velocity": 111, "channel": 0}, {"type": "note_off", "time": 156, "note": 65, "velocity": 111, "channel": 0}, {"type": "note_on", "time": 103, "note": 65, "velocity": 105, "channel": 0}, {"type": "note_off", "time": 342, "note": 65, "velocity": 105, "channel": 0}, {"type": "note_on", "time": 542, "note": 70, "velocity": 112, "channel": 0}, {"type": "note_off", "time": 121, "note": 70, "velocity": 112, "channel": 0}, {"type": "note_on", "time": 164, "note": 70, "velocity": 108, "channel": 0}, {"type": "note_off", "time": 99, "note": 70, "velocity": 108, "channel": 0}, {"type": "note_on", "time": 85, "note": 70, "velocity": 114, "channel": 0}, {"type": "note_off", "time": 135, "note": 70, "velocity": 114, "channel": 0}, {"type": "note_on", "time": 53, "note": 70, "velocity": 108, "channel": 0}, {"type": "note_off", "time": 128, "note": 70, "velocity": 108, "channel": 0}, {"type": "note_on", "time": 64, "note": 63, "velocity": 108, "channel": 0}, {"type": "note_off", "time": 74, "note": 63, "velocity": 108, "channel": 0}, {"type": "note_on", "time": 35, "note": 63, "velocity": 110, "channel": 0}, {"type": "note_off", "time": 256, "note": 63, "velocity": 110, "channel": 0}, {"type": "note_on", "time": 324, "note": 68, "velocity": 109, "channel": 0}, {"type": "note_off", "time": 114, "note": 68, "velocity": 109, "channel": 0}, {"type": "note_on", "time": 114, "note": 68, "velocity": 115, "channel": 0}, {"type": "note_off", "time": 103, "note": 68, "velocity": 115, "channel": 0}, {"type": "note_on", "time": 103, "note": 68, "velocity": 115, "channel": 0}, {"type": "note_off", "time": 99, "note": 68, "velocity": 115, "channel": 0}, {"type": "note_on", "time": 82, "note": 68, "velocity": 114, "channel": 0}, {"type": "note_off", "time": 82, "note": 68, "velocity": 114, "channel": 0}, {"type": "note_on", "time": 103, "note": 61, "velocity": 109, "channel": 0}, {"type": "note_off", "time": 89, "note": 61, "velocity": 109, "channel": 0}, {"type": "note_on", "time": 53, "note": 61, "velocity": 106, "channel": 0}, {"type": "note_off", "time": 96, "note": 61, "velocity": 106, "channel": 0}, {"type": "note_on", "time": 103, "note": 63, "velocity": 107, "channel": 0}, {"type": "note_off", "time": 74, "note": 63, "velocity": 107, "channel": 0}, {"type": "note_on", "time": 74, "note": 65, "velocity": 112, "channel": 0}, {"type": "note_off", "time": 92, "note": 65, "velocity": 112, "channel": 0}, {"type": "note_on", "time": 85, "note": 68, "velocity": 112, "channel": 0}, {"type": "note_off", "time": 131, "note": 68, "velocity": 112, "channel": 0}, {"type": "note_on", "time": 146, "note": 67, "velocity": 117, "channel": 0}, {"type": "note_off", "time": 99, "note": 67, "velocity": 117, "channel": 0}, {"type": "note_on", "time": 7, "note": 70, "velocity": 111, "channel": 0}, {"type": "note_off", "time": 74, "note": 70, "velocity": 111, "channel": 0}, {"type": "note_on", "time": 0, "note": 67, "velocity": 118, "channel": 0}, {"type": "note_off", "time": 89, "note": 67, "velocity": 118, "channel": 0}, {"type": "note_on", "time": 7, "note": 65, "velocity": 107, "channel": 0}, {"type": "note_off", "time": 82, "note": 65, "velocity": 107, "channel": 0}, {"type": "note_on", "time": 42, "note": 63, "velocity": 116, "channel": 0}, {"type": "note_off", "time": 85, "note": 63, "velocity": 116, "channel": 0}, {"type": "note_on", "time": 42, "note": 60, "velocity": 104, "channel": 0}, {"type": "note_off", "time": 106, "note": 60, "velocity": 104, "channel": 0}, {"type": "note_on", "time": 60, "note": 60, "velocity": 95, "channel": 0}, {"type": "note_off", "time": 970, "note": 60, "velocity": 95, "channel": 0}, {"type": "end_of_track", "time": 0}]]}