{"ticks_per_beat": 192, "tracks": [[{"type": "track_name", "name": "Melody", "time": 0}, {"type": "set_tempo", "tempo": 303030, "time": 0}, {"type": "key_signature", "key": "Eb", "time": 0}, {"type": "time_signature", "numerator": 4, "denominator": 4, "clocks_per_click": 24, "notated_32nd_notes_per_beat": 8, "time": 0}, {"type": "note_on", "time": 2444, "note": 62, "velocity": 101, "channel": 0}, {"type": "note_off", "time": 94, "note": 62, "velocity": 101, "channel": 0}, {"type": "note_on", "time": 24, "note": 59, "velocity": 104, "channel": 0}, {"type": "note_off", "time": 47, "note": 59, "velocity": 104, "channel": 0}, {"type": "note_on", "time": 14, "note": 55, "velocity": 126, "channel": 0}, {"type": "note_off", "time": 105, "note": 55, "velocity": 126, "channel": 0}, {"type": "note_on", "time": 24, "note": 58, "velocity": 106, "channel": 0}, {"type": "note_off", "time": 54, "note": 58, "velocity": 106, "channel": 0}, {"type": "note_on", "time": 19, "note": 63, "velocity": 99, "channel": 0}, {"type": "note_off", "time": 69, "note": 63, "velocity": 99, "channel": 0}, {"type": "note_on", "time": 18, "note": 65, "velocity": 111, "channel": 0}, {"type": "note_off", "time": 80, "note": 65, "velocity": 111, "channel": 0}, {"type": "note_on", "time": 19, "note": 67, "velocity": 106, "channel": 0}, {"type": "note_off", "time": 97, "note": 67, "velocity": 106, "channel": 0}, {"type": "note_on", "time": 13, "note": 65, "velocity": 94, "channel": 0}, {"type": "note_off", "time": 88, "note": 65, "velocity": 94, "channel": 0}, {"type": "note_on", "time": 270, "note": 67, "velocity": 106, "channel": 0}, {"type": "note_off", "time": 117, "note": 67, "velocity": 106, "channel": 0}, {"type": "note_on", "time": 91, "note": 63, "velocity": 95, "channel": 0}, {"type": "note_off", "time": 57, "note": 63, "velocity": 95, "channel": 0}, {"type": "note_on", "time": 5, "note": 65, "velocity": 112, "channel": 0}, {"type": "note_off", "time": 97, "note": 65, "velocity": 112, "channel": 0}, {"type": "note_on", "time": 11, "note": 67, "velocity": 111, "channel": 0}, {"type": "note_off", "time": 58, "note": 67, "velocity": 111, "channel": 0}, {"type": "note_on", "time": 9, "note": 68, "velocity": 110, "channel": 0}, {"type": "note_off", "time": 105, "note": 68, "velocity": 110, "channel": 0}, {"type": "note_on", "time": 12, "note": 69, "velocity": 108, "channel": 0}, {"type": "note_off", "time": 75, "note": 69, "velocity": 108, "channel": 0}, {"type": "note_on", "time": 6, "note": 71, "velocity": 99, "channel": 0}, {"type": "note_off", "time": 129, "note": 71, "velocity": 99, "channel": 0}, {"type": "note_on", "time": 12, "note": 69, "velocity": 104, "channel": 0}, {"type": "note_off", "time": 60, "note": 69, "velocity": 104, "channel": 0}, {"type": "note_on", "time": 109, "note": 71, "velocity": 92, "channel": 0}, {"type": "note_off", "time": 248, "note": 71, "velocity": 92, "channel": 0}, {"type": "note_on", "time": 32, "note": 67, "velocity": 112, "channel": 0}, {"type": "note_off", "time": 77, "note": 67, "velocity": 112, "channel": 0}, {"type": "note_on", "time": 7, "note": 65, "velocity": 103, "channel": 0}, {"type": "note_off", "time": 76, "note": 65, "velocity": 103, "channel": 0}, {"type": "note_on", "time": 20, "note": 63, "velocity": 94, "channel": 0}, {"type": "note_off", "time": 88, "note": 63, "velocity": 94, "channel": 0}, {"type": "note_on", "time": 12, "note": 60, "velocity": 82, "channel": 0}, {"type": "note_off", "time": 65, "note": 60, "velocity": 82, "channel": 0}, {"type": "note_on", "time": 31, "note": 62, "velocity": 101, "channel": 0}, {"type": "note_off", "time": 77, "note": 62, "velocity": 101, "channel": 0}, {"type": "note_on", "time": 25, "note": 59, "velocity": 95, "channel": 0}, {"type": "note_off", "time": 66, "note": 59, "velocity": 95, "channel": 0}, {"type": "note_on", "time": 149, "note": 60, "velocity": 88, "channel": 0}, {"type": "note_off", "time": 43, "note": 60, "velocity": 88, "channel": 0}, {"type": "note_on", "time": 8, "note": 63, "velocity": 101, "channel": 0}, {"type": "note_off", "time": 97, "note": 63, "velocity": 101, "channel": 0}, {"type": "note_on", "time": 5, "note": 65, "velocity": 117, "channel": 0}, {"type": "note_off", "time": 78, "note": 65, "velocity": 117, "channel": 0}, {"type": "note_on", "time": 5, "note": 66, "velocity": 109, "channel": 0}, {"type": "note_off", "time": 87, "note": 66, "velocity": 109, "channel": 0}, {"type": "note_on", "time": 9, "note": 65, "velocity": 104, "channel": 0}, {"type": "note_off", "time": 69, "note": 65, "velocity": 104, "channel": 0}, {"type": "note_on", "time": 25, "note": 63, "velocity": 97, "channel": 0}, {"type": "note_off", "time": 89, "note": 63, "velocity": 97, "channel": 0}, {"type": "note_on", "time": 2, "note": 60, "velocity": 100, "channel": 0}, {"type": "note_off", "time": 87, "note": 60, "velocity": 100, "channel": 0}, {"type": "note_on", "time": 7, "note": 55, "velocity": 102, "channel": 0}, {"type": "note_off", "time": 167, "note": 55, "velocity": 102, "channel": 0}, {"type": "note_on", "time": 224, "note": 60, "velocity": 97, "channel": 0}, {"type": "note_off", "time": 301, "note": 60, "velocity": 97, "channel": 0}, {"type": "note_on", "time": 16, "note": 62, "velocity": 92, "channel": 0}, {"type": "note_off", "time": 284, "note": 62, "velocity": 92, "channel": 0}, {"type": "note_on", "time": 85, "note": 67, "velocity": 109, "channel": 0}, {"type": "note_off", "time": 100, "note": 67, "velocity": 109, "channel": 0}, {"type": "note_on", "time": 720, "note": 60, "velocity": 101, "channel": 0}, {"type": "note_off", "time": 105, "note": 60, "velocity": 101, "channel": 0}, {"type": "note_on", "time": 47, "note": 62, "velocity": 93, "channel": 0}, {"type": "note_off", "time": 110, "note": 62, "velocity": 93, "channel": 0}, {"type": "note_on", "time": 93, "note": 65, "velocity": 91, "channel": 0}, {"type": "note_off", "time": 287, "note": 65, "velocity": 91, "channel": 0}, {"type": "note_on", "time": 24, "note": 72, "velocity": 85, "channel": 0}, {"type": "note_off", "time": 310, "note": 72, "velocity": 85, "channel": 0}, {"type": "note_on", "time": 268, "note": 60, "velocity": 101, "channel": 0}, {"type": "note_off", "time": 61, "note": 60, "velocity": 101, "channel": 0}, {"type": "note_on", "time": 11, "note": 63, "velocity": 97, "channel": 0}, {"type": "note_off", "time": 72, "note": 63, "velocity": 97, "channel": 0}, {"type": "note_on", "time": 34, "note": 66, "velocity": 118, "channel": 0}, {"type": "note_off", "time": 60, "note": 66, "velocity": 118, "channel": 0}, {"type": "note_on", "time": 11, "note": 69, "velocity": 108, "channel": 0}, {"type": "note_off", "time": 102, "note": 69, "velocity": 108, "channel": 0}, {"type": "note_on", "time": 35, "note": 74, "velocity": 88, "channel": 0}, {"type": "note_off", "time": 36, "note": 74, "velocity": 88, "channel": 0}, {"type": "note_on", "time": 18, "note": 77, "velocity": 106, "channel": 0}, {"type": "note_off", "time": 107, "note": 77, "velocity": 106, "channel": 0}, {"type": "note_on", "time": 8, "note": 70, "velocity": 88, "channel": 0}, {"type": "note_off", "time": 242, "note": 70, "velocity": 88, "channel": 0}, {"type": "note_on", "time": 11, "note": 72, "velocity": 99, "channel": 0}, {"type": "note_off", "time": 106, "note": 72, "velocity": 99, "channel": 0}, {"type": "note_on", "time": 32, "note": 68, "velocity": 114, "channel": 0}, {"type": "note_off", "time": 59, "note": 68, "velocity": 114, "channel": 0}, {"type": "note_on", "time": 7, "note": 70, "velocity": 100, "channel": 0}, {"type": "note_off", "time": 81, "note": 70, "velocity": 100, "channel": 0}, {"type": "note_on", "time": 22, "note": 67, "velocity": 105, "channel": 0}, {"type": "note_off", "time": 79, "note": 67, "velocity": 105, "channel": 0}, {"type": "note_on", "time": 11, "note": 68, "velocity": 110, "channel": 0}, {"type": "note_off", "time": 70, "note": 68, "velocity": 110, "channel": 0}, {"type": "note_on", "time": 11, "note": 70, "velocity": 93, "channel": 0}, {"type": "note_off", "time": 36, "note": 70, "velocity": 93, "channel": 0}, {"type": "note_on", "time": 7, "note": 68, "velocity": 110, "channel": 0}, {"type": "note_off", "time": 66, "note": 68, "velocity": 110, "channel": 0}, {"type": "note_on", "time": 18, "note": 65, "velocity": 103, "channel": 0}, {"type": "note_off", "time": 92, "note": 65, "velocity": 103, "channel": 0}, {"type": "note_on", "time": 34, "note": 67, "velocity": 108, "channel": 0}, {"type": "note_off", "time": 95, "note": 67, "velocity": 108, "channel": 0}, {"type": "note_on", "time": 164, "note": 65, "velocity": 107, "channel": 0}, {"type": "note_off", "time": 73, "note": 65, "velocity": 107, "channel": 0}, {"type": "note_on", "time": 61, "note": 62, "velocity": 89, "channel": 0}, {"type": "note_off", "time": 55, "note": 62, "velocity": 89, "channel": 0}, {"type": "note_on", "time": 14, "note": 63, "velocity": 101, "channel": 0}, {"type": "note_off", "time": 91, "note": 63, "velocity": 101, "channel": 0}, {"type": "note_on", "time": 12, "note": 60, "velocity": 100, "channel": 0}, {"type": "note_off", "time": 162, "note": 60, "velocity": 100, "channel": 0}, {"type": "note_on", "time": 12, "note": 62, "velocity": 97, "channel": 0}, {"type": "note_off", "time": 103, "note": 62, "velocity": 97, "channel": 0}, {"type": "note_on", "time": 43, "note": 59, "velocity": 103, "channel": 0}, {"type": "note_off", "time": 79, "note": 59, "velocity": 103, "channel": 0}, {"type": "note_on", "time": 6, "note": 60, "velocity": 101, "channel": 0}, {"type": "note_off", "time": 100, "note": 60, "velocity": 101, "channel": 0}, {"type": "note_on", "time": 7, "note": 62, "velocity": 99, "channel": 0}, {"type": "note_off", "time": 42, "note": 62, "velocity": 99, "channel": 0}, {"type": "note_on", "time": 9, "note": 60, "velocity": 102, "channel": 0}, {"type": "note_off", "time": 45, "note": 60, "velocity": 102, "channel": 0}, {"type": "note_on", "time": 20, "note": 59, "velocity": 100, "channel": 0}, {"type": "note_off", "time": 78, "note": 59, "velocity": 100, "channel": 0}, {"type": "note_on", "time": 106, "note": 62, "velocity": 93, "channel": 0}, {"type": "note_off", "time": 247, "note": 62, "velocity": 93, "channel": 0}, {"type": "note_on", "time": 24, "note": 59, "velocity": 101, "channel": 0}, {"type": "note_off", "time": 74, "note": 59, "velocity": 101, "channel": 0}, {"type": "note_on", "time": 9, "note": 60, "velocity": 102, "channel": 0}, {"type": "note_off", "time": 78, "note": 60, "velocity": 102, "channel": 0}, {"type": "note_on", "time": 55, "note": 67, "velocity": 105, "channel": 0}, {"type": "note_off", "time": 115, "note": 67, "velocity": 105, "channel": 0}, {"type": "note_on", "time": 913, "note": 77, "velocity": 110, "channel": 0}, {"type": "note_off", "time": 109, "note": 77, "velocity": 110, "channel": 0}, {"type": "note_on", "time": 65, "note": 75, "velocity": 107, "channel": 0}, {"type": "note_off", "time": 80, "note": 75, "velocity": 107, "channel": 0}, {"type": "note_on", "time": 12, "note": 74, "velocity": 106, "channel": 0}, {"type": "note_off", "time": 78, "note": 74, "velocity": 106, "channel": 0}, {"type": "note_on", "time": 8, "note": 72, "velocity": 94, "channel": 0}, {"type": "note_off", "time": 112, "note": 72, "velocity": 94, "channel": 0}, {"type": "note_on", "time": 26, "note": 67, "velocity": 105, "channel": 0}, {"type": "note_off", "time": 76, "note": 67, "velocity": 105, "channel": 0}, {"type": "note_on", "time": 91, "note": 65, "velocity": 103, "channel": 0}, {"type": "note_off", "time": 251, "note": 65, "velocity": 103, "channel": 0}, {"type": "note_on", "time": 20, "note": 63, "velocity": 99, "channel": 0}, {"type": "note_off", "time": 87, "note": 63, "velocity": 99, "channel": 0}, {"type": "note_on", "time": 21, "note": 62, "velocity": 95, "channel": 0}, {"type": "note_off", "time": 58, "note": 62, "velocity": 95, "channel": 0}, {"type": "note_on", "time": 320, "note": 60, "velocity": 98, "channel": 0}, {"type": "note_off", "time": 224, "note": 60, "velocity": 98, "channel": 0}, {"type": "note_on", "time": 21, "note": 63, "velocity": 103, "channel": 0}, {"type": "note_off", "time": 85, "note": 63, "velocity": 103, "channel": 0}, {"type": "note_on", "time": 29, "note": 66, "velocity": 111, "channel": 0}, {"type": "note_off", "time": 62, "note": 66, "velocity": 111, "channel": 0}, {"type": "note_on", "time": 7, "note": 67, "velocity": 107, "channel": 0}, {"type": "note_off", "time": 114, "note": 67, "velocity": 107, "channel": 0}, {"type": "note_on", "time": 19, "note": 72, "velocity": 100, "channel": 0}, {"type": "note_off", "time": 77, "note": 72, "velocity": 100, "channel": 0}, {"type": "note_on", "time": 98, "note": 69, "velocity": 102, "channel": 0}, {"type": "note_off", "time": 243, "note": 69, "velocity": 102, "channel": 0}, {"type": "note_on", "time": 26, "note": 65, "velocity": 109, "channel": 0}, {"type": "note_off", "time": 95, "note": 65, "velocity": 109, "channel": 0}, {"type": "note_on", "time": 63, "note": 62, "velocity": 97, "channel": 0}, {"type": "note_off", "time": 92, "note": 62, "velocity": 97, "channel": 0}, {"type": "note_on", "time": 79, "note": 59, "velocity": 103, "channel": 0}, {"type": "note_off", "time": 130, "note": 59, "velocity": 103, "channel": 0}, {"type": "note_on", "time": 7, "note": 60, "velocity": 100, "channel": 0}, {"type": "note_off", "time": 118, "note": 60, "velocity": 100, "channel": 0}, {"type": "note_on", "time": 710, "note": 70, "velocity": 110, "channel": 0}, {"type": "note_off", "time": 88, "note": 70, "velocity": 110, "channel": 0}, {"type": "note_on", "time": 6, "note": 72, "velocity": 100, "channel": 0}, {"type": "note_off", "time": 76, "note": 72, "velocity": 100, "channel": 0}, {"type": "note_on", "time": 26, "note": 73, "velocity": 97, "channel": 0}, {"type": "note_off", "time": 86, "note": 73, "velocity": 97, "channel": 0}, {"type": "note_on", "time": 13, "note": 70, "velocity": 99, "channel": 0}, {"type": "note_off", "time": 59, "note": 70, "velocity": 99, "channel": 0}, {"type": "note_on", "time": 31, "note": 67, "velocity": 99, "channel": 0}, {"type": "note_off", "time": 116, "note": 67, "velocity": 99, "channel": 0}, {"type": "note_on", "time": 7, "note": 68, "velocity": 108, "channel": 0}, {"type": "note_off", "time": 42, "note": 68, "velocity": 108, "channel": 0}, {"type": "note_on", "time": 11, "note": 70, "velocity": 102, "channel": 0}, {"type": "note_off", "time": 105, "note": 70, "velocity": 102, "channel": 0}, {"type": "note_on", "time": 16, "note": 72, "velocity": 97, "channel": 0}, {"type": "note_off", "time": 79, "note": 72, "velocity": 97, "channel": 0}, {"type": "note_on", "time": 104, "note": 65, "velocity": 106, "channel": 0}, {"type": "note_off", "time": 146, "note": 65, "velocity": 106, "channel": 0}, {"type": "note_on", "time": 104, "note": 67, "velocity": 99, "channel": 0}, {"type": "note_off", "time": 294, "note": 67, "velocity": 99, "channel": 0}, {"type": "note_on", "time": 12, "note": 68, "velocity": 116, "channel": 0}, {"type": "note_off", "time": 69, "note": 68, "velocity": 116, "channel": 0}, {"type": "note_on", "time": 10, "note": 64, "velocity": 93, "channel": 0}, {"type": "note_off", "time": 77, "note": 64, "velocity": 93, "channel": 0}, {"type": "note_on", "time": 61, "note": 65, "velocity": 109, "channel": 0}, {"type": "note_off", "time": 46, "note": 65, "velocity": 109, "channel": 0}, {"type": "note_on", "time": 7, "note": 67, "velocity": 113, "channel": 0}, {"type": "note_off", "time": 82, "note": 67, "velocity": 113, "channel": 0}, {"type": "note_on", "time": 4, "note": 68, "velocity": 111, "channel": 0}, {"type": "note_off", "time": 81, "note": 68, "velocity": 111, "channel": 0}, {"type": "note_on", "time": 14, "note": 70, "velocity": 101, "channel": 0}, {"type": "note_off", "time": 84, "note": 70, "velocity": 101, "channel": 0}, {"type": "note_on", "time": 31, "note": 71, "velocity": 103, "channel": 0}, {"type": "note_off", "time": 71, "note": 71, "velocity": 103, "channel": 0}, {"type": "note_on", "time": 9, "note": 72, "velocity": 97, "channel": 0}, {"type": "note_off", "time": 72, "note": 72, "velocity": 97, "channel": 0}, {"type": "note_on", "time": 21, "note": 75, "velocity": 100, "channel": 0}, {"type": "note_off", "time": 82, "note": 75, "velocity": 100, "channel": 0}, {"type": "note_on", "time": 35, "note": 74, "velocity": 101, "channel": 0}, {"type": "note_off", "time": 65, "note": 74, "velocity": 101, "channel": 0}, {"type": "note_on", "time": 10, "note": 69, "velocity": 108, "channel": 0}, {"type": "note_off", "time": 78, "note": 69, "velocity": 108, "channel": 0}, {"type": "note_on", "time": 19, "note": 66, "velocity": 103, "channel": 0}, {"type": "note_off", "time": 66, "note": 66, "velocity": 103, "channel": 0}, {"type": "note_on", "time": 51, "note": 63, "velocity": 96, "channel": 0}, {"type": "note_off", "time": 62, "note": 63, "velocity": 96, "channel": 0}, {"type": "note_on", "time": 30, "note": 59, "velocity": 101, "channel": 0}, {"type": "note_off", "time": 100, "note": 59, "velocity": 101, "channel": 0}, {"type": "note_on", "time": 5, "note": 60, "velocity": 96, "channel": 0}, {"type": "note_off", "time": 153, "note": 60, "velocity": 96, "channel": 0}, {"type": "note_on", "time": 14, "note": 62, "velocity": 94, "channel": 0}, {"type": "note_off", "time": 231, "note": 62, "velocity": 94, "channel": 0}, {"type": "note_on", "time": 46, "note": 66, "velocity": 109, "channel": 0}, {"type": "note_off", "time": 68, "note": 66, "velocity": 109, "channel": 0}, {"type": "note_on", "time": 585, "note": 67, "velocity": 102, "channel": 0}, {"type": "note_off", "time": 259, "note": 67, "velocity": 102, "channel": 0}, {"type": "note_on", "time": 13, "note": 70, "velocity": 106, "channel": 0}, {"type": "note_off", "time": 82, "note": 70, "velocity": 106, "channel": 0}, {"type": "note_on", "time": 7, "note": 67, "velocity": 109, "channel": 0}, {"type": "note_off", "time": 83, "note": 67, "velocity": 109, "channel": 0}, {"type": "note_on", "time": 10, "note": 65, "velocity": 102, "channel": 0}, {"type": "note_off", "time": 86, "note": 65, "velocity": 102, "channel": 0}, {"type": "note_on", "time": 21, "note": 63, "velocity": 100, "channel": 0}, {"type": "note_off", "time": 90, "note": 63, "velocity": 100, "channel": 0}, {"type": "note_on", "time": 15, "note": 62, "velocity": 98, "channel": 0}, {"type": "note_off", "time": 108, "note": 62, "velocity": 98, "channel": 0}, {"type": "note_on", "time": 60, "note": 65, "velocity": 112, "channel": 0}, {"type": "note_off", "time": 73, "note": 65, "velocity": 112, "channel": 0}, {"type": "note_on", "time": 14, "note": 69, "velocity": 107, "channel": 0}, {"type": "note_off", "time": 79, "note": 69, "velocity": 107, "channel": 0}, {"type": "note_on", "time": 6, "note": 72, "velocity": 104, "channel": 0}, {"type": "note_off", "time": 106, "note": 72, "velocity": 104, "channel": 0}, {"type": "note_on", "time": 63, "note": 71, "velocity": 101, "channel": 0}, {"type": "note_off", "time": 62, "note": 71, "velocity": 101, "channel": 0}, {"type": "note_on", "time": 98, "note": 67, "velocity": 99, "channel": 0}, {"type": "note_off", "time": 353, "note": 67, "velocity": 99, "channel": 0}, {"type": "note_on", "time": 9, "note": 65, "velocity": 96, "channel": 0}, {"type": "note_off", "time": 47, "note": 65, "velocity": 96, "channel": 0}, {"type": "note_on", "time": 9, "note": 64, "velocity": 93, "channel": 0}, {"type": "note_off", "time": 56, "note": 64, "velocity": 93, "channel": 0}, {"type": "note_on", "time": 93, "note": 62, "velocity": 91, "channel": 0}, {"type": "note_off", "time": 171, "note": 62, "velocity": 91, "channel": 0}, {"type": "note_on", "time": 958, "note": 58, "velocity": 109, "channel": 0}, {"type": "note_off", "time": 66, "note": 58, "velocity": 109, "channel": 0}, {"type": "note_on", "time": 18, "note": 61, "velocity": 99, "channel": 0}, {"type": "note_off", "time": 73, "note": 61, "velocity": 99, "channel": 0}, {"type": "note_on", "time": 22, "note": 66, "velocity": 112, "channel": 0}, {"type": "note_off", "time": 76, "note": 66, "velocity": 112, "channel": 0}, {"type": "note_on", "time": 23, "note": 70, "velocity": 103, "channel": 0}, {"type": "note_off", "time": 136, "note": 70, "velocity": 103, "channel": 0}, {"type": "note_on", "time": 7, "note": 72, "velocity": 89, "channel": 0}, {"type": "note_off", "time": 92, "note": 72, "velocity": 89, "channel": 0}, {"type": "note_on", "time": 50, "note": 73, "velocity": 97, "channel": 0}, {"type": "note_off", "time": 245, "note": 73, "velocity": 97, "channel": 0}, {"type": "note_on", "time": 35, "note": 72, "velocity": 104, "channel": 0}, {"type": "note_off", "time": 85, "note": 72, "velocity": 104, "channel": 0}, {"type": "note_on", "time": 9, "note": 70, "velocity": 104, "channel": 0}, {"type": "note_off", "time": 76, "note": 70, "velocity": 104, "channel": 0}, {"type": "note_on", "time": 19, "note": 68, "velocity": 110, "channel": 0}, {"type": "note_off", "time": 82, "note": 68, "velocity": 110, "channel": 0}, {"type": "note_on", "time": 19, "note": 70, "velocity": 102, "channel": 0}, {"type": "note_off", "time": 71, "note": 70, "velocity": 102, "channel": 0}, {"type": "note_on", "time": 33, "note": 67, "velocity": 82, "channel": 0}, {"type": "note_off", "time": 60, "note": 67, "velocity": 82, "channel": 0}, {"type": "note_on", "time": 45, "note": 68, "velocity": 105, "channel": 0}, {"type": "note_off", "time": 241, "note": 68, "velocity": 105, "channel": 0}, {"type": "note_on", "time": 17, "note": 67, "velocity": 108, "channel": 0}, {"type": "note_off", "time": 91, "note": 67, "velocity": 108, "channel": 0}, {"type": "note_on", "time": 18, "note": 66, "velocity": 105, "channel": 0}, {"type": "note_off", "time": 61, "note": 66, "velocity": 105, "channel": 0}, {"type": "note_on", "time": 12, "note": 65, "velocity": 103, "channel": 0}, {"type": "note_off", "time": 67, "note": 65, "velocity": 103, "channel": 0}, {"type": "note_on", "time": 35, "note": 60, "velocity": 98, "channel": 0}, {"type": "note_off", "time": 62, "note": 60, "velocity": 98, "channel": 0}, {"type": "note_on", "time": 13, "note": 55, "velocity": 127, "channel": 0}, {"type": "note_off", "time": 162, "note": 55, "velocity": 127, "channel": 0}, {"type": "note_on", "time": 15, "note": 60, "velocity": 103, "channel": 0}, {"type": "note_off", "time": 66, "note": 60, "velocity": 103, "channel": 0}, {"type": "note_on", "time": 808, "note": 65, "velocity": 117, "channel": 0}, {"type": "note_off", "time": 71, "note": 65, "velocity": 117, "channel": 0}, {"type": "note_on", "time": 9, "note": 67, "velocity": 108, "channel": 0}, {"type": "note_off", "time": 91, "note": 67, "velocity": 108, "channel": 0}, {"type": "note_on", "time": 17, "note": 68, "velocity": 111, "channel": 0}, {"type": "note_off", "time": 72, "note": 68, "velocity": 111, "channel": 0}, {"type": "note_on", "time": 11, "note": 70, "velocity": 98, "channel": 0}, {"type": "note_off", "time": 88, "note": 70, "velocity": 98, "channel": 0}, {"type": "note_on", "time": 18, "note": 71, "velocity": 102, "channel": 0}, {"type": "note_off", "time": 67, "note": 71, "velocity": 102, "channel": 0}, {"type": "note_on", "time": 13, "note": 68, "velocity": 108, "channel": 0}, {"type": "note_off", "time": 75, "note": 68, "velocity": 108, "channel": 0}, {"type": "note_on", "time": 27, "note": 71, "velocity": 98, "channel": 0}, {"type": "note_off", "time": 78, "note": 71, "velocity": 98, "channel": 0}, {"type": "note_on", "time": 32, "note": 70, "velocity": 92, "channel": 0}, {"type": "note_off", "time": 80, "note": 70, "velocity": 92, "channel": 0}, {"type": "note_on", "time": 191, "note": 68, "velocity": 104, "channel": 0}, {"type": "note_off", "time": 245, "note": 68, "velocity": 104, "channel": 0}, {"type": "note_on", "time": 34, "note": 70, "velocity": 88, "channel": 0}, {"type": "note_off", "time": 256, "note": 70, "velocity": 88, "channel": 0}, {"type": "note_on", "time": 115, "note": 65, "velocity": 111, "channel": 0}, {"type": "note_off", "time": 84, "note": 65, "velocity": 111, "channel": 0}, {"type": "note_on", "time": 31, "note": 67, "velocity": 111, "channel": 0}, {"type": "note_off", "time": 63, "note": 67, "velocity": 111, "channel": 0}, {"type": "note_on", "time": 17, "note": 68, "velocity": 112, "channel": 0}, {"type": "note_off", "time": 80, "note": 68, "velocity": 112, "channel": 0}, {"type": "note_on", "time": 16, "note": 70, "velocity": 102, "channel": 0}, {"type": "note_off", "time": 54, "note": 70, "velocity": 102, "channel": 0}, {"type": "note_on", "time": 29, "note": 67, "velocity": 108, "channel": 0}, {"type": "note_off", "time": 84, "note": 67, "velocity": 108, "channel": 0}, {"type": "note_on", "time": 12, "note": 70, "velocity": 100, "channel": 0}, {"type": "note_off", "time": 70, "note": 70, "velocity": 100, "channel": 0}, {"type": "note_on", "time": 20, "note": 68, "velocity": 105, "channel": 0}, {"type": "note_off", "time": 116, "note": 68, "velocity": 105, "channel": 0}, {"type": "note_on", "time": 196, "note": 65, "velocity": 108, "channel": 0}, {"type": "note_off", "time": 73, "note": 65, "velocity": 108, "channel": 0}, {"type": "note_on", "time": 113, "note": 65, "velocity": 107, "channel": 0}, {"type": "note_off", "time": 37, "note": 65, "velocity": 107, "channel": 0}, {"type": "note_on", "time": 20, "note": 67, "velocity": 99, "channel": 0}, {"type": "note_off", "time": 258, "note": 67, "velocity": 99, "channel": 0}, {"type": "note_on", "time": 53, "note": 60, "velocity": 98, "channel": 0}, {"type": "note_off", "time": 89, "note": 60, "velocity": 98, "channel": 0}, {"type": "note_on", "time": 12, "note": 62, "velocity": 93, "channel": 0}, {"type": "note_off", "time": 48, "note": 62, "velocity": 93, "channel": 0}, {"type": "note_on", "time": 35, "note": 63, "velocity": 94, "channel": 0}, {"type": "note_off", "time": 58, "note": 63, "velocity": 94, "channel": 0}, {"type": "note_on", "time": 31, "note": 65, "velocity": 113, "channel": 0}, {"type": "note_off", "time": 76, "note": 65, "velocity": 113, "channel": 0}, {"type": "note_on", "time": 18, "note": 67, "velocity": 108, "channel": 0}, {"type": "note_off", "time": 80, "note": 67, "velocity": 108, "channel": 0}, {"type": "note_on", "time": 33, "note": 63, "velocity": 95, "channel": 0}, {"type": "note_off", "time": 47, "note": 63, "velocity": 95, "channel": 0}, {"type": "note_on", "time": 16, "note": 67, "velocity": 112, "channel": 0}, {"type": "note_off", "time": 81, "note": 67, "velocity": 112, "channel": 0}, {"type": "note_on", "time": 3, "note": 65, "velocity": 99, "channel": 0}, {"type": "note_off", "time": 144, "note": 65, "velocity": 99, "channel": 0}, {"type": "note_on", "time": 164, "note": 57, "velocity": 109, "channel": 0}, {"type": "note_off", "time": 93, "note": 57, "velocity": 109, "channel": 0}, {"type": "note_on", "time": 184, "note": 59, "velocity": 104, "channel": 0}, {"type": "note_off", "time": 87, "note": 59, "velocity": 104, "channel": 0}, {"type": "note_on", "time": 72, "note": 59, "velocity": 80, "channel": 0}, {"type": "note_off", "time": 47, "note": 59, "velocity": 80, "channel": 0}, {"type": "note_on", "time": 11, "note": 62, "velocity": 96, "channel": 0}, {"type": "note_off", "time": 95, "note": 62, "velocity": 96, "channel": 0}, {"type": "note_on", "time": 195, "note": 60, "velocity": 97, "channel": 0}, {"type": "note_off", "time": 138, "note": 60, "velocity": 97, "channel": 0}, {"type": "note_on", "time": 16, "note": 67, "velocity": 104, "channel": 0}, {"type": "note_off", "time": 149, "note": 67, "velocity": 104, "channel": 0}, {"type": "note_on", "time": 123, "note": 67, "velocity": 95, "channel": 0}, {"type": "note_off", "time": 234, "note": 67, "velocity": 95, "channel": 0}, {"type": "note_on", "time": 885, "note": 66, "velocity": 116, "channel": 0}, {"type": "note_off", "time": 69, "note": 66, "velocity": 116, "channel": 0}, {"type": "note_on", "time": 6, "note": 69, "velocity": 104, "channel": 0}, {"type": "note_off", "time": 99, "note": 69, "velocity": 104, "channel": 0}, {"type": "note_on", "time": 8, "note": 72, "velocity": 100, "channel": 0}, {"type": "note_off", "time": 85, "note": 72, "velocity": 100, "channel": 0}, {"type": "note_on", "time": 10, "note": 74, "velocity": 101, "channel": 0}, {"type": "note_off", "time": 84, "note": 74, "velocity": 101, "channel": 0}, {"type": "note_on", "time": 15, "note": 75, "velocity": 98, "channel": 0}, {"type": "note_off", "time": 71, "note": 75, "velocity": 98, "channel": 0}, {"type": "note_on", "time": 44, "note": 74, "velocity": 101, "channel": 0}, {"type": "note_off", "time": 60, "note": 74, "velocity": 101, "channel": 0}, {"type": "note_on", "time": 16, "note": 72, "velocity": 99, "channel": 0}, {"type": "note_off", "time": 87, "note": 72, "velocity": 99, "channel": 0}, {"type": "note_on", "time": 94, "note": 74, "velocity": 105, "channel": 0}, {"type": "note_off", "time": 95, "note": 74, "velocity": 105, "channel": 0}, {"type": "note_on", "time": 78, "note": 67, "velocity": 107, "channel": 0}, {"type": "note_off", "time": 92, "note": 67, "velocity": 107, "channel": 0}, {"type": "note_on", "time": 96, "note": 63, "velocity": 95, "channel": 0}, {"type": "note_off", "time": 298, "note": 63, "velocity": 95, "channel": 0}, {"type": "note_on", "time": 80, "note": 65, "velocity": 110, "channel": 0}, {"type": "note_off", "time": 94, "note": 65, "velocity": 110, "channel": 0}, {"type": "note_on", "time": 20, "note": 68, "velocity": 105, "channel": 0}, {"type": "note_off", "time": 72, "note": 68, "velocity": 105, "channel": 0}, {"type": "note_on", "time": 106, "note": 75, "velocity": 108, "channel": 0}, {"type": "note_off", "time": 74, "note": 75, "velocity": 108, "channel": 0}, {"type": "note_on", "time": 11, "note": 74, "velocity": 103, "channel": 0}, {"type": "note_off", "time": 96, "note": 74, "velocity": 103, "channel": 0}, {"type": "note_on", "time": 56, "note": 67, "velocity": 107, "channel": 0}, {"type": "note_off", "time": 66, "note": 67, "velocity": 107, "channel": 0}, {"type": "note_on", "time": 514, "note": 79, "velocity": 115, "channel": 0}, {"type": "note_off", "time": 85, "note": 79, "velocity": 115, "channel": 0}, {"type": "note_on", "time": 7, "note": 77, "velocity": 101, "channel": 0}, {"type": "note_off", "time": 82, "note": 77, "velocity": 101, "channel": 0}, {"type": "note_on", "time": 17, "note": 75, "velocity": 101, "channel": 0}, {"type": "note_off", "time": 70, "note": 75, "velocity": 101, "channel": 0}, {"type": "note_on", "time": 32, "note": 74, "velocity": 98, "channel": 0}, {"type": "note_off", "time": 78, "note": 74, "velocity": 98, "channel": 0}, {"type": "note_on", "time": 34, "note": 72, "velocity": 95, "channel": 0}, {"type": "note_off", "time": 111, "note": 72, "velocity": 95, "channel": 0}, {"type": "note_on", "time": 17, "note": 67, "velocity": 99, "channel": 0}, {"type": "note_off", "time": 71, "note": 67, "velocity": 99, "channel": 0}, {"type": "note_on", "time": 73, "note": 69, "velocity": 110, "channel": 0}, {"type": "note_off", "time": 112, "note": 69, "velocity": 110, "channel": 0}, {"type": "note_on", "time": 76, "note": 72, "velocity": 85, "channel": 0}, {"type": "note_off", "time": 247, "note": 72, "velocity": 85, "channel": 0}, {"type": "note_on", "time": 16, "note": 71, "velocity": 104, "channel": 0}, {"type": "note_off", "time": 124, "note": 71, "velocity": 104, "channel": 0}, {"type": "note_on", "time": 32, "note": 74, "velocity": 99, "channel": 0}, {"type": "note_off", "time": 54, "note": 74, "velocity": 99, "channel": 0}, {"type": "note_on", "time": 92, "note": 67, "velocity": 110, "channel": 0}, {"type": "note_off", "time": 104, "note": 67, "velocity": 110, "channel": 0}, {"type": "note_on", "time": 85, "note": 74, "velocity": 96, "channel": 0}, {"type": "note_off", "time": 248, "note": 74, "velocity": 96, "channel": 0}, {"type": "note_on", "time": 16, "note": 72, "velocity": 9, "channel": 0}, {"type": "note_off", "time": 99, "note": 72, "velocity": 9, "channel": 0}, {"type": "note_on", "time": 12, "note": 70, "velocity": 93, "channel": 0}, {"type": "note_off", "time": 65, "note": 70, "velocity": 93, "channel": 0}, {"type": "note_on", "time": 14, "note": 67, "velocity": 97, "channel": 0}, {"type": "note_off", "time": 100, "note": 67, "velocity": 97, "channel": 0}, {"type": "note_on", "time": 12, "note": 63, "velocity": 82, "channel": 0}, {"type": "note_off", "time": 65, "note": 63, "velocity": 82, "channel": 0}, {"type": "note_on", "time": 34, "note": 65, "velocity": 100, "channel": 0}, {"type": "note_off", "time": 103, "note": 65, "velocity": 100, "channel": 0}, {"type": "note_on", "time": 23, "note": 66, "velocity": 95, "channel": 0}, {"type": "note_off", "time": 75, "note": 66, "velocity": 95, "channel": 0}, {"type": "note_on", "time": 90, "note": 67, "velocity": 96, "channel": 0}, {"type": "note_off", "time": 246, "note": 67, "velocity": 96, "channel": 0}, {"type": "note_on", "time": 36, "note": 62, "velocity": 82, "channel": 0}, {"type": "note_off", "time": 74, "note": 62, "velocity": 82, "channel": 0}, {"type": "note_on", "time": 12, "note": 55, "velocity": 88, "channel": 0}, {"type": "note_off", "time": 644, "note": 55, "velocity": 88, "channel": 0}, {"type": "note_on", "time": 370, "note": 58, "velocity": 97, "channel": 0}, {"type": "note_off", "time": 31, "note": 58, "velocity": 97, "channel": 0}, {"type": "note_on", "time": 17, "note": 61, "velocity": 93, "channel": 0}, {"type": "note_off", "time": 72, "note": 61, "velocity": 93, "channel": 0}, {"type": "note_on", "time": 39, "note": 69, "velocity": 99, "channel": 0}, {"type": "note_off", "time": 115, "note": 69, "velocity": 99, "channel": 0}, {"type": "note_on", "time": 59, "note": 73, "velocity": 81, "channel": 0}, {"type": "note_off", "time": 246, "note": 73, "velocity": 81, "channel": 0}, {"type": "note_on", "time": 12, "note": 72, "velocity": 95, "channel": 0}, {"type": "note_off", "time": 85, "note": 72, "velocity": 95, "channel": 0}, {"type": "note_on", "time": 10, "note": 71, "velocity": 94, "channel": 0}, {"type": "note_off", "time": 76, "note": 71, "velocity": 94, "channel": 0}, {"type": "note_on", "time": 10, "note": 70, "velocity": 93, "channel": 0}, {"type": "note_off", "time": 90, "note": 70, "velocity": 93, "channel": 0}, {"type": "note_on", "time": 14, "note": 69, "velocity": 89, "channel": 0}, {"type": "note_off", "time": 79, "note": 69, "velocity": 89, "channel": 0}, {"type": "note_on", "time": 34, "note": 68, "velocity": 99, "channel": 0}, {"type": "note_off", "time": 92, "note": 68, "velocity": 99, "channel": 0}, {"type": "note_on", "time": 9, "note": 67, "velocity": 95, "channel": 0}, {"type": "note_off", "time": 34, "note": 67, "velocity": 95, "channel": 0}, {"type": "note_on", "time": 3, "note": 68, "velocity": 101, "channel": 0}, {"type": "note_off", "time": 81, "note": 68, "velocity": 101, "channel": 0}, {"type": "note_on", "time": 51, "note": 68, "velocity": 94, "channel": 0}, {"type": "note_off", "time": 264, "note": 68, "velocity": 94, "channel": 0}, {"type": "note_on", "time": 11, "note": 68, "velocity": 98, "channel": 0}, {"type": "note_off", "time": 134, "note": 68, "velocity": 98, "channel": 0}, {"type": "note_on", "time": 8, "note": 68, "velocity": 100, "channel": 0}, {"type": "note_off", "time": 71, "note": 68, "velocity": 100, "channel": 0}, {"type": "note_on", "time": 97, "note": 68, "velocity": 99, "channel": 0}, {"type": "note_off", "time": 236, "note": 68, "velocity": 99, "channel": 0}, {"type": "note_on", "time": 6, "note": 65, "velocity": 87, "channel": 0}, {"type": "note_off", "time": 255, "note": 65, "velocity": 87, "channel": 0}, {"type": "note_on", "time": 850, "note": 66, "velocity": 96, "channel": 0}, {"type": "note_off", "time": 210, "note": 66, "velocity": 96, "channel": 0}, {"type": "note_on", "time": 9, "note": 67, "velocity": 99, "channel": 0}, {"type": "note_off", "time": 140, "note": 67, "velocity": 99, "channel": 0}, {"type": "note_on", "time": 57, "note": 70, "velocity": 88, "channel": 0}, {"type": "note_off", "time": 299, "note": 70, "velocity": 88, "channel": 0}, {"type": "note_on", "time": 20, "note": 67, "velocity": 102, "channel": 0}, {"type": "note_off", "time": 82, "note": 67, "velocity": 102, "channel": 0}, {"type": "note_on", "time": 12, "note": 65, "velocity": 92, "channel": 0}, {"type": "note_off", "time": 155, "note": 65, "velocity": 92, "channel": 0}, {"type": "note_on", "time": 148, "note": 67, "velocity": 93, "channel": 0}, {"type": "note_off", "time": 347, "note": 67, "velocity": 93, "channel": 0}, {"type": "note_on", "time": 16, "note": 64, "velocity": 95, "channel": 0}, {"type": "note_off", "time": 67, "note": 64, "velocity": 95, "channel": 0}, {"type": "note_on", "time": 9, "note": 62, "velocity": 94, "channel": 0}, {"type": "note_off", "time": 132, "note": 62, "velocity": 94, "channel": 0}, {"type": "note_on", "time": 38, "note": 60, "velocity": 93, "channel": 0}, {"type": "note_off", "time": 92, "note": 60, "velocity": 93, "channel": 0}, {"type": "note_on", "time": 21, "note": 59, "velocity": 96, "channel": 0}, {"type": "note_off", "time": 326, "note": 59, "velocity": 96, "channel": 0}, {"type": "note_on", "time": 39, "note": 55, "velocity": 109, "channel": 0}, {"type": "note_off", "time": 80, "note": 55, "velocity": 109, "channel": 0}, {"type": "note_on", "time": 9, "note": 57, "velocity": 90, "channel": 0}, {"type": "note_off", "time": 133, "note": 57, "velocity": 90, "channel": 0}, {"type": "note_on", "time": 14, "note": 59, "velocity": 94, "channel": 0}, {"type": "note_off", "time": 45, "note": 59, "velocity": 94, "channel": 0}, {"type": "note_on", "time": 111, "note": 62, "velocity": 90, "channel": 0}, {"type": "note_off", "time": 164, "note": 62, "velocity": 90, "channel": 0}, {"type": "note_on", "time": 801, "note": 60, "velocity": 82, "channel": 0}, {"type": "note_off", "time": 461, "note": 60, "velocity": 82, "channel": 0}, {"type": "note_on", "time": 304, "note": 62, "velocity": 100, "channel": 0}, {"type": "note_off", "time": 73, "note": 62, "velocity": 100, "channel": 0}, {"type": "note_on", "time": 14, "note": 63, "velocity": 101, "channel": 0}, {"type": "note_off", "time": 87, "note": 63, "velocity": 101, "channel": 0}, {"type": "note_on", "time": 10, "note": 65, "velocity": 103, "channel": 0}, {"type": "note_off", "time": 72, "note": 65, "velocity": 103, "channel": 0}, {"type": "note_on", "time": 11, "note": 67, "velocity": 94, "channel": 0}, {"type": "note_off", "time": 163, "note": 67, "velocity": 94, "channel": 0}, {"type": "note_on", "time": 9, "note": 67, "velocity": 85, "channel": 0}, {"type": "note_off", "time": 106, "note": 67, "velocity": 85, "channel": 0}, {"type": "note_on", "time": 14, "note": 67, "velocity": 87, "channel": 0}, {"type": "note_off", "time": 616, "note": 67, "velocity": 87, "channel": 0}, {"type": "note_on", "time": 333, "note": 65, "velocity": 110, "channel": 0}, {"type": "note_off", "time": 74, "note": 65, "velocity": 110, "channel": 0}, {"type": "note_on", "time": 11, "note": 63, "velocity": 92, "channel": 0}, {"type": "note_off", "time": 86, "note": 63, "velocity": 92, "channel": 0}, {"type": "note_on", "time": 43, "note": 60, "velocity": 96, "channel": 0}, {"type": "note_off", "time": 61, "note": 60, "velocity": 96, "channel": 0}, {"type": "note_on", "time": 23, "note": 62, "velocity": 92, "channel": 0}, {"type": "note_off", "time": 95, "note": 62, "velocity": 92, "channel": 0}, {"type": "note_on", "time": 59, "note": 59, "velocity": 89, "channel": 0}, {"type": "note_off", "time": 79, "note": 59, "velocity": 89, "channel": 0}, {"type": "note_on", "time": 34, "note": 60, "velocity": 92, "channel": 0}, {"type": "note_off", "time": 138, "note": 60, "velocity": 92, "channel": 0}, {"type": "note_on", "time": 27, "note": 62, "velocity": 92, "channel": 0}, {"type": "note_off", "time": 73, "note": 62, "velocity": 92, "channel": 0}, {"type": "note_on", "time": 32, "note": 63, "velocity": 93, "channel": 0}, {"type": "note_off", "time": 70, "note": 63, "velocity": 93, "channel": 0}, {"type": "note_on", "time": 25, "note": 65, "velocity": 103, "channel": 0}, {"type": "note_off", "time": 73, "note": 65, "velocity": 103, "channel": 0}, {"type": "note_on", "time": 15, "note": 67, "velocity": 98, "channel": 0}, {"type": "note_off", "time": 89, "note": 67, "velocity": 98, "channel": 0}, {"type": "note_on", "time": 1357, "note": 72, "velocity": 88, "channel": 0}, {"type": "note_off", "time": 223, "note": 72, "velocity": 88, "channel": 0}, {"type": "note_on", "time": 31, "note": 77, "velocity": 92, "channel": 0}, {"type": "note_off", "time": 94, "note": 77, "velocity": 92, "channel": 0}, {"type": "note_on", "time": 20, "note": 72, "velocity": 96, "channel": 0}, {"type": "note_off", "time": 67, "note": 72, "velocity": 96, "channel": 0}, {"type": "note_on", "time": 16, "note": 70, "velocity": 93, "channel": 0}, {"type": "note_off", "time": 87, "note": 70, "velocity": 93, "channel": 0}, {"type": "note_on", "time": 9, "note": 69, "velocity": 96, "channel": 0}, {"type": "note_off", "time": 89, "note": 69, "velocity": 96, "channel": 0}, {"type": "note_on", "time": 5, "note": 68, "velocity": 101, "channel": 0}, {"type": "note_off", "time": 91, "note": 68, "velocity": 101, "channel": 0}, {"type": "note_on", "time": 5, "note": 67, "velocity": 100, "channel": 0}, {"type": "note_off", "time": 80, "note": 67, "velocity": 100, "channel": 0}, {"type": "note_on", "time": 10, "note": 65, "velocity": 99, "channel": 0}, {"type": "note_off", "time": 85, "note": 65, "velocity": 99, "channel": 0}, {"type": "note_on", "time": 34, "note": 66, "velocity": 100, "channel": 0}, {"type": "note_off", "time": 62, "note": 66, "velocity": 100, "channel": 0}, {"type": "note_on", "time": 8, "note": 69, "velocity": 88, "channel": 0}, {"type": "note_off", "time": 84, "note": 69, "velocity": 88, "channel": 0}, {"type": "note_on", "time": 7, "note": 72, "velocity": 94, "channel": 0}, {"type": "note_off", "time": 78, "note": 72, "velocity": 94, "channel": 0}, {"type": "note_on", "time": 32, "note": 75, "velocity": 99, "channel": 0}, {"type": "note_off", "time": 102, "note": 75, "velocity": 99, "channel": 0}, {"type": "note_on", "time": 69, "note": 74, "velocity": 100, "channel": 0}, {"type": "note_off", "time": 87, "note": 74, "velocity": 100, "channel": 0}, {"type": "note_on", "time": 3, "note": 73, "velocity": 89, "channel": 0}, {"type": "note_off", "time": 77, "note": 73, "velocity": 89, "channel": 0}, {"type": "note_on", "time": 18, "note": 72, "velocity": 93, "channel": 0}, {"type": "note_off", "time": 90, "note": 72, "velocity": 93, "channel": 0}, {"type": "note_on", "time": 17, "note": 69, "velocity": 98, "channel": 0}, {"type": "note_off", "time": 70, "note": 69, "velocity": 98, "channel": 0}, {"type": "note_on", "time": 11, "note": 66, "velocity": 94, "channel": 0}, {"type": "note_off", "time": 91, "note": 66, "velocity": 94, "channel": 0}, {"type": "note_on", "time": 39, "note": 66, "velocity": 83, "channel": 0}, {"type": "note_off", "time": 50, "note": 66, "velocity": 83, "channel": 0}, {"type": "note_on", "time": 34, "note": 70, "velocity": 95, "channel": 0}, {"type": "note_off", "time": 101, "note": 70, "velocity": 95, "channel": 0}, {"type": "note_on", "time": 59, "note": 69, "velocity": 102, "channel": 0}, {"type": "note_off", "time": 94, "note": 69, "velocity": 102, "channel": 0}, {"type": "note_on", "time": 7, "note": 68, "velocity": 102, "channel": 0}, {"type": "note_off", "time": 78, "note": 68, "velocity": 102, "channel": 0}, {"type": "note_on", "time": 10, "note": 67, "velocity": 97, "channel": 0}, {"type": "note_off", "time": 101, "note": 67, "velocity": 97, "channel": 0}, {"type": "note_on", "time": 12, "note": 64, "velocity": 97, "channel": 0}, {"type": "note_off", "time": 50, "note": 64, "velocity": 97, "channel": 0}, {"type": "note_on", "time": 9, "note": 59, "velocity": 104, "channel": 0}, {"type": "note_off", "time": 80, "note": 59, "velocity": 104, "channel": 0}, {"type": "note_on", "time": 69, "note": 56, "velocity": 114, "channel": 0}, {"type": "note_off", "time": 38, "note": 56, "velocity": 114, "channel": 0}, {"type": "note_on", "time": 9, "note": 55, "velocity": 99, "channel": 0}, {"type": "note_off", "time": 161, "note": 55, "velocity": 99, "channel": 0}, {"type": "note_on", "time": 64, "note": 58, "velocity": 89, "channel": 0}, {"type": "note_off", "time": 71, "note": 58, "velocity": 89, "channel": 0}, {"type": "note_on", "time": 39, "note": 62, "velocity": 88, "channel": 0}, {"type": "note_off", "time": 40, "note": 62, "velocity": 88, "channel": 0}, {"type": "note_on", "time": 10, "note": 65, "velocity": 105, "channel": 0}, {"type": "note_off", "time": 100, "note": 65, "velocity": 105, "channel": 0}, {"type": "note_on", "time": 35, "note": 62, "velocity": 88, "channel": 0}, {"type": "note_off", "time": 54, "note": 62, "velocity": 88, "channel": 0}, {"type": "note_on", "time": 16, "note": 63, "velocity": 90, "channel": 0}, {"type": "note_off", "time": 84, "note": 63, "velocity": 90, "channel": 0}, {"type": "note_on", "time": 12, "note": 65, "velocity": 105, "channel": 0}, {"type": "note_off", "time": 87, "note": 65, "velocity": 105, "channel": 0}, {"type": "note_on", "time": 13, "note": 67, "velocity": 102, "channel": 0}, {"type": "note_off", "time": 80, "note": 67, "velocity": 102, "channel": 0}, {"type": "note_on", "time": 91, "note": 68, "velocity": 106, "channel": 0}, {"type": "note_off", "time": 83, "note": 68, "velocity": 106, "channel": 0}, {"type": "note_on", "time": 19, "note": 65, "velocity": 96, "channel": 0}, {"type": "note_off", "time": 67, "note": 65, "velocity": 96, "channel": 0}, {"type": "note_on", "time": 10, "note": 61, "velocity": 87, "channel": 0}, {"type": "note_off", "time": 102, "note": 61, "velocity": 87, "channel": 0}, {"type": "note_on", "time": 29, "note": 56, "velocity": 107, "channel": 0}, {"type": "note_off", "time": 41, "note": 56, "velocity": 107, "channel": 0}, {"type": "note_on", "time": 17, "note": 55, "velocity": 99, "channel": 0}, {"type": "note_off", "time": 80, "note": 55, "velocity": 99, "channel": 0}, {"type": "note_on", "time": 43, "note": 55, "velocity": 113, "channel": 0}, {"type": "note_off", "time": 67, "note": 55, "velocity": 113, "channel": 0}, {"type": "note_on", "time": 30, "note": 59, "velocity": 100, "channel": 0}, {"type": "note_off", "time": 71, "note": 59, "velocity": 100, "channel": 0}, {"type": "note_on", "time": 27, "note": 62, "velocity": 93, "channel": 0}, {"type": "note_off", "time": 75, "note": 62, "velocity": 93, "channel": 0}, {"type": "note_on", "time": 95, "note": 60, "velocity": 99, "channel": 0}, {"type": "note_off", "time": 79, "note": 60, "velocity": 99, "channel": 0}, {"type": "note_on", "time": 10, "note": 64, "velocity": 96, "channel": 0}, {"type": "note_off", "time": 67, "note": 64, "velocity": 96, "channel": 0}, {"type": "note_on", "time": 23, "note": 67, "velocity": 106, "channel": 0}, {"type": "note_off", "time": 76, "note": 67, "velocity": 106, "channel": 0}, {"type": "note_on", "time": 21, "note": 71, "velocity": 96, "channel": 0}, {"type": "note_off", "time": 68, "note": 71, "velocity": 96, "channel": 0}, {"type": "note_on", "time": 17, "note": 74, "velocity": 93, "channel": 0}, {"type": "note_off", "time": 80, "note": 74, "velocity": 93, "channel": 0}, {"type": "note_on", "time": 7, "note": 71, "velocity": 94, "channel": 0}, {"type": "note_off", "time": 87, "note": 71, "velocity": 94, "channel": 0}, {"type": "note_on", "time": 14, "note": 67, "velocity": 97, "channel": 0}, {"type": "note_off", "time": 76, "note": 67, "velocity": 97, "channel": 0}, {"type": "note_on", "time": 7, "note": 64, "velocity": 90, "channel": 0}, {"type": "note_off", "time": 93, "note": 64, "velocity": 90, "channel": 0}, {"type": "note_on", "time": 18, "note": 59, "velocity": 96, "channel": 0}, {"type": "note_off", "time": 71, "note": 59, "velocity": 96, "channel": 0}, {"type": "note_on", "time": 10, "note": 62, "velocity": 89, "channel": 0}, {"type": "note_off", "time": 88, "note": 62, "velocity": 89, "channel": 0}, {"type": "note_on", "time": 20, "note": 61, "velocity": 90, "channel": 0}, {"type": "note_off", "time": 60, "note": 61, "velocity": 90, "channel": 0}, {"type": "note_on", "time": 16, "note": 60, "velocity": 93, "channel": 0}, {"type": "note_off", "time": 83, "note": 60, "velocity": 93, "channel": 0}, {"type": "note_on", "time": 10, "note": 59, "velocity": 97, "channel": 0}, {"type": "note_off", "time": 79, "note": 59, "velocity": 97, "channel": 0}, {"type": "note_on", "time": 20, "note": 58, "velocity": 92, "channel": 0}, {"type": "note_off", "time": 95, "note": 58, "velocity": 92, "channel": 0}, {"type": "note_on", "time": 8, "note": 61, "velocity": 82, "channel": 0}, {"type": "note_off", "time": 52, "note": 61, "velocity": 82, "channel": 0}, {"type": "note_on", "time": 21, "note": 66, "velocity": 103, "channel": 0}, {"type": "note_off", "time": 87, "note": 66, "velocity": 103, "channel": 0}, {"type": "note_on", "time": 14, "note": 67, "velocity": 97, "channel": 0}, {"type": "note_off", "time": 98, "note": 67, "velocity": 97, "channel": 0}, {"type": "note_on", "time": 10, "note": 68, "velocity": 100, "channel": 0}, {"type": "note_off", "time": 115, "note": 68, "velocity": 100, "channel": 0}, {"type": "note_on", "time": 23, "note": 69, "velocity": 94, "channel": 0}, {"type": "note_off", "time": 124, "note": 69, "velocity": 94, "channel": 0}, {"type": "note_on", "time": 40, "note": 70, "velocity": 93, "channel": 0}, {"type": "note_off", "time": 254, "note": 70, "velocity": 93, "channel": 0}, {"type": "note_on", "time": 19, "note": 67, "velocity": 97, "channel": 0}, {"type": "note_off", "time": 93, "note": 67, "velocity": 97, "channel": 0}, {"type": "note_on", "time": 19, "note": 68, "velocity": 99, "channel": 0}, {"type": "note_off", "time": 69, "note": 68, "velocity": 99, "channel": 0}, {"type": "note_on", "time": 288, "note": 67, "velocity": 91, "channel": 0}, {"type": "note_off", "time": 267, "note": 67, "velocity": 91, "channel": 0}, {"type": "note_on", "time": 36, "note": 64, "velocity": 89, "channel": 0}, {"type": "note_off", "time": 73, "note": 64, "velocity": 89, "channel": 0}, {"type": "note_on", "time": 10, "note": 65, "velocity": 104, "channel": 0}, {"type": "note_off", "time": 81, "note": 65, "velocity": 104, "channel": 0}, {"type": "note_on", "time": 672, "note": 67, "velocity": 105, "channel": 0}, {"type": "note_off", "time": 106, "note": 67, "velocity": 105, "channel": 0}, {"type": "note_on", "time": 5, "note": 68, "velocity": 100, "channel": 0}, {"type": "note_off", "time": 94, "note": 68, "velocity": 100, "channel": 0}, {"type": "note_on", "time": 6, "note": 72, "velocity": 76, "channel": 0}, {"type": "note_off", "time": 58, "note": 72, "velocity": 76, "channel": 0}, {"type": "note_on", "time": 4, "note": 75, "velocity": 97, "channel": 0}, {"type": "note_off", "time": 94, "note": 75, "velocity": 97, "channel": 0}, {"type": "note_on", "time": 20, "note": 80, "velocity": 89, "channel": 0}, {"type": "note_off", "time": 193, "note": 80, "velocity": 89, "channel": 0}, {"type": "note_on", "time": 10, "note": 79, "velocity": 104, "channel": 0}, {"type": "note_off", "time": 73, "note": 79, "velocity": 104, "channel": 0}, {"type": "note_on", "time": 99, "note": 77, "velocity": 102, "channel": 0}, {"type": "note_off", "time": 85, "note": 77, "velocity": 102, "channel": 0}, {"type": "note_on", "time": 8, "note": 75, "velocity": 94, "channel": 0}, {"type": "note_off", "time": 99, "note": 75, "velocity": 94, "channel": 0}, {"type": "note_on", "time": 10, "note": 71, "velocity": 79, "channel": 0}, {"type": "note_off", "time": 121, "note": 71, "velocity": 79, "channel": 0}, {"type": "note_on", "time": 149, "note": 70, "velocity": 87, "channel": 0}, {"type": "note_off", "time": 263, "note": 70, "velocity": 87, "channel": 0}, {"type": "note_on", "time": 14, "note": 67, "velocity": 107, "channel": 0}, {"type": "note_off", "time": 89, "note": 67, "velocity": 107, "channel": 0}, {"type": "note_on", "time": 11, "note": 68, "velocity": 103, "channel": 0}, {"type": "note_off", "time": 82, "note": 68, "velocity": 103, "channel": 0}, {"type": "note_on", "time": 32, "note": 69, "velocity": 99, "channel": 0}, {"type": "note_off", "time": 74, "note": 69, "velocity": 99, "channel": 0}, {"type": "note_on", "time": 10, "note": 70, "velocity": 91, "channel": 0}, {"type": "note_off", "time": 71, "note": 70, "velocity": 91, "channel": 0}, {"type": "note_on", "time": 15, "note": 71, "velocity": 92, "channel": 0}, {"type": "note_off", "time": 63, "note": 71, "velocity": 92, "channel": 0}, {"type": "note_on", "time": 19, "note": 72, "velocity": 91, "channel": 0}, {"type": "note_off", "time": 96, "note": 72, "velocity": 91, "channel": 0}, {"type": "note_on", "time": 14, "note": 70, "velocity": 93, "channel": 0}, {"type": "note_off", "time": 63, "note": 70, "velocity": 93, "channel": 0}, {"type": "note_on", "time": 43, "note": 67, "velocity": 99, "channel": 0}, {"type": "note_off", "time": 72, "note": 67, "velocity": 99, "channel": 0}, {"type": "note_on", "time": 107, "note": 68, "velocity": 105, "channel": 0}, {"type": "note_off", "time": 69, "note": 68, "velocity": 105, "channel": 0}, {"type": "note_on", "time": 12, "note": 67, "velocity": 96, "channel": 0}, {"type": "note_off", "time": 73, "note": 67, "velocity": 96, "channel": 0}, {"type": "note_on", "time": 20, "note": 63, "velocity": 92, "channel": 0}, {"type": "note_off", "time": 78, "note": 63, "velocity": 92, "channel": 0}, {"type": "note_on", "time": 40, "note": 62, "velocity": 104, "channel": 0}, {"type": "note_off", "time": 50, "note": 62, "velocity": 104, "channel": 0}, {"type": "note_on", "time": 17, "note": 69, "velocity": 103, "channel": 0}, {"type": "note_off", "time": 89, "note": 69, "velocity": 103, "channel": 0}, {"type": "note_on", "time": 16, "note": 65, "velocity": 97, "channel": 0}, {"type": "note_off", "time": 62, "note": 65, "velocity": 97, "channel": 0}, {"type": "note_on", "time": 1, "note": 62, "velocity": 95, "channel": 0}, {"type": "note_off", "time": 128, "note": 62, "velocity": 95, "channel": 0}, {"type": "note_on", "time": 11, "note": 60, "velocity": 94, "channel": 0}, {"type": "note_off", "time": 55, "note": 60, "velocity": 94, "channel": 0}, {"type": "note_on", "time": 10, "note": 59, "velocity": 99, "channel": 0}, {"type": "note_off", "time": 106, "note": 59, "velocity": 99, "channel": 0}, {"type": "note_on", "time": 3, "note": 62, "velocity": 98, "channel": 0}, {"type": "note_off", "time": 48, "note": 62, "velocity": 98, "channel": 0}, {"type": "note_on", "time": 33, "note": 65, "velocity": 101, "channel": 0}, {"type": "note_off", "time": 77, "note": 65, "velocity": 101, "channel": 0}, {"type": "note_on", "time": 28, "note": 68, "velocity": 96, "channel": 0}, {"type": "note_off", "time": 89, "note": 68, "velocity": 96, "channel": 0}, {"type": "note_on", "time": 13, "note": 67, "velocity": 98, "channel": 0}, {"type": "note_off", "time": 149, "note": 67, "velocity": 98, "channel": 0}, {"type": "note_on", "time": 12, "note": 63, "velocity": 96, "channel": 0}, {"type": "note_off", "time": 69, "note": 63, "velocity": 96, "channel": 0}, {"type": "note_on", "time": 118, "note": 62, "velocity": 83, "channel": 0}, {"type": "note_off", "time": 723, "note": 62, "velocity": 83, "channel": 0}, {"type": "note_on", "time": 9, "note": 62, "velocity": 85, "channel": 0}, {"type": "note_off", "time": 711, "note": 62, "velocity": 85, "channel": 0}, {"type": "note_on", "time": 43, "note": 55, "velocity": 92, "channel": 0}, {"type": "note_off", "time": 342, "note": 55, "velocity": 92, "channel": 0}, {"type": "note_on", "time": 824, "note": 60, "velocity": 95, "channel": 0}, {"type": "note_off", "time": 121, "note": 60, "velocity": 95, "channel": 0}, {"type": "note_on", "time": 16, "note": 62, "velocity": 83, "channel": 0}, {"type": "note_off", "time": 48, "note": 62, "velocity": 83, "channel": 0}, {"type": "note_on", "time": 22, "note": 63, "velocity": 95, "channel": 0}, {"type": "note_off", "time": 152, "note": 63, "velocity": 95, "channel": 0}, {"type": "note_on", "time": 101, "note": 60, "velocity": 81, "channel": 0}, {"type": "note_off", "time": 49, "note": 60, "velocity": 81, "channel": 0}, {"type": "note_on", "time": 28, "note": 63, "velocity": 80, "channel": 0}, {"type": "note_off", "time": 51, "note": 63, "velocity": 80, "channel": 0}, {"type": "note_on", "time": 91, "note": 65, "velocity": 106, "channel": 0}, {"type": "note_off", "time": 87, "note": 65, "velocity": 106, "channel": 0}, {"type": "note_on", "time": 9, "note": 66, "velocity": 104, "channel": 0}, {"type": "note_off", "time": 91, "note": 66, "velocity": 104, "channel": 0}, {"type": "note_on", "time": 10, "note": 65, "velocity": 100, "channel": 0}, {"type": "note_off", "time": 56, "note": 65, "velocity": 100, "channel": 0}, {"type": "note_on", "time": 18, "note": 63, "velocity": 95, "channel": 0}, {"type": "note_off", "time": 88, "note": 63, "velocity": 95, "channel": 0}, {"type": "note_on", "time": 87, "note": 62, "velocity": 95, "channel": 0}, {"type": "note_off", "time": 112, "note": 62, "velocity": 95, "channel": 0}, {"type": "note_on", "time": 23, "note": 60, "velocity": 90, "channel": 0}, {"type": "note_off", "time": 82, "note": 60, "velocity": 90, "channel": 0}, {"type": "note_on", "time": 14, "note": 55, "velocity": 124, "channel": 0}, {"type": "note_off", "time": 92, "note": 55, "velocity": 124, "channel": 0}, {"type": "note_on", "time": 29, "note": 60, "velocity": 92, "channel": 0}, {"type": "note_off", "time": 82, "note": 60, "velocity": 92, "channel": 0}, {"type": "note_on", "time": 1249, "note": 60, "velocity": 94, "channel": 0}, {"type": "note_off", "time": 48, "note": 60, "velocity": 94, "channel": 0}, {"type": "note_on", "time": 6, "note": 62, "velocity": 95, "channel": 0}, {"type": "note_off", "time": 69, "note": 62, "velocity": 95, "channel": 0}, {"type": "note_on", "time": 11, "note": 59, "velocity": 102, "channel": 0}, {"type": "note_off", "time": 47, "note": 59, "velocity": 102, "channel": 0}, {"type": "note_on", "time": 23, "note": 60, "velocity": 92, "channel": 0}, {"type": "note_off", "time": 34, "note": 60, "velocity": 92, "channel": 0}, {"type": "note_on", "time": 5, "note": 62, "velocity": 93, "channel": 0}, {"type": "note_off", "time": 33, "note": 62, "velocity": 93, "channel": 0}, {"type": "note_on", "time": 5, "note": 63, "velocity": 99, "channel": 0}, {"type": "note_off", "time": 69, "note": 63, "velocity": 99, "channel": 0}, {"type": "note_on", "time": 166, "note": 67, "velocity": 91, "channel": 0}, {"type": "note_off", "time": 245, "note": 67, "velocity": 91, "channel": 0}, {"type": "note_on", "time": 34, "note": 72, "velocity": 93, "channel": 0}, {"type": "note_off", "time": 132, "note": 72, "velocity": 93, "channel": 0}, {"type": "note_on", "time": 55, "note": 57, "velocity": 87, "channel": 0}, {"type": "note_off", "time": 204, "note": 57, "velocity": 87, "channel": 0}, {"type": "note_on", "time": 113, "note": 65, "velocity": 96, "channel": 0}, {"type": "note_off", "time": 240, "note": 65, "velocity": 96, "channel": 0}, {"type": "note_on", "time": 21, "note": 71, "velocity": 94, "channel": 0}, {"type": "note_off", "time": 107, "note": 71, "velocity": 94, "channel": 0}, {"type": "note_on", "time": 112, "note": 55, "velocity": 96, "channel": 0}, {"type": "note_off", "time": 94, "note": 55, "velocity": 96, "channel": 0}, {"type": "note_on", "time": 179, "note": 63, "velocity": 93, "channel": 0}, {"type": "note_off", "time": 239, "note": 63, "velocity": 93, "channel": 0}, {"type": "note_on", "time": 50, "note": 72, "velocity": 95, "channel": 0}, {"type": "note_off", "time": 122, "note": 72, "velocity": 95, "channel": 0}, {"type": "note_on", "time": 30, "note": 62, "velocity": 83, "channel": 0}, {"type": "note_off", "time": 97, "note": 62, "velocity": 83, "channel": 0}, {"type": "note_on", "time": 15, "note": 65, "velocity": 106, "channel": 0}, {"type": "note_off", "time": 70, "note": 65, "velocity": 106, "channel": 0}, {"type": "note_on", "time": 10, "note": 69, "velocity": 104, "channel": 0}, {"type": "note_off", "time": 85, "note": 69, "velocity": 104, "channel": 0}, {"type": "note_on", "time": 40, "note": 72, "velocity": 97, "channel": 0}, {"type": "note_off", "time": 57, "note": 72, "velocity": 97, "channel": 0}, {"type": "note_on", "time": 10, "note": 71, "velocity": 92, "channel": 0}, {"type": "note_off", "time": 85, "note": 71, "velocity": 92, "channel": 0}, {"type": "note_on", "time": 16, "note": 74, "velocity": 97, "channel": 0}, {"type": "note_off", "time": 54, "note": 74, "velocity": 97, "channel": 0}, {"type": "note_on", "time": 33, "note": 67, "velocity": 86, "channel": 0}, {"type": "note_off", "time": 85, "note": 67, "velocity": 86, "channel": 0}, {"type": "note_on", "time": 793, "note": 60, "velocity": 102, "channel": 0}, {"type": "note_off", "time": 70, "note": 60, "velocity": 102, "channel": 0}, {"type": "note_on", "time": 11, "note": 61, "velocity": 86, "channel": 0}, {"type": "note_off", "time": 114, "note": 61, "velocity": 86, "channel": 0}, {"type": "note_on", "time": 5, "note": 65, "velocity": 105, "channel": 0}, {"type": "note_off", "time": 64, "note": 65, "velocity": 105, "channel": 0}, {"type": "note_on", "time": 2, "note": 67, "velocity": 102, "channel": 0}, {"type": "note_off", "time": 93, "note": 67, "velocity": 102, "channel": 0}, {"type": "note_on", "time": 16, "note": 70, "velocity": 92, "channel": 0}, {"type": "note_off", "time": 69, "note": 70, "velocity": 92, "channel": 0}, {"type": "note_on", "time": 9, "note": 72, "velocity": 93, "channel": 0}, {"type": "note_off", "time": 118, "note": 72, "velocity": 93, "channel": 0}, {"type": "note_on", "time": 23, "note": 73, "velocity": 91, "channel": 0}, {"type": "note_off", "time": 85, "note": 73, "velocity": 91, "channel": 0}, {"type": "note_on", "time": 71, "note": 72, "velocity": 87, "channel": 0}, {"type": "note_off", "time": 260, "note": 72, "velocity": 87, "channel": 0}, {"type": "note_on", "time": 19, "note": 70, "velocity": 96, "channel": 0}, {"type": "note_off", "time": 122, "note": 70, "velocity": 96, "channel": 0}, {"type": "note_on", "time": 15, "note": 72, "velocity": 85, "channel": 0}, {"type": "note_off", "time": 132, "note": 72, "velocity": 85, "channel": 0}, {"type": "note_on", "time": 43, "note": 70, "velocity": 90, "channel": 0}, {"type": "note_off", "time": 228, "note": 70, "velocity": 90, "channel": 0}, {"type": "note_on", "time": 10, "note": 68, "velocity": 104, "channel": 0}, {"type": "note_off", "time": 96, "note": 68, "velocity": 104, "channel": 0}, {"type": "note_on", "time": 9, "note": 70, "velocity": 95, "channel": 0}, {"type": "note_off", "time": 84, "note": 70, "velocity": 95, "channel": 0}, {"type": "note_on", "time": 28, "note": 67, "velocity": 91, "channel": 0}, {"type": "note_off", "time": 68, "note": 67, "velocity": 91, "channel": 0}, {"type": "note_on", "time": 10, "note": 68, "velocity": 104, "channel": 0}, {"type": "note_off", "time": 78, "note": 68, "velocity": 104, "channel": 0}, {"type": "note_on", "time": 14, "note": 65, "velocity": 96, "channel": 0}, {"type": "note_off", "time": 85, "note": 65, "velocity": 96, "channel": 0}, {"type": "note_on", "time": 25, "note": 67, "velocity": 103, "channel": 0}, {"type": "note_off", "time": 66, "note": 67, "velocity": 103, "channel": 0}, {"type": "note_on", "time": 9, "note": 68, "velocity": 102, "channel": 0}, {"type": "note_off", "time": 103, "note": 68, "velocity": 102, "channel": 0}, {"type": "note_on", "time": 102, "note": 66, "velocity": 96, "channel": 0}, {"type": "note_off", "time": 157, "note": 66, "velocity": 96, "channel": 0}, {"type": "note_on", "time": 52, "note": 63, "velocity": 88, "channel": 0}, {"type": "note_off", "time": 73, "note": 63, "velocity": 88, "channel": 0}, {"type": "note_on", "time": 49, "note": 60, "velocity": 9, "channel": 0}, {"type": "note_off", "time": 197, "note": 60, "velocity": 9, "channel": 0}, {"type": "note_on", "time": 717, "note": 70, "velocity": 105, "channel": 0}, {"type": "note_off", "time": 73, "note": 70, "velocity": 105, "channel": 0}, {"type": "note_on", "time": 14, "note": 72, "velocity": 100, "channel": 0}, {"type": "note_off", "time": 100, "note": 72, "velocity": 100, "channel": 0}, {"type": "note_on", "time": 6, "note": 75, "velocity": 98, "channel": 0}, {"type": "note_off", "time": 76, "note": 75, "velocity": 98, "channel": 0}, {"type": "note_on", "time": 11, "note": 74, "velocity": 98, "channel": 0}, {"type": "note_off", "time": 88, "note": 74, "velocity": 98, "channel": 0}, {"type": "note_on", "time": 11, "note": 70, "velocity": 98, "channel": 0}, {"type": "note_off", "time": 66, "note": 70, "velocity": 98, "channel": 0}, {"type": "note_on", "time": 32, "note": 72, "velocity": 100, "channel": 0}, {"type": "note_off", "time": 105, "note": 72, "velocity": 100, "channel": 0}, {"type": "note_on", "time": 5, "note": 68, "velocity": 85, "channel": 0}, {"type": "note_off", "time": 39, "note": 68, "velocity": 85, "channel": 0}, {"type": "note_on", "time": 17, "note": 70, "velocity": 84, "channel": 0}, {"type": "note_off", "time": 456, "note": 70, "velocity": 84, "channel": 0}, {"type": "note_on", "time": 60, "note": 67, "velocity": 108, "channel": 0}, {"type": "note_off", "time": 74, "note": 67, "velocity": 108, "channel": 0}, {"type": "note_on", "time": 9, "note": 69, "velocity": 104, "channel": 0}, {"type": "note_off", "time": 82, "note": 69, "velocity": 104, "channel": 0}, {"type": "note_on", "time": 10, "note": 72, "velocity": 98, "channel": 0}, {"type": "note_off", "time": 70, "note": 72, "velocity": 98, "channel": 0}, {"type": "note_on", "time": 9, "note": 71, "velocity": 93, "channel": 0}, {"type": "note_off", "time": 91, "note": 71, "velocity": 93, "channel": 0}, {"type": "note_on", "time": 16, "note": 67, "velocity": 103, "channel": 0}, {"type": "note_off", "time": 82, "note": 67, "velocity": 103, "channel": 0}, {"type": "note_on", "time": 16, "note": 69, "velocity": 103, "channel": 0}, {"type": "note_off", "time": 78, "note": 69, "velocity": 103, "channel": 0}, {"type": "note_on", "time": 29, "note": 65, "velocity": 98, "channel": 0}, {"type": "note_off", "time": 71, "note": 65, "velocity": 98, "channel": 0}, {"type": "note_on", "time": 14, "note": 67, "velocity": 94, "channel": 0}, {"type": "note_off", "time": 295, "note": 67, "velocity": 94, "channel": 0}, {"type": "note_on", "time": 36, "note": 64, "velocity": 86, "channel": 0}, {"type": "note_off", "time": 34, "note": 64, "velocity": 86, "channel": 0}, {"type": "note_on", "time": 13, "note": 65, "velocity": 103, "channel": 0}, {"type": "note_off", "time": 105, "note": 65, "velocity": 103, "channel": 0}, {"type": "note_on", "time": 6, "note": 66, "velocity": 104, "channel": 0}, {"type": "note_off", "time": 68, "note": 66, "velocity": 104, "channel": 0}, {"type": "note_on", "time": 12, "note": 67, "velocity": 104, "channel": 0}, {"type": "note_off", "time": 80, "note": 67, "velocity": 104, "channel": 0}, {"type": "note_on", "time": 22, "note": 64, "velocity": 97, "channel": 0}, {"type": "note_off", "time": 78, "note": 64, "velocity": 97, "channel": 0}, {"type": "note_on", "time": 12, "note": 62, "velocity": 87, "channel": 0}, {"type": "note_off", "time": 91, "note": 62, "velocity": 87, "channel": 0}, {"type": "note_on", "time": 3, "note": 61, "velocity": 93, "channel": 0}, {"type": "note_off", "time": 39, "note": 61, "velocity": 93, "channel": 0}, {"type": "note_on", "time": 6, "note": 60, "velocity": 98, "channel": 0}, {"type": "note_off", "time": 33, "note": 60, "velocity": 98, "channel": 0}, {"type": "note_on", "time": 6, "note": 59, "velocity": 103, "channel": 0}, {"type": "note_off", "time": 80, "note": 59, "velocity": 103, "channel": 0}, {"type": "note_on", "time": 20, "note": 60, "velocity": 97, "channel": 0}, {"type": "note_off", "time": 34, "note": 60, "velocity": 97, "channel": 0}, {"type": "note_on", "time": 5, "note": 61, "velocity": 96, "channel": 0}, {"type": "note_off", "time": 35, "note": 61, "velocity": 96, "channel": 0}, {"type": "note_on", "time": 9, "note": 60, "velocity": 101, "channel": 0}, {"type": "note_off", "time": 37, "note": 60, "velocity": 101, "channel": 0}, {"type": "note_on", "time": 6, "note": 62, "velocity": 95, "channel": 0}, {"type": "note_off", "time": 55, "note": 62, "velocity": 95, "channel": 0}, {"type": "note_on", "time": 6, "note": 60, "velocity": 92, "channel": 0}, {"type": "note_off", "time": 49, "note": 60, "velocity": 92, "channel": 0}, {"type": "note_on", "time": 29, "note": 59, "velocity": 103, "channel": 0}, {"type": "note_off", "time": 108, "note": 59, "velocity": 103, "channel": 0}, {"type": "note_on", "time": 13, "note": 62, "velocity": 91, "channel": 0}, {"type": "note_off", "time": 32, "note": 62, "velocity": 91, "channel": 0}, {"type": "note_on", "time": 15, "note": 60, "velocity": 104, "channel": 0}, {"type": "note_off", "time": 45, "note": 60, "velocity": 104, "channel": 0}, {"type": "note_on", "time": 22, "note": 62, "velocity": 93, "channel": 0}, {"type": "note_off", "time": 650, "note": 62, "velocity": 93, "channel": 0}, {"type": "note_on", "time": 4, "note": 67, "velocity": 84, "channel": 0}, {"type": "note_off", "time": 443, "note": 67, "velocity": 84, "channel": 0}, {"type": "note_on", "time": 550, "note": 62, "velocity": 108, "channel": 0}, {"type": "note_off", "time": 54, "note": 62, "velocity": 108, "channel": 0}, {"type": "note_on", "time": 106, "note": 62, "velocity": 100, "channel": 0}, {"type": "note_off", "time": 60, "note": 62, "velocity": 100, "channel": 0}, {"type": "note_on", "time": 65, "note": 62, "velocity": 97, "channel": 0}, {"type": "note_off", "time": 73, "note": 62, "velocity": 97, "channel": 0}, {"type": "note_on", "time": 34, "note": 59, "velocity": 101, "channel": 0}, {"type": "note_off", "time": 87, "note": 59, "velocity": 101, "channel": 0}, {"type": "note_on", "time": 8, "note": 60, "velocity": 92, "channel": 0}, {"type": "note_off", "time": 82, "note": 60, "velocity": 92, "channel": 0}, {"type": "note_on", "time": 28, "note": 70, "velocity": 92, "channel": 0}, {"type": "note_off", "time": 208, "note": 70, "velocity": 92, "channel": 0}, {"type": "note_on", "time": 19, "note": 68, "velocity": 89, "channel": 0}, {"type": "note_off", "time": 42, "note": 68, "velocity": 89, "channel": 0}, {"type": "note_on", "time": 28, "note": 63, "velocity": 93, "channel": 0}, {"type": "note_off", "time": 56, "note": 63, "velocity": 93, "channel": 0}, {"type": "note_on", "time": 7, "note": 59, "velocity": 100, "channel": 0}, {"type": "note_off", "time": 75, "note": 59, "velocity": 100, "channel": 0}, {"type": "note_on", "time": 7, "note": 58, "velocity": 106, "channel": 0}, {"type": "note_off", "time": 75, "note": 58, "velocity": 106, "channel": 0}, {"type": "note_on", "time": 5, "note": 56, "velocity": 106, "channel": 0}, {"type": "note_off", "time": 59, "note": 56, "velocity": 106, "channel": 0}, {"type": "note_on", "time": 97, "note": 56, "velocity": 115, "channel": 0}, {"type": "note_off", "time": 64, "note": 56, "velocity": 115, "channel": 0}, {"type": "note_on", "time": 33, "note": 62, "velocity": 97, "channel": 0}, {"type": "note_off", "time": 117, "note": 62, "velocity": 97, "channel": 0}, {"type": "note_on", "time": 20, "note": 59, "velocity": 99, "channel": 0}, {"type": "note_off", "time": 61, "note": 59, "velocity": 99, "channel": 0}, {"type": "note_on", "time": 118, "note": 62, "velocity": 95, "channel": 0}, {"type": "note_off", "time": 68, "note": 62, "velocity": 95, "channel": 0}, {"type": "note_on", "time": 12, "note": 63, "velocity": 92, "channel": 0}, {"type": "note_off", "time": 88, "note": 63, "velocity": 92, "channel": 0}, {"type": "note_on", "time": 21, "note": 65, "velocity": 104, "channel": 0}, {"type": "note_off", "time": 69, "note": 65, "velocity": 104, "channel": 0}, {"type": "note_on", "time": 16, "note": 67, "velocity": 103, "channel": 0}, {"type": "note_off", "time": 97, "note": 67, "velocity": 103, "channel": 0}, {"type": "note_on", "time": 5, "note": 68, "velocity": 105, "channel": 0}, {"type": "note_off", "time": 64, "note": 68, "velocity": 105, "channel": 0}, {"type": "note_on", "time": 18, "note": 70, "velocity": 96, "channel": 0}, {"type": "note_off", "time": 122, "note": 70, "velocity": 96, "channel": 0}, {"type": "note_on", "time": 32, "note": 72, "velocity": 94, "channel": 0}, {"type": "note_off", "time": 95, "note": 72, "velocity": 94, "channel": 0}, {"type": "note_on", "time": 51, "note": 72, "velocity": 82, "channel": 0}, {"type": "note_off", "time": 337, "note": 72, "velocity": 82, "channel": 0}, {"type": "note_on", "time": 1077, "note": 77, "velocity": 107, "channel": 0}, {"type": "note_off", "time": 114, "note": 77, "velocity": 107, "channel": 0}, {"type": "note_on", "time": 3, "note": 76, "velocity": 103, "channel": 0}, {"type": "note_off", "time": 67, "note": 76, "velocity": 103, "channel": 0}, {"type": "note_on", "time": 13, "note": 72, "velocity": 97, "channel": 0}, {"type": "note_off", "time": 76, "note": 72, "velocity": 97, "channel": 0}, {"type": "note_on", "time": 32, "note": 75, "velocity": 95, "channel": 0}, {"type": "note_off", "time": 70, "note": 75, "velocity": 95, "channel": 0}, {"type": "note_on", "time": 10, "note": 74, "velocity": 96, "channel": 0}, {"type": "note_off", "time": 80, "note": 74, "velocity": 96, "channel": 0}, {"type": "note_on", "time": 54, "note": 70, "velocity": 90, "channel": 0}, {"type": "note_off", "time": 236, "note": 70, "velocity": 90, "channel": 0}, {"type": "note_on", "time": 17, "note": 71, "velocity": 98, "channel": 0}, {"type": "note_off", "time": 111, "note": 71, "velocity": 98, "channel": 0}, {"type": "note_on", "time": 73, "note": 72, "velocity": 100, "channel": 0}, {"type": "note_off", "time": 99, "note": 72, "velocity": 100, "channel": 0}, {"type": "note_on", "time": 100, "note": 65, "velocity": 94, "channel": 0}, {"type": "note_off", "time": 99, "note": 65, "velocity": 94, "channel": 0}, {"type": "note_on", "time": 84, "note": 68, "velocity": 106, "channel": 0}, {"type": "note_off", "time": 142, "note": 68, "velocity": 106, "channel": 0}, {"type": "note_on", "time": 9, "note": 69, "velocity": 96, "channel": 0}, {"type": "note_off", "time": 112, "note": 69, "velocity": 96, "channel": 0}, {"type": "note_on", "time": 44, "note": 70, "velocity": 97, "channel": 0}, {"type": "note_off", "time": 113, "note": 70, "velocity": 97, "channel": 0}, {"type": "note_on", "time": 80, "note": 58, "velocity": 89, "channel": 0}, {"type": "note_off", "time": 179, "note": 58, "velocity": 89, "channel": 0}, {"type": "note_on", "time": 21, "note": 58, "velocity": 103, "channel": 0}, {"type": "note_off", "time": 54, "note": 58, "velocity": 103, "channel": 0}, {"type": "note_on", "time": 7, "note": 66, "velocity": 107, "channel": 0}, {"type": "note_off", "time": 120, "note": 66, "velocity": 107, "channel": 0}, {"type": "note_on", "time": 64, "note": 67, "velocity": 106, "channel": 0}, {"type": "note_off", "time": 100, "note": 67, "velocity": 106, "channel": 0}, {"type": "note_on", "time": 69, "note": 68, "velocity": 101, "channel": 0}, {"type": "note_off", "time": 117, "note": 68, "velocity": 101, "channel": 0}, {"type": "note_on", "time": 71, "note": 60, "velocity": 87, "channel": 0}, {"type": "note_off", "time": 95, "note": 60, "velocity": 87, "channel": 0}, {"type": "note_on", "time": 124, "note": 65, "velocity": 104, "channel": 0}, {"type": "note_off", "time": 126, "note": 65, "velocity": 104, "channel": 0}, {"type": "note_on", "time": 30, "note": 66, "velocity": 103, "channel": 0}, {"type": "note_off", "time": 98, "note": 66, "velocity": 103, "channel": 0}, {"type": "note_on", "time": 40, "note": 67, "velocity": 106, "channel": 0}, {"type": "note_off", "time": 76, "note": 67, "velocity": 106, "channel": 0}, {"type": "note_on", "time": 109, "note": 60, "velocity": 98, "channel": 0}, {"type": "note_off", "time": 93, "note": 60, "velocity": 98, "channel": 0}, {"type": "note_on", "time": 74, "note": 64, "velocity": 88, "channel": 0}, {"type": "note_off", "time": 531, "note": 64, "velocity": 88, "channel": 0}, {"type": "note_on", "time": 446, "note": 62, "velocity": 103, "channel": 0}, {"type": "note_off", "time": 56, "note": 62, "velocity": 103, "channel": 0}, {"type": "note_on", "time": 13, "note": 59, "velocity": 104, "channel": 0}, {"type": "note_off", "time": 106, "note": 59, "velocity": 104, "channel": 0}, {"type": "note_on", "time": 5, "note": 60, "velocity": 98, "channel": 0}, {"type": "note_off", "time": 58, "note": 60, "velocity": 98, "channel": 0}, {"type": "note_on", "time": 37, "note": 64, "velocity": 98, "channel": 0}, {"type": "note_off", "time": 97, "note": 64, "velocity": 98, "channel": 0}, {"type": "note_on", "time": 13, "note": 67, "velocity": 108, "channel": 0}, {"type": "note_off", "time": 87, "note": 67, "velocity": 108, "channel": 0}, {"type": "note_on", "time": 82, "note": 69, "velocity": 88, "channel": 0}, {"type": "note_off", "time": 638, "note": 69, "velocity": 88, "channel": 0}, {"type": "note_on", "time": 306, "note": 70, "velocity": 104, "channel": 0}, {"type": "note_off", "time": 69, "note": 70, "velocity": 104, "channel": 0}, {"type": "note_on", "time": 7, "note": 72, "velocity": 92, "channel": 0}, {"type": "note_off", "time": 126, "note": 72, "velocity": 92, "channel": 0}, {"type": "note_on", "time": 10, "note": 73, "velocity": 93, "channel": 0}, {"type": "note_off", "time": 57, "note": 73, "velocity": 93, "channel": 0}, {"type": "note_on", "time": 56, "note": 72, "velocity": 91, "channel": 0}, {"type": "note_off", "time": 87, "note": 72, "velocity": 91, "channel": 0}, {"type": "note_on", "time": 50, "note": 70, "velocity": 94, "channel": 0}, {"type": "note_off", "time": 90, "note": 70, "velocity": 94, "channel": 0}, {"type": "note_on", "time": 29, "note": 67, "velocity": 88, "channel": 0}, {"type": "note_off", "time": 591, "note": 67, "velocity": 88, "channel": 0}, {"type": "note_on", "time": 258, "note": 60, "velocity": 82, "channel": 0}, {"type": "note_off", "time": 57, "note": 60, "velocity": 82, "channel": 0}, {"type": "note_on", "time": 44, "note": 65, "velocity": 110, "channel": 0}, {"type": "note_off", "time": 85, "note": 65, "velocity": 110, "channel": 0}, {"type": "note_on", "time": 8, "note": 67, "velocity": 104, "channel": 0}, {"type": "note_off", "time": 91, "note": 67, "velocity": 104, "channel": 0}, {"type": "note_on", "time": 12, "note": 68, "velocity": 107, "channel": 0}, {"type": "note_off", "time": 79, "note": 68, "velocity": 107, "channel": 0}, {"type": "note_on", "time": 22, "note": 70, "velocity": 95, "channel": 0}, {"type": "note_off", "time": 68, "note": 70, "velocity": 95, "channel": 0}, {"type": "note_on", "time": 75, "note": 71, "velocity": 94, "channel": 0}, {"type": "note_off", "time": 103, "note": 71, "velocity": 94, "channel": 0}, {"type": "note_on", "time": 60, "note": 68, "velocity": 93, "channel": 0}, {"type": "note_off", "time": 599, "note": 68, "velocity": 93, "channel": 0}, {"type": "note_on", "time": 330, "note": 56, "velocity": 103, "channel": 0}, {"type": "note_off", "time": 86, "note": 56, "velocity": 103, "channel": 0}, {"type": "note_on", "time": 17, "note": 59, "velocity": 102, "channel": 0}, {"type": "note_off", "time": 83, "note": 59, "velocity": 102, "channel": 0}, {"type": "note_on", "time": 13, "note": 62, "velocity": 96, "channel": 0}, {"type": "note_off", "time": 73, "note": 62, "velocity": 96, "channel": 0}, {"type": "note_on", "time": 11, "note": 64, "velocity": 102, "channel": 0}, {"type": "note_off", "time": 93, "note": 64, "velocity": 102, "channel": 0}, {"type": "note_on", "time": 20, "note": 68, "velocity": 108, "channel": 0}, {"type": "note_off", "time": 76, "note": 68, "velocity": 108, "channel": 0}, {"type": "note_on", "time": 83, "note": 70, "velocity": 94, "channel": 0}, {"type": "note_off", "time": 247, "note": 70, "velocity": 94, "channel": 0}, {"type": "note_on", "time": 29, "note": 67, "velocity": 107, "channel": 0}, {"type": "note_off", "time": 92, "note": 67, "velocity": 107, "channel": 0}, {"type": "note_on", "time": 20, "note": 68, "velocity": 107, "channel": 0}, {"type": "note_off", "time": 71, "note": 68, "velocity": 107, "channel": 0}, {"type": "note_on", "time": 28, "note": 65, "velocity": 101, "channel": 0}, {"type": "note_off", "time": 95, "note": 65, "velocity": 101, "channel": 0}, {"type": "note_on", "time": 19, "note": 66, "velocity": 104, "channel": 0}, {"type": "note_off", "time": 88, "note": 66, "velocity": 104, "channel": 0}, {"type": "note_on", "time": 80, "note": 67, "velocity": 98, "channel": 0}, {"type": "note_off", "time": 231, "note": 67, "velocity": 98, "channel": 0}, {"type": "note_on", "time": 29, "note": 64, "velocity": 99, "channel": 0}, {"type": "note_off", "time": 84, "note": 64, "velocity": 99, "channel": 0}, {"type": "note_on", "time": 44, "note": 60, "velocity": 104, "channel": 0}, {"type": "note_off", "time": 43, "note": 60, "velocity": 104, "channel": 0}, {"type": "note_on", "time": 13, "note": 59, "velocity": 101, "channel": 0}, {"type": "note_off", "time": 106, "note": 59, "velocity": 101, "channel": 0}, {"type": "note_on", "time": 47, "note": 65, "velocity": 103, "channel": 0}, {"type": "note_off", "time": 82, "note": 65, "velocity": 103, "channel": 0}, {"type": "note_on", "time": 68, "note": 67, "velocity": 89, "channel": 0}, {"type": "note_off", "time": 733, "note": 67, "velocity": 89, "channel": 0}, {"type": "note_on", "time": 10, "note": 65, "velocity": 91, "channel": 0}, {"type": "note_off", "time": 37, "note": 65, "velocity": 91, "channel": 0}, {"type": "note_on", "time": 12, "note": 63, "velocity": 97, "channel": 0}, {"type": "note_off", "time": 51, "note": 63, "velocity": 97, "channel": 0}, {"type": "note_on", "time": 17, "note": 62, "velocity": 92, "channel": 0}, {"type": "note_off", "time": 91, "note": 62, "velocity": 92, "channel": 0}, {"type": "note_on", "time": 14, "note": 62, "velocity": 89, "channel": 0}, {"type": "note_off", "time": 402, "note": 62, "velocity": 89, "channel": 0}, {"type": "note_on", "time": 368, "note": 60, "velocity": 102, "channel": 0}, {"type": "note_off", "time": 61, "note": 60, "velocity": 102, "channel": 0}, {"type": "note_on", "time": 5, "note": 62, "velocity": 103, "channel": 0}, {"type": "note_off", "time": 106, "note": 62, "velocity": 103, "channel": 0}, {"type": "note_on", "time": 8, "note": 59, "velocity": 103, "channel": 0}, {"type": "note_off", "time": 71, "note": 59, "velocity": 103, "channel": 0}, {"type": "note_on", "time": 2, "note": 60, "velocity": 96, "channel": 0}, {"type": "note_off", "time": 112, "note": 60, "velocity": 96, "channel": 0}, {"type": "note_on", "time": 20, "note": 62, "velocity": 95, "channel": 0}, {"type": "note_off", "time": 64, "note": 62, "velocity": 95, "channel": 0}, {"type": "note_on", "time": 18, "note": 63, "velocity": 98, "channel": 0}, {"type": "note_off", "time": 68, "note": 63, "velocity": 98, "channel": 0}, {"type": "note_on", "time": 37, "note": 65, "velocity": 109, "channel": 0}, {"type": "note_off", "time": 96, "note": 65, "velocity": 109, "channel": 0}, {"type": "note_on", "time": 65, "note": 57, "velocity": 92, "channel": 0}, {"type": "note_off", "time": 72, "note": 57, "velocity": 92, "channel": 0}, {"type": "note_on", "time": 20, "note": 60, "velocity": 104, "channel": 0}, {"type": "note_off", "time": 100, "note": 60, "velocity": 104, "channel": 0}, {"type": "note_on", "time": 7, "note": 59, "velocity": 102, "channel": 0}, {"type": "note_off", "time": 145, "note": 59, "velocity": 102, "channel": 0}, {"type": "note_on", "time": 433, "note": 67, "velocity": 99, "channel": 0}, {"type": "note_off", "time": 261, "note": 67, "velocity": 99, "channel": 0}, {"type": "note_on", "time": 20, "note": 65, "velocity": 103, "channel": 0}, {"type": "note_off", "time": 91, "note": 65, "velocity": 103, "channel": 0}, {"type": "note_on", "time": 22, "note": 63, "velocity": 96, "channel": 0}, {"type": "note_off", "time": 69, "note": 63, "velocity": 96, "channel": 0}, {"type": "note_on", "time": 8, "note": 60, "velocity": 98, "channel": 0}, {"type": "note_off", "time": 96, "note": 60, "velocity": 98, "channel": 0}, {"type": "note_on", "time": 7, "note": 56, "velocity": 103, "channel": 0}, {"type": "note_off", "time": 57, "note": 56, "velocity": 103, "channel": 0}, {"type": "note_on", "time": 2, "note": 57, "velocity": 95, "channel": 0}, {"type": "note_off", "time": 99, "note": 57, "velocity": 95, "channel": 0}, {"type": "note_on", "time": 49, "note": 60, "velocity": 98, "channel": 0}, {"type": "note_off", "time": 65, "note": 60, "velocity": 98, "channel": 0}, {"type": "note_on", "time": 13, "note": 63, "velocity": 98, "channel": 0}, {"type": "note_off", "time": 74, "note": 63, "velocity": 98, "channel": 0}, {"type": "note_on", "time": 7, "note": 66, "velocity": 109, "channel": 0}, {"type": "note_off", "time": 86, "note": 66, "velocity": 109, "channel": 0}, {"type": "note_on", "time": 12, "note": 65, "velocity": 100, "channel": 0}, {"type": "note_off", "time": 91, "note": 65, "velocity": 100, "channel": 0}, {"type": "note_on", "time": 22, "note": 63, "velocity": 97, "channel": 0}, {"type": "note_off", "time": 49, "note": 63, "velocity": 97, "channel": 0}, {"type": "note_on", "time": 47, "note": 60, "velocity": 95, "channel": 0}, {"type": "note_off", "time": 81, "note": 60, "velocity": 95, "channel": 0}, {"type": "note_on", "time": 10, "note": 62, "velocity": 97, "channel": 0}, {"type": "note_off", "time": 77, "note": 62, "velocity": 97, "channel": 0}, {"type": "note_on", "time": 20, "note": 63, "velocity": 100, "channel": 0}, {"type": "note_off", "time": 82, "note": 63, "velocity": 100, "channel": 0}, {"type": "note_on", "time": 21, "note": 60, "velocity": 90, "channel": 0}, {"type": "note_off", "time": 73, "note": 60, "velocity": 90, "channel": 0}, {"type": "note_on", "time": 2, "note": 62, "velocity": 100, "channel": 0}, {"type": "note_off", "time": 82, "note": 62, "velocity": 100, "channel": 0}, {"type": "note_on", "time": 29, "note": 59, "velocity": 107, "channel": 0}, {"type": "note_off", "time": 71, "note": 59, "velocity": 107, "channel": 0}, {"type": "note_on", "time": 5, "note": 60, "velocity": 101, "channel": 0}, {"type": "note_off", "time": 75, "note": 60, "velocity": 101, "channel": 0}, {"type": "note_on", "time": 36, "note": 62, "velocity": 93, "channel": 0}, {"type": "note_off", "time": 55, "note": 62, "velocity": 93, "channel": 0}, {"type": "note_on", "time": 11, "note": 63, "velocity": 96, "channel": 0}, {"type": "note_off", "time": 95, "note": 63, "velocity": 96, "channel": 0}, {"type": "note_on", "time": 11, "note": 65, "velocity": 106, "channel": 0}, {"type": "note_off", "time": 86, "note": 65, "velocity": 106, "channel": 0}, {"type": "note_on", "time": 9, "note": 66, "velocity": 104, "channel": 0}, {"type": "note_off", "time": 79, "note": 66, "velocity": 104, "channel": 0}, {"type": "note_on", "time": 16, "note": 65, "velocity": 95, "channel": 0}, {"type": "note_off", "time": 85, "note": 65, "velocity": 95, "channel": 0}, {"type": "note_on", "time": 36, "note": 63, "velocity": 91, "channel": 0}, {"type": "note_off", "time": 52, "note": 63, "velocity": 91, "channel": 0}, {"type": "note_on", "time": 104, "note": 65, "velocity": 104, "channel": 0}, {"type": "note_off", "time": 80, "note": 65, "velocity": 104, "channel": 0}, {"type": "note_on", "time": 12, "note": 63, "velocity": 92, "channel": 0}, {"type": "note_off", "time": 70, "note": 63, "velocity": 92, "channel": 0}, {"type": "note_on", "time": 18, "note": 60, "velocity": 99, "channel": 0}, {"type": "note_off", "time": 37, "note": 60, "velocity": 99, "channel": 0}, {"type": "note_on", "time": 10, "note": 58, "velocity": 94, "channel": 0}, {"type": "note_off", "time": 34, "note": 58, "velocity": 94, "channel": 0}, {"type": "note_on", "time": 11, "note": 60, "velocity": 84, "channel": 0}, {"type": "note_off", "time": 711, "note": 60, "velocity": 84, "channel": 0}, {"type": "end_of_track", "time": 0}]]}