{"ticks_per_beat": 192, "tracks": [[{"type": "track_name", "name": "Melody", "time": 0}, {"type": "set_tempo", "tempo": 191082, "time": 0}, {"type": "key_signature", "key": "F", "time": 0}, {"type": "time_signature", "numerator": 4, "denominator": 4, "clocks_per_click": 24, "notated_32nd_notes_per_beat": 8, "time": 0}, {"type": "note_on", "time": 1618, "note": 55, "velocity": 107, "channel": 0}, {"type": "note_off", "time": 94, "note": 55, "velocity": 107, "channel": 0}, {"type": "note_on", "time": 6, "note": 52, "velocity": 107, "channel": 0}, {"type": "note_off", "time": 94, "note": 52, "velocity": 107, "channel": 0}, {"type": "note_on", "time": 15, "note": 53, "velocity": 104, "channel": 0}, {"type": "note_off", "time": 98, "note": 53, "velocity": 104, "channel": 0}, {"type": "note_on", "time": 8, "note": 55, "velocity": 105, "channel": 0}, {"type": "note_off", "time": 75, "note": 55, "velocity": 105, "channel": 0}, {"type": "note_on", "time": 8, "note": 57, "velocity": 109, "channel": 0}, {"type": "note_off", "time": 80, "note": 57, "velocity": 109, "channel": 0}, {"type": "note_on", "time": 27, "note": 60, "velocity": 115, "channel": 0}, {"type": "note_off", "time": 71, "note": 60, "velocity": 115, "channel": 0}, {"type": "note_on", "time": 5, "note": 64, "velocity": 122, "channel": 0}, {"type": "note_off", "time": 87, "note": 64, "velocity": 122, "channel": 0}, {"type": "note_on", "time": 12, "note": 62, "velocity": 115, "channel": 0}, {"type": "note_off", "time": 68, "note": 62, "velocity": 115, "channel": 0}, {"type": "note_on", "time": 12, "note": 60, "velocity": 113, "channel": 0}, {"type": "note_off", "time": 104, "note": 60, "velocity": 113, "channel": 0}, {"type": "note_on", "time": 19, "note": 57, "velocity": 107, "channel": 0}, {"type": "note_off", "time": 71, "note": 57, "velocity": 107, "channel": 0}, {"type": "note_on", "time": 10, "note": 55, "velocity": 102, "channel": 0}, {"type": "note_off", "time": 51, "note": 55, "velocity": 102, "channel": 0}, {"type": "note_on", "time": 11, "note": 53, "velocity": 100, "channel": 0}, {"type": "note_off", "time": 80, "note": 53, "velocity": 100, "channel": 0}, {"type": "note_on", "time": 9, "note": 52, "velocity": 111, "channel": 0}, {"type": "note_off", "time": 110, "note": 52, "velocity": 111, "channel": 0}, {"type": "note_on", "time": 14, "note": 48, "velocity": 96, "channel": 0}, {"type": "note_off", "time": 62, "note": 48, "velocity": 96, "channel": 0}, {"type": "note_on", "time": 15, "note": 50, "velocity": 104, "channel": 0}, {"type": "note_off", "time": 103, "note": 50, "velocity": 104, "channel": 0}, {"type": "note_on", "time": 43, "note": 55, "velocity": 105, "channel": 0}, {"type": "note_off", "time": 88, "note": 55, "velocity": 105, "channel": 0}, {"type": "note_on", "time": 11, "note": 52, "velocity": 111, "channel": 0}, {"type": "note_off", "time": 94, "note": 52, "velocity": 111, "channel": 0}, {"type": "note_on", "time": 22, "note": 53, "velocity": 101, "channel": 0}, {"type": "note_off", "time": 72, "note": 53, "velocity": 101, "channel": 0}, {"type": "note_on", "time": 20, "note": 57, "velocity": 106, "channel": 0}, {"type": "note_off", "time": 75, "note": 57, "velocity": 106, "channel": 0}, {"type": "note_on", "time": 16, "note": 58, "velocity": 108, "channel": 0}, {"type": "note_off", "time": 107, "note": 58, "velocity": 108, "channel": 0}, {"type": "note_on", "time": 19, "note": 56, "velocity": 113, "channel": 0}, {"type": "note_off", "time": 106, "note": 56, "velocity": 113, "channel": 0}, {"type": "note_on", "time": 7, "note": 55, "velocity": 98, "channel": 0}, {"type": "note_off", "time": 50, "note": 55, "velocity": 98, "channel": 0}, {"type": "note_on", "time": 12, "note": 53, "velocity": 105, "channel": 0}, {"type": "note_off", "time": 64, "note": 53, "velocity": 105, "channel": 0}, {"type": "note_on", "time": 18, "note": 52, "velocity": 122, "channel": 0}, {"type": "note_off", "time": 69, "note": 52, "velocity": 122, "channel": 0}, {"type": "note_on", "time": 14, "note": 50, "velocity": 118, "channel": 0}, {"type": "note_off", "time": 74, "note": 50, "velocity": 118, "channel": 0}, {"type": "note_on", "time": 33, "note": 49, "velocity": 113, "channel": 0}, {"type": "note_off", "time": 144, "note": 49, "velocity": 113, "channel": 0}, {"type": "note_on", "time": 38, "note": 52, "velocity": 125, "channel": 0}, {"type": "note_off", "time": 87, "note": 52, "velocity": 125, "channel": 0}, {"type": "note_on", "time": 9, "note": 49, "velocity": 114, "channel": 0}, {"type": "note_off", "time": 69, "note": 49, "velocity": 114, "channel": 0}, {"type": "note_on", "time": 12, "note": 50, "velocity": 114, "channel": 0}, {"type": "note_off", "time": 133, "note": 50, "velocity": 114, "channel": 0}, {"type": "note_on", "time": 21, "note": 52, "velocity": 121, "channel": 0}, {"type": "note_off", "time": 60, "note": 52, "velocity": 121, "channel": 0}, {"type": "note_on", "time": 30, "note": 53, "velocity": 113, "channel": 0}, {"type": "note_off", "time": 98, "note": 53, "velocity": 113, "channel": 0}, {"type": "note_on", "time": 13, "note": 55, "velocity": 111, "channel": 0}, {"type": "note_off", "time": 60, "note": 55, "velocity": 111, "channel": 0}, {"type": "note_on", "time": 8, "note": 57, "velocity": 112, "channel": 0}, {"type": "note_off", "time": 90, "note": 57, "velocity": 112, "channel": 0}, {"type": "note_on", "time": 13, "note": 58, "velocity": 109, "channel": 0}, {"type": "note_off", "time": 72, "note": 58, "velocity": 109, "channel": 0}, {"type": "note_on", "time": 11, "note": 64, "velocity": 109, "channel": 0}, {"type": "note_off", "time": 80, "note": 64, "velocity": 109, "channel": 0}, {"type": "note_on", "time": 32, "note": 62, "velocity": 118, "channel": 0}, {"type": "note_off", "time": 59, "note": 62, "velocity": 118, "channel": 0}, {"type": "note_on", "time": 12, "note": 64, "velocity": 123, "channel": 0}, {"type": "note_off", "time": 68, "note": 64, "velocity": 123, "channel": 0}, {"type": "note_on", "time": 21, "note": 62, "velocity": 120, "channel": 0}, {"type": "note_off", "time": 82, "note": 62, "velocity": 120, "channel": 0}, {"type": "note_on", "time": 12, "note": 59, "velocity": 116, "channel": 0}, {"type": "note_off", "time": 76, "note": 59, "velocity": 116, "channel": 0}, {"type": "note_on", "time": 8, "note": 57, "velocity": 110, "channel": 0}, {"type": "note_off", "time": 69, "note": 57, "velocity": 110, "channel": 0}, {"type": "note_on", "time": 48, "note": 59, "velocity": 113, "channel": 0}, {"type": "note_off", "time": 74, "note": 59, "velocity": 113, "channel": 0}, {"type": "note_on", "time": 15, "note": 57, "velocity": 112, "channel": 0}, {"type": "note_off", "time": 86, "note": 57, "velocity": 112, "channel": 0}, {"type": "note_on", "time": 404, "note": 52, "velocity": 118, "channel": 0}, {"type": "note_off", "time": 94, "note": 52, "velocity": 118, "channel": 0}, {"type": "note_on", "time": 12, "note": 53, "velocity": 112, "channel": 0}, {"type": "note_off", "time": 88, "note": 53, "velocity": 112, "channel": 0}, {"type": "note_on", "time": 8, "note": 55, "velocity": 114, "channel": 0}, {"type": "note_off", "time": 80, "note": 55, "velocity": 114, "channel": 0}, {"type": "note_on", "time": 5, "note": 57, "velocity": 116, "channel": 0}, {"type": "note_off", "time": 76, "note": 57, "velocity": 116, "channel": 0}, {"type": "note_on", "time": 15, "note": 58, "velocity": 116, "channel": 0}, {"type": "note_off", "time": 80, "note": 58, "velocity": 116, "channel": 0}, {"type": "note_on", "time": 19, "note": 57, "velocity": 114, "channel": 0}, {"type": "note_off", "time": 82, "note": 57, "velocity": 114, "channel": 0}, {"type": "note_on", "time": 15, "note": 56, "velocity": 115, "channel": 0}, {"type": "note_off", "time": 105, "note": 56, "velocity": 115, "channel": 0}, {"type": "note_on", "time": 11, "note": 55, "velocity": 103, "channel": 0}, {"type": "note_off", "time": 64, "note": 55, "velocity": 103, "channel": 0}, {"type": "note_on", "time": 16, "note": 53, "velocity": 108, "channel": 0}, {"type": "note_off", "time": 58, "note": 53, "velocity": 108, "channel": 0}, {"type": "note_on", "time": 17, "note": 52, "velocity": 111, "channel": 0}, {"type": "note_off", "time": 75, "note": 52, "velocity": 111, "channel": 0}, {"type": "note_on", "time": 24, "note": 50, "velocity": 109, "channel": 0}, {"type": "note_off", "time": 125, "note": 50, "velocity": 109, "channel": 0}, {"type": "note_on", "time": 25, "note": 47, "velocity": 103, "channel": 0}, {"type": "note_off", "time": 54, "note": 47, "velocity": 103, "channel": 0}, {"type": "note_on", "time": 10, "note": 48, "velocity": 116, "channel": 0}, {"type": "note_off", "time": 83, "note": 48, "velocity": 116, "channel": 0}, {"type": "note_on", "time": 69, "note": 47, "velocity": 102, "channel": 0}, {"type": "note_off", "time": 42, "note": 47, "velocity": 102, "channel": 0}, {"type": "note_on", "time": 8, "note": 48, "velocity": 105, "channel": 0}, {"type": "note_off", "time": 92, "note": 48, "velocity": 105, "channel": 0}, {"type": "note_on", "time": 29, "note": 50, "velocity": 109, "channel": 0}, {"type": "note_off", "time": 65, "note": 50, "velocity": 109, "channel": 0}, {"type": "note_on", "time": 13, "note": 51, "velocity": 118, "channel": 0}, {"type": "note_off", "time": 101, "note": 51, "velocity": 118, "channel": 0}, {"type": "note_on", "time": 5, "note": 53, "velocity": 111, "channel": 0}, {"type": "note_off", "time": 93, "note": 53, "velocity": 111, "channel": 0}, {"type": "note_on", "time": 8, "note": 55, "velocity": 109, "channel": 0}, {"type": "note_off", "time": 66, "note": 55, "velocity": 109, "channel": 0}, {"type": "note_on", "time": 9, "note": 57, "velocity": 116, "channel": 0}, {"type": "note_off", "time": 52, "note": 57, "velocity": 116, "channel": 0}, {"type": "note_on", "time": 8, "note": 62, "velocity": 123, "channel": 0}, {"type": "note_off", "time": 125, "note": 62, "velocity": 123, "channel": 0}, {"type": "note_on", "time": 12, "note": 59, "velocity": 116, "channel": 0}, {"type": "note_off", "time": 115, "note": 59, "velocity": 116, "channel": 0}, {"type": "note_on", "time": 10, "note": 60, "velocity": 116, "channel": 0}, {"type": "note_off", "time": 69, "note": 60, "velocity": 116, "channel": 0}, {"type": "note_on", "time": 7, "note": 62, "velocity": 124, "channel": 0}, {"type": "note_off", "time": 67, "note": 62, "velocity": 124, "channel": 0}, {"type": "note_on", "time": 10, "note": 63, "velocity": 123, "channel": 0}, {"type": "note_off", "time": 96, "note": 63, "velocity": 123, "channel": 0}, {"type": "note_on", "time": 10, "note": 65, "velocity": 118, "channel": 0}, {"type": "note_off", "time": 92, "note": 65, "velocity": 118, "channel": 0}, {"type": "note_on", "time": 299, "note": 49, "velocity": 113, "channel": 0}, {"type": "note_off", "time": 83, "note": 49, "velocity": 113, "channel": 0}, {"type": "note_on", "time": 51, "note": 53, "velocity": 107, "channel": 0}, {"type": "note_off", "time": 60, "note": 53, "velocity": 107, "channel": 0}, {"type": "note_on", "time": 6, "note": 55, "velocity": 101, "channel": 0}, {"type": "note_off", "time": 55, "note": 55, "velocity": 101, "channel": 0}, {"type": "note_on", "time": 8, "note": 60, "velocity": 119, "channel": 0}, {"type": "note_off", "time": 92, "note": 60, "velocity": 119, "channel": 0}, {"type": "note_on", "time": 15, "note": 58, "velocity": 111, "channel": 0}, {"type": "note_off", "time": 51, "note": 58, "velocity": 111, "channel": 0}, {"type": "note_on", "time": 11, "note": 57, "velocity": 113, "channel": 0}, {"type": "note_off", "time": 89, "note": 57, "velocity": 113, "channel": 0}, {"type": "note_on", "time": 45, "note": 53, "velocity": 109, "channel": 0}, {"type": "note_off", "time": 81, "note": 53, "velocity": 109, "channel": 0}, {"type": "note_on", "time": 31, "note": 60, "velocity": 118, "channel": 0}, {"type": "note_off", "time": 131, "note": 60, "velocity": 118, "channel": 0}, {"type": "note_on", "time": 9, "note": 56, "velocity": 119, "channel": 0}, {"type": "note_off", "time": 73, "note": 56, "velocity": 119, "channel": 0}, {"type": "note_on", "time": 31, "note": 53, "velocity": 110, "channel": 0}, {"type": "note_off", "time": 67, "note": 53, "velocity": 110, "channel": 0}, {"type": "note_on", "time": 14, "note": 49, "velocity": 108, "channel": 0}, {"type": "note_off", "time": 46, "note": 49, "velocity": 108, "channel": 0}, {"type": "note_on", "time": 3, "note": 48, "velocity": 106, "channel": 0}, {"type": "note_off", "time": 135, "note": 48, "velocity": 106, "channel": 0}, {"type": "note_on", "time": 4, "note": 46, "velocity": 109, "channel": 0}, {"type": "note_off", "time": 91, "note": 46, "velocity": 109, "channel": 0}, {"type": "note_on", "time": 534, "note": 44, "velocity": 113, "channel": 0}, {"type": "note_off", "time": 91, "note": 44, "velocity": 113, "channel": 0}, {"type": "note_on", "time": 20, "note": 48, "velocity": 108, "channel": 0}, {"type": "note_off", "time": 59, "note": 48, "velocity": 108, "channel": 0}, {"type": "note_on", "time": 40, "note": 51, "velocity": 116, "channel": 0}, {"type": "note_off", "time": 61, "note": 51, "velocity": 116, "channel": 0}, {"type": "note_on", "time": 48, "note": 55, "velocity": 114, "channel": 0}, {"type": "note_off", "time": 66, "note": 55, "velocity": 114, "channel": 0}, {"type": "note_on", "time": 21, "note": 56, "velocity": 121, "channel": 0}, {"type": "note_off", "time": 91, "note": 56, "velocity": 121, "channel": 0}, {"type": "note_on", "time": 12, "note": 58, "velocity": 112, "channel": 0}, {"type": "note_off", "time": 82, "note": 58, "velocity": 112, "channel": 0}, {"type": "note_on", "time": 8, "note": 59, "velocity": 117, "channel": 0}, {"type": "note_off", "time": 83, "note": 59, "velocity": 117, "channel": 0}, {"type": "note_on", "time": 11, "note": 61, "velocity": 121, "channel": 0}, {"type": "note_off", "time": 64, "note": 61, "velocity": 121, "channel": 0}, {"type": "note_on", "time": 7, "note": 60, "velocity": 119, "channel": 0}, {"type": "note_off", "time": 49, "note": 60, "velocity": 119, "channel": 0}, {"type": "note_on", "time": 1, "note": 58, "velocity": 115, "channel": 0}, {"type": "note_off", "time": 48, "note": 58, "velocity": 115, "channel": 0}, {"type": "note_on", "time": 6, "note": 56, "velocity": 116, "channel": 0}, {"type": "note_off", "time": 117, "note": 56, "velocity": 116, "channel": 0}, {"type": "note_on", "time": 539, "note": 55, "velocity": 109, "channel": 0}, {"type": "note_off", "time": 139, "note": 55, "velocity": 109, "channel": 0}, {"type": "note_on", "time": 22, "note": 57, "velocity": 109, "channel": 0}, {"type": "note_off", "time": 63, "note": 57, "velocity": 109, "channel": 0}, {"type": "note_on", "time": 17, "note": 58, "velocity": 101, "channel": 0}, {"type": "note_off", "time": 48, "note": 58, "velocity": 101, "channel": 0}, {"type": "note_on", "time": 24, "note": 60, "velocity": 113, "channel": 0}, {"type": "note_off", "time": 110, "note": 60, "velocity": 113, "channel": 0}, {"type": "note_on", "time": 12, "note": 61, "velocity": 112, "channel": 0}, {"type": "note_off", "time": 123, "note": 61, "velocity": 112, "channel": 0}, {"type": "note_on", "time": 23, "note": 62, "velocity": 122, "channel": 0}, {"type": "note_off", "time": 65, "note": 62, "velocity": 122, "channel": 0}, {"type": "note_on", "time": 5, "note": 58, "velocity": 110, "channel": 0}, {"type": "note_off", "time": 97, "note": 58, "velocity": 110, "channel": 0}, {"type": "note_on", "time": 8, "note": 59, "velocity": 116, "channel": 0}, {"type": "note_off", "time": 86, "note": 59, "velocity": 116, "channel": 0}, {"type": "note_on", "time": 6, "note": 60, "velocity": 118, "channel": 0}, {"type": "note_off", "time": 111, "note": 60, "velocity": 118, "channel": 0}, {"type": "note_on", "time": 357, "note": 60, "velocity": 117, "channel": 0}, {"type": "note_off", "time": 93, "note": 60, "velocity": 117, "channel": 0}, {"type": "note_on", "time": 16, "note": 57, "velocity": 114, "channel": 0}, {"type": "note_off", "time": 73, "note": 57, "velocity": 114, "channel": 0}, {"type": "note_on", "time": 10, "note": 55, "velocity": 113, "channel": 0}, {"type": "note_off", "time": 68, "note": 55, "velocity": 113, "channel": 0}, {"type": "note_on", "time": 25, "note": 53, "velocity": 111, "channel": 0}, {"type": "note_off", "time": 72, "note": 53, "velocity": 111, "channel": 0}, {"type": "note_on", "time": 0, "note": 52, "velocity": 110, "channel": 0}, {"type": "note_off", "time": 113, "note": 52, "velocity": 110, "channel": 0}, {"type": "note_on", "time": 53, "note": 48, "velocity": 98, "channel": 0}, {"type": "note_off", "time": 48, "note": 48, "velocity": 98, "channel": 0}, {"type": "note_on", "time": 10, "note": 50, "velocity": 111, "channel": 0}, {"type": "note_off", "time": 86, "note": 50, "velocity": 111, "channel": 0}, {"type": "note_on", "time": 14, "note": 52, "velocity": 113, "channel": 0}, {"type": "note_off", "time": 75, "note": 52, "velocity": 113, "channel": 0}, {"type": "note_on", "time": 27, "note": 55, "velocity": 114, "channel": 0}, {"type": "note_off", "time": 81, "note": 55, "velocity": 114, "channel": 0}, {"type": "note_on", "time": 11, "note": 53, "velocity": 110, "channel": 0}, {"type": "note_off", "time": 103, "note": 53, "velocity": 110, "channel": 0}, {"type": "note_on", "time": 12, "note": 52, "velocity": 119, "channel": 0}, {"type": "note_off", "time": 74, "note": 52, "velocity": 119, "channel": 0}, {"type": "note_on", "time": 1, "note": 50, "velocity": 113, "channel": 0}, {"type": "note_off", "time": 90, "note": 50, "velocity": 113, "channel": 0}, {"type": "note_on", "time": 19, "note": 58, "velocity": 113, "channel": 0}, {"type": "note_off", "time": 75, "note": 58, "velocity": 113, "channel": 0}, {"type": "note_on", "time": 13, "note": 55, "velocity": 106, "channel": 0}, {"type": "note_off", "time": 78, "note": 55, "velocity": 106, "channel": 0}, {"type": "note_on", "time": 19, "note": 57, "velocity": 111, "channel": 0}, {"type": "note_off", "time": 118, "note": 57, "velocity": 111, "channel": 0}, {"type": "note_on", "time": 315, "note": 51, "velocity": 115, "channel": 0}, {"type": "note_off", "time": 81, "note": 51, "velocity": 115, "channel": 0}, {"type": "note_on", "time": 3, "note": 53, "velocity": 110, "channel": 0}, {"type": "note_off", "time": 57, "note": 53, "velocity": 110, "channel": 0}, {"type": "note_on", "time": 8, "note": 55, "velocity": 115, "channel": 0}, {"type": "note_off", "time": 33, "note": 55, "velocity": 115, "channel": 0}, {"type": "note_on", "time": 2, "note": 57, "velocity": 116, "channel": 0}, {"type": "note_off", "time": 54, "note": 57, "velocity": 116, "channel": 0}, {"type": "note_on", "time": 48, "note": 57, "velocity": 121, "channel": 0}, {"type": "note_off", "time": 54, "note": 57, "velocity": 121, "channel": 0}, {"type": "note_on", "time": 12, "note": 58, "velocity": 116, "channel": 0}, {"type": "note_off", "time": 41, "note": 58, "velocity": 116, "channel": 0}, {"type": "note_on", "time": 79, "note": 57, "velocity": 116, "channel": 0}, {"type": "note_off", "time": 44, "note": 57, "velocity": 116, "channel": 0}, {"type": "note_on", "time": 4, "note": 58, "velocity": 116, "channel": 0}, {"type": "note_off", "time": 39, "note": 58, "velocity": 116, "channel": 0}, {"type": "note_on", "time": 69, "note": 58, "velocity": 112, "channel": 0}, {"type": "note_off", "time": 86, "note": 58, "velocity": 112, "channel": 0}, {"type": "note_on", "time": 13, "note": 57, "velocity": 114, "channel": 0}, {"type": "note_off", "time": 105, "note": 57, "velocity": 114, "channel": 0}, {"type": "note_on", "time": 35, "note": 51, "velocity": 115, "channel": 0}, {"type": "note_off", "time": 83, "note": 51, "velocity": 115, "channel": 0}, {"type": "note_on", "time": 285, "note": 49, "velocity": 116, "channel": 0}, {"type": "note_off", "time": 45, "note": 49, "velocity": 116, "channel": 0}, {"type": "note_on", "time": 8, "note": 50, "velocity": 113, "channel": 0}, {"type": "note_off", "time": 89, "note": 50, "velocity": 113, "channel": 0}, {"type": "note_on", "time": 37, "note": 52, "velocity": 119, "channel": 0}, {"type": "note_off", "time": 57, "note": 52, "velocity": 119, "channel": 0}, {"type": "note_on", "time": 13, "note": 53, "velocity": 118, "channel": 0}, {"type": "note_off", "time": 91, "note": 53, "velocity": 118, "channel": 0}, {"type": "note_on", "time": 25, "note": 55, "velocity": 112, "channel": 0}, {"type": "note_off", "time": 74, "note": 55, "velocity": 112, "channel": 0}, {"type": "note_on", "time": 8, "note": 57, "velocity": 113, "channel": 0}, {"type": "note_off", "time": 95, "note": 57, "velocity": 113, "channel": 0}, {"type": "note_on", "time": 9, "note": 58, "velocity": 109, "channel": 0}, {"type": "note_off", "time": 55, "note": 58, "velocity": 109, "channel": 0}, {"type": "note_on", "time": 11, "note": 51, "velocity": 116, "channel": 0}, {"type": "note_off", "time": 66, "note": 51, "velocity": 116, "channel": 0}, {"type": "note_on", "time": 5, "note": 52, "velocity": 110, "channel": 0}, {"type": "note_off", "time": 167, "note": 52, "velocity": 110, "channel": 0}, {"type": "note_on", "time": 20, "note": 62, "velocity": 120, "channel": 0}, {"type": "note_off", "time": 101, "note": 62, "velocity": 120, "channel": 0}, {"type": "note_on", "time": 10, "note": 64, "velocity": 124, "channel": 0}, {"type": "note_off", "time": 120, "note": 64, "velocity": 124, "channel": 0}, {"type": "note_on", "time": 9, "note": 62, "velocity": 114, "channel": 0}, {"type": "note_off", "time": 83, "note": 62, "velocity": 114, "channel": 0}, {"type": "note_on", "time": 546, "note": 57, "velocity": 119, "channel": 0}, {"type": "note_off", "time": 66, "note": 57, "velocity": 119, "channel": 0}, {"type": "note_on", "time": 2, "note": 58, "velocity": 115, "channel": 0}, {"type": "note_off", "time": 104, "note": 58, "velocity": 115, "channel": 0}, {"type": "note_on", "time": 34, "note": 52, "velocity": 111, "channel": 0}, {"type": "note_off", "time": 103, "note": 52, "velocity": 111, "channel": 0}, {"type": "note_on", "time": 48, "note": 56, "velocity": 114, "channel": 0}, {"type": "note_off", "time": 54, "note": 56, "velocity": 114, "channel": 0}, {"type": "note_on", "time": 10, "note": 57, "velocity": 110, "channel": 0}, {"type": "note_off", "time": 99, "note": 57, "velocity": 110, "channel": 0}, {"type": "note_on", "time": 295, "note": 56, "velocity": 113, "channel": 0}, {"type": "note_off", "time": 92, "note": 56, "velocity": 113, "channel": 0}, {"type": "note_on", "time": 5, "note": 53, "velocity": 109, "channel": 0}, {"type": "note_off", "time": 71, "note": 53, "velocity": 109, "channel": 0}, {"type": "note_on", "time": 36, "note": 49, "velocity": 110, "channel": 0}, {"type": "note_off", "time": 90, "note": 49, "velocity": 110, "channel": 0}, {"type": "note_on", "time": 12, "note": 45, "velocity": 113, "channel": 0}, {"type": "note_off", "time": 79, "note": 45, "velocity": 113, "channel": 0}, {"type": "note_on", "time": 2, "note": 50, "velocity": 110, "channel": 0}, {"type": "note_off", "time": 135, "note": 50, "velocity": 110, "channel": 0}, {"type": "note_on", "time": 212, "note": 50, "velocity": 119, "channel": 0}, {"type": "note_off", "time": 116, "note": 50, "velocity": 119, "channel": 0}, {"type": "note_on", "time": 8, "note": 47, "velocity": 113, "channel": 0}, {"type": "note_off", "time": 48, "note": 47, "velocity": 113, "channel": 0}, {"type": "note_on", "time": 5, "note": 48, "velocity": 115, "channel": 0}, {"type": "note_off", "time": 91, "note": 48, "velocity": 115, "channel": 0}, {"type": "note_on", "time": 48, "note": 49, "velocity": 110, "channel": 0}, {"type": "note_off", "time": 95, "note": 49, "velocity": 110, "channel": 0}, {"type": "note_on", "time": 25, "note": 51, "velocity": 113, "channel": 0}, {"type": "note_off", "time": 123, "note": 51, "velocity": 113, "channel": 0}, {"type": "note_on", "time": 269, "note": 49, "velocity": 118, "channel": 0}, {"type": "note_off", "time": 60, "note": 49, "velocity": 118, "channel": 0}, {"type": "note_on", "time": 9, "note": 51, "velocity": 117, "channel": 0}, {"type": "note_off", "time": 72, "note": 51, "velocity": 117, "channel": 0}, {"type": "note_on", "time": 37, "note": 55, "velocity": 113, "channel": 0}, {"type": "note_off", "time": 108, "note": 55, "velocity": 113, "channel": 0}, {"type": "note_on", "time": 38, "note": 60, "velocity": 116, "channel": 0}, {"type": "note_off", "time": 87, "note": 60, "velocity": 116, "channel": 0}, {"type": "note_on", "time": 12, "note": 62, "velocity": 122, "channel": 0}, {"type": "note_off", "time": 103, "note": 62, "velocity": 122, "channel": 0}, {"type": "note_on", "time": 3, "note": 65, "velocity": 122, "channel": 0}, {"type": "note_off", "time": 109, "note": 65, "velocity": 122, "channel": 0}, {"type": "note_on", "time": 4, "note": 60, "velocity": 117, "channel": 0}, {"type": "note_off", "time": 101, "note": 60, "velocity": 117, "channel": 0}, {"type": "note_on", "time": 303, "note": 60, "velocity": 112, "channel": 0}, {"type": "note_off", "time": 75, "note": 60, "velocity": 112, "channel": 0}, {"type": "note_on", "time": 3, "note": 61, "velocity": 118, "channel": 0}, {"type": "note_off", "time": 90, "note": 61, "velocity": 118, "channel": 0}, {"type": "note_on", "time": 26, "note": 51, "velocity": 106, "channel": 0}, {"type": "note_off", "time": 69, "note": 51, "velocity": 106, "channel": 0}, {"type": "note_on", "time": 26, "note": 53, "velocity": 103, "channel": 0}, {"type": "note_off", "time": 61, "note": 53, "velocity": 103, "channel": 0}, {"type": "note_on", "time": 2, "note": 55, "velocity": 105, "channel": 0}, {"type": "note_off", "time": 57, "note": 55, "velocity": 105, "channel": 0}, {"type": "note_on", "time": 47, "note": 60, "velocity": 113, "channel": 0}, {"type": "note_off", "time": 100, "note": 60, "velocity": 113, "channel": 0}, {"type": "note_on", "time": 12, "note": 58, "velocity": 109, "channel": 0}, {"type": "note_off", "time": 73, "note": 58, "velocity": 109, "channel": 0}, {"type": "note_on", "time": 389, "note": 64, "velocity": 121, "channel": 0}, {"type": "note_off", "time": 92, "note": 64, "velocity": 121, "channel": 0}, {"type": "note_on", "time": 4, "note": 62, "velocity": 113, "channel": 0}, {"type": "note_off", "time": 75, "note": 62, "velocity": 113, "channel": 0}, {"type": "note_on", "time": 12, "note": 60, "velocity": 114, "channel": 0}, {"type": "note_off", "time": 105, "note": 60, "velocity": 114, "channel": 0}, {"type": "note_on", "time": 18, "note": 57, "velocity": 107, "channel": 0}, {"type": "note_off", "time": 75, "note": 57, "velocity": 107, "channel": 0}, {"type": "note_on", "time": 14, "note": 55, "velocity": 110, "channel": 0}, {"type": "note_off", "time": 88, "note": 55, "velocity": 110, "channel": 0}, {"type": "note_on", "time": 9, "note": 53, "velocity": 102, "channel": 0}, {"type": "note_off", "time": 79, "note": 53, "velocity": 102, "channel": 0}, {"type": "note_on", "time": 11, "note": 52, "velocity": 112, "channel": 0}, {"type": "note_off", "time": 96, "note": 52, "velocity": 112, "channel": 0}, {"type": "note_on", "time": 90, "note": 52, "velocity": 112, "channel": 0}, {"type": "note_off", "time": 116, "note": 52, "velocity": 112, "channel": 0}, {"type": "note_on", "time": 25, "note": 48, "velocity": 113, "channel": 0}, {"type": "note_off", "time": 54, "note": 48, "velocity": 113, "channel": 0}, {"type": "note_on", "time": 24, "note": 50, "velocity": 106, "channel": 0}, {"type": "note_off", "time": 140, "note": 50, "velocity": 106, "channel": 0}, {"type": "note_on", "time": 367, "note": 50, "velocity": 113, "channel": 0}, {"type": "note_off", "time": 146, "note": 50, "velocity": 113, "channel": 0}, {"type": "note_on", "time": 9, "note": 54, "velocity": 102, "channel": 0}, {"type": "note_off", "time": 52, "note": 54, "velocity": 102, "channel": 0}, {"type": "note_on", "time": 5, "note": 57, "velocity": 102, "channel": 0}, {"type": "note_off", "time": 47, "note": 57, "velocity": 102, "channel": 0}, {"type": "note_on", "time": 6, "note": 60, "velocity": 118, "channel": 0}, {"type": "note_off", "time": 75, "note": 60, "velocity": 118, "channel": 0}, {"type": "note_on", "time": 21, "note": 57, "velocity": 111, "channel": 0}, {"type": "note_off", "time": 86, "note": 57, "velocity": 111, "channel": 0}, {"type": "note_on", "time": 9, "note": 58, "velocity": 111, "channel": 0}, {"type": "note_off", "time": 91, "note": 58, "velocity": 111, "channel": 0}, {"type": "note_on", "time": 17, "note": 60, "velocity": 115, "channel": 0}, {"type": "note_off", "time": 71, "note": 60, "velocity": 115, "channel": 0}, {"type": "note_on", "time": 10, "note": 61, "velocity": 119, "channel": 0}, {"type": "note_off", "time": 131, "note": 61, "velocity": 119, "channel": 0}, {"type": "note_on", "time": 15, "note": 63, "velocity": 121, "channel": 0}, {"type": "note_off", "time": 124, "note": 63, "velocity": 121, "channel": 0}, {"type": "note_on", "time": 66, "note": 60, "velocity": 113, "channel": 0}, {"type": "note_off", "time": 99, "note": 60, "velocity": 113, "channel": 0}, {"type": "note_on", "time": 65, "note": 58, "velocity": 106, "channel": 0}, {"type": "note_off", "time": 69, "note": 58, "velocity": 106, "channel": 0}, {"type": "note_on", "time": 64, "note": 53, "velocity": 104, "channel": 0}, {"type": "note_off", "time": 75, "note": 53, "velocity": 104, "channel": 0}, {"type": "note_on", "time": 14, "note": 55, "velocity": 107, "channel": 0}, {"type": "note_off", "time": 52, "note": 55, "velocity": 107, "channel": 0}, {"type": "note_on", "time": 7, "note": 57, "velocity": 108, "channel": 0}, {"type": "note_off", "time": 161, "note": 57, "velocity": 108, "channel": 0}, {"type": "note_on", "time": 387, "note": 57, "velocity": 113, "channel": 0}, {"type": "note_off", "time": 102, "note": 57, "velocity": 113, "channel": 0}, {"type": "note_on", "time": 10, "note": 60, "velocity": 119, "channel": 0}, {"type": "note_off", "time": 83, "note": 60, "velocity": 119, "channel": 0}, {"type": "note_on", "time": 14, "note": 64, "velocity": 121, "channel": 0}, {"type": "note_off", "time": 96, "note": 64, "velocity": 121, "channel": 0}, {"type": "note_on", "time": 13, "note": 62, "velocity": 118, "channel": 0}, {"type": "note_off", "time": 62, "note": 62, "velocity": 118, "channel": 0}, {"type": "note_on", "time": 8, "note": 60, "velocity": 117, "channel": 0}, {"type": "note_off", "time": 113, "note": 60, "velocity": 117, "channel": 0}, {"type": "note_on", "time": 9, "note": 57, "velocity": 111, "channel": 0}, {"type": "note_off", "time": 103, "note": 57, "velocity": 111, "channel": 0}, {"type": "note_on", "time": 23, "note": 55, "velocity": 110, "channel": 0}, {"type": "note_off", "time": 67, "note": 55, "velocity": 110, "channel": 0}, {"type": "note_on", "time": 8, "note": 53, "velocity": 108, "channel": 0}, {"type": "note_off", "time": 76, "note": 53, "velocity": 108, "channel": 0}, {"type": "note_on", "time": 10, "note": 52, "velocity": 110, "channel": 0}, {"type": "note_off", "time": 118, "note": 52, "velocity": 110, "channel": 0}, {"type": "note_on", "time": 15, "note": 50, "velocity": 96, "channel": 0}, {"type": "note_off", "time": 52, "note": 50, "velocity": 96, "channel": 0}, {"type": "note_on", "time": 14, "note": 53, "velocity": 107, "channel": 0}, {"type": "note_off", "time": 101, "note": 53, "velocity": 107, "channel": 0}, {"type": "note_on", "time": 8, "note": 52, "velocity": 114, "channel": 0}, {"type": "note_off", "time": 67, "note": 52, "velocity": 114, "channel": 0}, {"type": "note_on", "time": 12, "note": 53, "velocity": 108, "channel": 0}, {"type": "note_off", "time": 101, "note": 53, "velocity": 108, "channel": 0}, {"type": "note_on", "time": 12, "note": 55, "velocity": 106, "channel": 0}, {"type": "note_off", "time": 79, "note": 55, "velocity": 106, "channel": 0}, {"type": "note_on", "time": 9, "note": 56, "velocity": 112, "channel": 0}, {"type": "note_off", "time": 98, "note": 56, "velocity": 112, "channel": 0}, {"type": "note_on", "time": 171, "note": 50, "velocity": 97, "channel": 0}, {"type": "note_off", "time": 85, "note": 50, "velocity": 97, "channel": 0}, {"type": "note_on", "time": 9, "note": 55, "velocity": 111, "channel": 0}, {"type": "note_off", "time": 82, "note": 55, "velocity": 111, "channel": 0}, {"type": "note_on", "time": 16, "note": 53, "velocity": 106, "channel": 0}, {"type": "note_off", "time": 73, "note": 53, "velocity": 106, "channel": 0}, {"type": "note_on", "time": 12, "note": 51, "velocity": 114, "channel": 0}, {"type": "note_off", "time": 102, "note": 51, "velocity": 114, "channel": 0}, {"type": "note_on", "time": 27, "note": 48, "velocity": 105, "channel": 0}, {"type": "note_off", "time": 52, "note": 48, "velocity": 105, "channel": 0}, {"type": "note_on", "time": 9, "note": 50, "velocity": 112, "channel": 0}, {"type": "note_off", "time": 95, "note": 50, "velocity": 112, "channel": 0}, {"type": "note_on", "time": 25, "note": 58, "velocity": 104, "channel": 0}, {"type": "note_off", "time": 72, "note": 58, "velocity": 104, "channel": 0}, {"type": "note_on", "time": 427, "note": 55, "velocity": 112, "channel": 0}, {"type": "note_off", "time": 91, "note": 55, "velocity": 112, "channel": 0}, {"type": "note_on", "time": 10, "note": 58, "velocity": 112, "channel": 0}, {"type": "note_off", "time": 67, "note": 58, "velocity": 112, "channel": 0}, {"type": "note_on", "time": 10, "note": 62, "velocity": 116, "channel": 0}, {"type": "note_off", "time": 88, "note": 62, "velocity": 116, "channel": 0}, {"type": "note_on", "time": 29, "note": 60, "velocity": 114, "channel": 0}, {"type": "note_off", "time": 81, "note": 60, "velocity": 114, "channel": 0}, {"type": "note_on", "time": 10, "note": 58, "velocity": 113, "channel": 0}, {"type": "note_off", "time": 87, "note": 58, "velocity": 113, "channel": 0}, {"type": "note_on", "time": 14, "note": 55, "velocity": 110, "channel": 0}, {"type": "note_off", "time": 88, "note": 55, "velocity": 110, "channel": 0}, {"type": "note_on", "time": 16, "note": 53, "velocity": 106, "channel": 0}, {"type": "note_off", "time": 76, "note": 53, "velocity": 106, "channel": 0}, {"type": "note_on", "time": 8, "note": 51, "velocity": 112, "channel": 0}, {"type": "note_off", "time": 75, "note": 51, "velocity": 112, "channel": 0}, {"type": "note_on", "time": 7, "note": 50, "velocity": 108, "channel": 0}, {"type": "note_off", "time": 92, "note": 50, "velocity": 108, "channel": 0}, {"type": "note_on", "time": 25, "note": 46, "velocity": 102, "channel": 0}, {"type": "note_off", "time": 65, "note": 46, "velocity": 102, "channel": 0}, {"type": "note_on", "time": 5, "note": 49, "velocity": 106, "channel": 0}, {"type": "note_off", "time": 95, "note": 49, "velocity": 106, "channel": 0}, {"type": "note_on", "time": 48, "note": 47, "velocity": 99, "channel": 0}, {"type": "note_off", "time": 55, "note": 47, "velocity": 99, "channel": 0}, {"type": "note_on", "time": 16, "note": 48, "velocity": 110, "channel": 0}, {"type": "note_off", "time": 74, "note": 48, "velocity": 110, "channel": 0}, {"type": "note_on", "time": 504, "note": 46, "velocity": 112, "channel": 0}, {"type": "note_off", "time": 130, "note": 46, "velocity": 112, "channel": 0}, {"type": "note_on", "time": 8, "note": 43, "velocity": 101, "channel": 0}, {"type": "note_off", "time": 55, "note": 43, "velocity": 101, "channel": 0}, {"type": "note_on", "time": 14, "note": 44, "velocity": 112, "channel": 0}, {"type": "note_off", "time": 95, "note": 44, "velocity": 112, "channel": 0}, {"type": "note_on", "time": 8, "note": 46, "velocity": 109, "channel": 0}, {"type": "note_off", "time": 108, "note": 46, "velocity": 109, "channel": 0}, {"type": "note_on", "time": 12, "note": 48, "velocity": 104, "channel": 0}, {"type": "note_off", "time": 55, "note": 48, "velocity": 104, "channel": 0}, {"type": "note_on", "time": 11, "note": 51, "velocity": 112, "channel": 0}, {"type": "note_off", "time": 75, "note": 51, "velocity": 112, "channel": 0}, {"type": "note_on", "time": 7, "note": 55, "velocity": 114, "channel": 0}, {"type": "note_off", "time": 91, "note": 55, "velocity": 114, "channel": 0}, {"type": "note_on", "time": 21, "note": 53, "velocity": 111, "channel": 0}, {"type": "note_off", "time": 79, "note": 53, "velocity": 111, "channel": 0}, {"type": "note_on", "time": 10, "note": 56, "velocity": 113, "channel": 0}, {"type": "note_off", "time": 80, "note": 56, "velocity": 113, "channel": 0}, {"type": "note_on", "time": 8, "note": 58, "velocity": 112, "channel": 0}, {"type": "note_off", "time": 81, "note": 58, "velocity": 112, "channel": 0}, {"type": "note_on", "time": 52, "note": 55, "velocity": 112, "channel": 0}, {"type": "note_off", "time": 61, "note": 55, "velocity": 112, "channel": 0}, {"type": "note_on", "time": 9, "note": 53, "velocity": 106, "channel": 0}, {"type": "note_off", "time": 67, "note": 53, "velocity": 106, "channel": 0}, {"type": "note_on", "time": 18, "note": 51, "velocity": 112, "channel": 0}, {"type": "note_off", "time": 55, "note": 51, "velocity": 112, "channel": 0}, {"type": "note_on", "time": 11, "note": 50, "velocity": 114, "channel": 0}, {"type": "note_off", "time": 48, "note": 50, "velocity": 114, "channel": 0}, {"type": "note_on", "time": 11, "note": 46, "velocity": 105, "channel": 0}, {"type": "note_off", "time": 88, "note": 46, "velocity": 105, "channel": 0}, {"type": "note_on", "time": 20, "note": 48, "velocity": 103, "channel": 0}, {"type": "note_off", "time": 78, "note": 48, "velocity": 103, "channel": 0}, {"type": "note_on", "time": 15, "note": 50, "velocity": 106, "channel": 0}, {"type": "note_off", "time": 61, "note": 50, "velocity": 106, "channel": 0}, {"type": "note_on", "time": 11, "note": 53, "velocity": 112, "channel": 0}, {"type": "note_off", "time": 117, "note": 53, "velocity": 112, "channel": 0}, {"type": "note_on", "time": 15, "note": 51, "velocity": 112, "channel": 0}, {"type": "note_off", "time": 68, "note": 51, "velocity": 112, "channel": 0}, {"type": "note_on", "time": 20, "note": 50, "velocity": 109, "channel": 0}, {"type": "note_off", "time": 88, "note": 50, "velocity": 109, "channel": 0}, {"type": "note_on", "time": 18, "note": 51, "velocity": 110, "channel": 0}, {"type": "note_off", "time": 76, "note": 51, "velocity": 110, "channel": 0}, {"type": "note_on", "time": 14, "note": 55, "velocity": 111, "channel": 0}, {"type": "note_off", "time": 77, "note": 55, "velocity": 111, "channel": 0}, {"type": "note_on", "time": 10, "note": 58, "velocity": 109, "channel": 0}, {"type": "note_off", "time": 75, "note": 58, "velocity": 109, "channel": 0}, {"type": "note_on", "time": 8, "note": 60, "velocity": 115, "channel": 0}, {"type": "note_off", "time": 84, "note": 60, "velocity": 115, "channel": 0}, {"type": "note_on", "time": 14, "note": 63, "velocity": 121, "channel": 0}, {"type": "note_off", "time": 102, "note": 63, "velocity": 121, "channel": 0}, {"type": "note_on", "time": 597, "note": 52, "velocity": 115, "channel": 0}, {"type": "note_off", "time": 86, "note": 52, "velocity": 115, "channel": 0}, {"type": "note_on", "time": 9, "note": 49, "velocity": 109, "channel": 0}, {"type": "note_off", "time": 66, "note": 49, "velocity": 109, "channel": 0}, {"type": "note_on", "time": 6, "note": 50, "velocity": 108, "channel": 0}, {"type": "note_off", "time": 83, "note": 50, "velocity": 108, "channel": 0}, {"type": "note_on", "time": 13, "note": 52, "velocity": 112, "channel": 0}, {"type": "note_off", "time": 71, "note": 52, "velocity": 112, "channel": 0}, {"type": "note_on", "time": 23, "note": 57, "velocity": 110, "channel": 0}, {"type": "note_off", "time": 104, "note": 57, "velocity": 110, "channel": 0}, {"type": "note_on", "time": 5, "note": 55, "velocity": 113, "channel": 0}, {"type": "note_off", "time": 53, "note": 55, "velocity": 113, "channel": 0}, {"type": "note_on", "time": 8, "note": 57, "velocity": 112, "channel": 0}, {"type": "note_off", "time": 79, "note": 57, "velocity": 112, "channel": 0}, {"type": "note_on", "time": 30, "note": 59, "velocity": 117, "channel": 0}, {"type": "note_off", "time": 83, "note": 59, "velocity": 117, "channel": 0}, {"type": "note_on", "time": 8, "note": 57, "velocity": 107, "channel": 0}, {"type": "note_off", "time": 63, "note": 57, "velocity": 107, "channel": 0}, {"type": "note_on", "time": 5, "note": 58, "velocity": 101, "channel": 0}, {"type": "note_off", "time": 68, "note": 58, "velocity": 101, "channel": 0}, {"type": "note_on", "time": 40, "note": 59, "velocity": 114, "channel": 0}, {"type": "note_off", "time": 78, "note": 59, "velocity": 114, "channel": 0}, {"type": "note_on", "time": 28, "note": 56, "velocity": 114, "channel": 0}, {"type": "note_off", "time": 85, "note": 56, "velocity": 114, "channel": 0}, {"type": "note_on", "time": 5, "note": 55, "velocity": 110, "channel": 0}, {"type": "note_off", "time": 75, "note": 55, "velocity": 110, "channel": 0}, {"type": "note_on", "time": 18, "note": 53, "velocity": 113, "channel": 0}, {"type": "note_off", "time": 65, "note": 53, "velocity": 113, "channel": 0}, {"type": "note_on", "time": 78, "note": 52, "velocity": 110, "channel": 0}, {"type": "note_off", "time": 125, "note": 52, "velocity": 110, "channel": 0}, {"type": "note_on", "time": 11, "note": 55, "velocity": 109, "channel": 0}, {"type": "note_off", "time": 111, "note": 55, "velocity": 109, "channel": 0}, {"type": "note_on", "time": 12, "note": 62, "velocity": 113, "channel": 0}, {"type": "note_off", "time": 74, "note": 62, "velocity": 113, "channel": 0}, {"type": "note_on", "time": 6, "note": 59, "velocity": 115, "channel": 0}, {"type": "note_off", "time": 101, "note": 59, "velocity": 115, "channel": 0}, {"type": "note_on", "time": 22, "note": 60, "velocity": 116, "channel": 0}, {"type": "note_off", "time": 112, "note": 60, "velocity": 116, "channel": 0}, {"type": "note_on", "time": 330, "note": 59, "velocity": 108, "channel": 0}, {"type": "note_off", "time": 106, "note": 59, "velocity": 108, "channel": 0}, {"type": "note_on", "time": 8, "note": 57, "velocity": 115, "channel": 0}, {"type": "note_off", "time": 88, "note": 57, "velocity": 115, "channel": 0}, {"type": "note_on", "time": 6, "note": 55, "velocity": 115, "channel": 0}, {"type": "note_off", "time": 80, "note": 55, "velocity": 115, "channel": 0}, {"type": "note_on", "time": 17, "note": 52, "velocity": 111, "channel": 0}, {"type": "note_off", "time": 114, "note": 52, "velocity": 111, "channel": 0}, {"type": "note_on", "time": 15, "note": 48, "velocity": 101, "channel": 0}, {"type": "note_off", "time": 78, "note": 48, "velocity": 101, "channel": 0}, {"type": "note_on", "time": 95, "note": 54, "velocity": 114, "channel": 0}, {"type": "note_off", "time": 158, "note": 54, "velocity": 114, "channel": 0}, {"type": "note_on", "time": 14, "note": 57, "velocity": 110, "channel": 0}, {"type": "note_off", "time": 99, "note": 57, "velocity": 110, "channel": 0}, {"type": "note_on", "time": 13, "note": 60, "velocity": 113, "channel": 0}, {"type": "note_off", "time": 78, "note": 60, "velocity": 113, "channel": 0}, {"type": "note_on", "time": 10, "note": 64, "velocity": 121, "channel": 0}, {"type": "note_off", "time": 114, "note": 64, "velocity": 121, "channel": 0}, {"type": "note_on", "time": 307, "note": 63, "velocity": 124, "channel": 0}, {"type": "note_off", "time": 56, "note": 63, "velocity": 124, "channel": 0}, {"type": "note_on", "time": 5, "note": 64, "velocity": 119, "channel": 0}, {"type": "note_off", "time": 64, "note": 64, "velocity": 119, "channel": 0}, {"type": "note_on", "time": 5, "note": 63, "velocity": 122, "channel": 0}, {"type": "note_off", "time": 67, "note": 63, "velocity": 122, "channel": 0}, {"type": "note_on", "time": 9, "note": 60, "velocity": 118, "channel": 0}, {"type": "note_off", "time": 75, "note": 60, "velocity": 118, "channel": 0}, {"type": "note_on", "time": 7, "note": 59, "velocity": 113, "channel": 0}, {"type": "note_off", "time": 51, "note": 59, "velocity": 113, "channel": 0}, {"type": "note_on", "time": 4, "note": 56, "velocity": 119, "channel": 0}, {"type": "note_off", "time": 76, "note": 56, "velocity": 119, "channel": 0}, {"type": "note_on", "time": 7, "note": 55, "velocity": 116, "channel": 0}, {"type": "note_off", "time": 58, "note": 55, "velocity": 116, "channel": 0}, {"type": "note_on", "time": 25, "note": 53, "velocity": 107, "channel": 0}, {"type": "note_off", "time": 61, "note": 53, "velocity": 107, "channel": 0}, {"type": "note_on", "time": 736, "note": 52, "velocity": 112, "channel": 0}, {"type": "note_off", "time": 96, "note": 52, "velocity": 112, "channel": 0}, {"type": "note_on", "time": 20, "note": 55, "velocity": 112, "channel": 0}, {"type": "note_off", "time": 92, "note": 55, "velocity": 112, "channel": 0}, {"type": "note_on", "time": 5, "note": 59, "velocity": 114, "channel": 0}, {"type": "note_off", "time": 79, "note": 59, "velocity": 114, "channel": 0}, {"type": "note_on", "time": 16, "note": 57, "velocity": 115, "channel": 0}, {"type": "note_off", "time": 91, "note": 57, "velocity": 115, "channel": 0}, {"type": "note_on", "time": 5, "note": 55, "velocity": 115, "channel": 0}, {"type": "note_off", "time": 78, "note": 55, "velocity": 115, "channel": 0}, {"type": "note_on", "time": 21, "note": 52, "velocity": 107, "channel": 0}, {"type": "note_off", "time": 87, "note": 52, "velocity": 107, "channel": 0}, {"type": "note_on", "time": 5, "note": 50, "velocity": 109, "channel": 0}, {"type": "note_off", "time": 55, "note": 50, "velocity": 109, "channel": 0}, {"type": "note_on", "time": 31, "note": 48, "velocity": 109, "channel": 0}, {"type": "note_off", "time": 99, "note": 48, "velocity": 109, "channel": 0}, {"type": "note_on", "time": 10, "note": 47, "velocity": 112, "channel": 0}, {"type": "note_off", "time": 67, "note": 47, "velocity": 112, "channel": 0}, {"type": "note_on", "time": 36, "note": 43, "velocity": 109, "channel": 0}, {"type": "note_off", "time": 71, "note": 43, "velocity": 109, "channel": 0}, {"type": "note_on", "time": 0, "note": 48, "velocity": 111, "channel": 0}, {"type": "note_off", "time": 130, "note": 48, "velocity": 111, "channel": 0}, {"type": "note_on", "time": 430, "note": 48, "velocity": 113, "channel": 0}, {"type": "note_off", "time": 59, "note": 48, "velocity": 113, "channel": 0}, {"type": "note_on", "time": 5, "note": 47, "velocity": 113, "channel": 0}, {"type": "note_off", "time": 70, "note": 47, "velocity": 113, "channel": 0}, {"type": "note_on", "time": 21, "note": 45, "velocity": 109, "channel": 0}, {"type": "note_off", "time": 63, "note": 45, "velocity": 109, "channel": 0}, {"type": "note_on", "time": 28, "note": 44, "velocity": 112, "channel": 0}, {"type": "note_off", "time": 130, "note": 44, "velocity": 112, "channel": 0}, {"type": "note_on", "time": 28, "note": 46, "velocity": 121, "channel": 0}, {"type": "note_off", "time": 70, "note": 46, "velocity": 121, "channel": 0}, {"type": "note_on", "time": 2, "note": 48, "velocity": 118, "channel": 0}, {"type": "note_off", "time": 62, "note": 48, "velocity": 118, "channel": 0}, {"type": "note_on", "time": 10, "note": 51, "velocity": 116, "channel": 0}, {"type": "note_off", "time": 62, "note": 51, "velocity": 116, "channel": 0}, {"type": "note_on", "time": 8, "note": 50, "velocity": 113, "channel": 0}, {"type": "note_off", "time": 180, "note": 50, "velocity": 113, "channel": 0}, {"type": "note_on", "time": 16, "note": 51, "velocity": 111, "channel": 0}, {"type": "note_off", "time": 98, "note": 51, "velocity": 111, "channel": 0}, {"type": "note_on", "time": 39, "note": 53, "velocity": 113, "channel": 0}, {"type": "note_off", "time": 55, "note": 53, "velocity": 113, "channel": 0}, {"type": "note_on", "time": 7, "note": 55, "velocity": 116, "channel": 0}, {"type": "note_off", "time": 56, "note": 55, "velocity": 116, "channel": 0}, {"type": "note_on", "time": 6, "note": 57, "velocity": 116, "channel": 0}, {"type": "note_off", "time": 99, "note": 57, "velocity": 116, "channel": 0}, {"type": "note_on", "time": 630, "note": 50, "velocity": 118, "channel": 0}, {"type": "note_off", "time": 71, "note": 50, "velocity": 118, "channel": 0}, {"type": "note_on", "time": 2, "note": 53, "velocity": 118, "channel": 0}, {"type": "note_off", "time": 88, "note": 53, "velocity": 118, "channel": 0}, {"type": "note_on", "time": 14, "note": 57, "velocity": 116, "channel": 0}, {"type": "note_off", "time": 102, "note": 57, "velocity": 116, "channel": 0}, {"type": "note_on", "time": 24, "note": 58, "velocity": 115, "channel": 0}, {"type": "note_off", "time": 69, "note": 58, "velocity": 115, "channel": 0}, {"type": "note_on", "time": 102, "note": 57, "velocity": 115, "channel": 0}, {"type": "note_off", "time": 80, "note": 57, "velocity": 115, "channel": 0}, {"type": "note_on", "time": 13, "note": 53, "velocity": 115, "channel": 0}, {"type": "note_off", "time": 73, "note": 53, "velocity": 115, "channel": 0}, {"type": "note_on", "time": 30, "note": 49, "velocity": 110, "channel": 0}, {"type": "note_off", "time": 76, "note": 49, "velocity": 110, "channel": 0}, {"type": "note_on", "time": 24, "note": 55, "velocity": 113, "channel": 0}, {"type": "note_off", "time": 144, "note": 55, "velocity": 113, "channel": 0}, {"type": "note_on", "time": 419, "note": 63, "velocity": 114, "channel": 0}, {"type": "note_off", "time": 62, "note": 63, "velocity": 114, "channel": 0}, {"type": "note_on", "time": 30, "note": 55, "velocity": 110, "channel": 0}, {"type": "note_off", "time": 79, "note": 55, "velocity": 110, "channel": 0}, {"type": "note_on", "time": 14, "note": 57, "velocity": 110, "channel": 0}, {"type": "note_off", "time": 69, "note": 57, "velocity": 110, "channel": 0}, {"type": "note_on", "time": 10, "note": 58, "velocity": 113, "channel": 0}, {"type": "note_off", "time": 58, "note": 58, "velocity": 113, "channel": 0}, {"type": "note_on", "time": 44, "note": 51, "velocity": 118, "channel": 0}, {"type": "note_off", "time": 64, "note": 51, "velocity": 118, "channel": 0}, {"type": "note_on", "time": 11, "note": 53, "velocity": 115, "channel": 0}, {"type": "note_off", "time": 46, "note": 53, "velocity": 115, "channel": 0}, {"type": "note_on", "time": 2, "note": 55, "velocity": 109, "channel": 0}, {"type": "note_off", "time": 79, "note": 55, "velocity": 109, "channel": 0}, {"type": "note_on", "time": 11, "note": 58, "velocity": 109, "channel": 0}, {"type": "note_off", "time": 70, "note": 58, "velocity": 109, "channel": 0}, {"type": "note_on", "time": 17, "note": 57, "velocity": 109, "channel": 0}, {"type": "note_off", "time": 85, "note": 57, "velocity": 109, "channel": 0}, {"type": "note_on", "time": 591, "note": 60, "velocity": 119, "channel": 0}, {"type": "note_off", "time": 121, "note": 60, "velocity": 119, "channel": 0}, {"type": "note_on", "time": 5, "note": 59, "velocity": 114, "channel": 0}, {"type": "note_off", "time": 65, "note": 59, "velocity": 114, "channel": 0}, {"type": "note_on", "time": 9, "note": 57, "velocity": 114, "channel": 0}, {"type": "note_off", "time": 85, "note": 57, "velocity": 114, "channel": 0}, {"type": "note_on", "time": 20, "note": 55, "velocity": 107, "channel": 0}, {"type": "note_off", "time": 92, "note": 55, "velocity": 107, "channel": 0}, {"type": "note_on", "time": 23, "note": 53, "velocity": 112, "channel": 0}, {"type": "note_off", "time": 72, "note": 53, "velocity": 112, "channel": 0}, {"type": "note_on", "time": 23, "note": 52, "velocity": 115, "channel": 0}, {"type": "note_off", "time": 63, "note": 52, "velocity": 115, "channel": 0}, {"type": "note_on", "time": 4, "note": 51, "velocity": 116, "channel": 0}, {"type": "note_off", "time": 100, "note": 51, "velocity": 116, "channel": 0}, {"type": "note_on", "time": 34, "note": 53, "velocity": 111, "channel": 0}, {"type": "note_off", "time": 49, "note": 53, "velocity": 111, "channel": 0}, {"type": "note_on", "time": 21, "note": 55, "velocity": 109, "channel": 0}, {"type": "note_off", "time": 74, "note": 55, "velocity": 109, "channel": 0}, {"type": "note_on", "time": 35, "note": 57, "velocity": 111, "channel": 0}, {"type": "note_off", "time": 81, "note": 57, "velocity": 111, "channel": 0}, {"type": "note_on", "time": 25, "note": 62, "velocity": 122, "channel": 0}, {"type": "note_off", "time": 87, "note": 62, "velocity": 122, "channel": 0}, {"type": "note_on", "time": 11, "note": 60, "velocity": 116, "channel": 0}, {"type": "note_off", "time": 92, "note": 60, "velocity": 116, "channel": 0}, {"type": "note_on", "time": 20, "note": 65, "velocity": 124, "channel": 0}, {"type": "note_off", "time": 77, "note": 65, "velocity": 124, "channel": 0}, {"type": "note_on", "time": 27, "note": 61, "velocity": 115, "channel": 0}, {"type": "note_off", "time": 76, "note": 61, "velocity": 115, "channel": 0}, {"type": "note_on", "time": 10, "note": 60, "velocity": 115, "channel": 0}, {"type": "note_off", "time": 106, "note": 60, "velocity": 115, "channel": 0}, {"type": "note_on", "time": 10, "note": 58, "velocity": 110, "channel": 0}, {"type": "note_off", "time": 80, "note": 58, "velocity": 110, "channel": 0}, {"type": "note_on", "time": 9, "note": 57, "velocity": 112, "channel": 0}, {"type": "note_off", "time": 66, "note": 57, "velocity": 112, "channel": 0}, {"type": "note_on", "time": 7, "note": 55, "velocity": 107, "channel": 0}, {"type": "note_off", "time": 71, "note": 55, "velocity": 107, "channel": 0}, {"type": "note_on", "time": 148, "note": 64, "velocity": 118, "channel": 0}, {"type": "note_off", "time": 83, "note": 64, "velocity": 118, "channel": 0}, {"type": "note_on", "time": 8, "note": 65, "velocity": 116, "channel": 0}, {"type": "note_off", "time": 94, "note": 65, "velocity": 116, "channel": 0}, {"type": "note_on", "time": 9, "note": 61, "velocity": 123, "channel": 0}, {"type": "note_off", "time": 100, "note": 61, "velocity": 123, "channel": 0}, {"type": "note_on", "time": 11, "note": 60, "velocity": 118, "channel": 0}, {"type": "note_off", "time": 53, "note": 60, "velocity": 118, "channel": 0}, {"type": "note_on", "time": 3, "note": 58, "velocity": 112, "channel": 0}, {"type": "note_off", "time": 50, "note": 58, "velocity": 112, "channel": 0}, {"type": "note_on", "time": 13, "note": 51, "velocity": 115, "channel": 0}, {"type": "note_off", "time": 144, "note": 51, "velocity": 115, "channel": 0}, {"type": "note_on", "time": 18, "note": 54, "velocity": 109, "channel": 0}, {"type": "note_off", "time": 61, "note": 54, "velocity": 109, "channel": 0}, {"type": "note_on", "time": 495, "note": 57, "velocity": 117, "channel": 0}, {"type": "note_off", "time": 113, "note": 57, "velocity": 117, "channel": 0}, {"type": "note_on", "time": 5, "note": 60, "velocity": 116, "channel": 0}, {"type": "note_off", "time": 77, "note": 60, "velocity": 116, "channel": 0}, {"type": "note_on", "time": 7, "note": 64, "velocity": 124, "channel": 0}, {"type": "note_off", "time": 96, "note": 64, "velocity": 124, "channel": 0}, {"type": "note_on", "time": 16, "note": 67, "velocity": 123, "channel": 0}, {"type": "note_off", "time": 114, "note": 67, "velocity": 123, "channel": 0}, {"type": "note_on", "time": 79, "note": 64, "velocity": 121, "channel": 0}, {"type": "note_off", "time": 42, "note": 64, "velocity": 121, "channel": 0}, {"type": "note_on", "time": 3, "note": 65, "velocity": 121, "channel": 0}, {"type": "note_off", "time": 44, "note": 65, "velocity": 121, "channel": 0}, {"type": "note_on", "time": 6, "note": 66, "velocity": 117, "channel": 0}, {"type": "note_off", "time": 84, "note": 66, "velocity": 117, "channel": 0}, {"type": "note_on", "time": 17, "note": 62, "velocity": 117, "channel": 0}, {"type": "note_off", "time": 104, "note": 62, "velocity": 117, "channel": 0}, {"type": "note_on", "time": 366, "note": 64, "velocity": 120, "channel": 0}, {"type": "note_off", "time": 100, "note": 64, "velocity": 120, "channel": 0}, {"type": "note_on", "time": 6, "note": 65, "velocity": 118, "channel": 0}, {"type": "note_off", "time": 72, "note": 65, "velocity": 118, "channel": 0}, {"type": "note_on", "time": 6, "note": 62, "velocity": 122, "channel": 0}, {"type": "note_off", "time": 94, "note": 62, "velocity": 122, "channel": 0}, {"type": "note_on", "time": 6, "note": 58, "velocity": 110, "channel": 0}, {"type": "note_off", "time": 69, "note": 58, "velocity": 110, "channel": 0}, {"type": "note_on", "time": 6, "note": 57, "velocity": 116, "channel": 0}, {"type": "note_off", "time": 98, "note": 57, "velocity": 116, "channel": 0}, {"type": "note_on", "time": 15, "note": 55, "velocity": 110, "channel": 0}, {"type": "note_off", "time": 81, "note": 55, "velocity": 110, "channel": 0}, {"type": "note_on", "time": 5, "note": 54, "velocity": 117, "channel": 0}, {"type": "note_off", "time": 75, "note": 54, "velocity": 117, "channel": 0}, {"type": "note_on", "time": 17, "note": 52, "velocity": 112, "channel": 0}, {"type": "note_off", "time": 56, "note": 52, "velocity": 112, "channel": 0}, {"type": "note_on", "time": 13, "note": 53, "velocity": 117, "channel": 0}, {"type": "note_off", "time": 121, "note": 53, "velocity": 117, "channel": 0}, {"type": "note_on", "time": 13, "note": 51, "velocity": 108, "channel": 0}, {"type": "note_off", "time": 49, "note": 51, "velocity": 108, "channel": 0}, {"type": "note_on", "time": 7, "note": 52, "velocity": 108, "channel": 0}, {"type": "note_off", "time": 88, "note": 52, "velocity": 108, "channel": 0}, {"type": "note_on", "time": 49, "note": 60, "velocity": 117, "channel": 0}, {"type": "note_off", "time": 104, "note": 60, "velocity": 117, "channel": 0}, {"type": "note_on", "time": 566, "note": 60, "velocity": 117, "channel": 0}, {"type": "note_off", "time": 97, "note": 60, "velocity": 117, "channel": 0}, {"type": "note_on", "time": 10, "note": 62, "velocity": 121, "channel": 0}, {"type": "note_off", "time": 71, "note": 62, "velocity": 121, "channel": 0}, {"type": "note_on", "time": 8, "note": 64, "velocity": 122, "channel": 0}, {"type": "note_off", "time": 104, "note": 64, "velocity": 122, "channel": 0}, {"type": "note_on", "time": 10, "note": 65, "velocity": 117, "channel": 0}, {"type": "note_off", "time": 68, "note": 65, "velocity": 117, "channel": 0}, {"type": "note_on", "time": 4, "note": 64, "velocity": 122, "channel": 0}, {"type": "note_off", "time": 71, "note": 64, "velocity": 122, "channel": 0}, {"type": "note_on", "time": 4, "note": 62, "velocity": 117, "channel": 0}, {"type": "note_off", "time": 56, "note": 62, "velocity": 117, "channel": 0}, {"type": "note_on", "time": 5, "note": 60, "velocity": 115, "channel": 0}, {"type": "note_off", "time": 120, "note": 60, "velocity": 115, "channel": 0}, {"type": "note_on", "time": 7, "note": 62, "velocity": 117, "channel": 0}, {"type": "note_off", "time": 71, "note": 62, "velocity": 117, "channel": 0}, {"type": "note_on", "time": 4, "note": 60, "velocity": 114, "channel": 0}, {"type": "note_off", "time": 81, "note": 60, "velocity": 114, "channel": 0}, {"type": "note_on", "time": 20, "note": 58, "velocity": 108, "channel": 0}, {"type": "note_off", "time": 83, "note": 58, "velocity": 108, "channel": 0}, {"type": "note_on", "time": 5, "note": 57, "velocity": 108, "channel": 0}, {"type": "note_off", "time": 81, "note": 57, "velocity": 108, "channel": 0}, {"type": "note_on", "time": 36, "note": 48, "velocity": 111, "channel": 0}, {"type": "note_off", "time": 81, "note": 48, "velocity": 111, "channel": 0}, {"type": "note_on", "time": 5, "note": 50, "velocity": 108, "channel": 0}, {"type": "note_off", "time": 100, "note": 50, "velocity": 108, "channel": 0}, {"type": "note_on", "time": 2, "note": 52, "velocity": 108, "channel": 0}, {"type": "note_off", "time": 60, "note": 52, "velocity": 108, "channel": 0}, {"type": "note_on", "time": 25, "note": 55, "velocity": 113, "channel": 0}, {"type": "note_off", "time": 105, "note": 55, "velocity": 113, "channel": 0}, {"type": "note_on", "time": 8, "note": 53, "velocity": 108, "channel": 0}, {"type": "note_off", "time": 64, "note": 53, "velocity": 108, "channel": 0}, {"type": "note_on", "time": 12, "note": 52, "velocity": 118, "channel": 0}, {"type": "note_off", "time": 99, "note": 52, "velocity": 118, "channel": 0}, {"type": "note_on", "time": 10, "note": 48, "velocity": 106, "channel": 0}, {"type": "note_off", "time": 99, "note": 48, "velocity": 106, "channel": 0}, {"type": "note_on", "time": 6, "note": 50, "velocity": 108, "channel": 0}, {"type": "note_off", "time": 83, "note": 50, "velocity": 108, "channel": 0}, {"type": "note_on", "time": 1, "note": 45, "velocity": 108, "channel": 0}, {"type": "note_off", "time": 75, "note": 45, "velocity": 108, "channel": 0}, {"type": "note_on", "time": 17, "note": 46, "velocity": 111, "channel": 0}, {"type": "note_off", "time": 101, "note": 46, "velocity": 111, "channel": 0}, {"type": "note_on", "time": 7, "note": 47, "velocity": 105, "channel": 0}, {"type": "note_off", "time": 72, "note": 47, "velocity": 105, "channel": 0}, {"type": "note_on", "time": 15, "note": 49, "velocity": 118, "channel": 0}, {"type": "note_off", "time": 58, "note": 49, "velocity": 118, "channel": 0}, {"type": "note_on", "time": 57, "note": 51, "velocity": 124, "channel": 0}, {"type": "note_off", "time": 74, "note": 51, "velocity": 124, "channel": 0}, {"type": "note_on", "time": 9, "note": 52, "velocity": 127, "channel": 0}, {"type": "note_off", "time": 96, "note": 52, "velocity": 127, "channel": 0}, {"type": "note_on", "time": 5, "note": 54, "velocity": 109, "channel": 0}, {"type": "note_off", "time": 81, "note": 54, "velocity": 109, "channel": 0}, {"type": "note_on", "time": 3, "note": 55, "velocity": 116, "channel": 0}, {"type": "note_off", "time": 87, "note": 55, "velocity": 116, "channel": 0}, {"type": "note_on", "time": 6, "note": 57, "velocity": 117, "channel": 0}, {"type": "note_off", "time": 70, "note": 57, "velocity": 117, "channel": 0}, {"type": "note_on", "time": 8, "note": 58, "velocity": 117, "channel": 0}, {"type": "note_off", "time": 82, "note": 58, "velocity": 117, "channel": 0}, {"type": "note_on", "time": 44, "note": 59, "velocity": 116, "channel": 0}, {"type": "note_off", "time": 40, "note": 59, "velocity": 116, "channel": 0}, {"type": "note_on", "time": 10, "note": 61, "velocity": 118, "channel": 0}, {"type": "note_off", "time": 88, "note": 61, "velocity": 118, "channel": 0}, {"type": "note_on", "time": 31, "note": 64, "velocity": 125, "channel": 0}, {"type": "note_off", "time": 92, "note": 64, "velocity": 125, "channel": 0}, {"type": "note_on", "time": 5, "note": 62, "velocity": 121, "channel": 0}, {"type": "note_off", "time": 80, "note": 62, "velocity": 121, "channel": 0}, {"type": "note_on", "time": 22, "note": 57, "velocity": 115, "channel": 0}, {"type": "note_off", "time": 75, "note": 57, "velocity": 115, "channel": 0}, {"type": "note_on", "time": 9, "note": 55, "velocity": 110, "channel": 0}, {"type": "note_off", "time": 88, "note": 55, "velocity": 110, "channel": 0}, {"type": "note_on", "time": 349, "note": 61, "velocity": 120, "channel": 0}, {"type": "note_off", "time": 64, "note": 61, "velocity": 120, "channel": 0}, {"type": "note_on", "time": 4, "note": 64, "velocity": 122, "channel": 0}, {"type": "note_off", "time": 67, "note": 64, "velocity": 122, "channel": 0}, {"type": "note_on", "time": 18, "note": 62, "velocity": 119, "channel": 0}, {"type": "note_off", "time": 77, "note": 62, "velocity": 119, "channel": 0}, {"type": "note_on", "time": 47, "note": 57, "velocity": 115, "channel": 0}, {"type": "note_off", "time": 77, "note": 57, "velocity": 115, "channel": 0}, {"type": "note_on", "time": 13, "note": 55, "velocity": 116, "channel": 0}, {"type": "note_off", "time": 65, "note": 55, "velocity": 116, "channel": 0}, {"type": "note_on", "time": 16, "note": 53, "velocity": 110, "channel": 0}, {"type": "note_off", "time": 65, "note": 53, "velocity": 110, "channel": 0}, {"type": "note_on", "time": 17, "note": 52, "velocity": 117, "channel": 0}, {"type": "note_off", "time": 93, "note": 52, "velocity": 117, "channel": 0}, {"type": "note_on", "time": 32, "note": 49, "velocity": 114, "channel": 0}, {"type": "note_off", "time": 75, "note": 49, "velocity": 114, "channel": 0}, {"type": "note_on", "time": 5, "note": 50, "velocity": 111, "channel": 0}, {"type": "note_off", "time": 104, "note": 50, "velocity": 111, "channel": 0}, {"type": "note_on", "time": 23, "note": 45, "velocity": 106, "channel": 0}, {"type": "note_off", "time": 89, "note": 45, "velocity": 106, "channel": 0}, {"type": "note_on", "time": 12, "note": 46, "velocity": 111, "channel": 0}, {"type": "note_off", "time": 70, "note": 46, "velocity": 111, "channel": 0}, {"type": "note_on", "time": 27, "note": 48, "velocity": 108, "channel": 0}, {"type": "note_off", "time": 56, "note": 48, "velocity": 108, "channel": 0}, {"type": "note_on", "time": 3, "note": 49, "velocity": 107, "channel": 0}, {"type": "note_off", "time": 84, "note": 49, "velocity": 107, "channel": 0}, {"type": "note_on", "time": 31, "note": 51, "velocity": 119, "channel": 0}, {"type": "note_off", "time": 63, "note": 51, "velocity": 119, "channel": 0}, {"type": "note_on", "time": 10, "note": 52, "velocity": 124, "channel": 0}, {"type": "note_off", "time": 77, "note": 52, "velocity": 124, "channel": 0}, {"type": "note_on", "time": 11, "note": 54, "velocity": 107, "channel": 0}, {"type": "note_off", "time": 83, "note": 54, "velocity": 107, "channel": 0}, {"type": "note_on", "time": 10, "note": 55, "velocity": 113, "channel": 0}, {"type": "note_off", "time": 89, "note": 55, "velocity": 113, "channel": 0}, {"type": "note_on", "time": 1, "note": 57, "velocity": 118, "channel": 0}, {"type": "note_off", "time": 70, "note": 57, "velocity": 118, "channel": 0}, {"type": "note_on", "time": 12, "note": 58, "velocity": 115, "channel": 0}, {"type": "note_off", "time": 101, "note": 58, "velocity": 115, "channel": 0}, {"type": "note_on", "time": 10, "note": 60, "velocity": 118, "channel": 0}, {"type": "note_off", "time": 55, "note": 60, "velocity": 118, "channel": 0}, {"type": "note_on", "time": 8, "note": 61, "velocity": 120, "channel": 0}, {"type": "note_off", "time": 72, "note": 61, "velocity": 120, "channel": 0}, {"type": "note_on", "time": 23, "note": 64, "velocity": 125, "channel": 0}, {"type": "note_off", "time": 78, "note": 64, "velocity": 125, "channel": 0}, {"type": "note_on", "time": 18, "note": 62, "velocity": 119, "channel": 0}, {"type": "note_off", "time": 78, "note": 62, "velocity": 119, "channel": 0}, {"type": "note_on", "time": 16, "note": 59, "velocity": 116, "channel": 0}, {"type": "note_off", "time": 122, "note": 59, "velocity": 116, "channel": 0}, {"type": "note_on", "time": 28, "note": 60, "velocity": 114, "channel": 0}, {"type": "note_off", "time": 77, "note": 60, "velocity": 114, "channel": 0}, {"type": "note_on", "time": 462, "note": 59, "velocity": 112, "channel": 0}, {"type": "note_off", "time": 63, "note": 59, "velocity": 112, "channel": 0}, {"type": "note_on", "time": 4, "note": 60, "velocity": 120, "channel": 0}, {"type": "note_off", "time": 90, "note": 60, "velocity": 120, "channel": 0}, {"type": "note_on", "time": 2, "note": 62, "velocity": 122, "channel": 0}, {"type": "note_off", "time": 39, "note": 62, "velocity": 122, "channel": 0}, {"type": "note_on", "time": 8, "note": 63, "velocity": 122, "channel": 0}, {"type": "note_off", "time": 65, "note": 63, "velocity": 122, "channel": 0}, {"type": "note_on", "time": 42, "note": 53, "velocity": 112, "channel": 0}, {"type": "note_off", "time": 79, "note": 53, "velocity": 112, "channel": 0}, {"type": "note_on", "time": 10, "note": 55, "velocity": 110, "channel": 0}, {"type": "note_off", "time": 73, "note": 55, "velocity": 110, "channel": 0}, {"type": "note_on", "time": 9, "note": 57, "velocity": 103, "channel": 0}, {"type": "note_off", "time": 53, "note": 57, "velocity": 103, "channel": 0}, {"type": "note_on", "time": 0, "note": 61, "velocity": 123, "channel": 0}, {"type": "note_off", "time": 91, "note": 61, "velocity": 123, "channel": 0}, {"type": "note_on", "time": 20, "note": 60, "velocity": 121, "channel": 0}, {"type": "note_off", "time": 87, "note": 60, "velocity": 121, "channel": 0}, {"type": "note_on", "time": 369, "note": 62, "velocity": 119, "channel": 0}, {"type": "note_off", "time": 94, "note": 62, "velocity": 119, "channel": 0}, {"type": "note_on", "time": 14, "note": 67, "velocity": 121, "channel": 0}, {"type": "note_off", "time": 95, "note": 67, "velocity": 121, "channel": 0}, {"type": "note_on", "time": 18, "note": 65, "velocity": 118, "channel": 0}, {"type": "note_off", "time": 75, "note": 65, "velocity": 118, "channel": 0}, {"type": "note_on", "time": 173, "note": 60, "velocity": 110, "channel": 0}, {"type": "note_off", "time": 79, "note": 60, "velocity": 110, "channel": 0}, {"type": "note_on", "time": 8, "note": 61, "velocity": 116, "channel": 0}, {"type": "note_off", "time": 77, "note": 61, "velocity": 116, "channel": 0}, {"type": "note_on", "time": 42, "note": 51, "velocity": 113, "channel": 0}, {"type": "note_off", "time": 75, "note": 51, "velocity": 113, "channel": 0}, {"type": "note_on", "time": 138, "note": 53, "velocity": 104, "channel": 0}, {"type": "note_off", "time": 49, "note": 53, "velocity": 104, "channel": 0}, {"type": "note_on", "time": 10, "note": 60, "velocity": 113, "channel": 0}, {"type": "note_off", "time": 83, "note": 60, "velocity": 113, "channel": 0}, {"type": "note_on", "time": 30, "note": 58, "velocity": 108, "channel": 0}, {"type": "note_off", "time": 80, "note": 58, "velocity": 108, "channel": 0}, {"type": "note_on", "time": 399, "note": 59, "velocity": 112, "channel": 0}, {"type": "note_off", "time": 62, "note": 59, "velocity": 112, "channel": 0}, {"type": "note_on", "time": 34, "note": 64, "velocity": 118, "channel": 0}, {"type": "note_off", "time": 57, "note": 64, "velocity": 118, "channel": 0}, {"type": "note_on", "time": 12, "note": 62, "velocity": 116, "channel": 0}, {"type": "note_off", "time": 50, "note": 62, "velocity": 116, "channel": 0}, {"type": "note_on", "time": 357, "note": 63, "velocity": 119, "channel": 0}, {"type": "note_off", "time": 70, "note": 63, "velocity": 119, "channel": 0}, {"type": "note_on", "time": 12, "note": 60, "velocity": 118, "channel": 0}, {"type": "note_off", "time": 34, "note": 60, "velocity": 118, "channel": 0}, {"type": "note_on", "time": 7, "note": 61, "velocity": 115, "channel": 0}, {"type": "note_off", "time": 39, "note": 61, "velocity": 115, "channel": 0}, {"type": "note_on", "time": 17, "note": 58, "velocity": 115, "channel": 0}, {"type": "note_off", "time": 135, "note": 58, "velocity": 115, "channel": 0}, {"type": "note_on", "time": 16, "note": 57, "velocity": 112, "channel": 0}, {"type": "note_off", "time": 57, "note": 57, "velocity": 112, "channel": 0}, {"type": "note_on", "time": 8, "note": 55, "velocity": 109, "channel": 0}, {"type": "note_off", "time": 116, "note": 55, "velocity": 109, "channel": 0}, {"type": "note_on", "time": 13, "note": 54, "velocity": 107, "channel": 0}, {"type": "note_off", "time": 75, "note": 54, "velocity": 107, "channel": 0}, {"type": "note_on", "time": 296, "note": 50, "velocity": 108, "channel": 0}, {"type": "note_off", "time": 40, "note": 50, "velocity": 108, "channel": 0}, {"type": "note_on", "time": 9, "note": 55, "velocity": 111, "channel": 0}, {"type": "note_off", "time": 84, "note": 55, "velocity": 111, "channel": 0}, {"type": "note_on", "time": 11, "note": 57, "velocity": 113, "channel": 0}, {"type": "note_off", "time": 103, "note": 57, "velocity": 113, "channel": 0}, {"type": "note_on", "time": 5, "note": 58, "velocity": 116, "channel": 0}, {"type": "note_off", "time": 86, "note": 58, "velocity": 116, "channel": 0}, {"type": "note_on", "time": 30, "note": 47, "velocity": 111, "channel": 0}, {"type": "note_off", "time": 61, "note": 47, "velocity": 111, "channel": 0}, {"type": "note_on", "time": 12, "note": 48, "velocity": 113, "channel": 0}, {"type": "note_off", "time": 78, "note": 48, "velocity": 113, "channel": 0}, {"type": "note_on", "time": 10, "note": 50, "velocity": 115, "channel": 0}, {"type": "note_off", "time": 60, "note": 50, "velocity": 115, "channel": 0}, {"type": "note_on", "time": 13, "note": 57, "velocity": 109, "channel": 0}, {"type": "note_off", "time": 109, "note": 57, "velocity": 109, "channel": 0}, {"type": "note_on", "time": 11, "note": 55, "velocity": 108, "channel": 0}, {"type": "note_off", "time": 55, "note": 55, "velocity": 108, "channel": 0}, {"type": "note_on", "time": 13, "note": 53, "velocity": 107, "channel": 0}, {"type": "note_off", "time": 87, "note": 53, "velocity": 107, "channel": 0}, {"type": "note_on", "time": 25, "note": 51, "velocity": 108, "channel": 0}, {"type": "note_off", "time": 99, "note": 51, "velocity": 108, "channel": 0}, {"type": "note_on", "time": 9, "note": 52, "velocity": 121, "channel": 0}, {"type": "note_off", "time": 87, "note": 52, "velocity": 121, "channel": 0}, {"type": "note_on", "time": 4, "note": 50, "velocity": 112, "channel": 0}, {"type": "note_off", "time": 71, "note": 50, "velocity": 112, "channel": 0}, {"type": "note_on", "time": 10, "note": 48, "velocity": 109, "channel": 0}, {"type": "note_off", "time": 103, "note": 48, "velocity": 109, "channel": 0}, {"type": "note_on", "time": 5, "note": 46, "velocity": 109, "channel": 0}, {"type": "note_off", "time": 87, "note": 46, "velocity": 109, "channel": 0}, {"type": "note_on", "time": 13, "note": 45, "velocity": 109, "channel": 0}, {"type": "note_off", "time": 79, "note": 45, "velocity": 109, "channel": 0}, {"type": "note_on", "time": 17, "note": 48, "velocity": 109, "channel": 0}, {"type": "note_off", "time": 63, "note": 48, "velocity": 109, "channel": 0}, {"type": "note_on", "time": 18, "note": 52, "velocity": 118, "channel": 0}, {"type": "note_off", "time": 94, "note": 52, "velocity": 118, "channel": 0}, {"type": "note_on", "time": 15, "note": 48, "velocity": 109, "channel": 0}, {"type": "note_off", "time": 51, "note": 48, "velocity": 109, "channel": 0}, {"type": "note_on", "time": 28, "note": 52, "velocity": 117, "channel": 0}, {"type": "note_off", "time": 99, "note": 52, "velocity": 117, "channel": 0}, {"type": "note_on", "time": 32, "note": 48, "velocity": 114, "channel": 0}, {"type": "note_off", "time": 57, "note": 48, "velocity": 114, "channel": 0}, {"type": "note_on", "time": 545, "note": 48, "velocity": 116, "channel": 0}, {"type": "note_off", "time": 108, "note": 48, "velocity": 116, "channel": 0}, {"type": "note_on", "time": 13, "note": 50, "velocity": 109, "channel": 0}, {"type": "note_off", "time": 65, "note": 50, "velocity": 109, "channel": 0}, {"type": "note_on", "time": 6, "note": 52, "velocity": 109, "channel": 0}, {"type": "note_off", "time": 51, "note": 52, "velocity": 109, "channel": 0}, {"type": "note_on", "time": 45, "note": 55, "velocity": 114, "channel": 0}, {"type": "note_off", "time": 84, "note": 55, "velocity": 114, "channel": 0}, {"type": "note_on", "time": 24, "note": 52, "velocity": 110, "channel": 0}, {"type": "note_off", "time": 73, "note": 52, "velocity": 110, "channel": 0}, {"type": "note_on", "time": 21, "note": 53, "velocity": 112, "channel": 0}, {"type": "note_off", "time": 90, "note": 53, "velocity": 112, "channel": 0}, {"type": "note_on", "time": 8, "note": 57, "velocity": 109, "channel": 0}, {"type": "note_off", "time": 102, "note": 57, "velocity": 109, "channel": 0}, {"type": "note_on", "time": 18, "note": 60, "velocity": 107, "channel": 0}, {"type": "note_off", "time": 60, "note": 60, "velocity": 107, "channel": 0}, {"type": "note_on", "time": 21, "note": 64, "velocity": 124, "channel": 0}, {"type": "note_off", "time": 123, "note": 64, "velocity": 124, "channel": 0}, {"type": "note_on", "time": 16, "note": 62, "velocity": 113, "channel": 0}, {"type": "note_off", "time": 113, "note": 62, "velocity": 113, "channel": 0}, {"type": "note_on", "time": 42, "note": 57, "velocity": 114, "channel": 0}, {"type": "note_off", "time": 79, "note": 57, "velocity": 114, "channel": 0}, {"type": "note_on", "time": 6, "note": 58, "velocity": 111, "channel": 0}, {"type": "note_off", "time": 98, "note": 58, "velocity": 111, "channel": 0}, {"type": "note_on", "time": 10, "note": 60, "velocity": 118, "channel": 0}, {"type": "note_off", "time": 91, "note": 60, "velocity": 118, "channel": 0}, {"type": "note_on", "time": 10, "note": 61, "velocity": 117, "channel": 0}, {"type": "note_off", "time": 65, "note": 61, "velocity": 117, "channel": 0}, {"type": "note_on", "time": 7, "note": 64, "velocity": 122, "channel": 0}, {"type": "note_off", "time": 75, "note": 64, "velocity": 122, "channel": 0}, {"type": "note_on", "time": 29, "note": 66, "velocity": 118, "channel": 0}, {"type": "note_off", "time": 98, "note": 66, "velocity": 118, "channel": 0}, {"type": "note_on", "time": 642, "note": 56, "velocity": 106, "channel": 0}, {"type": "note_off", "time": 540, "note": 56, "velocity": 106, "channel": 0}, {"type": "note_on", "time": 215, "note": 68, "velocity": 123, "channel": 0}, {"type": "note_off", "time": 140, "note": 68, "velocity": 123, "channel": 0}, {"type": "note_on", "time": 8, "note": 69, "velocity": 122, "channel": 0}, {"type": "note_off", "time": 457, "note": 69, "velocity": 122, "channel": 0}, {"type": "note_on", "time": 46, "note": 64, "velocity": 114, "channel": 0}, {"type": "note_off", "time": 70, "note": 64, "velocity": 114, "channel": 0}, {"type": "note_on", "time": 7, "note": 67, "velocity": 124, "channel": 0}, {"type": "note_off", "time": 127, "note": 67, "velocity": 124, "channel": 0}, {"type": "note_on", "time": 13, "note": 65, "velocity": 118, "channel": 0}, {"type": "note_off", "time": 90, "note": 65, "velocity": 118, "channel": 0}, {"type": "note_on", "time": 84, "note": 64, "velocity": 118, "channel": 0}, {"type": "note_off", "time": 98, "note": 64, "velocity": 118, "channel": 0}, {"type": "note_on", "time": 85, "note": 62, "velocity": 114, "channel": 0}, {"type": "note_off", "time": 85, "note": 62, "velocity": 114, "channel": 0}, {"type": "note_on", "time": 106, "note": 61, "velocity": 109, "channel": 0}, {"type": "note_off", "time": 82, "note": 61, "velocity": 109, "channel": 0}, {"type": "note_on", "time": 91, "note": 64, "velocity": 119, "channel": 0}, {"type": "note_off", "time": 71, "note": 64, "velocity": 119, "channel": 0}, {"type": "note_on", "time": 10, "note": 65, "velocity": 106, "channel": 0}, {"type": "note_off", "time": 109, "note": 65, "velocity": 106, "channel": 0}, {"type": "note_on", "time": 41, "note": 56, "velocity": 110, "channel": 0}, {"type": "note_off", "time": 64, "note": 56, "velocity": 110, "channel": 0}, {"type": "note_on", "time": 10, "note": 57, "velocity": 102, "channel": 0}, {"type": "note_off", "time": 84, "note": 57, "velocity": 102, "channel": 0}, {"type": "note_on", "time": 311, "note": 60, "velocity": 114, "channel": 0}, {"type": "note_off", "time": 100, "note": 60, "velocity": 114, "channel": 0}, {"type": "note_on", "time": 6, "note": 59, "velocity": 117, "channel": 0}, {"type": "note_off", "time": 104, "note": 59, "velocity": 117, "channel": 0}, {"type": "note_on", "time": 7, "note": 58, "velocity": 113, "channel": 0}, {"type": "note_off", "time": 38, "note": 58, "velocity": 113, "channel": 0}, {"type": "note_on", "time": 8, "note": 57, "velocity": 108, "channel": 0}, {"type": "note_off", "time": 54, "note": 57, "velocity": 108, "channel": 0}, {"type": "note_on", "time": 10, "note": 55, "velocity": 113, "channel": 0}, {"type": "note_off", "time": 103, "note": 55, "velocity": 113, "channel": 0}, {"type": "note_on", "time": 17, "note": 53, "velocity": 106, "channel": 0}, {"type": "note_off", "time": 63, "note": 53, "velocity": 106, "channel": 0}, {"type": "note_on", "time": 6, "note": 51, "velocity": 114, "channel": 0}, {"type": "note_off", "time": 196, "note": 51, "velocity": 114, "channel": 0}, {"type": "note_on", "time": 18, "note": 53, "velocity": 107, "channel": 0}, {"type": "note_off", "time": 129, "note": 53, "velocity": 107, "channel": 0}, {"type": "note_on", "time": 0, "note": 55, "velocity": 105, "channel": 0}, {"type": "note_off", "time": 46, "note": 55, "velocity": 105, "channel": 0}, {"type": "note_on", "time": 5, "note": 57, "velocity": 107, "channel": 0}, {"type": "note_off", "time": 51, "note": 57, "velocity": 107, "channel": 0}, {"type": "note_on", "time": 8, "note": 62, "velocity": 119, "channel": 0}, {"type": "note_off", "time": 88, "note": 62, "velocity": 119, "channel": 0}, {"type": "note_on", "time": 34, "note": 60, "velocity": 114, "channel": 0}, {"type": "note_off", "time": 59, "note": 60, "velocity": 114, "channel": 0}, {"type": "note_on", "time": 33, "note": 64, "velocity": 120, "channel": 0}, {"type": "note_off", "time": 42, "note": 64, "velocity": 120, "channel": 0}, {"type": "note_on", "time": 5, "note": 65, "velocity": 116, "channel": 0}, {"type": "note_off", "time": 146, "note": 65, "velocity": 116, "channel": 0}, {"type": "note_on", "time": 26, "note": 62, "velocity": 114, "channel": 0}, {"type": "note_off", "time": 76, "note": 62, "velocity": 114, "channel": 0}, {"type": "note_on", "time": 3, "note": 60, "velocity": 112, "channel": 0}, {"type": "note_off", "time": 119, "note": 60, "velocity": 112, "channel": 0}, {"type": "note_on", "time": 6, "note": 58, "velocity": 110, "channel": 0}, {"type": "note_off", "time": 74, "note": 58, "velocity": 110, "channel": 0}, {"type": "note_on", "time": 6, "note": 57, "velocity": 110, "channel": 0}, {"type": "note_off", "time": 49, "note": 57, "velocity": 110, "channel": 0}, {"type": "note_on", "time": 3, "note": 51, "velocity": 109, "channel": 0}, {"type": "note_off", "time": 73, "note": 51, "velocity": 109, "channel": 0}, {"type": "note_on", "time": 14, "note": 48, "velocity": 105, "channel": 0}, {"type": "note_off", "time": 103, "note": 48, "velocity": 105, "channel": 0}, {"type": "note_on", "time": 16, "note": 49, "velocity": 107, "channel": 0}, {"type": "note_off", "time": 118, "note": 49, "velocity": 107, "channel": 0}, {"type": "note_on", "time": 6, "note": 51, "velocity": 108, "channel": 0}, {"type": "note_off", "time": 94, "note": 51, "velocity": 108, "channel": 0}, {"type": "note_on", "time": 26, "note": 53, "velocity": 103, "channel": 0}, {"type": "note_off", "time": 60, "note": 53, "velocity": 103, "channel": 0}, {"type": "note_on", "time": 30, "note": 60, "velocity": 116, "channel": 0}, {"type": "note_off", "time": 84, "note": 60, "velocity": 116, "channel": 0}, {"type": "note_on", "time": 23, "note": 58, "velocity": 112, "channel": 0}, {"type": "note_off", "time": 81, "note": 58, "velocity": 112, "channel": 0}, {"type": "note_on", "time": 529, "note": 56, "velocity": 116, "channel": 0}, {"type": "note_off", "time": 92, "note": 56, "velocity": 116, "channel": 0}, {"type": "note_on", "time": 14, "note": 55, "velocity": 113, "channel": 0}, {"type": "note_off", "time": 99, "note": 55, "velocity": 113, "channel": 0}, {"type": "note_on", "time": 21, "note": 63, "velocity": 116, "channel": 0}, {"type": "note_off", "time": 84, "note": 63, "velocity": 116, "channel": 0}, {"type": "note_on", "time": 0, "note": 67, "velocity": 120, "channel": 0}, {"type": "note_off", "time": 92, "note": 67, "velocity": 120, "channel": 0}, {"type": "note_on", "time": 11, "note": 64, "velocity": 118, "channel": 0}, {"type": "note_off", "time": 99, "note": 64, "velocity": 118, "channel": 0}, {"type": "note_on", "time": 85, "note": 56, "velocity": 114, "channel": 0}, {"type": "note_off", "time": 49, "note": 56, "velocity": 114, "channel": 0}, {"type": "note_on", "time": 8, "note": 55, "velocity": 110, "channel": 0}, {"type": "note_off", "time": 57, "note": 55, "velocity": 110, "channel": 0}, {"type": "note_on", "time": 13, "note": 56, "velocity": 117, "channel": 0}, {"type": "note_off", "time": 82, "note": 56, "velocity": 117, "channel": 0}, {"type": "note_on", "time": 8, "note": 58, "velocity": 107, "channel": 0}, {"type": "note_off", "time": 45, "note": 58, "velocity": 107, "channel": 0}, {"type": "note_on", "time": 1, "note": 60, "velocity": 112, "channel": 0}, {"type": "note_off", "time": 47, "note": 60, "velocity": 112, "channel": 0}, {"type": "note_on", "time": 6, "note": 63, "velocity": 119, "channel": 0}, {"type": "note_off", "time": 74, "note": 63, "velocity": 119, "channel": 0}, {"type": "note_on", "time": 8, "note": 68, "velocity": 119, "channel": 0}, {"type": "note_off", "time": 102, "note": 68, "velocity": 119, "channel": 0}, {"type": "note_on", "time": 464, "note": 54, "velocity": 117, "channel": 0}, {"type": "note_off", "time": 52, "note": 54, "velocity": 117, "channel": 0}, {"type": "note_on", "time": 9, "note": 55, "velocity": 116, "channel": 0}, {"type": "note_off", "time": 101, "note": 55, "velocity": 116, "channel": 0}, {"type": "note_on", "time": 16, "note": 58, "velocity": 115, "channel": 0}, {"type": "note_off", "time": 33, "note": 58, "velocity": 115, "channel": 0}, {"type": "note_on", "time": 10, "note": 61, "velocity": 118, "channel": 0}, {"type": "note_off", "time": 40, "note": 61, "velocity": 118, "channel": 0}, {"type": "note_on", "time": 12, "note": 65, "velocity": 122, "channel": 0}, {"type": "note_off", "time": 81, "note": 65, "velocity": 122, "channel": 0}, {"type": "note_on", "time": 12, "note": 62, "velocity": 118, "channel": 0}, {"type": "note_off", "time": 109, "note": 62, "velocity": 118, "channel": 0}, {"type": "note_on", "time": 61, "note": 53, "velocity": 111, "channel": 0}, {"type": "note_off", "time": 81, "note": 53, "velocity": 111, "channel": 0}, {"type": "note_on", "time": 4, "note": 54, "velocity": 110, "channel": 0}, {"type": "note_off", "time": 102, "note": 54, "velocity": 110, "channel": 0}, {"type": "note_on", "time": 19, "note": 56, "velocity": 113, "channel": 0}, {"type": "note_off", "time": 45, "note": 56, "velocity": 113, "channel": 0}, {"type": "note_on", "time": 15, "note": 61, "velocity": 110, "channel": 0}, {"type": "note_off", "time": 58, "note": 61, "velocity": 110, "channel": 0}, {"type": "note_on", "time": 20, "note": 65, "velocity": 116, "channel": 0}, {"type": "note_off", "time": 54, "note": 65, "velocity": 116, "channel": 0}, {"type": "note_on", "time": 29, "note": 69, "velocity": 100, "channel": 0}, {"type": "note_off", "time": 68, "note": 69, "velocity": 100, "channel": 0}, {"type": "note_on", "time": 499, "note": 64, "velocity": 120, "channel": 0}, {"type": "note_off", "time": 95, "note": 64, "velocity": 120, "channel": 0}, {"type": "note_on", "time": 12, "note": 62, "velocity": 115, "channel": 0}, {"type": "note_off", "time": 61, "note": 62, "velocity": 115, "channel": 0}, {"type": "note_on", "time": 9, "note": 60, "velocity": 117, "channel": 0}, {"type": "note_off", "time": 87, "note": 60, "velocity": 117, "channel": 0}, {"type": "note_on", "time": 9, "note": 57, "velocity": 112, "channel": 0}, {"type": "note_off", "time": 97, "note": 57, "velocity": 112, "channel": 0}, {"type": "note_on", "time": 17, "note": 55, "velocity": 110, "channel": 0}, {"type": "note_off", "time": 50, "note": 55, "velocity": 110, "channel": 0}, {"type": "note_on", "time": 6, "note": 53, "velocity": 104, "channel": 0}, {"type": "note_off", "time": 65, "note": 53, "velocity": 104, "channel": 0}, {"type": "note_on", "time": 13, "note": 52, "velocity": 112, "channel": 0}, {"type": "note_off", "time": 149, "note": 52, "velocity": 112, "channel": 0}, {"type": "note_on", "time": 24, "note": 48, "velocity": 106, "channel": 0}, {"type": "note_off", "time": 51, "note": 48, "velocity": 106, "channel": 0}, {"type": "note_on", "time": 6, "note": 50, "velocity": 105, "channel": 0}, {"type": "note_off", "time": 135, "note": 50, "velocity": 105, "channel": 0}, {"type": "note_on", "time": 62, "note": 55, "velocity": 112, "channel": 0}, {"type": "note_off", "time": 89, "note": 55, "velocity": 112, "channel": 0}, {"type": "note_on", "time": 13, "note": 53, "velocity": 112, "channel": 0}, {"type": "note_off", "time": 79, "note": 53, "velocity": 112, "channel": 0}, {"type": "note_on", "time": 4, "note": 52, "velocity": 114, "channel": 0}, {"type": "note_off", "time": 76, "note": 52, "velocity": 114, "channel": 0}, {"type": "note_on", "time": 35, "note": 53, "velocity": 107, "channel": 0}, {"type": "note_off", "time": 50, "note": 53, "velocity": 107, "channel": 0}, {"type": "note_on", "time": 11, "note": 58, "velocity": 111, "channel": 0}, {"type": "note_off", "time": 102, "note": 58, "velocity": 111, "channel": 0}, {"type": "note_on", "time": 11, "note": 57, "velocity": 110, "channel": 0}, {"type": "note_off", "time": 53, "note": 57, "velocity": 110, "channel": 0}, {"type": "note_on", "time": 17, "note": 56, "velocity": 114, "channel": 0}, {"type": "note_off", "time": 56, "note": 56, "velocity": 114, "channel": 0}, {"type": "note_on", "time": 3, "note": 55, "velocity": 113, "channel": 0}, {"type": "note_off", "time": 44, "note": 55, "velocity": 113, "channel": 0}, {"type": "note_on", "time": 10, "note": 57, "velocity": 112, "channel": 0}, {"type": "note_off", "time": 76, "note": 57, "velocity": 112, "channel": 0}, {"type": "note_on", "time": 28, "note": 60, "velocity": 115, "channel": 0}, {"type": "note_off", "time": 71, "note": 60, "velocity": 115, "channel": 0}, {"type": "note_on", "time": 8, "note": 59, "velocity": 113, "channel": 0}, {"type": "note_off", "time": 90, "note": 59, "velocity": 113, "channel": 0}, {"type": "note_on", "time": 10, "note": 60, "velocity": 116, "channel": 0}, {"type": "note_off", "time": 109, "note": 60, "velocity": 116, "channel": 0}, {"type": "note_on", "time": 41, "note": 62, "velocity": 114, "channel": 0}, {"type": "note_off", "time": 59, "note": 62, "velocity": 114, "channel": 0}, {"type": "note_on", "time": 9, "note": 63, "velocity": 121, "channel": 0}, {"type": "note_off", "time": 81, "note": 63, "velocity": 121, "channel": 0}, {"type": "note_on", "time": 14, "note": 59, "velocity": 110, "channel": 0}, {"type": "note_off", "time": 47, "note": 59, "velocity": 110, "channel": 0}, {"type": "note_on", "time": 16, "note": 56, "velocity": 113, "channel": 0}, {"type": "note_off", "time": 37, "note": 56, "velocity": 113, "channel": 0}, {"type": "note_on", "time": 12, "note": 55, "velocity": 110, "channel": 0}, {"type": "note_off", "time": 59, "note": 55, "velocity": 110, "channel": 0}, {"type": "note_on", "time": 19, "note": 53, "velocity": 103, "channel": 0}, {"type": "note_off", "time": 45, "note": 53, "velocity": 103, "channel": 0}, {"type": "note_on", "time": 45, "note": 58, "velocity": 108, "channel": 0}, {"type": "note_off", "time": 73, "note": 58, "velocity": 108, "channel": 0}, {"type": "note_on", "time": 37, "note": 55, "velocity": 106, "channel": 0}, {"type": "note_off", "time": 70, "note": 55, "velocity": 106, "channel": 0}, {"type": "note_on", "time": 7, "note": 53, "velocity": 106, "channel": 0}, {"type": "note_off", "time": 78, "note": 53, "velocity": 106, "channel": 0}, {"type": "note_on", "time": 15, "note": 51, "velocity": 113, "channel": 0}, {"type": "note_off", "time": 75, "note": 51, "velocity": 113, "channel": 0}, {"type": "note_on", "time": 9, "note": 50, "velocity": 105, "channel": 0}, {"type": "note_off", "time": 88, "note": 50, "velocity": 105, "channel": 0}, {"type": "note_on", "time": 25, "note": 46, "velocity": 108, "channel": 0}, {"type": "note_off", "time": 64, "note": 46, "velocity": 108, "channel": 0}, {"type": "note_on", "time": 7, "note": 48, "velocity": 105, "channel": 0}, {"type": "note_off", "time": 88, "note": 48, "velocity": 105, "channel": 0}, {"type": "note_on", "time": 27, "note": 50, "velocity": 109, "channel": 0}, {"type": "note_off", "time": 102, "note": 50, "velocity": 109, "channel": 0}, {"type": "note_on", "time": 18, "note": 53, "velocity": 115, "channel": 0}, {"type": "note_off", "time": 99, "note": 53, "velocity": 115, "channel": 0}, {"type": "note_on", "time": 13, "note": 51, "velocity": 108, "channel": 0}, {"type": "note_off", "time": 105, "note": 51, "velocity": 108, "channel": 0}, {"type": "note_on", "time": 16, "note": 49, "velocity": 102, "channel": 0}, {"type": "note_off", "time": 75, "note": 49, "velocity": 102, "channel": 0}, {"type": "note_on", "time": 7, "note": 51, "velocity": 104, "channel": 0}, {"type": "note_off", "time": 56, "note": 51, "velocity": 104, "channel": 0}, {"type": "note_on", "time": 9, "note": 56, "velocity": 107, "channel": 0}, {"type": "note_off", "time": 72, "note": 56, "velocity": 107, "channel": 0}, {"type": "note_on", "time": 12, "note": 58, "velocity": 105, "channel": 0}, {"type": "note_off", "time": 50, "note": 58, "velocity": 105, "channel": 0}, {"type": "note_on", "time": 9, "note": 61, "velocity": 116, "channel": 0}, {"type": "note_off", "time": 102, "note": 61, "velocity": 116, "channel": 0}, {"type": "note_on", "time": 9, "note": 60, "velocity": 114, "channel": 0}, {"type": "note_off", "time": 105, "note": 60, "velocity": 114, "channel": 0}, {"type": "note_on", "time": 414, "note": 63, "velocity": 118, "channel": 0}, {"type": "note_off", "time": 88, "note": 63, "velocity": 118, "channel": 0}, {"type": "note_on", "time": 13, "note": 59, "velocity": 115, "channel": 0}, {"type": "note_off", "time": 52, "note": 59, "velocity": 115, "channel": 0}, {"type": "note_on", "time": 6, "note": 56, "velocity": 114, "channel": 0}, {"type": "note_off", "time": 56, "note": 56, "velocity": 114, "channel": 0}, {"type": "note_on", "time": 14, "note": 53, "velocity": 108, "channel": 0}, {"type": "note_off", "time": 51, "note": 53, "velocity": 108, "channel": 0}, {"type": "note_on", "time": 9, "note": 53, "velocity": 111, "channel": 0}, {"type": "note_off", "time": 65, "note": 53, "velocity": 111, "channel": 0}, {"type": "note_on", "time": 111, "note": 62, "velocity": 116, "channel": 0}, {"type": "note_off", "time": 109, "note": 62, "velocity": 116, "channel": 0}, {"type": "note_on", "time": 16, "note": 63, "velocity": 116, "channel": 0}, {"type": "note_off", "time": 99, "note": 63, "velocity": 116, "channel": 0}, {"type": "note_on", "time": 1, "note": 60, "velocity": 118, "channel": 0}, {"type": "note_off", "time": 86, "note": 60, "velocity": 118, "channel": 0}, {"type": "note_on", "time": 22, "note": 56, "velocity": 111, "channel": 0}, {"type": "note_off", "time": 98, "note": 56, "velocity": 111, "channel": 0}, {"type": "note_on", "time": 10, "note": 54, "velocity": 107, "channel": 0}, {"type": "note_off", "time": 109, "note": 54, "velocity": 107, "channel": 0}, {"type": "note_on", "time": 40, "note": 58, "velocity": 106, "channel": 0}, {"type": "note_off", "time": 75, "note": 58, "velocity": 106, "channel": 0}, {"type": "note_on", "time": 353, "note": 62, "velocity": 116, "channel": 0}, {"type": "note_off", "time": 97, "note": 62, "velocity": 116, "channel": 0}, {"type": "note_on", "time": 6, "note": 60, "velocity": 113, "channel": 0}, {"type": "note_off", "time": 88, "note": 60, "velocity": 113, "channel": 0}, {"type": "note_on", "time": 4, "note": 58, "velocity": 112, "channel": 0}, {"type": "note_off", "time": 85, "note": 58, "velocity": 112, "channel": 0}, {"type": "note_on", "time": 11, "note": 55, "velocity": 113, "channel": 0}, {"type": "note_off", "time": 78, "note": 55, "velocity": 113, "channel": 0}, {"type": "note_on", "time": 6, "note": 53, "velocity": 110, "channel": 0}, {"type": "note_off", "time": 86, "note": 53, "velocity": 110, "channel": 0}, {"type": "note_on", "time": 19, "note": 51, "velocity": 107, "channel": 0}, {"type": "note_off", "time": 93, "note": 51, "velocity": 107, "channel": 0}, {"type": "note_on", "time": 4, "note": 50, "velocity": 105, "channel": 0}, {"type": "note_off", "time": 101, "note": 50, "velocity": 105, "channel": 0}, {"type": "note_on", "time": 10, "note": 51, "velocity": 105, "channel": 0}, {"type": "note_off", "time": 79, "note": 51, "velocity": 105, "channel": 0}, {"type": "note_on", "time": 7, "note": 55, "velocity": 104, "channel": 0}, {"type": "note_off", "time": 89, "note": 55, "velocity": 104, "channel": 0}, {"type": "note_on", "time": 14, "note": 58, "velocity": 97, "channel": 0}, {"type": "note_off", "time": 85, "note": 58, "velocity": 97, "channel": 0}, {"type": "note_on", "time": 13, "note": 62, "velocity": 119, "channel": 0}, {"type": "note_off", "time": 94, "note": 62, "velocity": 119, "channel": 0}, {"type": "note_on", "time": 14, "note": 60, "velocity": 114, "channel": 0}, {"type": "note_off", "time": 100, "note": 60, "velocity": 114, "channel": 0}, {"type": "note_on", "time": 83, "note": 50, "velocity": 110, "channel": 0}, {"type": "note_off", "time": 93, "note": 50, "velocity": 110, "channel": 0}, {"type": "note_on", "time": 79, "note": 52, "velocity": 114, "channel": 0}, {"type": "note_off", "time": 82, "note": 52, "velocity": 114, "channel": 0}, {"type": "note_on", "time": 9, "note": 53, "velocity": 102, "channel": 0}, {"type": "note_off", "time": 91, "note": 53, "velocity": 102, "channel": 0}, {"type": "note_on", "time": 18, "note": 57, "velocity": 112, "channel": 0}, {"type": "note_off", "time": 60, "note": 57, "velocity": 112, "channel": 0}, {"type": "note_on", "time": 3, "note": 60, "velocity": 117, "channel": 0}, {"type": "note_off", "time": 77, "note": 60, "velocity": 117, "channel": 0}, {"type": "note_on", "time": 368, "note": 60, "velocity": 115, "channel": 0}, {"type": "note_off", "time": 101, "note": 60, "velocity": 115, "channel": 0}, {"type": "note_on", "time": 21, "note": 57, "velocity": 113, "channel": 0}, {"type": "note_off", "time": 40, "note": 57, "velocity": 113, "channel": 0}, {"type": "note_on", "time": 9, "note": 59, "velocity": 114, "channel": 0}, {"type": "note_off", "time": 73, "note": 59, "velocity": 114, "channel": 0}, {"type": "note_on", "time": 32, "note": 62, "velocity": 120, "channel": 0}, {"type": "note_off", "time": 54, "note": 62, "velocity": 120, "channel": 0}, {"type": "note_on", "time": 30, "note": 56, "velocity": 113, "channel": 0}, {"type": "note_off", "time": 115, "note": 56, "velocity": 113, "channel": 0}, {"type": "note_on", "time": 9, "note": 53, "velocity": 108, "channel": 0}, {"type": "note_off", "time": 47, "note": 53, "velocity": 108, "channel": 0}, {"type": "note_on", "time": 3, "note": 55, "velocity": 110, "channel": 0}, {"type": "note_off", "time": 105, "note": 55, "velocity": 110, "channel": 0}, {"type": "note_on", "time": 30, "note": 53, "velocity": 104, "channel": 0}, {"type": "note_off", "time": 51, "note": 53, "velocity": 104, "channel": 0}, {"type": "note_on", "time": 9, "note": 52, "velocity": 107, "channel": 0}, {"type": "note_off", "time": 90, "note": 52, "velocity": 107, "channel": 0}, {"type": "note_on", "time": 30, "note": 55, "velocity": 100, "channel": 0}, {"type": "note_off", "time": 82, "note": 55, "velocity": 100, "channel": 0}, {"type": "note_on", "time": 10, "note": 57, "velocity": 107, "channel": 0}, {"type": "note_off", "time": 68, "note": 57, "velocity": 107, "channel": 0}, {"type": "note_on", "time": 8, "note": 59, "velocity": 95, "channel": 0}, {"type": "note_off", "time": 46, "note": 59, "velocity": 95, "channel": 0}, {"type": "note_on", "time": 21, "note": 61, "velocity": 119, "channel": 0}, {"type": "note_off", "time": 61, "note": 61, "velocity": 119, "channel": 0}, {"type": "note_on", "time": 4, "note": 62, "velocity": 119, "channel": 0}, {"type": "note_off", "time": 173, "note": 62, "velocity": 119, "channel": 0}, {"type": "note_on", "time": 26, "note": 60, "velocity": 114, "channel": 0}, {"type": "note_off", "time": 78, "note": 60, "velocity": 114, "channel": 0}, {"type": "note_on", "time": 16, "note": 59, "velocity": 116, "channel": 0}, {"type": "note_off", "time": 119, "note": 59, "velocity": 116, "channel": 0}, {"type": "note_on", "time": 11, "note": 60, "velocity": 115, "channel": 0}, {"type": "note_off", "time": 60, "note": 60, "velocity": 115, "channel": 0}, {"type": "note_on", "time": 8, "note": 59, "velocity": 112, "channel": 0}, {"type": "note_off", "time": 86, "note": 59, "velocity": 112, "channel": 0}, {"type": "note_on", "time": 19, "note": 57, "velocity": 114, "channel": 0}, {"type": "note_off", "time": 87, "note": 57, "velocity": 114, "channel": 0}, {"type": "note_on", "time": 24, "note": 55, "velocity": 111, "channel": 0}, {"type": "note_off", "time": 62, "note": 55, "velocity": 111, "channel": 0}, {"type": "note_on", "time": 32, "note": 52, "velocity": 111, "channel": 0}, {"type": "note_off", "time": 77, "note": 52, "velocity": 111, "channel": 0}, {"type": "note_on", "time": 18, "note": 50, "velocity": 108, "channel": 0}, {"type": "note_off", "time": 89, "note": 50, "velocity": 108, "channel": 0}, {"type": "note_on", "time": 303, "note": 45, "velocity": 112, "channel": 0}, {"type": "note_off", "time": 124, "note": 45, "velocity": 112, "channel": 0}, {"type": "note_on", "time": 8, "note": 47, "velocity": 112, "channel": 0}, {"type": "note_off", "time": 36, "note": 47, "velocity": 112, "channel": 0}, {"type": "note_on", "time": 5, "note": 48, "velocity": 111, "channel": 0}, {"type": "note_off", "time": 36, "note": 48, "velocity": 111, "channel": 0}, {"type": "note_on", "time": 2, "note": 52, "velocity": 115, "channel": 0}, {"type": "note_off", "time": 84, "note": 52, "velocity": 115, "channel": 0}, {"type": "note_on", "time": 7, "note": 54, "velocity": 110, "channel": 0}, {"type": "note_off", "time": 34, "note": 54, "velocity": 110, "channel": 0}, {"type": "note_on", "time": 5, "note": 56, "velocity": 116, "channel": 0}, {"type": "note_off", "time": 75, "note": 56, "velocity": 116, "channel": 0}, {"type": "note_on", "time": 132, "note": 54, "velocity": 109, "channel": 0}, {"type": "note_off", "time": 145, "note": 54, "velocity": 109, "channel": 0}, {"type": "note_on", "time": 8, "note": 53, "velocity": 102, "channel": 0}, {"type": "note_off", "time": 71, "note": 53, "velocity": 102, "channel": 0}, {"type": "note_on", "time": 467, "note": 53, "velocity": 114, "channel": 0}, {"type": "note_off", "time": 98, "note": 53, "velocity": 114, "channel": 0}, {"type": "note_on", "time": 5, "note": 55, "velocity": 113, "channel": 0}, {"type": "note_off", "time": 63, "note": 55, "velocity": 113, "channel": 0}, {"type": "note_on", "time": 7, "note": 56, "velocity": 114, "channel": 0}, {"type": "note_off", "time": 79, "note": 56, "velocity": 114, "channel": 0}, {"type": "note_on", "time": 9, "note": 58, "velocity": 110, "channel": 0}, {"type": "note_off", "time": 68, "note": 58, "velocity": 110, "channel": 0}, {"type": "note_on", "time": 4, "note": 60, "velocity": 118, "channel": 0}, {"type": "note_off", "time": 86, "note": 60, "velocity": 118, "channel": 0}, {"type": "note_on", "time": 8, "note": 62, "velocity": 114, "channel": 0}, {"type": "note_off", "time": 56, "note": 62, "velocity": 114, "channel": 0}, {"type": "note_on", "time": 7, "note": 60, "velocity": 116, "channel": 0}, {"type": "note_off", "time": 57, "note": 60, "velocity": 116, "channel": 0}, {"type": "note_on", "time": 4, "note": 59, "velocity": 110, "channel": 0}, {"type": "note_off", "time": 60, "note": 59, "velocity": 110, "channel": 0}, {"type": "note_on", "time": 409, "note": 61, "velocity": 119, "channel": 0}, {"type": "note_off", "time": 74, "note": 61, "velocity": 119, "channel": 0}, {"type": "note_on", "time": 13, "note": 60, "velocity": 116, "channel": 0}, {"type": "note_off", "time": 88, "note": 60, "velocity": 116, "channel": 0}, {"type": "note_on", "time": 17, "note": 59, "velocity": 117, "channel": 0}, {"type": "note_off", "time": 91, "note": 59, "velocity": 117, "channel": 0}, {"type": "note_on", "time": 20, "note": 56, "velocity": 117, "channel": 0}, {"type": "note_off", "time": 87, "note": 56, "velocity": 117, "channel": 0}, {"type": "note_on", "time": 8, "note": 55, "velocity": 114, "channel": 0}, {"type": "note_off", "time": 76, "note": 55, "velocity": 114, "channel": 0}, {"type": "note_on", "time": 33, "note": 52, "velocity": 116, "channel": 0}, {"type": "note_off", "time": 73, "note": 52, "velocity": 116, "channel": 0}, {"type": "note_on", "time": 10, "note": 48, "velocity": 113, "channel": 0}, {"type": "note_off", "time": 176, "note": 48, "velocity": 113, "channel": 0}, {"type": "note_on", "time": 12, "note": 50, "velocity": 108, "channel": 0}, {"type": "note_off", "time": 199, "note": 50, "velocity": 108, "channel": 0}, {"type": "note_on", "time": 370, "note": 52, "velocity": 119, "channel": 0}, {"type": "note_off", "time": 78, "note": 52, "velocity": 119, "channel": 0}, {"type": "note_on", "time": 16, "note": 53, "velocity": 111, "channel": 0}, {"type": "note_off", "time": 70, "note": 53, "velocity": 111, "channel": 0}, {"type": "note_on", "time": 7, "note": 55, "velocity": 110, "channel": 0}, {"type": "note_off", "time": 106, "note": 55, "velocity": 110, "channel": 0}, {"type": "note_on", "time": 16, "note": 57, "velocity": 113, "channel": 0}, {"type": "note_off", "time": 77, "note": 57, "velocity": 113, "channel": 0}, {"type": "note_on", "time": 6, "note": 58, "velocity": 111, "channel": 0}, {"type": "note_off", "time": 68, "note": 58, "velocity": 111, "channel": 0}, {"type": "note_on", "time": 22, "note": 56, "velocity": 112, "channel": 0}, {"type": "note_off", "time": 70, "note": 56, "velocity": 112, "channel": 0}, {"type": "note_on", "time": 9, "note": 57, "velocity": 112, "channel": 0}, {"type": "note_off", "time": 91, "note": 57, "velocity": 112, "channel": 0}, {"type": "note_on", "time": 15, "note": 55, "velocity": 106, "channel": 0}, {"type": "note_off", "time": 61, "note": 55, "velocity": 106, "channel": 0}, {"type": "note_on", "time": 21, "note": 53, "velocity": 108, "channel": 0}, {"type": "note_off", "time": 122, "note": 53, "velocity": 108, "channel": 0}, {"type": "note_on", "time": 1103, "note": 56, "velocity": 119, "channel": 0}, {"type": "note_off", "time": 46, "note": 56, "velocity": 119, "channel": 0}, {"type": "note_on", "time": 2, "note": 54, "velocity": 109, "channel": 0}, {"type": "note_off", "time": 46, "note": 54, "velocity": 109, "channel": 0}, {"type": "note_on", "time": 8, "note": 53, "velocity": 116, "channel": 0}, {"type": "note_off", "time": 59, "note": 53, "velocity": 116, "channel": 0}, {"type": "note_on", "time": 0, "note": 49, "velocity": 115, "channel": 0}, {"type": "note_off", "time": 86, "note": 49, "velocity": 115, "channel": 0}, {"type": "note_on", "time": 21, "note": 46, "velocity": 108, "channel": 0}, {"type": "note_off", "time": 65, "note": 46, "velocity": 108, "channel": 0}, {"type": "note_on", "time": 25, "note": 49, "velocity": 107, "channel": 0}, {"type": "note_off", "time": 50, "note": 49, "velocity": 107, "channel": 0}, {"type": "note_on", "time": 3, "note": 50, "velocity": 109, "channel": 0}, {"type": "note_off", "time": 247, "note": 50, "velocity": 109, "channel": 0}, {"type": "note_on", "time": 84, "note": 49, "velocity": 114, "channel": 0}, {"type": "note_off", "time": 70, "note": 49, "velocity": 114, "channel": 0}, {"type": "note_on", "time": 101, "note": 52, "velocity": 117, "channel": 0}, {"type": "note_off", "time": 87, "note": 52, "velocity": 117, "channel": 0}, {"type": "note_on", "time": 21, "note": 46, "velocity": 110, "channel": 0}, {"type": "note_off", "time": 191, "note": 46, "velocity": 110, "channel": 0}, {"type": "note_on", "time": 262, "note": 52, "velocity": 121, "channel": 0}, {"type": "note_off", "time": 78, "note": 52, "velocity": 121, "channel": 0}, {"type": "note_on", "time": 12, "note": 48, "velocity": 111, "channel": 0}, {"type": "note_off", "time": 39, "note": 48, "velocity": 111, "channel": 0}, {"type": "note_on", "time": 14, "note": 45, "velocity": 123, "channel": 0}, {"type": "note_off", "time": 48, "note": 45, "velocity": 123, "channel": 0}, {"type": "note_on", "time": 16, "note": 46, "velocity": 121, "channel": 0}, {"type": "note_off", "time": 32, "note": 46, "velocity": 121, "channel": 0}, {"type": "note_on", "time": 26, "note": 46, "velocity": 113, "channel": 0}, {"type": "note_off", "time": 58, "note": 46, "velocity": 113, "channel": 0}, {"type": "note_on", "time": 233, "note": 50, "velocity": 114, "channel": 0}, {"type": "note_off", "time": 85, "note": 50, "velocity": 114, "channel": 0}, {"type": "note_on", "time": 16, "note": 47, "velocity": 110, "channel": 0}, {"type": "note_off", "time": 82, "note": 47, "velocity": 110, "channel": 0}, {"type": "note_on", "time": 4, "note": 48, "velocity": 117, "channel": 0}, {"type": "note_off", "time": 84, "note": 48, "velocity": 117, "channel": 0}, {"type": "note_on", "time": 17, "note": 50, "velocity": 114, "channel": 0}, {"type": "note_off", "time": 63, "note": 50, "velocity": 114, "channel": 0}, {"type": "note_on", "time": 9, "note": 51, "velocity": 117, "channel": 0}, {"type": "note_off", "time": 76, "note": 51, "velocity": 117, "channel": 0}, {"type": "note_on", "time": 23, "note": 53, "velocity": 111, "channel": 0}, {"type": "note_off", "time": 80, "note": 53, "velocity": 111, "channel": 0}, {"type": "note_on", "time": 12, "note": 55, "velocity": 112, "channel": 0}, {"type": "note_off", "time": 69, "note": 55, "velocity": 112, "channel": 0}, {"type": "note_on", "time": 12, "note": 57, "velocity": 114, "channel": 0}, {"type": "note_off", "time": 63, "note": 57, "velocity": 114, "channel": 0}, {"type": "note_on", "time": 3, "note": 62, "velocity": 119, "channel": 0}, {"type": "note_off", "time": 98, "note": 62, "velocity": 119, "channel": 0}, {"type": "note_on", "time": 19, "note": 60, "velocity": 116, "channel": 0}, {"type": "note_off", "time": 108, "note": 60, "velocity": 116, "channel": 0}, {"type": "note_on", "time": 262, "note": 49, "velocity": 115, "channel": 0}, {"type": "note_off", "time": 60, "note": 49, "velocity": 115, "channel": 0}, {"type": "note_on", "time": 11, "note": 50, "velocity": 108, "channel": 0}, {"type": "note_off", "time": 59, "note": 50, "velocity": 108, "channel": 0}, {"type": "note_on", "time": 33, "note": 53, "velocity": 105, "channel": 0}, {"type": "note_off", "time": 52, "note": 53, "velocity": 105, "channel": 0}, {"type": "note_on", "time": 4, "note": 55, "velocity": 107, "channel": 0}, {"type": "note_off", "time": 64, "note": 55, "velocity": 107, "channel": 0}, {"type": "note_on", "time": 2, "note": 57, "velocity": 113, "channel": 0}, {"type": "note_off", "time": 105, "note": 57, "velocity": 113, "channel": 0}, {"type": "note_on", "time": 13, "note": 60, "velocity": 119, "channel": 0}, {"type": "note_off", "time": 100, "note": 60, "velocity": 119, "channel": 0}, {"type": "note_on", "time": 14, "note": 58, "velocity": 111, "channel": 0}, {"type": "note_off", "time": 86, "note": 58, "velocity": 111, "channel": 0}, {"type": "note_on", "time": 94, "note": 48, "velocity": 112, "channel": 0}, {"type": "note_off", "time": 98, "note": 48, "velocity": 112, "channel": 0}, {"type": "note_on", "time": 9, "note": 49, "velocity": 104, "channel": 0}, {"type": "note_off", "time": 89, "note": 49, "velocity": 104, "channel": 0}, {"type": "note_on", "time": 47, "note": 53, "velocity": 111, "channel": 0}, {"type": "note_off", "time": 46, "note": 53, "velocity": 111, "channel": 0}, {"type": "note_on", "time": 26, "note": 55, "velocity": 106, "channel": 0}, {"type": "note_off", "time": 51, "note": 55, "velocity": 106, "channel": 0}, {"type": "note_on", "time": 9, "note": 57, "velocity": 112, "channel": 0}, {"type": "note_off", "time": 80, "note": 57, "velocity": 112, "channel": 0}, {"type": "note_on", "time": 20, "note": 60, "velocity": 118, "channel": 0}, {"type": "note_off", "time": 81, "note": 60, "velocity": 118, "channel": 0}, {"type": "note_on", "time": 10, "note": 63, "velocity": 119, "channel": 0}, {"type": "note_off", "time": 102, "note": 63, "velocity": 119, "channel": 0}, {"type": "note_on", "time": 494, "note": 64, "velocity": 119, "channel": 0}, {"type": "note_off", "time": 89, "note": 64, "velocity": 119, "channel": 0}, {"type": "note_on", "time": 8, "note": 62, "velocity": 122, "channel": 0}, {"type": "note_off", "time": 68, "note": 62, "velocity": 122, "channel": 0}, {"type": "note_on", "time": 3, "note": 60, "velocity": 117, "channel": 0}, {"type": "note_off", "time": 107, "note": 60, "velocity": 117, "channel": 0}, {"type": "note_on", "time": 31, "note": 57, "velocity": 110, "channel": 0}, {"type": "note_off", "time": 90, "note": 57, "velocity": 110, "channel": 0}, {"type": "note_on", "time": 5, "note": 55, "velocity": 111, "channel": 0}, {"type": "note_off", "time": 43, "note": 55, "velocity": 111, "channel": 0}, {"type": "note_on", "time": 5, "note": 54, "velocity": 109, "channel": 0}, {"type": "note_off", "time": 45, "note": 54, "velocity": 109, "channel": 0}, {"type": "note_on", "time": 7, "note": 53, "velocity": 114, "channel": 0}, {"type": "note_off", "time": 61, "note": 53, "velocity": 114, "channel": 0}, {"type": "note_on", "time": 8, "note": 52, "velocity": 112, "channel": 0}, {"type": "note_off", "time": 64, "note": 52, "velocity": 112, "channel": 0}, {"type": "note_on", "time": 9, "note": 48, "velocity": 108, "channel": 0}, {"type": "note_off", "time": 70, "note": 48, "velocity": 108, "channel": 0}, {"type": "note_on", "time": 0, "note": 51, "velocity": 116, "channel": 0}, {"type": "note_off", "time": 90, "note": 51, "velocity": 116, "channel": 0}, {"type": "note_on", "time": 33, "note": 58, "velocity": 109, "channel": 0}, {"type": "note_off", "time": 99, "note": 58, "velocity": 109, "channel": 0}, {"type": "note_on", "time": 262, "note": 49, "velocity": 110, "channel": 0}, {"type": "note_off", "time": 62, "note": 49, "velocity": 110, "channel": 0}, {"type": "note_on", "time": 4, "note": 50, "velocity": 111, "channel": 0}, {"type": "note_off", "time": 52, "note": 50, "velocity": 111, "channel": 0}, {"type": "note_on", "time": 47, "note": 53, "velocity": 111, "channel": 0}, {"type": "note_off", "time": 43, "note": 53, "velocity": 111, "channel": 0}, {"type": "note_on", "time": 7, "note": 57, "velocity": 114, "channel": 0}, {"type": "note_off", "time": 29, "note": 57, "velocity": 114, "channel": 0}, {"type": "note_on", "time": 4, "note": 60, "velocity": 114, "channel": 0}, {"type": "note_off", "time": 53, "note": 60, "velocity": 114, "channel": 0}, {"type": "note_on", "time": 6, "note": 58, "velocity": 109, "channel": 0}, {"type": "note_off", "time": 37, "note": 58, "velocity": 109, "channel": 0}, {"type": "note_on", "time": 7, "note": 57, "velocity": 110, "channel": 0}, {"type": "note_off", "time": 121, "note": 57, "velocity": 110, "channel": 0}, {"type": "note_on", "time": 15, "note": 58, "velocity": 112, "channel": 0}, {"type": "note_off", "time": 51, "note": 58, "velocity": 112, "channel": 0}, {"type": "note_on", "time": 5, "note": 60, "velocity": 118, "channel": 0}, {"type": "note_off", "time": 84, "note": 60, "velocity": 118, "channel": 0}, {"type": "note_on", "time": 11, "note": 61, "velocity": 116, "channel": 0}, {"type": "note_off", "time": 89, "note": 61, "velocity": 116, "channel": 0}, {"type": "note_on", "time": 14, "note": 63, "velocity": 116, "channel": 0}, {"type": "note_off", "time": 61, "note": 63, "velocity": 116, "channel": 0}, {"type": "note_on", "time": 78, "note": 60, "velocity": 118, "channel": 0}, {"type": "note_off", "time": 81, "note": 60, "velocity": 118, "channel": 0}, {"type": "note_on", "time": 72, "note": 58, "velocity": 110, "channel": 0}, {"type": "note_off", "time": 71, "note": 58, "velocity": 110, "channel": 0}, {"type": "note_on", "time": 30, "note": 53, "velocity": 114, "channel": 0}, {"type": "note_off", "time": 91, "note": 53, "velocity": 114, "channel": 0}, {"type": "note_on", "time": 9, "note": 55, "velocity": 110, "channel": 0}, {"type": "note_off", "time": 40, "note": 55, "velocity": 110, "channel": 0}, {"type": "note_on", "time": 9, "note": 56, "velocity": 117, "channel": 0}, {"type": "note_off", "time": 45, "note": 56, "velocity": 117, "channel": 0}, {"type": "note_on", "time": 5, "note": 57, "velocity": 110, "channel": 0}, {"type": "note_off", "time": 111, "note": 57, "velocity": 110, "channel": 0}, {"type": "note_on", "time": 249, "note": 57, "velocity": 114, "channel": 0}, {"type": "note_off", "time": 98, "note": 57, "velocity": 114, "channel": 0}, {"type": "note_on", "time": 6, "note": 60, "velocity": 119, "channel": 0}, {"type": "note_off", "time": 70, "note": 60, "velocity": 119, "channel": 0}, {"type": "note_on", "time": 4, "note": 63, "velocity": 114, "channel": 0}, {"type": "note_off", "time": 35, "note": 63, "velocity": 114, "channel": 0}, {"type": "note_on", "time": 1, "note": 64, "velocity": 120, "channel": 0}, {"type": "note_off", "time": 67, "note": 64, "velocity": 120, "channel": 0}, {"type": "note_on", "time": 7, "note": 62, "velocity": 117, "channel": 0}, {"type": "note_off", "time": 64, "note": 62, "velocity": 117, "channel": 0}, {"type": "note_on", "time": 14, "note": 60, "velocity": 114, "channel": 0}, {"type": "note_off", "time": 93, "note": 60, "velocity": 114, "channel": 0}, {"type": "note_on", "time": 13, "note": 57, "velocity": 116, "channel": 0}, {"type": "note_off", "time": 86, "note": 57, "velocity": 116, "channel": 0}, {"type": "note_on", "time": 18, "note": 55, "velocity": 111, "channel": 0}, {"type": "note_off", "time": 106, "note": 55, "velocity": 111, "channel": 0}, {"type": "note_on", "time": 10, "note": 53, "velocity": 108, "channel": 0}, {"type": "note_off", "time": 30, "note": 53, "velocity": 108, "channel": 0}, {"type": "note_on", "time": 5, "note": 52, "velocity": 114, "channel": 0}, {"type": "note_off", "time": 91, "note": 52, "velocity": 114, "channel": 0}, {"type": "note_on", "time": 39, "note": 48, "velocity": 108, "channel": 0}, {"type": "note_off", "time": 65, "note": 48, "velocity": 108, "channel": 0}, {"type": "note_on", "time": 9, "note": 50, "velocity": 104, "channel": 0}, {"type": "note_off", "time": 75, "note": 50, "velocity": 104, "channel": 0}, {"type": "note_on", "time": 14, "note": 52, "velocity": 101, "channel": 0}, {"type": "note_off", "time": 84, "note": 52, "velocity": 101, "channel": 0}, {"type": "note_on", "time": 28, "note": 55, "velocity": 111, "channel": 0}, {"type": "note_off", "time": 101, "note": 55, "velocity": 111, "channel": 0}, {"type": "note_on", "time": 2, "note": 52, "velocity": 107, "channel": 0}, {"type": "note_off", "time": 91, "note": 52, "velocity": 107, "channel": 0}, {"type": "note_on", "time": 8, "note": 53, "velocity": 107, "channel": 0}, {"type": "note_off", "time": 85, "note": 53, "velocity": 107, "channel": 0}, {"type": "note_on", "time": 34, "note": 55, "velocity": 110, "channel": 0}, {"type": "note_off", "time": 73, "note": 55, "velocity": 110, "channel": 0}, {"type": "note_on", "time": 381, "note": 55, "velocity": 112, "channel": 0}, {"type": "note_off", "time": 65, "note": 55, "velocity": 112, "channel": 0}, {"type": "note_on", "time": 28, "note": 57, "velocity": 115, "channel": 0}, {"type": "note_off", "time": 68, "note": 57, "velocity": 115, "channel": 0}, {"type": "note_on", "time": 8, "note": 58, "velocity": 110, "channel": 0}, {"type": "note_off", "time": 111, "note": 58, "velocity": 110, "channel": 0}, {"type": "note_on", "time": 16, "note": 56, "velocity": 118, "channel": 0}, {"type": "note_off", "time": 66, "note": 56, "velocity": 118, "channel": 0}, {"type": "note_on", "time": 11, "note": 55, "velocity": 113, "channel": 0}, {"type": "note_off", "time": 40, "note": 55, "velocity": 113, "channel": 0}, {"type": "note_on", "time": 1, "note": 57, "velocity": 112, "channel": 0}, {"type": "note_off", "time": 123, "note": 57, "velocity": 112, "channel": 0}, {"type": "note_on", "time": 86, "note": 53, "velocity": 108, "channel": 0}, {"type": "note_off", "time": 116, "note": 53, "velocity": 108, "channel": 0}, {"type": "note_on", "time": 7, "note": 50, "velocity": 104, "channel": 0}, {"type": "note_off", "time": 169, "note": 50, "velocity": 104, "channel": 0}, {"type": "end_of_track", "time": 0}]]}