{"ticks_per_beat": 192, "tracks": [[{"type": "note_on", "time": 0, "note": 64, "velocity": 107, "channel": 0}, {"type": "note_off", "time": 79, "note": 64, "velocity": 107, "channel": 0}, {"type": "note_on", "time": 36, "note": 57, "velocity": 98, "channel": 0}, {"type": "note_off", "time": 69, "note": 57, "velocity": 98, "channel": 0}, {"type": "note_on", "time": 15, "note": 60, "velocity": 108, "channel": 0}, {"type": "note_off", "time": 82, "note": 60, "velocity": 108, "channel": 0}, {"type": "note_on", "time": 21, "note": 64, "velocity": 116, "channel": 0}, {"type": "note_off", "time": 57, "note": 64, "velocity": 116, "channel": 0}, {"type": "note_on", "time": 13, "note": 62, "velocity": 110, "channel": 0}, {"type": "note_off", "time": 66, "note": 62, "velocity": 110, "channel": 0}, {"type": "note_on", "time": 6, "note": 64, "velocity": 98, "channel": 0}, {"type": "note_off", "time": 33, "note": 64, "velocity": 98, "channel": 0}, {"type": "note_on", "time": 3, "note": 62, "velocity": 105, "channel": 0}, {"type": "note_off", "time": 14, "note": 62, "velocity": 105, "channel": 0}, {"type": "note_on", "time": 4, "note": 60, "velocity": 103, "channel": 0}, {"type": "note_off", "time": 42, "note": 60, "velocity": 103, "channel": 0}, {"type": "note_on", "time": 34, "note": 65, "velocity": 103, "channel": 0}, {"type": "note_off", "time": 105, "note": 65, "velocity": 103, "channel": 0}, {"type": "note_on", "time": 15, "note": 59, "velocity": 102, "channel": 0}, {"type": "note_off", "time": 49, "note": 59, "velocity": 102, "channel": 0}, {"type": "note_on", "time": 6, "note": 62, "velocity": 92, "channel": 0}, {"type": "note_off", "time": 117, "note": 62, "velocity": 92, "channel": 0}, {"type": "note_on", "time": 12, "note": 65, "velocity": 97, "channel": 0}, {"type": "note_off", "time": 79, "note": 65, "velocity": 97, "channel": 0}, {"type": "note_on", "time": 3, "note": 64, "velocity": 95, "channel": 0}, {"type": "note_off", "time": 89, "note": 64, "velocity": 95, "channel": 0}, {"type": "note_on", "time": 24, "note": 59, "velocity": 102, "channel": 0}, {"type": "note_off", "time": 61, "note": 59, "velocity": 102, "channel": 0}, {"type": "note_on", "time": 5, "note": 62, "velocity": 112, "channel": 0}, {"type": "note_off", "time": 70, "note": 62, "velocity": 112, "channel": 0}, {"type": "note_on", "time": 8, "note": 64, "velocity": 95, "channel": 0}, {"type": "note_off", "time": 24, "note": 64, "velocity": 95, "channel": 0}, {"type": "note_on", "time": 3, "note": 62, "velocity": 103, "channel": 0}, {"type": "note_off", "time": 33, "note": 62, "velocity": 103, "channel": 0}, {"type": "note_on", "time": 3, "note": 59, "velocity": 99, "channel": 0}, {"type": "note_off", "time": 41, "note": 59, "velocity": 99, "channel": 0}, {"type": "note_on", "time": 18, "note": 60, "velocity": 100, "channel": 0}, {"type": "note_off", "time": 95, "note": 60, "velocity": 100, "channel": 0}, {"type": "note_on", "time": 16, "note": 64, "velocity": 91, "channel": 0}, {"type": "note_off", "time": 74, "note": 64, "velocity": 91, "channel": 0}, {"type": "note_on", "time": 11, "note": 59, "velocity": 104, "channel": 0}, {"type": "note_off", "time": 51, "note": 59, "velocity": 104, "channel": 0}, {"type": "note_on", "time": 12, "note": 60, "velocity": 102, "channel": 0}, {"type": "note_off", "time": 28, "note": 60, "velocity": 102, "channel": 0}, {"type": "note_on", "time": 0, "note": 59, "velocity": 104, "channel": 0}, {"type": "note_off", "time": 24, "note": 59, "velocity": 104, "channel": 0}, {"type": "note_on", "time": 5, "note": 57, "velocity": 98, "channel": 0}, {"type": "note_off", "time": 79, "note": 57, "velocity": 98, "channel": 0}, {"type": "note_on", "time": 17, "note": 56, "velocity": 93, "channel": 0}, {"type": "note_off", "time": 80, "note": 56, "velocity": 93, "channel": 0}, {"type": "note_on", "time": 14, "note": 53, "velocity": 104, "channel": 0}, {"type": "note_off", "time": 74, "note": 53, "velocity": 104, "channel": 0}, {"type": "note_on", "time": 4, "note": 52, "velocity": 80, "channel": 0}, {"type": "note_off", "time": 104, "note": 52, "velocity": 80, "channel": 0}, {"type": "note_on", "time": 6, "note": 50, "velocity": 89, "channel": 0}, {"type": "note_off", "time": 82, "note": 50, "velocity": 89, "channel": 0}, {"type": "note_on", "time": 5, "note": 48, "velocity": 90, "channel": 0}, {"type": "note_off", "time": 102, "note": 48, "velocity": 90, "channel": 0}, {"type": "note_on", "time": 9, "note": 52, "velocity": 83, "channel": 0}, {"type": "note_off", "time": 66, "note": 52, "velocity": 83, "channel": 0}, {"type": "note_on", "time": 4, "note": 47, "velocity": 91, "channel": 0}, {"type": "note_off", "time": 120, "note": 47, "velocity": 91, "channel": 0}, {"type": "note_on", "time": 5, "note": 45, "velocity": 81, "channel": 0}, {"type": "note_off", "time": 145, "note": 45, "velocity": 81, "channel": 0}, {"type": "note_on", "time": 661, "note": 48, "velocity": 116, "channel": 0}, {"type": "note_off", "time": 67, "note": 48, "velocity": 116, "channel": 0}, {"type": "note_on", "time": 0, "note": 45, "velocity": 114, "channel": 0}, {"type": "note_off", "time": 64, "note": 45, "velocity": 114, "channel": 0}, {"type": "note_on", "time": 6, "note": 46, "velocity": 116, "channel": 0}, {"type": "note_off", "time": 47, "note": 46, "velocity": 116, "channel": 0}, {"type": "note_on", "time": 32, "note": 57, "velocity": 110, "channel": 0}, {"type": "note_off", "time": 133, "note": 57, "velocity": 110, "channel": 0}, {"type": "note_on", "time": 8, "note": 55, "velocity": 114, "channel": 0}, {"type": "note_off", "time": 54, "note": 55, "velocity": 114, "channel": 0}, {"type": "note_on", "time": 15, "note": 48, "velocity": 108, "channel": 0}, {"type": "note_off", "time": 56, "note": 48, "velocity": 108, "channel": 0}, {"type": "note_on", "time": 5, "note": 49, "velocity": 101, "channel": 0}, {"type": "note_off", "time": 49, "note": 49, "velocity": 101, "channel": 0}, {"type": "note_on", "time": 30, "note": 60, "velocity": 118, "channel": 0}, {"type": "note_off", "time": 142, "note": 60, "velocity": 118, "channel": 0}, {"type": "note_on", "time": 3, "note": 58, "velocity": 116, "channel": 0}, {"type": "note_off", "time": 65, "note": 58, "velocity": 116, "channel": 0}, {"type": "note_on", "time": 48, "note": 63, "velocity": 111, "channel": 0}, {"type": "note_off", "time": 99, "note": 63, "velocity": 111, "channel": 0}, {"type": "note_on", "time": 2, "note": 61, "velocity": 107, "channel": 0}, {"type": "note_off", "time": 58, "note": 61, "velocity": 107, "channel": 0}, {"type": "note_on", "time": 9, "note": 56, "velocity": 105, "channel": 0}, {"type": "note_off", "time": 57, "note": 56, "velocity": 105, "channel": 0}, {"type": "note_on", "time": 0, "note": 54, "velocity": 111, "channel": 0}, {"type": "note_off", "time": 51, "note": 54, "velocity": 111, "channel": 0}, {"type": "note_on", "time": 5, "note": 60, "velocity": 109, "channel": 0}, {"type": "note_off", "time": 46, "note": 60, "velocity": 109, "channel": 0}, {"type": "note_on", "time": 6, "note": 58, "velocity": 109, "channel": 0}, {"type": "note_off", "time": 46, "note": 58, "velocity": 109, "channel": 0}, {"type": "note_on", "time": 3, "note": 56, "velocity": 96, "channel": 0}, {"type": "note_off", "time": 23, "note": 56, "velocity": 96, "channel": 0}, {"type": "note_on", "time": 5, "note": 57, "velocity": 89, "channel": 0}, {"type": "note_off", "time": 141, "note": 57, "velocity": 89, "channel": 0}, {"type": "note_on", "time": 30, "note": 60, "velocity": 113, "channel": 0}, {"type": "note_off", "time": 58, "note": 60, "velocity": 113, "channel": 0}, {"type": "note_on", "time": 2, "note": 57, "velocity": 103, "channel": 0}, {"type": "note_off", "time": 51, "note": 57, "velocity": 103, "channel": 0}, {"type": "note_on", "time": 0, "note": 55, "velocity": 102, "channel": 0}, {"type": "note_off", "time": 55, "note": 55, "velocity": 102, "channel": 0}, {"type": "note_on", "time": 3, "note": 53, "velocity": 114, "channel": 0}, {"type": "note_off", "time": 41, "note": 53, "velocity": 114, "channel": 0}, {"type": "note_on", "time": 22, "note": 60, "velocity": 114, "channel": 0}, {"type": "note_off", "time": 41, "note": 60, "velocity": 114, "channel": 0}, {"type": "note_on", "time": 2, "note": 56, "velocity": 104, "channel": 0}, {"type": "note_off", "time": 45, "note": 56, "velocity": 104, "channel": 0}, {"type": "note_on", "time": 5, "note": 52, "velocity": 90, "channel": 0}, {"type": "note_off", "time": 44, "note": 52, "velocity": 90, "channel": 0}, {"type": "note_on", "time": 4, "note": 48, "velocity": 86, "channel": 0}, {"type": "note_off", "time": 52, "note": 48, "velocity": 86, "channel": 0}, {"type": "note_on", "time": 3, "note": 50, "velocity": 92, "channel": 0}, {"type": "note_off", "time": 46, "note": 50, "velocity": 92, "channel": 0}, {"type": "note_on", "time": 2, "note": 52, "velocity": 86, "channel": 0}, {"type": "note_off", "time": 48, "note": 52, "velocity": 86, "channel": 0}, {"type": "note_on", "time": 5, "note": 56, "velocity": 97, "channel": 0}, {"type": "note_off", "time": 33, "note": 56, "velocity": 97, "channel": 0}, {"type": "note_on", "time": 33, "note": 53, "velocity": 87, "channel": 0}, {"type": "note_off", "time": 31, "note": 53, "velocity": 87, "channel": 0}, {"type": "note_on", "time": 4, "note": 57, "velocity": 95, "channel": 0}, {"type": "note_off", "time": 76, "note": 57, "velocity": 95, "channel": 0}, {"type": "note_on", "time": 9, "note": 60, "velocity": 102, "channel": 0}, {"type": "note_off", "time": 32, "note": 60, "velocity": 102, "channel": 0}, {"type": "note_on", "time": 4, "note": 57, "velocity": 96, "channel": 0}, {"type": "note_off", "time": 49, "note": 57, "velocity": 96, "channel": 0}, {"type": "note_on", "time": 10, "note": 52, "velocity": 82, "channel": 0}, {"type": "note_off", "time": 63, "note": 52, "velocity": 82, "channel": 0}, {"type": "note_on", "time": 2, "note": 50, "velocity": 82, "channel": 0}, {"type": "note_off", "time": 65, "note": 50, "velocity": 82, "channel": 0}, {"type": "note_on", "time": 246, "note": 52, "velocity": 88, "channel": 0}, {"type": "note_off", "time": 30, "note": 52, "velocity": 88, "channel": 0}, {"type": "note_on", "time": 2, "note": 53, "velocity": 120, "channel": 0}, {"type": "note_off", "time": 61, "note": 53, "velocity": 120, "channel": 0}, {"type": "note_on", "time": 3, "note": 55, "velocity": 120, "channel": 0}, {"type": "note_off", "time": 54, "note": 55, "velocity": 120, "channel": 0}, {"type": "note_on", "time": 1, "note": 53, "velocity": 125, "channel": 0}, {"type": "note_off", "time": 13, "note": 53, "velocity": 125, "channel": 0}, {"type": "note_on", "time": 3, "note": 54, "velocity": 108, "channel": 0}, {"type": "note_off", "time": 127, "note": 54, "velocity": 108, "channel": 0}, {"type": "note_on", "time": 185, "note": 59, "velocity": 112, "channel": 0}, {"type": "note_off", "time": 44, "note": 59, "velocity": 112, "channel": 0}, {"type": "note_on", "time": 4, "note": 60, "velocity": 118, "channel": 0}, {"type": "note_off", "time": 45, "note": 60, "velocity": 118, "channel": 0}, {"type": "note_on", "time": 3, "note": 62, "velocity": 117, "channel": 0}, {"type": "note_off", "time": 44, "note": 62, "velocity": 117, "channel": 0}, {"type": "note_on", "time": 5, "note": 63, "velocity": 116, "channel": 0}, {"type": "note_off", "time": 40, "note": 63, "velocity": 116, "channel": 0}, {"type": "note_on", "time": 3, "note": 60, "velocity": 115, "channel": 0}, {"type": "note_off", "time": 48, "note": 60, "velocity": 115, "channel": 0}, {"type": "note_on", "time": 16, "note": 57, "velocity": 102, "channel": 0}, {"type": "note_off", "time": 43, "note": 57, "velocity": 102, "channel": 0}, {"type": "note_on", "time": 3, "note": 54, "velocity": 110, "channel": 0}, {"type": "note_off", "time": 47, "note": 54, "velocity": 110, "channel": 0}, {"type": "note_on", "time": 46, "note": 55, "velocity": 100, "channel": 0}, {"type": "note_off", "time": 167, "note": 55, "velocity": 100, "channel": 0}, {"type": "note_on", "time": 100, "note": 51, "velocity": 97, "channel": 0}, {"type": "note_off", "time": 31, "note": 51, "velocity": 97, "channel": 0}, {"type": "note_on", "time": 0, "note": 52, "velocity": 93, "channel": 0}, {"type": "note_off", "time": 40, "note": 52, "velocity": 93, "channel": 0}, {"type": "note_on", "time": 4, "note": 54, "velocity": 127, "channel": 0}, {"type": "note_off", "time": 56, "note": 54, "velocity": 127, "channel": 0}, {"type": "note_on", "time": 1, "note": 55, "velocity": 116, "channel": 0}, {"type": "note_off", "time": 47, "note": 55, "velocity": 116, "channel": 0}, {"type": "note_on", "time": 1, "note": 57, "velocity": 117, "channel": 0}, {"type": "note_off", "time": 30, "note": 57, "velocity": 117, "channel": 0}, {"type": "note_on", "time": 7, "note": 59, "velocity": 112, "channel": 0}, {"type": "note_off", "time": 38, "note": 59, "velocity": 112, "channel": 0}, {"type": "note_on", "time": 1, "note": 63, "velocity": 108, "channel": 0}, {"type": "note_off", "time": 31, "note": 63, "velocity": 108, "channel": 0}, {"type": "note_on", "time": 18, "note": 66, "velocity": 110, "channel": 0}, {"type": "note_off", "time": 72, "note": 66, "velocity": 110, "channel": 0}, {"type": "note_on", "time": 1, "note": 64, "velocity": 104, "channel": 0}, {"type": "note_off", "time": 34, "note": 64, "velocity": 104, "channel": 0}, {"type": "note_on", "time": 64, "note": 50, "velocity": 103, "channel": 0}, {"type": "note_off", "time": 16, "note": 50, "velocity": 103, "channel": 0}, {"type": "note_on", "time": 2, "note": 51, "velocity": 90, "channel": 0}, {"type": "note_off", "time": 157, "note": 51, "velocity": 90, "channel": 0}, {"type": "note_on", "time": 4, "note": 56, "velocity": 103, "channel": 0}, {"type": "note_off", "time": 15, "note": 56, "velocity": 103, "channel": 0}, {"type": "note_on", "time": 4, "note": 57, "velocity": 92, "channel": 0}, {"type": "note_off", "time": 174, "note": 57, "velocity": 92, "channel": 0}, {"type": "note_on", "time": 46, "note": 51, "velocity": 92, "channel": 0}, {"type": "note_off", "time": 31, "note": 51, "velocity": 92, "channel": 0}, {"type": "note_on", "time": 1, "note": 50, "velocity": 92, "channel": 0}, {"type": "note_off", "time": 126, "note": 50, "velocity": 92, "channel": 0}, {"type": "note_on", "time": 513, "note": 50, "velocity": 110, "channel": 0}, {"type": "note_off", "time": 87, "note": 50, "velocity": 110, "channel": 0}, {"type": "note_on", "time": 4, "note": 47, "velocity": 99, "channel": 0}, {"type": "note_off", "time": 99, "note": 47, "velocity": 99, "channel": 0}, {"type": "note_on", "time": 0, "note": 48, "velocity": 99, "channel": 0}, {"type": "note_off", "time": 189, "note": 48, "velocity": 99, "channel": 0}, {"type": "note_on", "time": 225, "note": 58, "velocity": 114, "channel": 0}, {"type": "note_off", "time": 28, "note": 58, "velocity": 114, "channel": 0}, {"type": "note_on", "time": 7, "note": 60, "velocity": 119, "channel": 0}, {"type": "note_off", "time": 100, "note": 60, "velocity": 119, "channel": 0}, {"type": "note_on", "time": 3, "note": 55, "velocity": 115, "channel": 0}, {"type": "note_off", "time": 62, "note": 55, "velocity": 115, "channel": 0}, {"type": "note_on", "time": 1, "note": 51, "velocity": 99, "channel": 0}, {"type": "note_off", "time": 38, "note": 51, "velocity": 99, "channel": 0}, {"type": "note_on", "time": 8, "note": 56, "velocity": 114, "channel": 0}, {"type": "note_off", "time": 21, "note": 56, "velocity": 114, "channel": 0}, {"type": "note_on", "time": 4, "note": 58, "velocity": 115, "channel": 0}, {"type": "note_off", "time": 114, "note": 58, "velocity": 115, "channel": 0}, {"type": "note_on", "time": 0, "note": 54, "velocity": 117, "channel": 0}, {"type": "note_off", "time": 64, "note": 54, "velocity": 117, "channel": 0}, {"type": "note_on", "time": 0, "note": 53, "velocity": 113, "channel": 0}, {"type": "note_off", "time": 89, "note": 53, "velocity": 113, "channel": 0}, {"type": "note_on", "time": 5, "note": 51, "velocity": 92, "channel": 0}, {"type": "note_off", "time": 36, "note": 51, "velocity": 92, "channel": 0}, {"type": "note_on", "time": 9, "note": 55, "velocity": 110, "channel": 0}, {"type": "note_off", "time": 18, "note": 55, "velocity": 110, "channel": 0}, {"type": "note_on", "time": 4, "note": 57, "velocity": 90, "channel": 0}, {"type": "track_name", "name": "Melody", "time": 56}, {"type": "set_tempo", "tempo": 674157, "time": 0}, {"type": "key_signature", "key": "C", "time": 0}, {"type": "time_signature", "numerator": 4, "denominator": 4, "clocks_per_click": 24, "notated_32nd_notes_per_beat": 8, "time": 0}, {"type": "note_off", "time": 123, "note": 57, "velocity": 90, "channel": 0}, {"type": "note_on", "time": 77, "note": 48, "velocity": 93, "channel": 0}, {"type": "note_off", "time": 31, "note": 48, "velocity": 93, "channel": 0}, {"type": "note_on", "time": 1, "note": 49, "velocity": 96, "channel": 0}, {"type": "note_off", "time": 36, "note": 49, "velocity": 96, "channel": 0}, {"type": "note_on", "time": 2, "note": 51, "velocity": 93, "channel": 0}, {"type": "note_off", "time": 25, "note": 51, "velocity": 93, "channel": 0}, {"type": "note_on", "time": 5, "note": 53, "velocity": 122, "channel": 0}, {"type": "note_off", "time": 44, "note": 53, "velocity": 122, "channel": 0}, {"type": "note_on", "time": 2, "note": 55, "velocity": 115, "channel": 0}, {"type": "note_off", "time": 51, "note": 55, "velocity": 115, "channel": 0}, {"type": "note_on", "time": 3, "note": 54, "velocity": 121, "channel": 0}, {"type": "note_off", "time": 25, "note": 54, "velocity": 121, "channel": 0}, {"type": "note_on", "time": 0, "note": 56, "velocity": 102, "channel": 0}, {"type": "note_off", "time": 116, "note": 56, "velocity": 102, "channel": 0}, {"type": "note_on", "time": 6, "note": 53, "velocity": 100, "channel": 0}, {"type": "note_off", "time": 45, "note": 53, "velocity": 100, "channel": 0}, {"type": "note_on", "time": 3, "note": 55, "velocity": 97, "channel": 0}, {"type": "note_off", "time": 116, "note": 55, "velocity": 97, "channel": 0}, {"type": "note_on", "time": 215, "note": 51, "velocity": 90, "channel": 0}, {"type": "note_off", "time": 38, "note": 51, "velocity": 90, "channel": 0}, {"type": "note_on", "time": 4, "note": 55, "velocity": 119, "channel": 0}, {"type": "note_off", "time": 34, "note": 55, "velocity": 119, "channel": 0}, {"type": "note_on", "time": 2, "note": 59, "velocity": 117, "channel": 0}, {"type": "note_off", "time": 42, "note": 59, "velocity": 117, "channel": 0}, {"type": "note_on", "time": 8, "note": 57, "velocity": 108, "channel": 0}, {"type": "note_off", "time": 36, "note": 57, "velocity": 108, "channel": 0}, {"type": "note_on", "time": 10, "note": 55, "velocity": 106, "channel": 0}, {"type": "note_off", "time": 52, "note": 55, "velocity": 106, "channel": 0}, {"type": "note_on", "time": 5, "note": 52, "velocity": 90, "channel": 0}, {"type": "note_off", "time": 37, "note": 52, "velocity": 90, "channel": 0}, {"type": "note_on", "time": 3, "note": 50, "velocity": 94, "channel": 0}, {"type": "note_off", "time": 42, "note": 50, "velocity": 94, "channel": 0}, {"type": "note_on", "time": 5, "note": 48, "velocity": 101, "channel": 0}, {"type": "note_off", "time": 32, "note": 48, "velocity": 101, "channel": 0}, {"type": "note_on", "time": 9, "note": 47, "velocity": 102, "channel": 0}, {"type": "note_off", "time": 47, "note": 47, "velocity": 102, "channel": 0}, {"type": "note_on", "time": 1, "note": 48, "velocity": 99, "channel": 0}, {"type": "note_off", "time": 58, "note": 48, "velocity": 99, "channel": 0}, {"type": "note_on", "time": 4, "note": 52, "velocity": 89, "channel": 0}, {"type": "note_off", "time": 46, "note": 52, "velocity": 89, "channel": 0}, {"type": "note_on", "time": 6, "note": 55, "velocity": 114, "channel": 0}, {"type": "note_off", "time": 54, "note": 55, "velocity": 114, "channel": 0}, {"type": "note_on", "time": 4, "note": 57, "velocity": 109, "channel": 0}, {"type": "note_off", "time": 68, "note": 57, "velocity": 109, "channel": 0}, {"type": "note_on", "time": 2, "note": 62, "velocity": 113, "channel": 0}, {"type": "note_off", "time": 58, "note": 62, "velocity": 113, "channel": 0}, {"type": "note_on", "time": 6, "note": 56, "velocity": 100, "channel": 0}, {"type": "note_off", "time": 58, "note": 56, "velocity": 100, "channel": 0}, {"type": "note_on", "time": 27, "note": 47, "velocity": 91, "channel": 0}, {"type": "note_off", "time": 28, "note": 47, "velocity": 91, "channel": 0}, {"type": "note_on", "time": 4, "note": 50, "velocity": 93, "channel": 0}, {"type": "note_off", "time": 54, "note": 50, "velocity": 93, "channel": 0}, {"type": "note_on", "time": 5, "note": 52, "velocity": 100, "channel": 0}, {"type": "note_off", "time": 14, "note": 52, "velocity": 100, "channel": 0}, {"type": "note_on", "time": 1, "note": 53, "velocity": 112, "channel": 0}, {"type": "note_off", "time": 154, "note": 53, "velocity": 112, "channel": 0}, {"type": "note_on", "time": 6, "note": 56, "velocity": 102, "channel": 0}, {"type": "note_off", "time": 35, "note": 56, "velocity": 102, "channel": 0}, {"type": "note_on", "time": 3, "note": 52, "velocity": 87, "channel": 0}, {"type": "note_off", "time": 123, "note": 52, "velocity": 87, "channel": 0}, {"type": "note_on", "time": 11, "note": 50, "velocity": 93, "channel": 0}, {"type": "note_off", "time": 42, "note": 50, "velocity": 93, "channel": 0}, {"type": "note_on", "time": 6, "note": 48, "velocity": 88, "channel": 0}, {"type": "note_off", "time": 185, "note": 48, "velocity": 88, "channel": 0}, {"type": "end_of_track", "time": 0}]]}