{"ticks_per_beat": 192, "tracks": [[{"type": "track_name", "name": "Melody", "time": 0}, {"type": "set_tempo", "tempo": 247933, "time": 0}, {"type": "key_signature", "key": "Bb", "time": 0}, {"type": "time_signature", "numerator": 4, "denominator": 4, "clocks_per_click": 24, "notated_32nd_notes_per_beat": 8, "time": 0}, {"type": "note_on", "time": 3007, "note": 60, "velocity": 107, "channel": 0}, {"type": "note_off", "time": 116, "note": 60, "velocity": 107, "channel": 0}, {"type": "note_on", "time": 35, "note": 62, "velocity": 92, "channel": 0}, {"type": "note_off", "time": 152, "note": 62, "velocity": 92, "channel": 0}, {"type": "note_on", "time": 58, "note": 60, "velocity": 102, "channel": 0}, {"type": "note_off", "time": 53, "note": 60, "velocity": 102, "channel": 0}, {"type": "note_on", "time": 31, "note": 63, "velocity": 113, "channel": 0}, {"type": "note_off", "time": 139, "note": 63, "velocity": 113, "channel": 0}, {"type": "note_on", "time": 107, "note": 60, "velocity": 94, "channel": 0}, {"type": "note_off", "time": 107, "note": 60, "velocity": 94, "channel": 0}, {"type": "note_on", "time": 31, "note": 64, "velocity": 112, "channel": 0}, {"type": "note_off", "time": 148, "note": 64, "velocity": 112, "channel": 0}, {"type": "note_on", "time": 40, "note": 60, "velocity": 88, "channel": 0}, {"type": "note_off", "time": 98, "note": 60, "velocity": 88, "channel": 0}, {"type": "note_on", "time": 40, "note": 64, "velocity": 114, "channel": 0}, {"type": "note_off", "time": 103, "note": 64, "velocity": 114, "channel": 0}, {"type": "note_on", "time": 31, "note": 65, "velocity": 111, "channel": 0}, {"type": "note_off", "time": 166, "note": 65, "velocity": 111, "channel": 0}, {"type": "note_on", "time": 21, "note": 72, "velocity": 113, "channel": 0}, {"type": "note_off", "time": 82, "note": 72, "velocity": 113, "channel": 0}, {"type": "note_on", "time": 66, "note": 74, "velocity": 127, "channel": 0}, {"type": "note_off", "time": 238, "note": 74, "velocity": 127, "channel": 0}, {"type": "note_on", "time": 0, "note": 72, "velocity": 122, "channel": 0}, {"type": "note_off", "time": 67, "note": 72, "velocity": 122, "channel": 0}, {"type": "note_on", "time": 13, "note": 70, "velocity": 120, "channel": 0}, {"type": "note_off", "time": 104, "note": 70, "velocity": 120, "channel": 0}, {"type": "note_on", "time": 18, "note": 66, "velocity": 111, "channel": 0}, {"type": "note_off", "time": 91, "note": 66, "velocity": 111, "channel": 0}, {"type": "note_on", "time": 0, "note": 63, "velocity": 104, "channel": 0}, {"type": "note_off", "time": 101, "note": 63, "velocity": 104, "channel": 0}, {"type": "note_on", "time": 12, "note": 60, "velocity": 104, "channel": 0}, {"type": "note_off", "time": 66, "note": 60, "velocity": 104, "channel": 0}, {"type": "note_on", "time": 18, "note": 58, "velocity": 100, "channel": 0}, {"type": "note_off", "time": 97, "note": 58, "velocity": 100, "channel": 0}, {"type": "note_on", "time": 12, "note": 57, "velocity": 96, "channel": 0}, {"type": "note_off", "time": 53, "note": 57, "velocity": 96, "channel": 0}, {"type": "note_on", "time": 0, "note": 58, "velocity": 99, "channel": 0}, {"type": "note_off", "time": 107, "note": 58, "velocity": 99, "channel": 0}, {"type": "note_on", "time": 245, "note": 58, "velocity": 106, "channel": 0}, {"type": "note_off", "time": 121, "note": 58, "velocity": 106, "channel": 0}, {"type": "note_on", "time": 0, "note": 57, "velocity": 93, "channel": 0}, {"type": "note_off", "time": 71, "note": 57, "velocity": 93, "channel": 0}, {"type": "note_on", "time": 26, "note": 56, "velocity": 100, "channel": 0}, {"type": "note_off", "time": 94, "note": 56, "velocity": 100, "channel": 0}, {"type": "note_on", "time": 0, "note": 58, "velocity": 102, "channel": 0}, {"type": "note_off", "time": 80, "note": 58, "velocity": 102, "channel": 0}, {"type": "note_on", "time": 143, "note": 63, "velocity": 107, "channel": 0}, {"type": "note_off", "time": 53, "note": 63, "velocity": 107, "channel": 0}, {"type": "note_on", "time": 12, "note": 67, "velocity": 122, "channel": 0}, {"type": "note_off", "time": 113, "note": 67, "velocity": 122, "channel": 0}, {"type": "note_on", "time": 3, "note": 66, "velocity": 114, "channel": 0}, {"type": "note_off", "time": 94, "note": 66, "velocity": 114, "channel": 0}, {"type": "note_on", "time": 4, "note": 65, "velocity": 110, "channel": 0}, {"type": "note_off", "time": 69, "note": 65, "velocity": 110, "channel": 0}, {"type": "note_on", "time": 11, "note": 64, "velocity": 108, "channel": 0}, {"type": "note_off", "time": 82, "note": 64, "velocity": 108, "channel": 0}, {"type": "note_on", "time": 3, "note": 63, "velocity": 103, "channel": 0}, {"type": "note_off", "time": 79, "note": 63, "velocity": 103, "channel": 0}, {"type": "note_on", "time": 31, "note": 65, "velocity": 107, "channel": 0}, {"type": "note_off", "time": 94, "note": 65, "velocity": 107, "channel": 0}, {"type": "note_on", "time": 116, "note": 70, "velocity": 102, "channel": 0}, {"type": "note_off", "time": 72, "note": 70, "velocity": 102, "channel": 0}, {"type": "note_on", "time": 12, "note": 73, "velocity": 113, "channel": 0}, {"type": "note_off", "time": 86, "note": 73, "velocity": 113, "channel": 0}, {"type": "note_on", "time": 58, "note": 71, "velocity": 111, "channel": 0}, {"type": "note_off", "time": 116, "note": 71, "velocity": 111, "channel": 0}, {"type": "note_on", "time": 3, "note": 73, "velocity": 115, "channel": 0}, {"type": "note_off", "time": 97, "note": 73, "velocity": 115, "channel": 0}, {"type": "note_on", "time": 18, "note": 70, "velocity": 114, "channel": 0}, {"type": "note_off", "time": 104, "note": 70, "velocity": 114, "channel": 0}, {"type": "note_on", "time": 31, "note": 67, "velocity": 105, "channel": 0}, {"type": "note_off", "time": 82, "note": 67, "velocity": 105, "channel": 0}, {"type": "note_on", "time": 3, "note": 63, "velocity": 92, "channel": 0}, {"type": "note_off", "time": 75, "note": 63, "velocity": 92, "channel": 0}, {"type": "note_on", "time": 31, "note": 58, "velocity": 94, "channel": 0}, {"type": "note_off", "time": 74, "note": 58, "velocity": 94, "channel": 0}, {"type": "note_on", "time": 26, "note": 63, "velocity": 97, "channel": 0}, {"type": "note_off", "time": 75, "note": 63, "velocity": 97, "channel": 0}, {"type": "note_on", "time": 3, "note": 65, "velocity": 109, "channel": 0}, {"type": "note_off", "time": 75, "note": 65, "velocity": 109, "channel": 0}, {"type": "note_on", "time": 360, "note": 60, "velocity": 95, "channel": 0}, {"type": "note_off", "time": 88, "note": 60, "velocity": 95, "channel": 0}, {"type": "note_on", "time": 597, "note": 63, "velocity": 106, "channel": 0}, {"type": "note_off", "time": 75, "note": 63, "velocity": 106, "channel": 0}, {"type": "note_on", "time": 3, "note": 61, "velocity": 91, "channel": 0}, {"type": "note_off", "time": 116, "note": 61, "velocity": 91, "channel": 0}, {"type": "note_on", "time": 0, "note": 63, "velocity": 88, "channel": 0}, {"type": "note_off", "time": 72, "note": 63, "velocity": 88, "channel": 0}, {"type": "note_on", "time": 9, "note": 67, "velocity": 121, "channel": 0}, {"type": "note_off", "time": 110, "note": 67, "velocity": 121, "channel": 0}, {"type": "note_on", "time": 12, "note": 64, "velocity": 101, "channel": 0}, {"type": "note_off", "time": 63, "note": 64, "velocity": 101, "channel": 0}, {"type": "note_on", "time": 12, "note": 65, "velocity": 101, "channel": 0}, {"type": "note_off", "time": 91, "note": 65, "velocity": 101, "channel": 0}, {"type": "note_on", "time": 6, "note": 67, "velocity": 110, "channel": 0}, {"type": "note_off", "time": 97, "note": 67, "velocity": 110, "channel": 0}, {"type": "note_on", "time": 18, "note": 68, "velocity": 90, "channel": 0}, {"type": "note_off", "time": 50, "note": 68, "velocity": 90, "channel": 0}, {"type": "note_on", "time": 22, "note": 70, "velocity": 94, "channel": 0}, {"type": "note_off", "time": 79, "note": 70, "velocity": 94, "channel": 0}, {"type": "note_on", "time": 25, "note": 72, "velocity": 114, "channel": 0}, {"type": "note_off", "time": 82, "note": 72, "velocity": 114, "channel": 0}, {"type": "note_on", "time": 6, "note": 71, "velocity": 113, "channel": 0}, {"type": "note_off", "time": 82, "note": 71, "velocity": 113, "channel": 0}, {"type": "note_on", "time": 9, "note": 70, "velocity": 110, "channel": 0}, {"type": "note_off", "time": 97, "note": 70, "velocity": 110, "channel": 0}, {"type": "note_on", "time": 3, "note": 69, "velocity": 108, "channel": 0}, {"type": "note_off", "time": 75, "note": 69, "velocity": 108, "channel": 0}, {"type": "note_on", "time": 31, "note": 67, "velocity": 111, "channel": 0}, {"type": "note_off", "time": 82, "note": 67, "velocity": 111, "channel": 0}, {"type": "note_on", "time": 6, "note": 66, "velocity": 105, "channel": 0}, {"type": "note_off", "time": 63, "note": 66, "velocity": 105, "channel": 0}, {"type": "note_on", "time": 12, "note": 65, "velocity": 106, "channel": 0}, {"type": "note_off", "time": 97, "note": 65, "velocity": 106, "channel": 0}, {"type": "note_on", "time": 0, "note": 64, "velocity": 106, "channel": 0}, {"type": "note_off", "time": 101, "note": 64, "velocity": 106, "channel": 0}, {"type": "note_on", "time": 3, "note": 62, "velocity": 102, "channel": 0}, {"type": "note_off", "time": 44, "note": 62, "velocity": 102, "channel": 0}, {"type": "note_on", "time": 145, "note": 58, "velocity": 92, "channel": 0}, {"type": "note_off", "time": 79, "note": 58, "velocity": 92, "channel": 0}, {"type": "note_on", "time": 25, "note": 62, "velocity": 98, "channel": 0}, {"type": "note_off", "time": 56, "note": 62, "velocity": 98, "channel": 0}, {"type": "note_on", "time": 12, "note": 60, "velocity": 96, "channel": 0}, {"type": "note_off", "time": 82, "note": 60, "velocity": 96, "channel": 0}, {"type": "note_on", "time": 22, "note": 58, "velocity": 99, "channel": 0}, {"type": "note_off", "time": 132, "note": 58, "velocity": 99, "channel": 0}, {"type": "note_on", "time": 97, "note": 66, "velocity": 100, "channel": 0}, {"type": "note_off", "time": 79, "note": 66, "velocity": 100, "channel": 0}, {"type": "note_on", "time": 6, "note": 65, "velocity": 95, "channel": 0}, {"type": "note_off", "time": 69, "note": 65, "velocity": 95, "channel": 0}, {"type": "note_on", "time": 12, "note": 63, "velocity": 107, "channel": 0}, {"type": "note_off", "time": 66, "note": 63, "velocity": 107, "channel": 0}, {"type": "note_on", "time": 12, "note": 62, "velocity": 99, "channel": 0}, {"type": "note_off", "time": 107, "note": 62, "velocity": 99, "channel": 0}, {"type": "note_on", "time": 18, "note": 65, "velocity": 110, "channel": 0}, {"type": "note_off", "time": 101, "note": 65, "velocity": 110, "channel": 0}, {"type": "note_on", "time": 4, "note": 67, "velocity": 97, "channel": 0}, {"type": "note_off", "time": 64, "note": 67, "velocity": 97, "channel": 0}, {"type": "note_on", "time": 75, "note": 67, "velocity": 99, "channel": 0}, {"type": "note_off", "time": 37, "note": 67, "velocity": 99, "channel": 0}, {"type": "note_on", "time": 0, "note": 68, "velocity": 117, "channel": 0}, {"type": "note_off", "time": 91, "note": 68, "velocity": 117, "channel": 0}, {"type": "note_on", "time": 3, "note": 67, "velocity": 114, "channel": 0}, {"type": "note_off", "time": 88, "note": 67, "velocity": 114, "channel": 0}, {"type": "note_on", "time": 6, "note": 65, "velocity": 106, "channel": 0}, {"type": "note_off", "time": 85, "note": 65, "velocity": 106, "channel": 0}, {"type": "note_on", "time": 6, "note": 64, "velocity": 107, "channel": 0}, {"type": "note_off", "time": 75, "note": 64, "velocity": 107, "channel": 0}, {"type": "note_on", "time": 12, "note": 63, "velocity": 105, "channel": 0}, {"type": "note_off", "time": 66, "note": 63, "velocity": 105, "channel": 0}, {"type": "note_on", "time": 25, "note": 57, "velocity": 102, "channel": 0}, {"type": "note_off", "time": 60, "note": 57, "velocity": 102, "channel": 0}, {"type": "note_on", "time": 6, "note": 58, "velocity": 98, "channel": 0}, {"type": "note_off", "time": 107, "note": 58, "velocity": 98, "channel": 0}, {"type": "note_on", "time": 97, "note": 61, "velocity": 104, "channel": 0}, {"type": "note_off", "time": 110, "note": 61, "velocity": 104, "channel": 0}, {"type": "note_on", "time": 113, "note": 60, "velocity": 102, "channel": 0}, {"type": "note_off", "time": 88, "note": 60, "velocity": 102, "channel": 0}, {"type": "note_on", "time": 12, "note": 58, "velocity": 102, "channel": 0}, {"type": "note_off", "time": 208, "note": 58, "velocity": 102, "channel": 0}, {"type": "note_on", "time": 31, "note": 62, "velocity": 104, "channel": 0}, {"type": "note_off", "time": 116, "note": 62, "velocity": 104, "channel": 0}, {"type": "note_on", "time": 142, "note": 69, "velocity": 117, "channel": 0}, {"type": "note_off", "time": 69, "note": 69, "velocity": 117, "channel": 0}, {"type": "note_on", "time": 3, "note": 72, "velocity": 118, "channel": 0}, {"type": "note_off", "time": 63, "note": 72, "velocity": 118, "channel": 0}, {"type": "note_on", "time": 15, "note": 70, "velocity": 113, "channel": 0}, {"type": "note_off", "time": 101, "note": 70, "velocity": 113, "channel": 0}, {"type": "note_on", "time": 9, "note": 67, "velocity": 117, "channel": 0}, {"type": "note_off", "time": 139, "note": 67, "velocity": 117, "channel": 0}, {"type": "note_on", "time": 47, "note": 72, "velocity": 114, "channel": 0}, {"type": "note_off", "time": 72, "note": 72, "velocity": 114, "channel": 0}, {"type": "note_on", "time": 6, "note": 70, "velocity": 110, "channel": 0}, {"type": "note_off", "time": 104, "note": 70, "velocity": 110, "channel": 0}, {"type": "note_on", "time": 9, "note": 66, "velocity": 111, "channel": 0}, {"type": "note_off", "time": 107, "note": 66, "velocity": 111, "channel": 0}, {"type": "note_on", "time": 88, "note": 72, "velocity": 114, "channel": 0}, {"type": "note_off", "time": 72, "note": 72, "velocity": 114, "channel": 0}, {"type": "note_on", "time": 18, "note": 70, "velocity": 107, "channel": 0}, {"type": "note_off", "time": 88, "note": 70, "velocity": 107, "channel": 0}, {"type": "note_on", "time": 15, "note": 67, "velocity": 120, "channel": 0}, {"type": "note_off", "time": 60, "note": 67, "velocity": 120, "channel": 0}, {"type": "note_on", "time": 25, "note": 69, "velocity": 111, "channel": 0}, {"type": "note_off", "time": 173, "note": 69, "velocity": 111, "channel": 0}, {"type": "note_on", "time": 18, "note": 63, "velocity": 104, "channel": 0}, {"type": "note_off", "time": 34, "note": 63, "velocity": 104, "channel": 0}, {"type": "note_on", "time": 12, "note": 60, "velocity": 101, "channel": 0}, {"type": "note_off", "time": 60, "note": 60, "velocity": 101, "channel": 0}, {"type": "note_on", "time": 9, "note": 57, "velocity": 100, "channel": 0}, {"type": "note_off", "time": 37, "note": 57, "velocity": 100, "channel": 0}, {"type": "note_on", "time": 2, "note": 56, "velocity": 99, "channel": 0}, {"type": "note_off", "time": 69, "note": 56, "velocity": 99, "channel": 0}, {"type": "note_on", "time": 73, "note": 67, "velocity": 120, "channel": 0}, {"type": "note_off", "time": 104, "note": 67, "velocity": 120, "channel": 0}, {"type": "note_on", "time": 12, "note": 68, "velocity": 115, "channel": 0}, {"type": "note_off", "time": 139, "note": 68, "velocity": 115, "channel": 0}, {"type": "note_on", "time": 12, "note": 63, "velocity": 104, "channel": 0}, {"type": "note_off", "time": 34, "note": 63, "velocity": 104, "channel": 0}, {"type": "note_on", "time": 10, "note": 60, "velocity": 99, "channel": 0}, {"type": "note_off", "time": 46, "note": 60, "velocity": 99, "channel": 0}, {"type": "note_on", "time": 0, "note": 56, "velocity": 98, "channel": 0}, {"type": "note_off", "time": 63, "note": 56, "velocity": 98, "channel": 0}, {"type": "note_on", "time": 350, "note": 67, "velocity": 113, "channel": 0}, {"type": "note_off", "time": 44, "note": 67, "velocity": 113, "channel": 0}, {"type": "note_on", "time": 25, "note": 68, "velocity": 101, "channel": 0}, {"type": "note_off", "time": 107, "note": 68, "velocity": 101, "channel": 0}, {"type": "note_on", "time": 6, "note": 66, "velocity": 102, "channel": 0}, {"type": "note_off", "time": 72, "note": 66, "velocity": 102, "channel": 0}, {"type": "note_on", "time": 15, "note": 65, "velocity": 103, "channel": 0}, {"type": "note_off", "time": 79, "note": 65, "velocity": 103, "channel": 0}, {"type": "note_on", "time": 6, "note": 64, "velocity": 107, "channel": 0}, {"type": "note_off", "time": 97, "note": 64, "velocity": 107, "channel": 0}, {"type": "note_on", "time": 2, "note": 62, "velocity": 98, "channel": 0}, {"type": "note_off", "time": 69, "note": 62, "velocity": 98, "channel": 0}, {"type": "note_on", "time": 25, "note": 60, "velocity": 94, "channel": 0}, {"type": "note_off", "time": 69, "note": 60, "velocity": 94, "channel": 0}, {"type": "note_on", "time": 9, "note": 59, "velocity": 98, "channel": 0}, {"type": "note_off", "time": 91, "note": 59, "velocity": 98, "channel": 0}, {"type": "note_on", "time": 25, "note": 62, "velocity": 104, "channel": 0}, {"type": "note_off", "time": 75, "note": 62, "velocity": 104, "channel": 0}, {"type": "note_on", "time": 6, "note": 57, "velocity": 108, "channel": 0}, {"type": "note_off", "time": 79, "note": 57, "velocity": 108, "channel": 0}, {"type": "note_on", "time": 126, "note": 55, "velocity": 99, "channel": 0}, {"type": "note_off", "time": 66, "note": 55, "velocity": 99, "channel": 0}, {"type": "note_on", "time": 22, "note": 58, "velocity": 101, "channel": 0}, {"type": "note_off", "time": 69, "note": 58, "velocity": 101, "channel": 0}, {"type": "note_on", "time": 0, "note": 59, "velocity": 104, "channel": 0}, {"type": "note_off", "time": 82, "note": 59, "velocity": 104, "channel": 0}, {"type": "note_on", "time": 31, "note": 63, "velocity": 105, "channel": 0}, {"type": "note_on", "time": 63, "note": 67, "velocity": 117, "channel": 0}, {"type": "note_off", "time": 0, "note": 63, "velocity": 105, "channel": 0}, {"type": "note_off", "time": 104, "note": 67, "velocity": 117, "channel": 0}, {"type": "note_on", "time": 369, "note": 54, "velocity": 105, "channel": 0}, {"type": "note_off", "time": 97, "note": 54, "velocity": 105, "channel": 0}, {"type": "note_on", "time": 3, "note": 58, "velocity": 100, "channel": 0}, {"type": "note_off", "time": 110, "note": 58, "velocity": 100, "channel": 0}, {"type": "note_on", "time": 0, "note": 62, "velocity": 98, "channel": 0}, {"type": "note_off", "time": 72, "note": 62, "velocity": 98, "channel": 0}, {"type": "note_on", "time": 0, "note": 56, "velocity": 101, "channel": 0}, {"type": "note_off", "time": 94, "note": 56, "velocity": 101, "channel": 0}, {"type": "note_on", "time": 25, "note": 61, "velocity": 89, "channel": 0}, {"type": "note_off", "time": 69, "note": 61, "velocity": 89, "channel": 0}, {"type": "note_on", "time": 6, "note": 64, "velocity": 104, "channel": 0}, {"type": "note_off", "time": 107, "note": 64, "velocity": 104, "channel": 0}, {"type": "note_on", "time": 25, "note": 58, "velocity": 94, "channel": 0}, {"type": "note_off", "time": 82, "note": 58, "velocity": 94, "channel": 0}, {"type": "note_on", "time": 6, "note": 62, "velocity": 90, "channel": 0}, {"type": "note_off", "time": 75, "note": 62, "velocity": 90, "channel": 0}, {"type": "note_on", "time": 3, "note": 66, "velocity": 112, "channel": 0}, {"type": "note_off", "time": 60, "note": 66, "velocity": 112, "channel": 0}, {"type": "note_on", "time": 51, "note": 61, "velocity": 95, "channel": 0}, {"type": "note_off", "time": 80, "note": 61, "velocity": 95, "channel": 0}, {"type": "note_on", "time": 6, "note": 66, "velocity": 96, "channel": 0}, {"type": "note_off", "time": 76, "note": 66, "velocity": 96, "channel": 0}, {"type": "note_on", "time": 6, "note": 68, "velocity": 117, "channel": 0}, {"type": "note_off", "time": 88, "note": 68, "velocity": 117, "channel": 0}, {"type": "note_on", "time": 41, "note": 51, "velocity": 111, "channel": 0}, {"type": "note_off", "time": 83, "note": 51, "velocity": 111, "channel": 0}, {"type": "note_on", "time": 114, "note": 61, "velocity": 105, "channel": 0}, {"type": "note_off", "time": 78, "note": 61, "velocity": 105, "channel": 0}, {"type": "note_on", "time": 15, "note": 56, "velocity": 98, "channel": 0}, {"type": "note_off", "time": 69, "note": 56, "velocity": 98, "channel": 0}, {"type": "note_on", "time": 12, "note": 55, "velocity": 97, "channel": 0}, {"type": "note_off", "time": 75, "note": 55, "velocity": 97, "channel": 0}, {"type": "note_on", "time": 15, "note": 57, "velocity": 99, "channel": 0}, {"type": "note_off", "time": 75, "note": 57, "velocity": 99, "channel": 0}, {"type": "note_on", "time": 22, "note": 59, "velocity": 90, "channel": 0}, {"type": "note_off", "time": 62, "note": 59, "velocity": 90, "channel": 0}, {"type": "note_on", "time": 13, "note": 63, "velocity": 109, "channel": 0}, {"type": "note_off", "time": 65, "note": 63, "velocity": 109, "channel": 0}, {"type": "note_on", "time": 15, "note": 67, "velocity": 118, "channel": 0}, {"type": "note_off", "time": 92, "note": 67, "velocity": 118, "channel": 0}, {"type": "note_on", "time": 2, "note": 63, "velocity": 102, "channel": 0}, {"type": "note_off", "time": 65, "note": 63, "velocity": 102, "channel": 0}, {"type": "note_on", "time": 29, "note": 58, "velocity": 93, "channel": 0}, {"type": "note_off", "time": 87, "note": 58, "velocity": 93, "channel": 0}, {"type": "note_on", "time": 4, "note": 59, "velocity": 98, "channel": 0}, {"type": "note_off", "time": 112, "note": 59, "velocity": 98, "channel": 0}, {"type": "note_on", "time": 17, "note": 63, "velocity": 110, "channel": 0}, {"type": "note_off", "time": 58, "note": 63, "velocity": 110, "channel": 0}, {"type": "note_on", "time": 0, "note": 65, "velocity": 111, "channel": 0}, {"type": "note_off", "time": 101, "note": 65, "velocity": 111, "channel": 0}, {"type": "note_on", "time": 4, "note": 69, "velocity": 116, "channel": 0}, {"type": "note_off", "time": 105, "note": 69, "velocity": 116, "channel": 0}, {"type": "note_on", "time": 0, "note": 67, "velocity": 120, "channel": 0}, {"type": "note_off", "time": 96, "note": 67, "velocity": 120, "channel": 0}, {"type": "note_on", "time": 13, "note": 65, "velocity": 107, "channel": 0}, {"type": "note_off", "time": 56, "note": 65, "velocity": 107, "channel": 0}, {"type": "note_on", "time": 15, "note": 61, "velocity": 105, "channel": 0}, {"type": "note_off", "time": 83, "note": 61, "velocity": 105, "channel": 0}, {"type": "note_on", "time": 4, "note": 57, "velocity": 99, "channel": 0}, {"type": "note_off", "time": 96, "note": 57, "velocity": 99, "channel": 0}, {"type": "note_on", "time": 18, "note": 60, "velocity": 101, "channel": 0}, {"type": "note_off", "time": 66, "note": 60, "velocity": 101, "channel": 0}, {"type": "note_on", "time": 9, "note": 59, "velocity": 91, "channel": 0}, {"type": "note_off", "time": 50, "note": 59, "velocity": 91, "channel": 0}, {"type": "note_on", "time": 25, "note": 58, "velocity": 106, "channel": 0}, {"type": "note_off", "time": 88, "note": 58, "velocity": 106, "channel": 0}, {"type": "note_on", "time": 108, "note": 63, "velocity": 103, "channel": 0}, {"type": "note_off", "time": 80, "note": 63, "velocity": 103, "channel": 0}, {"type": "note_on", "time": 2, "note": 61, "velocity": 92, "channel": 0}, {"type": "note_off", "time": 74, "note": 61, "velocity": 92, "channel": 0}, {"type": "note_on", "time": 4, "note": 62, "velocity": 89, "channel": 0}, {"type": "note_off", "time": 49, "note": 62, "velocity": 89, "channel": 0}, {"type": "note_on", "time": 35, "note": 67, "velocity": 115, "channel": 0}, {"type": "note_off", "time": 114, "note": 67, "velocity": 115, "channel": 0}, {"type": "note_on", "time": 8, "note": 64, "velocity": 97, "channel": 0}, {"type": "note_off", "time": 53, "note": 64, "velocity": 97, "channel": 0}, {"type": "note_on", "time": 42, "note": 65, "velocity": 94, "channel": 0}, {"type": "note_off", "time": 60, "note": 65, "velocity": 94, "channel": 0}, {"type": "note_on", "time": 8, "note": 67, "velocity": 109, "channel": 0}, {"type": "note_off", "time": 96, "note": 67, "velocity": 109, "channel": 0}, {"type": "note_on", "time": 13, "note": 69, "velocity": 83, "channel": 0}, {"type": "note_off", "time": 78, "note": 69, "velocity": 83, "channel": 0}, {"type": "note_on", "time": 4, "note": 70, "velocity": 87, "channel": 0}, {"type": "note_off", "time": 58, "note": 70, "velocity": 87, "channel": 0}, {"type": "note_on", "time": 6, "note": 72, "velocity": 111, "channel": 0}, {"type": "note_off", "time": 125, "note": 72, "velocity": 111, "channel": 0}, {"type": "note_on", "time": 6, "note": 70, "velocity": 114, "channel": 0}, {"type": "note_off", "time": 49, "note": 70, "velocity": 114, "channel": 0}, {"type": "note_on", "time": 13, "note": 71, "velocity": 112, "channel": 0}, {"type": "note_off", "time": 98, "note": 71, "velocity": 112, "channel": 0}, {"type": "note_on", "time": 49, "note": 72, "velocity": 117, "channel": 0}, {"type": "note_off", "time": 35, "note": 72, "velocity": 117, "channel": 0}, {"type": "note_on", "time": 20, "note": 74, "velocity": 112, "channel": 0}, {"type": "note_off", "time": 92, "note": 74, "velocity": 112, "channel": 0}, {"type": "note_on", "time": 67, "note": 72, "velocity": 114, "channel": 0}, {"type": "note_off", "time": 62, "note": 72, "velocity": 114, "channel": 0}, {"type": "note_on", "time": 24, "note": 74, "velocity": 116, "channel": 0}, {"type": "note_off", "time": 179, "note": 74, "velocity": 116, "channel": 0}, {"type": "note_on", "time": 17, "note": 70, "velocity": 107, "channel": 0}, {"type": "note_off", "time": 69, "note": 70, "velocity": 107, "channel": 0}, {"type": "note_on", "time": 31, "note": 65, "velocity": 109, "channel": 0}, {"type": "note_off", "time": 74, "note": 65, "velocity": 109, "channel": 0}, {"type": "note_on", "time": 20, "note": 64, "velocity": 102, "channel": 0}, {"type": "note_off", "time": 87, "note": 64, "velocity": 102, "channel": 0}, {"type": "note_on", "time": 2, "note": 62, "velocity": 97, "channel": 0}, {"type": "note_off", "time": 51, "note": 62, "velocity": 97, "channel": 0}, {"type": "note_on", "time": 15, "note": 63, "velocity": 97, "channel": 0}, {"type": "note_off", "time": 98, "note": 63, "velocity": 97, "channel": 0}, {"type": "note_on", "time": 2, "note": 65, "velocity": 102, "channel": 0}, {"type": "note_off", "time": 76, "note": 65, "velocity": 102, "channel": 0}, {"type": "note_on", "time": 13, "note": 67, "velocity": 89, "channel": 0}, {"type": "note_off", "time": 76, "note": 67, "velocity": 89, "channel": 0}, {"type": "note_on", "time": 22, "note": 70, "velocity": 93, "channel": 0}, {"type": "note_off", "time": 51, "note": 70, "velocity": 93, "channel": 0}, {"type": "note_on", "time": 4, "note": 72, "velocity": 93, "channel": 0}, {"type": "note_off", "time": 42, "note": 72, "velocity": 93, "channel": 0}, {"type": "note_on", "time": 8, "note": 73, "velocity": 116, "channel": 0}, {"type": "note_off", "time": 78, "note": 73, "velocity": 116, "channel": 0}, {"type": "note_on", "time": 0, "note": 70, "velocity": 105, "channel": 0}, {"type": "note_off", "time": 26, "note": 70, "velocity": 105, "channel": 0}, {"type": "note_on", "time": 8, "note": 67, "velocity": 106, "channel": 0}, {"type": "note_off", "time": 40, "note": 67, "velocity": 106, "channel": 0}, {"type": "note_on", "time": 40, "note": 63, "velocity": 102, "channel": 0}, {"type": "note_off", "time": 128, "note": 63, "velocity": 102, "channel": 0}, {"type": "note_on", "time": 60, "note": 62, "velocity": 95, "channel": 0}, {"type": "note_off", "time": 103, "note": 62, "velocity": 95, "channel": 0}, {"type": "note_on", "time": 58, "note": 70, "velocity": 117, "channel": 0}, {"type": "note_off", "time": 606, "note": 70, "velocity": 117, "channel": 0}, {"type": "note_on", "time": 17, "note": 68, "velocity": 117, "channel": 0}, {"type": "note_off", "time": 69, "note": 68, "velocity": 117, "channel": 0}, {"type": "note_on", "time": 31, "note": 68, "velocity": 106, "channel": 0}, {"type": "note_off", "time": 76, "note": 68, "velocity": 106, "channel": 0}, {"type": "note_on", "time": 17, "note": 65, "velocity": 99, "channel": 0}, {"type": "note_off", "time": 67, "note": 65, "velocity": 99, "channel": 0}, {"type": "note_on", "time": 6, "note": 68, "velocity": 103, "channel": 0}, {"type": "note_off", "time": 94, "note": 68, "velocity": 103, "channel": 0}, {"type": "note_on", "time": 20, "note": 65, "velocity": 90, "channel": 0}, {"type": "note_off", "time": 53, "note": 65, "velocity": 90, "channel": 0}, {"type": "note_on", "time": 26, "note": 65, "velocity": 101, "channel": 0}, {"type": "note_off", "time": 96, "note": 65, "velocity": 101, "channel": 0}, {"type": "note_on", "time": 8, "note": 63, "velocity": 97, "channel": 0}, {"type": "note_off", "time": 60, "note": 63, "velocity": 97, "channel": 0}, {"type": "note_on", "time": 35, "note": 65, "velocity": 103, "channel": 0}, {"type": "note_off", "time": 74, "note": 65, "velocity": 103, "channel": 0}, {"type": "note_on", "time": 24, "note": 63, "velocity": 92, "channel": 0}, {"type": "note_off", "time": 65, "note": 63, "velocity": 92, "channel": 0}, {"type": "note_on", "time": 31, "note": 63, "velocity": 100, "channel": 0}, {"type": "note_off", "time": 74, "note": 63, "velocity": 100, "channel": 0}, {"type": "note_on", "time": 0, "note": 61, "velocity": 98, "channel": 0}, {"type": "note_off", "time": 83, "note": 61, "velocity": 98, "channel": 0}, {"type": "note_on", "time": 22, "note": 63, "velocity": 99, "channel": 0}, {"type": "note_off", "time": 89, "note": 63, "velocity": 99, "channel": 0}, {"type": "note_on", "time": 0, "note": 61, "velocity": 102, "channel": 0}, {"type": "note_off", "time": 67, "note": 61, "velocity": 102, "channel": 0}, {"type": "note_on", "time": 24, "note": 61, "velocity": 91, "channel": 0}, {"type": "note_off", "time": 92, "note": 61, "velocity": 91, "channel": 0}, {"type": "note_on", "time": 17, "note": 58, "velocity": 116, "channel": 0}, {"type": "note_off", "time": 56, "note": 58, "velocity": 116, "channel": 0}, {"type": "note_on", "time": 17, "note": 61, "velocity": 87, "channel": 0}, {"type": "note_off", "time": 94, "note": 61, "velocity": 87, "channel": 0}, {"type": "note_on", "time": 18, "note": 58, "velocity": 111, "channel": 0}, {"type": "note_off", "time": 61, "note": 58, "velocity": 111, "channel": 0}, {"type": "note_on", "time": 22, "note": 58, "velocity": 97, "channel": 0}, {"type": "note_off", "time": 67, "note": 58, "velocity": 97, "channel": 0}, {"type": "note_on", "time": 25, "note": 56, "velocity": 108, "channel": 0}, {"type": "note_off", "time": 83, "note": 56, "velocity": 108, "channel": 0}, {"type": "note_on", "time": 32, "note": 58, "velocity": 94, "channel": 0}, {"type": "note_off", "time": 85, "note": 58, "velocity": 94, "channel": 0}, {"type": "end_of_track", "time": 0}]]}