{"ticks_per_beat": 192, "tracks": [[{"type": "track_name", "name": "Melody", "time": 0}, {"type": "set_tempo", "tempo": 247933, "time": 0}, {"type": "key_signature", "key": "Bb", "time": 0}, {"type": "time_signature", "numerator": 4, "denominator": 4, "clocks_per_click": 24, "notated_32nd_notes_per_beat": 8, "time": 0}, {"type": "note_on", "time": 1917, "note": 68, "velocity": 109, "channel": 0}, {"type": "note_off", "time": 90, "note": 68, "velocity": 109, "channel": 0}, {"type": "note_on", "time": 14, "note": 67, "velocity": 108, "channel": 0}, {"type": "note_off", "time": 72, "note": 67, "velocity": 108, "channel": 0}, {"type": "note_on", "time": 20, "note": 66, "velocity": 107, "channel": 0}, {"type": "note_off", "time": 90, "note": 66, "velocity": 107, "channel": 0}, {"type": "note_on", "time": 25, "note": 64, "velocity": 87, "channel": 0}, {"type": "note_off", "time": 48, "note": 64, "velocity": 87, "channel": 0}, {"type": "note_on", "time": 5, "note": 65, "velocity": 111, "channel": 0}, {"type": "note_off", "time": 120, "note": 65, "velocity": 111, "channel": 0}, {"type": "note_on", "time": 11, "note": 64, "velocity": 97, "channel": 0}, {"type": "note_off", "time": 112, "note": 64, "velocity": 97, "channel": 0}, {"type": "note_on", "time": 1, "note": 63, "velocity": 93, "channel": 0}, {"type": "note_off", "time": 43, "note": 63, "velocity": 93, "channel": 0}, {"type": "note_on", "time": 94, "note": 67, "velocity": 107, "channel": 0}, {"type": "note_off", "time": 112, "note": 67, "velocity": 107, "channel": 0}, {"type": "note_on", "time": 5, "note": 66, "velocity": 106, "channel": 0}, {"type": "note_off", "time": 96, "note": 66, "velocity": 106, "channel": 0}, {"type": "note_on", "time": 7, "note": 65, "velocity": 103, "channel": 0}, {"type": "note_off", "time": 83, "note": 65, "velocity": 103, "channel": 0}, {"type": "note_on", "time": 11, "note": 63, "velocity": 98, "channel": 0}, {"type": "note_off", "time": 60, "note": 63, "velocity": 98, "channel": 0}, {"type": "note_on", "time": 12, "note": 60, "velocity": 97, "channel": 0}, {"type": "note_off", "time": 101, "note": 60, "velocity": 97, "channel": 0}, {"type": "note_on", "time": 10, "note": 58, "velocity": 105, "channel": 0}, {"type": "note_off", "time": 84, "note": 58, "velocity": 105, "channel": 0}, {"type": "note_on", "time": 20, "note": 57, "velocity": 92, "channel": 0}, {"type": "note_off", "time": 62, "note": 57, "velocity": 92, "channel": 0}, {"type": "note_on", "time": 4, "note": 66, "velocity": 113, "channel": 0}, {"type": "note_off", "time": 102, "note": 66, "velocity": 113, "channel": 0}, {"type": "note_on", "time": 13, "note": 63, "velocity": 91, "channel": 0}, {"type": "note_off", "time": 74, "note": 63, "velocity": 91, "channel": 0}, {"type": "note_on", "time": 24, "note": 64, "velocity": 95, "channel": 0}, {"type": "note_off", "time": 62, "note": 64, "velocity": 95, "channel": 0}, {"type": "note_on", "time": 41, "note": 65, "velocity": 111, "channel": 0}, {"type": "note_off", "time": 82, "note": 65, "velocity": 111, "channel": 0}, {"type": "note_on", "time": 3, "note": 62, "velocity": 112, "channel": 0}, {"type": "note_off", "time": 88, "note": 62, "velocity": 112, "channel": 0}, {"type": "note_on", "time": 23, "note": 58, "velocity": 96, "channel": 0}, {"type": "note_off", "time": 79, "note": 58, "velocity": 96, "channel": 0}, {"type": "note_on", "time": 17, "note": 55, "velocity": 99, "channel": 0}, {"type": "note_off", "time": 64, "note": 55, "velocity": 99, "channel": 0}, {"type": "note_on", "time": 13, "note": 60, "velocity": 104, "channel": 0}, {"type": "note_off", "time": 101, "note": 60, "velocity": 104, "channel": 0}, {"type": "note_on", "time": 10, "note": 58, "velocity": 109, "channel": 0}, {"type": "note_off", "time": 83, "note": 58, "velocity": 109, "channel": 0}, {"type": "note_on", "time": 7, "note": 57, "velocity": 93, "channel": 0}, {"type": "note_off", "time": 72, "note": 57, "velocity": 93, "channel": 0}, {"type": "note_on", "time": 18, "note": 58, "velocity": 106, "channel": 0}, {"type": "note_off", "time": 78, "note": 58, "velocity": 106, "channel": 0}, {"type": "note_on", "time": 27, "note": 59, "velocity": 83, "channel": 0}, {"type": "note_off", "time": 62, "note": 59, "velocity": 83, "channel": 0}, {"type": "note_on", "time": 8, "note": 60, "velocity": 100, "channel": 0}, {"type": "note_off", "time": 65, "note": 60, "velocity": 100, "channel": 0}, {"type": "note_on", "time": 17, "note": 61, "velocity": 111, "channel": 0}, {"type": "note_off", "time": 74, "note": 61, "velocity": 111, "channel": 0}, {"type": "note_on", "time": 23, "note": 62, "velocity": 106, "channel": 0}, {"type": "note_off", "time": 91, "note": 62, "velocity": 106, "channel": 0}, {"type": "note_on", "time": 317, "note": 59, "velocity": 89, "channel": 0}, {"type": "note_off", "time": 55, "note": 59, "velocity": 89, "channel": 0}, {"type": "note_on", "time": 10, "note": 60, "velocity": 98, "channel": 0}, {"type": "note_off", "time": 79, "note": 60, "velocity": 98, "channel": 0}, {"type": "note_on", "time": 12, "note": 62, "velocity": 97, "channel": 0}, {"type": "note_off", "time": 65, "note": 62, "velocity": 97, "channel": 0}, {"type": "note_on", "time": 33, "note": 63, "velocity": 96, "channel": 0}, {"type": "note_off", "time": 70, "note": 63, "velocity": 96, "channel": 0}, {"type": "note_on", "time": 147, "note": 67, "velocity": 106, "channel": 0}, {"type": "note_off", "time": 51, "note": 67, "velocity": 106, "channel": 0}, {"type": "note_on", "time": 33, "note": 63, "velocity": 95, "channel": 0}, {"type": "note_off", "time": 62, "note": 63, "velocity": 95, "channel": 0}, {"type": "note_on", "time": 12, "note": 60, "velocity": 97, "channel": 0}, {"type": "note_off", "time": 88, "note": 60, "velocity": 97, "channel": 0}, {"type": "note_on", "time": 35, "note": 58, "velocity": 105, "channel": 0}, {"type": "note_off", "time": 77, "note": 58, "velocity": 105, "channel": 0}, {"type": "note_on", "time": 126, "note": 58, "velocity": 94, "channel": 0}, {"type": "note_off", "time": 52, "note": 58, "velocity": 94, "channel": 0}, {"type": "note_on", "time": 18, "note": 61, "velocity": 108, "channel": 0}, {"type": "note_off", "time": 96, "note": 61, "velocity": 108, "channel": 0}, {"type": "note_on", "time": 23, "note": 69, "velocity": 93, "channel": 0}, {"type": "note_off", "time": 42, "note": 69, "velocity": 93, "channel": 0}, {"type": "note_on", "time": 17, "note": 69, "velocity": 114, "channel": 0}, {"type": "note_off", "time": 89, "note": 69, "velocity": 114, "channel": 0}, {"type": "note_on", "time": 8, "note": 68, "velocity": 113, "channel": 0}, {"type": "note_off", "time": 73, "note": 68, "velocity": 113, "channel": 0}, {"type": "note_on", "time": 25, "note": 67, "velocity": 103, "channel": 0}, {"type": "note_off", "time": 69, "note": 67, "velocity": 103, "channel": 0}, {"type": "note_on", "time": 15, "note": 66, "velocity": 98, "channel": 0}, {"type": "note_off", "time": 82, "note": 66, "velocity": 98, "channel": 0}, {"type": "note_on", "time": 11, "note": 65, "velocity": 102, "channel": 0}, {"type": "note_off", "time": 96, "note": 65, "velocity": 102, "channel": 0}, {"type": "note_on", "time": 15, "note": 62, "velocity": 102, "channel": 0}, {"type": "note_off", "time": 98, "note": 62, "velocity": 102, "channel": 0}, {"type": "note_on", "time": 22, "note": 58, "velocity": 99, "channel": 0}, {"type": "note_off", "time": 56, "note": 58, "velocity": 99, "channel": 0}, {"type": "note_on", "time": 11, "note": 55, "velocity": 104, "channel": 0}, {"type": "note_off", "time": 66, "note": 55, "velocity": 104, "channel": 0}, {"type": "note_on", "time": 22, "note": 60, "velocity": 106, "channel": 0}, {"type": "note_off", "time": 79, "note": 60, "velocity": 106, "channel": 0}, {"type": "note_on", "time": 30, "note": 59, "velocity": 108, "channel": 0}, {"type": "note_off", "time": 96, "note": 59, "velocity": 108, "channel": 0}, {"type": "note_on", "time": 11, "note": 58, "velocity": 101, "channel": 0}, {"type": "note_off", "time": 70, "note": 58, "velocity": 101, "channel": 0}, {"type": "note_on", "time": 19, "note": 57, "velocity": 93, "channel": 0}, {"type": "note_off", "time": 68, "note": 57, "velocity": 93, "channel": 0}, {"type": "note_on", "time": 17, "note": 55, "velocity": 105, "channel": 0}, {"type": "note_off", "time": 64, "note": 55, "velocity": 105, "channel": 0}, {"type": "note_on", "time": 13, "note": 53, "velocity": 102, "channel": 0}, {"type": "note_off", "time": 66, "note": 53, "velocity": 102, "channel": 0}, {"type": "note_on", "time": 232, "note": 60, "velocity": 100, "channel": 0}, {"type": "note_off", "time": 86, "note": 60, "velocity": 100, "channel": 0}, {"type": "note_on", "time": 11, "note": 63, "velocity": 100, "channel": 0}, {"type": "note_off", "time": 111, "note": 63, "velocity": 100, "channel": 0}, {"type": "note_on", "time": 27, "note": 60, "velocity": 94, "channel": 0}, {"type": "note_off", "time": 55, "note": 60, "velocity": 94, "channel": 0}, {"type": "note_on", "time": 10, "note": 61, "velocity": 98, "channel": 0}, {"type": "note_off", "time": 56, "note": 61, "velocity": 98, "channel": 0}, {"type": "note_on", "time": 13, "note": 62, "velocity": 106, "channel": 0}, {"type": "note_off", "time": 46, "note": 62, "velocity": 106, "channel": 0}, {"type": "note_on", "time": 46, "note": 61, "velocity": 105, "channel": 0}, {"type": "note_off", "time": 82, "note": 61, "velocity": 105, "channel": 0}, {"type": "note_on", "time": 17, "note": 60, "velocity": 104, "channel": 0}, {"type": "note_off", "time": 63, "note": 60, "velocity": 104, "channel": 0}, {"type": "note_on", "time": 30, "note": 59, "velocity": 92, "channel": 0}, {"type": "note_off", "time": 82, "note": 59, "velocity": 92, "channel": 0}, {"type": "note_on", "time": 20, "note": 58, "velocity": 99, "channel": 0}, {"type": "note_off", "time": 75, "note": 58, "velocity": 99, "channel": 0}, {"type": "note_on", "time": 15, "note": 56, "velocity": 104, "channel": 0}, {"type": "note_off", "time": 60, "note": 56, "velocity": 104, "channel": 0}, {"type": "note_on", "time": 139, "note": 54, "velocity": 85, "channel": 0}, {"type": "note_off", "time": 52, "note": 54, "velocity": 85, "channel": 0}, {"type": "note_on", "time": 12, "note": 55, "velocity": 99, "channel": 0}, {"type": "note_off", "time": 107, "note": 55, "velocity": 99, "channel": 0}, {"type": "note_on", "time": 5, "note": 58, "velocity": 103, "channel": 0}, {"type": "note_off", "time": 74, "note": 58, "velocity": 103, "channel": 0}, {"type": "note_on", "time": 8, "note": 59, "velocity": 94, "channel": 0}, {"type": "note_off", "time": 77, "note": 59, "velocity": 94, "channel": 0}, {"type": "note_on", "time": 24, "note": 61, "velocity": 100, "channel": 0}, {"type": "note_off", "time": 68, "note": 61, "velocity": 100, "channel": 0}, {"type": "note_on", "time": 22, "note": 62, "velocity": 98, "channel": 0}, {"type": "note_off", "time": 76, "note": 62, "velocity": 98, "channel": 0}, {"type": "note_on", "time": 44, "note": 63, "velocity": 106, "channel": 0}, {"type": "note_off", "time": 76, "note": 63, "velocity": 106, "channel": 0}, {"type": "note_on", "time": 15, "note": 64, "velocity": 94, "channel": 0}, {"type": "note_off", "time": 72, "note": 64, "velocity": 94, "channel": 0}, {"type": "note_on", "time": 8, "note": 65, "velocity": 110, "channel": 0}, {"type": "note_off", "time": 111, "note": 65, "velocity": 110, "channel": 0}, {"type": "note_on", "time": 10, "note": 66, "velocity": 93, "channel": 0}, {"type": "note_off", "time": 61, "note": 66, "velocity": 93, "channel": 0}, {"type": "note_on", "time": 14, "note": 67, "velocity": 103, "channel": 0}, {"type": "note_off", "time": 53, "note": 67, "velocity": 103, "channel": 0}, {"type": "note_on", "time": 18, "note": 67, "velocity": 107, "channel": 0}, {"type": "note_off", "time": 42, "note": 67, "velocity": 107, "channel": 0}, {"type": "note_on", "time": 17, "note": 63, "velocity": 99, "channel": 0}, {"type": "note_off", "time": 39, "note": 63, "velocity": 99, "channel": 0}, {"type": "note_on", "time": 4, "note": 60, "velocity": 104, "channel": 0}, {"type": "note_off", "time": 56, "note": 60, "velocity": 104, "channel": 0}, {"type": "note_on", "time": 15, "note": 58, "velocity": 93, "channel": 0}, {"type": "note_off", "time": 49, "note": 58, "velocity": 93, "channel": 0}, {"type": "note_on", "time": 178, "note": 65, "velocity": 115, "channel": 0}, {"type": "note_off", "time": 97, "note": 65, "velocity": 115, "channel": 0}, {"type": "note_on", "time": 7, "note": 66, "velocity": 102, "channel": 0}, {"type": "note_off", "time": 49, "note": 66, "velocity": 102, "channel": 0}, {"type": "note_on", "time": 9, "note": 63, "velocity": 103, "channel": 0}, {"type": "note_off", "time": 85, "note": 63, "velocity": 103, "channel": 0}, {"type": "note_on", "time": 26, "note": 60, "velocity": 103, "channel": 0}, {"type": "note_off", "time": 67, "note": 60, "velocity": 103, "channel": 0}, {"type": "note_on", "time": 192, "note": 64, "velocity": 99, "channel": 0}, {"type": "note_off", "time": 119, "note": 64, "velocity": 99, "channel": 0}, {"type": "note_on", "time": 8, "note": 65, "velocity": 104, "channel": 0}, {"type": "note_off", "time": 55, "note": 65, "velocity": 104, "channel": 0}, {"type": "note_on", "time": 3, "note": 62, "velocity": 103, "channel": 0}, {"type": "note_off", "time": 93, "note": 62, "velocity": 103, "channel": 0}, {"type": "note_on", "time": 17, "note": 58, "velocity": 107, "channel": 0}, {"type": "note_off", "time": 82, "note": 58, "velocity": 107, "channel": 0}, {"type": "note_on", "time": 190, "note": 64, "velocity": 106, "channel": 0}, {"type": "note_off", "time": 94, "note": 64, "velocity": 106, "channel": 0}, {"type": "note_on", "time": 11, "note": 65, "velocity": 109, "channel": 0}, {"type": "note_off", "time": 67, "note": 65, "velocity": 109, "channel": 0}, {"type": "note_on", "time": 8, "note": 62, "velocity": 100, "channel": 0}, {"type": "note_off", "time": 75, "note": 62, "velocity": 100, "channel": 0}, {"type": "note_on", "time": 25, "note": 58, "velocity": 104, "channel": 0}, {"type": "note_off", "time": 68, "note": 58, "velocity": 104, "channel": 0}, {"type": "note_on", "time": 195, "note": 66, "velocity": 98, "channel": 0}, {"type": "note_off", "time": 119, "note": 66, "velocity": 98, "channel": 0}, {"type": "note_on", "time": 7, "note": 67, "velocity": 106, "channel": 0}, {"type": "note_off", "time": 59, "note": 67, "velocity": 106, "channel": 0}, {"type": "note_on", "time": 26, "note": 63, "velocity": 100, "channel": 0}, {"type": "note_off", "time": 75, "note": 63, "velocity": 100, "channel": 0}, {"type": "note_on", "time": 10, "note": 62, "velocity": 102, "channel": 0}, {"type": "note_off", "time": 73, "note": 62, "velocity": 102, "channel": 0}, {"type": "note_on", "time": 11, "note": 60, "velocity": 106, "channel": 0}, {"type": "note_off", "time": 94, "note": 60, "velocity": 106, "channel": 0}, {"type": "note_on", "time": 7, "note": 58, "velocity": 106, "channel": 0}, {"type": "note_off", "time": 98, "note": 58, "velocity": 106, "channel": 0}, {"type": "note_on", "time": 15, "note": 59, "velocity": 97, "channel": 0}, {"type": "note_off", "time": 72, "note": 59, "velocity": 97, "channel": 0}, {"type": "note_on", "time": 13, "note": 62, "velocity": 111, "channel": 0}, {"type": "note_off", "time": 66, "note": 62, "velocity": 111, "channel": 0}, {"type": "note_on", "time": 137, "note": 62, "velocity": 104, "channel": 0}, {"type": "note_off", "time": 65, "note": 62, "velocity": 104, "channel": 0}, {"type": "note_on", "time": 12, "note": 64, "velocity": 113, "channel": 0}, {"type": "note_off", "time": 96, "note": 64, "velocity": 113, "channel": 0}, {"type": "note_on", "time": 14, "note": 67, "velocity": 102, "channel": 0}, {"type": "note_off", "time": 47, "note": 67, "velocity": 102, "channel": 0}, {"type": "note_on", "time": 38, "note": 74, "velocity": 121, "channel": 0}, {"type": "note_off", "time": 64, "note": 74, "velocity": 121, "channel": 0}, {"type": "note_on", "time": 6, "note": 72, "velocity": 112, "channel": 0}, {"type": "note_off", "time": 33, "note": 72, "velocity": 112, "channel": 0}, {"type": "note_on", "time": 12, "note": 71, "velocity": 110, "channel": 0}, {"type": "note_off", "time": 61, "note": 71, "velocity": 110, "channel": 0}, {"type": "note_on", "time": 22, "note": 70, "velocity": 106, "channel": 0}, {"type": "note_off", "time": 79, "note": 70, "velocity": 106, "channel": 0}, {"type": "note_on", "time": 19, "note": 69, "velocity": 112, "channel": 0}, {"type": "note_off", "time": 56, "note": 69, "velocity": 112, "channel": 0}, {"type": "note_on", "time": 9, "note": 67, "velocity": 99, "channel": 0}, {"type": "note_off", "time": 98, "note": 67, "velocity": 99, "channel": 0}, {"type": "note_on", "time": 16, "note": 66, "velocity": 101, "channel": 0}, {"type": "note_off", "time": 71, "note": 66, "velocity": 101, "channel": 0}, {"type": "note_on", "time": 8, "note": 65, "velocity": 102, "channel": 0}, {"type": "note_off", "time": 93, "note": 65, "velocity": 102, "channel": 0}, {"type": "note_on", "time": 12, "note": 64, "velocity": 99, "channel": 0}, {"type": "note_off", "time": 53, "note": 64, "velocity": 99, "channel": 0}, {"type": "note_on", "time": 20, "note": 63, "velocity": 98, "channel": 0}, {"type": "note_off", "time": 56, "note": 63, "velocity": 98, "channel": 0}, {"type": "note_on", "time": 40, "note": 55, "velocity": 111, "channel": 0}, {"type": "note_off", "time": 86, "note": 55, "velocity": 111, "channel": 0}, {"type": "note_on", "time": 18, "note": 58, "velocity": 88, "channel": 0}, {"type": "note_off", "time": 88, "note": 58, "velocity": 88, "channel": 0}, {"type": "note_on", "time": 16, "note": 62, "velocity": 111, "channel": 0}, {"type": "note_off", "time": 72, "note": 62, "velocity": 111, "channel": 0}, {"type": "note_on", "time": 21, "note": 60, "velocity": 102, "channel": 0}, {"type": "note_off", "time": 86, "note": 60, "velocity": 102, "channel": 0}, {"type": "note_on", "time": 17, "note": 59, "velocity": 97, "channel": 0}, {"type": "note_off", "time": 80, "note": 59, "velocity": 97, "channel": 0}, {"type": "note_on", "time": 16, "note": 58, "velocity": 104, "channel": 0}, {"type": "note_off", "time": 86, "note": 58, "velocity": 104, "channel": 0}, {"type": "note_on", "time": 11, "note": 56, "velocity": 108, "channel": 0}, {"type": "note_off", "time": 69, "note": 56, "velocity": 108, "channel": 0}, {"type": "note_on", "time": 11, "note": 57, "velocity": 90, "channel": 0}, {"type": "note_off", "time": 94, "note": 57, "velocity": 90, "channel": 0}, {"type": "note_on", "time": 26, "note": 60, "velocity": 90, "channel": 0}, {"type": "note_off", "time": 56, "note": 60, "velocity": 90, "channel": 0}, {"type": "note_on", "time": 13, "note": 63, "velocity": 114, "channel": 0}, {"type": "note_off", "time": 57, "note": 63, "velocity": 114, "channel": 0}, {"type": "note_on", "time": 54, "note": 66, "velocity": 107, "channel": 0}, {"type": "note_off", "time": 93, "note": 66, "velocity": 107, "channel": 0}, {"type": "note_on", "time": 7, "note": 67, "velocity": 104, "channel": 0}, {"type": "note_off", "time": 73, "note": 67, "velocity": 104, "channel": 0}, {"type": "note_on", "time": 13, "note": 63, "velocity": 103, "channel": 0}, {"type": "note_off", "time": 68, "note": 63, "velocity": 103, "channel": 0}, {"type": "note_on", "time": 15, "note": 60, "velocity": 103, "channel": 0}, {"type": "note_off", "time": 83, "note": 60, "velocity": 103, "channel": 0}, {"type": "note_on", "time": 28, "note": 58, "velocity": 108, "channel": 0}, {"type": "note_off", "time": 93, "note": 58, "velocity": 108, "channel": 0}, {"type": "note_on", "time": 11, "note": 57, "velocity": 90, "channel": 0}, {"type": "note_off", "time": 62, "note": 57, "velocity": 90, "channel": 0}, {"type": "note_on", "time": 7, "note": 66, "velocity": 104, "channel": 0}, {"type": "note_off", "time": 85, "note": 66, "velocity": 104, "channel": 0}, {"type": "note_on", "time": 44, "note": 63, "velocity": 92, "channel": 0}, {"type": "note_off", "time": 35, "note": 63, "velocity": 92, "channel": 0}, {"type": "note_on", "time": 14, "note": 64, "velocity": 108, "channel": 0}, {"type": "note_off", "time": 48, "note": 64, "velocity": 108, "channel": 0}, {"type": "note_on", "time": 28, "note": 65, "velocity": 111, "channel": 0}, {"type": "note_off", "time": 90, "note": 65, "velocity": 111, "channel": 0}, {"type": "note_on", "time": 15, "note": 62, "velocity": 103, "channel": 0}, {"type": "note_off", "time": 75, "note": 62, "velocity": 103, "channel": 0}, {"type": "note_on", "time": 59, "note": 58, "velocity": 94, "channel": 0}, {"type": "note_off", "time": 69, "note": 58, "velocity": 94, "channel": 0}, {"type": "note_on", "time": 9, "note": 55, "velocity": 96, "channel": 0}, {"type": "note_off", "time": 74, "note": 55, "velocity": 96, "channel": 0}, {"type": "note_on", "time": 6, "note": 60, "velocity": 107, "channel": 0}, {"type": "note_off", "time": 84, "note": 60, "velocity": 107, "channel": 0}, {"type": "note_on", "time": 18, "note": 58, "velocity": 106, "channel": 0}, {"type": "note_off", "time": 61, "note": 58, "velocity": 106, "channel": 0}, {"type": "note_on", "time": 15, "note": 57, "velocity": 106, "channel": 0}, {"type": "note_off", "time": 94, "note": 57, "velocity": 106, "channel": 0}, {"type": "note_on", "time": 15, "note": 58, "velocity": 98, "channel": 0}, {"type": "note_off", "time": 71, "note": 58, "velocity": 98, "channel": 0}, {"type": "note_on", "time": 12, "note": 62, "velocity": 111, "channel": 0}, {"type": "note_off", "time": 106, "note": 62, "velocity": 111, "channel": 0}, {"type": "note_on", "time": 11, "note": 65, "velocity": 104, "channel": 0}, {"type": "note_off", "time": 70, "note": 65, "velocity": 104, "channel": 0}, {"type": "note_on", "time": 8, "note": 67, "velocity": 117, "channel": 0}, {"type": "note_off", "time": 77, "note": 67, "velocity": 117, "channel": 0}, {"type": "note_on", "time": 37, "note": 67, "velocity": 114, "channel": 0}, {"type": "note_off", "time": 55, "note": 67, "velocity": 114, "channel": 0}, {"type": "note_on", "time": 14, "note": 68, "velocity": 105, "channel": 0}, {"type": "note_off", "time": 89, "note": 68, "velocity": 105, "channel": 0}, {"type": "note_on", "time": 18, "note": 65, "velocity": 102, "channel": 0}, {"type": "note_off", "time": 80, "note": 65, "velocity": 102, "channel": 0}, {"type": "note_on", "time": 12, "note": 64, "velocity": 96, "channel": 0}, {"type": "note_off", "time": 95, "note": 64, "velocity": 96, "channel": 0}, {"type": "note_on", "time": 8, "note": 67, "velocity": 113, "channel": 0}, {"type": "note_off", "time": 80, "note": 67, "velocity": 113, "channel": 0}, {"type": "note_on", "time": 6, "note": 65, "velocity": 109, "channel": 0}, {"type": "note_off", "time": 89, "note": 65, "velocity": 109, "channel": 0}, {"type": "note_on", "time": 402, "note": 59, "velocity": 94, "channel": 0}, {"type": "note_off", "time": 76, "note": 59, "velocity": 94, "channel": 0}, {"type": "note_on", "time": 11, "note": 60, "velocity": 100, "channel": 0}, {"type": "note_off", "time": 82, "note": 60, "velocity": 100, "channel": 0}, {"type": "note_on", "time": 7, "note": 62, "velocity": 108, "channel": 0}, {"type": "note_off", "time": 80, "note": 62, "velocity": 108, "channel": 0}, {"type": "note_on", "time": 293, "note": 60, "velocity": 108, "channel": 0}, {"type": "note_off", "time": 76, "note": 60, "velocity": 108, "channel": 0}, {"type": "note_on", "time": 10, "note": 61, "velocity": 108, "channel": 0}, {"type": "note_off", "time": 73, "note": 61, "velocity": 108, "channel": 0}, {"type": "note_on", "time": 28, "note": 64, "velocity": 106, "channel": 0}, {"type": "note_off", "time": 75, "note": 64, "velocity": 106, "channel": 0}, {"type": "note_on", "time": 305, "note": 61, "velocity": 105, "channel": 0}, {"type": "note_off", "time": 55, "note": 61, "velocity": 105, "channel": 0}, {"type": "note_on", "time": 4, "note": 62, "velocity": 104, "channel": 0}, {"type": "note_off", "time": 84, "note": 62, "velocity": 104, "channel": 0}, {"type": "note_on", "time": 128, "note": 65, "velocity": 123, "channel": 0}, {"type": "note_off", "time": 83, "note": 65, "velocity": 123, "channel": 0}, {"type": "note_on", "time": 219, "note": 61, "velocity": 109, "channel": 0}, {"type": "note_off", "time": 72, "note": 61, "velocity": 109, "channel": 0}, {"type": "note_on", "time": 8, "note": 62, "velocity": 99, "channel": 0}, {"type": "note_off", "time": 101, "note": 62, "velocity": 99, "channel": 0}, {"type": "note_on", "time": 11, "note": 66, "velocity": 120, "channel": 0}, {"type": "note_off", "time": 73, "note": 66, "velocity": 120, "channel": 0}, {"type": "note_on", "time": 138, "note": 59, "velocity": 95, "channel": 0}, {"type": "note_off", "time": 41, "note": 59, "velocity": 95, "channel": 0}, {"type": "note_on", "time": 14, "note": 60, "velocity": 102, "channel": 0}, {"type": "note_off", "time": 71, "note": 60, "velocity": 102, "channel": 0}, {"type": "note_on", "time": 114, "note": 67, "velocity": 121, "channel": 0}, {"type": "note_off", "time": 78, "note": 67, "velocity": 121, "channel": 0}, {"type": "note_on", "time": 242, "note": 57, "velocity": 98, "channel": 0}, {"type": "note_off", "time": 48, "note": 57, "velocity": 98, "channel": 0}, {"type": "note_on", "time": 5, "note": 58, "velocity": 99, "channel": 0}, {"type": "note_off", "time": 120, "note": 58, "velocity": 99, "channel": 0}, {"type": "note_on", "time": 14, "note": 59, "velocity": 94, "channel": 0}, {"type": "note_off", "time": 63, "note": 59, "velocity": 94, "channel": 0}, {"type": "note_on", "time": 15, "note": 60, "velocity": 103, "channel": 0}, {"type": "note_off", "time": 89, "note": 60, "velocity": 103, "channel": 0}, {"type": "note_on", "time": 217, "note": 59, "velocity": 96, "channel": 0}, {"type": "note_off", "time": 54, "note": 59, "velocity": 96, "channel": 0}, {"type": "note_on", "time": 18, "note": 58, "velocity": 101, "channel": 0}, {"type": "note_off", "time": 97, "note": 58, "velocity": 101, "channel": 0}, {"type": "note_on", "time": 22, "note": 56, "velocity": 102, "channel": 0}, {"type": "note_off", "time": 71, "note": 56, "velocity": 102, "channel": 0}, {"type": "note_on", "time": 178, "note": 55, "velocity": 113, "channel": 0}, {"type": "note_off", "time": 95, "note": 55, "velocity": 113, "channel": 0}, {"type": "note_on", "time": 308, "note": 55, "velocity": 116, "channel": 0}, {"type": "note_off", "time": 104, "note": 55, "velocity": 116, "channel": 0}, {"type": "note_on", "time": 63, "note": 62, "velocity": 113, "channel": 0}, {"type": "note_off", "time": 90, "note": 62, "velocity": 113, "channel": 0}, {"type": "note_on", "time": 23, "note": 65, "velocity": 115, "channel": 0}, {"type": "note_off", "time": 72, "note": 65, "velocity": 115, "channel": 0}, {"type": "note_on", "time": 33, "note": 62, "velocity": 111, "channel": 0}, {"type": "note_off", "time": 67, "note": 62, "velocity": 111, "channel": 0}, {"type": "note_on", "time": 18, "note": 63, "velocity": 107, "channel": 0}, {"type": "note_off", "time": 47, "note": 63, "velocity": 107, "channel": 0}, {"type": "note_on", "time": 12, "note": 65, "velocity": 100, "channel": 0}, {"type": "note_off", "time": 38, "note": 65, "velocity": 100, "channel": 0}, {"type": "note_on", "time": 4, "note": 66, "velocity": 100, "channel": 0}, {"type": "note_off", "time": 93, "note": 66, "velocity": 100, "channel": 0}, {"type": "note_on", "time": 3, "note": 67, "velocity": 97, "channel": 0}, {"type": "note_off", "time": 60, "note": 67, "velocity": 97, "channel": 0}, {"type": "note_on", "time": 10, "note": 67, "velocity": 108, "channel": 0}, {"type": "note_off", "time": 24, "note": 67, "velocity": 108, "channel": 0}, {"type": "note_on", "time": 3, "note": 68, "velocity": 112, "channel": 0}, {"type": "note_off", "time": 73, "note": 68, "velocity": 112, "channel": 0}, {"type": "note_on", "time": 12, "note": 69, "velocity": 116, "channel": 0}, {"type": "note_off", "time": 100, "note": 69, "velocity": 116, "channel": 0}, {"type": "note_on", "time": 6, "note": 70, "velocity": 109, "channel": 0}, {"type": "note_off", "time": 73, "note": 70, "velocity": 109, "channel": 0}, {"type": "note_on", "time": 6, "note": 66, "velocity": 104, "channel": 0}, {"type": "note_off", "time": 74, "note": 66, "velocity": 104, "channel": 0}, {"type": "note_on", "time": 13, "note": 63, "velocity": 103, "channel": 0}, {"type": "note_off", "time": 80, "note": 63, "velocity": 103, "channel": 0}, {"type": "note_on", "time": 109, "note": 65, "velocity": 111, "channel": 0}, {"type": "note_off", "time": 110, "note": 65, "velocity": 111, "channel": 0}, {"type": "note_on", "time": 11, "note": 63, "velocity": 102, "channel": 0}, {"type": "note_off", "time": 58, "note": 63, "velocity": 102, "channel": 0}, {"type": "note_on", "time": 73, "note": 60, "velocity": 98, "channel": 0}, {"type": "note_off", "time": 69, "note": 60, "velocity": 98, "channel": 0}, {"type": "note_on", "time": 7, "note": 61, "velocity": 111, "channel": 0}, {"type": "note_off", "time": 61, "note": 61, "velocity": 111, "channel": 0}, {"type": "note_on", "time": 7, "note": 62, "velocity": 107, "channel": 0}, {"type": "note_off", "time": 78, "note": 62, "velocity": 107, "channel": 0}, {"type": "note_on", "time": 7, "note": 58, "velocity": 111, "channel": 0}, {"type": "note_off", "time": 88, "note": 58, "velocity": 111, "channel": 0}, {"type": "note_on", "time": 15, "note": 55, "velocity": 96, "channel": 0}, {"type": "note_off", "time": 47, "note": 55, "velocity": 96, "channel": 0}, {"type": "note_on", "time": 148, "note": 60, "velocity": 108, "channel": 0}, {"type": "note_off", "time": 82, "note": 60, "velocity": 108, "channel": 0}, {"type": "note_on", "time": 12, "note": 58, "velocity": 109, "channel": 0}, {"type": "note_off", "time": 80, "note": 58, "velocity": 109, "channel": 0}, {"type": "note_on", "time": 22, "note": 57, "velocity": 97, "channel": 0}, {"type": "note_off", "time": 63, "note": 57, "velocity": 97, "channel": 0}, {"type": "note_on", "time": 39, "note": 58, "velocity": 111, "channel": 0}, {"type": "note_off", "time": 53, "note": 58, "velocity": 111, "channel": 0}, {"type": "note_on", "time": 13, "note": 59, "velocity": 92, "channel": 0}, {"type": "note_off", "time": 44, "note": 59, "velocity": 92, "channel": 0}, {"type": "note_on", "time": 142, "note": 65, "velocity": 118, "channel": 0}, {"type": "note_off", "time": 107, "note": 65, "velocity": 118, "channel": 0}, {"type": "note_on", "time": 5, "note": 68, "velocity": 118, "channel": 0}, {"type": "note_off", "time": 92, "note": 68, "velocity": 118, "channel": 0}, {"type": "note_on", "time": 3, "note": 67, "velocity": 109, "channel": 0}, {"type": "note_off", "time": 85, "note": 67, "velocity": 109, "channel": 0}, {"type": "note_on", "time": 4, "note": 65, "velocity": 105, "channel": 0}, {"type": "note_off", "time": 65, "note": 65, "velocity": 105, "channel": 0}, {"type": "note_on", "time": 37, "note": 64, "velocity": 98, "channel": 0}, {"type": "note_off", "time": 74, "note": 64, "velocity": 98, "channel": 0}, {"type": "note_on", "time": 12, "note": 67, "velocity": 110, "channel": 0}, {"type": "note_off", "time": 75, "note": 67, "velocity": 110, "channel": 0}, {"type": "note_on", "time": 6, "note": 70, "velocity": 103, "channel": 0}, {"type": "note_off", "time": 87, "note": 70, "velocity": 103, "channel": 0}, {"type": "note_on", "time": 12, "note": 74, "velocity": 112, "channel": 0}, {"type": "note_off", "time": 93, "note": 74, "velocity": 112, "channel": 0}, {"type": "note_on", "time": 14, "note": 69, "velocity": 105, "channel": 0}, {"type": "note_off", "time": 83, "note": 69, "velocity": 105, "channel": 0}, {"type": "note_on", "time": 8, "note": 67, "velocity": 92, "channel": 0}, {"type": "note_off", "time": 49, "note": 67, "velocity": 92, "channel": 0}, {"type": "note_on", "time": 40, "note": 72, "velocity": 112, "channel": 0}, {"type": "note_off", "time": 83, "note": 72, "velocity": 112, "channel": 0}, {"type": "note_on", "time": 14, "note": 71, "velocity": 106, "channel": 0}, {"type": "note_off", "time": 110, "note": 71, "velocity": 106, "channel": 0}, {"type": "note_on", "time": 7, "note": 70, "velocity": 107, "channel": 0}, {"type": "note_off", "time": 62, "note": 70, "velocity": 107, "channel": 0}, {"type": "note_on", "time": 7, "note": 67, "velocity": 107, "channel": 0}, {"type": "note_off", "time": 67, "note": 67, "velocity": 107, "channel": 0}, {"type": "note_on", "time": 9, "note": 63, "velocity": 101, "channel": 0}, {"type": "note_off", "time": 107, "note": 63, "velocity": 101, "channel": 0}, {"type": "note_on", "time": 20, "note": 60, "velocity": 106, "channel": 0}, {"type": "note_off", "time": 85, "note": 60, "velocity": 106, "channel": 0}, {"type": "note_on", "time": 10, "note": 61, "velocity": 106, "channel": 0}, {"type": "note_off", "time": 76, "note": 61, "velocity": 106, "channel": 0}, {"type": "note_on", "time": 105, "note": 69, "velocity": 120, "channel": 0}, {"type": "note_off", "time": 94, "note": 69, "velocity": 120, "channel": 0}, {"type": "note_on", "time": 5, "note": 67, "velocity": 111, "channel": 0}, {"type": "note_off", "time": 78, "note": 67, "velocity": 111, "channel": 0}, {"type": "note_on", "time": 10, "note": 65, "velocity": 113, "channel": 0}, {"type": "note_off", "time": 88, "note": 65, "velocity": 113, "channel": 0}, {"type": "note_on", "time": 20, "note": 62, "velocity": 113, "channel": 0}, {"type": "note_off", "time": 76, "note": 62, "velocity": 113, "channel": 0}, {"type": "note_on", "time": 19, "note": 58, "velocity": 102, "channel": 0}, {"type": "note_off", "time": 82, "note": 58, "velocity": 102, "channel": 0}, {"type": "note_on", "time": 12, "note": 55, "velocity": 105, "channel": 0}, {"type": "note_off", "time": 71, "note": 55, "velocity": 105, "channel": 0}, {"type": "note_on", "time": 15, "note": 60, "velocity": 114, "channel": 0}, {"type": "note_off", "time": 90, "note": 60, "velocity": 114, "channel": 0}, {"type": "note_on", "time": 12, "note": 58, "velocity": 116, "channel": 0}, {"type": "note_off", "time": 101, "note": 58, "velocity": 116, "channel": 0}, {"type": "note_on", "time": 147, "note": 62, "velocity": 118, "channel": 0}, {"type": "note_off", "time": 105, "note": 62, "velocity": 118, "channel": 0}, {"type": "note_on", "time": 5, "note": 65, "velocity": 124, "channel": 0}, {"type": "note_off", "time": 79, "note": 65, "velocity": 124, "channel": 0}, {"type": "note_on", "time": 514, "note": 68, "velocity": 104, "channel": 0}, {"type": "note_off", "time": 104, "note": 68, "velocity": 104, "channel": 0}, {"type": "note_on", "time": 25, "note": 70, "velocity": 98, "channel": 0}, {"type": "note_off", "time": 144, "note": 70, "velocity": 98, "channel": 0}, {"type": "note_on", "time": 46, "note": 70, "velocity": 104, "channel": 0}, {"type": "note_off", "time": 73, "note": 70, "velocity": 104, "channel": 0}, {"type": "note_on", "time": 29, "note": 70, "velocity": 106, "channel": 0}, {"type": "note_off", "time": 33, "note": 70, "velocity": 106, "channel": 0}, {"type": "note_on", "time": 7, "note": 70, "velocity": 116, "channel": 0}, {"type": "note_off", "time": 189, "note": 70, "velocity": 116, "channel": 0}, {"type": "note_on", "time": 22, "note": 70, "velocity": 113, "channel": 0}, {"type": "note_off", "time": 51, "note": 70, "velocity": 113, "channel": 0}, {"type": "note_on", "time": 23, "note": 70, "velocity": 106, "channel": 0}, {"type": "note_off", "time": 39, "note": 70, "velocity": 106, "channel": 0}, {"type": "note_on", "time": 15, "note": 70, "velocity": 110, "channel": 0}, {"type": "note_off", "time": 142, "note": 70, "velocity": 110, "channel": 0}, {"type": "note_on", "time": 28, "note": 67, "velocity": 108, "channel": 0}, {"type": "note_off", "time": 83, "note": 67, "velocity": 108, "channel": 0}, {"type": "note_on", "time": 0, "note": 68, "velocity": 107, "channel": 0}, {"type": "note_off", "time": 85, "note": 68, "velocity": 107, "channel": 0}, {"type": "note_on", "time": 9, "note": 71, "velocity": 96, "channel": 0}, {"type": "note_off", "time": 36, "note": 71, "velocity": 96, "channel": 0}, {"type": "note_on", "time": 9, "note": 68, "velocity": 107, "channel": 0}, {"type": "note_off", "time": 37, "note": 68, "velocity": 107, "channel": 0}, {"type": "note_on", "time": 8, "note": 65, "velocity": 111, "channel": 0}, {"type": "note_off", "time": 71, "note": 65, "velocity": 111, "channel": 0}, {"type": "note_on", "time": 44, "note": 62, "velocity": 107, "channel": 0}, {"type": "note_off", "time": 74, "note": 62, "velocity": 107, "channel": 0}, {"type": "note_on", "time": 22, "note": 58, "velocity": 105, "channel": 0}, {"type": "note_off", "time": 64, "note": 58, "velocity": 105, "channel": 0}, {"type": "note_on", "time": 22, "note": 55, "velocity": 101, "channel": 0}, {"type": "note_off", "time": 55, "note": 55, "velocity": 101, "channel": 0}, {"type": "note_on", "time": 11, "note": 60, "velocity": 104, "channel": 0}, {"type": "note_off", "time": 282, "note": 60, "velocity": 104, "channel": 0}, {"type": "note_on", "time": 39, "note": 63, "velocity": 116, "channel": 0}, {"type": "note_off", "time": 91, "note": 63, "velocity": 116, "channel": 0}, {"type": "note_on", "time": 290, "note": 60, "velocity": 109, "channel": 0}, {"type": "note_off", "time": 53, "note": 60, "velocity": 109, "channel": 0}, {"type": "note_on", "time": 15, "note": 59, "velocity": 101, "channel": 0}, {"type": "note_off", "time": 120, "note": 59, "velocity": 101, "channel": 0}, {"type": "note_on", "time": 2, "note": 61, "velocity": 110, "channel": 0}, {"type": "note_off", "time": 148, "note": 61, "velocity": 110, "channel": 0}, {"type": "note_on", "time": 20, "note": 64, "velocity": 110, "channel": 0}, {"type": "note_off", "time": 76, "note": 64, "velocity": 110, "channel": 0}, {"type": "note_on", "time": 128, "note": 61, "velocity": 107, "channel": 0}, {"type": "note_off", "time": 91, "note": 61, "velocity": 107, "channel": 0}, {"type": "note_on", "time": 5, "note": 62, "velocity": 99, "channel": 0}, {"type": "note_off", "time": 79, "note": 62, "velocity": 99, "channel": 0}, {"type": "note_on", "time": 10, "note": 63, "velocity": 103, "channel": 0}, {"type": "note_off", "time": 71, "note": 63, "velocity": 103, "channel": 0}, {"type": "note_on", "time": 18, "note": 64, "velocity": 104, "channel": 0}, {"type": "note_off", "time": 86, "note": 64, "velocity": 104, "channel": 0}, {"type": "note_on", "time": 12, "note": 65, "velocity": 114, "channel": 0}, {"type": "note_off", "time": 77, "note": 65, "velocity": 114, "channel": 0}, {"type": "note_on", "time": 8, "note": 62, "velocity": 106, "channel": 0}, {"type": "note_off", "time": 88, "note": 62, "velocity": 106, "channel": 0}, {"type": "note_on", "time": 16, "note": 58, "velocity": 106, "channel": 0}, {"type": "note_off", "time": 100, "note": 58, "velocity": 106, "channel": 0}, {"type": "note_on", "time": 184, "note": 60, "velocity": 108, "channel": 0}, {"type": "note_off", "time": 90, "note": 60, "velocity": 108, "channel": 0}, {"type": "note_on", "time": 28, "note": 59, "velocity": 97, "channel": 0}, {"type": "note_off", "time": 83, "note": 59, "velocity": 97, "channel": 0}, {"type": "note_on", "time": 7, "note": 58, "velocity": 107, "channel": 0}, {"type": "note_off", "time": 63, "note": 58, "velocity": 107, "channel": 0}, {"type": "note_on", "time": 8, "note": 57, "velocity": 101, "channel": 0}, {"type": "note_off", "time": 66, "note": 57, "velocity": 101, "channel": 0}, {"type": "note_on", "time": 25, "note": 55, "velocity": 103, "channel": 0}, {"type": "note_off", "time": 90, "note": 55, "velocity": 103, "channel": 0}, {"type": "note_on", "time": 15, "note": 53, "velocity": 98, "channel": 0}, {"type": "note_off", "time": 65, "note": 53, "velocity": 98, "channel": 0}, {"type": "note_on", "time": 98, "note": 63, "velocity": 105, "channel": 0}, {"type": "note_off", "time": 92, "note": 63, "velocity": 105, "channel": 0}, {"type": "note_on", "time": 51, "note": 60, "velocity": 94, "channel": 0}, {"type": "note_off", "time": 58, "note": 60, "velocity": 94, "channel": 0}, {"type": "note_on", "time": 11, "note": 61, "velocity": 103, "channel": 0}, {"type": "note_off", "time": 75, "note": 61, "velocity": 103, "channel": 0}, {"type": "note_on", "time": 8, "note": 62, "velocity": 112, "channel": 0}, {"type": "note_off", "time": 80, "note": 62, "velocity": 112, "channel": 0}, {"type": "note_on", "time": 288, "note": 58, "velocity": 112, "channel": 0}, {"type": "note_off", "time": 106, "note": 58, "velocity": 112, "channel": 0}, {"type": "note_on", "time": 9, "note": 60, "velocity": 99, "channel": 0}, {"type": "note_off", "time": 62, "note": 60, "velocity": 99, "channel": 0}, {"type": "note_on", "time": 14, "note": 63, "velocity": 113, "channel": 0}, {"type": "note_off", "time": 70, "note": 63, "velocity": 113, "channel": 0}, {"type": "note_on", "time": 26, "note": 66, "velocity": 120, "channel": 0}, {"type": "note_off", "time": 96, "note": 66, "velocity": 120, "channel": 0}, {"type": "note_on", "time": 10, "note": 67, "velocity": 114, "channel": 0}, {"type": "note_off", "time": 94, "note": 67, "velocity": 114, "channel": 0}, {"type": "note_on", "time": 16, "note": 70, "velocity": 92, "channel": 0}, {"type": "note_off", "time": 36, "note": 70, "velocity": 92, "channel": 0}, {"type": "note_on", "time": 26, "note": 72, "velocity": 123, "channel": 0}, {"type": "note_off", "time": 100, "note": 72, "velocity": 123, "channel": 0}, {"type": "note_on", "time": 18, "note": 72, "velocity": 116, "channel": 0}, {"type": "note_off", "time": 135, "note": 72, "velocity": 116, "channel": 0}, {"type": "note_on", "time": 11, "note": 73, "velocity": 115, "channel": 0}, {"type": "note_off", "time": 129, "note": 73, "velocity": 115, "channel": 0}, {"type": "note_on", "time": 9, "note": 72, "velocity": 115, "channel": 0}, {"type": "note_off", "time": 75, "note": 72, "velocity": 115, "channel": 0}, {"type": "note_on", "time": 12, "note": 71, "velocity": 111, "channel": 0}, {"type": "note_off", "time": 93, "note": 71, "velocity": 111, "channel": 0}, {"type": "note_on", "time": 8, "note": 70, "velocity": 104, "channel": 0}, {"type": "note_off", "time": 83, "note": 70, "velocity": 104, "channel": 0}, {"type": "note_on", "time": 14, "note": 67, "velocity": 103, "channel": 0}, {"type": "note_off", "time": 76, "note": 67, "velocity": 103, "channel": 0}, {"type": "note_on", "time": 25, "note": 63, "velocity": 99, "channel": 0}, {"type": "note_off", "time": 67, "note": 63, "velocity": 99, "channel": 0}, {"type": "note_on", "time": 100, "note": 71, "velocity": 118, "channel": 0}, {"type": "note_off", "time": 42, "note": 71, "velocity": 118, "channel": 0}, {"type": "note_on", "time": 6, "note": 72, "velocity": 119, "channel": 0}, {"type": "note_off", "time": 58, "note": 72, "velocity": 119, "channel": 0}, {"type": "note_on", "time": 10, "note": 73, "velocity": 113, "channel": 0}, {"type": "note_off", "time": 93, "note": 73, "velocity": 113, "channel": 0}, {"type": "note_on", "time": 5, "note": 72, "velocity": 117, "channel": 0}, {"type": "note_off", "time": 73, "note": 72, "velocity": 117, "channel": 0}, {"type": "note_on", "time": 12, "note": 71, "velocity": 114, "channel": 0}, {"type": "note_off", "time": 83, "note": 71, "velocity": 114, "channel": 0}, {"type": "note_on", "time": 9, "note": 70, "velocity": 111, "channel": 0}, {"type": "note_off", "time": 76, "note": 70, "velocity": 111, "channel": 0}, {"type": "note_on", "time": 24, "note": 71, "velocity": 112, "channel": 0}, {"type": "note_off", "time": 167, "note": 71, "velocity": 112, "channel": 0}, {"type": "note_on", "time": 14, "note": 73, "velocity": 108, "channel": 0}, {"type": "note_off", "time": 71, "note": 73, "velocity": 108, "channel": 0}, {"type": "note_on", "time": 28, "note": 72, "velocity": 112, "channel": 0}, {"type": "note_off", "time": 87, "note": 72, "velocity": 112, "channel": 0}, {"type": "note_on", "time": 7, "note": 71, "velocity": 108, "channel": 0}, {"type": "note_off", "time": 91, "note": 71, "velocity": 108, "channel": 0}, {"type": "note_on", "time": 10, "note": 70, "velocity": 109, "channel": 0}, {"type": "note_off", "time": 82, "note": 70, "velocity": 109, "channel": 0}, {"type": "note_on", "time": 12, "note": 67, "velocity": 106, "channel": 0}, {"type": "note_off", "time": 78, "note": 67, "velocity": 106, "channel": 0}, {"type": "note_on", "time": 23, "note": 63, "velocity": 100, "channel": 0}, {"type": "note_off", "time": 59, "note": 63, "velocity": 100, "channel": 0}, {"type": "note_on", "time": 128, "note": 71, "velocity": 120, "channel": 0}, {"type": "note_off", "time": 116, "note": 71, "velocity": 120, "channel": 0}, {"type": "note_on", "time": 1, "note": 73, "velocity": 113, "channel": 0}, {"type": "note_off", "time": 74, "note": 73, "velocity": 113, "channel": 0}, {"type": "note_on", "time": 6, "note": 72, "velocity": 117, "channel": 0}, {"type": "note_off", "time": 85, "note": 72, "velocity": 117, "channel": 0}, {"type": "note_on", "time": 11, "note": 71, "velocity": 109, "channel": 0}, {"type": "note_off", "time": 73, "note": 71, "velocity": 109, "channel": 0}, {"type": "note_on", "time": 6, "note": 70, "velocity": 110, "channel": 0}, {"type": "note_off", "time": 84, "note": 70, "velocity": 110, "channel": 0}, {"type": "note_on", "time": 30, "note": 71, "velocity": 118, "channel": 0}, {"type": "note_off", "time": 84, "note": 71, "velocity": 118, "channel": 0}, {"type": "note_on", "time": 10, "note": 72, "velocity": 114, "channel": 0}, {"type": "note_off", "time": 64, "note": 72, "velocity": 114, "channel": 0}, {"type": "note_on", "time": 23, "note": 73, "velocity": 109, "channel": 0}, {"type": "note_off", "time": 80, "note": 73, "velocity": 109, "channel": 0}, {"type": "note_on", "time": 16, "note": 72, "velocity": 113, "channel": 0}, {"type": "note_off", "time": 91, "note": 72, "velocity": 113, "channel": 0}, {"type": "note_on", "time": 5, "note": 70, "velocity": 109, "channel": 0}, {"type": "note_off", "time": 97, "note": 70, "velocity": 109, "channel": 0}, {"type": "note_on", "time": 11, "note": 71, "velocity": 111, "channel": 0}, {"type": "note_off", "time": 68, "note": 71, "velocity": 111, "channel": 0}, {"type": "note_on", "time": 7, "note": 67, "velocity": 108, "channel": 0}, {"type": "note_off", "time": 70, "note": 67, "velocity": 108, "channel": 0}, {"type": "note_on", "time": 22, "note": 64, "velocity": 98, "channel": 0}, {"type": "note_off", "time": 61, "note": 64, "velocity": 98, "channel": 0}, {"type": "note_on", "time": 109, "note": 67, "velocity": 115, "channel": 0}, {"type": "note_off", "time": 78, "note": 67, "velocity": 115, "channel": 0}, {"type": "note_on", "time": 22, "note": 68, "velocity": 108, "channel": 0}, {"type": "note_off", "time": 45, "note": 68, "velocity": 108, "channel": 0}, {"type": "note_on", "time": 10, "note": 67, "velocity": 107, "channel": 0}, {"type": "note_off", "time": 55, "note": 67, "velocity": 107, "channel": 0}, {"type": "note_on", "time": 3, "note": 65, "velocity": 105, "channel": 0}, {"type": "note_off", "time": 78, "note": 65, "velocity": 105, "channel": 0}, {"type": "note_on", "time": 86, "note": 64, "velocity": 115, "channel": 0}, {"type": "note_off", "time": 76, "note": 64, "velocity": 115, "channel": 0}, {"type": "note_on", "time": 149, "note": 58, "velocity": 98, "channel": 0}, {"type": "note_off", "time": 69, "note": 58, "velocity": 98, "channel": 0}, {"type": "note_on", "time": 10, "note": 62, "velocity": 116, "channel": 0}, {"type": "note_off", "time": 68, "note": 62, "velocity": 116, "channel": 0}, {"type": "note_on", "time": 28, "note": 57, "velocity": 99, "channel": 0}, {"type": "note_off", "time": 68, "note": 57, "velocity": 99, "channel": 0}, {"type": "note_on", "time": 8, "note": 55, "velocity": 106, "channel": 0}, {"type": "note_off", "time": 73, "note": 55, "velocity": 106, "channel": 0}, {"type": "note_on", "time": 9, "note": 60, "velocity": 115, "channel": 0}, {"type": "note_off", "time": 105, "note": 60, "velocity": 115, "channel": 0}, {"type": "note_on", "time": 14, "note": 59, "velocity": 107, "channel": 0}, {"type": "note_off", "time": 75, "note": 59, "velocity": 107, "channel": 0}, {"type": "note_on", "time": 14, "note": 58, "velocity": 116, "channel": 0}, {"type": "note_off", "time": 71, "note": 58, "velocity": 116, "channel": 0}, {"type": "note_on", "time": 417, "note": 66, "velocity": 118, "channel": 0}, {"type": "note_off", "time": 87, "note": 66, "velocity": 118, "channel": 0}, {"type": "note_on", "time": 5, "note": 67, "velocity": 111, "channel": 0}, {"type": "note_off", "time": 80, "note": 67, "velocity": 111, "channel": 0}, {"type": "note_on", "time": 25, "note": 63, "velocity": 96, "channel": 0}, {"type": "note_off", "time": 78, "note": 63, "velocity": 96, "channel": 0}, {"type": "note_on", "time": 10, "note": 60, "velocity": 97, "channel": 0}, {"type": "note_off", "time": 86, "note": 60, "velocity": 97, "channel": 0}, {"type": "note_on", "time": 5, "note": 58, "velocity": 108, "channel": 0}, {"type": "note_off", "time": 103, "note": 58, "velocity": 108, "channel": 0}, {"type": "note_on", "time": 19, "note": 55, "velocity": 100, "channel": 0}, {"type": "note_off", "time": 76, "note": 55, "velocity": 100, "channel": 0}, {"type": "note_on", "time": 4, "note": 56, "velocity": 102, "channel": 0}, {"type": "note_off", "time": 79, "note": 56, "velocity": 102, "channel": 0}, {"type": "note_on", "time": 12, "note": 57, "velocity": 98, "channel": 0}, {"type": "note_off", "time": 63, "note": 57, "velocity": 98, "channel": 0}, {"type": "note_on", "time": 123, "note": 63, "velocity": 108, "channel": 0}, {"type": "note_off", "time": 79, "note": 63, "velocity": 108, "channel": 0}, {"type": "note_on", "time": 11, "note": 65, "velocity": 117, "channel": 0}, {"type": "note_off", "time": 97, "note": 65, "velocity": 117, "channel": 0}, {"type": "note_on", "time": 9, "note": 66, "velocity": 110, "channel": 0}, {"type": "note_off", "time": 83, "note": 66, "velocity": 110, "channel": 0}, {"type": "note_on", "time": 4, "note": 63, "velocity": 109, "channel": 0}, {"type": "note_off", "time": 67, "note": 63, "velocity": 109, "channel": 0}, {"type": "note_on", "time": 13, "note": 60, "velocity": 97, "channel": 0}, {"type": "note_off", "time": 65, "note": 60, "velocity": 97, "channel": 0}, {"type": "note_on", "time": 62, "note": 57, "velocity": 92, "channel": 0}, {"type": "note_off", "time": 62, "note": 57, "velocity": 92, "channel": 0}, {"type": "note_on", "time": 3, "note": 60, "velocity": 108, "channel": 0}, {"type": "note_off", "time": 101, "note": 60, "velocity": 108, "channel": 0}, {"type": "note_on", "time": 12, "note": 58, "velocity": 104, "channel": 0}, {"type": "note_off", "time": 107, "note": 58, "velocity": 104, "channel": 0}, {"type": "note_on", "time": 150, "note": 62, "velocity": 108, "channel": 0}, {"type": "note_off", "time": 89, "note": 62, "velocity": 108, "channel": 0}, {"type": "note_on", "time": 97, "note": 67, "velocity": 111, "channel": 0}, {"type": "note_off", "time": 78, "note": 67, "velocity": 111, "channel": 0}, {"type": "note_on", "time": 25, "note": 67, "velocity": 105, "channel": 0}, {"type": "note_off", "time": 30, "note": 67, "velocity": 105, "channel": 0}, {"type": "note_on", "time": 8, "note": 68, "velocity": 111, "channel": 0}, {"type": "note_off", "time": 88, "note": 68, "velocity": 111, "channel": 0}, {"type": "note_on", "time": 74, "note": 67, "velocity": 109, "channel": 0}, {"type": "note_off", "time": 90, "note": 67, "velocity": 109, "channel": 0}, {"type": "note_on", "time": 80, "note": 66, "velocity": 109, "channel": 0}, {"type": "note_off", "time": 73, "note": 66, "velocity": 109, "channel": 0}, {"type": "note_on", "time": 21, "note": 65, "velocity": 111, "channel": 0}, {"type": "note_off", "time": 80, "note": 65, "velocity": 111, "channel": 0}, {"type": "note_on", "time": 38, "note": 73, "velocity": 113, "channel": 0}, {"type": "note_off", "time": 65, "note": 73, "velocity": 113, "channel": 0}, {"type": "note_on", "time": 3, "note": 74, "velocity": 101, "channel": 0}, {"type": "note_off", "time": 84, "note": 74, "velocity": 101, "channel": 0}, {"type": "note_on", "time": 26, "note": 72, "velocity": 118, "channel": 0}, {"type": "note_off", "time": 98, "note": 72, "velocity": 118, "channel": 0}, {"type": "note_on", "time": 485, "note": 72, "velocity": 122, "channel": 0}, {"type": "note_off", "time": 89, "note": 72, "velocity": 122, "channel": 0}, {"type": "note_on", "time": 3, "note": 74, "velocity": 109, "channel": 0}, {"type": "note_off", "time": 39, "note": 74, "velocity": 109, "channel": 0}, {"type": "note_on", "time": 11, "note": 72, "velocity": 104, "channel": 0}, {"type": "note_off", "time": 41, "note": 72, "velocity": 104, "channel": 0}, {"type": "note_on", "time": 11, "note": 71, "velocity": 104, "channel": 0}, {"type": "note_off", "time": 64, "note": 71, "velocity": 104, "channel": 0}, {"type": "note_on", "time": 23, "note": 70, "velocity": 107, "channel": 0}, {"type": "note_off", "time": 84, "note": 70, "velocity": 107, "channel": 0}, {"type": "note_on", "time": 22, "note": 67, "velocity": 104, "channel": 0}, {"type": "note_off", "time": 60, "note": 67, "velocity": 104, "channel": 0}, {"type": "note_on", "time": 25, "note": 63, "velocity": 99, "channel": 0}, {"type": "note_off", "time": 70, "note": 63, "velocity": 99, "channel": 0}, {"type": "note_on", "time": 16, "note": 60, "velocity": 105, "channel": 0}, {"type": "note_off", "time": 102, "note": 60, "velocity": 105, "channel": 0}, {"type": "note_on", "time": 13, "note": 61, "velocity": 103, "channel": 0}, {"type": "note_off", "time": 66, "note": 61, "velocity": 103, "channel": 0}, {"type": "note_on", "time": 106, "note": 69, "velocity": 118, "channel": 0}, {"type": "note_off", "time": 89, "note": 69, "velocity": 118, "channel": 0}, {"type": "note_on", "time": 9, "note": 67, "velocity": 110, "channel": 0}, {"type": "note_off", "time": 83, "note": 67, "velocity": 110, "channel": 0}, {"type": "note_on", "time": 9, "note": 65, "velocity": 107, "channel": 0}, {"type": "note_off", "time": 82, "note": 65, "velocity": 107, "channel": 0}, {"type": "note_on", "time": 11, "note": 62, "velocity": 106, "channel": 0}, {"type": "note_off", "time": 59, "note": 62, "velocity": 106, "channel": 0}, {"type": "note_on", "time": 86, "note": 58, "velocity": 103, "channel": 0}, {"type": "note_off", "time": 50, "note": 58, "velocity": 103, "channel": 0}, {"type": "note_on", "time": 4, "note": 55, "velocity": 98, "channel": 0}, {"type": "note_off", "time": 64, "note": 55, "velocity": 98, "channel": 0}, {"type": "note_on", "time": 8, "note": 60, "velocity": 108, "channel": 0}, {"type": "note_off", "time": 92, "note": 60, "velocity": 108, "channel": 0}, {"type": "note_on", "time": 8, "note": 59, "velocity": 95, "channel": 0}, {"type": "note_off", "time": 85, "note": 59, "velocity": 95, "channel": 0}, {"type": "note_on", "time": 8, "note": 58, "velocity": 104, "channel": 0}, {"type": "note_off", "time": 88, "note": 58, "velocity": 104, "channel": 0}, {"type": "note_on", "time": 8, "note": 57, "velocity": 96, "channel": 0}, {"type": "note_off", "time": 62, "note": 57, "velocity": 96, "channel": 0}, {"type": "note_on", "time": 19, "note": 55, "velocity": 103, "channel": 0}, {"type": "note_off", "time": 75, "note": 55, "velocity": 103, "channel": 0}, {"type": "note_on", "time": 32, "note": 53, "velocity": 103, "channel": 0}, {"type": "note_off", "time": 46, "note": 53, "velocity": 103, "channel": 0}, {"type": "note_on", "time": 11, "note": 54, "velocity": 93, "channel": 0}, {"type": "note_off", "time": 77, "note": 54, "velocity": 93, "channel": 0}, {"type": "note_on", "time": 41, "note": 56, "velocity": 102, "channel": 0}, {"type": "note_off", "time": 78, "note": 56, "velocity": 102, "channel": 0}, {"type": "note_on", "time": 16, "note": 57, "velocity": 96, "channel": 0}, {"type": "note_off", "time": 82, "note": 57, "velocity": 96, "channel": 0}, {"type": "note_on", "time": 30, "note": 59, "velocity": 92, "channel": 0}, {"type": "note_off", "time": 55, "note": 59, "velocity": 92, "channel": 0}, {"type": "note_on", "time": 13, "note": 60, "velocity": 104, "channel": 0}, {"type": "note_off", "time": 88, "note": 60, "velocity": 104, "channel": 0}, {"type": "note_on", "time": 9, "note": 62, "velocity": 106, "channel": 0}, {"type": "note_off", "time": 91, "note": 62, "velocity": 106, "channel": 0}, {"type": "note_on", "time": 10, "note": 63, "velocity": 100, "channel": 0}, {"type": "note_off", "time": 64, "note": 63, "velocity": 100, "channel": 0}, {"type": "note_on", "time": 37, "note": 65, "velocity": 109, "channel": 0}, {"type": "note_off", "time": 107, "note": 65, "velocity": 109, "channel": 0}, {"type": "note_on", "time": 8, "note": 66, "velocity": 96, "channel": 0}, {"type": "note_off", "time": 63, "note": 66, "velocity": 96, "channel": 0}, {"type": "note_on", "time": 25, "note": 67, "velocity": 98, "channel": 0}, {"type": "note_off", "time": 42, "note": 67, "velocity": 98, "channel": 0}, {"type": "note_on", "time": 26, "note": 67, "velocity": 106, "channel": 0}, {"type": "note_off", "time": 28, "note": 67, "velocity": 106, "channel": 0}, {"type": "note_on", "time": 4, "note": 68, "velocity": 109, "channel": 0}, {"type": "note_off", "time": 65, "note": 68, "velocity": 109, "channel": 0}, {"type": "note_on", "time": 18, "note": 68, "velocity": 108, "channel": 0}, {"type": "note_off", "time": 23, "note": 68, "velocity": 108, "channel": 0}, {"type": "note_on", "time": 0, "note": 69, "velocity": 114, "channel": 0}, {"type": "note_off", "time": 67, "note": 69, "velocity": 114, "channel": 0}, {"type": "note_on", "time": 11, "note": 70, "velocity": 14, "channel": 0}, {"type": "note_off", "time": 87, "note": 70, "velocity": 14, "channel": 0}, {"type": "note_on", "time": 10, "note": 71, "velocity": 92, "channel": 0}, {"type": "note_off", "time": 56, "note": 71, "velocity": 92, "channel": 0}, {"type": "note_on", "time": 9, "note": 72, "velocity": 95, "channel": 0}, {"type": "note_off", "time": 34, "note": 72, "velocity": 95, "channel": 0}, {"type": "note_on", "time": 3, "note": 74, "velocity": 104, "channel": 0}, {"type": "note_off", "time": 51, "note": 74, "velocity": 104, "channel": 0}, {"type": "note_on", "time": 5, "note": 72, "velocity": 103, "channel": 0}, {"type": "note_off", "time": 36, "note": 72, "velocity": 103, "channel": 0}, {"type": "note_on", "time": 5, "note": 71, "velocity": 106, "channel": 0}, {"type": "note_off", "time": 70, "note": 71, "velocity": 106, "channel": 0}, {"type": "note_on", "time": 16, "note": 70, "velocity": 102, "channel": 0}, {"type": "note_off", "time": 65, "note": 70, "velocity": 102, "channel": 0}, {"type": "note_on", "time": 14, "note": 67, "velocity": 100, "channel": 0}, {"type": "note_off", "time": 84, "note": 67, "velocity": 100, "channel": 0}, {"type": "note_on", "time": 22, "note": 63, "velocity": 93, "channel": 0}, {"type": "note_off", "time": 53, "note": 63, "velocity": 93, "channel": 0}, {"type": "note_on", "time": 97, "note": 65, "velocity": 114, "channel": 0}, {"type": "note_off", "time": 119, "note": 65, "velocity": 114, "channel": 0}, {"type": "note_on", "time": 7, "note": 64, "velocity": 103, "channel": 0}, {"type": "note_off", "time": 58, "note": 64, "velocity": 103, "channel": 0}, {"type": "note_on", "time": 12, "note": 63, "velocity": 99, "channel": 0}, {"type": "note_off", "time": 75, "note": 63, "velocity": 99, "channel": 0}, {"type": "note_on", "time": 27, "note": 65, "velocity": 109, "channel": 0}, {"type": "note_off", "time": 114, "note": 65, "velocity": 109, "channel": 0}, {"type": "note_on", "time": 109, "note": 70, "velocity": 86, "channel": 0}, {"type": "note_off", "time": 39, "note": 70, "velocity": 86, "channel": 0}, {"type": "note_on", "time": 15, "note": 74, "velocity": 123, "channel": 0}, {"type": "note_off", "time": 75, "note": 74, "velocity": 123, "channel": 0}, {"type": "note_on", "time": 11, "note": 75, "velocity": 117, "channel": 0}, {"type": "note_off", "time": 84, "note": 75, "velocity": 117, "channel": 0}, {"type": "note_on", "time": 35, "note": 72, "velocity": 106, "channel": 0}, {"type": "note_off", "time": 73, "note": 72, "velocity": 106, "channel": 0}, {"type": "note_on", "time": 14, "note": 71, "velocity": 109, "channel": 0}, {"type": "note_off", "time": 79, "note": 71, "velocity": 109, "channel": 0}, {"type": "note_on", "time": 17, "note": 70, "velocity": 105, "channel": 0}, {"type": "note_off", "time": 86, "note": 70, "velocity": 105, "channel": 0}, {"type": "note_on", "time": 8, "note": 66, "velocity": 105, "channel": 0}, {"type": "note_off", "time": 75, "note": 66, "velocity": 105, "channel": 0}, {"type": "note_on", "time": 16, "note": 63, "velocity": 95, "channel": 0}, {"type": "note_off", "time": 75, "note": 63, "velocity": 95, "channel": 0}, {"type": "note_on", "time": 120, "note": 68, "velocity": 110, "channel": 0}, {"type": "note_off", "time": 89, "note": 68, "velocity": 110, "channel": 0}, {"type": "note_on", "time": 6, "note": 67, "velocity": 107, "channel": 0}, {"type": "note_off", "time": 76, "note": 67, "velocity": 107, "channel": 0}, {"type": "note_on", "time": 10, "note": 66, "velocity": 103, "channel": 0}, {"type": "note_off", "time": 58, "note": 66, "velocity": 103, "channel": 0}, {"type": "note_on", "time": 58, "note": 57, "velocity": 93, "channel": 0}, {"type": "note_off", "time": 54, "note": 57, "velocity": 93, "channel": 0}, {"type": "note_on", "time": 11, "note": 58, "velocity": 96, "channel": 0}, {"type": "note_off", "time": 105, "note": 58, "velocity": 96, "channel": 0}, {"type": "note_on", "time": 11, "note": 63, "velocity": 101, "channel": 0}, {"type": "note_off", "time": 78, "note": 63, "velocity": 101, "channel": 0}, {"type": "note_on", "time": 128, "note": 61, "velocity": 101, "channel": 0}, {"type": "note_off", "time": 59, "note": 61, "velocity": 101, "channel": 0}, {"type": "note_on", "time": 14, "note": 62, "velocity": 111, "channel": 0}, {"type": "note_off", "time": 75, "note": 62, "velocity": 111, "channel": 0}, {"type": "note_on", "time": 15, "note": 61, "velocity": 107, "channel": 0}, {"type": "note_off", "time": 93, "note": 61, "velocity": 107, "channel": 0}, {"type": "note_on", "time": 9, "note": 60, "velocity": 104, "channel": 0}, {"type": "note_off", "time": 75, "note": 60, "velocity": 104, "channel": 0}, {"type": "note_on", "time": 19, "note": 59, "velocity": 102, "channel": 0}, {"type": "note_off", "time": 56, "note": 59, "velocity": 102, "channel": 0}, {"type": "note_on", "time": 10, "note": 58, "velocity": 99, "channel": 0}, {"type": "note_off", "time": 64, "note": 58, "velocity": 99, "channel": 0}, {"type": "note_on", "time": 61, "note": 68, "velocity": 113, "channel": 0}, {"type": "note_off", "time": 82, "note": 68, "velocity": 113, "channel": 0}, {"type": "note_on", "time": 39, "note": 62, "velocity": 105, "channel": 0}, {"type": "note_off", "time": 73, "note": 62, "velocity": 105, "channel": 0}, {"type": "note_on", "time": 84, "note": 67, "velocity": 117, "channel": 0}, {"type": "note_off", "time": 88, "note": 67, "velocity": 117, "channel": 0}, {"type": "note_on", "time": 277, "note": 67, "velocity": 113, "channel": 0}, {"type": "note_off", "time": 124, "note": 67, "velocity": 113, "channel": 0}, {"type": "note_on", "time": 27, "note": 70, "velocity": 92, "channel": 0}, {"type": "note_off", "time": 35, "note": 70, "velocity": 92, "channel": 0}, {"type": "note_on", "time": 4, "note": 72, "velocity": 116, "channel": 0}, {"type": "note_off", "time": 100, "note": 72, "velocity": 116, "channel": 0}, {"type": "note_on", "time": 32, "note": 72, "velocity": 113, "channel": 0}, {"type": "note_off", "time": 247, "note": 72, "velocity": 113, "channel": 0}, {"type": "note_on", "time": 26, "note": 73, "velocity": 109, "channel": 0}, {"type": "note_off", "time": 552, "note": 73, "velocity": 109, "channel": 0}, {"type": "note_on", "time": 33, "note": 73, "velocity": 113, "channel": 0}, {"type": "note_off", "time": 161, "note": 73, "velocity": 113, "channel": 0}, {"type": "note_on", "time": 15, "note": 72, "velocity": 110, "channel": 0}, {"type": "note_off", "time": 79, "note": 72, "velocity": 110, "channel": 0}, {"type": "note_on", "time": 17, "note": 73, "velocity": 107, "channel": 0}, {"type": "note_off", "time": 43, "note": 73, "velocity": 107, "channel": 0}, {"type": "note_on", "time": 5, "note": 72, "velocity": 108, "channel": 0}, {"type": "note_off", "time": 49, "note": 72, "velocity": 108, "channel": 0}, {"type": "note_on", "time": 15, "note": 70, "velocity": 107, "channel": 0}, {"type": "note_off", "time": 72, "note": 70, "velocity": 107, "channel": 0}, {"type": "note_on", "time": 9, "note": 67, "velocity": 105, "channel": 0}, {"type": "note_off", "time": 76, "note": 67, "velocity": 105, "channel": 0}, {"type": "note_on", "time": 184, "note": 67, "velocity": 111, "channel": 0}, {"type": "note_off", "time": 136, "note": 67, "velocity": 111, "channel": 0}, {"type": "note_on", "time": 58, "note": 65, "velocity": 104, "channel": 0}, {"type": "note_off", "time": 64, "note": 65, "velocity": 104, "channel": 0}, {"type": "note_on", "time": 626, "note": 65, "velocity": 116, "channel": 0}, {"type": "note_off", "time": 86, "note": 65, "velocity": 116, "channel": 0}, {"type": "note_on", "time": 13, "note": 67, "velocity": 96, "channel": 0}, {"type": "note_off", "time": 76, "note": 67, "velocity": 96, "channel": 0}, {"type": "note_on", "time": 19, "note": 69, "velocity": 92, "channel": 0}, {"type": "note_off", "time": 58, "note": 69, "velocity": 92, "channel": 0}, {"type": "note_on", "time": 21, "note": 70, "velocity": 107, "channel": 0}, {"type": "note_off", "time": 88, "note": 70, "velocity": 107, "channel": 0}, {"type": "note_on", "time": 19, "note": 62, "velocity": 98, "channel": 0}, {"type": "note_off", "time": 78, "note": 62, "velocity": 98, "channel": 0}, {"type": "note_on", "time": 10, "note": 63, "velocity": 94, "channel": 0}, {"type": "note_off", "time": 74, "note": 63, "velocity": 94, "channel": 0}, {"type": "note_on", "time": 16, "note": 64, "velocity": 102, "channel": 0}, {"type": "note_off", "time": 80, "note": 64, "velocity": 102, "channel": 0}, {"type": "note_on", "time": 15, "note": 65, "velocity": 106, "channel": 0}, {"type": "note_off", "time": 75, "note": 65, "velocity": 106, "channel": 0}, {"type": "note_on", "time": 76, "note": 58, "velocity": 108, "channel": 0}, {"type": "note_off", "time": 81, "note": 58, "velocity": 108, "channel": 0}, {"type": "note_on", "time": 5, "note": 60, "velocity": 100, "channel": 0}, {"type": "note_off", "time": 52, "note": 60, "velocity": 100, "channel": 0}, {"type": "note_on", "time": 7, "note": 61, "velocity": 103, "channel": 0}, {"type": "note_off", "time": 92, "note": 61, "velocity": 103, "channel": 0}, {"type": "note_on", "time": 12, "note": 62, "velocity": 110, "channel": 0}, {"type": "note_off", "time": 80, "note": 62, "velocity": 110, "channel": 0}, {"type": "note_on", "time": 10, "note": 61, "velocity": 110, "channel": 0}, {"type": "note_off", "time": 83, "note": 61, "velocity": 110, "channel": 0}, {"type": "note_on", "time": 13, "note": 60, "velocity": 105, "channel": 0}, {"type": "note_off", "time": 76, "note": 60, "velocity": 105, "channel": 0}, {"type": "note_on", "time": 13, "note": 58, "velocity": 105, "channel": 0}, {"type": "note_off", "time": 97, "note": 58, "velocity": 105, "channel": 0}, {"type": "note_on", "time": 12, "note": 59, "velocity": 100, "channel": 0}, {"type": "note_off", "time": 67, "note": 59, "velocity": 100, "channel": 0}, {"type": "note_on", "time": 9, "note": 68, "velocity": 116, "channel": 0}, {"type": "note_off", "time": 81, "note": 68, "velocity": 116, "channel": 0}, {"type": "note_on", "time": 125, "note": 66, "velocity": 95, "channel": 0}, {"type": "note_off", "time": 67, "note": 66, "velocity": 95, "channel": 0}, {"type": "note_on", "time": 10, "note": 67, "velocity": 112, "channel": 0}, {"type": "note_off", "time": 72, "note": 67, "velocity": 112, "channel": 0}, {"type": "note_on", "time": 33, "note": 63, "velocity": 106, "channel": 0}, {"type": "note_off", "time": 66, "note": 63, "velocity": 106, "channel": 0}, {"type": "note_on", "time": 23, "note": 60, "velocity": 88, "channel": 0}, {"type": "note_off", "time": 67, "note": 60, "velocity": 88, "channel": 0}, {"type": "note_on", "time": 43, "note": 58, "velocity": 103, "channel": 0}, {"type": "note_off", "time": 64, "note": 58, "velocity": 103, "channel": 0}, {"type": "note_on", "time": 6, "note": 62, "velocity": 112, "channel": 0}, {"type": "note_off", "time": 80, "note": 62, "velocity": 112, "channel": 0}, {"type": "note_on", "time": 12, "note": 59, "velocity": 93, "channel": 0}, {"type": "note_off", "time": 79, "note": 59, "velocity": 93, "channel": 0}, {"type": "note_on", "time": 10, "note": 60, "velocity": 107, "channel": 0}, {"type": "note_off", "time": 97, "note": 60, "velocity": 107, "channel": 0}, {"type": "note_on", "time": 21, "note": 61, "velocity": 111, "channel": 0}, {"type": "note_off", "time": 82, "note": 61, "velocity": 111, "channel": 0}, {"type": "note_on", "time": 106, "note": 64, "velocity": 101, "channel": 0}, {"type": "note_off", "time": 64, "note": 64, "velocity": 101, "channel": 0}, {"type": "note_on", "time": 119, "note": 67, "velocity": 111, "channel": 0}, {"type": "note_off", "time": 67, "note": 67, "velocity": 111, "channel": 0}, {"type": "note_on", "time": 115, "note": 71, "velocity": 112, "channel": 0}, {"type": "note_off", "time": 41, "note": 71, "velocity": 112, "channel": 0}, {"type": "note_on", "time": 5, "note": 72, "velocity": 113, "channel": 0}, {"type": "note_off", "time": 40, "note": 72, "velocity": 113, "channel": 0}, {"type": "note_on", "time": 4, "note": 73, "velocity": 109, "channel": 0}, {"type": "note_off", "time": 51, "note": 73, "velocity": 109, "channel": 0}, {"type": "note_on", "time": 7, "note": 72, "velocity": 103, "channel": 0}, {"type": "note_off", "time": 48, "note": 72, "velocity": 103, "channel": 0}, {"type": "note_on", "time": 7, "note": 71, "velocity": 102, "channel": 0}, {"type": "note_off", "time": 50, "note": 71, "velocity": 102, "channel": 0}, {"type": "note_on", "time": 38, "note": 70, "velocity": 110, "channel": 0}, {"type": "note_off", "time": 75, "note": 70, "velocity": 110, "channel": 0}, {"type": "note_on", "time": 13, "note": 69, "velocity": 110, "channel": 0}, {"type": "note_off", "time": 83, "note": 69, "velocity": 110, "channel": 0}, {"type": "note_on", "time": 31, "note": 67, "velocity": 104, "channel": 0}, {"type": "note_off", "time": 61, "note": 67, "velocity": 104, "channel": 0}, {"type": "note_on", "time": 11, "note": 66, "velocity": 102, "channel": 0}, {"type": "note_off", "time": 93, "note": 66, "velocity": 102, "channel": 0}, {"type": "note_on", "time": 9, "note": 65, "velocity": 99, "channel": 0}, {"type": "note_off", "time": 85, "note": 65, "velocity": 99, "channel": 0}, {"type": "note_on", "time": 10, "note": 62, "velocity": 100, "channel": 0}, {"type": "note_off", "time": 92, "note": 62, "velocity": 100, "channel": 0}, {"type": "note_on", "time": 19, "note": 58, "velocity": 104, "channel": 0}, {"type": "note_off", "time": 79, "note": 58, "velocity": 104, "channel": 0}, {"type": "note_on", "time": 5, "note": 57, "velocity": 94, "channel": 0}, {"type": "note_off", "time": 74, "note": 57, "velocity": 94, "channel": 0}, {"type": "note_on", "time": 16, "note": 55, "velocity": 100, "channel": 0}, {"type": "note_off", "time": 76, "note": 55, "velocity": 100, "channel": 0}, {"type": "note_on", "time": 16, "note": 53, "velocity": 91, "channel": 0}, {"type": "note_off", "time": 75, "note": 53, "velocity": 91, "channel": 0}, {"type": "note_on", "time": 9, "note": 54, "velocity": 91, "channel": 0}, {"type": "note_off", "time": 56, "note": 54, "velocity": 91, "channel": 0}, {"type": "note_on", "time": 121, "note": 60, "velocity": 102, "channel": 0}, {"type": "note_off", "time": 107, "note": 60, "velocity": 102, "channel": 0}, {"type": "note_on", "time": 12, "note": 63, "velocity": 102, "channel": 0}, {"type": "note_off", "time": 65, "note": 63, "velocity": 102, "channel": 0}, {"type": "note_on", "time": 50, "note": 60, "velocity": 91, "channel": 0}, {"type": "note_off", "time": 62, "note": 60, "velocity": 91, "channel": 0}, {"type": "note_on", "time": 15, "note": 61, "velocity": 97, "channel": 0}, {"type": "note_off", "time": 68, "note": 61, "velocity": 97, "channel": 0}, {"type": "note_on", "time": 5, "note": 62, "velocity": 110, "channel": 0}, {"type": "note_off", "time": 94, "note": 62, "velocity": 110, "channel": 0}, {"type": "note_on", "time": 12, "note": 63, "velocity": 104, "channel": 0}, {"type": "note_off", "time": 74, "note": 63, "velocity": 104, "channel": 0}, {"type": "note_on", "time": 314, "note": 62, "velocity": 96, "channel": 0}, {"type": "note_off", "time": 65, "note": 62, "velocity": 96, "channel": 0}, {"type": "note_on", "time": 12, "note": 63, "velocity": 96, "channel": 0}, {"type": "note_off", "time": 54, "note": 63, "velocity": 96, "channel": 0}, {"type": "note_on", "time": 58, "note": 67, "velocity": 100, "channel": 0}, {"type": "note_off", "time": 35, "note": 67, "velocity": 100, "channel": 0}, {"type": "note_on", "time": 4, "note": 70, "velocity": 94, "channel": 0}, {"type": "note_off", "time": 34, "note": 70, "velocity": 94, "channel": 0}, {"type": "note_on", "time": 41, "note": 73, "velocity": 119, "channel": 0}, {"type": "note_off", "time": 71, "note": 73, "velocity": 119, "channel": 0}, {"type": "note_on", "time": 5, "note": 74, "velocity": 121, "channel": 0}, {"type": "note_off", "time": 72, "note": 74, "velocity": 121, "channel": 0}, {"type": "note_on", "time": 7, "note": 75, "velocity": 115, "channel": 0}, {"type": "note_off", "time": 95, "note": 75, "velocity": 115, "channel": 0}, {"type": "note_on", "time": 46, "note": 72, "velocity": 113, "channel": 0}, {"type": "note_off", "time": 128, "note": 72, "velocity": 113, "channel": 0}, {"type": "note_on", "time": 248, "note": 70, "velocity": 102, "channel": 0}, {"type": "note_off", "time": 85, "note": 70, "velocity": 102, "channel": 0}, {"type": "note_on", "time": 22, "note": 72, "velocity": 101, "channel": 0}, {"type": "note_off", "time": 128, "note": 72, "velocity": 101, "channel": 0}, {"type": "note_on", "time": 0, "note": 74, "velocity": 112, "channel": 0}, {"type": "note_off", "time": 118, "note": 74, "velocity": 112, "channel": 0}, {"type": "note_on", "time": 13, "note": 70, "velocity": 109, "channel": 0}, {"type": "note_off", "time": 113, "note": 70, "velocity": 109, "channel": 0}, {"type": "note_on", "time": 50, "note": 69, "velocity": 109, "channel": 0}, {"type": "note_off", "time": 48, "note": 69, "velocity": 109, "channel": 0}, {"type": "note_on", "time": 9, "note": 70, "velocity": 107, "channel": 0}, {"type": "note_off", "time": 418, "note": 70, "velocity": 107, "channel": 0}, {"type": "note_on", "time": 13, "note": 72, "velocity": 108, "channel": 0}, {"type": "note_off", "time": 86, "note": 72, "velocity": 108, "channel": 0}, {"type": "note_on", "time": 15, "note": 68, "velocity": 111, "channel": 0}, {"type": "note_off", "time": 112, "note": 68, "velocity": 111, "channel": 0}, {"type": "note_on", "time": 100, "note": 68, "velocity": 110, "channel": 0}, {"type": "note_off", "time": 155, "note": 68, "velocity": 110, "channel": 0}, {"type": "note_on", "time": 26, "note": 70, "velocity": 104, "channel": 0}, {"type": "note_off", "time": 60, "note": 70, "velocity": 104, "channel": 0}, {"type": "note_on", "time": 12, "note": 66, "velocity": 107, "channel": 0}, {"type": "note_off", "time": 71, "note": 66, "velocity": 107, "channel": 0}, {"type": "note_on", "time": 12, "note": 68, "velocity": 106, "channel": 0}, {"type": "note_off", "time": 76, "note": 68, "velocity": 106, "channel": 0}, {"type": "note_on", "time": 37, "note": 65, "velocity": 108, "channel": 0}, {"type": "note_off", "time": 83, "note": 65, "velocity": 108, "channel": 0}, {"type": "note_on", "time": 12, "note": 66, "velocity": 101, "channel": 0}, {"type": "note_off", "time": 52, "note": 66, "velocity": 101, "channel": 0}, {"type": "note_on", "time": 48, "note": 63, "velocity": 99, "channel": 0}, {"type": "note_off", "time": 78, "note": 63, "velocity": 99, "channel": 0}, {"type": "note_on", "time": 21, "note": 65, "velocity": 98, "channel": 0}, {"type": "note_off", "time": 54, "note": 65, "velocity": 98, "channel": 0}, {"type": "note_on", "time": 25, "note": 62, "velocity": 104, "channel": 0}, {"type": "note_off", "time": 72, "note": 62, "velocity": 104, "channel": 0}, {"type": "note_on", "time": 7, "note": 63, "velocity": 100, "channel": 0}, {"type": "note_off", "time": 62, "note": 63, "velocity": 100, "channel": 0}, {"type": "note_on", "time": 215, "note": 59, "velocity": 97, "channel": 0}, {"type": "note_off", "time": 105, "note": 59, "velocity": 97, "channel": 0}, {"type": "note_on", "time": 18, "note": 61, "velocity": 105, "channel": 0}, {"type": "note_off", "time": 69, "note": 61, "velocity": 105, "channel": 0}, {"type": "note_on", "time": 8, "note": 62, "velocity": 96, "channel": 0}, {"type": "note_off", "time": 79, "note": 62, "velocity": 96, "channel": 0}, {"type": "note_on", "time": 15, "note": 60, "velocity": 100, "channel": 0}, {"type": "note_off", "time": 57, "note": 60, "velocity": 100, "channel": 0}, {"type": "note_on", "time": 15, "note": 59, "velocity": 97, "channel": 0}, {"type": "note_off", "time": 77, "note": 59, "velocity": 97, "channel": 0}, {"type": "note_on", "time": 33, "note": 56, "velocity": 101, "channel": 0}, {"type": "note_off", "time": 84, "note": 56, "velocity": 101, "channel": 0}, {"type": "note_on", "time": 114, "note": 53, "velocity": 102, "channel": 0}, {"type": "note_off", "time": 81, "note": 53, "velocity": 102, "channel": 0}, {"type": "note_on", "time": 4, "note": 52, "velocity": 115, "channel": 0}, {"type": "note_off", "time": 58, "note": 52, "velocity": 115, "channel": 0}, {"type": "note_on", "time": 146, "note": 58, "velocity": 105, "channel": 0}, {"type": "note_off", "time": 80, "note": 58, "velocity": 105, "channel": 0}, {"type": "note_on", "time": 18, "note": 62, "velocity": 105, "channel": 0}, {"type": "note_off", "time": 75, "note": 62, "velocity": 105, "channel": 0}, {"type": "note_on", "time": 49, "note": 57, "velocity": 90, "channel": 0}, {"type": "note_off", "time": 66, "note": 57, "velocity": 90, "channel": 0}, {"type": "note_on", "time": 8, "note": 58, "velocity": 98, "channel": 0}, {"type": "note_off", "time": 56, "note": 58, "velocity": 98, "channel": 0}, {"type": "note_on", "time": 18, "note": 60, "velocity": 108, "channel": 0}, {"type": "note_off", "time": 80, "note": 60, "velocity": 108, "channel": 0}, {"type": "note_on", "time": 17, "note": 58, "velocity": 110, "channel": 0}, {"type": "note_off", "time": 87, "note": 58, "velocity": 110, "channel": 0}, {"type": "note_on", "time": 123, "note": 58, "velocity": 97, "channel": 0}, {"type": "note_off", "time": 58, "note": 58, "velocity": 97, "channel": 0}, {"type": "note_on", "time": 13, "note": 62, "velocity": 105, "channel": 0}, {"type": "note_off", "time": 84, "note": 62, "velocity": 105, "channel": 0}, {"type": "note_on", "time": 119, "note": 69, "velocity": 120, "channel": 0}, {"type": "note_off", "time": 79, "note": 69, "velocity": 120, "channel": 0}, {"type": "note_on", "time": 9, "note": 68, "velocity": 112, "channel": 0}, {"type": "note_off", "time": 100, "note": 68, "velocity": 112, "channel": 0}, {"type": "note_on", "time": 5, "note": 67, "velocity": 108, "channel": 0}, {"type": "note_off", "time": 83, "note": 67, "velocity": 108, "channel": 0}, {"type": "note_on", "time": 27, "note": 63, "velocity": 102, "channel": 0}, {"type": "note_off", "time": 42, "note": 63, "velocity": 102, "channel": 0}, {"type": "note_on", "time": 7, "note": 60, "velocity": 96, "channel": 0}, {"type": "note_off", "time": 102, "note": 60, "velocity": 96, "channel": 0}, {"type": "note_on", "time": 43, "note": 57, "velocity": 96, "channel": 0}, {"type": "note_off", "time": 58, "note": 57, "velocity": 96, "channel": 0}, {"type": "note_on", "time": 35, "note": 59, "velocity": 96, "channel": 0}, {"type": "note_off", "time": 85, "note": 59, "velocity": 96, "channel": 0}, {"type": "note_on", "time": 13, "note": 57, "velocity": 92, "channel": 0}, {"type": "note_off", "time": 62, "note": 57, "velocity": 92, "channel": 0}, {"type": "note_on", "time": 31, "note": 58, "velocity": 108, "channel": 0}, {"type": "note_off", "time": 125, "note": 58, "velocity": 108, "channel": 0}, {"type": "note_on", "time": 31, "note": 57, "velocity": 103, "channel": 0}, {"type": "note_off", "time": 82, "note": 57, "velocity": 103, "channel": 0}, {"type": "note_on", "time": 22, "note": 65, "velocity": 116, "channel": 0}, {"type": "note_off", "time": 107, "note": 65, "velocity": 116, "channel": 0}, {"type": "note_on", "time": 357, "note": 65, "velocity": 113, "channel": 0}, {"type": "note_off", "time": 106, "note": 65, "velocity": 113, "channel": 0}, {"type": "note_on", "time": 13, "note": 66, "velocity": 103, "channel": 0}, {"type": "note_off", "time": 59, "note": 66, "velocity": 103, "channel": 0}, {"type": "note_on", "time": 17, "note": 67, "velocity": 100, "channel": 0}, {"type": "note_off", "time": 139, "note": 67, "velocity": 100, "channel": 0}, {"type": "note_on", "time": 51, "note": 67, "velocity": 105, "channel": 0}, {"type": "note_off", "time": 88, "note": 67, "velocity": 105, "channel": 0}, {"type": "note_on", "time": 10, "note": 68, "velocity": 108, "channel": 0}, {"type": "note_off", "time": 84, "note": 68, "velocity": 108, "channel": 0}, {"type": "note_on", "time": 3, "note": 69, "velocity": 110, "channel": 0}, {"type": "note_off", "time": 94, "note": 69, "velocity": 110, "channel": 0}, {"type": "note_on", "time": 118, "note": 69, "velocity": 113, "channel": 0}, {"type": "note_off", "time": 82, "note": 69, "velocity": 113, "channel": 0}, {"type": "note_on", "time": 11, "note": 68, "velocity": 109, "channel": 0}, {"type": "note_off", "time": 97, "note": 68, "velocity": 109, "channel": 0}, {"type": "note_on", "time": 11, "note": 67, "velocity": 105, "channel": 0}, {"type": "note_off", "time": 67, "note": 67, "velocity": 105, "channel": 0}, {"type": "note_on", "time": 103, "note": 67, "velocity": 105, "channel": 0}, {"type": "note_off", "time": 95, "note": 67, "velocity": 105, "channel": 0}, {"type": "note_on", "time": 12, "note": 68, "velocity": 106, "channel": 0}, {"type": "note_off", "time": 91, "note": 68, "velocity": 106, "channel": 0}, {"type": "note_on", "time": 7, "note": 69, "velocity": 108, "channel": 0}, {"type": "note_off", "time": 84, "note": 69, "velocity": 108, "channel": 0}, {"type": "note_on", "time": 18, "note": 68, "velocity": 106, "channel": 0}, {"type": "note_off", "time": 69, "note": 68, "velocity": 106, "channel": 0}, {"type": "note_on", "time": 6, "note": 67, "velocity": 103, "channel": 0}, {"type": "note_off", "time": 63, "note": 67, "velocity": 103, "channel": 0}, {"type": "note_on", "time": 125, "note": 66, "velocity": 104, "channel": 0}, {"type": "note_off", "time": 49, "note": 66, "velocity": 104, "channel": 0}, {"type": "note_on", "time": 5, "note": 67, "velocity": 104, "channel": 0}, {"type": "note_off", "time": 44, "note": 67, "velocity": 104, "channel": 0}, {"type": "note_on", "time": 108, "note": 67, "velocity": 108, "channel": 0}, {"type": "note_off", "time": 93, "note": 67, "velocity": 108, "channel": 0}, {"type": "note_on", "time": 9, "note": 68, "velocity": 108, "channel": 0}, {"type": "note_off", "time": 80, "note": 68, "velocity": 108, "channel": 0}, {"type": "note_on", "time": 14, "note": 69, "velocity": 110, "channel": 0}, {"type": "note_off", "time": 84, "note": 69, "velocity": 110, "channel": 0}, {"type": "note_on", "time": 106, "note": 68, "velocity": 111, "channel": 0}, {"type": "note_off", "time": 74, "note": 68, "velocity": 111, "channel": 0}, {"type": "note_on", "time": 5, "note": 69, "velocity": 111, "channel": 0}, {"type": "note_off", "time": 417, "note": 69, "velocity": 111, "channel": 0}, {"type": "note_on", "time": 25, "note": 68, "velocity": 102, "channel": 0}, {"type": "note_off", "time": 67, "note": 68, "velocity": 102, "channel": 0}, {"type": "note_on", "time": 8, "note": 67, "velocity": 103, "channel": 0}, {"type": "note_off", "time": 53, "note": 67, "velocity": 103, "channel": 0}, {"type": "note_on", "time": 54, "note": 64, "velocity": 105, "channel": 0}, {"type": "note_off", "time": 48, "note": 64, "velocity": 105, "channel": 0}, {"type": "note_on", "time": 6, "note": 61, "velocity": 97, "channel": 0}, {"type": "note_off", "time": 85, "note": 61, "velocity": 97, "channel": 0}, {"type": "note_on", "time": 37, "note": 57, "velocity": 88, "channel": 0}, {"type": "note_off", "time": 45, "note": 57, "velocity": 88, "channel": 0}, {"type": "note_on", "time": 19, "note": 60, "velocity": 108, "channel": 0}, {"type": "note_off", "time": 90, "note": 60, "velocity": 108, "channel": 0}, {"type": "note_on", "time": 19, "note": 58, "velocity": 103, "channel": 0}, {"type": "note_off", "time": 84, "note": 58, "velocity": 103, "channel": 0}, {"type": "note_on", "time": 6, "note": 57, "velocity": 99, "channel": 0}, {"type": "note_off", "time": 81, "note": 57, "velocity": 99, "channel": 0}, {"type": "note_on", "time": 17, "note": 58, "velocity": 95, "channel": 0}, {"type": "note_off", "time": 75, "note": 58, "velocity": 95, "channel": 0}, {"type": "note_on", "time": 8, "note": 62, "velocity": 107, "channel": 0}, {"type": "note_off", "time": 84, "note": 62, "velocity": 107, "channel": 0}, {"type": "note_on", "time": 127, "note": 70, "velocity": 112, "channel": 0}, {"type": "note_off", "time": 79, "note": 70, "velocity": 112, "channel": 0}, {"type": "note_on", "time": 6, "note": 69, "velocity": 112, "channel": 0}, {"type": "note_off", "time": 73, "note": 69, "velocity": 112, "channel": 0}, {"type": "note_on", "time": 9, "note": 68, "velocity": 109, "channel": 0}, {"type": "note_off", "time": 95, "note": 68, "velocity": 109, "channel": 0}, {"type": "note_on", "time": 11, "note": 67, "velocity": 106, "channel": 0}, {"type": "note_off", "time": 76, "note": 67, "velocity": 106, "channel": 0}, {"type": "note_on", "time": 8, "note": 66, "velocity": 103, "channel": 0}, {"type": "note_off", "time": 91, "note": 66, "velocity": 103, "channel": 0}, {"type": "note_on", "time": 3, "note": 62, "velocity": 104, "channel": 0}, {"type": "note_off", "time": 89, "note": 62, "velocity": 104, "channel": 0}, {"type": "note_on", "time": 24, "note": 60, "velocity": 100, "channel": 0}, {"type": "note_off", "time": 83, "note": 60, "velocity": 100, "channel": 0}, {"type": "note_on", "time": 14, "note": 59, "velocity": 97, "channel": 0}, {"type": "note_off", "time": 77, "note": 59, "velocity": 97, "channel": 0}, {"type": "note_on", "time": 14, "note": 58, "velocity": 108, "channel": 0}, {"type": "note_off", "time": 91, "note": 58, "velocity": 108, "channel": 0}, {"type": "note_on", "time": 12, "note": 56, "velocity": 105, "channel": 0}, {"type": "note_off", "time": 75, "note": 56, "velocity": 105, "channel": 0}, {"type": "note_on", "time": 7, "note": 55, "velocity": 112, "channel": 0}, {"type": "note_off", "time": 96, "note": 55, "velocity": 112, "channel": 0}, {"type": "note_on", "time": 22, "note": 58, "velocity": 96, "channel": 0}, {"type": "note_off", "time": 65, "note": 58, "velocity": 96, "channel": 0}, {"type": "note_on", "time": 11, "note": 62, "velocity": 109, "channel": 0}, {"type": "note_off", "time": 82, "note": 62, "velocity": 109, "channel": 0}, {"type": "note_on", "time": 14, "note": 65, "velocity": 113, "channel": 0}, {"type": "note_off", "time": 97, "note": 65, "velocity": 113, "channel": 0}, {"type": "note_on", "time": 880, "note": 66, "velocity": 109, "channel": 0}, {"type": "note_off", "time": 69, "note": 66, "velocity": 109, "channel": 0}, {"type": "note_on", "time": 23, "note": 67, "velocity": 89, "channel": 0}, {"type": "note_off", "time": 63, "note": 67, "velocity": 89, "channel": 0}, {"type": "note_on", "time": 14, "note": 74, "velocity": 108, "channel": 0}, {"type": "note_off", "time": 66, "note": 74, "velocity": 108, "channel": 0}, {"type": "note_on", "time": 21, "note": 77, "velocity": 127, "channel": 0}, {"type": "note_off", "time": 89, "note": 77, "velocity": 127, "channel": 0}, {"type": "note_on", "time": 12, "note": 76, "velocity": 120, "channel": 0}, {"type": "note_off", "time": 86, "note": 76, "velocity": 120, "channel": 0}, {"type": "note_on", "time": 7, "note": 75, "velocity": 123, "channel": 0}, {"type": "note_off", "time": 46, "note": 75, "velocity": 123, "channel": 0}, {"type": "note_on", "time": 57, "note": 65, "velocity": 112, "channel": 0}, {"type": "note_off", "time": 66, "note": 65, "velocity": 112, "channel": 0}, {"type": "note_on", "time": 9, "note": 64, "velocity": 101, "channel": 0}, {"type": "note_off", "time": 64, "note": 64, "velocity": 101, "channel": 0}, {"type": "note_on", "time": 9, "note": 65, "velocity": 93, "channel": 0}, {"type": "note_off", "time": 54, "note": 65, "velocity": 93, "channel": 0}, {"type": "note_on", "time": 66, "note": 74, "velocity": 113, "channel": 0}, {"type": "note_off", "time": 78, "note": 74, "velocity": 113, "channel": 0}, {"type": "note_on", "time": 16, "note": 73, "velocity": 113, "channel": 0}, {"type": "note_off", "time": 90, "note": 73, "velocity": 113, "channel": 0}, {"type": "note_on", "time": 17, "note": 72, "velocity": 111, "channel": 0}, {"type": "note_off", "time": 76, "note": 72, "velocity": 111, "channel": 0}, {"type": "note_on", "time": 13, "note": 71, "velocity": 113, "channel": 0}, {"type": "note_off", "time": 91, "note": 71, "velocity": 113, "channel": 0}, {"type": "note_on", "time": 8, "note": 70, "velocity": 107, "channel": 0}, {"type": "note_off", "time": 87, "note": 70, "velocity": 107, "channel": 0}, {"type": "note_on", "time": 8, "note": 66, "velocity": 99, "channel": 0}, {"type": "note_off", "time": 78, "note": 66, "velocity": 99, "channel": 0}, {"type": "note_on", "time": 6, "note": 63, "velocity": 104, "channel": 0}, {"type": "note_off", "time": 88, "note": 63, "velocity": 104, "channel": 0}, {"type": "note_on", "time": 103, "note": 68, "velocity": 110, "channel": 0}, {"type": "note_off", "time": 90, "note": 68, "velocity": 110, "channel": 0}, {"type": "note_on", "time": 15, "note": 67, "velocity": 106, "channel": 0}, {"type": "note_off", "time": 60, "note": 67, "velocity": 106, "channel": 0}, {"type": "note_on", "time": 9, "note": 66, "velocity": 102, "channel": 0}, {"type": "note_off", "time": 58, "note": 66, "velocity": 102, "channel": 0}, {"type": "note_on", "time": 7, "note": 65, "velocity": 97, "channel": 0}, {"type": "note_off", "time": 36, "note": 65, "velocity": 97, "channel": 0}, {"type": "note_on", "time": 416, "note": 61, "velocity": 102, "channel": 0}, {"type": "note_off", "time": 56, "note": 61, "velocity": 102, "channel": 0}, {"type": "note_on", "time": 17, "note": 62, "velocity": 101, "channel": 0}, {"type": "note_off", "time": 102, "note": 62, "velocity": 101, "channel": 0}, {"type": "note_on", "time": 13, "note": 66, "velocity": 91, "channel": 0}, {"type": "note_off", "time": 64, "note": 66, "velocity": 91, "channel": 0}, {"type": "note_on", "time": 12, "note": 66, "velocity": 106, "channel": 0}, {"type": "note_off", "time": 32, "note": 66, "velocity": 106, "channel": 0}, {"type": "note_on", "time": 10, "note": 67, "velocity": 104, "channel": 0}, {"type": "note_off", "time": 97, "note": 67, "velocity": 104, "channel": 0}, {"type": "note_on", "time": 4, "note": 66, "velocity": 105, "channel": 0}, {"type": "note_off", "time": 37, "note": 66, "velocity": 105, "channel": 0}, {"type": "note_on", "time": 7, "note": 62, "velocity": 105, "channel": 0}, {"type": "note_off", "time": 87, "note": 62, "velocity": 105, "channel": 0}, {"type": "note_on", "time": 11, "note": 67, "velocity": 110, "channel": 0}, {"type": "note_off", "time": 173, "note": 67, "velocity": 110, "channel": 0}, {"type": "note_on", "time": 10, "note": 68, "velocity": 105, "channel": 0}, {"type": "note_off", "time": 48, "note": 68, "velocity": 105, "channel": 0}, {"type": "note_on", "time": 6, "note": 67, "velocity": 106, "channel": 0}, {"type": "note_off", "time": 37, "note": 67, "velocity": 106, "channel": 0}, {"type": "note_on", "time": 2, "note": 65, "velocity": 109, "channel": 0}, {"type": "note_off", "time": 73, "note": 65, "velocity": 109, "channel": 0}, {"type": "note_on", "time": 110, "note": 64, "velocity": 104, "channel": 0}, {"type": "note_off", "time": 94, "note": 64, "velocity": 104, "channel": 0}, {"type": "note_on", "time": 118, "note": 58, "velocity": 102, "channel": 0}, {"type": "note_off", "time": 97, "note": 58, "velocity": 102, "channel": 0}, {"type": "note_on", "time": 5, "note": 62, "velocity": 104, "channel": 0}, {"type": "note_off", "time": 70, "note": 62, "velocity": 104, "channel": 0}, {"type": "note_on", "time": 418, "note": 60, "velocity": 105, "channel": 0}, {"type": "note_off", "time": 75, "note": 60, "velocity": 105, "channel": 0}, {"type": "note_on", "time": 6, "note": 62, "velocity": 105, "channel": 0}, {"type": "note_off", "time": 72, "note": 62, "velocity": 105, "channel": 0}, {"type": "note_on", "time": 14, "note": 63, "velocity": 96, "channel": 0}, {"type": "note_off", "time": 82, "note": 63, "velocity": 96, "channel": 0}, {"type": "note_on", "time": 24, "note": 64, "velocity": 99, "channel": 0}, {"type": "note_off", "time": 60, "note": 64, "velocity": 99, "channel": 0}, {"type": "note_on", "time": 19, "note": 65, "velocity": 106, "channel": 0}, {"type": "note_off", "time": 75, "note": 65, "velocity": 106, "channel": 0}, {"type": "note_on", "time": 25, "note": 61, "velocity": 103, "channel": 0}, {"type": "note_off", "time": 90, "note": 61, "velocity": 103, "channel": 0}, {"type": "note_on", "time": 11, "note": 62, "velocity": 96, "channel": 0}, {"type": "note_off", "time": 71, "note": 62, "velocity": 96, "channel": 0}, {"type": "note_on", "time": 16, "note": 65, "velocity": 109, "channel": 0}, {"type": "note_off", "time": 76, "note": 65, "velocity": 109, "channel": 0}, {"type": "note_on", "time": 21, "note": 61, "velocity": 105, "channel": 0}, {"type": "note_on", "time": 51, "note": 60, "velocity": 100, "channel": 0}, {"type": "note_off", "time": 0, "note": 61, "velocity": 105, "channel": 0}, {"type": "note_off", "time": 44, "note": 60, "velocity": 100, "channel": 0}, {"type": "note_on", "time": 17, "note": 58, "velocity": 106, "channel": 0}, {"type": "note_off", "time": 69, "note": 58, "velocity": 106, "channel": 0}, {"type": "note_on", "time": 6, "note": 55, "velocity": 103, "channel": 0}, {"type": "note_off", "time": 91, "note": 55, "velocity": 103, "channel": 0}, {"type": "note_on", "time": 102, "note": 60, "velocity": 109, "channel": 0}, {"type": "note_off", "time": 88, "note": 60, "velocity": 109, "channel": 0}, {"type": "note_on", "time": 23, "note": 59, "velocity": 97, "channel": 0}, {"type": "note_off", "time": 70, "note": 59, "velocity": 97, "channel": 0}, {"type": "note_on", "time": 12, "note": 58, "velocity": 108, "channel": 0}, {"type": "note_off", "time": 80, "note": 58, "velocity": 108, "channel": 0}, {"type": "note_on", "time": 18, "note": 56, "velocity": 107, "channel": 0}, {"type": "note_off", "time": 78, "note": 56, "velocity": 107, "channel": 0}, {"type": "note_on", "time": 8, "note": 57, "velocity": 95, "channel": 0}, {"type": "note_off", "time": 82, "note": 57, "velocity": 95, "channel": 0}, {"type": "note_on", "time": 40, "note": 60, "velocity": 98, "channel": 0}, {"type": "note_off", "time": 45, "note": 60, "velocity": 98, "channel": 0}, {"type": "note_on", "time": 25, "note": 63, "velocity": 114, "channel": 0}, {"type": "note_off", "time": 85, "note": 63, "velocity": 114, "channel": 0}, {"type": "note_on", "time": 7, "note": 66, "velocity": 116, "channel": 0}, {"type": "note_off", "time": 92, "note": 66, "velocity": 116, "channel": 0}, {"type": "note_on", "time": 11, "note": 67, "velocity": 115, "channel": 0}, {"type": "note_off", "time": 88, "note": 67, "velocity": 115, "channel": 0}, {"type": "note_on", "time": 13, "note": 63, "velocity": 109, "channel": 0}, {"type": "note_off", "time": 73, "note": 63, "velocity": 109, "channel": 0}, {"type": "note_on", "time": 12, "note": 60, "velocity": 94, "channel": 0}, {"type": "note_off", "time": 76, "note": 60, "velocity": 94, "channel": 0}, {"type": "note_on", "time": 42, "note": 58, "velocity": 101, "channel": 0}, {"type": "note_off", "time": 64, "note": 58, "velocity": 101, "channel": 0}, {"type": "note_on", "time": 12, "note": 60, "velocity": 113, "channel": 0}, {"type": "note_off", "time": 110, "note": 60, "velocity": 113, "channel": 0}, {"type": "note_on", "time": 184, "note": 58, "velocity": 112, "channel": 0}, {"type": "note_off", "time": 91, "note": 58, "velocity": 112, "channel": 0}, {"type": "note_on", "time": 9, "note": 60, "velocity": 112, "channel": 0}, {"type": "note_off", "time": 91, "note": 60, "velocity": 112, "channel": 0}, {"type": "note_on", "time": 205, "note": 58, "velocity": 112, "channel": 0}, {"type": "note_off", "time": 70, "note": 58, "velocity": 112, "channel": 0}, {"type": "note_on", "time": 13, "note": 60, "velocity": 117, "channel": 0}, {"type": "note_off", "time": 44, "note": 60, "velocity": 117, "channel": 0}, {"type": "note_on", "time": 3, "note": 61, "velocity": 109, "channel": 0}, {"type": "note_off", "time": 39, "note": 61, "velocity": 109, "channel": 0}, {"type": "note_on", "time": 1, "note": 60, "velocity": 105, "channel": 0}, {"type": "note_off", "time": 34, "note": 60, "velocity": 105, "channel": 0}, {"type": "note_on", "time": 8, "note": 58, "velocity": 103, "channel": 0}, {"type": "note_off", "time": 51, "note": 58, "velocity": 103, "channel": 0}, {"type": "note_on", "time": 3, "note": 60, "velocity": 105, "channel": 0}, {"type": "note_off", "time": 76, "note": 60, "velocity": 105, "channel": 0}, {"type": "note_on", "time": 26, "note": 61, "velocity": 112, "channel": 0}, {"type": "note_off", "time": 120, "note": 61, "velocity": 112, "channel": 0}, {"type": "note_on", "time": 96, "note": 60, "velocity": 112, "channel": 0}, {"type": "note_off", "time": 78, "note": 60, "velocity": 112, "channel": 0}, {"type": "note_on", "time": 9, "note": 61, "velocity": 102, "channel": 0}, {"type": "note_off", "time": 71, "note": 61, "velocity": 102, "channel": 0}, {"type": "note_on", "time": 15, "note": 58, "velocity": 107, "channel": 0}, {"type": "note_off", "time": 59, "note": 58, "velocity": 107, "channel": 0}, {"type": "note_on", "time": 30, "note": 60, "velocity": 112, "channel": 0}, {"type": "note_off", "time": 97, "note": 60, "velocity": 112, "channel": 0}, {"type": "note_on", "time": 208, "note": 58, "velocity": 105, "channel": 0}, {"type": "note_off", "time": 87, "note": 58, "velocity": 105, "channel": 0}, {"type": "note_on", "time": 5, "note": 60, "velocity": 110, "channel": 0}, {"type": "note_off", "time": 89, "note": 60, "velocity": 110, "channel": 0}, {"type": "note_on", "time": 197, "note": 58, "velocity": 106, "channel": 0}, {"type": "note_off", "time": 64, "note": 58, "velocity": 106, "channel": 0}, {"type": "note_on", "time": 4, "note": 60, "velocity": 110, "channel": 0}, {"type": "note_off", "time": 39, "note": 60, "velocity": 110, "channel": 0}, {"type": "note_on", "time": 5, "note": 61, "velocity": 108, "channel": 0}, {"type": "note_off", "time": 35, "note": 61, "velocity": 108, "channel": 0}, {"type": "note_on", "time": 6, "note": 60, "velocity": 106, "channel": 0}, {"type": "note_off", "time": 34, "note": 60, "velocity": 106, "channel": 0}, {"type": "note_on", "time": 10, "note": 58, "velocity": 107, "channel": 0}, {"type": "note_off", "time": 56, "note": 58, "velocity": 107, "channel": 0}, {"type": "note_on", "time": 21, "note": 58, "velocity": 111, "channel": 0}, {"type": "note_off", "time": 34, "note": 58, "velocity": 111, "channel": 0}, {"type": "note_on", "time": 2, "note": 60, "velocity": 112, "channel": 0}, {"type": "note_off", "time": 64, "note": 60, "velocity": 112, "channel": 0}, {"type": "note_on", "time": 14, "note": 61, "velocity": 119, "channel": 0}, {"type": "note_off", "time": 95, "note": 61, "velocity": 119, "channel": 0}, {"type": "note_on", "time": 76, "note": 58, "velocity": 111, "channel": 0}, {"type": "note_off", "time": 102, "note": 58, "velocity": 111, "channel": 0}, {"type": "note_on", "time": 14, "note": 60, "velocity": 103, "channel": 0}, {"type": "note_off", "time": 31, "note": 60, "velocity": 103, "channel": 0}, {"type": "note_on", "time": 8, "note": 58, "velocity": 102, "channel": 0}, {"type": "note_off", "time": 58, "note": 58, "velocity": 102, "channel": 0}, {"type": "note_on", "time": 16, "note": 55, "velocity": 96, "channel": 0}, {"type": "note_off", "time": 33, "note": 55, "velocity": 96, "channel": 0}, {"type": "note_on", "time": 33, "note": 60, "velocity": 111, "channel": 0}, {"type": "note_off", "time": 80, "note": 60, "velocity": 111, "channel": 0}, {"type": "note_on", "time": 16, "note": 58, "velocity": 110, "channel": 0}, {"type": "note_off", "time": 123, "note": 58, "velocity": 110, "channel": 0}, {"type": "note_on", "time": 177, "note": 62, "velocity": 111, "channel": 0}, {"type": "note_off", "time": 82, "note": 62, "velocity": 111, "channel": 0}, {"type": "note_on", "time": 108, "note": 70, "velocity": 117, "channel": 0}, {"type": "note_off", "time": 89, "note": 70, "velocity": 117, "channel": 0}, {"type": "note_on", "time": 11, "note": 69, "velocity": 118, "channel": 0}, {"type": "note_off", "time": 58, "note": 69, "velocity": 118, "channel": 0}, {"type": "note_on", "time": 7, "note": 68, "velocity": 111, "channel": 0}, {"type": "note_off", "time": 110, "note": 68, "velocity": 111, "channel": 0}, {"type": "note_on", "time": 16, "note": 72, "velocity": 87, "channel": 0}, {"type": "note_off", "time": 48, "note": 72, "velocity": 87, "channel": 0}, {"type": "note_on", "time": 22, "note": 75, "velocity": 119, "channel": 0}, {"type": "note_off", "time": 93, "note": 75, "velocity": 119, "channel": 0}, {"type": "note_on", "time": 13, "note": 77, "velocity": 120, "channel": 0}, {"type": "note_off", "time": 98, "note": 77, "velocity": 120, "channel": 0}, {"type": "note_on", "time": 9, "note": 78, "velocity": 123, "channel": 0}, {"type": "note_off", "time": 86, "note": 78, "velocity": 123, "channel": 0}, {"type": "note_on", "time": 4, "note": 73, "velocity": 109, "channel": 0}, {"type": "note_off", "time": 40, "note": 73, "velocity": 109, "channel": 0}, {"type": "note_on", "time": 14, "note": 71, "velocity": 110, "channel": 0}, {"type": "note_off", "time": 52, "note": 71, "velocity": 110, "channel": 0}, {"type": "note_on", "time": 6, "note": 68, "velocity": 110, "channel": 0}, {"type": "note_off", "time": 79, "note": 68, "velocity": 110, "channel": 0}, {"type": "note_on", "time": 28, "note": 66, "velocity": 106, "channel": 0}, {"type": "note_off", "time": 52, "note": 66, "velocity": 106, "channel": 0}, {"type": "note_on", "time": 19, "note": 67, "velocity": 90, "channel": 0}, {"type": "note_off", "time": 104, "note": 67, "velocity": 90, "channel": 0}, {"type": "note_on", "time": 67, "note": 74, "velocity": 114, "channel": 0}, {"type": "note_off", "time": 89, "note": 74, "velocity": 114, "channel": 0}, {"type": "note_on", "time": 22, "note": 77, "velocity": 116, "channel": 0}, {"type": "note_off", "time": 134, "note": 77, "velocity": 116, "channel": 0}, {"type": "note_on", "time": 130, "note": 75, "velocity": 112, "channel": 0}, {"type": "note_off", "time": 104, "note": 75, "velocity": 112, "channel": 0}, {"type": "note_on", "time": 50, "note": 65, "velocity": 93, "channel": 0}, {"type": "note_off", "time": 84, "note": 65, "velocity": 93, "channel": 0}, {"type": "note_on", "time": 92, "note": 74, "velocity": 111, "channel": 0}, {"type": "note_off", "time": 106, "note": 74, "velocity": 111, "channel": 0}, {"type": "note_on", "time": 73, "note": 70, "velocity": 84, "channel": 0}, {"type": "note_off", "time": 79, "note": 70, "velocity": 84, "channel": 0}, {"type": "note_on", "time": 25, "note": 72, "velocity": 110, "channel": 0}, {"type": "note_off", "time": 76, "note": 72, "velocity": 110, "channel": 0}, {"type": "note_on", "time": 21, "note": 67, "velocity": 101, "channel": 0}, {"type": "note_off", "time": 71, "note": 67, "velocity": 101, "channel": 0}, {"type": "note_on", "time": 34, "note": 63, "velocity": 89, "channel": 0}, {"type": "note_off", "time": 67, "note": 63, "velocity": 89, "channel": 0}, {"type": "note_on", "time": 97, "note": 69, "velocity": 112, "channel": 0}, {"type": "note_off", "time": 57, "note": 69, "velocity": 112, "channel": 0}, {"type": "note_on", "time": 6, "note": 70, "velocity": 111, "channel": 0}, {"type": "note_off", "time": 221, "note": 70, "velocity": 111, "channel": 0}, {"type": "note_on", "time": 21, "note": 67, "velocity": 111, "channel": 0}, {"type": "note_off", "time": 74, "note": 67, "velocity": 111, "channel": 0}, {"type": "note_on", "time": 85, "note": 63, "velocity": 101, "channel": 0}, {"type": "note_off", "time": 72, "note": 63, "velocity": 101, "channel": 0}, {"type": "note_on", "time": 12, "note": 60, "velocity": 108, "channel": 0}, {"type": "note_off", "time": 87, "note": 60, "velocity": 108, "channel": 0}, {"type": "note_on", "time": 101, "note": 69, "velocity": 113, "channel": 0}, {"type": "note_off", "time": 65, "note": 69, "velocity": 113, "channel": 0}, {"type": "note_on", "time": 3, "note": 70, "velocity": 114, "channel": 0}, {"type": "note_off", "time": 224, "note": 70, "velocity": 114, "channel": 0}, {"type": "note_on", "time": 16, "note": 67, "velocity": 111, "channel": 0}, {"type": "note_off", "time": 109, "note": 67, "velocity": 111, "channel": 0}, {"type": "note_on", "time": 73, "note": 64, "velocity": 95, "channel": 0}, {"type": "note_off", "time": 119, "note": 64, "velocity": 95, "channel": 0}, {"type": "note_on", "time": 22, "note": 60, "velocity": 97, "channel": 0}, {"type": "note_off", "time": 74, "note": 60, "velocity": 97, "channel": 0}, {"type": "note_on", "time": 5, "note": 58, "velocity": 87, "channel": 0}, {"type": "note_off", "time": 68, "note": 58, "velocity": 87, "channel": 0}, {"type": "note_on", "time": 2, "note": 69, "velocity": 117, "channel": 0}, {"type": "note_off", "time": 52, "note": 69, "velocity": 117, "channel": 0}, {"type": "note_on", "time": 14, "note": 70, "velocity": 109, "channel": 0}, {"type": "note_off", "time": 228, "note": 70, "velocity": 109, "channel": 0}, {"type": "note_on", "time": 11, "note": 65, "velocity": 112, "channel": 0}, {"type": "note_off", "time": 115, "note": 65, "velocity": 112, "channel": 0}, {"type": "note_on", "time": 451, "note": 62, "velocity": 102, "channel": 0}, {"type": "note_off", "time": 71, "note": 62, "velocity": 102, "channel": 0}, {"type": "note_on", "time": 4, "note": 65, "velocity": 94, "channel": 0}, {"type": "note_off", "time": 83, "note": 65, "velocity": 94, "channel": 0}, {"type": "note_on", "time": 28, "note": 67, "velocity": 89, "channel": 0}, {"type": "note_off", "time": 48, "note": 67, "velocity": 89, "channel": 0}, {"type": "note_on", "time": 55, "note": 68, "velocity": 112, "channel": 0}, {"type": "note_off", "time": 92, "note": 68, "velocity": 112, "channel": 0}, {"type": "note_on", "time": 275, "note": 67, "velocity": 109, "channel": 0}, {"type": "note_off", "time": 92, "note": 67, "velocity": 109, "channel": 0}, {"type": "note_on", "time": 16, "note": 68, "velocity": 98, "channel": 0}, {"type": "note_off", "time": 41, "note": 68, "velocity": 98, "channel": 0}, {"type": "note_on", "time": 7, "note": 67, "velocity": 104, "channel": 0}, {"type": "note_off", "time": 60, "note": 67, "velocity": 104, "channel": 0}, {"type": "note_on", "time": 6, "note": 65, "velocity": 97, "channel": 0}, {"type": "note_off", "time": 65, "note": 65, "velocity": 97, "channel": 0}, {"type": "note_on", "time": 42, "note": 60, "velocity": 98, "channel": 0}, {"type": "note_off", "time": 37, "note": 60, "velocity": 98, "channel": 0}, {"type": "note_on", "time": 22, "note": 64, "velocity": 103, "channel": 0}, {"type": "note_off", "time": 89, "note": 64, "velocity": 103, "channel": 0}, {"type": "note_on", "time": 43, "note": 55, "velocity": 106, "channel": 0}, {"type": "note_off", "time": 65, "note": 55, "velocity": 106, "channel": 0}, {"type": "note_on", "time": 15, "note": 58, "velocity": 88, "channel": 0}, {"type": "note_off", "time": 67, "note": 58, "velocity": 88, "channel": 0}, {"type": "note_on", "time": 28, "note": 62, "velocity": 110, "channel": 0}, {"type": "note_off", "time": 82, "note": 62, "velocity": 110, "channel": 0}, {"type": "note_on", "time": 197, "note": 60, "velocity": 109, "channel": 0}, {"type": "note_off", "time": 88, "note": 60, "velocity": 109, "channel": 0}, {"type": "note_on", "time": 6, "note": 59, "velocity": 93, "channel": 0}, {"type": "note_off", "time": 80, "note": 59, "velocity": 93, "channel": 0}, {"type": "note_on", "time": 19, "note": 58, "velocity": 106, "channel": 0}, {"type": "note_off", "time": 87, "note": 58, "velocity": 106, "channel": 0}, {"type": "note_on", "time": 11, "note": 60, "velocity": 107, "channel": 0}, {"type": "note_off", "time": 75, "note": 60, "velocity": 107, "channel": 0}, {"type": "note_on", "time": 6, "note": 55, "velocity": 101, "channel": 0}, {"type": "note_off", "time": 99, "note": 55, "velocity": 101, "channel": 0}, {"type": "note_on", "time": 7, "note": 56, "velocity": 103, "channel": 0}, {"type": "note_off", "time": 76, "note": 56, "velocity": 103, "channel": 0}, {"type": "note_on", "time": 11, "note": 57, "velocity": 92, "channel": 0}, {"type": "note_off", "time": 72, "note": 57, "velocity": 92, "channel": 0}, {"type": "note_on", "time": 6, "note": 60, "velocity": 99, "channel": 0}, {"type": "note_off", "time": 70, "note": 60, "velocity": 99, "channel": 0}, {"type": "note_on", "time": 33, "note": 63, "velocity": 107, "channel": 0}, {"type": "note_off", "time": 80, "note": 63, "velocity": 107, "channel": 0}, {"type": "note_on", "time": 14, "note": 66, "velocity": 110, "channel": 0}, {"type": "note_off", "time": 96, "note": 66, "velocity": 110, "channel": 0}, {"type": "note_on", "time": 7, "note": 67, "velocity": 107, "channel": 0}, {"type": "note_off", "time": 89, "note": 67, "velocity": 107, "channel": 0}, {"type": "note_on", "time": 15, "note": 63, "velocity": 106, "channel": 0}, {"type": "note_off", "time": 66, "note": 63, "velocity": 106, "channel": 0}, {"type": "note_on", "time": 6, "note": 60, "velocity": 103, "channel": 0}, {"type": "note_off", "time": 74, "note": 60, "velocity": 103, "channel": 0}, {"type": "note_on", "time": 67, "note": 58, "velocity": 106, "channel": 0}, {"type": "note_off", "time": 54, "note": 58, "velocity": 106, "channel": 0}, {"type": "note_on", "time": 4, "note": 57, "velocity": 93, "channel": 0}, {"type": "note_off", "time": 91, "note": 57, "velocity": 93, "channel": 0}, {"type": "note_on", "time": 14, "note": 60, "velocity": 96, "channel": 0}, {"type": "note_off", "time": 55, "note": 60, "velocity": 96, "channel": 0}, {"type": "note_on", "time": 31, "note": 63, "velocity": 106, "channel": 0}, {"type": "note_off", "time": 67, "note": 63, "velocity": 106, "channel": 0}, {"type": "note_on", "time": 29, "note": 67, "velocity": 91, "channel": 0}, {"type": "note_off", "time": 65, "note": 67, "velocity": 91, "channel": 0}, {"type": "note_on", "time": 5, "note": 68, "velocity": 117, "channel": 0}, {"type": "note_off", "time": 107, "note": 68, "velocity": 117, "channel": 0}, {"type": "note_on", "time": 11, "note": 67, "velocity": 110, "channel": 0}, {"type": "note_off", "time": 72, "note": 67, "velocity": 110, "channel": 0}, {"type": "note_on", "time": 9, "note": 66, "velocity": 106, "channel": 0}, {"type": "note_off", "time": 91, "note": 66, "velocity": 106, "channel": 0}, {"type": "note_on", "time": 20, "note": 64, "velocity": 88, "channel": 0}, {"type": "note_off", "time": 70, "note": 64, "velocity": 88, "channel": 0}, {"type": "note_on", "time": 10, "note": 65, "velocity": 106, "channel": 0}, {"type": "note_off", "time": 61, "note": 65, "velocity": 106, "channel": 0}, {"type": "note_on", "time": 53, "note": 62, "velocity": 101, "channel": 0}, {"type": "note_off", "time": 77, "note": 62, "velocity": 101, "channel": 0}, {"type": "note_on", "time": 11, "note": 58, "velocity": 99, "channel": 0}, {"type": "note_off", "time": 82, "note": 58, "velocity": 99, "channel": 0}, {"type": "note_on", "time": 8, "note": 55, "velocity": 99, "channel": 0}, {"type": "note_off", "time": 67, "note": 55, "velocity": 99, "channel": 0}, {"type": "note_on", "time": 22, "note": 60, "velocity": 110, "channel": 0}, {"type": "note_off", "time": 79, "note": 60, "velocity": 110, "channel": 0}, {"type": "note_on", "time": 12, "note": 58, "velocity": 107, "channel": 0}, {"type": "note_off", "time": 85, "note": 58, "velocity": 107, "channel": 0}, {"type": "note_on", "time": 11, "note": 57, "velocity": 95, "channel": 0}, {"type": "note_off", "time": 104, "note": 57, "velocity": 95, "channel": 0}, {"type": "note_on", "time": 12, "note": 58, "velocity": 103, "channel": 0}, {"type": "note_off", "time": 93, "note": 58, "velocity": 103, "channel": 0}, {"type": "note_on", "time": 14, "note": 59, "velocity": 93, "channel": 0}, {"type": "note_off", "time": 52, "note": 59, "velocity": 93, "channel": 0}, {"type": "note_on", "time": 11, "note": 61, "velocity": 108, "channel": 0}, {"type": "note_off", "time": 82, "note": 61, "velocity": 108, "channel": 0}, {"type": "note_on", "time": 10, "note": 62, "velocity": 101, "channel": 0}, {"type": "note_off", "time": 88, "note": 62, "velocity": 101, "channel": 0}, {"type": "note_on", "time": 20, "note": 64, "velocity": 106, "channel": 0}, {"type": "note_off", "time": 83, "note": 64, "velocity": 106, "channel": 0}, {"type": "note_on", "time": 14, "note": 65, "velocity": 100, "channel": 0}, {"type": "note_off", "time": 78, "note": 65, "velocity": 100, "channel": 0}, {"type": "note_on", "time": 11, "note": 68, "velocity": 113, "channel": 0}, {"type": "note_off", "time": 84, "note": 68, "velocity": 113, "channel": 0}, {"type": "note_on", "time": 121, "note": 66, "velocity": 88, "channel": 0}, {"type": "note_off", "time": 50, "note": 66, "velocity": 88, "channel": 0}, {"type": "note_on", "time": 6, "note": 67, "velocity": 106, "channel": 0}, {"type": "note_off", "time": 98, "note": 67, "velocity": 106, "channel": 0}, {"type": "note_on", "time": 22, "note": 63, "velocity": 108, "channel": 0}, {"type": "note_off", "time": 61, "note": 63, "velocity": 108, "channel": 0}, {"type": "note_on", "time": 219, "note": 62, "velocity": 108, "channel": 0}, {"type": "note_off", "time": 66, "note": 62, "velocity": 108, "channel": 0}, {"type": "note_on", "time": 47, "note": 59, "velocity": 87, "channel": 0}, {"type": "note_off", "time": 54, "note": 59, "velocity": 87, "channel": 0}, {"type": "note_on", "time": 6, "note": 60, "velocity": 92, "channel": 0}, {"type": "note_off", "time": 78, "note": 60, "velocity": 92, "channel": 0}, {"type": "note_on", "time": 247, "note": 60, "velocity": 104, "channel": 0}, {"type": "note_off", "time": 64, "note": 60, "velocity": 104, "channel": 0}, {"type": "note_on", "time": 57, "note": 64, "velocity": 84, "channel": 0}, {"type": "note_off", "time": 44, "note": 64, "velocity": 84, "channel": 0}, {"type": "note_on", "time": 12, "note": 67, "velocity": 47, "channel": 0}, {"type": "note_off", "time": 45, "note": 67, "velocity": 47, "channel": 0}, {"type": "note_on", "time": 3, "note": 70, "velocity": 84, "channel": 0}, {"type": "note_off", "time": 24, "note": 70, "velocity": 84, "channel": 0}, {"type": "note_on", "time": 35, "note": 71, "velocity": 116, "channel": 0}, {"type": "note_off", "time": 29, "note": 71, "velocity": 116, "channel": 0}, {"type": "note_on", "time": 5, "note": 72, "velocity": 116, "channel": 0}, {"type": "note_off", "time": 44, "note": 72, "velocity": 116, "channel": 0}, {"type": "note_on", "time": 5, "note": 74, "velocity": 109, "channel": 0}, {"type": "note_off", "time": 51, "note": 74, "velocity": 109, "channel": 0}, {"type": "note_on", "time": 5, "note": 73, "velocity": 105, "channel": 0}, {"type": "note_off", "time": 35, "note": 73, "velocity": 105, "channel": 0}, {"type": "note_on", "time": 11, "note": 70, "velocity": 111, "channel": 0}, {"type": "note_off", "time": 80, "note": 70, "velocity": 111, "channel": 0}, {"type": "note_on", "time": 22, "note": 65, "velocity": 118, "channel": 0}, {"type": "note_off", "time": 86, "note": 65, "velocity": 118, "channel": 0}, {"type": "note_on", "time": 475, "note": 72, "velocity": 120, "channel": 0}, {"type": "note_off", "time": 89, "note": 72, "velocity": 120, "channel": 0}, {"type": "note_on", "time": 5, "note": 74, "velocity": 119, "channel": 0}, {"type": "note_off", "time": 53, "note": 74, "velocity": 119, "channel": 0}, {"type": "note_on", "time": 8, "note": 72, "velocity": 111, "channel": 0}, {"type": "note_off", "time": 34, "note": 72, "velocity": 111, "channel": 0}, {"type": "note_on", "time": 5, "note": 70, "velocity": 111, "channel": 0}, {"type": "note_off", "time": 60, "note": 70, "velocity": 111, "channel": 0}, {"type": "note_on", "time": 10, "note": 66, "velocity": 119, "channel": 0}, {"type": "note_off", "time": 89, "note": 66, "velocity": 119, "channel": 0}, {"type": "note_on", "time": 222, "note": 71, "velocity": 116, "channel": 0}, {"type": "note_off", "time": 37, "note": 71, "velocity": 116, "channel": 0}, {"type": "note_on", "time": 3, "note": 72, "velocity": 116, "channel": 0}, {"type": "note_off", "time": 51, "note": 72, "velocity": 116, "channel": 0}, {"type": "note_on", "time": 2, "note": 74, "velocity": 110, "channel": 0}, {"type": "note_off", "time": 55, "note": 74, "velocity": 110, "channel": 0}, {"type": "note_on", "time": 5, "note": 72, "velocity": 107, "channel": 0}, {"type": "note_off", "time": 42, "note": 72, "velocity": 107, "channel": 0}, {"type": "note_on", "time": 10, "note": 70, "velocity": 107, "channel": 0}, {"type": "note_off", "time": 63, "note": 70, "velocity": 107, "channel": 0}, {"type": "note_on", "time": 5, "note": 67, "velocity": 114, "channel": 0}, {"type": "note_off", "time": 86, "note": 67, "velocity": 114, "channel": 0}, {"type": "note_on", "time": 205, "note": 72, "velocity": 119, "channel": 0}, {"type": "note_off", "time": 89, "note": 72, "velocity": 119, "channel": 0}, {"type": "note_on", "time": 10, "note": 74, "velocity": 109, "channel": 0}, {"type": "note_off", "time": 52, "note": 74, "velocity": 109, "channel": 0}, {"type": "note_on", "time": 5, "note": 72, "velocity": 107, "channel": 0}, {"type": "note_off", "time": 46, "note": 72, "velocity": 107, "channel": 0}, {"type": "note_on", "time": 10, "note": 71, "velocity": 102, "channel": 0}, {"type": "note_off", "time": 61, "note": 71, "velocity": 102, "channel": 0}, {"type": "note_on", "time": 14, "note": 70, "velocity": 113, "channel": 0}, {"type": "note_off", "time": 95, "note": 70, "velocity": 113, "channel": 0}, {"type": "note_on", "time": 5, "note": 67, "velocity": 104, "channel": 0}, {"type": "note_off", "time": 65, "note": 67, "velocity": 104, "channel": 0}, {"type": "note_on", "time": 12, "note": 63, "velocity": 101, "channel": 0}, {"type": "note_off", "time": 105, "note": 63, "velocity": 101, "channel": 0}, {"type": "note_on", "time": 18, "note": 60, "velocity": 101, "channel": 0}, {"type": "note_off", "time": 71, "note": 60, "velocity": 101, "channel": 0}, {"type": "note_on", "time": 9, "note": 62, "velocity": 107, "channel": 0}, {"type": "note_off", "time": 91, "note": 62, "velocity": 107, "channel": 0}, {"type": "note_on", "time": 6, "note": 61, "velocity": 113, "channel": 0}, {"type": "note_off", "time": 100, "note": 61, "velocity": 113, "channel": 0}, {"type": "note_on", "time": 8, "note": 60, "velocity": 102, "channel": 0}, {"type": "note_off", "time": 92, "note": 60, "velocity": 102, "channel": 0}, {"type": "note_on", "time": 7, "note": 58, "velocity": 106, "channel": 0}, {"type": "note_off", "time": 93, "note": 58, "velocity": 106, "channel": 0}, {"type": "note_on", "time": 8, "note": 59, "velocity": 90, "channel": 0}, {"type": "note_off", "time": 55, "note": 59, "velocity": 90, "channel": 0}, {"type": "note_on", "time": 19, "note": 68, "velocity": 115, "channel": 0}, {"type": "note_off", "time": 107, "note": 68, "velocity": 115, "channel": 0}, {"type": "note_on", "time": 8, "note": 65, "velocity": 102, "channel": 0}, {"type": "note_off", "time": 73, "note": 65, "velocity": 102, "channel": 0}, {"type": "note_on", "time": 4, "note": 66, "velocity": 108, "channel": 0}, {"type": "note_off", "time": 74, "note": 66, "velocity": 108, "channel": 0}, {"type": "note_on", "time": 16, "note": 67, "velocity": 104, "channel": 0}, {"type": "note_off", "time": 86, "note": 67, "velocity": 104, "channel": 0}, {"type": "note_on", "time": 15, "note": 63, "velocity": 109, "channel": 0}, {"type": "note_off", "time": 81, "note": 63, "velocity": 109, "channel": 0}, {"type": "note_on", "time": 5, "note": 62, "velocity": 98, "channel": 0}, {"type": "note_off", "time": 85, "note": 62, "velocity": 98, "channel": 0}, {"type": "note_on", "time": 119, "note": 65, "velocity": 119, "channel": 0}, {"type": "note_off", "time": 94, "note": 65, "velocity": 119, "channel": 0}, {"type": "note_on", "time": 10, "note": 64, "velocity": 109, "channel": 0}, {"type": "note_off", "time": 71, "note": 64, "velocity": 109, "channel": 0}, {"type": "note_on", "time": 4, "note": 63, "velocity": 107, "channel": 0}, {"type": "note_off", "time": 95, "note": 63, "velocity": 107, "channel": 0}, {"type": "note_on", "time": 19, "note": 65, "velocity": 117, "channel": 0}, {"type": "note_off", "time": 101, "note": 65, "velocity": 117, "channel": 0}, {"type": "note_on", "time": 8, "note": 66, "velocity": 95, "channel": 0}, {"type": "note_off", "time": 70, "note": 66, "velocity": 95, "channel": 0}, {"type": "note_on", "time": 15, "note": 70, "velocity": 95, "channel": 0}, {"type": "note_off", "time": 84, "note": 70, "velocity": 95, "channel": 0}, {"type": "note_on", "time": 4, "note": 73, "velocity": 115, "channel": 0}, {"type": "note_off", "time": 117, "note": 73, "velocity": 115, "channel": 0}, {"type": "note_on", "time": 11, "note": 70, "velocity": 89, "channel": 0}, {"type": "note_off", "time": 37, "note": 70, "velocity": 89, "channel": 0}, {"type": "note_on", "time": 16, "note": 72, "velocity": 113, "channel": 0}, {"type": "note_off", "time": 85, "note": 72, "velocity": 113, "channel": 0}, {"type": "note_on", "time": 3, "note": 73, "velocity": 110, "channel": 0}, {"type": "note_off", "time": 31, "note": 73, "velocity": 110, "channel": 0}, {"type": "note_on", "time": 5, "note": 72, "velocity": 109, "channel": 0}, {"type": "note_off", "time": 63, "note": 72, "velocity": 109, "channel": 0}, {"type": "note_on", "time": 2, "note": 70, "velocity": 109, "channel": 0}, {"type": "note_off", "time": 91, "note": 70, "velocity": 109, "channel": 0}, {"type": "note_on", "time": 9, "note": 69, "velocity": 112, "channel": 0}, {"type": "note_off", "time": 76, "note": 69, "velocity": 112, "channel": 0}, {"type": "note_on", "time": 10, "note": 67, "velocity": 108, "channel": 0}, {"type": "note_off", "time": 89, "note": 67, "velocity": 108, "channel": 0}, {"type": "note_on", "time": 3, "note": 66, "velocity": 104, "channel": 0}, {"type": "note_off", "time": 86, "note": 66, "velocity": 104, "channel": 0}, {"type": "note_on", "time": 14, "note": 65, "velocity": 106, "channel": 0}, {"type": "note_off", "time": 100, "note": 65, "velocity": 106, "channel": 0}, {"type": "note_on", "time": 9, "note": 61, "velocity": 106, "channel": 0}, {"type": "note_off", "time": 18, "note": 61, "velocity": 106, "channel": 0}, {"type": "note_on", "time": 9, "note": 62, "velocity": 105, "channel": 0}, {"type": "note_off", "time": 49, "note": 62, "velocity": 105, "channel": 0}, {"type": "note_on", "time": 11, "note": 58, "velocity": 104, "channel": 0}, {"type": "note_off", "time": 105, "note": 58, "velocity": 104, "channel": 0}, {"type": "note_on", "time": 19, "note": 55, "velocity": 105, "channel": 0}, {"type": "note_off", "time": 46, "note": 55, "velocity": 105, "channel": 0}, {"type": "note_on", "time": 21, "note": 60, "velocity": 108, "channel": 0}, {"type": "note_off", "time": 89, "note": 60, "velocity": 108, "channel": 0}, {"type": "note_on", "time": 8, "note": 58, "velocity": 109, "channel": 0}, {"type": "note_off", "time": 100, "note": 58, "velocity": 109, "channel": 0}, {"type": "note_on", "time": 3, "note": 57, "velocity": 98, "channel": 0}, {"type": "note_off", "time": 79, "note": 57, "velocity": 98, "channel": 0}, {"type": "note_on", "time": 11, "note": 58, "velocity": 100, "channel": 0}, {"type": "note_off", "time": 38, "note": 58, "velocity": 100, "channel": 0}, {"type": "note_on", "time": 2, "note": 61, "velocity": 106, "channel": 0}, {"type": "note_off", "time": 103, "note": 61, "velocity": 106, "channel": 0}, {"type": "note_on", "time": 117, "note": 68, "velocity": 116, "channel": 0}, {"type": "note_off", "time": 116, "note": 68, "velocity": 116, "channel": 0}, {"type": "note_on", "time": 86, "note": 67, "velocity": 112, "channel": 0}, {"type": "note_off", "time": 75, "note": 67, "velocity": 112, "channel": 0}, {"type": "note_on", "time": 10, "note": 66, "velocity": 108, "channel": 0}, {"type": "note_off", "time": 89, "note": 66, "velocity": 108, "channel": 0}, {"type": "note_on", "time": 4, "note": 67, "velocity": 108, "channel": 0}, {"type": "note_off", "time": 182, "note": 67, "velocity": 108, "channel": 0}, {"type": "note_on", "time": 13, "note": 70, "velocity": 114, "channel": 0}, {"type": "note_off", "time": 97, "note": 70, "velocity": 114, "channel": 0}, {"type": "note_on", "time": 105, "note": 67, "velocity": 115, "channel": 0}, {"type": "note_off", "time": 111, "note": 67, "velocity": 115, "channel": 0}, {"type": "note_on", "time": 56, "note": 66, "velocity": 100, "channel": 0}, {"type": "note_off", "time": 46, "note": 66, "velocity": 100, "channel": 0}, {"type": "note_on", "time": 3, "note": 67, "velocity": 100, "channel": 0}, {"type": "note_off", "time": 48, "note": 67, "velocity": 100, "channel": 0}, {"type": "note_on", "time": 42, "note": 61, "velocity": 107, "channel": 0}, {"type": "note_off", "time": 64, "note": 61, "velocity": 107, "channel": 0}, {"type": "note_on", "time": 0, "note": 62, "velocity": 95, "channel": 0}, {"type": "note_off", "time": 106, "note": 62, "velocity": 95, "channel": 0}, {"type": "note_on", "time": 25, "note": 65, "velocity": 115, "channel": 0}, {"type": "note_off", "time": 88, "note": 65, "velocity": 115, "channel": 0}, {"type": "note_on", "time": 92, "note": 62, "velocity": 108, "channel": 0}, {"type": "note_off", "time": 123, "note": 62, "velocity": 108, "channel": 0}, {"type": "note_on", "time": 8, "note": 60, "velocity": 99, "channel": 0}, {"type": "note_off", "time": 50, "note": 60, "velocity": 99, "channel": 0}, {"type": "note_on", "time": 6, "note": 58, "velocity": 101, "channel": 0}, {"type": "note_off", "time": 46, "note": 58, "velocity": 101, "channel": 0}, {"type": "note_on", "time": 21, "note": 57, "velocity": 106, "channel": 0}, {"type": "note_off", "time": 49, "note": 57, "velocity": 106, "channel": 0}, {"type": "note_on", "time": 25, "note": 55, "velocity": 107, "channel": 0}, {"type": "note_off", "time": 89, "note": 55, "velocity": 107, "channel": 0}, {"type": "note_on", "time": 97, "note": 57, "velocity": 104, "channel": 0}, {"type": "note_off", "time": 56, "note": 57, "velocity": 104, "channel": 0}, {"type": "note_on", "time": 6, "note": 58, "velocity": 109, "channel": 0}, {"type": "note_off", "time": 85, "note": 58, "velocity": 109, "channel": 0}, {"type": "note_on", "time": 13, "note": 62, "velocity": 110, "channel": 0}, {"type": "note_off", "time": 95, "note": 62, "velocity": 110, "channel": 0}, {"type": "note_on", "time": 87, "note": 58, "velocity": 118, "channel": 0}, {"type": "note_off", "time": 122, "note": 58, "velocity": 118, "channel": 0}, {"type": "note_on", "time": 116, "note": 57, "velocity": 105, "channel": 0}, {"type": "note_off", "time": 74, "note": 57, "velocity": 105, "channel": 0}, {"type": "note_on", "time": 8, "note": 60, "velocity": 105, "channel": 0}, {"type": "note_off", "time": 87, "note": 60, "velocity": 105, "channel": 0}, {"type": "note_on", "time": 75, "note": 62, "velocity": 116, "channel": 0}, {"type": "note_off", "time": 80, "note": 62, "velocity": 116, "channel": 0}, {"type": "note_on", "time": 13, "note": 63, "velocity": 109, "channel": 0}, {"type": "note_off", "time": 67, "note": 63, "velocity": 109, "channel": 0}, {"type": "note_on", "time": 36, "note": 67, "velocity": 110, "channel": 0}, {"type": "note_off", "time": 78, "note": 67, "velocity": 110, "channel": 0}, {"type": "note_on", "time": 51, "note": 61, "velocity": 100, "channel": 0}, {"type": "note_off", "time": 49, "note": 61, "velocity": 100, "channel": 0}, {"type": "note_on", "time": 122, "note": 69, "velocity": 123, "channel": 0}, {"type": "note_off", "time": 79, "note": 69, "velocity": 123, "channel": 0}, {"type": "note_on", "time": 6, "note": 67, "velocity": 118, "channel": 0}, {"type": "note_off", "time": 84, "note": 67, "velocity": 118, "channel": 0}, {"type": "note_on", "time": 7, "note": 65, "velocity": 121, "channel": 0}, {"type": "note_off", "time": 96, "note": 65, "velocity": 121, "channel": 0}, {"type": "note_on", "time": 16, "note": 62, "velocity": 115, "channel": 0}, {"type": "note_off", "time": 98, "note": 62, "velocity": 115, "channel": 0}, {"type": "end_of_track", "time": 0}]]}