{"ticks_per_beat": 192, "tracks": [[{"type": "track_name", "name": "Melody", "time": 0}, {"type": "set_tempo", "tempo": 257510, "time": 0}, {"type": "key_signature", "key": "F", "time": 0}, {"type": "time_signature", "numerator": 4, "denominator": 4, "clocks_per_click": 24, "notated_32nd_notes_per_beat": 8, "time": 0}, {"type": "note_on", "time": 3457, "note": 54, "velocity": 113, "channel": 0}, {"type": "note_off", "time": 60, "note": 54, "velocity": 113, "channel": 0}, {"type": "note_on", "time": 42, "note": 57, "velocity": 116, "channel": 0}, {"type": "note_off", "time": 36, "note": 57, "velocity": 116, "channel": 0}, {"type": "note_on", "time": 6, "note": 62, "velocity": 108, "channel": 0}, {"type": "note_off", "time": 36, "note": 62, "velocity": 108, "channel": 0}, {"type": "note_on", "time": 21, "note": 65, "velocity": 114, "channel": 0}, {"type": "note_off", "time": 69, "note": 65, "velocity": 114, "channel": 0}, {"type": "note_on", "time": 27, "note": 66, "velocity": 116, "channel": 0}, {"type": "note_off", "time": 82, "note": 66, "velocity": 116, "channel": 0}, {"type": "note_on", "time": 15, "note": 61, "velocity": 110, "channel": 0}, {"type": "note_off", "time": 66, "note": 61, "velocity": 110, "channel": 0}, {"type": "note_on", "time": 18, "note": 58, "velocity": 107, "channel": 0}, {"type": "note_off", "time": 79, "note": 58, "velocity": 107, "channel": 0}, {"type": "note_on", "time": 6, "note": 54, "velocity": 106, "channel": 0}, {"type": "note_off", "time": 76, "note": 54, "velocity": 106, "channel": 0}, {"type": "note_on", "time": 9, "note": 55, "velocity": 98, "channel": 0}, {"type": "note_off", "time": 66, "note": 55, "velocity": 98, "channel": 0}, {"type": "note_on", "time": 55, "note": 58, "velocity": 98, "channel": 0}, {"type": "note_off", "time": 36, "note": 58, "velocity": 98, "channel": 0}, {"type": "note_on", "time": 54, "note": 62, "velocity": 115, "channel": 0}, {"type": "note_off", "time": 69, "note": 62, "velocity": 115, "channel": 0}, {"type": "note_on", "time": 27, "note": 66, "velocity": 126, "channel": 0}, {"type": "note_off", "time": 73, "note": 66, "velocity": 126, "channel": 0}, {"type": "note_on", "time": 18, "note": 67, "velocity": 121, "channel": 0}, {"type": "note_off", "time": 85, "note": 67, "velocity": 121, "channel": 0}, {"type": "note_on", "time": 15, "note": 62, "velocity": 107, "channel": 0}, {"type": "note_off", "time": 57, "note": 62, "velocity": 107, "channel": 0}, {"type": "note_on", "time": 0, "note": 58, "velocity": 117, "channel": 0}, {"type": "note_off", "time": 77, "note": 58, "velocity": 117, "channel": 0}, {"type": "note_on", "time": 54, "note": 54, "velocity": 110, "channel": 0}, {"type": "note_off", "time": 69, "note": 54, "velocity": 110, "channel": 0}, {"type": "note_on", "time": 15, "note": 55, "velocity": 106, "channel": 0}, {"type": "note_off", "time": 62, "note": 55, "velocity": 106, "channel": 0}, {"type": "note_on", "time": 25, "note": 57, "velocity": 106, "channel": 0}, {"type": "note_off", "time": 75, "note": 57, "velocity": 106, "channel": 0}, {"type": "note_on", "time": 12, "note": 58, "velocity": 102, "channel": 0}, {"type": "note_off", "time": 90, "note": 58, "velocity": 102, "channel": 0}, {"type": "note_on", "time": 23, "note": 62, "velocity": 110, "channel": 0}, {"type": "note_off", "time": 45, "note": 62, "velocity": 110, "channel": 0}, {"type": "note_on", "time": 6, "note": 64, "velocity": 111, "channel": 0}, {"type": "note_off", "time": 54, "note": 64, "velocity": 111, "channel": 0}, {"type": "note_on", "time": 19, "note": 69, "velocity": 122, "channel": 0}, {"type": "note_off", "time": 103, "note": 69, "velocity": 122, "channel": 0}, {"type": "note_on", "time": 10, "note": 65, "velocity": 112, "channel": 0}, {"type": "note_off", "time": 67, "note": 65, "velocity": 112, "channel": 0}, {"type": "note_on", "time": 2, "note": 62, "velocity": 104, "channel": 0}, {"type": "note_off", "time": 64, "note": 62, "velocity": 104, "channel": 0}, {"type": "note_on", "time": 32, "note": 57, "velocity": 103, "channel": 0}, {"type": "note_off", "time": 51, "note": 57, "velocity": 103, "channel": 0}, {"type": "note_on", "time": 10, "note": 58, "velocity": 106, "channel": 0}, {"type": "note_off", "time": 88, "note": 58, "velocity": 106, "channel": 0}, {"type": "note_on", "time": 12, "note": 60, "velocity": 110, "channel": 0}, {"type": "note_off", "time": 58, "note": 60, "velocity": 110, "channel": 0}, {"type": "note_on", "time": 127, "note": 69, "velocity": 122, "channel": 0}, {"type": "note_off", "time": 69, "note": 69, "velocity": 122, "channel": 0}, {"type": "note_on", "time": 10, "note": 70, "velocity": 121, "channel": 0}, {"type": "note_off", "time": 108, "note": 70, "velocity": 121, "channel": 0}, {"type": "note_on", "time": 6, "note": 66, "velocity": 118, "channel": 0}, {"type": "note_off", "time": 67, "note": 66, "velocity": 118, "channel": 0}, {"type": "note_on", "time": 2, "note": 61, "velocity": 109, "channel": 0}, {"type": "note_off", "time": 93, "note": 61, "velocity": 109, "channel": 0}, {"type": "note_on", "time": 62, "note": 57, "velocity": 103, "channel": 0}, {"type": "note_off", "time": 64, "note": 57, "velocity": 103, "channel": 0}, {"type": "note_on", "time": 6, "note": 60, "velocity": 108, "channel": 0}, {"type": "note_off", "time": 47, "note": 60, "velocity": 108, "channel": 0}, {"type": "note_on", "time": 4, "note": 61, "velocity": 109, "channel": 0}, {"type": "note_off", "time": 41, "note": 61, "velocity": 109, "channel": 0}, {"type": "note_on", "time": 10, "note": 60, "velocity": 108, "channel": 0}, {"type": "note_off", "time": 41, "note": 60, "velocity": 108, "channel": 0}, {"type": "note_on", "time": 0, "note": 57, "velocity": 114, "channel": 0}, {"type": "note_off", "time": 88, "note": 57, "velocity": 114, "channel": 0}, {"type": "note_on", "time": 25, "note": 58, "velocity": 91, "channel": 0}, {"type": "note_off", "time": 95, "note": 58, "velocity": 91, "channel": 0}, {"type": "note_on", "time": 28, "note": 60, "velocity": 106, "channel": 0}, {"type": "note_off", "time": 64, "note": 60, "velocity": 106, "channel": 0}, {"type": "note_on", "time": 25, "note": 65, "velocity": 114, "channel": 0}, {"type": "note_off", "time": 77, "note": 65, "velocity": 114, "channel": 0}, {"type": "note_on", "time": 17, "note": 63, "velocity": 106, "channel": 0}, {"type": "note_off", "time": 86, "note": 63, "velocity": 106, "channel": 0}, {"type": "note_on", "time": 17, "note": 61, "velocity": 105, "channel": 0}, {"type": "note_off", "time": 54, "note": 61, "velocity": 105, "channel": 0}, {"type": "note_on", "time": 14, "note": 62, "velocity": 105, "channel": 0}, {"type": "note_off", "time": 88, "note": 62, "velocity": 105, "channel": 0}, {"type": "note_on", "time": 15, "note": 65, "velocity": 100, "channel": 0}, {"type": "note_off", "time": 64, "note": 65, "velocity": 100, "channel": 0}, {"type": "note_on", "time": 25, "note": 67, "velocity": 117, "channel": 0}, {"type": "note_off", "time": 93, "note": 67, "velocity": 117, "channel": 0}, {"type": "note_on", "time": 8, "note": 68, "velocity": 123, "channel": 0}, {"type": "note_off", "time": 75, "note": 68, "velocity": 123, "channel": 0}, {"type": "note_on", "time": 4, "note": 65, "velocity": 104, "channel": 0}, {"type": "note_off", "time": 80, "note": 65, "velocity": 104, "channel": 0}, {"type": "note_on", "time": 47, "note": 60, "velocity": 104, "channel": 0}, {"type": "note_off", "time": 71, "note": 60, "velocity": 104, "channel": 0}, {"type": "note_on", "time": 4, "note": 58, "velocity": 103, "channel": 0}, {"type": "note_off", "time": 84, "note": 58, "velocity": 103, "channel": 0}, {"type": "note_on", "time": 10, "note": 56, "velocity": 101, "channel": 0}, {"type": "note_off", "time": 71, "note": 56, "velocity": 101, "channel": 0}, {"type": "note_on", "time": 10, "note": 57, "velocity": 104, "channel": 0}, {"type": "note_off", "time": 73, "note": 57, "velocity": 104, "channel": 0}, {"type": "note_on", "time": 138, "note": 58, "velocity": 97, "channel": 0}, {"type": "note_off", "time": 82, "note": 58, "velocity": 97, "channel": 0}, {"type": "note_on", "time": 6, "note": 59, "velocity": 104, "channel": 0}, {"type": "note_off", "time": 75, "note": 59, "velocity": 104, "channel": 0}, {"type": "note_on", "time": 19, "note": 60, "velocity": 103, "channel": 0}, {"type": "note_off", "time": 77, "note": 60, "velocity": 103, "channel": 0}, {"type": "note_on", "time": 38, "note": 67, "velocity": 113, "channel": 0}, {"type": "note_off", "time": 75, "note": 67, "velocity": 113, "channel": 0}, {"type": "note_on", "time": 10, "note": 64, "velocity": 100, "channel": 0}, {"type": "note_off", "time": 95, "note": 64, "velocity": 100, "channel": 0}, {"type": "note_on", "time": 8, "note": 60, "velocity": 98, "channel": 0}, {"type": "note_off", "time": 54, "note": 60, "velocity": 98, "channel": 0}, {"type": "note_on", "time": 30, "note": 69, "velocity": 126, "channel": 0}, {"type": "note_off", "time": 56, "note": 69, "velocity": 126, "channel": 0}, {"type": "note_on", "time": 17, "note": 70, "velocity": 116, "channel": 0}, {"type": "note_off", "time": 41, "note": 70, "velocity": 116, "channel": 0}, {"type": "note_on", "time": 2, "note": 69, "velocity": 118, "channel": 0}, {"type": "note_off", "time": 56, "note": 69, "velocity": 118, "channel": 0}, {"type": "note_on", "time": 12, "note": 67, "velocity": 116, "channel": 0}, {"type": "note_off", "time": 101, "note": 67, "velocity": 116, "channel": 0}, {"type": "note_on", "time": 2, "note": 65, "velocity": 113, "channel": 0}, {"type": "note_off", "time": 45, "note": 65, "velocity": 113, "channel": 0}, {"type": "note_on", "time": 12, "note": 66, "velocity": 116, "channel": 0}, {"type": "note_off", "time": 71, "note": 66, "velocity": 116, "channel": 0}, {"type": "note_on", "time": 64, "note": 75, "velocity": 117, "channel": 0}, {"type": "note_off", "time": 90, "note": 75, "velocity": 117, "channel": 0}, {"type": "note_on", "time": 4, "note": 74, "velocity": 117, "channel": 0}, {"type": "note_off", "time": 77, "note": 74, "velocity": 117, "channel": 0}, {"type": "note_on", "time": 10, "note": 72, "velocity": 119, "channel": 0}, {"type": "note_off", "time": 77, "note": 72, "velocity": 119, "channel": 0}, {"type": "note_on", "time": 0, "note": 70, "velocity": 115, "channel": 0}, {"type": "note_off", "time": 71, "note": 70, "velocity": 115, "channel": 0}, {"type": "note_on", "time": 43, "note": 62, "velocity": 105, "channel": 0}, {"type": "note_off", "time": 64, "note": 62, "velocity": 105, "channel": 0}, {"type": "note_on", "time": 17, "note": 67, "velocity": 106, "channel": 0}, {"type": "note_off", "time": 88, "note": 67, "velocity": 106, "channel": 0}, {"type": "note_on", "time": 21, "note": 70, "velocity": 118, "channel": 0}, {"type": "note_off", "time": 75, "note": 70, "velocity": 118, "channel": 0}, {"type": "note_on", "time": 49, "note": 69, "velocity": 96, "channel": 0}, {"type": "note_off", "time": 62, "note": 69, "velocity": 96, "channel": 0}, {"type": "note_on", "time": 36, "note": 67, "velocity": 96, "channel": 0}, {"type": "note_off", "time": 60, "note": 67, "velocity": 96, "channel": 0}, {"type": "note_on", "time": 8, "note": 70, "velocity": 116, "channel": 0}, {"type": "note_off", "time": 62, "note": 70, "velocity": 116, "channel": 0}, {"type": "note_on", "time": 19, "note": 69, "velocity": 85, "channel": 0}, {"type": "note_off", "time": 60, "note": 69, "velocity": 85, "channel": 0}, {"type": "note_on", "time": 23, "note": 67, "velocity": 101, "channel": 0}, {"type": "note_off", "time": 84, "note": 67, "velocity": 101, "channel": 0}, {"type": "note_on", "time": 17, "note": 70, "velocity": 117, "channel": 0}, {"type": "note_off", "time": 93, "note": 70, "velocity": 117, "channel": 0}, {"type": "note_on", "time": 8, "note": 69, "velocity": 102, "channel": 0}, {"type": "note_off", "time": 49, "note": 69, "velocity": 102, "channel": 0}, {"type": "note_on", "time": 41, "note": 67, "velocity": 100, "channel": 0}, {"type": "note_off", "time": 73, "note": 67, "velocity": 100, "channel": 0}, {"type": "note_on", "time": 38, "note": 73, "velocity": 104, "channel": 0}, {"type": "note_off", "time": 64, "note": 73, "velocity": 104, "channel": 0}, {"type": "note_on", "time": 33, "note": 62, "velocity": 84, "channel": 0}, {"type": "note_off", "time": 48, "note": 62, "velocity": 84, "channel": 0}, {"type": "note_on", "time": 19, "note": 67, "velocity": 102, "channel": 0}, {"type": "note_off", "time": 89, "note": 67, "velocity": 102, "channel": 0}, {"type": "note_on", "time": 1, "note": 70, "velocity": 116, "channel": 0}, {"type": "note_off", "time": 82, "note": 70, "velocity": 116, "channel": 0}, {"type": "note_on", "time": 15, "note": 69, "velocity": 98, "channel": 0}, {"type": "note_off", "time": 75, "note": 69, "velocity": 98, "channel": 0}, {"type": "note_on", "time": 6, "note": 67, "velocity": 92, "channel": 0}, {"type": "note_off", "time": 71, "note": 67, "velocity": 92, "channel": 0}, {"type": "note_on", "time": 23, "note": 70, "velocity": 114, "channel": 0}, {"type": "note_off", "time": 84, "note": 70, "velocity": 114, "channel": 0}, {"type": "note_on", "time": 8, "note": 69, "velocity": 101, "channel": 0}, {"type": "note_off", "time": 49, "note": 69, "velocity": 101, "channel": 0}, {"type": "note_on", "time": 10, "note": 62, "velocity": 99, "channel": 0}, {"type": "note_off", "time": 41, "note": 62, "velocity": 99, "channel": 0}, {"type": "note_on", "time": 0, "note": 67, "velocity": 99, "channel": 0}, {"type": "note_off", "time": 73, "note": 67, "velocity": 99, "channel": 0}, {"type": "note_on", "time": 38, "note": 70, "velocity": 119, "channel": 0}, {"type": "note_off", "time": 71, "note": 70, "velocity": 119, "channel": 0}, {"type": "note_on", "time": 17, "note": 69, "velocity": 100, "channel": 0}, {"type": "note_off", "time": 60, "note": 69, "velocity": 100, "channel": 0}, {"type": "note_on", "time": 23, "note": 67, "velocity": 80, "channel": 0}, {"type": "note_off", "time": 73, "note": 67, "velocity": 80, "channel": 0}, {"type": "note_on", "time": 19, "note": 70, "velocity": 114, "channel": 0}, {"type": "note_off", "time": 77, "note": 70, "velocity": 114, "channel": 0}, {"type": "note_on", "time": 2, "note": 69, "velocity": 106, "channel": 0}, {"type": "note_off", "time": 54, "note": 69, "velocity": 106, "channel": 0}, {"type": "note_on", "time": 34, "note": 62, "velocity": 102, "channel": 0}, {"type": "note_off", "time": 51, "note": 62, "velocity": 102, "channel": 0}, {"type": "note_on", "time": 6, "note": 67, "velocity": 102, "channel": 0}, {"type": "note_off", "time": 51, "note": 67, "velocity": 102, "channel": 0}, {"type": "note_on", "time": 6, "note": 70, "velocity": 94, "channel": 0}, {"type": "note_off", "time": 80, "note": 70, "velocity": 94, "channel": 0}, {"type": "note_on", "time": 10, "note": 69, "velocity": 102, "channel": 0}, {"type": "note_off", "time": 93, "note": 69, "velocity": 102, "channel": 0}, {"type": "note_on", "time": 15, "note": 67, "velocity": 92, "channel": 0}, {"type": "note_off", "time": 75, "note": 67, "velocity": 92, "channel": 0}, {"type": "note_on", "time": 34, "note": 69, "velocity": 116, "channel": 0}, {"type": "note_off", "time": 84, "note": 69, "velocity": 116, "channel": 0}, {"type": "note_on", "time": 6, "note": 67, "velocity": 111, "channel": 0}, {"type": "note_off", "time": 73, "note": 67, "velocity": 111, "channel": 0}, {"type": "note_on", "time": 15, "note": 65, "velocity": 105, "channel": 0}, {"type": "note_off", "time": 77, "note": 65, "velocity": 105, "channel": 0}, {"type": "note_on", "time": 517, "note": 74, "velocity": 123, "channel": 0}, {"type": "note_off", "time": 90, "note": 74, "velocity": 123, "channel": 0}, {"type": "note_on", "time": 8, "note": 73, "velocity": 124, "channel": 0}, {"type": "note_off", "time": 77, "note": 73, "velocity": 124, "channel": 0}, {"type": "note_on", "time": 10, "note": 72, "velocity": 123, "channel": 0}, {"type": "note_off", "time": 95, "note": 72, "velocity": 123, "channel": 0}, {"type": "note_on", "time": 8, "note": 71, "velocity": 118, "channel": 0}, {"type": "note_off", "time": 82, "note": 71, "velocity": 118, "channel": 0}, {"type": "note_on", "time": 0, "note": 70, "velocity": 115, "channel": 0}, {"type": "note_off", "time": 64, "note": 70, "velocity": 115, "channel": 0}, {"type": "note_on", "time": 36, "note": 65, "velocity": 105, "channel": 0}, {"type": "note_off", "time": 62, "note": 65, "velocity": 105, "channel": 0}, {"type": "note_on", "time": 10, "note": 61, "velocity": 97, "channel": 0}, {"type": "note_off", "time": 93, "note": 61, "velocity": 97, "channel": 0}, {"type": "note_on", "time": 8, "note": 58, "velocity": 98, "channel": 0}, {"type": "note_off", "time": 60, "note": 58, "velocity": 98, "channel": 0}, {"type": "note_on", "time": 41, "note": 56, "velocity": 97, "channel": 0}, {"type": "note_off", "time": 140, "note": 56, "velocity": 97, "channel": 0}, {"type": "note_on", "time": 19, "note": 57, "velocity": 96, "channel": 0}, {"type": "note_off", "time": 166, "note": 57, "velocity": 96, "channel": 0}, {"type": "note_on", "time": 23, "note": 58, "velocity": 110, "channel": 0}, {"type": "note_off", "time": 93, "note": 58, "velocity": 110, "channel": 0}, {"type": "note_on", "time": 19, "note": 59, "velocity": 101, "channel": 0}, {"type": "note_off", "time": 67, "note": 59, "velocity": 101, "channel": 0}, {"type": "note_on", "time": 4, "note": 60, "velocity": 104, "channel": 0}, {"type": "note_off", "time": 121, "note": 60, "velocity": 104, "channel": 0}, {"type": "note_on", "time": 15, "note": 67, "velocity": 109, "channel": 0}, {"type": "note_off", "time": 103, "note": 67, "velocity": 109, "channel": 0}, {"type": "note_on", "time": 25, "note": 64, "velocity": 88, "channel": 0}, {"type": "note_off", "time": 77, "note": 64, "velocity": 88, "channel": 0}, {"type": "note_on", "time": 12, "note": 60, "velocity": 95, "channel": 0}, {"type": "note_off", "time": 71, "note": 60, "velocity": 95, "channel": 0}, {"type": "note_on", "time": 23, "note": 65, "velocity": 104, "channel": 0}, {"type": "note_off", "time": 75, "note": 65, "velocity": 104, "channel": 0}, {"type": "note_on", "time": 10, "note": 63, "velocity": 103, "channel": 0}, {"type": "note_off", "time": 41, "note": 63, "velocity": 103, "channel": 0}, {"type": "note_on", "time": 19, "note": 65, "velocity": 96, "channel": 0}, {"type": "note_off", "time": 246, "note": 65, "velocity": 96, "channel": 0}, {"type": "note_on", "time": 259, "note": 51, "velocity": 111, "channel": 0}, {"type": "note_off", "time": 88, "note": 51, "velocity": 111, "channel": 0}, {"type": "note_on", "time": 41, "note": 58, "velocity": 103, "channel": 0}, {"type": "note_off", "time": 64, "note": 58, "velocity": 103, "channel": 0}, {"type": "note_on", "time": 17, "note": 61, "velocity": 113, "channel": 0}, {"type": "note_off", "time": 69, "note": 61, "velocity": 113, "channel": 0}, {"type": "note_on", "time": 0, "note": 57, "velocity": 113, "channel": 0}, {"type": "note_off", "time": 88, "note": 57, "velocity": 113, "channel": 0}, {"type": "note_on", "time": 34, "note": 53, "velocity": 98, "channel": 0}, {"type": "note_off", "time": 56, "note": 53, "velocity": 98, "channel": 0}, {"type": "note_on", "time": 21, "note": 55, "velocity": 110, "channel": 0}, {"type": "note_off", "time": 77, "note": 55, "velocity": 110, "channel": 0}, {"type": "note_on", "time": 23, "note": 59, "velocity": 104, "channel": 0}, {"type": "note_off", "time": 62, "note": 59, "velocity": 104, "channel": 0}, {"type": "note_on", "time": 21, "note": 63, "velocity": 110, "channel": 0}, {"type": "note_off", "time": 90, "note": 63, "velocity": 110, "channel": 0}, {"type": "note_on", "time": 32, "note": 67, "velocity": 115, "channel": 0}, {"type": "note_off", "time": 64, "note": 67, "velocity": 115, "channel": 0}, {"type": "note_on", "time": 8, "note": 61, "velocity": 105, "channel": 0}, {"type": "note_off", "time": 88, "note": 61, "velocity": 105, "channel": 0}, {"type": "note_on", "time": 12, "note": 57, "velocity": 97, "channel": 0}, {"type": "note_off", "time": 64, "note": 57, "velocity": 97, "channel": 0}, {"type": "note_on", "time": 21, "note": 59, "velocity": 109, "channel": 0}, {"type": "note_off", "time": 84, "note": 59, "velocity": 109, "channel": 0}, {"type": "note_on", "time": 28, "note": 63, "velocity": 114, "channel": 0}, {"type": "note_off", "time": 67, "note": 63, "velocity": 114, "channel": 0}, {"type": "note_on", "time": 17, "note": 65, "velocity": 111, "channel": 0}, {"type": "note_off", "time": 82, "note": 65, "velocity": 111, "channel": 0}, {"type": "note_on", "time": 34, "note": 69, "velocity": 122, "channel": 0}, {"type": "note_off", "time": 77, "note": 69, "velocity": 122, "channel": 0}, {"type": "note_on", "time": 6, "note": 63, "velocity": 101, "channel": 0}, {"type": "note_off", "time": 86, "note": 63, "velocity": 101, "channel": 0}, {"type": "note_on", "time": 6, "note": 60, "velocity": 94, "channel": 0}, {"type": "note_off", "time": 69, "note": 60, "velocity": 94, "channel": 0}, {"type": "note_on", "time": 30, "note": 67, "velocity": 114, "channel": 0}, {"type": "note_off", "time": 49, "note": 67, "velocity": 114, "channel": 0}, {"type": "note_on", "time": 4, "note": 69, "velocity": 110, "channel": 0}, {"type": "note_off", "time": 25, "note": 69, "velocity": 110, "channel": 0}, {"type": "note_on", "time": 0, "note": 67, "velocity": 111, "channel": 0}, {"type": "note_off", "time": 45, "note": 67, "velocity": 111, "channel": 0}, {"type": "note_on", "time": 0, "note": 66, "velocity": 108, "channel": 0}, {"type": "note_off", "time": 67, "note": 66, "velocity": 108, "channel": 0}, {"type": "note_on", "time": 15, "note": 65, "velocity": 103, "channel": 0}, {"type": "note_off", "time": 97, "note": 65, "velocity": 103, "channel": 0}, {"type": "note_on", "time": 10, "note": 61, "velocity": 107, "channel": 0}, {"type": "note_off", "time": 56, "note": 61, "velocity": 107, "channel": 0}, {"type": "note_on", "time": 10, "note": 57, "velocity": 96, "channel": 0}, {"type": "note_off", "time": 110, "note": 57, "velocity": 96, "channel": 0}, {"type": "note_on", "time": 116, "note": 60, "velocity": 102, "channel": 0}, {"type": "note_off", "time": 73, "note": 60, "velocity": 102, "channel": 0}, {"type": "note_on", "time": 8, "note": 57, "velocity": 95, "channel": 0}, {"type": "note_off", "time": 60, "note": 57, "velocity": 95, "channel": 0}, {"type": "note_on", "time": 12, "note": 58, "velocity": 94, "channel": 0}, {"type": "note_off", "time": 97, "note": 58, "velocity": 94, "channel": 0}, {"type": "note_on", "time": 30, "note": 60, "velocity": 92, "channel": 0}, {"type": "note_off", "time": 56, "note": 60, "velocity": 92, "channel": 0}, {"type": "note_on", "time": 132, "note": 65, "velocity": 99, "channel": 0}, {"type": "note_off", "time": 60, "note": 65, "velocity": 99, "channel": 0}, {"type": "note_on", "time": 12, "note": 69, "velocity": 124, "channel": 0}, {"type": "note_off", "time": 132, "note": 69, "velocity": 124, "channel": 0}, {"type": "note_on", "time": 0, "note": 67, "velocity": 121, "channel": 0}, {"type": "note_off", "time": 67, "note": 67, "velocity": 121, "channel": 0}, {"type": "note_on", "time": 313, "note": 64, "velocity": 107, "channel": 0}, {"type": "note_off", "time": 60, "note": 64, "velocity": 107, "channel": 0}, {"type": "note_on", "time": 15, "note": 65, "velocity": 109, "channel": 0}, {"type": "note_off", "time": 34, "note": 65, "velocity": 109, "channel": 0}, {"type": "note_on", "time": 15, "note": 67, "velocity": 98, "channel": 0}, {"type": "note_off", "time": 45, "note": 67, "velocity": 98, "channel": 0}, {"type": "note_on", "time": 4, "note": 69, "velocity": 106, "channel": 0}, {"type": "note_off", "time": 69, "note": 69, "velocity": 106, "channel": 0}, {"type": "note_on", "time": 17, "note": 76, "velocity": 118, "channel": 0}, {"type": "note_off", "time": 41, "note": 76, "velocity": 118, "channel": 0}, {"type": "note_on", "time": 16, "note": 77, "velocity": 124, "channel": 0}, {"type": "note_off", "time": 59, "note": 77, "velocity": 124, "channel": 0}, {"type": "note_on", "time": 8, "note": 78, "velocity": 122, "channel": 0}, {"type": "note_off", "time": 58, "note": 78, "velocity": 122, "channel": 0}, {"type": "note_on", "time": 2, "note": 79, "velocity": 127, "channel": 0}, {"type": "note_off", "time": 101, "note": 79, "velocity": 127, "channel": 0}, {"type": "note_on", "time": 0, "note": 76, "velocity": 111, "channel": 0}, {"type": "note_off", "time": 88, "note": 76, "velocity": 111, "channel": 0}, {"type": "note_on", "time": 0, "note": 65, "velocity": 105, "channel": 0}, {"type": "note_off", "time": 97, "note": 65, "velocity": 105, "channel": 0}, {"type": "note_on", "time": 12, "note": 62, "velocity": 105, "channel": 0}, {"type": "note_off", "time": 47, "note": 62, "velocity": 105, "channel": 0}, {"type": "note_on", "time": 12, "note": 60, "velocity": 99, "channel": 0}, {"type": "note_off", "time": 54, "note": 60, "velocity": 99, "channel": 0}, {"type": "note_on", "time": 24, "note": 71, "velocity": 109, "channel": 0}, {"type": "note_off", "time": 69, "note": 71, "velocity": 109, "channel": 0}, {"type": "note_on", "time": 21, "note": 69, "velocity": 116, "channel": 0}, {"type": "note_off", "time": 69, "note": 69, "velocity": 116, "channel": 0}, {"type": "note_on", "time": 10, "note": 67, "velocity": 112, "channel": 0}, {"type": "note_off", "time": 82, "note": 67, "velocity": 112, "channel": 0}, {"type": "note_on", "time": 12, "note": 66, "velocity": 110, "channel": 0}, {"type": "note_off", "time": 97, "note": 66, "velocity": 110, "channel": 0}, {"type": "note_on", "time": 6, "note": 65, "velocity": 108, "channel": 0}, {"type": "note_off", "time": 80, "note": 65, "velocity": 108, "channel": 0}, {"type": "note_on", "time": 8, "note": 62, "velocity": 101, "channel": 0}, {"type": "note_off", "time": 75, "note": 62, "velocity": 101, "channel": 0}, {"type": "note_on", "time": 12, "note": 58, "velocity": 104, "channel": 0}, {"type": "note_off", "time": 71, "note": 58, "velocity": 104, "channel": 0}, {"type": "note_on", "time": 126, "note": 60, "velocity": 115, "channel": 0}, {"type": "note_off", "time": 36, "note": 60, "velocity": 115, "channel": 0}, {"type": "note_on", "time": 7, "note": 62, "velocity": 103, "channel": 0}, {"type": "note_off", "time": 30, "note": 62, "velocity": 103, "channel": 0}, {"type": "note_on", "time": 13, "note": 60, "velocity": 96, "channel": 0}, {"type": "note_off", "time": 42, "note": 60, "velocity": 96, "channel": 0}, {"type": "note_on", "time": 21, "note": 57, "velocity": 102, "channel": 0}, {"type": "note_off", "time": 77, "note": 57, "velocity": 102, "channel": 0}, {"type": "note_on", "time": 8, "note": 58, "velocity": 98, "channel": 0}, {"type": "note_off", "time": 71, "note": 58, "velocity": 98, "channel": 0}, {"type": "note_on", "time": 4, "note": 60, "velocity": 99, "channel": 0}, {"type": "note_off", "time": 60, "note": 60, "velocity": 99, "channel": 0}, {"type": "note_on", "time": 12, "note": 62, "velocity": 92, "channel": 0}, {"type": "note_off", "time": 75, "note": 62, "velocity": 92, "channel": 0}, {"type": "note_on", "time": 6, "note": 65, "velocity": 89, "channel": 0}, {"type": "note_off", "time": 77, "note": 65, "velocity": 89, "channel": 0}, {"type": "note_on", "time": 8, "note": 68, "velocity": 108, "channel": 0}, {"type": "note_off", "time": 45, "note": 68, "velocity": 108, "channel": 0}, {"type": "note_on", "time": 12, "note": 69, "velocity": 118, "channel": 0}, {"type": "note_off", "time": 99, "note": 69, "velocity": 118, "channel": 0}, {"type": "note_on", "time": 6, "note": 72, "velocity": 101, "channel": 0}, {"type": "note_off", "time": 231, "note": 72, "velocity": 101, "channel": 0}, {"type": "note_on", "time": 415, "note": 72, "velocity": 116, "channel": 0}, {"type": "note_off", "time": 71, "note": 72, "velocity": 116, "channel": 0}, {"type": "note_on", "time": 21, "note": 72, "velocity": 97, "channel": 0}, {"type": "note_off", "time": 73, "note": 72, "velocity": 97, "channel": 0}, {"type": "note_on", "time": 12, "note": 72, "velocity": 97, "channel": 0}, {"type": "note_off", "time": 77, "note": 72, "velocity": 97, "channel": 0}, {"type": "note_on", "time": 34, "note": 71, "velocity": 119, "channel": 0}, {"type": "note_off", "time": 67, "note": 71, "velocity": 119, "channel": 0}, {"type": "note_on", "time": 4, "note": 72, "velocity": 99, "channel": 0}, {"type": "note_off", "time": 157, "note": 72, "velocity": 99, "channel": 0}, {"type": "note_on", "time": 49, "note": 72, "velocity": 102, "channel": 0}, {"type": "note_off", "time": 71, "note": 72, "velocity": 102, "channel": 0}, {"type": "note_on", "time": 8, "note": 72, "velocity": 97, "channel": 0}, {"type": "note_off", "time": 71, "note": 72, "velocity": 97, "channel": 0}, {"type": "note_on", "time": 15, "note": 72, "velocity": 100, "channel": 0}, {"type": "note_off", "time": 99, "note": 72, "velocity": 100, "channel": 0}, {"type": "note_on", "time": 21, "note": 71, "velocity": 121, "channel": 0}, {"type": "note_off", "time": 47, "note": 71, "velocity": 121, "channel": 0}, {"type": "note_on", "time": 11, "note": 72, "velocity": 106, "channel": 0}, {"type": "note_off", "time": 161, "note": 72, "velocity": 106, "channel": 0}, {"type": "note_on", "time": 30, "note": 72, "velocity": 101, "channel": 0}, {"type": "note_off", "time": 77, "note": 72, "velocity": 101, "channel": 0}, {"type": "note_on", "time": 21, "note": 72, "velocity": 97, "channel": 0}, {"type": "note_off", "time": 82, "note": 72, "velocity": 97, "channel": 0}, {"type": "note_on", "time": 12, "note": 72, "velocity": 96, "channel": 0}, {"type": "note_off", "time": 97, "note": 72, "velocity": 96, "channel": 0}, {"type": "note_on", "time": 43, "note": 71, "velocity": 119, "channel": 0}, {"type": "note_off", "time": 103, "note": 71, "velocity": 119, "channel": 0}, {"type": "note_on", "time": 12, "note": 72, "velocity": 113, "channel": 0}, {"type": "note_off", "time": 119, "note": 72, "velocity": 113, "channel": 0}, {"type": "note_on", "time": 33, "note": 71, "velocity": 114, "channel": 0}, {"type": "note_off", "time": 74, "note": 71, "velocity": 114, "channel": 0}, {"type": "note_on", "time": 10, "note": 72, "velocity": 110, "channel": 0}, {"type": "note_off", "time": 63, "note": 72, "velocity": 110, "channel": 0}, {"type": "note_on", "time": 18, "note": 72, "velocity": 103, "channel": 0}, {"type": "note_off", "time": 38, "note": 72, "velocity": 103, "channel": 0}, {"type": "note_on", "time": 8, "note": 68, "velocity": 107, "channel": 0}, {"type": "note_off", "time": 60, "note": 68, "velocity": 107, "channel": 0}, {"type": "note_on", "time": 12, "note": 65, "velocity": 108, "channel": 0}, {"type": "note_off", "time": 64, "note": 65, "velocity": 108, "channel": 0}, {"type": "note_on", "time": 19, "note": 60, "velocity": 100, "channel": 0}, {"type": "note_off", "time": 143, "note": 60, "velocity": 100, "channel": 0}, {"type": "note_on", "time": 36, "note": 67, "velocity": 111, "channel": 0}, {"type": "note_off", "time": 115, "note": 67, "velocity": 111, "channel": 0}, {"type": "note_on", "time": 15, "note": 65, "velocity": 103, "channel": 0}, {"type": "note_off", "time": 59, "note": 65, "velocity": 103, "channel": 0}, {"type": "note_on", "time": 16, "note": 62, "velocity": 94, "channel": 0}, {"type": "note_off", "time": 63, "note": 62, "velocity": 94, "channel": 0}, {"type": "note_on", "time": 28, "note": 58, "velocity": 105, "channel": 0}, {"type": "note_off", "time": 185, "note": 58, "velocity": 105, "channel": 0}, {"type": "note_on", "time": 74, "note": 60, "velocity": 110, "channel": 0}, {"type": "note_off", "time": 92, "note": 60, "velocity": 110, "channel": 0}, {"type": "note_on", "time": 9, "note": 58, "velocity": 106, "channel": 0}, {"type": "note_off", "time": 63, "note": 58, "velocity": 106, "channel": 0}, {"type": "note_on", "time": 16, "note": 57, "velocity": 104, "channel": 0}, {"type": "note_off", "time": 120, "note": 57, "velocity": 104, "channel": 0}, {"type": "note_on", "time": 15, "note": 60, "velocity": 97, "channel": 0}, {"type": "note_off", "time": 48, "note": 60, "velocity": 97, "channel": 0}, {"type": "note_on", "time": 10, "note": 62, "velocity": 99, "channel": 0}, {"type": "note_off", "time": 114, "note": 62, "velocity": 99, "channel": 0}, {"type": "note_on", "time": 10, "note": 60, "velocity": 93, "channel": 0}, {"type": "note_off", "time": 54, "note": 60, "velocity": 93, "channel": 0}, {"type": "note_on", "time": 28, "note": 65, "velocity": 113, "channel": 0}, {"type": "note_off", "time": 80, "note": 65, "velocity": 113, "channel": 0}, {"type": "note_on", "time": 23, "note": 63, "velocity": 114, "channel": 0}, {"type": "note_off", "time": 71, "note": 63, "velocity": 114, "channel": 0}, {"type": "note_on", "time": 12, "note": 62, "velocity": 98, "channel": 0}, {"type": "note_off", "time": 93, "note": 62, "velocity": 98, "channel": 0}, {"type": "note_on", "time": 8, "note": 60, "velocity": 102, "channel": 0}, {"type": "note_off", "time": 69, "note": 60, "velocity": 102, "channel": 0}, {"type": "note_on", "time": 6, "note": 58, "velocity": 100, "channel": 0}, {"type": "note_off", "time": 80, "note": 58, "velocity": 100, "channel": 0}, {"type": "note_on", "time": 49, "note": 62, "velocity": 94, "channel": 0}, {"type": "note_off", "time": 58, "note": 62, "velocity": 94, "channel": 0}, {"type": "note_on", "time": 15, "note": 67, "velocity": 118, "channel": 0}, {"type": "note_off", "time": 116, "note": 67, "velocity": 118, "channel": 0}, {"type": "note_on", "time": 8, "note": 68, "velocity": 119, "channel": 0}, {"type": "note_off", "time": 64, "note": 68, "velocity": 119, "channel": 0}, {"type": "note_on", "time": 0, "note": 65, "velocity": 109, "channel": 0}, {"type": "note_off", "time": 73, "note": 65, "velocity": 109, "channel": 0}, {"type": "note_on", "time": 19, "note": 61, "velocity": 107, "channel": 0}, {"type": "note_off", "time": 75, "note": 61, "velocity": 107, "channel": 0}, {"type": "note_on", "time": 12, "note": 58, "velocity": 106, "channel": 0}, {"type": "note_off", "time": 64, "note": 58, "velocity": 106, "channel": 0}, {"type": "note_on", "time": 12, "note": 56, "velocity": 103, "channel": 0}, {"type": "note_off", "time": 91, "note": 56, "velocity": 103, "channel": 0}, {"type": "note_on", "time": 9, "note": 57, "velocity": 100, "channel": 0}, {"type": "note_off", "time": 97, "note": 57, "velocity": 100, "channel": 0}, {"type": "note_on", "time": 112, "note": 58, "velocity": 100, "channel": 0}, {"type": "note_off", "time": 103, "note": 58, "velocity": 100, "channel": 0}, {"type": "note_on", "time": 23, "note": 60, "velocity": 99, "channel": 0}, {"type": "note_off", "time": 69, "note": 60, "velocity": 99, "channel": 0}, {"type": "note_on", "time": 113, "note": 67, "velocity": 114, "channel": 0}, {"type": "note_off", "time": 54, "note": 67, "velocity": 114, "channel": 0}, {"type": "note_on", "time": 12, "note": 69, "velocity": 113, "channel": 0}, {"type": "note_off", "time": 424, "note": 69, "velocity": 113, "channel": 0}, {"type": "note_on", "time": 6, "note": 70, "velocity": 110, "channel": 0}, {"type": "note_off", "time": 45, "note": 70, "velocity": 110, "channel": 0}, {"type": "note_on", "time": 10, "note": 69, "velocity": 111, "channel": 0}, {"type": "note_off", "time": 32, "note": 69, "velocity": 111, "channel": 0}, {"type": "note_on", "time": 6, "note": 67, "velocity": 105, "channel": 0}, {"type": "note_off", "time": 34, "note": 67, "velocity": 105, "channel": 0}, {"type": "note_on", "time": 6, "note": 66, "velocity": 97, "channel": 0}, {"type": "note_off", "time": 51, "note": 66, "velocity": 97, "channel": 0}, {"type": "note_on", "time": 0, "note": 63, "velocity": 96, "channel": 0}, {"type": "note_off", "time": 51, "note": 63, "velocity": 96, "channel": 0}, {"type": "note_on", "time": 2, "note": 62, "velocity": 102, "channel": 0}, {"type": "note_off", "time": 49, "note": 62, "velocity": 102, "channel": 0}, {"type": "note_on", "time": 8, "note": 60, "velocity": 116, "channel": 0}, {"type": "note_off", "time": 45, "note": 60, "velocity": 116, "channel": 0}, {"type": "note_on", "time": 2, "note": 58, "velocity": 101, "channel": 0}, {"type": "note_off", "time": 41, "note": 58, "velocity": 101, "channel": 0}, {"type": "note_on", "time": 6, "note": 57, "velocity": 94, "channel": 0}, {"type": "note_off", "time": 51, "note": 57, "velocity": 94, "channel": 0}, {"type": "note_on", "time": 10, "note": 56, "velocity": 91, "channel": 0}, {"type": "note_off", "time": 49, "note": 56, "velocity": 91, "channel": 0}, {"type": "note_on", "time": 10, "note": 55, "velocity": 100, "channel": 0}, {"type": "note_off", "time": 108, "note": 55, "velocity": 100, "channel": 0}, {"type": "end_of_track", "time": 0}]]}