{"ticks_per_beat": 192, "tracks": [[{"type": "track_name", "name": "Melody", "time": 0}, {"type": "set_tempo", "tempo": 226415, "time": 0}, {"type": "key_signature", "key": "Bb", "time": 0}, {"type": "time_signature", "numerator": 4, "denominator": 4, "clocks_per_click": 24, "notated_32nd_notes_per_beat": 8, "time": 0}, {"type": "note_on", "time": 5584, "note": 48, "velocity": 101, "channel": 0}, {"type": "note_off", "time": 100, "note": 48, "velocity": 101, "channel": 0}, {"type": "note_on", "time": 14, "note": 45, "velocity": 97, "channel": 0}, {"type": "note_off", "time": 91, "note": 45, "velocity": 97, "channel": 0}, {"type": "note_on", "time": 9, "note": 46, "velocity": 90, "channel": 0}, {"type": "note_off", "time": 86, "note": 46, "velocity": 90, "channel": 0}, {"type": "note_on", "time": 4, "note": 48, "velocity": 90, "channel": 0}, {"type": "note_off", "time": 78, "note": 48, "velocity": 90, "channel": 0}, {"type": "note_on", "time": 4, "note": 49, "velocity": 100, "channel": 0}, {"type": "note_off", "time": 78, "note": 49, "velocity": 100, "channel": 0}, {"type": "note_on", "time": 0, "note": 50, "velocity": 89, "channel": 0}, {"type": "note_off", "time": 83, "note": 50, "velocity": 89, "channel": 0}, {"type": "note_on", "time": 2, "note": 51, "velocity": 94, "channel": 0}, {"type": "note_off", "time": 103, "note": 51, "velocity": 94, "channel": 0}, {"type": "note_on", "time": 2, "note": 52, "velocity": 89, "channel": 0}, {"type": "note_off", "time": 95, "note": 52, "velocity": 89, "channel": 0}, {"type": "note_on", "time": 11, "note": 53, "velocity": 98, "channel": 0}, {"type": "note_off", "time": 93, "note": 53, "velocity": 98, "channel": 0}, {"type": "note_on", "time": 8, "note": 51, "velocity": 91, "channel": 0}, {"type": "note_off", "time": 89, "note": 51, "velocity": 91, "channel": 0}, {"type": "note_on", "time": 17, "note": 48, "velocity": 89, "channel": 0}, {"type": "note_off", "time": 79, "note": 48, "velocity": 89, "channel": 0}, {"type": "note_on", "time": 5, "note": 49, "velocity": 85, "channel": 0}, {"type": "note_off", "time": 89, "note": 49, "velocity": 85, "channel": 0}, {"type": "note_on", "time": 12, "note": 50, "velocity": 98, "channel": 0}, {"type": "note_off", "time": 105, "note": 50, "velocity": 98, "channel": 0}, {"type": "note_on", "time": 8, "note": 48, "velocity": 97, "channel": 0}, {"type": "note_off", "time": 83, "note": 48, "velocity": 97, "channel": 0}, {"type": "note_on", "time": 17, "note": 47, "velocity": 92, "channel": 0}, {"type": "note_off", "time": 89, "note": 47, "velocity": 92, "channel": 0}, {"type": "note_on", "time": 79, "note": 56, "velocity": 111, "channel": 0}, {"type": "note_off", "time": 110, "note": 56, "velocity": 111, "channel": 0}, {"type": "note_on", "time": 1, "note": 55, "velocity": 107, "channel": 0}, {"type": "note_off", "time": 103, "note": 55, "velocity": 107, "channel": 0}, {"type": "note_on", "time": 1, "note": 53, "velocity": 103, "channel": 0}, {"type": "note_off", "time": 100, "note": 53, "velocity": 103, "channel": 0}, {"type": "note_on", "time": 1, "note": 50, "velocity": 89, "channel": 0}, {"type": "note_off", "time": 62, "note": 50, "velocity": 89, "channel": 0}, {"type": "note_on", "time": 6, "note": 51, "velocity": 87, "channel": 0}, {"type": "note_off", "time": 145, "note": 51, "velocity": 87, "channel": 0}, {"type": "note_on", "time": 36, "note": 55, "velocity": 93, "channel": 0}, {"type": "note_off", "time": 103, "note": 55, "velocity": 93, "channel": 0}, {"type": "note_on", "time": 9, "note": 58, "velocity": 87, "channel": 0}, {"type": "note_off", "time": 81, "note": 58, "velocity": 87, "channel": 0}, {"type": "note_on", "time": 17, "note": 62, "velocity": 111, "channel": 0}, {"type": "note_off", "time": 120, "note": 62, "velocity": 111, "channel": 0}, {"type": "note_on", "time": 4, "note": 61, "velocity": 99, "channel": 0}, {"type": "note_off", "time": 73, "note": 61, "velocity": 99, "channel": 0}, {"type": "note_on", "time": 4, "note": 60, "velocity": 85, "channel": 0}, {"type": "note_off", "time": 71, "note": 60, "velocity": 85, "channel": 0}, {"type": "note_on", "time": 3, "note": 58, "velocity": 98, "channel": 0}, {"type": "note_off", "time": 160, "note": 58, "velocity": 98, "channel": 0}, {"type": "note_on", "time": 20, "note": 55, "velocity": 88, "channel": 0}, {"type": "note_off", "time": 93, "note": 55, "velocity": 88, "channel": 0}, {"type": "note_on", "time": 1, "note": 56, "velocity": 106, "channel": 0}, {"type": "note_off", "time": 83, "note": 56, "velocity": 106, "channel": 0}, {"type": "note_on", "time": 6, "note": 48, "velocity": 93, "channel": 0}, {"type": "note_off", "time": 63, "note": 48, "velocity": 93, "channel": 0}, {"type": "note_on", "time": 30, "note": 51, "velocity": 88, "channel": 0}, {"type": "note_off", "time": 81, "note": 51, "velocity": 88, "channel": 0}, {"type": "note_on", "time": 17, "note": 55, "velocity": 102, "channel": 0}, {"type": "note_off", "time": 98, "note": 55, "velocity": 102, "channel": 0}, {"type": "note_on", "time": 7, "note": 54, "velocity": 99, "channel": 0}, {"type": "note_off", "time": 95, "note": 54, "velocity": 99, "channel": 0}, {"type": "note_on", "time": 7, "note": 50, "velocity": 84, "channel": 0}, {"type": "note_off", "time": 59, "note": 50, "velocity": 84, "channel": 0}, {"type": "note_on", "time": 22, "note": 53, "velocity": 90, "channel": 0}, {"type": "note_off", "time": 88, "note": 53, "velocity": 90, "channel": 0}, {"type": "note_on", "time": 0, "note": 50, "velocity": 95, "channel": 0}, {"type": "note_off", "time": 91, "note": 50, "velocity": 95, "channel": 0}, {"type": "note_on", "time": 2, "note": 51, "velocity": 99, "channel": 0}, {"type": "note_off", "time": 98, "note": 51, "velocity": 99, "channel": 0}, {"type": "note_on", "time": 9, "note": 53, "velocity": 90, "channel": 0}, {"type": "note_off", "time": 68, "note": 53, "velocity": 90, "channel": 0}, {"type": "note_on", "time": 4, "note": 54, "velocity": 89, "channel": 0}, {"type": "note_off", "time": 95, "note": 54, "velocity": 89, "channel": 0}, {"type": "note_on", "time": 2, "note": 56, "velocity": 94, "channel": 0}, {"type": "note_off", "time": 88, "note": 56, "velocity": 94, "channel": 0}, {"type": "note_on", "time": 9, "note": 58, "velocity": 105, "channel": 0}, {"type": "note_off", "time": 115, "note": 58, "velocity": 105, "channel": 0}, {"type": "note_on", "time": 4, "note": 54, "velocity": 96, "channel": 0}, {"type": "note_off", "time": 66, "note": 54, "velocity": 96, "channel": 0}, {"type": "note_on", "time": 12, "note": 53, "velocity": 81, "channel": 0}, {"type": "note_off", "time": 78, "note": 53, "velocity": 81, "channel": 0}, {"type": "note_on", "time": 9, "note": 51, "velocity": 90, "channel": 0}, {"type": "note_off", "time": 91, "note": 51, "velocity": 90, "channel": 0}, {"type": "note_on", "time": 17, "note": 48, "velocity": 84, "channel": 0}, {"type": "note_off", "time": 78, "note": 48, "velocity": 84, "channel": 0}, {"type": "note_on", "time": 4, "note": 49, "velocity": 93, "channel": 0}, {"type": "note_off", "time": 63, "note": 49, "velocity": 93, "channel": 0}, {"type": "note_on", "time": 14, "note": 50, "velocity": 96, "channel": 0}, {"type": "note_off", "time": 93, "note": 50, "velocity": 96, "channel": 0}, {"type": "note_on", "time": 2, "note": 53, "velocity": 93, "channel": 0}, {"type": "note_off", "time": 78, "note": 53, "velocity": 93, "channel": 0}, {"type": "note_on", "time": 0, "note": 52, "velocity": 97, "channel": 0}, {"type": "note_off", "time": 81, "note": 52, "velocity": 97, "channel": 0}, {"type": "note_on", "time": 9, "note": 50, "velocity": 84, "channel": 0}, {"type": "note_off", "time": 100, "note": 50, "velocity": 84, "channel": 0}, {"type": "note_on", "time": 7, "note": 51, "velocity": 88, "channel": 0}, {"type": "note_off", "time": 98, "note": 51, "velocity": 88, "channel": 0}, {"type": "note_on", "time": 7, "note": 53, "velocity": 88, "channel": 0}, {"type": "note_off", "time": 91, "note": 53, "velocity": 88, "channel": 0}, {"type": "note_on", "time": 12, "note": 55, "velocity": 91, "channel": 0}, {"type": "note_off", "time": 83, "note": 55, "velocity": 91, "channel": 0}, {"type": "note_on", "time": 4, "note": 58, "velocity": 74, "channel": 0}, {"type": "note_off", "time": 81, "note": 58, "velocity": 74, "channel": 0}, {"type": "note_on", "time": 14, "note": 62, "velocity": 102, "channel": 0}, {"type": "note_off", "time": 93, "note": 62, "velocity": 102, "channel": 0}, {"type": "note_on", "time": 4, "note": 60, "velocity": 102, "channel": 0}, {"type": "note_off", "time": 93, "note": 60, "velocity": 102, "channel": 0}, {"type": "note_on", "time": 17, "note": 57, "velocity": 84, "channel": 0}, {"type": "note_off", "time": 59, "note": 57, "velocity": 84, "channel": 0}, {"type": "note_on", "time": 14, "note": 53, "velocity": 78, "channel": 0}, {"type": "note_off", "time": 61, "note": 53, "velocity": 78, "channel": 0}, {"type": "note_on", "time": 7, "note": 58, "velocity": 109, "channel": 0}, {"type": "note_off", "time": 108, "note": 58, "velocity": 109, "channel": 0}, {"type": "note_on", "time": 83, "note": 53, "velocity": 84, "channel": 0}, {"type": "note_off", "time": 78, "note": 53, "velocity": 84, "channel": 0}, {"type": "note_on", "time": 22, "note": 55, "velocity": 91, "channel": 0}, {"type": "note_off", "time": 91, "note": 55, "velocity": 91, "channel": 0}, {"type": "note_on", "time": 27, "note": 53, "velocity": 86, "channel": 0}, {"type": "note_off", "time": 137, "note": 53, "velocity": 86, "channel": 0}, {"type": "note_on", "time": 2, "note": 62, "velocity": 109, "channel": 0}, {"type": "note_off", "time": 211, "note": 62, "velocity": 109, "channel": 0}, {"type": "note_on", "time": 0, "note": 53, "velocity": 79, "channel": 0}, {"type": "note_off", "time": 105, "note": 53, "velocity": 79, "channel": 0}, {"type": "note_on", "time": 4, "note": 55, "velocity": 93, "channel": 0}, {"type": "note_off", "time": 86, "note": 55, "velocity": 93, "channel": 0}, {"type": "note_on", "time": 19, "note": 53, "velocity": 81, "channel": 0}, {"type": "note_off", "time": 155, "note": 53, "velocity": 81, "channel": 0}, {"type": "note_on", "time": 9, "note": 63, "velocity": 118, "channel": 0}, {"type": "note_off", "time": 164, "note": 63, "velocity": 118, "channel": 0}, {"type": "note_on", "time": 24, "note": 53, "velocity": 83, "channel": 0}, {"type": "note_off", "time": 110, "note": 53, "velocity": 83, "channel": 0}, {"type": "note_on", "time": 12, "note": 55, "velocity": 91, "channel": 0}, {"type": "note_off", "time": 86, "note": 55, "velocity": 91, "channel": 0}, {"type": "note_on", "time": 7, "note": 53, "velocity": 78, "channel": 0}, {"type": "note_off", "time": 142, "note": 53, "velocity": 78, "channel": 0}, {"type": "note_on", "time": 24, "note": 64, "velocity": 108, "channel": 0}, {"type": "note_off", "time": 199, "note": 64, "velocity": 108, "channel": 0}, {"type": "note_on", "time": 7, "note": 53, "velocity": 88, "channel": 0}, {"type": "note_off", "time": 100, "note": 53, "velocity": 88, "channel": 0}, {"type": "note_on", "time": 19, "note": 55, "velocity": 96, "channel": 0}, {"type": "note_off", "time": 105, "note": 55, "velocity": 96, "channel": 0}, {"type": "note_on", "time": 9, "note": 53, "velocity": 80, "channel": 0}, {"type": "note_off", "time": 123, "note": 53, "velocity": 80, "channel": 0}, {"type": "note_on", "time": 27, "note": 63, "velocity": 102, "channel": 0}, {"type": "note_off", "time": 524, "note": 63, "velocity": 102, "channel": 0}, {"type": "note_on", "time": 68, "note": 62, "velocity": 115, "channel": 0}, {"type": "note_off", "time": 100, "note": 62, "velocity": 115, "channel": 0}, {"type": "note_on", "time": 22, "note": 61, "velocity": 102, "channel": 0}, {"type": "note_off", "time": 83, "note": 61, "velocity": 102, "channel": 0}, {"type": "note_on", "time": 9, "note": 60, "velocity": 89, "channel": 0}, {"type": "note_off", "time": 71, "note": 60, "velocity": 89, "channel": 0}, {"type": "note_on", "time": 9, "note": 58, "velocity": 99, "channel": 0}, {"type": "note_off", "time": 78, "note": 58, "velocity": 99, "channel": 0}, {"type": "note_on", "time": 17, "note": 57, "velocity": 92, "channel": 0}, {"type": "note_off", "time": 78, "note": 57, "velocity": 92, "channel": 0}, {"type": "note_on", "time": 7, "note": 55, "velocity": 88, "channel": 0}, {"type": "note_off", "time": 59, "note": 55, "velocity": 88, "channel": 0}, {"type": "note_on", "time": 4, "note": 56, "velocity": 103, "channel": 0}, {"type": "note_off", "time": 103, "note": 56, "velocity": 103, "channel": 0}, {"type": "note_on", "time": 4, "note": 69, "velocity": 102, "channel": 0}, {"type": "note_off", "time": 145, "note": 69, "velocity": 102, "channel": 0}, {"type": "note_on", "time": 39, "note": 62, "velocity": 102, "channel": 0}, {"type": "note_off", "time": 71, "note": 62, "velocity": 102, "channel": 0}, {"type": "note_on", "time": 14, "note": 65, "velocity": 111, "channel": 0}, {"type": "note_off", "time": 108, "note": 65, "velocity": 111, "channel": 0}, {"type": "note_on", "time": 14, "note": 62, "velocity": 99, "channel": 0}, {"type": "note_off", "time": 68, "note": 62, "velocity": 99, "channel": 0}, {"type": "note_on", "time": 7, "note": 63, "velocity": 102, "channel": 0}, {"type": "note_off", "time": 103, "note": 63, "velocity": 102, "channel": 0}, {"type": "note_on", "time": 0, "note": 65, "velocity": 101, "channel": 0}, {"type": "note_off", "time": 88, "note": 65, "velocity": 101, "channel": 0}, {"type": "note_on", "time": 9, "note": 66, "velocity": 100, "channel": 0}, {"type": "note_off", "time": 100, "note": 66, "velocity": 100, "channel": 0}, {"type": "note_on", "time": 9, "note": 62, "velocity": 99, "channel": 0}, {"type": "note_off", "time": 46, "note": 62, "velocity": 99, "channel": 0}, {"type": "note_on", "time": 2, "note": 65, "velocity": 110, "channel": 0}, {"type": "note_off", "time": 115, "note": 65, "velocity": 110, "channel": 0}, {"type": "note_on", "time": 9, "note": 63, "velocity": 104, "channel": 0}, {"type": "note_off", "time": 76, "note": 63, "velocity": 104, "channel": 0}, {"type": "note_on", "time": 7, "note": 62, "velocity": 94, "channel": 0}, {"type": "note_off", "time": 76, "note": 62, "velocity": 94, "channel": 0}, {"type": "note_on", "time": 0, "note": 60, "velocity": 105, "channel": 0}, {"type": "note_off", "time": 95, "note": 60, "velocity": 105, "channel": 0}, {"type": "note_on", "time": 19, "note": 58, "velocity": 91, "channel": 0}, {"type": "note_off", "time": 81, "note": 58, "velocity": 91, "channel": 0}, {"type": "note_on", "time": 4, "note": 57, "velocity": 86, "channel": 0}, {"type": "note_off", "time": 54, "note": 57, "velocity": 86, "channel": 0}, {"type": "note_on", "time": 22, "note": 58, "velocity": 101, "channel": 0}, {"type": "note_off", "time": 86, "note": 58, "velocity": 101, "channel": 0}, {"type": "note_on", "time": 19, "note": 60, "velocity": 100, "channel": 0}, {"type": "note_off", "time": 108, "note": 60, "velocity": 100, "channel": 0}, {"type": "note_on", "time": 4, "note": 61, "velocity": 81, "channel": 0}, {"type": "note_off", "time": 68, "note": 61, "velocity": 81, "channel": 0}, {"type": "note_on", "time": 0, "note": 62, "velocity": 102, "channel": 0}, {"type": "note_off", "time": 73, "note": 62, "velocity": 102, "channel": 0}, {"type": "note_on", "time": 4, "note": 67, "velocity": 112, "channel": 0}, {"type": "note_off", "time": 100, "note": 67, "velocity": 112, "channel": 0}, {"type": "note_on", "time": 7, "note": 66, "velocity": 109, "channel": 0}, {"type": "note_off", "time": 95, "note": 66, "velocity": 109, "channel": 0}, {"type": "note_on", "time": 0, "note": 65, "velocity": 100, "channel": 0}, {"type": "note_off", "time": 83, "note": 65, "velocity": 100, "channel": 0}, {"type": "note_on", "time": 0, "note": 63, "velocity": 112, "channel": 0}, {"type": "note_off", "time": 88, "note": 63, "velocity": 112, "channel": 0}, {"type": "note_on", "time": 12, "note": 62, "velocity": 108, "channel": 0}, {"type": "note_off", "time": 78, "note": 62, "velocity": 108, "channel": 0}, {"type": "note_on", "time": 7, "note": 60, "velocity": 94, "channel": 0}, {"type": "note_off", "time": 91, "note": 60, "velocity": 94, "channel": 0}, {"type": "note_on", "time": 2, "note": 58, "velocity": 106, "channel": 0}, {"type": "note_off", "time": 91, "note": 58, "velocity": 106, "channel": 0}, {"type": "note_on", "time": 14, "note": 57, "velocity": 99, "channel": 0}, {"type": "note_off", "time": 83, "note": 57, "velocity": 99, "channel": 0}, {"type": "note_on", "time": 9, "note": 55, "velocity": 92, "channel": 0}, {"type": "note_off", "time": 100, "note": 55, "velocity": 92, "channel": 0}, {"type": "note_on", "time": 2, "note": 54, "velocity": 98, "channel": 0}, {"type": "note_off", "time": 83, "note": 54, "velocity": 98, "channel": 0}, {"type": "note_on", "time": 9, "note": 53, "velocity": 93, "channel": 0}, {"type": "note_off", "time": 98, "note": 53, "velocity": 93, "channel": 0}, {"type": "note_on", "time": 0, "note": 45, "velocity": 90, "channel": 0}, {"type": "note_off", "time": 61, "note": 45, "velocity": 90, "channel": 0}, {"type": "note_on", "time": 2, "note": 48, "velocity": 95, "channel": 0}, {"type": "note_off", "time": 91, "note": 48, "velocity": 95, "channel": 0}, {"type": "note_on", "time": 14, "note": 51, "velocity": 99, "channel": 0}, {"type": "note_off", "time": 91, "note": 51, "velocity": 99, "channel": 0}, {"type": "note_on", "time": 7, "note": 48, "velocity": 95, "channel": 0}, {"type": "note_off", "time": 98, "note": 48, "velocity": 95, "channel": 0}, {"type": "note_on", "time": 0, "note": 49, "velocity": 91, "channel": 0}, {"type": "note_off", "time": 76, "note": 49, "velocity": 91, "channel": 0}, {"type": "note_on", "time": 7, "note": 50, "velocity": 107, "channel": 0}, {"type": "note_off", "time": 98, "note": 50, "velocity": 107, "channel": 0}, {"type": "note_on", "time": 12, "note": 48, "velocity": 100, "channel": 0}, {"type": "note_off", "time": 91, "note": 48, "velocity": 100, "channel": 0}, {"type": "note_on", "time": 9, "note": 45, "velocity": 94, "channel": 0}, {"type": "note_off", "time": 100, "note": 45, "velocity": 94, "channel": 0}, {"type": "note_on", "time": 0, "note": 46, "velocity": 88, "channel": 0}, {"type": "note_off", "time": 66, "note": 46, "velocity": 88, "channel": 0}, {"type": "note_on", "time": 9, "note": 47, "velocity": 102, "channel": 0}, {"type": "note_off", "time": 123, "note": 47, "velocity": 102, "channel": 0}, {"type": "note_on", "time": 71, "note": 43, "velocity": 101, "channel": 0}, {"type": "note_off", "time": 115, "note": 43, "velocity": 101, "channel": 0}, {"type": "note_on", "time": 7, "note": 41, "velocity": 101, "channel": 0}, {"type": "note_off", "time": 66, "note": 41, "velocity": 101, "channel": 0}, {"type": "note_on", "time": 614, "note": 36, "velocity": 99, "channel": 0}, {"type": "note_off", "time": 81, "note": 36, "velocity": 99, "channel": 0}, {"type": "note_on", "time": 5, "note": 37, "velocity": 105, "channel": 0}, {"type": "note_off", "time": 91, "note": 37, "velocity": 105, "channel": 0}, {"type": "note_on", "time": 7, "note": 38, "velocity": 107, "channel": 0}, {"type": "note_off", "time": 93, "note": 38, "velocity": 107, "channel": 0}, {"type": "note_on", "time": 6, "note": 47, "velocity": 101, "channel": 0}, {"type": "note_off", "time": 81, "note": 47, "velocity": 101, "channel": 0}, {"type": "note_on", "time": 0, "note": 48, "velocity": 106, "channel": 0}, {"type": "note_off", "time": 73, "note": 48, "velocity": 106, "channel": 0}, {"type": "note_on", "time": 14, "note": 45, "velocity": 95, "channel": 0}, {"type": "note_off", "time": 68, "note": 45, "velocity": 95, "channel": 0}, {"type": "note_on", "time": 4, "note": 47, "velocity": 106, "channel": 0}, {"type": "note_off", "time": 88, "note": 47, "velocity": 106, "channel": 0}, {"type": "note_on", "time": 12, "note": 38, "velocity": 95, "channel": 0}, {"type": "note_off", "time": 81, "note": 38, "velocity": 95, "channel": 0}, {"type": "note_on", "time": 7, "note": 41, "velocity": 113, "channel": 0}, {"type": "note_off", "time": 83, "note": 41, "velocity": 113, "channel": 0}, {"type": "note_on", "time": 9, "note": 44, "velocity": 100, "channel": 0}, {"type": "note_off", "time": 93, "note": 44, "velocity": 100, "channel": 0}, {"type": "note_on", "time": 115, "note": 42, "velocity": 88, "channel": 0}, {"type": "note_off", "time": 63, "note": 42, "velocity": 88, "channel": 0}, {"type": "note_on", "time": 2, "note": 43, "velocity": 121, "channel": 0}, {"type": "note_off", "time": 83, "note": 43, "velocity": 121, "channel": 0}, {"type": "note_on", "time": 2, "note": 41, "velocity": 102, "channel": 0}, {"type": "note_off", "time": 100, "note": 41, "velocity": 102, "channel": 0}, {"type": "note_on", "time": 17, "note": 40, "velocity": 103, "channel": 0}, {"type": "note_off", "time": 113, "note": 40, "velocity": 103, "channel": 0}, {"type": "note_on", "time": 12, "note": 50, "velocity": 99, "channel": 0}, {"type": "note_off", "time": 105, "note": 50, "velocity": 99, "channel": 0}, {"type": "note_on", "time": 68, "note": 45, "velocity": 93, "channel": 0}, {"type": "note_off", "time": 76, "note": 45, "velocity": 93, "channel": 0}, {"type": "note_on", "time": 2, "note": 48, "velocity": 99, "channel": 0}, {"type": "note_off", "time": 118, "note": 48, "velocity": 99, "channel": 0}, {"type": "note_on", "time": 268, "note": 57, "velocity": 113, "channel": 0}, {"type": "note_off", "time": 113, "note": 57, "velocity": 113, "channel": 0}, {"type": "note_on", "time": 9, "note": 54, "velocity": 99, "channel": 0}, {"type": "note_off", "time": 78, "note": 54, "velocity": 99, "channel": 0}, {"type": "note_on", "time": 9, "note": 55, "velocity": 97, "channel": 0}, {"type": "note_off", "time": 98, "note": 55, "velocity": 97, "channel": 0}, {"type": "note_on", "time": 2, "note": 57, "velocity": 99, "channel": 0}, {"type": "note_off", "time": 73, "note": 57, "velocity": 99, "channel": 0}, {"type": "note_on", "time": 4, "note": 58, "velocity": 104, "channel": 0}, {"type": "note_off", "time": 100, "note": 58, "velocity": 104, "channel": 0}, {"type": "note_on", "time": 7, "note": 55, "velocity": 100, "channel": 0}, {"type": "note_off", "time": 93, "note": 55, "velocity": 100, "channel": 0}, {"type": "note_on", "time": 9, "note": 51, "velocity": 104, "channel": 0}, {"type": "note_off", "time": 81, "note": 51, "velocity": 104, "channel": 0}, {"type": "note_on", "time": 4, "note": 48, "velocity": 94, "channel": 0}, {"type": "note_off", "time": 68, "note": 48, "velocity": 94, "channel": 0}, {"type": "note_on", "time": 14, "note": 50, "velocity": 98, "channel": 0}, {"type": "note_off", "time": 287, "note": 50, "velocity": 98, "channel": 0}, {"type": "note_on", "time": 5, "note": 48, "velocity": 96, "channel": 0}, {"type": "note_off", "time": 86, "note": 48, "velocity": 96, "channel": 0}, {"type": "note_on", "time": 14, "note": 47, "velocity": 97, "channel": 0}, {"type": "note_off", "time": 74, "note": 47, "velocity": 97, "channel": 0}, {"type": "note_on", "time": 15, "note": 45, "velocity": 99, "channel": 0}, {"type": "note_off", "time": 103, "note": 45, "velocity": 99, "channel": 0}, {"type": "note_on", "time": 9, "note": 46, "velocity": 106, "channel": 0}, {"type": "note_off", "time": 95, "note": 46, "velocity": 106, "channel": 0}, {"type": "note_on", "time": 0, "note": 54, "velocity": 102, "channel": 0}, {"type": "note_off", "time": 141, "note": 54, "velocity": 102, "channel": 0}, {"type": "note_on", "time": 44, "note": 52, "velocity": 96, "channel": 0}, {"type": "note_off", "time": 100, "note": 52, "velocity": 96, "channel": 0}, {"type": "note_on", "time": 7, "note": 53, "velocity": 98, "channel": 0}, {"type": "note_off", "time": 88, "note": 53, "velocity": 98, "channel": 0}, {"type": "note_on", "time": 9, "note": 51, "velocity": 100, "channel": 0}, {"type": "note_off", "time": 73, "note": 51, "velocity": 100, "channel": 0}, {"type": "note_on", "time": 201, "note": 50, "velocity": 105, "channel": 0}, {"type": "note_off", "time": 113, "note": 50, "velocity": 105, "channel": 0}, {"type": "note_on", "time": 22, "note": 46, "velocity": 99, "channel": 0}, {"type": "note_off", "time": 61, "note": 46, "velocity": 99, "channel": 0}, {"type": "note_on", "time": 14, "note": 45, "velocity": 100, "channel": 0}, {"type": "note_off", "time": 93, "note": 45, "velocity": 100, "channel": 0}, {"type": "note_on", "time": 0, "note": 44, "velocity": 98, "channel": 0}, {"type": "note_off", "time": 100, "note": 44, "velocity": 98, "channel": 0}, {"type": "note_on", "time": 9, "note": 43, "velocity": 100, "channel": 0}, {"type": "note_off", "time": 78, "note": 43, "velocity": 100, "channel": 0}, {"type": "note_on", "time": 9, "note": 42, "velocity": 96, "channel": 0}, {"type": "note_off", "time": 73, "note": 42, "velocity": 96, "channel": 0}, {"type": "note_on", "time": 4, "note": 43, "velocity": 96, "channel": 0}, {"type": "note_off", "time": 88, "note": 43, "velocity": 96, "channel": 0}, {"type": "note_on", "time": 7, "note": 46, "velocity": 90, "channel": 0}, {"type": "note_off", "time": 73, "note": 46, "velocity": 90, "channel": 0}, {"type": "note_on", "time": 0, "note": 43, "velocity": 106, "channel": 0}, {"type": "note_off", "time": 157, "note": 43, "velocity": 106, "channel": 0}, {"type": "note_on", "time": 14, "note": 60, "velocity": 112, "channel": 0}, {"type": "note_off", "time": 115, "note": 60, "velocity": 112, "channel": 0}, {"type": "note_on", "time": 2, "note": 58, "velocity": 109, "channel": 0}, {"type": "note_off", "time": 76, "note": 58, "velocity": 109, "channel": 0}, {"type": "note_on", "time": 4, "note": 57, "velocity": 103, "channel": 0}, {"type": "note_off", "time": 93, "note": 57, "velocity": 103, "channel": 0}, {"type": "note_on", "time": 12, "note": 55, "velocity": 104, "channel": 0}, {"type": "note_off", "time": 115, "note": 55, "velocity": 104, "channel": 0}, {"type": "note_on", "time": 7, "note": 53, "velocity": 96, "channel": 0}, {"type": "note_off", "time": 93, "note": 53, "velocity": 96, "channel": 0}, {"type": "note_on", "time": 9, "note": 51, "velocity": 99, "channel": 0}, {"type": "note_off", "time": 93, "note": 51, "velocity": 99, "channel": 0}, {"type": "note_on", "time": 12, "note": 48, "velocity": 97, "channel": 0}, {"type": "note_off", "time": 91, "note": 48, "velocity": 97, "channel": 0}, {"type": "note_on", "time": 7, "note": 49, "velocity": 86, "channel": 0}, {"type": "note_off", "time": 66, "note": 49, "velocity": 86, "channel": 0}, {"type": "note_on", "time": 14, "note": 50, "velocity": 90, "channel": 0}, {"type": "note_off", "time": 123, "note": 50, "velocity": 90, "channel": 0}, {"type": "note_on", "time": 17, "note": 47, "velocity": 93, "channel": 0}, {"type": "note_off", "time": 115, "note": 47, "velocity": 93, "channel": 0}, {"type": "note_on", "time": 34, "note": 53, "velocity": 101, "channel": 0}, {"type": "note_off", "time": 91, "note": 53, "velocity": 101, "channel": 0}, {"type": "note_on", "time": 9, "note": 52, "velocity": 101, "channel": 0}, {"type": "note_off", "time": 86, "note": 52, "velocity": 101, "channel": 0}, {"type": "note_on", "time": 12, "note": 50, "velocity": 99, "channel": 0}, {"type": "note_off", "time": 95, "note": 50, "velocity": 99, "channel": 0}, {"type": "note_on", "time": 7, "note": 51, "velocity": 100, "channel": 0}, {"type": "note_off", "time": 98, "note": 51, "velocity": 100, "channel": 0}, {"type": "note_on", "time": 17, "note": 43, "velocity": 105, "channel": 0}, {"type": "note_off", "time": 73, "note": 43, "velocity": 105, "channel": 0}, {"type": "note_on", "time": 7, "note": 46, "velocity": 97, "channel": 0}, {"type": "note_off", "time": 93, "note": 46, "velocity": 97, "channel": 0}, {"type": "note_on", "time": 7, "note": 50, "velocity": 98, "channel": 0}, {"type": "note_off", "time": 228, "note": 50, "velocity": 98, "channel": 0}, {"type": "note_on", "time": 39, "note": 48, "velocity": 105, "channel": 0}, {"type": "note_off", "time": 98, "note": 48, "velocity": 105, "channel": 0}, {"type": "note_on", "time": 7, "note": 43, "velocity": 100, "channel": 0}, {"type": "note_off", "time": 76, "note": 43, "velocity": 100, "channel": 0}, {"type": "note_on", "time": 7, "note": 44, "velocity": 101, "channel": 0}, {"type": "note_off", "time": 54, "note": 44, "velocity": 101, "channel": 0}, {"type": "note_on", "time": 9, "note": 48, "velocity": 102, "channel": 0}, {"type": "note_off", "time": 59, "note": 48, "velocity": 102, "channel": 0}, {"type": "note_on", "time": 9, "note": 51, "velocity": 96, "channel": 0}, {"type": "note_off", "time": 63, "note": 51, "velocity": 96, "channel": 0}, {"type": "note_on", "time": 17, "note": 55, "velocity": 111, "channel": 0}, {"type": "note_off", "time": 164, "note": 55, "velocity": 111, "channel": 0}, {"type": "note_on", "time": 12, "note": 58, "velocity": 111, "channel": 0}, {"type": "note_off", "time": 182, "note": 58, "velocity": 111, "channel": 0}, {"type": "note_on", "time": 411, "note": 54, "velocity": 104, "channel": 0}, {"type": "note_off", "time": 172, "note": 54, "velocity": 104, "channel": 0}, {"type": "note_on", "time": 4, "note": 58, "velocity": 109, "channel": 0}, {"type": "note_off", "time": 155, "note": 58, "velocity": 109, "channel": 0}, {"type": "note_on", "time": 14, "note": 54, "velocity": 97, "channel": 0}, {"type": "note_off", "time": 68, "note": 54, "velocity": 97, "channel": 0}, {"type": "note_on", "time": 7, "note": 53, "velocity": 91, "channel": 0}, {"type": "note_off", "time": 86, "note": 53, "velocity": 91, "channel": 0}, {"type": "note_on", "time": 12, "note": 51, "velocity": 93, "channel": 0}, {"type": "note_off", "time": 73, "note": 51, "velocity": 93, "channel": 0}, {"type": "note_on", "time": 12, "note": 48, "velocity": 97, "channel": 0}, {"type": "note_off", "time": 98, "note": 48, "velocity": 97, "channel": 0}, {"type": "note_on", "time": 2, "note": 49, "velocity": 99, "channel": 0}, {"type": "note_off", "time": 61, "note": 49, "velocity": 99, "channel": 0}, {"type": "note_on", "time": 7, "note": 50, "velocity": 102, "channel": 0}, {"type": "note_off", "time": 118, "note": 50, "velocity": 102, "channel": 0}, {"type": "note_on", "time": 9, "note": 53, "velocity": 95, "channel": 0}, {"type": "note_off", "time": 123, "note": 53, "velocity": 95, "channel": 0}, {"type": "note_on", "time": 711, "note": 53, "velocity": 93, "channel": 0}, {"type": "note_off", "time": 130, "note": 53, "velocity": 93, "channel": 0}, {"type": "note_on", "time": 51, "note": 58, "velocity": 105, "channel": 0}, {"type": "note_off", "time": 179, "note": 58, "velocity": 105, "channel": 0}, {"type": "note_on", "time": 12, "note": 57, "velocity": 97, "channel": 0}, {"type": "note_off", "time": 118, "note": 57, "velocity": 97, "channel": 0}, {"type": "note_on", "time": 2, "note": 60, "velocity": 98, "channel": 0}, {"type": "note_off", "time": 191, "note": 60, "velocity": 98, "channel": 0}, {"type": "note_on", "time": 14, "note": 58, "velocity": 98, "channel": 0}, {"type": "note_off", "time": 162, "note": 58, "velocity": 98, "channel": 0}, {"type": "note_on", "time": 81, "note": 53, "velocity": 100, "channel": 0}, {"type": "note_off", "time": 120, "note": 53, "velocity": 100, "channel": 0}, {"type": "note_on", "time": 7, "note": 55, "velocity": 98, "channel": 0}, {"type": "note_off", "time": 49, "note": 55, "velocity": 98, "channel": 0}, {"type": "note_on", "time": 9, "note": 53, "velocity": 98, "channel": 0}, {"type": "note_off", "time": 24, "note": 53, "velocity": 98, "channel": 0}, {"type": "note_on", "time": 4, "note": 52, "velocity": 91, "channel": 0}, {"type": "note_off", "time": 91, "note": 52, "velocity": 91, "channel": 0}, {"type": "note_on", "time": 17, "note": 55, "velocity": 104, "channel": 0}, {"type": "note_off", "time": 142, "note": 55, "velocity": 104, "channel": 0}, {"type": "note_on", "time": 28, "note": 53, "velocity": 98, "channel": 0}, {"type": "note_off", "time": 118, "note": 53, "velocity": 98, "channel": 0}, {"type": "note_on", "time": 65, "note": 51, "velocity": 102, "channel": 0}, {"type": "note_off", "time": 120, "note": 51, "velocity": 102, "channel": 0}, {"type": "note_on", "time": 14, "note": 48, "velocity": 89, "channel": 0}, {"type": "note_off", "time": 86, "note": 48, "velocity": 89, "channel": 0}, {"type": "note_on", "time": 9, "note": 49, "velocity": 98, "channel": 0}, {"type": "note_off", "time": 83, "note": 49, "velocity": 98, "channel": 0}, {"type": "note_on", "time": 12, "note": 50, "velocity": 106, "channel": 0}, {"type": "note_off", "time": 91, "note": 50, "velocity": 106, "channel": 0}, {"type": "note_on", "time": 4, "note": 48, "velocity": 100, "channel": 0}, {"type": "note_off", "time": 73, "note": 48, "velocity": 100, "channel": 0}, {"type": "note_on", "time": 7, "note": 47, "velocity": 92, "channel": 0}, {"type": "note_off", "time": 93, "note": 47, "velocity": 92, "channel": 0}, {"type": "note_on", "time": 14, "note": 56, "velocity": 112, "channel": 0}, {"type": "note_off", "time": 100, "note": 56, "velocity": 112, "channel": 0}, {"type": "note_on", "time": 4, "note": 55, "velocity": 103, "channel": 0}, {"type": "note_off", "time": 91, "note": 55, "velocity": 103, "channel": 0}, {"type": "note_on", "time": 19, "note": 50, "velocity": 90, "channel": 0}, {"type": "note_off", "time": 61, "note": 50, "velocity": 90, "channel": 0}, {"type": "note_on", "time": 14, "note": 53, "velocity": 93, "channel": 0}, {"type": "note_off", "time": 93, "note": 53, "velocity": 93, "channel": 0}, {"type": "note_on", "time": 4, "note": 50, "velocity": 95, "channel": 0}, {"type": "note_off", "time": 78, "note": 50, "velocity": 95, "channel": 0}, {"type": "note_on", "time": 9, "note": 51, "velocity": 90, "channel": 0}, {"type": "note_off", "time": 59, "note": 51, "velocity": 90, "channel": 0}, {"type": "note_on", "time": 0, "note": 55, "velocity": 91, "channel": 0}, {"type": "note_off", "time": 41, "note": 55, "velocity": 91, "channel": 0}, {"type": "note_on", "time": 17, "note": 58, "velocity": 103, "channel": 0}, {"type": "note_off", "time": 54, "note": 58, "velocity": 103, "channel": 0}, {"type": "note_on", "time": 9, "note": 62, "velocity": 116, "channel": 0}, {"type": "note_off", "time": 132, "note": 62, "velocity": 116, "channel": 0}, {"type": "note_on", "time": 0, "note": 61, "velocity": 104, "channel": 0}, {"type": "note_off", "time": 73, "note": 61, "velocity": 104, "channel": 0}, {"type": "note_on", "time": 2, "note": 60, "velocity": 97, "channel": 0}, {"type": "note_off", "time": 83, "note": 60, "velocity": 97, "channel": 0}, {"type": "note_on", "time": 9, "note": 58, "velocity": 106, "channel": 0}, {"type": "note_off", "time": 100, "note": 58, "velocity": 106, "channel": 0}, {"type": "note_on", "time": 17, "note": 57, "velocity": 94, "channel": 0}, {"type": "note_off", "time": 63, "note": 57, "velocity": 94, "channel": 0}, {"type": "note_on", "time": 7, "note": 55, "velocity": 96, "channel": 0}, {"type": "note_off", "time": 73, "note": 55, "velocity": 96, "channel": 0}, {"type": "note_on", "time": 4, "note": 56, "velocity": 104, "channel": 0}, {"type": "note_off", "time": 98, "note": 56, "velocity": 104, "channel": 0}, {"type": "note_on", "time": 19, "note": 60, "velocity": 107, "channel": 0}, {"type": "note_off", "time": 91, "note": 60, "velocity": 107, "channel": 0}, {"type": "note_on", "time": 19, "note": 55, "velocity": 96, "channel": 0}, {"type": "note_off", "time": 98, "note": 55, "velocity": 96, "channel": 0}, {"type": "note_on", "time": 4, "note": 53, "velocity": 88, "channel": 0}, {"type": "note_on", "time": 44, "note": 58, "velocity": 110, "channel": 0}, {"type": "note_off", "time": 0, "note": 53, "velocity": 88, "channel": 0}, {"type": "note_off", "time": 130, "note": 58, "velocity": 110, "channel": 0}, {"type": "note_on", "time": 12, "note": 56, "velocity": 106, "channel": 0}, {"type": "note_off", "time": 123, "note": 56, "velocity": 106, "channel": 0}, {"type": "note_on", "time": 66, "note": 54, "velocity": 90, "channel": 0}, {"type": "note_off", "time": 66, "note": 54, "velocity": 90, "channel": 0}, {"type": "note_on", "time": 2, "note": 55, "velocity": 112, "channel": 0}, {"type": "note_off", "time": 110, "note": 55, "velocity": 112, "channel": 0}, {"type": "note_on", "time": 12, "note": 53, "velocity": 100, "channel": 0}, {"type": "note_off", "time": 88, "note": 53, "velocity": 100, "channel": 0}, {"type": "note_on", "time": 9, "note": 52, "velocity": 94, "channel": 0}, {"type": "note_off", "time": 86, "note": 52, "velocity": 94, "channel": 0}, {"type": "note_on", "time": 2, "note": 55, "velocity": 102, "channel": 0}, {"type": "note_off", "time": 83, "note": 55, "velocity": 102, "channel": 0}, {"type": "note_on", "time": 7, "note": 58, "velocity": 93, "channel": 0}, {"type": "note_off", "time": 81, "note": 58, "velocity": 93, "channel": 0}, {"type": "note_on", "time": 2, "note": 61, "velocity": 108, "channel": 0}, {"type": "note_off", "time": 71, "note": 61, "velocity": 108, "channel": 0}, {"type": "note_on", "time": 22, "note": 62, "velocity": 120, "channel": 0}, {"type": "note_off", "time": 88, "note": 62, "velocity": 120, "channel": 0}, {"type": "note_on", "time": 22, "note": 53, "velocity": 86, "channel": 0}, {"type": "note_off", "time": 241, "note": 53, "velocity": 86, "channel": 0}, {"type": "note_on", "time": 24, "note": 55, "velocity": 111, "channel": 0}, {"type": "note_off", "time": 184, "note": 55, "velocity": 111, "channel": 0}, {"type": "note_on", "time": 905, "note": 61, "velocity": 103, "channel": 0}, {"type": "note_off", "time": 93, "note": 61, "velocity": 103, "channel": 0}, {"type": "note_on", "time": 2, "note": 62, "velocity": 102, "channel": 0}, {"type": "note_off", "time": 93, "note": 62, "velocity": 102, "channel": 0}, {"type": "note_on", "time": 4, "note": 65, "velocity": 111, "channel": 0}, {"type": "note_off", "time": 113, "note": 65, "velocity": 111, "channel": 0}, {"type": "note_on", "time": 2, "note": 60, "velocity": 96, "channel": 0}, {"type": "note_off", "time": 78, "note": 60, "velocity": 96, "channel": 0}, {"type": "note_on", "time": 7, "note": 61, "velocity": 95, "channel": 0}, {"type": "note_off", "time": 73, "note": 61, "velocity": 95, "channel": 0}, {"type": "note_on", "time": 0, "note": 64, "velocity": 105, "channel": 0}, {"type": "note_off", "time": 125, "note": 64, "velocity": 105, "channel": 0}, {"type": "note_on", "time": 4, "note": 59, "velocity": 91, "channel": 0}, {"type": "note_off", "time": 59, "note": 59, "velocity": 91, "channel": 0}, {"type": "note_on", "time": 7, "note": 60, "velocity": 92, "channel": 0}, {"type": "note_off", "time": 100, "note": 60, "velocity": 92, "channel": 0}, {"type": "note_on", "time": 14, "note": 63, "velocity": 115, "channel": 0}, {"type": "note_off", "time": 125, "note": 63, "velocity": 115, "channel": 0}, {"type": "note_on", "time": 12, "note": 58, "velocity": 90, "channel": 0}, {"type": "note_off", "time": 76, "note": 58, "velocity": 90, "channel": 0}, {"type": "note_on", "time": 4, "note": 59, "velocity": 91, "channel": 0}, {"type": "note_off", "time": 66, "note": 59, "velocity": 91, "channel": 0}, {"type": "note_on", "time": 7, "note": 62, "velocity": 110, "channel": 0}, {"type": "note_off", "time": 127, "note": 62, "velocity": 110, "channel": 0}, {"type": "note_on", "time": 9, "note": 57, "velocity": 95, "channel": 0}, {"type": "note_off", "time": 73, "note": 57, "velocity": 95, "channel": 0}, {"type": "note_on", "time": 4, "note": 58, "velocity": 92, "channel": 0}, {"type": "note_off", "time": 83, "note": 58, "velocity": 92, "channel": 0}, {"type": "note_on", "time": 4, "note": 61, "velocity": 102, "channel": 0}, {"type": "note_off", "time": 98, "note": 61, "velocity": 102, "channel": 0}, {"type": "note_on", "time": 4, "note": 56, "velocity": 95, "channel": 0}, {"type": "note_off", "time": 71, "note": 56, "velocity": 95, "channel": 0}, {"type": "note_on", "time": 0, "note": 57, "velocity": 92, "channel": 0}, {"type": "note_off", "time": 76, "note": 57, "velocity": 92, "channel": 0}, {"type": "note_on", "time": 4, "note": 60, "velocity": 100, "channel": 0}, {"type": "note_off", "time": 137, "note": 60, "velocity": 100, "channel": 0}, {"type": "note_on", "time": 236, "note": 59, "velocity": 100, "channel": 0}, {"type": "note_off", "time": 123, "note": 59, "velocity": 100, "channel": 0}, {"type": "note_on", "time": 4, "note": 57, "velocity": 100, "channel": 0}, {"type": "note_off", "time": 95, "note": 57, "velocity": 100, "channel": 0}, {"type": "note_on", "time": 4, "note": 58, "velocity": 101, "channel": 0}, {"type": "note_off", "time": 78, "note": 58, "velocity": 101, "channel": 0}, {"type": "note_on", "time": 14, "note": 55, "velocity": 104, "channel": 0}, {"type": "note_off", "time": 79, "note": 55, "velocity": 104, "channel": 0}, {"type": "note_on", "time": 1, "note": 51, "velocity": 90, "channel": 0}, {"type": "note_off", "time": 88, "note": 51, "velocity": 90, "channel": 0}, {"type": "note_on", "time": 95, "note": 54, "velocity": 104, "channel": 0}, {"type": "note_off", "time": 86, "note": 54, "velocity": 104, "channel": 0}, {"type": "note_on", "time": 2, "note": 56, "velocity": 103, "channel": 0}, {"type": "note_off", "time": 49, "note": 56, "velocity": 103, "channel": 0}, {"type": "note_on", "time": 0, "note": 54, "velocity": 103, "channel": 0}, {"type": "note_off", "time": 54, "note": 54, "velocity": 103, "channel": 0}, {"type": "note_on", "time": 4, "note": 53, "velocity": 96, "channel": 0}, {"type": "note_off", "time": 100, "note": 53, "velocity": 96, "channel": 0}, {"type": "note_on", "time": 9, "note": 51, "velocity": 97, "channel": 0}, {"type": "note_off", "time": 88, "note": 51, "velocity": 97, "channel": 0}, {"type": "note_on", "time": 4, "note": 50, "velocity": 100, "channel": 0}, {"type": "note_off", "time": 93, "note": 50, "velocity": 100, "channel": 0}, {"type": "note_on", "time": 9, "note": 48, "velocity": 94, "channel": 0}, {"type": "note_off", "time": 86, "note": 48, "velocity": 94, "channel": 0}, {"type": "note_on", "time": 12, "note": 46, "velocity": 100, "channel": 0}, {"type": "note_off", "time": 95, "note": 46, "velocity": 100, "channel": 0}, {"type": "note_on", "time": 2, "note": 43, "velocity": 89, "channel": 0}, {"type": "note_off", "time": 73, "note": 43, "velocity": 89, "channel": 0}, {"type": "note_on", "time": 12, "note": 44, "velocity": 98, "channel": 0}, {"type": "note_off", "time": 95, "note": 44, "velocity": 98, "channel": 0}, {"type": "note_on", "time": 4, "note": 46, "velocity": 96, "channel": 0}, {"type": "note_off", "time": 105, "note": 46, "velocity": 96, "channel": 0}, {"type": "note_on", "time": 9, "note": 48, "velocity": 93, "channel": 0}, {"type": "note_off", "time": 91, "note": 48, "velocity": 93, "channel": 0}, {"type": "note_on", "time": 4, "note": 50, "velocity": 98, "channel": 0}, {"type": "note_off", "time": 86, "note": 50, "velocity": 98, "channel": 0}, {"type": "note_on", "time": 4, "note": 55, "velocity": 105, "channel": 0}, {"type": "note_off", "time": 76, "note": 55, "velocity": 105, "channel": 0}, {"type": "note_on", "time": 7, "note": 50, "velocity": 97, "channel": 0}, {"type": "note_off", "time": 66, "note": 50, "velocity": 97, "channel": 0}, {"type": "note_on", "time": 5, "note": 53, "velocity": 97, "channel": 0}, {"type": "note_off", "time": 81, "note": 53, "velocity": 97, "channel": 0}, {"type": "note_on", "time": 3, "note": 50, "velocity": 97, "channel": 0}, {"type": "note_off", "time": 76, "note": 50, "velocity": 97, "channel": 0}, {"type": "note_on", "time": 3, "note": 51, "velocity": 102, "channel": 0}, {"type": "note_off", "time": 77, "note": 51, "velocity": 102, "channel": 0}, {"type": "note_on", "time": 12, "note": 53, "velocity": 89, "channel": 0}, {"type": "note_off", "time": 88, "note": 53, "velocity": 89, "channel": 0}, {"type": "note_on", "time": 5, "note": 54, "velocity": 97, "channel": 0}, {"type": "note_off", "time": 93, "note": 54, "velocity": 97, "channel": 0}, {"type": "note_on", "time": 95, "note": 53, "velocity": 100, "channel": 0}, {"type": "note_off", "time": 86, "note": 53, "velocity": 100, "channel": 0}, {"type": "note_on", "time": 5, "note": 51, "velocity": 99, "channel": 0}, {"type": "note_off", "time": 84, "note": 51, "velocity": 99, "channel": 0}, {"type": "note_on", "time": 10, "note": 50, "velocity": 97, "channel": 0}, {"type": "note_off", "time": 83, "note": 50, "velocity": 97, "channel": 0}, {"type": "note_on", "time": 13, "note": 48, "velocity": 104, "channel": 0}, {"type": "note_off", "time": 83, "note": 48, "velocity": 104, "channel": 0}, {"type": "note_on", "time": 8, "note": 46, "velocity": 107, "channel": 0}, {"type": "note_off", "time": 83, "note": 46, "velocity": 107, "channel": 0}, {"type": "note_on", "time": 8, "note": 45, "velocity": 95, "channel": 0}, {"type": "note_off", "time": 83, "note": 45, "velocity": 95, "channel": 0}, {"type": "note_on", "time": 1, "note": 46, "velocity": 100, "channel": 0}, {"type": "note_off", "time": 86, "note": 46, "velocity": 100, "channel": 0}, {"type": "note_on", "time": 5, "note": 48, "velocity": 96, "channel": 0}, {"type": "note_off", "time": 89, "note": 48, "velocity": 96, "channel": 0}, {"type": "note_on", "time": 6, "note": 50, "velocity": 93, "channel": 0}, {"type": "note_off", "time": 91, "note": 50, "velocity": 93, "channel": 0}, {"type": "note_on", "time": 6, "note": 51, "velocity": 90, "channel": 0}, {"type": "note_off", "time": 95, "note": 51, "velocity": 90, "channel": 0}, {"type": "note_on", "time": 8, "note": 53, "velocity": 98, "channel": 0}, {"type": "note_off", "time": 100, "note": 53, "velocity": 98, "channel": 0}, {"type": "note_on", "time": 15, "note": 48, "velocity": 102, "channel": 0}, {"type": "note_off", "time": 74, "note": 48, "velocity": 102, "channel": 0}, {"type": "note_on", "time": 10, "note": 51, "velocity": 93, "channel": 0}, {"type": "note_off", "time": 77, "note": 51, "velocity": 93, "channel": 0}, {"type": "note_on", "time": 12, "note": 48, "velocity": 91, "channel": 0}, {"type": "note_off", "time": 76, "note": 48, "velocity": 91, "channel": 0}, {"type": "note_on", "time": 13, "note": 46, "velocity": 96, "channel": 0}, {"type": "note_off", "time": 83, "note": 46, "velocity": 96, "channel": 0}, {"type": "note_on", "time": 2, "note": 47, "velocity": 94, "channel": 0}, {"type": "note_off", "time": 64, "note": 47, "velocity": 94, "channel": 0}, {"type": "note_on", "time": 0, "note": 50, "velocity": 92, "channel": 0}, {"type": "note_off", "time": 70, "note": 50, "velocity": 92, "channel": 0}, {"type": "note_on", "time": 62, "note": 54, "velocity": 101, "channel": 0}, {"type": "note_off", "time": 41, "note": 54, "velocity": 101, "channel": 0}, {"type": "note_on", "time": 1, "note": 57, "velocity": 98, "channel": 0}, {"type": "note_off", "time": 53, "note": 57, "velocity": 98, "channel": 0}, {"type": "note_on", "time": 6, "note": 62, "velocity": 115, "channel": 0}, {"type": "note_off", "time": 124, "note": 62, "velocity": 115, "channel": 0}, {"type": "note_on", "time": 5, "note": 59, "velocity": 96, "channel": 0}, {"type": "note_off", "time": 64, "note": 59, "velocity": 96, "channel": 0}, {"type": "note_on", "time": 540, "note": 62, "velocity": 127, "channel": 0}, {"type": "note_off", "time": 147, "note": 62, "velocity": 127, "channel": 0}, {"type": "note_on", "time": 7, "note": 57, "velocity": 103, "channel": 0}, {"type": "note_off", "time": 93, "note": 57, "velocity": 103, "channel": 0}, {"type": "note_on", "time": 67, "note": 54, "velocity": 101, "channel": 0}, {"type": "note_off", "time": 76, "note": 54, "velocity": 101, "channel": 0}, {"type": "note_on", "time": 7, "note": 50, "velocity": 98, "channel": 0}, {"type": "note_off", "time": 140, "note": 50, "velocity": 98, "channel": 0}, {"type": "note_on", "time": 429, "note": 49, "velocity": 107, "channel": 0}, {"type": "note_off", "time": 98, "note": 49, "velocity": 107, "channel": 0}, {"type": "note_on", "time": 9, "note": 50, "velocity": 93, "channel": 0}, {"type": "note_off", "time": 100, "note": 50, "velocity": 93, "channel": 0}, {"type": "note_on", "time": 17, "note": 53, "velocity": 85, "channel": 0}, {"type": "note_off", "time": 83, "note": 53, "velocity": 85, "channel": 0}, {"type": "note_on", "time": 9, "note": 57, "velocity": 85, "channel": 0}, {"type": "note_off", "time": 91, "note": 57, "velocity": 85, "channel": 0}, {"type": "note_on", "time": 7, "note": 60, "velocity": 95, "channel": 0}, {"type": "note_off", "time": 91, "note": 60, "velocity": 95, "channel": 0}, {"type": "note_on", "time": 7, "note": 58, "velocity": 98, "channel": 0}, {"type": "note_off", "time": 66, "note": 58, "velocity": 98, "channel": 0}, {"type": "note_on", "time": 2, "note": 59, "velocity": 103, "channel": 0}, {"type": "note_off", "time": 88, "note": 59, "velocity": 103, "channel": 0}, {"type": "note_on", "time": 17, "note": 50, "velocity": 96, "channel": 0}, {"type": "note_off", "time": 83, "note": 50, "velocity": 96, "channel": 0}, {"type": "note_on", "time": 7, "note": 53, "velocity": 97, "channel": 0}, {"type": "note_off", "time": 81, "note": 53, "velocity": 97, "channel": 0}, {"type": "note_on", "time": 7, "note": 56, "velocity": 116, "channel": 0}, {"type": "note_off", "time": 113, "note": 56, "velocity": 116, "channel": 0}, {"type": "note_on", "time": 7, "note": 53, "velocity": 102, "channel": 0}, {"type": "note_off", "time": 83, "note": 53, "velocity": 102, "channel": 0}, {"type": "note_on", "time": 9, "note": 54, "velocity": 97, "channel": 0}, {"type": "note_off", "time": 66, "note": 54, "velocity": 97, "channel": 0}, {"type": "note_on", "time": 0, "note": 55, "velocity": 115, "channel": 0}, {"type": "note_off", "time": 108, "note": 55, "velocity": 115, "channel": 0}, {"type": "note_on", "time": 12, "note": 53, "velocity": 103, "channel": 0}, {"type": "note_off", "time": 81, "note": 53, "velocity": 103, "channel": 0}, {"type": "note_on", "time": 12, "note": 50, "velocity": 91, "channel": 0}, {"type": "note_off", "time": 78, "note": 50, "velocity": 91, "channel": 0}, {"type": "note_on", "time": 2, "note": 51, "velocity": 91, "channel": 0}, {"type": "note_off", "time": 78, "note": 51, "velocity": 91, "channel": 0}, {"type": "note_on", "time": 4, "note": 52, "velocity": 101, "channel": 0}, {"type": "note_off", "time": 109, "note": 52, "velocity": 101, "channel": 0}, {"type": "note_on", "time": 79, "note": 48, "velocity": 105, "channel": 0}, {"type": "note_off", "time": 114, "note": 48, "velocity": 105, "channel": 0}, {"type": "note_on", "time": 20, "note": 45, "velocity": 98, "channel": 0}, {"type": "note_off", "time": 77, "note": 45, "velocity": 98, "channel": 0}, {"type": "note_on", "time": 189, "note": 57, "velocity": 116, "channel": 0}, {"type": "note_off", "time": 71, "note": 57, "velocity": 116, "channel": 0}, {"type": "note_on", "time": 4, "note": 56, "velocity": 112, "channel": 0}, {"type": "note_off", "time": 68, "note": 56, "velocity": 112, "channel": 0}, {"type": "note_on", "time": 12, "note": 55, "velocity": 101, "channel": 0}, {"type": "note_off", "time": 71, "note": 55, "velocity": 101, "channel": 0}, {"type": "note_on", "time": 7, "note": 54, "velocity": 99, "channel": 0}, {"type": "note_off", "time": 88, "note": 54, "velocity": 99, "channel": 0}, {"type": "note_on", "time": 2, "note": 50, "velocity": 102, "channel": 0}, {"type": "note_off", "time": 172, "note": 50, "velocity": 102, "channel": 0}, {"type": "note_on", "time": 63, "note": 49, "velocity": 109, "channel": 0}, {"type": "note_off", "time": 95, "note": 49, "velocity": 109, "channel": 0}, {"type": "note_on", "time": 19, "note": 51, "velocity": 107, "channel": 0}, {"type": "note_off", "time": 56, "note": 51, "velocity": 107, "channel": 0}, {"type": "note_on", "time": 12, "note": 49, "velocity": 106, "channel": 0}, {"type": "note_off", "time": 49, "note": 49, "velocity": 106, "channel": 0}, {"type": "note_on", "time": 2, "note": 48, "velocity": 98, "channel": 0}, {"type": "note_off", "time": 105, "note": 48, "velocity": 98, "channel": 0}, {"type": "note_on", "time": 2, "note": 46, "velocity": 101, "channel": 0}, {"type": "note_off", "time": 95, "note": 46, "velocity": 101, "channel": 0}, {"type": "note_on", "time": 7, "note": 43, "velocity": 99, "channel": 0}, {"type": "note_off", "time": 71, "note": 43, "velocity": 99, "channel": 0}, {"type": "note_on", "time": 4, "note": 44, "velocity": 95, "channel": 0}, {"type": "note_off", "time": 68, "note": 44, "velocity": 95, "channel": 0}, {"type": "note_on", "time": 4, "note": 45, "velocity": 100, "channel": 0}, {"type": "note_off", "time": 174, "note": 45, "velocity": 100, "channel": 0}, {"type": "note_on", "time": 17, "note": 41, "velocity": 107, "channel": 0}, {"type": "note_off", "time": 123, "note": 41, "velocity": 107, "channel": 0}, {"type": "note_on", "time": 14, "note": 39, "velocity": 106, "channel": 0}, {"type": "note_off", "time": 140, "note": 39, "velocity": 106, "channel": 0}, {"type": "note_on", "time": 17, "note": 39, "velocity": 101, "channel": 0}, {"type": "note_off", "time": 147, "note": 39, "velocity": 101, "channel": 0}, {"type": "note_on", "time": 66, "note": 46, "velocity": 88, "channel": 0}, {"type": "note_off", "time": 54, "note": 46, "velocity": 88, "channel": 0}, {"type": "note_on", "time": 14, "note": 50, "velocity": 106, "channel": 0}, {"type": "note_off", "time": 184, "note": 50, "velocity": 106, "channel": 0}, {"type": "note_on", "time": 17, "note": 48, "velocity": 109, "channel": 0}, {"type": "note_off", "time": 157, "note": 48, "velocity": 109, "channel": 0}, {"type": "note_on", "time": 31, "note": 46, "velocity": 97, "channel": 0}, {"type": "note_off", "time": 172, "note": 46, "velocity": 97, "channel": 0}, {"type": "note_on", "time": 19, "note": 41, "velocity": 102, "channel": 0}, {"type": "note_off", "time": 152, "note": 41, "velocity": 102, "channel": 0}, {"type": "note_on", "time": 41, "note": 43, "velocity": 107, "channel": 0}, {"type": "note_off", "time": 159, "note": 43, "velocity": 107, "channel": 0}, {"type": "note_on", "time": 31, "note": 45, "velocity": 108, "channel": 0}, {"type": "note_off", "time": 184, "note": 45, "velocity": 108, "channel": 0}, {"type": "note_on", "time": 56, "note": 46, "velocity": 94, "channel": 0}, {"type": "note_off", "time": 164, "note": 46, "velocity": 94, "channel": 0}, {"type": "note_on", "time": 19, "note": 48, "velocity": 101, "channel": 0}, {"type": "note_off", "time": 191, "note": 48, "velocity": 101, "channel": 0}, {"type": "note_on", "time": 19, "note": 50, "velocity": 96, "channel": 0}, {"type": "note_off", "time": 189, "note": 50, "velocity": 96, "channel": 0}, {"type": "note_on", "time": 29, "note": 51, "velocity": 96, "channel": 0}, {"type": "note_off", "time": 137, "note": 51, "velocity": 96, "channel": 0}, {"type": "note_on", "time": 41, "note": 53, "velocity": 97, "channel": 0}, {"type": "note_off", "time": 105, "note": 53, "velocity": 97, "channel": 0}, {"type": "note_on", "time": 44, "note": 53, "velocity": 95, "channel": 0}, {"type": "note_off", "time": 110, "note": 53, "velocity": 95, "channel": 0}, {"type": "note_on", "time": 9, "note": 50, "velocity": 94, "channel": 0}, {"type": "note_off", "time": 408, "note": 50, "velocity": 94, "channel": 0}, {"type": "note_on", "time": 78, "note": 51, "velocity": 103, "channel": 0}, {"type": "note_off", "time": 152, "note": 51, "velocity": 103, "channel": 0}, {"type": "note_on", "time": 19, "note": 51, "velocity": 97, "channel": 0}, {"type": "note_off", "time": 108, "note": 51, "velocity": 97, "channel": 0}, {"type": "note_on", "time": 9, "note": 48, "velocity": 9, "channel": 0}, {"type": "note_off", "time": 445, "note": 48, "velocity": 9, "channel": 0}, {"type": "note_on", "time": 49, "note": 50, "velocity": 99, "channel": 0}, {"type": "note_off", "time": 159, "note": 50, "velocity": 99, "channel": 0}, {"type": "note_on", "time": 31, "note": 50, "velocity": 104, "channel": 0}, {"type": "note_off", "time": 108, "note": 50, "velocity": 104, "channel": 0}, {"type": "note_on", "time": 4, "note": 46, "velocity": 105, "channel": 0}, {"type": "note_off", "time": 420, "note": 46, "velocity": 105, "channel": 0}, {"type": "note_on", "time": 231, "note": 46, "velocity": 104, "channel": 0}, {"type": "note_off", "time": 152, "note": 46, "velocity": 104, "channel": 0}, {"type": "note_on", "time": 228, "note": 46, "velocity": 104, "channel": 0}, {"type": "note_off", "time": 152, "note": 46, "velocity": 104, "channel": 0}, {"type": "note_on", "time": 51, "note": 41, "velocity": 100, "channel": 0}, {"type": "note_off", "time": 155, "note": 41, "velocity": 100, "channel": 0}, {"type": "note_on", "time": 29, "note": 45, "velocity": 111, "channel": 0}, {"type": "note_off", "time": 137, "note": 45, "velocity": 111, "channel": 0}, {"type": "note_on", "time": 48, "note": 45, "velocity": 105, "channel": 0}, {"type": "note_off", "time": 162, "note": 45, "velocity": 105, "channel": 0}, {"type": "note_on", "time": 31, "note": 45, "velocity": 122, "channel": 0}, {"type": "note_off", "time": 152, "note": 45, "velocity": 122, "channel": 0}, {"type": "note_on", "time": 8, "note": 46, "velocity": 107, "channel": 0}, {"type": "note_off", "time": 164, "note": 46, "velocity": 107, "channel": 0}, {"type": "note_on", "time": 34, "note": 48, "velocity": 102, "channel": 0}, {"type": "note_off", "time": 177, "note": 48, "velocity": 102, "channel": 0}, {"type": "note_on", "time": 31, "note": 50, "velocity": 90, "channel": 0}, {"type": "note_off", "time": 189, "note": 50, "velocity": 90, "channel": 0}, {"type": "note_on", "time": 29, "note": 51, "velocity": 92, "channel": 0}, {"type": "note_off", "time": 169, "note": 51, "velocity": 92, "channel": 0}, {"type": "note_on", "time": 19, "note": 53, "velocity": 83, "channel": 0}, {"type": "note_off", "time": 179, "note": 53, "velocity": 83, "channel": 0}, {"type": "note_on", "time": 211, "note": 43, "velocity": 101, "channel": 0}, {"type": "note_off", "time": 1127, "note": 43, "velocity": 101, "channel": 0}, {"type": "end_of_track", "time": 0}]]}