{"ticks_per_beat": 192, "tracks": [[{"type": "track_name", "name": "Melody", "time": 0}, {"type": "set_tempo", "tempo": 338983, "time": 0}, {"type": "key_signature", "key": "Bb", "time": 0}, {"type": "time_signature", "numerator": 4, "denominator": 4, "clocks_per_click": 24, "notated_32nd_notes_per_beat": 8, "time": 0}, {"type": "note_on", "time": 3426, "note": 65, "velocity": 111, "channel": 0}, {"type": "note_off", "time": 45, "note": 65, "velocity": 111, "channel": 0}, {"type": "note_on", "time": 29, "note": 65, "velocity": 106, "channel": 0}, {"type": "note_off", "time": 28, "note": 65, "velocity": 106, "channel": 0}, {"type": "note_on", "time": 27, "note": 65, "velocity": 110, "channel": 0}, {"type": "note_off", "time": 41, "note": 65, "velocity": 110, "channel": 0}, {"type": "note_on", "time": 109, "note": 74, "velocity": 116, "channel": 0}, {"type": "note_off", "time": 110, "note": 74, "velocity": 116, "channel": 0}, {"type": "note_on", "time": 52, "note": 74, "velocity": 100, "channel": 0}, {"type": "note_off", "time": 38, "note": 74, "velocity": 100, "channel": 0}, {"type": "note_on", "time": 3, "note": 75, "velocity": 120, "channel": 0}, {"type": "note_off", "time": 96, "note": 75, "velocity": 120, "channel": 0}, {"type": "note_on", "time": 83, "note": 72, "velocity": 117, "channel": 0}, {"type": "note_off", "time": 224, "note": 72, "velocity": 117, "channel": 0}, {"type": "note_on", "time": 672, "note": 65, "velocity": 113, "channel": 0}, {"type": "note_off", "time": 46, "note": 65, "velocity": 113, "channel": 0}, {"type": "note_on", "time": 12, "note": 65, "velocity": 111, "channel": 0}, {"type": "note_off", "time": 27, "note": 65, "velocity": 111, "channel": 0}, {"type": "note_on", "time": 9, "note": 65, "velocity": 101, "channel": 0}, {"type": "note_off", "time": 55, "note": 65, "velocity": 101, "channel": 0}, {"type": "note_on", "time": 32, "note": 71, "velocity": 111, "channel": 0}, {"type": "note_off", "time": 29, "note": 71, "velocity": 111, "channel": 0}, {"type": "note_on", "time": 4, "note": 72, "velocity": 122, "channel": 0}, {"type": "note_off", "time": 213, "note": 72, "velocity": 122, "channel": 0}, {"type": "note_on", "time": 46, "note": 73, "velocity": 113, "channel": 0}, {"type": "note_off", "time": 24, "note": 73, "velocity": 113, "channel": 0}, {"type": "note_on", "time": 4, "note": 74, "velocity": 119, "channel": 0}, {"type": "note_off", "time": 107, "note": 74, "velocity": 119, "channel": 0}, {"type": "note_on", "time": 32, "note": 70, "velocity": 116, "channel": 0}, {"type": "note_off", "time": 238, "note": 70, "velocity": 116, "channel": 0}, {"type": "note_on", "time": 749, "note": 74, "velocity": 116, "channel": 0}, {"type": "note_off", "time": 55, "note": 74, "velocity": 116, "channel": 0}, {"type": "note_on", "time": 6, "note": 75, "velocity": 119, "channel": 0}, {"type": "note_off", "time": 104, "note": 75, "velocity": 119, "channel": 0}, {"type": "note_on", "time": 52, "note": 77, "velocity": 113, "channel": 0}, {"type": "note_off", "time": 46, "note": 77, "velocity": 113, "channel": 0}, {"type": "note_on", "time": 5, "note": 79, "velocity": 120, "channel": 0}, {"type": "note_off", "time": 75, "note": 79, "velocity": 120, "channel": 0}, {"type": "note_on", "time": 102, "note": 72, "velocity": 118, "channel": 0}, {"type": "note_off", "time": 114, "note": 72, "velocity": 118, "channel": 0}, {"type": "note_on", "time": 93, "note": 75, "velocity": 117, "channel": 0}, {"type": "note_off", "time": 91, "note": 75, "velocity": 117, "channel": 0}, {"type": "note_on", "time": 106, "note": 68, "velocity": 109, "channel": 0}, {"type": "note_off", "time": 27, "note": 68, "velocity": 109, "channel": 0}, {"type": "note_on", "time": 2, "note": 69, "velocity": 113, "channel": 0}, {"type": "note_off", "time": 158, "note": 69, "velocity": 113, "channel": 0}, {"type": "note_on", "time": 10, "note": 72, "velocity": 117, "channel": 0}, {"type": "note_off", "time": 89, "note": 72, "velocity": 117, "channel": 0}, {"type": "note_on", "time": 97, "note": 65, "velocity": 111, "channel": 0}, {"type": "note_off", "time": 161, "note": 65, "velocity": 111, "channel": 0}, {"type": "note_on", "time": 34, "note": 67, "velocity": 104, "channel": 0}, {"type": "note_off", "time": 73, "note": 67, "velocity": 104, "channel": 0}, {"type": "note_on", "time": 96, "note": 67, "velocity": 89, "channel": 0}, {"type": "note_off", "time": 22, "note": 67, "velocity": 89, "channel": 0}, {"type": "note_on", "time": 1, "note": 68, "velocity": 111, "channel": 0}, {"type": "note_off", "time": 101, "note": 68, "velocity": 111, "channel": 0}, {"type": "note_on", "time": 39, "note": 70, "velocity": 113, "channel": 0}, {"type": "note_off", "time": 97, "note": 70, "velocity": 113, "channel": 0}, {"type": "note_on", "time": 43, "note": 68, "velocity": 110, "channel": 0}, {"type": "note_off", "time": 69, "note": 68, "velocity": 110, "channel": 0}, {"type": "note_on", "time": 36, "note": 65, "velocity": 110, "channel": 0}, {"type": "note_off", "time": 105, "note": 65, "velocity": 110, "channel": 0}, {"type": "note_on", "time": 92, "note": 65, "velocity": 110, "channel": 0}, {"type": "note_off", "time": 131, "note": 65, "velocity": 110, "channel": 0}, {"type": "note_on", "time": 22, "note": 65, "velocity": 85, "channel": 0}, {"type": "note_off", "time": 540, "note": 65, "velocity": 85, "channel": 0}, {"type": "note_on", "time": 975, "note": 76, "velocity": 119, "channel": 0}, {"type": "note_off", "time": 84, "note": 76, "velocity": 119, "channel": 0}, {"type": "note_on", "time": 25, "note": 77, "velocity": 118, "channel": 0}, {"type": "note_off", "time": 69, "note": 77, "velocity": 118, "channel": 0}, {"type": "note_on", "time": 20, "note": 82, "velocity": 121, "channel": 0}, {"type": "note_off", "time": 87, "note": 82, "velocity": 121, "channel": 0}, {"type": "note_on", "time": 13, "note": 79, "velocity": 124, "channel": 0}, {"type": "note_off", "time": 69, "note": 79, "velocity": 124, "channel": 0}, {"type": "note_on", "time": 29, "note": 77, "velocity": 123, "channel": 0}, {"type": "note_off", "time": 122, "note": 77, "velocity": 123, "channel": 0}, {"type": "note_on", "time": 72, "note": 73, "velocity": 119, "channel": 0}, {"type": "note_off", "time": 59, "note": 73, "velocity": 119, "channel": 0}, {"type": "note_on", "time": 8, "note": 74, "velocity": 112, "channel": 0}, {"type": "note_off", "time": 40, "note": 74, "velocity": 112, "channel": 0}, {"type": "note_on", "time": 3, "note": 77, "velocity": 116, "channel": 0}, {"type": "note_off", "time": 68, "note": 77, "velocity": 116, "channel": 0}, {"type": "note_on", "time": 9, "note": 73, "velocity": 107, "channel": 0}, {"type": "note_off", "time": 39, "note": 73, "velocity": 107, "channel": 0}, {"type": "note_on", "time": 2, "note": 74, "velocity": 118, "channel": 0}, {"type": "note_off", "time": 56, "note": 74, "velocity": 118, "channel": 0}, {"type": "note_on", "time": 10, "note": 70, "velocity": 111, "channel": 0}, {"type": "note_off", "time": 76, "note": 70, "velocity": 111, "channel": 0}, {"type": "note_on", "time": 12, "note": 72, "velocity": 106, "channel": 0}, {"type": "note_off", "time": 179, "note": 72, "velocity": 106, "channel": 0}, {"type": "note_on", "time": 19, "note": 71, "velocity": 108, "channel": 0}, {"type": "note_off", "time": 17, "note": 71, "velocity": 108, "channel": 0}, {"type": "note_on", "time": 2, "note": 72, "velocity": 110, "channel": 0}, {"type": "note_off", "time": 42, "note": 72, "velocity": 110, "channel": 0}, {"type": "note_on", "time": 5, "note": 72, "velocity": 111, "channel": 0}, {"type": "note_off", "time": 73, "note": 72, "velocity": 111, "channel": 0}, {"type": "note_on", "time": 34, "note": 67, "velocity": 92, "channel": 0}, {"type": "note_off", "time": 102, "note": 67, "velocity": 92, "channel": 0}, {"type": "note_on", "time": 64, "note": 67, "velocity": 83, "channel": 0}, {"type": "note_off", "time": 216, "note": 67, "velocity": 83, "channel": 0}, {"type": "note_on", "time": 351, "note": 65, "velocity": 100, "channel": 0}, {"type": "note_off", "time": 27, "note": 65, "velocity": 100, "channel": 0}, {"type": "note_on", "time": 7, "note": 70, "velocity": 114, "channel": 0}, {"type": "note_off", "time": 62, "note": 70, "velocity": 114, "channel": 0}, {"type": "note_on", "time": 5, "note": 72, "velocity": 113, "channel": 0}, {"type": "note_off", "time": 39, "note": 72, "velocity": 113, "channel": 0}, {"type": "note_on", "time": 6, "note": 74, "velocity": 109, "channel": 0}, {"type": "note_off", "time": 75, "note": 74, "velocity": 109, "channel": 0}, {"type": "note_on", "time": 27, "note": 66, "velocity": 109, "channel": 0}, {"type": "note_off", "time": 204, "note": 66, "velocity": 109, "channel": 0}, {"type": "note_on", "time": 82, "note": 67, "velocity": 92, "channel": 0}, {"type": "note_off", "time": 240, "note": 67, "velocity": 92, "channel": 0}, {"type": "note_on", "time": 359, "note": 63, "velocity": 107, "channel": 0}, {"type": "note_off", "time": 43, "note": 63, "velocity": 107, "channel": 0}, {"type": "note_on", "time": 21, "note": 67, "velocity": 104, "channel": 0}, {"type": "note_off", "time": 87, "note": 67, "velocity": 104, "channel": 0}, {"type": "note_on", "time": 110, "note": 68, "velocity": 107, "channel": 0}, {"type": "note_off", "time": 30, "note": 68, "velocity": 107, "channel": 0}, {"type": "note_on", "time": 2, "note": 69, "velocity": 104, "channel": 0}, {"type": "note_off", "time": 73, "note": 69, "velocity": 104, "channel": 0}, {"type": "note_on", "time": 68, "note": 74, "velocity": 117, "channel": 0}, {"type": "note_off", "time": 70, "note": 74, "velocity": 117, "channel": 0}, {"type": "note_on", "time": 58, "note": 65, "velocity": 99, "channel": 0}, {"type": "note_off", "time": 52, "note": 65, "velocity": 99, "channel": 0}, {"type": "note_on", "time": 18, "note": 72, "velocity": 113, "channel": 0}, {"type": "note_off", "time": 92, "note": 72, "velocity": 113, "channel": 0}, {"type": "note_on", "time": 6, "note": 70, "velocity": 114, "channel": 0}, {"type": "note_off", "time": 64, "note": 70, "velocity": 114, "channel": 0}, {"type": "note_on", "time": 34, "note": 70, "velocity": 115, "channel": 0}, {"type": "note_off", "time": 99, "note": 70, "velocity": 115, "channel": 0}, {"type": "note_on", "time": 77, "note": 70, "velocity": 103, "channel": 0}, {"type": "note_off", "time": 214, "note": 70, "velocity": 103, "channel": 0}, {"type": "note_on", "time": 935, "note": 73, "velocity": 107, "channel": 0}, {"type": "note_off", "time": 27, "note": 73, "velocity": 107, "channel": 0}, {"type": "note_on", "time": 2, "note": 74, "velocity": 115, "channel": 0}, {"type": "note_off", "time": 94, "note": 74, "velocity": 115, "channel": 0}, {"type": "note_on", "time": 268, "note": 68, "velocity": 108, "channel": 0}, {"type": "note_off", "time": 30, "note": 68, "velocity": 108, "channel": 0}, {"type": "note_on", "time": 3, "note": 69, "velocity": 110, "channel": 0}, {"type": "note_off", "time": 58, "note": 69, "velocity": 110, "channel": 0}, {"type": "note_on", "time": 8, "note": 71, "velocity": 109, "channel": 0}, {"type": "note_off", "time": 76, "note": 71, "velocity": 109, "channel": 0}, {"type": "note_on", "time": 107, "note": 76, "velocity": 117, "channel": 0}, {"type": "note_off", "time": 83, "note": 76, "velocity": 117, "channel": 0}, {"type": "note_on", "time": 16, "note": 74, "velocity": 118, "channel": 0}, {"type": "note_off", "time": 132, "note": 74, "velocity": 118, "channel": 0}, {"type": "note_on", "time": 182, "note": 74, "velocity": 117, "channel": 0}, {"type": "note_off", "time": 143, "note": 74, "velocity": 117, "channel": 0}, {"type": "note_on", "time": 486, "note": 74, "velocity": 116, "channel": 0}, {"type": "note_off", "time": 108, "note": 74, "velocity": 116, "channel": 0}, {"type": "note_on", "time": 107, "note": 74, "velocity": 114, "channel": 0}, {"type": "note_off", "time": 207, "note": 74, "velocity": 114, "channel": 0}, {"type": "note_on", "time": 53, "note": 76, "velocity": 117, "channel": 0}, {"type": "note_off", "time": 64, "note": 76, "velocity": 117, "channel": 0}, {"type": "note_on", "time": 17, "note": 74, "velocity": 114, "channel": 0}, {"type": "note_off", "time": 88, "note": 74, "velocity": 114, "channel": 0}, {"type": "note_on", "time": 10, "note": 71, "velocity": 105, "channel": 0}, {"type": "note_off", "time": 71, "note": 71, "velocity": 105, "channel": 0}, {"type": "note_on", "time": 5, "note": 69, "velocity": 104, "channel": 0}, {"type": "note_off", "time": 88, "note": 69, "velocity": 104, "channel": 0}, {"type": "note_on", "time": 41, "note": 67, "velocity": 90, "channel": 0}, {"type": "note_off", "time": 150, "note": 67, "velocity": 90, "channel": 0}, {"type": "note_on", "time": 120, "note": 64, "velocity": 101, "channel": 0}, {"type": "note_off", "time": 62, "note": 64, "velocity": 101, "channel": 0}, {"type": "note_on", "time": 26, "note": 67, "velocity": 96, "channel": 0}, {"type": "note_off", "time": 27, "note": 67, "velocity": 96, "channel": 0}, {"type": "note_on", "time": 8, "note": 70, "velocity": 98, "channel": 0}, {"type": "note_off", "time": 30, "note": 70, "velocity": 98, "channel": 0}, {"type": "note_on", "time": 13, "note": 74, "velocity": 115, "channel": 0}, {"type": "note_off", "time": 93, "note": 74, "velocity": 115, "channel": 0}, {"type": "note_on", "time": 16, "note": 70, "velocity": 99, "channel": 0}, {"type": "note_off", "time": 69, "note": 70, "velocity": 99, "channel": 0}, {"type": "note_on", "time": 16, "note": 72, "velocity": 114, "channel": 0}, {"type": "note_off", "time": 79, "note": 72, "velocity": 114, "channel": 0}, {"type": "note_on", "time": 27, "note": 69, "velocity": 105, "channel": 0}, {"type": "note_off", "time": 52, "note": 69, "velocity": 105, "channel": 0}, {"type": "note_on", "time": 3, "note": 70, "velocity": 110, "channel": 0}, {"type": "note_off", "time": 96, "note": 70, "velocity": 110, "channel": 0}, {"type": "note_on", "time": 23, "note": 68, "velocity": 108, "channel": 0}, {"type": "note_off", "time": 60, "note": 68, "velocity": 108, "channel": 0}, {"type": "note_on", "time": 13, "note": 69, "velocity": 98, "channel": 0}, {"type": "note_off", "time": 36, "note": 69, "velocity": 98, "channel": 0}, {"type": "note_on", "time": 1, "note": 70, "velocity": 98, "channel": 0}, {"type": "note_off", "time": 34, "note": 70, "velocity": 98, "channel": 0}, {"type": "note_on", "time": 29, "note": 65, "velocity": 104, "channel": 0}, {"type": "note_off", "time": 76, "note": 65, "velocity": 104, "channel": 0}, {"type": "note_on", "time": 8, "note": 67, "velocity": 99, "channel": 0}, {"type": "note_off", "time": 156, "note": 67, "velocity": 99, "channel": 0}, {"type": "note_on", "time": 28, "note": 63, "velocity": 95, "channel": 0}, {"type": "note_off", "time": 112, "note": 63, "velocity": 95, "channel": 0}, {"type": "note_on", "time": 9, "note": 64, "velocity": 90, "channel": 0}, {"type": "note_off", "time": 220, "note": 64, "velocity": 90, "channel": 0}, {"type": "note_on", "time": 219, "note": 66, "velocity": 103, "channel": 0}, {"type": "note_off", "time": 21, "note": 66, "velocity": 103, "channel": 0}, {"type": "note_on", "time": 6, "note": 67, "velocity": 110, "channel": 0}, {"type": "note_off", "time": 37, "note": 67, "velocity": 110, "channel": 0}, {"type": "note_on", "time": 6, "note": 68, "velocity": 103, "channel": 0}, {"type": "note_off", "time": 36, "note": 68, "velocity": 103, "channel": 0}, {"type": "note_on", "time": 5, "note": 65, "velocity": 98, "channel": 0}, {"type": "note_off", "time": 52, "note": 65, "velocity": 98, "channel": 0}, {"type": "note_on", "time": 4, "note": 66, "velocity": 95, "channel": 0}, {"type": "note_off", "time": 32, "note": 66, "velocity": 95, "channel": 0}, {"type": "note_on", "time": 2, "note": 67, "velocity": 106, "channel": 0}, {"type": "note_off", "time": 58, "note": 67, "velocity": 106, "channel": 0}, {"type": "note_on", "time": 47, "note": 68, "velocity": 105, "channel": 0}, {"type": "note_off", "time": 38, "note": 68, "velocity": 105, "channel": 0}, {"type": "note_on", "time": 6, "note": 69, "velocity": 99, "channel": 0}, {"type": "note_off", "time": 28, "note": 69, "velocity": 99, "channel": 0}, {"type": "note_on", "time": 12, "note": 65, "velocity": 101, "channel": 0}, {"type": "note_off", "time": 50, "note": 65, "velocity": 101, "channel": 0}, {"type": "note_on", "time": 26, "note": 66, "velocity": 97, "channel": 0}, {"type": "note_off", "time": 27, "note": 66, "velocity": 97, "channel": 0}, {"type": "note_on", "time": 4, "note": 67, "velocity": 100, "channel": 0}, {"type": "note_off", "time": 59, "note": 67, "velocity": 100, "channel": 0}, {"type": "note_on", "time": 20, "note": 68, "velocity": 101, "channel": 0}, {"type": "note_off", "time": 91, "note": 68, "velocity": 101, "channel": 0}, {"type": "note_on", "time": 13, "note": 65, "velocity": 101, "channel": 0}, {"type": "note_off", "time": 52, "note": 65, "velocity": 101, "channel": 0}, {"type": "note_on", "time": 13, "note": 66, "velocity": 95, "channel": 0}, {"type": "note_off", "time": 31, "note": 66, "velocity": 95, "channel": 0}, {"type": "note_on", "time": 7, "note": 67, "velocity": 96, "channel": 0}, {"type": "note_off", "time": 88, "note": 67, "velocity": 96, "channel": 0}, {"type": "note_on", "time": 583, "note": 65, "velocity": 99, "channel": 0}, {"type": "note_off", "time": 36, "note": 65, "velocity": 99, "channel": 0}, {"type": "note_on", "time": 4, "note": 65, "velocity": 94, "channel": 0}, {"type": "note_off", "time": 20, "note": 65, "velocity": 94, "channel": 0}, {"type": "note_on", "time": 13, "note": 65, "velocity": 99, "channel": 0}, {"type": "note_off", "time": 33, "note": 65, "velocity": 99, "channel": 0}, {"type": "note_on", "time": 79, "note": 65, "velocity": 96, "channel": 0}, {"type": "note_off", "time": 27, "note": 65, "velocity": 96, "channel": 0}, {"type": "note_on", "time": 18, "note": 65, "velocity": 97, "channel": 0}, {"type": "note_off", "time": 22, "note": 65, "velocity": 97, "channel": 0}, {"type": "note_on", "time": 22, "note": 65, "velocity": 97, "channel": 0}, {"type": "note_off", "time": 25, "note": 65, "velocity": 97, "channel": 0}, {"type": "note_on", "time": 72, "note": 65, "velocity": 79, "channel": 0}, {"type": "note_off", "time": 21, "note": 65, "velocity": 79, "channel": 0}, {"type": "note_on", "time": 14, "note": 65, "velocity": 86, "channel": 0}, {"type": "note_off", "time": 28, "note": 65, "velocity": 86, "channel": 0}, {"type": "note_on", "time": 3, "note": 69, "velocity": 106, "channel": 0}, {"type": "note_off", "time": 31, "note": 69, "velocity": 106, "channel": 0}, {"type": "note_on", "time": 0, "note": 70, "velocity": 109, "channel": 0}, {"type": "note_off", "time": 40, "note": 70, "velocity": 109, "channel": 0}, {"type": "note_on", "time": 41, "note": 72, "velocity": 105, "channel": 0}, {"type": "note_off", "time": 57, "note": 72, "velocity": 105, "channel": 0}, {"type": "note_on", "time": 31, "note": 74, "velocity": 98, "channel": 0}, {"type": "note_off", "time": 69, "note": 74, "velocity": 98, "channel": 0}, {"type": "note_on", "time": 49, "note": 65, "velocity": 99, "channel": 0}, {"type": "note_off", "time": 24, "note": 65, "velocity": 99, "channel": 0}, {"type": "note_on", "time": 5, "note": 65, "velocity": 92, "channel": 0}, {"type": "note_off", "time": 49, "note": 65, "velocity": 92, "channel": 0}, {"type": "note_on", "time": 4, "note": 65, "velocity": 102, "channel": 0}, {"type": "note_off", "time": 43, "note": 65, "velocity": 102, "channel": 0}, {"type": "note_on", "time": 61, "note": 65, "velocity": 90, "channel": 0}, {"type": "note_off", "time": 38, "note": 65, "velocity": 90, "channel": 0}, {"type": "note_on", "time": 3, "note": 65, "velocity": 89, "channel": 0}, {"type": "note_off", "time": 29, "note": 65, "velocity": 89, "channel": 0}, {"type": "note_on", "time": 7, "note": 65, "velocity": 101, "channel": 0}, {"type": "note_off", "time": 57, "note": 65, "velocity": 101, "channel": 0}, {"type": "note_on", "time": 57, "note": 74, "velocity": 97, "channel": 0}, {"type": "note_off", "time": 83, "note": 74, "velocity": 97, "channel": 0}, {"type": "note_on", "time": 7, "note": 72, "velocity": 109, "channel": 0}, {"type": "note_off", "time": 75, "note": 72, "velocity": 109, "channel": 0}, {"type": "note_on", "time": 36, "note": 64, "velocity": 101, "channel": 0}, {"type": "note_off", "time": 58, "note": 64, "velocity": 101, "channel": 0}, {"type": "note_on", "time": 48, "note": 66, "velocity": 90, "channel": 0}, {"type": "note_off", "time": 24, "note": 66, "velocity": 90, "channel": 0}, {"type": "note_on", "time": 147, "note": 70, "velocity": 109, "channel": 0}, {"type": "note_off", "time": 64, "note": 70, "velocity": 109, "channel": 0}, {"type": "note_on", "time": 39, "note": 72, "velocity": 113, "channel": 0}, {"type": "note_off", "time": 63, "note": 72, "velocity": 113, "channel": 0}, {"type": "note_on", "time": 9, "note": 74, "velocity": 114, "channel": 0}, {"type": "note_off", "time": 87, "note": 74, "velocity": 114, "channel": 0}, {"type": "note_on", "time": 20, "note": 77, "velocity": 118, "channel": 0}, {"type": "note_off", "time": 73, "note": 77, "velocity": 118, "channel": 0}, {"type": "note_on", "time": 4, "note": 79, "velocity": 123, "channel": 0}, {"type": "note_off", "time": 96, "note": 79, "velocity": 123, "channel": 0}, {"type": "note_on", "time": 16, "note": 77, "velocity": 114, "channel": 0}, {"type": "note_off", "time": 73, "note": 77, "velocity": 114, "channel": 0}, {"type": "note_on", "time": 9, "note": 79, "velocity": 116, "channel": 0}, {"type": "note_off", "time": 31, "note": 79, "velocity": 116, "channel": 0}, {"type": "note_on", "time": 1, "note": 80, "velocity": 118, "channel": 0}, {"type": "note_off", "time": 45, "note": 80, "velocity": 118, "channel": 0}, {"type": "note_on", "time": 2, "note": 79, "velocity": 100, "channel": 0}, {"type": "note_off", "time": 23, "note": 79, "velocity": 100, "channel": 0}, {"type": "note_on", "time": 5, "note": 77, "velocity": 116, "channel": 0}, {"type": "note_off", "time": 74, "note": 77, "velocity": 116, "channel": 0}, {"type": "note_on", "time": 6, "note": 79, "velocity": 121, "channel": 0}, {"type": "note_off", "time": 144, "note": 79, "velocity": 121, "channel": 0}, {"type": "note_on", "time": 357, "note": 84, "velocity": 99, "channel": 0}, {"type": "note_off", "time": 13, "note": 84, "velocity": 99, "channel": 0}, {"type": "note_on", "time": 1, "note": 85, "velocity": 109, "channel": 0}, {"type": "note_off", "time": 165, "note": 85, "velocity": 109, "channel": 0}, {"type": "note_on", "time": 14, "note": 86, "velocity": 112, "channel": 0}, {"type": "note_off", "time": 63, "note": 86, "velocity": 112, "channel": 0}, {"type": "note_on", "time": 13, "note": 89, "velocity": 117, "channel": 0}, {"type": "note_off", "time": 120, "note": 89, "velocity": 117, "channel": 0}, {"type": "note_on", "time": 89, "note": 75, "velocity": 117, "channel": 0}, {"type": "note_off", "time": 71, "note": 75, "velocity": 117, "channel": 0}, {"type": "note_on", "time": 33, "note": 67, "velocity": 93, "channel": 0}, {"type": "note_off", "time": 60, "note": 67, "velocity": 93, "channel": 0}, {"type": "note_on", "time": 119, "note": 74, "velocity": 114, "channel": 0}, {"type": "note_off", "time": 73, "note": 74, "velocity": 114, "channel": 0}, {"type": "note_on", "time": 22, "note": 72, "velocity": 107, "channel": 0}, {"type": "note_off", "time": 98, "note": 72, "velocity": 107, "channel": 0}, {"type": "note_on", "time": 92, "note": 70, "velocity": 88, "channel": 0}, {"type": "note_off", "time": 69, "note": 70, "velocity": 88, "channel": 0}, {"type": "note_on", "time": 5, "note": 67, "velocity": 87, "channel": 0}, {"type": "note_off", "time": 46, "note": 67, "velocity": 87, "channel": 0}, {"type": "note_on", "time": 14, "note": 62, "velocity": 96, "channel": 0}, {"type": "note_off", "time": 46, "note": 62, "velocity": 96, "channel": 0}, {"type": "note_on", "time": 727, "note": 82, "velocity": 116, "channel": 0}, {"type": "note_off", "time": 1613, "note": 82, "velocity": 116, "channel": 0}, {"type": "note_on", "time": 154, "note": 79, "velocity": 119, "channel": 0}, {"type": "note_off", "time": 101, "note": 79, "velocity": 119, "channel": 0}, {"type": "note_on", "time": 32, "note": 73, "velocity": 101, "channel": 0}, {"type": "note_off", "time": 20, "note": 73, "velocity": 101, "channel": 0}, {"type": "note_on", "time": 9, "note": 75, "velocity": 113, "channel": 0}, {"type": "note_off", "time": 61, "note": 75, "velocity": 113, "channel": 0}, {"type": "note_on", "time": 101, "note": 72, "velocity": 99, "channel": 0}, {"type": "note_off", "time": 226, "note": 72, "velocity": 99, "channel": 0}, {"type": "note_on", "time": 337, "note": 82, "velocity": 121, "channel": 0}, {"type": "note_off", "time": 51, "note": 82, "velocity": 121, "channel": 0}, {"type": "note_on", "time": 27, "note": 81, "velocity": 118, "channel": 0}, {"type": "note_off", "time": 93, "note": 81, "velocity": 118, "channel": 0}, {"type": "note_on", "time": 17, "note": 84, "velocity": 113, "channel": 0}, {"type": "note_off", "time": 65, "note": 84, "velocity": 113, "channel": 0}, {"type": "note_on", "time": 18, "note": 82, "velocity": 118, "channel": 0}, {"type": "note_off", "time": 100, "note": 82, "velocity": 118, "channel": 0}, {"type": "note_on", "time": 96, "note": 73, "velocity": 114, "channel": 0}, {"type": "note_off", "time": 86, "note": 73, "velocity": 114, "channel": 0}, {"type": "note_on", "time": 13, "note": 74, "velocity": 98, "channel": 0}, {"type": "note_off", "time": 50, "note": 74, "velocity": 98, "channel": 0}, {"type": "note_on", "time": 34, "note": 81, "velocity": 118, "channel": 0}, {"type": "note_off", "time": 133, "note": 81, "velocity": 118, "channel": 0}, {"type": "note_on", "time": 56, "note": 73, "velocity": 116, "channel": 0}, {"type": "note_off", "time": 99, "note": 73, "velocity": 116, "channel": 0}, {"type": "note_on", "time": 4, "note": 74, "velocity": 115, "channel": 0}, {"type": "note_off", "time": 57, "note": 74, "velocity": 115, "channel": 0}, {"type": "note_on", "time": 21, "note": 79, "velocity": 107, "channel": 0}, {"type": "note_off", "time": 206, "note": 79, "velocity": 107, "channel": 0}, {"type": "note_on", "time": 130, "note": 77, "velocity": 118, "channel": 0}, {"type": "note_off", "time": 92, "note": 77, "velocity": 118, "channel": 0}, {"type": "note_on", "time": 111, "note": 77, "velocity": 111, "channel": 0}, {"type": "note_off", "time": 88, "note": 77, "velocity": 111, "channel": 0}, {"type": "note_on", "time": 80, "note": 77, "velocity": 113, "channel": 0}, {"type": "note_off", "time": 247, "note": 77, "velocity": 113, "channel": 0}, {"type": "note_on", "time": 20, "note": 75, "velocity": 116, "channel": 0}, {"type": "note_off", "time": 107, "note": 75, "velocity": 116, "channel": 0}, {"type": "note_on", "time": 12, "note": 74, "velocity": 91, "channel": 0}, {"type": "note_off", "time": 60, "note": 74, "velocity": 91, "channel": 0}, {"type": "note_on", "time": 6, "note": 75, "velocity": 117, "channel": 0}, {"type": "note_off", "time": 110, "note": 75, "velocity": 117, "channel": 0}, {"type": "note_on", "time": 9, "note": 77, "velocity": 99, "channel": 0}, {"type": "note_off", "time": 63, "note": 77, "velocity": 99, "channel": 0}, {"type": "note_on", "time": 330, "note": 73, "velocity": 110, "channel": 0}, {"type": "note_off", "time": 84, "note": 73, "velocity": 110, "channel": 0}, {"type": "note_on", "time": 6, "note": 74, "velocity": 113, "channel": 0}, {"type": "note_off", "time": 165, "note": 74, "velocity": 113, "channel": 0}, {"type": "note_on", "time": 15, "note": 77, "velocity": 122, "channel": 0}, {"type": "note_off", "time": 84, "note": 77, "velocity": 122, "channel": 0}, {"type": "note_on", "time": 18, "note": 74, "velocity": 118, "channel": 0}, {"type": "note_off", "time": 70, "note": 74, "velocity": 118, "channel": 0}, {"type": "note_on", "time": 6, "note": 73, "velocity": 117, "channel": 0}, {"type": "note_off", "time": 99, "note": 73, "velocity": 117, "channel": 0}, {"type": "note_on", "time": 11, "note": 72, "velocity": 113, "channel": 0}, {"type": "note_off", "time": 234, "note": 72, "velocity": 113, "channel": 0}, {"type": "note_on", "time": 34, "note": 70, "velocity": 111, "channel": 0}, {"type": "note_off", "time": 94, "note": 70, "velocity": 111, "channel": 0}, {"type": "note_on", "time": 9, "note": 69, "velocity": 98, "channel": 0}, {"type": "note_off", "time": 36, "note": 69, "velocity": 98, "channel": 0}, {"type": "note_on", "time": 62, "note": 70, "velocity": 98, "channel": 0}, {"type": "note_off", "time": 233, "note": 70, "velocity": 98, "channel": 0}, {"type": "note_on", "time": 287, "note": 80, "velocity": 117, "channel": 0}, {"type": "note_off", "time": 97, "note": 80, "velocity": 117, "channel": 0}, {"type": "note_on", "time": 79, "note": 80, "velocity": 122, "channel": 0}, {"type": "note_off", "time": 107, "note": 80, "velocity": 122, "channel": 0}, {"type": "note_on", "time": 90, "note": 80, "velocity": 123, "channel": 0}, {"type": "note_off", "time": 137, "note": 80, "velocity": 123, "channel": 0}, {"type": "note_on", "time": 60, "note": 77, "velocity": 84, "channel": 0}, {"type": "note_off", "time": 52, "note": 77, "velocity": 84, "channel": 0}, {"type": "note_on", "time": 14, "note": 80, "velocity": 120, "channel": 0}, {"type": "note_off", "time": 100, "note": 80, "velocity": 120, "channel": 0}, {"type": "note_on", "time": 12, "note": 80, "velocity": 121, "channel": 0}, {"type": "note_off", "time": 64, "note": 80, "velocity": 121, "channel": 0}, {"type": "note_on", "time": 16, "note": 77, "velocity": 10, "channel": 0}, {"type": "note_off", "time": 101, "note": 77, "velocity": 10, "channel": 0}, {"type": "note_on", "time": 6, "note": 80, "velocity": 120, "channel": 0}, {"type": "note_off", "time": 65, "note": 80, "velocity": 120, "channel": 0}, {"type": "note_on", "time": 16, "note": 79, "velocity": 116, "channel": 0}, {"type": "note_off", "time": 232, "note": 79, "velocity": 116, "channel": 0}, {"type": "note_on", "time": 79, "note": 78, "velocity": 116, "channel": 0}, {"type": "note_off", "time": 115, "note": 78, "velocity": 116, "channel": 0}, {"type": "note_on", "time": 60, "note": 77, "velocity": 113, "channel": 0}, {"type": "note_off", "time": 150, "note": 77, "velocity": 113, "channel": 0}, {"type": "note_on", "time": 38, "note": 73, "velocity": 89, "channel": 0}, {"type": "note_off", "time": 68, "note": 73, "velocity": 89, "channel": 0}, {"type": "note_on", "time": 28, "note": 75, "velocity": 111, "channel": 0}, {"type": "note_off", "time": 52, "note": 75, "velocity": 111, "channel": 0}, {"type": "note_on", "time": 21, "note": 77, "velocity": 118, "channel": 0}, {"type": "note_off", "time": 76, "note": 77, "velocity": 118, "channel": 0}, {"type": "note_on", "time": 16, "note": 79, "velocity": 121, "channel": 0}, {"type": "note_off", "time": 113, "note": 79, "velocity": 121, "channel": 0}, {"type": "note_on", "time": 102, "note": 82, "velocity": 119, "channel": 0}, {"type": "note_off", "time": 110, "note": 82, "velocity": 119, "channel": 0}, {"type": "note_on", "time": 943, "note": 78, "velocity": 108, "channel": 0}, {"type": "note_off", "time": 50, "note": 78, "velocity": 108, "channel": 0}, {"type": "note_on", "time": 10, "note": 80, "velocity": 113, "channel": 0}, {"type": "note_off", "time": 28, "note": 80, "velocity": 113, "channel": 0}, {"type": "note_on", "time": 8, "note": 81, "velocity": 115, "channel": 0}, {"type": "note_off", "time": 62, "note": 81, "velocity": 115, "channel": 0}, {"type": "note_on", "time": 52, "note": 74, "velocity": 89, "channel": 0}, {"type": "note_off", "time": 32, "note": 74, "velocity": 89, "channel": 0}, {"type": "note_on", "time": 36, "note": 82, "velocity": 119, "channel": 0}, {"type": "note_off", "time": 89, "note": 82, "velocity": 119, "channel": 0}, {"type": "note_on", "time": 69, "note": 84, "velocity": 116, "channel": 0}, {"type": "note_off", "time": 47, "note": 84, "velocity": 116, "channel": 0}, {"type": "note_on", "time": 8, "note": 82, "velocity": 117, "channel": 0}, {"type": "note_off", "time": 234, "note": 82, "velocity": 117, "channel": 0}, {"type": "note_on", "time": 49, "note": 86, "velocity": 125, "channel": 0}, {"type": "note_off", "time": 157, "note": 86, "velocity": 125, "channel": 0}, {"type": "note_on", "time": 597, "note": 74, "velocity": 93, "channel": 0}, {"type": "note_off", "time": 37, "note": 74, "velocity": 93, "channel": 0}, {"type": "note_on", "time": 20, "note": 80, "velocity": 100, "channel": 0}, {"type": "note_off", "time": 138, "note": 80, "velocity": 100, "channel": 0}, {"type": "note_on", "time": 13, "note": 82, "velocity": 109, "channel": 0}, {"type": "note_off", "time": 783, "note": 82, "velocity": 109, "channel": 0}, {"type": "note_on", "time": 979, "note": 74, "velocity": 114, "channel": 0}, {"type": "note_off", "time": 330, "note": 74, "velocity": 114, "channel": 0}, {"type": "note_on", "time": 89, "note": 86, "velocity": 124, "channel": 0}, {"type": "note_off", "time": 223, "note": 86, "velocity": 124, "channel": 0}, {"type": "note_on", "time": 32, "note": 85, "velocity": 117, "channel": 0}, {"type": "note_off", "time": 64, "note": 85, "velocity": 117, "channel": 0}, {"type": "note_on", "time": 10, "note": 84, "velocity": 120, "channel": 0}, {"type": "note_off", "time": 116, "note": 84, "velocity": 120, "channel": 0}, {"type": "note_on", "time": 88, "note": 83, "velocity": 122, "channel": 0}, {"type": "note_off", "time": 126, "note": 83, "velocity": 122, "channel": 0}, {"type": "note_on", "time": 53, "note": 82, "velocity": 118, "channel": 0}, {"type": "note_off", "time": 145, "note": 82, "velocity": 118, "channel": 0}, {"type": "note_on", "time": 48, "note": 81, "velocity": 123, "channel": 0}, {"type": "note_off", "time": 123, "note": 81, "velocity": 123, "channel": 0}, {"type": "note_on", "time": 64, "note": 74, "velocity": 106, "channel": 0}, {"type": "note_off", "time": 98, "note": 74, "velocity": 106, "channel": 0}, {"type": "note_on", "time": 26, "note": 81, "velocity": 122, "channel": 0}, {"type": "note_off", "time": 55, "note": 81, "velocity": 122, "channel": 0}, {"type": "note_on", "time": 23, "note": 81, "velocity": 117, "channel": 0}, {"type": "note_off", "time": 106, "note": 81, "velocity": 117, "channel": 0}, {"type": "note_on", "time": 13, "note": 71, "velocity": 89, "channel": 0}, {"type": "note_off", "time": 37, "note": 71, "velocity": 89, "channel": 0}, {"type": "note_on", "time": 21, "note": 81, "velocity": 114, "channel": 0}, {"type": "note_off", "time": 355, "note": 81, "velocity": 114, "channel": 0}, {"type": "note_on", "time": 796, "note": 72, "velocity": 116, "channel": 0}, {"type": "note_off", "time": 276, "note": 72, "velocity": 116, "channel": 0}, {"type": "note_on", "time": 67, "note": 79, "velocity": 103, "channel": 0}, {"type": "note_off", "time": 40, "note": 79, "velocity": 103, "channel": 0}, {"type": "note_on", "time": 15, "note": 84, "velocity": 114, "channel": 0}, {"type": "note_off", "time": 246, "note": 84, "velocity": 114, "channel": 0}, {"type": "note_on", "time": 8, "note": 83, "velocity": 116, "channel": 0}, {"type": "note_off", "time": 67, "note": 83, "velocity": 116, "channel": 0}, {"type": "note_on", "time": 4, "note": 82, "velocity": 122, "channel": 0}, {"type": "note_off", "time": 146, "note": 82, "velocity": 122, "channel": 0}, {"type": "note_on", "time": 57, "note": 81, "velocity": 121, "channel": 0}, {"type": "note_off", "time": 112, "note": 81, "velocity": 121, "channel": 0}, {"type": "note_on", "time": 93, "note": 80, "velocity": 119, "channel": 0}, {"type": "note_off", "time": 113, "note": 80, "velocity": 119, "channel": 0}, {"type": "note_on", "time": 60, "note": 79, "velocity": 118, "channel": 0}, {"type": "note_off", "time": 104, "note": 79, "velocity": 118, "channel": 0}, {"type": "note_on", "time": 89, "note": 72, "velocity": 107, "channel": 0}, {"type": "note_off", "time": 66, "note": 72, "velocity": 107, "channel": 0}, {"type": "note_on", "time": 32, "note": 76, "velocity": 109, "channel": 0}, {"type": "note_off", "time": 53, "note": 76, "velocity": 109, "channel": 0}, {"type": "note_on", "time": 0, "note": 79, "velocity": 104, "channel": 0}, {"type": "note_off", "time": 30, "note": 79, "velocity": 104, "channel": 0}, {"type": "note_on", "time": 12, "note": 79, "velocity": 119, "channel": 0}, {"type": "note_off", "time": 104, "note": 79, "velocity": 119, "channel": 0}, {"type": "note_on", "time": 86, "note": 79, "velocity": 107, "channel": 0}, {"type": "note_off", "time": 191, "note": 79, "velocity": 107, "channel": 0}, {"type": "note_on", "time": 490, "note": 68, "velocity": 96, "channel": 0}, {"type": "note_off", "time": 20, "note": 68, "velocity": 96, "channel": 0}, {"type": "note_on", "time": 7, "note": 72, "velocity": 100, "channel": 0}, {"type": "note_off", "time": 30, "note": 72, "velocity": 100, "channel": 0}, {"type": "note_on", "time": 1, "note": 75, "velocity": 104, "channel": 0}, {"type": "note_off", "time": 23, "note": 75, "velocity": 104, "channel": 0}, {"type": "note_on", "time": 4, "note": 77, "velocity": 119, "channel": 0}, {"type": "note_off", "time": 60, "note": 77, "velocity": 119, "channel": 0}, {"type": "note_on", "time": 13, "note": 79, "velocity": 114, "channel": 0}, {"type": "note_off", "time": 31, "note": 79, "velocity": 114, "channel": 0}, {"type": "note_on", "time": 2, "note": 80, "velocity": 105, "channel": 0}, {"type": "note_off", "time": 30, "note": 80, "velocity": 105, "channel": 0}, {"type": "note_on", "time": 17, "note": 82, "velocity": 119, "channel": 0}, {"type": "note_off", "time": 90, "note": 82, "velocity": 119, "channel": 0}, {"type": "note_on", "time": 37, "note": 86, "velocity": 125, "channel": 0}, {"type": "note_off", "time": 100, "note": 86, "velocity": 125, "channel": 0}, {"type": "note_on", "time": 78, "note": 86, "velocity": 127, "channel": 0}, {"type": "note_off", "time": 115, "note": 86, "velocity": 127, "channel": 0}, {"type": "note_on", "time": 492, "note": 73, "velocity": 101, "channel": 0}, {"type": "note_off", "time": 30, "note": 73, "velocity": 101, "channel": 0}, {"type": "note_on", "time": 3, "note": 74, "velocity": 103, "channel": 0}, {"type": "note_off", "time": 21, "note": 74, "velocity": 103, "channel": 0}, {"type": "note_on", "time": 8, "note": 78, "velocity": 113, "channel": 0}, {"type": "note_off", "time": 102, "note": 78, "velocity": 113, "channel": 0}, {"type": "note_on", "time": 5, "note": 81, "velocity": 104, "channel": 0}, {"type": "note_off", "time": 67, "note": 81, "velocity": 104, "channel": 0}, {"type": "note_on", "time": 6, "note": 83, "velocity": 113, "channel": 0}, {"type": "note_off", "time": 111, "note": 83, "velocity": 113, "channel": 0}, {"type": "note_on", "time": 7, "note": 86, "velocity": 120, "channel": 0}, {"type": "note_off", "time": 100, "note": 86, "velocity": 120, "channel": 0}, {"type": "note_on", "time": 84, "note": 86, "velocity": 118, "channel": 0}, {"type": "note_off", "time": 184, "note": 86, "velocity": 118, "channel": 0}, {"type": "note_on", "time": 76, "note": 82, "velocity": 116, "channel": 0}, {"type": "note_off", "time": 132, "note": 82, "velocity": 116, "channel": 0}, {"type": "note_on", "time": 628, "note": 89, "velocity": 102, "channel": 0}, {"type": "note_off", "time": 20, "note": 89, "velocity": 102, "channel": 0}, {"type": "note_on", "time": 4, "note": 90, "velocity": 81, "channel": 0}, {"type": "note_off", "time": 563, "note": 90, "velocity": 81, "channel": 0}, {"type": "note_on", "time": 9, "note": 85, "velocity": 111, "channel": 0}, {"type": "note_off", "time": 43, "note": 85, "velocity": 111, "channel": 0}, {"type": "note_on", "time": 89, "note": 83, "velocity": 120, "channel": 0}, {"type": "note_off", "time": 83, "note": 83, "velocity": 120, "channel": 0}, {"type": "note_on", "time": 76, "note": 81, "velocity": 117, "channel": 0}, {"type": "note_off", "time": 27, "note": 81, "velocity": 117, "channel": 0}, {"type": "note_on", "time": 1, "note": 83, "velocity": 90, "channel": 0}, {"type": "note_off", "time": 210, "note": 83, "velocity": 90, "channel": 0}, {"type": "note_on", "time": 324, "note": 78, "velocity": 100, "channel": 0}, {"type": "note_off", "time": 27, "note": 78, "velocity": 100, "channel": 0}, {"type": "note_on", "time": 32, "note": 84, "velocity": 120, "channel": 0}, {"type": "note_off", "time": 71, "note": 84, "velocity": 120, "channel": 0}, {"type": "note_on", "time": 9, "note": 83, "velocity": 98, "channel": 0}, {"type": "note_off", "time": 42, "note": 83, "velocity": 98, "channel": 0}, {"type": "note_on", "time": 4, "note": 82, "velocity": 121, "channel": 0}, {"type": "note_off", "time": 46, "note": 82, "velocity": 121, "channel": 0}, {"type": "note_on", "time": 9, "note": 82, "velocity": 118, "channel": 0}, {"type": "note_off", "time": 103, "note": 82, "velocity": 118, "channel": 0}, {"type": "note_on", "time": 96, "note": 82, "velocity": 120, "channel": 0}, {"type": "note_off", "time": 118, "note": 82, "velocity": 120, "channel": 0}, {"type": "note_on", "time": 63, "note": 82, "velocity": 122, "channel": 0}, {"type": "note_off", "time": 102, "note": 82, "velocity": 122, "channel": 0}, {"type": "note_on", "time": 11, "note": 82, "velocity": 111, "channel": 0}, {"type": "note_off", "time": 322, "note": 82, "velocity": 111, "channel": 0}, {"type": "note_on", "time": 127, "note": 82, "velocity": 107, "channel": 0}, {"type": "note_off", "time": 124, "note": 82, "velocity": 107, "channel": 0}, {"type": "note_on", "time": 68, "note": 82, "velocity": 114, "channel": 0}, {"type": "note_off", "time": 193, "note": 82, "velocity": 114, "channel": 0}, {"type": "note_on", "time": 141, "note": 82, "velocity": 115, "channel": 0}, {"type": "note_off", "time": 70, "note": 82, "velocity": 115, "channel": 0}, {"type": "note_on", "time": 179, "note": 82, "velocity": 95, "channel": 0}, {"type": "note_off", "time": 24, "note": 82, "velocity": 95, "channel": 0}, {"type": "note_on", "time": 5, "note": 83, "velocity": 123, "channel": 0}, {"type": "note_off", "time": 60, "note": 83, "velocity": 123, "channel": 0}, {"type": "note_on", "time": 12, "note": 85, "velocity": 118, "channel": 0}, {"type": "note_off", "time": 68, "note": 85, "velocity": 118, "channel": 0}, {"type": "note_on", "time": 11, "note": 83, "velocity": 121, "channel": 0}, {"type": "note_off", "time": 113, "note": 83, "velocity": 121, "channel": 0}, {"type": "note_on", "time": 73, "note": 83, "velocity": 123, "channel": 0}, {"type": "note_off", "time": 119, "note": 83, "velocity": 123, "channel": 0}, {"type": "end_of_track", "time": 0}]]}