{"ticks_per_beat": 192, "tracks": [[{"type": "track_name", "name": "Melody", "time": 0}, {"type": "set_tempo", "tempo": 252100, "time": 0}, {"type": "key_signature", "key": "Ab", "time": 0}, {"type": "time_signature", "numerator": 4, "denominator": 4, "clocks_per_click": 24, "notated_32nd_notes_per_beat": 8, "time": 0}, {"type": "note_on", "time": 2678, "note": 77, "velocity": 104, "channel": 0}, {"type": "note_off", "time": 105, "note": 77, "velocity": 104, "channel": 0}, {"type": "note_on", "time": 83, "note": 77, "velocity": 113, "channel": 0}, {"type": "note_off", "time": 83, "note": 77, "velocity": 113, "channel": 0}, {"type": "note_on", "time": 96, "note": 77, "velocity": 108, "channel": 0}, {"type": "note_off", "time": 121, "note": 77, "velocity": 108, "channel": 0}, {"type": "note_on", "time": 99, "note": 77, "velocity": 112, "channel": 0}, {"type": "note_off", "time": 90, "note": 77, "velocity": 112, "channel": 0}, {"type": "note_on", "time": 108, "note": 79, "velocity": 114, "channel": 0}, {"type": "note_off", "time": 174, "note": 79, "velocity": 114, "channel": 0}, {"type": "note_on", "time": 1756, "note": 77, "velocity": 115, "channel": 0}, {"type": "note_off", "time": 83, "note": 77, "velocity": 115, "channel": 0}, {"type": "note_on", "time": 55, "note": 79, "velocity": 114, "channel": 0}, {"type": "note_off", "time": 105, "note": 79, "velocity": 114, "channel": 0}, {"type": "note_on", "time": 21, "note": 77, "velocity": 118, "channel": 0}, {"type": "note_off", "time": 96, "note": 77, "velocity": 118, "channel": 0}, {"type": "note_on", "time": 106, "note": 77, "velocity": 110, "channel": 0}, {"type": "note_off", "time": 442, "note": 77, "velocity": 110, "channel": 0}, {"type": "note_on", "time": 59, "note": 74, "velocity": 110, "channel": 0}, {"type": "note_off", "time": 137, "note": 74, "velocity": 110, "channel": 0}, {"type": "note_on", "time": 79, "note": 72, "velocity": 102, "channel": 0}, {"type": "note_off", "time": 72, "note": 72, "velocity": 102, "channel": 0}, {"type": "note_on", "time": 0, "note": 70, "velocity": 95, "channel": 0}, {"type": "note_off", "time": 92, "note": 70, "velocity": 95, "channel": 0}, {"type": "note_on", "time": 8, "note": 68, "velocity": 93, "channel": 0}, {"type": "note_off", "time": 119, "note": 68, "velocity": 93, "channel": 0}, {"type": "note_on", "time": 0, "note": 70, "velocity": 105, "channel": 0}, {"type": "note_off", "time": 101, "note": 70, "velocity": 105, "channel": 0}, {"type": "note_on", "time": 4, "note": 68, "velocity": 107, "channel": 0}, {"type": "note_off", "time": 84, "note": 68, "velocity": 107, "channel": 0}, {"type": "note_on", "time": 19, "note": 67, "velocity": 101, "channel": 0}, {"type": "note_off", "time": 108, "note": 67, "velocity": 101, "channel": 0}, {"type": "note_on", "time": 26, "note": 65, "velocity": 98, "channel": 0}, {"type": "note_off", "time": 86, "note": 65, "velocity": 98, "channel": 0}, {"type": "note_on", "time": 22, "note": 64, "velocity": 107, "channel": 0}, {"type": "note_off", "time": 46, "note": 64, "velocity": 107, "channel": 0}, {"type": "note_on", "time": 11, "note": 63, "velocity": 101, "channel": 0}, {"type": "note_off", "time": 77, "note": 63, "velocity": 101, "channel": 0}, {"type": "note_on", "time": 15, "note": 62, "velocity": 103, "channel": 0}, {"type": "note_off", "time": 57, "note": 62, "velocity": 103, "channel": 0}, {"type": "note_on", "time": 4, "note": 63, "velocity": 127, "channel": 0}, {"type": "note_off", "time": 24, "note": 63, "velocity": 127, "channel": 0}, {"type": "note_on", "time": 0, "note": 64, "velocity": 110, "channel": 0}, {"type": "note_off", "time": 44, "note": 64, "velocity": 110, "channel": 0}, {"type": "note_on", "time": 2, "note": 65, "velocity": 95, "channel": 0}, {"type": "note_off", "time": 154, "note": 65, "velocity": 95, "channel": 0}, {"type": "note_on", "time": 4, "note": 62, "velocity": 86, "channel": 0}, {"type": "note_off", "time": 81, "note": 62, "velocity": 86, "channel": 0}, {"type": "note_on", "time": 0, "note": 63, "velocity": 93, "channel": 0}, {"type": "note_off", "time": 110, "note": 63, "velocity": 93, "channel": 0}, {"type": "note_on", "time": 6, "note": 60, "velocity": 97, "channel": 0}, {"type": "note_off", "time": 70, "note": 60, "velocity": 97, "channel": 0}, {"type": "note_on", "time": 4, "note": 62, "velocity": 91, "channel": 0}, {"type": "note_off", "time": 302, "note": 62, "velocity": 91, "channel": 0}, {"type": "note_on", "time": 13, "note": 70, "velocity": 100, "channel": 0}, {"type": "note_off", "time": 106, "note": 70, "velocity": 100, "channel": 0}, {"type": "note_on", "time": 696, "note": 80, "velocity": 109, "channel": 0}, {"type": "note_off", "time": 163, "note": 80, "velocity": 109, "channel": 0}, {"type": "note_on", "time": 11, "note": 82, "velocity": 113, "channel": 0}, {"type": "note_off", "time": 479, "note": 82, "velocity": 113, "channel": 0}, {"type": "note_on", "time": 28, "note": 80, "velocity": 104, "channel": 0}, {"type": "note_off", "time": 103, "note": 80, "velocity": 104, "channel": 0}, {"type": "note_on", "time": 2, "note": 81, "velocity": 108, "channel": 0}, {"type": "note_off", "time": 86, "note": 81, "velocity": 108, "channel": 0}, {"type": "note_on", "time": 2, "note": 77, "velocity": 110, "channel": 0}, {"type": "note_off", "time": 68, "note": 77, "velocity": 110, "channel": 0}, {"type": "note_on", "time": 22, "note": 73, "velocity": 93, "channel": 0}, {"type": "note_off", "time": 121, "note": 73, "velocity": 93, "channel": 0}, {"type": "note_on", "time": 4, "note": 70, "velocity": 95, "channel": 0}, {"type": "note_off", "time": 70, "note": 70, "velocity": 95, "channel": 0}, {"type": "note_on", "time": 4, "note": 68, "velocity": 105, "channel": 0}, {"type": "note_off", "time": 70, "note": 68, "velocity": 105, "channel": 0}, {"type": "note_on", "time": 26, "note": 65, "velocity": 99, "channel": 0}, {"type": "note_off", "time": 75, "note": 65, "velocity": 99, "channel": 0}, {"type": "note_on", "time": 13, "note": 64, "velocity": 114, "channel": 0}, {"type": "note_off", "time": 75, "note": 64, "velocity": 114, "channel": 0}, {"type": "note_on", "time": 17, "note": 63, "velocity": 98, "channel": 0}, {"type": "note_off", "time": 68, "note": 63, "velocity": 98, "channel": 0}, {"type": "note_on", "time": 11, "note": 62, "velocity": 97, "channel": 0}, {"type": "note_off", "time": 54, "note": 62, "velocity": 97, "channel": 0}, {"type": "note_on", "time": 3, "note": 64, "velocity": 105, "channel": 0}, {"type": "note_off", "time": 55, "note": 64, "velocity": 105, "channel": 0}, {"type": "note_on", "time": 17, "note": 65, "velocity": 106, "channel": 0}, {"type": "note_off", "time": 194, "note": 65, "velocity": 106, "channel": 0}, {"type": "note_on", "time": 42, "note": 63, "velocity": 104, "channel": 0}, {"type": "note_off", "time": 130, "note": 63, "velocity": 104, "channel": 0}, {"type": "note_on", "time": 13, "note": 62, "velocity": 97, "channel": 0}, {"type": "note_off", "time": 161, "note": 62, "velocity": 97, "channel": 0}, {"type": "note_on", "time": 4, "note": 65, "velocity": 110, "channel": 0}, {"type": "note_off", "time": 30, "note": 65, "velocity": 110, "channel": 0}, {"type": "note_on", "time": 912, "note": 75, "velocity": 92, "channel": 0}, {"type": "note_off", "time": 72, "note": 75, "velocity": 92, "channel": 0}, {"type": "note_on", "time": 6, "note": 77, "velocity": 103, "channel": 0}, {"type": "note_off", "time": 92, "note": 77, "velocity": 103, "channel": 0}, {"type": "note_on", "time": 6, "note": 80, "velocity": 101, "channel": 0}, {"type": "note_off", "time": 75, "note": 80, "velocity": 101, "channel": 0}, {"type": "note_on", "time": 22, "note": 85, "velocity": 110, "channel": 0}, {"type": "note_off", "time": 79, "note": 85, "velocity": 110, "channel": 0}, {"type": "note_on", "time": 4, "note": 84, "velocity": 86, "channel": 0}, {"type": "note_off", "time": 81, "note": 84, "velocity": 86, "channel": 0}, {"type": "note_on", "time": 19, "note": 82, "velocity": 110, "channel": 0}, {"type": "note_off", "time": 119, "note": 82, "velocity": 110, "channel": 0}, {"type": "note_on", "time": 2, "note": 80, "velocity": 107, "channel": 0}, {"type": "note_off", "time": 95, "note": 80, "velocity": 107, "channel": 0}, {"type": "note_on", "time": 84, "note": 80, "velocity": 109, "channel": 0}, {"type": "note_off", "time": 75, "note": 80, "velocity": 109, "channel": 0}, {"type": "note_on", "time": 26, "note": 78, "velocity": 102, "channel": 0}, {"type": "note_off", "time": 143, "note": 78, "velocity": 102, "channel": 0}, {"type": "note_on", "time": 15, "note": 77, "velocity": 106, "channel": 0}, {"type": "note_off", "time": 134, "note": 77, "velocity": 106, "channel": 0}, {"type": "note_on", "time": 11, "note": 75, "velocity": 89, "channel": 0}, {"type": "note_off", "time": 143, "note": 75, "velocity": 89, "channel": 0}, {"type": "note_on", "time": 35, "note": 68, "velocity": 88, "channel": 0}, {"type": "note_off", "time": 79, "note": 68, "velocity": 88, "channel": 0}, {"type": "note_on", "time": 0, "note": 70, "velocity": 94, "channel": 0}, {"type": "note_off", "time": 168, "note": 70, "velocity": 94, "channel": 0}, {"type": "note_on", "time": 0, "note": 68, "velocity": 93, "channel": 0}, {"type": "note_off", "time": 196, "note": 68, "velocity": 93, "channel": 0}, {"type": "note_on", "time": 4, "note": 70, "velocity": 91, "channel": 0}, {"type": "note_off", "time": 225, "note": 70, "velocity": 91, "channel": 0}, {"type": "note_on", "time": 99, "note": 67, "velocity": 104, "channel": 0}, {"type": "note_off", "time": 61, "note": 67, "velocity": 104, "channel": 0}, {"type": "note_on", "time": 2, "note": 68, "velocity": 108, "channel": 0}, {"type": "note_off", "time": 117, "note": 68, "velocity": 108, "channel": 0}, {"type": "note_on", "time": 4, "note": 69, "velocity": 100, "channel": 0}, {"type": "note_off", "time": 99, "note": 69, "velocity": 100, "channel": 0}, {"type": "note_on", "time": 2, "note": 72, "velocity": 100, "channel": 0}, {"type": "note_off", "time": 59, "note": 72, "velocity": 100, "channel": 0}, {"type": "note_on", "time": 46, "note": 74, "velocity": 106, "channel": 0}, {"type": "note_off", "time": 351, "note": 74, "velocity": 106, "channel": 0}, {"type": "note_on", "time": 35, "note": 71, "velocity": 98, "channel": 0}, {"type": "note_off", "time": 59, "note": 71, "velocity": 98, "channel": 0}, {"type": "note_on", "time": 30, "note": 67, "velocity": 106, "channel": 0}, {"type": "note_off", "time": 336, "note": 67, "velocity": 106, "channel": 0}, {"type": "note_on", "time": 302, "note": 74, "velocity": 107, "channel": 0}, {"type": "note_off", "time": 300, "note": 74, "velocity": 107, "channel": 0}, {"type": "note_on", "time": 4, "note": 72, "velocity": 106, "channel": 0}, {"type": "note_off", "time": 81, "note": 72, "velocity": 106, "channel": 0}, {"type": "note_on", "time": 2, "note": 74, "velocity": 110, "channel": 0}, {"type": "note_off", "time": 61, "note": 74, "velocity": 110, "channel": 0}, {"type": "note_on", "time": 0, "note": 75, "velocity": 108, "channel": 0}, {"type": "note_on", "time": 139, "note": 74, "velocity": 108, "channel": 0}, {"type": "note_off", "time": 0, "note": 75, "velocity": 108, "channel": 0}, {"type": "note_off", "time": 64, "note": 74, "velocity": 108, "channel": 0}, {"type": "note_on", "time": 2, "note": 75, "velocity": 108, "channel": 0}, {"type": "note_off", "time": 137, "note": 75, "velocity": 108, "channel": 0}, {"type": "note_on", "time": 2, "note": 74, "velocity": 111, "channel": 0}, {"type": "note_off", "time": 70, "note": 74, "velocity": 111, "channel": 0}, {"type": "note_on", "time": 2, "note": 72, "velocity": 104, "channel": 0}, {"type": "note_off", "time": 95, "note": 72, "velocity": 104, "channel": 0}, {"type": "note_on", "time": 8, "note": 68, "velocity": 99, "channel": 0}, {"type": "note_off", "time": 110, "note": 68, "velocity": 99, "channel": 0}, {"type": "note_on", "time": 0, "note": 65, "velocity": 94, "channel": 0}, {"type": "note_off", "time": 95, "note": 65, "velocity": 94, "channel": 0}, {"type": "note_on", "time": 0, "note": 62, "velocity": 95, "channel": 0}, {"type": "note_off", "time": 64, "note": 62, "velocity": 95, "channel": 0}, {"type": "note_on", "time": 0, "note": 63, "velocity": 97, "channel": 0}, {"type": "note_off", "time": 282, "note": 63, "velocity": 97, "channel": 0}, {"type": "note_on", "time": 2, "note": 65, "velocity": 109, "channel": 0}, {"type": "note_off", "time": 88, "note": 65, "velocity": 109, "channel": 0}, {"type": "note_on", "time": 550, "note": 84, "velocity": 100, "channel": 0}, {"type": "note_off", "time": 46, "note": 84, "velocity": 100, "channel": 0}, {"type": "note_on", "time": 19, "note": 89, "velocity": 111, "channel": 0}, {"type": "note_off", "time": 210, "note": 89, "velocity": 111, "channel": 0}, {"type": "note_on", "time": 30, "note": 87, "velocity": 113, "channel": 0}, {"type": "note_off", "time": 70, "note": 87, "velocity": 113, "channel": 0}, {"type": "note_on", "time": 0, "note": 86, "velocity": 104, "channel": 0}, {"type": "note_off", "time": 137, "note": 86, "velocity": 104, "channel": 0}, {"type": "note_on", "time": 91, "note": 82, "velocity": 116, "channel": 0}, {"type": "note_off", "time": 74, "note": 82, "velocity": 116, "channel": 0}, {"type": "note_on", "time": 21, "note": 77, "velocity": 100, "channel": 0}, {"type": "note_off", "time": 80, "note": 77, "velocity": 100, "channel": 0}, {"type": "note_on", "time": 31, "note": 74, "velocity": 84, "channel": 0}, {"type": "note_off", "time": 59, "note": 74, "velocity": 84, "channel": 0}, {"type": "note_on", "time": 3, "note": 75, "velocity": 80, "channel": 0}, {"type": "note_off", "time": 71, "note": 75, "velocity": 80, "channel": 0}, {"type": "note_on", "time": 21, "note": 77, "velocity": 114, "channel": 0}, {"type": "note_off", "time": 118, "note": 77, "velocity": 114, "channel": 0}, {"type": "note_on", "time": 6, "note": 76, "velocity": 102, "channel": 0}, {"type": "note_off", "time": 55, "note": 76, "velocity": 102, "channel": 0}, {"type": "note_on", "time": 24, "note": 75, "velocity": 103, "channel": 0}, {"type": "note_off", "time": 118, "note": 75, "velocity": 103, "channel": 0}, {"type": "note_on", "time": 18, "note": 74, "velocity": 99, "channel": 0}, {"type": "note_off", "time": 149, "note": 74, "velocity": 99, "channel": 0}, {"type": "note_on", "time": 15, "note": 73, "velocity": 97, "channel": 0}, {"type": "note_off", "time": 74, "note": 73, "velocity": 97, "channel": 0}, {"type": "note_on", "time": 9, "note": 72, "velocity": 100, "channel": 0}, {"type": "note_off", "time": 68, "note": 72, "velocity": 100, "channel": 0}, {"type": "note_on", "time": 21, "note": 70, "velocity": 93, "channel": 0}, {"type": "note_off", "time": 68, "note": 70, "velocity": 93, "channel": 0}, {"type": "note_on", "time": 18, "note": 68, "velocity": 108, "channel": 0}, {"type": "note_off", "time": 93, "note": 68, "velocity": 108, "channel": 0}, {"type": "note_on", "time": 5, "note": 67, "velocity": 109, "channel": 0}, {"type": "note_off", "time": 88, "note": 67, "velocity": 109, "channel": 0}, {"type": "note_on", "time": 12, "note": 70, "velocity": 105, "channel": 0}, {"type": "note_off", "time": 115, "note": 70, "velocity": 105, "channel": 0}, {"type": "note_on", "time": 49, "note": 68, "velocity": 91, "channel": 0}, {"type": "note_off", "time": 335, "note": 68, "velocity": 91, "channel": 0}, {"type": "note_on", "time": 15, "note": 67, "velocity": 104, "channel": 0}, {"type": "note_off", "time": 118, "note": 67, "velocity": 104, "channel": 0}, {"type": "note_on", "time": 631, "note": 79, "velocity": 103, "channel": 0}, {"type": "note_off", "time": 164, "note": 79, "velocity": 103, "channel": 0}, {"type": "note_on", "time": 3, "note": 80, "velocity": 103, "channel": 0}, {"type": "note_off", "time": 1224, "note": 80, "velocity": 103, "channel": 0}, {"type": "note_on", "time": 12, "note": 77, "velocity": 107, "channel": 0}, {"type": "note_off", "time": 99, "note": 77, "velocity": 107, "channel": 0}, {"type": "note_on", "time": 99, "note": 80, "velocity": 109, "channel": 0}, {"type": "note_off", "time": 121, "note": 80, "velocity": 109, "channel": 0}, {"type": "note_on", "time": 83, "note": 77, "velocity": 109, "channel": 0}, {"type": "note_off", "time": 90, "note": 77, "velocity": 109, "channel": 0}, {"type": "note_on", "time": 102, "note": 79, "velocity": 106, "channel": 0}, {"type": "note_off", "time": 93, "note": 79, "velocity": 106, "channel": 0}, {"type": "note_on", "time": 43, "note": 77, "velocity": 98, "channel": 0}, {"type": "note_off", "time": 118, "note": 77, "velocity": 98, "channel": 0}, {"type": "note_on", "time": 43, "note": 79, "velocity": 94, "channel": 0}, {"type": "note_off", "time": 164, "note": 79, "velocity": 94, "channel": 0}, {"type": "note_on", "time": 12, "note": 77, "velocity": 106, "channel": 0}, {"type": "note_off", "time": 87, "note": 77, "velocity": 106, "channel": 0}, {"type": "note_on", "time": 102, "note": 79, "velocity": 95, "channel": 0}, {"type": "note_off", "time": 208, "note": 79, "velocity": 95, "channel": 0}, {"type": "note_on", "time": 3, "note": 77, "velocity": 81, "channel": 0}, {"type": "note_off", "time": 86, "note": 77, "velocity": 81, "channel": 0}, {"type": "note_on", "time": 2, "note": 79, "velocity": 102, "channel": 0}, {"type": "note_off", "time": 114, "note": 79, "velocity": 102, "channel": 0}, {"type": "note_on", "time": 0, "note": 77, "velocity": 87, "channel": 0}, {"type": "note_off", "time": 84, "note": 77, "velocity": 87, "channel": 0}, {"type": "note_on", "time": 0, "note": 79, "velocity": 103, "channel": 0}, {"type": "note_off", "time": 121, "note": 79, "velocity": 103, "channel": 0}, {"type": "note_on", "time": 4, "note": 77, "velocity": 106, "channel": 0}, {"type": "note_off", "time": 103, "note": 77, "velocity": 106, "channel": 0}, {"type": "note_on", "time": 72, "note": 75, "velocity": 92, "channel": 0}, {"type": "note_off", "time": 194, "note": 75, "velocity": 92, "channel": 0}, {"type": "note_on", "time": 4, "note": 77, "velocity": 102, "channel": 0}, {"type": "note_off", "time": 207, "note": 77, "velocity": 102, "channel": 0}, {"type": "note_on", "time": 0, "note": 78, "velocity": 89, "channel": 0}, {"type": "note_off", "time": 37, "note": 78, "velocity": 89, "channel": 0}, {"type": "note_on", "time": 8, "note": 77, "velocity": 107, "channel": 0}, {"type": "note_off", "time": 121, "note": 77, "velocity": 107, "channel": 0}, {"type": "note_on", "time": 4, "note": 75, "velocity": 102, "channel": 0}, {"type": "note_off", "time": 88, "note": 75, "velocity": 102, "channel": 0}, {"type": "note_on", "time": 4, "note": 72, "velocity": 78, "channel": 0}, {"type": "note_off", "time": 119, "note": 72, "velocity": 78, "channel": 0}, {"type": "note_on", "time": 37, "note": 71, "velocity": 105, "channel": 0}, {"type": "note_off", "time": 95, "note": 71, "velocity": 105, "channel": 0}, {"type": "note_on", "time": 11, "note": 72, "velocity": 95, "channel": 0}, {"type": "note_off", "time": 121, "note": 72, "velocity": 95, "channel": 0}, {"type": "note_on", "time": 145, "note": 73, "velocity": 96, "channel": 0}, {"type": "note_off", "time": 216, "note": 73, "velocity": 96, "channel": 0}, {"type": "note_on", "time": 77, "note": 71, "velocity": 92, "channel": 0}, {"type": "note_off", "time": 128, "note": 71, "velocity": 92, "channel": 0}, {"type": "note_on", "time": 8, "note": 72, "velocity": 95, "channel": 0}, {"type": "note_off", "time": 68, "note": 72, "velocity": 95, "channel": 0}, {"type": "note_on", "time": 17, "note": 68, "velocity": 97, "channel": 0}, {"type": "note_off", "time": 84, "note": 68, "velocity": 97, "channel": 0}, {"type": "note_on", "time": 19, "note": 65, "velocity": 86, "channel": 0}, {"type": "note_off", "time": 126, "note": 65, "velocity": 86, "channel": 0}, {"type": "note_on", "time": 0, "note": 68, "velocity": 91, "channel": 0}, {"type": "note_off", "time": 234, "note": 68, "velocity": 91, "channel": 0}, {"type": "note_on", "time": 171, "note": 77, "velocity": 108, "channel": 0}, {"type": "note_off", "time": 147, "note": 77, "velocity": 108, "channel": 0}, {"type": "note_on", "time": 803, "note": 77, "velocity": 109, "channel": 0}, {"type": "note_off", "time": 99, "note": 77, "velocity": 109, "channel": 0}, {"type": "note_on", "time": 0, "note": 79, "velocity": 105, "channel": 0}, {"type": "note_off", "time": 85, "note": 79, "velocity": 105, "channel": 0}, {"type": "note_on", "time": 0, "note": 81, "velocity": 101, "channel": 0}, {"type": "note_off", "time": 60, "note": 81, "velocity": 101, "channel": 0}, {"type": "note_on", "time": 1, "note": 82, "velocity": 97, "channel": 0}, {"type": "note_off", "time": 87, "note": 82, "velocity": 97, "channel": 0}, {"type": "note_on", "time": 0, "note": 84, "velocity": 107, "channel": 0}, {"type": "note_off", "time": 111, "note": 84, "velocity": 107, "channel": 0}, {"type": "note_on", "time": 4, "note": 86, "velocity": 112, "channel": 0}, {"type": "note_off", "time": 77, "note": 86, "velocity": 112, "channel": 0}, {"type": "note_on", "time": 4, "note": 87, "velocity": 114, "channel": 0}, {"type": "note_off", "time": 69, "note": 87, "velocity": 114, "channel": 0}, {"type": "note_on", "time": 15, "note": 89, "velocity": 106, "channel": 0}, {"type": "note_off", "time": 138, "note": 89, "velocity": 106, "channel": 0}, {"type": "note_on", "time": 965, "note": 86, "velocity": 115, "channel": 0}, {"type": "note_off", "time": 135, "note": 86, "velocity": 115, "channel": 0}, {"type": "note_on", "time": 17, "note": 87, "velocity": 115, "channel": 0}, {"type": "note_off", "time": 79, "note": 87, "velocity": 115, "channel": 0}, {"type": "note_on", "time": 101, "note": 88, "velocity": 112, "channel": 0}, {"type": "note_off", "time": 97, "note": 88, "velocity": 112, "channel": 0}, {"type": "note_on", "time": 93, "note": 89, "velocity": 92, "channel": 0}, {"type": "note_off", "time": 87, "note": 89, "velocity": 92, "channel": 0}, {"type": "note_on", "time": 54, "note": 84, "velocity": 96, "channel": 0}, {"type": "note_off", "time": 69, "note": 84, "velocity": 96, "channel": 0}, {"type": "note_on", "time": 9, "note": 84, "velocity": 98, "channel": 0}, {"type": "note_off", "time": 68, "note": 84, "velocity": 98, "channel": 0}, {"type": "note_on", "time": 101, "note": 84, "velocity": 112, "channel": 0}, {"type": "note_off", "time": 63, "note": 84, "velocity": 112, "channel": 0}, {"type": "note_on", "time": 1, "note": 85, "velocity": 87, "channel": 0}, {"type": "note_off", "time": 60, "note": 85, "velocity": 87, "channel": 0}, {"type": "note_on", "time": 49, "note": 86, "velocity": 118, "channel": 0}, {"type": "note_off", "time": 107, "note": 86, "velocity": 118, "channel": 0}, {"type": "note_on", "time": 127, "note": 82, "velocity": 93, "channel": 0}, {"type": "note_off", "time": 60, "note": 82, "velocity": 93, "channel": 0}, {"type": "note_on", "time": 6, "note": 80, "velocity": 110, "channel": 0}, {"type": "note_off", "time": 36, "note": 80, "velocity": 110, "channel": 0}, {"type": "note_on", "time": 2, "note": 82, "velocity": 88, "channel": 0}, {"type": "note_off", "time": 59, "note": 82, "velocity": 88, "channel": 0}, {"type": "note_on", "time": 104, "note": 81, "velocity": 108, "channel": 0}, {"type": "note_off", "time": 32, "note": 81, "velocity": 108, "channel": 0}, {"type": "note_on", "time": 0, "note": 82, "velocity": 100, "channel": 0}, {"type": "note_off", "time": 74, "note": 82, "velocity": 100, "channel": 0}, {"type": "note_on", "time": 13, "note": 82, "velocity": 98, "channel": 0}, {"type": "note_off", "time": 66, "note": 82, "velocity": 98, "channel": 0}, {"type": "note_on", "time": 93, "note": 76, "velocity": 104, "channel": 0}, {"type": "note_off", "time": 73, "note": 76, "velocity": 104, "channel": 0}, {"type": "note_on", "time": 211, "note": 71, "velocity": 91, "channel": 0}, {"type": "note_off", "time": 63, "note": 71, "velocity": 91, "channel": 0}, {"type": "note_on", "time": 0, "note": 72, "velocity": 88, "channel": 0}, {"type": "note_off", "time": 51, "note": 72, "velocity": 88, "channel": 0}, {"type": "note_on", "time": 3, "note": 71, "velocity": 91, "channel": 0}, {"type": "note_off", "time": 82, "note": 71, "velocity": 91, "channel": 0}, {"type": "note_on", "time": 12, "note": 72, "velocity": 99, "channel": 0}, {"type": "note_off", "time": 90, "note": 72, "velocity": 99, "channel": 0}, {"type": "note_on", "time": 3, "note": 70, "velocity": 101, "channel": 0}, {"type": "note_off", "time": 101, "note": 70, "velocity": 101, "channel": 0}, {"type": "note_on", "time": 3, "note": 68, "velocity": 99, "channel": 0}, {"type": "note_off", "time": 83, "note": 68, "velocity": 99, "channel": 0}, {"type": "note_on", "time": 31, "note": 65, "velocity": 101, "channel": 0}, {"type": "note_on", "time": 29, "note": 67, "velocity": 103, "channel": 0}, {"type": "note_off", "time": 0, "note": 65, "velocity": 101, "channel": 0}, {"type": "note_off", "time": 166, "note": 67, "velocity": 103, "channel": 0}, {"type": "note_on", "time": 15, "note": 65, "velocity": 99, "channel": 0}, {"type": "note_off", "time": 118, "note": 65, "velocity": 99, "channel": 0}, {"type": "note_on", "time": 3, "note": 70, "velocity": 104, "channel": 0}, {"type": "note_off", "time": 57, "note": 70, "velocity": 104, "channel": 0}, {"type": "note_on", "time": 756, "note": 70, "velocity": 94, "channel": 0}, {"type": "note_off", "time": 99, "note": 70, "velocity": 94, "channel": 0}, {"type": "note_on", "time": 35, "note": 73, "velocity": 98, "channel": 0}, {"type": "note_off", "time": 65, "note": 73, "velocity": 98, "channel": 0}, {"type": "note_on", "time": 0, "note": 77, "velocity": 105, "channel": 0}, {"type": "note_off", "time": 55, "note": 77, "velocity": 105, "channel": 0}, {"type": "note_on", "time": 17, "note": 80, "velocity": 102, "channel": 0}, {"type": "note_off", "time": 91, "note": 80, "velocity": 102, "channel": 0}, {"type": "note_on", "time": 7, "note": 82, "velocity": 103, "channel": 0}, {"type": "note_off", "time": 59, "note": 82, "velocity": 103, "channel": 0}, {"type": "note_on", "time": 10, "note": 84, "velocity": 99, "channel": 0}, {"type": "note_off", "time": 69, "note": 84, "velocity": 99, "channel": 0}, {"type": "note_on", "time": 3, "note": 86, "velocity": 98, "channel": 0}, {"type": "note_off", "time": 43, "note": 86, "velocity": 98, "channel": 0}, {"type": "note_on", "time": 13, "note": 84, "velocity": 99, "channel": 0}, {"type": "note_on", "time": 71, "note": 82, "velocity": 104, "channel": 0}, {"type": "note_off", "time": 0, "note": 84, "velocity": 99, "channel": 0}, {"type": "note_off", "time": 73, "note": 82, "velocity": 104, "channel": 0}, {"type": "note_on", "time": 161, "note": 80, "velocity": 101, "channel": 0}, {"type": "note_off", "time": 85, "note": 80, "velocity": 101, "channel": 0}, {"type": "note_on", "time": 3, "note": 77, "velocity": 94, "channel": 0}, {"type": "note_off", "time": 158, "note": 77, "velocity": 94, "channel": 0}, {"type": "note_on", "time": 1, "note": 79, "velocity": 104, "channel": 0}, {"type": "note_off", "time": 122, "note": 79, "velocity": 104, "channel": 0}, {"type": "note_on", "time": 7, "note": 80, "velocity": 106, "channel": 0}, {"type": "note_off", "time": 121, "note": 80, "velocity": 106, "channel": 0}, {"type": "note_on", "time": 17, "note": 79, "velocity": 95, "channel": 0}, {"type": "note_off", "time": 113, "note": 79, "velocity": 95, "channel": 0}, {"type": "note_on", "time": 14, "note": 75, "velocity": 95, "channel": 0}, {"type": "note_off", "time": 61, "note": 75, "velocity": 95, "channel": 0}, {"type": "note_on", "time": 0, "note": 70, "velocity": 93, "channel": 0}, {"type": "note_off", "time": 79, "note": 70, "velocity": 93, "channel": 0}, {"type": "note_on", "time": 3, "note": 68, "velocity": 90, "channel": 0}, {"type": "note_off", "time": 110, "note": 68, "velocity": 90, "channel": 0}, {"type": "note_on", "time": 15, "note": 65, "velocity": 96, "channel": 0}, {"type": "note_off", "time": 108, "note": 65, "velocity": 96, "channel": 0}, {"type": "note_on", "time": 3, "note": 64, "velocity": 89, "channel": 0}, {"type": "note_off", "time": 80, "note": 64, "velocity": 89, "channel": 0}, {"type": "note_on", "time": 4, "note": 63, "velocity": 97, "channel": 0}, {"type": "note_off", "time": 267, "note": 63, "velocity": 97, "channel": 0}, {"type": "note_on", "time": 6, "note": 65, "velocity": 107, "channel": 0}, {"type": "note_off", "time": 101, "note": 65, "velocity": 107, "channel": 0}, {"type": "note_on", "time": 736, "note": 81, "velocity": 93, "channel": 0}, {"type": "note_off", "time": 60, "note": 81, "velocity": 93, "channel": 0}, {"type": "note_on", "time": 3, "note": 82, "velocity": 108, "channel": 0}, {"type": "note_off", "time": 41, "note": 82, "velocity": 108, "channel": 0}, {"type": "note_on", "time": 1, "note": 84, "velocity": 104, "channel": 0}, {"type": "note_on", "time": 94, "note": 86, "velocity": 89, "channel": 0}, {"type": "note_off", "time": 0, "note": 84, "velocity": 104, "channel": 0}, {"type": "note_off", "time": 43, "note": 86, "velocity": 89, "channel": 0}, {"type": "note_on", "time": 1, "note": 87, "velocity": 93, "channel": 0}, {"type": "note_off", "time": 122, "note": 87, "velocity": 93, "channel": 0}, {"type": "note_on", "time": 9, "note": 81, "velocity": 86, "channel": 0}, {"type": "note_off", "time": 72, "note": 81, "velocity": 86, "channel": 0}, {"type": "note_on", "time": 11, "note": 82, "velocity": 78, "channel": 0}, {"type": "note_off", "time": 42, "note": 82, "velocity": 78, "channel": 0}, {"type": "note_on", "time": 4, "note": 83, "velocity": 68, "channel": 0}, {"type": "note_off", "time": 39, "note": 83, "velocity": 68, "channel": 0}, {"type": "note_on", "time": 0, "note": 84, "velocity": 99, "channel": 0}, {"type": "note_off", "time": 77, "note": 84, "velocity": 99, "channel": 0}, {"type": "note_on", "time": 32, "note": 77, "velocity": 86, "channel": 0}, {"type": "note_off", "time": 84, "note": 77, "velocity": 86, "channel": 0}, {"type": "note_on", "time": 22, "note": 79, "velocity": 78, "channel": 0}, {"type": "note_off", "time": 50, "note": 79, "velocity": 78, "channel": 0}, {"type": "note_on", "time": 26, "note": 80, "velocity": 88, "channel": 0}, {"type": "note_off", "time": 148, "note": 80, "velocity": 88, "channel": 0}, {"type": "note_on", "time": 17, "note": 77, "velocity": 104, "channel": 0}, {"type": "note_off", "time": 57, "note": 77, "velocity": 104, "channel": 0}, {"type": "note_on", "time": 5, "note": 78, "velocity": 108, "channel": 0}, {"type": "note_off", "time": 63, "note": 78, "velocity": 108, "channel": 0}, {"type": "note_on", "time": 1, "note": 77, "velocity": 102, "channel": 0}, {"type": "note_off", "time": 83, "note": 77, "velocity": 102, "channel": 0}, {"type": "note_on", "time": 1, "note": 75, "velocity": 104, "channel": 0}, {"type": "note_off", "time": 94, "note": 75, "velocity": 104, "channel": 0}, {"type": "note_on", "time": 3, "note": 74, "velocity": 106, "channel": 0}, {"type": "note_off", "time": 77, "note": 74, "velocity": 106, "channel": 0}, {"type": "note_on", "time": 3, "note": 72, "velocity": 101, "channel": 0}, {"type": "note_off", "time": 31, "note": 72, "velocity": 101, "channel": 0}, {"type": "note_on", "time": 3, "note": 73, "velocity": 101, "channel": 0}, {"type": "note_off", "time": 79, "note": 73, "velocity": 101, "channel": 0}, {"type": "note_on", "time": 1, "note": 74, "velocity": 95, "channel": 0}, {"type": "note_off", "time": 68, "note": 74, "velocity": 95, "channel": 0}, {"type": "note_on", "time": 4, "note": 71, "velocity": 103, "channel": 0}, {"type": "note_off", "time": 104, "note": 71, "velocity": 103, "channel": 0}, {"type": "note_on", "time": 29, "note": 70, "velocity": 100, "channel": 0}, {"type": "note_off", "time": 68, "note": 70, "velocity": 100, "channel": 0}, {"type": "note_on", "time": 0, "note": 68, "velocity": 92, "channel": 0}, {"type": "note_on", "time": 150, "note": 70, "velocity": 94, "channel": 0}, {"type": "note_off", "time": 0, "note": 68, "velocity": 92, "channel": 0}, {"type": "note_off", "time": 198, "note": 70, "velocity": 94, "channel": 0}, {"type": "note_on", "time": 15, "note": 68, "velocity": 100, "channel": 0}, {"type": "note_off", "time": 169, "note": 68, "velocity": 100, "channel": 0}, {"type": "note_on", "time": 9, "note": 69, "velocity": 105, "channel": 0}, {"type": "note_off", "time": 234, "note": 69, "velocity": 105, "channel": 0}, {"type": "note_on", "time": 3, "note": 70, "velocity": 110, "channel": 0}, {"type": "note_off", "time": 99, "note": 70, "velocity": 110, "channel": 0}, {"type": "note_on", "time": 21, "note": 68, "velocity": 101, "channel": 0}, {"type": "note_off", "time": 93, "note": 68, "velocity": 101, "channel": 0}, {"type": "note_on", "time": 1, "note": 69, "velocity": 100, "channel": 0}, {"type": "note_off", "time": 88, "note": 69, "velocity": 100, "channel": 0}, {"type": "note_on", "time": 1, "note": 70, "velocity": 110, "channel": 0}, {"type": "note_off", "time": 97, "note": 70, "velocity": 110, "channel": 0}, {"type": "note_on", "time": 1, "note": 68, "velocity": 105, "channel": 0}, {"type": "note_off", "time": 96, "note": 68, "velocity": 105, "channel": 0}, {"type": "note_on", "time": 1, "note": 69, "velocity": 94, "channel": 0}, {"type": "note_off", "time": 88, "note": 69, "velocity": 94, "channel": 0}, {"type": "note_on", "time": 1, "note": 70, "velocity": 110, "channel": 0}, {"type": "note_off", "time": 110, "note": 70, "velocity": 110, "channel": 0}, {"type": "note_on", "time": 9, "note": 68, "velocity": 90, "channel": 0}, {"type": "note_off", "time": 26, "note": 68, "velocity": 90, "channel": 0}, {"type": "note_on", "time": 4, "note": 69, "velocity": 93, "channel": 0}, {"type": "note_off", "time": 147, "note": 69, "velocity": 93, "channel": 0}, {"type": "note_on", "time": 85, "note": 73, "velocity": 103, "channel": 0}, {"type": "note_off", "time": 136, "note": 73, "velocity": 103, "channel": 0}, {"type": "note_on", "time": 1, "note": 74, "velocity": 107, "channel": 0}, {"type": "note_off", "time": 379, "note": 74, "velocity": 107, "channel": 0}, {"type": "note_on", "time": 20, "note": 67, "velocity": 101, "channel": 0}, {"type": "note_off", "time": 156, "note": 67, "velocity": 101, "channel": 0}, {"type": "note_on", "time": 4, "note": 65, "velocity": 99, "channel": 0}, {"type": "note_off", "time": 259, "note": 65, "velocity": 99, "channel": 0}, {"type": "note_on", "time": 17, "note": 63, "velocity": 101, "channel": 0}, {"type": "note_off", "time": 90, "note": 63, "velocity": 101, "channel": 0}, {"type": "note_on", "time": 12, "note": 60, "velocity": 94, "channel": 0}, {"type": "note_off", "time": 71, "note": 60, "velocity": 94, "channel": 0}, {"type": "note_on", "time": 3, "note": 63, "velocity": 91, "channel": 0}, {"type": "note_off", "time": 256, "note": 63, "velocity": 91, "channel": 0}, {"type": "note_on", "time": 495, "note": 72, "velocity": 105, "channel": 0}, {"type": "note_off", "time": 69, "note": 72, "velocity": 105, "channel": 0}, {"type": "note_on", "time": 0, "note": 73, "velocity": 113, "channel": 0}, {"type": "note_on", "time": 48, "note": 74, "velocity": 116, "channel": 0}, {"type": "note_off", "time": 0, "note": 73, "velocity": 113, "channel": 0}, {"type": "note_off", "time": 62, "note": 74, "velocity": 116, "channel": 0}, {"type": "note_on", "time": 4, "note": 74, "velocity": 104, "channel": 0}, {"type": "note_off", "time": 51, "note": 74, "velocity": 104, "channel": 0}, {"type": "note_on", "time": 1, "note": 75, "velocity": 108, "channel": 0}, {"type": "note_off", "time": 77, "note": 75, "velocity": 108, "channel": 0}, {"type": "note_on", "time": 1, "note": 76, "velocity": 96, "channel": 0}, {"type": "note_off", "time": 60, "note": 76, "velocity": 96, "channel": 0}, {"type": "note_on", "time": 1, "note": 77, "velocity": 104, "channel": 0}, {"type": "note_off", "time": 488, "note": 77, "velocity": 104, "channel": 0}, {"type": "note_on", "time": 6, "note": 76, "velocity": 110, "channel": 0}, {"type": "note_off", "time": 69, "note": 76, "velocity": 110, "channel": 0}, {"type": "note_on", "time": 15, "note": 75, "velocity": 108, "channel": 0}, {"type": "note_off", "time": 87, "note": 75, "velocity": 108, "channel": 0}, {"type": "note_on", "time": 11, "note": 74, "velocity": 108, "channel": 0}, {"type": "note_off", "time": 77, "note": 74, "velocity": 108, "channel": 0}, {"type": "note_on", "time": 34, "note": 73, "velocity": 103, "channel": 0}, {"type": "note_off", "time": 66, "note": 73, "velocity": 103, "channel": 0}, {"type": "note_on", "time": 9, "note": 72, "velocity": 89, "channel": 0}, {"type": "note_off", "time": 93, "note": 72, "velocity": 89, "channel": 0}, {"type": "note_on", "time": 4, "note": 70, "velocity": 106, "channel": 0}, {"type": "note_off", "time": 115, "note": 70, "velocity": 106, "channel": 0}, {"type": "note_on", "time": 5, "note": 68, "velocity": 96, "channel": 0}, {"type": "note_off", "time": 63, "note": 68, "velocity": 96, "channel": 0}, {"type": "note_on", "time": 13, "note": 67, "velocity": 95, "channel": 0}, {"type": "note_off", "time": 122, "note": 67, "velocity": 95, "channel": 0}, {"type": "note_on", "time": 7, "note": 65, "velocity": 109, "channel": 0}, {"type": "note_on", "time": 107, "note": 64, "velocity": 107, "channel": 0}, {"type": "note_off", "time": 0, "note": 65, "velocity": 109, "channel": 0}, {"type": "note_off", "time": 66, "note": 64, "velocity": 107, "channel": 0}, {"type": "note_on", "time": 0, "note": 63, "velocity": 95, "channel": 0}, {"type": "note_off", "time": 75, "note": 63, "velocity": 95, "channel": 0}, {"type": "note_on", "time": 0, "note": 62, "velocity": 91, "channel": 0}, {"type": "note_off", "time": 140, "note": 62, "velocity": 91, "channel": 0}, {"type": "note_on", "time": 0, "note": 64, "velocity": 100, "channel": 0}, {"type": "note_off", "time": 59, "note": 64, "velocity": 100, "channel": 0}, {"type": "note_on", "time": 6, "note": 65, "velocity": 118, "channel": 0}, {"type": "note_off", "time": 57, "note": 65, "velocity": 118, "channel": 0}, {"type": "note_on", "time": 9, "note": 65, "velocity": 102, "channel": 0}, {"type": "note_off", "time": 82, "note": 65, "velocity": 102, "channel": 0}, {"type": "note_on", "time": 29, "note": 63, "velocity": 98, "channel": 0}, {"type": "note_off", "time": 136, "note": 63, "velocity": 98, "channel": 0}, {"type": "note_on", "time": 55, "note": 62, "velocity": 89, "channel": 0}, {"type": "note_off", "time": 177, "note": 62, "velocity": 89, "channel": 0}, {"type": "note_on", "time": 50, "note": 65, "velocity": 102, "channel": 0}, {"type": "note_off", "time": 252, "note": 65, "velocity": 102, "channel": 0}, {"type": "note_on", "time": 19, "note": 68, "velocity": 101, "channel": 0}, {"type": "note_off", "time": 83, "note": 68, "velocity": 101, "channel": 0}, {"type": "note_on", "time": 686, "note": 72, "velocity": 91, "channel": 0}, {"type": "note_off", "time": 77, "note": 72, "velocity": 91, "channel": 0}, {"type": "note_on", "time": 45, "note": 77, "velocity": 113, "channel": 0}, {"type": "note_off", "time": 66, "note": 77, "velocity": 113, "channel": 0}, {"type": "note_on", "time": 0, "note": 79, "velocity": 96, "channel": 0}, {"type": "note_off", "time": 91, "note": 79, "velocity": 96, "channel": 0}, {"type": "note_on", "time": 6, "note": 80, "velocity": 107, "channel": 0}, {"type": "note_off", "time": 96, "note": 80, "velocity": 107, "channel": 0}, {"type": "note_on", "time": 2, "note": 79, "velocity": 54, "channel": 0}, {"type": "note_off", "time": 84, "note": 79, "velocity": 54, "channel": 0}, {"type": "note_on", "time": 3, "note": 80, "velocity": 108, "channel": 0}, {"type": "note_off", "time": 106, "note": 80, "velocity": 108, "channel": 0}, {"type": "note_on", "time": 3, "note": 79, "velocity": 106, "channel": 0}, {"type": "note_off", "time": 76, "note": 79, "velocity": 106, "channel": 0}, {"type": "note_on", "time": 2, "note": 80, "velocity": 105, "channel": 0}, {"type": "note_off", "time": 125, "note": 80, "velocity": 105, "channel": 0}, {"type": "note_on", "time": 0, "note": 79, "velocity": 108, "channel": 0}, {"type": "note_off", "time": 63, "note": 79, "velocity": 108, "channel": 0}, {"type": "note_on", "time": 9, "note": 77, "velocity": 113, "channel": 0}, {"type": "note_off", "time": 107, "note": 77, "velocity": 113, "channel": 0}, {"type": "note_on", "time": 1, "note": 76, "velocity": 108, "channel": 0}, {"type": "note_off", "time": 62, "note": 76, "velocity": 108, "channel": 0}, {"type": "note_on", "time": 30, "note": 74, "velocity": 98, "channel": 0}, {"type": "note_off", "time": 113, "note": 74, "velocity": 98, "channel": 0}, {"type": "note_on", "time": 2, "note": 73, "velocity": 103, "channel": 0}, {"type": "note_off", "time": 52, "note": 73, "velocity": 103, "channel": 0}, {"type": "note_on", "time": 2, "note": 72, "velocity": 102, "channel": 0}, {"type": "note_off", "time": 119, "note": 72, "velocity": 102, "channel": 0}, {"type": "note_on", "time": 7, "note": 70, "velocity": 105, "channel": 0}, {"type": "note_off", "time": 64, "note": 70, "velocity": 105, "channel": 0}, {"type": "note_on", "time": 0, "note": 68, "velocity": 115, "channel": 0}, {"type": "note_off", "time": 73, "note": 68, "velocity": 115, "channel": 0}, {"type": "note_on", "time": 122, "note": 70, "velocity": 112, "channel": 0}, {"type": "note_off", "time": 104, "note": 70, "velocity": 112, "channel": 0}, {"type": "note_on", "time": 5, "note": 68, "velocity": 99, "channel": 0}, {"type": "note_off", "time": 61, "note": 68, "velocity": 99, "channel": 0}, {"type": "note_on", "time": 3, "note": 70, "velocity": 107, "channel": 0}, {"type": "note_off", "time": 156, "note": 70, "velocity": 107, "channel": 0}, {"type": "note_on", "time": 0, "note": 68, "velocity": 104, "channel": 0}, {"type": "note_off", "time": 73, "note": 68, "velocity": 104, "channel": 0}, {"type": "note_on", "time": 3, "note": 67, "velocity": 107, "channel": 0}, {"type": "note_off", "time": 65, "note": 67, "velocity": 107, "channel": 0}, {"type": "note_on", "time": 0, "note": 63, "velocity": 102, "channel": 0}, {"type": "note_off", "time": 59, "note": 63, "velocity": 102, "channel": 0}, {"type": "note_on", "time": 554, "note": 83, "velocity": 112, "channel": 0}, {"type": "note_off", "time": 83, "note": 83, "velocity": 112, "channel": 0}, {"type": "note_on", "time": 131, "note": 83, "velocity": 99, "channel": 0}, {"type": "note_off", "time": 218, "note": 83, "velocity": 99, "channel": 0}, {"type": "note_on", "time": 44, "note": 80, "velocity": 116, "channel": 0}, {"type": "note_off", "time": 59, "note": 80, "velocity": 116, "channel": 0}, {"type": "note_on", "time": 4, "note": 82, "velocity": 111, "channel": 0}, {"type": "note_off", "time": 125, "note": 82, "velocity": 111, "channel": 0}, {"type": "note_on", "time": 21, "note": 80, "velocity": 107, "channel": 0}, {"type": "note_off", "time": 76, "note": 80, "velocity": 107, "channel": 0}, {"type": "note_on", "time": 15, "note": 80, "velocity": 100, "channel": 0}, {"type": "note_off", "time": 97, "note": 80, "velocity": 100, "channel": 0}, {"type": "note_on", "time": 23, "note": 77, "velocity": 110, "channel": 0}, {"type": "note_off", "time": 69, "note": 77, "velocity": 110, "channel": 0}, {"type": "note_on", "time": 3, "note": 80, "velocity": 104, "channel": 0}, {"type": "note_off", "time": 79, "note": 80, "velocity": 104, "channel": 0}, {"type": "note_on", "time": 1, "note": 77, "velocity": 98, "channel": 0}, {"type": "note_off", "time": 99, "note": 77, "velocity": 98, "channel": 0}, {"type": "note_on", "time": 6, "note": 77, "velocity": 104, "channel": 0}, {"type": "note_off", "time": 85, "note": 77, "velocity": 104, "channel": 0}, {"type": "note_on", "time": 4, "note": 75, "velocity": 113, "channel": 0}, {"type": "note_off", "time": 94, "note": 75, "velocity": 113, "channel": 0}, {"type": "note_on", "time": 6, "note": 74, "velocity": 114, "channel": 0}, {"type": "note_off", "time": 80, "note": 74, "velocity": 114, "channel": 0}, {"type": "note_on", "time": 21, "note": 73, "velocity": 108, "channel": 0}, {"type": "note_off", "time": 91, "note": 73, "velocity": 108, "channel": 0}, {"type": "note_on", "time": 6, "note": 72, "velocity": 104, "channel": 0}, {"type": "note_off", "time": 82, "note": 72, "velocity": 104, "channel": 0}, {"type": "note_on", "time": 2, "note": 71, "velocity": 105, "channel": 0}, {"type": "note_off", "time": 116, "note": 71, "velocity": 105, "channel": 0}, {"type": "note_on", "time": 0, "note": 70, "velocity": 108, "channel": 0}, {"type": "note_off", "time": 79, "note": 70, "velocity": 108, "channel": 0}, {"type": "note_on", "time": 2, "note": 68, "velocity": 112, "channel": 0}, {"type": "note_off", "time": 105, "note": 68, "velocity": 112, "channel": 0}, {"type": "note_on", "time": 6, "note": 67, "velocity": 93, "channel": 0}, {"type": "note_off", "time": 73, "note": 67, "velocity": 93, "channel": 0}, {"type": "note_on", "time": 41, "note": 70, "velocity": 111, "channel": 0}, {"type": "note_off", "time": 87, "note": 70, "velocity": 111, "channel": 0}, {"type": "note_on", "time": 54, "note": 68, "velocity": 104, "channel": 0}, {"type": "note_off", "time": 161, "note": 68, "velocity": 104, "channel": 0}, {"type": "note_on", "time": 6, "note": 70, "velocity": 108, "channel": 0}, {"type": "note_off", "time": 60, "note": 70, "velocity": 108, "channel": 0}, {"type": "note_on", "time": 9, "note": 68, "velocity": 114, "channel": 0}, {"type": "note_off", "time": 19, "note": 68, "velocity": 114, "channel": 0}, {"type": "note_on", "time": 2, "note": 70, "velocity": 105, "channel": 0}, {"type": "note_off", "time": 22, "note": 70, "velocity": 105, "channel": 0}, {"type": "note_on", "time": 2, "note": 68, "velocity": 103, "channel": 0}, {"type": "note_off", "time": 105, "note": 68, "velocity": 103, "channel": 0}, {"type": "note_on", "time": 2, "note": 65, "velocity": 110, "channel": 0}, {"type": "note_off", "time": 102, "note": 65, "velocity": 110, "channel": 0}, {"type": "note_on", "time": 4, "note": 64, "velocity": 106, "channel": 0}, {"type": "note_off", "time": 56, "note": 64, "velocity": 106, "channel": 0}, {"type": "note_on", "time": 3, "note": 63, "velocity": 92, "channel": 0}, {"type": "note_off", "time": 194, "note": 63, "velocity": 92, "channel": 0}, {"type": "note_on", "time": 79, "note": 56, "velocity": 97, "channel": 0}, {"type": "note_off", "time": 568, "note": 56, "velocity": 97, "channel": 0}, {"type": "note_on", "time": 18, "note": 56, "velocity": 82, "channel": 0}, {"type": "note_off", "time": 355, "note": 56, "velocity": 82, "channel": 0}, {"type": "note_on", "time": 9, "note": 56, "velocity": 72, "channel": 0}, {"type": "note_off", "time": 315, "note": 56, "velocity": 72, "channel": 0}, {"type": "end_of_track", "time": 0}]]}