{"ticks_per_beat": 192, "tracks": [[{"type": "track_name", "name": "Melody", "time": 0}, {"type": "set_tempo", "tempo": 165745, "time": 0}, {"type": "key_signature", "key": "G", "time": 0}, {"type": "time_signature", "numerator": 4, "denominator": 4, "clocks_per_click": 24, "notated_32nd_notes_per_beat": 8, "time": 0}, {"type": "note_on", "time": 2809, "note": 74, "velocity": 92, "channel": 0}, {"type": "note_off", "time": 101, "note": 74, "velocity": 92, "channel": 0}, {"type": "note_on", "time": 104, "note": 74, "velocity": 101, "channel": 0}, {"type": "note_off", "time": 99, "note": 74, "velocity": 101, "channel": 0}, {"type": "note_on", "time": 87, "note": 74, "velocity": 93, "channel": 0}, {"type": "note_off", "time": 137, "note": 74, "velocity": 93, "channel": 0}, {"type": "note_on", "time": 42, "note": 74, "velocity": 103, "channel": 0}, {"type": "note_off", "time": 115, "note": 74, "velocity": 103, "channel": 0}, {"type": "note_on", "time": 78, "note": 74, "velocity": 105, "channel": 0}, {"type": "note_off", "time": 148, "note": 74, "velocity": 105, "channel": 0}, {"type": "note_on", "time": 345, "note": 70, "velocity": 108, "channel": 0}, {"type": "note_off", "time": 75, "note": 70, "velocity": 108, "channel": 0}, {"type": "note_on", "time": 0, "note": 72, "velocity": 108, "channel": 0}, {"type": "note_off", "time": 78, "note": 72, "velocity": 108, "channel": 0}, {"type": "note_on", "time": 9, "note": 73, "velocity": 106, "channel": 0}, {"type": "note_off", "time": 63, "note": 73, "velocity": 106, "channel": 0}, {"type": "note_on", "time": 14, "note": 74, "velocity": 111, "channel": 0}, {"type": "note_off", "time": 94, "note": 74, "velocity": 111, "channel": 0}, {"type": "note_on", "time": 80, "note": 70, "velocity": 99, "channel": 0}, {"type": "note_off", "time": 139, "note": 70, "velocity": 99, "channel": 0}, {"type": "note_on", "time": 78, "note": 69, "velocity": 106, "channel": 0}, {"type": "note_off", "time": 139, "note": 69, "velocity": 106, "channel": 0}, {"type": "note_on", "time": 119, "note": 69, "velocity": 112, "channel": 0}, {"type": "note_off", "time": 124, "note": 69, "velocity": 112, "channel": 0}, {"type": "note_on", "time": 638, "note": 72, "velocity": 97, "channel": 0}, {"type": "note_off", "time": 134, "note": 72, "velocity": 97, "channel": 0}, {"type": "note_on", "time": 69, "note": 72, "velocity": 109, "channel": 0}, {"type": "note_off", "time": 110, "note": 72, "velocity": 109, "channel": 0}, {"type": "note_on", "time": 89, "note": 72, "velocity": 98, "channel": 0}, {"type": "note_off", "time": 122, "note": 72, "velocity": 98, "channel": 0}, {"type": "note_on", "time": 62, "note": 72, "velocity": 116, "channel": 0}, {"type": "note_off", "time": 73, "note": 72, "velocity": 116, "channel": 0}, {"type": "note_on", "time": 35, "note": 72, "velocity": 107, "channel": 0}, {"type": "note_off", "time": 77, "note": 72, "velocity": 107, "channel": 0}, {"type": "note_on", "time": 23, "note": 72, "velocity": 105, "channel": 0}, {"type": "note_off", "time": 62, "note": 72, "velocity": 105, "channel": 0}, {"type": "note_on", "time": 11, "note": 72, "velocity": 108, "channel": 0}, {"type": "note_off", "time": 82, "note": 72, "velocity": 108, "channel": 0}, {"type": "note_on", "time": 31, "note": 72, "velocity": 104, "channel": 0}, {"type": "note_off", "time": 52, "note": 72, "velocity": 104, "channel": 0}, {"type": "note_on", "time": 20, "note": 72, "velocity": 96, "channel": 0}, {"type": "note_off", "time": 75, "note": 72, "velocity": 96, "channel": 0}, {"type": "note_on", "time": 43, "note": 72, "velocity": 110, "channel": 0}, {"type": "note_off", "time": 75, "note": 72, "velocity": 110, "channel": 0}, {"type": "note_on", "time": 38, "note": 72, "velocity": 110, "channel": 0}, {"type": "note_off", "time": 52, "note": 72, "velocity": 110, "channel": 0}, {"type": "note_on", "time": 18, "note": 71, "velocity": 111, "channel": 0}, {"type": "note_off", "time": 121, "note": 71, "velocity": 111, "channel": 0}, {"type": "note_on", "time": 10, "note": 72, "velocity": 111, "channel": 0}, {"type": "note_off", "time": 48, "note": 72, "velocity": 111, "channel": 0}, {"type": "note_on", "time": 13, "note": 74, "velocity": 111, "channel": 0}, {"type": "note_off", "time": 147, "note": 74, "velocity": 111, "channel": 0}, {"type": "note_on", "time": 79, "note": 70, "velocity": 102, "channel": 0}, {"type": "note_off", "time": 159, "note": 70, "velocity": 102, "channel": 0}, {"type": "note_on", "time": 25, "note": 67, "velocity": 115, "channel": 0}, {"type": "note_off", "time": 137, "note": 67, "velocity": 115, "channel": 0}, {"type": "note_on", "time": 175, "note": 64, "velocity": 104, "channel": 0}, {"type": "note_off", "time": 104, "note": 64, "velocity": 104, "channel": 0}, {"type": "note_on", "time": 608, "note": 74, "velocity": 107, "channel": 0}, {"type": "note_off", "time": 290, "note": 74, "velocity": 107, "channel": 0}, {"type": "note_on", "time": 42, "note": 73, "velocity": 113, "channel": 0}, {"type": "note_off", "time": 75, "note": 73, "velocity": 113, "channel": 0}, {"type": "note_on", "time": 0, "note": 74, "velocity": 110, "channel": 0}, {"type": "note_off", "time": 78, "note": 74, "velocity": 110, "channel": 0}, {"type": "note_on", "time": 23, "note": 73, "velocity": 113, "channel": 0}, {"type": "note_off", "time": 82, "note": 73, "velocity": 113, "channel": 0}, {"type": "note_on", "time": 28, "note": 74, "velocity": 111, "channel": 0}, {"type": "note_off", "time": 68, "note": 74, "velocity": 111, "channel": 0}, {"type": "note_on", "time": 30, "note": 73, "velocity": 115, "channel": 0}, {"type": "note_off", "time": 58, "note": 73, "velocity": 115, "channel": 0}, {"type": "note_on", "time": 11, "note": 74, "velocity": 116, "channel": 0}, {"type": "note_off", "time": 72, "note": 74, "velocity": 116, "channel": 0}, {"type": "note_on", "time": 6, "note": 75, "velocity": 114, "channel": 0}, {"type": "note_off", "time": 144, "note": 75, "velocity": 114, "channel": 0}, {"type": "note_on", "time": 1, "note": 74, "velocity": 112, "channel": 0}, {"type": "note_off", "time": 70, "note": 74, "velocity": 112, "channel": 0}, {"type": "note_on", "time": 6, "note": 75, "velocity": 117, "channel": 0}, {"type": "note_off", "time": 115, "note": 75, "velocity": 117, "channel": 0}, {"type": "note_on", "time": 0, "note": 74, "velocity": 122, "channel": 0}, {"type": "note_off", "time": 60, "note": 74, "velocity": 122, "channel": 0}, {"type": "note_on", "time": 16, "note": 73, "velocity": 117, "channel": 0}, {"type": "note_off", "time": 79, "note": 73, "velocity": 117, "channel": 0}, {"type": "note_on", "time": 16, "note": 74, "velocity": 115, "channel": 0}, {"type": "note_off", "time": 82, "note": 74, "velocity": 115, "channel": 0}, {"type": "note_on", "time": 16, "note": 73, "velocity": 120, "channel": 0}, {"type": "note_off", "time": 94, "note": 73, "velocity": 120, "channel": 0}, {"type": "note_on", "time": 6, "note": 74, "velocity": 114, "channel": 0}, {"type": "note_off", "time": 84, "note": 74, "velocity": 114, "channel": 0}, {"type": "note_on", "time": 1, "note": 75, "velocity": 114, "channel": 0}, {"type": "note_off", "time": 126, "note": 75, "velocity": 114, "channel": 0}, {"type": "note_on", "time": 8, "note": 74, "velocity": 105, "channel": 0}, {"type": "note_off", "time": 77, "note": 74, "velocity": 105, "channel": 0}, {"type": "note_on", "time": 13, "note": 75, "velocity": 113, "channel": 0}, {"type": "note_off", "time": 95, "note": 75, "velocity": 113, "channel": 0}, {"type": "note_on", "time": 0, "note": 74, "velocity": 111, "channel": 0}, {"type": "note_off", "time": 65, "note": 74, "velocity": 111, "channel": 0}, {"type": "note_on", "time": 11, "note": 73, "velocity": 111, "channel": 0}, {"type": "note_off", "time": 80, "note": 73, "velocity": 111, "channel": 0}, {"type": "note_on", "time": 18, "note": 74, "velocity": 108, "channel": 0}, {"type": "note_off", "time": 77, "note": 74, "velocity": 108, "channel": 0}, {"type": "note_on", "time": 6, "note": 73, "velocity": 111, "channel": 0}, {"type": "note_off", "time": 97, "note": 73, "velocity": 111, "channel": 0}, {"type": "note_on", "time": 10, "note": 74, "velocity": 115, "channel": 0}, {"type": "note_off", "time": 60, "note": 74, "velocity": 115, "channel": 0}, {"type": "note_on", "time": 21, "note": 75, "velocity": 114, "channel": 0}, {"type": "note_off", "time": 99, "note": 75, "velocity": 114, "channel": 0}, {"type": "note_on", "time": 8, "note": 74, "velocity": 111, "channel": 0}, {"type": "note_off", "time": 77, "note": 74, "velocity": 111, "channel": 0}, {"type": "note_on", "time": 1, "note": 75, "velocity": 109, "channel": 0}, {"type": "note_off", "time": 92, "note": 75, "velocity": 109, "channel": 0}, {"type": "note_on", "time": 8, "note": 74, "velocity": 111, "channel": 0}, {"type": "note_off", "time": 70, "note": 74, "velocity": 111, "channel": 0}, {"type": "note_on", "time": 16, "note": 73, "velocity": 109, "channel": 0}, {"type": "note_off", "time": 89, "note": 73, "velocity": 109, "channel": 0}, {"type": "note_on", "time": 13, "note": 74, "velocity": 108, "channel": 0}, {"type": "note_off", "time": 65, "note": 74, "velocity": 108, "channel": 0}, {"type": "note_on", "time": 20, "note": 73, "velocity": 113, "channel": 0}, {"type": "note_off", "time": 84, "note": 73, "velocity": 113, "channel": 0}, {"type": "note_on", "time": 30, "note": 76, "velocity": 97, "channel": 0}, {"type": "note_off", "time": 42, "note": 76, "velocity": 97, "channel": 0}, {"type": "note_on", "time": 5, "note": 75, "velocity": 112, "channel": 0}, {"type": "note_off", "time": 105, "note": 75, "velocity": 112, "channel": 0}, {"type": "note_on", "time": 15, "note": 74, "velocity": 110, "channel": 0}, {"type": "note_off", "time": 73, "note": 74, "velocity": 110, "channel": 0}, {"type": "note_on", "time": 6, "note": 75, "velocity": 108, "channel": 0}, {"type": "note_off", "time": 114, "note": 75, "velocity": 108, "channel": 0}, {"type": "note_on", "time": 6, "note": 74, "velocity": 110, "channel": 0}, {"type": "note_off", "time": 65, "note": 74, "velocity": 110, "channel": 0}, {"type": "note_on", "time": 11, "note": 73, "velocity": 109, "channel": 0}, {"type": "note_off", "time": 82, "note": 73, "velocity": 109, "channel": 0}, {"type": "note_on", "time": 16, "note": 74, "velocity": 105, "channel": 0}, {"type": "note_off", "time": 84, "note": 74, "velocity": 105, "channel": 0}, {"type": "note_on", "time": 16, "note": 73, "velocity": 110, "channel": 0}, {"type": "note_off", "time": 94, "note": 73, "velocity": 110, "channel": 0}, {"type": "note_on", "time": 18, "note": 74, "velocity": 106, "channel": 0}, {"type": "note_off", "time": 68, "note": 74, "velocity": 106, "channel": 0}, {"type": "note_on", "time": 18, "note": 75, "velocity": 113, "channel": 0}, {"type": "note_off", "time": 110, "note": 75, "velocity": 113, "channel": 0}, {"type": "note_on", "time": 8, "note": 74, "velocity": 116, "channel": 0}, {"type": "note_off", "time": 58, "note": 74, "velocity": 116, "channel": 0}, {"type": "note_on", "time": 21, "note": 75, "velocity": 113, "channel": 0}, {"type": "note_off", "time": 110, "note": 75, "velocity": 113, "channel": 0}, {"type": "note_on", "time": 1, "note": 74, "velocity": 113, "channel": 0}, {"type": "note_off", "time": 58, "note": 74, "velocity": 113, "channel": 0}, {"type": "note_on", "time": 23, "note": 73, "velocity": 114, "channel": 0}, {"type": "note_off", "time": 67, "note": 73, "velocity": 114, "channel": 0}, {"type": "note_on", "time": 15, "note": 74, "velocity": 109, "channel": 0}, {"type": "note_off", "time": 75, "note": 74, "velocity": 109, "channel": 0}, {"type": "note_on", "time": 16, "note": 73, "velocity": 114, "channel": 0}, {"type": "note_off", "time": 68, "note": 73, "velocity": 114, "channel": 0}, {"type": "note_on", "time": 3, "note": 74, "velocity": 110, "channel": 0}, {"type": "note_off", "time": 85, "note": 74, "velocity": 110, "channel": 0}, {"type": "note_on", "time": 26, "note": 75, "velocity": 112, "channel": 0}, {"type": "note_off", "time": 110, "note": 75, "velocity": 112, "channel": 0}, {"type": "note_on", "time": 8, "note": 74, "velocity": 108, "channel": 0}, {"type": "note_off", "time": 90, "note": 74, "velocity": 108, "channel": 0}, {"type": "note_on", "time": 6, "note": 73, "velocity": 99, "channel": 0}, {"type": "note_off", "time": 46, "note": 73, "velocity": 99, "channel": 0}, {"type": "note_on", "time": 7, "note": 70, "velocity": 114, "channel": 0}, {"type": "note_off", "time": 84, "note": 70, "velocity": 114, "channel": 0}, {"type": "note_on", "time": 15, "note": 67, "velocity": 116, "channel": 0}, {"type": "note_off", "time": 181, "note": 67, "velocity": 116, "channel": 0}, {"type": "note_on", "time": 235, "note": 69, "velocity": 106, "channel": 0}, {"type": "note_off", "time": 166, "note": 69, "velocity": 106, "channel": 0}, {"type": "note_on", "time": 215, "note": 74, "velocity": 110, "channel": 0}, {"type": "note_off", "time": 154, "note": 74, "velocity": 110, "channel": 0}, {"type": "note_on", "time": 280, "note": 70, "velocity": 119, "channel": 0}, {"type": "note_off", "time": 72, "note": 70, "velocity": 119, "channel": 0}, {"type": "note_on", "time": 3, "note": 69, "velocity": 118, "channel": 0}, {"type": "note_off", "time": 68, "note": 69, "velocity": 118, "channel": 0}, {"type": "note_on", "time": 10, "note": 67, "velocity": 113, "channel": 0}, {"type": "note_off", "time": 97, "note": 67, "velocity": 113, "channel": 0}, {"type": "note_on", "time": 10, "note": 64, "velocity": 109, "channel": 0}, {"type": "note_off", "time": 79, "note": 64, "velocity": 109, "channel": 0}, {"type": "note_on", "time": 25, "note": 63, "velocity": 105, "channel": 0}, {"type": "note_off", "time": 102, "note": 63, "velocity": 105, "channel": 0}, {"type": "note_on", "time": 645, "note": 70, "velocity": 116, "channel": 0}, {"type": "note_off", "time": 73, "note": 70, "velocity": 116, "channel": 0}, {"type": "note_on", "time": 1, "note": 69, "velocity": 124, "channel": 0}, {"type": "note_off", "time": 75, "note": 69, "velocity": 124, "channel": 0}, {"type": "note_on", "time": 11, "note": 67, "velocity": 119, "channel": 0}, {"type": "note_off", "time": 100, "note": 67, "velocity": 119, "channel": 0}, {"type": "note_on", "time": 23, "note": 64, "velocity": 110, "channel": 0}, {"type": "note_off", "time": 67, "note": 64, "velocity": 110, "channel": 0}, {"type": "note_on", "time": 42, "note": 62, "velocity": 96, "channel": 0}, {"type": "note_off", "time": 132, "note": 62, "velocity": 96, "channel": 0}, {"type": "note_on", "time": 52, "note": 64, "velocity": 109, "channel": 0}, {"type": "note_off", "time": 154, "note": 64, "velocity": 109, "channel": 0}, {"type": "note_on", "time": 38, "note": 67, "velocity": 116, "channel": 0}, {"type": "note_off", "time": 146, "note": 67, "velocity": 116, "channel": 0}, {"type": "note_on", "time": 154, "note": 69, "velocity": 123, "channel": 0}, {"type": "note_off", "time": 84, "note": 69, "velocity": 123, "channel": 0}, {"type": "note_on", "time": 743, "note": 70, "velocity": 126, "channel": 0}, {"type": "note_off", "time": 107, "note": 70, "velocity": 126, "channel": 0}, {"type": "note_on", "time": 1, "note": 69, "velocity": 121, "channel": 0}, {"type": "note_off", "time": 84, "note": 69, "velocity": 121, "channel": 0}, {"type": "note_on", "time": 13, "note": 67, "velocity": 120, "channel": 0}, {"type": "note_off", "time": 99, "note": 67, "velocity": 120, "channel": 0}, {"type": "note_on", "time": 15, "note": 64, "velocity": 114, "channel": 0}, {"type": "note_off", "time": 82, "note": 64, "velocity": 114, "channel": 0}, {"type": "note_on", "time": 17, "note": 62, "velocity": 107, "channel": 0}, {"type": "note_off", "time": 178, "note": 62, "velocity": 107, "channel": 0}, {"type": "note_on", "time": 600, "note": 70, "velocity": 127, "channel": 0}, {"type": "note_off", "time": 73, "note": 70, "velocity": 127, "channel": 0}, {"type": "note_on", "time": 11, "note": 69, "velocity": 123, "channel": 0}, {"type": "note_off", "time": 82, "note": 69, "velocity": 123, "channel": 0}, {"type": "note_on", "time": 18, "note": 67, "velocity": 121, "channel": 0}, {"type": "note_off", "time": 84, "note": 67, "velocity": 121, "channel": 0}, {"type": "note_on", "time": 13, "note": 64, "velocity": 108, "channel": 0}, {"type": "note_off", "time": 94, "note": 64, "velocity": 108, "channel": 0}, {"type": "note_on", "time": 11, "note": 62, "velocity": 102, "channel": 0}, {"type": "note_off", "time": 114, "note": 62, "velocity": 102, "channel": 0}, {"type": "note_on", "time": 84, "note": 64, "velocity": 110, "channel": 0}, {"type": "note_off", "time": 132, "note": 64, "velocity": 110, "channel": 0}, {"type": "note_on", "time": 51, "note": 70, "velocity": 103, "channel": 0}, {"type": "note_off", "time": 81, "note": 70, "velocity": 103, "channel": 0}, {"type": "note_on", "time": 187, "note": 69, "velocity": 116, "channel": 0}, {"type": "note_off", "time": 137, "note": 69, "velocity": 116, "channel": 0}, {"type": "note_on", "time": 875, "note": 70, "velocity": 117, "channel": 0}, {"type": "note_off", "time": 53, "note": 70, "velocity": 117, "channel": 0}, {"type": "note_on", "time": 28, "note": 71, "velocity": 107, "channel": 0}, {"type": "note_off", "time": 70, "note": 71, "velocity": 107, "channel": 0}, {"type": "note_on", "time": 47, "note": 74, "velocity": 94, "channel": 0}, {"type": "note_off", "time": 40, "note": 74, "velocity": 94, "channel": 0}, {"type": "note_on", "time": 13, "note": 77, "velocity": 115, "channel": 0}, {"type": "note_off", "time": 147, "note": 77, "velocity": 115, "channel": 0}, {"type": "note_on", "time": 13, "note": 76, "velocity": 112, "channel": 0}, {"type": "note_off", "time": 62, "note": 76, "velocity": 112, "channel": 0}, {"type": "note_on", "time": 5, "note": 77, "velocity": 112, "channel": 0}, {"type": "note_off", "time": 94, "note": 77, "velocity": 112, "channel": 0}, {"type": "note_on", "time": 1, "note": 76, "velocity": 116, "channel": 0}, {"type": "note_off", "time": 80, "note": 76, "velocity": 116, "channel": 0}, {"type": "note_on", "time": 1, "note": 74, "velocity": 118, "channel": 0}, {"type": "note_off", "time": 121, "note": 74, "velocity": 118, "channel": 0}, {"type": "note_on", "time": 0, "note": 72, "velocity": 113, "channel": 0}, {"type": "note_off", "time": 89, "note": 72, "velocity": 113, "channel": 0}, {"type": "note_on", "time": 0, "note": 73, "velocity": 115, "channel": 0}, {"type": "note_off", "time": 102, "note": 73, "velocity": 115, "channel": 0}, {"type": "note_on", "time": 10, "note": 74, "velocity": 115, "channel": 0}, {"type": "note_off", "time": 77, "note": 74, "velocity": 115, "channel": 0}, {"type": "note_on", "time": 10, "note": 72, "velocity": 110, "channel": 0}, {"type": "note_off", "time": 99, "note": 72, "velocity": 110, "channel": 0}, {"type": "note_on", "time": 8, "note": 73, "velocity": 117, "channel": 0}, {"type": "note_off", "time": 73, "note": 73, "velocity": 117, "channel": 0}, {"type": "note_on", "time": 16, "note": 74, "velocity": 118, "channel": 0}, {"type": "note_off", "time": 79, "note": 74, "velocity": 118, "channel": 0}, {"type": "note_on", "time": 0, "note": 70, "velocity": 118, "channel": 0}, {"type": "note_off", "time": 55, "note": 70, "velocity": 118, "channel": 0}, {"type": "note_on", "time": 18, "note": 69, "velocity": 122, "channel": 0}, {"type": "note_off", "time": 92, "note": 69, "velocity": 122, "channel": 0}, {"type": "note_on", "time": 6, "note": 67, "velocity": 112, "channel": 0}, {"type": "note_off", "time": 139, "note": 67, "velocity": 112, "channel": 0}, {"type": "note_on", "time": 11, "note": 65, "velocity": 99, "channel": 0}, {"type": "note_off", "time": 73, "note": 65, "velocity": 99, "channel": 0}, {"type": "note_on", "time": 5, "note": 67, "velocity": 112, "channel": 0}, {"type": "note_off", "time": 326, "note": 67, "velocity": 112, "channel": 0}, {"type": "note_on", "time": 28, "note": 71, "velocity": 114, "channel": 0}, {"type": "note_off", "time": 144, "note": 71, "velocity": 114, "channel": 0}, {"type": "note_on", "time": 601, "note": 73, "velocity": 115, "channel": 0}, {"type": "note_off", "time": 79, "note": 73, "velocity": 115, "channel": 0}, {"type": "note_on", "time": 13, "note": 74, "velocity": 108, "channel": 0}, {"type": "note_off", "time": 210, "note": 74, "velocity": 108, "channel": 0}, {"type": "note_on", "time": 6, "note": 73, "velocity": 109, "channel": 0}, {"type": "note_off", "time": 67, "note": 73, "velocity": 109, "channel": 0}, {"type": "note_on", "time": 1, "note": 74, "velocity": 106, "channel": 0}, {"type": "note_off", "time": 38, "note": 74, "velocity": 106, "channel": 0}, {"type": "note_on", "time": 13, "note": 73, "velocity": 107, "channel": 0}, {"type": "note_off", "time": 58, "note": 73, "velocity": 107, "channel": 0}, {"type": "note_on", "time": 6, "note": 74, "velocity": 107, "channel": 0}, {"type": "note_off", "time": 161, "note": 74, "velocity": 107, "channel": 0}, {"type": "note_on", "time": 80, "note": 73, "velocity": 116, "channel": 0}, {"type": "note_off", "time": 55, "note": 73, "velocity": 116, "channel": 0}, {"type": "note_on", "time": 0, "note": 74, "velocity": 112, "channel": 0}, {"type": "note_off", "time": 36, "note": 74, "velocity": 112, "channel": 0}, {"type": "note_on", "time": 10, "note": 73, "velocity": 110, "channel": 0}, {"type": "note_off", "time": 65, "note": 73, "velocity": 110, "channel": 0}, {"type": "note_on", "time": 10, "note": 74, "velocity": 108, "channel": 0}, {"type": "note_off", "time": 100, "note": 74, "velocity": 108, "channel": 0}, {"type": "note_on", "time": 94, "note": 73, "velocity": 111, "channel": 0}, {"type": "note_off", "time": 45, "note": 73, "velocity": 111, "channel": 0}, {"type": "note_on", "time": 3, "note": 74, "velocity": 111, "channel": 0}, {"type": "note_off", "time": 50, "note": 74, "velocity": 111, "channel": 0}, {"type": "note_on", "time": 15, "note": 73, "velocity": 109, "channel": 0}, {"type": "note_off", "time": 58, "note": 73, "velocity": 109, "channel": 0}, {"type": "note_on", "time": 5, "note": 74, "velocity": 107, "channel": 0}, {"type": "note_off", "time": 129, "note": 74, "velocity": 107, "channel": 0}, {"type": "note_on", "time": 82, "note": 73, "velocity": 113, "channel": 0}, {"type": "note_off", "time": 50, "note": 73, "velocity": 113, "channel": 0}, {"type": "note_on", "time": 3, "note": 74, "velocity": 113, "channel": 0}, {"type": "note_off", "time": 57, "note": 74, "velocity": 113, "channel": 0}, {"type": "note_on", "time": 15, "note": 73, "velocity": 110, "channel": 0}, {"type": "note_off", "time": 53, "note": 73, "velocity": 110, "channel": 0}, {"type": "note_on", "time": 13, "note": 74, "velocity": 110, "channel": 0}, {"type": "note_off", "time": 122, "note": 74, "velocity": 110, "channel": 0}, {"type": "note_on", "time": 40, "note": 73, "velocity": 85, "channel": 0}, {"type": "note_off", "time": 55, "note": 73, "velocity": 85, "channel": 0}, {"type": "note_on", "time": 16, "note": 74, "velocity": 110, "channel": 0}, {"type": "note_off", "time": 63, "note": 74, "velocity": 110, "channel": 0}, {"type": "note_on", "time": 6, "note": 73, "velocity": 109, "channel": 0}, {"type": "note_off", "time": 63, "note": 73, "velocity": 109, "channel": 0}, {"type": "note_on", "time": 16, "note": 74, "velocity": 93, "channel": 0}, {"type": "note_off", "time": 127, "note": 74, "velocity": 93, "channel": 0}, {"type": "note_on", "time": 47, "note": 73, "velocity": 113, "channel": 0}, {"type": "note_off", "time": 73, "note": 73, "velocity": 113, "channel": 0}, {"type": "note_on", "time": 11, "note": 74, "velocity": 110, "channel": 0}, {"type": "note_off", "time": 47, "note": 74, "velocity": 110, "channel": 0}, {"type": "note_on", "time": 13, "note": 73, "velocity": 110, "channel": 0}, {"type": "note_off", "time": 57, "note": 73, "velocity": 110, "channel": 0}, {"type": "note_on", "time": 1, "note": 74, "velocity": 111, "channel": 0}, {"type": "note_off", "time": 114, "note": 74, "velocity": 111, "channel": 0}, {"type": "note_on", "time": 45, "note": 73, "velocity": 96, "channel": 0}, {"type": "note_off", "time": 65, "note": 73, "velocity": 96, "channel": 0}, {"type": "note_on", "time": 10, "note": 74, "velocity": 110, "channel": 0}, {"type": "note_off", "time": 53, "note": 74, "velocity": 110, "channel": 0}, {"type": "note_on", "time": 15, "note": 73, "velocity": 110, "channel": 0}, {"type": "note_off", "time": 60, "note": 73, "velocity": 110, "channel": 0}, {"type": "note_on", "time": 10, "note": 74, "velocity": 108, "channel": 0}, {"type": "note_off", "time": 115, "note": 74, "velocity": 108, "channel": 0}, {"type": "note_on", "time": 80, "note": 73, "velocity": 115, "channel": 0}, {"type": "note_off", "time": 52, "note": 73, "velocity": 115, "channel": 0}, {"type": "note_on", "time": 5, "note": 74, "velocity": 113, "channel": 0}, {"type": "note_off", "time": 52, "note": 74, "velocity": 113, "channel": 0}, {"type": "note_on", "time": 18, "note": 73, "velocity": 116, "channel": 0}, {"type": "note_off", "time": 65, "note": 73, "velocity": 116, "channel": 0}, {"type": "note_on", "time": 15, "note": 74, "velocity": 94, "channel": 0}, {"type": "note_off", "time": 94, "note": 74, "velocity": 94, "channel": 0}, {"type": "note_on", "time": 57, "note": 73, "velocity": 105, "channel": 0}, {"type": "note_off", "time": 58, "note": 73, "velocity": 105, "channel": 0}, {"type": "note_on", "time": 5, "note": 74, "velocity": 114, "channel": 0}, {"type": "note_off", "time": 72, "note": 74, "velocity": 114, "channel": 0}, {"type": "note_on", "time": 8, "note": 73, "velocity": 115, "channel": 0}, {"type": "note_off", "time": 60, "note": 73, "velocity": 115, "channel": 0}, {"type": "note_on", "time": 8, "note": 74, "velocity": 111, "channel": 0}, {"type": "note_off", "time": 102, "note": 74, "velocity": 111, "channel": 0}, {"type": "note_on", "time": 72, "note": 73, "velocity": 108, "channel": 0}, {"type": "note_off", "time": 55, "note": 73, "velocity": 108, "channel": 0}, {"type": "note_on", "time": 10, "note": 74, "velocity": 112, "channel": 0}, {"type": "note_off", "time": 65, "note": 74, "velocity": 112, "channel": 0}, {"type": "note_on", "time": 20, "note": 73, "velocity": 109, "channel": 0}, {"type": "note_off", "time": 58, "note": 73, "velocity": 109, "channel": 0}, {"type": "note_on", "time": 15, "note": 74, "velocity": 99, "channel": 0}, {"type": "note_off", "time": 100, "note": 74, "velocity": 99, "channel": 0}, {"type": "note_on", "time": 67, "note": 73, "velocity": 110, "channel": 0}, {"type": "note_off", "time": 57, "note": 73, "velocity": 110, "channel": 0}, {"type": "note_on", "time": 10, "note": 74, "velocity": 111, "channel": 0}, {"type": "note_off", "time": 42, "note": 74, "velocity": 111, "channel": 0}, {"type": "note_on", "time": 23, "note": 73, "velocity": 108, "channel": 0}, {"type": "note_off", "time": 85, "note": 73, "velocity": 108, "channel": 0}, {"type": "note_on", "time": 5, "note": 74, "velocity": 102, "channel": 0}, {"type": "note_off", "time": 119, "note": 74, "velocity": 102, "channel": 0}, {"type": "note_on", "time": 40, "note": 73, "velocity": 118, "channel": 0}, {"type": "note_off", "time": 62, "note": 73, "velocity": 118, "channel": 0}, {"type": "note_on", "time": 0, "note": 74, "velocity": 113, "channel": 0}, {"type": "note_off", "time": 42, "note": 74, "velocity": 113, "channel": 0}, {"type": "note_on", "time": 5, "note": 73, "velocity": 111, "channel": 0}, {"type": "note_off", "time": 72, "note": 73, "velocity": 111, "channel": 0}, {"type": "note_on", "time": 8, "note": 74, "velocity": 109, "channel": 0}, {"type": "note_off", "time": 100, "note": 74, "velocity": 109, "channel": 0}, {"type": "note_on", "time": 95, "note": 73, "velocity": 116, "channel": 0}, {"type": "note_off", "time": 72, "note": 73, "velocity": 116, "channel": 0}, {"type": "note_on", "time": 0, "note": 74, "velocity": 116, "channel": 0}, {"type": "note_off", "time": 40, "note": 74, "velocity": 116, "channel": 0}, {"type": "note_on", "time": 16, "note": 73, "velocity": 115, "channel": 0}, {"type": "note_off", "time": 60, "note": 73, "velocity": 115, "channel": 0}, {"type": "note_on", "time": 0, "note": 74, "velocity": 114, "channel": 0}, {"type": "note_off", "time": 164, "note": 74, "velocity": 114, "channel": 0}, {"type": "note_on", "time": 50, "note": 73, "velocity": 117, "channel": 0}, {"type": "note_off", "time": 48, "note": 73, "velocity": 117, "channel": 0}, {"type": "note_on", "time": 1, "note": 74, "velocity": 117, "channel": 0}, {"type": "note_off", "time": 48, "note": 74, "velocity": 117, "channel": 0}, {"type": "note_on", "time": 15, "note": 73, "velocity": 116, "channel": 0}, {"type": "note_off", "time": 55, "note": 73, "velocity": 116, "channel": 0}, {"type": "note_on", "time": 8, "note": 74, "velocity": 111, "channel": 0}, {"type": "note_off", "time": 129, "note": 74, "velocity": 111, "channel": 0}, {"type": "note_on", "time": 70, "note": 73, "velocity": 114, "channel": 0}, {"type": "note_off", "time": 40, "note": 73, "velocity": 114, "channel": 0}, {"type": "note_on", "time": 8, "note": 74, "velocity": 112, "channel": 0}, {"type": "note_off", "time": 47, "note": 74, "velocity": 112, "channel": 0}, {"type": "note_on", "time": 18, "note": 73, "velocity": 116, "channel": 0}, {"type": "note_off", "time": 57, "note": 73, "velocity": 116, "channel": 0}, {"type": "note_on", "time": 8, "note": 74, "velocity": 110, "channel": 0}, {"type": "note_off", "time": 105, "note": 74, "velocity": 110, "channel": 0}, {"type": "note_on", "time": 72, "note": 73, "velocity": 111, "channel": 0}, {"type": "note_off", "time": 72, "note": 73, "velocity": 111, "channel": 0}, {"type": "note_on", "time": 8, "note": 74, "velocity": 114, "channel": 0}, {"type": "note_off", "time": 53, "note": 74, "velocity": 114, "channel": 0}, {"type": "note_on", "time": 21, "note": 73, "velocity": 114, "channel": 0}, {"type": "note_off", "time": 40, "note": 73, "velocity": 114, "channel": 0}, {"type": "note_on", "time": 20, "note": 74, "velocity": 110, "channel": 0}, {"type": "note_off", "time": 114, "note": 74, "velocity": 110, "channel": 0}, {"type": "note_on", "time": 18, "note": 74, "velocity": 113, "channel": 0}, {"type": "note_off", "time": 38, "note": 74, "velocity": 113, "channel": 0}, {"type": "note_on", "time": 14, "note": 73, "velocity": 116, "channel": 0}, {"type": "note_off", "time": 51, "note": 73, "velocity": 116, "channel": 0}, {"type": "note_on", "time": 19, "note": 74, "velocity": 111, "channel": 0}, {"type": "note_off", "time": 100, "note": 74, "velocity": 111, "channel": 0}, {"type": "note_on", "time": 49, "note": 74, "velocity": 110, "channel": 0}, {"type": "note_off", "time": 88, "note": 74, "velocity": 110, "channel": 0}, {"type": "note_on", "time": 501, "note": 74, "velocity": 115, "channel": 0}, {"type": "note_off", "time": 85, "note": 74, "velocity": 115, "channel": 0}, {"type": "note_on", "time": 15, "note": 72, "velocity": 113, "channel": 0}, {"type": "note_off", "time": 90, "note": 72, "velocity": 113, "channel": 0}, {"type": "note_on", "time": 6, "note": 73, "velocity": 105, "channel": 0}, {"type": "note_off", "time": 68, "note": 73, "velocity": 105, "channel": 0}, {"type": "note_on", "time": 13, "note": 74, "velocity": 117, "channel": 0}, {"type": "note_off", "time": 99, "note": 74, "velocity": 117, "channel": 0}, {"type": "note_on", "time": 8, "note": 72, "velocity": 111, "channel": 0}, {"type": "note_off", "time": 85, "note": 72, "velocity": 111, "channel": 0}, {"type": "note_on", "time": 10, "note": 73, "velocity": 112, "channel": 0}, {"type": "note_off", "time": 90, "note": 73, "velocity": 112, "channel": 0}, {"type": "note_on", "time": 11, "note": 74, "velocity": 113, "channel": 0}, {"type": "note_off", "time": 73, "note": 74, "velocity": 113, "channel": 0}, {"type": "note_on", "time": 13, "note": 72, "velocity": 111, "channel": 0}, {"type": "note_off", "time": 95, "note": 72, "velocity": 111, "channel": 0}, {"type": "note_on", "time": 1, "note": 73, "velocity": 111, "channel": 0}, {"type": "note_off", "time": 58, "note": 73, "velocity": 111, "channel": 0}, {"type": "note_on", "time": 0, "note": 74, "velocity": 118, "channel": 0}, {"type": "note_off", "time": 114, "note": 74, "velocity": 118, "channel": 0}, {"type": "note_on", "time": 38, "note": 70, "velocity": 108, "channel": 0}, {"type": "note_off", "time": 70, "note": 70, "velocity": 108, "channel": 0}, {"type": "note_on", "time": 21, "note": 67, "velocity": 104, "channel": 0}, {"type": "note_off", "time": 104, "note": 67, "velocity": 104, "channel": 0}, {"type": "note_on", "time": 121, "note": 67, "velocity": 114, "channel": 0}, {"type": "note_off", "time": 124, "note": 67, "velocity": 114, "channel": 0}, {"type": "note_on", "time": 6, "note": 66, "velocity": 81, "channel": 0}, {"type": "note_off", "time": 30, "note": 66, "velocity": 81, "channel": 0}, {"type": "note_on", "time": 662, "note": 74, "velocity": 116, "channel": 0}, {"type": "note_off", "time": 114, "note": 74, "velocity": 116, "channel": 0}, {"type": "note_on", "time": 0, "note": 76, "velocity": 116, "channel": 0}, {"type": "note_off", "time": 137, "note": 76, "velocity": 116, "channel": 0}, {"type": "note_on", "time": 22, "note": 79, "velocity": 100, "channel": 0}, {"type": "note_off", "time": 1281, "note": 79, "velocity": 100, "channel": 0}, {"type": "note_on", "time": 110, "note": 76, "velocity": 105, "channel": 0}, {"type": "note_off", "time": 141, "note": 76, "velocity": 105, "channel": 0}, {"type": "note_on", "time": 63, "note": 74, "velocity": 95, "channel": 0}, {"type": "note_off", "time": 158, "note": 74, "velocity": 95, "channel": 0}, {"type": "note_on", "time": 40, "note": 71, "velocity": 105, "channel": 0}, {"type": "note_off", "time": 164, "note": 71, "velocity": 105, "channel": 0}, {"type": "note_on", "time": 16, "note": 70, "velocity": 107, "channel": 0}, {"type": "note_off", "time": 61, "note": 70, "velocity": 107, "channel": 0}, {"type": "note_on", "time": 16, "note": 71, "velocity": 112, "channel": 0}, {"type": "note_off", "time": 70, "note": 71, "velocity": 112, "channel": 0}, {"type": "note_on", "time": 14, "note": 70, "velocity": 107, "channel": 0}, {"type": "note_off", "time": 70, "note": 70, "velocity": 107, "channel": 0}, {"type": "note_on", "time": 4, "note": 71, "velocity": 109, "channel": 0}, {"type": "note_off", "time": 156, "note": 71, "velocity": 109, "channel": 0}, {"type": "note_on", "time": 397, "note": 72, "velocity": 109, "channel": 0}, {"type": "note_off", "time": 104, "note": 72, "velocity": 109, "channel": 0}, {"type": "note_on", "time": 9, "note": 73, "velocity": 111, "channel": 0}, {"type": "note_off", "time": 120, "note": 73, "velocity": 111, "channel": 0}, {"type": "note_on", "time": 40, "note": 79, "velocity": 100, "channel": 0}, {"type": "note_off", "time": 82, "note": 79, "velocity": 100, "channel": 0}, {"type": "note_on", "time": 28, "note": 83, "velocity": 94, "channel": 0}, {"type": "note_off", "time": 132, "note": 83, "velocity": 94, "channel": 0}, {"type": "note_on", "time": 82, "note": 81, "velocity": 103, "channel": 0}, {"type": "note_off", "time": 113, "note": 81, "velocity": 103, "channel": 0}, {"type": "note_on", "time": 68, "note": 81, "velocity": 89, "channel": 0}, {"type": "note_off", "time": 144, "note": 81, "velocity": 89, "channel": 0}, {"type": "note_on", "time": 70, "note": 79, "velocity": 106, "channel": 0}, {"type": "note_off", "time": 115, "note": 79, "velocity": 106, "channel": 0}, {"type": "note_on", "time": 70, "note": 79, "velocity": 94, "channel": 0}, {"type": "note_off", "time": 151, "note": 79, "velocity": 94, "channel": 0}, {"type": "note_on", "time": 44, "note": 78, "velocity": 100, "channel": 0}, {"type": "note_off", "time": 104, "note": 78, "velocity": 100, "channel": 0}, {"type": "note_on", "time": 87, "note": 78, "velocity": 93, "channel": 0}, {"type": "note_off", "time": 125, "note": 78, "velocity": 93, "channel": 0}, {"type": "note_on", "time": 80, "note": 78, "velocity": 92, "channel": 0}, {"type": "note_off", "time": 96, "note": 78, "velocity": 92, "channel": 0}, {"type": "note_on", "time": 63, "note": 76, "velocity": 111, "channel": 0}, {"type": "note_off", "time": 106, "note": 76, "velocity": 111, "channel": 0}, {"type": "note_on", "time": 7, "note": 74, "velocity": 103, "channel": 0}, {"type": "note_off", "time": 80, "note": 74, "velocity": 103, "channel": 0}, {"type": "note_on", "time": 2, "note": 75, "velocity": 104, "channel": 0}, {"type": "note_off", "time": 35, "note": 75, "velocity": 104, "channel": 0}, {"type": "note_on", "time": 9, "note": 71, "velocity": 106, "channel": 0}, {"type": "note_off", "time": 99, "note": 71, "velocity": 106, "channel": 0}, {"type": "note_on", "time": 9, "note": 72, "velocity": 110, "channel": 0}, {"type": "note_off", "time": 37, "note": 72, "velocity": 110, "channel": 0}, {"type": "note_on", "time": 4, "note": 74, "velocity": 108, "channel": 0}, {"type": "note_off", "time": 137, "note": 74, "velocity": 108, "channel": 0}, {"type": "note_on", "time": 78, "note": 71, "velocity": 111, "channel": 0}, {"type": "note_off", "time": 94, "note": 71, "velocity": 111, "channel": 0}, {"type": "note_on", "time": 0, "note": 72, "velocity": 111, "channel": 0}, {"type": "note_off", "time": 56, "note": 72, "velocity": 111, "channel": 0}, {"type": "note_on", "time": 0, "note": 74, "velocity": 110, "channel": 0}, {"type": "note_off", "time": 108, "note": 74, "velocity": 110, "channel": 0}, {"type": "note_on", "time": 0, "note": 76, "velocity": 109, "channel": 0}, {"type": "note_off", "time": 77, "note": 76, "velocity": 109, "channel": 0}, {"type": "note_on", "time": 5, "note": 77, "velocity": 111, "channel": 0}, {"type": "note_off", "time": 104, "note": 77, "velocity": 111, "channel": 0}, {"type": "note_on", "time": 13, "note": 76, "velocity": 112, "channel": 0}, {"type": "note_off", "time": 85, "note": 76, "velocity": 112, "channel": 0}, {"type": "note_on", "time": 1, "note": 77, "velocity": 109, "channel": 0}, {"type": "note_off", "time": 100, "note": 77, "velocity": 109, "channel": 0}, {"type": "note_on", "time": 5, "note": 76, "velocity": 110, "channel": 0}, {"type": "note_off", "time": 82, "note": 76, "velocity": 110, "channel": 0}, {"type": "note_on", "time": 1, "note": 77, "velocity": 106, "channel": 0}, {"type": "note_off", "time": 85, "note": 77, "velocity": 106, "channel": 0}, {"type": "note_on", "time": 0, "note": 76, "velocity": 108, "channel": 0}, {"type": "note_off", "time": 89, "note": 76, "velocity": 108, "channel": 0}, {"type": "note_on", "time": 0, "note": 74, "velocity": 113, "channel": 0}, {"type": "note_off", "time": 102, "note": 74, "velocity": 113, "channel": 0}, {"type": "note_on", "time": 11, "note": 72, "velocity": 113, "channel": 0}, {"type": "note_off", "time": 100, "note": 72, "velocity": 113, "channel": 0}, {"type": "note_on", "time": 10, "note": 73, "velocity": 109, "channel": 0}, {"type": "note_off", "time": 87, "note": 73, "velocity": 109, "channel": 0}, {"type": "note_on", "time": 1, "note": 74, "velocity": 107, "channel": 0}, {"type": "note_off", "time": 89, "note": 74, "velocity": 107, "channel": 0}, {"type": "note_on", "time": 1, "note": 72, "velocity": 110, "channel": 0}, {"type": "note_off", "time": 105, "note": 72, "velocity": 110, "channel": 0}, {"type": "note_on", "time": 8, "note": 73, "velocity": 107, "channel": 0}, {"type": "note_off", "time": 55, "note": 73, "velocity": 107, "channel": 0}, {"type": "note_on", "time": 3, "note": 74, "velocity": 110, "channel": 0}, {"type": "note_off", "time": 109, "note": 74, "velocity": 110, "channel": 0}, {"type": "note_on", "time": 1, "note": 70, "velocity": 112, "channel": 0}, {"type": "note_off", "time": 43, "note": 70, "velocity": 112, "channel": 0}, {"type": "note_on", "time": 23, "note": 69, "velocity": 121, "channel": 0}, {"type": "note_off", "time": 131, "note": 69, "velocity": 121, "channel": 0}, {"type": "note_on", "time": 25, "note": 67, "velocity": 112, "channel": 0}, {"type": "note_off", "time": 178, "note": 67, "velocity": 112, "channel": 0}, {"type": "note_on", "time": 2, "note": 69, "velocity": 122, "channel": 0}, {"type": "note_off", "time": 115, "note": 69, "velocity": 122, "channel": 0}, {"type": "note_on", "time": 11, "note": 68, "velocity": 112, "channel": 0}, {"type": "note_off", "time": 57, "note": 68, "velocity": 112, "channel": 0}, {"type": "note_on", "time": 11, "note": 69, "velocity": 113, "channel": 0}, {"type": "note_off", "time": 77, "note": 69, "velocity": 113, "channel": 0}, {"type": "note_on", "time": 4, "note": 66, "velocity": 111, "channel": 0}, {"type": "note_off", "time": 62, "note": 66, "velocity": 111, "channel": 0}, {"type": "note_on", "time": 1, "note": 70, "velocity": 109, "channel": 0}, {"type": "note_off", "time": 82, "note": 70, "velocity": 109, "channel": 0}, {"type": "note_on", "time": 10, "note": 66, "velocity": 113, "channel": 0}, {"type": "note_off", "time": 50, "note": 66, "velocity": 113, "channel": 0}, {"type": "note_on", "time": 0, "note": 67, "velocity": 122, "channel": 0}, {"type": "note_off", "time": 99, "note": 67, "velocity": 122, "channel": 0}, {"type": "note_on", "time": 16, "note": 64, "velocity": 106, "channel": 0}, {"type": "note_off", "time": 60, "note": 64, "velocity": 106, "channel": 0}, {"type": "note_on", "time": 5, "note": 67, "velocity": 121, "channel": 0}, {"type": "note_off", "time": 115, "note": 67, "velocity": 121, "channel": 0}, {"type": "note_on", "time": 15, "note": 66, "velocity": 117, "channel": 0}, {"type": "note_off", "time": 40, "note": 66, "velocity": 117, "channel": 0}, {"type": "note_on", "time": 13, "note": 67, "velocity": 119, "channel": 0}, {"type": "note_off", "time": 248, "note": 67, "velocity": 119, "channel": 0}, {"type": "note_on", "time": 11, "note": 66, "velocity": 104, "channel": 0}, {"type": "note_off", "time": 60, "note": 66, "velocity": 104, "channel": 0}, {"type": "note_on", "time": 26, "note": 67, "velocity": 118, "channel": 0}, {"type": "note_off", "time": 226, "note": 67, "velocity": 118, "channel": 0}, {"type": "note_on", "time": 5, "note": 64, "velocity": 81, "channel": 0}, {"type": "note_off", "time": 82, "note": 64, "velocity": 81, "channel": 0}, {"type": "note_on", "time": 2, "note": 72, "velocity": 118, "channel": 0}, {"type": "note_off", "time": 151, "note": 72, "velocity": 118, "channel": 0}, {"type": "end_of_track", "time": 0}]]}