{"ticks_per_beat": 192, "tracks": [[{"type": "track_name", "name": "Melody", "time": 0}, {"type": "set_tempo", "tempo": 314136, "time": 0}, {"type": "key_signature", "key": "F", "time": 0}, {"type": "time_signature", "numerator": 4, "denominator": 4, "clocks_per_click": 24, "notated_32nd_notes_per_beat": 8, "time": 0}, {"type": "note_on", "time": 2282, "note": 72, "velocity": 122, "channel": 0}, {"type": "note_off", "time": 85, "note": 72, "velocity": 122, "channel": 0}, {"type": "note_on", "time": 14, "note": 74, "velocity": 122, "channel": 0}, {"type": "note_off", "time": 78, "note": 74, "velocity": 122, "channel": 0}, {"type": "note_on", "time": 17, "note": 77, "velocity": 109, "channel": 0}, {"type": "note_off", "time": 70, "note": 77, "velocity": 109, "channel": 0}, {"type": "note_on", "time": 0, "note": 81, "velocity": 114, "channel": 0}, {"type": "note_off", "time": 876, "note": 81, "velocity": 114, "channel": 0}, {"type": "note_on", "time": 28, "note": 77, "velocity": 115, "channel": 0}, {"type": "note_off", "time": 67, "note": 77, "velocity": 115, "channel": 0}, {"type": "note_on", "time": 7, "note": 79, "velocity": 121, "channel": 0}, {"type": "note_off", "time": 102, "note": 79, "velocity": 121, "channel": 0}, {"type": "note_on", "time": 0, "note": 81, "velocity": 117, "channel": 0}, {"type": "note_off", "time": 81, "note": 81, "velocity": 117, "channel": 0}, {"type": "note_on", "time": 14, "note": 79, "velocity": 116, "channel": 0}, {"type": "note_off", "time": 95, "note": 79, "velocity": 116, "channel": 0}, {"type": "note_on", "time": 3, "note": 77, "velocity": 120, "channel": 0}, {"type": "note_off", "time": 78, "note": 77, "velocity": 120, "channel": 0}, {"type": "note_on", "time": 14, "note": 74, "velocity": 125, "channel": 0}, {"type": "note_off", "time": 106, "note": 74, "velocity": 125, "channel": 0}, {"type": "note_on", "time": 10, "note": 68, "velocity": 107, "channel": 0}, {"type": "note_off", "time": 42, "note": 68, "velocity": 107, "channel": 0}, {"type": "note_on", "time": 3, "note": 69, "velocity": 106, "channel": 0}, {"type": "note_off", "time": 759, "note": 69, "velocity": 106, "channel": 0}, {"type": "note_on", "time": 24, "note": 72, "velocity": 124, "channel": 0}, {"type": "note_off", "time": 102, "note": 72, "velocity": 124, "channel": 0}, {"type": "note_on", "time": 17, "note": 69, "velocity": 109, "channel": 0}, {"type": "note_off", "time": 67, "note": 69, "velocity": 109, "channel": 0}, {"type": "note_on", "time": 0, "note": 65, "velocity": 113, "channel": 0}, {"type": "note_off", "time": 81, "note": 65, "velocity": 113, "channel": 0}, {"type": "note_on", "time": 17, "note": 64, "velocity": 118, "channel": 0}, {"type": "note_off", "time": 70, "note": 64, "velocity": 118, "channel": 0}, {"type": "note_on", "time": 14, "note": 63, "velocity": 117, "channel": 0}, {"type": "note_off", "time": 106, "note": 63, "velocity": 117, "channel": 0}, {"type": "note_on", "time": 7, "note": 74, "velocity": 123, "channel": 0}, {"type": "note_off", "time": 85, "note": 74, "velocity": 123, "channel": 0}, {"type": "note_on", "time": 3, "note": 69, "velocity": 101, "channel": 0}, {"type": "note_off", "time": 88, "note": 69, "velocity": 101, "channel": 0}, {"type": "note_on", "time": 17, "note": 72, "velocity": 119, "channel": 0}, {"type": "note_off", "time": 358, "note": 72, "velocity": 119, "channel": 0}, {"type": "note_on", "time": 35, "note": 70, "velocity": 105, "channel": 0}, {"type": "note_off", "time": 56, "note": 70, "velocity": 105, "channel": 0}, {"type": "note_on", "time": 10, "note": 69, "velocity": 102, "channel": 0}, {"type": "note_off", "time": 81, "note": 69, "velocity": 102, "channel": 0}, {"type": "note_on", "time": 67, "note": 67, "velocity": 107, "channel": 0}, {"type": "note_off", "time": 42, "note": 67, "velocity": 107, "channel": 0}, {"type": "note_on", "time": 127, "note": 69, "velocity": 106, "channel": 0}, {"type": "note_off", "time": 60, "note": 69, "velocity": 106, "channel": 0}, {"type": "note_on", "time": 120, "note": 67, "velocity": 106, "channel": 0}, {"type": "note_off", "time": 237, "note": 67, "velocity": 106, "channel": 0}, {"type": "note_on", "time": 21, "note": 65, "velocity": 114, "channel": 0}, {"type": "note_off", "time": 92, "note": 65, "velocity": 114, "channel": 0}, {"type": "note_on", "time": 3, "note": 62, "velocity": 115, "channel": 0}, {"type": "note_off", "time": 85, "note": 62, "velocity": 115, "channel": 0}, {"type": "note_on", "time": 14, "note": 60, "velocity": 119, "channel": 0}, {"type": "note_off", "time": 131, "note": 60, "velocity": 119, "channel": 0}, {"type": "note_on", "time": 14, "note": 62, "velocity": 116, "channel": 0}, {"type": "note_off", "time": 53, "note": 62, "velocity": 116, "channel": 0}, {"type": "note_on", "time": 3, "note": 65, "velocity": 110, "channel": 0}, {"type": "note_off", "time": 283, "note": 65, "velocity": 110, "channel": 0}, {"type": "note_on", "time": 14, "note": 69, "velocity": 109, "channel": 0}, {"type": "note_off", "time": 46, "note": 69, "velocity": 109, "channel": 0}, {"type": "note_on", "time": 241, "note": 65, "velocity": 122, "channel": 0}, {"type": "note_off", "time": 85, "note": 65, "velocity": 122, "channel": 0}, {"type": "note_on", "time": 24, "note": 69, "velocity": 109, "channel": 0}, {"type": "note_off", "time": 60, "note": 69, "velocity": 109, "channel": 0}, {"type": "note_on", "time": 127, "note": 65, "velocity": 115, "channel": 0}, {"type": "note_off", "time": 63, "note": 65, "velocity": 115, "channel": 0}, {"type": "note_on", "time": 21, "note": 69, "velocity": 110, "channel": 0}, {"type": "note_off", "time": 102, "note": 69, "velocity": 110, "channel": 0}, {"type": "note_on", "time": 70, "note": 64, "velocity": 111, "channel": 0}, {"type": "note_off", "time": 113, "note": 64, "velocity": 111, "channel": 0}, {"type": "note_on", "time": 10, "note": 65, "velocity": 116, "channel": 0}, {"type": "note_off", "time": 56, "note": 65, "velocity": 116, "channel": 0}, {"type": "note_on", "time": 7, "note": 69, "velocity": 107, "channel": 0}, {"type": "note_off", "time": 67, "note": 69, "velocity": 107, "channel": 0}, {"type": "note_on", "time": 28, "note": 72, "velocity": 123, "channel": 0}, {"type": "note_off", "time": 78, "note": 72, "velocity": 123, "channel": 0}, {"type": "note_on", "time": 7, "note": 77, "velocity": 120, "channel": 0}, {"type": "note_off", "time": 120, "note": 77, "velocity": 120, "channel": 0}, {"type": "note_on", "time": 14, "note": 74, "velocity": 123, "channel": 0}, {"type": "note_off", "time": 70, "note": 74, "velocity": 123, "channel": 0}, {"type": "note_on", "time": 99, "note": 77, "velocity": 98, "channel": 0}, {"type": "note_off", "time": 422, "note": 77, "velocity": 98, "channel": 0}, {"type": "note_on", "time": 329, "note": 72, "velocity": 125, "channel": 0}, {"type": "note_off", "time": 88, "note": 72, "velocity": 125, "channel": 0}, {"type": "note_on", "time": 7, "note": 74, "velocity": 126, "channel": 0}, {"type": "note_off", "time": 78, "note": 74, "velocity": 126, "channel": 0}, {"type": "note_on", "time": 0, "note": 76, "velocity": 121, "channel": 0}, {"type": "note_off", "time": 81, "note": 76, "velocity": 121, "channel": 0}, {"type": "note_on", "time": 10, "note": 77, "velocity": 121, "channel": 0}, {"type": "note_off", "time": 88, "note": 77, "velocity": 121, "channel": 0}, {"type": "note_on", "time": 7, "note": 79, "velocity": 118, "channel": 0}, {"type": "note_off", "time": 85, "note": 79, "velocity": 118, "channel": 0}, {"type": "note_on", "time": 7, "note": 76, "velocity": 114, "channel": 0}, {"type": "note_off", "time": 365, "note": 76, "velocity": 114, "channel": 0}, {"type": "note_on", "time": 7, "note": 72, "velocity": 123, "channel": 0}, {"type": "note_off", "time": 92, "note": 72, "velocity": 123, "channel": 0}, {"type": "note_on", "time": 21, "note": 69, "velocity": 107, "channel": 0}, {"type": "note_off", "time": 78, "note": 69, "velocity": 107, "channel": 0}, {"type": "note_on", "time": 7, "note": 64, "velocity": 112, "channel": 0}, {"type": "note_off", "time": 70, "note": 64, "velocity": 112, "channel": 0}, {"type": "note_on", "time": 99, "note": 64, "velocity": 114, "channel": 0}, {"type": "note_off", "time": 81, "note": 64, "velocity": 114, "channel": 0}, {"type": "note_on", "time": 42, "note": 69, "velocity": 111, "channel": 0}, {"type": "note_off", "time": 67, "note": 69, "velocity": 111, "channel": 0}, {"type": "note_on", "time": 0, "note": 72, "velocity": 124, "channel": 0}, {"type": "note_off", "time": 88, "note": 72, "velocity": 124, "channel": 0}, {"type": "note_on", "time": 3, "note": 74, "velocity": 123, "channel": 0}, {"type": "note_off", "time": 88, "note": 74, "velocity": 123, "channel": 0}, {"type": "note_on", "time": 14, "note": 76, "velocity": 121, "channel": 0}, {"type": "note_off", "time": 106, "note": 76, "velocity": 121, "channel": 0}, {"type": "note_on", "time": 17, "note": 75, "velocity": 111, "channel": 0}, {"type": "note_off", "time": 35, "note": 75, "velocity": 111, "channel": 0}, {"type": "note_on", "time": 3, "note": 76, "velocity": 119, "channel": 0}, {"type": "note_off", "time": 88, "note": 76, "velocity": 119, "channel": 0}, {"type": "note_on", "time": 60, "note": 69, "velocity": 107, "channel": 0}, {"type": "note_off", "time": 74, "note": 69, "velocity": 107, "channel": 0}, {"type": "note_on", "time": 7, "note": 74, "velocity": 122, "channel": 0}, {"type": "note_off", "time": 92, "note": 74, "velocity": 122, "channel": 0}, {"type": "note_on", "time": 24, "note": 74, "velocity": 123, "channel": 0}, {"type": "note_off", "time": 56, "note": 74, "velocity": 123, "channel": 0}, {"type": "note_on", "time": 24, "note": 74, "velocity": 122, "channel": 0}, {"type": "note_off", "time": 92, "note": 74, "velocity": 122, "channel": 0}, {"type": "note_on", "time": 17, "note": 74, "velocity": 121, "channel": 0}, {"type": "note_off", "time": 177, "note": 74, "velocity": 121, "channel": 0}, {"type": "note_on", "time": 10, "note": 75, "velocity": 122, "channel": 0}, {"type": "note_off", "time": 63, "note": 75, "velocity": 122, "channel": 0}, {"type": "note_on", "time": 10, "note": 76, "velocity": 117, "channel": 0}, {"type": "note_off", "time": 95, "note": 76, "velocity": 117, "channel": 0}, {"type": "note_on", "time": 24, "note": 72, "velocity": 117, "channel": 0}, {"type": "note_off", "time": 92, "note": 72, "velocity": 117, "channel": 0}, {"type": "note_on", "time": 85, "note": 72, "velocity": 122, "channel": 0}, {"type": "note_off", "time": 63, "note": 72, "velocity": 122, "channel": 0}, {"type": "note_on", "time": 28, "note": 72, "velocity": 120, "channel": 0}, {"type": "note_off", "time": 95, "note": 72, "velocity": 120, "channel": 0}, {"type": "note_on", "time": 31, "note": 72, "velocity": 123, "channel": 0}, {"type": "note_off", "time": 99, "note": 72, "velocity": 123, "channel": 0}, {"type": "note_on", "time": 60, "note": 73, "velocity": 124, "channel": 0}, {"type": "note_off", "time": 63, "note": 73, "velocity": 124, "channel": 0}, {"type": "note_on", "time": 17, "note": 74, "velocity": 122, "channel": 0}, {"type": "note_off", "time": 95, "note": 74, "velocity": 122, "channel": 0}, {"type": "note_on", "time": 24, "note": 70, "velocity": 105, "channel": 0}, {"type": "note_off", "time": 212, "note": 70, "velocity": 105, "channel": 0}, {"type": "note_on", "time": 227, "note": 77, "velocity": 118, "channel": 0}, {"type": "note_off", "time": 92, "note": 77, "velocity": 118, "channel": 0}, {"type": "note_on", "time": 24, "note": 74, "velocity": 125, "channel": 0}, {"type": "note_off", "time": 56, "note": 74, "velocity": 125, "channel": 0}, {"type": "note_on", "time": 17, "note": 70, "velocity": 113, "channel": 0}, {"type": "note_off", "time": 85, "note": 70, "velocity": 113, "channel": 0}, {"type": "note_on", "time": 40, "note": 69, "velocity": 97, "channel": 0}, {"type": "note_off", "time": 368, "note": 69, "velocity": 97, "channel": 0}, {"type": "note_on", "time": 12, "note": 65, "velocity": 112, "channel": 0}, {"type": "note_off", "time": 46, "note": 65, "velocity": 112, "channel": 0}, {"type": "note_on", "time": 28, "note": 69, "velocity": 109, "channel": 0}, {"type": "note_off", "time": 81, "note": 69, "velocity": 109, "channel": 0}, {"type": "note_on", "time": 127, "note": 69, "velocity": 108, "channel": 0}, {"type": "note_off", "time": 95, "note": 69, "velocity": 108, "channel": 0}, {"type": "note_on", "time": 81, "note": 67, "velocity": 111, "channel": 0}, {"type": "note_off", "time": 202, "note": 67, "velocity": 111, "channel": 0}, {"type": "note_on", "time": 109, "note": 67, "velocity": 102, "channel": 0}, {"type": "note_off", "time": 408, "note": 67, "velocity": 102, "channel": 0}, {"type": "note_on", "time": 333, "note": 65, "velocity": 120, "channel": 0}, {"type": "note_off", "time": 67, "note": 65, "velocity": 120, "channel": 0}, {"type": "note_on", "time": 21, "note": 69, "velocity": 111, "channel": 0}, {"type": "note_off", "time": 88, "note": 69, "velocity": 111, "channel": 0}, {"type": "note_on", "time": 7, "note": 65, "velocity": 112, "channel": 0}, {"type": "note_off", "time": 63, "note": 65, "velocity": 112, "channel": 0}, {"type": "note_on", "time": 17, "note": 69, "velocity": 112, "channel": 0}, {"type": "note_off", "time": 81, "note": 69, "velocity": 112, "channel": 0}, {"type": "note_on", "time": 24, "note": 67, "velocity": 102, "channel": 0}, {"type": "note_off", "time": 276, "note": 67, "velocity": 102, "channel": 0}, {"type": "note_on", "time": 109, "note": 67, "velocity": 101, "channel": 0}, {"type": "note_off", "time": 542, "note": 67, "velocity": 101, "channel": 0}, {"type": "note_on", "time": 212, "note": 73, "velocity": 127, "channel": 0}, {"type": "note_off", "time": 49, "note": 73, "velocity": 127, "channel": 0}, {"type": "note_on", "time": 14, "note": 74, "velocity": 124, "channel": 0}, {"type": "note_off", "time": 99, "note": 74, "velocity": 124, "channel": 0}, {"type": "note_on", "time": 17, "note": 77, "velocity": 118, "channel": 0}, {"type": "note_off", "time": 60, "note": 77, "velocity": 118, "channel": 0}, {"type": "note_on", "time": 10, "note": 74, "velocity": 124, "channel": 0}, {"type": "note_off", "time": 88, "note": 74, "velocity": 124, "channel": 0}, {"type": "note_on", "time": 88, "note": 76, "velocity": 120, "channel": 0}, {"type": "note_on", "time": 49, "note": 77, "velocity": 115, "channel": 0}, {"type": "note_off", "time": 0, "note": 76, "velocity": 120, "channel": 0}, {"type": "note_off", "time": 351, "note": 77, "velocity": 115, "channel": 0}, {"type": "note_on", "time": 10, "note": 74, "velocity": 124, "channel": 0}, {"type": "note_off", "time": 106, "note": 74, "velocity": 124, "channel": 0}, {"type": "note_on", "time": 24, "note": 69, "velocity": 103, "channel": 0}, {"type": "note_off", "time": 234, "note": 69, "velocity": 103, "channel": 0}, {"type": "note_on", "time": 17, "note": 72, "velocity": 121, "channel": 0}, {"type": "note_off", "time": 106, "note": 72, "velocity": 121, "channel": 0}, {"type": "note_on", "time": 3, "note": 76, "velocity": 118, "channel": 0}, {"type": "note_off", "time": 67, "note": 76, "velocity": 118, "channel": 0}, {"type": "note_on", "time": 14, "note": 72, "velocity": 122, "channel": 0}, {"type": "note_off", "time": 70, "note": 72, "velocity": 122, "channel": 0}, {"type": "note_on", "time": 28, "note": 71, "velocity": 111, "channel": 0}, {"type": "note_off", "time": 67, "note": 71, "velocity": 111, "channel": 0}, {"type": "note_on", "time": 10, "note": 70, "velocity": 114, "channel": 0}, {"type": "note_off", "time": 95, "note": 70, "velocity": 114, "channel": 0}, {"type": "note_on", "time": 78, "note": 69, "velocity": 105, "channel": 0}, {"type": "note_off", "time": 78, "note": 69, "velocity": 105, "channel": 0}, {"type": "note_on", "time": 63, "note": 65, "velocity": 107, "channel": 0}, {"type": "note_off", "time": 322, "note": 65, "velocity": 107, "channel": 0}, {"type": "note_on", "time": 60, "note": 65, "velocity": 106, "channel": 0}, {"type": "note_off", "time": 329, "note": 65, "velocity": 106, "channel": 0}, {"type": "note_on", "time": 35, "note": 65, "velocity": 108, "channel": 0}, {"type": "note_off", "time": 340, "note": 65, "velocity": 108, "channel": 0}, {"type": "note_on", "time": 35, "note": 69, "velocity": 110, "channel": 0}, {"type": "note_off", "time": 74, "note": 69, "velocity": 110, "channel": 0}, {"type": "end_of_track", "time": 0}]]}