{"ticks_per_beat": 2520, "tracks": [[{"type": "track_name", "name": "Melody", "time": 0}, {"type": "set_tempo", "tempo": 705882, "time": 0}, {"type": "key_signature", "key": "Bb", "time": 0}, {"type": "time_signature", "numerator": 4, "denominator": 4, "clocks_per_click": 24, "notated_32nd_notes_per_beat": 8, "time": 0}, {"type": "note_on", "time": 22622, "note": 66, "velocity": 103, "channel": 0}, {"type": "note_off", "time": 262, "note": 66, "velocity": 103, "channel": 0}, {"type": "note_on", "time": 235, "note": 67, "velocity": 103, "channel": 0}, {"type": "note_off", "time": 320, "note": 67, "velocity": 103, "channel": 0}, {"type": "note_on", "time": 529, "note": 66, "velocity": 113, "channel": 0}, {"type": "note_off", "time": 320, "note": 66, "velocity": 113, "channel": 0}, {"type": "note_on", "time": 114, "note": 67, "velocity": 107, "channel": 0}, {"type": "note_off", "time": 612, "note": 67, "velocity": 107, "channel": 0}, {"type": "note_on", "time": 175, "note": 66, "velocity": 113, "channel": 0}, {"type": "note_off", "time": 612, "note": 66, "velocity": 113, "channel": 0}, {"type": "note_on", "time": 134, "note": 67, "velocity": 99, "channel": 0}, {"type": "note_off", "time": 2914, "note": 67, "velocity": 99, "channel": 0}, {"type": "note_on", "time": 42, "note": 69, "velocity": 106, "channel": 0}, {"type": "note_off", "time": 407, "note": 69, "velocity": 106, "channel": 0}, {"type": "note_on", "time": 262, "note": 70, "velocity": 95, "channel": 0}, {"type": "note_off", "time": 378, "note": 70, "velocity": 95, "channel": 0}, {"type": "note_on", "time": 0, "note": 62, "velocity": 82, "channel": 0}, {"type": "note_off", "time": 4517, "note": 62, "velocity": 82, "channel": 0}, {"type": "note_on", "time": 58, "note": 63, "velocity": 96, "channel": 0}, {"type": "note_off", "time": 582, "note": 63, "velocity": 96, "channel": 0}, {"type": "note_on", "time": 0, "note": 62, "velocity": 85, "channel": 0}, {"type": "note_off", "time": 2739, "note": 62, "velocity": 85, "channel": 0}, {"type": "note_on", "time": 6207, "note": 66, "velocity": 92, "channel": 0}, {"type": "note_off", "time": 349, "note": 66, "velocity": 92, "channel": 0}, {"type": "note_on", "time": 203, "note": 67, "velocity": 109, "channel": 0}, {"type": "note_off", "time": 349, "note": 67, "velocity": 109, "channel": 0}, {"type": "note_on", "time": 204, "note": 66, "velocity": 103, "channel": 0}, {"type": "note_off", "time": 699, "note": 66, "velocity": 103, "channel": 0}, {"type": "note_on", "time": 184, "note": 67, "velocity": 96, "channel": 0}, {"type": "note_off", "time": 2069, "note": 67, "velocity": 96, "channel": 0}, {"type": "note_on", "time": 631, "note": 69, "velocity": 113, "channel": 0}, {"type": "note_off", "time": 349, "note": 69, "velocity": 113, "channel": 0}, {"type": "note_on", "time": 349, "note": 70, "velocity": 110, "channel": 0}, {"type": "note_off", "time": 378, "note": 70, "velocity": 110, "channel": 0}, {"type": "note_on", "time": 349, "note": 62, "velocity": 89, "channel": 0}, {"type": "note_off", "time": 4109, "note": 62, "velocity": 89, "channel": 0}, {"type": "note_on", "time": 58, "note": 63, "velocity": 107, "channel": 0}, {"type": "note_off", "time": 932, "note": 63, "velocity": 107, "channel": 0}, {"type": "note_on", "time": 58, "note": 62, "velocity": 88, "channel": 0}, {"type": "note_off", "time": 2885, "note": 62, "velocity": 88, "channel": 0}, {"type": "note_on", "time": 6355, "note": 66, "velocity": 101, "channel": 0}, {"type": "note_off", "time": 116, "note": 66, "velocity": 101, "channel": 0}, {"type": "note_on", "time": 215, "note": 67, "velocity": 115, "channel": 0}, {"type": "note_off", "time": 495, "note": 67, "velocity": 115, "channel": 0}, {"type": "note_on", "time": 333, "note": 66, "velocity": 115, "channel": 0}, {"type": "note_off", "time": 495, "note": 66, "velocity": 115, "channel": 0}, {"type": "note_on", "time": 167, "note": 67, "velocity": 105, "channel": 0}, {"type": "note_off", "time": 1719, "note": 67, "velocity": 105, "channel": 0}, {"type": "note_on", "time": 797, "note": 69, "velocity": 110, "channel": 0}, {"type": "note_off", "time": 757, "note": 69, "velocity": 110, "channel": 0}, {"type": "note_on", "time": 58, "note": 70, "velocity": 101, "channel": 0}, {"type": "note_off", "time": 786, "note": 70, "velocity": 101, "channel": 0}, {"type": "note_on", "time": 145, "note": 72, "velocity": 94, "channel": 0}, {"type": "note_off", "time": 12560, "note": 72, "velocity": 94, "channel": 0}, {"type": "note_on", "time": 1865, "note": 67, "velocity": 105, "channel": 0}, {"type": "note_off", "time": 786, "note": 67, "velocity": 105, "channel": 0}, {"type": "note_on", "time": 58, "note": 60, "velocity": 107, "channel": 0}, {"type": "note_off", "time": 1806, "note": 60, "velocity": 107, "channel": 0}, {"type": "note_on", "time": 29, "note": 62, "velocity": 113, "channel": 0}, {"type": "note_off", "time": 932, "note": 62, "velocity": 113, "channel": 0}, {"type": "note_on", "time": 58, "note": 63, "velocity": 116, "channel": 0}, {"type": "note_off", "time": 728, "note": 63, "velocity": 116, "channel": 0}, {"type": "note_on", "time": 0, "note": 67, "velocity": 108, "channel": 0}, {"type": "note_off", "time": 1253, "note": 67, "velocity": 108, "channel": 0}, {"type": "note_on", "time": 109, "note": 66, "velocity": 91, "channel": 0}, {"type": "note_off", "time": 6465, "note": 66, "velocity": 91, "channel": 0}, {"type": "note_on", "time": 477, "note": 63, "velocity": 108, "channel": 0}, {"type": "note_off", "time": 1282, "note": 63, "velocity": 108, "channel": 0}, {"type": "note_on", "time": 84, "note": 62, "velocity": 104, "channel": 0}, {"type": "note_off", "time": 2321, "note": 62, "velocity": 104, "channel": 0}, {"type": "note_on", "time": 12, "note": 66, "velocity": 99, "channel": 0}, {"type": "note_off", "time": 2273, "note": 66, "velocity": 99, "channel": 0}, {"type": "note_on", "time": 2418, "note": 73, "velocity": 119, "channel": 0}, {"type": "note_off", "time": 495, "note": 73, "velocity": 119, "channel": 0}, {"type": "note_on", "time": 29, "note": 74, "velocity": 118, "channel": 0}, {"type": "note_off", "time": 3868, "note": 74, "velocity": 118, "channel": 0}, {"type": "note_on", "time": 0, "note": 70, "velocity": 113, "channel": 0}, {"type": "note_off", "time": 1119, "note": 70, "velocity": 113, "channel": 0}, {"type": "note_on", "time": 0, "note": 73, "velocity": 116, "channel": 0}, {"type": "note_off", "time": 497, "note": 73, "velocity": 116, "channel": 0}, {"type": "note_on", "time": 82, "note": 74, "velocity": 108, "channel": 0}, {"type": "note_off", "time": 1243, "note": 74, "velocity": 108, "channel": 0}, {"type": "note_on", "time": 41, "note": 70, "velocity": 105, "channel": 0}, {"type": "note_off", "time": 953, "note": 70, "velocity": 105, "channel": 0}, {"type": "note_on", "time": 165, "note": 73, "velocity": 116, "channel": 0}, {"type": "note_off", "time": 497, "note": 73, "velocity": 116, "channel": 0}, {"type": "note_on", "time": 82, "note": 74, "velocity": 113, "channel": 0}, {"type": "note_off", "time": 1657, "note": 74, "velocity": 113, "channel": 0}, {"type": "note_on", "time": 124, "note": 70, "velocity": 105, "channel": 0}, {"type": "note_off", "time": 1243, "note": 70, "velocity": 105, "channel": 0}, {"type": "note_on", "time": 165, "note": 73, "velocity": 116, "channel": 0}, {"type": "note_off", "time": 663, "note": 73, "velocity": 116, "channel": 0}, {"type": "note_on", "time": 373, "note": 74, "velocity": 112, "channel": 0}, {"type": "note_off", "time": 7667, "note": 74, "velocity": 112, "channel": 0}, {"type": "note_on", "time": 273, "note": 72, "velocity": 108, "channel": 0}, {"type": "note_on", "time": 670, "note": 70, "velocity": 95, "channel": 0}, {"type": "note_off", "time": 0, "note": 72, "velocity": 108, "channel": 0}, {"type": "note_off", "time": 641, "note": 70, "velocity": 95, "channel": 0}, {"type": "note_on", "time": 0, "note": 72, "velocity": 111, "channel": 0}, {"type": "note_off", "time": 699, "note": 72, "velocity": 111, "channel": 0}, {"type": "note_on", "time": 87, "note": 74, "velocity": 101, "channel": 0}, {"type": "note_off", "time": 582, "note": 74, "velocity": 101, "channel": 0}, {"type": "note_on", "time": 116, "note": 67, "velocity": 97, "channel": 0}, {"type": "note_off", "time": 816, "note": 67, "velocity": 97, "channel": 0}, {"type": "note_on", "time": 174, "note": 70, "velocity": 101, "channel": 0}, {"type": "note_off", "time": 903, "note": 70, "velocity": 101, "channel": 0}, {"type": "note_on", "time": 145, "note": 72, "velocity": 112, "channel": 0}, {"type": "note_on", "time": 1194, "note": 67, "velocity": 96, "channel": 0}, {"type": "note_off", "time": 0, "note": 72, "velocity": 112, "channel": 0}, {"type": "note_off", "time": 903, "note": 67, "velocity": 96, "channel": 0}, {"type": "note_on", "time": 349, "note": 70, "velocity": 93, "channel": 0}, {"type": "note_off", "time": 2564, "note": 70, "velocity": 93, "channel": 0}, {"type": "note_on", "time": 0, "note": 67, "velocity": 81, "channel": 0}, {"type": "note_off", "time": 2710, "note": 67, "velocity": 81, "channel": 0}, {"type": "note_on", "time": 1369, "note": 68, "velocity": 91, "channel": 0}, {"type": "note_off", "time": 582, "note": 68, "velocity": 91, "channel": 0}, {"type": "note_on", "time": 58, "note": 70, "velocity": 76, "channel": 0}, {"type": "note_off", "time": 7868, "note": 70, "velocity": 76, "channel": 0}, {"type": "note_on", "time": 233, "note": 67, "velocity": 87, "channel": 0}, {"type": "note_off", "time": 1398, "note": 67, "velocity": 87, "channel": 0}, {"type": "note_on", "time": 58, "note": 62, "velocity": 96, "channel": 0}, {"type": "note_off", "time": 961, "note": 62, "velocity": 96, "channel": 0}, {"type": "note_on", "time": 58, "note": 65, "velocity": 94, "channel": 0}, {"type": "note_off", "time": 2389, "note": 65, "velocity": 94, "channel": 0}, {"type": "note_on", "time": 1457, "note": 62, "velocity": 106, "channel": 0}, {"type": "note_off", "time": 845, "note": 62, "velocity": 106, "channel": 0}, {"type": "note_on", "time": 116, "note": 65, "velocity": 115, "channel": 0}, {"type": "note_off", "time": 786, "note": 65, "velocity": 115, "channel": 0}, {"type": "note_on", "time": 320, "note": 67, "velocity": 116, "channel": 0}, {"type": "note_off", "time": 757, "note": 67, "velocity": 116, "channel": 0}, {"type": "note_on", "time": 116, "note": 70, "velocity": 110, "channel": 0}, {"type": "note_off", "time": 524, "note": 70, "velocity": 110, "channel": 0}, {"type": "note_on", "time": 116, "note": 72, "velocity": 117, "channel": 0}, {"type": "note_off", "time": 932, "note": 72, "velocity": 117, "channel": 0}, {"type": "note_on", "time": 204, "note": 74, "velocity": 113, "channel": 0}, {"type": "note_off", "time": 4167, "note": 74, "velocity": 113, "channel": 0}, {"type": "note_on", "time": 233, "note": 72, "velocity": 116, "channel": 0}, {"type": "note_off", "time": 1340, "note": 72, "velocity": 116, "channel": 0}, {"type": "note_on", "time": 203, "note": 70, "velocity": 83, "channel": 0}, {"type": "note_off", "time": 3118, "note": 70, "velocity": 83, "channel": 0}, {"type": "note_on", "time": 87, "note": 72, "velocity": 110, "channel": 0}, {"type": "note_off", "time": 1515, "note": 72, "velocity": 110, "channel": 0}, {"type": "note_on", "time": 0, "note": 67, "velocity": 106, "channel": 0}, {"type": "note_off", "time": 903, "note": 67, "velocity": 106, "channel": 0}, {"type": "note_on", "time": 378, "note": 66, "velocity": 105, "channel": 0}, {"type": "note_off", "time": 1194, "note": 66, "velocity": 105, "channel": 0}, {"type": "note_on", "time": 58, "note": 67, "velocity": 86, "channel": 0}, {"type": "note_off", "time": 10666, "note": 67, "velocity": 86, "channel": 0}, {"type": "note_on", "time": 7110, "note": 62, "velocity": 103, "channel": 0}, {"type": "note_off", "time": 1049, "note": 62, "velocity": 103, "channel": 0}, {"type": "note_on", "time": 0, "note": 67, "velocity": 97, "channel": 0}, {"type": "note_off", "time": 1398, "note": 67, "velocity": 97, "channel": 0}, {"type": "note_on", "time": 408, "note": 79, "velocity": 82, "channel": 0}, {"type": "note_off", "time": 990, "note": 79, "velocity": 82, "channel": 0}, {"type": "note_on", "time": 466, "note": 79, "velocity": 86, "channel": 0}, {"type": "note_off", "time": 8509, "note": 79, "velocity": 86, "channel": 0}, {"type": "note_on", "time": 0, "note": 74, "velocity": 117, "channel": 0}, {"type": "note_off", "time": 1107, "note": 74, "velocity": 117, "channel": 0}, {"type": "note_on", "time": 0, "note": 76, "velocity": 111, "channel": 0}, {"type": "note_off", "time": 932, "note": 76, "velocity": 111, "channel": 0}, {"type": "note_on", "time": 116, "note": 77, "velocity": 118, "channel": 0}, {"type": "note_off", "time": 3846, "note": 77, "velocity": 118, "channel": 0}, {"type": "note_on", "time": 349, "note": 76, "velocity": 119, "channel": 0}, {"type": "note_off", "time": 932, "note": 76, "velocity": 119, "channel": 0}, {"type": "note_on", "time": 174, "note": 74, "velocity": 91, "channel": 0}, {"type": "note_off", "time": 466, "note": 74, "velocity": 91, "channel": 0}, {"type": "note_on", "time": 291, "note": 75, "velocity": 9, "channel": 0}, {"type": "note_off", "time": 7693, "note": 75, "velocity": 9, "channel": 0}, {"type": "note_on", "time": 173, "note": 74, "velocity": 107, "channel": 0}, {"type": "note_off", "time": 331, "note": 74, "velocity": 107, "channel": 0}, {"type": "note_on", "time": 0, "note": 75, "velocity": 99, "channel": 0}, {"type": "note_off", "time": 331, "note": 75, "velocity": 99, "channel": 0}, {"type": "note_on", "time": 165, "note": 74, "velocity": 115, "channel": 0}, {"type": "note_off", "time": 290, "note": 74, "velocity": 115, "channel": 0}, {"type": "note_on", "time": 124, "note": 67, "velocity": 104, "channel": 0}, {"type": "note_off", "time": 1367, "note": 67, "velocity": 104, "channel": 0}, {"type": "note_on", "time": 0, "note": 69, "velocity": 77, "channel": 0}, {"type": "note_off", "time": 704, "note": 69, "velocity": 77, "channel": 0}, {"type": "note_on", "time": 165, "note": 70, "velocity": 75, "channel": 0}, {"type": "note_off", "time": 3440, "note": 70, "velocity": 75, "channel": 0}, {"type": "note_on", "time": 3398, "note": 73, "velocity": 99, "channel": 0}, {"type": "note_off", "time": 787, "note": 73, "velocity": 99, "channel": 0}, {"type": "note_on", "time": 207, "note": 74, "velocity": 97, "channel": 0}, {"type": "note_off", "time": 18651, "note": 74, "velocity": 97, "channel": 0}, {"type": "note_on", "time": 41, "note": 72, "velocity": 115, "channel": 0}, {"type": "note_off", "time": 455, "note": 72, "velocity": 115, "channel": 0}, {"type": "note_on", "time": 0, "note": 74, "velocity": 118, "channel": 0}, {"type": "note_off", "time": 373, "note": 74, "velocity": 118, "channel": 0}, {"type": "note_on", "time": 41, "note": 72, "velocity": 117, "channel": 0}, {"type": "note_off", "time": 994, "note": 72, "velocity": 117, "channel": 0}, {"type": "note_on", "time": 41, "note": 67, "velocity": 105, "channel": 0}, {"type": "note_off", "time": 953, "note": 67, "velocity": 105, "channel": 0}, {"type": "note_on", "time": 82, "note": 69, "velocity": 91, "channel": 0}, {"type": "note_off", "time": 4932, "note": 69, "velocity": 91, "channel": 0}, {"type": "note_on", "time": 1575, "note": 62, "velocity": 105, "channel": 0}, {"type": "note_off", "time": 1367, "note": 62, "velocity": 105, "channel": 0}, {"type": "note_on", "time": 82, "note": 63, "velocity": 103, "channel": 0}, {"type": "note_off", "time": 2030, "note": 63, "velocity": 103, "channel": 0}, {"type": "note_on", "time": 1657, "note": 62, "velocity": 106, "channel": 0}, {"type": "note_off", "time": 1119, "note": 62, "velocity": 106, "channel": 0}, {"type": "note_on", "time": 124, "note": 63, "velocity": 117, "channel": 0}, {"type": "note_off", "time": 1160, "note": 63, "velocity": 117, "channel": 0}, {"type": "note_on", "time": 1201, "note": 62, "velocity": 110, "channel": 0}, {"type": "note_off", "time": 1243, "note": 62, "velocity": 110, "channel": 0}, {"type": "note_on", "time": 165, "note": 63, "velocity": 118, "channel": 0}, {"type": "note_off", "time": 828, "note": 63, "velocity": 118, "channel": 0}, {"type": "note_on", "time": 207, "note": 64, "velocity": 121, "channel": 0}, {"type": "note_off", "time": 373, "note": 64, "velocity": 121, "channel": 0}, {"type": "note_on", "time": 0, "note": 62, "velocity": 121, "channel": 0}, {"type": "note_on", "time": 497, "note": 64, "velocity": 116, "channel": 0}, {"type": "note_off", "time": 0, "note": 62, "velocity": 121, "channel": 0}, {"type": "note_off", "time": 414, "note": 64, "velocity": 116, "channel": 0}, {"type": "note_on", "time": 124, "note": 65, "velocity": 120, "channel": 0}, {"type": "note_off", "time": 2984, "note": 65, "velocity": 120, "channel": 0}, {"type": "note_on", "time": 290, "note": 64, "velocity": 112, "channel": 0}, {"type": "note_off", "time": 4310, "note": 64, "velocity": 112, "channel": 0}, {"type": "note_on", "time": 1450, "note": 70, "velocity": 104, "channel": 0}, {"type": "note_off", "time": 1326, "note": 70, "velocity": 104, "channel": 0}, {"type": "note_on", "time": 124, "note": 74, "velocity": 115, "channel": 0}, {"type": "note_off", "time": 5885, "note": 74, "velocity": 115, "channel": 0}, {"type": "note_on", "time": 0, "note": 70, "velocity": 101, "channel": 0}, {"type": "note_off", "time": 580, "note": 70, "velocity": 101, "channel": 0}, {"type": "note_on", "time": 41, "note": 72, "velocity": 120, "channel": 0}, {"type": "note_off", "time": 911, "note": 72, "velocity": 120, "channel": 0}, {"type": "note_on", "time": 0, "note": 74, "velocity": 122, "channel": 0}, {"type": "note_off", "time": 621, "note": 74, "velocity": 122, "channel": 0}, {"type": "note_on", "time": 58, "note": 67, "velocity": 110, "channel": 0}, {"type": "note_off", "time": 670, "note": 67, "velocity": 110, "channel": 0}, {"type": "note_on", "time": 58, "note": 70, "velocity": 99, "channel": 0}, {"type": "note_off", "time": 612, "note": 70, "velocity": 99, "channel": 0}, {"type": "note_on", "time": 29, "note": 72, "velocity": 120, "channel": 0}, {"type": "note_off", "time": 786, "note": 72, "velocity": 120, "channel": 0}, {"type": "note_on", "time": 0, "note": 74, "velocity": 119, "channel": 0}, {"type": "note_off", "time": 786, "note": 74, "velocity": 119, "channel": 0}, {"type": "note_on", "time": 58, "note": 67, "velocity": 105, "channel": 0}, {"type": "note_off", "time": 699, "note": 67, "velocity": 105, "channel": 0}, {"type": "note_on", "time": 291, "note": 70, "velocity": 93, "channel": 0}, {"type": "note_off", "time": 961, "note": 70, "velocity": 93, "channel": 0}, {"type": "note_on", "time": 116, "note": 72, "velocity": 112, "channel": 0}, {"type": "note_off", "time": 3059, "note": 72, "velocity": 112, "channel": 0}, {"type": "note_on", "time": 58, "note": 67, "velocity": 91, "channel": 0}, {"type": "note_off", "time": 2273, "note": 67, "velocity": 91, "channel": 0}, {"type": "note_on", "time": 1573, "note": 67, "velocity": 106, "channel": 0}, {"type": "note_off", "time": 524, "note": 67, "velocity": 106, "channel": 0}, {"type": "note_on", "time": 203, "note": 69, "velocity": 106, "channel": 0}, {"type": "note_off", "time": 582, "note": 69, "velocity": 106, "channel": 0}, {"type": "note_on", "time": 0, "note": 70, "velocity": 96, "channel": 0}, {"type": "note_off", "time": 1078, "note": 70, "velocity": 96, "channel": 0}, {"type": "note_on", "time": 188, "note": 64, "velocity": 109, "channel": 0}, {"type": "note_off", "time": 518, "note": 64, "velocity": 109, "channel": 0}, {"type": "note_on", "time": 62, "note": 65, "velocity": 106, "channel": 0}, {"type": "note_off", "time": 373, "note": 65, "velocity": 106, "channel": 0}, {"type": "note_on", "time": 145, "note": 66, "velocity": 106, "channel": 0}, {"type": "note_off", "time": 435, "note": 66, "velocity": 106, "channel": 0}, {"type": "note_on", "time": 186, "note": 67, "velocity": 104, "channel": 0}, {"type": "note_off", "time": 538, "note": 67, "velocity": 104, "channel": 0}, {"type": "note_on", "time": 82, "note": 61, "velocity": 97, "channel": 0}, {"type": "note_off", "time": 580, "note": 61, "velocity": 97, "channel": 0}, {"type": "note_on", "time": 20, "note": 62, "velocity": 106, "channel": 0}, {"type": "note_off", "time": 435, "note": 62, "velocity": 106, "channel": 0}, {"type": "note_on", "time": 124, "note": 63, "velocity": 111, "channel": 0}, {"type": "note_off", "time": 538, "note": 63, "velocity": 111, "channel": 0}, {"type": "note_on", "time": 62, "note": 64, "velocity": 110, "channel": 0}, {"type": "note_off", "time": 476, "note": 64, "velocity": 110, "channel": 0}, {"type": "note_on", "time": 103, "note": 67, "velocity": 113, "channel": 0}, {"type": "note_off", "time": 642, "note": 67, "velocity": 113, "channel": 0}, {"type": "note_on", "time": 41, "note": 70, "velocity": 102, "channel": 0}, {"type": "note_off", "time": 435, "note": 70, "velocity": 102, "channel": 0}, {"type": "note_on", "time": 0, "note": 73, "velocity": 112, "channel": 0}, {"type": "note_off", "time": 704, "note": 73, "velocity": 112, "channel": 0}, {"type": "note_on", "time": 0, "note": 74, "velocity": 113, "channel": 0}, {"type": "note_off", "time": 621, "note": 74, "velocity": 113, "channel": 0}, {"type": "note_on", "time": 20, "note": 75, "velocity": 123, "channel": 0}, {"type": "note_off", "time": 746, "note": 75, "velocity": 123, "channel": 0}, {"type": "note_on", "time": 0, "note": 76, "velocity": 117, "channel": 0}, {"type": "note_off", "time": 559, "note": 76, "velocity": 117, "channel": 0}, {"type": "note_on", "time": 124, "note": 77, "velocity": 111, "channel": 0}, {"type": "note_off", "time": 518, "note": 77, "velocity": 111, "channel": 0}, {"type": "note_on", "time": 20, "note": 78, "velocity": 113, "channel": 0}, {"type": "note_off", "time": 642, "note": 78, "velocity": 113, "channel": 0}, {"type": "note_on", "time": 82, "note": 79, "velocity": 116, "channel": 0}, {"type": "note_off", "time": 704, "note": 79, "velocity": 116, "channel": 0}, {"type": "note_on", "time": 41, "note": 76, "velocity": 120, "channel": 0}, {"type": "note_off", "time": 497, "note": 76, "velocity": 120, "channel": 0}, {"type": "note_on", "time": 62, "note": 77, "velocity": 115, "channel": 0}, {"type": "note_off", "time": 538, "note": 77, "velocity": 115, "channel": 0}, {"type": "note_on", "time": 20, "note": 73, "velocity": 115, "channel": 0}, {"type": "note_off", "time": 559, "note": 73, "velocity": 115, "channel": 0}, {"type": "note_on", "time": 62, "note": 74, "velocity": 117, "channel": 0}, {"type": "note_off", "time": 683, "note": 74, "velocity": 117, "channel": 0}, {"type": "note_on", "time": 62, "note": 70, "velocity": 102, "channel": 0}, {"type": "note_off", "time": 435, "note": 70, "velocity": 102, "channel": 0}, {"type": "note_on", "time": 0, "note": 67, "velocity": 110, "channel": 0}, {"type": "note_off", "time": 808, "note": 67, "velocity": 110, "channel": 0}, {"type": "note_on", "time": 82, "note": 61, "velocity": 102, "channel": 0}, {"type": "note_off", "time": 373, "note": 61, "velocity": 102, "channel": 0}, {"type": "note_on", "time": 82, "note": 62, "velocity": 112, "channel": 0}, {"type": "note_off", "time": 621, "note": 62, "velocity": 112, "channel": 0}, {"type": "note_on", "time": 62, "note": 65, "velocity": 109, "channel": 0}, {"type": "note_off", "time": 559, "note": 65, "velocity": 109, "channel": 0}, {"type": "note_on", "time": 0, "note": 67, "velocity": 116, "channel": 0}, {"type": "note_off", "time": 663, "note": 67, "velocity": 116, "channel": 0}, {"type": "note_on", "time": 62, "note": 70, "velocity": 107, "channel": 0}, {"type": "note_off", "time": 580, "note": 70, "velocity": 107, "channel": 0}, {"type": "note_on", "time": 0, "note": 72, "velocity": 118, "channel": 0}, {"type": "note_off", "time": 766, "note": 72, "velocity": 118, "channel": 0}, {"type": "note_on", "time": 207, "note": 72, "velocity": 116, "channel": 0}, {"type": "note_off", "time": 352, "note": 72, "velocity": 116, "channel": 0}, {"type": "note_on", "time": 82, "note": 74, "velocity": 121, "channel": 0}, {"type": "note_off", "time": 1512, "note": 74, "velocity": 121, "channel": 0}, {"type": "note_on", "time": 124, "note": 72, "velocity": 122, "channel": 0}, {"type": "note_off", "time": 974, "note": 72, "velocity": 122, "channel": 0}, {"type": "note_on", "time": 41, "note": 70, "velocity": 105, "channel": 0}, {"type": "note_off", "time": 1305, "note": 70, "velocity": 105, "channel": 0}, {"type": "note_on", "time": 0, "note": 71, "velocity": 97, "channel": 0}, {"type": "note_off", "time": 290, "note": 71, "velocity": 97, "channel": 0}, {"type": "note_on", "time": 103, "note": 72, "velocity": 119, "channel": 0}, {"type": "note_off", "time": 2963, "note": 72, "velocity": 119, "channel": 0}, {"type": "note_on", "time": 414, "note": 73, "velocity": 91, "channel": 0}, {"type": "note_off", "time": 518, "note": 73, "velocity": 91, "channel": 0}, {"type": "note_on", "time": 227, "note": 74, "velocity": 123, "channel": 0}, {"type": "note_off", "time": 1720, "note": 74, "velocity": 123, "channel": 0}, {"type": "note_on", "time": 62, "note": 67, "velocity": 90, "channel": 0}, {"type": "note_off", "time": 2735, "note": 67, "velocity": 90, "channel": 0}, {"type": "note_on", "time": 1181, "note": 67, "velocity": 83, "channel": 0}, {"type": "note_off", "time": 3978, "note": 67, "velocity": 83, "channel": 0}, {"type": "note_on", "time": 1305, "note": 67, "velocity": 89, "channel": 0}, {"type": "note_off", "time": 3129, "note": 67, "velocity": 89, "channel": 0}, {"type": "note_on", "time": 1782, "note": 67, "velocity": 89, "channel": 0}, {"type": "note_off", "time": 2549, "note": 67, "velocity": 89, "channel": 0}, {"type": "note_on", "time": 974, "note": 70, "velocity": 108, "channel": 0}, {"type": "note_off", "time": 870, "note": 70, "velocity": 108, "channel": 0}, {"type": "note_on", "time": 1657, "note": 74, "velocity": 109, "channel": 0}, {"type": "note_off", "time": 704, "note": 74, "velocity": 109, "channel": 0}, {"type": "note_on", "time": 911, "note": 79, "velocity": 104, "channel": 0}, {"type": "note_off", "time": 828, "note": 79, "velocity": 104, "channel": 0}, {"type": "note_on", "time": 7605, "note": 74, "velocity": 62, "channel": 0}, {"type": "note_off", "time": 145, "note": 74, "velocity": 62, "channel": 0}, {"type": "note_on", "time": 352, "note": 81, "velocity": 108, "channel": 0}, {"type": "note_off", "time": 6714, "note": 81, "velocity": 108, "channel": 0}, {"type": "note_on", "time": 41, "note": 79, "velocity": 110, "channel": 0}, {"type": "note_on", "time": 124, "note": 78, "velocity": 113, "channel": 0}, {"type": "note_off", "time": 0, "note": 79, "velocity": 110, "channel": 0}, {"type": "note_off", "time": 186, "note": 78, "velocity": 113, "channel": 0}, {"type": "note_on", "time": 10, "note": 77, "velocity": 119, "channel": 0}, {"type": "note_off", "time": 62, "note": 77, "velocity": 119, "channel": 0}, {"type": "note_on", "time": 10, "note": 76, "velocity": 123, "channel": 0}, {"type": "note_off", "time": 248, "note": 76, "velocity": 123, "channel": 0}, {"type": "note_on", "time": 1471, "note": 74, "velocity": 127, "channel": 0}, {"type": "note_off", "time": 538, "note": 74, "velocity": 127, "channel": 0}, {"type": "note_on", "time": 455, "note": 70, "velocity": 84, "channel": 0}, {"type": "note_off", "time": 2258, "note": 70, "velocity": 84, "channel": 0}, {"type": "note_on", "time": 1948, "note": 62, "velocity": 100, "channel": 0}, {"type": "note_off", "time": 704, "note": 62, "velocity": 100, "channel": 0}, {"type": "note_on", "time": 248, "note": 64, "velocity": 107, "channel": 0}, {"type": "note_off", "time": 1347, "note": 64, "velocity": 107, "channel": 0}, {"type": "note_on", "time": 248, "note": 67, "velocity": 109, "channel": 0}, {"type": "note_off", "time": 911, "note": 67, "velocity": 109, "channel": 0}, {"type": "note_on", "time": 0, "note": 72, "velocity": 103, "channel": 0}, {"type": "note_off", "time": 538, "note": 72, "velocity": 103, "channel": 0}, {"type": "note_on", "time": 124, "note": 74, "velocity": 113, "channel": 0}, {"type": "note_off", "time": 1823, "note": 74, "velocity": 113, "channel": 0}, {"type": "note_on", "time": 248, "note": 70, "velocity": 111, "channel": 0}, {"type": "note_off", "time": 746, "note": 70, "velocity": 111, "channel": 0}, {"type": "note_on", "time": 746, "note": 67, "velocity": 100, "channel": 0}, {"type": "note_off", "time": 849, "note": 67, "velocity": 100, "channel": 0}, {"type": "note_on", "time": 41, "note": 62, "velocity": 86, "channel": 0}, {"type": "note_off", "time": 1450, "note": 62, "velocity": 86, "channel": 0}, {"type": "note_on", "time": 746, "note": 73, "velocity": 66, "channel": 0}, {"type": "note_off", "time": 145, "note": 73, "velocity": 66, "channel": 0}, {"type": "note_on", "time": 207, "note": 74, "velocity": 114, "channel": 0}, {"type": "note_off", "time": 828, "note": 74, "velocity": 114, "channel": 0}, {"type": "note_on", "time": 331, "note": 73, "velocity": 79, "channel": 0}, {"type": "note_on", "time": 269, "note": 74, "velocity": 116, "channel": 0}, {"type": "note_off", "time": 0, "note": 73, "velocity": 79, "channel": 0}, {"type": "note_off", "time": 766, "note": 74, "velocity": 116, "channel": 0}, {"type": "note_on", "time": 62, "note": 73, "velocity": 91, "channel": 0}, {"type": "note_off", "time": 248, "note": 73, "velocity": 91, "channel": 0}, {"type": "note_on", "time": 82, "note": 74, "velocity": 117, "channel": 0}, {"type": "note_off", "time": 704, "note": 74, "velocity": 117, "channel": 0}, {"type": "note_on", "time": 455, "note": 73, "velocity": 83, "channel": 0}, {"type": "note_off", "time": 331, "note": 73, "velocity": 83, "channel": 0}, {"type": "note_on", "time": 41, "note": 74, "velocity": 118, "channel": 0}, {"type": "note_off", "time": 766, "note": 74, "velocity": 118, "channel": 0}, {"type": "note_on", "time": 0, "note": 73, "velocity": 111, "channel": 0}, {"type": "note_off", "time": 331, "note": 73, "velocity": 111, "channel": 0}, {"type": "note_on", "time": 0, "note": 74, "velocity": 115, "channel": 0}, {"type": "note_off", "time": 4372, "note": 74, "velocity": 115, "channel": 0}, {"type": "note_on", "time": 0, "note": 72, "velocity": 113, "channel": 0}, {"type": "note_off", "time": 331, "note": 72, "velocity": 113, "channel": 0}, {"type": "note_on", "time": 0, "note": 74, "velocity": 114, "channel": 0}, {"type": "note_off", "time": 227, "note": 74, "velocity": 114, "channel": 0}, {"type": "note_on", "time": 124, "note": 72, "velocity": 108, "channel": 0}, {"type": "note_off", "time": 455, "note": 72, "velocity": 108, "channel": 0}, {"type": "note_on", "time": 207, "note": 67, "velocity": 100, "channel": 0}, {"type": "note_off", "time": 600, "note": 67, "velocity": 100, "channel": 0}, {"type": "note_on", "time": 290, "note": 63, "velocity": 103, "channel": 0}, {"type": "note_off", "time": 725, "note": 63, "velocity": 103, "channel": 0}, {"type": "note_on", "time": 0, "note": 60, "velocity": 93, "channel": 0}, {"type": "note_off", "time": 1077, "note": 60, "velocity": 93, "channel": 0}, {"type": "note_on", "time": 518, "note": 60, "velocity": 90, "channel": 0}, {"type": "note_off", "time": 600, "note": 60, "velocity": 90, "channel": 0}, {"type": "note_on", "time": 3004, "note": 60, "velocity": 104, "channel": 0}, {"type": "note_off", "time": 393, "note": 60, "velocity": 104, "channel": 0}, {"type": "note_on", "time": 0, "note": 62, "velocity": 107, "channel": 0}, {"type": "note_off", "time": 331, "note": 62, "velocity": 107, "channel": 0}, {"type": "note_on", "time": 0, "note": 64, "velocity": 109, "channel": 0}, {"type": "note_off", "time": 103, "note": 64, "velocity": 109, "channel": 0}, {"type": "note_on", "time": 20, "note": 65, "velocity": 117, "channel": 0}, {"type": "note_off", "time": 186, "note": 65, "velocity": 117, "channel": 0}, {"type": "note_on", "time": 103, "note": 66, "velocity": 120, "channel": 0}, {"type": "note_off", "time": 207, "note": 66, "velocity": 120, "channel": 0}, {"type": "note_on", "time": 62, "note": 67, "velocity": 101, "channel": 0}, {"type": "note_off", "time": 2238, "note": 67, "velocity": 101, "channel": 0}, {"type": "note_on", "time": 227, "note": 72, "velocity": 122, "channel": 0}, {"type": "note_off", "time": 1015, "note": 72, "velocity": 122, "channel": 0}, {"type": "note_on", "time": 0, "note": 74, "velocity": 119, "channel": 0}, {"type": "note_off", "time": 1036, "note": 74, "velocity": 119, "channel": 0}, {"type": "note_on", "time": 124, "note": 75, "velocity": 124, "channel": 0}, {"type": "note_off", "time": 1243, "note": 75, "velocity": 124, "channel": 0}, {"type": "note_on", "time": 20, "note": 66, "velocity": 95, "channel": 0}, {"type": "note_off", "time": 3087, "note": 66, "velocity": 95, "channel": 0}, {"type": "note_on", "time": 248, "note": 62, "velocity": 109, "channel": 0}, {"type": "note_off", "time": 1720, "note": 62, "velocity": 109, "channel": 0}, {"type": "note_on", "time": 331, "note": 66, "velocity": 113, "channel": 0}, {"type": "note_off", "time": 1264, "note": 66, "velocity": 113, "channel": 0}, {"type": "note_on", "time": 290, "note": 69, "velocity": 101, "channel": 0}, {"type": "note_off", "time": 870, "note": 69, "velocity": 101, "channel": 0}, {"type": "note_on", "time": 20, "note": 74, "velocity": 109, "channel": 0}, {"type": "note_off", "time": 269, "note": 74, "velocity": 109, "channel": 0}, {"type": "note_on", "time": 62, "note": 75, "velocity": 119, "channel": 0}, {"type": "note_off", "time": 2300, "note": 75, "velocity": 119, "channel": 0}, {"type": "note_on", "time": 41, "note": 66, "velocity": 93, "channel": 0}, {"type": "note_off", "time": 2466, "note": 66, "velocity": 93, "channel": 0}, {"type": "note_on", "time": 1367, "note": 74, "velocity": 9, "channel": 0}, {"type": "note_off", "time": 1305, "note": 74, "velocity": 9, "channel": 0}, {"type": "note_on", "time": 207, "note": 75, "velocity": 119, "channel": 0}, {"type": "note_off", "time": 5035, "note": 75, "velocity": 119, "channel": 0}, {"type": "note_on", "time": 0, "note": 74, "velocity": 115, "channel": 0}, {"type": "note_off", "time": 1243, "note": 74, "velocity": 115, "channel": 0}, {"type": "note_on", "time": 82, "note": 70, "velocity": 88, "channel": 0}, {"type": "note_off", "time": 3543, "note": 70, "velocity": 88, "channel": 0}, {"type": "note_on", "time": 435, "note": 74, "velocity": 99, "channel": 0}, {"type": "note_off", "time": 4704, "note": 74, "velocity": 99, "channel": 0}, {"type": "note_on", "time": 1678, "note": 73, "velocity": 96, "channel": 0}, {"type": "note_off", "time": 373, "note": 73, "velocity": 96, "channel": 0}, {"type": "note_on", "time": 20, "note": 74, "velocity": 117, "channel": 0}, {"type": "note_off", "time": 932, "note": 74, "velocity": 117, "channel": 0}, {"type": "note_on", "time": 352, "note": 72, "velocity": 110, "channel": 0}, {"type": "note_off", "time": 994, "note": 72, "velocity": 110, "channel": 0}, {"type": "note_on", "time": 20, "note": 70, "velocity": 93, "channel": 0}, {"type": "note_off", "time": 911, "note": 70, "velocity": 93, "channel": 0}, {"type": "note_on", "time": 310, "note": 72, "velocity": 108, "channel": 0}, {"type": "note_off", "time": 994, "note": 72, "velocity": 108, "channel": 0}, {"type": "note_on", "time": 62, "note": 71, "velocity": 87, "channel": 0}, {"type": "note_off", "time": 373, "note": 71, "velocity": 87, "channel": 0}, {"type": "note_on", "time": 20, "note": 72, "velocity": 108, "channel": 0}, {"type": "note_off", "time": 2466, "note": 72, "velocity": 108, "channel": 0}, {"type": "note_on", "time": 20, "note": 74, "velocity": 115, "channel": 0}, {"type": "note_off", "time": 953, "note": 74, "velocity": 115, "channel": 0}, {"type": "note_on", "time": 41, "note": 70, "velocity": 80, "channel": 0}, {"type": "note_off", "time": 3232, "note": 70, "velocity": 80, "channel": 0}, {"type": "note_on", "time": 994, "note": 67, "velocity": 81, "channel": 0}, {"type": "note_off", "time": 3605, "note": 67, "velocity": 81, "channel": 0}, {"type": "note_on", "time": 1554, "note": 67, "velocity": 80, "channel": 0}, {"type": "note_off", "time": 3295, "note": 67, "velocity": 80, "channel": 0}, {"type": "note_on", "time": 1782, "note": 69, "velocity": 90, "channel": 0}, {"type": "note_off", "time": 455, "note": 69, "velocity": 90, "channel": 0}, {"type": "note_on", "time": 20, "note": 70, "velocity": 84, "channel": 0}, {"type": "note_off", "time": 2735, "note": 70, "velocity": 84, "channel": 0}, {"type": "note_on", "time": 1989, "note": 69, "velocity": 93, "channel": 0}, {"type": "note_off", "time": 186, "note": 69, "velocity": 93, "channel": 0}, {"type": "note_on", "time": 124, "note": 70, "velocity": 77, "channel": 0}, {"type": "note_off", "time": 3833, "note": 70, "velocity": 77, "channel": 0}, {"type": "note_on", "time": 974, "note": 69, "velocity": 94, "channel": 0}, {"type": "note_off", "time": 227, "note": 69, "velocity": 94, "channel": 0}, {"type": "note_on", "time": 20, "note": 70, "velocity": 87, "channel": 0}, {"type": "note_off", "time": 2756, "note": 70, "velocity": 87, "channel": 0}, {"type": "note_on", "time": 2196, "note": 69, "velocity": 103, "channel": 0}, {"type": "note_off", "time": 248, "note": 69, "velocity": 103, "channel": 0}, {"type": "note_on", "time": 103, "note": 70, "velocity": 85, "channel": 0}, {"type": "note_off", "time": 2341, "note": 70, "velocity": 85, "channel": 0}, {"type": "note_on", "time": 1885, "note": 73, "velocity": 57, "channel": 0}, {"type": "note_off", "time": 331, "note": 73, "velocity": 57, "channel": 0}, {"type": "note_on", "time": 20, "note": 74, "velocity": 116, "channel": 0}, {"type": "note_off", "time": 787, "note": 74, "velocity": 116, "channel": 0}, {"type": "note_on", "time": 41, "note": 72, "velocity": 104, "channel": 0}, {"type": "note_off", "time": 2279, "note": 72, "velocity": 104, "channel": 0}, {"type": "note_on", "time": 1844, "note": 74, "velocity": 109, "channel": 0}, {"type": "note_off", "time": 828, "note": 74, "velocity": 109, "channel": 0}, {"type": "note_on", "time": 0, "note": 67, "velocity": 84, "channel": 0}, {"type": "note_off", "time": 2880, "note": 67, "velocity": 84, "channel": 0}, {"type": "note_on", "time": 1492, "note": 70, "velocity": 90, "channel": 0}, {"type": "note_off", "time": 828, "note": 70, "velocity": 90, "channel": 0}, {"type": "note_on", "time": 145, "note": 74, "velocity": 112, "channel": 0}, {"type": "note_off", "time": 953, "note": 74, "velocity": 112, "channel": 0}, {"type": "note_on", "time": 621, "note": 70, "velocity": 111, "channel": 0}, {"type": "note_off", "time": 787, "note": 70, "velocity": 111, "channel": 0}, {"type": "note_on", "time": 186, "note": 74, "velocity": 116, "channel": 0}, {"type": "note_off", "time": 870, "note": 74, "velocity": 116, "channel": 0}, {"type": "note_on", "time": 497, "note": 74, "velocity": 118, "channel": 0}, {"type": "note_off", "time": 828, "note": 74, "velocity": 118, "channel": 0}, {"type": "note_on", "time": 373, "note": 74, "velocity": 116, "channel": 0}, {"type": "note_off", "time": 849, "note": 74, "velocity": 116, "channel": 0}, {"type": "note_on", "time": 559, "note": 74, "velocity": 115, "channel": 0}, {"type": "note_off", "time": 290, "note": 74, "velocity": 115, "channel": 0}, {"type": "note_on", "time": 41, "note": 75, "velocity": 122, "channel": 0}, {"type": "note_off", "time": 621, "note": 75, "velocity": 122, "channel": 0}, {"type": "note_on", "time": 331, "note": 74, "velocity": 108, "channel": 0}, {"type": "note_off", "time": 828, "note": 74, "velocity": 108, "channel": 0}, {"type": "note_on", "time": 538, "note": 74, "velocity": 78, "channel": 0}, {"type": "note_off", "time": 145, "note": 74, "velocity": 78, "channel": 0}, {"type": "note_on", "time": 145, "note": 75, "velocity": 120, "channel": 0}, {"type": "note_off", "time": 725, "note": 75, "velocity": 120, "channel": 0}, {"type": "note_on", "time": 186, "note": 74, "velocity": 107, "channel": 0}, {"type": "note_off", "time": 787, "note": 74, "velocity": 107, "channel": 0}, {"type": "note_on", "time": 518, "note": 74, "velocity": 80, "channel": 0}, {"type": "note_off", "time": 186, "note": 74, "velocity": 80, "channel": 0}, {"type": "note_on", "time": 20, "note": 75, "velocity": 118, "channel": 0}, {"type": "note_off", "time": 808, "note": 75, "velocity": 118, "channel": 0}, {"type": "note_on", "time": 455, "note": 76, "velocity": 120, "channel": 0}, {"type": "note_off", "time": 725, "note": 76, "velocity": 120, "channel": 0}, {"type": "note_on", "time": 621, "note": 77, "velocity": 119, "channel": 0}, {"type": "note_off", "time": 1056, "note": 77, "velocity": 119, "channel": 0}, {"type": "note_on", "time": 124, "note": 76, "velocity": 114, "channel": 0}, {"type": "note_off", "time": 5056, "note": 76, "velocity": 114, "channel": 0}, {"type": "note_on", "time": 0, "note": 70, "velocity": 82, "channel": 0}, {"type": "note_off", "time": 3833, "note": 70, "velocity": 82, "channel": 0}, {"type": "note_on", "time": 1492, "note": 76, "velocity": 111, "channel": 0}, {"type": "note_off", "time": 1575, "note": 76, "velocity": 111, "channel": 0}, {"type": "note_on", "time": 82, "note": 79, "velocity": 114, "channel": 0}, {"type": "note_off", "time": 911, "note": 79, "velocity": 114, "channel": 0}, {"type": "note_on", "time": 0, "note": 76, "velocity": 116, "channel": 0}, {"type": "note_off", "time": 1471, "note": 76, "velocity": 116, "channel": 0}, {"type": "note_on", "time": 20, "note": 70, "velocity": 104, "channel": 0}, {"type": "note_off", "time": 1077, "note": 70, "velocity": 104, "channel": 0}, {"type": "note_on", "time": 0, "note": 72, "velocity": 109, "channel": 0}, {"type": "note_off", "time": 2445, "note": 72, "velocity": 109, "channel": 0}, {"type": "note_on", "time": 82, "note": 72, "velocity": 110, "channel": 0}, {"type": "note_off", "time": 145, "note": 72, "velocity": 110, "channel": 0}, {"type": "note_on", "time": 0, "note": 74, "velocity": 111, "channel": 0}, {"type": "note_off", "time": 974, "note": 74, "velocity": 111, "channel": 0}, {"type": "note_on", "time": 435, "note": 67, "velocity": 104, "channel": 0}, {"type": "note_off", "time": 974, "note": 67, "velocity": 104, "channel": 0}, {"type": "note_on", "time": 0, "note": 70, "velocity": 90, "channel": 0}, {"type": "note_off", "time": 2507, "note": 70, "velocity": 90, "channel": 0}, {"type": "note_on", "time": 165, "note": 72, "velocity": 108, "channel": 0}, {"type": "note_off", "time": 891, "note": 72, "velocity": 108, "channel": 0}, {"type": "note_on", "time": 663, "note": 67, "velocity": 91, "channel": 0}, {"type": "note_off", "time": 2590, "note": 67, "velocity": 91, "channel": 0}, {"type": "note_on", "time": 1347, "note": 80, "velocity": 104, "channel": 0}, {"type": "note_off", "time": 600, "note": 80, "velocity": 104, "channel": 0}, {"type": "note_on", "time": 103, "note": 81, "velocity": 91, "channel": 0}, {"type": "note_off", "time": 3626, "note": 81, "velocity": 91, "channel": 0}, {"type": "note_on", "time": 62, "note": 79, "velocity": 102, "channel": 0}, {"type": "note_off", "time": 331, "note": 79, "velocity": 102, "channel": 0}, {"type": "note_on", "time": 62, "note": 81, "velocity": 92, "channel": 0}, {"type": "note_off", "time": 124, "note": 81, "velocity": 92, "channel": 0}, {"type": "note_on", "time": 186, "note": 79, "velocity": 114, "channel": 0}, {"type": "note_off", "time": 455, "note": 79, "velocity": 114, "channel": 0}, {"type": "note_on", "time": 103, "note": 76, "velocity": 110, "channel": 0}, {"type": "note_off", "time": 559, "note": 76, "velocity": 110, "channel": 0}, {"type": "note_on", "time": 0, "note": 74, "velocity": 98, "channel": 0}, {"type": "note_off", "time": 580, "note": 74, "velocity": 98, "channel": 0}, {"type": "note_on", "time": 62, "note": 70, "velocity": 95, "channel": 0}, {"type": "note_off", "time": 414, "note": 70, "velocity": 95, "channel": 0}, {"type": "note_on", "time": 103, "note": 69, "velocity": 84, "channel": 0}, {"type": "note_off", "time": 1844, "note": 69, "velocity": 84, "channel": 0}, {"type": "note_on", "time": 2611, "note": 67, "velocity": 114, "channel": 0}, {"type": "note_off", "time": 849, "note": 67, "velocity": 114, "channel": 0}, {"type": "note_on", "time": 476, "note": 72, "velocity": 118, "channel": 0}, {"type": "note_off", "time": 808, "note": 72, "velocity": 118, "channel": 0}, {"type": "note_on", "time": 642, "note": 72, "velocity": 120, "channel": 0}, {"type": "note_off", "time": 497, "note": 72, "velocity": 120, "channel": 0}, {"type": "note_on", "time": 310, "note": 72, "velocity": 118, "channel": 0}, {"type": "note_off", "time": 891, "note": 72, "velocity": 118, "channel": 0}, {"type": "note_on", "time": 248, "note": 72, "velocity": 113, "channel": 0}, {"type": "note_off", "time": 518, "note": 72, "velocity": 113, "channel": 0}, {"type": "note_on", "time": 290, "note": 72, "velocity": 112, "channel": 0}, {"type": "note_off", "time": 3087, "note": 72, "velocity": 112, "channel": 0}, {"type": "note_on", "time": 352, "note": 67, "velocity": 97, "channel": 0}, {"type": "note_off", "time": 538, "note": 67, "velocity": 97, "channel": 0}, {"type": "note_on", "time": 310, "note": 63, "velocity": 114, "channel": 0}, {"type": "note_off", "time": 642, "note": 63, "velocity": 114, "channel": 0}, {"type": "note_on", "time": 82, "note": 62, "velocity": 101, "channel": 0}, {"type": "note_off", "time": 455, "note": 62, "velocity": 101, "channel": 0}, {"type": "note_on", "time": 82, "note": 60, "velocity": 93, "channel": 0}, {"type": "note_off", "time": 2341, "note": 60, "velocity": 93, "channel": 0}, {"type": "note_on", "time": 3688, "note": 67, "velocity": 108, "channel": 0}, {"type": "note_off", "time": 559, "note": 67, "velocity": 108, "channel": 0}, {"type": "note_on", "time": 476, "note": 69, "velocity": 94, "channel": 0}, {"type": "note_off", "time": 787, "note": 69, "velocity": 94, "channel": 0}, {"type": "note_on", "time": 82, "note": 70, "velocity": 92, "channel": 0}, {"type": "note_off", "time": 497, "note": 70, "velocity": 92, "channel": 0}, {"type": "note_on", "time": 248, "note": 72, "velocity": 111, "channel": 0}, {"type": "note_off", "time": 683, "note": 72, "velocity": 111, "channel": 0}, {"type": "note_on", "time": 103, "note": 69, "velocity": 85, "channel": 0}, {"type": "note_off", "time": 3025, "note": 69, "velocity": 85, "channel": 0}, {"type": "note_on", "time": 186, "note": 62, "velocity": 104, "channel": 0}, {"type": "note_off", "time": 1554, "note": 62, "velocity": 104, "channel": 0}, {"type": "note_on", "time": 124, "note": 63, "velocity": 111, "channel": 0}, {"type": "note_off", "time": 1056, "note": 63, "velocity": 111, "channel": 0}, {"type": "note_on", "time": 0, "note": 60, "velocity": 96, "channel": 0}, {"type": "note_off", "time": 2756, "note": 60, "velocity": 96, "channel": 0}, {"type": "note_on", "time": 82, "note": 62, "velocity": 107, "channel": 0}, {"type": "note_off", "time": 1284, "note": 62, "velocity": 107, "channel": 0}, {"type": "note_on", "time": 62, "note": 63, "velocity": 111, "channel": 0}, {"type": "note_off", "time": 1056, "note": 63, "velocity": 111, "channel": 0}, {"type": "note_on", "time": 435, "note": 57, "velocity": 110, "channel": 0}, {"type": "note_off", "time": 2466, "note": 57, "velocity": 110, "channel": 0}, {"type": "note_on", "time": 0, "note": 60, "velocity": 105, "channel": 0}, {"type": "note_off", "time": 518, "note": 60, "velocity": 105, "channel": 0}, {"type": "note_on", "time": 82, "note": 63, "velocity": 109, "channel": 0}, {"type": "note_off", "time": 518, "note": 63, "velocity": 109, "channel": 0}, {"type": "note_on", "time": 82, "note": 66, "velocity": 108, "channel": 0}, {"type": "note_off", "time": 559, "note": 66, "velocity": 108, "channel": 0}, {"type": "note_on", "time": 41, "note": 69, "velocity": 101, "channel": 0}, {"type": "note_off", "time": 1740, "note": 69, "velocity": 101, "channel": 0}, {"type": "note_on", "time": 1222, "note": 74, "velocity": 106, "channel": 0}, {"type": "note_off", "time": 1056, "note": 74, "velocity": 106, "channel": 0}, {"type": "note_on", "time": 248, "note": 75, "velocity": 107, "channel": 0}, {"type": "note_off", "time": 1201, "note": 75, "velocity": 107, "channel": 0}, {"type": "note_on", "time": 207, "note": 74, "velocity": 109, "channel": 0}, {"type": "note_off", "time": 4652, "note": 74, "velocity": 109, "channel": 0}, {"type": "note_on", "time": 51, "note": 70, "velocity": 91, "channel": 0}, {"type": "note_off", "time": 3295, "note": 70, "velocity": 91, "channel": 0}, {"type": "note_on", "time": 20, "note": 73, "velocity": 108, "channel": 0}, {"type": "note_off", "time": 414, "note": 73, "velocity": 108, "channel": 0}, {"type": "note_on", "time": 82, "note": 74, "velocity": 111, "channel": 0}, {"type": "note_off", "time": 2155, "note": 74, "velocity": 111, "channel": 0}, {"type": "note_on", "time": 2362, "note": 73, "velocity": 92, "channel": 0}, {"type": "note_off", "time": 290, "note": 73, "velocity": 92, "channel": 0}, {"type": "note_on", "time": 145, "note": 74, "velocity": 114, "channel": 0}, {"type": "note_off", "time": 476, "note": 74, "velocity": 114, "channel": 0}, {"type": "note_on", "time": 62, "note": 72, "velocity": 111, "channel": 0}, {"type": "note_off", "time": 207, "note": 72, "velocity": 111, "channel": 0}, {"type": "note_on", "time": 62, "note": 74, "velocity": 117, "channel": 0}, {"type": "note_off", "time": 165, "note": 74, "velocity": 117, "channel": 0}, {"type": "note_on", "time": 124, "note": 72, "velocity": 120, "channel": 0}, {"type": "note_off", "time": 290, "note": 72, "velocity": 120, "channel": 0}, {"type": "note_on", "time": 269, "note": 70, "velocity": 106, "channel": 0}, {"type": "note_off", "time": 269, "note": 70, "velocity": 106, "channel": 0}, {"type": "note_on", "time": 248, "note": 71, "velocity": 99, "channel": 0}, {"type": "note_off", "time": 248, "note": 71, "velocity": 99, "channel": 0}, {"type": "note_on", "time": 290, "note": 74, "velocity": 117, "channel": 0}, {"type": "note_off", "time": 621, "note": 74, "velocity": 117, "channel": 0}, {"type": "note_on", "time": 145, "note": 72, "velocity": 115, "channel": 0}, {"type": "note_off", "time": 207, "note": 72, "velocity": 115, "channel": 0}, {"type": "note_on", "time": 0, "note": 74, "velocity": 119, "channel": 0}, {"type": "note_off", "time": 227, "note": 74, "velocity": 119, "channel": 0}, {"type": "note_on", "time": 62, "note": 72, "velocity": 116, "channel": 0}, {"type": "note_off", "time": 331, "note": 72, "velocity": 116, "channel": 0}, {"type": "note_on", "time": 62, "note": 70, "velocity": 110, "channel": 0}, {"type": "note_off", "time": 455, "note": 70, "velocity": 110, "channel": 0}, {"type": "note_on", "time": 103, "note": 72, "velocity": 115, "channel": 0}, {"type": "note_off", "time": 455, "note": 72, "velocity": 115, "channel": 0}, {"type": "note_on", "time": 41, "note": 74, "velocity": 116, "channel": 0}, {"type": "note_off", "time": 870, "note": 74, "velocity": 116, "channel": 0}, {"type": "note_on", "time": 20, "note": 72, "velocity": 97, "channel": 0}, {"type": "note_off", "time": 186, "note": 72, "velocity": 97, "channel": 0}, {"type": "note_on", "time": 62, "note": 74, "velocity": 116, "channel": 0}, {"type": "note_off", "time": 165, "note": 74, "velocity": 116, "channel": 0}, {"type": "note_on", "time": 41, "note": 72, "velocity": 116, "channel": 0}, {"type": "note_off", "time": 331, "note": 72, "velocity": 116, "channel": 0}, {"type": "note_on", "time": 186, "note": 70, "velocity": 97, "channel": 0}, {"type": "note_off", "time": 559, "note": 70, "velocity": 97, "channel": 0}, {"type": "note_on", "time": 103, "note": 72, "velocity": 116, "channel": 0}, {"type": "note_off", "time": 746, "note": 72, "velocity": 116, "channel": 0}, {"type": "note_on", "time": 0, "note": 74, "velocity": 109, "channel": 0}, {"type": "note_off", "time": 683, "note": 74, "velocity": 109, "channel": 0}, {"type": "note_on", "time": 41, "note": 67, "velocity": 101, "channel": 0}, {"type": "note_off", "time": 891, "note": 67, "velocity": 101, "channel": 0}, {"type": "note_on", "time": 165, "note": 70, "velocity": 100, "channel": 0}, {"type": "note_off", "time": 911, "note": 70, "velocity": 100, "channel": 0}, {"type": "note_on", "time": 124, "note": 72, "velocity": 114, "channel": 0}, {"type": "note_off", "time": 1139, "note": 72, "velocity": 114, "channel": 0}, {"type": "note_on", "time": 0, "note": 67, "velocity": 93, "channel": 0}, {"type": "note_off", "time": 2403, "note": 67, "velocity": 93, "channel": 0}, {"type": "note_on", "time": 1056, "note": 67, "velocity": 107, "channel": 0}, {"type": "note_off", "time": 663, "note": 67, "velocity": 107, "channel": 0}, {"type": "note_on", "time": 269, "note": 69, "velocity": 102, "channel": 0}, {"type": "note_off", "time": 663, "note": 69, "velocity": 102, "channel": 0}, {"type": "note_on", "time": 238, "note": 70, "velocity": 88, "channel": 0}, {"type": "note_off", "time": 4010, "note": 70, "velocity": 88, "channel": 0}, {"type": "note_on", "time": 0, "note": 64, "velocity": 99, "channel": 0}, {"type": "note_off", "time": 2549, "note": 64, "velocity": 99, "channel": 0}, {"type": "note_on", "time": 3357, "note": 65, "velocity": 9, "channel": 0}, {"type": "note_off", "time": 2714, "note": 65, "velocity": 9, "channel": 0}, {"type": "note_on", "time": 269, "note": 62, "velocity": 106, "channel": 0}, {"type": "note_off", "time": 621, "note": 62, "velocity": 106, "channel": 0}, {"type": "note_on", "time": 145, "note": 65, "velocity": 112, "channel": 0}, {"type": "note_off", "time": 683, "note": 65, "velocity": 112, "channel": 0}, {"type": "note_on", "time": 62, "note": 67, "velocity": 109, "channel": 0}, {"type": "note_off", "time": 1554, "note": 67, "velocity": 109, "channel": 0}, {"type": "note_on", "time": 2507, "note": 67, "velocity": 93, "channel": 0}, {"type": "note_off", "time": 621, "note": 67, "velocity": 93, "channel": 0}, {"type": "note_on", "time": 145, "note": 70, "velocity": 110, "channel": 0}, {"type": "note_off", "time": 559, "note": 70, "velocity": 110, "channel": 0}, {"type": "note_on", "time": 82, "note": 72, "velocity": 116, "channel": 0}, {"type": "note_off", "time": 642, "note": 72, "velocity": 116, "channel": 0}, {"type": "note_on", "time": 207, "note": 74, "velocity": 110, "channel": 0}, {"type": "note_off", "time": 1575, "note": 74, "velocity": 110, "channel": 0}, {"type": "note_on", "time": 82, "note": 72, "velocity": 100, "channel": 0}, {"type": "note_off", "time": 269, "note": 72, "velocity": 100, "channel": 0}, {"type": "note_on", "time": 0, "note": 75, "velocity": 118, "channel": 0}, {"type": "note_off", "time": 1948, "note": 75, "velocity": 118, "channel": 0}, {"type": "note_on", "time": 186, "note": 74, "velocity": 117, "channel": 0}, {"type": "note_off", "time": 207, "note": 74, "velocity": 117, "channel": 0}, {"type": "note_on", "time": 62, "note": 75, "velocity": 114, "channel": 0}, {"type": "note_off", "time": 227, "note": 75, "velocity": 114, "channel": 0}, {"type": "note_on", "time": 62, "note": 74, "velocity": 120, "channel": 0}, {"type": "note_off", "time": 227, "note": 74, "velocity": 120, "channel": 0}, {"type": "note_on", "time": 103, "note": 72, "velocity": 121, "channel": 0}, {"type": "note_off", "time": 518, "note": 72, "velocity": 121, "channel": 0}, {"type": "note_on", "time": 124, "note": 70, "velocity": 98, "channel": 0}, {"type": "note_off", "time": 331, "note": 70, "velocity": 98, "channel": 0}, {"type": "note_on", "time": 103, "note": 69, "velocity": 93, "channel": 0}, {"type": "note_off", "time": 331, "note": 69, "velocity": 93, "channel": 0}, {"type": "note_on", "time": 41, "note": 67, "velocity": 100, "channel": 0}, {"type": "note_off", "time": 538, "note": 67, "velocity": 100, "channel": 0}, {"type": "note_on", "time": 82, "note": 66, "velocity": 95, "channel": 0}, {"type": "note_off", "time": 704, "note": 66, "velocity": 95, "channel": 0}, {"type": "note_on", "time": 145, "note": 69, "velocity": 98, "channel": 0}, {"type": "note_on", "time": 4476, "note": 68, "velocity": 111, "channel": 0}, {"type": "note_off", "time": 0, "note": 69, "velocity": 98, "channel": 0}, {"type": "note_off", "time": 248, "note": 68, "velocity": 111, "channel": 0}, {"type": "note_on", "time": 82, "note": 67, "velocity": 106, "channel": 0}, {"type": "note_off", "time": 269, "note": 67, "velocity": 106, "channel": 0}, {"type": "note_on", "time": 82, "note": 66, "velocity": 110, "channel": 0}, {"type": "note_off", "time": 290, "note": 66, "velocity": 110, "channel": 0}, {"type": "note_on", "time": 62, "note": 64, "velocity": 112, "channel": 0}, {"type": "note_off", "time": 642, "note": 64, "velocity": 112, "channel": 0}, {"type": "note_on", "time": 0, "note": 63, "velocity": 106, "channel": 0}, {"type": "note_off", "time": 290, "note": 63, "velocity": 106, "channel": 0}, {"type": "note_on", "time": 62, "note": 62, "velocity": 100, "channel": 0}, {"type": "note_off", "time": 3792, "note": 62, "velocity": 100, "channel": 0}, {"type": "note_on", "time": 1347, "note": 61, "velocity": 106, "channel": 0}, {"type": "note_off", "time": 414, "note": 61, "velocity": 106, "channel": 0}, {"type": "note_on", "time": 41, "note": 62, "velocity": 103, "channel": 0}, {"type": "note_off", "time": 808, "note": 62, "velocity": 103, "channel": 0}, {"type": "note_on", "time": 145, "note": 66, "velocity": 118, "channel": 0}, {"type": "note_off", "time": 497, "note": 66, "velocity": 118, "channel": 0}, {"type": "note_on", "time": 124, "note": 67, "velocity": 104, "channel": 0}, {"type": "note_off", "time": 1243, "note": 67, "velocity": 104, "channel": 0}, {"type": "note_on", "time": 41, "note": 66, "velocity": 105, "channel": 0}, {"type": "note_off", "time": 290, "note": 66, "velocity": 105, "channel": 0}, {"type": "note_on", "time": 62, "note": 65, "velocity": 107, "channel": 0}, {"type": "note_off", "time": 290, "note": 65, "velocity": 107, "channel": 0}, {"type": "note_on", "time": 20, "note": 64, "velocity": 104, "channel": 0}, {"type": "note_off", "time": 352, "note": 64, "velocity": 104, "channel": 0}, {"type": "note_on", "time": 41, "note": 62, "velocity": 98, "channel": 0}, {"type": "note_off", "time": 414, "note": 62, "velocity": 98, "channel": 0}, {"type": "note_on", "time": 0, "note": 61, "velocity": 97, "channel": 0}, {"type": "note_off", "time": 455, "note": 61, "velocity": 97, "channel": 0}, {"type": "note_on", "time": 0, "note": 59, "velocity": 94, "channel": 0}, {"type": "note_off", "time": 476, "note": 59, "velocity": 94, "channel": 0}, {"type": "note_on", "time": 62, "note": 60, "velocity": 100, "channel": 0}, {"type": "note_off", "time": 497, "note": 60, "velocity": 100, "channel": 0}, {"type": "note_on", "time": 20, "note": 62, "velocity": 103, "channel": 0}, {"type": "note_off", "time": 373, "note": 62, "velocity": 103, "channel": 0}, {"type": "note_on", "time": 20, "note": 65, "velocity": 103, "channel": 0}, {"type": "note_off", "time": 393, "note": 65, "velocity": 103, "channel": 0}, {"type": "note_on", "time": 0, "note": 69, "velocity": 94, "channel": 0}, {"type": "note_off", "time": 207, "note": 69, "velocity": 94, "channel": 0}, {"type": "note_on", "time": 0, "note": 74, "velocity": 103, "channel": 0}, {"type": "note_off", "time": 331, "note": 74, "velocity": 103, "channel": 0}, {"type": "note_on", "time": 41, "note": 76, "velocity": 114, "channel": 0}, {"type": "note_off", "time": 2072, "note": 76, "velocity": 114, "channel": 0}, {"type": "note_on", "time": 165, "note": 77, "velocity": 108, "channel": 0}, {"type": "note_off", "time": 2279, "note": 77, "velocity": 108, "channel": 0}, {"type": "note_on", "time": 331, "note": 79, "velocity": 115, "channel": 0}, {"type": "note_off", "time": 1761, "note": 79, "velocity": 115, "channel": 0}, {"type": "note_on", "time": 41, "note": 78, "velocity": 112, "channel": 0}, {"type": "note_off", "time": 352, "note": 78, "velocity": 112, "channel": 0}, {"type": "note_on", "time": 103, "note": 79, "velocity": 99, "channel": 0}, {"type": "note_off", "time": 8911, "note": 79, "velocity": 99, "channel": 0}, {"type": "end_of_track", "time": 0}]]}