{"ticks_per_beat": 840, "tracks": [[{"type": "track_name", "name": "Melody", "time": 0}, {"type": "set_tempo", "tempo": 845070, "time": 0}, {"type": "key_signature", "key": "Bb", "time": 0}, {"type": "time_signature", "numerator": 4, "denominator": 4, "clocks_per_click": 24, "notated_32nd_notes_per_beat": 8, "time": 0}, {"type": "note_on", "time": 5169, "note": 77, "velocity": 123, "channel": 0}, {"type": "note_off", "time": 202, "note": 77, "velocity": 123, "channel": 0}, {"type": "note_on", "time": 202, "note": 77, "velocity": 122, "channel": 0}, {"type": "note_off", "time": 284, "note": 77, "velocity": 122, "channel": 0}, {"type": "note_on", "time": 97, "note": 73, "velocity": 121, "channel": 0}, {"type": "note_off", "time": 267, "note": 73, "velocity": 121, "channel": 0}, {"type": "note_on", "time": 227, "note": 74, "velocity": 118, "channel": 0}, {"type": "note_off", "time": 292, "note": 74, "velocity": 118, "channel": 0}, {"type": "note_on", "time": 8, "note": 75, "velocity": 116, "channel": 0}, {"type": "note_off", "time": 89, "note": 75, "velocity": 116, "channel": 0}, {"type": "note_on", "time": 0, "note": 77, "velocity": 113, "channel": 0}, {"type": "note_off", "time": 1306, "note": 77, "velocity": 113, "channel": 0}, {"type": "note_on", "time": 24, "note": 74, "velocity": 117, "channel": 0}, {"type": "note_off", "time": 129, "note": 74, "velocity": 117, "channel": 0}, {"type": "note_on", "time": 8, "note": 72, "velocity": 111, "channel": 0}, {"type": "note_off", "time": 105, "note": 72, "velocity": 111, "channel": 0}, {"type": "note_on", "time": 32, "note": 70, "velocity": 98, "channel": 0}, {"type": "note_off", "time": 97, "note": 70, "velocity": 98, "channel": 0}, {"type": "note_on", "time": 40, "note": 65, "velocity": 94, "channel": 0}, {"type": "note_off", "time": 738, "note": 65, "velocity": 94, "channel": 0}, {"type": "note_on", "time": 826, "note": 77, "velocity": 78, "channel": 0}, {"type": "note_off", "time": 81, "note": 77, "velocity": 78, "channel": 0}, {"type": "note_on", "time": 89, "note": 79, "velocity": 108, "channel": 0}, {"type": "note_off", "time": 2052, "note": 79, "velocity": 108, "channel": 0}, {"type": "note_on", "time": 9, "note": 74, "velocity": 111, "channel": 0}, {"type": "note_off", "time": 253, "note": 74, "velocity": 111, "channel": 0}, {"type": "note_on", "time": 23, "note": 75, "velocity": 114, "channel": 0}, {"type": "note_off", "time": 271, "note": 75, "velocity": 114, "channel": 0}, {"type": "note_on", "time": 5, "note": 74, "velocity": 109, "channel": 0}, {"type": "note_off", "time": 300, "note": 74, "velocity": 109, "channel": 0}, {"type": "note_on", "time": 5, "note": 75, "velocity": 115, "channel": 0}, {"type": "note_off", "time": 155, "note": 75, "velocity": 115, "channel": 0}, {"type": "note_on", "time": 17, "note": 74, "velocity": 112, "channel": 0}, {"type": "note_off", "time": 173, "note": 74, "velocity": 112, "channel": 0}, {"type": "note_on", "time": 5, "note": 75, "velocity": 115, "channel": 0}, {"type": "note_off", "time": 201, "note": 75, "velocity": 115, "channel": 0}, {"type": "note_on", "time": 5, "note": 74, "velocity": 107, "channel": 0}, {"type": "note_off", "time": 213, "note": 74, "velocity": 107, "channel": 0}, {"type": "note_on", "time": 11, "note": 75, "velocity": 117, "channel": 0}, {"type": "note_off", "time": 115, "note": 75, "velocity": 117, "channel": 0}, {"type": "note_on", "time": 17, "note": 74, "velocity": 105, "channel": 0}, {"type": "note_off", "time": 219, "note": 74, "velocity": 105, "channel": 0}, {"type": "note_on", "time": 5, "note": 75, "velocity": 118, "channel": 0}, {"type": "note_off", "time": 126, "note": 75, "velocity": 118, "channel": 0}, {"type": "note_on", "time": 34, "note": 74, "velocity": 105, "channel": 0}, {"type": "note_off", "time": 190, "note": 74, "velocity": 105, "channel": 0}, {"type": "note_on", "time": 0, "note": 75, "velocity": 116, "channel": 0}, {"type": "note_off", "time": 161, "note": 75, "velocity": 116, "channel": 0}, {"type": "note_on", "time": 0, "note": 74, "velocity": 113, "channel": 0}, {"type": "note_off", "time": 190, "note": 74, "velocity": 113, "channel": 0}, {"type": "note_on", "time": 28, "note": 75, "velocity": 111, "channel": 0}, {"type": "note_off", "time": 952, "note": 75, "velocity": 111, "channel": 0}, {"type": "note_on", "time": 34, "note": 74, "velocity": 108, "channel": 0}, {"type": "note_off", "time": 225, "note": 74, "velocity": 108, "channel": 0}, {"type": "note_on", "time": 28, "note": 75, "velocity": 111, "channel": 0}, {"type": "note_off", "time": 305, "note": 75, "velocity": 111, "channel": 0}, {"type": "note_on", "time": 17, "note": 74, "velocity": 109, "channel": 0}, {"type": "note_off", "time": 167, "note": 74, "velocity": 109, "channel": 0}, {"type": "note_on", "time": 40, "note": 70, "velocity": 102, "channel": 0}, {"type": "note_off", "time": 219, "note": 70, "velocity": 102, "channel": 0}, {"type": "note_on", "time": 0, "note": 68, "velocity": 101, "channel": 0}, {"type": "note_off", "time": 1257, "note": 68, "velocity": 101, "channel": 0}, {"type": "note_on", "time": 288, "note": 78, "velocity": 118, "channel": 0}, {"type": "note_off", "time": 103, "note": 78, "velocity": 118, "channel": 0}, {"type": "note_on", "time": 11, "note": 79, "velocity": 115, "channel": 0}, {"type": "note_off", "time": 259, "note": 79, "velocity": 115, "channel": 0}, {"type": "note_on", "time": 57, "note": 78, "velocity": 122, "channel": 0}, {"type": "note_off", "time": 86, "note": 78, "velocity": 122, "channel": 0}, {"type": "note_on", "time": 0, "note": 79, "velocity": 114, "channel": 0}, {"type": "note_off", "time": 207, "note": 79, "velocity": 114, "channel": 0}, {"type": "note_on", "time": 46, "note": 78, "velocity": 111, "channel": 0}, {"type": "note_off", "time": 69, "note": 78, "velocity": 111, "channel": 0}, {"type": "note_on", "time": 17, "note": 79, "velocity": 110, "channel": 0}, {"type": "note_off", "time": 155, "note": 79, "velocity": 110, "channel": 0}, {"type": "note_on", "time": 46, "note": 79, "velocity": 109, "channel": 0}, {"type": "note_off", "time": 196, "note": 79, "velocity": 109, "channel": 0}, {"type": "note_on", "time": 35, "note": 77, "velocity": 99, "channel": 0}, {"type": "note_off", "time": 62, "note": 77, "velocity": 99, "channel": 0}, {"type": "note_on", "time": 0, "note": 79, "velocity": 109, "channel": 0}, {"type": "note_off", "time": 75, "note": 79, "velocity": 109, "channel": 0}, {"type": "note_on", "time": 0, "note": 77, "velocity": 110, "channel": 0}, {"type": "note_off", "time": 761, "note": 77, "velocity": 110, "channel": 0}, {"type": "note_on", "time": 5, "note": 76, "velocity": 118, "channel": 0}, {"type": "note_off", "time": 75, "note": 76, "velocity": 118, "channel": 0}, {"type": "note_on", "time": 5, "note": 75, "velocity": 116, "channel": 0}, {"type": "note_off", "time": 80, "note": 75, "velocity": 116, "channel": 0}, {"type": "note_on", "time": 17, "note": 74, "velocity": 109, "channel": 0}, {"type": "note_off", "time": 80, "note": 74, "velocity": 109, "channel": 0}, {"type": "note_on", "time": 11, "note": 70, "velocity": 104, "channel": 0}, {"type": "note_off", "time": 80, "note": 70, "velocity": 104, "channel": 0}, {"type": "note_on", "time": 28, "note": 67, "velocity": 106, "channel": 0}, {"type": "note_off", "time": 92, "note": 67, "velocity": 106, "channel": 0}, {"type": "note_on", "time": 23, "note": 66, "velocity": 115, "channel": 0}, {"type": "note_off", "time": 77, "note": 66, "velocity": 115, "channel": 0}, {"type": "note_on", "time": 20, "note": 64, "velocity": 119, "channel": 0}, {"type": "note_off", "time": 57, "note": 64, "velocity": 119, "channel": 0}, {"type": "note_on", "time": 17, "note": 63, "velocity": 121, "channel": 0}, {"type": "note_off", "time": 75, "note": 63, "velocity": 121, "channel": 0}, {"type": "note_on", "time": 0, "note": 62, "velocity": 120, "channel": 0}, {"type": "note_off", "time": 103, "note": 62, "velocity": 120, "channel": 0}, {"type": "note_on", "time": 11, "note": 61, "velocity": 115, "channel": 0}, {"type": "note_off", "time": 103, "note": 61, "velocity": 115, "channel": 0}, {"type": "note_on", "time": 5, "note": 67, "velocity": 106, "channel": 0}, {"type": "note_off", "time": 853, "note": 67, "velocity": 106, "channel": 0}, {"type": "note_on", "time": 444, "note": 67, "velocity": 109, "channel": 0}, {"type": "note_off", "time": 184, "note": 67, "velocity": 109, "channel": 0}, {"type": "note_on", "time": 23, "note": 70, "velocity": 100, "channel": 0}, {"type": "note_off", "time": 207, "note": 70, "velocity": 100, "channel": 0}, {"type": "note_on", "time": 34, "note": 72, "velocity": 123, "channel": 0}, {"type": "note_off", "time": 86, "note": 72, "velocity": 123, "channel": 0}, {"type": "note_on", "time": 5, "note": 73, "velocity": 118, "channel": 0}, {"type": "note_off", "time": 126, "note": 73, "velocity": 118, "channel": 0}, {"type": "note_on", "time": 5, "note": 70, "velocity": 101, "channel": 0}, {"type": "note_off", "time": 92, "note": 70, "velocity": 101, "channel": 0}, {"type": "note_on", "time": 11, "note": 72, "velocity": 116, "channel": 0}, {"type": "note_off", "time": 155, "note": 72, "velocity": 116, "channel": 0}, {"type": "note_on", "time": 0, "note": 70, "velocity": 96, "channel": 0}, {"type": "note_off", "time": 98, "note": 70, "velocity": 96, "channel": 0}, {"type": "note_on", "time": 5, "note": 72, "velocity": 113, "channel": 0}, {"type": "note_off", "time": 98, "note": 72, "velocity": 113, "channel": 0}, {"type": "note_on", "time": 5, "note": 73, "velocity": 120, "channel": 0}, {"type": "note_off", "time": 265, "note": 73, "velocity": 120, "channel": 0}, {"type": "note_on", "time": 23, "note": 70, "velocity": 101, "channel": 0}, {"type": "note_off", "time": 86, "note": 70, "velocity": 101, "channel": 0}, {"type": "note_on", "time": 11, "note": 72, "velocity": 114, "channel": 0}, {"type": "note_off", "time": 98, "note": 72, "velocity": 114, "channel": 0}, {"type": "note_on", "time": 46, "note": 70, "velocity": 100, "channel": 0}, {"type": "note_off", "time": 86, "note": 70, "velocity": 100, "channel": 0}, {"type": "note_on", "time": 0, "note": 72, "velocity": 120, "channel": 0}, {"type": "note_off", "time": 86, "note": 72, "velocity": 120, "channel": 0}, {"type": "note_on", "time": 5, "note": 73, "velocity": 116, "channel": 0}, {"type": "note_off", "time": 98, "note": 73, "velocity": 116, "channel": 0}, {"type": "note_on", "time": 0, "note": 70, "velocity": 97, "channel": 0}, {"type": "note_on", "time": 92, "note": 72, "velocity": 111, "channel": 0}, {"type": "note_off", "time": 0, "note": 70, "velocity": 97, "channel": 0}, {"type": "note_off", "time": 126, "note": 72, "velocity": 111, "channel": 0}, {"type": "note_on", "time": 17, "note": 70, "velocity": 102, "channel": 0}, {"type": "note_off", "time": 69, "note": 70, "velocity": 102, "channel": 0}, {"type": "note_on", "time": 0, "note": 72, "velocity": 122, "channel": 0}, {"type": "note_off", "time": 201, "note": 72, "velocity": 122, "channel": 0}, {"type": "note_on", "time": 23, "note": 73, "velocity": 115, "channel": 0}, {"type": "note_off", "time": 253, "note": 73, "velocity": 115, "channel": 0}, {"type": "note_on", "time": 11, "note": 72, "velocity": 114, "channel": 0}, {"type": "note_off", "time": 86, "note": 72, "velocity": 114, "channel": 0}, {"type": "note_on", "time": 5, "note": 70, "velocity": 103, "channel": 0}, {"type": "note_off", "time": 178, "note": 70, "velocity": 103, "channel": 0}, {"type": "note_on", "time": 28, "note": 65, "velocity": 115, "channel": 0}, {"type": "note_off", "time": 126, "note": 65, "velocity": 115, "channel": 0}, {"type": "note_on", "time": 11, "note": 63, "velocity": 116, "channel": 0}, {"type": "note_off", "time": 121, "note": 63, "velocity": 116, "channel": 0}, {"type": "note_on", "time": 28, "note": 61, "velocity": 112, "channel": 0}, {"type": "note_off", "time": 115, "note": 61, "velocity": 112, "channel": 0}, {"type": "note_on", "time": 11, "note": 62, "velocity": 116, "channel": 0}, {"type": "note_off", "time": 138, "note": 62, "velocity": 116, "channel": 0}, {"type": "note_on", "time": 34, "note": 70, "velocity": 103, "channel": 0}, {"type": "note_off", "time": 294, "note": 70, "velocity": 103, "channel": 0}, {"type": "note_on", "time": 40, "note": 70, "velocity": 96, "channel": 0}, {"type": "note_off", "time": 1102, "note": 70, "velocity": 96, "channel": 0}, {"type": "note_on", "time": 11, "note": 67, "velocity": 102, "channel": 0}, {"type": "note_on", "time": 109, "note": 65, "velocity": 108, "channel": 0}, {"type": "note_off", "time": 0, "note": 67, "velocity": 102, "channel": 0}, {"type": "note_off", "time": 51, "note": 65, "velocity": 108, "channel": 0}, {"type": "note_on", "time": 0, "note": 61, "velocity": 109, "channel": 0}, {"type": "note_off", "time": 109, "note": 61, "velocity": 109, "channel": 0}, {"type": "note_on", "time": 5, "note": 62, "velocity": 120, "channel": 0}, {"type": "note_off", "time": 178, "note": 62, "velocity": 120, "channel": 0}, {"type": "note_on", "time": 17, "note": 65, "velocity": 100, "channel": 0}, {"type": "note_off", "time": 848, "note": 65, "velocity": 100, "channel": 0}, {"type": "note_on", "time": 496, "note": 67, "velocity": 112, "channel": 0}, {"type": "note_off", "time": 184, "note": 67, "velocity": 112, "channel": 0}, {"type": "note_on", "time": 109, "note": 70, "velocity": 96, "channel": 0}, {"type": "note_off", "time": 559, "note": 70, "velocity": 96, "channel": 0}, {"type": "note_on", "time": 317, "note": 72, "velocity": 120, "channel": 0}, {"type": "note_off", "time": 51, "note": 72, "velocity": 120, "channel": 0}, {"type": "note_on", "time": 0, "note": 73, "velocity": 124, "channel": 0}, {"type": "note_off", "time": 126, "note": 73, "velocity": 124, "channel": 0}, {"type": "note_on", "time": 126, "note": 74, "velocity": 117, "channel": 0}, {"type": "note_off", "time": 150, "note": 74, "velocity": 117, "channel": 0}, {"type": "note_on", "time": 80, "note": 75, "velocity": 121, "channel": 0}, {"type": "note_off", "time": 178, "note": 75, "velocity": 121, "channel": 0}, {"type": "note_on", "time": 23, "note": 74, "velocity": 117, "channel": 0}, {"type": "note_off", "time": 115, "note": 74, "velocity": 117, "channel": 0}, {"type": "note_on", "time": 28, "note": 73, "velocity": 113, "channel": 0}, {"type": "note_off", "time": 121, "note": 73, "velocity": 113, "channel": 0}, {"type": "note_on", "time": 28, "note": 74, "velocity": 115, "channel": 0}, {"type": "note_off", "time": 132, "note": 74, "velocity": 115, "channel": 0}, {"type": "note_on", "time": 23, "note": 75, "velocity": 122, "channel": 0}, {"type": "note_off", "time": 126, "note": 75, "velocity": 122, "channel": 0}, {"type": "note_on", "time": 34, "note": 74, "velocity": 112, "channel": 0}, {"type": "note_off", "time": 144, "note": 74, "velocity": 112, "channel": 0}, {"type": "note_on", "time": 23, "note": 73, "velocity": 114, "channel": 0}, {"type": "note_off", "time": 126, "note": 73, "velocity": 114, "channel": 0}, {"type": "note_on", "time": 40, "note": 74, "velocity": 118, "channel": 0}, {"type": "note_off", "time": 126, "note": 74, "velocity": 118, "channel": 0}, {"type": "note_on", "time": 51, "note": 74, "velocity": 114, "channel": 0}, {"type": "note_off", "time": 132, "note": 74, "velocity": 114, "channel": 0}, {"type": "note_on", "time": 0, "note": 75, "velocity": 120, "channel": 0}, {"type": "note_off", "time": 513, "note": 75, "velocity": 120, "channel": 0}, {"type": "note_on", "time": 17, "note": 73, "velocity": 108, "channel": 0}, {"type": "note_off", "time": 57, "note": 73, "velocity": 108, "channel": 0}, {"type": "note_on", "time": 0, "note": 75, "velocity": 124, "channel": 0}, {"type": "note_off", "time": 63, "note": 75, "velocity": 124, "channel": 0}, {"type": "note_on", "time": 5, "note": 74, "velocity": 118, "channel": 0}, {"type": "note_off", "time": 80, "note": 74, "velocity": 118, "channel": 0}, {"type": "note_on", "time": 94, "note": 72, "velocity": 105, "channel": 0}, {"type": "note_off", "time": 77, "note": 72, "velocity": 105, "channel": 0}, {"type": "note_on", "time": 40, "note": 70, "velocity": 100, "channel": 0}, {"type": "note_off", "time": 60, "note": 70, "velocity": 100, "channel": 0}, {"type": "note_on", "time": 44, "note": 69, "velocity": 105, "channel": 0}, {"type": "note_off", "time": 101, "note": 69, "velocity": 105, "channel": 0}, {"type": "note_on", "time": 32, "note": 67, "velocity": 108, "channel": 0}, {"type": "note_off", "time": 85, "note": 67, "velocity": 108, "channel": 0}, {"type": "note_on", "time": 52, "note": 66, "velocity": 111, "channel": 0}, {"type": "note_off", "time": 138, "note": 66, "velocity": 111, "channel": 0}, {"type": "note_on", "time": 115, "note": 69, "velocity": 105, "channel": 0}, {"type": "note_off", "time": 144, "note": 69, "velocity": 105, "channel": 0}, {"type": "note_on", "time": 92, "note": 67, "velocity": 107, "channel": 0}, {"type": "note_off", "time": 161, "note": 67, "velocity": 107, "channel": 0}, {"type": "note_on", "time": 5, "note": 66, "velocity": 108, "channel": 0}, {"type": "note_off", "time": 138, "note": 66, "velocity": 108, "channel": 0}, {"type": "note_on", "time": 17, "note": 65, "velocity": 111, "channel": 0}, {"type": "note_off", "time": 173, "note": 65, "velocity": 111, "channel": 0}, {"type": "note_on", "time": 23, "note": 64, "velocity": 110, "channel": 0}, {"type": "note_off", "time": 155, "note": 64, "velocity": 110, "channel": 0}, {"type": "note_on", "time": 23, "note": 63, "velocity": 120, "channel": 0}, {"type": "note_off", "time": 138, "note": 63, "velocity": 120, "channel": 0}, {"type": "note_on", "time": 5, "note": 60, "velocity": 105, "channel": 0}, {"type": "note_off", "time": 167, "note": 60, "velocity": 105, "channel": 0}, {"type": "note_on", "time": 34, "note": 63, "velocity": 122, "channel": 0}, {"type": "note_off", "time": 167, "note": 63, "velocity": 122, "channel": 0}, {"type": "note_on", "time": 17, "note": 65, "velocity": 112, "channel": 0}, {"type": "note_off", "time": 144, "note": 65, "velocity": 112, "channel": 0}, {"type": "note_on", "time": 80, "note": 69, "velocity": 107, "channel": 0}, {"type": "note_off", "time": 155, "note": 69, "velocity": 107, "channel": 0}, {"type": "note_on", "time": 0, "note": 71, "velocity": 111, "channel": 0}, {"type": "note_off", "time": 63, "note": 71, "velocity": 111, "channel": 0}, {"type": "note_on", "time": 23, "note": 74, "velocity": 108, "channel": 0}, {"type": "note_off", "time": 1073, "note": 74, "velocity": 108, "channel": 0}, {"type": "note_on", "time": 294, "note": 69, "velocity": 104, "channel": 0}, {"type": "note_off", "time": 80, "note": 69, "velocity": 104, "channel": 0}, {"type": "note_on", "time": 196, "note": 65, "velocity": 106, "channel": 0}, {"type": "note_off", "time": 178, "note": 65, "velocity": 106, "channel": 0}, {"type": "note_on", "time": 40, "note": 64, "velocity": 111, "channel": 0}, {"type": "note_off", "time": 219, "note": 64, "velocity": 111, "channel": 0}, {"type": "note_on", "time": 51, "note": 63, "velocity": 106, "channel": 0}, {"type": "note_off", "time": 605, "note": 63, "velocity": 106, "channel": 0}, {"type": "note_on", "time": 326, "note": 72, "velocity": 112, "channel": 0}, {"type": "note_off", "time": 210, "note": 72, "velocity": 112, "channel": 0}, {"type": "note_on", "time": 21, "note": 74, "velocity": 118, "channel": 0}, {"type": "note_off", "time": 265, "note": 74, "velocity": 118, "channel": 0}, {"type": "note_on", "time": 63, "note": 74, "velocity": 114, "channel": 0}, {"type": "note_off", "time": 265, "note": 74, "velocity": 114, "channel": 0}, {"type": "note_on", "time": 69, "note": 70, "velocity": 90, "channel": 0}, {"type": "note_off", "time": 790, "note": 70, "velocity": 90, "channel": 0}, {"type": "note_on", "time": 132, "note": 62, "velocity": 117, "channel": 0}, {"type": "note_off", "time": 98, "note": 62, "velocity": 117, "channel": 0}, {"type": "note_on", "time": 11, "note": 65, "velocity": 110, "channel": 0}, {"type": "note_off", "time": 109, "note": 65, "velocity": 110, "channel": 0}, {"type": "note_on", "time": 5, "note": 67, "velocity": 106, "channel": 0}, {"type": "note_off", "time": 80, "note": 67, "velocity": 106, "channel": 0}, {"type": "note_on", "time": 28, "note": 70, "velocity": 100, "channel": 0}, {"type": "note_off", "time": 98, "note": 70, "velocity": 100, "channel": 0}, {"type": "note_on", "time": 11, "note": 73, "velocity": 120, "channel": 0}, {"type": "note_off", "time": 173, "note": 73, "velocity": 120, "channel": 0}, {"type": "note_on", "time": 40, "note": 72, "velocity": 123, "channel": 0}, {"type": "note_off", "time": 115, "note": 72, "velocity": 123, "channel": 0}, {"type": "note_on", "time": 5, "note": 73, "velocity": 107, "channel": 0}, {"type": "note_off", "time": 842, "note": 73, "velocity": 107, "channel": 0}, {"type": "note_on", "time": 28, "note": 70, "velocity": 94, "channel": 0}, {"type": "note_off", "time": 167, "note": 70, "velocity": 94, "channel": 0}, {"type": "note_on", "time": 11, "note": 67, "velocity": 105, "channel": 0}, {"type": "note_off", "time": 115, "note": 67, "velocity": 105, "channel": 0}, {"type": "note_on", "time": 11, "note": 65, "velocity": 107, "channel": 0}, {"type": "note_off", "time": 86, "note": 65, "velocity": 107, "channel": 0}, {"type": "note_on", "time": 11, "note": 61, "velocity": 109, "channel": 0}, {"type": "note_off", "time": 121, "note": 61, "velocity": 109, "channel": 0}, {"type": "note_on", "time": 5, "note": 62, "velocity": 117, "channel": 0}, {"type": "note_off", "time": 213, "note": 62, "velocity": 117, "channel": 0}, {"type": "note_on", "time": 0, "note": 70, "velocity": 105, "channel": 0}, {"type": "note_off", "time": 86, "note": 70, "velocity": 105, "channel": 0}, {"type": "note_on", "time": 686, "note": 62, "velocity": 84, "channel": 0}, {"type": "note_off", "time": 86, "note": 62, "velocity": 84, "channel": 0}, {"type": "note_on", "time": 28, "note": 65, "velocity": 113, "channel": 0}, {"type": "note_off", "time": 478, "note": 65, "velocity": 113, "channel": 0}, {"type": "note_on", "time": 40, "note": 77, "velocity": 100, "channel": 0}, {"type": "note_off", "time": 790, "note": 77, "velocity": 100, "channel": 0}, {"type": "note_on", "time": 1024, "note": 70, "velocity": 80, "channel": 0}, {"type": "note_off", "time": 154, "note": 70, "velocity": 80, "channel": 0}, {"type": "note_on", "time": 32, "note": 82, "velocity": 104, "channel": 0}, {"type": "note_off", "time": 4268, "note": 82, "velocity": 104, "channel": 0}, {"type": "note_on", "time": 64, "note": 79, "velocity": 123, "channel": 0}, {"type": "note_off", "time": 186, "note": 79, "velocity": 123, "channel": 0}, {"type": "note_on", "time": 40, "note": 77, "velocity": 106, "channel": 0}, {"type": "note_off", "time": 129, "note": 77, "velocity": 106, "channel": 0}, {"type": "note_on", "time": 0, "note": 79, "velocity": 123, "channel": 0}, {"type": "note_off", "time": 227, "note": 79, "velocity": 123, "channel": 0}, {"type": "note_on", "time": 16, "note": 80, "velocity": 118, "channel": 0}, {"type": "note_off", "time": 973, "note": 80, "velocity": 118, "channel": 0}, {"type": "note_on", "time": 8, "note": 77, "velocity": 99, "channel": 0}, {"type": "note_off", "time": 57, "note": 77, "velocity": 99, "channel": 0}, {"type": "note_on", "time": 0, "note": 74, "velocity": 113, "channel": 0}, {"type": "note_off", "time": 63, "note": 74, "velocity": 113, "channel": 0}, {"type": "note_on", "time": 34, "note": 70, "velocity": 99, "channel": 0}, {"type": "note_off", "time": 57, "note": 70, "velocity": 99, "channel": 0}, {"type": "note_on", "time": 17, "note": 76, "velocity": 118, "channel": 0}, {"type": "note_off", "time": 121, "note": 76, "velocity": 118, "channel": 0}, {"type": "note_on", "time": 28, "note": 72, "velocity": 109, "channel": 0}, {"type": "note_off", "time": 80, "note": 72, "velocity": 109, "channel": 0}, {"type": "note_on", "time": 11, "note": 73, "velocity": 113, "channel": 0}, {"type": "note_off", "time": 178, "note": 73, "velocity": 113, "channel": 0}, {"type": "note_on", "time": 11, "note": 74, "velocity": 102, "channel": 0}, {"type": "note_off", "time": 992, "note": 74, "velocity": 102, "channel": 0}, {"type": "note_on", "time": 34, "note": 70, "velocity": 100, "channel": 0}, {"type": "note_off", "time": 115, "note": 70, "velocity": 100, "channel": 0}, {"type": "note_on", "time": 40, "note": 65, "velocity": 109, "channel": 0}, {"type": "note_off", "time": 126, "note": 65, "velocity": 109, "channel": 0}, {"type": "note_on", "time": 40, "note": 68, "velocity": 106, "channel": 0}, {"type": "note_off", "time": 1621, "note": 68, "velocity": 106, "channel": 0}, {"type": "note_on", "time": 932, "note": 77, "velocity": 78, "channel": 0}, {"type": "note_off", "time": 63, "note": 77, "velocity": 78, "channel": 0}, {"type": "note_on", "time": 24, "note": 79, "velocity": 111, "channel": 0}, {"type": "note_off", "time": 2054, "note": 79, "velocity": 111, "channel": 0}, {"type": "note_on", "time": 28, "note": 73, "velocity": 113, "channel": 0}, {"type": "note_off", "time": 40, "note": 73, "velocity": 113, "channel": 0}, {"type": "note_on", "time": 0, "note": 74, "velocity": 116, "channel": 0}, {"type": "note_off", "time": 155, "note": 74, "velocity": 116, "channel": 0}, {"type": "note_on", "time": 57, "note": 74, "velocity": 114, "channel": 0}, {"type": "note_off", "time": 178, "note": 74, "velocity": 114, "channel": 0}, {"type": "note_on", "time": 17, "note": 65, "velocity": 109, "channel": 0}, {"type": "note_off", "time": 126, "note": 65, "velocity": 109, "channel": 0}, {"type": "note_on", "time": 0, "note": 77, "velocity": 106, "channel": 0}, {"type": "note_off", "time": 178, "note": 77, "velocity": 106, "channel": 0}, {"type": "note_on", "time": 17, "note": 74, "velocity": 110, "channel": 0}, {"type": "note_off", "time": 334, "note": 74, "velocity": 110, "channel": 0}, {"type": "note_on", "time": 23, "note": 75, "velocity": 9, "channel": 0}, {"type": "note_off", "time": 259, "note": 75, "velocity": 9, "channel": 0}, {"type": "note_on", "time": 5, "note": 74, "velocity": 107, "channel": 0}, {"type": "note_off", "time": 421, "note": 74, "velocity": 107, "channel": 0}, {"type": "note_on", "time": 23, "note": 75, "velocity": 115, "channel": 0}, {"type": "note_off", "time": 242, "note": 75, "velocity": 115, "channel": 0}, {"type": "note_on", "time": 5, "note": 74, "velocity": 112, "channel": 0}, {"type": "note_off", "time": 207, "note": 74, "velocity": 112, "channel": 0}, {"type": "note_on", "time": 5, "note": 70, "velocity": 99, "channel": 0}, {"type": "note_off", "time": 161, "note": 70, "velocity": 99, "channel": 0}, {"type": "note_on", "time": 11, "note": 67, "velocity": 107, "channel": 0}, {"type": "note_off", "time": 150, "note": 67, "velocity": 107, "channel": 0}, {"type": "note_on", "time": 23, "note": 65, "velocity": 109, "channel": 0}, {"type": "note_off", "time": 155, "note": 65, "velocity": 109, "channel": 0}, {"type": "note_on", "time": 46, "note": 63, "velocity": 113, "channel": 0}, {"type": "note_off", "time": 796, "note": 63, "velocity": 113, "channel": 0}, {"type": "note_on", "time": 502, "note": 72, "velocity": 124, "channel": 0}, {"type": "note_off", "time": 144, "note": 72, "velocity": 124, "channel": 0}, {"type": "note_on", "time": 17, "note": 73, "velocity": 110, "channel": 0}, {"type": "note_off", "time": 311, "note": 73, "velocity": 110, "channel": 0}, {"type": "note_on", "time": 126, "note": 72, "velocity": 116, "channel": 0}, {"type": "note_off", "time": 201, "note": 72, "velocity": 116, "channel": 0}, {"type": "note_on", "time": 86, "note": 70, "velocity": 101, "channel": 0}, {"type": "note_off", "time": 144, "note": 70, "velocity": 101, "channel": 0}, {"type": "note_on", "time": 23, "note": 67, "velocity": 104, "channel": 0}, {"type": "note_off", "time": 144, "note": 67, "velocity": 104, "channel": 0}, {"type": "note_on", "time": 5, "note": 65, "velocity": 113, "channel": 0}, {"type": "note_off", "time": 144, "note": 65, "velocity": 113, "channel": 0}, {"type": "note_on", "time": 5, "note": 64, "velocity": 112, "channel": 0}, {"type": "note_off", "time": 126, "note": 64, "velocity": 112, "channel": 0}, {"type": "note_on", "time": 11, "note": 63, "velocity": 112, "channel": 0}, {"type": "note_off", "time": 923, "note": 63, "velocity": 112, "channel": 0}, {"type": "note_on", "time": 23, "note": 65, "velocity": 107, "channel": 0}, {"type": "note_off", "time": 161, "note": 65, "velocity": 107, "channel": 0}, {"type": "note_on", "time": 28, "note": 61, "velocity": 107, "channel": 0}, {"type": "note_off", "time": 150, "note": 61, "velocity": 107, "channel": 0}, {"type": "note_on", "time": 0, "note": 62, "velocity": 113, "channel": 0}, {"type": "note_off", "time": 103, "note": 62, "velocity": 113, "channel": 0}, {"type": "note_on", "time": 5, "note": 67, "velocity": 100, "channel": 0}, {"type": "note_off", "time": 109, "note": 67, "velocity": 100, "channel": 0}, {"type": "note_on", "time": 11, "note": 62, "velocity": 115, "channel": 0}, {"type": "note_off", "time": 115, "note": 62, "velocity": 115, "channel": 0}, {"type": "note_on", "time": 17, "note": 65, "velocity": 101, "channel": 0}, {"type": "note_off", "time": 778, "note": 65, "velocity": 101, "channel": 0}, {"type": "note_on", "time": 773, "note": 65, "velocity": 109, "channel": 0}, {"type": "note_off", "time": 150, "note": 65, "velocity": 109, "channel": 0}, {"type": "note_on", "time": 17, "note": 67, "velocity": 110, "channel": 0}, {"type": "note_off", "time": 144, "note": 67, "velocity": 110, "channel": 0}, {"type": "note_on", "time": 5, "note": 70, "velocity": 103, "channel": 0}, {"type": "note_off", "time": 86, "note": 70, "velocity": 103, "channel": 0}, {"type": "note_on", "time": 17, "note": 72, "velocity": 123, "channel": 0}, {"type": "note_off", "time": 132, "note": 72, "velocity": 123, "channel": 0}, {"type": "note_on", "time": 0, "note": 74, "velocity": 119, "channel": 0}, {"type": "note_off", "time": 92, "note": 74, "velocity": 119, "channel": 0}, {"type": "note_on", "time": 17, "note": 79, "velocity": 116, "channel": 0}, {"type": "note_off", "time": 103, "note": 79, "velocity": 116, "channel": 0}, {"type": "note_on", "time": 17, "note": 74, "velocity": 114, "channel": 0}, {"type": "note_off", "time": 103, "note": 74, "velocity": 114, "channel": 0}, {"type": "note_on", "time": 5, "note": 77, "velocity": 115, "channel": 0}, {"type": "note_off", "time": 115, "note": 77, "velocity": 115, "channel": 0}, {"type": "note_on", "time": 11, "note": 74, "velocity": 117, "channel": 0}, {"type": "note_off", "time": 121, "note": 74, "velocity": 117, "channel": 0}, {"type": "note_on", "time": 0, "note": 72, "velocity": 116, "channel": 0}, {"type": "note_off", "time": 132, "note": 72, "velocity": 116, "channel": 0}, {"type": "note_on", "time": 5, "note": 70, "velocity": 106, "channel": 0}, {"type": "note_off", "time": 109, "note": 70, "velocity": 106, "channel": 0}, {"type": "note_on", "time": 11, "note": 67, "velocity": 109, "channel": 0}, {"type": "note_off", "time": 126, "note": 67, "velocity": 109, "channel": 0}, {"type": "note_on", "time": 17, "note": 65, "velocity": 114, "channel": 0}, {"type": "note_off", "time": 109, "note": 65, "velocity": 114, "channel": 0}, {"type": "note_on", "time": 34, "note": 61, "velocity": 116, "channel": 0}, {"type": "note_off", "time": 115, "note": 61, "velocity": 116, "channel": 0}, {"type": "note_on", "time": 17, "note": 62, "velocity": 117, "channel": 0}, {"type": "note_off", "time": 86, "note": 62, "velocity": 117, "channel": 0}, {"type": "note_on", "time": 19, "note": 67, "velocity": 108, "channel": 0}, {"type": "note_off", "time": 92, "note": 67, "velocity": 108, "channel": 0}, {"type": "note_on", "time": 15, "note": 65, "velocity": 103, "channel": 0}, {"type": "note_off", "time": 444, "note": 65, "velocity": 103, "channel": 0}, {"type": "note_on", "time": 351, "note": 72, "velocity": 123, "channel": 0}, {"type": "note_off", "time": 150, "note": 72, "velocity": 123, "channel": 0}, {"type": "note_on", "time": 144, "note": 74, "velocity": 117, "channel": 0}, {"type": "note_off", "time": 121, "note": 74, "velocity": 117, "channel": 0}, {"type": "note_on", "time": 190, "note": 75, "velocity": 108, "channel": 0}, {"type": "note_off", "time": 126, "note": 75, "velocity": 108, "channel": 0}, {"type": "note_on", "time": 92, "note": 74, "velocity": 115, "channel": 0}, {"type": "note_off", "time": 121, "note": 74, "velocity": 115, "channel": 0}, {"type": "note_on", "time": 46, "note": 73, "velocity": 118, "channel": 0}, {"type": "note_off", "time": 103, "note": 73, "velocity": 118, "channel": 0}, {"type": "note_on", "time": 23, "note": 74, "velocity": 113, "channel": 0}, {"type": "note_off", "time": 132, "note": 74, "velocity": 113, "channel": 0}, {"type": "note_on", "time": 34, "note": 75, "velocity": 114, "channel": 0}, {"type": "note_off", "time": 167, "note": 75, "velocity": 114, "channel": 0}, {"type": "note_on", "time": 23, "note": 74, "velocity": 110, "channel": 0}, {"type": "note_off", "time": 132, "note": 74, "velocity": 110, "channel": 0}, {"type": "note_on", "time": 40, "note": 73, "velocity": 117, "channel": 0}, {"type": "note_off", "time": 144, "note": 73, "velocity": 117, "channel": 0}, {"type": "note_on", "time": 17, "note": 74, "velocity": 110, "channel": 0}, {"type": "note_off", "time": 144, "note": 74, "velocity": 110, "channel": 0}, {"type": "note_on", "time": 51, "note": 73, "velocity": 114, "channel": 0}, {"type": "note_off", "time": 121, "note": 73, "velocity": 114, "channel": 0}, {"type": "note_on", "time": 0, "note": 74, "velocity": 120, "channel": 0}, {"type": "note_off", "time": 173, "note": 74, "velocity": 120, "channel": 0}, {"type": "note_on", "time": 11, "note": 75, "velocity": 119, "channel": 0}, {"type": "note_off", "time": 669, "note": 75, "velocity": 119, "channel": 0}, {"type": "note_on", "time": 17, "note": 74, "velocity": 113, "channel": 0}, {"type": "note_off", "time": 63, "note": 74, "velocity": 113, "channel": 0}, {"type": "note_on", "time": 0, "note": 75, "velocity": 120, "channel": 0}, {"type": "note_off", "time": 57, "note": 75, "velocity": 120, "channel": 0}, {"type": "note_on", "time": 0, "note": 74, "velocity": 114, "channel": 0}, {"type": "note_off", "time": 121, "note": 74, "velocity": 114, "channel": 0}, {"type": "note_on", "time": 23, "note": 72, "velocity": 111, "channel": 0}, {"type": "note_off", "time": 115, "note": 72, "velocity": 111, "channel": 0}, {"type": "note_on", "time": 23, "note": 69, "velocity": 101, "channel": 0}, {"type": "note_off", "time": 103, "note": 69, "velocity": 101, "channel": 0}, {"type": "note_on", "time": 28, "note": 65, "velocity": 110, "channel": 0}, {"type": "note_off", "time": 126, "note": 65, "velocity": 110, "channel": 0}, {"type": "note_on", "time": 28, "note": 64, "velocity": 109, "channel": 0}, {"type": "note_off", "time": 86, "note": 64, "velocity": 109, "channel": 0}, {"type": "note_on", "time": 28, "note": 63, "velocity": 112, "channel": 0}, {"type": "note_off", "time": 877, "note": 63, "velocity": 112, "channel": 0}, {"type": "note_on", "time": 513, "note": 64, "velocity": 113, "channel": 0}, {"type": "note_off", "time": 225, "note": 64, "velocity": 113, "channel": 0}, {"type": "note_on", "time": 69, "note": 65, "velocity": 114, "channel": 0}, {"type": "note_off", "time": 173, "note": 65, "velocity": 114, "channel": 0}, {"type": "note_on", "time": 5, "note": 66, "velocity": 109, "channel": 0}, {"type": "note_off", "time": 150, "note": 66, "velocity": 109, "channel": 0}, {"type": "note_on", "time": 17, "note": 67, "velocity": 111, "channel": 0}, {"type": "note_off", "time": 138, "note": 67, "velocity": 111, "channel": 0}, {"type": "note_on", "time": 23, "note": 70, "velocity": 106, "channel": 0}, {"type": "note_off", "time": 92, "note": 70, "velocity": 106, "channel": 0}, {"type": "note_on", "time": 0, "note": 72, "velocity": 127, "channel": 0}, {"type": "note_off", "time": 103, "note": 72, "velocity": 127, "channel": 0}, {"type": "note_on", "time": 5, "note": 73, "velocity": 116, "channel": 0}, {"type": "note_off", "time": 144, "note": 73, "velocity": 116, "channel": 0}, {"type": "note_on", "time": 5, "note": 74, "velocity": 112, "channel": 0}, {"type": "note_off", "time": 623, "note": 74, "velocity": 112, "channel": 0}, {"type": "note_on", "time": 115, "note": 70, "velocity": 104, "channel": 0}, {"type": "note_off", "time": 98, "note": 70, "velocity": 104, "channel": 0}, {"type": "note_on", "time": 57, "note": 67, "velocity": 105, "channel": 0}, {"type": "note_off", "time": 115, "note": 67, "velocity": 105, "channel": 0}, {"type": "note_on", "time": 40, "note": 62, "velocity": 118, "channel": 0}, {"type": "note_off", "time": 190, "note": 62, "velocity": 118, "channel": 0}, {"type": "note_on", "time": 5, "note": 65, "velocity": 101, "channel": 0}, {"type": "note_off", "time": 1107, "note": 65, "velocity": 101, "channel": 0}, {"type": "note_on", "time": 496, "note": 67, "velocity": 109, "channel": 0}, {"type": "note_off", "time": 230, "note": 67, "velocity": 109, "channel": 0}, {"type": "note_on", "time": 17, "note": 70, "velocity": 104, "channel": 0}, {"type": "note_off", "time": 173, "note": 70, "velocity": 104, "channel": 0}, {"type": "note_on", "time": 11, "note": 73, "velocity": 119, "channel": 0}, {"type": "note_off", "time": 196, "note": 73, "velocity": 119, "channel": 0}, {"type": "note_on", "time": 11, "note": 74, "velocity": 113, "channel": 0}, {"type": "note_off", "time": 686, "note": 74, "velocity": 113, "channel": 0}, {"type": "note_on", "time": 46, "note": 70, "velocity": 101, "channel": 0}, {"type": "note_off", "time": 109, "note": 70, "velocity": 101, "channel": 0}, {"type": "note_on", "time": 34, "note": 65, "velocity": 126, "channel": 0}, {"type": "note_off", "time": 178, "note": 65, "velocity": 126, "channel": 0}, {"type": "note_on", "time": 40, "note": 62, "velocity": 116, "channel": 0}, {"type": "note_off", "time": 115, "note": 62, "velocity": 116, "channel": 0}, {"type": "note_on", "time": 11, "note": 63, "velocity": 119, "channel": 0}, {"type": "note_off", "time": 473, "note": 63, "velocity": 119, "channel": 0}, {"type": "note_on", "time": 57, "note": 72, "velocity": 114, "channel": 0}, {"type": "note_off", "time": 519, "note": 72, "velocity": 114, "channel": 0}, {"type": "note_on", "time": 173, "note": 63, "velocity": 116, "channel": 0}, {"type": "note_off", "time": 121, "note": 63, "velocity": 116, "channel": 0}, {"type": "note_on", "time": 28, "note": 60, "velocity": 117, "channel": 0}, {"type": "note_off", "time": 92, "note": 60, "velocity": 117, "channel": 0}, {"type": "note_on", "time": 17, "note": 61, "velocity": 110, "channel": 0}, {"type": "note_off", "time": 98, "note": 61, "velocity": 110, "channel": 0}, {"type": "note_on", "time": 11, "note": 62, "velocity": 115, "channel": 0}, {"type": "note_off", "time": 126, "note": 62, "velocity": 115, "channel": 0}, {"type": "note_on", "time": 11, "note": 70, "velocity": 91, "channel": 0}, {"type": "note_off", "time": 1246, "note": 70, "velocity": 91, "channel": 0}, {"type": "note_on", "time": 54, "note": 73, "velocity": 107, "channel": 0}, {"type": "note_off", "time": 113, "note": 73, "velocity": 107, "channel": 0}, {"type": "end_of_track", "time": 0}]]}