{"ticks_per_beat": 192, "tracks": [[{"type": "track_name", "name": "Melody", "time": 0}, {"type": "set_tempo", "tempo": 437956, "time": 0}, {"type": "key_signature", "key": "Bb", "time": 0}, {"type": "time_signature", "numerator": 4, "denominator": 4, "clocks_per_click": 24, "notated_32nd_notes_per_beat": 8, "time": 0}, {"type": "note_on", "time": 1551, "note": 65, "velocity": 116, "channel": 0}, {"type": "note_off", "time": 84, "note": 65, "velocity": 116, "channel": 0}, {"type": "note_on", "time": 0, "note": 68, "velocity": 120, "channel": 0}, {"type": "note_off", "time": 56, "note": 68, "velocity": 120, "channel": 0}, {"type": "note_on", "time": 4, "note": 69, "velocity": 116, "channel": 0}, {"type": "note_off", "time": 30, "note": 69, "velocity": 116, "channel": 0}, {"type": "note_on", "time": 3, "note": 68, "velocity": 111, "channel": 0}, {"type": "note_off", "time": 40, "note": 68, "velocity": 111, "channel": 0}, {"type": "note_on", "time": 2, "note": 65, "velocity": 111, "channel": 0}, {"type": "note_off", "time": 45, "note": 65, "velocity": 111, "channel": 0}, {"type": "note_on", "time": 41, "note": 71, "velocity": 103, "channel": 0}, {"type": "note_off", "time": 30, "note": 71, "velocity": 103, "channel": 0}, {"type": "note_on", "time": 3, "note": 72, "velocity": 100, "channel": 0}, {"type": "note_off", "time": 73, "note": 72, "velocity": 100, "channel": 0}, {"type": "note_on", "time": 27, "note": 68, "velocity": 111, "channel": 0}, {"type": "note_off", "time": 84, "note": 68, "velocity": 111, "channel": 0}, {"type": "note_on", "time": 269, "note": 58, "velocity": 104, "channel": 0}, {"type": "note_off", "time": 57, "note": 58, "velocity": 104, "channel": 0}, {"type": "note_on", "time": 27, "note": 64, "velocity": 127, "channel": 0}, {"type": "note_off", "time": 40, "note": 64, "velocity": 127, "channel": 0}, {"type": "note_on", "time": 0, "note": 65, "velocity": 112, "channel": 0}, {"type": "note_off", "time": 127, "note": 65, "velocity": 112, "channel": 0}, {"type": "note_on", "time": 2, "note": 64, "velocity": 116, "channel": 0}, {"type": "note_off", "time": 32, "note": 64, "velocity": 116, "channel": 0}, {"type": "note_on", "time": 3, "note": 62, "velocity": 118, "channel": 0}, {"type": "note_off", "time": 21, "note": 62, "velocity": 118, "channel": 0}, {"type": "note_on", "time": 5, "note": 61, "velocity": 119, "channel": 0}, {"type": "note_off", "time": 39, "note": 61, "velocity": 119, "channel": 0}, {"type": "note_on", "time": 3, "note": 58, "velocity": 98, "channel": 0}, {"type": "note_off", "time": 37, "note": 58, "velocity": 98, "channel": 0}, {"type": "note_on", "time": 35, "note": 64, "velocity": 119, "channel": 0}, {"type": "note_off", "time": 46, "note": 64, "velocity": 119, "channel": 0}, {"type": "note_on", "time": 6, "note": 65, "velocity": 103, "channel": 0}, {"type": "note_off", "time": 107, "note": 65, "velocity": 103, "channel": 0}, {"type": "note_on", "time": 30, "note": 64, "velocity": 110, "channel": 0}, {"type": "note_off", "time": 31, "note": 64, "velocity": 110, "channel": 0}, {"type": "note_on", "time": 4, "note": 62, "velocity": 114, "channel": 0}, {"type": "note_off", "time": 24, "note": 62, "velocity": 114, "channel": 0}, {"type": "note_on", "time": 4, "note": 61, "velocity": 112, "channel": 0}, {"type": "note_off", "time": 31, "note": 61, "velocity": 112, "channel": 0}, {"type": "note_on", "time": 2, "note": 58, "velocity": 93, "channel": 0}, {"type": "note_off", "time": 47, "note": 58, "velocity": 93, "channel": 0}, {"type": "note_on", "time": 478, "note": 65, "velocity": 122, "channel": 0}, {"type": "note_off", "time": 50, "note": 65, "velocity": 122, "channel": 0}, {"type": "note_on", "time": 55, "note": 68, "velocity": 118, "channel": 0}, {"type": "note_off", "time": 45, "note": 68, "velocity": 118, "channel": 0}, {"type": "note_on", "time": 6, "note": 70, "velocity": 93, "channel": 0}, {"type": "note_off", "time": 19, "note": 70, "velocity": 93, "channel": 0}, {"type": "note_on", "time": 4, "note": 72, "velocity": 103, "channel": 0}, {"type": "note_off", "time": 45, "note": 72, "velocity": 103, "channel": 0}, {"type": "note_on", "time": 25, "note": 74, "velocity": 104, "channel": 0}, {"type": "note_off", "time": 73, "note": 74, "velocity": 104, "channel": 0}, {"type": "note_on", "time": 6, "note": 72, "velocity": 102, "channel": 0}, {"type": "note_off", "time": 44, "note": 72, "velocity": 102, "channel": 0}, {"type": "note_on", "time": 5, "note": 70, "velocity": 108, "channel": 0}, {"type": "note_off", "time": 32, "note": 70, "velocity": 108, "channel": 0}, {"type": "note_on", "time": 4, "note": 71, "velocity": 105, "channel": 0}, {"type": "note_off", "time": 25, "note": 71, "velocity": 105, "channel": 0}, {"type": "note_on", "time": 0, "note": 69, "velocity": 112, "channel": 0}, {"type": "note_off", "time": 18, "note": 69, "velocity": 112, "channel": 0}, {"type": "note_on", "time": 3, "note": 68, "velocity": 114, "channel": 0}, {"type": "note_off", "time": 38, "note": 68, "velocity": 114, "channel": 0}, {"type": "note_on", "time": 33, "note": 57, "velocity": 105, "channel": 0}, {"type": "note_off", "time": 37, "note": 57, "velocity": 105, "channel": 0}, {"type": "note_on", "time": 2, "note": 60, "velocity": 105, "channel": 0}, {"type": "note_off", "time": 26, "note": 60, "velocity": 105, "channel": 0}, {"type": "note_on", "time": 5, "note": 63, "velocity": 108, "channel": 0}, {"type": "note_off", "time": 24, "note": 63, "velocity": 108, "channel": 0}, {"type": "note_on", "time": 30, "note": 67, "velocity": 111, "channel": 0}, {"type": "note_off", "time": 46, "note": 67, "velocity": 111, "channel": 0}, {"type": "note_on", "time": 9, "note": 63, "velocity": 107, "channel": 0}, {"type": "note_off", "time": 30, "note": 63, "velocity": 107, "channel": 0}, {"type": "note_on", "time": 6, "note": 65, "velocity": 105, "channel": 0}, {"type": "note_off", "time": 32, "note": 65, "velocity": 105, "channel": 0}, {"type": "note_on", "time": 25, "note": 66, "velocity": 108, "channel": 0}, {"type": "note_off", "time": 32, "note": 66, "velocity": 108, "channel": 0}, {"type": "note_on", "time": 13, "note": 62, "velocity": 109, "channel": 0}, {"type": "note_off", "time": 42, "note": 62, "velocity": 109, "channel": 0}, {"type": "note_on", "time": 10, "note": 59, "velocity": 98, "channel": 0}, {"type": "note_off", "time": 26, "note": 59, "velocity": 98, "channel": 0}, {"type": "note_on", "time": 3, "note": 58, "velocity": 100, "channel": 0}, {"type": "note_off", "time": 44, "note": 58, "velocity": 100, "channel": 0}, {"type": "note_on", "time": 5, "note": 57, "velocity": 105, "channel": 0}, {"type": "note_off", "time": 37, "note": 57, "velocity": 105, "channel": 0}, {"type": "note_on", "time": 2, "note": 56, "velocity": 97, "channel": 0}, {"type": "note_off", "time": 27, "note": 56, "velocity": 97, "channel": 0}, {"type": "note_on", "time": 317, "note": 67, "velocity": 121, "channel": 0}, {"type": "note_off", "time": 49, "note": 67, "velocity": 121, "channel": 0}, {"type": "note_on", "time": 6, "note": 70, "velocity": 106, "channel": 0}, {"type": "note_off", "time": 49, "note": 70, "velocity": 106, "channel": 0}, {"type": "note_on", "time": 30, "note": 72, "velocity": 102, "channel": 0}, {"type": "note_off", "time": 20, "note": 72, "velocity": 102, "channel": 0}, {"type": "note_on", "time": 2, "note": 73, "velocity": 107, "channel": 0}, {"type": "note_off", "time": 77, "note": 73, "velocity": 107, "channel": 0}, {"type": "note_on", "time": 10, "note": 72, "velocity": 102, "channel": 0}, {"type": "note_off", "time": 18, "note": 72, "velocity": 102, "channel": 0}, {"type": "note_on", "time": 3, "note": 73, "velocity": 105, "channel": 0}, {"type": "note_off", "time": 93, "note": 73, "velocity": 105, "channel": 0}, {"type": "note_on", "time": 9, "note": 70, "velocity": 104, "channel": 0}, {"type": "note_off", "time": 56, "note": 70, "velocity": 104, "channel": 0}, {"type": "note_on", "time": 6, "note": 68, "velocity": 112, "channel": 0}, {"type": "note_off", "time": 54, "note": 68, "velocity": 112, "channel": 0}, {"type": "note_on", "time": 2, "note": 65, "velocity": 107, "channel": 0}, {"type": "note_off", "time": 42, "note": 65, "velocity": 107, "channel": 0}, {"type": "note_on", "time": 46, "note": 58, "velocity": 114, "channel": 0}, {"type": "note_off", "time": 58, "note": 58, "velocity": 114, "channel": 0}, {"type": "note_on", "time": 1, "note": 64, "velocity": 118, "channel": 0}, {"type": "note_off", "time": 33, "note": 64, "velocity": 118, "channel": 0}, {"type": "note_on", "time": 8, "note": 65, "velocity": 107, "channel": 0}, {"type": "note_off", "time": 82, "note": 65, "velocity": 107, "channel": 0}, {"type": "note_on", "time": 7, "note": 64, "velocity": 117, "channel": 0}, {"type": "note_off", "time": 20, "note": 64, "velocity": 117, "channel": 0}, {"type": "note_on", "time": 1, "note": 65, "velocity": 109, "channel": 0}, {"type": "note_off", "time": 25, "note": 65, "velocity": 109, "channel": 0}, {"type": "note_on", "time": 0, "note": 63, "velocity": 118, "channel": 0}, {"type": "note_off", "time": 19, "note": 63, "velocity": 118, "channel": 0}, {"type": "note_on", "time": 4, "note": 61, "velocity": 112, "channel": 0}, {"type": "note_off", "time": 38, "note": 61, "velocity": 112, "channel": 0}, {"type": "note_on", "time": 4, "note": 58, "velocity": 94, "channel": 0}, {"type": "note_off", "time": 35, "note": 58, "velocity": 94, "channel": 0}, {"type": "note_on", "time": 23, "note": 55, "velocity": 104, "channel": 0}, {"type": "note_off", "time": 47, "note": 55, "velocity": 104, "channel": 0}, {"type": "note_on", "time": 2, "note": 60, "velocity": 87, "channel": 0}, {"type": "note_off", "time": 140, "note": 60, "velocity": 87, "channel": 0}, {"type": "note_on", "time": 11, "note": 56, "velocity": 111, "channel": 0}, {"type": "note_off", "time": 70, "note": 56, "velocity": 111, "channel": 0}, {"type": "note_on", "time": 6, "note": 55, "velocity": 110, "channel": 0}, {"type": "note_off", "time": 63, "note": 55, "velocity": 110, "channel": 0}, {"type": "note_on", "time": 8, "note": 53, "velocity": 106, "channel": 0}, {"type": "note_off", "time": 48, "note": 53, "velocity": 106, "channel": 0}, {"type": "note_on", "time": 8, "note": 56, "velocity": 100, "channel": 0}, {"type": "note_off", "time": 108, "note": 56, "velocity": 100, "channel": 0}, {"type": "note_on", "time": 8, "note": 53, "velocity": 104, "channel": 0}, {"type": "note_off", "time": 55, "note": 53, "velocity": 104, "channel": 0}, {"type": "note_on", "time": 4, "note": 48, "velocity": 118, "channel": 0}, {"type": "note_off", "time": 114, "note": 48, "velocity": 118, "channel": 0}, {"type": "note_on", "time": 4, "note": 44, "velocity": 116, "channel": 0}, {"type": "note_off", "time": 106, "note": 44, "velocity": 116, "channel": 0}, {"type": "note_on", "time": 372, "note": 66, "velocity": 116, "channel": 0}, {"type": "note_off", "time": 29, "note": 66, "velocity": 116, "channel": 0}, {"type": "note_on", "time": 1, "note": 68, "velocity": 106, "channel": 0}, {"type": "note_off", "time": 21, "note": 68, "velocity": 106, "channel": 0}, {"type": "note_on", "time": 2, "note": 67, "velocity": 114, "channel": 0}, {"type": "note_off", "time": 65, "note": 67, "velocity": 114, "channel": 0}, {"type": "note_on", "time": 347, "note": 55, "velocity": 105, "channel": 0}, {"type": "note_off", "time": 49, "note": 55, "velocity": 105, "channel": 0}, {"type": "note_on", "time": 4, "note": 59, "velocity": 100, "channel": 0}, {"type": "note_off", "time": 52, "note": 59, "velocity": 100, "channel": 0}, {"type": "note_on", "time": 5, "note": 63, "velocity": 117, "channel": 0}, {"type": "note_off", "time": 59, "note": 63, "velocity": 117, "channel": 0}, {"type": "note_on", "time": 3, "note": 67, "velocity": 113, "channel": 0}, {"type": "note_off", "time": 49, "note": 67, "velocity": 113, "channel": 0}, {"type": "note_on", "time": 6, "note": 71, "velocity": 107, "channel": 0}, {"type": "note_off", "time": 56, "note": 71, "velocity": 107, "channel": 0}, {"type": "note_on", "time": 12, "note": 74, "velocity": 109, "channel": 0}, {"type": "note_off", "time": 54, "note": 74, "velocity": 109, "channel": 0}, {"type": "note_on", "time": 2, "note": 71, "velocity": 108, "channel": 0}, {"type": "note_off", "time": 44, "note": 71, "velocity": 108, "channel": 0}, {"type": "note_on", "time": 0, "note": 74, "velocity": 107, "channel": 0}, {"type": "note_off", "time": 68, "note": 74, "velocity": 107, "channel": 0}, {"type": "note_on", "time": 0, "note": 71, "velocity": 108, "channel": 0}, {"type": "note_off", "time": 63, "note": 71, "velocity": 108, "channel": 0}, {"type": "note_on", "time": 2, "note": 67, "velocity": 108, "channel": 0}, {"type": "note_off", "time": 49, "note": 67, "velocity": 108, "channel": 0}, {"type": "note_on", "time": 2, "note": 63, "velocity": 111, "channel": 0}, {"type": "note_off", "time": 46, "note": 63, "velocity": 111, "channel": 0}, {"type": "note_on", "time": 335, "note": 69, "velocity": 114, "channel": 0}, {"type": "note_off", "time": 53, "note": 69, "velocity": 114, "channel": 0}, {"type": "note_on", "time": 2, "note": 70, "velocity": 101, "channel": 0}, {"type": "note_off", "time": 102, "note": 70, "velocity": 101, "channel": 0}, {"type": "note_on", "time": 5, "note": 69, "velocity": 105, "channel": 0}, {"type": "note_off", "time": 25, "note": 69, "velocity": 105, "channel": 0}, {"type": "note_on", "time": 1, "note": 65, "velocity": 109, "channel": 0}, {"type": "note_off", "time": 38, "note": 65, "velocity": 109, "channel": 0}, {"type": "note_on", "time": 27, "note": 68, "velocity": 114, "channel": 0}, {"type": "note_off", "time": 34, "note": 68, "velocity": 114, "channel": 0}, {"type": "note_on", "time": 4, "note": 69, "velocity": 99, "channel": 0}, {"type": "note_off", "time": 24, "note": 69, "velocity": 99, "channel": 0}, {"type": "note_on", "time": 4, "note": 68, "velocity": 113, "channel": 0}, {"type": "note_off", "time": 21, "note": 68, "velocity": 113, "channel": 0}, {"type": "note_on", "time": 2, "note": 67, "velocity": 110, "channel": 0}, {"type": "note_off", "time": 28, "note": 67, "velocity": 110, "channel": 0}, {"type": "note_on", "time": 4, "note": 65, "velocity": 107, "channel": 0}, {"type": "note_off", "time": 33, "note": 65, "velocity": 107, "channel": 0}, {"type": "note_on", "time": 34, "note": 73, "velocity": 101, "channel": 0}, {"type": "note_off", "time": 18, "note": 73, "velocity": 101, "channel": 0}, {"type": "note_on", "time": 3, "note": 72, "velocity": 108, "channel": 0}, {"type": "note_off", "time": 83, "note": 72, "velocity": 108, "channel": 0}, {"type": "note_on", "time": 11, "note": 68, "velocity": 114, "channel": 0}, {"type": "note_off", "time": 114, "note": 68, "velocity": 114, "channel": 0}, {"type": "note_on", "time": 5, "note": 70, "velocity": 99, "channel": 0}, {"type": "note_off", "time": 30, "note": 70, "velocity": 99, "channel": 0}, {"type": "note_on", "time": 3, "note": 68, "velocity": 109, "channel": 0}, {"type": "note_off", "time": 26, "note": 68, "velocity": 109, "channel": 0}, {"type": "note_on", "time": 12, "note": 65, "velocity": 102, "channel": 0}, {"type": "note_off", "time": 29, "note": 65, "velocity": 102, "channel": 0}, {"type": "note_on", "time": 42, "note": 68, "velocity": 118, "channel": 0}, {"type": "note_off", "time": 140, "note": 68, "velocity": 118, "channel": 0}, {"type": "note_on", "time": 8, "note": 65, "velocity": 105, "channel": 0}, {"type": "note_off", "time": 67, "note": 65, "velocity": 105, "channel": 0}, {"type": "note_on", "time": 640, "note": 65, "velocity": 116, "channel": 0}, {"type": "note_off", "time": 45, "note": 65, "velocity": 116, "channel": 0}, {"type": "note_on", "time": 27, "note": 68, "velocity": 114, "channel": 0}, {"type": "note_off", "time": 80, "note": 68, "velocity": 114, "channel": 0}, {"type": "note_on", "time": 120, "note": 72, "velocity": 108, "channel": 0}, {"type": "note_off", "time": 80, "note": 72, "velocity": 108, "channel": 0}, {"type": "note_on", "time": 374, "note": 65, "velocity": 112, "channel": 0}, {"type": "note_off", "time": 63, "note": 65, "velocity": 112, "channel": 0}, {"type": "note_on", "time": 30, "note": 68, "velocity": 115, "channel": 0}, {"type": "note_off", "time": 74, "note": 68, "velocity": 115, "channel": 0}, {"type": "note_on", "time": 129, "note": 70, "velocity": 100, "channel": 0}, {"type": "note_off", "time": 84, "note": 70, "velocity": 100, "channel": 0}, {"type": "note_on", "time": 391, "note": 65, "velocity": 112, "channel": 0}, {"type": "note_off", "time": 50, "note": 65, "velocity": 112, "channel": 0}, {"type": "note_on", "time": 44, "note": 68, "velocity": 115, "channel": 0}, {"type": "note_off", "time": 85, "note": 68, "velocity": 115, "channel": 0}, {"type": "note_on", "time": 109, "note": 72, "velocity": 107, "channel": 0}, {"type": "note_off", "time": 91, "note": 72, "velocity": 107, "channel": 0}, {"type": "note_on", "time": 102, "note": 72, "velocity": 103, "channel": 0}, {"type": "note_off", "time": 86, "note": 72, "velocity": 103, "channel": 0}, {"type": "note_on", "time": 101, "note": 72, "velocity": 111, "channel": 0}, {"type": "note_off", "time": 101, "note": 72, "velocity": 111, "channel": 0}, {"type": "note_on", "time": 36, "note": 65, "velocity": 99, "channel": 0}, {"type": "note_off", "time": 46, "note": 65, "velocity": 99, "channel": 0}, {"type": "note_on", "time": 6, "note": 68, "velocity": 110, "channel": 0}, {"type": "note_off", "time": 114, "note": 68, "velocity": 110, "channel": 0}, {"type": "note_on", "time": 37, "note": 70, "velocity": 104, "channel": 0}, {"type": "note_off", "time": 70, "note": 70, "velocity": 104, "channel": 0}, {"type": "note_on", "time": 468, "note": 60, "velocity": 112, "channel": 0}, {"type": "note_off", "time": 98, "note": 60, "velocity": 112, "channel": 0}, {"type": "note_on", "time": 4, "note": 61, "velocity": 112, "channel": 0}, {"type": "note_off", "time": 85, "note": 61, "velocity": 112, "channel": 0}, {"type": "note_on", "time": 122, "note": 65, "velocity": 109, "channel": 0}, {"type": "note_off", "time": 66, "note": 65, "velocity": 109, "channel": 0}, {"type": "note_on", "time": 421, "note": 58, "velocity": 93, "channel": 0}, {"type": "note_off", "time": 46, "note": 58, "velocity": 93, "channel": 0}, {"type": "note_on", "time": 11, "note": 61, "velocity": 119, "channel": 0}, {"type": "note_off", "time": 114, "note": 61, "velocity": 119, "channel": 0}, {"type": "note_on", "time": 40, "note": 63, "velocity": 113, "channel": 0}, {"type": "note_off", "time": 99, "note": 63, "velocity": 113, "channel": 0}, {"type": "note_on", "time": 456, "note": 53, "velocity": 101, "channel": 0}, {"type": "note_off", "time": 61, "note": 53, "velocity": 101, "channel": 0}, {"type": "note_on", "time": 35, "note": 56, "velocity": 103, "channel": 0}, {"type": "note_off", "time": 74, "note": 56, "velocity": 103, "channel": 0}, {"type": "note_on", "time": 111, "note": 60, "velocity": 101, "channel": 0}, {"type": "note_off", "time": 87, "note": 60, "velocity": 101, "channel": 0}, {"type": "note_on", "time": 107, "note": 60, "velocity": 99, "channel": 0}, {"type": "note_off", "time": 92, "note": 60, "velocity": 99, "channel": 0}, {"type": "note_on", "time": 92, "note": 60, "velocity": 101, "channel": 0}, {"type": "note_off", "time": 103, "note": 60, "velocity": 101, "channel": 0}, {"type": "note_on", "time": 20, "note": 53, "velocity": 95, "channel": 0}, {"type": "note_off", "time": 67, "note": 53, "velocity": 95, "channel": 0}, {"type": "note_on", "time": 5, "note": 56, "velocity": 106, "channel": 0}, {"type": "note_off", "time": 111, "note": 56, "velocity": 106, "channel": 0}, {"type": "note_on", "time": 31, "note": 58, "velocity": 105, "channel": 0}, {"type": "note_off", "time": 69, "note": 58, "velocity": 105, "channel": 0}, {"type": "note_on", "time": 575, "note": 63, "velocity": 118, "channel": 0}, {"type": "note_off", "time": 81, "note": 63, "velocity": 118, "channel": 0}, {"type": "note_on", "time": 101, "note": 67, "velocity": 113, "channel": 0}, {"type": "note_off", "time": 99, "note": 67, "velocity": 113, "channel": 0}, {"type": "note_on", "time": 724, "note": 60, "velocity": 118, "channel": 0}, {"type": "note_off", "time": 40, "note": 60, "velocity": 118, "channel": 0}, {"type": "note_on", "time": 0, "note": 61, "velocity": 118, "channel": 0}, {"type": "note_off", "time": 67, "note": 61, "velocity": 118, "channel": 0}, {"type": "note_on", "time": 2, "note": 59, "velocity": 96, "channel": 0}, {"type": "note_off", "time": 28, "note": 59, "velocity": 96, "channel": 0}, {"type": "note_on", "time": 421, "note": 56, "velocity": 93, "channel": 0}, {"type": "note_off", "time": 62, "note": 56, "velocity": 93, "channel": 0}, {"type": "note_on", "time": 129, "note": 60, "velocity": 99, "channel": 0}, {"type": "note_off", "time": 121, "note": 60, "velocity": 99, "channel": 0}, {"type": "end_of_track", "time": 0}]]}