{"ticks_per_beat": 192, "tracks": [[{"type": "track_name", "name": "Melody", "time": 0}, {"type": "set_tempo", "tempo": 267857, "time": 0}, {"type": "key_signature", "key": "C", "time": 0}, {"type": "time_signature", "numerator": 4, "denominator": 4, "clocks_per_click": 24, "notated_32nd_notes_per_beat": 8, "time": 0}, {"type": "note_on", "time": 2184, "note": 67, "velocity": 111, "channel": 0}, {"type": "note_off", "time": 91, "note": 67, "velocity": 111, "channel": 0}, {"type": "note_on", "time": 8, "note": 71, "velocity": 123, "channel": 0}, {"type": "note_off", "time": 110, "note": 71, "velocity": 123, "channel": 0}, {"type": "note_on", "time": 12, "note": 72, "velocity": 127, "channel": 0}, {"type": "note_off", "time": 95, "note": 72, "velocity": 127, "channel": 0}, {"type": "note_on", "time": 0, "note": 71, "velocity": 119, "channel": 0}, {"type": "note_off", "time": 114, "note": 71, "velocity": 119, "channel": 0}, {"type": "note_on", "time": 4, "note": 69, "velocity": 109, "channel": 0}, {"type": "note_off", "time": 91, "note": 69, "velocity": 109, "channel": 0}, {"type": "note_on", "time": 6, "note": 67, "velocity": 117, "channel": 0}, {"type": "note_off", "time": 93, "note": 67, "velocity": 117, "channel": 0}, {"type": "note_on", "time": 0, "note": 65, "velocity": 114, "channel": 0}, {"type": "note_off", "time": 87, "note": 65, "velocity": 114, "channel": 0}, {"type": "note_on", "time": 10, "note": 64, "velocity": 111, "channel": 0}, {"type": "note_off", "time": 101, "note": 64, "velocity": 111, "channel": 0}, {"type": "note_on", "time": 0, "note": 62, "velocity": 119, "channel": 0}, {"type": "note_off", "time": 79, "note": 62, "velocity": 119, "channel": 0}, {"type": "note_on", "time": 0, "note": 61, "velocity": 113, "channel": 0}, {"type": "note_off", "time": 99, "note": 61, "velocity": 113, "channel": 0}, {"type": "note_on", "time": 0, "note": 64, "velocity": 99, "channel": 0}, {"type": "note_off", "time": 73, "note": 64, "velocity": 99, "channel": 0}, {"type": "note_on", "time": 5, "note": 67, "velocity": 118, "channel": 0}, {"type": "note_on", "time": 119, "note": 70, "velocity": 110, "channel": 0}, {"type": "note_off", "time": 0, "note": 67, "velocity": 118, "channel": 0}, {"type": "note_off", "time": 84, "note": 70, "velocity": 110, "channel": 0}, {"type": "note_on", "time": 11, "note": 67, "velocity": 102, "channel": 0}, {"type": "note_off", "time": 91, "note": 67, "velocity": 102, "channel": 0}, {"type": "note_on", "time": 14, "note": 68, "velocity": 109, "channel": 0}, {"type": "note_off", "time": 89, "note": 68, "velocity": 109, "channel": 0}, {"type": "note_on", "time": 12, "note": 69, "velocity": 116, "channel": 0}, {"type": "note_off", "time": 91, "note": 69, "velocity": 116, "channel": 0}, {"type": "note_on", "time": 0, "note": 65, "velocity": 108, "channel": 0}, {"type": "note_off", "time": 74, "note": 65, "velocity": 108, "channel": 0}, {"type": "note_on", "time": 4, "note": 64, "velocity": 99, "channel": 0}, {"type": "note_off", "time": 89, "note": 64, "velocity": 99, "channel": 0}, {"type": "note_on", "time": 4, "note": 62, "velocity": 99, "channel": 0}, {"type": "note_off", "time": 81, "note": 62, "velocity": 99, "channel": 0}, {"type": "note_on", "time": 4, "note": 67, "velocity": 117, "channel": 0}, {"type": "note_off", "time": 89, "note": 67, "velocity": 117, "channel": 0}, {"type": "note_on", "time": 10, "note": 59, "velocity": 99, "channel": 0}, {"type": "note_off", "time": 95, "note": 59, "velocity": 99, "channel": 0}, {"type": "note_on", "time": 8, "note": 60, "velocity": 112, "channel": 0}, {"type": "note_off", "time": 122, "note": 60, "velocity": 112, "channel": 0}, {"type": "note_on", "time": 2, "note": 65, "velocity": 117, "channel": 0}, {"type": "note_off", "time": 72, "note": 65, "velocity": 117, "channel": 0}, {"type": "note_on", "time": 8, "note": 64, "velocity": 111, "channel": 0}, {"type": "note_off", "time": 89, "note": 64, "velocity": 111, "channel": 0}, {"type": "note_on", "time": 0, "note": 60, "velocity": 109, "channel": 0}, {"type": "note_off", "time": 97, "note": 60, "velocity": 109, "channel": 0}, {"type": "note_on", "time": 4, "note": 57, "velocity": 109, "channel": 0}, {"type": "note_off", "time": 91, "note": 57, "velocity": 109, "channel": 0}, {"type": "note_on", "time": 4, "note": 54, "velocity": 104, "channel": 0}, {"type": "note_off", "time": 56, "note": 54, "velocity": 104, "channel": 0}, {"type": "note_on", "time": 24, "note": 56, "velocity": 110, "channel": 0}, {"type": "note_off", "time": 81, "note": 56, "velocity": 110, "channel": 0}, {"type": "note_on", "time": 8, "note": 58, "velocity": 99, "channel": 0}, {"type": "note_off", "time": 29, "note": 58, "velocity": 99, "channel": 0}, {"type": "note_on", "time": 6, "note": 56, "velocity": 112, "channel": 0}, {"type": "note_off", "time": 52, "note": 56, "velocity": 112, "channel": 0}, {"type": "note_on", "time": 14, "note": 55, "velocity": 117, "channel": 0}, {"type": "note_off", "time": 79, "note": 55, "velocity": 117, "channel": 0}, {"type": "note_on", "time": 10, "note": 53, "velocity": 108, "channel": 0}, {"type": "note_off", "time": 106, "note": 53, "velocity": 108, "channel": 0}, {"type": "note_on", "time": 9, "note": 52, "velocity": 109, "channel": 0}, {"type": "note_off", "time": 67, "note": 52, "velocity": 109, "channel": 0}, {"type": "note_on", "time": 0, "note": 62, "velocity": 112, "channel": 0}, {"type": "note_off", "time": 122, "note": 62, "velocity": 112, "channel": 0}, {"type": "note_on", "time": 0, "note": 59, "velocity": 100, "channel": 0}, {"type": "note_off", "time": 119, "note": 59, "velocity": 100, "channel": 0}, {"type": "note_on", "time": 696, "note": 68, "velocity": 122, "channel": 0}, {"type": "note_off", "time": 70, "note": 68, "velocity": 122, "channel": 0}, {"type": "note_on", "time": 17, "note": 69, "velocity": 121, "channel": 0}, {"type": "note_off", "time": 93, "note": 69, "velocity": 121, "channel": 0}, {"type": "note_on", "time": 0, "note": 71, "velocity": 116, "channel": 0}, {"type": "note_off", "time": 52, "note": 71, "velocity": 116, "channel": 0}, {"type": "note_on", "time": 8, "note": 70, "velocity": 114, "channel": 0}, {"type": "note_off", "time": 49, "note": 70, "velocity": 114, "channel": 0}, {"type": "note_on", "time": 14, "note": 69, "velocity": 118, "channel": 0}, {"type": "note_off", "time": 111, "note": 69, "velocity": 118, "channel": 0}, {"type": "note_on", "time": 0, "note": 67, "velocity": 119, "channel": 0}, {"type": "note_off", "time": 84, "note": 67, "velocity": 119, "channel": 0}, {"type": "note_on", "time": 29, "note": 64, "velocity": 114, "channel": 0}, {"type": "note_off", "time": 61, "note": 64, "velocity": 114, "channel": 0}, {"type": "note_on", "time": 11, "note": 65, "velocity": 115, "channel": 0}, {"type": "note_off", "time": 160, "note": 65, "velocity": 115, "channel": 0}, {"type": "note_on", "time": 974, "note": 60, "velocity": 104, "channel": 0}, {"type": "note_off", "time": 111, "note": 60, "velocity": 104, "channel": 0}, {"type": "note_on", "time": 84, "note": 67, "velocity": 121, "channel": 0}, {"type": "note_off", "time": 67, "note": 67, "velocity": 121, "channel": 0}, {"type": "note_on", "time": 96, "note": 60, "velocity": 108, "channel": 0}, {"type": "note_off", "time": 102, "note": 60, "velocity": 108, "channel": 0}, {"type": "note_on", "time": 84, "note": 60, "velocity": 113, "channel": 0}, {"type": "note_off", "time": 90, "note": 60, "velocity": 113, "channel": 0}, {"type": "note_on", "time": 0, "note": 67, "velocity": 111, "channel": 0}, {"type": "note_off", "time": 108, "note": 67, "velocity": 111, "channel": 0}, {"type": "note_on", "time": 11, "note": 60, "velocity": 106, "channel": 0}, {"type": "note_off", "time": 117, "note": 60, "velocity": 106, "channel": 0}, {"type": "note_on", "time": 149, "note": 62, "velocity": 117, "channel": 0}, {"type": "note_off", "time": 102, "note": 62, "velocity": 117, "channel": 0}, {"type": "note_on", "time": 8, "note": 65, "velocity": 115, "channel": 0}, {"type": "note_off", "time": 87, "note": 65, "velocity": 115, "channel": 0}, {"type": "note_on", "time": 0, "note": 62, "velocity": 114, "channel": 0}, {"type": "note_off", "time": 90, "note": 62, "velocity": 114, "channel": 0}, {"type": "note_on", "time": 0, "note": 63, "velocity": 113, "channel": 0}, {"type": "note_off", "time": 102, "note": 63, "velocity": 113, "channel": 0}, {"type": "note_on", "time": 8, "note": 64, "velocity": 119, "channel": 0}, {"type": "note_off", "time": 93, "note": 64, "velocity": 119, "channel": 0}, {"type": "note_on", "time": 5, "note": 62, "velocity": 121, "channel": 0}, {"type": "note_off", "time": 81, "note": 62, "velocity": 121, "channel": 0}, {"type": "note_on", "time": 1, "note": 61, "velocity": 114, "channel": 0}, {"type": "note_off", "time": 121, "note": 61, "velocity": 114, "channel": 0}, {"type": "note_on", "time": 13, "note": 57, "velocity": 104, "channel": 0}, {"type": "note_off", "time": 29, "note": 57, "velocity": 104, "channel": 0}, {"type": "note_on", "time": 13, "note": 64, "velocity": 108, "channel": 0}, {"type": "note_off", "time": 35, "note": 64, "velocity": 108, "channel": 0}, {"type": "note_on", "time": 5, "note": 67, "velocity": 111, "channel": 0}, {"type": "note_off", "time": 32, "note": 67, "velocity": 111, "channel": 0}, {"type": "note_on", "time": 8, "note": 64, "velocity": 107, "channel": 0}, {"type": "note_off", "time": 52, "note": 64, "velocity": 107, "channel": 0}, {"type": "note_on", "time": 5, "note": 61, "velocity": 112, "channel": 0}, {"type": "note_off", "time": 55, "note": 61, "velocity": 112, "channel": 0}, {"type": "note_on", "time": 11, "note": 62, "velocity": 120, "channel": 0}, {"type": "note_off", "time": 108, "note": 62, "velocity": 120, "channel": 0}, {"type": "note_on", "time": 0, "note": 64, "velocity": 101, "channel": 0}, {"type": "note_off", "time": 55, "note": 64, "velocity": 101, "channel": 0}, {"type": "note_on", "time": 20, "note": 65, "velocity": 121, "channel": 0}, {"type": "note_off", "time": 122, "note": 65, "velocity": 121, "channel": 0}, {"type": "note_on", "time": 17, "note": 67, "velocity": 106, "channel": 0}, {"type": "note_off", "time": 38, "note": 67, "velocity": 106, "channel": 0}, {"type": "note_on", "time": 14, "note": 69, "velocity": 115, "channel": 0}, {"type": "note_off", "time": 111, "note": 69, "velocity": 115, "channel": 0}, {"type": "note_on", "time": 0, "note": 68, "velocity": 121, "channel": 0}, {"type": "note_off", "time": 128, "note": 68, "velocity": 121, "channel": 0}, {"type": "note_on", "time": 64, "note": 55, "velocity": 108, "channel": 0}, {"type": "note_off", "time": 84, "note": 55, "velocity": 108, "channel": 0}, {"type": "note_on", "time": 17, "note": 56, "velocity": 108, "channel": 0}, {"type": "note_off", "time": 67, "note": 56, "velocity": 108, "channel": 0}, {"type": "note_on", "time": 14, "note": 65, "velocity": 111, "channel": 0}, {"type": "note_off", "time": 257, "note": 65, "velocity": 111, "channel": 0}, {"type": "note_on", "time": 1184, "note": 59, "velocity": 115, "channel": 0}, {"type": "note_off", "time": 73, "note": 59, "velocity": 115, "channel": 0}, {"type": "note_on", "time": 23, "note": 60, "velocity": 122, "channel": 0}, {"type": "note_off", "time": 851, "note": 60, "velocity": 122, "channel": 0}, {"type": "note_on", "time": 17, "note": 59, "velocity": 116, "channel": 0}, {"type": "note_off", "time": 99, "note": 59, "velocity": 116, "channel": 0}, {"type": "note_on", "time": 20, "note": 60, "velocity": 120, "channel": 0}, {"type": "note_off", "time": 748, "note": 60, "velocity": 120, "channel": 0}, {"type": "note_on", "time": 23, "note": 59, "velocity": 108, "channel": 0}, {"type": "note_off", "time": 289, "note": 59, "velocity": 108, "channel": 0}, {"type": "note_on", "time": 38, "note": 60, "velocity": 119, "channel": 0}, {"type": "note_off", "time": 547, "note": 60, "velocity": 119, "channel": 0}, {"type": "note_on", "time": 64, "note": 65, "velocity": 109, "channel": 0}, {"type": "note_off", "time": 64, "note": 65, "velocity": 109, "channel": 0}, {"type": "note_on", "time": 20, "note": 67, "velocity": 118, "channel": 0}, {"type": "note_off", "time": 389, "note": 67, "velocity": 118, "channel": 0}, {"type": "note_on", "time": 2, "note": 66, "velocity": 108, "channel": 0}, {"type": "note_off", "time": 61, "note": 66, "velocity": 108, "channel": 0}, {"type": "note_on", "time": 5, "note": 63, "velocity": 114, "channel": 0}, {"type": "note_off", "time": 61, "note": 63, "velocity": 114, "channel": 0}, {"type": "note_on", "time": 8, "note": 60, "velocity": 114, "channel": 0}, {"type": "note_off", "time": 313, "note": 60, "velocity": 114, "channel": 0}, {"type": "note_on", "time": 898, "note": 66, "velocity": 83, "channel": 0}, {"type": "note_off", "time": 55, "note": 66, "velocity": 83, "channel": 0}, {"type": "note_on", "time": 0, "note": 68, "velocity": 117, "channel": 0}, {"type": "note_on", "time": 46, "note": 72, "velocity": 120, "channel": 0}, {"type": "note_off", "time": 0, "note": 68, "velocity": 117, "channel": 0}, {"type": "note_off", "time": 70, "note": 72, "velocity": 120, "channel": 0}, {"type": "note_on", "time": 0, "note": 71, "velocity": 122, "channel": 0}, {"type": "note_off", "time": 38, "note": 71, "velocity": 122, "channel": 0}, {"type": "note_on", "time": 2, "note": 69, "velocity": 124, "channel": 0}, {"type": "note_off", "time": 58, "note": 69, "velocity": 124, "channel": 0}, {"type": "note_on", "time": 8, "note": 67, "velocity": 123, "channel": 0}, {"type": "note_off", "time": 64, "note": 67, "velocity": 123, "channel": 0}, {"type": "note_on", "time": 0, "note": 64, "velocity": 118, "channel": 0}, {"type": "note_off", "time": 35, "note": 64, "velocity": 118, "channel": 0}, {"type": "note_on", "time": 8, "note": 62, "velocity": 120, "channel": 0}, {"type": "note_off", "time": 43, "note": 62, "velocity": 120, "channel": 0}, {"type": "note_on", "time": 0, "note": 60, "velocity": 115, "channel": 0}, {"type": "note_off", "time": 64, "note": 60, "velocity": 115, "channel": 0}, {"type": "note_on", "time": 0, "note": 59, "velocity": 112, "channel": 0}, {"type": "note_off", "time": 67, "note": 59, "velocity": 112, "channel": 0}, {"type": "note_on", "time": 0, "note": 56, "velocity": 111, "channel": 0}, {"type": "note_off", "time": 67, "note": 56, "velocity": 111, "channel": 0}, {"type": "note_on", "time": 5, "note": 57, "velocity": 108, "channel": 0}, {"type": "note_on", "time": 84, "note": 53, "velocity": 100, "channel": 0}, {"type": "note_off", "time": 0, "note": 57, "velocity": 108, "channel": 0}, {"type": "note_off", "time": 64, "note": 53, "velocity": 100, "channel": 0}, {"type": "note_on", "time": 5, "note": 55, "velocity": 114, "channel": 0}, {"type": "note_off", "time": 102, "note": 55, "velocity": 114, "channel": 0}, {"type": "note_on", "time": 14, "note": 53, "velocity": 108, "channel": 0}, {"type": "note_off", "time": 81, "note": 53, "velocity": 108, "channel": 0}, {"type": "note_on", "time": 14, "note": 55, "velocity": 111, "channel": 0}, {"type": "note_off", "time": 46, "note": 55, "velocity": 111, "channel": 0}, {"type": "note_on", "time": 5, "note": 57, "velocity": 114, "channel": 0}, {"type": "note_off", "time": 43, "note": 57, "velocity": 114, "channel": 0}, {"type": "note_on", "time": 8, "note": 62, "velocity": 109, "channel": 0}, {"type": "note_off", "time": 55, "note": 62, "velocity": 109, "channel": 0}, {"type": "note_on", "time": 0, "note": 59, "velocity": 92, "channel": 0}, {"type": "note_off", "time": 64, "note": 59, "velocity": 92, "channel": 0}, {"type": "note_on", "time": 784, "note": 61, "velocity": 112, "channel": 0}, {"type": "note_off", "time": 67, "note": 61, "velocity": 112, "channel": 0}, {"type": "note_on", "time": 2, "note": 62, "velocity": 110, "channel": 0}, {"type": "note_off", "time": 61, "note": 62, "velocity": 110, "channel": 0}, {"type": "note_on", "time": 5, "note": 69, "velocity": 115, "channel": 0}, {"type": "note_off", "time": 58, "note": 69, "velocity": 115, "channel": 0}, {"type": "note_on", "time": 0, "note": 72, "velocity": 116, "channel": 0}, {"type": "note_off", "time": 55, "note": 72, "velocity": 116, "channel": 0}, {"type": "note_on", "time": 5, "note": 71, "velocity": 117, "channel": 0}, {"type": "note_off", "time": 122, "note": 71, "velocity": 117, "channel": 0}, {"type": "note_on", "time": 5, "note": 67, "velocity": 105, "channel": 0}, {"type": "note_off", "time": 58, "note": 67, "velocity": 105, "channel": 0}, {"type": "note_on", "time": 2, "note": 69, "velocity": 113, "channel": 0}, {"type": "note_off", "time": 117, "note": 69, "velocity": 113, "channel": 0}, {"type": "note_on", "time": 2, "note": 71, "velocity": 115, "channel": 0}, {"type": "note_off", "time": 152, "note": 71, "velocity": 115, "channel": 0}, {"type": "note_on", "time": 2, "note": 69, "velocity": 99, "channel": 0}, {"type": "note_off", "time": 78, "note": 69, "velocity": 99, "channel": 0}, {"type": "note_on", "time": 0, "note": 67, "velocity": 118, "channel": 0}, {"type": "note_off", "time": 119, "note": 67, "velocity": 118, "channel": 0}, {"type": "note_on", "time": 8, "note": 64, "velocity": 117, "channel": 0}, {"type": "note_off", "time": 108, "note": 64, "velocity": 117, "channel": 0}, {"type": "note_on", "time": 0, "note": 59, "velocity": 99, "channel": 0}, {"type": "note_off", "time": 87, "note": 59, "velocity": 99, "channel": 0}, {"type": "note_on", "time": 0, "note": 60, "velocity": 116, "channel": 0}, {"type": "note_off", "time": 108, "note": 60, "velocity": 116, "channel": 0}, {"type": "note_on", "time": 0, "note": 64, "velocity": 115, "channel": 0}, {"type": "note_off", "time": 102, "note": 64, "velocity": 115, "channel": 0}, {"type": "note_on", "time": 8, "note": 67, "velocity": 112, "channel": 0}, {"type": "note_off", "time": 43, "note": 67, "velocity": 112, "channel": 0}, {"type": "note_on", "time": 14, "note": 70, "velocity": 117, "channel": 0}, {"type": "note_off", "time": 143, "note": 70, "velocity": 117, "channel": 0}, {"type": "note_on", "time": 29, "note": 64, "velocity": 116, "channel": 0}, {"type": "note_off", "time": 111, "note": 64, "velocity": 116, "channel": 0}, {"type": "note_on", "time": 491, "note": 63, "velocity": 121, "channel": 0}, {"type": "note_off", "time": 102, "note": 63, "velocity": 121, "channel": 0}, {"type": "note_on", "time": 11, "note": 68, "velocity": 112, "channel": 0}, {"type": "note_off", "time": 84, "note": 68, "velocity": 112, "channel": 0}, {"type": "note_on", "time": 0, "note": 62, "velocity": 114, "channel": 0}, {"type": "note_off", "time": 102, "note": 62, "velocity": 114, "channel": 0}, {"type": "note_on", "time": 8, "note": 60, "velocity": 103, "channel": 0}, {"type": "note_off", "time": 102, "note": 60, "velocity": 103, "channel": 0}, {"type": "note_on", "time": 0, "note": 61, "velocity": 115, "channel": 0}, {"type": "note_off", "time": 76, "note": 61, "velocity": 115, "channel": 0}, {"type": "note_on", "time": 14, "note": 64, "velocity": 96, "channel": 0}, {"type": "note_off", "time": 61, "note": 64, "velocity": 96, "channel": 0}, {"type": "note_on", "time": 11, "note": 67, "velocity": 119, "channel": 0}, {"type": "note_off", "time": 117, "note": 67, "velocity": 119, "channel": 0}, {"type": "note_on", "time": 2, "note": 70, "velocity": 118, "channel": 0}, {"type": "note_off", "time": 73, "note": 70, "velocity": 118, "channel": 0}, {"type": "note_on", "time": 2, "note": 69, "velocity": 113, "channel": 0}, {"type": "note_off", "time": 99, "note": 69, "velocity": 113, "channel": 0}, {"type": "note_on", "time": 0, "note": 62, "velocity": 112, "channel": 0}, {"type": "note_off", "time": 46, "note": 62, "velocity": 112, "channel": 0}, {"type": "note_on", "time": 8, "note": 63, "velocity": 113, "channel": 0}, {"type": "note_on", "time": 35, "note": 64, "velocity": 111, "channel": 0}, {"type": "note_off", "time": 0, "note": 63, "velocity": 113, "channel": 0}, {"type": "note_off", "time": 99, "note": 64, "velocity": 111, "channel": 0}, {"type": "note_on", "time": 2, "note": 67, "velocity": 117, "channel": 0}, {"type": "note_off", "time": 90, "note": 67, "velocity": 117, "channel": 0}, {"type": "note_on", "time": 0, "note": 65, "velocity": 112, "channel": 0}, {"type": "note_off", "time": 96, "note": 65, "velocity": 112, "channel": 0}, {"type": "note_on", "time": 35, "note": 55, "velocity": 112, "channel": 0}, {"type": "note_off", "time": 96, "note": 55, "velocity": 112, "channel": 0}, {"type": "note_on", "time": 0, "note": 57, "velocity": 104, "channel": 0}, {"type": "note_off", "time": 70, "note": 57, "velocity": 104, "channel": 0}, {"type": "note_on", "time": 0, "note": 60, "velocity": 107, "channel": 0}, {"type": "note_off", "time": 90, "note": 60, "velocity": 107, "channel": 0}, {"type": "note_on", "time": 5, "note": 64, "velocity": 123, "channel": 0}, {"type": "note_off", "time": 99, "note": 64, "velocity": 123, "channel": 0}, {"type": "note_on", "time": 2, "note": 62, "velocity": 120, "channel": 0}, {"type": "note_off", "time": 87, "note": 62, "velocity": 120, "channel": 0}, {"type": "note_on", "time": 0, "note": 57, "velocity": 104, "channel": 0}, {"type": "note_off", "time": 87, "note": 57, "velocity": 104, "channel": 0}, {"type": "note_on", "time": 0, "note": 60, "velocity": 107, "channel": 0}, {"type": "note_off", "time": 111, "note": 60, "velocity": 107, "channel": 0}, {"type": "note_on", "time": 11, "note": 59, "velocity": 106, "channel": 0}, {"type": "note_off", "time": 67, "note": 59, "velocity": 106, "channel": 0}, {"type": "note_on", "time": 2, "note": 62, "velocity": 108, "channel": 0}, {"type": "note_off", "time": 64, "note": 62, "velocity": 108, "channel": 0}, {"type": "note_on", "time": 14, "note": 65, "velocity": 113, "channel": 0}, {"type": "note_off", "time": 102, "note": 65, "velocity": 113, "channel": 0}, {"type": "note_on", "time": 5, "note": 69, "velocity": 116, "channel": 0}, {"type": "note_off", "time": 102, "note": 69, "velocity": 116, "channel": 0}, {"type": "note_on", "time": 0, "note": 67, "velocity": 120, "channel": 0}, {"type": "note_off", "time": 102, "note": 67, "velocity": 120, "channel": 0}, {"type": "note_on", "time": 2, "note": 59, "velocity": 104, "channel": 0}, {"type": "note_off", "time": 84, "note": 59, "velocity": 104, "channel": 0}, {"type": "note_on", "time": 8, "note": 60, "velocity": 113, "channel": 0}, {"type": "note_off", "time": 93, "note": 60, "velocity": 113, "channel": 0}, {"type": "note_on", "time": 0, "note": 65, "velocity": 118, "channel": 0}, {"type": "note_off", "time": 81, "note": 65, "velocity": 118, "channel": 0}, {"type": "note_on", "time": 2, "note": 64, "velocity": 120, "channel": 0}, {"type": "note_off", "time": 93, "note": 64, "velocity": 120, "channel": 0}, {"type": "note_on", "time": 11, "note": 60, "velocity": 119, "channel": 0}, {"type": "note_off", "time": 96, "note": 60, "velocity": 119, "channel": 0}, {"type": "note_on", "time": 11, "note": 58, "velocity": 111, "channel": 0}, {"type": "note_off", "time": 96, "note": 58, "velocity": 111, "channel": 0}, {"type": "note_on", "time": 0, "note": 56, "velocity": 109, "channel": 0}, {"type": "note_off", "time": 87, "note": 56, "velocity": 109, "channel": 0}, {"type": "note_on", "time": 8, "note": 57, "velocity": 119, "channel": 0}, {"type": "note_on", "time": 99, "note": 60, "velocity": 120, "channel": 0}, {"type": "note_off", "time": 0, "note": 57, "velocity": 119, "channel": 0}, {"type": "note_off", "time": 96, "note": 60, "velocity": 120, "channel": 0}, {"type": "note_on", "time": 0, "note": 62, "velocity": 112, "channel": 0}, {"type": "note_off", "time": 87, "note": 62, "velocity": 112, "channel": 0}, {"type": "note_on", "time": 2, "note": 64, "velocity": 107, "channel": 0}, {"type": "note_off", "time": 49, "note": 64, "velocity": 107, "channel": 0}, {"type": "note_on", "time": 8, "note": 67, "velocity": 121, "channel": 0}, {"type": "note_off", "time": 119, "note": 67, "velocity": 121, "channel": 0}, {"type": "note_on", "time": 20, "note": 65, "velocity": 118, "channel": 0}, {"type": "note_off", "time": 99, "note": 65, "velocity": 118, "channel": 0}, {"type": "note_on", "time": 2, "note": 64, "velocity": 118, "channel": 0}, {"type": "note_off", "time": 70, "note": 64, "velocity": 118, "channel": 0}, {"type": "note_on", "time": 8, "note": 62, "velocity": 122, "channel": 0}, {"type": "note_off", "time": 81, "note": 62, "velocity": 122, "channel": 0}, {"type": "note_on", "time": 0, "note": 60, "velocity": 116, "channel": 0}, {"type": "note_off", "time": 96, "note": 60, "velocity": 116, "channel": 0}, {"type": "note_on", "time": 5, "note": 57, "velocity": 113, "channel": 0}, {"type": "note_off", "time": 96, "note": 57, "velocity": 113, "channel": 0}, {"type": "note_on", "time": 8, "note": 55, "velocity": 113, "channel": 0}, {"type": "note_off", "time": 87, "note": 55, "velocity": 113, "channel": 0}, {"type": "note_on", "time": 8, "note": 53, "velocity": 114, "channel": 0}, {"type": "note_off", "time": 93, "note": 53, "velocity": 114, "channel": 0}, {"type": "note_on", "time": 5, "note": 52, "velocity": 113, "channel": 0}, {"type": "note_off", "time": 78, "note": 52, "velocity": 113, "channel": 0}, {"type": "note_on", "time": 5, "note": 55, "velocity": 112, "channel": 0}, {"type": "note_off", "time": 111, "note": 55, "velocity": 112, "channel": 0}, {"type": "note_on", "time": 0, "note": 57, "velocity": 105, "channel": 0}, {"type": "note_off", "time": 93, "note": 57, "velocity": 105, "channel": 0}, {"type": "note_on", "time": 0, "note": 59, "velocity": 102, "channel": 0}, {"type": "note_off", "time": 70, "note": 59, "velocity": 102, "channel": 0}, {"type": "note_on", "time": 0, "note": 62, "velocity": 123, "channel": 0}, {"type": "note_off", "time": 114, "note": 62, "velocity": 123, "channel": 0}, {"type": "note_on", "time": 11, "note": 59, "velocity": 101, "channel": 0}, {"type": "note_off", "time": 58, "note": 59, "velocity": 101, "channel": 0}, {"type": "note_on", "time": 0, "note": 62, "velocity": 117, "channel": 0}, {"type": "note_off", "time": 111, "note": 62, "velocity": 117, "channel": 0}, {"type": "note_on", "time": 0, "note": 63, "velocity": 122, "channel": 0}, {"type": "note_off", "time": 108, "note": 63, "velocity": 122, "channel": 0}, {"type": "note_on", "time": 2, "note": 59, "velocity": 111, "channel": 0}, {"type": "note_off", "time": 102, "note": 59, "velocity": 111, "channel": 0}, {"type": "note_on", "time": 0, "note": 56, "velocity": 118, "channel": 0}, {"type": "note_off", "time": 73, "note": 56, "velocity": 118, "channel": 0}, {"type": "note_on", "time": 17, "note": 55, "velocity": 117, "channel": 0}, {"type": "note_off", "time": 78, "note": 55, "velocity": 117, "channel": 0}, {"type": "note_on", "time": 17, "note": 53, "velocity": 115, "channel": 0}, {"type": "note_off", "time": 78, "note": 53, "velocity": 115, "channel": 0}, {"type": "note_on", "time": 5, "note": 52, "velocity": 108, "channel": 0}, {"type": "note_off", "time": 99, "note": 52, "velocity": 108, "channel": 0}, {"type": "note_on", "time": 26, "note": 58, "velocity": 98, "channel": 0}, {"type": "note_off", "time": 46, "note": 58, "velocity": 98, "channel": 0}, {"type": "note_on", "time": 14, "note": 62, "velocity": 122, "channel": 0}, {"type": "note_off", "time": 93, "note": 62, "velocity": 122, "channel": 0}, {"type": "note_on", "time": 0, "note": 59, "velocity": 104, "channel": 0}, {"type": "note_off", "time": 52, "note": 59, "velocity": 104, "channel": 0}, {"type": "note_on", "time": 26, "note": 60, "velocity": 122, "channel": 0}, {"type": "note_off", "time": 117, "note": 60, "velocity": 122, "channel": 0}, {"type": "note_on", "time": 0, "note": 55, "velocity": 104, "channel": 0}, {"type": "note_off", "time": 64, "note": 55, "velocity": 104, "channel": 0}, {"type": "note_on", "time": 0, "note": 65, "velocity": 117, "channel": 0}, {"type": "note_off", "time": 122, "note": 65, "velocity": 117, "channel": 0}, {"type": "note_on", "time": 0, "note": 63, "velocity": 113, "channel": 0}, {"type": "note_off", "time": 55, "note": 63, "velocity": 113, "channel": 0}, {"type": "note_on", "time": 5, "note": 64, "velocity": 120, "channel": 0}, {"type": "note_off", "time": 134, "note": 64, "velocity": 120, "channel": 0}, {"type": "note_on", "time": 2, "note": 55, "velocity": 109, "channel": 0}, {"type": "note_off", "time": 61, "note": 55, "velocity": 109, "channel": 0}, {"type": "note_on", "time": 8, "note": 61, "velocity": 115, "channel": 0}, {"type": "note_off", "time": 84, "note": 61, "velocity": 115, "channel": 0}, {"type": "note_on", "time": 11, "note": 64, "velocity": 120, "channel": 0}, {"type": "note_off", "time": 175, "note": 64, "velocity": 120, "channel": 0}, {"type": "note_on", "time": 33, "note": 62, "velocity": 121, "channel": 0}, {"type": "note_off", "time": 29, "note": 62, "velocity": 121, "channel": 0}, {"type": "note_on", "time": 7, "note": 63, "velocity": 121, "channel": 0}, {"type": "note_off", "time": 19, "note": 63, "velocity": 121, "channel": 0}, {"type": "note_on", "time": 1, "note": 61, "velocity": 117, "channel": 0}, {"type": "note_off", "time": 105, "note": 61, "velocity": 117, "channel": 0}, {"type": "note_on", "time": 775, "note": 60, "velocity": 117, "channel": 0}, {"type": "note_off", "time": 102, "note": 60, "velocity": 117, "channel": 0}, {"type": "note_on", "time": 0, "note": 65, "velocity": 118, "channel": 0}, {"type": "note_off", "time": 52, "note": 65, "velocity": 118, "channel": 0}, {"type": "note_on", "time": 2, "note": 67, "velocity": 125, "channel": 0}, {"type": "note_off", "time": 90, "note": 67, "velocity": 125, "channel": 0}, {"type": "note_on", "time": 2, "note": 66, "velocity": 119, "channel": 0}, {"type": "note_off", "time": 143, "note": 66, "velocity": 119, "channel": 0}, {"type": "note_on", "time": 5, "note": 63, "velocity": 122, "channel": 0}, {"type": "note_off", "time": 61, "note": 63, "velocity": 122, "channel": 0}, {"type": "note_on", "time": 8, "note": 60, "velocity": 114, "channel": 0}, {"type": "note_on", "time": 81, "note": 63, "velocity": 123, "channel": 0}, {"type": "note_off", "time": 0, "note": 60, "velocity": 114, "channel": 0}, {"type": "note_off", "time": 90, "note": 63, "velocity": 123, "channel": 0}, {"type": "note_on", "time": 2, "note": 66, "velocity": 120, "channel": 0}, {"type": "note_off", "time": 96, "note": 66, "velocity": 120, "channel": 0}, {"type": "note_on", "time": 14, "note": 67, "velocity": 121, "channel": 0}, {"type": "note_off", "time": 73, "note": 67, "velocity": 121, "channel": 0}, {"type": "note_on", "time": 5, "note": 66, "velocity": 116, "channel": 0}, {"type": "note_off", "time": 84, "note": 66, "velocity": 116, "channel": 0}, {"type": "note_on", "time": 20, "note": 63, "velocity": 118, "channel": 0}, {"type": "note_off", "time": 78, "note": 63, "velocity": 118, "channel": 0}, {"type": "note_on", "time": 2, "note": 60, "velocity": 117, "channel": 0}, {"type": "note_off", "time": 99, "note": 60, "velocity": 117, "channel": 0}, {"type": "note_on", "time": 0, "note": 63, "velocity": 120, "channel": 0}, {"type": "note_off", "time": 93, "note": 63, "velocity": 120, "channel": 0}, {"type": "note_on", "time": 8, "note": 66, "velocity": 118, "channel": 0}, {"type": "note_off", "time": 99, "note": 66, "velocity": 118, "channel": 0}, {"type": "note_on", "time": 0, "note": 67, "velocity": 119, "channel": 0}, {"type": "note_off", "time": 93, "note": 67, "velocity": 119, "channel": 0}, {"type": "note_on", "time": 8, "note": 65, "velocity": 111, "channel": 0}, {"type": "note_off", "time": 70, "note": 65, "velocity": 111, "channel": 0}, {"type": "note_on", "time": 14, "note": 63, "velocity": 117, "channel": 0}, {"type": "note_off", "time": 81, "note": 63, "velocity": 117, "channel": 0}, {"type": "note_on", "time": 5, "note": 60, "velocity": 114, "channel": 0}, {"type": "note_off", "time": 90, "note": 60, "velocity": 114, "channel": 0}, {"type": "note_on", "time": 0, "note": 63, "velocity": 117, "channel": 0}, {"type": "note_off", "time": 108, "note": 63, "velocity": 117, "channel": 0}, {"type": "note_on", "time": 0, "note": 65, "velocity": 118, "channel": 0}, {"type": "note_off", "time": 99, "note": 65, "velocity": 118, "channel": 0}, {"type": "note_on", "time": 0, "note": 66, "velocity": 114, "channel": 0}, {"type": "note_off", "time": 111, "note": 66, "velocity": 114, "channel": 0}, {"type": "note_on", "time": 0, "note": 65, "velocity": 109, "channel": 0}, {"type": "note_off", "time": 102, "note": 65, "velocity": 109, "channel": 0}, {"type": "note_on", "time": 0, "note": 63, "velocity": 115, "channel": 0}, {"type": "note_off", "time": 84, "note": 63, "velocity": 115, "channel": 0}, {"type": "note_on", "time": 1184, "note": 71, "velocity": 84, "channel": 0}, {"type": "note_off", "time": 61, "note": 71, "velocity": 84, "channel": 0}, {"type": "note_on", "time": 0, "note": 72, "velocity": 121, "channel": 0}, {"type": "note_off", "time": 163, "note": 72, "velocity": 121, "channel": 0}, {"type": "note_on", "time": 2, "note": 71, "velocity": 117, "channel": 0}, {"type": "note_off", "time": 152, "note": 71, "velocity": 117, "channel": 0}, {"type": "note_on", "time": 8, "note": 70, "velocity": 116, "channel": 0}, {"type": "note_off", "time": 78, "note": 70, "velocity": 116, "channel": 0}, {"type": "note_on", "time": 106, "note": 74, "velocity": 122, "channel": 0}, {"type": "note_off", "time": 35, "note": 74, "velocity": 122, "channel": 0}, {"type": "note_on", "time": 10, "note": 76, "velocity": 126, "channel": 0}, {"type": "note_off", "time": 468, "note": 76, "velocity": 126, "channel": 0}, {"type": "note_on", "time": 140, "note": 75, "velocity": 107, "channel": 0}, {"type": "note_off", "time": 96, "note": 75, "velocity": 107, "channel": 0}, {"type": "note_on", "time": 73, "note": 74, "velocity": 106, "channel": 0}, {"type": "note_off", "time": 96, "note": 74, "velocity": 106, "channel": 0}, {"type": "note_on", "time": 108, "note": 73, "velocity": 115, "channel": 0}, {"type": "note_off", "time": 114, "note": 73, "velocity": 115, "channel": 0}, {"type": "note_on", "time": 61, "note": 69, "velocity": 113, "channel": 0}, {"type": "note_off", "time": 131, "note": 69, "velocity": 113, "channel": 0}, {"type": "note_on", "time": 403, "note": 74, "velocity": 112, "channel": 0}, {"type": "note_off", "time": 131, "note": 74, "velocity": 112, "channel": 0}, {"type": "note_on", "time": 78, "note": 73, "velocity": 117, "channel": 0}, {"type": "note_off", "time": 137, "note": 73, "velocity": 117, "channel": 0}, {"type": "note_on", "time": 40, "note": 61, "velocity": 116, "channel": 0}, {"type": "note_off", "time": 64, "note": 61, "velocity": 116, "channel": 0}, {"type": "note_on", "time": 8, "note": 62, "velocity": 113, "channel": 0}, {"type": "note_off", "time": 32, "note": 62, "velocity": 113, "channel": 0}, {"type": "note_on", "time": 5, "note": 63, "velocity": 115, "channel": 0}, {"type": "note_off", "time": 40, "note": 63, "velocity": 115, "channel": 0}, {"type": "note_on", "time": 11, "note": 65, "velocity": 110, "channel": 0}, {"type": "note_off", "time": 32, "note": 65, "velocity": 110, "channel": 0}, {"type": "note_on", "time": 0, "note": 68, "velocity": 113, "channel": 0}, {"type": "note_off", "time": 43, "note": 68, "velocity": 113, "channel": 0}, {"type": "note_on", "time": 23, "note": 72, "velocity": 119, "channel": 0}, {"type": "note_off", "time": 152, "note": 72, "velocity": 119, "channel": 0}, {"type": "note_on", "time": 17, "note": 69, "velocity": 93, "channel": 0}, {"type": "note_off", "time": 46, "note": 69, "velocity": 93, "channel": 0}, {"type": "note_on", "time": 8, "note": 71, "velocity": 119, "channel": 0}, {"type": "note_off", "time": 93, "note": 71, "velocity": 119, "channel": 0}, {"type": "note_on", "time": 0, "note": 69, "velocity": 115, "channel": 0}, {"type": "note_off", "time": 87, "note": 69, "velocity": 115, "channel": 0}, {"type": "note_on", "time": 5, "note": 67, "velocity": 117, "channel": 0}, {"type": "note_off", "time": 102, "note": 67, "velocity": 117, "channel": 0}, {"type": "note_on", "time": 0, "note": 65, "velocity": 117, "channel": 0}, {"type": "note_off", "time": 73, "note": 65, "velocity": 117, "channel": 0}, {"type": "note_on", "time": 14, "note": 64, "velocity": 118, "channel": 0}, {"type": "note_off", "time": 81, "note": 64, "velocity": 118, "channel": 0}, {"type": "note_on", "time": 11, "note": 67, "velocity": 118, "channel": 0}, {"type": "note_off", "time": 81, "note": 67, "velocity": 118, "channel": 0}, {"type": "note_on", "time": 11, "note": 62, "velocity": 120, "channel": 0}, {"type": "note_off", "time": 102, "note": 62, "velocity": 120, "channel": 0}, {"type": "note_on", "time": 5, "note": 61, "velocity": 116, "channel": 0}, {"type": "note_off", "time": 64, "note": 61, "velocity": 116, "channel": 0}, {"type": "note_on", "time": 17, "note": 60, "velocity": 115, "channel": 0}, {"type": "note_off", "time": 117, "note": 60, "velocity": 115, "channel": 0}, {"type": "note_on", "time": 5, "note": 72, "velocity": 114, "channel": 0}, {"type": "note_off", "time": 81, "note": 72, "velocity": 114, "channel": 0}, {"type": "note_on", "time": 105, "note": 70, "velocity": 113, "channel": 0}, {"type": "note_off", "time": 105, "note": 70, "velocity": 113, "channel": 0}, {"type": "note_on", "time": 17, "note": 67, "velocity": 119, "channel": 0}, {"type": "note_off", "time": 78, "note": 67, "velocity": 119, "channel": 0}, {"type": "note_on", "time": 8, "note": 69, "velocity": 112, "channel": 0}, {"type": "note_off", "time": 99, "note": 69, "velocity": 112, "channel": 0}, {"type": "note_on", "time": 0, "note": 65, "velocity": 112, "channel": 0}, {"type": "note_off", "time": 64, "note": 65, "velocity": 112, "channel": 0}, {"type": "note_on", "time": 14, "note": 63, "velocity": 114, "channel": 0}, {"type": "note_off", "time": 55, "note": 63, "velocity": 114, "channel": 0}, {"type": "note_on", "time": 684, "note": 67, "velocity": 98, "channel": 0}, {"type": "note_off", "time": 90, "note": 67, "velocity": 98, "channel": 0}, {"type": "note_on", "time": 5, "note": 71, "velocity": 116, "channel": 0}, {"type": "note_off", "time": 87, "note": 71, "velocity": 116, "channel": 0}, {"type": "note_on", "time": 14, "note": 72, "velocity": 119, "channel": 0}, {"type": "note_off", "time": 90, "note": 72, "velocity": 119, "channel": 0}, {"type": "note_on", "time": 5, "note": 71, "velocity": 116, "channel": 0}, {"type": "note_off", "time": 81, "note": 71, "velocity": 116, "channel": 0}, {"type": "note_on", "time": 0, "note": 69, "velocity": 112, "channel": 0}, {"type": "note_off", "time": 90, "note": 69, "velocity": 112, "channel": 0}, {"type": "note_on", "time": 14, "note": 67, "velocity": 118, "channel": 0}, {"type": "note_off", "time": 93, "note": 67, "velocity": 118, "channel": 0}, {"type": "note_on", "time": 8, "note": 69, "velocity": 97, "channel": 0}, {"type": "note_off", "time": 67, "note": 69, "velocity": 97, "channel": 0}, {"type": "note_on", "time": 26, "note": 71, "velocity": 115, "channel": 0}, {"type": "note_off", "time": 111, "note": 71, "velocity": 115, "channel": 0}, {"type": "note_on", "time": 0, "note": 72, "velocity": 119, "channel": 0}, {"type": "note_off", "time": 87, "note": 72, "velocity": 119, "channel": 0}, {"type": "note_on", "time": 11, "note": 71, "velocity": 119, "channel": 0}, {"type": "note_off", "time": 70, "note": 71, "velocity": 119, "channel": 0}, {"type": "note_on", "time": 8, "note": 69, "velocity": 113, "channel": 0}, {"type": "note_off", "time": 105, "note": 69, "velocity": 113, "channel": 0}, {"type": "note_on", "time": 11, "note": 67, "velocity": 102, "channel": 0}, {"type": "note_off", "time": 99, "note": 67, "velocity": 102, "channel": 0}, {"type": "note_on", "time": 0, "note": 69, "velocity": 100, "channel": 0}, {"type": "note_off", "time": 58, "note": 69, "velocity": 100, "channel": 0}, {"type": "note_on", "time": 20, "note": 71, "velocity": 117, "channel": 0}, {"type": "note_off", "time": 81, "note": 71, "velocity": 117, "channel": 0}, {"type": "note_on", "time": 17, "note": 72, "velocity": 120, "channel": 0}, {"type": "note_off", "time": 67, "note": 72, "velocity": 120, "channel": 0}, {"type": "note_on", "time": 8, "note": 71, "velocity": 119, "channel": 0}, {"type": "note_off", "time": 111, "note": 71, "velocity": 119, "channel": 0}, {"type": "note_on", "time": 17, "note": 69, "velocity": 113, "channel": 0}, {"type": "note_off", "time": 84, "note": 69, "velocity": 113, "channel": 0}, {"type": "note_on", "time": 0, "note": 67, "velocity": 103, "channel": 0}, {"type": "note_off", "time": 105, "note": 67, "velocity": 103, "channel": 0}, {"type": "note_on", "time": 11, "note": 69, "velocity": 101, "channel": 0}, {"type": "note_off", "time": 58, "note": 69, "velocity": 101, "channel": 0}, {"type": "note_on", "time": 0, "note": 71, "velocity": 118, "channel": 0}, {"type": "note_off", "time": 105, "note": 71, "velocity": 118, "channel": 0}, {"type": "note_on", "time": 8, "note": 72, "velocity": 119, "channel": 0}, {"type": "note_off", "time": 84, "note": 72, "velocity": 119, "channel": 0}, {"type": "note_on", "time": 17, "note": 71, "velocity": 118, "channel": 0}, {"type": "note_off", "time": 76, "note": 71, "velocity": 118, "channel": 0}, {"type": "note_on", "time": 11, "note": 69, "velocity": 111, "channel": 0}, {"type": "note_off", "time": 87, "note": 69, "velocity": 111, "channel": 0}, {"type": "note_on", "time": 17, "note": 67, "velocity": 104, "channel": 0}, {"type": "note_off", "time": 119, "note": 67, "velocity": 104, "channel": 0}, {"type": "note_on", "time": 8, "note": 69, "velocity": 103, "channel": 0}, {"type": "note_off", "time": 46, "note": 69, "velocity": 103, "channel": 0}, {"type": "note_on", "time": 8, "note": 71, "velocity": 117, "channel": 0}, {"type": "note_off", "time": 99, "note": 71, "velocity": 117, "channel": 0}, {"type": "note_on", "time": 11, "note": 72, "velocity": 116, "channel": 0}, {"type": "note_off", "time": 99, "note": 72, "velocity": 116, "channel": 0}, {"type": "note_on", "time": 5, "note": 71, "velocity": 112, "channel": 0}, {"type": "note_off", "time": 93, "note": 71, "velocity": 112, "channel": 0}, {"type": "note_on", "time": 5, "note": 69, "velocity": 115, "channel": 0}, {"type": "note_off", "time": 81, "note": 69, "velocity": 115, "channel": 0}, {"type": "note_on", "time": 17, "note": 67, "velocity": 107, "channel": 0}, {"type": "note_off", "time": 70, "note": 67, "velocity": 107, "channel": 0}, {"type": "note_on", "time": 2, "note": 69, "velocity": 95, "channel": 0}, {"type": "note_off", "time": 73, "note": 69, "velocity": 95, "channel": 0}, {"type": "note_on", "time": 17, "note": 71, "velocity": 113, "channel": 0}, {"type": "note_off", "time": 93, "note": 71, "velocity": 113, "channel": 0}, {"type": "note_on", "time": 32, "note": 72, "velocity": 117, "channel": 0}, {"type": "note_off", "time": 84, "note": 72, "velocity": 117, "channel": 0}, {"type": "note_on", "time": 11, "note": 71, "velocity": 116, "channel": 0}, {"type": "note_off", "time": 81, "note": 71, "velocity": 116, "channel": 0}, {"type": "note_on", "time": 17, "note": 69, "velocity": 114, "channel": 0}, {"type": "note_off", "time": 90, "note": 69, "velocity": 114, "channel": 0}, {"type": "note_on", "time": 11, "note": 67, "velocity": 106, "channel": 0}, {"type": "note_off", "time": 108, "note": 67, "velocity": 106, "channel": 0}, {"type": "note_on", "time": 0, "note": 69, "velocity": 105, "channel": 0}, {"type": "note_off", "time": 52, "note": 69, "velocity": 105, "channel": 0}, {"type": "note_on", "time": 11, "note": 71, "velocity": 118, "channel": 0}, {"type": "note_off", "time": 108, "note": 71, "velocity": 118, "channel": 0}, {"type": "note_on", "time": 5, "note": 72, "velocity": 118, "channel": 0}, {"type": "note_off", "time": 99, "note": 72, "velocity": 118, "channel": 0}, {"type": "note_on", "time": 5, "note": 71, "velocity": 119, "channel": 0}, {"type": "note_off", "time": 90, "note": 71, "velocity": 119, "channel": 0}, {"type": "note_on", "time": 5, "note": 69, "velocity": 112, "channel": 0}, {"type": "note_off", "time": 76, "note": 69, "velocity": 112, "channel": 0}, {"type": "note_on", "time": 17, "note": 67, "velocity": 118, "channel": 0}, {"type": "note_off", "time": 99, "note": 67, "velocity": 118, "channel": 0}, {"type": "note_on", "time": 14, "note": 69, "velocity": 102, "channel": 0}, {"type": "note_off", "time": 55, "note": 69, "velocity": 102, "channel": 0}, {"type": "note_on", "time": 2, "note": 71, "velocity": 120, "channel": 0}, {"type": "note_off", "time": 108, "note": 71, "velocity": 120, "channel": 0}, {"type": "note_on", "time": 2, "note": 72, "velocity": 121, "channel": 0}, {"type": "note_off", "time": 117, "note": 72, "velocity": 121, "channel": 0}, {"type": "note_on", "time": 14, "note": 71, "velocity": 110, "channel": 0}, {"type": "note_off", "time": 70, "note": 71, "velocity": 110, "channel": 0}, {"type": "note_on", "time": 14, "note": 69, "velocity": 112, "channel": 0}, {"type": "note_off", "time": 55, "note": 69, "velocity": 112, "channel": 0}, {"type": "note_on", "time": 23, "note": 67, "velocity": 110, "channel": 0}, {"type": "note_off", "time": 102, "note": 67, "velocity": 110, "channel": 0}, {"type": "note_on", "time": 17, "note": 69, "velocity": 97, "channel": 0}, {"type": "note_off", "time": 49, "note": 69, "velocity": 97, "channel": 0}, {"type": "note_on", "time": 0, "note": 71, "velocity": 118, "channel": 0}, {"type": "note_off", "time": 111, "note": 71, "velocity": 118, "channel": 0}, {"type": "note_on", "time": 11, "note": 72, "velocity": 120, "channel": 0}, {"type": "note_off", "time": 117, "note": 72, "velocity": 120, "channel": 0}, {"type": "note_on", "time": 8, "note": 71, "velocity": 119, "channel": 0}, {"type": "note_off", "time": 52, "note": 71, "velocity": 119, "channel": 0}, {"type": "note_on", "time": 0, "note": 69, "velocity": 115, "channel": 0}, {"type": "note_off", "time": 99, "note": 69, "velocity": 115, "channel": 0}, {"type": "note_on", "time": 0, "note": 67, "velocity": 120, "channel": 0}, {"type": "note_off", "time": 111, "note": 67, "velocity": 120, "channel": 0}, {"type": "note_on", "time": 2, "note": 65, "velocity": 120, "channel": 0}, {"type": "note_off", "time": 87, "note": 65, "velocity": 120, "channel": 0}, {"type": "note_on", "time": 2, "note": 64, "velocity": 118, "channel": 0}, {"type": "note_off", "time": 93, "note": 64, "velocity": 118, "channel": 0}, {"type": "note_on", "time": 5, "note": 62, "velocity": 119, "channel": 0}, {"type": "note_off", "time": 78, "note": 62, "velocity": 119, "channel": 0}, {"type": "note_on", "time": 5, "note": 61, "velocity": 74, "channel": 0}, {"type": "note_off", "time": 78, "note": 61, "velocity": 74, "channel": 0}, {"type": "note_on", "time": 0, "note": 64, "velocity": 104, "channel": 0}, {"type": "note_off", "time": 87, "note": 64, "velocity": 104, "channel": 0}, {"type": "note_on", "time": 2, "note": 67, "velocity": 120, "channel": 0}, {"type": "note_off", "time": 131, "note": 67, "velocity": 120, "channel": 0}, {"type": "note_on", "time": 0, "note": 70, "velocity": 121, "channel": 0}, {"type": "note_off", "time": 73, "note": 70, "velocity": 121, "channel": 0}, {"type": "note_on", "time": 8, "note": 69, "velocity": 113, "channel": 0}, {"type": "note_off", "time": 101, "note": 69, "velocity": 113, "channel": 0}, {"type": "note_on", "time": 0, "note": 65, "velocity": 114, "channel": 0}, {"type": "note_off", "time": 99, "note": 65, "velocity": 114, "channel": 0}, {"type": "note_on", "time": 8, "note": 64, "velocity": 112, "channel": 0}, {"type": "note_off", "time": 93, "note": 64, "velocity": 112, "channel": 0}, {"type": "note_on", "time": 0, "note": 62, "velocity": 106, "channel": 0}, {"type": "note_off", "time": 70, "note": 62, "velocity": 106, "channel": 0}, {"type": "note_on", "time": 22, "note": 67, "velocity": 120, "channel": 0}, {"type": "note_on", "time": 112, "note": 65, "velocity": 115, "channel": 0}, {"type": "note_off", "time": 0, "note": 67, "velocity": 120, "channel": 0}, {"type": "note_off", "time": 62, "note": 65, "velocity": 115, "channel": 0}, {"type": "note_on", "time": 6, "note": 64, "velocity": 119, "channel": 0}, {"type": "note_off", "time": 83, "note": 64, "velocity": 119, "channel": 0}, {"type": "note_on", "time": 10, "note": 62, "velocity": 122, "channel": 0}, {"type": "note_off", "time": 89, "note": 62, "velocity": 122, "channel": 0}, {"type": "note_on", "time": 0, "note": 60, "velocity": 115, "channel": 0}, {"type": "note_off", "time": 122, "note": 60, "velocity": 115, "channel": 0}, {"type": "note_on", "time": 2, "note": 55, "velocity": 107, "channel": 0}, {"type": "note_off", "time": 66, "note": 55, "velocity": 107, "channel": 0}, {"type": "note_on", "time": 4, "note": 57, "velocity": 112, "channel": 0}, {"type": "note_off", "time": 95, "note": 57, "velocity": 112, "channel": 0}, {"type": "note_on", "time": 2, "note": 59, "velocity": 114, "channel": 0}, {"type": "note_off", "time": 93, "note": 59, "velocity": 114, "channel": 0}, {"type": "note_on", "time": 8, "note": 60, "velocity": 120, "channel": 0}, {"type": "note_off", "time": 91, "note": 60, "velocity": 120, "channel": 0}, {"type": "note_on", "time": 2, "note": 62, "velocity": 119, "channel": 0}, {"type": "note_off", "time": 106, "note": 62, "velocity": 119, "channel": 0}, {"type": "note_on", "time": 12, "note": 64, "velocity": 119, "channel": 0}, {"type": "note_off", "time": 95, "note": 64, "velocity": 119, "channel": 0}, {"type": "note_on", "time": 22, "note": 65, "velocity": 117, "channel": 0}, {"type": "note_off", "time": 64, "note": 65, "velocity": 117, "channel": 0}, {"type": "note_on", "time": 10, "note": 67, "velocity": 124, "channel": 0}, {"type": "note_off", "time": 126, "note": 67, "velocity": 124, "channel": 0}, {"type": "note_on", "time": 6, "note": 58, "velocity": 102, "channel": 0}, {"type": "note_off", "time": 241, "note": 58, "velocity": 102, "channel": 0}, {"type": "note_on", "time": 692, "note": 68, "velocity": 125, "channel": 0}, {"type": "note_off", "time": 97, "note": 68, "velocity": 125, "channel": 0}, {"type": "note_on", "time": 20, "note": 69, "velocity": 122, "channel": 0}, {"type": "note_off", "time": 149, "note": 69, "velocity": 122, "channel": 0}, {"type": "note_on", "time": 10, "note": 67, "velocity": 118, "channel": 0}, {"type": "note_off", "time": 120, "note": 67, "velocity": 118, "channel": 0}, {"type": "note_on", "time": 12, "note": 64, "velocity": 111, "channel": 0}, {"type": "note_off", "time": 64, "note": 64, "velocity": 111, "channel": 0}, {"type": "note_on", "time": 12, "note": 65, "velocity": 119, "channel": 0}, {"type": "note_off", "time": 135, "note": 65, "velocity": 119, "channel": 0}, {"type": "note_on", "time": 67, "note": 55, "velocity": 119, "channel": 0}, {"type": "note_off", "time": 74, "note": 55, "velocity": 119, "channel": 0}, {"type": "note_on", "time": 3, "note": 56, "velocity": 113, "channel": 0}, {"type": "note_off", "time": 320, "note": 56, "velocity": 113, "channel": 0}, {"type": "note_on", "time": 474, "note": 58, "velocity": 109, "channel": 0}, {"type": "note_off", "time": 56, "note": 58, "velocity": 109, "channel": 0}, {"type": "note_on", "time": 10, "note": 60, "velocity": 124, "channel": 0}, {"type": "note_off", "time": 124, "note": 60, "velocity": 124, "channel": 0}, {"type": "note_on", "time": 0, "note": 65, "velocity": 124, "channel": 0}, {"type": "note_off", "time": 114, "note": 65, "velocity": 124, "channel": 0}, {"type": "note_on", "time": 2, "note": 62, "velocity": 113, "channel": 0}, {"type": "note_off", "time": 64, "note": 62, "velocity": 113, "channel": 0}, {"type": "note_on", "time": 12, "note": 64, "velocity": 108, "channel": 0}, {"type": "note_off", "time": 68, "note": 64, "velocity": 108, "channel": 0}, {"type": "note_on", "time": 6, "note": 65, "velocity": 119, "channel": 0}, {"type": "note_off", "time": 139, "note": 65, "velocity": 119, "channel": 0}, {"type": "note_on", "time": 0, "note": 60, "velocity": 107, "channel": 0}, {"type": "note_off", "time": 70, "note": 60, "velocity": 107, "channel": 0}, {"type": "note_on", "time": 16, "note": 64, "velocity": 121, "channel": 0}, {"type": "note_off", "time": 66, "note": 64, "velocity": 121, "channel": 0}, {"type": "note_on", "time": 8, "note": 65, "velocity": 117, "channel": 0}, {"type": "note_off", "time": 93, "note": 65, "velocity": 117, "channel": 0}, {"type": "note_on", "time": 4, "note": 63, "velocity": 112, "channel": 0}, {"type": "note_off", "time": 112, "note": 63, "velocity": 112, "channel": 0}, {"type": "note_on", "time": 8, "note": 60, "velocity": 112, "channel": 0}, {"type": "note_off", "time": 83, "note": 60, "velocity": 112, "channel": 0}, {"type": "note_on", "time": 0, "note": 65, "velocity": 115, "channel": 0}, {"type": "note_off", "time": 380, "note": 65, "velocity": 115, "channel": 0}, {"type": "note_on", "time": 4, "note": 64, "velocity": 120, "channel": 0}, {"type": "note_off", "time": 101, "note": 64, "velocity": 120, "channel": 0}, {"type": "note_on", "time": 24, "note": 60, "velocity": 104, "channel": 0}, {"type": "note_off", "time": 74, "note": 60, "velocity": 104, "channel": 0}, {"type": "note_on", "time": 0, "note": 65, "velocity": 117, "channel": 0}, {"type": "note_off", "time": 139, "note": 65, "velocity": 117, "channel": 0}, {"type": "note_on", "time": 0, "note": 60, "velocity": 105, "channel": 0}, {"type": "note_off", "time": 64, "note": 60, "velocity": 105, "channel": 0}, {"type": "note_on", "time": 0, "note": 64, "velocity": 120, "channel": 0}, {"type": "note_off", "time": 95, "note": 64, "velocity": 120, "channel": 0}, {"type": "note_on", "time": 10, "note": 65, "velocity": 114, "channel": 0}, {"type": "note_off", "time": 295, "note": 65, "velocity": 114, "channel": 0}, {"type": "note_on", "time": 14, "note": 64, "velocity": 119, "channel": 0}, {"type": "note_off", "time": 89, "note": 64, "velocity": 119, "channel": 0}, {"type": "note_on", "time": 6, "note": 60, "velocity": 105, "channel": 0}, {"type": "note_off", "time": 74, "note": 60, "velocity": 105, "channel": 0}, {"type": "note_on", "time": 2, "note": 65, "velocity": 119, "channel": 0}, {"type": "note_off", "time": 110, "note": 65, "velocity": 119, "channel": 0}, {"type": "note_on", "time": 0, "note": 60, "velocity": 120, "channel": 0}, {"type": "note_off", "time": 95, "note": 60, "velocity": 120, "channel": 0}, {"type": "note_on", "time": 2, "note": 55, "velocity": 109, "channel": 0}, {"type": "note_off", "time": 95, "note": 55, "velocity": 109, "channel": 0}, {"type": "note_on", "time": 12, "note": 53, "velocity": 112, "channel": 0}, {"type": "note_off", "time": 58, "note": 53, "velocity": 112, "channel": 0}, {"type": "note_on", "time": 20, "note": 54, "velocity": 124, "channel": 0}, {"type": "note_off", "time": 95, "note": 54, "velocity": 124, "channel": 0}, {"type": "note_on", "time": 14, "note": 57, "velocity": 122, "channel": 0}, {"type": "note_off", "time": 79, "note": 57, "velocity": 122, "channel": 0}, {"type": "note_on", "time": 6, "note": 60, "velocity": 124, "channel": 0}, {"type": "note_off", "time": 101, "note": 60, "velocity": 124, "channel": 0}, {"type": "note_on", "time": 6, "note": 64, "velocity": 124, "channel": 0}, {"type": "note_off", "time": 76, "note": 64, "velocity": 124, "channel": 0}, {"type": "note_on", "time": 8, "note": 63, "velocity": 126, "channel": 0}, {"type": "note_off", "time": 104, "note": 63, "velocity": 126, "channel": 0}, {"type": "note_on", "time": 0, "note": 59, "velocity": 116, "channel": 0}, {"type": "note_off", "time": 89, "note": 59, "velocity": 116, "channel": 0}, {"type": "note_on", "time": 8, "note": 56, "velocity": 119, "channel": 0}, {"type": "note_off", "time": 108, "note": 56, "velocity": 119, "channel": 0}, {"type": "note_on", "time": 10, "note": 54, "velocity": 107, "channel": 0}, {"type": "note_off", "time": 81, "note": 54, "velocity": 107, "channel": 0}, {"type": "note_on", "time": 6, "note": 55, "velocity": 117, "channel": 0}, {"type": "note_off", "time": 126, "note": 55, "velocity": 117, "channel": 0}, {"type": "note_on", "time": 39, "note": 48, "velocity": 111, "channel": 0}, {"type": "note_off", "time": 274, "note": 48, "velocity": 111, "channel": 0}, {"type": "end_of_track", "time": 0}]]}