{"ticks_per_beat": 192, "tracks": [[{"type": "track_name", "name": "Melody", "time": 0}, {"type": "set_tempo", "tempo": 340909, "time": 0}, {"type": "key_signature", "key": "Bb", "time": 0}, {"type": "time_signature", "numerator": 4, "denominator": 4, "clocks_per_click": 24, "notated_32nd_notes_per_beat": 8, "time": 0}, {"type": "note_on", "time": 1945, "note": 62, "velocity": 91, "channel": 0}, {"type": "note_off", "time": 88, "note": 62, "velocity": 91, "channel": 0}, {"type": "note_on", "time": 0, "note": 62, "velocity": 105, "channel": 0}, {"type": "note_off", "time": 140, "note": 62, "velocity": 105, "channel": 0}, {"type": "note_on", "time": 0, "note": 58, "velocity": 91, "channel": 0}, {"type": "note_off", "time": 173, "note": 58, "velocity": 91, "channel": 0}, {"type": "note_on", "time": 6, "note": 62, "velocity": 104, "channel": 0}, {"type": "note_on", "time": 183, "note": 58, "velocity": 101, "channel": 0}, {"type": "note_off", "time": 0, "note": 62, "velocity": 104, "channel": 0}, {"type": "note_off", "time": 447, "note": 58, "velocity": 101, "channel": 0}, {"type": "note_on", "time": 124, "note": 62, "velocity": 113, "channel": 0}, {"type": "note_off", "time": 130, "note": 62, "velocity": 113, "channel": 0}, {"type": "note_on", "time": 3, "note": 58, "velocity": 103, "channel": 0}, {"type": "note_off", "time": 134, "note": 58, "velocity": 103, "channel": 0}, {"type": "note_on", "time": 0, "note": 58, "velocity": 98, "channel": 0}, {"type": "note_off", "time": 117, "note": 58, "velocity": 98, "channel": 0}, {"type": "note_on", "time": 0, "note": 62, "velocity": 109, "channel": 0}, {"type": "note_on", "time": 143, "note": 58, "velocity": 106, "channel": 0}, {"type": "note_off", "time": 0, "note": 62, "velocity": 109, "channel": 0}, {"type": "note_off", "time": 52, "note": 58, "velocity": 106, "channel": 0}, {"type": "note_on", "time": 0, "note": 58, "velocity": 100, "channel": 0}, {"type": "note_off", "time": 75, "note": 58, "velocity": 100, "channel": 0}, {"type": "note_on", "time": 0, "note": 58, "velocity": 92, "channel": 0}, {"type": "note_off", "time": 78, "note": 58, "velocity": 92, "channel": 0}, {"type": "note_on", "time": 545, "note": 53, "velocity": 88, "channel": 0}, {"type": "note_off", "time": 46, "note": 53, "velocity": 88, "channel": 0}, {"type": "note_on", "time": 35, "note": 58, "velocity": 94, "channel": 0}, {"type": "note_off", "time": 101, "note": 58, "velocity": 94, "channel": 0}, {"type": "note_on", "time": 19, "note": 61, "velocity": 115, "channel": 0}, {"type": "note_off", "time": 143, "note": 61, "velocity": 115, "channel": 0}, {"type": "note_on", "time": 0, "note": 61, "velocity": 114, "channel": 0}, {"type": "note_off", "time": 114, "note": 61, "velocity": 114, "channel": 0}, {"type": "note_on", "time": 35, "note": 58, "velocity": 102, "channel": 0}, {"type": "note_off", "time": 104, "note": 58, "velocity": 102, "channel": 0}, {"type": "note_on", "time": 457, "note": 65, "velocity": 105, "channel": 0}, {"type": "note_off", "time": 369, "note": 65, "velocity": 105, "channel": 0}, {"type": "note_on", "time": 33, "note": 64, "velocity": 94, "channel": 0}, {"type": "note_off", "time": 67, "note": 64, "velocity": 94, "channel": 0}, {"type": "note_on", "time": 0, "note": 63, "velocity": 96, "channel": 0}, {"type": "note_on", "time": 59, "note": 61, "velocity": 99, "channel": 0}, {"type": "note_off", "time": 0, "note": 63, "velocity": 96, "channel": 0}, {"type": "note_off", "time": 49, "note": 61, "velocity": 99, "channel": 0}, {"type": "note_on", "time": 0, "note": 58, "velocity": 100, "channel": 0}, {"type": "note_off", "time": 179, "note": 58, "velocity": 100, "channel": 0}, {"type": "note_on", "time": 22, "note": 62, "velocity": 90, "channel": 0}, {"type": "note_off", "time": 115, "note": 62, "velocity": 90, "channel": 0}, {"type": "note_on", "time": 49, "note": 58, "velocity": 100, "channel": 0}, {"type": "note_off", "time": 170, "note": 58, "velocity": 100, "channel": 0}, {"type": "note_on", "time": 726, "note": 57, "velocity": 92, "channel": 0}, {"type": "note_off", "time": 42, "note": 57, "velocity": 92, "channel": 0}, {"type": "note_on", "time": 32, "note": 58, "velocity": 91, "channel": 0}, {"type": "note_off", "time": 101, "note": 58, "velocity": 91, "channel": 0}, {"type": "note_on", "time": 0, "note": 62, "velocity": 106, "channel": 0}, {"type": "note_off", "time": 91, "note": 62, "velocity": 106, "channel": 0}, {"type": "note_on", "time": 9, "note": 65, "velocity": 105, "channel": 0}, {"type": "note_off", "time": 81, "note": 65, "velocity": 105, "channel": 0}, {"type": "note_on", "time": 22, "note": 67, "velocity": 106, "channel": 0}, {"type": "note_off", "time": 94, "note": 67, "velocity": 106, "channel": 0}, {"type": "note_on", "time": 0, "note": 69, "velocity": 105, "channel": 0}, {"type": "note_off", "time": 94, "note": 69, "velocity": 105, "channel": 0}, {"type": "note_on", "time": 0, "note": 70, "velocity": 100, "channel": 0}, {"type": "note_off", "time": 104, "note": 70, "velocity": 100, "channel": 0}, {"type": "note_on", "time": 0, "note": 67, "velocity": 101, "channel": 0}, {"type": "note_off", "time": 85, "note": 67, "velocity": 101, "channel": 0}, {"type": "note_on", "time": 19, "note": 63, "velocity": 104, "channel": 0}, {"type": "note_off", "time": 81, "note": 63, "velocity": 104, "channel": 0}, {"type": "note_on", "time": 0, "note": 62, "velocity": 102, "channel": 0}, {"type": "note_off", "time": 91, "note": 62, "velocity": 102, "channel": 0}, {"type": "note_on", "time": 9, "note": 60, "velocity": 108, "channel": 0}, {"type": "note_off", "time": 68, "note": 60, "velocity": 108, "channel": 0}, {"type": "note_on", "time": 22, "note": 65, "velocity": 102, "channel": 0}, {"type": "note_off", "time": 91, "note": 65, "velocity": 102, "channel": 0}, {"type": "note_on", "time": 0, "note": 62, "velocity": 105, "channel": 0}, {"type": "note_off", "time": 85, "note": 62, "velocity": 105, "channel": 0}, {"type": "note_on", "time": 16, "note": 63, "velocity": 106, "channel": 0}, {"type": "note_off", "time": 68, "note": 63, "velocity": 106, "channel": 0}, {"type": "note_on", "time": 27, "note": 58, "velocity": 99, "channel": 0}, {"type": "note_off", "time": 81, "note": 58, "velocity": 99, "channel": 0}, {"type": "note_on", "time": 0, "note": 55, "velocity": 103, "channel": 0}, {"type": "note_off", "time": 119, "note": 55, "velocity": 103, "channel": 0}, {"type": "note_on", "time": 0, "note": 53, "velocity": 96, "channel": 0}, {"type": "note_off", "time": 54, "note": 53, "velocity": 96, "channel": 0}, {"type": "note_on", "time": 11, "note": 61, "velocity": 109, "channel": 0}, {"type": "note_off", "time": 189, "note": 61, "velocity": 109, "channel": 0}, {"type": "note_on", "time": 8, "note": 57, "velocity": 103, "channel": 0}, {"type": "note_off", "time": 98, "note": 57, "velocity": 103, "channel": 0}, {"type": "note_on", "time": 12, "note": 53, "velocity": 105, "channel": 0}, {"type": "note_off", "time": 57, "note": 53, "velocity": 105, "channel": 0}, {"type": "note_on", "time": 16, "note": 60, "velocity": 101, "channel": 0}, {"type": "note_off", "time": 101, "note": 60, "velocity": 101, "channel": 0}, {"type": "note_on", "time": 19, "note": 57, "velocity": 101, "channel": 0}, {"type": "note_off", "time": 84, "note": 57, "velocity": 101, "channel": 0}, {"type": "note_on", "time": 0, "note": 53, "velocity": 104, "channel": 0}, {"type": "note_off", "time": 99, "note": 53, "velocity": 104, "channel": 0}, {"type": "note_on", "time": 0, "note": 50, "velocity": 88, "channel": 0}, {"type": "note_off", "time": 76, "note": 50, "velocity": 88, "channel": 0}, {"type": "note_on", "time": 4, "note": 55, "velocity": 107, "channel": 0}, {"type": "note_on", "time": 101, "note": 55, "velocity": 98, "channel": 0}, {"type": "note_off", "time": 0, "note": 55, "velocity": 107, "channel": 0}, {"type": "note_off", "time": 42, "note": 55, "velocity": 98, "channel": 0}, {"type": "note_on", "time": 562, "note": 53, "velocity": 107, "channel": 0}, {"type": "note_off", "time": 58, "note": 53, "velocity": 107, "channel": 0}, {"type": "note_on", "time": 9, "note": 46, "velocity": 84, "channel": 0}, {"type": "note_off", "time": 56, "note": 46, "velocity": 84, "channel": 0}, {"type": "note_on", "time": 136, "note": 58, "velocity": 100, "channel": 0}, {"type": "note_off", "time": 81, "note": 58, "velocity": 100, "channel": 0}, {"type": "note_on", "time": 55, "note": 62, "velocity": 101, "channel": 0}, {"type": "note_off", "time": 35, "note": 62, "velocity": 101, "channel": 0}, {"type": "note_on", "time": 0, "note": 65, "velocity": 110, "channel": 0}, {"type": "note_off", "time": 147, "note": 65, "velocity": 110, "channel": 0}, {"type": "note_on", "time": 0, "note": 65, "velocity": 115, "channel": 0}, {"type": "note_off", "time": 43, "note": 65, "velocity": 115, "channel": 0}, {"type": "note_on", "time": 0, "note": 65, "velocity": 97, "channel": 0}, {"type": "note_off", "time": 69, "note": 65, "velocity": 97, "channel": 0}, {"type": "note_on", "time": 51, "note": 62, "velocity": 115, "channel": 0}, {"type": "note_off", "time": 101, "note": 62, "velocity": 115, "channel": 0}, {"type": "note_on", "time": 39, "note": 58, "velocity": 108, "channel": 0}, {"type": "note_off", "time": 111, "note": 58, "velocity": 108, "channel": 0}, {"type": "note_on", "time": 117, "note": 67, "velocity": 109, "channel": 0}, {"type": "note_off", "time": 117, "note": 67, "velocity": 109, "channel": 0}, {"type": "note_on", "time": 16, "note": 63, "velocity": 114, "channel": 0}, {"type": "note_off", "time": 127, "note": 63, "velocity": 114, "channel": 0}, {"type": "note_on", "time": 0, "note": 63, "velocity": 104, "channel": 0}, {"type": "note_off", "time": 114, "note": 63, "velocity": 104, "channel": 0}, {"type": "note_on", "time": 13, "note": 60, "velocity": 113, "channel": 0}, {"type": "note_off", "time": 124, "note": 60, "velocity": 113, "channel": 0}, {"type": "note_on", "time": 0, "note": 57, "velocity": 102, "channel": 0}, {"type": "note_off", "time": 111, "note": 57, "velocity": 102, "channel": 0}, {"type": "note_on", "time": 39, "note": 53, "velocity": 103, "channel": 0}, {"type": "note_off", "time": 101, "note": 53, "velocity": 103, "channel": 0}, {"type": "note_on", "time": 634, "note": 56, "velocity": 101, "channel": 0}, {"type": "note_off", "time": 40, "note": 56, "velocity": 101, "channel": 0}, {"type": "note_on", "time": 37, "note": 59, "velocity": 97, "channel": 0}, {"type": "note_off", "time": 81, "note": 59, "velocity": 97, "channel": 0}, {"type": "note_on", "time": 6, "note": 62, "velocity": 109, "channel": 0}, {"type": "note_off", "time": 101, "note": 62, "velocity": 109, "channel": 0}, {"type": "note_on", "time": 0, "note": 67, "velocity": 110, "channel": 0}, {"type": "note_off", "time": 88, "note": 67, "velocity": 110, "channel": 0}, {"type": "note_on", "time": 19, "note": 62, "velocity": 108, "channel": 0}, {"type": "note_off", "time": 55, "note": 62, "velocity": 108, "channel": 0}, {"type": "note_on", "time": 22, "note": 65, "velocity": 103, "channel": 0}, {"type": "note_on", "time": 88, "note": 66, "velocity": 107, "channel": 0}, {"type": "note_off", "time": 0, "note": 65, "velocity": 103, "channel": 0}, {"type": "note_off", "time": 91, "note": 66, "velocity": 107, "channel": 0}, {"type": "note_on", "time": 0, "note": 62, "velocity": 108, "channel": 0}, {"type": "note_off", "time": 98, "note": 62, "velocity": 108, "channel": 0}, {"type": "note_on", "time": 0, "note": 62, "velocity": 94, "channel": 0}, {"type": "note_off", "time": 13, "note": 62, "velocity": 94, "channel": 0}, {"type": "note_on", "time": 17, "note": 59, "velocity": 92, "channel": 0}, {"type": "note_off", "time": 68, "note": 59, "velocity": 92, "channel": 0}, {"type": "note_on", "time": 5, "note": 58, "velocity": 101, "channel": 0}, {"type": "note_off", "time": 87, "note": 58, "velocity": 101, "channel": 0}, {"type": "note_on", "time": 12, "note": 56, "velocity": 104, "channel": 0}, {"type": "note_off", "time": 69, "note": 56, "velocity": 104, "channel": 0}, {"type": "note_on", "time": 1, "note": 55, "velocity": 104, "channel": 0}, {"type": "note_off", "time": 101, "note": 55, "velocity": 104, "channel": 0}, {"type": "note_on", "time": 101, "note": 58, "velocity": 102, "channel": 0}, {"type": "note_off", "time": 94, "note": 58, "velocity": 102, "channel": 0}, {"type": "note_on", "time": 13, "note": 61, "velocity": 115, "channel": 0}, {"type": "note_off", "time": 68, "note": 61, "velocity": 115, "channel": 0}, {"type": "note_on", "time": 22, "note": 65, "velocity": 110, "channel": 0}, {"type": "note_off", "time": 91, "note": 65, "velocity": 110, "channel": 0}, {"type": "note_on", "time": 9, "note": 61, "velocity": 115, "channel": 0}, {"type": "note_off", "time": 62, "note": 61, "velocity": 115, "channel": 0}, {"type": "note_on", "time": 32, "note": 63, "velocity": 110, "channel": 0}, {"type": "note_off", "time": 88, "note": 63, "velocity": 110, "channel": 0}, {"type": "note_on", "time": 104, "note": 61, "velocity": 110, "channel": 0}, {"type": "note_off", "time": 81, "note": 61, "velocity": 110, "channel": 0}, {"type": "note_on", "time": 26, "note": 58, "velocity": 99, "channel": 0}, {"type": "note_off", "time": 71, "note": 58, "velocity": 99, "channel": 0}, {"type": "note_on", "time": 34, "note": 53, "velocity": 100, "channel": 0}, {"type": "note_off", "time": 89, "note": 53, "velocity": 100, "channel": 0}, {"type": "note_on", "time": 13, "note": 52, "velocity": 96, "channel": 0}, {"type": "note_off", "time": 55, "note": 52, "velocity": 96, "channel": 0}, {"type": "note_on", "time": 52, "note": 52, "velocity": 94, "channel": 0}, {"type": "note_off", "time": 72, "note": 52, "velocity": 94, "channel": 0}, {"type": "note_on", "time": 0, "note": 53, "velocity": 104, "channel": 0}, {"type": "note_off", "time": 82, "note": 53, "velocity": 104, "channel": 0}, {"type": "note_on", "time": 30, "note": 55, "velocity": 104, "channel": 0}, {"type": "note_off", "time": 60, "note": 55, "velocity": 104, "channel": 0}, {"type": "note_on", "time": 0, "note": 52, "velocity": 99, "channel": 0}, {"type": "note_off", "time": 61, "note": 52, "velocity": 99, "channel": 0}, {"type": "note_on", "time": 83, "note": 53, "velocity": 104, "channel": 0}, {"type": "note_off", "time": 114, "note": 53, "velocity": 104, "channel": 0}, {"type": "note_on", "time": 0, "note": 50, "velocity": 94, "channel": 0}, {"type": "note_off", "time": 108, "note": 50, "velocity": 94, "channel": 0}, {"type": "note_on", "time": 607, "note": 56, "velocity": 104, "channel": 0}, {"type": "note_off", "time": 81, "note": 56, "velocity": 104, "channel": 0}, {"type": "note_on", "time": 117, "note": 70, "velocity": 94, "channel": 0}, {"type": "note_off", "time": 94, "note": 70, "velocity": 94, "channel": 0}, {"type": "note_on", "time": 65, "note": 68, "velocity": 111, "channel": 0}, {"type": "note_off", "time": 78, "note": 68, "velocity": 111, "channel": 0}, {"type": "note_on", "time": 88, "note": 70, "velocity": 102, "channel": 0}, {"type": "note_off", "time": 127, "note": 70, "velocity": 102, "channel": 0}, {"type": "note_on", "time": 16, "note": 67, "velocity": 107, "channel": 0}, {"type": "note_off", "time": 81, "note": 67, "velocity": 107, "channel": 0}, {"type": "note_on", "time": 88, "note": 65, "velocity": 108, "channel": 0}, {"type": "note_off", "time": 173, "note": 65, "velocity": 108, "channel": 0}, {"type": "note_on", "time": 3, "note": 67, "velocity": 102, "channel": 0}, {"type": "note_off", "time": 290, "note": 67, "velocity": 102, "channel": 0}, {"type": "note_on", "time": 261, "note": 54, "velocity": 104, "channel": 0}, {"type": "note_off", "time": 85, "note": 54, "velocity": 104, "channel": 0}, {"type": "note_on", "time": 123, "note": 68, "velocity": 109, "channel": 0}, {"type": "note_off", "time": 107, "note": 68, "velocity": 109, "channel": 0}, {"type": "note_on", "time": 62, "note": 66, "velocity": 108, "channel": 0}, {"type": "note_off", "time": 81, "note": 66, "velocity": 108, "channel": 0}, {"type": "note_on", "time": 111, "note": 68, "velocity": 113, "channel": 0}, {"type": "note_off", "time": 127, "note": 68, "velocity": 113, "channel": 0}, {"type": "note_on", "time": 0, "note": 65, "velocity": 101, "channel": 0}, {"type": "note_off", "time": 98, "note": 65, "velocity": 101, "channel": 0}, {"type": "note_on", "time": 88, "note": 63, "velocity": 95, "channel": 0}, {"type": "note_off", "time": 127, "note": 63, "velocity": 95, "channel": 0}, {"type": "note_on", "time": 9, "note": 65, "velocity": 103, "channel": 0}, {"type": "note_off", "time": 150, "note": 65, "velocity": 103, "channel": 0}, {"type": "note_on", "time": 974, "note": 60, "velocity": 111, "channel": 0}, {"type": "note_off", "time": 45, "note": 60, "velocity": 111, "channel": 0}, {"type": "note_on", "time": 39, "note": 65, "velocity": 108, "channel": 0}, {"type": "note_off", "time": 88, "note": 65, "velocity": 108, "channel": 0}, {"type": "note_on", "time": 0, "note": 65, "velocity": 105, "channel": 0}, {"type": "note_off", "time": 13, "note": 65, "velocity": 105, "channel": 0}, {"type": "note_on", "time": 0, "note": 70, "velocity": 102, "channel": 0}, {"type": "note_off", "time": 88, "note": 70, "velocity": 102, "channel": 0}, {"type": "note_on", "time": 0, "note": 72, "velocity": 104, "channel": 0}, {"type": "note_off", "time": 94, "note": 72, "velocity": 104, "channel": 0}, {"type": "note_on", "time": 0, "note": 70, "velocity": 104, "channel": 0}, {"type": "note_off", "time": 78, "note": 70, "velocity": 104, "channel": 0}, {"type": "note_on", "time": 13, "note": 67, "velocity": 106, "channel": 0}, {"type": "note_off", "time": 85, "note": 67, "velocity": 106, "channel": 0}, {"type": "note_on", "time": 22, "note": 65, "velocity": 107, "channel": 0}, {"type": "note_off", "time": 62, "note": 65, "velocity": 107, "channel": 0}, {"type": "note_on", "time": 37, "note": 60, "velocity": 92, "channel": 0}, {"type": "note_off", "time": 105, "note": 60, "velocity": 92, "channel": 0}, {"type": "note_on", "time": 383, "note": 58, "velocity": 105, "channel": 0}, {"type": "note_off", "time": 111, "note": 58, "velocity": 105, "channel": 0}, {"type": "note_on", "time": 3, "note": 55, "velocity": 105, "channel": 0}, {"type": "note_off", "time": 261, "note": 55, "velocity": 105, "channel": 0}, {"type": "note_on", "time": 3, "note": 53, "velocity": 106, "channel": 0}, {"type": "note_off", "time": 120, "note": 53, "velocity": 106, "channel": 0}, {"type": "note_on", "time": 29, "note": 48, "velocity": 102, "channel": 0}, {"type": "note_off", "time": 147, "note": 48, "velocity": 102, "channel": 0}, {"type": "note_on", "time": 0, "note": 48, "velocity": 95, "channel": 0}, {"type": "note_off", "time": 22, "note": 48, "velocity": 95, "channel": 0}, {"type": "note_on", "time": 487, "note": 44, "velocity": 111, "channel": 0}, {"type": "note_off", "time": 68, "note": 44, "velocity": 111, "channel": 0}, {"type": "note_on", "time": 13, "note": 55, "velocity": 106, "channel": 0}, {"type": "note_off", "time": 94, "note": 55, "velocity": 106, "channel": 0}, {"type": "note_on", "time": 16, "note": 53, "velocity": 107, "channel": 0}, {"type": "note_off", "time": 68, "note": 53, "velocity": 107, "channel": 0}, {"type": "note_on", "time": 0, "note": 48, "velocity": 87, "channel": 0}, {"type": "note_off", "time": 87, "note": 48, "velocity": 87, "channel": 0}, {"type": "note_on", "time": 53, "note": 51, "velocity": 101, "channel": 0}, {"type": "note_off", "time": 63, "note": 51, "velocity": 101, "channel": 0}, {"type": "note_on", "time": 18, "note": 50, "velocity": 97, "channel": 0}, {"type": "note_off", "time": 82, "note": 50, "velocity": 97, "channel": 0}, {"type": "note_on", "time": 21, "note": 61, "velocity": 112, "channel": 0}, {"type": "note_off", "time": 71, "note": 61, "velocity": 112, "channel": 0}, {"type": "note_on", "time": 3, "note": 59, "velocity": 93, "channel": 0}, {"type": "note_off", "time": 78, "note": 59, "velocity": 93, "channel": 0}, {"type": "note_on", "time": 25, "note": 54, "velocity": 101, "channel": 0}, {"type": "note_off", "time": 68, "note": 54, "velocity": 101, "channel": 0}, {"type": "note_on", "time": 33, "note": 58, "velocity": 101, "channel": 0}, {"type": "note_off", "time": 127, "note": 58, "velocity": 101, "channel": 0}, {"type": "note_on", "time": 3, "note": 55, "velocity": 97, "channel": 0}, {"type": "note_off", "time": 111, "note": 55, "velocity": 97, "channel": 0}, {"type": "note_on", "time": 1226, "note": 70, "velocity": 84, "channel": 0}, {"type": "note_off", "time": 107, "note": 70, "velocity": 84, "channel": 0}, {"type": "note_on", "time": 108, "note": 70, "velocity": 85, "channel": 0}, {"type": "note_off", "time": 55, "note": 70, "velocity": 85, "channel": 0}, {"type": "note_on", "time": 105, "note": 70, "velocity": 103, "channel": 0}, {"type": "note_off", "time": 36, "note": 70, "velocity": 103, "channel": 0}, {"type": "note_on", "time": 75, "note": 70, "velocity": 100, "channel": 0}, {"type": "note_off", "time": 44, "note": 70, "velocity": 100, "channel": 0}, {"type": "note_on", "time": 72, "note": 70, "velocity": 99, "channel": 0}, {"type": "note_off", "time": 50, "note": 70, "velocity": 99, "channel": 0}, {"type": "note_on", "time": 109, "note": 70, "velocity": 98, "channel": 0}, {"type": "note_off", "time": 30, "note": 70, "velocity": 98, "channel": 0}, {"type": "note_on", "time": 68, "note": 69, "velocity": 103, "channel": 0}, {"type": "note_off", "time": 101, "note": 69, "velocity": 103, "channel": 0}, {"type": "note_on", "time": 0, "note": 72, "velocity": 104, "channel": 0}, {"type": "note_off", "time": 101, "note": 72, "velocity": 104, "channel": 0}, {"type": "note_on", "time": 0, "note": 69, "velocity": 103, "channel": 0}, {"type": "note_off", "time": 98, "note": 69, "velocity": 103, "channel": 0}, {"type": "note_on", "time": 32, "note": 67, "velocity": 102, "channel": 0}, {"type": "note_off", "time": 94, "note": 67, "velocity": 102, "channel": 0}, {"type": "note_on", "time": 55, "note": 67, "velocity": 107, "channel": 0}, {"type": "note_off", "time": 101, "note": 67, "velocity": 107, "channel": 0}, {"type": "note_on", "time": 13, "note": 65, "velocity": 103, "channel": 0}, {"type": "note_off", "time": 71, "note": 65, "velocity": 103, "channel": 0}, {"type": "note_on", "time": 120, "note": 70, "velocity": 96, "channel": 0}, {"type": "note_off", "time": 519, "note": 70, "velocity": 96, "channel": 0}, {"type": "note_on", "time": 0, "note": 70, "velocity": 96, "channel": 0}, {"type": "note_off", "time": 192, "note": 70, "velocity": 96, "channel": 0}, {"type": "note_on", "time": 0, "note": 69, "velocity": 103, "channel": 0}, {"type": "note_off", "time": 183, "note": 69, "velocity": 103, "channel": 0}, {"type": "note_on", "time": 0, "note": 69, "velocity": 103, "channel": 0}, {"type": "note_off", "time": 199, "note": 69, "velocity": 103, "channel": 0}, {"type": "note_on", "time": 0, "note": 63, "velocity": 109, "channel": 0}, {"type": "note_off", "time": 176, "note": 63, "velocity": 109, "channel": 0}, {"type": "note_on", "time": 26, "note": 67, "velocity": 102, "channel": 0}, {"type": "note_off", "time": 192, "note": 67, "velocity": 102, "channel": 0}, {"type": "note_on", "time": 3, "note": 65, "velocity": 106, "channel": 0}, {"type": "note_off", "time": 140, "note": 65, "velocity": 106, "channel": 0}, {"type": "note_on", "time": 0, "note": 65, "velocity": 97, "channel": 0}, {"type": "note_off", "time": 68, "note": 65, "velocity": 97, "channel": 0}, {"type": "note_on", "time": 467, "note": 62, "velocity": 114, "channel": 0}, {"type": "note_off", "time": 88, "note": 62, "velocity": 114, "channel": 0}, {"type": "note_on", "time": 13, "note": 65, "velocity": 112, "channel": 0}, {"type": "note_off", "time": 88, "note": 65, "velocity": 112, "channel": 0}, {"type": "note_on", "time": 9, "note": 62, "velocity": 112, "channel": 0}, {"type": "note_off", "time": 91, "note": 62, "velocity": 112, "channel": 0}, {"type": "note_on", "time": 3, "note": 63, "velocity": 109, "channel": 0}, {"type": "note_off", "time": 85, "note": 63, "velocity": 109, "channel": 0}, {"type": "note_on", "time": 19, "note": 65, "velocity": 112, "channel": 0}, {"type": "note_off", "time": 58, "note": 65, "velocity": 112, "channel": 0}, {"type": "note_on", "time": 16, "note": 62, "velocity": 108, "channel": 0}, {"type": "note_off", "time": 120, "note": 62, "velocity": 108, "channel": 0}, {"type": "note_on", "time": 52, "note": 55, "velocity": 100, "channel": 0}, {"type": "note_on", "time": 95, "note": 53, "velocity": 97, "channel": 0}, {"type": "note_off", "time": 0, "note": 55, "velocity": 100, "channel": 0}, {"type": "note_off", "time": 111, "note": 53, "velocity": 97, "channel": 0}, {"type": "note_on", "time": 0, "note": 60, "velocity": 111, "channel": 0}, {"type": "note_off", "time": 120, "note": 60, "velocity": 111, "channel": 0}, {"type": "note_on", "time": 0, "note": 56, "velocity": 99, "channel": 0}, {"type": "note_off", "time": 81, "note": 56, "velocity": 99, "channel": 0}, {"type": "note_on", "time": 344, "note": 54, "velocity": 98, "channel": 0}, {"type": "note_off", "time": 72, "note": 54, "velocity": 98, "channel": 0}, {"type": "note_on", "time": 20, "note": 55, "velocity": 94, "channel": 0}, {"type": "note_on", "time": 34, "note": 62, "velocity": 104, "channel": 0}, {"type": "note_off", "time": 0, "note": 55, "velocity": 94, "channel": 0}, {"type": "note_off", "time": 49, "note": 62, "velocity": 104, "channel": 0}, {"type": "note_on", "time": 3, "note": 65, "velocity": 107, "channel": 0}, {"type": "note_off", "time": 13, "note": 65, "velocity": 107, "channel": 0}, {"type": "note_on", "time": 3, "note": 65, "velocity": 107, "channel": 0}, {"type": "note_off", "time": 52, "note": 65, "velocity": 107, "channel": 0}, {"type": "note_on", "time": 19, "note": 63, "velocity": 110, "channel": 0}, {"type": "note_off", "time": 114, "note": 63, "velocity": 110, "channel": 0}, {"type": "note_on", "time": 3, "note": 58, "velocity": 99, "channel": 0}, {"type": "note_off", "time": 55, "note": 58, "velocity": 99, "channel": 0}, {"type": "note_on", "time": 124, "note": 58, "velocity": 100, "channel": 0}, {"type": "note_off", "time": 91, "note": 58, "velocity": 100, "channel": 0}, {"type": "note_on", "time": 3, "note": 64, "velocity": 91, "channel": 0}, {"type": "note_off", "time": 91, "note": 64, "velocity": 91, "channel": 0}, {"type": "note_on", "time": 9, "note": 65, "velocity": 106, "channel": 0}, {"type": "note_off", "time": 65, "note": 65, "velocity": 106, "channel": 0}, {"type": "note_on", "time": 13, "note": 67, "velocity": 109, "channel": 0}, {"type": "note_off", "time": 94, "note": 67, "velocity": 109, "channel": 0}, {"type": "note_on", "time": 6, "note": 64, "velocity": 112, "channel": 0}, {"type": "note_off", "time": 75, "note": 64, "velocity": 112, "channel": 0}, {"type": "note_on", "time": 9, "note": 65, "velocity": 106, "channel": 0}, {"type": "note_off", "time": 85, "note": 65, "velocity": 106, "channel": 0}, {"type": "note_on", "time": 16, "note": 62, "velocity": 105, "channel": 0}, {"type": "note_off", "time": 78, "note": 62, "velocity": 105, "channel": 0}, {"type": "note_on", "time": 19, "note": 63, "velocity": 111, "channel": 0}, {"type": "note_off", "time": 85, "note": 63, "velocity": 111, "channel": 0}, {"type": "note_on", "time": 0, "note": 63, "velocity": 110, "channel": 0}, {"type": "note_off", "time": 91, "note": 63, "velocity": 110, "channel": 0}, {"type": "note_on", "time": 13, "note": 62, "velocity": 104, "channel": 0}, {"type": "note_off", "time": 140, "note": 62, "velocity": 104, "channel": 0}, {"type": "note_on", "time": 905, "note": 67, "velocity": 95, "channel": 0}, {"type": "note_off", "time": 134, "note": 67, "velocity": 95, "channel": 0}, {"type": "note_on", "time": 55, "note": 70, "velocity": 105, "channel": 0}, {"type": "note_off", "time": 75, "note": 70, "velocity": 105, "channel": 0}, {"type": "note_on", "time": 88, "note": 67, "velocity": 106, "channel": 0}, {"type": "note_off", "time": 98, "note": 67, "velocity": 106, "channel": 0}, {"type": "note_on", "time": 45, "note": 72, "velocity": 111, "channel": 0}, {"type": "note_off", "time": 75, "note": 72, "velocity": 111, "channel": 0}, {"type": "note_on", "time": 98, "note": 70, "velocity": 105, "channel": 0}, {"type": "note_off", "time": 101, "note": 70, "velocity": 105, "channel": 0}, {"type": "note_on", "time": 104, "note": 66, "velocity": 107, "channel": 0}, {"type": "note_off", "time": 75, "note": 66, "velocity": 107, "channel": 0}, {"type": "note_on", "time": 107, "note": 74, "velocity": 103, "channel": 0}, {"type": "note_off", "time": 81, "note": 74, "velocity": 103, "channel": 0}, {"type": "note_on", "time": 16, "note": 72, "velocity": 109, "channel": 0}, {"type": "note_off", "time": 81, "note": 72, "velocity": 109, "channel": 0}, {"type": "note_on", "time": 16, "note": 70, "velocity": 103, "channel": 0}, {"type": "note_off", "time": 91, "note": 70, "velocity": 103, "channel": 0}, {"type": "note_on", "time": 0, "note": 66, "velocity": 69, "channel": 0}, {"type": "note_off", "time": 75, "note": 66, "velocity": 69, "channel": 0}, {"type": "note_on", "time": 0, "note": 65, "velocity": 104, "channel": 0}, {"type": "note_off", "time": 98, "note": 65, "velocity": 104, "channel": 0}, {"type": "note_on", "time": 13, "note": 63, "velocity": 108, "channel": 0}, {"type": "note_off", "time": 81, "note": 63, "velocity": 108, "channel": 0}, {"type": "note_on", "time": 9, "note": 62, "velocity": 110, "channel": 0}, {"type": "note_off", "time": 68, "note": 62, "velocity": 110, "channel": 0}, {"type": "note_on", "time": 35, "note": 67, "velocity": 106, "channel": 0}, {"type": "note_off", "time": 78, "note": 67, "velocity": 106, "channel": 0}, {"type": "note_on", "time": 0, "note": 70, "velocity": 101, "channel": 0}, {"type": "note_off", "time": 81, "note": 70, "velocity": 101, "channel": 0}, {"type": "note_on", "time": 9, "note": 67, "velocity": 109, "channel": 0}, {"type": "note_off", "time": 52, "note": 67, "velocity": 109, "channel": 0}, {"type": "note_on", "time": 0, "note": 72, "velocity": 93, "channel": 0}, {"type": "note_off", "time": 101, "note": 72, "velocity": 93, "channel": 0}, {"type": "note_on", "time": 85, "note": 70, "velocity": 97, "channel": 0}, {"type": "note_off", "time": 107, "note": 70, "velocity": 97, "channel": 0}, {"type": "note_on", "time": 26, "note": 65, "velocity": 108, "channel": 0}, {"type": "note_off", "time": 134, "note": 65, "velocity": 108, "channel": 0}, {"type": "note_on", "time": 3, "note": 64, "velocity": 114, "channel": 0}, {"type": "note_off", "time": 153, "note": 64, "velocity": 114, "channel": 0}, {"type": "note_on", "time": 75, "note": 70, "velocity": 101, "channel": 0}, {"type": "note_off", "time": 101, "note": 70, "velocity": 101, "channel": 0}, {"type": "note_on", "time": 22, "note": 72, "velocity": 107, "channel": 0}, {"type": "note_off", "time": 104, "note": 72, "velocity": 107, "channel": 0}, {"type": "note_on", "time": 29, "note": 70, "velocity": 99, "channel": 0}, {"type": "note_off", "time": 85, "note": 70, "velocity": 99, "channel": 0}, {"type": "note_on", "time": 58, "note": 64, "velocity": 106, "channel": 0}, {"type": "note_off", "time": 127, "note": 64, "velocity": 106, "channel": 0}, {"type": "note_on", "time": 11, "note": 63, "velocity": 108, "channel": 0}, {"type": "note_off", "time": 228, "note": 63, "velocity": 108, "channel": 0}, {"type": "note_on", "time": 521, "note": 74, "velocity": 110, "channel": 0}, {"type": "note_off", "time": 101, "note": 74, "velocity": 110, "channel": 0}, {"type": "note_on", "time": 0, "note": 72, "velocity": 112, "channel": 0}, {"type": "note_off", "time": 91, "note": 72, "velocity": 112, "channel": 0}, {"type": "note_on", "time": 0, "note": 70, "velocity": 98, "channel": 0}, {"type": "note_off", "time": 104, "note": 70, "velocity": 98, "channel": 0}, {"type": "note_on", "time": 6, "note": 67, "velocity": 99, "channel": 0}, {"type": "note_off", "time": 75, "note": 67, "velocity": 99, "channel": 0}, {"type": "note_on", "time": 9, "note": 69, "velocity": 108, "channel": 0}, {"type": "note_off", "time": 85, "note": 69, "velocity": 108, "channel": 0}, {"type": "note_on", "time": 9, "note": 67, "velocity": 110, "channel": 0}, {"type": "note_off", "time": 91, "note": 67, "velocity": 110, "channel": 0}, {"type": "note_on", "time": 3, "note": 65, "velocity": 107, "channel": 0}, {"type": "note_off", "time": 101, "note": 65, "velocity": 107, "channel": 0}, {"type": "note_on", "time": 6, "note": 63, "velocity": 112, "channel": 0}, {"type": "note_off", "time": 75, "note": 63, "velocity": 112, "channel": 0}, {"type": "note_on", "time": 16, "note": 62, "velocity": 109, "channel": 0}, {"type": "note_off", "time": 85, "note": 62, "velocity": 109, "channel": 0}, {"type": "note_on", "time": 29, "note": 60, "velocity": 110, "channel": 0}, {"type": "note_off", "time": 85, "note": 60, "velocity": 110, "channel": 0}, {"type": "note_on", "time": 9, "note": 58, "velocity": 100, "channel": 0}, {"type": "note_off", "time": 78, "note": 58, "velocity": 100, "channel": 0}, {"type": "note_on", "time": 9, "note": 53, "velocity": 96, "channel": 0}, {"type": "note_off", "time": 66, "note": 53, "velocity": 96, "channel": 0}, {"type": "note_on", "time": 25, "note": 57, "velocity": 98, "channel": 0}, {"type": "note_off", "time": 134, "note": 57, "velocity": 98, "channel": 0}, {"type": "note_on", "time": 7, "note": 58, "velocity": 86, "channel": 0}, {"type": "note_off", "time": 62, "note": 58, "velocity": 86, "channel": 0}, {"type": "note_on", "time": 649, "note": 58, "velocity": 109, "channel": 0}, {"type": "note_off", "time": 68, "note": 58, "velocity": 109, "channel": 0}, {"type": "note_on", "time": 6, "note": 63, "velocity": 109, "channel": 0}, {"type": "note_off", "time": 84, "note": 63, "velocity": 109, "channel": 0}, {"type": "note_on", "time": 0, "note": 67, "velocity": 109, "channel": 0}, {"type": "note_off", "time": 227, "note": 67, "velocity": 109, "channel": 0}, {"type": "note_on", "time": 2, "note": 68, "velocity": 110, "channel": 0}, {"type": "note_off", "time": 186, "note": 68, "velocity": 110, "channel": 0}, {"type": "note_on", "time": 398, "note": 67, "velocity": 97, "channel": 0}, {"type": "note_off", "time": 111, "note": 67, "velocity": 97, "channel": 0}, {"type": "note_on", "time": 248, "note": 64, "velocity": 120, "channel": 0}, {"type": "note_off", "time": 94, "note": 64, "velocity": 120, "channel": 0}, {"type": "note_on", "time": 0, "note": 65, "velocity": 108, "channel": 0}, {"type": "note_off", "time": 94, "note": 65, "velocity": 108, "channel": 0}, {"type": "note_on", "time": 26, "note": 62, "velocity": 107, "channel": 0}, {"type": "note_off", "time": 71, "note": 62, "velocity": 107, "channel": 0}, {"type": "note_on", "time": 9, "note": 63, "velocity": 106, "channel": 0}, {"type": "note_off", "time": 91, "note": 63, "velocity": 106, "channel": 0}, {"type": "note_on", "time": 19, "note": 61, "velocity": 113, "channel": 0}, {"type": "note_off", "time": 65, "note": 61, "velocity": 113, "channel": 0}, {"type": "note_on", "time": 16, "note": 62, "velocity": 105, "channel": 0}, {"type": "note_off", "time": 84, "note": 62, "velocity": 105, "channel": 0}, {"type": "note_on", "time": 0, "note": 62, "velocity": 98, "channel": 0}, {"type": "note_off", "time": 16, "note": 62, "velocity": 98, "channel": 0}, {"type": "note_on", "time": 12, "note": 58, "velocity": 101, "channel": 0}, {"type": "note_off", "time": 44, "note": 58, "velocity": 101, "channel": 0}, {"type": "note_on", "time": 31, "note": 60, "velocity": 112, "channel": 0}, {"type": "note_off", "time": 88, "note": 60, "velocity": 112, "channel": 0}, {"type": "note_on", "time": 34, "note": 57, "velocity": 104, "channel": 0}, {"type": "note_off", "time": 33, "note": 57, "velocity": 104, "channel": 0}, {"type": "note_on", "time": 33, "note": 58, "velocity": 101, "channel": 0}, {"type": "note_off", "time": 98, "note": 58, "velocity": 101, "channel": 0}, {"type": "note_on", "time": 6, "note": 55, "velocity": 106, "channel": 0}, {"type": "note_off", "time": 71, "note": 55, "velocity": 106, "channel": 0}, {"type": "note_on", "time": 19, "note": 56, "velocity": 106, "channel": 0}, {"type": "note_off", "time": 71, "note": 56, "velocity": 106, "channel": 0}, {"type": "note_on", "time": 22, "note": 52, "velocity": 102, "channel": 0}, {"type": "note_off", "time": 78, "note": 52, "velocity": 102, "channel": 0}, {"type": "note_on", "time": 9, "note": 55, "velocity": 109, "channel": 0}, {"type": "note_off", "time": 85, "note": 55, "velocity": 109, "channel": 0}, {"type": "note_on", "time": 20, "note": 51, "velocity": 110, "channel": 0}, {"type": "note_off", "time": 42, "note": 51, "velocity": 110, "channel": 0}, {"type": "note_on", "time": 51, "note": 53, "velocity": 109, "channel": 0}, {"type": "note_off", "time": 94, "note": 53, "velocity": 109, "channel": 0}, {"type": "note_on", "time": 21, "note": 50, "velocity": 102, "channel": 0}, {"type": "note_off", "time": 44, "note": 50, "velocity": 102, "channel": 0}, {"type": "note_on", "time": 55, "note": 51, "velocity": 106, "channel": 0}, {"type": "note_off", "time": 78, "note": 51, "velocity": 106, "channel": 0}, {"type": "note_on", "time": 16, "note": 49, "velocity": 102, "channel": 0}, {"type": "note_off", "time": 77, "note": 49, "velocity": 102, "channel": 0}, {"type": "note_on", "time": 0, "note": 50, "velocity": 80, "channel": 0}, {"type": "note_off", "time": 1, "note": 50, "velocity": 80, "channel": 0}, {"type": "note_on", "time": 0, "note": 50, "velocity": 107, "channel": 0}, {"type": "note_off", "time": 101, "note": 50, "velocity": 107, "channel": 0}, {"type": "note_on", "time": 18, "note": 50, "velocity": 108, "channel": 0}, {"type": "note_off", "time": 43, "note": 50, "velocity": 108, "channel": 0}, {"type": "note_on", "time": 57, "note": 49, "velocity": 102, "channel": 0}, {"type": "note_off", "time": 58, "note": 49, "velocity": 102, "channel": 0}, {"type": "note_on", "time": 763, "note": 61, "velocity": 121, "channel": 0}, {"type": "note_off", "time": 65, "note": 61, "velocity": 121, "channel": 0}, {"type": "note_on", "time": 13, "note": 66, "velocity": 96, "channel": 0}, {"type": "note_off", "time": 33, "note": 66, "velocity": 96, "channel": 0}, {"type": "note_on", "time": 3, "note": 67, "velocity": 107, "channel": 0}, {"type": "note_off", "time": 41, "note": 67, "velocity": 107, "channel": 0}, {"type": "note_on", "time": 9, "note": 70, "velocity": 105, "channel": 0}, {"type": "note_off", "time": 55, "note": 70, "velocity": 105, "channel": 0}, {"type": "note_on", "time": 8, "note": 72, "velocity": 102, "channel": 0}, {"type": "note_off", "time": 60, "note": 72, "velocity": 102, "channel": 0}, {"type": "note_on", "time": 55, "note": 73, "velocity": 96, "channel": 0}, {"type": "note_off", "time": 359, "note": 73, "velocity": 96, "channel": 0}, {"type": "note_on", "time": 0, "note": 73, "velocity": 82, "channel": 0}, {"type": "note_off", "time": 104, "note": 73, "velocity": 82, "channel": 0}, {"type": "note_on", "time": 518, "note": 69, "velocity": 111, "channel": 0}, {"type": "note_off", "time": 88, "note": 69, "velocity": 111, "channel": 0}, {"type": "note_on", "time": 12, "note": 70, "velocity": 100, "channel": 0}, {"type": "note_off", "time": 61, "note": 70, "velocity": 100, "channel": 0}, {"type": "note_on", "time": 76, "note": 67, "velocity": 104, "channel": 0}, {"type": "note_off", "time": 42, "note": 67, "velocity": 104, "channel": 0}, {"type": "note_on", "time": 16, "note": 68, "velocity": 96, "channel": 0}, {"type": "note_off", "time": 60, "note": 68, "velocity": 96, "channel": 0}, {"type": "note_on", "time": 54, "note": 65, "velocity": 105, "channel": 0}, {"type": "note_off", "time": 52, "note": 65, "velocity": 105, "channel": 0}, {"type": "note_on", "time": 14, "note": 67, "velocity": 102, "channel": 0}, {"type": "note_off", "time": 58, "note": 67, "velocity": 102, "channel": 0}, {"type": "note_on", "time": 73, "note": 64, "velocity": 106, "channel": 0}, {"type": "note_off", "time": 62, "note": 64, "velocity": 106, "channel": 0}, {"type": "note_on", "time": 0, "note": 65, "velocity": 102, "channel": 0}, {"type": "note_off", "time": 52, "note": 65, "velocity": 102, "channel": 0}, {"type": "note_on", "time": 3, "note": 67, "velocity": 98, "channel": 0}, {"type": "note_off", "time": 45, "note": 67, "velocity": 98, "channel": 0}, {"type": "note_on", "time": 22, "note": 64, "velocity": 102, "channel": 0}, {"type": "note_off", "time": 140, "note": 64, "velocity": 102, "channel": 0}, {"type": "note_on", "time": 35, "note": 64, "velocity": 103, "channel": 0}, {"type": "note_off", "time": 42, "note": 64, "velocity": 103, "channel": 0}, {"type": "note_on", "time": 0, "note": 62, "velocity": 105, "channel": 0}, {"type": "note_off", "time": 52, "note": 62, "velocity": 105, "channel": 0}, {"type": "note_on", "time": 0, "note": 63, "velocity": 112, "channel": 0}, {"type": "note_off", "time": 71, "note": 63, "velocity": 112, "channel": 0}, {"type": "note_on", "time": 58, "note": 60, "velocity": 106, "channel": 0}, {"type": "note_off", "time": 65, "note": 60, "velocity": 106, "channel": 0}, {"type": "note_on", "time": 6, "note": 62, "velocity": 110, "channel": 0}, {"type": "note_off", "time": 94, "note": 62, "velocity": 110, "channel": 0}, {"type": "note_on", "time": 27, "note": 59, "velocity": 103, "channel": 0}, {"type": "note_off", "time": 45, "note": 59, "velocity": 103, "channel": 0}, {"type": "note_on", "time": 31, "note": 60, "velocity": 111, "channel": 0}, {"type": "note_off", "time": 88, "note": 60, "velocity": 111, "channel": 0}, {"type": "note_on", "time": 42, "note": 55, "velocity": 97, "channel": 0}, {"type": "note_off", "time": 40, "note": 55, "velocity": 97, "channel": 0}, {"type": "note_on", "time": 10, "note": 58, "velocity": 86, "channel": 0}, {"type": "note_off", "time": 62, "note": 58, "velocity": 86, "channel": 0}, {"type": "note_on", "time": 39, "note": 55, "velocity": 110, "channel": 0}, {"type": "note_off", "time": 29, "note": 55, "velocity": 110, "channel": 0}, {"type": "note_on", "time": 72, "note": 57, "velocity": 103, "channel": 0}, {"type": "note_off", "time": 85, "note": 57, "velocity": 103, "channel": 0}, {"type": "note_on", "time": 21, "note": 53, "velocity": 103, "channel": 0}, {"type": "note_off", "time": 55, "note": 53, "velocity": 103, "channel": 0}, {"type": "note_on", "time": 21, "note": 55, "velocity": 105, "channel": 0}, {"type": "note_off", "time": 104, "note": 55, "velocity": 105, "channel": 0}, {"type": "note_on", "time": 13, "note": 51, "velocity": 102, "channel": 0}, {"type": "note_off", "time": 67, "note": 51, "velocity": 102, "channel": 0}, {"type": "note_on", "time": 683, "note": 58, "velocity": 104, "channel": 0}, {"type": "note_off", "time": 55, "note": 58, "velocity": 104, "channel": 0}, {"type": "note_on", "time": 20, "note": 61, "velocity": 111, "channel": 0}, {"type": "note_off", "time": 42, "note": 61, "velocity": 111, "channel": 0}, {"type": "note_on", "time": 0, "note": 62, "velocity": 104, "channel": 0}, {"type": "note_off", "time": 37, "note": 62, "velocity": 104, "channel": 0}, {"type": "note_on", "time": 0, "note": 67, "velocity": 107, "channel": 0}, {"type": "note_off", "time": 163, "note": 67, "velocity": 107, "channel": 0}, {"type": "note_on", "time": 0, "note": 68, "velocity": 109, "channel": 0}, {"type": "note_off", "time": 245, "note": 68, "velocity": 109, "channel": 0}, {"type": "note_on", "time": 78, "note": 64, "velocity": 116, "channel": 0}, {"type": "note_off", "time": 104, "note": 64, "velocity": 116, "channel": 0}, {"type": "note_on", "time": 0, "note": 67, "velocity": 108, "channel": 0}, {"type": "note_off", "time": 101, "note": 67, "velocity": 108, "channel": 0}, {"type": "note_on", "time": 0, "note": 65, "velocity": 102, "channel": 0}, {"type": "note_off", "time": 88, "note": 65, "velocity": 102, "channel": 0}, {"type": "note_on", "time": 9, "note": 63, "velocity": 109, "channel": 0}, {"type": "note_off", "time": 88, "note": 63, "velocity": 109, "channel": 0}, {"type": "note_on", "time": 13, "note": 61, "velocity": 110, "channel": 0}, {"type": "note_off", "time": 71, "note": 61, "velocity": 110, "channel": 0}, {"type": "note_on", "time": 19, "note": 62, "velocity": 105, "channel": 0}, {"type": "note_off", "time": 101, "note": 62, "velocity": 105, "channel": 0}, {"type": "note_on", "time": 1, "note": 58, "velocity": 99, "channel": 0}, {"type": "note_off", "time": 64, "note": 58, "velocity": 99, "channel": 0}, {"type": "note_on", "time": 0, "note": 57, "velocity": 102, "channel": 0}, {"type": "note_off", "time": 75, "note": 57, "velocity": 102, "channel": 0}, {"type": "note_on", "time": 1, "note": 56, "velocity": 96, "channel": 0}, {"type": "note_off", "time": 62, "note": 56, "velocity": 96, "channel": 0}, {"type": "note_on", "time": 74, "note": 58, "velocity": 100, "channel": 0}, {"type": "note_off", "time": 71, "note": 58, "velocity": 100, "channel": 0}, {"type": "note_on", "time": 22, "note": 67, "velocity": 109, "channel": 0}, {"type": "note_off", "time": 91, "note": 67, "velocity": 109, "channel": 0}, {"type": "note_on", "time": 6, "note": 65, "velocity": 106, "channel": 0}, {"type": "note_off", "time": 71, "note": 65, "velocity": 106, "channel": 0}, {"type": "note_on", "time": 32, "note": 63, "velocity": 108, "channel": 0}, {"type": "note_off", "time": 71, "note": 63, "velocity": 108, "channel": 0}, {"type": "note_on", "time": 10, "note": 57, "velocity": 90, "channel": 0}, {"type": "note_off", "time": 53, "note": 57, "velocity": 90, "channel": 0}, {"type": "note_on", "time": 30, "note": 58, "velocity": 95, "channel": 0}, {"type": "note_off", "time": 59, "note": 58, "velocity": 95, "channel": 0}, {"type": "note_on", "time": 74, "note": 60, "velocity": 110, "channel": 0}, {"type": "note_off", "time": 78, "note": 60, "velocity": 110, "channel": 0}, {"type": "note_on", "time": 0, "note": 61, "velocity": 106, "channel": 0}, {"type": "note_off", "time": 100, "note": 61, "velocity": 106, "channel": 0}, {"type": "note_on", "time": 0, "note": 58, "velocity": 100, "channel": 0}, {"type": "note_off", "time": 62, "note": 58, "velocity": 100, "channel": 0}, {"type": "note_on", "time": 36, "note": 60, "velocity": 107, "channel": 0}, {"type": "note_off", "time": 88, "note": 60, "velocity": 107, "channel": 0}, {"type": "note_on", "time": 0, "note": 57, "velocity": 94, "channel": 0}, {"type": "note_off", "time": 65, "note": 57, "velocity": 94, "channel": 0}, {"type": "note_on", "time": 32, "note": 58, "velocity": 96, "channel": 0}, {"type": "note_off", "time": 98, "note": 58, "velocity": 96, "channel": 0}, {"type": "note_on", "time": 1, "note": 53, "velocity": 106, "channel": 0}, {"type": "note_off", "time": 64, "note": 53, "velocity": 106, "channel": 0}, {"type": "note_on", "time": 4, "note": 50, "velocity": 85, "channel": 0}, {"type": "note_off", "time": 101, "note": 50, "velocity": 85, "channel": 0}, {"type": "note_on", "time": 2, "note": 51, "velocity": 87, "channel": 0}, {"type": "note_off", "time": 64, "note": 51, "velocity": 87, "channel": 0}, {"type": "note_on", "time": 35, "note": 53, "velocity": 97, "channel": 0}, {"type": "note_off", "time": 127, "note": 53, "velocity": 97, "channel": 0}, {"type": "note_on", "time": 578, "note": 58, "velocity": 103, "channel": 0}, {"type": "note_off", "time": 58, "note": 58, "velocity": 103, "channel": 0}, {"type": "note_on", "time": 27, "note": 55, "velocity": 91, "channel": 0}, {"type": "note_off", "time": 89, "note": 55, "velocity": 91, "channel": 0}, {"type": "note_on", "time": 69, "note": 58, "velocity": 107, "channel": 0}, {"type": "note_off", "time": 179, "note": 58, "velocity": 107, "channel": 0}, {"type": "note_on", "time": 29, "note": 61, "velocity": 101, "channel": 0}, {"type": "note_off", "time": 179, "note": 61, "velocity": 101, "channel": 0}, {"type": "note_on", "time": 17, "note": 55, "velocity": 104, "channel": 0}, {"type": "note_off", "time": 89, "note": 55, "velocity": 104, "channel": 0}, {"type": "note_on", "time": 92, "note": 58, "velocity": 100, "channel": 0}, {"type": "note_off", "time": 107, "note": 58, "velocity": 100, "channel": 0}, {"type": "note_on", "time": 957, "note": 58, "velocity": 108, "channel": 0}, {"type": "note_off", "time": 71, "note": 58, "velocity": 108, "channel": 0}, {"type": "note_on", "time": 130, "note": 65, "velocity": 114, "channel": 0}, {"type": "note_off", "time": 71, "note": 65, "velocity": 114, "channel": 0}, {"type": "note_on", "time": 180, "note": 58, "velocity": 91, "channel": 0}, {"type": "note_off", "time": 75, "note": 58, "velocity": 91, "channel": 0}, {"type": "note_on", "time": 135, "note": 65, "velocity": 105, "channel": 0}, {"type": "note_off", "time": 88, "note": 65, "velocity": 105, "channel": 0}, {"type": "note_on", "time": 117, "note": 63, "velocity": 98, "channel": 0}, {"type": "note_off", "time": 98, "note": 63, "velocity": 98, "channel": 0}, {"type": "note_on", "time": 19, "note": 63, "velocity": 100, "channel": 0}, {"type": "note_off", "time": 52, "note": 63, "velocity": 100, "channel": 0}, {"type": "note_on", "time": 13, "note": 62, "velocity": 103, "channel": 0}, {"type": "note_off", "time": 88, "note": 62, "velocity": 103, "channel": 0}, {"type": "note_on", "time": 13, "note": 60, "velocity": 106, "channel": 0}, {"type": "note_off", "time": 81, "note": 60, "velocity": 106, "channel": 0}, {"type": "note_on", "time": 19, "note": 59, "velocity": 89, "channel": 0}, {"type": "note_off", "time": 65, "note": 59, "velocity": 89, "channel": 0}, {"type": "note_on", "time": 55, "note": 56, "velocity": 96, "channel": 0}, {"type": "note_off", "time": 69, "note": 56, "velocity": 96, "channel": 0}, {"type": "note_on", "time": 29, "note": 55, "velocity": 103, "channel": 0}, {"type": "note_off", "time": 53, "note": 55, "velocity": 103, "channel": 0}, {"type": "note_on", "time": 20, "note": 53, "velocity": 101, "channel": 0}, {"type": "note_off", "time": 82, "note": 53, "velocity": 101, "channel": 0}, {"type": "note_on", "time": 2, "note": 51, "velocity": 84, "channel": 0}, {"type": "note_off", "time": 113, "note": 51, "velocity": 84, "channel": 0}, {"type": "note_on", "time": 13, "note": 53, "velocity": 88, "channel": 0}, {"type": "note_off", "time": 55, "note": 53, "velocity": 88, "channel": 0}, {"type": "note_on", "time": 0, "note": 55, "velocity": 97, "channel": 0}, {"type": "note_off", "time": 64, "note": 55, "velocity": 97, "channel": 0}, {"type": "note_on", "time": 41, "note": 58, "velocity": 98, "channel": 0}, {"type": "note_off", "time": 78, "note": 58, "velocity": 98, "channel": 0}, {"type": "note_on", "time": 0, "note": 62, "velocity": 105, "channel": 0}, {"type": "note_off", "time": 85, "note": 62, "velocity": 105, "channel": 0}, {"type": "note_on", "time": 3, "note": 65, "velocity": 106, "channel": 0}, {"type": "note_off", "time": 81, "note": 65, "velocity": 106, "channel": 0}, {"type": "note_on", "time": 19, "note": 63, "velocity": 114, "channel": 0}, {"type": "note_off", "time": 101, "note": 63, "velocity": 114, "channel": 0}, {"type": "note_on", "time": 11, "note": 58, "velocity": 98, "channel": 0}, {"type": "note_off", "time": 50, "note": 58, "velocity": 98, "channel": 0}, {"type": "note_on", "time": 19, "note": 62, "velocity": 112, "channel": 0}, {"type": "note_off", "time": 81, "note": 62, "velocity": 112, "channel": 0}, {"type": "note_on", "time": 117, "note": 62, "velocity": 111, "channel": 0}, {"type": "note_off", "time": 78, "note": 62, "velocity": 111, "channel": 0}, {"type": "note_on", "time": 19, "note": 63, "velocity": 118, "channel": 0}, {"type": "note_off", "time": 81, "note": 63, "velocity": 118, "channel": 0}, {"type": "note_on", "time": 9, "note": 62, "velocity": 113, "channel": 0}, {"type": "note_off", "time": 81, "note": 62, "velocity": 113, "channel": 0}, {"type": "note_on", "time": 19, "note": 58, "velocity": 103, "channel": 0}, {"type": "note_off", "time": 101, "note": 58, "velocity": 103, "channel": 0}, {"type": "note_on", "time": 11, "note": 53, "velocity": 102, "channel": 0}, {"type": "note_off", "time": 85, "note": 53, "velocity": 102, "channel": 0}, {"type": "note_on", "time": 29, "note": 51, "velocity": 94, "channel": 0}, {"type": "note_off", "time": 49, "note": 51, "velocity": 94, "channel": 0}, {"type": "note_on", "time": 15, "note": 50, "velocity": 86, "channel": 0}, {"type": "note_off", "time": 76, "note": 50, "velocity": 86, "channel": 0}, {"type": "note_on", "time": 616, "note": 57, "velocity": 100, "channel": 0}, {"type": "note_off", "time": 16, "note": 57, "velocity": 100, "channel": 0}, {"type": "note_on", "time": 19, "note": 58, "velocity": 106, "channel": 0}, {"type": "note_off", "time": 52, "note": 58, "velocity": 106, "channel": 0}, {"type": "note_on", "time": 3, "note": 62, "velocity": 110, "channel": 0}, {"type": "note_off", "time": 19, "note": 62, "velocity": 110, "channel": 0}, {"type": "note_on", "time": 3, "note": 65, "velocity": 105, "channel": 0}, {"type": "note_off", "time": 52, "note": 65, "velocity": 105, "channel": 0}, {"type": "note_on", "time": 32, "note": 67, "velocity": 113, "channel": 0}, {"type": "note_off", "time": 211, "note": 67, "velocity": 113, "channel": 0}, {"type": "note_on", "time": 0, "note": 68, "velocity": 111, "channel": 0}, {"type": "note_off", "time": 165, "note": 68, "velocity": 111, "channel": 0}, {"type": "note_on", "time": 46, "note": 67, "velocity": 96, "channel": 0}, {"type": "note_off", "time": 63, "note": 67, "velocity": 96, "channel": 0}, {"type": "note_on", "time": 15, "note": 66, "velocity": 101, "channel": 0}, {"type": "note_off", "time": 48, "note": 66, "velocity": 101, "channel": 0}, {"type": "note_on", "time": 16, "note": 64, "velocity": 107, "channel": 0}, {"type": "note_on", "time": 69, "note": 67, "velocity": 105, "channel": 0}, {"type": "note_off", "time": 0, "note": 64, "velocity": 107, "channel": 0}, {"type": "note_off", "time": 105, "note": 67, "velocity": 105, "channel": 0}, {"type": "note_on", "time": 8, "note": 65, "velocity": 79, "channel": 0}, {"type": "note_off", "time": 22, "note": 65, "velocity": 79, "channel": 0}, {"type": "note_on", "time": 611, "note": 67, "velocity": 112, "channel": 0}, {"type": "note_off", "time": 127, "note": 67, "velocity": 112, "channel": 0}, {"type": "note_on", "time": 15, "note": 70, "velocity": 88, "channel": 0}, {"type": "note_off", "time": 39, "note": 70, "velocity": 88, "channel": 0}, {"type": "note_on", "time": 3, "note": 72, "velocity": 108, "channel": 0}, {"type": "note_off", "time": 101, "note": 72, "velocity": 108, "channel": 0}, {"type": "note_on", "time": 25, "note": 70, "velocity": 106, "channel": 0}, {"type": "note_off", "time": 75, "note": 70, "velocity": 106, "channel": 0}, {"type": "note_on", "time": 3, "note": 66, "velocity": 106, "channel": 0}, {"type": "note_off", "time": 81, "note": 66, "velocity": 106, "channel": 0}, {"type": "note_on", "time": 29, "note": 66, "velocity": 106, "channel": 0}, {"type": "note_off", "time": 55, "note": 66, "velocity": 106, "channel": 0}, {"type": "note_on", "time": 0, "note": 65, "velocity": 104, "channel": 0}, {"type": "note_off", "time": 114, "note": 65, "velocity": 104, "channel": 0}, {"type": "note_on", "time": 6, "note": 63, "velocity": 112, "channel": 0}, {"type": "note_off", "time": 71, "note": 63, "velocity": 112, "channel": 0}, {"type": "note_on", "time": 0, "note": 62, "velocity": 106, "channel": 0}, {"type": "note_off", "time": 104, "note": 62, "velocity": 106, "channel": 0}, {"type": "note_on", "time": 29, "note": 58, "velocity": 92, "channel": 0}, {"type": "note_off", "time": 32, "note": 58, "velocity": 92, "channel": 0}, {"type": "note_on", "time": 343, "note": 65, "velocity": 117, "channel": 0}, {"type": "note_off", "time": 35, "note": 65, "velocity": 117, "channel": 0}, {"type": "note_on", "time": 0, "note": 67, "velocity": 114, "channel": 0}, {"type": "note_off", "time": 68, "note": 67, "velocity": 114, "channel": 0}, {"type": "note_on", "time": 3, "note": 70, "velocity": 101, "channel": 0}, {"type": "note_off", "time": 35, "note": 70, "velocity": 101, "channel": 0}, {"type": "note_on", "time": 0, "note": 72, "velocity": 111, "channel": 0}, {"type": "note_off", "time": 114, "note": 72, "velocity": 111, "channel": 0}, {"type": "note_on", "time": 0, "note": 74, "velocity": 108, "channel": 0}, {"type": "note_off", "time": 198, "note": 74, "velocity": 108, "channel": 0}, {"type": "note_on", "time": 0, "note": 74, "velocity": 107, "channel": 0}, {"type": "note_off", "time": 76, "note": 74, "velocity": 107, "channel": 0}, {"type": "note_on", "time": 19, "note": 72, "velocity": 106, "channel": 0}, {"type": "note_off", "time": 97, "note": 72, "velocity": 106, "channel": 0}, {"type": "note_on", "time": 0, "note": 70, "velocity": 104, "channel": 0}, {"type": "note_off", "time": 90, "note": 70, "velocity": 104, "channel": 0}, {"type": "note_on", "time": 2, "note": 69, "velocity": 110, "channel": 0}, {"type": "note_off", "time": 87, "note": 69, "velocity": 110, "channel": 0}, {"type": "note_on", "time": 8, "note": 68, "velocity": 106, "channel": 0}, {"type": "note_off", "time": 67, "note": 68, "velocity": 106, "channel": 0}, {"type": "note_on", "time": 0, "note": 70, "velocity": 103, "channel": 0}, {"type": "note_off", "time": 88, "note": 70, "velocity": 103, "channel": 0}, {"type": "note_on", "time": 9, "note": 67, "velocity": 101, "channel": 0}, {"type": "note_off", "time": 156, "note": 67, "velocity": 101, "channel": 0}, {"type": "note_on", "time": 23, "note": 61, "velocity": 110, "channel": 0}, {"type": "note_off", "time": 73, "note": 61, "velocity": 110, "channel": 0}, {"type": "note_on", "time": 550, "note": 72, "velocity": 94, "channel": 0}, {"type": "note_off", "time": 160, "note": 72, "velocity": 94, "channel": 0}, {"type": "note_on", "time": 0, "note": 70, "velocity": 102, "channel": 0}, {"type": "note_off", "time": 104, "note": 70, "velocity": 102, "channel": 0}, {"type": "note_on", "time": 26, "note": 66, "velocity": 109, "channel": 0}, {"type": "note_off", "time": 94, "note": 66, "velocity": 109, "channel": 0}, {"type": "note_on", "time": 0, "note": 65, "velocity": 105, "channel": 0}, {"type": "note_off", "time": 98, "note": 65, "velocity": 105, "channel": 0}, {"type": "note_on", "time": 28, "note": 63, "velocity": 100, "channel": 0}, {"type": "note_off", "time": 66, "note": 63, "velocity": 100, "channel": 0}, {"type": "note_on", "time": 353, "note": 72, "velocity": 103, "channel": 0}, {"type": "note_off", "time": 163, "note": 72, "velocity": 103, "channel": 0}, {"type": "note_on", "time": 0, "note": 69, "velocity": 109, "channel": 0}, {"type": "note_off", "time": 114, "note": 69, "velocity": 109, "channel": 0}, {"type": "note_on", "time": 0, "note": 65, "velocity": 107, "channel": 0}, {"type": "note_off", "time": 62, "note": 65, "velocity": 107, "channel": 0}, {"type": "note_on", "time": 46, "note": 62, "velocity": 97, "channel": 0}, {"type": "note_off", "time": 63, "note": 62, "velocity": 97, "channel": 0}, {"type": "note_on", "time": 134, "note": 70, "velocity": 105, "channel": 0}, {"type": "note_off", "time": 71, "note": 70, "velocity": 105, "channel": 0}, {"type": "note_on", "time": 16, "note": 71, "velocity": 109, "channel": 0}, {"type": "note_off", "time": 85, "note": 71, "velocity": 109, "channel": 0}, {"type": "note_on", "time": 12, "note": 68, "velocity": 112, "channel": 0}, {"type": "note_off", "time": 88, "note": 68, "velocity": 112, "channel": 0}, {"type": "note_on", "time": 22, "note": 64, "velocity": 113, "channel": 0}, {"type": "note_off", "time": 71, "note": 64, "velocity": 113, "channel": 0}, {"type": "note_on", "time": 0, "note": 64, "velocity": 108, "channel": 0}, {"type": "note_off", "time": 32, "note": 64, "velocity": 108, "channel": 0}, {"type": "note_on", "time": 0, "note": 62, "velocity": 110, "channel": 0}, {"type": "note_off", "time": 65, "note": 62, "velocity": 110, "channel": 0}, {"type": "note_on", "time": 300, "note": 70, "velocity": 93, "channel": 0}, {"type": "note_off", "time": 85, "note": 70, "velocity": 93, "channel": 0}, {"type": "note_on", "time": 0, "note": 70, "velocity": 102, "channel": 0}, {"type": "note_on", "time": 78, "note": 67, "velocity": 106, "channel": 0}, {"type": "note_off", "time": 0, "note": 70, "velocity": 102, "channel": 0}, {"type": "note_off", "time": 114, "note": 67, "velocity": 106, "channel": 0}, {"type": "note_on", "time": 0, "note": 63, "velocity": 110, "channel": 0}, {"type": "note_off", "time": 91, "note": 63, "velocity": 110, "channel": 0}, {"type": "note_on", "time": 0, "note": 60, "velocity": 107, "channel": 0}, {"type": "note_off", "time": 75, "note": 60, "velocity": 107, "channel": 0}, {"type": "note_on", "time": 19, "note": 63, "velocity": 111, "channel": 0}, {"type": "note_off", "time": 71, "note": 63, "velocity": 111, "channel": 0}, {"type": "note_on", "time": 19, "note": 67, "velocity": 108, "channel": 0}, {"type": "note_off", "time": 94, "note": 67, "velocity": 108, "channel": 0}, {"type": "note_on", "time": 9, "note": 70, "velocity": 102, "channel": 0}, {"type": "note_off", "time": 75, "note": 70, "velocity": 102, "channel": 0}, {"type": "note_on", "time": 16, "note": 67, "velocity": 105, "channel": 0}, {"type": "note_off", "time": 88, "note": 67, "velocity": 105, "channel": 0}, {"type": "note_on", "time": 0, "note": 68, "velocity": 106, "channel": 0}, {"type": "note_off", "time": 94, "note": 68, "velocity": 106, "channel": 0}, {"type": "note_on", "time": 6, "note": 66, "velocity": 105, "channel": 0}, {"type": "note_off", "time": 85, "note": 66, "velocity": 105, "channel": 0}, {"type": "note_on", "time": 35, "note": 61, "velocity": 101, "channel": 0}, {"type": "note_off", "time": 68, "note": 61, "velocity": 101, "channel": 0}, {"type": "note_on", "time": 11, "note": 57, "velocity": 101, "channel": 0}, {"type": "note_off", "time": 92, "note": 57, "velocity": 101, "channel": 0}, {"type": "note_on", "time": 17, "note": 54, "velocity": 99, "channel": 0}, {"type": "note_off", "time": 75, "note": 54, "velocity": 99, "channel": 0}, {"type": "note_on", "time": 634, "note": 58, "velocity": 99, "channel": 0}, {"type": "note_off", "time": 81, "note": 58, "velocity": 99, "channel": 0}, {"type": "note_on", "time": 16, "note": 62, "velocity": 109, "channel": 0}, {"type": "note_off", "time": 75, "note": 62, "velocity": 109, "channel": 0}, {"type": "note_on", "time": 19, "note": 65, "velocity": 106, "channel": 0}, {"type": "note_on", "time": 104, "note": 69, "velocity": 104, "channel": 0}, {"type": "note_off", "time": 0, "note": 65, "velocity": 106, "channel": 0}, {"type": "note_off", "time": 88, "note": 69, "velocity": 104, "channel": 0}, {"type": "note_on", "time": 6, "note": 67, "velocity": 109, "channel": 0}, {"type": "note_off", "time": 88, "note": 67, "velocity": 109, "channel": 0}, {"type": "note_on", "time": 2, "note": 69, "velocity": 105, "channel": 0}, {"type": "note_off", "time": 98, "note": 69, "velocity": 105, "channel": 0}, {"type": "note_on", "time": 0, "note": 67, "velocity": 106, "channel": 0}, {"type": "note_off", "time": 94, "note": 67, "velocity": 106, "channel": 0}, {"type": "note_on", "time": 0, "note": 68, "velocity": 108, "channel": 0}, {"type": "note_off", "time": 94, "note": 68, "velocity": 108, "channel": 0}, {"type": "note_on", "time": 19, "note": 66, "velocity": 104, "channel": 0}, {"type": "note_off", "time": 62, "note": 66, "velocity": 104, "channel": 0}, {"type": "note_on", "time": 22, "note": 61, "velocity": 106, "channel": 0}, {"type": "note_on", "time": 74, "note": 61, "velocity": 102, "channel": 0}, {"type": "note_off", "time": 0, "note": 61, "velocity": 106, "channel": 0}, {"type": "note_off", "time": 13, "note": 61, "velocity": 102, "channel": 0}, {"type": "note_on", "time": 6, "note": 63, "velocity": 111, "channel": 0}, {"type": "note_off", "time": 78, "note": 63, "velocity": 111, "channel": 0}, {"type": "note_on", "time": 16, "note": 65, "velocity": 102, "channel": 0}, {"type": "note_off", "time": 90, "note": 65, "velocity": 102, "channel": 0}, {"type": "note_on", "time": 0, "note": 57, "velocity": 94, "channel": 0}, {"type": "note_off", "time": 85, "note": 57, "velocity": 94, "channel": 0}, {"type": "note_on", "time": 2, "note": 58, "velocity": 99, "channel": 0}, {"type": "note_on", "time": 122, "note": 62, "velocity": 107, "channel": 0}, {"type": "note_off", "time": 0, "note": 58, "velocity": 99, "channel": 0}, {"type": "note_off", "time": 84, "note": 62, "velocity": 107, "channel": 0}, {"type": "note_on", "time": 0, "note": 63, "velocity": 114, "channel": 0}, {"type": "note_off", "time": 107, "note": 63, "velocity": 114, "channel": 0}, {"type": "note_on", "time": 0, "note": 62, "velocity": 109, "channel": 0}, {"type": "note_off", "time": 62, "note": 62, "velocity": 109, "channel": 0}, {"type": "note_on", "time": 75, "note": 58, "velocity": 101, "channel": 0}, {"type": "note_off", "time": 60, "note": 58, "velocity": 101, "channel": 0}, {"type": "note_on", "time": 6, "note": 55, "velocity": 102, "channel": 0}, {"type": "note_off", "time": 69, "note": 55, "velocity": 102, "channel": 0}, {"type": "note_on", "time": 0, "note": 58, "velocity": 101, "channel": 0}, {"type": "note_off", "time": 120, "note": 58, "velocity": 101, "channel": 0}, {"type": "note_on", "time": 68, "note": 63, "velocity": 109, "channel": 0}, {"type": "note_off", "time": 264, "note": 63, "velocity": 109, "channel": 0}, {"type": "note_on", "time": 0, "note": 63, "velocity": 104, "channel": 0}, {"type": "note_off", "time": 104, "note": 63, "velocity": 104, "channel": 0}, {"type": "note_on", "time": 9, "note": 62, "velocity": 9, "channel": 0}, {"type": "note_off", "time": 111, "note": 62, "velocity": 9, "channel": 0}, {"type": "note_on", "time": 10, "note": 58, "velocity": 100, "channel": 0}, {"type": "note_off", "time": 66, "note": 58, "velocity": 100, "channel": 0}, {"type": "note_on", "time": 7, "note": 63, "velocity": 116, "channel": 0}, {"type": "note_off", "time": 117, "note": 63, "velocity": 116, "channel": 0}, {"type": "note_on", "time": 10, "note": 62, "velocity": 110, "channel": 0}, {"type": "note_off", "time": 58, "note": 62, "velocity": 110, "channel": 0}, {"type": "note_on", "time": 26, "note": 58, "velocity": 104, "channel": 0}, {"type": "note_off", "time": 107, "note": 58, "velocity": 104, "channel": 0}, {"type": "note_on", "time": 5, "note": 56, "velocity": 98, "channel": 0}, {"type": "note_off", "time": 62, "note": 56, "velocity": 98, "channel": 0}, {"type": "note_on", "time": 8, "note": 58, "velocity": 103, "channel": 0}, {"type": "note_off", "time": 137, "note": 58, "velocity": 103, "channel": 0}, {"type": "note_on", "time": 9, "note": 58, "velocity": 102, "channel": 0}, {"type": "note_off", "time": 58, "note": 58, "velocity": 102, "channel": 0}, {"type": "note_on", "time": 1363, "note": 58, "velocity": 105, "channel": 0}, {"type": "note_off", "time": 65, "note": 58, "velocity": 105, "channel": 0}, {"type": "note_on", "time": 6, "note": 61, "velocity": 115, "channel": 0}, {"type": "note_off", "time": 65, "note": 61, "velocity": 115, "channel": 0}, {"type": "note_on", "time": 0, "note": 63, "velocity": 110, "channel": 0}, {"type": "note_off", "time": 45, "note": 63, "velocity": 110, "channel": 0}, {"type": "note_on", "time": 0, "note": 65, "velocity": 107, "channel": 0}, {"type": "note_off", "time": 163, "note": 65, "velocity": 107, "channel": 0}, {"type": "note_on", "time": 0, "note": 64, "velocity": 105, "channel": 0}, {"type": "note_off", "time": 107, "note": 64, "velocity": 105, "channel": 0}, {"type": "note_on", "time": 3, "note": 61, "velocity": 105, "channel": 0}, {"type": "note_off", "time": 78, "note": 61, "velocity": 105, "channel": 0}, {"type": "note_on", "time": 0, "note": 58, "velocity": 98, "channel": 0}, {"type": "note_off", "time": 78, "note": 58, "velocity": 98, "channel": 0}, {"type": "note_on", "time": 0, "note": 58, "velocity": 112, "channel": 0}, {"type": "note_off", "time": 13, "note": 58, "velocity": 112, "channel": 0}, {"type": "note_on", "time": 0, "note": 64, "velocity": 114, "channel": 0}, {"type": "note_off", "time": 94, "note": 64, "velocity": 114, "channel": 0}, {"type": "note_on", "time": 31, "note": 65, "velocity": 110, "channel": 0}, {"type": "note_off", "time": 55, "note": 65, "velocity": 110, "channel": 0}, {"type": "note_on", "time": 12, "note": 64, "velocity": 107, "channel": 0}, {"type": "note_off", "time": 45, "note": 64, "velocity": 107, "channel": 0}, {"type": "note_on", "time": 0, "note": 61, "velocity": 109, "channel": 0}, {"type": "note_off", "time": 77, "note": 61, "velocity": 109, "channel": 0}, {"type": "note_on", "time": 0, "note": 58, "velocity": 100, "channel": 0}, {"type": "note_off", "time": 58, "note": 58, "velocity": 100, "channel": 0}, {"type": "note_on", "time": 409, "note": 53, "velocity": 112, "channel": 0}, {"type": "note_off", "time": 81, "note": 53, "velocity": 112, "channel": 0}, {"type": "note_on", "time": 23, "note": 56, "velocity": 109, "channel": 0}, {"type": "note_off", "time": 98, "note": 56, "velocity": 109, "channel": 0}, {"type": "note_on", "time": 16, "note": 59, "velocity": 101, "channel": 0}, {"type": "note_off", "time": 111, "note": 59, "velocity": 101, "channel": 0}, {"type": "note_on", "time": 55, "note": 60, "velocity": 102, "channel": 0}, {"type": "note_off", "time": 228, "note": 60, "velocity": 102, "channel": 0}, {"type": "note_on", "time": 19, "note": 60, "velocity": 104, "channel": 0}, {"type": "note_off", "time": 147, "note": 60, "velocity": 104, "channel": 0}, {"type": "note_on", "time": 18, "note": 60, "velocity": 102, "channel": 0}, {"type": "note_off", "time": 30, "note": 60, "velocity": 102, "channel": 0}, {"type": "note_on", "time": 25, "note": 58, "velocity": 102, "channel": 0}, {"type": "note_off", "time": 38, "note": 58, "velocity": 102, "channel": 0}, {"type": "note_on", "time": 3, "note": 57, "velocity": 106, "channel": 0}, {"type": "note_off", "time": 39, "note": 57, "velocity": 106, "channel": 0}, {"type": "note_on", "time": 0, "note": 55, "velocity": 110, "channel": 0}, {"type": "note_off", "time": 68, "note": 55, "velocity": 110, "channel": 0}, {"type": "note_on", "time": 0, "note": 53, "velocity": 105, "channel": 0}, {"type": "note_off", "time": 143, "note": 53, "velocity": 105, "channel": 0}, {"type": "note_on", "time": 601, "note": 55, "velocity": 114, "channel": 0}, {"type": "note_off", "time": 49, "note": 55, "velocity": 114, "channel": 0}, {"type": "note_on", "time": 10, "note": 59, "velocity": 102, "channel": 0}, {"type": "note_off", "time": 39, "note": 59, "velocity": 102, "channel": 0}, {"type": "note_on", "time": 3, "note": 63, "velocity": 98, "channel": 0}, {"type": "note_off", "time": 114, "note": 63, "velocity": 98, "channel": 0}, {"type": "note_on", "time": 6, "note": 65, "velocity": 107, "channel": 0}, {"type": "note_off", "time": 13, "note": 65, "velocity": 107, "channel": 0}, {"type": "note_on", "time": 6, "note": 67, "velocity": 104, "channel": 0}, {"type": "note_on", "time": 25, "note": 70, "velocity": 102, "channel": 0}, {"type": "note_off", "time": 0, "note": 67, "velocity": 104, "channel": 0}, {"type": "note_off", "time": 78, "note": 70, "velocity": 102, "channel": 0}, {"type": "note_on", "time": 0, "note": 69, "velocity": 101, "channel": 0}, {"type": "note_off", "time": 61, "note": 69, "velocity": 101, "channel": 0}, {"type": "note_on", "time": 0, "note": 67, "velocity": 107, "channel": 0}, {"type": "note_off", "time": 81, "note": 67, "velocity": 107, "channel": 0}, {"type": "note_on", "time": 0, "note": 69, "velocity": 106, "channel": 0}, {"type": "note_off", "time": 58, "note": 69, "velocity": 106, "channel": 0}, {"type": "note_on", "time": 6, "note": 66, "velocity": 101, "channel": 0}, {"type": "note_off", "time": 68, "note": 66, "velocity": 101, "channel": 0}, {"type": "note_on", "time": 0, "note": 67, "velocity": 109, "channel": 0}, {"type": "note_off", "time": 45, "note": 67, "velocity": 109, "channel": 0}, {"type": "note_on", "time": 16, "note": 63, "velocity": 104, "channel": 0}, {"type": "note_off", "time": 42, "note": 63, "velocity": 104, "channel": 0}, {"type": "note_on", "time": 12, "note": 61, "velocity": 109, "channel": 0}, {"type": "note_off", "time": 26, "note": 61, "velocity": 109, "channel": 0}, {"type": "note_on", "time": 13, "note": 62, "velocity": 102, "channel": 0}, {"type": "note_off", "time": 45, "note": 62, "velocity": 102, "channel": 0}, {"type": "note_on", "time": 12, "note": 65, "velocity": 104, "channel": 0}, {"type": "note_off", "time": 32, "note": 65, "velocity": 104, "channel": 0}, {"type": "note_on", "time": 7, "note": 64, "velocity": 111, "channel": 0}, {"type": "note_off", "time": 52, "note": 64, "velocity": 111, "channel": 0}, {"type": "note_on", "time": 6, "note": 63, "velocity": 108, "channel": 0}, {"type": "note_off", "time": 58, "note": 63, "velocity": 108, "channel": 0}, {"type": "note_on", "time": 0, "note": 62, "velocity": 100, "channel": 0}, {"type": "note_off", "time": 81, "note": 62, "velocity": 100, "channel": 0}, {"type": "note_on", "time": 3, "note": 65, "velocity": 104, "channel": 0}, {"type": "note_off", "time": 45, "note": 65, "velocity": 104, "channel": 0}, {"type": "note_on", "time": 19, "note": 60, "velocity": 103, "channel": 0}, {"type": "note_off", "time": 45, "note": 60, "velocity": 103, "channel": 0}, {"type": "note_on", "time": 5, "note": 57, "velocity": 105, "channel": 0}, {"type": "note_off", "time": 34, "note": 57, "velocity": 105, "channel": 0}, {"type": "note_on", "time": 6, "note": 58, "velocity": 93, "channel": 0}, {"type": "note_off", "time": 31, "note": 58, "velocity": 93, "channel": 0}, {"type": "note_on", "time": 19, "note": 61, "velocity": 99, "channel": 0}, {"type": "note_off", "time": 45, "note": 61, "velocity": 99, "channel": 0}, {"type": "note_on", "time": 0, "note": 62, "velocity": 96, "channel": 0}, {"type": "note_off", "time": 58, "note": 62, "velocity": 96, "channel": 0}, {"type": "note_on", "time": 0, "note": 67, "velocity": 111, "channel": 0}, {"type": "note_off", "time": 45, "note": 67, "velocity": 111, "channel": 0}, {"type": "note_on", "time": 22, "note": 66, "velocity": 104, "channel": 0}, {"type": "note_off", "time": 42, "note": 66, "velocity": 104, "channel": 0}, {"type": "note_on", "time": 17, "note": 65, "velocity": 106, "channel": 0}, {"type": "note_off", "time": 20, "note": 65, "velocity": 106, "channel": 0}, {"type": "note_on", "time": 1, "note": 63, "velocity": 111, "channel": 0}, {"type": "note_off", "time": 45, "note": 63, "velocity": 111, "channel": 0}, {"type": "note_on", "time": 0, "note": 62, "velocity": 105, "channel": 0}, {"type": "note_off", "time": 52, "note": 62, "velocity": 105, "channel": 0}, {"type": "note_on", "time": 16, "note": 59, "velocity": 103, "channel": 0}, {"type": "note_off", "time": 23, "note": 59, "velocity": 103, "channel": 0}, {"type": "note_on", "time": 0, "note": 55, "velocity": 102, "channel": 0}, {"type": "note_off", "time": 29, "note": 55, "velocity": 102, "channel": 0}, {"type": "note_on", "time": 6, "note": 52, "velocity": 96, "channel": 0}, {"type": "note_off", "time": 46, "note": 52, "velocity": 96, "channel": 0}, {"type": "note_on", "time": 0, "note": 60, "velocity": 107, "channel": 0}, {"type": "note_off", "time": 31, "note": 60, "velocity": 107, "channel": 0}, {"type": "note_on", "time": 0, "note": 59, "velocity": 106, "channel": 0}, {"type": "note_off", "time": 31, "note": 59, "velocity": 106, "channel": 0}, {"type": "note_on", "time": 52, "note": 60, "velocity": 103, "channel": 0}, {"type": "note_off", "time": 62, "note": 60, "velocity": 103, "channel": 0}, {"type": "note_on", "time": 42, "note": 63, "velocity": 109, "channel": 0}, {"type": "note_off", "time": 29, "note": 63, "velocity": 109, "channel": 0}, {"type": "note_on", "time": 0, "note": 62, "velocity": 105, "channel": 0}, {"type": "note_off", "time": 81, "note": 62, "velocity": 105, "channel": 0}, {"type": "note_on", "time": 10, "note": 60, "velocity": 105, "channel": 0}, {"type": "note_off", "time": 52, "note": 60, "velocity": 105, "channel": 0}, {"type": "note_on", "time": 2, "note": 59, "velocity": 94, "channel": 0}, {"type": "note_off", "time": 43, "note": 59, "velocity": 94, "channel": 0}, {"type": "note_on", "time": 0, "note": 58, "velocity": 98, "channel": 0}, {"type": "note_off", "time": 52, "note": 58, "velocity": 98, "channel": 0}, {"type": "note_on", "time": 2, "note": 57, "velocity": 117, "channel": 0}, {"type": "note_off", "time": 11, "note": 57, "velocity": 117, "channel": 0}, {"type": "note_on", "time": 21, "note": 55, "velocity": 104, "channel": 0}, {"type": "note_off", "time": 35, "note": 55, "velocity": 104, "channel": 0}, {"type": "note_on", "time": 3, "note": 56, "velocity": 102, "channel": 0}, {"type": "note_off", "time": 33, "note": 56, "velocity": 102, "channel": 0}, {"type": "note_on", "time": 6, "note": 57, "velocity": 106, "channel": 0}, {"type": "note_off", "time": 53, "note": 57, "velocity": 106, "channel": 0}, {"type": "note_on", "time": 0, "note": 54, "velocity": 106, "channel": 0}, {"type": "note_off", "time": 43, "note": 54, "velocity": 106, "channel": 0}, {"type": "note_on", "time": 0, "note": 55, "velocity": 106, "channel": 0}, {"type": "note_off", "time": 62, "note": 55, "velocity": 106, "channel": 0}, {"type": "note_on", "time": 0, "note": 51, "velocity": 99, "channel": 0}, {"type": "note_off", "time": 29, "note": 51, "velocity": 99, "channel": 0}, {"type": "note_on", "time": 16, "note": 50, "velocity": 91, "channel": 0}, {"type": "note_off", "time": 51, "note": 50, "velocity": 91, "channel": 0}, {"type": "end_of_track", "time": 0}]]}