{"ticks_per_beat": 840, "tracks": [[{"type": "track_name", "name": "Melody", "time": 0}, {"type": "set_tempo", "tempo": 526315, "time": 0}, {"type": "key_signature", "key": "Bb", "time": 0}, {"type": "time_signature", "numerator": 4, "denominator": 4, "clocks_per_click": 24, "notated_32nd_notes_per_beat": 8, "time": 0}, {"type": "note_on", "time": 12572, "note": 56, "velocity": 87, "channel": 0}, {"type": "note_off", "time": 208, "note": 56, "velocity": 87, "channel": 0}, {"type": "note_on", "time": 169, "note": 58, "velocity": 102, "channel": 0}, {"type": "note_off", "time": 7686, "note": 58, "velocity": 102, "channel": 0}, {"type": "note_on", "time": 312, "note": 65, "velocity": 109, "channel": 0}, {"type": "note_off", "time": 651, "note": 65, "velocity": 109, "channel": 0}, {"type": "note_on", "time": 2722, "note": 56, "velocity": 104, "channel": 0}, {"type": "note_off", "time": 221, "note": 56, "velocity": 104, "channel": 0}, {"type": "note_on", "time": 117, "note": 58, "velocity": 105, "channel": 0}, {"type": "note_off", "time": 4325, "note": 58, "velocity": 105, "channel": 0}, {"type": "note_on", "time": 121, "note": 53, "velocity": 102, "channel": 0}, {"type": "note_off", "time": 259, "note": 53, "velocity": 102, "channel": 0}, {"type": "note_on", "time": 37, "note": 55, "velocity": 96, "channel": 0}, {"type": "note_off", "time": 787, "note": 55, "velocity": 96, "channel": 0}, {"type": "note_on", "time": 2658, "note": 57, "velocity": 99, "channel": 0}, {"type": "note_off", "time": 148, "note": 57, "velocity": 99, "channel": 0}, {"type": "note_on", "time": 64, "note": 58, "velocity": 96, "channel": 0}, {"type": "note_off", "time": 83, "note": 58, "velocity": 96, "channel": 0}, {"type": "note_on", "time": 64, "note": 57, "velocity": 78, "channel": 0}, {"type": "note_off", "time": 101, "note": 57, "velocity": 78, "channel": 0}, {"type": "note_on", "time": 64, "note": 62, "velocity": 112, "channel": 0}, {"type": "note_off", "time": 342, "note": 62, "velocity": 112, "channel": 0}, {"type": "note_on", "time": 138, "note": 67, "velocity": 114, "channel": 0}, {"type": "note_off", "time": 342, "note": 67, "velocity": 114, "channel": 0}, {"type": "note_on", "time": 74, "note": 62, "velocity": 117, "channel": 0}, {"type": "note_off", "time": 342, "note": 62, "velocity": 117, "channel": 0}, {"type": "note_on", "time": 27, "note": 58, "velocity": 98, "channel": 0}, {"type": "note_off", "time": 101, "note": 58, "velocity": 98, "channel": 0}, {"type": "note_on", "time": 46, "note": 59, "velocity": 98, "channel": 0}, {"type": "note_off", "time": 74, "note": 59, "velocity": 98, "channel": 0}, {"type": "note_on", "time": 46, "note": 58, "velocity": 98, "channel": 0}, {"type": "note_off", "time": 111, "note": 58, "velocity": 98, "channel": 0}, {"type": "note_on", "time": 62, "note": 55, "velocity": 94, "channel": 0}, {"type": "note_off", "time": 149, "note": 55, "velocity": 94, "channel": 0}, {"type": "note_on", "time": 52, "note": 62, "velocity": 113, "channel": 0}, {"type": "note_off", "time": 657, "note": 62, "velocity": 113, "channel": 0}, {"type": "note_on", "time": 175, "note": 58, "velocity": 101, "channel": 0}, {"type": "note_off", "time": 442, "note": 58, "velocity": 101, "channel": 0}, {"type": "note_on", "time": 104, "note": 55, "velocity": 96, "channel": 0}, {"type": "note_off", "time": 371, "note": 55, "velocity": 96, "channel": 0}, {"type": "note_on", "time": 534, "note": 53, "velocity": 100, "channel": 0}, {"type": "note_off", "time": 710, "note": 53, "velocity": 100, "channel": 0}, {"type": "note_on", "time": 84, "note": 50, "velocity": 88, "channel": 0}, {"type": "note_off", "time": 143, "note": 50, "velocity": 88, "channel": 0}, {"type": "note_on", "time": 78, "note": 54, "velocity": 101, "channel": 0}, {"type": "note_off", "time": 1543, "note": 54, "velocity": 101, "channel": 0}, {"type": "note_on", "time": 2325, "note": 52, "velocity": 86, "channel": 0}, {"type": "note_off", "time": 149, "note": 52, "velocity": 86, "channel": 0}, {"type": "note_on", "time": 195, "note": 55, "velocity": 105, "channel": 0}, {"type": "note_off", "time": 462, "note": 55, "velocity": 105, "channel": 0}, {"type": "note_on", "time": 136, "note": 50, "velocity": 109, "channel": 0}, {"type": "note_off", "time": 547, "note": 50, "velocity": 109, "channel": 0}, {"type": "note_on", "time": 2963, "note": 58, "velocity": 116, "channel": 0}, {"type": "note_off", "time": 201, "note": 58, "velocity": 116, "channel": 0}, {"type": "note_on", "time": 58, "note": 61, "velocity": 104, "channel": 0}, {"type": "note_off", "time": 110, "note": 61, "velocity": 104, "channel": 0}, {"type": "note_on", "time": 58, "note": 62, "velocity": 115, "channel": 0}, {"type": "note_off", "time": 169, "note": 62, "velocity": 115, "channel": 0}, {"type": "note_on", "time": 78, "note": 67, "velocity": 113, "channel": 0}, {"type": "note_off", "time": 247, "note": 67, "velocity": 113, "channel": 0}, {"type": "note_on", "time": 104, "note": 61, "velocity": 103, "channel": 0}, {"type": "note_off", "time": 1166, "note": 61, "velocity": 103, "channel": 0}, {"type": "note_on", "time": 514, "note": 67, "velocity": 109, "channel": 0}, {"type": "note_off", "time": 449, "note": 67, "velocity": 109, "channel": 0}, {"type": "note_on", "time": 214, "note": 61, "velocity": 99, "channel": 0}, {"type": "note_off", "time": 670, "note": 61, "velocity": 99, "channel": 0}, {"type": "note_on", "time": 2547, "note": 53, "velocity": 108, "channel": 0}, {"type": "note_off", "time": 267, "note": 53, "velocity": 108, "channel": 0}, {"type": "note_on", "time": 58, "note": 56, "velocity": 102, "channel": 0}, {"type": "note_off", "time": 358, "note": 56, "velocity": 102, "channel": 0}, {"type": "note_on", "time": 110, "note": 60, "velocity": 108, "channel": 0}, {"type": "note_off", "time": 416, "note": 60, "velocity": 108, "channel": 0}, {"type": "note_on", "time": 123, "note": 56, "velocity": 93, "channel": 0}, {"type": "note_off", "time": 1302, "note": 56, "velocity": 93, "channel": 0}, {"type": "note_on", "time": 110, "note": 53, "velocity": 109, "channel": 0}, {"type": "note_off", "time": 267, "note": 53, "velocity": 109, "channel": 0}, {"type": "note_on", "time": 384, "note": 60, "velocity": 112, "channel": 0}, {"type": "note_off", "time": 410, "note": 60, "velocity": 112, "channel": 0}, {"type": "note_on", "time": 91, "note": 56, "velocity": 93, "channel": 0}, {"type": "note_off", "time": 1042, "note": 56, "velocity": 93, "channel": 0}, {"type": "note_on", "time": 4742, "note": 56, "velocity": 87, "channel": 0}, {"type": "note_off", "time": 97, "note": 56, "velocity": 87, "channel": 0}, {"type": "note_on", "time": 78, "note": 60, "velocity": 115, "channel": 0}, {"type": "note_off", "time": 188, "note": 60, "velocity": 115, "channel": 0}, {"type": "note_on", "time": 32, "note": 61, "velocity": 112, "channel": 0}, {"type": "note_off", "time": 91, "note": 61, "velocity": 112, "channel": 0}, {"type": "note_on", "time": 65, "note": 63, "velocity": 119, "channel": 0}, {"type": "note_off", "time": 221, "note": 63, "velocity": 119, "channel": 0}, {"type": "note_on", "time": 71, "note": 65, "velocity": 110, "channel": 0}, {"type": "note_off", "time": 97, "note": 65, "velocity": 110, "channel": 0}, {"type": "note_on", "time": 84, "note": 67, "velocity": 107, "channel": 0}, {"type": "note_off", "time": 175, "note": 67, "velocity": 107, "channel": 0}, {"type": "note_on", "time": 52, "note": 69, "velocity": 93, "channel": 0}, {"type": "note_off", "time": 130, "note": 69, "velocity": 93, "channel": 0}, {"type": "note_on", "time": 123, "note": 70, "velocity": 87, "channel": 0}, {"type": "note_off", "time": 97, "note": 70, "velocity": 87, "channel": 0}, {"type": "note_on", "time": 65, "note": 72, "velocity": 116, "channel": 0}, {"type": "note_off", "time": 221, "note": 72, "velocity": 116, "channel": 0}, {"type": "note_on", "time": 26, "note": 69, "velocity": 95, "channel": 0}, {"type": "note_off", "time": 123, "note": 69, "velocity": 95, "channel": 0}, {"type": "note_on", "time": 39, "note": 70, "velocity": 109, "channel": 0}, {"type": "note_off", "time": 241, "note": 70, "velocity": 109, "channel": 0}, {"type": "note_on", "time": 78, "note": 72, "velocity": 103, "channel": 0}, {"type": "note_off", "time": 208, "note": 72, "velocity": 103, "channel": 0}, {"type": "note_on", "time": 39, "note": 73, "velocity": 115, "channel": 0}, {"type": "note_off", "time": 312, "note": 73, "velocity": 115, "channel": 0}, {"type": "note_on", "time": 84, "note": 69, "velocity": 97, "channel": 0}, {"type": "note_off", "time": 488, "note": 69, "velocity": 97, "channel": 0}, {"type": "note_on", "time": 162, "note": 65, "velocity": 113, "channel": 0}, {"type": "note_off", "time": 234, "note": 65, "velocity": 113, "channel": 0}, {"type": "note_on", "time": 58, "note": 61, "velocity": 106, "channel": 0}, {"type": "note_off", "time": 201, "note": 61, "velocity": 106, "channel": 0}, {"type": "note_on", "time": 78, "note": 57, "velocity": 102, "channel": 0}, {"type": "note_off", "time": 195, "note": 57, "velocity": 102, "channel": 0}, {"type": "note_on", "time": 91, "note": 53, "velocity": 99, "channel": 0}, {"type": "note_off", "time": 286, "note": 53, "velocity": 99, "channel": 0}, {"type": "note_on", "time": 1674, "note": 55, "velocity": 103, "channel": 0}, {"type": "note_off", "time": 254, "note": 55, "velocity": 103, "channel": 0}, {"type": "note_on", "time": 97, "note": 52, "velocity": 102, "channel": 0}, {"type": "note_off", "time": 208, "note": 52, "velocity": 102, "channel": 0}, {"type": "note_on", "time": 45, "note": 53, "velocity": 105, "channel": 0}, {"type": "note_off", "time": 234, "note": 53, "velocity": 105, "channel": 0}, {"type": "note_on", "time": 91, "note": 55, "velocity": 100, "channel": 0}, {"type": "note_off", "time": 84, "note": 55, "velocity": 100, "channel": 0}, {"type": "note_on", "time": 39, "note": 56, "velocity": 108, "channel": 0}, {"type": "note_off", "time": 423, "note": 56, "velocity": 108, "channel": 0}, {"type": "note_on", "time": 156, "note": 52, "velocity": 98, "channel": 0}, {"type": "note_off", "time": 377, "note": 52, "velocity": 98, "channel": 0}, {"type": "note_on", "time": 956, "note": 50, "velocity": 87, "channel": 0}, {"type": "note_off", "time": 111, "note": 50, "velocity": 87, "channel": 0}, {"type": "note_on", "time": 18, "note": 52, "velocity": 88, "channel": 0}, {"type": "note_off", "time": 143, "note": 52, "velocity": 88, "channel": 0}, {"type": "note_on", "time": 69, "note": 53, "velocity": 104, "channel": 0}, {"type": "note_off", "time": 379, "note": 53, "velocity": 104, "channel": 0}, {"type": "note_on", "time": 151, "note": 51, "velocity": 89, "channel": 0}, {"type": "note_off", "time": 84, "note": 51, "velocity": 89, "channel": 0}, {"type": "note_on", "time": 78, "note": 53, "velocity": 107, "channel": 0}, {"type": "note_off", "time": 203, "note": 53, "velocity": 107, "channel": 0}, {"type": "note_on", "time": 102, "note": 57, "velocity": 100, "channel": 0}, {"type": "note_off", "time": 247, "note": 57, "velocity": 100, "channel": 0}, {"type": "note_on", "time": 19, "note": 62, "velocity": 117, "channel": 0}, {"type": "note_off", "time": 254, "note": 62, "velocity": 117, "channel": 0}, {"type": "note_on", "time": 26, "note": 59, "velocity": 95, "channel": 0}, {"type": "note_off", "time": 136, "note": 59, "velocity": 95, "channel": 0}, {"type": "note_on", "time": 32, "note": 60, "velocity": 106, "channel": 0}, {"type": "note_off", "time": 241, "note": 60, "velocity": 106, "channel": 0}, {"type": "note_on", "time": 32, "note": 62, "velocity": 103, "channel": 0}, {"type": "note_off", "time": 78, "note": 62, "velocity": 103, "channel": 0}, {"type": "note_on", "time": 52, "note": 63, "velocity": 122, "channel": 0}, {"type": "note_off", "time": 397, "note": 63, "velocity": 122, "channel": 0}, {"type": "note_on", "time": 91, "note": 59, "velocity": 99, "channel": 0}, {"type": "note_off", "time": 449, "note": 59, "velocity": 99, "channel": 0}, {"type": "note_on", "time": 4612, "note": 53, "velocity": 104, "channel": 0}, {"type": "note_off", "time": 332, "note": 53, "velocity": 104, "channel": 0}, {"type": "note_on", "time": 71, "note": 56, "velocity": 110, "channel": 0}, {"type": "note_off", "time": 436, "note": 56, "velocity": 110, "channel": 0}, {"type": "note_on", "time": 149, "note": 52, "velocity": 92, "channel": 0}, {"type": "note_off", "time": 1810, "note": 52, "velocity": 92, "channel": 0}, {"type": "note_on", "time": 5367, "note": 65, "velocity": 103, "channel": 0}, {"type": "note_off", "time": 247, "note": 65, "velocity": 103, "channel": 0}, {"type": "note_on", "time": 91, "note": 67, "velocity": 108, "channel": 0}, {"type": "note_off", "time": 182, "note": 67, "velocity": 108, "channel": 0}, {"type": "note_on", "time": 52, "note": 68, "velocity": 111, "channel": 0}, {"type": "note_off", "time": 338, "note": 68, "velocity": 111, "channel": 0}, {"type": "note_on", "time": 78, "note": 65, "velocity": 104, "channel": 0}, {"type": "note_off", "time": 254, "note": 65, "velocity": 104, "channel": 0}, {"type": "note_on", "time": 2306, "note": 57, "velocity": 107, "channel": 0}, {"type": "note_off", "time": 273, "note": 57, "velocity": 107, "channel": 0}, {"type": "note_on", "time": 58, "note": 58, "velocity": 9, "channel": 0}, {"type": "note_off", "time": 4305, "note": 58, "velocity": 9, "channel": 0}, {"type": "note_on", "time": 2814, "note": 56, "velocity": 107, "channel": 0}, {"type": "note_off", "time": 162, "note": 56, "velocity": 107, "channel": 0}, {"type": "note_on", "time": 71, "note": 58, "velocity": 100, "channel": 0}, {"type": "note_off", "time": 117, "note": 58, "velocity": 100, "channel": 0}, {"type": "note_on", "time": 45, "note": 59, "velocity": 100, "channel": 0}, {"type": "note_off", "time": 136, "note": 59, "velocity": 100, "channel": 0}, {"type": "note_on", "time": 65, "note": 62, "velocity": 108, "channel": 0}, {"type": "note_off", "time": 156, "note": 62, "velocity": 108, "channel": 0}, {"type": "note_on", "time": 52, "note": 65, "velocity": 110, "channel": 0}, {"type": "note_off", "time": 254, "note": 65, "velocity": 110, "channel": 0}, {"type": "note_on", "time": 32, "note": 66, "velocity": 101, "channel": 0}, {"type": "note_off", "time": 104, "note": 66, "velocity": 101, "channel": 0}, {"type": "note_on", "time": 58, "note": 62, "velocity": 108, "channel": 0}, {"type": "note_off", "time": 162, "note": 62, "velocity": 108, "channel": 0}, {"type": "note_on", "time": 45, "note": 59, "velocity": 92, "channel": 0}, {"type": "note_off", "time": 136, "note": 59, "velocity": 92, "channel": 0}, {"type": "note_on", "time": 52, "note": 58, "velocity": 94, "channel": 0}, {"type": "note_off", "time": 221, "note": 58, "velocity": 94, "channel": 0}, {"type": "note_on", "time": 39, "note": 56, "velocity": 105, "channel": 0}, {"type": "note_off", "time": 201, "note": 56, "velocity": 105, "channel": 0}, {"type": "note_on", "time": 65, "note": 55, "velocity": 93, "channel": 0}, {"type": "note_off", "time": 136, "note": 55, "velocity": 93, "channel": 0}, {"type": "note_on", "time": 3876, "note": 69, "velocity": 106, "channel": 0}, {"type": "note_off", "time": 195, "note": 69, "velocity": 106, "channel": 0}, {"type": "note_on", "time": 50, "note": 65, "velocity": 110, "channel": 0}, {"type": "note_off", "time": 143, "note": 65, "velocity": 110, "channel": 0}, {"type": "note_on", "time": 41, "note": 67, "velocity": 112, "channel": 0}, {"type": "note_off", "time": 203, "note": 67, "velocity": 112, "channel": 0}, {"type": "note_on", "time": 37, "note": 69, "velocity": 109, "channel": 0}, {"type": "note_off", "time": 157, "note": 69, "velocity": 109, "channel": 0}, {"type": "note_on", "time": 69, "note": 65, "velocity": 108, "channel": 0}, {"type": "note_off", "time": 162, "note": 65, "velocity": 108, "channel": 0}, {"type": "note_on", "time": 50, "note": 61, "velocity": 103, "channel": 0}, {"type": "note_off", "time": 180, "note": 61, "velocity": 103, "channel": 0}, {"type": "note_on", "time": 60, "note": 57, "velocity": 97, "channel": 0}, {"type": "note_off", "time": 162, "note": 57, "velocity": 97, "channel": 0}, {"type": "note_on", "time": 60, "note": 53, "velocity": 91, "channel": 0}, {"type": "note_off", "time": 101, "note": 53, "velocity": 91, "channel": 0}, {"type": "note_on", "time": 2455, "note": 67, "velocity": 112, "channel": 0}, {"type": "note_off", "time": 148, "note": 67, "velocity": 112, "channel": 0}, {"type": "note_on", "time": 18, "note": 69, "velocity": 98, "channel": 0}, {"type": "note_off", "time": 55, "note": 69, "velocity": 98, "channel": 0}, {"type": "note_on", "time": 32, "note": 68, "velocity": 108, "channel": 0}, {"type": "note_off", "time": 134, "note": 68, "velocity": 108, "channel": 0}, {"type": "note_on", "time": 69, "note": 64, "velocity": 109, "channel": 0}, {"type": "note_off", "time": 1306, "note": 64, "velocity": 109, "channel": 0}, {"type": "note_on", "time": 64, "note": 67, "velocity": 106, "channel": 0}, {"type": "note_off", "time": 277, "note": 67, "velocity": 106, "channel": 0}, {"type": "note_on", "time": 55, "note": 65, "velocity": 106, "channel": 0}, {"type": "note_off", "time": 254, "note": 65, "velocity": 106, "channel": 0}, {"type": "note_on", "time": 291, "note": 57, "velocity": 101, "channel": 0}, {"type": "note_off", "time": 185, "note": 57, "velocity": 101, "channel": 0}, {"type": "note_on", "time": 78, "note": 58, "velocity": 98, "channel": 0}, {"type": "note_off", "time": 189, "note": 58, "velocity": 98, "channel": 0}, {"type": "note_on", "time": 50, "note": 63, "velocity": 111, "channel": 0}, {"type": "note_off", "time": 301, "note": 63, "velocity": 111, "channel": 0}, {"type": "note_on", "time": 88, "note": 61, "velocity": 103, "channel": 0}, {"type": "note_off", "time": 157, "note": 61, "velocity": 103, "channel": 0}, {"type": "note_on", "time": 18, "note": 62, "velocity": 114, "channel": 0}, {"type": "note_off", "time": 129, "note": 62, "velocity": 114, "channel": 0}, {"type": "note_on", "time": 27, "note": 63, "velocity": 100, "channel": 0}, {"type": "note_off", "time": 180, "note": 63, "velocity": 100, "channel": 0}, {"type": "note_on", "time": 50, "note": 58, "velocity": 98, "channel": 0}, {"type": "note_off", "time": 296, "note": 58, "velocity": 98, "channel": 0}, {"type": "note_on", "time": 148, "note": 53, "velocity": 104, "channel": 0}, {"type": "note_off", "time": 352, "note": 53, "velocity": 104, "channel": 0}, {"type": "note_on", "time": 745, "note": 52, "velocity": 103, "channel": 0}, {"type": "note_off", "time": 222, "note": 52, "velocity": 103, "channel": 0}, {"type": "note_on", "time": 55, "note": 51, "velocity": 95, "channel": 0}, {"type": "note_off", "time": 1000, "note": 51, "velocity": 95, "channel": 0}, {"type": "note_on", "time": 129, "note": 55, "velocity": 89, "channel": 0}, {"type": "note_off", "time": 157, "note": 55, "velocity": 89, "channel": 0}, {"type": "note_on", "time": 74, "note": 58, "velocity": 97, "channel": 0}, {"type": "note_off", "time": 189, "note": 58, "velocity": 97, "channel": 0}, {"type": "note_on", "time": 88, "note": 61, "velocity": 105, "channel": 0}, {"type": "note_off", "time": 106, "note": 61, "velocity": 105, "channel": 0}, {"type": "note_on", "time": 18, "note": 62, "velocity": 111, "channel": 0}, {"type": "note_off", "time": 421, "note": 62, "velocity": 111, "channel": 0}, {"type": "note_on", "time": 92, "note": 58, "velocity": 99, "channel": 0}, {"type": "note_off", "time": 259, "note": 58, "velocity": 99, "channel": 0}, {"type": "note_on", "time": 1366, "note": 53, "velocity": 102, "channel": 0}, {"type": "note_off", "time": 268, "note": 53, "velocity": 102, "channel": 0}, {"type": "note_on", "time": 46, "note": 51, "velocity": 94, "channel": 0}, {"type": "note_off", "time": 667, "note": 51, "velocity": 94, "channel": 0}, {"type": "note_on", "time": 50, "note": 53, "velocity": 105, "channel": 0}, {"type": "note_off", "time": 231, "note": 53, "velocity": 105, "channel": 0}, {"type": "note_on", "time": 551, "note": 51, "velocity": 105, "channel": 0}, {"type": "note_off", "time": 282, "note": 51, "velocity": 105, "channel": 0}, {"type": "note_on", "time": 41, "note": 50, "velocity": 94, "channel": 0}, {"type": "note_off", "time": 1380, "note": 50, "velocity": 94, "channel": 0}, {"type": "note_on", "time": 5239, "note": 60, "velocity": 103, "channel": 0}, {"type": "note_off", "time": 134, "note": 60, "velocity": 103, "channel": 0}, {"type": "note_on", "time": 23, "note": 62, "velocity": 101, "channel": 0}, {"type": "note_off", "time": 389, "note": 62, "velocity": 101, "channel": 0}, {"type": "note_on", "time": 393, "note": 57, "velocity": 98, "channel": 0}, {"type": "note_off", "time": 222, "note": 57, "velocity": 98, "channel": 0}, {"type": "note_on", "time": 55, "note": 58, "velocity": 96, "channel": 0}, {"type": "note_off", "time": 509, "note": 58, "velocity": 96, "channel": 0}, {"type": "note_on", "time": 495, "note": 53, "velocity": 107, "channel": 0}, {"type": "note_off", "time": 430, "note": 53, "velocity": 107, "channel": 0}, {"type": "note_on", "time": 166, "note": 51, "velocity": 95, "channel": 0}, {"type": "note_off", "time": 407, "note": 51, "velocity": 95, "channel": 0}, {"type": "note_on", "time": 176, "note": 51, "velocity": 89, "channel": 0}, {"type": "note_off", "time": 815, "note": 51, "velocity": 89, "channel": 0}, {"type": "note_on", "time": 3339, "note": 53, "velocity": 98, "channel": 0}, {"type": "note_off", "time": 217, "note": 53, "velocity": 98, "channel": 0}, {"type": "note_on", "time": 27, "note": 55, "velocity": 91, "channel": 0}, {"type": "note_off", "time": 138, "note": 55, "velocity": 91, "channel": 0}, {"type": "note_on", "time": 64, "note": 58, "velocity": 99, "channel": 0}, {"type": "note_off", "time": 129, "note": 58, "velocity": 99, "channel": 0}, {"type": "note_on", "time": 78, "note": 62, "velocity": 105, "channel": 0}, {"type": "note_off", "time": 171, "note": 62, "velocity": 105, "channel": 0}, {"type": "note_on", "time": 27, "note": 63, "velocity": 117, "channel": 0}, {"type": "note_off", "time": 148, "note": 63, "velocity": 117, "channel": 0}, {"type": "note_on", "time": 46, "note": 62, "velocity": 113, "channel": 0}, {"type": "note_off", "time": 148, "note": 62, "velocity": 113, "channel": 0}, {"type": "note_on", "time": 97, "note": 58, "velocity": 97, "channel": 0}, {"type": "note_off", "time": 148, "note": 58, "velocity": 97, "channel": 0}, {"type": "note_on", "time": 50, "note": 55, "velocity": 92, "channel": 0}, {"type": "note_off", "time": 125, "note": 55, "velocity": 92, "channel": 0}, {"type": "note_on", "time": 27, "note": 56, "velocity": 107, "channel": 0}, {"type": "note_off", "time": 194, "note": 56, "velocity": 107, "channel": 0}, {"type": "note_on", "time": 41, "note": 55, "velocity": 95, "channel": 0}, {"type": "note_off", "time": 162, "note": 55, "velocity": 95, "channel": 0}, {"type": "note_on", "time": 74, "note": 53, "velocity": 99, "channel": 0}, {"type": "note_off", "time": 171, "note": 53, "velocity": 99, "channel": 0}, {"type": "note_on", "time": 37, "note": 52, "velocity": 98, "channel": 0}, {"type": "note_off", "time": 176, "note": 52, "velocity": 98, "channel": 0}, {"type": "note_on", "time": 46, "note": 55, "velocity": 98, "channel": 0}, {"type": "note_off", "time": 166, "note": 55, "velocity": 98, "channel": 0}, {"type": "note_on", "time": 268, "note": 53, "velocity": 104, "channel": 0}, {"type": "note_off", "time": 171, "note": 53, "velocity": 104, "channel": 0}, {"type": "note_on", "time": 37, "note": 51, "velocity": 90, "channel": 0}, {"type": "note_off", "time": 125, "note": 51, "velocity": 90, "channel": 0}, {"type": "note_on", "time": 23, "note": 50, "velocity": 92, "channel": 0}, {"type": "note_off", "time": 185, "note": 50, "velocity": 92, "channel": 0}, {"type": "note_on", "time": 50, "note": 53, "velocity": 101, "channel": 0}, {"type": "note_off", "time": 185, "note": 53, "velocity": 101, "channel": 0}, {"type": "note_on", "time": 46, "note": 56, "velocity": 101, "channel": 0}, {"type": "note_off", "time": 203, "note": 56, "velocity": 101, "channel": 0}, {"type": "note_on", "time": 37, "note": 59, "velocity": 96, "channel": 0}, {"type": "note_off", "time": 101, "note": 59, "velocity": 96, "channel": 0}, {"type": "note_on", "time": 69, "note": 58, "velocity": 96, "channel": 0}, {"type": "note_off", "time": 203, "note": 58, "velocity": 96, "channel": 0}, {"type": "note_on", "time": 50, "note": 55, "velocity": 96, "channel": 0}, {"type": "note_off", "time": 64, "note": 55, "velocity": 96, "channel": 0}, {"type": "note_on", "time": 27, "note": 56, "velocity": 104, "channel": 0}, {"type": "note_off", "time": 240, "note": 56, "velocity": 104, "channel": 0}, {"type": "note_on", "time": 74, "note": 54, "velocity": 100, "channel": 0}, {"type": "note_off", "time": 120, "note": 54, "velocity": 100, "channel": 0}, {"type": "note_on", "time": 23, "note": 55, "velocity": 98, "channel": 0}, {"type": "note_off", "time": 176, "note": 55, "velocity": 98, "channel": 0}, {"type": "note_on", "time": 37, "note": 58, "velocity": 98, "channel": 0}, {"type": "note_off", "time": 166, "note": 58, "velocity": 98, "channel": 0}, {"type": "note_on", "time": 74, "note": 53, "velocity": 100, "channel": 0}, {"type": "note_off", "time": 185, "note": 53, "velocity": 100, "channel": 0}, {"type": "note_on", "time": 50, "note": 49, "velocity": 93, "channel": 0}, {"type": "note_off", "time": 125, "note": 49, "velocity": 93, "channel": 0}, {"type": "note_on", "time": 27, "note": 51, "velocity": 97, "channel": 0}, {"type": "note_off", "time": 250, "note": 51, "velocity": 97, "channel": 0}, {"type": "note_on", "time": 2895, "note": 58, "velocity": 107, "channel": 0}, {"type": "note_off", "time": 143, "note": 58, "velocity": 107, "channel": 0}, {"type": "note_on", "time": 37, "note": 63, "velocity": 127, "channel": 0}, {"type": "note_off", "time": 180, "note": 63, "velocity": 127, "channel": 0}, {"type": "note_on", "time": 37, "note": 65, "velocity": 109, "channel": 0}, {"type": "note_off", "time": 143, "note": 65, "velocity": 109, "channel": 0}, {"type": "note_on", "time": 69, "note": 64, "velocity": 121, "channel": 0}, {"type": "note_off", "time": 92, "note": 64, "velocity": 121, "channel": 0}, {"type": "note_on", "time": 18, "note": 65, "velocity": 112, "channel": 0}, {"type": "note_off", "time": 74, "note": 65, "velocity": 112, "channel": 0}, {"type": "note_on", "time": 18, "note": 63, "velocity": 113, "channel": 0}, {"type": "note_off", "time": 134, "note": 63, "velocity": 113, "channel": 0}, {"type": "note_on", "time": 37, "note": 61, "velocity": 99, "channel": 0}, {"type": "note_off", "time": 106, "note": 61, "velocity": 99, "channel": 0}, {"type": "note_on", "time": 32, "note": 58, "velocity": 94, "channel": 0}, {"type": "note_off", "time": 143, "note": 58, "velocity": 94, "channel": 0}, {"type": "note_on", "time": 18, "note": 63, "velocity": 120, "channel": 0}, {"type": "note_off", "time": 199, "note": 63, "velocity": 120, "channel": 0}, {"type": "note_on", "time": 37, "note": 65, "velocity": 105, "channel": 0}, {"type": "note_off", "time": 240, "note": 65, "velocity": 105, "channel": 0}, {"type": "note_on", "time": 23, "note": 64, "velocity": 116, "channel": 0}, {"type": "note_off", "time": 83, "note": 64, "velocity": 116, "channel": 0}, {"type": "note_on", "time": 9, "note": 65, "velocity": 109, "channel": 0}, {"type": "note_off", "time": 125, "note": 65, "velocity": 109, "channel": 0}, {"type": "note_on", "time": 0, "note": 61, "velocity": 105, "channel": 0}, {"type": "note_off", "time": 143, "note": 61, "velocity": 105, "channel": 0}, {"type": "note_on", "time": 27, "note": 58, "velocity": 99, "channel": 0}, {"type": "note_off", "time": 125, "note": 58, "velocity": 99, "channel": 0}, {"type": "note_on", "time": 50, "note": 63, "velocity": 122, "channel": 0}, {"type": "note_off", "time": 166, "note": 63, "velocity": 122, "channel": 0}, {"type": "note_on", "time": 46, "note": 65, "velocity": 104, "channel": 0}, {"type": "note_off", "time": 245, "note": 65, "velocity": 104, "channel": 0}, {"type": "note_on", "time": 41, "note": 64, "velocity": 118, "channel": 0}, {"type": "note_off", "time": 92, "note": 64, "velocity": 118, "channel": 0}, {"type": "note_on", "time": 0, "note": 65, "velocity": 108, "channel": 0}, {"type": "note_off", "time": 83, "note": 65, "velocity": 108, "channel": 0}, {"type": "note_on", "time": 32, "note": 61, "velocity": 101, "channel": 0}, {"type": "note_off", "time": 120, "note": 61, "velocity": 101, "channel": 0}, {"type": "note_on", "time": 69, "note": 58, "velocity": 92, "channel": 0}, {"type": "note_off", "time": 152, "note": 58, "velocity": 92, "channel": 0}, {"type": "note_on", "time": 176, "note": 59, "velocity": 100, "channel": 0}, {"type": "note_off", "time": 92, "note": 59, "velocity": 100, "channel": 0}, {"type": "note_on", "time": 9, "note": 60, "velocity": 96, "channel": 0}, {"type": "note_off", "time": 356, "note": 60, "velocity": 96, "channel": 0}, {"type": "note_on", "time": 27, "note": 59, "velocity": 98, "channel": 0}, {"type": "note_off", "time": 111, "note": 59, "velocity": 98, "channel": 0}, {"type": "note_on", "time": 37, "note": 58, "velocity": 101, "channel": 0}, {"type": "note_off", "time": 92, "note": 58, "velocity": 101, "channel": 0}, {"type": "note_on", "time": 0, "note": 57, "velocity": 100, "channel": 0}, {"type": "note_off", "time": 101, "note": 57, "velocity": 100, "channel": 0}, {"type": "note_on", "time": 37, "note": 56, "velocity": 101, "channel": 0}, {"type": "note_off", "time": 101, "note": 56, "velocity": 101, "channel": 0}, {"type": "note_on", "time": 27, "note": 53, "velocity": 84, "channel": 0}, {"type": "note_off", "time": 92, "note": 53, "velocity": 84, "channel": 0}, {"type": "note_on", "time": 27, "note": 59, "velocity": 95, "channel": 0}, {"type": "note_off", "time": 115, "note": 59, "velocity": 95, "channel": 0}, {"type": "note_on", "time": 32, "note": 60, "velocity": 98, "channel": 0}, {"type": "note_off", "time": 240, "note": 60, "velocity": 98, "channel": 0}, {"type": "note_on", "time": 37, "note": 59, "velocity": 104, "channel": 0}, {"type": "note_off", "time": 101, "note": 59, "velocity": 104, "channel": 0}, {"type": "note_on", "time": 9, "note": 60, "velocity": 101, "channel": 0}, {"type": "note_off", "time": 129, "note": 60, "velocity": 101, "channel": 0}, {"type": "note_on", "time": 27, "note": 59, "velocity": 105, "channel": 0}, {"type": "note_off", "time": 74, "note": 59, "velocity": 105, "channel": 0}, {"type": "note_on", "time": 37, "note": 58, "velocity": 104, "channel": 0}, {"type": "note_off", "time": 111, "note": 58, "velocity": 104, "channel": 0}, {"type": "note_on", "time": 27, "note": 57, "velocity": 108, "channel": 0}, {"type": "note_off", "time": 92, "note": 57, "velocity": 108, "channel": 0}, {"type": "note_on", "time": 9, "note": 56, "velocity": 98, "channel": 0}, {"type": "note_off", "time": 111, "note": 56, "velocity": 98, "channel": 0}, {"type": "note_on", "time": 55, "note": 53, "velocity": 107, "channel": 0}, {"type": "note_off", "time": 143, "note": 53, "velocity": 107, "channel": 0}, {"type": "note_on", "time": 2418, "note": 67, "velocity": 100, "channel": 0}, {"type": "note_off", "time": 301, "note": 67, "velocity": 100, "channel": 0}, {"type": "note_on", "time": 78, "note": 61, "velocity": 108, "channel": 0}, {"type": "note_off", "time": 157, "note": 61, "velocity": 108, "channel": 0}, {"type": "note_on", "time": 27, "note": 62, "velocity": 114, "channel": 0}, {"type": "note_off", "time": 185, "note": 62, "velocity": 114, "channel": 0}, {"type": "note_on", "time": 50, "note": 65, "velocity": 111, "channel": 0}, {"type": "note_off", "time": 180, "note": 65, "velocity": 111, "channel": 0}, {"type": "note_on", "time": 37, "note": 62, "velocity": 112, "channel": 0}, {"type": "note_off", "time": 125, "note": 62, "velocity": 112, "channel": 0}, {"type": "note_on", "time": 37, "note": 63, "velocity": 116, "channel": 0}, {"type": "note_off", "time": 250, "note": 63, "velocity": 116, "channel": 0}, {"type": "note_on", "time": 213, "note": 59, "velocity": 92, "channel": 0}, {"type": "note_off", "time": 143, "note": 59, "velocity": 92, "channel": 0}, {"type": "note_on", "time": 46, "note": 62, "velocity": 110, "channel": 0}, {"type": "note_off", "time": 180, "note": 62, "velocity": 110, "channel": 0}, {"type": "note_on", "time": 74, "note": 60, "velocity": 109, "channel": 0}, {"type": "note_off", "time": 180, "note": 60, "velocity": 109, "channel": 0}, {"type": "note_on", "time": 50, "note": 59, "velocity": 102, "channel": 0}, {"type": "note_off", "time": 101, "note": 59, "velocity": 102, "channel": 0}, {"type": "note_on", "time": 46, "note": 58, "velocity": 98, "channel": 0}, {"type": "note_off", "time": 176, "note": 58, "velocity": 98, "channel": 0}, {"type": "note_on", "time": 69, "note": 55, "velocity": 96, "channel": 0}, {"type": "note_off", "time": 106, "note": 55, "velocity": 96, "channel": 0}, {"type": "note_on", "time": 46, "note": 57, "velocity": 103, "channel": 0}, {"type": "note_off", "time": 180, "note": 57, "velocity": 103, "channel": 0}, {"type": "note_on", "time": 69, "note": 53, "velocity": 105, "channel": 0}, {"type": "note_off", "time": 152, "note": 53, "velocity": 105, "channel": 0}, {"type": "note_on", "time": 37, "note": 55, "velocity": 103, "channel": 0}, {"type": "note_off", "time": 125, "note": 55, "velocity": 103, "channel": 0}, {"type": "note_on", "time": 83, "note": 51, "velocity": 90, "channel": 0}, {"type": "note_off", "time": 301, "note": 51, "velocity": 90, "channel": 0}, {"type": "note_on", "time": 120, "note": 50, "velocity": 95, "channel": 0}, {"type": "note_off", "time": 125, "note": 50, "velocity": 95, "channel": 0}, {"type": "note_on", "time": 64, "note": 53, "velocity": 92, "channel": 0}, {"type": "note_off", "time": 324, "note": 53, "velocity": 92, "channel": 0}, {"type": "note_on", "time": 129, "note": 51, "velocity": 94, "channel": 0}, {"type": "note_off", "time": 180, "note": 51, "velocity": 94, "channel": 0}, {"type": "note_on", "time": 50, "note": 53, "velocity": 94, "channel": 0}, {"type": "note_off", "time": 101, "note": 53, "velocity": 94, "channel": 0}, {"type": "note_on", "time": 236, "note": 51, "velocity": 94, "channel": 0}, {"type": "note_off", "time": 226, "note": 51, "velocity": 94, "channel": 0}, {"type": "note_on", "time": 13, "note": 53, "velocity": 87, "channel": 0}, {"type": "note_off", "time": 88, "note": 53, "velocity": 87, "channel": 0}, {"type": "note_on", "time": 185, "note": 58, "velocity": 89, "channel": 0}, {"type": "note_off", "time": 92, "note": 58, "velocity": 89, "channel": 0}, {"type": "note_on", "time": 78, "note": 62, "velocity": 114, "channel": 0}, {"type": "note_off", "time": 185, "note": 62, "velocity": 114, "channel": 0}, {"type": "note_on", "time": 18, "note": 63, "velocity": 111, "channel": 0}, {"type": "note_off", "time": 180, "note": 63, "velocity": 111, "channel": 0}, {"type": "note_on", "time": 27, "note": 62, "velocity": 112, "channel": 0}, {"type": "note_off", "time": 171, "note": 62, "velocity": 112, "channel": 0}, {"type": "note_on", "time": 60, "note": 60, "velocity": 108, "channel": 0}, {"type": "note_off", "time": 171, "note": 60, "velocity": 108, "channel": 0}, {"type": "note_on", "time": 32, "note": 58, "velocity": 101, "channel": 0}, {"type": "note_off", "time": 115, "note": 58, "velocity": 101, "channel": 0}, {"type": "note_on", "time": 37, "note": 53, "velocity": 102, "channel": 0}, {"type": "note_off", "time": 189, "note": 53, "velocity": 102, "channel": 0}, {"type": "note_on", "time": 37, "note": 57, "velocity": 108, "channel": 0}, {"type": "note_off", "time": 143, "note": 57, "velocity": 108, "channel": 0}, {"type": "note_on", "time": 60, "note": 60, "velocity": 110, "channel": 0}, {"type": "note_off", "time": 185, "note": 60, "velocity": 110, "channel": 0}, {"type": "note_on", "time": 9, "note": 58, "velocity": 104, "channel": 0}, {"type": "note_off", "time": 157, "note": 58, "velocity": 104, "channel": 0}, {"type": "note_on", "time": 64, "note": 53, "velocity": 104, "channel": 0}, {"type": "note_off", "time": 208, "note": 53, "velocity": 104, "channel": 0}, {"type": "note_on", "time": 97, "note": 50, "velocity": 85, "channel": 0}, {"type": "note_off", "time": 134, "note": 50, "velocity": 85, "channel": 0}, {"type": "note_on", "time": 32, "note": 51, "velocity": 91, "channel": 0}, {"type": "note_off", "time": 138, "note": 51, "velocity": 91, "channel": 0}, {"type": "note_on", "time": 46, "note": 53, "velocity": 98, "channel": 0}, {"type": "note_off", "time": 370, "note": 53, "velocity": 98, "channel": 0}, {"type": "note_on", "time": 2121, "note": 68, "velocity": 104, "channel": 0}, {"type": "note_off", "time": 213, "note": 68, "velocity": 104, "channel": 0}, {"type": "note_on", "time": 60, "note": 70, "velocity": 105, "channel": 0}, {"type": "note_off", "time": 143, "note": 70, "velocity": 105, "channel": 0}, {"type": "note_on", "time": 9, "note": 69, "velocity": 107, "channel": 0}, {"type": "note_off", "time": 189, "note": 69, "velocity": 107, "channel": 0}, {"type": "note_on", "time": 46, "note": 67, "velocity": 110, "channel": 0}, {"type": "note_off", "time": 208, "note": 67, "velocity": 110, "channel": 0}, {"type": "note_on", "time": 23, "note": 65, "velocity": 110, "channel": 0}, {"type": "note_off", "time": 157, "note": 65, "velocity": 110, "channel": 0}, {"type": "note_on", "time": 27, "note": 64, "velocity": 119, "channel": 0}, {"type": "note_off", "time": 162, "note": 64, "velocity": 119, "channel": 0}, {"type": "note_on", "time": 27, "note": 63, "velocity": 111, "channel": 0}, {"type": "note_off", "time": 189, "note": 63, "velocity": 111, "channel": 0}, {"type": "note_on", "time": 23, "note": 62, "velocity": 116, "channel": 0}, {"type": "note_off", "time": 176, "note": 62, "velocity": 116, "channel": 0}, {"type": "note_on", "time": 50, "note": 60, "velocity": 104, "channel": 0}, {"type": "note_off", "time": 152, "note": 60, "velocity": 104, "channel": 0}, {"type": "note_on", "time": 46, "note": 58, "velocity": 98, "channel": 0}, {"type": "note_off", "time": 194, "note": 58, "velocity": 98, "channel": 0}, {"type": "note_on", "time": 50, "note": 55, "velocity": 98, "channel": 0}, {"type": "note_off", "time": 185, "note": 55, "velocity": 98, "channel": 0}, {"type": "note_on", "time": 13, "note": 56, "velocity": 104, "channel": 0}, {"type": "note_off", "time": 148, "note": 56, "velocity": 104, "channel": 0}, {"type": "note_on", "time": 23, "note": 57, "velocity": 105, "channel": 0}, {"type": "note_off", "time": 185, "note": 57, "velocity": 105, "channel": 0}, {"type": "note_on", "time": 106, "note": 54, "velocity": 102, "channel": 0}, {"type": "note_off", "time": 162, "note": 54, "velocity": 102, "channel": 0}, {"type": "note_on", "time": 37, "note": 53, "velocity": 109, "channel": 0}, {"type": "note_off", "time": 152, "note": 53, "velocity": 109, "channel": 0}, {"type": "note_on", "time": 78, "note": 51, "velocity": 104, "channel": 0}, {"type": "note_off", "time": 129, "note": 51, "velocity": 104, "channel": 0}, {"type": "note_on", "time": 69, "note": 46, "velocity": 97, "channel": 0}, {"type": "note_off", "time": 138, "note": 46, "velocity": 97, "channel": 0}, {"type": "note_on", "time": 69, "note": 53, "velocity": 97, "channel": 0}, {"type": "note_off", "time": 134, "note": 53, "velocity": 97, "channel": 0}, {"type": "note_on", "time": 37, "note": 56, "velocity": 109, "channel": 0}, {"type": "note_off", "time": 259, "note": 56, "velocity": 109, "channel": 0}, {"type": "note_on", "time": 46, "note": 53, "velocity": 97, "channel": 0}, {"type": "note_off", "time": 115, "note": 53, "velocity": 97, "channel": 0}, {"type": "note_on", "time": 64, "note": 60, "velocity": 88, "channel": 0}, {"type": "note_off", "time": 1630, "note": 60, "velocity": 88, "channel": 0}, {"type": "note_on", "time": 551, "note": 53, "velocity": 110, "channel": 0}, {"type": "note_off", "time": 134, "note": 53, "velocity": 110, "channel": 0}, {"type": "note_on", "time": 32, "note": 55, "velocity": 102, "channel": 0}, {"type": "note_off", "time": 231, "note": 55, "velocity": 102, "channel": 0}, {"type": "note_on", "time": 60, "note": 58, "velocity": 99, "channel": 0}, {"type": "note_off", "time": 152, "note": 58, "velocity": 99, "channel": 0}, {"type": "note_on", "time": 41, "note": 60, "velocity": 116, "channel": 0}, {"type": "note_off", "time": 319, "note": 60, "velocity": 116, "channel": 0}, {"type": "note_on", "time": 37, "note": 58, "velocity": 100, "channel": 0}, {"type": "note_off", "time": 129, "note": 58, "velocity": 100, "channel": 0}, {"type": "note_on", "time": 32, "note": 61, "velocity": 100, "channel": 0}, {"type": "note_off", "time": 78, "note": 61, "velocity": 100, "channel": 0}, {"type": "note_on", "time": 37, "note": 63, "velocity": 115, "channel": 0}, {"type": "note_off", "time": 690, "note": 63, "velocity": 115, "channel": 0}, {"type": "note_on", "time": 46, "note": 65, "velocity": 111, "channel": 0}, {"type": "note_off", "time": 954, "note": 65, "velocity": 111, "channel": 0}, {"type": "note_on", "time": 643, "note": 52, "velocity": 94, "channel": 0}, {"type": "note_off", "time": 83, "note": 52, "velocity": 94, "channel": 0}, {"type": "note_on", "time": 0, "note": 53, "velocity": 97, "channel": 0}, {"type": "note_off", "time": 398, "note": 53, "velocity": 97, "channel": 0}, {"type": "note_on", "time": 55, "note": 56, "velocity": 109, "channel": 0}, {"type": "note_off", "time": 277, "note": 56, "velocity": 109, "channel": 0}, {"type": "note_on", "time": 55, "note": 53, "velocity": 102, "channel": 0}, {"type": "note_off", "time": 301, "note": 53, "velocity": 102, "channel": 0}, {"type": "note_on", "time": 64, "note": 60, "velocity": 90, "channel": 0}, {"type": "note_off", "time": 1718, "note": 60, "velocity": 90, "channel": 0}, {"type": "note_on", "time": 935, "note": 61, "velocity": 106, "channel": 0}, {"type": "note_off", "time": 407, "note": 61, "velocity": 106, "channel": 0}, {"type": "note_on", "time": 41, "note": 58, "velocity": 98, "channel": 0}, {"type": "note_off", "time": 83, "note": 58, "velocity": 98, "channel": 0}, {"type": "note_on", "time": 74, "note": 63, "velocity": 114, "channel": 0}, {"type": "note_off", "time": 398, "note": 63, "velocity": 114, "channel": 0}, {"type": "note_on", "time": 41, "note": 58, "velocity": 90, "channel": 0}, {"type": "note_off", "time": 92, "note": 58, "velocity": 90, "channel": 0}, {"type": "note_on", "time": 46, "note": 65, "velocity": 103, "channel": 0}, {"type": "note_off", "time": 1297, "note": 65, "velocity": 103, "channel": 0}, {"type": "note_on", "time": 1162, "note": 61, "velocity": 107, "channel": 0}, {"type": "note_off", "time": 264, "note": 61, "velocity": 107, "channel": 0}, {"type": "note_on", "time": 41, "note": 58, "velocity": 98, "channel": 0}, {"type": "note_off", "time": 88, "note": 58, "velocity": 98, "channel": 0}, {"type": "note_on", "time": 55, "note": 65, "velocity": 116, "channel": 0}, {"type": "note_off", "time": 296, "note": 65, "velocity": 116, "channel": 0}, {"type": "note_on", "time": 83, "note": 68, "velocity": 108, "channel": 0}, {"type": "note_off", "time": 403, "note": 68, "velocity": 108, "channel": 0}, {"type": "note_on", "time": 60, "note": 65, "velocity": 107, "channel": 0}, {"type": "note_off", "time": 180, "note": 65, "velocity": 107, "channel": 0}, {"type": "note_on", "time": 92, "note": 72, "velocity": 104, "channel": 0}, {"type": "note_off", "time": 1445, "note": 72, "velocity": 104, "channel": 0}, {"type": "note_on", "time": 3460, "note": 60, "velocity": 99, "channel": 0}, {"type": "note_off", "time": 120, "note": 60, "velocity": 99, "channel": 0}, {"type": "note_on", "time": 27, "note": 62, "velocity": 108, "channel": 0}, {"type": "note_off", "time": 78, "note": 62, "velocity": 108, "channel": 0}, {"type": "note_on", "time": 50, "note": 66, "velocity": 107, "channel": 0}, {"type": "note_off", "time": 106, "note": 66, "velocity": 107, "channel": 0}, {"type": "note_on", "time": 37, "note": 67, "velocity": 115, "channel": 0}, {"type": "note_off", "time": 185, "note": 67, "velocity": 115, "channel": 0}, {"type": "note_on", "time": 32, "note": 68, "velocity": 119, "channel": 0}, {"type": "note_off", "time": 1028, "note": 68, "velocity": 119, "channel": 0}, {"type": "note_on", "time": 88, "note": 64, "velocity": 113, "channel": 0}, {"type": "note_off", "time": 189, "note": 64, "velocity": 113, "channel": 0}, {"type": "note_on", "time": 46, "note": 65, "velocity": 109, "channel": 0}, {"type": "note_off", "time": 148, "note": 65, "velocity": 109, "channel": 0}, {"type": "note_on", "time": 50, "note": 67, "velocity": 111, "channel": 0}, {"type": "note_off", "time": 268, "note": 67, "velocity": 111, "channel": 0}, {"type": "note_on", "time": 50, "note": 64, "velocity": 9, "channel": 0}, {"type": "note_off", "time": 115, "note": 64, "velocity": 9, "channel": 0}, {"type": "note_on", "time": 18, "note": 65, "velocity": 9, "channel": 0}, {"type": "note_off", "time": 194, "note": 65, "velocity": 9, "channel": 0}, {"type": "note_on", "time": 55, "note": 62, "velocity": 118, "channel": 0}, {"type": "note_off", "time": 166, "note": 62, "velocity": 118, "channel": 0}, {"type": "note_on", "time": 50, "note": 58, "velocity": 100, "channel": 0}, {"type": "note_off", "time": 101, "note": 58, "velocity": 100, "channel": 0}, {"type": "note_on", "time": 92, "note": 55, "velocity": 99, "channel": 0}, {"type": "note_off", "time": 148, "note": 55, "velocity": 99, "channel": 0}, {"type": "note_on", "time": 32, "note": 60, "velocity": 115, "channel": 0}, {"type": "note_off", "time": 199, "note": 60, "velocity": 115, "channel": 0}, {"type": "note_on", "time": 55, "note": 63, "velocity": 121, "channel": 0}, {"type": "note_off", "time": 180, "note": 63, "velocity": 121, "channel": 0}, {"type": "note_on", "time": 50, "note": 60, "velocity": 116, "channel": 0}, {"type": "note_off", "time": 152, "note": 60, "velocity": 116, "channel": 0}, {"type": "note_on", "time": 18, "note": 61, "velocity": 105, "channel": 0}, {"type": "note_off", "time": 115, "note": 61, "velocity": 105, "channel": 0}, {"type": "note_on", "time": 23, "note": 62, "velocity": 116, "channel": 0}, {"type": "note_off", "time": 245, "note": 62, "velocity": 116, "channel": 0}, {"type": "note_on", "time": 60, "note": 60, "velocity": 112, "channel": 0}, {"type": "note_off", "time": 162, "note": 60, "velocity": 112, "channel": 0}, {"type": "note_on", "time": 41, "note": 59, "velocity": 99, "channel": 0}, {"type": "note_off", "time": 101, "note": 59, "velocity": 99, "channel": 0}, {"type": "note_on", "time": 18, "note": 62, "velocity": 112, "channel": 0}, {"type": "note_off", "time": 64, "note": 62, "velocity": 112, "channel": 0}, {"type": "note_on", "time": 41, "note": 65, "velocity": 108, "channel": 0}, {"type": "note_off", "time": 88, "note": 65, "velocity": 108, "channel": 0}, {"type": "note_on", "time": 27, "note": 68, "velocity": 116, "channel": 0}, {"type": "note_off", "time": 245, "note": 68, "velocity": 116, "channel": 0}, {"type": "note_on", "time": 37, "note": 67, "velocity": 115, "channel": 0}, {"type": "note_off", "time": 138, "note": 67, "velocity": 115, "channel": 0}, {"type": "note_on", "time": 46, "note": 65, "velocity": 113, "channel": 0}, {"type": "note_off", "time": 171, "note": 65, "velocity": 113, "channel": 0}, {"type": "note_on", "time": 55, "note": 62, "velocity": 109, "channel": 0}, {"type": "note_off", "time": 162, "note": 62, "velocity": 109, "channel": 0}, {"type": "note_on", "time": 0, "note": 63, "velocity": 119, "channel": 0}, {"type": "note_off", "time": 213, "note": 63, "velocity": 119, "channel": 0}, {"type": "note_on", "time": 27, "note": 66, "velocity": 100, "channel": 0}, {"type": "note_off", "time": 55, "note": 66, "velocity": 100, "channel": 0}, {"type": "note_on", "time": 55, "note": 63, "velocity": 119, "channel": 0}, {"type": "note_off", "time": 88, "note": 63, "velocity": 119, "channel": 0}, {"type": "note_on", "time": 37, "note": 62, "velocity": 114, "channel": 0}, {"type": "note_off", "time": 180, "note": 62, "velocity": 114, "channel": 0}, {"type": "note_on", "time": 55, "note": 60, "velocity": 111, "channel": 0}, {"type": "note_off", "time": 176, "note": 60, "velocity": 111, "channel": 0}, {"type": "note_on", "time": 0, "note": 55, "velocity": 97, "channel": 0}, {"type": "note_off", "time": 171, "note": 55, "velocity": 97, "channel": 0}, {"type": "note_on", "time": 41, "note": 53, "velocity": 95, "channel": 0}, {"type": "note_off", "time": 152, "note": 53, "velocity": 95, "channel": 0}, {"type": "note_on", "time": 60, "note": 59, "velocity": 101, "channel": 0}, {"type": "note_off", "time": 977, "note": 59, "velocity": 101, "channel": 0}, {"type": "note_on", "time": 115, "note": 62, "velocity": 117, "channel": 0}, {"type": "note_off", "time": 217, "note": 62, "velocity": 117, "channel": 0}, {"type": "note_on", "time": 78, "note": 59, "velocity": 102, "channel": 0}, {"type": "note_off", "time": 111, "note": 59, "velocity": 102, "channel": 0}, {"type": "note_on", "time": 115, "note": 55, "velocity": 101, "channel": 0}, {"type": "note_off", "time": 134, "note": 55, "velocity": 101, "channel": 0}, {"type": "note_on", "time": 83, "note": 51, "velocity": 98, "channel": 0}, {"type": "note_off", "time": 143, "note": 51, "velocity": 98, "channel": 0}, {"type": "note_on", "time": 37, "note": 58, "velocity": 102, "channel": 0}, {"type": "note_off", "time": 171, "note": 58, "velocity": 102, "channel": 0}, {"type": "note_on", "time": 83, "note": 55, "velocity": 99, "channel": 0}, {"type": "note_off", "time": 125, "note": 55, "velocity": 99, "channel": 0}, {"type": "note_on", "time": 41, "note": 57, "velocity": 107, "channel": 0}, {"type": "note_off", "time": 208, "note": 57, "velocity": 107, "channel": 0}, {"type": "note_on", "time": 37, "note": 55, "velocity": 106, "channel": 0}, {"type": "note_off", "time": 143, "note": 55, "velocity": 106, "channel": 0}, {"type": "note_on", "time": 50, "note": 53, "velocity": 108, "channel": 0}, {"type": "note_off", "time": 176, "note": 53, "velocity": 108, "channel": 0}, {"type": "note_on", "time": 37, "note": 52, "velocity": 96, "channel": 0}, {"type": "note_off", "time": 78, "note": 52, "velocity": 96, "channel": 0}, {"type": "note_on", "time": 37, "note": 51, "velocity": 93, "channel": 0}, {"type": "note_off", "time": 162, "note": 51, "velocity": 93, "channel": 0}, {"type": "note_on", "time": 23, "note": 53, "velocity": 106, "channel": 0}, {"type": "note_off", "time": 83, "note": 53, "velocity": 106, "channel": 0}, {"type": "note_on", "time": 0, "note": 54, "velocity": 100, "channel": 0}, {"type": "note_off", "time": 74, "note": 54, "velocity": 100, "channel": 0}, {"type": "note_on", "time": 9, "note": 55, "velocity": 96, "channel": 0}, {"type": "note_off", "time": 64, "note": 55, "velocity": 96, "channel": 0}, {"type": "note_on", "time": 23, "note": 62, "velocity": 118, "channel": 0}, {"type": "note_off", "time": 189, "note": 62, "velocity": 118, "channel": 0}, {"type": "note_on", "time": 46, "note": 63, "velocity": 118, "channel": 0}, {"type": "note_off", "time": 180, "note": 63, "velocity": 118, "channel": 0}, {"type": "note_on", "time": 37, "note": 60, "velocity": 114, "channel": 0}, {"type": "note_off", "time": 213, "note": 60, "velocity": 114, "channel": 0}, {"type": "note_on", "time": 46, "note": 58, "velocity": 103, "channel": 0}, {"type": "note_off", "time": 120, "note": 58, "velocity": 103, "channel": 0}, {"type": "note_on", "time": 37, "note": 57, "velocity": 108, "channel": 0}, {"type": "note_off", "time": 180, "note": 57, "velocity": 108, "channel": 0}, {"type": "note_on", "time": 55, "note": 60, "velocity": 103, "channel": 0}, {"type": "note_off", "time": 111, "note": 60, "velocity": 103, "channel": 0}, {"type": "note_on", "time": 50, "note": 63, "velocity": 120, "channel": 0}, {"type": "note_off", "time": 213, "note": 63, "velocity": 120, "channel": 0}, {"type": "note_on", "time": 55, "note": 67, "velocity": 113, "channel": 0}, {"type": "note_off", "time": 106, "note": 67, "velocity": 113, "channel": 0}, {"type": "note_on", "time": 46, "note": 65, "velocity": 112, "channel": 0}, {"type": "note_off", "time": 236, "note": 65, "velocity": 112, "channel": 0}, {"type": "note_on", "time": 37, "note": 57, "velocity": 104, "channel": 0}, {"type": "note_off", "time": 166, "note": 57, "velocity": 104, "channel": 0}, {"type": "note_on", "time": 32, "note": 58, "velocity": 97, "channel": 0}, {"type": "note_off", "time": 162, "note": 58, "velocity": 97, "channel": 0}, {"type": "note_on", "time": 32, "note": 63, "velocity": 122, "channel": 0}, {"type": "note_off", "time": 189, "note": 63, "velocity": 122, "channel": 0}, {"type": "note_on", "time": 50, "note": 62, "velocity": 114, "channel": 0}, {"type": "note_off", "time": 111, "note": 62, "velocity": 114, "channel": 0}, {"type": "note_on", "time": 64, "note": 58, "velocity": 103, "channel": 0}, {"type": "note_off", "time": 92, "note": 58, "velocity": 103, "channel": 0}, {"type": "note_on", "time": 46, "note": 56, "velocity": 111, "channel": 0}, {"type": "note_off", "time": 222, "note": 56, "velocity": 111, "channel": 0}, {"type": "note_on", "time": 27, "note": 54, "velocity": 97, "channel": 0}, {"type": "note_off", "time": 129, "note": 54, "velocity": 97, "channel": 0}, {"type": "note_on", "time": 32, "note": 55, "velocity": 100, "channel": 0}, {"type": "note_off", "time": 328, "note": 55, "velocity": 100, "channel": 0}, {"type": "note_on", "time": 69, "note": 65, "velocity": 114, "channel": 0}, {"type": "note_off", "time": 236, "note": 65, "velocity": 114, "channel": 0}, {"type": "note_on", "time": 50, "note": 62, "velocity": 111, "channel": 0}, {"type": "note_off", "time": 106, "note": 62, "velocity": 111, "channel": 0}, {"type": "note_on", "time": 13, "note": 63, "velocity": 121, "channel": 0}, {"type": "note_off", "time": 226, "note": 63, "velocity": 121, "channel": 0}, {"type": "note_on", "time": 37, "note": 66, "velocity": 113, "channel": 0}, {"type": "note_off", "time": 55, "note": 66, "velocity": 113, "channel": 0}, {"type": "note_on", "time": 32, "note": 63, "velocity": 120, "channel": 0}, {"type": "note_off", "time": 120, "note": 63, "velocity": 120, "channel": 0}, {"type": "note_on", "time": 23, "note": 62, "velocity": 114, "channel": 0}, {"type": "note_off", "time": 148, "note": 62, "velocity": 114, "channel": 0}, {"type": "note_on", "time": 69, "note": 60, "velocity": 116, "channel": 0}, {"type": "note_off", "time": 180, "note": 60, "velocity": 116, "channel": 0}, {"type": "note_on", "time": 18, "note": 58, "velocity": 101, "channel": 0}, {"type": "note_off", "time": 106, "note": 58, "velocity": 101, "channel": 0}, {"type": "note_on", "time": 69, "note": 53, "velocity": 105, "channel": 0}, {"type": "note_off", "time": 226, "note": 53, "velocity": 105, "channel": 0}, {"type": "note_on", "time": 37, "note": 50, "velocity": 92, "channel": 0}, {"type": "note_off", "time": 78, "note": 50, "velocity": 92, "channel": 0}, {"type": "note_on", "time": 46, "note": 51, "velocity": 91, "channel": 0}, {"type": "note_off", "time": 134, "note": 51, "velocity": 91, "channel": 0}, {"type": "note_on", "time": 37, "note": 53, "velocity": 105, "channel": 0}, {"type": "note_off", "time": 245, "note": 53, "velocity": 105, "channel": 0}, {"type": "note_on", "time": 1454, "note": 61, "velocity": 108, "channel": 0}, {"type": "note_off", "time": 389, "note": 61, "velocity": 108, "channel": 0}, {"type": "note_on", "time": 134, "note": 57, "velocity": 108, "channel": 0}, {"type": "note_off", "time": 273, "note": 57, "velocity": 108, "channel": 0}, {"type": "note_on", "time": 55, "note": 59, "velocity": 98, "channel": 0}, {"type": "note_off", "time": 92, "note": 59, "velocity": 98, "channel": 0}, {"type": "note_on", "time": 64, "note": 60, "velocity": 101, "channel": 0}, {"type": "note_off", "time": 1107, "note": 60, "velocity": 101, "channel": 0}, {"type": "note_on", "time": 305, "note": 57, "velocity": 103, "channel": 0}, {"type": "note_off", "time": 226, "note": 57, "velocity": 103, "channel": 0}, {"type": "note_on", "time": 97, "note": 53, "velocity": 107, "channel": 0}, {"type": "note_off", "time": 435, "note": 53, "velocity": 107, "channel": 0}, {"type": "note_on", "time": 78, "note": 53, "velocity": 95, "channel": 0}, {"type": "note_off", "time": 894, "note": 53, "velocity": 95, "channel": 0}, {"type": "note_on", "time": 995, "note": 51, "velocity": 106, "channel": 0}, {"type": "note_off", "time": 115, "note": 51, "velocity": 106, "channel": 0}, {"type": "note_on", "time": 37, "note": 53, "velocity": 100, "channel": 0}, {"type": "note_off", "time": 138, "note": 53, "velocity": 100, "channel": 0}, {"type": "note_on", "time": 60, "note": 55, "velocity": 103, "channel": 0}, {"type": "note_off", "time": 250, "note": 55, "velocity": 103, "channel": 0}, {"type": "note_on", "time": 64, "note": 58, "velocity": 107, "channel": 0}, {"type": "note_off", "time": 152, "note": 58, "velocity": 107, "channel": 0}, {"type": "note_on", "time": 365, "note": 53, "velocity": 103, "channel": 0}, {"type": "note_off", "time": 120, "note": 53, "velocity": 103, "channel": 0}, {"type": "note_on", "time": 23, "note": 58, "velocity": 105, "channel": 0}, {"type": "note_off", "time": 208, "note": 58, "velocity": 105, "channel": 0}, {"type": "note_on", "time": 69, "note": 60, "velocity": 114, "channel": 0}, {"type": "note_off", "time": 101, "note": 60, "velocity": 114, "channel": 0}, {"type": "note_on", "time": 50, "note": 62, "velocity": 107, "channel": 0}, {"type": "note_off", "time": 541, "note": 62, "velocity": 107, "channel": 0}, {"type": "note_on", "time": 64, "note": 58, "velocity": 87, "channel": 0}, {"type": "note_off", "time": 97, "note": 58, "velocity": 87, "channel": 0}, {"type": "note_on", "time": 32, "note": 60, "velocity": 116, "channel": 0}, {"type": "note_off", "time": 296, "note": 60, "velocity": 116, "channel": 0}, {"type": "note_on", "time": 64, "note": 56, "velocity": 94, "channel": 0}, {"type": "note_off", "time": 268, "note": 56, "velocity": 94, "channel": 0}, {"type": "note_on", "time": 291, "note": 53, "velocity": 95, "channel": 0}, {"type": "note_off", "time": 208, "note": 53, "velocity": 95, "channel": 0}, {"type": "note_on", "time": 41, "note": 56, "velocity": 95, "channel": 0}, {"type": "note_off", "time": 287, "note": 56, "velocity": 95, "channel": 0}, {"type": "note_on", "time": 4405, "note": 66, "velocity": 115, "channel": 0}, {"type": "note_off", "time": 254, "note": 66, "velocity": 115, "channel": 0}, {"type": "note_on", "time": 60, "note": 70, "velocity": 108, "channel": 0}, {"type": "note_off", "time": 171, "note": 70, "velocity": 108, "channel": 0}, {"type": "note_on", "time": 46, "note": 62, "velocity": 110, "channel": 0}, {"type": "note_off", "time": 138, "note": 62, "velocity": 110, "channel": 0}, {"type": "note_on", "time": 50, "note": 66, "velocity": 101, "channel": 0}, {"type": "note_off", "time": 194, "note": 66, "velocity": 101, "channel": 0}, {"type": "note_on", "time": 46, "note": 58, "velocity": 89, "channel": 0}, {"type": "note_off", "time": 416, "note": 58, "velocity": 89, "channel": 0}, {"type": "note_on", "time": 1945, "note": 69, "velocity": 111, "channel": 0}, {"type": "note_off", "time": 185, "note": 69, "velocity": 111, "channel": 0}, {"type": "note_on", "time": 55, "note": 73, "velocity": 123, "channel": 0}, {"type": "note_off", "time": 254, "note": 73, "velocity": 123, "channel": 0}, {"type": "note_on", "time": 69, "note": 65, "velocity": 116, "channel": 0}, {"type": "note_off", "time": 185, "note": 65, "velocity": 116, "channel": 0}, {"type": "note_on", "time": 50, "note": 69, "velocity": 109, "channel": 0}, {"type": "note_off", "time": 222, "note": 69, "velocity": 109, "channel": 0}, {"type": "note_on", "time": 50, "note": 61, "velocity": 96, "channel": 0}, {"type": "note_off", "time": 148, "note": 61, "velocity": 96, "channel": 0}, {"type": "note_on", "time": 41, "note": 65, "velocity": 107, "channel": 0}, {"type": "note_off", "time": 180, "note": 65, "velocity": 107, "channel": 0}, {"type": "note_on", "time": 41, "note": 57, "velocity": 99, "channel": 0}, {"type": "note_off", "time": 194, "note": 57, "velocity": 99, "channel": 0}, {"type": "note_on", "time": 21, "note": 61, "velocity": 104, "channel": 0}, {"type": "note_off", "time": 194, "note": 61, "velocity": 104, "channel": 0}, {"type": "note_on", "time": 330, "note": 56, "velocity": 100, "channel": 0}, {"type": "note_off", "time": 120, "note": 56, "velocity": 100, "channel": 0}, {"type": "note_on", "time": 3451, "note": 65, "velocity": 118, "channel": 0}, {"type": "note_off", "time": 277, "note": 65, "velocity": 118, "channel": 0}, {"type": "note_on", "time": 50, "note": 68, "velocity": 121, "channel": 0}, {"type": "note_off", "time": 324, "note": 68, "velocity": 121, "channel": 0}, {"type": "note_on", "time": 57, "note": 64, "velocity": 108, "channel": 0}, {"type": "note_off", "time": 1784, "note": 64, "velocity": 108, "channel": 0}, {"type": "note_on", "time": 223, "note": 67, "velocity": 108, "channel": 0}, {"type": "note_off", "time": 245, "note": 67, "velocity": 108, "channel": 0}, {"type": "note_on", "time": 46, "note": 65, "velocity": 109, "channel": 0}, {"type": "note_off", "time": 148, "note": 65, "velocity": 109, "channel": 0}, {"type": "note_on", "time": 143, "note": 56, "velocity": 85, "channel": 0}, {"type": "note_off", "time": 226, "note": 56, "velocity": 85, "channel": 0}, {"type": "note_on", "time": 18, "note": 57, "velocity": 102, "channel": 0}, {"type": "note_off", "time": 226, "note": 57, "velocity": 102, "channel": 0}, {"type": "note_on", "time": 27, "note": 58, "velocity": 92, "channel": 0}, {"type": "note_off", "time": 97, "note": 58, "velocity": 92, "channel": 0}, {"type": "note_on", "time": 78, "note": 62, "velocity": 113, "channel": 0}, {"type": "note_off", "time": 222, "note": 62, "velocity": 113, "channel": 0}, {"type": "note_on", "time": 41, "note": 63, "velocity": 117, "channel": 0}, {"type": "note_off", "time": 162, "note": 63, "velocity": 117, "channel": 0}, {"type": "note_on", "time": 23, "note": 62, "velocity": 112, "channel": 0}, {"type": "note_off", "time": 166, "note": 62, "velocity": 112, "channel": 0}, {"type": "note_on", "time": 37, "note": 60, "velocity": 108, "channel": 0}, {"type": "note_off", "time": 268, "note": 60, "velocity": 108, "channel": 0}, {"type": "note_on", "time": 55, "note": 59, "velocity": 97, "channel": 0}, {"type": "note_off", "time": 69, "note": 59, "velocity": 97, "channel": 0}, {"type": "note_on", "time": 64, "note": 55, "velocity": 94, "channel": 0}, {"type": "note_off", "time": 92, "note": 55, "velocity": 94, "channel": 0}, {"type": "note_on", "time": 50, "note": 62, "velocity": 111, "channel": 0}, {"type": "note_off", "time": 222, "note": 62, "velocity": 111, "channel": 0}, {"type": "note_on", "time": 18, "note": 59, "velocity": 93, "channel": 0}, {"type": "note_off", "time": 129, "note": 59, "velocity": 93, "channel": 0}, {"type": "note_on", "time": 27, "note": 60, "velocity": 100, "channel": 0}, {"type": "note_off", "time": 208, "note": 60, "velocity": 100, "channel": 0}, {"type": "note_on", "time": 27, "note": 62, "velocity": 101, "channel": 0}, {"type": "note_off", "time": 129, "note": 62, "velocity": 101, "channel": 0}, {"type": "note_on", "time": 46, "note": 63, "velocity": 115, "channel": 0}, {"type": "note_off", "time": 226, "note": 63, "velocity": 115, "channel": 0}, {"type": "note_on", "time": 37, "note": 58, "velocity": 92, "channel": 0}, {"type": "note_off", "time": 143, "note": 58, "velocity": 92, "channel": 0}, {"type": "note_on", "time": 268, "note": 53, "velocity": 87, "channel": 0}, {"type": "note_off", "time": 101, "note": 53, "velocity": 87, "channel": 0}, {"type": "note_on", "time": 64, "note": 63, "velocity": 107, "channel": 0}, {"type": "note_off", "time": 560, "note": 63, "velocity": 107, "channel": 0}, {"type": "note_on", "time": 41, "note": 62, "velocity": 114, "channel": 0}, {"type": "note_off", "time": 222, "note": 62, "velocity": 114, "channel": 0}, {"type": "note_on", "time": 83, "note": 58, "velocity": 92, "channel": 0}, {"type": "note_off", "time": 213, "note": 58, "velocity": 92, "channel": 0}, {"type": "note_on", "time": 3826, "note": 53, "velocity": 104, "channel": 0}, {"type": "note_off", "time": 342, "note": 53, "velocity": 104, "channel": 0}, {"type": "note_on", "time": 50, "note": 55, "velocity": 100, "channel": 0}, {"type": "note_off", "time": 115, "note": 55, "velocity": 100, "channel": 0}, {"type": "note_on", "time": 37, "note": 56, "velocity": 106, "channel": 0}, {"type": "note_off", "time": 282, "note": 56, "velocity": 106, "channel": 0}, {"type": "note_on", "time": 50, "note": 53, "velocity": 103, "channel": 0}, {"type": "note_off", "time": 1899, "note": 53, "velocity": 103, "channel": 0}, {"type": "note_on", "time": 352, "note": 58, "velocity": 99, "channel": 0}, {"type": "note_off", "time": 315, "note": 58, "velocity": 99, "channel": 0}, {"type": "note_on", "time": 120, "note": 61, "velocity": 108, "channel": 0}, {"type": "note_off", "time": 152, "note": 61, "velocity": 108, "channel": 0}, {"type": "note_on", "time": 41, "note": 62, "velocity": 115, "channel": 0}, {"type": "note_off", "time": 310, "note": 62, "velocity": 115, "channel": 0}, {"type": "note_on", "time": 60, "note": 58, "velocity": 97, "channel": 0}, {"type": "note_off", "time": 157, "note": 58, "velocity": 97, "channel": 0}, {"type": "note_on", "time": 152, "note": 53, "velocity": 98, "channel": 0}, {"type": "note_off", "time": 403, "note": 53, "velocity": 98, "channel": 0}, {"type": "note_on", "time": 37, "note": 51, "velocity": 93, "channel": 0}, {"type": "note_off", "time": 972, "note": 51, "velocity": 93, "channel": 0}, {"type": "note_on", "time": 630, "note": 60, "velocity": 110, "channel": 0}, {"type": "note_off", "time": 296, "note": 60, "velocity": 110, "channel": 0}, {"type": "note_on", "time": 92, "note": 58, "velocity": 95, "channel": 0}, {"type": "note_off", "time": 185, "note": 58, "velocity": 95, "channel": 0}, {"type": "note_on", "time": 37, "note": 60, "velocity": 92, "channel": 0}, {"type": "note_off", "time": 134, "note": 60, "velocity": 92, "channel": 0}, {"type": "note_on", "time": 37, "note": 62, "velocity": 113, "channel": 0}, {"type": "note_off", "time": 352, "note": 62, "velocity": 113, "channel": 0}, {"type": "note_on", "time": 106, "note": 58, "velocity": 88, "channel": 0}, {"type": "note_off", "time": 537, "note": 58, "velocity": 88, "channel": 0}, {"type": "end_of_track", "time": 0}]]}