{"ticks_per_beat": 192, "tracks": [[{"type": "track_name", "name": "Melody", "time": 0}, {"type": "set_tempo", "tempo": 247933, "time": 0}, {"type": "key_signature", "key": "Ab", "time": 0}, {"type": "time_signature", "numerator": 4, "denominator": 4, "clocks_per_click": 24, "notated_32nd_notes_per_beat": 8, "time": 0}, {"type": "note_on", "time": 2472, "note": 65, "velocity": 120, "channel": 0}, {"type": "note_off", "time": 87, "note": 65, "velocity": 120, "channel": 0}, {"type": "note_on", "time": 112, "note": 60, "velocity": 109, "channel": 0}, {"type": "note_off", "time": 44, "note": 60, "velocity": 109, "channel": 0}, {"type": "note_on", "time": 4, "note": 61, "velocity": 107, "channel": 0}, {"type": "note_off", "time": 98, "note": 61, "velocity": 107, "channel": 0}, {"type": "note_on", "time": 0, "note": 60, "velocity": 100, "channel": 0}, {"type": "note_off", "time": 660, "note": 60, "velocity": 100, "channel": 0}, {"type": "note_on", "time": 184, "note": 55, "velocity": 119, "channel": 0}, {"type": "note_off", "time": 67, "note": 55, "velocity": 119, "channel": 0}, {"type": "note_on", "time": 6, "note": 56, "velocity": 116, "channel": 0}, {"type": "note_off", "time": 49, "note": 56, "velocity": 116, "channel": 0}, {"type": "note_on", "time": 13, "note": 55, "velocity": 113, "channel": 0}, {"type": "note_off", "time": 53, "note": 55, "velocity": 113, "channel": 0}, {"type": "note_on", "time": 14, "note": 53, "velocity": 111, "channel": 0}, {"type": "note_off", "time": 442, "note": 53, "velocity": 111, "channel": 0}, {"type": "note_on", "time": 138, "note": 65, "velocity": 113, "channel": 0}, {"type": "note_off", "time": 128, "note": 65, "velocity": 113, "channel": 0}, {"type": "note_on", "time": 3, "note": 58, "velocity": 107, "channel": 0}, {"type": "note_off", "time": 164, "note": 58, "velocity": 107, "channel": 0}, {"type": "note_on", "time": 620, "note": 66, "velocity": 117, "channel": 0}, {"type": "note_off", "time": 87, "note": 66, "velocity": 117, "channel": 0}, {"type": "note_on", "time": 19, "note": 64, "velocity": 118, "channel": 0}, {"type": "note_off", "time": 80, "note": 64, "velocity": 118, "channel": 0}, {"type": "note_on", "time": 11, "note": 63, "velocity": 119, "channel": 0}, {"type": "note_off", "time": 85, "note": 63, "velocity": 119, "channel": 0}, {"type": "note_on", "time": 24, "note": 61, "velocity": 102, "channel": 0}, {"type": "note_off", "time": 78, "note": 61, "velocity": 102, "channel": 0}, {"type": "note_on", "time": 15, "note": 60, "velocity": 100, "channel": 0}, {"type": "note_off", "time": 69, "note": 60, "velocity": 100, "channel": 0}, {"type": "note_on", "time": 17, "note": 59, "velocity": 117, "channel": 0}, {"type": "note_off", "time": 98, "note": 59, "velocity": 117, "channel": 0}, {"type": "note_on", "time": 8, "note": 58, "velocity": 116, "channel": 0}, {"type": "note_off", "time": 101, "note": 58, "velocity": 116, "channel": 0}, {"type": "note_on", "time": 15, "note": 56, "velocity": 106, "channel": 0}, {"type": "note_off", "time": 85, "note": 56, "velocity": 106, "channel": 0}, {"type": "note_on", "time": 0, "note": 57, "velocity": 119, "channel": 0}, {"type": "note_off", "time": 80, "note": 57, "velocity": 119, "channel": 0}, {"type": "note_on", "time": 13, "note": 58, "velocity": 102, "channel": 0}, {"type": "note_off", "time": 74, "note": 58, "velocity": 102, "channel": 0}, {"type": "note_on", "time": 0, "note": 63, "velocity": 121, "channel": 0}, {"type": "note_off", "time": 94, "note": 63, "velocity": 121, "channel": 0}, {"type": "note_on", "time": 20, "note": 66, "velocity": 119, "channel": 0}, {"type": "note_off", "time": 112, "note": 66, "velocity": 119, "channel": 0}, {"type": "note_on", "time": 4, "note": 65, "velocity": 114, "channel": 0}, {"type": "note_off", "time": 78, "note": 65, "velocity": 114, "channel": 0}, {"type": "note_on", "time": 15, "note": 63, "velocity": 124, "channel": 0}, {"type": "note_off", "time": 69, "note": 63, "velocity": 124, "channel": 0}, {"type": "note_on", "time": 4, "note": 61, "velocity": 102, "channel": 0}, {"type": "note_off", "time": 101, "note": 61, "velocity": 102, "channel": 0}, {"type": "note_on", "time": 6, "note": 58, "velocity": 102, "channel": 0}, {"type": "note_off", "time": 280, "note": 58, "velocity": 102, "channel": 0}, {"type": "note_on", "time": 1434, "note": 67, "velocity": 123, "channel": 0}, {"type": "note_off", "time": 92, "note": 67, "velocity": 123, "channel": 0}, {"type": "note_on", "time": 103, "note": 67, "velocity": 117, "channel": 0}, {"type": "note_off", "time": 121, "note": 67, "velocity": 117, "channel": 0}, {"type": "note_on", "time": 53, "note": 71, "velocity": 104, "channel": 0}, {"type": "note_off", "time": 42, "note": 71, "velocity": 104, "channel": 0}, {"type": "note_on", "time": 52, "note": 64, "velocity": 103, "channel": 0}, {"type": "note_off", "time": 150, "note": 64, "velocity": 103, "channel": 0}, {"type": "note_on", "time": 31, "note": 67, "velocity": 119, "channel": 0}, {"type": "note_off", "time": 119, "note": 67, "velocity": 119, "channel": 0}, {"type": "note_on", "time": 6, "note": 65, "velocity": 115, "channel": 0}, {"type": "note_off", "time": 89, "note": 65, "velocity": 115, "channel": 0}, {"type": "note_on", "time": 2, "note": 64, "velocity": 115, "channel": 0}, {"type": "note_off", "time": 87, "note": 64, "velocity": 115, "channel": 0}, {"type": "note_on", "time": 17, "note": 60, "velocity": 106, "channel": 0}, {"type": "note_off", "time": 89, "note": 60, "velocity": 106, "channel": 0}, {"type": "note_on", "time": 4, "note": 57, "velocity": 94, "channel": 0}, {"type": "note_off", "time": 123, "note": 57, "velocity": 94, "channel": 0}, {"type": "note_on", "time": 33, "note": 66, "velocity": 110, "channel": 0}, {"type": "note_off", "time": 87, "note": 66, "velocity": 110, "channel": 0}, {"type": "note_on", "time": 0, "note": 67, "velocity": 113, "channel": 0}, {"type": "note_off", "time": 85, "note": 67, "velocity": 113, "channel": 0}, {"type": "note_on", "time": 42, "note": 64, "velocity": 116, "channel": 0}, {"type": "note_off", "time": 98, "note": 64, "velocity": 116, "channel": 0}, {"type": "note_on", "time": 8, "note": 63, "velocity": 121, "channel": 0}, {"type": "note_off", "time": 76, "note": 63, "velocity": 121, "channel": 0}, {"type": "note_on", "time": 29, "note": 61, "velocity": 93, "channel": 0}, {"type": "note_off", "time": 96, "note": 61, "velocity": 93, "channel": 0}, {"type": "note_on", "time": 2, "note": 63, "velocity": 106, "channel": 0}, {"type": "note_off", "time": 58, "note": 63, "velocity": 106, "channel": 0}, {"type": "note_on", "time": 0, "note": 64, "velocity": 119, "channel": 0}, {"type": "note_off", "time": 89, "note": 64, "velocity": 119, "channel": 0}, {"type": "note_on", "time": 11, "note": 66, "velocity": 122, "channel": 0}, {"type": "note_off", "time": 94, "note": 66, "velocity": 122, "channel": 0}, {"type": "note_on", "time": 8, "note": 63, "velocity": 110, "channel": 0}, {"type": "note_off", "time": 83, "note": 63, "velocity": 110, "channel": 0}, {"type": "note_on", "time": 49, "note": 54, "velocity": 98, "channel": 0}, {"type": "note_off", "time": 114, "note": 54, "velocity": 98, "channel": 0}, {"type": "note_on", "time": 4, "note": 55, "velocity": 94, "channel": 0}, {"type": "note_off", "time": 67, "note": 55, "velocity": 94, "channel": 0}, {"type": "note_on", "time": 17, "note": 58, "velocity": 105, "channel": 0}, {"type": "note_off", "time": 65, "note": 58, "velocity": 105, "channel": 0}, {"type": "note_on", "time": 15, "note": 67, "velocity": 111, "channel": 0}, {"type": "note_off", "time": 85, "note": 67, "velocity": 111, "channel": 0}, {"type": "note_on", "time": 6, "note": 58, "velocity": 106, "channel": 0}, {"type": "note_off", "time": 92, "note": 58, "velocity": 106, "channel": 0}, {"type": "note_on", "time": 15, "note": 59, "velocity": 116, "channel": 0}, {"type": "note_off", "time": 76, "note": 59, "velocity": 116, "channel": 0}, {"type": "note_on", "time": 87, "note": 64, "velocity": 118, "channel": 0}, {"type": "note_off", "time": 56, "note": 64, "velocity": 118, "channel": 0}, {"type": "note_on", "time": 0, "note": 65, "velocity": 116, "channel": 0}, {"type": "note_off", "time": 220, "note": 65, "velocity": 116, "channel": 0}, {"type": "note_on", "time": 13, "note": 63, "velocity": 118, "channel": 0}, {"type": "note_off", "time": 105, "note": 63, "velocity": 118, "channel": 0}, {"type": "note_on", "time": 643, "note": 57, "velocity": 100, "channel": 0}, {"type": "note_off", "time": 39, "note": 57, "velocity": 100, "channel": 0}, {"type": "note_on", "time": 6, "note": 58, "velocity": 113, "channel": 0}, {"type": "note_off", "time": 63, "note": 58, "velocity": 113, "channel": 0}, {"type": "note_on", "time": 18, "note": 62, "velocity": 88, "channel": 0}, {"type": "note_off", "time": 65, "note": 62, "velocity": 88, "channel": 0}, {"type": "note_on", "time": 0, "note": 65, "velocity": 100, "channel": 0}, {"type": "note_off", "time": 69, "note": 65, "velocity": 100, "channel": 0}, {"type": "note_on", "time": 13, "note": 69, "velocity": 125, "channel": 0}, {"type": "note_on", "time": 112, "note": 67, "velocity": 122, "channel": 0}, {"type": "note_off", "time": 0, "note": 69, "velocity": 125, "channel": 0}, {"type": "note_off", "time": 92, "note": 67, "velocity": 122, "channel": 0}, {"type": "note_on", "time": 13, "note": 65, "velocity": 112, "channel": 0}, {"type": "note_off", "time": 96, "note": 65, "velocity": 112, "channel": 0}, {"type": "note_on", "time": 4, "note": 62, "velocity": 97, "channel": 0}, {"type": "note_off", "time": 83, "note": 62, "velocity": 97, "channel": 0}, {"type": "note_on", "time": 15, "note": 63, "velocity": 116, "channel": 0}, {"type": "note_off", "time": 80, "note": 63, "velocity": 116, "channel": 0}, {"type": "note_on", "time": 4, "note": 65, "velocity": 113, "channel": 0}, {"type": "note_off", "time": 40, "note": 65, "velocity": 113, "channel": 0}, {"type": "note_on", "time": 0, "note": 63, "velocity": 120, "channel": 0}, {"type": "note_off", "time": 47, "note": 63, "velocity": 120, "channel": 0}, {"type": "note_on", "time": 4, "note": 62, "velocity": 110, "channel": 0}, {"type": "note_off", "time": 74, "note": 62, "velocity": 110, "channel": 0}, {"type": "note_on", "time": 11, "note": 58, "velocity": 110, "channel": 0}, {"type": "note_off", "time": 105, "note": 58, "velocity": 110, "channel": 0}, {"type": "note_on", "time": 564, "note": 67, "velocity": 122, "channel": 0}, {"type": "note_off", "time": 83, "note": 67, "velocity": 122, "channel": 0}, {"type": "note_on", "time": 13, "note": 68, "velocity": 125, "channel": 0}, {"type": "note_off", "time": 101, "note": 68, "velocity": 125, "channel": 0}, {"type": "note_on", "time": 0, "note": 67, "velocity": 114, "channel": 0}, {"type": "note_off", "time": 83, "note": 67, "velocity": 114, "channel": 0}, {"type": "note_on", "time": 0, "note": 65, "velocity": 118, "channel": 0}, {"type": "note_off", "time": 101, "note": 65, "velocity": 118, "channel": 0}, {"type": "note_on", "time": 15, "note": 63, "velocity": 111, "channel": 0}, {"type": "note_off", "time": 67, "note": 63, "velocity": 111, "channel": 0}, {"type": "note_on", "time": 15, "note": 62, "velocity": 116, "channel": 0}, {"type": "note_off", "time": 94, "note": 62, "velocity": 116, "channel": 0}, {"type": "note_on", "time": 4, "note": 61, "velocity": 107, "channel": 0}, {"type": "note_off", "time": 98, "note": 61, "velocity": 107, "channel": 0}, {"type": "note_on", "time": 11, "note": 58, "velocity": 107, "channel": 0}, {"type": "note_off", "time": 87, "note": 58, "velocity": 107, "channel": 0}, {"type": "note_on", "time": 6, "note": 60, "velocity": 106, "channel": 0}, {"type": "note_off", "time": 80, "note": 60, "velocity": 106, "channel": 0}, {"type": "note_on", "time": 4, "note": 61, "velocity": 123, "channel": 0}, {"type": "note_off", "time": 80, "note": 61, "velocity": 123, "channel": 0}, {"type": "note_on", "time": 4, "note": 58, "velocity": 110, "channel": 0}, {"type": "note_off", "time": 87, "note": 58, "velocity": 110, "channel": 0}, {"type": "note_on", "time": 46, "note": 55, "velocity": 98, "channel": 0}, {"type": "note_off", "time": 54, "note": 55, "velocity": 98, "channel": 0}, {"type": "note_on", "time": 4, "note": 56, "velocity": 105, "channel": 0}, {"type": "note_off", "time": 101, "note": 56, "velocity": 105, "channel": 0}, {"type": "note_on", "time": 4, "note": 58, "velocity": 109, "channel": 0}, {"type": "note_off", "time": 96, "note": 58, "velocity": 109, "channel": 0}, {"type": "note_on", "time": 11, "note": 59, "velocity": 101, "channel": 0}, {"type": "note_off", "time": 96, "note": 59, "velocity": 101, "channel": 0}, {"type": "note_on", "time": 6, "note": 58, "velocity": 90, "channel": 0}, {"type": "note_off", "time": 44, "note": 58, "velocity": 90, "channel": 0}, {"type": "note_on", "time": 0, "note": 65, "velocity": 112, "channel": 0}, {"type": "note_on", "time": 121, "note": 64, "velocity": 116, "channel": 0}, {"type": "note_off", "time": 0, "note": 65, "velocity": 112, "channel": 0}, {"type": "note_off", "time": 78, "note": 64, "velocity": 116, "channel": 0}, {"type": "note_on", "time": 6, "note": 63, "velocity": 114, "channel": 0}, {"type": "note_off", "time": 80, "note": 63, "velocity": 114, "channel": 0}, {"type": "note_on", "time": 33, "note": 60, "velocity": 90, "channel": 0}, {"type": "note_off", "time": 89, "note": 60, "velocity": 90, "channel": 0}, {"type": "note_on", "time": 22, "note": 61, "velocity": 112, "channel": 0}, {"type": "note_off", "time": 80, "note": 61, "velocity": 112, "channel": 0}, {"type": "note_on", "time": 0, "note": 60, "velocity": 107, "channel": 0}, {"type": "note_off", "time": 74, "note": 60, "velocity": 107, "channel": 0}, {"type": "note_on", "time": 13, "note": 58, "velocity": 108, "channel": 0}, {"type": "note_off", "time": 103, "note": 58, "velocity": 108, "channel": 0}, {"type": "note_on", "time": 4, "note": 56, "velocity": 113, "channel": 0}, {"type": "note_off", "time": 101, "note": 56, "velocity": 113, "channel": 0}, {"type": "note_on", "time": 11, "note": 55, "velocity": 108, "channel": 0}, {"type": "note_off", "time": 80, "note": 55, "velocity": 108, "channel": 0}, {"type": "note_on", "time": 13, "note": 53, "velocity": 113, "channel": 0}, {"type": "note_off", "time": 60, "note": 53, "velocity": 113, "channel": 0}, {"type": "note_on", "time": 15, "note": 52, "velocity": 106, "channel": 0}, {"type": "note_off", "time": 89, "note": 52, "velocity": 106, "channel": 0}, {"type": "note_on", "time": 13, "note": 55, "velocity": 100, "channel": 0}, {"type": "note_off", "time": 69, "note": 55, "velocity": 100, "channel": 0}, {"type": "note_on", "time": 8, "note": 58, "velocity": 120, "channel": 0}, {"type": "note_off", "time": 89, "note": 58, "velocity": 120, "channel": 0}, {"type": "note_on", "time": 24, "note": 61, "velocity": 110, "channel": 0}, {"type": "note_off", "time": 67, "note": 61, "velocity": 110, "channel": 0}, {"type": "note_on", "time": 6, "note": 60, "velocity": 101, "channel": 0}, {"type": "note_off", "time": 80, "note": 60, "velocity": 101, "channel": 0}, {"type": "note_on", "time": 11, "note": 58, "velocity": 121, "channel": 0}, {"type": "note_off", "time": 67, "note": 58, "velocity": 121, "channel": 0}, {"type": "note_on", "time": 17, "note": 56, "velocity": 118, "channel": 0}, {"type": "note_off", "time": 92, "note": 56, "velocity": 118, "channel": 0}, {"type": "note_on", "time": 155, "note": 52, "velocity": 103, "channel": 0}, {"type": "note_off", "time": 54, "note": 52, "velocity": 103, "channel": 0}, {"type": "note_on", "time": 5, "note": 56, "velocity": 118, "channel": 0}, {"type": "note_off", "time": 76, "note": 56, "velocity": 118, "channel": 0}, {"type": "note_on", "time": 15, "note": 55, "velocity": 108, "channel": 0}, {"type": "note_off", "time": 94, "note": 55, "velocity": 108, "channel": 0}, {"type": "note_on", "time": 15, "note": 53, "velocity": 113, "channel": 0}, {"type": "note_off", "time": 74, "note": 53, "velocity": 113, "channel": 0}, {"type": "note_on", "time": 3, "note": 52, "velocity": 106, "channel": 0}, {"type": "note_off", "time": 103, "note": 52, "velocity": 106, "channel": 0}, {"type": "note_on", "time": 6, "note": 55, "velocity": 98, "channel": 0}, {"type": "note_off", "time": 80, "note": 55, "velocity": 98, "channel": 0}, {"type": "note_on", "time": 4, "note": 58, "velocity": 119, "channel": 0}, {"type": "note_off", "time": 80, "note": 58, "velocity": 119, "channel": 0}, {"type": "note_on", "time": 33, "note": 61, "velocity": 109, "channel": 0}, {"type": "note_off", "time": 80, "note": 61, "velocity": 109, "channel": 0}, {"type": "note_on", "time": 6, "note": 60, "velocity": 100, "channel": 0}, {"type": "note_off", "time": 80, "note": 60, "velocity": 100, "channel": 0}, {"type": "note_on", "time": 2, "note": 58, "velocity": 112, "channel": 0}, {"type": "note_off", "time": 89, "note": 58, "velocity": 112, "channel": 0}, {"type": "note_on", "time": 4, "note": 56, "velocity": 112, "channel": 0}, {"type": "note_off", "time": 116, "note": 56, "velocity": 112, "channel": 0}, {"type": "note_on", "time": 6, "note": 58, "velocity": 119, "channel": 0}, {"type": "note_off", "time": 85, "note": 58, "velocity": 119, "channel": 0}, {"type": "note_on", "time": 119, "note": 64, "velocity": 111, "channel": 0}, {"type": "note_off", "time": 49, "note": 64, "velocity": 111, "channel": 0}, {"type": "note_on", "time": 4, "note": 67, "velocity": 122, "channel": 0}, {"type": "note_off", "time": 125, "note": 67, "velocity": 122, "channel": 0}, {"type": "note_on", "time": 11, "note": 64, "velocity": 99, "channel": 0}, {"type": "note_off", "time": 53, "note": 64, "velocity": 99, "channel": 0}, {"type": "note_on", "time": 4, "note": 65, "velocity": 98, "channel": 0}, {"type": "note_off", "time": 125, "note": 65, "velocity": 98, "channel": 0}, {"type": "note_on", "time": 15, "note": 67, "velocity": 111, "channel": 0}, {"type": "note_off", "time": 60, "note": 67, "velocity": 111, "channel": 0}, {"type": "note_on", "time": 0, "note": 68, "velocity": 121, "channel": 0}, {"type": "note_off", "time": 101, "note": 68, "velocity": 121, "channel": 0}, {"type": "note_on", "time": 20, "note": 65, "velocity": 96, "channel": 0}, {"type": "note_off", "time": 164, "note": 65, "velocity": 96, "channel": 0}, {"type": "note_on", "time": 1198, "note": 65, "velocity": 117, "channel": 0}, {"type": "note_off", "time": 53, "note": 65, "velocity": 117, "channel": 0}, {"type": "note_on", "time": 6, "note": 66, "velocity": 116, "channel": 0}, {"type": "note_off", "time": 53, "note": 66, "velocity": 116, "channel": 0}, {"type": "note_on", "time": 94, "note": 64, "velocity": 119, "channel": 0}, {"type": "note_off", "time": 65, "note": 64, "velocity": 119, "channel": 0}, {"type": "note_on", "time": 7, "note": 65, "velocity": 111, "channel": 0}, {"type": "note_off", "time": 389, "note": 65, "velocity": 111, "channel": 0}, {"type": "note_on", "time": 60, "note": 63, "velocity": 121, "channel": 0}, {"type": "note_off", "time": 105, "note": 63, "velocity": 121, "channel": 0}, {"type": "note_on", "time": 26, "note": 61, "velocity": 103, "channel": 0}, {"type": "note_off", "time": 94, "note": 61, "velocity": 103, "channel": 0}, {"type": "note_on", "time": 65, "note": 55, "velocity": 100, "channel": 0}, {"type": "note_off", "time": 76, "note": 55, "velocity": 100, "channel": 0}, {"type": "note_on", "time": 128, "note": 55, "velocity": 105, "channel": 0}, {"type": "note_off", "time": 375, "note": 55, "velocity": 105, "channel": 0}, {"type": "note_on", "time": 863, "note": 67, "velocity": 120, "channel": 0}, {"type": "note_off", "time": 62, "note": 67, "velocity": 120, "channel": 0}, {"type": "note_on", "time": 6, "note": 68, "velocity": 123, "channel": 0}, {"type": "note_off", "time": 74, "note": 68, "velocity": 123, "channel": 0}, {"type": "note_on", "time": 56, "note": 64, "velocity": 119, "channel": 0}, {"type": "note_off", "time": 78, "note": 64, "velocity": 119, "channel": 0}, {"type": "note_on", "time": 0, "note": 65, "velocity": 113, "channel": 0}, {"type": "note_off", "time": 78, "note": 65, "velocity": 113, "channel": 0}, {"type": "note_on", "time": 456, "note": 58, "velocity": 117, "channel": 0}, {"type": "note_off", "time": 58, "note": 58, "velocity": 117, "channel": 0}, {"type": "note_on", "time": 6, "note": 59, "velocity": 116, "channel": 0}, {"type": "note_off", "time": 76, "note": 59, "velocity": 116, "channel": 0}, {"type": "note_on", "time": 11, "note": 61, "velocity": 110, "channel": 0}, {"type": "note_off", "time": 71, "note": 61, "velocity": 110, "channel": 0}, {"type": "note_on", "time": 42, "note": 62, "velocity": 120, "channel": 0}, {"type": "note_off", "time": 67, "note": 62, "velocity": 120, "channel": 0}, {"type": "note_on", "time": 13, "note": 67, "velocity": 123, "channel": 0}, {"type": "note_off", "time": 69, "note": 67, "velocity": 123, "channel": 0}, {"type": "note_on", "time": 334, "note": 59, "velocity": 105, "channel": 0}, {"type": "note_off", "time": 78, "note": 59, "velocity": 105, "channel": 0}, {"type": "note_on", "time": 35, "note": 63, "velocity": 96, "channel": 0}, {"type": "note_off", "time": 51, "note": 63, "velocity": 96, "channel": 0}, {"type": "note_on", "time": 13, "note": 67, "velocity": 113, "channel": 0}, {"type": "note_off", "time": 69, "note": 67, "velocity": 113, "channel": 0}, {"type": "note_on", "time": 0, "note": 70, "velocity": 126, "channel": 0}, {"type": "note_off", "time": 98, "note": 70, "velocity": 126, "channel": 0}, {"type": "note_on", "time": 4, "note": 68, "velocity": 122, "channel": 0}, {"type": "note_off", "time": 89, "note": 68, "velocity": 122, "channel": 0}, {"type": "note_on", "time": 4, "note": 67, "velocity": 117, "channel": 0}, {"type": "note_off", "time": 112, "note": 67, "velocity": 117, "channel": 0}, {"type": "note_on", "time": 0, "note": 65, "velocity": 118, "channel": 0}, {"type": "note_off", "time": 76, "note": 65, "velocity": 118, "channel": 0}, {"type": "note_on", "time": 6, "note": 63, "velocity": 122, "channel": 0}, {"type": "note_off", "time": 78, "note": 63, "velocity": 122, "channel": 0}, {"type": "note_on", "time": 24, "note": 60, "velocity": 91, "channel": 0}, {"type": "note_off", "time": 58, "note": 60, "velocity": 91, "channel": 0}, {"type": "note_on", "time": 17, "note": 61, "velocity": 105, "channel": 0}, {"type": "note_off", "time": 87, "note": 61, "velocity": 105, "channel": 0}, {"type": "note_on", "time": 8, "note": 60, "velocity": 111, "channel": 0}, {"type": "note_off", "time": 80, "note": 60, "velocity": 111, "channel": 0}, {"type": "note_on", "time": 24, "note": 58, "velocity": 116, "channel": 0}, {"type": "note_off", "time": 62, "note": 58, "velocity": 116, "channel": 0}, {"type": "note_on", "time": 26, "note": 55, "velocity": 102, "channel": 0}, {"type": "note_off", "time": 92, "note": 55, "velocity": 102, "channel": 0}, {"type": "note_on", "time": 6, "note": 57, "velocity": 109, "channel": 0}, {"type": "note_off", "time": 94, "note": 57, "velocity": 109, "channel": 0}, {"type": "note_on", "time": 0, "note": 60, "velocity": 109, "channel": 0}, {"type": "note_off", "time": 85, "note": 60, "velocity": 109, "channel": 0}, {"type": "note_on", "time": 13, "note": 58, "velocity": 110, "channel": 0}, {"type": "note_off", "time": 98, "note": 58, "velocity": 110, "channel": 0}, {"type": "note_on", "time": 26, "note": 60, "velocity": 106, "channel": 0}, {"type": "note_off", "time": 60, "note": 60, "velocity": 106, "channel": 0}, {"type": "note_on", "time": 6, "note": 61, "velocity": 88, "channel": 0}, {"type": "note_off", "time": 89, "note": 61, "velocity": 88, "channel": 0}, {"type": "note_on", "time": 15, "note": 63, "velocity": 95, "channel": 0}, {"type": "note_off", "time": 65, "note": 63, "velocity": 95, "channel": 0}, {"type": "note_on", "time": 11, "note": 65, "velocity": 115, "channel": 0}, {"type": "note_off", "time": 94, "note": 65, "velocity": 115, "channel": 0}, {"type": "note_on", "time": 6, "note": 68, "velocity": 112, "channel": 0}, {"type": "note_off", "time": 107, "note": 68, "velocity": 112, "channel": 0}, {"type": "note_on", "time": 0, "note": 67, "velocity": 110, "channel": 0}, {"type": "note_on", "time": 87, "note": 65, "velocity": 112, "channel": 0}, {"type": "note_off", "time": 0, "note": 67, "velocity": 110, "channel": 0}, {"type": "note_off", "time": 98, "note": 65, "velocity": 112, "channel": 0}, {"type": "note_on", "time": 4, "note": 63, "velocity": 115, "channel": 0}, {"type": "note_off", "time": 83, "note": 63, "velocity": 115, "channel": 0}, {"type": "note_on", "time": 11, "note": 62, "velocity": 115, "channel": 0}, {"type": "note_off", "time": 89, "note": 62, "velocity": 115, "channel": 0}, {"type": "note_on", "time": 6, "note": 61, "velocity": 108, "channel": 0}, {"type": "note_off", "time": 102, "note": 61, "velocity": 108, "channel": 0}, {"type": "note_on", "time": 12, "note": 59, "velocity": 104, "channel": 0}, {"type": "note_off", "time": 65, "note": 59, "velocity": 104, "channel": 0}, {"type": "note_on", "time": 4, "note": 60, "velocity": 107, "channel": 0}, {"type": "note_off", "time": 80, "note": 60, "velocity": 107, "channel": 0}, {"type": "note_on", "time": 11, "note": 61, "velocity": 113, "channel": 0}, {"type": "note_off", "time": 78, "note": 61, "velocity": 113, "channel": 0}, {"type": "note_on", "time": 17, "note": 58, "velocity": 112, "channel": 0}, {"type": "note_off", "time": 80, "note": 58, "velocity": 112, "channel": 0}, {"type": "note_on", "time": 64, "note": 55, "velocity": 100, "channel": 0}, {"type": "note_off", "time": 59, "note": 55, "velocity": 100, "channel": 0}, {"type": "note_on", "time": 10, "note": 56, "velocity": 108, "channel": 0}, {"type": "note_off", "time": 76, "note": 56, "velocity": 108, "channel": 0}, {"type": "note_on", "time": 7, "note": 58, "velocity": 112, "channel": 0}, {"type": "note_off", "time": 98, "note": 58, "velocity": 112, "channel": 0}, {"type": "note_on", "time": 2, "note": 59, "velocity": 104, "channel": 0}, {"type": "note_off", "time": 110, "note": 59, "velocity": 104, "channel": 0}, {"type": "note_on", "time": 8, "note": 58, "velocity": 90, "channel": 0}, {"type": "note_off", "time": 51, "note": 58, "velocity": 90, "channel": 0}, {"type": "note_on", "time": 15, "note": 65, "velocity": 113, "channel": 0}, {"type": "note_off", "time": 110, "note": 65, "velocity": 113, "channel": 0}, {"type": "note_on", "time": 4, "note": 64, "velocity": 110, "channel": 0}, {"type": "note_off", "time": 80, "note": 64, "velocity": 110, "channel": 0}, {"type": "note_on", "time": 6, "note": 63, "velocity": 117, "channel": 0}, {"type": "note_off", "time": 83, "note": 63, "velocity": 117, "channel": 0}, {"type": "note_on", "time": 31, "note": 61, "velocity": 110, "channel": 0}, {"type": "note_off", "time": 103, "note": 61, "velocity": 110, "channel": 0}, {"type": "note_on", "time": 4, "note": 60, "velocity": 100, "channel": 0}, {"type": "note_off", "time": 71, "note": 60, "velocity": 100, "channel": 0}, {"type": "note_on", "time": 2, "note": 59, "velocity": 118, "channel": 0}, {"type": "note_off", "time": 89, "note": 59, "velocity": 118, "channel": 0}, {"type": "note_on", "time": 8, "note": 58, "velocity": 114, "channel": 0}, {"type": "note_off", "time": 78, "note": 58, "velocity": 114, "channel": 0}, {"type": "note_on", "time": 4, "note": 56, "velocity": 118, "channel": 0}, {"type": "note_off", "time": 98, "note": 56, "velocity": 118, "channel": 0}, {"type": "note_on", "time": 17, "note": 55, "velocity": 107, "channel": 0}, {"type": "note_off", "time": 92, "note": 55, "velocity": 107, "channel": 0}, {"type": "note_on", "time": 6, "note": 53, "velocity": 108, "channel": 0}, {"type": "note_off", "time": 35, "note": 53, "velocity": 108, "channel": 0}, {"type": "note_on", "time": 20, "note": 52, "velocity": 110, "channel": 0}, {"type": "note_off", "time": 76, "note": 52, "velocity": 110, "channel": 0}, {"type": "note_on", "time": 31, "note": 55, "velocity": 117, "channel": 0}, {"type": "note_off", "time": 74, "note": 55, "velocity": 117, "channel": 0}, {"type": "note_on", "time": 11, "note": 53, "velocity": 115, "channel": 0}, {"type": "note_off", "time": 35, "note": 53, "velocity": 115, "channel": 0}, {"type": "note_on", "time": 8, "note": 54, "velocity": 112, "channel": 0}, {"type": "note_off", "time": 67, "note": 54, "velocity": 112, "channel": 0}, {"type": "note_on", "time": 31, "note": 52, "velocity": 98, "channel": 0}, {"type": "note_off", "time": 62, "note": 52, "velocity": 98, "channel": 0}, {"type": "note_on", "time": 29, "note": 53, "velocity": 100, "channel": 0}, {"type": "note_off", "time": 94, "note": 53, "velocity": 100, "channel": 0}, {"type": "note_on", "time": 0, "note": 55, "velocity": 112, "channel": 0}, {"type": "note_off", "time": 78, "note": 55, "velocity": 112, "channel": 0}, {"type": "note_on", "time": 33, "note": 56, "velocity": 107, "channel": 0}, {"type": "note_off", "time": 69, "note": 56, "velocity": 107, "channel": 0}, {"type": "note_on", "time": 0, "note": 58, "velocity": 108, "channel": 0}, {"type": "note_off", "time": 85, "note": 58, "velocity": 108, "channel": 0}, {"type": "note_on", "time": 0, "note": 60, "velocity": 107, "channel": 0}, {"type": "note_off", "time": 96, "note": 60, "velocity": 107, "channel": 0}, {"type": "note_on", "time": 24, "note": 56, "velocity": 95, "channel": 0}, {"type": "note_off", "time": 85, "note": 56, "velocity": 95, "channel": 0}, {"type": "note_on", "time": 7, "note": 58, "velocity": 113, "channel": 0}, {"type": "note_off", "time": 121, "note": 58, "velocity": 113, "channel": 0}, {"type": "note_on", "time": 183, "note": 58, "velocity": 105, "channel": 0}, {"type": "note_off", "time": 71, "note": 58, "velocity": 105, "channel": 0}, {"type": "note_on", "time": 116, "note": 64, "velocity": 103, "channel": 0}, {"type": "note_off", "time": 45, "note": 64, "velocity": 103, "channel": 0}, {"type": "note_on", "time": 6, "note": 67, "velocity": 120, "channel": 0}, {"type": "note_off", "time": 121, "note": 67, "velocity": 120, "channel": 0}, {"type": "note_on", "time": 21, "note": 64, "velocity": 106, "channel": 0}, {"type": "note_off", "time": 45, "note": 64, "velocity": 106, "channel": 0}, {"type": "note_on", "time": 5, "note": 65, "velocity": 117, "channel": 0}, {"type": "note_off", "time": 123, "note": 65, "velocity": 117, "channel": 0}, {"type": "note_on", "time": 18, "note": 67, "velocity": 119, "channel": 0}, {"type": "note_off", "time": 64, "note": 67, "velocity": 119, "channel": 0}, {"type": "note_on", "time": 13, "note": 68, "velocity": 116, "channel": 0}, {"type": "note_off", "time": 100, "note": 68, "velocity": 116, "channel": 0}, {"type": "note_on", "time": 8, "note": 70, "velocity": 99, "channel": 0}, {"type": "note_off", "time": 58, "note": 70, "velocity": 99, "channel": 0}, {"type": "note_on", "time": 8, "note": 72, "velocity": 111, "channel": 0}, {"type": "note_off", "time": 179, "note": 72, "velocity": 111, "channel": 0}, {"type": "note_on", "time": 0, "note": 72, "velocity": 116, "channel": 0}, {"type": "note_off", "time": 146, "note": 72, "velocity": 116, "channel": 0}, {"type": "note_on", "time": 67, "note": 70, "velocity": 120, "channel": 0}, {"type": "note_off", "time": 98, "note": 70, "velocity": 120, "channel": 0}, {"type": "note_on", "time": 76, "note": 70, "velocity": 123, "channel": 0}, {"type": "note_off", "time": 98, "note": 70, "velocity": 123, "channel": 0}, {"type": "note_on", "time": 2, "note": 68, "velocity": 113, "channel": 0}, {"type": "note_off", "time": 155, "note": 68, "velocity": 113, "channel": 0}, {"type": "note_on", "time": 33, "note": 68, "velocity": 121, "channel": 0}, {"type": "note_off", "time": 92, "note": 68, "velocity": 121, "channel": 0}, {"type": "note_on", "time": 8, "note": 65, "velocity": 111, "channel": 0}, {"type": "note_off", "time": 150, "note": 65, "velocity": 111, "channel": 0}, {"type": "note_on", "time": 797, "note": 65, "velocity": 121, "channel": 0}, {"type": "note_off", "time": 74, "note": 65, "velocity": 121, "channel": 0}, {"type": "note_on", "time": 11, "note": 66, "velocity": 123, "channel": 0}, {"type": "note_off", "time": 60, "note": 66, "velocity": 123, "channel": 0}, {"type": "note_on", "time": 18, "note": 65, "velocity": 119, "channel": 0}, {"type": "note_off", "time": 132, "note": 65, "velocity": 119, "channel": 0}, {"type": "note_on", "time": 2, "note": 64, "velocity": 120, "channel": 0}, {"type": "note_off", "time": 164, "note": 64, "velocity": 120, "channel": 0}, {"type": "note_on", "time": 6, "note": 65, "velocity": 113, "channel": 0}, {"type": "note_off", "time": 352, "note": 65, "velocity": 113, "channel": 0}, {"type": "note_on", "time": 35, "note": 64, "velocity": 113, "channel": 0}, {"type": "note_off", "time": 31, "note": 64, "velocity": 113, "channel": 0}, {"type": "note_on", "time": 4, "note": 65, "velocity": 112, "channel": 0}, {"type": "note_off", "time": 49, "note": 65, "velocity": 112, "channel": 0}, {"type": "note_on", "time": 0, "note": 63, "velocity": 120, "channel": 0}, {"type": "note_off", "time": 121, "note": 63, "velocity": 120, "channel": 0}, {"type": "note_on", "time": 11, "note": 60, "velocity": 91, "channel": 0}, {"type": "note_off", "time": 51, "note": 60, "velocity": 91, "channel": 0}, {"type": "note_on", "time": 2, "note": 61, "velocity": 112, "channel": 0}, {"type": "note_off", "time": 130, "note": 61, "velocity": 112, "channel": 0}, {"type": "note_on", "time": 17, "note": 57, "velocity": 99, "channel": 0}, {"type": "note_off", "time": 94, "note": 57, "velocity": 99, "channel": 0}, {"type": "note_on", "time": 1337, "note": 67, "velocity": 119, "channel": 0}, {"type": "note_off", "time": 58, "note": 67, "velocity": 119, "channel": 0}, {"type": "note_on", "time": 2, "note": 68, "velocity": 123, "channel": 0}, {"type": "note_off", "time": 182, "note": 68, "velocity": 123, "channel": 0}, {"type": "note_on", "time": 137, "note": 67, "velocity": 121, "channel": 0}, {"type": "note_off", "time": 143, "note": 67, "velocity": 121, "channel": 0}, {"type": "note_on", "time": 11, "note": 68, "velocity": 104, "channel": 0}, {"type": "note_off", "time": 53, "note": 68, "velocity": 104, "channel": 0}, {"type": "note_on", "time": 4, "note": 67, "velocity": 112, "channel": 0}, {"type": "note_off", "time": 56, "note": 67, "velocity": 112, "channel": 0}, {"type": "note_on", "time": 4, "note": 65, "velocity": 112, "channel": 0}, {"type": "note_off", "time": 155, "note": 65, "velocity": 112, "channel": 0}, {"type": "note_on", "time": 332, "note": 64, "velocity": 112, "channel": 0}, {"type": "note_off", "time": 56, "note": 64, "velocity": 112, "channel": 0}, {"type": "note_on", "time": 5, "note": 65, "velocity": 106, "channel": 0}, {"type": "note_off", "time": 44, "note": 65, "velocity": 106, "channel": 0}, {"type": "note_on", "time": 4, "note": 66, "velocity": 110, "channel": 0}, {"type": "note_off", "time": 67, "note": 66, "velocity": 110, "channel": 0}, {"type": "note_on", "time": 18, "note": 67, "velocity": 122, "channel": 0}, {"type": "note_off", "time": 78, "note": 67, "velocity": 122, "channel": 0}, {"type": "note_on", "time": 6, "note": 66, "velocity": 121, "channel": 0}, {"type": "note_off", "time": 35, "note": 66, "velocity": 121, "channel": 0}, {"type": "note_on", "time": 4, "note": 65, "velocity": 118, "channel": 0}, {"type": "note_off", "time": 38, "note": 65, "velocity": 118, "channel": 0}, {"type": "note_on", "time": 5, "note": 64, "velocity": 120, "channel": 0}, {"type": "note_off", "time": 89, "note": 64, "velocity": 120, "channel": 0}, {"type": "note_on", "time": 19, "note": 60, "velocity": 108, "channel": 0}, {"type": "note_off", "time": 62, "note": 60, "velocity": 108, "channel": 0}, {"type": "note_on", "time": 194, "note": 66, "velocity": 123, "channel": 0}, {"type": "note_off", "time": 93, "note": 66, "velocity": 123, "channel": 0}, {"type": "note_on", "time": 95, "note": 64, "velocity": 118, "channel": 0}, {"type": "note_off", "time": 112, "note": 64, "velocity": 118, "channel": 0}, {"type": "note_on", "time": 17, "note": 63, "velocity": 120, "channel": 0}, {"type": "note_off", "time": 74, "note": 63, "velocity": 120, "channel": 0}, {"type": "note_on", "time": 96, "note": 66, "velocity": 118, "channel": 0}, {"type": "note_off", "time": 123, "note": 66, "velocity": 118, "channel": 0}, {"type": "note_on", "time": 89, "note": 61, "velocity": 115, "channel": 0}, {"type": "note_off", "time": 98, "note": 61, "velocity": 115, "channel": 0}, {"type": "note_on", "time": 89, "note": 58, "velocity": 113, "channel": 0}, {"type": "note_off", "time": 90, "note": 58, "velocity": 113, "channel": 0}, {"type": "note_on", "time": 96, "note": 59, "velocity": 111, "channel": 0}, {"type": "note_off", "time": 114, "note": 59, "velocity": 111, "channel": 0}, {"type": "note_on", "time": 59, "note": 63, "velocity": 121, "channel": 0}, {"type": "note_off", "time": 60, "note": 63, "velocity": 121, "channel": 0}, {"type": "note_on", "time": 17, "note": 66, "velocity": 106, "channel": 0}, {"type": "note_off", "time": 152, "note": 66, "velocity": 106, "channel": 0}, {"type": "note_on", "time": 55, "note": 65, "velocity": 110, "channel": 0}, {"type": "note_off", "time": 91, "note": 65, "velocity": 110, "channel": 0}, {"type": "note_on", "time": 85, "note": 63, "velocity": 118, "channel": 0}, {"type": "note_off", "time": 84, "note": 63, "velocity": 118, "channel": 0}, {"type": "note_on", "time": 266, "note": 58, "velocity": 109, "channel": 0}, {"type": "note_off", "time": 71, "note": 58, "velocity": 109, "channel": 0}, {"type": "note_on", "time": 85, "note": 62, "velocity": 120, "channel": 0}, {"type": "note_off", "time": 74, "note": 62, "velocity": 120, "channel": 0}, {"type": "note_on", "time": 329, "note": 58, "velocity": 111, "channel": 0}, {"type": "note_off", "time": 70, "note": 58, "velocity": 111, "channel": 0}, {"type": "note_on", "time": 124, "note": 62, "velocity": 110, "channel": 0}, {"type": "note_off", "time": 68, "note": 62, "velocity": 110, "channel": 0}, {"type": "note_on", "time": 191, "note": 69, "velocity": 118, "channel": 0}, {"type": "note_off", "time": 80, "note": 69, "velocity": 118, "channel": 0}, {"type": "note_on", "time": 102, "note": 67, "velocity": 115, "channel": 0}, {"type": "note_off", "time": 80, "note": 67, "velocity": 115, "channel": 0}, {"type": "note_on", "time": 135, "note": 64, "velocity": 116, "channel": 0}, {"type": "note_off", "time": 33, "note": 64, "velocity": 116, "channel": 0}, {"type": "note_on", "time": 0, "note": 65, "velocity": 112, "channel": 0}, {"type": "note_off", "time": 128, "note": 65, "velocity": 112, "channel": 0}, {"type": "note_on", "time": 25, "note": 62, "velocity": 117, "channel": 0}, {"type": "note_off", "time": 67, "note": 62, "velocity": 117, "channel": 0}, {"type": "note_on", "time": 474, "note": 68, "velocity": 123, "channel": 0}, {"type": "note_off", "time": 87, "note": 68, "velocity": 123, "channel": 0}, {"type": "note_on", "time": 25, "note": 69, "velocity": 115, "channel": 0}, {"type": "note_off", "time": 28, "note": 69, "velocity": 115, "channel": 0}, {"type": "note_on", "time": 2, "note": 68, "velocity": 121, "channel": 0}, {"type": "note_off", "time": 73, "note": 68, "velocity": 121, "channel": 0}, {"type": "note_on", "time": 3, "note": 67, "velocity": 114, "channel": 0}, {"type": "note_off", "time": 61, "note": 67, "velocity": 114, "channel": 0}, {"type": "note_on", "time": 31, "note": 65, "velocity": 117, "channel": 0}, {"type": "note_off", "time": 82, "note": 65, "velocity": 117, "channel": 0}, {"type": "note_on", "time": 5, "note": 63, "velocity": 117, "channel": 0}, {"type": "note_off", "time": 83, "note": 63, "velocity": 117, "channel": 0}, {"type": "note_on", "time": 17, "note": 62, "velocity": 117, "channel": 0}, {"type": "note_off", "time": 70, "note": 62, "velocity": 117, "channel": 0}, {"type": "note_on", "time": 11, "note": 61, "velocity": 107, "channel": 0}, {"type": "note_off", "time": 69, "note": 61, "velocity": 107, "channel": 0}, {"type": "note_on", "time": 59, "note": 58, "velocity": 104, "channel": 0}, {"type": "note_off", "time": 64, "note": 58, "velocity": 104, "channel": 0}, {"type": "note_on", "time": 17, "note": 60, "velocity": 109, "channel": 0}, {"type": "note_off", "time": 64, "note": 60, "velocity": 109, "channel": 0}, {"type": "note_on", "time": 16, "note": 61, "velocity": 120, "channel": 0}, {"type": "note_off", "time": 68, "note": 61, "velocity": 120, "channel": 0}, {"type": "note_on", "time": 6, "note": 58, "velocity": 108, "channel": 0}, {"type": "note_off", "time": 85, "note": 58, "velocity": 108, "channel": 0}, {"type": "note_on", "time": 18, "note": 55, "velocity": 101, "channel": 0}, {"type": "note_off", "time": 69, "note": 55, "velocity": 101, "channel": 0}, {"type": "note_on", "time": 7, "note": 56, "velocity": 118, "channel": 0}, {"type": "note_off", "time": 80, "note": 56, "velocity": 118, "channel": 0}, {"type": "note_on", "time": 101, "note": 68, "velocity": 119, "channel": 0}, {"type": "note_off", "time": 85, "note": 68, "velocity": 119, "channel": 0}, {"type": "note_on", "time": 11, "note": 69, "velocity": 117, "channel": 0}, {"type": "note_off", "time": 35, "note": 69, "velocity": 117, "channel": 0}, {"type": "note_on", "time": 6, "note": 68, "velocity": 122, "channel": 0}, {"type": "note_off", "time": 67, "note": 68, "velocity": 122, "channel": 0}, {"type": "note_on", "time": 17, "note": 67, "velocity": 114, "channel": 0}, {"type": "note_off", "time": 79, "note": 67, "velocity": 114, "channel": 0}, {"type": "note_on", "time": 8, "note": 65, "velocity": 116, "channel": 0}, {"type": "note_off", "time": 92, "note": 65, "velocity": 116, "channel": 0}, {"type": "note_on", "time": 15, "note": 60, "velocity": 99, "channel": 0}, {"type": "note_off", "time": 86, "note": 60, "velocity": 99, "channel": 0}, {"type": "note_on", "time": 5, "note": 58, "velocity": 101, "channel": 0}, {"type": "note_off", "time": 80, "note": 58, "velocity": 101, "channel": 0}, {"type": "note_on", "time": 7, "note": 65, "velocity": 118, "channel": 0}, {"type": "note_off", "time": 94, "note": 65, "velocity": 118, "channel": 0}, {"type": "note_on", "time": 11, "note": 62, "velocity": 99, "channel": 0}, {"type": "note_off", "time": 73, "note": 62, "velocity": 99, "channel": 0}, {"type": "note_on", "time": 4, "note": 64, "velocity": 122, "channel": 0}, {"type": "note_off", "time": 105, "note": 64, "velocity": 122, "channel": 0}, {"type": "note_on", "time": 0, "note": 67, "velocity": 118, "channel": 0}, {"type": "note_off", "time": 95, "note": 67, "velocity": 118, "channel": 0}, {"type": "note_on", "time": 5, "note": 61, "velocity": 102, "channel": 0}, {"type": "note_off", "time": 75, "note": 61, "velocity": 102, "channel": 0}, {"type": "note_on", "time": 48, "note": 61, "velocity": 108, "channel": 0}, {"type": "note_off", "time": 79, "note": 61, "velocity": 108, "channel": 0}, {"type": "note_on", "time": 9, "note": 60, "velocity": 100, "channel": 0}, {"type": "note_off", "time": 64, "note": 60, "velocity": 100, "channel": 0}, {"type": "note_on", "time": 13, "note": 58, "velocity": 116, "channel": 0}, {"type": "note_off", "time": 77, "note": 58, "velocity": 116, "channel": 0}, {"type": "note_on", "time": 16, "note": 56, "velocity": 108, "channel": 0}, {"type": "note_off", "time": 96, "note": 56, "velocity": 108, "channel": 0}, {"type": "note_on", "time": 230, "note": 52, "velocity": 98, "channel": 0}, {"type": "note_off", "time": 53, "note": 52, "velocity": 98, "channel": 0}, {"type": "note_on", "time": 0, "note": 53, "velocity": 98, "channel": 0}, {"type": "note_off", "time": 55, "note": 53, "velocity": 98, "channel": 0}, {"type": "note_on", "time": 48, "note": 55, "velocity": 115, "channel": 0}, {"type": "note_off", "time": 64, "note": 55, "velocity": 115, "channel": 0}, {"type": "note_on", "time": 4, "note": 56, "velocity": 112, "channel": 0}, {"type": "note_off", "time": 87, "note": 56, "velocity": 112, "channel": 0}, {"type": "note_on", "time": 20, "note": 59, "velocity": 114, "channel": 0}, {"type": "note_off", "time": 104, "note": 59, "velocity": 114, "channel": 0}, {"type": "note_on", "time": 4, "note": 60, "velocity": 99, "channel": 0}, {"type": "note_off", "time": 55, "note": 60, "velocity": 99, "channel": 0}, {"type": "note_on", "time": 32, "note": 64, "velocity": 118, "channel": 0}, {"type": "note_off", "time": 89, "note": 64, "velocity": 118, "channel": 0}, {"type": "note_on", "time": 5, "note": 65, "velocity": 113, "channel": 0}, {"type": "note_off", "time": 50, "note": 65, "velocity": 113, "channel": 0}, {"type": "note_on", "time": 8, "note": 67, "velocity": 118, "channel": 0}, {"type": "note_off", "time": 97, "note": 67, "velocity": 118, "channel": 0}, {"type": "note_on", "time": 10, "note": 68, "velocity": 123, "channel": 0}, {"type": "note_off", "time": 106, "note": 68, "velocity": 123, "channel": 0}, {"type": "note_on", "time": 0, "note": 71, "velocity": 122, "channel": 0}, {"type": "note_off", "time": 79, "note": 71, "velocity": 122, "channel": 0}, {"type": "note_on", "time": 2, "note": 72, "velocity": 121, "channel": 0}, {"type": "note_off", "time": 101, "note": 72, "velocity": 121, "channel": 0}, {"type": "note_on", "time": 14, "note": 67, "velocity": 120, "channel": 0}, {"type": "note_off", "time": 66, "note": 67, "velocity": 120, "channel": 0}, {"type": "note_on", "time": 0, "note": 68, "velocity": 118, "channel": 0}, {"type": "note_off", "time": 123, "note": 68, "velocity": 118, "channel": 0}, {"type": "note_on", "time": 392, "note": 64, "velocity": 10, "channel": 0}, {"type": "note_off", "time": 78, "note": 64, "velocity": 10, "channel": 0}, {"type": "note_on", "time": 5, "note": 65, "velocity": 10, "channel": 0}, {"type": "note_off", "time": 97, "note": 65, "velocity": 10, "channel": 0}, {"type": "note_on", "time": 10, "note": 61, "velocity": 114, "channel": 0}, {"type": "note_off", "time": 76, "note": 61, "velocity": 114, "channel": 0}, {"type": "note_on", "time": 3, "note": 62, "velocity": 113, "channel": 0}, {"type": "note_off", "time": 91, "note": 62, "velocity": 113, "channel": 0}, {"type": "note_on", "time": 606, "note": 60, "velocity": 110, "channel": 0}, {"type": "note_off", "time": 86, "note": 60, "velocity": 110, "channel": 0}, {"type": "note_on", "time": 0, "note": 61, "velocity": 110, "channel": 0}, {"type": "note_off", "time": 78, "note": 61, "velocity": 110, "channel": 0}, {"type": "note_on", "time": 0, "note": 63, "velocity": 108, "channel": 0}, {"type": "note_off", "time": 101, "note": 63, "velocity": 108, "channel": 0}, {"type": "note_on", "time": 0, "note": 65, "velocity": 112, "channel": 0}, {"type": "note_off", "time": 88, "note": 65, "velocity": 112, "channel": 0}, {"type": "note_on", "time": 15, "note": 60, "velocity": 106, "channel": 0}, {"type": "note_off", "time": 75, "note": 60, "velocity": 106, "channel": 0}, {"type": "note_on", "time": 0, "note": 63, "velocity": 116, "channel": 0}, {"type": "note_off", "time": 116, "note": 63, "velocity": 116, "channel": 0}, {"type": "note_on", "time": 8, "note": 60, "velocity": 97, "channel": 0}, {"type": "note_off", "time": 86, "note": 60, "velocity": 97, "channel": 0}, {"type": "note_on", "time": 0, "note": 61, "velocity": 104, "channel": 0}, {"type": "note_off", "time": 93, "note": 61, "velocity": 104, "channel": 0}, {"type": "note_on", "time": 11, "note": 60, "velocity": 106, "channel": 0}, {"type": "note_off", "time": 51, "note": 60, "velocity": 106, "channel": 0}, {"type": "note_on", "time": 6, "note": 58, "velocity": 110, "channel": 0}, {"type": "note_off", "time": 115, "note": 58, "velocity": 110, "channel": 0}, {"type": "note_on", "time": 14, "note": 56, "velocity": 111, "channel": 0}, {"type": "note_on", "time": 96, "note": 57, "velocity": 112, "channel": 0}, {"type": "note_off", "time": 0, "note": 56, "velocity": 111, "channel": 0}, {"type": "note_off", "time": 88, "note": 57, "velocity": 112, "channel": 0}, {"type": "note_on", "time": 1, "note": 60, "velocity": 111, "channel": 0}, {"type": "note_off", "time": 76, "note": 60, "velocity": 111, "channel": 0}, {"type": "note_on", "time": 0, "note": 63, "velocity": 120, "channel": 0}, {"type": "note_off", "time": 107, "note": 63, "velocity": 120, "channel": 0}, {"type": "note_on", "time": 1, "note": 66, "velocity": 121, "channel": 0}, {"type": "note_off", "time": 121, "note": 66, "velocity": 121, "channel": 0}, {"type": "note_on", "time": 0, "note": 65, "velocity": 113, "channel": 0}, {"type": "note_off", "time": 74, "note": 65, "velocity": 113, "channel": 0}, {"type": "note_on", "time": 3, "note": 63, "velocity": 120, "channel": 0}, {"type": "note_off", "time": 92, "note": 63, "velocity": 120, "channel": 0}, {"type": "note_on", "time": 8, "note": 60, "velocity": 106, "channel": 0}, {"type": "note_off", "time": 102, "note": 60, "velocity": 106, "channel": 0}, {"type": "note_on", "time": 1, "note": 61, "velocity": 109, "channel": 0}, {"type": "note_off", "time": 101, "note": 61, "velocity": 109, "channel": 0}, {"type": "note_on", "time": 847, "note": 53, "velocity": 96, "channel": 0}, {"type": "note_off", "time": 85, "note": 53, "velocity": 96, "channel": 0}, {"type": "note_on", "time": 1, "note": 55, "velocity": 113, "channel": 0}, {"type": "note_off", "time": 178, "note": 55, "velocity": 113, "channel": 0}, {"type": "note_on", "time": 2, "note": 57, "velocity": 114, "channel": 0}, {"type": "note_off", "time": 122, "note": 57, "velocity": 114, "channel": 0}, {"type": "note_on", "time": 797, "note": 66, "velocity": 123, "channel": 0}, {"type": "note_off", "time": 40, "note": 66, "velocity": 123, "channel": 0}, {"type": "note_on", "time": 0, "note": 68, "velocity": 122, "channel": 0}, {"type": "note_off", "time": 328, "note": 68, "velocity": 122, "channel": 0}, {"type": "note_on", "time": 0, "note": 67, "velocity": 117, "channel": 0}, {"type": "note_on", "time": 266, "note": 66, "velocity": 114, "channel": 0}, {"type": "note_off", "time": 0, "note": 67, "velocity": 117, "channel": 0}, {"type": "note_off", "time": 48, "note": 66, "velocity": 114, "channel": 0}, {"type": "note_on", "time": 4, "note": 67, "velocity": 113, "channel": 0}, {"type": "note_off", "time": 42, "note": 67, "velocity": 113, "channel": 0}, {"type": "note_on", "time": 0, "note": 65, "velocity": 113, "channel": 0}, {"type": "note_off", "time": 104, "note": 65, "velocity": 113, "channel": 0}, {"type": "note_on", "time": 3, "note": 63, "velocity": 120, "channel": 0}, {"type": "note_off", "time": 85, "note": 63, "velocity": 120, "channel": 0}, {"type": "note_on", "time": 79, "note": 63, "velocity": 116, "channel": 0}, {"type": "note_off", "time": 123, "note": 63, "velocity": 116, "channel": 0}, {"type": "note_on", "time": 3, "note": 65, "velocity": 118, "channel": 0}, {"type": "note_off", "time": 89, "note": 65, "velocity": 118, "channel": 0}, {"type": "note_on", "time": 3, "note": 66, "velocity": 127, "channel": 0}, {"type": "note_off", "time": 84, "note": 66, "velocity": 127, "channel": 0}, {"type": "note_on", "time": 9, "note": 65, "velocity": 117, "channel": 0}, {"type": "note_off", "time": 24, "note": 65, "velocity": 117, "channel": 0}, {"type": "note_on", "time": 6, "note": 64, "velocity": 119, "channel": 0}, {"type": "note_off", "time": 61, "note": 64, "velocity": 119, "channel": 0}, {"type": "note_on", "time": 14, "note": 63, "velocity": 121, "channel": 0}, {"type": "note_off", "time": 89, "note": 63, "velocity": 121, "channel": 0}, {"type": "note_on", "time": 6, "note": 61, "velocity": 115, "channel": 0}, {"type": "note_off", "time": 91, "note": 61, "velocity": 115, "channel": 0}, {"type": "note_on", "time": 17, "note": 60, "velocity": 100, "channel": 0}, {"type": "note_off", "time": 61, "note": 60, "velocity": 100, "channel": 0}, {"type": "note_on", "time": 45, "note": 59, "velocity": 117, "channel": 0}, {"type": "note_off", "time": 65, "note": 59, "velocity": 117, "channel": 0}, {"type": "note_on", "time": 11, "note": 58, "velocity": 115, "channel": 0}, {"type": "note_off", "time": 76, "note": 58, "velocity": 115, "channel": 0}, {"type": "note_on", "time": 7, "note": 56, "velocity": 102, "channel": 0}, {"type": "note_off", "time": 94, "note": 56, "velocity": 102, "channel": 0}, {"type": "note_on", "time": 6, "note": 57, "velocity": 120, "channel": 0}, {"type": "note_off", "time": 71, "note": 57, "velocity": 120, "channel": 0}, {"type": "note_on", "time": 17, "note": 54, "velocity": 112, "channel": 0}, {"type": "note_off", "time": 94, "note": 54, "velocity": 112, "channel": 0}, {"type": "note_on", "time": 6, "note": 53, "velocity": 104, "channel": 0}, {"type": "note_off", "time": 75, "note": 53, "velocity": 104, "channel": 0}, {"type": "note_on", "time": 0, "note": 51, "velocity": 99, "channel": 0}, {"type": "note_off", "time": 77, "note": 51, "velocity": 99, "channel": 0}, {"type": "note_on", "time": 255, "note": 53, "velocity": 93, "channel": 0}, {"type": "note_off", "time": 83, "note": 53, "velocity": 93, "channel": 0}, {"type": "note_on", "time": 6, "note": 55, "velocity": 99, "channel": 0}, {"type": "note_off", "time": 94, "note": 55, "velocity": 99, "channel": 0}, {"type": "note_on", "time": 3, "note": 60, "velocity": 115, "channel": 0}, {"type": "note_off", "time": 77, "note": 60, "velocity": 115, "channel": 0}, {"type": "note_on", "time": 8, "note": 61, "velocity": 110, "channel": 0}, {"type": "note_off", "time": 70, "note": 61, "velocity": 110, "channel": 0}, {"type": "note_on", "time": 2, "note": 60, "velocity": 110, "channel": 0}, {"type": "note_off", "time": 70, "note": 60, "velocity": 110, "channel": 0}, {"type": "note_on", "time": 23, "note": 58, "velocity": 108, "channel": 0}, {"type": "note_off", "time": 101, "note": 58, "velocity": 108, "channel": 0}, {"type": "note_on", "time": 6, "note": 57, "velocity": 112, "channel": 0}, {"type": "note_off", "time": 83, "note": 57, "velocity": 112, "channel": 0}, {"type": "note_on", "time": 8, "note": 56, "velocity": 115, "channel": 0}, {"type": "note_off", "time": 110, "note": 56, "velocity": 115, "channel": 0}, {"type": "note_on", "time": 2, "note": 55, "velocity": 103, "channel": 0}, {"type": "note_off", "time": 93, "note": 55, "velocity": 103, "channel": 0}, {"type": "note_on", "time": 173, "note": 54, "velocity": 110, "channel": 0}, {"type": "note_off", "time": 97, "note": 54, "velocity": 110, "channel": 0}, {"type": "note_on", "time": 2, "note": 52, "velocity": 100, "channel": 0}, {"type": "note_off", "time": 93, "note": 52, "velocity": 100, "channel": 0}, {"type": "note_on", "time": 2, "note": 49, "velocity": 95, "channel": 0}, {"type": "note_off", "time": 83, "note": 49, "velocity": 95, "channel": 0}, {"type": "note_on", "time": 4, "note": 51, "velocity": 113, "channel": 0}, {"type": "note_off", "time": 82, "note": 51, "velocity": 113, "channel": 0}, {"type": "note_on", "time": 177, "note": 51, "velocity": 98, "channel": 0}, {"type": "note_off", "time": 59, "note": 51, "velocity": 98, "channel": 0}, {"type": "note_on", "time": 0, "note": 55, "velocity": 103, "channel": 0}, {"type": "note_off", "time": 52, "note": 55, "velocity": 103, "channel": 0}, {"type": "note_on", "time": 12, "note": 58, "velocity": 119, "channel": 0}, {"type": "note_off", "time": 92, "note": 58, "velocity": 119, "channel": 0}, {"type": "note_on", "time": 4, "note": 56, "velocity": 112, "channel": 0}, {"type": "note_off", "time": 97, "note": 56, "velocity": 112, "channel": 0}, {"type": "note_on", "time": 10, "note": 55, "velocity": 108, "channel": 0}, {"type": "note_off", "time": 104, "note": 55, "velocity": 108, "channel": 0}, {"type": "note_on", "time": 4, "note": 53, "velocity": 116, "channel": 0}, {"type": "note_off", "time": 84, "note": 53, "velocity": 116, "channel": 0}, {"type": "note_on", "time": 3, "note": 52, "velocity": 108, "channel": 0}, {"type": "note_off", "time": 70, "note": 52, "velocity": 108, "channel": 0}, {"type": "note_on", "time": 17, "note": 55, "velocity": 109, "channel": 0}, {"type": "note_off", "time": 74, "note": 55, "velocity": 109, "channel": 0}, {"type": "note_on", "time": 16, "note": 58, "velocity": 111, "channel": 0}, {"type": "note_off", "time": 76, "note": 58, "velocity": 111, "channel": 0}, {"type": "note_on", "time": 52, "note": 60, "velocity": 111, "channel": 0}, {"type": "note_off", "time": 37, "note": 60, "velocity": 111, "channel": 0}, {"type": "note_on", "time": 1, "note": 61, "velocity": 113, "channel": 0}, {"type": "note_off", "time": 84, "note": 61, "velocity": 113, "channel": 0}, {"type": "note_on", "time": 6, "note": 64, "velocity": 121, "channel": 0}, {"type": "note_off", "time": 88, "note": 64, "velocity": 121, "channel": 0}, {"type": "note_on", "time": 2, "note": 67, "velocity": 121, "channel": 0}, {"type": "note_off", "time": 106, "note": 67, "velocity": 121, "channel": 0}, {"type": "note_on", "time": 18, "note": 64, "velocity": 121, "channel": 0}, {"type": "note_off", "time": 73, "note": 64, "velocity": 121, "channel": 0}, {"type": "note_on", "time": 13, "note": 65, "velocity": 117, "channel": 0}, {"type": "note_off", "time": 108, "note": 65, "velocity": 117, "channel": 0}, {"type": "note_on", "time": 14, "note": 62, "velocity": 112, "channel": 0}, {"type": "note_off", "time": 102, "note": 62, "velocity": 112, "channel": 0}, {"type": "note_on", "time": 917, "note": 60, "velocity": 115, "channel": 0}, {"type": "note_off", "time": 92, "note": 60, "velocity": 115, "channel": 0}, {"type": "note_on", "time": 8, "note": 65, "velocity": 112, "channel": 0}, {"type": "note_off", "time": 71, "note": 65, "velocity": 112, "channel": 0}, {"type": "note_on", "time": 2, "note": 68, "velocity": 123, "channel": 0}, {"type": "note_off", "time": 98, "note": 68, "velocity": 123, "channel": 0}, {"type": "note_on", "time": 57, "note": 72, "velocity": 123, "channel": 0}, {"type": "note_off", "time": 113, "note": 72, "velocity": 123, "channel": 0}, {"type": "note_on", "time": 64, "note": 72, "velocity": 121, "channel": 0}, {"type": "note_off", "time": 89, "note": 72, "velocity": 121, "channel": 0}, {"type": "note_on", "time": 26, "note": 66, "velocity": 116, "channel": 0}, {"type": "note_off", "time": 84, "note": 66, "velocity": 116, "channel": 0}, {"type": "note_on", "time": 4, "note": 67, "velocity": 117, "channel": 0}, {"type": "note_off", "time": 584, "note": 67, "velocity": 117, "channel": 0}, {"type": "note_on", "time": 7, "note": 70, "velocity": 123, "channel": 0}, {"type": "note_off", "time": 133, "note": 70, "velocity": 123, "channel": 0}, {"type": "note_on", "time": 1, "note": 67, "velocity": 109, "channel": 0}, {"type": "note_off", "time": 39, "note": 67, "velocity": 109, "channel": 0}, {"type": "note_on", "time": 11, "note": 68, "velocity": 123, "channel": 0}, {"type": "note_off", "time": 149, "note": 68, "velocity": 123, "channel": 0}, {"type": "note_on", "time": 29, "note": 65, "velocity": 110, "channel": 0}, {"type": "note_off", "time": 220, "note": 65, "velocity": 110, "channel": 0}, {"type": "note_on", "time": 375, "note": 65, "velocity": 120, "channel": 0}, {"type": "note_off", "time": 78, "note": 65, "velocity": 120, "channel": 0}, {"type": "note_on", "time": 0, "note": 66, "velocity": 122, "channel": 0}, {"type": "note_off", "time": 66, "note": 66, "velocity": 122, "channel": 0}, {"type": "note_on", "time": 0, "note": 64, "velocity": 119, "channel": 0}, {"type": "note_off", "time": 75, "note": 64, "velocity": 119, "channel": 0}, {"type": "note_on", "time": 3, "note": 63, "velocity": 119, "channel": 0}, {"type": "note_off", "time": 83, "note": 63, "velocity": 119, "channel": 0}, {"type": "note_on", "time": 7, "note": 61, "velocity": 109, "channel": 0}, {"type": "note_off", "time": 113, "note": 61, "velocity": 109, "channel": 0}, {"type": "note_on", "time": 0, "note": 60, "velocity": 101, "channel": 0}, {"type": "note_off", "time": 82, "note": 60, "velocity": 101, "channel": 0}, {"type": "note_on", "time": 10, "note": 59, "velocity": 114, "channel": 0}, {"type": "note_off", "time": 113, "note": 59, "velocity": 114, "channel": 0}, {"type": "note_on", "time": 6, "note": 58, "velocity": 108, "channel": 0}, {"type": "note_off", "time": 67, "note": 58, "velocity": 108, "channel": 0}, {"type": "note_on", "time": 20, "note": 56, "velocity": 104, "channel": 0}, {"type": "note_off", "time": 85, "note": 56, "velocity": 104, "channel": 0}, {"type": "note_on", "time": 6, "note": 57, "velocity": 116, "channel": 0}, {"type": "note_off", "time": 93, "note": 57, "velocity": 116, "channel": 0}, {"type": "note_on", "time": 31, "note": 60, "velocity": 107, "channel": 0}, {"type": "note_off", "time": 97, "note": 60, "velocity": 107, "channel": 0}, {"type": "note_on", "time": 42, "note": 63, "velocity": 119, "channel": 0}, {"type": "note_off", "time": 140, "note": 63, "velocity": 119, "channel": 0}, {"type": "note_on", "time": 26, "note": 65, "velocity": 111, "channel": 0}, {"type": "note_off", "time": 148, "note": 65, "velocity": 111, "channel": 0}, {"type": "note_on", "time": 62, "note": 66, "velocity": 117, "channel": 0}, {"type": "note_off", "time": 132, "note": 66, "velocity": 117, "channel": 0}, {"type": "note_on", "time": 1, "note": 68, "velocity": 122, "channel": 0}, {"type": "note_off", "time": 111, "note": 68, "velocity": 122, "channel": 0}, {"type": "note_on", "time": 34, "note": 65, "velocity": 117, "channel": 0}, {"type": "note_off", "time": 151, "note": 65, "velocity": 117, "channel": 0}, {"type": "note_on", "time": 5, "note": 63, "velocity": 116, "channel": 0}, {"type": "note_off", "time": 103, "note": 63, "velocity": 116, "channel": 0}, {"type": "note_on", "time": 5, "note": 65, "velocity": 112, "channel": 0}, {"type": "note_off", "time": 108, "note": 65, "velocity": 112, "channel": 0}, {"type": "note_on", "time": 17, "note": 61, "velocity": 111, "channel": 0}, {"type": "note_off", "time": 424, "note": 61, "velocity": 111, "channel": 0}, {"type": "note_on", "time": 447, "note": 68, "velocity": 123, "channel": 0}, {"type": "note_off", "time": 105, "note": 68, "velocity": 123, "channel": 0}, {"type": "note_on", "time": 65, "note": 65, "velocity": 115, "channel": 0}, {"type": "note_off", "time": 97, "note": 65, "velocity": 115, "channel": 0}, {"type": "note_on", "time": 5, "note": 61, "velocity": 113, "channel": 0}, {"type": "note_off", "time": 104, "note": 61, "velocity": 113, "channel": 0}, {"type": "note_on", "time": 25, "note": 58, "velocity": 105, "channel": 0}, {"type": "note_off", "time": 70, "note": 58, "velocity": 105, "channel": 0}, {"type": "note_on", "time": 5, "note": 59, "velocity": 109, "channel": 0}, {"type": "note_off", "time": 85, "note": 59, "velocity": 109, "channel": 0}, {"type": "note_on", "time": 279, "note": 67, "velocity": 123, "channel": 0}, {"type": "note_off", "time": 78, "note": 67, "velocity": 123, "channel": 0}, {"type": "note_on", "time": 22, "note": 68, "velocity": 122, "channel": 0}, {"type": "note_off", "time": 69, "note": 68, "velocity": 122, "channel": 0}, {"type": "note_on", "time": 7, "note": 67, "velocity": 119, "channel": 0}, {"type": "note_off", "time": 91, "note": 67, "velocity": 119, "channel": 0}, {"type": "note_on", "time": 14, "note": 65, "velocity": 115, "channel": 0}, {"type": "note_off", "time": 86, "note": 65, "velocity": 115, "channel": 0}, {"type": "note_on", "time": 8, "note": 64, "velocity": 109, "channel": 0}, {"type": "note_off", "time": 102, "note": 64, "velocity": 109, "channel": 0}, {"type": "note_on", "time": 24, "note": 60, "velocity": 106, "channel": 0}, {"type": "note_off", "time": 60, "note": 60, "velocity": 106, "channel": 0}, {"type": "note_on", "time": 10, "note": 57, "velocity": 109, "channel": 0}, {"type": "note_off", "time": 97, "note": 57, "velocity": 109, "channel": 0}, {"type": "note_on", "time": 11, "note": 56, "velocity": 113, "channel": 0}, {"type": "note_off", "time": 75, "note": 56, "velocity": 113, "channel": 0}, {"type": "note_on", "time": 10, "note": 55, "velocity": 107, "channel": 0}, {"type": "note_off", "time": 75, "note": 55, "velocity": 107, "channel": 0}, {"type": "note_on", "time": 74, "note": 52, "velocity": 102, "channel": 0}, {"type": "note_off", "time": 65, "note": 52, "velocity": 102, "channel": 0}, {"type": "note_on", "time": 6, "note": 55, "velocity": 106, "channel": 0}, {"type": "note_off", "time": 58, "note": 55, "velocity": 106, "channel": 0}, {"type": "note_on", "time": 15, "note": 58, "velocity": 106, "channel": 0}, {"type": "note_off", "time": 52, "note": 58, "velocity": 106, "channel": 0}, {"type": "note_on", "time": 5, "note": 66, "velocity": 120, "channel": 0}, {"type": "note_off", "time": 87, "note": 66, "velocity": 120, "channel": 0}, {"type": "note_on", "time": 1, "note": 67, "velocity": 116, "channel": 0}, {"type": "note_off", "time": 61, "note": 67, "velocity": 116, "channel": 0}, {"type": "note_on", "time": 2, "note": 66, "velocity": 118, "channel": 0}, {"type": "note_off", "time": 34, "note": 66, "velocity": 118, "channel": 0}, {"type": "note_on", "time": 6, "note": 64, "velocity": 121, "channel": 0}, {"type": "note_off", "time": 70, "note": 64, "velocity": 121, "channel": 0}, {"type": "note_on", "time": 16, "note": 65, "velocity": 114, "channel": 0}, {"type": "note_off", "time": 40, "note": 65, "velocity": 114, "channel": 0}, {"type": "note_on", "time": 1, "note": 63, "velocity": 120, "channel": 0}, {"type": "note_off", "time": 55, "note": 63, "velocity": 120, "channel": 0}, {"type": "note_on", "time": 6, "note": 61, "velocity": 107, "channel": 0}, {"type": "note_off", "time": 114, "note": 61, "velocity": 107, "channel": 0}, {"type": "note_on", "time": 101, "note": 65, "velocity": 120, "channel": 0}, {"type": "note_off", "time": 56, "note": 65, "velocity": 120, "channel": 0}, {"type": "note_on", "time": 10, "note": 66, "velocity": 120, "channel": 0}, {"type": "note_off", "time": 120, "note": 66, "velocity": 120, "channel": 0}, {"type": "note_on", "time": 7, "note": 61, "velocity": 112, "channel": 0}, {"type": "note_off", "time": 149, "note": 61, "velocity": 112, "channel": 0}, {"type": "note_on", "time": 3, "note": 58, "velocity": 111, "channel": 0}, {"type": "note_off", "time": 200, "note": 58, "velocity": 111, "channel": 0}, {"type": "note_on", "time": 20, "note": 59, "velocity": 116, "channel": 0}, {"type": "note_off", "time": 296, "note": 59, "velocity": 116, "channel": 0}, {"type": "note_on", "time": 328, "note": 64, "velocity": 112, "channel": 0}, {"type": "note_off", "time": 119, "note": 64, "velocity": 112, "channel": 0}, {"type": "note_on", "time": 6, "note": 65, "velocity": 113, "channel": 0}, {"type": "note_off", "time": 342, "note": 65, "velocity": 113, "channel": 0}, {"type": "note_on", "time": 28, "note": 57, "velocity": 102, "channel": 0}, {"type": "note_off", "time": 94, "note": 57, "velocity": 102, "channel": 0}, {"type": "note_on", "time": 18, "note": 58, "velocity": 112, "channel": 0}, {"type": "note_off", "time": 65, "note": 58, "velocity": 112, "channel": 0}, {"type": "note_on", "time": 41, "note": 62, "velocity": 101, "channel": 0}, {"type": "note_off", "time": 58, "note": 62, "velocity": 101, "channel": 0}, {"type": "note_on", "time": 8, "note": 65, "velocity": 108, "channel": 0}, {"type": "note_off", "time": 68, "note": 65, "velocity": 108, "channel": 0}, {"type": "note_on", "time": 11, "note": 69, "velocity": 119, "channel": 0}, {"type": "note_off", "time": 110, "note": 69, "velocity": 119, "channel": 0}, {"type": "note_on", "time": 7, "note": 70, "velocity": 115, "channel": 0}, {"type": "note_off", "time": 88, "note": 70, "velocity": 115, "channel": 0}, {"type": "note_on", "time": 216, "note": 64, "velocity": 117, "channel": 0}, {"type": "note_off", "time": 98, "note": 64, "velocity": 117, "channel": 0}, {"type": "note_on", "time": 6, "note": 65, "velocity": 112, "channel": 0}, {"type": "note_off", "time": 73, "note": 65, "velocity": 112, "channel": 0}, {"type": "note_on", "time": 194, "note": 61, "velocity": 114, "channel": 0}, {"type": "note_off", "time": 84, "note": 61, "velocity": 114, "channel": 0}, {"type": "note_on", "time": 8, "note": 62, "velocity": 116, "channel": 0}, {"type": "note_off", "time": 88, "note": 62, "velocity": 116, "channel": 0}, {"type": "note_on", "time": 511, "note": 57, "velocity": 116, "channel": 0}, {"type": "note_off", "time": 66, "note": 57, "velocity": 116, "channel": 0}, {"type": "note_on", "time": 5, "note": 58, "velocity": 106, "channel": 0}, {"type": "note_off", "time": 75, "note": 58, "velocity": 106, "channel": 0}, {"type": "note_on", "time": 16, "note": 60, "velocity": 108, "channel": 0}, {"type": "note_off", "time": 79, "note": 60, "velocity": 108, "channel": 0}, {"type": "note_on", "time": 4, "note": 61, "velocity": 96, "channel": 0}, {"type": "note_off", "time": 92, "note": 61, "velocity": 96, "channel": 0}, {"type": "note_on", "time": 19, "note": 63, "velocity": 109, "channel": 0}, {"type": "note_off", "time": 61, "note": 63, "velocity": 109, "channel": 0}, {"type": "note_on", "time": 1, "note": 65, "velocity": 114, "channel": 0}, {"type": "note_off", "time": 89, "note": 65, "velocity": 114, "channel": 0}, {"type": "note_on", "time": 8, "note": 68, "velocity": 116, "channel": 0}, {"type": "note_off", "time": 95, "note": 68, "velocity": 116, "channel": 0}, {"type": "note_on", "time": 1, "note": 67, "velocity": 111, "channel": 0}, {"type": "note_off", "time": 89, "note": 67, "velocity": 111, "channel": 0}, {"type": "note_on", "time": 20, "note": 65, "velocity": 111, "channel": 0}, {"type": "note_off", "time": 62, "note": 65, "velocity": 111, "channel": 0}, {"type": "note_on", "time": 6, "note": 63, "velocity": 118, "channel": 0}, {"type": "note_off", "time": 89, "note": 63, "velocity": 118, "channel": 0}, {"type": "note_on", "time": 7, "note": 62, "velocity": 112, "channel": 0}, {"type": "note_off", "time": 78, "note": 62, "velocity": 112, "channel": 0}, {"type": "note_on", "time": 0, "note": 61, "velocity": 111, "channel": 0}, {"type": "note_off", "time": 83, "note": 61, "velocity": 111, "channel": 0}, {"type": "note_on", "time": 41, "note": 58, "velocity": 101, "channel": 0}, {"type": "note_off", "time": 65, "note": 58, "velocity": 101, "channel": 0}, {"type": "note_on", "time": 4, "note": 60, "velocity": 109, "channel": 0}, {"type": "note_off", "time": 83, "note": 60, "velocity": 109, "channel": 0}, {"type": "note_on", "time": 36, "note": 63, "velocity": 119, "channel": 0}, {"type": "note_off", "time": 67, "note": 63, "velocity": 119, "channel": 0}, {"type": "note_on", "time": 12, "note": 58, "velocity": 111, "channel": 0}, {"type": "note_off", "time": 93, "note": 58, "velocity": 111, "channel": 0}, {"type": "note_on", "time": 41, "note": 55, "velocity": 96, "channel": 0}, {"type": "note_off", "time": 47, "note": 55, "velocity": 96, "channel": 0}, {"type": "note_on", "time": 10, "note": 56, "velocity": 118, "channel": 0}, {"type": "note_off", "time": 87, "note": 56, "velocity": 118, "channel": 0}, {"type": "note_on", "time": 98, "note": 67, "velocity": 119, "channel": 0}, {"type": "note_off", "time": 63, "note": 67, "velocity": 119, "channel": 0}, {"type": "note_on", "time": 3, "note": 68, "velocity": 123, "channel": 0}, {"type": "note_off", "time": 129, "note": 68, "velocity": 123, "channel": 0}, {"type": "note_on", "time": 8, "note": 67, "velocity": 120, "channel": 0}, {"type": "note_off", "time": 175, "note": 67, "velocity": 120, "channel": 0}, {"type": "note_on", "time": 11, "note": 65, "velocity": 113, "channel": 0}, {"type": "note_off", "time": 155, "note": 65, "velocity": 113, "channel": 0}, {"type": "note_on", "time": 19, "note": 64, "velocity": 116, "channel": 0}, {"type": "note_off", "time": 193, "note": 64, "velocity": 116, "channel": 0}, {"type": "note_on", "time": 0, "note": 60, "velocity": 104, "channel": 0}, {"type": "note_off", "time": 94, "note": 60, "velocity": 104, "channel": 0}, {"type": "note_on", "time": 139, "note": 72, "velocity": 126, "channel": 0}, {"type": "note_off", "time": 138, "note": 72, "velocity": 126, "channel": 0}, {"type": "note_on", "time": 623, "note": 59, "velocity": 102, "channel": 0}, {"type": "note_off", "time": 73, "note": 59, "velocity": 102, "channel": 0}, {"type": "note_on", "time": 29, "note": 65, "velocity": 99, "channel": 0}, {"type": "note_off", "time": 56, "note": 65, "velocity": 99, "channel": 0}, {"type": "note_on", "time": 25, "note": 68, "velocity": 121, "channel": 0}, {"type": "note_off", "time": 105, "note": 68, "velocity": 121, "channel": 0}, {"type": "note_on", "time": 7, "note": 72, "velocity": 124, "channel": 0}, {"type": "note_off", "time": 88, "note": 72, "velocity": 124, "channel": 0}, {"type": "note_on", "time": 9, "note": 70, "velocity": 122, "channel": 0}, {"type": "note_off", "time": 74, "note": 70, "velocity": 122, "channel": 0}, {"type": "note_on", "time": 11, "note": 68, "velocity": 123, "channel": 0}, {"type": "note_off", "time": 93, "note": 68, "velocity": 123, "channel": 0}, {"type": "note_on", "time": 6, "note": 67, "velocity": 119, "channel": 0}, {"type": "note_off", "time": 78, "note": 67, "velocity": 119, "channel": 0}, {"type": "note_on", "time": 6, "note": 65, "velocity": 119, "channel": 0}, {"type": "note_off", "time": 87, "note": 65, "velocity": 119, "channel": 0}, {"type": "note_on", "time": 7, "note": 64, "velocity": 118, "channel": 0}, {"type": "note_off", "time": 86, "note": 64, "velocity": 118, "channel": 0}, {"type": "note_on", "time": 13, "note": 61, "velocity": 117, "channel": 0}, {"type": "note_off", "time": 93, "note": 61, "velocity": 117, "channel": 0}, {"type": "note_on", "time": 4, "note": 60, "velocity": 104, "channel": 0}, {"type": "note_off", "time": 65, "note": 60, "velocity": 104, "channel": 0}, {"type": "note_on", "time": 12, "note": 58, "velocity": 119, "channel": 0}, {"type": "note_off", "time": 78, "note": 58, "velocity": 119, "channel": 0}, {"type": "note_on", "time": 20, "note": 56, "velocity": 115, "channel": 0}, {"type": "note_off", "time": 113, "note": 56, "velocity": 115, "channel": 0}, {"type": "note_on", "time": 6, "note": 53, "velocity": 107, "channel": 0}, {"type": "note_off", "time": 69, "note": 53, "velocity": 107, "channel": 0}, {"type": "note_on", "time": 1133, "note": 53, "velocity": 103, "channel": 0}, {"type": "note_off", "time": 79, "note": 53, "velocity": 103, "channel": 0}, {"type": "note_on", "time": 4, "note": 58, "velocity": 111, "channel": 0}, {"type": "note_off", "time": 80, "note": 58, "velocity": 111, "channel": 0}, {"type": "note_on", "time": 13, "note": 61, "velocity": 119, "channel": 0}, {"type": "note_off", "time": 86, "note": 61, "velocity": 119, "channel": 0}, {"type": "note_on", "time": 13, "note": 65, "velocity": 116, "channel": 0}, {"type": "note_off", "time": 95, "note": 65, "velocity": 116, "channel": 0}, {"type": "note_on", "time": 3, "note": 63, "velocity": 118, "channel": 0}, {"type": "note_off", "time": 98, "note": 63, "velocity": 118, "channel": 0}, {"type": "note_on", "time": 34, "note": 60, "velocity": 104, "channel": 0}, {"type": "note_off", "time": 48, "note": 60, "velocity": 104, "channel": 0}, {"type": "note_on", "time": 4, "note": 61, "velocity": 104, "channel": 0}, {"type": "note_off", "time": 97, "note": 61, "velocity": 104, "channel": 0}, {"type": "note_on", "time": 2, "note": 60, "velocity": 110, "channel": 0}, {"type": "note_off", "time": 65, "note": 60, "velocity": 110, "channel": 0}, {"type": "note_on", "time": 12, "note": 58, "velocity": 114, "channel": 0}, {"type": "note_off", "time": 94, "note": 58, "velocity": 114, "channel": 0}, {"type": "note_on", "time": 23, "note": 56, "velocity": 106, "channel": 0}, {"type": "note_off", "time": 89, "note": 56, "velocity": 106, "channel": 0}, {"type": "note_on", "time": 8, "note": 57, "velocity": 114, "channel": 0}, {"type": "note_off", "time": 79, "note": 57, "velocity": 114, "channel": 0}, {"type": "note_on", "time": 7, "note": 60, "velocity": 106, "channel": 0}, {"type": "note_off", "time": 92, "note": 60, "velocity": 106, "channel": 0}, {"type": "note_on", "time": 4, "note": 63, "velocity": 104, "channel": 0}, {"type": "note_off", "time": 100, "note": 63, "velocity": 104, "channel": 0}, {"type": "note_on", "time": 16, "note": 65, "velocity": 99, "channel": 0}, {"type": "note_off", "time": 39, "note": 65, "velocity": 99, "channel": 0}, {"type": "note_on", "time": 7, "note": 66, "velocity": 118, "channel": 0}, {"type": "note_off", "time": 126, "note": 66, "velocity": 118, "channel": 0}, {"type": "note_on", "time": 10, "note": 67, "velocity": 114, "channel": 0}, {"type": "note_off", "time": 37, "note": 67, "velocity": 114, "channel": 0}, {"type": "note_on", "time": 10, "note": 66, "velocity": 117, "channel": 0}, {"type": "note_off", "time": 59, "note": 66, "velocity": 117, "channel": 0}, {"type": "note_on", "time": 0, "note": 65, "velocity": 112, "channel": 0}, {"type": "note_off", "time": 82, "note": 65, "velocity": 112, "channel": 0}, {"type": "note_on", "time": 1, "note": 63, "velocity": 122, "channel": 0}, {"type": "note_off", "time": 77, "note": 63, "velocity": 122, "channel": 0}, {"type": "note_on", "time": 4, "note": 61, "velocity": 108, "channel": 0}, {"type": "note_off", "time": 111, "note": 61, "velocity": 108, "channel": 0}, {"type": "note_on", "time": 0, "note": 58, "velocity": 101, "channel": 0}, {"type": "note_off", "time": 267, "note": 58, "velocity": 101, "channel": 0}, {"type": "note_on", "time": 537, "note": 57, "velocity": 117, "channel": 0}, {"type": "note_off", "time": 53, "note": 57, "velocity": 117, "channel": 0}, {"type": "note_on", "time": 10, "note": 58, "velocity": 115, "channel": 0}, {"type": "note_off", "time": 59, "note": 58, "velocity": 115, "channel": 0}, {"type": "note_on", "time": 35, "note": 65, "velocity": 112, "channel": 0}, {"type": "note_off", "time": 64, "note": 65, "velocity": 112, "channel": 0}, {"type": "note_on", "time": 3, "note": 68, "velocity": 121, "channel": 0}, {"type": "note_off", "time": 112, "note": 68, "velocity": 121, "channel": 0}, {"type": "note_on", "time": 74, "note": 65, "velocity": 107, "channel": 0}, {"type": "note_off", "time": 121, "note": 65, "velocity": 107, "channel": 0}, {"type": "note_on", "time": 4, "note": 61, "velocity": 103, "channel": 0}, {"type": "note_off", "time": 77, "note": 61, "velocity": 103, "channel": 0}, {"type": "note_on", "time": 7, "note": 58, "velocity": 98, "channel": 0}, {"type": "note_off", "time": 79, "note": 58, "velocity": 98, "channel": 0}, {"type": "note_on", "time": 78, "note": 65, "velocity": 105, "channel": 0}, {"type": "note_off", "time": 104, "note": 65, "velocity": 105, "channel": 0}, {"type": "note_on", "time": 103, "note": 68, "velocity": 120, "channel": 0}, {"type": "note_off", "time": 114, "note": 68, "velocity": 120, "channel": 0}, {"type": "note_on", "time": 74, "note": 65, "velocity": 108, "channel": 0}, {"type": "note_off", "time": 133, "note": 65, "velocity": 108, "channel": 0}, {"type": "note_on", "time": 10, "note": 59, "velocity": 109, "channel": 0}, {"type": "note_off", "time": 85, "note": 59, "velocity": 109, "channel": 0}, {"type": "note_on", "time": 498, "note": 59, "velocity": 117, "channel": 0}, {"type": "note_off", "time": 51, "note": 59, "velocity": 117, "channel": 0}, {"type": "note_on", "time": 5, "note": 60, "velocity": 102, "channel": 0}, {"type": "note_off", "time": 66, "note": 60, "velocity": 102, "channel": 0}, {"type": "note_on", "time": 8, "note": 63, "velocity": 110, "channel": 0}, {"type": "note_off", "time": 56, "note": 63, "velocity": 110, "channel": 0}, {"type": "note_on", "time": 2, "note": 67, "velocity": 108, "channel": 0}, {"type": "note_off", "time": 38, "note": 67, "velocity": 108, "channel": 0}, {"type": "note_on", "time": 16, "note": 70, "velocity": 120, "channel": 0}, {"type": "note_off", "time": 110, "note": 70, "velocity": 120, "channel": 0}, {"type": "note_on", "time": 8, "note": 67, "velocity": 107, "channel": 0}, {"type": "note_off", "time": 46, "note": 67, "velocity": 107, "channel": 0}, {"type": "note_on", "time": 11, "note": 70, "velocity": 121, "channel": 0}, {"type": "note_off", "time": 100, "note": 70, "velocity": 121, "channel": 0}, {"type": "note_on", "time": 105, "note": 69, "velocity": 119, "channel": 0}, {"type": "note_off", "time": 97, "note": 69, "velocity": 119, "channel": 0}, {"type": "note_on", "time": 1, "note": 68, "velocity": 116, "channel": 0}, {"type": "note_off", "time": 92, "note": 68, "velocity": 116, "channel": 0}, {"type": "note_on", "time": 3, "note": 66, "velocity": 111, "channel": 0}, {"type": "note_off", "time": 109, "note": 66, "velocity": 111, "channel": 0}, {"type": "note_on", "time": 8, "note": 61, "velocity": 104, "channel": 0}, {"type": "note_off", "time": 86, "note": 61, "velocity": 104, "channel": 0}, {"type": "note_on", "time": 0, "note": 59, "velocity": 105, "channel": 0}, {"type": "note_off", "time": 84, "note": 59, "velocity": 105, "channel": 0}, {"type": "note_on", "time": 8, "note": 57, "velocity": 94, "channel": 0}, {"type": "note_off", "time": 80, "note": 57, "velocity": 94, "channel": 0}, {"type": "note_on", "time": 35, "note": 66, "velocity": 117, "channel": 0}, {"type": "note_off", "time": 65, "note": 66, "velocity": 117, "channel": 0}, {"type": "note_on", "time": 13, "note": 68, "velocity": 118, "channel": 0}, {"type": "note_off", "time": 93, "note": 68, "velocity": 118, "channel": 0}, {"type": "note_on", "time": 0, "note": 67, "velocity": 106, "channel": 0}, {"type": "note_off", "time": 38, "note": 67, "velocity": 106, "channel": 0}, {"type": "note_on", "time": 4, "note": 65, "velocity": 108, "channel": 0}, {"type": "note_off", "time": 78, "note": 65, "velocity": 108, "channel": 0}, {"type": "note_on", "time": 6, "note": 61, "velocity": 104, "channel": 0}, {"type": "note_off", "time": 35, "note": 61, "velocity": 104, "channel": 0}, {"type": "note_on", "time": 633, "note": 67, "velocity": 114, "channel": 0}, {"type": "note_off", "time": 60, "note": 67, "velocity": 114, "channel": 0}, {"type": "note_on", "time": 12, "note": 69, "velocity": 110, "channel": 0}, {"type": "note_off", "time": 28, "note": 69, "velocity": 110, "channel": 0}, {"type": "note_on", "time": 6, "note": 68, "velocity": 118, "channel": 0}, {"type": "note_off", "time": 47, "note": 68, "velocity": 118, "channel": 0}, {"type": "note_on", "time": 6, "note": 67, "velocity": 109, "channel": 0}, {"type": "note_off", "time": 69, "note": 67, "velocity": 109, "channel": 0}, {"type": "note_on", "time": 12, "note": 65, "velocity": 111, "channel": 0}, {"type": "note_off", "time": 104, "note": 65, "velocity": 111, "channel": 0}, {"type": "note_on", "time": 3, "note": 63, "velocity": 119, "channel": 0}, {"type": "note_off", "time": 84, "note": 63, "velocity": 119, "channel": 0}, {"type": "note_on", "time": 16, "note": 60, "velocity": 102, "channel": 0}, {"type": "note_off", "time": 74, "note": 60, "velocity": 102, "channel": 0}, {"type": "note_on", "time": 0, "note": 61, "velocity": 106, "channel": 0}, {"type": "note_off", "time": 95, "note": 61, "velocity": 106, "channel": 0}, {"type": "note_on", "time": 7, "note": 61, "velocity": 115, "channel": 0}, {"type": "note_off", "time": 85, "note": 61, "velocity": 115, "channel": 0}, {"type": "note_on", "time": 0, "note": 60, "velocity": 106, "channel": 0}, {"type": "note_off", "time": 118, "note": 60, "velocity": 106, "channel": 0}, {"type": "note_on", "time": 17, "note": 56, "velocity": 106, "channel": 0}, {"type": "note_off", "time": 133, "note": 56, "velocity": 106, "channel": 0}, {"type": "note_on", "time": 132, "note": 58, "velocity": 116, "channel": 0}, {"type": "note_off", "time": 91, "note": 58, "velocity": 116, "channel": 0}, {"type": "note_on", "time": 2, "note": 56, "velocity": 117, "channel": 0}, {"type": "note_off", "time": 93, "note": 56, "velocity": 117, "channel": 0}, {"type": "note_on", "time": 12, "note": 55, "velocity": 103, "channel": 0}, {"type": "note_off", "time": 80, "note": 55, "velocity": 103, "channel": 0}, {"type": "note_on", "time": 7, "note": 53, "velocity": 111, "channel": 0}, {"type": "note_off", "time": 98, "note": 53, "velocity": 111, "channel": 0}, {"type": "note_on", "time": 4, "note": 52, "velocity": 105, "channel": 0}, {"type": "note_off", "time": 68, "note": 52, "velocity": 105, "channel": 0}, {"type": "note_on", "time": 109, "note": 60, "velocity": 110, "channel": 0}, {"type": "note_off", "time": 48, "note": 60, "velocity": 110, "channel": 0}, {"type": "note_on", "time": 7, "note": 61, "velocity": 107, "channel": 0}, {"type": "note_off", "time": 92, "note": 61, "velocity": 107, "channel": 0}, {"type": "note_on", "time": 6, "note": 60, "velocity": 111, "channel": 0}, {"type": "note_off", "time": 293, "note": 60, "velocity": 111, "channel": 0}, {"type": "end_of_track", "time": 0}]]}