{"ticks_per_beat": 192, "tracks": [[{"type": "track_name", "name": "Melody", "time": 0}, {"type": "set_tempo", "tempo": 287081, "time": 0}, {"type": "key_signature", "key": "C", "time": 0}, {"type": "time_signature", "numerator": 4, "denominator": 4, "clocks_per_click": 24, "notated_32nd_notes_per_beat": 8, "time": 0}, {"type": "note_on", "time": 3963, "note": 55, "velocity": 104, "channel": 0}, {"type": "note_off", "time": 117, "note": 55, "velocity": 104, "channel": 0}, {"type": "note_on", "time": 0, "note": 48, "velocity": 97, "channel": 0}, {"type": "note_off", "time": 122, "note": 48, "velocity": 97, "channel": 0}, {"type": "note_on", "time": 496, "note": 55, "velocity": 93, "channel": 0}, {"type": "note_off", "time": 141, "note": 55, "velocity": 93, "channel": 0}, {"type": "note_on", "time": 2, "note": 49, "velocity": 97, "channel": 0}, {"type": "note_off", "time": 84, "note": 49, "velocity": 97, "channel": 0}, {"type": "note_on", "time": 357, "note": 55, "velocity": 101, "channel": 0}, {"type": "note_off", "time": 114, "note": 55, "velocity": 101, "channel": 0}, {"type": "note_on", "time": 0, "note": 50, "velocity": 96, "channel": 0}, {"type": "note_off", "time": 79, "note": 50, "velocity": 96, "channel": 0}, {"type": "note_on", "time": 0, "note": 55, "velocity": 97, "channel": 0}, {"type": "note_off", "time": 136, "note": 55, "velocity": 97, "channel": 0}, {"type": "note_on", "time": 425, "note": 55, "velocity": 98, "channel": 0}, {"type": "note_off", "time": 111, "note": 55, "velocity": 98, "channel": 0}, {"type": "note_on", "time": 2, "note": 50, "velocity": 97, "channel": 0}, {"type": "note_off", "time": 73, "note": 50, "velocity": 97, "channel": 0}, {"type": "note_on", "time": 2, "note": 55, "velocity": 102, "channel": 0}, {"type": "note_off", "time": 114, "note": 55, "velocity": 102, "channel": 0}, {"type": "note_on", "time": 0, "note": 48, "velocity": 92, "channel": 0}, {"type": "note_off", "time": 65, "note": 48, "velocity": 92, "channel": 0}, {"type": "note_on", "time": 0, "note": 55, "velocity": 105, "channel": 0}, {"type": "note_off", "time": 111, "note": 55, "velocity": 105, "channel": 0}, {"type": "note_on", "time": 0, "note": 50, "velocity": 96, "channel": 0}, {"type": "note_off", "time": 76, "note": 50, "velocity": 96, "channel": 0}, {"type": "note_on", "time": 2, "note": 55, "velocity": 102, "channel": 0}, {"type": "note_off", "time": 106, "note": 55, "velocity": 102, "channel": 0}, {"type": "note_on", "time": 0, "note": 48, "velocity": 102, "channel": 0}, {"type": "note_off", "time": 122, "note": 48, "velocity": 102, "channel": 0}, {"type": "note_on", "time": 354, "note": 55, "velocity": 107, "channel": 0}, {"type": "note_off", "time": 92, "note": 55, "velocity": 107, "channel": 0}, {"type": "note_on", "time": 0, "note": 50, "velocity": 94, "channel": 0}, {"type": "note_off", "time": 62, "note": 50, "velocity": 94, "channel": 0}, {"type": "note_on", "time": 251, "note": 55, "velocity": 101, "channel": 0}, {"type": "note_off", "time": 114, "note": 55, "velocity": 101, "channel": 0}, {"type": "note_on", "time": 5, "note": 52, "velocity": 94, "channel": 0}, {"type": "note_off", "time": 98, "note": 52, "velocity": 94, "channel": 0}, {"type": "note_on", "time": 117, "note": 55, "velocity": 97, "channel": 0}, {"type": "note_off", "time": 114, "note": 55, "velocity": 97, "channel": 0}, {"type": "note_on", "time": 294, "note": 55, "velocity": 107, "channel": 0}, {"type": "note_off", "time": 103, "note": 55, "velocity": 107, "channel": 0}, {"type": "note_on", "time": 0, "note": 50, "velocity": 98, "channel": 0}, {"type": "note_off", "time": 95, "note": 50, "velocity": 98, "channel": 0}, {"type": "note_on", "time": 158, "note": 55, "velocity": 106, "channel": 0}, {"type": "note_off", "time": 114, "note": 55, "velocity": 106, "channel": 0}, {"type": "note_on", "time": 2, "note": 50, "velocity": 90, "channel": 0}, {"type": "note_off", "time": 73, "note": 50, "velocity": 90, "channel": 0}, {"type": "note_on", "time": 16, "note": 55, "velocity": 105, "channel": 0}, {"type": "note_off", "time": 90, "note": 55, "velocity": 105, "channel": 0}, {"type": "note_on", "time": 16, "note": 48, "velocity": 90, "channel": 0}, {"type": "note_off", "time": 117, "note": 48, "velocity": 90, "channel": 0}, {"type": "note_on", "time": 150, "note": 55, "velocity": 97, "channel": 0}, {"type": "note_off", "time": 103, "note": 55, "velocity": 97, "channel": 0}, {"type": "note_on", "time": 10, "note": 50, "velocity": 97, "channel": 0}, {"type": "note_off", "time": 79, "note": 50, "velocity": 97, "channel": 0}, {"type": "note_on", "time": 8, "note": 55, "velocity": 109, "channel": 0}, {"type": "note_off", "time": 87, "note": 55, "velocity": 109, "channel": 0}, {"type": "note_on", "time": 0, "note": 50, "velocity": 103, "channel": 0}, {"type": "note_off", "time": 98, "note": 50, "velocity": 103, "channel": 0}, {"type": "note_on", "time": 2, "note": 55, "velocity": 102, "channel": 0}, {"type": "note_on", "time": 76, "note": 48, "velocity": 105, "channel": 0}, {"type": "note_off", "time": 0, "note": 55, "velocity": 102, "channel": 0}, {"type": "note_off", "time": 106, "note": 48, "velocity": 105, "channel": 0}, {"type": "note_on", "time": 376, "note": 55, "velocity": 109, "channel": 0}, {"type": "note_off", "time": 101, "note": 55, "velocity": 109, "channel": 0}, {"type": "note_on", "time": 0, "note": 52, "velocity": 99, "channel": 0}, {"type": "note_off", "time": 103, "note": 52, "velocity": 99, "channel": 0}, {"type": "note_on", "time": 0, "note": 55, "velocity": 108, "channel": 0}, {"type": "note_off", "time": 101, "note": 55, "velocity": 108, "channel": 0}, {"type": "note_on", "time": 0, "note": 59, "velocity": 104, "channel": 0}, {"type": "note_off", "time": 87, "note": 59, "velocity": 104, "channel": 0}, {"type": "note_on", "time": 0, "note": 62, "velocity": 115, "channel": 0}, {"type": "note_off", "time": 90, "note": 62, "velocity": 115, "channel": 0}, {"type": "note_on", "time": 0, "note": 65, "velocity": 113, "channel": 0}, {"type": "note_off", "time": 109, "note": 65, "velocity": 113, "channel": 0}, {"type": "note_on", "time": 2, "note": 61, "velocity": 109, "channel": 0}, {"type": "note_off", "time": 103, "note": 61, "velocity": 109, "channel": 0}, {"type": "note_on", "time": 19, "note": 64, "velocity": 111, "channel": 0}, {"type": "note_on", "time": 81, "note": 58, "velocity": 100, "channel": 0}, {"type": "note_off", "time": 0, "note": 64, "velocity": 111, "channel": 0}, {"type": "note_off", "time": 81, "note": 58, "velocity": 100, "channel": 0}, {"type": "note_on", "time": 21, "note": 55, "velocity": 105, "channel": 0}, {"type": "note_off", "time": 84, "note": 55, "velocity": 105, "channel": 0}, {"type": "note_on", "time": 0, "note": 56, "velocity": 103, "channel": 0}, {"type": "note_off", "time": 114, "note": 56, "velocity": 103, "channel": 0}, {"type": "note_on", "time": 10, "note": 57, "velocity": 105, "channel": 0}, {"type": "note_off", "time": 98, "note": 57, "velocity": 105, "channel": 0}, {"type": "note_on", "time": 0, "note": 53, "velocity": 108, "channel": 0}, {"type": "note_off", "time": 87, "note": 53, "velocity": 108, "channel": 0}, {"type": "note_on", "time": 8, "note": 50, "velocity": 93, "channel": 0}, {"type": "note_off", "time": 70, "note": 50, "velocity": 93, "channel": 0}, {"type": "note_on", "time": 0, "note": 55, "velocity": 105, "channel": 0}, {"type": "note_off", "time": 114, "note": 55, "velocity": 105, "channel": 0}, {"type": "note_on", "time": 2, "note": 52, "velocity": 96, "channel": 0}, {"type": "note_off", "time": 57, "note": 52, "velocity": 96, "channel": 0}, {"type": "note_on", "time": 10, "note": 53, "velocity": 108, "channel": 0}, {"type": "note_off", "time": 101, "note": 53, "velocity": 108, "channel": 0}, {"type": "note_on", "time": 2, "note": 57, "velocity": 105, "channel": 0}, {"type": "note_off", "time": 92, "note": 57, "velocity": 105, "channel": 0}, {"type": "note_on", "time": 0, "note": 60, "velocity": 112, "channel": 0}, {"type": "note_off", "time": 101, "note": 60, "velocity": 112, "channel": 0}, {"type": "note_on", "time": 0, "note": 64, "velocity": 111, "channel": 0}, {"type": "note_off", "time": 114, "note": 64, "velocity": 111, "channel": 0}, {"type": "note_on", "time": 5, "note": 53, "velocity": 96, "channel": 0}, {"type": "note_off", "time": 65, "note": 53, "velocity": 96, "channel": 0}, {"type": "note_on", "time": 13, "note": 57, "velocity": 105, "channel": 0}, {"type": "note_off", "time": 81, "note": 57, "velocity": 105, "channel": 0}, {"type": "note_on", "time": 5, "note": 60, "velocity": 111, "channel": 0}, {"type": "note_off", "time": 95, "note": 60, "velocity": 111, "channel": 0}, {"type": "note_on", "time": 5, "note": 63, "velocity": 115, "channel": 0}, {"type": "note_off", "time": 98, "note": 63, "velocity": 115, "channel": 0}, {"type": "note_on", "time": 8, "note": 59, "velocity": 102, "channel": 0}, {"type": "note_off", "time": 84, "note": 59, "velocity": 102, "channel": 0}, {"type": "note_on", "time": 8, "note": 56, "velocity": 104, "channel": 0}, {"type": "note_off", "time": 84, "note": 56, "velocity": 104, "channel": 0}, {"type": "note_on", "time": 19, "note": 54, "velocity": 107, "channel": 0}, {"type": "note_off", "time": 79, "note": 54, "velocity": 107, "channel": 0}, {"type": "note_on", "time": 19, "note": 55, "velocity": 109, "channel": 0}, {"type": "note_off", "time": 101, "note": 55, "velocity": 109, "channel": 0}, {"type": "note_on", "time": 19, "note": 48, "velocity": 87, "channel": 0}, {"type": "note_off", "time": 109, "note": 48, "velocity": 87, "channel": 0}, {"type": "note_on", "time": 251, "note": 65, "velocity": 113, "channel": 0}, {"type": "note_off", "time": 73, "note": 65, "velocity": 113, "channel": 0}, {"type": "note_on", "time": 0, "note": 52, "velocity": 108, "channel": 0}, {"type": "note_off", "time": 144, "note": 52, "velocity": 108, "channel": 0}, {"type": "note_on", "time": 191, "note": 55, "velocity": 109, "channel": 0}, {"type": "note_off", "time": 95, "note": 55, "velocity": 109, "channel": 0}, {"type": "note_on", "time": 13, "note": 53, "velocity": 107, "channel": 0}, {"type": "note_off", "time": 90, "note": 53, "velocity": 107, "channel": 0}, {"type": "note_on", "time": 171, "note": 57, "velocity": 114, "channel": 0}, {"type": "note_off", "time": 87, "note": 57, "velocity": 114, "channel": 0}, {"type": "note_on", "time": 8, "note": 54, "velocity": 111, "channel": 0}, {"type": "note_off", "time": 92, "note": 54, "velocity": 111, "channel": 0}, {"type": "note_on", "time": 371, "note": 55, "velocity": 112, "channel": 0}, {"type": "note_off", "time": 73, "note": 55, "velocity": 112, "channel": 0}, {"type": "note_on", "time": 21, "note": 50, "velocity": 87, "channel": 0}, {"type": "note_off", "time": 60, "note": 50, "velocity": 87, "channel": 0}, {"type": "note_on", "time": 237, "note": 55, "velocity": 105, "channel": 0}, {"type": "note_off", "time": 79, "note": 55, "velocity": 105, "channel": 0}, {"type": "note_on", "time": 8, "note": 48, "velocity": 88, "channel": 0}, {"type": "note_off", "time": 98, "note": 48, "velocity": 88, "channel": 0}, {"type": "note_on", "time": 152, "note": 55, "velocity": 105, "channel": 0}, {"type": "note_off", "time": 79, "note": 55, "velocity": 105, "channel": 0}, {"type": "note_on", "time": 147, "note": 55, "velocity": 112, "channel": 0}, {"type": "note_off", "time": 90, "note": 55, "velocity": 112, "channel": 0}, {"type": "note_on", "time": 5, "note": 50, "velocity": 94, "channel": 0}, {"type": "note_off", "time": 79, "note": 50, "velocity": 94, "channel": 0}, {"type": "note_on", "time": 0, "note": 55, "velocity": 106, "channel": 0}, {"type": "note_off", "time": 103, "note": 55, "velocity": 106, "channel": 0}, {"type": "note_on", "time": 0, "note": 48, "velocity": 97, "channel": 0}, {"type": "note_off", "time": 101, "note": 48, "velocity": 97, "channel": 0}, {"type": "note_on", "time": 171, "note": 55, "velocity": 101, "channel": 0}, {"type": "note_off", "time": 92, "note": 55, "velocity": 101, "channel": 0}, {"type": "note_on", "time": 2, "note": 48, "velocity": 96, "channel": 0}, {"type": "note_off", "time": 114, "note": 48, "velocity": 96, "channel": 0}, {"type": "note_on", "time": 180, "note": 55, "velocity": 103, "channel": 0}, {"type": "note_off", "time": 98, "note": 55, "velocity": 103, "channel": 0}, {"type": "note_on", "time": 13, "note": 48, "velocity": 96, "channel": 0}, {"type": "note_off", "time": 92, "note": 48, "velocity": 96, "channel": 0}, {"type": "note_on", "time": 169, "note": 55, "velocity": 111, "channel": 0}, {"type": "note_off", "time": 92, "note": 55, "velocity": 111, "channel": 0}, {"type": "note_on", "time": 0, "note": 49, "velocity": 96, "channel": 0}, {"type": "note_off", "time": 131, "note": 49, "velocity": 96, "channel": 0}, {"type": "note_on", "time": 376, "note": 55, "velocity": 110, "channel": 0}, {"type": "note_off", "time": 101, "note": 55, "velocity": 110, "channel": 0}, {"type": "note_on", "time": 0, "note": 50, "velocity": 102, "channel": 0}, {"type": "note_off", "time": 65, "note": 50, "velocity": 102, "channel": 0}, {"type": "note_on", "time": 191, "note": 55, "velocity": 105, "channel": 0}, {"type": "note_off", "time": 111, "note": 55, "velocity": 105, "channel": 0}, {"type": "note_on", "time": 5, "note": 50, "velocity": 104, "channel": 0}, {"type": "note_off", "time": 90, "note": 50, "velocity": 104, "channel": 0}, {"type": "note_on", "time": 2, "note": 55, "velocity": 108, "channel": 0}, {"type": "note_off", "time": 103, "note": 55, "velocity": 108, "channel": 0}, {"type": "note_on", "time": 8, "note": 48, "velocity": 86, "channel": 0}, {"type": "note_off", "time": 103, "note": 48, "velocity": 86, "channel": 0}, {"type": "note_on", "time": 155, "note": 55, "velocity": 99, "channel": 0}, {"type": "note_off", "time": 111, "note": 55, "velocity": 99, "channel": 0}, {"type": "note_on", "time": 0, "note": 53, "velocity": 107, "channel": 0}, {"type": "note_off", "time": 79, "note": 53, "velocity": 107, "channel": 0}, {"type": "note_on", "time": 182, "note": 57, "velocity": 114, "channel": 0}, {"type": "note_off", "time": 106, "note": 57, "velocity": 114, "channel": 0}, {"type": "note_on", "time": 19, "note": 55, "velocity": 111, "channel": 0}, {"type": "note_off", "time": 120, "note": 55, "velocity": 111, "channel": 0}, {"type": "note_on", "time": 13, "note": 48, "velocity": 89, "channel": 0}, {"type": "note_off", "time": 117, "note": 48, "velocity": 89, "channel": 0}, {"type": "note_on", "time": 136, "note": 57, "velocity": 84, "channel": 0}, {"type": "note_off", "time": 60, "note": 57, "velocity": 84, "channel": 0}, {"type": "note_on", "time": 16, "note": 59, "velocity": 100, "channel": 0}, {"type": "note_off", "time": 62, "note": 59, "velocity": 100, "channel": 0}, {"type": "note_on", "time": 16, "note": 61, "velocity": 111, "channel": 0}, {"type": "note_off", "time": 111, "note": 61, "velocity": 111, "channel": 0}, {"type": "note_on", "time": 16, "note": 65, "velocity": 119, "channel": 0}, {"type": "note_off", "time": 76, "note": 65, "velocity": 119, "channel": 0}, {"type": "note_on", "time": 19, "note": 62, "velocity": 103, "channel": 0}, {"type": "note_off", "time": 95, "note": 62, "velocity": 103, "channel": 0}, {"type": "note_on", "time": 16, "note": 63, "velocity": 111, "channel": 0}, {"type": "note_off", "time": 65, "note": 63, "velocity": 111, "channel": 0}, {"type": "note_on", "time": 0, "note": 64, "velocity": 115, "channel": 0}, {"type": "note_off", "time": 40, "note": 64, "velocity": 115, "channel": 0}, {"type": "note_on", "time": 8, "note": 65, "velocity": 104, "channel": 0}, {"type": "note_off", "time": 32, "note": 65, "velocity": 104, "channel": 0}, {"type": "note_on", "time": 5, "note": 63, "velocity": 114, "channel": 0}, {"type": "note_off", "time": 32, "note": 63, "velocity": 114, "channel": 0}, {"type": "note_on", "time": 2, "note": 62, "velocity": 114, "channel": 0}, {"type": "note_off", "time": 68, "note": 62, "velocity": 114, "channel": 0}, {"type": "note_on", "time": 10, "note": 61, "velocity": 115, "channel": 0}, {"type": "note_off", "time": 103, "note": 61, "velocity": 115, "channel": 0}, {"type": "note_on", "time": 0, "note": 58, "velocity": 104, "channel": 0}, {"type": "note_off", "time": 84, "note": 58, "velocity": 104, "channel": 0}, {"type": "note_on", "time": 16, "note": 57, "velocity": 105, "channel": 0}, {"type": "note_off", "time": 90, "note": 57, "velocity": 105, "channel": 0}, {"type": "note_on", "time": 5, "note": 55, "velocity": 108, "channel": 0}, {"type": "note_off", "time": 87, "note": 55, "velocity": 108, "channel": 0}, {"type": "note_on", "time": 46, "note": 52, "velocity": 97, "channel": 0}, {"type": "note_off", "time": 103, "note": 52, "velocity": 97, "channel": 0}, {"type": "note_on", "time": 8, "note": 53, "velocity": 104, "channel": 0}, {"type": "note_off", "time": 79, "note": 53, "velocity": 104, "channel": 0}, {"type": "note_on", "time": 0, "note": 57, "velocity": 94, "channel": 0}, {"type": "note_off", "time": 65, "note": 57, "velocity": 94, "channel": 0}, {"type": "note_on", "time": 0, "note": 60, "velocity": 102, "channel": 0}, {"type": "note_off", "time": 62, "note": 60, "velocity": 102, "channel": 0}, {"type": "note_on", "time": 2, "note": 64, "velocity": 118, "channel": 0}, {"type": "note_off", "time": 106, "note": 64, "velocity": 118, "channel": 0}, {"type": "note_on", "time": 2, "note": 55, "velocity": 104, "channel": 0}, {"type": "note_off", "time": 101, "note": 55, "velocity": 104, "channel": 0}, {"type": "note_on", "time": 0, "note": 59, "velocity": 101, "channel": 0}, {"type": "note_off", "time": 90, "note": 59, "velocity": 101, "channel": 0}, {"type": "note_on", "time": 0, "note": 62, "velocity": 116, "channel": 0}, {"type": "note_off", "time": 81, "note": 62, "velocity": 116, "channel": 0}, {"type": "note_on", "time": 0, "note": 60, "velocity": 118, "channel": 0}, {"type": "note_off", "time": 111, "note": 60, "velocity": 118, "channel": 0}, {"type": "note_on", "time": 8, "note": 55, "velocity": 109, "channel": 0}, {"type": "note_off", "time": 103, "note": 55, "velocity": 109, "channel": 0}, {"type": "note_on", "time": 0, "note": 52, "velocity": 95, "channel": 0}, {"type": "note_off", "time": 84, "note": 52, "velocity": 95, "channel": 0}, {"type": "note_on", "time": 0, "note": 57, "velocity": 101, "channel": 0}, {"type": "note_off", "time": 294, "note": 57, "velocity": 101, "channel": 0}, {"type": "note_on", "time": 447, "note": 55, "velocity": 105, "channel": 0}, {"type": "note_off", "time": 92, "note": 55, "velocity": 105, "channel": 0}, {"type": "note_on", "time": 0, "note": 58, "velocity": 109, "channel": 0}, {"type": "note_off", "time": 95, "note": 58, "velocity": 109, "channel": 0}, {"type": "note_on", "time": 5, "note": 62, "velocity": 116, "channel": 0}, {"type": "note_off", "time": 79, "note": 62, "velocity": 116, "channel": 0}, {"type": "note_on", "time": 2, "note": 65, "velocity": 120, "channel": 0}, {"type": "note_off", "time": 122, "note": 65, "velocity": 120, "channel": 0}, {"type": "note_on", "time": 0, "note": 62, "velocity": 107, "channel": 0}, {"type": "note_off", "time": 70, "note": 62, "velocity": 107, "channel": 0}, {"type": "note_on", "time": 0, "note": 64, "velocity": 117, "channel": 0}, {"type": "note_on", "time": 109, "note": 62, "velocity": 119, "channel": 0}, {"type": "note_off", "time": 0, "note": 64, "velocity": 117, "channel": 0}, {"type": "note_off", "time": 68, "note": 62, "velocity": 119, "channel": 0}, {"type": "note_on", "time": 8, "note": 61, "velocity": 113, "channel": 0}, {"type": "note_off", "time": 43, "note": 61, "velocity": 113, "channel": 0}, {"type": "note_on", "time": 5, "note": 64, "velocity": 114, "channel": 0}, {"type": "note_off", "time": 40, "note": 64, "velocity": 114, "channel": 0}, {"type": "note_on", "time": 5, "note": 67, "velocity": 111, "channel": 0}, {"type": "note_off", "time": 49, "note": 67, "velocity": 111, "channel": 0}, {"type": "note_on", "time": 62, "note": 72, "velocity": 115, "channel": 0}, {"type": "note_off", "time": 131, "note": 72, "velocity": 115, "channel": 0}, {"type": "note_on", "time": 0, "note": 70, "velocity": 109, "channel": 0}, {"type": "note_off", "time": 70, "note": 70, "velocity": 109, "channel": 0}, {"type": "note_on", "time": 2, "note": 69, "velocity": 100, "channel": 0}, {"type": "note_off", "time": 54, "note": 69, "velocity": 100, "channel": 0}, {"type": "note_on", "time": 0, "note": 67, "velocity": 99, "channel": 0}, {"type": "note_off", "time": 62, "note": 67, "velocity": 99, "channel": 0}, {"type": "note_on", "time": 16, "note": 68, "velocity": 103, "channel": 0}, {"type": "note_off", "time": 62, "note": 68, "velocity": 103, "channel": 0}, {"type": "note_on", "time": 5, "note": 69, "velocity": 114, "channel": 0}, {"type": "note_off", "time": 92, "note": 69, "velocity": 114, "channel": 0}, {"type": "note_on", "time": 0, "note": 65, "velocity": 105, "channel": 0}, {"type": "note_off", "time": 101, "note": 65, "velocity": 105, "channel": 0}, {"type": "note_on", "time": 19, "note": 64, "velocity": 95, "channel": 0}, {"type": "note_off", "time": 81, "note": 64, "velocity": 95, "channel": 0}, {"type": "note_on", "time": 8, "note": 62, "velocity": 96, "channel": 0}, {"type": "note_off", "time": 68, "note": 62, "velocity": 96, "channel": 0}, {"type": "note_on", "time": 10, "note": 67, "velocity": 107, "channel": 0}, {"type": "note_off", "time": 19, "note": 67, "velocity": 107, "channel": 0}, {"type": "note_on", "time": 8, "note": 70, "velocity": 99, "channel": 0}, {"type": "note_off", "time": 27, "note": 70, "velocity": 99, "channel": 0}, {"type": "note_on", "time": 4, "note": 68, "velocity": 105, "channel": 0}, {"type": "note_off", "time": 15, "note": 68, "velocity": 105, "channel": 0}, {"type": "note_on", "time": 0, "note": 67, "velocity": 107, "channel": 0}, {"type": "note_off", "time": 15, "note": 67, "velocity": 107, "channel": 0}, {"type": "note_on", "time": 6, "note": 66, "velocity": 109, "channel": 0}, {"type": "note_off", "time": 60, "note": 66, "velocity": 109, "channel": 0}, {"type": "note_on", "time": 16, "note": 65, "velocity": 117, "channel": 0}, {"type": "note_off", "time": 111, "note": 65, "velocity": 117, "channel": 0}, {"type": "note_on", "time": 5, "note": 64, "velocity": 119, "channel": 0}, {"type": "note_off", "time": 98, "note": 64, "velocity": 119, "channel": 0}, {"type": "note_on", "time": 2, "note": 62, "velocity": 116, "channel": 0}, {"type": "note_on", "time": 103, "note": 60, "velocity": 110, "channel": 0}, {"type": "note_off", "time": 0, "note": 62, "velocity": 116, "channel": 0}, {"type": "note_off", "time": 103, "note": 60, "velocity": 110, "channel": 0}, {"type": "note_on", "time": 2, "note": 59, "velocity": 102, "channel": 0}, {"type": "note_off", "time": 57, "note": 59, "velocity": 102, "channel": 0}, {"type": "note_on", "time": 10, "note": 64, "velocity": 107, "channel": 0}, {"type": "note_off", "time": 81, "note": 64, "velocity": 107, "channel": 0}, {"type": "note_on", "time": 16, "note": 65, "velocity": 115, "channel": 0}, {"type": "note_off", "time": 101, "note": 65, "velocity": 115, "channel": 0}, {"type": "note_on", "time": 2, "note": 69, "velocity": 113, "channel": 0}, {"type": "note_off", "time": 87, "note": 69, "velocity": 113, "channel": 0}, {"type": "note_on", "time": 10, "note": 67, "velocity": 108, "channel": 0}, {"type": "note_off", "time": 90, "note": 67, "velocity": 108, "channel": 0}, {"type": "note_on", "time": 13, "note": 65, "velocity": 113, "channel": 0}, {"type": "note_off", "time": 73, "note": 65, "velocity": 113, "channel": 0}, {"type": "note_on", "time": 16, "note": 64, "velocity": 106, "channel": 0}, {"type": "note_off", "time": 95, "note": 64, "velocity": 106, "channel": 0}, {"type": "note_on", "time": 5, "note": 54, "velocity": 104, "channel": 0}, {"type": "note_off", "time": 49, "note": 54, "velocity": 104, "channel": 0}, {"type": "note_on", "time": 0, "note": 55, "velocity": 110, "channel": 0}, {"type": "note_off", "time": 60, "note": 55, "velocity": 110, "channel": 0}, {"type": "note_on", "time": 5, "note": 58, "velocity": 100, "channel": 0}, {"type": "note_off", "time": 73, "note": 58, "velocity": 100, "channel": 0}, {"type": "note_on", "time": 8, "note": 55, "velocity": 104, "channel": 0}, {"type": "note_off", "time": 70, "note": 55, "velocity": 104, "channel": 0}, {"type": "note_on", "time": 0, "note": 62, "velocity": 118, "channel": 0}, {"type": "note_off", "time": 120, "note": 62, "velocity": 118, "channel": 0}, {"type": "note_on", "time": 0, "note": 60, "velocity": 114, "channel": 0}, {"type": "note_off", "time": 101, "note": 60, "velocity": 114, "channel": 0}, {"type": "note_on", "time": 2, "note": 58, "velocity": 103, "channel": 0}, {"type": "note_off", "time": 98, "note": 58, "velocity": 103, "channel": 0}, {"type": "note_on", "time": 2, "note": 56, "velocity": 101, "channel": 0}, {"type": "note_off", "time": 90, "note": 56, "velocity": 101, "channel": 0}, {"type": "note_on", "time": 2, "note": 57, "velocity": 109, "channel": 0}, {"type": "note_off", "time": 106, "note": 57, "velocity": 109, "channel": 0}, {"type": "note_on", "time": 0, "note": 60, "velocity": 108, "channel": 0}, {"type": "note_off", "time": 120, "note": 60, "velocity": 108, "channel": 0}, {"type": "note_on", "time": 8, "note": 62, "velocity": 103, "channel": 0}, {"type": "note_off", "time": 57, "note": 62, "velocity": 103, "channel": 0}, {"type": "note_on", "time": 21, "note": 64, "velocity": 104, "channel": 0}, {"type": "note_off", "time": 54, "note": 64, "velocity": 104, "channel": 0}, {"type": "note_on", "time": 2, "note": 67, "velocity": 118, "channel": 0}, {"type": "note_off", "time": 111, "note": 67, "velocity": 118, "channel": 0}, {"type": "note_on", "time": 2, "note": 65, "velocity": 114, "channel": 0}, {"type": "note_off", "time": 87, "note": 65, "velocity": 114, "channel": 0}, {"type": "note_on", "time": 8, "note": 64, "velocity": 112, "channel": 0}, {"type": "note_off", "time": 84, "note": 64, "velocity": 112, "channel": 0}, {"type": "note_on", "time": 16, "note": 62, "velocity": 117, "channel": 0}, {"type": "note_off", "time": 106, "note": 62, "velocity": 117, "channel": 0}, {"type": "note_on", "time": 0, "note": 60, "velocity": 110, "channel": 0}, {"type": "note_off", "time": 98, "note": 60, "velocity": 110, "channel": 0}, {"type": "note_on", "time": 0, "note": 57, "velocity": 107, "channel": 0}, {"type": "note_off", "time": 92, "note": 57, "velocity": 107, "channel": 0}, {"type": "note_on", "time": 5, "note": 55, "velocity": 108, "channel": 0}, {"type": "note_off", "time": 90, "note": 55, "velocity": 108, "channel": 0}, {"type": "note_on", "time": 2, "note": 53, "velocity": 110, "channel": 0}, {"type": "note_off", "time": 101, "note": 53, "velocity": 110, "channel": 0}, {"type": "note_on", "time": 10, "note": 52, "velocity": 104, "channel": 0}, {"type": "note_off", "time": 73, "note": 52, "velocity": 104, "channel": 0}, {"type": "note_on", "time": 0, "note": 55, "velocity": 111, "channel": 0}, {"type": "note_off", "time": 101, "note": 55, "velocity": 111, "channel": 0}, {"type": "note_on", "time": 0, "note": 50, "velocity": 100, "channel": 0}, {"type": "note_on", "time": 92, "note": 55, "velocity": 110, "channel": 0}, {"type": "note_off", "time": 0, "note": 50, "velocity": 100, "channel": 0}, {"type": "note_off", "time": 120, "note": 55, "velocity": 110, "channel": 0}, {"type": "note_on", "time": 2, "note": 48, "velocity": 99, "channel": 0}, {"type": "note_off", "time": 109, "note": 48, "velocity": 99, "channel": 0}, {"type": "note_on", "time": 338, "note": 55, "velocity": 111, "channel": 0}, {"type": "note_off", "time": 73, "note": 55, "velocity": 111, "channel": 0}, {"type": "note_on", "time": 5, "note": 59, "velocity": 110, "channel": 0}, {"type": "note_off", "time": 87, "note": 59, "velocity": 110, "channel": 0}, {"type": "note_on", "time": 2, "note": 60, "velocity": 114, "channel": 0}, {"type": "note_off", "time": 109, "note": 60, "velocity": 114, "channel": 0}, {"type": "note_on", "time": 5, "note": 65, "velocity": 116, "channel": 0}, {"type": "note_off", "time": 111, "note": 65, "velocity": 116, "channel": 0}, {"type": "note_on", "time": 2, "note": 64, "velocity": 120, "channel": 0}, {"type": "note_off", "time": 81, "note": 64, "velocity": 120, "channel": 0}, {"type": "note_on", "time": 0, "note": 60, "velocity": 114, "channel": 0}, {"type": "note_off", "time": 125, "note": 60, "velocity": 114, "channel": 0}, {"type": "note_on", "time": 8, "note": 55, "velocity": 105, "channel": 0}, {"type": "note_off", "time": 54, "note": 55, "velocity": 105, "channel": 0}, {"type": "note_on", "time": 0, "note": 59, "velocity": 104, "channel": 0}, {"type": "note_off", "time": 150, "note": 59, "velocity": 104, "channel": 0}, {"type": "note_on", "time": 5, "note": 60, "velocity": 93, "channel": 0}, {"type": "note_off", "time": 62, "note": 60, "velocity": 93, "channel": 0}, {"type": "note_on", "time": 439, "note": 70, "velocity": 116, "channel": 0}, {"type": "note_off", "time": 111, "note": 70, "velocity": 116, "channel": 0}, {"type": "note_on", "time": 19, "note": 71, "velocity": 120, "channel": 0}, {"type": "note_off", "time": 253, "note": 71, "velocity": 120, "channel": 0}, {"type": "note_on", "time": 13, "note": 69, "velocity": 115, "channel": 0}, {"type": "note_off", "time": 101, "note": 69, "velocity": 115, "channel": 0}, {"type": "note_on", "time": 5, "note": 67, "velocity": 118, "channel": 0}, {"type": "note_off", "time": 122, "note": 67, "velocity": 118, "channel": 0}, {"type": "note_on", "time": 2, "note": 60, "velocity": 91, "channel": 0}, {"type": "note_off", "time": 120, "note": 60, "velocity": 91, "channel": 0}, {"type": "note_on", "time": 682, "note": 60, "velocity": 93, "channel": 0}, {"type": "note_off", "time": 40, "note": 60, "velocity": 93, "channel": 0}, {"type": "note_on", "time": 0, "note": 62, "velocity": 104, "channel": 0}, {"type": "note_off", "time": 35, "note": 62, "velocity": 104, "channel": 0}, {"type": "note_on", "time": 0, "note": 65, "velocity": 104, "channel": 0}, {"type": "note_off", "time": 46, "note": 65, "velocity": 104, "channel": 0}, {"type": "note_on", "time": 5, "note": 67, "velocity": 115, "channel": 0}, {"type": "note_off", "time": 92, "note": 67, "velocity": 115, "channel": 0}, {"type": "note_on", "time": 19, "note": 66, "velocity": 102, "channel": 0}, {"type": "note_off", "time": 120, "note": 66, "velocity": 102, "channel": 0}, {"type": "note_on", "time": 10, "note": 67, "velocity": 115, "channel": 0}, {"type": "note_off", "time": 232, "note": 67, "velocity": 115, "channel": 0}, {"type": "note_on", "time": 324, "note": 65, "velocity": 114, "channel": 0}, {"type": "note_off", "time": 98, "note": 65, "velocity": 114, "channel": 0}, {"type": "note_on", "time": 10, "note": 66, "velocity": 101, "channel": 0}, {"type": "note_off", "time": 196, "note": 66, "velocity": 101, "channel": 0}, {"type": "note_on", "time": 5, "note": 67, "velocity": 106, "channel": 0}, {"type": "note_off", "time": 125, "note": 67, "velocity": 106, "channel": 0}, {"type": "note_on", "time": 428, "note": 60, "velocity": 106, "channel": 0}, {"type": "note_off", "time": 95, "note": 60, "velocity": 106, "channel": 0}, {"type": "note_on", "time": 0, "note": 67, "velocity": 117, "channel": 0}, {"type": "note_off", "time": 117, "note": 67, "velocity": 117, "channel": 0}, {"type": "note_on", "time": 81, "note": 68, "velocity": 108, "channel": 0}, {"type": "note_off", "time": 136, "note": 68, "velocity": 108, "channel": 0}, {"type": "note_on", "time": 8, "note": 69, "velocity": 108, "channel": 0}, {"type": "note_off", "time": 237, "note": 69, "velocity": 108, "channel": 0}, {"type": "note_on", "time": 5, "note": 67, "velocity": 115, "channel": 0}, {"type": "note_off", "time": 111, "note": 67, "velocity": 115, "channel": 0}, {"type": "note_on", "time": 81, "note": 65, "velocity": 108, "channel": 0}, {"type": "note_off", "time": 161, "note": 65, "velocity": 108, "channel": 0}, {"type": "note_on", "time": 5, "note": 64, "velocity": 96, "channel": 0}, {"type": "note_off", "time": 128, "note": 64, "velocity": 96, "channel": 0}, {"type": "note_on", "time": 848, "note": 70, "velocity": 123, "channel": 0}, {"type": "note_off", "time": 139, "note": 70, "velocity": 123, "channel": 0}, {"type": "note_on", "time": 35, "note": 64, "velocity": 122, "channel": 0}, {"type": "note_off", "time": 136, "note": 64, "velocity": 122, "channel": 0}, {"type": "note_on", "time": 60, "note": 73, "velocity": 100, "channel": 0}, {"type": "note_off", "time": 49, "note": 73, "velocity": 100, "channel": 0}, {"type": "note_on", "time": 21, "note": 76, "velocity": 127, "channel": 0}, {"type": "note_off", "time": 158, "note": 76, "velocity": 127, "channel": 0}, {"type": "note_on", "time": 62, "note": 74, "velocity": 100, "channel": 0}, {"type": "note_off", "time": 90, "note": 74, "velocity": 100, "channel": 0}, {"type": "note_on", "time": 95, "note": 73, "velocity": 111, "channel": 0}, {"type": "note_off", "time": 191, "note": 73, "velocity": 111, "channel": 0}, {"type": "note_on", "time": 1143, "note": 73, "velocity": 115, "channel": 0}, {"type": "note_off", "time": 70, "note": 73, "velocity": 115, "channel": 0}, {"type": "note_on", "time": 16, "note": 74, "velocity": 104, "channel": 0}, {"type": "note_off", "time": 92, "note": 74, "velocity": 104, "channel": 0}, {"type": "note_on", "time": 5, "note": 72, "velocity": 117, "channel": 0}, {"type": "note_off", "time": 103, "note": 72, "velocity": 117, "channel": 0}, {"type": "note_on", "time": 0, "note": 69, "velocity": 114, "channel": 0}, {"type": "note_off", "time": 90, "note": 69, "velocity": 114, "channel": 0}, {"type": "note_on", "time": 10, "note": 71, "velocity": 117, "channel": 0}, {"type": "note_off", "time": 92, "note": 71, "velocity": 117, "channel": 0}, {"type": "note_on", "time": 10, "note": 68, "velocity": 112, "channel": 0}, {"type": "note_off", "time": 76, "note": 68, "velocity": 112, "channel": 0}, {"type": "note_on", "time": 10, "note": 67, "velocity": 111, "channel": 0}, {"type": "note_off", "time": 98, "note": 67, "velocity": 111, "channel": 0}, {"type": "note_on", "time": 10, "note": 65, "velocity": 115, "channel": 0}, {"type": "note_off", "time": 92, "note": 65, "velocity": 115, "channel": 0}, {"type": "note_on", "time": 0, "note": 64, "velocity": 116, "channel": 0}, {"type": "note_off", "time": 90, "note": 64, "velocity": 116, "channel": 0}, {"type": "note_on", "time": 8, "note": 67, "velocity": 119, "channel": 0}, {"type": "note_off", "time": 90, "note": 67, "velocity": 119, "channel": 0}, {"type": "note_on", "time": 0, "note": 62, "velocity": 118, "channel": 0}, {"type": "note_off", "time": 90, "note": 62, "velocity": 118, "channel": 0}, {"type": "note_on", "time": 16, "note": 61, "velocity": 115, "channel": 0}, {"type": "note_off", "time": 84, "note": 61, "velocity": 115, "channel": 0}, {"type": "note_on", "time": 16, "note": 60, "velocity": 117, "channel": 0}, {"type": "note_off", "time": 95, "note": 60, "velocity": 117, "channel": 0}, {"type": "note_on", "time": 0, "note": 59, "velocity": 110, "channel": 0}, {"type": "note_off", "time": 87, "note": 59, "velocity": 110, "channel": 0}, {"type": "note_on", "time": 8, "note": 58, "velocity": 105, "channel": 0}, {"type": "note_off", "time": 90, "note": 58, "velocity": 105, "channel": 0}, {"type": "note_on", "time": 5, "note": 56, "velocity": 109, "channel": 0}, {"type": "note_on", "time": 128, "note": 57, "velocity": 107, "channel": 0}, {"type": "note_off", "time": 0, "note": 56, "velocity": 109, "channel": 0}, {"type": "note_off", "time": 90, "note": 57, "velocity": 107, "channel": 0}, {"type": "note_on", "time": 5, "note": 53, "velocity": 109, "channel": 0}, {"type": "note_off", "time": 81, "note": 53, "velocity": 109, "channel": 0}, {"type": "note_on", "time": 5, "note": 52, "velocity": 105, "channel": 0}, {"type": "note_off", "time": 84, "note": 52, "velocity": 105, "channel": 0}, {"type": "note_on", "time": 13, "note": 50, "velocity": 106, "channel": 0}, {"type": "note_off", "time": 62, "note": 50, "velocity": 106, "channel": 0}, {"type": "note_on", "time": 2, "note": 56, "velocity": 114, "channel": 0}, {"type": "note_off", "time": 114, "note": 56, "velocity": 114, "channel": 0}, {"type": "note_on", "time": 8, "note": 54, "velocity": 111, "channel": 0}, {"type": "note_off", "time": 87, "note": 54, "velocity": 111, "channel": 0}, {"type": "note_on", "time": 8, "note": 55, "velocity": 115, "channel": 0}, {"type": "note_off", "time": 98, "note": 55, "velocity": 115, "channel": 0}, {"type": "note_on", "time": 2, "note": 53, "velocity": 111, "channel": 0}, {"type": "note_off", "time": 81, "note": 53, "velocity": 111, "channel": 0}, {"type": "note_on", "time": 13, "note": 52, "velocity": 102, "channel": 0}, {"type": "note_off", "time": 81, "note": 52, "velocity": 102, "channel": 0}, {"type": "note_on", "time": 49, "note": 55, "velocity": 100, "channel": 0}, {"type": "note_on", "time": 57, "note": 57, "velocity": 111, "channel": 0}, {"type": "note_off", "time": 0, "note": 55, "velocity": 100, "channel": 0}, {"type": "note_off", "time": 106, "note": 57, "velocity": 111, "channel": 0}, {"type": "note_on", "time": 5, "note": 59, "velocity": 106, "channel": 0}, {"type": "note_off", "time": 103, "note": 59, "velocity": 106, "channel": 0}, {"type": "note_on", "time": 2, "note": 62, "velocity": 115, "channel": 0}, {"type": "note_off", "time": 111, "note": 62, "velocity": 115, "channel": 0}, {"type": "note_on", "time": 2, "note": 59, "velocity": 97, "channel": 0}, {"type": "note_off", "time": 62, "note": 59, "velocity": 97, "channel": 0}, {"type": "note_on", "time": 10, "note": 60, "velocity": 121, "channel": 0}, {"type": "note_off", "time": 70, "note": 60, "velocity": 121, "channel": 0}, {"type": "note_on", "time": 32, "note": 60, "velocity": 122, "channel": 0}, {"type": "note_off", "time": 95, "note": 60, "velocity": 122, "channel": 0}, {"type": "note_on", "time": 5, "note": 59, "velocity": 105, "channel": 0}, {"type": "note_off", "time": 98, "note": 59, "velocity": 105, "channel": 0}, {"type": "note_on", "time": 0, "note": 60, "velocity": 118, "channel": 0}, {"type": "note_off", "time": 103, "note": 60, "velocity": 118, "channel": 0}, {"type": "note_on", "time": 5, "note": 64, "velocity": 62, "channel": 0}, {"type": "note_off", "time": 76, "note": 64, "velocity": 62, "channel": 0}, {"type": "note_on", "time": 5, "note": 67, "velocity": 112, "channel": 0}, {"type": "note_off", "time": 92, "note": 67, "velocity": 112, "channel": 0}, {"type": "note_on", "time": 2, "note": 71, "velocity": 122, "channel": 0}, {"type": "note_off", "time": 103, "note": 71, "velocity": 122, "channel": 0}, {"type": "note_on", "time": 10, "note": 69, "velocity": 115, "channel": 0}, {"type": "note_off", "time": 70, "note": 69, "velocity": 115, "channel": 0}, {"type": "note_on", "time": 10, "note": 67, "velocity": 114, "channel": 0}, {"type": "note_off", "time": 111, "note": 67, "velocity": 114, "channel": 0}, {"type": "note_on", "time": 0, "note": 59, "velocity": 98, "channel": 0}, {"type": "note_off", "time": 51, "note": 59, "velocity": 98, "channel": 0}, {"type": "note_on", "time": 8, "note": 60, "velocity": 110, "channel": 0}, {"type": "note_off", "time": 125, "note": 60, "velocity": 110, "channel": 0}, {"type": "note_on", "time": 10, "note": 65, "velocity": 119, "channel": 0}, {"type": "note_off", "time": 84, "note": 65, "velocity": 119, "channel": 0}, {"type": "note_on", "time": 16, "note": 64, "velocity": 118, "channel": 0}, {"type": "note_off", "time": 79, "note": 64, "velocity": 118, "channel": 0}, {"type": "note_on", "time": 0, "note": 60, "velocity": 114, "channel": 0}, {"type": "note_off", "time": 95, "note": 60, "velocity": 114, "channel": 0}, {"type": "note_on", "time": 0, "note": 57, "velocity": 103, "channel": 0}, {"type": "note_off", "time": 122, "note": 57, "velocity": 103, "channel": 0}, {"type": "note_on", "time": 8, "note": 56, "velocity": 110, "channel": 0}, {"type": "note_off", "time": 76, "note": 56, "velocity": 110, "channel": 0}, {"type": "note_on", "time": 21, "note": 55, "velocity": 111, "channel": 0}, {"type": "note_off", "time": 92, "note": 55, "velocity": 111, "channel": 0}, {"type": "note_on", "time": 2, "note": 53, "velocity": 109, "channel": 0}, {"type": "note_off", "time": 79, "note": 53, "velocity": 109, "channel": 0}, {"type": "note_on", "time": 2, "note": 52, "velocity": 105, "channel": 0}, {"type": "note_off", "time": 101, "note": 52, "velocity": 105, "channel": 0}, {"type": "note_on", "time": 0, "note": 62, "velocity": 109, "channel": 0}, {"type": "note_off", "time": 125, "note": 62, "velocity": 109, "channel": 0}, {"type": "note_on", "time": 10, "note": 59, "velocity": 95, "channel": 0}, {"type": "note_off", "time": 87, "note": 59, "velocity": 95, "channel": 0}, {"type": "note_on", "time": 0, "note": 55, "velocity": 97, "channel": 0}, {"type": "note_off", "time": 73, "note": 55, "velocity": 97, "channel": 0}, {"type": "note_on", "time": 5, "note": 61, "velocity": 114, "channel": 0}, {"type": "note_off", "time": 106, "note": 61, "velocity": 114, "channel": 0}, {"type": "note_on", "time": 0, "note": 58, "velocity": 97, "channel": 0}, {"type": "note_off", "time": 106, "note": 58, "velocity": 97, "channel": 0}, {"type": "note_on", "time": 10, "note": 54, "velocity": 96, "channel": 0}, {"type": "note_off", "time": 73, "note": 54, "velocity": 96, "channel": 0}, {"type": "note_on", "time": 2, "note": 50, "velocity": 99, "channel": 0}, {"type": "note_off", "time": 46, "note": 50, "velocity": 99, "channel": 0}, {"type": "note_on", "time": 13, "note": 60, "velocity": 119, "channel": 0}, {"type": "note_off", "time": 131, "note": 60, "velocity": 119, "channel": 0}, {"type": "note_on", "time": 13, "note": 57, "velocity": 106, "channel": 0}, {"type": "note_off", "time": 84, "note": 57, "velocity": 106, "channel": 0}, {"type": "note_on", "time": 19, "note": 53, "velocity": 98, "channel": 0}, {"type": "note_off", "time": 92, "note": 53, "velocity": 98, "channel": 0}, {"type": "note_on", "time": 2, "note": 57, "velocity": 91, "channel": 0}, {"type": "note_off", "time": 40, "note": 57, "velocity": 91, "channel": 0}, {"type": "note_on", "time": 0, "note": 59, "velocity": 105, "channel": 0}, {"type": "note_off", "time": 308, "note": 59, "velocity": 105, "channel": 0}, {"type": "note_on", "time": 13, "note": 57, "velocity": 110, "channel": 0}, {"type": "note_off", "time": 84, "note": 57, "velocity": 110, "channel": 0}, {"type": "note_on", "time": 8, "note": 55, "velocity": 110, "channel": 0}, {"type": "note_off", "time": 122, "note": 55, "velocity": 110, "channel": 0}, {"type": "note_on", "time": 5, "note": 52, "velocity": 95, "channel": 0}, {"type": "note_off", "time": 120, "note": 52, "velocity": 95, "channel": 0}, {"type": "note_on", "time": 682, "note": 66, "velocity": 115, "channel": 0}, {"type": "note_off", "time": 73, "note": 66, "velocity": 115, "channel": 0}, {"type": "note_on", "time": 0, "note": 68, "velocity": 116, "channel": 0}, {"type": "note_off", "time": 57, "note": 68, "velocity": 116, "channel": 0}, {"type": "note_on", "time": 5, "note": 71, "velocity": 113, "channel": 0}, {"type": "note_off", "time": 62, "note": 71, "velocity": 113, "channel": 0}, {"type": "note_on", "time": 0, "note": 70, "velocity": 115, "channel": 0}, {"type": "note_off", "time": 30, "note": 70, "velocity": 115, "channel": 0}, {"type": "note_on", "time": 10, "note": 68, "velocity": 112, "channel": 0}, {"type": "note_off", "time": 60, "note": 68, "velocity": 112, "channel": 0}, {"type": "note_on", "time": 2, "note": 67, "velocity": 112, "channel": 0}, {"type": "note_off", "time": 84, "note": 67, "velocity": 112, "channel": 0}, {"type": "note_on", "time": 474, "note": 69, "velocity": 114, "channel": 0}, {"type": "note_off", "time": 125, "note": 69, "velocity": 114, "channel": 0}, {"type": "note_on", "time": 2, "note": 70, "velocity": 108, "channel": 0}, {"type": "note_off", "time": 139, "note": 70, "velocity": 108, "channel": 0}, {"type": "note_on", "time": 19, "note": 69, "velocity": 116, "channel": 0}, {"type": "note_off", "time": 98, "note": 69, "velocity": 116, "channel": 0}, {"type": "note_on", "time": 13, "note": 64, "velocity": 108, "channel": 0}, {"type": "note_off", "time": 87, "note": 64, "velocity": 108, "channel": 0}, {"type": "note_on", "time": 10, "note": 67, "velocity": 116, "channel": 0}, {"type": "note_off", "time": 114, "note": 67, "velocity": 116, "channel": 0}, {"type": "note_on", "time": 2, "note": 66, "velocity": 113, "channel": 0}, {"type": "note_off", "time": 73, "note": 66, "velocity": 113, "channel": 0}, {"type": "note_on", "time": 10, "note": 65, "velocity": 117, "channel": 0}, {"type": "note_off", "time": 114, "note": 65, "velocity": 117, "channel": 0}, {"type": "note_on", "time": 10, "note": 57, "velocity": 105, "channel": 0}, {"type": "note_off", "time": 68, "note": 57, "velocity": 105, "channel": 0}, {"type": "note_on", "time": 2, "note": 64, "velocity": 123, "channel": 0}, {"type": "note_off", "time": 101, "note": 64, "velocity": 123, "channel": 0}, {"type": "note_on", "time": 13, "note": 65, "velocity": 117, "channel": 0}, {"type": "note_off", "time": 98, "note": 65, "velocity": 117, "channel": 0}, {"type": "note_on", "time": 10, "note": 62, "velocity": 114, "channel": 0}, {"type": "note_off", "time": 84, "note": 62, "velocity": 114, "channel": 0}, {"type": "note_on", "time": 16, "note": 59, "velocity": 94, "channel": 0}, {"type": "note_off", "time": 70, "note": 59, "velocity": 94, "channel": 0}, {"type": "note_on", "time": 16, "note": 60, "velocity": 123, "channel": 0}, {"type": "note_off", "time": 98, "note": 60, "velocity": 123, "channel": 0}, {"type": "note_on", "time": 16, "note": 55, "velocity": 111, "channel": 0}, {"type": "note_off", "time": 87, "note": 55, "velocity": 111, "channel": 0}, {"type": "note_on", "time": 0, "note": 52, "velocity": 96, "channel": 0}, {"type": "note_off", "time": 87, "note": 52, "velocity": 96, "channel": 0}, {"type": "note_on", "time": 0, "note": 55, "velocity": 113, "channel": 0}, {"type": "note_off", "time": 98, "note": 55, "velocity": 113, "channel": 0}, {"type": "note_on", "time": 10, "note": 53, "velocity": 107, "channel": 0}, {"type": "note_off", "time": 98, "note": 53, "velocity": 107, "channel": 0}, {"type": "note_on", "time": 2, "note": 55, "velocity": 108, "channel": 0}, {"type": "note_off", "time": 40, "note": 55, "velocity": 108, "channel": 0}, {"type": "note_on", "time": 19, "note": 56, "velocity": 111, "channel": 0}, {"type": "note_off", "time": 120, "note": 56, "velocity": 111, "channel": 0}, {"type": "note_on", "time": 0, "note": 54, "velocity": 100, "channel": 0}, {"type": "note_off", "time": 43, "note": 54, "velocity": 100, "channel": 0}, {"type": "note_on", "time": 8, "note": 55, "velocity": 111, "channel": 0}, {"type": "note_off", "time": 147, "note": 55, "velocity": 111, "channel": 0}, {"type": "note_on", "time": 10, "note": 52, "velocity": 100, "channel": 0}, {"type": "note_off", "time": 242, "note": 52, "velocity": 100, "channel": 0}, {"type": "note_on", "time": 305, "note": 46, "velocity": 116, "channel": 0}, {"type": "note_off", "time": 161, "note": 46, "velocity": 116, "channel": 0}, {"type": "note_on", "time": 16, "note": 45, "velocity": 113, "channel": 0}, {"type": "note_off", "time": 163, "note": 45, "velocity": 113, "channel": 0}, {"type": "note_on", "time": 39, "note": 56, "velocity": 111, "channel": 0}, {"type": "note_off", "time": 54, "note": 56, "velocity": 111, "channel": 0}, {"type": "note_on", "time": 4, "note": 57, "velocity": 110, "channel": 0}, {"type": "note_off", "time": 223, "note": 57, "velocity": 110, "channel": 0}, {"type": "note_on", "time": 10, "note": 55, "velocity": 114, "channel": 0}, {"type": "note_off", "time": 147, "note": 55, "velocity": 114, "channel": 0}, {"type": "note_on", "time": 10, "note": 52, "velocity": 104, "channel": 0}, {"type": "note_off", "time": 122, "note": 52, "velocity": 104, "channel": 0}, {"type": "note_on", "time": 8, "note": 53, "velocity": 114, "channel": 0}, {"type": "note_off", "time": 117, "note": 53, "velocity": 114, "channel": 0}, {"type": "note_on", "time": 19, "note": 48, "velocity": 105, "channel": 0}, {"type": "note_off", "time": 120, "note": 48, "velocity": 105, "channel": 0}, {"type": "note_on", "time": 19, "note": 44, "velocity": 111, "channel": 0}, {"type": "note_off", "time": 333, "note": 44, "velocity": 111, "channel": 0}, {"type": "note_on", "time": 548, "note": 56, "velocity": 87, "channel": 0}, {"type": "note_off", "time": 62, "note": 56, "velocity": 87, "channel": 0}, {"type": "note_on", "time": 2, "note": 60, "velocity": 113, "channel": 0}, {"type": "note_off", "time": 109, "note": 60, "velocity": 113, "channel": 0}, {"type": "note_on", "time": 0, "note": 65, "velocity": 119, "channel": 0}, {"type": "note_off", "time": 90, "note": 65, "velocity": 119, "channel": 0}, {"type": "note_on", "time": 40, "note": 65, "velocity": 119, "channel": 0}, {"type": "note_off", "time": 73, "note": 65, "velocity": 119, "channel": 0}, {"type": "note_on", "time": 13, "note": 65, "velocity": 116, "channel": 0}, {"type": "note_off", "time": 68, "note": 65, "velocity": 116, "channel": 0}, {"type": "note_on", "time": 32, "note": 65, "velocity": 118, "channel": 0}, {"type": "note_off", "time": 68, "note": 65, "velocity": 118, "channel": 0}, {"type": "note_on", "time": 38, "note": 65, "velocity": 117, "channel": 0}, {"type": "note_off", "time": 84, "note": 65, "velocity": 117, "channel": 0}, {"type": "note_on", "time": 21, "note": 64, "velocity": 121, "channel": 0}, {"type": "note_off", "time": 87, "note": 64, "velocity": 121, "channel": 0}, {"type": "note_on", "time": 5, "note": 60, "velocity": 111, "channel": 0}, {"type": "note_off", "time": 92, "note": 60, "velocity": 111, "channel": 0}, {"type": "note_on", "time": 548, "note": 68, "velocity": 98, "channel": 0}, {"type": "note_off", "time": 81, "note": 68, "velocity": 98, "channel": 0}, {"type": "note_on", "time": 2, "note": 69, "velocity": 108, "channel": 0}, {"type": "note_off", "time": 46, "note": 69, "velocity": 108, "channel": 0}, {"type": "note_on", "time": 2, "note": 68, "velocity": 118, "channel": 0}, {"type": "note_off", "time": 81, "note": 68, "velocity": 118, "channel": 0}, {"type": "note_on", "time": 10, "note": 67, "velocity": 118, "channel": 0}, {"type": "note_off", "time": 92, "note": 67, "velocity": 118, "channel": 0}, {"type": "note_on", "time": 0, "note": 64, "velocity": 105, "channel": 0}, {"type": "note_off", "time": 79, "note": 64, "velocity": 105, "channel": 0}, {"type": "note_on", "time": 21, "note": 65, "velocity": 117, "channel": 0}, {"type": "note_off", "time": 65, "note": 65, "velocity": 117, "channel": 0}, {"type": "note_on", "time": 8, "note": 66, "velocity": 107, "channel": 0}, {"type": "note_off", "time": 32, "note": 66, "velocity": 107, "channel": 0}, {"type": "note_on", "time": 10, "note": 65, "velocity": 115, "channel": 0}, {"type": "note_off", "time": 62, "note": 65, "velocity": 115, "channel": 0}, {"type": "note_on", "time": 13, "note": 64, "velocity": 113, "channel": 0}, {"type": "note_off", "time": 84, "note": 64, "velocity": 113, "channel": 0}, {"type": "note_on", "time": 0, "note": 62, "velocity": 121, "channel": 0}, {"type": "note_off", "time": 90, "note": 62, "velocity": 121, "channel": 0}, {"type": "note_on", "time": 10, "note": 60, "velocity": 114, "channel": 0}, {"type": "note_off", "time": 103, "note": 60, "velocity": 114, "channel": 0}, {"type": "note_on", "time": 0, "note": 55, "velocity": 108, "channel": 0}, {"type": "note_off", "time": 111, "note": 55, "velocity": 108, "channel": 0}, {"type": "note_on", "time": 1034, "note": 62, "velocity": 117, "channel": 0}, {"type": "note_off", "time": 106, "note": 62, "velocity": 117, "channel": 0}, {"type": "note_on", "time": 2, "note": 59, "velocity": 102, "channel": 0}, {"type": "note_off", "time": 84, "note": 59, "velocity": 102, "channel": 0}, {"type": "note_on", "time": 0, "note": 60, "velocity": 106, "channel": 0}, {"type": "note_off", "time": 133, "note": 60, "velocity": 106, "channel": 0}, {"type": "note_on", "time": 54, "note": 67, "velocity": 104, "channel": 0}, {"type": "note_off", "time": 103, "note": 67, "velocity": 104, "channel": 0}, {"type": "note_on", "time": 2, "note": 71, "velocity": 125, "channel": 0}, {"type": "note_off", "time": 120, "note": 71, "velocity": 125, "channel": 0}, {"type": "note_on", "time": 8, "note": 69, "velocity": 117, "channel": 0}, {"type": "note_on", "time": 76, "note": 67, "velocity": 119, "channel": 0}, {"type": "note_off", "time": 0, "note": 69, "velocity": 117, "channel": 0}, {"type": "note_off", "time": 111, "note": 67, "velocity": 119, "channel": 0}, {"type": "note_on", "time": 0, "note": 65, "velocity": 117, "channel": 0}, {"type": "note_off", "time": 95, "note": 65, "velocity": 117, "channel": 0}, {"type": "note_on", "time": 0, "note": 64, "velocity": 116, "channel": 0}, {"type": "note_off", "time": 81, "note": 64, "velocity": 116, "channel": 0}, {"type": "note_on", "time": 13, "note": 62, "velocity": 116, "channel": 0}, {"type": "note_off", "time": 70, "note": 62, "velocity": 116, "channel": 0}, {"type": "note_on", "time": 16, "note": 61, "velocity": 107, "channel": 0}, {"type": "note_off", "time": 49, "note": 61, "velocity": 107, "channel": 0}, {"type": "note_on", "time": 0, "note": 64, "velocity": 115, "channel": 0}, {"type": "note_off", "time": 57, "note": 64, "velocity": 115, "channel": 0}, {"type": "note_on", "time": 8, "note": 67, "velocity": 109, "channel": 0}, {"type": "note_off", "time": 60, "note": 67, "velocity": 109, "channel": 0}, {"type": "note_on", "time": 2, "note": 70, "velocity": 119, "channel": 0}, {"type": "note_off", "time": 122, "note": 70, "velocity": 119, "channel": 0}, {"type": "note_on", "time": 0, "note": 68, "velocity": 108, "channel": 0}, {"type": "note_off", "time": 79, "note": 68, "velocity": 108, "channel": 0}, {"type": "note_on", "time": 24, "note": 69, "velocity": 116, "channel": 0}, {"type": "note_off", "time": 95, "note": 69, "velocity": 116, "channel": 0}, {"type": "note_on", "time": 0, "note": 65, "velocity": 110, "channel": 0}, {"type": "note_off", "time": 87, "note": 65, "velocity": 110, "channel": 0}, {"type": "note_on", "time": 8, "note": 64, "velocity": 102, "channel": 0}, {"type": "note_off", "time": 87, "note": 64, "velocity": 102, "channel": 0}, {"type": "note_on", "time": 2, "note": 62, "velocity": 103, "channel": 0}, {"type": "note_off", "time": 68, "note": 62, "velocity": 103, "channel": 0}, {"type": "note_on", "time": 0, "note": 67, "velocity": 120, "channel": 0}, {"type": "note_off", "time": 150, "note": 67, "velocity": 120, "channel": 0}, {"type": "note_on", "time": 0, "note": 65, "velocity": 116, "channel": 0}, {"type": "note_off", "time": 90, "note": 65, "velocity": 116, "channel": 0}, {"type": "note_on", "time": 2, "note": 64, "velocity": 118, "channel": 0}, {"type": "note_on", "time": 76, "note": 62, "velocity": 120, "channel": 0}, {"type": "note_off", "time": 0, "note": 64, "velocity": 118, "channel": 0}, {"type": "note_off", "time": 92, "note": 62, "velocity": 120, "channel": 0}, {"type": "note_on", "time": 0, "note": 60, "velocity": 116, "channel": 0}, {"type": "note_off", "time": 125, "note": 60, "velocity": 116, "channel": 0}, {"type": "note_on", "time": 0, "note": 62, "velocity": 108, "channel": 0}, {"type": "note_off", "time": 57, "note": 62, "velocity": 108, "channel": 0}, {"type": "note_on", "time": 0, "note": 64, "velocity": 118, "channel": 0}, {"type": "note_off", "time": 128, "note": 64, "velocity": 118, "channel": 0}, {"type": "note_on", "time": 0, "note": 65, "velocity": 107, "channel": 0}, {"type": "note_off", "time": 57, "note": 65, "velocity": 107, "channel": 0}, {"type": "note_on", "time": 0, "note": 67, "velocity": 122, "channel": 0}, {"type": "note_off", "time": 150, "note": 67, "velocity": 122, "channel": 0}, {"type": "note_on", "time": 8, "note": 69, "velocity": 100, "channel": 0}, {"type": "note_off", "time": 49, "note": 69, "velocity": 100, "channel": 0}, {"type": "note_on", "time": 0, "note": 71, "velocity": 119, "channel": 0}, {"type": "note_off", "time": 141, "note": 71, "velocity": 119, "channel": 0}, {"type": "note_on", "time": 8, "note": 72, "velocity": 120, "channel": 0}, {"type": "note_off", "time": 125, "note": 72, "velocity": 120, "channel": 0}, {"type": "note_on", "time": 38, "note": 71, "velocity": 123, "channel": 0}, {"type": "note_off", "time": 125, "note": 71, "velocity": 123, "channel": 0}, {"type": "note_on", "time": 10, "note": 69, "velocity": 119, "channel": 0}, {"type": "note_off", "time": 120, "note": 69, "velocity": 119, "channel": 0}, {"type": "note_on", "time": 294, "note": 66, "velocity": 121, "channel": 0}, {"type": "note_off", "time": 79, "note": 66, "velocity": 121, "channel": 0}, {"type": "note_on", "time": 10, "note": 67, "velocity": 123, "channel": 0}, {"type": "note_off", "time": 81, "note": 67, "velocity": 123, "channel": 0}, {"type": "note_on", "time": 51, "note": 65, "velocity": 119, "channel": 0}, {"type": "note_off", "time": 120, "note": 65, "velocity": 119, "channel": 0}, {"type": "note_on", "time": 0, "note": 64, "velocity": 118, "channel": 0}, {"type": "note_off", "time": 133, "note": 64, "velocity": 118, "channel": 0}, {"type": "note_on", "time": 2, "note": 62, "velocity": 119, "channel": 0}, {"type": "note_off", "time": 122, "note": 62, "velocity": 119, "channel": 0}, {"type": "note_on", "time": 62, "note": 60, "velocity": 118, "channel": 0}, {"type": "note_off", "time": 150, "note": 60, "velocity": 118, "channel": 0}, {"type": "note_on", "time": 10, "note": 55, "velocity": 109, "channel": 0}, {"type": "note_off", "time": 106, "note": 55, "velocity": 109, "channel": 0}, {"type": "note_on", "time": 0, "note": 63, "velocity": 123, "channel": 0}, {"type": "note_off", "time": 68, "note": 63, "velocity": 123, "channel": 0}, {"type": "note_on", "time": 8, "note": 64, "velocity": 116, "channel": 0}, {"type": "note_off", "time": 188, "note": 64, "velocity": 116, "channel": 0}, {"type": "note_on", "time": 8, "note": 65, "velocity": 120, "channel": 0}, {"type": "note_off", "time": 114, "note": 65, "velocity": 120, "channel": 0}, {"type": "note_on", "time": 13, "note": 64, "velocity": 113, "channel": 0}, {"type": "note_off", "time": 324, "note": 64, "velocity": 113, "channel": 0}, {"type": "note_on", "time": 40, "note": 64, "velocity": 116, "channel": 0}, {"type": "note_off", "time": 122, "note": 64, "velocity": 116, "channel": 0}, {"type": "note_on", "time": 0, "note": 67, "velocity": 107, "channel": 0}, {"type": "note_off", "time": 111, "note": 67, "velocity": 107, "channel": 0}, {"type": "note_on", "time": 16, "note": 60, "velocity": 101, "channel": 0}, {"type": "note_off", "time": 81, "note": 60, "velocity": 101, "channel": 0}, {"type": "note_on", "time": 0, "note": 62, "velocity": 102, "channel": 0}, {"type": "note_off", "time": 76, "note": 62, "velocity": 102, "channel": 0}, {"type": "note_on", "time": 8, "note": 64, "velocity": 121, "channel": 0}, {"type": "note_off", "time": 79, "note": 64, "velocity": 121, "channel": 0}, {"type": "note_on", "time": 54, "note": 55, "velocity": 110, "channel": 0}, {"type": "note_on", "time": 185, "note": 58, "velocity": 107, "channel": 0}, {"type": "note_off", "time": 0, "note": 55, "velocity": 110, "channel": 0}, {"type": "note_off", "time": 210, "note": 58, "velocity": 107, "channel": 0}, {"type": "note_on", "time": 327, "note": 56, "velocity": 108, "channel": 0}, {"type": "note_off", "time": 51, "note": 56, "velocity": 108, "channel": 0}, {"type": "note_on", "time": 2, "note": 58, "velocity": 113, "channel": 0}, {"type": "note_on", "time": 46, "note": 62, "velocity": 114, "channel": 0}, {"type": "note_off", "time": 0, "note": 58, "velocity": 113, "channel": 0}, {"type": "note_off", "time": 70, "note": 62, "velocity": 114, "channel": 0}, {"type": "note_on", "time": 21, "note": 69, "velocity": 111, "channel": 0}, {"type": "note_off", "time": 79, "note": 69, "velocity": 111, "channel": 0}, {"type": "note_on", "time": 10, "note": 72, "velocity": 120, "channel": 0}, {"type": "note_off", "time": 221, "note": 72, "velocity": 120, "channel": 0}, {"type": "note_on", "time": 8, "note": 70, "velocity": 117, "channel": 0}, {"type": "note_off", "time": 68, "note": 70, "velocity": 117, "channel": 0}, {"type": "note_on", "time": 2, "note": 65, "velocity": 116, "channel": 0}, {"type": "note_off", "time": 62, "note": 65, "velocity": 116, "channel": 0}, {"type": "note_on", "time": 16, "note": 61, "velocity": 109, "channel": 0}, {"type": "note_off", "time": 57, "note": 61, "velocity": 109, "channel": 0}, {"type": "note_on", "time": 21, "note": 63, "velocity": 124, "channel": 0}, {"type": "note_off", "time": 125, "note": 63, "velocity": 124, "channel": 0}, {"type": "note_on", "time": 10, "note": 64, "velocity": 106, "channel": 0}, {"type": "note_off", "time": 84, "note": 64, "velocity": 106, "channel": 0}, {"type": "note_on", "time": 278, "note": 55, "velocity": 112, "channel": 0}, {"type": "note_off", "time": 81, "note": 55, "velocity": 112, "channel": 0}, {"type": "note_on", "time": 8, "note": 56, "velocity": 110, "channel": 0}, {"type": "note_off", "time": 84, "note": 56, "velocity": 110, "channel": 0}, {"type": "note_on", "time": 21, "note": 67, "velocity": 112, "channel": 0}, {"type": "note_off", "time": 117, "note": 67, "velocity": 112, "channel": 0}, {"type": "note_on", "time": 53, "note": 65, "velocity": 117, "channel": 0}, {"type": "note_off", "time": 111, "note": 65, "velocity": 117, "channel": 0}, {"type": "note_on", "time": 77, "note": 70, "velocity": 115, "channel": 0}, {"type": "note_off", "time": 120, "note": 70, "velocity": 115, "channel": 0}, {"type": "note_on", "time": 109, "note": 68, "velocity": 119, "channel": 0}, {"type": "note_off", "time": 163, "note": 68, "velocity": 119, "channel": 0}, {"type": "note_on", "time": 49, "note": 63, "velocity": 123, "channel": 0}, {"type": "note_off", "time": 79, "note": 63, "velocity": 123, "channel": 0}, {"type": "note_on", "time": 62, "note": 59, "velocity": 107, "channel": 0}, {"type": "note_off", "time": 90, "note": 59, "velocity": 107, "channel": 0}, {"type": "note_on", "time": 16, "note": 61, "velocity": 116, "channel": 0}, {"type": "note_off", "time": 101, "note": 61, "velocity": 116, "channel": 0}, {"type": "note_on", "time": 0, "note": 55, "velocity": 102, "channel": 0}, {"type": "note_on", "time": 54, "note": 60, "velocity": 113, "channel": 0}, {"type": "note_off", "time": 0, "note": 55, "velocity": 102, "channel": 0}, {"type": "note_off", "time": 101, "note": 60, "velocity": 113, "channel": 0}, {"type": "note_on", "time": 90, "note": 65, "velocity": 114, "channel": 0}, {"type": "note_off", "time": 144, "note": 65, "velocity": 114, "channel": 0}, {"type": "note_on", "time": 0, "note": 60, "velocity": 105, "channel": 0}, {"type": "note_off", "time": 73, "note": 60, "velocity": 105, "channel": 0}, {"type": "note_on", "time": 0, "note": 64, "velocity": 117, "channel": 0}, {"type": "note_off", "time": 125, "note": 64, "velocity": 117, "channel": 0}, {"type": "note_on", "time": 0, "note": 60, "velocity": 120, "channel": 0}, {"type": "note_off", "time": 92, "note": 60, "velocity": 120, "channel": 0}, {"type": "note_on", "time": 10, "note": 58, "velocity": 100, "channel": 0}, {"type": "note_off", "time": 73, "note": 58, "velocity": 100, "channel": 0}, {"type": "note_on", "time": 8, "note": 56, "velocity": 97, "channel": 0}, {"type": "note_off", "time": 95, "note": 56, "velocity": 97, "channel": 0}, {"type": "note_on", "time": 13, "note": 57, "velocity": 114, "channel": 0}, {"type": "note_on", "time": 79, "note": 60, "velocity": 112, "channel": 0}, {"type": "note_off", "time": 0, "note": 57, "velocity": 114, "channel": 0}, {"type": "note_off", "time": 133, "note": 60, "velocity": 112, "channel": 0}, {"type": "note_on", "time": 0, "note": 62, "velocity": 107, "channel": 0}, {"type": "note_off", "time": 60, "note": 62, "velocity": 107, "channel": 0}, {"type": "note_on", "time": 8, "note": 64, "velocity": 101, "channel": 0}, {"type": "note_off", "time": 40, "note": 64, "velocity": 101, "channel": 0}, {"type": "note_on", "time": 10, "note": 65, "velocity": 107, "channel": 0}, {"type": "note_off", "time": 30, "note": 65, "velocity": 107, "channel": 0}, {"type": "note_on", "time": 2, "note": 67, "velocity": 115, "channel": 0}, {"type": "note_off", "time": 128, "note": 67, "velocity": 115, "channel": 0}, {"type": "note_on", "time": 5, "note": 65, "velocity": 101, "channel": 0}, {"type": "note_off", "time": 65, "note": 65, "velocity": 101, "channel": 0}, {"type": "note_on", "time": 0, "note": 72, "velocity": 120, "channel": 0}, {"type": "note_off", "time": 117, "note": 72, "velocity": 120, "channel": 0}, {"type": "note_on", "time": 2, "note": 68, "velocity": 123, "channel": 0}, {"type": "note_off", "time": 90, "note": 68, "velocity": 123, "channel": 0}, {"type": "note_on", "time": 5, "note": 67, "velocity": 110, "channel": 0}, {"type": "note_off", "time": 106, "note": 67, "velocity": 110, "channel": 0}, {"type": "note_on", "time": 2, "note": 65, "velocity": 110, "channel": 0}, {"type": "note_off", "time": 87, "note": 65, "velocity": 110, "channel": 0}, {"type": "note_on", "time": 2, "note": 64, "velocity": 105, "channel": 0}, {"type": "note_off", "time": 95, "note": 64, "velocity": 105, "channel": 0}, {"type": "note_on", "time": 0, "note": 62, "velocity": 114, "channel": 0}, {"type": "note_off", "time": 95, "note": 62, "velocity": 114, "channel": 0}, {"type": "note_on", "time": 0, "note": 60, "velocity": 105, "channel": 0}, {"type": "note_off", "time": 81, "note": 60, "velocity": 105, "channel": 0}, {"type": "note_on", "time": 581, "note": 68, "velocity": 117, "channel": 0}, {"type": "note_off", "time": 84, "note": 68, "velocity": 117, "channel": 0}, {"type": "note_on", "time": 10, "note": 69, "velocity": 121, "channel": 0}, {"type": "note_off", "time": 193, "note": 69, "velocity": 121, "channel": 0}, {"type": "note_on", "time": 5, "note": 68, "velocity": 113, "channel": 0}, {"type": "note_off", "time": 79, "note": 68, "velocity": 113, "channel": 0}, {"type": "note_on", "time": 0, "note": 67, "velocity": 114, "channel": 0}, {"type": "note_off", "time": 117, "note": 67, "velocity": 114, "channel": 0}, {"type": "note_on", "time": 16, "note": 65, "velocity": 112, "channel": 0}, {"type": "note_off", "time": 70, "note": 65, "velocity": 112, "channel": 0}, {"type": "note_on", "time": 0, "note": 67, "velocity": 109, "channel": 0}, {"type": "note_off", "time": 111, "note": 67, "velocity": 109, "channel": 0}, {"type": "end_of_track", "time": 0}]]}