{"ticks_per_beat": 192, "tracks": [[{"type": "track_name", "name": "Melody", "time": 0}, {"type": "set_tempo", "tempo": 384615, "time": 0}, {"type": "key_signature", "key": "G", "time": 0}, {"type": "time_signature", "numerator": 4, "denominator": 4, "clocks_per_click": 24, "notated_32nd_notes_per_beat": 8, "time": 0}, {"type": "note_on", "time": 1294, "note": 58, "velocity": 116, "channel": 0}, {"type": "note_off", "time": 176, "note": 58, "velocity": 116, "channel": 0}, {"type": "note_on", "time": 26, "note": 60, "velocity": 112, "channel": 0}, {"type": "note_off", "time": 156, "note": 60, "velocity": 112, "channel": 0}, {"type": "note_on", "time": 26, "note": 62, "velocity": 118, "channel": 0}, {"type": "note_off", "time": 66, "note": 62, "velocity": 118, "channel": 0}, {"type": "note_on", "time": 23, "note": 55, "velocity": 114, "channel": 0}, {"type": "note_off", "time": 86, "note": 55, "velocity": 114, "channel": 0}, {"type": "note_on", "time": 2, "note": 58, "velocity": 119, "channel": 0}, {"type": "note_off", "time": 69, "note": 58, "velocity": 119, "channel": 0}, {"type": "note_on", "time": 28, "note": 60, "velocity": 115, "channel": 0}, {"type": "note_off", "time": 95, "note": 60, "velocity": 115, "channel": 0}, {"type": "note_on", "time": 20, "note": 58, "velocity": 115, "channel": 0}, {"type": "note_off", "time": 75, "note": 58, "velocity": 115, "channel": 0}, {"type": "note_on", "time": 5, "note": 55, "velocity": 118, "channel": 0}, {"type": "note_off", "time": 98, "note": 55, "velocity": 118, "channel": 0}, {"type": "note_on", "time": 26, "note": 53, "velocity": 114, "channel": 0}, {"type": "note_off", "time": 66, "note": 53, "velocity": 114, "channel": 0}, {"type": "note_on", "time": 14, "note": 55, "velocity": 118, "channel": 0}, {"type": "note_off", "time": 121, "note": 55, "velocity": 118, "channel": 0}, {"type": "note_on", "time": 265, "note": 71, "velocity": 116, "channel": 0}, {"type": "note_off", "time": 32, "note": 71, "velocity": 116, "channel": 0}, {"type": "note_on", "time": 4, "note": 64, "velocity": 120, "channel": 0}, {"type": "note_off", "time": 71, "note": 64, "velocity": 120, "channel": 0}, {"type": "note_on", "time": 6, "note": 62, "velocity": 118, "channel": 0}, {"type": "note_off", "time": 85, "note": 62, "velocity": 118, "channel": 0}, {"type": "note_on", "time": 6, "note": 64, "velocity": 123, "channel": 0}, {"type": "note_off", "time": 120, "note": 64, "velocity": 123, "channel": 0}, {"type": "note_on", "time": 16, "note": 62, "velocity": 117, "channel": 0}, {"type": "note_off", "time": 65, "note": 62, "velocity": 117, "channel": 0}, {"type": "note_on", "time": 10, "note": 64, "velocity": 116, "channel": 0}, {"type": "note_off", "time": 165, "note": 64, "velocity": 116, "channel": 0}, {"type": "note_on", "time": 10, "note": 62, "velocity": 120, "channel": 0}, {"type": "note_off", "time": 71, "note": 62, "velocity": 120, "channel": 0}, {"type": "note_on", "time": 122, "note": 55, "velocity": 111, "channel": 0}, {"type": "note_off", "time": 128, "note": 55, "velocity": 111, "channel": 0}, {"type": "note_on", "time": 248, "note": 55, "velocity": 116, "channel": 0}, {"type": "note_off", "time": 97, "note": 55, "velocity": 116, "channel": 0}, {"type": "note_on", "time": 34, "note": 58, "velocity": 116, "channel": 0}, {"type": "note_off", "time": 69, "note": 58, "velocity": 116, "channel": 0}, {"type": "note_on", "time": 14, "note": 55, "velocity": 114, "channel": 0}, {"type": "note_off", "time": 97, "note": 55, "velocity": 114, "channel": 0}, {"type": "note_on", "time": 8, "note": 60, "velocity": 117, "channel": 0}, {"type": "note_off", "time": 116, "note": 60, "velocity": 117, "channel": 0}, {"type": "note_on", "time": 77, "note": 55, "velocity": 119, "channel": 0}, {"type": "note_off", "time": 93, "note": 55, "velocity": 119, "channel": 0}, {"type": "note_on", "time": 10, "note": 58, "velocity": 113, "channel": 0}, {"type": "note_off", "time": 156, "note": 58, "velocity": 113, "channel": 0}, {"type": "note_on", "time": 36, "note": 53, "velocity": 110, "channel": 0}, {"type": "note_off", "time": 93, "note": 53, "velocity": 110, "channel": 0}, {"type": "note_on", "time": 0, "note": 55, "velocity": 119, "channel": 0}, {"type": "note_off", "time": 52, "note": 55, "velocity": 119, "channel": 0}, {"type": "note_on", "time": 18, "note": 50, "velocity": 114, "channel": 0}, {"type": "note_off", "time": 114, "note": 50, "velocity": 114, "channel": 0}, {"type": "note_on", "time": 0, "note": 53, "velocity": 114, "channel": 0}, {"type": "note_off", "time": 57, "note": 53, "velocity": 114, "channel": 0}, {"type": "note_on", "time": 14, "note": 48, "velocity": 105, "channel": 0}, {"type": "note_off", "time": 101, "note": 48, "velocity": 105, "channel": 0}, {"type": "note_on", "time": 24, "note": 50, "velocity": 110, "channel": 0}, {"type": "note_off", "time": 71, "note": 50, "velocity": 110, "channel": 0}, {"type": "note_on", "time": 14, "note": 53, "velocity": 113, "channel": 0}, {"type": "note_off", "time": 177, "note": 53, "velocity": 113, "channel": 0}, {"type": "note_on", "time": 22, "note": 55, "velocity": 115, "channel": 0}, {"type": "note_off", "time": 81, "note": 55, "velocity": 115, "channel": 0}, {"type": "note_on", "time": 10, "note": 58, "velocity": 119, "channel": 0}, {"type": "note_off", "time": 55, "note": 58, "velocity": 119, "channel": 0}, {"type": "note_on", "time": 20, "note": 53, "velocity": 111, "channel": 0}, {"type": "note_off", "time": 110, "note": 53, "velocity": 111, "channel": 0}, {"type": "note_on", "time": 0, "note": 55, "velocity": 116, "channel": 0}, {"type": "note_off", "time": 356, "note": 55, "velocity": 116, "channel": 0}, {"type": "note_on", "time": 14, "note": 53, "velocity": 116, "channel": 0}, {"type": "note_off", "time": 63, "note": 53, "velocity": 116, "channel": 0}, {"type": "note_on", "time": 12, "note": 55, "velocity": 115, "channel": 0}, {"type": "note_off", "time": 175, "note": 55, "velocity": 115, "channel": 0}, {"type": "note_on", "time": 26, "note": 58, "velocity": 116, "channel": 0}, {"type": "note_off", "time": 95, "note": 58, "velocity": 116, "channel": 0}, {"type": "note_on", "time": 289, "note": 55, "velocity": 119, "channel": 0}, {"type": "note_off", "time": 81, "note": 55, "velocity": 119, "channel": 0}, {"type": "note_on", "time": 18, "note": 50, "velocity": 117, "channel": 0}, {"type": "note_off", "time": 79, "note": 50, "velocity": 117, "channel": 0}, {"type": "note_on", "time": 12, "note": 53, "velocity": 115, "channel": 0}, {"type": "note_off", "time": 101, "note": 53, "velocity": 115, "channel": 0}, {"type": "note_on", "time": 12, "note": 55, "velocity": 115, "channel": 0}, {"type": "note_off", "time": 99, "note": 55, "velocity": 115, "channel": 0}, {"type": "note_on", "time": 63, "note": 55, "velocity": 112, "channel": 0}, {"type": "note_off", "time": 97, "note": 55, "velocity": 112, "channel": 0}, {"type": "note_on", "time": 105, "note": 62, "velocity": 121, "channel": 0}, {"type": "note_off", "time": 89, "note": 62, "velocity": 121, "channel": 0}, {"type": "note_on", "time": 99, "note": 64, "velocity": 89, "channel": 0}, {"type": "note_off", "time": 57, "note": 64, "velocity": 89, "channel": 0}, {"type": "note_on", "time": 36, "note": 65, "velocity": 118, "channel": 0}, {"type": "note_off", "time": 91, "note": 65, "velocity": 118, "channel": 0}, {"type": "note_on", "time": 79, "note": 67, "velocity": 110, "channel": 0}, {"type": "note_off", "time": 99, "note": 67, "velocity": 110, "channel": 0}, {"type": "note_on", "time": 124, "note": 62, "velocity": 121, "channel": 0}, {"type": "note_off", "time": 112, "note": 62, "velocity": 121, "channel": 0}, {"type": "note_on", "time": 256, "note": 60, "velocity": 114, "channel": 0}, {"type": "note_off", "time": 116, "note": 60, "velocity": 114, "channel": 0}, {"type": "note_on", "time": 2, "note": 62, "velocity": 122, "channel": 0}, {"type": "note_off", "time": 77, "note": 62, "velocity": 122, "channel": 0}, {"type": "note_on", "time": 4, "note": 60, "velocity": 115, "channel": 0}, {"type": "note_off", "time": 105, "note": 60, "velocity": 115, "channel": 0}, {"type": "note_on", "time": 10, "note": 55, "velocity": 115, "channel": 0}, {"type": "note_off", "time": 105, "note": 55, "velocity": 115, "channel": 0}, {"type": "note_on", "time": 0, "note": 58, "velocity": 115, "channel": 0}, {"type": "note_off", "time": 138, "note": 58, "velocity": 115, "channel": 0}, {"type": "note_on", "time": 6, "note": 57, "velocity": 114, "channel": 0}, {"type": "note_off", "time": 24, "note": 57, "velocity": 114, "channel": 0}, {"type": "note_on", "time": 0, "note": 58, "velocity": 120, "channel": 0}, {"type": "note_off", "time": 99, "note": 58, "velocity": 120, "channel": 0}, {"type": "note_on", "time": 18, "note": 60, "velocity": 114, "channel": 0}, {"type": "note_off", "time": 91, "note": 60, "velocity": 114, "channel": 0}, {"type": "note_on", "time": 91, "note": 55, "velocity": 116, "channel": 0}, {"type": "note_off", "time": 101, "note": 55, "velocity": 116, "channel": 0}, {"type": "note_on", "time": 2, "note": 58, "velocity": 113, "channel": 0}, {"type": "note_off", "time": 103, "note": 58, "velocity": 113, "channel": 0}, {"type": "note_on", "time": 287, "note": 70, "velocity": 115, "channel": 0}, {"type": "note_off", "time": 103, "note": 70, "velocity": 115, "channel": 0}, {"type": "note_on", "time": 2, "note": 67, "velocity": 111, "channel": 0}, {"type": "note_off", "time": 59, "note": 67, "velocity": 111, "channel": 0}, {"type": "note_on", "time": 134, "note": 70, "velocity": 113, "channel": 0}, {"type": "note_off", "time": 105, "note": 70, "velocity": 113, "channel": 0}, {"type": "note_on", "time": 91, "note": 67, "velocity": 119, "channel": 0}, {"type": "note_off", "time": 81, "note": 67, "velocity": 119, "channel": 0}, {"type": "note_on", "time": 6, "note": 65, "velocity": 118, "channel": 0}, {"type": "note_off", "time": 73, "note": 65, "velocity": 118, "channel": 0}, {"type": "note_on", "time": 0, "note": 64, "velocity": 118, "channel": 0}, {"type": "note_off", "time": 30, "note": 64, "velocity": 118, "channel": 0}, {"type": "note_on", "time": 4, "note": 65, "velocity": 117, "channel": 0}, {"type": "note_off", "time": 71, "note": 65, "velocity": 117, "channel": 0}, {"type": "note_on", "time": 0, "note": 62, "velocity": 121, "channel": 0}, {"type": "note_off", "time": 136, "note": 62, "velocity": 121, "channel": 0}, {"type": "note_on", "time": 179, "note": 61, "velocity": 122, "channel": 0}, {"type": "note_off", "time": 48, "note": 61, "velocity": 122, "channel": 0}, {"type": "note_on", "time": 2, "note": 60, "velocity": 117, "channel": 0}, {"type": "note_off", "time": 18, "note": 60, "velocity": 117, "channel": 0}, {"type": "note_on", "time": 10, "note": 58, "velocity": 117, "channel": 0}, {"type": "note_off", "time": 28, "note": 58, "velocity": 117, "channel": 0}, {"type": "note_on", "time": 12, "note": 55, "velocity": 116, "channel": 0}, {"type": "note_off", "time": 163, "note": 55, "velocity": 116, "channel": 0}, {"type": "note_on", "time": 18, "note": 58, "velocity": 113, "channel": 0}, {"type": "note_off", "time": 105, "note": 58, "velocity": 113, "channel": 0}, {"type": "note_on", "time": 12, "note": 53, "velocity": 109, "channel": 0}, {"type": "note_off", "time": 158, "note": 53, "velocity": 109, "channel": 0}, {"type": "note_on", "time": 26, "note": 55, "velocity": 115, "channel": 0}, {"type": "note_off", "time": 187, "note": 55, "velocity": 115, "channel": 0}, {"type": "note_on", "time": 6, "note": 58, "velocity": 115, "channel": 0}, {"type": "note_off", "time": 67, "note": 58, "velocity": 115, "channel": 0}, {"type": "note_on", "time": 18, "note": 55, "velocity": 111, "channel": 0}, {"type": "note_off", "time": 93, "note": 55, "velocity": 111, "channel": 0}, {"type": "note_on", "time": 0, "note": 58, "velocity": 116, "channel": 0}, {"type": "note_off", "time": 61, "note": 58, "velocity": 116, "channel": 0}, {"type": "note_on", "time": 28, "note": 60, "velocity": 116, "channel": 0}, {"type": "note_off", "time": 103, "note": 60, "velocity": 116, "channel": 0}, {"type": "note_on", "time": 20, "note": 55, "velocity": 111, "channel": 0}, {"type": "note_off", "time": 69, "note": 55, "velocity": 111, "channel": 0}, {"type": "note_on", "time": 2, "note": 58, "velocity": 118, "channel": 0}, {"type": "note_off", "time": 77, "note": 58, "velocity": 118, "channel": 0}, {"type": "note_on", "time": 32, "note": 53, "velocity": 109, "channel": 0}, {"type": "note_off", "time": 95, "note": 53, "velocity": 109, "channel": 0}, {"type": "note_on", "time": 0, "note": 55, "velocity": 114, "channel": 0}, {"type": "note_off", "time": 177, "note": 55, "velocity": 114, "channel": 0}, {"type": "note_on", "time": 16, "note": 58, "velocity": 117, "channel": 0}, {"type": "note_off", "time": 97, "note": 58, "velocity": 117, "channel": 0}, {"type": "note_on", "time": 454, "note": 64, "velocity": 122, "channel": 0}, {"type": "note_off", "time": 42, "note": 64, "velocity": 122, "channel": 0}, {"type": "note_on", "time": 0, "note": 65, "velocity": 119, "channel": 0}, {"type": "note_off", "time": 89, "note": 65, "velocity": 119, "channel": 0}, {"type": "note_on", "time": 0, "note": 67, "velocity": 115, "channel": 0}, {"type": "note_off", "time": 61, "note": 67, "velocity": 115, "channel": 0}, {"type": "note_on", "time": 95, "note": 67, "velocity": 115, "channel": 0}, {"type": "note_off", "time": 364, "note": 67, "velocity": 115, "channel": 0}, {"type": "note_on", "time": 26, "note": 65, "velocity": 119, "channel": 0}, {"type": "note_off", "time": 59, "note": 65, "velocity": 119, "channel": 0}, {"type": "note_on", "time": 4, "note": 62, "velocity": 118, "channel": 0}, {"type": "note_off", "time": 181, "note": 62, "velocity": 118, "channel": 0}, {"type": "note_on", "time": 18, "note": 65, "velocity": 118, "channel": 0}, {"type": "note_off", "time": 87, "note": 65, "velocity": 118, "channel": 0}, {"type": "note_on", "time": 93, "note": 67, "velocity": 115, "channel": 0}, {"type": "note_off", "time": 97, "note": 67, "velocity": 115, "channel": 0}, {"type": "note_on", "time": 93, "note": 65, "velocity": 110, "channel": 0}, {"type": "note_off", "time": 40, "note": 65, "velocity": 110, "channel": 0}, {"type": "note_on", "time": 18, "note": 67, "velocity": 114, "channel": 0}, {"type": "note_off", "time": 158, "note": 67, "velocity": 114, "channel": 0}, {"type": "note_on", "time": 105, "note": 65, "velocity": 119, "channel": 0}, {"type": "note_off", "time": 79, "note": 65, "velocity": 119, "channel": 0}, {"type": "note_on", "time": 75, "note": 65, "velocity": 99, "channel": 0}, {"type": "note_off", "time": 21, "note": 65, "velocity": 99, "channel": 0}, {"type": "note_on", "time": 17, "note": 67, "velocity": 110, "channel": 0}, {"type": "note_off", "time": 30, "note": 67, "velocity": 110, "channel": 0}, {"type": "note_on", "time": 44, "note": 62, "velocity": 117, "channel": 0}, {"type": "note_off", "time": 107, "note": 62, "velocity": 117, "channel": 0}, {"type": "note_on", "time": 8, "note": 65, "velocity": 121, "channel": 0}, {"type": "note_off", "time": 69, "note": 65, "velocity": 121, "channel": 0}, {"type": "note_on", "time": 8, "note": 62, "velocity": 122, "channel": 0}, {"type": "note_off", "time": 124, "note": 62, "velocity": 122, "channel": 0}, {"type": "note_on", "time": 4, "note": 60, "velocity": 113, "channel": 0}, {"type": "note_off", "time": 71, "note": 60, "velocity": 113, "channel": 0}, {"type": "note_on", "time": 10, "note": 62, "velocity": 120, "channel": 0}, {"type": "note_off", "time": 175, "note": 62, "velocity": 120, "channel": 0}, {"type": "note_on", "time": 8, "note": 60, "velocity": 116, "channel": 0}, {"type": "note_off", "time": 103, "note": 60, "velocity": 116, "channel": 0}, {"type": "note_on", "time": 105, "note": 57, "velocity": 113, "channel": 0}, {"type": "note_off", "time": 52, "note": 57, "velocity": 113, "channel": 0}, {"type": "note_on", "time": 0, "note": 58, "velocity": 116, "channel": 0}, {"type": "note_off", "time": 122, "note": 58, "velocity": 116, "channel": 0}, {"type": "note_on", "time": 2, "note": 62, "velocity": 123, "channel": 0}, {"type": "note_off", "time": 81, "note": 62, "velocity": 123, "channel": 0}, {"type": "note_on", "time": 77, "note": 55, "velocity": 105, "channel": 0}, {"type": "note_off", "time": 226, "note": 55, "velocity": 105, "channel": 0}, {"type": "note_on", "time": 183, "note": 58, "velocity": 114, "channel": 0}, {"type": "note_off", "time": 91, "note": 58, "velocity": 114, "channel": 0}, {"type": "note_on", "time": 30, "note": 55, "velocity": 110, "channel": 0}, {"type": "note_off", "time": 67, "note": 55, "velocity": 110, "channel": 0}, {"type": "note_on", "time": 22, "note": 58, "velocity": 116, "channel": 0}, {"type": "note_off", "time": 87, "note": 58, "velocity": 116, "channel": 0}, {"type": "note_on", "time": 28, "note": 55, "velocity": 118, "channel": 0}, {"type": "note_off", "time": 57, "note": 55, "velocity": 118, "channel": 0}, {"type": "note_on", "time": 18, "note": 50, "velocity": 107, "channel": 0}, {"type": "note_off", "time": 112, "note": 50, "velocity": 107, "channel": 0}, {"type": "note_on", "time": 446, "note": 62, "velocity": 122, "channel": 0}, {"type": "note_off", "time": 101, "note": 62, "velocity": 122, "channel": 0}, {"type": "note_on", "time": 22, "note": 65, "velocity": 116, "channel": 0}, {"type": "note_off", "time": 44, "note": 65, "velocity": 116, "channel": 0}, {"type": "note_on", "time": 48, "note": 67, "velocity": 116, "channel": 0}, {"type": "note_off", "time": 103, "note": 67, "velocity": 116, "channel": 0}, {"type": "note_on", "time": 4, "note": 70, "velocity": 118, "channel": 0}, {"type": "note_off", "time": 61, "note": 70, "velocity": 118, "channel": 0}, {"type": "note_on", "time": 12, "note": 65, "velocity": 113, "channel": 0}, {"type": "note_off", "time": 89, "note": 65, "velocity": 113, "channel": 0}, {"type": "note_on", "time": 32, "note": 67, "velocity": 116, "channel": 0}, {"type": "note_off", "time": 270, "note": 67, "velocity": 116, "channel": 0}, {"type": "note_on", "time": 103, "note": 65, "velocity": 119, "channel": 0}, {"type": "note_on", "time": 65, "note": 62, "velocity": 121, "channel": 0}, {"type": "note_off", "time": 0, "note": 65, "velocity": 119, "channel": 0}, {"type": "note_off", "time": 88, "note": 62, "velocity": 121, "channel": 0}, {"type": "note_on", "time": 25, "note": 60, "velocity": 116, "channel": 0}, {"type": "note_off", "time": 68, "note": 60, "velocity": 116, "channel": 0}, {"type": "note_on", "time": 17, "note": 58, "velocity": 117, "channel": 0}, {"type": "note_off", "time": 95, "note": 58, "velocity": 117, "channel": 0}, {"type": "note_on", "time": 23, "note": 55, "velocity": 107, "channel": 0}, {"type": "note_off", "time": 55, "note": 55, "velocity": 107, "channel": 0}, {"type": "note_on", "time": 13, "note": 61, "velocity": 118, "channel": 0}, {"type": "note_off", "time": 46, "note": 61, "velocity": 118, "channel": 0}, {"type": "note_on", "time": 2, "note": 60, "velocity": 109, "channel": 0}, {"type": "note_off", "time": 89, "note": 60, "velocity": 109, "channel": 0}, {"type": "note_on", "time": 9, "note": 58, "velocity": 114, "channel": 0}, {"type": "note_off", "time": 73, "note": 58, "velocity": 114, "channel": 0}, {"type": "note_on", "time": 3, "note": 55, "velocity": 113, "channel": 0}, {"type": "note_off", "time": 68, "note": 55, "velocity": 113, "channel": 0}, {"type": "note_on", "time": 26, "note": 58, "velocity": 116, "channel": 0}, {"type": "note_off", "time": 186, "note": 58, "velocity": 116, "channel": 0}, {"type": "note_on", "time": 16, "note": 55, "velocity": 115, "channel": 0}, {"type": "note_off", "time": 55, "note": 55, "velocity": 115, "channel": 0}, {"type": "note_on", "time": 22, "note": 53, "velocity": 109, "channel": 0}, {"type": "note_off", "time": 69, "note": 53, "velocity": 109, "channel": 0}, {"type": "note_on", "time": 19, "note": 50, "velocity": 107, "channel": 0}, {"type": "note_off", "time": 58, "note": 50, "velocity": 107, "channel": 0}, {"type": "note_on", "time": 28, "note": 53, "velocity": 113, "channel": 0}, {"type": "note_off", "time": 84, "note": 53, "velocity": 113, "channel": 0}, {"type": "note_on", "time": 22, "note": 50, "velocity": 112, "channel": 0}, {"type": "note_off", "time": 85, "note": 50, "velocity": 112, "channel": 0}, {"type": "note_on", "time": 2, "note": 53, "velocity": 115, "channel": 0}, {"type": "note_off", "time": 87, "note": 53, "velocity": 115, "channel": 0}, {"type": "note_on", "time": 21, "note": 50, "velocity": 115, "channel": 0}, {"type": "note_off", "time": 82, "note": 50, "velocity": 115, "channel": 0}, {"type": "note_on", "time": 364, "note": 65, "velocity": 120, "channel": 0}, {"type": "note_off", "time": 43, "note": 65, "velocity": 120, "channel": 0}, {"type": "note_on", "time": 7, "note": 67, "velocity": 117, "channel": 0}, {"type": "note_off", "time": 227, "note": 67, "velocity": 117, "channel": 0}, {"type": "note_on", "time": 82, "note": 61, "velocity": 123, "channel": 0}, {"type": "note_off", "time": 43, "note": 61, "velocity": 123, "channel": 0}, {"type": "note_on", "time": 9, "note": 60, "velocity": 113, "channel": 0}, {"type": "note_off", "time": 81, "note": 60, "velocity": 113, "channel": 0}, {"type": "note_on", "time": 19, "note": 58, "velocity": 115, "channel": 0}, {"type": "note_off", "time": 82, "note": 58, "velocity": 115, "channel": 0}, {"type": "note_on", "time": 13, "note": 55, "velocity": 111, "channel": 0}, {"type": "note_off", "time": 89, "note": 55, "velocity": 111, "channel": 0}, {"type": "note_on", "time": 22, "note": 52, "velocity": 111, "channel": 0}, {"type": "note_off", "time": 59, "note": 52, "velocity": 111, "channel": 0}, {"type": "note_on", "time": 0, "note": 55, "velocity": 118, "channel": 0}, {"type": "note_off", "time": 70, "note": 55, "velocity": 118, "channel": 0}, {"type": "note_on", "time": 26, "note": 55, "velocity": 109, "channel": 0}, {"type": "note_off", "time": 85, "note": 55, "velocity": 109, "channel": 0}, {"type": "note_on", "time": 590, "note": 67, "velocity": 113, "channel": 0}, {"type": "note_off", "time": 99, "note": 67, "velocity": 113, "channel": 0}, {"type": "note_on", "time": 88, "note": 66, "velocity": 120, "channel": 0}, {"type": "note_off", "time": 52, "note": 66, "velocity": 120, "channel": 0}, {"type": "note_on", "time": 4, "note": 67, "velocity": 117, "channel": 0}, {"type": "note_off", "time": 260, "note": 67, "velocity": 117, "channel": 0}, {"type": "note_on", "time": 10, "note": 66, "velocity": 118, "channel": 0}, {"type": "note_off", "time": 20, "note": 66, "velocity": 118, "channel": 0}, {"type": "note_on", "time": 10, "note": 67, "velocity": 114, "channel": 0}, {"type": "note_off", "time": 122, "note": 67, "velocity": 114, "channel": 0}, {"type": "note_on", "time": 16, "note": 65, "velocity": 120, "channel": 0}, {"type": "note_off", "time": 61, "note": 65, "velocity": 120, "channel": 0}, {"type": "note_on", "time": 12, "note": 64, "velocity": 119, "channel": 0}, {"type": "note_off", "time": 24, "note": 64, "velocity": 119, "channel": 0}, {"type": "note_on", "time": 88, "note": 62, "velocity": 122, "channel": 0}, {"type": "note_off", "time": 73, "note": 62, "velocity": 122, "channel": 0}, {"type": "note_on", "time": 133, "note": 55, "velocity": 118, "channel": 0}, {"type": "note_off", "time": 78, "note": 55, "velocity": 118, "channel": 0}, {"type": "note_on", "time": 97, "note": 60, "velocity": 118, "channel": 0}, {"type": "note_off", "time": 78, "note": 60, "velocity": 118, "channel": 0}, {"type": "note_on", "time": 131, "note": 58, "velocity": 117, "channel": 0}, {"type": "note_off", "time": 52, "note": 58, "velocity": 117, "channel": 0}, {"type": "note_on", "time": 26, "note": 60, "velocity": 116, "channel": 0}, {"type": "note_off", "time": 77, "note": 60, "velocity": 116, "channel": 0}, {"type": "note_on", "time": 33, "note": 55, "velocity": 115, "channel": 0}, {"type": "note_off", "time": 73, "note": 55, "velocity": 115, "channel": 0}, {"type": "note_on", "time": 9, "note": 60, "velocity": 116, "channel": 0}, {"type": "note_off", "time": 165, "note": 60, "velocity": 116, "channel": 0}, {"type": "note_on", "time": 51, "note": 55, "velocity": 117, "channel": 0}, {"type": "note_off", "time": 91, "note": 55, "velocity": 117, "channel": 0}, {"type": "note_on", "time": 18, "note": 58, "velocity": 117, "channel": 0}, {"type": "note_off", "time": 70, "note": 58, "velocity": 117, "channel": 0}, {"type": "note_on", "time": 126, "note": 58, "velocity": 114, "channel": 0}, {"type": "note_off", "time": 38, "note": 58, "velocity": 114, "channel": 0}, {"type": "note_on", "time": 24, "note": 61, "velocity": 119, "channel": 0}, {"type": "note_off", "time": 30, "note": 61, "velocity": 119, "channel": 0}, {"type": "note_on", "time": 3, "note": 62, "velocity": 123, "channel": 0}, {"type": "note_off", "time": 70, "note": 62, "velocity": 123, "channel": 0}, {"type": "note_on", "time": 7, "note": 65, "velocity": 121, "channel": 0}, {"type": "note_off", "time": 42, "note": 65, "velocity": 121, "channel": 0}, {"type": "note_on", "time": 50, "note": 65, "velocity": 118, "channel": 0}, {"type": "note_off", "time": 190, "note": 65, "velocity": 118, "channel": 0}, {"type": "note_on", "time": 19, "note": 62, "velocity": 121, "channel": 0}, {"type": "note_off", "time": 72, "note": 62, "velocity": 121, "channel": 0}, {"type": "note_on", "time": 29, "note": 60, "velocity": 116, "channel": 0}, {"type": "note_off", "time": 67, "note": 60, "velocity": 116, "channel": 0}, {"type": "note_on", "time": 21, "note": 58, "velocity": 115, "channel": 0}, {"type": "note_off", "time": 95, "note": 58, "velocity": 115, "channel": 0}, {"type": "note_on", "time": 15, "note": 55, "velocity": 114, "channel": 0}, {"type": "note_off", "time": 26, "note": 55, "velocity": 114, "channel": 0}, {"type": "note_on", "time": 4, "note": 54, "velocity": 84, "channel": 0}, {"type": "note_off", "time": 9, "note": 54, "velocity": 84, "channel": 0}, {"type": "note_on", "time": 401, "note": 55, "velocity": 117, "channel": 0}, {"type": "note_off", "time": 85, "note": 55, "velocity": 117, "channel": 0}, {"type": "note_on", "time": 37, "note": 58, "velocity": 114, "channel": 0}, {"type": "note_off", "time": 51, "note": 58, "velocity": 114, "channel": 0}, {"type": "note_on", "time": 196, "note": 58, "velocity": 118, "channel": 0}, {"type": "note_off", "time": 93, "note": 58, "velocity": 118, "channel": 0}, {"type": "note_on", "time": 20, "note": 55, "velocity": 114, "channel": 0}, {"type": "note_off", "time": 75, "note": 55, "velocity": 114, "channel": 0}, {"type": "note_on", "time": 16, "note": 58, "velocity": 116, "channel": 0}, {"type": "note_off", "time": 92, "note": 58, "velocity": 116, "channel": 0}, {"type": "note_on", "time": 10, "note": 55, "velocity": 116, "channel": 0}, {"type": "note_off", "time": 67, "note": 55, "velocity": 116, "channel": 0}, {"type": "note_on", "time": 14, "note": 53, "velocity": 114, "channel": 0}, {"type": "note_off", "time": 171, "note": 53, "velocity": 114, "channel": 0}, {"type": "note_on", "time": 14, "note": 55, "velocity": 119, "channel": 0}, {"type": "note_off", "time": 96, "note": 55, "velocity": 119, "channel": 0}, {"type": "note_on", "time": 31, "note": 50, "velocity": 116, "channel": 0}, {"type": "note_off", "time": 67, "note": 50, "velocity": 116, "channel": 0}, {"type": "note_on", "time": 12, "note": 55, "velocity": 118, "channel": 0}, {"type": "note_off", "time": 21, "note": 55, "velocity": 118, "channel": 0}, {"type": "note_on", "time": 5, "note": 58, "velocity": 115, "channel": 0}, {"type": "note_off", "time": 78, "note": 58, "velocity": 115, "channel": 0}, {"type": "note_on", "time": 4, "note": 60, "velocity": 118, "channel": 0}, {"type": "note_off", "time": 166, "note": 60, "velocity": 118, "channel": 0}, {"type": "note_on", "time": 17, "note": 62, "velocity": 120, "channel": 0}, {"type": "note_off", "time": 174, "note": 62, "velocity": 120, "channel": 0}, {"type": "note_on", "time": 19, "note": 65, "velocity": 116, "channel": 0}, {"type": "note_off", "time": 161, "note": 65, "velocity": 116, "channel": 0}, {"type": "note_on", "time": 28, "note": 62, "velocity": 116, "channel": 0}, {"type": "note_off", "time": 391, "note": 62, "velocity": 116, "channel": 0}, {"type": "note_on", "time": 18, "note": 60, "velocity": 117, "channel": 0}, {"type": "note_off", "time": 78, "note": 60, "velocity": 117, "channel": 0}, {"type": "note_on", "time": 11, "note": 58, "velocity": 116, "channel": 0}, {"type": "note_off", "time": 80, "note": 58, "velocity": 116, "channel": 0}, {"type": "note_on", "time": 14, "note": 55, "velocity": 121, "channel": 0}, {"type": "note_off", "time": 71, "note": 55, "velocity": 121, "channel": 0}, {"type": "note_on", "time": 13, "note": 53, "velocity": 113, "channel": 0}, {"type": "note_off", "time": 91, "note": 53, "velocity": 113, "channel": 0}, {"type": "note_on", "time": 22, "note": 50, "velocity": 114, "channel": 0}, {"type": "note_off", "time": 73, "note": 50, "velocity": 114, "channel": 0}, {"type": "note_on", "time": 6, "note": 53, "velocity": 112, "channel": 0}, {"type": "note_off", "time": 89, "note": 53, "velocity": 112, "channel": 0}, {"type": "note_on", "time": 7, "note": 53, "velocity": 109, "channel": 0}, {"type": "note_off", "time": 104, "note": 53, "velocity": 109, "channel": 0}, {"type": "note_on", "time": 1, "note": 50, "velocity": 113, "channel": 0}, {"type": "note_off", "time": 89, "note": 50, "velocity": 113, "channel": 0}, {"type": "note_on", "time": 14, "note": 48, "velocity": 109, "channel": 0}, {"type": "note_off", "time": 60, "note": 48, "velocity": 109, "channel": 0}, {"type": "note_on", "time": 22, "note": 50, "velocity": 116, "channel": 0}, {"type": "note_off", "time": 88, "note": 50, "velocity": 116, "channel": 0}, {"type": "note_on", "time": 383, "note": 69, "velocity": 120, "channel": 0}, {"type": "note_off", "time": 38, "note": 69, "velocity": 120, "channel": 0}, {"type": "note_on", "time": 2, "note": 70, "velocity": 117, "channel": 0}, {"type": "note_off", "time": 234, "note": 70, "velocity": 117, "channel": 0}, {"type": "note_on", "time": 2, "note": 67, "velocity": 117, "channel": 0}, {"type": "note_off", "time": 93, "note": 67, "velocity": 117, "channel": 0}, {"type": "note_on", "time": 28, "note": 70, "velocity": 117, "channel": 0}, {"type": "note_off", "time": 76, "note": 70, "velocity": 117, "channel": 0}, {"type": "note_on", "time": 1, "note": 67, "velocity": 113, "channel": 0}, {"type": "note_off", "time": 80, "note": 67, "velocity": 113, "channel": 0}, {"type": "note_on", "time": 8, "note": 65, "velocity": 112, "channel": 0}, {"type": "note_off", "time": 34, "note": 65, "velocity": 112, "channel": 0}, {"type": "note_on", "time": 60, "note": 67, "velocity": 120, "channel": 0}, {"type": "note_off", "time": 24, "note": 67, "velocity": 120, "channel": 0}, {"type": "note_on", "time": 2, "note": 66, "velocity": 114, "channel": 0}, {"type": "note_off", "time": 54, "note": 66, "velocity": 114, "channel": 0}, {"type": "note_on", "time": 3, "note": 67, "velocity": 10, "channel": 0}, {"type": "note_off", "time": 289, "note": 67, "velocity": 10, "channel": 0}, {"type": "note_on", "time": 15, "note": 65, "velocity": 121, "channel": 0}, {"type": "note_off", "time": 141, "note": 65, "velocity": 121, "channel": 0}, {"type": "note_on", "time": 6, "note": 67, "velocity": 116, "channel": 0}, {"type": "note_off", "time": 32, "note": 67, "velocity": 116, "channel": 0}, {"type": "note_on", "time": 102, "note": 65, "velocity": 124, "channel": 0}, {"type": "note_off", "time": 362, "note": 65, "velocity": 124, "channel": 0}, {"type": "note_on", "time": 43, "note": 62, "velocity": 123, "channel": 0}, {"type": "note_off", "time": 64, "note": 62, "velocity": 123, "channel": 0}, {"type": "note_on", "time": 10, "note": 65, "velocity": 120, "channel": 0}, {"type": "note_off", "time": 77, "note": 65, "velocity": 120, "channel": 0}, {"type": "note_on", "time": 15, "note": 62, "velocity": 124, "channel": 0}, {"type": "note_off", "time": 81, "note": 62, "velocity": 124, "channel": 0}, {"type": "note_on", "time": 10, "note": 60, "velocity": 120, "channel": 0}, {"type": "note_off", "time": 91, "note": 60, "velocity": 120, "channel": 0}, {"type": "note_on", "time": 8, "note": 55, "velocity": 118, "channel": 0}, {"type": "note_off", "time": 96, "note": 55, "velocity": 118, "channel": 0}, {"type": "note_on", "time": 79, "note": 60, "velocity": 111, "channel": 0}, {"type": "note_off", "time": 105, "note": 60, "velocity": 111, "channel": 0}, {"type": "note_on", "time": 15, "note": 58, "velocity": 122, "channel": 0}, {"type": "note_off", "time": 85, "note": 58, "velocity": 122, "channel": 0}, {"type": "note_on", "time": 12, "note": 55, "velocity": 118, "channel": 0}, {"type": "note_off", "time": 64, "note": 55, "velocity": 118, "channel": 0}, {"type": "note_on", "time": 24, "note": 58, "velocity": 114, "channel": 0}, {"type": "note_off", "time": 90, "note": 58, "velocity": 114, "channel": 0}, {"type": "note_on", "time": 8, "note": 57, "velocity": 114, "channel": 0}, {"type": "note_off", "time": 11, "note": 57, "velocity": 114, "channel": 0}, {"type": "note_on", "time": 3, "note": 58, "velocity": 118, "channel": 0}, {"type": "note_off", "time": 66, "note": 58, "velocity": 118, "channel": 0}, {"type": "note_on", "time": 7, "note": 55, "velocity": 116, "channel": 0}, {"type": "note_off", "time": 81, "note": 55, "velocity": 116, "channel": 0}, {"type": "note_on", "time": 496, "note": 65, "velocity": 122, "channel": 0}, {"type": "note_off", "time": 168, "note": 65, "velocity": 122, "channel": 0}, {"type": "note_on", "time": 2, "note": 67, "velocity": 119, "channel": 0}, {"type": "note_off", "time": 97, "note": 67, "velocity": 119, "channel": 0}, {"type": "note_on", "time": 98, "note": 65, "velocity": 122, "channel": 0}, {"type": "note_off", "time": 31, "note": 65, "velocity": 122, "channel": 0}, {"type": "note_on", "time": 9, "note": 67, "velocity": 119, "channel": 0}, {"type": "note_off", "time": 343, "note": 67, "velocity": 119, "channel": 0}, {"type": "note_on", "time": 16, "note": 65, "velocity": 121, "channel": 0}, {"type": "note_off", "time": 177, "note": 65, "velocity": 121, "channel": 0}, {"type": "note_on", "time": 12, "note": 67, "velocity": 123, "channel": 0}, {"type": "note_off", "time": 72, "note": 67, "velocity": 123, "channel": 0}, {"type": "note_on", "time": 386, "note": 55, "velocity": 124, "channel": 0}, {"type": "note_off", "time": 56, "note": 55, "velocity": 124, "channel": 0}, {"type": "note_on", "time": 96, "note": 71, "velocity": 120, "channel": 0}, {"type": "note_off", "time": 16, "note": 71, "velocity": 120, "channel": 0}, {"type": "note_on", "time": 3, "note": 72, "velocity": 123, "channel": 0}, {"type": "note_off", "time": 56, "note": 72, "velocity": 123, "channel": 0}, {"type": "note_on", "time": 58, "note": 70, "velocity": 121, "channel": 0}, {"type": "note_off", "time": 59, "note": 70, "velocity": 121, "channel": 0}, {"type": "note_on", "time": 15, "note": 67, "velocity": 119, "channel": 0}, {"type": "note_off", "time": 251, "note": 67, "velocity": 119, "channel": 0}, {"type": "note_on", "time": 92, "note": 72, "velocity": 122, "channel": 0}, {"type": "note_off", "time": 55, "note": 72, "velocity": 122, "channel": 0}, {"type": "note_on", "time": 56, "note": 73, "velocity": 123, "channel": 0}, {"type": "note_off", "time": 73, "note": 73, "velocity": 123, "channel": 0}, {"type": "note_on", "time": 76, "note": 70, "velocity": 124, "channel": 0}, {"type": "note_off", "time": 69, "note": 70, "velocity": 124, "channel": 0}, {"type": "note_on", "time": 66, "note": 67, "velocity": 117, "channel": 0}, {"type": "note_off", "time": 187, "note": 67, "velocity": 117, "channel": 0}, {"type": "note_on", "time": 51, "note": 70, "velocity": 122, "channel": 0}, {"type": "note_off", "time": 45, "note": 70, "velocity": 122, "channel": 0}, {"type": "note_on", "time": 9, "note": 67, "velocity": 115, "channel": 0}, {"type": "note_off", "time": 44, "note": 67, "velocity": 115, "channel": 0}, {"type": "note_on", "time": 58, "note": 71, "velocity": 92, "channel": 0}, {"type": "note_off", "time": 8, "note": 71, "velocity": 92, "channel": 0}, {"type": "note_on", "time": 2, "note": 72, "velocity": 125, "channel": 0}, {"type": "note_off", "time": 61, "note": 72, "velocity": 125, "channel": 0}, {"type": "note_on", "time": 6, "note": 70, "velocity": 119, "channel": 0}, {"type": "note_off", "time": 55, "note": 70, "velocity": 119, "channel": 0}, {"type": "note_on", "time": 52, "note": 67, "velocity": 120, "channel": 0}, {"type": "note_off", "time": 182, "note": 67, "velocity": 120, "channel": 0}, {"type": "note_on", "time": 26, "note": 65, "velocity": 126, "channel": 0}, {"type": "note_off", "time": 63, "note": 65, "velocity": 126, "channel": 0}, {"type": "note_on", "time": 6, "note": 67, "velocity": 120, "channel": 0}, {"type": "note_off", "time": 40, "note": 67, "velocity": 120, "channel": 0}, {"type": "note_on", "time": 72, "note": 71, "velocity": 117, "channel": 0}, {"type": "note_off", "time": 16, "note": 71, "velocity": 117, "channel": 0}, {"type": "note_on", "time": 3, "note": 72, "velocity": 120, "channel": 0}, {"type": "note_off", "time": 48, "note": 72, "velocity": 120, "channel": 0}, {"type": "note_on", "time": 48, "note": 72, "velocity": 123, "channel": 0}, {"type": "note_off", "time": 65, "note": 72, "velocity": 123, "channel": 0}, {"type": "note_on", "time": 0, "note": 70, "velocity": 122, "channel": 0}, {"type": "note_off", "time": 60, "note": 70, "velocity": 122, "channel": 0}, {"type": "note_on", "time": 57, "note": 67, "velocity": 120, "channel": 0}, {"type": "note_off", "time": 92, "note": 67, "velocity": 120, "channel": 0}, {"type": "note_on", "time": 71, "note": 71, "velocity": 109, "channel": 0}, {"type": "note_off", "time": 31, "note": 71, "velocity": 109, "channel": 0}, {"type": "note_on", "time": 5, "note": 72, "velocity": 122, "channel": 0}, {"type": "note_off", "time": 52, "note": 72, "velocity": 122, "channel": 0}, {"type": "note_on", "time": 70, "note": 70, "velocity": 125, "channel": 0}, {"type": "note_off", "time": 215, "note": 70, "velocity": 125, "channel": 0}, {"type": "note_on", "time": 26, "note": 67, "velocity": 116, "channel": 0}, {"type": "note_off", "time": 69, "note": 67, "velocity": 116, "channel": 0}, {"type": "note_on", "time": 6, "note": 70, "velocity": 118, "channel": 0}, {"type": "note_off", "time": 48, "note": 70, "velocity": 118, "channel": 0}, {"type": "note_on", "time": 42, "note": 71, "velocity": 121, "channel": 0}, {"type": "note_off", "time": 23, "note": 71, "velocity": 121, "channel": 0}, {"type": "note_on", "time": 0, "note": 72, "velocity": 123, "channel": 0}, {"type": "note_off", "time": 50, "note": 72, "velocity": 123, "channel": 0}, {"type": "note_on", "time": 9, "note": 70, "velocity": 121, "channel": 0}, {"type": "note_off", "time": 61, "note": 70, "velocity": 121, "channel": 0}, {"type": "note_on", "time": 53, "note": 67, "velocity": 119, "channel": 0}, {"type": "note_off", "time": 244, "note": 67, "velocity": 119, "channel": 0}, {"type": "note_on", "time": 320, "note": 65, "velocity": 121, "channel": 0}, {"type": "note_off", "time": 55, "note": 65, "velocity": 121, "channel": 0}, {"type": "note_on", "time": 0, "note": 72, "velocity": 122, "channel": 0}, {"type": "note_off", "time": 28, "note": 72, "velocity": 122, "channel": 0}, {"type": "note_on", "time": 2, "note": 74, "velocity": 121, "channel": 0}, {"type": "note_off", "time": 30, "note": 74, "velocity": 121, "channel": 0}, {"type": "note_on", "time": 2, "note": 67, "velocity": 121, "channel": 0}, {"type": "note_off", "time": 92, "note": 67, "velocity": 121, "channel": 0}, {"type": "note_on", "time": 4, "note": 65, "velocity": 123, "channel": 0}, {"type": "note_off", "time": 77, "note": 65, "velocity": 123, "channel": 0}, {"type": "note_on", "time": 6, "note": 62, "velocity": 125, "channel": 0}, {"type": "note_off", "time": 73, "note": 62, "velocity": 125, "channel": 0}, {"type": "note_on", "time": 34, "note": 61, "velocity": 126, "channel": 0}, {"type": "note_off", "time": 26, "note": 61, "velocity": 126, "channel": 0}, {"type": "note_on", "time": 2, "note": 60, "velocity": 124, "channel": 0}, {"type": "note_off", "time": 314, "note": 60, "velocity": 124, "channel": 0}, {"type": "note_on", "time": 29, "note": 58, "velocity": 118, "channel": 0}, {"type": "note_off", "time": 63, "note": 58, "velocity": 118, "channel": 0}, {"type": "note_on", "time": 9, "note": 60, "velocity": 120, "channel": 0}, {"type": "note_off", "time": 102, "note": 60, "velocity": 120, "channel": 0}, {"type": "note_on", "time": 10, "note": 62, "velocity": 127, "channel": 0}, {"type": "note_off", "time": 87, "note": 62, "velocity": 127, "channel": 0}, {"type": "note_on", "time": 7, "note": 61, "velocity": 117, "channel": 0}, {"type": "note_off", "time": 43, "note": 61, "velocity": 117, "channel": 0}, {"type": "end_of_track", "time": 0}]]}