{"ticks_per_beat": 9240, "tracks": [[{"type": "track_name", "name": "Melody", "time": 0}, {"type": "set_tempo", "tempo": 983606, "time": 0}, {"type": "key_signature", "key": "Bb", "time": 0}, {"type": "time_signature", "numerator": 4, "denominator": 4, "clocks_per_click": 24, "notated_32nd_notes_per_beat": 8, "time": 0}, {"type": "note_on", "time": 45512, "note": 58, "velocity": 110, "channel": 0}, {"type": "note_off", "time": 2914, "note": 58, "velocity": 110, "channel": 0}, {"type": "note_on", "time": 1658, "note": 53, "velocity": 103, "channel": 0}, {"type": "note_off", "time": 2563, "note": 53, "velocity": 103, "channel": 0}, {"type": "note_on", "time": 411, "note": 60, "velocity": 106, "channel": 0}, {"type": "note_off", "time": 2290, "note": 60, "velocity": 106, "channel": 0}, {"type": "note_on", "time": 2451, "note": 53, "velocity": 87, "channel": 0}, {"type": "note_off", "time": 872, "note": 53, "velocity": 87, "channel": 0}, {"type": "note_on", "time": 67, "note": 58, "velocity": 102, "channel": 0}, {"type": "note_off", "time": 2616, "note": 58, "velocity": 102, "channel": 0}, {"type": "note_on", "time": 113, "note": 60, "velocity": 113, "channel": 0}, {"type": "note_off", "time": 1437, "note": 60, "velocity": 113, "channel": 0}, {"type": "note_on", "time": 69, "note": 62, "velocity": 108, "channel": 0}, {"type": "note_off", "time": 4840, "note": 62, "velocity": 108, "channel": 0}, {"type": "note_on", "time": 143, "note": 58, "velocity": 96, "channel": 0}, {"type": "note_off", "time": 2147, "note": 58, "velocity": 96, "channel": 0}, {"type": "note_on", "time": 2554, "note": 65, "velocity": 115, "channel": 0}, {"type": "note_off", "time": 2358, "note": 65, "velocity": 115, "channel": 0}, {"type": "note_on", "time": 9504, "note": 51, "velocity": 92, "channel": 0}, {"type": "note_off", "time": 2655, "note": 51, "velocity": 92, "channel": 0}, {"type": "note_on", "time": 87, "note": 55, "velocity": 99, "channel": 0}, {"type": "note_off", "time": 1162, "note": 55, "velocity": 99, "channel": 0}, {"type": "note_on", "time": 46, "note": 58, "velocity": 103, "channel": 0}, {"type": "note_off", "time": 693, "note": 58, "velocity": 103, "channel": 0}, {"type": "note_on", "time": 22, "note": 60, "velocity": 109, "channel": 0}, {"type": "note_off", "time": 1663, "note": 60, "velocity": 109, "channel": 0}, {"type": "note_on", "time": 102, "note": 61, "velocity": 112, "channel": 0}, {"type": "note_off", "time": 2488, "note": 61, "velocity": 112, "channel": 0}, {"type": "note_on", "time": 673, "note": 58, "velocity": 95, "channel": 0}, {"type": "note_off", "time": 538, "note": 58, "velocity": 95, "channel": 0}, {"type": "note_on", "time": 133, "note": 60, "velocity": 113, "channel": 0}, {"type": "note_off", "time": 2415, "note": 60, "velocity": 113, "channel": 0}, {"type": "note_on", "time": 199, "note": 61, "velocity": 111, "channel": 0}, {"type": "note_off", "time": 1595, "note": 61, "velocity": 111, "channel": 0}, {"type": "note_on", "time": 74, "note": 60, "velocity": 108, "channel": 0}, {"type": "note_off", "time": 1458, "note": 60, "velocity": 108, "channel": 0}, {"type": "note_on", "time": 95, "note": 61, "velocity": 106, "channel": 0}, {"type": "note_off", "time": 1070, "note": 61, "velocity": 106, "channel": 0}, {"type": "note_on", "time": 54, "note": 60, "velocity": 110, "channel": 0}, {"type": "note_off", "time": 1560, "note": 60, "velocity": 110, "channel": 0}, {"type": "note_on", "time": 143, "note": 61, "velocity": 112, "channel": 0}, {"type": "note_off", "time": 2733, "note": 61, "velocity": 112, "channel": 0}, {"type": "note_on", "time": 1520, "note": 60, "velocity": 109, "channel": 0}, {"type": "note_off", "time": 2747, "note": 60, "velocity": 109, "channel": 0}, {"type": "note_on", "time": 54, "note": 61, "velocity": 113, "channel": 0}, {"type": "note_off", "time": 1445, "note": 61, "velocity": 113, "channel": 0}, {"type": "note_on", "time": 61, "note": 60, "velocity": 111, "channel": 0}, {"type": "note_off", "time": 1642, "note": 60, "velocity": 111, "channel": 0}, {"type": "note_on", "time": 143, "note": 61, "velocity": 108, "channel": 0}, {"type": "note_off", "time": 1145, "note": 61, "velocity": 108, "channel": 0}, {"type": "note_on", "time": 81, "note": 60, "velocity": 109, "channel": 0}, {"type": "note_off", "time": 838, "note": 60, "velocity": 109, "channel": 0}, {"type": "note_on", "time": 95, "note": 58, "velocity": 97, "channel": 0}, {"type": "note_off", "time": 872, "note": 58, "velocity": 97, "channel": 0}, {"type": "note_on", "time": 579, "note": 61, "velocity": 107, "channel": 0}, {"type": "note_off", "time": 1220, "note": 61, "velocity": 107, "channel": 0}, {"type": "note_on", "time": 81, "note": 62, "velocity": 108, "channel": 0}, {"type": "note_off", "time": 1792, "note": 62, "velocity": 108, "channel": 0}, {"type": "note_on", "time": 91, "note": 65, "velocity": 107, "channel": 0}, {"type": "note_off", "time": 6115, "note": 65, "velocity": 107, "channel": 0}, {"type": "note_on", "time": 11493, "note": 67, "velocity": 120, "channel": 0}, {"type": "note_off", "time": 1984, "note": 67, "velocity": 120, "channel": 0}, {"type": "note_on", "time": 69, "note": 65, "velocity": 113, "channel": 0}, {"type": "note_off", "time": 2133, "note": 65, "velocity": 113, "channel": 0}, {"type": "note_on", "time": 95, "note": 64, "velocity": 113, "channel": 0}, {"type": "note_off", "time": 1547, "note": 64, "velocity": 113, "channel": 0}, {"type": "note_on", "time": 68, "note": 63, "velocity": 111, "channel": 0}, {"type": "note_off", "time": 937, "note": 63, "velocity": 111, "channel": 0}, {"type": "note_on", "time": 23, "note": 65, "velocity": 106, "channel": 0}, {"type": "note_off", "time": 1054, "note": 65, "velocity": 106, "channel": 0}, {"type": "note_on", "time": 65, "note": 63, "velocity": 111, "channel": 0}, {"type": "note_off", "time": 932, "note": 63, "velocity": 111, "channel": 0}, {"type": "note_on", "time": 42, "note": 60, "velocity": 111, "channel": 0}, {"type": "note_off", "time": 1274, "note": 60, "velocity": 111, "channel": 0}, {"type": "note_on", "time": 450, "note": 67, "velocity": 106, "channel": 0}, {"type": "note_off", "time": 1254, "note": 67, "velocity": 106, "channel": 0}, {"type": "note_on", "time": 468, "note": 56, "velocity": 92, "channel": 0}, {"type": "note_off", "time": 759, "note": 56, "velocity": 92, "channel": 0}, {"type": "note_on", "time": 240, "note": 53, "velocity": 92, "channel": 0}, {"type": "note_off", "time": 805, "note": 53, "velocity": 92, "channel": 0}, {"type": "note_on", "time": 710, "note": 62, "velocity": 107, "channel": 0}, {"type": "note_off", "time": 858, "note": 62, "velocity": 107, "channel": 0}, {"type": "note_on", "time": 161, "note": 63, "velocity": 105, "channel": 0}, {"type": "note_off", "time": 590, "note": 63, "velocity": 105, "channel": 0}, {"type": "note_on", "time": 73, "note": 62, "velocity": 105, "channel": 0}, {"type": "note_off", "time": 1199, "note": 62, "velocity": 105, "channel": 0}, {"type": "note_on", "time": 67, "note": 60, "velocity": 109, "channel": 0}, {"type": "note_off", "time": 1635, "note": 60, "velocity": 109, "channel": 0}, {"type": "note_on", "time": 51, "note": 58, "velocity": 101, "channel": 0}, {"type": "note_off", "time": 2521, "note": 58, "velocity": 101, "channel": 0}, {"type": "note_on", "time": 107, "note": 55, "velocity": 105, "channel": 0}, {"type": "note_off", "time": 2269, "note": 55, "velocity": 105, "channel": 0}, {"type": "note_on", "time": 170, "note": 56, "velocity": 98, "channel": 0}, {"type": "note_off", "time": 1847, "note": 56, "velocity": 98, "channel": 0}, {"type": "note_on", "time": 61, "note": 60, "velocity": 107, "channel": 0}, {"type": "note_off", "time": 1158, "note": 60, "velocity": 107, "channel": 0}, {"type": "note_on", "time": 60, "note": 63, "velocity": 106, "channel": 0}, {"type": "note_off", "time": 738, "note": 63, "velocity": 106, "channel": 0}, {"type": "note_on", "time": 0, "note": 66, "velocity": 124, "channel": 0}, {"type": "note_off", "time": 853, "note": 66, "velocity": 124, "channel": 0}, {"type": "note_on", "time": 76, "note": 67, "velocity": 120, "channel": 0}, {"type": "note_off", "time": 1840, "note": 67, "velocity": 120, "channel": 0}, {"type": "note_on", "time": 191, "note": 65, "velocity": 115, "channel": 0}, {"type": "note_off", "time": 738, "note": 65, "velocity": 115, "channel": 0}, {"type": "note_on", "time": 134, "note": 66, "velocity": 110, "channel": 0}, {"type": "note_off", "time": 5463, "note": 66, "velocity": 110, "channel": 0}, {"type": "note_on", "time": 259, "note": 62, "velocity": 104, "channel": 0}, {"type": "note_off", "time": 2235, "note": 62, "velocity": 104, "channel": 0}, {"type": "note_on", "time": 202, "note": 60, "velocity": 106, "channel": 0}, {"type": "note_off", "time": 1635, "note": 60, "velocity": 106, "channel": 0}, {"type": "note_on", "time": 276, "note": 58, "velocity": 99, "channel": 0}, {"type": "note_off", "time": 2137, "note": 58, "velocity": 99, "channel": 0}, {"type": "note_on", "time": 1185, "note": 69, "velocity": 119, "channel": 0}, {"type": "note_on", "time": 981, "note": 70, "velocity": 122, "channel": 0}, {"type": "note_off", "time": 0, "note": 69, "velocity": 119, "channel": 0}, {"type": "note_off", "time": 2290, "note": 70, "velocity": 122, "channel": 0}, {"type": "note_on", "time": 109, "note": 71, "velocity": 127, "channel": 0}, {"type": "note_off", "time": 599, "note": 71, "velocity": 127, "channel": 0}, {"type": "note_on", "time": 109, "note": 70, "velocity": 122, "channel": 0}, {"type": "note_off", "time": 872, "note": 70, "velocity": 122, "channel": 0}, {"type": "note_on", "time": 34, "note": 67, "velocity": 121, "channel": 0}, {"type": "note_off", "time": 1717, "note": 67, "velocity": 121, "channel": 0}, {"type": "note_on", "time": 81, "note": 65, "velocity": 113, "channel": 0}, {"type": "note_off", "time": 2474, "note": 65, "velocity": 113, "channel": 0}, {"type": "note_on", "time": 763, "note": 58, "velocity": 93, "channel": 0}, {"type": "note_off", "time": 1635, "note": 58, "velocity": 93, "channel": 0}, {"type": "note_on", "time": 204, "note": 60, "velocity": 107, "channel": 0}, {"type": "note_off", "time": 2542, "note": 60, "velocity": 107, "channel": 0}, {"type": "note_on", "time": 74, "note": 61, "velocity": 108, "channel": 0}, {"type": "note_off", "time": 1567, "note": 61, "velocity": 108, "channel": 0}, {"type": "note_on", "time": 673, "note": 63, "velocity": 109, "channel": 0}, {"type": "note_off", "time": 1110, "note": 63, "velocity": 109, "channel": 0}, {"type": "note_on", "time": 75, "note": 65, "velocity": 114, "channel": 0}, {"type": "note_off", "time": 3853, "note": 65, "velocity": 114, "channel": 0}, {"type": "note_on", "time": 3245, "note": 69, "velocity": 112, "channel": 0}, {"type": "note_off", "time": 1555, "note": 69, "velocity": 112, "channel": 0}, {"type": "note_on", "time": 37, "note": 71, "velocity": 121, "channel": 0}, {"type": "note_off", "time": 1162, "note": 71, "velocity": 121, "channel": 0}, {"type": "note_on", "time": 66, "note": 72, "velocity": 122, "channel": 0}, {"type": "note_off", "time": 4253, "note": 72, "velocity": 122, "channel": 0}, {"type": "note_on", "time": 131, "note": 71, "velocity": 120, "channel": 0}, {"type": "note_off", "time": 913, "note": 71, "velocity": 120, "channel": 0}, {"type": "note_on", "time": 20, "note": 70, "velocity": 120, "channel": 0}, {"type": "note_off", "time": 1346, "note": 70, "velocity": 120, "channel": 0}, {"type": "note_on", "time": 81, "note": 69, "velocity": 116, "channel": 0}, {"type": "note_off", "time": 2181, "note": 69, "velocity": 116, "channel": 0}, {"type": "note_on", "time": 313, "note": 65, "velocity": 111, "channel": 0}, {"type": "note_off", "time": 1581, "note": 65, "velocity": 111, "channel": 0}, {"type": "note_on", "time": 231, "note": 61, "velocity": 108, "channel": 0}, {"type": "note_off", "time": 1881, "note": 61, "velocity": 108, "channel": 0}, {"type": "note_on", "time": 81, "note": 60, "velocity": 97, "channel": 0}, {"type": "note_off", "time": 783, "note": 60, "velocity": 97, "channel": 0}, {"type": "note_on", "time": 967, "note": 55, "velocity": 85, "channel": 0}, {"type": "note_off", "time": 668, "note": 55, "velocity": 85, "channel": 0}, {"type": "note_on", "time": 138, "note": 60, "velocity": 106, "channel": 0}, {"type": "note_off", "time": 1270, "note": 60, "velocity": 106, "channel": 0}, {"type": "note_on", "time": 60, "note": 61, "velocity": 105, "channel": 0}, {"type": "note_off", "time": 909, "note": 61, "velocity": 105, "channel": 0}, {"type": "note_on", "time": 121, "note": 60, "velocity": 108, "channel": 0}, {"type": "note_off", "time": 843, "note": 60, "velocity": 108, "channel": 0}, {"type": "note_on", "time": 51, "note": 58, "velocity": 97, "channel": 0}, {"type": "note_off", "time": 1007, "note": 58, "velocity": 97, "channel": 0}, {"type": "note_on", "time": 39, "note": 60, "velocity": 105, "channel": 0}, {"type": "note_off", "time": 2779, "note": 60, "velocity": 105, "channel": 0}, {"type": "note_on", "time": 124, "note": 61, "velocity": 92, "channel": 0}, {"type": "note_off", "time": 6288, "note": 61, "velocity": 92, "channel": 0}, {"type": "note_on", "time": 17873, "note": 53, "velocity": 94, "channel": 0}, {"type": "note_off", "time": 1260, "note": 53, "velocity": 94, "channel": 0}, {"type": "note_on", "time": 65, "note": 55, "velocity": 102, "channel": 0}, {"type": "note_off", "time": 899, "note": 55, "velocity": 102, "channel": 0}, {"type": "note_on", "time": 84, "note": 57, "velocity": 96, "channel": 0}, {"type": "note_off", "time": 674, "note": 57, "velocity": 96, "channel": 0}, {"type": "note_on", "time": 25, "note": 55, "velocity": 95, "channel": 0}, {"type": "note_off", "time": 374, "note": 55, "velocity": 95, "channel": 0}, {"type": "note_on", "time": 51, "note": 58, "velocity": 94, "channel": 0}, {"type": "note_off", "time": 763, "note": 58, "velocity": 94, "channel": 0}, {"type": "note_on", "time": 60, "note": 60, "velocity": 107, "channel": 0}, {"type": "note_off", "time": 799, "note": 60, "velocity": 107, "channel": 0}, {"type": "note_on", "time": 742, "note": 57, "velocity": 100, "channel": 0}, {"type": "note_off", "time": 661, "note": 57, "velocity": 100, "channel": 0}, {"type": "note_on", "time": 122, "note": 58, "velocity": 95, "channel": 0}, {"type": "note_off", "time": 1349, "note": 58, "velocity": 95, "channel": 0}, {"type": "note_on", "time": 61, "note": 60, "velocity": 109, "channel": 0}, {"type": "note_off", "time": 1157, "note": 60, "velocity": 109, "channel": 0}, {"type": "note_on", "time": 84, "note": 61, "velocity": 103, "channel": 0}, {"type": "note_off", "time": 1045, "note": 61, "velocity": 103, "channel": 0}, {"type": "note_on", "time": 398, "note": 62, "velocity": 106, "channel": 0}, {"type": "note_off", "time": 1353, "note": 62, "velocity": 106, "channel": 0}, {"type": "note_on", "time": 51, "note": 63, "velocity": 103, "channel": 0}, {"type": "note_off", "time": 852, "note": 63, "velocity": 103, "channel": 0}, {"type": "note_on", "time": 58, "note": 61, "velocity": 102, "channel": 0}, {"type": "note_off", "time": 1255, "note": 61, "velocity": 102, "channel": 0}, {"type": "note_on", "time": 79, "note": 62, "velocity": 101, "channel": 0}, {"type": "note_off", "time": 1377, "note": 62, "velocity": 101, "channel": 0}, {"type": "note_on", "time": 118, "note": 65, "velocity": 105, "channel": 0}, {"type": "note_off", "time": 1520, "note": 65, "velocity": 105, "channel": 0}, {"type": "note_on", "time": 177, "note": 67, "velocity": 93, "channel": 0}, {"type": "note_off", "time": 681, "note": 67, "velocity": 93, "channel": 0}, {"type": "note_on", "time": 40, "note": 69, "velocity": 94, "channel": 0}, {"type": "note_off", "time": 511, "note": 69, "velocity": 94, "channel": 0}, {"type": "note_on", "time": 61, "note": 72, "velocity": 124, "channel": 0}, {"type": "note_off", "time": 1520, "note": 72, "velocity": 124, "channel": 0}, {"type": "note_on", "time": 20, "note": 70, "velocity": 121, "channel": 0}, {"type": "note_off", "time": 1036, "note": 70, "velocity": 121, "channel": 0}, {"type": "note_on", "time": 27, "note": 69, "velocity": 117, "channel": 0}, {"type": "note_off", "time": 937, "note": 69, "velocity": 117, "channel": 0}, {"type": "note_on", "time": 27, "note": 67, "velocity": 108, "channel": 0}, {"type": "note_off", "time": 1226, "note": 67, "velocity": 108, "channel": 0}, {"type": "note_on", "time": 46, "note": 66, "velocity": 110, "channel": 0}, {"type": "note_off", "time": 890, "note": 66, "velocity": 110, "channel": 0}, {"type": "note_on", "time": 504, "note": 67, "velocity": 89, "channel": 0}, {"type": "note_off", "time": 342, "note": 67, "velocity": 89, "channel": 0}, {"type": "note_on", "time": 90, "note": 70, "velocity": 118, "channel": 0}, {"type": "note_off", "time": 1148, "note": 70, "velocity": 118, "channel": 0}, {"type": "note_on", "time": 102, "note": 67, "velocity": 121, "channel": 0}, {"type": "note_off", "time": 817, "note": 67, "velocity": 121, "channel": 0}, {"type": "note_on", "time": 326, "note": 63, "velocity": 110, "channel": 0}, {"type": "note_off", "time": 958, "note": 63, "velocity": 110, "channel": 0}, {"type": "note_on", "time": 38, "note": 60, "velocity": 104, "channel": 0}, {"type": "note_off", "time": 1226, "note": 60, "velocity": 104, "channel": 0}, {"type": "note_on", "time": 0, "note": 61, "velocity": 97, "channel": 0}, {"type": "note_off", "time": 920, "note": 61, "velocity": 97, "channel": 0}, {"type": "note_on", "time": 79, "note": 64, "velocity": 94, "channel": 0}, {"type": "note_off", "time": 590, "note": 64, "velocity": 94, "channel": 0}, {"type": "note_on", "time": 229, "note": 69, "velocity": 116, "channel": 0}, {"type": "note_off", "time": 1176, "note": 69, "velocity": 116, "channel": 0}, {"type": "note_on", "time": 42, "note": 67, "velocity": 116, "channel": 0}, {"type": "note_off", "time": 1129, "note": 67, "velocity": 116, "channel": 0}, {"type": "note_on", "time": 32, "note": 65, "velocity": 106, "channel": 0}, {"type": "note_off", "time": 951, "note": 65, "velocity": 106, "channel": 0}, {"type": "note_on", "time": 70, "note": 62, "velocity": 105, "channel": 0}, {"type": "note_off", "time": 993, "note": 62, "velocity": 105, "channel": 0}, {"type": "note_on", "time": 89, "note": 63, "velocity": 105, "channel": 0}, {"type": "note_off", "time": 679, "note": 63, "velocity": 105, "channel": 0}, {"type": "note_on", "time": 60, "note": 65, "velocity": 104, "channel": 0}, {"type": "note_off", "time": 571, "note": 65, "velocity": 104, "channel": 0}, {"type": "note_on", "time": 42, "note": 63, "velocity": 105, "channel": 0}, {"type": "note_off", "time": 642, "note": 63, "velocity": 105, "channel": 0}, {"type": "note_on", "time": 57, "note": 62, "velocity": 106, "channel": 0}, {"type": "note_off", "time": 1111, "note": 62, "velocity": 106, "channel": 0}, {"type": "note_on", "time": 92, "note": 63, "velocity": 87, "channel": 0}, {"type": "note_off", "time": 763, "note": 63, "velocity": 87, "channel": 0}, {"type": "note_on", "time": 95, "note": 65, "velocity": 104, "channel": 0}, {"type": "note_off", "time": 1765, "note": 65, "velocity": 104, "channel": 0}, {"type": "note_on", "time": 6973, "note": 62, "velocity": 107, "channel": 0}, {"type": "note_off", "time": 1687, "note": 62, "velocity": 107, "channel": 0}, {"type": "note_on", "time": 87, "note": 63, "velocity": 109, "channel": 0}, {"type": "note_off", "time": 2300, "note": 63, "velocity": 109, "channel": 0}, {"type": "note_on", "time": 48, "note": 65, "velocity": 106, "channel": 0}, {"type": "note_off", "time": 1035, "note": 65, "velocity": 106, "channel": 0}, {"type": "note_on", "time": 130, "note": 63, "velocity": 97, "channel": 0}, {"type": "note_off", "time": 1036, "note": 63, "velocity": 97, "channel": 0}, {"type": "note_on", "time": 95, "note": 62, "velocity": 102, "channel": 0}, {"type": "note_off", "time": 2017, "note": 62, "velocity": 102, "channel": 0}, {"type": "note_on", "time": 93, "note": 60, "velocity": 86, "channel": 0}, {"type": "note_off", "time": 4677, "note": 60, "velocity": 86, "channel": 0}, {"type": "note_on", "time": 134, "note": 62, "velocity": 107, "channel": 0}, {"type": "note_off", "time": 1313, "note": 62, "velocity": 107, "channel": 0}, {"type": "note_on", "time": 130, "note": 65, "velocity": 110, "channel": 0}, {"type": "note_off", "time": 2498, "note": 65, "velocity": 110, "channel": 0}, {"type": "note_on", "time": 51, "note": 67, "velocity": 124, "channel": 0}, {"type": "note_off", "time": 866, "note": 67, "velocity": 124, "channel": 0}, {"type": "note_on", "time": 37, "note": 68, "velocity": 123, "channel": 0}, {"type": "note_off", "time": 1002, "note": 68, "velocity": 123, "channel": 0}, {"type": "note_on", "time": 56, "note": 67, "velocity": 116, "channel": 0}, {"type": "note_off", "time": 1049, "note": 67, "velocity": 116, "channel": 0}, {"type": "note_on", "time": 79, "note": 68, "velocity": 119, "channel": 0}, {"type": "note_off", "time": 937, "note": 68, "velocity": 119, "channel": 0}, {"type": "note_on", "time": 74, "note": 67, "velocity": 113, "channel": 0}, {"type": "note_off", "time": 904, "note": 67, "velocity": 113, "channel": 0}, {"type": "note_on", "time": 70, "note": 62, "velocity": 109, "channel": 0}, {"type": "note_off", "time": 1111, "note": 62, "velocity": 109, "channel": 0}, {"type": "note_on", "time": 170, "note": 64, "velocity": 115, "channel": 0}, {"type": "note_off", "time": 892, "note": 64, "velocity": 115, "channel": 0}, {"type": "note_on", "time": 81, "note": 65, "velocity": 108, "channel": 0}, {"type": "note_off", "time": 2024, "note": 65, "velocity": 108, "channel": 0}, {"type": "note_on", "time": 227, "note": 63, "velocity": 101, "channel": 0}, {"type": "note_off", "time": 8550, "note": 63, "velocity": 101, "channel": 0}, {"type": "note_on", "time": 549, "note": 67, "velocity": 117, "channel": 0}, {"type": "note_off", "time": 1513, "note": 67, "velocity": 117, "channel": 0}, {"type": "note_on", "time": 491, "note": 62, "velocity": 103, "channel": 0}, {"type": "note_off", "time": 1472, "note": 62, "velocity": 103, "channel": 0}, {"type": "note_on", "time": 44, "note": 63, "velocity": 98, "channel": 0}, {"type": "note_off", "time": 593, "note": 63, "velocity": 98, "channel": 0}, {"type": "note_on", "time": 88, "note": 62, "velocity": 103, "channel": 0}, {"type": "note_off", "time": 787, "note": 62, "velocity": 103, "channel": 0}, {"type": "note_on", "time": 77, "note": 60, "velocity": 101, "channel": 0}, {"type": "note_off", "time": 1179, "note": 60, "velocity": 101, "channel": 0}, {"type": "note_on", "time": 805, "note": 55, "velocity": 99, "channel": 0}, {"type": "note_off", "time": 1495, "note": 55, "velocity": 99, "channel": 0}, {"type": "note_on", "time": 597, "note": 51, "velocity": 81, "channel": 0}, {"type": "note_off", "time": 913, "note": 51, "velocity": 81, "channel": 0}, {"type": "note_on", "time": 568, "note": 59, "velocity": 92, "channel": 0}, {"type": "note_off", "time": 7898, "note": 59, "velocity": 92, "channel": 0}, {"type": "note_on", "time": 16438, "note": 60, "velocity": 112, "channel": 0}, {"type": "note_off", "time": 1443, "note": 60, "velocity": 112, "channel": 0}, {"type": "note_on", "time": 37, "note": 63, "velocity": 98, "channel": 0}, {"type": "note_off", "time": 726, "note": 63, "velocity": 98, "channel": 0}, {"type": "note_on", "time": 79, "note": 67, "velocity": 122, "channel": 0}, {"type": "note_off", "time": 1448, "note": 67, "velocity": 122, "channel": 0}, {"type": "note_on", "time": 14, "note": 70, "velocity": 119, "channel": 0}, {"type": "note_off", "time": 745, "note": 70, "velocity": 119, "channel": 0}, {"type": "note_on", "time": 93, "note": 73, "velocity": 111, "channel": 0}, {"type": "note_off", "time": 384, "note": 73, "velocity": 111, "channel": 0}, {"type": "note_on", "time": 112, "note": 74, "velocity": 117, "channel": 0}, {"type": "note_off", "time": 2090, "note": 74, "velocity": 117, "channel": 0}, {"type": "note_on", "time": 178, "note": 72, "velocity": 125, "channel": 0}, {"type": "note_off", "time": 1687, "note": 72, "velocity": 125, "channel": 0}, {"type": "note_on", "time": 159, "note": 70, "velocity": 120, "channel": 0}, {"type": "note_off", "time": 2226, "note": 70, "velocity": 120, "channel": 0}, {"type": "note_on", "time": 106, "note": 67, "velocity": 121, "channel": 0}, {"type": "note_off", "time": 1533, "note": 67, "velocity": 121, "channel": 0}, {"type": "note_on", "time": 191, "note": 63, "velocity": 115, "channel": 0}, {"type": "note_off", "time": 2032, "note": 63, "velocity": 115, "channel": 0}, {"type": "note_on", "time": 355, "note": 60, "velocity": 110, "channel": 0}, {"type": "note_off", "time": 2058, "note": 60, "velocity": 110, "channel": 0}, {"type": "note_on", "time": 68, "note": 62, "velocity": 108, "channel": 0}, {"type": "note_off", "time": 2201, "note": 62, "velocity": 108, "channel": 0}, {"type": "note_on", "time": 129, "note": 60, "velocity": 108, "channel": 0}, {"type": "note_off", "time": 1997, "note": 60, "velocity": 108, "channel": 0}, {"type": "note_on", "time": 1117, "note": 65, "velocity": 108, "channel": 0}, {"type": "note_off", "time": 981, "note": 65, "velocity": 108, "channel": 0}, {"type": "note_on", "time": 57, "note": 67, "velocity": 112, "channel": 0}, {"type": "note_off", "time": 698, "note": 67, "velocity": 112, "channel": 0}, {"type": "note_on", "time": 68, "note": 65, "velocity": 106, "channel": 0}, {"type": "note_off", "time": 702, "note": 65, "velocity": 106, "channel": 0}, {"type": "note_on", "time": 69, "note": 61, "velocity": 103, "channel": 0}, {"type": "note_off", "time": 1188, "note": 61, "velocity": 103, "channel": 0}, {"type": "note_on", "time": 268, "note": 57, "velocity": 96, "channel": 0}, {"type": "note_off", "time": 2492, "note": 57, "velocity": 96, "channel": 0}, {"type": "note_on", "time": 421, "note": 53, "velocity": 85, "channel": 0}, {"type": "note_off", "time": 920, "note": 53, "velocity": 85, "channel": 0}, {"type": "note_on", "time": 402, "note": 58, "velocity": 105, "channel": 0}, {"type": "note_off", "time": 3489, "note": 58, "velocity": 105, "channel": 0}, {"type": "note_on", "time": 134, "note": 53, "velocity": 82, "channel": 0}, {"type": "note_off", "time": 766, "note": 53, "velocity": 82, "channel": 0}, {"type": "note_on", "time": 306, "note": 58, "velocity": 101, "channel": 0}, {"type": "note_off", "time": 2645, "note": 58, "velocity": 101, "channel": 0}, {"type": "note_on", "time": 134, "note": 60, "velocity": 109, "channel": 0}, {"type": "note_off", "time": 1541, "note": 60, "velocity": 109, "channel": 0}, {"type": "note_on", "time": 107, "note": 61, "velocity": 108, "channel": 0}, {"type": "note_off", "time": 679, "note": 61, "velocity": 108, "channel": 0}, {"type": "note_on", "time": 47, "note": 62, "velocity": 104, "channel": 0}, {"type": "note_off", "time": 2931, "note": 62, "velocity": 104, "channel": 0}, {"type": "note_on", "time": 81, "note": 60, "velocity": 109, "channel": 0}, {"type": "note_off", "time": 2310, "note": 60, "velocity": 109, "channel": 0}, {"type": "note_on", "time": 2079, "note": 58, "velocity": 100, "channel": 0}, {"type": "note_off", "time": 1138, "note": 58, "velocity": 100, "channel": 0}, {"type": "note_on", "time": 132, "note": 62, "velocity": 106, "channel": 0}, {"type": "note_off", "time": 1349, "note": 62, "velocity": 106, "channel": 0}, {"type": "note_on", "time": 78, "note": 63, "velocity": 109, "channel": 0}, {"type": "note_off", "time": 5385, "note": 63, "velocity": 109, "channel": 0}, {"type": "note_on", "time": 406, "note": 67, "velocity": 121, "channel": 0}, {"type": "note_off", "time": 1763, "note": 67, "velocity": 121, "channel": 0}, {"type": "note_on", "time": 239, "note": 65, "velocity": 98, "channel": 0}, {"type": "note_off", "time": 4323, "note": 65, "velocity": 98, "channel": 0}, {"type": "note_on", "time": 158, "note": 62, "velocity": 109, "channel": 0}, {"type": "note_off", "time": 2528, "note": 62, "velocity": 109, "channel": 0}, {"type": "note_on", "time": 82, "note": 65, "velocity": 107, "channel": 0}, {"type": "note_off", "time": 503, "note": 65, "velocity": 107, "channel": 0}, {"type": "note_on", "time": 21, "note": 67, "velocity": 115, "channel": 0}, {"type": "note_off", "time": 637, "note": 67, "velocity": 115, "channel": 0}, {"type": "note_on", "time": 57, "note": 69, "velocity": 121, "channel": 0}, {"type": "note_off", "time": 766, "note": 69, "velocity": 121, "channel": 0}, {"type": "note_on", "time": 153, "note": 70, "velocity": 118, "channel": 0}, {"type": "note_off", "time": 2842, "note": 70, "velocity": 118, "channel": 0}, {"type": "note_on", "time": 2092, "note": 62, "velocity": 104, "channel": 0}, {"type": "note_off", "time": 2482, "note": 62, "velocity": 104, "channel": 0}, {"type": "note_on", "time": 86, "note": 60, "velocity": 108, "channel": 0}, {"type": "note_off", "time": 2214, "note": 60, "velocity": 108, "channel": 0}, {"type": "note_on", "time": 143, "note": 59, "velocity": 97, "channel": 0}, {"type": "note_off", "time": 2214, "note": 59, "velocity": 97, "channel": 0}, {"type": "note_on", "time": 125, "note": 68, "velocity": 119, "channel": 0}, {"type": "note_off", "time": 1567, "note": 68, "velocity": 119, "channel": 0}, {"type": "note_on", "time": 88, "note": 67, "velocity": 116, "channel": 0}, {"type": "note_off", "time": 995, "note": 67, "velocity": 116, "channel": 0}, {"type": "note_on", "time": 109, "note": 68, "velocity": 120, "channel": 0}, {"type": "note_off", "time": 756, "note": 68, "velocity": 120, "channel": 0}, {"type": "note_on", "time": 102, "note": 67, "velocity": 118, "channel": 0}, {"type": "note_off", "time": 1056, "note": 67, "velocity": 118, "channel": 0}, {"type": "note_on", "time": 95, "note": 65, "velocity": 108, "channel": 0}, {"type": "note_off", "time": 1288, "note": 65, "velocity": 108, "channel": 0}, {"type": "note_on", "time": 409, "note": 63, "velocity": 104, "channel": 0}, {"type": "note_off", "time": 2310, "note": 63, "velocity": 104, "channel": 0}, {"type": "note_on", "time": 565, "note": 58, "velocity": 70, "channel": 0}, {"type": "note_off", "time": 1457, "note": 58, "velocity": 70, "channel": 0}, {"type": "note_on", "time": 325, "note": 61, "velocity": 110, "channel": 0}, {"type": "note_off", "time": 958, "note": 61, "velocity": 110, "channel": 0}, {"type": "note_on", "time": 191, "note": 62, "velocity": 107, "channel": 0}, {"type": "note_off", "time": 1763, "note": 62, "velocity": 107, "channel": 0}, {"type": "note_on", "time": 230, "note": 60, "velocity": 110, "channel": 0}, {"type": "note_off", "time": 996, "note": 60, "velocity": 110, "channel": 0}, {"type": "note_on", "time": 95, "note": 61, "velocity": 102, "channel": 0}, {"type": "note_off", "time": 2655, "note": 61, "velocity": 102, "channel": 0}, {"type": "note_on", "time": 7677, "note": 70, "velocity": 119, "channel": 0}, {"type": "note_off", "time": 2914, "note": 70, "velocity": 119, "channel": 0}, {"type": "note_on", "time": 1505, "note": 65, "velocity": 107, "channel": 0}, {"type": "note_off", "time": 3335, "note": 65, "velocity": 107, "channel": 0}, {"type": "note_on", "time": 73, "note": 67, "velocity": 119, "channel": 0}, {"type": "note_off", "time": 477, "note": 67, "velocity": 119, "channel": 0}, {"type": "note_on", "time": 27, "note": 69, "velocity": 123, "channel": 0}, {"type": "note_off", "time": 715, "note": 69, "velocity": 123, "channel": 0}, {"type": "note_on", "time": 59, "note": 70, "velocity": 119, "channel": 0}, {"type": "note_off", "time": 2947, "note": 70, "velocity": 119, "channel": 0}, {"type": "note_on", "time": 32, "note": 71, "velocity": 124, "channel": 0}, {"type": "note_off", "time": 435, "note": 71, "velocity": 124, "channel": 0}, {"type": "note_on", "time": 79, "note": 72, "velocity": 124, "channel": 0}, {"type": "note_off", "time": 768, "note": 72, "velocity": 124, "channel": 0}, {"type": "note_on", "time": 107, "note": 73, "velocity": 126, "channel": 0}, {"type": "note_off", "time": 1082, "note": 73, "velocity": 126, "channel": 0}, {"type": "note_on", "time": 103, "note": 74, "velocity": 121, "channel": 0}, {"type": "note_off", "time": 1687, "note": 74, "velocity": 121, "channel": 0}, {"type": "note_on", "time": 172, "note": 70, "velocity": 111, "channel": 0}, {"type": "note_off", "time": 4323, "note": 70, "velocity": 111, "channel": 0}, {"type": "note_on", "time": 21347, "note": 72, "velocity": 124, "channel": 0}, {"type": "note_off", "time": 2338, "note": 72, "velocity": 124, "channel": 0}, {"type": "note_on", "time": 57, "note": 70, "velocity": 126, "channel": 0}, {"type": "note_off", "time": 1888, "note": 70, "velocity": 126, "channel": 0}, {"type": "note_on", "time": 65, "note": 69, "velocity": 110, "channel": 0}, {"type": "note_off", "time": 712, "note": 69, "velocity": 110, "channel": 0}, {"type": "note_on", "time": 74, "note": 70, "velocity": 119, "channel": 0}, {"type": "note_off", "time": 1105, "note": 70, "velocity": 119, "channel": 0}, {"type": "note_on", "time": 60, "note": 69, "velocity": 119, "channel": 0}, {"type": "note_off", "time": 548, "note": 69, "velocity": 119, "channel": 0}, {"type": "note_on", "time": 32, "note": 67, "velocity": 122, "channel": 0}, {"type": "note_off", "time": 1418, "note": 67, "velocity": 122, "channel": 0}, {"type": "note_on", "time": 274, "note": 66, "velocity": 117, "channel": 0}, {"type": "note_off", "time": 1658, "note": 66, "velocity": 117, "channel": 0}, {"type": "note_on", "time": 460, "note": 57, "velocity": 88, "channel": 0}, {"type": "note_off", "time": 613, "note": 57, "velocity": 88, "channel": 0}, {"type": "note_on", "time": 76, "note": 60, "velocity": 104, "channel": 0}, {"type": "note_off", "time": 1763, "note": 60, "velocity": 104, "channel": 0}, {"type": "note_on", "time": 38, "note": 63, "velocity": 110, "channel": 0}, {"type": "note_off", "time": 4907, "note": 63, "velocity": 110, "channel": 0}, {"type": "note_on", "time": 115, "note": 62, "velocity": 108, "channel": 0}, {"type": "note_off", "time": 3105, "note": 62, "velocity": 108, "channel": 0}, {"type": "note_on", "time": 153, "note": 56, "velocity": 91, "channel": 0}, {"type": "note_off", "time": 8473, "note": 56, "velocity": 91, "channel": 0}, {"type": "note_on", "time": 1016, "note": 50, "velocity": 87, "channel": 0}, {"type": "note_off", "time": 690, "note": 50, "velocity": 87, "channel": 0}, {"type": "note_on", "time": 134, "note": 55, "velocity": 100, "channel": 0}, {"type": "note_off", "time": 2914, "note": 55, "velocity": 100, "channel": 0}, {"type": "note_on", "time": 460, "note": 57, "velocity": 10, "channel": 0}, {"type": "note_off", "time": 1485, "note": 57, "velocity": 10, "channel": 0}, {"type": "note_on", "time": 316, "note": 58, "velocity": 106, "channel": 0}, {"type": "note_off", "time": 1878, "note": 58, "velocity": 106, "channel": 0}, {"type": "note_on", "time": 182, "note": 60, "velocity": 109, "channel": 0}, {"type": "note_off", "time": 1955, "note": 60, "velocity": 109, "channel": 0}, {"type": "note_on", "time": 367, "note": 62, "velocity": 102, "channel": 0}, {"type": "note_off", "time": 4332, "note": 62, "velocity": 102, "channel": 0}, {"type": "note_on", "time": 12093, "note": 66, "velocity": 111, "channel": 0}, {"type": "note_off", "time": 1533, "note": 66, "velocity": 111, "channel": 0}, {"type": "note_on", "time": 105, "note": 67, "velocity": 117, "channel": 0}, {"type": "note_off", "time": 4936, "note": 67, "velocity": 117, "channel": 0}, {"type": "note_on", "time": 118, "note": 65, "velocity": 112, "channel": 0}, {"type": "note_off", "time": 1279, "note": 65, "velocity": 112, "channel": 0}, {"type": "note_on", "time": 49, "note": 67, "velocity": 118, "channel": 0}, {"type": "note_off", "time": 646, "note": 67, "velocity": 118, "channel": 0}, {"type": "note_on", "time": 57, "note": 65, "velocity": 109, "channel": 0}, {"type": "note_off", "time": 435, "note": 65, "velocity": 109, "channel": 0}, {"type": "note_on", "time": 60, "note": 63, "velocity": 110, "channel": 0}, {"type": "note_off", "time": 1717, "note": 63, "velocity": 110, "channel": 0}, {"type": "note_on", "time": 264, "note": 62, "velocity": 105, "channel": 0}, {"type": "note_off", "time": 2156, "note": 62, "velocity": 105, "channel": 0}, {"type": "note_on", "time": 220, "note": 60, "velocity": 105, "channel": 0}, {"type": "note_off", "time": 1725, "note": 60, "velocity": 105, "channel": 0}, {"type": "note_on", "time": 268, "note": 58, "velocity": 104, "channel": 0}, {"type": "note_off", "time": 2645, "note": 58, "velocity": 104, "channel": 0}, {"type": "note_on", "time": 217, "note": 55, "velocity": 103, "channel": 0}, {"type": "note_off", "time": 1763, "note": 55, "velocity": 103, "channel": 0}, {"type": "note_on", "time": 83, "note": 56, "velocity": 94, "channel": 0}, {"type": "note_off", "time": 1303, "note": 56, "velocity": 94, "channel": 0}, {"type": "note_on", "time": 273, "note": 60, "velocity": 103, "channel": 0}, {"type": "note_off", "time": 1129, "note": 60, "velocity": 103, "channel": 0}, {"type": "note_on", "time": 115, "note": 63, "velocity": 102, "channel": 0}, {"type": "note_off", "time": 1019, "note": 63, "velocity": 102, "channel": 0}, {"type": "note_on", "time": 153, "note": 67, "velocity": 120, "channel": 0}, {"type": "note_off", "time": 2815, "note": 67, "velocity": 120, "channel": 0}, {"type": "note_on", "time": 715, "note": 69, "velocity": 121, "channel": 0}, {"type": "note_off", "time": 988, "note": 69, "velocity": 121, "channel": 0}, {"type": "note_on", "time": 81, "note": 70, "velocity": 120, "channel": 0}, {"type": "note_off", "time": 3605, "note": 70, "velocity": 120, "channel": 0}, {"type": "note_on", "time": 368, "note": 66, "velocity": 113, "channel": 0}, {"type": "note_off", "time": 2392, "note": 66, "velocity": 113, "channel": 0}, {"type": "note_on", "time": 73, "note": 67, "velocity": 113, "channel": 0}, {"type": "note_off", "time": 548, "note": 67, "velocity": 113, "channel": 0}, {"type": "note_on", "time": 51, "note": 66, "velocity": 111, "channel": 0}, {"type": "note_off", "time": 1162, "note": 66, "velocity": 111, "channel": 0}, {"type": "note_on", "time": 56, "note": 62, "velocity": 100, "channel": 0}, {"type": "note_off", "time": 1855, "note": 62, "velocity": 100, "channel": 0}, {"type": "note_on", "time": 313, "note": 60, "velocity": 96, "channel": 0}, {"type": "note_off", "time": 4169, "note": 60, "velocity": 96, "channel": 0}, {"type": "note_on", "time": 239, "note": 58, "velocity": 94, "channel": 0}, {"type": "note_off", "time": 2338, "note": 58, "velocity": 94, "channel": 0}, {"type": "note_on", "time": 268, "note": 60, "velocity": 111, "channel": 0}, {"type": "note_off", "time": 1917, "note": 60, "velocity": 111, "channel": 0}, {"type": "note_on", "time": 76, "note": 61, "velocity": 111, "channel": 0}, {"type": "note_off", "time": 3067, "note": 61, "velocity": 111, "channel": 0}, {"type": "note_on", "time": 5252, "note": 58, "velocity": 101, "channel": 0}, {"type": "note_off", "time": 1251, "note": 58, "velocity": 101, "channel": 0}, {"type": "note_on", "time": 383, "note": 64, "velocity": 108, "channel": 0}, {"type": "note_off", "time": 1567, "note": 64, "velocity": 108, "channel": 0}, {"type": "note_on", "time": 102, "note": 65, "velocity": 110, "channel": 0}, {"type": "note_off", "time": 1199, "note": 65, "velocity": 110, "channel": 0}, {"type": "note_on", "time": 81, "note": 64, "velocity": 109, "channel": 0}, {"type": "note_off", "time": 1363, "note": 64, "velocity": 109, "channel": 0}, {"type": "note_on", "time": 136, "note": 61, "velocity": 112, "channel": 0}, {"type": "note_off", "time": 1917, "note": 61, "velocity": 112, "channel": 0}, {"type": "note_on", "time": 241, "note": 58, "velocity": 91, "channel": 0}, {"type": "note_off", "time": 920, "note": 58, "velocity": 91, "channel": 0}, {"type": "note_on", "time": 76, "note": 61, "velocity": 113, "channel": 0}, {"type": "note_off", "time": 1303, "note": 61, "velocity": 113, "channel": 0}, {"type": "note_on", "time": 448, "note": 63, "velocity": 108, "channel": 0}, {"type": "note_off", "time": 2128, "note": 63, "velocity": 108, "channel": 0}, {"type": "note_on", "time": 165, "note": 65, "velocity": 108, "channel": 0}, {"type": "note_off", "time": 2271, "note": 65, "velocity": 108, "channel": 0}, {"type": "note_on", "time": 642, "note": 70, "velocity": 124, "channel": 0}, {"type": "note_off", "time": 2440, "note": 70, "velocity": 124, "channel": 0}, {"type": "note_on", "time": 2447, "note": 58, "velocity": 96, "channel": 0}, {"type": "note_off", "time": 4792, "note": 58, "velocity": 96, "channel": 0}, {"type": "note_on", "time": 4756, "note": 61, "velocity": 114, "channel": 0}, {"type": "note_off", "time": 2603, "note": 61, "velocity": 114, "channel": 0}, {"type": "note_on", "time": 1704, "note": 58, "velocity": 99, "channel": 0}, {"type": "note_off", "time": 2549, "note": 58, "velocity": 99, "channel": 0}, {"type": "note_on", "time": 129, "note": 61, "velocity": 113, "channel": 0}, {"type": "note_off", "time": 1676, "note": 61, "velocity": 113, "channel": 0}, {"type": "note_on", "time": 293, "note": 64, "velocity": 107, "channel": 0}, {"type": "note_off", "time": 1520, "note": 64, "velocity": 107, "channel": 0}, {"type": "note_on", "time": 129, "note": 65, "velocity": 109, "channel": 0}, {"type": "note_off", "time": 1022, "note": 65, "velocity": 109, "channel": 0}, {"type": "note_on", "time": 95, "note": 64, "velocity": 107, "channel": 0}, {"type": "note_off", "time": 1308, "note": 64, "velocity": 107, "channel": 0}, {"type": "note_on", "time": 231, "note": 61, "velocity": 110, "channel": 0}, {"type": "note_off", "time": 1917, "note": 61, "velocity": 110, "channel": 0}, {"type": "note_on", "time": 162, "note": 58, "velocity": 94, "channel": 0}, {"type": "note_off", "time": 958, "note": 58, "velocity": 94, "channel": 0}, {"type": "note_on", "time": 76, "note": 61, "velocity": 113, "channel": 0}, {"type": "note_off", "time": 1140, "note": 61, "velocity": 113, "channel": 0}, {"type": "note_on", "time": 172, "note": 64, "velocity": 85, "channel": 0}, {"type": "note_off", "time": 699, "note": 64, "velocity": 85, "channel": 0}, {"type": "note_on", "time": 4605, "note": 61, "velocity": 112, "channel": 0}, {"type": "note_off", "time": 2017, "note": 61, "velocity": 112, "channel": 0}, {"type": "note_on", "time": 102, "note": 64, "velocity": 89, "channel": 0}, {"type": "note_off", "time": 668, "note": 64, "velocity": 89, "channel": 0}, {"type": "note_on", "time": 40, "note": 67, "velocity": 120, "channel": 0}, {"type": "note_off", "time": 1424, "note": 67, "velocity": 120, "channel": 0}, {"type": "note_on", "time": 115, "note": 68, "velocity": 119, "channel": 0}, {"type": "note_off", "time": 797, "note": 68, "velocity": 119, "channel": 0}, {"type": "note_on", "time": 81, "note": 69, "velocity": 116, "channel": 0}, {"type": "note_off", "time": 4158, "note": 69, "velocity": 116, "channel": 0}, {"type": "note_on", "time": 48, "note": 67, "velocity": 111, "channel": 0}, {"type": "note_off", "time": 2357, "note": 67, "velocity": 111, "channel": 0}, {"type": "note_on", "time": 385, "note": 65, "velocity": 101, "channel": 0}, {"type": "note_off", "time": 6460, "note": 65, "velocity": 101, "channel": 0}, {"type": "note_on", "time": 10038, "note": 62, "velocity": 106, "channel": 0}, {"type": "note_off", "time": 1237, "note": 62, "velocity": 106, "channel": 0}, {"type": "note_on", "time": 93, "note": 65, "velocity": 98, "channel": 0}, {"type": "note_off", "time": 759, "note": 65, "velocity": 98, "channel": 0}, {"type": "note_on", "time": 126, "note": 67, "velocity": 89, "channel": 0}, {"type": "note_off", "time": 1180, "note": 67, "velocity": 89, "channel": 0}, {"type": "note_on", "time": 84, "note": 69, "velocity": 94, "channel": 0}, {"type": "note_off", "time": 688, "note": 69, "velocity": 94, "channel": 0}, {"type": "note_on", "time": 112, "note": 72, "velocity": 107, "channel": 0}, {"type": "note_off", "time": 4256, "note": 72, "velocity": 107, "channel": 0}, {"type": "note_on", "time": 125, "note": 69, "velocity": 114, "channel": 0}, {"type": "note_off", "time": 1629, "note": 69, "velocity": 114, "channel": 0}, {"type": "note_on", "time": 81, "note": 65, "velocity": 109, "channel": 0}, {"type": "note_off", "time": 1465, "note": 65, "velocity": 109, "channel": 0}, {"type": "note_on", "time": 95, "note": 62, "velocity": 106, "channel": 0}, {"type": "note_off", "time": 1526, "note": 62, "velocity": 106, "channel": 0}, {"type": "note_on", "time": 60, "note": 67, "velocity": 103, "channel": 0}, {"type": "note_off", "time": 4102, "note": 67, "velocity": 103, "channel": 0}, {"type": "note_on", "time": 10927, "note": 62, "velocity": 107, "channel": 0}, {"type": "note_off", "time": 2645, "note": 62, "velocity": 107, "channel": 0}, {"type": "note_on", "time": 68, "note": 63, "velocity": 109, "channel": 0}, {"type": "note_off", "time": 1956, "note": 63, "velocity": 109, "channel": 0}, {"type": "note_on", "time": 84, "note": 65, "velocity": 108, "channel": 0}, {"type": "note_off", "time": 2415, "note": 65, "velocity": 108, "channel": 0}, {"type": "note_on", "time": 35, "note": 67, "velocity": 121, "channel": 0}, {"type": "note_off", "time": 2017, "note": 67, "velocity": 121, "channel": 0}, {"type": "note_on", "time": 68, "note": 68, "velocity": 123, "channel": 0}, {"type": "note_off", "time": 2167, "note": 68, "velocity": 123, "channel": 0}, {"type": "note_on", "time": 68, "note": 70, "velocity": 121, "channel": 0}, {"type": "note_off", "time": 2971, "note": 70, "velocity": 121, "channel": 0}, {"type": "note_on", "time": 109, "note": 71, "velocity": 124, "channel": 0}, {"type": "note_off", "time": 3871, "note": 71, "velocity": 124, "channel": 0}, {"type": "note_on", "time": 39, "note": 74, "velocity": 111, "channel": 0}, {"type": "note_off", "time": 2300, "note": 74, "velocity": 111, "channel": 0}, {"type": "note_on", "time": 239, "note": 67, "velocity": 109, "channel": 0}, {"type": "note_off", "time": 4869, "note": 67, "velocity": 109, "channel": 0}, {"type": "note_on", "time": 76, "note": 65, "velocity": 108, "channel": 0}, {"type": "note_off", "time": 2631, "note": 65, "velocity": 108, "channel": 0}, {"type": "note_on", "time": 104, "note": 67, "velocity": 108, "channel": 0}, {"type": "note_off", "time": 637, "note": 67, "velocity": 108, "channel": 0}, {"type": "note_on", "time": 79, "note": 65, "velocity": 107, "channel": 0}, {"type": "note_off", "time": 1007, "note": 65, "velocity": 107, "channel": 0}, {"type": "note_on", "time": 113, "note": 62, "velocity": 105, "channel": 0}, {"type": "note_off", "time": 1751, "note": 62, "velocity": 105, "channel": 0}, {"type": "note_on", "time": 408, "note": 63, "velocity": 109, "channel": 0}, {"type": "note_off", "time": 1867, "note": 63, "velocity": 109, "channel": 0}, {"type": "note_on", "time": 628, "note": 55, "velocity": 101, "channel": 0}, {"type": "note_off", "time": 1648, "note": 55, "velocity": 101, "channel": 0}, {"type": "note_on", "time": 76, "note": 60, "velocity": 106, "channel": 0}, {"type": "note_off", "time": 2453, "note": 60, "velocity": 106, "channel": 0}, {"type": "note_on", "time": 174, "note": 63, "velocity": 112, "channel": 0}, {"type": "note_off", "time": 1492, "note": 63, "velocity": 112, "channel": 0}, {"type": "note_on", "time": 102, "note": 62, "velocity": 104, "channel": 0}, {"type": "note_off", "time": 988, "note": 62, "velocity": 104, "channel": 0}, {"type": "note_on", "time": 68, "note": 63, "velocity": 103, "channel": 0}, {"type": "note_off", "time": 702, "note": 63, "velocity": 103, "channel": 0}, {"type": "note_on", "time": 37, "note": 62, "velocity": 104, "channel": 0}, {"type": "note_off", "time": 1457, "note": 62, "velocity": 104, "channel": 0}, {"type": "note_on", "time": 66, "note": 60, "velocity": 107, "channel": 0}, {"type": "note_off", "time": 2215, "note": 60, "velocity": 107, "channel": 0}, {"type": "note_on", "time": 156, "note": 59, "velocity": 93, "channel": 0}, {"type": "note_off", "time": 1513, "note": 59, "velocity": 93, "channel": 0}, {"type": "note_on", "time": 469, "note": 62, "velocity": 110, "channel": 0}, {"type": "note_off", "time": 1404, "note": 62, "velocity": 110, "channel": 0}, {"type": "note_on", "time": 68, "note": 60, "velocity": 105, "channel": 0}, {"type": "note_off", "time": 3019, "note": 60, "velocity": 105, "channel": 0}, {"type": "note_on", "time": 129, "note": 58, "velocity": 105, "channel": 0}, {"type": "note_off", "time": 1826, "note": 58, "velocity": 105, "channel": 0}, {"type": "note_on", "time": 61, "note": 57, "velocity": 97, "channel": 0}, {"type": "note_off", "time": 1922, "note": 57, "velocity": 97, "channel": 0}, {"type": "note_on", "time": 136, "note": 60, "velocity": 108, "channel": 0}, {"type": "note_off", "time": 1495, "note": 60, "velocity": 108, "channel": 0}, {"type": "note_on", "time": 86, "note": 63, "velocity": 105, "channel": 0}, {"type": "note_off", "time": 1035, "note": 63, "velocity": 105, "channel": 0}, {"type": "note_on", "time": 381, "note": 66, "velocity": 99, "channel": 0}, {"type": "note_off", "time": 1265, "note": 66, "velocity": 99, "channel": 0}, {"type": "note_on", "time": 191, "note": 67, "velocity": 111, "channel": 0}, {"type": "note_off", "time": 3680, "note": 67, "velocity": 111, "channel": 0}, {"type": "note_on", "time": 191, "note": 62, "velocity": 103, "channel": 0}, {"type": "note_off", "time": 3412, "note": 62, "velocity": 103, "channel": 0}, {"type": "note_on", "time": 11469, "note": 57, "velocity": 103, "channel": 0}, {"type": "note_off", "time": 770, "note": 57, "velocity": 103, "channel": 0}, {"type": "note_on", "time": 40, "note": 58, "velocity": 105, "channel": 0}, {"type": "note_off", "time": 879, "note": 58, "velocity": 105, "channel": 0}, {"type": "note_on", "time": 54, "note": 59, "velocity": 101, "channel": 0}, {"type": "note_off", "time": 797, "note": 59, "velocity": 101, "channel": 0}, {"type": "note_on", "time": 143, "note": 60, "velocity": 108, "channel": 0}, {"type": "note_off", "time": 497, "note": 60, "velocity": 108, "channel": 0}, {"type": "note_on", "time": 81, "note": 61, "velocity": 115, "channel": 0}, {"type": "note_off", "time": 620, "note": 61, "velocity": 115, "channel": 0}, {"type": "note_on", "time": 129, "note": 62, "velocity": 106, "channel": 0}, {"type": "note_off", "time": 661, "note": 62, "velocity": 106, "channel": 0}, {"type": "note_on", "time": 92, "note": 63, "velocity": 107, "channel": 0}, {"type": "note_off", "time": 421, "note": 63, "velocity": 107, "channel": 0}, {"type": "note_on", "time": 51, "note": 65, "velocity": 104, "channel": 0}, {"type": "note_off", "time": 271, "note": 65, "velocity": 104, "channel": 0}, {"type": "note_on", "time": 23, "note": 67, "velocity": 114, "channel": 0}, {"type": "note_off", "time": 613, "note": 67, "velocity": 114, "channel": 0}, {"type": "note_on", "time": 60, "note": 69, "velocity": 120, "channel": 0}, {"type": "note_off", "time": 501, "note": 69, "velocity": 120, "channel": 0}, {"type": "note_on", "time": 51, "note": 71, "velocity": 119, "channel": 0}, {"type": "note_off", "time": 299, "note": 71, "velocity": 119, "channel": 0}, {"type": "note_on", "time": 23, "note": 72, "velocity": 122, "channel": 0}, {"type": "note_off", "time": 567, "note": 72, "velocity": 122, "channel": 0}, {"type": "note_on", "time": 42, "note": 73, "velocity": 120, "channel": 0}, {"type": "note_off", "time": 871, "note": 73, "velocity": 120, "channel": 0}, {"type": "note_on", "time": 62, "note": 74, "velocity": 118, "channel": 0}, {"type": "note_off", "time": 2185, "note": 74, "velocity": 118, "channel": 0}, {"type": "note_on", "time": 491, "note": 69, "velocity": 123, "channel": 0}, {"type": "note_off", "time": 1690, "note": 69, "velocity": 123, "channel": 0}, {"type": "note_on", "time": 95, "note": 67, "velocity": 120, "channel": 0}, {"type": "note_off", "time": 2433, "note": 67, "velocity": 120, "channel": 0}, {"type": "note_on", "time": 74, "note": 65, "velocity": 97, "channel": 0}, {"type": "note_off", "time": 8452, "note": 65, "velocity": 97, "channel": 0}, {"type": "note_on", "time": 67, "note": 67, "velocity": 115, "channel": 0}, {"type": "note_off", "time": 960, "note": 67, "velocity": 115, "channel": 0}, {"type": "note_on", "time": 34, "note": 69, "velocity": 122, "channel": 0}, {"type": "note_off", "time": 1008, "note": 69, "velocity": 122, "channel": 0}, {"type": "note_on", "time": 327, "note": 70, "velocity": 120, "channel": 0}, {"type": "note_off", "time": 2726, "note": 70, "velocity": 120, "channel": 0}, {"type": "note_on", "time": 7144, "note": 68, "velocity": 122, "channel": 0}, {"type": "note_off", "time": 1813, "note": 68, "velocity": 122, "channel": 0}, {"type": "note_on", "time": 79, "note": 70, "velocity": 120, "channel": 0}, {"type": "note_off", "time": 1082, "note": 70, "velocity": 120, "channel": 0}, {"type": "note_on", "time": 51, "note": 68, "velocity": 122, "channel": 0}, {"type": "note_off", "time": 1063, "note": 68, "velocity": 122, "channel": 0}, {"type": "note_on", "time": 117, "note": 67, "velocity": 120, "channel": 0}, {"type": "note_off", "time": 1748, "note": 67, "velocity": 120, "channel": 0}, {"type": "note_on", "time": 112, "note": 65, "velocity": 112, "channel": 0}, {"type": "note_off", "time": 1757, "note": 65, "velocity": 112, "channel": 0}, {"type": "note_on", "time": 229, "note": 63, "velocity": 109, "channel": 0}, {"type": "note_off", "time": 1565, "note": 63, "velocity": 109, "channel": 0}, {"type": "note_on", "time": 351, "note": 61, "velocity": 108, "channel": 0}, {"type": "note_off", "time": 848, "note": 61, "velocity": 108, "channel": 0}, {"type": "note_on", "time": 103, "note": 62, "velocity": 110, "channel": 0}, {"type": "note_off", "time": 1993, "note": 62, "velocity": 110, "channel": 0}, {"type": "note_on", "time": 448, "note": 58, "velocity": 101, "channel": 0}, {"type": "note_off", "time": 1610, "note": 58, "velocity": 101, "channel": 0}, {"type": "note_on", "time": 311, "note": 53, "velocity": 101, "channel": 0}, {"type": "note_off", "time": 1955, "note": 53, "velocity": 101, "channel": 0}, {"type": "note_on", "time": 334, "note": 51, "velocity": 90, "channel": 0}, {"type": "note_off", "time": 6710, "note": 51, "velocity": 90, "channel": 0}, {"type": "note_on", "time": 230, "note": 53, "velocity": 106, "channel": 0}, {"type": "note_off", "time": 2568, "note": 53, "velocity": 106, "channel": 0}, {"type": "note_on", "time": 268, "note": 49, "velocity": 92, "channel": 0}, {"type": "note_off", "time": 1648, "note": 49, "velocity": 92, "channel": 0}, {"type": "note_on", "time": 76, "note": 50, "velocity": 93, "channel": 0}, {"type": "note_off", "time": 8933, "note": 50, "velocity": 93, "channel": 0}, {"type": "note_on", "time": 237, "note": 53, "velocity": 95, "channel": 0}, {"type": "note_off", "time": 5862, "note": 53, "velocity": 95, "channel": 0}, {"type": "note_on", "time": 226, "note": 58, "velocity": 92, "channel": 0}, {"type": "note_off", "time": 15030, "note": 58, "velocity": 92, "channel": 0}, {"type": "end_of_track", "time": 0}]]}