{"ticks_per_beat": 840, "tracks": [[{"type": "track_name", "name": "Melody", "time": 0}, {"type": "set_tempo", "tempo": 447761, "time": 0}, {"type": "key_signature", "key": "Bb", "time": 0}, {"type": "time_signature", "numerator": 4, "denominator": 4, "clocks_per_click": 24, "notated_32nd_notes_per_beat": 8, "time": 0}, {"type": "note_on", "time": 8167, "note": 55, "velocity": 107, "channel": 0}, {"type": "note_off", "time": 256, "note": 55, "velocity": 107, "channel": 0}, {"type": "note_on", "time": 76, "note": 56, "velocity": 101, "channel": 0}, {"type": "note_off", "time": 451, "note": 56, "velocity": 101, "channel": 0}, {"type": "note_on", "time": 19, "note": 67, "velocity": 91, "channel": 0}, {"type": "note_off", "time": 1458, "note": 67, "velocity": 91, "channel": 0}, {"type": "note_on", "time": 3608, "note": 65, "velocity": 110, "channel": 0}, {"type": "note_off", "time": 352, "note": 65, "velocity": 110, "channel": 0}, {"type": "note_on", "time": 13, "note": 60, "velocity": 107, "channel": 0}, {"type": "note_off", "time": 455, "note": 60, "velocity": 107, "channel": 0}, {"type": "note_on", "time": 30, "note": 56, "velocity": 101, "channel": 0}, {"type": "note_off", "time": 379, "note": 56, "velocity": 101, "channel": 0}, {"type": "note_on", "time": 7, "note": 55, "velocity": 92, "channel": 0}, {"type": "note_on", "time": 153, "note": 56, "velocity": 90, "channel": 0}, {"type": "note_off", "time": 0, "note": 55, "velocity": 92, "channel": 0}, {"type": "note_off", "time": 156, "note": 56, "velocity": 90, "channel": 0}, {"type": "note_on", "time": 42, "note": 55, "velocity": 93, "channel": 0}, {"type": "note_off", "time": 168, "note": 55, "velocity": 93, "channel": 0}, {"type": "note_on", "time": 38, "note": 53, "velocity": 88, "channel": 0}, {"type": "note_off", "time": 206, "note": 53, "velocity": 88, "channel": 0}, {"type": "note_on", "time": 30, "note": 58, "velocity": 101, "channel": 0}, {"type": "note_off", "time": 455, "note": 58, "velocity": 101, "channel": 0}, {"type": "note_on", "time": 114, "note": 53, "velocity": 91, "channel": 0}, {"type": "note_off", "time": 589, "note": 53, "velocity": 91, "channel": 0}, {"type": "note_on", "time": 4734, "note": 61, "velocity": 95, "channel": 0}, {"type": "note_off", "time": 411, "note": 61, "velocity": 95, "channel": 0}, {"type": "note_on", "time": 19, "note": 65, "velocity": 113, "channel": 0}, {"type": "note_off", "time": 333, "note": 65, "velocity": 113, "channel": 0}, {"type": "note_on", "time": 46, "note": 69, "velocity": 107, "channel": 0}, {"type": "note_off", "time": 413, "note": 69, "velocity": 107, "channel": 0}, {"type": "note_on", "time": 18, "note": 72, "velocity": 107, "channel": 0}, {"type": "note_off", "time": 509, "note": 72, "velocity": 107, "channel": 0}, {"type": "note_on", "time": 5, "note": 73, "velocity": 100, "channel": 0}, {"type": "note_off", "time": 409, "note": 73, "velocity": 100, "channel": 0}, {"type": "note_on", "time": 0, "note": 69, "velocity": 95, "channel": 0}, {"type": "note_off", "time": 993, "note": 69, "velocity": 95, "channel": 0}, {"type": "note_on", "time": 2798, "note": 61, "velocity": 90, "channel": 0}, {"type": "note_off", "time": 74, "note": 61, "velocity": 90, "channel": 0}, {"type": "note_on", "time": 5, "note": 62, "velocity": 102, "channel": 0}, {"type": "note_off", "time": 53, "note": 62, "velocity": 102, "channel": 0}, {"type": "note_on", "time": 9, "note": 63, "velocity": 106, "channel": 0}, {"type": "note_off", "time": 221, "note": 63, "velocity": 106, "channel": 0}, {"type": "note_on", "time": 32, "note": 65, "velocity": 110, "channel": 0}, {"type": "note_off", "time": 332, "note": 65, "velocity": 110, "channel": 0}, {"type": "note_on", "time": 43, "note": 61, "velocity": 117, "channel": 0}, {"type": "note_off", "time": 385, "note": 61, "velocity": 117, "channel": 0}, {"type": "note_on", "time": 107, "note": 57, "velocity": 101, "channel": 0}, {"type": "note_off", "time": 179, "note": 57, "velocity": 101, "channel": 0}, {"type": "note_on", "time": 0, "note": 60, "velocity": 104, "channel": 0}, {"type": "note_off", "time": 514, "note": 60, "velocity": 104, "channel": 0}, {"type": "note_on", "time": 89, "note": 56, "velocity": 103, "channel": 0}, {"type": "note_off", "time": 434, "note": 56, "velocity": 103, "channel": 0}, {"type": "note_on", "time": 50, "note": 57, "velocity": 94, "channel": 0}, {"type": "note_off", "time": 130, "note": 57, "velocity": 94, "channel": 0}, {"type": "note_on", "time": 23, "note": 56, "velocity": 104, "channel": 0}, {"type": "note_off", "time": 157, "note": 56, "velocity": 104, "channel": 0}, {"type": "note_on", "time": 84, "note": 53, "velocity": 99, "channel": 0}, {"type": "note_off", "time": 242, "note": 53, "velocity": 99, "channel": 0}, {"type": "note_on", "time": 8, "note": 56, "velocity": 108, "channel": 0}, {"type": "note_off", "time": 477, "note": 56, "velocity": 108, "channel": 0}, {"type": "note_on", "time": 4639, "note": 55, "velocity": 104, "channel": 0}, {"type": "note_off", "time": 155, "note": 55, "velocity": 104, "channel": 0}, {"type": "note_on", "time": 2, "note": 59, "velocity": 96, "channel": 0}, {"type": "note_off", "time": 220, "note": 59, "velocity": 96, "channel": 0}, {"type": "note_on", "time": 49, "note": 63, "velocity": 97, "channel": 0}, {"type": "note_off", "time": 84, "note": 63, "velocity": 97, "channel": 0}, {"type": "note_on", "time": 16, "note": 67, "velocity": 114, "channel": 0}, {"type": "note_off", "time": 212, "note": 67, "velocity": 114, "channel": 0}, {"type": "note_on", "time": 27, "note": 63, "velocity": 109, "channel": 0}, {"type": "note_off", "time": 206, "note": 63, "velocity": 109, "channel": 0}, {"type": "note_on", "time": 10, "note": 60, "velocity": 100, "channel": 0}, {"type": "note_off", "time": 168, "note": 60, "velocity": 100, "channel": 0}, {"type": "note_on", "time": 13, "note": 62, "velocity": 107, "channel": 0}, {"type": "note_off", "time": 179, "note": 62, "velocity": 107, "channel": 0}, {"type": "note_on", "time": 21, "note": 65, "velocity": 112, "channel": 0}, {"type": "note_off", "time": 206, "note": 65, "velocity": 112, "channel": 0}, {"type": "note_on", "time": 21, "note": 64, "velocity": 118, "channel": 0}, {"type": "note_off", "time": 171, "note": 64, "velocity": 118, "channel": 0}, {"type": "note_on", "time": 65, "note": 63, "velocity": 117, "channel": 0}, {"type": "note_off", "time": 117, "note": 63, "velocity": 117, "channel": 0}, {"type": "note_on", "time": 29, "note": 62, "velocity": 118, "channel": 0}, {"type": "note_off", "time": 212, "note": 62, "velocity": 118, "channel": 0}, {"type": "note_on", "time": 46, "note": 60, "velocity": 108, "channel": 0}, {"type": "note_off", "time": 201, "note": 60, "velocity": 108, "channel": 0}, {"type": "note_on", "time": 43, "note": 55, "velocity": 102, "channel": 0}, {"type": "note_off", "time": 157, "note": 55, "velocity": 102, "channel": 0}, {"type": "note_on", "time": 24, "note": 59, "velocity": 92, "channel": 0}, {"type": "note_off", "time": 187, "note": 59, "velocity": 92, "channel": 0}, {"type": "note_on", "time": 29, "note": 62, "velocity": 111, "channel": 0}, {"type": "note_off", "time": 155, "note": 62, "velocity": 111, "channel": 0}, {"type": "note_on", "time": 16, "note": 60, "velocity": 106, "channel": 0}, {"type": "note_off", "time": 315, "note": 60, "velocity": 106, "channel": 0}, {"type": "note_on", "time": 29, "note": 59, "velocity": 96, "channel": 0}, {"type": "note_off", "time": 106, "note": 59, "velocity": 96, "channel": 0}, {"type": "note_on", "time": 59, "note": 58, "velocity": 93, "channel": 0}, {"type": "note_off", "time": 92, "note": 58, "velocity": 93, "channel": 0}, {"type": "note_on", "time": 57, "note": 55, "velocity": 101, "channel": 0}, {"type": "note_off", "time": 119, "note": 55, "velocity": 101, "channel": 0}, {"type": "note_on", "time": 32, "note": 57, "velocity": 104, "channel": 0}, {"type": "note_off", "time": 176, "note": 57, "velocity": 104, "channel": 0}, {"type": "note_on", "time": 49, "note": 55, "velocity": 103, "channel": 0}, {"type": "note_off", "time": 168, "note": 55, "velocity": 103, "channel": 0}, {"type": "note_on", "time": 43, "note": 53, "velocity": 99, "channel": 0}, {"type": "note_off", "time": 168, "note": 53, "velocity": 99, "channel": 0}, {"type": "note_on", "time": 21, "note": 52, "velocity": 99, "channel": 0}, {"type": "note_off", "time": 152, "note": 52, "velocity": 99, "channel": 0}, {"type": "note_on", "time": 66, "note": 48, "velocity": 92, "channel": 0}, {"type": "note_off", "time": 195, "note": 48, "velocity": 92, "channel": 0}, {"type": "note_on", "time": 43, "note": 54, "velocity": 94, "channel": 0}, {"type": "note_off", "time": 92, "note": 54, "velocity": 94, "channel": 0}, {"type": "note_on", "time": 13, "note": 55, "velocity": 102, "channel": 0}, {"type": "note_off", "time": 105, "note": 55, "velocity": 102, "channel": 0}, {"type": "note_on", "time": 42, "note": 58, "velocity": 97, "channel": 0}, {"type": "note_off", "time": 101, "note": 58, "velocity": 97, "channel": 0}, {"type": "note_on", "time": 2, "note": 62, "velocity": 106, "channel": 0}, {"type": "note_off", "time": 95, "note": 62, "velocity": 106, "channel": 0}, {"type": "note_on", "time": 33, "note": 65, "velocity": 119, "channel": 0}, {"type": "note_off", "time": 151, "note": 65, "velocity": 119, "channel": 0}, {"type": "note_on", "time": 84, "note": 61, "velocity": 113, "channel": 0}, {"type": "note_off", "time": 183, "note": 61, "velocity": 113, "channel": 0}, {"type": "note_on", "time": 95, "note": 57, "velocity": 98, "channel": 0}, {"type": "note_off", "time": 119, "note": 57, "velocity": 98, "channel": 0}, {"type": "note_on", "time": 20, "note": 55, "velocity": 103, "channel": 0}, {"type": "note_off", "time": 126, "note": 55, "velocity": 103, "channel": 0}, {"type": "note_on", "time": 49, "note": 48, "velocity": 114, "channel": 0}, {"type": "note_off", "time": 210, "note": 48, "velocity": 114, "channel": 0}, {"type": "note_on", "time": 68, "note": 56, "velocity": 106, "channel": 0}, {"type": "note_off", "time": 196, "note": 56, "velocity": 106, "channel": 0}, {"type": "note_on", "time": 25, "note": 55, "velocity": 101, "channel": 0}, {"type": "note_off", "time": 147, "note": 55, "velocity": 101, "channel": 0}, {"type": "note_on", "time": 40, "note": 53, "velocity": 98, "channel": 0}, {"type": "note_off", "time": 117, "note": 53, "velocity": 98, "channel": 0}, {"type": "note_on", "time": 43, "note": 55, "velocity": 99, "channel": 0}, {"type": "note_off", "time": 329, "note": 55, "velocity": 99, "channel": 0}, {"type": "note_on", "time": 3642, "note": 46, "velocity": 115, "channel": 0}, {"type": "note_off", "time": 532, "note": 46, "velocity": 115, "channel": 0}, {"type": "note_on", "time": 19, "note": 56, "velocity": 109, "channel": 0}, {"type": "note_off", "time": 520, "note": 56, "velocity": 109, "channel": 0}, {"type": "note_on", "time": 35, "note": 60, "velocity": 107, "channel": 0}, {"type": "note_off", "time": 536, "note": 60, "velocity": 107, "channel": 0}, {"type": "note_on", "time": 106, "note": 67, "velocity": 97, "channel": 0}, {"type": "note_off", "time": 1698, "note": 67, "velocity": 97, "channel": 0}, {"type": "note_on", "time": 3147, "note": 65, "velocity": 108, "channel": 0}, {"type": "note_off", "time": 313, "note": 65, "velocity": 108, "channel": 0}, {"type": "note_on", "time": 2108, "note": 62, "velocity": 105, "channel": 0}, {"type": "note_off", "time": 103, "note": 62, "velocity": 105, "channel": 0}, {"type": "note_on", "time": 180, "note": 63, "velocity": 127, "channel": 0}, {"type": "note_off", "time": 612, "note": 63, "velocity": 127, "channel": 0}, {"type": "note_on", "time": 28, "note": 62, "velocity": 106, "channel": 0}, {"type": "note_off", "time": 118, "note": 62, "velocity": 106, "channel": 0}, {"type": "note_on", "time": 36, "note": 63, "velocity": 122, "channel": 0}, {"type": "note_off", "time": 656, "note": 63, "velocity": 122, "channel": 0}, {"type": "note_on", "time": 9, "note": 62, "velocity": 106, "channel": 0}, {"type": "note_off", "time": 185, "note": 62, "velocity": 106, "channel": 0}, {"type": "note_on", "time": 54, "note": 63, "velocity": 119, "channel": 0}, {"type": "note_off", "time": 618, "note": 63, "velocity": 119, "channel": 0}, {"type": "note_on", "time": 12, "note": 62, "velocity": 100, "channel": 0}, {"type": "note_off", "time": 170, "note": 62, "velocity": 100, "channel": 0}, {"type": "note_on", "time": 32, "note": 63, "velocity": 122, "channel": 0}, {"type": "note_off", "time": 590, "note": 63, "velocity": 122, "channel": 0}, {"type": "note_on", "time": 35, "note": 62, "velocity": 110, "channel": 0}, {"type": "note_off", "time": 153, "note": 62, "velocity": 110, "channel": 0}, {"type": "note_on", "time": 34, "note": 63, "velocity": 122, "channel": 0}, {"type": "note_off", "time": 637, "note": 63, "velocity": 122, "channel": 0}, {"type": "note_on", "time": 34, "note": 62, "velocity": 104, "channel": 0}, {"type": "note_off", "time": 189, "note": 62, "velocity": 104, "channel": 0}, {"type": "note_on", "time": 31, "note": 63, "velocity": 122, "channel": 0}, {"type": "note_off", "time": 555, "note": 63, "velocity": 122, "channel": 0}, {"type": "note_on", "time": 8, "note": 61, "velocity": 108, "channel": 0}, {"type": "note_off", "time": 310, "note": 61, "velocity": 108, "channel": 0}, {"type": "note_on", "time": 46, "note": 58, "velocity": 93, "channel": 0}, {"type": "note_off", "time": 402, "note": 58, "velocity": 93, "channel": 0}, {"type": "note_on", "time": 19, "note": 56, "velocity": 90, "channel": 0}, {"type": "note_off", "time": 182, "note": 56, "velocity": 90, "channel": 0}, {"type": "note_on", "time": 57, "note": 61, "velocity": 107, "channel": 0}, {"type": "note_off", "time": 707, "note": 61, "velocity": 107, "channel": 0}, {"type": "note_on", "time": 100, "note": 55, "velocity": 96, "channel": 0}, {"type": "note_off", "time": 724, "note": 55, "velocity": 96, "channel": 0}, {"type": "note_on", "time": 138, "note": 60, "velocity": 109, "channel": 0}, {"type": "note_off", "time": 217, "note": 60, "velocity": 109, "channel": 0}, {"type": "note_on", "time": 4849, "note": 68, "velocity": 108, "channel": 0}, {"type": "note_off", "time": 143, "note": 68, "velocity": 108, "channel": 0}, {"type": "note_on", "time": 34, "note": 70, "velocity": 85, "channel": 0}, {"type": "note_off", "time": 97, "note": 70, "velocity": 85, "channel": 0}, {"type": "note_on", "time": 26, "note": 68, "velocity": 103, "channel": 0}, {"type": "note_off", "time": 164, "note": 68, "velocity": 103, "channel": 0}, {"type": "note_on", "time": 22, "note": 65, "velocity": 105, "channel": 0}, {"type": "note_off", "time": 126, "note": 65, "velocity": 105, "channel": 0}, {"type": "note_on", "time": 268, "note": 68, "velocity": 115, "channel": 0}, {"type": "note_off", "time": 493, "note": 68, "velocity": 115, "channel": 0}, {"type": "note_on", "time": 42, "note": 64, "velocity": 117, "channel": 0}, {"type": "note_off", "time": 476, "note": 64, "velocity": 117, "channel": 0}, {"type": "note_on", "time": 37, "note": 64, "velocity": 118, "channel": 0}, {"type": "note_off", "time": 409, "note": 64, "velocity": 118, "channel": 0}, {"type": "note_on", "time": 3342, "note": 62, "velocity": 122, "channel": 0}, {"type": "note_off", "time": 288, "note": 62, "velocity": 122, "channel": 0}, {"type": "note_on", "time": 51, "note": 63, "velocity": 126, "channel": 0}, {"type": "note_off", "time": 313, "note": 63, "velocity": 126, "channel": 0}, {"type": "note_on", "time": 5, "note": 55, "velocity": 95, "channel": 0}, {"type": "note_off", "time": 280, "note": 55, "velocity": 95, "channel": 0}, {"type": "note_on", "time": 32, "note": 59, "velocity": 95, "channel": 0}, {"type": "note_off", "time": 343, "note": 59, "velocity": 95, "channel": 0}, {"type": "note_on", "time": 59, "note": 67, "velocity": 106, "channel": 0}, {"type": "note_off", "time": 394, "note": 67, "velocity": 106, "channel": 0}, {"type": "note_on", "time": 43, "note": 71, "velocity": 107, "channel": 0}, {"type": "note_off", "time": 353, "note": 71, "velocity": 107, "channel": 0}, {"type": "note_on", "time": 27, "note": 74, "velocity": 102, "channel": 0}, {"type": "note_off", "time": 1698, "note": 74, "velocity": 102, "channel": 0}, {"type": "note_on", "time": 2823, "note": 60, "velocity": 113, "channel": 0}, {"type": "note_off", "time": 258, "note": 60, "velocity": 113, "channel": 0}, {"type": "note_on", "time": 29, "note": 65, "velocity": 112, "channel": 0}, {"type": "note_off", "time": 285, "note": 65, "velocity": 112, "channel": 0}, {"type": "note_on", "time": 122, "note": 68, "velocity": 117, "channel": 0}, {"type": "note_off", "time": 345, "note": 68, "velocity": 117, "channel": 0}, {"type": "note_on", "time": 59, "note": 72, "velocity": 107, "channel": 0}, {"type": "note_off", "time": 392, "note": 72, "velocity": 107, "channel": 0}, {"type": "note_on", "time": 168, "note": 76, "velocity": 125, "channel": 0}, {"type": "note_off", "time": 1206, "note": 76, "velocity": 125, "channel": 0}, {"type": "note_on", "time": 2252, "note": 72, "velocity": 113, "channel": 0}, {"type": "note_off", "time": 222, "note": 72, "velocity": 113, "channel": 0}, {"type": "note_on", "time": 26, "note": 68, "velocity": 115, "channel": 0}, {"type": "note_off", "time": 179, "note": 68, "velocity": 115, "channel": 0}, {"type": "note_on", "time": 61, "note": 67, "velocity": 102, "channel": 0}, {"type": "note_off", "time": 134, "note": 67, "velocity": 102, "channel": 0}, {"type": "note_on", "time": 76, "note": 65, "velocity": 98, "channel": 0}, {"type": "note_off", "time": 137, "note": 65, "velocity": 98, "channel": 0}, {"type": "note_on", "time": 47, "note": 70, "velocity": 109, "channel": 0}, {"type": "note_off", "time": 145, "note": 70, "velocity": 109, "channel": 0}, {"type": "note_on", "time": 28, "note": 69, "velocity": 106, "channel": 0}, {"type": "note_off", "time": 158, "note": 69, "velocity": 106, "channel": 0}, {"type": "note_on", "time": 40, "note": 68, "velocity": 105, "channel": 0}, {"type": "note_off", "time": 160, "note": 68, "velocity": 105, "channel": 0}, {"type": "note_on", "time": 36, "note": 64, "velocity": 102, "channel": 0}, {"type": "note_off", "time": 149, "note": 64, "velocity": 102, "channel": 0}, {"type": "note_on", "time": 15, "note": 67, "velocity": 111, "channel": 0}, {"type": "note_off", "time": 185, "note": 67, "velocity": 111, "channel": 0}, {"type": "note_on", "time": 53, "note": 64, "velocity": 112, "channel": 0}, {"type": "note_off", "time": 189, "note": 64, "velocity": 112, "channel": 0}, {"type": "note_on", "time": 36, "note": 65, "velocity": 115, "channel": 0}, {"type": "note_off", "time": 179, "note": 65, "velocity": 115, "channel": 0}, {"type": "note_on", "time": 11, "note": 63, "velocity": 124, "channel": 0}, {"type": "note_off", "time": 208, "note": 63, "velocity": 124, "channel": 0}, {"type": "note_on", "time": 24, "note": 62, "velocity": 116, "channel": 0}, {"type": "note_off", "time": 172, "note": 62, "velocity": 116, "channel": 0}, {"type": "note_on", "time": 59, "note": 60, "velocity": 111, "channel": 0}, {"type": "note_off", "time": 155, "note": 60, "velocity": 111, "channel": 0}, {"type": "note_on", "time": 40, "note": 58, "velocity": 93, "channel": 0}, {"type": "note_off", "time": 156, "note": 58, "velocity": 93, "channel": 0}, {"type": "note_on", "time": 72, "note": 55, "velocity": 97, "channel": 0}, {"type": "note_off", "time": 155, "note": 55, "velocity": 97, "channel": 0}, {"type": "note_on", "time": 36, "note": 56, "velocity": 108, "channel": 0}, {"type": "note_off", "time": 195, "note": 56, "velocity": 108, "channel": 0}, {"type": "note_on", "time": 42, "note": 55, "velocity": 101, "channel": 0}, {"type": "note_off", "time": 172, "note": 55, "velocity": 101, "channel": 0}, {"type": "note_on", "time": 36, "note": 53, "velocity": 109, "channel": 0}, {"type": "note_off", "time": 162, "note": 53, "velocity": 109, "channel": 0}, {"type": "note_on", "time": 22, "note": 52, "velocity": 98, "channel": 0}, {"type": "note_off", "time": 120, "note": 52, "velocity": 98, "channel": 0}, {"type": "note_on", "time": 21, "note": 55, "velocity": 105, "channel": 0}, {"type": "note_off", "time": 174, "note": 55, "velocity": 105, "channel": 0}, {"type": "note_on", "time": 65, "note": 53, "velocity": 97, "channel": 0}, {"type": "note_off", "time": 164, "note": 53, "velocity": 97, "channel": 0}, {"type": "note_on", "time": 47, "note": 48, "velocity": 90, "channel": 0}, {"type": "note_off", "time": 147, "note": 48, "velocity": 90, "channel": 0}, {"type": "note_on", "time": 29, "note": 51, "velocity": 105, "channel": 0}, {"type": "note_off", "time": 142, "note": 51, "velocity": 105, "channel": 0}, {"type": "note_on", "time": 57, "note": 50, "velocity": 100, "channel": 0}, {"type": "note_off", "time": 199, "note": 50, "velocity": 100, "channel": 0}, {"type": "note_on", "time": 67, "note": 48, "velocity": 100, "channel": 0}, {"type": "note_off", "time": 254, "note": 48, "velocity": 100, "channel": 0}, {"type": "note_on", "time": 26, "note": 46, "velocity": 98, "channel": 0}, {"type": "note_off", "time": 273, "note": 46, "velocity": 98, "channel": 0}, {"type": "note_on", "time": 27, "note": 45, "velocity": 107, "channel": 0}, {"type": "note_off", "time": 252, "note": 45, "velocity": 107, "channel": 0}, {"type": "note_on", "time": 1336, "note": 55, "velocity": 96, "channel": 0}, {"type": "note_off", "time": 1470, "note": 55, "velocity": 96, "channel": 0}, {"type": "note_on", "time": 27, "note": 53, "velocity": 102, "channel": 0}, {"type": "note_off", "time": 430, "note": 53, "velocity": 102, "channel": 0}, {"type": "note_on", "time": 54, "note": 48, "velocity": 95, "channel": 0}, {"type": "note_off", "time": 500, "note": 48, "velocity": 95, "channel": 0}, {"type": "note_on", "time": 46, "note": 44, "velocity": 109, "channel": 0}, {"type": "note_off", "time": 1592, "note": 44, "velocity": 109, "channel": 0}, {"type": "note_on", "time": 3857, "note": 49, "velocity": 88, "channel": 0}, {"type": "note_off", "time": 266, "note": 49, "velocity": 88, "channel": 0}, {"type": "note_on", "time": 32, "note": 51, "velocity": 100, "channel": 0}, {"type": "note_off", "time": 220, "note": 51, "velocity": 100, "channel": 0}, {"type": "note_on", "time": 57, "note": 53, "velocity": 108, "channel": 0}, {"type": "note_off", "time": 250, "note": 53, "velocity": 108, "channel": 0}, {"type": "note_on", "time": 78, "note": 55, "velocity": 102, "channel": 0}, {"type": "note_off", "time": 242, "note": 55, "velocity": 102, "channel": 0}, {"type": "note_on", "time": 46, "note": 57, "velocity": 98, "channel": 0}, {"type": "note_off", "time": 225, "note": 57, "velocity": 98, "channel": 0}, {"type": "note_on", "time": 24, "note": 58, "velocity": 95, "channel": 0}, {"type": "note_off", "time": 209, "note": 58, "velocity": 95, "channel": 0}, {"type": "note_on", "time": 43, "note": 60, "velocity": 109, "channel": 0}, {"type": "note_off", "time": 389, "note": 60, "velocity": 109, "channel": 0}, {"type": "note_on", "time": 21, "note": 61, "velocity": 116, "channel": 0}, {"type": "note_off", "time": 136, "note": 61, "velocity": 116, "channel": 0}, {"type": "note_on", "time": 29, "note": 63, "velocity": 115, "channel": 0}, {"type": "note_off", "time": 283, "note": 63, "velocity": 115, "channel": 0}, {"type": "note_on", "time": 62, "note": 65, "velocity": 108, "channel": 0}, {"type": "note_off", "time": 201, "note": 65, "velocity": 108, "channel": 0}, {"type": "note_on", "time": 40, "note": 65, "velocity": 106, "channel": 0}, {"type": "note_off", "time": 196, "note": 65, "velocity": 106, "channel": 0}, {"type": "note_on", "time": 54, "note": 65, "velocity": 103, "channel": 0}, {"type": "note_off", "time": 179, "note": 65, "velocity": 103, "channel": 0}, {"type": "note_on", "time": 59, "note": 67, "velocity": 107, "channel": 0}, {"type": "note_off", "time": 234, "note": 67, "velocity": 107, "channel": 0}, {"type": "note_on", "time": 108, "note": 67, "velocity": 106, "channel": 0}, {"type": "note_off", "time": 206, "note": 67, "velocity": 106, "channel": 0}, {"type": "note_on", "time": 73, "note": 67, "velocity": 107, "channel": 0}, {"type": "note_off", "time": 196, "note": 67, "velocity": 107, "channel": 0}, {"type": "note_on", "time": 46, "note": 69, "velocity": 102, "channel": 0}, {"type": "note_off", "time": 223, "note": 69, "velocity": 102, "channel": 0}, {"type": "note_on", "time": 1807, "note": 56, "velocity": 95, "channel": 0}, {"type": "note_off", "time": 220, "note": 56, "velocity": 95, "channel": 0}, {"type": "note_on", "time": 43, "note": 58, "velocity": 87, "channel": 0}, {"type": "note_off", "time": 187, "note": 58, "velocity": 87, "channel": 0}, {"type": "note_on", "time": 29, "note": 60, "velocity": 108, "channel": 0}, {"type": "note_off", "time": 258, "note": 60, "velocity": 108, "channel": 0}, {"type": "note_on", "time": 38, "note": 62, "velocity": 114, "channel": 0}, {"type": "note_off", "time": 220, "note": 62, "velocity": 114, "channel": 0}, {"type": "note_on", "time": 59, "note": 64, "velocity": 114, "channel": 0}, {"type": "note_off", "time": 231, "note": 64, "velocity": 114, "channel": 0}, {"type": "note_on", "time": 68, "note": 65, "velocity": 104, "channel": 0}, {"type": "note_off", "time": 196, "note": 65, "velocity": 104, "channel": 0}, {"type": "note_on", "time": 103, "note": 67, "velocity": 107, "channel": 0}, {"type": "note_off", "time": 261, "note": 67, "velocity": 107, "channel": 0}, {"type": "note_on", "time": 76, "note": 68, "velocity": 113, "channel": 0}, {"type": "note_off", "time": 185, "note": 68, "velocity": 113, "channel": 0}, {"type": "note_on", "time": 49, "note": 68, "velocity": 109, "channel": 0}, {"type": "note_off", "time": 247, "note": 68, "velocity": 109, "channel": 0}, {"type": "note_on", "time": 54, "note": 68, "velocity": 109, "channel": 0}, {"type": "note_off", "time": 223, "note": 68, "velocity": 109, "channel": 0}, {"type": "note_on", "time": 43, "note": 68, "velocity": 108, "channel": 0}, {"type": "note_off", "time": 239, "note": 68, "velocity": 108, "channel": 0}, {"type": "note_on", "time": 62, "note": 68, "velocity": 106, "channel": 0}, {"type": "note_off", "time": 253, "note": 68, "velocity": 106, "channel": 0}, {"type": "note_on", "time": 46, "note": 68, "velocity": 109, "channel": 0}, {"type": "note_off", "time": 245, "note": 68, "velocity": 109, "channel": 0}, {"type": "note_on", "time": 61, "note": 64, "velocity": 109, "channel": 0}, {"type": "note_off", "time": 375, "note": 64, "velocity": 109, "channel": 0}, {"type": "note_on", "time": 4351, "note": 61, "velocity": 123, "channel": 0}, {"type": "note_off", "time": 204, "note": 61, "velocity": 123, "channel": 0}, {"type": "note_on", "time": 10, "note": 62, "velocity": 119, "channel": 0}, {"type": "note_off", "time": 250, "note": 62, "velocity": 119, "channel": 0}, {"type": "note_on", "time": 778, "note": 58, "velocity": 103, "channel": 0}, {"type": "note_off", "time": 590, "note": 58, "velocity": 103, "channel": 0}, {"type": "note_on", "time": 533, "note": 55, "velocity": 102, "channel": 0}, {"type": "note_off", "time": 454, "note": 55, "velocity": 102, "channel": 0}, {"type": "note_on", "time": 19, "note": 51, "velocity": 101, "channel": 0}, {"type": "note_off", "time": 558, "note": 51, "velocity": 101, "channel": 0}, {"type": "note_on", "time": 59, "note": 51, "velocity": 106, "channel": 0}, {"type": "note_off", "time": 245, "note": 51, "velocity": 106, "channel": 0}, {"type": "note_on", "time": 704, "note": 60, "velocity": 94, "channel": 0}, {"type": "note_off", "time": 330, "note": 60, "velocity": 94, "channel": 0}, {"type": "note_on", "time": 21, "note": 61, "velocity": 100, "channel": 0}, {"type": "note_off", "time": 174, "note": 61, "velocity": 100, "channel": 0}, {"type": "note_on", "time": 33, "note": 60, "velocity": 112, "channel": 0}, {"type": "note_off", "time": 192, "note": 60, "velocity": 112, "channel": 0}, {"type": "note_on", "time": 36, "note": 57, "velocity": 103, "channel": 0}, {"type": "note_off", "time": 471, "note": 57, "velocity": 103, "channel": 0}, {"type": "note_on", "time": 73, "note": 53, "velocity": 103, "channel": 0}, {"type": "note_off", "time": 453, "note": 53, "velocity": 103, "channel": 0}, {"type": "note_on", "time": 55, "note": 50, "velocity": 98, "channel": 0}, {"type": "note_off", "time": 667, "note": 50, "velocity": 98, "channel": 0}, {"type": "note_on", "time": 4842, "note": 46, "velocity": 115, "channel": 0}, {"type": "note_off", "time": 214, "note": 46, "velocity": 115, "channel": 0}, {"type": "note_on", "time": 34, "note": 53, "velocity": 106, "channel": 0}, {"type": "note_off", "time": 266, "note": 53, "velocity": 106, "channel": 0}, {"type": "note_on", "time": 29, "note": 55, "velocity": 105, "channel": 0}, {"type": "note_off", "time": 106, "note": 55, "velocity": 105, "channel": 0}, {"type": "note_on", "time": 21, "note": 56, "velocity": 105, "channel": 0}, {"type": "note_off", "time": 166, "note": 56, "velocity": 105, "channel": 0}, {"type": "note_on", "time": 10, "note": 58, "velocity": 101, "channel": 0}, {"type": "note_off", "time": 152, "note": 58, "velocity": 101, "channel": 0}, {"type": "note_on", "time": 10, "note": 60, "velocity": 100, "channel": 0}, {"type": "note_off", "time": 157, "note": 60, "velocity": 100, "channel": 0}, {"type": "note_on", "time": 27, "note": 62, "velocity": 97, "channel": 0}, {"type": "note_off", "time": 125, "note": 62, "velocity": 97, "channel": 0}, {"type": "note_on", "time": 10, "note": 64, "velocity": 101, "channel": 0}, {"type": "note_off", "time": 114, "note": 64, "velocity": 101, "channel": 0}, {"type": "note_on", "time": 16, "note": 67, "velocity": 110, "channel": 0}, {"type": "note_off", "time": 236, "note": 67, "velocity": 110, "channel": 0}, {"type": "note_on", "time": 0, "note": 64, "velocity": 94, "channel": 0}, {"type": "note_off", "time": 231, "note": 64, "velocity": 94, "channel": 0}, {"type": "note_on", "time": 25, "note": 65, "velocity": 96, "channel": 0}, {"type": "note_off", "time": 104, "note": 65, "velocity": 96, "channel": 0}, {"type": "note_on", "time": 54, "note": 67, "velocity": 110, "channel": 0}, {"type": "note_off", "time": 104, "note": 67, "velocity": 110, "channel": 0}, {"type": "note_on", "time": 47, "note": 68, "velocity": 116, "channel": 0}, {"type": "note_off", "time": 174, "note": 68, "velocity": 116, "channel": 0}, {"type": "note_on", "time": 87, "note": 63, "velocity": 98, "channel": 0}, {"type": "note_off", "time": 152, "note": 63, "velocity": 98, "channel": 0}, {"type": "note_on", "time": 29, "note": 64, "velocity": 113, "channel": 0}, {"type": "note_off", "time": 214, "note": 64, "velocity": 113, "channel": 0}, {"type": "note_on", "time": 11, "note": 67, "velocity": 108, "channel": 0}, {"type": "note_off", "time": 220, "note": 67, "velocity": 108, "channel": 0}, {"type": "note_on", "time": 22, "note": 65, "velocity": 108, "channel": 0}, {"type": "note_off", "time": 178, "note": 65, "velocity": 108, "channel": 0}, {"type": "note_on", "time": 11, "note": 63, "velocity": 119, "channel": 0}, {"type": "note_off", "time": 195, "note": 63, "velocity": 119, "channel": 0}, {"type": "note_on", "time": 9, "note": 62, "velocity": 119, "channel": 0}, {"type": "note_off", "time": 207, "note": 62, "velocity": 119, "channel": 0}, {"type": "note_on", "time": 21, "note": 60, "velocity": 108, "channel": 0}, {"type": "note_off", "time": 273, "note": 60, "velocity": 108, "channel": 0}, {"type": "note_on", "time": 19, "note": 58, "velocity": 99, "channel": 0}, {"type": "note_off", "time": 142, "note": 58, "velocity": 99, "channel": 0}, {"type": "note_on", "time": 40, "note": 56, "velocity": 104, "channel": 0}, {"type": "note_off", "time": 181, "note": 56, "velocity": 104, "channel": 0}, {"type": "note_on", "time": 21, "note": 53, "velocity": 97, "channel": 0}, {"type": "note_off", "time": 130, "note": 53, "velocity": 97, "channel": 0}, {"type": "note_on", "time": 10, "note": 54, "velocity": 98, "channel": 0}, {"type": "note_off", "time": 119, "note": 54, "velocity": 98, "channel": 0}, {"type": "note_on", "time": 2088, "note": 64, "velocity": 125, "channel": 0}, {"type": "note_off", "time": 261, "note": 64, "velocity": 125, "channel": 0}, {"type": "note_on", "time": 19, "note": 65, "velocity": 113, "channel": 0}, {"type": "note_off", "time": 370, "note": 65, "velocity": 113, "channel": 0}, {"type": "note_on", "time": 59, "note": 63, "velocity": 123, "channel": 0}, {"type": "note_off", "time": 255, "note": 63, "velocity": 123, "channel": 0}, {"type": "note_on", "time": 38, "note": 61, "velocity": 113, "channel": 0}, {"type": "note_off", "time": 321, "note": 61, "velocity": 113, "channel": 0}, {"type": "note_on", "time": 29, "note": 56, "velocity": 109, "channel": 0}, {"type": "note_off", "time": 424, "note": 56, "velocity": 109, "channel": 0}, {"type": "note_on", "time": 3035, "note": 69, "velocity": 121, "channel": 0}, {"type": "note_off", "time": 108, "note": 69, "velocity": 121, "channel": 0}, {"type": "note_on", "time": 29, "note": 70, "velocity": 103, "channel": 0}, {"type": "note_off", "time": 1519, "note": 70, "velocity": 103, "channel": 0}, {"type": "note_on", "time": 43, "note": 70, "velocity": 103, "channel": 0}, {"type": "note_off", "time": 220, "note": 70, "velocity": 103, "channel": 0}, {"type": "note_on", "time": 21, "note": 66, "velocity": 107, "channel": 0}, {"type": "note_off", "time": 166, "note": 66, "velocity": 107, "channel": 0}, {"type": "note_on", "time": 8, "note": 67, "velocity": 108, "channel": 0}, {"type": "note_off", "time": 117, "note": 67, "velocity": 108, "channel": 0}, {"type": "note_on", "time": 40, "note": 66, "velocity": 111, "channel": 0}, {"type": "note_off", "time": 130, "note": 66, "velocity": 111, "channel": 0}, {"type": "note_on", "time": 27, "note": 62, "velocity": 116, "channel": 0}, {"type": "note_off", "time": 149, "note": 62, "velocity": 116, "channel": 0}, {"type": "note_on", "time": 46, "note": 59, "velocity": 99, "channel": 0}, {"type": "note_off", "time": 160, "note": 59, "velocity": 99, "channel": 0}, {"type": "note_on", "time": 24, "note": 58, "velocity": 99, "channel": 0}, {"type": "note_off", "time": 187, "note": 58, "velocity": 99, "channel": 0}, {"type": "note_on", "time": 54, "note": 57, "velocity": 101, "channel": 0}, {"type": "note_off", "time": 157, "note": 57, "velocity": 101, "channel": 0}, {"type": "note_on", "time": 51, "note": 56, "velocity": 107, "channel": 0}, {"type": "note_off", "time": 166, "note": 56, "velocity": 107, "channel": 0}, {"type": "note_on", "time": 10, "note": 54, "velocity": 102, "channel": 0}, {"type": "note_off", "time": 144, "note": 54, "velocity": 102, "channel": 0}, {"type": "note_on", "time": 32, "note": 55, "velocity": 112, "channel": 0}, {"type": "note_off", "time": 166, "note": 55, "velocity": 112, "channel": 0}, {"type": "note_on", "time": 40, "note": 58, "velocity": 94, "channel": 0}, {"type": "note_off", "time": 226, "note": 58, "velocity": 94, "channel": 0}, {"type": "note_on", "time": 40, "note": 61, "velocity": 104, "channel": 0}, {"type": "note_off", "time": 247, "note": 61, "velocity": 104, "channel": 0}, {"type": "note_on", "time": 60, "note": 65, "velocity": 107, "channel": 0}, {"type": "note_off", "time": 318, "note": 65, "velocity": 107, "channel": 0}, {"type": "note_on", "time": 8, "note": 60, "velocity": 110, "channel": 0}, {"type": "note_off", "time": 287, "note": 60, "velocity": 110, "channel": 0}, {"type": "note_on", "time": 15, "note": 63, "velocity": 121, "channel": 0}, {"type": "note_off", "time": 281, "note": 63, "velocity": 121, "channel": 0}, {"type": "note_on", "time": 9, "note": 61, "velocity": 108, "channel": 0}, {"type": "note_off", "time": 223, "note": 61, "velocity": 108, "channel": 0}, {"type": "note_on", "time": 43, "note": 57, "velocity": 93, "channel": 0}, {"type": "note_off", "time": 242, "note": 57, "velocity": 93, "channel": 0}, {"type": "note_on", "time": 4155, "note": 65, "velocity": 112, "channel": 0}, {"type": "note_off", "time": 221, "note": 65, "velocity": 112, "channel": 0}, {"type": "note_on", "time": 29, "note": 67, "velocity": 114, "channel": 0}, {"type": "note_off", "time": 155, "note": 67, "velocity": 114, "channel": 0}, {"type": "note_on", "time": 21, "note": 68, "velocity": 124, "channel": 0}, {"type": "note_off", "time": 160, "note": 68, "velocity": 124, "channel": 0}, {"type": "note_on", "time": 27, "note": 70, "velocity": 91, "channel": 0}, {"type": "note_off", "time": 187, "note": 70, "velocity": 91, "channel": 0}, {"type": "note_on", "time": 19, "note": 72, "velocity": 113, "channel": 0}, {"type": "note_off", "time": 247, "note": 72, "velocity": 113, "channel": 0}, {"type": "note_on", "time": 59, "note": 74, "velocity": 105, "channel": 0}, {"type": "note_off", "time": 332, "note": 74, "velocity": 105, "channel": 0}, {"type": "note_on", "time": 43, "note": 72, "velocity": 109, "channel": 0}, {"type": "note_off", "time": 212, "note": 72, "velocity": 109, "channel": 0}, {"type": "note_on", "time": 28, "note": 70, "velocity": 106, "channel": 0}, {"type": "note_off", "time": 167, "note": 70, "velocity": 106, "channel": 0}, {"type": "note_on", "time": 16, "note": 69, "velocity": 109, "channel": 0}, {"type": "note_off", "time": 140, "note": 69, "velocity": 109, "channel": 0}, {"type": "note_on", "time": 25, "note": 68, "velocity": 116, "channel": 0}, {"type": "note_off", "time": 129, "note": 68, "velocity": 116, "channel": 0}, {"type": "note_on", "time": 35, "note": 60, "velocity": 84, "channel": 0}, {"type": "note_off", "time": 161, "note": 60, "velocity": 84, "channel": 0}, {"type": "note_on", "time": 34, "note": 64, "velocity": 110, "channel": 0}, {"type": "note_off", "time": 205, "note": 64, "velocity": 110, "channel": 0}, {"type": "note_on", "time": 68, "note": 67, "velocity": 116, "channel": 0}, {"type": "note_off", "time": 148, "note": 67, "velocity": 116, "channel": 0}, {"type": "note_on", "time": 53, "note": 64, "velocity": 106, "channel": 0}, {"type": "note_off", "time": 163, "note": 64, "velocity": 106, "channel": 0}, {"type": "note_on", "time": 14, "note": 65, "velocity": 104, "channel": 0}, {"type": "note_off", "time": 138, "note": 65, "velocity": 104, "channel": 0}, {"type": "note_on", "time": 51, "note": 67, "velocity": 110, "channel": 0}, {"type": "note_off", "time": 182, "note": 67, "velocity": 110, "channel": 0}, {"type": "note_on", "time": 43, "note": 64, "velocity": 105, "channel": 0}, {"type": "note_off", "time": 176, "note": 64, "velocity": 105, "channel": 0}, {"type": "note_on", "time": 19, "note": 65, "velocity": 109, "channel": 0}, {"type": "note_off", "time": 182, "note": 65, "velocity": 109, "channel": 0}, {"type": "note_on", "time": 25, "note": 60, "velocity": 103, "channel": 0}, {"type": "note_off", "time": 277, "note": 60, "velocity": 103, "channel": 0}, {"type": "note_on", "time": 14, "note": 56, "velocity": 99, "channel": 0}, {"type": "note_off", "time": 155, "note": 56, "velocity": 99, "channel": 0}, {"type": "note_on", "time": 4, "note": 53, "velocity": 96, "channel": 0}, {"type": "note_off", "time": 142, "note": 53, "velocity": 96, "channel": 0}, {"type": "note_on", "time": 13, "note": 63, "velocity": 115, "channel": 0}, {"type": "note_off", "time": 178, "note": 63, "velocity": 115, "channel": 0}, {"type": "note_on", "time": 16, "note": 65, "velocity": 100, "channel": 0}, {"type": "note_off", "time": 191, "note": 65, "velocity": 100, "channel": 0}, {"type": "note_on", "time": 20, "note": 60, "velocity": 97, "channel": 0}, {"type": "note_off", "time": 210, "note": 60, "velocity": 97, "channel": 0}, {"type": "note_on", "time": 21, "note": 61, "velocity": 105, "channel": 0}, {"type": "note_off", "time": 160, "note": 61, "velocity": 105, "channel": 0}, {"type": "note_on", "time": 19, "note": 62, "velocity": 119, "channel": 0}, {"type": "note_off", "time": 196, "note": 62, "velocity": 119, "channel": 0}, {"type": "note_on", "time": 10, "note": 60, "velocity": 105, "channel": 0}, {"type": "note_off", "time": 246, "note": 60, "velocity": 105, "channel": 0}, {"type": "note_on", "time": 14, "note": 59, "velocity": 96, "channel": 0}, {"type": "note_off", "time": 161, "note": 59, "velocity": 96, "channel": 0}, {"type": "note_on", "time": 10, "note": 56, "velocity": 98, "channel": 0}, {"type": "note_off", "time": 132, "note": 56, "velocity": 98, "channel": 0}, {"type": "note_on", "time": 13, "note": 62, "velocity": 116, "channel": 0}, {"type": "note_off", "time": 206, "note": 62, "velocity": 116, "channel": 0}, {"type": "note_on", "time": 43, "note": 59, "velocity": 91, "channel": 0}, {"type": "note_off", "time": 163, "note": 59, "velocity": 91, "channel": 0}, {"type": "note_on", "time": 31, "note": 60, "velocity": 106, "channel": 0}, {"type": "note_off", "time": 216, "note": 60, "velocity": 106, "channel": 0}, {"type": "note_on", "time": 12, "note": 62, "velocity": 106, "channel": 0}, {"type": "note_off", "time": 104, "note": 62, "velocity": 106, "channel": 0}, {"type": "note_on", "time": 58, "note": 63, "velocity": 123, "channel": 0}, {"type": "note_off", "time": 157, "note": 63, "velocity": 123, "channel": 0}, {"type": "note_on", "time": 49, "note": 66, "velocity": 99, "channel": 0}, {"type": "note_off", "time": 92, "note": 66, "velocity": 99, "channel": 0}, {"type": "note_on", "time": 5, "note": 67, "velocity": 98, "channel": 0}, {"type": "note_off", "time": 81, "note": 67, "velocity": 98, "channel": 0}, {"type": "note_on", "time": 29, "note": 71, "velocity": 112, "channel": 0}, {"type": "note_off", "time": 298, "note": 71, "velocity": 112, "channel": 0}, {"type": "note_on", "time": 21, "note": 74, "velocity": 112, "channel": 0}, {"type": "note_off", "time": 163, "note": 74, "velocity": 112, "channel": 0}, {"type": "note_on", "time": 16, "note": 71, "velocity": 113, "channel": 0}, {"type": "note_off", "time": 349, "note": 71, "velocity": 113, "channel": 0}, {"type": "note_on", "time": 19, "note": 72, "velocity": 92, "channel": 0}, {"type": "note_off", "time": 130, "note": 72, "velocity": 92, "channel": 0}, {"type": "note_on", "time": 27, "note": 71, "velocity": 107, "channel": 0}, {"type": "note_off", "time": 205, "note": 71, "velocity": 107, "channel": 0}, {"type": "note_on", "time": 19, "note": 67, "velocity": 112, "channel": 0}, {"type": "note_off", "time": 257, "note": 67, "velocity": 112, "channel": 0}, {"type": "note_on", "time": 12, "note": 63, "velocity": 114, "channel": 0}, {"type": "note_off", "time": 206, "note": 63, "velocity": 114, "channel": 0}, {"type": "note_on", "time": 10, "note": 60, "velocity": 106, "channel": 0}, {"type": "note_off", "time": 216, "note": 60, "velocity": 106, "channel": 0}, {"type": "note_on", "time": 1136, "note": 55, "velocity": 87, "channel": 0}, {"type": "note_off", "time": 75, "note": 55, "velocity": 87, "channel": 0}, {"type": "note_on", "time": 42, "note": 60, "velocity": 111, "channel": 0}, {"type": "note_off", "time": 71, "note": 60, "velocity": 111, "channel": 0}, {"type": "note_on", "time": 37, "note": 63, "velocity": 115, "channel": 0}, {"type": "note_off", "time": 71, "note": 63, "velocity": 115, "channel": 0}, {"type": "note_on", "time": 48, "note": 67, "velocity": 110, "channel": 0}, {"type": "note_off", "time": 113, "note": 67, "velocity": 110, "channel": 0}, {"type": "note_on", "time": 15, "note": 70, "velocity": 111, "channel": 0}, {"type": "note_off", "time": 153, "note": 70, "velocity": 111, "channel": 0}, {"type": "note_on", "time": 6, "note": 67, "velocity": 101, "channel": 0}, {"type": "note_off", "time": 261, "note": 67, "velocity": 101, "channel": 0}, {"type": "note_on", "time": 30, "note": 68, "velocity": 108, "channel": 0}, {"type": "note_off", "time": 128, "note": 68, "velocity": 108, "channel": 0}, {"type": "note_on", "time": 19, "note": 69, "velocity": 111, "channel": 0}, {"type": "note_off", "time": 205, "note": 69, "velocity": 111, "channel": 0}, {"type": "note_on", "time": 26, "note": 65, "velocity": 99, "channel": 0}, {"type": "note_off", "time": 134, "note": 65, "velocity": 99, "channel": 0}, {"type": "note_on", "time": 13, "note": 67, "velocity": 111, "channel": 0}, {"type": "note_off", "time": 218, "note": 67, "velocity": 111, "channel": 0}, {"type": "note_on", "time": 18, "note": 63, "velocity": 94, "channel": 0}, {"type": "note_off", "time": 168, "note": 63, "velocity": 94, "channel": 0}, {"type": "note_on", "time": 371, "note": 65, "velocity": 107, "channel": 0}, {"type": "note_off", "time": 245, "note": 65, "velocity": 107, "channel": 0}, {"type": "note_on", "time": 10, "note": 60, "velocity": 98, "channel": 0}, {"type": "note_off", "time": 197, "note": 60, "velocity": 98, "channel": 0}, {"type": "note_on", "time": 18, "note": 65, "velocity": 106, "channel": 0}, {"type": "note_off", "time": 206, "note": 65, "velocity": 106, "channel": 0}, {"type": "note_on", "time": 35, "note": 67, "velocity": 102, "channel": 0}, {"type": "note_off", "time": 136, "note": 67, "velocity": 102, "channel": 0}, {"type": "note_on", "time": 32, "note": 68, "velocity": 117, "channel": 0}, {"type": "note_off", "time": 274, "note": 68, "velocity": 117, "channel": 0}, {"type": "note_on", "time": 33, "note": 62, "velocity": 95, "channel": 0}, {"type": "note_off", "time": 298, "note": 62, "velocity": 95, "channel": 0}, {"type": "note_on", "time": 4918, "note": 72, "velocity": 89, "channel": 0}, {"type": "note_off", "time": 92, "note": 72, "velocity": 89, "channel": 0}, {"type": "note_on", "time": 10, "note": 73, "velocity": 105, "channel": 0}, {"type": "note_off", "time": 56, "note": 73, "velocity": 105, "channel": 0}, {"type": "note_on", "time": 0, "note": 74, "velocity": 107, "channel": 0}, {"type": "note_off", "time": 311, "note": 74, "velocity": 107, "channel": 0}, {"type": "note_on", "time": 350, "note": 68, "velocity": 123, "channel": 0}, {"type": "note_off", "time": 348, "note": 68, "velocity": 123, "channel": 0}, {"type": "note_on", "time": 15, "note": 62, "velocity": 125, "channel": 0}, {"type": "note_off", "time": 372, "note": 62, "velocity": 125, "channel": 0}, {"type": "note_on", "time": 2620, "note": 58, "velocity": 75, "channel": 0}, {"type": "note_off", "time": 161, "note": 58, "velocity": 75, "channel": 0}, {"type": "note_on", "time": 175, "note": 63, "velocity": 116, "channel": 0}, {"type": "note_off", "time": 449, "note": 63, "velocity": 116, "channel": 0}, {"type": "note_on", "time": 488, "note": 60, "velocity": 105, "channel": 0}, {"type": "note_off", "time": 134, "note": 60, "velocity": 105, "channel": 0}, {"type": "note_on", "time": 40, "note": 61, "velocity": 102, "channel": 0}, {"type": "note_off", "time": 541, "note": 61, "velocity": 102, "channel": 0}, {"type": "note_on", "time": 28, "note": 58, "velocity": 99, "channel": 0}, {"type": "note_off", "time": 541, "note": 58, "velocity": 99, "channel": 0}, {"type": "note_on", "time": 144, "note": 53, "velocity": 98, "channel": 0}, {"type": "note_off", "time": 171, "note": 53, "velocity": 98, "channel": 0}, {"type": "note_on", "time": 24, "note": 56, "velocity": 106, "channel": 0}, {"type": "note_off", "time": 704, "note": 56, "velocity": 106, "channel": 0}, {"type": "note_on", "time": 44, "note": 60, "velocity": 99, "channel": 0}, {"type": "note_off", "time": 669, "note": 60, "velocity": 99, "channel": 0}, {"type": "note_on", "time": 2749, "note": 56, "velocity": 114, "channel": 0}, {"type": "note_off", "time": 130, "note": 56, "velocity": 114, "channel": 0}, {"type": "note_on", "time": 272, "note": 59, "velocity": 104, "channel": 0}, {"type": "note_off", "time": 223, "note": 59, "velocity": 104, "channel": 0}, {"type": "note_on", "time": 49, "note": 65, "velocity": 116, "channel": 0}, {"type": "note_off", "time": 163, "note": 65, "velocity": 116, "channel": 0}, {"type": "note_on", "time": 27, "note": 66, "velocity": 115, "channel": 0}, {"type": "note_off", "time": 714, "note": 66, "velocity": 115, "channel": 0}, {"type": "note_on", "time": 132, "note": 62, "velocity": 119, "channel": 0}, {"type": "note_off", "time": 316, "note": 62, "velocity": 119, "channel": 0}, {"type": "note_on", "time": 3147, "note": 61, "velocity": 89, "channel": 0}, {"type": "note_off", "time": 353, "note": 61, "velocity": 89, "channel": 0}, {"type": "note_on", "time": 21, "note": 63, "velocity": 113, "channel": 0}, {"type": "note_off", "time": 925, "note": 63, "velocity": 113, "channel": 0}, {"type": "note_on", "time": 255, "note": 61, "velocity": 103, "channel": 0}, {"type": "note_off", "time": 605, "note": 61, "velocity": 103, "channel": 0}, {"type": "note_on", "time": 54, "note": 63, "velocity": 113, "channel": 0}, {"type": "note_off", "time": 816, "note": 63, "velocity": 113, "channel": 0}, {"type": "note_on", "time": 377, "note": 56, "velocity": 102, "channel": 0}, {"type": "note_off", "time": 510, "note": 56, "velocity": 102, "channel": 0}, {"type": "note_on", "time": 47, "note": 60, "velocity": 97, "channel": 0}, {"type": "note_off", "time": 731, "note": 60, "velocity": 97, "channel": 0}, {"type": "note_on", "time": 136, "note": 53, "velocity": 92, "channel": 0}, {"type": "note_off", "time": 180, "note": 53, "velocity": 92, "channel": 0}, {"type": "note_on", "time": 37, "note": 56, "velocity": 101, "channel": 0}, {"type": "note_off", "time": 428, "note": 56, "velocity": 101, "channel": 0}, {"type": "note_on", "time": 51, "note": 60, "velocity": 100, "channel": 0}, {"type": "note_off", "time": 820, "note": 60, "velocity": 100, "channel": 0}, {"type": "note_on", "time": 17, "note": 59, "velocity": 93, "channel": 0}, {"type": "note_off", "time": 136, "note": 59, "velocity": 93, "channel": 0}, {"type": "note_on", "time": 13, "note": 60, "velocity": 88, "channel": 0}, {"type": "note_off", "time": 108, "note": 60, "velocity": 88, "channel": 0}, {"type": "note_on", "time": 2632, "note": 61, "velocity": 102, "channel": 0}, {"type": "note_off", "time": 106, "note": 61, "velocity": 102, "channel": 0}, {"type": "note_on", "time": 32, "note": 62, "velocity": 121, "channel": 0}, {"type": "note_off", "time": 313, "note": 62, "velocity": 121, "channel": 0}, {"type": "note_on", "time": 196, "note": 59, "velocity": 96, "channel": 0}, {"type": "note_off", "time": 302, "note": 59, "velocity": 96, "channel": 0}, {"type": "note_on", "time": 311, "note": 55, "velocity": 102, "channel": 0}, {"type": "note_off", "time": 272, "note": 55, "velocity": 102, "channel": 0}, {"type": "note_on", "time": 61, "note": 53, "velocity": 96, "channel": 0}, {"type": "note_off", "time": 163, "note": 53, "velocity": 96, "channel": 0}, {"type": "note_on", "time": 46, "note": 61, "velocity": 102, "channel": 0}, {"type": "note_off", "time": 397, "note": 61, "velocity": 102, "channel": 0}, {"type": "note_on", "time": 38, "note": 62, "velocity": 124, "channel": 0}, {"type": "note_off", "time": 321, "note": 62, "velocity": 124, "channel": 0}, {"type": "note_on", "time": 29, "note": 58, "velocity": 98, "channel": 0}, {"type": "note_off", "time": 351, "note": 58, "velocity": 98, "channel": 0}, {"type": "note_on", "time": 59, "note": 55, "velocity": 107, "channel": 0}, {"type": "note_off", "time": 345, "note": 55, "velocity": 107, "channel": 0}, {"type": "note_on", "time": 122, "note": 50, "velocity": 95, "channel": 0}, {"type": "note_off", "time": 291, "note": 50, "velocity": 95, "channel": 0}, {"type": "note_on", "time": 38, "note": 51, "velocity": 104, "channel": 0}, {"type": "note_off", "time": 255, "note": 51, "velocity": 104, "channel": 0}, {"type": "note_on", "time": 32, "note": 53, "velocity": 95, "channel": 0}, {"type": "note_off", "time": 76, "note": 53, "velocity": 95, "channel": 0}, {"type": "note_on", "time": 5, "note": 55, "velocity": 102, "channel": 0}, {"type": "note_off", "time": 217, "note": 55, "velocity": 102, "channel": 0}, {"type": "note_on", "time": 65, "note": 58, "velocity": 98, "channel": 0}, {"type": "note_off", "time": 147, "note": 58, "velocity": 98, "channel": 0}, {"type": "note_on", "time": 141, "note": 62, "velocity": 124, "channel": 0}, {"type": "note_off", "time": 255, "note": 62, "velocity": 124, "channel": 0}, {"type": "note_on", "time": 168, "note": 65, "velocity": 114, "channel": 0}, {"type": "note_off", "time": 669, "note": 65, "velocity": 114, "channel": 0}, {"type": "note_on", "time": 16, "note": 63, "velocity": 121, "channel": 0}, {"type": "note_off", "time": 288, "note": 63, "velocity": 121, "channel": 0}, {"type": "note_on", "time": 32, "note": 58, "velocity": 95, "channel": 0}, {"type": "note_off", "time": 223, "note": 58, "velocity": 95, "channel": 0}, {"type": "note_on", "time": 24, "note": 54, "velocity": 99, "channel": 0}, {"type": "note_off", "time": 285, "note": 54, "velocity": 99, "channel": 0}, {"type": "note_on", "time": 171, "note": 56, "velocity": 107, "channel": 0}, {"type": "note_off", "time": 999, "note": 56, "velocity": 107, "channel": 0}, {"type": "note_on", "time": 73, "note": 54, "velocity": 105, "channel": 0}, {"type": "note_off", "time": 381, "note": 54, "velocity": 105, "channel": 0}, {"type": "note_on", "time": 117, "note": 60, "velocity": 104, "channel": 0}, {"type": "note_off", "time": 411, "note": 60, "velocity": 104, "channel": 0}, {"type": "note_on", "time": 127, "note": 56, "velocity": 101, "channel": 0}, {"type": "note_off", "time": 588, "note": 56, "velocity": 101, "channel": 0}, {"type": "note_on", "time": 2450, "note": 53, "velocity": 111, "channel": 0}, {"type": "note_off", "time": 1178, "note": 53, "velocity": 111, "channel": 0}, {"type": "note_on", "time": 2, "note": 52, "velocity": 102, "channel": 0}, {"type": "note_off", "time": 103, "note": 52, "velocity": 102, "channel": 0}, {"type": "note_on", "time": 16, "note": 51, "velocity": 93, "channel": 0}, {"type": "note_off", "time": 114, "note": 51, "velocity": 93, "channel": 0}, {"type": "note_on", "time": 13, "note": 53, "velocity": 114, "channel": 0}, {"type": "note_off", "time": 1426, "note": 53, "velocity": 114, "channel": 0}, {"type": "note_on", "time": 111, "note": 53, "velocity": 107, "channel": 0}, {"type": "note_off", "time": 353, "note": 53, "velocity": 107, "channel": 0}, {"type": "note_on", "time": 31, "note": 49, "velocity": 100, "channel": 0}, {"type": "note_off", "time": 264, "note": 49, "velocity": 100, "channel": 0}, {"type": "note_on", "time": 35, "note": 47, "velocity": 100, "channel": 0}, {"type": "note_off", "time": 133, "note": 47, "velocity": 100, "channel": 0}, {"type": "note_on", "time": 57, "note": 46, "velocity": 91, "channel": 0}, {"type": "note_off", "time": 3100, "note": 46, "velocity": 91, "channel": 0}, {"type": "end_of_track", "time": 0}]]}