{"ticks_per_beat": 192, "tracks": [[{"type": "track_name", "name": "Melody", "time": 0}, {"type": "set_tempo", "tempo": 304568, "time": 0}, {"type": "key_signature", "key": "C", "time": 0}, {"type": "time_signature", "numerator": 4, "denominator": 4, "clocks_per_click": 24, "notated_32nd_notes_per_beat": 8, "time": 0}, {"type": "note_on", "time": 1506, "note": 64, "velocity": 116, "channel": 0}, {"type": "note_off", "time": 72, "note": 64, "velocity": 116, "channel": 0}, {"type": "note_on", "time": 9, "note": 67, "velocity": 119, "channel": 0}, {"type": "note_off", "time": 71, "note": 67, "velocity": 119, "channel": 0}, {"type": "note_on", "time": 31, "note": 72, "velocity": 120, "channel": 0}, {"type": "note_off", "time": 78, "note": 72, "velocity": 120, "channel": 0}, {"type": "note_on", "time": 16, "note": 69, "velocity": 116, "channel": 0}, {"type": "note_off", "time": 87, "note": 69, "velocity": 116, "channel": 0}, {"type": "note_on", "time": 9, "note": 67, "velocity": 115, "channel": 0}, {"type": "note_off", "time": 85, "note": 67, "velocity": 115, "channel": 0}, {"type": "note_on", "time": 3, "note": 65, "velocity": 115, "channel": 0}, {"type": "note_off", "time": 69, "note": 65, "velocity": 115, "channel": 0}, {"type": "note_on", "time": 38, "note": 64, "velocity": 121, "channel": 0}, {"type": "note_off", "time": 82, "note": 64, "velocity": 121, "channel": 0}, {"type": "note_on", "time": 1, "note": 62, "velocity": 118, "channel": 0}, {"type": "note_off", "time": 85, "note": 62, "velocity": 118, "channel": 0}, {"type": "note_on", "time": 16, "note": 60, "velocity": 111, "channel": 0}, {"type": "note_off", "time": 84, "note": 60, "velocity": 111, "channel": 0}, {"type": "note_on", "time": 20, "note": 64, "velocity": 119, "channel": 0}, {"type": "note_off", "time": 73, "note": 64, "velocity": 119, "channel": 0}, {"type": "note_on", "time": 19, "note": 62, "velocity": 114, "channel": 0}, {"type": "note_off", "time": 81, "note": 62, "velocity": 114, "channel": 0}, {"type": "note_on", "time": 15, "note": 60, "velocity": 109, "channel": 0}, {"type": "note_off", "time": 204, "note": 60, "velocity": 109, "channel": 0}, {"type": "note_on", "time": 5, "note": 55, "velocity": 117, "channel": 0}, {"type": "note_off", "time": 82, "note": 55, "velocity": 117, "channel": 0}, {"type": "note_on", "time": 39, "note": 52, "velocity": 105, "channel": 0}, {"type": "note_off", "time": 66, "note": 52, "velocity": 105, "channel": 0}, {"type": "note_on", "time": 18, "note": 53, "velocity": 113, "channel": 0}, {"type": "note_off", "time": 123, "note": 53, "velocity": 113, "channel": 0}, {"type": "note_on", "time": 69, "note": 57, "velocity": 112, "channel": 0}, {"type": "note_off", "time": 69, "note": 57, "velocity": 112, "channel": 0}, {"type": "note_on", "time": 14, "note": 60, "velocity": 114, "channel": 0}, {"type": "note_off", "time": 87, "note": 60, "velocity": 114, "channel": 0}, {"type": "note_on", "time": 18, "note": 65, "velocity": 117, "channel": 0}, {"type": "note_off", "time": 73, "note": 65, "velocity": 117, "channel": 0}, {"type": "note_on", "time": 11, "note": 66, "velocity": 115, "channel": 0}, {"type": "note_off", "time": 74, "note": 66, "velocity": 115, "channel": 0}, {"type": "note_on", "time": 20, "note": 69, "velocity": 116, "channel": 0}, {"type": "note_off", "time": 69, "note": 69, "velocity": 116, "channel": 0}, {"type": "note_on", "time": 37, "note": 67, "velocity": 112, "channel": 0}, {"type": "note_off", "time": 81, "note": 67, "velocity": 112, "channel": 0}, {"type": "note_on", "time": 122, "note": 71, "velocity": 117, "channel": 0}, {"type": "note_off", "time": 69, "note": 71, "velocity": 117, "channel": 0}, {"type": "note_on", "time": 15, "note": 74, "velocity": 114, "channel": 0}, {"type": "note_off", "time": 78, "note": 74, "velocity": 114, "channel": 0}, {"type": "note_on", "time": 15, "note": 72, "velocity": 114, "channel": 0}, {"type": "note_off", "time": 92, "note": 72, "velocity": 114, "channel": 0}, {"type": "note_on", "time": 100, "note": 71, "velocity": 115, "channel": 0}, {"type": "note_off", "time": 74, "note": 71, "velocity": 115, "channel": 0}, {"type": "note_on", "time": 9, "note": 69, "velocity": 115, "channel": 0}, {"type": "note_off", "time": 92, "note": 69, "velocity": 115, "channel": 0}, {"type": "note_on", "time": 10, "note": 67, "velocity": 118, "channel": 0}, {"type": "note_off", "time": 73, "note": 67, "velocity": 118, "channel": 0}, {"type": "note_on", "time": 29, "note": 67, "velocity": 117, "channel": 0}, {"type": "note_off", "time": 72, "note": 67, "velocity": 117, "channel": 0}, {"type": "note_on", "time": 12, "note": 67, "velocity": 118, "channel": 0}, {"type": "note_off", "time": 96, "note": 67, "velocity": 118, "channel": 0}, {"type": "note_on", "time": 19, "note": 66, "velocity": 112, "channel": 0}, {"type": "note_off", "time": 79, "note": 66, "velocity": 112, "channel": 0}, {"type": "note_on", "time": 16, "note": 69, "velocity": 118, "channel": 0}, {"type": "note_off", "time": 88, "note": 69, "velocity": 118, "channel": 0}, {"type": "note_on", "time": 12, "note": 67, "velocity": 113, "channel": 0}, {"type": "note_off", "time": 86, "note": 67, "velocity": 113, "channel": 0}, {"type": "note_on", "time": 108, "note": 72, "velocity": 110, "channel": 0}, {"type": "note_off", "time": 65, "note": 72, "velocity": 110, "channel": 0}, {"type": "note_on", "time": 19, "note": 72, "velocity": 108, "channel": 0}, {"type": "note_off", "time": 100, "note": 72, "velocity": 108, "channel": 0}, {"type": "note_on", "time": 19, "note": 71, "velocity": 115, "channel": 0}, {"type": "note_off", "time": 86, "note": 71, "velocity": 115, "channel": 0}, {"type": "note_on", "time": 15, "note": 69, "velocity": 111, "channel": 0}, {"type": "note_off", "time": 376, "note": 69, "velocity": 111, "channel": 0}, {"type": "note_on", "time": 19, "note": 67, "velocity": 117, "channel": 0}, {"type": "note_off", "time": 72, "note": 67, "velocity": 117, "channel": 0}, {"type": "note_on", "time": 29, "note": 65, "velocity": 112, "channel": 0}, {"type": "note_off", "time": 73, "note": 65, "velocity": 112, "channel": 0}, {"type": "note_on", "time": 13, "note": 64, "velocity": 117, "channel": 0}, {"type": "note_off", "time": 76, "note": 64, "velocity": 117, "channel": 0}, {"type": "note_on", "time": 17, "note": 67, "velocity": 115, "channel": 0}, {"type": "note_off", "time": 232, "note": 67, "velocity": 115, "channel": 0}, {"type": "note_on", "time": 10, "note": 65, "velocity": 109, "channel": 0}, {"type": "note_off", "time": 247, "note": 65, "velocity": 109, "channel": 0}, {"type": "note_on", "time": 31, "note": 69, "velocity": 114, "channel": 0}, {"type": "note_off", "time": 75, "note": 69, "velocity": 114, "channel": 0}, {"type": "note_on", "time": 37, "note": 74, "velocity": 112, "channel": 0}, {"type": "note_off", "time": 93, "note": 74, "velocity": 112, "channel": 0}, {"type": "note_on", "time": 18, "note": 71, "velocity": 110, "channel": 0}, {"type": "note_off", "time": 214, "note": 71, "velocity": 110, "channel": 0}, {"type": "note_on", "time": 13, "note": 69, "velocity": 114, "channel": 0}, {"type": "note_off", "time": 97, "note": 69, "velocity": 114, "channel": 0}, {"type": "note_on", "time": 11, "note": 67, "velocity": 110, "channel": 0}, {"type": "note_off", "time": 222, "note": 67, "velocity": 110, "channel": 0}, {"type": "note_on", "time": 357, "note": 67, "velocity": 113, "channel": 0}, {"type": "note_off", "time": 78, "note": 67, "velocity": 113, "channel": 0}, {"type": "note_on", "time": 76, "note": 62, "velocity": 102, "channel": 0}, {"type": "note_off", "time": 68, "note": 62, "velocity": 102, "channel": 0}, {"type": "note_on", "time": 25, "note": 71, "velocity": 109, "channel": 0}, {"type": "note_off", "time": 99, "note": 71, "velocity": 109, "channel": 0}, {"type": "note_on", "time": 11, "note": 74, "velocity": 109, "channel": 0}, {"type": "note_off", "time": 75, "note": 74, "velocity": 109, "channel": 0}, {"type": "note_on", "time": 56, "note": 72, "velocity": 112, "channel": 0}, {"type": "note_off", "time": 63, "note": 72, "velocity": 112, "channel": 0}, {"type": "note_on", "time": 34, "note": 71, "velocity": 113, "channel": 0}, {"type": "note_off", "time": 66, "note": 71, "velocity": 113, "channel": 0}, {"type": "note_on", "time": 10, "note": 69, "velocity": 116, "channel": 0}, {"type": "note_off", "time": 118, "note": 69, "velocity": 116, "channel": 0}, {"type": "note_on", "time": 7, "note": 67, "velocity": 112, "channel": 0}, {"type": "note_off", "time": 447, "note": 67, "velocity": 112, "channel": 0}, {"type": "note_on", "time": 63, "note": 62, "velocity": 99, "channel": 0}, {"type": "note_off", "time": 84, "note": 62, "velocity": 99, "channel": 0}, {"type": "note_on", "time": 14, "note": 71, "velocity": 109, "channel": 0}, {"type": "note_off", "time": 89, "note": 71, "velocity": 109, "channel": 0}, {"type": "note_on", "time": 11, "note": 74, "velocity": 108, "channel": 0}, {"type": "note_off", "time": 95, "note": 74, "velocity": 108, "channel": 0}, {"type": "note_on", "time": 24, "note": 72, "velocity": 111, "channel": 0}, {"type": "note_off", "time": 70, "note": 72, "velocity": 111, "channel": 0}, {"type": "note_on", "time": 39, "note": 69, "velocity": 114, "channel": 0}, {"type": "note_off", "time": 82, "note": 69, "velocity": 114, "channel": 0}, {"type": "note_on", "time": 39, "note": 65, "velocity": 115, "channel": 0}, {"type": "note_off", "time": 118, "note": 65, "velocity": 115, "channel": 0}, {"type": "note_on", "time": 37, "note": 69, "velocity": 113, "channel": 0}, {"type": "note_off", "time": 79, "note": 69, "velocity": 113, "channel": 0}, {"type": "note_on", "time": 29, "note": 74, "velocity": 113, "channel": 0}, {"type": "note_off", "time": 97, "note": 74, "velocity": 113, "channel": 0}, {"type": "note_on", "time": 1, "note": 71, "velocity": 109, "channel": 0}, {"type": "note_off", "time": 108, "note": 71, "velocity": 109, "channel": 0}, {"type": "note_on", "time": 4, "note": 69, "velocity": 116, "channel": 0}, {"type": "note_off", "time": 94, "note": 69, "velocity": 116, "channel": 0}, {"type": "note_on", "time": 12, "note": 67, "velocity": 106, "channel": 0}, {"type": "note_off", "time": 479, "note": 67, "velocity": 106, "channel": 0}, {"type": "note_on", "time": 217, "note": 64, "velocity": 125, "channel": 0}, {"type": "note_off", "time": 86, "note": 64, "velocity": 125, "channel": 0}, {"type": "note_on", "time": 10, "note": 67, "velocity": 117, "channel": 0}, {"type": "note_off", "time": 88, "note": 67, "velocity": 117, "channel": 0}, {"type": "note_on", "time": 81, "note": 73, "velocity": 117, "channel": 0}, {"type": "note_off", "time": 102, "note": 73, "velocity": 117, "channel": 0}, {"type": "note_on", "time": 8, "note": 69, "velocity": 115, "channel": 0}, {"type": "note_off", "time": 114, "note": 69, "velocity": 115, "channel": 0}, {"type": "note_on", "time": 15, "note": 67, "velocity": 114, "channel": 0}, {"type": "note_off", "time": 92, "note": 67, "velocity": 114, "channel": 0}, {"type": "note_on", "time": 30, "note": 65, "velocity": 116, "channel": 0}, {"type": "note_off", "time": 100, "note": 65, "velocity": 116, "channel": 0}, {"type": "note_on", "time": 8, "note": 64, "velocity": 121, "channel": 0}, {"type": "note_off", "time": 92, "note": 64, "velocity": 121, "channel": 0}, {"type": "note_on", "time": 19, "note": 62, "velocity": 118, "channel": 0}, {"type": "note_off", "time": 112, "note": 62, "velocity": 118, "channel": 0}, {"type": "note_on", "time": 6, "note": 61, "velocity": 118, "channel": 0}, {"type": "note_off", "time": 107, "note": 61, "velocity": 118, "channel": 0}, {"type": "note_on", "time": 3, "note": 62, "velocity": 113, "channel": 0}, {"type": "note_off", "time": 99, "note": 62, "velocity": 113, "channel": 0}, {"type": "note_on", "time": 14, "note": 64, "velocity": 118, "channel": 0}, {"type": "note_off", "time": 110, "note": 64, "velocity": 118, "channel": 0}, {"type": "note_on", "time": 12, "note": 65, "velocity": 115, "channel": 0}, {"type": "note_off", "time": 98, "note": 65, "velocity": 115, "channel": 0}, {"type": "note_on", "time": 9, "note": 62, "velocity": 115, "channel": 0}, {"type": "note_off", "time": 134, "note": 62, "velocity": 115, "channel": 0}, {"type": "note_on", "time": 56, "note": 69, "velocity": 117, "channel": 0}, {"type": "note_off", "time": 86, "note": 69, "velocity": 117, "channel": 0}, {"type": "note_on", "time": 70, "note": 74, "velocity": 115, "channel": 0}, {"type": "note_off", "time": 98, "note": 74, "velocity": 115, "channel": 0}, {"type": "note_on", "time": 3, "note": 71, "velocity": 113, "channel": 0}, {"type": "note_off", "time": 78, "note": 71, "velocity": 113, "channel": 0}, {"type": "note_on", "time": 24, "note": 69, "velocity": 113, "channel": 0}, {"type": "note_off", "time": 88, "note": 69, "velocity": 113, "channel": 0}, {"type": "note_on", "time": 39, "note": 67, "velocity": 111, "channel": 0}, {"type": "note_off", "time": 99, "note": 67, "velocity": 111, "channel": 0}, {"type": "note_on", "time": 16, "note": 64, "velocity": 118, "channel": 0}, {"type": "note_off", "time": 102, "note": 64, "velocity": 118, "channel": 0}, {"type": "note_on", "time": 34, "note": 69, "velocity": 114, "channel": 0}, {"type": "note_off", "time": 99, "note": 69, "velocity": 114, "channel": 0}, {"type": "note_on", "time": 9, "note": 67, "velocity": 111, "channel": 0}, {"type": "note_off", "time": 117, "note": 67, "velocity": 111, "channel": 0}, {"type": "note_on", "time": 37, "note": 65, "velocity": 110, "channel": 0}, {"type": "note_off", "time": 72, "note": 65, "velocity": 110, "channel": 0}, {"type": "note_on", "time": 72, "note": 64, "velocity": 121, "channel": 0}, {"type": "note_off", "time": 106, "note": 64, "velocity": 121, "channel": 0}, {"type": "note_on", "time": 42, "note": 67, "velocity": 109, "channel": 0}, {"type": "note_off", "time": 101, "note": 67, "velocity": 109, "channel": 0}, {"type": "note_on", "time": 65, "note": 72, "velocity": 107, "channel": 0}, {"type": "note_off", "time": 102, "note": 72, "velocity": 107, "channel": 0}, {"type": "note_on", "time": 158, "note": 76, "velocity": 117, "channel": 0}, {"type": "note_off", "time": 70, "note": 76, "velocity": 117, "channel": 0}, {"type": "note_on", "time": 41, "note": 71, "velocity": 108, "channel": 0}, {"type": "note_off", "time": 91, "note": 71, "velocity": 108, "channel": 0}, {"type": "note_on", "time": 2, "note": 74, "velocity": 114, "channel": 0}, {"type": "note_off", "time": 96, "note": 74, "velocity": 114, "channel": 0}, {"type": "note_on", "time": 28, "note": 72, "velocity": 108, "channel": 0}, {"type": "note_off", "time": 93, "note": 72, "velocity": 108, "channel": 0}, {"type": "note_on", "time": 11, "note": 69, "velocity": 113, "channel": 0}, {"type": "note_off", "time": 97, "note": 69, "velocity": 113, "channel": 0}, {"type": "note_on", "time": 9, "note": 67, "velocity": 108, "channel": 0}, {"type": "note_off", "time": 285, "note": 67, "velocity": 108, "channel": 0}, {"type": "note_on", "time": 283, "note": 67, "velocity": 113, "channel": 0}, {"type": "note_off", "time": 102, "note": 67, "velocity": 113, "channel": 0}, {"type": "note_on", "time": 11, "note": 65, "velocity": 117, "channel": 0}, {"type": "note_off", "time": 96, "note": 65, "velocity": 117, "channel": 0}, {"type": "note_on", "time": 32, "note": 69, "velocity": 116, "channel": 0}, {"type": "note_off", "time": 78, "note": 69, "velocity": 116, "channel": 0}, {"type": "note_on", "time": 9, "note": 72, "velocity": 111, "channel": 0}, {"type": "note_off", "time": 105, "note": 72, "velocity": 111, "channel": 0}, {"type": "note_on", "time": 65, "note": 77, "velocity": 100, "channel": 0}, {"type": "note_off", "time": 91, "note": 77, "velocity": 100, "channel": 0}, {"type": "note_on", "time": 5, "note": 76, "velocity": 114, "channel": 0}, {"type": "note_off", "time": 83, "note": 76, "velocity": 114, "channel": 0}, {"type": "note_on", "time": 36, "note": 74, "velocity": 112, "channel": 0}, {"type": "note_off", "time": 84, "note": 74, "velocity": 112, "channel": 0}, {"type": "note_on", "time": 7, "note": 72, "velocity": 111, "channel": 0}, {"type": "note_off", "time": 96, "note": 72, "velocity": 111, "channel": 0}, {"type": "note_on", "time": 21, "note": 71, "velocity": 110, "channel": 0}, {"type": "note_off", "time": 114, "note": 71, "velocity": 110, "channel": 0}, {"type": "note_on", "time": 27, "note": 74, "velocity": 110, "channel": 0}, {"type": "note_off", "time": 194, "note": 74, "velocity": 110, "channel": 0}, {"type": "note_on", "time": 36, "note": 72, "velocity": 113, "channel": 0}, {"type": "note_off", "time": 81, "note": 72, "velocity": 113, "channel": 0}, {"type": "note_on", "time": 7, "note": 71, "velocity": 111, "channel": 0}, {"type": "note_off", "time": 92, "note": 71, "velocity": 111, "channel": 0}, {"type": "note_on", "time": 29, "note": 69, "velocity": 111, "channel": 0}, {"type": "note_off", "time": 84, "note": 69, "velocity": 111, "channel": 0}, {"type": "note_on", "time": 7, "note": 67, "velocity": 112, "channel": 0}, {"type": "note_off", "time": 24, "note": 67, "velocity": 112, "channel": 0}, {"type": "note_on", "time": 4, "note": 69, "velocity": 116, "channel": 0}, {"type": "note_off", "time": 51, "note": 69, "velocity": 116, "channel": 0}, {"type": "note_on", "time": 12, "note": 67, "velocity": 111, "channel": 0}, {"type": "note_off", "time": 52, "note": 67, "velocity": 111, "channel": 0}, {"type": "note_on", "time": 5, "note": 66, "velocity": 107, "channel": 0}, {"type": "note_off", "time": 67, "note": 66, "velocity": 107, "channel": 0}, {"type": "note_on", "time": 50, "note": 69, "velocity": 110, "channel": 0}, {"type": "note_off", "time": 86, "note": 69, "velocity": 110, "channel": 0}, {"type": "note_on", "time": 16, "note": 67, "velocity": 112, "channel": 0}, {"type": "note_off", "time": 90, "note": 67, "velocity": 112, "channel": 0}, {"type": "note_on", "time": 11, "note": 64, "velocity": 115, "channel": 0}, {"type": "note_off", "time": 95, "note": 64, "velocity": 115, "channel": 0}, {"type": "note_on", "time": 45, "note": 73, "velocity": 115, "channel": 0}, {"type": "note_off", "time": 88, "note": 73, "velocity": 115, "channel": 0}, {"type": "note_on", "time": 2, "note": 70, "velocity": 119, "channel": 0}, {"type": "note_off", "time": 59, "note": 70, "velocity": 119, "channel": 0}, {"type": "note_on", "time": 7, "note": 69, "velocity": 112, "channel": 0}, {"type": "note_off", "time": 56, "note": 69, "velocity": 112, "channel": 0}, {"type": "note_on", "time": 3, "note": 70, "velocity": 104, "channel": 0}, {"type": "note_off", "time": 95, "note": 70, "velocity": 104, "channel": 0}, {"type": "note_on", "time": 9, "note": 69, "velocity": 113, "channel": 0}, {"type": "note_off", "time": 78, "note": 69, "velocity": 113, "channel": 0}, {"type": "note_on", "time": 14, "note": 67, "velocity": 110, "channel": 0}, {"type": "note_off", "time": 93, "note": 67, "velocity": 110, "channel": 0}, {"type": "note_on", "time": 20, "note": 65, "velocity": 114, "channel": 0}, {"type": "note_off", "time": 82, "note": 65, "velocity": 114, "channel": 0}, {"type": "note_on", "time": 19, "note": 64, "velocity": 120, "channel": 0}, {"type": "note_off", "time": 97, "note": 64, "velocity": 120, "channel": 0}, {"type": "note_on", "time": 3, "note": 62, "velocity": 105, "channel": 0}, {"type": "note_off", "time": 65, "note": 62, "velocity": 105, "channel": 0}, {"type": "note_on", "time": 25, "note": 67, "velocity": 113, "channel": 0}, {"type": "note_off", "time": 88, "note": 67, "velocity": 113, "channel": 0}, {"type": "note_on", "time": 20, "note": 64, "velocity": 117, "channel": 0}, {"type": "note_off", "time": 88, "note": 64, "velocity": 117, "channel": 0}, {"type": "note_on", "time": 9, "note": 65, "velocity": 113, "channel": 0}, {"type": "note_off", "time": 82, "note": 65, "velocity": 113, "channel": 0}, {"type": "note_on", "time": 34, "note": 69, "velocity": 110, "channel": 0}, {"type": "note_off", "time": 82, "note": 69, "velocity": 110, "channel": 0}, {"type": "note_on", "time": 60, "note": 74, "velocity": 106, "channel": 0}, {"type": "note_off", "time": 86, "note": 74, "velocity": 106, "channel": 0}, {"type": "note_on", "time": 16, "note": 71, "velocity": 104, "channel": 0}, {"type": "note_off", "time": 99, "note": 71, "velocity": 104, "channel": 0}, {"type": "note_on", "time": 11, "note": 72, "velocity": 103, "channel": 0}, {"type": "note_off", "time": 122, "note": 72, "velocity": 103, "channel": 0}, {"type": "note_on", "time": 9, "note": 71, "velocity": 100, "channel": 0}, {"type": "note_off", "time": 120, "note": 71, "velocity": 100, "channel": 0}, {"type": "note_on", "time": 21, "note": 69, "velocity": 114, "channel": 0}, {"type": "note_off", "time": 86, "note": 69, "velocity": 114, "channel": 0}, {"type": "note_on", "time": 42, "note": 67, "velocity": 108, "channel": 0}, {"type": "note_off", "time": 128, "note": 67, "velocity": 108, "channel": 0}, {"type": "note_on", "time": 9, "note": 65, "velocity": 110, "channel": 0}, {"type": "note_off", "time": 81, "note": 65, "velocity": 110, "channel": 0}, {"type": "note_on", "time": 39, "note": 64, "velocity": 112, "channel": 0}, {"type": "note_off", "time": 140, "note": 64, "velocity": 112, "channel": 0}, {"type": "note_on", "time": 223, "note": 67, "velocity": 117, "channel": 0}, {"type": "note_off", "time": 81, "note": 67, "velocity": 117, "channel": 0}, {"type": "note_on", "time": 15, "note": 69, "velocity": 114, "channel": 0}, {"type": "note_off", "time": 105, "note": 69, "velocity": 114, "channel": 0}, {"type": "note_on", "time": 81, "note": 64, "velocity": 120, "channel": 0}, {"type": "note_off", "time": 113, "note": 64, "velocity": 120, "channel": 0}, {"type": "note_on", "time": 113, "note": 67, "velocity": 112, "channel": 0}, {"type": "note_off", "time": 111, "note": 67, "velocity": 112, "channel": 0}, {"type": "note_on", "time": 34, "note": 64, "velocity": 122, "channel": 0}, {"type": "note_off", "time": 118, "note": 64, "velocity": 122, "channel": 0}, {"type": "note_on", "time": 39, "note": 60, "velocity": 115, "channel": 0}, {"type": "note_off", "time": 99, "note": 60, "velocity": 115, "channel": 0}, {"type": "note_on", "time": 19, "note": 55, "velocity": 109, "channel": 0}, {"type": "note_off", "time": 247, "note": 55, "velocity": 109, "channel": 0}, {"type": "note_on", "time": 328, "note": 69, "velocity": 107, "channel": 0}, {"type": "note_off", "time": 1349, "note": 69, "velocity": 107, "channel": 0}, {"type": "note_on", "time": 0, "note": 67, "velocity": 112, "channel": 0}, {"type": "note_off", "time": 80, "note": 67, "velocity": 112, "channel": 0}, {"type": "note_on", "time": 55, "note": 72, "velocity": 110, "channel": 0}, {"type": "note_off", "time": 59, "note": 72, "velocity": 110, "channel": 0}, {"type": "note_on", "time": 33, "note": 76, "velocity": 117, "channel": 0}, {"type": "note_off", "time": 69, "note": 76, "velocity": 117, "channel": 0}, {"type": "note_on", "time": 14, "note": 71, "velocity": 109, "channel": 0}, {"type": "note_off", "time": 70, "note": 71, "velocity": 109, "channel": 0}, {"type": "note_on", "time": 19, "note": 74, "velocity": 114, "channel": 0}, {"type": "note_off", "time": 75, "note": 74, "velocity": 114, "channel": 0}, {"type": "note_on", "time": 15, "note": 72, "velocity": 111, "channel": 0}, {"type": "note_off", "time": 64, "note": 72, "velocity": 111, "channel": 0}, {"type": "note_on", "time": 34, "note": 70, "velocity": 107, "channel": 0}, {"type": "note_off", "time": 66, "note": 70, "velocity": 107, "channel": 0}, {"type": "note_on", "time": 22, "note": 73, "velocity": 117, "channel": 0}, {"type": "note_off", "time": 66, "note": 73, "velocity": 117, "channel": 0}, {"type": "note_on", "time": 36, "note": 70, "velocity": 105, "channel": 0}, {"type": "note_off", "time": 67, "note": 70, "velocity": 105, "channel": 0}, {"type": "note_on", "time": 15, "note": 69, "velocity": 102, "channel": 0}, {"type": "note_off", "time": 82, "note": 69, "velocity": 102, "channel": 0}, {"type": "note_on", "time": 11, "note": 67, "velocity": 112, "channel": 0}, {"type": "note_off", "time": 83, "note": 67, "velocity": 112, "channel": 0}, {"type": "note_on", "time": 20, "note": 65, "velocity": 114, "channel": 0}, {"type": "note_off", "time": 84, "note": 65, "velocity": 114, "channel": 0}, {"type": "note_on", "time": 21, "note": 64, "velocity": 118, "channel": 0}, {"type": "note_off", "time": 84, "note": 64, "velocity": 118, "channel": 0}, {"type": "note_on", "time": 12, "note": 62, "velocity": 113, "channel": 0}, {"type": "note_off", "time": 80, "note": 62, "velocity": 113, "channel": 0}, {"type": "note_on", "time": 10, "note": 61, "velocity": 111, "channel": 0}, {"type": "note_off", "time": 69, "note": 61, "velocity": 111, "channel": 0}, {"type": "note_on", "time": 13, "note": 64, "velocity": 120, "channel": 0}, {"type": "note_off", "time": 85, "note": 64, "velocity": 120, "channel": 0}, {"type": "note_on", "time": 32, "note": 61, "velocity": 113, "channel": 0}, {"type": "note_off", "time": 76, "note": 61, "velocity": 113, "channel": 0}, {"type": "note_on", "time": 7, "note": 62, "velocity": 113, "channel": 0}, {"type": "note_off", "time": 80, "note": 62, "velocity": 113, "channel": 0}, {"type": "note_on", "time": 24, "note": 65, "velocity": 114, "channel": 0}, {"type": "note_off", "time": 73, "note": 65, "velocity": 114, "channel": 0}, {"type": "note_on", "time": 12, "note": 69, "velocity": 113, "channel": 0}, {"type": "note_off", "time": 92, "note": 69, "velocity": 113, "channel": 0}, {"type": "note_on", "time": 6, "note": 65, "velocity": 105, "channel": 0}, {"type": "note_off", "time": 77, "note": 65, "velocity": 105, "channel": 0}, {"type": "note_on", "time": 30, "note": 74, "velocity": 103, "channel": 0}, {"type": "note_off", "time": 85, "note": 74, "velocity": 103, "channel": 0}, {"type": "note_on", "time": 6, "note": 67, "velocity": 116, "channel": 0}, {"type": "note_off", "time": 53, "note": 67, "velocity": 116, "channel": 0}, {"type": "note_on", "time": 9, "note": 69, "velocity": 91, "channel": 0}, {"type": "note_off", "time": 30, "note": 69, "velocity": 91, "channel": 0}, {"type": "note_on", "time": 10, "note": 71, "velocity": 113, "channel": 0}, {"type": "note_off", "time": 73, "note": 71, "velocity": 113, "channel": 0}, {"type": "note_on", "time": 19, "note": 71, "velocity": 107, "channel": 0}, {"type": "note_off", "time": 73, "note": 71, "velocity": 107, "channel": 0}, {"type": "note_on", "time": 21, "note": 71, "velocity": 110, "channel": 0}, {"type": "note_off", "time": 80, "note": 71, "velocity": 110, "channel": 0}, {"type": "note_on", "time": 19, "note": 74, "velocity": 108, "channel": 0}, {"type": "note_off", "time": 79, "note": 74, "velocity": 108, "channel": 0}, {"type": "note_on", "time": 19, "note": 71, "velocity": 112, "channel": 0}, {"type": "note_off", "time": 75, "note": 71, "velocity": 112, "channel": 0}, {"type": "note_on", "time": 12, "note": 72, "velocity": 108, "channel": 0}, {"type": "note_off", "time": 91, "note": 72, "velocity": 108, "channel": 0}, {"type": "note_on", "time": 11, "note": 71, "velocity": 109, "channel": 0}, {"type": "note_off", "time": 69, "note": 71, "velocity": 109, "channel": 0}, {"type": "note_on", "time": 19, "note": 69, "velocity": 111, "channel": 0}, {"type": "note_off", "time": 76, "note": 69, "velocity": 111, "channel": 0}, {"type": "note_on", "time": 23, "note": 67, "velocity": 103, "channel": 0}, {"type": "note_off", "time": 80, "note": 67, "velocity": 103, "channel": 0}, {"type": "note_on", "time": 5, "note": 69, "velocity": 100, "channel": 0}, {"type": "note_off", "time": 94, "note": 69, "velocity": 100, "channel": 0}, {"type": "note_on", "time": 4, "note": 67, "velocity": 109, "channel": 0}, {"type": "note_off", "time": 81, "note": 67, "velocity": 109, "channel": 0}, {"type": "note_on", "time": 12, "note": 64, "velocity": 113, "channel": 0}, {"type": "note_off", "time": 88, "note": 64, "velocity": 113, "channel": 0}, {"type": "note_on", "time": 9, "note": 67, "velocity": 109, "channel": 0}, {"type": "note_off", "time": 181, "note": 67, "velocity": 109, "channel": 0}, {"type": "note_on", "time": 4, "note": 69, "velocity": 113, "channel": 0}, {"type": "note_off", "time": 117, "note": 69, "velocity": 113, "channel": 0}, {"type": "note_on", "time": 390, "note": 67, "velocity": 119, "channel": 0}, {"type": "note_off", "time": 68, "note": 67, "velocity": 119, "channel": 0}, {"type": "note_on", "time": 10, "note": 67, "velocity": 114, "channel": 0}, {"type": "note_off", "time": 153, "note": 67, "velocity": 114, "channel": 0}, {"type": "note_on", "time": 44, "note": 67, "velocity": 113, "channel": 0}, {"type": "note_off", "time": 45, "note": 67, "velocity": 113, "channel": 0}, {"type": "note_on", "time": 55, "note": 65, "velocity": 115, "channel": 0}, {"type": "note_off", "time": 188, "note": 65, "velocity": 115, "channel": 0}, {"type": "note_on", "time": 11, "note": 65, "velocity": 98, "channel": 0}, {"type": "note_off", "time": 65, "note": 65, "velocity": 98, "channel": 0}, {"type": "note_on", "time": 9, "note": 67, "velocity": 97, "channel": 0}, {"type": "note_off", "time": 51, "note": 67, "velocity": 97, "channel": 0}, {"type": "note_on", "time": 42, "note": 65, "velocity": 114, "channel": 0}, {"type": "note_off", "time": 171, "note": 65, "velocity": 114, "channel": 0}, {"type": "note_on", "time": 20, "note": 67, "velocity": 108, "channel": 0}, {"type": "note_off", "time": 46, "note": 67, "velocity": 108, "channel": 0}, {"type": "note_on", "time": 42, "note": 69, "velocity": 114, "channel": 0}, {"type": "note_off", "time": 67, "note": 69, "velocity": 114, "channel": 0}, {"type": "note_on", "time": 22, "note": 66, "velocity": 107, "channel": 0}, {"type": "note_off", "time": 80, "note": 66, "velocity": 107, "channel": 0}, {"type": "note_on", "time": 28, "note": 67, "velocity": 111, "channel": 0}, {"type": "note_off", "time": 157, "note": 67, "velocity": 111, "channel": 0}, {"type": "note_on", "time": 10, "note": 64, "velocity": 108, "channel": 0}, {"type": "note_off", "time": 75, "note": 64, "velocity": 108, "channel": 0}, {"type": "note_on", "time": 44, "note": 65, "velocity": 114, "channel": 0}, {"type": "note_off", "time": 124, "note": 65, "velocity": 114, "channel": 0}, {"type": "note_on", "time": 88, "note": 65, "velocity": 98, "channel": 0}, {"type": "note_off", "time": 70, "note": 65, "velocity": 98, "channel": 0}, {"type": "note_on", "time": 10, "note": 64, "velocity": 107, "channel": 0}, {"type": "note_off", "time": 67, "note": 64, "velocity": 107, "channel": 0}, {"type": "note_on", "time": 18, "note": 62, "velocity": 106, "channel": 0}, {"type": "note_off", "time": 57, "note": 62, "velocity": 106, "channel": 0}, {"type": "note_on", "time": 50, "note": 60, "velocity": 115, "channel": 0}, {"type": "note_off", "time": 156, "note": 60, "velocity": 115, "channel": 0}, {"type": "note_on", "time": 24, "note": 59, "velocity": 108, "channel": 0}, {"type": "note_off", "time": 57, "note": 59, "velocity": 108, "channel": 0}, {"type": "note_on", "time": 32, "note": 57, "velocity": 112, "channel": 0}, {"type": "note_off", "time": 181, "note": 57, "velocity": 112, "channel": 0}, {"type": "note_on", "time": 22, "note": 55, "velocity": 108, "channel": 0}, {"type": "note_off", "time": 68, "note": 55, "velocity": 108, "channel": 0}, {"type": "note_on", "time": 24, "note": 53, "velocity": 114, "channel": 0}, {"type": "note_off", "time": 176, "note": 53, "velocity": 114, "channel": 0}, {"type": "note_on", "time": 28, "note": 52, "velocity": 114, "channel": 0}, {"type": "note_off", "time": 92, "note": 52, "velocity": 114, "channel": 0}, {"type": "note_on", "time": 44, "note": 50, "velocity": 114, "channel": 0}, {"type": "note_off", "time": 110, "note": 50, "velocity": 114, "channel": 0}, {"type": "note_on", "time": 26, "note": 49, "velocity": 112, "channel": 0}, {"type": "note_off", "time": 93, "note": 49, "velocity": 112, "channel": 0}, {"type": "note_on", "time": 21, "note": 52, "velocity": 115, "channel": 0}, {"type": "note_off", "time": 128, "note": 52, "velocity": 115, "channel": 0}, {"type": "note_on", "time": 42, "note": 49, "velocity": 117, "channel": 0}, {"type": "note_off", "time": 113, "note": 49, "velocity": 117, "channel": 0}, {"type": "note_on", "time": 8, "note": 50, "velocity": 115, "channel": 0}, {"type": "note_off", "time": 136, "note": 50, "velocity": 115, "channel": 0}, {"type": "note_on", "time": 58, "note": 53, "velocity": 113, "channel": 0}, {"type": "note_off", "time": 158, "note": 53, "velocity": 113, "channel": 0}, {"type": "note_on", "time": 20, "note": 57, "velocity": 113, "channel": 0}, {"type": "note_off", "time": 97, "note": 57, "velocity": 113, "channel": 0}, {"type": "note_on", "time": 21, "note": 57, "velocity": 114, "channel": 0}, {"type": "note_off", "time": 160, "note": 57, "velocity": 114, "channel": 0}, {"type": "note_on", "time": 37, "note": 55, "velocity": 112, "channel": 0}, {"type": "note_off", "time": 162, "note": 55, "velocity": 112, "channel": 0}, {"type": "note_on", "time": 515, "note": 66, "velocity": 120, "channel": 0}, {"type": "note_off", "time": 54, "note": 66, "velocity": 120, "channel": 0}, {"type": "note_on", "time": 5, "note": 67, "velocity": 112, "channel": 0}, {"type": "note_off", "time": 1515, "note": 67, "velocity": 112, "channel": 0}, {"type": "note_on", "time": 6, "note": 64, "velocity": 121, "channel": 0}, {"type": "note_off", "time": 78, "note": 64, "velocity": 121, "channel": 0}, {"type": "note_on", "time": 21, "note": 72, "velocity": 116, "channel": 0}, {"type": "note_off", "time": 50, "note": 72, "velocity": 116, "channel": 0}, {"type": "note_on", "time": 33, "note": 69, "velocity": 118, "channel": 0}, {"type": "note_off", "time": 35, "note": 69, "velocity": 118, "channel": 0}, {"type": "note_on", "time": 7, "note": 71, "velocity": 112, "channel": 0}, {"type": "note_off", "time": 34, "note": 71, "velocity": 112, "channel": 0}, {"type": "note_on", "time": 0, "note": 69, "velocity": 108, "channel": 0}, {"type": "note_off", "time": 43, "note": 69, "velocity": 108, "channel": 0}, {"type": "note_on", "time": 54, "note": 65, "velocity": 112, "channel": 0}, {"type": "note_off", "time": 84, "note": 65, "velocity": 112, "channel": 0}, {"type": "note_on", "time": 15, "note": 60, "velocity": 111, "channel": 0}, {"type": "note_off", "time": 64, "note": 60, "velocity": 111, "channel": 0}, {"type": "note_on", "time": 46, "note": 69, "velocity": 121, "channel": 0}, {"type": "note_off", "time": 41, "note": 69, "velocity": 121, "channel": 0}, {"type": "note_on", "time": 5, "note": 70, "velocity": 110, "channel": 0}, {"type": "note_off", "time": 23, "note": 70, "velocity": 110, "channel": 0}, {"type": "note_on", "time": 9, "note": 69, "velocity": 107, "channel": 0}, {"type": "note_off", "time": 72, "note": 69, "velocity": 107, "channel": 0}, {"type": "note_on", "time": 27, "note": 65, "velocity": 111, "channel": 0}, {"type": "note_off", "time": 55, "note": 65, "velocity": 111, "channel": 0}, {"type": "note_on", "time": 45, "note": 60, "velocity": 106, "channel": 0}, {"type": "note_off", "time": 41, "note": 60, "velocity": 106, "channel": 0}, {"type": "note_on", "time": 70, "note": 71, "velocity": 108, "channel": 0}, {"type": "note_off", "time": 50, "note": 71, "velocity": 108, "channel": 0}, {"type": "note_on", "time": 4, "note": 72, "velocity": 107, "channel": 0}, {"type": "note_off", "time": 21, "note": 72, "velocity": 107, "channel": 0}, {"type": "note_on", "time": 10, "note": 71, "velocity": 105, "channel": 0}, {"type": "note_off", "time": 73, "note": 71, "velocity": 105, "channel": 0}, {"type": "note_on", "time": 25, "note": 67, "velocity": 115, "channel": 0}, {"type": "note_off", "time": 64, "note": 67, "velocity": 115, "channel": 0}, {"type": "note_on", "time": 48, "note": 72, "velocity": 103, "channel": 0}, {"type": "note_off", "time": 42, "note": 72, "velocity": 103, "channel": 0}, {"type": "note_on", "time": 52, "note": 69, "velocity": 107, "channel": 0}, {"type": "note_off", "time": 39, "note": 69, "velocity": 107, "channel": 0}, {"type": "note_on", "time": 1, "note": 70, "velocity": 109, "channel": 0}, {"type": "note_off", "time": 35, "note": 70, "velocity": 109, "channel": 0}, {"type": "note_on", "time": 6, "note": 69, "velocity": 111, "channel": 0}, {"type": "note_off", "time": 64, "note": 69, "velocity": 111, "channel": 0}, {"type": "note_on", "time": 31, "note": 65, "velocity": 114, "channel": 0}, {"type": "note_off", "time": 57, "note": 65, "velocity": 114, "channel": 0}, {"type": "note_on", "time": 60, "note": 69, "velocity": 110, "channel": 0}, {"type": "note_off", "time": 43, "note": 69, "velocity": 110, "channel": 0}, {"type": "note_on", "time": 39, "note": 67, "velocity": 113, "channel": 0}, {"type": "note_off", "time": 33, "note": 67, "velocity": 113, "channel": 0}, {"type": "note_on", "time": 0, "note": 69, "velocity": 115, "channel": 0}, {"type": "note_off", "time": 32, "note": 69, "velocity": 115, "channel": 0}, {"type": "note_on", "time": 8, "note": 67, "velocity": 110, "channel": 0}, {"type": "note_off", "time": 62, "note": 67, "velocity": 110, "channel": 0}, {"type": "note_on", "time": 40, "note": 64, "velocity": 120, "channel": 0}, {"type": "note_off", "time": 82, "note": 64, "velocity": 120, "channel": 0}, {"type": "note_on", "time": 21, "note": 60, "velocity": 110, "channel": 0}, {"type": "note_off", "time": 56, "note": 60, "velocity": 110, "channel": 0}, {"type": "note_on", "time": 31, "note": 55, "velocity": 114, "channel": 0}, {"type": "note_off", "time": 73, "note": 55, "velocity": 114, "channel": 0}, {"type": "note_on", "time": 17, "note": 60, "velocity": 104, "channel": 0}, {"type": "note_off", "time": 52, "note": 60, "velocity": 104, "channel": 0}, {"type": "note_on", "time": 31, "note": 64, "velocity": 116, "channel": 0}, {"type": "note_off", "time": 54, "note": 64, "velocity": 116, "channel": 0}, {"type": "note_on", "time": 54, "note": 67, "velocity": 109, "channel": 0}, {"type": "note_off", "time": 60, "note": 67, "velocity": 109, "channel": 0}, {"type": "note_on", "time": 21, "note": 61, "velocity": 115, "channel": 0}, {"type": "note_off", "time": 82, "note": 61, "velocity": 115, "channel": 0}, {"type": "note_on", "time": 10, "note": 64, "velocity": 113, "channel": 0}, {"type": "note_off", "time": 78, "note": 64, "velocity": 113, "channel": 0}, {"type": "note_on", "time": 38, "note": 58, "velocity": 110, "channel": 0}, {"type": "note_off", "time": 112, "note": 58, "velocity": 110, "channel": 0}, {"type": "note_on", "time": 564, "note": 57, "velocity": 118, "channel": 0}, {"type": "note_off", "time": 73, "note": 57, "velocity": 118, "channel": 0}, {"type": "note_on", "time": 17, "note": 61, "velocity": 118, "channel": 0}, {"type": "note_off", "time": 77, "note": 61, "velocity": 118, "channel": 0}, {"type": "note_on", "time": 8, "note": 62, "velocity": 119, "channel": 0}, {"type": "note_off", "time": 84, "note": 62, "velocity": 119, "channel": 0}, {"type": "note_on", "time": 12, "note": 64, "velocity": 118, "channel": 0}, {"type": "note_off", "time": 75, "note": 64, "velocity": 118, "channel": 0}, {"type": "note_on", "time": 9, "note": 65, "velocity": 116, "channel": 0}, {"type": "note_off", "time": 102, "note": 65, "velocity": 116, "channel": 0}, {"type": "note_on", "time": 26, "note": 64, "velocity": 119, "channel": 0}, {"type": "note_off", "time": 82, "note": 64, "velocity": 119, "channel": 0}, {"type": "note_on", "time": 9, "note": 62, "velocity": 113, "channel": 0}, {"type": "note_off", "time": 67, "note": 62, "velocity": 113, "channel": 0}, {"type": "note_on", "time": 26, "note": 60, "velocity": 109, "channel": 0}, {"type": "note_off", "time": 75, "note": 60, "velocity": 109, "channel": 0}, {"type": "note_on", "time": 24, "note": 62, "velocity": 114, "channel": 0}, {"type": "note_off", "time": 70, "note": 62, "velocity": 114, "channel": 0}, {"type": "note_on", "time": 17, "note": 60, "velocity": 111, "channel": 0}, {"type": "note_off", "time": 85, "note": 60, "velocity": 111, "channel": 0}, {"type": "note_on", "time": 21, "note": 57, "velocity": 108, "channel": 0}, {"type": "note_off", "time": 96, "note": 57, "velocity": 108, "channel": 0}, {"type": "note_on", "time": 10, "note": 59, "velocity": 21, "channel": 0}, {"type": "note_off", "time": 62, "note": 59, "velocity": 21, "channel": 0}, {"type": "note_on", "time": 23, "note": 57, "velocity": 112, "channel": 0}, {"type": "note_off", "time": 76, "note": 57, "velocity": 112, "channel": 0}, {"type": "note_on", "time": 12, "note": 55, "velocity": 112, "channel": 0}, {"type": "note_off", "time": 65, "note": 55, "velocity": 112, "channel": 0}, {"type": "note_on", "time": 32, "note": 53, "velocity": 109, "channel": 0}, {"type": "note_off", "time": 77, "note": 53, "velocity": 109, "channel": 0}, {"type": "note_on", "time": 18, "note": 52, "velocity": 111, "channel": 0}, {"type": "note_off", "time": 80, "note": 52, "velocity": 111, "channel": 0}, {"type": "note_on", "time": 14, "note": 55, "velocity": 110, "channel": 0}, {"type": "note_off", "time": 73, "note": 55, "velocity": 110, "channel": 0}, {"type": "note_on", "time": 21, "note": 60, "velocity": 115, "channel": 0}, {"type": "note_off", "time": 96, "note": 60, "velocity": 115, "channel": 0}, {"type": "note_on", "time": 17, "note": 55, "velocity": 110, "channel": 0}, {"type": "note_off", "time": 63, "note": 55, "velocity": 110, "channel": 0}, {"type": "note_on", "time": 13, "note": 62, "velocity": 118, "channel": 0}, {"type": "note_off", "time": 96, "note": 62, "velocity": 118, "channel": 0}, {"type": "note_on", "time": 3, "note": 55, "velocity": 107, "channel": 0}, {"type": "note_off", "time": 64, "note": 55, "velocity": 107, "channel": 0}, {"type": "note_on", "time": 28, "note": 55, "velocity": 120, "channel": 0}, {"type": "note_off", "time": 83, "note": 55, "velocity": 120, "channel": 0}, {"type": "note_on", "time": 22, "note": 64, "velocity": 117, "channel": 0}, {"type": "note_off", "time": 155, "note": 64, "velocity": 117, "channel": 0}, {"type": "note_on", "time": 16, "note": 55, "velocity": 113, "channel": 0}, {"type": "note_off", "time": 83, "note": 55, "velocity": 113, "channel": 0}, {"type": "note_on", "time": 21, "note": 60, "velocity": 113, "channel": 0}, {"type": "note_off", "time": 89, "note": 60, "velocity": 113, "channel": 0}, {"type": "note_on", "time": 7, "note": 55, "velocity": 115, "channel": 0}, {"type": "note_off", "time": 83, "note": 55, "velocity": 115, "channel": 0}, {"type": "note_on", "time": 19, "note": 62, "velocity": 114, "channel": 0}, {"type": "note_off", "time": 77, "note": 62, "velocity": 114, "channel": 0}, {"type": "note_on", "time": 26, "note": 55, "velocity": 107, "channel": 0}, {"type": "note_off", "time": 71, "note": 55, "velocity": 107, "channel": 0}, {"type": "note_on", "time": 21, "note": 64, "velocity": 119, "channel": 0}, {"type": "note_off", "time": 100, "note": 64, "velocity": 119, "channel": 0}, {"type": "note_on", "time": 10, "note": 67, "velocity": 110, "channel": 0}, {"type": "note_off", "time": 57, "note": 67, "velocity": 110, "channel": 0}, {"type": "note_on", "time": 23, "note": 65, "velocity": 113, "channel": 0}, {"type": "note_off", "time": 136, "note": 65, "velocity": 113, "channel": 0}, {"type": "note_on", "time": 18, "note": 55, "velocity": 106, "channel": 0}, {"type": "note_off", "time": 83, "note": 55, "velocity": 106, "channel": 0}, {"type": "note_on", "time": 36, "note": 65, "velocity": 107, "channel": 0}, {"type": "note_off", "time": 107, "note": 65, "velocity": 107, "channel": 0}, {"type": "note_on", "time": 35, "note": 65, "velocity": 106, "channel": 0}, {"type": "note_off", "time": 83, "note": 65, "velocity": 106, "channel": 0}, {"type": "note_on", "time": 9, "note": 67, "velocity": 108, "channel": 0}, {"type": "note_off", "time": 118, "note": 67, "velocity": 108, "channel": 0}, {"type": "note_on", "time": 26, "note": 66, "velocity": 107, "channel": 0}, {"type": "note_off", "time": 70, "note": 66, "velocity": 107, "channel": 0}, {"type": "note_on", "time": 12, "note": 67, "velocity": 106, "channel": 0}, {"type": "note_off", "time": 217, "note": 67, "velocity": 106, "channel": 0}, {"type": "note_on", "time": 0, "note": 55, "velocity": 108, "channel": 0}, {"type": "note_off", "time": 57, "note": 55, "velocity": 108, "channel": 0}, {"type": "note_on", "time": 37, "note": 55, "velocity": 113, "channel": 0}, {"type": "note_off", "time": 71, "note": 55, "velocity": 113, "channel": 0}, {"type": "note_on", "time": 13, "note": 63, "velocity": 113, "channel": 0}, {"type": "note_off", "time": 28, "note": 63, "velocity": 113, "channel": 0}, {"type": "note_on", "time": 0, "note": 65, "velocity": 110, "channel": 0}, {"type": "note_off", "time": 163, "note": 65, "velocity": 110, "channel": 0}, {"type": "note_on", "time": 22, "note": 55, "velocity": 118, "channel": 0}, {"type": "note_off", "time": 69, "note": 55, "velocity": 118, "channel": 0}, {"type": "note_on", "time": 26, "note": 55, "velocity": 112, "channel": 0}, {"type": "note_off", "time": 72, "note": 55, "velocity": 112, "channel": 0}, {"type": "note_on", "time": 4, "note": 64, "velocity": 121, "channel": 0}, {"type": "note_off", "time": 83, "note": 64, "velocity": 121, "channel": 0}, {"type": "note_on", "time": 59, "note": 55, "velocity": 106, "channel": 0}, {"type": "note_off", "time": 79, "note": 55, "velocity": 106, "channel": 0}, {"type": "note_on", "time": 47, "note": 62, "velocity": 117, "channel": 0}, {"type": "note_off", "time": 107, "note": 62, "velocity": 117, "channel": 0}, {"type": "note_on", "time": 11, "note": 55, "velocity": 118, "channel": 0}, {"type": "note_off", "time": 69, "note": 55, "velocity": 118, "channel": 0}, {"type": "note_on", "time": 23, "note": 55, "velocity": 102, "channel": 0}, {"type": "note_off", "time": 78, "note": 55, "velocity": 102, "channel": 0}, {"type": "note_on", "time": 4, "note": 64, "velocity": 113, "channel": 0}, {"type": "note_off", "time": 94, "note": 64, "velocity": 113, "channel": 0}, {"type": "note_on", "time": 19, "note": 55, "velocity": 104, "channel": 0}, {"type": "note_off", "time": 71, "note": 55, "velocity": 104, "channel": 0}, {"type": "note_on", "time": 29, "note": 61, "velocity": 112, "channel": 0}, {"type": "note_off", "time": 68, "note": 61, "velocity": 112, "channel": 0}, {"type": "note_on", "time": 42, "note": 55, "velocity": 98, "channel": 0}, {"type": "note_off", "time": 69, "note": 55, "velocity": 98, "channel": 0}, {"type": "note_on", "time": 12, "note": 62, "velocity": 109, "channel": 0}, {"type": "note_off", "time": 90, "note": 62, "velocity": 109, "channel": 0}, {"type": "note_on", "time": 28, "note": 55, "velocity": 112, "channel": 0}, {"type": "note_off", "time": 76, "note": 55, "velocity": 112, "channel": 0}, {"type": "note_on", "time": 31, "note": 64, "velocity": 115, "channel": 0}, {"type": "note_off", "time": 144, "note": 64, "velocity": 115, "channel": 0}, {"type": "note_on", "time": 317, "note": 65, "velocity": 115, "channel": 0}, {"type": "note_off", "time": 84, "note": 65, "velocity": 115, "channel": 0}, {"type": "note_on", "time": 2, "note": 64, "velocity": 122, "channel": 0}, {"type": "note_off", "time": 92, "note": 64, "velocity": 122, "channel": 0}, {"type": "note_on", "time": 10, "note": 65, "velocity": 116, "channel": 0}, {"type": "note_off", "time": 66, "note": 65, "velocity": 116, "channel": 0}, {"type": "note_on", "time": 14, "note": 62, "velocity": 112, "channel": 0}, {"type": "note_off", "time": 90, "note": 62, "velocity": 112, "channel": 0}, {"type": "note_on", "time": 2, "note": 64, "velocity": 115, "channel": 0}, {"type": "note_off", "time": 79, "note": 64, "velocity": 115, "channel": 0}, {"type": "note_on", "time": 16, "note": 65, "velocity": 110, "channel": 0}, {"type": "note_off", "time": 84, "note": 65, "velocity": 110, "channel": 0}, {"type": "note_on", "time": 12, "note": 69, "velocity": 115, "channel": 0}, {"type": "note_off", "time": 91, "note": 69, "velocity": 115, "channel": 0}, {"type": "note_on", "time": 5, "note": 67, "velocity": 113, "channel": 0}, {"type": "note_off", "time": 77, "note": 67, "velocity": 113, "channel": 0}, {"type": "note_on", "time": 21, "note": 55, "velocity": 111, "channel": 0}, {"type": "note_off", "time": 69, "note": 55, "velocity": 111, "channel": 0}, {"type": "note_on", "time": 37, "note": 60, "velocity": 101, "channel": 0}, {"type": "note_off", "time": 67, "note": 60, "velocity": 101, "channel": 0}, {"type": "note_on", "time": 12, "note": 67, "velocity": 117, "channel": 0}, {"type": "note_off", "time": 77, "note": 67, "velocity": 117, "channel": 0}, {"type": "note_on", "time": 19, "note": 65, "velocity": 112, "channel": 0}, {"type": "note_off", "time": 75, "note": 65, "velocity": 112, "channel": 0}, {"type": "note_on", "time": 22, "note": 62, "velocity": 113, "channel": 0}, {"type": "note_off", "time": 84, "note": 62, "velocity": 113, "channel": 0}, {"type": "note_on", "time": 33, "note": 59, "velocity": 105, "channel": 0}, {"type": "note_off", "time": 73, "note": 59, "velocity": 105, "channel": 0}, {"type": "note_on", "time": 11, "note": 55, "velocity": 101, "channel": 0}, {"type": "note_off", "time": 70, "note": 55, "velocity": 101, "channel": 0}, {"type": "note_on", "time": 12, "note": 60, "velocity": 111, "channel": 0}, {"type": "note_off", "time": 95, "note": 60, "velocity": 111, "channel": 0}, {"type": "note_on", "time": 16, "note": 55, "velocity": 99, "channel": 0}, {"type": "note_off", "time": 58, "note": 55, "velocity": 99, "channel": 0}, {"type": "note_on", "time": 4, "note": 64, "velocity": 118, "channel": 0}, {"type": "note_off", "time": 93, "note": 64, "velocity": 118, "channel": 0}, {"type": "note_on", "time": 23, "note": 60, "velocity": 102, "channel": 0}, {"type": "note_off", "time": 78, "note": 60, "velocity": 102, "channel": 0}, {"type": "note_on", "time": 20, "note": 67, "velocity": 110, "channel": 0}, {"type": "note_off", "time": 176, "note": 67, "velocity": 110, "channel": 0}, {"type": "note_on", "time": 2, "note": 64, "velocity": 117, "channel": 0}, {"type": "note_off", "time": 92, "note": 64, "velocity": 117, "channel": 0}, {"type": "note_on", "time": 5, "note": 60, "velocity": 105, "channel": 0}, {"type": "note_off", "time": 49, "note": 60, "velocity": 105, "channel": 0}, {"type": "note_on", "time": 38, "note": 67, "velocity": 117, "channel": 0}, {"type": "note_off", "time": 86, "note": 67, "velocity": 117, "channel": 0}, {"type": "note_on", "time": 8, "note": 64, "velocity": 115, "channel": 0}, {"type": "note_off", "time": 55, "note": 64, "velocity": 115, "channel": 0}, {"type": "note_on", "time": 39, "note": 72, "velocity": 113, "channel": 0}, {"type": "note_off", "time": 98, "note": 72, "velocity": 113, "channel": 0}, {"type": "note_on", "time": 18, "note": 67, "velocity": 114, "channel": 0}, {"type": "note_off", "time": 69, "note": 67, "velocity": 114, "channel": 0}, {"type": "note_on", "time": 15, "note": 64, "velocity": 112, "channel": 0}, {"type": "note_off", "time": 214, "note": 64, "velocity": 112, "channel": 0}, {"type": "note_on", "time": 0, "note": 60, "velocity": 104, "channel": 0}, {"type": "note_off", "time": 85, "note": 60, "velocity": 104, "channel": 0}, {"type": "note_on", "time": 13, "note": 57, "velocity": 96, "channel": 0}, {"type": "note_off", "time": 66, "note": 57, "velocity": 96, "channel": 0}, {"type": "note_on", "time": 10, "note": 65, "velocity": 108, "channel": 0}, {"type": "note_off", "time": 73, "note": 65, "velocity": 108, "channel": 0}, {"type": "note_on", "time": 38, "note": 60, "velocity": 104, "channel": 0}, {"type": "note_off", "time": 73, "note": 60, "velocity": 104, "channel": 0}, {"type": "note_on", "time": 3, "note": 69, "velocity": 100, "channel": 0}, {"type": "note_off", "time": 366, "note": 69, "velocity": 100, "channel": 0}, {"type": "note_on", "time": 9, "note": 67, "velocity": 117, "channel": 0}, {"type": "note_off", "time": 55, "note": 67, "velocity": 117, "channel": 0}, {"type": "note_on", "time": 442, "note": 67, "velocity": 110, "channel": 0}, {"type": "note_off", "time": 704, "note": 67, "velocity": 110, "channel": 0}, {"type": "note_on", "time": 18, "note": 64, "velocity": 110, "channel": 0}, {"type": "note_off", "time": 84, "note": 64, "velocity": 110, "channel": 0}, {"type": "note_on", "time": 21, "note": 67, "velocity": 115, "channel": 0}, {"type": "note_off", "time": 85, "note": 67, "velocity": 115, "channel": 0}, {"type": "note_on", "time": 3, "note": 64, "velocity": 117, "channel": 0}, {"type": "note_off", "time": 89, "note": 64, "velocity": 117, "channel": 0}, {"type": "note_on", "time": 12, "note": 67, "velocity": 113, "channel": 0}, {"type": "note_off", "time": 73, "note": 67, "velocity": 113, "channel": 0}, {"type": "note_on", "time": 16, "note": 64, "velocity": 111, "channel": 0}, {"type": "note_off", "time": 75, "note": 64, "velocity": 111, "channel": 0}, {"type": "note_on", "time": 20, "note": 67, "velocity": 114, "channel": 0}, {"type": "note_off", "time": 82, "note": 67, "velocity": 114, "channel": 0}, {"type": "note_on", "time": 21, "note": 69, "velocity": 115, "channel": 0}, {"type": "note_off", "time": 80, "note": 69, "velocity": 115, "channel": 0}, {"type": "note_on", "time": 9, "note": 71, "velocity": 111, "channel": 0}, {"type": "note_off", "time": 91, "note": 71, "velocity": 111, "channel": 0}, {"type": "note_on", "time": 10, "note": 74, "velocity": 112, "channel": 0}, {"type": "note_off", "time": 85, "note": 74, "velocity": 112, "channel": 0}, {"type": "note_on", "time": 2, "note": 73, "velocity": 118, "channel": 0}, {"type": "note_off", "time": 66, "note": 73, "velocity": 118, "channel": 0}, {"type": "note_on", "time": 15, "note": 71, "velocity": 108, "channel": 0}, {"type": "note_off", "time": 70, "note": 71, "velocity": 108, "channel": 0}, {"type": "note_on", "time": 9, "note": 69, "velocity": 108, "channel": 0}, {"type": "note_off", "time": 88, "note": 69, "velocity": 108, "channel": 0}, {"type": "note_on", "time": 38, "note": 67, "velocity": 116, "channel": 0}, {"type": "note_off", "time": 87, "note": 67, "velocity": 116, "channel": 0}, {"type": "note_on", "time": 15, "note": 65, "velocity": 109, "channel": 0}, {"type": "note_off", "time": 91, "note": 65, "velocity": 109, "channel": 0}, {"type": "note_on", "time": 6, "note": 64, "velocity": 117, "channel": 0}, {"type": "note_off", "time": 90, "note": 64, "velocity": 117, "channel": 0}, {"type": "note_on", "time": 11, "note": 62, "velocity": 113, "channel": 0}, {"type": "note_off", "time": 79, "note": 62, "velocity": 113, "channel": 0}, {"type": "note_on", "time": 10, "note": 61, "velocity": 111, "channel": 0}, {"type": "note_off", "time": 79, "note": 61, "velocity": 111, "channel": 0}, {"type": "note_on", "time": 12, "note": 62, "velocity": 113, "channel": 0}, {"type": "note_off", "time": 78, "note": 62, "velocity": 113, "channel": 0}, {"type": "note_on", "time": 20, "note": 64, "velocity": 114, "channel": 0}, {"type": "note_off", "time": 81, "note": 64, "velocity": 114, "channel": 0}, {"type": "note_on", "time": 20, "note": 65, "velocity": 110, "channel": 0}, {"type": "note_off", "time": 78, "note": 65, "velocity": 110, "channel": 0}, {"type": "note_on", "time": 19, "note": 69, "velocity": 103, "channel": 0}, {"type": "note_off", "time": 63, "note": 69, "velocity": 103, "channel": 0}, {"type": "note_on", "time": 19, "note": 67, "velocity": 105, "channel": 0}, {"type": "note_off", "time": 36, "note": 67, "velocity": 105, "channel": 0}, {"type": "note_on", "time": 3, "note": 69, "velocity": 110, "channel": 0}, {"type": "note_off", "time": 51, "note": 69, "velocity": 110, "channel": 0}, {"type": "note_on", "time": 9, "note": 67, "velocity": 105, "channel": 0}, {"type": "note_off", "time": 111, "note": 67, "velocity": 105, "channel": 0}, {"type": "note_on", "time": 18, "note": 64, "velocity": 110, "channel": 0}, {"type": "note_off", "time": 81, "note": 64, "velocity": 110, "channel": 0}, {"type": "note_on", "time": 1, "note": 67, "velocity": 109, "channel": 0}, {"type": "note_off", "time": 73, "note": 67, "velocity": 109, "channel": 0}, {"type": "note_on", "time": 20, "note": 65, "velocity": 109, "channel": 0}, {"type": "note_off", "time": 43, "note": 65, "velocity": 109, "channel": 0}, {"type": "note_on", "time": 11, "note": 67, "velocity": 110, "channel": 0}, {"type": "note_off", "time": 36, "note": 67, "velocity": 110, "channel": 0}, {"type": "note_on", "time": 12, "note": 65, "velocity": 108, "channel": 0}, {"type": "note_off", "time": 70, "note": 65, "velocity": 108, "channel": 0}, {"type": "note_on", "time": 15, "note": 62, "velocity": 111, "channel": 0}, {"type": "note_off", "time": 59, "note": 62, "velocity": 111, "channel": 0}, {"type": "note_on", "time": 25, "note": 65, "velocity": 106, "channel": 0}, {"type": "note_off", "time": 86, "note": 65, "velocity": 106, "channel": 0}, {"type": "note_on", "time": 15, "note": 64, "velocity": 117, "channel": 0}, {"type": "note_off", "time": 47, "note": 64, "velocity": 117, "channel": 0}, {"type": "note_on", "time": 6, "note": 65, "velocity": 100, "channel": 0}, {"type": "note_off", "time": 28, "note": 65, "velocity": 100, "channel": 0}, {"type": "note_on", "time": 6, "note": 64, "velocity": 112, "channel": 0}, {"type": "note_off", "time": 84, "note": 64, "velocity": 112, "channel": 0}, {"type": "note_on", "time": 2, "note": 60, "velocity": 106, "channel": 0}, {"type": "note_off", "time": 78, "note": 60, "velocity": 106, "channel": 0}, {"type": "note_on", "time": 12, "note": 64, "velocity": 112, "channel": 0}, {"type": "note_off", "time": 92, "note": 64, "velocity": 112, "channel": 0}, {"type": "note_on", "time": 24, "note": 67, "velocity": 105, "channel": 0}, {"type": "note_off", "time": 172, "note": 67, "velocity": 105, "channel": 0}, {"type": "note_on", "time": 23, "note": 64, "velocity": 115, "channel": 0}, {"type": "note_off", "time": 78, "note": 64, "velocity": 115, "channel": 0}, {"type": "note_on", "time": 19, "note": 69, "velocity": 113, "channel": 0}, {"type": "note_off", "time": 66, "note": 69, "velocity": 113, "channel": 0}, {"type": "note_on", "time": 33, "note": 67, "velocity": 108, "channel": 0}, {"type": "note_off", "time": 557, "note": 67, "velocity": 108, "channel": 0}, {"type": "note_on", "time": 25, "note": 64, "velocity": 120, "channel": 0}, {"type": "note_off", "time": 96, "note": 64, "velocity": 120, "channel": 0}, {"type": "note_on", "time": 6, "note": 63, "velocity": 120, "channel": 0}, {"type": "note_off", "time": 24, "note": 63, "velocity": 120, "channel": 0}, {"type": "note_on", "time": 355, "note": 65, "velocity": 118, "channel": 0}, {"type": "note_off", "time": 83, "note": 65, "velocity": 118, "channel": 0}, {"type": "note_on", "time": 96, "note": 62, "velocity": 115, "channel": 0}, {"type": "note_off", "time": 91, "note": 62, "velocity": 115, "channel": 0}, {"type": "note_on", "time": 34, "note": 65, "velocity": 108, "channel": 0}, {"type": "note_off", "time": 418, "note": 65, "velocity": 108, "channel": 0}, {"type": "note_on", "time": 29, "note": 62, "velocity": 114, "channel": 0}, {"type": "note_off", "time": 84, "note": 62, "velocity": 114, "channel": 0}, {"type": "note_on", "time": 15, "note": 59, "velocity": 110, "channel": 0}, {"type": "note_off", "time": 87, "note": 59, "velocity": 110, "channel": 0}, {"type": "note_on", "time": 43, "note": 59, "velocity": 109, "channel": 0}, {"type": "note_off", "time": 68, "note": 59, "velocity": 109, "channel": 0}, {"type": "note_on", "time": 83, "note": 62, "velocity": 118, "channel": 0}, {"type": "note_off", "time": 92, "note": 62, "velocity": 118, "channel": 0}, {"type": "note_on", "time": 104, "note": 60, "velocity": 110, "channel": 0}, {"type": "note_off", "time": 83, "note": 60, "velocity": 110, "channel": 0}, {"type": "note_on", "time": 100, "note": 64, "velocity": 122, "channel": 0}, {"type": "note_off", "time": 102, "note": 64, "velocity": 122, "channel": 0}, {"type": "note_on", "time": 82, "note": 60, "velocity": 111, "channel": 0}, {"type": "note_off", "time": 90, "note": 60, "velocity": 111, "channel": 0}, {"type": "note_on", "time": 26, "note": 55, "velocity": 106, "channel": 0}, {"type": "note_off", "time": 311, "note": 55, "velocity": 106, "channel": 0}, {"type": "note_on", "time": 285, "note": 49, "velocity": 114, "channel": 0}, {"type": "note_off", "time": 71, "note": 49, "velocity": 114, "channel": 0}, {"type": "note_on", "time": 3, "note": 52, "velocity": 112, "channel": 0}, {"type": "note_off", "time": 85, "note": 52, "velocity": 112, "channel": 0}, {"type": "note_on", "time": 38, "note": 57, "velocity": 114, "channel": 0}, {"type": "note_off", "time": 80, "note": 57, "velocity": 114, "channel": 0}, {"type": "note_on", "time": 18, "note": 55, "velocity": 115, "channel": 0}, {"type": "note_off", "time": 96, "note": 55, "velocity": 115, "channel": 0}, {"type": "note_on", "time": 34, "note": 53, "velocity": 108, "channel": 0}, {"type": "note_off", "time": 203, "note": 53, "velocity": 108, "channel": 0}, {"type": "note_on", "time": 16, "note": 57, "velocity": 103, "channel": 0}, {"type": "note_off", "time": 89, "note": 57, "velocity": 103, "channel": 0}, {"type": "note_on", "time": 25, "note": 62, "velocity": 113, "channel": 0}, {"type": "note_off", "time": 85, "note": 62, "velocity": 113, "channel": 0}, {"type": "note_on", "time": 20, "note": 65, "velocity": 115, "channel": 0}, {"type": "note_off", "time": 69, "note": 65, "velocity": 115, "channel": 0}, {"type": "note_on", "time": 53, "note": 69, "velocity": 115, "channel": 0}, {"type": "note_off", "time": 69, "note": 69, "velocity": 115, "channel": 0}, {"type": "note_on", "time": 16, "note": 66, "velocity": 113, "channel": 0}, {"type": "note_off", "time": 82, "note": 66, "velocity": 113, "channel": 0}, {"type": "note_on", "time": 18, "note": 67, "velocity": 115, "channel": 0}, {"type": "note_off", "time": 100, "note": 67, "velocity": 115, "channel": 0}, {"type": "note_on", "time": 9, "note": 64, "velocity": 115, "channel": 0}, {"type": "note_off", "time": 107, "note": 64, "velocity": 115, "channel": 0}, {"type": "note_on", "time": 14, "note": 60, "velocity": 108, "channel": 0}, {"type": "note_off", "time": 43, "note": 60, "velocity": 108, "channel": 0}, {"type": "note_on", "time": 67, "note": 65, "velocity": 112, "channel": 0}, {"type": "note_off", "time": 104, "note": 65, "velocity": 112, "channel": 0}, {"type": "note_on", "time": 38, "note": 62, "velocity": 118, "channel": 0}, {"type": "note_off", "time": 75, "note": 62, "velocity": 118, "channel": 0}, {"type": "note_on", "time": 16, "note": 59, "velocity": 108, "channel": 0}, {"type": "note_off", "time": 91, "note": 59, "velocity": 108, "channel": 0}, {"type": "note_on", "time": 20, "note": 60, "velocity": 105, "channel": 0}, {"type": "note_off", "time": 250, "note": 60, "velocity": 105, "channel": 0}, {"type": "note_on", "time": 28, "note": 55, "velocity": 114, "channel": 0}, {"type": "note_off", "time": 110, "note": 55, "velocity": 114, "channel": 0}, {"type": "note_on", "time": 54, "note": 52, "velocity": 108, "channel": 0}, {"type": "note_off", "time": 127, "note": 52, "velocity": 108, "channel": 0}, {"type": "note_on", "time": 47, "note": 55, "velocity": 114, "channel": 0}, {"type": "note_off", "time": 128, "note": 55, "velocity": 114, "channel": 0}, {"type": "note_on", "time": 86, "note": 64, "velocity": 114, "channel": 0}, {"type": "note_off", "time": 259, "note": 64, "velocity": 114, "channel": 0}, {"type": "note_on", "time": 1, "note": 63, "velocity": 111, "channel": 0}, {"type": "note_off", "time": 69, "note": 63, "velocity": 111, "channel": 0}, {"type": "note_on", "time": 373, "note": 65, "velocity": 120, "channel": 0}, {"type": "note_off", "time": 89, "note": 65, "velocity": 120, "channel": 0}, {"type": "note_on", "time": 14, "note": 62, "velocity": 120, "channel": 0}, {"type": "note_off", "time": 96, "note": 62, "velocity": 120, "channel": 0}, {"type": "note_on", "time": 27, "note": 62, "velocity": 116, "channel": 0}, {"type": "note_off", "time": 107, "note": 62, "velocity": 116, "channel": 0}, {"type": "note_on", "time": 71, "note": 62, "velocity": 120, "channel": 0}, {"type": "note_off", "time": 83, "note": 62, "velocity": 120, "channel": 0}, {"type": "note_on", "time": 3, "note": 64, "velocity": 113, "channel": 0}, {"type": "note_off", "time": 27, "note": 64, "velocity": 113, "channel": 0}, {"type": "note_on", "time": 63, "note": 64, "velocity": 121, "channel": 0}, {"type": "note_off", "time": 64, "note": 64, "velocity": 121, "channel": 0}, {"type": "note_on", "time": 34, "note": 65, "velocity": 112, "channel": 0}, {"type": "note_off", "time": 81, "note": 65, "velocity": 112, "channel": 0}, {"type": "note_on", "time": 96, "note": 67, "velocity": 113, "channel": 0}, {"type": "note_off", "time": 208, "note": 67, "velocity": 113, "channel": 0}, {"type": "note_on", "time": 1, "note": 66, "velocity": 106, "channel": 0}, {"type": "note_on", "time": 160, "note": 65, "velocity": 109, "channel": 0}, {"type": "note_off", "time": 0, "note": 66, "velocity": 106, "channel": 0}, {"type": "note_off", "time": 100, "note": 65, "velocity": 109, "channel": 0}, {"type": "note_on", "time": 222, "note": 65, "velocity": 116, "channel": 0}, {"type": "note_off", "time": 68, "note": 65, "velocity": 116, "channel": 0}, {"type": "note_on", "time": 10, "note": 64, "velocity": 120, "channel": 0}, {"type": "note_off", "time": 146, "note": 64, "velocity": 120, "channel": 0}, {"type": "note_on", "time": 9, "note": 62, "velocity": 118, "channel": 0}, {"type": "note_off", "time": 110, "note": 62, "velocity": 118, "channel": 0}, {"type": "note_on", "time": 29, "note": 60, "velocity": 116, "channel": 0}, {"type": "note_off", "time": 122, "note": 60, "velocity": 116, "channel": 0}, {"type": "note_on", "time": 43, "note": 62, "velocity": 115, "channel": 0}, {"type": "note_off", "time": 102, "note": 62, "velocity": 115, "channel": 0}, {"type": "note_on", "time": 19, "note": 64, "velocity": 113, "channel": 0}, {"type": "note_off", "time": 154, "note": 64, "velocity": 113, "channel": 0}, {"type": "note_on", "time": 28, "note": 61, "velocity": 113, "channel": 0}, {"type": "note_off", "time": 319, "note": 61, "velocity": 113, "channel": 0}, {"type": "note_on", "time": 15, "note": 60, "velocity": 96, "channel": 0}, {"type": "note_off", "time": 48, "note": 60, "velocity": 96, "channel": 0}, {"type": "note_on", "time": 297, "note": 64, "velocity": 123, "channel": 0}, {"type": "note_off", "time": 105, "note": 64, "velocity": 123, "channel": 0}, {"type": "note_on", "time": 9, "note": 65, "velocity": 114, "channel": 0}, {"type": "note_off", "time": 100, "note": 65, "velocity": 114, "channel": 0}, {"type": "note_on", "time": 19, "note": 64, "velocity": 121, "channel": 0}, {"type": "note_off", "time": 122, "note": 64, "velocity": 121, "channel": 0}, {"type": "note_on", "time": 32, "note": 62, "velocity": 116, "channel": 0}, {"type": "note_off", "time": 105, "note": 62, "velocity": 116, "channel": 0}, {"type": "note_on", "time": 15, "note": 60, "velocity": 114, "channel": 0}, {"type": "note_off", "time": 97, "note": 60, "velocity": 114, "channel": 0}, {"type": "note_on", "time": 2, "note": 62, "velocity": 115, "channel": 0}, {"type": "note_off", "time": 109, "note": 62, "velocity": 115, "channel": 0}, {"type": "note_on", "time": 63, "note": 64, "velocity": 119, "channel": 0}, {"type": "note_off", "time": 95, "note": 64, "velocity": 119, "channel": 0}, {"type": "note_on", "time": 18, "note": 59, "velocity": 111, "channel": 0}, {"type": "note_off", "time": 100, "note": 59, "velocity": 111, "channel": 0}, {"type": "note_on", "time": 20, "note": 57, "velocity": 110, "channel": 0}, {"type": "note_off", "time": 93, "note": 57, "velocity": 110, "channel": 0}, {"type": "note_on", "time": 46, "note": 55, "velocity": 114, "channel": 0}, {"type": "note_off", "time": 96, "note": 55, "velocity": 114, "channel": 0}, {"type": "note_on", "time": 15, "note": 53, "velocity": 111, "channel": 0}, {"type": "note_off", "time": 101, "note": 53, "velocity": 111, "channel": 0}, {"type": "note_on", "time": 27, "note": 53, "velocity": 115, "channel": 0}, {"type": "note_off", "time": 82, "note": 53, "velocity": 115, "channel": 0}, {"type": "note_on", "time": 57, "note": 53, "velocity": 110, "channel": 0}, {"type": "note_off", "time": 93, "note": 53, "velocity": 110, "channel": 0}, {"type": "note_on", "time": 10, "note": 52, "velocity": 113, "channel": 0}, {"type": "note_off", "time": 95, "note": 52, "velocity": 113, "channel": 0}, {"type": "note_on", "time": 48, "note": 55, "velocity": 118, "channel": 0}, {"type": "note_off", "time": 117, "note": 55, "velocity": 118, "channel": 0}, {"type": "note_on", "time": 46, "note": 60, "velocity": 110, "channel": 0}, {"type": "note_off", "time": 74, "note": 60, "velocity": 110, "channel": 0}, {"type": "note_on", "time": 23, "note": 62, "velocity": 114, "channel": 0}, {"type": "note_off", "time": 108, "note": 62, "velocity": 114, "channel": 0}, {"type": "note_on", "time": 90, "note": 60, "velocity": 106, "channel": 0}, {"type": "note_off", "time": 110, "note": 60, "velocity": 106, "channel": 0}, {"type": "note_on", "time": 92, "note": 64, "velocity": 116, "channel": 0}, {"type": "note_off", "time": 118, "note": 64, "velocity": 116, "channel": 0}, {"type": "note_on", "time": 7, "note": 62, "velocity": 114, "channel": 0}, {"type": "note_off", "time": 88, "note": 62, "velocity": 114, "channel": 0}, {"type": "note_on", "time": 12, "note": 60, "velocity": 109, "channel": 0}, {"type": "note_off", "time": 132, "note": 60, "velocity": 109, "channel": 0}, {"type": "note_on", "time": 3, "note": 62, "velocity": 113, "channel": 0}, {"type": "note_off", "time": 101, "note": 62, "velocity": 113, "channel": 0}, {"type": "note_on", "time": 55, "note": 64, "velocity": 118, "channel": 0}, {"type": "note_off", "time": 118, "note": 64, "velocity": 118, "channel": 0}, {"type": "note_on", "time": 60, "note": 60, "velocity": 109, "channel": 0}, {"type": "note_off", "time": 310, "note": 60, "velocity": 109, "channel": 0}, {"type": "note_on", "time": 68, "note": 55, "velocity": 116, "channel": 0}, {"type": "note_off", "time": 70, "note": 55, "velocity": 116, "channel": 0}, {"type": "note_on", "time": 10, "note": 60, "velocity": 105, "channel": 0}, {"type": "note_off", "time": 82, "note": 60, "velocity": 105, "channel": 0}, {"type": "note_on", "time": 127, "note": 64, "velocity": 118, "channel": 0}, {"type": "note_off", "time": 114, "note": 64, "velocity": 118, "channel": 0}, {"type": "note_on", "time": 352, "note": 65, "velocity": 118, "channel": 0}, {"type": "note_off", "time": 78, "note": 65, "velocity": 118, "channel": 0}, {"type": "note_on", "time": 43, "note": 65, "velocity": 117, "channel": 0}, {"type": "note_off", "time": 78, "note": 65, "velocity": 117, "channel": 0}, {"type": "note_on", "time": 3, "note": 62, "velocity": 114, "channel": 0}, {"type": "note_off", "time": 59, "note": 62, "velocity": 114, "channel": 0}, {"type": "note_on", "time": 27, "note": 59, "velocity": 109, "channel": 0}, {"type": "note_off", "time": 91, "note": 59, "velocity": 109, "channel": 0}, {"type": "note_on", "time": 5, "note": 55, "velocity": 100, "channel": 0}, {"type": "note_off", "time": 70, "note": 55, "velocity": 100, "channel": 0}, {"type": "note_on", "time": 21, "note": 60, "velocity": 114, "channel": 0}, {"type": "note_off", "time": 104, "note": 60, "velocity": 114, "channel": 0}, {"type": "note_on", "time": 6, "note": 55, "velocity": 104, "channel": 0}, {"type": "note_off", "time": 48, "note": 55, "velocity": 104, "channel": 0}, {"type": "note_on", "time": 18, "note": 60, "velocity": 111, "channel": 0}, {"type": "note_off", "time": 96, "note": 60, "velocity": 111, "channel": 0}, {"type": "note_on", "time": 5, "note": 64, "velocity": 120, "channel": 0}, {"type": "note_off", "time": 74, "note": 64, "velocity": 120, "channel": 0}, {"type": "note_on", "time": 21, "note": 67, "velocity": 116, "channel": 0}, {"type": "note_off", "time": 83, "note": 67, "velocity": 116, "channel": 0}, {"type": "note_on", "time": 46, "note": 64, "velocity": 99, "channel": 0}, {"type": "note_off", "time": 29, "note": 64, "velocity": 99, "channel": 0}, {"type": "note_on", "time": 25, "note": 61, "velocity": 106, "channel": 0}, {"type": "note_off", "time": 79, "note": 61, "velocity": 106, "channel": 0}, {"type": "note_on", "time": 25, "note": 67, "velocity": 105, "channel": 0}, {"type": "note_off", "time": 68, "note": 67, "velocity": 105, "channel": 0}, {"type": "note_on", "time": 7, "note": 65, "velocity": 114, "channel": 0}, {"type": "note_off", "time": 93, "note": 65, "velocity": 114, "channel": 0}, {"type": "note_on", "time": 9, "note": 64, "velocity": 118, "channel": 0}, {"type": "note_off", "time": 104, "note": 64, "velocity": 118, "channel": 0}, {"type": "note_on", "time": 10, "note": 62, "velocity": 113, "channel": 0}, {"type": "note_off", "time": 101, "note": 62, "velocity": 113, "channel": 0}, {"type": "note_on", "time": 23, "note": 60, "velocity": 99, "channel": 0}, {"type": "note_off", "time": 70, "note": 60, "velocity": 99, "channel": 0}, {"type": "note_on", "time": 1, "note": 61, "velocity": 115, "channel": 0}, {"type": "note_off", "time": 96, "note": 61, "velocity": 115, "channel": 0}, {"type": "note_on", "time": 0, "note": 58, "velocity": 110, "channel": 0}, {"type": "note_off", "time": 86, "note": 58, "velocity": 110, "channel": 0}, {"type": "note_on", "time": 7, "note": 57, "velocity": 110, "channel": 0}, {"type": "note_off", "time": 96, "note": 57, "velocity": 110, "channel": 0}, {"type": "note_on", "time": 7, "note": 55, "velocity": 103, "channel": 0}, {"type": "note_off", "time": 93, "note": 55, "velocity": 103, "channel": 0}, {"type": "note_on", "time": 16, "note": 52, "velocity": 107, "channel": 0}, {"type": "note_off", "time": 88, "note": 52, "velocity": 107, "channel": 0}, {"type": "note_on", "time": 15, "note": 53, "velocity": 101, "channel": 0}, {"type": "note_off", "time": 68, "note": 53, "velocity": 101, "channel": 0}, {"type": "note_on", "time": 7, "note": 55, "velocity": 109, "channel": 0}, {"type": "note_off", "time": 84, "note": 55, "velocity": 109, "channel": 0}, {"type": "note_on", "time": 20, "note": 57, "velocity": 104, "channel": 0}, {"type": "note_off", "time": 83, "note": 57, "velocity": 104, "channel": 0}, {"type": "note_on", "time": 25, "note": 50, "velocity": 108, "channel": 0}, {"type": "note_off", "time": 164, "note": 50, "velocity": 108, "channel": 0}, {"type": "note_on", "time": 404, "note": 49, "velocity": 116, "channel": 0}, {"type": "note_off", "time": 54, "note": 49, "velocity": 116, "channel": 0}, {"type": "note_on", "time": 23, "note": 55, "velocity": 109, "channel": 0}, {"type": "note_off", "time": 55, "note": 55, "velocity": 109, "channel": 0}, {"type": "note_on", "time": 5, "note": 57, "velocity": 114, "channel": 0}, {"type": "note_off", "time": 50, "note": 57, "velocity": 114, "channel": 0}, {"type": "note_on", "time": 15, "note": 48, "velocity": 114, "channel": 0}, {"type": "note_off", "time": 63, "note": 48, "velocity": 114, "channel": 0}, {"type": "note_on", "time": 18, "note": 57, "velocity": 105, "channel": 0}, {"type": "note_off", "time": 55, "note": 57, "velocity": 105, "channel": 0}, {"type": "note_on", "time": 7, "note": 55, "velocity": 117, "channel": 0}, {"type": "note_off", "time": 59, "note": 55, "velocity": 117, "channel": 0}, {"type": "note_on", "time": 1, "note": 59, "velocity": 107, "channel": 0}, {"type": "note_off", "time": 86, "note": 59, "velocity": 107, "channel": 0}, {"type": "note_on", "time": 10, "note": 60, "velocity": 106, "channel": 0}, {"type": "note_off", "time": 45, "note": 60, "velocity": 106, "channel": 0}, {"type": "note_on", "time": 1, "note": 62, "velocity": 110, "channel": 0}, {"type": "note_off", "time": 48, "note": 62, "velocity": 110, "channel": 0}, {"type": "note_on", "time": 10, "note": 64, "velocity": 118, "channel": 0}, {"type": "note_off", "time": 56, "note": 64, "velocity": 118, "channel": 0}, {"type": "note_on", "time": 7, "note": 60, "velocity": 107, "channel": 0}, {"type": "note_off", "time": 55, "note": 60, "velocity": 107, "channel": 0}, {"type": "note_on", "time": 28, "note": 55, "velocity": 104, "channel": 0}, {"type": "note_off", "time": 47, "note": 55, "velocity": 104, "channel": 0}, {"type": "note_on", "time": 28, "note": 53, "velocity": 108, "channel": 0}, {"type": "note_off", "time": 87, "note": 53, "velocity": 108, "channel": 0}, {"type": "note_on", "time": 9, "note": 52, "velocity": 112, "channel": 0}, {"type": "note_off", "time": 75, "note": 52, "velocity": 112, "channel": 0}, {"type": "note_on", "time": 3, "note": 53, "velocity": 108, "channel": 0}, {"type": "note_off", "time": 186, "note": 53, "velocity": 108, "channel": 0}, {"type": "note_on", "time": 259, "note": 52, "velocity": 109, "channel": 0}, {"type": "note_off", "time": 41, "note": 52, "velocity": 109, "channel": 0}, {"type": "note_on", "time": 15, "note": 55, "velocity": 112, "channel": 0}, {"type": "note_off", "time": 82, "note": 55, "velocity": 112, "channel": 0}, {"type": "note_on", "time": 0, "note": 60, "velocity": 107, "channel": 0}, {"type": "note_off", "time": 46, "note": 60, "velocity": 107, "channel": 0}, {"type": "note_on", "time": 3, "note": 62, "velocity": 120, "channel": 0}, {"type": "note_off", "time": 46, "note": 62, "velocity": 120, "channel": 0}, {"type": "note_on", "time": 14, "note": 64, "velocity": 118, "channel": 0}, {"type": "note_off", "time": 75, "note": 64, "velocity": 118, "channel": 0}, {"type": "note_on", "time": 2, "note": 65, "velocity": 114, "channel": 0}, {"type": "note_off", "time": 74, "note": 65, "velocity": 114, "channel": 0}, {"type": "note_on", "time": 6, "note": 66, "velocity": 112, "channel": 0}, {"type": "note_off", "time": 32, "note": 66, "velocity": 112, "channel": 0}, {"type": "note_on", "time": 14, "note": 67, "velocity": 114, "channel": 0}, {"type": "note_off", "time": 110, "note": 67, "velocity": 114, "channel": 0}, {"type": "note_on", "time": 20, "note": 64, "velocity": 111, "channel": 0}, {"type": "note_off", "time": 77, "note": 64, "velocity": 111, "channel": 0}, {"type": "note_on", "time": 3, "note": 65, "velocity": 116, "channel": 0}, {"type": "note_off", "time": 111, "note": 65, "velocity": 116, "channel": 0}, {"type": "note_on", "time": 2, "note": 69, "velocity": 117, "channel": 0}, {"type": "note_off", "time": 101, "note": 69, "velocity": 117, "channel": 0}, {"type": "note_on", "time": 111, "note": 71, "velocity": 113, "channel": 0}, {"type": "note_off", "time": 53, "note": 71, "velocity": 113, "channel": 0}, {"type": "note_on", "time": 5, "note": 72, "velocity": 116, "channel": 0}, {"type": "note_off", "time": 105, "note": 72, "velocity": 116, "channel": 0}, {"type": "note_on", "time": 22, "note": 69, "velocity": 108, "channel": 0}, {"type": "note_off", "time": 38, "note": 69, "velocity": 108, "channel": 0}, {"type": "note_on", "time": 39, "note": 72, "velocity": 112, "channel": 0}, {"type": "note_off", "time": 90, "note": 72, "velocity": 112, "channel": 0}, {"type": "note_on", "time": 7, "note": 69, "velocity": 113, "channel": 0}, {"type": "note_off", "time": 91, "note": 69, "velocity": 113, "channel": 0}, {"type": "note_on", "time": 7, "note": 65, "velocity": 111, "channel": 0}, {"type": "note_off", "time": 68, "note": 65, "velocity": 111, "channel": 0}, {"type": "note_on", "time": 25, "note": 62, "velocity": 110, "channel": 0}, {"type": "note_off", "time": 77, "note": 62, "velocity": 110, "channel": 0}, {"type": "note_on", "time": 7, "note": 57, "velocity": 104, "channel": 0}, {"type": "note_off", "time": 77, "note": 57, "velocity": 104, "channel": 0}, {"type": "note_on", "time": 29, "note": 55, "velocity": 103, "channel": 0}, {"type": "note_off", "time": 91, "note": 55, "velocity": 103, "channel": 0}, {"type": "note_on", "time": 10, "note": 59, "velocity": 106, "channel": 0}, {"type": "note_off", "time": 73, "note": 59, "velocity": 106, "channel": 0}, {"type": "note_on", "time": 16, "note": 60, "velocity": 101, "channel": 0}, {"type": "note_off", "time": 82, "note": 60, "velocity": 101, "channel": 0}, {"type": "note_on", "time": 12, "note": 62, "velocity": 113, "channel": 0}, {"type": "note_off", "time": 96, "note": 62, "velocity": 113, "channel": 0}, {"type": "note_on", "time": 7, "note": 64, "velocity": 117, "channel": 0}, {"type": "note_off", "time": 72, "note": 64, "velocity": 117, "channel": 0}, {"type": "note_on", "time": 5, "note": 60, "velocity": 108, "channel": 0}, {"type": "note_off", "time": 82, "note": 60, "velocity": 108, "channel": 0}, {"type": "note_on", "time": 16, "note": 62, "velocity": 112, "channel": 0}, {"type": "note_off", "time": 79, "note": 62, "velocity": 112, "channel": 0}, {"type": "note_on", "time": 18, "note": 64, "velocity": 114, "channel": 0}, {"type": "note_off", "time": 79, "note": 64, "velocity": 114, "channel": 0}, {"type": "note_on", "time": 36, "note": 65, "velocity": 109, "channel": 0}, {"type": "note_off", "time": 34, "note": 65, "velocity": 109, "channel": 0}, {"type": "note_on", "time": 38, "note": 67, "velocity": 106, "channel": 0}, {"type": "note_off", "time": 171, "note": 67, "velocity": 106, "channel": 0}, {"type": "note_on", "time": 24, "note": 64, "velocity": 115, "channel": 0}, {"type": "note_on", "time": 99, "note": 67, "velocity": 111, "channel": 0}, {"type": "note_off", "time": 0, "note": 64, "velocity": 115, "channel": 0}, {"type": "note_off", "time": 83, "note": 67, "velocity": 111, "channel": 0}, {"type": "note_on", "time": 16, "note": 67, "velocity": 115, "channel": 0}, {"type": "note_off", "time": 100, "note": 67, "velocity": 115, "channel": 0}, {"type": "note_on", "time": 20, "note": 69, "velocity": 112, "channel": 0}, {"type": "note_off", "time": 60, "note": 69, "velocity": 112, "channel": 0}, {"type": "note_on", "time": 5, "note": 70, "velocity": 116, "channel": 0}, {"type": "note_off", "time": 80, "note": 70, "velocity": 116, "channel": 0}, {"type": "note_on", "time": 36, "note": 67, "velocity": 104, "channel": 0}, {"type": "note_off", "time": 72, "note": 67, "velocity": 104, "channel": 0}, {"type": "note_on", "time": 6, "note": 66, "velocity": 111, "channel": 0}, {"type": "note_off", "time": 91, "note": 66, "velocity": 111, "channel": 0}, {"type": "note_on", "time": 9, "note": 61, "velocity": 108, "channel": 0}, {"type": "note_off", "time": 81, "note": 61, "velocity": 108, "channel": 0}, {"type": "note_on", "time": 18, "note": 58, "velocity": 102, "channel": 0}, {"type": "note_off", "time": 62, "note": 58, "velocity": 102, "channel": 0}, {"type": "note_on", "time": 13, "note": 54, "velocity": 104, "channel": 0}, {"type": "note_off", "time": 44, "note": 54, "velocity": 104, "channel": 0}, {"type": "note_on", "time": 50, "note": 64, "velocity": 116, "channel": 0}, {"type": "note_off", "time": 96, "note": 64, "velocity": 116, "channel": 0}, {"type": "note_on", "time": 6, "note": 65, "velocity": 107, "channel": 0}, {"type": "note_off", "time": 190, "note": 65, "velocity": 107, "channel": 0}, {"type": "note_on", "time": 27, "note": 67, "velocity": 105, "channel": 0}, {"type": "note_off", "time": 73, "note": 67, "velocity": 105, "channel": 0}, {"type": "note_on", "time": 12, "note": 64, "velocity": 119, "channel": 0}, {"type": "note_off", "time": 82, "note": 64, "velocity": 119, "channel": 0}, {"type": "note_on", "time": 23, "note": 60, "velocity": 106, "channel": 0}, {"type": "note_off", "time": 48, "note": 60, "velocity": 106, "channel": 0}, {"type": "note_on", "time": 37, "note": 57, "velocity": 106, "channel": 0}, {"type": "note_off", "time": 91, "note": 57, "velocity": 106, "channel": 0}, {"type": "note_on", "time": 14, "note": 53, "velocity": 103, "channel": 0}, {"type": "note_off", "time": 54, "note": 53, "velocity": 103, "channel": 0}, {"type": "note_on", "time": 18, "note": 59, "velocity": 104, "channel": 0}, {"type": "note_off", "time": 120, "note": 59, "velocity": 104, "channel": 0}, {"type": "note_on", "time": 1, "note": 57, "velocity": 108, "channel": 0}, {"type": "note_off", "time": 61, "note": 57, "velocity": 108, "channel": 0}, {"type": "note_on", "time": 21, "note": 55, "velocity": 114, "channel": 0}, {"type": "note_off", "time": 81, "note": 55, "velocity": 114, "channel": 0}, {"type": "note_on", "time": 21, "note": 52, "velocity": 105, "channel": 0}, {"type": "note_off", "time": 57, "note": 52, "velocity": 105, "channel": 0}, {"type": "note_on", "time": 16, "note": 53, "velocity": 102, "channel": 0}, {"type": "note_off", "time": 72, "note": 53, "velocity": 102, "channel": 0}, {"type": "note_on", "time": 27, "note": 62, "velocity": 113, "channel": 0}, {"type": "note_off", "time": 70, "note": 62, "velocity": 113, "channel": 0}, {"type": "note_on", "time": 25, "note": 59, "velocity": 107, "channel": 0}, {"type": "note_off", "time": 83, "note": 59, "velocity": 107, "channel": 0}, {"type": "note_on", "time": 11, "note": 55, "velocity": 97, "channel": 0}, {"type": "note_off", "time": 73, "note": 55, "velocity": 97, "channel": 0}, {"type": "note_on", "time": 12, "note": 60, "velocity": 104, "channel": 0}, {"type": "note_off", "time": 77, "note": 60, "velocity": 104, "channel": 0}, {"type": "note_on", "time": 29, "note": 62, "velocity": 111, "channel": 0}, {"type": "note_off", "time": 65, "note": 62, "velocity": 111, "channel": 0}, {"type": "note_on", "time": 6, "note": 64, "velocity": 115, "channel": 0}, {"type": "note_off", "time": 91, "note": 64, "velocity": 115, "channel": 0}, {"type": "note_on", "time": 42, "note": 67, "velocity": 109, "channel": 0}, {"type": "note_off", "time": 73, "note": 67, "velocity": 109, "channel": 0}, {"type": "note_on", "time": 384, "note": 69, "velocity": 115, "channel": 0}, {"type": "note_off", "time": 109, "note": 69, "velocity": 115, "channel": 0}, {"type": "note_on", "time": 11, "note": 67, "velocity": 106, "channel": 0}, {"type": "note_off", "time": 51, "note": 67, "velocity": 106, "channel": 0}, {"type": "note_on", "time": 5, "note": 69, "velocity": 113, "channel": 0}, {"type": "note_off", "time": 105, "note": 69, "velocity": 113, "channel": 0}, {"type": "note_on", "time": 10, "note": 67, "velocity": 115, "channel": 0}, {"type": "note_off", "time": 81, "note": 67, "velocity": 115, "channel": 0}, {"type": "note_on", "time": 0, "note": 64, "velocity": 121, "channel": 0}, {"type": "note_off", "time": 101, "note": 64, "velocity": 121, "channel": 0}, {"type": "note_on", "time": 3, "note": 60, "velocity": 106, "channel": 0}, {"type": "note_off", "time": 83, "note": 60, "velocity": 106, "channel": 0}, {"type": "note_on", "time": 6, "note": 58, "velocity": 110, "channel": 0}, {"type": "note_off", "time": 92, "note": 58, "velocity": 110, "channel": 0}, {"type": "note_on", "time": 30, "note": 53, "velocity": 106, "channel": 0}, {"type": "note_off", "time": 73, "note": 53, "velocity": 106, "channel": 0}, {"type": "note_on", "time": 3, "note": 57, "velocity": 113, "channel": 0}, {"type": "note_off", "time": 86, "note": 57, "velocity": 113, "channel": 0}, {"type": "note_on", "time": 15, "note": 60, "velocity": 115, "channel": 0}, {"type": "note_off", "time": 90, "note": 60, "velocity": 115, "channel": 0}, {"type": "note_on", "time": 10, "note": 62, "velocity": 107, "channel": 0}, {"type": "note_off", "time": 78, "note": 62, "velocity": 107, "channel": 0}, {"type": "note_on", "time": 27, "note": 64, "velocity": 110, "channel": 0}, {"type": "note_off", "time": 64, "note": 64, "velocity": 110, "channel": 0}, {"type": "note_on", "time": 0, "note": 67, "velocity": 116, "channel": 0}, {"type": "note_off", "time": 100, "note": 67, "velocity": 116, "channel": 0}, {"type": "note_on", "time": 25, "note": 65, "velocity": 113, "channel": 0}, {"type": "note_off", "time": 69, "note": 65, "velocity": 113, "channel": 0}, {"type": "note_on", "time": 19, "note": 60, "velocity": 104, "channel": 0}, {"type": "note_off", "time": 78, "note": 60, "velocity": 104, "channel": 0}, {"type": "note_on", "time": 9, "note": 62, "velocity": 107, "channel": 0}, {"type": "note_off", "time": 78, "note": 62, "velocity": 107, "channel": 0}, {"type": "note_on", "time": 14, "note": 64, "velocity": 120, "channel": 0}, {"type": "note_off", "time": 92, "note": 64, "velocity": 120, "channel": 0}, {"type": "note_on", "time": 9, "note": 60, "velocity": 109, "channel": 0}, {"type": "note_off", "time": 77, "note": 60, "velocity": 109, "channel": 0}, {"type": "note_on", "time": 10, "note": 55, "velocity": 115, "channel": 0}, {"type": "note_off", "time": 87, "note": 55, "velocity": 115, "channel": 0}, {"type": "note_on", "time": 6, "note": 52, "velocity": 111, "channel": 0}, {"type": "note_off", "time": 83, "note": 52, "velocity": 111, "channel": 0}, {"type": "note_on", "time": 1, "note": 53, "velocity": 110, "channel": 0}, {"type": "note_off", "time": 91, "note": 53, "velocity": 110, "channel": 0}, {"type": "note_on", "time": 1, "note": 55, "velocity": 103, "channel": 0}, {"type": "note_off", "time": 45, "note": 55, "velocity": 103, "channel": 0}, {"type": "note_on", "time": 11, "note": 57, "velocity": 106, "channel": 0}, {"type": "note_off", "time": 45, "note": 57, "velocity": 106, "channel": 0}, {"type": "note_on", "time": 32, "note": 59, "velocity": 108, "channel": 0}, {"type": "note_off", "time": 82, "note": 59, "velocity": 108, "channel": 0}, {"type": "note_on", "time": 1, "note": 62, "velocity": 116, "channel": 0}, {"type": "note_off", "time": 78, "note": 62, "velocity": 116, "channel": 0}, {"type": "note_on", "time": 6, "note": 60, "velocity": 105, "channel": 0}, {"type": "note_off", "time": 90, "note": 60, "velocity": 105, "channel": 0}, {"type": "note_on", "time": 19, "note": 55, "velocity": 117, "channel": 0}, {"type": "note_off", "time": 69, "note": 55, "velocity": 117, "channel": 0}, {"type": "note_on", "time": 11, "note": 60, "velocity": 106, "channel": 0}, {"type": "note_off", "time": 84, "note": 60, "velocity": 106, "channel": 0}, {"type": "note_on", "time": 18, "note": 62, "velocity": 115, "channel": 0}, {"type": "note_off", "time": 88, "note": 62, "velocity": 115, "channel": 0}, {"type": "note_on", "time": 2, "note": 64, "velocity": 115, "channel": 0}, {"type": "note_off", "time": 90, "note": 64, "velocity": 115, "channel": 0}, {"type": "note_on", "time": 20, "note": 59, "velocity": 98, "channel": 0}, {"type": "note_off", "time": 81, "note": 59, "velocity": 98, "channel": 0}, {"type": "note_on", "time": 9, "note": 60, "velocity": 103, "channel": 0}, {"type": "note_off", "time": 68, "note": 60, "velocity": 103, "channel": 0}, {"type": "note_on", "time": 21, "note": 64, "velocity": 117, "channel": 0}, {"type": "note_off", "time": 74, "note": 64, "velocity": 117, "channel": 0}, {"type": "note_on", "time": 16, "note": 59, "velocity": 101, "channel": 0}, {"type": "note_off", "time": 82, "note": 59, "velocity": 101, "channel": 0}, {"type": "note_on", "time": 16, "note": 64, "velocity": 115, "channel": 0}, {"type": "note_off", "time": 77, "note": 64, "velocity": 115, "channel": 0}, {"type": "note_on", "time": 12, "note": 58, "velocity": 109, "channel": 0}, {"type": "note_off", "time": 69, "note": 58, "velocity": 109, "channel": 0}, {"type": "note_on", "time": 30, "note": 61, "velocity": 108, "channel": 0}, {"type": "note_off", "time": 64, "note": 61, "velocity": 108, "channel": 0}, {"type": "note_on", "time": 29, "note": 55, "velocity": 108, "channel": 0}, {"type": "note_off", "time": 78, "note": 55, "velocity": 108, "channel": 0}, {"type": "note_on", "time": 25, "note": 58, "velocity": 106, "channel": 0}, {"type": "note_off", "time": 66, "note": 58, "velocity": 106, "channel": 0}, {"type": "note_on", "time": 24, "note": 52, "velocity": 114, "channel": 0}, {"type": "note_off", "time": 90, "note": 52, "velocity": 114, "channel": 0}, {"type": "note_on", "time": 12, "note": 58, "velocity": 112, "channel": 0}, {"type": "note_off", "time": 63, "note": 58, "velocity": 112, "channel": 0}, {"type": "note_on", "time": 15, "note": 58, "velocity": 109, "channel": 0}, {"type": "note_off", "time": 81, "note": 58, "velocity": 109, "channel": 0}, {"type": "note_on", "time": 20, "note": 57, "velocity": 116, "channel": 0}, {"type": "note_off", "time": 74, "note": 57, "velocity": 116, "channel": 0}, {"type": "note_on", "time": 21, "note": 57, "velocity": 111, "channel": 0}, {"type": "note_off", "time": 87, "note": 57, "velocity": 111, "channel": 0}, {"type": "note_on", "time": 11, "note": 55, "velocity": 104, "channel": 0}, {"type": "note_off", "time": 73, "note": 55, "velocity": 104, "channel": 0}, {"type": "note_on", "time": 29, "note": 55, "velocity": 116, "channel": 0}, {"type": "note_off", "time": 72, "note": 55, "velocity": 116, "channel": 0}, {"type": "note_on", "time": 23, "note": 53, "velocity": 114, "channel": 0}, {"type": "note_off", "time": 56, "note": 53, "velocity": 114, "channel": 0}, {"type": "note_on", "time": 14, "note": 53, "velocity": 113, "channel": 0}, {"type": "note_off", "time": 74, "note": 53, "velocity": 113, "channel": 0}, {"type": "note_on", "time": 23, "note": 52, "velocity": 109, "channel": 0}, {"type": "note_off", "time": 68, "note": 52, "velocity": 109, "channel": 0}, {"type": "note_on", "time": 19, "note": 52, "velocity": 116, "channel": 0}, {"type": "note_off", "time": 79, "note": 52, "velocity": 116, "channel": 0}, {"type": "note_on", "time": 36, "note": 50, "velocity": 103, "channel": 0}, {"type": "note_off", "time": 65, "note": 50, "velocity": 103, "channel": 0}, {"type": "note_on", "time": 286, "note": 66, "velocity": 115, "channel": 0}, {"type": "note_off", "time": 34, "note": 66, "velocity": 115, "channel": 0}, {"type": "note_on", "time": 1, "note": 67, "velocity": 115, "channel": 0}, {"type": "note_off", "time": 519, "note": 67, "velocity": 115, "channel": 0}, {"type": "note_on", "time": 26, "note": 64, "velocity": 85, "channel": 0}, {"type": "note_off", "time": 36, "note": 64, "velocity": 85, "channel": 0}, {"type": "note_on", "time": 38, "note": 69, "velocity": 108, "channel": 0}, {"type": "note_off", "time": 95, "note": 69, "velocity": 108, "channel": 0}, {"type": "note_on", "time": 6, "note": 66, "velocity": 104, "channel": 0}, {"type": "note_off", "time": 75, "note": 66, "velocity": 104, "channel": 0}, {"type": "note_on", "time": 11, "note": 67, "velocity": 109, "channel": 0}, {"type": "note_off", "time": 100, "note": 67, "velocity": 109, "channel": 0}, {"type": "note_on", "time": 24, "note": 65, "velocity": 112, "channel": 0}, {"type": "note_off", "time": 65, "note": 65, "velocity": 112, "channel": 0}, {"type": "note_on", "time": 0, "note": 64, "velocity": 119, "channel": 0}, {"type": "note_off", "time": 96, "note": 64, "velocity": 119, "channel": 0}, {"type": "note_on", "time": 32, "note": 67, "velocity": 101, "channel": 0}, {"type": "note_off", "time": 33, "note": 67, "velocity": 101, "channel": 0}, {"type": "note_on", "time": 27, "note": 72, "velocity": 114, "channel": 0}, {"type": "note_off", "time": 115, "note": 72, "velocity": 114, "channel": 0}, {"type": "note_on", "time": 41, "note": 67, "velocity": 107, "channel": 0}, {"type": "note_off", "time": 46, "note": 67, "velocity": 107, "channel": 0}, {"type": "note_on", "time": 14, "note": 70, "velocity": 110, "channel": 0}, {"type": "note_off", "time": 83, "note": 70, "velocity": 110, "channel": 0}, {"type": "note_on", "time": 7, "note": 67, "velocity": 109, "channel": 0}, {"type": "note_off", "time": 72, "note": 67, "velocity": 109, "channel": 0}, {"type": "note_on", "time": 30, "note": 68, "velocity": 102, "channel": 0}, {"type": "note_off", "time": 32, "note": 68, "velocity": 102, "channel": 0}, {"type": "note_on", "time": 14, "note": 67, "velocity": 104, "channel": 0}, {"type": "note_off", "time": 38, "note": 67, "velocity": 104, "channel": 0}, {"type": "note_on", "time": 19, "note": 69, "velocity": 111, "channel": 0}, {"type": "note_off", "time": 153, "note": 69, "velocity": 111, "channel": 0}, {"type": "note_on", "time": 37, "note": 69, "velocity": 111, "channel": 0}, {"type": "note_off", "time": 95, "note": 69, "velocity": 111, "channel": 0}, {"type": "note_on", "time": 2, "note": 65, "velocity": 106, "channel": 0}, {"type": "note_off", "time": 77, "note": 65, "velocity": 106, "channel": 0}, {"type": "note_on", "time": 27, "note": 64, "velocity": 92, "channel": 0}, {"type": "note_off", "time": 59, "note": 64, "velocity": 92, "channel": 0}, {"type": "note_on", "time": 16, "note": 67, "velocity": 112, "channel": 0}, {"type": "note_off", "time": 96, "note": 67, "velocity": 112, "channel": 0}, {"type": "note_on", "time": 10, "note": 65, "velocity": 111, "channel": 0}, {"type": "note_off", "time": 63, "note": 65, "velocity": 111, "channel": 0}, {"type": "note_on", "time": 21, "note": 60, "velocity": 108, "channel": 0}, {"type": "note_off", "time": 90, "note": 60, "velocity": 108, "channel": 0}, {"type": "note_on", "time": 3, "note": 55, "velocity": 127, "channel": 0}, {"type": "note_off", "time": 55, "note": 55, "velocity": 127, "channel": 0}, {"type": "note_on", "time": 25, "note": 64, "velocity": 113, "channel": 0}, {"type": "note_off", "time": 87, "note": 64, "velocity": 113, "channel": 0}, {"type": "note_on", "time": 15, "note": 67, "velocity": 110, "channel": 0}, {"type": "note_off", "time": 50, "note": 67, "velocity": 110, "channel": 0}, {"type": "note_on", "time": 27, "note": 67, "velocity": 112, "channel": 0}, {"type": "note_off", "time": 88, "note": 67, "velocity": 112, "channel": 0}, {"type": "note_on", "time": 33, "note": 64, "velocity": 111, "channel": 0}, {"type": "note_off", "time": 74, "note": 64, "velocity": 111, "channel": 0}, {"type": "note_on", "time": 9, "note": 65, "velocity": 112, "channel": 0}, {"type": "note_off", "time": 87, "note": 65, "velocity": 112, "channel": 0}, {"type": "note_on", "time": 24, "note": 62, "velocity": 109, "channel": 0}, {"type": "note_off", "time": 59, "note": 62, "velocity": 109, "channel": 0}, {"type": "note_on", "time": 30, "note": 59, "velocity": 108, "channel": 0}, {"type": "note_off", "time": 74, "note": 59, "velocity": 108, "channel": 0}, {"type": "note_on", "time": 23, "note": 55, "velocity": 113, "channel": 0}, {"type": "note_off", "time": 65, "note": 55, "velocity": 113, "channel": 0}, {"type": "note_on", "time": 9, "note": 60, "velocity": 106, "channel": 0}, {"type": "note_off", "time": 72, "note": 60, "velocity": 106, "channel": 0}, {"type": "note_on", "time": 19, "note": 55, "velocity": 120, "channel": 0}, {"type": "note_off", "time": 64, "note": 55, "velocity": 120, "channel": 0}, {"type": "note_on", "time": 15, "note": 60, "velocity": 107, "channel": 0}, {"type": "note_off", "time": 79, "note": 60, "velocity": 107, "channel": 0}, {"type": "note_on", "time": 20, "note": 64, "velocity": 111, "channel": 0}, {"type": "note_off", "time": 86, "note": 64, "velocity": 111, "channel": 0}, {"type": "note_on", "time": 14, "note": 67, "velocity": 113, "channel": 0}, {"type": "note_off", "time": 182, "note": 67, "velocity": 113, "channel": 0}, {"type": "note_on", "time": 284, "note": 55, "velocity": 113, "channel": 0}, {"type": "note_off", "time": 74, "note": 55, "velocity": 113, "channel": 0}, {"type": "note_on", "time": 18, "note": 61, "velocity": 113, "channel": 0}, {"type": "note_off", "time": 81, "note": 61, "velocity": 113, "channel": 0}, {"type": "note_on", "time": 19, "note": 67, "velocity": 120, "channel": 0}, {"type": "note_off", "time": 72, "note": 67, "velocity": 120, "channel": 0}, {"type": "note_on", "time": 20, "note": 65, "velocity": 113, "channel": 0}, {"type": "note_off", "time": 66, "note": 65, "velocity": 113, "channel": 0}, {"type": "note_on", "time": 16, "note": 64, "velocity": 123, "channel": 0}, {"type": "note_off", "time": 84, "note": 64, "velocity": 123, "channel": 0}, {"type": "note_on", "time": 10, "note": 61, "velocity": 114, "channel": 0}, {"type": "note_off", "time": 83, "note": 61, "velocity": 114, "channel": 0}, {"type": "note_on", "time": 12, "note": 55, "velocity": 123, "channel": 0}, {"type": "note_off", "time": 78, "note": 55, "velocity": 123, "channel": 0}, {"type": "note_on", "time": 11, "note": 62, "velocity": 116, "channel": 0}, {"type": "note_off", "time": 88, "note": 62, "velocity": 116, "channel": 0}, {"type": "note_on", "time": 18, "note": 58, "velocity": 105, "channel": 0}, {"type": "note_off", "time": 82, "note": 58, "velocity": 105, "channel": 0}, {"type": "note_on", "time": 0, "note": 62, "velocity": 116, "channel": 0}, {"type": "note_off", "time": 84, "note": 62, "velocity": 116, "channel": 0}, {"type": "note_on", "time": 7, "note": 64, "velocity": 118, "channel": 0}, {"type": "note_off", "time": 75, "note": 64, "velocity": 118, "channel": 0}, {"type": "note_on", "time": 11, "note": 65, "velocity": 114, "channel": 0}, {"type": "note_off", "time": 82, "note": 65, "velocity": 114, "channel": 0}, {"type": "note_on", "time": 6, "note": 64, "velocity": 115, "channel": 0}, {"type": "note_off", "time": 88, "note": 64, "velocity": 115, "channel": 0}, {"type": "note_on", "time": 12, "note": 62, "velocity": 116, "channel": 0}, {"type": "note_off", "time": 87, "note": 62, "velocity": 116, "channel": 0}, {"type": "note_on", "time": 19, "note": 60, "velocity": 106, "channel": 0}, {"type": "note_off", "time": 73, "note": 60, "velocity": 106, "channel": 0}, {"type": "note_on", "time": 9, "note": 59, "velocity": 111, "channel": 0}, {"type": "note_off", "time": 82, "note": 59, "velocity": 111, "channel": 0}, {"type": "note_on", "time": 19, "note": 67, "velocity": 114, "channel": 0}, {"type": "note_off", "time": 73, "note": 67, "velocity": 114, "channel": 0}, {"type": "note_on", "time": 16, "note": 55, "velocity": 107, "channel": 0}, {"type": "note_off", "time": 59, "note": 55, "velocity": 107, "channel": 0}, {"type": "note_on", "time": 57, "note": 62, "velocity": 105, "channel": 0}, {"type": "note_off", "time": 55, "note": 62, "velocity": 105, "channel": 0}, {"type": "note_on", "time": 25, "note": 65, "velocity": 107, "channel": 0}, {"type": "note_off", "time": 56, "note": 65, "velocity": 107, "channel": 0}, {"type": "note_on", "time": 30, "note": 66, "velocity": 104, "channel": 0}, {"type": "note_off", "time": 73, "note": 66, "velocity": 104, "channel": 0}, {"type": "note_on", "time": 11, "note": 65, "velocity": 103, "channel": 0}, {"type": "note_off", "time": 194, "note": 65, "velocity": 103, "channel": 0}, {"type": "note_on", "time": 11, "note": 64, "velocity": 115, "channel": 0}, {"type": "note_off", "time": 92, "note": 64, "velocity": 115, "channel": 0}, {"type": "note_on", "time": 11, "note": 60, "velocity": 109, "channel": 0}, {"type": "note_off", "time": 61, "note": 60, "velocity": 109, "channel": 0}, {"type": "note_on", "time": 1, "note": 55, "velocity": 105, "channel": 0}, {"type": "note_off", "time": 88, "note": 55, "velocity": 105, "channel": 0}, {"type": "note_on", "time": 34, "note": 52, "velocity": 105, "channel": 0}, {"type": "note_off", "time": 79, "note": 52, "velocity": 105, "channel": 0}, {"type": "note_on", "time": 2, "note": 53, "velocity": 108, "channel": 0}, {"type": "note_off", "time": 194, "note": 53, "velocity": 108, "channel": 0}, {"type": "note_on", "time": 23, "note": 62, "velocity": 112, "channel": 0}, {"type": "note_off", "time": 24, "note": 62, "velocity": 112, "channel": 0}, {"type": "note_on", "time": 437, "note": 68, "velocity": 116, "channel": 0}, {"type": "note_off", "time": 86, "note": 68, "velocity": 116, "channel": 0}, {"type": "note_on", "time": 5, "note": 69, "velocity": 115, "channel": 0}, {"type": "note_off", "time": 195, "note": 69, "velocity": 115, "channel": 0}, {"type": "note_on", "time": 5, "note": 67, "velocity": 117, "channel": 0}, {"type": "note_off", "time": 81, "note": 67, "velocity": 117, "channel": 0}, {"type": "note_on", "time": 108, "note": 72, "velocity": 119, "channel": 0}, {"type": "note_off", "time": 79, "note": 72, "velocity": 119, "channel": 0}, {"type": "note_on", "time": 118, "note": 60, "velocity": 116, "channel": 0}, {"type": "note_off", "time": 83, "note": 60, "velocity": 116, "channel": 0}, {"type": "note_on", "time": 81, "note": 63, "velocity": 116, "channel": 0}, {"type": "note_off", "time": 115, "note": 63, "velocity": 116, "channel": 0}, {"type": "note_on", "time": 11, "note": 64, "velocity": 120, "channel": 0}, {"type": "note_off", "time": 101, "note": 64, "velocity": 120, "channel": 0}, {"type": "note_on", "time": 74, "note": 65, "velocity": 114, "channel": 0}, {"type": "note_off", "time": 82, "note": 65, "velocity": 114, "channel": 0}, {"type": "note_on", "time": 123, "note": 66, "velocity": 114, "channel": 0}, {"type": "note_off", "time": 109, "note": 66, "velocity": 114, "channel": 0}, {"type": "note_on", "time": 77, "note": 67, "velocity": 115, "channel": 0}, {"type": "note_off", "time": 86, "note": 67, "velocity": 115, "channel": 0}, {"type": "note_on", "time": 91, "note": 55, "velocity": 112, "channel": 0}, {"type": "note_off", "time": 75, "note": 55, "velocity": 112, "channel": 0}, {"type": "note_on", "time": 28, "note": 59, "velocity": 104, "channel": 0}, {"type": "note_off", "time": 60, "note": 59, "velocity": 104, "channel": 0}, {"type": "note_on", "time": 38, "note": 65, "velocity": 107, "channel": 0}, {"type": "note_off", "time": 73, "note": 65, "velocity": 107, "channel": 0}, {"type": "note_on", "time": 6, "note": 64, "velocity": 121, "channel": 0}, {"type": "note_off", "time": 96, "note": 64, "velocity": 121, "channel": 0}, {"type": "note_on", "time": 8, "note": 60, "velocity": 111, "channel": 0}, {"type": "note_off", "time": 76, "note": 60, "velocity": 111, "channel": 0}, {"type": "note_on", "time": 12, "note": 55, "velocity": 121, "channel": 0}, {"type": "note_off", "time": 74, "note": 55, "velocity": 121, "channel": 0}, {"type": "note_on", "time": 32, "note": 53, "velocity": 107, "channel": 0}, {"type": "note_off", "time": 68, "note": 53, "velocity": 107, "channel": 0}, {"type": "note_on", "time": 8, "note": 60, "velocity": 110, "channel": 0}, {"type": "note_off", "time": 77, "note": 60, "velocity": 110, "channel": 0}, {"type": "note_on", "time": 21, "note": 62, "velocity": 115, "channel": 0}, {"type": "note_off", "time": 72, "note": 62, "velocity": 115, "channel": 0}, {"type": "note_on", "time": 13, "note": 64, "velocity": 110, "channel": 0}, {"type": "note_off", "time": 92, "note": 64, "velocity": 110, "channel": 0}, {"type": "note_on", "time": 16, "note": 67, "velocity": 106, "channel": 0}, {"type": "note_off", "time": 41, "note": 67, "velocity": 106, "channel": 0}, {"type": "note_on", "time": 43, "note": 61, "velocity": 112, "channel": 0}, {"type": "note_off", "time": 87, "note": 61, "velocity": 112, "channel": 0}, {"type": "note_on", "time": 15, "note": 64, "velocity": 120, "channel": 0}, {"type": "note_off", "time": 65, "note": 64, "velocity": 120, "channel": 0}, {"type": "note_on", "time": 16, "note": 67, "velocity": 114, "channel": 0}, {"type": "note_off", "time": 100, "note": 67, "velocity": 114, "channel": 0}, {"type": "note_on", "time": 37, "note": 70, "velocity": 109, "channel": 0}, {"type": "note_off", "time": 42, "note": 70, "velocity": 109, "channel": 0}, {"type": "note_on", "time": 20, "note": 69, "velocity": 112, "channel": 0}, {"type": "note_off", "time": 84, "note": 69, "velocity": 112, "channel": 0}, {"type": "note_on", "time": 112, "note": 63, "velocity": 115, "channel": 0}, {"type": "note_off", "time": 100, "note": 63, "velocity": 115, "channel": 0}, {"type": "note_on", "time": 10, "note": 64, "velocity": 116, "channel": 0}, {"type": "note_off", "time": 71, "note": 64, "velocity": 116, "channel": 0}, {"type": "note_on", "time": 10, "note": 67, "velocity": 114, "channel": 0}, {"type": "note_off", "time": 88, "note": 67, "velocity": 114, "channel": 0}, {"type": "note_on", "time": 25, "note": 64, "velocity": 113, "channel": 0}, {"type": "note_off", "time": 75, "note": 64, "velocity": 113, "channel": 0}, {"type": "note_on", "time": 10, "note": 65, "velocity": 108, "channel": 0}, {"type": "note_off", "time": 77, "note": 65, "velocity": 108, "channel": 0}, {"type": "note_on", "time": 29, "note": 72, "velocity": 111, "channel": 0}, {"type": "note_off", "time": 34, "note": 72, "velocity": 111, "channel": 0}, {"type": "note_on", "time": 1, "note": 71, "velocity": 118, "channel": 0}, {"type": "note_off", "time": 31, "note": 71, "velocity": 118, "channel": 0}, {"type": "note_on", "time": 10, "note": 64, "velocity": 115, "channel": 0}, {"type": "note_off", "time": 102, "note": 64, "velocity": 115, "channel": 0}, {"type": "note_on", "time": 23, "note": 62, "velocity": 115, "channel": 0}, {"type": "note_off", "time": 59, "note": 62, "velocity": 115, "channel": 0}, {"type": "note_on", "time": 123, "note": 60, "velocity": 101, "channel": 0}, {"type": "note_off", "time": 63, "note": 60, "velocity": 101, "channel": 0}, {"type": "note_on", "time": 8, "note": 59, "velocity": 108, "channel": 0}, {"type": "note_off", "time": 92, "note": 59, "velocity": 108, "channel": 0}, {"type": "note_on", "time": 22, "note": 62, "velocity": 112, "channel": 0}, {"type": "note_off", "time": 70, "note": 62, "velocity": 112, "channel": 0}, {"type": "note_on", "time": 22, "note": 57, "velocity": 101, "channel": 0}, {"type": "note_off", "time": 96, "note": 57, "velocity": 101, "channel": 0}, {"type": "note_on", "time": 29, "note": 55, "velocity": 103, "channel": 0}, {"type": "note_off", "time": 69, "note": 55, "velocity": 103, "channel": 0}, {"type": "note_on", "time": 5, "note": 53, "velocity": 110, "channel": 0}, {"type": "note_off", "time": 76, "note": 53, "velocity": 110, "channel": 0}, {"type": "note_on", "time": 98, "note": 64, "velocity": 112, "channel": 0}, {"type": "note_off", "time": 77, "note": 64, "velocity": 112, "channel": 0}, {"type": "note_on", "time": 12, "note": 65, "velocity": 109, "channel": 0}, {"type": "note_off", "time": 74, "note": 65, "velocity": 109, "channel": 0}, {"type": "note_on", "time": 10, "note": 64, "velocity": 113, "channel": 0}, {"type": "note_off", "time": 90, "note": 64, "velocity": 113, "channel": 0}, {"type": "note_on", "time": 25, "note": 60, "velocity": 110, "channel": 0}, {"type": "note_off", "time": 57, "note": 60, "velocity": 110, "channel": 0}, {"type": "note_on", "time": 27, "note": 55, "velocity": 107, "channel": 0}, {"type": "note_off", "time": 87, "note": 55, "velocity": 107, "channel": 0}, {"type": "note_on", "time": 23, "note": 52, "velocity": 104, "channel": 0}, {"type": "note_off", "time": 65, "note": 52, "velocity": 104, "channel": 0}, {"type": "note_on", "time": 12, "note": 53, "velocity": 111, "channel": 0}, {"type": "note_off", "time": 102, "note": 53, "velocity": 111, "channel": 0}, {"type": "note_on", "time": 91, "note": 67, "velocity": 112, "channel": 0}, {"type": "note_off", "time": 88, "note": 67, "velocity": 112, "channel": 0}, {"type": "note_on", "time": 20, "note": 64, "velocity": 109, "channel": 0}, {"type": "note_off", "time": 52, "note": 64, "velocity": 109, "channel": 0}, {"type": "note_on", "time": 23, "note": 67, "velocity": 110, "channel": 0}, {"type": "note_off", "time": 93, "note": 67, "velocity": 110, "channel": 0}, {"type": "note_on", "time": 91, "note": 69, "velocity": 109, "channel": 0}, {"type": "note_off", "time": 113, "note": 69, "velocity": 109, "channel": 0}, {"type": "note_on", "time": 48, "note": 66, "velocity": 105, "channel": 0}, {"type": "note_off", "time": 41, "note": 66, "velocity": 105, "channel": 0}, {"type": "note_on", "time": 11, "note": 67, "velocity": 108, "channel": 0}, {"type": "note_off", "time": 108, "note": 67, "velocity": 108, "channel": 0}, {"type": "note_on", "time": 75, "note": 64, "velocity": 111, "channel": 0}, {"type": "note_off", "time": 91, "note": 64, "velocity": 111, "channel": 0}, {"type": "note_on", "time": 19, "note": 60, "velocity": 101, "channel": 0}, {"type": "note_off", "time": 61, "note": 60, "velocity": 101, "channel": 0}, {"type": "note_on", "time": 24, "note": 64, "velocity": 106, "channel": 0}, {"type": "note_off", "time": 75, "note": 64, "velocity": 106, "channel": 0}, {"type": "note_on", "time": 34, "note": 65, "velocity": 101, "channel": 0}, {"type": "note_off", "time": 141, "note": 65, "velocity": 101, "channel": 0}, {"type": "note_on", "time": 28, "note": 64, "velocity": 120, "channel": 0}, {"type": "note_off", "time": 86, "note": 64, "velocity": 120, "channel": 0}, {"type": "note_on", "time": 6, "note": 63, "velocity": 119, "channel": 0}, {"type": "note_off", "time": 45, "note": 63, "velocity": 119, "channel": 0}, {"type": "note_on", "time": 433, "note": 60, "velocity": 114, "channel": 0}, {"type": "note_off", "time": 86, "note": 60, "velocity": 114, "channel": 0}, {"type": "note_on", "time": 10, "note": 57, "velocity": 105, "channel": 0}, {"type": "note_off", "time": 72, "note": 57, "velocity": 105, "channel": 0}, {"type": "note_on", "time": 114, "note": 67, "velocity": 121, "channel": 0}, {"type": "note_off", "time": 99, "note": 67, "velocity": 121, "channel": 0}, {"type": "note_on", "time": 88, "note": 57, "velocity": 115, "channel": 0}, {"type": "note_off", "time": 27, "note": 57, "velocity": 115, "channel": 0}, {"type": "note_on", "time": 9, "note": 60, "velocity": 114, "channel": 0}, {"type": "note_off", "time": 87, "note": 60, "velocity": 114, "channel": 0}, {"type": "note_on", "time": 10, "note": 57, "velocity": 104, "channel": 0}, {"type": "note_off", "time": 68, "note": 57, "velocity": 104, "channel": 0}, {"type": "note_on", "time": 6, "note": 64, "velocity": 119, "channel": 0}, {"type": "note_off", "time": 123, "note": 64, "velocity": 119, "channel": 0}, {"type": "note_on", "time": 32, "note": 62, "velocity": 102, "channel": 0}, {"type": "note_off", "time": 32, "note": 62, "velocity": 102, "channel": 0}, {"type": "note_on", "time": 5, "note": 64, "velocity": 117, "channel": 0}, {"type": "note_off", "time": 70, "note": 64, "velocity": 117, "channel": 0}, {"type": "note_on", "time": 20, "note": 64, "velocity": 121, "channel": 0}, {"type": "note_off", "time": 96, "note": 64, "velocity": 121, "channel": 0}, {"type": "note_on", "time": 6, "note": 60, "velocity": 111, "channel": 0}, {"type": "note_off", "time": 55, "note": 60, "velocity": 111, "channel": 0}, {"type": "note_on", "time": 39, "note": 55, "velocity": 110, "channel": 0}, {"type": "note_off", "time": 73, "note": 55, "velocity": 110, "channel": 0}, {"type": "note_on", "time": 28, "note": 52, "velocity": 113, "channel": 0}, {"type": "note_off", "time": 50, "note": 52, "velocity": 113, "channel": 0}, {"type": "note_on", "time": 20, "note": 54, "velocity": 99, "channel": 0}, {"type": "note_off", "time": 33, "note": 54, "velocity": 99, "channel": 0}, {"type": "note_on", "time": 16, "note": 57, "velocity": 102, "channel": 0}, {"type": "note_off", "time": 34, "note": 57, "velocity": 102, "channel": 0}, {"type": "note_on", "time": 2, "note": 61, "velocity": 113, "channel": 0}, {"type": "note_off", "time": 97, "note": 61, "velocity": 113, "channel": 0}, {"type": "note_on", "time": 30, "note": 57, "velocity": 98, "channel": 0}, {"type": "note_off", "time": 65, "note": 57, "velocity": 98, "channel": 0}, {"type": "note_on", "time": 15, "note": 61, "velocity": 118, "channel": 0}, {"type": "note_off", "time": 81, "note": 61, "velocity": 118, "channel": 0}, {"type": "note_on", "time": 39, "note": 68, "velocity": 111, "channel": 0}, {"type": "note_off", "time": 51, "note": 68, "velocity": 111, "channel": 0}, {"type": "note_on", "time": 18, "note": 64, "velocity": 121, "channel": 0}, {"type": "note_off", "time": 83, "note": 64, "velocity": 121, "channel": 0}, {"type": "note_on", "time": 20, "note": 61, "velocity": 111, "channel": 0}, {"type": "note_off", "time": 75, "note": 61, "velocity": 111, "channel": 0}, {"type": "note_on", "time": 21, "note": 57, "velocity": 109, "channel": 0}, {"type": "note_off", "time": 84, "note": 57, "velocity": 109, "channel": 0}, {"type": "note_on", "time": 34, "note": 52, "velocity": 101, "channel": 0}, {"type": "note_off", "time": 39, "note": 52, "velocity": 101, "channel": 0}, {"type": "note_on", "time": 23, "note": 57, "velocity": 108, "channel": 0}, {"type": "note_off", "time": 86, "note": 57, "velocity": 108, "channel": 0}, {"type": "note_on", "time": 208, "note": 62, "velocity": 116, "channel": 0}, {"type": "note_off", "time": 87, "note": 62, "velocity": 116, "channel": 0}, {"type": "note_on", "time": 81, "note": 57, "velocity": 102, "channel": 0}, {"type": "note_off", "time": 56, "note": 57, "velocity": 102, "channel": 0}, {"type": "note_on", "time": 12, "note": 65, "velocity": 106, "channel": 0}, {"type": "note_off", "time": 201, "note": 65, "velocity": 106, "channel": 0}, {"type": "note_on", "time": 136, "note": 62, "velocity": 117, "channel": 0}, {"type": "note_off", "time": 70, "note": 62, "velocity": 117, "channel": 0}, {"type": "note_on", "time": 15, "note": 60, "velocity": 103, "channel": 0}, {"type": "note_off", "time": 77, "note": 60, "velocity": 103, "channel": 0}, {"type": "note_on", "time": 45, "note": 57, "velocity": 106, "channel": 0}, {"type": "note_off", "time": 38, "note": 57, "velocity": 106, "channel": 0}, {"type": "note_on", "time": 25, "note": 59, "velocity": 109, "channel": 0}, {"type": "note_off", "time": 86, "note": 59, "velocity": 109, "channel": 0}, {"type": "note_on", "time": 15, "note": 57, "velocity": 109, "channel": 0}, {"type": "note_off", "time": 70, "note": 57, "velocity": 109, "channel": 0}, {"type": "note_on", "time": 19, "note": 55, "velocity": 107, "channel": 0}, {"type": "note_off", "time": 77, "note": 55, "velocity": 107, "channel": 0}, {"type": "note_on", "time": 18, "note": 57, "velocity": 109, "channel": 0}, {"type": "note_off", "time": 75, "note": 57, "velocity": 109, "channel": 0}, {"type": "note_on", "time": 10, "note": 52, "velocity": 104, "channel": 0}, {"type": "note_off", "time": 73, "note": 52, "velocity": 104, "channel": 0}, {"type": "note_on", "time": 8, "note": 55, "velocity": 109, "channel": 0}, {"type": "note_off", "time": 90, "note": 55, "velocity": 109, "channel": 0}, {"type": "note_on", "time": 16, "note": 48, "velocity": 109, "channel": 0}, {"type": "note_off", "time": 75, "note": 48, "velocity": 109, "channel": 0}, {"type": "note_on", "time": 22, "note": 53, "velocity": 96, "channel": 0}, {"type": "note_off", "time": 56, "note": 53, "velocity": 96, "channel": 0}, {"type": "note_on", "time": 41, "note": 64, "velocity": 109, "channel": 0}, {"type": "note_off", "time": 77, "note": 64, "velocity": 109, "channel": 0}, {"type": "note_on", "time": 106, "note": 67, "velocity": 115, "channel": 0}, {"type": "note_off", "time": 83, "note": 67, "velocity": 115, "channel": 0}, {"type": "note_on", "time": 101, "note": 60, "velocity": 95, "channel": 0}, {"type": "note_off", "time": 208, "note": 60, "velocity": 95, "channel": 0}, {"type": "note_on", "time": 84, "note": 60, "velocity": 113, "channel": 0}, {"type": "note_off", "time": 73, "note": 60, "velocity": 113, "channel": 0}, {"type": "note_on", "time": 27, "note": 64, "velocity": 113, "channel": 0}, {"type": "note_off", "time": 90, "note": 64, "velocity": 113, "channel": 0}, {"type": "note_on", "time": 113, "note": 67, "velocity": 117, "channel": 0}, {"type": "note_off", "time": 92, "note": 67, "velocity": 117, "channel": 0}, {"type": "note_on", "time": 91, "note": 72, "velocity": 108, "channel": 0}, {"type": "note_off", "time": 182, "note": 72, "velocity": 108, "channel": 0}, {"type": "note_on", "time": 16, "note": 69, "velocity": 97, "channel": 0}, {"type": "note_off", "time": 96, "note": 69, "velocity": 97, "channel": 0}, {"type": "note_on", "time": 19, "note": 65, "velocity": 114, "channel": 0}, {"type": "note_off", "time": 61, "note": 65, "velocity": 114, "channel": 0}, {"type": "note_on", "time": 106, "note": 62, "velocity": 118, "channel": 0}, {"type": "note_off", "time": 66, "note": 62, "velocity": 118, "channel": 0}, {"type": "note_on", "time": 23, "note": 69, "velocity": 113, "channel": 0}, {"type": "note_off", "time": 66, "note": 69, "velocity": 113, "channel": 0}, {"type": "note_on", "time": 38, "note": 72, "velocity": 111, "channel": 0}, {"type": "note_off", "time": 81, "note": 72, "velocity": 111, "channel": 0}, {"type": "note_on", "time": 20, "note": 71, "velocity": 109, "channel": 0}, {"type": "note_off", "time": 82, "note": 71, "velocity": 109, "channel": 0}, {"type": "note_on", "time": 19, "note": 70, "velocity": 111, "channel": 0}, {"type": "note_off", "time": 28, "note": 70, "velocity": 111, "channel": 0}, {"type": "note_on", "time": 8, "note": 71, "velocity": 114, "channel": 0}, {"type": "note_off", "time": 42, "note": 71, "velocity": 114, "channel": 0}, {"type": "note_on", "time": 6, "note": 67, "velocity": 111, "channel": 0}, {"type": "note_off", "time": 55, "note": 67, "velocity": 111, "channel": 0}, {"type": "note_on", "time": 19, "note": 71, "velocity": 105, "channel": 0}, {"type": "note_off", "time": 86, "note": 71, "velocity": 105, "channel": 0}, {"type": "note_on", "time": 18, "note": 69, "velocity": 112, "channel": 0}, {"type": "note_off", "time": 192, "note": 69, "velocity": 112, "channel": 0}, {"type": "note_on", "time": 7, "note": 65, "velocity": 107, "channel": 0}, {"type": "note_off", "time": 65, "note": 65, "velocity": 107, "channel": 0}, {"type": "note_on", "time": 16, "note": 69, "velocity": 112, "channel": 0}, {"type": "note_off", "time": 70, "note": 69, "velocity": 112, "channel": 0}, {"type": "note_on", "time": 10, "note": 67, "velocity": 113, "channel": 0}, {"type": "note_off", "time": 48, "note": 67, "velocity": 113, "channel": 0}, {"type": "note_on", "time": 0, "note": 69, "velocity": 116, "channel": 0}, {"type": "note_off", "time": 34, "note": 69, "velocity": 116, "channel": 0}, {"type": "note_on", "time": 27, "note": 67, "velocity": 108, "channel": 0}, {"type": "note_off", "time": 72, "note": 67, "velocity": 108, "channel": 0}, {"type": "note_on", "time": 11, "note": 64, "velocity": 110, "channel": 0}, {"type": "note_off", "time": 96, "note": 64, "velocity": 110, "channel": 0}, {"type": "note_on", "time": 0, "note": 60, "velocity": 105, "channel": 0}, {"type": "note_off", "time": 57, "note": 60, "velocity": 105, "channel": 0}, {"type": "note_on", "time": 27, "note": 55, "velocity": 105, "channel": 0}, {"type": "note_off", "time": 87, "note": 55, "velocity": 105, "channel": 0}, {"type": "note_on", "time": 19, "note": 60, "velocity": 105, "channel": 0}, {"type": "note_off", "time": 65, "note": 60, "velocity": 105, "channel": 0}, {"type": "note_on", "time": 34, "note": 64, "velocity": 117, "channel": 0}, {"type": "note_off", "time": 77, "note": 64, "velocity": 117, "channel": 0}, {"type": "note_on", "time": 21, "note": 67, "velocity": 112, "channel": 0}, {"type": "note_off", "time": 56, "note": 67, "velocity": 112, "channel": 0}, {"type": "note_on", "time": 47, "note": 70, "velocity": 109, "channel": 0}, {"type": "note_off", "time": 59, "note": 70, "velocity": 109, "channel": 0}, {"type": "note_on", "time": 18, "note": 64, "velocity": 116, "channel": 0}, {"type": "note_off", "time": 84, "note": 64, "velocity": 116, "channel": 0}, {"type": "note_on", "time": 28, "note": 62, "velocity": 110, "channel": 0}, {"type": "note_off", "time": 72, "note": 62, "velocity": 110, "channel": 0}, {"type": "note_on", "time": 15, "note": 59, "velocity": 108, "channel": 0}, {"type": "note_off", "time": 82, "note": 59, "velocity": 108, "channel": 0}, {"type": "note_on", "time": 16, "note": 61, "velocity": 108, "channel": 0}, {"type": "note_off", "time": 90, "note": 61, "velocity": 108, "channel": 0}, {"type": "note_on", "time": 12, "note": 58, "velocity": 112, "channel": 0}, {"type": "note_off", "time": 75, "note": 58, "velocity": 112, "channel": 0}, {"type": "note_on", "time": 25, "note": 57, "velocity": 107, "channel": 0}, {"type": "note_off", "time": 73, "note": 57, "velocity": 107, "channel": 0}, {"type": "note_on", "time": 28, "note": 55, "velocity": 110, "channel": 0}, {"type": "note_off", "time": 81, "note": 55, "velocity": 110, "channel": 0}, {"type": "note_on", "time": 12, "note": 53, "velocity": 112, "channel": 0}, {"type": "note_off", "time": 60, "note": 53, "velocity": 112, "channel": 0}, {"type": "note_on", "time": 251, "note": 69, "velocity": 104, "channel": 0}, {"type": "note_off", "time": 617, "note": 69, "velocity": 104, "channel": 0}, {"type": "note_on", "time": 22, "note": 67, "velocity": 114, "channel": 0}, {"type": "note_off", "time": 83, "note": 67, "velocity": 114, "channel": 0}, {"type": "note_on", "time": 14, "note": 64, "velocity": 116, "channel": 0}, {"type": "note_off", "time": 82, "note": 64, "velocity": 116, "channel": 0}, {"type": "note_on", "time": 1, "note": 65, "velocity": 116, "channel": 0}, {"type": "note_off", "time": 72, "note": 65, "velocity": 116, "channel": 0}, {"type": "note_on", "time": 5, "note": 62, "velocity": 111, "channel": 0}, {"type": "note_off", "time": 86, "note": 62, "velocity": 111, "channel": 0}, {"type": "note_on", "time": 28, "note": 59, "velocity": 111, "channel": 0}, {"type": "note_off", "time": 64, "note": 59, "velocity": 111, "channel": 0}, {"type": "note_on", "time": 23, "note": 55, "velocity": 103, "channel": 0}, {"type": "note_off", "time": 73, "note": 55, "velocity": 103, "channel": 0}, {"type": "note_on", "time": 10, "note": 60, "velocity": 101, "channel": 0}, {"type": "note_off", "time": 86, "note": 60, "velocity": 101, "channel": 0}, {"type": "note_on", "time": 183, "note": 67, "velocity": 112, "channel": 0}, {"type": "note_off", "time": 83, "note": 67, "velocity": 112, "channel": 0}, {"type": "note_on", "time": 27, "note": 60, "velocity": 105, "channel": 0}, {"type": "note_off", "time": 95, "note": 60, "velocity": 105, "channel": 0}, {"type": "note_on", "time": 128, "note": 72, "velocity": 110, "channel": 0}, {"type": "note_off", "time": 97, "note": 72, "velocity": 110, "channel": 0}, {"type": "note_on", "time": 80, "note": 72, "velocity": 111, "channel": 0}, {"type": "note_off", "time": 162, "note": 72, "velocity": 111, "channel": 0}, {"type": "note_on", "time": 21, "note": 72, "velocity": 104, "channel": 0}, {"type": "note_off", "time": 559, "note": 72, "velocity": 104, "channel": 0}, {"type": "note_on", "time": 31, "note": 69, "velocity": 119, "channel": 0}, {"type": "note_off", "time": 76, "note": 69, "velocity": 119, "channel": 0}, {"type": "note_on", "time": 12, "note": 67, "velocity": 106, "channel": 0}, {"type": "note_off", "time": 15, "note": 67, "velocity": 106, "channel": 0}, {"type": "note_on", "time": 216, "note": 69, "velocity": 106, "channel": 0}, {"type": "note_off", "time": 149, "note": 69, "velocity": 106, "channel": 0}, {"type": "note_on", "time": 34, "note": 65, "velocity": 110, "channel": 0}, {"type": "note_off", "time": 72, "note": 65, "velocity": 110, "channel": 0}, {"type": "note_on", "time": 3, "note": 67, "velocity": 92, "channel": 0}, {"type": "note_off", "time": 78, "note": 67, "velocity": 92, "channel": 0}, {"type": "note_on", "time": 150, "note": 67, "velocity": 106, "channel": 0}, {"type": "note_off", "time": 198, "note": 67, "velocity": 106, "channel": 0}, {"type": "note_on", "time": 18, "note": 64, "velocity": 113, "channel": 0}, {"type": "note_off", "time": 72, "note": 64, "velocity": 113, "channel": 0}, {"type": "note_on", "time": 14, "note": 67, "velocity": 117, "channel": 0}, {"type": "note_off", "time": 91, "note": 67, "velocity": 117, "channel": 0}, {"type": "note_on", "time": 174, "note": 64, "velocity": 119, "channel": 0}, {"type": "note_off", "time": 87, "note": 64, "velocity": 119, "channel": 0}, {"type": "note_on", "time": 10, "note": 64, "velocity": 120, "channel": 0}, {"type": "note_off", "time": 106, "note": 64, "velocity": 120, "channel": 0}, {"type": "note_on", "time": 0, "note": 60, "velocity": 115, "channel": 0}, {"type": "note_off", "time": 45, "note": 60, "velocity": 115, "channel": 0}, {"type": "note_on", "time": 14, "note": 64, "velocity": 117, "channel": 0}, {"type": "note_off", "time": 119, "note": 64, "velocity": 117, "channel": 0}, {"type": "note_on", "time": 24, "note": 60, "velocity": 110, "channel": 0}, {"type": "note_off", "time": 69, "note": 60, "velocity": 110, "channel": 0}, {"type": "note_on", "time": 2, "note": 64, "velocity": 116, "channel": 0}, {"type": "note_off", "time": 200, "note": 64, "velocity": 116, "channel": 0}, {"type": "note_on", "time": 12, "note": 60, "velocity": 113, "channel": 0}, {"type": "note_off", "time": 64, "note": 60, "velocity": 113, "channel": 0}, {"type": "note_on", "time": 191, "note": 52, "velocity": 114, "channel": 0}, {"type": "note_off", "time": 43, "note": 52, "velocity": 114, "channel": 0}, {"type": "note_on", "time": 11, "note": 55, "velocity": 106, "channel": 0}, {"type": "note_off", "time": 51, "note": 55, "velocity": 106, "channel": 0}, {"type": "note_on", "time": 19, "note": 58, "velocity": 111, "channel": 0}, {"type": "note_off", "time": 33, "note": 58, "velocity": 111, "channel": 0}, {"type": "note_on", "time": 27, "note": 64, "velocity": 116, "channel": 0}, {"type": "note_off", "time": 45, "note": 64, "velocity": 116, "channel": 0}, {"type": "note_on", "time": 6, "note": 69, "velocity": 113, "channel": 0}, {"type": "note_off", "time": 51, "note": 69, "velocity": 113, "channel": 0}, {"type": "note_on", "time": 19, "note": 67, "velocity": 111, "channel": 0}, {"type": "note_off", "time": 49, "note": 67, "velocity": 111, "channel": 0}, {"type": "note_on", "time": 4, "note": 68, "velocity": 110, "channel": 0}, {"type": "note_off", "time": 44, "note": 68, "velocity": 110, "channel": 0}, {"type": "note_on", "time": 3, "note": 69, "velocity": 116, "channel": 0}, {"type": "note_off", "time": 56, "note": 69, "velocity": 116, "channel": 0}, {"type": "note_on", "time": 2, "note": 67, "velocity": 110, "channel": 0}, {"type": "note_off", "time": 50, "note": 67, "velocity": 110, "channel": 0}, {"type": "note_on", "time": 12, "note": 63, "velocity": 110, "channel": 0}, {"type": "note_off", "time": 49, "note": 63, "velocity": 110, "channel": 0}, {"type": "note_on", "time": 5, "note": 64, "velocity": 115, "channel": 0}, {"type": "note_off", "time": 61, "note": 64, "velocity": 115, "channel": 0}, {"type": "note_on", "time": 7, "note": 67, "velocity": 113, "channel": 0}, {"type": "note_off", "time": 47, "note": 67, "velocity": 113, "channel": 0}, {"type": "note_on", "time": 10, "note": 65, "velocity": 112, "channel": 0}, {"type": "note_off", "time": 68, "note": 65, "velocity": 112, "channel": 0}, {"type": "note_on", "time": 207, "note": 55, "velocity": 123, "channel": 0}, {"type": "note_off", "time": 55, "note": 55, "velocity": 123, "channel": 0}, {"type": "note_on", "time": 7, "note": 58, "velocity": 112, "channel": 0}, {"type": "note_off", "time": 24, "note": 58, "velocity": 112, "channel": 0}, {"type": "note_on", "time": 5, "note": 60, "velocity": 104, "channel": 0}, {"type": "note_off", "time": 24, "note": 60, "velocity": 104, "channel": 0}, {"type": "note_on", "time": 5, "note": 62, "velocity": 115, "channel": 0}, {"type": "note_off", "time": 38, "note": 62, "velocity": 115, "channel": 0}, {"type": "note_on", "time": 12, "note": 64, "velocity": 110, "channel": 0}, {"type": "note_off", "time": 26, "note": 64, "velocity": 110, "channel": 0}, {"type": "note_on", "time": 6, "note": 65, "velocity": 114, "channel": 0}, {"type": "note_off", "time": 85, "note": 65, "velocity": 114, "channel": 0}, {"type": "note_on", "time": 10, "note": 66, "velocity": 112, "channel": 0}, {"type": "note_off", "time": 21, "note": 66, "velocity": 112, "channel": 0}, {"type": "note_on", "time": 4, "note": 67, "velocity": 112, "channel": 0}, {"type": "note_off", "time": 63, "note": 67, "velocity": 112, "channel": 0}, {"type": "note_on", "time": 25, "note": 62, "velocity": 111, "channel": 0}, {"type": "note_off", "time": 42, "note": 62, "velocity": 111, "channel": 0}, {"type": "note_on", "time": 6, "note": 63, "velocity": 114, "channel": 0}, {"type": "note_off", "time": 55, "note": 63, "velocity": 114, "channel": 0}, {"type": "note_on", "time": 8, "note": 64, "velocity": 115, "channel": 0}, {"type": "note_off", "time": 57, "note": 64, "velocity": 115, "channel": 0}, {"type": "note_on", "time": 9, "note": 60, "velocity": 112, "channel": 0}, {"type": "note_off", "time": 53, "note": 60, "velocity": 112, "channel": 0}, {"type": "note_on", "time": 5, "note": 57, "velocity": 110, "channel": 0}, {"type": "note_off", "time": 33, "note": 57, "velocity": 110, "channel": 0}, {"type": "note_on", "time": 10, "note": 55, "velocity": 108, "channel": 0}, {"type": "note_off", "time": 25, "note": 55, "velocity": 108, "channel": 0}, {"type": "note_on", "time": 0, "note": 52, "velocity": 117, "channel": 0}, {"type": "note_off", "time": 63, "note": 52, "velocity": 117, "channel": 0}, {"type": "note_on", "time": 26, "note": 55, "velocity": 109, "channel": 0}, {"type": "note_off", "time": 82, "note": 55, "velocity": 109, "channel": 0}, {"type": "note_on", "time": 4, "note": 48, "velocity": 114, "channel": 0}, {"type": "note_off", "time": 51, "note": 48, "velocity": 114, "channel": 0}, {"type": "note_on", "time": 12, "note": 50, "velocity": 115, "channel": 0}, {"type": "note_off", "time": 30, "note": 50, "velocity": 115, "channel": 0}, {"type": "note_on", "time": 2, "note": 51, "velocity": 123, "channel": 0}, {"type": "note_off", "time": 46, "note": 51, "velocity": 123, "channel": 0}, {"type": "note_on", "time": 0, "note": 52, "velocity": 112, "channel": 0}, {"type": "note_off", "time": 69, "note": 52, "velocity": 112, "channel": 0}, {"type": "note_on", "time": 14, "note": 48, "velocity": 101, "channel": 0}, {"type": "note_off", "time": 37, "note": 48, "velocity": 101, "channel": 0}, {"type": "note_on", "time": 37, "note": 51, "velocity": 101, "channel": 0}, {"type": "note_off", "time": 38, "note": 51, "velocity": 101, "channel": 0}, {"type": "note_on", "time": 9, "note": 52, "velocity": 107, "channel": 0}, {"type": "note_off", "time": 41, "note": 52, "velocity": 107, "channel": 0}, {"type": "note_on", "time": 3, "note": 55, "velocity": 109, "channel": 0}, {"type": "note_off", "time": 63, "note": 55, "velocity": 109, "channel": 0}, {"type": "note_on", "time": 7, "note": 58, "velocity": 108, "channel": 0}, {"type": "note_off", "time": 31, "note": 58, "velocity": 108, "channel": 0}, {"type": "note_on", "time": 6, "note": 60, "velocity": 109, "channel": 0}, {"type": "note_off", "time": 56, "note": 60, "velocity": 109, "channel": 0}, {"type": "note_on", "time": 4, "note": 57, "velocity": 112, "channel": 0}, {"type": "note_off", "time": 29, "note": 57, "velocity": 112, "channel": 0}, {"type": "note_on", "time": 4, "note": 58, "velocity": 104, "channel": 0}, {"type": "note_off", "time": 25, "note": 58, "velocity": 104, "channel": 0}, {"type": "note_on", "time": 2, "note": 60, "velocity": 113, "channel": 0}, {"type": "note_off", "time": 32, "note": 60, "velocity": 113, "channel": 0}, {"type": "note_on", "time": 2, "note": 61, "velocity": 110, "channel": 0}, {"type": "note_off", "time": 30, "note": 61, "velocity": 110, "channel": 0}, {"type": "note_on", "time": 28, "note": 63, "velocity": 119, "channel": 0}, {"type": "note_off", "time": 66, "note": 63, "velocity": 119, "channel": 0}, {"type": "note_on", "time": 12, "note": 64, "velocity": 111, "channel": 0}, {"type": "note_off", "time": 45, "note": 64, "velocity": 111, "channel": 0}, {"type": "note_on", "time": 10, "note": 65, "velocity": 114, "channel": 0}, {"type": "note_off", "time": 43, "note": 65, "velocity": 114, "channel": 0}, {"type": "note_on", "time": 7, "note": 66, "velocity": 111, "channel": 0}, {"type": "note_off", "time": 53, "note": 66, "velocity": 111, "channel": 0}, {"type": "note_on", "time": 2, "note": 67, "velocity": 112, "channel": 0}, {"type": "note_off", "time": 62, "note": 67, "velocity": 112, "channel": 0}, {"type": "note_on", "time": 25, "note": 62, "velocity": 115, "channel": 0}, {"type": "note_off", "time": 39, "note": 62, "velocity": 115, "channel": 0}, {"type": "note_on", "time": 3, "note": 63, "velocity": 116, "channel": 0}, {"type": "note_off", "time": 43, "note": 63, "velocity": 116, "channel": 0}, {"type": "note_on", "time": 14, "note": 64, "velocity": 117, "channel": 0}, {"type": "note_off", "time": 60, "note": 64, "velocity": 117, "channel": 0}, {"type": "note_on", "time": 4, "note": 60, "velocity": 109, "channel": 0}, {"type": "note_off", "time": 41, "note": 60, "velocity": 109, "channel": 0}, {"type": "note_on", "time": 1, "note": 56, "velocity": 107, "channel": 0}, {"type": "note_off", "time": 37, "note": 56, "velocity": 107, "channel": 0}, {"type": "note_on", "time": 5, "note": 55, "velocity": 113, "channel": 0}, {"type": "note_off", "time": 53, "note": 55, "velocity": 113, "channel": 0}, {"type": "note_on", "time": 15, "note": 59, "velocity": 111, "channel": 0}, {"type": "note_off", "time": 47, "note": 59, "velocity": 111, "channel": 0}, {"type": "note_on", "time": 0, "note": 60, "velocity": 110, "channel": 0}, {"type": "note_off", "time": 37, "note": 60, "velocity": 110, "channel": 0}, {"type": "note_on", "time": 2, "note": 62, "velocity": 116, "channel": 0}, {"type": "note_off", "time": 39, "note": 62, "velocity": 116, "channel": 0}, {"type": "note_on", "time": 4, "note": 64, "velocity": 120, "channel": 0}, {"type": "note_off", "time": 41, "note": 64, "velocity": 120, "channel": 0}, {"type": "note_on", "time": 3, "note": 60, "velocity": 113, "channel": 0}, {"type": "note_off", "time": 73, "note": 60, "velocity": 113, "channel": 0}, {"type": "note_on", "time": 23, "note": 58, "velocity": 109, "channel": 0}, {"type": "note_off", "time": 65, "note": 58, "velocity": 109, "channel": 0}, {"type": "note_on", "time": 29, "note": 55, "velocity": 105, "channel": 0}, {"type": "note_off", "time": 63, "note": 55, "velocity": 105, "channel": 0}, {"type": "note_on", "time": 21, "note": 57, "velocity": 104, "channel": 0}, {"type": "note_off", "time": 64, "note": 57, "velocity": 104, "channel": 0}, {"type": "note_on", "time": 70, "note": 53, "velocity": 95, "channel": 0}, {"type": "note_off", "time": 37, "note": 53, "velocity": 95, "channel": 0}, {"type": "note_on", "time": 2, "note": 51, "velocity": 99, "channel": 0}, {"type": "note_off", "time": 71, "note": 51, "velocity": 99, "channel": 0}, {"type": "note_on", "time": 0, "note": 55, "velocity": 113, "channel": 0}, {"type": "note_off", "time": 82, "note": 55, "velocity": 113, "channel": 0}, {"type": "note_on", "time": 11, "note": 48, "velocity": 113, "channel": 0}, {"type": "note_off", "time": 60, "note": 48, "velocity": 113, "channel": 0}, {"type": "note_on", "time": 1, "note": 53, "velocity": 110, "channel": 0}, {"type": "note_off", "time": 28, "note": 53, "velocity": 110, "channel": 0}, {"type": "note_on", "time": 10, "note": 55, "velocity": 108, "channel": 0}, {"type": "note_off", "time": 32, "note": 55, "velocity": 108, "channel": 0}, {"type": "note_on", "time": 6, "note": 57, "velocity": 107, "channel": 0}, {"type": "note_off", "time": 30, "note": 57, "velocity": 107, "channel": 0}, {"type": "note_on", "time": 9, "note": 60, "velocity": 104, "channel": 0}, {"type": "note_off", "time": 82, "note": 60, "velocity": 104, "channel": 0}, {"type": "note_on", "time": 28, "note": 65, "velocity": 106, "channel": 0}, {"type": "note_off", "time": 41, "note": 65, "velocity": 106, "channel": 0}, {"type": "note_on", "time": 0, "note": 67, "velocity": 103, "channel": 0}, {"type": "note_off", "time": 23, "note": 67, "velocity": 103, "channel": 0}, {"type": "note_on", "time": 3, "note": 69, "velocity": 109, "channel": 0}, {"type": "note_off", "time": 41, "note": 69, "velocity": 109, "channel": 0}, {"type": "note_on", "time": 2, "note": 72, "velocity": 118, "channel": 0}, {"type": "note_off", "time": 28, "note": 72, "velocity": 118, "channel": 0}, {"type": "note_on", "time": 27, "note": 67, "velocity": 119, "channel": 0}, {"type": "note_off", "time": 174, "note": 67, "velocity": 119, "channel": 0}, {"type": "note_on", "time": 14, "note": 69, "velocity": 114, "channel": 0}, {"type": "note_on", "time": 24, "note": 62, "velocity": 113, "channel": 0}, {"type": "note_off", "time": 0, "note": 69, "velocity": 114, "channel": 0}, {"type": "note_off", "time": 82, "note": 62, "velocity": 113, "channel": 0}, {"type": "note_on", "time": 3, "note": 63, "velocity": 118, "channel": 0}, {"type": "note_off", "time": 101, "note": 63, "velocity": 118, "channel": 0}, {"type": "note_on", "time": 7, "note": 64, "velocity": 120, "channel": 0}, {"type": "note_off", "time": 97, "note": 64, "velocity": 120, "channel": 0}, {"type": "note_on", "time": 19, "note": 65, "velocity": 106, "channel": 0}, {"type": "note_off", "time": 75, "note": 65, "velocity": 106, "channel": 0}, {"type": "note_on", "time": 15, "note": 66, "velocity": 112, "channel": 0}, {"type": "note_off", "time": 77, "note": 66, "velocity": 112, "channel": 0}, {"type": "note_on", "time": 16, "note": 67, "velocity": 117, "channel": 0}, {"type": "note_off", "time": 84, "note": 67, "velocity": 117, "channel": 0}, {"type": "note_on", "time": 29, "note": 72, "velocity": 117, "channel": 0}, {"type": "note_off", "time": 52, "note": 72, "velocity": 117, "channel": 0}, {"type": "note_on", "time": 55, "note": 67, "velocity": 115, "channel": 0}, {"type": "note_off", "time": 63, "note": 67, "velocity": 115, "channel": 0}, {"type": "note_on", "time": 14, "note": 65, "velocity": 116, "channel": 0}, {"type": "note_off", "time": 65, "note": 65, "velocity": 116, "channel": 0}, {"type": "note_on", "time": 33, "note": 64, "velocity": 116, "channel": 0}, {"type": "note_off", "time": 168, "note": 64, "velocity": 116, "channel": 0}, {"type": "note_on", "time": 7, "note": 60, "velocity": 110, "channel": 0}, {"type": "note_off", "time": 73, "note": 60, "velocity": 110, "channel": 0}, {"type": "note_on", "time": 210, "note": 57, "velocity": 114, "channel": 0}, {"type": "note_off", "time": 69, "note": 57, "velocity": 114, "channel": 0}, {"type": "note_on", "time": 24, "note": 59, "velocity": 112, "channel": 0}, {"type": "note_off", "time": 63, "note": 59, "velocity": 112, "channel": 0}, {"type": "note_on", "time": 3, "note": 61, "velocity": 121, "channel": 0}, {"type": "note_off", "time": 45, "note": 61, "velocity": 121, "channel": 0}, {"type": "note_on", "time": 16, "note": 65, "velocity": 121, "channel": 0}, {"type": "note_off", "time": 69, "note": 65, "velocity": 121, "channel": 0}, {"type": "note_on", "time": 16, "note": 64, "velocity": 121, "channel": 0}, {"type": "note_off", "time": 77, "note": 64, "velocity": 121, "channel": 0}, {"type": "note_on", "time": 16, "note": 61, "velocity": 122, "channel": 0}, {"type": "note_off", "time": 87, "note": 61, "velocity": 122, "channel": 0}, {"type": "note_on", "time": 15, "note": 58, "velocity": 111, "channel": 0}, {"type": "note_off", "time": 84, "note": 58, "velocity": 111, "channel": 0}, {"type": "note_on", "time": 24, "note": 53, "velocity": 106, "channel": 0}, {"type": "note_off", "time": 77, "note": 53, "velocity": 106, "channel": 0}, {"type": "note_on", "time": 5, "note": 57, "velocity": 116, "channel": 0}, {"type": "note_off", "time": 78, "note": 57, "velocity": 116, "channel": 0}, {"type": "note_on", "time": 20, "note": 55, "velocity": 118, "channel": 0}, {"type": "note_off", "time": 93, "note": 55, "velocity": 118, "channel": 0}, {"type": "note_on", "time": 5, "note": 53, "velocity": 109, "channel": 0}, {"type": "note_off", "time": 59, "note": 53, "velocity": 109, "channel": 0}, {"type": "note_on", "time": 20, "note": 50, "velocity": 112, "channel": 0}, {"type": "note_off", "time": 28, "note": 50, "velocity": 112, "channel": 0}, {"type": "note_on", "time": 74, "note": 55, "velocity": 108, "channel": 0}, {"type": "note_off", "time": 102, "note": 55, "velocity": 108, "channel": 0}, {"type": "note_on", "time": 15, "note": 57, "velocity": 115, "channel": 0}, {"type": "note_off", "time": 70, "note": 57, "velocity": 115, "channel": 0}, {"type": "note_on", "time": 12, "note": 60, "velocity": 112, "channel": 0}, {"type": "note_off", "time": 43, "note": 60, "velocity": 112, "channel": 0}, {"type": "note_on", "time": 30, "note": 64, "velocity": 119, "channel": 0}, {"type": "note_off", "time": 84, "note": 64, "velocity": 119, "channel": 0}, {"type": "note_on", "time": 23, "note": 59, "velocity": 111, "channel": 0}, {"type": "note_off", "time": 96, "note": 59, "velocity": 111, "channel": 0}, {"type": "note_on", "time": 74, "note": 59, "velocity": 109, "channel": 0}, {"type": "note_off", "time": 99, "note": 59, "velocity": 109, "channel": 0}, {"type": "note_on", "time": 41, "note": 57, "velocity": 112, "channel": 0}, {"type": "note_off", "time": 82, "note": 57, "velocity": 112, "channel": 0}, {"type": "note_on", "time": 88, "note": 59, "velocity": 112, "channel": 0}, {"type": "note_off", "time": 75, "note": 59, "velocity": 112, "channel": 0}, {"type": "note_on", "time": 114, "note": 60, "velocity": 115, "channel": 0}, {"type": "note_off", "time": 70, "note": 60, "velocity": 115, "channel": 0}, {"type": "note_on", "time": 303, "note": 64, "velocity": 126, "channel": 0}, {"type": "note_off", "time": 93, "note": 64, "velocity": 126, "channel": 0}, {"type": "note_on", "time": 78, "note": 64, "velocity": 126, "channel": 0}, {"type": "note_off", "time": 69, "note": 64, "velocity": 126, "channel": 0}, {"type": "note_on", "time": 50, "note": 64, "velocity": 124, "channel": 0}, {"type": "note_off", "time": 88, "note": 64, "velocity": 124, "channel": 0}, {"type": "note_on", "time": 117, "note": 64, "velocity": 121, "channel": 0}, {"type": "note_off", "time": 149, "note": 64, "velocity": 121, "channel": 0}, {"type": "end_of_track", "time": 0}]]}