{"ticks_per_beat": 192, "tracks": [[{"type": "track_name", "name": "Melody", "time": 0}, {"type": "set_tempo", "tempo": 310880, "time": 0}, {"type": "key_signature", "key": "C", "time": 0}, {"type": "time_signature", "numerator": 4, "denominator": 4, "clocks_per_click": 24, "notated_32nd_notes_per_beat": 8, "time": 0}, {"type": "note_on", "time": 1792, "note": 55, "velocity": 112, "channel": 0}, {"type": "note_off", "time": 63, "note": 55, "velocity": 112, "channel": 0}, {"type": "note_on", "time": 55, "note": 57, "velocity": 110, "channel": 0}, {"type": "note_off", "time": 100, "note": 57, "velocity": 110, "channel": 0}, {"type": "note_on", "time": 95, "note": 57, "velocity": 104, "channel": 0}, {"type": "note_off", "time": 108, "note": 57, "velocity": 104, "channel": 0}, {"type": "note_on", "time": 88, "note": 57, "velocity": 108, "channel": 0}, {"type": "note_off", "time": 216, "note": 57, "velocity": 108, "channel": 0}, {"type": "note_on", "time": 267, "note": 55, "velocity": 116, "channel": 0}, {"type": "note_off", "time": 78, "note": 55, "velocity": 116, "channel": 0}, {"type": "note_on", "time": 95, "note": 62, "velocity": 120, "channel": 0}, {"type": "note_off", "time": 103, "note": 62, "velocity": 120, "channel": 0}, {"type": "note_on", "time": 8, "note": 62, "velocity": 117, "channel": 0}, {"type": "note_off", "time": 105, "note": 62, "velocity": 117, "channel": 0}, {"type": "note_on", "time": 16, "note": 60, "velocity": 116, "channel": 0}, {"type": "note_off", "time": 73, "note": 60, "velocity": 116, "channel": 0}, {"type": "note_on", "time": 86, "note": 60, "velocity": 117, "channel": 0}, {"type": "note_off", "time": 100, "note": 60, "velocity": 117, "channel": 0}, {"type": "note_on", "time": 17, "note": 60, "velocity": 113, "channel": 0}, {"type": "note_off", "time": 243, "note": 60, "velocity": 113, "channel": 0}, {"type": "note_on", "time": 261, "note": 59, "velocity": 116, "channel": 0}, {"type": "note_off", "time": 95, "note": 59, "velocity": 116, "channel": 0}, {"type": "note_on", "time": 73, "note": 59, "velocity": 114, "channel": 0}, {"type": "note_off", "time": 93, "note": 59, "velocity": 114, "channel": 0}, {"type": "note_on", "time": 21, "note": 59, "velocity": 113, "channel": 0}, {"type": "note_off", "time": 89, "note": 59, "velocity": 113, "channel": 0}, {"type": "note_on", "time": 21, "note": 57, "velocity": 117, "channel": 0}, {"type": "note_off", "time": 78, "note": 57, "velocity": 117, "channel": 0}, {"type": "note_on", "time": 84, "note": 57, "velocity": 113, "channel": 0}, {"type": "note_off", "time": 82, "note": 57, "velocity": 113, "channel": 0}, {"type": "note_on", "time": 16, "note": 57, "velocity": 112, "channel": 0}, {"type": "note_off", "time": 86, "note": 57, "velocity": 112, "channel": 0}, {"type": "note_on", "time": 16, "note": 55, "velocity": 115, "channel": 0}, {"type": "note_off", "time": 82, "note": 55, "velocity": 115, "channel": 0}, {"type": "note_on", "time": 10, "note": 54, "velocity": 107, "channel": 0}, {"type": "note_off", "time": 71, "note": 54, "velocity": 107, "channel": 0}, {"type": "note_on", "time": 35, "note": 57, "velocity": 115, "channel": 0}, {"type": "note_off", "time": 80, "note": 57, "velocity": 115, "channel": 0}, {"type": "note_on", "time": 25, "note": 55, "velocity": 111, "channel": 0}, {"type": "note_off", "time": 66, "note": 55, "velocity": 111, "channel": 0}, {"type": "note_on", "time": 9, "note": 55, "velocity": 111, "channel": 0}, {"type": "note_off", "time": 75, "note": 55, "velocity": 111, "channel": 0}, {"type": "note_on", "time": 32, "note": 52, "velocity": 113, "channel": 0}, {"type": "note_off", "time": 57, "note": 52, "velocity": 113, "channel": 0}, {"type": "note_on", "time": 39, "note": 55, "velocity": 113, "channel": 0}, {"type": "note_off", "time": 84, "note": 55, "velocity": 113, "channel": 0}, {"type": "note_on", "time": 34, "note": 49, "velocity": 104, "channel": 0}, {"type": "note_off", "time": 215, "note": 49, "velocity": 104, "channel": 0}, {"type": "note_on", "time": 16, "note": 52, "velocity": 106, "channel": 0}, {"type": "note_off", "time": 107, "note": 52, "velocity": 106, "channel": 0}, {"type": "note_on", "time": 23, "note": 55, "velocity": 109, "channel": 0}, {"type": "note_off", "time": 111, "note": 55, "velocity": 109, "channel": 0}, {"type": "note_on", "time": 17, "note": 57, "velocity": 115, "channel": 0}, {"type": "note_off", "time": 84, "note": 57, "velocity": 115, "channel": 0}, {"type": "note_on", "time": 95, "note": 55, "velocity": 107, "channel": 0}, {"type": "note_off", "time": 86, "note": 55, "velocity": 107, "channel": 0}, {"type": "note_on", "time": 16, "note": 53, "velocity": 106, "channel": 0}, {"type": "note_off", "time": 66, "note": 53, "velocity": 106, "channel": 0}, {"type": "note_on", "time": 55, "note": 57, "velocity": 112, "channel": 0}, {"type": "note_off", "time": 77, "note": 57, "velocity": 112, "channel": 0}, {"type": "note_on", "time": 78, "note": 62, "velocity": 116, "channel": 0}, {"type": "note_off", "time": 77, "note": 62, "velocity": 116, "channel": 0}, {"type": "note_on", "time": 50, "note": 65, "velocity": 118, "channel": 0}, {"type": "note_off", "time": 109, "note": 65, "velocity": 118, "channel": 0}, {"type": "note_on", "time": 9, "note": 64, "velocity": 118, "channel": 0}, {"type": "note_off", "time": 82, "note": 64, "velocity": 118, "channel": 0}, {"type": "note_on", "time": 87, "note": 62, "velocity": 116, "channel": 0}, {"type": "note_off", "time": 64, "note": 62, "velocity": 116, "channel": 0}, {"type": "note_on", "time": 28, "note": 60, "velocity": 113, "channel": 0}, {"type": "note_off", "time": 96, "note": 60, "velocity": 113, "channel": 0}, {"type": "note_on", "time": 43, "note": 59, "velocity": 110, "channel": 0}, {"type": "note_off", "time": 84, "note": 59, "velocity": 110, "channel": 0}, {"type": "note_on", "time": 51, "note": 57, "velocity": 107, "channel": 0}, {"type": "note_off", "time": 80, "note": 57, "velocity": 107, "channel": 0}, {"type": "note_on", "time": 26, "note": 55, "velocity": 108, "channel": 0}, {"type": "note_off", "time": 109, "note": 55, "velocity": 108, "channel": 0}, {"type": "note_on", "time": 41, "note": 53, "velocity": 106, "channel": 0}, {"type": "note_off", "time": 71, "note": 53, "velocity": 106, "channel": 0}, {"type": "note_on", "time": 66, "note": 52, "velocity": 111, "channel": 0}, {"type": "note_off", "time": 125, "note": 52, "velocity": 111, "channel": 0}, {"type": "note_on", "time": 231, "note": 55, "velocity": 115, "channel": 0}, {"type": "note_off", "time": 64, "note": 55, "velocity": 115, "channel": 0}, {"type": "note_on", "time": 32, "note": 60, "velocity": 116, "channel": 0}, {"type": "note_off", "time": 89, "note": 60, "velocity": 116, "channel": 0}, {"type": "note_on", "time": 16, "note": 64, "velocity": 122, "channel": 0}, {"type": "note_off", "time": 82, "note": 64, "velocity": 122, "channel": 0}, {"type": "note_on", "time": 12, "note": 67, "velocity": 121, "channel": 0}, {"type": "note_off", "time": 84, "note": 67, "velocity": 121, "channel": 0}, {"type": "note_on", "time": 7, "note": 69, "velocity": 120, "channel": 0}, {"type": "note_off", "time": 87, "note": 69, "velocity": 120, "channel": 0}, {"type": "note_on", "time": 7, "note": 67, "velocity": 118, "channel": 0}, {"type": "note_off", "time": 107, "note": 67, "velocity": 118, "channel": 0}, {"type": "note_on", "time": 19, "note": 64, "velocity": 117, "channel": 0}, {"type": "note_off", "time": 78, "note": 64, "velocity": 117, "channel": 0}, {"type": "note_on", "time": 7, "note": 60, "velocity": 113, "channel": 0}, {"type": "note_off", "time": 84, "note": 60, "velocity": 113, "channel": 0}, {"type": "note_on", "time": 43, "note": 55, "velocity": 112, "channel": 0}, {"type": "note_off", "time": 73, "note": 55, "velocity": 112, "channel": 0}, {"type": "note_on", "time": 26, "note": 52, "velocity": 112, "channel": 0}, {"type": "note_off", "time": 80, "note": 52, "velocity": 112, "channel": 0}, {"type": "note_on", "time": 1, "note": 55, "velocity": 114, "channel": 0}, {"type": "note_off", "time": 80, "note": 55, "velocity": 114, "channel": 0}, {"type": "note_on", "time": 19, "note": 60, "velocity": 115, "channel": 0}, {"type": "note_off", "time": 73, "note": 60, "velocity": 115, "channel": 0}, {"type": "note_on", "time": 34, "note": 64, "velocity": 121, "channel": 0}, {"type": "note_off", "time": 77, "note": 64, "velocity": 121, "channel": 0}, {"type": "note_on", "time": 17, "note": 65, "velocity": 113, "channel": 0}, {"type": "note_off", "time": 86, "note": 65, "velocity": 113, "channel": 0}, {"type": "note_on", "time": 16, "note": 60, "velocity": 111, "channel": 0}, {"type": "note_off", "time": 69, "note": 60, "velocity": 111, "channel": 0}, {"type": "note_on", "time": 12, "note": 53, "velocity": 106, "channel": 0}, {"type": "note_off", "time": 89, "note": 53, "velocity": 106, "channel": 0}, {"type": "note_on", "time": 25, "note": 48, "velocity": 108, "channel": 0}, {"type": "note_off", "time": 86, "note": 48, "velocity": 108, "channel": 0}, {"type": "note_on", "time": 7, "note": 53, "velocity": 108, "channel": 0}, {"type": "note_off", "time": 168, "note": 53, "velocity": 108, "channel": 0}, {"type": "note_on", "time": 331, "note": 57, "velocity": 115, "channel": 0}, {"type": "note_off", "time": 62, "note": 57, "velocity": 115, "channel": 0}, {"type": "note_on", "time": 30, "note": 55, "velocity": 116, "channel": 0}, {"type": "note_off", "time": 78, "note": 55, "velocity": 116, "channel": 0}, {"type": "note_on", "time": 25, "note": 52, "velocity": 113, "channel": 0}, {"type": "note_off", "time": 73, "note": 52, "velocity": 113, "channel": 0}, {"type": "note_on", "time": 16, "note": 53, "velocity": 107, "channel": 0}, {"type": "note_off", "time": 259, "note": 53, "velocity": 107, "channel": 0}, {"type": "note_on", "time": 34, "note": 55, "velocity": 120, "channel": 0}, {"type": "note_off", "time": 84, "note": 55, "velocity": 120, "channel": 0}, {"type": "note_on", "time": 7, "note": 52, "velocity": 111, "channel": 0}, {"type": "note_off", "time": 100, "note": 52, "velocity": 111, "channel": 0}, {"type": "note_on", "time": 16, "note": 48, "velocity": 107, "channel": 0}, {"type": "note_off", "time": 59, "note": 48, "velocity": 107, "channel": 0}, {"type": "note_on", "time": 19, "note": 52, "velocity": 107, "channel": 0}, {"type": "note_off", "time": 93, "note": 52, "velocity": 107, "channel": 0}, {"type": "note_on", "time": 12, "note": 55, "velocity": 115, "channel": 0}, {"type": "note_off", "time": 66, "note": 55, "velocity": 115, "channel": 0}, {"type": "note_on", "time": 8, "note": 60, "velocity": 115, "channel": 0}, {"type": "note_off", "time": 60, "note": 60, "velocity": 115, "channel": 0}, {"type": "note_on", "time": 26, "note": 64, "velocity": 120, "channel": 0}, {"type": "note_off", "time": 80, "note": 64, "velocity": 120, "channel": 0}, {"type": "note_on", "time": 12, "note": 67, "velocity": 114, "channel": 0}, {"type": "note_off", "time": 62, "note": 67, "velocity": 114, "channel": 0}, {"type": "note_on", "time": 21, "note": 54, "velocity": 103, "channel": 0}, {"type": "note_off", "time": 48, "note": 54, "velocity": 103, "channel": 0}, {"type": "note_on", "time": 3, "note": 55, "velocity": 106, "channel": 0}, {"type": "note_off", "time": 51, "note": 55, "velocity": 106, "channel": 0}, {"type": "note_on", "time": 14, "note": 58, "velocity": 105, "channel": 0}, {"type": "note_off", "time": 252, "note": 58, "velocity": 105, "channel": 0}, {"type": "note_on", "time": 53, "note": 54, "velocity": 113, "channel": 0}, {"type": "note_off", "time": 73, "note": 54, "velocity": 113, "channel": 0}, {"type": "note_on", "time": 12, "note": 57, "velocity": 112, "channel": 0}, {"type": "note_off", "time": 87, "note": 57, "velocity": 112, "channel": 0}, {"type": "note_on", "time": 8, "note": 55, "velocity": 112, "channel": 0}, {"type": "note_off", "time": 66, "note": 55, "velocity": 112, "channel": 0}, {"type": "note_on", "time": 28, "note": 52, "velocity": 111, "channel": 0}, {"type": "note_off", "time": 89, "note": 52, "velocity": 111, "channel": 0}, {"type": "note_on", "time": 19, "note": 49, "velocity": 110, "channel": 0}, {"type": "note_off", "time": 68, "note": 49, "velocity": 110, "channel": 0}, {"type": "note_on", "time": 12, "note": 50, "velocity": 104, "channel": 0}, {"type": "note_off", "time": 324, "note": 50, "velocity": 104, "channel": 0}, {"type": "note_on", "time": 7, "note": 53, "velocity": 112, "channel": 0}, {"type": "note_off", "time": 53, "note": 53, "velocity": 112, "channel": 0}, {"type": "note_on", "time": 17, "note": 57, "velocity": 116, "channel": 0}, {"type": "note_off", "time": 80, "note": 57, "velocity": 116, "channel": 0}, {"type": "note_on", "time": 19, "note": 62, "velocity": 115, "channel": 0}, {"type": "note_off", "time": 80, "note": 62, "velocity": 115, "channel": 0}, {"type": "note_on", "time": 14, "note": 65, "velocity": 116, "channel": 0}, {"type": "note_off", "time": 276, "note": 65, "velocity": 116, "channel": 0}, {"type": "note_on", "time": 209, "note": 62, "velocity": 116, "channel": 0}, {"type": "note_off", "time": 75, "note": 62, "velocity": 116, "channel": 0}, {"type": "note_on", "time": 25, "note": 59, "velocity": 114, "channel": 0}, {"type": "note_off", "time": 55, "note": 59, "velocity": 114, "channel": 0}, {"type": "note_on", "time": 28, "note": 57, "velocity": 111, "channel": 0}, {"type": "note_off", "time": 69, "note": 57, "velocity": 111, "channel": 0}, {"type": "note_on", "time": 28, "note": 55, "velocity": 112, "channel": 0}, {"type": "note_off", "time": 70, "note": 55, "velocity": 112, "channel": 0}, {"type": "note_on", "time": 15, "note": 53, "velocity": 106, "channel": 0}, {"type": "note_off", "time": 88, "note": 53, "velocity": 106, "channel": 0}, {"type": "note_on", "time": 30, "note": 52, "velocity": 108, "channel": 0}, {"type": "note_off", "time": 69, "note": 52, "velocity": 108, "channel": 0}, {"type": "note_on", "time": 219, "note": 55, "velocity": 109, "channel": 0}, {"type": "note_off", "time": 167, "note": 55, "velocity": 109, "channel": 0}, {"type": "note_on", "time": 21, "note": 52, "velocity": 112, "channel": 0}, {"type": "note_off", "time": 69, "note": 52, "velocity": 112, "channel": 0}, {"type": "note_on", "time": 17, "note": 57, "velocity": 109, "channel": 0}, {"type": "note_off", "time": 83, "note": 57, "velocity": 109, "channel": 0}, {"type": "note_on", "time": 24, "note": 52, "velocity": 106, "channel": 0}, {"type": "note_off", "time": 71, "note": 52, "velocity": 106, "channel": 0}, {"type": "note_on", "time": 25, "note": 55, "velocity": 105, "channel": 0}, {"type": "note_off", "time": 326, "note": 55, "velocity": 105, "channel": 0}, {"type": "note_on", "time": 2, "note": 52, "velocity": 114, "channel": 0}, {"type": "note_off", "time": 49, "note": 52, "velocity": 114, "channel": 0}, {"type": "note_on", "time": 18, "note": 55, "velocity": 106, "channel": 0}, {"type": "note_off", "time": 178, "note": 55, "velocity": 106, "channel": 0}, {"type": "note_on", "time": 10, "note": 60, "velocity": 115, "channel": 0}, {"type": "note_off", "time": 65, "note": 60, "velocity": 115, "channel": 0}, {"type": "note_on", "time": 238, "note": 55, "velocity": 116, "channel": 0}, {"type": "note_off", "time": 73, "note": 55, "velocity": 116, "channel": 0}, {"type": "note_on", "time": 12, "note": 52, "velocity": 108, "channel": 0}, {"type": "note_off", "time": 78, "note": 52, "velocity": 108, "channel": 0}, {"type": "note_on", "time": 11, "note": 55, "velocity": 113, "channel": 0}, {"type": "note_off", "time": 81, "note": 55, "velocity": 113, "channel": 0}, {"type": "note_on", "time": 23, "note": 60, "velocity": 114, "channel": 0}, {"type": "note_off", "time": 76, "note": 60, "velocity": 114, "channel": 0}, {"type": "note_on", "time": 16, "note": 64, "velocity": 117, "channel": 0}, {"type": "note_off", "time": 73, "note": 64, "velocity": 117, "channel": 0}, {"type": "note_on", "time": 17, "note": 67, "velocity": 114, "channel": 0}, {"type": "note_off", "time": 69, "note": 67, "velocity": 114, "channel": 0}, {"type": "note_on", "time": 39, "note": 62, "velocity": 112, "channel": 0}, {"type": "note_off", "time": 74, "note": 62, "velocity": 112, "channel": 0}, {"type": "note_on", "time": 32, "note": 65, "velocity": 108, "channel": 0}, {"type": "note_off", "time": 291, "note": 65, "velocity": 108, "channel": 0}, {"type": "note_on", "time": 11, "note": 62, "velocity": 112, "channel": 0}, {"type": "note_off", "time": 181, "note": 62, "velocity": 112, "channel": 0}, {"type": "note_on", "time": 2, "note": 59, "velocity": 111, "channel": 0}, {"type": "note_off", "time": 70, "note": 59, "velocity": 111, "channel": 0}, {"type": "note_on", "time": 16, "note": 59, "velocity": 107, "channel": 0}, {"type": "note_off", "time": 79, "note": 59, "velocity": 107, "channel": 0}, {"type": "note_on", "time": 11, "note": 60, "velocity": 102, "channel": 0}, {"type": "note_off", "time": 171, "note": 60, "velocity": 102, "channel": 0}, {"type": "note_on", "time": 21, "note": 55, "velocity": 113, "channel": 0}, {"type": "note_off", "time": 71, "note": 55, "velocity": 113, "channel": 0}, {"type": "note_on", "time": 15, "note": 52, "velocity": 118, "channel": 0}, {"type": "note_off", "time": 73, "note": 52, "velocity": 118, "channel": 0}, {"type": "note_on", "time": 30, "note": 55, "velocity": 115, "channel": 0}, {"type": "note_off", "time": 79, "note": 55, "velocity": 115, "channel": 0}, {"type": "note_on", "time": 21, "note": 60, "velocity": 116, "channel": 0}, {"type": "note_off", "time": 61, "note": 60, "velocity": 116, "channel": 0}, {"type": "note_on", "time": 11, "note": 64, "velocity": 119, "channel": 0}, {"type": "note_off", "time": 55, "note": 64, "velocity": 119, "channel": 0}, {"type": "note_on", "time": 52, "note": 67, "velocity": 118, "channel": 0}, {"type": "note_off", "time": 68, "note": 67, "velocity": 118, "channel": 0}, {"type": "note_on", "time": 21, "note": 69, "velocity": 116, "channel": 0}, {"type": "note_off", "time": 79, "note": 69, "velocity": 116, "channel": 0}, {"type": "note_on", "time": 24, "note": 64, "velocity": 112, "channel": 0}, {"type": "note_off", "time": 290, "note": 64, "velocity": 112, "channel": 0}, {"type": "note_on", "time": 11, "note": 62, "velocity": 113, "channel": 0}, {"type": "note_off", "time": 70, "note": 62, "velocity": 113, "channel": 0}, {"type": "note_on", "time": 11, "note": 61, "velocity": 110, "channel": 0}, {"type": "note_off", "time": 80, "note": 61, "velocity": 110, "channel": 0}, {"type": "note_on", "time": 25, "note": 58, "velocity": 109, "channel": 0}, {"type": "note_off", "time": 69, "note": 58, "velocity": 109, "channel": 0}, {"type": "note_on", "time": 20, "note": 57, "velocity": 112, "channel": 0}, {"type": "note_off", "time": 70, "note": 57, "velocity": 112, "channel": 0}, {"type": "note_on", "time": 7, "note": 55, "velocity": 105, "channel": 0}, {"type": "note_off", "time": 84, "note": 55, "velocity": 105, "channel": 0}, {"type": "note_on", "time": 15, "note": 53, "velocity": 104, "channel": 0}, {"type": "note_off", "time": 168, "note": 53, "velocity": 104, "channel": 0}, {"type": "note_on", "time": 18, "note": 57, "velocity": 109, "channel": 0}, {"type": "note_off", "time": 73, "note": 57, "velocity": 109, "channel": 0}, {"type": "note_on", "time": 39, "note": 50, "velocity": 110, "channel": 0}, {"type": "note_off", "time": 160, "note": 50, "velocity": 110, "channel": 0}, {"type": "note_on", "time": 20, "note": 55, "velocity": 115, "channel": 0}, {"type": "note_off", "time": 68, "note": 55, "velocity": 115, "channel": 0}, {"type": "note_on", "time": 35, "note": 47, "velocity": 106, "channel": 0}, {"type": "note_off", "time": 180, "note": 47, "velocity": 106, "channel": 0}, {"type": "note_on", "time": 302, "note": 55, "velocity": 117, "channel": 0}, {"type": "note_off", "time": 66, "note": 55, "velocity": 117, "channel": 0}, {"type": "note_on", "time": 34, "note": 47, "velocity": 111, "channel": 0}, {"type": "note_off", "time": 76, "note": 47, "velocity": 111, "channel": 0}, {"type": "note_on", "time": 7, "note": 48, "velocity": 107, "channel": 0}, {"type": "note_off", "time": 79, "note": 48, "velocity": 107, "channel": 0}, {"type": "note_on", "time": 18, "note": 50, "velocity": 114, "channel": 0}, {"type": "note_off", "time": 97, "note": 50, "velocity": 114, "channel": 0}, {"type": "note_on", "time": 11, "note": 52, "velocity": 111, "channel": 0}, {"type": "note_off", "time": 89, "note": 52, "velocity": 111, "channel": 0}, {"type": "note_on", "time": 7, "note": 48, "velocity": 107, "channel": 0}, {"type": "note_off", "time": 170, "note": 48, "velocity": 107, "channel": 0}, {"type": "note_on", "time": 3, "note": 52, "velocity": 113, "channel": 0}, {"type": "note_off", "time": 84, "note": 52, "velocity": 113, "channel": 0}, {"type": "note_on", "time": 13, "note": 55, "velocity": 118, "channel": 0}, {"type": "note_off", "time": 68, "note": 55, "velocity": 118, "channel": 0}, {"type": "note_on", "time": 7, "note": 53, "velocity": 108, "channel": 0}, {"type": "note_off", "time": 89, "note": 53, "velocity": 108, "channel": 0}, {"type": "note_on", "time": 7, "note": 55, "velocity": 111, "channel": 0}, {"type": "note_off", "time": 90, "note": 55, "velocity": 111, "channel": 0}, {"type": "note_on", "time": 8, "note": 57, "velocity": 109, "channel": 0}, {"type": "note_off", "time": 83, "note": 57, "velocity": 109, "channel": 0}, {"type": "note_on", "time": 66, "note": 54, "velocity": 111, "channel": 0}, {"type": "note_off", "time": 50, "note": 54, "velocity": 111, "channel": 0}, {"type": "note_on", "time": 8, "note": 60, "velocity": 108, "channel": 0}, {"type": "note_off", "time": 147, "note": 60, "velocity": 108, "channel": 0}, {"type": "note_on", "time": 61, "note": 55, "velocity": 109, "channel": 0}, {"type": "note_off", "time": 60, "note": 55, "velocity": 109, "channel": 0}, {"type": "note_on", "time": 10, "note": 53, "velocity": 109, "channel": 0}, {"type": "note_off", "time": 86, "note": 53, "velocity": 109, "channel": 0}, {"type": "note_on", "time": 35, "note": 64, "velocity": 122, "channel": 0}, {"type": "note_off", "time": 78, "note": 64, "velocity": 122, "channel": 0}, {"type": "note_on", "time": 25, "note": 60, "velocity": 108, "channel": 0}, {"type": "note_off", "time": 68, "note": 60, "velocity": 108, "channel": 0}, {"type": "note_on", "time": 21, "note": 55, "velocity": 115, "channel": 0}, {"type": "note_off", "time": 80, "note": 55, "velocity": 115, "channel": 0}, {"type": "note_on", "time": 17, "note": 48, "velocity": 105, "channel": 0}, {"type": "note_off", "time": 78, "note": 48, "velocity": 105, "channel": 0}, {"type": "note_on", "time": 34, "note": 53, "velocity": 108, "channel": 0}, {"type": "note_off", "time": 85, "note": 53, "velocity": 108, "channel": 0}, {"type": "note_on", "time": 17, "note": 48, "velocity": 98, "channel": 0}, {"type": "note_off", "time": 61, "note": 48, "velocity": 98, "channel": 0}, {"type": "note_on", "time": 0, "note": 57, "velocity": 106, "channel": 0}, {"type": "note_off", "time": 373, "note": 57, "velocity": 106, "channel": 0}, {"type": "note_on", "time": 20, "note": 53, "velocity": 121, "channel": 0}, {"type": "note_off", "time": 80, "note": 53, "velocity": 121, "channel": 0}, {"type": "note_on", "time": 198, "note": 48, "velocity": 113, "channel": 0}, {"type": "note_off", "time": 88, "note": 48, "velocity": 113, "channel": 0}, {"type": "note_on", "time": 5, "note": 55, "velocity": 113, "channel": 0}, {"type": "note_off", "time": 84, "note": 55, "velocity": 113, "channel": 0}, {"type": "note_on", "time": 20, "note": 48, "velocity": 96, "channel": 0}, {"type": "note_off", "time": 80, "note": 48, "velocity": 96, "channel": 0}, {"type": "note_on", "time": 7, "note": 53, "velocity": 97, "channel": 0}, {"type": "note_off", "time": 189, "note": 53, "velocity": 97, "channel": 0}, {"type": "note_on", "time": 25, "note": 48, "velocity": 103, "channel": 0}, {"type": "note_off", "time": 69, "note": 48, "velocity": 103, "channel": 0}, {"type": "note_on", "time": 123, "note": 55, "velocity": 105, "channel": 0}, {"type": "note_off", "time": 283, "note": 55, "velocity": 105, "channel": 0}, {"type": "note_on", "time": 64, "note": 52, "velocity": 112, "channel": 0}, {"type": "note_off", "time": 35, "note": 52, "velocity": 112, "channel": 0}, {"type": "note_on", "time": 5, "note": 55, "velocity": 116, "channel": 0}, {"type": "note_off", "time": 73, "note": 55, "velocity": 116, "channel": 0}, {"type": "note_on", "time": 22, "note": 60, "velocity": 111, "channel": 0}, {"type": "note_off", "time": 46, "note": 60, "velocity": 111, "channel": 0}, {"type": "note_on", "time": 28, "note": 64, "velocity": 116, "channel": 0}, {"type": "note_off", "time": 83, "note": 64, "velocity": 116, "channel": 0}, {"type": "note_on", "time": 11, "note": 62, "velocity": 115, "channel": 0}, {"type": "note_off", "time": 41, "note": 62, "velocity": 115, "channel": 0}, {"type": "note_on", "time": 54, "note": 61, "velocity": 103, "channel": 0}, {"type": "note_off", "time": 158, "note": 61, "velocity": 103, "channel": 0}, {"type": "note_on", "time": 15, "note": 61, "velocity": 112, "channel": 0}, {"type": "note_off", "time": 105, "note": 61, "velocity": 112, "channel": 0}, {"type": "note_on", "time": 32, "note": 57, "velocity": 111, "channel": 0}, {"type": "note_off", "time": 68, "note": 57, "velocity": 111, "channel": 0}, {"type": "note_on", "time": 74, "note": 55, "velocity": 109, "channel": 0}, {"type": "note_off", "time": 94, "note": 55, "velocity": 109, "channel": 0}, {"type": "note_on", "time": 25, "note": 53, "velocity": 111, "channel": 0}, {"type": "note_off", "time": 84, "note": 53, "velocity": 111, "channel": 0}, {"type": "note_on", "time": 12, "note": 52, "velocity": 106, "channel": 0}, {"type": "note_off", "time": 60, "note": 52, "velocity": 106, "channel": 0}, {"type": "note_on", "time": 3, "note": 55, "velocity": 104, "channel": 0}, {"type": "note_off", "time": 118, "note": 55, "velocity": 104, "channel": 0}, {"type": "note_on", "time": 17, "note": 52, "velocity": 110, "channel": 0}, {"type": "note_off", "time": 173, "note": 52, "velocity": 110, "channel": 0}, {"type": "note_on", "time": 10, "note": 53, "velocity": 108, "channel": 0}, {"type": "note_off", "time": 139, "note": 53, "velocity": 108, "channel": 0}, {"type": "note_on", "time": 31, "note": 52, "velocity": 113, "channel": 0}, {"type": "note_off", "time": 93, "note": 52, "velocity": 113, "channel": 0}, {"type": "note_on", "time": 30, "note": 50, "velocity": 107, "channel": 0}, {"type": "note_off", "time": 162, "note": 50, "velocity": 107, "channel": 0}, {"type": "note_on", "time": 315, "note": 53, "velocity": 115, "channel": 0}, {"type": "note_off", "time": 139, "note": 53, "velocity": 115, "channel": 0}, {"type": "note_on", "time": 31, "note": 50, "velocity": 112, "channel": 0}, {"type": "note_off", "time": 86, "note": 50, "velocity": 112, "channel": 0}, {"type": "note_on", "time": 15, "note": 47, "velocity": 112, "channel": 0}, {"type": "note_off", "time": 94, "note": 47, "velocity": 112, "channel": 0}, {"type": "note_on", "time": 13, "note": 48, "velocity": 108, "channel": 0}, {"type": "note_off", "time": 286, "note": 48, "velocity": 108, "channel": 0}, {"type": "note_on", "time": 39, "note": 52, "velocity": 119, "channel": 0}, {"type": "note_off", "time": 98, "note": 52, "velocity": 119, "channel": 0}, {"type": "note_on", "time": 18, "note": 55, "velocity": 113, "channel": 0}, {"type": "note_off", "time": 75, "note": 55, "velocity": 113, "channel": 0}, {"type": "note_on", "time": 96, "note": 60, "velocity": 110, "channel": 0}, {"type": "note_off", "time": 76, "note": 60, "velocity": 110, "channel": 0}, {"type": "note_on", "time": 434, "note": 60, "velocity": 109, "channel": 0}, {"type": "note_off", "time": 61, "note": 60, "velocity": 109, "channel": 0}, {"type": "note_on", "time": 34, "note": 52, "velocity": 113, "channel": 0}, {"type": "note_off", "time": 79, "note": 52, "velocity": 113, "channel": 0}, {"type": "note_on", "time": 26, "note": 55, "velocity": 116, "channel": 0}, {"type": "note_off", "time": 70, "note": 55, "velocity": 116, "channel": 0}, {"type": "note_on", "time": 26, "note": 60, "velocity": 115, "channel": 0}, {"type": "note_off", "time": 61, "note": 60, "velocity": 115, "channel": 0}, {"type": "note_on", "time": 31, "note": 64, "velocity": 121, "channel": 0}, {"type": "note_off", "time": 75, "note": 64, "velocity": 121, "channel": 0}, {"type": "note_on", "time": 12, "note": 67, "velocity": 120, "channel": 0}, {"type": "note_off", "time": 75, "note": 67, "velocity": 120, "channel": 0}, {"type": "note_on", "time": 26, "note": 72, "velocity": 119, "channel": 0}, {"type": "note_off", "time": 60, "note": 72, "velocity": 119, "channel": 0}, {"type": "note_on", "time": 2, "note": 69, "velocity": 118, "channel": 0}, {"type": "note_off", "time": 108, "note": 69, "velocity": 118, "channel": 0}, {"type": "note_on", "time": 21, "note": 65, "velocity": 113, "channel": 0}, {"type": "note_off", "time": 64, "note": 65, "velocity": 113, "channel": 0}, {"type": "note_on", "time": 30, "note": 60, "velocity": 110, "channel": 0}, {"type": "note_off", "time": 160, "note": 60, "velocity": 110, "channel": 0}, {"type": "note_on", "time": 27, "note": 65, "velocity": 114, "channel": 0}, {"type": "note_off", "time": 50, "note": 65, "velocity": 114, "channel": 0}, {"type": "note_on", "time": 30, "note": 69, "velocity": 112, "channel": 0}, {"type": "note_off", "time": 73, "note": 69, "velocity": 112, "channel": 0}, {"type": "note_on", "time": 30, "note": 67, "velocity": 120, "channel": 0}, {"type": "note_off", "time": 34, "note": 67, "velocity": 120, "channel": 0}, {"type": "note_on", "time": 0, "note": 69, "velocity": 117, "channel": 0}, {"type": "note_off", "time": 34, "note": 69, "velocity": 117, "channel": 0}, {"type": "note_on", "time": 10, "note": 67, "velocity": 113, "channel": 0}, {"type": "note_off", "time": 81, "note": 67, "velocity": 113, "channel": 0}, {"type": "note_on", "time": 36, "note": 64, "velocity": 120, "channel": 0}, {"type": "note_off", "time": 70, "note": 64, "velocity": 120, "channel": 0}, {"type": "note_on", "time": 20, "note": 67, "velocity": 118, "channel": 0}, {"type": "note_off", "time": 78, "note": 67, "velocity": 118, "channel": 0}, {"type": "note_on", "time": 30, "note": 65, "velocity": 114, "channel": 0}, {"type": "note_off", "time": 75, "note": 65, "velocity": 114, "channel": 0}, {"type": "note_on", "time": 27, "note": 62, "velocity": 116, "channel": 0}, {"type": "note_off", "time": 76, "note": 62, "velocity": 116, "channel": 0}, {"type": "note_on", "time": 20, "note": 59, "velocity": 111, "channel": 0}, {"type": "note_off", "time": 79, "note": 59, "velocity": 111, "channel": 0}, {"type": "note_on", "time": 18, "note": 57, "velocity": 110, "channel": 0}, {"type": "note_off", "time": 60, "note": 57, "velocity": 110, "channel": 0}, {"type": "note_on", "time": 21, "note": 55, "velocity": 114, "channel": 0}, {"type": "note_off", "time": 40, "note": 55, "velocity": 114, "channel": 0}, {"type": "note_on", "time": 17, "note": 57, "velocity": 111, "channel": 0}, {"type": "note_off", "time": 34, "note": 57, "velocity": 111, "channel": 0}, {"type": "note_on", "time": 11, "note": 55, "velocity": 110, "channel": 0}, {"type": "note_off", "time": 63, "note": 55, "velocity": 110, "channel": 0}, {"type": "note_on", "time": 41, "note": 54, "velocity": 108, "channel": 0}, {"type": "note_off", "time": 80, "note": 54, "velocity": 108, "channel": 0}, {"type": "note_on", "time": 20, "note": 57, "velocity": 111, "channel": 0}, {"type": "note_off", "time": 65, "note": 57, "velocity": 111, "channel": 0}, {"type": "note_on", "time": 31, "note": 55, "velocity": 112, "channel": 0}, {"type": "note_off", "time": 42, "note": 55, "velocity": 112, "channel": 0}, {"type": "note_on", "time": 10, "note": 57, "velocity": 111, "channel": 0}, {"type": "note_off", "time": 35, "note": 57, "velocity": 111, "channel": 0}, {"type": "note_on", "time": 13, "note": 55, "velocity": 108, "channel": 0}, {"type": "note_off", "time": 171, "note": 55, "velocity": 108, "channel": 0}, {"type": "note_on", "time": 457, "note": 57, "velocity": 110, "channel": 0}, {"type": "note_off", "time": 114, "note": 57, "velocity": 110, "channel": 0}, {"type": "note_on", "time": 20, "note": 55, "velocity": 114, "channel": 0}, {"type": "note_off", "time": 141, "note": 55, "velocity": 114, "channel": 0}, {"type": "note_on", "time": 15, "note": 53, "velocity": 107, "channel": 0}, {"type": "note_off", "time": 392, "note": 53, "velocity": 107, "channel": 0}, {"type": "note_on", "time": 21, "note": 57, "velocity": 112, "channel": 0}, {"type": "note_off", "time": 88, "note": 57, "velocity": 112, "channel": 0}, {"type": "note_on", "time": 1, "note": 62, "velocity": 118, "channel": 0}, {"type": "note_off", "time": 59, "note": 62, "velocity": 118, "channel": 0}, {"type": "note_on", "time": 33, "note": 65, "velocity": 117, "channel": 0}, {"type": "note_off", "time": 67, "note": 65, "velocity": 117, "channel": 0}, {"type": "note_on", "time": 29, "note": 69, "velocity": 119, "channel": 0}, {"type": "note_off", "time": 70, "note": 69, "velocity": 119, "channel": 0}, {"type": "note_on", "time": 30, "note": 66, "velocity": 111, "channel": 0}, {"type": "note_off", "time": 66, "note": 66, "velocity": 111, "channel": 0}, {"type": "note_on", "time": 12, "note": 67, "velocity": 112, "channel": 0}, {"type": "note_off", "time": 84, "note": 67, "velocity": 112, "channel": 0}, {"type": "note_on", "time": 22, "note": 64, "velocity": 115, "channel": 0}, {"type": "note_off", "time": 73, "note": 64, "velocity": 115, "channel": 0}, {"type": "note_on", "time": 17, "note": 60, "velocity": 113, "channel": 0}, {"type": "note_off", "time": 76, "note": 60, "velocity": 113, "channel": 0}, {"type": "note_on", "time": 25, "note": 55, "velocity": 109, "channel": 0}, {"type": "note_off", "time": 70, "note": 55, "velocity": 109, "channel": 0}, {"type": "note_on", "time": 28, "note": 60, "velocity": 100, "channel": 0}, {"type": "note_off", "time": 64, "note": 60, "velocity": 100, "channel": 0}, {"type": "note_on", "time": 16, "note": 62, "velocity": 115, "channel": 0}, {"type": "note_off", "time": 89, "note": 62, "velocity": 115, "channel": 0}, {"type": "note_on", "time": 10, "note": 59, "velocity": 108, "channel": 0}, {"type": "note_off", "time": 84, "note": 59, "velocity": 108, "channel": 0}, {"type": "note_on", "time": 21, "note": 55, "velocity": 113, "channel": 0}, {"type": "note_off", "time": 75, "note": 55, "velocity": 113, "channel": 0}, {"type": "note_on", "time": 0, "note": 60, "velocity": 104, "channel": 0}, {"type": "note_off", "time": 186, "note": 60, "velocity": 104, "channel": 0}, {"type": "note_on", "time": 21, "note": 55, "velocity": 114, "channel": 0}, {"type": "note_off", "time": 80, "note": 55, "velocity": 114, "channel": 0}, {"type": "note_on", "time": 10, "note": 52, "velocity": 111, "channel": 0}, {"type": "note_off", "time": 102, "note": 52, "velocity": 111, "channel": 0}, {"type": "note_on", "time": 0, "note": 57, "velocity": 113, "channel": 0}, {"type": "note_off", "time": 83, "note": 57, "velocity": 113, "channel": 0}, {"type": "note_on", "time": 22, "note": 53, "velocity": 108, "channel": 0}, {"type": "note_off", "time": 63, "note": 53, "velocity": 108, "channel": 0}, {"type": "note_on", "time": 16, "note": 50, "velocity": 109, "channel": 0}, {"type": "note_off", "time": 93, "note": 50, "velocity": 109, "channel": 0}, {"type": "note_on", "time": 18, "note": 55, "velocity": 112, "channel": 0}, {"type": "note_off", "time": 70, "note": 55, "velocity": 112, "channel": 0}, {"type": "note_on", "time": 11, "note": 52, "velocity": 114, "channel": 0}, {"type": "note_off", "time": 113, "note": 52, "velocity": 114, "channel": 0}, {"type": "note_on", "time": 7, "note": 48, "velocity": 103, "channel": 0}, {"type": "note_off", "time": 64, "note": 48, "velocity": 103, "channel": 0}, {"type": "note_on", "time": 5, "note": 52, "velocity": 106, "channel": 0}, {"type": "note_off", "time": 103, "note": 52, "velocity": 106, "channel": 0}, {"type": "note_on", "time": 20, "note": 55, "velocity": 115, "channel": 0}, {"type": "note_off", "time": 73, "note": 55, "velocity": 115, "channel": 0}, {"type": "note_on", "time": 13, "note": 60, "velocity": 115, "channel": 0}, {"type": "note_off", "time": 73, "note": 60, "velocity": 115, "channel": 0}, {"type": "note_on", "time": 21, "note": 64, "velocity": 124, "channel": 0}, {"type": "note_off", "time": 80, "note": 64, "velocity": 124, "channel": 0}, {"type": "note_on", "time": 28, "note": 67, "velocity": 120, "channel": 0}, {"type": "note_off", "time": 78, "note": 67, "velocity": 120, "channel": 0}, {"type": "note_on", "time": 7, "note": 64, "velocity": 119, "channel": 0}, {"type": "note_off", "time": 95, "note": 64, "velocity": 119, "channel": 0}, {"type": "note_on", "time": 10, "note": 65, "velocity": 111, "channel": 0}, {"type": "note_off", "time": 299, "note": 65, "velocity": 111, "channel": 0}, {"type": "note_on", "time": 0, "note": 60, "velocity": 115, "channel": 0}, {"type": "note_off", "time": 89, "note": 60, "velocity": 115, "channel": 0}, {"type": "note_on", "time": 15, "note": 55, "velocity": 114, "channel": 0}, {"type": "note_off", "time": 65, "note": 55, "velocity": 114, "channel": 0}, {"type": "note_on", "time": 8, "note": 60, "velocity": 114, "channel": 0}, {"type": "note_off", "time": 81, "note": 60, "velocity": 114, "channel": 0}, {"type": "note_on", "time": 22, "note": 53, "velocity": 112, "channel": 0}, {"type": "note_off", "time": 160, "note": 53, "velocity": 112, "channel": 0}, {"type": "note_on", "time": 431, "note": 55, "velocity": 111, "channel": 0}, {"type": "note_off", "time": 792, "note": 55, "velocity": 111, "channel": 0}, {"type": "note_on", "time": 35, "note": 59, "velocity": 114, "channel": 0}, {"type": "note_off", "time": 80, "note": 59, "velocity": 114, "channel": 0}, {"type": "note_on", "time": 10, "note": 57, "velocity": 107, "channel": 0}, {"type": "note_off", "time": 78, "note": 57, "velocity": 107, "channel": 0}, {"type": "note_on", "time": 35, "note": 55, "velocity": 108, "channel": 0}, {"type": "note_off", "time": 75, "note": 55, "velocity": 108, "channel": 0}, {"type": "note_on", "time": 20, "note": 57, "velocity": 104, "channel": 0}, {"type": "note_off", "time": 841, "note": 57, "velocity": 104, "channel": 0}, {"type": "note_on", "time": 15, "note": 57, "velocity": 104, "channel": 0}, {"type": "note_off", "time": 96, "note": 57, "velocity": 104, "channel": 0}, {"type": "note_on", "time": 7, "note": 61, "velocity": 51, "channel": 0}, {"type": "note_off", "time": 89, "note": 61, "velocity": 51, "channel": 0}, {"type": "note_on", "time": 0, "note": 62, "velocity": 119, "channel": 0}, {"type": "note_off", "time": 102, "note": 62, "velocity": 119, "channel": 0}, {"type": "note_on", "time": 12, "note": 64, "velocity": 123, "channel": 0}, {"type": "note_off", "time": 93, "note": 64, "velocity": 123, "channel": 0}, {"type": "note_on", "time": 14, "note": 65, "velocity": 119, "channel": 0}, {"type": "note_off", "time": 84, "note": 65, "velocity": 119, "channel": 0}, {"type": "note_on", "time": 8, "note": 62, "velocity": 122, "channel": 0}, {"type": "note_off", "time": 71, "note": 62, "velocity": 122, "channel": 0}, {"type": "note_on", "time": 21, "note": 60, "velocity": 115, "channel": 0}, {"type": "note_off", "time": 75, "note": 60, "velocity": 115, "channel": 0}, {"type": "note_on", "time": 14, "note": 59, "velocity": 111, "channel": 0}, {"type": "note_off", "time": 84, "note": 59, "velocity": 111, "channel": 0}, {"type": "note_on", "time": 25, "note": 57, "velocity": 113, "channel": 0}, {"type": "note_off", "time": 75, "note": 57, "velocity": 113, "channel": 0}, {"type": "note_on", "time": 14, "note": 55, "velocity": 120, "channel": 0}, {"type": "note_off", "time": 103, "note": 55, "velocity": 120, "channel": 0}, {"type": "note_on", "time": 10, "note": 52, "velocity": 116, "channel": 0}, {"type": "note_off", "time": 57, "note": 52, "velocity": 116, "channel": 0}, {"type": "note_on", "time": 12, "note": 53, "velocity": 114, "channel": 0}, {"type": "note_off", "time": 79, "note": 53, "velocity": 114, "channel": 0}, {"type": "note_on", "time": 15, "note": 50, "velocity": 109, "channel": 0}, {"type": "note_off", "time": 61, "note": 50, "velocity": 109, "channel": 0}, {"type": "note_on", "time": 28, "note": 47, "velocity": 114, "channel": 0}, {"type": "note_off", "time": 68, "note": 47, "velocity": 114, "channel": 0}, {"type": "note_on", "time": 23, "note": 48, "velocity": 110, "channel": 0}, {"type": "note_off", "time": 71, "note": 48, "velocity": 110, "channel": 0}, {"type": "note_on", "time": 41, "note": 48, "velocity": 108, "channel": 0}, {"type": "note_off", "time": 257, "note": 48, "velocity": 108, "channel": 0}, {"type": "note_on", "time": 8, "note": 52, "velocity": 116, "channel": 0}, {"type": "note_off", "time": 88, "note": 52, "velocity": 116, "channel": 0}, {"type": "note_on", "time": 8, "note": 55, "velocity": 117, "channel": 0}, {"type": "note_off", "time": 85, "note": 55, "velocity": 117, "channel": 0}, {"type": "note_on", "time": 25, "note": 55, "velocity": 122, "channel": 0}, {"type": "note_off", "time": 49, "note": 55, "velocity": 122, "channel": 0}, {"type": "note_on", "time": 17, "note": 55, "velocity": 126, "channel": 0}, {"type": "note_off", "time": 76, "note": 55, "velocity": 126, "channel": 0}, {"type": "note_on", "time": 16, "note": 55, "velocity": 115, "channel": 0}, {"type": "note_off", "time": 84, "note": 55, "velocity": 115, "channel": 0}, {"type": "note_on", "time": 27, "note": 55, "velocity": 113, "channel": 0}, {"type": "note_off", "time": 167, "note": 55, "velocity": 113, "channel": 0}, {"type": "note_on", "time": 11, "note": 55, "velocity": 114, "channel": 0}, {"type": "note_off", "time": 85, "note": 55, "velocity": 114, "channel": 0}, {"type": "note_on", "time": 34, "note": 55, "velocity": 114, "channel": 0}, {"type": "note_off", "time": 144, "note": 55, "velocity": 114, "channel": 0}, {"type": "note_on", "time": 17, "note": 55, "velocity": 110, "channel": 0}, {"type": "note_off", "time": 84, "note": 55, "velocity": 110, "channel": 0}, {"type": "note_on", "time": 23, "note": 57, "velocity": 108, "channel": 0}, {"type": "note_off", "time": 380, "note": 57, "velocity": 108, "channel": 0}, {"type": "note_on", "time": 380, "note": 57, "velocity": 110, "channel": 0}, {"type": "note_off", "time": 163, "note": 57, "velocity": 110, "channel": 0}, {"type": "note_on", "time": 20, "note": 53, "velocity": 114, "channel": 0}, {"type": "note_off", "time": 86, "note": 53, "velocity": 114, "channel": 0}, {"type": "note_on", "time": 17, "note": 53, "velocity": 113, "channel": 0}, {"type": "note_off", "time": 66, "note": 53, "velocity": 113, "channel": 0}, {"type": "note_on", "time": 11, "note": 53, "velocity": 116, "channel": 0}, {"type": "note_off", "time": 117, "note": 53, "velocity": 116, "channel": 0}, {"type": "note_on", "time": 26, "note": 53, "velocity": 122, "channel": 0}, {"type": "note_off", "time": 80, "note": 53, "velocity": 122, "channel": 0}, {"type": "note_on", "time": 12, "note": 53, "velocity": 108, "channel": 0}, {"type": "note_off", "time": 80, "note": 53, "velocity": 108, "channel": 0}, {"type": "note_on", "time": 8, "note": 53, "velocity": 115, "channel": 0}, {"type": "note_off", "time": 109, "note": 53, "velocity": 115, "channel": 0}, {"type": "note_on", "time": 7, "note": 55, "velocity": 109, "channel": 0}, {"type": "note_off", "time": 460, "note": 55, "velocity": 109, "channel": 0}, {"type": "note_on", "time": 111, "note": 55, "velocity": 113, "channel": 0}, {"type": "note_off", "time": 100, "note": 55, "velocity": 113, "channel": 0}, {"type": "note_on", "time": 20, "note": 55, "velocity": 117, "channel": 0}, {"type": "note_off", "time": 66, "note": 55, "velocity": 117, "channel": 0}, {"type": "note_on", "time": 25, "note": 55, "velocity": 113, "channel": 0}, {"type": "note_off", "time": 85, "note": 55, "velocity": 113, "channel": 0}, {"type": "note_on", "time": 11, "note": 52, "velocity": 118, "channel": 0}, {"type": "note_off", "time": 79, "note": 52, "velocity": 118, "channel": 0}, {"type": "note_on", "time": 16, "note": 52, "velocity": 118, "channel": 0}, {"type": "note_off", "time": 79, "note": 52, "velocity": 118, "channel": 0}, {"type": "note_on", "time": 37, "note": 52, "velocity": 115, "channel": 0}, {"type": "note_off", "time": 92, "note": 52, "velocity": 115, "channel": 0}, {"type": "note_on", "time": 19, "note": 57, "velocity": 114, "channel": 0}, {"type": "note_off", "time": 169, "note": 57, "velocity": 114, "channel": 0}, {"type": "note_on", "time": 21, "note": 55, "velocity": 119, "channel": 0}, {"type": "note_off", "time": 136, "note": 55, "velocity": 119, "channel": 0}, {"type": "note_on", "time": 5, "note": 53, "velocity": 117, "channel": 0}, {"type": "note_off", "time": 315, "note": 53, "velocity": 117, "channel": 0}, {"type": "note_on", "time": 273, "note": 53, "velocity": 122, "channel": 0}, {"type": "note_off", "time": 82, "note": 53, "velocity": 122, "channel": 0}, {"type": "note_on", "time": 5, "note": 50, "velocity": 122, "channel": 0}, {"type": "note_off", "time": 86, "note": 50, "velocity": 122, "channel": 0}, {"type": "note_on", "time": 17, "note": 48, "velocity": 112, "channel": 0}, {"type": "note_off", "time": 107, "note": 48, "velocity": 112, "channel": 0}, {"type": "note_on", "time": 1, "note": 47, "velocity": 121, "channel": 0}, {"type": "note_off", "time": 79, "note": 47, "velocity": 121, "channel": 0}, {"type": "note_on", "time": 6, "note": 47, "velocity": 118, "channel": 0}, {"type": "note_off", "time": 85, "note": 47, "velocity": 118, "channel": 0}, {"type": "note_on", "time": 23, "note": 47, "velocity": 123, "channel": 0}, {"type": "note_off", "time": 88, "note": 47, "velocity": 123, "channel": 0}, {"type": "note_on", "time": 40, "note": 50, "velocity": 117, "channel": 0}, {"type": "note_off", "time": 163, "note": 50, "velocity": 117, "channel": 0}, {"type": "note_on", "time": 28, "note": 47, "velocity": 120, "channel": 0}, {"type": "note_off", "time": 75, "note": 47, "velocity": 120, "channel": 0}, {"type": "note_on", "time": 44, "note": 48, "velocity": 106, "channel": 0}, {"type": "note_off", "time": 322, "note": 48, "velocity": 106, "channel": 0}, {"type": "note_on", "time": 783, "note": 64, "velocity": 121, "channel": 0}, {"type": "note_off", "time": 85, "note": 64, "velocity": 121, "channel": 0}, {"type": "note_on", "time": 50, "note": 64, "velocity": 124, "channel": 0}, {"type": "note_off", "time": 118, "note": 64, "velocity": 124, "channel": 0}, {"type": "note_on", "time": 27, "note": 64, "velocity": 124, "channel": 0}, {"type": "note_off", "time": 112, "note": 64, "velocity": 124, "channel": 0}, {"type": "note_on", "time": 13, "note": 64, "velocity": 122, "channel": 0}, {"type": "note_off", "time": 86, "note": 64, "velocity": 122, "channel": 0}, {"type": "note_on", "time": 50, "note": 65, "velocity": 120, "channel": 0}, {"type": "note_off", "time": 124, "note": 65, "velocity": 120, "channel": 0}, {"type": "note_on", "time": 3, "note": 60, "velocity": 118, "channel": 0}, {"type": "note_off", "time": 78, "note": 60, "velocity": 118, "channel": 0}, {"type": "note_on", "time": 55, "note": 55, "velocity": 108, "channel": 0}, {"type": "note_off", "time": 811, "note": 55, "velocity": 108, "channel": 0}, {"type": "note_on", "time": 36, "note": 59, "velocity": 114, "channel": 0}, {"type": "note_off", "time": 84, "note": 59, "velocity": 114, "channel": 0}, {"type": "note_on", "time": 21, "note": 62, "velocity": 119, "channel": 0}, {"type": "note_off", "time": 60, "note": 62, "velocity": 119, "channel": 0}, {"type": "note_on", "time": 17, "note": 65, "velocity": 120, "channel": 0}, {"type": "note_off", "time": 68, "note": 65, "velocity": 120, "channel": 0}, {"type": "note_on", "time": 21, "note": 69, "velocity": 120, "channel": 0}, {"type": "note_off", "time": 87, "note": 69, "velocity": 120, "channel": 0}, {"type": "note_on", "time": 12, "note": 66, "velocity": 118, "channel": 0}, {"type": "note_off", "time": 86, "note": 66, "velocity": 118, "channel": 0}, {"type": "note_on", "time": 7, "note": 67, "velocity": 119, "channel": 0}, {"type": "note_off", "time": 93, "note": 67, "velocity": 119, "channel": 0}, {"type": "note_on", "time": 7, "note": 64, "velocity": 121, "channel": 0}, {"type": "note_off", "time": 77, "note": 64, "velocity": 121, "channel": 0}, {"type": "note_on", "time": 14, "note": 60, "velocity": 114, "channel": 0}, {"type": "note_off", "time": 78, "note": 60, "velocity": 114, "channel": 0}, {"type": "note_on", "time": 12, "note": 64, "velocity": 122, "channel": 0}, {"type": "note_off", "time": 100, "note": 64, "velocity": 122, "channel": 0}, {"type": "note_on", "time": 8, "note": 62, "velocity": 116, "channel": 0}, {"type": "note_off", "time": 66, "note": 62, "velocity": 116, "channel": 0}, {"type": "note_on", "time": 23, "note": 60, "velocity": 112, "channel": 0}, {"type": "note_off", "time": 86, "note": 60, "velocity": 112, "channel": 0}, {"type": "note_on", "time": 13, "note": 55, "velocity": 116, "channel": 0}, {"type": "note_off", "time": 75, "note": 55, "velocity": 116, "channel": 0}, {"type": "note_on", "time": 31, "note": 52, "velocity": 112, "channel": 0}, {"type": "note_off", "time": 81, "note": 52, "velocity": 112, "channel": 0}, {"type": "note_on", "time": 15, "note": 49, "velocity": 111, "channel": 0}, {"type": "note_off", "time": 81, "note": 49, "velocity": 111, "channel": 0}, {"type": "note_on", "time": 3, "note": 52, "velocity": 113, "channel": 0}, {"type": "note_off", "time": 70, "note": 52, "velocity": 113, "channel": 0}, {"type": "note_on", "time": 3, "note": 55, "velocity": 111, "channel": 0}, {"type": "note_off", "time": 98, "note": 55, "velocity": 111, "channel": 0}, {"type": "note_on", "time": 35, "note": 58, "velocity": 110, "channel": 0}, {"type": "note_off", "time": 61, "note": 58, "velocity": 110, "channel": 0}, {"type": "note_on", "time": 36, "note": 52, "velocity": 115, "channel": 0}, {"type": "note_off", "time": 85, "note": 52, "velocity": 115, "channel": 0}, {"type": "note_on", "time": 3, "note": 55, "velocity": 115, "channel": 0}, {"type": "note_off", "time": 76, "note": 55, "velocity": 115, "channel": 0}, {"type": "note_on", "time": 17, "note": 49, "velocity": 108, "channel": 0}, {"type": "note_off", "time": 81, "note": 49, "velocity": 108, "channel": 0}, {"type": "note_on", "time": 11, "note": 52, "velocity": 117, "channel": 0}, {"type": "note_off", "time": 85, "note": 52, "velocity": 117, "channel": 0}, {"type": "note_on", "time": 7, "note": 50, "velocity": 113, "channel": 0}, {"type": "note_off", "time": 90, "note": 50, "velocity": 113, "channel": 0}, {"type": "note_on", "time": 0, "note": 52, "velocity": 114, "channel": 0}, {"type": "note_off", "time": 93, "note": 52, "velocity": 114, "channel": 0}, {"type": "note_on", "time": 3, "note": 53, "velocity": 111, "channel": 0}, {"type": "note_off", "time": 79, "note": 53, "velocity": 111, "channel": 0}, {"type": "note_on", "time": 20, "note": 55, "velocity": 114, "channel": 0}, {"type": "note_off", "time": 181, "note": 55, "velocity": 114, "channel": 0}, {"type": "note_on", "time": 18, "note": 57, "velocity": 117, "channel": 0}, {"type": "note_off", "time": 73, "note": 57, "velocity": 117, "channel": 0}, {"type": "note_on", "time": 25, "note": 53, "velocity": 116, "channel": 0}, {"type": "note_off", "time": 69, "note": 53, "velocity": 116, "channel": 0}, {"type": "note_on", "time": 18, "note": 50, "velocity": 111, "channel": 0}, {"type": "note_off", "time": 81, "note": 50, "velocity": 111, "channel": 0}, {"type": "note_on", "time": 30, "note": 48, "velocity": 107, "channel": 0}, {"type": "note_off", "time": 146, "note": 48, "velocity": 107, "channel": 0}, {"type": "note_on", "time": 18, "note": 50, "velocity": 107, "channel": 0}, {"type": "note_off", "time": 81, "note": 50, "velocity": 107, "channel": 0}, {"type": "note_on", "time": 27, "note": 47, "velocity": 113, "channel": 0}, {"type": "note_off", "time": 127, "note": 47, "velocity": 113, "channel": 0}, {"type": "note_on", "time": 31, "note": 48, "velocity": 110, "channel": 0}, {"type": "note_off", "time": 79, "note": 48, "velocity": 110, "channel": 0}, {"type": "note_on", "time": 40, "note": 50, "velocity": 118, "channel": 0}, {"type": "note_off", "time": 90, "note": 50, "velocity": 118, "channel": 0}, {"type": "note_on", "time": 3, "note": 52, "velocity": 115, "channel": 0}, {"type": "note_off", "time": 79, "note": 52, "velocity": 115, "channel": 0}, {"type": "note_on", "time": 18, "note": 48, "velocity": 106, "channel": 0}, {"type": "note_off", "time": 187, "note": 48, "velocity": 106, "channel": 0}, {"type": "note_on", "time": 10, "note": 52, "velocity": 118, "channel": 0}, {"type": "note_off", "time": 76, "note": 52, "velocity": 118, "channel": 0}, {"type": "note_on", "time": 12, "note": 55, "velocity": 112, "channel": 0}, {"type": "note_off", "time": 73, "note": 55, "velocity": 112, "channel": 0}, {"type": "note_on", "time": 20, "note": 60, "velocity": 116, "channel": 0}, {"type": "note_off", "time": 79, "note": 60, "velocity": 116, "channel": 0}, {"type": "note_on", "time": 13, "note": 64, "velocity": 119, "channel": 0}, {"type": "note_off", "time": 80, "note": 64, "velocity": 119, "channel": 0}, {"type": "note_on", "time": 25, "note": 67, "velocity": 121, "channel": 0}, {"type": "note_off", "time": 199, "note": 67, "velocity": 121, "channel": 0}, {"type": "note_on", "time": 637, "note": 67, "velocity": 127, "channel": 0}, {"type": "note_off", "time": 112, "note": 67, "velocity": 127, "channel": 0}, {"type": "note_on", "time": 86, "note": 71, "velocity": 119, "channel": 0}, {"type": "note_off", "time": 78, "note": 71, "velocity": 119, "channel": 0}, {"type": "note_on", "time": 8, "note": 72, "velocity": 107, "channel": 0}, {"type": "note_off", "time": 73, "note": 72, "velocity": 107, "channel": 0}, {"type": "note_on", "time": 9, "note": 71, "velocity": 119, "channel": 0}, {"type": "note_off", "time": 92, "note": 71, "velocity": 119, "channel": 0}, {"type": "note_on", "time": 31, "note": 68, "velocity": 120, "channel": 0}, {"type": "note_off", "time": 71, "note": 68, "velocity": 120, "channel": 0}, {"type": "note_on", "time": 0, "note": 69, "velocity": 105, "channel": 0}, {"type": "note_off", "time": 89, "note": 69, "velocity": 105, "channel": 0}, {"type": "note_on", "time": 44, "note": 67, "velocity": 120, "channel": 0}, {"type": "note_off", "time": 73, "note": 67, "velocity": 120, "channel": 0}, {"type": "note_on", "time": 1, "note": 68, "velocity": 94, "channel": 0}, {"type": "note_off", "time": 69, "note": 68, "velocity": 94, "channel": 0}, {"type": "note_on", "time": 22, "note": 65, "velocity": 119, "channel": 0}, {"type": "note_off", "time": 102, "note": 65, "velocity": 119, "channel": 0}, {"type": "note_on", "time": 18, "note": 64, "velocity": 121, "channel": 0}, {"type": "note_off", "time": 124, "note": 64, "velocity": 121, "channel": 0}, {"type": "note_on", "time": 22, "note": 62, "velocity": 119, "channel": 0}, {"type": "note_off", "time": 113, "note": 62, "velocity": 119, "channel": 0}, {"type": "note_on", "time": 86, "note": 60, "velocity": 116, "channel": 0}, {"type": "note_off", "time": 80, "note": 60, "velocity": 116, "channel": 0}, {"type": "note_on", "time": 10, "note": 59, "velocity": 111, "channel": 0}, {"type": "note_off", "time": 95, "note": 59, "velocity": 111, "channel": 0}, {"type": "note_on", "time": 17, "note": 57, "velocity": 110, "channel": 0}, {"type": "note_off", "time": 113, "note": 57, "velocity": 110, "channel": 0}, {"type": "note_on", "time": 56, "note": 55, "velocity": 116, "channel": 0}, {"type": "note_off", "time": 117, "note": 55, "velocity": 116, "channel": 0}, {"type": "note_on", "time": 49, "note": 52, "velocity": 114, "channel": 0}, {"type": "note_off", "time": 95, "note": 52, "velocity": 114, "channel": 0}, {"type": "note_on", "time": 26, "note": 55, "velocity": 117, "channel": 0}, {"type": "note_off", "time": 104, "note": 55, "velocity": 117, "channel": 0}, {"type": "note_on", "time": 78, "note": 57, "velocity": 109, "channel": 0}, {"type": "note_off", "time": 122, "note": 57, "velocity": 109, "channel": 0}, {"type": "note_on", "time": 59, "note": 61, "velocity": 115, "channel": 0}, {"type": "note_off", "time": 93, "note": 61, "velocity": 115, "channel": 0}, {"type": "note_on", "time": 16, "note": 64, "velocity": 120, "channel": 0}, {"type": "note_off", "time": 102, "note": 64, "velocity": 120, "channel": 0}, {"type": "note_on", "time": 2, "note": 62, "velocity": 113, "channel": 0}, {"type": "note_off", "time": 88, "note": 62, "velocity": 113, "channel": 0}, {"type": "note_on", "time": 6, "note": 61, "velocity": 116, "channel": 0}, {"type": "note_off", "time": 89, "note": 61, "velocity": 116, "channel": 0}, {"type": "note_on", "time": 79, "note": 62, "velocity": 113, "channel": 0}, {"type": "note_off", "time": 75, "note": 62, "velocity": 113, "channel": 0}, {"type": "note_on", "time": 6, "note": 64, "velocity": 120, "channel": 0}, {"type": "note_off", "time": 104, "note": 64, "velocity": 120, "channel": 0}, {"type": "note_on", "time": 41, "note": 65, "velocity": 115, "channel": 0}, {"type": "note_off", "time": 88, "note": 65, "velocity": 115, "channel": 0}, {"type": "note_on", "time": 86, "note": 62, "velocity": 112, "channel": 0}, {"type": "note_off", "time": 119, "note": 62, "velocity": 112, "channel": 0}, {"type": "note_on", "time": 60, "note": 57, "velocity": 112, "channel": 0}, {"type": "note_off", "time": 100, "note": 57, "velocity": 112, "channel": 0}, {"type": "note_on", "time": 85, "note": 62, "velocity": 113, "channel": 0}, {"type": "note_off", "time": 93, "note": 62, "velocity": 113, "channel": 0}, {"type": "note_on", "time": 15, "note": 59, "velocity": 116, "channel": 0}, {"type": "note_off", "time": 74, "note": 59, "velocity": 116, "channel": 0}, {"type": "note_on", "time": 12, "note": 57, "velocity": 107, "channel": 0}, {"type": "note_off", "time": 85, "note": 57, "velocity": 107, "channel": 0}, {"type": "note_on", "time": 28, "note": 55, "velocity": 113, "channel": 0}, {"type": "note_off", "time": 137, "note": 55, "velocity": 113, "channel": 0}, {"type": "note_on", "time": 26, "note": 55, "velocity": 119, "channel": 0}, {"type": "note_off", "time": 113, "note": 55, "velocity": 119, "channel": 0}, {"type": "note_on", "time": 10, "note": 53, "velocity": 117, "channel": 0}, {"type": "note_off", "time": 90, "note": 53, "velocity": 117, "channel": 0}, {"type": "note_on", "time": 50, "note": 50, "velocity": 114, "channel": 0}, {"type": "note_off", "time": 103, "note": 50, "velocity": 114, "channel": 0}, {"type": "note_on", "time": 74, "note": 48, "velocity": 113, "channel": 0}, {"type": "note_off", "time": 99, "note": 48, "velocity": 113, "channel": 0}, {"type": "note_on", "time": 22, "note": 52, "velocity": 110, "channel": 0}, {"type": "note_off", "time": 89, "note": 52, "velocity": 110, "channel": 0}, {"type": "note_on", "time": 31, "note": 55, "velocity": 114, "channel": 0}, {"type": "note_off", "time": 79, "note": 55, "velocity": 114, "channel": 0}, {"type": "note_on", "time": 6, "note": 60, "velocity": 113, "channel": 0}, {"type": "note_off", "time": 81, "note": 60, "velocity": 113, "channel": 0}, {"type": "note_on", "time": 26, "note": 64, "velocity": 119, "channel": 0}, {"type": "note_off", "time": 92, "note": 64, "velocity": 119, "channel": 0}, {"type": "note_on", "time": 55, "note": 67, "velocity": 112, "channel": 0}, {"type": "note_off", "time": 89, "note": 67, "velocity": 112, "channel": 0}, {"type": "note_on", "time": 16, "note": 69, "velocity": 110, "channel": 0}, {"type": "note_off", "time": 548, "note": 69, "velocity": 110, "channel": 0}, {"type": "note_on", "time": 414, "note": 67, "velocity": 120, "channel": 0}, {"type": "note_off", "time": 35, "note": 67, "velocity": 120, "channel": 0}, {"type": "note_on", "time": 4, "note": 69, "velocity": 122, "channel": 0}, {"type": "note_off", "time": 44, "note": 69, "velocity": 122, "channel": 0}, {"type": "note_on", "time": 4, "note": 67, "velocity": 118, "channel": 0}, {"type": "note_off", "time": 78, "note": 67, "velocity": 118, "channel": 0}, {"type": "note_on", "time": 3, "note": 65, "velocity": 116, "channel": 0}, {"type": "note_off", "time": 105, "note": 65, "velocity": 116, "channel": 0}, {"type": "note_on", "time": 12, "note": 69, "velocity": 114, "channel": 0}, {"type": "note_off", "time": 95, "note": 69, "velocity": 114, "channel": 0}, {"type": "note_on", "time": 16, "note": 67, "velocity": 117, "channel": 0}, {"type": "note_off", "time": 34, "note": 67, "velocity": 117, "channel": 0}, {"type": "note_on", "time": 5, "note": 69, "velocity": 119, "channel": 0}, {"type": "note_off", "time": 43, "note": 69, "velocity": 119, "channel": 0}, {"type": "note_on", "time": 3, "note": 67, "velocity": 115, "channel": 0}, {"type": "note_off", "time": 75, "note": 67, "velocity": 115, "channel": 0}, {"type": "note_on", "time": 10, "note": 64, "velocity": 116, "channel": 0}, {"type": "note_off", "time": 82, "note": 64, "velocity": 116, "channel": 0}, {"type": "note_on", "time": 21, "note": 69, "velocity": 115, "channel": 0}, {"type": "note_off", "time": 78, "note": 69, "velocity": 115, "channel": 0}, {"type": "note_on", "time": 29, "note": 67, "velocity": 113, "channel": 0}, {"type": "note_off", "time": 32, "note": 67, "velocity": 113, "channel": 0}, {"type": "note_on", "time": 7, "note": 69, "velocity": 120, "channel": 0}, {"type": "note_off", "time": 39, "note": 69, "velocity": 120, "channel": 0}, {"type": "note_on", "time": 8, "note": 67, "velocity": 110, "channel": 0}, {"type": "note_off", "time": 82, "note": 67, "velocity": 110, "channel": 0}, {"type": "note_on", "time": 14, "note": 62, "velocity": 114, "channel": 0}, {"type": "note_off", "time": 69, "note": 62, "velocity": 114, "channel": 0}, {"type": "note_on", "time": 30, "note": 69, "velocity": 114, "channel": 0}, {"type": "note_off", "time": 77, "note": 69, "velocity": 114, "channel": 0}, {"type": "note_on", "time": 10, "note": 67, "velocity": 113, "channel": 0}, {"type": "note_off", "time": 39, "note": 67, "velocity": 113, "channel": 0}, {"type": "note_on", "time": 1, "note": 69, "velocity": 120, "channel": 0}, {"type": "note_off", "time": 41, "note": 69, "velocity": 120, "channel": 0}, {"type": "note_on", "time": 5, "note": 67, "velocity": 112, "channel": 0}, {"type": "note_off", "time": 91, "note": 67, "velocity": 112, "channel": 0}, {"type": "note_on", "time": 37, "note": 60, "velocity": 112, "channel": 0}, {"type": "note_off", "time": 75, "note": 60, "velocity": 112, "channel": 0}, {"type": "note_on", "time": 17, "note": 69, "velocity": 113, "channel": 0}, {"type": "note_off", "time": 80, "note": 69, "velocity": 113, "channel": 0}, {"type": "note_on", "time": 15, "note": 67, "velocity": 110, "channel": 0}, {"type": "note_off", "time": 37, "note": 67, "velocity": 110, "channel": 0}, {"type": "note_on", "time": 2, "note": 69, "velocity": 120, "channel": 0}, {"type": "note_off", "time": 32, "note": 69, "velocity": 120, "channel": 0}, {"type": "note_on", "time": 25, "note": 67, "velocity": 112, "channel": 0}, {"type": "note_off", "time": 77, "note": 67, "velocity": 112, "channel": 0}, {"type": "note_on", "time": 17, "note": 60, "velocity": 112, "channel": 0}, {"type": "note_off", "time": 64, "note": 60, "velocity": 112, "channel": 0}, {"type": "note_on", "time": 39, "note": 69, "velocity": 117, "channel": 0}, {"type": "note_off", "time": 66, "note": 69, "velocity": 117, "channel": 0}, {"type": "note_on", "time": 27, "note": 67, "velocity": 115, "channel": 0}, {"type": "note_off", "time": 26, "note": 67, "velocity": 115, "channel": 0}, {"type": "note_on", "time": 11, "note": 69, "velocity": 120, "channel": 0}, {"type": "note_off", "time": 37, "note": 69, "velocity": 120, "channel": 0}, {"type": "note_on", "time": 25, "note": 67, "velocity": 112, "channel": 0}, {"type": "note_off", "time": 50, "note": 67, "velocity": 112, "channel": 0}, {"type": "note_on", "time": 33, "note": 60, "velocity": 111, "channel": 0}, {"type": "note_off", "time": 60, "note": 60, "velocity": 111, "channel": 0}, {"type": "note_on", "time": 25, "note": 69, "velocity": 116, "channel": 0}, {"type": "note_off", "time": 62, "note": 69, "velocity": 116, "channel": 0}, {"type": "note_on", "time": 34, "note": 69, "velocity": 113, "channel": 0}, {"type": "note_off", "time": 179, "note": 69, "velocity": 113, "channel": 0}, {"type": "note_on", "time": 7, "note": 64, "velocity": 114, "channel": 0}, {"type": "note_off", "time": 102, "note": 64, "velocity": 114, "channel": 0}, {"type": "note_on", "time": 16, "note": 69, "velocity": 113, "channel": 0}, {"type": "note_off", "time": 71, "note": 69, "velocity": 113, "channel": 0}, {"type": "note_on", "time": 3, "note": 64, "velocity": 109, "channel": 0}, {"type": "note_off", "time": 66, "note": 64, "velocity": 109, "channel": 0}, {"type": "note_on", "time": 3, "note": 67, "velocity": 106, "channel": 0}, {"type": "note_off", "time": 39, "note": 67, "velocity": 106, "channel": 0}, {"type": "note_on", "time": 23, "note": 64, "velocity": 119, "channel": 0}, {"type": "note_off", "time": 80, "note": 64, "velocity": 119, "channel": 0}, {"type": "note_on", "time": 3, "note": 61, "velocity": 113, "channel": 0}, {"type": "note_off", "time": 77, "note": 61, "velocity": 113, "channel": 0}, {"type": "note_on", "time": 30, "note": 64, "velocity": 120, "channel": 0}, {"type": "note_off", "time": 77, "note": 64, "velocity": 120, "channel": 0}, {"type": "note_on", "time": 17, "note": 64, "velocity": 118, "channel": 0}, {"type": "note_off", "time": 43, "note": 64, "velocity": 118, "channel": 0}, {"type": "note_on", "time": 1, "note": 67, "velocity": 112, "channel": 0}, {"type": "note_off", "time": 37, "note": 67, "velocity": 112, "channel": 0}, {"type": "note_on", "time": 17, "note": 64, "velocity": 117, "channel": 0}, {"type": "note_off", "time": 64, "note": 64, "velocity": 117, "channel": 0}, {"type": "note_on", "time": 7, "note": 62, "velocity": 110, "channel": 0}, {"type": "note_off", "time": 78, "note": 62, "velocity": 110, "channel": 0}, {"type": "note_on", "time": 17, "note": 64, "velocity": 118, "channel": 0}, {"type": "note_off", "time": 91, "note": 64, "velocity": 118, "channel": 0}, {"type": "note_on", "time": 19, "note": 65, "velocity": 115, "channel": 0}, {"type": "note_off", "time": 44, "note": 65, "velocity": 115, "channel": 0}, {"type": "note_on", "time": 5, "note": 67, "velocity": 113, "channel": 0}, {"type": "note_off", "time": 32, "note": 67, "velocity": 113, "channel": 0}, {"type": "note_on", "time": 23, "note": 65, "velocity": 111, "channel": 0}, {"type": "note_off", "time": 77, "note": 65, "velocity": 111, "channel": 0}, {"type": "note_on", "time": 12, "note": 62, "velocity": 108, "channel": 0}, {"type": "note_off", "time": 68, "note": 62, "velocity": 108, "channel": 0}, {"type": "note_on", "time": 26, "note": 65, "velocity": 108, "channel": 0}, {"type": "note_off", "time": 86, "note": 65, "velocity": 108, "channel": 0}, {"type": "note_on", "time": 0, "note": 62, "velocity": 111, "channel": 0}, {"type": "note_off", "time": 36, "note": 62, "velocity": 111, "channel": 0}, {"type": "note_on", "time": 12, "note": 62, "velocity": 108, "channel": 0}, {"type": "note_off", "time": 44, "note": 62, "velocity": 108, "channel": 0}, {"type": "note_on", "time": 22, "note": 62, "velocity": 105, "channel": 0}, {"type": "note_off", "time": 52, "note": 62, "velocity": 105, "channel": 0}, {"type": "note_on", "time": 27, "note": 59, "velocity": 110, "channel": 0}, {"type": "note_off", "time": 79, "note": 59, "velocity": 110, "channel": 0}, {"type": "note_on", "time": 17, "note": 62, "velocity": 108, "channel": 0}, {"type": "note_off", "time": 59, "note": 62, "velocity": 108, "channel": 0}, {"type": "note_on", "time": 36, "note": 57, "velocity": 108, "channel": 0}, {"type": "note_off", "time": 52, "note": 57, "velocity": 108, "channel": 0}, {"type": "note_on", "time": 15, "note": 59, "velocity": 110, "channel": 0}, {"type": "note_off", "time": 36, "note": 59, "velocity": 110, "channel": 0}, {"type": "note_on", "time": 12, "note": 57, "velocity": 104, "channel": 0}, {"type": "note_off", "time": 73, "note": 57, "velocity": 104, "channel": 0}, {"type": "note_on", "time": 477, "note": 64, "velocity": 123, "channel": 0}, {"type": "note_off", "time": 73, "note": 64, "velocity": 123, "channel": 0}, {"type": "note_on", "time": 28, "note": 67, "velocity": 118, "channel": 0}, {"type": "note_off", "time": 69, "note": 67, "velocity": 118, "channel": 0}, {"type": "note_on", "time": 10, "note": 69, "velocity": 118, "channel": 0}, {"type": "note_off", "time": 64, "note": 69, "velocity": 118, "channel": 0}, {"type": "note_on", "time": 27, "note": 67, "velocity": 119, "channel": 0}, {"type": "note_off", "time": 78, "note": 67, "velocity": 119, "channel": 0}, {"type": "note_on", "time": 22, "note": 69, "velocity": 109, "channel": 0}, {"type": "note_off", "time": 69, "note": 69, "velocity": 109, "channel": 0}, {"type": "note_on", "time": 22, "note": 67, "velocity": 110, "channel": 0}, {"type": "note_off", "time": 35, "note": 67, "velocity": 110, "channel": 0}, {"type": "note_on", "time": 3, "note": 69, "velocity": 121, "channel": 0}, {"type": "note_off", "time": 46, "note": 69, "velocity": 121, "channel": 0}, {"type": "note_on", "time": 6, "note": 67, "velocity": 119, "channel": 0}, {"type": "note_off", "time": 70, "note": 67, "velocity": 119, "channel": 0}, {"type": "note_on", "time": 27, "note": 64, "velocity": 120, "channel": 0}, {"type": "note_off", "time": 86, "note": 64, "velocity": 120, "channel": 0}, {"type": "note_on", "time": 18, "note": 60, "velocity": 110, "channel": 0}, {"type": "note_off", "time": 71, "note": 60, "velocity": 110, "channel": 0}, {"type": "note_on", "time": 32, "note": 55, "velocity": 115, "channel": 0}, {"type": "note_off", "time": 64, "note": 55, "velocity": 115, "channel": 0}, {"type": "note_on", "time": 27, "note": 60, "velocity": 110, "channel": 0}, {"type": "note_off", "time": 61, "note": 60, "velocity": 110, "channel": 0}, {"type": "note_on", "time": 22, "note": 64, "velocity": 120, "channel": 0}, {"type": "note_off", "time": 88, "note": 64, "velocity": 120, "channel": 0}, {"type": "note_on", "time": 30, "note": 67, "velocity": 117, "channel": 0}, {"type": "note_off", "time": 68, "note": 67, "velocity": 117, "channel": 0}, {"type": "note_on", "time": 16, "note": 69, "velocity": 118, "channel": 0}, {"type": "note_off", "time": 80, "note": 69, "velocity": 118, "channel": 0}, {"type": "note_on", "time": 28, "note": 72, "velocity": 116, "channel": 0}, {"type": "note_off", "time": 76, "note": 72, "velocity": 116, "channel": 0}, {"type": "note_on", "time": 12, "note": 69, "velocity": 116, "channel": 0}, {"type": "note_off", "time": 86, "note": 69, "velocity": 116, "channel": 0}, {"type": "note_on", "time": 28, "note": 65, "velocity": 112, "channel": 0}, {"type": "note_off", "time": 64, "note": 65, "velocity": 112, "channel": 0}, {"type": "note_on", "time": 26, "note": 60, "velocity": 102, "channel": 0}, {"type": "note_off", "time": 89, "note": 60, "velocity": 102, "channel": 0}, {"type": "note_on", "time": 10, "note": 65, "velocity": 113, "channel": 0}, {"type": "note_off", "time": 76, "note": 65, "velocity": 113, "channel": 0}, {"type": "note_on", "time": 12, "note": 69, "velocity": 113, "channel": 0}, {"type": "note_off", "time": 81, "note": 69, "velocity": 113, "channel": 0}, {"type": "note_on", "time": 7, "note": 72, "velocity": 115, "channel": 0}, {"type": "note_off", "time": 68, "note": 72, "velocity": 115, "channel": 0}, {"type": "note_on", "time": 12, "note": 72, "velocity": 114, "channel": 0}, {"type": "note_off", "time": 46, "note": 72, "velocity": 114, "channel": 0}, {"type": "note_on", "time": 26, "note": 70, "velocity": 111, "channel": 0}, {"type": "note_off", "time": 47, "note": 70, "velocity": 111, "channel": 0}, {"type": "note_on", "time": 7, "note": 71, "velocity": 112, "channel": 0}, {"type": "note_off", "time": 49, "note": 71, "velocity": 112, "channel": 0}, {"type": "note_on", "time": 12, "note": 67, "velocity": 111, "channel": 0}, {"type": "note_off", "time": 81, "note": 67, "velocity": 111, "channel": 0}, {"type": "note_on", "time": 44, "note": 72, "velocity": 98, "channel": 0}, {"type": "note_off", "time": 52, "note": 72, "velocity": 98, "channel": 0}, {"type": "note_on", "time": 32, "note": 69, "velocity": 120, "channel": 0}, {"type": "note_off", "time": 41, "note": 69, "velocity": 120, "channel": 0}, {"type": "note_on", "time": 6, "note": 71, "velocity": 113, "channel": 0}, {"type": "note_off", "time": 50, "note": 71, "velocity": 113, "channel": 0}, {"type": "note_on", "time": 8, "note": 69, "velocity": 114, "channel": 0}, {"type": "note_off", "time": 63, "note": 69, "velocity": 114, "channel": 0}, {"type": "note_on", "time": 15, "note": 65, "velocity": 113, "channel": 0}, {"type": "note_off", "time": 71, "note": 65, "velocity": 113, "channel": 0}, {"type": "note_on", "time": 26, "note": 69, "velocity": 106, "channel": 0}, {"type": "note_off", "time": 60, "note": 69, "velocity": 106, "channel": 0}, {"type": "note_on", "time": 40, "note": 69, "velocity": 118, "channel": 0}, {"type": "note_off", "time": 69, "note": 69, "velocity": 118, "channel": 0}, {"type": "note_on", "time": 6, "note": 67, "velocity": 111, "channel": 0}, {"type": "note_off", "time": 79, "note": 67, "velocity": 111, "channel": 0}, {"type": "note_on", "time": 34, "note": 64, "velocity": 120, "channel": 0}, {"type": "note_off", "time": 85, "note": 64, "velocity": 120, "channel": 0}, {"type": "note_on", "time": 2, "note": 60, "velocity": 114, "channel": 0}, {"type": "note_off", "time": 63, "note": 60, "velocity": 114, "channel": 0}, {"type": "note_on", "time": 37, "note": 55, "velocity": 114, "channel": 0}, {"type": "note_off", "time": 100, "note": 55, "velocity": 114, "channel": 0}, {"type": "note_on", "time": 16, "note": 60, "velocity": 104, "channel": 0}, {"type": "note_off", "time": 46, "note": 60, "velocity": 104, "channel": 0}, {"type": "note_on", "time": 35, "note": 64, "velocity": 114, "channel": 0}, {"type": "note_off", "time": 49, "note": 64, "velocity": 114, "channel": 0}, {"type": "note_on", "time": 50, "note": 67, "velocity": 107, "channel": 0}, {"type": "note_off", "time": 55, "note": 67, "velocity": 107, "channel": 0}, {"type": "note_on", "time": 49, "note": 70, "velocity": 110, "channel": 0}, {"type": "note_off", "time": 57, "note": 70, "velocity": 110, "channel": 0}, {"type": "note_on", "time": 25, "note": 73, "velocity": 112, "channel": 0}, {"type": "note_off", "time": 90, "note": 73, "velocity": 112, "channel": 0}, {"type": "note_on", "time": 22, "note": 70, "velocity": 109, "channel": 0}, {"type": "note_off", "time": 59, "note": 70, "velocity": 109, "channel": 0}, {"type": "note_on", "time": 27, "note": 67, "velocity": 113, "channel": 0}, {"type": "note_off", "time": 71, "note": 67, "velocity": 113, "channel": 0}, {"type": "note_on", "time": 39, "note": 64, "velocity": 115, "channel": 0}, {"type": "note_off", "time": 31, "note": 64, "velocity": 115, "channel": 0}, {"type": "note_on", "time": 17, "note": 64, "velocity": 119, "channel": 0}, {"type": "note_off", "time": 68, "note": 64, "velocity": 119, "channel": 0}, {"type": "note_on", "time": 1, "note": 61, "velocity": 109, "channel": 0}, {"type": "note_off", "time": 55, "note": 61, "velocity": 109, "channel": 0}, {"type": "note_on", "time": 35, "note": 58, "velocity": 110, "channel": 0}, {"type": "note_off", "time": 76, "note": 58, "velocity": 110, "channel": 0}, {"type": "note_on", "time": 12, "note": 55, "velocity": 108, "channel": 0}, {"type": "note_off", "time": 66, "note": 55, "velocity": 108, "channel": 0}, {"type": "note_on", "time": 15, "note": 64, "velocity": 119, "channel": 0}, {"type": "note_off", "time": 40, "note": 64, "velocity": 119, "channel": 0}, {"type": "note_on", "time": 5, "note": 67, "velocity": 110, "channel": 0}, {"type": "note_off", "time": 25, "note": 67, "velocity": 110, "channel": 0}, {"type": "note_on", "time": 11, "note": 64, "velocity": 113, "channel": 0}, {"type": "note_off", "time": 36, "note": 64, "velocity": 113, "channel": 0}, {"type": "note_on", "time": 20, "note": 62, "velocity": 111, "channel": 0}, {"type": "note_off", "time": 126, "note": 62, "velocity": 111, "channel": 0}, {"type": "note_on", "time": 51, "note": 62, "velocity": 110, "channel": 0}, {"type": "note_off", "time": 68, "note": 62, "velocity": 110, "channel": 0}, {"type": "note_on", "time": 15, "note": 62, "velocity": 108, "channel": 0}, {"type": "note_off", "time": 59, "note": 62, "velocity": 108, "channel": 0}, {"type": "note_on", "time": 23, "note": 62, "velocity": 119, "channel": 0}, {"type": "note_off", "time": 89, "note": 62, "velocity": 119, "channel": 0}, {"type": "note_on", "time": 30, "note": 62, "velocity": 102, "channel": 0}, {"type": "note_off", "time": 56, "note": 62, "velocity": 102, "channel": 0}, {"type": "note_on", "time": 12, "note": 62, "velocity": 107, "channel": 0}, {"type": "note_off", "time": 69, "note": 62, "velocity": 107, "channel": 0}, {"type": "note_on", "time": 5, "note": 55, "velocity": 100, "channel": 0}, {"type": "note_off", "time": 92, "note": 55, "velocity": 100, "channel": 0}, {"type": "note_on", "time": 374, "note": 69, "velocity": 117, "channel": 0}, {"type": "note_off", "time": 75, "note": 69, "velocity": 117, "channel": 0}, {"type": "note_on", "time": 15, "note": 67, "velocity": 117, "channel": 0}, {"type": "note_off", "time": 66, "note": 67, "velocity": 117, "channel": 0}, {"type": "note_on", "time": 21, "note": 66, "velocity": 116, "channel": 0}, {"type": "note_off", "time": 81, "note": 66, "velocity": 116, "channel": 0}, {"type": "note_on", "time": 15, "note": 69, "velocity": 116, "channel": 0}, {"type": "note_off", "time": 85, "note": 69, "velocity": 116, "channel": 0}, {"type": "note_on", "time": 26, "note": 66, "velocity": 116, "channel": 0}, {"type": "note_off", "time": 65, "note": 66, "velocity": 116, "channel": 0}, {"type": "note_on", "time": 12, "note": 67, "velocity": 118, "channel": 0}, {"type": "note_off", "time": 74, "note": 67, "velocity": 118, "channel": 0}, {"type": "note_on", "time": 24, "note": 64, "velocity": 122, "channel": 0}, {"type": "note_off", "time": 70, "note": 64, "velocity": 122, "channel": 0}, {"type": "note_on", "time": 16, "note": 65, "velocity": 116, "channel": 0}, {"type": "note_off", "time": 89, "note": 65, "velocity": 116, "channel": 0}, {"type": "note_on", "time": 15, "note": 62, "velocity": 113, "channel": 0}, {"type": "note_off", "time": 72, "note": 62, "velocity": 113, "channel": 0}, {"type": "note_on", "time": 26, "note": 59, "velocity": 112, "channel": 0}, {"type": "note_off", "time": 78, "note": 59, "velocity": 112, "channel": 0}, {"type": "note_on", "time": 115, "note": 67, "velocity": 121, "channel": 0}, {"type": "note_off", "time": 79, "note": 67, "velocity": 121, "channel": 0}, {"type": "note_on", "time": 17, "note": 66, "velocity": 118, "channel": 0}, {"type": "note_off", "time": 78, "note": 66, "velocity": 118, "channel": 0}, {"type": "note_on", "time": 10, "note": 69, "velocity": 123, "channel": 0}, {"type": "note_off", "time": 75, "note": 69, "velocity": 123, "channel": 0}, {"type": "note_on", "time": 23, "note": 66, "velocity": 118, "channel": 0}, {"type": "note_off", "time": 82, "note": 66, "velocity": 118, "channel": 0}, {"type": "note_on", "time": 122, "note": 67, "velocity": 121, "channel": 0}, {"type": "note_off", "time": 72, "note": 67, "velocity": 121, "channel": 0}, {"type": "note_on", "time": 18, "note": 64, "velocity": 122, "channel": 0}, {"type": "note_off", "time": 83, "note": 64, "velocity": 122, "channel": 0}, {"type": "note_on", "time": 87, "note": 69, "velocity": 120, "channel": 0}, {"type": "note_off", "time": 87, "note": 69, "velocity": 120, "channel": 0}, {"type": "note_on", "time": 17, "note": 66, "velocity": 115, "channel": 0}, {"type": "note_off", "time": 79, "note": 66, "velocity": 115, "channel": 0}, {"type": "note_on", "time": 8, "note": 67, "velocity": 117, "channel": 0}, {"type": "note_off", "time": 84, "note": 67, "velocity": 117, "channel": 0}, {"type": "note_on", "time": 19, "note": 64, "velocity": 121, "channel": 0}, {"type": "note_off", "time": 86, "note": 64, "velocity": 121, "channel": 0}, {"type": "note_on", "time": 15, "note": 65, "velocity": 116, "channel": 0}, {"type": "note_off", "time": 89, "note": 65, "velocity": 116, "channel": 0}, {"type": "note_on", "time": 103, "note": 67, "velocity": 114, "channel": 0}, {"type": "note_off", "time": 77, "note": 67, "velocity": 114, "channel": 0}, {"type": "note_on", "time": 25, "note": 66, "velocity": 114, "channel": 0}, {"type": "note_off", "time": 93, "note": 66, "velocity": 114, "channel": 0}, {"type": "note_on", "time": 75, "note": 69, "velocity": 117, "channel": 0}, {"type": "note_off", "time": 91, "note": 69, "velocity": 117, "channel": 0}, {"type": "note_on", "time": 8, "note": 66, "velocity": 116, "channel": 0}, {"type": "note_off", "time": 78, "note": 66, "velocity": 116, "channel": 0}, {"type": "note_on", "time": 1, "note": 67, "velocity": 119, "channel": 0}, {"type": "note_off", "time": 95, "note": 67, "velocity": 119, "channel": 0}, {"type": "note_on", "time": 15, "note": 64, "velocity": 119, "channel": 0}, {"type": "note_off", "time": 103, "note": 64, "velocity": 119, "channel": 0}, {"type": "note_on", "time": 104, "note": 65, "velocity": 119, "channel": 0}, {"type": "note_off", "time": 65, "note": 65, "velocity": 119, "channel": 0}, {"type": "note_on", "time": 4, "note": 66, "velocity": 118, "channel": 0}, {"type": "note_off", "time": 69, "note": 66, "velocity": 118, "channel": 0}, {"type": "note_on", "time": 23, "note": 69, "velocity": 117, "channel": 0}, {"type": "note_off", "time": 98, "note": 69, "velocity": 117, "channel": 0}, {"type": "note_on", "time": 5, "note": 66, "velocity": 115, "channel": 0}, {"type": "note_off", "time": 80, "note": 66, "velocity": 115, "channel": 0}, {"type": "note_on", "time": 8, "note": 67, "velocity": 118, "channel": 0}, {"type": "note_off", "time": 86, "note": 67, "velocity": 118, "channel": 0}, {"type": "note_on", "time": 15, "note": 64, "velocity": 121, "channel": 0}, {"type": "note_off", "time": 90, "note": 64, "velocity": 121, "channel": 0}, {"type": "note_on", "time": 12, "note": 65, "velocity": 114, "channel": 0}, {"type": "note_off", "time": 77, "note": 65, "velocity": 114, "channel": 0}, {"type": "note_on", "time": 13, "note": 62, "velocity": 111, "channel": 0}, {"type": "note_off", "time": 77, "note": 62, "velocity": 111, "channel": 0}, {"type": "note_on", "time": 21, "note": 64, "velocity": 121, "channel": 0}, {"type": "note_off", "time": 79, "note": 64, "velocity": 121, "channel": 0}, {"type": "note_on", "time": 7, "note": 65, "velocity": 113, "channel": 0}, {"type": "note_off", "time": 84, "note": 65, "velocity": 113, "channel": 0}, {"type": "note_on", "time": 18, "note": 63, "velocity": 117, "channel": 0}, {"type": "note_off", "time": 77, "note": 63, "velocity": 117, "channel": 0}, {"type": "note_on", "time": 5, "note": 64, "velocity": 116, "channel": 0}, {"type": "note_off", "time": 94, "note": 64, "velocity": 116, "channel": 0}, {"type": "note_on", "time": 6, "note": 65, "velocity": 113, "channel": 0}, {"type": "note_off", "time": 82, "note": 65, "velocity": 113, "channel": 0}, {"type": "note_on", "time": 9, "note": 63, "velocity": 116, "channel": 0}, {"type": "note_off", "time": 103, "note": 63, "velocity": 116, "channel": 0}, {"type": "note_on", "time": 18, "note": 64, "velocity": 119, "channel": 0}, {"type": "note_off", "time": 83, "note": 64, "velocity": 119, "channel": 0}, {"type": "note_on", "time": 1, "note": 62, "velocity": 111, "channel": 0}, {"type": "note_off", "time": 78, "note": 62, "velocity": 111, "channel": 0}, {"type": "note_on", "time": 17, "note": 61, "velocity": 115, "channel": 0}, {"type": "note_off", "time": 84, "note": 61, "velocity": 115, "channel": 0}, {"type": "note_on", "time": 15, "note": 64, "velocity": 115, "channel": 0}, {"type": "note_off", "time": 87, "note": 64, "velocity": 115, "channel": 0}, {"type": "note_on", "time": 14, "note": 62, "velocity": 105, "channel": 0}, {"type": "note_off", "time": 148, "note": 62, "velocity": 105, "channel": 0}, {"type": "note_on", "time": 120, "note": 65, "velocity": 117, "channel": 0}, {"type": "note_off", "time": 163, "note": 65, "velocity": 117, "channel": 0}, {"type": "note_on", "time": 46, "note": 62, "velocity": 10, "channel": 0}, {"type": "note_off", "time": 75, "note": 62, "velocity": 10, "channel": 0}, {"type": "note_on", "time": 19, "note": 65, "velocity": 113, "channel": 0}, {"type": "note_off", "time": 182, "note": 65, "velocity": 113, "channel": 0}, {"type": "note_on", "time": 105, "note": 62, "velocity": 117, "channel": 0}, {"type": "note_off", "time": 82, "note": 62, "velocity": 117, "channel": 0}, {"type": "note_on", "time": 7, "note": 59, "velocity": 115, "channel": 0}, {"type": "note_off", "time": 83, "note": 59, "velocity": 115, "channel": 0}, {"type": "note_on", "time": 6, "note": 57, "velocity": 117, "channel": 0}, {"type": "note_off", "time": 109, "note": 57, "velocity": 117, "channel": 0}, {"type": "note_on", "time": 10, "note": 55, "velocity": 114, "channel": 0}, {"type": "note_off", "time": 151, "note": 55, "velocity": 114, "channel": 0}, {"type": "note_on", "time": 32, "note": 53, "velocity": 118, "channel": 0}, {"type": "note_off", "time": 86, "note": 53, "velocity": 118, "channel": 0}, {"type": "note_on", "time": 197, "note": 64, "velocity": 112, "channel": 0}, {"type": "note_off", "time": 74, "note": 64, "velocity": 112, "channel": 0}, {"type": "note_on", "time": 11, "note": 66, "velocity": 111, "channel": 0}, {"type": "note_off", "time": 83, "note": 66, "velocity": 111, "channel": 0}, {"type": "note_on", "time": 15, "note": 60, "velocity": 117, "channel": 0}, {"type": "note_off", "time": 75, "note": 60, "velocity": 117, "channel": 0}, {"type": "note_on", "time": 25, "note": 64, "velocity": 125, "channel": 0}, {"type": "note_off", "time": 79, "note": 64, "velocity": 125, "channel": 0}, {"type": "note_on", "time": 8, "note": 67, "velocity": 120, "channel": 0}, {"type": "note_off", "time": 73, "note": 67, "velocity": 120, "channel": 0}, {"type": "note_on", "time": 21, "note": 69, "velocity": 119, "channel": 0}, {"type": "note_off", "time": 81, "note": 69, "velocity": 119, "channel": 0}, {"type": "note_on", "time": 22, "note": 66, "velocity": 113, "channel": 0}, {"type": "note_off", "time": 75, "note": 66, "velocity": 113, "channel": 0}, {"type": "note_on", "time": 8, "note": 67, "velocity": 122, "channel": 0}, {"type": "note_off", "time": 79, "note": 67, "velocity": 122, "channel": 0}, {"type": "note_on", "time": 25, "note": 64, "velocity": 119, "channel": 0}, {"type": "note_off", "time": 86, "note": 64, "velocity": 119, "channel": 0}, {"type": "note_on", "time": 10, "note": 65, "velocity": 117, "channel": 0}, {"type": "note_off", "time": 84, "note": 65, "velocity": 117, "channel": 0}, {"type": "note_on", "time": 18, "note": 60, "velocity": 110, "channel": 0}, {"type": "note_off", "time": 64, "note": 60, "velocity": 110, "channel": 0}, {"type": "note_on", "time": 21, "note": 64, "velocity": 116, "channel": 0}, {"type": "note_off", "time": 192, "note": 64, "velocity": 116, "channel": 0}, {"type": "note_on", "time": 8, "note": 60, "velocity": 114, "channel": 0}, {"type": "note_off", "time": 260, "note": 60, "velocity": 114, "channel": 0}, {"type": "note_on", "time": 211, "note": 60, "velocity": 115, "channel": 0}, {"type": "note_off", "time": 110, "note": 60, "velocity": 115, "channel": 0}, {"type": "note_on", "time": 63, "note": 60, "velocity": 113, "channel": 0}, {"type": "note_off", "time": 89, "note": 60, "velocity": 113, "channel": 0}, {"type": "note_on", "time": 22, "note": 65, "velocity": 110, "channel": 0}, {"type": "note_off", "time": 265, "note": 65, "velocity": 110, "channel": 0}, {"type": "note_on", "time": 175, "note": 59, "velocity": 107, "channel": 0}, {"type": "note_off", "time": 123, "note": 59, "velocity": 107, "channel": 0}, {"type": "note_on", "time": 76, "note": 59, "velocity": 119, "channel": 0}, {"type": "note_off", "time": 114, "note": 59, "velocity": 119, "channel": 0}, {"type": "note_on", "time": 100, "note": 60, "velocity": 114, "channel": 0}, {"type": "note_off", "time": 137, "note": 60, "velocity": 114, "channel": 0}, {"type": "note_on", "time": 46, "note": 55, "velocity": 120, "channel": 0}, {"type": "note_off", "time": 99, "note": 55, "velocity": 120, "channel": 0}, {"type": "note_on", "time": 74, "note": 60, "velocity": 116, "channel": 0}, {"type": "note_off", "time": 124, "note": 60, "velocity": 116, "channel": 0}, {"type": "note_on", "time": 44, "note": 64, "velocity": 121, "channel": 0}, {"type": "note_off", "time": 59, "note": 64, "velocity": 121, "channel": 0}, {"type": "note_on", "time": 55, "note": 67, "velocity": 115, "channel": 0}, {"type": "note_off", "time": 122, "note": 67, "velocity": 115, "channel": 0}, {"type": "note_on", "time": 89, "note": 61, "velocity": 113, "channel": 0}, {"type": "note_off", "time": 229, "note": 61, "velocity": 113, "channel": 0}, {"type": "note_on", "time": 61, "note": 58, "velocity": 109, "channel": 0}, {"type": "note_off", "time": 88, "note": 58, "velocity": 109, "channel": 0}, {"type": "note_on", "time": 11, "note": 57, "velocity": 110, "channel": 0}, {"type": "note_off", "time": 86, "note": 57, "velocity": 110, "channel": 0}, {"type": "note_on", "time": 28, "note": 55, "velocity": 115, "channel": 0}, {"type": "note_off", "time": 81, "note": 55, "velocity": 115, "channel": 0}, {"type": "note_on", "time": 60, "note": 55, "velocity": 113, "channel": 0}, {"type": "note_off", "time": 92, "note": 55, "velocity": 113, "channel": 0}, {"type": "note_on", "time": 6, "note": 53, "velocity": 110, "channel": 0}, {"type": "note_off", "time": 107, "note": 53, "velocity": 110, "channel": 0}, {"type": "note_on", "time": 22, "note": 52, "velocity": 116, "channel": 0}, {"type": "note_off", "time": 136, "note": 52, "velocity": 116, "channel": 0}, {"type": "note_on", "time": 30, "note": 50, "velocity": 111, "channel": 0}, {"type": "note_off", "time": 107, "note": 50, "velocity": 111, "channel": 0}, {"type": "note_on", "time": 56, "note": 53, "velocity": 114, "channel": 0}, {"type": "note_off", "time": 93, "note": 53, "velocity": 114, "channel": 0}, {"type": "note_on", "time": 27, "note": 57, "velocity": 112, "channel": 0}, {"type": "note_off", "time": 124, "note": 57, "velocity": 112, "channel": 0}, {"type": "note_on", "time": 61, "note": 55, "velocity": 117, "channel": 0}, {"type": "note_off", "time": 103, "note": 55, "velocity": 117, "channel": 0}, {"type": "note_on", "time": 55, "note": 55, "velocity": 115, "channel": 0}, {"type": "note_off", "time": 108, "note": 55, "velocity": 115, "channel": 0}, {"type": "note_on", "time": 35, "note": 60, "velocity": 109, "channel": 0}, {"type": "note_off", "time": 117, "note": 60, "velocity": 109, "channel": 0}, {"type": "note_on", "time": 46, "note": 59, "velocity": 112, "channel": 0}, {"type": "note_off", "time": 117, "note": 59, "velocity": 112, "channel": 0}, {"type": "note_on", "time": 75, "note": 60, "velocity": 107, "channel": 0}, {"type": "note_off", "time": 335, "note": 60, "velocity": 107, "channel": 0}, {"type": "note_on", "time": 54, "note": 55, "velocity": 117, "channel": 0}, {"type": "note_off", "time": 89, "note": 55, "velocity": 117, "channel": 0}, {"type": "note_on", "time": 10, "note": 57, "velocity": 113, "channel": 0}, {"type": "note_off", "time": 115, "note": 57, "velocity": 113, "channel": 0}, {"type": "note_on", "time": 71, "note": 59, "velocity": 110, "channel": 0}, {"type": "note_off", "time": 103, "note": 59, "velocity": 110, "channel": 0}, {"type": "note_on", "time": 2, "note": 55, "velocity": 103, "channel": 0}, {"type": "note_off", "time": 78, "note": 55, "velocity": 103, "channel": 0}, {"type": "note_on", "time": 22, "note": 60, "velocity": 105, "channel": 0}, {"type": "note_off", "time": 630, "note": 60, "velocity": 105, "channel": 0}, {"type": "end_of_track", "time": 0}]]}