{"ticks_per_beat": 192, "tracks": [[{"type": "track_name", "name": "Melody", "time": 0}, {"type": "set_tempo", "tempo": 312500, "time": 0}, {"type": "key_signature", "key": "Bb", "time": 0}, {"type": "time_signature", "numerator": 4, "denominator": 4, "clocks_per_click": 24, "notated_32nd_notes_per_beat": 8, "time": 0}, {"type": "note_on", "time": 4441, "note": 65, "velocity": 116, "channel": 0}, {"type": "note_off", "time": 65, "note": 65, "velocity": 116, "channel": 0}, {"type": "note_on", "time": 6, "note": 64, "velocity": 108, "channel": 0}, {"type": "note_off", "time": 33, "note": 64, "velocity": 108, "channel": 0}, {"type": "note_on", "time": 12, "note": 63, "velocity": 109, "channel": 0}, {"type": "note_off", "time": 93, "note": 63, "velocity": 109, "channel": 0}, {"type": "note_on", "time": 3, "note": 62, "velocity": 113, "channel": 0}, {"type": "note_off", "time": 65, "note": 62, "velocity": 113, "channel": 0}, {"type": "note_on", "time": 10, "note": 60, "velocity": 109, "channel": 0}, {"type": "note_off", "time": 113, "note": 60, "velocity": 109, "channel": 0}, {"type": "note_on", "time": 3, "note": 55, "velocity": 97, "channel": 0}, {"type": "note_off", "time": 81, "note": 55, "velocity": 97, "channel": 0}, {"type": "note_on", "time": 31, "note": 51, "velocity": 98, "channel": 0}, {"type": "note_off", "time": 97, "note": 51, "velocity": 98, "channel": 0}, {"type": "note_on", "time": 38, "note": 58, "velocity": 105, "channel": 0}, {"type": "note_off", "time": 142, "note": 58, "velocity": 105, "channel": 0}, {"type": "note_on", "time": 7, "note": 55, "velocity": 101, "channel": 0}, {"type": "note_off", "time": 32, "note": 55, "velocity": 101, "channel": 0}, {"type": "note_on", "time": 2, "note": 57, "velocity": 106, "channel": 0}, {"type": "note_off", "time": 32, "note": 57, "velocity": 106, "channel": 0}, {"type": "note_on", "time": 37, "note": 60, "velocity": 104, "channel": 0}, {"type": "note_off", "time": 49, "note": 60, "velocity": 104, "channel": 0}, {"type": "note_on", "time": 18, "note": 63, "velocity": 106, "channel": 0}, {"type": "note_off", "time": 55, "note": 63, "velocity": 106, "channel": 0}, {"type": "note_on", "time": 18, "note": 67, "velocity": 120, "channel": 0}, {"type": "note_off", "time": 90, "note": 67, "velocity": 120, "channel": 0}, {"type": "note_on", "time": 10, "note": 66, "velocity": 117, "channel": 0}, {"type": "note_off", "time": 74, "note": 66, "velocity": 117, "channel": 0}, {"type": "note_on", "time": 6, "note": 65, "velocity": 110, "channel": 0}, {"type": "note_off", "time": 95, "note": 65, "velocity": 110, "channel": 0}, {"type": "note_on", "time": 18, "note": 63, "velocity": 108, "channel": 0}, {"type": "note_off", "time": 83, "note": 63, "velocity": 108, "channel": 0}, {"type": "note_on", "time": 20, "note": 62, "velocity": 99, "channel": 0}, {"type": "note_off", "time": 107, "note": 62, "velocity": 99, "channel": 0}, {"type": "note_on", "time": 12, "note": 65, "velocity": 91, "channel": 0}, {"type": "note_off", "time": 65, "note": 65, "velocity": 91, "channel": 0}, {"type": "note_on", "time": 24, "note": 67, "velocity": 109, "channel": 0}, {"type": "note_off", "time": 86, "note": 67, "velocity": 109, "channel": 0}, {"type": "note_on", "time": 8, "note": 69, "velocity": 120, "channel": 0}, {"type": "note_off", "time": 61, "note": 69, "velocity": 120, "channel": 0}, {"type": "note_on", "time": 7, "note": 72, "velocity": 123, "channel": 0}, {"type": "note_off", "time": 111, "note": 72, "velocity": 123, "channel": 0}, {"type": "note_on", "time": 2, "note": 71, "velocity": 122, "channel": 0}, {"type": "note_off", "time": 90, "note": 71, "velocity": 122, "channel": 0}, {"type": "note_on", "time": 5, "note": 70, "velocity": 114, "channel": 0}, {"type": "note_off", "time": 79, "note": 70, "velocity": 114, "channel": 0}, {"type": "note_on", "time": 82, "note": 69, "velocity": 115, "channel": 0}, {"type": "note_off", "time": 58, "note": 69, "velocity": 115, "channel": 0}, {"type": "note_on", "time": 5, "note": 70, "velocity": 116, "channel": 0}, {"type": "note_off", "time": 41, "note": 70, "velocity": 116, "channel": 0}, {"type": "note_on", "time": 6, "note": 69, "velocity": 112, "channel": 0}, {"type": "note_off", "time": 42, "note": 69, "velocity": 112, "channel": 0}, {"type": "note_on", "time": 8, "note": 67, "velocity": 117, "channel": 0}, {"type": "note_off", "time": 66, "note": 67, "velocity": 117, "channel": 0}, {"type": "note_on", "time": 15, "note": 65, "velocity": 111, "channel": 0}, {"type": "note_off", "time": 75, "note": 65, "velocity": 111, "channel": 0}, {"type": "note_on", "time": 28, "note": 63, "velocity": 109, "channel": 0}, {"type": "note_off", "time": 75, "note": 63, "velocity": 109, "channel": 0}, {"type": "note_on", "time": 6, "note": 62, "velocity": 105, "channel": 0}, {"type": "note_off", "time": 36, "note": 62, "velocity": 105, "channel": 0}, {"type": "note_on", "time": 7, "note": 63, "velocity": 109, "channel": 0}, {"type": "note_off", "time": 28, "note": 63, "velocity": 109, "channel": 0}, {"type": "note_on", "time": 11, "note": 62, "velocity": 110, "channel": 0}, {"type": "note_off", "time": 30, "note": 62, "velocity": 110, "channel": 0}, {"type": "note_on", "time": 13, "note": 60, "velocity": 101, "channel": 0}, {"type": "note_off", "time": 81, "note": 60, "velocity": 101, "channel": 0}, {"type": "note_on", "time": 8, "note": 59, "velocity": 99, "channel": 0}, {"type": "note_off", "time": 144, "note": 59, "velocity": 99, "channel": 0}, {"type": "note_on", "time": 30, "note": 60, "velocity": 108, "channel": 0}, {"type": "note_off", "time": 112, "note": 60, "velocity": 108, "channel": 0}, {"type": "note_on", "time": 0, "note": 67, "velocity": 125, "channel": 0}, {"type": "note_off", "time": 62, "note": 67, "velocity": 125, "channel": 0}, {"type": "note_on", "time": 20, "note": 63, "velocity": 102, "channel": 0}, {"type": "note_off", "time": 30, "note": 63, "velocity": 102, "channel": 0}, {"type": "note_on", "time": 8, "note": 64, "velocity": 106, "channel": 0}, {"type": "note_off", "time": 32, "note": 64, "velocity": 106, "channel": 0}, {"type": "note_on", "time": 10, "note": 63, "velocity": 106, "channel": 0}, {"type": "note_off", "time": 26, "note": 63, "velocity": 106, "channel": 0}, {"type": "note_on", "time": 11, "note": 60, "velocity": 106, "channel": 0}, {"type": "note_off", "time": 58, "note": 60, "velocity": 106, "channel": 0}, {"type": "note_on", "time": 16, "note": 59, "velocity": 105, "channel": 0}, {"type": "note_off", "time": 96, "note": 59, "velocity": 105, "channel": 0}, {"type": "note_on", "time": 13, "note": 55, "velocity": 112, "channel": 0}, {"type": "note_off", "time": 65, "note": 55, "velocity": 112, "channel": 0}, {"type": "note_on", "time": 11, "note": 51, "velocity": 100, "channel": 0}, {"type": "note_off", "time": 117, "note": 51, "velocity": 100, "channel": 0}, {"type": "note_on", "time": 76, "note": 58, "velocity": 103, "channel": 0}, {"type": "note_off", "time": 142, "note": 58, "velocity": 103, "channel": 0}, {"type": "note_on", "time": 48, "note": 57, "velocity": 101, "channel": 0}, {"type": "note_off", "time": 84, "note": 57, "velocity": 101, "channel": 0}, {"type": "note_on", "time": 17, "note": 63, "velocity": 111, "channel": 0}, {"type": "note_off", "time": 43, "note": 63, "velocity": 111, "channel": 0}, {"type": "note_on", "time": 8, "note": 65, "velocity": 109, "channel": 0}, {"type": "note_off", "time": 348, "note": 65, "velocity": 109, "channel": 0}, {"type": "note_on", "time": 6, "note": 62, "velocity": 107, "channel": 0}, {"type": "note_off", "time": 63, "note": 62, "velocity": 107, "channel": 0}, {"type": "note_on", "time": 9, "note": 60, "velocity": 103, "channel": 0}, {"type": "note_off", "time": 69, "note": 60, "velocity": 103, "channel": 0}, {"type": "note_on", "time": 25, "note": 60, "velocity": 108, "channel": 0}, {"type": "note_off", "time": 59, "note": 60, "velocity": 108, "channel": 0}, {"type": "note_on", "time": 20, "note": 58, "velocity": 95, "channel": 0}, {"type": "note_off", "time": 71, "note": 58, "velocity": 95, "channel": 0}, {"type": "note_on", "time": 41, "note": 60, "velocity": 103, "channel": 0}, {"type": "note_off", "time": 94, "note": 60, "velocity": 103, "channel": 0}, {"type": "note_on", "time": 13, "note": 62, "velocity": 100, "channel": 0}, {"type": "note_off", "time": 99, "note": 62, "velocity": 100, "channel": 0}, {"type": "note_on", "time": 12, "note": 65, "velocity": 107, "channel": 0}, {"type": "note_off", "time": 122, "note": 65, "velocity": 107, "channel": 0}, {"type": "note_on", "time": 908, "note": 73, "velocity": 121, "channel": 0}, {"type": "note_off", "time": 86, "note": 73, "velocity": 121, "channel": 0}, {"type": "note_on", "time": 11, "note": 74, "velocity": 110, "channel": 0}, {"type": "note_off", "time": 233, "note": 74, "velocity": 110, "channel": 0}, {"type": "note_on", "time": 14, "note": 67, "velocity": 104, "channel": 0}, {"type": "note_off", "time": 334, "note": 67, "velocity": 104, "channel": 0}, {"type": "note_on", "time": 31, "note": 70, "velocity": 127, "channel": 0}, {"type": "note_off", "time": 163, "note": 70, "velocity": 127, "channel": 0}, {"type": "note_on", "time": 13, "note": 72, "velocity": 121, "channel": 0}, {"type": "note_off", "time": 135, "note": 72, "velocity": 121, "channel": 0}, {"type": "note_on", "time": 15, "note": 69, "velocity": 122, "channel": 0}, {"type": "note_off", "time": 55, "note": 69, "velocity": 122, "channel": 0}, {"type": "note_on", "time": 8, "note": 71, "velocity": 123, "channel": 0}, {"type": "note_off", "time": 36, "note": 71, "velocity": 123, "channel": 0}, {"type": "note_on", "time": 8, "note": 72, "velocity": 125, "channel": 0}, {"type": "note_off", "time": 30, "note": 72, "velocity": 125, "channel": 0}, {"type": "note_on", "time": 15, "note": 74, "velocity": 115, "channel": 0}, {"type": "note_off", "time": 132, "note": 74, "velocity": 115, "channel": 0}, {"type": "note_on", "time": 17, "note": 69, "velocity": 103, "channel": 0}, {"type": "note_off", "time": 130, "note": 69, "velocity": 103, "channel": 0}, {"type": "note_on", "time": 71, "note": 71, "velocity": 121, "channel": 0}, {"type": "note_off", "time": 68, "note": 71, "velocity": 121, "channel": 0}, {"type": "note_on", "time": 10, "note": 72, "velocity": 117, "channel": 0}, {"type": "note_off", "time": 196, "note": 72, "velocity": 117, "channel": 0}, {"type": "note_on", "time": 15, "note": 69, "velocity": 117, "channel": 0}, {"type": "note_off", "time": 35, "note": 69, "velocity": 117, "channel": 0}, {"type": "note_on", "time": 10, "note": 65, "velocity": 111, "channel": 0}, {"type": "note_off", "time": 60, "note": 65, "velocity": 111, "channel": 0}, {"type": "note_on", "time": 15, "note": 62, "velocity": 116, "channel": 0}, {"type": "note_off", "time": 73, "note": 62, "velocity": 116, "channel": 0}, {"type": "note_on", "time": 6, "note": 63, "velocity": 102, "channel": 0}, {"type": "note_off", "time": 94, "note": 63, "velocity": 102, "channel": 0}, {"type": "note_on", "time": 5, "note": 65, "velocity": 109, "channel": 0}, {"type": "note_off", "time": 86, "note": 65, "velocity": 109, "channel": 0}, {"type": "note_on", "time": 13, "note": 67, "velocity": 117, "channel": 0}, {"type": "note_off", "time": 71, "note": 67, "velocity": 117, "channel": 0}, {"type": "note_on", "time": 7, "note": 68, "velocity": 120, "channel": 0}, {"type": "note_off", "time": 66, "note": 68, "velocity": 120, "channel": 0}, {"type": "note_on", "time": 11, "note": 67, "velocity": 118, "channel": 0}, {"type": "note_off", "time": 63, "note": 67, "velocity": 118, "channel": 0}, {"type": "note_on", "time": 8, "note": 66, "velocity": 111, "channel": 0}, {"type": "note_off", "time": 36, "note": 66, "velocity": 111, "channel": 0}, {"type": "note_on", "time": 10, "note": 65, "velocity": 109, "channel": 0}, {"type": "note_off", "time": 77, "note": 65, "velocity": 109, "channel": 0}, {"type": "note_on", "time": 12, "note": 63, "velocity": 113, "channel": 0}, {"type": "note_off", "time": 50, "note": 63, "velocity": 113, "channel": 0}, {"type": "note_on", "time": 7, "note": 62, "velocity": 110, "channel": 0}, {"type": "note_off", "time": 82, "note": 62, "velocity": 110, "channel": 0}, {"type": "note_on", "time": 32, "note": 60, "velocity": 105, "channel": 0}, {"type": "note_off", "time": 78, "note": 60, "velocity": 105, "channel": 0}, {"type": "note_on", "time": 8, "note": 59, "velocity": 106, "channel": 0}, {"type": "note_off", "time": 86, "note": 59, "velocity": 106, "channel": 0}, {"type": "note_on", "time": 10, "note": 55, "velocity": 88, "channel": 0}, {"type": "note_off", "time": 51, "note": 55, "velocity": 88, "channel": 0}, {"type": "note_on", "time": 23, "note": 60, "velocity": 107, "channel": 0}, {"type": "note_off", "time": 92, "note": 60, "velocity": 107, "channel": 0}, {"type": "note_on", "time": 19, "note": 63, "velocity": 112, "channel": 0}, {"type": "note_off", "time": 84, "note": 63, "velocity": 112, "channel": 0}, {"type": "note_on", "time": 318, "note": 55, "velocity": 92, "channel": 0}, {"type": "note_off", "time": 41, "note": 55, "velocity": 92, "channel": 0}, {"type": "note_on", "time": 31, "note": 60, "velocity": 107, "channel": 0}, {"type": "note_off", "time": 92, "note": 60, "velocity": 107, "channel": 0}, {"type": "note_on", "time": 11, "note": 63, "velocity": 115, "channel": 0}, {"type": "note_off", "time": 55, "note": 63, "velocity": 115, "channel": 0}, {"type": "note_on", "time": 10, "note": 62, "velocity": 109, "channel": 0}, {"type": "note_off", "time": 27, "note": 62, "velocity": 109, "channel": 0}, {"type": "note_on", "time": 8, "note": 63, "velocity": 103, "channel": 0}, {"type": "note_off", "time": 23, "note": 63, "velocity": 103, "channel": 0}, {"type": "note_on", "time": 8, "note": 62, "velocity": 108, "channel": 0}, {"type": "note_off", "time": 28, "note": 62, "velocity": 108, "channel": 0}, {"type": "note_on", "time": 38, "note": 60, "velocity": 102, "channel": 0}, {"type": "note_off", "time": 62, "note": 60, "velocity": 102, "channel": 0}, {"type": "note_on", "time": 10, "note": 58, "velocity": 104, "channel": 0}, {"type": "note_off", "time": 94, "note": 58, "velocity": 104, "channel": 0}, {"type": "note_on", "time": 22, "note": 55, "velocity": 93, "channel": 0}, {"type": "note_off", "time": 45, "note": 55, "velocity": 93, "channel": 0}, {"type": "note_on", "time": 18, "note": 57, "velocity": 98, "channel": 0}, {"type": "note_off", "time": 94, "note": 57, "velocity": 98, "channel": 0}, {"type": "note_on", "time": 0, "note": 68, "velocity": 122, "channel": 0}, {"type": "note_off", "time": 71, "note": 68, "velocity": 122, "channel": 0}, {"type": "note_on", "time": 0, "note": 66, "velocity": 107, "channel": 0}, {"type": "note_off", "time": 27, "note": 66, "velocity": 107, "channel": 0}, {"type": "note_on", "time": 3, "note": 67, "velocity": 114, "channel": 0}, {"type": "note_off", "time": 58, "note": 67, "velocity": 114, "channel": 0}, {"type": "note_on", "time": 10, "note": 66, "velocity": 111, "channel": 0}, {"type": "note_off", "time": 38, "note": 66, "velocity": 111, "channel": 0}, {"type": "note_on", "time": 12, "note": 64, "velocity": 104, "channel": 0}, {"type": "note_off", "time": 50, "note": 64, "velocity": 104, "channel": 0}, {"type": "note_on", "time": 25, "note": 65, "velocity": 115, "channel": 0}, {"type": "note_off", "time": 90, "note": 65, "velocity": 115, "channel": 0}, {"type": "note_on", "time": 16, "note": 62, "velocity": 112, "channel": 0}, {"type": "note_off", "time": 73, "note": 62, "velocity": 112, "channel": 0}, {"type": "note_on", "time": 22, "note": 58, "velocity": 96, "channel": 0}, {"type": "note_off", "time": 72, "note": 58, "velocity": 96, "channel": 0}, {"type": "note_on", "time": 18, "note": 55, "velocity": 98, "channel": 0}, {"type": "note_off", "time": 56, "note": 55, "velocity": 98, "channel": 0}, {"type": "note_on", "time": 28, "note": 63, "velocity": 109, "channel": 0}, {"type": "note_off", "time": 90, "note": 63, "velocity": 109, "channel": 0}, {"type": "note_on", "time": 12, "note": 60, "velocity": 105, "channel": 0}, {"type": "note_off", "time": 81, "note": 60, "velocity": 105, "channel": 0}, {"type": "note_on", "time": 22, "note": 57, "velocity": 96, "channel": 0}, {"type": "note_off", "time": 61, "note": 57, "velocity": 96, "channel": 0}, {"type": "note_on", "time": 17, "note": 53, "velocity": 97, "channel": 0}, {"type": "note_off", "time": 60, "note": 53, "velocity": 97, "channel": 0}, {"type": "note_on", "time": 25, "note": 58, "velocity": 101, "channel": 0}, {"type": "note_off", "time": 181, "note": 58, "velocity": 101, "channel": 0}, {"type": "note_on", "time": 492, "note": 58, "velocity": 92, "channel": 0}, {"type": "note_off", "time": 43, "note": 58, "velocity": 92, "channel": 0}, {"type": "note_on", "time": 15, "note": 63, "velocity": 105, "channel": 0}, {"type": "note_off", "time": 104, "note": 63, "velocity": 105, "channel": 0}, {"type": "note_on", "time": 2, "note": 65, "velocity": 111, "channel": 0}, {"type": "note_off", "time": 100, "note": 65, "velocity": 111, "channel": 0}, {"type": "note_on", "time": 7, "note": 67, "velocity": 118, "channel": 0}, {"type": "note_off", "time": 76, "note": 67, "velocity": 118, "channel": 0}, {"type": "note_on", "time": 3, "note": 68, "velocity": 124, "channel": 0}, {"type": "note_off", "time": 78, "note": 68, "velocity": 124, "channel": 0}, {"type": "note_on", "time": 11, "note": 70, "velocity": 120, "channel": 0}, {"type": "note_off", "time": 114, "note": 70, "velocity": 120, "channel": 0}, {"type": "note_on", "time": 3, "note": 72, "velocity": 121, "channel": 0}, {"type": "note_off", "time": 76, "note": 72, "velocity": 121, "channel": 0}, {"type": "note_on", "time": 21, "note": 67, "velocity": 111, "channel": 0}, {"type": "note_off", "time": 84, "note": 67, "velocity": 111, "channel": 0}, {"type": "note_on", "time": 11, "note": 65, "velocity": 110, "channel": 0}, {"type": "note_off", "time": 75, "note": 65, "velocity": 110, "channel": 0}, {"type": "note_on", "time": 16, "note": 66, "velocity": 109, "channel": 0}, {"type": "note_off", "time": 63, "note": 66, "velocity": 109, "channel": 0}, {"type": "note_on", "time": 10, "note": 67, "velocity": 103, "channel": 0}, {"type": "note_off", "time": 21, "note": 67, "velocity": 103, "channel": 0}, {"type": "note_on", "time": 10, "note": 66, "velocity": 112, "channel": 0}, {"type": "note_off", "time": 48, "note": 66, "velocity": 112, "channel": 0}, {"type": "note_on", "time": 20, "note": 65, "velocity": 106, "channel": 0}, {"type": "note_off", "time": 101, "note": 65, "velocity": 106, "channel": 0}, {"type": "note_on", "time": 7, "note": 63, "velocity": 106, "channel": 0}, {"type": "note_off", "time": 58, "note": 63, "velocity": 106, "channel": 0}, {"type": "note_on", "time": 18, "note": 69, "velocity": 114, "channel": 0}, {"type": "note_off", "time": 48, "note": 69, "velocity": 114, "channel": 0}, {"type": "note_on", "time": 6, "note": 70, "velocity": 114, "channel": 0}, {"type": "note_off", "time": 309, "note": 70, "velocity": 114, "channel": 0}, {"type": "note_on", "time": 5, "note": 66, "velocity": 108, "channel": 0}, {"type": "note_off", "time": 57, "note": 66, "velocity": 108, "channel": 0}, {"type": "note_on", "time": 11, "note": 65, "velocity": 109, "channel": 0}, {"type": "note_off", "time": 117, "note": 65, "velocity": 109, "channel": 0}, {"type": "note_on", "time": 65, "note": 58, "velocity": 95, "channel": 0}, {"type": "note_off", "time": 135, "note": 58, "velocity": 95, "channel": 0}, {"type": "note_on", "time": 35, "note": 60, "velocity": 98, "channel": 0}, {"type": "note_off", "time": 147, "note": 60, "velocity": 98, "channel": 0}, {"type": "note_on", "time": 309, "note": 69, "velocity": 122, "channel": 0}, {"type": "note_off", "time": 45, "note": 69, "velocity": 122, "channel": 0}, {"type": "note_on", "time": 7, "note": 67, "velocity": 117, "channel": 0}, {"type": "note_off", "time": 38, "note": 67, "velocity": 117, "channel": 0}, {"type": "note_on", "time": 10, "note": 66, "velocity": 108, "channel": 0}, {"type": "note_off", "time": 62, "note": 66, "velocity": 108, "channel": 0}, {"type": "note_on", "time": 6, "note": 65, "velocity": 89, "channel": 0}, {"type": "note_off", "time": 30, "note": 65, "velocity": 89, "channel": 0}, {"type": "note_on", "time": 11, "note": 57, "velocity": 95, "channel": 0}, {"type": "note_off", "time": 57, "note": 57, "velocity": 95, "channel": 0}, {"type": "note_on", "time": 30, "note": 60, "velocity": 104, "channel": 0}, {"type": "note_off", "time": 73, "note": 60, "velocity": 104, "channel": 0}, {"type": "note_on", "time": 28, "note": 63, "velocity": 108, "channel": 0}, {"type": "note_off", "time": 68, "note": 63, "velocity": 108, "channel": 0}, {"type": "note_on", "time": 23, "note": 62, "velocity": 104, "channel": 0}, {"type": "note_off", "time": 76, "note": 62, "velocity": 104, "channel": 0}, {"type": "note_on", "time": 17, "note": 60, "velocity": 106, "channel": 0}, {"type": "note_off", "time": 58, "note": 60, "velocity": 106, "channel": 0}, {"type": "note_on", "time": 13, "note": 58, "velocity": 98, "channel": 0}, {"type": "note_off", "time": 94, "note": 58, "velocity": 98, "channel": 0}, {"type": "note_on", "time": 16, "note": 60, "velocity": 107, "channel": 0}, {"type": "note_off", "time": 65, "note": 60, "velocity": 107, "channel": 0}, {"type": "note_on", "time": 12, "note": 62, "velocity": 103, "channel": 0}, {"type": "note_off", "time": 56, "note": 62, "velocity": 103, "channel": 0}, {"type": "note_on", "time": 22, "note": 64, "velocity": 110, "channel": 0}, {"type": "note_off", "time": 81, "note": 64, "velocity": 110, "channel": 0}, {"type": "note_on", "time": 21, "note": 66, "velocity": 110, "channel": 0}, {"type": "note_off", "time": 80, "note": 66, "velocity": 110, "channel": 0}, {"type": "note_on", "time": 18, "note": 67, "velocity": 121, "channel": 0}, {"type": "note_off", "time": 85, "note": 67, "velocity": 121, "channel": 0}, {"type": "note_on", "time": 16, "note": 69, "velocity": 117, "channel": 0}, {"type": "note_off", "time": 86, "note": 69, "velocity": 117, "channel": 0}, {"type": "note_on", "time": 13, "note": 70, "velocity": 113, "channel": 0}, {"type": "note_off", "time": 71, "note": 70, "velocity": 113, "channel": 0}, {"type": "note_on", "time": 10, "note": 67, "velocity": 116, "channel": 0}, {"type": "note_off", "time": 100, "note": 67, "velocity": 116, "channel": 0}, {"type": "note_on", "time": 22, "note": 62, "velocity": 97, "channel": 0}, {"type": "note_off", "time": 45, "note": 62, "velocity": 97, "channel": 0}, {"type": "note_on", "time": 8, "note": 65, "velocity": 109, "channel": 0}, {"type": "note_off", "time": 92, "note": 65, "velocity": 109, "channel": 0}, {"type": "note_on", "time": 11, "note": 67, "velocity": 108, "channel": 0}, {"type": "note_off", "time": 23, "note": 67, "velocity": 108, "channel": 0}, {"type": "note_on", "time": 13, "note": 65, "velocity": 114, "channel": 0}, {"type": "note_off", "time": 50, "note": 65, "velocity": 114, "channel": 0}, {"type": "note_on", "time": 13, "note": 64, "velocity": 104, "channel": 0}, {"type": "note_off", "time": 86, "note": 64, "velocity": 104, "channel": 0}, {"type": "note_on", "time": 28, "note": 59, "velocity": 96, "channel": 0}, {"type": "note_off", "time": 52, "note": 59, "velocity": 96, "channel": 0}, {"type": "note_on", "time": 13, "note": 60, "velocity": 98, "channel": 0}, {"type": "note_off", "time": 76, "note": 60, "velocity": 98, "channel": 0}, {"type": "note_on", "time": 20, "note": 62, "velocity": 107, "channel": 0}, {"type": "note_off", "time": 73, "note": 62, "velocity": 107, "channel": 0}, {"type": "note_on", "time": 8, "note": 63, "velocity": 106, "channel": 0}, {"type": "note_off", "time": 137, "note": 63, "velocity": 106, "channel": 0}, {"type": "note_on", "time": 66, "note": 62, "velocity": 106, "channel": 0}, {"type": "note_off", "time": 73, "note": 62, "velocity": 106, "channel": 0}, {"type": "note_on", "time": 26, "note": 60, "velocity": 105, "channel": 0}, {"type": "note_off", "time": 85, "note": 60, "velocity": 105, "channel": 0}, {"type": "note_on", "time": 15, "note": 59, "velocity": 104, "channel": 0}, {"type": "note_off", "time": 77, "note": 59, "velocity": 104, "channel": 0}, {"type": "note_on", "time": 10, "note": 55, "velocity": 99, "channel": 0}, {"type": "note_off", "time": 80, "note": 55, "velocity": 99, "channel": 0}, {"type": "note_on", "time": 22, "note": 51, "velocity": 90, "channel": 0}, {"type": "note_off", "time": 109, "note": 51, "velocity": 90, "channel": 0}, {"type": "note_on", "time": 70, "note": 58, "velocity": 101, "channel": 0}, {"type": "note_off", "time": 105, "note": 58, "velocity": 101, "channel": 0}, {"type": "note_on", "time": 22, "note": 55, "velocity": 99, "channel": 0}, {"type": "note_off", "time": 67, "note": 55, "velocity": 99, "channel": 0}, {"type": "note_on", "time": 10, "note": 57, "velocity": 99, "channel": 0}, {"type": "note_off", "time": 66, "note": 57, "velocity": 99, "channel": 0}, {"type": "note_on", "time": 2, "note": 63, "velocity": 108, "channel": 0}, {"type": "note_off", "time": 82, "note": 63, "velocity": 108, "channel": 0}, {"type": "note_on", "time": 10, "note": 65, "velocity": 110, "channel": 0}, {"type": "note_off", "time": 114, "note": 65, "velocity": 110, "channel": 0}, {"type": "note_on", "time": 8, "note": 67, "velocity": 105, "channel": 0}, {"type": "note_off", "time": 25, "note": 67, "velocity": 105, "channel": 0}, {"type": "note_on", "time": 11, "note": 65, "velocity": 101, "channel": 0}, {"type": "note_off", "time": 22, "note": 65, "velocity": 101, "channel": 0}, {"type": "note_on", "time": 32, "note": 62, "velocity": 102, "channel": 0}, {"type": "note_off", "time": 68, "note": 62, "velocity": 102, "channel": 0}, {"type": "note_on", "time": 440, "note": 55, "velocity": 94, "channel": 0}, {"type": "note_off", "time": 48, "note": 55, "velocity": 94, "channel": 0}, {"type": "note_on", "time": 31, "note": 60, "velocity": 106, "channel": 0}, {"type": "note_off", "time": 78, "note": 60, "velocity": 106, "channel": 0}, {"type": "note_on", "time": 18, "note": 63, "velocity": 114, "channel": 0}, {"type": "note_off", "time": 61, "note": 63, "velocity": 114, "channel": 0}, {"type": "note_on", "time": 10, "note": 62, "velocity": 103, "channel": 0}, {"type": "note_off", "time": 18, "note": 62, "velocity": 103, "channel": 0}, {"type": "note_on", "time": 11, "note": 63, "velocity": 105, "channel": 0}, {"type": "note_off", "time": 22, "note": 63, "velocity": 105, "channel": 0}, {"type": "note_on", "time": 7, "note": 62, "velocity": 102, "channel": 0}, {"type": "note_off", "time": 35, "note": 62, "velocity": 102, "channel": 0}, {"type": "note_on", "time": 17, "note": 60, "velocity": 99, "channel": 0}, {"type": "note_off", "time": 52, "note": 60, "velocity": 99, "channel": 0}, {"type": "note_on", "time": 35, "note": 65, "velocity": 113, "channel": 0}, {"type": "note_off", "time": 106, "note": 65, "velocity": 113, "channel": 0}, {"type": "note_on", "time": 6, "note": 62, "velocity": 113, "channel": 0}, {"type": "note_off", "time": 51, "note": 62, "velocity": 113, "channel": 0}, {"type": "note_on", "time": 15, "note": 63, "velocity": 107, "channel": 0}, {"type": "note_off", "time": 22, "note": 63, "velocity": 107, "channel": 0}, {"type": "note_on", "time": 8, "note": 65, "velocity": 113, "channel": 0}, {"type": "note_off", "time": 32, "note": 65, "velocity": 113, "channel": 0}, {"type": "note_on", "time": 8, "note": 67, "velocity": 115, "channel": 0}, {"type": "note_off", "time": 23, "note": 67, "velocity": 115, "channel": 0}, {"type": "note_on", "time": 2, "note": 68, "velocity": 120, "channel": 0}, {"type": "note_off", "time": 26, "note": 68, "velocity": 120, "channel": 0}, {"type": "note_on", "time": 6, "note": 71, "velocity": 122, "channel": 0}, {"type": "note_off", "time": 41, "note": 71, "velocity": 122, "channel": 0}, {"type": "note_on", "time": 7, "note": 73, "velocity": 119, "channel": 0}, {"type": "note_off", "time": 47, "note": 73, "velocity": 119, "channel": 0}, {"type": "note_on", "time": 10, "note": 74, "velocity": 113, "channel": 0}, {"type": "note_off", "time": 102, "note": 74, "velocity": 113, "channel": 0}, {"type": "note_on", "time": 351, "note": 60, "velocity": 109, "channel": 0}, {"type": "note_off", "time": 82, "note": 60, "velocity": 109, "channel": 0}, {"type": "note_on", "time": 2, "note": 62, "velocity": 111, "channel": 0}, {"type": "note_off", "time": 50, "note": 62, "velocity": 111, "channel": 0}, {"type": "note_on", "time": 10, "note": 65, "velocity": 112, "channel": 0}, {"type": "note_off", "time": 31, "note": 65, "velocity": 112, "channel": 0}, {"type": "note_on", "time": 10, "note": 67, "velocity": 112, "channel": 0}, {"type": "note_off", "time": 33, "note": 67, "velocity": 112, "channel": 0}, {"type": "note_on", "time": 8, "note": 69, "velocity": 121, "channel": 0}, {"type": "note_off", "time": 42, "note": 69, "velocity": 121, "channel": 0}, {"type": "note_on", "time": 16, "note": 72, "velocity": 118, "channel": 0}, {"type": "note_off", "time": 94, "note": 72, "velocity": 118, "channel": 0}, {"type": "note_on", "time": 8, "note": 70, "velocity": 119, "channel": 0}, {"type": "note_off", "time": 66, "note": 70, "velocity": 119, "channel": 0}, {"type": "note_on", "time": 15, "note": 69, "velocity": 115, "channel": 0}, {"type": "note_off", "time": 80, "note": 69, "velocity": 115, "channel": 0}, {"type": "note_on", "time": 6, "note": 67, "velocity": 118, "channel": 0}, {"type": "note_off", "time": 78, "note": 67, "velocity": 118, "channel": 0}, {"type": "note_on", "time": 20, "note": 65, "velocity": 109, "channel": 0}, {"type": "note_off", "time": 89, "note": 65, "velocity": 109, "channel": 0}, {"type": "note_on", "time": 13, "note": 67, "velocity": 115, "channel": 0}, {"type": "note_off", "time": 53, "note": 67, "velocity": 115, "channel": 0}, {"type": "note_on", "time": 10, "note": 68, "velocity": 115, "channel": 0}, {"type": "note_off", "time": 94, "note": 68, "velocity": 115, "channel": 0}, {"type": "note_on", "time": 7, "note": 67, "velocity": 111, "channel": 0}, {"type": "note_off", "time": 31, "note": 67, "velocity": 111, "channel": 0}, {"type": "note_on", "time": 8, "note": 65, "velocity": 88, "channel": 0}, {"type": "note_off", "time": 58, "note": 65, "velocity": 88, "channel": 0}, {"type": "note_on", "time": 23, "note": 67, "velocity": 105, "channel": 0}, {"type": "note_off", "time": 213, "note": 67, "velocity": 105, "channel": 0}, {"type": "note_on", "time": 13, "note": 65, "velocity": 104, "channel": 0}, {"type": "note_off", "time": 91, "note": 65, "velocity": 104, "channel": 0}, {"type": "note_on", "time": 20, "note": 62, "velocity": 100, "channel": 0}, {"type": "note_off", "time": 67, "note": 62, "velocity": 100, "channel": 0}, {"type": "note_on", "time": 8, "note": 63, "velocity": 109, "channel": 0}, {"type": "note_off", "time": 96, "note": 63, "velocity": 109, "channel": 0}, {"type": "note_on", "time": 105, "note": 55, "velocity": 92, "channel": 0}, {"type": "note_off", "time": 70, "note": 55, "velocity": 92, "channel": 0}, {"type": "note_on", "time": 13, "note": 58, "velocity": 103, "channel": 0}, {"type": "note_off", "time": 38, "note": 58, "velocity": 103, "channel": 0}, {"type": "note_on", "time": 15, "note": 62, "velocity": 102, "channel": 0}, {"type": "note_off", "time": 90, "note": 62, "velocity": 102, "channel": 0}, {"type": "note_on", "time": 22, "note": 60, "velocity": 106, "channel": 0}, {"type": "note_off", "time": 68, "note": 60, "velocity": 106, "channel": 0}, {"type": "note_on", "time": 12, "note": 58, "velocity": 104, "channel": 0}, {"type": "note_off", "time": 106, "note": 58, "velocity": 104, "channel": 0}, {"type": "note_on", "time": 20, "note": 55, "velocity": 92, "channel": 0}, {"type": "note_off", "time": 41, "note": 55, "velocity": 92, "channel": 0}, {"type": "note_on", "time": 18, "note": 57, "velocity": 94, "channel": 0}, {"type": "note_off", "time": 37, "note": 57, "velocity": 94, "channel": 0}, {"type": "note_on", "time": 21, "note": 60, "velocity": 108, "channel": 0}, {"type": "note_off", "time": 76, "note": 60, "velocity": 108, "channel": 0}, {"type": "note_on", "time": 20, "note": 63, "velocity": 106, "channel": 0}, {"type": "note_off", "time": 84, "note": 63, "velocity": 106, "channel": 0}, {"type": "note_on", "time": 23, "note": 66, "velocity": 106, "channel": 0}, {"type": "note_off", "time": 82, "note": 66, "velocity": 106, "channel": 0}, {"type": "note_on", "time": 15, "note": 65, "velocity": 106, "channel": 0}, {"type": "note_off", "time": 84, "note": 65, "velocity": 106, "channel": 0}, {"type": "note_on", "time": 22, "note": 62, "velocity": 98, "channel": 0}, {"type": "note_off", "time": 70, "note": 62, "velocity": 98, "channel": 0}, {"type": "note_on", "time": 15, "note": 63, "velocity": 99, "channel": 0}, {"type": "note_off", "time": 78, "note": 63, "velocity": 99, "channel": 0}, {"type": "note_on", "time": 7, "note": 65, "velocity": 102, "channel": 0}, {"type": "note_off", "time": 22, "note": 65, "velocity": 102, "channel": 0}, {"type": "note_on", "time": 17, "note": 63, "velocity": 111, "channel": 0}, {"type": "note_off", "time": 60, "note": 63, "velocity": 111, "channel": 0}, {"type": "note_on", "time": 15, "note": 62, "velocity": 101, "channel": 0}, {"type": "note_off", "time": 70, "note": 62, "velocity": 101, "channel": 0}, {"type": "note_on", "time": 21, "note": 58, "velocity": 99, "channel": 0}, {"type": "note_off", "time": 77, "note": 58, "velocity": 99, "channel": 0}, {"type": "note_on", "time": 25, "note": 55, "velocity": 97, "channel": 0}, {"type": "note_off", "time": 95, "note": 55, "velocity": 97, "channel": 0}, {"type": "note_on", "time": 13, "note": 53, "velocity": 93, "channel": 0}, {"type": "note_off", "time": 52, "note": 53, "velocity": 93, "channel": 0}, {"type": "note_on", "time": 16, "note": 57, "velocity": 103, "channel": 0}, {"type": "note_off", "time": 65, "note": 57, "velocity": 103, "channel": 0}, {"type": "note_on", "time": 25, "note": 58, "velocity": 97, "channel": 0}, {"type": "note_off", "time": 75, "note": 58, "velocity": 97, "channel": 0}, {"type": "note_on", "time": 20, "note": 60, "velocity": 107, "channel": 0}, {"type": "note_off", "time": 91, "note": 60, "velocity": 107, "channel": 0}, {"type": "note_on", "time": 15, "note": 62, "velocity": 110, "channel": 0}, {"type": "note_off", "time": 51, "note": 62, "velocity": 110, "channel": 0}, {"type": "note_on", "time": 20, "note": 58, "velocity": 101, "channel": 0}, {"type": "note_off", "time": 92, "note": 58, "velocity": 101, "channel": 0}, {"type": "note_on", "time": 36, "note": 53, "velocity": 107, "channel": 0}, {"type": "note_off", "time": 63, "note": 53, "velocity": 107, "channel": 0}, {"type": "end_of_track", "time": 0}]]}