{"ticks_per_beat": 192, "tracks": [[{"type": "track_name", "name": "Melody", "time": 0}, {"type": "set_tempo", "tempo": 458015, "time": 0}, {"type": "key_signature", "key": "Ab", "time": 0}, {"type": "time_signature", "numerator": 4, "denominator": 4, "clocks_per_click": 24, "notated_32nd_notes_per_beat": 8, "time": 0}, {"type": "note_on", "time": 2094, "note": 65, "velocity": 102, "channel": 0}, {"type": "note_off", "time": 85, "note": 65, "velocity": 102, "channel": 0}, {"type": "note_on", "time": 66, "note": 67, "velocity": 101, "channel": 0}, {"type": "note_off", "time": 73, "note": 67, "velocity": 101, "channel": 0}, {"type": "note_on", "time": 56, "note": 68, "velocity": 100, "channel": 0}, {"type": "note_off", "time": 95, "note": 68, "velocity": 100, "channel": 0}, {"type": "note_on", "time": 61, "note": 65, "velocity": 98, "channel": 0}, {"type": "note_off", "time": 76, "note": 65, "velocity": 98, "channel": 0}, {"type": "note_on", "time": 29, "note": 67, "velocity": 96, "channel": 0}, {"type": "note_off", "time": 253, "note": 67, "velocity": 96, "channel": 0}, {"type": "note_on", "time": 23, "note": 60, "velocity": 89, "channel": 0}, {"type": "note_off", "time": 140, "note": 60, "velocity": 89, "channel": 0}, {"type": "note_on", "time": 41, "note": 65, "velocity": 90, "channel": 0}, {"type": "note_off", "time": 164, "note": 65, "velocity": 90, "channel": 0}, {"type": "note_on", "time": 328, "note": 65, "velocity": 108, "channel": 0}, {"type": "note_off", "time": 71, "note": 65, "velocity": 108, "channel": 0}, {"type": "note_on", "time": 3, "note": 67, "velocity": 110, "channel": 0}, {"type": "note_off", "time": 106, "note": 67, "velocity": 110, "channel": 0}, {"type": "note_on", "time": 11, "note": 67, "velocity": 108, "channel": 0}, {"type": "note_off", "time": 59, "note": 67, "velocity": 108, "channel": 0}, {"type": "note_on", "time": 3, "note": 68, "velocity": 101, "channel": 0}, {"type": "note_off", "time": 189, "note": 68, "velocity": 101, "channel": 0}, {"type": "note_on", "time": 8, "note": 65, "velocity": 112, "channel": 0}, {"type": "note_off", "time": 124, "note": 65, "velocity": 112, "channel": 0}, {"type": "note_on", "time": 4, "note": 67, "velocity": 96, "channel": 0}, {"type": "note_off", "time": 261, "note": 67, "velocity": 96, "channel": 0}, {"type": "note_on", "time": 18, "note": 65, "velocity": 108, "channel": 0}, {"type": "note_off", "time": 111, "note": 65, "velocity": 108, "channel": 0}, {"type": "note_on", "time": 20, "note": 61, "velocity": 85, "channel": 0}, {"type": "note_off", "time": 225, "note": 61, "velocity": 85, "channel": 0}, {"type": "note_on", "time": 781, "note": 65, "velocity": 101, "channel": 0}, {"type": "note_off", "time": 41, "note": 65, "velocity": 101, "channel": 0}, {"type": "note_on", "time": 99, "note": 70, "velocity": 100, "channel": 0}, {"type": "note_off", "time": 60, "note": 70, "velocity": 100, "channel": 0}, {"type": "note_on", "time": 1, "note": 71, "velocity": 112, "channel": 0}, {"type": "note_off", "time": 65, "note": 71, "velocity": 112, "channel": 0}, {"type": "note_on", "time": 7, "note": 72, "velocity": 102, "channel": 0}, {"type": "note_off", "time": 35, "note": 72, "velocity": 102, "channel": 0}, {"type": "note_on", "time": 5, "note": 71, "velocity": 110, "channel": 0}, {"type": "note_off", "time": 52, "note": 71, "velocity": 110, "channel": 0}, {"type": "note_on", "time": 19, "note": 70, "velocity": 92, "channel": 0}, {"type": "note_off", "time": 57, "note": 70, "velocity": 92, "channel": 0}, {"type": "note_on", "time": 3, "note": 68, "velocity": 108, "channel": 0}, {"type": "note_off", "time": 54, "note": 68, "velocity": 108, "channel": 0}, {"type": "note_on", "time": 0, "note": 65, "velocity": 111, "channel": 0}, {"type": "note_off", "time": 54, "note": 65, "velocity": 111, "channel": 0}, {"type": "note_on", "time": 41, "note": 70, "velocity": 87, "channel": 0}, {"type": "note_off", "time": 207, "note": 70, "velocity": 87, "channel": 0}, {"type": "note_on", "time": 83, "note": 67, "velocity": 105, "channel": 0}, {"type": "note_off", "time": 65, "note": 67, "velocity": 105, "channel": 0}, {"type": "note_on", "time": 6, "note": 66, "velocity": 105, "channel": 0}, {"type": "note_off", "time": 31, "note": 66, "velocity": 105, "channel": 0}, {"type": "note_on", "time": 7, "note": 67, "velocity": 101, "channel": 0}, {"type": "note_off", "time": 26, "note": 67, "velocity": 101, "channel": 0}, {"type": "note_on", "time": 2, "note": 65, "velocity": 104, "channel": 0}, {"type": "note_off", "time": 31, "note": 65, "velocity": 104, "channel": 0}, {"type": "note_on", "time": 8, "note": 62, "velocity": 101, "channel": 0}, {"type": "note_off", "time": 54, "note": 62, "velocity": 101, "channel": 0}, {"type": "note_on", "time": 20, "note": 65, "velocity": 107, "channel": 0}, {"type": "note_off", "time": 38, "note": 65, "velocity": 107, "channel": 0}, {"type": "note_on", "time": 5, "note": 67, "velocity": 93, "channel": 0}, {"type": "note_off", "time": 15, "note": 67, "velocity": 93, "channel": 0}, {"type": "note_on", "time": 1, "note": 65, "velocity": 104, "channel": 0}, {"type": "note_off", "time": 48, "note": 65, "velocity": 104, "channel": 0}, {"type": "note_on", "time": 3, "note": 62, "velocity": 101, "channel": 0}, {"type": "note_off", "time": 74, "note": 62, "velocity": 101, "channel": 0}, {"type": "note_on", "time": 25, "note": 64, "velocity": 114, "channel": 0}, {"type": "note_off", "time": 103, "note": 64, "velocity": 114, "channel": 0}, {"type": "note_on", "time": 3, "note": 60, "velocity": 95, "channel": 0}, {"type": "note_off", "time": 169, "note": 60, "velocity": 95, "channel": 0}, {"type": "note_on", "time": 0, "note": 62, "velocity": 102, "channel": 0}, {"type": "note_off", "time": 30, "note": 62, "velocity": 102, "channel": 0}, {"type": "note_on", "time": 2, "note": 67, "velocity": 105, "channel": 0}, {"type": "note_off", "time": 35, "note": 67, "velocity": 105, "channel": 0}, {"type": "note_on", "time": 3, "note": 70, "velocity": 92, "channel": 0}, {"type": "note_off", "time": 15, "note": 70, "velocity": 92, "channel": 0}, {"type": "note_on", "time": 13, "note": 72, "velocity": 114, "channel": 0}, {"type": "note_off", "time": 241, "note": 72, "velocity": 114, "channel": 0}, {"type": "note_on", "time": 59, "note": 60, "velocity": 100, "channel": 0}, {"type": "note_off", "time": 65, "note": 60, "velocity": 100, "channel": 0}, {"type": "note_on", "time": 0, "note": 68, "velocity": 104, "channel": 0}, {"type": "note_off", "time": 125, "note": 68, "velocity": 104, "channel": 0}, {"type": "note_on", "time": 0, "note": 65, "velocity": 92, "channel": 0}, {"type": "note_off", "time": 230, "note": 65, "velocity": 92, "channel": 0}, {"type": "note_on", "time": 20, "note": 68, "velocity": 112, "channel": 0}, {"type": "note_off", "time": 73, "note": 68, "velocity": 112, "channel": 0}, {"type": "note_on", "time": 324, "note": 68, "velocity": 112, "channel": 0}, {"type": "note_off", "time": 71, "note": 68, "velocity": 112, "channel": 0}, {"type": "note_on", "time": 110, "note": 68, "velocity": 113, "channel": 0}, {"type": "note_off", "time": 82, "note": 68, "velocity": 113, "channel": 0}, {"type": "note_on", "time": 115, "note": 68, "velocity": 112, "channel": 0}, {"type": "note_off", "time": 74, "note": 68, "velocity": 112, "channel": 0}, {"type": "note_on", "time": 37, "note": 64, "velocity": 118, "channel": 0}, {"type": "note_off", "time": 67, "note": 64, "velocity": 118, "channel": 0}, {"type": "note_on", "time": 7, "note": 60, "velocity": 110, "channel": 0}, {"type": "note_off", "time": 49, "note": 60, "velocity": 110, "channel": 0}, {"type": "note_on", "time": 12, "note": 56, "velocity": 99, "channel": 0}, {"type": "note_off", "time": 35, "note": 56, "velocity": 99, "channel": 0}, {"type": "note_on", "time": 17, "note": 52, "velocity": 90, "channel": 0}, {"type": "note_off", "time": 48, "note": 52, "velocity": 90, "channel": 0}, {"type": "note_on", "time": 47, "note": 68, "velocity": 109, "channel": 0}, {"type": "note_off", "time": 107, "note": 68, "velocity": 109, "channel": 0}, {"type": "note_on", "time": 15, "note": 65, "velocity": 94, "channel": 0}, {"type": "note_off", "time": 246, "note": 65, "velocity": 94, "channel": 0}, {"type": "note_on", "time": 12, "note": 68, "velocity": 107, "channel": 0}, {"type": "note_off", "time": 75, "note": 68, "velocity": 107, "channel": 0}, {"type": "note_on", "time": 417, "note": 68, "velocity": 110, "channel": 0}, {"type": "note_off", "time": 138, "note": 68, "velocity": 110, "channel": 0}, {"type": "note_on", "time": 2, "note": 67, "velocity": 111, "channel": 0}, {"type": "note_off", "time": 55, "note": 67, "velocity": 111, "channel": 0}, {"type": "note_on", "time": 1, "note": 65, "velocity": 112, "channel": 0}, {"type": "note_off", "time": 66, "note": 65, "velocity": 112, "channel": 0}, {"type": "note_on", "time": 1, "note": 64, "velocity": 117, "channel": 0}, {"type": "note_off", "time": 104, "note": 64, "velocity": 117, "channel": 0}, {"type": "note_on", "time": 21, "note": 65, "velocity": 109, "channel": 0}, {"type": "note_off", "time": 62, "note": 65, "velocity": 109, "channel": 0}, {"type": "note_on", "time": 26, "note": 67, "velocity": 113, "channel": 0}, {"type": "note_off", "time": 55, "note": 67, "velocity": 113, "channel": 0}, {"type": "note_on", "time": 2, "note": 68, "velocity": 109, "channel": 0}, {"type": "note_off", "time": 45, "note": 68, "velocity": 109, "channel": 0}, {"type": "note_on", "time": 0, "note": 65, "velocity": 102, "channel": 0}, {"type": "note_off", "time": 199, "note": 65, "velocity": 102, "channel": 0}, {"type": "note_on", "time": 203, "note": 58, "velocity": 101, "channel": 0}, {"type": "note_off", "time": 49, "note": 58, "velocity": 101, "channel": 0}, {"type": "note_on", "time": 7, "note": 61, "velocity": 108, "channel": 0}, {"type": "note_off", "time": 65, "note": 61, "velocity": 108, "channel": 0}, {"type": "note_on", "time": 60, "note": 61, "velocity": 112, "channel": 0}, {"type": "note_off", "time": 52, "note": 61, "velocity": 112, "channel": 0}, {"type": "note_on", "time": 19, "note": 65, "velocity": 114, "channel": 0}, {"type": "note_off", "time": 61, "note": 65, "velocity": 114, "channel": 0}, {"type": "note_on", "time": 4, "note": 61, "velocity": 98, "channel": 0}, {"type": "note_off", "time": 51, "note": 61, "velocity": 98, "channel": 0}, {"type": "note_on", "time": 1, "note": 65, "velocity": 115, "channel": 0}, {"type": "note_off", "time": 59, "note": 65, "velocity": 115, "channel": 0}, {"type": "note_on", "time": 4, "note": 68, "velocity": 112, "channel": 0}, {"type": "note_off", "time": 70, "note": 68, "velocity": 112, "channel": 0}, {"type": "note_on", "time": 214, "note": 58, "velocity": 99, "channel": 0}, {"type": "note_off", "time": 37, "note": 58, "velocity": 99, "channel": 0}, {"type": "note_on", "time": 6, "note": 61, "velocity": 114, "channel": 0}, {"type": "note_off", "time": 51, "note": 61, "velocity": 114, "channel": 0}, {"type": "note_on", "time": 9, "note": 65, "velocity": 117, "channel": 0}, {"type": "note_off", "time": 49, "note": 65, "velocity": 117, "channel": 0}, {"type": "note_on", "time": 20, "note": 58, "velocity": 104, "channel": 0}, {"type": "note_off", "time": 35, "note": 58, "velocity": 104, "channel": 0}, {"type": "note_on", "time": 12, "note": 61, "velocity": 112, "channel": 0}, {"type": "note_off", "time": 73, "note": 61, "velocity": 112, "channel": 0}, {"type": "note_on", "time": 2, "note": 65, "velocity": 115, "channel": 0}, {"type": "note_off", "time": 65, "note": 65, "velocity": 115, "channel": 0}, {"type": "note_on", "time": 3, "note": 61, "velocity": 114, "channel": 0}, {"type": "note_off", "time": 52, "note": 61, "velocity": 114, "channel": 0}, {"type": "note_on", "time": 2, "note": 65, "velocity": 111, "channel": 0}, {"type": "note_off", "time": 69, "note": 65, "velocity": 111, "channel": 0}, {"type": "note_on", "time": 3, "note": 68, "velocity": 113, "channel": 0}, {"type": "note_off", "time": 85, "note": 68, "velocity": 113, "channel": 0}, {"type": "note_on", "time": 94, "note": 65, "velocity": 111, "channel": 0}, {"type": "note_off", "time": 76, "note": 65, "velocity": 111, "channel": 0}, {"type": "note_on", "time": 48, "note": 68, "velocity": 113, "channel": 0}, {"type": "note_off", "time": 48, "note": 68, "velocity": 113, "channel": 0}, {"type": "note_on", "time": 40, "note": 64, "velocity": 117, "channel": 0}, {"type": "note_off", "time": 75, "note": 64, "velocity": 117, "channel": 0}, {"type": "note_on", "time": 31, "note": 67, "velocity": 110, "channel": 0}, {"type": "note_off", "time": 75, "note": 67, "velocity": 110, "channel": 0}, {"type": "note_on", "time": 20, "note": 71, "velocity": 108, "channel": 0}, {"type": "note_off", "time": 73, "note": 71, "velocity": 108, "channel": 0}, {"type": "note_on", "time": 209, "note": 72, "velocity": 107, "channel": 0}, {"type": "note_off", "time": 251, "note": 72, "velocity": 107, "channel": 0}, {"type": "note_on", "time": 42, "note": 70, "velocity": 99, "channel": 0}, {"type": "note_off", "time": 65, "note": 70, "velocity": 99, "channel": 0}, {"type": "note_on", "time": 31, "note": 67, "velocity": 112, "channel": 0}, {"type": "note_off", "time": 68, "note": 67, "velocity": 112, "channel": 0}, {"type": "note_on", "time": 19, "note": 63, "velocity": 116, "channel": 0}, {"type": "note_off", "time": 90, "note": 63, "velocity": 116, "channel": 0}, {"type": "note_on", "time": 12, "note": 64, "velocity": 119, "channel": 0}, {"type": "note_off", "time": 83, "note": 64, "velocity": 119, "channel": 0}, {"type": "note_on", "time": 10, "note": 65, "velocity": 109, "channel": 0}, {"type": "note_off", "time": 160, "note": 65, "velocity": 109, "channel": 0}, {"type": "note_on", "time": 13, "note": 63, "velocity": 116, "channel": 0}, {"type": "note_off", "time": 114, "note": 63, "velocity": 116, "channel": 0}, {"type": "note_on", "time": 73, "note": 59, "velocity": 103, "channel": 0}, {"type": "note_off", "time": 52, "note": 59, "velocity": 103, "channel": 0}, {"type": "note_on", "time": 4, "note": 60, "velocity": 106, "channel": 0}, {"type": "note_off", "time": 146, "note": 60, "velocity": 106, "channel": 0}, {"type": "note_on", "time": 4, "note": 58, "velocity": 101, "channel": 0}, {"type": "note_off", "time": 83, "note": 58, "velocity": 101, "channel": 0}, {"type": "note_on", "time": 118, "note": 56, "velocity": 100, "channel": 0}, {"type": "note_off", "time": 147, "note": 56, "velocity": 100, "channel": 0}, {"type": "note_on", "time": 3, "note": 55, "velocity": 93, "channel": 0}, {"type": "note_off", "time": 139, "note": 55, "velocity": 93, "channel": 0}, {"type": "note_on", "time": 7, "note": 56, "velocity": 104, "channel": 0}, {"type": "note_off", "time": 104, "note": 56, "velocity": 104, "channel": 0}, {"type": "note_on", "time": 455, "note": 66, "velocity": 119, "channel": 0}, {"type": "note_off", "time": 32, "note": 66, "velocity": 119, "channel": 0}, {"type": "note_on", "time": 2, "note": 67, "velocity": 118, "channel": 0}, {"type": "note_off", "time": 127, "note": 67, "velocity": 118, "channel": 0}, {"type": "note_on", "time": 131, "note": 65, "velocity": 111, "channel": 0}, {"type": "note_off", "time": 98, "note": 65, "velocity": 111, "channel": 0}, {"type": "note_on", "time": 6, "note": 63, "velocity": 120, "channel": 0}, {"type": "note_off", "time": 62, "note": 63, "velocity": 120, "channel": 0}, {"type": "note_on", "time": 10, "note": 59, "velocity": 103, "channel": 0}, {"type": "note_off", "time": 50, "note": 59, "velocity": 103, "channel": 0}, {"type": "note_on", "time": 3, "note": 60, "velocity": 102, "channel": 0}, {"type": "note_off", "time": 36, "note": 60, "velocity": 102, "channel": 0}, {"type": "note_on", "time": 40, "note": 59, "velocity": 103, "channel": 0}, {"type": "note_off", "time": 57, "note": 59, "velocity": 103, "channel": 0}, {"type": "note_on", "time": 4, "note": 58, "velocity": 103, "channel": 0}, {"type": "note_off", "time": 86, "note": 58, "velocity": 103, "channel": 0}, {"type": "note_on", "time": 29, "note": 56, "velocity": 107, "channel": 0}, {"type": "note_off", "time": 55, "note": 56, "velocity": 107, "channel": 0}, {"type": "note_on", "time": 18, "note": 53, "velocity": 88, "channel": 0}, {"type": "note_off", "time": 98, "note": 53, "velocity": 88, "channel": 0}, {"type": "note_on", "time": 21, "note": 56, "velocity": 106, "channel": 0}, {"type": "note_off", "time": 59, "note": 56, "velocity": 106, "channel": 0}, {"type": "note_on", "time": 15, "note": 58, "velocity": 102, "channel": 0}, {"type": "note_off", "time": 120, "note": 58, "velocity": 102, "channel": 0}, {"type": "note_on", "time": 14, "note": 60, "velocity": 104, "channel": 0}, {"type": "note_off", "time": 66, "note": 60, "velocity": 104, "channel": 0}, {"type": "note_on", "time": 118, "note": 56, "velocity": 94, "channel": 0}, {"type": "note_off", "time": 239, "note": 56, "velocity": 94, "channel": 0}, {"type": "note_on", "time": 31, "note": 58, "velocity": 103, "channel": 0}, {"type": "note_off", "time": 80, "note": 58, "velocity": 103, "channel": 0}, {"type": "note_on", "time": 35, "note": 59, "velocity": 103, "channel": 0}, {"type": "note_off", "time": 73, "note": 59, "velocity": 103, "channel": 0}, {"type": "note_on", "time": 10, "note": 60, "velocity": 103, "channel": 0}, {"type": "note_off", "time": 83, "note": 60, "velocity": 103, "channel": 0}, {"type": "note_on", "time": 20, "note": 63, "velocity": 106, "channel": 0}, {"type": "note_off", "time": 47, "note": 63, "velocity": 106, "channel": 0}, {"type": "note_on", "time": 20, "note": 65, "velocity": 106, "channel": 0}, {"type": "note_off", "time": 121, "note": 65, "velocity": 106, "channel": 0}, {"type": "note_on", "time": 12, "note": 68, "velocity": 111, "channel": 0}, {"type": "note_off", "time": 81, "note": 68, "velocity": 111, "channel": 0}, {"type": "note_on", "time": 240, "note": 70, "velocity": 118, "channel": 0}, {"type": "note_off", "time": 36, "note": 70, "velocity": 118, "channel": 0}, {"type": "note_on", "time": 4, "note": 71, "velocity": 110, "channel": 0}, {"type": "note_off", "time": 40, "note": 71, "velocity": 110, "channel": 0}, {"type": "note_on", "time": 40, "note": 71, "velocity": 121, "channel": 0}, {"type": "note_off", "time": 32, "note": 71, "velocity": 121, "channel": 0}, {"type": "note_on", "time": 3, "note": 72, "velocity": 113, "channel": 0}, {"type": "note_off", "time": 48, "note": 72, "velocity": 113, "channel": 0}, {"type": "note_on", "time": 31, "note": 72, "velocity": 127, "channel": 0}, {"type": "note_off", "time": 42, "note": 72, "velocity": 127, "channel": 0}, {"type": "note_on", "time": 4, "note": 73, "velocity": 108, "channel": 0}, {"type": "note_off", "time": 40, "note": 73, "velocity": 108, "channel": 0}, {"type": "note_on", "time": 23, "note": 73, "velocity": 125, "channel": 0}, {"type": "note_off", "time": 45, "note": 73, "velocity": 125, "channel": 0}, {"type": "note_on", "time": 4, "note": 74, "velocity": 123, "channel": 0}, {"type": "note_off", "time": 32, "note": 74, "velocity": 123, "channel": 0}, {"type": "note_on", "time": 25, "note": 74, "velocity": 123, "channel": 0}, {"type": "note_off", "time": 37, "note": 74, "velocity": 123, "channel": 0}, {"type": "note_on", "time": 4, "note": 75, "velocity": 122, "channel": 0}, {"type": "note_off", "time": 34, "note": 75, "velocity": 122, "channel": 0}, {"type": "note_on", "time": 25, "note": 70, "velocity": 116, "channel": 0}, {"type": "note_off", "time": 53, "note": 70, "velocity": 116, "channel": 0}, {"type": "note_on", "time": 8, "note": 72, "velocity": 99, "channel": 0}, {"type": "note_off", "time": 66, "note": 72, "velocity": 99, "channel": 0}, {"type": "note_on", "time": 19, "note": 67, "velocity": 112, "channel": 0}, {"type": "note_off", "time": 45, "note": 67, "velocity": 112, "channel": 0}, {"type": "note_on", "time": 4, "note": 68, "velocity": 97, "channel": 0}, {"type": "note_off", "time": 251, "note": 68, "velocity": 97, "channel": 0}, {"type": "note_on", "time": 167, "note": 65, "velocity": 96, "channel": 0}, {"type": "note_off", "time": 46, "note": 65, "velocity": 96, "channel": 0}, {"type": "note_on", "time": 2, "note": 61, "velocity": 94, "channel": 0}, {"type": "note_off", "time": 68, "note": 61, "velocity": 94, "channel": 0}, {"type": "note_on", "time": 8, "note": 58, "velocity": 86, "channel": 0}, {"type": "note_off", "time": 156, "note": 58, "velocity": 86, "channel": 0}, {"type": "note_on", "time": 498, "note": 60, "velocity": 107, "channel": 0}, {"type": "note_off", "time": 94, "note": 60, "velocity": 107, "channel": 0}, {"type": "note_on", "time": 7, "note": 59, "velocity": 96, "channel": 0}, {"type": "note_off", "time": 155, "note": 59, "velocity": 96, "channel": 0}, {"type": "note_on", "time": 1, "note": 56, "velocity": 106, "channel": 0}, {"type": "note_off", "time": 133, "note": 56, "velocity": 106, "channel": 0}, {"type": "note_on", "time": 19, "note": 53, "velocity": 92, "channel": 0}, {"type": "note_off", "time": 29, "note": 53, "velocity": 92, "channel": 0}, {"type": "note_on", "time": 4, "note": 56, "velocity": 101, "channel": 0}, {"type": "note_off", "time": 206, "note": 56, "velocity": 101, "channel": 0}, {"type": "note_on", "time": 4, "note": 58, "velocity": 104, "channel": 0}, {"type": "note_off", "time": 86, "note": 58, "velocity": 104, "channel": 0}, {"type": "note_on", "time": 210, "note": 52, "velocity": 99, "channel": 0}, {"type": "note_off", "time": 64, "note": 52, "velocity": 99, "channel": 0}, {"type": "note_on", "time": 9, "note": 55, "velocity": 88, "channel": 0}, {"type": "note_off", "time": 74, "note": 55, "velocity": 88, "channel": 0}, {"type": "note_on", "time": 8, "note": 56, "velocity": 110, "channel": 0}, {"type": "note_off", "time": 69, "note": 56, "velocity": 110, "channel": 0}, {"type": "note_on", "time": 9, "note": 58, "velocity": 110, "channel": 0}, {"type": "note_off", "time": 68, "note": 58, "velocity": 110, "channel": 0}, {"type": "note_on", "time": 31, "note": 60, "velocity": 110, "channel": 0}, {"type": "note_off", "time": 88, "note": 60, "velocity": 110, "channel": 0}, {"type": "note_on", "time": 13, "note": 64, "velocity": 116, "channel": 0}, {"type": "note_off", "time": 91, "note": 64, "velocity": 116, "channel": 0}, {"type": "note_on", "time": 30, "note": 60, "velocity": 111, "channel": 0}, {"type": "note_off", "time": 57, "note": 60, "velocity": 111, "channel": 0}, {"type": "note_on", "time": 3, "note": 56, "velocity": 106, "channel": 0}, {"type": "note_off", "time": 77, "note": 56, "velocity": 106, "channel": 0}, {"type": "note_on", "time": 284, "note": 59, "velocity": 114, "channel": 0}, {"type": "note_off", "time": 38, "note": 59, "velocity": 114, "channel": 0}, {"type": "note_on", "time": 6, "note": 60, "velocity": 106, "channel": 0}, {"type": "note_off", "time": 124, "note": 60, "velocity": 106, "channel": 0}, {"type": "note_on", "time": 4, "note": 59, "velocity": 101, "channel": 0}, {"type": "note_off", "time": 74, "note": 59, "velocity": 101, "channel": 0}, {"type": "note_on", "time": 14, "note": 56, "velocity": 105, "channel": 0}, {"type": "note_off", "time": 107, "note": 56, "velocity": 105, "channel": 0}, {"type": "note_on", "time": 23, "note": 52, "velocity": 100, "channel": 0}, {"type": "note_off", "time": 75, "note": 52, "velocity": 100, "channel": 0}, {"type": "note_on", "time": 3, "note": 55, "velocity": 108, "channel": 0}, {"type": "note_off", "time": 87, "note": 55, "velocity": 108, "channel": 0}, {"type": "note_on", "time": 29, "note": 53, "velocity": 86, "channel": 0}, {"type": "note_off", "time": 204, "note": 53, "velocity": 86, "channel": 0}, {"type": "note_on", "time": 412, "note": 68, "velocity": 111, "channel": 0}, {"type": "note_off", "time": 306, "note": 68, "velocity": 111, "channel": 0}, {"type": "note_on", "time": 10, "note": 65, "velocity": 114, "channel": 0}, {"type": "note_off", "time": 81, "note": 65, "velocity": 114, "channel": 0}, {"type": "note_on", "time": 10, "note": 67, "velocity": 114, "channel": 0}, {"type": "note_off", "time": 144, "note": 67, "velocity": 114, "channel": 0}, {"type": "note_on", "time": 13, "note": 68, "velocity": 111, "channel": 0}, {"type": "note_off", "time": 88, "note": 68, "velocity": 111, "channel": 0}, {"type": "note_on", "time": 47, "note": 70, "velocity": 111, "channel": 0}, {"type": "note_off", "time": 41, "note": 70, "velocity": 111, "channel": 0}, {"type": "note_on", "time": 11, "note": 71, "velocity": 109, "channel": 0}, {"type": "note_off", "time": 132, "note": 71, "velocity": 109, "channel": 0}, {"type": "note_on", "time": 3, "note": 70, "velocity": 98, "channel": 0}, {"type": "note_off", "time": 48, "note": 70, "velocity": 98, "channel": 0}, {"type": "note_on", "time": 9, "note": 70, "velocity": 93, "channel": 0}, {"type": "note_off", "time": 73, "note": 70, "velocity": 93, "channel": 0}, {"type": "note_on", "time": 6, "note": 68, "velocity": 96, "channel": 0}, {"type": "note_off", "time": 46, "note": 68, "velocity": 96, "channel": 0}, {"type": "note_on", "time": 1, "note": 70, "velocity": 92, "channel": 0}, {"type": "note_off", "time": 91, "note": 70, "velocity": 92, "channel": 0}, {"type": "note_on", "time": 295, "note": 68, "velocity": 113, "channel": 0}, {"type": "note_off", "time": 64, "note": 68, "velocity": 113, "channel": 0}, {"type": "note_on", "time": 3, "note": 65, "velocity": 111, "channel": 0}, {"type": "note_off", "time": 88, "note": 65, "velocity": 111, "channel": 0}, {"type": "note_on", "time": 126, "note": 56, "velocity": 98, "channel": 0}, {"type": "note_off", "time": 36, "note": 56, "velocity": 98, "channel": 0}, {"type": "note_on", "time": 7, "note": 60, "velocity": 96, "channel": 0}, {"type": "note_off", "time": 42, "note": 60, "velocity": 96, "channel": 0}, {"type": "note_on", "time": 3, "note": 65, "velocity": 111, "channel": 0}, {"type": "note_off", "time": 74, "note": 65, "velocity": 111, "channel": 0}, {"type": "note_on", "time": 4, "note": 64, "velocity": 118, "channel": 0}, {"type": "note_off", "time": 83, "note": 64, "velocity": 118, "channel": 0}, {"type": "note_on", "time": 234, "note": 63, "velocity": 103, "channel": 0}, {"type": "note_off", "time": 238, "note": 63, "velocity": 103, "channel": 0}, {"type": "note_on", "time": 97, "note": 58, "velocity": 93, "channel": 0}, {"type": "note_off", "time": 38, "note": 58, "velocity": 93, "channel": 0}, {"type": "note_on", "time": 9, "note": 61, "velocity": 101, "channel": 0}, {"type": "note_off", "time": 51, "note": 61, "velocity": 101, "channel": 0}, {"type": "note_on", "time": 24, "note": 64, "velocity": 114, "channel": 0}, {"type": "note_off", "time": 38, "note": 64, "velocity": 114, "channel": 0}, {"type": "note_on", "time": 7, "note": 65, "velocity": 105, "channel": 0}, {"type": "note_off", "time": 59, "note": 65, "velocity": 105, "channel": 0}, {"type": "note_on", "time": 13, "note": 64, "velocity": 111, "channel": 0}, {"type": "note_off", "time": 65, "note": 64, "velocity": 111, "channel": 0}, {"type": "note_on", "time": 13, "note": 65, "velocity": 102, "channel": 0}, {"type": "note_off", "time": 54, "note": 65, "velocity": 102, "channel": 0}, {"type": "note_on", "time": 3, "note": 61, "velocity": 99, "channel": 0}, {"type": "note_off", "time": 46, "note": 61, "velocity": 99, "channel": 0}, {"type": "note_on", "time": 9, "note": 56, "velocity": 97, "channel": 0}, {"type": "note_off", "time": 55, "note": 56, "velocity": 97, "channel": 0}, {"type": "note_on", "time": 10, "note": 55, "velocity": 93, "channel": 0}, {"type": "note_off", "time": 52, "note": 55, "velocity": 93, "channel": 0}, {"type": "note_on", "time": 7, "note": 54, "velocity": 93, "channel": 0}, {"type": "note_off", "time": 46, "note": 54, "velocity": 93, "channel": 0}, {"type": "note_on", "time": 10, "note": 53, "velocity": 89, "channel": 0}, {"type": "note_off", "time": 93, "note": 53, "velocity": 89, "channel": 0}, {"type": "note_on", "time": 473, "note": 67, "velocity": 111, "channel": 0}, {"type": "note_off", "time": 29, "note": 67, "velocity": 111, "channel": 0}, {"type": "note_on", "time": 8, "note": 68, "velocity": 115, "channel": 0}, {"type": "note_off", "time": 50, "note": 68, "velocity": 115, "channel": 0}, {"type": "note_on", "time": 51, "note": 70, "velocity": 112, "channel": 0}, {"type": "note_off", "time": 35, "note": 70, "velocity": 112, "channel": 0}, {"type": "note_on", "time": 1, "note": 71, "velocity": 118, "channel": 0}, {"type": "note_off", "time": 40, "note": 71, "velocity": 118, "channel": 0}, {"type": "note_on", "time": 43, "note": 71, "velocity": 118, "channel": 0}, {"type": "note_off", "time": 38, "note": 71, "velocity": 118, "channel": 0}, {"type": "note_on", "time": 3, "note": 72, "velocity": 117, "channel": 0}, {"type": "note_off", "time": 41, "note": 72, "velocity": 117, "channel": 0}, {"type": "note_on", "time": 26, "note": 72, "velocity": 122, "channel": 0}, {"type": "note_off", "time": 35, "note": 72, "velocity": 122, "channel": 0}, {"type": "note_on", "time": 4, "note": 73, "velocity": 119, "channel": 0}, {"type": "note_off", "time": 43, "note": 73, "velocity": 119, "channel": 0}, {"type": "note_on", "time": 17, "note": 73, "velocity": 122, "channel": 0}, {"type": "note_off", "time": 29, "note": 73, "velocity": 122, "channel": 0}, {"type": "note_on", "time": 3, "note": 74, "velocity": 118, "channel": 0}, {"type": "note_off", "time": 43, "note": 74, "velocity": 118, "channel": 0}, {"type": "note_on", "time": 15, "note": 74, "velocity": 107, "channel": 0}, {"type": "note_off", "time": 26, "note": 74, "velocity": 107, "channel": 0}, {"type": "note_on", "time": 0, "note": 75, "velocity": 116, "channel": 0}, {"type": "note_off", "time": 52, "note": 75, "velocity": 116, "channel": 0}, {"type": "note_on", "time": 21, "note": 63, "velocity": 100, "channel": 0}, {"type": "note_off", "time": 65, "note": 63, "velocity": 100, "channel": 0}, {"type": "note_on", "time": 74, "note": 70, "velocity": 108, "channel": 0}, {"type": "note_off", "time": 42, "note": 70, "velocity": 108, "channel": 0}, {"type": "note_on", "time": 2, "note": 72, "velocity": 112, "channel": 0}, {"type": "note_off", "time": 54, "note": 72, "velocity": 112, "channel": 0}, {"type": "note_on", "time": 15, "note": 68, "velocity": 93, "channel": 0}, {"type": "note_off", "time": 200, "note": 68, "velocity": 93, "channel": 0}, {"type": "note_on", "time": 997, "note": 71, "velocity": 100, "channel": 0}, {"type": "note_off", "time": 52, "note": 71, "velocity": 100, "channel": 0}, {"type": "note_on", "time": 8, "note": 72, "velocity": 104, "channel": 0}, {"type": "note_off", "time": 62, "note": 72, "velocity": 104, "channel": 0}, {"type": "note_on", "time": 70, "note": 68, "velocity": 113, "channel": 0}, {"type": "note_off", "time": 76, "note": 68, "velocity": 113, "channel": 0}, {"type": "note_on", "time": 13, "note": 65, "velocity": 101, "channel": 0}, {"type": "note_off", "time": 111, "note": 65, "velocity": 101, "channel": 0}, {"type": "note_on", "time": 0, "note": 60, "velocity": 100, "channel": 0}, {"type": "note_off", "time": 54, "note": 60, "velocity": 100, "channel": 0}, {"type": "note_on", "time": 15, "note": 65, "velocity": 106, "channel": 0}, {"type": "note_off", "time": 104, "note": 65, "velocity": 106, "channel": 0}, {"type": "note_on", "time": 35, "note": 67, "velocity": 109, "channel": 0}, {"type": "note_off", "time": 57, "note": 67, "velocity": 109, "channel": 0}, {"type": "note_on", "time": 9, "note": 68, "velocity": 105, "channel": 0}, {"type": "note_off", "time": 103, "note": 68, "velocity": 105, "channel": 0}, {"type": "note_on", "time": 19, "note": 67, "velocity": 103, "channel": 0}, {"type": "note_off", "time": 57, "note": 67, "velocity": 103, "channel": 0}, {"type": "note_on", "time": 13, "note": 65, "velocity": 103, "channel": 0}, {"type": "note_off", "time": 98, "note": 65, "velocity": 103, "channel": 0}, {"type": "note_on", "time": 32, "note": 67, "velocity": 96, "channel": 0}, {"type": "note_off", "time": 102, "note": 67, "velocity": 96, "channel": 0}, {"type": "note_on", "time": 51, "note": 60, "velocity": 91, "channel": 0}, {"type": "note_off", "time": 74, "note": 60, "velocity": 91, "channel": 0}, {"type": "note_on", "time": 143, "note": 60, "velocity": 93, "channel": 0}, {"type": "note_off", "time": 51, "note": 60, "velocity": 93, "channel": 0}, {"type": "note_on", "time": 30, "note": 72, "velocity": 111, "channel": 0}, {"type": "note_off", "time": 92, "note": 72, "velocity": 111, "channel": 0}, {"type": "note_on", "time": 227, "note": 60, "velocity": 101, "channel": 0}, {"type": "note_off", "time": 48, "note": 60, "velocity": 101, "channel": 0}, {"type": "note_on", "time": 19, "note": 63, "velocity": 105, "channel": 0}, {"type": "note_off", "time": 114, "note": 63, "velocity": 105, "channel": 0}, {"type": "note_on", "time": 6, "note": 60, "velocity": 90, "channel": 0}, {"type": "note_off", "time": 48, "note": 60, "velocity": 90, "channel": 0}, {"type": "note_on", "time": 144, "note": 60, "velocity": 102, "channel": 0}, {"type": "note_off", "time": 66, "note": 60, "velocity": 102, "channel": 0}, {"type": "note_on", "time": 64, "note": 72, "velocity": 101, "channel": 0}, {"type": "note_off", "time": 88, "note": 72, "velocity": 101, "channel": 0}, {"type": "note_on", "time": 25, "note": 70, "velocity": 102, "channel": 0}, {"type": "note_off", "time": 35, "note": 70, "velocity": 102, "channel": 0}, {"type": "note_on", "time": 32, "note": 68, "velocity": 100, "channel": 0}, {"type": "note_off", "time": 37, "note": 68, "velocity": 100, "channel": 0}, {"type": "note_on", "time": 13, "note": 67, "velocity": 102, "channel": 0}, {"type": "note_off", "time": 26, "note": 67, "velocity": 102, "channel": 0}, {"type": "note_on", "time": 13, "note": 65, "velocity": 98, "channel": 0}, {"type": "note_off", "time": 34, "note": 65, "velocity": 98, "channel": 0}, {"type": "note_on", "time": 13, "note": 63, "velocity": 109, "channel": 0}, {"type": "note_off", "time": 47, "note": 63, "velocity": 109, "channel": 0}, {"type": "note_on", "time": 13, "note": 64, "velocity": 106, "channel": 0}, {"type": "note_off", "time": 25, "note": 64, "velocity": 106, "channel": 0}, {"type": "note_on", "time": 8, "note": 67, "velocity": 98, "channel": 0}, {"type": "note_off", "time": 41, "note": 67, "velocity": 98, "channel": 0}, {"type": "note_on", "time": 1, "note": 65, "velocity": 89, "channel": 0}, {"type": "note_off", "time": 160, "note": 65, "velocity": 89, "channel": 0}, {"type": "note_on", "time": 581, "note": 68, "velocity": 111, "channel": 0}, {"type": "note_off", "time": 71, "note": 68, "velocity": 111, "channel": 0}, {"type": "note_on", "time": 4, "note": 64, "velocity": 105, "channel": 0}, {"type": "note_off", "time": 51, "note": 64, "velocity": 105, "channel": 0}, {"type": "note_on", "time": 4, "note": 65, "velocity": 102, "channel": 0}, {"type": "note_off", "time": 55, "note": 65, "velocity": 102, "channel": 0}, {"type": "note_on", "time": 12, "note": 68, "velocity": 112, "channel": 0}, {"type": "note_off", "time": 57, "note": 68, "velocity": 112, "channel": 0}, {"type": "note_on", "time": 20, "note": 65, "velocity": 106, "channel": 0}, {"type": "note_off", "time": 87, "note": 65, "velocity": 106, "channel": 0}, {"type": "note_on", "time": 20, "note": 61, "velocity": 107, "channel": 0}, {"type": "note_off", "time": 75, "note": 61, "velocity": 107, "channel": 0}, {"type": "note_on", "time": 10, "note": 58, "velocity": 99, "channel": 0}, {"type": "note_off", "time": 99, "note": 58, "velocity": 99, "channel": 0}, {"type": "note_on", "time": 27, "note": 53, "velocity": 93, "channel": 0}, {"type": "note_off", "time": 40, "note": 53, "velocity": 93, "channel": 0}, {"type": "note_on", "time": 36, "note": 57, "velocity": 99, "channel": 0}, {"type": "note_off", "time": 91, "note": 57, "velocity": 99, "channel": 0}, {"type": "note_on", "time": 6, "note": 53, "velocity": 74, "channel": 0}, {"type": "note_off", "time": 37, "note": 53, "velocity": 74, "channel": 0}, {"type": "note_on", "time": 46, "note": 57, "velocity": 100, "channel": 0}, {"type": "note_off", "time": 113, "note": 57, "velocity": 100, "channel": 0}, {"type": "note_on", "time": 14, "note": 53, "velocity": 87, "channel": 0}, {"type": "note_off", "time": 40, "note": 53, "velocity": 87, "channel": 0}, {"type": "note_on", "time": 43, "note": 56, "velocity": 105, "channel": 0}, {"type": "note_off", "time": 76, "note": 56, "velocity": 105, "channel": 0}, {"type": "note_on", "time": 31, "note": 53, "velocity": 82, "channel": 0}, {"type": "note_off", "time": 41, "note": 53, "velocity": 82, "channel": 0}, {"type": "note_on", "time": 36, "note": 56, "velocity": 101, "channel": 0}, {"type": "note_off", "time": 103, "note": 56, "velocity": 101, "channel": 0}, {"type": "note_on", "time": 32, "note": 53, "velocity": 89, "channel": 0}, {"type": "note_off", "time": 191, "note": 53, "velocity": 89, "channel": 0}, {"type": "note_on", "time": 177, "note": 56, "velocity": 106, "channel": 0}, {"type": "note_off", "time": 52, "note": 56, "velocity": 106, "channel": 0}, {"type": "note_on", "time": 10, "note": 52, "velocity": 90, "channel": 0}, {"type": "note_off", "time": 59, "note": 52, "velocity": 90, "channel": 0}, {"type": "note_on", "time": 5, "note": 53, "velocity": 101, "channel": 0}, {"type": "note_off", "time": 46, "note": 53, "velocity": 101, "channel": 0}, {"type": "note_on", "time": 14, "note": 56, "velocity": 107, "channel": 0}, {"type": "note_off", "time": 57, "note": 56, "velocity": 107, "channel": 0}, {"type": "note_on", "time": 10, "note": 52, "velocity": 90, "channel": 0}, {"type": "note_off", "time": 47, "note": 52, "velocity": 90, "channel": 0}, {"type": "note_on", "time": 1, "note": 53, "velocity": 93, "channel": 0}, {"type": "note_off", "time": 36, "note": 53, "velocity": 93, "channel": 0}, {"type": "note_on", "time": 3, "note": 56, "velocity": 107, "channel": 0}, {"type": "note_off", "time": 62, "note": 56, "velocity": 107, "channel": 0}, {"type": "note_on", "time": 28, "note": 58, "velocity": 103, "channel": 0}, {"type": "note_off", "time": 24, "note": 58, "velocity": 103, "channel": 0}, {"type": "note_on", "time": 5, "note": 59, "velocity": 114, "channel": 0}, {"type": "note_off", "time": 132, "note": 59, "velocity": 114, "channel": 0}, {"type": "note_on", "time": 10, "note": 58, "velocity": 94, "channel": 0}, {"type": "note_off", "time": 342, "note": 58, "velocity": 94, "channel": 0}, {"type": "note_on", "time": 201, "note": 67, "velocity": 117, "channel": 0}, {"type": "note_off", "time": 36, "note": 67, "velocity": 117, "channel": 0}, {"type": "note_on", "time": 2, "note": 68, "velocity": 116, "channel": 0}, {"type": "note_off", "time": 56, "note": 68, "velocity": 116, "channel": 0}, {"type": "note_on", "time": 104, "note": 65, "velocity": 90, "channel": 0}, {"type": "note_off", "time": 229, "note": 65, "velocity": 90, "channel": 0}, {"type": "note_on", "time": 15, "note": 60, "velocity": 101, "channel": 0}, {"type": "note_off", "time": 91, "note": 60, "velocity": 101, "channel": 0}, {"type": "note_on", "time": 96, "note": 56, "velocity": 96, "channel": 0}, {"type": "note_off", "time": 94, "note": 56, "velocity": 96, "channel": 0}, {"type": "note_on", "time": 99, "note": 59, "velocity": 101, "channel": 0}, {"type": "note_off", "time": 147, "note": 59, "velocity": 101, "channel": 0}, {"type": "note_on", "time": 4, "note": 58, "velocity": 98, "channel": 0}, {"type": "note_off", "time": 74, "note": 58, "velocity": 98, "channel": 0}, {"type": "note_on", "time": 2, "note": 59, "velocity": 101, "channel": 0}, {"type": "note_off", "time": 93, "note": 59, "velocity": 101, "channel": 0}, {"type": "note_on", "time": 12, "note": 58, "velocity": 97, "channel": 0}, {"type": "note_off", "time": 127, "note": 58, "velocity": 97, "channel": 0}, {"type": "note_on", "time": 403, "note": 70, "velocity": 94, "channel": 0}, {"type": "note_off", "time": 23, "note": 70, "velocity": 94, "channel": 0}, {"type": "note_on", "time": 13, "note": 72, "velocity": 114, "channel": 0}, {"type": "note_off", "time": 47, "note": 72, "velocity": 114, "channel": 0}, {"type": "note_on", "time": 23, "note": 68, "velocity": 106, "channel": 0}, {"type": "note_off", "time": 85, "note": 68, "velocity": 106, "channel": 0}, {"type": "note_on", "time": 92, "note": 65, "velocity": 97, "channel": 0}, {"type": "note_off", "time": 102, "note": 65, "velocity": 97, "channel": 0}, {"type": "note_on", "time": 7, "note": 60, "velocity": 94, "channel": 0}, {"type": "note_off", "time": 71, "note": 60, "velocity": 94, "channel": 0}, {"type": "note_on", "time": 104, "note": 59, "velocity": 97, "channel": 0}, {"type": "note_off", "time": 222, "note": 59, "velocity": 97, "channel": 0}, {"type": "note_on", "time": 10, "note": 56, "velocity": 100, "channel": 0}, {"type": "note_off", "time": 35, "note": 56, "velocity": 100, "channel": 0}, {"type": "note_on", "time": 24, "note": 59, "velocity": 101, "channel": 0}, {"type": "note_off", "time": 85, "note": 59, "velocity": 101, "channel": 0}, {"type": "note_on", "time": 7, "note": 58, "velocity": 99, "channel": 0}, {"type": "note_off", "time": 127, "note": 58, "velocity": 99, "channel": 0}, {"type": "note_on", "time": 794, "note": 58, "velocity": 100, "channel": 0}, {"type": "note_off", "time": 41, "note": 58, "velocity": 100, "channel": 0}, {"type": "note_on", "time": 3, "note": 61, "velocity": 110, "channel": 0}, {"type": "note_off", "time": 41, "note": 61, "velocity": 110, "channel": 0}, {"type": "note_on", "time": 9, "note": 65, "velocity": 109, "channel": 0}, {"type": "note_off", "time": 57, "note": 65, "velocity": 109, "channel": 0}, {"type": "note_on", "time": 14, "note": 58, "velocity": 104, "channel": 0}, {"type": "note_off", "time": 51, "note": 58, "velocity": 104, "channel": 0}, {"type": "note_on", "time": 4, "note": 61, "velocity": 109, "channel": 0}, {"type": "note_off", "time": 49, "note": 61, "velocity": 109, "channel": 0}, {"type": "note_on", "time": 12, "note": 65, "velocity": 104, "channel": 0}, {"type": "note_off", "time": 70, "note": 65, "velocity": 104, "channel": 0}, {"type": "note_on", "time": 1, "note": 61, "velocity": 108, "channel": 0}, {"type": "note_off", "time": 55, "note": 61, "velocity": 108, "channel": 0}, {"type": "note_on", "time": 1, "note": 65, "velocity": 105, "channel": 0}, {"type": "note_off", "time": 64, "note": 65, "velocity": 105, "channel": 0}, {"type": "note_on", "time": 4, "note": 68, "velocity": 106, "channel": 0}, {"type": "note_off", "time": 52, "note": 68, "velocity": 106, "channel": 0}, {"type": "note_on", "time": 21, "note": 61, "velocity": 104, "channel": 0}, {"type": "note_off", "time": 37, "note": 61, "velocity": 104, "channel": 0}, {"type": "note_on", "time": 4, "note": 65, "velocity": 102, "channel": 0}, {"type": "note_off", "time": 48, "note": 65, "velocity": 102, "channel": 0}, {"type": "note_on", "time": 1, "note": 68, "velocity": 102, "channel": 0}, {"type": "note_off", "time": 64, "note": 68, "velocity": 102, "channel": 0}, {"type": "note_on", "time": 4, "note": 71, "velocity": 109, "channel": 0}, {"type": "note_off", "time": 71, "note": 71, "velocity": 109, "channel": 0}, {"type": "note_on", "time": 31, "note": 72, "velocity": 119, "channel": 0}, {"type": "note_off", "time": 49, "note": 72, "velocity": 119, "channel": 0}, {"type": "note_on", "time": 2, "note": 72, "velocity": 116, "channel": 0}, {"type": "note_off", "time": 65, "note": 72, "velocity": 116, "channel": 0}, {"type": "note_on", "time": 18, "note": 73, "velocity": 115, "channel": 0}, {"type": "note_off", "time": 36, "note": 73, "velocity": 115, "channel": 0}, {"type": "note_on", "time": 9, "note": 74, "velocity": 122, "channel": 0}, {"type": "note_off", "time": 42, "note": 74, "velocity": 122, "channel": 0}, {"type": "note_on", "time": 6, "note": 73, "velocity": 120, "channel": 0}, {"type": "note_off", "time": 34, "note": 73, "velocity": 120, "channel": 0}, {"type": "note_on", "time": 12, "note": 75, "velocity": 114, "channel": 0}, {"type": "note_off", "time": 100, "note": 75, "velocity": 114, "channel": 0}, {"type": "note_on", "time": 369, "note": 63, "velocity": 112, "channel": 0}, {"type": "note_off", "time": 75, "note": 63, "velocity": 112, "channel": 0}, {"type": "note_on", "time": 63, "note": 70, "velocity": 111, "channel": 0}, {"type": "note_off", "time": 49, "note": 70, "velocity": 111, "channel": 0}, {"type": "note_on", "time": 7, "note": 72, "velocity": 115, "channel": 0}, {"type": "note_off", "time": 42, "note": 72, "velocity": 115, "channel": 0}, {"type": "note_on", "time": 13, "note": 70, "velocity": 108, "channel": 0}, {"type": "note_off", "time": 68, "note": 70, "velocity": 108, "channel": 0}, {"type": "note_on", "time": 92, "note": 67, "velocity": 101, "channel": 0}, {"type": "note_off", "time": 82, "note": 67, "velocity": 101, "channel": 0}, {"type": "note_on", "time": 18, "note": 63, "velocity": 110, "channel": 0}, {"type": "note_off", "time": 59, "note": 63, "velocity": 110, "channel": 0}, {"type": "note_on", "time": 10, "note": 62, "velocity": 104, "channel": 0}, {"type": "note_off", "time": 60, "note": 62, "velocity": 104, "channel": 0}, {"type": "note_on", "time": 7, "note": 61, "velocity": 95, "channel": 0}, {"type": "note_off", "time": 99, "note": 61, "velocity": 95, "channel": 0}, {"type": "note_on", "time": 49, "note": 60, "velocity": 97, "channel": 0}, {"type": "note_off", "time": 64, "note": 60, "velocity": 97, "channel": 0}, {"type": "note_on", "time": 102, "note": 63, "velocity": 100, "channel": 0}, {"type": "note_off", "time": 240, "note": 63, "velocity": 100, "channel": 0}, {"type": "note_on", "time": 12, "note": 65, "velocity": 97, "channel": 0}, {"type": "note_off", "time": 71, "note": 65, "velocity": 97, "channel": 0}, {"type": "note_on", "time": 119, "note": 56, "velocity": 91, "channel": 0}, {"type": "note_off", "time": 174, "note": 56, "velocity": 91, "channel": 0}, {"type": "note_on", "time": 11, "note": 58, "velocity": 88, "channel": 0}, {"type": "note_off", "time": 86, "note": 58, "velocity": 88, "channel": 0}, {"type": "note_on", "time": 105, "note": 56, "velocity": 91, "channel": 0}, {"type": "note_off", "time": 197, "note": 56, "velocity": 91, "channel": 0}, {"type": "note_on", "time": 126, "note": 56, "velocity": 101, "channel": 0}, {"type": "note_off", "time": 83, "note": 56, "velocity": 101, "channel": 0}, {"type": "note_on", "time": 311, "note": 65, "velocity": 105, "channel": 0}, {"type": "note_off", "time": 82, "note": 65, "velocity": 105, "channel": 0}, {"type": "note_on", "time": 111, "note": 65, "velocity": 105, "channel": 0}, {"type": "note_off", "time": 71, "note": 65, "velocity": 105, "channel": 0}, {"type": "note_on", "time": 110, "note": 67, "velocity": 105, "channel": 0}, {"type": "note_off", "time": 75, "note": 67, "velocity": 105, "channel": 0}, {"type": "note_on", "time": 11, "note": 65, "velocity": 100, "channel": 0}, {"type": "note_off", "time": 76, "note": 65, "velocity": 100, "channel": 0}, {"type": "note_on", "time": 39, "note": 63, "velocity": 110, "channel": 0}, {"type": "note_off", "time": 51, "note": 63, "velocity": 110, "channel": 0}, {"type": "note_on", "time": 27, "note": 59, "velocity": 99, "channel": 0}, {"type": "note_off", "time": 27, "note": 59, "velocity": 99, "channel": 0}, {"type": "note_on", "time": 1, "note": 60, "velocity": 98, "channel": 0}, {"type": "note_off", "time": 47, "note": 60, "velocity": 98, "channel": 0}, {"type": "note_on", "time": 131, "note": 56, "velocity": 86, "channel": 0}, {"type": "note_off", "time": 189, "note": 56, "velocity": 86, "channel": 0}, {"type": "note_on", "time": 115, "note": 56, "velocity": 88, "channel": 0}, {"type": "note_off", "time": 187, "note": 56, "velocity": 88, "channel": 0}, {"type": "note_on", "time": 370, "note": 68, "velocity": 107, "channel": 0}, {"type": "note_off", "time": 264, "note": 68, "velocity": 107, "channel": 0}, {"type": "note_on", "time": 11, "note": 65, "velocity": 102, "channel": 0}, {"type": "note_off", "time": 92, "note": 65, "velocity": 102, "channel": 0}, {"type": "note_on", "time": 29, "note": 63, "velocity": 111, "channel": 0}, {"type": "note_off", "time": 46, "note": 63, "velocity": 111, "channel": 0}, {"type": "note_on", "time": 38, "note": 58, "velocity": 99, "channel": 0}, {"type": "note_off", "time": 49, "note": 58, "velocity": 99, "channel": 0}, {"type": "note_on", "time": 3, "note": 60, "velocity": 99, "channel": 0}, {"type": "note_off", "time": 53, "note": 60, "velocity": 99, "channel": 0}, {"type": "note_on", "time": 0, "note": 63, "velocity": 110, "channel": 0}, {"type": "note_off", "time": 69, "note": 63, "velocity": 110, "channel": 0}, {"type": "note_on", "time": 24, "note": 58, "velocity": 99, "channel": 0}, {"type": "note_off", "time": 32, "note": 58, "velocity": 99, "channel": 0}, {"type": "note_on", "time": 12, "note": 60, "velocity": 102, "channel": 0}, {"type": "note_off", "time": 53, "note": 60, "velocity": 102, "channel": 0}, {"type": "note_on", "time": 6, "note": 63, "velocity": 111, "channel": 0}, {"type": "note_off", "time": 55, "note": 63, "velocity": 111, "channel": 0}, {"type": "note_on", "time": 30, "note": 58, "velocity": 96, "channel": 0}, {"type": "note_off", "time": 43, "note": 58, "velocity": 96, "channel": 0}, {"type": "note_on", "time": 9, "note": 60, "velocity": 98, "channel": 0}, {"type": "note_off", "time": 55, "note": 60, "velocity": 98, "channel": 0}, {"type": "note_on", "time": 2, "note": 63, "velocity": 110, "channel": 0}, {"type": "note_off", "time": 68, "note": 63, "velocity": 110, "channel": 0}, {"type": "note_on", "time": 1, "note": 59, "velocity": 97, "channel": 0}, {"type": "note_off", "time": 41, "note": 59, "velocity": 97, "channel": 0}, {"type": "note_on", "time": 3, "note": 60, "velocity": 100, "channel": 0}, {"type": "note_off", "time": 45, "note": 60, "velocity": 100, "channel": 0}, {"type": "note_on", "time": 11, "note": 56, "velocity": 98, "channel": 0}, {"type": "note_off", "time": 67, "note": 56, "velocity": 98, "channel": 0}, {"type": "note_on", "time": 12, "note": 58, "velocity": 99, "channel": 0}, {"type": "note_off", "time": 105, "note": 58, "velocity": 99, "channel": 0}, {"type": "note_on", "time": 19, "note": 53, "velocity": 93, "channel": 0}, {"type": "note_off", "time": 60, "note": 53, "velocity": 93, "channel": 0}, {"type": "note_on", "time": 3, "note": 56, "velocity": 96, "channel": 0}, {"type": "note_off", "time": 118, "note": 56, "velocity": 96, "channel": 0}, {"type": "note_on", "time": 6, "note": 58, "velocity": 91, "channel": 0}, {"type": "note_off", "time": 225, "note": 58, "velocity": 91, "channel": 0}, {"type": "note_on", "time": 154, "note": 65, "velocity": 105, "channel": 0}, {"type": "note_off", "time": 79, "note": 65, "velocity": 105, "channel": 0}, {"type": "note_on", "time": 88, "note": 68, "velocity": 112, "channel": 0}, {"type": "note_off", "time": 60, "note": 68, "velocity": 112, "channel": 0}, {"type": "note_on", "time": 54, "note": 70, "velocity": 107, "channel": 0}, {"type": "note_off", "time": 63, "note": 70, "velocity": 107, "channel": 0}, {"type": "note_on", "time": 66, "note": 70, "velocity": 112, "channel": 0}, {"type": "note_off", "time": 73, "note": 70, "velocity": 112, "channel": 0}, {"type": "note_on", "time": 5, "note": 71, "velocity": 106, "channel": 0}, {"type": "note_off", "time": 40, "note": 71, "velocity": 106, "channel": 0}, {"type": "note_on", "time": 0, "note": 70, "velocity": 104, "channel": 0}, {"type": "note_off", "time": 59, "note": 70, "velocity": 104, "channel": 0}, {"type": "note_on", "time": 13, "note": 70, "velocity": 108, "channel": 0}, {"type": "note_off", "time": 51, "note": 70, "velocity": 108, "channel": 0}, {"type": "note_on", "time": 9, "note": 68, "velocity": 101, "channel": 0}, {"type": "note_off", "time": 59, "note": 68, "velocity": 101, "channel": 0}, {"type": "note_on", "time": 11, "note": 70, "velocity": 99, "channel": 0}, {"type": "note_off", "time": 236, "note": 70, "velocity": 99, "channel": 0}, {"type": "note_on", "time": 644, "note": 65, "velocity": 97, "channel": 0}, {"type": "note_off", "time": 55, "note": 65, "velocity": 97, "channel": 0}, {"type": "note_on", "time": 10, "note": 68, "velocity": 99, "channel": 0}, {"type": "note_off", "time": 47, "note": 68, "velocity": 99, "channel": 0}, {"type": "note_on", "time": 0, "note": 70, "velocity": 113, "channel": 0}, {"type": "note_off", "time": 62, "note": 70, "velocity": 113, "channel": 0}, {"type": "note_on", "time": 7, "note": 71, "velocity": 114, "channel": 0}, {"type": "note_off", "time": 76, "note": 71, "velocity": 114, "channel": 0}, {"type": "note_on", "time": 3, "note": 72, "velocity": 104, "channel": 0}, {"type": "note_off", "time": 41, "note": 72, "velocity": 104, "channel": 0}, {"type": "note_on", "time": 1, "note": 71, "velocity": 114, "channel": 0}, {"type": "note_off", "time": 53, "note": 71, "velocity": 114, "channel": 0}, {"type": "note_on", "time": 17, "note": 70, "velocity": 107, "channel": 0}, {"type": "note_off", "time": 54, "note": 70, "velocity": 107, "channel": 0}, {"type": "note_on", "time": 10, "note": 68, "velocity": 98, "channel": 0}, {"type": "note_off", "time": 52, "note": 68, "velocity": 98, "channel": 0}, {"type": "note_on", "time": 4, "note": 65, "velocity": 100, "channel": 0}, {"type": "note_off", "time": 64, "note": 65, "velocity": 100, "channel": 0}, {"type": "note_on", "time": 12, "note": 68, "velocity": 96, "channel": 0}, {"type": "note_off", "time": 167, "note": 68, "velocity": 96, "channel": 0}, {"type": "note_on", "time": 8, "note": 65, "velocity": 101, "channel": 0}, {"type": "note_off", "time": 118, "note": 65, "velocity": 101, "channel": 0}, {"type": "note_on", "time": 17, "note": 60, "velocity": 94, "channel": 0}, {"type": "note_off", "time": 43, "note": 60, "velocity": 94, "channel": 0}, {"type": "note_on", "time": 18, "note": 68, "velocity": 95, "channel": 0}, {"type": "note_off", "time": 179, "note": 68, "velocity": 95, "channel": 0}, {"type": "note_on", "time": 18, "note": 65, "velocity": 101, "channel": 0}, {"type": "note_off", "time": 118, "note": 65, "velocity": 101, "channel": 0}, {"type": "note_on", "time": 26, "note": 60, "velocity": 95, "channel": 0}, {"type": "note_off", "time": 23, "note": 60, "velocity": 95, "channel": 0}, {"type": "note_on", "time": 26, "note": 68, "velocity": 96, "channel": 0}, {"type": "note_off", "time": 177, "note": 68, "velocity": 96, "channel": 0}, {"type": "note_on", "time": 5, "note": 65, "velocity": 106, "channel": 0}, {"type": "note_off", "time": 80, "note": 65, "velocity": 106, "channel": 0}, {"type": "note_on", "time": 2, "note": 64, "velocity": 89, "channel": 0}, {"type": "note_off", "time": 41, "note": 64, "velocity": 89, "channel": 0}, {"type": "note_on", "time": 263, "note": 65, "velocity": 9, "channel": 0}, {"type": "note_off", "time": 69, "note": 65, "velocity": 9, "channel": 0}, {"type": "note_on", "time": 3, "note": 68, "velocity": 32, "channel": 0}, {"type": "note_off", "time": 42, "note": 68, "velocity": 32, "channel": 0}, {"type": "note_on", "time": 4, "note": 70, "velocity": 109, "channel": 0}, {"type": "note_off", "time": 58, "note": 70, "velocity": 109, "channel": 0}, {"type": "note_on", "time": 12, "note": 71, "velocity": 116, "channel": 0}, {"type": "note_off", "time": 72, "note": 71, "velocity": 116, "channel": 0}, {"type": "note_on", "time": 3, "note": 72, "velocity": 101, "channel": 0}, {"type": "note_off", "time": 38, "note": 72, "velocity": 101, "channel": 0}, {"type": "note_on", "time": 1, "note": 71, "velocity": 116, "channel": 0}, {"type": "note_off", "time": 63, "note": 71, "velocity": 116, "channel": 0}, {"type": "note_on", "time": 3, "note": 70, "velocity": 108, "channel": 0}, {"type": "note_off", "time": 61, "note": 70, "velocity": 108, "channel": 0}, {"type": "note_on", "time": 1, "note": 68, "velocity": 101, "channel": 0}, {"type": "note_off", "time": 64, "note": 68, "velocity": 101, "channel": 0}, {"type": "note_on", "time": 7, "note": 65, "velocity": 98, "channel": 0}, {"type": "note_off", "time": 64, "note": 65, "velocity": 98, "channel": 0}, {"type": "note_on", "time": 18, "note": 68, "velocity": 91, "channel": 0}, {"type": "note_off", "time": 174, "note": 68, "velocity": 91, "channel": 0}, {"type": "note_on", "time": 3, "note": 65, "velocity": 105, "channel": 0}, {"type": "note_off", "time": 116, "note": 65, "velocity": 105, "channel": 0}, {"type": "note_on", "time": 27, "note": 61, "velocity": 88, "channel": 0}, {"type": "note_off", "time": 31, "note": 61, "velocity": 88, "channel": 0}, {"type": "note_on", "time": 28, "note": 68, "velocity": 96, "channel": 0}, {"type": "note_off", "time": 150, "note": 68, "velocity": 96, "channel": 0}, {"type": "note_on", "time": 335, "note": 68, "velocity": 113, "channel": 0}, {"type": "note_off", "time": 88, "note": 68, "velocity": 113, "channel": 0}, {"type": "note_on", "time": 59, "note": 68, "velocity": 114, "channel": 0}, {"type": "note_off", "time": 76, "note": 68, "velocity": 114, "channel": 0}, {"type": "note_on", "time": 4, "note": 65, "velocity": 107, "channel": 0}, {"type": "note_off", "time": 59, "note": 65, "velocity": 107, "channel": 0}, {"type": "note_on", "time": 60, "note": 67, "velocity": 114, "channel": 0}, {"type": "note_off", "time": 30, "note": 67, "velocity": 114, "channel": 0}, {"type": "note_on", "time": 4, "note": 68, "velocity": 112, "channel": 0}, {"type": "note_off", "time": 47, "note": 68, "velocity": 112, "channel": 0}, {"type": "note_on", "time": 45, "note": 69, "velocity": 112, "channel": 0}, {"type": "note_off", "time": 26, "note": 69, "velocity": 112, "channel": 0}, {"type": "note_on", "time": 5, "note": 70, "velocity": 109, "channel": 0}, {"type": "note_off", "time": 44, "note": 70, "velocity": 109, "channel": 0}, {"type": "note_on", "time": 18, "note": 70, "velocity": 116, "channel": 0}, {"type": "note_off", "time": 37, "note": 70, "velocity": 116, "channel": 0}, {"type": "note_on", "time": 0, "note": 71, "velocity": 121, "channel": 0}, {"type": "note_off", "time": 49, "note": 71, "velocity": 121, "channel": 0}, {"type": "note_on", "time": 31, "note": 71, "velocity": 123, "channel": 0}, {"type": "note_off", "time": 37, "note": 71, "velocity": 123, "channel": 0}, {"type": "note_on", "time": 4, "note": 72, "velocity": 116, "channel": 0}, {"type": "note_off", "time": 54, "note": 72, "velocity": 116, "channel": 0}, {"type": "note_on", "time": 32, "note": 72, "velocity": 114, "channel": 0}, {"type": "note_off", "time": 35, "note": 72, "velocity": 114, "channel": 0}, {"type": "note_on", "time": 3, "note": 73, "velocity": 121, "channel": 0}, {"type": "note_off", "time": 59, "note": 73, "velocity": 121, "channel": 0}, {"type": "note_on", "time": 21, "note": 73, "velocity": 118, "channel": 0}, {"type": "note_off", "time": 39, "note": 73, "velocity": 118, "channel": 0}, {"type": "note_on", "time": 2, "note": 74, "velocity": 121, "channel": 0}, {"type": "note_off", "time": 55, "note": 74, "velocity": 121, "channel": 0}, {"type": "note_on", "time": 35, "note": 74, "velocity": 119, "channel": 0}, {"type": "note_off", "time": 31, "note": 74, "velocity": 119, "channel": 0}, {"type": "note_on", "time": 2, "note": 75, "velocity": 122, "channel": 0}, {"type": "note_off", "time": 55, "note": 75, "velocity": 122, "channel": 0}, {"type": "note_on", "time": 28, "note": 68, "velocity": 100, "channel": 0}, {"type": "note_off", "time": 69, "note": 68, "velocity": 100, "channel": 0}, {"type": "note_on", "time": 64, "note": 70, "velocity": 112, "channel": 0}, {"type": "note_off", "time": 64, "note": 70, "velocity": 112, "channel": 0}, {"type": "note_on", "time": 8, "note": 72, "velocity": 111, "channel": 0}, {"type": "note_off", "time": 68, "note": 72, "velocity": 111, "channel": 0}, {"type": "note_on", "time": 9, "note": 70, "velocity": 111, "channel": 0}, {"type": "note_off", "time": 47, "note": 70, "velocity": 111, "channel": 0}, {"type": "note_on", "time": 42, "note": 66, "velocity": 106, "channel": 0}, {"type": "note_off", "time": 52, "note": 66, "velocity": 106, "channel": 0}, {"type": "note_on", "time": 20, "note": 63, "velocity": 112, "channel": 0}, {"type": "note_off", "time": 49, "note": 63, "velocity": 112, "channel": 0}, {"type": "note_on", "time": 2, "note": 62, "velocity": 103, "channel": 0}, {"type": "note_off", "time": 38, "note": 62, "velocity": 103, "channel": 0}, {"type": "note_on", "time": 8, "note": 61, "velocity": 96, "channel": 0}, {"type": "note_off", "time": 55, "note": 61, "velocity": 96, "channel": 0}, {"type": "note_on", "time": 9, "note": 60, "velocity": 98, "channel": 0}, {"type": "note_off", "time": 57, "note": 60, "velocity": 98, "channel": 0}, {"type": "note_on", "time": 29, "note": 63, "velocity": 102, "channel": 0}, {"type": "note_off", "time": 48, "note": 63, "velocity": 102, "channel": 0}, {"type": "note_on", "time": 0, "note": 66, "velocity": 104, "channel": 0}, {"type": "note_off", "time": 65, "note": 66, "velocity": 104, "channel": 0}, {"type": "note_on", "time": 9, "note": 71, "velocity": 111, "channel": 0}, {"type": "note_off", "time": 63, "note": 71, "velocity": 111, "channel": 0}, {"type": "note_on", "time": 4, "note": 70, "velocity": 91, "channel": 0}, {"type": "note_off", "time": 36, "note": 70, "velocity": 91, "channel": 0}, {"type": "note_on", "time": 9, "note": 69, "velocity": 102, "channel": 0}, {"type": "note_off", "time": 57, "note": 69, "velocity": 102, "channel": 0}, {"type": "note_on", "time": 8, "note": 68, "velocity": 104, "channel": 0}, {"type": "note_off", "time": 74, "note": 68, "velocity": 104, "channel": 0}, {"type": "note_on", "time": 8, "note": 65, "velocity": 100, "channel": 0}, {"type": "note_off", "time": 45, "note": 65, "velocity": 100, "channel": 0}, {"type": "note_on", "time": 2, "note": 61, "velocity": 97, "channel": 0}, {"type": "note_off", "time": 65, "note": 61, "velocity": 97, "channel": 0}, {"type": "note_on", "time": 8, "note": 58, "velocity": 94, "channel": 0}, {"type": "note_off", "time": 53, "note": 58, "velocity": 94, "channel": 0}, {"type": "note_on", "time": 18, "note": 53, "velocity": 85, "channel": 0}, {"type": "note_off", "time": 34, "note": 53, "velocity": 85, "channel": 0}, {"type": "note_on", "time": 9, "note": 56, "velocity": 85, "channel": 0}, {"type": "note_off", "time": 186, "note": 56, "velocity": 85, "channel": 0}, {"type": "note_on", "time": 658, "note": 68, "velocity": 116, "channel": 0}, {"type": "note_off", "time": 79, "note": 68, "velocity": 116, "channel": 0}, {"type": "note_on", "time": 65, "note": 56, "velocity": 91, "channel": 0}, {"type": "note_off", "time": 189, "note": 56, "velocity": 91, "channel": 0}, {"type": "note_on", "time": 58, "note": 58, "velocity": 99, "channel": 0}, {"type": "note_off", "time": 38, "note": 58, "velocity": 99, "channel": 0}, {"type": "note_on", "time": 2, "note": 60, "velocity": 101, "channel": 0}, {"type": "note_off", "time": 75, "note": 60, "velocity": 101, "channel": 0}, {"type": "note_on", "time": 6, "note": 63, "velocity": 109, "channel": 0}, {"type": "note_off", "time": 251, "note": 63, "velocity": 109, "channel": 0}, {"type": "note_on", "time": 301, "note": 60, "velocity": 111, "channel": 0}, {"type": "note_off", "time": 81, "note": 60, "velocity": 111, "channel": 0}, {"type": "note_on", "time": 10, "note": 61, "velocity": 111, "channel": 0}, {"type": "note_off", "time": 107, "note": 61, "velocity": 111, "channel": 0}, {"type": "note_on", "time": 1, "note": 60, "velocity": 108, "channel": 0}, {"type": "note_off", "time": 60, "note": 60, "velocity": 108, "channel": 0}, {"type": "note_on", "time": 20, "note": 59, "velocity": 100, "channel": 0}, {"type": "note_off", "time": 98, "note": 59, "velocity": 100, "channel": 0}, {"type": "note_on", "time": 10, "note": 60, "velocity": 112, "channel": 0}, {"type": "note_off", "time": 58, "note": 60, "velocity": 112, "channel": 0}, {"type": "note_on", "time": 25, "note": 64, "velocity": 115, "channel": 0}, {"type": "note_off", "time": 88, "note": 64, "velocity": 115, "channel": 0}, {"type": "note_on", "time": 27, "note": 60, "velocity": 98, "channel": 0}, {"type": "note_off", "time": 47, "note": 60, "velocity": 98, "channel": 0}, {"type": "note_on", "time": 16, "note": 72, "velocity": 116, "channel": 0}, {"type": "note_off", "time": 101, "note": 72, "velocity": 116, "channel": 0}, {"type": "note_on", "time": 25, "note": 70, "velocity": 100, "channel": 0}, {"type": "note_off", "time": 52, "note": 70, "velocity": 100, "channel": 0}, {"type": "note_on", "time": 6, "note": 68, "velocity": 112, "channel": 0}, {"type": "note_off", "time": 90, "note": 68, "velocity": 112, "channel": 0}, {"type": "note_on", "time": 34, "note": 60, "velocity": 106, "channel": 0}, {"type": "note_off", "time": 66, "note": 60, "velocity": 106, "channel": 0}, {"type": "note_on", "time": 12, "note": 65, "velocity": 103, "channel": 0}, {"type": "note_off", "time": 51, "note": 65, "velocity": 103, "channel": 0}, {"type": "note_on", "time": 14, "note": 67, "velocity": 102, "channel": 0}, {"type": "note_off", "time": 42, "note": 67, "velocity": 102, "channel": 0}, {"type": "note_on", "time": 4, "note": 68, "velocity": 113, "channel": 0}, {"type": "note_off", "time": 82, "note": 68, "velocity": 113, "channel": 0}, {"type": "note_on", "time": 320, "note": 68, "velocity": 106, "channel": 0}, {"type": "note_off", "time": 143, "note": 68, "velocity": 106, "channel": 0}, {"type": "note_on", "time": 4, "note": 67, "velocity": 111, "channel": 0}, {"type": "note_off", "time": 38, "note": 67, "velocity": 111, "channel": 0}, {"type": "note_on", "time": 5, "note": 66, "velocity": 105, "channel": 0}, {"type": "note_off", "time": 23, "note": 66, "velocity": 105, "channel": 0}, {"type": "note_on", "time": 4, "note": 65, "velocity": 106, "channel": 0}, {"type": "note_off", "time": 27, "note": 65, "velocity": 106, "channel": 0}, {"type": "note_on", "time": 10, "note": 64, "velocity": 117, "channel": 0}, {"type": "note_off", "time": 111, "note": 64, "velocity": 117, "channel": 0}, {"type": "note_on", "time": 30, "note": 60, "velocity": 109, "channel": 0}, {"type": "note_off", "time": 43, "note": 60, "velocity": 109, "channel": 0}, {"type": "note_on", "time": 27, "note": 56, "velocity": 105, "channel": 0}, {"type": "note_off", "time": 74, "note": 56, "velocity": 105, "channel": 0}, {"type": "note_on", "time": 24, "note": 52, "velocity": 112, "channel": 0}, {"type": "note_off", "time": 51, "note": 52, "velocity": 112, "channel": 0}, {"type": "note_on", "time": 9, "note": 48, "velocity": 110, "channel": 0}, {"type": "note_off", "time": 59, "note": 48, "velocity": 110, "channel": 0}, {"type": "note_on", "time": 7, "note": 46, "velocity": 109, "channel": 0}, {"type": "note_off", "time": 66, "note": 46, "velocity": 109, "channel": 0}, {"type": "note_on", "time": 8, "note": 44, "velocity": 93, "channel": 0}, {"type": "note_off", "time": 178, "note": 44, "velocity": 93, "channel": 0}, {"type": "note_on", "time": 799, "note": 68, "velocity": 109, "channel": 0}, {"type": "note_off", "time": 77, "note": 68, "velocity": 109, "channel": 0}, {"type": "note_on", "time": 69, "note": 65, "velocity": 105, "channel": 0}, {"type": "note_off", "time": 77, "note": 65, "velocity": 105, "channel": 0}, {"type": "note_on", "time": 63, "note": 64, "velocity": 112, "channel": 0}, {"type": "note_off", "time": 141, "note": 64, "velocity": 112, "channel": 0}, {"type": "note_on", "time": 3, "note": 65, "velocity": 107, "channel": 0}, {"type": "note_off", "time": 88, "note": 65, "velocity": 107, "channel": 0}, {"type": "note_on", "time": 115, "note": 75, "velocity": 108, "channel": 0}, {"type": "note_off", "time": 85, "note": 75, "velocity": 108, "channel": 0}, {"type": "note_on", "time": 37, "note": 73, "velocity": 104, "channel": 0}, {"type": "note_off", "time": 270, "note": 73, "velocity": 104, "channel": 0}, {"type": "note_on", "time": 477, "note": 61, "velocity": 103, "channel": 0}, {"type": "note_off", "time": 248, "note": 61, "velocity": 103, "channel": 0}, {"type": "note_on", "time": 38, "note": 60, "velocity": 105, "channel": 0}, {"type": "note_off", "time": 103, "note": 60, "velocity": 105, "channel": 0}, {"type": "note_on", "time": 19, "note": 61, "velocity": 110, "channel": 0}, {"type": "note_off", "time": 62, "note": 61, "velocity": 110, "channel": 0}, {"type": "note_on", "time": 21, "note": 65, "velocity": 105, "channel": 0}, {"type": "note_off", "time": 73, "note": 65, "velocity": 105, "channel": 0}, {"type": "note_on", "time": 48, "note": 67, "velocity": 110, "channel": 0}, {"type": "note_off", "time": 49, "note": 67, "velocity": 110, "channel": 0}, {"type": "note_on", "time": 28, "note": 70, "velocity": 97, "channel": 0}, {"type": "note_off", "time": 29, "note": 70, "velocity": 97, "channel": 0}, {"type": "note_on", "time": 8, "note": 72, "velocity": 113, "channel": 0}, {"type": "note_off", "time": 97, "note": 72, "velocity": 113, "channel": 0}, {"type": "note_on", "time": 41, "note": 70, "velocity": 96, "channel": 0}, {"type": "note_off", "time": 249, "note": 70, "velocity": 96, "channel": 0}, {"type": "note_on", "time": 434, "note": 70, "velocity": 106, "channel": 0}, {"type": "note_off", "time": 45, "note": 70, "velocity": 106, "channel": 0}, {"type": "note_on", "time": 4, "note": 71, "velocity": 108, "channel": 0}, {"type": "note_off", "time": 103, "note": 71, "velocity": 108, "channel": 0}, {"type": "note_on", "time": 5, "note": 70, "velocity": 109, "channel": 0}, {"type": "note_off", "time": 58, "note": 70, "velocity": 109, "channel": 0}, {"type": "note_on", "time": 6, "note": 68, "velocity": 98, "channel": 0}, {"type": "note_off", "time": 55, "note": 68, "velocity": 98, "channel": 0}, {"type": "note_on", "time": 46, "note": 70, "velocity": 110, "channel": 0}, {"type": "note_off", "time": 105, "note": 70, "velocity": 110, "channel": 0}, {"type": "note_on", "time": 20, "note": 68, "velocity": 98, "channel": 0}, {"type": "note_off", "time": 118, "note": 68, "velocity": 98, "channel": 0}, {"type": "note_on", "time": 52, "note": 60, "velocity": 112, "channel": 0}, {"type": "note_off", "time": 36, "note": 60, "velocity": 112, "channel": 0}, {"type": "note_on", "time": 2, "note": 72, "velocity": 108, "channel": 0}, {"type": "note_off", "time": 56, "note": 72, "velocity": 108, "channel": 0}, {"type": "note_on", "time": 70, "note": 77, "velocity": 112, "channel": 0}, {"type": "note_off", "time": 91, "note": 77, "velocity": 112, "channel": 0}, {"type": "note_on", "time": 94, "note": 72, "velocity": 116, "channel": 0}, {"type": "note_off", "time": 104, "note": 72, "velocity": 116, "channel": 0}, {"type": "note_on", "time": 5, "note": 70, "velocity": 100, "channel": 0}, {"type": "note_off", "time": 83, "note": 70, "velocity": 100, "channel": 0}, {"type": "note_on", "time": 15, "note": 70, "velocity": 103, "channel": 0}, {"type": "note_off", "time": 53, "note": 70, "velocity": 103, "channel": 0}, {"type": "note_on", "time": 2, "note": 67, "velocity": 106, "channel": 0}, {"type": "note_off", "time": 24, "note": 67, "velocity": 106, "channel": 0}, {"type": "note_on", "time": 2, "note": 68, "velocity": 110, "channel": 0}, {"type": "note_off", "time": 82, "note": 68, "velocity": 110, "channel": 0}, {"type": "note_on", "time": 14, "note": 65, "velocity": 93, "channel": 0}, {"type": "note_off", "time": 74, "note": 65, "velocity": 93, "channel": 0}, {"type": "note_on", "time": 14, "note": 68, "velocity": 97, "channel": 0}, {"type": "note_off", "time": 184, "note": 68, "velocity": 97, "channel": 0}, {"type": "note_on", "time": 12, "note": 65, "velocity": 104, "channel": 0}, {"type": "note_off", "time": 100, "note": 65, "velocity": 104, "channel": 0}, {"type": "note_on", "time": 27, "note": 60, "velocity": 96, "channel": 0}, {"type": "note_off", "time": 49, "note": 60, "velocity": 96, "channel": 0}, {"type": "note_on", "time": 3, "note": 64, "velocity": 108, "channel": 0}, {"type": "note_off", "time": 187, "note": 64, "velocity": 108, "channel": 0}, {"type": "note_on", "time": 1, "note": 68, "velocity": 113, "channel": 0}, {"type": "note_off", "time": 86, "note": 68, "velocity": 113, "channel": 0}, {"type": "note_on", "time": 368, "note": 64, "velocity": 118, "channel": 0}, {"type": "note_off", "time": 57, "note": 64, "velocity": 118, "channel": 0}, {"type": "note_on", "time": 10, "note": 65, "velocity": 110, "channel": 0}, {"type": "note_off", "time": 49, "note": 65, "velocity": 110, "channel": 0}, {"type": "note_on", "time": 58, "note": 67, "velocity": 112, "channel": 0}, {"type": "note_off", "time": 76, "note": 67, "velocity": 112, "channel": 0}, {"type": "note_on", "time": 37, "note": 68, "velocity": 111, "channel": 0}, {"type": "note_off", "time": 65, "note": 68, "velocity": 111, "channel": 0}, {"type": "note_on", "time": 14, "note": 64, "velocity": 113, "channel": 0}, {"type": "note_off", "time": 52, "note": 64, "velocity": 113, "channel": 0}, {"type": "note_on", "time": 9, "note": 67, "velocity": 109, "channel": 0}, {"type": "note_off", "time": 55, "note": 67, "velocity": 109, "channel": 0}, {"type": "note_on", "time": 2, "note": 65, "velocity": 105, "channel": 0}, {"type": "note_off", "time": 43, "note": 65, "velocity": 105, "channel": 0}, {"type": "note_on", "time": 3, "note": 60, "velocity": 98, "channel": 0}, {"type": "note_off", "time": 38, "note": 60, "velocity": 98, "channel": 0}, {"type": "note_on", "time": 10, "note": 63, "velocity": 113, "channel": 0}, {"type": "note_off", "time": 60, "note": 63, "velocity": 113, "channel": 0}, {"type": "note_on", "time": 3, "note": 60, "velocity": 102, "channel": 0}, {"type": "note_off", "time": 41, "note": 60, "velocity": 102, "channel": 0}, {"type": "note_on", "time": 12, "note": 62, "velocity": 87, "channel": 0}, {"type": "note_off", "time": 156, "note": 62, "velocity": 87, "channel": 0}, {"type": "note_on", "time": 694, "note": 65, "velocity": 112, "channel": 0}, {"type": "note_off", "time": 77, "note": 65, "velocity": 112, "channel": 0}, {"type": "note_on", "time": 18, "note": 67, "velocity": 111, "channel": 0}, {"type": "note_off", "time": 70, "note": 67, "velocity": 111, "channel": 0}, {"type": "note_on", "time": 29, "note": 67, "velocity": 111, "channel": 0}, {"type": "note_off", "time": 67, "note": 67, "velocity": 111, "channel": 0}, {"type": "note_on", "time": 4, "note": 68, "velocity": 112, "channel": 0}, {"type": "note_off", "time": 75, "note": 68, "velocity": 112, "channel": 0}, {"type": "note_on", "time": 3, "note": 65, "velocity": 109, "channel": 0}, {"type": "note_off", "time": 54, "note": 65, "velocity": 109, "channel": 0}, {"type": "note_on", "time": 19, "note": 61, "velocity": 107, "channel": 0}, {"type": "note_off", "time": 51, "note": 61, "velocity": 107, "channel": 0}, {"type": "note_on", "time": 7, "note": 58, "velocity": 88, "channel": 0}, {"type": "note_off", "time": 251, "note": 58, "velocity": 88, "channel": 0}, {"type": "note_on", "time": 219, "note": 71, "velocity": 100, "channel": 0}, {"type": "note_off", "time": 60, "note": 71, "velocity": 100, "channel": 0}, {"type": "note_on", "time": 10, "note": 72, "velocity": 114, "channel": 0}, {"type": "note_off", "time": 109, "note": 72, "velocity": 114, "channel": 0}, {"type": "note_on", "time": 1, "note": 68, "velocity": 110, "channel": 0}, {"type": "note_off", "time": 48, "note": 68, "velocity": 110, "channel": 0}, {"type": "note_on", "time": 8, "note": 65, "velocity": 110, "channel": 0}, {"type": "note_off", "time": 62, "note": 65, "velocity": 110, "channel": 0}, {"type": "note_on", "time": 7, "note": 61, "velocity": 97, "channel": 0}, {"type": "note_off", "time": 185, "note": 61, "velocity": 97, "channel": 0}, {"type": "note_on", "time": 196, "note": 75, "velocity": 110, "channel": 0}, {"type": "note_off", "time": 63, "note": 75, "velocity": 110, "channel": 0}, {"type": "note_on", "time": 40, "note": 74, "velocity": 113, "channel": 0}, {"type": "note_off", "time": 70, "note": 74, "velocity": 113, "channel": 0}, {"type": "note_on", "time": 12, "note": 73, "velocity": 119, "channel": 0}, {"type": "note_off", "time": 74, "note": 73, "velocity": 119, "channel": 0}, {"type": "note_on", "time": 30, "note": 72, "velocity": 115, "channel": 0}, {"type": "note_off", "time": 71, "note": 72, "velocity": 115, "channel": 0}, {"type": "note_on", "time": 12, "note": 75, "velocity": 108, "channel": 0}, {"type": "note_off", "time": 200, "note": 75, "velocity": 108, "channel": 0}, {"type": "note_on", "time": 179, "note": 70, "velocity": 101, "channel": 0}, {"type": "note_off", "time": 68, "note": 70, "velocity": 101, "channel": 0}, {"type": "note_on", "time": 4, "note": 71, "velocity": 109, "channel": 0}, {"type": "note_off", "time": 98, "note": 71, "velocity": 109, "channel": 0}, {"type": "note_on", "time": 7, "note": 75, "velocity": 112, "channel": 0}, {"type": "note_off", "time": 100, "note": 75, "velocity": 112, "channel": 0}, {"type": "note_on", "time": 109, "note": 70, "velocity": 111, "channel": 0}, {"type": "note_off", "time": 242, "note": 70, "velocity": 111, "channel": 0}, {"type": "note_on", "time": 82, "note": 70, "velocity": 110, "channel": 0}, {"type": "note_off", "time": 71, "note": 70, "velocity": 110, "channel": 0}, {"type": "note_on", "time": 11, "note": 70, "velocity": 111, "channel": 0}, {"type": "note_off", "time": 87, "note": 70, "velocity": 111, "channel": 0}, {"type": "note_on", "time": 9, "note": 68, "velocity": 110, "channel": 0}, {"type": "note_off", "time": 65, "note": 68, "velocity": 110, "channel": 0}, {"type": "note_on", "time": 10, "note": 63, "velocity": 118, "channel": 0}, {"type": "note_off", "time": 98, "note": 63, "velocity": 118, "channel": 0}, {"type": "note_on", "time": 18, "note": 60, "velocity": 102, "channel": 0}, {"type": "note_off", "time": 57, "note": 60, "velocity": 102, "channel": 0}, {"type": "note_on", "time": 21, "note": 58, "velocity": 85, "channel": 0}, {"type": "note_off", "time": 178, "note": 58, "velocity": 85, "channel": 0}, {"type": "note_on", "time": 316, "note": 56, "velocity": 104, "channel": 0}, {"type": "note_off", "time": 60, "note": 56, "velocity": 104, "channel": 0}, {"type": "note_on", "time": 12, "note": 55, "velocity": 100, "channel": 0}, {"type": "note_off", "time": 46, "note": 55, "velocity": 100, "channel": 0}, {"type": "note_on", "time": 4, "note": 56, "velocity": 104, "channel": 0}, {"type": "note_off", "time": 35, "note": 56, "velocity": 104, "channel": 0}, {"type": "note_on", "time": 3, "note": 60, "velocity": 103, "channel": 0}, {"type": "note_off", "time": 27, "note": 60, "velocity": 103, "channel": 0}, {"type": "note_on", "time": 12, "note": 63, "velocity": 111, "channel": 0}, {"type": "note_off", "time": 32, "note": 63, "velocity": 111, "channel": 0}, {"type": "note_on", "time": 2, "note": 67, "velocity": 96, "channel": 0}, {"type": "note_off", "time": 22, "note": 67, "velocity": 96, "channel": 0}, {"type": "note_on", "time": 7, "note": 70, "velocity": 99, "channel": 0}, {"type": "note_off", "time": 24, "note": 70, "velocity": 99, "channel": 0}, {"type": "note_on", "time": 11, "note": 72, "velocity": 112, "channel": 0}, {"type": "note_off", "time": 240, "note": 72, "velocity": 112, "channel": 0}, {"type": "note_on", "time": 29, "note": 70, "velocity": 102, "channel": 0}, {"type": "note_off", "time": 54, "note": 70, "velocity": 102, "channel": 0}, {"type": "note_on", "time": 24, "note": 68, "velocity": 108, "channel": 0}, {"type": "note_off", "time": 65, "note": 68, "velocity": 108, "channel": 0}, {"type": "note_on", "time": 52, "note": 63, "velocity": 115, "channel": 0}, {"type": "note_off", "time": 64, "note": 63, "velocity": 115, "channel": 0}, {"type": "note_on", "time": 8, "note": 62, "velocity": 110, "channel": 0}, {"type": "note_off", "time": 55, "note": 62, "velocity": 110, "channel": 0}, {"type": "note_on", "time": 4, "note": 61, "velocity": 107, "channel": 0}, {"type": "note_off", "time": 54, "note": 61, "velocity": 107, "channel": 0}, {"type": "note_on", "time": 8, "note": 60, "velocity": 89, "channel": 0}, {"type": "note_off", "time": 183, "note": 60, "velocity": 89, "channel": 0}, {"type": "note_on", "time": 768, "note": 63, "velocity": 111, "channel": 0}, {"type": "note_off", "time": 100, "note": 63, "velocity": 111, "channel": 0}, {"type": "note_on", "time": 29, "note": 65, "velocity": 103, "channel": 0}, {"type": "note_off", "time": 40, "note": 65, "velocity": 103, "channel": 0}, {"type": "note_on", "time": 10, "note": 68, "velocity": 107, "channel": 0}, {"type": "note_off", "time": 79, "note": 68, "velocity": 107, "channel": 0}, {"type": "note_on", "time": 21, "note": 70, "velocity": 115, "channel": 0}, {"type": "note_off", "time": 31, "note": 70, "velocity": 115, "channel": 0}, {"type": "note_on", "time": 17, "note": 72, "velocity": 113, "channel": 0}, {"type": "note_off", "time": 55, "note": 72, "velocity": 113, "channel": 0}, {"type": "note_on", "time": 3, "note": 75, "velocity": 99, "channel": 0}, {"type": "note_off", "time": 79, "note": 75, "velocity": 99, "channel": 0}, {"type": "note_on", "time": 197, "note": 63, "velocity": 106, "channel": 0}, {"type": "note_off", "time": 48, "note": 63, "velocity": 106, "channel": 0}, {"type": "note_on", "time": 12, "note": 65, "velocity": 101, "channel": 0}, {"type": "note_off", "time": 37, "note": 65, "velocity": 101, "channel": 0}, {"type": "note_on", "time": 17, "note": 68, "velocity": 116, "channel": 0}, {"type": "note_off", "time": 58, "note": 68, "velocity": 116, "channel": 0}, {"type": "note_on", "time": 16, "note": 70, "velocity": 111, "channel": 0}, {"type": "note_off", "time": 46, "note": 70, "velocity": 111, "channel": 0}, {"type": "note_on", "time": 16, "note": 72, "velocity": 118, "channel": 0}, {"type": "note_off", "time": 41, "note": 72, "velocity": 118, "channel": 0}, {"type": "note_on", "time": 14, "note": 75, "velocity": 118, "channel": 0}, {"type": "note_off", "time": 68, "note": 75, "velocity": 118, "channel": 0}, {"type": "note_on", "time": 184, "note": 70, "velocity": 106, "channel": 0}, {"type": "note_off", "time": 71, "note": 70, "velocity": 106, "channel": 0}, {"type": "note_on", "time": 0, "note": 72, "velocity": 118, "channel": 0}, {"type": "note_off", "time": 53, "note": 72, "velocity": 118, "channel": 0}, {"type": "note_on", "time": 0, "note": 75, "velocity": 113, "channel": 0}, {"type": "note_off", "time": 43, "note": 75, "velocity": 113, "channel": 0}, {"type": "note_on", "time": 42, "note": 69, "velocity": 110, "channel": 0}, {"type": "note_off", "time": 65, "note": 69, "velocity": 110, "channel": 0}, {"type": "note_on", "time": 2, "note": 70, "velocity": 93, "channel": 0}, {"type": "note_off", "time": 26, "note": 70, "velocity": 93, "channel": 0}, {"type": "note_on", "time": 10, "note": 73, "velocity": 122, "channel": 0}, {"type": "note_off", "time": 64, "note": 73, "velocity": 122, "channel": 0}, {"type": "note_on", "time": 210, "note": 67, "velocity": 116, "channel": 0}, {"type": "note_off", "time": 58, "note": 67, "velocity": 116, "channel": 0}, {"type": "note_on", "time": 2, "note": 68, "velocity": 100, "channel": 0}, {"type": "note_off", "time": 46, "note": 68, "velocity": 100, "channel": 0}, {"type": "note_on", "time": 5, "note": 72, "velocity": 116, "channel": 0}, {"type": "note_off", "time": 59, "note": 72, "velocity": 116, "channel": 0}, {"type": "note_on", "time": 0, "note": 65, "velocity": 102, "channel": 0}, {"type": "note_off", "time": 63, "note": 65, "velocity": 102, "channel": 0}, {"type": "note_on", "time": 4, "note": 66, "velocity": 104, "channel": 0}, {"type": "note_off", "time": 55, "note": 66, "velocity": 104, "channel": 0}, {"type": "note_on", "time": 9, "note": 70, "velocity": 106, "channel": 0}, {"type": "note_off", "time": 76, "note": 70, "velocity": 106, "channel": 0}, {"type": "note_on", "time": 185, "note": 75, "velocity": 113, "channel": 0}, {"type": "note_off", "time": 42, "note": 75, "velocity": 113, "channel": 0}, {"type": "note_on", "time": 12, "note": 73, "velocity": 111, "channel": 0}, {"type": "note_off", "time": 59, "note": 73, "velocity": 111, "channel": 0}, {"type": "note_on", "time": 7, "note": 68, "velocity": 118, "channel": 0}, {"type": "note_off", "time": 64, "note": 68, "velocity": 118, "channel": 0}, {"type": "note_on", "time": 8, "note": 64, "velocity": 119, "channel": 0}, {"type": "note_off", "time": 55, "note": 64, "velocity": 119, "channel": 0}, {"type": "note_on", "time": 14, "note": 63, "velocity": 115, "channel": 0}, {"type": "note_off", "time": 45, "note": 63, "velocity": 115, "channel": 0}, {"type": "note_on", "time": 8, "note": 61, "velocity": 108, "channel": 0}, {"type": "note_off", "time": 57, "note": 61, "velocity": 108, "channel": 0}, {"type": "note_on", "time": 15, "note": 56, "velocity": 107, "channel": 0}, {"type": "note_off", "time": 41, "note": 56, "velocity": 107, "channel": 0}, {"type": "note_on", "time": 10, "note": 52, "velocity": 105, "channel": 0}, {"type": "note_off", "time": 64, "note": 52, "velocity": 105, "channel": 0}, {"type": "note_on", "time": 10, "note": 51, "velocity": 9, "channel": 0}, {"type": "note_off", "time": 45, "note": 51, "velocity": 9, "channel": 0}, {"type": "note_on", "time": 13, "note": 49, "velocity": 110, "channel": 0}, {"type": "note_off", "time": 74, "note": 49, "velocity": 110, "channel": 0}, {"type": "note_on", "time": 7, "note": 48, "velocity": 111, "channel": 0}, {"type": "note_off", "time": 562, "note": 48, "velocity": 111, "channel": 0}, {"type": "note_on", "time": 6, "note": 50, "velocity": 110, "channel": 0}, {"type": "note_off", "time": 61, "note": 50, "velocity": 110, "channel": 0}, {"type": "note_on", "time": 3, "note": 52, "velocity": 106, "channel": 0}, {"type": "note_off", "time": 70, "note": 52, "velocity": 106, "channel": 0}, {"type": "note_on", "time": 13, "note": 55, "velocity": 98, "channel": 0}, {"type": "note_off", "time": 213, "note": 55, "velocity": 98, "channel": 0}, {"type": "note_on", "time": 491, "note": 53, "velocity": 103, "channel": 0}, {"type": "note_off", "time": 41, "note": 53, "velocity": 103, "channel": 0}, {"type": "note_on", "time": 14, "note": 56, "velocity": 118, "channel": 0}, {"type": "note_off", "time": 92, "note": 56, "velocity": 118, "channel": 0}, {"type": "note_on", "time": 84, "note": 58, "velocity": 111, "channel": 0}, {"type": "note_off", "time": 116, "note": 58, "velocity": 111, "channel": 0}, {"type": "note_on", "time": 75, "note": 59, "velocity": 110, "channel": 0}, {"type": "note_off", "time": 164, "note": 59, "velocity": 110, "channel": 0}, {"type": "note_on", "time": 9, "note": 60, "velocity": 87, "channel": 0}, {"type": "note_off", "time": 104, "note": 60, "velocity": 87, "channel": 0}, {"type": "note_on", "time": 41, "note": 67, "velocity": 107, "channel": 0}, {"type": "note_off", "time": 88, "note": 67, "velocity": 107, "channel": 0}, {"type": "note_on", "time": 121, "note": 65, "velocity": 90, "channel": 0}, {"type": "note_off", "time": 211, "note": 65, "velocity": 90, "channel": 0}, {"type": "note_on", "time": 350, "note": 68, "velocity": 120, "channel": 0}, {"type": "note_off", "time": 111, "note": 68, "velocity": 120, "channel": 0}, {"type": "note_on", "time": 64, "note": 65, "velocity": 100, "channel": 0}, {"type": "note_off", "time": 271, "note": 65, "velocity": 100, "channel": 0}, {"type": "note_on", "time": 36, "note": 61, "velocity": 104, "channel": 0}, {"type": "note_off", "time": 88, "note": 61, "velocity": 104, "channel": 0}, {"type": "note_on", "time": 17, "note": 56, "velocity": 99, "channel": 0}, {"type": "note_off", "time": 58, "note": 56, "velocity": 99, "channel": 0}, {"type": "note_on", "time": 105, "note": 59, "velocity": 111, "channel": 0}, {"type": "note_off", "time": 46, "note": 59, "velocity": 111, "channel": 0}, {"type": "note_on", "time": 7, "note": 60, "velocity": 106, "channel": 0}, {"type": "note_off", "time": 85, "note": 60, "velocity": 106, "channel": 0}, {"type": "note_on", "time": 8, "note": 59, "velocity": 101, "channel": 0}, {"type": "note_off", "time": 131, "note": 59, "velocity": 101, "channel": 0}, {"type": "note_on", "time": 1, "note": 56, "velocity": 101, "channel": 0}, {"type": "note_off", "time": 118, "note": 56, "velocity": 101, "channel": 0}, {"type": "note_on", "time": 1, "note": 58, "velocity": 97, "channel": 0}, {"type": "note_off", "time": 189, "note": 58, "velocity": 97, "channel": 0}, {"type": "note_on", "time": 348, "note": 56, "velocity": 107, "channel": 0}, {"type": "note_off", "time": 42, "note": 56, "velocity": 107, "channel": 0}, {"type": "note_on", "time": 4, "note": 58, "velocity": 104, "channel": 0}, {"type": "note_off", "time": 26, "note": 58, "velocity": 104, "channel": 0}, {"type": "note_on", "time": 3, "note": 59, "velocity": 104, "channel": 0}, {"type": "note_off", "time": 39, "note": 59, "velocity": 104, "channel": 0}, {"type": "note_on", "time": 3, "note": 60, "velocity": 107, "channel": 0}, {"type": "note_off", "time": 40, "note": 60, "velocity": 107, "channel": 0}, {"type": "note_on", "time": 2, "note": 63, "velocity": 116, "channel": 0}, {"type": "note_off", "time": 37, "note": 63, "velocity": 116, "channel": 0}, {"type": "note_on", "time": 18, "note": 65, "velocity": 115, "channel": 0}, {"type": "note_off", "time": 54, "note": 65, "velocity": 115, "channel": 0}, {"type": "note_on", "time": 15, "note": 68, "velocity": 121, "channel": 0}, {"type": "note_off", "time": 62, "note": 68, "velocity": 121, "channel": 0}, {"type": "note_on", "time": 3, "note": 65, "velocity": 111, "channel": 0}, {"type": "note_off", "time": 45, "note": 65, "velocity": 111, "channel": 0}, {"type": "note_on", "time": 55, "note": 68, "velocity": 113, "channel": 0}, {"type": "note_off", "time": 32, "note": 68, "velocity": 113, "channel": 0}, {"type": "note_on", "time": 1, "note": 65, "velocity": 109, "channel": 0}, {"type": "note_off", "time": 53, "note": 65, "velocity": 109, "channel": 0}, {"type": "note_on", "time": 3, "note": 68, "velocity": 117, "channel": 0}, {"type": "note_off", "time": 63, "note": 68, "velocity": 117, "channel": 0}, {"type": "note_on", "time": 7, "note": 65, "velocity": 114, "channel": 0}, {"type": "note_off", "time": 43, "note": 65, "velocity": 114, "channel": 0}, {"type": "note_on", "time": 8, "note": 68, "velocity": 120, "channel": 0}, {"type": "note_off", "time": 61, "note": 68, "velocity": 120, "channel": 0}, {"type": "note_on", "time": 4, "note": 65, "velocity": 110, "channel": 0}, {"type": "note_off", "time": 41, "note": 65, "velocity": 110, "channel": 0}, {"type": "note_on", "time": 11, "note": 68, "velocity": 118, "channel": 0}, {"type": "note_off", "time": 55, "note": 68, "velocity": 118, "channel": 0}, {"type": "note_on", "time": 18, "note": 65, "velocity": 110, "channel": 0}, {"type": "note_off", "time": 56, "note": 65, "velocity": 110, "channel": 0}, {"type": "note_on", "time": 0, "note": 68, "velocity": 116, "channel": 0}, {"type": "note_off", "time": 76, "note": 68, "velocity": 116, "channel": 0}, {"type": "note_on", "time": 6, "note": 65, "velocity": 107, "channel": 0}, {"type": "note_off", "time": 38, "note": 65, "velocity": 107, "channel": 0}, {"type": "note_on", "time": 14, "note": 68, "velocity": 118, "channel": 0}, {"type": "note_off", "time": 51, "note": 68, "velocity": 118, "channel": 0}, {"type": "note_on", "time": 11, "note": 63, "velocity": 125, "channel": 0}, {"type": "note_off", "time": 30, "note": 63, "velocity": 125, "channel": 0}, {"type": "note_on", "time": 2, "note": 64, "velocity": 114, "channel": 0}, {"type": "note_off", "time": 39, "note": 64, "velocity": 114, "channel": 0}, {"type": "note_on", "time": 1, "note": 65, "velocity": 109, "channel": 0}, {"type": "note_off", "time": 44, "note": 65, "velocity": 109, "channel": 0}, {"type": "note_on", "time": 23, "note": 68, "velocity": 121, "channel": 0}, {"type": "note_off", "time": 61, "note": 68, "velocity": 121, "channel": 0}, {"type": "note_on", "time": 1, "note": 70, "velocity": 113, "channel": 0}, {"type": "note_off", "time": 39, "note": 70, "velocity": 113, "channel": 0}, {"type": "note_on", "time": 4, "note": 71, "velocity": 121, "channel": 0}, {"type": "note_off", "time": 72, "note": 71, "velocity": 121, "channel": 0}, {"type": "note_on", "time": 4, "note": 72, "velocity": 113, "channel": 0}, {"type": "note_off", "time": 182, "note": 72, "velocity": 113, "channel": 0}, {"type": "note_on", "time": 82, "note": 68, "velocity": 116, "channel": 0}, {"type": "note_off", "time": 49, "note": 68, "velocity": 116, "channel": 0}, {"type": "note_on", "time": 18, "note": 65, "velocity": 107, "channel": 0}, {"type": "note_off", "time": 27, "note": 65, "velocity": 107, "channel": 0}, {"type": "note_on", "time": 16, "note": 68, "velocity": 102, "channel": 0}, {"type": "note_off", "time": 152, "note": 68, "velocity": 102, "channel": 0}, {"type": "note_on", "time": 127, "note": 65, "velocity": 109, "channel": 0}, {"type": "note_off", "time": 47, "note": 65, "velocity": 109, "channel": 0}, {"type": "note_on", "time": 6, "note": 61, "velocity": 112, "channel": 0}, {"type": "note_off", "time": 49, "note": 61, "velocity": 112, "channel": 0}, {"type": "note_on", "time": 18, "note": 58, "velocity": 102, "channel": 0}, {"type": "note_off", "time": 88, "note": 58, "velocity": 102, "channel": 0}, {"type": "note_on", "time": 28, "note": 60, "velocity": 113, "channel": 0}, {"type": "note_off", "time": 46, "note": 60, "velocity": 113, "channel": 0}, {"type": "note_on", "time": 9, "note": 61, "velocity": 109, "channel": 0}, {"type": "note_off", "time": 77, "note": 61, "velocity": 109, "channel": 0}, {"type": "note_on", "time": 45, "note": 62, "velocity": 115, "channel": 0}, {"type": "note_off", "time": 74, "note": 62, "velocity": 115, "channel": 0}, {"type": "note_on", "time": 10, "note": 63, "velocity": 117, "channel": 0}, {"type": "note_off", "time": 59, "note": 63, "velocity": 117, "channel": 0}, {"type": "note_on", "time": 212, "note": 58, "velocity": 103, "channel": 0}, {"type": "note_off", "time": 53, "note": 58, "velocity": 103, "channel": 0}, {"type": "note_on", "time": 11, "note": 60, "velocity": 105, "channel": 0}, {"type": "note_off", "time": 67, "note": 60, "velocity": 105, "channel": 0}, {"type": "note_on", "time": 11, "note": 56, "velocity": 96, "channel": 0}, {"type": "note_off", "time": 197, "note": 56, "velocity": 96, "channel": 0}, {"type": "note_on", "time": 340, "note": 55, "velocity": 102, "channel": 0}, {"type": "note_off", "time": 43, "note": 55, "velocity": 102, "channel": 0}, {"type": "note_on", "time": 6, "note": 56, "velocity": 105, "channel": 0}, {"type": "note_off", "time": 40, "note": 56, "velocity": 105, "channel": 0}, {"type": "note_on", "time": 3, "note": 58, "velocity": 108, "channel": 0}, {"type": "note_off", "time": 43, "note": 58, "velocity": 108, "channel": 0}, {"type": "note_on", "time": 2, "note": 60, "velocity": 118, "channel": 0}, {"type": "note_off", "time": 37, "note": 60, "velocity": 118, "channel": 0}, {"type": "note_on", "time": 6, "note": 61, "velocity": 115, "channel": 0}, {"type": "note_off", "time": 45, "note": 61, "velocity": 115, "channel": 0}, {"type": "note_on", "time": 4, "note": 60, "velocity": 116, "channel": 0}, {"type": "note_off", "time": 36, "note": 60, "velocity": 116, "channel": 0}, {"type": "note_on", "time": 4, "note": 58, "velocity": 111, "channel": 0}, {"type": "note_off", "time": 46, "note": 58, "velocity": 111, "channel": 0}, {"type": "note_on", "time": 3, "note": 56, "velocity": 107, "channel": 0}, {"type": "note_off", "time": 36, "note": 56, "velocity": 107, "channel": 0}, {"type": "note_on", "time": 6, "note": 55, "velocity": 101, "channel": 0}, {"type": "note_off", "time": 43, "note": 55, "velocity": 101, "channel": 0}, {"type": "note_on", "time": 4, "note": 56, "velocity": 102, "channel": 0}, {"type": "note_off", "time": 49, "note": 56, "velocity": 102, "channel": 0}, {"type": "note_on", "time": 3, "note": 58, "velocity": 108, "channel": 0}, {"type": "note_off", "time": 41, "note": 58, "velocity": 108, "channel": 0}, {"type": "note_on", "time": 7, "note": 60, "velocity": 113, "channel": 0}, {"type": "note_off", "time": 42, "note": 60, "velocity": 113, "channel": 0}, {"type": "note_on", "time": 3, "note": 61, "velocity": 114, "channel": 0}, {"type": "note_off", "time": 46, "note": 61, "velocity": 114, "channel": 0}, {"type": "note_on", "time": 1, "note": 60, "velocity": 109, "channel": 0}, {"type": "note_off", "time": 28, "note": 60, "velocity": 109, "channel": 0}, {"type": "note_on", "time": 4, "note": 58, "velocity": 102, "channel": 0}, {"type": "note_off", "time": 38, "note": 58, "velocity": 102, "channel": 0}, {"type": "note_on", "time": 3, "note": 56, "velocity": 98, "channel": 0}, {"type": "note_off", "time": 46, "note": 56, "velocity": 98, "channel": 0}, {"type": "note_on", "time": 1, "note": 55, "velocity": 98, "channel": 0}, {"type": "note_off", "time": 48, "note": 55, "velocity": 98, "channel": 0}, {"type": "note_on", "time": 4, "note": 56, "velocity": 97, "channel": 0}, {"type": "note_off", "time": 39, "note": 56, "velocity": 97, "channel": 0}, {"type": "note_on", "time": 3, "note": 58, "velocity": 97, "channel": 0}, {"type": "note_off", "time": 48, "note": 58, "velocity": 97, "channel": 0}, {"type": "note_on", "time": 2, "note": 60, "velocity": 104, "channel": 0}, {"type": "note_off", "time": 47, "note": 60, "velocity": 104, "channel": 0}, {"type": "note_on", "time": 4, "note": 61, "velocity": 97, "channel": 0}, {"type": "note_off", "time": 45, "note": 61, "velocity": 97, "channel": 0}, {"type": "note_on", "time": 3, "note": 60, "velocity": 103, "channel": 0}, {"type": "note_off", "time": 58, "note": 60, "velocity": 103, "channel": 0}, {"type": "note_on", "time": 3, "note": 58, "velocity": 93, "channel": 0}, {"type": "note_off", "time": 30, "note": 58, "velocity": 93, "channel": 0}, {"type": "note_on", "time": 10, "note": 55, "velocity": 97, "channel": 0}, {"type": "note_off", "time": 36, "note": 55, "velocity": 97, "channel": 0}, {"type": "note_on", "time": 7, "note": 56, "velocity": 107, "channel": 0}, {"type": "note_off", "time": 39, "note": 56, "velocity": 107, "channel": 0}, {"type": "note_on", "time": 8, "note": 55, "velocity": 100, "channel": 0}, {"type": "note_off", "time": 44, "note": 55, "velocity": 100, "channel": 0}, {"type": "note_on", "time": 2, "note": 53, "velocity": 98, "channel": 0}, {"type": "note_off", "time": 70, "note": 53, "velocity": 98, "channel": 0}, {"type": "note_on", "time": 3, "note": 55, "velocity": 95, "channel": 0}, {"type": "note_off", "time": 46, "note": 55, "velocity": 95, "channel": 0}, {"type": "note_on", "time": 2, "note": 56, "velocity": 95, "channel": 0}, {"type": "note_off", "time": 35, "note": 56, "velocity": 95, "channel": 0}, {"type": "note_on", "time": 7, "note": 58, "velocity": 90, "channel": 0}, {"type": "note_off", "time": 40, "note": 58, "velocity": 90, "channel": 0}, {"type": "note_on", "time": 2, "note": 59, "velocity": 91, "channel": 0}, {"type": "note_off", "time": 42, "note": 59, "velocity": 91, "channel": 0}, {"type": "note_on", "time": 6, "note": 60, "velocity": 90, "channel": 0}, {"type": "note_off", "time": 35, "note": 60, "velocity": 90, "channel": 0}, {"type": "note_on", "time": 4, "note": 61, "velocity": 85, "channel": 0}, {"type": "note_off", "time": 41, "note": 61, "velocity": 85, "channel": 0}, {"type": "note_on", "time": 11, "note": 60, "velocity": 89, "channel": 0}, {"type": "note_off", "time": 41, "note": 60, "velocity": 89, "channel": 0}, {"type": "note_on", "time": 2, "note": 59, "velocity": 85, "channel": 0}, {"type": "note_off", "time": 56, "note": 59, "velocity": 85, "channel": 0}, {"type": "note_on", "time": 3, "note": 58, "velocity": 91, "channel": 0}, {"type": "note_off", "time": 38, "note": 58, "velocity": 91, "channel": 0}, {"type": "note_on", "time": 6, "note": 59, "velocity": 95, "channel": 0}, {"type": "note_off", "time": 46, "note": 59, "velocity": 95, "channel": 0}, {"type": "note_on", "time": 8, "note": 58, "velocity": 90, "channel": 0}, {"type": "note_off", "time": 42, "note": 58, "velocity": 90, "channel": 0}, {"type": "end_of_track", "time": 0}]]}