{"ticks_per_beat": 20160, "tracks": [[{"type": "track_name", "name": "Melody", "time": 0}, {"type": "set_tempo", "tempo": 895522, "time": 0}, {"type": "key_signature", "key": "Db", "time": 0}, {"type": "time_signature", "numerator": 4, "denominator": 4, "clocks_per_click": 24, "notated_32nd_notes_per_beat": 8, "time": 0}, {"type": "note_on", "time": 206321, "note": 57, "velocity": 85, "channel": 0}, {"type": "note_off", "time": 5227, "note": 57, "velocity": 85, "channel": 0}, {"type": "note_on", "time": 261, "note": 58, "velocity": 107, "channel": 0}, {"type": "note_off", "time": 4965, "note": 58, "velocity": 107, "channel": 0}, {"type": "note_on", "time": 1829, "note": 70, "velocity": 105, "channel": 0}, {"type": "note_off", "time": 5488, "note": 70, "velocity": 105, "channel": 0}, {"type": "note_on", "time": 0, "note": 68, "velocity": 113, "channel": 0}, {"type": "note_off", "time": 4443, "note": 68, "velocity": 113, "channel": 0}, {"type": "note_on", "time": 261, "note": 66, "velocity": 101, "channel": 0}, {"type": "note_off", "time": 24829, "note": 66, "velocity": 101, "channel": 0}, {"type": "note_on", "time": 261, "note": 63, "velocity": 113, "channel": 0}, {"type": "note_off", "time": 4965, "note": 63, "velocity": 113, "channel": 0}, {"type": "note_on", "time": 261, "note": 65, "velocity": 104, "channel": 0}, {"type": "note_off", "time": 4181, "note": 65, "velocity": 104, "channel": 0}, {"type": "note_on", "time": 261, "note": 63, "velocity": 109, "channel": 0}, {"type": "note_off", "time": 4704, "note": 63, "velocity": 109, "channel": 0}, {"type": "note_on", "time": 784, "note": 65, "velocity": 97, "channel": 0}, {"type": "note_off", "time": 26136, "note": 65, "velocity": 97, "channel": 0}, {"type": "note_on", "time": 522, "note": 63, "velocity": 109, "channel": 0}, {"type": "note_off", "time": 4181, "note": 63, "velocity": 109, "channel": 0}, {"type": "note_on", "time": 261, "note": 62, "velocity": 112, "channel": 0}, {"type": "note_off", "time": 4443, "note": 62, "velocity": 112, "channel": 0}, {"type": "note_on", "time": 0, "note": 63, "velocity": 111, "channel": 0}, {"type": "note_off", "time": 4181, "note": 63, "velocity": 111, "channel": 0}, {"type": "note_on", "time": 1045, "note": 70, "velocity": 103, "channel": 0}, {"type": "note_off", "time": 3920, "note": 70, "velocity": 103, "channel": 0}, {"type": "note_on", "time": 784, "note": 70, "velocity": 95, "channel": 0}, {"type": "note_off", "time": 33715, "note": 70, "velocity": 95, "channel": 0}, {"type": "note_on", "time": 1829, "note": 69, "velocity": 84, "channel": 0}, {"type": "note_off", "time": 2875, "note": 69, "velocity": 84, "channel": 0}, {"type": "note_on", "time": 1306, "note": 71, "velocity": 93, "channel": 0}, {"type": "note_off", "time": 3136, "note": 71, "velocity": 93, "channel": 0}, {"type": "note_on", "time": 0, "note": 68, "velocity": 90, "channel": 0}, {"type": "note_off", "time": 11238, "note": 68, "velocity": 90, "channel": 0}, {"type": "note_on", "time": 1306, "note": 66, "velocity": 102, "channel": 0}, {"type": "note_off", "time": 2875, "note": 66, "velocity": 102, "channel": 0}, {"type": "note_on", "time": 0, "note": 68, "velocity": 89, "channel": 0}, {"type": "note_on", "time": 2613, "note": 65, "velocity": 88, "channel": 0}, {"type": "note_off", "time": 0, "note": 68, "velocity": 89, "channel": 0}, {"type": "note_off", "time": 17772, "note": 65, "velocity": 88, "channel": 0}, {"type": "note_on", "time": 20647, "note": 68, "velocity": 116, "channel": 0}, {"type": "note_off", "time": 4704, "note": 68, "velocity": 116, "channel": 0}, {"type": "note_on", "time": 1829, "note": 70, "velocity": 117, "channel": 0}, {"type": "note_off", "time": 3920, "note": 70, "velocity": 117, "channel": 0}, {"type": "note_on", "time": 0, "note": 68, "velocity": 114, "channel": 0}, {"type": "note_off", "time": 4443, "note": 68, "velocity": 114, "channel": 0}, {"type": "note_on", "time": 522, "note": 70, "velocity": 101, "channel": 0}, {"type": "note_off", "time": 41295, "note": 70, "velocity": 101, "channel": 0}, {"type": "note_on", "time": 0, "note": 68, "velocity": 93, "channel": 0}, {"type": "note_off", "time": 2090, "note": 68, "velocity": 93, "channel": 0}, {"type": "note_on", "time": 1568, "note": 70, "velocity": 108, "channel": 0}, {"type": "note_off", "time": 2875, "note": 70, "velocity": 108, "channel": 0}, {"type": "note_on", "time": 261, "note": 72, "velocity": 114, "channel": 0}, {"type": "note_off", "time": 4181, "note": 72, "velocity": 114, "channel": 0}, {"type": "note_on", "time": 261, "note": 75, "velocity": 118, "channel": 0}, {"type": "note_off", "time": 5750, "note": 75, "velocity": 118, "channel": 0}, {"type": "note_on", "time": 261, "note": 73, "velocity": 106, "channel": 0}, {"type": "note_off", "time": 4181, "note": 73, "velocity": 106, "channel": 0}, {"type": "note_on", "time": 261, "note": 72, "velocity": 110, "channel": 0}, {"type": "note_off", "time": 3659, "note": 72, "velocity": 110, "channel": 0}, {"type": "note_on", "time": 522, "note": 70, "velocity": 106, "channel": 0}, {"type": "note_off", "time": 3920, "note": 70, "velocity": 106, "channel": 0}, {"type": "note_on", "time": 522, "note": 73, "velocity": 102, "channel": 0}, {"type": "note_off", "time": 2352, "note": 73, "velocity": 102, "channel": 0}, {"type": "note_on", "time": 0, "note": 72, "velocity": 106, "channel": 0}, {"type": "note_off", "time": 1306, "note": 72, "velocity": 106, "channel": 0}, {"type": "note_on", "time": 0, "note": 71, "velocity": 91, "channel": 0}, {"type": "note_off", "time": 2090, "note": 71, "velocity": 91, "channel": 0}, {"type": "note_on", "time": 0, "note": 64, "velocity": 112, "channel": 0}, {"type": "note_off", "time": 23522, "note": 64, "velocity": 112, "channel": 0}, {"type": "note_on", "time": 261, "note": 62, "velocity": 122, "channel": 0}, {"type": "note_off", "time": 3136, "note": 62, "velocity": 122, "channel": 0}, {"type": "note_on", "time": 1045, "note": 63, "velocity": 118, "channel": 0}, {"type": "note_off", "time": 4965, "note": 63, "velocity": 118, "channel": 0}, {"type": "note_on", "time": 261, "note": 73, "velocity": 99, "channel": 0}, {"type": "note_off", "time": 32147, "note": 73, "velocity": 99, "channel": 0}, {"type": "note_on", "time": 784, "note": 70, "velocity": 106, "channel": 0}, {"type": "note_off", "time": 2875, "note": 70, "velocity": 106, "channel": 0}, {"type": "note_on", "time": 1045, "note": 66, "velocity": 104, "channel": 0}, {"type": "note_off", "time": 2613, "note": 66, "velocity": 104, "channel": 0}, {"type": "note_on", "time": 522, "note": 70, "velocity": 96, "channel": 0}, {"type": "note_off", "time": 29272, "note": 70, "velocity": 96, "channel": 0}, {"type": "note_on", "time": 784, "note": 66, "velocity": 109, "channel": 0}, {"type": "note_off", "time": 4181, "note": 66, "velocity": 109, "channel": 0}, {"type": "note_on", "time": 0, "note": 61, "velocity": 105, "channel": 0}, {"type": "note_off", "time": 3136, "note": 61, "velocity": 105, "channel": 0}, {"type": "note_on", "time": 1045, "note": 65, "velocity": 99, "channel": 0}, {"type": "note_off", "time": 28227, "note": 65, "velocity": 99, "channel": 0}, {"type": "note_on", "time": 1045, "note": 63, "velocity": 110, "channel": 0}, {"type": "note_off", "time": 3136, "note": 63, "velocity": 110, "channel": 0}, {"type": "note_on", "time": 522, "note": 68, "velocity": 109, "channel": 0}, {"type": "note_off", "time": 4443, "note": 68, "velocity": 109, "channel": 0}, {"type": "note_on", "time": 261, "note": 66, "velocity": 116, "channel": 0}, {"type": "note_off", "time": 2352, "note": 66, "velocity": 116, "channel": 0}, {"type": "note_on", "time": 0, "note": 65, "velocity": 110, "channel": 0}, {"type": "note_off", "time": 1568, "note": 65, "velocity": 110, "channel": 0}, {"type": "note_on", "time": 1306, "note": 63, "velocity": 107, "channel": 0}, {"type": "note_off", "time": 3659, "note": 63, "velocity": 107, "channel": 0}, {"type": "note_on", "time": 784, "note": 65, "velocity": 98, "channel": 0}, {"type": "note_off", "time": 15681, "note": 65, "velocity": 98, "channel": 0}, {"type": "note_on", "time": 261, "note": 63, "velocity": 105, "channel": 0}, {"type": "note_off", "time": 3397, "note": 63, "velocity": 105, "channel": 0}, {"type": "note_on", "time": 784, "note": 68, "velocity": 101, "channel": 0}, {"type": "note_off", "time": 3397, "note": 68, "velocity": 101, "channel": 0}, {"type": "note_on", "time": 261, "note": 66, "velocity": 111, "channel": 0}, {"type": "note_off", "time": 3136, "note": 66, "velocity": 111, "channel": 0}, {"type": "note_on", "time": 0, "note": 65, "velocity": 108, "channel": 0}, {"type": "note_off", "time": 2613, "note": 65, "velocity": 108, "channel": 0}, {"type": "note_on", "time": 0, "note": 63, "velocity": 98, "channel": 0}, {"type": "note_off", "time": 2613, "note": 63, "velocity": 98, "channel": 0}, {"type": "note_on", "time": 1306, "note": 65, "velocity": 99, "channel": 0}, {"type": "note_off", "time": 28488, "note": 65, "velocity": 99, "channel": 0}, {"type": "note_on", "time": 784, "note": 61, "velocity": 115, "channel": 0}, {"type": "note_off", "time": 2875, "note": 61, "velocity": 115, "channel": 0}, {"type": "note_on", "time": 1306, "note": 63, "velocity": 119, "channel": 0}, {"type": "note_off", "time": 2875, "note": 63, "velocity": 119, "channel": 0}, {"type": "note_on", "time": 522, "note": 65, "velocity": 112, "channel": 0}, {"type": "note_off", "time": 3659, "note": 65, "velocity": 112, "channel": 0}, {"type": "note_on", "time": 0, "note": 68, "velocity": 110, "channel": 0}, {"type": "note_off", "time": 4443, "note": 68, "velocity": 110, "channel": 0}, {"type": "note_on", "time": 1045, "note": 66, "velocity": 117, "channel": 0}, {"type": "note_off", "time": 2875, "note": 66, "velocity": 117, "channel": 0}, {"type": "note_on", "time": 0, "note": 68, "velocity": 106, "channel": 0}, {"type": "note_off", "time": 4181, "note": 68, "velocity": 106, "channel": 0}, {"type": "note_on", "time": 261, "note": 66, "velocity": 110, "channel": 0}, {"type": "note_off", "time": 4443, "note": 66, "velocity": 110, "channel": 0}, {"type": "note_on", "time": 0, "note": 71, "velocity": 117, "channel": 0}, {"type": "note_off", "time": 4181, "note": 71, "velocity": 117, "channel": 0}, {"type": "note_on", "time": 261, "note": 67, "velocity": 113, "channel": 0}, {"type": "note_off", "time": 3659, "note": 67, "velocity": 113, "channel": 0}, {"type": "note_on", "time": 522, "note": 71, "velocity": 112, "channel": 0}, {"type": "note_off", "time": 4965, "note": 71, "velocity": 112, "channel": 0}, {"type": "note_on", "time": 261, "note": 67, "velocity": 107, "channel": 0}, {"type": "note_off", "time": 4965, "note": 67, "velocity": 107, "channel": 0}, {"type": "note_on", "time": 522, "note": 72, "velocity": 115, "channel": 0}, {"type": "note_off", "time": 3920, "note": 72, "velocity": 115, "channel": 0}, {"type": "note_on", "time": 1045, "note": 67, "velocity": 111, "channel": 0}, {"type": "note_off", "time": 4443, "note": 67, "velocity": 111, "channel": 0}, {"type": "note_on", "time": 0, "note": 72, "velocity": 110, "channel": 0}, {"type": "note_off", "time": 3659, "note": 72, "velocity": 110, "channel": 0}, {"type": "note_on", "time": 1568, "note": 67, "velocity": 112, "channel": 0}, {"type": "note_off", "time": 3659, "note": 67, "velocity": 112, "channel": 0}, {"type": "note_on", "time": 1829, "note": 68, "velocity": 89, "channel": 0}, {"type": "note_off", "time": 17250, "note": 68, "velocity": 89, "channel": 0}, {"type": "note_on", "time": 3920, "note": 73, "velocity": 117, "channel": 0}, {"type": "note_off", "time": 4443, "note": 73, "velocity": 117, "channel": 0}, {"type": "note_on", "time": 784, "note": 68, "velocity": 111, "channel": 0}, {"type": "note_off", "time": 3659, "note": 68, "velocity": 111, "channel": 0}, {"type": "note_on", "time": 784, "note": 73, "velocity": 115, "channel": 0}, {"type": "note_off", "time": 4443, "note": 73, "velocity": 115, "channel": 0}, {"type": "note_on", "time": 522, "note": 68, "velocity": 110, "channel": 0}, {"type": "note_off", "time": 4704, "note": 68, "velocity": 110, "channel": 0}, {"type": "note_on", "time": 0, "note": 71, "velocity": 113, "channel": 0}, {"type": "note_off", "time": 3920, "note": 71, "velocity": 113, "channel": 0}, {"type": "note_on", "time": 1045, "note": 65, "velocity": 111, "channel": 0}, {"type": "note_off", "time": 4443, "note": 65, "velocity": 111, "channel": 0}, {"type": "note_on", "time": 261, "note": 70, "velocity": 108, "channel": 0}, {"type": "note_off", "time": 4443, "note": 70, "velocity": 108, "channel": 0}, {"type": "note_on", "time": 0, "note": 65, "velocity": 115, "channel": 0}, {"type": "note_off", "time": 4181, "note": 65, "velocity": 115, "channel": 0}, {"type": "note_on", "time": 0, "note": 66, "velocity": 93, "channel": 0}, {"type": "note_off", "time": 23522, "note": 66, "velocity": 93, "channel": 0}, {"type": "note_on", "time": 30318, "note": 58, "velocity": 120, "channel": 0}, {"type": "note_off", "time": 3920, "note": 58, "velocity": 120, "channel": 0}, {"type": "note_on", "time": 0, "note": 59, "velocity": 117, "channel": 0}, {"type": "note_off", "time": 3136, "note": 59, "velocity": 117, "channel": 0}, {"type": "note_on", "time": 522, "note": 70, "velocity": 106, "channel": 0}, {"type": "note_off", "time": 35022, "note": 70, "velocity": 106, "channel": 0}, {"type": "note_on", "time": 261, "note": 68, "velocity": 112, "channel": 0}, {"type": "note_off", "time": 4181, "note": 68, "velocity": 112, "channel": 0}, {"type": "note_on", "time": 784, "note": 66, "velocity": 116, "channel": 0}, {"type": "note_off", "time": 3920, "note": 66, "velocity": 116, "channel": 0}, {"type": "note_on", "time": 261, "note": 65, "velocity": 114, "channel": 0}, {"type": "note_off", "time": 3136, "note": 65, "velocity": 114, "channel": 0}, {"type": "note_on", "time": 0, "note": 63, "velocity": 116, "channel": 0}, {"type": "note_off", "time": 7318, "note": 63, "velocity": 116, "channel": 0}, {"type": "note_on", "time": 2875, "note": 59, "velocity": 118, "channel": 0}, {"type": "note_off", "time": 4181, "note": 59, "velocity": 118, "channel": 0}, {"type": "note_on", "time": 0, "note": 60, "velocity": 114, "channel": 0}, {"type": "note_off", "time": 4443, "note": 60, "velocity": 114, "channel": 0}, {"type": "note_on", "time": 1829, "note": 71, "velocity": 110, "channel": 0}, {"type": "note_off", "time": 23000, "note": 71, "velocity": 110, "channel": 0}, {"type": "note_on", "time": 522, "note": 69, "velocity": 105, "channel": 0}, {"type": "note_off", "time": 2875, "note": 69, "velocity": 105, "channel": 0}, {"type": "note_on", "time": 784, "note": 68, "velocity": 113, "channel": 0}, {"type": "note_off", "time": 3397, "note": 68, "velocity": 113, "channel": 0}, {"type": "note_on", "time": 0, "note": 66, "velocity": 113, "channel": 0}, {"type": "note_off", "time": 3397, "note": 66, "velocity": 113, "channel": 0}, {"type": "note_on", "time": 784, "note": 67, "velocity": 115, "channel": 0}, {"type": "note_off", "time": 5488, "note": 67, "velocity": 115, "channel": 0}, {"type": "note_on", "time": 784, "note": 68, "velocity": 105, "channel": 0}, {"type": "note_off", "time": 46261, "note": 68, "velocity": 105, "channel": 0}, {"type": "note_on", "time": 0, "note": 67, "velocity": 115, "channel": 0}, {"type": "note_off", "time": 3136, "note": 67, "velocity": 115, "channel": 0}, {"type": "note_on", "time": 0, "note": 68, "velocity": 109, "channel": 0}, {"type": "note_off", "time": 5227, "note": 68, "velocity": 109, "channel": 0}, {"type": "note_on", "time": 522, "note": 75, "velocity": 123, "channel": 0}, {"type": "note_off", "time": 4965, "note": 75, "velocity": 123, "channel": 0}, {"type": "note_on", "time": 784, "note": 68, "velocity": 96, "channel": 0}, {"type": "note_off", "time": 3659, "note": 68, "velocity": 96, "channel": 0}, {"type": "note_on", "time": 0, "note": 75, "velocity": 122, "channel": 0}, {"type": "note_off", "time": 3920, "note": 75, "velocity": 122, "channel": 0}, {"type": "note_on", "time": 522, "note": 68, "velocity": 96, "channel": 0}, {"type": "note_off", "time": 2613, "note": 68, "velocity": 96, "channel": 0}, {"type": "note_on", "time": 1568, "note": 75, "velocity": 115, "channel": 0}, {"type": "note_off", "time": 5227, "note": 75, "velocity": 115, "channel": 0}, {"type": "note_on", "time": 1306, "note": 68, "velocity": 99, "channel": 0}, {"type": "note_off", "time": 26397, "note": 68, "velocity": 99, "channel": 0}, {"type": "note_on", "time": 261, "note": 70, "velocity": 105, "channel": 0}, {"type": "note_on", "time": 2875, "note": 72, "velocity": 107, "channel": 0}, {"type": "note_off", "time": 0, "note": 70, "velocity": 105, "channel": 0}, {"type": "note_off", "time": 3659, "note": 72, "velocity": 107, "channel": 0}, {"type": "note_on", "time": 261, "note": 75, "velocity": 113, "channel": 0}, {"type": "note_off", "time": 4704, "note": 75, "velocity": 113, "channel": 0}, {"type": "note_on", "time": 522, "note": 73, "velocity": 111, "channel": 0}, {"type": "note_off", "time": 3397, "note": 73, "velocity": 111, "channel": 0}, {"type": "note_on", "time": 784, "note": 68, "velocity": 106, "channel": 0}, {"type": "note_off", "time": 3397, "note": 68, "velocity": 106, "channel": 0}, {"type": "note_on", "time": 1045, "note": 65, "velocity": 111, "channel": 0}, {"type": "note_off", "time": 3136, "note": 65, "velocity": 111, "channel": 0}, {"type": "note_on", "time": 784, "note": 64, "velocity": 99, "channel": 0}, {"type": "note_off", "time": 13329, "note": 64, "velocity": 99, "channel": 0}, {"type": "note_on", "time": 522, "note": 62, "velocity": 114, "channel": 0}, {"type": "note_off", "time": 3920, "note": 62, "velocity": 114, "channel": 0}, {"type": "note_on", "time": 0, "note": 63, "velocity": 109, "channel": 0}, {"type": "note_off", "time": 3659, "note": 63, "velocity": 109, "channel": 0}, {"type": "note_on", "time": 2090, "note": 73, "velocity": 103, "channel": 0}, {"type": "note_off", "time": 14897, "note": 73, "velocity": 103, "channel": 0}, {"type": "note_on", "time": 26136, "note": 73, "velocity": 117, "channel": 0}, {"type": "note_off", "time": 2613, "note": 73, "velocity": 117, "channel": 0}, {"type": "note_on", "time": 0, "note": 72, "velocity": 118, "channel": 0}, {"type": "note_off", "time": 2090, "note": 72, "velocity": 118, "channel": 0}, {"type": "note_on", "time": 0, "note": 73, "velocity": 116, "channel": 0}, {"type": "note_off", "time": 4443, "note": 73, "velocity": 116, "channel": 0}, {"type": "note_on", "time": 784, "note": 70, "velocity": 118, "channel": 0}, {"type": "note_off", "time": 2613, "note": 70, "velocity": 118, "channel": 0}, {"type": "note_on", "time": 261, "note": 69, "velocity": 105, "channel": 0}, {"type": "note_off", "time": 2352, "note": 69, "velocity": 105, "channel": 0}, {"type": "note_on", "time": 0, "note": 70, "velocity": 116, "channel": 0}, {"type": "note_off", "time": 3397, "note": 70, "velocity": 116, "channel": 0}, {"type": "note_on", "time": 1090, "note": 66, "velocity": 120, "channel": 0}, {"type": "note_off", "time": 2307, "note": 66, "velocity": 120, "channel": 0}, {"type": "note_on", "time": 0, "note": 65, "velocity": 115, "channel": 0}, {"type": "note_off", "time": 1829, "note": 65, "velocity": 115, "channel": 0}, {"type": "note_on", "time": 522, "note": 66, "velocity": 117, "channel": 0}, {"type": "note_off", "time": 3659, "note": 66, "velocity": 117, "channel": 0}, {"type": "note_on", "time": 1568, "note": 58, "velocity": 99, "channel": 0}, {"type": "note_on", "time": 3136, "note": 61, "velocity": 114, "channel": 0}, {"type": "note_off", "time": 0, "note": 58, "velocity": 99, "channel": 0}, {"type": "note_off", "time": 1568, "note": 61, "velocity": 114, "channel": 0}, {"type": "note_on", "time": 0, "note": 64, "velocity": 109, "channel": 0}, {"type": "note_off", "time": 3397, "note": 64, "velocity": 109, "channel": 0}, {"type": "note_on", "time": 0, "note": 65, "velocity": 115, "channel": 0}, {"type": "note_off", "time": 2352, "note": 65, "velocity": 115, "channel": 0}, {"type": "note_on", "time": 522, "note": 64, "velocity": 117, "channel": 0}, {"type": "note_off", "time": 2875, "note": 64, "velocity": 117, "channel": 0}, {"type": "note_on", "time": 0, "note": 65, "velocity": 114, "channel": 0}, {"type": "note_off", "time": 2613, "note": 65, "velocity": 114, "channel": 0}, {"type": "note_on", "time": 0, "note": 68, "velocity": 116, "channel": 0}, {"type": "note_off", "time": 2352, "note": 68, "velocity": 116, "channel": 0}, {"type": "note_on", "time": 261, "note": 64, "velocity": 117, "channel": 0}, {"type": "note_off", "time": 1829, "note": 64, "velocity": 117, "channel": 0}, {"type": "note_on", "time": 0, "note": 65, "velocity": 113, "channel": 0}, {"type": "note_off", "time": 1568, "note": 65, "velocity": 113, "channel": 0}, {"type": "note_on", "time": 1045, "note": 68, "velocity": 103, "channel": 0}, {"type": "note_off", "time": 2875, "note": 68, "velocity": 103, "channel": 0}, {"type": "note_on", "time": 1045, "note": 65, "velocity": 113, "channel": 0}, {"type": "note_off", "time": 1829, "note": 65, "velocity": 113, "channel": 0}, {"type": "note_on", "time": 0, "note": 63, "velocity": 125, "channel": 0}, {"type": "note_off", "time": 1568, "note": 63, "velocity": 125, "channel": 0}, {"type": "note_on", "time": 0, "note": 62, "velocity": 122, "channel": 0}, {"type": "note_off", "time": 2875, "note": 62, "velocity": 122, "channel": 0}, {"type": "note_on", "time": 392, "note": 63, "velocity": 116, "channel": 0}, {"type": "note_off", "time": 2221, "note": 63, "velocity": 116, "channel": 0}, {"type": "note_on", "time": 130, "note": 66, "velocity": 121, "channel": 0}, {"type": "note_off", "time": 2352, "note": 66, "velocity": 121, "channel": 0}, {"type": "note_on", "time": 0, "note": 62, "velocity": 122, "channel": 0}, {"type": "note_off", "time": 2482, "note": 62, "velocity": 122, "channel": 0}, {"type": "note_on", "time": 0, "note": 63, "velocity": 118, "channel": 0}, {"type": "note_off", "time": 1698, "note": 63, "velocity": 118, "channel": 0}, {"type": "note_on", "time": 522, "note": 66, "velocity": 121, "channel": 0}, {"type": "note_on", "time": 3659, "note": 63, "velocity": 122, "channel": 0}, {"type": "note_off", "time": 0, "note": 66, "velocity": 121, "channel": 0}, {"type": "note_off", "time": 3005, "note": 63, "velocity": 122, "channel": 0}, {"type": "note_on", "time": 130, "note": 62, "velocity": 118, "channel": 0}, {"type": "note_off", "time": 2352, "note": 62, "velocity": 118, "channel": 0}, {"type": "note_on", "time": 130, "note": 65, "velocity": 122, "channel": 0}, {"type": "note_off", "time": 2090, "note": 65, "velocity": 122, "channel": 0}, {"type": "note_on", "time": 0, "note": 63, "velocity": 122, "channel": 0}, {"type": "note_off", "time": 2875, "note": 63, "velocity": 122, "channel": 0}, {"type": "note_on", "time": 130, "note": 61, "velocity": 114, "channel": 0}, {"type": "note_off", "time": 3528, "note": 61, "velocity": 114, "channel": 0}, {"type": "note_on", "time": 0, "note": 58, "velocity": 121, "channel": 0}, {"type": "note_off", "time": 2352, "note": 58, "velocity": 121, "channel": 0}, {"type": "note_on", "time": 522, "note": 57, "velocity": 117, "channel": 0}, {"type": "note_off", "time": 2221, "note": 57, "velocity": 117, "channel": 0}, {"type": "note_on", "time": 522, "note": 53, "velocity": 111, "channel": 0}, {"type": "note_off", "time": 3005, "note": 53, "velocity": 111, "channel": 0}, {"type": "note_on", "time": 130, "note": 58, "velocity": 116, "channel": 0}, {"type": "note_off", "time": 2221, "note": 58, "velocity": 116, "channel": 0}, {"type": "note_on", "time": 130, "note": 59, "velocity": 117, "channel": 0}, {"type": "note_off", "time": 1829, "note": 59, "velocity": 117, "channel": 0}, {"type": "note_on", "time": 261, "note": 60, "velocity": 124, "channel": 0}, {"type": "note_off", "time": 1960, "note": 60, "velocity": 124, "channel": 0}, {"type": "note_on", "time": 0, "note": 63, "velocity": 127, "channel": 0}, {"type": "note_off", "time": 2352, "note": 63, "velocity": 127, "channel": 0}, {"type": "note_on", "time": 130, "note": 64, "velocity": 121, "channel": 0}, {"type": "note_off", "time": 2090, "note": 64, "velocity": 121, "channel": 0}, {"type": "note_on", "time": 261, "note": 63, "velocity": 121, "channel": 0}, {"type": "note_off", "time": 3397, "note": 63, "velocity": 121, "channel": 0}, {"type": "note_on", "time": 392, "note": 61, "velocity": 114, "channel": 0}, {"type": "note_off", "time": 1176, "note": 61, "velocity": 114, "channel": 0}, {"type": "note_on", "time": 0, "note": 62, "velocity": 112, "channel": 0}, {"type": "note_on", "time": 1045, "note": 63, "velocity": 123, "channel": 0}, {"type": "note_off", "time": 0, "note": 62, "velocity": 112, "channel": 0}, {"type": "note_off", "time": 1960, "note": 63, "velocity": 123, "channel": 0}, {"type": "note_on", "time": 0, "note": 60, "velocity": 119, "channel": 0}, {"type": "note_off", "time": 2875, "note": 60, "velocity": 119, "channel": 0}, {"type": "note_on", "time": 0, "note": 61, "velocity": 117, "channel": 0}, {"type": "note_off", "time": 1829, "note": 61, "velocity": 117, "channel": 0}, {"type": "note_on", "time": 392, "note": 58, "velocity": 116, "channel": 0}, {"type": "note_off", "time": 2744, "note": 58, "velocity": 116, "channel": 0}, {"type": "note_on", "time": 0, "note": 60, "velocity": 120, "channel": 0}, {"type": "note_on", "time": 1698, "note": 61, "velocity": 120, "channel": 0}, {"type": "note_off", "time": 0, "note": 60, "velocity": 120, "channel": 0}, {"type": "note_off", "time": 914, "note": 61, "velocity": 120, "channel": 0}, {"type": "note_on", "time": 0, "note": 62, "velocity": 115, "channel": 0}, {"type": "note_off", "time": 1437, "note": 62, "velocity": 115, "channel": 0}, {"type": "note_on", "time": 0, "note": 63, "velocity": 117, "channel": 0}, {"type": "note_off", "time": 1437, "note": 63, "velocity": 117, "channel": 0}, {"type": "note_on", "time": 130, "note": 67, "velocity": 117, "channel": 0}, {"type": "note_off", "time": 1829, "note": 67, "velocity": 117, "channel": 0}, {"type": "note_on", "time": 0, "note": 72, "velocity": 114, "channel": 0}, {"type": "note_off", "time": 3005, "note": 72, "velocity": 114, "channel": 0}, {"type": "note_on", "time": 130, "note": 70, "velocity": 113, "channel": 0}, {"type": "note_off", "time": 2482, "note": 70, "velocity": 113, "channel": 0}, {"type": "note_on", "time": 392, "note": 69, "velocity": 110, "channel": 0}, {"type": "note_off", "time": 1045, "note": 69, "velocity": 110, "channel": 0}, {"type": "note_on", "time": 0, "note": 65, "velocity": 111, "channel": 0}, {"type": "note_off", "time": 2744, "note": 65, "velocity": 111, "channel": 0}, {"type": "note_on", "time": 261, "note": 63, "velocity": 116, "channel": 0}, {"type": "note_off", "time": 2613, "note": 63, "velocity": 116, "channel": 0}, {"type": "note_on", "time": 261, "note": 61, "velocity": 113, "channel": 0}, {"type": "note_off", "time": 1568, "note": 61, "velocity": 113, "channel": 0}, {"type": "note_on", "time": 130, "note": 59, "velocity": 105, "channel": 0}, {"type": "note_off", "time": 784, "note": 59, "velocity": 105, "channel": 0}, {"type": "note_on", "time": 0, "note": 71, "velocity": 117, "channel": 0}, {"type": "note_off", "time": 2090, "note": 71, "velocity": 117, "channel": 0}, {"type": "note_on", "time": 261, "note": 70, "velocity": 108, "channel": 0}, {"type": "note_off", "time": 1829, "note": 70, "velocity": 108, "channel": 0}, {"type": "note_on", "time": 0, "note": 68, "velocity": 114, "channel": 0}, {"type": "note_off", "time": 3659, "note": 68, "velocity": 114, "channel": 0}, {"type": "note_on", "time": 0, "note": 64, "velocity": 119, "channel": 0}, {"type": "note_off", "time": 2090, "note": 64, "velocity": 119, "channel": 0}, {"type": "note_on", "time": 0, "note": 60, "velocity": 114, "channel": 0}, {"type": "note_off", "time": 2613, "note": 60, "velocity": 114, "channel": 0}, {"type": "note_on", "time": 0, "note": 62, "velocity": 119, "channel": 0}, {"type": "note_off", "time": 2482, "note": 62, "velocity": 119, "channel": 0}, {"type": "note_on", "time": 392, "note": 64, "velocity": 110, "channel": 0}, {"type": "note_off", "time": 23000, "note": 64, "velocity": 110, "channel": 0}, {"type": "note_on", "time": 0, "note": 60, "velocity": 51, "channel": 0}, {"type": "note_on", "time": 4312, "note": 61, "velocity": 114, "channel": 0}, {"type": "note_off", "time": 0, "note": 60, "velocity": 51, "channel": 0}, {"type": "note_off", "time": 2613, "note": 61, "velocity": 114, "channel": 0}, {"type": "note_on", "time": 130, "note": 63, "velocity": 118, "channel": 0}, {"type": "note_on", "time": 3920, "note": 61, "velocity": 106, "channel": 0}, {"type": "note_off", "time": 0, "note": 63, "velocity": 118, "channel": 0}, {"type": "note_off", "time": 2875, "note": 61, "velocity": 106, "channel": 0}, {"type": "note_on", "time": 392, "note": 56, "velocity": 100, "channel": 0}, {"type": "note_off", "time": 20517, "note": 56, "velocity": 100, "channel": 0}, {"type": "note_on", "time": 6926, "note": 61, "velocity": 113, "channel": 0}, {"type": "note_off", "time": 3397, "note": 61, "velocity": 113, "channel": 0}, {"type": "note_on", "time": 130, "note": 62, "velocity": 116, "channel": 0}, {"type": "note_off", "time": 3659, "note": 62, "velocity": 116, "channel": 0}, {"type": "note_on", "time": 1568, "note": 71, "velocity": 114, "channel": 0}, {"type": "note_off", "time": 4181, "note": 71, "velocity": 114, "channel": 0}, {"type": "note_on", "time": 1176, "note": 69, "velocity": 104, "channel": 0}, {"type": "note_off", "time": 3267, "note": 69, "velocity": 104, "channel": 0}, {"type": "note_on", "time": 130, "note": 67, "velocity": 116, "channel": 0}, {"type": "note_on", "time": 4312, "note": 66, "velocity": 112, "channel": 0}, {"type": "note_off", "time": 0, "note": 67, "velocity": 116, "channel": 0}, {"type": "note_off", "time": 3920, "note": 66, "velocity": 112, "channel": 0}, {"type": "note_on", "time": 1229, "note": 69, "velocity": 80, "channel": 0}, {"type": "note_off", "time": 22420, "note": 69, "velocity": 80, "channel": 0}, {"type": "note_on", "time": 8269, "note": 57, "velocity": 109, "channel": 0}, {"type": "note_off", "time": 2205, "note": 57, "velocity": 109, "channel": 0}, {"type": "note_on", "time": 183, "note": 58, "velocity": 112, "channel": 0}, {"type": "note_off", "time": 1837, "note": 58, "velocity": 112, "channel": 0}, {"type": "note_on", "time": 551, "note": 61, "velocity": 114, "channel": 0}, {"type": "note_off", "time": 4594, "note": 61, "velocity": 114, "channel": 0}, {"type": "note_on", "time": 183, "note": 62, "velocity": 118, "channel": 0}, {"type": "note_off", "time": 3859, "note": 62, "velocity": 118, "channel": 0}, {"type": "note_on", "time": 367, "note": 64, "velocity": 118, "channel": 0}, {"type": "note_off", "time": 4778, "note": 64, "velocity": 118, "channel": 0}, {"type": "note_on", "time": 0, "note": 66, "velocity": 117, "channel": 0}, {"type": "note_off", "time": 4226, "note": 66, "velocity": 117, "channel": 0}, {"type": "note_on", "time": 0, "note": 67, "velocity": 117, "channel": 0}, {"type": "note_off", "time": 4042, "note": 67, "velocity": 117, "channel": 0}, {"type": "note_on", "time": 735, "note": 69, "velocity": 99, "channel": 0}, {"type": "note_off", "time": 4961, "note": 69, "velocity": 99, "channel": 0}, {"type": "note_on", "time": 1939, "note": 69, "velocity": 84, "channel": 0}, {"type": "note_off", "time": 31886, "note": 69, "velocity": 84, "channel": 0}, {"type": "note_on", "time": 15159, "note": 69, "velocity": 101, "channel": 0}, {"type": "note_off", "time": 3528, "note": 69, "velocity": 101, "channel": 0}, {"type": "note_on", "time": 596, "note": 73, "velocity": 118, "channel": 0}, {"type": "note_off", "time": 4226, "note": 73, "velocity": 118, "channel": 0}, {"type": "note_on", "time": 1286, "note": 74, "velocity": 124, "channel": 0}, {"type": "note_off", "time": 4226, "note": 74, "velocity": 124, "channel": 0}, {"type": "note_on", "time": 551, "note": 73, "velocity": 117, "channel": 0}, {"type": "note_off", "time": 3491, "note": 73, "velocity": 117, "channel": 0}, {"type": "note_on", "time": 551, "note": 71, "velocity": 123, "channel": 0}, {"type": "note_off", "time": 4042, "note": 71, "velocity": 123, "channel": 0}, {"type": "note_on", "time": 0, "note": 74, "velocity": 115, "channel": 0}, {"type": "note_off", "time": 4594, "note": 74, "velocity": 115, "channel": 0}, {"type": "note_on", "time": 735, "note": 72, "velocity": 116, "channel": 0}, {"type": "note_off", "time": 3491, "note": 72, "velocity": 116, "channel": 0}, {"type": "note_on", "time": 551, "note": 70, "velocity": 113, "channel": 0}, {"type": "note_off", "time": 4410, "note": 70, "velocity": 113, "channel": 0}, {"type": "note_on", "time": 367, "note": 69, "velocity": 113, "channel": 0}, {"type": "note_off", "time": 2572, "note": 69, "velocity": 113, "channel": 0}, {"type": "note_on", "time": 367, "note": 67, "velocity": 114, "channel": 0}, {"type": "note_off", "time": 2205, "note": 67, "velocity": 114, "channel": 0}, {"type": "note_on", "time": 735, "note": 69, "velocity": 104, "channel": 0}, {"type": "note_off", "time": 13415, "note": 69, "velocity": 104, "channel": 0}, {"type": "note_on", "time": 2756, "note": 62, "velocity": 116, "channel": 0}, {"type": "note_off", "time": 3307, "note": 62, "velocity": 116, "channel": 0}, {"type": "note_on", "time": 322, "note": 67, "velocity": 93, "channel": 0}, {"type": "note_off", "time": 1045, "note": 67, "velocity": 93, "channel": 0}, {"type": "note_on", "time": 392, "note": 68, "velocity": 97, "channel": 0}, {"type": "note_off", "time": 914, "note": 68, "velocity": 97, "channel": 0}, {"type": "note_on", "time": 261, "note": 67, "velocity": 92, "channel": 0}, {"type": "note_off", "time": 739, "note": 67, "velocity": 92, "channel": 0}, {"type": "note_on", "time": 0, "note": 64, "velocity": 98, "channel": 0}, {"type": "note_off", "time": 1837, "note": 64, "velocity": 98, "channel": 0}, {"type": "note_on", "time": 367, "note": 62, "velocity": 119, "channel": 0}, {"type": "note_off", "time": 2756, "note": 62, "velocity": 119, "channel": 0}, {"type": "note_on", "time": 833, "note": 66, "velocity": 114, "channel": 0}, {"type": "note_off", "time": 1653, "note": 66, "velocity": 114, "channel": 0}, {"type": "note_on", "time": 269, "note": 67, "velocity": 109, "channel": 0}, {"type": "note_off", "time": 1470, "note": 67, "velocity": 109, "channel": 0}, {"type": "note_on", "time": 183, "note": 65, "velocity": 107, "channel": 0}, {"type": "note_off", "time": 551, "note": 65, "velocity": 107, "channel": 0}, {"type": "note_on", "time": 0, "note": 62, "velocity": 120, "channel": 0}, {"type": "note_off", "time": 3307, "note": 62, "velocity": 120, "channel": 0}, {"type": "note_on", "time": 927, "note": 66, "velocity": 93, "channel": 0}, {"type": "note_off", "time": 784, "note": 66, "velocity": 93, "channel": 0}, {"type": "note_on", "time": 0, "note": 67, "velocity": 104, "channel": 0}, {"type": "note_off", "time": 1306, "note": 67, "velocity": 104, "channel": 0}, {"type": "note_on", "time": 0, "note": 66, "velocity": 80, "channel": 0}, {"type": "note_off", "time": 653, "note": 66, "velocity": 80, "channel": 0}, {"type": "note_on", "time": 0, "note": 67, "velocity": 111, "channel": 0}, {"type": "note_off", "time": 1176, "note": 67, "velocity": 111, "channel": 0}, {"type": "note_on", "time": 298, "note": 66, "velocity": 103, "channel": 0}, {"type": "note_off", "time": 918, "note": 66, "velocity": 103, "channel": 0}, {"type": "note_on", "time": 183, "note": 62, "velocity": 119, "channel": 0}, {"type": "note_off", "time": 4594, "note": 62, "velocity": 119, "channel": 0}, {"type": "note_on", "time": 0, "note": 67, "velocity": 97, "channel": 0}, {"type": "note_on", "time": 918, "note": 68, "velocity": 103, "channel": 0}, {"type": "note_off", "time": 0, "note": 67, "velocity": 97, "channel": 0}, {"type": "note_off", "time": 551, "note": 68, "velocity": 103, "channel": 0}, {"type": "note_on", "time": 0, "note": 69, "velocity": 93, "channel": 0}, {"type": "note_off", "time": 1286, "note": 69, "velocity": 93, "channel": 0}, {"type": "note_on", "time": 0, "note": 68, "velocity": 107, "channel": 0}, {"type": "note_off", "time": 551, "note": 68, "velocity": 107, "channel": 0}, {"type": "note_on", "time": 0, "note": 67, "velocity": 105, "channel": 0}, {"type": "note_off", "time": 735, "note": 67, "velocity": 105, "channel": 0}, {"type": "note_on", "time": 367, "note": 62, "velocity": 119, "channel": 0}, {"type": "note_off", "time": 3491, "note": 62, "velocity": 119, "channel": 0}, {"type": "note_on", "time": 216, "note": 66, "velocity": 98, "channel": 0}, {"type": "note_off", "time": 1306, "note": 66, "velocity": 98, "channel": 0}, {"type": "note_on", "time": 0, "note": 67, "velocity": 114, "channel": 0}, {"type": "note_off", "time": 914, "note": 67, "velocity": 114, "channel": 0}, {"type": "note_on", "time": 0, "note": 68, "velocity": 100, "channel": 0}, {"type": "note_off", "time": 1829, "note": 68, "velocity": 100, "channel": 0}, {"type": "note_on", "time": 261, "note": 67, "velocity": 115, "channel": 0}, {"type": "note_off", "time": 914, "note": 67, "velocity": 115, "channel": 0}, {"type": "note_on", "time": 436, "note": 66, "velocity": 98, "channel": 0}, {"type": "note_off", "time": 918, "note": 66, "velocity": 98, "channel": 0}, {"type": "note_on", "time": 0, "note": 62, "velocity": 118, "channel": 0}, {"type": "note_off", "time": 3675, "note": 62, "velocity": 118, "channel": 0}, {"type": "note_on", "time": 918, "note": 65, "velocity": 96, "channel": 0}, {"type": "note_off", "time": 183, "note": 65, "velocity": 96, "channel": 0}, {"type": "note_on", "time": 0, "note": 66, "velocity": 106, "channel": 0}, {"type": "note_off", "time": 1286, "note": 66, "velocity": 106, "channel": 0}, {"type": "note_on", "time": 0, "note": 67, "velocity": 115, "channel": 0}, {"type": "note_off", "time": 918, "note": 67, "velocity": 115, "channel": 0}, {"type": "note_on", "time": 0, "note": 66, "velocity": 118, "channel": 0}, {"type": "note_off", "time": 551, "note": 66, "velocity": 118, "channel": 0}, {"type": "note_on", "time": 0, "note": 65, "velocity": 108, "channel": 0}, {"type": "note_off", "time": 1102, "note": 65, "velocity": 108, "channel": 0}, {"type": "note_on", "time": 0, "note": 62, "velocity": 118, "channel": 0}, {"type": "note_off", "time": 4594, "note": 62, "velocity": 118, "channel": 0}, {"type": "note_on", "time": 183, "note": 60, "velocity": 110, "channel": 0}, {"type": "note_off", "time": 918, "note": 60, "velocity": 110, "channel": 0}, {"type": "note_on", "time": 0, "note": 61, "velocity": 107, "channel": 0}, {"type": "note_off", "time": 1286, "note": 61, "velocity": 107, "channel": 0}, {"type": "note_on", "time": 183, "note": 60, "velocity": 117, "channel": 0}, {"type": "note_off", "time": 1837, "note": 60, "velocity": 117, "channel": 0}, {"type": "note_on", "time": 735, "note": 57, "velocity": 115, "channel": 0}, {"type": "note_off", "time": 3859, "note": 57, "velocity": 115, "channel": 0}, {"type": "note_on", "time": 183, "note": 60, "velocity": 97, "channel": 0}, {"type": "note_off", "time": 918, "note": 60, "velocity": 97, "channel": 0}, {"type": "note_on", "time": 0, "note": 61, "velocity": 105, "channel": 0}, {"type": "note_off", "time": 1286, "note": 61, "velocity": 105, "channel": 0}, {"type": "note_on", "time": 0, "note": 60, "velocity": 109, "channel": 0}, {"type": "note_off", "time": 2756, "note": 60, "velocity": 109, "channel": 0}, {"type": "note_on", "time": 367, "note": 57, "velocity": 109, "channel": 0}, {"type": "note_off", "time": 3859, "note": 57, "velocity": 109, "channel": 0}, {"type": "note_on", "time": 367, "note": 56, "velocity": 108, "channel": 0}, {"type": "note_off", "time": 918, "note": 56, "velocity": 108, "channel": 0}, {"type": "note_on", "time": 0, "note": 57, "velocity": 97, "channel": 0}, {"type": "note_off", "time": 367, "note": 57, "velocity": 97, "channel": 0}, {"type": "note_on", "time": 0, "note": 61, "velocity": 107, "channel": 0}, {"type": "note_off", "time": 643, "note": 61, "velocity": 107, "channel": 0}, {"type": "note_on", "time": 0, "note": 62, "velocity": 109, "channel": 0}, {"type": "note_off", "time": 918, "note": 62, "velocity": 109, "channel": 0}, {"type": "note_on", "time": 91, "note": 61, "velocity": 113, "channel": 0}, {"type": "note_off", "time": 551, "note": 61, "velocity": 113, "channel": 0}, {"type": "note_on", "time": 91, "note": 60, "velocity": 117, "channel": 0}, {"type": "note_off", "time": 2664, "note": 60, "velocity": 117, "channel": 0}, {"type": "note_on", "time": 183, "note": 57, "velocity": 110, "channel": 0}, {"type": "note_off", "time": 5880, "note": 57, "velocity": 110, "channel": 0}, {"type": "note_on", "time": 355, "note": 60, "velocity": 119, "channel": 0}, {"type": "note_off", "time": 4443, "note": 60, "velocity": 119, "channel": 0}, {"type": "note_on", "time": 0, "note": 62, "velocity": 112, "channel": 0}, {"type": "note_off", "time": 29272, "note": 62, "velocity": 112, "channel": 0}, {"type": "note_on", "time": 130, "note": 60, "velocity": 108, "channel": 0}, {"type": "note_off", "time": 2613, "note": 60, "velocity": 108, "channel": 0}, {"type": "note_on", "time": 130, "note": 57, "velocity": 109, "channel": 0}, {"type": "note_off", "time": 3659, "note": 57, "velocity": 109, "channel": 0}, {"type": "note_on", "time": 0, "note": 56, "velocity": 109, "channel": 0}, {"type": "note_off", "time": 15159, "note": 56, "velocity": 109, "channel": 0}, {"type": "note_on", "time": 1020, "note": 57, "velocity": 104, "channel": 0}, {"type": "note_off", "time": 20582, "note": 57, "velocity": 104, "channel": 0}, {"type": "note_on", "time": 183, "note": 69, "velocity": 81, "channel": 0}, {"type": "note_off", "time": 30322, "note": 69, "velocity": 81, "channel": 0}, {"type": "note_on", "time": 183, "note": 67, "velocity": 112, "channel": 0}, {"type": "note_off", "time": 3675, "note": 67, "velocity": 112, "channel": 0}, {"type": "note_on", "time": 735, "note": 65, "velocity": 108, "channel": 0}, {"type": "note_off", "time": 3307, "note": 65, "velocity": 108, "channel": 0}, {"type": "note_on", "time": 551, "note": 64, "velocity": 100, "channel": 0}, {"type": "note_off", "time": 16355, "note": 64, "velocity": 100, "channel": 0}, {"type": "note_on", "time": 33262, "note": 62, "velocity": 116, "channel": 0}, {"type": "note_off", "time": 2756, "note": 62, "velocity": 116, "channel": 0}, {"type": "note_on", "time": 551, "note": 60, "velocity": 122, "channel": 0}, {"type": "note_off", "time": 1470, "note": 60, "velocity": 122, "channel": 0}, {"type": "note_on", "time": 1102, "note": 58, "velocity": 117, "channel": 0}, {"type": "note_off", "time": 1837, "note": 58, "velocity": 117, "channel": 0}, {"type": "note_on", "time": 0, "note": 60, "velocity": 123, "channel": 0}, {"type": "note_off", "time": 2021, "note": 60, "velocity": 123, "channel": 0}, {"type": "note_on", "time": 0, "note": 63, "velocity": 119, "channel": 0}, {"type": "note_on", "time": 918, "note": 66, "velocity": 116, "channel": 0}, {"type": "note_off", "time": 0, "note": 63, "velocity": 119, "channel": 0}, {"type": "note_off", "time": 735, "note": 66, "velocity": 116, "channel": 0}, {"type": "note_on", "time": 0, "note": 67, "velocity": 121, "channel": 0}, {"type": "note_off", "time": 735, "note": 67, "velocity": 121, "channel": 0}, {"type": "note_on", "time": 0, "note": 68, "velocity": 114, "channel": 0}, {"type": "note_off", "time": 1102, "note": 68, "velocity": 114, "channel": 0}, {"type": "note_on", "time": 0, "note": 71, "velocity": 122, "channel": 0}, {"type": "note_off", "time": 4042, "note": 71, "velocity": 122, "channel": 0}, {"type": "note_on", "time": 0, "note": 74, "velocity": 122, "channel": 0}, {"type": "note_off", "time": 3859, "note": 74, "velocity": 122, "channel": 0}, {"type": "note_on", "time": 918, "note": 72, "velocity": 119, "channel": 0}, {"type": "note_off", "time": 3491, "note": 72, "velocity": 119, "channel": 0}, {"type": "note_on", "time": 183, "note": 71, "velocity": 121, "channel": 0}, {"type": "note_off", "time": 4410, "note": 71, "velocity": 121, "channel": 0}, {"type": "note_on", "time": 183, "note": 69, "velocity": 112, "channel": 0}, {"type": "note_off", "time": 3675, "note": 69, "velocity": 112, "channel": 0}, {"type": "note_on", "time": 367, "note": 74, "velocity": 110, "channel": 0}, {"type": "note_off", "time": 2940, "note": 74, "velocity": 110, "channel": 0}, {"type": "note_on", "time": 1470, "note": 72, "velocity": 112, "channel": 0}, {"type": "note_off", "time": 2756, "note": 72, "velocity": 112, "channel": 0}, {"type": "note_on", "time": 530, "note": 63, "velocity": 112, "channel": 0}, {"type": "note_off", "time": 26397, "note": 63, "velocity": 112, "channel": 0}, {"type": "note_on", "time": 392, "note": 61, "velocity": 111, "channel": 0}, {"type": "note_off", "time": 3267, "note": 61, "velocity": 111, "channel": 0}, {"type": "note_on", "time": 1020, "note": 62, "velocity": 110, "channel": 0}, {"type": "note_off", "time": 4961, "note": 62, "velocity": 110, "channel": 0}, {"type": "note_on", "time": 0, "note": 72, "velocity": 96, "channel": 0}, {"type": "note_off", "time": 14701, "note": 72, "velocity": 96, "channel": 0}, {"type": "note_on", "time": 1653, "note": 69, "velocity": 92, "channel": 0}, {"type": "note_off", "time": 14517, "note": 69, "velocity": 92, "channel": 0}, {"type": "note_on", "time": 367, "note": 65, "velocity": 105, "channel": 0}, {"type": "note_off", "time": 4961, "note": 65, "velocity": 105, "channel": 0}, {"type": "note_on", "time": 551, "note": 64, "velocity": 101, "channel": 0}, {"type": "note_off", "time": 24441, "note": 64, "velocity": 101, "channel": 0}, {"type": "note_on", "time": 918, "note": 62, "velocity": 111, "channel": 0}, {"type": "note_off", "time": 3491, "note": 62, "velocity": 111, "channel": 0}, {"type": "note_on", "time": 2572, "note": 69, "velocity": 94, "channel": 0}, {"type": "note_off", "time": 3491, "note": 69, "velocity": 94, "channel": 0}, {"type": "note_on", "time": 735, "note": 67, "velocity": 113, "channel": 0}, {"type": "note_off", "time": 4961, "note": 67, "velocity": 113, "channel": 0}, {"type": "note_on", "time": 183, "note": 64, "velocity": 109, "channel": 0}, {"type": "note_off", "time": 14150, "note": 64, "velocity": 109, "channel": 0}, {"type": "note_on", "time": 551, "note": 60, "velocity": 109, "channel": 0}, {"type": "note_off", "time": 3675, "note": 60, "velocity": 109, "channel": 0}, {"type": "note_on", "time": 551, "note": 63, "velocity": 109, "channel": 0}, {"type": "note_off", "time": 16171, "note": 63, "velocity": 109, "channel": 0}, {"type": "note_on", "time": 367, "note": 59, "velocity": 107, "channel": 0}, {"type": "note_off", "time": 2389, "note": 59, "velocity": 107, "channel": 0}, {"type": "note_on", "time": 1102, "note": 62, "velocity": 104, "channel": 0}, {"type": "note_off", "time": 16355, "note": 62, "velocity": 104, "channel": 0}, {"type": "note_on", "time": 735, "note": 58, "velocity": 99, "channel": 0}, {"type": "note_off", "time": 2940, "note": 58, "velocity": 99, "channel": 0}, {"type": "note_on", "time": 0, "note": 70, "velocity": 98, "channel": 0}, {"type": "note_off", "time": 17090, "note": 70, "velocity": 98, "channel": 0}, {"type": "note_on", "time": 735, "note": 68, "velocity": 104, "channel": 0}, {"type": "note_off", "time": 3675, "note": 68, "velocity": 104, "channel": 0}, {"type": "note_on", "time": 1102, "note": 66, "velocity": 97, "channel": 0}, {"type": "note_off", "time": 15804, "note": 66, "velocity": 97, "channel": 0}, {"type": "note_on", "time": 367, "note": 65, "velocity": 108, "channel": 0}, {"type": "note_off", "time": 3307, "note": 65, "velocity": 108, "channel": 0}, {"type": "note_on", "time": 918, "note": 63, "velocity": 101, "channel": 0}, {"type": "note_off", "time": 15620, "note": 63, "velocity": 101, "channel": 0}, {"type": "note_on", "time": 0, "note": 62, "velocity": 107, "channel": 0}, {"type": "note_off", "time": 4410, "note": 62, "velocity": 107, "channel": 0}, {"type": "note_on", "time": 183, "note": 63, "velocity": 103, "channel": 0}, {"type": "note_off", "time": 15436, "note": 63, "velocity": 103, "channel": 0}, {"type": "note_on", "time": 11761, "note": 58, "velocity": 84, "channel": 0}, {"type": "note_off", "time": 4778, "note": 58, "velocity": 84, "channel": 0}, {"type": "note_on", "time": 183, "note": 70, "velocity": 112, "channel": 0}, {"type": "note_off", "time": 3675, "note": 70, "velocity": 112, "channel": 0}, {"type": "note_on", "time": 551, "note": 68, "velocity": 108, "channel": 0}, {"type": "note_off", "time": 4226, "note": 68, "velocity": 108, "channel": 0}, {"type": "note_on", "time": 551, "note": 66, "velocity": 117, "channel": 0}, {"type": "note_off", "time": 4594, "note": 66, "velocity": 117, "channel": 0}, {"type": "note_on", "time": 183, "note": 65, "velocity": 110, "channel": 0}, {"type": "note_off", "time": 3675, "note": 65, "velocity": 110, "channel": 0}, {"type": "note_on", "time": 183, "note": 63, "velocity": 120, "channel": 0}, {"type": "note_off", "time": 6064, "note": 63, "velocity": 120, "channel": 0}, {"type": "note_on", "time": 183, "note": 62, "velocity": 117, "channel": 0}, {"type": "note_off", "time": 3307, "note": 62, "velocity": 117, "channel": 0}, {"type": "note_on", "time": 2940, "note": 63, "velocity": 101, "channel": 0}, {"type": "note_off", "time": 18377, "note": 63, "velocity": 101, "channel": 0}, {"type": "note_on", "time": 8085, "note": 69, "velocity": 111, "channel": 0}, {"type": "note_off", "time": 2021, "note": 69, "velocity": 111, "channel": 0}, {"type": "note_on", "time": 0, "note": 70, "velocity": 113, "channel": 0}, {"type": "note_on", "time": 1837, "note": 71, "velocity": 114, "channel": 0}, {"type": "note_off", "time": 0, "note": 70, "velocity": 113, "channel": 0}, {"type": "note_off", "time": 3124, "note": 71, "velocity": 114, "channel": 0}, {"type": "note_on", "time": 0, "note": 67, "velocity": 123, "channel": 0}, {"type": "note_off", "time": 2205, "note": 67, "velocity": 123, "channel": 0}, {"type": "note_on", "time": 0, "note": 63, "velocity": 115, "channel": 0}, {"type": "note_off", "time": 1470, "note": 63, "velocity": 115, "channel": 0}, {"type": "note_on", "time": 183, "note": 60, "velocity": 123, "channel": 0}, {"type": "note_off", "time": 4410, "note": 60, "velocity": 123, "channel": 0}, {"type": "note_on", "time": 0, "note": 59, "velocity": 116, "channel": 0}, {"type": "note_off", "time": 4686, "note": 59, "velocity": 116, "channel": 0}, {"type": "note_on", "time": 0, "note": 56, "velocity": 123, "channel": 0}, {"type": "note_off", "time": 3767, "note": 56, "velocity": 123, "channel": 0}, {"type": "note_on", "time": 275, "note": 55, "velocity": 110, "channel": 0}, {"type": "note_off", "time": 1010, "note": 55, "velocity": 110, "channel": 0}, {"type": "note_on", "time": 0, "note": 52, "velocity": 110, "channel": 0}, {"type": "note_off", "time": 1102, "note": 52, "velocity": 110, "channel": 0}, {"type": "note_on", "time": 0, "note": 51, "velocity": 114, "channel": 0}, {"type": "note_off", "time": 551, "note": 51, "velocity": 114, "channel": 0}, {"type": "note_on", "time": 643, "note": 47, "velocity": 112, "channel": 0}, {"type": "note_off", "time": 1653, "note": 47, "velocity": 112, "channel": 0}, {"type": "note_on", "time": 367, "note": 45, "velocity": 121, "channel": 0}, {"type": "note_off", "time": 1286, "note": 45, "velocity": 121, "channel": 0}, {"type": "note_on", "time": 183, "note": 45, "velocity": 118, "channel": 0}, {"type": "note_off", "time": 2940, "note": 45, "velocity": 118, "channel": 0}, {"type": "note_on", "time": 183, "note": 44, "velocity": 115, "channel": 0}, {"type": "note_off", "time": 33446, "note": 44, "velocity": 115, "channel": 0}, {"type": "note_on", "time": 275, "note": 46, "velocity": 112, "channel": 0}, {"type": "note_off", "time": 4594, "note": 46, "velocity": 112, "channel": 0}, {"type": "note_on", "time": 2021, "note": 44, "velocity": 120, "channel": 0}, {"type": "note_off", "time": 2205, "note": 44, "velocity": 120, "channel": 0}, {"type": "note_on", "time": 183, "note": 46, "velocity": 108, "channel": 0}, {"type": "note_off", "time": 13966, "note": 46, "velocity": 108, "channel": 0}, {"type": "note_on", "time": 11945, "note": 68, "velocity": 105, "channel": 0}, {"type": "note_off", "time": 3859, "note": 68, "velocity": 105, "channel": 0}, {"type": "note_on", "time": 1470, "note": 70, "velocity": 104, "channel": 0}, {"type": "note_off", "time": 3859, "note": 70, "velocity": 104, "channel": 0}, {"type": "note_on", "time": 183, "note": 68, "velocity": 106, "channel": 0}, {"type": "note_off", "time": 3124, "note": 68, "velocity": 106, "channel": 0}, {"type": "note_on", "time": 2756, "note": 70, "velocity": 102, "channel": 0}, {"type": "note_off", "time": 3859, "note": 70, "velocity": 102, "channel": 0}, {"type": "note_on", "time": 367, "note": 68, "velocity": 102, "channel": 0}, {"type": "note_off", "time": 3124, "note": 68, "velocity": 102, "channel": 0}, {"type": "note_on", "time": 2205, "note": 70, "velocity": 95, "channel": 0}, {"type": "note_off", "time": 2572, "note": 70, "velocity": 95, "channel": 0}, {"type": "note_on", "time": 551, "note": 68, "velocity": 113, "channel": 0}, {"type": "note_off", "time": 3491, "note": 68, "velocity": 113, "channel": 0}, {"type": "note_on", "time": 918, "note": 75, "velocity": 109, "channel": 0}, {"type": "note_off", "time": 4410, "note": 75, "velocity": 109, "channel": 0}, {"type": "note_on", "time": 918, "note": 68, "velocity": 112, "channel": 0}, {"type": "note_off", "time": 4410, "note": 68, "velocity": 112, "channel": 0}, {"type": "note_on", "time": 0, "note": 70, "velocity": 100, "channel": 0}, {"type": "note_off", "time": 3307, "note": 70, "velocity": 100, "channel": 0}, {"type": "note_on", "time": 367, "note": 68, "velocity": 113, "channel": 0}, {"type": "note_off", "time": 3307, "note": 68, "velocity": 113, "channel": 0}, {"type": "note_on", "time": 551, "note": 67, "velocity": 104, "channel": 0}, {"type": "note_off", "time": 11761, "note": 67, "velocity": 104, "channel": 0}, {"type": "note_on", "time": 183, "note": 69, "velocity": 102, "channel": 0}, {"type": "note_off", "time": 3859, "note": 69, "velocity": 102, "channel": 0}, {"type": "note_on", "time": 0, "note": 67, "velocity": 110, "channel": 0}, {"type": "note_off", "time": 3675, "note": 67, "velocity": 110, "channel": 0}, {"type": "note_on", "time": 735, "note": 74, "velocity": 100, "channel": 0}, {"type": "note_off", "time": 9004, "note": 74, "velocity": 100, "channel": 0}, {"type": "note_on", "time": 4594, "note": 66, "velocity": 102, "channel": 0}, {"type": "note_off", "time": 2940, "note": 66, "velocity": 102, "channel": 0}, {"type": "note_on", "time": 367, "note": 68, "velocity": 111, "channel": 0}, {"type": "note_off", "time": 3307, "note": 68, "velocity": 111, "channel": 0}, {"type": "note_on", "time": 183, "note": 66, "velocity": 109, "channel": 0}, {"type": "note_off", "time": 4226, "note": 66, "velocity": 109, "channel": 0}, {"type": "note_on", "time": 183, "note": 68, "velocity": 107, "channel": 0}, {"type": "note_off", "time": 17274, "note": 68, "velocity": 107, "channel": 0}, {"type": "note_on", "time": 19296, "note": 65, "velocity": 114, "channel": 0}, {"type": "note_off", "time": 2756, "note": 65, "velocity": 114, "channel": 0}, {"type": "note_on", "time": 183, "note": 64, "velocity": 111, "channel": 0}, {"type": "note_off", "time": 2205, "note": 64, "velocity": 111, "channel": 0}, {"type": "note_on", "time": 551, "note": 65, "velocity": 108, "channel": 0}, {"type": "note_off", "time": 1653, "note": 65, "velocity": 108, "channel": 0}, {"type": "note_on", "time": 367, "note": 68, "velocity": 113, "channel": 0}, {"type": "note_off", "time": 1837, "note": 68, "velocity": 113, "channel": 0}, {"type": "note_on", "time": 367, "note": 63, "velocity": 120, "channel": 0}, {"type": "note_off", "time": 2389, "note": 63, "velocity": 120, "channel": 0}, {"type": "note_on", "time": 0, "note": 62, "velocity": 119, "channel": 0}, {"type": "note_off", "time": 1837, "note": 62, "velocity": 119, "channel": 0}, {"type": "note_on", "time": 183, "note": 63, "velocity": 120, "channel": 0}, {"type": "note_off", "time": 1837, "note": 63, "velocity": 120, "channel": 0}, {"type": "note_on", "time": 735, "note": 65, "velocity": 122, "channel": 0}, {"type": "note_off", "time": 3491, "note": 65, "velocity": 122, "channel": 0}, {"type": "note_on", "time": 367, "note": 63, "velocity": 120, "channel": 0}, {"type": "note_off", "time": 2756, "note": 63, "velocity": 120, "channel": 0}, {"type": "note_on", "time": 367, "note": 62, "velocity": 114, "channel": 0}, {"type": "note_off", "time": 2021, "note": 62, "velocity": 114, "channel": 0}, {"type": "note_on", "time": 183, "note": 65, "velocity": 113, "channel": 0}, {"type": "note_off", "time": 2572, "note": 65, "velocity": 113, "channel": 0}, {"type": "note_on", "time": 1102, "note": 63, "velocity": 123, "channel": 0}, {"type": "note_off", "time": 1837, "note": 63, "velocity": 123, "channel": 0}, {"type": "note_on", "time": 735, "note": 61, "velocity": 115, "channel": 0}, {"type": "note_off", "time": 1837, "note": 61, "velocity": 115, "channel": 0}, {"type": "note_on", "time": 551, "note": 60, "velocity": 121, "channel": 0}, {"type": "note_off", "time": 3675, "note": 60, "velocity": 121, "channel": 0}, {"type": "note_on", "time": 367, "note": 58, "velocity": 118, "channel": 0}, {"type": "note_off", "time": 2940, "note": 58, "velocity": 118, "channel": 0}, {"type": "note_on", "time": 0, "note": 57, "velocity": 116, "channel": 0}, {"type": "note_off", "time": 8269, "note": 57, "velocity": 116, "channel": 0}, {"type": "note_on", "time": 0, "note": 58, "velocity": 120, "channel": 0}, {"type": "note_off", "time": 11945, "note": 58, "velocity": 120, "channel": 0}, {"type": "note_on", "time": 183, "note": 59, "velocity": 118, "channel": 0}, {"type": "note_off", "time": 9739, "note": 59, "velocity": 118, "channel": 0}, {"type": "note_on", "time": 183, "note": 60, "velocity": 115, "channel": 0}, {"type": "note_off", "time": 8821, "note": 60, "velocity": 115, "channel": 0}, {"type": "note_on", "time": 183, "note": 68, "velocity": 111, "channel": 0}, {"type": "note_off", "time": 10474, "note": 68, "velocity": 111, "channel": 0}, {"type": "note_on", "time": 735, "note": 66, "velocity": 113, "channel": 0}, {"type": "note_off", "time": 8453, "note": 66, "velocity": 113, "channel": 0}, {"type": "note_on", "time": 1286, "note": 73, "velocity": 105, "channel": 0}, {"type": "note_off", "time": 8453, "note": 73, "velocity": 105, "channel": 0}, {"type": "note_on", "time": 551, "note": 69, "velocity": 97, "channel": 0}, {"type": "note_off", "time": 10291, "note": 69, "velocity": 97, "channel": 0}, {"type": "note_on", "time": 735, "note": 72, "velocity": 100, "channel": 0}, {"type": "note_off", "time": 9004, "note": 72, "velocity": 100, "channel": 0}, {"type": "note_on", "time": 1102, "note": 70, "velocity": 95, "channel": 0}, {"type": "note_off", "time": 9739, "note": 70, "velocity": 95, "channel": 0}, {"type": "note_on", "time": 1102, "note": 65, "velocity": 109, "channel": 0}, {"type": "note_off", "time": 9923, "note": 65, "velocity": 109, "channel": 0}, {"type": "note_on", "time": 1286, "note": 61, "velocity": 111, "channel": 0}, {"type": "note_off", "time": 8085, "note": 61, "velocity": 111, "channel": 0}, {"type": "note_on", "time": 367, "note": 59, "velocity": 110, "channel": 0}, {"type": "note_off", "time": 10474, "note": 59, "velocity": 110, "channel": 0}, {"type": "note_on", "time": 1102, "note": 57, "velocity": 111, "channel": 0}, {"type": "note_off", "time": 7350, "note": 57, "velocity": 111, "channel": 0}, {"type": "note_on", "time": 2389, "note": 67, "velocity": 106, "channel": 0}, {"type": "note_off", "time": 10107, "note": 67, "velocity": 106, "channel": 0}, {"type": "note_on", "time": 367, "note": 68, "velocity": 115, "channel": 0}, {"type": "note_off", "time": 8821, "note": 68, "velocity": 115, "channel": 0}, {"type": "note_on", "time": 918, "note": 60, "velocity": 107, "channel": 0}, {"type": "note_off", "time": 28852, "note": 60, "velocity": 107, "channel": 0}, {"type": "note_on", "time": 4961, "note": 68, "velocity": 122, "channel": 0}, {"type": "note_off", "time": 4042, "note": 68, "velocity": 122, "channel": 0}, {"type": "note_on", "time": 183, "note": 69, "velocity": 107, "channel": 0}, {"type": "note_off", "time": 4226, "note": 69, "velocity": 107, "channel": 0}, {"type": "note_on", "time": 551, "note": 61, "velocity": 9, "channel": 0}, {"type": "note_off", "time": 30322, "note": 61, "velocity": 9, "channel": 0}, {"type": "note_on", "time": 1837, "note": 68, "velocity": 121, "channel": 0}, {"type": "note_off", "time": 4594, "note": 68, "velocity": 121, "channel": 0}, {"type": "note_on", "time": 551, "note": 69, "velocity": 106, "channel": 0}, {"type": "note_off", "time": 3307, "note": 69, "velocity": 106, "channel": 0}, {"type": "note_on", "time": 735, "note": 71, "velocity": 112, "channel": 0}, {"type": "note_off", "time": 4410, "note": 71, "velocity": 112, "channel": 0}, {"type": "note_on", "time": 551, "note": 69, "velocity": 91, "channel": 0}, {"type": "note_off", "time": 19112, "note": 69, "velocity": 91, "channel": 0}, {"type": "note_on", "time": 918, "note": 67, "velocity": 113, "channel": 0}, {"type": "note_off", "time": 4778, "note": 67, "velocity": 113, "channel": 0}, {"type": "note_on", "time": 183, "note": 66, "velocity": 111, "channel": 0}, {"type": "note_off", "time": 3859, "note": 66, "velocity": 111, "channel": 0}, {"type": "note_on", "time": 0, "note": 64, "velocity": 112, "channel": 0}, {"type": "note_off", "time": 3307, "note": 64, "velocity": 112, "channel": 0}, {"type": "note_on", "time": 551, "note": 67, "velocity": 101, "channel": 0}, {"type": "note_off", "time": 6432, "note": 67, "velocity": 101, "channel": 0}, {"type": "note_on", "time": 735, "note": 66, "velocity": 101, "channel": 0}, {"type": "note_off", "time": 11393, "note": 66, "velocity": 101, "channel": 0}, {"type": "note_on", "time": 32711, "note": 56, "velocity": 121, "channel": 0}, {"type": "note_off", "time": 4594, "note": 56, "velocity": 121, "channel": 0}, {"type": "note_on", "time": 183, "note": 57, "velocity": 117, "channel": 0}, {"type": "note_off", "time": 4961, "note": 57, "velocity": 117, "channel": 0}, {"type": "note_on", "time": 735, "note": 71, "velocity": 121, "channel": 0}, {"type": "note_off", "time": 5145, "note": 71, "velocity": 121, "channel": 0}, {"type": "note_on", "time": 183, "note": 69, "velocity": 114, "channel": 0}, {"type": "note_off", "time": 4410, "note": 69, "velocity": 114, "channel": 0}, {"type": "note_on", "time": 183, "note": 66, "velocity": 124, "channel": 0}, {"type": "note_off", "time": 4042, "note": 66, "velocity": 124, "channel": 0}, {"type": "note_on", "time": 735, "note": 62, "velocity": 122, "channel": 0}, {"type": "note_off", "time": 3307, "note": 62, "velocity": 122, "channel": 0}, {"type": "note_on", "time": 1470, "note": 74, "velocity": 109, "channel": 0}, {"type": "note_off", "time": 28117, "note": 74, "velocity": 109, "channel": 0}, {"type": "note_on", "time": 183, "note": 72, "velocity": 108, "channel": 0}, {"type": "note_off", "time": 3859, "note": 72, "velocity": 108, "channel": 0}, {"type": "note_on", "time": 1286, "note": 70, "velocity": 96, "channel": 0}, {"type": "note_off", "time": 4778, "note": 70, "velocity": 96, "channel": 0}, {"type": "note_on", "time": 551, "note": 62, "velocity": 113, "channel": 0}, {"type": "note_off", "time": 3491, "note": 62, "velocity": 113, "channel": 0}, {"type": "note_on", "time": 3675, "note": 69, "velocity": 95, "channel": 0}, {"type": "note_off", "time": 22052, "note": 69, "velocity": 95, "channel": 0}, {"type": "note_on", "time": 1653, "note": 62, "velocity": 111, "channel": 0}, {"type": "note_off", "time": 5145, "note": 62, "velocity": 111, "channel": 0}, {"type": "note_on", "time": 1470, "note": 69, "velocity": 102, "channel": 0}, {"type": "note_off", "time": 2940, "note": 69, "velocity": 102, "channel": 0}, {"type": "note_on", "time": 0, "note": 62, "velocity": 111, "channel": 0}, {"type": "note_off", "time": 4226, "note": 62, "velocity": 111, "channel": 0}, {"type": "note_on", "time": 551, "note": 69, "velocity": 96, "channel": 0}, {"type": "note_off", "time": 27933, "note": 69, "velocity": 96, "channel": 0}, {"type": "note_on", "time": 183, "note": 62, "velocity": 107, "channel": 0}, {"type": "note_off", "time": 3124, "note": 62, "velocity": 107, "channel": 0}, {"type": "note_on", "time": 918, "note": 69, "velocity": 96, "channel": 0}, {"type": "note_off", "time": 5513, "note": 69, "velocity": 96, "channel": 0}, {"type": "note_on", "time": 367, "note": 62, "velocity": 97, "channel": 0}, {"type": "note_off", "time": 3675, "note": 62, "velocity": 97, "channel": 0}, {"type": "note_on", "time": 2572, "note": 69, "velocity": 96, "channel": 0}, {"type": "note_off", "time": 25544, "note": 69, "velocity": 96, "channel": 0}, {"type": "note_on", "time": 1102, "note": 61, "velocity": 103, "channel": 0}, {"type": "note_off", "time": 4961, "note": 61, "velocity": 103, "channel": 0}, {"type": "note_on", "time": 735, "note": 68, "velocity": 107, "channel": 0}, {"type": "note_off", "time": 4226, "note": 68, "velocity": 107, "channel": 0}, {"type": "note_on", "time": 735, "note": 61, "velocity": 96, "channel": 0}, {"type": "note_off", "time": 3491, "note": 61, "velocity": 96, "channel": 0}, {"type": "note_on", "time": 367, "note": 68, "velocity": 103, "channel": 0}, {"type": "note_off", "time": 21685, "note": 68, "velocity": 103, "channel": 0}, {"type": "note_on", "time": 0, "note": 61, "velocity": 101, "channel": 0}, {"type": "note_off", "time": 4226, "note": 61, "velocity": 101, "channel": 0}, {"type": "note_on", "time": 551, "note": 68, "velocity": 111, "channel": 0}, {"type": "note_off", "time": 3859, "note": 68, "velocity": 111, "channel": 0}, {"type": "note_on", "time": 551, "note": 61, "velocity": 100, "channel": 0}, {"type": "note_off", "time": 2572, "note": 61, "velocity": 100, "channel": 0}, {"type": "note_on", "time": 735, "note": 69, "velocity": 88, "channel": 0}, {"type": "note_off", "time": 23522, "note": 69, "velocity": 88, "channel": 0}, {"type": "note_on", "time": 46494, "note": 70, "velocity": 118, "channel": 0}, {"type": "note_off", "time": 4226, "note": 70, "velocity": 118, "channel": 0}, {"type": "note_on", "time": 367, "note": 71, "velocity": 122, "channel": 0}, {"type": "note_off", "time": 4226, "note": 71, "velocity": 122, "channel": 0}, {"type": "note_on", "time": 0, "note": 74, "velocity": 118, "channel": 0}, {"type": "note_off", "time": 5145, "note": 74, "velocity": 118, "channel": 0}, {"type": "note_on", "time": 183, "note": 72, "velocity": 114, "channel": 0}, {"type": "note_off", "time": 4410, "note": 72, "velocity": 114, "channel": 0}, {"type": "note_on", "time": 367, "note": 67, "velocity": 118, "channel": 0}, {"type": "note_off", "time": 3124, "note": 67, "velocity": 118, "channel": 0}, {"type": "note_on", "time": 2572, "note": 64, "velocity": 117, "channel": 0}, {"type": "note_off", "time": 2572, "note": 64, "velocity": 117, "channel": 0}, {"type": "note_on", "time": 1102, "note": 62, "velocity": 120, "channel": 0}, {"type": "note_off", "time": 2572, "note": 62, "velocity": 120, "channel": 0}, {"type": "note_on", "time": 3307, "note": 60, "velocity": 117, "channel": 0}, {"type": "note_off", "time": 3491, "note": 60, "velocity": 117, "channel": 0}, {"type": "note_on", "time": 367, "note": 59, "velocity": 107, "channel": 0}, {"type": "note_off", "time": 8821, "note": 59, "velocity": 107, "channel": 0}, {"type": "note_on", "time": 0, "note": 60, "velocity": 115, "channel": 0}, {"type": "note_off", "time": 2756, "note": 60, "velocity": 115, "channel": 0}, {"type": "note_on", "time": 367, "note": 62, "velocity": 115, "channel": 0}, {"type": "note_off", "time": 2021, "note": 62, "velocity": 115, "channel": 0}, {"type": "note_on", "time": 1470, "note": 64, "velocity": 123, "channel": 0}, {"type": "note_off", "time": 2021, "note": 64, "velocity": 123, "channel": 0}, {"type": "note_on", "time": 918, "note": 67, "velocity": 119, "channel": 0}, {"type": "note_off", "time": 5329, "note": 67, "velocity": 119, "channel": 0}, {"type": "note_on", "time": 0, "note": 69, "velocity": 108, "channel": 0}, {"type": "note_off", "time": 4410, "note": 69, "velocity": 108, "channel": 0}, {"type": "note_on", "time": 0, "note": 71, "velocity": 118, "channel": 0}, {"type": "note_off", "time": 4226, "note": 71, "velocity": 118, "channel": 0}, {"type": "note_on", "time": 735, "note": 72, "velocity": 112, "channel": 0}, {"type": "note_off", "time": 4042, "note": 72, "velocity": 112, "channel": 0}, {"type": "note_on", "time": 183, "note": 73, "velocity": 103, "channel": 0}, {"type": "note_off", "time": 10107, "note": 73, "velocity": 103, "channel": 0}, {"type": "note_on", "time": 2205, "note": 70, "velocity": 102, "channel": 0}, {"type": "note_off", "time": 2940, "note": 70, "velocity": 102, "channel": 0}, {"type": "note_on", "time": 0, "note": 66, "velocity": 108, "channel": 0}, {"type": "note_off", "time": 2572, "note": 66, "velocity": 108, "channel": 0}, {"type": "note_on", "time": 0, "note": 63, "velocity": 117, "channel": 0}, {"type": "note_off", "time": 3491, "note": 63, "velocity": 117, "channel": 0}, {"type": "note_on", "time": 183, "note": 62, "velocity": 107, "channel": 0}, {"type": "note_off", "time": 21501, "note": 62, "velocity": 107, "channel": 0}, {"type": "note_on", "time": 367, "note": 64, "velocity": 118, "channel": 0}, {"type": "note_off", "time": 3124, "note": 64, "velocity": 118, "channel": 0}, {"type": "note_on", "time": 183, "note": 65, "velocity": 105, "channel": 0}, {"type": "note_off", "time": 1286, "note": 65, "velocity": 105, "channel": 0}, {"type": "note_on", "time": 367, "note": 67, "velocity": 112, "channel": 0}, {"type": "note_off", "time": 2389, "note": 67, "velocity": 112, "channel": 0}, {"type": "note_on", "time": 0, "note": 64, "velocity": 111, "channel": 0}, {"type": "note_off", "time": 2572, "note": 64, "velocity": 111, "channel": 0}, {"type": "note_on", "time": 183, "note": 65, "velocity": 109, "channel": 0}, {"type": "note_off", "time": 2021, "note": 65, "velocity": 109, "channel": 0}, {"type": "note_on", "time": 0, "note": 62, "velocity": 115, "channel": 0}, {"type": "note_off", "time": 2205, "note": 62, "velocity": 115, "channel": 0}, {"type": "note_on", "time": 735, "note": 64, "velocity": 117, "channel": 0}, {"type": "note_off", "time": 2021, "note": 64, "velocity": 117, "channel": 0}, {"type": "note_on", "time": 551, "note": 65, "velocity": 108, "channel": 0}, {"type": "note_off", "time": 1837, "note": 65, "velocity": 108, "channel": 0}, {"type": "note_on", "time": 0, "note": 67, "velocity": 115, "channel": 0}, {"type": "note_off", "time": 3124, "note": 67, "velocity": 115, "channel": 0}, {"type": "note_on", "time": 735, "note": 69, "velocity": 92, "channel": 0}, {"type": "note_off", "time": 13782, "note": 69, "velocity": 92, "channel": 0}, {"type": "note_on", "time": 0, "note": 72, "velocity": 102, "channel": 0}, {"type": "note_off", "time": 4226, "note": 72, "velocity": 102, "channel": 0}, {"type": "note_on", "time": 183, "note": 71, "velocity": 104, "channel": 0}, {"type": "note_off", "time": 4410, "note": 71, "velocity": 104, "channel": 0}, {"type": "note_on", "time": 0, "note": 69, "velocity": 105, "channel": 0}, {"type": "note_off", "time": 2756, "note": 69, "velocity": 105, "channel": 0}, {"type": "note_on", "time": 183, "note": 67, "velocity": 108, "channel": 0}, {"type": "note_off", "time": 2205, "note": 67, "velocity": 108, "channel": 0}, {"type": "note_on", "time": 0, "note": 65, "velocity": 103, "channel": 0}, {"type": "note_off", "time": 2756, "note": 65, "velocity": 103, "channel": 0}, {"type": "note_on", "time": 918, "note": 64, "velocity": 108, "channel": 0}, {"type": "note_off", "time": 9739, "note": 64, "velocity": 108, "channel": 0}, {"type": "note_on", "time": 2389, "note": 60, "velocity": 103, "channel": 0}, {"type": "note_off", "time": 4961, "note": 60, "velocity": 103, "channel": 0}, {"type": "note_on", "time": 918, "note": 63, "velocity": 103, "channel": 0}, {"type": "note_off", "time": 13415, "note": 63, "velocity": 103, "channel": 0}, {"type": "note_on", "time": 1286, "note": 60, "velocity": 108, "channel": 0}, {"type": "note_off", "time": 4226, "note": 60, "velocity": 108, "channel": 0}, {"type": "note_on", "time": 735, "note": 62, "velocity": 105, "channel": 0}, {"type": "note_off", "time": 10474, "note": 62, "velocity": 105, "channel": 0}, {"type": "note_on", "time": 183, "note": 63, "velocity": 117, "channel": 0}, {"type": "note_off", "time": 2940, "note": 63, "velocity": 117, "channel": 0}, {"type": "note_on", "time": 367, "note": 64, "velocity": 112, "channel": 0}, {"type": "note_off", "time": 3675, "note": 64, "velocity": 112, "channel": 0}, {"type": "note_on", "time": 918, "note": 65, "velocity": 104, "channel": 0}, {"type": "note_off", "time": 1653, "note": 65, "velocity": 104, "channel": 0}, {"type": "note_on", "time": 3307, "note": 73, "velocity": 102, "channel": 0}, {"type": "note_off", "time": 9372, "note": 73, "velocity": 102, "channel": 0}, {"type": "note_on", "time": 551, "note": 72, "velocity": 94, "channel": 0}, {"type": "note_off", "time": 2572, "note": 72, "velocity": 94, "channel": 0}, {"type": "note_on", "time": 367, "note": 71, "velocity": 105, "channel": 0}, {"type": "note_off", "time": 2572, "note": 71, "velocity": 105, "channel": 0}, {"type": "note_on", "time": 183, "note": 70, "velocity": 96, "channel": 0}, {"type": "note_off", "time": 2021, "note": 70, "velocity": 96, "channel": 0}, {"type": "note_on", "time": 0, "note": 68, "velocity": 110, "channel": 0}, {"type": "note_off", "time": 4226, "note": 68, "velocity": 110, "channel": 0}, {"type": "note_on", "time": 1286, "note": 66, "velocity": 89, "channel": 0}, {"type": "note_off", "time": 34916, "note": 66, "velocity": 89, "channel": 0}, {"type": "note_on", "time": 8453, "note": 71, "velocity": 112, "channel": 0}, {"type": "note_off", "time": 6799, "note": 71, "velocity": 112, "channel": 0}, {"type": "note_on", "time": 367, "note": 70, "velocity": 101, "channel": 0}, {"type": "note_off", "time": 1837, "note": 70, "velocity": 101, "channel": 0}, {"type": "note_on", "time": 0, "note": 68, "velocity": 110, "channel": 0}, {"type": "note_off", "time": 2389, "note": 68, "velocity": 110, "channel": 0}, {"type": "note_on", "time": 0, "note": 66, "velocity": 113, "channel": 0}, {"type": "note_off", "time": 2021, "note": 66, "velocity": 113, "channel": 0}, {"type": "note_on", "time": 367, "note": 65, "velocity": 105, "channel": 0}, {"type": "note_off", "time": 1653, "note": 65, "velocity": 105, "channel": 0}, {"type": "note_on", "time": 183, "note": 63, "velocity": 114, "channel": 0}, {"type": "note_off", "time": 3859, "note": 63, "velocity": 114, "channel": 0}, {"type": "note_on", "time": 0, "note": 62, "velocity": 94, "channel": 0}, {"type": "note_off", "time": 17090, "note": 62, "velocity": 94, "channel": 0}, {"type": "note_on", "time": 8453, "note": 69, "velocity": 99, "channel": 0}, {"type": "note_off", "time": 1837, "note": 69, "velocity": 99, "channel": 0}, {"type": "note_on", "time": 0, "note": 70, "velocity": 100, "channel": 0}, {"type": "note_off", "time": 5145, "note": 70, "velocity": 100, "channel": 0}, {"type": "note_on", "time": 0, "note": 68, "velocity": 109, "channel": 0}, {"type": "note_off", "time": 3124, "note": 68, "velocity": 109, "channel": 0}, {"type": "note_on", "time": 0, "note": 66, "velocity": 110, "channel": 0}, {"type": "note_on", "time": 2389, "note": 65, "velocity": 112, "channel": 0}, {"type": "note_off", "time": 0, "note": 66, "velocity": 110, "channel": 0}, {"type": "note_off", "time": 1470, "note": 65, "velocity": 112, "channel": 0}, {"type": "note_on", "time": 367, "note": 63, "velocity": 113, "channel": 0}, {"type": "note_off", "time": 4226, "note": 63, "velocity": 113, "channel": 0}, {"type": "note_on", "time": 183, "note": 61, "velocity": 105, "channel": 0}, {"type": "note_off", "time": 2940, "note": 61, "velocity": 105, "channel": 0}, {"type": "note_on", "time": 183, "note": 60, "velocity": 89, "channel": 0}, {"type": "note_off", "time": 24992, "note": 60, "velocity": 89, "channel": 0}, {"type": "note_on", "time": 551, "note": 70, "velocity": 112, "channel": 0}, {"type": "note_off", "time": 1837, "note": 70, "velocity": 112, "channel": 0}, {"type": "note_on", "time": 0, "note": 71, "velocity": 112, "channel": 0}, {"type": "note_off", "time": 4226, "note": 71, "velocity": 112, "channel": 0}, {"type": "note_on", "time": 0, "note": 69, "velocity": 104, "channel": 0}, {"type": "note_off", "time": 3307, "note": 69, "velocity": 104, "channel": 0}, {"type": "note_on", "time": 367, "note": 68, "velocity": 111, "channel": 0}, {"type": "note_off", "time": 2756, "note": 68, "velocity": 111, "channel": 0}, {"type": "note_on", "time": 0, "note": 66, "velocity": 113, "channel": 0}, {"type": "note_off", "time": 2205, "note": 66, "velocity": 113, "channel": 0}, {"type": "note_on", "time": 183, "note": 64, "velocity": 114, "channel": 0}, {"type": "note_off", "time": 1010, "note": 64, "velocity": 114, "channel": 0}, {"type": "note_on", "time": 183, "note": 63, "velocity": 111, "channel": 0}, {"type": "note_off", "time": 2664, "note": 63, "velocity": 111, "channel": 0}, {"type": "note_on", "time": 0, "note": 61, "velocity": 107, "channel": 0}, {"type": "note_off", "time": 1286, "note": 61, "velocity": 107, "channel": 0}, {"type": "note_on", "time": 183, "note": 60, "velocity": 113, "channel": 0}, {"type": "note_off", "time": 3124, "note": 60, "velocity": 113, "channel": 0}, {"type": "note_on", "time": 0, "note": 58, "velocity": 114, "channel": 0}, {"type": "note_off", "time": 1929, "note": 58, "velocity": 114, "channel": 0}, {"type": "note_on", "time": 91, "note": 57, "velocity": 112, "channel": 0}, {"type": "note_off", "time": 2756, "note": 57, "velocity": 112, "channel": 0}, {"type": "note_on", "time": 673, "note": 56, "velocity": 107, "channel": 0}, {"type": "note_off", "time": 17772, "note": 56, "velocity": 107, "channel": 0}, {"type": "note_on", "time": 390, "note": 56, "velocity": 116, "channel": 0}, {"type": "note_off", "time": 1102, "note": 56, "velocity": 116, "channel": 0}, {"type": "note_on", "time": 0, "note": 57, "velocity": 116, "channel": 0}, {"type": "note_off", "time": 826, "note": 57, "velocity": 116, "channel": 0}, {"type": "note_on", "time": 0, "note": 58, "velocity": 120, "channel": 0}, {"type": "note_off", "time": 3124, "note": 58, "velocity": 120, "channel": 0}, {"type": "note_on", "time": 826, "note": 53, "velocity": 110, "channel": 0}, {"type": "note_off", "time": 4042, "note": 53, "velocity": 110, "channel": 0}, {"type": "note_on", "time": 0, "note": 54, "velocity": 117, "channel": 0}, {"type": "note_off", "time": 6615, "note": 54, "velocity": 117, "channel": 0}, {"type": "note_on", "time": 0, "note": 56, "velocity": 111, "channel": 0}, {"type": "note_off", "time": 28576, "note": 56, "velocity": 111, "channel": 0}, {"type": "note_on", "time": 551, "note": 58, "velocity": 113, "channel": 0}, {"type": "note_off", "time": 3993, "note": 58, "velocity": 113, "channel": 0}, {"type": "note_on", "time": 0, "note": 60, "velocity": 117, "channel": 0}, {"type": "note_on", "time": 4181, "note": 61, "velocity": 113, "channel": 0}, {"type": "note_off", "time": 0, "note": 60, "velocity": 117, "channel": 0}, {"type": "note_off", "time": 3528, "note": 61, "velocity": 113, "channel": 0}, {"type": "note_on", "time": 261, "note": 62, "velocity": 108, "channel": 0}, {"type": "note_off", "time": 1437, "note": 62, "velocity": 108, "channel": 0}, {"type": "note_on", "time": 392, "note": 63, "velocity": 110, "channel": 0}, {"type": "note_off", "time": 7318, "note": 63, "velocity": 110, "channel": 0}, {"type": "note_on", "time": 522, "note": 63, "velocity": 117, "channel": 0}, {"type": "note_off", "time": 6403, "note": 63, "velocity": 117, "channel": 0}, {"type": "note_on", "time": 522, "note": 63, "velocity": 107, "channel": 0}, {"type": "note_off", "time": 4181, "note": 63, "velocity": 107, "channel": 0}, {"type": "note_on", "time": 522, "note": 63, "velocity": 112, "channel": 0}, {"type": "note_off", "time": 12545, "note": 63, "velocity": 112, "channel": 0}, {"type": "note_on", "time": 1437, "note": 61, "velocity": 110, "channel": 0}, {"type": "note_off", "time": 3789, "note": 61, "velocity": 110, "channel": 0}, {"type": "note_on", "time": 1437, "note": 68, "velocity": 101, "channel": 0}, {"type": "note_off", "time": 13590, "note": 68, "velocity": 101, "channel": 0}, {"type": "note_on", "time": 392, "note": 66, "velocity": 109, "channel": 0}, {"type": "note_off", "time": 7318, "note": 66, "velocity": 109, "channel": 0}, {"type": "note_on", "time": 392, "note": 65, "velocity": 104, "channel": 0}, {"type": "note_off", "time": 12937, "note": 65, "velocity": 104, "channel": 0}, {"type": "note_on", "time": 0, "note": 63, "velocity": 110, "channel": 0}, {"type": "note_off", "time": 5145, "note": 63, "velocity": 110, "channel": 0}, {"type": "note_on", "time": 183, "note": 61, "velocity": 92, "channel": 0}, {"type": "note_off", "time": 32343, "note": 61, "velocity": 92, "channel": 0}, {"type": "note_on", "time": 15988, "note": 73, "velocity": 113, "channel": 0}, {"type": "note_off", "time": 4042, "note": 73, "velocity": 113, "channel": 0}, {"type": "note_on", "time": 0, "note": 72, "velocity": 112, "channel": 0}, {"type": "note_off", "time": 4410, "note": 72, "velocity": 112, "channel": 0}, {"type": "note_on", "time": 0, "note": 73, "velocity": 110, "channel": 0}, {"type": "note_off", "time": 4410, "note": 73, "velocity": 110, "channel": 0}, {"type": "note_on", "time": 183, "note": 70, "velocity": 111, "channel": 0}, {"type": "note_off", "time": 3859, "note": 70, "velocity": 111, "channel": 0}, {"type": "note_on", "time": 367, "note": 69, "velocity": 99, "channel": 0}, {"type": "note_off", "time": 3124, "note": 69, "velocity": 99, "channel": 0}, {"type": "note_on", "time": 0, "note": 70, "velocity": 105, "channel": 0}, {"type": "note_off", "time": 4226, "note": 70, "velocity": 105, "channel": 0}, {"type": "note_on", "time": 1102, "note": 66, "velocity": 104, "channel": 0}, {"type": "note_off", "time": 4410, "note": 66, "velocity": 104, "channel": 0}, {"type": "note_on", "time": 0, "note": 58, "velocity": 103, "channel": 0}, {"type": "note_off", "time": 2572, "note": 58, "velocity": 103, "channel": 0}, {"type": "note_on", "time": 0, "note": 61, "velocity": 110, "channel": 0}, {"type": "note_off", "time": 2756, "note": 61, "velocity": 110, "channel": 0}, {"type": "note_on", "time": 918, "note": 64, "velocity": 113, "channel": 0}, {"type": "note_off", "time": 1653, "note": 64, "velocity": 113, "channel": 0}, {"type": "note_on", "time": 0, "note": 65, "velocity": 107, "channel": 0}, {"type": "note_off", "time": 29587, "note": 65, "velocity": 107, "channel": 0}, {"type": "note_on", "time": 551, "note": 63, "velocity": 117, "channel": 0}, {"type": "note_off", "time": 3491, "note": 63, "velocity": 117, "channel": 0}, {"type": "note_on", "time": 735, "note": 65, "velocity": 113, "channel": 0}, {"type": "note_off", "time": 4042, "note": 65, "velocity": 113, "channel": 0}, {"type": "note_on", "time": 367, "note": 68, "velocity": 106, "channel": 0}, {"type": "note_off", "time": 4961, "note": 68, "velocity": 106, "channel": 0}, {"type": "note_on", "time": 918, "note": 68, "velocity": 104, "channel": 0}, {"type": "note_off", "time": 4410, "note": 68, "velocity": 104, "channel": 0}, {"type": "note_on", "time": 628, "note": 68, "velocity": 105, "channel": 0}, {"type": "note_off", "time": 4443, "note": 68, "velocity": 105, "channel": 0}, {"type": "note_on", "time": 914, "note": 68, "velocity": 107, "channel": 0}, {"type": "note_off", "time": 4312, "note": 68, "velocity": 107, "channel": 0}, {"type": "note_on", "time": 1829, "note": 68, "velocity": 102, "channel": 0}, {"type": "note_off", "time": 13198, "note": 68, "velocity": 102, "channel": 0}, {"type": "note_on", "time": 32, "note": 65, "velocity": 115, "channel": 0}, {"type": "note_off", "time": 5329, "note": 65, "velocity": 115, "channel": 0}, {"type": "note_on", "time": 387, "note": 61, "velocity": 96, "channel": 0}, {"type": "note_off", "time": 54625, "note": 61, "velocity": 96, "channel": 0}, {"type": "note_on", "time": 0, "note": 63, "velocity": 119, "channel": 0}, {"type": "note_off", "time": 3397, "note": 63, "velocity": 119, "channel": 0}, {"type": "note_on", "time": 1045, "note": 65, "velocity": 114, "channel": 0}, {"type": "note_on", "time": 4443, "note": 66, "velocity": 121, "channel": 0}, {"type": "note_off", "time": 0, "note": 65, "velocity": 114, "channel": 0}, {"type": "note_off", "time": 4181, "note": 66, "velocity": 121, "channel": 0}, {"type": "note_on", "time": 1306, "note": 68, "velocity": 96, "channel": 0}, {"type": "note_off", "time": 50704, "note": 68, "velocity": 96, "channel": 0}, {"type": "note_on", "time": 7840, "note": 64, "velocity": 89, "channel": 0}, {"type": "note_off", "time": 3397, "note": 64, "velocity": 89, "channel": 0}, {"type": "note_on", "time": 1306, "note": 66, "velocity": 122, "channel": 0}, {"type": "note_off", "time": 3659, "note": 66, "velocity": 122, "channel": 0}, {"type": "note_on", "time": 0, "note": 71, "velocity": 120, "channel": 0}, {"type": "note_off", "time": 4181, "note": 71, "velocity": 120, "channel": 0}, {"type": "note_on", "time": 106, "note": 69, "velocity": 110, "channel": 0}, {"type": "note_off", "time": 2940, "note": 69, "velocity": 110, "channel": 0}, {"type": "note_on", "time": 735, "note": 68, "velocity": 117, "channel": 0}, {"type": "note_off", "time": 3859, "note": 68, "velocity": 117, "channel": 0}, {"type": "note_on", "time": 367, "note": 66, "velocity": 122, "channel": 0}, {"type": "note_on", "time": 3307, "note": 64, "velocity": 116, "channel": 0}, {"type": "note_off", "time": 0, "note": 66, "velocity": 122, "channel": 0}, {"type": "note_off", "time": 1837, "note": 64, "velocity": 116, "channel": 0}, {"type": "note_on", "time": 183, "note": 65, "velocity": 112, "channel": 0}, {"type": "note_off", "time": 1286, "note": 65, "velocity": 112, "channel": 0}, {"type": "note_on", "time": 0, "note": 64, "velocity": 112, "channel": 0}, {"type": "note_off", "time": 1837, "note": 64, "velocity": 112, "channel": 0}, {"type": "note_on", "time": 367, "note": 63, "velocity": 114, "channel": 0}, {"type": "note_off", "time": 4226, "note": 63, "velocity": 114, "channel": 0}, {"type": "note_on", "time": 551, "note": 61, "velocity": 114, "channel": 0}, {"type": "note_off", "time": 3124, "note": 61, "velocity": 114, "channel": 0}, {"type": "note_on", "time": 0, "note": 59, "velocity": 113, "channel": 0}, {"type": "note_off", "time": 3859, "note": 59, "velocity": 113, "channel": 0}, {"type": "note_on", "time": 367, "note": 57, "velocity": 115, "channel": 0}, {"type": "note_off", "time": 2756, "note": 57, "velocity": 115, "channel": 0}, {"type": "note_on", "time": 367, "note": 56, "velocity": 115, "channel": 0}, {"type": "note_off", "time": 3675, "note": 56, "velocity": 115, "channel": 0}, {"type": "note_on", "time": 551, "note": 54, "velocity": 115, "channel": 0}, {"type": "note_off", "time": 2756, "note": 54, "velocity": 115, "channel": 0}, {"type": "note_on", "time": 735, "note": 56, "velocity": 9, "channel": 0}, {"type": "note_off", "time": 8453, "note": 56, "velocity": 9, "channel": 0}, {"type": "note_on", "time": 1102, "note": 56, "velocity": 111, "channel": 0}, {"type": "note_off", "time": 1653, "note": 56, "velocity": 111, "channel": 0}, {"type": "note_on", "time": 1653, "note": 55, "velocity": 106, "channel": 0}, {"type": "note_off", "time": 1837, "note": 55, "velocity": 106, "channel": 0}, {"type": "note_on", "time": 367, "note": 54, "velocity": 113, "channel": 0}, {"type": "note_off", "time": 2389, "note": 54, "velocity": 113, "channel": 0}, {"type": "note_on", "time": 183, "note": 52, "velocity": 109, "channel": 0}, {"type": "note_off", "time": 3124, "note": 52, "velocity": 109, "channel": 0}, {"type": "note_on", "time": 1102, "note": 51, "velocity": 113, "channel": 0}, {"type": "note_off", "time": 3124, "note": 51, "velocity": 113, "channel": 0}, {"type": "note_on", "time": 918, "note": 49, "velocity": 111, "channel": 0}, {"type": "note_off", "time": 1837, "note": 49, "velocity": 111, "channel": 0}, {"type": "note_on", "time": 1653, "note": 47, "velocity": 117, "channel": 0}, {"type": "note_off", "time": 4410, "note": 47, "velocity": 117, "channel": 0}, {"type": "note_on", "time": 1286, "note": 45, "velocity": 117, "channel": 0}, {"type": "note_off", "time": 2756, "note": 45, "velocity": 117, "channel": 0}, {"type": "note_on", "time": 490, "note": 44, "velocity": 106, "channel": 0}, {"type": "note_off", "time": 110556, "note": 44, "velocity": 106, "channel": 0}, {"type": "end_of_track", "time": 0}]]}