{"ticks_per_beat": 192, "tracks": [[{"type": "track_name", "name": "Melody", "time": 0}, {"type": "set_tempo", "tempo": 465116, "time": 0}, {"type": "key_signature", "key": "C", "time": 0}, {"type": "time_signature", "numerator": 4, "denominator": 4, "clocks_per_click": 24, "notated_32nd_notes_per_beat": 8, "time": 0}, {"type": "note_on", "time": 3718, "note": 52, "velocity": 82, "channel": 0}, {"type": "note_off", "time": 82, "note": 52, "velocity": 82, "channel": 0}, {"type": "note_on", "time": 5, "note": 57, "velocity": 103, "channel": 0}, {"type": "note_off", "time": 281, "note": 57, "velocity": 103, "channel": 0}, {"type": "note_on", "time": 11, "note": 64, "velocity": 120, "channel": 0}, {"type": "note_off", "time": 67, "note": 64, "velocity": 120, "channel": 0}, {"type": "note_on", "time": 751, "note": 52, "velocity": 105, "channel": 0}, {"type": "note_off", "time": 49, "note": 52, "velocity": 105, "channel": 0}, {"type": "note_on", "time": 12, "note": 57, "velocity": 115, "channel": 0}, {"type": "note_off", "time": 52, "note": 57, "velocity": 115, "channel": 0}, {"type": "note_on", "time": 7, "note": 60, "velocity": 115, "channel": 0}, {"type": "note_off", "time": 37, "note": 60, "velocity": 115, "channel": 0}, {"type": "note_on", "time": 31, "note": 52, "velocity": 104, "channel": 0}, {"type": "note_off", "time": 59, "note": 52, "velocity": 104, "channel": 0}, {"type": "note_on", "time": 13, "note": 57, "velocity": 114, "channel": 0}, {"type": "note_off", "time": 82, "note": 57, "velocity": 114, "channel": 0}, {"type": "note_on", "time": 12, "note": 60, "velocity": 118, "channel": 0}, {"type": "note_off", "time": 63, "note": 60, "velocity": 118, "channel": 0}, {"type": "note_on", "time": 64, "note": 56, "velocity": 109, "channel": 0}, {"type": "note_off", "time": 211, "note": 56, "velocity": 109, "channel": 0}, {"type": "note_on", "time": 15, "note": 64, "velocity": 110, "channel": 0}, {"type": "note_off", "time": 869, "note": 64, "velocity": 110, "channel": 0}, {"type": "note_on", "time": 111, "note": 52, "velocity": 104, "channel": 0}, {"type": "note_off", "time": 129, "note": 52, "velocity": 104, "channel": 0}, {"type": "note_on", "time": 11, "note": 56, "velocity": 103, "channel": 0}, {"type": "note_off", "time": 38, "note": 56, "velocity": 103, "channel": 0}, {"type": "note_on", "time": 2, "note": 59, "velocity": 109, "channel": 0}, {"type": "note_off", "time": 37, "note": 59, "velocity": 109, "channel": 0}, {"type": "note_on", "time": 9, "note": 64, "velocity": 115, "channel": 0}, {"type": "note_off", "time": 85, "note": 64, "velocity": 115, "channel": 0}, {"type": "note_on", "time": 66, "note": 55, "velocity": 108, "channel": 0}, {"type": "note_off", "time": 63, "note": 55, "velocity": 108, "channel": 0}, {"type": "note_on", "time": 5, "note": 58, "velocity": 106, "channel": 0}, {"type": "note_off", "time": 29, "note": 58, "velocity": 106, "channel": 0}, {"type": "note_on", "time": 8, "note": 64, "velocity": 117, "channel": 0}, {"type": "note_off", "time": 86, "note": 64, "velocity": 117, "channel": 0}, {"type": "note_on", "time": 35, "note": 64, "velocity": 91, "channel": 0}, {"type": "note_off", "time": 357, "note": 64, "velocity": 91, "channel": 0}, {"type": "note_on", "time": 245, "note": 52, "velocity": 99, "channel": 0}, {"type": "note_off", "time": 96, "note": 52, "velocity": 99, "channel": 0}, {"type": "note_on", "time": 10, "note": 55, "velocity": 104, "channel": 0}, {"type": "note_off", "time": 46, "note": 55, "velocity": 104, "channel": 0}, {"type": "note_on", "time": 5, "note": 58, "velocity": 113, "channel": 0}, {"type": "note_off", "time": 61, "note": 58, "velocity": 113, "channel": 0}, {"type": "note_on", "time": 29, "note": 64, "velocity": 120, "channel": 0}, {"type": "note_off", "time": 98, "note": 64, "velocity": 120, "channel": 0}, {"type": "note_on", "time": 38, "note": 64, "velocity": 120, "channel": 0}, {"type": "note_off", "time": 85, "note": 64, "velocity": 120, "channel": 0}, {"type": "note_on", "time": 49, "note": 64, "velocity": 119, "channel": 0}, {"type": "note_off", "time": 82, "note": 64, "velocity": 119, "channel": 0}, {"type": "note_on", "time": 77, "note": 54, "velocity": 93, "channel": 0}, {"type": "note_off", "time": 370, "note": 54, "velocity": 93, "channel": 0}, {"type": "note_on", "time": 311, "note": 59, "velocity": 93, "channel": 0}, {"type": "note_off", "time": 33, "note": 59, "velocity": 93, "channel": 0}, {"type": "note_on", "time": 7, "note": 60, "velocity": 89, "channel": 0}, {"type": "note_off", "time": 50, "note": 60, "velocity": 89, "channel": 0}, {"type": "note_on", "time": 41, "note": 64, "velocity": 116, "channel": 0}, {"type": "note_off", "time": 70, "note": 64, "velocity": 116, "channel": 0}, {"type": "note_on", "time": 52, "note": 64, "velocity": 115, "channel": 0}, {"type": "note_off", "time": 71, "note": 64, "velocity": 115, "channel": 0}, {"type": "note_on", "time": 70, "note": 64, "velocity": 95, "channel": 0}, {"type": "note_off", "time": 266, "note": 64, "velocity": 95, "channel": 0}, {"type": "note_on", "time": 390, "note": 61, "velocity": 116, "channel": 0}, {"type": "note_off", "time": 47, "note": 61, "velocity": 116, "channel": 0}, {"type": "note_on", "time": 9, "note": 62, "velocity": 120, "channel": 0}, {"type": "note_off", "time": 85, "note": 62, "velocity": 120, "channel": 0}, {"type": "note_on", "time": 12, "note": 64, "velocity": 122, "channel": 0}, {"type": "note_off", "time": 140, "note": 64, "velocity": 122, "channel": 0}, {"type": "note_on", "time": 6, "note": 62, "velocity": 116, "channel": 0}, {"type": "note_off", "time": 69, "note": 62, "velocity": 116, "channel": 0}, {"type": "note_on", "time": 10, "note": 61, "velocity": 117, "channel": 0}, {"type": "note_off", "time": 65, "note": 61, "velocity": 117, "channel": 0}, {"type": "note_on", "time": 8, "note": 62, "velocity": 116, "channel": 0}, {"type": "note_off", "time": 80, "note": 62, "velocity": 116, "channel": 0}, {"type": "note_on", "time": 40, "note": 64, "velocity": 111, "channel": 0}, {"type": "note_off", "time": 101, "note": 64, "velocity": 111, "channel": 0}, {"type": "note_on", "time": 14, "note": 65, "velocity": 112, "channel": 0}, {"type": "note_off", "time": 443, "note": 65, "velocity": 112, "channel": 0}, {"type": "note_on", "time": 27, "note": 64, "velocity": 112, "channel": 0}, {"type": "note_off", "time": 55, "note": 64, "velocity": 112, "channel": 0}, {"type": "note_on", "time": 24, "note": 62, "velocity": 112, "channel": 0}, {"type": "note_off", "time": 67, "note": 62, "velocity": 112, "channel": 0}, {"type": "note_on", "time": 43, "note": 62, "velocity": 101, "channel": 0}, {"type": "note_off", "time": 314, "note": 62, "velocity": 101, "channel": 0}, {"type": "note_on", "time": 68, "note": 58, "velocity": 107, "channel": 0}, {"type": "note_off", "time": 50, "note": 58, "velocity": 107, "channel": 0}, {"type": "note_on", "time": 20, "note": 60, "velocity": 107, "channel": 0}, {"type": "note_off", "time": 70, "note": 60, "velocity": 107, "channel": 0}, {"type": "note_on", "time": 6, "note": 62, "velocity": 99, "channel": 0}, {"type": "note_off", "time": 257, "note": 62, "velocity": 99, "channel": 0}, {"type": "note_on", "time": 11, "note": 58, "velocity": 106, "channel": 0}, {"type": "note_off", "time": 82, "note": 58, "velocity": 106, "channel": 0}, {"type": "note_on", "time": 48, "note": 60, "velocity": 115, "channel": 0}, {"type": "note_off", "time": 62, "note": 60, "velocity": 115, "channel": 0}, {"type": "note_on", "time": 6, "note": 62, "velocity": 118, "channel": 0}, {"type": "note_off", "time": 77, "note": 62, "velocity": 118, "channel": 0}, {"type": "note_on", "time": 27, "note": 67, "velocity": 93, "channel": 0}, {"type": "note_off", "time": 271, "note": 67, "velocity": 93, "channel": 0}, {"type": "note_on", "time": 6, "note": 65, "velocity": 110, "channel": 0}, {"type": "note_off", "time": 97, "note": 65, "velocity": 110, "channel": 0}, {"type": "note_on", "time": 6, "note": 64, "velocity": 94, "channel": 0}, {"type": "note_off", "time": 321, "note": 64, "velocity": 94, "channel": 0}, {"type": "note_on", "time": 894, "note": 61, "velocity": 118, "channel": 0}, {"type": "note_off", "time": 40, "note": 61, "velocity": 118, "channel": 0}, {"type": "note_on", "time": 5, "note": 62, "velocity": 124, "channel": 0}, {"type": "note_off", "time": 158, "note": 62, "velocity": 124, "channel": 0}, {"type": "note_on", "time": 4, "note": 59, "velocity": 122, "channel": 0}, {"type": "note_off", "time": 89, "note": 59, "velocity": 122, "channel": 0}, {"type": "note_on", "time": 33, "note": 61, "velocity": 120, "channel": 0}, {"type": "note_off", "time": 31, "note": 61, "velocity": 120, "channel": 0}, {"type": "note_on", "time": 2, "note": 62, "velocity": 124, "channel": 0}, {"type": "note_off", "time": 112, "note": 62, "velocity": 124, "channel": 0}, {"type": "note_on", "time": 11, "note": 60, "velocity": 120, "channel": 0}, {"type": "note_off", "time": 117, "note": 60, "velocity": 120, "channel": 0}, {"type": "note_on", "time": 5, "note": 57, "velocity": 109, "channel": 0}, {"type": "note_off", "time": 1012, "note": 57, "velocity": 109, "channel": 0}, {"type": "note_on", "time": 149, "note": 48, "velocity": 87, "channel": 0}, {"type": "note_off", "time": 30, "note": 48, "velocity": 87, "channel": 0}, {"type": "note_on", "time": 57, "note": 57, "velocity": 110, "channel": 0}, {"type": "note_off", "time": 186, "note": 57, "velocity": 110, "channel": 0}, {"type": "note_on", "time": 9, "note": 60, "velocity": 114, "channel": 0}, {"type": "note_off", "time": 183, "note": 60, "velocity": 114, "channel": 0}, {"type": "note_on", "time": 1, "note": 64, "velocity": 119, "channel": 0}, {"type": "note_off", "time": 181, "note": 64, "velocity": 119, "channel": 0}, {"type": "note_on", "time": 12, "note": 67, "velocity": 106, "channel": 0}, {"type": "note_off", "time": 180, "note": 67, "velocity": 106, "channel": 0}, {"type": "note_on", "time": 2, "note": 69, "velocity": 108, "channel": 0}, {"type": "note_off", "time": 175, "note": 69, "velocity": 108, "channel": 0}, {"type": "note_on", "time": 5, "note": 72, "velocity": 108, "channel": 0}, {"type": "note_off", "time": 190, "note": 72, "velocity": 108, "channel": 0}, {"type": "note_on", "time": 510, "note": 70, "velocity": 127, "channel": 0}, {"type": "note_off", "time": 33, "note": 70, "velocity": 127, "channel": 0}, {"type": "note_on", "time": 0, "note": 72, "velocity": 121, "channel": 0}, {"type": "note_off", "time": 160, "note": 72, "velocity": 121, "channel": 0}, {"type": "note_on", "time": 5, "note": 71, "velocity": 110, "channel": 0}, {"type": "note_off", "time": 21, "note": 71, "velocity": 110, "channel": 0}, {"type": "note_on", "time": 5, "note": 69, "velocity": 117, "channel": 0}, {"type": "note_off", "time": 72, "note": 69, "velocity": 117, "channel": 0}, {"type": "note_on", "time": 19, "note": 74, "velocity": 119, "channel": 0}, {"type": "note_off", "time": 88, "note": 74, "velocity": 119, "channel": 0}, {"type": "note_on", "time": 20, "note": 72, "velocity": 115, "channel": 0}, {"type": "note_off", "time": 78, "note": 72, "velocity": 115, "channel": 0}, {"type": "note_on", "time": 36, "note": 71, "velocity": 117, "channel": 0}, {"type": "note_off", "time": 56, "note": 71, "velocity": 117, "channel": 0}, {"type": "note_on", "time": 16, "note": 69, "velocity": 104, "channel": 0}, {"type": "note_off", "time": 53, "note": 69, "velocity": 104, "channel": 0}, {"type": "note_on", "time": 70, "note": 70, "velocity": 120, "channel": 0}, {"type": "note_off", "time": 35, "note": 70, "velocity": 120, "channel": 0}, {"type": "note_on", "time": 3, "note": 72, "velocity": 117, "channel": 0}, {"type": "note_off", "time": 104, "note": 72, "velocity": 117, "channel": 0}, {"type": "note_on", "time": 36, "note": 63, "velocity": 101, "channel": 0}, {"type": "note_off", "time": 394, "note": 63, "velocity": 101, "channel": 0}, {"type": "note_on", "time": 639, "note": 52, "velocity": 101, "channel": 0}, {"type": "note_off", "time": 38, "note": 52, "velocity": 101, "channel": 0}, {"type": "note_on", "time": 5, "note": 54, "velocity": 101, "channel": 0}, {"type": "note_off", "time": 24, "note": 54, "velocity": 101, "channel": 0}, {"type": "note_on", "time": 5, "note": 55, "velocity": 107, "channel": 0}, {"type": "note_off", "time": 43, "note": 55, "velocity": 107, "channel": 0}, {"type": "note_on", "time": 8, "note": 57, "velocity": 107, "channel": 0}, {"type": "note_off", "time": 35, "note": 57, "velocity": 107, "channel": 0}, {"type": "note_on", "time": 6, "note": 60, "velocity": 104, "channel": 0}, {"type": "note_off", "time": 29, "note": 60, "velocity": 104, "channel": 0}, {"type": "note_on", "time": 6, "note": 61, "velocity": 112, "channel": 0}, {"type": "note_off", "time": 35, "note": 61, "velocity": 112, "channel": 0}, {"type": "note_on", "time": 8, "note": 62, "velocity": 115, "channel": 0}, {"type": "note_off", "time": 40, "note": 62, "velocity": 115, "channel": 0}, {"type": "note_on", "time": 5, "note": 64, "velocity": 121, "channel": 0}, {"type": "note_off", "time": 161, "note": 64, "velocity": 121, "channel": 0}, {"type": "note_on", "time": 7, "note": 62, "velocity": 110, "channel": 0}, {"type": "note_off", "time": 97, "note": 62, "velocity": 110, "channel": 0}, {"type": "note_on", "time": 12, "note": 60, "velocity": 100, "channel": 0}, {"type": "note_off", "time": 397, "note": 60, "velocity": 100, "channel": 0}, {"type": "note_on", "time": 5, "note": 62, "velocity": 108, "channel": 0}, {"type": "note_off", "time": 72, "note": 62, "velocity": 108, "channel": 0}, {"type": "note_on", "time": 32, "note": 64, "velocity": 118, "channel": 0}, {"type": "note_off", "time": 55, "note": 64, "velocity": 118, "channel": 0}, {"type": "note_on", "time": 14, "note": 60, "velocity": 109, "channel": 0}, {"type": "note_off", "time": 48, "note": 60, "velocity": 109, "channel": 0}, {"type": "note_on", "time": 15, "note": 57, "velocity": 102, "channel": 0}, {"type": "note_off", "time": 222, "note": 57, "velocity": 102, "channel": 0}, {"type": "note_on", "time": 857, "note": 74, "velocity": 124, "channel": 0}, {"type": "note_off", "time": 51, "note": 74, "velocity": 124, "channel": 0}, {"type": "note_on", "time": 14, "note": 72, "velocity": 112, "channel": 0}, {"type": "note_off", "time": 46, "note": 72, "velocity": 112, "channel": 0}, {"type": "note_on", "time": 6, "note": 74, "velocity": 115, "channel": 0}, {"type": "note_off", "time": 58, "note": 74, "velocity": 115, "channel": 0}, {"type": "note_on", "time": 5, "note": 72, "velocity": 112, "channel": 0}, {"type": "note_off", "time": 42, "note": 72, "velocity": 112, "channel": 0}, {"type": "note_on", "time": 9, "note": 74, "velocity": 116, "channel": 0}, {"type": "note_off", "time": 56, "note": 74, "velocity": 116, "channel": 0}, {"type": "note_on", "time": 7, "note": 72, "velocity": 114, "channel": 0}, {"type": "note_off", "time": 46, "note": 72, "velocity": 114, "channel": 0}, {"type": "note_on", "time": 7, "note": 74, "velocity": 117, "channel": 0}, {"type": "note_off", "time": 55, "note": 74, "velocity": 117, "channel": 0}, {"type": "note_on", "time": 13, "note": 72, "velocity": 113, "channel": 0}, {"type": "note_off", "time": 42, "note": 72, "velocity": 113, "channel": 0}, {"type": "note_on", "time": 9, "note": 74, "velocity": 120, "channel": 0}, {"type": "note_off", "time": 61, "note": 74, "velocity": 120, "channel": 0}, {"type": "note_on", "time": 6, "note": 72, "velocity": 111, "channel": 0}, {"type": "note_off", "time": 48, "note": 72, "velocity": 111, "channel": 0}, {"type": "note_on", "time": 11, "note": 74, "velocity": 118, "channel": 0}, {"type": "note_off", "time": 64, "note": 74, "velocity": 118, "channel": 0}, {"type": "note_on", "time": 7, "note": 72, "velocity": 110, "channel": 0}, {"type": "note_off", "time": 41, "note": 72, "velocity": 110, "channel": 0}, {"type": "note_on", "time": 13, "note": 74, "velocity": 119, "channel": 0}, {"type": "note_off", "time": 56, "note": 74, "velocity": 119, "channel": 0}, {"type": "note_on", "time": 17, "note": 72, "velocity": 113, "channel": 0}, {"type": "note_off", "time": 38, "note": 72, "velocity": 113, "channel": 0}, {"type": "note_on", "time": 11, "note": 74, "velocity": 115, "channel": 0}, {"type": "note_off", "time": 60, "note": 74, "velocity": 115, "channel": 0}, {"type": "note_on", "time": 9, "note": 72, "velocity": 112, "channel": 0}, {"type": "note_off", "time": 44, "note": 72, "velocity": 112, "channel": 0}, {"type": "note_on", "time": 11, "note": 74, "velocity": 113, "channel": 0}, {"type": "note_off", "time": 65, "note": 74, "velocity": 113, "channel": 0}, {"type": "note_on", "time": 7, "note": 75, "velocity": 116, "channel": 0}, {"type": "note_off", "time": 19, "note": 75, "velocity": 116, "channel": 0}, {"type": "note_on", "time": 5, "note": 74, "velocity": 119, "channel": 0}, {"type": "note_off", "time": 63, "note": 74, "velocity": 119, "channel": 0}, {"type": "note_on", "time": 8, "note": 75, "velocity": 117, "channel": 0}, {"type": "note_off", "time": 24, "note": 75, "velocity": 117, "channel": 0}, {"type": "note_on", "time": 7, "note": 74, "velocity": 122, "channel": 0}, {"type": "note_off", "time": 62, "note": 74, "velocity": 122, "channel": 0}, {"type": "note_on", "time": 9, "note": 73, "velocity": 116, "channel": 0}, {"type": "note_off", "time": 22, "note": 73, "velocity": 116, "channel": 0}, {"type": "note_on", "time": 2, "note": 72, "velocity": 117, "channel": 0}, {"type": "note_off", "time": 47, "note": 72, "velocity": 117, "channel": 0}, {"type": "note_on", "time": 3, "note": 69, "velocity": 109, "channel": 0}, {"type": "note_off", "time": 29, "note": 69, "velocity": 109, "channel": 0}, {"type": "note_on", "time": 22, "note": 72, "velocity": 114, "channel": 0}, {"type": "note_off", "time": 184, "note": 72, "velocity": 114, "channel": 0}, {"type": "note_on", "time": 366, "note": 75, "velocity": 120, "channel": 0}, {"type": "note_off", "time": 101, "note": 75, "velocity": 120, "channel": 0}, {"type": "note_on", "time": 31, "note": 73, "velocity": 126, "channel": 0}, {"type": "note_off", "time": 68, "note": 73, "velocity": 126, "channel": 0}, {"type": "note_on", "time": 27, "note": 71, "velocity": 119, "channel": 0}, {"type": "note_off", "time": 59, "note": 71, "velocity": 119, "channel": 0}, {"type": "note_on", "time": 10, "note": 68, "velocity": 106, "channel": 0}, {"type": "note_off", "time": 56, "note": 68, "velocity": 106, "channel": 0}, {"type": "note_on", "time": 8, "note": 71, "velocity": 115, "channel": 0}, {"type": "note_off", "time": 49, "note": 71, "velocity": 115, "channel": 0}, {"type": "note_on", "time": 75, "note": 75, "velocity": 115, "channel": 0}, {"type": "note_off", "time": 51, "note": 75, "velocity": 115, "channel": 0}, {"type": "note_on", "time": 26, "note": 73, "velocity": 125, "channel": 0}, {"type": "note_off", "time": 54, "note": 73, "velocity": 125, "channel": 0}, {"type": "note_on", "time": 56, "note": 71, "velocity": 115, "channel": 0}, {"type": "note_off", "time": 45, "note": 71, "velocity": 115, "channel": 0}, {"type": "note_on", "time": 1, "note": 68, "velocity": 110, "channel": 0}, {"type": "note_off", "time": 41, "note": 68, "velocity": 110, "channel": 0}, {"type": "note_on", "time": 3, "note": 71, "velocity": 120, "channel": 0}, {"type": "note_off", "time": 73, "note": 71, "velocity": 120, "channel": 0}, {"type": "note_on", "time": 5, "note": 68, "velocity": 103, "channel": 0}, {"type": "note_off", "time": 47, "note": 68, "velocity": 103, "channel": 0}, {"type": "note_on", "time": 2, "note": 71, "velocity": 119, "channel": 0}, {"type": "note_off", "time": 50, "note": 71, "velocity": 119, "channel": 0}, {"type": "note_on", "time": 3, "note": 68, "velocity": 105, "channel": 0}, {"type": "note_off", "time": 41, "note": 68, "velocity": 105, "channel": 0}, {"type": "note_on", "time": 1, "note": 71, "velocity": 119, "channel": 0}, {"type": "note_off", "time": 53, "note": 71, "velocity": 119, "channel": 0}, {"type": "note_on", "time": 4, "note": 73, "velocity": 123, "channel": 0}, {"type": "note_off", "time": 71, "note": 73, "velocity": 123, "channel": 0}, {"type": "note_on", "time": 3, "note": 75, "velocity": 116, "channel": 0}, {"type": "note_off", "time": 65, "note": 75, "velocity": 116, "channel": 0}, {"type": "note_on", "time": 4, "note": 73, "velocity": 122, "channel": 0}, {"type": "note_off", "time": 59, "note": 73, "velocity": 122, "channel": 0}, {"type": "note_on", "time": 1, "note": 71, "velocity": 112, "channel": 0}, {"type": "note_off", "time": 177, "note": 71, "velocity": 112, "channel": 0}, {"type": "note_on", "time": 463, "note": 70, "velocity": 125, "channel": 0}, {"type": "note_off", "time": 22, "note": 70, "velocity": 125, "channel": 0}, {"type": "note_on", "time": 3, "note": 71, "velocity": 121, "channel": 0}, {"type": "note_off", "time": 69, "note": 71, "velocity": 121, "channel": 0}, {"type": "note_on", "time": 3, "note": 72, "velocity": 122, "channel": 0}, {"type": "note_off", "time": 30, "note": 72, "velocity": 122, "channel": 0}, {"type": "note_on", "time": 9, "note": 71, "velocity": 126, "channel": 0}, {"type": "note_off", "time": 33, "note": 71, "velocity": 126, "channel": 0}, {"type": "note_on", "time": 4, "note": 70, "velocity": 119, "channel": 0}, {"type": "note_off", "time": 111, "note": 70, "velocity": 119, "channel": 0}, {"type": "note_on", "time": 4, "note": 71, "velocity": 121, "channel": 0}, {"type": "note_off", "time": 81, "note": 71, "velocity": 121, "channel": 0}, {"type": "note_on", "time": 1, "note": 73, "velocity": 124, "channel": 0}, {"type": "note_off", "time": 43, "note": 73, "velocity": 124, "channel": 0}, {"type": "note_on", "time": 0, "note": 74, "velocity": 113, "channel": 0}, {"type": "note_off", "time": 591, "note": 74, "velocity": 113, "channel": 0}, {"type": "note_on", "time": 8, "note": 71, "velocity": 117, "channel": 0}, {"type": "note_off", "time": 76, "note": 71, "velocity": 117, "channel": 0}, {"type": "note_on", "time": 6, "note": 72, "velocity": 108, "channel": 0}, {"type": "note_off", "time": 111, "note": 72, "velocity": 108, "channel": 0}, {"type": "note_on", "time": 10, "note": 71, "velocity": 110, "channel": 0}, {"type": "note_off", "time": 59, "note": 71, "velocity": 110, "channel": 0}, {"type": "note_on", "time": 110, "note": 69, "velocity": 112, "channel": 0}, {"type": "note_off", "time": 80, "note": 69, "velocity": 112, "channel": 0}, {"type": "note_on", "time": 5, "note": 64, "velocity": 109, "channel": 0}, {"type": "note_off", "time": 195, "note": 64, "velocity": 109, "channel": 0}, {"type": "note_on", "time": 5, "note": 62, "velocity": 105, "channel": 0}, {"type": "note_off", "time": 97, "note": 62, "velocity": 105, "channel": 0}, {"type": "note_on", "time": 3, "note": 60, "velocity": 108, "channel": 0}, {"type": "note_off", "time": 59, "note": 60, "velocity": 108, "channel": 0}, {"type": "note_on", "time": 160, "note": 59, "velocity": 110, "channel": 0}, {"type": "note_off", "time": 72, "note": 59, "velocity": 110, "channel": 0}, {"type": "note_on", "time": 14, "note": 57, "velocity": 99, "channel": 0}, {"type": "note_off", "time": 180, "note": 57, "velocity": 99, "channel": 0}, {"type": "note_on", "time": 29, "note": 52, "velocity": 105, "channel": 0}, {"type": "note_off", "time": 44, "note": 52, "velocity": 105, "channel": 0}, {"type": "note_on", "time": 5, "note": 53, "velocity": 107, "channel": 0}, {"type": "note_off", "time": 96, "note": 53, "velocity": 107, "channel": 0}, {"type": "note_on", "time": 38, "note": 57, "velocity": 107, "channel": 0}, {"type": "note_off", "time": 46, "note": 57, "velocity": 107, "channel": 0}, {"type": "note_on", "time": 27, "note": 60, "velocity": 118, "channel": 0}, {"type": "note_off", "time": 71, "note": 60, "velocity": 118, "channel": 0}, {"type": "note_on", "time": 8, "note": 64, "velocity": 101, "channel": 0}, {"type": "note_off", "time": 443, "note": 64, "velocity": 101, "channel": 0}, {"type": "end_of_track", "time": 0}]]}