{"ticks_per_beat": 192, "tracks": [[{"type": "track_name", "name": "Melody", "time": 0}, {"type": "set_tempo", "tempo": 247933, "time": 0}, {"type": "key_signature", "key": "Bb", "time": 0}, {"type": "time_signature", "numerator": 4, "denominator": 4, "clocks_per_click": 24, "notated_32nd_notes_per_beat": 8, "time": 0}, {"type": "note_on", "time": 3032, "note": 65, "velocity": 99, "channel": 0}, {"type": "note_off", "time": 83, "note": 65, "velocity": 99, "channel": 0}, {"type": "note_on", "time": 105, "note": 69, "velocity": 96, "channel": 0}, {"type": "note_off", "time": 99, "note": 69, "velocity": 96, "channel": 0}, {"type": "note_on", "time": 5, "note": 67, "velocity": 94, "channel": 0}, {"type": "note_off", "time": 75, "note": 67, "velocity": 94, "channel": 0}, {"type": "note_on", "time": 33, "note": 65, "velocity": 100, "channel": 0}, {"type": "note_off", "time": 76, "note": 65, "velocity": 100, "channel": 0}, {"type": "note_on", "time": 5, "note": 62, "velocity": 103, "channel": 0}, {"type": "note_off", "time": 79, "note": 62, "velocity": 103, "channel": 0}, {"type": "note_on", "time": 11, "note": 60, "velocity": 104, "channel": 0}, {"type": "note_off", "time": 105, "note": 60, "velocity": 104, "channel": 0}, {"type": "note_on", "time": 13, "note": 58, "velocity": 97, "channel": 0}, {"type": "note_off", "time": 52, "note": 58, "velocity": 97, "channel": 0}, {"type": "note_on", "time": 8, "note": 60, "velocity": 101, "channel": 0}, {"type": "note_off", "time": 102, "note": 60, "velocity": 101, "channel": 0}, {"type": "note_on", "time": 20, "note": 58, "velocity": 93, "channel": 0}, {"type": "note_off", "time": 271, "note": 58, "velocity": 93, "channel": 0}, {"type": "note_on", "time": 414, "note": 65, "velocity": 106, "channel": 0}, {"type": "note_off", "time": 97, "note": 65, "velocity": 106, "channel": 0}, {"type": "note_on", "time": 99, "note": 68, "velocity": 98, "channel": 0}, {"type": "note_off", "time": 95, "note": 68, "velocity": 98, "channel": 0}, {"type": "note_on", "time": 15, "note": 67, "velocity": 86, "channel": 0}, {"type": "note_off", "time": 68, "note": 67, "velocity": 86, "channel": 0}, {"type": "note_on", "time": 11, "note": 65, "velocity": 104, "channel": 0}, {"type": "note_off", "time": 96, "note": 65, "velocity": 104, "channel": 0}, {"type": "note_on", "time": 8, "note": 62, "velocity": 107, "channel": 0}, {"type": "note_off", "time": 75, "note": 62, "velocity": 107, "channel": 0}, {"type": "note_on", "time": 6, "note": 58, "velocity": 100, "channel": 0}, {"type": "note_off", "time": 88, "note": 58, "velocity": 100, "channel": 0}, {"type": "note_on", "time": 45, "note": 55, "velocity": 101, "channel": 0}, {"type": "note_off", "time": 36, "note": 55, "velocity": 101, "channel": 0}, {"type": "note_on", "time": 14, "note": 64, "velocity": 107, "channel": 0}, {"type": "note_off", "time": 98, "note": 64, "velocity": 107, "channel": 0}, {"type": "note_on", "time": 7, "note": 65, "velocity": 93, "channel": 0}, {"type": "note_off", "time": 286, "note": 65, "velocity": 93, "channel": 0}, {"type": "note_on", "time": 15, "note": 63, "velocity": 114, "channel": 0}, {"type": "note_off", "time": 126, "note": 63, "velocity": 114, "channel": 0}, {"type": "note_on", "time": 8, "note": 65, "velocity": 100, "channel": 0}, {"type": "note_off", "time": 50, "note": 65, "velocity": 100, "channel": 0}, {"type": "note_on", "time": 7, "note": 63, "velocity": 114, "channel": 0}, {"type": "note_off", "time": 107, "note": 63, "velocity": 114, "channel": 0}, {"type": "note_on", "time": 11, "note": 61, "velocity": 107, "channel": 0}, {"type": "note_off", "time": 75, "note": 61, "velocity": 107, "channel": 0}, {"type": "note_on", "time": 11, "note": 58, "velocity": 91, "channel": 0}, {"type": "note_off", "time": 101, "note": 58, "velocity": 91, "channel": 0}, {"type": "note_on", "time": 9, "note": 58, "velocity": 93, "channel": 0}, {"type": "note_off", "time": 259, "note": 58, "velocity": 93, "channel": 0}, {"type": "note_on", "time": 313, "note": 70, "velocity": 104, "channel": 0}, {"type": "note_off", "time": 94, "note": 70, "velocity": 104, "channel": 0}, {"type": "note_on", "time": 197, "note": 69, "velocity": 105, "channel": 0}, {"type": "note_off", "time": 109, "note": 69, "velocity": 105, "channel": 0}, {"type": "note_on", "time": 7, "note": 67, "velocity": 99, "channel": 0}, {"type": "note_off", "time": 75, "note": 67, "velocity": 99, "channel": 0}, {"type": "note_on", "time": 4, "note": 65, "velocity": 99, "channel": 0}, {"type": "note_off", "time": 82, "note": 65, "velocity": 99, "channel": 0}, {"type": "note_on", "time": 13, "note": 63, "velocity": 111, "channel": 0}, {"type": "note_off", "time": 101, "note": 63, "velocity": 111, "channel": 0}, {"type": "note_on", "time": 8, "note": 62, "velocity": 94, "channel": 0}, {"type": "note_off", "time": 75, "note": 62, "velocity": 94, "channel": 0}, {"type": "note_on", "time": 12, "note": 60, "velocity": 104, "channel": 0}, {"type": "note_off", "time": 86, "note": 60, "velocity": 104, "channel": 0}, {"type": "note_on", "time": 5, "note": 59, "velocity": 94, "channel": 0}, {"type": "note_off", "time": 87, "note": 59, "velocity": 94, "channel": 0}, {"type": "note_on", "time": 41, "note": 55, "velocity": 97, "channel": 0}, {"type": "note_off", "time": 47, "note": 55, "velocity": 97, "channel": 0}, {"type": "note_on", "time": 7, "note": 60, "velocity": 107, "channel": 0}, {"type": "note_off", "time": 116, "note": 60, "velocity": 107, "channel": 0}, {"type": "note_on", "time": 9, "note": 61, "velocity": 108, "channel": 0}, {"type": "note_off", "time": 66, "note": 61, "velocity": 108, "channel": 0}, {"type": "note_on", "time": 19, "note": 62, "velocity": 106, "channel": 0}, {"type": "note_off", "time": 130, "note": 62, "velocity": 106, "channel": 0}, {"type": "note_on", "time": 6, "note": 65, "velocity": 100, "channel": 0}, {"type": "note_off", "time": 58, "note": 65, "velocity": 100, "channel": 0}, {"type": "note_on", "time": 110, "note": 65, "velocity": 81, "channel": 0}, {"type": "note_off", "time": 275, "note": 65, "velocity": 81, "channel": 0}, {"type": "note_on", "time": 596, "note": 67, "velocity": 106, "channel": 0}, {"type": "note_off", "time": 112, "note": 67, "velocity": 106, "channel": 0}, {"type": "note_on", "time": 2, "note": 65, "velocity": 91, "channel": 0}, {"type": "note_off", "time": 45, "note": 65, "velocity": 91, "channel": 0}, {"type": "note_on", "time": 38, "note": 62, "velocity": 110, "channel": 0}, {"type": "note_off", "time": 92, "note": 62, "velocity": 110, "channel": 0}, {"type": "note_on", "time": 10, "note": 60, "velocity": 102, "channel": 0}, {"type": "note_off", "time": 65, "note": 60, "velocity": 102, "channel": 0}, {"type": "note_on", "time": 13, "note": 58, "velocity": 99, "channel": 0}, {"type": "note_off", "time": 93, "note": 58, "velocity": 99, "channel": 0}, {"type": "note_on", "time": 32, "note": 53, "velocity": 100, "channel": 0}, {"type": "note_off", "time": 37, "note": 53, "velocity": 100, "channel": 0}, {"type": "note_on", "time": 138, "note": 50, "velocity": 100, "channel": 0}, {"type": "note_off", "time": 61, "note": 50, "velocity": 100, "channel": 0}, {"type": "note_on", "time": 18, "note": 53, "velocity": 101, "channel": 0}, {"type": "note_off", "time": 90, "note": 53, "velocity": 101, "channel": 0}, {"type": "note_on", "time": 1, "note": 58, "velocity": 93, "channel": 0}, {"type": "note_off", "time": 298, "note": 58, "velocity": 93, "channel": 0}, {"type": "note_on", "time": 1200, "note": 69, "velocity": 102, "channel": 0}, {"type": "note_off", "time": 97, "note": 69, "velocity": 102, "channel": 0}, {"type": "note_on", "time": 3, "note": 67, "velocity": 91, "channel": 0}, {"type": "note_off", "time": 72, "note": 67, "velocity": 91, "channel": 0}, {"type": "note_on", "time": 11, "note": 65, "velocity": 103, "channel": 0}, {"type": "note_off", "time": 90, "note": 65, "velocity": 103, "channel": 0}, {"type": "note_on", "time": 3, "note": 62, "velocity": 110, "channel": 0}, {"type": "note_off", "time": 79, "note": 62, "velocity": 110, "channel": 0}, {"type": "note_on", "time": 5, "note": 60, "velocity": 107, "channel": 0}, {"type": "note_off", "time": 124, "note": 60, "velocity": 107, "channel": 0}, {"type": "note_on", "time": 6, "note": 58, "velocity": 99, "channel": 0}, {"type": "note_off", "time": 66, "note": 58, "velocity": 99, "channel": 0}, {"type": "note_on", "time": 119, "note": 60, "velocity": 105, "channel": 0}, {"type": "note_off", "time": 271, "note": 60, "velocity": 105, "channel": 0}, {"type": "note_on", "time": 12, "note": 58, "velocity": 105, "channel": 0}, {"type": "note_off", "time": 94, "note": 58, "velocity": 105, "channel": 0}, {"type": "note_on", "time": 101, "note": 60, "velocity": 110, "channel": 0}, {"type": "note_off", "time": 107, "note": 60, "velocity": 110, "channel": 0}, {"type": "note_on", "time": 15, "note": 61, "velocity": 105, "channel": 0}, {"type": "note_off", "time": 49, "note": 61, "velocity": 105, "channel": 0}, {"type": "note_on", "time": 25, "note": 62, "velocity": 112, "channel": 0}, {"type": "note_off", "time": 93, "note": 62, "velocity": 112, "channel": 0}, {"type": "note_on", "time": 18, "note": 60, "velocity": 105, "channel": 0}, {"type": "note_off", "time": 233, "note": 60, "velocity": 105, "channel": 0}, {"type": "note_on", "time": 434, "note": 58, "velocity": 98, "channel": 0}, {"type": "note_off", "time": 86, "note": 58, "velocity": 98, "channel": 0}, {"type": "note_on", "time": 3, "note": 60, "velocity": 113, "channel": 0}, {"type": "note_off", "time": 90, "note": 60, "velocity": 113, "channel": 0}, {"type": "note_on", "time": 3, "note": 63, "velocity": 113, "channel": 0}, {"type": "note_off", "time": 98, "note": 63, "velocity": 113, "channel": 0}, {"type": "note_on", "time": 3, "note": 67, "velocity": 109, "channel": 0}, {"type": "note_off", "time": 83, "note": 67, "velocity": 109, "channel": 0}, {"type": "note_on", "time": 3, "note": 66, "velocity": 92, "channel": 0}, {"type": "note_off", "time": 71, "note": 66, "velocity": 92, "channel": 0}, {"type": "note_on", "time": 11, "note": 64, "velocity": 116, "channel": 0}, {"type": "note_off", "time": 87, "note": 64, "velocity": 116, "channel": 0}, {"type": "note_on", "time": 6, "note": 65, "velocity": 108, "channel": 0}, {"type": "note_off", "time": 109, "note": 65, "velocity": 108, "channel": 0}, {"type": "note_on", "time": 6, "note": 62, "velocity": 114, "channel": 0}, {"type": "note_off", "time": 76, "note": 62, "velocity": 114, "channel": 0}, {"type": "note_on", "time": 15, "note": 58, "velocity": 108, "channel": 0}, {"type": "note_off", "time": 80, "note": 58, "velocity": 108, "channel": 0}, {"type": "note_on", "time": 29, "note": 56, "velocity": 107, "channel": 0}, {"type": "note_off", "time": 66, "note": 56, "velocity": 107, "channel": 0}, {"type": "note_on", "time": 11, "note": 55, "velocity": 99, "channel": 0}, {"type": "note_off", "time": 121, "note": 55, "velocity": 99, "channel": 0}, {"type": "note_on", "time": 11, "note": 56, "velocity": 96, "channel": 0}, {"type": "note_off", "time": 59, "note": 56, "velocity": 96, "channel": 0}, {"type": "note_on", "time": 13, "note": 58, "velocity": 103, "channel": 0}, {"type": "note_off", "time": 102, "note": 58, "velocity": 103, "channel": 0}, {"type": "note_on", "time": 7, "note": 60, "velocity": 107, "channel": 0}, {"type": "note_off", "time": 79, "note": 60, "velocity": 107, "channel": 0}, {"type": "note_on", "time": 9, "note": 61, "velocity": 101, "channel": 0}, {"type": "note_off", "time": 86, "note": 61, "velocity": 101, "channel": 0}, {"type": "note_on", "time": 11, "note": 63, "velocity": 111, "channel": 0}, {"type": "note_off", "time": 125, "note": 63, "velocity": 111, "channel": 0}, {"type": "note_on", "time": 75, "note": 67, "velocity": 100, "channel": 0}, {"type": "note_off", "time": 41, "note": 67, "velocity": 100, "channel": 0}, {"type": "note_on", "time": 28, "note": 72, "velocity": 113, "channel": 0}, {"type": "note_off", "time": 132, "note": 72, "velocity": 113, "channel": 0}, {"type": "note_on", "time": 17, "note": 74, "velocity": 105, "channel": 0}, {"type": "note_off", "time": 53, "note": 74, "velocity": 105, "channel": 0}, {"type": "note_on", "time": 7, "note": 75, "velocity": 105, "channel": 0}, {"type": "note_off", "time": 123, "note": 75, "velocity": 105, "channel": 0}, {"type": "note_on", "time": 15, "note": 72, "velocity": 94, "channel": 0}, {"type": "note_off", "time": 34, "note": 72, "velocity": 94, "channel": 0}, {"type": "note_on", "time": 7, "note": 73, "velocity": 104, "channel": 0}, {"type": "note_off", "time": 118, "note": 73, "velocity": 104, "channel": 0}, {"type": "note_on", "time": 17, "note": 70, "velocity": 97, "channel": 0}, {"type": "note_off", "time": 80, "note": 70, "velocity": 97, "channel": 0}, {"type": "note_on", "time": 554, "note": 74, "velocity": 113, "channel": 0}, {"type": "note_off", "time": 102, "note": 74, "velocity": 113, "channel": 0}, {"type": "note_on", "time": 90, "note": 69, "velocity": 102, "channel": 0}, {"type": "note_off", "time": 91, "note": 69, "velocity": 102, "channel": 0}, {"type": "note_on", "time": 14, "note": 72, "velocity": 111, "channel": 0}, {"type": "note_off", "time": 80, "note": 72, "velocity": 111, "channel": 0}, {"type": "note_on", "time": 8, "note": 70, "velocity": 104, "channel": 0}, {"type": "note_off", "time": 99, "note": 70, "velocity": 104, "channel": 0}, {"type": "note_on", "time": 31, "note": 65, "velocity": 106, "channel": 0}, {"type": "note_off", "time": 59, "note": 65, "velocity": 106, "channel": 0}, {"type": "note_on", "time": 3, "note": 64, "velocity": 106, "channel": 0}, {"type": "note_off", "time": 85, "note": 64, "velocity": 106, "channel": 0}, {"type": "note_on", "time": 31, "note": 63, "velocity": 116, "channel": 0}, {"type": "note_off", "time": 87, "note": 63, "velocity": 116, "channel": 0}, {"type": "note_on", "time": 7, "note": 62, "velocity": 109, "channel": 0}, {"type": "note_off", "time": 90, "note": 62, "velocity": 109, "channel": 0}, {"type": "note_on", "time": 12, "note": 60, "velocity": 106, "channel": 0}, {"type": "note_off", "time": 71, "note": 60, "velocity": 106, "channel": 0}, {"type": "note_on", "time": 15, "note": 59, "velocity": 93, "channel": 0}, {"type": "note_off", "time": 99, "note": 59, "velocity": 93, "channel": 0}, {"type": "note_on", "time": 21, "note": 56, "velocity": 108, "channel": 0}, {"type": "note_off", "time": 61, "note": 56, "velocity": 108, "channel": 0}, {"type": "note_on", "time": 27, "note": 55, "velocity": 90, "channel": 0}, {"type": "note_off", "time": 80, "note": 55, "velocity": 90, "channel": 0}, {"type": "note_on", "time": 36, "note": 58, "velocity": 104, "channel": 0}, {"type": "note_off", "time": 55, "note": 58, "velocity": 104, "channel": 0}, {"type": "note_on", "time": 12, "note": 60, "velocity": 101, "channel": 0}, {"type": "note_off", "time": 97, "note": 60, "velocity": 101, "channel": 0}, {"type": "note_on", "time": 10, "note": 63, "velocity": 117, "channel": 0}, {"type": "note_off", "time": 80, "note": 63, "velocity": 117, "channel": 0}, {"type": "note_on", "time": 16, "note": 67, "velocity": 104, "channel": 0}, {"type": "note_off", "time": 80, "note": 67, "velocity": 104, "channel": 0}, {"type": "note_on", "time": 22, "note": 70, "velocity": 106, "channel": 0}, {"type": "note_off", "time": 72, "note": 70, "velocity": 106, "channel": 0}, {"type": "note_on", "time": 146, "note": 70, "velocity": 88, "channel": 0}, {"type": "note_off", "time": 219, "note": 70, "velocity": 88, "channel": 0}, {"type": "note_on", "time": 622, "note": 69, "velocity": 109, "channel": 0}, {"type": "note_off", "time": 107, "note": 69, "velocity": 109, "channel": 0}, {"type": "note_on", "time": 6, "note": 67, "velocity": 92, "channel": 0}, {"type": "note_off", "time": 67, "note": 67, "velocity": 92, "channel": 0}, {"type": "note_on", "time": 16, "note": 65, "velocity": 104, "channel": 0}, {"type": "note_off", "time": 66, "note": 65, "velocity": 104, "channel": 0}, {"type": "note_on", "time": 24, "note": 62, "velocity": 113, "channel": 0}, {"type": "note_off", "time": 67, "note": 62, "velocity": 113, "channel": 0}, {"type": "note_on", "time": 18, "note": 60, "velocity": 107, "channel": 0}, {"type": "note_off", "time": 91, "note": 60, "velocity": 107, "channel": 0}, {"type": "note_on", "time": 31, "note": 58, "velocity": 102, "channel": 0}, {"type": "note_off", "time": 75, "note": 58, "velocity": 102, "channel": 0}, {"type": "note_on", "time": 115, "note": 55, "velocity": 96, "channel": 0}, {"type": "note_off", "time": 162, "note": 55, "velocity": 96, "channel": 0}, {"type": "note_on", "time": 310, "note": 66, "velocity": 102, "channel": 0}, {"type": "note_off", "time": 96, "note": 66, "velocity": 102, "channel": 0}, {"type": "note_on", "time": 6, "note": 67, "velocity": 104, "channel": 0}, {"type": "note_off", "time": 565, "note": 67, "velocity": 104, "channel": 0}, {"type": "note_on", "time": 33, "note": 65, "velocity": 99, "channel": 0}, {"type": "note_off", "time": 37, "note": 65, "velocity": 99, "channel": 0}, {"type": "note_on", "time": 10, "note": 67, "velocity": 96, "channel": 0}, {"type": "note_off", "time": 316, "note": 67, "velocity": 96, "channel": 0}, {"type": "note_on", "time": 15, "note": 65, "velocity": 100, "channel": 0}, {"type": "note_off", "time": 59, "note": 65, "velocity": 100, "channel": 0}, {"type": "note_on", "time": 8, "note": 68, "velocity": 104, "channel": 0}, {"type": "note_off", "time": 110, "note": 68, "velocity": 104, "channel": 0}, {"type": "note_on", "time": 30, "note": 65, "velocity": 91, "channel": 0}, {"type": "note_off", "time": 43, "note": 65, "velocity": 91, "channel": 0}, {"type": "note_on", "time": 10, "note": 67, "velocity": 100, "channel": 0}, {"type": "note_off", "time": 280, "note": 67, "velocity": 100, "channel": 0}, {"type": "note_on", "time": 397, "note": 64, "velocity": 113, "channel": 0}, {"type": "note_off", "time": 76, "note": 64, "velocity": 113, "channel": 0}, {"type": "note_on", "time": 5, "note": 67, "velocity": 113, "channel": 0}, {"type": "note_off", "time": 82, "note": 67, "velocity": 113, "channel": 0}, {"type": "note_on", "time": 20, "note": 64, "velocity": 117, "channel": 0}, {"type": "note_off", "time": 85, "note": 64, "velocity": 117, "channel": 0}, {"type": "note_on", "time": 20, "note": 65, "velocity": 95, "channel": 0}, {"type": "note_off", "time": 66, "note": 65, "velocity": 95, "channel": 0}, {"type": "note_on", "time": 16, "note": 67, "velocity": 107, "channel": 0}, {"type": "note_off", "time": 74, "note": 67, "velocity": 107, "channel": 0}, {"type": "note_on", "time": 11, "note": 68, "velocity": 97, "channel": 0}, {"type": "note_off", "time": 74, "note": 68, "velocity": 97, "channel": 0}, {"type": "note_on", "time": 21, "note": 70, "velocity": 104, "channel": 0}, {"type": "note_off", "time": 85, "note": 70, "velocity": 104, "channel": 0}, {"type": "note_on", "time": 4, "note": 72, "velocity": 108, "channel": 0}, {"type": "note_off", "time": 102, "note": 72, "velocity": 108, "channel": 0}, {"type": "note_on", "time": 26, "note": 68, "velocity": 100, "channel": 0}, {"type": "note_off", "time": 57, "note": 68, "velocity": 100, "channel": 0}, {"type": "note_on", "time": 3, "note": 71, "velocity": 99, "channel": 0}, {"type": "note_off", "time": 240, "note": 71, "velocity": 99, "channel": 0}, {"type": "note_on", "time": 470, "note": 67, "velocity": 105, "channel": 0}, {"type": "note_off", "time": 64, "note": 67, "velocity": 105, "channel": 0}, {"type": "note_on", "time": 7, "note": 70, "velocity": 108, "channel": 0}, {"type": "note_off", "time": 102, "note": 70, "velocity": 108, "channel": 0}, {"type": "note_on", "time": 3, "note": 68, "velocity": 111, "channel": 0}, {"type": "note_off", "time": 85, "note": 68, "velocity": 111, "channel": 0}, {"type": "note_on", "time": 9, "note": 67, "velocity": 96, "channel": 0}, {"type": "note_off", "time": 83, "note": 67, "velocity": 96, "channel": 0}, {"type": "note_on", "time": 13, "note": 65, "velocity": 109, "channel": 0}, {"type": "note_off", "time": 66, "note": 65, "velocity": 109, "channel": 0}, {"type": "note_on", "time": 4, "note": 63, "velocity": 116, "channel": 0}, {"type": "note_off", "time": 113, "note": 63, "velocity": 116, "channel": 0}, {"type": "note_on", "time": 6, "note": 62, "velocity": 116, "channel": 0}, {"type": "note_off", "time": 63, "note": 62, "velocity": 116, "channel": 0}, {"type": "note_on", "time": 14, "note": 61, "velocity": 111, "channel": 0}, {"type": "note_off", "time": 96, "note": 61, "velocity": 111, "channel": 0}, {"type": "note_on", "time": 20, "note": 63, "velocity": 121, "channel": 0}, {"type": "note_off", "time": 81, "note": 63, "velocity": 121, "channel": 0}, {"type": "note_on", "time": 13, "note": 64, "velocity": 112, "channel": 0}, {"type": "note_off", "time": 96, "note": 64, "velocity": 112, "channel": 0}, {"type": "note_on", "time": 14, "note": 66, "velocity": 98, "channel": 0}, {"type": "note_off", "time": 56, "note": 66, "velocity": 98, "channel": 0}, {"type": "note_on", "time": 20, "note": 67, "velocity": 93, "channel": 0}, {"type": "note_off", "time": 86, "note": 67, "velocity": 93, "channel": 0}, {"type": "note_on", "time": 10, "note": 69, "velocity": 111, "channel": 0}, {"type": "note_off", "time": 77, "note": 69, "velocity": 111, "channel": 0}, {"type": "note_on", "time": 26, "note": 70, "velocity": 98, "channel": 0}, {"type": "note_off", "time": 62, "note": 70, "velocity": 98, "channel": 0}, {"type": "note_on", "time": 29, "note": 72, "velocity": 106, "channel": 0}, {"type": "note_off", "time": 79, "note": 72, "velocity": 106, "channel": 0}, {"type": "note_on", "time": 8, "note": 73, "velocity": 110, "channel": 0}, {"type": "note_off", "time": 96, "note": 73, "velocity": 110, "channel": 0}, {"type": "note_on", "time": 11, "note": 69, "velocity": 99, "channel": 0}, {"type": "note_off", "time": 66, "note": 69, "velocity": 99, "channel": 0}, {"type": "note_on", "time": 6, "note": 70, "velocity": 100, "channel": 0}, {"type": "note_off", "time": 103, "note": 70, "velocity": 100, "channel": 0}, {"type": "note_on", "time": 28, "note": 64, "velocity": 96, "channel": 0}, {"type": "note_off", "time": 50, "note": 64, "velocity": 96, "channel": 0}, {"type": "note_on", "time": 10, "note": 67, "velocity": 102, "channel": 0}, {"type": "note_off", "time": 91, "note": 67, "velocity": 102, "channel": 0}, {"type": "note_on", "time": 8, "note": 63, "velocity": 114, "channel": 0}, {"type": "note_off", "time": 81, "note": 63, "velocity": 114, "channel": 0}, {"type": "note_on", "time": 7, "note": 64, "velocity": 110, "channel": 0}, {"type": "note_off", "time": 104, "note": 64, "velocity": 110, "channel": 0}, {"type": "note_on", "time": 6, "note": 60, "velocity": 108, "channel": 0}, {"type": "note_off", "time": 58, "note": 60, "velocity": 108, "channel": 0}, {"type": "note_on", "time": 9, "note": 61, "velocity": 108, "channel": 0}, {"type": "note_off", "time": 114, "note": 61, "velocity": 108, "channel": 0}, {"type": "note_on", "time": 15, "note": 57, "velocity": 103, "channel": 0}, {"type": "note_off", "time": 69, "note": 57, "velocity": 103, "channel": 0}, {"type": "note_on", "time": 22, "note": 58, "velocity": 99, "channel": 0}, {"type": "note_off", "time": 71, "note": 58, "velocity": 99, "channel": 0}, {"type": "note_on", "time": 52, "note": 54, "velocity": 103, "channel": 0}, {"type": "note_off", "time": 47, "note": 54, "velocity": 103, "channel": 0}, {"type": "note_on", "time": 9, "note": 55, "velocity": 103, "channel": 0}, {"type": "note_off", "time": 95, "note": 55, "velocity": 103, "channel": 0}, {"type": "note_on", "time": 31, "note": 51, "velocity": 97, "channel": 0}, {"type": "note_off", "time": 42, "note": 51, "velocity": 97, "channel": 0}, {"type": "note_on", "time": 6, "note": 52, "velocity": 100, "channel": 0}, {"type": "note_off", "time": 86, "note": 52, "velocity": 100, "channel": 0}, {"type": "note_on", "time": 10, "note": 54, "velocity": 102, "channel": 0}, {"type": "note_off", "time": 83, "note": 54, "velocity": 102, "channel": 0}, {"type": "note_on", "time": 12, "note": 55, "velocity": 103, "channel": 0}, {"type": "note_off", "time": 106, "note": 55, "velocity": 103, "channel": 0}, {"type": "note_on", "time": 7, "note": 57, "velocity": 107, "channel": 0}, {"type": "note_off", "time": 84, "note": 57, "velocity": 107, "channel": 0}, {"type": "note_on", "time": 15, "note": 58, "velocity": 106, "channel": 0}, {"type": "note_off", "time": 85, "note": 58, "velocity": 106, "channel": 0}, {"type": "note_on", "time": 20, "note": 60, "velocity": 110, "channel": 0}, {"type": "note_off", "time": 54, "note": 60, "velocity": 110, "channel": 0}, {"type": "note_on", "time": 20, "note": 61, "velocity": 106, "channel": 0}, {"type": "note_off", "time": 93, "note": 61, "velocity": 106, "channel": 0}, {"type": "note_on", "time": 13, "note": 63, "velocity": 115, "channel": 0}, {"type": "note_off", "time": 88, "note": 63, "velocity": 115, "channel": 0}, {"type": "note_on", "time": 15, "note": 64, "velocity": 104, "channel": 0}, {"type": "note_off", "time": 86, "note": 64, "velocity": 104, "channel": 0}, {"type": "note_on", "time": 18, "note": 66, "velocity": 96, "channel": 0}, {"type": "note_off", "time": 44, "note": 66, "velocity": 96, "channel": 0}, {"type": "note_on", "time": 28, "note": 67, "velocity": 100, "channel": 0}, {"type": "note_off", "time": 98, "note": 67, "velocity": 100, "channel": 0}, {"type": "note_on", "time": 586, "note": 79, "velocity": 106, "channel": 0}, {"type": "note_off", "time": 44, "note": 79, "velocity": 106, "channel": 0}, {"type": "note_on", "time": 3, "note": 83, "velocity": 105, "channel": 0}, {"type": "note_off", "time": 46, "note": 83, "velocity": 105, "channel": 0}, {"type": "note_on", "time": 109, "note": 73, "velocity": 103, "channel": 0}, {"type": "note_off", "time": 242, "note": 73, "velocity": 103, "channel": 0}, {"type": "note_on", "time": 13, "note": 70, "velocity": 97, "channel": 0}, {"type": "note_off", "time": 273, "note": 70, "velocity": 97, "channel": 0}, {"type": "note_on", "time": 894, "note": 79, "velocity": 107, "channel": 0}, {"type": "note_off", "time": 56, "note": 79, "velocity": 107, "channel": 0}, {"type": "note_on", "time": 109, "note": 73, "velocity": 107, "channel": 0}, {"type": "note_off", "time": 177, "note": 73, "velocity": 107, "channel": 0}, {"type": "note_on", "time": 17, "note": 70, "velocity": 106, "channel": 0}, {"type": "note_off", "time": 173, "note": 70, "velocity": 106, "channel": 0}, {"type": "note_on", "time": 6, "note": 67, "velocity": 96, "channel": 0}, {"type": "note_off", "time": 190, "note": 67, "velocity": 96, "channel": 0}, {"type": "note_on", "time": 13, "note": 70, "velocity": 98, "channel": 0}, {"type": "note_off", "time": 305, "note": 70, "velocity": 98, "channel": 0}, {"type": "note_on", "time": 3, "note": 72, "velocity": 112, "channel": 0}, {"type": "note_off", "time": 109, "note": 72, "velocity": 112, "channel": 0}, {"type": "note_on", "time": 468, "note": 79, "velocity": 108, "channel": 0}, {"type": "note_off", "time": 94, "note": 79, "velocity": 108, "channel": 0}, {"type": "note_on", "time": 199, "note": 73, "velocity": 97, "channel": 0}, {"type": "note_off", "time": 348, "note": 73, "velocity": 97, "channel": 0}, {"type": "note_on", "time": 37, "note": 70, "velocity": 107, "channel": 0}, {"type": "note_off", "time": 79, "note": 70, "velocity": 107, "channel": 0}, {"type": "note_on", "time": 105, "note": 68, "velocity": 111, "channel": 0}, {"type": "note_off", "time": 96, "note": 68, "velocity": 111, "channel": 0}, {"type": "note_on", "time": 6, "note": 67, "velocity": 106, "channel": 0}, {"type": "note_off", "time": 79, "note": 67, "velocity": 106, "channel": 0}, {"type": "note_on", "time": 7, "note": 66, "velocity": 95, "channel": 0}, {"type": "note_off", "time": 80, "note": 66, "velocity": 95, "channel": 0}, {"type": "note_on", "time": 10, "note": 62, "velocity": 107, "channel": 0}, {"type": "note_off", "time": 79, "note": 62, "velocity": 107, "channel": 0}, {"type": "note_on", "time": 11, "note": 57, "velocity": 105, "channel": 0}, {"type": "note_off", "time": 125, "note": 57, "velocity": 105, "channel": 0}, {"type": "note_on", "time": 10, "note": 56, "velocity": 104, "channel": 0}, {"type": "note_off", "time": 60, "note": 56, "velocity": 104, "channel": 0}, {"type": "note_on", "time": 8, "note": 55, "velocity": 98, "channel": 0}, {"type": "note_off", "time": 94, "note": 55, "velocity": 98, "channel": 0}, {"type": "note_on", "time": 11, "note": 56, "velocity": 99, "channel": 0}, {"type": "note_off", "time": 67, "note": 56, "velocity": 99, "channel": 0}, {"type": "note_on", "time": 29, "note": 58, "velocity": 105, "channel": 0}, {"type": "note_off", "time": 96, "note": 58, "velocity": 105, "channel": 0}, {"type": "note_on", "time": 6, "note": 60, "velocity": 111, "channel": 0}, {"type": "note_off", "time": 76, "note": 60, "velocity": 111, "channel": 0}, {"type": "note_on", "time": 12, "note": 61, "velocity": 112, "channel": 0}, {"type": "note_off", "time": 94, "note": 61, "velocity": 112, "channel": 0}, {"type": "note_on", "time": 9, "note": 63, "velocity": 120, "channel": 0}, {"type": "note_off", "time": 105, "note": 63, "velocity": 120, "channel": 0}, {"type": "note_on", "time": 147, "note": 72, "velocity": 103, "channel": 0}, {"type": "note_off", "time": 251, "note": 72, "velocity": 103, "channel": 0}, {"type": "note_on", "time": 166, "note": 70, "velocity": 113, "channel": 0}, {"type": "note_off", "time": 99, "note": 70, "velocity": 113, "channel": 0}, {"type": "note_on", "time": 16, "note": 65, "velocity": 105, "channel": 0}, {"type": "note_off", "time": 50, "note": 65, "velocity": 105, "channel": 0}, {"type": "note_on", "time": 34, "note": 61, "velocity": 105, "channel": 0}, {"type": "note_off", "time": 88, "note": 61, "velocity": 105, "channel": 0}, {"type": "note_on", "time": 18, "note": 62, "velocity": 118, "channel": 0}, {"type": "note_off", "time": 64, "note": 62, "velocity": 118, "channel": 0}, {"type": "note_on", "time": 14, "note": 65, "velocity": 104, "channel": 0}, {"type": "note_off", "time": 75, "note": 65, "velocity": 104, "channel": 0}, {"type": "note_on", "time": 40, "note": 70, "velocity": 111, "channel": 0}, {"type": "note_off", "time": 77, "note": 70, "velocity": 111, "channel": 0}, {"type": "note_on", "time": 124, "note": 69, "velocity": 98, "channel": 0}, {"type": "note_off", "time": 284, "note": 69, "velocity": 98, "channel": 0}, {"type": "note_on", "time": 1333, "note": 65, "velocity": 110, "channel": 0}, {"type": "note_off", "time": 93, "note": 65, "velocity": 110, "channel": 0}, {"type": "note_on", "time": 99, "note": 70, "velocity": 116, "channel": 0}, {"type": "note_off", "time": 88, "note": 70, "velocity": 116, "channel": 0}, {"type": "note_on", "time": 12, "note": 72, "velocity": 124, "channel": 0}, {"type": "note_off", "time": 73, "note": 72, "velocity": 124, "channel": 0}, {"type": "note_on", "time": 18, "note": 70, "velocity": 98, "channel": 0}, {"type": "note_off", "time": 80, "note": 70, "velocity": 98, "channel": 0}, {"type": "note_on", "time": 9, "note": 67, "velocity": 110, "channel": 0}, {"type": "note_off", "time": 75, "note": 67, "velocity": 110, "channel": 0}, {"type": "note_on", "time": 11, "note": 65, "velocity": 110, "channel": 0}, {"type": "note_off", "time": 94, "note": 65, "velocity": 110, "channel": 0}, {"type": "note_on", "time": 11, "note": 61, "velocity": 115, "channel": 0}, {"type": "note_off", "time": 78, "note": 61, "velocity": 115, "channel": 0}, {"type": "note_on", "time": 15, "note": 62, "velocity": 113, "channel": 0}, {"type": "note_off", "time": 98, "note": 62, "velocity": 113, "channel": 0}, {"type": "note_on", "time": 15, "note": 63, "velocity": 124, "channel": 0}, {"type": "note_off", "time": 90, "note": 63, "velocity": 124, "channel": 0}, {"type": "note_on", "time": 6, "note": 61, "velocity": 113, "channel": 0}, {"type": "note_off", "time": 71, "note": 61, "velocity": 113, "channel": 0}, {"type": "note_on", "time": 9, "note": 62, "velocity": 117, "channel": 0}, {"type": "note_off", "time": 70, "note": 62, "velocity": 117, "channel": 0}, {"type": "note_on", "time": 9, "note": 58, "velocity": 110, "channel": 0}, {"type": "note_off", "time": 99, "note": 58, "velocity": 110, "channel": 0}, {"type": "note_on", "time": 12, "note": 53, "velocity": 105, "channel": 0}, {"type": "note_off", "time": 72, "note": 53, "velocity": 105, "channel": 0}, {"type": "note_on", "time": 22, "note": 50, "velocity": 98, "channel": 0}, {"type": "note_off", "time": 92, "note": 50, "velocity": 98, "channel": 0}, {"type": "note_on", "time": 13, "note": 51, "velocity": 97, "channel": 0}, {"type": "note_off", "time": 62, "note": 51, "velocity": 97, "channel": 0}, {"type": "note_on", "time": 17, "note": 53, "velocity": 111, "channel": 0}, {"type": "note_off", "time": 97, "note": 53, "velocity": 111, "channel": 0}, {"type": "note_on", "time": 27, "note": 49, "velocity": 98, "channel": 0}, {"type": "note_off", "time": 85, "note": 49, "velocity": 98, "channel": 0}, {"type": "note_on", "time": 14, "note": 50, "velocity": 98, "channel": 0}, {"type": "note_off", "time": 58, "note": 50, "velocity": 98, "channel": 0}, {"type": "note_on", "time": 18, "note": 53, "velocity": 107, "channel": 0}, {"type": "note_off", "time": 69, "note": 53, "velocity": 107, "channel": 0}, {"type": "note_on", "time": 14, "note": 58, "velocity": 101, "channel": 0}, {"type": "note_off", "time": 241, "note": 58, "velocity": 101, "channel": 0}, {"type": "note_on", "time": 491, "note": 58, "velocity": 107, "channel": 0}, {"type": "note_off", "time": 47, "note": 58, "velocity": 107, "channel": 0}, {"type": "note_on", "time": 3, "note": 64, "velocity": 118, "channel": 0}, {"type": "note_off", "time": 68, "note": 64, "velocity": 118, "channel": 0}, {"type": "note_on", "time": 6, "note": 67, "velocity": 120, "channel": 0}, {"type": "note_off", "time": 29, "note": 67, "velocity": 120, "channel": 0}, {"type": "note_on", "time": 3, "note": 65, "velocity": 119, "channel": 0}, {"type": "note_off", "time": 77, "note": 65, "velocity": 119, "channel": 0}, {"type": "note_on", "time": 4, "note": 64, "velocity": 123, "channel": 0}, {"type": "note_off", "time": 377, "note": 64, "velocity": 123, "channel": 0}, {"type": "note_on", "time": 27, "note": 63, "velocity": 122, "channel": 0}, {"type": "note_off", "time": 98, "note": 63, "velocity": 122, "channel": 0}, {"type": "note_on", "time": 11, "note": 61, "velocity": 121, "channel": 0}, {"type": "note_off", "time": 91, "note": 61, "velocity": 121, "channel": 0}, {"type": "note_on", "time": 83, "note": 58, "velocity": 109, "channel": 0}, {"type": "note_off", "time": 73, "note": 58, "velocity": 109, "channel": 0}, {"type": "note_on", "time": 10, "note": 55, "velocity": 110, "channel": 0}, {"type": "note_off", "time": 109, "note": 55, "velocity": 110, "channel": 0}, {"type": "note_on", "time": 12, "note": 53, "velocity": 106, "channel": 0}, {"type": "note_off", "time": 283, "note": 53, "velocity": 106, "channel": 0}, {"type": "note_on", "time": 291, "note": 53, "velocity": 106, "channel": 0}, {"type": "note_off", "time": 79, "note": 53, "velocity": 106, "channel": 0}, {"type": "note_on", "time": 30, "note": 58, "velocity": 112, "channel": 0}, {"type": "note_off", "time": 75, "note": 58, "velocity": 112, "channel": 0}, {"type": "note_on", "time": 23, "note": 62, "velocity": 123, "channel": 0}, {"type": "note_off", "time": 60, "note": 62, "velocity": 123, "channel": 0}, {"type": "note_on", "time": 20, "note": 57, "velocity": 102, "channel": 0}, {"type": "note_off", "time": 71, "note": 57, "velocity": 102, "channel": 0}, {"type": "note_on", "time": 3, "note": 60, "velocity": 118, "channel": 0}, {"type": "note_off", "time": 101, "note": 60, "velocity": 118, "channel": 0}, {"type": "note_on", "time": 11, "note": 63, "velocity": 123, "channel": 0}, {"type": "note_off", "time": 101, "note": 63, "velocity": 123, "channel": 0}, {"type": "note_on", "time": 5, "note": 67, "velocity": 117, "channel": 0}, {"type": "note_off", "time": 64, "note": 67, "velocity": 117, "channel": 0}, {"type": "note_on", "time": 12, "note": 65, "velocity": 116, "channel": 0}, {"type": "note_off", "time": 93, "note": 65, "velocity": 116, "channel": 0}, {"type": "note_on", "time": 6, "note": 62, "velocity": 123, "channel": 0}, {"type": "note_off", "time": 74, "note": 62, "velocity": 123, "channel": 0}, {"type": "note_on", "time": 5, "note": 58, "velocity": 113, "channel": 0}, {"type": "note_off", "time": 96, "note": 58, "velocity": 113, "channel": 0}, {"type": "note_on", "time": 10, "note": 57, "velocity": 115, "channel": 0}, {"type": "note_off", "time": 86, "note": 57, "velocity": 115, "channel": 0}, {"type": "note_on", "time": 14, "note": 56, "velocity": 107, "channel": 0}, {"type": "note_off", "time": 105, "note": 56, "velocity": 107, "channel": 0}, {"type": "note_on", "time": 180, "note": 60, "velocity": 116, "channel": 0}, {"type": "note_off", "time": 74, "note": 60, "velocity": 116, "channel": 0}, {"type": "note_on", "time": 5, "note": 63, "velocity": 116, "channel": 0}, {"type": "note_off", "time": 28, "note": 63, "velocity": 116, "channel": 0}, {"type": "note_on", "time": 3, "note": 65, "velocity": 121, "channel": 0}, {"type": "note_off", "time": 54, "note": 65, "velocity": 121, "channel": 0}, {"type": "note_on", "time": 4, "note": 67, "velocity": 109, "channel": 0}, {"type": "note_off", "time": 24, "note": 67, "velocity": 109, "channel": 0}, {"type": "note_on", "time": 1, "note": 65, "velocity": 120, "channel": 0}, {"type": "note_off", "time": 66, "note": 65, "velocity": 120, "channel": 0}, {"type": "note_on", "time": 3, "note": 64, "velocity": 122, "channel": 0}, {"type": "note_off", "time": 380, "note": 64, "velocity": 122, "channel": 0}, {"type": "note_on", "time": 9, "note": 63, "velocity": 125, "channel": 0}, {"type": "note_off", "time": 90, "note": 63, "velocity": 125, "channel": 0}, {"type": "note_on", "time": 19, "note": 61, "velocity": 118, "channel": 0}, {"type": "note_off", "time": 115, "note": 61, "velocity": 118, "channel": 0}, {"type": "note_on", "time": 81, "note": 58, "velocity": 116, "channel": 0}, {"type": "note_off", "time": 69, "note": 58, "velocity": 116, "channel": 0}, {"type": "note_on", "time": 9, "note": 55, "velocity": 106, "channel": 0}, {"type": "note_off", "time": 90, "note": 55, "velocity": 106, "channel": 0}, {"type": "note_on", "time": 48, "note": 50, "velocity": 100, "channel": 0}, {"type": "note_off", "time": 46, "note": 50, "velocity": 100, "channel": 0}, {"type": "note_on", "time": 13, "note": 53, "velocity": 110, "channel": 0}, {"type": "note_off", "time": 83, "note": 53, "velocity": 110, "channel": 0}, {"type": "note_on", "time": 25, "note": 55, "velocity": 101, "channel": 0}, {"type": "note_off", "time": 229, "note": 55, "velocity": 101, "channel": 0}, {"type": "note_on", "time": 350, "note": 53, "velocity": 108, "channel": 0}, {"type": "note_off", "time": 78, "note": 53, "velocity": 108, "channel": 0}, {"type": "note_on", "time": 5, "note": 58, "velocity": 112, "channel": 0}, {"type": "note_off", "time": 90, "note": 58, "velocity": 112, "channel": 0}, {"type": "note_on", "time": 8, "note": 62, "velocity": 123, "channel": 0}, {"type": "note_off", "time": 82, "note": 62, "velocity": 123, "channel": 0}, {"type": "note_on", "time": 10, "note": 57, "velocity": 103, "channel": 0}, {"type": "note_off", "time": 82, "note": 57, "velocity": 103, "channel": 0}, {"type": "note_on", "time": 27, "note": 60, "velocity": 118, "channel": 0}, {"type": "note_off", "time": 71, "note": 60, "velocity": 118, "channel": 0}, {"type": "note_on", "time": 7, "note": 63, "velocity": 121, "channel": 0}, {"type": "note_off", "time": 95, "note": 63, "velocity": 121, "channel": 0}, {"type": "note_on", "time": 5, "note": 67, "velocity": 117, "channel": 0}, {"type": "note_off", "time": 72, "note": 67, "velocity": 117, "channel": 0}, {"type": "note_on", "time": 5, "note": 65, "velocity": 108, "channel": 0}, {"type": "note_off", "time": 115, "note": 65, "velocity": 108, "channel": 0}, {"type": "note_on", "time": 7, "note": 67, "velocity": 107, "channel": 0}, {"type": "note_off", "time": 43, "note": 67, "velocity": 107, "channel": 0}, {"type": "note_on", "time": 7, "note": 70, "velocity": 114, "channel": 0}, {"type": "note_off", "time": 90, "note": 70, "velocity": 114, "channel": 0}, {"type": "note_on", "time": 37, "note": 74, "velocity": 121, "channel": 0}, {"type": "note_off", "time": 83, "note": 74, "velocity": 121, "channel": 0}, {"type": "note_on", "time": 12, "note": 72, "velocity": 117, "channel": 0}, {"type": "note_off", "time": 86, "note": 72, "velocity": 117, "channel": 0}, {"type": "note_on", "time": 105, "note": 73, "velocity": 121, "channel": 0}, {"type": "note_off", "time": 94, "note": 73, "velocity": 121, "channel": 0}, {"type": "note_on", "time": 14, "note": 73, "velocity": 119, "channel": 0}, {"type": "note_off", "time": 56, "note": 73, "velocity": 119, "channel": 0}, {"type": "note_on", "time": 10, "note": 70, "velocity": 112, "channel": 0}, {"type": "note_off", "time": 104, "note": 70, "velocity": 112, "channel": 0}, {"type": "note_on", "time": 9, "note": 73, "velocity": 108, "channel": 0}, {"type": "note_off", "time": 83, "note": 73, "velocity": 108, "channel": 0}, {"type": "note_on", "time": 10, "note": 68, "velocity": 117, "channel": 0}, {"type": "note_off", "time": 91, "note": 68, "velocity": 117, "channel": 0}, {"type": "note_on", "time": 4, "note": 67, "velocity": 112, "channel": 0}, {"type": "note_off", "time": 82, "note": 67, "velocity": 112, "channel": 0}, {"type": "note_on", "time": 11, "note": 65, "velocity": 111, "channel": 0}, {"type": "note_off", "time": 92, "note": 65, "velocity": 111, "channel": 0}, {"type": "note_on", "time": 28, "note": 58, "velocity": 107, "channel": 0}, {"type": "note_off", "time": 77, "note": 58, "velocity": 107, "channel": 0}, {"type": "note_on", "time": 24, "note": 61, "velocity": 114, "channel": 0}, {"type": "note_off", "time": 66, "note": 61, "velocity": 114, "channel": 0}, {"type": "note_on", "time": 6, "note": 60, "velocity": 115, "channel": 0}, {"type": "note_off", "time": 66, "note": 60, "velocity": 115, "channel": 0}, {"type": "note_on", "time": 30, "note": 58, "velocity": 109, "channel": 0}, {"type": "note_off", "time": 64, "note": 58, "velocity": 109, "channel": 0}, {"type": "note_on", "time": 30, "note": 53, "velocity": 106, "channel": 0}, {"type": "note_off", "time": 67, "note": 53, "velocity": 106, "channel": 0}, {"type": "note_on", "time": 22, "note": 56, "velocity": 111, "channel": 0}, {"type": "note_off", "time": 105, "note": 56, "velocity": 111, "channel": 0}, {"type": "note_on", "time": 7, "note": 55, "velocity": 105, "channel": 0}, {"type": "note_off", "time": 55, "note": 55, "velocity": 105, "channel": 0}, {"type": "note_on", "time": 20, "note": 53, "velocity": 101, "channel": 0}, {"type": "note_off", "time": 199, "note": 53, "velocity": 101, "channel": 0}, {"type": "note_on", "time": 1148, "note": 70, "velocity": 127, "channel": 0}, {"type": "note_off", "time": 121, "note": 70, "velocity": 127, "channel": 0}, {"type": "note_on", "time": 188, "note": 58, "velocity": 108, "channel": 0}, {"type": "note_off", "time": 79, "note": 58, "velocity": 108, "channel": 0}, {"type": "note_on", "time": 11, "note": 60, "velocity": 107, "channel": 0}, {"type": "note_off", "time": 115, "note": 60, "velocity": 107, "channel": 0}, {"type": "note_on", "time": 7, "note": 62, "velocity": 121, "channel": 0}, {"type": "note_off", "time": 67, "note": 62, "velocity": 121, "channel": 0}, {"type": "note_on", "time": 168, "note": 65, "velocity": 96, "channel": 0}, {"type": "note_off", "time": 361, "note": 65, "velocity": 96, "channel": 0}, {"type": "note_on", "time": 32, "note": 63, "velocity": 122, "channel": 0}, {"type": "note_off", "time": 143, "note": 63, "velocity": 122, "channel": 0}, {"type": "note_on", "time": 8, "note": 65, "velocity": 100, "channel": 0}, {"type": "note_off", "time": 23, "note": 65, "velocity": 100, "channel": 0}, {"type": "note_on", "time": 11, "note": 67, "velocity": 102, "channel": 0}, {"type": "note_off", "time": 97, "note": 67, "velocity": 102, "channel": 0}, {"type": "note_on", "time": 15, "note": 70, "velocity": 113, "channel": 0}, {"type": "note_off", "time": 93, "note": 70, "velocity": 113, "channel": 0}, {"type": "note_on", "time": 5, "note": 69, "velocity": 115, "channel": 0}, {"type": "note_off", "time": 88, "note": 69, "velocity": 115, "channel": 0}, {"type": "note_on", "time": 31, "note": 74, "velocity": 114, "channel": 0}, {"type": "note_off", "time": 54, "note": 74, "velocity": 114, "channel": 0}, {"type": "note_on", "time": 116, "note": 70, "velocity": 94, "channel": 0}, {"type": "note_off", "time": 323, "note": 70, "velocity": 94, "channel": 0}, {"type": "note_on", "time": 551, "note": 70, "velocity": 114, "channel": 0}, {"type": "note_off", "time": 83, "note": 70, "velocity": 114, "channel": 0}, {"type": "note_on", "time": 106, "note": 68, "velocity": 117, "channel": 0}, {"type": "note_off", "time": 54, "note": 68, "velocity": 117, "channel": 0}, {"type": "note_on", "time": 9, "note": 70, "velocity": 110, "channel": 0}, {"type": "note_off", "time": 42, "note": 70, "velocity": 110, "channel": 0}, {"type": "note_on", "time": 3, "note": 68, "velocity": 115, "channel": 0}, {"type": "note_off", "time": 50, "note": 68, "velocity": 115, "channel": 0}, {"type": "note_on", "time": 11, "note": 67, "velocity": 112, "channel": 0}, {"type": "note_off", "time": 67, "note": 67, "velocity": 112, "channel": 0}, {"type": "note_on", "time": 6, "note": 66, "velocity": 101, "channel": 0}, {"type": "note_off", "time": 67, "note": 66, "velocity": 101, "channel": 0}, {"type": "note_on", "time": 5, "note": 62, "velocity": 113, "channel": 0}, {"type": "note_off", "time": 68, "note": 62, "velocity": 113, "channel": 0}, {"type": "note_on", "time": 23, "note": 57, "velocity": 108, "channel": 0}, {"type": "note_off", "time": 79, "note": 57, "velocity": 108, "channel": 0}, {"type": "note_on", "time": 9, "note": 56, "velocity": 109, "channel": 0}, {"type": "note_off", "time": 67, "note": 56, "velocity": 109, "channel": 0}, {"type": "note_on", "time": 12, "note": 55, "velocity": 104, "channel": 0}, {"type": "note_off", "time": 69, "note": 55, "velocity": 104, "channel": 0}, {"type": "note_on", "time": 8, "note": 56, "velocity": 101, "channel": 0}, {"type": "note_off", "time": 56, "note": 56, "velocity": 101, "channel": 0}, {"type": "note_on", "time": 8, "note": 57, "velocity": 110, "channel": 0}, {"type": "note_off", "time": 52, "note": 57, "velocity": 110, "channel": 0}, {"type": "note_on", "time": 7, "note": 58, "velocity": 109, "channel": 0}, {"type": "note_off", "time": 93, "note": 58, "velocity": 109, "channel": 0}, {"type": "note_on", "time": 8, "note": 60, "velocity": 118, "channel": 0}, {"type": "note_off", "time": 56, "note": 60, "velocity": 118, "channel": 0}, {"type": "note_on", "time": 7, "note": 61, "velocity": 114, "channel": 0}, {"type": "note_off", "time": 94, "note": 61, "velocity": 114, "channel": 0}, {"type": "note_on", "time": 11, "note": 63, "velocity": 121, "channel": 0}, {"type": "note_off", "time": 108, "note": 63, "velocity": 121, "channel": 0}, {"type": "note_on", "time": 5, "note": 65, "velocity": 100, "channel": 0}, {"type": "note_off", "time": 77, "note": 65, "velocity": 100, "channel": 0}, {"type": "note_on", "time": 12, "note": 67, "velocity": 106, "channel": 0}, {"type": "note_off", "time": 67, "note": 67, "velocity": 106, "channel": 0}, {"type": "note_on", "time": 9, "note": 72, "velocity": 117, "channel": 0}, {"type": "note_off", "time": 97, "note": 72, "velocity": 117, "channel": 0}, {"type": "note_on", "time": 4, "note": 73, "velocity": 115, "channel": 0}, {"type": "note_off", "time": 43, "note": 73, "velocity": 115, "channel": 0}, {"type": "note_on", "time": 3, "note": 74, "velocity": 112, "channel": 0}, {"type": "note_off", "time": 36, "note": 74, "velocity": 112, "channel": 0}, {"type": "note_on", "time": 5, "note": 75, "velocity": 114, "channel": 0}, {"type": "note_off", "time": 93, "note": 75, "velocity": 114, "channel": 0}, {"type": "note_on", "time": 33, "note": 72, "velocity": 98, "channel": 0}, {"type": "note_off", "time": 51, "note": 72, "velocity": 98, "channel": 0}, {"type": "note_on", "time": 5, "note": 73, "velocity": 117, "channel": 0}, {"type": "note_off", "time": 123, "note": 73, "velocity": 117, "channel": 0}, {"type": "note_on", "time": 16, "note": 70, "velocity": 112, "channel": 0}, {"type": "note_off", "time": 71, "note": 70, "velocity": 112, "channel": 0}, {"type": "note_on", "time": 122, "note": 74, "velocity": 100, "channel": 0}, {"type": "note_off", "time": 274, "note": 74, "velocity": 100, "channel": 0}, {"type": "note_on", "time": 15, "note": 69, "velocity": 95, "channel": 0}, {"type": "note_off", "time": 79, "note": 69, "velocity": 95, "channel": 0}, {"type": "note_on", "time": 3, "note": 72, "velocity": 113, "channel": 0}, {"type": "note_off", "time": 79, "note": 72, "velocity": 113, "channel": 0}, {"type": "note_on", "time": 7, "note": 70, "velocity": 108, "channel": 0}, {"type": "note_off", "time": 88, "note": 70, "velocity": 108, "channel": 0}, {"type": "note_on", "time": 38, "note": 65, "velocity": 112, "channel": 0}, {"type": "note_off", "time": 43, "note": 65, "velocity": 112, "channel": 0}, {"type": "note_on", "time": 6, "note": 64, "velocity": 114, "channel": 0}, {"type": "note_off", "time": 96, "note": 64, "velocity": 114, "channel": 0}, {"type": "note_on", "time": 36, "note": 63, "velocity": 122, "channel": 0}, {"type": "note_off", "time": 70, "note": 63, "velocity": 122, "channel": 0}, {"type": "note_on", "time": 7, "note": 62, "velocity": 114, "channel": 0}, {"type": "note_off", "time": 96, "note": 62, "velocity": 114, "channel": 0}, {"type": "note_on", "time": 15, "note": 60, "velocity": 108, "channel": 0}, {"type": "note_off", "time": 61, "note": 60, "velocity": 108, "channel": 0}, {"type": "note_on", "time": 13, "note": 57, "velocity": 99, "channel": 0}, {"type": "note_off", "time": 81, "note": 57, "velocity": 99, "channel": 0}, {"type": "note_on", "time": 38, "note": 58, "velocity": 107, "channel": 0}, {"type": "note_off", "time": 78, "note": 58, "velocity": 107, "channel": 0}, {"type": "note_on", "time": 11, "note": 59, "velocity": 109, "channel": 0}, {"type": "note_off", "time": 71, "note": 59, "velocity": 109, "channel": 0}, {"type": "note_on", "time": 39, "note": 55, "velocity": 105, "channel": 0}, {"type": "note_off", "time": 63, "note": 55, "velocity": 105, "channel": 0}, {"type": "note_on", "time": 9, "note": 56, "velocity": 105, "channel": 0}, {"type": "note_off", "time": 73, "note": 56, "velocity": 105, "channel": 0}, {"type": "note_on", "time": 19, "note": 54, "velocity": 104, "channel": 0}, {"type": "note_off", "time": 66, "note": 54, "velocity": 104, "channel": 0}, {"type": "note_on", "time": 17, "note": 55, "velocity": 103, "channel": 0}, {"type": "note_off", "time": 80, "note": 55, "velocity": 103, "channel": 0}, {"type": "note_on", "time": 16, "note": 62, "velocity": 118, "channel": 0}, {"type": "note_off", "time": 85, "note": 62, "velocity": 118, "channel": 0}, {"type": "note_on", "time": 6, "note": 58, "velocity": 104, "channel": 0}, {"type": "note_off", "time": 74, "note": 58, "velocity": 104, "channel": 0}, {"type": "note_on", "time": 112, "note": 62, "velocity": 104, "channel": 0}, {"type": "note_off", "time": 258, "note": 62, "velocity": 104, "channel": 0}, {"type": "note_on", "time": 515, "note": 60, "velocity": 112, "channel": 0}, {"type": "note_off", "time": 119, "note": 60, "velocity": 112, "channel": 0}, {"type": "note_on", "time": 11, "note": 62, "velocity": 119, "channel": 0}, {"type": "note_off", "time": 89, "note": 62, "velocity": 119, "channel": 0}, {"type": "note_on", "time": 82, "note": 58, "velocity": 106, "channel": 0}, {"type": "note_off", "time": 71, "note": 58, "velocity": 106, "channel": 0}, {"type": "note_on", "time": 13, "note": 55, "velocity": 105, "channel": 0}, {"type": "note_off", "time": 82, "note": 55, "velocity": 105, "channel": 0}, {"type": "note_on", "time": 26, "note": 58, "velocity": 99, "channel": 0}, {"type": "note_off", "time": 207, "note": 58, "velocity": 99, "channel": 0}, {"type": "note_on", "time": 1152, "note": 53, "velocity": 110, "channel": 0}, {"type": "note_off", "time": 78, "note": 53, "velocity": 110, "channel": 0}, {"type": "note_on", "time": 124, "note": 50, "velocity": 105, "channel": 0}, {"type": "note_off", "time": 55, "note": 50, "velocity": 105, "channel": 0}, {"type": "note_on", "time": 19, "note": 53, "velocity": 114, "channel": 0}, {"type": "note_off", "time": 104, "note": 53, "velocity": 114, "channel": 0}, {"type": "note_on", "time": 17, "note": 50, "velocity": 106, "channel": 0}, {"type": "note_off", "time": 60, "note": 50, "velocity": 106, "channel": 0}, {"type": "note_on", "time": 8, "note": 51, "velocity": 102, "channel": 0}, {"type": "note_off", "time": 91, "note": 51, "velocity": 102, "channel": 0}, {"type": "note_on", "time": 15, "note": 55, "velocity": 109, "channel": 0}, {"type": "note_off", "time": 86, "note": 55, "velocity": 109, "channel": 0}, {"type": "note_on", "time": 12, "note": 58, "velocity": 115, "channel": 0}, {"type": "note_off", "time": 97, "note": 58, "velocity": 115, "channel": 0}, {"type": "note_on", "time": 31, "note": 55, "velocity": 116, "channel": 0}, {"type": "note_off", "time": 50, "note": 55, "velocity": 116, "channel": 0}, {"type": "note_on", "time": 11, "note": 56, "velocity": 113, "channel": 0}, {"type": "note_off", "time": 66, "note": 56, "velocity": 113, "channel": 0}, {"type": "note_on", "time": 36, "note": 60, "velocity": 119, "channel": 0}, {"type": "note_off", "time": 52, "note": 60, "velocity": 119, "channel": 0}, {"type": "note_on", "time": 20, "note": 63, "velocity": 125, "channel": 0}, {"type": "note_off", "time": 98, "note": 63, "velocity": 125, "channel": 0}, {"type": "note_on", "time": 10, "note": 60, "velocity": 116, "channel": 0}, {"type": "note_off", "time": 71, "note": 60, "velocity": 116, "channel": 0}, {"type": "note_on", "time": 7, "note": 61, "velocity": 111, "channel": 0}, {"type": "note_off", "time": 110, "note": 61, "velocity": 111, "channel": 0}, {"type": "note_on", "time": 19, "note": 65, "velocity": 101, "channel": 0}, {"type": "note_off", "time": 63, "note": 65, "velocity": 101, "channel": 0}, {"type": "note_on", "time": 15, "note": 68, "velocity": 120, "channel": 0}, {"type": "note_off", "time": 82, "note": 68, "velocity": 120, "channel": 0}, {"type": "note_on", "time": 21, "note": 65, "velocity": 112, "channel": 0}, {"type": "note_off", "time": 73, "note": 65, "velocity": 112, "channel": 0}, {"type": "note_on", "time": 3, "note": 66, "velocity": 94, "channel": 0}, {"type": "note_off", "time": 82, "note": 66, "velocity": 94, "channel": 0}, {"type": "note_on", "time": 25, "note": 70, "velocity": 111, "channel": 0}, {"type": "note_off", "time": 68, "note": 70, "velocity": 111, "channel": 0}, {"type": "note_on", "time": 5, "note": 73, "velocity": 120, "channel": 0}, {"type": "note_off", "time": 101, "note": 73, "velocity": 120, "channel": 0}, {"type": "note_on", "time": 20, "note": 70, "velocity": 98, "channel": 0}, {"type": "note_off", "time": 67, "note": 70, "velocity": 98, "channel": 0}, {"type": "note_on", "time": 23, "note": 74, "velocity": 118, "channel": 0}, {"type": "note_off", "time": 101, "note": 74, "velocity": 118, "channel": 0}, {"type": "note_on", "time": 13, "note": 75, "velocity": 115, "channel": 0}, {"type": "note_off", "time": 82, "note": 75, "velocity": 115, "channel": 0}, {"type": "note_on", "time": 21, "note": 74, "velocity": 104, "channel": 0}, {"type": "note_off", "time": 65, "note": 74, "velocity": 104, "channel": 0}, {"type": "note_on", "time": 8, "note": 72, "velocity": 118, "channel": 0}, {"type": "note_off", "time": 71, "note": 72, "velocity": 118, "channel": 0}, {"type": "note_on", "time": 8, "note": 70, "velocity": 111, "channel": 0}, {"type": "note_off", "time": 105, "note": 70, "velocity": 111, "channel": 0}, {"type": "note_on", "time": 14, "note": 69, "velocity": 115, "channel": 0}, {"type": "note_off", "time": 80, "note": 69, "velocity": 115, "channel": 0}, {"type": "note_on", "time": 10, "note": 68, "velocity": 106, "channel": 0}, {"type": "note_off", "time": 100, "note": 68, "velocity": 106, "channel": 0}, {"type": "note_on", "time": 9, "note": 67, "velocity": 108, "channel": 0}, {"type": "note_off", "time": 70, "note": 67, "velocity": 108, "channel": 0}, {"type": "note_on", "time": 11, "note": 66, "velocity": 97, "channel": 0}, {"type": "note_off", "time": 107, "note": 66, "velocity": 97, "channel": 0}, {"type": "note_on", "time": 15, "note": 62, "velocity": 117, "channel": 0}, {"type": "note_off", "time": 57, "note": 62, "velocity": 117, "channel": 0}, {"type": "note_on", "time": 8, "note": 57, "velocity": 111, "channel": 0}, {"type": "note_off", "time": 92, "note": 57, "velocity": 111, "channel": 0}, {"type": "note_on", "time": 10, "note": 56, "velocity": 111, "channel": 0}, {"type": "note_off", "time": 58, "note": 56, "velocity": 111, "channel": 0}, {"type": "note_on", "time": 14, "note": 55, "velocity": 110, "channel": 0}, {"type": "note_off", "time": 71, "note": 55, "velocity": 110, "channel": 0}, {"type": "note_on", "time": 18, "note": 56, "velocity": 106, "channel": 0}, {"type": "note_off", "time": 47, "note": 56, "velocity": 106, "channel": 0}, {"type": "note_on", "time": 11, "note": 57, "velocity": 112, "channel": 0}, {"type": "note_off", "time": 61, "note": 57, "velocity": 112, "channel": 0}, {"type": "note_on", "time": 10, "note": 58, "velocity": 112, "channel": 0}, {"type": "note_off", "time": 83, "note": 58, "velocity": 112, "channel": 0}, {"type": "note_on", "time": 10, "note": 60, "velocity": 120, "channel": 0}, {"type": "note_off", "time": 77, "note": 60, "velocity": 120, "channel": 0}, {"type": "note_on", "time": 3, "note": 61, "velocity": 112, "channel": 0}, {"type": "note_off", "time": 98, "note": 61, "velocity": 112, "channel": 0}, {"type": "note_on", "time": 8, "note": 63, "velocity": 123, "channel": 0}, {"type": "note_off", "time": 96, "note": 63, "velocity": 123, "channel": 0}, {"type": "note_on", "time": 10, "note": 65, "velocity": 109, "channel": 0}, {"type": "note_off", "time": 75, "note": 65, "velocity": 109, "channel": 0}, {"type": "note_on", "time": 15, "note": 67, "velocity": 102, "channel": 0}, {"type": "note_off", "time": 67, "note": 67, "velocity": 102, "channel": 0}, {"type": "note_on", "time": 7, "note": 72, "velocity": 108, "channel": 0}, {"type": "note_off", "time": 283, "note": 72, "velocity": 108, "channel": 0}, {"type": "note_on", "time": 7, "note": 70, "velocity": 118, "channel": 0}, {"type": "note_off", "time": 112, "note": 70, "velocity": 118, "channel": 0}, {"type": "note_on", "time": 313, "note": 69, "velocity": 113, "channel": 0}, {"type": "note_off", "time": 80, "note": 69, "velocity": 113, "channel": 0}, {"type": "note_on", "time": 93, "note": 67, "velocity": 103, "channel": 0}, {"type": "note_off", "time": 269, "note": 67, "velocity": 103, "channel": 0}, {"type": "note_on", "time": 14, "note": 65, "velocity": 110, "channel": 0}, {"type": "note_off", "time": 98, "note": 65, "velocity": 110, "channel": 0}, {"type": "note_on", "time": 6, "note": 63, "velocity": 122, "channel": 0}, {"type": "note_off", "time": 98, "note": 63, "velocity": 122, "channel": 0}, {"type": "note_on", "time": 6, "note": 62, "velocity": 110, "channel": 0}, {"type": "note_off", "time": 83, "note": 62, "velocity": 110, "channel": 0}, {"type": "note_on", "time": 11, "note": 60, "velocity": 110, "channel": 0}, {"type": "note_off", "time": 59, "note": 60, "velocity": 110, "channel": 0}, {"type": "note_on", "time": 10, "note": 59, "velocity": 99, "channel": 0}, {"type": "note_off", "time": 265, "note": 59, "velocity": 99, "channel": 0}, {"type": "note_on", "time": 42, "note": 67, "velocity": 118, "channel": 0}, {"type": "note_off", "time": 77, "note": 67, "velocity": 118, "channel": 0}, {"type": "note_on", "time": 390, "note": 70, "velocity": 122, "channel": 0}, {"type": "note_off", "time": 83, "note": 70, "velocity": 122, "channel": 0}, {"type": "note_on", "time": 26, "note": 65, "velocity": 107, "channel": 0}, {"type": "note_off", "time": 40, "note": 65, "velocity": 107, "channel": 0}, {"type": "note_on", "time": 11, "note": 67, "velocity": 97, "channel": 0}, {"type": "note_off", "time": 113, "note": 67, "velocity": 97, "channel": 0}, {"type": "note_on", "time": 17, "note": 70, "velocity": 119, "channel": 0}, {"type": "note_off", "time": 75, "note": 70, "velocity": 119, "channel": 0}, {"type": "note_on", "time": 8, "note": 67, "velocity": 107, "channel": 0}, {"type": "note_off", "time": 109, "note": 67, "velocity": 107, "channel": 0}, {"type": "note_on", "time": 5, "note": 65, "velocity": 114, "channel": 0}, {"type": "note_off", "time": 76, "note": 65, "velocity": 114, "channel": 0}, {"type": "note_on", "time": 10, "note": 62, "velocity": 116, "channel": 0}, {"type": "note_off", "time": 78, "note": 62, "velocity": 116, "channel": 0}, {"type": "note_on", "time": 43, "note": 60, "velocity": 107, "channel": 0}, {"type": "note_off", "time": 56, "note": 60, "velocity": 107, "channel": 0}, {"type": "note_on", "time": 14, "note": 58, "velocity": 107, "channel": 0}, {"type": "note_off", "time": 77, "note": 58, "velocity": 107, "channel": 0}, {"type": "note_on", "time": 18, "note": 53, "velocity": 107, "channel": 0}, {"type": "note_off", "time": 69, "note": 53, "velocity": 107, "channel": 0}, {"type": "note_on", "time": 129, "note": 50, "velocity": 99, "channel": 0}, {"type": "note_off", "time": 56, "note": 50, "velocity": 99, "channel": 0}, {"type": "note_on", "time": 11, "note": 53, "velocity": 102, "channel": 0}, {"type": "note_off", "time": 128, "note": 53, "velocity": 102, "channel": 0}, {"type": "note_on", "time": 248, "note": 58, "velocity": 110, "channel": 0}, {"type": "note_off", "time": 107, "note": 58, "velocity": 110, "channel": 0}, {"type": "note_on", "time": 21, "note": 58, "velocity": 100, "channel": 0}, {"type": "note_off", "time": 159, "note": 58, "velocity": 100, "channel": 0}, {"type": "note_on", "time": 995, "note": 70, "velocity": 110, "channel": 0}, {"type": "note_off", "time": 48, "note": 70, "velocity": 110, "channel": 0}, {"type": "note_on", "time": 35, "note": 70, "velocity": 109, "channel": 0}, {"type": "note_off", "time": 62, "note": 70, "velocity": 109, "channel": 0}, {"type": "note_on", "time": 33, "note": 70, "velocity": 114, "channel": 0}, {"type": "note_off", "time": 52, "note": 70, "velocity": 114, "channel": 0}, {"type": "note_on", "time": 37, "note": 70, "velocity": 100, "channel": 0}, {"type": "note_off", "time": 358, "note": 70, "velocity": 100, "channel": 0}, {"type": "note_on", "time": 17, "note": 67, "velocity": 118, "channel": 0}, {"type": "note_off", "time": 88, "note": 67, "velocity": 118, "channel": 0}, {"type": "note_on", "time": 15, "note": 70, "velocity": 117, "channel": 0}, {"type": "note_off", "time": 124, "note": 70, "velocity": 117, "channel": 0}, {"type": "note_on", "time": 644, "note": 70, "velocity": 111, "channel": 0}, {"type": "note_off", "time": 52, "note": 70, "velocity": 111, "channel": 0}, {"type": "note_on", "time": 28, "note": 70, "velocity": 107, "channel": 0}, {"type": "note_off", "time": 61, "note": 70, "velocity": 107, "channel": 0}, {"type": "note_on", "time": 45, "note": 70, "velocity": 107, "channel": 0}, {"type": "note_off", "time": 80, "note": 70, "velocity": 107, "channel": 0}, {"type": "note_on", "time": 18, "note": 70, "velocity": 102, "channel": 0}, {"type": "note_off", "time": 325, "note": 70, "velocity": 102, "channel": 0}, {"type": "note_on", "time": 23, "note": 74, "velocity": 118, "channel": 0}, {"type": "note_off", "time": 123, "note": 74, "velocity": 118, "channel": 0}, {"type": "note_on", "time": 30, "note": 70, "velocity": 118, "channel": 0}, {"type": "note_off", "time": 80, "note": 70, "velocity": 118, "channel": 0}, {"type": "note_on", "time": 815, "note": 75, "velocity": 108, "channel": 0}, {"type": "note_off", "time": 91, "note": 75, "velocity": 108, "channel": 0}, {"type": "note_on", "time": 96, "note": 70, "velocity": 103, "channel": 0}, {"type": "note_off", "time": 90, "note": 70, "velocity": 103, "channel": 0}, {"type": "note_on", "time": 98, "note": 76, "velocity": 115, "channel": 0}, {"type": "note_off", "time": 109, "note": 76, "velocity": 115, "channel": 0}, {"type": "note_on", "time": 90, "note": 70, "velocity": 99, "channel": 0}, {"type": "note_off", "time": 88, "note": 70, "velocity": 99, "channel": 0}, {"type": "note_on", "time": 126, "note": 77, "velocity": 111, "channel": 0}, {"type": "note_off", "time": 105, "note": 77, "velocity": 111, "channel": 0}, {"type": "note_on", "time": 70, "note": 76, "velocity": 115, "channel": 0}, {"type": "note_off", "time": 91, "note": 76, "velocity": 115, "channel": 0}, {"type": "note_on", "time": 96, "note": 75, "velocity": 109, "channel": 0}, {"type": "note_off", "time": 83, "note": 75, "velocity": 109, "channel": 0}, {"type": "note_on", "time": 93, "note": 73, "velocity": 113, "channel": 0}, {"type": "note_off", "time": 72, "note": 73, "velocity": 113, "channel": 0}, {"type": "note_on", "time": 28, "note": 70, "velocity": 95, "channel": 0}, {"type": "note_off", "time": 75, "note": 70, "velocity": 95, "channel": 0}, {"type": "note_on", "time": 20, "note": 70, "velocity": 109, "channel": 0}, {"type": "note_off", "time": 68, "note": 70, "velocity": 109, "channel": 0}, {"type": "note_on", "time": 120, "note": 65, "velocity": 107, "channel": 0}, {"type": "note_off", "time": 83, "note": 65, "velocity": 107, "channel": 0}, {"type": "note_on", "time": 117, "note": 68, "velocity": 115, "channel": 0}, {"type": "note_off", "time": 90, "note": 68, "velocity": 115, "channel": 0}, {"type": "note_on", "time": 95, "note": 67, "velocity": 115, "channel": 0}, {"type": "note_off", "time": 84, "note": 67, "velocity": 115, "channel": 0}, {"type": "note_on", "time": 111, "note": 65, "velocity": 111, "channel": 0}, {"type": "note_off", "time": 81, "note": 65, "velocity": 111, "channel": 0}, {"type": "note_on", "time": 111, "note": 58, "velocity": 102, "channel": 0}, {"type": "note_off", "time": 50, "note": 58, "velocity": 102, "channel": 0}, {"type": "note_on", "time": 16, "note": 64, "velocity": 112, "channel": 0}, {"type": "note_off", "time": 74, "note": 64, "velocity": 112, "channel": 0}, {"type": "note_on", "time": 11, "note": 66, "velocity": 99, "channel": 0}, {"type": "note_off", "time": 35, "note": 66, "velocity": 99, "channel": 0}, {"type": "note_on", "time": 3, "note": 65, "velocity": 106, "channel": 0}, {"type": "note_off", "time": 65, "note": 65, "velocity": 106, "channel": 0}, {"type": "note_on", "time": 7, "note": 64, "velocity": 116, "channel": 0}, {"type": "note_off", "time": 84, "note": 64, "velocity": 116, "channel": 0}, {"type": "note_on", "time": 48, "note": 61, "velocity": 113, "channel": 0}, {"type": "note_off", "time": 48, "note": 61, "velocity": 113, "channel": 0}, {"type": "note_on", "time": 18, "note": 58, "velocity": 110, "channel": 0}, {"type": "note_off", "time": 82, "note": 58, "velocity": 110, "channel": 0}, {"type": "note_on", "time": 105, "note": 63, "velocity": 125, "channel": 0}, {"type": "note_off", "time": 120, "note": 63, "velocity": 125, "channel": 0}, {"type": "note_on", "time": 9, "note": 65, "velocity": 115, "channel": 0}, {"type": "note_off", "time": 58, "note": 65, "velocity": 115, "channel": 0}, {"type": "note_on", "time": 10, "note": 63, "velocity": 120, "channel": 0}, {"type": "note_off", "time": 101, "note": 63, "velocity": 120, "channel": 0}, {"type": "note_on", "time": 5, "note": 61, "velocity": 119, "channel": 0}, {"type": "note_off", "time": 66, "note": 61, "velocity": 119, "channel": 0}, {"type": "note_on", "time": 14, "note": 58, "velocity": 114, "channel": 0}, {"type": "note_off", "time": 84, "note": 58, "velocity": 114, "channel": 0}, {"type": "note_on", "time": 25, "note": 53, "velocity": 113, "channel": 0}, {"type": "note_off", "time": 71, "note": 53, "velocity": 113, "channel": 0}, {"type": "note_on", "time": 25, "note": 49, "velocity": 109, "channel": 0}, {"type": "note_off", "time": 87, "note": 49, "velocity": 109, "channel": 0}, {"type": "note_on", "time": 11, "note": 50, "velocity": 111, "channel": 0}, {"type": "note_off", "time": 77, "note": 50, "velocity": 111, "channel": 0}, {"type": "note_on", "time": 14, "note": 53, "velocity": 117, "channel": 0}, {"type": "note_off", "time": 67, "note": 53, "velocity": 117, "channel": 0}, {"type": "note_on", "time": 39, "note": 49, "velocity": 113, "channel": 0}, {"type": "note_off", "time": 67, "note": 49, "velocity": 113, "channel": 0}, {"type": "note_on", "time": 12, "note": 50, "velocity": 99, "channel": 0}, {"type": "note_off", "time": 77, "note": 50, "velocity": 99, "channel": 0}, {"type": "note_on", "time": 26, "note": 53, "velocity": 104, "channel": 0}, {"type": "note_off", "time": 66, "note": 53, "velocity": 104, "channel": 0}, {"type": "note_on", "time": 10, "note": 58, "velocity": 107, "channel": 0}, {"type": "note_off", "time": 93, "note": 58, "velocity": 107, "channel": 0}, {"type": "note_on", "time": 20, "note": 60, "velocity": 107, "channel": 0}, {"type": "note_off", "time": 130, "note": 60, "velocity": 107, "channel": 0}, {"type": "note_on", "time": 7, "note": 62, "velocity": 114, "channel": 0}, {"type": "note_off", "time": 123, "note": 62, "velocity": 114, "channel": 0}, {"type": "note_on", "time": 20, "note": 58, "velocity": 102, "channel": 0}, {"type": "note_off", "time": 278, "note": 58, "velocity": 102, "channel": 0}, {"type": "note_on", "time": 1217, "note": 71, "velocity": 111, "channel": 0}, {"type": "note_off", "time": 253, "note": 71, "velocity": 111, "channel": 0}, {"type": "note_on", "time": 8, "note": 72, "velocity": 118, "channel": 0}, {"type": "note_off", "time": 449, "note": 72, "velocity": 118, "channel": 0}, {"type": "note_on", "time": 34, "note": 60, "velocity": 108, "channel": 0}, {"type": "note_off", "time": 90, "note": 60, "velocity": 108, "channel": 0}, {"type": "note_on", "time": 20, "note": 72, "velocity": 111, "channel": 0}, {"type": "note_off", "time": 177, "note": 72, "velocity": 111, "channel": 0}, {"type": "note_on", "time": 13, "note": 71, "velocity": 110, "channel": 0}, {"type": "note_off", "time": 84, "note": 71, "velocity": 110, "channel": 0}, {"type": "note_on", "time": 14, "note": 72, "velocity": 113, "channel": 0}, {"type": "note_off", "time": 415, "note": 72, "velocity": 113, "channel": 0}, {"type": "note_on", "time": 22, "note": 70, "velocity": 112, "channel": 0}, {"type": "note_off", "time": 153, "note": 70, "velocity": 112, "channel": 0}, {"type": "note_on", "time": 12, "note": 72, "velocity": 116, "channel": 0}, {"type": "note_off", "time": 213, "note": 72, "velocity": 116, "channel": 0}, {"type": "note_on", "time": 11, "note": 70, "velocity": 111, "channel": 0}, {"type": "note_off", "time": 99, "note": 70, "velocity": 111, "channel": 0}, {"type": "note_on", "time": 13, "note": 65, "velocity": 109, "channel": 0}, {"type": "note_off", "time": 55, "note": 65, "velocity": 109, "channel": 0}, {"type": "note_on", "time": 5, "note": 61, "velocity": 105, "channel": 0}, {"type": "note_off", "time": 89, "note": 61, "velocity": 105, "channel": 0}, {"type": "note_on", "time": 6, "note": 62, "velocity": 114, "channel": 0}, {"type": "note_off", "time": 70, "note": 62, "velocity": 114, "channel": 0}, {"type": "note_on", "time": 9, "note": 65, "velocity": 107, "channel": 0}, {"type": "note_off", "time": 103, "note": 65, "velocity": 107, "channel": 0}, {"type": "note_on", "time": 16, "note": 70, "velocity": 104, "channel": 0}, {"type": "note_off", "time": 257, "note": 70, "velocity": 104, "channel": 0}, {"type": "note_on", "time": 402, "note": 72, "velocity": 113, "channel": 0}, {"type": "note_off", "time": 96, "note": 72, "velocity": 113, "channel": 0}, {"type": "note_on", "time": 80, "note": 75, "velocity": 115, "channel": 0}, {"type": "note_off", "time": 104, "note": 75, "velocity": 115, "channel": 0}, {"type": "note_on", "time": 90, "note": 72, "velocity": 118, "channel": 0}, {"type": "note_off", "time": 94, "note": 72, "velocity": 118, "channel": 0}, {"type": "note_on", "time": 29, "note": 70, "velocity": 112, "channel": 0}, {"type": "note_off", "time": 74, "note": 70, "velocity": 112, "channel": 0}, {"type": "note_on", "time": 102, "note": 67, "velocity": 111, "channel": 0}, {"type": "note_off", "time": 91, "note": 67, "velocity": 111, "channel": 0}, {"type": "note_on", "time": 88, "note": 60, "velocity": 112, "channel": 0}, {"type": "note_off", "time": 75, "note": 60, "velocity": 112, "channel": 0}, {"type": "note_on", "time": 13, "note": 65, "velocity": 104, "channel": 0}, {"type": "note_off", "time": 58, "note": 65, "velocity": 104, "channel": 0}, {"type": "note_on", "time": 57, "note": 65, "velocity": 113, "channel": 0}, {"type": "note_off", "time": 65, "note": 65, "velocity": 113, "channel": 0}, {"type": "note_on", "time": 5, "note": 64, "velocity": 119, "channel": 0}, {"type": "note_off", "time": 93, "note": 64, "velocity": 119, "channel": 0}, {"type": "note_on", "time": 10, "note": 61, "velocity": 113, "channel": 0}, {"type": "note_off", "time": 60, "note": 61, "velocity": 113, "channel": 0}, {"type": "note_on", "time": 11, "note": 58, "velocity": 106, "channel": 0}, {"type": "note_off", "time": 69, "note": 58, "velocity": 106, "channel": 0}, {"type": "note_on", "time": 43, "note": 55, "velocity": 105, "channel": 0}, {"type": "note_off", "time": 61, "note": 55, "velocity": 105, "channel": 0}, {"type": "note_on", "time": 15, "note": 61, "velocity": 114, "channel": 0}, {"type": "note_off", "time": 107, "note": 61, "velocity": 114, "channel": 0}, {"type": "note_on", "time": 9, "note": 62, "velocity": 120, "channel": 0}, {"type": "note_off", "time": 91, "note": 62, "velocity": 120, "channel": 0}, {"type": "note_on", "time": 4, "note": 63, "velocity": 115, "channel": 0}, {"type": "note_off", "time": 93, "note": 63, "velocity": 115, "channel": 0}, {"type": "note_on", "time": 4, "note": 64, "velocity": 114, "channel": 0}, {"type": "note_off", "time": 88, "note": 64, "velocity": 114, "channel": 0}, {"type": "note_on", "time": 5, "note": 65, "velocity": 113, "channel": 0}, {"type": "note_off", "time": 78, "note": 65, "velocity": 113, "channel": 0}, {"type": "note_on", "time": 1, "note": 64, "velocity": 118, "channel": 0}, {"type": "note_off", "time": 97, "note": 64, "velocity": 118, "channel": 0}, {"type": "note_on", "time": 9, "note": 65, "velocity": 104, "channel": 0}, {"type": "note_off", "time": 78, "note": 65, "velocity": 104, "channel": 0}, {"type": "note_on", "time": 12, "note": 67, "velocity": 112, "channel": 0}, {"type": "note_off", "time": 83, "note": 67, "velocity": 112, "channel": 0}, {"type": "note_on", "time": 1, "note": 68, "velocity": 119, "channel": 0}, {"type": "note_off", "time": 82, "note": 68, "velocity": 119, "channel": 0}, {"type": "note_on", "time": 18, "note": 62, "velocity": 113, "channel": 0}, {"type": "note_off", "time": 94, "note": 62, "velocity": 113, "channel": 0}, {"type": "note_on", "time": 9, "note": 63, "velocity": 116, "channel": 0}, {"type": "note_off", "time": 85, "note": 63, "velocity": 116, "channel": 0}, {"type": "note_on", "time": 8, "note": 64, "velocity": 117, "channel": 0}, {"type": "note_off", "time": 79, "note": 64, "velocity": 117, "channel": 0}, {"type": "note_on", "time": 3, "note": 67, "velocity": 109, "channel": 0}, {"type": "note_off", "time": 94, "note": 67, "velocity": 109, "channel": 0}, {"type": "note_on", "time": 26, "note": 62, "velocity": 115, "channel": 0}, {"type": "note_off", "time": 69, "note": 62, "velocity": 115, "channel": 0}, {"type": "note_on", "time": 15, "note": 63, "velocity": 99, "channel": 0}, {"type": "note_off", "time": 61, "note": 63, "velocity": 99, "channel": 0}, {"type": "note_on", "time": 35, "note": 65, "velocity": 112, "channel": 0}, {"type": "note_off", "time": 75, "note": 65, "velocity": 112, "channel": 0}, {"type": "note_on", "time": 8, "note": 64, "velocity": 119, "channel": 0}, {"type": "note_off", "time": 91, "note": 64, "velocity": 119, "channel": 0}, {"type": "note_on", "time": 9, "note": 65, "velocity": 110, "channel": 0}, {"type": "note_off", "time": 66, "note": 65, "velocity": 110, "channel": 0}, {"type": "note_on", "time": 10, "note": 61, "velocity": 110, "channel": 0}, {"type": "note_off", "time": 108, "note": 61, "velocity": 110, "channel": 0}, {"type": "note_on", "time": 7, "note": 62, "velocity": 115, "channel": 0}, {"type": "note_off", "time": 60, "note": 62, "velocity": 115, "channel": 0}, {"type": "note_on", "time": 18, "note": 58, "velocity": 107, "channel": 0}, {"type": "note_off", "time": 99, "note": 58, "velocity": 107, "channel": 0}, {"type": "note_on", "time": 5, "note": 53, "velocity": 108, "channel": 0}, {"type": "note_off", "time": 76, "note": 53, "velocity": 108, "channel": 0}, {"type": "note_on", "time": 838, "note": 57, "velocity": 103, "channel": 0}, {"type": "note_off", "time": 310, "note": 57, "velocity": 103, "channel": 0}, {"type": "note_on", "time": 10, "note": 58, "velocity": 108, "channel": 0}, {"type": "note_off", "time": 180, "note": 58, "velocity": 108, "channel": 0}, {"type": "note_on", "time": 13, "note": 63, "velocity": 123, "channel": 0}, {"type": "note_off", "time": 82, "note": 63, "velocity": 123, "channel": 0}, {"type": "note_on", "time": 4, "note": 64, "velocity": 120, "channel": 0}, {"type": "note_off", "time": 88, "note": 64, "velocity": 120, "channel": 0}, {"type": "note_on", "time": 5, "note": 63, "velocity": 123, "channel": 0}, {"type": "note_off", "time": 100, "note": 63, "velocity": 123, "channel": 0}, {"type": "note_on", "time": 101, "note": 61, "velocity": 115, "channel": 0}, {"type": "note_off", "time": 162, "note": 61, "velocity": 115, "channel": 0}, {"type": "note_on", "time": 16, "note": 58, "velocity": 111, "channel": 0}, {"type": "note_off", "time": 91, "note": 58, "velocity": 111, "channel": 0}, {"type": "note_on", "time": 16, "note": 56, "velocity": 105, "channel": 0}, {"type": "note_off", "time": 629, "note": 56, "velocity": 105, "channel": 0}, {"type": "note_on", "time": 38, "note": 58, "velocity": 112, "channel": 0}, {"type": "note_off", "time": 99, "note": 58, "velocity": 112, "channel": 0}, {"type": "note_on", "time": 80, "note": 56, "velocity": 109, "channel": 0}, {"type": "note_off", "time": 208, "note": 56, "velocity": 109, "channel": 0}, {"type": "note_on", "time": 3, "note": 58, "velocity": 112, "channel": 0}, {"type": "note_off", "time": 79, "note": 58, "velocity": 112, "channel": 0}, {"type": "note_on", "time": 207, "note": 65, "velocity": 113, "channel": 0}, {"type": "note_off", "time": 59, "note": 65, "velocity": 113, "channel": 0}, {"type": "note_on", "time": 7, "note": 63, "velocity": 118, "channel": 0}, {"type": "note_off", "time": 93, "note": 63, "velocity": 118, "channel": 0}, {"type": "note_on", "time": 54, "note": 58, "velocity": 104, "channel": 0}, {"type": "note_off", "time": 51, "note": 58, "velocity": 104, "channel": 0}, {"type": "note_on", "time": 4, "note": 61, "velocity": 105, "channel": 0}, {"type": "note_off", "time": 187, "note": 61, "velocity": 105, "channel": 0}, {"type": "note_on", "time": 11, "note": 63, "velocity": 117, "channel": 0}, {"type": "note_off", "time": 81, "note": 63, "velocity": 117, "channel": 0}, {"type": "note_on", "time": 229, "note": 58, "velocity": 110, "channel": 0}, {"type": "note_off", "time": 85, "note": 58, "velocity": 110, "channel": 0}, {"type": "note_on", "time": 8, "note": 56, "velocity": 111, "channel": 0}, {"type": "note_off", "time": 84, "note": 56, "velocity": 111, "channel": 0}, {"type": "note_on", "time": 7, "note": 53, "velocity": 102, "channel": 0}, {"type": "note_off", "time": 53, "note": 53, "velocity": 102, "channel": 0}, {"type": "note_on", "time": 8, "note": 56, "velocity": 107, "channel": 0}, {"type": "note_off", "time": 165, "note": 56, "velocity": 107, "channel": 0}, {"type": "note_on", "time": 15, "note": 58, "velocity": 109, "channel": 0}, {"type": "note_off", "time": 53, "note": 58, "velocity": 109, "channel": 0}, {"type": "note_on", "time": 508, "note": 67, "velocity": 114, "channel": 0}, {"type": "note_off", "time": 114, "note": 67, "velocity": 114, "channel": 0}, {"type": "note_on", "time": 3, "note": 68, "velocity": 109, "channel": 0}, {"type": "note_off", "time": 64, "note": 68, "velocity": 109, "channel": 0}, {"type": "note_on", "time": 8, "note": 67, "velocity": 99, "channel": 0}, {"type": "note_off", "time": 100, "note": 67, "velocity": 99, "channel": 0}, {"type": "note_on", "time": 1, "note": 66, "velocity": 109, "channel": 0}, {"type": "note_off", "time": 71, "note": 66, "velocity": 109, "channel": 0}, {"type": "note_on", "time": 5, "note": 65, "velocity": 111, "channel": 0}, {"type": "note_off", "time": 105, "note": 65, "velocity": 111, "channel": 0}, {"type": "note_on", "time": 9, "note": 64, "velocity": 112, "channel": 0}, {"type": "note_off", "time": 68, "note": 64, "velocity": 112, "channel": 0}, {"type": "note_on", "time": 7, "note": 62, "velocity": 113, "channel": 0}, {"type": "note_off", "time": 32, "note": 62, "velocity": 113, "channel": 0}, {"type": "note_on", "time": 5, "note": 63, "velocity": 115, "channel": 0}, {"type": "note_off", "time": 76, "note": 63, "velocity": 115, "channel": 0}, {"type": "note_on", "time": 5, "note": 62, "velocity": 115, "channel": 0}, {"type": "note_off", "time": 76, "note": 62, "velocity": 115, "channel": 0}, {"type": "note_on", "time": 4, "note": 61, "velocity": 109, "channel": 0}, {"type": "note_off", "time": 93, "note": 61, "velocity": 109, "channel": 0}, {"type": "note_on", "time": 12, "note": 63, "velocity": 116, "channel": 0}, {"type": "note_off", "time": 85, "note": 63, "velocity": 116, "channel": 0}, {"type": "note_on", "time": 3, "note": 60, "velocity": 111, "channel": 0}, {"type": "note_off", "time": 94, "note": 60, "velocity": 111, "channel": 0}, {"type": "note_on", "time": 10, "note": 61, "velocity": 115, "channel": 0}, {"type": "note_off", "time": 82, "note": 61, "velocity": 115, "channel": 0}, {"type": "note_on", "time": 3, "note": 58, "velocity": 110, "channel": 0}, {"type": "note_off", "time": 102, "note": 58, "velocity": 110, "channel": 0}, {"type": "note_on", "time": 5, "note": 54, "velocity": 105, "channel": 0}, {"type": "note_off", "time": 92, "note": 54, "velocity": 105, "channel": 0}, {"type": "note_on", "time": 6, "note": 53, "velocity": 107, "channel": 0}, {"type": "note_off", "time": 78, "note": 53, "velocity": 107, "channel": 0}, {"type": "note_on", "time": 5, "note": 51, "velocity": 107, "channel": 0}, {"type": "note_off", "time": 88, "note": 51, "velocity": 107, "channel": 0}, {"type": "note_on", "time": 9, "note": 49, "velocity": 103, "channel": 0}, {"type": "note_off", "time": 105, "note": 49, "velocity": 103, "channel": 0}, {"type": "note_on", "time": 12, "note": 53, "velocity": 103, "channel": 0}, {"type": "note_off", "time": 68, "note": 53, "velocity": 103, "channel": 0}, {"type": "note_on", "time": 7, "note": 55, "velocity": 105, "channel": 0}, {"type": "note_off", "time": 108, "note": 55, "velocity": 105, "channel": 0}, {"type": "note_on", "time": 12, "note": 58, "velocity": 101, "channel": 0}, {"type": "note_off", "time": 244, "note": 58, "velocity": 101, "channel": 0}, {"type": "note_on", "time": 7, "note": 61, "velocity": 115, "channel": 0}, {"type": "note_off", "time": 105, "note": 61, "velocity": 115, "channel": 0}, {"type": "note_on", "time": 97, "note": 64, "velocity": 105, "channel": 0}, {"type": "note_off", "time": 158, "note": 64, "velocity": 105, "channel": 0}, {"type": "note_on", "time": 7, "note": 65, "velocity": 108, "channel": 0}, {"type": "note_off", "time": 94, "note": 65, "velocity": 108, "channel": 0}, {"type": "note_on", "time": 575, "note": 64, "velocity": 110, "channel": 0}, {"type": "note_off", "time": 94, "note": 64, "velocity": 110, "channel": 0}, {"type": "note_on", "time": 11, "note": 65, "velocity": 99, "channel": 0}, {"type": "note_off", "time": 77, "note": 65, "velocity": 99, "channel": 0}, {"type": "note_on", "time": 9, "note": 67, "velocity": 102, "channel": 0}, {"type": "note_off", "time": 73, "note": 67, "velocity": 102, "channel": 0}, {"type": "note_on", "time": 5, "note": 68, "velocity": 105, "channel": 0}, {"type": "note_off", "time": 99, "note": 68, "velocity": 105, "channel": 0}, {"type": "note_on", "time": 28, "note": 63, "velocity": 104, "channel": 0}, {"type": "note_off", "time": 56, "note": 63, "velocity": 104, "channel": 0}, {"type": "note_on", "time": 7, "note": 64, "velocity": 101, "channel": 0}, {"type": "note_off", "time": 88, "note": 64, "velocity": 101, "channel": 0}, {"type": "note_on", "time": 5, "note": 67, "velocity": 107, "channel": 0}, {"type": "note_off", "time": 85, "note": 67, "velocity": 107, "channel": 0}, {"type": "note_on", "time": 17, "note": 65, "velocity": 107, "channel": 0}, {"type": "note_off", "time": 86, "note": 65, "velocity": 107, "channel": 0}, {"type": "note_on", "time": 4, "note": 61, "velocity": 109, "channel": 0}, {"type": "note_off", "time": 92, "note": 61, "velocity": 109, "channel": 0}, {"type": "note_on", "time": 5, "note": 62, "velocity": 108, "channel": 0}, {"type": "note_off", "time": 94, "note": 62, "velocity": 108, "channel": 0}, {"type": "note_on", "time": 8, "note": 63, "velocity": 114, "channel": 0}, {"type": "note_off", "time": 60, "note": 63, "velocity": 114, "channel": 0}, {"type": "note_on", "time": 7, "note": 61, "velocity": 111, "channel": 0}, {"type": "note_off", "time": 100, "note": 61, "velocity": 111, "channel": 0}, {"type": "note_on", "time": 8, "note": 62, "velocity": 113, "channel": 0}, {"type": "note_off", "time": 61, "note": 62, "velocity": 113, "channel": 0}, {"type": "note_on", "time": 32, "note": 58, "velocity": 109, "channel": 0}, {"type": "note_off", "time": 74, "note": 58, "velocity": 109, "channel": 0}, {"type": "note_on", "time": 39, "note": 53, "velocity": 108, "channel": 0}, {"type": "note_off", "time": 65, "note": 53, "velocity": 108, "channel": 0}, {"type": "note_on", "time": 3, "note": 49, "velocity": 99, "channel": 0}, {"type": "note_off", "time": 85, "note": 49, "velocity": 99, "channel": 0}, {"type": "note_on", "time": 61, "note": 50, "velocity": 105, "channel": 0}, {"type": "note_off", "time": 70, "note": 50, "velocity": 105, "channel": 0}, {"type": "note_on", "time": 5, "note": 51, "velocity": 104, "channel": 0}, {"type": "note_off", "time": 68, "note": 51, "velocity": 104, "channel": 0}, {"type": "note_on", "time": 9, "note": 52, "velocity": 107, "channel": 0}, {"type": "note_off", "time": 71, "note": 52, "velocity": 107, "channel": 0}, {"type": "note_on", "time": 15, "note": 53, "velocity": 104, "channel": 0}, {"type": "note_off", "time": 74, "note": 53, "velocity": 104, "channel": 0}, {"type": "note_on", "time": 22, "note": 49, "velocity": 100, "channel": 0}, {"type": "note_off", "time": 64, "note": 49, "velocity": 100, "channel": 0}, {"type": "note_on", "time": 11, "note": 50, "velocity": 101, "channel": 0}, {"type": "note_off", "time": 116, "note": 50, "velocity": 101, "channel": 0}, {"type": "note_on", "time": 7, "note": 53, "velocity": 105, "channel": 0}, {"type": "note_off", "time": 43, "note": 53, "velocity": 105, "channel": 0}, {"type": "note_on", "time": 17, "note": 46, "velocity": 114, "channel": 0}, {"type": "note_off", "time": 124, "note": 46, "velocity": 114, "channel": 0}, {"type": "note_on", "time": 11, "note": 46, "velocity": 108, "channel": 0}, {"type": "note_off", "time": 96, "note": 46, "velocity": 108, "channel": 0}, {"type": "note_on", "time": 1719, "note": 58, "velocity": 87, "channel": 0}, {"type": "note_off", "time": 656, "note": 58, "velocity": 87, "channel": 0}, {"type": "note_on", "time": 65, "note": 62, "velocity": 108, "channel": 0}, {"type": "note_off", "time": 178, "note": 62, "velocity": 108, "channel": 0}, {"type": "note_on", "time": 9, "note": 63, "velocity": 94, "channel": 0}, {"type": "note_off", "time": 78, "note": 63, "velocity": 94, "channel": 0}, {"type": "note_on", "time": 96, "note": 62, "velocity": 107, "channel": 0}, {"type": "note_off", "time": 67, "note": 62, "velocity": 107, "channel": 0}, {"type": "note_on", "time": 61, "note": 58, "velocity": 102, "channel": 0}, {"type": "note_off", "time": 42, "note": 58, "velocity": 102, "channel": 0}, {"type": "note_on", "time": 124, "note": 56, "velocity": 92, "channel": 0}, {"type": "note_off", "time": 256, "note": 56, "velocity": 92, "channel": 0}, {"type": "note_on", "time": 625, "note": 55, "velocity": 101, "channel": 0}, {"type": "note_off", "time": 93, "note": 55, "velocity": 101, "channel": 0}, {"type": "note_on", "time": 91, "note": 56, "velocity": 98, "channel": 0}, {"type": "note_off", "time": 58, "note": 56, "velocity": 98, "channel": 0}, {"type": "note_on", "time": 104, "note": 57, "velocity": 104, "channel": 0}, {"type": "note_off", "time": 115, "note": 57, "velocity": 104, "channel": 0}, {"type": "note_on", "time": 41, "note": 58, "velocity": 92, "channel": 0}, {"type": "note_off", "time": 55, "note": 58, "velocity": 92, "channel": 0}, {"type": "note_on", "time": 82, "note": 65, "velocity": 106, "channel": 0}, {"type": "note_off", "time": 110, "note": 65, "velocity": 106, "channel": 0}, {"type": "note_on", "time": 73, "note": 65, "velocity": 106, "channel": 0}, {"type": "note_off", "time": 117, "note": 65, "velocity": 106, "channel": 0}, {"type": "note_on", "time": 68, "note": 63, "velocity": 107, "channel": 0}, {"type": "note_off", "time": 94, "note": 63, "velocity": 107, "channel": 0}, {"type": "note_on", "time": 8, "note": 65, "velocity": 99, "channel": 0}, {"type": "note_off", "time": 94, "note": 65, "velocity": 99, "channel": 0}, {"type": "note_on", "time": 6, "note": 63, "velocity": 111, "channel": 0}, {"type": "note_off", "time": 100, "note": 63, "velocity": 111, "channel": 0}, {"type": "note_on", "time": 76, "note": 52, "velocity": 103, "channel": 0}, {"type": "note_off", "time": 90, "note": 52, "velocity": 103, "channel": 0}, {"type": "note_on", "time": 90, "note": 53, "velocity": 104, "channel": 0}, {"type": "note_off", "time": 94, "note": 53, "velocity": 104, "channel": 0}, {"type": "note_on", "time": 98, "note": 55, "velocity": 107, "channel": 0}, {"type": "note_off", "time": 93, "note": 55, "velocity": 107, "channel": 0}, {"type": "note_on", "time": 86, "note": 53, "velocity": 100, "channel": 0}, {"type": "note_off", "time": 84, "note": 53, "velocity": 100, "channel": 0}, {"type": "note_on", "time": 108, "note": 62, "velocity": 108, "channel": 0}, {"type": "note_off", "time": 78, "note": 62, "velocity": 108, "channel": 0}, {"type": "note_on", "time": 3, "note": 63, "velocity": 108, "channel": 0}, {"type": "note_off", "time": 308, "note": 63, "velocity": 108, "channel": 0}, {"type": "note_on", "time": 11, "note": 62, "velocity": 106, "channel": 0}, {"type": "note_off", "time": 52, "note": 62, "velocity": 106, "channel": 0}, {"type": "note_on", "time": 18, "note": 63, "velocity": 104, "channel": 0}, {"type": "note_off", "time": 133, "note": 63, "velocity": 104, "channel": 0}, {"type": "note_on", "time": 6, "note": 62, "velocity": 94, "channel": 0}, {"type": "note_off", "time": 252, "note": 62, "velocity": 94, "channel": 0}, {"type": "note_on", "time": 731, "note": 58, "velocity": 103, "channel": 0}, {"type": "note_off", "time": 44, "note": 58, "velocity": 103, "channel": 0}, {"type": "note_on", "time": 6, "note": 62, "velocity": 104, "channel": 0}, {"type": "note_off", "time": 81, "note": 62, "velocity": 104, "channel": 0}, {"type": "note_on", "time": 6, "note": 63, "velocity": 112, "channel": 0}, {"type": "note_off", "time": 85, "note": 63, "velocity": 112, "channel": 0}, {"type": "note_on", "time": 6, "note": 62, "velocity": 102, "channel": 0}, {"type": "note_off", "time": 84, "note": 62, "velocity": 102, "channel": 0}, {"type": "note_on", "time": 14, "note": 58, "velocity": 103, "channel": 0}, {"type": "note_off", "time": 71, "note": 58, "velocity": 103, "channel": 0}, {"type": "note_on", "time": 9, "note": 53, "velocity": 105, "channel": 0}, {"type": "note_off", "time": 98, "note": 53, "velocity": 105, "channel": 0}, {"type": "note_on", "time": 12, "note": 51, "velocity": 102, "channel": 0}, {"type": "note_off", "time": 79, "note": 51, "velocity": 102, "channel": 0}, {"type": "note_on", "time": 133, "note": 49, "velocity": 104, "channel": 0}, {"type": "note_off", "time": 80, "note": 49, "velocity": 104, "channel": 0}, {"type": "note_on", "time": 15, "note": 50, "velocity": 99, "channel": 0}, {"type": "note_off", "time": 77, "note": 50, "velocity": 99, "channel": 0}, {"type": "note_on", "time": 13, "note": 53, "velocity": 104, "channel": 0}, {"type": "note_off", "time": 48, "note": 53, "velocity": 104, "channel": 0}, {"type": "note_on", "time": 12, "note": 55, "velocity": 104, "channel": 0}, {"type": "note_off", "time": 94, "note": 55, "velocity": 104, "channel": 0}, {"type": "note_on", "time": 11, "note": 58, "velocity": 96, "channel": 0}, {"type": "note_off", "time": 292, "note": 58, "velocity": 96, "channel": 0}, {"type": "note_on", "time": 712, "note": 58, "velocity": 100, "channel": 0}, {"type": "note_off", "time": 35, "note": 58, "velocity": 100, "channel": 0}, {"type": "note_on", "time": 21, "note": 58, "velocity": 105, "channel": 0}, {"type": "note_off", "time": 37, "note": 58, "velocity": 105, "channel": 0}, {"type": "note_on", "time": 12, "note": 61, "velocity": 95, "channel": 0}, {"type": "note_off", "time": 36, "note": 61, "velocity": 95, "channel": 0}, {"type": "note_on", "time": 10, "note": 58, "velocity": 104, "channel": 0}, {"type": "note_off", "time": 238, "note": 58, "velocity": 104, "channel": 0}, {"type": "note_on", "time": 45, "note": 58, "velocity": 124, "channel": 0}, {"type": "note_off", "time": 58, "note": 58, "velocity": 124, "channel": 0}, {"type": "note_on", "time": 48, "note": 58, "velocity": 121, "channel": 0}, {"type": "note_off", "time": 63, "note": 58, "velocity": 121, "channel": 0}, {"type": "note_on", "time": 29, "note": 58, "velocity": 110, "channel": 0}, {"type": "note_off", "time": 135, "note": 58, "velocity": 110, "channel": 0}, {"type": "note_on", "time": 23, "note": 58, "velocity": 116, "channel": 0}, {"type": "note_off", "time": 58, "note": 58, "velocity": 116, "channel": 0}, {"type": "note_on", "time": 33, "note": 58, "velocity": 116, "channel": 0}, {"type": "note_off", "time": 87, "note": 58, "velocity": 116, "channel": 0}, {"type": "note_on", "time": 20, "note": 58, "velocity": 106, "channel": 0}, {"type": "note_off", "time": 167, "note": 58, "velocity": 106, "channel": 0}, {"type": "note_on", "time": 15, "note": 58, "velocity": 118, "channel": 0}, {"type": "note_off", "time": 59, "note": 58, "velocity": 118, "channel": 0}, {"type": "note_on", "time": 28, "note": 58, "velocity": 111, "channel": 0}, {"type": "note_off", "time": 94, "note": 58, "velocity": 111, "channel": 0}, {"type": "note_on", "time": 24, "note": 58, "velocity": 106, "channel": 0}, {"type": "note_off", "time": 135, "note": 58, "velocity": 106, "channel": 0}, {"type": "note_on", "time": 15, "note": 59, "velocity": 117, "channel": 0}, {"type": "note_off", "time": 209, "note": 59, "velocity": 117, "channel": 0}, {"type": "note_on", "time": 8, "note": 58, "velocity": 97, "channel": 0}, {"type": "note_off", "time": 330, "note": 58, "velocity": 97, "channel": 0}, {"type": "note_on", "time": 161, "note": 58, "velocity": 109, "channel": 0}, {"type": "note_off", "time": 45, "note": 58, "velocity": 109, "channel": 0}, {"type": "note_on", "time": 11, "note": 58, "velocity": 110, "channel": 0}, {"type": "note_off", "time": 70, "note": 58, "velocity": 110, "channel": 0}, {"type": "note_on", "time": 52, "note": 58, "velocity": 117, "channel": 0}, {"type": "note_off", "time": 75, "note": 58, "velocity": 117, "channel": 0}, {"type": "note_on", "time": 15, "note": 58, "velocity": 111, "channel": 0}, {"type": "note_off", "time": 252, "note": 58, "velocity": 111, "channel": 0}, {"type": "note_on", "time": 10, "note": 59, "velocity": 110, "channel": 0}, {"type": "note_off", "time": 296, "note": 59, "velocity": 110, "channel": 0}, {"type": "note_on", "time": 399, "note": 58, "velocity": 108, "channel": 0}, {"type": "note_off", "time": 75, "note": 58, "velocity": 108, "channel": 0}, {"type": "note_on", "time": 34, "note": 58, "velocity": 101, "channel": 0}, {"type": "note_off", "time": 360, "note": 58, "velocity": 101, "channel": 0}, {"type": "note_on", "time": 11, "note": 60, "velocity": 117, "channel": 0}, {"type": "note_off", "time": 83, "note": 60, "velocity": 117, "channel": 0}, {"type": "note_on", "time": 17, "note": 61, "velocity": 108, "channel": 0}, {"type": "note_off", "time": 84, "note": 61, "velocity": 108, "channel": 0}, {"type": "note_on", "time": 11, "note": 63, "velocity": 113, "channel": 0}, {"type": "note_off", "time": 94, "note": 63, "velocity": 113, "channel": 0}, {"type": "note_on", "time": 19, "note": 65, "velocity": 90, "channel": 0}, {"type": "note_off", "time": 44, "note": 65, "velocity": 90, "channel": 0}, {"type": "note_on", "time": 40, "note": 67, "velocity": 109, "channel": 0}, {"type": "note_off", "time": 33, "note": 67, "velocity": 109, "channel": 0}, {"type": "note_on", "time": 11, "note": 72, "velocity": 106, "channel": 0}, {"type": "note_off", "time": 380, "note": 72, "velocity": 106, "channel": 0}, {"type": "note_on", "time": 12, "note": 70, "velocity": 115, "channel": 0}, {"type": "note_off", "time": 115, "note": 70, "velocity": 115, "channel": 0}, {"type": "note_on", "time": 6, "note": 69, "velocity": 115, "channel": 0}, {"type": "note_off", "time": 84, "note": 69, "velocity": 115, "channel": 0}, {"type": "note_on", "time": 4, "note": 67, "velocity": 96, "channel": 0}, {"type": "note_off", "time": 84, "note": 67, "velocity": 96, "channel": 0}, {"type": "note_on", "time": 10, "note": 66, "velocity": 98, "channel": 0}, {"type": "note_off", "time": 71, "note": 66, "velocity": 98, "channel": 0}, {"type": "note_on", "time": 6, "note": 65, "velocity": 98, "channel": 0}, {"type": "note_off", "time": 79, "note": 65, "velocity": 98, "channel": 0}, {"type": "note_on", "time": 4, "note": 63, "velocity": 111, "channel": 0}, {"type": "note_off", "time": 105, "note": 63, "velocity": 111, "channel": 0}, {"type": "note_on", "time": 7, "note": 62, "velocity": 100, "channel": 0}, {"type": "note_off", "time": 78, "note": 62, "velocity": 100, "channel": 0}, {"type": "note_on", "time": 35, "note": 60, "velocity": 111, "channel": 0}, {"type": "note_off", "time": 60, "note": 60, "velocity": 111, "channel": 0}, {"type": "note_on", "time": 9, "note": 59, "velocity": 97, "channel": 0}, {"type": "note_off", "time": 79, "note": 59, "velocity": 97, "channel": 0}, {"type": "note_on", "time": 11, "note": 62, "velocity": 114, "channel": 0}, {"type": "note_off", "time": 74, "note": 62, "velocity": 114, "channel": 0}, {"type": "note_on", "time": 13, "note": 56, "velocity": 104, "channel": 0}, {"type": "note_off", "time": 90, "note": 56, "velocity": 104, "channel": 0}, {"type": "note_on", "time": 10, "note": 54, "velocity": 98, "channel": 0}, {"type": "note_off", "time": 85, "note": 54, "velocity": 98, "channel": 0}, {"type": "note_on", "time": 8, "note": 55, "velocity": 100, "channel": 0}, {"type": "note_off", "time": 76, "note": 55, "velocity": 100, "channel": 0}, {"type": "note_on", "time": 24, "note": 63, "velocity": 115, "channel": 0}, {"type": "note_off", "time": 75, "note": 63, "velocity": 115, "channel": 0}, {"type": "note_on", "time": 13, "note": 59, "velocity": 97, "channel": 0}, {"type": "note_off", "time": 86, "note": 59, "velocity": 97, "channel": 0}, {"type": "note_on", "time": 104, "note": 62, "velocity": 104, "channel": 0}, {"type": "note_off", "time": 280, "note": 62, "velocity": 104, "channel": 0}, {"type": "note_on", "time": 489, "note": 62, "velocity": 120, "channel": 0}, {"type": "note_off", "time": 96, "note": 62, "velocity": 120, "channel": 0}, {"type": "note_on", "time": 7, "note": 63, "velocity": 116, "channel": 0}, {"type": "note_off", "time": 76, "note": 63, "velocity": 116, "channel": 0}, {"type": "note_on", "time": 7, "note": 61, "velocity": 109, "channel": 0}, {"type": "note_off", "time": 90, "note": 61, "velocity": 109, "channel": 0}, {"type": "note_on", "time": 8, "note": 62, "velocity": 113, "channel": 0}, {"type": "note_off", "time": 56, "note": 62, "velocity": 113, "channel": 0}, {"type": "note_on", "time": 12, "note": 58, "velocity": 104, "channel": 0}, {"type": "note_off", "time": 97, "note": 58, "velocity": 104, "channel": 0}, {"type": "note_on", "time": 29, "note": 53, "velocity": 107, "channel": 0}, {"type": "note_off", "time": 49, "note": 53, "velocity": 107, "channel": 0}, {"type": "note_on", "time": 124, "note": 51, "velocity": 105, "channel": 0}, {"type": "note_off", "time": 68, "note": 51, "velocity": 105, "channel": 0}, {"type": "note_on", "time": 24, "note": 53, "velocity": 97, "channel": 0}, {"type": "note_off", "time": 82, "note": 53, "velocity": 97, "channel": 0}, {"type": "note_on", "time": 9, "note": 58, "velocity": 95, "channel": 0}, {"type": "note_off", "time": 289, "note": 58, "velocity": 95, "channel": 0}, {"type": "note_on", "time": 1237, "note": 67, "velocity": 112, "channel": 0}, {"type": "note_off", "time": 91, "note": 67, "velocity": 112, "channel": 0}, {"type": "note_on", "time": 6, "note": 65, "velocity": 95, "channel": 0}, {"type": "note_off", "time": 41, "note": 65, "velocity": 95, "channel": 0}, {"type": "note_on", "time": 10, "note": 67, "velocity": 96, "channel": 0}, {"type": "note_off", "time": 37, "note": 67, "velocity": 96, "channel": 0}, {"type": "note_on", "time": 6, "note": 65, "velocity": 105, "channel": 0}, {"type": "note_off", "time": 56, "note": 65, "velocity": 105, "channel": 0}, {"type": "note_on", "time": 10, "note": 67, "velocity": 117, "channel": 0}, {"type": "note_off", "time": 112, "note": 67, "velocity": 117, "channel": 0}, {"type": "note_on", "time": 8, "note": 68, "velocity": 110, "channel": 0}, {"type": "note_off", "time": 73, "note": 68, "velocity": 110, "channel": 0}, {"type": "note_on", "time": 7, "note": 65, "velocity": 102, "channel": 0}, {"type": "note_off", "time": 41, "note": 65, "velocity": 102, "channel": 0}, {"type": "note_on", "time": 5, "note": 67, "velocity": 95, "channel": 0}, {"type": "note_off", "time": 49, "note": 67, "velocity": 95, "channel": 0}, {"type": "note_on", "time": 11, "note": 65, "velocity": 100, "channel": 0}, {"type": "note_off", "time": 63, "note": 65, "velocity": 100, "channel": 0}, {"type": "note_on", "time": 24, "note": 67, "velocity": 115, "channel": 0}, {"type": "note_off", "time": 101, "note": 67, "velocity": 115, "channel": 0}, {"type": "note_on", "time": 96, "note": 67, "velocity": 119, "channel": 0}, {"type": "note_off", "time": 158, "note": 67, "velocity": 119, "channel": 0}, {"type": "note_on", "time": 8, "note": 68, "velocity": 111, "channel": 0}, {"type": "note_off", "time": 87, "note": 68, "velocity": 111, "channel": 0}, {"type": "note_on", "time": 427, "note": 67, "velocity": 111, "channel": 0}, {"type": "note_off", "time": 73, "note": 67, "velocity": 111, "channel": 0}, {"type": "note_on", "time": 17, "note": 65, "velocity": 97, "channel": 0}, {"type": "note_off", "time": 62, "note": 65, "velocity": 97, "channel": 0}, {"type": "note_on", "time": 17, "note": 68, "velocity": 96, "channel": 0}, {"type": "note_off", "time": 45, "note": 68, "velocity": 96, "channel": 0}, {"type": "note_on", "time": 10, "note": 65, "velocity": 95, "channel": 0}, {"type": "note_off", "time": 39, "note": 65, "velocity": 95, "channel": 0}, {"type": "note_on", "time": 5, "note": 68, "velocity": 108, "channel": 0}, {"type": "note_off", "time": 118, "note": 68, "velocity": 108, "channel": 0}, {"type": "note_on", "time": 1, "note": 65, "velocity": 101, "channel": 0}, {"type": "note_off", "time": 45, "note": 65, "velocity": 101, "channel": 0}, {"type": "note_on", "time": 7, "note": 67, "velocity": 111, "channel": 0}, {"type": "note_off", "time": 109, "note": 67, "velocity": 111, "channel": 0}, {"type": "note_on", "time": 4, "note": 65, "velocity": 103, "channel": 0}, {"type": "note_off", "time": 35, "note": 65, "velocity": 103, "channel": 0}, {"type": "note_on", "time": 8, "note": 64, "velocity": 112, "channel": 0}, {"type": "note_off", "time": 75, "note": 64, "velocity": 112, "channel": 0}, {"type": "note_on", "time": 13, "note": 65, "velocity": 107, "channel": 0}, {"type": "note_off", "time": 78, "note": 65, "velocity": 107, "channel": 0}, {"type": "note_on", "time": 6, "note": 67, "velocity": 108, "channel": 0}, {"type": "note_off", "time": 62, "note": 67, "velocity": 108, "channel": 0}, {"type": "note_on", "time": 10, "note": 67, "velocity": 117, "channel": 0}, {"type": "note_off", "time": 107, "note": 67, "velocity": 117, "channel": 0}, {"type": "note_on", "time": 12, "note": 68, "velocity": 114, "channel": 0}, {"type": "note_off", "time": 77, "note": 68, "velocity": 114, "channel": 0}, {"type": "note_on", "time": 662, "note": 65, "velocity": 110, "channel": 0}, {"type": "note_off", "time": 74, "note": 65, "velocity": 110, "channel": 0}, {"type": "note_on", "time": 5, "note": 68, "velocity": 111, "channel": 0}, {"type": "note_off", "time": 90, "note": 68, "velocity": 111, "channel": 0}, {"type": "note_on", "time": 6, "note": 65, "velocity": 106, "channel": 0}, {"type": "note_off", "time": 79, "note": 65, "velocity": 106, "channel": 0}, {"type": "note_on", "time": 8, "note": 67, "velocity": 110, "channel": 0}, {"type": "note_off", "time": 79, "note": 67, "velocity": 110, "channel": 0}, {"type": "note_on", "time": 17, "note": 64, "velocity": 111, "channel": 0}, {"type": "note_off", "time": 94, "note": 64, "velocity": 111, "channel": 0}, {"type": "note_on", "time": 16, "note": 65, "velocity": 94, "channel": 0}, {"type": "note_off", "time": 61, "note": 65, "velocity": 94, "channel": 0}, {"type": "note_on", "time": 24, "note": 67, "velocity": 110, "channel": 0}, {"type": "note_off", "time": 87, "note": 67, "velocity": 110, "channel": 0}, {"type": "note_on", "time": 8, "note": 68, "velocity": 97, "channel": 0}, {"type": "note_off", "time": 76, "note": 68, "velocity": 97, "channel": 0}, {"type": "note_on", "time": 10, "note": 70, "velocity": 111, "channel": 0}, {"type": "note_off", "time": 96, "note": 70, "velocity": 111, "channel": 0}, {"type": "note_on", "time": 4, "note": 72, "velocity": 118, "channel": 0}, {"type": "note_off", "time": 107, "note": 72, "velocity": 118, "channel": 0}, {"type": "note_on", "time": 6, "note": 70, "velocity": 96, "channel": 0}, {"type": "note_off", "time": 69, "note": 70, "velocity": 96, "channel": 0}, {"type": "note_on", "time": 9, "note": 72, "velocity": 116, "channel": 0}, {"type": "note_off", "time": 93, "note": 72, "velocity": 116, "channel": 0}, {"type": "note_on", "time": 4, "note": 70, "velocity": 105, "channel": 0}, {"type": "note_off", "time": 80, "note": 70, "velocity": 105, "channel": 0}, {"type": "note_on", "time": 9, "note": 68, "velocity": 106, "channel": 0}, {"type": "note_off", "time": 116, "note": 68, "velocity": 106, "channel": 0}, {"type": "note_on", "time": 5, "note": 67, "velocity": 96, "channel": 0}, {"type": "note_off", "time": 67, "note": 67, "velocity": 96, "channel": 0}, {"type": "note_on", "time": 6, "note": 68, "velocity": 105, "channel": 0}, {"type": "note_off", "time": 97, "note": 68, "velocity": 105, "channel": 0}, {"type": "note_on", "time": 6, "note": 67, "velocity": 110, "channel": 0}, {"type": "note_off", "time": 84, "note": 67, "velocity": 110, "channel": 0}, {"type": "note_on", "time": 4, "note": 65, "velocity": 112, "channel": 0}, {"type": "note_off", "time": 96, "note": 65, "velocity": 112, "channel": 0}, {"type": "note_on", "time": 2, "note": 63, "velocity": 116, "channel": 0}, {"type": "note_off", "time": 99, "note": 63, "velocity": 116, "channel": 0}, {"type": "note_on", "time": 3, "note": 62, "velocity": 109, "channel": 0}, {"type": "note_off", "time": 86, "note": 62, "velocity": 109, "channel": 0}, {"type": "note_on", "time": 15, "note": 60, "velocity": 112, "channel": 0}, {"type": "note_off", "time": 65, "note": 60, "velocity": 112, "channel": 0}, {"type": "note_on", "time": 8, "note": 59, "velocity": 104, "channel": 0}, {"type": "note_off", "time": 93, "note": 59, "velocity": 104, "channel": 0}, {"type": "note_on", "time": 5, "note": 62, "velocity": 110, "channel": 0}, {"type": "note_off", "time": 72, "note": 62, "velocity": 110, "channel": 0}, {"type": "note_on", "time": 28, "note": 56, "velocity": 108, "channel": 0}, {"type": "note_off", "time": 75, "note": 56, "velocity": 108, "channel": 0}, {"type": "note_on", "time": 12, "note": 54, "velocity": 103, "channel": 0}, {"type": "note_off", "time": 83, "note": 54, "velocity": 103, "channel": 0}, {"type": "note_on", "time": 9, "note": 55, "velocity": 105, "channel": 0}, {"type": "note_off", "time": 75, "note": 55, "velocity": 105, "channel": 0}, {"type": "note_on", "time": 16, "note": 63, "velocity": 111, "channel": 0}, {"type": "note_off", "time": 71, "note": 63, "velocity": 111, "channel": 0}, {"type": "note_on", "time": 8, "note": 59, "velocity": 106, "channel": 0}, {"type": "note_off", "time": 91, "note": 59, "velocity": 106, "channel": 0}, {"type": "note_on", "time": 121, "note": 62, "velocity": 116, "channel": 0}, {"type": "note_off", "time": 91, "note": 62, "velocity": 116, "channel": 0}, {"type": "note_on", "time": 10, "note": 59, "velocity": 101, "channel": 0}, {"type": "note_off", "time": 66, "note": 59, "velocity": 101, "channel": 0}, {"type": "note_on", "time": 13, "note": 60, "velocity": 104, "channel": 0}, {"type": "note_off", "time": 94, "note": 60, "velocity": 104, "channel": 0}, {"type": "note_on", "time": 8, "note": 63, "velocity": 113, "channel": 0}, {"type": "note_off", "time": 71, "note": 63, "velocity": 113, "channel": 0}, {"type": "note_on", "time": 9, "note": 67, "velocity": 105, "channel": 0}, {"type": "note_off", "time": 97, "note": 67, "velocity": 105, "channel": 0}, {"type": "note_on", "time": 6, "note": 70, "velocity": 110, "channel": 0}, {"type": "note_off", "time": 98, "note": 70, "velocity": 110, "channel": 0}, {"type": "note_on", "time": 94, "note": 70, "velocity": 99, "channel": 0}, {"type": "note_off", "time": 246, "note": 70, "velocity": 99, "channel": 0}, {"type": "note_on", "time": 331, "note": 60, "velocity": 108, "channel": 0}, {"type": "note_off", "time": 78, "note": 60, "velocity": 108, "channel": 0}, {"type": "note_on", "time": 3, "note": 62, "velocity": 103, "channel": 0}, {"type": "note_off", "time": 46, "note": 62, "velocity": 103, "channel": 0}, {"type": "note_on", "time": 8, "note": 63, "velocity": 106, "channel": 0}, {"type": "note_off", "time": 47, "note": 63, "velocity": 106, "channel": 0}, {"type": "note_on", "time": 11, "note": 67, "velocity": 104, "channel": 0}, {"type": "note_off", "time": 59, "note": 67, "velocity": 104, "channel": 0}, {"type": "note_on", "time": 5, "note": 70, "velocity": 119, "channel": 0}, {"type": "note_off", "time": 101, "note": 70, "velocity": 119, "channel": 0}, {"type": "note_on", "time": 13, "note": 70, "velocity": 109, "channel": 0}, {"type": "note_off", "time": 276, "note": 70, "velocity": 109, "channel": 0}, {"type": "note_on", "time": 757, "note": 70, "velocity": 114, "channel": 0}, {"type": "note_off", "time": 92, "note": 70, "velocity": 114, "channel": 0}, {"type": "note_on", "time": 19, "note": 70, "velocity": 112, "channel": 0}, {"type": "note_off", "time": 55, "note": 70, "velocity": 112, "channel": 0}, {"type": "note_on", "time": 42, "note": 70, "velocity": 114, "channel": 0}, {"type": "note_off", "time": 65, "note": 70, "velocity": 114, "channel": 0}, {"type": "note_on", "time": 26, "note": 70, "velocity": 114, "channel": 0}, {"type": "note_off", "time": 57, "note": 70, "velocity": 114, "channel": 0}, {"type": "note_on", "time": 28, "note": 70, "velocity": 119, "channel": 0}, {"type": "note_off", "time": 84, "note": 70, "velocity": 119, "channel": 0}, {"type": "note_on", "time": 37, "note": 70, "velocity": 111, "channel": 0}, {"type": "note_off", "time": 249, "note": 70, "velocity": 111, "channel": 0}, {"type": "note_on", "time": 15, "note": 70, "velocity": 107, "channel": 0}, {"type": "note_off", "time": 322, "note": 70, "velocity": 107, "channel": 0}, {"type": "note_on", "time": 39, "note": 70, "velocity": 101, "channel": 0}, {"type": "note_off", "time": 380, "note": 70, "velocity": 101, "channel": 0}, {"type": "note_on", "time": 23, "note": 70, "velocity": 102, "channel": 0}, {"type": "note_off", "time": 287, "note": 70, "velocity": 102, "channel": 0}, {"type": "note_on", "time": 16, "note": 70, "velocity": 118, "channel": 0}, {"type": "note_off", "time": 55, "note": 70, "velocity": 118, "channel": 0}, {"type": "note_on", "time": 23, "note": 70, "velocity": 100, "channel": 0}, {"type": "note_off", "time": 176, "note": 70, "velocity": 100, "channel": 0}, {"type": "note_on", "time": 564, "note": 70, "velocity": 116, "channel": 0}, {"type": "note_off", "time": 100, "note": 70, "velocity": 116, "channel": 0}, {"type": "note_on", "time": 25, "note": 70, "velocity": 115, "channel": 0}, {"type": "note_off", "time": 49, "note": 70, "velocity": 115, "channel": 0}, {"type": "note_on", "time": 18, "note": 70, "velocity": 114, "channel": 0}, {"type": "note_off", "time": 80, "note": 70, "velocity": 114, "channel": 0}, {"type": "note_on", "time": 14, "note": 70, "velocity": 111, "channel": 0}, {"type": "note_off", "time": 57, "note": 70, "velocity": 111, "channel": 0}, {"type": "note_on", "time": 13, "note": 74, "velocity": 115, "channel": 0}, {"type": "note_off", "time": 111, "note": 74, "velocity": 115, "channel": 0}, {"type": "note_on", "time": 12, "note": 72, "velocity": 120, "channel": 0}, {"type": "note_off", "time": 86, "note": 72, "velocity": 120, "channel": 0}, {"type": "note_on", "time": 7, "note": 70, "velocity": 104, "channel": 0}, {"type": "note_off", "time": 279, "note": 70, "velocity": 104, "channel": 0}, {"type": "note_on", "time": 16, "note": 70, "velocity": 112, "channel": 0}, {"type": "note_off", "time": 71, "note": 70, "velocity": 112, "channel": 0}, {"type": "note_on", "time": 129, "note": 70, "velocity": 112, "channel": 0}, {"type": "note_off", "time": 68, "note": 70, "velocity": 112, "channel": 0}, {"type": "note_on", "time": 15, "note": 70, "velocity": 112, "channel": 0}, {"type": "note_off", "time": 73, "note": 70, "velocity": 112, "channel": 0}, {"type": "note_on", "time": 24, "note": 70, "velocity": 113, "channel": 0}, {"type": "note_off", "time": 68, "note": 70, "velocity": 113, "channel": 0}, {"type": "note_on", "time": 17, "note": 70, "velocity": 111, "channel": 0}, {"type": "note_off", "time": 101, "note": 70, "velocity": 111, "channel": 0}, {"type": "note_on", "time": 24, "note": 70, "velocity": 113, "channel": 0}, {"type": "note_off", "time": 51, "note": 70, "velocity": 113, "channel": 0}, {"type": "note_on", "time": 27, "note": 70, "velocity": 111, "channel": 0}, {"type": "note_off", "time": 173, "note": 70, "velocity": 111, "channel": 0}, {"type": "note_on", "time": 26, "note": 70, "velocity": 109, "channel": 0}, {"type": "note_off", "time": 55, "note": 70, "velocity": 109, "channel": 0}, {"type": "note_on", "time": 25, "note": 70, "velocity": 108, "channel": 0}, {"type": "note_off", "time": 45, "note": 70, "velocity": 108, "channel": 0}, {"type": "note_on", "time": 22, "note": 75, "velocity": 114, "channel": 0}, {"type": "note_off", "time": 103, "note": 75, "velocity": 114, "channel": 0}, {"type": "note_on", "time": 5, "note": 73, "velocity": 111, "channel": 0}, {"type": "note_off", "time": 74, "note": 73, "velocity": 111, "channel": 0}, {"type": "note_on", "time": 19, "note": 70, "velocity": 99, "channel": 0}, {"type": "note_off", "time": 290, "note": 70, "velocity": 99, "channel": 0}, {"type": "note_on", "time": 7, "note": 70, "velocity": 108, "channel": 0}, {"type": "note_off", "time": 107, "note": 70, "velocity": 108, "channel": 0}, {"type": "note_on", "time": 71, "note": 70, "velocity": 109, "channel": 0}, {"type": "note_off", "time": 65, "note": 70, "velocity": 109, "channel": 0}, {"type": "note_on", "time": 14, "note": 70, "velocity": 109, "channel": 0}, {"type": "note_off", "time": 75, "note": 70, "velocity": 109, "channel": 0}, {"type": "note_on", "time": 12, "note": 70, "velocity": 109, "channel": 0}, {"type": "note_off", "time": 222, "note": 70, "velocity": 109, "channel": 0}, {"type": "note_on", "time": 39, "note": 70, "velocity": 109, "channel": 0}, {"type": "note_off", "time": 194, "note": 70, "velocity": 109, "channel": 0}, {"type": "note_on", "time": 17, "note": 70, "velocity": 106, "channel": 0}, {"type": "note_off", "time": 90, "note": 70, "velocity": 106, "channel": 0}, {"type": "note_on", "time": 17, "note": 70, "velocity": 107, "channel": 0}, {"type": "note_off", "time": 63, "note": 70, "velocity": 107, "channel": 0}, {"type": "note_on", "time": 15, "note": 68, "velocity": 108, "channel": 0}, {"type": "note_off", "time": 103, "note": 68, "velocity": 108, "channel": 0}, {"type": "note_on", "time": 17, "note": 67, "velocity": 113, "channel": 0}, {"type": "note_off", "time": 53, "note": 67, "velocity": 113, "channel": 0}, {"type": "note_on", "time": 11, "note": 65, "velocity": 113, "channel": 0}, {"type": "note_off", "time": 78, "note": 65, "velocity": 113, "channel": 0}, {"type": "note_on", "time": 241, "note": 70, "velocity": 109, "channel": 0}, {"type": "note_off", "time": 250, "note": 70, "velocity": 109, "channel": 0}, {"type": "note_on", "time": 7, "note": 67, "velocity": 108, "channel": 0}, {"type": "note_off", "time": 105, "note": 67, "velocity": 108, "channel": 0}, {"type": "note_on", "time": 4, "note": 65, "velocity": 117, "channel": 0}, {"type": "note_off", "time": 71, "note": 65, "velocity": 117, "channel": 0}, {"type": "note_on", "time": 4, "note": 62, "velocity": 114, "channel": 0}, {"type": "note_off", "time": 101, "note": 62, "velocity": 114, "channel": 0}, {"type": "note_on", "time": 12, "note": 60, "velocity": 114, "channel": 0}, {"type": "note_off", "time": 77, "note": 60, "velocity": 114, "channel": 0}, {"type": "note_on", "time": 4, "note": 58, "velocity": 110, "channel": 0}, {"type": "note_off", "time": 85, "note": 58, "velocity": 110, "channel": 0}, {"type": "note_on", "time": 5, "note": 53, "velocity": 107, "channel": 0}, {"type": "note_off", "time": 81, "note": 53, "velocity": 107, "channel": 0}, {"type": "note_on", "time": 47, "note": 48, "velocity": 110, "channel": 0}, {"type": "note_off", "time": 50, "note": 48, "velocity": 110, "channel": 0}, {"type": "note_on", "time": 3, "note": 50, "velocity": 109, "channel": 0}, {"type": "note_off", "time": 69, "note": 50, "velocity": 109, "channel": 0}, {"type": "note_on", "time": 16, "note": 53, "velocity": 112, "channel": 0}, {"type": "note_off", "time": 88, "note": 53, "velocity": 112, "channel": 0}, {"type": "note_on", "time": 34, "note": 50, "velocity": 104, "channel": 0}, {"type": "note_off", "time": 48, "note": 50, "velocity": 104, "channel": 0}, {"type": "note_on", "time": 115, "note": 53, "velocity": 112, "channel": 0}, {"type": "note_off", "time": 93, "note": 53, "velocity": 112, "channel": 0}, {"type": "note_on", "time": 8, "note": 58, "velocity": 109, "channel": 0}, {"type": "note_off", "time": 84, "note": 58, "velocity": 109, "channel": 0}, {"type": "note_on", "time": 10, "note": 61, "velocity": 118, "channel": 0}, {"type": "note_off", "time": 72, "note": 61, "velocity": 118, "channel": 0}, {"type": "note_on", "time": 7, "note": 64, "velocity": 114, "channel": 0}, {"type": "note_off", "time": 39, "note": 64, "velocity": 114, "channel": 0}, {"type": "note_on", "time": 6, "note": 65, "velocity": 116, "channel": 0}, {"type": "note_off", "time": 75, "note": 65, "velocity": 116, "channel": 0}, {"type": "note_on", "time": 941, "note": 60, "velocity": 119, "channel": 0}, {"type": "note_off", "time": 81, "note": 60, "velocity": 119, "channel": 0}, {"type": "note_on", "time": 26, "note": 64, "velocity": 115, "channel": 0}, {"type": "note_off", "time": 47, "note": 64, "velocity": 115, "channel": 0}, {"type": "note_on", "time": 6, "note": 67, "velocity": 105, "channel": 0}, {"type": "note_off", "time": 31, "note": 67, "velocity": 105, "channel": 0}, {"type": "note_on", "time": 1, "note": 65, "velocity": 114, "channel": 0}, {"type": "note_off", "time": 44, "note": 65, "velocity": 114, "channel": 0}, {"type": "note_on", "time": 21, "note": 64, "velocity": 119, "channel": 0}, {"type": "note_off", "time": 75, "note": 64, "velocity": 119, "channel": 0}, {"type": "note_on", "time": 16, "note": 61, "velocity": 118, "channel": 0}, {"type": "note_off", "time": 66, "note": 61, "velocity": 118, "channel": 0}, {"type": "note_on", "time": 13, "note": 58, "velocity": 107, "channel": 0}, {"type": "note_off", "time": 93, "note": 58, "velocity": 107, "channel": 0}, {"type": "note_on", "time": 6, "note": 55, "velocity": 101, "channel": 0}, {"type": "note_off", "time": 82, "note": 55, "velocity": 101, "channel": 0}, {"type": "note_on", "time": 6, "note": 63, "velocity": 123, "channel": 0}, {"type": "note_off", "time": 87, "note": 63, "velocity": 123, "channel": 0}, {"type": "note_on", "time": 9, "note": 61, "velocity": 120, "channel": 0}, {"type": "note_off", "time": 82, "note": 61, "velocity": 120, "channel": 0}, {"type": "note_on", "time": 7, "note": 58, "velocity": 110, "channel": 0}, {"type": "note_off", "time": 89, "note": 58, "velocity": 110, "channel": 0}, {"type": "note_on", "time": 8, "note": 55, "velocity": 109, "channel": 0}, {"type": "note_off", "time": 68, "note": 55, "velocity": 109, "channel": 0}, {"type": "note_on", "time": 18, "note": 64, "velocity": 122, "channel": 0}, {"type": "note_off", "time": 113, "note": 64, "velocity": 122, "channel": 0}, {"type": "note_on", "time": 5, "note": 61, "velocity": 113, "channel": 0}, {"type": "note_off", "time": 76, "note": 61, "velocity": 113, "channel": 0}, {"type": "note_on", "time": 3, "note": 65, "velocity": 116, "channel": 0}, {"type": "note_off", "time": 91, "note": 65, "velocity": 116, "channel": 0}, {"type": "note_on", "time": 11, "note": 61, "velocity": 113, "channel": 0}, {"type": "note_off", "time": 64, "note": 61, "velocity": 113, "channel": 0}, {"type": "note_on", "time": 31, "note": 64, "velocity": 113, "channel": 0}, {"type": "note_off", "time": 93, "note": 64, "velocity": 113, "channel": 0}, {"type": "note_on", "time": 9, "note": 61, "velocity": 118, "channel": 0}, {"type": "note_off", "time": 67, "note": 61, "velocity": 118, "channel": 0}, {"type": "note_on", "time": 30, "note": 58, "velocity": 106, "channel": 0}, {"type": "note_off", "time": 74, "note": 58, "velocity": 106, "channel": 0}, {"type": "note_on", "time": 30, "note": 55, "velocity": 105, "channel": 0}, {"type": "note_off", "time": 56, "note": 55, "velocity": 105, "channel": 0}, {"type": "note_on", "time": 22, "note": 63, "velocity": 123, "channel": 0}, {"type": "note_off", "time": 85, "note": 63, "velocity": 123, "channel": 0}, {"type": "note_on", "time": 13, "note": 60, "velocity": 112, "channel": 0}, {"type": "note_off", "time": 66, "note": 60, "velocity": 112, "channel": 0}, {"type": "note_on", "time": 15, "note": 64, "velocity": 116, "channel": 0}, {"type": "note_off", "time": 107, "note": 64, "velocity": 116, "channel": 0}, {"type": "note_on", "time": 33, "note": 60, "velocity": 108, "channel": 0}, {"type": "note_off", "time": 44, "note": 60, "velocity": 108, "channel": 0}, {"type": "note_on", "time": 22, "note": 65, "velocity": 113, "channel": 0}, {"type": "note_off", "time": 91, "note": 65, "velocity": 113, "channel": 0}, {"type": "note_on", "time": 13, "note": 60, "velocity": 108, "channel": 0}, {"type": "note_off", "time": 65, "note": 60, "velocity": 108, "channel": 0}, {"type": "note_on", "time": 34, "note": 65, "velocity": 115, "channel": 0}, {"type": "note_off", "time": 69, "note": 65, "velocity": 115, "channel": 0}, {"type": "note_on", "time": 44, "note": 65, "velocity": 111, "channel": 0}, {"type": "note_off", "time": 60, "note": 65, "velocity": 111, "channel": 0}, {"type": "note_on", "time": 7, "note": 67, "velocity": 111, "channel": 0}, {"type": "note_off", "time": 52, "note": 67, "velocity": 111, "channel": 0}, {"type": "note_on", "time": 11, "note": 68, "velocity": 110, "channel": 0}, {"type": "note_off", "time": 95, "note": 68, "velocity": 110, "channel": 0}, {"type": "note_on", "time": 715, "note": 61, "velocity": 119, "channel": 0}, {"type": "note_off", "time": 107, "note": 61, "velocity": 119, "channel": 0}, {"type": "note_on", "time": 8, "note": 65, "velocity": 104, "channel": 0}, {"type": "note_off", "time": 42, "note": 65, "velocity": 104, "channel": 0}, {"type": "note_on", "time": 12, "note": 66, "velocity": 104, "channel": 0}, {"type": "note_off", "time": 38, "note": 66, "velocity": 104, "channel": 0}, {"type": "note_on", "time": 9, "note": 65, "velocity": 112, "channel": 0}, {"type": "note_off", "time": 44, "note": 65, "velocity": 112, "channel": 0}, {"type": "note_on", "time": 8, "note": 64, "velocity": 109, "channel": 0}, {"type": "note_off", "time": 110, "note": 64, "velocity": 109, "channel": 0}, {"type": "note_on", "time": 1, "note": 65, "velocity": 111, "channel": 0}, {"type": "note_off", "time": 71, "note": 65, "velocity": 111, "channel": 0}, {"type": "note_on", "time": 4, "note": 63, "velocity": 115, "channel": 0}, {"type": "note_off", "time": 107, "note": 63, "velocity": 115, "channel": 0}, {"type": "note_on", "time": 5, "note": 61, "velocity": 115, "channel": 0}, {"type": "note_off", "time": 72, "note": 61, "velocity": 115, "channel": 0}, {"type": "note_on", "time": 15, "note": 58, "velocity": 109, "channel": 0}, {"type": "note_off", "time": 80, "note": 58, "velocity": 109, "channel": 0}, {"type": "note_on", "time": 22, "note": 53, "velocity": 107, "channel": 0}, {"type": "note_off", "time": 71, "note": 53, "velocity": 107, "channel": 0}, {"type": "note_on", "time": 42, "note": 49, "velocity": 102, "channel": 0}, {"type": "note_off", "time": 72, "note": 49, "velocity": 102, "channel": 0}, {"type": "note_on", "time": 8, "note": 50, "velocity": 102, "channel": 0}, {"type": "note_off", "time": 59, "note": 50, "velocity": 102, "channel": 0}, {"type": "note_on", "time": 15, "note": 53, "velocity": 105, "channel": 0}, {"type": "note_off", "time": 102, "note": 53, "velocity": 105, "channel": 0}, {"type": "note_on", "time": 24, "note": 49, "velocity": 101, "channel": 0}, {"type": "note_off", "time": 46, "note": 49, "velocity": 101, "channel": 0}, {"type": "note_on", "time": 28, "note": 50, "velocity": 106, "channel": 0}, {"type": "note_off", "time": 88, "note": 50, "velocity": 106, "channel": 0}, {"type": "note_on", "time": 12, "note": 53, "velocity": 116, "channel": 0}, {"type": "note_off", "time": 92, "note": 53, "velocity": 116, "channel": 0}, {"type": "note_on", "time": 6, "note": 58, "velocity": 109, "channel": 0}, {"type": "note_off", "time": 91, "note": 58, "velocity": 109, "channel": 0}, {"type": "note_on", "time": 31, "note": 55, "velocity": 105, "channel": 0}, {"type": "note_off", "time": 45, "note": 55, "velocity": 105, "channel": 0}, {"type": "note_on", "time": 12, "note": 58, "velocity": 114, "channel": 0}, {"type": "note_off", "time": 74, "note": 58, "velocity": 114, "channel": 0}, {"type": "note_on", "time": 30, "note": 61, "velocity": 119, "channel": 0}, {"type": "note_off", "time": 53, "note": 61, "velocity": 119, "channel": 0}, {"type": "note_on", "time": 14, "note": 62, "velocity": 114, "channel": 0}, {"type": "note_off", "time": 112, "note": 62, "velocity": 114, "channel": 0}, {"type": "note_on", "time": 18, "note": 65, "velocity": 110, "channel": 0}, {"type": "note_off", "time": 51, "note": 65, "velocity": 110, "channel": 0}, {"type": "note_on", "time": 7, "note": 67, "velocity": 112, "channel": 0}, {"type": "note_off", "time": 122, "note": 67, "velocity": 112, "channel": 0}, {"type": "note_on", "time": 10, "note": 65, "velocity": 103, "channel": 0}, {"type": "note_off", "time": 91, "note": 65, "velocity": 103, "channel": 0}, {"type": "note_on", "time": 4, "note": 68, "velocity": 109, "channel": 0}, {"type": "note_off", "time": 102, "note": 68, "velocity": 109, "channel": 0}, {"type": "note_on", "time": 9, "note": 65, "velocity": 101, "channel": 0}, {"type": "note_off", "time": 64, "note": 65, "velocity": 101, "channel": 0}, {"type": "note_on", "time": 5, "note": 67, "velocity": 118, "channel": 0}, {"type": "note_off", "time": 106, "note": 67, "velocity": 118, "channel": 0}, {"type": "note_on", "time": 8, "note": 64, "velocity": 118, "channel": 0}, {"type": "note_off", "time": 73, "note": 64, "velocity": 118, "channel": 0}, {"type": "note_on", "time": 8, "note": 65, "velocity": 108, "channel": 0}, {"type": "note_off", "time": 75, "note": 65, "velocity": 108, "channel": 0}, {"type": "note_on", "time": 16, "note": 62, "velocity": 117, "channel": 0}, {"type": "note_off", "time": 76, "note": 62, "velocity": 117, "channel": 0}, {"type": "note_on", "time": 6, "note": 59, "velocity": 106, "channel": 0}, {"type": "note_off", "time": 92, "note": 59, "velocity": 106, "channel": 0}, {"type": "note_on", "time": 45, "note": 56, "velocity": 111, "channel": 0}, {"type": "note_off", "time": 71, "note": 56, "velocity": 111, "channel": 0}, {"type": "note_on", "time": 7, "note": 55, "velocity": 101, "channel": 0}, {"type": "note_off", "time": 92, "note": 55, "velocity": 101, "channel": 0}, {"type": "note_on", "time": 3, "note": 60, "velocity": 113, "channel": 0}, {"type": "note_off", "time": 85, "note": 60, "velocity": 113, "channel": 0}, {"type": "note_on", "time": 7, "note": 63, "velocity": 112, "channel": 0}, {"type": "note_off", "time": 101, "note": 63, "velocity": 112, "channel": 0}, {"type": "note_on", "time": 5, "note": 67, "velocity": 111, "channel": 0}, {"type": "note_off", "time": 93, "note": 67, "velocity": 111, "channel": 0}, {"type": "note_on", "time": 6, "note": 70, "velocity": 112, "channel": 0}, {"type": "note_off", "time": 83, "note": 70, "velocity": 112, "channel": 0}, {"type": "note_on", "time": 8, "note": 74, "velocity": 113, "channel": 0}, {"type": "note_off", "time": 314, "note": 74, "velocity": 113, "channel": 0}, {"type": "note_on", "time": 842, "note": 69, "velocity": 112, "channel": 0}, {"type": "note_off", "time": 170, "note": 69, "velocity": 112, "channel": 0}, {"type": "note_on", "time": 9, "note": 70, "velocity": 118, "channel": 0}, {"type": "note_off", "time": 1013, "note": 70, "velocity": 118, "channel": 0}, {"type": "note_on", "time": 17, "note": 67, "velocity": 116, "channel": 0}, {"type": "note_off", "time": 90, "note": 67, "velocity": 116, "channel": 0}, {"type": "note_on", "time": 114, "note": 69, "velocity": 117, "channel": 0}, {"type": "note_off", "time": 104, "note": 69, "velocity": 117, "channel": 0}, {"type": "note_on", "time": 5, "note": 70, "velocity": 112, "channel": 0}, {"type": "note_off", "time": 59, "note": 70, "velocity": 112, "channel": 0}, {"type": "note_on", "time": 4, "note": 67, "velocity": 113, "channel": 0}, {"type": "note_off", "time": 91, "note": 67, "velocity": 113, "channel": 0}, {"type": "note_on", "time": 104, "note": 70, "velocity": 110, "channel": 0}, {"type": "note_off", "time": 207, "note": 70, "velocity": 110, "channel": 0}, {"type": "note_on", "time": 12, "note": 67, "velocity": 116, "channel": 0}, {"type": "note_off", "time": 69, "note": 67, "velocity": 116, "channel": 0}, {"type": "note_on", "time": 7, "note": 61, "velocity": 104, "channel": 0}, {"type": "note_off", "time": 118, "note": 61, "velocity": 104, "channel": 0}, {"type": "note_on", "time": 6, "note": 60, "velocity": 109, "channel": 0}, {"type": "note_off", "time": 44, "note": 60, "velocity": 109, "channel": 0}, {"type": "note_on", "time": 427, "note": 70, "velocity": 116, "channel": 0}, {"type": "note_off", "time": 203, "note": 70, "velocity": 116, "channel": 0}, {"type": "note_on", "time": 5, "note": 67, "velocity": 108, "channel": 0}, {"type": "note_off", "time": 52, "note": 67, "velocity": 108, "channel": 0}, {"type": "note_on", "time": 19, "note": 70, "velocity": 115, "channel": 0}, {"type": "note_off", "time": 187, "note": 70, "velocity": 115, "channel": 0}, {"type": "note_on", "time": 5, "note": 67, "velocity": 115, "channel": 0}, {"type": "note_off", "time": 72, "note": 67, "velocity": 115, "channel": 0}, {"type": "note_on", "time": 97, "note": 70, "velocity": 110, "channel": 0}, {"type": "note_off", "time": 213, "note": 70, "velocity": 110, "channel": 0}, {"type": "note_on", "time": 9, "note": 67, "velocity": 112, "channel": 0}, {"type": "note_off", "time": 69, "note": 67, "velocity": 112, "channel": 0}, {"type": "note_on", "time": 99, "note": 62, "velocity": 116, "channel": 0}, {"type": "note_off", "time": 119, "note": 62, "velocity": 116, "channel": 0}, {"type": "note_on", "time": 7, "note": 60, "velocity": 107, "channel": 0}, {"type": "note_off", "time": 57, "note": 60, "velocity": 107, "channel": 0}, {"type": "note_on", "time": 511, "note": 70, "velocity": 112, "channel": 0}, {"type": "note_off", "time": 267, "note": 70, "velocity": 112, "channel": 0}, {"type": "note_on", "time": 5, "note": 67, "velocity": 118, "channel": 0}, {"type": "note_off", "time": 79, "note": 67, "velocity": 118, "channel": 0}, {"type": "note_on", "time": 104, "note": 70, "velocity": 116, "channel": 0}, {"type": "note_off", "time": 168, "note": 70, "velocity": 116, "channel": 0}, {"type": "note_on", "time": 8, "note": 67, "velocity": 118, "channel": 0}, {"type": "note_off", "time": 104, "note": 67, "velocity": 118, "channel": 0}, {"type": "note_on", "time": 51, "note": 60, "velocity": 111, "channel": 0}, {"type": "note_off", "time": 155, "note": 60, "velocity": 111, "channel": 0}, {"type": "note_on", "time": 7, "note": 59, "velocity": 99, "channel": 0}, {"type": "note_off", "time": 43, "note": 59, "velocity": 99, "channel": 0}, {"type": "note_on", "time": 484, "note": 70, "velocity": 113, "channel": 0}, {"type": "note_off", "time": 275, "note": 70, "velocity": 113, "channel": 0}, {"type": "note_on", "time": 11, "note": 69, "velocity": 121, "channel": 0}, {"type": "note_off", "time": 108, "note": 69, "velocity": 121, "channel": 0}, {"type": "note_on", "time": 5, "note": 67, "velocity": 121, "channel": 0}, {"type": "note_off", "time": 93, "note": 67, "velocity": 121, "channel": 0}, {"type": "note_on", "time": 3, "note": 65, "velocity": 104, "channel": 0}, {"type": "note_off", "time": 67, "note": 65, "velocity": 104, "channel": 0}, {"type": "note_on", "time": 2, "note": 63, "velocity": 121, "channel": 0}, {"type": "note_off", "time": 105, "note": 63, "velocity": 121, "channel": 0}, {"type": "note_on", "time": 2, "note": 62, "velocity": 116, "channel": 0}, {"type": "note_off", "time": 72, "note": 62, "velocity": 116, "channel": 0}, {"type": "note_on", "time": 18, "note": 60, "velocity": 116, "channel": 0}, {"type": "note_off", "time": 71, "note": 60, "velocity": 116, "channel": 0}, {"type": "note_on", "time": 5, "note": 59, "velocity": 108, "channel": 0}, {"type": "note_off", "time": 88, "note": 59, "velocity": 108, "channel": 0}, {"type": "note_on", "time": 10, "note": 61, "velocity": 120, "channel": 0}, {"type": "note_off", "time": 68, "note": 61, "velocity": 120, "channel": 0}, {"type": "note_on", "time": 6, "note": 56, "velocity": 115, "channel": 0}, {"type": "note_off", "time": 93, "note": 56, "velocity": 115, "channel": 0}, {"type": "note_on", "time": 21, "note": 54, "velocity": 110, "channel": 0}, {"type": "note_off", "time": 74, "note": 54, "velocity": 110, "channel": 0}, {"type": "note_on", "time": 11, "note": 55, "velocity": 106, "channel": 0}, {"type": "note_off", "time": 84, "note": 55, "velocity": 106, "channel": 0}, {"type": "note_on", "time": 19, "note": 63, "velocity": 121, "channel": 0}, {"type": "note_off", "time": 86, "note": 63, "velocity": 121, "channel": 0}, {"type": "note_on", "time": 11, "note": 59, "velocity": 103, "channel": 0}, {"type": "note_off", "time": 76, "note": 59, "velocity": 103, "channel": 0}, {"type": "note_on", "time": 45, "note": 55, "velocity": 105, "channel": 0}, {"type": "note_off", "time": 50, "note": 55, "velocity": 105, "channel": 0}, {"type": "note_on", "time": 7, "note": 62, "velocity": 117, "channel": 0}, {"type": "note_off", "time": 101, "note": 62, "velocity": 117, "channel": 0}, {"type": "note_on", "time": 9, "note": 59, "velocity": 105, "channel": 0}, {"type": "note_off", "time": 64, "note": 59, "velocity": 105, "channel": 0}, {"type": "note_on", "time": 7, "note": 60, "velocity": 109, "channel": 0}, {"type": "note_off", "time": 80, "note": 60, "velocity": 109, "channel": 0}, {"type": "note_on", "time": 24, "note": 63, "velocity": 115, "channel": 0}, {"type": "note_off", "time": 87, "note": 63, "velocity": 115, "channel": 0}, {"type": "note_on", "time": 5, "note": 67, "velocity": 114, "channel": 0}, {"type": "note_off", "time": 101, "note": 67, "velocity": 114, "channel": 0}, {"type": "note_on", "time": 7, "note": 70, "velocity": 111, "channel": 0}, {"type": "note_off", "time": 102, "note": 70, "velocity": 111, "channel": 0}, {"type": "note_on", "time": 75, "note": 74, "velocity": 109, "channel": 0}, {"type": "note_off", "time": 278, "note": 74, "velocity": 109, "channel": 0}, {"type": "note_on", "time": 13, "note": 69, "velocity": 116, "channel": 0}, {"type": "note_off", "time": 82, "note": 69, "velocity": 116, "channel": 0}, {"type": "note_on", "time": 4, "note": 66, "velocity": 103, "channel": 0}, {"type": "note_off", "time": 78, "note": 66, "velocity": 103, "channel": 0}, {"type": "note_on", "time": 4, "note": 63, "velocity": 110, "channel": 0}, {"type": "note_off", "time": 122, "note": 63, "velocity": 110, "channel": 0}, {"type": "note_on", "time": 2, "note": 66, "velocity": 104, "channel": 0}, {"type": "note_off", "time": 55, "note": 66, "velocity": 104, "channel": 0}, {"type": "note_on", "time": 3, "note": 69, "velocity": 117, "channel": 0}, {"type": "note_off", "time": 126, "note": 69, "velocity": 117, "channel": 0}, {"type": "note_on", "time": 178, "note": 72, "velocity": 116, "channel": 0}, {"type": "note_off", "time": 279, "note": 72, "velocity": 116, "channel": 0}, {"type": "note_on", "time": 7, "note": 70, "velocity": 117, "channel": 0}, {"type": "note_off", "time": 85, "note": 70, "velocity": 117, "channel": 0}, {"type": "end_of_track", "time": 0}]]}