{"ticks_per_beat": 840, "tracks": [[{"type": "track_name", "name": "Melody", "time": 0}, {"type": "set_tempo", "tempo": 895522, "time": 0}, {"type": "key_signature", "key": "Db", "time": 0}, {"type": "time_signature", "numerator": 4, "denominator": 4, "clocks_per_click": 24, "notated_32nd_notes_per_beat": 8, "time": 0}, {"type": "note_on", "time": 36, "note": 72, "velocity": 98, "channel": 0}, {"type": "note_off", "time": 234, "note": 72, "velocity": 98, "channel": 0}, {"type": "note_on", "time": 34, "note": 70, "velocity": 96, "channel": 0}, {"type": "note_off", "time": 163, "note": 70, "velocity": 96, "channel": 0}, {"type": "note_on", "time": 16, "note": 72, "velocity": 105, "channel": 0}, {"type": "note_off", "time": 185, "note": 72, "velocity": 105, "channel": 0}, {"type": "note_on", "time": 21, "note": 70, "velocity": 106, "channel": 0}, {"type": "note_off", "time": 168, "note": 70, "velocity": 106, "channel": 0}, {"type": "note_on", "time": 21, "note": 68, "velocity": 106, "channel": 0}, {"type": "note_off", "time": 185, "note": 68, "velocity": 106, "channel": 0}, {"type": "note_on", "time": 21, "note": 65, "velocity": 113, "channel": 0}, {"type": "note_off", "time": 196, "note": 65, "velocity": 113, "channel": 0}, {"type": "note_on", "time": 5, "note": 63, "velocity": 114, "channel": 0}, {"type": "note_off", "time": 206, "note": 63, "velocity": 114, "channel": 0}, {"type": "note_on", "time": 27, "note": 61, "velocity": 115, "channel": 0}, {"type": "note_off", "time": 147, "note": 61, "velocity": 115, "channel": 0}, {"type": "note_on", "time": 38, "note": 58, "velocity": 100, "channel": 0}, {"type": "note_off", "time": 152, "note": 58, "velocity": 100, "channel": 0}, {"type": "note_on", "time": 59, "note": 61, "velocity": 122, "channel": 0}, {"type": "note_off", "time": 190, "note": 61, "velocity": 122, "channel": 0}, {"type": "note_on", "time": 27, "note": 64, "velocity": 116, "channel": 0}, {"type": "note_off", "time": 147, "note": 64, "velocity": 116, "channel": 0}, {"type": "note_on", "time": 10, "note": 65, "velocity": 122, "channel": 0}, {"type": "note_off", "time": 141, "note": 65, "velocity": 122, "channel": 0}, {"type": "note_on", "time": 10, "note": 64, "velocity": 121, "channel": 0}, {"type": "note_off", "time": 152, "note": 64, "velocity": 121, "channel": 0}, {"type": "note_on", "time": 27, "note": 65, "velocity": 118, "channel": 0}, {"type": "note_off", "time": 272, "note": 65, "velocity": 118, "channel": 0}, {"type": "note_on", "time": 32, "note": 64, "velocity": 121, "channel": 0}, {"type": "note_off", "time": 114, "note": 64, "velocity": 121, "channel": 0}, {"type": "note_on", "time": 32, "note": 65, "velocity": 122, "channel": 0}, {"type": "note_off", "time": 141, "note": 65, "velocity": 122, "channel": 0}, {"type": "note_on", "time": 32, "note": 61, "velocity": 119, "channel": 0}, {"type": "note_off", "time": 168, "note": 61, "velocity": 119, "channel": 0}, {"type": "note_on", "time": 43, "note": 58, "velocity": 104, "channel": 0}, {"type": "note_off", "time": 168, "note": 58, "velocity": 104, "channel": 0}, {"type": "note_on", "time": 16, "note": 66, "velocity": 122, "channel": 0}, {"type": "note_off", "time": 206, "note": 66, "velocity": 122, "channel": 0}, {"type": "note_on", "time": 38, "note": 65, "velocity": 120, "channel": 0}, {"type": "note_off", "time": 212, "note": 65, "velocity": 120, "channel": 0}, {"type": "note_on", "time": 10, "note": 64, "velocity": 117, "channel": 0}, {"type": "note_off", "time": 157, "note": 64, "velocity": 117, "channel": 0}, {"type": "note_on", "time": 21, "note": 65, "velocity": 122, "channel": 0}, {"type": "note_off", "time": 212, "note": 65, "velocity": 122, "channel": 0}, {"type": "note_on", "time": 16, "note": 64, "velocity": 115, "channel": 0}, {"type": "note_off", "time": 168, "note": 64, "velocity": 115, "channel": 0}, {"type": "note_on", "time": 10, "note": 65, "velocity": 119, "channel": 0}, {"type": "note_off", "time": 174, "note": 65, "velocity": 119, "channel": 0}, {"type": "note_on", "time": 38, "note": 61, "velocity": 114, "channel": 0}, {"type": "note_off", "time": 185, "note": 61, "velocity": 114, "channel": 0}, {"type": "note_on", "time": 27, "note": 57, "velocity": 106, "channel": 0}, {"type": "note_off", "time": 168, "note": 57, "velocity": 106, "channel": 0}, {"type": "note_on", "time": 70, "note": 66, "velocity": 118, "channel": 0}, {"type": "note_off", "time": 179, "note": 66, "velocity": 118, "channel": 0}, {"type": "note_on", "time": 21, "note": 65, "velocity": 118, "channel": 0}, {"type": "note_off", "time": 294, "note": 65, "velocity": 118, "channel": 0}, {"type": "note_on", "time": 44, "note": 60, "velocity": 94, "channel": 0}, {"type": "note_off", "time": 1540, "note": 60, "velocity": 94, "channel": 0}, {"type": "note_on", "time": 140, "note": 49, "velocity": 88, "channel": 0}, {"type": "note_off", "time": 92, "note": 49, "velocity": 88, "channel": 0}, {"type": "note_on", "time": 13, "note": 53, "velocity": 88, "channel": 0}, {"type": "note_off", "time": 67, "note": 53, "velocity": 88, "channel": 0}, {"type": "note_on", "time": 12, "note": 56, "velocity": 108, "channel": 0}, {"type": "note_off", "time": 109, "note": 56, "velocity": 108, "channel": 0}, {"type": "note_on", "time": 30, "note": 60, "velocity": 104, "channel": 0}, {"type": "note_off", "time": 114, "note": 60, "velocity": 104, "channel": 0}, {"type": "note_on", "time": 92, "note": 63, "velocity": 116, "channel": 0}, {"type": "note_off", "time": 196, "note": 63, "velocity": 116, "channel": 0}, {"type": "note_on", "time": 16, "note": 61, "velocity": 113, "channel": 0}, {"type": "note_off", "time": 130, "note": 61, "velocity": 113, "channel": 0}, {"type": "note_on", "time": 27, "note": 56, "velocity": 106, "channel": 0}, {"type": "note_off", "time": 179, "note": 56, "velocity": 106, "channel": 0}, {"type": "note_on", "time": 32, "note": 53, "velocity": 103, "channel": 0}, {"type": "note_off", "time": 228, "note": 53, "velocity": 103, "channel": 0}, {"type": "note_on", "time": 5, "note": 59, "velocity": 91, "channel": 0}, {"type": "note_off", "time": 87, "note": 59, "velocity": 91, "channel": 0}, {"type": "note_on", "time": 5, "note": 60, "velocity": 83, "channel": 0}, {"type": "note_off", "time": 745, "note": 60, "velocity": 83, "channel": 0}, {"type": "note_on", "time": 1052, "note": 60, "velocity": 113, "channel": 0}, {"type": "note_off", "time": 190, "note": 60, "velocity": 113, "channel": 0}, {"type": "note_on", "time": 9, "note": 61, "velocity": 104, "channel": 0}, {"type": "note_off", "time": 96, "note": 61, "velocity": 104, "channel": 0}, {"type": "note_on", "time": 11, "note": 65, "velocity": 99, "channel": 0}, {"type": "note_off", "time": 49, "note": 65, "velocity": 99, "channel": 0}, {"type": "note_on", "time": 21, "note": 68, "velocity": 112, "channel": 0}, {"type": "note_off", "time": 87, "note": 68, "velocity": 112, "channel": 0}, {"type": "note_on", "time": 38, "note": 72, "velocity": 116, "channel": 0}, {"type": "note_off", "time": 130, "note": 72, "velocity": 116, "channel": 0}, {"type": "note_on", "time": 38, "note": 75, "velocity": 110, "channel": 0}, {"type": "note_off", "time": 141, "note": 75, "velocity": 110, "channel": 0}, {"type": "note_on", "time": 32, "note": 73, "velocity": 113, "channel": 0}, {"type": "note_off", "time": 196, "note": 73, "velocity": 113, "channel": 0}, {"type": "note_on", "time": 5, "note": 68, "velocity": 115, "channel": 0}, {"type": "note_off", "time": 185, "note": 68, "velocity": 115, "channel": 0}, {"type": "note_on", "time": 32, "note": 65, "velocity": 119, "channel": 0}, {"type": "note_off", "time": 201, "note": 65, "velocity": 119, "channel": 0}, {"type": "note_on", "time": 59, "note": 64, "velocity": 120, "channel": 0}, {"type": "note_off", "time": 261, "note": 64, "velocity": 120, "channel": 0}, {"type": "note_on", "time": 40, "note": 64, "velocity": 93, "channel": 0}, {"type": "note_off", "time": 2033, "note": 64, "velocity": 93, "channel": 0}, {"type": "note_on", "time": 32, "note": 67, "velocity": 102, "channel": 0}, {"type": "note_off", "time": 38, "note": 67, "velocity": 102, "channel": 0}, {"type": "note_on", "time": 16, "note": 70, "velocity": 111, "channel": 0}, {"type": "note_off", "time": 70, "note": 70, "velocity": 111, "channel": 0}, {"type": "note_on", "time": 10, "note": 71, "velocity": 112, "channel": 0}, {"type": "note_off", "time": 53, "note": 71, "velocity": 112, "channel": 0}, {"type": "note_on", "time": 5, "note": 73, "velocity": 110, "channel": 0}, {"type": "note_off", "time": 1272, "note": 73, "velocity": 110, "channel": 0}, {"type": "note_on", "time": 19, "note": 68, "velocity": 111, "channel": 0}, {"type": "note_off", "time": 201, "note": 68, "velocity": 111, "channel": 0}, {"type": "note_on", "time": 38, "note": 64, "velocity": 109, "channel": 0}, {"type": "note_off", "time": 637, "note": 64, "velocity": 109, "channel": 0}, {"type": "note_on", "time": 10, "note": 56, "velocity": 109, "channel": 0}, {"type": "note_off", "time": 299, "note": 56, "velocity": 109, "channel": 0}, {"type": "note_on", "time": 152, "note": 63, "velocity": 115, "channel": 0}, {"type": "note_off", "time": 266, "note": 63, "velocity": 115, "channel": 0}, {"type": "note_on", "time": 5, "note": 61, "velocity": 92, "channel": 0}, {"type": "note_off", "time": 500, "note": 61, "velocity": 92, "channel": 0}, {"type": "note_on", "time": 457, "note": 56, "velocity": 106, "channel": 0}, {"type": "note_off", "time": 212, "note": 56, "velocity": 106, "channel": 0}, {"type": "note_on", "time": 10, "note": 59, "velocity": 107, "channel": 0}, {"type": "note_off", "time": 136, "note": 59, "velocity": 107, "channel": 0}, {"type": "note_on", "time": 10, "note": 64, "velocity": 118, "channel": 0}, {"type": "note_off", "time": 190, "note": 64, "velocity": 118, "channel": 0}, {"type": "note_on", "time": 108, "note": 58, "velocity": 104, "channel": 0}, {"type": "note_off", "time": 201, "note": 58, "velocity": 104, "channel": 0}, {"type": "note_on", "time": 49, "note": 58, "velocity": 101, "channel": 0}, {"type": "note_off", "time": 283, "note": 58, "velocity": 101, "channel": 0}, {"type": "note_on", "time": 1726, "note": 51, "velocity": 102, "channel": 0}, {"type": "note_off", "time": 125, "note": 51, "velocity": 102, "channel": 0}, {"type": "note_on", "time": 27, "note": 54, "velocity": 117, "channel": 0}, {"type": "note_off", "time": 98, "note": 54, "velocity": 117, "channel": 0}, {"type": "note_on", "time": 21, "note": 51, "velocity": 88, "channel": 0}, {"type": "note_off", "time": 70, "note": 51, "velocity": 88, "channel": 0}, {"type": "note_on", "time": 54, "note": 54, "velocity": 118, "channel": 0}, {"type": "note_off", "time": 119, "note": 54, "velocity": 118, "channel": 0}, {"type": "note_on", "time": 16, "note": 58, "velocity": 112, "channel": 0}, {"type": "note_off", "time": 98, "note": 58, "velocity": 112, "channel": 0}, {"type": "note_on", "time": 16, "note": 54, "velocity": 107, "channel": 0}, {"type": "note_off", "time": 130, "note": 54, "velocity": 107, "channel": 0}, {"type": "note_on", "time": 16, "note": 58, "velocity": 107, "channel": 0}, {"type": "note_off", "time": 98, "note": 58, "velocity": 107, "channel": 0}, {"type": "note_on", "time": 32, "note": 61, "velocity": 118, "channel": 0}, {"type": "note_off", "time": 152, "note": 61, "velocity": 118, "channel": 0}, {"type": "note_on", "time": 5, "note": 58, "velocity": 99, "channel": 0}, {"type": "note_off", "time": 49, "note": 58, "velocity": 99, "channel": 0}, {"type": "note_on", "time": 27, "note": 61, "velocity": 118, "channel": 0}, {"type": "note_off", "time": 125, "note": 61, "velocity": 118, "channel": 0}, {"type": "note_on", "time": 27, "note": 65, "velocity": 112, "channel": 0}, {"type": "note_off", "time": 157, "note": 65, "velocity": 112, "channel": 0}, {"type": "note_on", "time": 31, "note": 61, "velocity": 107, "channel": 0}, {"type": "note_off", "time": 64, "note": 61, "velocity": 107, "channel": 0}, {"type": "note_on", "time": 12, "note": 65, "velocity": 117, "channel": 0}, {"type": "note_off", "time": 119, "note": 65, "velocity": 117, "channel": 0}, {"type": "note_on", "time": 49, "note": 68, "velocity": 109, "channel": 0}, {"type": "note_off", "time": 707, "note": 68, "velocity": 109, "channel": 0}, {"type": "note_on", "time": 321, "note": 68, "velocity": 111, "channel": 0}, {"type": "note_off", "time": 261, "note": 68, "velocity": 111, "channel": 0}, {"type": "note_on", "time": 5, "note": 67, "velocity": 110, "channel": 0}, {"type": "note_off", "time": 70, "note": 67, "velocity": 110, "channel": 0}, {"type": "note_on", "time": 38, "note": 66, "velocity": 107, "channel": 0}, {"type": "note_off", "time": 168, "note": 66, "velocity": 107, "channel": 0}, {"type": "note_on", "time": 0, "note": 65, "velocity": 115, "channel": 0}, {"type": "note_off", "time": 163, "note": 65, "velocity": 115, "channel": 0}, {"type": "note_on", "time": 65, "note": 63, "velocity": 122, "channel": 0}, {"type": "note_off", "time": 217, "note": 63, "velocity": 122, "channel": 0}, {"type": "note_on", "time": 21, "note": 62, "velocity": 114, "channel": 0}, {"type": "note_off", "time": 179, "note": 62, "velocity": 114, "channel": 0}, {"type": "note_on", "time": 10, "note": 63, "velocity": 119, "channel": 0}, {"type": "note_off", "time": 196, "note": 63, "velocity": 119, "channel": 0}, {"type": "note_on", "time": 38, "note": 70, "velocity": 114, "channel": 0}, {"type": "note_off", "time": 190, "note": 70, "velocity": 114, "channel": 0}, {"type": "note_on", "time": 14, "note": 68, "velocity": 114, "channel": 0}, {"type": "note_off", "time": 172, "note": 68, "velocity": 114, "channel": 0}, {"type": "note_on", "time": 20, "note": 65, "velocity": 116, "channel": 0}, {"type": "note_off", "time": 187, "note": 65, "velocity": 116, "channel": 0}, {"type": "note_on", "time": 42, "note": 61, "velocity": 116, "channel": 0}, {"type": "note_off", "time": 174, "note": 61, "velocity": 116, "channel": 0}, {"type": "note_on", "time": 16, "note": 60, "velocity": 108, "channel": 0}, {"type": "note_off", "time": 179, "note": 60, "velocity": 108, "channel": 0}, {"type": "note_on", "time": 19, "note": 61, "velocity": 114, "channel": 0}, {"type": "note_off", "time": 160, "note": 61, "velocity": 114, "channel": 0}, {"type": "note_on", "time": 23, "note": 65, "velocity": 113, "channel": 0}, {"type": "note_off", "time": 196, "note": 65, "velocity": 113, "channel": 0}, {"type": "note_on", "time": 27, "note": 68, "velocity": 113, "channel": 0}, {"type": "note_off", "time": 190, "note": 68, "velocity": 113, "channel": 0}, {"type": "note_on", "time": 16, "note": 64, "velocity": 106, "channel": 0}, {"type": "note_off", "time": 435, "note": 64, "velocity": 106, "channel": 0}, {"type": "note_on", "time": 10, "note": 66, "velocity": 103, "channel": 0}, {"type": "note_off", "time": 364, "note": 66, "velocity": 103, "channel": 0}, {"type": "note_on", "time": 27, "note": 68, "velocity": 104, "channel": 0}, {"type": "note_off", "time": 381, "note": 68, "velocity": 104, "channel": 0}, {"type": "note_on", "time": 21, "note": 64, "velocity": 102, "channel": 0}, {"type": "note_off", "time": 359, "note": 64, "velocity": 102, "channel": 0}, {"type": "note_on", "time": 319, "note": 69, "velocity": 115, "channel": 0}, {"type": "note_off", "time": 177, "note": 69, "velocity": 115, "channel": 0}, {"type": "note_on", "time": 10, "note": 71, "velocity": 110, "channel": 0}, {"type": "note_off", "time": 249, "note": 71, "velocity": 110, "channel": 0}, {"type": "note_on", "time": 53, "note": 74, "velocity": 108, "channel": 0}, {"type": "note_off", "time": 206, "note": 74, "velocity": 108, "channel": 0}, {"type": "note_on", "time": 92, "note": 73, "velocity": 108, "channel": 0}, {"type": "note_off", "time": 208, "note": 73, "velocity": 108, "channel": 0}, {"type": "note_on", "time": 21, "note": 71, "velocity": 115, "channel": 0}, {"type": "note_off", "time": 152, "note": 71, "velocity": 115, "channel": 0}, {"type": "note_on", "time": 14, "note": 69, "velocity": 103, "channel": 0}, {"type": "note_off", "time": 118, "note": 69, "velocity": 103, "channel": 0}, {"type": "note_on", "time": 8, "note": 71, "velocity": 103, "channel": 0}, {"type": "note_off", "time": 54, "note": 71, "velocity": 103, "channel": 0}, {"type": "note_on", "time": 10, "note": 68, "velocity": 87, "channel": 0}, {"type": "note_off", "time": 718, "note": 68, "velocity": 87, "channel": 0}, {"type": "note_on", "time": 402, "note": 65, "velocity": 117, "channel": 0}, {"type": "note_off", "time": 179, "note": 65, "velocity": 117, "channel": 0}, {"type": "note_on", "time": 10, "note": 66, "velocity": 122, "channel": 0}, {"type": "note_on", "time": 261, "note": 67, "velocity": 115, "channel": 0}, {"type": "note_off", "time": 0, "note": 66, "velocity": 122, "channel": 0}, {"type": "note_off", "time": 288, "note": 67, "velocity": 115, "channel": 0}, {"type": "note_on", "time": 10, "note": 68, "velocity": 105, "channel": 0}, {"type": "note_off", "time": 517, "note": 68, "velocity": 105, "channel": 0}, {"type": "note_on", "time": 8, "note": 65, "velocity": 115, "channel": 0}, {"type": "note_off", "time": 91, "note": 65, "velocity": 115, "channel": 0}, {"type": "note_on", "time": 16, "note": 61, "velocity": 113, "channel": 0}, {"type": "note_off", "time": 96, "note": 61, "velocity": 113, "channel": 0}, {"type": "note_on", "time": 4, "note": 60, "velocity": 112, "channel": 0}, {"type": "note_off", "time": 86, "note": 60, "velocity": 112, "channel": 0}, {"type": "note_on", "time": 4, "note": 61, "velocity": 113, "channel": 0}, {"type": "note_off", "time": 121, "note": 61, "velocity": 113, "channel": 0}, {"type": "note_on", "time": 21, "note": 68, "velocity": 111, "channel": 0}, {"type": "note_off", "time": 81, "note": 68, "velocity": 111, "channel": 0}, {"type": "note_on", "time": 25, "note": 72, "velocity": 103, "channel": 0}, {"type": "note_off", "time": 65, "note": 72, "velocity": 103, "channel": 0}, {"type": "note_on", "time": 12, "note": 75, "velocity": 98, "channel": 0}, {"type": "note_off", "time": 125, "note": 75, "velocity": 98, "channel": 0}, {"type": "note_on", "time": 10, "note": 72, "velocity": 80, "channel": 0}, {"type": "note_off", "time": 778, "note": 72, "velocity": 80, "channel": 0}, {"type": "note_on", "time": 424, "note": 70, "velocity": 117, "channel": 0}, {"type": "note_off", "time": 92, "note": 70, "velocity": 117, "channel": 0}, {"type": "note_on", "time": 16, "note": 73, "velocity": 101, "channel": 0}, {"type": "note_off", "time": 76, "note": 73, "velocity": 101, "channel": 0}, {"type": "note_on", "time": 5, "note": 70, "velocity": 103, "channel": 0}, {"type": "note_off", "time": 277, "note": 70, "velocity": 103, "channel": 0}, {"type": "note_on", "time": 315, "note": 66, "velocity": 114, "channel": 0}, {"type": "note_off", "time": 78, "note": 66, "velocity": 114, "channel": 0}, {"type": "note_on", "time": 11, "note": 68, "velocity": 112, "channel": 0}, {"type": "note_off", "time": 70, "note": 68, "velocity": 112, "channel": 0}, {"type": "note_on", "time": 19, "note": 72, "velocity": 100, "channel": 0}, {"type": "note_off", "time": 70, "note": 72, "velocity": 100, "channel": 0}, {"type": "note_on", "time": 16, "note": 68, "velocity": 97, "channel": 0}, {"type": "note_off", "time": 359, "note": 68, "velocity": 97, "channel": 0}, {"type": "note_on", "time": 494, "note": 68, "velocity": 116, "channel": 0}, {"type": "note_off", "time": 238, "note": 68, "velocity": 116, "channel": 0}, {"type": "note_on", "time": 60, "note": 68, "velocity": 119, "channel": 0}, {"type": "note_off", "time": 208, "note": 68, "velocity": 119, "channel": 0}, {"type": "note_on", "time": 91, "note": 71, "velocity": 106, "channel": 0}, {"type": "note_off", "time": 65, "note": 71, "velocity": 106, "channel": 0}, {"type": "note_on", "time": 27, "note": 72, "velocity": 114, "channel": 0}, {"type": "note_off", "time": 212, "note": 72, "velocity": 114, "channel": 0}, {"type": "note_on", "time": 48, "note": 72, "velocity": 108, "channel": 0}, {"type": "note_off", "time": 1008, "note": 72, "velocity": 108, "channel": 0}, {"type": "note_on", "time": 20, "note": 70, "velocity": 114, "channel": 0}, {"type": "note_off", "time": 196, "note": 70, "velocity": 114, "channel": 0}, {"type": "note_on", "time": 5, "note": 69, "velocity": 115, "channel": 0}, {"type": "note_off", "time": 179, "note": 69, "velocity": 115, "channel": 0}, {"type": "note_on", "time": 5, "note": 70, "velocity": 115, "channel": 0}, {"type": "note_off", "time": 190, "note": 70, "velocity": 115, "channel": 0}, {"type": "note_on", "time": 5, "note": 71, "velocity": 100, "channel": 0}, {"type": "note_off", "time": 61, "note": 71, "velocity": 100, "channel": 0}, {"type": "note_on", "time": 9, "note": 73, "velocity": 101, "channel": 0}, {"type": "note_off", "time": 217, "note": 73, "velocity": 101, "channel": 0}, {"type": "note_on", "time": 16, "note": 66, "velocity": 117, "channel": 0}, {"type": "note_off", "time": 255, "note": 66, "velocity": 117, "channel": 0}, {"type": "note_on", "time": 32, "note": 66, "velocity": 99, "channel": 0}, {"type": "note_off", "time": 3065, "note": 66, "velocity": 99, "channel": 0}, {"type": "note_on", "time": 262, "note": 63, "velocity": 121, "channel": 0}, {"type": "note_off", "time": 169, "note": 63, "velocity": 121, "channel": 0}, {"type": "note_on", "time": 19, "note": 65, "velocity": 125, "channel": 0}, {"type": "note_off", "time": 147, "note": 65, "velocity": 125, "channel": 0}, {"type": "note_on", "time": 12, "note": 66, "velocity": 121, "channel": 0}, {"type": "note_off", "time": 140, "note": 66, "velocity": 121, "channel": 0}, {"type": "note_on", "time": 7, "note": 68, "velocity": 105, "channel": 0}, {"type": "note_off", "time": 88, "note": 68, "velocity": 105, "channel": 0}, {"type": "note_on", "time": 24, "note": 70, "velocity": 113, "channel": 0}, {"type": "note_off", "time": 176, "note": 70, "velocity": 113, "channel": 0}, {"type": "note_on", "time": 37, "note": 73, "velocity": 109, "channel": 0}, {"type": "note_off", "time": 186, "note": 73, "velocity": 109, "channel": 0}, {"type": "note_on", "time": 169, "note": 70, "velocity": 109, "channel": 0}, {"type": "note_off", "time": 212, "note": 70, "velocity": 109, "channel": 0}, {"type": "note_on", "time": 16, "note": 66, "velocity": 118, "channel": 0}, {"type": "note_off", "time": 190, "note": 66, "velocity": 118, "channel": 0}, {"type": "note_on", "time": 27, "note": 72, "velocity": 97, "channel": 0}, {"type": "note_off", "time": 571, "note": 72, "velocity": 97, "channel": 0}, {"type": "note_on", "time": 59, "note": 70, "velocity": 114, "channel": 0}, {"type": "note_off", "time": 185, "note": 70, "velocity": 114, "channel": 0}, {"type": "note_on", "time": 0, "note": 68, "velocity": 115, "channel": 0}, {"type": "note_off", "time": 206, "note": 68, "velocity": 115, "channel": 0}, {"type": "note_on", "time": 21, "note": 65, "velocity": 99, "channel": 0}, {"type": "note_off", "time": 609, "note": 65, "velocity": 99, "channel": 0}, {"type": "note_on", "time": 288, "note": 56, "velocity": 120, "channel": 0}, {"type": "note_off", "time": 332, "note": 56, "velocity": 120, "channel": 0}, {"type": "note_on", "time": 43, "note": 58, "velocity": 113, "channel": 0}, {"type": "note_off", "time": 228, "note": 58, "velocity": 113, "channel": 0}, {"type": "note_on", "time": 34, "note": 59, "velocity": 95, "channel": 0}, {"type": "note_off", "time": 974, "note": 59, "velocity": 95, "channel": 0}, {"type": "note_on", "time": 58, "note": 61, "velocity": 119, "channel": 0}, {"type": "note_off", "time": 179, "note": 61, "velocity": 119, "channel": 0}, {"type": "note_on", "time": 27, "note": 63, "velocity": 120, "channel": 0}, {"type": "note_off", "time": 185, "note": 63, "velocity": 120, "channel": 0}, {"type": "note_on", "time": 10, "note": 66, "velocity": 117, "channel": 0}, {"type": "note_off", "time": 201, "note": 66, "velocity": 117, "channel": 0}, {"type": "note_on", "time": 32, "note": 65, "velocity": 98, "channel": 0}, {"type": "note_off", "time": 449, "note": 65, "velocity": 98, "channel": 0}, {"type": "note_on", "time": 612, "note": 65, "velocity": 125, "channel": 0}, {"type": "note_off", "time": 277, "note": 65, "velocity": 125, "channel": 0}, {"type": "note_on", "time": 0, "note": 66, "velocity": 127, "channel": 0}, {"type": "note_off", "time": 228, "note": 66, "velocity": 127, "channel": 0}, {"type": "note_on", "time": 21, "note": 68, "velocity": 117, "channel": 0}, {"type": "note_off", "time": 239, "note": 68, "velocity": 117, "channel": 0}, {"type": "note_on", "time": 32, "note": 70, "velocity": 107, "channel": 0}, {"type": "note_off", "time": 310, "note": 70, "velocity": 107, "channel": 0}, {"type": "note_on", "time": 272, "note": 65, "velocity": 121, "channel": 0}, {"type": "note_off", "time": 277, "note": 65, "velocity": 121, "channel": 0}, {"type": "note_on", "time": 54, "note": 66, "velocity": 107, "channel": 0}, {"type": "note_off", "time": 506, "note": 66, "velocity": 107, "channel": 0}, {"type": "note_on", "time": 27, "note": 63, "velocity": 99, "channel": 0}, {"type": "note_off", "time": 718, "note": 63, "velocity": 99, "channel": 0}, {"type": "note_on", "time": 532, "note": 64, "velocity": 9, "channel": 0}, {"type": "note_off", "time": 134, "note": 64, "velocity": 9, "channel": 0}, {"type": "note_on", "time": 16, "note": 65, "velocity": 122, "channel": 0}, {"type": "note_off", "time": 105, "note": 65, "velocity": 122, "channel": 0}, {"type": "note_on", "time": 11, "note": 68, "velocity": 122, "channel": 0}, {"type": "note_off", "time": 152, "note": 68, "velocity": 122, "channel": 0}, {"type": "note_on", "time": 22, "note": 65, "velocity": 125, "channel": 0}, {"type": "note_off", "time": 225, "note": 65, "velocity": 125, "channel": 0}, {"type": "note_on", "time": 13, "note": 61, "velocity": 125, "channel": 0}, {"type": "note_off", "time": 174, "note": 61, "velocity": 125, "channel": 0}, {"type": "note_on", "time": 5, "note": 58, "velocity": 109, "channel": 0}, {"type": "note_off", "time": 119, "note": 58, "velocity": 109, "channel": 0}, {"type": "note_on", "time": 10, "note": 57, "velocity": 109, "channel": 0}, {"type": "note_off", "time": 110, "note": 57, "velocity": 109, "channel": 0}, {"type": "note_on", "time": 7, "note": 56, "velocity": 116, "channel": 0}, {"type": "note_off", "time": 124, "note": 56, "velocity": 116, "channel": 0}, {"type": "note_on", "time": 7, "note": 55, "velocity": 116, "channel": 0}, {"type": "note_off", "time": 141, "note": 55, "velocity": 116, "channel": 0}, {"type": "note_on", "time": 49, "note": 58, "velocity": 99, "channel": 0}, {"type": "note_off", "time": 87, "note": 58, "velocity": 99, "channel": 0}, {"type": "note_on", "time": 10, "note": 61, "velocity": 126, "channel": 0}, {"type": "note_off", "time": 136, "note": 61, "velocity": 126, "channel": 0}, {"type": "note_on", "time": 0, "note": 64, "velocity": 116, "channel": 0}, {"type": "note_off", "time": 81, "note": 64, "velocity": 116, "channel": 0}, {"type": "note_on", "time": 10, "note": 65, "velocity": 120, "channel": 0}, {"type": "note_off", "time": 141, "note": 65, "velocity": 120, "channel": 0}, {"type": "note_on", "time": 5, "note": 64, "velocity": 117, "channel": 0}, {"type": "note_off", "time": 70, "note": 64, "velocity": 117, "channel": 0}, {"type": "note_on", "time": 16, "note": 65, "velocity": 117, "channel": 0}, {"type": "note_off", "time": 125, "note": 65, "velocity": 117, "channel": 0}, {"type": "note_on", "time": 38, "note": 64, "velocity": 114, "channel": 0}, {"type": "note_off", "time": 136, "note": 64, "velocity": 114, "channel": 0}, {"type": "note_on", "time": 21, "note": 65, "velocity": 118, "channel": 0}, {"type": "note_off", "time": 157, "note": 65, "velocity": 118, "channel": 0}, {"type": "note_on", "time": 39, "note": 60, "velocity": 110, "channel": 0}, {"type": "note_off", "time": 206, "note": 60, "velocity": 110, "channel": 0}, {"type": "note_on", "time": 21, "note": 60, "velocity": 115, "channel": 0}, {"type": "note_off", "time": 261, "note": 60, "velocity": 115, "channel": 0}, {"type": "note_on", "time": 21, "note": 60, "velocity": 109, "channel": 0}, {"type": "note_off", "time": 159, "note": 60, "velocity": 109, "channel": 0}, {"type": "note_on", "time": 23, "note": 57, "velocity": 116, "channel": 0}, {"type": "note_off", "time": 251, "note": 57, "velocity": 116, "channel": 0}, {"type": "note_on", "time": 28, "note": 57, "velocity": 113, "channel": 0}, {"type": "note_off", "time": 225, "note": 57, "velocity": 113, "channel": 0}, {"type": "note_on", "time": 35, "note": 57, "velocity": 109, "channel": 0}, {"type": "note_off", "time": 223, "note": 57, "velocity": 109, "channel": 0}, {"type": "note_on", "time": 52, "note": 53, "velocity": 113, "channel": 0}, {"type": "note_off", "time": 264, "note": 53, "velocity": 113, "channel": 0}, {"type": "note_on", "time": 43, "note": 53, "velocity": 106, "channel": 0}, {"type": "note_off", "time": 653, "note": 53, "velocity": 106, "channel": 0}, {"type": "end_of_track", "time": 0}]]}