{"ticks_per_beat": 192, "tracks": [[{"type": "track_name", "name": "Melody", "time": 0}, {"type": "set_tempo", "tempo": 233463, "time": 0}, {"type": "key_signature", "key": "F", "time": 0}, {"type": "time_signature", "numerator": 4, "denominator": 4, "clocks_per_click": 24, "notated_32nd_notes_per_beat": 8, "time": 0}, {"type": "note_on", "time": 3252, "note": 64, "velocity": 106, "channel": 0}, {"type": "note_off", "time": 117, "note": 64, "velocity": 106, "channel": 0}, {"type": "note_on", "time": 55, "note": 65, "velocity": 113, "channel": 0}, {"type": "note_off", "time": 102, "note": 65, "velocity": 113, "channel": 0}, {"type": "note_on", "time": 80, "note": 61, "velocity": 122, "channel": 0}, {"type": "note_off", "time": 70, "note": 61, "velocity": 122, "channel": 0}, {"type": "note_on", "time": 43, "note": 62, "velocity": 122, "channel": 0}, {"type": "note_off", "time": 429, "note": 62, "velocity": 122, "channel": 0}, {"type": "note_on", "time": 68, "note": 60, "velocity": 124, "channel": 0}, {"type": "note_off", "time": 268, "note": 60, "velocity": 124, "channel": 0}, {"type": "note_on", "time": 45, "note": 57, "velocity": 124, "channel": 0}, {"type": "note_off", "time": 83, "note": 57, "velocity": 124, "channel": 0}, {"type": "note_on", "time": 13, "note": 53, "velocity": 122, "channel": 0}, {"type": "note_off", "time": 99, "note": 53, "velocity": 122, "channel": 0}, {"type": "note_on", "time": 126, "note": 50, "velocity": 111, "channel": 0}, {"type": "note_off", "time": 124, "note": 50, "velocity": 111, "channel": 0}, {"type": "note_on", "time": 56, "note": 48, "velocity": 117, "channel": 0}, {"type": "note_off", "time": 288, "note": 48, "velocity": 117, "channel": 0}, {"type": "note_on", "time": 510, "note": 52, "velocity": 120, "channel": 0}, {"type": "note_off", "time": 102, "note": 52, "velocity": 120, "channel": 0}, {"type": "note_on", "time": 5, "note": 54, "velocity": 114, "channel": 0}, {"type": "note_off", "time": 93, "note": 54, "velocity": 114, "channel": 0}, {"type": "note_on", "time": 30, "note": 55, "velocity": 117, "channel": 0}, {"type": "note_off", "time": 78, "note": 55, "velocity": 117, "channel": 0}, {"type": "note_on", "time": 13, "note": 57, "velocity": 112, "channel": 0}, {"type": "note_off", "time": 87, "note": 57, "velocity": 112, "channel": 0}, {"type": "note_on", "time": 26, "note": 60, "velocity": 114, "channel": 0}, {"type": "note_off", "time": 72, "note": 60, "velocity": 114, "channel": 0}, {"type": "note_on", "time": 30, "note": 60, "velocity": 114, "channel": 0}, {"type": "note_off", "time": 80, "note": 60, "velocity": 114, "channel": 0}, {"type": "note_on", "time": 5, "note": 57, "velocity": 119, "channel": 0}, {"type": "note_off", "time": 83, "note": 57, "velocity": 119, "channel": 0}, {"type": "note_on", "time": 3, "note": 58, "velocity": 116, "channel": 0}, {"type": "note_off", "time": 72, "note": 58, "velocity": 116, "channel": 0}, {"type": "note_on", "time": 43, "note": 55, "velocity": 115, "channel": 0}, {"type": "note_off", "time": 80, "note": 55, "velocity": 115, "channel": 0}, {"type": "note_on", "time": 0, "note": 57, "velocity": 117, "channel": 0}, {"type": "note_off", "time": 67, "note": 57, "velocity": 117, "channel": 0}, {"type": "note_on", "time": 40, "note": 55, "velocity": 118, "channel": 0}, {"type": "note_off", "time": 90, "note": 55, "velocity": 118, "channel": 0}, {"type": "note_on", "time": 3, "note": 54, "velocity": 109, "channel": 0}, {"type": "note_off", "time": 107, "note": 54, "velocity": 109, "channel": 0}, {"type": "note_on", "time": 16, "note": 58, "velocity": 113, "channel": 0}, {"type": "note_off", "time": 82, "note": 58, "velocity": 113, "channel": 0}, {"type": "note_on", "time": 5, "note": 60, "velocity": 105, "channel": 0}, {"type": "note_off", "time": 72, "note": 60, "velocity": 105, "channel": 0}, {"type": "note_on", "time": 6, "note": 63, "velocity": 109, "channel": 0}, {"type": "note_off", "time": 104, "note": 63, "velocity": 109, "channel": 0}, {"type": "note_on", "time": 13, "note": 60, "velocity": 108, "channel": 0}, {"type": "note_off", "time": 87, "note": 60, "velocity": 108, "channel": 0}, {"type": "note_on", "time": 11, "note": 61, "velocity": 119, "channel": 0}, {"type": "note_off", "time": 67, "note": 61, "velocity": 119, "channel": 0}, {"type": "note_on", "time": 10, "note": 62, "velocity": 109, "channel": 0}, {"type": "note_off", "time": 93, "note": 62, "velocity": 109, "channel": 0}, {"type": "note_on", "time": 18, "note": 57, "velocity": 112, "channel": 0}, {"type": "note_off", "time": 88, "note": 57, "velocity": 112, "channel": 0}, {"type": "note_on", "time": 10, "note": 60, "velocity": 100, "channel": 0}, {"type": "note_off", "time": 100, "note": 60, "velocity": 100, "channel": 0}, {"type": "note_on", "time": 52, "note": 60, "velocity": 115, "channel": 0}, {"type": "note_off", "time": 204, "note": 60, "velocity": 115, "channel": 0}, {"type": "note_on", "time": 43, "note": 60, "velocity": 116, "channel": 0}, {"type": "note_off", "time": 82, "note": 60, "velocity": 116, "channel": 0}, {"type": "note_on", "time": 26, "note": 60, "velocity": 114, "channel": 0}, {"type": "note_off", "time": 166, "note": 60, "velocity": 114, "channel": 0}, {"type": "note_on", "time": 20, "note": 62, "velocity": 114, "channel": 0}, {"type": "note_off", "time": 36, "note": 62, "velocity": 114, "channel": 0}, {"type": "note_on", "time": 10, "note": 64, "velocity": 116, "channel": 0}, {"type": "note_off", "time": 43, "note": 64, "velocity": 116, "channel": 0}, {"type": "note_on", "time": 18, "note": 65, "velocity": 98, "channel": 0}, {"type": "note_off", "time": 88, "note": 65, "velocity": 98, "channel": 0}, {"type": "note_on", "time": 147, "note": 53, "velocity": 119, "channel": 0}, {"type": "note_off", "time": 75, "note": 53, "velocity": 119, "channel": 0}, {"type": "note_on", "time": 20, "note": 58, "velocity": 117, "channel": 0}, {"type": "note_off", "time": 117, "note": 58, "velocity": 117, "channel": 0}, {"type": "note_on", "time": 48, "note": 58, "velocity": 114, "channel": 0}, {"type": "note_off", "time": 129, "note": 58, "velocity": 114, "channel": 0}, {"type": "note_on", "time": 20, "note": 55, "velocity": 116, "channel": 0}, {"type": "note_off", "time": 83, "note": 55, "velocity": 116, "channel": 0}, {"type": "note_on", "time": 119, "note": 66, "velocity": 109, "channel": 0}, {"type": "note_off", "time": 99, "note": 66, "velocity": 109, "channel": 0}, {"type": "note_on", "time": 164, "note": 65, "velocity": 112, "channel": 0}, {"type": "note_off", "time": 181, "note": 65, "velocity": 112, "channel": 0}, {"type": "note_on", "time": 15, "note": 62, "velocity": 111, "channel": 0}, {"type": "note_off", "time": 125, "note": 62, "velocity": 111, "channel": 0}, {"type": "note_on", "time": 60, "note": 65, "velocity": 122, "channel": 0}, {"type": "note_off", "time": 224, "note": 65, "velocity": 122, "channel": 0}, {"type": "note_on", "time": 95, "note": 68, "velocity": 117, "channel": 0}, {"type": "note_off", "time": 80, "note": 68, "velocity": 117, "channel": 0}, {"type": "note_on", "time": 5, "note": 69, "velocity": 117, "channel": 0}, {"type": "note_off", "time": 58, "note": 69, "velocity": 117, "channel": 0}, {"type": "note_on", "time": 16, "note": 70, "velocity": 117, "channel": 0}, {"type": "note_off", "time": 80, "note": 70, "velocity": 117, "channel": 0}, {"type": "note_on", "time": 468, "note": 69, "velocity": 104, "channel": 0}, {"type": "note_off", "time": 57, "note": 69, "velocity": 104, "channel": 0}, {"type": "note_on", "time": 18, "note": 70, "velocity": 112, "channel": 0}, {"type": "note_off", "time": 1299, "note": 70, "velocity": 112, "channel": 0}, {"type": "note_on", "time": 26, "note": 69, "velocity": 114, "channel": 0}, {"type": "note_off", "time": 107, "note": 69, "velocity": 114, "channel": 0}, {"type": "note_on", "time": 124, "note": 67, "velocity": 112, "channel": 0}, {"type": "note_off", "time": 120, "note": 67, "velocity": 112, "channel": 0}, {"type": "note_on", "time": 223, "note": 65, "velocity": 116, "channel": 0}, {"type": "note_off", "time": 127, "note": 65, "velocity": 116, "channel": 0}, {"type": "note_on", "time": 16, "note": 64, "velocity": 110, "channel": 0}, {"type": "note_off", "time": 115, "note": 64, "velocity": 110, "channel": 0}, {"type": "note_on", "time": 16, "note": 64, "velocity": 122, "channel": 0}, {"type": "note_off", "time": 379, "note": 64, "velocity": 122, "channel": 0}, {"type": "note_on", "time": 52, "note": 62, "velocity": 124, "channel": 0}, {"type": "note_off", "time": 90, "note": 62, "velocity": 124, "channel": 0}, {"type": "note_on", "time": 5, "note": 61, "velocity": 121, "channel": 0}, {"type": "note_off", "time": 110, "note": 61, "velocity": 121, "channel": 0}, {"type": "note_on", "time": 1, "note": 64, "velocity": 116, "channel": 0}, {"type": "note_off", "time": 65, "note": 64, "velocity": 116, "channel": 0}, {"type": "note_on", "time": 20, "note": 59, "velocity": 121, "channel": 0}, {"type": "note_off", "time": 88, "note": 59, "velocity": 121, "channel": 0}, {"type": "note_on", "time": 9, "note": 52, "velocity": 113, "channel": 0}, {"type": "note_off", "time": 73, "note": 52, "velocity": 113, "channel": 0}, {"type": "note_on", "time": 32, "note": 57, "velocity": 123, "channel": 0}, {"type": "note_off", "time": 84, "note": 57, "velocity": 123, "channel": 0}, {"type": "note_on", "time": 26, "note": 60, "velocity": 115, "channel": 0}, {"type": "note_off", "time": 84, "note": 60, "velocity": 115, "channel": 0}, {"type": "note_on", "time": 4, "note": 61, "velocity": 117, "channel": 0}, {"type": "note_off", "time": 78, "note": 61, "velocity": 117, "channel": 0}, {"type": "note_on", "time": 16, "note": 65, "velocity": 115, "channel": 0}, {"type": "note_off", "time": 76, "note": 65, "velocity": 115, "channel": 0}, {"type": "note_on", "time": 20, "note": 60, "velocity": 94, "channel": 0}, {"type": "note_off", "time": 130, "note": 60, "velocity": 94, "channel": 0}, {"type": "note_on", "time": 217, "note": 60, "velocity": 118, "channel": 0}, {"type": "note_off", "time": 82, "note": 60, "velocity": 118, "channel": 0}, {"type": "note_on", "time": 13, "note": 62, "velocity": 114, "channel": 0}, {"type": "note_off", "time": 83, "note": 62, "velocity": 114, "channel": 0}, {"type": "note_on", "time": 25, "note": 64, "velocity": 107, "channel": 0}, {"type": "note_off", "time": 68, "note": 64, "velocity": 107, "channel": 0}, {"type": "note_on", "time": 3, "note": 67, "velocity": 109, "channel": 0}, {"type": "note_off", "time": 92, "note": 67, "velocity": 109, "channel": 0}, {"type": "note_on", "time": 9, "note": 66, "velocity": 107, "channel": 0}, {"type": "note_off", "time": 73, "note": 66, "velocity": 107, "channel": 0}, {"type": "note_on", "time": 28, "note": 62, "velocity": 117, "channel": 0}, {"type": "note_off", "time": 71, "note": 62, "velocity": 117, "channel": 0}, {"type": "note_on", "time": 23, "note": 65, "velocity": 114, "channel": 0}, {"type": "note_off", "time": 68, "note": 65, "velocity": 114, "channel": 0}, {"type": "note_on", "time": 32, "note": 62, "velocity": 114, "channel": 0}, {"type": "note_off", "time": 77, "note": 62, "velocity": 114, "channel": 0}, {"type": "note_on", "time": 20, "note": 58, "velocity": 120, "channel": 0}, {"type": "note_off", "time": 79, "note": 58, "velocity": 120, "channel": 0}, {"type": "note_on", "time": 15, "note": 53, "velocity": 117, "channel": 0}, {"type": "note_off", "time": 57, "note": 53, "velocity": 117, "channel": 0}, {"type": "note_on", "time": 19, "note": 64, "velocity": 119, "channel": 0}, {"type": "note_off", "time": 81, "note": 64, "velocity": 119, "channel": 0}, {"type": "note_on", "time": 4, "note": 63, "velocity": 111, "channel": 0}, {"type": "note_off", "time": 66, "note": 63, "velocity": 111, "channel": 0}, {"type": "note_on", "time": 21, "note": 62, "velocity": 122, "channel": 0}, {"type": "note_off", "time": 78, "note": 62, "velocity": 122, "channel": 0}, {"type": "note_on", "time": 31, "note": 61, "velocity": 117, "channel": 0}, {"type": "note_off", "time": 87, "note": 61, "velocity": 117, "channel": 0}, {"type": "note_on", "time": 13, "note": 60, "velocity": 117, "channel": 0}, {"type": "note_off", "time": 63, "note": 60, "velocity": 117, "channel": 0}, {"type": "note_on", "time": 17, "note": 57, "velocity": 117, "channel": 0}, {"type": "note_off", "time": 66, "note": 57, "velocity": 117, "channel": 0}, {"type": "note_on", "time": 21, "note": 58, "velocity": 121, "channel": 0}, {"type": "note_off", "time": 70, "note": 58, "velocity": 121, "channel": 0}, {"type": "note_on", "time": 14, "note": 61, "velocity": 114, "channel": 0}, {"type": "note_off", "time": 39, "note": 61, "velocity": 114, "channel": 0}, {"type": "note_on", "time": 27, "note": 58, "velocity": 115, "channel": 0}, {"type": "note_off", "time": 101, "note": 58, "velocity": 115, "channel": 0}, {"type": "note_on", "time": 35, "note": 55, "velocity": 116, "channel": 0}, {"type": "note_off", "time": 105, "note": 55, "velocity": 116, "channel": 0}, {"type": "note_on", "time": 15, "note": 53, "velocity": 113, "channel": 0}, {"type": "note_off", "time": 312, "note": 53, "velocity": 113, "channel": 0}, {"type": "note_on", "time": 90, "note": 52, "velocity": 116, "channel": 0}, {"type": "note_off", "time": 70, "note": 52, "velocity": 116, "channel": 0}, {"type": "note_on", "time": 9, "note": 55, "velocity": 117, "channel": 0}, {"type": "note_off", "time": 58, "note": 55, "velocity": 117, "channel": 0}, {"type": "note_on", "time": 10, "note": 57, "velocity": 116, "channel": 0}, {"type": "note_off", "time": 77, "note": 57, "velocity": 116, "channel": 0}, {"type": "note_on", "time": 26, "note": 61, "velocity": 116, "channel": 0}, {"type": "note_off", "time": 90, "note": 61, "velocity": 116, "channel": 0}, {"type": "note_on", "time": 19, "note": 64, "velocity": 115, "channel": 0}, {"type": "note_off", "time": 53, "note": 64, "velocity": 115, "channel": 0}, {"type": "note_on", "time": 41, "note": 64, "velocity": 118, "channel": 0}, {"type": "note_off", "time": 62, "note": 64, "velocity": 118, "channel": 0}, {"type": "note_on", "time": 3, "note": 62, "velocity": 118, "channel": 0}, {"type": "note_off", "time": 69, "note": 62, "velocity": 118, "channel": 0}, {"type": "note_on", "time": 13, "note": 61, "velocity": 113, "channel": 0}, {"type": "note_off", "time": 85, "note": 61, "velocity": 113, "channel": 0}, {"type": "note_on", "time": 32, "note": 60, "velocity": 115, "channel": 0}, {"type": "note_off", "time": 71, "note": 60, "velocity": 115, "channel": 0}, {"type": "note_on", "time": 25, "note": 57, "velocity": 121, "channel": 0}, {"type": "note_off", "time": 81, "note": 57, "velocity": 121, "channel": 0}, {"type": "note_on", "time": 9, "note": 58, "velocity": 119, "channel": 0}, {"type": "note_off", "time": 70, "note": 58, "velocity": 119, "channel": 0}, {"type": "note_on", "time": 15, "note": 61, "velocity": 115, "channel": 0}, {"type": "note_off", "time": 46, "note": 61, "velocity": 115, "channel": 0}, {"type": "note_on", "time": 3, "note": 60, "velocity": 119, "channel": 0}, {"type": "note_off", "time": 25, "note": 60, "velocity": 119, "channel": 0}, {"type": "note_on", "time": 39, "note": 57, "velocity": 110, "channel": 0}, {"type": "note_off", "time": 125, "note": 57, "velocity": 110, "channel": 0}, {"type": "note_on", "time": 88, "note": 54, "velocity": 111, "channel": 0}, {"type": "note_off", "time": 66, "note": 54, "velocity": 111, "channel": 0}, {"type": "note_on", "time": 36, "note": 57, "velocity": 115, "channel": 0}, {"type": "note_off", "time": 71, "note": 57, "velocity": 115, "channel": 0}, {"type": "note_on", "time": 9, "note": 60, "velocity": 119, "channel": 0}, {"type": "note_off", "time": 66, "note": 60, "velocity": 119, "channel": 0}, {"type": "note_on", "time": 25, "note": 65, "velocity": 111, "channel": 0}, {"type": "note_off", "time": 65, "note": 65, "velocity": 111, "channel": 0}, {"type": "note_on", "time": 10, "note": 60, "velocity": 108, "channel": 0}, {"type": "note_off", "time": 79, "note": 60, "velocity": 108, "channel": 0}, {"type": "note_on", "time": 36, "note": 61, "velocity": 119, "channel": 0}, {"type": "note_off", "time": 71, "note": 61, "velocity": 119, "channel": 0}, {"type": "note_on", "time": 7, "note": 62, "velocity": 117, "channel": 0}, {"type": "note_off", "time": 83, "note": 62, "velocity": 117, "channel": 0}, {"type": "note_on", "time": 15, "note": 58, "velocity": 119, "channel": 0}, {"type": "note_off", "time": 90, "note": 58, "velocity": 119, "channel": 0}, {"type": "note_on", "time": 4, "note": 57, "velocity": 116, "channel": 0}, {"type": "note_off", "time": 83, "note": 57, "velocity": 116, "channel": 0}, {"type": "note_on", "time": 26, "note": 60, "velocity": 105, "channel": 0}, {"type": "note_off", "time": 248, "note": 60, "velocity": 105, "channel": 0}, {"type": "note_on", "time": 414, "note": 72, "velocity": 112, "channel": 0}, {"type": "note_off", "time": 89, "note": 72, "velocity": 112, "channel": 0}, {"type": "note_on", "time": 58, "note": 70, "velocity": 110, "channel": 0}, {"type": "note_off", "time": 77, "note": 70, "velocity": 110, "channel": 0}, {"type": "note_on", "time": 75, "note": 62, "velocity": 104, "channel": 0}, {"type": "note_off", "time": 68, "note": 62, "velocity": 104, "channel": 0}, {"type": "note_on", "time": 11, "note": 66, "velocity": 108, "channel": 0}, {"type": "note_off", "time": 82, "note": 66, "velocity": 108, "channel": 0}, {"type": "note_on", "time": 66, "note": 71, "velocity": 101, "channel": 0}, {"type": "note_off", "time": 91, "note": 71, "velocity": 101, "channel": 0}, {"type": "note_on", "time": 77, "note": 67, "velocity": 111, "channel": 0}, {"type": "note_off", "time": 95, "note": 67, "velocity": 111, "channel": 0}, {"type": "note_on", "time": 99, "note": 65, "velocity": 115, "channel": 0}, {"type": "note_off", "time": 79, "note": 65, "velocity": 115, "channel": 0}, {"type": "note_on", "time": 9, "note": 64, "velocity": 122, "channel": 0}, {"type": "note_off", "time": 82, "note": 64, "velocity": 122, "channel": 0}, {"type": "note_on", "time": 14, "note": 62, "velocity": 119, "channel": 0}, {"type": "note_off", "time": 72, "note": 62, "velocity": 119, "channel": 0}, {"type": "note_on", "time": 10, "note": 60, "velocity": 116, "channel": 0}, {"type": "note_off", "time": 85, "note": 60, "velocity": 116, "channel": 0}, {"type": "note_on", "time": 11, "note": 58, "velocity": 123, "channel": 0}, {"type": "note_off", "time": 72, "note": 58, "velocity": 123, "channel": 0}, {"type": "note_on", "time": 17, "note": 57, "velocity": 117, "channel": 0}, {"type": "note_off", "time": 79, "note": 57, "velocity": 117, "channel": 0}, {"type": "note_on", "time": 42, "note": 60, "velocity": 118, "channel": 0}, {"type": "note_off", "time": 66, "note": 60, "velocity": 118, "channel": 0}, {"type": "note_on", "time": 23, "note": 64, "velocity": 108, "channel": 0}, {"type": "note_off", "time": 72, "note": 64, "velocity": 108, "channel": 0}, {"type": "note_on", "time": 11, "note": 67, "velocity": 109, "channel": 0}, {"type": "note_off", "time": 130, "note": 67, "velocity": 109, "channel": 0}, {"type": "note_on", "time": 57, "note": 67, "velocity": 101, "channel": 0}, {"type": "note_off", "time": 116, "note": 67, "velocity": 101, "channel": 0}, {"type": "note_on", "time": 82, "note": 65, "velocity": 112, "channel": 0}, {"type": "note_off", "time": 96, "note": 65, "velocity": 112, "channel": 0}, {"type": "note_on", "time": 110, "note": 62, "velocity": 115, "channel": 0}, {"type": "note_off", "time": 105, "note": 62, "velocity": 115, "channel": 0}, {"type": "note_on", "time": 58, "note": 65, "velocity": 109, "channel": 0}, {"type": "note_off", "time": 72, "note": 65, "velocity": 109, "channel": 0}, {"type": "note_on", "time": 35, "note": 59, "velocity": 112, "channel": 0}, {"type": "note_off", "time": 131, "note": 59, "velocity": 112, "channel": 0}, {"type": "note_on", "time": 51, "note": 62, "velocity": 109, "channel": 0}, {"type": "note_off", "time": 82, "note": 62, "velocity": 109, "channel": 0}, {"type": "note_on", "time": 20, "note": 59, "velocity": 108, "channel": 0}, {"type": "note_off", "time": 79, "note": 59, "velocity": 108, "channel": 0}, {"type": "note_on", "time": 0, "note": 60, "velocity": 114, "channel": 0}, {"type": "note_off", "time": 94, "note": 60, "velocity": 114, "channel": 0}, {"type": "note_on", "time": 16, "note": 57, "velocity": 116, "channel": 0}, {"type": "note_off", "time": 69, "note": 57, "velocity": 116, "channel": 0}, {"type": "note_on", "time": 23, "note": 53, "velocity": 121, "channel": 0}, {"type": "note_off", "time": 109, "note": 53, "velocity": 121, "channel": 0}, {"type": "note_on", "time": 100, "note": 56, "velocity": 123, "channel": 0}, {"type": "note_off", "time": 77, "note": 56, "velocity": 123, "channel": 0}, {"type": "note_on", "time": 10, "note": 57, "velocity": 122, "channel": 0}, {"type": "note_off", "time": 68, "note": 57, "velocity": 122, "channel": 0}, {"type": "note_on", "time": 8, "note": 58, "velocity": 119, "channel": 0}, {"type": "note_off", "time": 379, "note": 58, "velocity": 119, "channel": 0}, {"type": "note_on", "time": 16, "note": 56, "velocity": 119, "channel": 0}, {"type": "note_off", "time": 95, "note": 56, "velocity": 119, "channel": 0}, {"type": "note_on", "time": 30, "note": 54, "velocity": 119, "channel": 0}, {"type": "note_off", "time": 82, "note": 54, "velocity": 119, "channel": 0}, {"type": "note_on", "time": 85, "note": 64, "velocity": 106, "channel": 0}, {"type": "note_off", "time": 95, "note": 64, "velocity": 106, "channel": 0}, {"type": "note_on", "time": 106, "note": 61, "velocity": 116, "channel": 0}, {"type": "note_off", "time": 69, "note": 61, "velocity": 116, "channel": 0}, {"type": "note_on", "time": 7, "note": 62, "velocity": 115, "channel": 0}, {"type": "note_off", "time": 88, "note": 62, "velocity": 115, "channel": 0}, {"type": "note_on", "time": 12, "note": 58, "velocity": 117, "channel": 0}, {"type": "note_off", "time": 82, "note": 58, "velocity": 117, "channel": 0}, {"type": "note_on", "time": 16, "note": 58, "velocity": 118, "channel": 0}, {"type": "note_off", "time": 67, "note": 58, "velocity": 118, "channel": 0}, {"type": "note_on", "time": 28, "note": 58, "velocity": 115, "channel": 0}, {"type": "note_off", "time": 72, "note": 58, "velocity": 115, "channel": 0}, {"type": "note_on", "time": 28, "note": 58, "velocity": 122, "channel": 0}, {"type": "note_off", "time": 60, "note": 58, "velocity": 122, "channel": 0}, {"type": "note_on", "time": 36, "note": 58, "velocity": 117, "channel": 0}, {"type": "note_off", "time": 68, "note": 58, "velocity": 117, "channel": 0}, {"type": "note_on", "time": 15, "note": 58, "velocity": 122, "channel": 0}, {"type": "note_off", "time": 75, "note": 58, "velocity": 122, "channel": 0}, {"type": "note_on", "time": 23, "note": 57, "velocity": 119, "channel": 0}, {"type": "note_off", "time": 67, "note": 57, "velocity": 119, "channel": 0}, {"type": "note_on", "time": 36, "note": 59, "velocity": 115, "channel": 0}, {"type": "note_off", "time": 70, "note": 59, "velocity": 115, "channel": 0}, {"type": "note_on", "time": 6, "note": 60, "velocity": 102, "channel": 0}, {"type": "note_off", "time": 82, "note": 60, "velocity": 102, "channel": 0}, {"type": "note_on", "time": 30, "note": 59, "velocity": 121, "channel": 0}, {"type": "note_off", "time": 72, "note": 59, "velocity": 121, "channel": 0}, {"type": "note_on", "time": 0, "note": 60, "velocity": 112, "channel": 0}, {"type": "note_off", "time": 87, "note": 60, "velocity": 112, "channel": 0}, {"type": "note_on", "time": 747, "note": 60, "velocity": 118, "channel": 0}, {"type": "note_off", "time": 60, "note": 60, "velocity": 118, "channel": 0}, {"type": "note_on", "time": 14, "note": 62, "velocity": 116, "channel": 0}, {"type": "note_off", "time": 63, "note": 62, "velocity": 116, "channel": 0}, {"type": "note_on", "time": 29, "note": 65, "velocity": 122, "channel": 0}, {"type": "note_off", "time": 76, "note": 65, "velocity": 122, "channel": 0}, {"type": "note_on", "time": 13, "note": 64, "velocity": 105, "channel": 0}, {"type": "note_off", "time": 41, "note": 64, "velocity": 105, "channel": 0}, {"type": "note_on", "time": 852, "note": 72, "velocity": 105, "channel": 0}, {"type": "note_off", "time": 38, "note": 72, "velocity": 105, "channel": 0}, {"type": "note_on", "time": 3, "note": 73, "velocity": 108, "channel": 0}, {"type": "note_off", "time": 21, "note": 73, "velocity": 108, "channel": 0}, {"type": "note_on", "time": 10, "note": 74, "velocity": 114, "channel": 0}, {"type": "note_off", "time": 297, "note": 74, "velocity": 114, "channel": 0}, {"type": "note_on", "time": 63, "note": 72, "velocity": 112, "channel": 0}, {"type": "note_off", "time": 87, "note": 72, "velocity": 112, "channel": 0}, {"type": "note_on", "time": 613, "note": 70, "velocity": 107, "channel": 0}, {"type": "note_off", "time": 96, "note": 70, "velocity": 107, "channel": 0}, {"type": "note_on", "time": 69, "note": 69, "velocity": 103, "channel": 0}, {"type": "note_off", "time": 75, "note": 69, "velocity": 103, "channel": 0}, {"type": "note_on", "time": 96, "note": 65, "velocity": 112, "channel": 0}, {"type": "note_off", "time": 70, "note": 65, "velocity": 112, "channel": 0}, {"type": "note_on", "time": 65, "note": 60, "velocity": 110, "channel": 0}, {"type": "note_off", "time": 110, "note": 60, "velocity": 110, "channel": 0}, {"type": "note_on", "time": 33, "note": 60, "velocity": 109, "channel": 0}, {"type": "note_off", "time": 130, "note": 60, "velocity": 109, "channel": 0}, {"type": "note_on", "time": 32, "note": 60, "velocity": 111, "channel": 0}, {"type": "note_off", "time": 143, "note": 60, "velocity": 111, "channel": 0}, {"type": "note_on", "time": 28, "note": 60, "velocity": 110, "channel": 0}, {"type": "note_off", "time": 91, "note": 60, "velocity": 110, "channel": 0}, {"type": "note_on", "time": 10, "note": 59, "velocity": 104, "channel": 0}, {"type": "note_off", "time": 23, "note": 59, "velocity": 104, "channel": 0}, {"type": "note_on", "time": 670, "note": 62, "velocity": 118, "channel": 0}, {"type": "note_off", "time": 41, "note": 62, "velocity": 118, "channel": 0}, {"type": "note_on", "time": 3, "note": 63, "velocity": 115, "channel": 0}, {"type": "note_off", "time": 54, "note": 63, "velocity": 115, "channel": 0}, {"type": "note_on", "time": 115, "note": 64, "velocity": 117, "channel": 0}, {"type": "note_off", "time": 42, "note": 64, "velocity": 117, "channel": 0}, {"type": "note_on", "time": 4, "note": 65, "velocity": 114, "channel": 0}, {"type": "note_off", "time": 291, "note": 65, "velocity": 114, "channel": 0}, {"type": "note_on", "time": 25, "note": 62, "velocity": 112, "channel": 0}, {"type": "note_off", "time": 100, "note": 62, "velocity": 112, "channel": 0}, {"type": "note_on", "time": 7, "note": 61, "velocity": 106, "channel": 0}, {"type": "note_off", "time": 17, "note": 61, "velocity": 106, "channel": 0}, {"type": "note_on", "time": 488, "note": 62, "velocity": 105, "channel": 0}, {"type": "note_off", "time": 75, "note": 62, "velocity": 105, "channel": 0}, {"type": "note_on", "time": 54, "note": 68, "velocity": 109, "channel": 0}, {"type": "note_off", "time": 85, "note": 68, "velocity": 109, "channel": 0}, {"type": "note_on", "time": 119, "note": 65, "velocity": 114, "channel": 0}, {"type": "note_off", "time": 83, "note": 65, "velocity": 114, "channel": 0}, {"type": "note_on", "time": 163, "note": 65, "velocity": 116, "channel": 0}, {"type": "note_off", "time": 124, "note": 65, "velocity": 116, "channel": 0}, {"type": "note_on", "time": 48, "note": 65, "velocity": 117, "channel": 0}, {"type": "note_off", "time": 132, "note": 65, "velocity": 117, "channel": 0}, {"type": "note_on", "time": 88, "note": 59, "velocity": 116, "channel": 0}, {"type": "note_off", "time": 53, "note": 59, "velocity": 116, "channel": 0}, {"type": "note_on", "time": 2, "note": 60, "velocity": 117, "channel": 0}, {"type": "note_off", "time": 87, "note": 60, "velocity": 117, "channel": 0}, {"type": "note_on", "time": 2, "note": 59, "velocity": 114, "channel": 0}, {"type": "note_off", "time": 19, "note": 59, "velocity": 114, "channel": 0}, {"type": "note_on", "time": 9, "note": 58, "velocity": 110, "channel": 0}, {"type": "note_off", "time": 22, "note": 58, "velocity": 110, "channel": 0}, {"type": "note_on", "time": 449, "note": 59, "velocity": 116, "channel": 0}, {"type": "note_off", "time": 70, "note": 59, "velocity": 116, "channel": 0}, {"type": "note_on", "time": 9, "note": 58, "velocity": 117, "channel": 0}, {"type": "note_off", "time": 126, "note": 58, "velocity": 117, "channel": 0}, {"type": "note_on", "time": 8, "note": 59, "velocity": 120, "channel": 0}, {"type": "note_off", "time": 54, "note": 59, "velocity": 120, "channel": 0}, {"type": "note_on", "time": 14, "note": 56, "velocity": 117, "channel": 0}, {"type": "note_off", "time": 95, "note": 56, "velocity": 117, "channel": 0}, {"type": "note_on", "time": 119, "note": 53, "velocity": 119, "channel": 0}, {"type": "note_off", "time": 127, "note": 53, "velocity": 119, "channel": 0}, {"type": "note_on", "time": 72, "note": 53, "velocity": 116, "channel": 0}, {"type": "note_off", "time": 122, "note": 53, "velocity": 116, "channel": 0}, {"type": "note_on", "time": 17, "note": 52, "velocity": 126, "channel": 0}, {"type": "note_off", "time": 25, "note": 52, "velocity": 126, "channel": 0}, {"type": "note_on", "time": 536, "note": 61, "velocity": 116, "channel": 0}, {"type": "note_off", "time": 33, "note": 61, "velocity": 116, "channel": 0}, {"type": "note_on", "time": 7, "note": 62, "velocity": 97, "channel": 0}, {"type": "note_off", "time": 48, "note": 62, "velocity": 97, "channel": 0}, {"type": "note_on", "time": 69, "note": 60, "velocity": 110, "channel": 0}, {"type": "note_off", "time": 63, "note": 60, "velocity": 110, "channel": 0}, {"type": "note_on", "time": 36, "note": 58, "velocity": 117, "channel": 0}, {"type": "note_off", "time": 157, "note": 58, "velocity": 117, "channel": 0}, {"type": "note_on", "time": 22, "note": 56, "velocity": 116, "channel": 0}, {"type": "note_off", "time": 132, "note": 56, "velocity": 116, "channel": 0}, {"type": "note_on", "time": 64, "note": 57, "velocity": 118, "channel": 0}, {"type": "note_off", "time": 115, "note": 57, "velocity": 118, "channel": 0}, {"type": "note_on", "time": 70, "note": 65, "velocity": 111, "channel": 0}, {"type": "note_off", "time": 127, "note": 65, "velocity": 111, "channel": 0}, {"type": "note_on", "time": 63, "note": 62, "velocity": 91, "channel": 0}, {"type": "note_off", "time": 219, "note": 62, "velocity": 91, "channel": 0}, {"type": "note_on", "time": 491, "note": 67, "velocity": 114, "channel": 0}, {"type": "note_off", "time": 595, "note": 67, "velocity": 114, "channel": 0}, {"type": "note_on", "time": 40, "note": 65, "velocity": 111, "channel": 0}, {"type": "note_off", "time": 113, "note": 65, "velocity": 111, "channel": 0}, {"type": "note_on", "time": 89, "note": 64, "velocity": 113, "channel": 0}, {"type": "note_off", "time": 99, "note": 64, "velocity": 113, "channel": 0}, {"type": "note_on", "time": 47, "note": 62, "velocity": 108, "channel": 0}, {"type": "note_off", "time": 72, "note": 62, "velocity": 108, "channel": 0}, {"type": "note_on", "time": 75, "note": 64, "velocity": 103, "channel": 0}, {"type": "note_off", "time": 278, "note": 64, "velocity": 103, "channel": 0}, {"type": "note_on", "time": 17, "note": 62, "velocity": 116, "channel": 0}, {"type": "note_off", "time": 124, "note": 62, "velocity": 116, "channel": 0}, {"type": "note_on", "time": 96, "note": 59, "velocity": 115, "channel": 0}, {"type": "note_off", "time": 57, "note": 59, "velocity": 115, "channel": 0}, {"type": "note_on", "time": 32, "note": 61, "velocity": 112, "channel": 0}, {"type": "note_off", "time": 266, "note": 61, "velocity": 112, "channel": 0}, {"type": "note_on", "time": 34, "note": 64, "velocity": 108, "channel": 0}, {"type": "note_off", "time": 62, "note": 64, "velocity": 108, "channel": 0}, {"type": "note_on", "time": 26, "note": 66, "velocity": 111, "channel": 0}, {"type": "note_off", "time": 58, "note": 66, "velocity": 111, "channel": 0}, {"type": "note_on", "time": 57, "note": 68, "velocity": 107, "channel": 0}, {"type": "note_off", "time": 84, "note": 68, "velocity": 107, "channel": 0}, {"type": "note_on", "time": 100, "note": 66, "velocity": 112, "channel": 0}, {"type": "note_off", "time": 58, "note": 66, "velocity": 112, "channel": 0}, {"type": "note_on", "time": 9, "note": 64, "velocity": 109, "channel": 0}, {"type": "note_off", "time": 93, "note": 64, "velocity": 109, "channel": 0}, {"type": "note_on", "time": 27, "note": 61, "velocity": 107, "channel": 0}, {"type": "note_off", "time": 62, "note": 61, "velocity": 107, "channel": 0}, {"type": "note_on", "time": 11, "note": 59, "velocity": 100, "channel": 0}, {"type": "note_off", "time": 91, "note": 59, "velocity": 100, "channel": 0}, {"type": "note_on", "time": 146, "note": 53, "velocity": 109, "channel": 0}, {"type": "note_off", "time": 125, "note": 53, "velocity": 109, "channel": 0}, {"type": "note_on", "time": 53, "note": 60, "velocity": 118, "channel": 0}, {"type": "note_off", "time": 33, "note": 60, "velocity": 118, "channel": 0}, {"type": "note_on", "time": 9, "note": 62, "velocity": 111, "channel": 0}, {"type": "note_off", "time": 34, "note": 62, "velocity": 111, "channel": 0}, {"type": "note_on", "time": 34, "note": 60, "velocity": 115, "channel": 0}, {"type": "note_off", "time": 64, "note": 60, "velocity": 115, "channel": 0}, {"type": "note_on", "time": 25, "note": 56, "velocity": 102, "channel": 0}, {"type": "note_off", "time": 69, "note": 56, "velocity": 102, "channel": 0}, {"type": "note_on", "time": 417, "note": 53, "velocity": 118, "channel": 0}, {"type": "note_off", "time": 64, "note": 53, "velocity": 118, "channel": 0}, {"type": "note_on", "time": 15, "note": 58, "velocity": 121, "channel": 0}, {"type": "note_off", "time": 78, "note": 58, "velocity": 121, "channel": 0}, {"type": "note_on", "time": 23, "note": 54, "velocity": 118, "channel": 0}, {"type": "note_off", "time": 68, "note": 54, "velocity": 118, "channel": 0}, {"type": "note_on", "time": 11, "note": 58, "velocity": 121, "channel": 0}, {"type": "note_off", "time": 71, "note": 58, "velocity": 121, "channel": 0}, {"type": "note_on", "time": 21, "note": 62, "velocity": 123, "channel": 0}, {"type": "note_off", "time": 50, "note": 62, "velocity": 123, "channel": 0}, {"type": "note_on", "time": 10, "note": 61, "velocity": 106, "channel": 0}, {"type": "note_off", "time": 38, "note": 61, "velocity": 106, "channel": 0}, {"type": "note_on", "time": 17, "note": 59, "velocity": 113, "channel": 0}, {"type": "note_off", "time": 84, "note": 59, "velocity": 113, "channel": 0}, {"type": "note_on", "time": 9, "note": 55, "velocity": 119, "channel": 0}, {"type": "note_off", "time": 71, "note": 55, "velocity": 119, "channel": 0}, {"type": "note_on", "time": 19, "note": 59, "velocity": 117, "channel": 0}, {"type": "note_off", "time": 71, "note": 59, "velocity": 117, "channel": 0}, {"type": "note_on", "time": 23, "note": 63, "velocity": 113, "channel": 0}, {"type": "note_off", "time": 77, "note": 63, "velocity": 113, "channel": 0}, {"type": "note_on", "time": 7, "note": 60, "velocity": 120, "channel": 0}, {"type": "note_off", "time": 83, "note": 60, "velocity": 120, "channel": 0}, {"type": "note_on", "time": 19, "note": 57, "velocity": 123, "channel": 0}, {"type": "note_off", "time": 81, "note": 57, "velocity": 123, "channel": 0}, {"type": "note_on", "time": 11, "note": 52, "velocity": 127, "channel": 0}, {"type": "note_off", "time": 84, "note": 52, "velocity": 127, "channel": 0}, {"type": "note_on", "time": 32, "note": 50, "velocity": 121, "channel": 0}, {"type": "note_off", "time": 77, "note": 50, "velocity": 121, "channel": 0}, {"type": "note_on", "time": 13, "note": 48, "velocity": 123, "channel": 0}, {"type": "note_off", "time": 71, "note": 48, "velocity": 123, "channel": 0}, {"type": "note_on", "time": 25, "note": 50, "velocity": 121, "channel": 0}, {"type": "note_off", "time": 90, "note": 50, "velocity": 121, "channel": 0}, {"type": "note_on", "time": 7, "note": 52, "velocity": 119, "channel": 0}, {"type": "note_off", "time": 66, "note": 52, "velocity": 119, "channel": 0}, {"type": "note_on", "time": 16, "note": 57, "velocity": 118, "channel": 0}, {"type": "note_off", "time": 65, "note": 57, "velocity": 118, "channel": 0}, {"type": "note_on", "time": 13, "note": 55, "velocity": 124, "channel": 0}, {"type": "note_off", "time": 83, "note": 55, "velocity": 124, "channel": 0}, {"type": "note_on", "time": 23, "note": 52, "velocity": 121, "channel": 0}, {"type": "note_off", "time": 90, "note": 52, "velocity": 121, "channel": 0}, {"type": "note_on", "time": 3, "note": 53, "velocity": 117, "channel": 0}, {"type": "note_off", "time": 70, "note": 53, "velocity": 117, "channel": 0}, {"type": "note_on", "time": 31, "note": 55, "velocity": 120, "channel": 0}, {"type": "note_off", "time": 76, "note": 55, "velocity": 120, "channel": 0}, {"type": "note_on", "time": 9, "note": 57, "velocity": 120, "channel": 0}, {"type": "note_off", "time": 82, "note": 57, "velocity": 120, "channel": 0}, {"type": "note_on", "time": 16, "note": 60, "velocity": 114, "channel": 0}, {"type": "note_off", "time": 69, "note": 60, "velocity": 114, "channel": 0}, {"type": "note_on", "time": 13, "note": 57, "velocity": 104, "channel": 0}, {"type": "note_off", "time": 65, "note": 57, "velocity": 104, "channel": 0}, {"type": "note_on", "time": 29, "note": 57, "velocity": 126, "channel": 0}, {"type": "note_off", "time": 69, "note": 57, "velocity": 126, "channel": 0}, {"type": "note_on", "time": 13, "note": 58, "velocity": 120, "channel": 0}, {"type": "note_off", "time": 82, "note": 58, "velocity": 120, "channel": 0}, {"type": "note_on", "time": 32, "note": 55, "velocity": 118, "channel": 0}, {"type": "note_off", "time": 88, "note": 55, "velocity": 118, "channel": 0}, {"type": "note_on", "time": 0, "note": 57, "velocity": 118, "channel": 0}, {"type": "note_off", "time": 85, "note": 57, "velocity": 118, "channel": 0}, {"type": "note_on", "time": 15, "note": 58, "velocity": 115, "channel": 0}, {"type": "note_off", "time": 81, "note": 58, "velocity": 115, "channel": 0}, {"type": "note_on", "time": 20, "note": 58, "velocity": 117, "channel": 0}, {"type": "note_off", "time": 65, "note": 58, "velocity": 117, "channel": 0}, {"type": "note_on", "time": 27, "note": 60, "velocity": 114, "channel": 0}, {"type": "note_off", "time": 68, "note": 60, "velocity": 114, "channel": 0}, {"type": "note_on", "time": 27, "note": 61, "velocity": 113, "channel": 0}, {"type": "note_off", "time": 82, "note": 61, "velocity": 113, "channel": 0}, {"type": "note_on", "time": 20, "note": 62, "velocity": 113, "channel": 0}, {"type": "note_off", "time": 71, "note": 62, "velocity": 113, "channel": 0}, {"type": "note_on", "time": 7, "note": 63, "velocity": 112, "channel": 0}, {"type": "note_off", "time": 59, "note": 63, "velocity": 112, "channel": 0}, {"type": "note_on", "time": 35, "note": 65, "velocity": 108, "channel": 0}, {"type": "note_off", "time": 66, "note": 65, "velocity": 108, "channel": 0}, {"type": "note_on", "time": 13, "note": 64, "velocity": 110, "channel": 0}, {"type": "note_off", "time": 59, "note": 64, "velocity": 110, "channel": 0}, {"type": "note_on", "time": 44, "note": 65, "velocity": 106, "channel": 0}, {"type": "note_off", "time": 90, "note": 65, "velocity": 106, "channel": 0}, {"type": "note_on", "time": 58, "note": 66, "velocity": 114, "channel": 0}, {"type": "note_off", "time": 249, "note": 66, "velocity": 114, "channel": 0}, {"type": "note_on", "time": 50, "note": 65, "velocity": 116, "channel": 0}, {"type": "note_off", "time": 59, "note": 65, "velocity": 116, "channel": 0}, {"type": "note_on", "time": 94, "note": 62, "velocity": 110, "channel": 0}, {"type": "note_off", "time": 115, "note": 62, "velocity": 110, "channel": 0}, {"type": "note_on", "time": 68, "note": 59, "velocity": 118, "channel": 0}, {"type": "note_off", "time": 85, "note": 59, "velocity": 118, "channel": 0}, {"type": "note_on", "time": 17, "note": 62, "velocity": 115, "channel": 0}, {"type": "note_off", "time": 156, "note": 62, "velocity": 115, "channel": 0}, {"type": "note_on", "time": 28, "note": 59, "velocity": 119, "channel": 0}, {"type": "note_off", "time": 89, "note": 59, "velocity": 119, "channel": 0}, {"type": "note_on", "time": 20, "note": 57, "velocity": 116, "channel": 0}, {"type": "note_off", "time": 73, "note": 57, "velocity": 116, "channel": 0}, {"type": "note_on", "time": 11, "note": 55, "velocity": 118, "channel": 0}, {"type": "note_off", "time": 99, "note": 55, "velocity": 118, "channel": 0}, {"type": "note_on", "time": 245, "note": 56, "velocity": 117, "channel": 0}, {"type": "note_off", "time": 100, "note": 56, "velocity": 117, "channel": 0}, {"type": "note_on", "time": 60, "note": 61, "velocity": 113, "channel": 0}, {"type": "note_off", "time": 110, "note": 61, "velocity": 113, "channel": 0}, {"type": "note_on", "time": 59, "note": 64, "velocity": 106, "channel": 0}, {"type": "note_off", "time": 88, "note": 64, "velocity": 106, "channel": 0}, {"type": "note_on", "time": 99, "note": 62, "velocity": 111, "channel": 0}, {"type": "note_off", "time": 93, "note": 62, "velocity": 111, "channel": 0}, {"type": "note_on", "time": 91, "note": 60, "velocity": 112, "channel": 0}, {"type": "note_off", "time": 78, "note": 60, "velocity": 112, "channel": 0}, {"type": "note_on", "time": 120, "note": 57, "velocity": 114, "channel": 0}, {"type": "note_off", "time": 94, "note": 57, "velocity": 114, "channel": 0}, {"type": "note_on", "time": 82, "note": 61, "velocity": 114, "channel": 0}, {"type": "note_off", "time": 76, "note": 61, "velocity": 114, "channel": 0}, {"type": "note_on", "time": 16, "note": 65, "velocity": 122, "channel": 0}, {"type": "note_off", "time": 81, "note": 65, "velocity": 122, "channel": 0}, {"type": "note_on", "time": 26, "note": 62, "velocity": 105, "channel": 0}, {"type": "note_off", "time": 97, "note": 62, "velocity": 105, "channel": 0}, {"type": "note_on", "time": 312, "note": 65, "velocity": 111, "channel": 0}, {"type": "note_off", "time": 97, "note": 65, "velocity": 111, "channel": 0}, {"type": "note_on", "time": 58, "note": 63, "velocity": 110, "channel": 0}, {"type": "note_off", "time": 85, "note": 63, "velocity": 110, "channel": 0}, {"type": "note_on", "time": 9, "note": 65, "velocity": 115, "channel": 0}, {"type": "note_off", "time": 94, "note": 65, "velocity": 115, "channel": 0}, {"type": "note_on", "time": 20, "note": 62, "velocity": 116, "channel": 0}, {"type": "note_off", "time": 51, "note": 62, "velocity": 116, "channel": 0}, {"type": "note_on", "time": 329, "note": 65, "velocity": 114, "channel": 0}, {"type": "note_off", "time": 76, "note": 65, "velocity": 114, "channel": 0}, {"type": "note_on", "time": 73, "note": 62, "velocity": 109, "channel": 0}, {"type": "note_off", "time": 79, "note": 62, "velocity": 109, "channel": 0}, {"type": "note_on", "time": 34, "note": 65, "velocity": 116, "channel": 0}, {"type": "note_off", "time": 93, "note": 65, "velocity": 116, "channel": 0}, {"type": "note_on", "time": 31, "note": 63, "velocity": 107, "channel": 0}, {"type": "note_off", "time": 71, "note": 63, "velocity": 107, "channel": 0}, {"type": "note_on", "time": 87, "note": 72, "velocity": 108, "channel": 0}, {"type": "note_off", "time": 84, "note": 72, "velocity": 108, "channel": 0}, {"type": "note_on", "time": 112, "note": 69, "velocity": 110, "channel": 0}, {"type": "note_off", "time": 82, "note": 69, "velocity": 110, "channel": 0}, {"type": "note_on", "time": 119, "note": 58, "velocity": 98, "channel": 0}, {"type": "note_off", "time": 68, "note": 58, "velocity": 98, "channel": 0}, {"type": "note_on", "time": 21, "note": 65, "velocity": 106, "channel": 0}, {"type": "note_off", "time": 96, "note": 65, "velocity": 106, "channel": 0}, {"type": "note_on", "time": 20, "note": 62, "velocity": 107, "channel": 0}, {"type": "note_off", "time": 81, "note": 62, "velocity": 107, "channel": 0}, {"type": "note_on", "time": 306, "note": 65, "velocity": 104, "channel": 0}, {"type": "note_off", "time": 50, "note": 65, "velocity": 104, "channel": 0}, {"type": "note_on", "time": 110, "note": 69, "velocity": 105, "channel": 0}, {"type": "note_off", "time": 47, "note": 69, "velocity": 105, "channel": 0}, {"type": "note_on", "time": 42, "note": 72, "velocity": 106, "channel": 0}, {"type": "note_off", "time": 72, "note": 72, "velocity": 106, "channel": 0}, {"type": "note_on", "time": 17, "note": 70, "velocity": 101, "channel": 0}, {"type": "note_off", "time": 71, "note": 70, "velocity": 101, "channel": 0}, {"type": "note_on", "time": 13, "note": 72, "velocity": 121, "channel": 0}, {"type": "note_off", "time": 75, "note": 72, "velocity": 121, "channel": 0}, {"type": "note_on", "time": 40, "note": 72, "velocity": 106, "channel": 0}, {"type": "note_off", "time": 60, "note": 72, "velocity": 106, "channel": 0}, {"type": "note_on", "time": 15, "note": 70, "velocity": 112, "channel": 0}, {"type": "note_off", "time": 57, "note": 70, "velocity": 112, "channel": 0}, {"type": "note_on", "time": 8, "note": 71, "velocity": 118, "channel": 0}, {"type": "note_off", "time": 31, "note": 71, "velocity": 118, "channel": 0}, {"type": "note_on", "time": 5, "note": 72, "velocity": 121, "channel": 0}, {"type": "note_off", "time": 382, "note": 72, "velocity": 121, "channel": 0}, {"type": "note_on", "time": 119, "note": 71, "velocity": 114, "channel": 0}, {"type": "note_off", "time": 71, "note": 71, "velocity": 114, "channel": 0}, {"type": "note_on", "time": 27, "note": 70, "velocity": 113, "channel": 0}, {"type": "note_off", "time": 115, "note": 70, "velocity": 113, "channel": 0}, {"type": "note_on", "time": 100, "note": 68, "velocity": 119, "channel": 0}, {"type": "note_off", "time": 69, "note": 68, "velocity": 119, "channel": 0}, {"type": "note_on", "time": 89, "note": 65, "velocity": 113, "channel": 0}, {"type": "note_off", "time": 73, "note": 65, "velocity": 113, "channel": 0}, {"type": "note_on", "time": 122, "note": 63, "velocity": 111, "channel": 0}, {"type": "note_off", "time": 75, "note": 63, "velocity": 111, "channel": 0}, {"type": "note_on", "time": 120, "note": 60, "velocity": 119, "channel": 0}, {"type": "note_off", "time": 71, "note": 60, "velocity": 119, "channel": 0}, {"type": "note_on", "time": 107, "note": 58, "velocity": 124, "channel": 0}, {"type": "note_off", "time": 72, "note": 58, "velocity": 124, "channel": 0}, {"type": "note_on", "time": 1, "note": 59, "velocity": 117, "channel": 0}, {"type": "note_off", "time": 63, "note": 59, "velocity": 117, "channel": 0}, {"type": "note_on", "time": 38, "note": 65, "velocity": 116, "channel": 0}, {"type": "note_off", "time": 64, "note": 65, "velocity": 116, "channel": 0}, {"type": "note_on", "time": 22, "note": 60, "velocity": 115, "channel": 0}, {"type": "note_off", "time": 111, "note": 60, "velocity": 115, "channel": 0}, {"type": "note_on", "time": 32, "note": 57, "velocity": 116, "channel": 0}, {"type": "note_off", "time": 46, "note": 57, "velocity": 116, "channel": 0}, {"type": "note_on", "time": 46, "note": 53, "velocity": 114, "channel": 0}, {"type": "note_off", "time": 60, "note": 53, "velocity": 114, "channel": 0}, {"type": "end_of_track", "time": 0}]]}