{"ticks_per_beat": 192, "tracks": [[{"type": "track_name", "name": "Melody", "time": 0}, {"type": "set_tempo", "tempo": 410958, "time": 0}, {"type": "time_signature", "numerator": 9, "denominator": 4, "clocks_per_click": 24, "notated_32nd_notes_per_beat": 8, "time": 0}, {"type": "note_on", "time": 1583, "note": 67, "velocity": 119, "channel": 0}, {"type": "note_off", "time": 57, "note": 67, "velocity": 119, "channel": 0}, {"type": "note_on", "time": 7, "note": 69, "velocity": 104, "channel": 0}, {"type": "note_off", "time": 58, "note": 69, "velocity": 104, "channel": 0}, {"type": "note_on", "time": 6, "note": 71, "velocity": 120, "channel": 0}, {"type": "note_off", "time": 42, "note": 71, "velocity": 120, "channel": 0}, {"type": "note_on", "time": 12, "note": 73, "velocity": 125, "channel": 0}, {"type": "note_off", "time": 50, "note": 73, "velocity": 125, "channel": 0}, {"type": "note_on", "time": 10, "note": 69, "velocity": 124, "channel": 0}, {"type": "note_off", "time": 62, "note": 69, "velocity": 124, "channel": 0}, {"type": "note_on", "time": 8, "note": 67, "velocity": 108, "channel": 0}, {"type": "note_off", "time": 38, "note": 67, "velocity": 108, "channel": 0}, {"type": "note_on", "time": 8, "note": 71, "velocity": 118, "channel": 0}, {"type": "note_off", "time": 49, "note": 71, "velocity": 118, "channel": 0}, {"type": "note_on", "time": 12, "note": 76, "velocity": 119, "channel": 0}, {"type": "note_off", "time": 48, "note": 76, "velocity": 119, "channel": 0}, {"type": "note_on", "time": 8, "note": 78, "velocity": 116, "channel": 0}, {"type": "note_off", "time": 101, "note": 78, "velocity": 116, "channel": 0}, {"type": "note_on", "time": 5, "note": 76, "velocity": 118, "channel": 0}, {"type": "note_off", "time": 73, "note": 76, "velocity": 118, "channel": 0}, {"type": "note_on", "time": 31, "note": 73, "velocity": 118, "channel": 0}, {"type": "note_off", "time": 292, "note": 73, "velocity": 118, "channel": 0}, {"type": "note_on", "time": 9, "note": 72, "velocity": 114, "channel": 0}, {"type": "note_off", "time": 66, "note": 72, "velocity": 114, "channel": 0}, {"type": "note_on", "time": 477, "note": 60, "velocity": 100, "channel": 0}, {"type": "note_off", "time": 22, "note": 60, "velocity": 100, "channel": 0}, {"type": "note_on", "time": 2, "note": 62, "velocity": 100, "channel": 0}, {"type": "note_off", "time": 43, "note": 62, "velocity": 100, "channel": 0}, {"type": "note_on", "time": 14, "note": 65, "velocity": 123, "channel": 0}, {"type": "note_off", "time": 44, "note": 65, "velocity": 123, "channel": 0}, {"type": "note_on", "time": 17, "note": 67, "velocity": 103, "channel": 0}, {"type": "note_off", "time": 40, "note": 67, "velocity": 103, "channel": 0}, {"type": "note_on", "time": 5, "note": 70, "velocity": 124, "channel": 0}, {"type": "note_off", "time": 32, "note": 70, "velocity": 124, "channel": 0}, {"type": "note_on", "time": 12, "note": 72, "velocity": 119, "channel": 0}, {"type": "note_off", "time": 52, "note": 72, "velocity": 119, "channel": 0}, {"type": "note_on", "time": 9, "note": 74, "velocity": 123, "channel": 0}, {"type": "note_off", "time": 54, "note": 74, "velocity": 123, "channel": 0}, {"type": "note_on", "time": 8, "note": 77, "velocity": 118, "channel": 0}, {"type": "note_off", "time": 41, "note": 77, "velocity": 118, "channel": 0}, {"type": "note_on", "time": 65, "note": 78, "velocity": 121, "channel": 0}, {"type": "note_off", "time": 90, "note": 78, "velocity": 121, "channel": 0}, {"type": "note_on", "time": 9, "note": 76, "velocity": 121, "channel": 0}, {"type": "note_off", "time": 48, "note": 76, "velocity": 121, "channel": 0}, {"type": "note_on", "time": 48, "note": 73, "velocity": 127, "channel": 0}, {"type": "note_off", "time": 105, "note": 73, "velocity": 127, "channel": 0}, {"type": "note_on", "time": 7, "note": 71, "velocity": 115, "channel": 0}, {"type": "note_off", "time": 72, "note": 71, "velocity": 115, "channel": 0}, {"type": "note_on", "time": 51, "note": 72, "velocity": 118, "channel": 0}, {"type": "note_off", "time": 246, "note": 72, "velocity": 118, "channel": 0}, {"type": "note_on", "time": 9, "note": 70, "velocity": 119, "channel": 0}, {"type": "note_off", "time": 54, "note": 70, "velocity": 119, "channel": 0}, {"type": "note_on", "time": 6, "note": 67, "velocity": 114, "channel": 0}, {"type": "note_off", "time": 49, "note": 67, "velocity": 114, "channel": 0}, {"type": "note_on", "time": 7, "note": 63, "velocity": 101, "channel": 0}, {"type": "note_off", "time": 29, "note": 63, "velocity": 101, "channel": 0}, {"type": "note_on", "time": 40, "note": 69, "velocity": 119, "channel": 0}, {"type": "note_off", "time": 102, "note": 69, "velocity": 119, "channel": 0}, {"type": "note_on", "time": 10, "note": 71, "velocity": 114, "channel": 0}, {"type": "note_off", "time": 52, "note": 71, "velocity": 114, "channel": 0}, {"type": "note_on", "time": 420, "note": 66, "velocity": 126, "channel": 0}, {"type": "note_off", "time": 63, "note": 66, "velocity": 126, "channel": 0}, {"type": "note_on", "time": 7, "note": 69, "velocity": 124, "channel": 0}, {"type": "note_off", "time": 57, "note": 69, "velocity": 124, "channel": 0}, {"type": "note_on", "time": 2, "note": 64, "velocity": 104, "channel": 0}, {"type": "note_off", "time": 58, "note": 64, "velocity": 104, "channel": 0}, {"type": "note_on", "time": 4, "note": 59, "velocity": 99, "channel": 0}, {"type": "note_off", "time": 47, "note": 59, "velocity": 99, "channel": 0}, {"type": "note_on", "time": 8, "note": 61, "velocity": 109, "channel": 0}, {"type": "note_off", "time": 60, "note": 61, "velocity": 109, "channel": 0}, {"type": "note_on", "time": 6, "note": 66, "velocity": 122, "channel": 0}, {"type": "note_off", "time": 60, "note": 66, "velocity": 122, "channel": 0}, {"type": "note_on", "time": 10, "note": 63, "velocity": 102, "channel": 0}, {"type": "note_off", "time": 206, "note": 63, "velocity": 102, "channel": 0}, {"type": "note_on", "time": 11, "note": 68, "velocity": 111, "channel": 0}, {"type": "note_off", "time": 77, "note": 68, "velocity": 111, "channel": 0}, {"type": "note_on", "time": 14, "note": 63, "velocity": 107, "channel": 0}, {"type": "note_off", "time": 40, "note": 63, "velocity": 107, "channel": 0}, {"type": "note_on", "time": 5, "note": 61, "velocity": 105, "channel": 0}, {"type": "note_off", "time": 41, "note": 61, "velocity": 105, "channel": 0}, {"type": "note_on", "time": 10, "note": 66, "velocity": 125, "channel": 0}, {"type": "note_off", "time": 56, "note": 66, "velocity": 125, "channel": 0}, {"type": "note_on", "time": 3, "note": 68, "velocity": 119, "channel": 0}, {"type": "note_off", "time": 45, "note": 68, "velocity": 119, "channel": 0}, {"type": "note_on", "time": 8, "note": 67, "velocity": 122, "channel": 0}, {"type": "note_off", "time": 57, "note": 67, "velocity": 122, "channel": 0}, {"type": "note_on", "time": 3, "note": 65, "velocity": 119, "channel": 0}, {"type": "note_off", "time": 55, "note": 65, "velocity": 119, "channel": 0}, {"type": "note_on", "time": 63, "note": 70, "velocity": 122, "channel": 0}, {"type": "note_off", "time": 43, "note": 70, "velocity": 122, "channel": 0}, {"type": "note_on", "time": 6, "note": 72, "velocity": 120, "channel": 0}, {"type": "note_off", "time": 73, "note": 72, "velocity": 120, "channel": 0}, {"type": "note_on", "time": 19, "note": 67, "velocity": 100, "channel": 0}, {"type": "note_off", "time": 47, "note": 67, "velocity": 100, "channel": 0}, {"type": "note_on", "time": 70, "note": 70, "velocity": 119, "channel": 0}, {"type": "note_off", "time": 49, "note": 70, "velocity": 119, "channel": 0}, {"type": "note_on", "time": 3, "note": 71, "velocity": 118, "channel": 0}, {"type": "note_off", "time": 48, "note": 71, "velocity": 118, "channel": 0}, {"type": "note_on", "time": 6, "note": 70, "velocity": 122, "channel": 0}, {"type": "note_off", "time": 38, "note": 70, "velocity": 122, "channel": 0}, {"type": "note_on", "time": 8, "note": 69, "velocity": 123, "channel": 0}, {"type": "note_off", "time": 59, "note": 69, "velocity": 123, "channel": 0}, {"type": "note_on", "time": 5, "note": 66, "velocity": 118, "channel": 0}, {"type": "note_off", "time": 44, "note": 66, "velocity": 118, "channel": 0}, {"type": "note_on", "time": 8, "note": 64, "velocity": 104, "channel": 0}, {"type": "note_off", "time": 46, "note": 64, "velocity": 104, "channel": 0}, {"type": "note_on", "time": 12, "note": 59, "velocity": 101, "channel": 0}, {"type": "note_off", "time": 44, "note": 59, "velocity": 101, "channel": 0}, {"type": "note_on", "time": 0, "note": 66, "velocity": 120, "channel": 0}, {"type": "note_off", "time": 57, "note": 66, "velocity": 120, "channel": 0}, {"type": "note_on", "time": 2, "note": 69, "velocity": 122, "channel": 0}, {"type": "note_off", "time": 47, "note": 69, "velocity": 122, "channel": 0}, {"type": "note_on", "time": 4, "note": 67, "velocity": 118, "channel": 0}, {"type": "note_off", "time": 41, "note": 67, "velocity": 118, "channel": 0}, {"type": "note_on", "time": 11, "note": 63, "velocity": 102, "channel": 0}, {"type": "note_off", "time": 43, "note": 63, "velocity": 102, "channel": 0}, {"type": "note_on", "time": 273, "note": 67, "velocity": 122, "channel": 0}, {"type": "note_off", "time": 50, "note": 67, "velocity": 122, "channel": 0}, {"type": "note_on", "time": 15, "note": 65, "velocity": 122, "channel": 0}, {"type": "note_off", "time": 32, "note": 65, "velocity": 122, "channel": 0}, {"type": "note_on", "time": 9, "note": 62, "velocity": 107, "channel": 0}, {"type": "note_off", "time": 37, "note": 62, "velocity": 107, "channel": 0}, {"type": "note_on", "time": 3, "note": 58, "velocity": 105, "channel": 0}, {"type": "note_off", "time": 36, "note": 58, "velocity": 105, "channel": 0}, {"type": "note_on", "time": 7, "note": 60, "velocity": 109, "channel": 0}, {"type": "note_off", "time": 49, "note": 60, "velocity": 109, "channel": 0}, {"type": "note_on", "time": 6, "note": 63, "velocity": 104, "channel": 0}, {"type": "note_off", "time": 39, "note": 63, "velocity": 104, "channel": 0}, {"type": "note_on", "time": 11, "note": 58, "velocity": 105, "channel": 0}, {"type": "note_off", "time": 41, "note": 58, "velocity": 105, "channel": 0}, {"type": "note_on", "time": 60, "note": 57, "velocity": 117, "channel": 0}, {"type": "note_off", "time": 35, "note": 57, "velocity": 117, "channel": 0}, {"type": "note_on", "time": 7, "note": 55, "velocity": 107, "channel": 0}, {"type": "note_off", "time": 163, "note": 55, "velocity": 107, "channel": 0}, {"type": "note_on", "time": 10, "note": 57, "velocity": 110, "channel": 0}, {"type": "note_off", "time": 39, "note": 57, "velocity": 110, "channel": 0}, {"type": "note_on", "time": 3, "note": 55, "velocity": 107, "channel": 0}, {"type": "note_off", "time": 43, "note": 55, "velocity": 107, "channel": 0}, {"type": "note_on", "time": 11, "note": 57, "velocity": 109, "channel": 0}, {"type": "note_off", "time": 62, "note": 57, "velocity": 109, "channel": 0}, {"type": "note_on", "time": 22, "note": 61, "velocity": 102, "channel": 0}, {"type": "note_off", "time": 35, "note": 61, "velocity": 102, "channel": 0}, {"type": "note_on", "time": 2, "note": 63, "velocity": 100, "channel": 0}, {"type": "note_off", "time": 44, "note": 63, "velocity": 100, "channel": 0}, {"type": "note_on", "time": 9, "note": 66, "velocity": 118, "channel": 0}, {"type": "note_off", "time": 33, "note": 66, "velocity": 118, "channel": 0}, {"type": "note_on", "time": 1, "note": 67, "velocity": 114, "channel": 0}, {"type": "note_off", "time": 40, "note": 67, "velocity": 114, "channel": 0}, {"type": "note_on", "time": 20, "note": 71, "velocity": 102, "channel": 0}, {"type": "note_off", "time": 24, "note": 71, "velocity": 102, "channel": 0}, {"type": "note_on", "time": 4, "note": 73, "velocity": 102, "channel": 0}, {"type": "note_off", "time": 43, "note": 73, "velocity": 102, "channel": 0}, {"type": "note_on", "time": 10, "note": 77, "velocity": 112, "channel": 0}, {"type": "note_off", "time": 38, "note": 77, "velocity": 112, "channel": 0}, {"type": "note_on", "time": 1, "note": 79, "velocity": 97, "channel": 0}, {"type": "note_off", "time": 122, "note": 79, "velocity": 97, "channel": 0}, {"type": "end_of_track", "time": 0}]]}