{"ticks_per_beat": 840, "tracks": [[{"type": "track_name", "name": "Melody", "time": 0}, {"type": "set_tempo", "tempo": 618556, "time": 0}, {"type": "key_signature", "key": "Db", "time": 0}, {"type": "time_signature", "numerator": 3, "denominator": 4, "clocks_per_click": 24, "notated_32nd_notes_per_beat": 8, "time": 0}, {"type": "note_on", "time": 7914, "note": 75, "velocity": 119, "channel": 0}, {"type": "note_off", "time": 228, "note": 75, "velocity": 119, "channel": 0}, {"type": "note_on", "time": 11, "note": 78, "velocity": 113, "channel": 0}, {"type": "note_off", "time": 226, "note": 78, "velocity": 113, "channel": 0}, {"type": "note_on", "time": 13, "note": 72, "velocity": 106, "channel": 0}, {"type": "note_off", "time": 245, "note": 72, "velocity": 106, "channel": 0}, {"type": "note_on", "time": 180, "note": 77, "velocity": 121, "channel": 0}, {"type": "note_off", "time": 153, "note": 77, "velocity": 121, "channel": 0}, {"type": "note_on", "time": 0, "note": 73, "velocity": 108, "channel": 0}, {"type": "note_off", "time": 342, "note": 73, "velocity": 108, "channel": 0}, {"type": "note_on", "time": 83, "note": 68, "velocity": 112, "channel": 0}, {"type": "note_off", "time": 218, "note": 68, "velocity": 112, "channel": 0}, {"type": "note_on", "time": 45, "note": 72, "velocity": 111, "channel": 0}, {"type": "note_off", "time": 134, "note": 72, "velocity": 111, "channel": 0}, {"type": "note_on", "time": 3, "note": 70, "velocity": 110, "channel": 0}, {"type": "note_off", "time": 316, "note": 70, "velocity": 110, "channel": 0}, {"type": "note_on", "time": 128, "note": 67, "velocity": 113, "channel": 0}, {"type": "note_off", "time": 241, "note": 67, "velocity": 113, "channel": 0}, {"type": "note_on", "time": 42, "note": 63, "velocity": 87, "channel": 0}, {"type": "note_off", "time": 140, "note": 63, "velocity": 87, "channel": 0}, {"type": "note_on", "time": 32, "note": 69, "velocity": 121, "channel": 0}, {"type": "note_off", "time": 198, "note": 69, "velocity": 121, "channel": 0}, {"type": "note_on", "time": 56, "note": 71, "velocity": 106, "channel": 0}, {"type": "note_off", "time": 875, "note": 71, "velocity": 106, "channel": 0}, {"type": "note_on", "time": 48, "note": 66, "velocity": 112, "channel": 0}, {"type": "note_off", "time": 156, "note": 66, "velocity": 112, "channel": 0}, {"type": "note_on", "time": 225, "note": 71, "velocity": 110, "channel": 0}, {"type": "note_off", "time": 161, "note": 71, "velocity": 110, "channel": 0}, {"type": "note_on", "time": 3, "note": 70, "velocity": 113, "channel": 0}, {"type": "note_off", "time": 224, "note": 70, "velocity": 113, "channel": 0}, {"type": "note_on", "time": 3, "note": 67, "velocity": 111, "channel": 0}, {"type": "note_off", "time": 178, "note": 67, "velocity": 111, "channel": 0}, {"type": "note_on", "time": 61, "note": 63, "velocity": 117, "channel": 0}, {"type": "note_off", "time": 120, "note": 63, "velocity": 117, "channel": 0}, {"type": "note_on", "time": 88, "note": 60, "velocity": 115, "channel": 0}, {"type": "note_off", "time": 137, "note": 60, "velocity": 115, "channel": 0}, {"type": "note_on", "time": 0, "note": 65, "velocity": 114, "channel": 0}, {"type": "note_off", "time": 162, "note": 65, "velocity": 114, "channel": 0}, {"type": "note_on", "time": 65, "note": 68, "velocity": 112, "channel": 0}, {"type": "note_off", "time": 196, "note": 68, "velocity": 112, "channel": 0}, {"type": "note_on", "time": 11, "note": 67, "velocity": 109, "channel": 0}, {"type": "note_off", "time": 215, "note": 67, "velocity": 109, "channel": 0}, {"type": "note_on", "time": 44, "note": 61, "velocity": 110, "channel": 0}, {"type": "note_off", "time": 686, "note": 61, "velocity": 110, "channel": 0}, {"type": "note_on", "time": 3, "note": 60, "velocity": 106, "channel": 0}, {"type": "note_off", "time": 232, "note": 60, "velocity": 106, "channel": 0}, {"type": "note_on", "time": 0, "note": 63, "velocity": 112, "channel": 0}, {"type": "note_off", "time": 221, "note": 63, "velocity": 112, "channel": 0}, {"type": "note_on", "time": 831, "note": 55, "velocity": 107, "channel": 0}, {"type": "note_on", "time": 188, "note": 61, "velocity": 110, "channel": 0}, {"type": "note_off", "time": 0, "note": 55, "velocity": 107, "channel": 0}, {"type": "note_off", "time": 277, "note": 61, "velocity": 110, "channel": 0}, {"type": "note_on", "time": 0, "note": 58, "velocity": 107, "channel": 0}, {"type": "note_off", "time": 198, "note": 58, "velocity": 107, "channel": 0}, {"type": "note_on", "time": 7, "note": 53, "velocity": 107, "channel": 0}, {"type": "note_off", "time": 245, "note": 53, "velocity": 107, "channel": 0}, {"type": "note_on", "time": 3, "note": 56, "velocity": 110, "channel": 0}, {"type": "note_off", "time": 215, "note": 56, "velocity": 110, "channel": 0}, {"type": "note_on", "time": 0, "note": 55, "velocity": 107, "channel": 0}, {"type": "note_off", "time": 170, "note": 55, "velocity": 107, "channel": 0}, {"type": "note_on", "time": 0, "note": 61, "velocity": 117, "channel": 0}, {"type": "note_off", "time": 254, "note": 61, "velocity": 117, "channel": 0}, {"type": "note_on", "time": 1022, "note": 57, "velocity": 115, "channel": 0}, {"type": "note_off", "time": 226, "note": 57, "velocity": 115, "channel": 0}, {"type": "note_on", "time": 0, "note": 63, "velocity": 111, "channel": 0}, {"type": "note_off", "time": 231, "note": 63, "velocity": 111, "channel": 0}, {"type": "note_on", "time": 208, "note": 67, "velocity": 115, "channel": 0}, {"type": "note_off", "time": 189, "note": 67, "velocity": 115, "channel": 0}, {"type": "note_on", "time": 0, "note": 61, "velocity": 114, "channel": 0}, {"type": "note_on", "time": 197, "note": 63, "velocity": 119, "channel": 0}, {"type": "note_off", "time": 0, "note": 61, "velocity": 114, "channel": 0}, {"type": "note_off", "time": 147, "note": 63, "velocity": 119, "channel": 0}, {"type": "note_on", "time": 1, "note": 65, "velocity": 122, "channel": 0}, {"type": "note_off", "time": 171, "note": 65, "velocity": 122, "channel": 0}, {"type": "note_on", "time": 238, "note": 73, "velocity": 103, "channel": 0}, {"type": "note_off", "time": 317, "note": 73, "velocity": 103, "channel": 0}, {"type": "note_on", "time": 56, "note": 72, "velocity": 108, "channel": 0}, {"type": "note_off", "time": 303, "note": 72, "velocity": 108, "channel": 0}, {"type": "note_on", "time": 0, "note": 67, "velocity": 111, "channel": 0}, {"type": "note_off", "time": 382, "note": 67, "velocity": 111, "channel": 0}, {"type": "note_on", "time": 55, "note": 72, "velocity": 115, "channel": 0}, {"type": "note_off", "time": 145, "note": 72, "velocity": 115, "channel": 0}, {"type": "note_on", "time": 0, "note": 70, "velocity": 113, "channel": 0}, {"type": "note_off", "time": 200, "note": 70, "velocity": 113, "channel": 0}, {"type": "note_on", "time": 16, "note": 65, "velocity": 105, "channel": 0}, {"type": "note_off", "time": 428, "note": 65, "velocity": 105, "channel": 0}, {"type": "note_on", "time": 72, "note": 68, "velocity": 115, "channel": 0}, {"type": "note_off", "time": 182, "note": 68, "velocity": 115, "channel": 0}, {"type": "note_on", "time": 10, "note": 67, "velocity": 109, "channel": 0}, {"type": "note_off", "time": 252, "note": 67, "velocity": 109, "channel": 0}, {"type": "note_on", "time": 11, "note": 63, "velocity": 117, "channel": 0}, {"type": "note_off", "time": 129, "note": 63, "velocity": 117, "channel": 0}, {"type": "note_on", "time": 63, "note": 67, "velocity": 112, "channel": 0}, {"type": "note_off", "time": 189, "note": 67, "velocity": 112, "channel": 0}, {"type": "note_on", "time": 0, "note": 66, "velocity": 111, "channel": 0}, {"type": "note_off", "time": 201, "note": 66, "velocity": 111, "channel": 0}, {"type": "note_on", "time": 220, "note": 61, "velocity": 114, "channel": 0}, {"type": "note_off", "time": 189, "note": 61, "velocity": 114, "channel": 0}, {"type": "note_on", "time": 3, "note": 66, "velocity": 111, "channel": 0}, {"type": "note_off", "time": 189, "note": 66, "velocity": 111, "channel": 0}, {"type": "note_on", "time": 26, "note": 65, "velocity": 117, "channel": 0}, {"type": "note_off", "time": 160, "note": 65, "velocity": 117, "channel": 0}, {"type": "note_on", "time": 0, "note": 63, "velocity": 119, "channel": 0}, {"type": "note_off", "time": 198, "note": 63, "velocity": 119, "channel": 0}, {"type": "note_on", "time": 16, "note": 58, "velocity": 101, "channel": 0}, {"type": "note_off", "time": 184, "note": 58, "velocity": 101, "channel": 0}, {"type": "note_on", "time": 20, "note": 61, "velocity": 120, "channel": 0}, {"type": "note_off", "time": 193, "note": 61, "velocity": 120, "channel": 0}, {"type": "note_on", "time": 46, "note": 65, "velocity": 112, "channel": 0}, {"type": "note_off", "time": 134, "note": 65, "velocity": 112, "channel": 0}, {"type": "note_on", "time": 0, "note": 64, "velocity": 120, "channel": 0}, {"type": "note_off", "time": 216, "note": 64, "velocity": 120, "channel": 0}, {"type": "note_on", "time": 27, "note": 63, "velocity": 105, "channel": 0}, {"type": "note_off", "time": 1643, "note": 63, "velocity": 105, "channel": 0}, {"type": "note_on", "time": 90, "note": 63, "velocity": 107, "channel": 0}, {"type": "note_off", "time": 108, "note": 63, "velocity": 107, "channel": 0}, {"type": "note_on", "time": 182, "note": 63, "velocity": 114, "channel": 0}, {"type": "note_off", "time": 353, "note": 63, "velocity": 114, "channel": 0}, {"type": "note_on", "time": 66, "note": 61, "velocity": 101, "channel": 0}, {"type": "note_off", "time": 261, "note": 61, "velocity": 101, "channel": 0}, {"type": "note_on", "time": 0, "note": 70, "velocity": 96, "channel": 0}, {"type": "note_off", "time": 543, "note": 70, "velocity": 96, "channel": 0}, {"type": "note_on", "time": 0, "note": 68, "velocity": 85, "channel": 0}, {"type": "note_off", "time": 1044, "note": 68, "velocity": 85, "channel": 0}, {"type": "note_on", "time": 2610, "note": 68, "velocity": 98, "channel": 0}, {"type": "note_off", "time": 196, "note": 68, "velocity": 98, "channel": 0}, {"type": "note_on", "time": 36, "note": 68, "velocity": 107, "channel": 0}, {"type": "note_off", "time": 166, "note": 68, "velocity": 107, "channel": 0}, {"type": "note_on", "time": 22, "note": 68, "velocity": 99, "channel": 0}, {"type": "note_off", "time": 404, "note": 68, "velocity": 99, "channel": 0}, {"type": "note_on", "time": 19, "note": 68, "velocity": 104, "channel": 0}, {"type": "note_off", "time": 182, "note": 68, "velocity": 104, "channel": 0}, {"type": "note_on", "time": 16, "note": 68, "velocity": 105, "channel": 0}, {"type": "note_off", "time": 196, "note": 68, "velocity": 105, "channel": 0}, {"type": "note_on", "time": 16, "note": 68, "velocity": 101, "channel": 0}, {"type": "note_off", "time": 401, "note": 68, "velocity": 101, "channel": 0}, {"type": "note_on", "time": 19, "note": 68, "velocity": 110, "channel": 0}, {"type": "note_off", "time": 221, "note": 68, "velocity": 110, "channel": 0}, {"type": "note_on", "time": 16, "note": 68, "velocity": 111, "channel": 0}, {"type": "note_off", "time": 188, "note": 68, "velocity": 111, "channel": 0}, {"type": "note_on", "time": 19, "note": 68, "velocity": 105, "channel": 0}, {"type": "note_off", "time": 407, "note": 68, "velocity": 105, "channel": 0}, {"type": "note_on", "time": 27, "note": 68, "velocity": 112, "channel": 0}, {"type": "note_off", "time": 185, "note": 68, "velocity": 112, "channel": 0}, {"type": "note_on", "time": 2, "note": 69, "velocity": 106, "channel": 0}, {"type": "note_off", "time": 216, "note": 69, "velocity": 106, "channel": 0}, {"type": "note_on", "time": 16, "note": 68, "velocity": 100, "channel": 0}, {"type": "note_off", "time": 365, "note": 68, "velocity": 100, "channel": 0}, {"type": "note_on", "time": 8, "note": 68, "velocity": 109, "channel": 0}, {"type": "note_off", "time": 205, "note": 68, "velocity": 109, "channel": 0}, {"type": "note_on", "time": 2, "note": 68, "velocity": 103, "channel": 0}, {"type": "note_off", "time": 379, "note": 68, "velocity": 103, "channel": 0}, {"type": "note_on", "time": 19, "note": 68, "velocity": 97, "channel": 0}, {"type": "note_off", "time": 493, "note": 68, "velocity": 97, "channel": 0}, {"type": "note_on", "time": 161, "note": 68, "velocity": 107, "channel": 0}, {"type": "note_off", "time": 405, "note": 68, "velocity": 107, "channel": 0}, {"type": "note_on", "time": 22, "note": 68, "velocity": 103, "channel": 0}, {"type": "note_off", "time": 385, "note": 68, "velocity": 103, "channel": 0}, {"type": "note_on", "time": 33, "note": 68, "velocity": 98, "channel": 0}, {"type": "note_off", "time": 568, "note": 68, "velocity": 98, "channel": 0}, {"type": "note_on", "time": 110, "note": 68, "velocity": 101, "channel": 0}, {"type": "note_off", "time": 379, "note": 68, "velocity": 101, "channel": 0}, {"type": "note_on", "time": 27, "note": 68, "velocity": 108, "channel": 0}, {"type": "note_off", "time": 182, "note": 68, "velocity": 108, "channel": 0}, {"type": "note_on", "time": 22, "note": 68, "velocity": 103, "channel": 0}, {"type": "note_off", "time": 415, "note": 68, "velocity": 103, "channel": 0}, {"type": "note_on", "time": 22, "note": 68, "velocity": 87, "channel": 0}, {"type": "note_off", "time": 570, "note": 68, "velocity": 87, "channel": 0}, {"type": "note_on", "time": 41, "note": 68, "velocity": 84, "channel": 0}, {"type": "note_off", "time": 576, "note": 68, "velocity": 84, "channel": 0}, {"type": "note_on", "time": 97, "note": 68, "velocity": 113, "channel": 0}, {"type": "note_off", "time": 141, "note": 68, "velocity": 113, "channel": 0}, {"type": "note_on", "time": 37, "note": 68, "velocity": 90, "channel": 0}, {"type": "note_off", "time": 609, "note": 68, "velocity": 90, "channel": 0}, {"type": "note_on", "time": 50, "note": 68, "velocity": 107, "channel": 0}, {"type": "note_off", "time": 134, "note": 68, "velocity": 107, "channel": 0}, {"type": "note_on", "time": 23, "note": 68, "velocity": 109, "channel": 0}, {"type": "note_off", "time": 252, "note": 68, "velocity": 109, "channel": 0}, {"type": "note_on", "time": 30, "note": 68, "velocity": 97, "channel": 0}, {"type": "note_off", "time": 274, "note": 68, "velocity": 97, "channel": 0}, {"type": "note_on", "time": 160, "note": 68, "velocity": 114, "channel": 0}, {"type": "note_off", "time": 63, "note": 68, "velocity": 114, "channel": 0}, {"type": "note_on", "time": 47, "note": 68, "velocity": 96, "channel": 0}, {"type": "note_off", "time": 432, "note": 68, "velocity": 96, "channel": 0}, {"type": "note_on", "time": 36, "note": 68, "velocity": 95, "channel": 0}, {"type": "note_off", "time": 595, "note": 68, "velocity": 95, "channel": 0}, {"type": "note_on", "time": 24, "note": 68, "velocity": 87, "channel": 0}, {"type": "note_off", "time": 703, "note": 68, "velocity": 87, "channel": 0}, {"type": "note_on", "time": 149, "note": 68, "velocity": 96, "channel": 0}, {"type": "note_off", "time": 401, "note": 68, "velocity": 96, "channel": 0}, {"type": "note_on", "time": 38, "note": 68, "velocity": 93, "channel": 0}, {"type": "note_off", "time": 351, "note": 68, "velocity": 93, "channel": 0}, {"type": "note_on", "time": 49, "note": 68, "velocity": 93, "channel": 0}, {"type": "note_off", "time": 376, "note": 68, "velocity": 93, "channel": 0}, {"type": "note_on", "time": 47, "note": 68, "velocity": 83, "channel": 0}, {"type": "note_off", "time": 465, "note": 68, "velocity": 83, "channel": 0}, {"type": "note_on", "time": 388, "note": 68, "velocity": 111, "channel": 0}, {"type": "note_off", "time": 157, "note": 68, "velocity": 111, "channel": 0}, {"type": "note_on", "time": 19, "note": 68, "velocity": 98, "channel": 0}, {"type": "note_off", "time": 379, "note": 68, "velocity": 98, "channel": 0}, {"type": "note_on", "time": 24, "note": 68, "velocity": 110, "channel": 0}, {"type": "note_off", "time": 199, "note": 68, "velocity": 110, "channel": 0}, {"type": "note_on", "time": 5, "note": 68, "velocity": 106, "channel": 0}, {"type": "note_off", "time": 252, "note": 68, "velocity": 106, "channel": 0}, {"type": "note_on", "time": 12, "note": 65, "velocity": 107, "channel": 0}, {"type": "note_off", "time": 181, "note": 65, "velocity": 107, "channel": 0}, {"type": "note_on", "time": 0, "note": 68, "velocity": 99, "channel": 0}, {"type": "note_off", "time": 385, "note": 68, "velocity": 99, "channel": 0}, {"type": "note_on", "time": 13, "note": 68, "velocity": 111, "channel": 0}, {"type": "note_off", "time": 165, "note": 68, "velocity": 111, "channel": 0}, {"type": "note_on", "time": 32, "note": 65, "velocity": 98, "channel": 0}, {"type": "note_off", "time": 499, "note": 65, "velocity": 98, "channel": 0}, {"type": "note_on", "time": 2280, "note": 65, "velocity": 106, "channel": 0}, {"type": "note_off", "time": 338, "note": 65, "velocity": 106, "channel": 0}, {"type": "note_on", "time": 15, "note": 65, "velocity": 117, "channel": 0}, {"type": "note_off", "time": 118, "note": 65, "velocity": 117, "channel": 0}, {"type": "note_on", "time": 105, "note": 65, "velocity": 109, "channel": 0}, {"type": "note_off", "time": 274, "note": 65, "velocity": 109, "channel": 0}, {"type": "note_on", "time": 49, "note": 64, "velocity": 108, "channel": 0}, {"type": "note_off", "time": 249, "note": 64, "velocity": 108, "channel": 0}, {"type": "note_on", "time": 83, "note": 64, "velocity": 117, "channel": 0}, {"type": "note_off", "time": 828, "note": 64, "velocity": 117, "channel": 0}, {"type": "note_on", "time": 0, "note": 65, "velocity": 99, "channel": 0}, {"type": "note_off", "time": 284, "note": 65, "velocity": 99, "channel": 0}, {"type": "note_on", "time": 160, "note": 65, "velocity": 114, "channel": 0}, {"type": "note_off", "time": 756, "note": 65, "velocity": 114, "channel": 0}, {"type": "note_on", "time": 48, "note": 65, "velocity": 105, "channel": 0}, {"type": "note_off", "time": 448, "note": 65, "velocity": 105, "channel": 0}, {"type": "note_on", "time": 27, "note": 66, "velocity": 107, "channel": 0}, {"type": "note_off", "time": 772, "note": 66, "velocity": 107, "channel": 0}, {"type": "note_on", "time": 3, "note": 65, "velocity": 94, "channel": 0}, {"type": "note_off", "time": 421, "note": 65, "velocity": 94, "channel": 0}, {"type": "note_on", "time": 8, "note": 65, "velocity": 116, "channel": 0}, {"type": "note_off", "time": 102, "note": 65, "velocity": 116, "channel": 0}, {"type": "note_on", "time": 19, "note": 65, "velocity": 114, "channel": 0}, {"type": "note_off", "time": 157, "note": 65, "velocity": 114, "channel": 0}, {"type": "note_on", "time": 74, "note": 64, "velocity": 110, "channel": 0}, {"type": "note_off", "time": 295, "note": 64, "velocity": 110, "channel": 0}, {"type": "note_on", "time": 126, "note": 64, "velocity": 121, "channel": 0}, {"type": "note_off", "time": 168, "note": 64, "velocity": 121, "channel": 0}, {"type": "note_on", "time": 0, "note": 65, "velocity": 114, "channel": 0}, {"type": "note_off", "time": 1048, "note": 65, "velocity": 114, "channel": 0}, {"type": "note_on", "time": 74, "note": 65, "velocity": 112, "channel": 0}, {"type": "note_off", "time": 103, "note": 65, "velocity": 112, "channel": 0}, {"type": "note_on", "time": 279, "note": 64, "velocity": 118, "channel": 0}, {"type": "note_off", "time": 180, "note": 64, "velocity": 118, "channel": 0}, {"type": "note_on", "time": 5, "note": 65, "velocity": 116, "channel": 0}, {"type": "note_off", "time": 185, "note": 65, "velocity": 116, "channel": 0}, {"type": "note_on", "time": 3, "note": 66, "velocity": 106, "channel": 0}, {"type": "note_off", "time": 185, "note": 66, "velocity": 106, "channel": 0}, {"type": "note_on", "time": 0, "note": 65, "velocity": 117, "channel": 0}, {"type": "note_off", "time": 181, "note": 65, "velocity": 117, "channel": 0}, {"type": "note_on", "time": 19, "note": 65, "velocity": 110, "channel": 0}, {"type": "note_off", "time": 137, "note": 65, "velocity": 110, "channel": 0}, {"type": "note_on", "time": 338, "note": 64, "velocity": 121, "channel": 0}, {"type": "note_off", "time": 161, "note": 64, "velocity": 121, "channel": 0}, {"type": "note_on", "time": 0, "note": 65, "velocity": 116, "channel": 0}, {"type": "note_off", "time": 445, "note": 65, "velocity": 116, "channel": 0}, {"type": "note_on", "time": 55, "note": 65, "velocity": 107, "channel": 0}, {"type": "note_off", "time": 958, "note": 65, "velocity": 107, "channel": 0}, {"type": "note_on", "time": 46, "note": 64, "velocity": 118, "channel": 0}, {"type": "note_off", "time": 236, "note": 64, "velocity": 118, "channel": 0}, {"type": "note_on", "time": 252, "note": 65, "velocity": 114, "channel": 0}, {"type": "note_off", "time": 204, "note": 65, "velocity": 114, "channel": 0}, {"type": "note_on", "time": 9, "note": 66, "velocity": 108, "channel": 0}, {"type": "note_on", "time": 230, "note": 65, "velocity": 117, "channel": 0}, {"type": "note_off", "time": 0, "note": 66, "velocity": 108, "channel": 0}, {"type": "note_off", "time": 168, "note": 65, "velocity": 117, "channel": 0}, {"type": "note_on", "time": 8, "note": 64, "velocity": 120, "channel": 0}, {"type": "note_off", "time": 108, "note": 64, "velocity": 120, "channel": 0}, {"type": "note_on", "time": 29, "note": 63, "velocity": 119, "channel": 0}, {"type": "note_off", "time": 236, "note": 63, "velocity": 119, "channel": 0}, {"type": "note_on", "time": 27, "note": 63, "velocity": 115, "channel": 0}, {"type": "note_off", "time": 633, "note": 63, "velocity": 115, "channel": 0}, {"type": "note_on", "time": 20, "note": 65, "velocity": 112, "channel": 0}, {"type": "note_off", "time": 354, "note": 65, "velocity": 112, "channel": 0}, {"type": "note_on", "time": 38, "note": 65, "velocity": 114, "channel": 0}, {"type": "note_off", "time": 51, "note": 65, "velocity": 114, "channel": 0}, {"type": "note_on", "time": 0, "note": 64, "velocity": 117, "channel": 0}, {"type": "note_off", "time": 129, "note": 64, "velocity": 117, "channel": 0}, {"type": "note_on", "time": 0, "note": 65, "velocity": 113, "channel": 0}, {"type": "note_off", "time": 193, "note": 65, "velocity": 113, "channel": 0}, {"type": "note_on", "time": 7, "note": 66, "velocity": 107, "channel": 0}, {"type": "note_off", "time": 232, "note": 66, "velocity": 107, "channel": 0}, {"type": "note_on", "time": 16, "note": 63, "velocity": 118, "channel": 0}, {"type": "note_off", "time": 212, "note": 63, "velocity": 118, "channel": 0}, {"type": "note_on", "time": 0, "note": 58, "velocity": 99, "channel": 0}, {"type": "note_off", "time": 209, "note": 58, "velocity": 99, "channel": 0}, {"type": "note_on", "time": 0, "note": 61, "velocity": 117, "channel": 0}, {"type": "note_off", "time": 410, "note": 61, "velocity": 117, "channel": 0}, {"type": "note_on", "time": 35, "note": 56, "velocity": 105, "channel": 0}, {"type": "note_off", "time": 240, "note": 56, "velocity": 105, "channel": 0}, {"type": "note_on", "time": 0, "note": 60, "velocity": 110, "channel": 0}, {"type": "note_off", "time": 174, "note": 60, "velocity": 110, "channel": 0}, {"type": "note_on", "time": 0, "note": 58, "velocity": 111, "channel": 0}, {"type": "note_off", "time": 347, "note": 58, "velocity": 111, "channel": 0}, {"type": "note_on", "time": 309, "note": 58, "velocity": 116, "channel": 0}, {"type": "note_off", "time": 179, "note": 58, "velocity": 116, "channel": 0}, {"type": "note_on", "time": 13, "note": 56, "velocity": 122, "channel": 0}, {"type": "note_off", "time": 236, "note": 56, "velocity": 122, "channel": 0}, {"type": "note_on", "time": 0, "note": 58, "velocity": 107, "channel": 0}, {"type": "note_off", "time": 155, "note": 58, "velocity": 107, "channel": 0}, {"type": "note_on", "time": 218, "note": 63, "velocity": 118, "channel": 0}, {"type": "note_off", "time": 197, "note": 63, "velocity": 118, "channel": 0}, {"type": "note_on", "time": 0, "note": 65, "velocity": 109, "channel": 0}, {"type": "note_off", "time": 233, "note": 65, "velocity": 109, "channel": 0}, {"type": "note_on", "time": 6, "note": 70, "velocity": 111, "channel": 0}, {"type": "note_off", "time": 224, "note": 70, "velocity": 111, "channel": 0}, {"type": "note_on", "time": 0, "note": 71, "velocity": 110, "channel": 0}, {"type": "note_off", "time": 181, "note": 71, "velocity": 110, "channel": 0}, {"type": "note_on", "time": 0, "note": 73, "velocity": 107, "channel": 0}, {"type": "note_off", "time": 228, "note": 73, "velocity": 107, "channel": 0}, {"type": "note_on", "time": 0, "note": 68, "velocity": 108, "channel": 0}, {"type": "note_off", "time": 400, "note": 68, "velocity": 108, "channel": 0}, {"type": "note_on", "time": 17, "note": 70, "velocity": 106, "channel": 0}, {"type": "note_off", "time": 165, "note": 70, "velocity": 106, "channel": 0}, {"type": "note_on", "time": 35, "note": 65, "velocity": 110, "channel": 0}, {"type": "note_off", "time": 215, "note": 65, "velocity": 110, "channel": 0}, {"type": "note_on", "time": 12, "note": 63, "velocity": 115, "channel": 0}, {"type": "note_off", "time": 642, "note": 63, "velocity": 115, "channel": 0}, {"type": "note_on", "time": 19, "note": 59, "velocity": 104, "channel": 0}, {"type": "note_off", "time": 212, "note": 59, "velocity": 104, "channel": 0}, {"type": "note_on", "time": 0, "note": 58, "velocity": 102, "channel": 0}, {"type": "note_off", "time": 212, "note": 58, "velocity": 102, "channel": 0}, {"type": "note_on", "time": 0, "note": 56, "velocity": 89, "channel": 0}, {"type": "note_off", "time": 503, "note": 56, "velocity": 89, "channel": 0}, {"type": "note_on", "time": 9508, "note": 76, "velocity": 126, "channel": 0}, {"type": "note_off", "time": 199, "note": 76, "velocity": 126, "channel": 0}, {"type": "note_on", "time": 17, "note": 77, "velocity": 122, "channel": 0}, {"type": "note_off", "time": 193, "note": 77, "velocity": 122, "channel": 0}, {"type": "note_on", "time": 0, "note": 78, "velocity": 117, "channel": 0}, {"type": "note_off", "time": 189, "note": 78, "velocity": 117, "channel": 0}, {"type": "note_on", "time": 15, "note": 77, "velocity": 120, "channel": 0}, {"type": "note_off", "time": 122, "note": 77, "velocity": 120, "channel": 0}, {"type": "note_on", "time": 122, "note": 77, "velocity": 112, "channel": 0}, {"type": "note_off", "time": 513, "note": 77, "velocity": 112, "channel": 0}, {"type": "note_on", "time": 97, "note": 75, "velocity": 110, "channel": 0}, {"type": "note_off", "time": 279, "note": 75, "velocity": 110, "channel": 0}, {"type": "note_on", "time": 161, "note": 75, "velocity": 112, "channel": 0}, {"type": "note_off", "time": 287, "note": 75, "velocity": 112, "channel": 0}, {"type": "note_on", "time": 15, "note": 73, "velocity": 111, "channel": 0}, {"type": "note_off", "time": 167, "note": 73, "velocity": 111, "channel": 0}, {"type": "note_on", "time": 493, "note": 77, "velocity": 114, "channel": 0}, {"type": "note_off", "time": 124, "note": 77, "velocity": 114, "channel": 0}, {"type": "note_on", "time": 0, "note": 75, "velocity": 105, "channel": 0}, {"type": "note_off", "time": 656, "note": 75, "velocity": 105, "channel": 0}, {"type": "note_on", "time": 0, "note": 72, "velocity": 106, "channel": 0}, {"type": "note_off", "time": 316, "note": 72, "velocity": 106, "channel": 0}, {"type": "note_on", "time": 124, "note": 75, "velocity": 109, "channel": 0}, {"type": "note_off", "time": 169, "note": 75, "velocity": 109, "channel": 0}, {"type": "note_on", "time": 11, "note": 73, "velocity": 109, "channel": 0}, {"type": "note_off", "time": 252, "note": 73, "velocity": 109, "channel": 0}, {"type": "note_on", "time": 0, "note": 69, "velocity": 111, "channel": 0}, {"type": "note_off", "time": 238, "note": 69, "velocity": 111, "channel": 0}, {"type": "note_on", "time": 194, "note": 72, "velocity": 110, "channel": 0}, {"type": "note_off", "time": 141, "note": 72, "velocity": 110, "channel": 0}, {"type": "note_on", "time": 0, "note": 70, "velocity": 107, "channel": 0}, {"type": "note_off", "time": 208, "note": 70, "velocity": 107, "channel": 0}, {"type": "note_on", "time": 45, "note": 67, "velocity": 107, "channel": 0}, {"type": "note_off", "time": 193, "note": 67, "velocity": 107, "channel": 0}, {"type": "note_on", "time": 0, "note": 63, "velocity": 111, "channel": 0}, {"type": "note_off", "time": 242, "note": 63, "velocity": 111, "channel": 0}, {"type": "note_on", "time": 0, "note": 60, "velocity": 98, "channel": 0}, {"type": "note_off", "time": 177, "note": 60, "velocity": 98, "channel": 0}, {"type": "note_on", "time": 16, "note": 69, "velocity": 116, "channel": 0}, {"type": "note_off", "time": 224, "note": 69, "velocity": 116, "channel": 0}, {"type": "note_on", "time": 0, "note": 72, "velocity": 105, "channel": 0}, {"type": "note_off", "time": 141, "note": 72, "velocity": 105, "channel": 0}, {"type": "note_on", "time": 13, "note": 71, "velocity": 97, "channel": 0}, {"type": "note_off", "time": 1097, "note": 71, "velocity": 97, "channel": 0}, {"type": "note_on", "time": 8, "note": 67, "velocity": 94, "channel": 0}, {"type": "note_off", "time": 167, "note": 67, "velocity": 94, "channel": 0}, {"type": "note_on", "time": 9, "note": 70, "velocity": 108, "channel": 0}, {"type": "note_off", "time": 213, "note": 70, "velocity": 108, "channel": 0}, {"type": "note_on", "time": 22, "note": 69, "velocity": 109, "channel": 0}, {"type": "note_off", "time": 212, "note": 69, "velocity": 109, "channel": 0}, {"type": "note_on", "time": 0, "note": 68, "velocity": 103, "channel": 0}, {"type": "note_off", "time": 221, "note": 68, "velocity": 103, "channel": 0}, {"type": "note_on", "time": 26, "note": 58, "velocity": 113, "channel": 0}, {"type": "note_off", "time": 185, "note": 58, "velocity": 113, "channel": 0}, {"type": "note_on", "time": 3, "note": 59, "velocity": 93, "channel": 0}, {"type": "note_off", "time": 180, "note": 59, "velocity": 93, "channel": 0}, {"type": "note_on", "time": 4, "note": 68, "velocity": 109, "channel": 0}, {"type": "note_off", "time": 163, "note": 68, "velocity": 109, "channel": 0}, {"type": "note_on", "time": 45, "note": 63, "velocity": 104, "channel": 0}, {"type": "note_off", "time": 193, "note": 63, "velocity": 104, "channel": 0}, {"type": "note_on", "time": 35, "note": 60, "velocity": 100, "channel": 0}, {"type": "note_off", "time": 136, "note": 60, "velocity": 100, "channel": 0}, {"type": "note_on", "time": 68, "note": 67, "velocity": 104, "channel": 0}, {"type": "note_on", "time": 358, "note": 73, "velocity": 104, "channel": 0}, {"type": "note_off", "time": 0, "note": 67, "velocity": 104, "channel": 0}, {"type": "note_off", "time": 323, "note": 73, "velocity": 104, "channel": 0}, {"type": "note_on", "time": 0, "note": 68, "velocity": 105, "channel": 0}, {"type": "note_off", "time": 828, "note": 68, "velocity": 105, "channel": 0}, {"type": "note_on", "time": 19, "note": 72, "velocity": 105, "channel": 0}, {"type": "note_off", "time": 139, "note": 72, "velocity": 105, "channel": 0}, {"type": "note_on", "time": 42, "note": 70, "velocity": 103, "channel": 0}, {"type": "note_off", "time": 176, "note": 70, "velocity": 103, "channel": 0}, {"type": "note_on", "time": 21, "note": 67, "velocity": 105, "channel": 0}, {"type": "note_off", "time": 152, "note": 67, "velocity": 105, "channel": 0}, {"type": "note_on", "time": 44, "note": 63, "velocity": 106, "channel": 0}, {"type": "note_off", "time": 178, "note": 63, "velocity": 106, "channel": 0}, {"type": "note_on", "time": 22, "note": 60, "velocity": 95, "channel": 0}, {"type": "note_off", "time": 201, "note": 60, "velocity": 95, "channel": 0}, {"type": "note_on", "time": 34, "note": 69, "velocity": 110, "channel": 0}, {"type": "note_off", "time": 343, "note": 69, "velocity": 110, "channel": 0}, {"type": "note_on", "time": 341, "note": 63, "velocity": 110, "channel": 0}, {"type": "note_off", "time": 121, "note": 63, "velocity": 110, "channel": 0}, {"type": "note_on", "time": 104, "note": 63, "velocity": 88, "channel": 0}, {"type": "note_off", "time": 637, "note": 63, "velocity": 88, "channel": 0}, {"type": "note_on", "time": 2325, "note": 60, "velocity": 100, "channel": 0}, {"type": "note_off", "time": 220, "note": 60, "velocity": 100, "channel": 0}, {"type": "note_on", "time": 3, "note": 62, "velocity": 107, "channel": 0}, {"type": "note_off", "time": 189, "note": 62, "velocity": 107, "channel": 0}, {"type": "note_on", "time": 0, "note": 57, "velocity": 102, "channel": 0}, {"type": "note_off", "time": 201, "note": 57, "velocity": 102, "channel": 0}, {"type": "note_on", "time": 0, "note": 62, "velocity": 110, "channel": 0}, {"type": "note_off", "time": 168, "note": 62, "velocity": 110, "channel": 0}, {"type": "note_on", "time": 0, "note": 58, "velocity": 100, "channel": 0}, {"type": "note_off", "time": 264, "note": 58, "velocity": 100, "channel": 0}, {"type": "note_on", "time": 0, "note": 59, "velocity": 112, "channel": 0}, {"type": "note_off", "time": 189, "note": 59, "velocity": 112, "channel": 0}, {"type": "note_on", "time": 0, "note": 62, "velocity": 114, "channel": 0}, {"type": "note_off", "time": 220, "note": 62, "velocity": 114, "channel": 0}, {"type": "note_on", "time": 0, "note": 66, "velocity": 113, "channel": 0}, {"type": "note_off", "time": 134, "note": 66, "velocity": 113, "channel": 0}, {"type": "note_on", "time": 90, "note": 69, "velocity": 117, "channel": 0}, {"type": "note_off", "time": 201, "note": 69, "velocity": 117, "channel": 0}, {"type": "note_on", "time": 0, "note": 70, "velocity": 113, "channel": 0}, {"type": "note_off", "time": 220, "note": 70, "velocity": 113, "channel": 0}, {"type": "note_on", "time": 0, "note": 71, "velocity": 98, "channel": 0}, {"type": "note_off", "time": 204, "note": 71, "velocity": 98, "channel": 0}, {"type": "note_on", "time": 0, "note": 73, "velocity": 113, "channel": 0}, {"type": "note_off", "time": 216, "note": 73, "velocity": 113, "channel": 0}, {"type": "note_on", "time": 0, "note": 75, "velocity": 116, "channel": 0}, {"type": "note_off", "time": 151, "note": 75, "velocity": 116, "channel": 0}, {"type": "note_on", "time": 41, "note": 76, "velocity": 122, "channel": 0}, {"type": "note_off", "time": 228, "note": 76, "velocity": 122, "channel": 0}, {"type": "note_on", "time": 39, "note": 77, "velocity": 116, "channel": 0}, {"type": "note_off", "time": 208, "note": 77, "velocity": 116, "channel": 0}, {"type": "note_on", "time": 12, "note": 76, "velocity": 120, "channel": 0}, {"type": "note_off", "time": 187, "note": 76, "velocity": 120, "channel": 0}, {"type": "note_on", "time": 5, "note": 73, "velocity": 108, "channel": 0}, {"type": "note_off", "time": 197, "note": 73, "velocity": 108, "channel": 0}, {"type": "note_on", "time": 0, "note": 72, "velocity": 106, "channel": 0}, {"type": "note_off", "time": 216, "note": 72, "velocity": 106, "channel": 0}, {"type": "note_on", "time": 11, "note": 70, "velocity": 108, "channel": 0}, {"type": "note_on", "time": 232, "note": 69, "velocity": 111, "channel": 0}, {"type": "note_off", "time": 0, "note": 70, "velocity": 108, "channel": 0}, {"type": "note_off", "time": 197, "note": 69, "velocity": 111, "channel": 0}, {"type": "note_on", "time": 220, "note": 72, "velocity": 112, "channel": 0}, {"type": "note_off", "time": 177, "note": 72, "velocity": 112, "channel": 0}, {"type": "note_on", "time": 0, "note": 68, "velocity": 110, "channel": 0}, {"type": "note_off", "time": 230, "note": 68, "velocity": 110, "channel": 0}, {"type": "note_on", "time": 30, "note": 72, "velocity": 113, "channel": 0}, {"type": "note_off", "time": 173, "note": 72, "velocity": 113, "channel": 0}, {"type": "note_on", "time": 7, "note": 70, "velocity": 121, "channel": 0}, {"type": "note_off", "time": 155, "note": 70, "velocity": 121, "channel": 0}, {"type": "note_on", "time": 57, "note": 65, "velocity": 104, "channel": 0}, {"type": "note_off", "time": 174, "note": 65, "velocity": 104, "channel": 0}, {"type": "note_on", "time": 11, "note": 68, "velocity": 113, "channel": 0}, {"type": "note_off", "time": 212, "note": 68, "velocity": 113, "channel": 0}, {"type": "note_on", "time": 0, "note": 67, "velocity": 110, "channel": 0}, {"type": "note_off", "time": 171, "note": 67, "velocity": 110, "channel": 0}, {"type": "note_on", "time": 25, "note": 63, "velocity": 114, "channel": 0}, {"type": "note_off", "time": 220, "note": 63, "velocity": 114, "channel": 0}, {"type": "note_on", "time": 0, "note": 60, "velocity": 102, "channel": 0}, {"type": "note_off", "time": 201, "note": 60, "velocity": 102, "channel": 0}, {"type": "note_on", "time": 0, "note": 67, "velocity": 107, "channel": 0}, {"type": "note_off", "time": 394, "note": 67, "velocity": 107, "channel": 0}, {"type": "note_on", "time": 19, "note": 65, "velocity": 105, "channel": 0}, {"type": "note_off", "time": 188, "note": 65, "velocity": 105, "channel": 0}, {"type": "note_on", "time": 20, "note": 61, "velocity": 107, "channel": 0}, {"type": "note_off", "time": 693, "note": 61, "velocity": 107, "channel": 0}, {"type": "note_on", "time": 3, "note": 65, "velocity": 108, "channel": 0}, {"type": "note_off", "time": 232, "note": 65, "velocity": 108, "channel": 0}, {"type": "note_on", "time": 0, "note": 63, "velocity": 106, "channel": 0}, {"type": "note_off", "time": 421, "note": 63, "velocity": 106, "channel": 0}, {"type": "note_on", "time": 169, "note": 58, "velocity": 100, "channel": 0}, {"type": "note_off", "time": 185, "note": 58, "velocity": 100, "channel": 0}, {"type": "note_on", "time": 0, "note": 63, "velocity": 108, "channel": 0}, {"type": "note_off", "time": 145, "note": 63, "velocity": 108, "channel": 0}, {"type": "note_on", "time": 70, "note": 61, "velocity": 100, "channel": 0}, {"type": "note_off", "time": 354, "note": 61, "velocity": 100, "channel": 0}, {"type": "note_on", "time": 74, "note": 55, "velocity": 98, "channel": 0}, {"type": "note_off", "time": 222, "note": 55, "velocity": 98, "channel": 0}, {"type": "note_on", "time": 17, "note": 60, "velocity": 102, "channel": 0}, {"type": "note_off", "time": 177, "note": 60, "velocity": 102, "channel": 0}, {"type": "note_on", "time": 0, "note": 58, "velocity": 93, "channel": 0}, {"type": "note_off", "time": 382, "note": 58, "velocity": 93, "channel": 0}, {"type": "note_on", "time": 0, "note": 53, "velocity": 98, "channel": 0}, {"type": "note_off", "time": 175, "note": 53, "velocity": 98, "channel": 0}, {"type": "note_on", "time": 17, "note": 56, "velocity": 104, "channel": 0}, {"type": "note_off", "time": 208, "note": 56, "velocity": 104, "channel": 0}, {"type": "note_on", "time": 0, "note": 55, "velocity": 94, "channel": 0}, {"type": "note_off", "time": 311, "note": 55, "velocity": 94, "channel": 0}, {"type": "note_on", "time": 0, "note": 53, "velocity": 102, "channel": 0}, {"type": "note_off", "time": 106, "note": 53, "velocity": 102, "channel": 0}, {"type": "note_on", "time": 0, "note": 58, "velocity": 105, "channel": 0}, {"type": "note_off", "time": 453, "note": 58, "velocity": 105, "channel": 0}, {"type": "note_on", "time": 4, "note": 60, "velocity": 92, "channel": 0}, {"type": "note_off", "time": 429, "note": 60, "velocity": 92, "channel": 0}, {"type": "note_on", "time": 0, "note": 53, "velocity": 96, "channel": 0}, {"type": "note_off", "time": 1546, "note": 53, "velocity": 96, "channel": 0}, {"type": "note_on", "time": 3530, "note": 53, "velocity": 105, "channel": 0}, {"type": "note_off", "time": 484, "note": 53, "velocity": 105, "channel": 0}, {"type": "note_on", "time": 0, "note": 51, "velocity": 114, "channel": 0}, {"type": "note_off", "time": 370, "note": 51, "velocity": 114, "channel": 0}, {"type": "note_on", "time": 0, "note": 53, "velocity": 93, "channel": 0}, {"type": "note_off", "time": 1354, "note": 53, "velocity": 93, "channel": 0}, {"type": "note_on", "time": 2882, "note": 53, "velocity": 109, "channel": 0}, {"type": "note_off", "time": 475, "note": 53, "velocity": 109, "channel": 0}, {"type": "note_on", "time": 13, "note": 51, "velocity": 108, "channel": 0}, {"type": "note_off", "time": 386, "note": 51, "velocity": 108, "channel": 0}, {"type": "note_on", "time": 0, "note": 53, "velocity": 94, "channel": 0}, {"type": "note_off", "time": 1175, "note": 53, "velocity": 94, "channel": 0}, {"type": "note_on", "time": 3101, "note": 65, "velocity": 109, "channel": 0}, {"type": "note_off", "time": 400, "note": 65, "velocity": 109, "channel": 0}, {"type": "note_on", "time": 44, "note": 63, "velocity": 107, "channel": 0}, {"type": "note_off", "time": 394, "note": 63, "velocity": 107, "channel": 0}, {"type": "note_on", "time": 0, "note": 65, "velocity": 96, "channel": 0}, {"type": "note_off", "time": 943, "note": 65, "velocity": 96, "channel": 0}, {"type": "note_on", "time": 2056, "note": 70, "velocity": 111, "channel": 0}, {"type": "note_off", "time": 162, "note": 70, "velocity": 111, "channel": 0}, {"type": "note_on", "time": 15, "note": 69, "velocity": 109, "channel": 0}, {"type": "note_off", "time": 181, "note": 69, "velocity": 109, "channel": 0}, {"type": "note_on", "time": 0, "note": 68, "velocity": 112, "channel": 0}, {"type": "note_off", "time": 201, "note": 68, "velocity": 112, "channel": 0}, {"type": "note_on", "time": 0, "note": 67, "velocity": 110, "channel": 0}, {"type": "note_off", "time": 239, "note": 67, "velocity": 110, "channel": 0}, {"type": "note_on", "time": 12, "note": 66, "velocity": 107, "channel": 0}, {"type": "note_off", "time": 224, "note": 66, "velocity": 107, "channel": 0}, {"type": "note_on", "time": 0, "note": 61, "velocity": 114, "channel": 0}, {"type": "note_off", "time": 173, "note": 61, "velocity": 114, "channel": 0}, {"type": "note_on", "time": 0, "note": 58, "velocity": 113, "channel": 0}, {"type": "note_off", "time": 224, "note": 58, "velocity": 113, "channel": 0}, {"type": "note_on", "time": 0, "note": 57, "velocity": 102, "channel": 0}, {"type": "note_off", "time": 177, "note": 57, "velocity": 102, "channel": 0}, {"type": "note_on", "time": 27, "note": 56, "velocity": 103, "channel": 0}, {"type": "note_off", "time": 244, "note": 56, "velocity": 103, "channel": 0}, {"type": "note_on", "time": 3, "note": 54, "velocity": 106, "channel": 0}, {"type": "note_off", "time": 201, "note": 54, "velocity": 106, "channel": 0}, {"type": "note_on", "time": 0, "note": 53, "velocity": 102, "channel": 0}, {"type": "note_off", "time": 204, "note": 53, "velocity": 102, "channel": 0}, {"type": "note_on", "time": 0, "note": 60, "velocity": 117, "channel": 0}, {"type": "note_off", "time": 204, "note": 60, "velocity": 117, "channel": 0}, {"type": "note_on", "time": 8, "note": 56, "velocity": 105, "channel": 0}, {"type": "note_off", "time": 354, "note": 56, "velocity": 105, "channel": 0}, {"type": "note_on", "time": 11, "note": 60, "velocity": 93, "channel": 0}, {"type": "note_off", "time": 2810, "note": 60, "velocity": 93, "channel": 0}, {"type": "note_on", "time": 122, "note": 55, "velocity": 94, "channel": 0}, {"type": "note_off", "time": 174, "note": 55, "velocity": 94, "channel": 0}, {"type": "note_on", "time": 57, "note": 60, "velocity": 100, "channel": 0}, {"type": "note_off", "time": 193, "note": 60, "velocity": 100, "channel": 0}, {"type": "note_on", "time": 197, "note": 55, "velocity": 103, "channel": 0}, {"type": "note_off", "time": 263, "note": 55, "velocity": 103, "channel": 0}, {"type": "note_on", "time": 0, "note": 60, "velocity": 104, "channel": 0}, {"type": "note_off", "time": 421, "note": 60, "velocity": 104, "channel": 0}, {"type": "note_on", "time": 0, "note": 55, "velocity": 98, "channel": 0}, {"type": "note_off", "time": 291, "note": 55, "velocity": 98, "channel": 0}, {"type": "note_on", "time": 15, "note": 60, "velocity": 96, "channel": 0}, {"type": "note_off", "time": 642, "note": 60, "velocity": 96, "channel": 0}, {"type": "note_on", "time": 0, "note": 55, "velocity": 79, "channel": 0}, {"type": "note_off", "time": 250, "note": 55, "velocity": 79, "channel": 0}, {"type": "note_on", "time": 474, "note": 58, "velocity": 99, "channel": 0}, {"type": "note_off", "time": 189, "note": 58, "velocity": 99, "channel": 0}, {"type": "note_on", "time": 0, "note": 60, "velocity": 98, "channel": 0}, {"type": "note_off", "time": 666, "note": 60, "velocity": 98, "channel": 0}, {"type": "note_on", "time": 7, "note": 55, "velocity": 99, "channel": 0}, {"type": "note_off", "time": 165, "note": 55, "velocity": 99, "channel": 0}, {"type": "note_on", "time": 0, "note": 60, "velocity": 104, "channel": 0}, {"type": "note_on", "time": 193, "note": 65, "velocity": 103, "channel": 0}, {"type": "note_off", "time": 0, "note": 60, "velocity": 104, "channel": 0}, {"type": "note_off", "time": 214, "note": 65, "velocity": 103, "channel": 0}, {"type": "note_on", "time": 10, "note": 72, "velocity": 106, "channel": 0}, {"type": "note_off", "time": 158, "note": 72, "velocity": 106, "channel": 0}, {"type": "note_on", "time": 34, "note": 67, "velocity": 110, "channel": 0}, {"type": "note_off", "time": 226, "note": 67, "velocity": 110, "channel": 0}, {"type": "note_on", "time": 171, "note": 60, "velocity": 104, "channel": 0}, {"type": "note_off", "time": 417, "note": 60, "velocity": 104, "channel": 0}, {"type": "note_on", "time": 0, "note": 65, "velocity": 106, "channel": 0}, {"type": "note_off", "time": 248, "note": 65, "velocity": 106, "channel": 0}, {"type": "note_on", "time": 23, "note": 72, "velocity": 111, "channel": 0}, {"type": "note_off", "time": 185, "note": 72, "velocity": 111, "channel": 0}, {"type": "note_on", "time": 0, "note": 67, "velocity": 111, "channel": 0}, {"type": "note_off", "time": 147, "note": 67, "velocity": 111, "channel": 0}, {"type": "note_on", "time": 81, "note": 72, "velocity": 108, "channel": 0}, {"type": "note_off", "time": 197, "note": 72, "velocity": 108, "channel": 0}, {"type": "note_on", "time": 239, "note": 72, "velocity": 105, "channel": 0}, {"type": "note_off", "time": 177, "note": 72, "velocity": 105, "channel": 0}, {"type": "note_on", "time": 0, "note": 70, "velocity": 104, "channel": 0}, {"type": "note_off", "time": 190, "note": 70, "velocity": 104, "channel": 0}, {"type": "note_on", "time": 6, "note": 65, "velocity": 106, "channel": 0}, {"type": "note_off", "time": 172, "note": 65, "velocity": 106, "channel": 0}, {"type": "note_on", "time": 0, "note": 60, "velocity": 101, "channel": 0}, {"type": "note_off", "time": 180, "note": 60, "velocity": 101, "channel": 0}, {"type": "note_on", "time": 48, "note": 67, "velocity": 103, "channel": 0}, {"type": "note_off", "time": 181, "note": 67, "velocity": 103, "channel": 0}, {"type": "note_on", "time": 0, "note": 72, "velocity": 105, "channel": 0}, {"type": "note_off", "time": 236, "note": 72, "velocity": 105, "channel": 0}, {"type": "note_on", "time": 0, "note": 70, "velocity": 102, "channel": 0}, {"type": "note_off", "time": 208, "note": 70, "velocity": 102, "channel": 0}, {"type": "note_on", "time": 12, "note": 65, "velocity": 127, "channel": 0}, {"type": "note_off", "time": 236, "note": 65, "velocity": 127, "channel": 0}, {"type": "note_on", "time": 3, "note": 63, "velocity": 108, "channel": 0}, {"type": "note_off", "time": 170, "note": 63, "velocity": 108, "channel": 0}, {"type": "note_on", "time": 10, "note": 69, "velocity": 109, "channel": 0}, {"type": "note_off", "time": 324, "note": 69, "velocity": 109, "channel": 0}, {"type": "note_on", "time": 69, "note": 62, "velocity": 95, "channel": 0}, {"type": "note_off", "time": 213, "note": 62, "velocity": 95, "channel": 0}, {"type": "note_on", "time": 0, "note": 67, "velocity": 107, "channel": 0}, {"type": "note_off", "time": 220, "note": 67, "velocity": 107, "channel": 0}, {"type": "note_on", "time": 8, "note": 64, "velocity": 106, "channel": 0}, {"type": "note_off", "time": 366, "note": 64, "velocity": 106, "channel": 0}, {"type": "note_on", "time": 51, "note": 68, "velocity": 105, "channel": 0}, {"type": "note_off", "time": 295, "note": 68, "velocity": 105, "channel": 0}, {"type": "note_on", "time": 181, "note": 61, "velocity": 102, "channel": 0}, {"type": "note_off", "time": 201, "note": 61, "velocity": 102, "channel": 0}, {"type": "note_on", "time": 0, "note": 67, "velocity": 104, "channel": 0}, {"type": "note_off", "time": 189, "note": 67, "velocity": 104, "channel": 0}, {"type": "note_on", "time": 0, "note": 62, "velocity": 105, "channel": 0}, {"type": "note_off", "time": 295, "note": 62, "velocity": 105, "channel": 0}, {"type": "note_on", "time": 99, "note": 66, "velocity": 103, "channel": 0}, {"type": "note_off", "time": 215, "note": 66, "velocity": 103, "channel": 0}, {"type": "note_on", "time": 185, "note": 63, "velocity": 98, "channel": 0}, {"type": "note_on", "time": 205, "note": 67, "velocity": 103, "channel": 0}, {"type": "note_off", "time": 0, "note": 63, "velocity": 98, "channel": 0}, {"type": "note_off", "time": 212, "note": 67, "velocity": 103, "channel": 0}, {"type": "note_on", "time": 0, "note": 64, "velocity": 103, "channel": 0}, {"type": "note_off", "time": 241, "note": 64, "velocity": 103, "channel": 0}, {"type": "note_on", "time": 12, "note": 66, "velocity": 105, "channel": 0}, {"type": "note_off", "time": 210, "note": 66, "velocity": 105, "channel": 0}, {"type": "note_on", "time": 0, "note": 73, "velocity": 101, "channel": 0}, {"type": "note_off", "time": 147, "note": 73, "velocity": 101, "channel": 0}, {"type": "note_on", "time": 72, "note": 73, "velocity": 98, "channel": 0}, {"type": "note_off", "time": 134, "note": 73, "velocity": 98, "channel": 0}, {"type": "note_on", "time": 0, "note": 69, "velocity": 100, "channel": 0}, {"type": "note_off", "time": 204, "note": 69, "velocity": 100, "channel": 0}, {"type": "note_on", "time": 27, "note": 71, "velocity": 91, "channel": 0}, {"type": "note_off", "time": 304, "note": 71, "velocity": 91, "channel": 0}, {"type": "note_on", "time": 598, "note": 69, "velocity": 101, "channel": 0}, {"type": "note_off", "time": 198, "note": 69, "velocity": 101, "channel": 0}, {"type": "note_on", "time": 0, "note": 70, "velocity": 98, "channel": 0}, {"type": "note_off", "time": 194, "note": 70, "velocity": 98, "channel": 0}, {"type": "note_on", "time": 0, "note": 68, "velocity": 100, "channel": 0}, {"type": "note_off", "time": 210, "note": 68, "velocity": 100, "channel": 0}, {"type": "note_on", "time": 0, "note": 63, "velocity": 106, "channel": 0}, {"type": "note_off", "time": 232, "note": 63, "velocity": 106, "channel": 0}, {"type": "note_on", "time": 91, "note": 68, "velocity": 106, "channel": 0}, {"type": "note_off", "time": 163, "note": 68, "velocity": 106, "channel": 0}, {"type": "note_on", "time": 69, "note": 67, "velocity": 103, "channel": 0}, {"type": "note_off", "time": 227, "note": 67, "velocity": 103, "channel": 0}, {"type": "note_on", "time": 209, "note": 62, "velocity": 101, "channel": 0}, {"type": "note_off", "time": 210, "note": 62, "velocity": 101, "channel": 0}, {"type": "note_on", "time": 5, "note": 61, "velocity": 104, "channel": 0}, {"type": "note_off", "time": 224, "note": 61, "velocity": 104, "channel": 0}, {"type": "note_on", "time": 0, "note": 68, "velocity": 103, "channel": 0}, {"type": "note_off", "time": 161, "note": 68, "velocity": 103, "channel": 0}, {"type": "note_on", "time": 0, "note": 67, "velocity": 100, "channel": 0}, {"type": "note_off", "time": 347, "note": 67, "velocity": 100, "channel": 0}, {"type": "note_on", "time": 52, "note": 60, "velocity": 94, "channel": 0}, {"type": "note_off", "time": 249, "note": 60, "velocity": 94, "channel": 0}, {"type": "note_on", "time": 11, "note": 58, "velocity": 112, "channel": 0}, {"type": "note_off", "time": 194, "note": 58, "velocity": 112, "channel": 0}, {"type": "note_on", "time": 35, "note": 65, "velocity": 90, "channel": 0}, {"type": "note_off", "time": 545, "note": 65, "velocity": 90, "channel": 0}, {"type": "note_on", "time": 8102, "note": 75, "velocity": 113, "channel": 0}, {"type": "note_off", "time": 213, "note": 75, "velocity": 113, "channel": 0}, {"type": "note_on", "time": 34, "note": 76, "velocity": 118, "channel": 0}, {"type": "note_off", "time": 145, "note": 76, "velocity": 118, "channel": 0}, {"type": "note_on", "time": 0, "note": 77, "velocity": 115, "channel": 0}, {"type": "note_on", "time": 106, "note": 78, "velocity": 90, "channel": 0}, {"type": "note_off", "time": 0, "note": 77, "velocity": 115, "channel": 0}, {"type": "note_off", "time": 890, "note": 78, "velocity": 90, "channel": 0}, {"type": "note_on", "time": 0, "note": 77, "velocity": 116, "channel": 0}, {"type": "note_off", "time": 134, "note": 77, "velocity": 116, "channel": 0}, {"type": "note_on", "time": 0, "note": 76, "velocity": 121, "channel": 0}, {"type": "note_off", "time": 98, "note": 76, "velocity": 121, "channel": 0}, {"type": "note_on", "time": 0, "note": 75, "velocity": 92, "channel": 0}, {"type": "note_off", "time": 670, "note": 75, "velocity": 92, "channel": 0}, {"type": "note_on", "time": 122, "note": 76, "velocity": 119, "channel": 0}, {"type": "note_off", "time": 106, "note": 76, "velocity": 119, "channel": 0}, {"type": "note_on", "time": 0, "note": 77, "velocity": 119, "channel": 0}, {"type": "note_off", "time": 119, "note": 77, "velocity": 119, "channel": 0}, {"type": "note_on", "time": 3, "note": 78, "velocity": 111, "channel": 0}, {"type": "note_off", "time": 252, "note": 78, "velocity": 111, "channel": 0}, {"type": "note_on", "time": 0, "note": 77, "velocity": 116, "channel": 0}, {"type": "note_on", "time": 110, "note": 76, "velocity": 118, "channel": 0}, {"type": "note_off", "time": 0, "note": 77, "velocity": 116, "channel": 0}, {"type": "note_off", "time": 110, "note": 76, "velocity": 118, "channel": 0}, {"type": "note_on", "time": 0, "note": 75, "velocity": 91, "channel": 0}, {"type": "note_off", "time": 638, "note": 75, "velocity": 91, "channel": 0}, {"type": "note_on", "time": 1961, "note": 72, "velocity": 108, "channel": 0}, {"type": "note_off", "time": 265, "note": 72, "velocity": 108, "channel": 0}, {"type": "note_on", "time": 125, "note": 76, "velocity": 9, "channel": 0}, {"type": "note_off", "time": 161, "note": 76, "velocity": 9, "channel": 0}, {"type": "note_on", "time": 0, "note": 77, "velocity": 12, "channel": 0}, {"type": "note_off", "time": 201, "note": 77, "velocity": 12, "channel": 0}, {"type": "note_on", "time": 0, "note": 76, "velocity": 118, "channel": 0}, {"type": "note_off", "time": 177, "note": 76, "velocity": 118, "channel": 0}, {"type": "note_on", "time": 7, "note": 74, "velocity": 117, "channel": 0}, {"type": "note_off", "time": 152, "note": 74, "velocity": 117, "channel": 0}, {"type": "note_on", "time": 79, "note": 74, "velocity": 108, "channel": 0}, {"type": "note_off", "time": 67, "note": 74, "velocity": 108, "channel": 0}, {"type": "note_on", "time": 70, "note": 74, "velocity": 116, "channel": 0}, {"type": "note_off", "time": 201, "note": 74, "velocity": 116, "channel": 0}, {"type": "note_on", "time": 11, "note": 73, "velocity": 110, "channel": 0}, {"type": "note_off", "time": 240, "note": 73, "velocity": 110, "channel": 0}, {"type": "note_on", "time": 274, "note": 73, "velocity": 113, "channel": 0}, {"type": "note_off", "time": 198, "note": 73, "velocity": 113, "channel": 0}, {"type": "note_on", "time": 0, "note": 72, "velocity": 112, "channel": 0}, {"type": "note_off", "time": 284, "note": 72, "velocity": 112, "channel": 0}, {"type": "note_on", "time": 133, "note": 70, "velocity": 110, "channel": 0}, {"type": "note_off", "time": 172, "note": 70, "velocity": 110, "channel": 0}, {"type": "note_on", "time": 0, "note": 75, "velocity": 110, "channel": 0}, {"type": "note_off", "time": 208, "note": 75, "velocity": 110, "channel": 0}, {"type": "note_on", "time": 15, "note": 73, "velocity": 113, "channel": 0}, {"type": "note_off", "time": 145, "note": 73, "velocity": 113, "channel": 0}, {"type": "note_on", "time": 75, "note": 69, "velocity": 94, "channel": 0}, {"type": "note_off", "time": 197, "note": 69, "velocity": 94, "channel": 0}, {"type": "note_on", "time": 0, "note": 70, "velocity": 108, "channel": 0}, {"type": "note_off", "time": 180, "note": 70, "velocity": 108, "channel": 0}, {"type": "note_on", "time": 20, "note": 73, "velocity": 112, "channel": 0}, {"type": "note_off", "time": 169, "note": 73, "velocity": 112, "channel": 0}, {"type": "note_on", "time": 7, "note": 72, "velocity": 109, "channel": 0}, {"type": "note_off", "time": 200, "note": 72, "velocity": 109, "channel": 0}, {"type": "note_on", "time": 35, "note": 71, "velocity": 108, "channel": 0}, {"type": "note_off", "time": 181, "note": 71, "velocity": 108, "channel": 0}, {"type": "note_on", "time": 0, "note": 69, "velocity": 112, "channel": 0}, {"type": "note_off", "time": 721, "note": 69, "velocity": 112, "channel": 0}, {"type": "note_on", "time": 0, "note": 71, "velocity": 103, "channel": 0}, {"type": "note_off", "time": 185, "note": 71, "velocity": 103, "channel": 0}, {"type": "note_on", "time": 0, "note": 70, "velocity": 109, "channel": 0}, {"type": "note_off", "time": 171, "note": 70, "velocity": 109, "channel": 0}, {"type": "note_on", "time": 32, "note": 69, "velocity": 102, "channel": 0}, {"type": "note_off", "time": 186, "note": 69, "velocity": 102, "channel": 0}, {"type": "note_on", "time": 3, "note": 68, "velocity": 112, "channel": 0}, {"type": "note_off", "time": 204, "note": 68, "velocity": 112, "channel": 0}, {"type": "note_on", "time": 21, "note": 65, "velocity": 111, "channel": 0}, {"type": "note_off", "time": 179, "note": 65, "velocity": 111, "channel": 0}, {"type": "note_on", "time": 0, "note": 61, "velocity": 118, "channel": 0}, {"type": "note_off", "time": 146, "note": 61, "velocity": 118, "channel": 0}, {"type": "note_on", "time": 217, "note": 67, "velocity": 112, "channel": 0}, {"type": "note_off", "time": 226, "note": 67, "velocity": 112, "channel": 0}, {"type": "note_on", "time": 10, "note": 70, "velocity": 108, "channel": 0}, {"type": "note_off", "time": 194, "note": 70, "velocity": 108, "channel": 0}, {"type": "note_on", "time": 22, "note": 69, "velocity": 111, "channel": 0}, {"type": "note_off", "time": 194, "note": 69, "velocity": 111, "channel": 0}, {"type": "note_on", "time": 22, "note": 65, "velocity": 106, "channel": 0}, {"type": "note_off", "time": 201, "note": 65, "velocity": 106, "channel": 0}, {"type": "note_on", "time": 0, "note": 63, "velocity": 99, "channel": 0}, {"type": "note_off", "time": 494, "note": 63, "velocity": 99, "channel": 0}, {"type": "note_on", "time": 707, "note": 60, "velocity": 100, "channel": 0}, {"type": "note_off", "time": 569, "note": 60, "velocity": 100, "channel": 0}, {"type": "note_on", "time": 21, "note": 61, "velocity": 107, "channel": 0}, {"type": "note_off", "time": 159, "note": 61, "velocity": 107, "channel": 0}, {"type": "note_on", "time": 69, "note": 57, "velocity": 100, "channel": 0}, {"type": "note_off", "time": 185, "note": 57, "velocity": 100, "channel": 0}, {"type": "note_on", "time": 0, "note": 60, "velocity": 105, "channel": 0}, {"type": "note_off", "time": 187, "note": 60, "velocity": 105, "channel": 0}, {"type": "note_on", "time": 17, "note": 59, "velocity": 95, "channel": 0}, {"type": "note_off", "time": 350, "note": 59, "velocity": 95, "channel": 0}, {"type": "note_on", "time": 55, "note": 55, "velocity": 92, "channel": 0}, {"type": "note_off", "time": 238, "note": 55, "velocity": 92, "channel": 0}, {"type": "note_on", "time": 0, "note": 57, "velocity": 111, "channel": 0}, {"type": "note_off", "time": 198, "note": 57, "velocity": 111, "channel": 0}, {"type": "note_on", "time": 0, "note": 59, "velocity": 106, "channel": 0}, {"type": "note_off", "time": 185, "note": 59, "velocity": 106, "channel": 0}, {"type": "note_on", "time": 0, "note": 64, "velocity": 114, "channel": 0}, {"type": "note_off", "time": 203, "note": 64, "velocity": 114, "channel": 0}, {"type": "note_on", "time": 16, "note": 66, "velocity": 106, "channel": 0}, {"type": "note_off", "time": 232, "note": 66, "velocity": 106, "channel": 0}, {"type": "note_on", "time": 0, "note": 63, "velocity": 106, "channel": 0}, {"type": "note_off", "time": 417, "note": 63, "velocity": 106, "channel": 0}, {"type": "note_on", "time": 0, "note": 67, "velocity": 112, "channel": 0}, {"type": "note_off", "time": 157, "note": 67, "velocity": 112, "channel": 0}, {"type": "note_on", "time": 0, "note": 64, "velocity": 111, "channel": 0}, {"type": "note_off", "time": 220, "note": 64, "velocity": 111, "channel": 0}, {"type": "note_on", "time": 0, "note": 66, "velocity": 105, "channel": 0}, {"type": "note_off", "time": 229, "note": 66, "velocity": 105, "channel": 0}, {"type": "note_on", "time": 0, "note": 68, "velocity": 111, "channel": 0}, {"type": "note_off", "time": 243, "note": 68, "velocity": 111, "channel": 0}, {"type": "note_on", "time": 0, "note": 67, "velocity": 104, "channel": 0}, {"type": "note_off", "time": 291, "note": 67, "velocity": 104, "channel": 0}, {"type": "note_on", "time": 69, "note": 62, "velocity": 100, "channel": 0}, {"type": "note_off", "time": 376, "note": 62, "velocity": 100, "channel": 0}, {"type": "note_on", "time": 11, "note": 64, "velocity": 106, "channel": 0}, {"type": "note_off", "time": 180, "note": 64, "velocity": 106, "channel": 0}, {"type": "note_on", "time": 67, "note": 67, "velocity": 106, "channel": 0}, {"type": "note_off", "time": 204, "note": 67, "velocity": 106, "channel": 0}, {"type": "note_on", "time": 0, "note": 69, "velocity": 111, "channel": 0}, {"type": "note_off", "time": 202, "note": 69, "velocity": 111, "channel": 0}, {"type": "note_on", "time": 29, "note": 68, "velocity": 110, "channel": 0}, {"type": "note_off", "time": 158, "note": 68, "velocity": 110, "channel": 0}, {"type": "note_on", "time": 0, "note": 70, "velocity": 99, "channel": 0}, {"type": "note_off", "time": 138, "note": 70, "velocity": 99, "channel": 0}, {"type": "note_on", "time": 31, "note": 69, "velocity": 103, "channel": 0}, {"type": "note_off", "time": 685, "note": 69, "velocity": 103, "channel": 0}, {"type": "note_on", "time": 0, "note": 71, "velocity": 98, "channel": 0}, {"type": "note_off", "time": 306, "note": 71, "velocity": 98, "channel": 0}, {"type": "note_on", "time": 64, "note": 69, "velocity": 108, "channel": 0}, {"type": "note_off", "time": 101, "note": 69, "velocity": 108, "channel": 0}, {"type": "note_on", "time": 99, "note": 72, "velocity": 111, "channel": 0}, {"type": "note_off", "time": 210, "note": 72, "velocity": 111, "channel": 0}, {"type": "note_on", "time": 6, "note": 70, "velocity": 108, "channel": 0}, {"type": "note_off", "time": 185, "note": 70, "velocity": 108, "channel": 0}, {"type": "note_on", "time": 7, "note": 69, "velocity": 110, "channel": 0}, {"type": "note_off", "time": 161, "note": 69, "velocity": 110, "channel": 0}, {"type": "note_on", "time": 23, "note": 68, "velocity": 109, "channel": 0}, {"type": "note_off", "time": 425, "note": 68, "velocity": 109, "channel": 0}, {"type": "note_on", "time": 18, "note": 66, "velocity": 106, "channel": 0}, {"type": "note_off", "time": 189, "note": 66, "velocity": 106, "channel": 0}, {"type": "note_on", "time": 0, "note": 63, "velocity": 105, "channel": 0}, {"type": "note_off", "time": 399, "note": 63, "velocity": 105, "channel": 0}, {"type": "note_on", "time": 0, "note": 66, "velocity": 106, "channel": 0}, {"type": "note_off", "time": 194, "note": 66, "velocity": 106, "channel": 0}, {"type": "note_on", "time": 3, "note": 68, "velocity": 109, "channel": 0}, {"type": "note_off", "time": 197, "note": 68, "velocity": 109, "channel": 0}, {"type": "note_on", "time": 0, "note": 67, "velocity": 107, "channel": 0}, {"type": "note_off", "time": 376, "note": 67, "velocity": 107, "channel": 0}, {"type": "note_on", "time": 69, "note": 63, "velocity": 114, "channel": 0}, {"type": "note_on", "time": 184, "note": 67, "velocity": 107, "channel": 0}, {"type": "note_off", "time": 0, "note": 63, "velocity": 114, "channel": 0}, {"type": "note_off", "time": 197, "note": 67, "velocity": 107, "channel": 0}, {"type": "note_on", "time": 0, "note": 66, "velocity": 99, "channel": 0}, {"type": "note_off", "time": 331, "note": 66, "velocity": 99, "channel": 0}, {"type": "note_on", "time": 50, "note": 62, "velocity": 109, "channel": 0}, {"type": "note_off", "time": 236, "note": 62, "velocity": 109, "channel": 0}, {"type": "note_on", "time": 0, "note": 65, "velocity": 108, "channel": 0}, {"type": "note_off", "time": 142, "note": 65, "velocity": 108, "channel": 0}, {"type": "note_on", "time": 39, "note": 64, "velocity": 111, "channel": 0}, {"type": "note_off", "time": 183, "note": 64, "velocity": 111, "channel": 0}, {"type": "note_on", "time": 91, "note": 65, "velocity": 103, "channel": 0}, {"type": "note_off", "time": 261, "note": 65, "velocity": 103, "channel": 0}, {"type": "note_on", "time": 109, "note": 66, "velocity": 104, "channel": 0}, {"type": "note_off", "time": 168, "note": 66, "velocity": 104, "channel": 0}, {"type": "note_on", "time": 4, "note": 63, "velocity": 112, "channel": 0}, {"type": "note_off", "time": 204, "note": 63, "velocity": 112, "channel": 0}, {"type": "note_on", "time": 0, "note": 58, "velocity": 99, "channel": 0}, {"type": "note_off", "time": 180, "note": 58, "velocity": 99, "channel": 0}, {"type": "note_on", "time": 52, "note": 54, "velocity": 94, "channel": 0}, {"type": "note_off", "time": 201, "note": 54, "velocity": 94, "channel": 0}, {"type": "note_on", "time": 0, "note": 62, "velocity": 109, "channel": 0}, {"type": "note_off", "time": 156, "note": 62, "velocity": 109, "channel": 0}, {"type": "note_on", "time": 28, "note": 61, "velocity": 107, "channel": 0}, {"type": "note_off", "time": 224, "note": 61, "velocity": 107, "channel": 0}, {"type": "note_on", "time": 8, "note": 63, "velocity": 106, "channel": 0}, {"type": "note_off", "time": 169, "note": 63, "velocity": 106, "channel": 0}, {"type": "note_on", "time": 0, "note": 59, "velocity": 100, "channel": 0}, {"type": "note_off", "time": 171, "note": 59, "velocity": 100, "channel": 0}, {"type": "note_on", "time": 541, "note": 57, "velocity": 106, "channel": 0}, {"type": "note_off", "time": 158, "note": 57, "velocity": 106, "channel": 0}, {"type": "note_on", "time": 3, "note": 58, "velocity": 106, "channel": 0}, {"type": "note_off", "time": 110, "note": 58, "velocity": 106, "channel": 0}, {"type": "note_on", "time": 27, "note": 57, "velocity": 102, "channel": 0}, {"type": "note_off", "time": 126, "note": 57, "velocity": 102, "channel": 0}, {"type": "note_on", "time": 74, "note": 56, "velocity": 98, "channel": 0}, {"type": "note_off", "time": 202, "note": 56, "velocity": 98, "channel": 0}, {"type": "note_on", "time": 49, "note": 58, "velocity": 105, "channel": 0}, {"type": "note_off", "time": 118, "note": 58, "velocity": 105, "channel": 0}, {"type": "note_on", "time": 39, "note": 59, "velocity": 96, "channel": 0}, {"type": "note_off", "time": 197, "note": 59, "velocity": 96, "channel": 0}, {"type": "note_on", "time": 0, "note": 68, "velocity": 107, "channel": 0}, {"type": "note_off", "time": 212, "note": 68, "velocity": 107, "channel": 0}, {"type": "note_on", "time": 0, "note": 63, "velocity": 107, "channel": 0}, {"type": "note_off", "time": 266, "note": 63, "velocity": 107, "channel": 0}, {"type": "note_on", "time": 9, "note": 59, "velocity": 106, "channel": 0}, {"type": "note_off", "time": 110, "note": 59, "velocity": 106, "channel": 0}, {"type": "note_on", "time": 0, "note": 67, "velocity": 108, "channel": 0}, {"type": "note_off", "time": 233, "note": 67, "velocity": 108, "channel": 0}, {"type": "note_on", "time": 28, "note": 70, "velocity": 102, "channel": 0}, {"type": "note_off", "time": 159, "note": 70, "velocity": 102, "channel": 0}, {"type": "note_on", "time": 0, "note": 69, "velocity": 103, "channel": 0}, {"type": "note_off", "time": 205, "note": 69, "velocity": 103, "channel": 0}, {"type": "note_on", "time": 11, "note": 66, "velocity": 102, "channel": 0}, {"type": "note_off", "time": 180, "note": 66, "velocity": 102, "channel": 0}, {"type": "note_on", "time": 44, "note": 62, "velocity": 105, "channel": 0}, {"type": "note_on", "time": 245, "note": 59, "velocity": 99, "channel": 0}, {"type": "note_off", "time": 0, "note": 62, "velocity": 105, "channel": 0}, {"type": "note_off", "time": 131, "note": 59, "velocity": 99, "channel": 0}, {"type": "note_on", "time": 0, "note": 67, "velocity": 104, "channel": 0}, {"type": "note_off", "time": 224, "note": 67, "velocity": 104, "channel": 0}, {"type": "note_on", "time": 35, "note": 64, "velocity": 109, "channel": 0}, {"type": "note_off", "time": 229, "note": 64, "velocity": 109, "channel": 0}, {"type": "note_on", "time": 117, "note": 66, "velocity": 97, "channel": 0}, {"type": "note_on", "time": 189, "note": 62, "velocity": 106, "channel": 0}, {"type": "note_off", "time": 0, "note": 66, "velocity": 97, "channel": 0}, {"type": "note_off", "time": 244, "note": 62, "velocity": 106, "channel": 0}, {"type": "note_on", "time": 0, "note": 65, "velocity": 105, "channel": 0}, {"type": "note_off", "time": 210, "note": 65, "velocity": 105, "channel": 0}, {"type": "note_on", "time": 2, "note": 63, "velocity": 111, "channel": 0}, {"type": "note_off", "time": 179, "note": 63, "velocity": 111, "channel": 0}, {"type": "note_on", "time": 6509, "note": 60, "velocity": 103, "channel": 0}, {"type": "note_off", "time": 350, "note": 60, "velocity": 103, "channel": 0}, {"type": "note_on", "time": 19, "note": 60, "velocity": 104, "channel": 0}, {"type": "note_off", "time": 413, "note": 60, "velocity": 104, "channel": 0}, {"type": "note_on", "time": 19, "note": 60, "velocity": 98, "channel": 0}, {"type": "note_off", "time": 539, "note": 60, "velocity": 98, "channel": 0}, {"type": "note_on", "time": 47, "note": 60, "velocity": 109, "channel": 0}, {"type": "note_off", "time": 224, "note": 60, "velocity": 109, "channel": 0}, {"type": "note_on", "time": 670, "note": 60, "velocity": 104, "channel": 0}, {"type": "note_off", "time": 390, "note": 60, "velocity": 104, "channel": 0}, {"type": "note_on", "time": 185, "note": 60, "velocity": 103, "channel": 0}, {"type": "note_off", "time": 402, "note": 60, "velocity": 103, "channel": 0}, {"type": "note_on", "time": 11, "note": 60, "velocity": 102, "channel": 0}, {"type": "note_off", "time": 429, "note": 60, "velocity": 102, "channel": 0}, {"type": "note_on", "time": 35, "note": 60, "velocity": 96, "channel": 0}, {"type": "note_off", "time": 508, "note": 60, "velocity": 96, "channel": 0}, {"type": "note_on", "time": 15, "note": 60, "velocity": 109, "channel": 0}, {"type": "note_off", "time": 289, "note": 60, "velocity": 109, "channel": 0}, {"type": "note_on", "time": 9, "note": 66, "velocity": 86, "channel": 0}, {"type": "note_off", "time": 153, "note": 66, "velocity": 86, "channel": 0}, {"type": "note_on", "time": 429, "note": 60, "velocity": 110, "channel": 0}, {"type": "note_off", "time": 354, "note": 60, "velocity": 110, "channel": 0}, {"type": "note_on", "time": 5, "note": 60, "velocity": 99, "channel": 0}, {"type": "note_off", "time": 378, "note": 60, "velocity": 99, "channel": 0}, {"type": "note_on", "time": 1094, "note": 60, "velocity": 101, "channel": 0}, {"type": "note_off", "time": 216, "note": 60, "velocity": 101, "channel": 0}, {"type": "note_on", "time": 187, "note": 60, "velocity": 123, "channel": 0}, {"type": "note_off", "time": 209, "note": 60, "velocity": 123, "channel": 0}, {"type": "note_on", "time": 144, "note": 60, "velocity": 109, "channel": 0}, {"type": "note_off", "time": 205, "note": 60, "velocity": 109, "channel": 0}, {"type": "note_on", "time": 0, "note": 67, "velocity": 105, "channel": 0}, {"type": "note_off", "time": 317, "note": 67, "velocity": 105, "channel": 0}, {"type": "note_on", "time": 116, "note": 60, "velocity": 105, "channel": 0}, {"type": "note_off", "time": 356, "note": 60, "velocity": 105, "channel": 0}, {"type": "note_on", "time": 350, "note": 60, "velocity": 102, "channel": 0}, {"type": "note_off", "time": 286, "note": 60, "velocity": 102, "channel": 0}, {"type": "note_on", "time": 112, "note": 60, "velocity": 101, "channel": 0}, {"type": "note_on", "time": 216, "note": 65, "velocity": 111, "channel": 0}, {"type": "note_off", "time": 0, "note": 60, "velocity": 101, "channel": 0}, {"type": "note_off", "time": 145, "note": 65, "velocity": 111, "channel": 0}, {"type": "note_on", "time": 23, "note": 67, "velocity": 107, "channel": 0}, {"type": "note_off", "time": 189, "note": 67, "velocity": 107, "channel": 0}, {"type": "note_on", "time": 0, "note": 72, "velocity": 112, "channel": 0}, {"type": "note_off", "time": 232, "note": 72, "velocity": 112, "channel": 0}, {"type": "note_on", "time": 0, "note": 67, "velocity": 111, "channel": 0}, {"type": "note_off", "time": 189, "note": 67, "velocity": 111, "channel": 0}, {"type": "note_on", "time": 0, "note": 66, "velocity": 106, "channel": 0}, {"type": "note_off", "time": 216, "note": 66, "velocity": 106, "channel": 0}, {"type": "note_on", "time": 15, "note": 60, "velocity": 109, "channel": 0}, {"type": "note_off", "time": 136, "note": 60, "velocity": 109, "channel": 0}, {"type": "note_on", "time": 679, "note": 60, "velocity": 102, "channel": 0}, {"type": "note_off", "time": 764, "note": 60, "velocity": 102, "channel": 0}, {"type": "note_on", "time": 39, "note": 60, "velocity": 102, "channel": 0}, {"type": "note_off", "time": 748, "note": 60, "velocity": 102, "channel": 0}, {"type": "note_on", "time": 39, "note": 60, "velocity": 107, "channel": 0}, {"type": "note_off", "time": 449, "note": 60, "velocity": 107, "channel": 0}, {"type": "note_on", "time": 3, "note": 60, "velocity": 123, "channel": 0}, {"type": "note_off", "time": 106, "note": 60, "velocity": 123, "channel": 0}, {"type": "note_on", "time": 62, "note": 60, "velocity": 105, "channel": 0}, {"type": "note_off", "time": 204, "note": 60, "velocity": 105, "channel": 0}, {"type": "note_on", "time": 0, "note": 65, "velocity": 105, "channel": 0}, {"type": "note_off", "time": 220, "note": 65, "velocity": 105, "channel": 0}, {"type": "note_on", "time": 0, "note": 67, "velocity": 110, "channel": 0}, {"type": "note_off", "time": 176, "note": 67, "velocity": 110, "channel": 0}, {"type": "note_on", "time": 17, "note": 71, "velocity": 109, "channel": 0}, {"type": "note_off", "time": 214, "note": 71, "velocity": 109, "channel": 0}, {"type": "note_on", "time": 5, "note": 66, "velocity": 102, "channel": 0}, {"type": "note_off", "time": 174, "note": 66, "velocity": 102, "channel": 0}, {"type": "note_on", "time": 0, "note": 60, "velocity": 98, "channel": 0}, {"type": "note_off", "time": 294, "note": 60, "velocity": 98, "channel": 0}, {"type": "note_on", "time": 339, "note": 60, "velocity": 101, "channel": 0}, {"type": "note_off", "time": 268, "note": 60, "velocity": 101, "channel": 0}, {"type": "note_on", "time": 104, "note": 60, "velocity": 105, "channel": 0}, {"type": "note_off", "time": 445, "note": 60, "velocity": 105, "channel": 0}, {"type": "note_on", "time": 7113, "note": 72, "velocity": 110, "channel": 0}, {"type": "note_off", "time": 212, "note": 72, "velocity": 110, "channel": 0}, {"type": "note_on", "time": 0, "note": 73, "velocity": 109, "channel": 0}, {"type": "note_off", "time": 283, "note": 73, "velocity": 109, "channel": 0}, {"type": "note_on", "time": 14, "note": 70, "velocity": 106, "channel": 0}, {"type": "note_off", "time": 236, "note": 70, "velocity": 106, "channel": 0}, {"type": "note_on", "time": 0, "note": 72, "velocity": 107, "channel": 0}, {"type": "note_off", "time": 202, "note": 72, "velocity": 107, "channel": 0}, {"type": "note_on", "time": 0, "note": 69, "velocity": 113, "channel": 0}, {"type": "note_on", "time": 582, "note": 72, "velocity": 102, "channel": 0}, {"type": "note_off", "time": 0, "note": 69, "velocity": 113, "channel": 0}, {"type": "note_off", "time": 209, "note": 72, "velocity": 102, "channel": 0}, {"type": "note_on", "time": 0, "note": 70, "velocity": 106, "channel": 0}, {"type": "note_on", "time": 189, "note": 65, "velocity": 104, "channel": 0}, {"type": "note_off", "time": 0, "note": 70, "velocity": 106, "channel": 0}, {"type": "note_off", "time": 181, "note": 65, "velocity": 104, "channel": 0}, {"type": "note_on", "time": 70, "note": 69, "velocity": 111, "channel": 0}, {"type": "note_off", "time": 539, "note": 69, "velocity": 111, "channel": 0}, {"type": "note_on", "time": 59, "note": 67, "velocity": 106, "channel": 0}, {"type": "note_off", "time": 289, "note": 67, "velocity": 106, "channel": 0}, {"type": "note_on", "time": 108, "note": 63, "velocity": 91, "channel": 0}, {"type": "note_off", "time": 189, "note": 63, "velocity": 91, "channel": 0}, {"type": "note_on", "time": 31, "note": 67, "velocity": 112, "channel": 0}, {"type": "note_off", "time": 173, "note": 67, "velocity": 112, "channel": 0}, {"type": "note_on", "time": 39, "note": 65, "velocity": 109, "channel": 0}, {"type": "note_off", "time": 185, "note": 65, "velocity": 109, "channel": 0}, {"type": "note_on", "time": 0, "note": 61, "velocity": 112, "channel": 0}, {"type": "note_off", "time": 183, "note": 61, "velocity": 112, "channel": 0}, {"type": "note_on", "time": 13, "note": 65, "velocity": 108, "channel": 0}, {"type": "note_off", "time": 197, "note": 65, "velocity": 108, "channel": 0}, {"type": "note_on", "time": 0, "note": 63, "velocity": 112, "channel": 0}, {"type": "note_off", "time": 350, "note": 63, "velocity": 112, "channel": 0}, {"type": "note_on", "time": 19, "note": 60, "velocity": 103, "channel": 0}, {"type": "note_off", "time": 222, "note": 60, "velocity": 103, "channel": 0}, {"type": "note_on", "time": 9, "note": 61, "velocity": 114, "channel": 0}, {"type": "note_off", "time": 177, "note": 61, "velocity": 114, "channel": 0}, {"type": "note_on", "time": 0, "note": 57, "velocity": 109, "channel": 0}, {"type": "note_off", "time": 382, "note": 57, "velocity": 109, "channel": 0}, {"type": "note_on", "time": 15, "note": 60, "velocity": 104, "channel": 0}, {"type": "note_off", "time": 183, "note": 60, "velocity": 104, "channel": 0}, {"type": "note_on", "time": 59, "note": 57, "velocity": 106, "channel": 0}, {"type": "note_off", "time": 153, "note": 57, "velocity": 106, "channel": 0}, {"type": "note_on", "time": 222, "note": 57, "velocity": 112, "channel": 0}, {"type": "note_off", "time": 184, "note": 57, "velocity": 112, "channel": 0}, {"type": "note_on", "time": 0, "note": 53, "velocity": 101, "channel": 0}, {"type": "note_off", "time": 270, "note": 53, "velocity": 101, "channel": 0}, {"type": "note_on", "time": 750, "note": 57, "velocity": 110, "channel": 0}, {"type": "note_off", "time": 164, "note": 57, "velocity": 110, "channel": 0}, {"type": "note_on", "time": 52, "note": 55, "velocity": 96, "channel": 0}, {"type": "note_off", "time": 304, "note": 55, "velocity": 96, "channel": 0}, {"type": "note_on", "time": 72, "note": 57, "velocity": 110, "channel": 0}, {"type": "note_off", "time": 174, "note": 57, "velocity": 110, "channel": 0}, {"type": "note_on", "time": 910, "note": 57, "velocity": 121, "channel": 0}, {"type": "note_off", "time": 102, "note": 57, "velocity": 121, "channel": 0}, {"type": "note_on", "time": 248, "note": 55, "velocity": 122, "channel": 0}, {"type": "note_off", "time": 114, "note": 55, "velocity": 122, "channel": 0}, {"type": "note_on", "time": 244, "note": 57, "velocity": 107, "channel": 0}, {"type": "note_off", "time": 118, "note": 57, "velocity": 107, "channel": 0}, {"type": "note_on", "time": 658, "note": 55, "velocity": 99, "channel": 0}, {"type": "note_off", "time": 215, "note": 55, "velocity": 99, "channel": 0}, {"type": "note_on", "time": 568, "note": 57, "velocity": 108, "channel": 0}, {"type": "note_off", "time": 221, "note": 57, "velocity": 108, "channel": 0}, {"type": "note_on", "time": 408, "note": 55, "velocity": 106, "channel": 0}, {"type": "note_off", "time": 217, "note": 55, "velocity": 106, "channel": 0}, {"type": "note_on", "time": 0, "note": 57, "velocity": 111, "channel": 0}, {"type": "note_off", "time": 242, "note": 57, "velocity": 111, "channel": 0}, {"type": "note_on", "time": 991, "note": 53, "velocity": 99, "channel": 0}, {"type": "note_off", "time": 377, "note": 53, "velocity": 99, "channel": 0}, {"type": "note_on", "time": 225, "note": 55, "velocity": 97, "channel": 0}, {"type": "note_off", "time": 366, "note": 55, "velocity": 97, "channel": 0}, {"type": "note_on", "time": 0, "note": 57, "velocity": 114, "channel": 0}, {"type": "note_off", "time": 302, "note": 57, "velocity": 114, "channel": 0}, {"type": "note_on", "time": 63, "note": 53, "velocity": 98, "channel": 0}, {"type": "note_off", "time": 268, "note": 53, "velocity": 98, "channel": 0}, {"type": "note_on", "time": 13, "note": 55, "velocity": 100, "channel": 0}, {"type": "note_off", "time": 229, "note": 55, "velocity": 100, "channel": 0}, {"type": "note_on", "time": 95, "note": 57, "velocity": 99, "channel": 0}, {"type": "note_off", "time": 189, "note": 57, "velocity": 99, "channel": 0}, {"type": "note_on", "time": 17, "note": 53, "velocity": 93, "channel": 0}, {"type": "note_off", "time": 276, "note": 53, "velocity": 93, "channel": 0}, {"type": "note_on", "time": 0, "note": 55, "velocity": 95, "channel": 0}, {"type": "note_off", "time": 255, "note": 55, "velocity": 95, "channel": 0}, {"type": "note_on", "time": 13, "note": 57, "velocity": 103, "channel": 0}, {"type": "note_off", "time": 182, "note": 57, "velocity": 103, "channel": 0}, {"type": "note_on", "time": 134, "note": 53, "velocity": 105, "channel": 0}, {"type": "note_off", "time": 242, "note": 53, "velocity": 105, "channel": 0}, {"type": "note_on", "time": 0, "note": 55, "velocity": 93, "channel": 0}, {"type": "note_off", "time": 269, "note": 55, "velocity": 93, "channel": 0}, {"type": "note_on", "time": 81, "note": 57, "velocity": 115, "channel": 0}, {"type": "note_off", "time": 223, "note": 57, "velocity": 115, "channel": 0}, {"type": "note_on", "time": 25, "note": 53, "velocity": 102, "channel": 0}, {"type": "note_off", "time": 232, "note": 53, "velocity": 102, "channel": 0}, {"type": "note_on", "time": 338, "note": 55, "velocity": 99, "channel": 0}, {"type": "note_off", "time": 220, "note": 55, "velocity": 99, "channel": 0}, {"type": "note_on", "time": 169, "note": 57, "velocity": 105, "channel": 0}, {"type": "note_on", "time": 204, "note": 53, "velocity": 97, "channel": 0}, {"type": "note_off", "time": 0, "note": 57, "velocity": 105, "channel": 0}, {"type": "note_off", "time": 161, "note": 53, "velocity": 97, "channel": 0}, {"type": "note_on", "time": 27, "note": 55, "velocity": 99, "channel": 0}, {"type": "note_off", "time": 236, "note": 55, "velocity": 99, "channel": 0}, {"type": "note_on", "time": 7, "note": 57, "velocity": 107, "channel": 0}, {"type": "note_off", "time": 236, "note": 57, "velocity": 107, "channel": 0}, {"type": "note_on", "time": 323, "note": 53, "velocity": 115, "channel": 0}, {"type": "note_off", "time": 134, "note": 53, "velocity": 115, "channel": 0}, {"type": "note_on", "time": 3, "note": 55, "velocity": 104, "channel": 0}, {"type": "note_on", "time": 173, "note": 57, "velocity": 106, "channel": 0}, {"type": "note_off", "time": 0, "note": 55, "velocity": 104, "channel": 0}, {"type": "note_off", "time": 198, "note": 57, "velocity": 106, "channel": 0}, {"type": "note_on", "time": 46, "note": 53, "velocity": 105, "channel": 0}, {"type": "note_off", "time": 220, "note": 53, "velocity": 105, "channel": 0}, {"type": "note_on", "time": 0, "note": 55, "velocity": 95, "channel": 0}, {"type": "note_off", "time": 297, "note": 55, "velocity": 95, "channel": 0}, {"type": "note_on", "time": 88, "note": 57, "velocity": 107, "channel": 0}, {"type": "note_off", "time": 197, "note": 57, "velocity": 107, "channel": 0}, {"type": "note_on", "time": 7, "note": 53, "velocity": 108, "channel": 0}, {"type": "note_off", "time": 130, "note": 53, "velocity": 108, "channel": 0}, {"type": "note_on", "time": 47, "note": 55, "velocity": 99, "channel": 0}, {"type": "note_off", "time": 201, "note": 55, "velocity": 99, "channel": 0}, {"type": "note_on", "time": 945, "note": 57, "velocity": 107, "channel": 0}, {"type": "note_off", "time": 180, "note": 57, "velocity": 107, "channel": 0}, {"type": "note_on", "time": 34, "note": 53, "velocity": 106, "channel": 0}, {"type": "note_off", "time": 324, "note": 53, "velocity": 106, "channel": 0}, {"type": "note_on", "time": 0, "note": 55, "velocity": 103, "channel": 0}, {"type": "note_off", "time": 351, "note": 55, "velocity": 103, "channel": 0}, {"type": "note_on", "time": 16, "note": 57, "velocity": 106, "channel": 0}, {"type": "note_off", "time": 204, "note": 57, "velocity": 106, "channel": 0}, {"type": "note_on", "time": 3, "note": 53, "velocity": 99, "channel": 0}, {"type": "note_off", "time": 177, "note": 53, "velocity": 99, "channel": 0}, {"type": "note_on", "time": 3, "note": 55, "velocity": 104, "channel": 0}, {"type": "note_off", "time": 196, "note": 55, "velocity": 104, "channel": 0}, {"type": "note_on", "time": 20, "note": 57, "velocity": 109, "channel": 0}, {"type": "note_off", "time": 249, "note": 57, "velocity": 109, "channel": 0}, {"type": "note_on", "time": 137, "note": 53, "velocity": 111, "channel": 0}, {"type": "note_off", "time": 144, "note": 53, "velocity": 111, "channel": 0}, {"type": "note_on", "time": 88, "note": 55, "velocity": 115, "channel": 0}, {"type": "note_off", "time": 266, "note": 55, "velocity": 115, "channel": 0}, {"type": "end_of_track", "time": 0}]]}