{"ticks_per_beat": 192, "tracks": [[{"type": "track_name", "name": "Melody", "time": 0}, {"type": "set_tempo", "tempo": 410958, "time": 0}, {"type": "time_signature", "numerator": 9, "denominator": 4, "clocks_per_click": 24, "notated_32nd_notes_per_beat": 8, "time": 0}, {"type": "note_on", "time": 324, "note": 73, "velocity": 123, "channel": 0}, {"type": "note_off", "time": 117, "note": 73, "velocity": 123, "channel": 0}, {"type": "note_on", "time": 1, "note": 72, "velocity": 115, "channel": 0}, {"type": "note_off", "time": 48, "note": 72, "velocity": 115, "channel": 0}, {"type": "note_on", "time": 0, "note": 73, "velocity": 118, "channel": 0}, {"type": "note_off", "time": 405, "note": 73, "velocity": 118, "channel": 0}, {"type": "note_on", "time": 2, "note": 71, "velocity": 113, "channel": 0}, {"type": "note_off", "time": 57, "note": 71, "velocity": 113, "channel": 0}, {"type": "note_on", "time": 7, "note": 72, "velocity": 114, "channel": 0}, {"type": "note_off", "time": 293, "note": 72, "velocity": 114, "channel": 0}, {"type": "note_on", "time": 13, "note": 71, "velocity": 116, "channel": 0}, {"type": "note_off", "time": 47, "note": 71, "velocity": 116, "channel": 0}, {"type": "note_on", "time": 0, "note": 69, "velocity": 121, "channel": 0}, {"type": "note_off", "time": 24, "note": 69, "velocity": 121, "channel": 0}, {"type": "note_on", "time": 0, "note": 66, "velocity": 114, "channel": 0}, {"type": "note_off", "time": 32, "note": 66, "velocity": 114, "channel": 0}, {"type": "note_on", "time": 1, "note": 64, "velocity": 98, "channel": 0}, {"type": "note_off", "time": 207, "note": 64, "velocity": 98, "channel": 0}, {"type": "note_on", "time": 5, "note": 61, "velocity": 99, "channel": 0}, {"type": "note_off", "time": 280, "note": 61, "velocity": 99, "channel": 0}, {"type": "note_on", "time": 692, "note": 73, "velocity": 124, "channel": 0}, {"type": "note_off", "time": 160, "note": 73, "velocity": 124, "channel": 0}, {"type": "note_on", "time": 1, "note": 71, "velocity": 113, "channel": 0}, {"type": "note_off", "time": 108, "note": 71, "velocity": 113, "channel": 0}, {"type": "note_on", "time": 9, "note": 72, "velocity": 113, "channel": 0}, {"type": "note_off", "time": 270, "note": 72, "velocity": 113, "channel": 0}, {"type": "note_on", "time": 19, "note": 71, "velocity": 112, "channel": 0}, {"type": "note_off", "time": 85, "note": 71, "velocity": 112, "channel": 0}, {"type": "note_on", "time": 9, "note": 69, "velocity": 124, "channel": 0}, {"type": "note_off", "time": 64, "note": 69, "velocity": 124, "channel": 0}, {"type": "note_on", "time": 17, "note": 66, "velocity": 121, "channel": 0}, {"type": "note_off", "time": 62, "note": 66, "velocity": 121, "channel": 0}, {"type": "note_on", "time": 66, "note": 64, "velocity": 104, "channel": 0}, {"type": "note_off", "time": 62, "note": 64, "velocity": 104, "channel": 0}, {"type": "note_on", "time": 104, "note": 69, "velocity": 125, "channel": 0}, {"type": "note_off", "time": 62, "note": 69, "velocity": 125, "channel": 0}, {"type": "note_on", "time": 213, "note": 69, "velocity": 124, "channel": 0}, {"type": "note_off", "time": 59, "note": 69, "velocity": 124, "channel": 0}, {"type": "note_on", "time": 345, "note": 69, "velocity": 125, "channel": 0}, {"type": "note_off", "time": 89, "note": 69, "velocity": 125, "channel": 0}, {"type": "note_on", "time": 13, "note": 71, "velocity": 118, "channel": 0}, {"type": "note_off", "time": 72, "note": 71, "velocity": 118, "channel": 0}, {"type": "note_on", "time": 15, "note": 72, "velocity": 119, "channel": 0}, {"type": "note_on", "time": 104, "note": 71, "velocity": 94, "channel": 0}, {"type": "note_off", "time": 0, "note": 72, "velocity": 119, "channel": 0}, {"type": "note_off", "time": 72, "note": 71, "velocity": 94, "channel": 0}, {"type": "note_on", "time": 7, "note": 68, "velocity": 123, "channel": 0}, {"type": "note_off", "time": 26, "note": 68, "velocity": 123, "channel": 0}, {"type": "note_on", "time": 17, "note": 69, "velocity": 123, "channel": 0}, {"type": "note_off", "time": 152, "note": 69, "velocity": 123, "channel": 0}, {"type": "note_on", "time": 0, "note": 67, "velocity": 121, "channel": 0}, {"type": "note_off", "time": 389, "note": 67, "velocity": 121, "channel": 0}, {"type": "note_on", "time": 3, "note": 66, "velocity": 122, "channel": 0}, {"type": "note_off", "time": 85, "note": 66, "velocity": 122, "channel": 0}, {"type": "note_on", "time": 19, "note": 67, "velocity": 116, "channel": 0}, {"type": "note_off", "time": 43, "note": 67, "velocity": 116, "channel": 0}, {"type": "note_on", "time": 223, "note": 67, "velocity": 122, "channel": 0}, {"type": "note_off", "time": 47, "note": 67, "velocity": 122, "channel": 0}, {"type": "note_on", "time": 257, "note": 69, "velocity": 124, "channel": 0}, {"type": "note_off", "time": 45, "note": 69, "velocity": 124, "channel": 0}, {"type": "note_on", "time": 45, "note": 73, "velocity": 122, "channel": 0}, {"type": "note_off", "time": 70, "note": 73, "velocity": 122, "channel": 0}, {"type": "note_on", "time": 3, "note": 78, "velocity": 115, "channel": 0}, {"type": "note_off", "time": 41, "note": 78, "velocity": 115, "channel": 0}, {"type": "note_on", "time": 0, "note": 76, "velocity": 108, "channel": 0}, {"type": "note_off", "time": 150, "note": 76, "velocity": 108, "channel": 0}, {"type": "note_on", "time": 9, "note": 73, "velocity": 122, "channel": 0}, {"type": "note_off", "time": 59, "note": 73, "velocity": 122, "channel": 0}, {"type": "note_on", "time": 213, "note": 72, "velocity": 117, "channel": 0}, {"type": "note_off", "time": 108, "note": 72, "velocity": 117, "channel": 0}, {"type": "note_on", "time": 1, "note": 71, "velocity": 113, "channel": 0}, {"type": "note_off", "time": 41, "note": 71, "velocity": 113, "channel": 0}, {"type": "note_on", "time": 158, "note": 69, "velocity": 124, "channel": 0}, {"type": "note_off", "time": 59, "note": 69, "velocity": 124, "channel": 0}, {"type": "note_on", "time": 26, "note": 64, "velocity": 92, "channel": 0}, {"type": "note_off", "time": 59, "note": 64, "velocity": 92, "channel": 0}, {"type": "note_on", "time": 51, "note": 66, "velocity": 124, "channel": 0}, {"type": "note_off", "time": 59, "note": 66, "velocity": 124, "channel": 0}, {"type": "note_on", "time": 30, "note": 64, "velocity": 93, "channel": 0}, {"type": "note_off", "time": 78, "note": 64, "velocity": 93, "channel": 0}, {"type": "note_on", "time": 19, "note": 69, "velocity": 104, "channel": 0}, {"type": "note_off", "time": 41, "note": 69, "velocity": 104, "channel": 0}, {"type": "note_on", "time": 45, "note": 71, "velocity": 117, "channel": 0}, {"type": "note_off", "time": 104, "note": 71, "velocity": 117, "channel": 0}, {"type": "note_on", "time": 15, "note": 66, "velocity": 123, "channel": 0}, {"type": "note_off", "time": 49, "note": 66, "velocity": 123, "channel": 0}, {"type": "note_on", "time": 17, "note": 64, "velocity": 98, "channel": 0}, {"type": "note_off", "time": 99, "note": 64, "velocity": 98, "channel": 0}, {"type": "note_on", "time": 28, "note": 69, "velocity": 121, "channel": 0}, {"type": "note_off", "time": 59, "note": 69, "velocity": 121, "channel": 0}, {"type": "note_on", "time": 11, "note": 61, "velocity": 97, "channel": 0}, {"type": "note_off", "time": 169, "note": 61, "velocity": 97, "channel": 0}, {"type": "note_on", "time": 9, "note": 64, "velocity": 93, "channel": 0}, {"type": "note_off", "time": 93, "note": 64, "velocity": 93, "channel": 0}, {"type": "note_on", "time": 3, "note": 66, "velocity": 112, "channel": 0}, {"type": "note_off", "time": 55, "note": 66, "velocity": 112, "channel": 0}, {"type": "note_on", "time": 352, "note": 69, "velocity": 121, "channel": 0}, {"type": "note_off", "time": 53, "note": 69, "velocity": 121, "channel": 0}, {"type": "note_on", "time": 26, "note": 71, "velocity": 118, "channel": 0}, {"type": "note_off", "time": 97, "note": 71, "velocity": 118, "channel": 0}, {"type": "note_on", "time": 1, "note": 73, "velocity": 126, "channel": 0}, {"type": "note_off", "time": 95, "note": 73, "velocity": 126, "channel": 0}, {"type": "note_on", "time": 0, "note": 72, "velocity": 112, "channel": 0}, {"type": "note_off", "time": 87, "note": 72, "velocity": 112, "channel": 0}, {"type": "note_on", "time": 0, "note": 73, "velocity": 121, "channel": 0}, {"type": "note_off", "time": 58, "note": 73, "velocity": 121, "channel": 0}, {"type": "note_on", "time": 340, "note": 66, "velocity": 124, "channel": 0}, {"type": "note_off", "time": 57, "note": 66, "velocity": 124, "channel": 0}, {"type": "note_on", "time": 232, "note": 69, "velocity": 124, "channel": 0}, {"type": "note_off", "time": 101, "note": 69, "velocity": 124, "channel": 0}, {"type": "note_on", "time": 3, "note": 66, "velocity": 121, "channel": 0}, {"type": "note_off", "time": 52, "note": 66, "velocity": 121, "channel": 0}, {"type": "note_on", "time": 217, "note": 64, "velocity": 106, "channel": 0}, {"type": "note_off", "time": 41, "note": 64, "velocity": 106, "channel": 0}, {"type": "note_on", "time": 13, "note": 69, "velocity": 108, "channel": 0}, {"type": "note_off", "time": 43, "note": 69, "velocity": 108, "channel": 0}, {"type": "note_on", "time": 5, "note": 71, "velocity": 114, "channel": 0}, {"type": "note_off", "time": 55, "note": 71, "velocity": 114, "channel": 0}, {"type": "note_on", "time": 0, "note": 73, "velocity": 123, "channel": 0}, {"type": "note_off", "time": 53, "note": 73, "velocity": 123, "channel": 0}, {"type": "note_on", "time": 37, "note": 76, "velocity": 117, "channel": 0}, {"type": "note_off", "time": 47, "note": 76, "velocity": 117, "channel": 0}, {"type": "note_on", "time": 2, "note": 78, "velocity": 105, "channel": 0}, {"type": "note_off", "time": 49, "note": 78, "velocity": 105, "channel": 0}, {"type": "note_on", "time": 209, "note": 73, "velocity": 124, "channel": 0}, {"type": "note_off", "time": 94, "note": 73, "velocity": 124, "channel": 0}, {"type": "note_on", "time": 18, "note": 72, "velocity": 115, "channel": 0}, {"type": "note_off", "time": 37, "note": 72, "velocity": 115, "channel": 0}, {"type": "note_on", "time": 347, "note": 73, "velocity": 122, "channel": 0}, {"type": "note_off", "time": 73, "note": 73, "velocity": 122, "channel": 0}, {"type": "note_on", "time": 116, "note": 73, "velocity": 127, "channel": 0}, {"type": "note_on", "time": 89, "note": 71, "velocity": 114, "channel": 0}, {"type": "note_off", "time": 0, "note": 73, "velocity": 127, "channel": 0}, {"type": "note_off", "time": 185, "note": 71, "velocity": 114, "channel": 0}, {"type": "note_on", "time": 13, "note": 72, "velocity": 115, "channel": 0}, {"type": "note_off", "time": 104, "note": 72, "velocity": 115, "channel": 0}, {"type": "note_on", "time": 12, "note": 71, "velocity": 112, "channel": 0}, {"type": "note_off", "time": 187, "note": 71, "velocity": 112, "channel": 0}, {"type": "note_on", "time": 82, "note": 69, "velocity": 123, "channel": 0}, {"type": "note_off", "time": 81, "note": 69, "velocity": 123, "channel": 0}, {"type": "note_on", "time": 32, "note": 64, "velocity": 101, "channel": 0}, {"type": "note_off", "time": 62, "note": 64, "velocity": 101, "channel": 0}, {"type": "note_on", "time": 122, "note": 66, "velocity": 119, "channel": 0}, {"type": "note_off", "time": 70, "note": 66, "velocity": 119, "channel": 0}, {"type": "note_on", "time": 17, "note": 69, "velocity": 120, "channel": 0}, {"type": "note_off", "time": 112, "note": 69, "velocity": 120, "channel": 0}, {"type": "note_on", "time": 4, "note": 66, "velocity": 104, "channel": 0}, {"type": "note_off", "time": 51, "note": 66, "velocity": 104, "channel": 0}, {"type": "note_on", "time": 0, "note": 67, "velocity": 110, "channel": 0}, {"type": "note_off", "time": 40, "note": 67, "velocity": 110, "channel": 0}, {"type": "note_on", "time": 14, "note": 71, "velocity": 106, "channel": 0}, {"type": "note_off", "time": 356, "note": 71, "velocity": 106, "channel": 0}, {"type": "note_on", "time": 17, "note": 69, "velocity": 107, "channel": 0}, {"type": "note_off", "time": 357, "note": 69, "velocity": 107, "channel": 0}, {"type": "note_on", "time": 14, "note": 66, "velocity": 116, "channel": 0}, {"type": "note_off", "time": 82, "note": 66, "velocity": 116, "channel": 0}, {"type": "note_on", "time": 222, "note": 64, "velocity": 99, "channel": 0}, {"type": "note_off", "time": 69, "note": 64, "velocity": 99, "channel": 0}, {"type": "note_on", "time": 0, "note": 61, "velocity": 100, "channel": 0}, {"type": "note_off", "time": 96, "note": 61, "velocity": 100, "channel": 0}, {"type": "note_on", "time": 0, "note": 64, "velocity": 95, "channel": 0}, {"type": "note_off", "time": 181, "note": 64, "velocity": 95, "channel": 0}, {"type": "note_on", "time": 0, "note": 60, "velocity": 92, "channel": 0}, {"type": "note_off", "time": 80, "note": 60, "velocity": 92, "channel": 0}, {"type": "note_on", "time": 5, "note": 61, "velocity": 97, "channel": 0}, {"type": "note_off", "time": 211, "note": 61, "velocity": 97, "channel": 0}, {"type": "note_on", "time": 4, "note": 59, "velocity": 98, "channel": 0}, {"type": "note_off", "time": 63, "note": 59, "velocity": 98, "channel": 0}, {"type": "note_on", "time": 315, "note": 57, "velocity": 98, "channel": 0}, {"type": "note_off", "time": 359, "note": 57, "velocity": 98, "channel": 0}, {"type": "note_on", "time": 4, "note": 54, "velocity": 111, "channel": 0}, {"type": "note_off", "time": 111, "note": 54, "velocity": 111, "channel": 0}, {"type": "note_on", "time": 6, "note": 57, "velocity": 111, "channel": 0}, {"type": "note_off", "time": 69, "note": 57, "velocity": 111, "channel": 0}, {"type": "note_on", "time": 20, "note": 53, "velocity": 109, "channel": 0}, {"type": "note_off", "time": 84, "note": 53, "velocity": 109, "channel": 0}, {"type": "note_on", "time": 9, "note": 54, "velocity": 108, "channel": 0}, {"type": "note_off", "time": 81, "note": 54, "velocity": 108, "channel": 0}, {"type": "note_on", "time": 12, "note": 57, "velocity": 108, "channel": 0}, {"type": "note_off", "time": 89, "note": 57, "velocity": 108, "channel": 0}, {"type": "note_on", "time": 5, "note": 59, "velocity": 106, "channel": 0}, {"type": "note_off", "time": 82, "note": 59, "velocity": 106, "channel": 0}, {"type": "note_on", "time": 0, "note": 60, "velocity": 103, "channel": 0}, {"type": "note_off", "time": 108, "note": 60, "velocity": 103, "channel": 0}, {"type": "note_on", "time": 16, "note": 61, "velocity": 92, "channel": 0}, {"type": "note_off", "time": 277, "note": 61, "velocity": 92, "channel": 0}, {"type": "note_on", "time": 4, "note": 66, "velocity": 118, "channel": 0}, {"type": "note_off", "time": 56, "note": 66, "velocity": 118, "channel": 0}, {"type": "note_on", "time": 775, "note": 73, "velocity": 124, "channel": 0}, {"type": "note_off", "time": 81, "note": 73, "velocity": 124, "channel": 0}, {"type": "note_on", "time": 25, "note": 78, "velocity": 115, "channel": 0}, {"type": "note_off", "time": 122, "note": 78, "velocity": 115, "channel": 0}, {"type": "note_on", "time": 5, "note": 79, "velocity": 108, "channel": 0}, {"type": "note_off", "time": 237, "note": 79, "velocity": 108, "channel": 0}, {"type": "note_on", "time": 4, "note": 78, "velocity": 118, "channel": 0}, {"type": "note_off", "time": 70, "note": 78, "velocity": 118, "channel": 0}, {"type": "note_on", "time": 44, "note": 76, "velocity": 117, "channel": 0}, {"type": "note_off", "time": 67, "note": 76, "velocity": 117, "channel": 0}, {"type": "note_on", "time": 24, "note": 73, "velocity": 123, "channel": 0}, {"type": "note_off", "time": 85, "note": 73, "velocity": 123, "channel": 0}, {"type": "note_on", "time": 0, "note": 72, "velocity": 115, "channel": 0}, {"type": "note_off", "time": 82, "note": 72, "velocity": 115, "channel": 0}, {"type": "note_on", "time": 4, "note": 73, "velocity": 123, "channel": 0}, {"type": "note_off", "time": 84, "note": 73, "velocity": 123, "channel": 0}, {"type": "note_on", "time": 13, "note": 71, "velocity": 115, "channel": 0}, {"type": "note_off", "time": 92, "note": 71, "velocity": 115, "channel": 0}, {"type": "note_on", "time": 309, "note": 69, "velocity": 125, "channel": 0}, {"type": "note_off", "time": 80, "note": 69, "velocity": 125, "channel": 0}, {"type": "note_on", "time": 28, "note": 71, "velocity": 118, "channel": 0}, {"type": "note_off", "time": 69, "note": 71, "velocity": 118, "channel": 0}, {"type": "note_on", "time": 10, "note": 72, "velocity": 118, "channel": 0}, {"type": "note_off", "time": 96, "note": 72, "velocity": 118, "channel": 0}, {"type": "note_on", "time": 12, "note": 71, "velocity": 116, "channel": 0}, {"type": "note_off", "time": 71, "note": 71, "velocity": 116, "channel": 0}, {"type": "note_on", "time": 131, "note": 69, "velocity": 126, "channel": 0}, {"type": "note_off", "time": 73, "note": 69, "velocity": 126, "channel": 0}, {"type": "note_on", "time": 24, "note": 64, "velocity": 85, "channel": 0}, {"type": "note_off", "time": 70, "note": 64, "velocity": 85, "channel": 0}, {"type": "note_on", "time": 8, "note": 66, "velocity": 118, "channel": 0}, {"type": "note_off", "time": 78, "note": 66, "velocity": 118, "channel": 0}, {"type": "note_on", "time": 6, "note": 69, "velocity": 122, "channel": 0}, {"type": "note_off", "time": 81, "note": 69, "velocity": 122, "channel": 0}, {"type": "note_on", "time": 12, "note": 71, "velocity": 115, "channel": 0}, {"type": "note_off", "time": 90, "note": 71, "velocity": 115, "channel": 0}, {"type": "note_on", "time": 0, "note": 69, "velocity": 122, "channel": 0}, {"type": "note_off", "time": 96, "note": 69, "velocity": 122, "channel": 0}, {"type": "note_on", "time": 6, "note": 64, "velocity": 101, "channel": 0}, {"type": "note_off", "time": 90, "note": 64, "velocity": 101, "channel": 0}, {"type": "note_on", "time": 13, "note": 61, "velocity": 98, "channel": 0}, {"type": "note_off", "time": 188, "note": 61, "velocity": 98, "channel": 0}, {"type": "note_on", "time": 1, "note": 67, "velocity": 114, "channel": 0}, {"type": "note_off", "time": 94, "note": 67, "velocity": 114, "channel": 0}, {"type": "note_on", "time": 1, "note": 66, "velocity": 122, "channel": 0}, {"type": "note_off", "time": 51, "note": 66, "velocity": 122, "channel": 0}, {"type": "note_on", "time": 166, "note": 66, "velocity": 122, "channel": 0}, {"type": "note_off", "time": 52, "note": 66, "velocity": 122, "channel": 0}, {"type": "note_on", "time": 145, "note": 66, "velocity": 123, "channel": 0}, {"type": "note_off", "time": 59, "note": 66, "velocity": 123, "channel": 0}, {"type": "note_on", "time": 17, "note": 69, "velocity": 122, "channel": 0}, {"type": "note_off", "time": 97, "note": 69, "velocity": 122, "channel": 0}, {"type": "note_on", "time": 10, "note": 66, "velocity": 118, "channel": 0}, {"type": "note_off", "time": 55, "note": 66, "velocity": 118, "channel": 0}, {"type": "note_on", "time": 234, "note": 71, "velocity": 115, "channel": 0}, {"type": "note_off", "time": 80, "note": 71, "velocity": 115, "channel": 0}, {"type": "note_on", "time": 5, "note": 73, "velocity": 124, "channel": 0}, {"type": "note_off", "time": 90, "note": 73, "velocity": 124, "channel": 0}, {"type": "note_on", "time": 2, "note": 72, "velocity": 113, "channel": 0}, {"type": "note_off", "time": 96, "note": 72, "velocity": 113, "channel": 0}, {"type": "note_on", "time": 2, "note": 73, "velocity": 123, "channel": 0}, {"type": "note_off", "time": 58, "note": 73, "velocity": 123, "channel": 0}, {"type": "note_on", "time": 146, "note": 78, "velocity": 117, "channel": 0}, {"type": "note_off", "time": 73, "note": 78, "velocity": 117, "channel": 0}, {"type": "note_on", "time": 0, "note": 76, "velocity": 113, "channel": 0}, {"type": "note_off", "time": 98, "note": 76, "velocity": 113, "channel": 0}, {"type": "note_on", "time": 9, "note": 78, "velocity": 115, "channel": 0}, {"type": "note_off", "time": 78, "note": 78, "velocity": 115, "channel": 0}, {"type": "note_on", "time": 16, "note": 80, "velocity": 101, "channel": 0}, {"type": "note_off", "time": 170, "note": 80, "velocity": 101, "channel": 0}, {"type": "end_of_track", "time": 0}]]}