{"ticks_per_beat": 420, "tracks": [[{"type": "track_name", "name": "Melody", "time": 0}, {"type": "set_tempo", "tempo": 697674, "time": 0}, {"type": "key_signature", "key": "Db", "time": 0}, {"type": "time_signature", "numerator": 4, "denominator": 4, "clocks_per_click": 24, "notated_32nd_notes_per_beat": 8, "time": 0}, {"type": "note_on", "time": 6164, "note": 58, "velocity": 103, "channel": 0}, {"type": "note_off", "time": 545, "note": 58, "velocity": 103, "channel": 0}, {"type": "note_on", "time": 995, "note": 57, "velocity": 115, "channel": 0}, {"type": "note_off", "time": 157, "note": 57, "velocity": 115, "channel": 0}, {"type": "note_on", "time": 39, "note": 60, "velocity": 114, "channel": 0}, {"type": "note_off", "time": 176, "note": 60, "velocity": 114, "channel": 0}, {"type": "note_on", "time": 56, "note": 63, "velocity": 107, "channel": 0}, {"type": "note_off", "time": 491, "note": 63, "velocity": 107, "channel": 0}, {"type": "note_on", "time": 748, "note": 66, "velocity": 121, "channel": 0}, {"type": "note_off", "time": 171, "note": 66, "velocity": 121, "channel": 0}, {"type": "note_on", "time": 45, "note": 68, "velocity": 111, "channel": 0}, {"type": "note_off", "time": 712, "note": 68, "velocity": 111, "channel": 0}, {"type": "note_on", "time": 722, "note": 65, "velocity": 118, "channel": 0}, {"type": "note_off", "time": 229, "note": 65, "velocity": 118, "channel": 0}, {"type": "note_on", "time": 31, "note": 71, "velocity": 112, "channel": 0}, {"type": "note_off", "time": 677, "note": 71, "velocity": 112, "channel": 0}, {"type": "note_on", "time": 755, "note": 62, "velocity": 116, "channel": 0}, {"type": "note_off", "time": 185, "note": 62, "velocity": 116, "channel": 0}, {"type": "note_on", "time": 41, "note": 60, "velocity": 114, "channel": 0}, {"type": "note_off", "time": 248, "note": 60, "velocity": 114, "channel": 0}, {"type": "note_on", "time": 59, "note": 61, "velocity": 118, "channel": 0}, {"type": "note_off", "time": 419, "note": 61, "velocity": 118, "channel": 0}, {"type": "note_on", "time": 35, "note": 72, "velocity": 113, "channel": 0}, {"type": "note_off", "time": 745, "note": 72, "velocity": 113, "channel": 0}, {"type": "note_on", "time": 30, "note": 68, "velocity": 102, "channel": 0}, {"type": "note_off", "time": 150, "note": 68, "velocity": 102, "channel": 0}, {"type": "note_on", "time": 76, "note": 65, "velocity": 110, "channel": 0}, {"type": "note_off", "time": 314, "note": 65, "velocity": 110, "channel": 0}, {"type": "note_on", "time": 41, "note": 64, "velocity": 116, "channel": 0}, {"type": "note_off", "time": 188, "note": 64, "velocity": 116, "channel": 0}, {"type": "note_on", "time": 24, "note": 65, "velocity": 112, "channel": 0}, {"type": "note_off", "time": 230, "note": 65, "velocity": 112, "channel": 0}, {"type": "note_on", "time": 4, "note": 75, "velocity": 118, "channel": 0}, {"type": "note_off", "time": 1296, "note": 75, "velocity": 118, "channel": 0}, {"type": "note_on", "time": 600, "note": 68, "velocity": 102, "channel": 0}, {"type": "note_off", "time": 562, "note": 68, "velocity": 102, "channel": 0}, {"type": "note_on", "time": 40, "note": 75, "velocity": 121, "channel": 0}, {"type": "note_off", "time": 1125, "note": 75, "velocity": 121, "channel": 0}, {"type": "note_on", "time": 305, "note": 68, "velocity": 96, "channel": 0}, {"type": "note_off", "time": 98, "note": 68, "velocity": 96, "channel": 0}, {"type": "note_on", "time": 39, "note": 68, "velocity": 100, "channel": 0}, {"type": "note_off", "time": 81, "note": 68, "velocity": 100, "channel": 0}, {"type": "note_on", "time": 109, "note": 76, "velocity": 123, "channel": 0}, {"type": "note_off", "time": 894, "note": 76, "velocity": 123, "channel": 0}, {"type": "note_on", "time": 92, "note": 67, "velocity": 115, "channel": 0}, {"type": "note_off", "time": 105, "note": 67, "velocity": 115, "channel": 0}, {"type": "note_on", "time": 25, "note": 70, "velocity": 111, "channel": 0}, {"type": "note_off", "time": 127, "note": 70, "velocity": 111, "channel": 0}, {"type": "note_on", "time": 24, "note": 74, "velocity": 121, "channel": 0}, {"type": "note_off", "time": 115, "note": 74, "velocity": 121, "channel": 0}, {"type": "note_on", "time": 33, "note": 76, "velocity": 121, "channel": 0}, {"type": "note_off", "time": 86, "note": 76, "velocity": 121, "channel": 0}, {"type": "note_on", "time": 100, "note": 77, "velocity": 112, "channel": 0}, {"type": "note_off", "time": 471, "note": 77, "velocity": 112, "channel": 0}, {"type": "note_on", "time": 931, "note": 67, "velocity": 120, "channel": 0}, {"type": "note_off", "time": 125, "note": 67, "velocity": 120, "channel": 0}, {"type": "note_on", "time": 14, "note": 69, "velocity": 115, "channel": 0}, {"type": "note_off", "time": 71, "note": 69, "velocity": 115, "channel": 0}, {"type": "note_on", "time": 115, "note": 78, "velocity": 120, "channel": 0}, {"type": "note_off", "time": 695, "note": 78, "velocity": 120, "channel": 0}, {"type": "note_on", "time": 629, "note": 77, "velocity": 111, "channel": 0}, {"type": "note_off", "time": 132, "note": 77, "velocity": 111, "channel": 0}, {"type": "note_on", "time": 37, "note": 75, "velocity": 119, "channel": 0}, {"type": "note_off", "time": 152, "note": 75, "velocity": 119, "channel": 0}, {"type": "note_on", "time": 5, "note": 76, "velocity": 121, "channel": 0}, {"type": "note_off", "time": 35, "note": 76, "velocity": 121, "channel": 0}, {"type": "note_on", "time": 5, "note": 77, "velocity": 118, "channel": 0}, {"type": "note_off", "time": 469, "note": 77, "velocity": 118, "channel": 0}, {"type": "note_on", "time": 80, "note": 71, "velocity": 107, "channel": 0}, {"type": "note_off", "time": 127, "note": 71, "velocity": 107, "channel": 0}, {"type": "note_on", "time": 63, "note": 65, "velocity": 117, "channel": 0}, {"type": "note_off", "time": 95, "note": 65, "velocity": 117, "channel": 0}, {"type": "note_on", "time": 25, "note": 71, "velocity": 115, "channel": 0}, {"type": "note_off", "time": 24, "note": 71, "velocity": 115, "channel": 0}, {"type": "note_on", "time": 9, "note": 70, "velocity": 111, "channel": 0}, {"type": "note_off", "time": 373, "note": 70, "velocity": 111, "channel": 0}, {"type": "note_on", "time": 532, "note": 64, "velocity": 116, "channel": 0}, {"type": "note_off", "time": 57, "note": 64, "velocity": 116, "channel": 0}, {"type": "note_on", "time": 13, "note": 65, "velocity": 116, "channel": 0}, {"type": "note_off", "time": 113, "note": 65, "velocity": 116, "channel": 0}, {"type": "note_on", "time": 29, "note": 67, "velocity": 119, "channel": 0}, {"type": "note_off", "time": 129, "note": 67, "velocity": 119, "channel": 0}, {"type": "note_on", "time": 16, "note": 70, "velocity": 117, "channel": 0}, {"type": "note_off", "time": 136, "note": 70, "velocity": 117, "channel": 0}, {"type": "note_on", "time": 18, "note": 75, "velocity": 123, "channel": 0}, {"type": "note_off", "time": 73, "note": 75, "velocity": 123, "channel": 0}, {"type": "note_on", "time": 111, "note": 79, "velocity": 122, "channel": 0}, {"type": "note_off", "time": 113, "note": 79, "velocity": 122, "channel": 0}, {"type": "note_on", "time": 13, "note": 80, "velocity": 114, "channel": 0}, {"type": "note_off", "time": 232, "note": 80, "velocity": 114, "channel": 0}, {"type": "note_on", "time": 17, "note": 78, "velocity": 113, "channel": 0}, {"type": "note_off", "time": 290, "note": 78, "velocity": 113, "channel": 0}, {"type": "note_on", "time": 22, "note": 74, "velocity": 126, "channel": 0}, {"type": "note_off", "time": 132, "note": 74, "velocity": 126, "channel": 0}, {"type": "note_on", "time": 12, "note": 77, "velocity": 118, "channel": 0}, {"type": "note_off", "time": 143, "note": 77, "velocity": 118, "channel": 0}, {"type": "note_on", "time": 12, "note": 75, "velocity": 125, "channel": 0}, {"type": "note_off", "time": 230, "note": 75, "velocity": 125, "channel": 0}, {"type": "note_on", "time": 15, "note": 72, "velocity": 111, "channel": 0}, {"type": "note_off", "time": 314, "note": 72, "velocity": 111, "channel": 0}, {"type": "note_on", "time": 134, "note": 63, "velocity": 110, "channel": 0}, {"type": "note_off", "time": 118, "note": 63, "velocity": 110, "channel": 0}, {"type": "note_on", "time": 19, "note": 65, "velocity": 118, "channel": 0}, {"type": "note_off", "time": 172, "note": 65, "velocity": 118, "channel": 0}, {"type": "note_on", "time": 10, "note": 60, "velocity": 110, "channel": 0}, {"type": "note_off", "time": 302, "note": 60, "velocity": 110, "channel": 0}, {"type": "note_on", "time": 36, "note": 58, "velocity": 105, "channel": 0}, {"type": "note_off", "time": 106, "note": 58, "velocity": 105, "channel": 0}, {"type": "note_on", "time": 36, "note": 61, "velocity": 111, "channel": 0}, {"type": "note_off", "time": 333, "note": 61, "velocity": 111, "channel": 0}, {"type": "note_on", "time": 111, "note": 63, "velocity": 108, "channel": 0}, {"type": "note_off", "time": 124, "note": 63, "velocity": 108, "channel": 0}, {"type": "note_on", "time": 19, "note": 65, "velocity": 115, "channel": 0}, {"type": "note_off", "time": 75, "note": 65, "velocity": 115, "channel": 0}, {"type": "note_on", "time": 81, "note": 66, "velocity": 115, "channel": 0}, {"type": "note_off", "time": 99, "note": 66, "velocity": 115, "channel": 0}, {"type": "note_on", "time": 20, "note": 68, "velocity": 109, "channel": 0}, {"type": "note_off", "time": 108, "note": 68, "velocity": 109, "channel": 0}, {"type": "note_on", "time": 22, "note": 70, "velocity": 116, "channel": 0}, {"type": "note_off", "time": 90, "note": 70, "velocity": 116, "channel": 0}, {"type": "note_on", "time": 44, "note": 72, "velocity": 115, "channel": 0}, {"type": "note_off", "time": 104, "note": 72, "velocity": 115, "channel": 0}, {"type": "note_on", "time": 13, "note": 75, "velocity": 124, "channel": 0}, {"type": "note_off", "time": 99, "note": 75, "velocity": 124, "channel": 0}, {"type": "note_on", "time": 33, "note": 77, "velocity": 117, "channel": 0}, {"type": "note_off", "time": 115, "note": 77, "velocity": 117, "channel": 0}, {"type": "note_on", "time": 29, "note": 80, "velocity": 111, "channel": 0}, {"type": "note_off", "time": 118, "note": 80, "velocity": 111, "channel": 0}, {"type": "note_on", "time": 61, "note": 84, "velocity": 114, "channel": 0}, {"type": "note_off", "time": 401, "note": 84, "velocity": 114, "channel": 0}, {"type": "note_on", "time": 892, "note": 69, "velocity": 114, "channel": 0}, {"type": "note_off", "time": 19, "note": 69, "velocity": 114, "channel": 0}, {"type": "note_on", "time": 3, "note": 70, "velocity": 109, "channel": 0}, {"type": "note_off", "time": 103, "note": 70, "velocity": 109, "channel": 0}, {"type": "note_on", "time": 15, "note": 72, "velocity": 117, "channel": 0}, {"type": "note_off", "time": 106, "note": 72, "velocity": 117, "channel": 0}, {"type": "note_on", "time": 12, "note": 73, "velocity": 121, "channel": 0}, {"type": "note_off", "time": 104, "note": 73, "velocity": 121, "channel": 0}, {"type": "note_on", "time": 17, "note": 75, "velocity": 127, "channel": 0}, {"type": "note_off", "time": 113, "note": 75, "velocity": 127, "channel": 0}, {"type": "note_on", "time": 12, "note": 77, "velocity": 120, "channel": 0}, {"type": "note_off", "time": 134, "note": 77, "velocity": 120, "channel": 0}, {"type": "note_on", "time": 22, "note": 83, "velocity": 102, "channel": 0}, {"type": "note_off", "time": 34, "note": 83, "velocity": 102, "channel": 0}, {"type": "note_on", "time": 3, "note": 85, "velocity": 119, "channel": 0}, {"type": "note_off", "time": 167, "note": 85, "velocity": 119, "channel": 0}, {"type": "note_on", "time": 24, "note": 82, "velocity": 120, "channel": 0}, {"type": "note_off", "time": 202, "note": 82, "velocity": 120, "channel": 0}, {"type": "note_on", "time": 10, "note": 77, "velocity": 120, "channel": 0}, {"type": "note_off", "time": 165, "note": 77, "velocity": 120, "channel": 0}, {"type": "note_on", "time": 26, "note": 72, "velocity": 113, "channel": 0}, {"type": "note_off", "time": 344, "note": 72, "velocity": 113, "channel": 0}, {"type": "note_on", "time": 36, "note": 80, "velocity": 114, "channel": 0}, {"type": "note_off", "time": 124, "note": 80, "velocity": 114, "channel": 0}, {"type": "note_on", "time": 22, "note": 76, "velocity": 123, "channel": 0}, {"type": "note_off", "time": 115, "note": 76, "velocity": 123, "channel": 0}, {"type": "note_on", "time": 17, "note": 71, "velocity": 108, "channel": 0}, {"type": "note_off", "time": 139, "note": 71, "velocity": 108, "channel": 0}, {"type": "note_on", "time": 19, "note": 70, "velocity": 114, "channel": 0}, {"type": "note_off", "time": 1055, "note": 70, "velocity": 114, "channel": 0}, {"type": "note_on", "time": 392, "note": 65, "velocity": 107, "channel": 0}, {"type": "note_off", "time": 196, "note": 65, "velocity": 107, "channel": 0}, {"type": "note_on", "time": 42, "note": 75, "velocity": 118, "channel": 0}, {"type": "note_off", "time": 152, "note": 75, "velocity": 118, "channel": 0}, {"type": "note_on", "time": 42, "note": 77, "velocity": 92, "channel": 0}, {"type": "note_off", "time": 117, "note": 77, "velocity": 92, "channel": 0}, {"type": "note_on", "time": 56, "note": 70, "velocity": 110, "channel": 0}, {"type": "note_off", "time": 363, "note": 70, "velocity": 110, "channel": 0}, {"type": "note_on", "time": 80, "note": 76, "velocity": 116, "channel": 0}, {"type": "note_off", "time": 118, "note": 76, "velocity": 116, "channel": 0}, {"type": "note_on", "time": 22, "note": 74, "velocity": 122, "channel": 0}, {"type": "note_off", "time": 124, "note": 74, "velocity": 122, "channel": 0}, {"type": "note_on", "time": 22, "note": 71, "velocity": 105, "channel": 0}, {"type": "note_off", "time": 265, "note": 71, "velocity": 105, "channel": 0}, {"type": "note_on", "time": 19, "note": 69, "velocity": 114, "channel": 0}, {"type": "note_off", "time": 96, "note": 69, "velocity": 114, "channel": 0}, {"type": "note_on", "time": 38, "note": 64, "velocity": 114, "channel": 0}, {"type": "note_off", "time": 104, "note": 64, "velocity": 114, "channel": 0}, {"type": "note_on", "time": 26, "note": 62, "velocity": 116, "channel": 0}, {"type": "note_off", "time": 120, "note": 62, "velocity": 116, "channel": 0}, {"type": "note_on", "time": 24, "note": 58, "velocity": 103, "channel": 0}, {"type": "note_off", "time": 300, "note": 58, "velocity": 103, "channel": 0}, {"type": "note_on", "time": 629, "note": 61, "velocity": 119, "channel": 0}, {"type": "note_off", "time": 82, "note": 61, "velocity": 119, "channel": 0}, {"type": "note_on", "time": 4, "note": 63, "velocity": 118, "channel": 0}, {"type": "note_off", "time": 33, "note": 63, "velocity": 118, "channel": 0}, {"type": "note_on", "time": 11, "note": 65, "velocity": 115, "channel": 0}, {"type": "note_off", "time": 49, "note": 65, "velocity": 115, "channel": 0}, {"type": "note_on", "time": 14, "note": 67, "velocity": 116, "channel": 0}, {"type": "note_off", "time": 46, "note": 67, "velocity": 116, "channel": 0}, {"type": "note_on", "time": 21, "note": 68, "velocity": 105, "channel": 0}, {"type": "note_off", "time": 47, "note": 68, "velocity": 105, "channel": 0}, {"type": "note_on", "time": 8, "note": 70, "velocity": 115, "channel": 0}, {"type": "note_off", "time": 45, "note": 70, "velocity": 115, "channel": 0}, {"type": "note_on", "time": 16, "note": 72, "velocity": 113, "channel": 0}, {"type": "note_off", "time": 62, "note": 72, "velocity": 113, "channel": 0}, {"type": "note_on", "time": 4, "note": 73, "velocity": 113, "channel": 0}, {"type": "note_off", "time": 41, "note": 73, "velocity": 113, "channel": 0}, {"type": "note_on", "time": 1, "note": 75, "velocity": 117, "channel": 0}, {"type": "note_off", "time": 39, "note": 75, "velocity": 117, "channel": 0}, {"type": "note_on", "time": 4, "note": 77, "velocity": 118, "channel": 0}, {"type": "note_off", "time": 30, "note": 77, "velocity": 118, "channel": 0}, {"type": "note_on", "time": 4, "note": 79, "velocity": 110, "channel": 0}, {"type": "note_off", "time": 25, "note": 79, "velocity": 110, "channel": 0}, {"type": "note_on", "time": 14, "note": 80, "velocity": 114, "channel": 0}, {"type": "note_off", "time": 35, "note": 80, "velocity": 114, "channel": 0}, {"type": "note_on", "time": 8, "note": 82, "velocity": 105, "channel": 0}, {"type": "note_off", "time": 874, "note": 82, "velocity": 105, "channel": 0}, {"type": "note_on", "time": 32, "note": 77, "velocity": 114, "channel": 0}, {"type": "note_off", "time": 76, "note": 77, "velocity": 114, "channel": 0}, {"type": "note_on", "time": 90, "note": 77, "velocity": 115, "channel": 0}, {"type": "note_off", "time": 143, "note": 77, "velocity": 115, "channel": 0}, {"type": "note_on", "time": 33, "note": 76, "velocity": 119, "channel": 0}, {"type": "note_off", "time": 17, "note": 76, "velocity": 119, "channel": 0}, {"type": "note_on", "time": 8, "note": 77, "velocity": 118, "channel": 0}, {"type": "note_off", "time": 160, "note": 77, "velocity": 118, "channel": 0}, {"type": "note_on", "time": 26, "note": 75, "velocity": 122, "channel": 0}, {"type": "note_off", "time": 92, "note": 75, "velocity": 122, "channel": 0}, {"type": "note_on", "time": 21, "note": 73, "velocity": 114, "channel": 0}, {"type": "note_off", "time": 120, "note": 73, "velocity": 114, "channel": 0}, {"type": "note_on", "time": 31, "note": 70, "velocity": 107, "channel": 0}, {"type": "note_off", "time": 127, "note": 70, "velocity": 107, "channel": 0}, {"type": "note_on", "time": 19, "note": 63, "velocity": 111, "channel": 0}, {"type": "note_off", "time": 248, "note": 63, "velocity": 111, "channel": 0}, {"type": "note_on", "time": 920, "note": 63, "velocity": 118, "channel": 0}, {"type": "note_off", "time": 36, "note": 63, "velocity": 118, "channel": 0}, {"type": "note_on", "time": 1, "note": 64, "velocity": 116, "channel": 0}, {"type": "note_off", "time": 136, "note": 64, "velocity": 116, "channel": 0}, {"type": "note_on", "time": 8, "note": 70, "velocity": 115, "channel": 0}, {"type": "note_off", "time": 393, "note": 70, "velocity": 115, "channel": 0}, {"type": "note_on", "time": 69, "note": 68, "velocity": 109, "channel": 0}, {"type": "note_off", "time": 120, "note": 68, "velocity": 109, "channel": 0}, {"type": "note_on", "time": 29, "note": 66, "velocity": 116, "channel": 0}, {"type": "note_off", "time": 129, "note": 66, "velocity": 116, "channel": 0}, {"type": "note_on", "time": 24, "note": 58, "velocity": 98, "channel": 0}, {"type": "note_off", "time": 96, "note": 58, "velocity": 98, "channel": 0}, {"type": "note_on", "time": 82, "note": 65, "velocity": 119, "channel": 0}, {"type": "note_off", "time": 132, "note": 65, "velocity": 119, "channel": 0}, {"type": "note_on", "time": 12, "note": 63, "velocity": 109, "channel": 0}, {"type": "note_off", "time": 267, "note": 63, "velocity": 109, "channel": 0}, {"type": "note_on", "time": 698, "note": 67, "velocity": 116, "channel": 0}, {"type": "note_off", "time": 96, "note": 67, "velocity": 116, "channel": 0}, {"type": "note_on", "time": 18, "note": 70, "velocity": 113, "channel": 0}, {"type": "note_off", "time": 82, "note": 70, "velocity": 113, "channel": 0}, {"type": "note_on", "time": 30, "note": 72, "velocity": 112, "channel": 0}, {"type": "note_off", "time": 90, "note": 72, "velocity": 112, "channel": 0}, {"type": "note_on", "time": 25, "note": 73, "velocity": 118, "channel": 0}, {"type": "note_off", "time": 80, "note": 73, "velocity": 118, "channel": 0}, {"type": "note_on", "time": 13, "note": 76, "velocity": 115, "channel": 0}, {"type": "note_off", "time": 87, "note": 76, "velocity": 115, "channel": 0}, {"type": "note_on", "time": 19, "note": 79, "velocity": 123, "channel": 0}, {"type": "note_off", "time": 76, "note": 79, "velocity": 123, "channel": 0}, {"type": "note_on", "time": 30, "note": 82, "velocity": 116, "channel": 0}, {"type": "note_off", "time": 85, "note": 82, "velocity": 116, "channel": 0}, {"type": "note_on", "time": 19, "note": 84, "velocity": 118, "channel": 0}, {"type": "note_off", "time": 128, "note": 84, "velocity": 118, "channel": 0}, {"type": "note_on", "time": 6, "note": 84, "velocity": 117, "channel": 0}, {"type": "note_off", "time": 48, "note": 84, "velocity": 117, "channel": 0}, {"type": "note_on", "time": 5, "note": 85, "velocity": 111, "channel": 0}, {"type": "note_off", "time": 372, "note": 85, "velocity": 111, "channel": 0}, {"type": "note_on", "time": 24, "note": 84, "velocity": 111, "channel": 0}, {"type": "note_off", "time": 221, "note": 84, "velocity": 111, "channel": 0}, {"type": "note_on", "time": 38, "note": 79, "velocity": 117, "channel": 0}, {"type": "note_off", "time": 260, "note": 79, "velocity": 117, "channel": 0}, {"type": "note_on", "time": 31, "note": 76, "velocity": 120, "channel": 0}, {"type": "note_off", "time": 131, "note": 76, "velocity": 120, "channel": 0}, {"type": "note_on", "time": 21, "note": 72, "velocity": 109, "channel": 0}, {"type": "note_off", "time": 115, "note": 72, "velocity": 109, "channel": 0}, {"type": "note_on", "time": 24, "note": 71, "velocity": 102, "channel": 0}, {"type": "note_off", "time": 262, "note": 71, "velocity": 102, "channel": 0}, {"type": "note_on", "time": 58, "note": 83, "velocity": 113, "channel": 0}, {"type": "note_off", "time": 400, "note": 83, "velocity": 113, "channel": 0}, {"type": "note_on", "time": 613, "note": 81, "velocity": 115, "channel": 0}, {"type": "note_off", "time": 13, "note": 81, "velocity": 115, "channel": 0}, {"type": "note_on", "time": 6, "note": 82, "velocity": 107, "channel": 0}, {"type": "note_off", "time": 90, "note": 82, "velocity": 107, "channel": 0}, {"type": "note_on", "time": 13, "note": 77, "velocity": 115, "channel": 0}, {"type": "note_off", "time": 101, "note": 77, "velocity": 115, "channel": 0}, {"type": "note_on", "time": 13, "note": 74, "velocity": 121, "channel": 0}, {"type": "note_off", "time": 106, "note": 74, "velocity": 121, "channel": 0}, {"type": "note_on", "time": 23, "note": 70, "velocity": 108, "channel": 0}, {"type": "note_off", "time": 98, "note": 70, "velocity": 108, "channel": 0}, {"type": "note_on", "time": 13, "note": 69, "velocity": 111, "channel": 0}, {"type": "note_off", "time": 178, "note": 69, "velocity": 111, "channel": 0}, {"type": "note_on", "time": 33, "note": 81, "velocity": 113, "channel": 0}, {"type": "note_off", "time": 594, "note": 81, "velocity": 113, "channel": 0}, {"type": "note_on", "time": 17, "note": 80, "velocity": 111, "channel": 0}, {"type": "note_off", "time": 111, "note": 80, "velocity": 111, "channel": 0}, {"type": "note_on", "time": 101, "note": 81, "velocity": 117, "channel": 0}, {"type": "note_off", "time": 27, "note": 81, "velocity": 117, "channel": 0}, {"type": "note_on", "time": 1, "note": 82, "velocity": 106, "channel": 0}, {"type": "note_off", "time": 269, "note": 82, "velocity": 106, "channel": 0}, {"type": "note_on", "time": 20, "note": 80, "velocity": 111, "channel": 0}, {"type": "note_off", "time": 125, "note": 80, "velocity": 111, "channel": 0}, {"type": "note_on", "time": 20, "note": 82, "velocity": 110, "channel": 0}, {"type": "note_off", "time": 136, "note": 82, "velocity": 110, "channel": 0}, {"type": "note_on", "time": 24, "note": 80, "velocity": 108, "channel": 0}, {"type": "note_off", "time": 204, "note": 80, "velocity": 108, "channel": 0}, {"type": "note_on", "time": 13, "note": 76, "velocity": 116, "channel": 0}, {"type": "note_off", "time": 622, "note": 76, "velocity": 116, "channel": 0}, {"type": "note_on", "time": 3, "note": 77, "velocity": 115, "channel": 0}, {"type": "note_off", "time": 309, "note": 77, "velocity": 115, "channel": 0}, {"type": "note_on", "time": 396, "note": 65, "velocity": 114, "channel": 0}, {"type": "note_off", "time": 38, "note": 65, "velocity": 114, "channel": 0}, {"type": "note_on", "time": 12, "note": 67, "velocity": 117, "channel": 0}, {"type": "note_off", "time": 33, "note": 67, "velocity": 117, "channel": 0}, {"type": "note_on", "time": 22, "note": 69, "velocity": 116, "channel": 0}, {"type": "note_off", "time": 45, "note": 69, "velocity": 116, "channel": 0}, {"type": "note_on", "time": 19, "note": 71, "velocity": 108, "channel": 0}, {"type": "note_off", "time": 115, "note": 71, "velocity": 108, "channel": 0}, {"type": "note_on", "time": 21, "note": 73, "velocity": 118, "channel": 0}, {"type": "note_off", "time": 106, "note": 73, "velocity": 118, "channel": 0}, {"type": "note_on", "time": 11, "note": 74, "velocity": 121, "channel": 0}, {"type": "note_off", "time": 110, "note": 74, "velocity": 121, "channel": 0}, {"type": "note_on", "time": 12, "note": 75, "velocity": 122, "channel": 0}, {"type": "note_off", "time": 120, "note": 75, "velocity": 122, "channel": 0}, {"type": "note_on", "time": 13, "note": 76, "velocity": 121, "channel": 0}, {"type": "note_off", "time": 118, "note": 76, "velocity": 121, "channel": 0}, {"type": "note_on", "time": 13, "note": 78, "velocity": 118, "channel": 0}, {"type": "note_off", "time": 157, "note": 78, "velocity": 118, "channel": 0}, {"type": "note_on", "time": 21, "note": 77, "velocity": 115, "channel": 0}, {"type": "note_off", "time": 408, "note": 77, "velocity": 115, "channel": 0}, {"type": "note_on", "time": 59, "note": 73, "velocity": 115, "channel": 0}, {"type": "note_off", "time": 143, "note": 73, "velocity": 115, "channel": 0}, {"type": "note_on", "time": 38, "note": 70, "velocity": 112, "channel": 0}, {"type": "note_off", "time": 129, "note": 70, "velocity": 112, "channel": 0}, {"type": "note_on", "time": 20, "note": 67, "velocity": 118, "channel": 0}, {"type": "note_off", "time": 118, "note": 67, "velocity": 118, "channel": 0}, {"type": "note_on", "time": 25, "note": 66, "velocity": 115, "channel": 0}, {"type": "note_off", "time": 164, "note": 66, "velocity": 115, "channel": 0}, {"type": "note_on", "time": 15, "note": 76, "velocity": 116, "channel": 0}, {"type": "note_off", "time": 382, "note": 76, "velocity": 116, "channel": 0}, {"type": "note_on", "time": 703, "note": 75, "velocity": 121, "channel": 0}, {"type": "note_off", "time": 117, "note": 75, "velocity": 121, "channel": 0}, {"type": "note_on", "time": 52, "note": 73, "velocity": 119, "channel": 0}, {"type": "note_off", "time": 127, "note": 73, "velocity": 119, "channel": 0}, {"type": "note_on", "time": 3, "note": 72, "velocity": 119, "channel": 0}, {"type": "note_off", "time": 110, "note": 72, "velocity": 119, "channel": 0}, {"type": "note_on", "time": 7, "note": 73, "velocity": 119, "channel": 0}, {"type": "note_off", "time": 93, "note": 73, "velocity": 119, "channel": 0}, {"type": "note_on", "time": 12, "note": 77, "velocity": 114, "channel": 0}, {"type": "note_off", "time": 115, "note": 77, "velocity": 114, "channel": 0}, {"type": "note_on", "time": 20, "note": 80, "velocity": 111, "channel": 0}, {"type": "note_off", "time": 125, "note": 80, "velocity": 111, "channel": 0}, {"type": "note_on", "time": 15, "note": 84, "velocity": 112, "channel": 0}, {"type": "note_off", "time": 165, "note": 84, "velocity": 112, "channel": 0}, {"type": "note_on", "time": 17, "note": 82, "velocity": 116, "channel": 0}, {"type": "note_off", "time": 279, "note": 82, "velocity": 116, "channel": 0}, {"type": "note_on", "time": 657, "note": 82, "velocity": 116, "channel": 0}, {"type": "note_off", "time": 38, "note": 82, "velocity": 116, "channel": 0}, {"type": "note_on", "time": 6, "note": 83, "velocity": 119, "channel": 0}, {"type": "note_off", "time": 19, "note": 83, "velocity": 119, "channel": 0}, {"type": "note_on", "time": 11, "note": 84, "velocity": 117, "channel": 0}, {"type": "note_off", "time": 23, "note": 84, "velocity": 117, "channel": 0}, {"type": "note_on", "time": 18, "note": 85, "velocity": 114, "channel": 0}, {"type": "note_off", "time": 58, "note": 85, "velocity": 114, "channel": 0}, {"type": "note_on", "time": 8, "note": 87, "velocity": 110, "channel": 0}, {"type": "note_off", "time": 167, "note": 87, "velocity": 110, "channel": 0}, {"type": "note_on", "time": 15, "note": 85, "velocity": 111, "channel": 0}, {"type": "note_off", "time": 138, "note": 85, "velocity": 111, "channel": 0}, {"type": "note_on", "time": 13, "note": 82, "velocity": 97, "channel": 0}, {"type": "note_off", "time": 113, "note": 82, "velocity": 97, "channel": 0}, {"type": "note_on", "time": 24, "note": 78, "velocity": 103, "channel": 0}, {"type": "note_off", "time": 120, "note": 78, "velocity": 103, "channel": 0}, {"type": "note_on", "time": 15, "note": 77, "velocity": 103, "channel": 0}, {"type": "note_off", "time": 128, "note": 77, "velocity": 103, "channel": 0}, {"type": "note_on", "time": 18, "note": 73, "velocity": 102, "channel": 0}, {"type": "note_off", "time": 126, "note": 73, "velocity": 102, "channel": 0}, {"type": "note_on", "time": 8, "note": 70, "velocity": 92, "channel": 0}, {"type": "note_off", "time": 135, "note": 70, "velocity": 92, "channel": 0}, {"type": "note_on", "time": 14, "note": 66, "velocity": 88, "channel": 0}, {"type": "note_off", "time": 151, "note": 66, "velocity": 88, "channel": 0}, {"type": "note_on", "time": 12, "note": 61, "velocity": 83, "channel": 0}, {"type": "note_off", "time": 186, "note": 61, "velocity": 83, "channel": 0}, {"type": "note_on", "time": 12, "note": 58, "velocity": 72, "channel": 0}, {"type": "note_off", "time": 202, "note": 58, "velocity": 72, "channel": 0}, {"type": "note_on", "time": 11, "note": 60, "velocity": 64, "channel": 0}, {"type": "note_off", "time": 308, "note": 60, "velocity": 64, "channel": 0}, {"type": "end_of_track", "time": 0}]]}