{"ticks_per_beat": 840, "tracks": [[{"type": "track_name", "name": "Melody", "time": 0}, {"type": "set_tempo", "tempo": 576923, "time": 0}, {"type": "key_signature", "key": "Ab", "time": 0}, {"type": "time_signature", "numerator": 5, "denominator": 4, "clocks_per_click": 24, "notated_32nd_notes_per_beat": 8, "time": 0}, {"type": "note_on", "time": 10412, "note": 63, "velocity": 100, "channel": 0}, {"type": "note_off", "time": 938, "note": 63, "velocity": 100, "channel": 0}, {"type": "note_on", "time": 8, "note": 56, "velocity": 109, "channel": 0}, {"type": "note_off", "time": 202, "note": 56, "velocity": 109, "channel": 0}, {"type": "note_on", "time": 0, "note": 65, "velocity": 112, "channel": 0}, {"type": "note_off", "time": 1724, "note": 65, "velocity": 112, "channel": 0}, {"type": "note_on", "time": 0, "note": 63, "velocity": 110, "channel": 0}, {"type": "note_off", "time": 811, "note": 63, "velocity": 110, "channel": 0}, {"type": "note_on", "time": 67, "note": 56, "velocity": 102, "channel": 0}, {"type": "note_off", "time": 528, "note": 56, "velocity": 102, "channel": 0}, {"type": "note_on", "time": 1787, "note": 62, "velocity": 122, "channel": 0}, {"type": "note_off", "time": 190, "note": 62, "velocity": 122, "channel": 0}, {"type": "note_on", "time": 4, "note": 56, "velocity": 96, "channel": 0}, {"type": "note_off", "time": 240, "note": 56, "velocity": 96, "channel": 0}, {"type": "note_on", "time": 105, "note": 62, "velocity": 111, "channel": 0}, {"type": "note_off", "time": 1301, "note": 62, "velocity": 111, "channel": 0}, {"type": "note_on", "time": 0, "note": 56, "velocity": 93, "channel": 0}, {"type": "note_off", "time": 301, "note": 56, "velocity": 93, "channel": 0}, {"type": "note_on", "time": 66, "note": 62, "velocity": 114, "channel": 0}, {"type": "note_off", "time": 146, "note": 62, "velocity": 114, "channel": 0}, {"type": "note_on", "time": 0, "note": 68, "velocity": 113, "channel": 0}, {"type": "note_off", "time": 243, "note": 68, "velocity": 113, "channel": 0}, {"type": "note_on", "time": 255, "note": 62, "velocity": 103, "channel": 0}, {"type": "note_off", "time": 152, "note": 62, "velocity": 103, "channel": 0}, {"type": "note_on", "time": 0, "note": 67, "velocity": 114, "channel": 0}, {"type": "note_off", "time": 142, "note": 67, "velocity": 114, "channel": 0}, {"type": "note_on", "time": 26, "note": 72, "velocity": 115, "channel": 0}, {"type": "note_off", "time": 181, "note": 72, "velocity": 115, "channel": 0}, {"type": "note_on", "time": 46, "note": 70, "velocity": 111, "channel": 0}, {"type": "note_off", "time": 180, "note": 70, "velocity": 111, "channel": 0}, {"type": "note_on", "time": 13, "note": 67, "velocity": 101, "channel": 0}, {"type": "note_off", "time": 143, "note": 67, "velocity": 101, "channel": 0}, {"type": "note_on", "time": 0, "note": 68, "velocity": 111, "channel": 0}, {"type": "note_off", "time": 447, "note": 68, "velocity": 111, "channel": 0}, {"type": "note_on", "time": 0, "note": 65, "velocity": 111, "channel": 0}, {"type": "note_off", "time": 150, "note": 65, "velocity": 111, "channel": 0}, {"type": "note_on", "time": 128, "note": 62, "velocity": 110, "channel": 0}, {"type": "note_off", "time": 566, "note": 62, "velocity": 110, "channel": 0}, {"type": "note_on", "time": 0, "note": 60, "velocity": 104, "channel": 0}, {"type": "note_off", "time": 243, "note": 60, "velocity": 104, "channel": 0}, {"type": "note_on", "time": 4109, "note": 56, "velocity": 97, "channel": 0}, {"type": "note_off", "time": 280, "note": 56, "velocity": 97, "channel": 0}, {"type": "note_on", "time": 66, "note": 61, "velocity": 118, "channel": 0}, {"type": "note_off", "time": 191, "note": 61, "velocity": 118, "channel": 0}, {"type": "note_on", "time": 37, "note": 67, "velocity": 115, "channel": 0}, {"type": "note_off", "time": 126, "note": 67, "velocity": 115, "channel": 0}, {"type": "note_on", "time": 16, "note": 70, "velocity": 112, "channel": 0}, {"type": "note_off", "time": 84, "note": 70, "velocity": 112, "channel": 0}, {"type": "note_on", "time": 84, "note": 73, "velocity": 116, "channel": 0}, {"type": "note_off", "time": 177, "note": 73, "velocity": 116, "channel": 0}, {"type": "note_on", "time": 0, "note": 71, "velocity": 112, "channel": 0}, {"type": "note_off", "time": 245, "note": 71, "velocity": 112, "channel": 0}, {"type": "note_on", "time": 0, "note": 70, "velocity": 110, "channel": 0}, {"type": "note_off", "time": 2166, "note": 70, "velocity": 110, "channel": 0}, {"type": "note_on", "time": 352, "note": 66, "velocity": 109, "channel": 0}, {"type": "note_off", "time": 211, "note": 66, "velocity": 109, "channel": 0}, {"type": "note_on", "time": 0, "note": 63, "velocity": 121, "channel": 0}, {"type": "note_off", "time": 175, "note": 63, "velocity": 121, "channel": 0}, {"type": "note_on", "time": 18, "note": 59, "velocity": 112, "channel": 0}, {"type": "note_off", "time": 202, "note": 59, "velocity": 112, "channel": 0}, {"type": "note_on", "time": 0, "note": 66, "velocity": 112, "channel": 0}, {"type": "note_on", "time": 194, "note": 67, "velocity": 107, "channel": 0}, {"type": "note_off", "time": 0, "note": 66, "velocity": 112, "channel": 0}, {"type": "note_off", "time": 354, "note": 67, "velocity": 107, "channel": 0}, {"type": "note_on", "time": 59, "note": 63, "velocity": 114, "channel": 0}, {"type": "note_off", "time": 215, "note": 63, "velocity": 114, "channel": 0}, {"type": "note_on", "time": 4, "note": 68, "velocity": 118, "channel": 0}, {"type": "note_off", "time": 109, "note": 68, "velocity": 118, "channel": 0}, {"type": "note_on", "time": 0, "note": 70, "velocity": 104, "channel": 0}, {"type": "note_off", "time": 152, "note": 70, "velocity": 104, "channel": 0}, {"type": "note_on", "time": 0, "note": 68, "velocity": 111, "channel": 0}, {"type": "note_off", "time": 109, "note": 68, "velocity": 111, "channel": 0}, {"type": "note_on", "time": 0, "note": 67, "velocity": 111, "channel": 0}, {"type": "note_off", "time": 134, "note": 67, "velocity": 111, "channel": 0}, {"type": "note_on", "time": 139, "note": 66, "velocity": 109, "channel": 0}, {"type": "note_off", "time": 264, "note": 66, "velocity": 109, "channel": 0}, {"type": "note_on", "time": 171, "note": 63, "velocity": 120, "channel": 0}, {"type": "note_off", "time": 179, "note": 63, "velocity": 120, "channel": 0}, {"type": "note_on", "time": 14, "note": 59, "velocity": 119, "channel": 0}, {"type": "note_off", "time": 180, "note": 59, "velocity": 119, "channel": 0}, {"type": "note_on", "time": 44, "note": 56, "velocity": 107, "channel": 0}, {"type": "note_on", "time": 172, "note": 61, "velocity": 120, "channel": 0}, {"type": "note_off", "time": 0, "note": 56, "velocity": 107, "channel": 0}, {"type": "note_off", "time": 164, "note": 61, "velocity": 120, "channel": 0}, {"type": "note_on", "time": 79, "note": 56, "velocity": 107, "channel": 0}, {"type": "note_off", "time": 203, "note": 56, "velocity": 107, "channel": 0}, {"type": "note_on", "time": 125, "note": 61, "velocity": 119, "channel": 0}, {"type": "note_off", "time": 160, "note": 61, "velocity": 119, "channel": 0}, {"type": "note_on", "time": 101, "note": 60, "velocity": 108, "channel": 0}, {"type": "note_off", "time": 228, "note": 60, "velocity": 108, "channel": 0}, {"type": "note_on", "time": 19, "note": 53, "velocity": 91, "channel": 0}, {"type": "note_off", "time": 166, "note": 53, "velocity": 91, "channel": 0}, {"type": "note_on", "time": 0, "note": 56, "velocity": 107, "channel": 0}, {"type": "note_off", "time": 363, "note": 56, "velocity": 107, "channel": 0}, {"type": "note_on", "time": 33, "note": 55, "velocity": 104, "channel": 0}, {"type": "note_off", "time": 230, "note": 55, "velocity": 104, "channel": 0}, {"type": "note_on", "time": 53, "note": 58, "velocity": 102, "channel": 0}, {"type": "note_off", "time": 163, "note": 58, "velocity": 102, "channel": 0}, {"type": "note_on", "time": 0, "note": 63, "velocity": 111, "channel": 0}, {"type": "note_off", "time": 202, "note": 63, "velocity": 111, "channel": 0}, {"type": "note_on", "time": 0, "note": 67, "velocity": 112, "channel": 0}, {"type": "note_off", "time": 214, "note": 67, "velocity": 112, "channel": 0}, {"type": "note_on", "time": 35, "note": 61, "velocity": 112, "channel": 0}, {"type": "note_off", "time": 164, "note": 61, "velocity": 112, "channel": 0}, {"type": "note_on", "time": 0, "note": 63, "velocity": 114, "channel": 0}, {"type": "note_off", "time": 153, "note": 63, "velocity": 114, "channel": 0}, {"type": "note_on", "time": 23, "note": 65, "velocity": 113, "channel": 0}, {"type": "note_off", "time": 206, "note": 65, "velocity": 113, "channel": 0}, {"type": "note_on", "time": 48, "note": 70, "velocity": 100, "channel": 0}, {"type": "note_off", "time": 100, "note": 70, "velocity": 100, "channel": 0}, {"type": "note_on", "time": 83, "note": 73, "velocity": 110, "channel": 0}, {"type": "note_off", "time": 236, "note": 73, "velocity": 110, "channel": 0}, {"type": "note_on", "time": 0, "note": 67, "velocity": 101, "channel": 0}, {"type": "note_off", "time": 169, "note": 67, "velocity": 101, "channel": 0}, {"type": "note_on", "time": 0, "note": 70, "velocity": 114, "channel": 0}, {"type": "note_off", "time": 195, "note": 70, "velocity": 114, "channel": 0}, {"type": "note_on", "time": 36, "note": 72, "velocity": 112, "channel": 0}, {"type": "note_off", "time": 200, "note": 72, "velocity": 112, "channel": 0}, {"type": "note_on", "time": 0, "note": 75, "velocity": 119, "channel": 0}, {"type": "note_on", "time": 195, "note": 77, "velocity": 118, "channel": 0}, {"type": "note_off", "time": 0, "note": 75, "velocity": 119, "channel": 0}, {"type": "note_off", "time": 158, "note": 77, "velocity": 118, "channel": 0}, {"type": "note_on", "time": 74, "note": 79, "velocity": 104, "channel": 0}, {"type": "note_off", "time": 794, "note": 79, "velocity": 104, "channel": 0}, {"type": "note_on", "time": 0, "note": 72, "velocity": 105, "channel": 0}, {"type": "note_off", "time": 167, "note": 72, "velocity": 105, "channel": 0}, {"type": "note_on", "time": 77, "note": 70, "velocity": 109, "channel": 0}, {"type": "note_off", "time": 145, "note": 70, "velocity": 109, "channel": 0}, {"type": "note_on", "time": 87, "note": 68, "velocity": 99, "channel": 0}, {"type": "note_off", "time": 628, "note": 68, "velocity": 99, "channel": 0}, {"type": "note_on", "time": 2156, "note": 72, "velocity": 116, "channel": 0}, {"type": "note_off", "time": 194, "note": 72, "velocity": 116, "channel": 0}, {"type": "note_on", "time": 16, "note": 71, "velocity": 116, "channel": 0}, {"type": "note_off", "time": 175, "note": 71, "velocity": 116, "channel": 0}, {"type": "note_on", "time": 35, "note": 70, "velocity": 116, "channel": 0}, {"type": "note_off", "time": 137, "note": 70, "velocity": 116, "channel": 0}, {"type": "note_on", "time": 15, "note": 66, "velocity": 114, "channel": 0}, {"type": "note_off", "time": 172, "note": 66, "velocity": 114, "channel": 0}, {"type": "note_on", "time": 47, "note": 70, "velocity": 112, "channel": 0}, {"type": "note_off", "time": 166, "note": 70, "velocity": 112, "channel": 0}, {"type": "note_on", "time": 19, "note": 68, "velocity": 114, "channel": 0}, {"type": "note_off", "time": 164, "note": 68, "velocity": 114, "channel": 0}, {"type": "note_on", "time": 64, "note": 66, "velocity": 114, "channel": 0}, {"type": "note_off", "time": 135, "note": 66, "velocity": 114, "channel": 0}, {"type": "note_on", "time": 8, "note": 64, "velocity": 110, "channel": 0}, {"type": "note_off", "time": 871, "note": 64, "velocity": 110, "channel": 0}, {"type": "note_on", "time": 1436, "note": 61, "velocity": 122, "channel": 0}, {"type": "note_off", "time": 180, "note": 61, "velocity": 122, "channel": 0}, {"type": "note_on", "time": 13, "note": 60, "velocity": 116, "channel": 0}, {"type": "note_off", "time": 160, "note": 60, "velocity": 116, "channel": 0}, {"type": "note_on", "time": 25, "note": 63, "velocity": 120, "channel": 0}, {"type": "note_off", "time": 169, "note": 63, "velocity": 120, "channel": 0}, {"type": "note_on", "time": 0, "note": 62, "velocity": 120, "channel": 0}, {"type": "note_off", "time": 187, "note": 62, "velocity": 120, "channel": 0}, {"type": "note_on", "time": 192, "note": 56, "velocity": 103, "channel": 0}, {"type": "note_off", "time": 251, "note": 56, "velocity": 103, "channel": 0}, {"type": "note_on", "time": 78, "note": 62, "velocity": 120, "channel": 0}, {"type": "note_off", "time": 162, "note": 62, "velocity": 120, "channel": 0}, {"type": "note_on", "time": 40, "note": 59, "velocity": 113, "channel": 0}, {"type": "note_off", "time": 163, "note": 59, "velocity": 113, "channel": 0}, {"type": "note_on", "time": 39, "note": 57, "velocity": 106, "channel": 0}, {"type": "note_off", "time": 202, "note": 57, "velocity": 106, "channel": 0}, {"type": "note_on", "time": 0, "note": 58, "velocity": 113, "channel": 0}, {"type": "note_off", "time": 188, "note": 58, "velocity": 113, "channel": 0}, {"type": "note_on", "time": 6, "note": 57, "velocity": 114, "channel": 0}, {"type": "note_off", "time": 169, "note": 57, "velocity": 114, "channel": 0}, {"type": "note_on", "time": 0, "note": 56, "velocity": 111, "channel": 0}, {"type": "note_off", "time": 198, "note": 56, "velocity": 111, "channel": 0}, {"type": "note_on", "time": 4, "note": 58, "velocity": 110, "channel": 0}, {"type": "note_off", "time": 150, "note": 58, "velocity": 110, "channel": 0}, {"type": "note_on", "time": 60, "note": 59, "velocity": 108, "channel": 0}, {"type": "note_off", "time": 233, "note": 59, "velocity": 108, "channel": 0}, {"type": "note_on", "time": 11, "note": 68, "velocity": 116, "channel": 0}, {"type": "note_off", "time": 159, "note": 68, "velocity": 116, "channel": 0}, {"type": "note_on", "time": 18, "note": 64, "velocity": 119, "channel": 0}, {"type": "note_off", "time": 174, "note": 64, "velocity": 119, "channel": 0}, {"type": "note_on", "time": 146, "note": 58, "velocity": 112, "channel": 0}, {"type": "note_off", "time": 101, "note": 58, "velocity": 112, "channel": 0}, {"type": "note_on", "time": 0, "note": 66, "velocity": 106, "channel": 0}, {"type": "note_off", "time": 344, "note": 66, "velocity": 106, "channel": 0}, {"type": "note_on", "time": 69, "note": 68, "velocity": 110, "channel": 0}, {"type": "note_off", "time": 422, "note": 68, "velocity": 110, "channel": 0}, {"type": "note_on", "time": 0, "note": 64, "velocity": 118, "channel": 0}, {"type": "note_off", "time": 239, "note": 64, "velocity": 118, "channel": 0}, {"type": "note_on", "time": 199, "note": 62, "velocity": 113, "channel": 0}, {"type": "note_off", "time": 275, "note": 62, "velocity": 113, "channel": 0}, {"type": "note_on", "time": 71, "note": 58, "velocity": 100, "channel": 0}, {"type": "note_off", "time": 152, "note": 58, "velocity": 100, "channel": 0}, {"type": "note_on", "time": 0, "note": 63, "velocity": 118, "channel": 0}, {"type": "note_off", "time": 228, "note": 63, "velocity": 118, "channel": 0}, {"type": "note_on", "time": 0, "note": 65, "velocity": 107, "channel": 0}, {"type": "note_off", "time": 164, "note": 65, "velocity": 107, "channel": 0}, {"type": "note_on", "time": 8, "note": 62, "velocity": 114, "channel": 0}, {"type": "note_off", "time": 249, "note": 62, "velocity": 114, "channel": 0}, {"type": "note_on", "time": 0, "note": 66, "velocity": 104, "channel": 0}, {"type": "note_off", "time": 191, "note": 66, "velocity": 104, "channel": 0}, {"type": "note_on", "time": 230, "note": 63, "velocity": 118, "channel": 0}, {"type": "note_off", "time": 145, "note": 63, "velocity": 118, "channel": 0}, {"type": "note_on", "time": 48, "note": 69, "velocity": 117, "channel": 0}, {"type": "note_off", "time": 194, "note": 69, "velocity": 117, "channel": 0}, {"type": "note_on", "time": 101, "note": 64, "velocity": 102, "channel": 0}, {"type": "note_on", "time": 185, "note": 69, "velocity": 119, "channel": 0}, {"type": "note_off", "time": 0, "note": 64, "velocity": 102, "channel": 0}, {"type": "note_off", "time": 232, "note": 69, "velocity": 119, "channel": 0}, {"type": "note_on", "time": 4, "note": 66, "velocity": 111, "channel": 0}, {"type": "note_off", "time": 192, "note": 66, "velocity": 111, "channel": 0}, {"type": "note_on", "time": 10, "note": 62, "velocity": 116, "channel": 0}, {"type": "note_off", "time": 202, "note": 62, "velocity": 116, "channel": 0}, {"type": "note_on", "time": 0, "note": 59, "velocity": 109, "channel": 0}, {"type": "note_off", "time": 205, "note": 59, "velocity": 109, "channel": 0}, {"type": "note_on", "time": 5, "note": 64, "velocity": 117, "channel": 0}, {"type": "note_off", "time": 219, "note": 64, "velocity": 117, "channel": 0}, {"type": "note_on", "time": 0, "note": 60, "velocity": 109, "channel": 0}, {"type": "note_off", "time": 143, "note": 60, "velocity": 109, "channel": 0}, {"type": "note_on", "time": 0, "note": 57, "velocity": 107, "channel": 0}, {"type": "note_off", "time": 228, "note": 57, "velocity": 107, "channel": 0}, {"type": "note_on", "time": 0, "note": 60, "velocity": 103, "channel": 0}, {"type": "note_off", "time": 284, "note": 60, "velocity": 103, "channel": 0}, {"type": "note_on", "time": 3, "note": 56, "velocity": 100, "channel": 0}, {"type": "note_off", "time": 539, "note": 56, "velocity": 100, "channel": 0}, {"type": "note_on", "time": 54, "note": 54, "velocity": 118, "channel": 0}, {"type": "note_off", "time": 267, "note": 54, "velocity": 118, "channel": 0}, {"type": "note_on", "time": 0, "note": 59, "velocity": 115, "channel": 0}, {"type": "note_off", "time": 160, "note": 59, "velocity": 115, "channel": 0}, {"type": "note_on", "time": 0, "note": 64, "velocity": 119, "channel": 0}, {"type": "note_off", "time": 181, "note": 64, "velocity": 119, "channel": 0}, {"type": "note_on", "time": 4, "note": 61, "velocity": 113, "channel": 0}, {"type": "note_off", "time": 202, "note": 61, "velocity": 113, "channel": 0}, {"type": "note_on", "time": 220, "note": 60, "velocity": 110, "channel": 0}, {"type": "note_off", "time": 278, "note": 60, "velocity": 110, "channel": 0}, {"type": "note_on", "time": 0, "note": 64, "velocity": 115, "channel": 0}, {"type": "note_off", "time": 160, "note": 64, "velocity": 115, "channel": 0}, {"type": "note_on", "time": 0, "note": 61, "velocity": 116, "channel": 0}, {"type": "note_off", "time": 309, "note": 61, "velocity": 116, "channel": 0}, {"type": "note_on", "time": 1296, "note": 60, "velocity": 112, "channel": 0}, {"type": "note_off", "time": 128, "note": 60, "velocity": 112, "channel": 0}, {"type": "note_on", "time": 40, "note": 64, "velocity": 119, "channel": 0}, {"type": "note_off", "time": 168, "note": 64, "velocity": 119, "channel": 0}, {"type": "note_on", "time": 34, "note": 63, "velocity": 125, "channel": 0}, {"type": "note_off", "time": 200, "note": 63, "velocity": 125, "channel": 0}, {"type": "note_on", "time": 27, "note": 61, "velocity": 115, "channel": 0}, {"type": "note_off", "time": 241, "note": 61, "velocity": 115, "channel": 0}, {"type": "note_on", "time": 265, "note": 61, "velocity": 120, "channel": 0}, {"type": "note_off", "time": 125, "note": 61, "velocity": 120, "channel": 0}, {"type": "note_on", "time": 34, "note": 60, "velocity": 113, "channel": 0}, {"type": "note_off", "time": 194, "note": 60, "velocity": 113, "channel": 0}, {"type": "note_on", "time": 0, "note": 61, "velocity": 111, "channel": 0}, {"type": "note_off", "time": 169, "note": 61, "velocity": 111, "channel": 0}, {"type": "note_on", "time": 24, "note": 63, "velocity": 119, "channel": 0}, {"type": "note_off", "time": 199, "note": 63, "velocity": 119, "channel": 0}, {"type": "note_on", "time": 257, "note": 57, "velocity": 110, "channel": 0}, {"type": "note_off", "time": 169, "note": 57, "velocity": 110, "channel": 0}, {"type": "note_on", "time": 0, "note": 58, "velocity": 106, "channel": 0}, {"type": "note_off", "time": 279, "note": 58, "velocity": 106, "channel": 0}, {"type": "note_on", "time": 2467, "note": 62, "velocity": 114, "channel": 0}, {"type": "note_off", "time": 2737, "note": 62, "velocity": 114, "channel": 0}, {"type": "note_on", "time": 30, "note": 58, "velocity": 99, "channel": 0}, {"type": "note_off", "time": 271, "note": 58, "velocity": 99, "channel": 0}, {"type": "note_on", "time": 17, "note": 55, "velocity": 92, "channel": 0}, {"type": "note_off", "time": 505, "note": 55, "velocity": 92, "channel": 0}, {"type": "note_on", "time": 0, "note": 62, "velocity": 122, "channel": 0}, {"type": "note_off", "time": 191, "note": 62, "velocity": 122, "channel": 0}, {"type": "note_on", "time": 19, "note": 58, "velocity": 106, "channel": 0}, {"type": "note_off", "time": 144, "note": 58, "velocity": 106, "channel": 0}, {"type": "note_on", "time": 38, "note": 62, "velocity": 121, "channel": 0}, {"type": "note_off", "time": 187, "note": 62, "velocity": 121, "channel": 0}, {"type": "note_on", "time": 11, "note": 58, "velocity": 108, "channel": 0}, {"type": "note_off", "time": 255, "note": 58, "velocity": 108, "channel": 0}, {"type": "note_on", "time": 0, "note": 62, "velocity": 124, "channel": 0}, {"type": "note_off", "time": 190, "note": 62, "velocity": 124, "channel": 0}, {"type": "note_on", "time": 297, "note": 62, "velocity": 113, "channel": 0}, {"type": "note_off", "time": 198, "note": 62, "velocity": 113, "channel": 0}, {"type": "note_on", "time": 0, "note": 58, "velocity": 109, "channel": 0}, {"type": "note_off", "time": 163, "note": 58, "velocity": 109, "channel": 0}, {"type": "note_on", "time": 225, "note": 62, "velocity": 117, "channel": 0}, {"type": "note_off", "time": 521, "note": 62, "velocity": 117, "channel": 0}, {"type": "note_on", "time": 0, "note": 58, "velocity": 94, "channel": 0}, {"type": "note_off", "time": 295, "note": 58, "velocity": 94, "channel": 0}, {"type": "note_on", "time": 122, "note": 62, "velocity": 122, "channel": 0}, {"type": "note_off", "time": 159, "note": 62, "velocity": 122, "channel": 0}, {"type": "note_on", "time": 215, "note": 71, "velocity": 114, "channel": 0}, {"type": "note_off", "time": 146, "note": 71, "velocity": 114, "channel": 0}, {"type": "note_on", "time": 52, "note": 73, "velocity": 114, "channel": 0}, {"type": "note_off", "time": 190, "note": 73, "velocity": 114, "channel": 0}, {"type": "note_on", "time": 20, "note": 72, "velocity": 111, "channel": 0}, {"type": "note_off", "time": 207, "note": 72, "velocity": 111, "channel": 0}, {"type": "note_on", "time": 49, "note": 69, "velocity": 117, "channel": 0}, {"type": "note_off", "time": 63, "note": 69, "velocity": 117, "channel": 0}, {"type": "note_on", "time": 47, "note": 68, "velocity": 110, "channel": 0}, {"type": "note_off", "time": 223, "note": 68, "velocity": 110, "channel": 0}, {"type": "note_on", "time": 59, "note": 63, "velocity": 118, "channel": 0}, {"type": "note_off", "time": 164, "note": 63, "velocity": 118, "channel": 0}, {"type": "note_on", "time": 0, "note": 62, "velocity": 115, "channel": 0}, {"type": "note_off", "time": 429, "note": 62, "velocity": 115, "channel": 0}, {"type": "note_on", "time": 259, "note": 68, "velocity": 116, "channel": 0}, {"type": "note_off", "time": 211, "note": 68, "velocity": 116, "channel": 0}, {"type": "note_on", "time": 0, "note": 67, "velocity": 115, "channel": 0}, {"type": "note_off", "time": 175, "note": 67, "velocity": 115, "channel": 0}, {"type": "note_on", "time": 43, "note": 62, "velocity": 118, "channel": 0}, {"type": "note_off", "time": 212, "note": 62, "velocity": 118, "channel": 0}, {"type": "note_on", "time": 0, "note": 61, "velocity": 113, "channel": 0}, {"type": "note_off", "time": 225, "note": 61, "velocity": 113, "channel": 0}, {"type": "note_on", "time": 0, "note": 63, "velocity": 110, "channel": 0}, {"type": "note_off", "time": 201, "note": 63, "velocity": 110, "channel": 0}, {"type": "note_on", "time": 18, "note": 60, "velocity": 98, "channel": 0}, {"type": "note_off", "time": 420, "note": 60, "velocity": 98, "channel": 0}, {"type": "note_on", "time": 172, "note": 58, "velocity": 100, "channel": 0}, {"type": "note_off", "time": 462, "note": 58, "velocity": 100, "channel": 0}, {"type": "note_on", "time": 1600, "note": 56, "velocity": 104, "channel": 0}, {"type": "note_on", "time": 1466, "note": 55, "velocity": 106, "channel": 0}, {"type": "note_off", "time": 0, "note": 56, "velocity": 104, "channel": 0}, {"type": "note_off", "time": 160, "note": 55, "velocity": 106, "channel": 0}, {"type": "note_on", "time": 0, "note": 52, "velocity": 105, "channel": 0}, {"type": "note_off", "time": 139, "note": 52, "velocity": 105, "channel": 0}, {"type": "note_on", "time": 0, "note": 51, "velocity": 111, "channel": 0}, {"type": "note_off", "time": 143, "note": 51, "velocity": 111, "channel": 0}, {"type": "note_on", "time": 0, "note": 49, "velocity": 121, "channel": 0}, {"type": "note_off", "time": 164, "note": 49, "velocity": 121, "channel": 0}, {"type": "note_on", "time": 0, "note": 51, "velocity": 121, "channel": 0}, {"type": "note_on", "time": 80, "note": 52, "velocity": 117, "channel": 0}, {"type": "note_off", "time": 0, "note": 51, "velocity": 121, "channel": 0}, {"type": "note_off", "time": 169, "note": 52, "velocity": 117, "channel": 0}, {"type": "note_on", "time": 8, "note": 55, "velocity": 111, "channel": 0}, {"type": "note_off", "time": 139, "note": 55, "velocity": 111, "channel": 0}, {"type": "note_on", "time": 21, "note": 56, "velocity": 113, "channel": 0}, {"type": "note_off", "time": 143, "note": 56, "velocity": 113, "channel": 0}, {"type": "note_on", "time": 33, "note": 59, "velocity": 116, "channel": 0}, {"type": "note_off", "time": 71, "note": 59, "velocity": 116, "channel": 0}, {"type": "note_on", "time": 0, "note": 61, "velocity": 121, "channel": 0}, {"type": "note_on", "time": 122, "note": 63, "velocity": 119, "channel": 0}, {"type": "note_off", "time": 0, "note": 61, "velocity": 121, "channel": 0}, {"type": "note_off", "time": 118, "note": 63, "velocity": 119, "channel": 0}, {"type": "note_on", "time": 0, "note": 67, "velocity": 112, "channel": 0}, {"type": "note_off", "time": 71, "note": 67, "velocity": 112, "channel": 0}, {"type": "note_on", "time": 0, "note": 68, "velocity": 110, "channel": 0}, {"type": "note_off", "time": 105, "note": 68, "velocity": 110, "channel": 0}, {"type": "note_on", "time": 0, "note": 71, "velocity": 111, "channel": 0}, {"type": "note_off", "time": 97, "note": 71, "velocity": 111, "channel": 0}, {"type": "note_on", "time": 25, "note": 73, "velocity": 111, "channel": 0}, {"type": "note_off", "time": 92, "note": 73, "velocity": 111, "channel": 0}, {"type": "note_on", "time": 16, "note": 75, "velocity": 118, "channel": 0}, {"type": "note_off", "time": 67, "note": 75, "velocity": 118, "channel": 0}, {"type": "note_on", "time": 0, "note": 76, "velocity": 117, "channel": 0}, {"type": "note_on", "time": 84, "note": 73, "velocity": 105, "channel": 0}, {"type": "note_off", "time": 0, "note": 76, "velocity": 117, "channel": 0}, {"type": "note_off", "time": 97, "note": 73, "velocity": 105, "channel": 0}, {"type": "note_on", "time": 0, "note": 71, "velocity": 112, "channel": 0}, {"type": "note_off", "time": 85, "note": 71, "velocity": 112, "channel": 0}, {"type": "note_on", "time": 19, "note": 70, "velocity": 108, "channel": 0}, {"type": "note_off", "time": 98, "note": 70, "velocity": 108, "channel": 0}, {"type": "note_on", "time": 6, "note": 68, "velocity": 113, "channel": 0}, {"type": "note_off", "time": 80, "note": 68, "velocity": 113, "channel": 0}, {"type": "note_on", "time": 7, "note": 67, "velocity": 113, "channel": 0}, {"type": "note_off", "time": 84, "note": 67, "velocity": 113, "channel": 0}, {"type": "note_on", "time": 0, "note": 63, "velocity": 122, "channel": 0}, {"type": "note_on", "time": 71, "note": 64, "velocity": 122, "channel": 0}, {"type": "note_off", "time": 0, "note": 63, "velocity": 122, "channel": 0}, {"type": "note_off", "time": 170, "note": 64, "velocity": 122, "channel": 0}, {"type": "note_on", "time": 11, "note": 58, "velocity": 107, "channel": 0}, {"type": "note_off", "time": 88, "note": 58, "velocity": 107, "channel": 0}, {"type": "note_on", "time": 17, "note": 59, "velocity": 114, "channel": 0}, {"type": "note_off", "time": 100, "note": 59, "velocity": 114, "channel": 0}, {"type": "note_on", "time": 18, "note": 56, "velocity": 119, "channel": 0}, {"type": "note_off", "time": 143, "note": 56, "velocity": 119, "channel": 0}, {"type": "note_on", "time": 0, "note": 55, "velocity": 104, "channel": 0}, {"type": "note_off", "time": 194, "note": 55, "velocity": 104, "channel": 0}, {"type": "note_on", "time": 1884, "note": 71, "velocity": 116, "channel": 0}, {"type": "note_off", "time": 92, "note": 71, "velocity": 116, "channel": 0}, {"type": "note_on", "time": 0, "note": 70, "velocity": 116, "channel": 0}, {"type": "note_off", "time": 186, "note": 70, "velocity": 116, "channel": 0}, {"type": "note_on", "time": 12, "note": 69, "velocity": 119, "channel": 0}, {"type": "note_off", "time": 156, "note": 69, "velocity": 119, "channel": 0}, {"type": "note_on", "time": 0, "note": 68, "velocity": 117, "channel": 0}, {"type": "note_off", "time": 165, "note": 68, "velocity": 117, "channel": 0}, {"type": "note_on", "time": 16, "note": 66, "velocity": 112, "channel": 0}, {"type": "note_off", "time": 167, "note": 66, "velocity": 112, "channel": 0}, {"type": "note_on", "time": 1, "note": 65, "velocity": 120, "channel": 0}, {"type": "note_off", "time": 169, "note": 65, "velocity": 120, "channel": 0}, {"type": "note_on", "time": 0, "note": 64, "velocity": 122, "channel": 0}, {"type": "note_off", "time": 131, "note": 64, "velocity": 122, "channel": 0}, {"type": "note_on", "time": 0, "note": 63, "velocity": 121, "channel": 0}, {"type": "note_off", "time": 139, "note": 63, "velocity": 121, "channel": 0}, {"type": "note_on", "time": 0, "note": 62, "velocity": 120, "channel": 0}, {"type": "note_off", "time": 116, "note": 62, "velocity": 120, "channel": 0}, {"type": "note_on", "time": 27, "note": 61, "velocity": 116, "channel": 0}, {"type": "note_off", "time": 177, "note": 61, "velocity": 116, "channel": 0}, {"type": "note_on", "time": 0, "note": 64, "velocity": 120, "channel": 0}, {"type": "note_off", "time": 114, "note": 64, "velocity": 120, "channel": 0}, {"type": "note_on", "time": 25, "note": 66, "velocity": 114, "channel": 0}, {"type": "note_off", "time": 126, "note": 66, "velocity": 114, "channel": 0}, {"type": "note_on", "time": 4, "note": 61, "velocity": 117, "channel": 0}, {"type": "note_off", "time": 139, "note": 61, "velocity": 117, "channel": 0}, {"type": "note_on", "time": 0, "note": 58, "velocity": 110, "channel": 0}, {"type": "note_off", "time": 143, "note": 58, "velocity": 110, "channel": 0}, {"type": "note_on", "time": 0, "note": 54, "velocity": 93, "channel": 0}, {"type": "note_off", "time": 147, "note": 54, "velocity": 93, "channel": 0}, {"type": "note_on", "time": 12, "note": 64, "velocity": 124, "channel": 0}, {"type": "note_off", "time": 125, "note": 64, "velocity": 124, "channel": 0}, {"type": "note_on", "time": 47, "note": 54, "velocity": 105, "channel": 0}, {"type": "note_off", "time": 164, "note": 54, "velocity": 105, "channel": 0}, {"type": "note_on", "time": 0, "note": 57, "velocity": 110, "channel": 0}, {"type": "note_off", "time": 143, "note": 57, "velocity": 110, "channel": 0}, {"type": "note_on", "time": 0, "note": 61, "velocity": 120, "channel": 0}, {"type": "note_off", "time": 131, "note": 61, "velocity": 120, "channel": 0}, {"type": "note_on", "time": 12, "note": 58, "velocity": 110, "channel": 0}, {"type": "note_off", "time": 143, "note": 58, "velocity": 110, "channel": 0}, {"type": "note_on", "time": 4, "note": 57, "velocity": 111, "channel": 0}, {"type": "note_off", "time": 104, "note": 57, "velocity": 111, "channel": 0}, {"type": "note_on", "time": 18, "note": 56, "velocity": 108, "channel": 0}, {"type": "note_off", "time": 137, "note": 56, "velocity": 108, "channel": 0}, {"type": "note_on", "time": 23, "note": 58, "velocity": 103, "channel": 0}, {"type": "note_off", "time": 143, "note": 58, "velocity": 103, "channel": 0}, {"type": "note_on", "time": 0, "note": 59, "velocity": 114, "channel": 0}, {"type": "note_off", "time": 131, "note": 59, "velocity": 114, "channel": 0}, {"type": "note_on", "time": 0, "note": 61, "velocity": 119, "channel": 0}, {"type": "note_off", "time": 125, "note": 61, "velocity": 119, "channel": 0}, {"type": "note_on", "time": 5, "note": 63, "velocity": 116, "channel": 0}, {"type": "note_off", "time": 118, "note": 63, "velocity": 116, "channel": 0}, {"type": "note_on", "time": 0, "note": 65, "velocity": 116, "channel": 0}, {"type": "note_off", "time": 67, "note": 65, "velocity": 116, "channel": 0}, {"type": "note_on", "time": 46, "note": 68, "velocity": 108, "channel": 0}, {"type": "note_off", "time": 168, "note": 68, "velocity": 108, "channel": 0}, {"type": "note_on", "time": 33, "note": 70, "velocity": 109, "channel": 0}, {"type": "note_off", "time": 96, "note": 70, "velocity": 109, "channel": 0}, {"type": "note_on", "time": 21, "note": 71, "velocity": 111, "channel": 0}, {"type": "note_off", "time": 61, "note": 71, "velocity": 111, "channel": 0}, {"type": "note_on", "time": 31, "note": 73, "velocity": 104, "channel": 0}, {"type": "note_off", "time": 96, "note": 73, "velocity": 104, "channel": 0}, {"type": "note_on", "time": 34, "note": 75, "velocity": 108, "channel": 0}, {"type": "note_off", "time": 644, "note": 75, "velocity": 108, "channel": 0}, {"type": "note_on", "time": 1033, "note": 72, "velocity": 117, "channel": 0}, {"type": "note_off", "time": 138, "note": 72, "velocity": 117, "channel": 0}, {"type": "note_on", "time": 34, "note": 70, "velocity": 114, "channel": 0}, {"type": "note_off", "time": 201, "note": 70, "velocity": 114, "channel": 0}, {"type": "note_on", "time": 14, "note": 68, "velocity": 111, "channel": 0}, {"type": "note_off", "time": 228, "note": 68, "velocity": 111, "channel": 0}, {"type": "note_on", "time": 29, "note": 70, "velocity": 114, "channel": 0}, {"type": "note_off", "time": 214, "note": 70, "velocity": 114, "channel": 0}, {"type": "note_on", "time": 43, "note": 71, "velocity": 120, "channel": 0}, {"type": "note_off", "time": 63, "note": 71, "velocity": 120, "channel": 0}, {"type": "note_on", "time": 0, "note": 72, "velocity": 116, "channel": 0}, {"type": "note_off", "time": 291, "note": 72, "velocity": 116, "channel": 0}, {"type": "note_on", "time": 29, "note": 65, "velocity": 112, "channel": 0}, {"type": "note_off", "time": 224, "note": 65, "velocity": 112, "channel": 0}, {"type": "note_on", "time": 29, "note": 72, "velocity": 117, "channel": 0}, {"type": "note_off", "time": 109, "note": 72, "velocity": 117, "channel": 0}, {"type": "note_on", "time": 4, "note": 70, "velocity": 107, "channel": 0}, {"type": "note_off", "time": 778, "note": 70, "velocity": 107, "channel": 0}, {"type": "note_on", "time": 28, "note": 67, "velocity": 110, "channel": 0}, {"type": "note_off", "time": 144, "note": 67, "velocity": 110, "channel": 0}, {"type": "note_on", "time": 28, "note": 63, "velocity": 116, "channel": 0}, {"type": "note_off", "time": 167, "note": 63, "velocity": 116, "channel": 0}, {"type": "note_on", "time": 35, "note": 60, "velocity": 96, "channel": 0}, {"type": "note_off", "time": 181, "note": 60, "velocity": 96, "channel": 0}, {"type": "note_on", "time": 0, "note": 67, "velocity": 111, "channel": 0}, {"type": "note_off", "time": 390, "note": 67, "velocity": 111, "channel": 0}, {"type": "note_on", "time": 32, "note": 66, "velocity": 107, "channel": 0}, {"type": "note_off", "time": 243, "note": 66, "velocity": 107, "channel": 0}, {"type": "note_on", "time": 24, "note": 65, "velocity": 115, "channel": 0}, {"type": "note_off", "time": 197, "note": 65, "velocity": 115, "channel": 0}, {"type": "note_on", "time": 171, "note": 63, "velocity": 109, "channel": 0}, {"type": "note_off", "time": 160, "note": 63, "velocity": 109, "channel": 0}, {"type": "note_on", "time": 33, "note": 58, "velocity": 103, "channel": 0}, {"type": "note_off", "time": 223, "note": 58, "velocity": 103, "channel": 0}, {"type": "note_on", "time": 0, "note": 53, "velocity": 108, "channel": 0}, {"type": "note_off", "time": 181, "note": 53, "velocity": 108, "channel": 0}, {"type": "note_on", "time": 0, "note": 64, "velocity": 122, "channel": 0}, {"type": "note_off", "time": 148, "note": 64, "velocity": 122, "channel": 0}, {"type": "note_on", "time": 84, "note": 62, "velocity": 114, "channel": 0}, {"type": "note_off", "time": 198, "note": 62, "velocity": 114, "channel": 0}, {"type": "note_on", "time": 0, "note": 60, "velocity": 101, "channel": 0}, {"type": "note_off", "time": 375, "note": 60, "velocity": 101, "channel": 0}, {"type": "note_on", "time": 3917, "note": 75, "velocity": 123, "channel": 0}, {"type": "note_off", "time": 144, "note": 75, "velocity": 123, "channel": 0}, {"type": "note_on", "time": 67, "note": 76, "velocity": 127, "channel": 0}, {"type": "note_off", "time": 164, "note": 76, "velocity": 127, "channel": 0}, {"type": "note_on", "time": 50, "note": 77, "velocity": 120, "channel": 0}, {"type": "note_off", "time": 191, "note": 77, "velocity": 120, "channel": 0}, {"type": "note_on", "time": 0, "note": 78, "velocity": 119, "channel": 0}, {"type": "note_off", "time": 65, "note": 78, "velocity": 119, "channel": 0}, {"type": "note_on", "time": 16, "note": 77, "velocity": 121, "channel": 0}, {"type": "note_off", "time": 155, "note": 77, "velocity": 121, "channel": 0}, {"type": "note_on", "time": 0, "note": 76, "velocity": 123, "channel": 0}, {"type": "note_off", "time": 240, "note": 76, "velocity": 123, "channel": 0}, {"type": "note_on", "time": 0, "note": 75, "velocity": 115, "channel": 0}, {"type": "note_off", "time": 206, "note": 75, "velocity": 115, "channel": 0}, {"type": "note_on", "time": 0, "note": 74, "velocity": 118, "channel": 0}, {"type": "note_off", "time": 559, "note": 74, "velocity": 118, "channel": 0}, {"type": "note_on", "time": 27, "note": 73, "velocity": 114, "channel": 0}, {"type": "note_off", "time": 202, "note": 73, "velocity": 114, "channel": 0}, {"type": "note_on", "time": 0, "note": 72, "velocity": 114, "channel": 0}, {"type": "note_off", "time": 178, "note": 72, "velocity": 114, "channel": 0}, {"type": "note_on", "time": 24, "note": 71, "velocity": 113, "channel": 0}, {"type": "note_off", "time": 169, "note": 71, "velocity": 113, "channel": 0}, {"type": "note_on", "time": 0, "note": 70, "velocity": 114, "channel": 0}, {"type": "note_off", "time": 185, "note": 70, "velocity": 114, "channel": 0}, {"type": "note_on", "time": 17, "note": 69, "velocity": 112, "channel": 0}, {"type": "note_off", "time": 196, "note": 69, "velocity": 112, "channel": 0}, {"type": "note_on", "time": 40, "note": 68, "velocity": 115, "channel": 0}, {"type": "note_off", "time": 147, "note": 68, "velocity": 115, "channel": 0}, {"type": "note_on", "time": 50, "note": 66, "velocity": 112, "channel": 0}, {"type": "note_off", "time": 193, "note": 66, "velocity": 112, "channel": 0}, {"type": "note_on", "time": 26, "note": 65, "velocity": 111, "channel": 0}, {"type": "note_off", "time": 228, "note": 65, "velocity": 111, "channel": 0}, {"type": "note_on", "time": 25, "note": 62, "velocity": 113, "channel": 0}, {"type": "note_off", "time": 156, "note": 62, "velocity": 113, "channel": 0}, {"type": "note_on", "time": 0, "note": 58, "velocity": 103, "channel": 0}, {"type": "note_off", "time": 237, "note": 58, "velocity": 103, "channel": 0}, {"type": "note_on", "time": 3, "note": 56, "velocity": 105, "channel": 0}, {"type": "note_off", "time": 156, "note": 56, "velocity": 105, "channel": 0}, {"type": "note_on", "time": 0, "note": 62, "velocity": 112, "channel": 0}, {"type": "note_off", "time": 231, "note": 62, "velocity": 112, "channel": 0}, {"type": "note_on", "time": 131, "note": 60, "velocity": 109, "channel": 0}, {"type": "note_off", "time": 248, "note": 60, "velocity": 109, "channel": 0}, {"type": "note_on", "time": 22, "note": 56, "velocity": 98, "channel": 0}, {"type": "note_off", "time": 147, "note": 56, "velocity": 98, "channel": 0}, {"type": "note_on", "time": 0, "note": 60, "velocity": 109, "channel": 0}, {"type": "note_off", "time": 215, "note": 60, "velocity": 109, "channel": 0}, {"type": "note_on", "time": 8, "note": 62, "velocity": 117, "channel": 0}, {"type": "note_off", "time": 140, "note": 62, "velocity": 117, "channel": 0}, {"type": "note_on", "time": 252, "note": 62, "velocity": 116, "channel": 0}, {"type": "note_off", "time": 166, "note": 62, "velocity": 116, "channel": 0}, {"type": "note_on", "time": 23, "note": 66, "velocity": 113, "channel": 0}, {"type": "note_off", "time": 208, "note": 66, "velocity": 113, "channel": 0}, {"type": "note_on", "time": 32, "note": 62, "velocity": 104, "channel": 0}, {"type": "note_off", "time": 181, "note": 62, "velocity": 104, "channel": 0}, {"type": "note_on", "time": 0, "note": 68, "velocity": 115, "channel": 0}, {"type": "note_off", "time": 188, "note": 68, "velocity": 115, "channel": 0}, {"type": "note_on", "time": 27, "note": 66, "velocity": 112, "channel": 0}, {"type": "note_off", "time": 211, "note": 66, "velocity": 112, "channel": 0}, {"type": "note_on", "time": 0, "note": 62, "velocity": 114, "channel": 0}, {"type": "note_off", "time": 232, "note": 62, "velocity": 114, "channel": 0}, {"type": "note_on", "time": 8, "note": 58, "velocity": 101, "channel": 0}, {"type": "note_off", "time": 190, "note": 58, "velocity": 101, "channel": 0}, {"type": "note_on", "time": 0, "note": 64, "velocity": 116, "channel": 0}, {"type": "note_off", "time": 213, "note": 64, "velocity": 116, "channel": 0}, {"type": "note_on", "time": 1, "note": 66, "velocity": 109, "channel": 0}, {"type": "note_off", "time": 181, "note": 66, "velocity": 109, "channel": 0}, {"type": "note_on", "time": 0, "note": 67, "velocity": 112, "channel": 0}, {"type": "note_off", "time": 217, "note": 67, "velocity": 112, "channel": 0}, {"type": "note_on", "time": 10, "note": 70, "velocity": 114, "channel": 0}, {"type": "note_off", "time": 161, "note": 70, "velocity": 114, "channel": 0}, {"type": "note_on", "time": 49, "note": 71, "velocity": 101, "channel": 0}, {"type": "note_off", "time": 143, "note": 71, "velocity": 101, "channel": 0}, {"type": "note_on", "time": 46, "note": 73, "velocity": 112, "channel": 0}, {"type": "note_off", "time": 207, "note": 73, "velocity": 112, "channel": 0}, {"type": "note_on", "time": 3, "note": 75, "velocity": 115, "channel": 0}, {"type": "note_off", "time": 207, "note": 75, "velocity": 115, "channel": 0}, {"type": "note_on", "time": 0, "note": 76, "velocity": 119, "channel": 0}, {"type": "note_off", "time": 262, "note": 76, "velocity": 119, "channel": 0}, {"type": "note_on", "time": 0, "note": 77, "velocity": 118, "channel": 0}, {"type": "note_off", "time": 232, "note": 77, "velocity": 118, "channel": 0}, {"type": "note_on", "time": 0, "note": 76, "velocity": 119, "channel": 0}, {"type": "note_off", "time": 177, "note": 76, "velocity": 119, "channel": 0}, {"type": "note_on", "time": 0, "note": 72, "velocity": 113, "channel": 0}, {"type": "note_off", "time": 227, "note": 72, "velocity": 113, "channel": 0}, {"type": "note_on", "time": 22, "note": 71, "velocity": 109, "channel": 0}, {"type": "note_off", "time": 189, "note": 71, "velocity": 109, "channel": 0}, {"type": "note_on", "time": 0, "note": 70, "velocity": 113, "channel": 0}, {"type": "note_off", "time": 230, "note": 70, "velocity": 113, "channel": 0}, {"type": "note_on", "time": 14, "note": 66, "velocity": 113, "channel": 0}, {"type": "note_off", "time": 169, "note": 66, "velocity": 113, "channel": 0}, {"type": "note_on", "time": 0, "note": 64, "velocity": 121, "channel": 0}, {"type": "note_off", "time": 179, "note": 64, "velocity": 121, "channel": 0}, {"type": "note_on", "time": 19, "note": 60, "velocity": 95, "channel": 0}, {"type": "note_off", "time": 215, "note": 60, "velocity": 95, "channel": 0}, {"type": "note_on", "time": 16, "note": 67, "velocity": 113, "channel": 0}, {"type": "note_off", "time": 220, "note": 67, "velocity": 113, "channel": 0}, {"type": "note_on", "time": 7, "note": 64, "velocity": 102, "channel": 0}, {"type": "note_off", "time": 190, "note": 64, "velocity": 102, "channel": 0}, {"type": "note_on", "time": 0, "note": 70, "velocity": 105, "channel": 0}, {"type": "note_off", "time": 629, "note": 70, "velocity": 105, "channel": 0}, {"type": "note_on", "time": 0, "note": 69, "velocity": 115, "channel": 0}, {"type": "note_off", "time": 191, "note": 69, "velocity": 115, "channel": 0}, {"type": "note_on", "time": 16, "note": 68, "velocity": 112, "channel": 0}, {"type": "note_off", "time": 223, "note": 68, "velocity": 112, "channel": 0}, {"type": "note_on", "time": 0, "note": 65, "velocity": 112, "channel": 0}, {"type": "note_off", "time": 200, "note": 65, "velocity": 112, "channel": 0}, {"type": "note_on", "time": 6, "note": 63, "velocity": 113, "channel": 0}, {"type": "note_off", "time": 228, "note": 63, "velocity": 113, "channel": 0}, {"type": "note_on", "time": 3, "note": 60, "velocity": 100, "channel": 0}, {"type": "note_off", "time": 185, "note": 60, "velocity": 100, "channel": 0}, {"type": "note_on", "time": 0, "note": 67, "velocity": 120, "channel": 0}, {"type": "note_off", "time": 171, "note": 67, "velocity": 120, "channel": 0}, {"type": "note_on", "time": 14, "note": 64, "velocity": 101, "channel": 0}, {"type": "note_off", "time": 202, "note": 64, "velocity": 101, "channel": 0}, {"type": "note_on", "time": 17, "note": 65, "velocity": 112, "channel": 0}, {"type": "note_off", "time": 228, "note": 65, "velocity": 112, "channel": 0}, {"type": "note_on", "time": 0, "note": 64, "velocity": 111, "channel": 0}, {"type": "note_off", "time": 304, "note": 64, "velocity": 111, "channel": 0}, {"type": "note_on", "time": 212, "note": 66, "velocity": 109, "channel": 0}, {"type": "note_off", "time": 176, "note": 66, "velocity": 109, "channel": 0}, {"type": "note_on", "time": 0, "note": 67, "velocity": 113, "channel": 0}, {"type": "note_off", "time": 194, "note": 67, "velocity": 113, "channel": 0}, {"type": "note_on", "time": 20, "note": 65, "velocity": 113, "channel": 0}, {"type": "note_off", "time": 160, "note": 65, "velocity": 113, "channel": 0}, {"type": "note_on", "time": 0, "note": 62, "velocity": 113, "channel": 0}, {"type": "note_off", "time": 211, "note": 62, "velocity": 113, "channel": 0}, {"type": "note_on", "time": 0, "note": 58, "velocity": 99, "channel": 0}, {"type": "note_on", "time": 198, "note": 67, "velocity": 106, "channel": 0}, {"type": "note_off", "time": 0, "note": 58, "velocity": 99, "channel": 0}, {"type": "note_off", "time": 361, "note": 67, "velocity": 106, "channel": 0}, {"type": "note_on", "time": 555, "note": 60, "velocity": 108, "channel": 0}, {"type": "note_on", "time": 194, "note": 62, "velocity": 115, "channel": 0}, {"type": "note_off", "time": 0, "note": 60, "velocity": 108, "channel": 0}, {"type": "note_off", "time": 164, "note": 62, "velocity": 115, "channel": 0}, {"type": "note_on", "time": 0, "note": 63, "velocity": 117, "channel": 0}, {"type": "note_off", "time": 196, "note": 63, "velocity": 117, "channel": 0}, {"type": "note_on", "time": 36, "note": 60, "velocity": 101, "channel": 0}, {"type": "note_off", "time": 206, "note": 60, "velocity": 101, "channel": 0}, {"type": "note_on", "time": 27, "note": 64, "velocity": 87, "channel": 0}, {"type": "note_off", "time": 357, "note": 64, "velocity": 87, "channel": 0}, {"type": "note_on", "time": 312, "note": 64, "velocity": 116, "channel": 0}, {"type": "note_off", "time": 185, "note": 64, "velocity": 116, "channel": 0}, {"type": "note_on", "time": 0, "note": 60, "velocity": 113, "channel": 0}, {"type": "note_off", "time": 170, "note": 60, "velocity": 113, "channel": 0}, {"type": "note_on", "time": 23, "note": 63, "velocity": 117, "channel": 0}, {"type": "note_off", "time": 190, "note": 63, "velocity": 117, "channel": 0}, {"type": "note_on", "time": 0, "note": 61, "velocity": 118, "channel": 0}, {"type": "note_off", "time": 195, "note": 61, "velocity": 118, "channel": 0}, {"type": "note_on", "time": 24, "note": 56, "velocity": 100, "channel": 0}, {"type": "note_off", "time": 215, "note": 56, "velocity": 100, "channel": 0}, {"type": "note_on", "time": 0, "note": 58, "velocity": 110, "channel": 0}, {"type": "note_on", "time": 194, "note": 61, "velocity": 113, "channel": 0}, {"type": "note_off", "time": 0, "note": 58, "velocity": 110, "channel": 0}, {"type": "note_off", "time": 177, "note": 61, "velocity": 113, "channel": 0}, {"type": "note_on", "time": 0, "note": 60, "velocity": 108, "channel": 0}, {"type": "note_off", "time": 187, "note": 60, "velocity": 108, "channel": 0}, {"type": "note_on", "time": 27, "note": 58, "velocity": 104, "channel": 0}, {"type": "note_off", "time": 214, "note": 58, "velocity": 104, "channel": 0}, {"type": "note_on", "time": 0, "note": 53, "velocity": 103, "channel": 0}, {"type": "note_on", "time": 223, "note": 58, "velocity": 101, "channel": 0}, {"type": "note_off", "time": 0, "note": 53, "velocity": 103, "channel": 0}, {"type": "note_off", "time": 207, "note": 58, "velocity": 101, "channel": 0}, {"type": "note_on", "time": 75, "note": 53, "velocity": 103, "channel": 0}, {"type": "note_off", "time": 164, "note": 53, "velocity": 103, "channel": 0}, {"type": "note_on", "time": 0, "note": 54, "velocity": 109, "channel": 0}, {"type": "note_off", "time": 169, "note": 54, "velocity": 109, "channel": 0}, {"type": "note_on", "time": 0, "note": 58, "velocity": 101, "channel": 0}, {"type": "note_off", "time": 188, "note": 58, "velocity": 101, "channel": 0}, {"type": "note_on", "time": 30, "note": 60, "velocity": 105, "channel": 0}, {"type": "note_off", "time": 235, "note": 60, "velocity": 105, "channel": 0}, {"type": "note_on", "time": 0, "note": 65, "velocity": 110, "channel": 0}, {"type": "note_off", "time": 202, "note": 65, "velocity": 110, "channel": 0}, {"type": "note_on", "time": 0, "note": 66, "velocity": 108, "channel": 0}, {"type": "note_off", "time": 198, "note": 66, "velocity": 108, "channel": 0}, {"type": "note_on", "time": 0, "note": 70, "velocity": 112, "channel": 0}, {"type": "note_off", "time": 147, "note": 70, "velocity": 112, "channel": 0}, {"type": "note_on", "time": 64, "note": 72, "velocity": 105, "channel": 0}, {"type": "note_off", "time": 173, "note": 72, "velocity": 105, "channel": 0}, {"type": "note_on", "time": 12, "note": 77, "velocity": 116, "channel": 0}, {"type": "note_off", "time": 456, "note": 77, "velocity": 116, "channel": 0}, {"type": "note_on", "time": 0, "note": 75, "velocity": 110, "channel": 0}, {"type": "note_off", "time": 293, "note": 75, "velocity": 110, "channel": 0}, {"type": "note_on", "time": 86, "note": 72, "velocity": 101, "channel": 0}, {"type": "note_off", "time": 437, "note": 72, "velocity": 101, "channel": 0}, {"type": "note_on", "time": 24, "note": 70, "velocity": 98, "channel": 0}, {"type": "note_off", "time": 418, "note": 70, "velocity": 98, "channel": 0}, {"type": "note_on", "time": 0, "note": 68, "velocity": 96, "channel": 0}, {"type": "note_off", "time": 422, "note": 68, "velocity": 96, "channel": 0}, {"type": "note_on", "time": 0, "note": 66, "velocity": 95, "channel": 0}, {"type": "note_off", "time": 447, "note": 66, "velocity": 95, "channel": 0}, {"type": "note_on", "time": 0, "note": 65, "velocity": 102, "channel": 0}, {"type": "note_off", "time": 382, "note": 65, "velocity": 102, "channel": 0}, {"type": "note_on", "time": 0, "note": 63, "velocity": 107, "channel": 0}, {"type": "note_off", "time": 407, "note": 63, "velocity": 107, "channel": 0}, {"type": "note_on", "time": 2, "note": 60, "velocity": 94, "channel": 0}, {"type": "note_off", "time": 443, "note": 60, "velocity": 94, "channel": 0}, {"type": "note_on", "time": 0, "note": 58, "velocity": 95, "channel": 0}, {"type": "note_off", "time": 485, "note": 58, "velocity": 95, "channel": 0}, {"type": "note_on", "time": 1441, "note": 75, "velocity": 119, "channel": 0}, {"type": "note_off", "time": 76, "note": 75, "velocity": 119, "channel": 0}, {"type": "note_on", "time": 16, "note": 73, "velocity": 107, "channel": 0}, {"type": "note_off", "time": 71, "note": 73, "velocity": 107, "channel": 0}, {"type": "note_on", "time": 4, "note": 72, "velocity": 111, "channel": 0}, {"type": "note_off", "time": 71, "note": 72, "velocity": 111, "channel": 0}, {"type": "note_on", "time": 8, "note": 71, "velocity": 113, "channel": 0}, {"type": "note_on", "time": 164, "note": 69, "velocity": 113, "channel": 0}, {"type": "note_off", "time": 0, "note": 71, "velocity": 113, "channel": 0}, {"type": "note_off", "time": 219, "note": 69, "velocity": 113, "channel": 0}, {"type": "note_on", "time": 0, "note": 68, "velocity": 113, "channel": 0}, {"type": "note_off", "time": 223, "note": 68, "velocity": 113, "channel": 0}, {"type": "note_on", "time": 0, "note": 66, "velocity": 109, "channel": 0}, {"type": "note_on", "time": 156, "note": 65, "velocity": 114, "channel": 0}, {"type": "note_off", "time": 0, "note": 66, "velocity": 109, "channel": 0}, {"type": "note_off", "time": 232, "note": 65, "velocity": 114, "channel": 0}, {"type": "note_on", "time": 105, "note": 62, "velocity": 110, "channel": 0}, {"type": "note_off", "time": 84, "note": 62, "velocity": 110, "channel": 0}, {"type": "note_on", "time": 3, "note": 68, "velocity": 113, "channel": 0}, {"type": "note_off", "time": 166, "note": 68, "velocity": 113, "channel": 0}, {"type": "note_on", "time": 57, "note": 64, "velocity": 113, "channel": 0}, {"type": "note_on", "time": 190, "note": 60, "velocity": 103, "channel": 0}, {"type": "note_off", "time": 0, "note": 64, "velocity": 113, "channel": 0}, {"type": "note_off", "time": 177, "note": 60, "velocity": 103, "channel": 0}, {"type": "note_on", "time": 0, "note": 56, "velocity": 89, "channel": 0}, {"type": "note_off", "time": 245, "note": 56, "velocity": 89, "channel": 0}, {"type": "note_on", "time": 33, "note": 63, "velocity": 114, "channel": 0}, {"type": "note_off", "time": 212, "note": 63, "velocity": 114, "channel": 0}, {"type": "note_on", "time": 16, "note": 61, "velocity": 112, "channel": 0}, {"type": "note_off", "time": 207, "note": 61, "velocity": 112, "channel": 0}, {"type": "note_on", "time": 8, "note": 58, "velocity": 103, "channel": 0}, {"type": "note_off", "time": 56, "note": 58, "velocity": 103, "channel": 0}, {"type": "note_on", "time": 27, "note": 59, "velocity": 95, "channel": 0}, {"type": "note_off", "time": 398, "note": 59, "velocity": 95, "channel": 0}, {"type": "note_on", "time": 1148, "note": 58, "velocity": 98, "channel": 0}, {"type": "note_off", "time": 1221, "note": 58, "velocity": 98, "channel": 0}, {"type": "note_on", "time": 0, "note": 56, "velocity": 109, "channel": 0}, {"type": "note_off", "time": 183, "note": 56, "velocity": 109, "channel": 0}, {"type": "note_on", "time": 6, "note": 55, "velocity": 103, "channel": 0}, {"type": "note_off", "time": 201, "note": 55, "velocity": 103, "channel": 0}, {"type": "note_on", "time": 13, "note": 58, "velocity": 108, "channel": 0}, {"type": "note_off", "time": 200, "note": 58, "velocity": 108, "channel": 0}, {"type": "note_on", "time": 31, "note": 59, "velocity": 104, "channel": 0}, {"type": "note_off", "time": 131, "note": 59, "velocity": 104, "channel": 0}, {"type": "note_on", "time": 0, "note": 63, "velocity": 109, "channel": 0}, {"type": "note_off", "time": 181, "note": 63, "velocity": 109, "channel": 0}, {"type": "note_on", "time": 8, "note": 67, "velocity": 111, "channel": 0}, {"type": "note_off", "time": 222, "note": 67, "velocity": 111, "channel": 0}, {"type": "note_on", "time": 5, "note": 71, "velocity": 110, "channel": 0}, {"type": "note_off", "time": 177, "note": 71, "velocity": 110, "channel": 0}, {"type": "note_on", "time": 8, "note": 73, "velocity": 111, "channel": 0}, {"type": "note_off", "time": 223, "note": 73, "velocity": 111, "channel": 0}, {"type": "note_on", "time": 0, "note": 75, "velocity": 118, "channel": 0}, {"type": "note_off", "time": 120, "note": 75, "velocity": 118, "channel": 0}, {"type": "note_on", "time": 53, "note": 76, "velocity": 121, "channel": 0}, {"type": "note_off", "time": 198, "note": 76, "velocity": 121, "channel": 0}, {"type": "note_on", "time": 21, "note": 77, "velocity": 113, "channel": 0}, {"type": "note_off", "time": 198, "note": 77, "velocity": 113, "channel": 0}, {"type": "note_on", "time": 0, "note": 71, "velocity": 110, "channel": 0}, {"type": "note_off", "time": 172, "note": 71, "velocity": 110, "channel": 0}, {"type": "note_on", "time": 30, "note": 67, "velocity": 111, "channel": 0}, {"type": "note_off", "time": 209, "note": 67, "velocity": 111, "channel": 0}, {"type": "note_on", "time": 10, "note": 63, "velocity": 109, "channel": 0}, {"type": "note_off", "time": 190, "note": 63, "velocity": 109, "channel": 0}, {"type": "note_on", "time": 24, "note": 59, "velocity": 107, "channel": 0}, {"type": "note_off", "time": 281, "note": 59, "velocity": 107, "channel": 0}, {"type": "note_on", "time": 1, "note": 58, "velocity": 97, "channel": 0}, {"type": "note_off", "time": 156, "note": 58, "velocity": 97, "channel": 0}, {"type": "note_on", "time": 0, "note": 67, "velocity": 115, "channel": 0}, {"type": "note_off", "time": 149, "note": 67, "velocity": 115, "channel": 0}, {"type": "note_on", "time": 7, "note": 65, "velocity": 114, "channel": 0}, {"type": "note_off", "time": 190, "note": 65, "velocity": 114, "channel": 0}, {"type": "note_on", "time": 0, "note": 61, "velocity": 118, "channel": 0}, {"type": "note_on", "time": 198, "note": 59, "velocity": 106, "channel": 0}, {"type": "note_off", "time": 0, "note": 61, "velocity": 118, "channel": 0}, {"type": "note_off", "time": 228, "note": 59, "velocity": 106, "channel": 0}, {"type": "note_on", "time": 72, "note": 56, "velocity": 92, "channel": 0}, {"type": "note_off", "time": 131, "note": 56, "velocity": 92, "channel": 0}, {"type": "note_on", "time": 0, "note": 64, "velocity": 116, "channel": 0}, {"type": "note_off", "time": 291, "note": 64, "velocity": 116, "channel": 0}, {"type": "note_on", "time": 113, "note": 71, "velocity": 110, "channel": 0}, {"type": "note_off", "time": 211, "note": 71, "velocity": 110, "channel": 0}, {"type": "note_on", "time": 0, "note": 73, "velocity": 106, "channel": 0}, {"type": "note_off", "time": 215, "note": 73, "velocity": 106, "channel": 0}, {"type": "note_on", "time": 0, "note": 66, "velocity": 109, "channel": 0}, {"type": "note_off", "time": 207, "note": 66, "velocity": 109, "channel": 0}, {"type": "note_on", "time": 42, "note": 72, "velocity": 114, "channel": 0}, {"type": "note_off", "time": 198, "note": 72, "velocity": 114, "channel": 0}, {"type": "note_on", "time": 0, "note": 70, "velocity": 110, "channel": 0}, {"type": "note_off", "time": 217, "note": 70, "velocity": 110, "channel": 0}, {"type": "note_on", "time": 44, "note": 65, "velocity": 113, "channel": 0}, {"type": "note_on", "time": 202, "note": 63, "velocity": 113, "channel": 0}, {"type": "note_off", "time": 0, "note": 65, "velocity": 113, "channel": 0}, {"type": "note_off", "time": 211, "note": 63, "velocity": 113, "channel": 0}, {"type": "note_on", "time": 0, "note": 60, "velocity": 99, "channel": 0}, {"type": "note_off", "time": 169, "note": 60, "velocity": 99, "channel": 0}, {"type": "note_on", "time": 0, "note": 67, "velocity": 112, "channel": 0}, {"type": "note_off", "time": 412, "note": 67, "velocity": 112, "channel": 0}, {"type": "note_on", "time": 18, "note": 62, "velocity": 113, "channel": 0}, {"type": "note_off", "time": 377, "note": 62, "velocity": 113, "channel": 0}, {"type": "note_on", "time": 256, "note": 62, "velocity": 99, "channel": 0}, {"type": "note_off", "time": 621, "note": 62, "velocity": 99, "channel": 0}, {"type": "note_on", "time": 0, "note": 58, "velocity": 101, "channel": 0}, {"type": "note_off", "time": 114, "note": 58, "velocity": 101, "channel": 0}, {"type": "note_on", "time": 0, "note": 62, "velocity": 109, "channel": 0}, {"type": "note_off", "time": 141, "note": 62, "velocity": 109, "channel": 0}, {"type": "note_on", "time": 108, "note": 63, "velocity": 114, "channel": 0}, {"type": "note_off", "time": 181, "note": 63, "velocity": 114, "channel": 0}, {"type": "note_on", "time": 50, "note": 65, "velocity": 112, "channel": 0}, {"type": "note_off", "time": 185, "note": 65, "velocity": 112, "channel": 0}, {"type": "note_on", "time": 25, "note": 63, "velocity": 112, "channel": 0}, {"type": "note_off", "time": 171, "note": 63, "velocity": 112, "channel": 0}, {"type": "note_on", "time": 73, "note": 67, "velocity": 106, "channel": 0}, {"type": "note_off", "time": 271, "note": 67, "velocity": 106, "channel": 0}, {"type": "note_on", "time": 565, "note": 67, "velocity": 111, "channel": 0}, {"type": "note_off", "time": 163, "note": 67, "velocity": 111, "channel": 0}, {"type": "note_on", "time": 30, "note": 65, "velocity": 108, "channel": 0}, {"type": "note_off", "time": 180, "note": 65, "velocity": 108, "channel": 0}, {"type": "note_on", "time": 10, "note": 62, "velocity": 116, "channel": 0}, {"type": "note_off", "time": 171, "note": 62, "velocity": 116, "channel": 0}, {"type": "note_on", "time": 14, "note": 58, "velocity": 107, "channel": 0}, {"type": "note_off", "time": 224, "note": 58, "velocity": 107, "channel": 0}, {"type": "note_on", "time": 4, "note": 53, "velocity": 113, "channel": 0}, {"type": "note_off", "time": 114, "note": 53, "velocity": 113, "channel": 0}, {"type": "note_on", "time": 29, "note": 60, "velocity": 100, "channel": 0}, {"type": "note_off", "time": 255, "note": 60, "velocity": 100, "channel": 0}, {"type": "note_on", "time": 1426, "note": 58, "velocity": 94, "channel": 0}, {"type": "note_off", "time": 1559, "note": 58, "velocity": 94, "channel": 0}, {"type": "note_on", "time": 181, "note": 58, "velocity": 105, "channel": 0}, {"type": "note_off", "time": 312, "note": 58, "velocity": 105, "channel": 0}, {"type": "note_on", "time": 0, "note": 60, "velocity": 102, "channel": 0}, {"type": "note_off", "time": 261, "note": 60, "velocity": 102, "channel": 0}, {"type": "note_on", "time": 144, "note": 60, "velocity": 109, "channel": 0}, {"type": "note_on", "time": 147, "note": 61, "velocity": 116, "channel": 0}, {"type": "note_off", "time": 0, "note": 60, "velocity": 109, "channel": 0}, {"type": "note_off", "time": 135, "note": 61, "velocity": 116, "channel": 0}, {"type": "note_on", "time": 0, "note": 63, "velocity": 113, "channel": 0}, {"type": "note_off", "time": 180, "note": 63, "velocity": 113, "channel": 0}, {"type": "note_on", "time": 64, "note": 64, "velocity": 115, "channel": 0}, {"type": "note_off", "time": 214, "note": 64, "velocity": 115, "channel": 0}, {"type": "note_on", "time": 0, "note": 66, "velocity": 105, "channel": 0}, {"type": "note_off", "time": 204, "note": 66, "velocity": 105, "channel": 0}, {"type": "note_on", "time": 0, "note": 70, "velocity": 111, "channel": 0}, {"type": "note_off", "time": 228, "note": 70, "velocity": 111, "channel": 0}, {"type": "note_on", "time": 0, "note": 73, "velocity": 111, "channel": 0}, {"type": "note_off", "time": 211, "note": 73, "velocity": 111, "channel": 0}, {"type": "note_on", "time": 0, "note": 72, "velocity": 110, "channel": 0}, {"type": "note_on", "time": 447, "note": 66, "velocity": 106, "channel": 0}, {"type": "note_off", "time": 0, "note": 72, "velocity": 110, "channel": 0}, {"type": "note_off", "time": 229, "note": 66, "velocity": 106, "channel": 0}, {"type": "note_on", "time": 7, "note": 64, "velocity": 115, "channel": 0}, {"type": "note_off", "time": 211, "note": 64, "velocity": 115, "channel": 0}, {"type": "note_on", "time": 215, "note": 70, "velocity": 113, "channel": 0}, {"type": "note_off", "time": 143, "note": 70, "velocity": 113, "channel": 0}, {"type": "note_on", "time": 16, "note": 69, "velocity": 115, "channel": 0}, {"type": "note_off", "time": 160, "note": 69, "velocity": 115, "channel": 0}, {"type": "note_on", "time": 88, "note": 68, "velocity": 109, "channel": 0}, {"type": "note_off", "time": 190, "note": 68, "velocity": 109, "channel": 0}, {"type": "note_on", "time": 0, "note": 66, "velocity": 104, "channel": 0}, {"type": "note_on", "time": 185, "note": 65, "velocity": 111, "channel": 0}, {"type": "note_off", "time": 0, "note": 66, "velocity": 104, "channel": 0}, {"type": "note_off", "time": 190, "note": 65, "velocity": 111, "channel": 0}, {"type": "note_on", "time": 0, "note": 62, "velocity": 113, "channel": 0}, {"type": "note_off", "time": 205, "note": 62, "velocity": 113, "channel": 0}, {"type": "note_on", "time": 9, "note": 58, "velocity": 103, "channel": 0}, {"type": "note_off", "time": 240, "note": 58, "velocity": 103, "channel": 0}, {"type": "note_on", "time": 0, "note": 54, "velocity": 105, "channel": 0}, {"type": "note_on", "time": 177, "note": 64, "velocity": 107, "channel": 0}, {"type": "note_off", "time": 0, "note": 54, "velocity": 105, "channel": 0}, {"type": "note_off", "time": 206, "note": 64, "velocity": 107, "channel": 0}, {"type": "note_on", "time": 160, "note": 64, "velocity": 119, "channel": 0}, {"type": "note_off", "time": 181, "note": 64, "velocity": 119, "channel": 0}, {"type": "note_on", "time": 0, "note": 63, "velocity": 112, "channel": 0}, {"type": "note_off", "time": 225, "note": 63, "velocity": 112, "channel": 0}, {"type": "note_on", "time": 16, "note": 63, "velocity": 115, "channel": 0}, {"type": "note_off", "time": 168, "note": 63, "velocity": 115, "channel": 0}, {"type": "note_on", "time": 30, "note": 62, "velocity": 108, "channel": 0}, {"type": "note_off", "time": 234, "note": 62, "velocity": 108, "channel": 0}, {"type": "note_on", "time": 220, "note": 62, "velocity": 96, "channel": 0}, {"type": "note_off", "time": 182, "note": 62, "velocity": 96, "channel": 0}, {"type": "note_on", "time": 61, "note": 62, "velocity": 111, "channel": 0}, {"type": "note_off", "time": 192, "note": 62, "velocity": 111, "channel": 0}, {"type": "note_on", "time": 0, "note": 59, "velocity": 104, "channel": 0}, {"type": "note_off", "time": 172, "note": 59, "velocity": 104, "channel": 0}, {"type": "note_on", "time": 34, "note": 54, "velocity": 104, "channel": 0}, {"type": "note_on", "time": 139, "note": 56, "velocity": 104, "channel": 0}, {"type": "note_off", "time": 0, "note": 54, "velocity": 104, "channel": 0}, {"type": "note_off", "time": 188, "note": 56, "velocity": 104, "channel": 0}, {"type": "note_on", "time": 26, "note": 58, "velocity": 106, "channel": 0}, {"type": "note_off", "time": 185, "note": 58, "velocity": 106, "channel": 0}, {"type": "note_on", "time": 25, "note": 59, "velocity": 98, "channel": 0}, {"type": "note_off", "time": 190, "note": 59, "velocity": 98, "channel": 0}, {"type": "note_on", "time": 0, "note": 64, "velocity": 115, "channel": 0}, {"type": "note_off", "time": 205, "note": 64, "velocity": 115, "channel": 0}, {"type": "note_on", "time": 18, "note": 68, "velocity": 106, "channel": 0}, {"type": "note_off", "time": 220, "note": 68, "velocity": 106, "channel": 0}, {"type": "note_on", "time": 44, "note": 64, "velocity": 96, "channel": 0}, {"type": "note_off", "time": 158, "note": 64, "velocity": 96, "channel": 0}, {"type": "note_on", "time": 0, "note": 72, "velocity": 108, "channel": 0}, {"type": "note_off", "time": 197, "note": 72, "velocity": 108, "channel": 0}, {"type": "note_on", "time": 43, "note": 73, "velocity": 99, "channel": 0}, {"type": "note_on", "time": 185, "note": 68, "velocity": 104, "channel": 0}, {"type": "note_off", "time": 0, "note": 73, "velocity": 99, "channel": 0}, {"type": "note_off", "time": 177, "note": 68, "velocity": 104, "channel": 0}, {"type": "note_on", "time": 12, "note": 64, "velocity": 111, "channel": 0}, {"type": "note_off", "time": 211, "note": 64, "velocity": 111, "channel": 0}, {"type": "note_on", "time": 56, "note": 66, "velocity": 96, "channel": 0}, {"type": "note_off", "time": 296, "note": 66, "velocity": 96, "channel": 0}, {"type": "note_on", "time": 961, "note": 60, "velocity": 101, "channel": 0}, {"type": "note_off", "time": 109, "note": 60, "velocity": 101, "channel": 0}, {"type": "note_on", "time": 0, "note": 61, "velocity": 110, "channel": 0}, {"type": "note_off", "time": 139, "note": 61, "velocity": 110, "channel": 0}, {"type": "note_on", "time": 33, "note": 63, "velocity": 114, "channel": 0}, {"type": "note_off", "time": 187, "note": 63, "velocity": 114, "channel": 0}, {"type": "note_on", "time": 2, "note": 64, "velocity": 114, "channel": 0}, {"type": "note_off", "time": 210, "note": 64, "velocity": 114, "channel": 0}, {"type": "note_on", "time": 4, "note": 65, "velocity": 110, "channel": 0}, {"type": "note_off", "time": 224, "note": 65, "velocity": 110, "channel": 0}, {"type": "note_on", "time": 7, "note": 70, "velocity": 109, "channel": 0}, {"type": "note_off", "time": 202, "note": 70, "velocity": 109, "channel": 0}, {"type": "note_on", "time": 25, "note": 73, "velocity": 102, "channel": 0}, {"type": "note_off", "time": 194, "note": 73, "velocity": 102, "channel": 0}, {"type": "note_on", "time": 0, "note": 75, "velocity": 110, "channel": 0}, {"type": "note_off", "time": 181, "note": 75, "velocity": 110, "channel": 0}, {"type": "note_on", "time": 0, "note": 72, "velocity": 104, "channel": 0}, {"type": "note_off", "time": 190, "note": 72, "velocity": 104, "channel": 0}, {"type": "note_on", "time": 65, "note": 76, "velocity": 114, "channel": 0}, {"type": "note_on", "time": 175, "note": 73, "velocity": 104, "channel": 0}, {"type": "note_off", "time": 0, "note": 76, "velocity": 114, "channel": 0}, {"type": "note_off", "time": 196, "note": 73, "velocity": 104, "channel": 0}, {"type": "note_on", "time": 35, "note": 75, "velocity": 108, "channel": 0}, {"type": "note_off", "time": 152, "note": 75, "velocity": 108, "channel": 0}, {"type": "note_on", "time": 0, "note": 72, "velocity": 105, "channel": 0}, {"type": "note_off", "time": 214, "note": 72, "velocity": 105, "channel": 0}, {"type": "note_on", "time": 249, "note": 74, "velocity": 109, "channel": 0}, {"type": "note_off", "time": 287, "note": 74, "velocity": 109, "channel": 0}, {"type": "note_on", "time": 0, "note": 73, "velocity": 102, "channel": 0}, {"type": "note_off", "time": 122, "note": 73, "velocity": 102, "channel": 0}, {"type": "note_on", "time": 16, "note": 75, "velocity": 108, "channel": 0}, {"type": "note_off", "time": 170, "note": 75, "velocity": 108, "channel": 0}, {"type": "note_on", "time": 64, "note": 72, "velocity": 104, "channel": 0}, {"type": "note_on", "time": 153, "note": 73, "velocity": 101, "channel": 0}, {"type": "note_off", "time": 0, "note": 72, "velocity": 104, "channel": 0}, {"type": "note_off", "time": 405, "note": 73, "velocity": 101, "channel": 0}, {"type": "note_on", "time": 45, "note": 71, "velocity": 100, "channel": 0}, {"type": "note_off", "time": 203, "note": 71, "velocity": 100, "channel": 0}, {"type": "note_on", "time": 0, "note": 72, "velocity": 103, "channel": 0}, {"type": "note_on", "time": 177, "note": 75, "velocity": 105, "channel": 0}, {"type": "note_off", "time": 0, "note": 72, "velocity": 103, "channel": 0}, {"type": "note_off", "time": 202, "note": 75, "velocity": 105, "channel": 0}, {"type": "note_on", "time": 0, "note": 70, "velocity": 101, "channel": 0}, {"type": "note_off", "time": 195, "note": 70, "velocity": 101, "channel": 0}, {"type": "note_on", "time": 6, "note": 69, "velocity": 106, "channel": 0}, {"type": "note_off", "time": 217, "note": 69, "velocity": 106, "channel": 0}, {"type": "note_on", "time": 26, "note": 70, "velocity": 100, "channel": 0}, {"type": "note_off", "time": 230, "note": 70, "velocity": 100, "channel": 0}, {"type": "note_on", "time": 0, "note": 71, "velocity": 97, "channel": 0}, {"type": "note_off", "time": 201, "note": 71, "velocity": 97, "channel": 0}, {"type": "note_on", "time": 0, "note": 68, "velocity": 101, "channel": 0}, {"type": "note_off", "time": 207, "note": 68, "velocity": 101, "channel": 0}, {"type": "note_on", "time": 0, "note": 63, "velocity": 106, "channel": 0}, {"type": "note_off", "time": 200, "note": 63, "velocity": 106, "channel": 0}, {"type": "note_on", "time": 6, "note": 60, "velocity": 98, "channel": 0}, {"type": "note_off", "time": 105, "note": 60, "velocity": 98, "channel": 0}, {"type": "note_on", "time": 118, "note": 68, "velocity": 100, "channel": 0}, {"type": "note_off", "time": 126, "note": 68, "velocity": 100, "channel": 0}, {"type": "note_on", "time": 67, "note": 67, "velocity": 95, "channel": 0}, {"type": "note_off", "time": 168, "note": 67, "velocity": 95, "channel": 0}, {"type": "note_on", "time": 38, "note": 63, "velocity": 108, "channel": 0}, {"type": "note_off", "time": 136, "note": 63, "velocity": 108, "channel": 0}, {"type": "note_on", "time": 57, "note": 60, "velocity": 85, "channel": 0}, {"type": "note_off", "time": 260, "note": 60, "velocity": 85, "channel": 0}, {"type": "note_on", "time": 48, "note": 67, "velocity": 95, "channel": 0}, {"type": "note_off", "time": 186, "note": 67, "velocity": 95, "channel": 0}, {"type": "note_on", "time": 50, "note": 65, "velocity": 85, "channel": 0}, {"type": "note_off", "time": 223, "note": 65, "velocity": 85, "channel": 0}, {"type": "note_on", "time": 17, "note": 60, "velocity": 93, "channel": 0}, {"type": "note_on", "time": 207, "note": 58, "velocity": 93, "channel": 0}, {"type": "note_off", "time": 0, "note": 60, "velocity": 93, "channel": 0}, {"type": "note_off", "time": 280, "note": 58, "velocity": 93, "channel": 0}, {"type": "note_on", "time": 15, "note": 56, "velocity": 100, "channel": 0}, {"type": "note_off", "time": 214, "note": 56, "velocity": 100, "channel": 0}, {"type": "note_on", "time": 0, "note": 58, "velocity": 97, "channel": 0}, {"type": "note_off", "time": 384, "note": 58, "velocity": 97, "channel": 0}, {"type": "end_of_track", "time": 0}]]}