{"ticks_per_beat": 840, "tracks": [[{"type": "track_name", "name": "Melody", "time": 0}, {"type": "set_tempo", "tempo": 517241, "time": 0}, {"type": "key_signature", "key": "Eb", "time": 0}, {"type": "time_signature", "numerator": 4, "denominator": 4, "clocks_per_click": 24, "notated_32nd_notes_per_beat": 8, "time": 0}, {"type": "note_on", "time": 5590, "note": 48, "velocity": 107, "channel": 0}, {"type": "note_off", "time": 263, "note": 48, "velocity": 107, "channel": 0}, {"type": "note_on", "time": 273, "note": 53, "velocity": 117, "channel": 0}, {"type": "note_off", "time": 245, "note": 53, "velocity": 117, "channel": 0}, {"type": "note_on", "time": 51, "note": 55, "velocity": 121, "channel": 0}, {"type": "note_off", "time": 287, "note": 55, "velocity": 121, "channel": 0}, {"type": "note_on", "time": 83, "note": 60, "velocity": 117, "channel": 0}, {"type": "note_off", "time": 259, "note": 60, "velocity": 117, "channel": 0}, {"type": "note_on", "time": 118, "note": 65, "velocity": 122, "channel": 0}, {"type": "note_off", "time": 268, "note": 65, "velocity": 122, "channel": 0}, {"type": "note_on", "time": 150, "note": 67, "velocity": 123, "channel": 0}, {"type": "note_off", "time": 301, "note": 67, "velocity": 123, "channel": 0}, {"type": "note_on", "time": 14, "note": 65, "velocity": 121, "channel": 0}, {"type": "note_off", "time": 273, "note": 65, "velocity": 121, "channel": 0}, {"type": "note_on", "time": 142, "note": 67, "velocity": 123, "channel": 0}, {"type": "note_off", "time": 281, "note": 67, "velocity": 123, "channel": 0}, {"type": "note_on", "time": 0, "note": 65, "velocity": 120, "channel": 0}, {"type": "note_off", "time": 263, "note": 65, "velocity": 120, "channel": 0}, {"type": "note_on", "time": 127, "note": 63, "velocity": 122, "channel": 0}, {"type": "note_off", "time": 320, "note": 63, "velocity": 122, "channel": 0}, {"type": "note_on", "time": 28, "note": 65, "velocity": 122, "channel": 0}, {"type": "note_off", "time": 301, "note": 65, "velocity": 122, "channel": 0}, {"type": "note_on", "time": 61, "note": 63, "velocity": 115, "channel": 0}, {"type": "note_off", "time": 339, "note": 63, "velocity": 115, "channel": 0}, {"type": "note_on", "time": 103, "note": 65, "velocity": 125, "channel": 0}, {"type": "note_off", "time": 259, "note": 65, "velocity": 125, "channel": 0}, {"type": "note_on", "time": 62, "note": 63, "velocity": 124, "channel": 0}, {"type": "note_off", "time": 183, "note": 63, "velocity": 124, "channel": 0}, {"type": "note_on", "time": 13, "note": 60, "velocity": 117, "channel": 0}, {"type": "note_off", "time": 339, "note": 60, "velocity": 117, "channel": 0}, {"type": "note_on", "time": 37, "note": 58, "velocity": 118, "channel": 0}, {"type": "note_off", "time": 230, "note": 58, "velocity": 118, "channel": 0}, {"type": "note_on", "time": 202, "note": 60, "velocity": 121, "channel": 0}, {"type": "note_off", "time": 259, "note": 60, "velocity": 121, "channel": 0}, {"type": "note_on", "time": 51, "note": 58, "velocity": 116, "channel": 0}, {"type": "note_off", "time": 216, "note": 58, "velocity": 116, "channel": 0}, {"type": "note_on", "time": 103, "note": 60, "velocity": 122, "channel": 0}, {"type": "note_off", "time": 245, "note": 60, "velocity": 122, "channel": 0}, {"type": "note_on", "time": 294, "note": 53, "velocity": 114, "channel": 0}, {"type": "note_off", "time": 106, "note": 53, "velocity": 114, "channel": 0}, {"type": "note_on", "time": 14, "note": 54, "velocity": 118, "channel": 0}, {"type": "note_off", "time": 254, "note": 54, "velocity": 118, "channel": 0}, {"type": "note_on", "time": 221, "note": 53, "velocity": 119, "channel": 0}, {"type": "note_off", "time": 532, "note": 53, "velocity": 119, "channel": 0}, {"type": "note_on", "time": 44, "note": 51, "velocity": 115, "channel": 0}, {"type": "note_off", "time": 230, "note": 51, "velocity": 115, "channel": 0}, {"type": "note_on", "time": 214, "note": 54, "velocity": 120, "channel": 0}, {"type": "note_off", "time": 230, "note": 54, "velocity": 120, "channel": 0}, {"type": "note_on", "time": 0, "note": 55, "velocity": 120, "channel": 0}, {"type": "note_off", "time": 315, "note": 55, "velocity": 120, "channel": 0}, {"type": "note_on", "time": 0, "note": 58, "velocity": 118, "channel": 0}, {"type": "note_off", "time": 1725, "note": 58, "velocity": 118, "channel": 0}, {"type": "note_on", "time": 141, "note": 61, "velocity": 117, "channel": 0}, {"type": "note_off", "time": 138, "note": 61, "velocity": 117, "channel": 0}, {"type": "note_on", "time": 25, "note": 63, "velocity": 114, "channel": 0}, {"type": "note_off", "time": 71, "note": 63, "velocity": 114, "channel": 0}, {"type": "note_on", "time": 6, "note": 66, "velocity": 122, "channel": 0}, {"type": "note_off", "time": 99, "note": 66, "velocity": 122, "channel": 0}, {"type": "note_on", "time": 25, "note": 67, "velocity": 109, "channel": 0}, {"type": "note_off", "time": 278, "note": 67, "velocity": 109, "channel": 0}, {"type": "note_on", "time": 1353, "note": 67, "velocity": 127, "channel": 0}, {"type": "note_off", "time": 188, "note": 67, "velocity": 127, "channel": 0}, {"type": "note_on", "time": 19, "note": 65, "velocity": 118, "channel": 0}, {"type": "note_off", "time": 165, "note": 65, "velocity": 118, "channel": 0}, {"type": "note_on", "time": 155, "note": 63, "velocity": 119, "channel": 0}, {"type": "note_off", "time": 178, "note": 63, "velocity": 119, "channel": 0}, {"type": "note_on", "time": 13, "note": 60, "velocity": 106, "channel": 0}, {"type": "note_off", "time": 188, "note": 60, "velocity": 106, "channel": 0}, {"type": "note_on", "time": 210, "note": 60, "velocity": 90, "channel": 0}, {"type": "note_off", "time": 867, "note": 60, "velocity": 90, "channel": 0}, {"type": "note_on", "time": 605, "note": 64, "velocity": 123, "channel": 0}, {"type": "note_off", "time": 192, "note": 64, "velocity": 123, "channel": 0}, {"type": "note_on", "time": 33, "note": 65, "velocity": 121, "channel": 0}, {"type": "note_off", "time": 894, "note": 65, "velocity": 121, "channel": 0}, {"type": "note_on", "time": 116, "note": 63, "velocity": 124, "channel": 0}, {"type": "note_off", "time": 185, "note": 63, "velocity": 124, "channel": 0}, {"type": "note_on", "time": 26, "note": 60, "velocity": 113, "channel": 0}, {"type": "note_off", "time": 235, "note": 60, "velocity": 113, "channel": 0}, {"type": "note_on", "time": 372, "note": 55, "velocity": 119, "channel": 0}, {"type": "note_off", "time": 165, "note": 55, "velocity": 119, "channel": 0}, {"type": "note_on", "time": 11, "note": 56, "velocity": 122, "channel": 0}, {"type": "note_off", "time": 257, "note": 56, "velocity": 122, "channel": 0}, {"type": "note_on", "time": 184, "note": 55, "velocity": 118, "channel": 0}, {"type": "note_off", "time": 516, "note": 55, "velocity": 118, "channel": 0}, {"type": "note_on", "time": 95, "note": 55, "velocity": 116, "channel": 0}, {"type": "note_off", "time": 97, "note": 55, "velocity": 116, "channel": 0}, {"type": "note_on", "time": 73, "note": 55, "velocity": 119, "channel": 0}, {"type": "note_off", "time": 75, "note": 55, "velocity": 119, "channel": 0}, {"type": "note_on", "time": 15, "note": 55, "velocity": 114, "channel": 0}, {"type": "note_off", "time": 110, "note": 55, "velocity": 114, "channel": 0}, {"type": "note_on", "time": 98, "note": 53, "velocity": 111, "channel": 0}, {"type": "note_off", "time": 358, "note": 53, "velocity": 111, "channel": 0}, {"type": "note_on", "time": 127, "note": 56, "velocity": 121, "channel": 0}, {"type": "note_off", "time": 188, "note": 56, "velocity": 121, "channel": 0}, {"type": "note_on", "time": 160, "note": 59, "velocity": 122, "channel": 0}, {"type": "note_off", "time": 230, "note": 59, "velocity": 122, "channel": 0}, {"type": "note_on", "time": 37, "note": 56, "velocity": 118, "channel": 0}, {"type": "note_off", "time": 202, "note": 56, "velocity": 118, "channel": 0}, {"type": "note_on", "time": 61, "note": 55, "velocity": 109, "channel": 0}, {"type": "note_off", "time": 193, "note": 55, "velocity": 109, "channel": 0}, {"type": "note_on", "time": 17, "note": 53, "velocity": 109, "channel": 0}, {"type": "note_off", "time": 230, "note": 53, "velocity": 109, "channel": 0}, {"type": "note_on", "time": 113, "note": 51, "velocity": 106, "channel": 0}, {"type": "note_off", "time": 139, "note": 51, "velocity": 106, "channel": 0}, {"type": "note_on", "time": 148, "note": 61, "velocity": 121, "channel": 0}, {"type": "note_off", "time": 212, "note": 61, "velocity": 121, "channel": 0}, {"type": "note_on", "time": 13, "note": 62, "velocity": 117, "channel": 0}, {"type": "note_off", "time": 1093, "note": 62, "velocity": 117, "channel": 0}, {"type": "note_on", "time": 66, "note": 60, "velocity": 110, "channel": 0}, {"type": "note_off", "time": 197, "note": 60, "velocity": 110, "channel": 0}, {"type": "note_on", "time": 47, "note": 58, "velocity": 109, "channel": 0}, {"type": "note_off", "time": 216, "note": 58, "velocity": 109, "channel": 0}, {"type": "note_on", "time": 61, "note": 57, "velocity": 100, "channel": 0}, {"type": "note_off", "time": 485, "note": 57, "velocity": 100, "channel": 0}, {"type": "note_on", "time": 127, "note": 60, "velocity": 116, "channel": 0}, {"type": "note_off", "time": 160, "note": 60, "velocity": 116, "channel": 0}, {"type": "note_on", "time": 56, "note": 63, "velocity": 115, "channel": 0}, {"type": "note_off", "time": 532, "note": 63, "velocity": 115, "channel": 0}, {"type": "note_on", "time": 98, "note": 60, "velocity": 108, "channel": 0}, {"type": "note_off", "time": 131, "note": 60, "velocity": 108, "channel": 0}, {"type": "note_on", "time": 80, "note": 66, "velocity": 117, "channel": 0}, {"type": "note_off", "time": 70, "note": 66, "velocity": 117, "channel": 0}, {"type": "note_on", "time": 19, "note": 67, "velocity": 122, "channel": 0}, {"type": "note_off", "time": 459, "note": 67, "velocity": 122, "channel": 0}, {"type": "note_on", "time": 294, "note": 69, "velocity": 123, "channel": 0}, {"type": "note_off", "time": 631, "note": 69, "velocity": 123, "channel": 0}, {"type": "note_on", "time": 1103, "note": 60, "velocity": 101, "channel": 0}, {"type": "note_off", "time": 437, "note": 60, "velocity": 101, "channel": 0}, {"type": "note_on", "time": 26, "note": 63, "velocity": 122, "channel": 0}, {"type": "note_off", "time": 298, "note": 63, "velocity": 122, "channel": 0}, {"type": "note_on", "time": 16, "note": 67, "velocity": 121, "channel": 0}, {"type": "note_off", "time": 546, "note": 67, "velocity": 121, "channel": 0}, {"type": "note_on", "time": 29, "note": 65, "velocity": 116, "channel": 0}, {"type": "note_off", "time": 583, "note": 65, "velocity": 116, "channel": 0}, {"type": "note_on", "time": 1089, "note": 64, "velocity": 123, "channel": 0}, {"type": "note_off", "time": 72, "note": 64, "velocity": 123, "channel": 0}, {"type": "note_on", "time": 37, "note": 65, "velocity": 112, "channel": 0}, {"type": "note_off", "time": 464, "note": 65, "velocity": 112, "channel": 0}, {"type": "note_on", "time": 1077, "note": 64, "velocity": 122, "channel": 0}, {"type": "note_off", "time": 92, "note": 64, "velocity": 122, "channel": 0}, {"type": "note_on", "time": 43, "note": 65, "velocity": 114, "channel": 0}, {"type": "note_off", "time": 364, "note": 65, "velocity": 114, "channel": 0}, {"type": "note_on", "time": 722, "note": 66, "velocity": 124, "channel": 0}, {"type": "note_off", "time": 228, "note": 66, "velocity": 124, "channel": 0}, {"type": "note_on", "time": 9, "note": 65, "velocity": 115, "channel": 0}, {"type": "note_off", "time": 195, "note": 65, "velocity": 115, "channel": 0}, {"type": "note_on", "time": 36, "note": 63, "velocity": 118, "channel": 0}, {"type": "note_off", "time": 261, "note": 63, "velocity": 118, "channel": 0}, {"type": "note_on", "time": 33, "note": 60, "velocity": 102, "channel": 0}, {"type": "note_off", "time": 536, "note": 60, "velocity": 102, "channel": 0}, {"type": "note_on", "time": 92, "note": 57, "velocity": 104, "channel": 0}, {"type": "note_off", "time": 178, "note": 57, "velocity": 104, "channel": 0}, {"type": "note_on", "time": 109, "note": 61, "velocity": 121, "channel": 0}, {"type": "note_off", "time": 139, "note": 61, "velocity": 121, "channel": 0}, {"type": "note_on", "time": 9, "note": 62, "velocity": 116, "channel": 0}, {"type": "note_off", "time": 1169, "note": 62, "velocity": 116, "channel": 0}, {"type": "note_on", "time": 76, "note": 60, "velocity": 118, "channel": 0}, {"type": "note_off", "time": 198, "note": 60, "velocity": 118, "channel": 0}, {"type": "note_on", "time": 185, "note": 59, "velocity": 114, "channel": 0}, {"type": "note_off", "time": 171, "note": 59, "velocity": 114, "channel": 0}, {"type": "note_on", "time": 0, "note": 62, "velocity": 116, "channel": 0}, {"type": "note_off", "time": 106, "note": 62, "velocity": 116, "channel": 0}, {"type": "note_on", "time": 30, "note": 59, "velocity": 116, "channel": 0}, {"type": "note_off", "time": 119, "note": 59, "velocity": 116, "channel": 0}, {"type": "note_on", "time": 16, "note": 56, "velocity": 114, "channel": 0}, {"type": "note_off", "time": 298, "note": 56, "velocity": 114, "channel": 0}, {"type": "note_on", "time": 202, "note": 55, "velocity": 104, "channel": 0}, {"type": "note_off", "time": 288, "note": 55, "velocity": 104, "channel": 0}, {"type": "note_on", "time": 145, "note": 53, "velocity": 108, "channel": 0}, {"type": "note_off", "time": 145, "note": 53, "velocity": 108, "channel": 0}, {"type": "note_on", "time": 245, "note": 50, "velocity": 100, "channel": 0}, {"type": "note_off", "time": 351, "note": 50, "velocity": 100, "channel": 0}, {"type": "note_on", "time": 16, "note": 51, "velocity": 103, "channel": 0}, {"type": "note_off", "time": 135, "note": 51, "velocity": 103, "channel": 0}, {"type": "note_on", "time": 258, "note": 50, "velocity": 96, "channel": 0}, {"type": "note_off", "time": 169, "note": 50, "velocity": 96, "channel": 0}, {"type": "note_on", "time": 1345, "note": 50, "velocity": 97, "channel": 0}, {"type": "note_off", "time": 155, "note": 50, "velocity": 97, "channel": 0}, {"type": "note_on", "time": 0, "note": 51, "velocity": 104, "channel": 0}, {"type": "note_off", "time": 125, "note": 51, "velocity": 104, "channel": 0}, {"type": "note_on", "time": 29, "note": 55, "velocity": 106, "channel": 0}, {"type": "note_off", "time": 106, "note": 55, "velocity": 106, "channel": 0}, {"type": "note_on", "time": 0, "note": 56, "velocity": 105, "channel": 0}, {"type": "note_off", "time": 56, "note": 56, "velocity": 105, "channel": 0}, {"type": "note_on", "time": 49, "note": 58, "velocity": 111, "channel": 0}, {"type": "note_off", "time": 169, "note": 58, "velocity": 111, "channel": 0}, {"type": "note_on", "time": 0, "note": 62, "velocity": 120, "channel": 0}, {"type": "note_off", "time": 198, "note": 62, "velocity": 120, "channel": 0}, {"type": "note_on", "time": 19, "note": 60, "velocity": 112, "channel": 0}, {"type": "note_off", "time": 132, "note": 60, "velocity": 112, "channel": 0}, {"type": "note_on", "time": 56, "note": 58, "velocity": 114, "channel": 0}, {"type": "note_off", "time": 192, "note": 58, "velocity": 114, "channel": 0}, {"type": "note_on", "time": 33, "note": 55, "velocity": 104, "channel": 0}, {"type": "note_off", "time": 172, "note": 55, "velocity": 104, "channel": 0}, {"type": "note_on", "time": 43, "note": 56, "velocity": 98, "channel": 0}, {"type": "note_off", "time": 192, "note": 56, "velocity": 98, "channel": 0}, {"type": "note_on", "time": 69, "note": 57, "velocity": 107, "channel": 0}, {"type": "note_off", "time": 275, "note": 57, "velocity": 107, "channel": 0}, {"type": "note_on", "time": 195, "note": 70, "velocity": 122, "channel": 0}, {"type": "note_off", "time": 152, "note": 70, "velocity": 122, "channel": 0}, {"type": "note_on", "time": 0, "note": 68, "velocity": 115, "channel": 0}, {"type": "note_on", "time": 39, "note": 67, "velocity": 116, "channel": 0}, {"type": "note_off", "time": 0, "note": 68, "velocity": 115, "channel": 0}, {"type": "note_off", "time": 72, "note": 67, "velocity": 116, "channel": 0}, {"type": "note_on", "time": 13, "note": 65, "velocity": 119, "channel": 0}, {"type": "note_off", "time": 89, "note": 65, "velocity": 119, "channel": 0}, {"type": "note_on", "time": 13, "note": 63, "velocity": 105, "channel": 0}, {"type": "note_off", "time": 69, "note": 63, "velocity": 105, "channel": 0}, {"type": "note_on", "time": 19, "note": 60, "velocity": 101, "channel": 0}, {"type": "note_off", "time": 76, "note": 60, "velocity": 101, "channel": 0}, {"type": "note_on", "time": 33, "note": 56, "velocity": 106, "channel": 0}, {"type": "note_off", "time": 145, "note": 56, "velocity": 106, "channel": 0}, {"type": "note_on", "time": 46, "note": 54, "velocity": 105, "channel": 0}, {"type": "note_off", "time": 102, "note": 54, "velocity": 105, "channel": 0}, {"type": "note_on", "time": 13, "note": 51, "velocity": 97, "channel": 0}, {"type": "note_off", "time": 165, "note": 51, "velocity": 97, "channel": 0}, {"type": "note_on", "time": 188, "note": 60, "velocity": 115, "channel": 0}, {"type": "note_off", "time": 162, "note": 60, "velocity": 115, "channel": 0}, {"type": "note_on", "time": 46, "note": 57, "velocity": 109, "channel": 0}, {"type": "note_off", "time": 125, "note": 57, "velocity": 109, "channel": 0}, {"type": "note_on", "time": 9, "note": 58, "velocity": 108, "channel": 0}, {"type": "note_off", "time": 215, "note": 58, "velocity": 108, "channel": 0}, {"type": "note_on", "time": 26, "note": 61, "velocity": 115, "channel": 0}, {"type": "note_off", "time": 139, "note": 61, "velocity": 115, "channel": 0}, {"type": "note_on", "time": 145, "note": 61, "velocity": 115, "channel": 0}, {"type": "note_off", "time": 139, "note": 61, "velocity": 115, "channel": 0}, {"type": "note_on", "time": 0, "note": 62, "velocity": 111, "channel": 0}, {"type": "note_off", "time": 215, "note": 62, "velocity": 111, "channel": 0}, {"type": "note_on", "time": 33, "note": 65, "velocity": 116, "channel": 0}, {"type": "note_off", "time": 361, "note": 65, "velocity": 116, "channel": 0}, {"type": "note_on", "time": 712, "note": 68, "velocity": 121, "channel": 0}, {"type": "note_off", "time": 205, "note": 68, "velocity": 121, "channel": 0}, {"type": "note_on", "time": 29, "note": 67, "velocity": 113, "channel": 0}, {"type": "note_off", "time": 215, "note": 67, "velocity": 113, "channel": 0}, {"type": "note_on", "time": 56, "note": 65, "velocity": 114, "channel": 0}, {"type": "note_off", "time": 238, "note": 65, "velocity": 114, "channel": 0}, {"type": "note_on", "time": 62, "note": 67, "velocity": 116, "channel": 0}, {"type": "note_off", "time": 271, "note": 67, "velocity": 116, "channel": 0}, {"type": "note_on", "time": 288, "note": 63, "velocity": 114, "channel": 0}, {"type": "note_off", "time": 255, "note": 63, "velocity": 114, "channel": 0}, {"type": "note_on", "time": 39, "note": 60, "velocity": 98, "channel": 0}, {"type": "note_off", "time": 772, "note": 60, "velocity": 98, "channel": 0}, {"type": "note_on", "time": 46, "note": 60, "velocity": 101, "channel": 0}, {"type": "note_off", "time": 437, "note": 60, "velocity": 101, "channel": 0}, {"type": "note_on", "time": 855, "note": 69, "velocity": 120, "channel": 0}, {"type": "note_off", "time": 62, "note": 69, "velocity": 120, "channel": 0}, {"type": "note_on", "time": 19, "note": 68, "velocity": 117, "channel": 0}, {"type": "note_off", "time": 464, "note": 68, "velocity": 117, "channel": 0}, {"type": "note_on", "time": 53, "note": 67, "velocity": 112, "channel": 0}, {"type": "note_off", "time": 238, "note": 67, "velocity": 112, "channel": 0}, {"type": "note_on", "time": 23, "note": 65, "velocity": 112, "channel": 0}, {"type": "note_off", "time": 255, "note": 65, "velocity": 112, "channel": 0}, {"type": "note_on", "time": 175, "note": 63, "velocity": 115, "channel": 0}, {"type": "note_off", "time": 251, "note": 63, "velocity": 115, "channel": 0}, {"type": "note_on", "time": 46, "note": 59, "velocity": 108, "channel": 0}, {"type": "note_off", "time": 195, "note": 59, "velocity": 108, "channel": 0}, {"type": "note_on", "time": 16, "note": 57, "velocity": 97, "channel": 0}, {"type": "note_off", "time": 159, "note": 57, "velocity": 97, "channel": 0}, {"type": "note_on", "time": 59, "note": 55, "velocity": 105, "channel": 0}, {"type": "note_off", "time": 450, "note": 55, "velocity": 105, "channel": 0}, {"type": "note_on", "time": 228, "note": 63, "velocity": 121, "channel": 0}, {"type": "note_off", "time": 265, "note": 63, "velocity": 121, "channel": 0}, {"type": "note_on", "time": 271, "note": 60, "velocity": 110, "channel": 0}, {"type": "note_off", "time": 341, "note": 60, "velocity": 110, "channel": 0}, {"type": "note_on", "time": 212, "note": 58, "velocity": 110, "channel": 0}, {"type": "note_off", "time": 357, "note": 58, "velocity": 110, "channel": 0}, {"type": "note_on", "time": 152, "note": 57, "velocity": 111, "channel": 0}, {"type": "note_off", "time": 331, "note": 57, "velocity": 111, "channel": 0}, {"type": "note_on", "time": 251, "note": 63, "velocity": 114, "channel": 0}, {"type": "note_off", "time": 351, "note": 63, "velocity": 114, "channel": 0}, {"type": "note_on", "time": 215, "note": 62, "velocity": 114, "channel": 0}, {"type": "note_off", "time": 351, "note": 62, "velocity": 114, "channel": 0}, {"type": "note_on", "time": 185, "note": 60, "velocity": 111, "channel": 0}, {"type": "note_off", "time": 294, "note": 60, "velocity": 111, "channel": 0}, {"type": "note_on", "time": 261, "note": 55, "velocity": 107, "channel": 0}, {"type": "note_off", "time": 306, "note": 55, "velocity": 107, "channel": 0}, {"type": "note_on", "time": 283, "note": 58, "velocity": 110, "channel": 0}, {"type": "note_off", "time": 265, "note": 58, "velocity": 110, "channel": 0}, {"type": "note_on", "time": 255, "note": 57, "velocity": 108, "channel": 0}, {"type": "note_off", "time": 334, "note": 57, "velocity": 108, "channel": 0}, {"type": "note_on", "time": 235, "note": 55, "velocity": 100, "channel": 0}, {"type": "note_off", "time": 311, "note": 55, "velocity": 100, "channel": 0}, {"type": "note_on", "time": 259, "note": 62, "velocity": 113, "channel": 0}, {"type": "note_off", "time": 62, "note": 62, "velocity": 113, "channel": 0}, {"type": "note_on", "time": 9, "note": 62, "velocity": 109, "channel": 0}, {"type": "note_off", "time": 77, "note": 62, "velocity": 109, "channel": 0}, {"type": "note_on", "time": 16, "note": 60, "velocity": 102, "channel": 0}, {"type": "note_off", "time": 251, "note": 60, "velocity": 102, "channel": 0}, {"type": "note_on", "time": 141, "note": 63, "velocity": 117, "channel": 0}, {"type": "note_off", "time": 315, "note": 63, "velocity": 117, "channel": 0}, {"type": "note_on", "time": 174, "note": 62, "velocity": 112, "channel": 0}, {"type": "note_off", "time": 337, "note": 62, "velocity": 112, "channel": 0}, {"type": "note_on", "time": 256, "note": 60, "velocity": 107, "channel": 0}, {"type": "note_off", "time": 341, "note": 60, "velocity": 107, "channel": 0}, {"type": "note_on", "time": 202, "note": 56, "velocity": 113, "channel": 0}, {"type": "note_off", "time": 278, "note": 56, "velocity": 113, "channel": 0}, {"type": "note_on", "time": 103, "note": 55, "velocity": 101, "channel": 0}, {"type": "note_off", "time": 301, "note": 55, "velocity": 101, "channel": 0}, {"type": "note_on", "time": 205, "note": 53, "velocity": 97, "channel": 0}, {"type": "note_off", "time": 304, "note": 53, "velocity": 97, "channel": 0}, {"type": "note_on", "time": 2546, "note": 62, "velocity": 114, "channel": 0}, {"type": "note_off", "time": 110, "note": 62, "velocity": 114, "channel": 0}, {"type": "note_on", "time": 21, "note": 65, "velocity": 109, "channel": 0}, {"type": "note_off", "time": 91, "note": 65, "velocity": 109, "channel": 0}, {"type": "note_on", "time": 0, "note": 67, "velocity": 114, "channel": 0}, {"type": "note_off", "time": 103, "note": 67, "velocity": 114, "channel": 0}, {"type": "note_on", "time": 0, "note": 68, "velocity": 120, "channel": 0}, {"type": "note_off", "time": 103, "note": 68, "velocity": 120, "channel": 0}, {"type": "note_on", "time": 16, "note": 67, "velocity": 112, "channel": 0}, {"type": "note_off", "time": 129, "note": 67, "velocity": 112, "channel": 0}, {"type": "note_on", "time": 11, "note": 66, "velocity": 106, "channel": 0}, {"type": "note_off", "time": 63, "note": 66, "velocity": 106, "channel": 0}, {"type": "note_on", "time": 7, "note": 65, "velocity": 105, "channel": 0}, {"type": "note_off", "time": 148, "note": 65, "velocity": 105, "channel": 0}, {"type": "note_on", "time": 35, "note": 62, "velocity": 107, "channel": 0}, {"type": "note_off", "time": 136, "note": 62, "velocity": 107, "channel": 0}, {"type": "note_on", "time": 497, "note": 65, "velocity": 116, "channel": 0}, {"type": "note_off", "time": 153, "note": 65, "velocity": 116, "channel": 0}, {"type": "note_on", "time": 51, "note": 63, "velocity": 110, "channel": 0}, {"type": "note_off", "time": 197, "note": 63, "velocity": 110, "channel": 0}, {"type": "note_on", "time": 49, "note": 60, "velocity": 102, "channel": 0}, {"type": "note_off", "time": 197, "note": 60, "velocity": 102, "channel": 0}, {"type": "note_on", "time": 223, "note": 60, "velocity": 97, "channel": 0}, {"type": "note_off", "time": 172, "note": 60, "velocity": 97, "channel": 0}, {"type": "note_on", "time": 69, "note": 60, "velocity": 96, "channel": 0}, {"type": "note_off", "time": 169, "note": 60, "velocity": 96, "channel": 0}, {"type": "note_on", "time": 511, "note": 57, "velocity": 115, "channel": 0}, {"type": "note_off", "time": 122, "note": 57, "velocity": 115, "channel": 0}, {"type": "note_on", "time": 21, "note": 60, "velocity": 108, "channel": 0}, {"type": "note_off", "time": 96, "note": 60, "velocity": 108, "channel": 0}, {"type": "note_on", "time": 25, "note": 62, "velocity": 111, "channel": 0}, {"type": "note_off", "time": 124, "note": 62, "velocity": 111, "channel": 0}, {"type": "note_on", "time": 7, "note": 63, "velocity": 114, "channel": 0}, {"type": "note_off", "time": 148, "note": 63, "velocity": 114, "channel": 0}, {"type": "note_on", "time": 0, "note": 62, "velocity": 108, "channel": 0}, {"type": "note_off", "time": 117, "note": 62, "velocity": 108, "channel": 0}, {"type": "note_on", "time": 2, "note": 60, "velocity": 105, "channel": 0}, {"type": "note_off", "time": 127, "note": 60, "velocity": 105, "channel": 0}, {"type": "note_on", "time": 47, "note": 57, "velocity": 107, "channel": 0}, {"type": "note_off", "time": 164, "note": 57, "velocity": 107, "channel": 0}, {"type": "note_on", "time": 476, "note": 62, "velocity": 120, "channel": 0}, {"type": "note_off", "time": 120, "note": 62, "velocity": 120, "channel": 0}, {"type": "note_on", "time": 143, "note": 60, "velocity": 109, "channel": 0}, {"type": "note_off", "time": 162, "note": 60, "velocity": 109, "channel": 0}, {"type": "note_on", "time": 56, "note": 58, "velocity": 107, "channel": 0}, {"type": "note_off", "time": 193, "note": 58, "velocity": 107, "channel": 0}, {"type": "note_on", "time": 329, "note": 58, "velocity": 92, "channel": 0}, {"type": "note_off", "time": 473, "note": 58, "velocity": 92, "channel": 0}, {"type": "note_on", "time": 695, "note": 50, "velocity": 103, "channel": 0}, {"type": "note_off", "time": 153, "note": 50, "velocity": 103, "channel": 0}, {"type": "note_on", "time": 40, "note": 55, "velocity": 111, "channel": 0}, {"type": "note_off", "time": 209, "note": 55, "velocity": 111, "channel": 0}, {"type": "note_on", "time": 156, "note": 59, "velocity": 107, "channel": 0}, {"type": "note_off", "time": 192, "note": 59, "velocity": 107, "channel": 0}, {"type": "note_on", "time": 46, "note": 60, "velocity": 104, "channel": 0}, {"type": "note_off", "time": 222, "note": 60, "velocity": 104, "channel": 0}, {"type": "note_on", "time": 86, "note": 62, "velocity": 117, "channel": 0}, {"type": "note_off", "time": 185, "note": 62, "velocity": 117, "channel": 0}, {"type": "note_on", "time": 135, "note": 65, "velocity": 118, "channel": 0}, {"type": "note_off", "time": 228, "note": 65, "velocity": 118, "channel": 0}, {"type": "note_on", "time": 56, "note": 67, "velocity": 114, "channel": 0}, {"type": "note_off", "time": 225, "note": 67, "velocity": 114, "channel": 0}, {"type": "note_on", "time": 46, "note": 68, "velocity": 116, "channel": 0}, {"type": "note_off", "time": 208, "note": 68, "velocity": 116, "channel": 0}, {"type": "note_on", "time": 66, "note": 67, "velocity": 108, "channel": 0}, {"type": "note_off", "time": 225, "note": 67, "velocity": 108, "channel": 0}, {"type": "note_on", "time": 46, "note": 65, "velocity": 112, "channel": 0}, {"type": "note_off", "time": 195, "note": 65, "velocity": 112, "channel": 0}, {"type": "note_on", "time": 29, "note": 63, "velocity": 110, "channel": 0}, {"type": "note_off", "time": 235, "note": 63, "velocity": 110, "channel": 0}, {"type": "note_on", "time": 69, "note": 67, "velocity": 113, "channel": 0}, {"type": "note_off", "time": 235, "note": 67, "velocity": 113, "channel": 0}, {"type": "note_on", "time": 26, "note": 65, "velocity": 112, "channel": 0}, {"type": "note_off", "time": 225, "note": 65, "velocity": 112, "channel": 0}, {"type": "note_on", "time": 43, "note": 63, "velocity": 112, "channel": 0}, {"type": "note_off", "time": 202, "note": 63, "velocity": 112, "channel": 0}, {"type": "note_on", "time": 79, "note": 60, "velocity": 102, "channel": 0}, {"type": "note_off", "time": 218, "note": 60, "velocity": 102, "channel": 0}, {"type": "note_on", "time": 33, "note": 65, "velocity": 114, "channel": 0}, {"type": "note_off", "time": 208, "note": 65, "velocity": 114, "channel": 0}, {"type": "note_on", "time": 102, "note": 63, "velocity": 113, "channel": 0}, {"type": "note_off", "time": 192, "note": 63, "velocity": 113, "channel": 0}, {"type": "note_on", "time": 66, "note": 60, "velocity": 108, "channel": 0}, {"type": "note_off", "time": 198, "note": 60, "velocity": 108, "channel": 0}, {"type": "note_on", "time": 53, "note": 58, "velocity": 104, "channel": 0}, {"type": "note_off", "time": 192, "note": 58, "velocity": 104, "channel": 0}, {"type": "note_on", "time": 112, "note": 63, "velocity": 118, "channel": 0}, {"type": "note_off", "time": 212, "note": 63, "velocity": 118, "channel": 0}, {"type": "note_on", "time": 53, "note": 60, "velocity": 106, "channel": 0}, {"type": "note_off", "time": 182, "note": 60, "velocity": 106, "channel": 0}, {"type": "note_on", "time": 79, "note": 58, "velocity": 105, "channel": 0}, {"type": "note_off", "time": 198, "note": 58, "velocity": 105, "channel": 0}, {"type": "note_on", "time": 59, "note": 55, "velocity": 110, "channel": 0}, {"type": "note_off", "time": 232, "note": 55, "velocity": 110, "channel": 0}, {"type": "note_on", "time": 79, "note": 60, "velocity": 113, "channel": 0}, {"type": "note_off", "time": 202, "note": 60, "velocity": 113, "channel": 0}, {"type": "note_on", "time": 53, "note": 58, "velocity": 102, "channel": 0}, {"type": "note_off", "time": 258, "note": 58, "velocity": 102, "channel": 0}, {"type": "note_on", "time": 33, "note": 55, "velocity": 103, "channel": 0}, {"type": "note_off", "time": 265, "note": 55, "velocity": 103, "channel": 0}, {"type": "note_on", "time": 36, "note": 53, "velocity": 102, "channel": 0}, {"type": "note_off", "time": 202, "note": 53, "velocity": 102, "channel": 0}, {"type": "note_on", "time": 49, "note": 58, "velocity": 114, "channel": 0}, {"type": "note_off", "time": 228, "note": 58, "velocity": 114, "channel": 0}, {"type": "note_on", "time": 79, "note": 55, "velocity": 107, "channel": 0}, {"type": "note_off", "time": 232, "note": 55, "velocity": 107, "channel": 0}, {"type": "note_on", "time": 46, "note": 50, "velocity": 111, "channel": 0}, {"type": "note_off", "time": 215, "note": 50, "velocity": 111, "channel": 0}, {"type": "note_on", "time": 86, "note": 46, "velocity": 102, "channel": 0}, {"type": "note_off", "time": 185, "note": 46, "velocity": 102, "channel": 0}, {"type": "note_on", "time": 76, "note": 50, "velocity": 106, "channel": 0}, {"type": "note_off", "time": 185, "note": 50, "velocity": 106, "channel": 0}, {"type": "note_on", "time": 92, "note": 55, "velocity": 109, "channel": 0}, {"type": "note_off", "time": 261, "note": 55, "velocity": 109, "channel": 0}, {"type": "note_on", "time": 53, "note": 60, "velocity": 112, "channel": 0}, {"type": "note_off", "time": 169, "note": 60, "velocity": 112, "channel": 0}, {"type": "note_on", "time": 92, "note": 62, "velocity": 116, "channel": 0}, {"type": "note_off", "time": 225, "note": 62, "velocity": 116, "channel": 0}, {"type": "note_on", "time": 281, "note": 60, "velocity": 110, "channel": 0}, {"type": "note_on", "time": 143, "note": 62, "velocity": 110, "channel": 0}, {"type": "note_off", "time": 0, "note": 60, "velocity": 110, "channel": 0}, {"type": "note_off", "time": 139, "note": 62, "velocity": 110, "channel": 0}, {"type": "note_on", "time": 208, "note": 61, "velocity": 111, "channel": 0}, {"type": "note_off", "time": 159, "note": 61, "velocity": 111, "channel": 0}, {"type": "note_on", "time": 16, "note": 62, "velocity": 104, "channel": 0}, {"type": "note_off", "time": 145, "note": 62, "velocity": 104, "channel": 0}, {"type": "note_on", "time": 132, "note": 60, "velocity": 107, "channel": 0}, {"type": "note_off", "time": 178, "note": 60, "velocity": 107, "channel": 0}, {"type": "note_on", "time": 66, "note": 62, "velocity": 113, "channel": 0}, {"type": "note_off", "time": 135, "note": 62, "velocity": 113, "channel": 0}, {"type": "note_on", "time": 175, "note": 62, "velocity": 108, "channel": 0}, {"type": "note_off", "time": 102, "note": 62, "velocity": 108, "channel": 0}, {"type": "note_on", "time": 130, "note": 62, "velocity": 112, "channel": 0}, {"type": "note_off", "time": 187, "note": 62, "velocity": 112, "channel": 0}, {"type": "note_on", "time": 146, "note": 60, "velocity": 104, "channel": 0}, {"type": "note_off", "time": 216, "note": 60, "velocity": 104, "channel": 0}, {"type": "note_on", "time": 34, "note": 62, "velocity": 90, "channel": 0}, {"type": "note_off", "time": 228, "note": 62, "velocity": 90, "channel": 0}, {"type": "note_on", "time": 109, "note": 60, "velocity": 106, "channel": 0}, {"type": "note_off", "time": 179, "note": 60, "velocity": 106, "channel": 0}, {"type": "note_on", "time": 0, "note": 62, "velocity": 109, "channel": 0}, {"type": "note_off", "time": 238, "note": 62, "velocity": 109, "channel": 0}, {"type": "note_on", "time": 147, "note": 60, "velocity": 110, "channel": 0}, {"type": "note_off", "time": 221, "note": 60, "velocity": 110, "channel": 0}, {"type": "note_on", "time": 15, "note": 62, "velocity": 95, "channel": 0}, {"type": "note_off", "time": 245, "note": 62, "velocity": 95, "channel": 0}, {"type": "note_on", "time": 69, "note": 60, "velocity": 108, "channel": 0}, {"type": "note_off", "time": 225, "note": 60, "velocity": 108, "channel": 0}, {"type": "note_on", "time": 175, "note": 58, "velocity": 100, "channel": 0}, {"type": "note_off", "time": 174, "note": 58, "velocity": 100, "channel": 0}, {"type": "note_on", "time": 21, "note": 60, "velocity": 106, "channel": 0}, {"type": "note_off", "time": 225, "note": 60, "velocity": 106, "channel": 0}, {"type": "note_on", "time": 215, "note": 58, "velocity": 108, "channel": 0}, {"type": "note_off", "time": 193, "note": 58, "velocity": 108, "channel": 0}, {"type": "note_on", "time": 25, "note": 60, "velocity": 104, "channel": 0}, {"type": "note_off", "time": 188, "note": 60, "velocity": 104, "channel": 0}, {"type": "note_on", "time": 125, "note": 58, "velocity": 98, "channel": 0}, {"type": "note_off", "time": 642, "note": 58, "velocity": 98, "channel": 0}, {"type": "note_on", "time": 1289, "note": 59, "velocity": 113, "channel": 0}, {"type": "note_off", "time": 361, "note": 59, "velocity": 113, "channel": 0}, {"type": "note_on", "time": 232, "note": 56, "velocity": 109, "channel": 0}, {"type": "note_off", "time": 324, "note": 56, "velocity": 109, "channel": 0}, {"type": "note_on", "time": 49, "note": 55, "velocity": 99, "channel": 0}, {"type": "note_off", "time": 457, "note": 55, "velocity": 99, "channel": 0}, {"type": "note_on", "time": 248, "note": 53, "velocity": 109, "channel": 0}, {"type": "note_off", "time": 182, "note": 53, "velocity": 109, "channel": 0}, {"type": "note_on", "time": 254, "note": 60, "velocity": 109, "channel": 0}, {"type": "note_off", "time": 202, "note": 60, "velocity": 109, "channel": 0}, {"type": "note_on", "time": 42, "note": 62, "velocity": 95, "channel": 0}, {"type": "note_off", "time": 136, "note": 62, "velocity": 95, "channel": 0}, {"type": "note_on", "time": 164, "note": 60, "velocity": 112, "channel": 0}, {"type": "note_off", "time": 259, "note": 60, "velocity": 112, "channel": 0}, {"type": "note_on", "time": 14, "note": 62, "velocity": 106, "channel": 0}, {"type": "note_off", "time": 146, "note": 62, "velocity": 106, "channel": 0}, {"type": "note_on", "time": 141, "note": 60, "velocity": 108, "channel": 0}, {"type": "note_off", "time": 235, "note": 60, "velocity": 108, "channel": 0}, {"type": "note_on", "time": 9, "note": 62, "velocity": 121, "channel": 0}, {"type": "note_off", "time": 150, "note": 62, "velocity": 121, "channel": 0}, {"type": "note_on", "time": 155, "note": 60, "velocity": 112, "channel": 0}, {"type": "note_off", "time": 292, "note": 60, "velocity": 112, "channel": 0}, {"type": "note_on", "time": 0, "note": 62, "velocity": 118, "channel": 0}, {"type": "note_off", "time": 136, "note": 62, "velocity": 118, "channel": 0}, {"type": "note_on", "time": 142, "note": 60, "velocity": 112, "channel": 0}, {"type": "note_off", "time": 192, "note": 60, "velocity": 112, "channel": 0}, {"type": "note_on", "time": 86, "note": 62, "velocity": 117, "channel": 0}, {"type": "note_off", "time": 215, "note": 62, "velocity": 117, "channel": 0}, {"type": "note_on", "time": 72, "note": 60, "velocity": 100, "channel": 0}, {"type": "note_off", "time": 573, "note": 60, "velocity": 100, "channel": 0}, {"type": "note_on", "time": 1952, "note": 60, "velocity": 114, "channel": 0}, {"type": "note_off", "time": 106, "note": 60, "velocity": 114, "channel": 0}, {"type": "note_on", "time": 0, "note": 61, "velocity": 114, "channel": 0}, {"type": "note_off", "time": 116, "note": 61, "velocity": 114, "channel": 0}, {"type": "note_on", "time": 19, "note": 65, "velocity": 118, "channel": 0}, {"type": "note_off", "time": 152, "note": 65, "velocity": 118, "channel": 0}, {"type": "note_on", "time": 9, "note": 70, "velocity": 114, "channel": 0}, {"type": "note_off", "time": 298, "note": 70, "velocity": 114, "channel": 0}, {"type": "note_on", "time": 1458, "note": 72, "velocity": 111, "channel": 0}, {"type": "note_off", "time": 251, "note": 72, "velocity": 111, "channel": 0}, {"type": "note_on", "time": 129, "note": 66, "velocity": 110, "channel": 0}, {"type": "note_off", "time": 318, "note": 66, "velocity": 110, "channel": 0}, {"type": "note_on", "time": 102, "note": 65, "velocity": 115, "channel": 0}, {"type": "note_off", "time": 245, "note": 65, "velocity": 115, "channel": 0}, {"type": "note_on", "time": 76, "note": 63, "velocity": 109, "channel": 0}, {"type": "note_off", "time": 550, "note": 63, "velocity": 109, "channel": 0}, {"type": "note_on", "time": 251, "note": 65, "velocity": 112, "channel": 0}, {"type": "note_off", "time": 507, "note": 65, "velocity": 112, "channel": 0}, {"type": "note_on", "time": 46, "note": 67, "velocity": 122, "channel": 0}, {"type": "note_off", "time": 188, "note": 67, "velocity": 122, "channel": 0}, {"type": "note_on", "time": 86, "note": 63, "velocity": 107, "channel": 0}, {"type": "note_off", "time": 473, "note": 63, "velocity": 107, "channel": 0}, {"type": "note_on", "time": 133, "note": 60, "velocity": 108, "channel": 0}, {"type": "note_off", "time": 116, "note": 60, "velocity": 108, "channel": 0}, {"type": "note_on", "time": 723, "note": 67, "velocity": 109, "channel": 0}, {"type": "note_off", "time": 139, "note": 67, "velocity": 109, "channel": 0}, {"type": "note_on", "time": 198, "note": 72, "velocity": 116, "channel": 0}, {"type": "note_off", "time": 265, "note": 72, "velocity": 116, "channel": 0}, {"type": "note_on", "time": 119, "note": 72, "velocity": 117, "channel": 0}, {"type": "note_off", "time": 278, "note": 72, "velocity": 117, "channel": 0}, {"type": "note_on", "time": 46, "note": 72, "velocity": 117, "channel": 0}, {"type": "note_off", "time": 417, "note": 72, "velocity": 117, "channel": 0}, {"type": "note_on", "time": 112, "note": 72, "velocity": 115, "channel": 0}, {"type": "note_off", "time": 377, "note": 72, "velocity": 115, "channel": 0}, {"type": "note_on", "time": 173, "note": 72, "velocity": 115, "channel": 0}, {"type": "note_off", "time": 1065, "note": 72, "velocity": 115, "channel": 0}, {"type": "note_on", "time": 78, "note": 72, "velocity": 97, "channel": 0}, {"type": "note_off", "time": 761, "note": 72, "velocity": 97, "channel": 0}, {"type": "note_on", "time": 1712, "note": 77, "velocity": 123, "channel": 0}, {"type": "note_off", "time": 122, "note": 77, "velocity": 123, "channel": 0}, {"type": "note_on", "time": 3, "note": 78, "velocity": 120, "channel": 0}, {"type": "note_off", "time": 72, "note": 78, "velocity": 120, "channel": 0}, {"type": "note_on", "time": 6, "note": 77, "velocity": 119, "channel": 0}, {"type": "note_off", "time": 72, "note": 77, "velocity": 119, "channel": 0}, {"type": "note_on", "time": 473, "note": 73, "velocity": 116, "channel": 0}, {"type": "note_off", "time": 142, "note": 73, "velocity": 116, "channel": 0}, {"type": "note_on", "time": 394, "note": 72, "velocity": 113, "channel": 0}, {"type": "note_off", "time": 732, "note": 72, "velocity": 113, "channel": 0}, {"type": "note_on", "time": 28, "note": 72, "velocity": 111, "channel": 0}, {"type": "note_off", "time": 157, "note": 72, "velocity": 111, "channel": 0}, {"type": "note_on", "time": 152, "note": 69, "velocity": 115, "channel": 0}, {"type": "note_off", "time": 178, "note": 69, "velocity": 115, "channel": 0}, {"type": "note_on", "time": 245, "note": 65, "velocity": 117, "channel": 0}, {"type": "note_off", "time": 149, "note": 65, "velocity": 117, "channel": 0}, {"type": "note_on", "time": 9, "note": 66, "velocity": 114, "channel": 0}, {"type": "note_off", "time": 218, "note": 66, "velocity": 114, "channel": 0}, {"type": "note_on", "time": 102, "note": 65, "velocity": 113, "channel": 0}, {"type": "note_off", "time": 304, "note": 65, "velocity": 113, "channel": 0}, {"type": "note_on", "time": 90, "note": 63, "velocity": 112, "channel": 0}, {"type": "note_off", "time": 919, "note": 63, "velocity": 112, "channel": 0}, {"type": "note_on", "time": 34, "note": 60, "velocity": 114, "channel": 0}, {"type": "note_off", "time": 106, "note": 60, "velocity": 114, "channel": 0}, {"type": "note_on", "time": 66, "note": 63, "velocity": 107, "channel": 0}, {"type": "note_off", "time": 92, "note": 63, "velocity": 107, "channel": 0}, {"type": "note_on", "time": 26, "note": 65, "velocity": 116, "channel": 0}, {"type": "note_off", "time": 86, "note": 65, "velocity": 116, "channel": 0}, {"type": "note_on", "time": 13, "note": 67, "velocity": 118, "channel": 0}, {"type": "note_off", "time": 195, "note": 67, "velocity": 118, "channel": 0}, {"type": "note_on", "time": 10, "note": 65, "velocity": 109, "channel": 0}, {"type": "note_off", "time": 68, "note": 65, "velocity": 109, "channel": 0}, {"type": "note_on", "time": 28, "note": 62, "velocity": 117, "channel": 0}, {"type": "note_off", "time": 77, "note": 62, "velocity": 117, "channel": 0}, {"type": "note_on", "time": 124, "note": 58, "velocity": 102, "channel": 0}, {"type": "note_off", "time": 177, "note": 58, "velocity": 102, "channel": 0}, {"type": "note_on", "time": 128, "note": 60, "velocity": 104, "channel": 0}, {"type": "note_off", "time": 42, "note": 60, "velocity": 104, "channel": 0}, {"type": "note_on", "time": 0, "note": 62, "velocity": 111, "channel": 0}, {"type": "note_off", "time": 945, "note": 62, "velocity": 111, "channel": 0}, {"type": "note_on", "time": 25, "note": 61, "velocity": 115, "channel": 0}, {"type": "note_off", "time": 129, "note": 61, "velocity": 115, "channel": 0}, {"type": "note_on", "time": 153, "note": 59, "velocity": 114, "channel": 0}, {"type": "note_off", "time": 80, "note": 59, "velocity": 114, "channel": 0}, {"type": "note_on", "time": 49, "note": 62, "velocity": 118, "channel": 0}, {"type": "note_off", "time": 73, "note": 62, "velocity": 118, "channel": 0}, {"type": "note_on", "time": 23, "note": 58, "velocity": 104, "channel": 0}, {"type": "note_off", "time": 57, "note": 58, "velocity": 104, "channel": 0}, {"type": "note_on", "time": 40, "note": 56, "velocity": 114, "channel": 0}, {"type": "note_off", "time": 122, "note": 56, "velocity": 114, "channel": 0}, {"type": "note_on", "time": 152, "note": 56, "velocity": 104, "channel": 0}, {"type": "note_off", "time": 109, "note": 56, "velocity": 104, "channel": 0}, {"type": "note_on", "time": 13, "note": 59, "velocity": 107, "channel": 0}, {"type": "note_off", "time": 102, "note": 59, "velocity": 107, "channel": 0}, {"type": "note_on", "time": 682, "note": 53, "velocity": 117, "channel": 0}, {"type": "note_off", "time": 109, "note": 53, "velocity": 117, "channel": 0}, {"type": "note_on", "time": 35, "note": 57, "velocity": 110, "channel": 0}, {"type": "note_off", "time": 84, "note": 57, "velocity": 110, "channel": 0}, {"type": "note_on", "time": 14, "note": 60, "velocity": 108, "channel": 0}, {"type": "note_off", "time": 75, "note": 60, "velocity": 108, "channel": 0}, {"type": "note_on", "time": 0, "note": 62, "velocity": 101, "channel": 0}, {"type": "note_off", "time": 65, "note": 62, "velocity": 101, "channel": 0}, {"type": "note_on", "time": 32, "note": 65, "velocity": 111, "channel": 0}, {"type": "note_off", "time": 101, "note": 65, "velocity": 111, "channel": 0}, {"type": "note_on", "time": 14, "note": 68, "velocity": 111, "channel": 0}, {"type": "note_off", "time": 160, "note": 68, "velocity": 111, "channel": 0}, {"type": "note_on", "time": 1062, "note": 65, "velocity": 113, "channel": 0}, {"type": "note_off", "time": 103, "note": 65, "velocity": 113, "channel": 0}, {"type": "note_on", "time": 695, "note": 66, "velocity": 119, "channel": 0}, {"type": "note_off", "time": 92, "note": 66, "velocity": 119, "channel": 0}, {"type": "note_on", "time": 23, "note": 67, "velocity": 117, "channel": 0}, {"type": "note_off", "time": 225, "note": 67, "velocity": 117, "channel": 0}, {"type": "note_on", "time": 23, "note": 67, "velocity": 115, "channel": 0}, {"type": "note_off", "time": 172, "note": 67, "velocity": 115, "channel": 0}, {"type": "note_on", "time": 285, "note": 70, "velocity": 118, "channel": 0}, {"type": "note_off", "time": 175, "note": 70, "velocity": 118, "channel": 0}, {"type": "note_on", "time": 314, "note": 67, "velocity": 108, "channel": 0}, {"type": "note_off", "time": 235, "note": 67, "velocity": 108, "channel": 0}, {"type": "note_on", "time": 460, "note": 67, "velocity": 109, "channel": 0}, {"type": "note_off", "time": 175, "note": 67, "velocity": 109, "channel": 0}, {"type": "note_on", "time": 382, "note": 67, "velocity": 115, "channel": 0}, {"type": "note_off", "time": 480, "note": 67, "velocity": 115, "channel": 0}, {"type": "note_on", "time": 51, "note": 65, "velocity": 115, "channel": 0}, {"type": "note_off", "time": 235, "note": 65, "velocity": 115, "channel": 0}, {"type": "note_on", "time": 84, "note": 67, "velocity": 117, "channel": 0}, {"type": "note_off", "time": 122, "note": 67, "velocity": 117, "channel": 0}, {"type": "note_on", "time": 37, "note": 67, "velocity": 111, "channel": 0}, {"type": "note_off", "time": 117, "note": 67, "velocity": 111, "channel": 0}, {"type": "note_on", "time": 61, "note": 67, "velocity": 112, "channel": 0}, {"type": "note_off", "time": 113, "note": 67, "velocity": 112, "channel": 0}, {"type": "note_on", "time": 25, "note": 67, "velocity": 118, "channel": 0}, {"type": "note_off", "time": 134, "note": 67, "velocity": 118, "channel": 0}, {"type": "note_on", "time": 212, "note": 71, "velocity": 114, "channel": 0}, {"type": "note_off", "time": 108, "note": 71, "velocity": 114, "channel": 0}, {"type": "note_on", "time": 392, "note": 67, "velocity": 114, "channel": 0}, {"type": "note_off", "time": 198, "note": 67, "velocity": 114, "channel": 0}, {"type": "note_on", "time": 460, "note": 67, "velocity": 113, "channel": 0}, {"type": "note_off", "time": 195, "note": 67, "velocity": 113, "channel": 0}, {"type": "note_on", "time": 333, "note": 65, "velocity": 118, "channel": 0}, {"type": "note_off", "time": 167, "note": 65, "velocity": 118, "channel": 0}, {"type": "note_on", "time": 23, "note": 66, "velocity": 96, "channel": 0}, {"type": "note_off", "time": 190, "note": 66, "velocity": 96, "channel": 0}, {"type": "note_on", "time": 127, "note": 65, "velocity": 115, "channel": 0}, {"type": "note_off", "time": 167, "note": 65, "velocity": 115, "channel": 0}, {"type": "note_on", "time": 143, "note": 63, "velocity": 115, "channel": 0}, {"type": "note_off", "time": 165, "note": 63, "velocity": 115, "channel": 0}, {"type": "note_on", "time": 76, "note": 60, "velocity": 113, "channel": 0}, {"type": "note_off", "time": 172, "note": 60, "velocity": 113, "channel": 0}, {"type": "note_on", "time": 89, "note": 58, "velocity": 113, "channel": 0}, {"type": "note_off", "time": 178, "note": 58, "velocity": 113, "channel": 0}, {"type": "note_on", "time": 125, "note": 54, "velocity": 119, "channel": 0}, {"type": "note_off", "time": 69, "note": 54, "velocity": 119, "channel": 0}, {"type": "note_on", "time": 0, "note": 55, "velocity": 119, "channel": 0}, {"type": "note_off", "time": 149, "note": 55, "velocity": 119, "channel": 0}, {"type": "note_on", "time": 79, "note": 53, "velocity": 115, "channel": 0}, {"type": "note_off", "time": 169, "note": 53, "velocity": 115, "channel": 0}, {"type": "note_on", "time": 162, "note": 50, "velocity": 110, "channel": 0}, {"type": "note_off", "time": 149, "note": 50, "velocity": 110, "channel": 0}, {"type": "note_on", "time": 89, "note": 44, "velocity": 104, "channel": 0}, {"type": "note_off", "time": 241, "note": 44, "velocity": 104, "channel": 0}, {"type": "note_on", "time": 324, "note": 53, "velocity": 113, "channel": 0}, {"type": "note_off", "time": 162, "note": 53, "velocity": 113, "channel": 0}, {"type": "note_on", "time": 155, "note": 58, "velocity": 113, "channel": 0}, {"type": "note_off", "time": 197, "note": 58, "velocity": 113, "channel": 0}, {"type": "note_on", "time": 58, "note": 55, "velocity": 116, "channel": 0}, {"type": "note_off", "time": 162, "note": 55, "velocity": 116, "channel": 0}, {"type": "note_on", "time": 123, "note": 51, "velocity": 109, "channel": 0}, {"type": "note_off", "time": 135, "note": 51, "velocity": 109, "channel": 0}, {"type": "note_on", "time": 82, "note": 55, "velocity": 115, "channel": 0}, {"type": "note_off", "time": 205, "note": 55, "velocity": 115, "channel": 0}, {"type": "note_on", "time": 86, "note": 63, "velocity": 115, "channel": 0}, {"type": "note_off", "time": 212, "note": 63, "velocity": 115, "channel": 0}, {"type": "note_on", "time": 46, "note": 60, "velocity": 112, "channel": 0}, {"type": "note_off", "time": 218, "note": 60, "velocity": 112, "channel": 0}, {"type": "note_on", "time": 328, "note": 60, "velocity": 112, "channel": 0}, {"type": "note_off", "time": 165, "note": 60, "velocity": 112, "channel": 0}, {"type": "note_on", "time": 155, "note": 65, "velocity": 120, "channel": 0}, {"type": "note_off", "time": 228, "note": 65, "velocity": 120, "channel": 0}, {"type": "note_on", "time": 26, "note": 62, "velocity": 117, "channel": 0}, {"type": "note_off", "time": 288, "note": 62, "velocity": 117, "channel": 0}, {"type": "note_on", "time": 39, "note": 58, "velocity": 110, "channel": 0}, {"type": "note_off", "time": 182, "note": 58, "velocity": 110, "channel": 0}, {"type": "note_on", "time": 66, "note": 62, "velocity": 121, "channel": 0}, {"type": "note_off", "time": 232, "note": 62, "velocity": 121, "channel": 0}, {"type": "note_on", "time": 82, "note": 68, "velocity": 119, "channel": 0}, {"type": "note_off", "time": 278, "note": 68, "velocity": 119, "channel": 0}, {"type": "note_on", "time": 23, "note": 67, "velocity": 111, "channel": 0}, {"type": "note_off", "time": 261, "note": 67, "velocity": 111, "channel": 0}, {"type": "note_on", "time": 86, "note": 62, "velocity": 108, "channel": 0}, {"type": "note_off", "time": 159, "note": 62, "velocity": 108, "channel": 0}, {"type": "note_on", "time": 102, "note": 67, "velocity": 114, "channel": 0}, {"type": "note_off", "time": 401, "note": 67, "velocity": 114, "channel": 0}, {"type": "note_on", "time": 218, "note": 60, "velocity": 102, "channel": 0}, {"type": "note_off", "time": 314, "note": 60, "velocity": 102, "channel": 0}, {"type": "note_on", "time": 241, "note": 63, "velocity": 117, "channel": 0}, {"type": "note_off", "time": 391, "note": 63, "velocity": 117, "channel": 0}, {"type": "note_on", "time": 159, "note": 63, "velocity": 114, "channel": 0}, {"type": "note_off", "time": 450, "note": 63, "velocity": 114, "channel": 0}, {"type": "note_on", "time": 84, "note": 63, "velocity": 119, "channel": 0}, {"type": "note_off", "time": 231, "note": 63, "velocity": 119, "channel": 0}, {"type": "note_on", "time": 97, "note": 60, "velocity": 105, "channel": 0}, {"type": "note_off", "time": 119, "note": 60, "velocity": 105, "channel": 0}, {"type": "note_on", "time": 0, "note": 63, "velocity": 117, "channel": 0}, {"type": "note_off", "time": 261, "note": 63, "velocity": 117, "channel": 0}, {"type": "note_on", "time": 46, "note": 60, "velocity": 116, "channel": 0}, {"type": "note_off", "time": 238, "note": 60, "velocity": 116, "channel": 0}, {"type": "note_on", "time": 6, "note": 63, "velocity": 116, "channel": 0}, {"type": "note_off", "time": 576, "note": 63, "velocity": 116, "channel": 0}, {"type": "note_on", "time": 9, "note": 65, "velocity": 114, "channel": 0}, {"type": "note_off", "time": 238, "note": 65, "velocity": 114, "channel": 0}, {"type": "note_on", "time": 67, "note": 62, "velocity": 104, "channel": 0}, {"type": "note_off", "time": 145, "note": 62, "velocity": 104, "channel": 0}, {"type": "note_on", "time": 21, "note": 60, "velocity": 105, "channel": 0}, {"type": "note_off", "time": 70, "note": 60, "velocity": 105, "channel": 0}, {"type": "note_on", "time": 0, "note": 56, "velocity": 101, "channel": 0}, {"type": "note_off", "time": 164, "note": 56, "velocity": 101, "channel": 0}, {"type": "note_on", "time": 42, "note": 54, "velocity": 118, "channel": 0}, {"type": "note_off", "time": 131, "note": 54, "velocity": 118, "channel": 0}, {"type": "note_on", "time": 2, "note": 55, "velocity": 109, "channel": 0}, {"type": "note_off", "time": 164, "note": 55, "velocity": 109, "channel": 0}, {"type": "note_on", "time": 655, "note": 64, "velocity": 124, "channel": 0}, {"type": "note_off", "time": 94, "note": 64, "velocity": 124, "channel": 0}, {"type": "note_on", "time": 0, "note": 65, "velocity": 117, "channel": 0}, {"type": "note_off", "time": 150, "note": 65, "velocity": 117, "channel": 0}, {"type": "note_on", "time": 94, "note": 63, "velocity": 112, "channel": 0}, {"type": "note_off", "time": 117, "note": 63, "velocity": 112, "channel": 0}, {"type": "note_on", "time": 410, "note": 60, "velocity": 114, "channel": 0}, {"type": "note_off", "time": 202, "note": 60, "velocity": 114, "channel": 0}, {"type": "note_on", "time": 80, "note": 58, "velocity": 104, "channel": 0}, {"type": "note_off", "time": 424, "note": 58, "velocity": 104, "channel": 0}, {"type": "note_on", "time": 146, "note": 55, "velocity": 121, "channel": 0}, {"type": "note_off", "time": 61, "note": 55, "velocity": 121, "channel": 0}, {"type": "note_on", "time": 18, "note": 56, "velocity": 114, "channel": 0}, {"type": "note_off", "time": 120, "note": 56, "velocity": 114, "channel": 0}, {"type": "note_on", "time": 0, "note": 54, "velocity": 116, "channel": 0}, {"type": "note_off", "time": 470, "note": 54, "velocity": 116, "channel": 0}, {"type": "note_on", "time": 123, "note": 51, "velocity": 112, "channel": 0}, {"type": "note_off", "time": 174, "note": 51, "velocity": 112, "channel": 0}, {"type": "note_on", "time": 146, "note": 54, "velocity": 117, "channel": 0}, {"type": "note_off", "time": 115, "note": 54, "velocity": 117, "channel": 0}, {"type": "note_on", "time": 16, "note": 55, "velocity": 103, "channel": 0}, {"type": "note_off", "time": 304, "note": 55, "velocity": 103, "channel": 0}, {"type": "note_on", "time": 40, "note": 58, "velocity": 114, "channel": 0}, {"type": "note_off", "time": 247, "note": 58, "velocity": 114, "channel": 0}, {"type": "note_on", "time": 68, "note": 55, "velocity": 114, "channel": 0}, {"type": "note_off", "time": 609, "note": 55, "velocity": 114, "channel": 0}, {"type": "note_on", "time": 39, "note": 55, "velocity": 111, "channel": 0}, {"type": "note_off", "time": 132, "note": 55, "velocity": 111, "channel": 0}, {"type": "note_on", "time": 454, "note": 55, "velocity": 116, "channel": 0}, {"type": "note_off", "time": 152, "note": 55, "velocity": 116, "channel": 0}, {"type": "note_on", "time": 82, "note": 60, "velocity": 117, "channel": 0}, {"type": "note_off", "time": 195, "note": 60, "velocity": 117, "channel": 0}, {"type": "note_on", "time": 99, "note": 63, "velocity": 118, "channel": 0}, {"type": "note_off", "time": 261, "note": 63, "velocity": 118, "channel": 0}, {"type": "note_on", "time": 31, "note": 55, "velocity": 102, "channel": 0}, {"type": "note_off", "time": 141, "note": 55, "velocity": 102, "channel": 0}, {"type": "note_on", "time": 96, "note": 58, "velocity": 112, "channel": 0}, {"type": "note_off", "time": 162, "note": 58, "velocity": 112, "channel": 0}, {"type": "note_on", "time": 97, "note": 60, "velocity": 110, "channel": 0}, {"type": "note_off", "time": 1291, "note": 60, "velocity": 110, "channel": 0}, {"type": "note_on", "time": 9, "note": 56, "velocity": 126, "channel": 0}, {"type": "note_off", "time": 122, "note": 56, "velocity": 126, "channel": 0}, {"type": "note_on", "time": 15, "note": 57, "velocity": 112, "channel": 0}, {"type": "note_off", "time": 251, "note": 57, "velocity": 112, "channel": 0}, {"type": "note_on", "time": 31, "note": 54, "velocity": 96, "channel": 0}, {"type": "note_off", "time": 67, "note": 54, "velocity": 96, "channel": 0}, {"type": "note_on", "time": 1293, "note": 60, "velocity": 115, "channel": 0}, {"type": "note_off", "time": 245, "note": 60, "velocity": 115, "channel": 0}, {"type": "note_on", "time": 80, "note": 63, "velocity": 119, "channel": 0}, {"type": "note_off", "time": 1253, "note": 63, "velocity": 119, "channel": 0}, {"type": "note_on", "time": 65, "note": 60, "velocity": 116, "channel": 0}, {"type": "note_off", "time": 235, "note": 60, "velocity": 116, "channel": 0}, {"type": "note_on", "time": 705, "note": 63, "velocity": 94, "channel": 0}, {"type": "note_off", "time": 125, "note": 63, "velocity": 94, "channel": 0}, {"type": "note_on", "time": 96, "note": 65, "velocity": 115, "channel": 0}, {"type": "note_off", "time": 318, "note": 65, "velocity": 115, "channel": 0}, {"type": "note_on", "time": 26, "note": 63, "velocity": 117, "channel": 0}, {"type": "note_off", "time": 165, "note": 63, "velocity": 117, "channel": 0}, {"type": "note_on", "time": 62, "note": 65, "velocity": 117, "channel": 0}, {"type": "note_off", "time": 285, "note": 65, "velocity": 117, "channel": 0}, {"type": "note_on", "time": 49, "note": 63, "velocity": 117, "channel": 0}, {"type": "note_off", "time": 228, "note": 63, "velocity": 117, "channel": 0}, {"type": "note_on", "time": 43, "note": 65, "velocity": 117, "channel": 0}, {"type": "note_off", "time": 255, "note": 65, "velocity": 117, "channel": 0}, {"type": "note_on", "time": 23, "note": 63, "velocity": 119, "channel": 0}, {"type": "note_off", "time": 135, "note": 63, "velocity": 119, "channel": 0}, {"type": "note_on", "time": 109, "note": 66, "velocity": 122, "channel": 0}, {"type": "note_off", "time": 135, "note": 66, "velocity": 122, "channel": 0}, {"type": "note_on", "time": 0, "note": 67, "velocity": 117, "channel": 0}, {"type": "note_off", "time": 629, "note": 67, "velocity": 117, "channel": 0}, {"type": "note_on", "time": 116, "note": 66, "velocity": 119, "channel": 0}, {"type": "note_off", "time": 109, "note": 66, "velocity": 119, "channel": 0}, {"type": "note_on", "time": 9, "note": 65, "velocity": 109, "channel": 0}, {"type": "note_off", "time": 86, "note": 65, "velocity": 109, "channel": 0}, {"type": "note_on", "time": 29, "note": 64, "velocity": 106, "channel": 0}, {"type": "note_off", "time": 96, "note": 64, "velocity": 106, "channel": 0}, {"type": "note_on", "time": 53, "note": 63, "velocity": 110, "channel": 0}, {"type": "note_off", "time": 200, "note": 63, "velocity": 110, "channel": 0}, {"type": "note_on", "time": 292, "note": 60, "velocity": 108, "channel": 0}, {"type": "note_off", "time": 73, "note": 60, "velocity": 108, "channel": 0}, {"type": "note_on", "time": 30, "note": 58, "velocity": 108, "channel": 0}, {"type": "note_off", "time": 202, "note": 58, "velocity": 108, "channel": 0}, {"type": "note_on", "time": 65, "note": 54, "velocity": 114, "channel": 0}, {"type": "note_off", "time": 134, "note": 54, "velocity": 114, "channel": 0}, {"type": "note_on", "time": 18, "note": 60, "velocity": 111, "channel": 0}, {"type": "note_off", "time": 1121, "note": 60, "velocity": 111, "channel": 0}, {"type": "note_on", "time": 1065, "note": 60, "velocity": 91, "channel": 0}, {"type": "note_off", "time": 91, "note": 60, "velocity": 91, "channel": 0}, {"type": "note_on", "time": 75, "note": 60, "velocity": 98, "channel": 0}, {"type": "note_off", "time": 209, "note": 60, "velocity": 98, "channel": 0}, {"type": "note_on", "time": 58, "note": 60, "velocity": 112, "channel": 0}, {"type": "note_off", "time": 268, "note": 60, "velocity": 112, "channel": 0}, {"type": "note_on", "time": 9, "note": 64, "velocity": 116, "channel": 0}, {"type": "note_off", "time": 266, "note": 64, "velocity": 116, "channel": 0}, {"type": "note_on", "time": 4, "note": 67, "velocity": 119, "channel": 0}, {"type": "note_off", "time": 207, "note": 67, "velocity": 119, "channel": 0}, {"type": "note_on", "time": 950, "note": 70, "velocity": 117, "channel": 0}, {"type": "note_off", "time": 497, "note": 70, "velocity": 117, "channel": 0}, {"type": "note_on", "time": 298, "note": 67, "velocity": 118, "channel": 0}, {"type": "note_off", "time": 526, "note": 67, "velocity": 118, "channel": 0}, {"type": "note_on", "time": 19, "note": 65, "velocity": 119, "channel": 0}, {"type": "note_off", "time": 208, "note": 65, "velocity": 119, "channel": 0}, {"type": "note_on", "time": 152, "note": 63, "velocity": 112, "channel": 0}, {"type": "note_off", "time": 467, "note": 63, "velocity": 112, "channel": 0}, {"type": "note_on", "time": 46, "note": 60, "velocity": 112, "channel": 0}, {"type": "note_off", "time": 165, "note": 60, "velocity": 112, "channel": 0}, {"type": "note_on", "time": 202, "note": 61, "velocity": 112, "channel": 0}, {"type": "note_off", "time": 173, "note": 61, "velocity": 112, "channel": 0}, {"type": "note_on", "time": 35, "note": 62, "velocity": 115, "channel": 0}, {"type": "note_off", "time": 546, "note": 62, "velocity": 115, "channel": 0}, {"type": "note_on", "time": 470, "note": 63, "velocity": 119, "channel": 0}, {"type": "note_off", "time": 188, "note": 63, "velocity": 119, "channel": 0}, {"type": "note_on", "time": 36, "note": 62, "velocity": 117, "channel": 0}, {"type": "note_off", "time": 255, "note": 62, "velocity": 117, "channel": 0}, {"type": "note_on", "time": 59, "note": 60, "velocity": 110, "channel": 0}, {"type": "note_off", "time": 228, "note": 60, "velocity": 110, "channel": 0}, {"type": "note_on", "time": 79, "note": 57, "velocity": 113, "channel": 0}, {"type": "note_off", "time": 162, "note": 57, "velocity": 113, "channel": 0}, {"type": "note_on", "time": 258, "note": 58, "velocity": 108, "channel": 0}, {"type": "note_off", "time": 487, "note": 58, "velocity": 108, "channel": 0}, {"type": "note_on", "time": 72, "note": 55, "velocity": 107, "channel": 0}, {"type": "note_off", "time": 182, "note": 55, "velocity": 107, "channel": 0}, {"type": "note_on", "time": 1358, "note": 55, "velocity": 121, "channel": 0}, {"type": "note_off", "time": 149, "note": 55, "velocity": 121, "channel": 0}, {"type": "note_on", "time": 26, "note": 56, "velocity": 122, "channel": 0}, {"type": "note_off", "time": 169, "note": 56, "velocity": 122, "channel": 0}, {"type": "note_on", "time": 103, "note": 56, "velocity": 115, "channel": 0}, {"type": "note_off", "time": 235, "note": 56, "velocity": 115, "channel": 0}, {"type": "note_on", "time": 21, "note": 56, "velocity": 116, "channel": 0}, {"type": "note_off", "time": 256, "note": 56, "velocity": 116, "channel": 0}, {"type": "note_on", "time": 28, "note": 55, "velocity": 119, "channel": 0}, {"type": "note_off", "time": 94, "note": 55, "velocity": 119, "channel": 0}, {"type": "note_on", "time": 28, "note": 56, "velocity": 121, "channel": 0}, {"type": "note_off", "time": 131, "note": 56, "velocity": 121, "channel": 0}, {"type": "note_on", "time": 50, "note": 57, "velocity": 116, "channel": 0}, {"type": "note_off", "time": 477, "note": 57, "velocity": 116, "channel": 0}, {"type": "note_on", "time": 573, "note": 58, "velocity": 117, "channel": 0}, {"type": "note_off", "time": 304, "note": 58, "velocity": 117, "channel": 0}, {"type": "note_on", "time": 304, "note": 59, "velocity": 116, "channel": 0}, {"type": "note_off", "time": 275, "note": 59, "velocity": 116, "channel": 0}, {"type": "note_on", "time": 19, "note": 56, "velocity": 111, "channel": 0}, {"type": "note_off", "time": 119, "note": 56, "velocity": 111, "channel": 0}, {"type": "note_on", "time": 0, "note": 60, "velocity": 116, "channel": 0}, {"type": "note_off", "time": 185, "note": 60, "velocity": 116, "channel": 0}, {"type": "note_on", "time": 39, "note": 56, "velocity": 108, "channel": 0}, {"type": "note_off", "time": 132, "note": 56, "velocity": 108, "channel": 0}, {"type": "note_on", "time": 0, "note": 61, "velocity": 116, "channel": 0}, {"type": "note_off", "time": 265, "note": 61, "velocity": 116, "channel": 0}, {"type": "note_on", "time": 62, "note": 58, "velocity": 112, "channel": 0}, {"type": "note_off", "time": 119, "note": 58, "velocity": 112, "channel": 0}, {"type": "note_on", "time": 9, "note": 62, "velocity": 119, "channel": 0}, {"type": "note_off", "time": 248, "note": 62, "velocity": 119, "channel": 0}, {"type": "note_on", "time": 26, "note": 60, "velocity": 110, "channel": 0}, {"type": "note_off", "time": 119, "note": 60, "velocity": 110, "channel": 0}, {"type": "note_on", "time": 23, "note": 63, "velocity": 117, "channel": 0}, {"type": "note_off", "time": 265, "note": 63, "velocity": 117, "channel": 0}, {"type": "note_on", "time": 33, "note": 61, "velocity": 109, "channel": 0}, {"type": "note_off", "time": 132, "note": 61, "velocity": 109, "channel": 0}, {"type": "note_on", "time": 9, "note": 64, "velocity": 122, "channel": 0}, {"type": "note_off", "time": 235, "note": 64, "velocity": 122, "channel": 0}, {"type": "note_on", "time": 33, "note": 61, "velocity": 108, "channel": 0}, {"type": "note_off", "time": 152, "note": 61, "velocity": 108, "channel": 0}, {"type": "note_on", "time": 29, "note": 66, "velocity": 115, "channel": 0}, {"type": "note_off", "time": 165, "note": 66, "velocity": 115, "channel": 0}, {"type": "note_on", "time": 13, "note": 67, "velocity": 119, "channel": 0}, {"type": "note_off", "time": 116, "note": 67, "velocity": 119, "channel": 0}, {"type": "note_on", "time": 29, "note": 67, "velocity": 120, "channel": 0}, {"type": "note_off", "time": 129, "note": 67, "velocity": 120, "channel": 0}, {"type": "note_on", "time": 16, "note": 67, "velocity": 108, "channel": 0}, {"type": "note_off", "time": 178, "note": 67, "velocity": 108, "channel": 0}, {"type": "note_on", "time": 785, "note": 67, "velocity": 104, "channel": 0}, {"type": "note_off", "time": 125, "note": 67, "velocity": 104, "channel": 0}, {"type": "note_on", "time": 82, "note": 72, "velocity": 115, "channel": 0}, {"type": "note_off", "time": 374, "note": 72, "velocity": 115, "channel": 0}, {"type": "note_on", "time": 92, "note": 68, "velocity": 111, "channel": 0}, {"type": "note_off", "time": 59, "note": 68, "velocity": 111, "channel": 0}, {"type": "note_on", "time": 6, "note": 67, "velocity": 112, "channel": 0}, {"type": "note_off", "time": 182, "note": 67, "velocity": 112, "channel": 0}, {"type": "note_on", "time": 1033, "note": 65, "velocity": 119, "channel": 0}, {"type": "note_off", "time": 172, "note": 65, "velocity": 119, "channel": 0}, {"type": "note_on", "time": 35, "note": 65, "velocity": 112, "channel": 0}, {"type": "note_off", "time": 117, "note": 65, "velocity": 112, "channel": 0}, {"type": "note_on", "time": 47, "note": 65, "velocity": 108, "channel": 0}, {"type": "note_off", "time": 249, "note": 65, "velocity": 108, "channel": 0}, {"type": "note_on", "time": 690, "note": 66, "velocity": 117, "channel": 0}, {"type": "note_off", "time": 131, "note": 66, "velocity": 117, "channel": 0}, {"type": "note_on", "time": 14, "note": 67, "velocity": 111, "channel": 0}, {"type": "note_off", "time": 110, "note": 67, "velocity": 111, "channel": 0}, {"type": "note_on", "time": 121, "note": 63, "velocity": 118, "channel": 0}, {"type": "note_off", "time": 487, "note": 63, "velocity": 118, "channel": 0}, {"type": "note_on", "time": 84, "note": 61, "velocity": 113, "channel": 0}, {"type": "note_off", "time": 141, "note": 61, "velocity": 113, "channel": 0}, {"type": "note_on", "time": 717, "note": 61, "velocity": 93, "channel": 0}, {"type": "note_off", "time": 113, "note": 61, "velocity": 93, "channel": 0}, {"type": "note_on", "time": 153, "note": 65, "velocity": 118, "channel": 0}, {"type": "note_off", "time": 268, "note": 65, "velocity": 118, "channel": 0}, {"type": "note_on", "time": 29, "note": 63, "velocity": 111, "channel": 0}, {"type": "note_off", "time": 192, "note": 63, "velocity": 111, "channel": 0}, {"type": "note_on", "time": 26, "note": 65, "velocity": 119, "channel": 0}, {"type": "note_off", "time": 304, "note": 65, "velocity": 119, "channel": 0}, {"type": "note_on", "time": 49, "note": 63, "velocity": 118, "channel": 0}, {"type": "note_off", "time": 222, "note": 63, "velocity": 118, "channel": 0}, {"type": "note_on", "time": 90, "note": 67, "velocity": 119, "channel": 0}, {"type": "note_off", "time": 4095, "note": 67, "velocity": 119, "channel": 0}, {"type": "note_on", "time": 89, "note": 67, "velocity": 113, "channel": 0}, {"type": "note_off", "time": 145, "note": 67, "velocity": 113, "channel": 0}, {"type": "note_on", "time": 135, "note": 70, "velocity": 112, "channel": 0}, {"type": "note_off", "time": 165, "note": 70, "velocity": 112, "channel": 0}, {"type": "note_on", "time": 122, "note": 72, "velocity": 118, "channel": 0}, {"type": "note_off", "time": 235, "note": 72, "velocity": 118, "channel": 0}, {"type": "note_on", "time": 74, "note": 72, "velocity": 115, "channel": 0}, {"type": "note_off", "time": 193, "note": 72, "velocity": 115, "channel": 0}, {"type": "note_on", "time": 41, "note": 72, "velocity": 112, "channel": 0}, {"type": "note_off", "time": 76, "note": 72, "velocity": 112, "channel": 0}, {"type": "note_on", "time": 11, "note": 70, "velocity": 115, "channel": 0}, {"type": "note_off", "time": 132, "note": 70, "velocity": 115, "channel": 0}, {"type": "note_on", "time": 109, "note": 72, "velocity": 116, "channel": 0}, {"type": "note_off", "time": 573, "note": 72, "velocity": 116, "channel": 0}, {"type": "note_on", "time": 13, "note": 70, "velocity": 115, "channel": 0}, {"type": "note_off", "time": 91, "note": 70, "velocity": 115, "channel": 0}, {"type": "note_on", "time": 11, "note": 68, "velocity": 115, "channel": 0}, {"type": "note_off", "time": 98, "note": 68, "velocity": 115, "channel": 0}, {"type": "note_on", "time": 0, "note": 66, "velocity": 109, "channel": 0}, {"type": "note_off", "time": 68, "note": 66, "velocity": 109, "channel": 0}, {"type": "note_on", "time": 1700, "note": 63, "velocity": 121, "channel": 0}, {"type": "note_off", "time": 371, "note": 63, "velocity": 121, "channel": 0}, {"type": "note_on", "time": 467, "note": 60, "velocity": 111, "channel": 0}, {"type": "note_off", "time": 371, "note": 60, "velocity": 111, "channel": 0}, {"type": "note_on", "time": 78, "note": 60, "velocity": 110, "channel": 0}, {"type": "note_off", "time": 110, "note": 60, "velocity": 110, "channel": 0}, {"type": "note_on", "time": 65, "note": 60, "velocity": 102, "channel": 0}, {"type": "note_off", "time": 221, "note": 60, "velocity": 102, "channel": 0}, {"type": "note_on", "time": 1152, "note": 67, "velocity": 98, "channel": 0}, {"type": "note_off", "time": 146, "note": 67, "velocity": 98, "channel": 0}, {"type": "note_on", "time": 131, "note": 70, "velocity": 119, "channel": 0}, {"type": "note_off", "time": 141, "note": 70, "velocity": 119, "channel": 0}, {"type": "note_on", "time": 162, "note": 72, "velocity": 115, "channel": 0}, {"type": "note_off", "time": 296, "note": 72, "velocity": 115, "channel": 0}, {"type": "note_on", "time": 14, "note": 72, "velocity": 116, "channel": 0}, {"type": "note_off", "time": 235, "note": 72, "velocity": 116, "channel": 0}, {"type": "note_on", "time": 14, "note": 70, "velocity": 115, "channel": 0}, {"type": "note_off", "time": 193, "note": 70, "velocity": 115, "channel": 0}, {"type": "note_on", "time": 119, "note": 72, "velocity": 115, "channel": 0}, {"type": "note_off", "time": 470, "note": 72, "velocity": 115, "channel": 0}, {"type": "note_on", "time": 6, "note": 71, "velocity": 117, "channel": 0}, {"type": "note_off", "time": 79, "note": 71, "velocity": 117, "channel": 0}, {"type": "note_on", "time": 19, "note": 69, "velocity": 118, "channel": 0}, {"type": "note_off", "time": 46, "note": 69, "velocity": 118, "channel": 0}, {"type": "note_on", "time": 3, "note": 66, "velocity": 116, "channel": 0}, {"type": "note_off", "time": 53, "note": 66, "velocity": 116, "channel": 0}, {"type": "note_on", "time": 33, "note": 63, "velocity": 109, "channel": 0}, {"type": "note_off", "time": 69, "note": 63, "velocity": 109, "channel": 0}, {"type": "note_on", "time": 1305, "note": 64, "velocity": 121, "channel": 0}, {"type": "note_off", "time": 162, "note": 64, "velocity": 121, "channel": 0}, {"type": "note_on", "time": 39, "note": 65, "velocity": 114, "channel": 0}, {"type": "note_off", "time": 921, "note": 65, "velocity": 114, "channel": 0}, {"type": "note_on", "time": 92, "note": 62, "velocity": 116, "channel": 0}, {"type": "note_off", "time": 427, "note": 62, "velocity": 116, "channel": 0}, {"type": "note_on", "time": 135, "note": 59, "velocity": 114, "channel": 0}, {"type": "note_off", "time": 292, "note": 59, "velocity": 114, "channel": 0}, {"type": "note_on", "time": 1567, "note": 72, "velocity": 116, "channel": 0}, {"type": "note_off", "time": 351, "note": 72, "velocity": 116, "channel": 0}, {"type": "note_on", "time": 3, "note": 71, "velocity": 115, "channel": 0}, {"type": "note_off", "time": 96, "note": 71, "velocity": 115, "channel": 0}, {"type": "note_on", "time": 3, "note": 70, "velocity": 115, "channel": 0}, {"type": "note_off", "time": 109, "note": 70, "velocity": 115, "channel": 0}, {"type": "note_on", "time": 33, "note": 69, "velocity": 112, "channel": 0}, {"type": "note_off", "time": 46, "note": 69, "velocity": 112, "channel": 0}, {"type": "note_on", "time": 39, "note": 67, "velocity": 106, "channel": 0}, {"type": "note_off", "time": 119, "note": 67, "velocity": 106, "channel": 0}, {"type": "note_on", "time": 649, "note": 60, "velocity": 115, "channel": 0}, {"type": "note_off", "time": 241, "note": 60, "velocity": 115, "channel": 0}, {"type": "note_on", "time": 9, "note": 59, "velocity": 116, "channel": 0}, {"type": "note_off", "time": 86, "note": 59, "velocity": 116, "channel": 0}, {"type": "note_on", "time": 23, "note": 58, "velocity": 108, "channel": 0}, {"type": "note_on", "time": 135, "note": 57, "velocity": 97, "channel": 0}, {"type": "note_off", "time": 0, "note": 58, "velocity": 108, "channel": 0}, {"type": "note_off", "time": 106, "note": 57, "velocity": 97, "channel": 0}, {"type": "note_on", "time": 563, "note": 48, "velocity": 110, "channel": 0}, {"type": "note_off", "time": 410, "note": 48, "velocity": 110, "channel": 0}, {"type": "note_on", "time": 132, "note": 51, "velocity": 111, "channel": 0}, {"type": "note_off", "time": 175, "note": 51, "velocity": 111, "channel": 0}, {"type": "note_on", "time": 109, "note": 55, "velocity": 111, "channel": 0}, {"type": "note_off", "time": 497, "note": 55, "velocity": 111, "channel": 0}, {"type": "note_on", "time": 132, "note": 51, "velocity": 118, "channel": 0}, {"type": "note_off", "time": 178, "note": 51, "velocity": 118, "channel": 0}, {"type": "note_on", "time": 56, "note": 53, "velocity": 111, "channel": 0}, {"type": "note_off", "time": 450, "note": 53, "velocity": 111, "channel": 0}, {"type": "note_on", "time": 132, "note": 51, "velocity": 115, "channel": 0}, {"type": "note_off", "time": 175, "note": 51, "velocity": 115, "channel": 0}, {"type": "note_on", "time": 659, "note": 51, "velocity": 117, "channel": 0}, {"type": "note_off", "time": 162, "note": 51, "velocity": 117, "channel": 0}, {"type": "note_on", "time": 79, "note": 55, "velocity": 117, "channel": 0}, {"type": "note_off", "time": 467, "note": 55, "velocity": 117, "channel": 0}, {"type": "note_on", "time": 159, "note": 51, "velocity": 114, "channel": 0}, {"type": "note_off", "time": 159, "note": 51, "velocity": 114, "channel": 0}, {"type": "note_on", "time": 59, "note": 53, "velocity": 108, "channel": 0}, {"type": "note_off", "time": 454, "note": 53, "velocity": 108, "channel": 0}, {"type": "note_on", "time": 125, "note": 53, "velocity": 112, "channel": 0}, {"type": "note_off", "time": 225, "note": 53, "velocity": 112, "channel": 0}, {"type": "note_on", "time": 169, "note": 51, "velocity": 114, "channel": 0}, {"type": "note_off", "time": 281, "note": 51, "velocity": 114, "channel": 0}, {"type": "note_on", "time": 238, "note": 48, "velocity": 109, "channel": 0}, {"type": "note_off", "time": 159, "note": 48, "velocity": 109, "channel": 0}, {"type": "note_on", "time": 215, "note": 53, "velocity": 111, "channel": 0}, {"type": "note_off", "time": 301, "note": 53, "velocity": 111, "channel": 0}, {"type": "note_on", "time": 245, "note": 55, "velocity": 117, "channel": 0}, {"type": "note_off", "time": 301, "note": 55, "velocity": 117, "channel": 0}, {"type": "note_on", "time": 231, "note": 58, "velocity": 113, "channel": 0}, {"type": "note_off", "time": 318, "note": 58, "velocity": 113, "channel": 0}, {"type": "note_on", "time": 228, "note": 60, "velocity": 113, "channel": 0}, {"type": "note_off", "time": 321, "note": 60, "velocity": 113, "channel": 0}, {"type": "note_on", "time": 205, "note": 63, "velocity": 118, "channel": 0}, {"type": "note_off", "time": 410, "note": 63, "velocity": 118, "channel": 0}, {"type": "note_on", "time": 66, "note": 67, "velocity": 119, "channel": 0}, {"type": "note_off", "time": 241, "note": 67, "velocity": 119, "channel": 0}, {"type": "note_on", "time": 29, "note": 65, "velocity": 116, "channel": 0}, {"type": "note_off", "time": 245, "note": 65, "velocity": 116, "channel": 0}, {"type": "note_on", "time": 112, "note": 63, "velocity": 119, "channel": 0}, {"type": "note_off", "time": 298, "note": 63, "velocity": 119, "channel": 0}, {"type": "note_on", "time": 46, "note": 62, "velocity": 117, "channel": 0}, {"type": "note_off", "time": 318, "note": 62, "velocity": 117, "channel": 0}, {"type": "note_on", "time": 245, "note": 60, "velocity": 116, "channel": 0}, {"type": "note_off", "time": 238, "note": 60, "velocity": 116, "channel": 0}, {"type": "note_on", "time": 182, "note": 55, "velocity": 117, "channel": 0}, {"type": "note_off", "time": 215, "note": 55, "velocity": 117, "channel": 0}, {"type": "note_on", "time": 56, "note": 50, "velocity": 112, "channel": 0}, {"type": "note_off", "time": 185, "note": 50, "velocity": 112, "channel": 0}, {"type": "note_on", "time": 76, "note": 48, "velocity": 113, "channel": 0}, {"type": "note_off", "time": 198, "note": 48, "velocity": 113, "channel": 0}, {"type": "note_on", "time": 23, "note": 44, "velocity": 119, "channel": 0}, {"type": "note_off", "time": 215, "note": 44, "velocity": 119, "channel": 0}, {"type": "note_on", "time": 86, "note": 43, "velocity": 111, "channel": 0}, {"type": "note_off", "time": 666, "note": 43, "velocity": 111, "channel": 0}, {"type": "end_of_track", "time": 0}]]}