{"ticks_per_beat": 192, "tracks": [[{"type": "track_name", "name": "Melody", "time": 0}, {"type": "set_tempo", "tempo": 294117, "time": 0}, {"type": "key_signature", "key": "F", "time": 0}, {"type": "time_signature", "numerator": 4, "denominator": 4, "clocks_per_click": 24, "notated_32nd_notes_per_beat": 8, "time": 0}, {"type": "note_on", "time": 3375, "note": 63, "velocity": 125, "channel": 0}, {"type": "note_off", "time": 32, "note": 63, "velocity": 125, "channel": 0}, {"type": "note_on", "time": 1, "note": 62, "velocity": 119, "channel": 0}, {"type": "note_off", "time": 21, "note": 62, "velocity": 119, "channel": 0}, {"type": "note_on", "time": 2, "note": 63, "velocity": 120, "channel": 0}, {"type": "note_off", "time": 29, "note": 63, "velocity": 120, "channel": 0}, {"type": "note_on", "time": 9, "note": 62, "velocity": 112, "channel": 0}, {"type": "note_off", "time": 108, "note": 62, "velocity": 112, "channel": 0}, {"type": "note_on", "time": 27, "note": 62, "velocity": 120, "channel": 0}, {"type": "note_off", "time": 38, "note": 62, "velocity": 120, "channel": 0}, {"type": "note_on", "time": 26, "note": 62, "velocity": 115, "channel": 0}, {"type": "note_off", "time": 109, "note": 62, "velocity": 115, "channel": 0}, {"type": "note_on", "time": 33, "note": 62, "velocity": 115, "channel": 0}, {"type": "note_off", "time": 20, "note": 62, "velocity": 115, "channel": 0}, {"type": "note_on", "time": 9, "note": 62, "velocity": 124, "channel": 0}, {"type": "note_off", "time": 23, "note": 62, "velocity": 124, "channel": 0}, {"type": "note_on", "time": 5, "note": 62, "velocity": 115, "channel": 0}, {"type": "note_off", "time": 104, "note": 62, "velocity": 115, "channel": 0}, {"type": "note_on", "time": 0, "note": 65, "velocity": 125, "channel": 0}, {"type": "note_off", "time": 71, "note": 65, "velocity": 125, "channel": 0}, {"type": "note_on", "time": 4, "note": 65, "velocity": 122, "channel": 0}, {"type": "note_off", "time": 161, "note": 65, "velocity": 122, "channel": 0}, {"type": "note_on", "time": 19, "note": 65, "velocity": 124, "channel": 0}, {"type": "note_off", "time": 137, "note": 65, "velocity": 124, "channel": 0}, {"type": "note_on", "time": 7, "note": 65, "velocity": 118, "channel": 0}, {"type": "note_off", "time": 180, "note": 65, "velocity": 118, "channel": 0}, {"type": "note_on", "time": 11, "note": 65, "velocity": 115, "channel": 0}, {"type": "note_off", "time": 192, "note": 65, "velocity": 115, "channel": 0}, {"type": "note_on", "time": 8, "note": 65, "velocity": 117, "channel": 0}, {"type": "note_off", "time": 264, "note": 65, "velocity": 117, "channel": 0}, {"type": "note_on", "time": 6, "note": 65, "velocity": 123, "channel": 0}, {"type": "note_off", "time": 91, "note": 65, "velocity": 123, "channel": 0}, {"type": "note_on", "time": 90, "note": 56, "velocity": 117, "channel": 0}, {"type": "note_off", "time": 119, "note": 56, "velocity": 117, "channel": 0}, {"type": "note_on", "time": 185, "note": 65, "velocity": 125, "channel": 0}, {"type": "note_off", "time": 109, "note": 65, "velocity": 125, "channel": 0}, {"type": "note_on", "time": 91, "note": 57, "velocity": 117, "channel": 0}, {"type": "note_off", "time": 114, "note": 57, "velocity": 117, "channel": 0}, {"type": "note_on", "time": 72, "note": 65, "velocity": 118, "channel": 0}, {"type": "note_off", "time": 134, "note": 65, "velocity": 118, "channel": 0}, {"type": "note_on", "time": 62, "note": 59, "velocity": 119, "channel": 0}, {"type": "note_off", "time": 84, "note": 59, "velocity": 119, "channel": 0}, {"type": "note_on", "time": 78, "note": 65, "velocity": 125, "channel": 0}, {"type": "note_off", "time": 90, "note": 65, "velocity": 125, "channel": 0}, {"type": "note_on", "time": 3, "note": 60, "velocity": 112, "channel": 0}, {"type": "note_off", "time": 131, "note": 60, "velocity": 112, "channel": 0}, {"type": "note_on", "time": 60, "note": 65, "velocity": 120, "channel": 0}, {"type": "note_off", "time": 121, "note": 65, "velocity": 120, "channel": 0}, {"type": "note_on", "time": 9, "note": 62, "velocity": 113, "channel": 0}, {"type": "note_off", "time": 115, "note": 62, "velocity": 113, "channel": 0}, {"type": "note_on", "time": 64, "note": 65, "velocity": 118, "channel": 0}, {"type": "note_off", "time": 166, "note": 65, "velocity": 118, "channel": 0}, {"type": "note_on", "time": 21, "note": 65, "velocity": 126, "channel": 0}, {"type": "note_off", "time": 59, "note": 65, "velocity": 126, "channel": 0}, {"type": "note_on", "time": 13, "note": 65, "velocity": 113, "channel": 0}, {"type": "note_off", "time": 117, "note": 65, "velocity": 113, "channel": 0}, {"type": "note_on", "time": 9, "note": 65, "velocity": 123, "channel": 0}, {"type": "note_off", "time": 62, "note": 65, "velocity": 123, "channel": 0}, {"type": "note_on", "time": 12, "note": 65, "velocity": 119, "channel": 0}, {"type": "note_off", "time": 200, "note": 65, "velocity": 119, "channel": 0}, {"type": "note_on", "time": 4, "note": 65, "velocity": 121, "channel": 0}, {"type": "note_off", "time": 113, "note": 65, "velocity": 121, "channel": 0}, {"type": "note_on", "time": 9, "note": 65, "velocity": 116, "channel": 0}, {"type": "note_off", "time": 60, "note": 65, "velocity": 116, "channel": 0}, {"type": "note_on", "time": 4, "note": 65, "velocity": 121, "channel": 0}, {"type": "note_off", "time": 147, "note": 65, "velocity": 121, "channel": 0}, {"type": "note_on", "time": 10, "note": 65, "velocity": 121, "channel": 0}, {"type": "note_off", "time": 131, "note": 65, "velocity": 121, "channel": 0}, {"type": "note_on", "time": 19, "note": 65, "velocity": 121, "channel": 0}, {"type": "note_off", "time": 64, "note": 65, "velocity": 121, "channel": 0}, {"type": "note_on", "time": 15, "note": 65, "velocity": 121, "channel": 0}, {"type": "note_off", "time": 93, "note": 65, "velocity": 121, "channel": 0}, {"type": "note_on", "time": 228, "note": 64, "velocity": 121, "channel": 0}, {"type": "note_off", "time": 90, "note": 64, "velocity": 121, "channel": 0}, {"type": "note_on", "time": 7, "note": 67, "velocity": 119, "channel": 0}, {"type": "note_off", "time": 126, "note": 67, "velocity": 119, "channel": 0}, {"type": "note_on", "time": 502, "note": 64, "velocity": 120, "channel": 0}, {"type": "note_off", "time": 85, "note": 64, "velocity": 120, "channel": 0}, {"type": "note_on", "time": 5, "note": 67, "velocity": 118, "channel": 0}, {"type": "note_off", "time": 118, "note": 67, "velocity": 118, "channel": 0}, {"type": "note_on", "time": 5, "note": 64, "velocity": 122, "channel": 0}, {"type": "note_off", "time": 91, "note": 64, "velocity": 122, "channel": 0}, {"type": "note_on", "time": 44, "note": 67, "velocity": 123, "channel": 0}, {"type": "note_off", "time": 117, "note": 67, "velocity": 123, "channel": 0}, {"type": "note_on", "time": 1, "note": 66, "velocity": 119, "channel": 0}, {"type": "note_off", "time": 96, "note": 66, "velocity": 119, "channel": 0}, {"type": "note_on", "time": 9, "note": 62, "velocity": 118, "channel": 0}, {"type": "note_off", "time": 86, "note": 62, "velocity": 118, "channel": 0}, {"type": "note_on", "time": 13, "note": 58, "velocity": 117, "channel": 0}, {"type": "note_off", "time": 75, "note": 58, "velocity": 117, "channel": 0}, {"type": "note_on", "time": 46, "note": 54, "velocity": 110, "channel": 0}, {"type": "note_off", "time": 41, "note": 54, "velocity": 110, "channel": 0}, {"type": "note_on", "time": 4, "note": 55, "velocity": 99, "channel": 0}, {"type": "note_off", "time": 61, "note": 55, "velocity": 99, "channel": 0}, {"type": "note_on", "time": 5, "note": 55, "velocity": 105, "channel": 0}, {"type": "note_off", "time": 59, "note": 55, "velocity": 105, "channel": 0}, {"type": "note_on", "time": 94, "note": 55, "velocity": 107, "channel": 0}, {"type": "note_off", "time": 133, "note": 55, "velocity": 107, "channel": 0}, {"type": "note_on", "time": 31, "note": 55, "velocity": 101, "channel": 0}, {"type": "note_off", "time": 105, "note": 55, "velocity": 101, "channel": 0}, {"type": "note_on", "time": 229, "note": 65, "velocity": 100, "channel": 0}, {"type": "note_off", "time": 62, "note": 65, "velocity": 100, "channel": 0}, {"type": "note_on", "time": 21, "note": 55, "velocity": 106, "channel": 0}, {"type": "note_off", "time": 70, "note": 55, "velocity": 106, "channel": 0}, {"type": "note_on", "time": 22, "note": 57, "velocity": 113, "channel": 0}, {"type": "note_off", "time": 78, "note": 57, "velocity": 113, "channel": 0}, {"type": "note_on", "time": 12, "note": 58, "velocity": 113, "channel": 0}, {"type": "note_off", "time": 85, "note": 58, "velocity": 113, "channel": 0}, {"type": "note_on", "time": 1, "note": 62, "velocity": 118, "channel": 0}, {"type": "note_off", "time": 75, "note": 62, "velocity": 118, "channel": 0}, {"type": "note_on", "time": 56, "note": 56, "velocity": 104, "channel": 0}, {"type": "note_off", "time": 61, "note": 56, "velocity": 104, "channel": 0}, {"type": "note_on", "time": 16, "note": 59, "velocity": 113, "channel": 0}, {"type": "note_off", "time": 70, "note": 59, "velocity": 113, "channel": 0}, {"type": "note_on", "time": 3, "note": 64, "velocity": 122, "channel": 0}, {"type": "note_off", "time": 106, "note": 64, "velocity": 122, "channel": 0}, {"type": "note_on", "time": 7, "note": 62, "velocity": 116, "channel": 0}, {"type": "note_off", "time": 66, "note": 62, "velocity": 116, "channel": 0}, {"type": "note_on", "time": 10, "note": 60, "velocity": 113, "channel": 0}, {"type": "note_off", "time": 89, "note": 60, "velocity": 113, "channel": 0}, {"type": "note_on", "time": 55, "note": 57, "velocity": 104, "channel": 0}, {"type": "note_off", "time": 32, "note": 57, "velocity": 104, "channel": 0}, {"type": "note_on", "time": 6, "note": 58, "velocity": 112, "channel": 0}, {"type": "note_off", "time": 116, "note": 58, "velocity": 112, "channel": 0}, {"type": "note_on", "time": 10, "note": 60, "velocity": 99, "channel": 0}, {"type": "note_off", "time": 240, "note": 60, "velocity": 99, "channel": 0}, {"type": "note_on", "time": 392, "note": 60, "velocity": 114, "channel": 0}, {"type": "note_off", "time": 40, "note": 60, "velocity": 114, "channel": 0}, {"type": "note_on", "time": 9, "note": 62, "velocity": 119, "channel": 0}, {"type": "note_off", "time": 41, "note": 62, "velocity": 119, "channel": 0}, {"type": "note_on", "time": 7, "note": 63, "velocity": 121, "channel": 0}, {"type": "note_off", "time": 39, "note": 63, "velocity": 121, "channel": 0}, {"type": "note_on", "time": 2, "note": 64, "velocity": 120, "channel": 0}, {"type": "note_off", "time": 37, "note": 64, "velocity": 120, "channel": 0}, {"type": "note_on", "time": 1, "note": 65, "velocity": 125, "channel": 0}, {"type": "note_off", "time": 61, "note": 65, "velocity": 125, "channel": 0}, {"type": "note_on", "time": 23, "note": 64, "velocity": 117, "channel": 0}, {"type": "note_off", "time": 50, "note": 64, "velocity": 117, "channel": 0}, {"type": "note_on", "time": 7, "note": 62, "velocity": 116, "channel": 0}, {"type": "note_off", "time": 51, "note": 62, "velocity": 116, "channel": 0}, {"type": "note_on", "time": 31, "note": 60, "velocity": 111, "channel": 0}, {"type": "note_off", "time": 42, "note": 60, "velocity": 111, "channel": 0}, {"type": "note_on", "time": 5, "note": 58, "velocity": 107, "channel": 0}, {"type": "note_off", "time": 47, "note": 58, "velocity": 107, "channel": 0}, {"type": "note_on", "time": 6, "note": 57, "velocity": 104, "channel": 0}, {"type": "note_off", "time": 46, "note": 57, "velocity": 104, "channel": 0}, {"type": "note_on", "time": 33, "note": 55, "velocity": 101, "channel": 0}, {"type": "note_off", "time": 49, "note": 55, "velocity": 101, "channel": 0}, {"type": "note_on", "time": 112, "note": 62, "velocity": 115, "channel": 0}, {"type": "note_off", "time": 372, "note": 62, "velocity": 115, "channel": 0}, {"type": "note_on", "time": 42, "note": 60, "velocity": 116, "channel": 0}, {"type": "note_off", "time": 37, "note": 60, "velocity": 116, "channel": 0}, {"type": "note_on", "time": 65, "note": 63, "velocity": 118, "channel": 0}, {"type": "note_off", "time": 70, "note": 63, "velocity": 118, "channel": 0}, {"type": "note_on", "time": 20, "note": 61, "velocity": 113, "channel": 0}, {"type": "note_off", "time": 32, "note": 61, "velocity": 113, "channel": 0}, {"type": "note_on", "time": 32, "note": 58, "velocity": 113, "channel": 0}, {"type": "note_off", "time": 44, "note": 58, "velocity": 113, "channel": 0}, {"type": "note_on", "time": 5, "note": 57, "velocity": 117, "channel": 0}, {"type": "note_off", "time": 32, "note": 57, "velocity": 117, "channel": 0}, {"type": "note_on", "time": 23, "note": 55, "velocity": 114, "channel": 0}, {"type": "note_off", "time": 46, "note": 55, "velocity": 114, "channel": 0}, {"type": "note_on", "time": 12, "note": 55, "velocity": 110, "channel": 0}, {"type": "note_off", "time": 39, "note": 55, "velocity": 110, "channel": 0}, {"type": "note_on", "time": 17, "note": 52, "velocity": 109, "channel": 0}, {"type": "note_off", "time": 63, "note": 52, "velocity": 109, "channel": 0}, {"type": "note_on", "time": 17, "note": 50, "velocity": 114, "channel": 0}, {"type": "note_off", "time": 97, "note": 50, "velocity": 114, "channel": 0}, {"type": "note_on", "time": 25, "note": 55, "velocity": 117, "channel": 0}, {"type": "note_off", "time": 74, "note": 55, "velocity": 117, "channel": 0}, {"type": "note_on", "time": 9, "note": 60, "velocity": 113, "channel": 0}, {"type": "note_off", "time": 118, "note": 60, "velocity": 113, "channel": 0}, {"type": "note_on", "time": 3, "note": 65, "velocity": 121, "channel": 0}, {"type": "note_off", "time": 146, "note": 65, "velocity": 121, "channel": 0}, {"type": "note_on", "time": 18, "note": 67, "velocity": 119, "channel": 0}, {"type": "note_off", "time": 117, "note": 67, "velocity": 119, "channel": 0}, {"type": "note_on", "time": 70, "note": 65, "velocity": 122, "channel": 0}, {"type": "note_off", "time": 90, "note": 65, "velocity": 122, "channel": 0}, {"type": "note_on", "time": 90, "note": 67, "velocity": 122, "channel": 0}, {"type": "note_off", "time": 89, "note": 67, "velocity": 122, "channel": 0}, {"type": "note_on", "time": 9, "note": 65, "velocity": 123, "channel": 0}, {"type": "note_off", "time": 108, "note": 65, "velocity": 123, "channel": 0}, {"type": "note_on", "time": 21, "note": 64, "velocity": 102, "channel": 0}, {"type": "note_off", "time": 37, "note": 64, "velocity": 102, "channel": 0}, {"type": "note_on", "time": 23, "note": 66, "velocity": 123, "channel": 0}, {"type": "note_off", "time": 110, "note": 66, "velocity": 123, "channel": 0}, {"type": "note_on", "time": 2, "note": 64, "velocity": 122, "channel": 0}, {"type": "note_off", "time": 97, "note": 64, "velocity": 122, "channel": 0}, {"type": "note_on", "time": 2, "note": 60, "velocity": 118, "channel": 0}, {"type": "note_off", "time": 91, "note": 60, "velocity": 118, "channel": 0}, {"type": "note_on", "time": 0, "note": 56, "velocity": 118, "channel": 0}, {"type": "note_off", "time": 93, "note": 56, "velocity": 118, "channel": 0}, {"type": "note_on", "time": 19, "note": 51, "velocity": 114, "channel": 0}, {"type": "note_off", "time": 73, "note": 51, "velocity": 114, "channel": 0}, {"type": "note_on", "time": 27, "note": 48, "velocity": 105, "channel": 0}, {"type": "note_off", "time": 94, "note": 48, "velocity": 105, "channel": 0}, {"type": "note_on", "time": 6, "note": 50, "velocity": 110, "channel": 0}, {"type": "note_off", "time": 73, "note": 50, "velocity": 110, "channel": 0}, {"type": "note_on", "time": 18, "note": 55, "velocity": 122, "channel": 0}, {"type": "note_off", "time": 76, "note": 55, "velocity": 122, "channel": 0}, {"type": "note_on", "time": 10, "note": 60, "velocity": 108, "channel": 0}, {"type": "note_off", "time": 87, "note": 60, "velocity": 108, "channel": 0}, {"type": "note_on", "time": 81, "note": 62, "velocity": 115, "channel": 0}, {"type": "note_off", "time": 178, "note": 62, "velocity": 115, "channel": 0}, {"type": "note_on", "time": 12, "note": 60, "velocity": 115, "channel": 0}, {"type": "note_off", "time": 119, "note": 60, "velocity": 115, "channel": 0}, {"type": "note_on", "time": 5, "note": 56, "velocity": 117, "channel": 0}, {"type": "note_off", "time": 83, "note": 56, "velocity": 117, "channel": 0}, {"type": "note_on", "time": 650, "note": 65, "velocity": 124, "channel": 0}, {"type": "note_off", "time": 74, "note": 65, "velocity": 124, "channel": 0}, {"type": "note_on", "time": 7, "note": 62, "velocity": 111, "channel": 0}, {"type": "note_off", "time": 86, "note": 62, "velocity": 111, "channel": 0}, {"type": "note_on", "time": 103, "note": 58, "velocity": 112, "channel": 0}, {"type": "note_off", "time": 168, "note": 58, "velocity": 112, "channel": 0}, {"type": "note_on", "time": 12, "note": 58, "velocity": 118, "channel": 0}, {"type": "note_off", "time": 130, "note": 58, "velocity": 118, "channel": 0}, {"type": "note_on", "time": 60, "note": 60, "velocity": 117, "channel": 0}, {"type": "note_off", "time": 122, "note": 60, "velocity": 117, "channel": 0}, {"type": "note_on", "time": 3, "note": 57, "velocity": 110, "channel": 0}, {"type": "note_off", "time": 63, "note": 57, "velocity": 110, "channel": 0}, {"type": "note_on", "time": 549, "note": 57, "velocity": 108, "channel": 0}, {"type": "note_off", "time": 125, "note": 57, "velocity": 108, "channel": 0}, {"type": "note_on", "time": 6, "note": 58, "velocity": 109, "channel": 0}, {"type": "note_off", "time": 67, "note": 58, "velocity": 109, "channel": 0}, {"type": "note_on", "time": 15, "note": 61, "velocity": 114, "channel": 0}, {"type": "note_off", "time": 95, "note": 61, "velocity": 114, "channel": 0}, {"type": "note_on", "time": 13, "note": 63, "velocity": 124, "channel": 0}, {"type": "note_off", "time": 80, "note": 63, "velocity": 124, "channel": 0}, {"type": "note_on", "time": 1, "note": 64, "velocity": 121, "channel": 0}, {"type": "note_off", "time": 187, "note": 64, "velocity": 121, "channel": 0}, {"type": "note_on", "time": 9, "note": 65, "velocity": 123, "channel": 0}, {"type": "note_off", "time": 135, "note": 65, "velocity": 123, "channel": 0}, {"type": "note_on", "time": 65, "note": 62, "velocity": 116, "channel": 0}, {"type": "note_off", "time": 116, "note": 62, "velocity": 116, "channel": 0}, {"type": "note_on", "time": 6, "note": 59, "velocity": 118, "channel": 0}, {"type": "note_off", "time": 29, "note": 59, "velocity": 118, "channel": 0}, {"type": "note_on", "time": 410, "note": 60, "velocity": 98, "channel": 0}, {"type": "note_off", "time": 102, "note": 60, "velocity": 98, "channel": 0}, {"type": "note_on", "time": 13, "note": 62, "velocity": 115, "channel": 0}, {"type": "note_off", "time": 75, "note": 62, "velocity": 115, "channel": 0}, {"type": "note_on", "time": 29, "note": 64, "velocity": 120, "channel": 0}, {"type": "note_off", "time": 79, "note": 64, "velocity": 120, "channel": 0}, {"type": "note_on", "time": 5, "note": 65, "velocity": 123, "channel": 0}, {"type": "note_off", "time": 76, "note": 65, "velocity": 123, "channel": 0}, {"type": "note_on", "time": 5, "note": 67, "velocity": 122, "channel": 0}, {"type": "note_off", "time": 109, "note": 67, "velocity": 122, "channel": 0}, {"type": "note_on", "time": 10, "note": 69, "velocity": 120, "channel": 0}, {"type": "note_off", "time": 235, "note": 69, "velocity": 120, "channel": 0}, {"type": "note_on", "time": 47, "note": 63, "velocity": 106, "channel": 0}, {"type": "note_off", "time": 73, "note": 63, "velocity": 106, "channel": 0}, {"type": "note_on", "time": 98, "note": 62, "velocity": 116, "channel": 0}, {"type": "note_off", "time": 110, "note": 62, "velocity": 116, "channel": 0}, {"type": "note_on", "time": 24, "note": 65, "velocity": 119, "channel": 0}, {"type": "note_off", "time": 66, "note": 65, "velocity": 119, "channel": 0}, {"type": "note_on", "time": 386, "note": 62, "velocity": 117, "channel": 0}, {"type": "note_off", "time": 95, "note": 62, "velocity": 117, "channel": 0}, {"type": "note_on", "time": 10, "note": 64, "velocity": 124, "channel": 0}, {"type": "note_off", "time": 69, "note": 64, "velocity": 124, "channel": 0}, {"type": "note_on", "time": 23, "note": 65, "velocity": 121, "channel": 0}, {"type": "note_off", "time": 93, "note": 65, "velocity": 121, "channel": 0}, {"type": "note_on", "time": 10, "note": 67, "velocity": 124, "channel": 0}, {"type": "note_off", "time": 82, "note": 67, "velocity": 124, "channel": 0}, {"type": "note_on", "time": 9, "note": 67, "velocity": 123, "channel": 0}, {"type": "note_off", "time": 102, "note": 67, "velocity": 123, "channel": 0}, {"type": "note_on", "time": 63, "note": 69, "velocity": 121, "channel": 0}, {"type": "note_off", "time": 118, "note": 69, "velocity": 121, "channel": 0}, {"type": "note_on", "time": 30, "note": 69, "velocity": 121, "channel": 0}, {"type": "note_off", "time": 113, "note": 69, "velocity": 121, "channel": 0}, {"type": "note_on", "time": 8, "note": 70, "velocity": 117, "channel": 0}, {"type": "note_off", "time": 2080, "note": 70, "velocity": 117, "channel": 0}, {"type": "note_on", "time": 39, "note": 70, "velocity": 120, "channel": 0}, {"type": "note_off", "time": 69, "note": 70, "velocity": 120, "channel": 0}, {"type": "note_on", "time": 16, "note": 69, "velocity": 119, "channel": 0}, {"type": "note_off", "time": 68, "note": 69, "velocity": 119, "channel": 0}, {"type": "note_on", "time": 7, "note": 66, "velocity": 122, "channel": 0}, {"type": "note_off", "time": 38, "note": 66, "velocity": 122, "channel": 0}, {"type": "note_on", "time": 23, "note": 61, "velocity": 118, "channel": 0}, {"type": "note_off", "time": 34, "note": 61, "velocity": 118, "channel": 0}, {"type": "note_on", "time": 68, "note": 58, "velocity": 112, "channel": 0}, {"type": "note_off", "time": 52, "note": 58, "velocity": 112, "channel": 0}, {"type": "note_on", "time": 56, "note": 57, "velocity": 117, "channel": 0}, {"type": "note_off", "time": 53, "note": 57, "velocity": 117, "channel": 0}, {"type": "note_on", "time": 22, "note": 53, "velocity": 116, "channel": 0}, {"type": "note_off", "time": 70, "note": 53, "velocity": 116, "channel": 0}, {"type": "note_on", "time": 40, "note": 51, "velocity": 105, "channel": 0}, {"type": "note_off", "time": 63, "note": 51, "velocity": 105, "channel": 0}, {"type": "note_on", "time": 108, "note": 52, "velocity": 122, "channel": 0}, {"type": "note_off", "time": 32, "note": 52, "velocity": 122, "channel": 0}, {"type": "note_on", "time": 4, "note": 53, "velocity": 111, "channel": 0}, {"type": "note_off", "time": 161, "note": 53, "velocity": 111, "channel": 0}, {"type": "note_on", "time": 25, "note": 53, "velocity": 113, "channel": 0}, {"type": "note_off", "time": 31, "note": 53, "velocity": 113, "channel": 0}, {"type": "note_on", "time": 27, "note": 58, "velocity": 117, "channel": 0}, {"type": "note_off", "time": 99, "note": 58, "velocity": 117, "channel": 0}, {"type": "note_on", "time": 36, "note": 56, "velocity": 104, "channel": 0}, {"type": "note_off", "time": 102, "note": 56, "velocity": 104, "channel": 0}, {"type": "note_on", "time": 715, "note": 64, "velocity": 113, "channel": 0}, {"type": "note_off", "time": 49, "note": 64, "velocity": 113, "channel": 0}, {"type": "note_on", "time": 2, "note": 65, "velocity": 113, "channel": 0}, {"type": "note_off", "time": 47, "note": 65, "velocity": 113, "channel": 0}, {"type": "note_on", "time": 42, "note": 66, "velocity": 121, "channel": 0}, {"type": "note_off", "time": 32, "note": 66, "velocity": 121, "channel": 0}, {"type": "note_on", "time": 2, "note": 67, "velocity": 125, "channel": 0}, {"type": "note_off", "time": 38, "note": 67, "velocity": 125, "channel": 0}, {"type": "note_on", "time": 2, "note": 68, "velocity": 127, "channel": 0}, {"type": "note_off", "time": 23, "note": 68, "velocity": 127, "channel": 0}, {"type": "note_on", "time": 2, "note": 67, "velocity": 118, "channel": 0}, {"type": "note_off", "time": 22, "note": 67, "velocity": 118, "channel": 0}, {"type": "note_on", "time": 2, "note": 66, "velocity": 122, "channel": 0}, {"type": "note_off", "time": 42, "note": 66, "velocity": 122, "channel": 0}, {"type": "note_on", "time": 3, "note": 65, "velocity": 124, "channel": 0}, {"type": "note_off", "time": 61, "note": 65, "velocity": 124, "channel": 0}, {"type": "note_on", "time": 9, "note": 64, "velocity": 120, "channel": 0}, {"type": "note_off", "time": 75, "note": 64, "velocity": 120, "channel": 0}, {"type": "note_on", "time": 244, "note": 64, "velocity": 121, "channel": 0}, {"type": "note_off", "time": 87, "note": 64, "velocity": 121, "channel": 0}, {"type": "note_on", "time": 3, "note": 62, "velocity": 118, "channel": 0}, {"type": "note_off", "time": 99, "note": 62, "velocity": 118, "channel": 0}, {"type": "note_on", "time": 5, "note": 57, "velocity": 118, "channel": 0}, {"type": "note_off", "time": 85, "note": 57, "velocity": 118, "channel": 0}, {"type": "note_on", "time": 68, "note": 52, "velocity": 119, "channel": 0}, {"type": "note_off", "time": 79, "note": 52, "velocity": 119, "channel": 0}, {"type": "note_on", "time": 14, "note": 49, "velocity": 103, "channel": 0}, {"type": "note_off", "time": 87, "note": 49, "velocity": 103, "channel": 0}, {"type": "note_on", "time": 27, "note": 51, "velocity": 117, "channel": 0}, {"type": "note_off", "time": 64, "note": 51, "velocity": 117, "channel": 0}, {"type": "note_on", "time": 15, "note": 56, "velocity": 118, "channel": 0}, {"type": "note_off", "time": 73, "note": 56, "velocity": 118, "channel": 0}, {"type": "note_on", "time": 28, "note": 63, "velocity": 126, "channel": 0}, {"type": "note_off", "time": 81, "note": 63, "velocity": 126, "channel": 0}, {"type": "note_on", "time": 10, "note": 61, "velocity": 116, "channel": 0}, {"type": "note_off", "time": 93, "note": 61, "velocity": 116, "channel": 0}, {"type": "note_on", "time": 76, "note": 61, "velocity": 104, "channel": 0}, {"type": "note_off", "time": 13, "note": 61, "velocity": 104, "channel": 0}, {"type": "note_on", "time": 3, "note": 62, "velocity": 120, "channel": 0}, {"type": "note_off", "time": 87, "note": 62, "velocity": 120, "channel": 0}, {"type": "note_on", "time": 4, "note": 60, "velocity": 119, "channel": 0}, {"type": "note_off", "time": 55, "note": 60, "velocity": 119, "channel": 0}, {"type": "note_on", "time": 42, "note": 55, "velocity": 114, "channel": 0}, {"type": "note_off", "time": 85, "note": 55, "velocity": 114, "channel": 0}, {"type": "note_on", "time": 22, "note": 50, "velocity": 116, "channel": 0}, {"type": "note_off", "time": 53, "note": 50, "velocity": 116, "channel": 0}, {"type": "note_on", "time": 59, "note": 48, "velocity": 106, "channel": 0}, {"type": "note_off", "time": 71, "note": 48, "velocity": 106, "channel": 0}, {"type": "note_on", "time": 21, "note": 50, "velocity": 110, "channel": 0}, {"type": "note_off", "time": 59, "note": 50, "velocity": 110, "channel": 0}, {"type": "note_on", "time": 25, "note": 55, "velocity": 106, "channel": 0}, {"type": "note_off", "time": 78, "note": 55, "velocity": 106, "channel": 0}, {"type": "note_on", "time": 36, "note": 60, "velocity": 117, "channel": 0}, {"type": "note_off", "time": 71, "note": 60, "velocity": 117, "channel": 0}, {"type": "note_on", "time": 35, "note": 61, "velocity": 114, "channel": 0}, {"type": "note_off", "time": 99, "note": 61, "velocity": 114, "channel": 0}, {"type": "note_on", "time": 62, "note": 59, "velocity": 116, "channel": 0}, {"type": "note_off", "time": 89, "note": 59, "velocity": 116, "channel": 0}, {"type": "note_on", "time": 8, "note": 54, "velocity": 117, "channel": 0}, {"type": "note_off", "time": 83, "note": 54, "velocity": 117, "channel": 0}, {"type": "note_on", "time": 27, "note": 49, "velocity": 112, "channel": 0}, {"type": "note_off", "time": 81, "note": 49, "velocity": 112, "channel": 0}, {"type": "note_on", "time": 11, "note": 47, "velocity": 114, "channel": 0}, {"type": "note_off", "time": 73, "note": 47, "velocity": 114, "channel": 0}, {"type": "note_on", "time": 13, "note": 48, "velocity": 106, "channel": 0}, {"type": "note_off", "time": 263, "note": 48, "velocity": 106, "channel": 0}, {"type": "note_on", "time": 9, "note": 50, "velocity": 109, "channel": 0}, {"type": "note_off", "time": 70, "note": 50, "velocity": 109, "channel": 0}, {"type": "note_on", "time": 22, "note": 52, "velocity": 111, "channel": 0}, {"type": "note_off", "time": 90, "note": 52, "velocity": 111, "channel": 0}, {"type": "note_on", "time": 23, "note": 53, "velocity": 113, "channel": 0}, {"type": "note_off", "time": 100, "note": 53, "velocity": 113, "channel": 0}, {"type": "note_on", "time": 1, "note": 55, "velocity": 111, "channel": 0}, {"type": "note_off", "time": 43, "note": 55, "velocity": 111, "channel": 0}, {"type": "note_on", "time": 35, "note": 57, "velocity": 114, "channel": 0}, {"type": "note_off", "time": 80, "note": 57, "velocity": 114, "channel": 0}, {"type": "note_on", "time": 39, "note": 58, "velocity": 111, "channel": 0}, {"type": "note_off", "time": 67, "note": 58, "velocity": 111, "channel": 0}, {"type": "note_on", "time": 31, "note": 60, "velocity": 117, "channel": 0}, {"type": "note_off", "time": 80, "note": 60, "velocity": 117, "channel": 0}, {"type": "note_on", "time": 87, "note": 59, "velocity": 118, "channel": 0}, {"type": "note_off", "time": 58, "note": 59, "velocity": 118, "channel": 0}, {"type": "note_on", "time": 39, "note": 58, "velocity": 111, "channel": 0}, {"type": "note_off", "time": 64, "note": 58, "velocity": 111, "channel": 0}, {"type": "note_on", "time": 20, "note": 57, "velocity": 116, "channel": 0}, {"type": "note_off", "time": 74, "note": 57, "velocity": 116, "channel": 0}, {"type": "note_on", "time": 36, "note": 55, "velocity": 112, "channel": 0}, {"type": "note_off", "time": 67, "note": 55, "velocity": 112, "channel": 0}, {"type": "note_on", "time": 17, "note": 53, "velocity": 116, "channel": 0}, {"type": "note_off", "time": 65, "note": 53, "velocity": 116, "channel": 0}, {"type": "note_on", "time": 26, "note": 52, "velocity": 107, "channel": 0}, {"type": "note_off", "time": 81, "note": 52, "velocity": 107, "channel": 0}, {"type": "note_on", "time": 20, "note": 56, "velocity": 110, "channel": 0}, {"type": "note_off", "time": 44, "note": 56, "velocity": 110, "channel": 0}, {"type": "note_on", "time": 129, "note": 62, "velocity": 120, "channel": 0}, {"type": "note_off", "time": 101, "note": 62, "velocity": 120, "channel": 0}, {"type": "note_on", "time": 8, "note": 60, "velocity": 109, "channel": 0}, {"type": "note_off", "time": 76, "note": 60, "velocity": 109, "channel": 0}, {"type": "note_on", "time": 12, "note": 58, "velocity": 118, "channel": 0}, {"type": "note_off", "time": 66, "note": 58, "velocity": 118, "channel": 0}, {"type": "note_on", "time": 9, "note": 57, "velocity": 103, "channel": 0}, {"type": "note_off", "time": 70, "note": 57, "velocity": 103, "channel": 0}, {"type": "note_on", "time": 627, "note": 59, "velocity": 114, "channel": 0}, {"type": "note_off", "time": 43, "note": 59, "velocity": 114, "channel": 0}, {"type": "note_on", "time": 7, "note": 54, "velocity": 104, "channel": 0}, {"type": "note_off", "time": 25, "note": 54, "velocity": 104, "channel": 0}, {"type": "note_on", "time": 15, "note": 56, "velocity": 101, "channel": 0}, {"type": "note_off", "time": 41, "note": 56, "velocity": 101, "channel": 0}, {"type": "note_on", "time": 9, "note": 58, "velocity": 95, "channel": 0}, {"type": "note_off", "time": 31, "note": 58, "velocity": 95, "channel": 0}, {"type": "note_on", "time": 12, "note": 57, "velocity": 119, "channel": 0}, {"type": "note_off", "time": 65, "note": 57, "velocity": 119, "channel": 0}, {"type": "note_on", "time": 19, "note": 58, "velocity": 119, "channel": 0}, {"type": "note_off", "time": 67, "note": 58, "velocity": 119, "channel": 0}, {"type": "note_on", "time": 36, "note": 61, "velocity": 119, "channel": 0}, {"type": "note_off", "time": 79, "note": 61, "velocity": 119, "channel": 0}, {"type": "note_on", "time": 5, "note": 62, "velocity": 118, "channel": 0}, {"type": "note_off", "time": 71, "note": 62, "velocity": 118, "channel": 0}, {"type": "note_on", "time": 31, "note": 64, "velocity": 123, "channel": 0}, {"type": "note_off", "time": 71, "note": 64, "velocity": 123, "channel": 0}, {"type": "note_on", "time": 23, "note": 65, "velocity": 122, "channel": 0}, {"type": "note_off", "time": 76, "note": 65, "velocity": 122, "channel": 0}, {"type": "note_on", "time": 18, "note": 67, "velocity": 120, "channel": 0}, {"type": "note_off", "time": 78, "note": 67, "velocity": 120, "channel": 0}, {"type": "note_on", "time": 23, "note": 69, "velocity": 123, "channel": 0}, {"type": "note_off", "time": 103, "note": 69, "velocity": 123, "channel": 0}, {"type": "note_on", "time": 13, "note": 72, "velocity": 121, "channel": 0}, {"type": "note_off", "time": 252, "note": 72, "velocity": 121, "channel": 0}, {"type": "note_on", "time": 8, "note": 70, "velocity": 119, "channel": 0}, {"type": "note_off", "time": 120, "note": 70, "velocity": 119, "channel": 0}, {"type": "note_on", "time": 727, "note": 72, "velocity": 125, "channel": 0}, {"type": "note_off", "time": 36, "note": 72, "velocity": 125, "channel": 0}, {"type": "note_on", "time": 11, "note": 74, "velocity": 121, "channel": 0}, {"type": "note_off", "time": 69, "note": 74, "velocity": 121, "channel": 0}, {"type": "note_on", "time": 150, "note": 72, "velocity": 121, "channel": 0}, {"type": "note_off", "time": 122, "note": 72, "velocity": 121, "channel": 0}, {"type": "note_on", "time": 69, "note": 70, "velocity": 122, "channel": 0}, {"type": "note_off", "time": 121, "note": 70, "velocity": 122, "channel": 0}, {"type": "note_on", "time": 11, "note": 68, "velocity": 119, "channel": 0}, {"type": "note_off", "time": 95, "note": 68, "velocity": 119, "channel": 0}, {"type": "note_on", "time": 58, "note": 69, "velocity": 112, "channel": 0}, {"type": "note_off", "time": 17, "note": 69, "velocity": 112, "channel": 0}, {"type": "note_on", "time": 1, "note": 70, "velocity": 122, "channel": 0}, {"type": "note_off", "time": 97, "note": 70, "velocity": 122, "channel": 0}, {"type": "note_on", "time": 30, "note": 69, "velocity": 98, "channel": 0}, {"type": "note_off", "time": 9, "note": 69, "velocity": 98, "channel": 0}, {"type": "note_on", "time": 0, "note": 70, "velocity": 121, "channel": 0}, {"type": "note_off", "time": 111, "note": 70, "velocity": 121, "channel": 0}, {"type": "note_on", "time": 5, "note": 68, "velocity": 124, "channel": 0}, {"type": "note_off", "time": 136, "note": 68, "velocity": 124, "channel": 0}, {"type": "note_on", "time": 28, "note": 65, "velocity": 117, "channel": 0}, {"type": "note_off", "time": 405, "note": 65, "velocity": 117, "channel": 0}, {"type": "note_on", "time": 166, "note": 65, "velocity": 125, "channel": 0}, {"type": "note_off", "time": 79, "note": 65, "velocity": 125, "channel": 0}, {"type": "note_on", "time": 16, "note": 64, "velocity": 124, "channel": 0}, {"type": "note_off", "time": 107, "note": 64, "velocity": 124, "channel": 0}, {"type": "note_on", "time": 44, "note": 69, "velocity": 124, "channel": 0}, {"type": "note_off", "time": 115, "note": 69, "velocity": 124, "channel": 0}, {"type": "note_on", "time": 13, "note": 65, "velocity": 123, "channel": 0}, {"type": "note_off", "time": 105, "note": 65, "velocity": 123, "channel": 0}, {"type": "note_on", "time": 22, "note": 62, "velocity": 116, "channel": 0}, {"type": "note_off", "time": 95, "note": 62, "velocity": 116, "channel": 0}, {"type": "note_on", "time": 52, "note": 65, "velocity": 118, "channel": 0}, {"type": "note_off", "time": 106, "note": 65, "velocity": 118, "channel": 0}, {"type": "note_on", "time": 8, "note": 62, "velocity": 115, "channel": 0}, {"type": "note_off", "time": 54, "note": 62, "velocity": 115, "channel": 0}, {"type": "note_on", "time": 44, "note": 63, "velocity": 125, "channel": 0}, {"type": "note_off", "time": 89, "note": 63, "velocity": 125, "channel": 0}, {"type": "note_on", "time": 19, "note": 61, "velocity": 117, "channel": 0}, {"type": "note_off", "time": 59, "note": 61, "velocity": 117, "channel": 0}, {"type": "note_on", "time": 38, "note": 56, "velocity": 116, "channel": 0}, {"type": "note_off", "time": 97, "note": 56, "velocity": 116, "channel": 0}, {"type": "note_on", "time": 19, "note": 53, "velocity": 109, "channel": 0}, {"type": "note_off", "time": 66, "note": 53, "velocity": 109, "channel": 0}, {"type": "note_on", "time": 4, "note": 53, "velocity": 110, "channel": 0}, {"type": "note_off", "time": 56, "note": 53, "velocity": 110, "channel": 0}, {"type": "note_on", "time": 1, "note": 55, "velocity": 105, "channel": 0}, {"type": "note_off", "time": 50, "note": 55, "velocity": 105, "channel": 0}, {"type": "note_on", "time": 5, "note": 55, "velocity": 111, "channel": 0}, {"type": "note_off", "time": 222, "note": 55, "velocity": 111, "channel": 0}, {"type": "note_on", "time": 44, "note": 55, "velocity": 110, "channel": 0}, {"type": "note_off", "time": 53, "note": 55, "velocity": 110, "channel": 0}, {"type": "note_on", "time": 7, "note": 56, "velocity": 113, "channel": 0}, {"type": "note_off", "time": 41, "note": 56, "velocity": 113, "channel": 0}, {"type": "note_on", "time": 17, "note": 58, "velocity": 113, "channel": 0}, {"type": "note_off", "time": 53, "note": 58, "velocity": 113, "channel": 0}, {"type": "note_on", "time": 25, "note": 60, "velocity": 119, "channel": 0}, {"type": "note_off", "time": 41, "note": 60, "velocity": 119, "channel": 0}, {"type": "note_on", "time": 9, "note": 62, "velocity": 122, "channel": 0}, {"type": "note_off", "time": 48, "note": 62, "velocity": 122, "channel": 0}, {"type": "note_on", "time": 19, "note": 64, "velocity": 118, "channel": 0}, {"type": "note_off", "time": 54, "note": 64, "velocity": 118, "channel": 0}, {"type": "note_on", "time": 3, "note": 65, "velocity": 124, "channel": 0}, {"type": "note_off", "time": 58, "note": 65, "velocity": 124, "channel": 0}, {"type": "note_on", "time": 299, "note": 64, "velocity": 126, "channel": 0}, {"type": "note_off", "time": 59, "note": 64, "velocity": 126, "channel": 0}, {"type": "note_on", "time": 1, "note": 65, "velocity": 122, "channel": 0}, {"type": "note_off", "time": 57, "note": 65, "velocity": 122, "channel": 0}, {"type": "note_on", "time": 7, "note": 64, "velocity": 123, "channel": 0}, {"type": "note_off", "time": 57, "note": 64, "velocity": 123, "channel": 0}, {"type": "note_on", "time": 14, "note": 62, "velocity": 112, "channel": 0}, {"type": "note_off", "time": 59, "note": 62, "velocity": 112, "channel": 0}, {"type": "note_on", "time": 6, "note": 64, "velocity": 115, "channel": 0}, {"type": "note_off", "time": 40, "note": 64, "velocity": 115, "channel": 0}, {"type": "note_on", "time": 31, "note": 62, "velocity": 113, "channel": 0}, {"type": "note_off", "time": 43, "note": 62, "velocity": 113, "channel": 0}, {"type": "note_on", "time": 25, "note": 60, "velocity": 110, "channel": 0}, {"type": "note_off", "time": 35, "note": 60, "velocity": 110, "channel": 0}, {"type": "note_on", "time": 50, "note": 61, "velocity": 115, "channel": 0}, {"type": "note_off", "time": 38, "note": 61, "velocity": 115, "channel": 0}, {"type": "note_on", "time": 33, "note": 58, "velocity": 117, "channel": 0}, {"type": "note_off", "time": 37, "note": 58, "velocity": 117, "channel": 0}, {"type": "note_on", "time": 244, "note": 62, "velocity": 120, "channel": 0}, {"type": "note_off", "time": 39, "note": 62, "velocity": 120, "channel": 0}, {"type": "note_on", "time": 10, "note": 55, "velocity": 110, "channel": 0}, {"type": "note_off", "time": 28, "note": 55, "velocity": 110, "channel": 0}, {"type": "note_on", "time": 48, "note": 56, "velocity": 95, "channel": 0}, {"type": "note_off", "time": 46, "note": 56, "velocity": 95, "channel": 0}, {"type": "note_on", "time": 28, "note": 57, "velocity": 116, "channel": 0}, {"type": "note_off", "time": 63, "note": 57, "velocity": 116, "channel": 0}, {"type": "note_on", "time": 6, "note": 58, "velocity": 119, "channel": 0}, {"type": "note_off", "time": 77, "note": 58, "velocity": 119, "channel": 0}, {"type": "note_on", "time": 30, "note": 57, "velocity": 117, "channel": 0}, {"type": "note_off", "time": 69, "note": 57, "velocity": 117, "channel": 0}, {"type": "note_on", "time": 53, "note": 58, "velocity": 109, "channel": 0}, {"type": "note_off", "time": 48, "note": 58, "velocity": 109, "channel": 0}, {"type": "note_on", "time": 50, "note": 53, "velocity": 116, "channel": 0}, {"type": "note_off", "time": 65, "note": 53, "velocity": 116, "channel": 0}, {"type": "note_on", "time": 90, "note": 58, "velocity": 121, "channel": 0}, {"type": "note_off", "time": 81, "note": 58, "velocity": 121, "channel": 0}, {"type": "note_on", "time": 9, "note": 57, "velocity": 116, "channel": 0}, {"type": "note_off", "time": 95, "note": 57, "velocity": 116, "channel": 0}, {"type": "note_on", "time": 5, "note": 53, "velocity": 118, "channel": 0}, {"type": "note_off", "time": 65, "note": 53, "velocity": 118, "channel": 0}, {"type": "note_on", "time": 29, "note": 49, "velocity": 114, "channel": 0}, {"type": "note_off", "time": 76, "note": 49, "velocity": 114, "channel": 0}, {"type": "note_on", "time": 6, "note": 46, "velocity": 112, "channel": 0}, {"type": "note_off", "time": 81, "note": 46, "velocity": 112, "channel": 0}, {"type": "note_on", "time": 16, "note": 45, "velocity": 108, "channel": 0}, {"type": "note_off", "time": 96, "note": 45, "velocity": 108, "channel": 0}, {"type": "note_on", "time": 18, "note": 53, "velocity": 115, "channel": 0}, {"type": "note_off", "time": 37, "note": 53, "velocity": 115, "channel": 0}, {"type": "end_of_track", "time": 0}]]}