{"ticks_per_beat": 192, "tracks": [[{"type": "track_name", "name": "Melody", "time": 0}, {"type": "set_tempo", "tempo": 221402, "time": 0}, {"type": "key_signature", "key": "F", "time": 0}, {"type": "time_signature", "numerator": 4, "denominator": 4, "clocks_per_click": 24, "notated_32nd_notes_per_beat": 8, "time": 0}, {"type": "note_on", "time": 2268, "note": 68, "velocity": 86, "channel": 0}, {"type": "note_off", "time": 107, "note": 68, "velocity": 86, "channel": 0}, {"type": "note_on", "time": 17, "note": 69, "velocity": 69, "channel": 0}, {"type": "note_off", "time": 62, "note": 69, "velocity": 69, "channel": 0}, {"type": "note_on", "time": 6, "note": 72, "velocity": 110, "channel": 0}, {"type": "note_off", "time": 121, "note": 72, "velocity": 110, "channel": 0}, {"type": "note_on", "time": 6, "note": 69, "velocity": 94, "channel": 0}, {"type": "note_off", "time": 80, "note": 69, "velocity": 94, "channel": 0}, {"type": "note_on", "time": 8, "note": 65, "velocity": 97, "channel": 0}, {"type": "note_off", "time": 100, "note": 65, "velocity": 97, "channel": 0}, {"type": "note_on", "time": 11, "note": 62, "velocity": 90, "channel": 0}, {"type": "note_off", "time": 37, "note": 62, "velocity": 90, "channel": 0}, {"type": "note_on", "time": 11, "note": 64, "velocity": 88, "channel": 0}, {"type": "note_off", "time": 191, "note": 64, "velocity": 88, "channel": 0}, {"type": "note_on", "time": 31, "note": 61, "velocity": 95, "channel": 0}, {"type": "note_off", "time": 117, "note": 61, "velocity": 95, "channel": 0}, {"type": "note_on", "time": 23, "note": 62, "velocity": 100, "channel": 0}, {"type": "note_off", "time": 173, "note": 62, "velocity": 100, "channel": 0}, {"type": "note_on", "time": 14, "note": 57, "velocity": 75, "channel": 0}, {"type": "note_off", "time": 322, "note": 57, "velocity": 75, "channel": 0}, {"type": "note_on", "time": 848, "note": 60, "velocity": 97, "channel": 0}, {"type": "note_off", "time": 84, "note": 60, "velocity": 97, "channel": 0}, {"type": "note_on", "time": 11, "note": 63, "velocity": 101, "channel": 0}, {"type": "note_off", "time": 109, "note": 63, "velocity": 101, "channel": 0}, {"type": "note_on", "time": 6, "note": 62, "velocity": 86, "channel": 0}, {"type": "note_off", "time": 71, "note": 62, "velocity": 86, "channel": 0}, {"type": "note_on", "time": 9, "note": 60, "velocity": 76, "channel": 0}, {"type": "note_off", "time": 59, "note": 60, "velocity": 76, "channel": 0}, {"type": "note_on", "time": 22, "note": 65, "velocity": 111, "channel": 0}, {"type": "note_off", "time": 116, "note": 65, "velocity": 111, "channel": 0}, {"type": "note_on", "time": 5, "note": 62, "velocity": 96, "channel": 0}, {"type": "note_off", "time": 68, "note": 62, "velocity": 96, "channel": 0}, {"type": "note_on", "time": 12, "note": 58, "velocity": 81, "channel": 0}, {"type": "note_off", "time": 103, "note": 58, "velocity": 81, "channel": 0}, {"type": "note_on", "time": 12, "note": 55, "velocity": 84, "channel": 0}, {"type": "note_off", "time": 66, "note": 55, "velocity": 84, "channel": 0}, {"type": "note_on", "time": 143, "note": 58, "velocity": 83, "channel": 0}, {"type": "note_off", "time": 78, "note": 58, "velocity": 83, "channel": 0}, {"type": "note_on", "time": 15, "note": 57, "velocity": 74, "channel": 0}, {"type": "note_off", "time": 66, "note": 57, "velocity": 74, "channel": 0}, {"type": "note_on", "time": 11, "note": 55, "velocity": 78, "channel": 0}, {"type": "note_off", "time": 70, "note": 55, "velocity": 78, "channel": 0}, {"type": "note_on", "time": 23, "note": 60, "velocity": 98, "channel": 0}, {"type": "note_off", "time": 89, "note": 60, "velocity": 98, "channel": 0}, {"type": "note_on", "time": 7, "note": 57, "velocity": 84, "channel": 0}, {"type": "note_off", "time": 64, "note": 57, "velocity": 84, "channel": 0}, {"type": "note_on", "time": 16, "note": 58, "velocity": 76, "channel": 0}, {"type": "note_off", "time": 101, "note": 58, "velocity": 76, "channel": 0}, {"type": "note_on", "time": 8, "note": 60, "velocity": 100, "channel": 0}, {"type": "note_off", "time": 68, "note": 60, "velocity": 100, "channel": 0}, {"type": "note_on", "time": 16, "note": 62, "velocity": 97, "channel": 0}, {"type": "note_off", "time": 79, "note": 62, "velocity": 97, "channel": 0}, {"type": "note_on", "time": 11, "note": 64, "velocity": 94, "channel": 0}, {"type": "note_off", "time": 82, "note": 64, "velocity": 94, "channel": 0}, {"type": "note_on", "time": 15, "note": 65, "velocity": 94, "channel": 0}, {"type": "note_off", "time": 95, "note": 65, "velocity": 94, "channel": 0}, {"type": "note_on", "time": 12, "note": 67, "velocity": 91, "channel": 0}, {"type": "note_off", "time": 67, "note": 67, "velocity": 91, "channel": 0}, {"type": "note_on", "time": 5, "note": 69, "velocity": 105, "channel": 0}, {"type": "note_off", "time": 104, "note": 69, "velocity": 105, "channel": 0}, {"type": "note_on", "time": 1071, "note": 70, "velocity": 108, "channel": 0}, {"type": "note_off", "time": 107, "note": 70, "velocity": 108, "channel": 0}, {"type": "note_on", "time": 4, "note": 67, "velocity": 82, "channel": 0}, {"type": "note_off", "time": 78, "note": 67, "velocity": 82, "channel": 0}, {"type": "note_on", "time": 3, "note": 72, "velocity": 123, "channel": 0}, {"type": "note_off", "time": 105, "note": 72, "velocity": 123, "channel": 0}, {"type": "note_on", "time": 14, "note": 69, "velocity": 105, "channel": 0}, {"type": "note_off", "time": 99, "note": 69, "velocity": 105, "channel": 0}, {"type": "note_on", "time": 9, "note": 65, "velocity": 97, "channel": 0}, {"type": "note_off", "time": 77, "note": 65, "velocity": 97, "channel": 0}, {"type": "note_on", "time": 2, "note": 62, "velocity": 100, "channel": 0}, {"type": "note_off", "time": 96, "note": 62, "velocity": 100, "channel": 0}, {"type": "note_on", "time": 198, "note": 64, "velocity": 103, "channel": 0}, {"type": "note_off", "time": 109, "note": 64, "velocity": 103, "channel": 0}, {"type": "note_on", "time": 5, "note": 61, "velocity": 102, "channel": 0}, {"type": "note_off", "time": 123, "note": 61, "velocity": 102, "channel": 0}, {"type": "note_on", "time": 526, "note": 62, "velocity": 103, "channel": 0}, {"type": "note_off", "time": 64, "note": 62, "velocity": 103, "channel": 0}, {"type": "note_on", "time": 22, "note": 59, "velocity": 82, "channel": 0}, {"type": "note_off", "time": 79, "note": 59, "velocity": 82, "channel": 0}, {"type": "note_on", "time": 2, "note": 61, "velocity": 97, "channel": 0}, {"type": "note_off", "time": 74, "note": 61, "velocity": 97, "channel": 0}, {"type": "note_on", "time": 15, "note": 62, "velocity": 90, "channel": 0}, {"type": "note_off", "time": 88, "note": 62, "velocity": 90, "channel": 0}, {"type": "note_on", "time": 17, "note": 64, "velocity": 98, "channel": 0}, {"type": "note_off", "time": 98, "note": 64, "velocity": 98, "channel": 0}, {"type": "note_on", "time": 3, "note": 62, "velocity": 98, "channel": 0}, {"type": "note_off", "time": 68, "note": 62, "velocity": 98, "channel": 0}, {"type": "note_on", "time": 10, "note": 61, "velocity": 88, "channel": 0}, {"type": "note_off", "time": 83, "note": 61, "velocity": 88, "channel": 0}, {"type": "note_on", "time": 9, "note": 62, "velocity": 101, "channel": 0}, {"type": "note_off", "time": 115, "note": 62, "velocity": 101, "channel": 0}, {"type": "note_on", "time": 6, "note": 65, "velocity": 83, "channel": 0}, {"type": "note_off", "time": 116, "note": 65, "velocity": 83, "channel": 0}, {"type": "note_on", "time": 44, "note": 69, "velocity": 101, "channel": 0}, {"type": "note_off", "time": 42, "note": 69, "velocity": 101, "channel": 0}, {"type": "note_on", "time": 3, "note": 74, "velocity": 115, "channel": 0}, {"type": "note_off", "time": 102, "note": 74, "velocity": 115, "channel": 0}, {"type": "note_on", "time": 11, "note": 73, "velocity": 113, "channel": 0}, {"type": "note_off", "time": 59, "note": 73, "velocity": 113, "channel": 0}, {"type": "note_on", "time": 15, "note": 72, "velocity": 115, "channel": 0}, {"type": "note_off", "time": 91, "note": 72, "velocity": 115, "channel": 0}, {"type": "note_on", "time": 15, "note": 69, "velocity": 99, "channel": 0}, {"type": "note_off", "time": 98, "note": 69, "velocity": 99, "channel": 0}, {"type": "note_on", "time": 21, "note": 66, "velocity": 88, "channel": 0}, {"type": "note_off", "time": 67, "note": 66, "velocity": 88, "channel": 0}, {"type": "note_on", "time": 23, "note": 63, "velocity": 88, "channel": 0}, {"type": "note_off", "time": 69, "note": 63, "velocity": 88, "channel": 0}, {"type": "note_on", "time": 3, "note": 60, "velocity": 90, "channel": 0}, {"type": "note_off", "time": 83, "note": 60, "velocity": 90, "channel": 0}, {"type": "note_on", "time": 19, "note": 57, "velocity": 91, "channel": 0}, {"type": "note_off", "time": 88, "note": 57, "velocity": 91, "channel": 0}, {"type": "note_on", "time": 22, "note": 54, "velocity": 78, "channel": 0}, {"type": "note_off", "time": 72, "note": 54, "velocity": 78, "channel": 0}, {"type": "note_on", "time": 3, "note": 55, "velocity": 88, "channel": 0}, {"type": "note_off", "time": 66, "note": 55, "velocity": 88, "channel": 0}, {"type": "note_on", "time": 33, "note": 58, "velocity": 77, "channel": 0}, {"type": "note_off", "time": 67, "note": 58, "velocity": 77, "channel": 0}, {"type": "note_on", "time": 29, "note": 62, "velocity": 104, "channel": 0}, {"type": "note_off", "time": 76, "note": 62, "velocity": 104, "channel": 0}, {"type": "note_on", "time": 14, "note": 58, "velocity": 76, "channel": 0}, {"type": "note_off", "time": 59, "note": 58, "velocity": 76, "channel": 0}, {"type": "note_on", "time": 161, "note": 60, "velocity": 95, "channel": 0}, {"type": "note_off", "time": 56, "note": 60, "velocity": 95, "channel": 0}, {"type": "note_on", "time": 15, "note": 59, "velocity": 86, "channel": 0}, {"type": "note_off", "time": 74, "note": 59, "velocity": 86, "channel": 0}, {"type": "note_on", "time": 14, "note": 58, "velocity": 76, "channel": 0}, {"type": "note_off", "time": 57, "note": 58, "velocity": 76, "channel": 0}, {"type": "note_on", "time": 23, "note": 60, "velocity": 95, "channel": 0}, {"type": "note_off", "time": 78, "note": 60, "velocity": 95, "channel": 0}, {"type": "note_on", "time": 18, "note": 62, "velocity": 88, "channel": 0}, {"type": "note_off", "time": 89, "note": 62, "velocity": 88, "channel": 0}, {"type": "note_on", "time": 15, "note": 64, "velocity": 81, "channel": 0}, {"type": "note_off", "time": 71, "note": 64, "velocity": 81, "channel": 0}, {"type": "note_on", "time": 23, "note": 69, "velocity": 106, "channel": 0}, {"type": "note_off", "time": 95, "note": 69, "velocity": 106, "channel": 0}, {"type": "note_on", "time": 8, "note": 67, "velocity": 98, "channel": 0}, {"type": "note_off", "time": 56, "note": 67, "velocity": 98, "channel": 0}, {"type": "note_on", "time": 9, "note": 64, "velocity": 98, "channel": 0}, {"type": "note_off", "time": 82, "note": 64, "velocity": 98, "channel": 0}, {"type": "note_on", "time": 28, "note": 60, "velocity": 91, "channel": 0}, {"type": "note_off", "time": 54, "note": 60, "velocity": 91, "channel": 0}, {"type": "note_on", "time": 8, "note": 62, "velocity": 93, "channel": 0}, {"type": "note_off", "time": 57, "note": 62, "velocity": 93, "channel": 0}, {"type": "note_on", "time": 18, "note": 65, "velocity": 92, "channel": 0}, {"type": "note_off", "time": 50, "note": 65, "velocity": 92, "channel": 0}, {"type": "note_on", "time": 8, "note": 69, "velocity": 105, "channel": 0}, {"type": "note_off", "time": 60, "note": 69, "velocity": 105, "channel": 0}, {"type": "note_on", "time": 7, "note": 72, "velocity": 123, "channel": 0}, {"type": "note_off", "time": 143, "note": 72, "velocity": 123, "channel": 0}, {"type": "note_on", "time": 176, "note": 60, "velocity": 95, "channel": 0}, {"type": "note_off", "time": 55, "note": 60, "velocity": 95, "channel": 0}, {"type": "note_on", "time": 10, "note": 62, "velocity": 92, "channel": 0}, {"type": "note_off", "time": 60, "note": 62, "velocity": 92, "channel": 0}, {"type": "note_on", "time": 6, "note": 65, "velocity": 86, "channel": 0}, {"type": "note_off", "time": 59, "note": 65, "velocity": 86, "channel": 0}, {"type": "note_on", "time": 0, "note": 69, "velocity": 107, "channel": 0}, {"type": "note_off", "time": 62, "note": 69, "velocity": 107, "channel": 0}, {"type": "note_on", "time": 8, "note": 70, "velocity": 112, "channel": 0}, {"type": "note_off", "time": 139, "note": 70, "velocity": 112, "channel": 0}, {"type": "note_on", "time": 192, "note": 69, "velocity": 112, "channel": 0}, {"type": "note_off", "time": 111, "note": 69, "velocity": 112, "channel": 0}, {"type": "note_on", "time": 4, "note": 70, "velocity": 103, "channel": 0}, {"type": "note_off", "time": 85, "note": 70, "velocity": 103, "channel": 0}, {"type": "note_on", "time": 5, "note": 69, "velocity": 105, "channel": 0}, {"type": "note_off", "time": 64, "note": 69, "velocity": 105, "channel": 0}, {"type": "note_on", "time": 29, "note": 65, "velocity": 97, "channel": 0}, {"type": "note_off", "time": 92, "note": 65, "velocity": 97, "channel": 0}, {"type": "note_on", "time": 16, "note": 60, "velocity": 88, "channel": 0}, {"type": "note_off", "time": 64, "note": 60, "velocity": 88, "channel": 0}, {"type": "note_on", "time": 17, "note": 57, "velocity": 90, "channel": 0}, {"type": "note_off", "time": 103, "note": 57, "velocity": 90, "channel": 0}, {"type": "note_on", "time": 96, "note": 55, "velocity": 84, "channel": 0}, {"type": "note_off", "time": 40, "note": 55, "velocity": 84, "channel": 0}, {"type": "note_on", "time": 1, "note": 56, "velocity": 80, "channel": 0}, {"type": "note_off", "time": 52, "note": 56, "velocity": 80, "channel": 0}, {"type": "note_on", "time": 17, "note": 60, "velocity": 92, "channel": 0}, {"type": "note_off", "time": 52, "note": 60, "velocity": 92, "channel": 0}, {"type": "note_on", "time": 4, "note": 63, "velocity": 101, "channel": 0}, {"type": "note_off", "time": 107, "note": 63, "velocity": 101, "channel": 0}, {"type": "note_on", "time": 3, "note": 60, "velocity": 86, "channel": 0}, {"type": "note_off", "time": 43, "note": 60, "velocity": 86, "channel": 0}, {"type": "note_on", "time": 9, "note": 61, "velocity": 89, "channel": 0}, {"type": "note_off", "time": 68, "note": 61, "velocity": 89, "channel": 0}, {"type": "note_on", "time": 16, "note": 65, "velocity": 88, "channel": 0}, {"type": "note_off", "time": 44, "note": 65, "velocity": 88, "channel": 0}, {"type": "note_on", "time": 8, "note": 68, "velocity": 94, "channel": 0}, {"type": "note_off", "time": 40, "note": 68, "velocity": 94, "channel": 0}, {"type": "note_on", "time": 4, "note": 72, "velocity": 122, "channel": 0}, {"type": "note_off", "time": 127, "note": 72, "velocity": 122, "channel": 0}, {"type": "note_on", "time": 6, "note": 75, "velocity": 116, "channel": 0}, {"type": "note_off", "time": 163, "note": 75, "velocity": 116, "channel": 0}, {"type": "note_on", "time": 923, "note": 63, "velocity": 97, "channel": 0}, {"type": "note_off", "time": 67, "note": 63, "velocity": 97, "channel": 0}, {"type": "note_on", "time": 5, "note": 65, "velocity": 84, "channel": 0}, {"type": "note_off", "time": 75, "note": 65, "velocity": 84, "channel": 0}, {"type": "note_on", "time": 9, "note": 68, "velocity": 98, "channel": 0}, {"type": "note_off", "time": 96, "note": 68, "velocity": 98, "channel": 0}, {"type": "note_on", "time": 4, "note": 73, "velocity": 121, "channel": 0}, {"type": "note_off", "time": 95, "note": 73, "velocity": 121, "channel": 0}, {"type": "note_on", "time": 10, "note": 72, "velocity": 118, "channel": 0}, {"type": "note_off", "time": 83, "note": 72, "velocity": 118, "channel": 0}, {"type": "note_on", "time": 8, "note": 70, "velocity": 104, "channel": 0}, {"type": "note_off", "time": 88, "note": 70, "velocity": 104, "channel": 0}, {"type": "note_on", "time": 9, "note": 68, "velocity": 107, "channel": 0}, {"type": "note_off", "time": 99, "note": 68, "velocity": 107, "channel": 0}, {"type": "note_on", "time": 9, "note": 67, "velocity": 100, "channel": 0}, {"type": "note_off", "time": 71, "note": 67, "velocity": 100, "channel": 0}, {"type": "note_on", "time": 5, "note": 65, "velocity": 97, "channel": 0}, {"type": "note_off", "time": 67, "note": 65, "velocity": 97, "channel": 0}, {"type": "note_on", "time": 5, "note": 63, "velocity": 98, "channel": 0}, {"type": "note_off", "time": 97, "note": 63, "velocity": 98, "channel": 0}, {"type": "note_on", "time": 13, "note": 61, "velocity": 96, "channel": 0}, {"type": "note_off", "time": 87, "note": 61, "velocity": 96, "channel": 0}, {"type": "note_on", "time": 6, "note": 60, "velocity": 90, "channel": 0}, {"type": "note_off", "time": 67, "note": 60, "velocity": 90, "channel": 0}, {"type": "note_on", "time": 17, "note": 58, "velocity": 81, "channel": 0}, {"type": "note_off", "time": 110, "note": 58, "velocity": 81, "channel": 0}, {"type": "note_on", "time": 15, "note": 56, "velocity": 84, "channel": 0}, {"type": "note_off", "time": 93, "note": 56, "velocity": 84, "channel": 0}, {"type": "note_on", "time": 6, "note": 57, "velocity": 84, "channel": 0}, {"type": "note_off", "time": 80, "note": 57, "velocity": 84, "channel": 0}, {"type": "note_on", "time": 16, "note": 60, "velocity": 99, "channel": 0}, {"type": "note_off", "time": 56, "note": 60, "velocity": 99, "channel": 0}, {"type": "note_on", "time": 7, "note": 64, "velocity": 100, "channel": 0}, {"type": "note_off", "time": 88, "note": 64, "velocity": 100, "channel": 0}, {"type": "note_on", "time": 97, "note": 67, "velocity": 94, "channel": 0}, {"type": "note_off", "time": 105, "note": 67, "velocity": 94, "channel": 0}, {"type": "note_on", "time": 23, "note": 64, "velocity": 96, "channel": 0}, {"type": "note_off", "time": 55, "note": 64, "velocity": 96, "channel": 0}, {"type": "note_on", "time": 7, "note": 65, "velocity": 89, "channel": 0}, {"type": "note_off", "time": 40, "note": 65, "velocity": 89, "channel": 0}, {"type": "note_on", "time": 4, "note": 66, "velocity": 89, "channel": 0}, {"type": "note_off", "time": 57, "note": 66, "velocity": 89, "channel": 0}, {"type": "note_on", "time": 20, "note": 67, "velocity": 100, "channel": 0}, {"type": "note_off", "time": 74, "note": 67, "velocity": 100, "channel": 0}, {"type": "note_on", "time": 16, "note": 69, "velocity": 104, "channel": 0}, {"type": "note_off", "time": 106, "note": 69, "velocity": 104, "channel": 0}, {"type": "note_on", "time": 276, "note": 74, "velocity": 94, "channel": 0}, {"type": "note_off", "time": 377, "note": 74, "velocity": 94, "channel": 0}, {"type": "note_on", "time": 1171, "note": 62, "velocity": 100, "channel": 0}, {"type": "note_off", "time": 73, "note": 62, "velocity": 100, "channel": 0}, {"type": "note_on", "time": 5, "note": 65, "velocity": 102, "channel": 0}, {"type": "note_off", "time": 105, "note": 65, "velocity": 102, "channel": 0}, {"type": "note_on", "time": 8, "note": 64, "velocity": 97, "channel": 0}, {"type": "note_off", "time": 80, "note": 64, "velocity": 97, "channel": 0}, {"type": "note_on", "time": 5, "note": 65, "velocity": 92, "channel": 0}, {"type": "note_off", "time": 64, "note": 65, "velocity": 92, "channel": 0}, {"type": "note_on", "time": 13, "note": 67, "velocity": 101, "channel": 0}, {"type": "note_off", "time": 108, "note": 67, "velocity": 101, "channel": 0}, {"type": "note_on", "time": 110, "note": 72, "velocity": 115, "channel": 0}, {"type": "note_off", "time": 99, "note": 72, "velocity": 115, "channel": 0}, {"type": "note_on", "time": 6, "note": 69, "velocity": 99, "channel": 0}, {"type": "note_off", "time": 85, "note": 69, "velocity": 99, "channel": 0}, {"type": "note_on", "time": 12, "note": 65, "velocity": 97, "channel": 0}, {"type": "note_off", "time": 75, "note": 65, "velocity": 97, "channel": 0}, {"type": "note_on", "time": 7, "note": 62, "velocity": 102, "channel": 0}, {"type": "note_off", "time": 118, "note": 62, "velocity": 102, "channel": 0}, {"type": "note_on", "time": 145, "note": 64, "velocity": 89, "channel": 0}, {"type": "note_off", "time": 249, "note": 64, "velocity": 89, "channel": 0}, {"type": "note_on", "time": 17, "note": 61, "velocity": 98, "channel": 0}, {"type": "note_off", "time": 85, "note": 61, "velocity": 98, "channel": 0}, {"type": "note_on", "time": 38, "note": 57, "velocity": 82, "channel": 0}, {"type": "note_off", "time": 95, "note": 57, "velocity": 82, "channel": 0}, {"type": "note_on", "time": 13, "note": 59, "velocity": 74, "channel": 0}, {"type": "note_off", "time": 46, "note": 59, "velocity": 74, "channel": 0}, {"type": "note_on", "time": 11, "note": 61, "velocity": 90, "channel": 0}, {"type": "note_off", "time": 82, "note": 61, "velocity": 90, "channel": 0}, {"type": "note_on", "time": 15, "note": 62, "velocity": 97, "channel": 0}, {"type": "note_off", "time": 84, "note": 62, "velocity": 97, "channel": 0}, {"type": "note_on", "time": 16, "note": 64, "velocity": 95, "channel": 0}, {"type": "note_off", "time": 95, "note": 64, "velocity": 95, "channel": 0}, {"type": "note_on", "time": 6, "note": 62, "velocity": 97, "channel": 0}, {"type": "note_off", "time": 58, "note": 62, "velocity": 97, "channel": 0}, {"type": "note_on", "time": 9, "note": 61, "velocity": 90, "channel": 0}, {"type": "note_off", "time": 89, "note": 61, "velocity": 90, "channel": 0}, {"type": "note_on", "time": 12, "note": 62, "velocity": 99, "channel": 0}, {"type": "note_off", "time": 97, "note": 62, "velocity": 99, "channel": 0}, {"type": "note_on", "time": 10, "note": 65, "velocity": 94, "channel": 0}, {"type": "note_off", "time": 115, "note": 65, "velocity": 94, "channel": 0}, {"type": "note_on", "time": 30, "note": 69, "velocity": 88, "channel": 0}, {"type": "note_off", "time": 49, "note": 69, "velocity": 88, "channel": 0}, {"type": "note_on", "time": 10, "note": 74, "velocity": 115, "channel": 0}, {"type": "note_off", "time": 103, "note": 74, "velocity": 115, "channel": 0}, {"type": "note_on", "time": 7, "note": 73, "velocity": 117, "channel": 0}, {"type": "note_off", "time": 91, "note": 73, "velocity": 117, "channel": 0}, {"type": "note_on", "time": 6, "note": 72, "velocity": 117, "channel": 0}, {"type": "note_off", "time": 99, "note": 72, "velocity": 117, "channel": 0}, {"type": "note_on", "time": 4, "note": 69, "velocity": 105, "channel": 0}, {"type": "note_off", "time": 68, "note": 69, "velocity": 105, "channel": 0}, {"type": "note_on", "time": 19, "note": 66, "velocity": 84, "channel": 0}, {"type": "note_off", "time": 76, "note": 66, "velocity": 84, "channel": 0}, {"type": "note_on", "time": 14, "note": 63, "velocity": 90, "channel": 0}, {"type": "note_off", "time": 91, "note": 63, "velocity": 90, "channel": 0}, {"type": "note_on", "time": 10, "note": 60, "velocity": 88, "channel": 0}, {"type": "note_off", "time": 76, "note": 60, "velocity": 88, "channel": 0}, {"type": "note_on", "time": 29, "note": 57, "velocity": 90, "channel": 0}, {"type": "note_off", "time": 50, "note": 57, "velocity": 90, "channel": 0}, {"type": "note_on", "time": 31, "note": 54, "velocity": 81, "channel": 0}, {"type": "note_off", "time": 92, "note": 54, "velocity": 81, "channel": 0}, {"type": "note_on", "time": 12, "note": 55, "velocity": 86, "channel": 0}, {"type": "note_off", "time": 76, "note": 55, "velocity": 86, "channel": 0}, {"type": "note_on", "time": 111, "note": 62, "velocity": 106, "channel": 0}, {"type": "note_off", "time": 72, "note": 62, "velocity": 106, "channel": 0}, {"type": "note_on", "time": 10, "note": 67, "velocity": 105, "channel": 0}, {"type": "note_off", "time": 110, "note": 67, "velocity": 105, "channel": 0}, {"type": "note_on", "time": 6, "note": 66, "velocity": 93, "channel": 0}, {"type": "note_off", "time": 84, "note": 66, "velocity": 93, "channel": 0}, {"type": "note_on", "time": 22, "note": 65, "velocity": 92, "channel": 0}, {"type": "note_off", "time": 37, "note": 65, "velocity": 92, "channel": 0}, {"type": "note_on", "time": 11, "note": 61, "velocity": 97, "channel": 0}, {"type": "note_off", "time": 85, "note": 61, "velocity": 97, "channel": 0}, {"type": "note_on", "time": 12, "note": 58, "velocity": 77, "channel": 0}, {"type": "note_off", "time": 76, "note": 58, "velocity": 77, "channel": 0}, {"type": "note_on", "time": 31, "note": 60, "velocity": 84, "channel": 0}, {"type": "note_off", "time": 84, "note": 60, "velocity": 84, "channel": 0}, {"type": "note_on", "time": 12, "note": 61, "velocity": 94, "channel": 0}, {"type": "note_off", "time": 78, "note": 61, "velocity": 94, "channel": 0}, {"type": "note_on", "time": 33, "note": 65, "velocity": 91, "channel": 0}, {"type": "note_off", "time": 45, "note": 65, "velocity": 91, "channel": 0}, {"type": "note_on", "time": 5, "note": 69, "velocity": 108, "channel": 0}, {"type": "note_off", "time": 150, "note": 69, "velocity": 108, "channel": 0}, {"type": "note_on", "time": 3, "note": 68, "velocity": 91, "channel": 0}, {"type": "note_off", "time": 55, "note": 68, "velocity": 91, "channel": 0}, {"type": "note_on", "time": 9, "note": 67, "velocity": 94, "channel": 0}, {"type": "note_off", "time": 93, "note": 67, "velocity": 94, "channel": 0}, {"type": "note_on", "time": 7, "note": 64, "velocity": 90, "channel": 0}, {"type": "note_off", "time": 63, "note": 64, "velocity": 90, "channel": 0}, {"type": "note_on", "time": 12, "note": 60, "velocity": 94, "channel": 0}, {"type": "note_off", "time": 66, "note": 60, "velocity": 94, "channel": 0}, {"type": "note_on", "time": 44, "note": 57, "velocity": 92, "channel": 0}, {"type": "note_off", "time": 75, "note": 57, "velocity": 92, "channel": 0}, {"type": "note_on", "time": 11, "note": 55, "velocity": 92, "channel": 0}, {"type": "note_off", "time": 86, "note": 55, "velocity": 92, "channel": 0}, {"type": "note_on", "time": 6, "note": 53, "velocity": 89, "channel": 0}, {"type": "note_off", "time": 57, "note": 53, "velocity": 89, "channel": 0}, {"type": "note_on", "time": 5, "note": 52, "velocity": 91, "channel": 0}, {"type": "note_off", "time": 79, "note": 52, "velocity": 91, "channel": 0}, {"type": "note_on", "time": 37, "note": 53, "velocity": 86, "channel": 0}, {"type": "note_off", "time": 64, "note": 53, "velocity": 86, "channel": 0}, {"type": "note_on", "time": 16, "note": 55, "velocity": 91, "channel": 0}, {"type": "note_off", "time": 104, "note": 55, "velocity": 91, "channel": 0}, {"type": "note_on", "time": 19, "note": 57, "velocity": 84, "channel": 0}, {"type": "note_off", "time": 57, "note": 57, "velocity": 84, "channel": 0}, {"type": "note_on", "time": 14, "note": 58, "velocity": 76, "channel": 0}, {"type": "note_off", "time": 86, "note": 58, "velocity": 76, "channel": 0}, {"type": "note_on", "time": 18, "note": 60, "velocity": 84, "channel": 0}, {"type": "note_off", "time": 367, "note": 60, "velocity": 84, "channel": 0}, {"type": "note_on", "time": 692, "note": 48, "velocity": 98, "channel": 0}, {"type": "note_off", "time": 101, "note": 48, "velocity": 98, "channel": 0}, {"type": "note_on", "time": 6, "note": 50, "velocity": 86, "channel": 0}, {"type": "note_off", "time": 66, "note": 50, "velocity": 86, "channel": 0}, {"type": "note_on", "time": 5, "note": 52, "velocity": 87, "channel": 0}, {"type": "note_off", "time": 97, "note": 52, "velocity": 87, "channel": 0}, {"type": "note_on", "time": 7, "note": 53, "velocity": 90, "channel": 0}, {"type": "note_off", "time": 95, "note": 53, "velocity": 90, "channel": 0}, {"type": "note_on", "time": 6, "note": 55, "velocity": 94, "channel": 0}, {"type": "note_off", "time": 111, "note": 55, "velocity": 94, "channel": 0}, {"type": "note_on", "time": 12, "note": 52, "velocity": 89, "channel": 0}, {"type": "note_off", "time": 59, "note": 52, "velocity": 89, "channel": 0}, {"type": "note_on", "time": 5, "note": 53, "velocity": 89, "channel": 0}, {"type": "note_off", "time": 115, "note": 53, "velocity": 89, "channel": 0}, {"type": "note_on", "time": 6, "note": 55, "velocity": 86, "channel": 0}, {"type": "note_off", "time": 90, "note": 55, "velocity": 86, "channel": 0}, {"type": "note_on", "time": 39, "note": 57, "velocity": 85, "channel": 0}, {"type": "note_off", "time": 44, "note": 57, "velocity": 85, "channel": 0}, {"type": "note_on", "time": 13, "note": 59, "velocity": 77, "channel": 0}, {"type": "note_off", "time": 54, "note": 59, "velocity": 77, "channel": 0}, {"type": "note_on", "time": 24, "note": 61, "velocity": 104, "channel": 0}, {"type": "note_off", "time": 97, "note": 61, "velocity": 104, "channel": 0}, {"type": "note_on", "time": 10, "note": 62, "velocity": 101, "channel": 0}, {"type": "note_off", "time": 86, "note": 62, "velocity": 101, "channel": 0}, {"type": "note_on", "time": 5, "note": 64, "velocity": 102, "channel": 0}, {"type": "note_off", "time": 100, "note": 64, "velocity": 102, "channel": 0}, {"type": "note_on", "time": 14, "note": 61, "velocity": 100, "channel": 0}, {"type": "note_off", "time": 79, "note": 61, "velocity": 100, "channel": 0}, {"type": "note_on", "time": 11, "note": 62, "velocity": 101, "channel": 0}, {"type": "note_off", "time": 76, "note": 62, "velocity": 101, "channel": 0}, {"type": "note_on", "time": 26, "note": 64, "velocity": 91, "channel": 0}, {"type": "note_off", "time": 83, "note": 64, "velocity": 91, "channel": 0}, {"type": "note_on", "time": 11, "note": 65, "velocity": 89, "channel": 0}, {"type": "note_off", "time": 57, "note": 65, "velocity": 89, "channel": 0}, {"type": "note_on", "time": 12, "note": 67, "velocity": 86, "channel": 0}, {"type": "note_off", "time": 70, "note": 67, "velocity": 86, "channel": 0}, {"type": "note_on", "time": 18, "note": 69, "velocity": 105, "channel": 0}, {"type": "note_off", "time": 89, "note": 69, "velocity": 105, "channel": 0}, {"type": "note_on", "time": 16, "note": 70, "velocity": 104, "channel": 0}, {"type": "note_off", "time": 83, "note": 70, "velocity": 104, "channel": 0}, {"type": "note_on", "time": 4, "note": 72, "velocity": 113, "channel": 0}, {"type": "note_off", "time": 86, "note": 72, "velocity": 113, "channel": 0}, {"type": "note_on", "time": 8, "note": 74, "velocity": 121, "channel": 0}, {"type": "note_off", "time": 87, "note": 74, "velocity": 121, "channel": 0}, {"type": "note_on", "time": 7, "note": 75, "velocity": 118, "channel": 0}, {"type": "note_off", "time": 82, "note": 75, "velocity": 118, "channel": 0}, {"type": "note_on", "time": 7, "note": 74, "velocity": 119, "channel": 0}, {"type": "note_off", "time": 93, "note": 74, "velocity": 119, "channel": 0}, {"type": "note_on", "time": 4, "note": 72, "velocity": 113, "channel": 0}, {"type": "note_off", "time": 102, "note": 72, "velocity": 113, "channel": 0}, {"type": "note_on", "time": 7, "note": 71, "velocity": 112, "channel": 0}, {"type": "note_off", "time": 70, "note": 71, "velocity": 112, "channel": 0}, {"type": "note_on", "time": 6, "note": 70, "velocity": 108, "channel": 0}, {"type": "note_off", "time": 91, "note": 70, "velocity": 108, "channel": 0}, {"type": "note_on", "time": 6, "note": 69, "velocity": 110, "channel": 0}, {"type": "note_off", "time": 102, "note": 69, "velocity": 110, "channel": 0}, {"type": "note_on", "time": 4, "note": 67, "velocity": 99, "channel": 0}, {"type": "note_off", "time": 98, "note": 67, "velocity": 99, "channel": 0}, {"type": "note_on", "time": 6, "note": 66, "velocity": 103, "channel": 0}, {"type": "note_off", "time": 79, "note": 66, "velocity": 103, "channel": 0}, {"type": "note_on", "time": 9, "note": 65, "velocity": 100, "channel": 0}, {"type": "note_off", "time": 89, "note": 65, "velocity": 100, "channel": 0}, {"type": "note_on", "time": 6, "note": 62, "velocity": 96, "channel": 0}, {"type": "note_off", "time": 86, "note": 62, "velocity": 96, "channel": 0}, {"type": "note_on", "time": 9, "note": 58, "velocity": 84, "channel": 0}, {"type": "note_off", "time": 93, "note": 58, "velocity": 84, "channel": 0}, {"type": "note_on", "time": 15, "note": 55, "velocity": 83, "channel": 0}, {"type": "note_off", "time": 53, "note": 55, "velocity": 83, "channel": 0}, {"type": "note_on", "time": 38, "note": 60, "velocity": 97, "channel": 0}, {"type": "note_off", "time": 91, "note": 60, "velocity": 97, "channel": 0}, {"type": "note_on", "time": 13, "note": 59, "velocity": 89, "channel": 0}, {"type": "note_off", "time": 59, "note": 59, "velocity": 89, "channel": 0}, {"type": "note_on", "time": 14, "note": 58, "velocity": 79, "channel": 0}, {"type": "note_off", "time": 80, "note": 58, "velocity": 79, "channel": 0}, {"type": "note_on", "time": 9, "note": 60, "velocity": 99, "channel": 0}, {"type": "note_off", "time": 93, "note": 60, "velocity": 99, "channel": 0}, {"type": "note_on", "time": 8, "note": 61, "velocity": 97, "channel": 0}, {"type": "note_off", "time": 72, "note": 61, "velocity": 97, "channel": 0}, {"type": "note_on", "time": 16, "note": 64, "velocity": 89, "channel": 0}, {"type": "note_off", "time": 89, "note": 64, "velocity": 89, "channel": 0}, {"type": "note_on", "time": 7, "note": 69, "velocity": 107, "channel": 0}, {"type": "note_off", "time": 109, "note": 69, "velocity": 107, "channel": 0}, {"type": "note_on", "time": 10, "note": 67, "velocity": 97, "channel": 0}, {"type": "note_off", "time": 72, "note": 67, "velocity": 97, "channel": 0}, {"type": "note_on", "time": 7, "note": 64, "velocity": 94, "channel": 0}, {"type": "note_off", "time": 73, "note": 64, "velocity": 94, "channel": 0}, {"type": "note_on", "time": 22, "note": 60, "velocity": 95, "channel": 0}, {"type": "note_off", "time": 54, "note": 60, "velocity": 95, "channel": 0}, {"type": "note_on", "time": 11, "note": 62, "velocity": 96, "channel": 0}, {"type": "note_off", "time": 72, "note": 62, "velocity": 96, "channel": 0}, {"type": "note_on", "time": 9, "note": 65, "velocity": 91, "channel": 0}, {"type": "note_off", "time": 50, "note": 65, "velocity": 91, "channel": 0}, {"type": "note_on", "time": 4, "note": 69, "velocity": 97, "channel": 0}, {"type": "note_on", "time": 65, "note": 72, "velocity": 118, "channel": 0}, {"type": "note_off", "time": 0, "note": 69, "velocity": 97, "channel": 0}, {"type": "note_off", "time": 125, "note": 72, "velocity": 118, "channel": 0}, {"type": "note_on", "time": 105, "note": 60, "velocity": 92, "channel": 0}, {"type": "note_off", "time": 73, "note": 60, "velocity": 92, "channel": 0}, {"type": "note_on", "time": 15, "note": 62, "velocity": 98, "channel": 0}, {"type": "note_off", "time": 67, "note": 62, "velocity": 98, "channel": 0}, {"type": "note_on", "time": 8, "note": 63, "velocity": 106, "channel": 0}, {"type": "note_off", "time": 83, "note": 63, "velocity": 106, "channel": 0}, {"type": "note_on", "time": 4, "note": 66, "velocity": 89, "channel": 0}, {"type": "note_off", "time": 41, "note": 66, "velocity": 89, "channel": 0}, {"type": "note_on", "time": 6, "note": 69, "velocity": 97, "channel": 0}, {"type": "note_off", "time": 54, "note": 69, "velocity": 97, "channel": 0}, {"type": "note_on", "time": 8, "note": 72, "velocity": 117, "channel": 0}, {"type": "note_off", "time": 120, "note": 72, "velocity": 117, "channel": 0}, {"type": "note_on", "time": 130, "note": 58, "velocity": 80, "channel": 0}, {"type": "note_off", "time": 83, "note": 58, "velocity": 80, "channel": 0}, {"type": "note_on", "time": 3, "note": 60, "velocity": 96, "channel": 0}, {"type": "note_off", "time": 67, "note": 60, "velocity": 96, "channel": 0}, {"type": "note_on", "time": 2, "note": 61, "velocity": 91, "channel": 0}, {"type": "note_off", "time": 39, "note": 61, "velocity": 91, "channel": 0}, {"type": "note_on", "time": 6, "note": 64, "velocity": 80, "channel": 0}, {"type": "note_off", "time": 55, "note": 64, "velocity": 80, "channel": 0}, {"type": "note_on", "time": 43, "note": 68, "velocity": 95, "channel": 0}, {"type": "note_off", "time": 50, "note": 68, "velocity": 95, "channel": 0}, {"type": "note_on", "time": 5, "note": 72, "velocity": 122, "channel": 0}, {"type": "note_off", "time": 98, "note": 72, "velocity": 122, "channel": 0}, {"type": "note_on", "time": 11, "note": 68, "velocity": 105, "channel": 0}, {"type": "note_off", "time": 64, "note": 68, "velocity": 105, "channel": 0}, {"type": "note_on", "time": 6, "note": 63, "velocity": 96, "channel": 0}, {"type": "note_off", "time": 39, "note": 63, "velocity": 96, "channel": 0}, {"type": "note_on", "time": 8, "note": 61, "velocity": 98, "channel": 0}, {"type": "note_off", "time": 52, "note": 61, "velocity": 98, "channel": 0}, {"type": "note_on", "time": 10, "note": 58, "velocity": 87, "channel": 0}, {"type": "note_off", "time": 49, "note": 58, "velocity": 87, "channel": 0}, {"type": "note_on", "time": 15, "note": 52, "velocity": 88, "channel": 0}, {"type": "note_off", "time": 69, "note": 52, "velocity": 88, "channel": 0}, {"type": "note_on", "time": 7, "note": 53, "velocity": 94, "channel": 0}, {"type": "note_off", "time": 111, "note": 53, "velocity": 94, "channel": 0}, {"type": "note_on", "time": 711, "note": 60, "velocity": 102, "channel": 0}, {"type": "note_off", "time": 81, "note": 60, "velocity": 102, "channel": 0}, {"type": "note_on", "time": 19, "note": 57, "velocity": 88, "channel": 0}, {"type": "note_off", "time": 89, "note": 57, "velocity": 88, "channel": 0}, {"type": "note_on", "time": 20, "note": 53, "velocity": 82, "channel": 0}, {"type": "note_off", "time": 62, "note": 53, "velocity": 82, "channel": 0}, {"type": "note_on", "time": 15, "note": 61, "velocity": 110, "channel": 0}, {"type": "note_off", "time": 101, "note": 61, "velocity": 110, "channel": 0}, {"type": "note_on", "time": 20, "note": 57, "velocity": 90, "channel": 0}, {"type": "note_off", "time": 69, "note": 57, "velocity": 90, "channel": 0}, {"type": "note_on", "time": 20, "note": 52, "velocity": 86, "channel": 0}, {"type": "note_off", "time": 87, "note": 52, "velocity": 86, "channel": 0}, {"type": "note_on", "time": 16, "note": 53, "velocity": 89, "channel": 0}, {"type": "note_off", "time": 83, "note": 53, "velocity": 89, "channel": 0}, {"type": "note_on", "time": 20, "note": 55, "velocity": 86, "channel": 0}, {"type": "note_off", "time": 76, "note": 55, "velocity": 86, "channel": 0}, {"type": "note_on", "time": 9, "note": 57, "velocity": 85, "channel": 0}, {"type": "note_off", "time": 76, "note": 57, "velocity": 85, "channel": 0}, {"type": "note_on", "time": 58, "note": 61, "velocity": 109, "channel": 0}, {"type": "note_off", "time": 68, "note": 61, "velocity": 109, "channel": 0}, {"type": "note_on", "time": 15, "note": 62, "velocity": 89, "channel": 0}, {"type": "note_off", "time": 380, "note": 62, "velocity": 89, "channel": 0}, {"type": "note_on", "time": 665, "note": 55, "velocity": 90, "channel": 0}, {"type": "note_off", "time": 77, "note": 55, "velocity": 90, "channel": 0}, {"type": "note_on", "time": 11, "note": 58, "velocity": 81, "channel": 0}, {"type": "note_off", "time": 55, "note": 58, "velocity": 81, "channel": 0}, {"type": "note_on", "time": 13, "note": 62, "velocity": 105, "channel": 0}, {"type": "note_off", "time": 115, "note": 62, "velocity": 105, "channel": 0}, {"type": "note_on", "time": 74, "note": 67, "velocity": 116, "channel": 0}, {"type": "note_off", "time": 135, "note": 67, "velocity": 116, "channel": 0}, {"type": "note_on", "time": 9, "note": 66, "velocity": 102, "channel": 0}, {"type": "note_off", "time": 88, "note": 66, "velocity": 102, "channel": 0}, {"type": "note_on", "time": 6, "note": 65, "velocity": 98, "channel": 0}, {"type": "note_off", "time": 40, "note": 65, "velocity": 98, "channel": 0}, {"type": "note_on", "time": 6, "note": 62, "velocity": 94, "channel": 0}, {"type": "note_off", "time": 70, "note": 62, "velocity": 94, "channel": 0}, {"type": "note_on", "time": 16, "note": 58, "velocity": 79, "channel": 0}, {"type": "note_off", "time": 103, "note": 58, "velocity": 79, "channel": 0}, {"type": "note_on", "time": 23, "note": 60, "velocity": 95, "channel": 0}, {"type": "note_off", "time": 82, "note": 60, "velocity": 95, "channel": 0}, {"type": "note_on", "time": 8, "note": 61, "velocity": 107, "channel": 0}, {"type": "note_off", "time": 109, "note": 61, "velocity": 107, "channel": 0}, {"type": "note_on", "time": 89, "note": 69, "velocity": 116, "channel": 0}, {"type": "note_off", "time": 128, "note": 69, "velocity": 116, "channel": 0}, {"type": "note_on", "time": 8, "note": 68, "velocity": 110, "channel": 0}, {"type": "note_off", "time": 45, "note": 68, "velocity": 110, "channel": 0}, {"type": "note_on", "time": 7, "note": 67, "velocity": 102, "channel": 0}, {"type": "note_off", "time": 92, "note": 67, "velocity": 102, "channel": 0}, {"type": "note_on", "time": 6, "note": 64, "velocity": 99, "channel": 0}, {"type": "note_off", "time": 66, "note": 64, "velocity": 99, "channel": 0}, {"type": "note_on", "time": 32, "note": 60, "velocity": 93, "channel": 0}, {"type": "note_off", "time": 76, "note": 60, "velocity": 93, "channel": 0}, {"type": "note_on", "time": 10, "note": 62, "velocity": 101, "channel": 0}, {"type": "note_off", "time": 96, "note": 62, "velocity": 101, "channel": 0}, {"type": "note_on", "time": 7, "note": 64, "velocity": 95, "channel": 0}, {"type": "note_off", "time": 74, "note": 64, "velocity": 95, "channel": 0}, {"type": "note_on", "time": 10, "note": 67, "velocity": 94, "channel": 0}, {"type": "note_off", "time": 92, "note": 67, "velocity": 94, "channel": 0}, {"type": "note_on", "time": 10, "note": 72, "velocity": 127, "channel": 0}, {"type": "note_off", "time": 109, "note": 72, "velocity": 127, "channel": 0}, {"type": "note_on", "time": 15, "note": 71, "velocity": 111, "channel": 0}, {"type": "note_off", "time": 62, "note": 71, "velocity": 111, "channel": 0}, {"type": "note_on", "time": 6, "note": 70, "velocity": 105, "channel": 0}, {"type": "note_off", "time": 88, "note": 70, "velocity": 105, "channel": 0}, {"type": "note_on", "time": 31, "note": 68, "velocity": 107, "channel": 0}, {"type": "note_off", "time": 101, "note": 68, "velocity": 107, "channel": 0}, {"type": "note_on", "time": 6, "note": 67, "velocity": 103, "channel": 0}, {"type": "note_off", "time": 71, "note": 67, "velocity": 103, "channel": 0}, {"type": "note_on", "time": 7, "note": 65, "velocity": 111, "channel": 0}, {"type": "note_off", "time": 141, "note": 65, "velocity": 111, "channel": 0}, {"type": "note_on", "time": 5, "note": 64, "velocity": 102, "channel": 0}, {"type": "note_off", "time": 101, "note": 64, "velocity": 102, "channel": 0}, {"type": "note_on", "time": 48, "note": 60, "velocity": 86, "channel": 0}, {"type": "note_off", "time": 70, "note": 60, "velocity": 86, "channel": 0}, {"type": "note_on", "time": 33, "note": 62, "velocity": 103, "channel": 0}, {"type": "note_off", "time": 76, "note": 62, "velocity": 103, "channel": 0}, {"type": "note_on", "time": 11, "note": 64, "velocity": 102, "channel": 0}, {"type": "note_off", "time": 118, "note": 64, "velocity": 102, "channel": 0}, {"type": "note_on", "time": 11, "note": 65, "velocity": 108, "channel": 0}, {"type": "note_off", "time": 98, "note": 65, "velocity": 108, "channel": 0}, {"type": "note_on", "time": 7, "note": 67, "velocity": 107, "channel": 0}, {"type": "note_off", "time": 127, "note": 67, "velocity": 107, "channel": 0}, {"type": "note_on", "time": 4, "note": 68, "velocity": 117, "channel": 0}, {"type": "note_off", "time": 117, "note": 68, "velocity": 117, "channel": 0}, {"type": "note_on", "time": 286, "note": 58, "velocity": 88, "channel": 0}, {"type": "note_off", "time": 94, "note": 58, "velocity": 88, "channel": 0}, {"type": "note_on", "time": 12, "note": 60, "velocity": 103, "channel": 0}, {"type": "note_off", "time": 93, "note": 60, "velocity": 103, "channel": 0}, {"type": "note_on", "time": 10, "note": 61, "velocity": 102, "channel": 0}, {"type": "note_off", "time": 86, "note": 61, "velocity": 102, "channel": 0}, {"type": "note_on", "time": 8, "note": 63, "velocity": 100, "channel": 0}, {"type": "note_off", "time": 177, "note": 63, "velocity": 100, "channel": 0}, {"type": "note_on", "time": 96, "note": 58, "velocity": 76, "channel": 0}, {"type": "note_off", "time": 107, "note": 58, "velocity": 76, "channel": 0}, {"type": "note_on", "time": 21, "note": 60, "velocity": 100, "channel": 0}, {"type": "note_off", "time": 87, "note": 60, "velocity": 100, "channel": 0}, {"type": "note_on", "time": 10, "note": 61, "velocity": 103, "channel": 0}, {"type": "note_off", "time": 87, "note": 61, "velocity": 103, "channel": 0}, {"type": "note_on", "time": 28, "note": 63, "velocity": 106, "channel": 0}, {"type": "note_off", "time": 109, "note": 63, "velocity": 106, "channel": 0}, {"type": "note_on", "time": 15, "note": 65, "velocity": 104, "channel": 0}, {"type": "note_off", "time": 126, "note": 65, "velocity": 104, "channel": 0}, {"type": "note_on", "time": 13, "note": 70, "velocity": 91, "channel": 0}, {"type": "note_off", "time": 325, "note": 70, "velocity": 91, "channel": 0}, {"type": "note_on", "time": 774, "note": 75, "velocity": 121, "channel": 0}, {"type": "note_off", "time": 113, "note": 75, "velocity": 121, "channel": 0}, {"type": "note_on", "time": 8, "note": 72, "velocity": 118, "channel": 0}, {"type": "note_off", "time": 89, "note": 72, "velocity": 118, "channel": 0}, {"type": "note_on", "time": 10, "note": 68, "velocity": 106, "channel": 0}, {"type": "note_off", "time": 91, "note": 68, "velocity": 106, "channel": 0}, {"type": "note_on", "time": 13, "note": 63, "velocity": 100, "channel": 0}, {"type": "note_off", "time": 72, "note": 63, "velocity": 100, "channel": 0}, {"type": "note_on", "time": 10, "note": 61, "velocity": 101, "channel": 0}, {"type": "note_off", "time": 88, "note": 61, "velocity": 101, "channel": 0}, {"type": "note_on", "time": 12, "note": 62, "velocity": 99, "channel": 0}, {"type": "note_off", "time": 74, "note": 62, "velocity": 99, "channel": 0}, {"type": "note_on", "time": 7, "note": 67, "velocity": 107, "channel": 0}, {"type": "note_off", "time": 144, "note": 67, "velocity": 107, "channel": 0}, {"type": "note_on", "time": 50, "note": 72, "velocity": 125, "channel": 0}, {"type": "note_off", "time": 130, "note": 72, "velocity": 125, "channel": 0}, {"type": "note_on", "time": 10, "note": 71, "velocity": 112, "channel": 0}, {"type": "note_off", "time": 91, "note": 71, "velocity": 112, "channel": 0}, {"type": "note_on", "time": 2, "note": 69, "velocity": 109, "channel": 0}, {"type": "note_off", "time": 80, "note": 69, "velocity": 109, "channel": 0}, {"type": "note_on", "time": 5, "note": 67, "velocity": 106, "channel": 0}, {"type": "note_off", "time": 92, "note": 67, "velocity": 106, "channel": 0}, {"type": "note_on", "time": 8, "note": 66, "velocity": 99, "channel": 0}, {"type": "note_off", "time": 79, "note": 66, "velocity": 99, "channel": 0}, {"type": "note_on", "time": 7, "note": 64, "velocity": 100, "channel": 0}, {"type": "note_off", "time": 93, "note": 64, "velocity": 100, "channel": 0}, {"type": "note_on", "time": 6, "note": 62, "velocity": 101, "channel": 0}, {"type": "note_off", "time": 83, "note": 62, "velocity": 101, "channel": 0}, {"type": "note_on", "time": 6, "note": 60, "velocity": 93, "channel": 0}, {"type": "note_off", "time": 75, "note": 60, "velocity": 93, "channel": 0}, {"type": "note_on", "time": 21, "note": 59, "velocity": 92, "channel": 0}, {"type": "note_off", "time": 81, "note": 59, "velocity": 92, "channel": 0}, {"type": "note_on", "time": 16, "note": 57, "velocity": 92, "channel": 0}, {"type": "note_off", "time": 67, "note": 57, "velocity": 92, "channel": 0}, {"type": "note_on", "time": 32, "note": 54, "velocity": 77, "channel": 0}, {"type": "note_off", "time": 81, "note": 54, "velocity": 77, "channel": 0}, {"type": "note_on", "time": 11, "note": 55, "velocity": 86, "channel": 0}, {"type": "note_off", "time": 81, "note": 55, "velocity": 86, "channel": 0}, {"type": "note_on", "time": 48, "note": 59, "velocity": 86, "channel": 0}, {"type": "note_off", "time": 61, "note": 59, "velocity": 86, "channel": 0}, {"type": "note_on", "time": 12, "note": 62, "velocity": 107, "channel": 0}, {"type": "note_off", "time": 63, "note": 62, "velocity": 107, "channel": 0}, {"type": "note_on", "time": 8, "note": 66, "velocity": 110, "channel": 0}, {"type": "note_off", "time": 111, "note": 66, "velocity": 110, "channel": 0}, {"type": "note_on", "time": 13, "note": 64, "velocity": 103, "channel": 0}, {"type": "note_off", "time": 74, "note": 64, "velocity": 103, "channel": 0}, {"type": "note_on", "time": 26, "note": 63, "velocity": 107, "channel": 0}, {"type": "note_off", "time": 61, "note": 63, "velocity": 107, "channel": 0}, {"type": "note_on", "time": 12, "note": 62, "velocity": 105, "channel": 0}, {"type": "note_off", "time": 77, "note": 62, "velocity": 105, "channel": 0}, {"type": "note_on", "time": 14, "note": 61, "velocity": 105, "channel": 0}, {"type": "note_off", "time": 93, "note": 61, "velocity": 105, "channel": 0}, {"type": "note_on", "time": 14, "note": 60, "velocity": 96, "channel": 0}, {"type": "note_off", "time": 87, "note": 60, "velocity": 96, "channel": 0}, {"type": "note_on", "time": 15, "note": 59, "velocity": 97, "channel": 0}, {"type": "note_off", "time": 73, "note": 59, "velocity": 97, "channel": 0}, {"type": "note_on", "time": 13, "note": 58, "velocity": 93, "channel": 0}, {"type": "note_off", "time": 80, "note": 58, "velocity": 93, "channel": 0}, {"type": "note_on", "time": 31, "note": 57, "velocity": 89, "channel": 0}, {"type": "note_off", "time": 72, "note": 57, "velocity": 89, "channel": 0}, {"type": "note_on", "time": 14, "note": 55, "velocity": 90, "channel": 0}, {"type": "note_off", "time": 76, "note": 55, "velocity": 90, "channel": 0}, {"type": "note_on", "time": 32, "note": 53, "velocity": 92, "channel": 0}, {"type": "note_off", "time": 82, "note": 53, "velocity": 92, "channel": 0}, {"type": "note_on", "time": 19, "note": 52, "velocity": 82, "channel": 0}, {"type": "note_off", "time": 218, "note": 52, "velocity": 82, "channel": 0}, {"type": "note_on", "time": 22, "note": 53, "velocity": 81, "channel": 0}, {"type": "note_off", "time": 319, "note": 53, "velocity": 81, "channel": 0}, {"type": "note_on", "time": 17, "note": 57, "velocity": 89, "channel": 0}, {"type": "note_off", "time": 62, "note": 57, "velocity": 89, "channel": 0}, {"type": "note_on", "time": 32, "note": 60, "velocity": 98, "channel": 0}, {"type": "note_off", "time": 94, "note": 60, "velocity": 98, "channel": 0}, {"type": "note_on", "time": 105, "note": 57, "velocity": 79, "channel": 0}, {"type": "note_off", "time": 241, "note": 57, "velocity": 79, "channel": 0}, {"type": "note_on", "time": 27, "note": 61, "velocity": 106, "channel": 0}, {"type": "note_off", "time": 76, "note": 61, "velocity": 106, "channel": 0}, {"type": "note_on", "time": 8, "note": 64, "velocity": 101, "channel": 0}, {"type": "note_off", "time": 97, "note": 64, "velocity": 101, "channel": 0}, {"type": "note_on", "time": 113, "note": 61, "velocity": 104, "channel": 0}, {"type": "note_off", "time": 82, "note": 61, "velocity": 104, "channel": 0}, {"type": "note_on", "time": 7, "note": 62, "velocity": 99, "channel": 0}, {"type": "note_off", "time": 66, "note": 62, "velocity": 99, "channel": 0}, {"type": "note_on", "time": 8, "note": 65, "velocity": 84, "channel": 0}, {"type": "note_off", "time": 110, "note": 65, "velocity": 84, "channel": 0}, {"type": "note_on", "time": 1, "note": 69, "velocity": 94, "channel": 0}, {"type": "note_off", "time": 70, "note": 69, "velocity": 94, "channel": 0}, {"type": "note_on", "time": 4, "note": 74, "velocity": 104, "channel": 0}, {"type": "note_off", "time": 230, "note": 74, "velocity": 104, "channel": 0}, {"type": "note_on", "time": 71, "note": 74, "velocity": 99, "channel": 0}, {"type": "note_off", "time": 88, "note": 74, "velocity": 99, "channel": 0}, {"type": "note_on", "time": 1168, "note": 77, "velocity": 106, "channel": 0}, {"type": "note_off", "time": 85, "note": 77, "velocity": 106, "channel": 0}, {"type": "note_on", "time": 10, "note": 74, "velocity": 116, "channel": 0}, {"type": "note_off", "time": 85, "note": 74, "velocity": 116, "channel": 0}, {"type": "note_on", "time": 16, "note": 70, "velocity": 99, "channel": 0}, {"type": "note_off", "time": 91, "note": 70, "velocity": 99, "channel": 0}, {"type": "note_on", "time": 17, "note": 67, "velocity": 90, "channel": 0}, {"type": "note_off", "time": 66, "note": 67, "velocity": 90, "channel": 0}, {"type": "note_on", "time": 26, "note": 62, "velocity": 106, "channel": 0}, {"type": "note_off", "time": 89, "note": 62, "velocity": 106, "channel": 0}, {"type": "note_on", "time": 15, "note": 65, "velocity": 109, "channel": 0}, {"type": "note_off", "time": 95, "note": 65, "velocity": 109, "channel": 0}, {"type": "note_on", "time": 5, "note": 64, "velocity": 97, "channel": 0}, {"type": "note_off", "time": 84, "note": 64, "velocity": 97, "channel": 0}, {"type": "note_on", "time": 5, "note": 62, "velocity": 98, "channel": 0}, {"type": "note_off", "time": 63, "note": 62, "velocity": 98, "channel": 0}, {"type": "note_on", "time": 13, "note": 61, "velocity": 95, "channel": 0}, {"type": "note_off", "time": 73, "note": 61, "velocity": 95, "channel": 0}, {"type": "note_on", "time": 12, "note": 64, "velocity": 94, "channel": 0}, {"type": "note_off", "time": 78, "note": 64, "velocity": 94, "channel": 0}, {"type": "note_on", "time": 8, "note": 67, "velocity": 92, "channel": 0}, {"type": "note_off", "time": 101, "note": 67, "velocity": 92, "channel": 0}, {"type": "note_on", "time": 11, "note": 71, "velocity": 114, "channel": 0}, {"type": "note_off", "time": 77, "note": 71, "velocity": 114, "channel": 0}, {"type": "note_on", "time": 10, "note": 72, "velocity": 120, "channel": 0}, {"type": "note_off", "time": 103, "note": 72, "velocity": 120, "channel": 0}, {"type": "note_on", "time": 6, "note": 69, "velocity": 102, "channel": 0}, {"type": "note_off", "time": 63, "note": 69, "velocity": 102, "channel": 0}, {"type": "note_on", "time": 34, "note": 65, "velocity": 92, "channel": 0}, {"type": "note_off", "time": 70, "note": 65, "velocity": 92, "channel": 0}, {"type": "note_on", "time": 9, "note": 60, "velocity": 90, "channel": 0}, {"type": "note_off", "time": 64, "note": 60, "velocity": 90, "channel": 0}, {"type": "note_on", "time": 34, "note": 57, "velocity": 87, "channel": 0}, {"type": "note_off", "time": 68, "note": 57, "velocity": 87, "channel": 0}, {"type": "note_on", "time": 22, "note": 60, "velocity": 95, "channel": 0}, {"type": "note_off", "time": 67, "note": 60, "velocity": 95, "channel": 0}, {"type": "note_on", "time": 32, "note": 58, "velocity": 83, "channel": 0}, {"type": "note_off", "time": 96, "note": 58, "velocity": 83, "channel": 0}, {"type": "note_on", "time": 8, "note": 57, "velocity": 82, "channel": 0}, {"type": "note_off", "time": 83, "note": 57, "velocity": 82, "channel": 0}, {"type": "note_on", "time": 9, "note": 55, "velocity": 87, "channel": 0}, {"type": "note_off", "time": 95, "note": 55, "velocity": 87, "channel": 0}, {"type": "note_on", "time": 10, "note": 58, "velocity": 81, "channel": 0}, {"type": "note_off", "time": 60, "note": 58, "velocity": 81, "channel": 0}, {"type": "note_on", "time": 31, "note": 62, "velocity": 101, "channel": 0}, {"type": "note_off", "time": 76, "note": 62, "velocity": 101, "channel": 0}, {"type": "note_on", "time": 14, "note": 65, "velocity": 103, "channel": 0}, {"type": "note_off", "time": 95, "note": 65, "velocity": 103, "channel": 0}, {"type": "note_on", "time": 6, "note": 66, "velocity": 101, "channel": 0}, {"type": "note_off", "time": 86, "note": 66, "velocity": 101, "channel": 0}, {"type": "note_on", "time": 18, "note": 64, "velocity": 96, "channel": 0}, {"type": "note_off", "time": 71, "note": 64, "velocity": 96, "channel": 0}, {"type": "note_on", "time": 9, "note": 63, "velocity": 100, "channel": 0}, {"type": "note_off", "time": 96, "note": 63, "velocity": 100, "channel": 0}, {"type": "note_on", "time": 11, "note": 61, "velocity": 96, "channel": 0}, {"type": "note_off", "time": 90, "note": 61, "velocity": 96, "channel": 0}, {"type": "note_on", "time": 12, "note": 60, "velocity": 90, "channel": 0}, {"type": "note_off", "time": 76, "note": 60, "velocity": 90, "channel": 0}, {"type": "note_on", "time": 9, "note": 58, "velocity": 87, "channel": 0}, {"type": "note_off", "time": 77, "note": 58, "velocity": 87, "channel": 0}, {"type": "note_on", "time": 21, "note": 56, "velocity": 89, "channel": 0}, {"type": "note_off", "time": 78, "note": 56, "velocity": 89, "channel": 0}, {"type": "note_on", "time": 13, "note": 55, "velocity": 87, "channel": 0}, {"type": "note_off", "time": 54, "note": 55, "velocity": 87, "channel": 0}, {"type": "note_on", "time": 30, "note": 53, "velocity": 110, "channel": 0}, {"type": "note_off", "time": 64, "note": 53, "velocity": 110, "channel": 0}, {"type": "end_of_track", "time": 0}]]}