{"ticks_per_beat": 840, "tracks": [[{"type": "track_name", "name": "Melody", "time": 0}, {"type": "set_tempo", "tempo": 441176, "time": 0}, {"type": "key_signature", "key": "Eb", "time": 0}, {"type": "time_signature", "numerator": 6, "denominator": 4, "clocks_per_click": 24, "notated_32nd_notes_per_beat": 8, "time": 0}, {"type": "note_on", "time": 11826, "note": 60, "velocity": 111, "channel": 0}, {"type": "note_off", "time": 221, "note": 60, "velocity": 111, "channel": 0}, {"type": "note_on", "time": 0, "note": 62, "velocity": 121, "channel": 0}, {"type": "note_off", "time": 287, "note": 62, "velocity": 121, "channel": 0}, {"type": "note_on", "time": 0, "note": 63, "velocity": 122, "channel": 0}, {"type": "note_off", "time": 265, "note": 63, "velocity": 122, "channel": 0}, {"type": "note_on", "time": 77, "note": 65, "velocity": 120, "channel": 0}, {"type": "note_off", "time": 187, "note": 65, "velocity": 120, "channel": 0}, {"type": "note_on", "time": 0, "note": 67, "velocity": 121, "channel": 0}, {"type": "note_off", "time": 254, "note": 67, "velocity": 121, "channel": 0}, {"type": "note_on", "time": 77, "note": 69, "velocity": 116, "channel": 0}, {"type": "note_off", "time": 187, "note": 69, "velocity": 116, "channel": 0}, {"type": "note_on", "time": 132, "note": 70, "velocity": 116, "channel": 0}, {"type": "note_off", "time": 210, "note": 70, "velocity": 116, "channel": 0}, {"type": "note_on", "time": 0, "note": 72, "velocity": 114, "channel": 0}, {"type": "note_off", "time": 254, "note": 72, "velocity": 114, "channel": 0}, {"type": "note_on", "time": 44, "note": 67, "velocity": 112, "channel": 0}, {"type": "note_off", "time": 243, "note": 67, "velocity": 112, "channel": 0}, {"type": "note_on", "time": 88, "note": 70, "velocity": 112, "channel": 0}, {"type": "note_off", "time": 1215, "note": 70, "velocity": 112, "channel": 0}, {"type": "note_on", "time": 11, "note": 67, "velocity": 110, "channel": 0}, {"type": "note_off", "time": 276, "note": 67, "velocity": 110, "channel": 0}, {"type": "note_on", "time": 0, "note": 65, "velocity": 109, "channel": 0}, {"type": "note_on", "time": 265, "note": 63, "velocity": 117, "channel": 0}, {"type": "note_off", "time": 0, "note": 65, "velocity": 109, "channel": 0}, {"type": "note_off", "time": 254, "note": 63, "velocity": 117, "channel": 0}, {"type": "note_on", "time": 22, "note": 65, "velocity": 111, "channel": 0}, {"type": "note_off", "time": 265, "note": 65, "velocity": 111, "channel": 0}, {"type": "note_on", "time": 99, "note": 60, "velocity": 109, "channel": 0}, {"type": "note_off", "time": 900, "note": 60, "velocity": 109, "channel": 0}, {"type": "note_on", "time": 2586, "note": 60, "velocity": 120, "channel": 0}, {"type": "note_off", "time": 426, "note": 60, "velocity": 120, "channel": 0}, {"type": "note_on", "time": 110, "note": 55, "velocity": 98, "channel": 0}, {"type": "note_off", "time": 292, "note": 55, "velocity": 98, "channel": 0}, {"type": "note_on", "time": 0, "note": 60, "velocity": 114, "channel": 0}, {"type": "note_off", "time": 1353, "note": 60, "velocity": 114, "channel": 0}, {"type": "note_on", "time": 2111, "note": 60, "velocity": 121, "channel": 0}, {"type": "note_off", "time": 506, "note": 60, "velocity": 121, "channel": 0}, {"type": "note_on", "time": 0, "note": 55, "velocity": 121, "channel": 0}, {"type": "note_off", "time": 318, "note": 55, "velocity": 121, "channel": 0}, {"type": "note_on", "time": 14, "note": 60, "velocity": 116, "channel": 0}, {"type": "note_off", "time": 453, "note": 60, "velocity": 116, "channel": 0}, {"type": "note_on", "time": 53, "note": 55, "velocity": 99, "channel": 0}, {"type": "note_off", "time": 245, "note": 55, "velocity": 99, "channel": 0}, {"type": "note_on", "time": 0, "note": 59, "velocity": 107, "channel": 0}, {"type": "note_off", "time": 77, "note": 59, "velocity": 107, "channel": 0}, {"type": "note_on", "time": 0, "note": 60, "velocity": 116, "channel": 0}, {"type": "note_off", "time": 541, "note": 60, "velocity": 116, "channel": 0}, {"type": "note_on", "time": 33, "note": 55, "velocity": 106, "channel": 0}, {"type": "note_off", "time": 243, "note": 55, "velocity": 106, "channel": 0}, {"type": "note_on", "time": 22, "note": 53, "velocity": 103, "channel": 0}, {"type": "note_off", "time": 585, "note": 53, "velocity": 103, "channel": 0}, {"type": "note_on", "time": 11, "note": 55, "velocity": 106, "channel": 0}, {"type": "note_off", "time": 386, "note": 55, "velocity": 106, "channel": 0}, {"type": "note_on", "time": 3802, "note": 56, "velocity": 112, "channel": 0}, {"type": "note_off", "time": 773, "note": 56, "velocity": 112, "channel": 0}, {"type": "note_on", "time": 44, "note": 58, "velocity": 110, "channel": 0}, {"type": "note_off", "time": 453, "note": 58, "velocity": 110, "channel": 0}, {"type": "note_on", "time": 0, "note": 60, "velocity": 116, "channel": 0}, {"type": "note_off", "time": 447, "note": 60, "velocity": 116, "channel": 0}, {"type": "note_on", "time": 93, "note": 63, "velocity": 120, "channel": 0}, {"type": "note_off", "time": 519, "note": 63, "velocity": 120, "channel": 0}, {"type": "note_on", "time": 77, "note": 65, "velocity": 118, "channel": 0}, {"type": "note_off", "time": 453, "note": 65, "velocity": 118, "channel": 0}, {"type": "note_on", "time": 22, "note": 67, "velocity": 112, "channel": 0}, {"type": "note_off", "time": 309, "note": 67, "velocity": 112, "channel": 0}, {"type": "note_on", "time": 215, "note": 68, "velocity": 115, "channel": 0}, {"type": "note_off", "time": 497, "note": 68, "velocity": 115, "channel": 0}, {"type": "note_on", "time": 5, "note": 70, "velocity": 113, "channel": 0}, {"type": "note_off", "time": 342, "note": 70, "velocity": 113, "channel": 0}, {"type": "note_on", "time": 243, "note": 72, "velocity": 106, "channel": 0}, {"type": "note_off", "time": 370, "note": 72, "velocity": 106, "channel": 0}, {"type": "note_on", "time": 204, "note": 74, "velocity": 110, "channel": 0}, {"type": "note_off", "time": 342, "note": 74, "velocity": 110, "channel": 0}, {"type": "note_on", "time": 320, "note": 74, "velocity": 114, "channel": 0}, {"type": "note_off", "time": 226, "note": 74, "velocity": 114, "channel": 0}, {"type": "note_on", "time": 0, "note": 75, "velocity": 116, "channel": 0}, {"type": "note_off", "time": 348, "note": 75, "velocity": 116, "channel": 0}, {"type": "note_on", "time": 0, "note": 74, "velocity": 108, "channel": 0}, {"type": "note_off", "time": 265, "note": 74, "velocity": 108, "channel": 0}, {"type": "note_on", "time": 11, "note": 72, "velocity": 113, "channel": 0}, {"type": "note_off", "time": 176, "note": 72, "velocity": 113, "channel": 0}, {"type": "note_on", "time": 27, "note": 70, "velocity": 113, "channel": 0}, {"type": "note_off", "time": 149, "note": 70, "velocity": 113, "channel": 0}, {"type": "note_on", "time": 71, "note": 67, "velocity": 111, "channel": 0}, {"type": "note_off", "time": 1353, "note": 67, "velocity": 111, "channel": 0}, {"type": "note_on", "time": 49, "note": 65, "velocity": 113, "channel": 0}, {"type": "note_off", "time": 270, "note": 65, "velocity": 113, "channel": 0}, {"type": "note_on", "time": 1967, "note": 70, "velocity": 116, "channel": 0}, {"type": "note_off", "time": 276, "note": 70, "velocity": 116, "channel": 0}, {"type": "note_on", "time": 0, "note": 69, "velocity": 113, "channel": 0}, {"type": "note_off", "time": 254, "note": 69, "velocity": 113, "channel": 0}, {"type": "note_on", "time": 44, "note": 67, "velocity": 112, "channel": 0}, {"type": "note_off", "time": 165, "note": 67, "velocity": 112, "channel": 0}, {"type": "note_on", "time": 0, "note": 65, "velocity": 111, "channel": 0}, {"type": "note_off", "time": 265, "note": 65, "velocity": 111, "channel": 0}, {"type": "note_on", "time": 132, "note": 62, "velocity": 116, "channel": 0}, {"type": "note_off", "time": 93, "note": 62, "velocity": 116, "channel": 0}, {"type": "note_on", "time": 22, "note": 63, "velocity": 119, "channel": 0}, {"type": "note_off", "time": 607, "note": 63, "velocity": 119, "channel": 0}, {"type": "note_on", "time": 88, "note": 62, "velocity": 114, "channel": 0}, {"type": "note_off", "time": 1762, "note": 62, "velocity": 114, "channel": 0}, {"type": "note_on", "time": 38, "note": 60, "velocity": 107, "channel": 0}, {"type": "note_off", "time": 193, "note": 60, "velocity": 107, "channel": 0}, {"type": "note_on", "time": 33, "note": 67, "velocity": 114, "channel": 0}, {"type": "note_off", "time": 243, "note": 67, "velocity": 114, "channel": 0}, {"type": "note_on", "time": 0, "note": 65, "velocity": 116, "channel": 0}, {"type": "note_off", "time": 187, "note": 65, "velocity": 116, "channel": 0}, {"type": "note_on", "time": 11, "note": 63, "velocity": 120, "channel": 0}, {"type": "note_off", "time": 221, "note": 63, "velocity": 120, "channel": 0}, {"type": "note_on", "time": 27, "note": 56, "velocity": 104, "channel": 0}, {"type": "note_off", "time": 193, "note": 56, "velocity": 104, "channel": 0}, {"type": "note_on", "time": 33, "note": 55, "velocity": 104, "channel": 0}, {"type": "note_off", "time": 618, "note": 55, "velocity": 104, "channel": 0}, {"type": "note_on", "time": 22, "note": 58, "velocity": 106, "channel": 0}, {"type": "note_off", "time": 143, "note": 58, "velocity": 106, "channel": 0}, {"type": "note_on", "time": 33, "note": 60, "velocity": 110, "channel": 0}, {"type": "note_off", "time": 210, "note": 60, "velocity": 110, "channel": 0}, {"type": "note_on", "time": 0, "note": 63, "velocity": 113, "channel": 0}, {"type": "note_off", "time": 77, "note": 63, "velocity": 113, "channel": 0}, {"type": "note_on", "time": 3127, "note": 71, "velocity": 112, "channel": 0}, {"type": "note_off", "time": 2000, "note": 71, "velocity": 112, "channel": 0}, {"type": "note_on", "time": 73, "note": 71, "velocity": 113, "channel": 0}, {"type": "note_off", "time": 210, "note": 71, "velocity": 113, "channel": 0}, {"type": "note_on", "time": 55, "note": 69, "velocity": 103, "channel": 0}, {"type": "note_off", "time": 276, "note": 69, "velocity": 103, "channel": 0}, {"type": "note_on", "time": 17, "note": 71, "velocity": 113, "channel": 0}, {"type": "note_off", "time": 331, "note": 71, "velocity": 113, "channel": 0}, {"type": "note_on", "time": 58, "note": 74, "velocity": 112, "channel": 0}, {"type": "note_off", "time": 928, "note": 74, "velocity": 112, "channel": 0}, {"type": "note_on", "time": 918, "note": 67, "velocity": 108, "channel": 0}, {"type": "note_off", "time": 298, "note": 67, "velocity": 108, "channel": 0}, {"type": "note_on", "time": 110, "note": 68, "velocity": 100, "channel": 0}, {"type": "note_off", "time": 66, "note": 68, "velocity": 100, "channel": 0}, {"type": "note_on", "time": 10, "note": 70, "velocity": 111, "channel": 0}, {"type": "note_off", "time": 1702, "note": 70, "velocity": 111, "channel": 0}, {"type": "note_on", "time": 125, "note": 70, "velocity": 110, "channel": 0}, {"type": "note_off", "time": 193, "note": 70, "velocity": 110, "channel": 0}, {"type": "note_on", "time": 0, "note": 67, "velocity": 106, "channel": 0}, {"type": "note_off", "time": 287, "note": 67, "velocity": 106, "channel": 0}, {"type": "note_on", "time": 34, "note": 70, "velocity": 105, "channel": 0}, {"type": "note_off", "time": 464, "note": 70, "velocity": 105, "channel": 0}, {"type": "note_on", "time": 66, "note": 75, "velocity": 117, "channel": 0}, {"type": "note_off", "time": 2343, "note": 75, "velocity": 117, "channel": 0}, {"type": "note_on", "time": 99, "note": 71, "velocity": 102, "channel": 0}, {"type": "note_off", "time": 66, "note": 71, "velocity": 102, "channel": 0}, {"type": "note_on", "time": 30, "note": 77, "velocity": 104, "channel": 0}, {"type": "note_off", "time": 3197, "note": 77, "velocity": 104, "channel": 0}, {"type": "note_on", "time": 124, "note": 79, "velocity": 95, "channel": 0}, {"type": "note_off", "time": 291, "note": 79, "velocity": 95, "channel": 0}, {"type": "note_on", "time": 2969, "note": 74, "velocity": 118, "channel": 0}, {"type": "note_off", "time": 117, "note": 74, "velocity": 118, "channel": 0}, {"type": "note_on", "time": 0, "note": 75, "velocity": 127, "channel": 0}, {"type": "note_off", "time": 530, "note": 75, "velocity": 127, "channel": 0}, {"type": "note_on", "time": 265, "note": 74, "velocity": 113, "channel": 0}, {"type": "note_off", "time": 641, "note": 74, "velocity": 113, "channel": 0}, {"type": "note_on", "time": 14, "note": 72, "velocity": 115, "channel": 0}, {"type": "note_off", "time": 296, "note": 72, "velocity": 115, "channel": 0}, {"type": "note_on", "time": 0, "note": 70, "velocity": 115, "channel": 0}, {"type": "note_off", "time": 182, "note": 70, "velocity": 115, "channel": 0}, {"type": "note_on", "time": 80, "note": 67, "velocity": 114, "channel": 0}, {"type": "note_off", "time": 217, "note": 67, "velocity": 114, "channel": 0}, {"type": "note_on", "time": 0, "note": 65, "velocity": 115, "channel": 0}, {"type": "note_off", "time": 178, "note": 65, "velocity": 115, "channel": 0}, {"type": "note_on", "time": 15, "note": 63, "velocity": 116, "channel": 0}, {"type": "note_off", "time": 232, "note": 63, "velocity": 116, "channel": 0}, {"type": "note_on", "time": 29, "note": 60, "velocity": 114, "channel": 0}, {"type": "note_off", "time": 740, "note": 60, "velocity": 114, "channel": 0}, {"type": "note_on", "time": 167, "note": 63, "velocity": 117, "channel": 0}, {"type": "note_off", "time": 342, "note": 63, "velocity": 117, "channel": 0}, {"type": "note_on", "time": 1903, "note": 60, "velocity": 105, "channel": 0}, {"type": "note_off", "time": 209, "note": 60, "velocity": 105, "channel": 0}, {"type": "note_on", "time": 119, "note": 63, "velocity": 114, "channel": 0}, {"type": "note_off", "time": 165, "note": 63, "velocity": 114, "channel": 0}, {"type": "note_on", "time": 0, "note": 65, "velocity": 107, "channel": 0}, {"type": "note_off", "time": 1337, "note": 65, "velocity": 107, "channel": 0}, {"type": "note_on", "time": 13, "note": 63, "velocity": 107, "channel": 0}, {"type": "note_off", "time": 221, "note": 63, "velocity": 107, "channel": 0}, {"type": "note_on", "time": 7, "note": 66, "velocity": 109, "channel": 0}, {"type": "note_off", "time": 97, "note": 66, "velocity": 109, "channel": 0}, {"type": "note_on", "time": 2, "note": 67, "velocity": 112, "channel": 0}, {"type": "note_off", "time": 707, "note": 67, "velocity": 112, "channel": 0}, {"type": "note_on", "time": 5, "note": 63, "velocity": 114, "channel": 0}, {"type": "note_off", "time": 486, "note": 63, "velocity": 114, "channel": 0}, {"type": "note_on", "time": 61, "note": 60, "velocity": 99, "channel": 0}, {"type": "note_off", "time": 396, "note": 60, "velocity": 99, "channel": 0}, {"type": "note_on", "time": 1571, "note": 67, "velocity": 88, "channel": 0}, {"type": "note_off", "time": 52, "note": 67, "velocity": 88, "channel": 0}, {"type": "note_on", "time": 11, "note": 68, "velocity": 109, "channel": 0}, {"type": "note_off", "time": 453, "note": 68, "velocity": 109, "channel": 0}, {"type": "note_on", "time": 43, "note": 65, "velocity": 109, "channel": 0}, {"type": "note_off", "time": 298, "note": 65, "velocity": 109, "channel": 0}, {"type": "note_on", "time": 1, "note": 63, "velocity": 113, "channel": 0}, {"type": "note_off", "time": 254, "note": 63, "velocity": 113, "channel": 0}, {"type": "note_on", "time": 6, "note": 58, "velocity": 103, "channel": 0}, {"type": "note_off", "time": 284, "note": 58, "velocity": 103, "channel": 0}, {"type": "note_on", "time": 0, "note": 56, "velocity": 106, "channel": 0}, {"type": "note_off", "time": 159, "note": 56, "velocity": 106, "channel": 0}, {"type": "note_on", "time": 111, "note": 55, "velocity": 102, "channel": 0}, {"type": "note_off", "time": 1853, "note": 55, "velocity": 102, "channel": 0}, {"type": "note_on", "time": 36, "note": 63, "velocity": 105, "channel": 0}, {"type": "note_off", "time": 154, "note": 63, "velocity": 105, "channel": 0}, {"type": "note_on", "time": 2993, "note": 55, "velocity": 95, "channel": 0}, {"type": "note_off", "time": 241, "note": 55, "velocity": 95, "channel": 0}, {"type": "note_on", "time": 70, "note": 60, "velocity": 110, "channel": 0}, {"type": "note_on", "time": 272, "note": 57, "velocity": 106, "channel": 0}, {"type": "note_off", "time": 0, "note": 60, "velocity": 110, "channel": 0}, {"type": "note_off", "time": 250, "note": 57, "velocity": 106, "channel": 0}, {"type": "note_on", "time": 40, "note": 62, "velocity": 110, "channel": 0}, {"type": "note_off", "time": 243, "note": 62, "velocity": 110, "channel": 0}, {"type": "note_on", "time": 4, "note": 57, "velocity": 98, "channel": 0}, {"type": "note_off", "time": 1000, "note": 57, "velocity": 98, "channel": 0}, {"type": "note_on", "time": 200, "note": 63, "velocity": 114, "channel": 0}, {"type": "note_off", "time": 243, "note": 63, "velocity": 114, "channel": 0}, {"type": "note_on", "time": 9, "note": 60, "velocity": 115, "channel": 0}, {"type": "note_off", "time": 187, "note": 60, "velocity": 115, "channel": 0}, {"type": "note_on", "time": 116, "note": 65, "velocity": 110, "channel": 0}, {"type": "note_off", "time": 232, "note": 65, "velocity": 110, "channel": 0}, {"type": "note_on", "time": 51, "note": 62, "velocity": 114, "channel": 0}, {"type": "note_off", "time": 210, "note": 62, "velocity": 114, "channel": 0}, {"type": "note_on", "time": 11, "note": 67, "velocity": 114, "channel": 0}, {"type": "note_off", "time": 243, "note": 67, "velocity": 114, "channel": 0}, {"type": "note_on", "time": 55, "note": 63, "velocity": 109, "channel": 0}, {"type": "note_off", "time": 187, "note": 63, "velocity": 109, "channel": 0}, {"type": "note_on", "time": 55, "note": 69, "velocity": 111, "channel": 0}, {"type": "note_off", "time": 232, "note": 69, "velocity": 111, "channel": 0}, {"type": "note_on", "time": 77, "note": 65, "velocity": 104, "channel": 0}, {"type": "note_off", "time": 198, "note": 65, "velocity": 104, "channel": 0}, {"type": "note_on", "time": 33, "note": 70, "velocity": 110, "channel": 0}, {"type": "note_off", "time": 232, "note": 70, "velocity": 110, "channel": 0}, {"type": "note_on", "time": 0, "note": 67, "velocity": 100, "channel": 0}, {"type": "note_off", "time": 210, "note": 67, "velocity": 100, "channel": 0}, {"type": "note_on", "time": 88, "note": 72, "velocity": 120, "channel": 0}, {"type": "note_off", "time": 265, "note": 72, "velocity": 120, "channel": 0}, {"type": "note_on", "time": 831, "note": 56, "velocity": 104, "channel": 0}, {"type": "note_off", "time": 457, "note": 56, "velocity": 104, "channel": 0}, {"type": "note_on", "time": 106, "note": 55, "velocity": 102, "channel": 0}, {"type": "note_off", "time": 97, "note": 55, "velocity": 102, "channel": 0}, {"type": "note_on", "time": 0, "note": 58, "velocity": 100, "channel": 0}, {"type": "note_off", "time": 1280, "note": 58, "velocity": 100, "channel": 0}, {"type": "note_on", "time": 0, "note": 56, "velocity": 106, "channel": 0}, {"type": "note_off", "time": 298, "note": 56, "velocity": 106, "channel": 0}, {"type": "note_on", "time": 31, "note": 55, "velocity": 96, "channel": 0}, {"type": "note_off", "time": 205, "note": 55, "velocity": 96, "channel": 0}, {"type": "note_on", "time": 29, "note": 56, "velocity": 104, "channel": 0}, {"type": "note_off", "time": 186, "note": 56, "velocity": 104, "channel": 0}, {"type": "note_on", "time": 0, "note": 60, "velocity": 100, "channel": 0}, {"type": "note_off", "time": 170, "note": 60, "velocity": 100, "channel": 0}, {"type": "note_on", "time": 9, "note": 63, "velocity": 120, "channel": 0}, {"type": "note_off", "time": 93, "note": 63, "velocity": 120, "channel": 0}, {"type": "note_on", "time": 5, "note": 67, "velocity": 113, "channel": 0}, {"type": "note_off", "time": 157, "note": 67, "velocity": 113, "channel": 0}, {"type": "note_on", "time": 646, "note": 62, "velocity": 114, "channel": 0}, {"type": "note_off", "time": 232, "note": 62, "velocity": 114, "channel": 0}, {"type": "note_on", "time": 0, "note": 65, "velocity": 116, "channel": 0}, {"type": "note_off", "time": 740, "note": 65, "velocity": 116, "channel": 0}, {"type": "note_on", "time": 1570, "note": 63, "velocity": 119, "channel": 0}, {"type": "note_off", "time": 171, "note": 63, "velocity": 119, "channel": 0}, {"type": "note_on", "time": 13, "note": 62, "velocity": 115, "channel": 0}, {"type": "note_off", "time": 265, "note": 62, "velocity": 115, "channel": 0}, {"type": "note_on", "time": 118, "note": 63, "velocity": 101, "channel": 0}, {"type": "note_off", "time": 110, "note": 63, "velocity": 101, "channel": 0}, {"type": "note_on", "time": 110, "note": 67, "velocity": 101, "channel": 0}, {"type": "note_off", "time": 97, "note": 67, "velocity": 101, "channel": 0}, {"type": "note_on", "time": 0, "note": 70, "velocity": 104, "channel": 0}, {"type": "note_off", "time": 91, "note": 70, "velocity": 104, "channel": 0}, {"type": "note_on", "time": 11, "note": 73, "velocity": 110, "channel": 0}, {"type": "note_off", "time": 69, "note": 73, "velocity": 110, "channel": 0}, {"type": "note_on", "time": 0, "note": 74, "velocity": 110, "channel": 0}, {"type": "note_off", "time": 1174, "note": 74, "velocity": 110, "channel": 0}, {"type": "note_on", "time": 5, "note": 72, "velocity": 114, "channel": 0}, {"type": "note_on", "time": 221, "note": 70, "velocity": 115, "channel": 0}, {"type": "note_off", "time": 0, "note": 72, "velocity": 114, "channel": 0}, {"type": "note_off", "time": 110, "note": 70, "velocity": 115, "channel": 0}, {"type": "note_on", "time": 0, "note": 68, "velocity": 115, "channel": 0}, {"type": "note_off", "time": 121, "note": 68, "velocity": 115, "channel": 0}, {"type": "note_on", "time": 0, "note": 67, "velocity": 110, "channel": 0}, {"type": "note_off", "time": 1414, "note": 67, "velocity": 110, "channel": 0}, {"type": "note_on", "time": 38, "note": 70, "velocity": 109, "channel": 0}, {"type": "note_off", "time": 357, "note": 70, "velocity": 109, "channel": 0}, {"type": "note_on", "time": 56, "note": 67, "velocity": 100, "channel": 0}, {"type": "note_off", "time": 427, "note": 67, "velocity": 100, "channel": 0}, {"type": "note_on", "time": 61, "note": 62, "velocity": 111, "channel": 0}, {"type": "note_off", "time": 149, "note": 62, "velocity": 111, "channel": 0}, {"type": "note_on", "time": 31, "note": 63, "velocity": 116, "channel": 0}, {"type": "note_off", "time": 126, "note": 63, "velocity": 116, "channel": 0}, {"type": "note_on", "time": 0, "note": 62, "velocity": 115, "channel": 0}, {"type": "note_off", "time": 93, "note": 62, "velocity": 115, "channel": 0}, {"type": "note_on", "time": 11, "note": 63, "velocity": 117, "channel": 0}, {"type": "note_off", "time": 85, "note": 63, "velocity": 117, "channel": 0}, {"type": "note_on", "time": 13, "note": 62, "velocity": 113, "channel": 0}, {"type": "note_off", "time": 93, "note": 62, "velocity": 113, "channel": 0}, {"type": "note_on", "time": 3, "note": 63, "velocity": 117, "channel": 0}, {"type": "note_off", "time": 81, "note": 63, "velocity": 117, "channel": 0}, {"type": "note_on", "time": 17, "note": 62, "velocity": 116, "channel": 0}, {"type": "note_off", "time": 99, "note": 62, "velocity": 116, "channel": 0}, {"type": "note_on", "time": 7, "note": 63, "velocity": 114, "channel": 0}, {"type": "note_off", "time": 77, "note": 63, "velocity": 114, "channel": 0}, {"type": "note_on", "time": 71, "note": 62, "velocity": 115, "channel": 0}, {"type": "note_off", "time": 73, "note": 62, "velocity": 115, "channel": 0}, {"type": "note_on", "time": 33, "note": 63, "velocity": 110, "channel": 0}, {"type": "note_off", "time": 85, "note": 63, "velocity": 110, "channel": 0}, {"type": "note_on", "time": 11, "note": 62, "velocity": 114, "channel": 0}, {"type": "note_off", "time": 99, "note": 62, "velocity": 114, "channel": 0}, {"type": "note_on", "time": 11, "note": 63, "velocity": 113, "channel": 0}, {"type": "note_off", "time": 73, "note": 63, "velocity": 113, "channel": 0}, {"type": "note_on", "time": 11, "note": 62, "velocity": 116, "channel": 0}, {"type": "note_off", "time": 95, "note": 62, "velocity": 116, "channel": 0}, {"type": "note_on", "time": 23, "note": 63, "velocity": 114, "channel": 0}, {"type": "note_off", "time": 71, "note": 63, "velocity": 114, "channel": 0}, {"type": "note_on", "time": 0, "note": 62, "velocity": 111, "channel": 0}, {"type": "note_off", "time": 104, "note": 62, "velocity": 111, "channel": 0}, {"type": "note_on", "time": 97, "note": 60, "velocity": 109, "channel": 0}, {"type": "note_off", "time": 309, "note": 60, "velocity": 109, "channel": 0}, {"type": "note_on", "time": 5715, "note": 58, "velocity": 118, "channel": 0}, {"type": "note_on", "time": 254, "note": 59, "velocity": 9, "channel": 0}, {"type": "note_off", "time": 0, "note": 58, "velocity": 118, "channel": 0}, {"type": "note_off", "time": 1829, "note": 59, "velocity": 9, "channel": 0}, {"type": "note_on", "time": 66, "note": 57, "velocity": 93, "channel": 0}, {"type": "note_off", "time": 160, "note": 57, "velocity": 93, "channel": 0}, {"type": "note_on", "time": 97, "note": 59, "velocity": 100, "channel": 0}, {"type": "note_off", "time": 696, "note": 59, "velocity": 100, "channel": 0}, {"type": "note_on", "time": 44, "note": 62, "velocity": 112, "channel": 0}, {"type": "note_off", "time": 276, "note": 62, "velocity": 112, "channel": 0}, {"type": "note_on", "time": 1304, "note": 65, "velocity": 99, "channel": 0}, {"type": "note_on", "time": 1038, "note": 66, "velocity": 110, "channel": 0}, {"type": "note_off", "time": 0, "note": 65, "velocity": 99, "channel": 0}, {"type": "note_off", "time": 221, "note": 66, "velocity": 110, "channel": 0}, {"type": "note_on", "time": 0, "note": 68, "velocity": 105, "channel": 0}, {"type": "note_off", "time": 906, "note": 68, "velocity": 105, "channel": 0}, {"type": "note_on", "time": 77, "note": 71, "velocity": 107, "channel": 0}, {"type": "note_off", "time": 1171, "note": 71, "velocity": 107, "channel": 0}, {"type": "note_on", "time": 66, "note": 73, "velocity": 110, "channel": 0}, {"type": "note_off", "time": 187, "note": 73, "velocity": 110, "channel": 0}, {"type": "note_on", "time": 10, "note": 72, "velocity": 103, "channel": 0}, {"type": "note_off", "time": 54, "note": 72, "velocity": 103, "channel": 0}, {"type": "note_on", "time": 0, "note": 70, "velocity": 104, "channel": 0}, {"type": "note_off", "time": 66, "note": 70, "velocity": 104, "channel": 0}, {"type": "note_on", "time": 11, "note": 69, "velocity": 107, "channel": 0}, {"type": "note_off", "time": 154, "note": 69, "velocity": 107, "channel": 0}, {"type": "note_on", "time": 2, "note": 67, "velocity": 114, "channel": 0}, {"type": "note_off", "time": 58, "note": 67, "velocity": 114, "channel": 0}, {"type": "note_on", "time": 2, "note": 66, "velocity": 113, "channel": 0}, {"type": "note_off", "time": 71, "note": 66, "velocity": 113, "channel": 0}, {"type": "note_on", "time": 2, "note": 64, "velocity": 111, "channel": 0}, {"type": "note_off", "time": 102, "note": 64, "velocity": 111, "channel": 0}, {"type": "note_on", "time": 0, "note": 63, "velocity": 113, "channel": 0}, {"type": "note_off", "time": 127, "note": 63, "velocity": 113, "channel": 0}, {"type": "note_on", "time": 0, "note": 61, "velocity": 113, "channel": 0}, {"type": "note_off", "time": 97, "note": 61, "velocity": 113, "channel": 0}, {"type": "note_on", "time": 23, "note": 59, "velocity": 101, "channel": 0}, {"type": "note_off", "time": 99, "note": 59, "velocity": 101, "channel": 0}, {"type": "note_on", "time": 30, "note": 58, "velocity": 103, "channel": 0}, {"type": "note_off", "time": 71, "note": 58, "velocity": 103, "channel": 0}, {"type": "note_on", "time": 0, "note": 57, "velocity": 102, "channel": 0}, {"type": "note_off", "time": 73, "note": 57, "velocity": 102, "channel": 0}, {"type": "note_on", "time": 37, "note": 56, "velocity": 108, "channel": 0}, {"type": "note_off", "time": 88, "note": 56, "velocity": 108, "channel": 0}, {"type": "note_on", "time": 44, "note": 51, "velocity": 108, "channel": 0}, {"type": "note_off", "time": 105, "note": 51, "velocity": 108, "channel": 0}, {"type": "note_on", "time": 12, "note": 49, "velocity": 112, "channel": 0}, {"type": "note_off", "time": 164, "note": 49, "velocity": 112, "channel": 0}, {"type": "note_on", "time": 54, "note": 48, "velocity": 107, "channel": 0}, {"type": "note_off", "time": 106, "note": 48, "velocity": 107, "channel": 0}, {"type": "note_on", "time": 1330, "note": 60, "velocity": 105, "channel": 0}, {"type": "note_off", "time": 273, "note": 60, "velocity": 105, "channel": 0}, {"type": "note_on", "time": 105, "note": 63, "velocity": 110, "channel": 0}, {"type": "note_off", "time": 198, "note": 63, "velocity": 110, "channel": 0}, {"type": "note_on", "time": 44, "note": 65, "velocity": 102, "channel": 0}, {"type": "note_off", "time": 165, "note": 65, "velocity": 102, "channel": 0}, {"type": "note_on", "time": 1030, "note": 60, "velocity": 107, "channel": 0}, {"type": "note_off", "time": 243, "note": 60, "velocity": 107, "channel": 0}, {"type": "note_on", "time": 63, "note": 63, "velocity": 116, "channel": 0}, {"type": "note_off", "time": 232, "note": 63, "velocity": 116, "channel": 0}, {"type": "note_on", "time": 33, "note": 65, "velocity": 116, "channel": 0}, {"type": "note_off", "time": 165, "note": 65, "velocity": 116, "channel": 0}, {"type": "note_on", "time": 930, "note": 60, "velocity": 102, "channel": 0}, {"type": "note_off", "time": 232, "note": 60, "velocity": 102, "channel": 0}, {"type": "note_on", "time": 30, "note": 63, "velocity": 115, "channel": 0}, {"type": "note_off", "time": 243, "note": 63, "velocity": 115, "channel": 0}, {"type": "note_on", "time": 65, "note": 65, "velocity": 82, "channel": 0}, {"type": "note_off", "time": 215, "note": 65, "velocity": 82, "channel": 0}, {"type": "note_on", "time": 41, "note": 60, "velocity": 102, "channel": 0}, {"type": "note_off", "time": 207, "note": 60, "velocity": 102, "channel": 0}, {"type": "note_on", "time": 44, "note": 63, "velocity": 114, "channel": 0}, {"type": "note_off", "time": 232, "note": 63, "velocity": 114, "channel": 0}, {"type": "note_on", "time": 0, "note": 65, "velocity": 111, "channel": 0}, {"type": "note_off", "time": 143, "note": 65, "velocity": 111, "channel": 0}, {"type": "note_on", "time": 115, "note": 60, "velocity": 102, "channel": 0}, {"type": "note_off", "time": 276, "note": 60, "velocity": 102, "channel": 0}, {"type": "note_on", "time": 39, "note": 63, "velocity": 115, "channel": 0}, {"type": "note_off", "time": 254, "note": 63, "velocity": 115, "channel": 0}, {"type": "note_on", "time": 11, "note": 65, "velocity": 105, "channel": 0}, {"type": "note_off", "time": 165, "note": 65, "velocity": 105, "channel": 0}, {"type": "note_on", "time": 873, "note": 60, "velocity": 95, "channel": 0}, {"type": "note_off", "time": 165, "note": 60, "velocity": 95, "channel": 0}, {"type": "note_on", "time": 88, "note": 63, "velocity": 115, "channel": 0}, {"type": "note_off", "time": 243, "note": 63, "velocity": 115, "channel": 0}, {"type": "note_on", "time": 77, "note": 65, "velocity": 110, "channel": 0}, {"type": "note_off", "time": 99, "note": 65, "velocity": 110, "channel": 0}, {"type": "note_on", "time": 895, "note": 67, "velocity": 103, "channel": 0}, {"type": "note_off", "time": 143, "note": 67, "velocity": 103, "channel": 0}, {"type": "note_on", "time": 198, "note": 70, "velocity": 114, "channel": 0}, {"type": "note_off", "time": 210, "note": 70, "velocity": 114, "channel": 0}, {"type": "note_on", "time": 0, "note": 72, "velocity": 111, "channel": 0}, {"type": "note_off", "time": 132, "note": 72, "velocity": 111, "channel": 0}, {"type": "note_on", "time": 210, "note": 67, "velocity": 108, "channel": 0}, {"type": "note_off", "time": 187, "note": 67, "velocity": 108, "channel": 0}, {"type": "note_on", "time": 66, "note": 70, "velocity": 110, "channel": 0}, {"type": "note_off", "time": 243, "note": 70, "velocity": 110, "channel": 0}, {"type": "note_on", "time": 11, "note": 72, "velocity": 111, "channel": 0}, {"type": "note_off", "time": 198, "note": 72, "velocity": 111, "channel": 0}, {"type": "note_on", "time": 110, "note": 67, "velocity": 104, "channel": 0}, {"type": "note_off", "time": 132, "note": 67, "velocity": 104, "channel": 0}, {"type": "note_on", "time": 107, "note": 70, "velocity": 110, "channel": 0}, {"type": "note_off", "time": 243, "note": 70, "velocity": 110, "channel": 0}, {"type": "note_on", "time": 49, "note": 72, "velocity": 110, "channel": 0}, {"type": "note_off", "time": 146, "note": 72, "velocity": 110, "channel": 0}, {"type": "note_on", "time": 817, "note": 63, "velocity": 90, "channel": 0}, {"type": "note_off", "time": 404, "note": 63, "velocity": 90, "channel": 0}, {"type": "note_on", "time": 65, "note": 65, "velocity": 113, "channel": 0}, {"type": "note_off", "time": 198, "note": 65, "velocity": 113, "channel": 0}, {"type": "note_on", "time": 42, "note": 67, "velocity": 109, "channel": 0}, {"type": "note_off", "time": 1182, "note": 67, "velocity": 109, "channel": 0}, {"type": "note_on", "time": 20, "note": 60, "velocity": 100, "channel": 0}, {"type": "note_off", "time": 204, "note": 60, "velocity": 100, "channel": 0}, {"type": "note_on", "time": 63, "note": 63, "velocity": 114, "channel": 0}, {"type": "note_off", "time": 187, "note": 63, "velocity": 114, "channel": 0}, {"type": "note_on", "time": 11, "note": 65, "velocity": 112, "channel": 0}, {"type": "note_off", "time": 276, "note": 65, "velocity": 112, "channel": 0}, {"type": "note_on", "time": 408, "note": 65, "velocity": 112, "channel": 0}, {"type": "note_off", "time": 484, "note": 65, "velocity": 112, "channel": 0}, {"type": "note_on", "time": 0, "note": 63, "velocity": 103, "channel": 0}, {"type": "note_off", "time": 256, "note": 63, "velocity": 103, "channel": 0}, {"type": "note_on", "time": 0, "note": 65, "velocity": 109, "channel": 0}, {"type": "note_off", "time": 442, "note": 65, "velocity": 109, "channel": 0}, {"type": "note_on", "time": 0, "note": 67, "velocity": 108, "channel": 0}, {"type": "note_off", "time": 950, "note": 67, "velocity": 108, "channel": 0}, {"type": "note_on", "time": 1602, "note": 67, "velocity": 101, "channel": 0}, {"type": "note_off", "time": 121, "note": 67, "velocity": 101, "channel": 0}, {"type": "note_on", "time": 90, "note": 69, "velocity": 75, "channel": 0}, {"type": "note_off", "time": 93, "note": 69, "velocity": 75, "channel": 0}, {"type": "note_on", "time": 29, "note": 70, "velocity": 110, "channel": 0}, {"type": "note_off", "time": 248, "note": 70, "velocity": 110, "channel": 0}, {"type": "note_on", "time": 6, "note": 72, "velocity": 98, "channel": 0}, {"type": "note_off", "time": 168, "note": 72, "velocity": 98, "channel": 0}, {"type": "note_on", "time": 146, "note": 67, "velocity": 100, "channel": 0}, {"type": "note_off", "time": 99, "note": 67, "velocity": 100, "channel": 0}, {"type": "note_on", "time": 165, "note": 70, "velocity": 106, "channel": 0}, {"type": "note_off", "time": 287, "note": 70, "velocity": 106, "channel": 0}, {"type": "note_on", "time": 0, "note": 72, "velocity": 111, "channel": 0}, {"type": "note_off", "time": 165, "note": 72, "velocity": 111, "channel": 0}, {"type": "note_on", "time": 1088, "note": 60, "velocity": 99, "channel": 0}, {"type": "note_off", "time": 182, "note": 60, "velocity": 99, "channel": 0}, {"type": "note_on", "time": 0, "note": 63, "velocity": 119, "channel": 0}, {"type": "note_off", "time": 254, "note": 63, "velocity": 119, "channel": 0}, {"type": "note_on", "time": 11, "note": 65, "velocity": 105, "channel": 0}, {"type": "note_off", "time": 265, "note": 65, "velocity": 105, "channel": 0}, {"type": "note_on", "time": 862, "note": 66, "velocity": 102, "channel": 0}, {"type": "note_off", "time": 77, "note": 66, "velocity": 102, "channel": 0}, {"type": "note_on", "time": 243, "note": 68, "velocity": 110, "channel": 0}, {"type": "note_off", "time": 232, "note": 68, "velocity": 110, "channel": 0}, {"type": "note_on", "time": 11, "note": 71, "velocity": 114, "channel": 0}, {"type": "note_off", "time": 851, "note": 71, "velocity": 114, "channel": 0}, {"type": "note_on", "time": 242, "note": 64, "velocity": 83, "channel": 0}, {"type": "note_off", "time": 232, "note": 64, "velocity": 83, "channel": 0}, {"type": "note_on", "time": 140, "note": 67, "velocity": 108, "channel": 0}, {"type": "note_off", "time": 187, "note": 67, "velocity": 108, "channel": 0}, {"type": "note_on", "time": 0, "note": 69, "velocity": 107, "channel": 0}, {"type": "note_off", "time": 851, "note": 69, "velocity": 107, "channel": 0}, {"type": "note_on", "time": 342, "note": 66, "velocity": 101, "channel": 0}, {"type": "note_off", "time": 1515, "note": 66, "velocity": 101, "channel": 0}, {"type": "note_on", "time": 0, "note": 63, "velocity": 114, "channel": 0}, {"type": "note_off", "time": 254, "note": 63, "velocity": 114, "channel": 0}, {"type": "note_on", "time": 35, "note": 61, "velocity": 112, "channel": 0}, {"type": "note_off", "time": 164, "note": 61, "velocity": 112, "channel": 0}, {"type": "note_on", "time": 62, "note": 58, "velocity": 104, "channel": 0}, {"type": "note_off", "time": 105, "note": 58, "velocity": 104, "channel": 0}, {"type": "note_on", "time": 59, "note": 56, "velocity": 101, "channel": 0}, {"type": "note_off", "time": 146, "note": 56, "velocity": 101, "channel": 0}, {"type": "note_on", "time": 1326, "note": 60, "velocity": 99, "channel": 0}, {"type": "note_off", "time": 218, "note": 60, "velocity": 99, "channel": 0}, {"type": "note_on", "time": 101, "note": 63, "velocity": 102, "channel": 0}, {"type": "note_off", "time": 342, "note": 63, "velocity": 102, "channel": 0}, {"type": "note_on", "time": 309, "note": 62, "velocity": 108, "channel": 0}, {"type": "note_off", "time": 185, "note": 62, "velocity": 108, "channel": 0}, {"type": "note_on", "time": 46, "note": 65, "velocity": 107, "channel": 0}, {"type": "note_off", "time": 154, "note": 65, "velocity": 107, "channel": 0}, {"type": "note_on", "time": 386, "note": 63, "velocity": 109, "channel": 0}, {"type": "note_off", "time": 232, "note": 63, "velocity": 109, "channel": 0}, {"type": "note_on", "time": 11, "note": 67, "velocity": 108, "channel": 0}, {"type": "note_off", "time": 187, "note": 67, "velocity": 108, "channel": 0}, {"type": "note_on", "time": 475, "note": 65, "velocity": 109, "channel": 0}, {"type": "note_off", "time": 165, "note": 65, "velocity": 109, "channel": 0}, {"type": "note_on", "time": 10, "note": 68, "velocity": 110, "channel": 0}, {"type": "note_off", "time": 176, "note": 68, "velocity": 110, "channel": 0}, {"type": "note_on", "time": 165, "note": 67, "velocity": 116, "channel": 0}, {"type": "note_off", "time": 232, "note": 67, "velocity": 116, "channel": 0}, {"type": "note_on", "time": 9, "note": 70, "velocity": 91, "channel": 0}, {"type": "note_off", "time": 186, "note": 70, "velocity": 91, "channel": 0}, {"type": "note_on", "time": 136, "note": 68, "velocity": 112, "channel": 0}, {"type": "note_off", "time": 254, "note": 68, "velocity": 112, "channel": 0}, {"type": "note_on", "time": 0, "note": 72, "velocity": 97, "channel": 0}, {"type": "note_off", "time": 99, "note": 72, "velocity": 97, "channel": 0}, {"type": "note_on", "time": 187, "note": 70, "velocity": 111, "channel": 0}, {"type": "note_off", "time": 254, "note": 70, "velocity": 111, "channel": 0}, {"type": "note_on", "time": 13, "note": 74, "velocity": 108, "channel": 0}, {"type": "note_off", "time": 127, "note": 74, "velocity": 108, "channel": 0}, {"type": "note_on", "time": 213, "note": 72, "velocity": 107, "channel": 0}, {"type": "note_off", "time": 154, "note": 72, "velocity": 107, "channel": 0}, {"type": "note_on", "time": 32, "note": 75, "velocity": 109, "channel": 0}, {"type": "note_off", "time": 143, "note": 75, "velocity": 109, "channel": 0}, {"type": "note_on", "time": 143, "note": 72, "velocity": 106, "channel": 0}, {"type": "note_on", "time": 298, "note": 74, "velocity": 99, "channel": 0}, {"type": "note_off", "time": 0, "note": 72, "velocity": 106, "channel": 0}, {"type": "note_off", "time": 729, "note": 74, "velocity": 99, "channel": 0}, {"type": "note_on", "time": 0, "note": 72, "velocity": 107, "channel": 0}, {"type": "note_off", "time": 210, "note": 72, "velocity": 107, "channel": 0}, {"type": "note_on", "time": 254, "note": 74, "velocity": 105, "channel": 0}, {"type": "note_off", "time": 795, "note": 74, "velocity": 105, "channel": 0}, {"type": "note_on", "time": 0, "note": 72, "velocity": 114, "channel": 0}, {"type": "note_off", "time": 519, "note": 72, "velocity": 114, "channel": 0}, {"type": "note_on", "time": 0, "note": 74, "velocity": 109, "channel": 0}, {"type": "note_off", "time": 596, "note": 74, "velocity": 109, "channel": 0}, {"type": "note_on", "time": 199, "note": 72, "velocity": 103, "channel": 0}, {"type": "note_off", "time": 287, "note": 72, "velocity": 103, "channel": 0}, {"type": "note_on", "time": 67, "note": 74, "velocity": 108, "channel": 0}, {"type": "note_off", "time": 2242, "note": 74, "velocity": 108, "channel": 0}, {"type": "note_on", "time": 3360, "note": 74, "velocity": 113, "channel": 0}, {"type": "note_off", "time": 165, "note": 74, "velocity": 113, "channel": 0}, {"type": "note_on", "time": 0, "note": 72, "velocity": 107, "channel": 0}, {"type": "note_off", "time": 210, "note": 72, "velocity": 107, "channel": 0}, {"type": "note_on", "time": 44, "note": 70, "velocity": 115, "channel": 0}, {"type": "note_off", "time": 176, "note": 70, "velocity": 115, "channel": 0}, {"type": "note_on", "time": 33, "note": 67, "velocity": 116, "channel": 0}, {"type": "note_off", "time": 187, "note": 67, "velocity": 116, "channel": 0}, {"type": "note_on", "time": 55, "note": 65, "velocity": 112, "channel": 0}, {"type": "note_off", "time": 176, "note": 65, "velocity": 112, "channel": 0}, {"type": "note_on", "time": 55, "note": 63, "velocity": 116, "channel": 0}, {"type": "note_on", "time": 187, "note": 62, "velocity": 111, "channel": 0}, {"type": "note_off", "time": 0, "note": 63, "velocity": 116, "channel": 0}, {"type": "note_off", "time": 176, "note": 62, "velocity": 111, "channel": 0}, {"type": "note_on", "time": 131, "note": 60, "velocity": 112, "channel": 0}, {"type": "note_off", "time": 1005, "note": 60, "velocity": 112, "channel": 0}, {"type": "note_on", "time": 114, "note": 58, "velocity": 105, "channel": 0}, {"type": "note_off", "time": 127, "note": 58, "velocity": 105, "channel": 0}, {"type": "note_on", "time": 115, "note": 55, "velocity": 102, "channel": 0}, {"type": "note_off", "time": 132, "note": 55, "velocity": 102, "channel": 0}, {"type": "note_on", "time": 59, "note": 53, "velocity": 106, "channel": 0}, {"type": "note_off", "time": 210, "note": 53, "velocity": 106, "channel": 0}, {"type": "note_on", "time": 64, "note": 50, "velocity": 103, "channel": 0}, {"type": "note_off", "time": 185, "note": 50, "velocity": 103, "channel": 0}, {"type": "note_on", "time": 110, "note": 48, "velocity": 101, "channel": 0}, {"type": "note_off", "time": 233, "note": 48, "velocity": 101, "channel": 0}, {"type": "note_on", "time": 16, "note": 45, "velocity": 99, "channel": 0}, {"type": "note_off", "time": 342, "note": 45, "velocity": 99, "channel": 0}, {"type": "note_on", "time": 1136, "note": 47, "velocity": 105, "channel": 0}, {"type": "note_off", "time": 254, "note": 47, "velocity": 105, "channel": 0}, {"type": "note_on", "time": 353, "note": 53, "velocity": 100, "channel": 0}, {"type": "note_off", "time": 342, "note": 53, "velocity": 100, "channel": 0}, {"type": "note_on", "time": 1, "note": 56, "velocity": 100, "channel": 0}, {"type": "note_off", "time": 232, "note": 56, "velocity": 100, "channel": 0}, {"type": "note_on", "time": 97, "note": 59, "velocity": 105, "channel": 0}, {"type": "note_off", "time": 243, "note": 59, "velocity": 105, "channel": 0}, {"type": "note_on", "time": 165, "note": 62, "velocity": 117, "channel": 0}, {"type": "note_off", "time": 320, "note": 62, "velocity": 117, "channel": 0}, {"type": "note_on", "time": 11, "note": 64, "velocity": 114, "channel": 0}, {"type": "note_off", "time": 276, "note": 64, "velocity": 114, "channel": 0}, {"type": "note_on", "time": 99, "note": 67, "velocity": 110, "channel": 0}, {"type": "note_off", "time": 1016, "note": 67, "velocity": 110, "channel": 0}, {"type": "note_on", "time": 1094, "note": 70, "velocity": 113, "channel": 0}, {"type": "note_off", "time": 1315, "note": 70, "velocity": 113, "channel": 0}, {"type": "note_on", "time": 11, "note": 67, "velocity": 107, "channel": 0}, {"type": "note_off", "time": 198, "note": 67, "velocity": 107, "channel": 0}, {"type": "note_on", "time": 0, "note": 70, "velocity": 107, "channel": 0}, {"type": "note_off", "time": 198, "note": 70, "velocity": 107, "channel": 0}, {"type": "note_on", "time": 143, "note": 67, "velocity": 110, "channel": 0}, {"type": "note_off", "time": 1389, "note": 67, "velocity": 110, "channel": 0}, {"type": "note_on", "time": 48, "note": 72, "velocity": 107, "channel": 0}, {"type": "note_off", "time": 331, "note": 72, "velocity": 107, "channel": 0}, {"type": "note_on", "time": 119, "note": 67, "velocity": 111, "channel": 0}, {"type": "note_off", "time": 276, "note": 67, "velocity": 111, "channel": 0}, {"type": "note_on", "time": 27, "note": 66, "velocity": 109, "channel": 0}, {"type": "note_off", "time": 245, "note": 66, "velocity": 109, "channel": 0}, {"type": "note_on", "time": 0, "note": 65, "velocity": 108, "channel": 0}, {"type": "note_off", "time": 1447, "note": 65, "velocity": 108, "channel": 0}, {"type": "note_on", "time": 833, "note": 66, "velocity": 106, "channel": 0}, {"type": "note_off", "time": 287, "note": 66, "velocity": 106, "channel": 0}, {"type": "note_on", "time": 0, "note": 65, "velocity": 109, "channel": 0}, {"type": "note_off", "time": 176, "note": 65, "velocity": 109, "channel": 0}, {"type": "note_on", "time": 0, "note": 66, "velocity": 107, "channel": 0}, {"type": "note_off", "time": 110, "note": 66, "velocity": 107, "channel": 0}, {"type": "note_on", "time": 0, "note": 65, "velocity": 106, "channel": 0}, {"type": "note_off", "time": 210, "note": 65, "velocity": 106, "channel": 0}, {"type": "note_on", "time": 11, "note": 67, "velocity": 106, "channel": 0}, {"type": "note_off", "time": 99, "note": 67, "velocity": 106, "channel": 0}, {"type": "note_on", "time": 0, "note": 65, "velocity": 104, "channel": 0}, {"type": "note_off", "time": 198, "note": 65, "velocity": 104, "channel": 0}, {"type": "note_on", "time": 0, "note": 67, "velocity": 109, "channel": 0}, {"type": "note_off", "time": 132, "note": 67, "velocity": 109, "channel": 0}, {"type": "note_on", "time": 0, "note": 65, "velocity": 109, "channel": 0}, {"type": "note_off", "time": 143, "note": 65, "velocity": 109, "channel": 0}, {"type": "note_on", "time": 0, "note": 67, "velocity": 106, "channel": 0}, {"type": "note_off", "time": 176, "note": 67, "velocity": 106, "channel": 0}, {"type": "note_on", "time": 0, "note": 65, "velocity": 97, "channel": 0}, {"type": "note_off", "time": 154, "note": 65, "velocity": 97, "channel": 0}, {"type": "note_on", "time": 152, "note": 63, "velocity": 114, "channel": 0}, {"type": "note_off", "time": 107, "note": 63, "velocity": 114, "channel": 0}, {"type": "note_on", "time": 0, "note": 65, "velocity": 109, "channel": 0}, {"type": "note_off", "time": 146, "note": 65, "velocity": 109, "channel": 0}, {"type": "note_on", "time": 57, "note": 63, "velocity": 104, "channel": 0}, {"type": "note_off", "time": 132, "note": 63, "velocity": 104, "channel": 0}, {"type": "note_on", "time": 0, "note": 65, "velocity": 92, "channel": 0}, {"type": "note_off", "time": 143, "note": 65, "velocity": 92, "channel": 0}, {"type": "note_on", "time": 92, "note": 63, "velocity": 86, "channel": 0}, {"type": "note_off", "time": 223, "note": 63, "velocity": 86, "channel": 0}, {"type": "note_on", "time": 82, "note": 65, "velocity": 96, "channel": 0}, {"type": "note_on", "time": 146, "note": 63, "velocity": 95, "channel": 0}, {"type": "note_off", "time": 0, "note": 65, "velocity": 96, "channel": 0}, {"type": "note_off", "time": 254, "note": 63, "velocity": 95, "channel": 0}, {"type": "note_on", "time": 195, "note": 62, "velocity": 114, "channel": 0}, {"type": "note_off", "time": 353, "note": 62, "velocity": 114, "channel": 0}, {"type": "note_on", "time": 0, "note": 60, "velocity": 97, "channel": 0}, {"type": "note_off", "time": 331, "note": 60, "velocity": 97, "channel": 0}, {"type": "note_on", "time": 3667, "note": 60, "velocity": 116, "channel": 0}, {"type": "note_off", "time": 475, "note": 60, "velocity": 116, "channel": 0}, {"type": "note_on", "time": 57, "note": 60, "velocity": 117, "channel": 0}, {"type": "note_off", "time": 276, "note": 60, "velocity": 117, "channel": 0}, {"type": "note_on", "time": 32, "note": 63, "velocity": 113, "channel": 0}, {"type": "note_off", "time": 549, "note": 63, "velocity": 113, "channel": 0}, {"type": "note_on", "time": 0, "note": 65, "velocity": 108, "channel": 0}, {"type": "note_off", "time": 237, "note": 65, "velocity": 108, "channel": 0}, {"type": "note_on", "time": 966, "note": 63, "velocity": 112, "channel": 0}, {"type": "note_off", "time": 464, "note": 63, "velocity": 112, "channel": 0}, {"type": "note_on", "time": 0, "note": 63, "velocity": 110, "channel": 0}, {"type": "note_off", "time": 298, "note": 63, "velocity": 110, "channel": 0}, {"type": "note_on", "time": 0, "note": 65, "velocity": 110, "channel": 0}, {"type": "note_on", "time": 485, "note": 67, "velocity": 99, "channel": 0}, {"type": "note_off", "time": 0, "note": 65, "velocity": 110, "channel": 0}, {"type": "note_off", "time": 596, "note": 67, "velocity": 99, "channel": 0}, {"type": "note_on", "time": 640, "note": 63, "velocity": 109, "channel": 0}, {"type": "note_off", "time": 508, "note": 63, "velocity": 109, "channel": 0}, {"type": "note_on", "time": 66, "note": 63, "velocity": 111, "channel": 0}, {"type": "note_off", "time": 154, "note": 63, "velocity": 111, "channel": 0}, {"type": "note_on", "time": 149, "note": 67, "velocity": 106, "channel": 0}, {"type": "note_off", "time": 420, "note": 67, "velocity": 106, "channel": 0}, {"type": "note_on", "time": 51, "note": 72, "velocity": 94, "channel": 0}, {"type": "note_off", "time": 309, "note": 72, "velocity": 94, "channel": 0}, {"type": "note_on", "time": 463, "note": 63, "velocity": 106, "channel": 0}, {"type": "note_off", "time": 88, "note": 63, "velocity": 106, "channel": 0}, {"type": "note_on", "time": 22, "note": 67, "velocity": 108, "channel": 0}, {"type": "note_off", "time": 162, "note": 67, "velocity": 108, "channel": 0}, {"type": "note_on", "time": 0, "note": 72, "velocity": 112, "channel": 0}, {"type": "note_off", "time": 135, "note": 72, "velocity": 112, "channel": 0}, {"type": "note_on", "time": 8, "note": 70, "velocity": 111, "channel": 0}, {"type": "note_off", "time": 969, "note": 70, "velocity": 111, "channel": 0}, {"type": "note_on", "time": 150, "note": 65, "velocity": 113, "channel": 0}, {"type": "note_off", "time": 98, "note": 65, "velocity": 113, "channel": 0}, {"type": "note_on", "time": 0, "note": 63, "velocity": 112, "channel": 0}, {"type": "note_off", "time": 154, "note": 63, "velocity": 112, "channel": 0}, {"type": "note_on", "time": 76, "note": 58, "velocity": 100, "channel": 0}, {"type": "note_off", "time": 109, "note": 58, "velocity": 100, "channel": 0}, {"type": "note_on", "time": 59, "note": 55, "velocity": 114, "channel": 0}, {"type": "note_off", "time": 196, "note": 55, "velocity": 114, "channel": 0}, {"type": "note_on", "time": 1624, "note": 60, "velocity": 111, "channel": 0}, {"type": "note_off", "time": 90, "note": 60, "velocity": 111, "channel": 0}, {"type": "note_on", "time": 108, "note": 63, "velocity": 108, "channel": 0}, {"type": "note_off", "time": 165, "note": 63, "velocity": 108, "channel": 0}, {"type": "note_on", "time": 22, "note": 67, "velocity": 108, "channel": 0}, {"type": "note_off", "time": 232, "note": 67, "velocity": 108, "channel": 0}, {"type": "note_on", "time": 32, "note": 72, "velocity": 112, "channel": 0}, {"type": "note_off", "time": 519, "note": 72, "velocity": 112, "channel": 0}, {"type": "note_on", "time": 11, "note": 70, "velocity": 108, "channel": 0}, {"type": "note_off", "time": 795, "note": 70, "velocity": 108, "channel": 0}, {"type": "note_on", "time": 22, "note": 67, "velocity": 108, "channel": 0}, {"type": "note_off", "time": 209, "note": 67, "velocity": 108, "channel": 0}, {"type": "note_on", "time": 0, "note": 65, "velocity": 111, "channel": 0}, {"type": "note_off", "time": 275, "note": 65, "velocity": 111, "channel": 0}, {"type": "note_on", "time": 0, "note": 63, "velocity": 117, "channel": 0}, {"type": "note_off", "time": 110, "note": 63, "velocity": 117, "channel": 0}, {"type": "note_on", "time": 1, "note": 58, "velocity": 113, "channel": 0}, {"type": "note_off", "time": 90, "note": 58, "velocity": 113, "channel": 0}, {"type": "note_on", "time": 9, "note": 55, "velocity": 108, "channel": 0}, {"type": "note_off", "time": 191, "note": 55, "velocity": 108, "channel": 0}, {"type": "note_on", "time": 40, "note": 53, "velocity": 104, "channel": 0}, {"type": "note_off", "time": 200, "note": 53, "velocity": 104, "channel": 0}, {"type": "note_on", "time": 20, "note": 55, "velocity": 112, "channel": 0}, {"type": "note_off", "time": 198, "note": 55, "velocity": 112, "channel": 0}, {"type": "note_on", "time": 1467, "note": 56, "velocity": 108, "channel": 0}, {"type": "note_off", "time": 165, "note": 56, "velocity": 108, "channel": 0}, {"type": "note_on", "time": 35, "note": 54, "velocity": 104, "channel": 0}, {"type": "note_off", "time": 113, "note": 54, "velocity": 104, "channel": 0}, {"type": "note_on", "time": 27, "note": 57, "velocity": 105, "channel": 0}, {"type": "note_off", "time": 198, "note": 57, "velocity": 105, "channel": 0}, {"type": "note_on", "time": 27, "note": 55, "velocity": 112, "channel": 0}, {"type": "note_off", "time": 234, "note": 55, "velocity": 112, "channel": 0}, {"type": "note_on", "time": 0, "note": 56, "velocity": 102, "channel": 0}, {"type": "note_off", "time": 210, "note": 56, "velocity": 102, "channel": 0}, {"type": "note_on", "time": 55, "note": 57, "velocity": 105, "channel": 0}, {"type": "note_off", "time": 146, "note": 57, "velocity": 105, "channel": 0}, {"type": "note_on", "time": 69, "note": 58, "velocity": 110, "channel": 0}, {"type": "note_off", "time": 132, "note": 58, "velocity": 110, "channel": 0}, {"type": "note_on", "time": 30, "note": 59, "velocity": 112, "channel": 0}, {"type": "note_off", "time": 66, "note": 59, "velocity": 112, "channel": 0}, {"type": "note_on", "time": 0, "note": 60, "velocity": 112, "channel": 0}, {"type": "note_off", "time": 110, "note": 60, "velocity": 112, "channel": 0}, {"type": "note_on", "time": 34, "note": 62, "velocity": 114, "channel": 0}, {"type": "note_off", "time": 132, "note": 62, "velocity": 114, "channel": 0}, {"type": "note_on", "time": 65, "note": 63, "velocity": 108, "channel": 0}, {"type": "note_off", "time": 154, "note": 63, "velocity": 108, "channel": 0}, {"type": "note_on", "time": 0, "note": 65, "velocity": 105, "channel": 0}, {"type": "note_off", "time": 121, "note": 65, "velocity": 105, "channel": 0}, {"type": "note_on", "time": 89, "note": 67, "velocity": 101, "channel": 0}, {"type": "note_off", "time": 143, "note": 67, "velocity": 101, "channel": 0}, {"type": "note_on", "time": 65, "note": 68, "velocity": 113, "channel": 0}, {"type": "note_off", "time": 122, "note": 68, "velocity": 113, "channel": 0}, {"type": "note_on", "time": 0, "note": 67, "velocity": 107, "channel": 0}, {"type": "note_off", "time": 265, "note": 67, "velocity": 107, "channel": 0}, {"type": "note_on", "time": 10, "note": 66, "velocity": 110, "channel": 0}, {"type": "note_off", "time": 176, "note": 66, "velocity": 110, "channel": 0}, {"type": "note_on", "time": 0, "note": 67, "velocity": 110, "channel": 0}, {"type": "note_off", "time": 210, "note": 67, "velocity": 110, "channel": 0}, {"type": "note_on", "time": 18, "note": 65, "velocity": 123, "channel": 0}, {"type": "note_off", "time": 113, "note": 65, "velocity": 123, "channel": 0}, {"type": "note_on", "time": 11, "note": 64, "velocity": 117, "channel": 0}, {"type": "note_off", "time": 151, "note": 64, "velocity": 117, "channel": 0}, {"type": "note_on", "time": 35, "note": 63, "velocity": 114, "channel": 0}, {"type": "note_off", "time": 187, "note": 63, "velocity": 114, "channel": 0}, {"type": "note_on", "time": 12, "note": 65, "velocity": 112, "channel": 0}, {"type": "note_off", "time": 232, "note": 65, "velocity": 112, "channel": 0}, {"type": "note_on", "time": 37, "note": 63, "velocity": 117, "channel": 0}, {"type": "note_off", "time": 96, "note": 63, "velocity": 117, "channel": 0}, {"type": "note_on", "time": 41, "note": 65, "velocity": 108, "channel": 0}, {"type": "note_off", "time": 190, "note": 65, "velocity": 108, "channel": 0}, {"type": "note_on", "time": 24, "note": 67, "velocity": 104, "channel": 0}, {"type": "note_off", "time": 254, "note": 67, "velocity": 104, "channel": 0}, {"type": "note_on", "time": 60, "note": 70, "velocity": 103, "channel": 0}, {"type": "note_off", "time": 143, "note": 70, "velocity": 103, "channel": 0}, {"type": "note_on", "time": 32, "note": 75, "velocity": 107, "channel": 0}, {"type": "note_off", "time": 3492, "note": 75, "velocity": 107, "channel": 0}, {"type": "note_on", "time": 144, "note": 72, "velocity": 103, "channel": 0}, {"type": "note_off", "time": 121, "note": 72, "velocity": 103, "channel": 0}, {"type": "note_on", "time": 60, "note": 68, "velocity": 109, "channel": 0}, {"type": "note_off", "time": 145, "note": 68, "velocity": 109, "channel": 0}, {"type": "note_on", "time": 19, "note": 63, "velocity": 110, "channel": 0}, {"type": "note_off", "time": 227, "note": 63, "velocity": 110, "channel": 0}, {"type": "note_on", "time": 1426, "note": 75, "velocity": 108, "channel": 0}, {"type": "note_off", "time": 512, "note": 75, "velocity": 108, "channel": 0}, {"type": "note_on", "time": 0, "note": 72, "velocity": 100, "channel": 0}, {"type": "note_off", "time": 124, "note": 72, "velocity": 100, "channel": 0}, {"type": "note_on", "time": 71, "note": 68, "velocity": 112, "channel": 0}, {"type": "note_off", "time": 110, "note": 68, "velocity": 112, "channel": 0}, {"type": "note_on", "time": 0, "note": 65, "velocity": 104, "channel": 0}, {"type": "note_off", "time": 266, "note": 65, "velocity": 104, "channel": 0}, {"type": "note_on", "time": 273, "note": 77, "velocity": 97, "channel": 0}, {"type": "note_off", "time": 762, "note": 77, "velocity": 97, "channel": 0}, {"type": "note_on", "time": 77, "note": 74, "velocity": 111, "channel": 0}, {"type": "note_off", "time": 176, "note": 74, "velocity": 111, "channel": 0}, {"type": "note_on", "time": 0, "note": 70, "velocity": 114, "channel": 0}, {"type": "note_on", "time": 172, "note": 67, "velocity": 113, "channel": 0}, {"type": "note_off", "time": 0, "note": 70, "velocity": 114, "channel": 0}, {"type": "note_off", "time": 137, "note": 67, "velocity": 113, "channel": 0}, {"type": "note_on", "time": 3, "note": 65, "velocity": 108, "channel": 0}, {"type": "note_off", "time": 273, "note": 65, "velocity": 108, "channel": 0}, {"type": "note_on", "time": 307, "note": 75, "velocity": 114, "channel": 0}, {"type": "note_off", "time": 44, "note": 75, "velocity": 114, "channel": 0}, {"type": "note_on", "time": 89, "note": 79, "velocity": 103, "channel": 0}, {"type": "note_off", "time": 2630, "note": 79, "velocity": 103, "channel": 0}, {"type": "note_on", "time": 33, "note": 77, "velocity": 103, "channel": 0}, {"type": "note_off", "time": 517, "note": 77, "velocity": 103, "channel": 0}, {"type": "note_on", "time": 0, "note": 79, "velocity": 100, "channel": 0}, {"type": "note_off", "time": 243, "note": 79, "velocity": 100, "channel": 0}, {"type": "note_on", "time": 34, "note": 79, "velocity": 111, "channel": 0}, {"type": "note_off", "time": 154, "note": 79, "velocity": 111, "channel": 0}, {"type": "note_on", "time": 0, "note": 77, "velocity": 102, "channel": 0}, {"type": "note_off", "time": 209, "note": 77, "velocity": 102, "channel": 0}, {"type": "note_on", "time": 0, "note": 78, "velocity": 97, "channel": 0}, {"type": "note_off", "time": 77, "note": 78, "velocity": 97, "channel": 0}, {"type": "note_on", "time": 21, "note": 75, "velocity": 101, "channel": 0}, {"type": "note_off", "time": 1105, "note": 75, "velocity": 101, "channel": 0}, {"type": "note_on", "time": 0, "note": 74, "velocity": 97, "channel": 0}, {"type": "note_off", "time": 663, "note": 74, "velocity": 97, "channel": 0}, {"type": "note_on", "time": 646, "note": 72, "velocity": 113, "channel": 0}, {"type": "note_off", "time": 198, "note": 72, "velocity": 113, "channel": 0}, {"type": "note_on", "time": 0, "note": 70, "velocity": 110, "channel": 0}, {"type": "note_off", "time": 176, "note": 70, "velocity": 110, "channel": 0}, {"type": "note_on", "time": 87, "note": 69, "velocity": 111, "channel": 0}, {"type": "note_off", "time": 309, "note": 69, "velocity": 111, "channel": 0}, {"type": "note_on", "time": 872, "note": 67, "velocity": 113, "channel": 0}, {"type": "note_off", "time": 77, "note": 67, "velocity": 113, "channel": 0}, {"type": "note_on", "time": 44, "note": 65, "velocity": 118, "channel": 0}, {"type": "note_off", "time": 187, "note": 65, "velocity": 118, "channel": 0}, {"type": "note_on", "time": 23, "note": 63, "velocity": 112, "channel": 0}, {"type": "note_off", "time": 198, "note": 63, "velocity": 112, "channel": 0}, {"type": "note_on", "time": 74, "note": 62, "velocity": 118, "channel": 0}, {"type": "note_off", "time": 132, "note": 62, "velocity": 118, "channel": 0}, {"type": "note_on", "time": 27, "note": 60, "velocity": 111, "channel": 0}, {"type": "note_off", "time": 198, "note": 60, "velocity": 111, "channel": 0}, {"type": "note_on", "time": 66, "note": 58, "velocity": 106, "channel": 0}, {"type": "note_off", "time": 453, "note": 58, "velocity": 106, "channel": 0}, {"type": "note_on", "time": 342, "note": 60, "velocity": 89, "channel": 0}, {"type": "note_off", "time": 105, "note": 60, "velocity": 89, "channel": 0}, {"type": "note_on", "time": 90, "note": 66, "velocity": 109, "channel": 0}, {"type": "note_off", "time": 66, "note": 66, "velocity": 109, "channel": 0}, {"type": "note_on", "time": 9, "note": 68, "velocity": 105, "channel": 0}, {"type": "note_off", "time": 66, "note": 68, "velocity": 105, "channel": 0}, {"type": "note_on", "time": 89, "note": 71, "velocity": 113, "channel": 0}, {"type": "note_off", "time": 1171, "note": 71, "velocity": 113, "channel": 0}, {"type": "note_on", "time": 77, "note": 71, "velocity": 109, "channel": 0}, {"type": "note_off", "time": 851, "note": 71, "velocity": 109, "channel": 0}, {"type": "note_on", "time": 0, "note": 69, "velocity": 97, "channel": 0}, {"type": "note_off", "time": 187, "note": 69, "velocity": 97, "channel": 0}, {"type": "note_on", "time": 42, "note": 71, "velocity": 115, "channel": 0}, {"type": "note_off", "time": 265, "note": 71, "velocity": 115, "channel": 0}, {"type": "note_on", "time": 22, "note": 74, "velocity": 105, "channel": 0}, {"type": "note_off", "time": 994, "note": 74, "velocity": 105, "channel": 0}, {"type": "note_on", "time": 1549, "note": 67, "velocity": 111, "channel": 0}, {"type": "note_off", "time": 210, "note": 67, "velocity": 111, "channel": 0}, {"type": "note_on", "time": 220, "note": 70, "velocity": 118, "channel": 0}, {"type": "note_off", "time": 375, "note": 70, "velocity": 118, "channel": 0}, {"type": "note_on", "time": 10, "note": 67, "velocity": 116, "channel": 0}, {"type": "note_off", "time": 221, "note": 67, "velocity": 116, "channel": 0}, {"type": "note_on", "time": 144, "note": 70, "velocity": 117, "channel": 0}, {"type": "note_off", "time": 287, "note": 70, "velocity": 117, "channel": 0}, {"type": "note_on", "time": 9, "note": 67, "velocity": 114, "channel": 0}, {"type": "note_off", "time": 243, "note": 67, "velocity": 114, "channel": 0}, {"type": "note_on", "time": 114, "note": 71, "velocity": 101, "channel": 0}, {"type": "note_off", "time": 71, "note": 71, "velocity": 101, "channel": 0}, {"type": "note_on", "time": 46, "note": 74, "velocity": 96, "channel": 0}, {"type": "note_off", "time": 77, "note": 74, "velocity": 96, "channel": 0}, {"type": "note_on", "time": 0, "note": 77, "velocity": 106, "channel": 0}, {"type": "note_off", "time": 1380, "note": 77, "velocity": 106, "channel": 0}, {"type": "note_on", "time": 0, "note": 75, "velocity": 120, "channel": 0}, {"type": "note_off", "time": 254, "note": 75, "velocity": 120, "channel": 0}, {"type": "note_on", "time": 44, "note": 72, "velocity": 111, "channel": 0}, {"type": "note_off", "time": 243, "note": 72, "velocity": 111, "channel": 0}, {"type": "note_on", "time": 67, "note": 70, "velocity": 112, "channel": 0}, {"type": "note_off", "time": 187, "note": 70, "velocity": 112, "channel": 0}, {"type": "note_on", "time": 53, "note": 68, "velocity": 113, "channel": 0}, {"type": "note_off", "time": 210, "note": 68, "velocity": 113, "channel": 0}, {"type": "note_on", "time": 1, "note": 67, "velocity": 111, "channel": 0}, {"type": "note_off", "time": 254, "note": 67, "velocity": 111, "channel": 0}, {"type": "note_on", "time": 42, "note": 65, "velocity": 111, "channel": 0}, {"type": "note_off", "time": 210, "note": 65, "velocity": 111, "channel": 0}, {"type": "note_on", "time": 45, "note": 63, "velocity": 111, "channel": 0}, {"type": "note_off", "time": 121, "note": 63, "velocity": 111, "channel": 0}, {"type": "note_on", "time": 9, "note": 65, "velocity": 108, "channel": 0}, {"type": "note_off", "time": 66, "note": 65, "velocity": 108, "channel": 0}, {"type": "note_on", "time": 0, "note": 67, "velocity": 108, "channel": 0}, {"type": "note_off", "time": 265, "note": 67, "velocity": 108, "channel": 0}, {"type": "note_on", "time": 1, "note": 65, "velocity": 109, "channel": 0}, {"type": "note_off", "time": 232, "note": 65, "velocity": 109, "channel": 0}, {"type": "note_on", "time": 36, "note": 63, "velocity": 113, "channel": 0}, {"type": "note_off", "time": 127, "note": 63, "velocity": 113, "channel": 0}, {"type": "note_on", "time": 41, "note": 60, "velocity": 112, "channel": 0}, {"type": "note_off", "time": 92, "note": 60, "velocity": 112, "channel": 0}, {"type": "note_on", "time": 0, "note": 58, "velocity": 98, "channel": 0}, {"type": "note_off", "time": 906, "note": 58, "velocity": 98, "channel": 0}, {"type": "note_on", "time": 808, "note": 62, "velocity": 105, "channel": 0}, {"type": "note_off", "time": 109, "note": 62, "velocity": 105, "channel": 0}, {"type": "note_on", "time": 0, "note": 63, "velocity": 116, "channel": 0}, {"type": "note_off", "time": 1569, "note": 63, "velocity": 116, "channel": 0}, {"type": "note_on", "time": 152, "note": 58, "velocity": 85, "channel": 0}, {"type": "note_off", "time": 193, "note": 58, "velocity": 85, "channel": 0}, {"type": "note_on", "time": 106, "note": 62, "velocity": 113, "channel": 0}, {"type": "note_off", "time": 276, "note": 62, "velocity": 113, "channel": 0}, {"type": "note_on", "time": 26, "note": 60, "velocity": 111, "channel": 0}, {"type": "note_off", "time": 652, "note": 60, "velocity": 111, "channel": 0}, {"type": "note_on", "time": 2527, "note": 60, "velocity": 118, "channel": 0}, {"type": "note_off", "time": 375, "note": 60, "velocity": 118, "channel": 0}, {"type": "note_on", "time": 22, "note": 62, "velocity": 115, "channel": 0}, {"type": "note_off", "time": 198, "note": 62, "velocity": 115, "channel": 0}, {"type": "note_on", "time": 176, "note": 63, "velocity": 118, "channel": 0}, {"type": "note_off", "time": 364, "note": 63, "velocity": 118, "channel": 0}, {"type": "note_on", "time": 0, "note": 65, "velocity": 114, "channel": 0}, {"type": "note_off", "time": 265, "note": 65, "velocity": 114, "channel": 0}, {"type": "note_on", "time": 144, "note": 60, "velocity": 116, "channel": 0}, {"type": "note_off", "time": 176, "note": 60, "velocity": 116, "channel": 0}, {"type": "note_on", "time": 8, "note": 62, "velocity": 111, "channel": 0}, {"type": "note_off", "time": 1442, "note": 62, "velocity": 111, "channel": 0}, {"type": "end_of_track", "time": 0}]]}