{"ticks_per_beat": 192, "tracks": [[{"type": "track_name", "name": "Melody", "time": 0}, {"type": "set_tempo", "tempo": 342857, "time": 0}, {"type": "key_signature", "key": "Db", "time": 0}, {"type": "time_signature", "numerator": 4, "denominator": 4, "clocks_per_click": 24, "notated_32nd_notes_per_beat": 8, "time": 0}, {"type": "note_on", "time": 1427, "note": 68, "velocity": 99, "channel": 0}, {"type": "note_off", "time": 68, "note": 68, "velocity": 99, "channel": 0}, {"type": "note_on", "time": 22, "note": 68, "velocity": 107, "channel": 0}, {"type": "note_off", "time": 63, "note": 68, "velocity": 107, "channel": 0}, {"type": "note_on", "time": 25, "note": 66, "velocity": 107, "channel": 0}, {"type": "note_off", "time": 107, "note": 66, "velocity": 107, "channel": 0}, {"type": "note_on", "time": 7, "note": 68, "velocity": 115, "channel": 0}, {"type": "note_off", "time": 68, "note": 68, "velocity": 115, "channel": 0}, {"type": "note_on", "time": 297, "note": 63, "velocity": 101, "channel": 0}, {"type": "note_off", "time": 87, "note": 63, "velocity": 101, "channel": 0}, {"type": "note_on", "time": 16, "note": 66, "velocity": 92, "channel": 0}, {"type": "note_off", "time": 72, "note": 66, "velocity": 92, "channel": 0}, {"type": "note_on", "time": 21, "note": 66, "velocity": 114, "channel": 0}, {"type": "note_off", "time": 69, "note": 66, "velocity": 114, "channel": 0}, {"type": "note_on", "time": 17, "note": 65, "velocity": 115, "channel": 0}, {"type": "note_off", "time": 81, "note": 65, "velocity": 115, "channel": 0}, {"type": "note_on", "time": 17, "note": 66, "velocity": 116, "channel": 0}, {"type": "note_off", "time": 89, "note": 66, "velocity": 116, "channel": 0}, {"type": "note_on", "time": 106, "note": 65, "velocity": 115, "channel": 0}, {"type": "note_off", "time": 43, "note": 65, "velocity": 115, "channel": 0}, {"type": "note_on", "time": 4, "note": 63, "velocity": 113, "channel": 0}, {"type": "note_off", "time": 28, "note": 63, "velocity": 113, "channel": 0}, {"type": "note_on", "time": 18, "note": 61, "velocity": 111, "channel": 0}, {"type": "note_off", "time": 72, "note": 61, "velocity": 111, "channel": 0}, {"type": "note_on", "time": 113, "note": 63, "velocity": 107, "channel": 0}, {"type": "note_off", "time": 68, "note": 63, "velocity": 107, "channel": 0}, {"type": "note_on", "time": 11, "note": 63, "velocity": 105, "channel": 0}, {"type": "note_off", "time": 78, "note": 63, "velocity": 105, "channel": 0}, {"type": "note_on", "time": 37, "note": 61, "velocity": 100, "channel": 0}, {"type": "note_off", "time": 94, "note": 61, "velocity": 100, "channel": 0}, {"type": "note_on", "time": 20, "note": 63, "velocity": 95, "channel": 0}, {"type": "note_off", "time": 81, "note": 63, "velocity": 95, "channel": 0}, {"type": "note_on", "time": 388, "note": 59, "velocity": 107, "channel": 0}, {"type": "note_off", "time": 77, "note": 59, "velocity": 107, "channel": 0}, {"type": "note_on", "time": 24, "note": 59, "velocity": 111, "channel": 0}, {"type": "note_off", "time": 81, "note": 59, "velocity": 111, "channel": 0}, {"type": "note_on", "time": 4, "note": 58, "velocity": 107, "channel": 0}, {"type": "note_off", "time": 100, "note": 58, "velocity": 107, "channel": 0}, {"type": "note_on", "time": 2, "note": 59, "velocity": 109, "channel": 0}, {"type": "note_off", "time": 89, "note": 59, "velocity": 109, "channel": 0}, {"type": "note_on", "time": 78, "note": 58, "velocity": 103, "channel": 0}, {"type": "note_off", "time": 32, "note": 58, "velocity": 103, "channel": 0}, {"type": "note_on", "time": 9, "note": 56, "velocity": 108, "channel": 0}, {"type": "note_off", "time": 37, "note": 56, "velocity": 108, "channel": 0}, {"type": "note_on", "time": 13, "note": 54, "velocity": 102, "channel": 0}, {"type": "note_off", "time": 97, "note": 54, "velocity": 102, "channel": 0}, {"type": "note_on", "time": 118, "note": 56, "velocity": 104, "channel": 0}, {"type": "note_off", "time": 94, "note": 56, "velocity": 104, "channel": 0}, {"type": "note_on", "time": 16, "note": 56, "velocity": 93, "channel": 0}, {"type": "note_off", "time": 60, "note": 56, "velocity": 93, "channel": 0}, {"type": "note_on", "time": 12, "note": 60, "velocity": 92, "channel": 0}, {"type": "note_off", "time": 84, "note": 60, "velocity": 92, "channel": 0}, {"type": "note_on", "time": 27, "note": 56, "velocity": 95, "channel": 0}, {"type": "note_off", "time": 65, "note": 56, "velocity": 95, "channel": 0}, {"type": "note_on", "time": 518, "note": 56, "velocity": 100, "channel": 0}, {"type": "note_off", "time": 73, "note": 56, "velocity": 100, "channel": 0}, {"type": "note_on", "time": 19, "note": 58, "velocity": 108, "channel": 0}, {"type": "note_off", "time": 96, "note": 58, "velocity": 108, "channel": 0}, {"type": "note_on", "time": 13, "note": 60, "velocity": 117, "channel": 0}, {"type": "note_off", "time": 87, "note": 60, "velocity": 117, "channel": 0}, {"type": "note_on", "time": 94, "note": 56, "velocity": 104, "channel": 0}, {"type": "note_off", "time": 65, "note": 56, "velocity": 104, "channel": 0}, {"type": "note_on", "time": 26, "note": 54, "velocity": 103, "channel": 0}, {"type": "note_off", "time": 80, "note": 54, "velocity": 103, "channel": 0}, {"type": "note_on", "time": 9, "note": 56, "velocity": 96, "channel": 0}, {"type": "note_off", "time": 188, "note": 56, "velocity": 96, "channel": 0}, {"type": "note_on", "time": 28, "note": 56, "velocity": 99, "channel": 0}, {"type": "note_off", "time": 73, "note": 56, "velocity": 99, "channel": 0}, {"type": "note_on", "time": 0, "note": 60, "velocity": 108, "channel": 0}, {"type": "note_off", "time": 88, "note": 60, "velocity": 108, "channel": 0}, {"type": "note_on", "time": 13, "note": 56, "velocity": 103, "channel": 0}, {"type": "note_off", "time": 81, "note": 56, "velocity": 103, "channel": 0}, {"type": "note_on", "time": 19, "note": 54, "velocity": 100, "channel": 0}, {"type": "note_off", "time": 81, "note": 54, "velocity": 100, "channel": 0}, {"type": "note_on", "time": 4, "note": 56, "velocity": 96, "channel": 0}, {"type": "note_off", "time": 82, "note": 56, "velocity": 96, "channel": 0}, {"type": "note_on", "time": 244, "note": 60, "velocity": 105, "channel": 0}, {"type": "note_off", "time": 77, "note": 60, "velocity": 105, "channel": 0}, {"type": "note_on", "time": 4, "note": 56, "velocity": 110, "channel": 0}, {"type": "note_off", "time": 82, "note": 56, "velocity": 110, "channel": 0}, {"type": "note_on", "time": 18, "note": 54, "velocity": 107, "channel": 0}, {"type": "note_off", "time": 80, "note": 54, "velocity": 107, "channel": 0}, {"type": "note_on", "time": 12, "note": 56, "velocity": 108, "channel": 0}, {"type": "note_off", "time": 85, "note": 56, "velocity": 108, "channel": 0}, {"type": "note_on", "time": 27, "note": 60, "velocity": 109, "channel": 0}, {"type": "note_off", "time": 74, "note": 60, "velocity": 109, "channel": 0}, {"type": "note_on", "time": 9, "note": 63, "velocity": 110, "channel": 0}, {"type": "note_off", "time": 62, "note": 63, "velocity": 110, "channel": 0}, {"type": "note_on", "time": 32, "note": 66, "velocity": 114, "channel": 0}, {"type": "note_off", "time": 88, "note": 66, "velocity": 114, "channel": 0}, {"type": "note_on", "time": 9, "note": 68, "velocity": 114, "channel": 0}, {"type": "note_off", "time": 492, "note": 68, "velocity": 114, "channel": 0}, {"type": "note_on", "time": 13, "note": 64, "velocity": 116, "channel": 0}, {"type": "note_off", "time": 117, "note": 64, "velocity": 116, "channel": 0}, {"type": "note_on", "time": 0, "note": 58, "velocity": 101, "channel": 0}, {"type": "note_off", "time": 39, "note": 58, "velocity": 101, "channel": 0}, {"type": "note_on", "time": 5, "note": 61, "velocity": 99, "channel": 0}, {"type": "note_off", "time": 93, "note": 61, "velocity": 99, "channel": 0}, {"type": "note_on", "time": 16, "note": 63, "velocity": 104, "channel": 0}, {"type": "note_off", "time": 58, "note": 63, "velocity": 104, "channel": 0}, {"type": "note_on", "time": 414, "note": 61, "velocity": 96, "channel": 0}, {"type": "note_off", "time": 86, "note": 61, "velocity": 96, "channel": 0}, {"type": "note_on", "time": 12, "note": 63, "velocity": 108, "channel": 0}, {"type": "note_off", "time": 82, "note": 63, "velocity": 108, "channel": 0}, {"type": "note_on", "time": 13, "note": 64, "velocity": 123, "channel": 0}, {"type": "note_off", "time": 72, "note": 64, "velocity": 123, "channel": 0}, {"type": "note_on", "time": 20, "note": 66, "velocity": 117, "channel": 0}, {"type": "note_off", "time": 86, "note": 66, "velocity": 117, "channel": 0}, {"type": "note_on", "time": 5, "note": 68, "velocity": 120, "channel": 0}, {"type": "note_off", "time": 61, "note": 68, "velocity": 120, "channel": 0}, {"type": "note_on", "time": 45, "note": 71, "velocity": 120, "channel": 0}, {"type": "note_off", "time": 66, "note": 71, "velocity": 120, "channel": 0}, {"type": "note_on", "time": 13, "note": 70, "velocity": 115, "channel": 0}, {"type": "note_off", "time": 99, "note": 70, "velocity": 115, "channel": 0}, {"type": "note_on", "time": 11, "note": 66, "velocity": 113, "channel": 0}, {"type": "note_off", "time": 84, "note": 66, "velocity": 113, "channel": 0}, {"type": "note_on", "time": 12, "note": 68, "velocity": 117, "channel": 0}, {"type": "note_off", "time": 86, "note": 68, "velocity": 117, "channel": 0}, {"type": "note_on", "time": 75, "note": 64, "velocity": 117, "channel": 0}, {"type": "note_off", "time": 120, "note": 64, "velocity": 117, "channel": 0}, {"type": "note_on", "time": 22, "note": 65, "velocity": 111, "channel": 0}, {"type": "note_off", "time": 28, "note": 65, "velocity": 111, "channel": 0}, {"type": "note_on", "time": 4, "note": 63, "velocity": 109, "channel": 0}, {"type": "note_off", "time": 53, "note": 63, "velocity": 109, "channel": 0}, {"type": "note_on", "time": 93, "note": 61, "velocity": 111, "channel": 0}, {"type": "note_off", "time": 66, "note": 61, "velocity": 111, "channel": 0}, {"type": "note_on", "time": 19, "note": 66, "velocity": 116, "channel": 0}, {"type": "note_off", "time": 83, "note": 66, "velocity": 116, "channel": 0}, {"type": "note_on", "time": 18, "note": 65, "velocity": 115, "channel": 0}, {"type": "note_off", "time": 64, "note": 65, "velocity": 115, "channel": 0}, {"type": "note_on", "time": 14, "note": 64, "velocity": 120, "channel": 0}, {"type": "note_off", "time": 108, "note": 64, "velocity": 120, "channel": 0}, {"type": "note_on", "time": 5, "note": 63, "velocity": 112, "channel": 0}, {"type": "note_off", "time": 71, "note": 63, "velocity": 112, "channel": 0}, {"type": "note_on", "time": 12, "note": 61, "velocity": 113, "channel": 0}, {"type": "note_off", "time": 99, "note": 61, "velocity": 113, "channel": 0}, {"type": "note_on", "time": 4, "note": 63, "velocity": 102, "channel": 0}, {"type": "note_off", "time": 32, "note": 63, "velocity": 102, "channel": 0}, {"type": "note_on", "time": 64, "note": 60, "velocity": 101, "channel": 0}, {"type": "note_off", "time": 156, "note": 60, "velocity": 101, "channel": 0}, {"type": "note_on", "time": 29, "note": 63, "velocity": 100, "channel": 0}, {"type": "note_off", "time": 116, "note": 63, "velocity": 100, "channel": 0}, {"type": "note_on", "time": 6, "note": 56, "velocity": 100, "channel": 0}, {"type": "note_off", "time": 73, "note": 56, "velocity": 100, "channel": 0}, {"type": "note_on", "time": 301, "note": 56, "velocity": 104, "channel": 0}, {"type": "note_off", "time": 64, "note": 56, "velocity": 104, "channel": 0}, {"type": "note_on", "time": 25, "note": 54, "velocity": 96, "channel": 0}, {"type": "note_off", "time": 91, "note": 54, "velocity": 96, "channel": 0}, {"type": "note_on", "time": 0, "note": 56, "velocity": 107, "channel": 0}, {"type": "note_off", "time": 84, "note": 56, "velocity": 107, "channel": 0}, {"type": "note_on", "time": 9, "note": 58, "velocity": 100, "channel": 0}, {"type": "note_off", "time": 90, "note": 58, "velocity": 100, "channel": 0}, {"type": "note_on", "time": 26, "note": 60, "velocity": 96, "channel": 0}, {"type": "note_off", "time": 58, "note": 60, "velocity": 96, "channel": 0}, {"type": "note_on", "time": 17, "note": 63, "velocity": 111, "channel": 0}, {"type": "note_off", "time": 285, "note": 63, "velocity": 111, "channel": 0}, {"type": "note_on", "time": 5, "note": 59, "velocity": 94, "channel": 0}, {"type": "note_off", "time": 93, "note": 59, "velocity": 94, "channel": 0}, {"type": "note_on", "time": 6, "note": 65, "velocity": 114, "channel": 0}, {"type": "note_off", "time": 122, "note": 65, "velocity": 114, "channel": 0}, {"type": "note_on", "time": 8, "note": 60, "velocity": 96, "channel": 0}, {"type": "note_off", "time": 51, "note": 60, "velocity": 96, "channel": 0}, {"type": "note_on", "time": 4, "note": 66, "velocity": 109, "channel": 0}, {"type": "note_off", "time": 128, "note": 66, "velocity": 109, "channel": 0}, {"type": "note_on", "time": 1, "note": 65, "velocity": 101, "channel": 0}, {"type": "note_off", "time": 18, "note": 65, "velocity": 101, "channel": 0}, {"type": "note_on", "time": 1140, "note": 68, "velocity": 111, "channel": 0}, {"type": "note_off", "time": 70, "note": 68, "velocity": 111, "channel": 0}, {"type": "note_on", "time": 4, "note": 70, "velocity": 116, "channel": 0}, {"type": "note_off", "time": 677, "note": 70, "velocity": 116, "channel": 0}, {"type": "note_on", "time": 14, "note": 70, "velocity": 116, "channel": 0}, {"type": "note_off", "time": 173, "note": 70, "velocity": 116, "channel": 0}, {"type": "note_on", "time": 6, "note": 68, "velocity": 119, "channel": 0}, {"type": "note_off", "time": 87, "note": 68, "velocity": 119, "channel": 0}, {"type": "note_on", "time": 9, "note": 71, "velocity": 115, "channel": 0}, {"type": "note_off", "time": 27, "note": 71, "velocity": 115, "channel": 0}, {"type": "note_on", "time": 6, "note": 73, "velocity": 115, "channel": 0}, {"type": "note_off", "time": 70, "note": 73, "velocity": 115, "channel": 0}, {"type": "note_on", "time": 10, "note": 70, "velocity": 116, "channel": 0}, {"type": "note_off", "time": 80, "note": 70, "velocity": 116, "channel": 0}, {"type": "note_on", "time": 81, "note": 68, "velocity": 119, "channel": 0}, {"type": "note_off", "time": 92, "note": 68, "velocity": 119, "channel": 0}, {"type": "note_on", "time": 12, "note": 66, "velocity": 113, "channel": 0}, {"type": "note_off", "time": 87, "note": 66, "velocity": 113, "channel": 0}, {"type": "note_on", "time": 942, "note": 75, "velocity": 114, "channel": 0}, {"type": "note_off", "time": 145, "note": 75, "velocity": 114, "channel": 0}, {"type": "note_on", "time": 6, "note": 73, "velocity": 119, "channel": 0}, {"type": "note_off", "time": 100, "note": 73, "velocity": 119, "channel": 0}, {"type": "note_on", "time": 11, "note": 71, "velocity": 120, "channel": 0}, {"type": "note_off", "time": 84, "note": 71, "velocity": 120, "channel": 0}, {"type": "note_on", "time": 3, "note": 68, "velocity": 118, "channel": 0}, {"type": "note_off", "time": 96, "note": 68, "velocity": 118, "channel": 0}, {"type": "note_on", "time": 5, "note": 66, "velocity": 119, "channel": 0}, {"type": "note_off", "time": 86, "note": 66, "velocity": 119, "channel": 0}, {"type": "note_on", "time": 7, "note": 63, "velocity": 109, "channel": 0}, {"type": "note_off", "time": 91, "note": 63, "velocity": 109, "channel": 0}, {"type": "note_on", "time": 33, "note": 59, "velocity": 103, "channel": 0}, {"type": "note_off", "time": 69, "note": 59, "velocity": 103, "channel": 0}, {"type": "note_on", "time": 16, "note": 62, "velocity": 112, "channel": 0}, {"type": "note_off", "time": 83, "note": 62, "velocity": 112, "channel": 0}, {"type": "note_on", "time": 118, "note": 61, "velocity": 112, "channel": 0}, {"type": "note_off", "time": 108, "note": 61, "velocity": 112, "channel": 0}, {"type": "note_on", "time": 8, "note": 59, "velocity": 106, "channel": 0}, {"type": "note_off", "time": 91, "note": 59, "velocity": 106, "channel": 0}, {"type": "note_on", "time": 62, "note": 59, "velocity": 108, "channel": 0}, {"type": "note_off", "time": 172, "note": 59, "velocity": 108, "channel": 0}, {"type": "note_on", "time": 19, "note": 59, "velocity": 106, "channel": 0}, {"type": "note_off", "time": 332, "note": 59, "velocity": 106, "channel": 0}, {"type": "note_on", "time": 16, "note": 59, "velocity": 97, "channel": 0}, {"type": "note_off", "time": 48, "note": 59, "velocity": 97, "channel": 0}, {"type": "note_on", "time": 7, "note": 56, "velocity": 108, "channel": 0}, {"type": "note_off", "time": 60, "note": 56, "velocity": 108, "channel": 0}, {"type": "note_on", "time": 25, "note": 59, "velocity": 107, "channel": 0}, {"type": "note_off", "time": 49, "note": 59, "velocity": 107, "channel": 0}, {"type": "note_on", "time": 10, "note": 61, "velocity": 112, "channel": 0}, {"type": "note_off", "time": 51, "note": 61, "velocity": 112, "channel": 0}, {"type": "note_on", "time": 7, "note": 59, "velocity": 112, "channel": 0}, {"type": "note_off", "time": 53, "note": 59, "velocity": 112, "channel": 0}, {"type": "note_on", "time": 12, "note": 56, "velocity": 110, "channel": 0}, {"type": "note_off", "time": 205, "note": 56, "velocity": 110, "channel": 0}, {"type": "note_on", "time": 1544, "note": 63, "velocity": 104, "channel": 0}, {"type": "note_off", "time": 43, "note": 63, "velocity": 104, "channel": 0}, {"type": "note_on", "time": 3, "note": 65, "velocity": 114, "channel": 0}, {"type": "note_off", "time": 139, "note": 65, "velocity": 114, "channel": 0}, {"type": "note_on", "time": 5, "note": 68, "velocity": 121, "channel": 0}, {"type": "note_off", "time": 91, "note": 68, "velocity": 121, "channel": 0}, {"type": "note_on", "time": 103, "note": 68, "velocity": 116, "channel": 0}, {"type": "note_off", "time": 285, "note": 68, "velocity": 116, "channel": 0}, {"type": "note_on", "time": 6, "note": 68, "velocity": 115, "channel": 0}, {"type": "note_off", "time": 173, "note": 68, "velocity": 115, "channel": 0}, {"type": "note_on", "time": 11, "note": 68, "velocity": 114, "channel": 0}, {"type": "note_off", "time": 284, "note": 68, "velocity": 114, "channel": 0}, {"type": "note_on", "time": 2, "note": 63, "velocity": 114, "channel": 0}, {"type": "note_off", "time": 41, "note": 63, "velocity": 114, "channel": 0}, {"type": "note_on", "time": 3, "note": 65, "velocity": 114, "channel": 0}, {"type": "note_off", "time": 159, "note": 65, "velocity": 114, "channel": 0}, {"type": "note_on", "time": 10, "note": 68, "velocity": 109, "channel": 0}, {"type": "note_off", "time": 41, "note": 68, "velocity": 109, "channel": 0}, {"type": "note_on", "time": 545, "note": 64, "velocity": 95, "channel": 0}, {"type": "note_off", "time": 43, "note": 64, "velocity": 95, "channel": 0}, {"type": "note_on", "time": 4, "note": 65, "velocity": 107, "channel": 0}, {"type": "note_off", "time": 53, "note": 65, "velocity": 107, "channel": 0}, {"type": "note_on", "time": 9, "note": 68, "velocity": 112, "channel": 0}, {"type": "note_off", "time": 24, "note": 68, "velocity": 112, "channel": 0}, {"type": "note_on", "time": 142, "note": 68, "velocity": 114, "channel": 0}, {"type": "note_off", "time": 383, "note": 68, "velocity": 114, "channel": 0}, {"type": "note_on", "time": 82, "note": 70, "velocity": 115, "channel": 0}, {"type": "note_off", "time": 104, "note": 70, "velocity": 115, "channel": 0}, {"type": "note_on", "time": 15, "note": 68, "velocity": 114, "channel": 0}, {"type": "note_off", "time": 68, "note": 68, "velocity": 114, "channel": 0}, {"type": "note_on", "time": 9, "note": 70, "velocity": 110, "channel": 0}, {"type": "note_off", "time": 116, "note": 70, "velocity": 110, "channel": 0}, {"type": "note_on", "time": 497, "note": 63, "velocity": 104, "channel": 0}, {"type": "note_off", "time": 41, "note": 63, "velocity": 104, "channel": 0}, {"type": "note_on", "time": 3, "note": 65, "velocity": 116, "channel": 0}, {"type": "note_off", "time": 77, "note": 65, "velocity": 116, "channel": 0}, {"type": "note_on", "time": 2, "note": 68, "velocity": 117, "channel": 0}, {"type": "note_off", "time": 60, "note": 68, "velocity": 117, "channel": 0}, {"type": "note_on", "time": 114, "note": 68, "velocity": 118, "channel": 0}, {"type": "note_off", "time": 364, "note": 68, "velocity": 118, "channel": 0}, {"type": "note_on", "time": 7, "note": 65, "velocity": 106, "channel": 0}, {"type": "note_off", "time": 66, "note": 65, "velocity": 106, "channel": 0}, {"type": "note_on", "time": 5, "note": 68, "velocity": 120, "channel": 0}, {"type": "note_off", "time": 56, "note": 68, "velocity": 120, "channel": 0}, {"type": "note_on", "time": 7, "note": 70, "velocity": 118, "channel": 0}, {"type": "note_off", "time": 47, "note": 70, "velocity": 118, "channel": 0}, {"type": "note_on", "time": 83, "note": 70, "velocity": 117, "channel": 0}, {"type": "note_off", "time": 135, "note": 70, "velocity": 117, "channel": 0}, {"type": "note_on", "time": 462, "note": 63, "velocity": 98, "channel": 0}, {"type": "note_off", "time": 66, "note": 63, "velocity": 98, "channel": 0}, {"type": "note_on", "time": 6, "note": 65, "velocity": 105, "channel": 0}, {"type": "note_off", "time": 48, "note": 65, "velocity": 105, "channel": 0}, {"type": "note_on", "time": 11, "note": 68, "velocity": 113, "channel": 0}, {"type": "note_off", "time": 51, "note": 68, "velocity": 113, "channel": 0}, {"type": "note_on", "time": 98, "note": 68, "velocity": 117, "channel": 0}, {"type": "note_off", "time": 465, "note": 68, "velocity": 117, "channel": 0}, {"type": "note_on", "time": 19, "note": 68, "velocity": 118, "channel": 0}, {"type": "note_off", "time": 79, "note": 68, "velocity": 118, "channel": 0}, {"type": "note_on", "time": 1, "note": 64, "velocity": 122, "channel": 0}, {"type": "note_off", "time": 32, "note": 64, "velocity": 122, "channel": 0}, {"type": "note_on", "time": 5, "note": 63, "velocity": 115, "channel": 0}, {"type": "note_off", "time": 22, "note": 63, "velocity": 115, "channel": 0}, {"type": "note_on", "time": 8, "note": 62, "velocity": 119, "channel": 0}, {"type": "note_off", "time": 40, "note": 62, "velocity": 119, "channel": 0}, {"type": "note_on", "time": 13, "note": 59, "velocity": 105, "channel": 0}, {"type": "note_off", "time": 72, "note": 59, "velocity": 105, "channel": 0}, {"type": "note_on", "time": 413, "note": 58, "velocity": 101, "channel": 0}, {"type": "note_off", "time": 61, "note": 58, "velocity": 101, "channel": 0}, {"type": "note_on", "time": 16, "note": 54, "velocity": 107, "channel": 0}, {"type": "note_off", "time": 88, "note": 54, "velocity": 107, "channel": 0}, {"type": "note_on", "time": 6, "note": 56, "velocity": 108, "channel": 0}, {"type": "note_off", "time": 90, "note": 56, "velocity": 108, "channel": 0}, {"type": "note_on", "time": 10, "note": 58, "velocity": 103, "channel": 0}, {"type": "note_off", "time": 78, "note": 58, "velocity": 103, "channel": 0}, {"type": "note_on", "time": 2, "note": 61, "velocity": 123, "channel": 0}, {"type": "note_off", "time": 100, "note": 61, "velocity": 123, "channel": 0}, {"type": "note_on", "time": 11, "note": 64, "velocity": 120, "channel": 0}, {"type": "note_off", "time": 84, "note": 64, "velocity": 120, "channel": 0}, {"type": "note_on", "time": 4, "note": 66, "velocity": 115, "channel": 0}, {"type": "note_off", "time": 82, "note": 66, "velocity": 115, "channel": 0}, {"type": "note_on", "time": 3, "note": 68, "velocity": 118, "channel": 0}, {"type": "note_off", "time": 94, "note": 68, "velocity": 118, "channel": 0}, {"type": "note_on", "time": 3, "note": 70, "velocity": 114, "channel": 0}, {"type": "note_off", "time": 89, "note": 70, "velocity": 114, "channel": 0}, {"type": "note_on", "time": 3, "note": 73, "velocity": 115, "channel": 0}, {"type": "note_off", "time": 84, "note": 73, "velocity": 115, "channel": 0}, {"type": "note_on", "time": 17, "note": 68, "velocity": 113, "channel": 0}, {"type": "note_off", "time": 79, "note": 68, "velocity": 113, "channel": 0}, {"type": "note_on", "time": 8, "note": 70, "velocity": 113, "channel": 0}, {"type": "note_off", "time": 80, "note": 70, "velocity": 113, "channel": 0}, {"type": "note_on", "time": 4, "note": 66, "velocity": 105, "channel": 0}, {"type": "note_on", "time": 94, "note": 68, "velocity": 115, "channel": 0}, {"type": "note_off", "time": 0, "note": 66, "velocity": 105, "channel": 0}, {"type": "note_off", "time": 191, "note": 68, "velocity": 115, "channel": 0}, {"type": "note_on", "time": 5, "note": 64, "velocity": 116, "channel": 0}, {"type": "note_off", "time": 87, "note": 64, "velocity": 116, "channel": 0}, {"type": "note_on", "time": 11, "note": 61, "velocity": 109, "channel": 0}, {"type": "note_off", "time": 80, "note": 61, "velocity": 109, "channel": 0}, {"type": "note_on", "time": 404, "note": 64, "velocity": 127, "channel": 0}, {"type": "note_off", "time": 77, "note": 64, "velocity": 127, "channel": 0}, {"type": "note_on", "time": 12, "note": 63, "velocity": 116, "channel": 0}, {"type": "note_off", "time": 34, "note": 63, "velocity": 116, "channel": 0}, {"type": "note_on", "time": 12, "note": 61, "velocity": 115, "channel": 0}, {"type": "note_off", "time": 44, "note": 61, "velocity": 115, "channel": 0}, {"type": "note_on", "time": 4, "note": 59, "velocity": 108, "channel": 0}, {"type": "note_off", "time": 80, "note": 59, "velocity": 108, "channel": 0}, {"type": "note_on", "time": 3, "note": 58, "velocity": 104, "channel": 0}, {"type": "note_off", "time": 93, "note": 58, "velocity": 104, "channel": 0}, {"type": "note_on", "time": 3, "note": 56, "velocity": 108, "channel": 0}, {"type": "note_off", "time": 94, "note": 56, "velocity": 108, "channel": 0}, {"type": "note_on", "time": 8, "note": 54, "velocity": 114, "channel": 0}, {"type": "note_off", "time": 97, "note": 54, "velocity": 114, "channel": 0}, {"type": "note_on", "time": 0, "note": 52, "velocity": 113, "channel": 0}, {"type": "note_off", "time": 88, "note": 52, "velocity": 113, "channel": 0}, {"type": "note_on", "time": 52, "note": 50, "velocity": 107, "channel": 0}, {"type": "note_off", "time": 36, "note": 50, "velocity": 107, "channel": 0}, {"type": "note_on", "time": 2, "note": 51, "velocity": 107, "channel": 0}, {"type": "note_off", "time": 341, "note": 51, "velocity": 107, "channel": 0}, {"type": "note_on", "time": 52, "note": 56, "velocity": 105, "channel": 0}, {"type": "note_off", "time": 351, "note": 56, "velocity": 105, "channel": 0}, {"type": "note_on", "time": 31, "note": 53, "velocity": 103, "channel": 0}, {"type": "note_off", "time": 277, "note": 53, "velocity": 103, "channel": 0}, {"type": "note_on", "time": 1993, "note": 70, "velocity": 116, "channel": 0}, {"type": "note_off", "time": 153, "note": 70, "velocity": 116, "channel": 0}, {"type": "note_on", "time": 38, "note": 72, "velocity": 113, "channel": 0}, {"type": "note_off", "time": 26, "note": 72, "velocity": 113, "channel": 0}, {"type": "note_on", "time": 2, "note": 73, "velocity": 110, "channel": 0}, {"type": "note_off", "time": 161, "note": 73, "velocity": 110, "channel": 0}, {"type": "note_on", "time": 0, "note": 70, "velocity": 114, "channel": 0}, {"type": "note_off", "time": 150, "note": 70, "velocity": 114, "channel": 0}, {"type": "note_on", "time": 154, "note": 69, "velocity": 115, "channel": 0}, {"type": "note_off", "time": 38, "note": 69, "velocity": 115, "channel": 0}, {"type": "note_on", "time": 4, "note": 70, "velocity": 109, "channel": 0}, {"type": "note_off", "time": 128, "note": 70, "velocity": 109, "channel": 0}, {"type": "note_on", "time": 6, "note": 70, "velocity": 111, "channel": 0}, {"type": "note_off", "time": 88, "note": 70, "velocity": 111, "channel": 0}, {"type": "note_on", "time": 8, "note": 73, "velocity": 112, "channel": 0}, {"type": "note_off", "time": 89, "note": 73, "velocity": 112, "channel": 0}, {"type": "note_on", "time": 11, "note": 73, "velocity": 110, "channel": 0}, {"type": "note_off", "time": 80, "note": 73, "velocity": 110, "channel": 0}, {"type": "note_on", "time": 1, "note": 70, "velocity": 109, "channel": 0}, {"type": "note_off", "time": 78, "note": 70, "velocity": 109, "channel": 0}, {"type": "note_on", "time": 15, "note": 70, "velocity": 9, "channel": 0}, {"type": "note_off", "time": 85, "note": 70, "velocity": 9, "channel": 0}, {"type": "note_on", "time": 11, "note": 68, "velocity": 112, "channel": 0}, {"type": "note_off", "time": 80, "note": 68, "velocity": 112, "channel": 0}, {"type": "note_on", "time": 470, "note": 70, "velocity": 114, "channel": 0}, {"type": "note_off", "time": 46, "note": 70, "velocity": 114, "channel": 0}, {"type": "note_on", "time": 5, "note": 72, "velocity": 117, "channel": 0}, {"type": "note_off", "time": 58, "note": 72, "velocity": 117, "channel": 0}, {"type": "note_on", "time": 9, "note": 75, "velocity": 108, "channel": 0}, {"type": "note_off", "time": 602, "note": 75, "velocity": 108, "channel": 0}, {"type": "note_on", "time": 53, "note": 71, "velocity": 109, "channel": 0}, {"type": "note_off", "time": 96, "note": 71, "velocity": 109, "channel": 0}, {"type": "note_on", "time": 16, "note": 67, "velocity": 112, "channel": 0}, {"type": "note_off", "time": 40, "note": 67, "velocity": 112, "channel": 0}, {"type": "note_on", "time": 8, "note": 63, "velocity": 109, "channel": 0}, {"type": "note_off", "time": 32, "note": 63, "velocity": 109, "channel": 0}, {"type": "note_on", "time": 8, "note": 59, "velocity": 106, "channel": 0}, {"type": "note_off", "time": 82, "note": 59, "velocity": 106, "channel": 0}, {"type": "note_on", "time": 11, "note": 57, "velocity": 107, "channel": 0}, {"type": "note_off", "time": 57, "note": 57, "velocity": 107, "channel": 0}, {"type": "note_on", "time": 3, "note": 58, "velocity": 102, "channel": 0}, {"type": "note_off", "time": 1462, "note": 58, "velocity": 102, "channel": 0}, {"type": "note_on", "time": 28, "note": 56, "velocity": 103, "channel": 0}, {"type": "note_off", "time": 73, "note": 56, "velocity": 103, "channel": 0}, {"type": "note_on", "time": 0, "note": 58, "velocity": 105, "channel": 0}, {"type": "note_off", "time": 143, "note": 58, "velocity": 105, "channel": 0}, {"type": "note_on", "time": 1424, "note": 68, "velocity": 118, "channel": 0}, {"type": "note_off", "time": 89, "note": 68, "velocity": 118, "channel": 0}, {"type": "note_on", "time": 13, "note": 68, "velocity": 121, "channel": 0}, {"type": "note_off", "time": 77, "note": 68, "velocity": 121, "channel": 0}, {"type": "note_on", "time": 14, "note": 66, "velocity": 118, "channel": 0}, {"type": "note_off", "time": 86, "note": 66, "velocity": 118, "channel": 0}, {"type": "note_on", "time": 3, "note": 68, "velocity": 121, "channel": 0}, {"type": "note_off", "time": 74, "note": 68, "velocity": 121, "channel": 0}, {"type": "note_on", "time": 1091, "note": 63, "velocity": 109, "channel": 0}, {"type": "note_off", "time": 63, "note": 63, "velocity": 109, "channel": 0}, {"type": "note_on", "time": 16, "note": 68, "velocity": 120, "channel": 0}, {"type": "note_off", "time": 95, "note": 68, "velocity": 120, "channel": 0}, {"type": "note_on", "time": 12, "note": 68, "velocity": 121, "channel": 0}, {"type": "note_off", "time": 91, "note": 68, "velocity": 121, "channel": 0}, {"type": "note_on", "time": 8, "note": 66, "velocity": 115, "channel": 0}, {"type": "note_off", "time": 84, "note": 66, "velocity": 115, "channel": 0}, {"type": "note_on", "time": 1, "note": 68, "velocity": 115, "channel": 0}, {"type": "note_off", "time": 88, "note": 68, "velocity": 115, "channel": 0}, {"type": "note_on", "time": 1163, "note": 68, "velocity": 116, "channel": 0}, {"type": "note_off", "time": 84, "note": 68, "velocity": 116, "channel": 0}, {"type": "note_on", "time": 4, "note": 68, "velocity": 115, "channel": 0}, {"type": "note_off", "time": 85, "note": 68, "velocity": 115, "channel": 0}, {"type": "note_on", "time": 13, "note": 66, "velocity": 109, "channel": 0}, {"type": "note_off", "time": 86, "note": 66, "velocity": 109, "channel": 0}, {"type": "note_on", "time": 4, "note": 68, "velocity": 109, "channel": 0}, {"type": "note_off", "time": 75, "note": 68, "velocity": 109, "channel": 0}, {"type": "note_on", "time": 115, "note": 75, "velocity": 110, "channel": 0}, {"type": "note_off", "time": 81, "note": 75, "velocity": 110, "channel": 0}, {"type": "note_on", "time": 6, "note": 77, "velocity": 105, "channel": 0}, {"type": "note_off", "time": 940, "note": 77, "velocity": 105, "channel": 0}, {"type": "note_on", "time": 0, "note": 68, "velocity": 116, "channel": 0}, {"type": "note_off", "time": 111, "note": 68, "velocity": 116, "channel": 0}, {"type": "note_on", "time": 91, "note": 66, "velocity": 107, "channel": 0}, {"type": "note_off", "time": 199, "note": 66, "velocity": 107, "channel": 0}, {"type": "note_on", "time": 383, "note": 66, "velocity": 110, "channel": 0}, {"type": "note_off", "time": 59, "note": 66, "velocity": 110, "channel": 0}, {"type": "note_on", "time": 35, "note": 76, "velocity": 113, "channel": 0}, {"type": "note_off", "time": 86, "note": 76, "velocity": 113, "channel": 0}, {"type": "note_on", "time": 63, "note": 66, "velocity": 113, "channel": 0}, {"type": "note_off", "time": 86, "note": 66, "velocity": 113, "channel": 0}, {"type": "note_on", "time": 3, "note": 65, "velocity": 111, "channel": 0}, {"type": "note_off", "time": 115, "note": 65, "velocity": 111, "channel": 0}, {"type": "note_on", "time": 82, "note": 74, "velocity": 113, "channel": 0}, {"type": "note_off", "time": 97, "note": 74, "velocity": 113, "channel": 0}, {"type": "note_on", "time": 494, "note": 73, "velocity": 116, "channel": 0}, {"type": "note_off", "time": 89, "note": 73, "velocity": 116, "channel": 0}, {"type": "note_on", "time": 372, "note": 61, "velocity": 115, "channel": 0}, {"type": "note_off", "time": 71, "note": 61, "velocity": 115, "channel": 0}, {"type": "note_on", "time": 21, "note": 71, "velocity": 118, "channel": 0}, {"type": "note_off", "time": 97, "note": 71, "velocity": 118, "channel": 0}, {"type": "note_on", "time": 468, "note": 70, "velocity": 117, "channel": 0}, {"type": "note_off", "time": 117, "note": 70, "velocity": 117, "channel": 0}, {"type": "note_on", "time": 469, "note": 68, "velocity": 121, "channel": 0}, {"type": "note_off", "time": 93, "note": 68, "velocity": 121, "channel": 0}, {"type": "note_on", "time": 379, "note": 66, "velocity": 113, "channel": 0}, {"type": "note_off", "time": 142, "note": 66, "velocity": 113, "channel": 0}, {"type": "note_on", "time": 8, "note": 65, "velocity": 110, "channel": 0}, {"type": "note_off", "time": 242, "note": 65, "velocity": 110, "channel": 0}, {"type": "note_on", "time": 21, "note": 65, "velocity": 115, "channel": 0}, {"type": "note_off", "time": 94, "note": 65, "velocity": 115, "channel": 0}, {"type": "note_on", "time": 16, "note": 63, "velocity": 110, "channel": 0}, {"type": "note_off", "time": 99, "note": 63, "velocity": 110, "channel": 0}, {"type": "note_on", "time": 49, "note": 63, "velocity": 110, "channel": 0}, {"type": "note_off", "time": 506, "note": 63, "velocity": 110, "channel": 0}, {"type": "note_on", "time": 14, "note": 65, "velocity": 110, "channel": 0}, {"type": "note_off", "time": 68, "note": 65, "velocity": 110, "channel": 0}, {"type": "note_on", "time": 18, "note": 60, "velocity": 111, "channel": 0}, {"type": "note_off", "time": 280, "note": 60, "velocity": 111, "channel": 0}, {"type": "note_on", "time": 13, "note": 63, "velocity": 115, "channel": 0}, {"type": "note_off", "time": 77, "note": 63, "velocity": 115, "channel": 0}, {"type": "note_on", "time": 8, "note": 58, "velocity": 103, "channel": 0}, {"type": "note_off", "time": 67, "note": 58, "velocity": 103, "channel": 0}, {"type": "note_on", "time": 14, "note": 63, "velocity": 114, "channel": 0}, {"type": "note_off", "time": 66, "note": 63, "velocity": 114, "channel": 0}, {"type": "note_on", "time": 11, "note": 56, "velocity": 103, "channel": 0}, {"type": "note_off", "time": 99, "note": 56, "velocity": 103, "channel": 0}, {"type": "note_on", "time": 16, "note": 54, "velocity": 106, "channel": 0}, {"type": "note_off", "time": 94, "note": 54, "velocity": 106, "channel": 0}, {"type": "note_on", "time": 1558, "note": 56, "velocity": 101, "channel": 0}, {"type": "note_off", "time": 68, "note": 56, "velocity": 101, "channel": 0}, {"type": "note_on", "time": 17, "note": 58, "velocity": 107, "channel": 0}, {"type": "note_off", "time": 78, "note": 58, "velocity": 107, "channel": 0}, {"type": "note_on", "time": 9, "note": 59, "velocity": 112, "channel": 0}, {"type": "note_off", "time": 93, "note": 59, "velocity": 112, "channel": 0}, {"type": "note_on", "time": 18, "note": 68, "velocity": 112, "channel": 0}, {"type": "note_off", "time": 81, "note": 68, "velocity": 112, "channel": 0}, {"type": "note_on", "time": 6, "note": 63, "velocity": 111, "channel": 0}, {"type": "note_off", "time": 98, "note": 63, "velocity": 111, "channel": 0}, {"type": "note_on", "time": 5, "note": 65, "velocity": 112, "channel": 0}, {"type": "note_off", "time": 88, "note": 65, "velocity": 112, "channel": 0}, {"type": "note_on", "time": 4, "note": 66, "velocity": 115, "channel": 0}, {"type": "note_off", "time": 69, "note": 66, "velocity": 115, "channel": 0}, {"type": "note_on", "time": 12, "note": 68, "velocity": 119, "channel": 0}, {"type": "note_off", "time": 80, "note": 68, "velocity": 119, "channel": 0}, {"type": "note_on", "time": 12, "note": 70, "velocity": 116, "channel": 0}, {"type": "note_off", "time": 94, "note": 70, "velocity": 116, "channel": 0}, {"type": "note_on", "time": 8, "note": 73, "velocity": 114, "channel": 0}, {"type": "note_off", "time": 275, "note": 73, "velocity": 114, "channel": 0}, {"type": "note_on", "time": 13, "note": 70, "velocity": 117, "channel": 0}, {"type": "note_off", "time": 74, "note": 70, "velocity": 117, "channel": 0}, {"type": "note_on", "time": 8, "note": 68, "velocity": 116, "channel": 0}, {"type": "note_off", "time": 86, "note": 68, "velocity": 116, "channel": 0}, {"type": "note_on", "time": 4, "note": 66, "velocity": 113, "channel": 0}, {"type": "note_off", "time": 86, "note": 66, "velocity": 113, "channel": 0}, {"type": "note_on", "time": 12, "note": 68, "velocity": 115, "channel": 0}, {"type": "note_off", "time": 107, "note": 68, "velocity": 115, "channel": 0}, {"type": "note_on", "time": 0, "note": 67, "velocity": 111, "channel": 0}, {"type": "note_off", "time": 82, "note": 67, "velocity": 111, "channel": 0}, {"type": "note_on", "time": 8, "note": 65, "velocity": 116, "channel": 0}, {"type": "note_off", "time": 83, "note": 65, "velocity": 116, "channel": 0}, {"type": "note_on", "time": 14, "note": 61, "velocity": 119, "channel": 0}, {"type": "note_off", "time": 80, "note": 61, "velocity": 119, "channel": 0}, {"type": "note_on", "time": 103, "note": 63, "velocity": 114, "channel": 0}, {"type": "note_off", "time": 114, "note": 63, "velocity": 114, "channel": 0}, {"type": "note_on", "time": 274, "note": 61, "velocity": 117, "channel": 0}, {"type": "note_off", "time": 56, "note": 61, "velocity": 117, "channel": 0}, {"type": "note_on", "time": 47, "note": 63, "velocity": 116, "channel": 0}, {"type": "note_off", "time": 56, "note": 63, "velocity": 116, "channel": 0}, {"type": "note_on", "time": 140, "note": 68, "velocity": 107, "channel": 0}, {"type": "note_off", "time": 46, "note": 68, "velocity": 107, "channel": 0}, {"type": "note_on", "time": 38, "note": 70, "velocity": 112, "channel": 0}, {"type": "note_off", "time": 51, "note": 70, "velocity": 112, "channel": 0}, {"type": "note_on", "time": 5, "note": 72, "velocity": 122, "channel": 0}, {"type": "note_off", "time": 246, "note": 72, "velocity": 122, "channel": 0}, {"type": "note_on", "time": 1, "note": 75, "velocity": 113, "channel": 0}, {"type": "note_off", "time": 52, "note": 75, "velocity": 113, "channel": 0}, {"type": "note_on", "time": 68, "note": 68, "velocity": 120, "channel": 0}, {"type": "note_off", "time": 374, "note": 68, "velocity": 120, "channel": 0}, {"type": "note_on", "time": 31, "note": 65, "velocity": 115, "channel": 0}, {"type": "note_off", "time": 57, "note": 65, "velocity": 115, "channel": 0}, {"type": "note_on", "time": 5, "note": 68, "velocity": 117, "channel": 0}, {"type": "note_off", "time": 283, "note": 68, "velocity": 117, "channel": 0}, {"type": "note_on", "time": 4, "note": 65, "velocity": 115, "channel": 0}, {"type": "note_off", "time": 97, "note": 65, "velocity": 115, "channel": 0}, {"type": "note_on", "time": 11, "note": 68, "velocity": 117, "channel": 0}, {"type": "note_off", "time": 270, "note": 68, "velocity": 117, "channel": 0}, {"type": "note_on", "time": 8, "note": 63, "velocity": 110, "channel": 0}, {"type": "note_off", "time": 89, "note": 63, "velocity": 110, "channel": 0}, {"type": "note_on", "time": 20, "note": 68, "velocity": 109, "channel": 0}, {"type": "note_off", "time": 244, "note": 68, "velocity": 109, "channel": 0}, {"type": "note_on", "time": 16, "note": 60, "velocity": 111, "channel": 0}, {"type": "note_off", "time": 94, "note": 60, "velocity": 111, "channel": 0}, {"type": "note_on", "time": 8, "note": 68, "velocity": 116, "channel": 0}, {"type": "note_off", "time": 87, "note": 68, "velocity": 116, "channel": 0}, {"type": "note_on", "time": 1353, "note": 75, "velocity": 106, "channel": 0}, {"type": "note_off", "time": 61, "note": 75, "velocity": 106, "channel": 0}, {"type": "note_on", "time": 14, "note": 77, "velocity": 111, "channel": 0}, {"type": "note_off", "time": 274, "note": 77, "velocity": 111, "channel": 0}, {"type": "note_on", "time": 13, "note": 75, "velocity": 115, "channel": 0}, {"type": "note_off", "time": 380, "note": 75, "velocity": 115, "channel": 0}, {"type": "note_on", "time": 768, "note": 76, "velocity": 118, "channel": 0}, {"type": "note_off", "time": 48, "note": 76, "velocity": 118, "channel": 0}, {"type": "note_on", "time": 1, "note": 77, "velocity": 111, "channel": 0}, {"type": "note_off", "time": 246, "note": 77, "velocity": 111, "channel": 0}, {"type": "note_on", "time": 8, "note": 75, "velocity": 110, "channel": 0}, {"type": "note_off", "time": 87, "note": 75, "velocity": 110, "channel": 0}, {"type": "note_on", "time": 388, "note": 76, "velocity": 110, "channel": 0}, {"type": "note_off", "time": 100, "note": 76, "velocity": 110, "channel": 0}, {"type": "note_on", "time": 4, "note": 75, "velocity": 107, "channel": 0}, {"type": "note_off", "time": 69, "note": 75, "velocity": 107, "channel": 0}, {"type": "note_on", "time": 7, "note": 76, "velocity": 110, "channel": 0}, {"type": "note_off", "time": 110, "note": 76, "velocity": 110, "channel": 0}, {"type": "note_on", "time": 0, "note": 75, "velocity": 109, "channel": 0}, {"type": "note_off", "time": 99, "note": 75, "velocity": 109, "channel": 0}, {"type": "note_on", "time": 503, "note": 70, "velocity": 104, "channel": 0}, {"type": "note_off", "time": 78, "note": 70, "velocity": 104, "channel": 0}, {"type": "note_on", "time": 3, "note": 68, "velocity": 120, "channel": 0}, {"type": "note_off", "time": 82, "note": 68, "velocity": 120, "channel": 0}, {"type": "note_on", "time": 30, "note": 70, "velocity": 118, "channel": 0}, {"type": "note_off", "time": 328, "note": 70, "velocity": 118, "channel": 0}, {"type": "note_on", "time": 4, "note": 68, "velocity": 117, "channel": 0}, {"type": "note_off", "time": 92, "note": 68, "velocity": 117, "channel": 0}, {"type": "note_on", "time": 68, "note": 70, "velocity": 115, "channel": 0}, {"type": "note_off", "time": 73, "note": 70, "velocity": 115, "channel": 0}, {"type": "note_on", "time": 12, "note": 68, "velocity": 115, "channel": 0}, {"type": "note_off", "time": 78, "note": 68, "velocity": 115, "channel": 0}, {"type": "note_on", "time": 21, "note": 70, "velocity": 114, "channel": 0}, {"type": "note_off", "time": 67, "note": 70, "velocity": 114, "channel": 0}, {"type": "note_on", "time": 4, "note": 68, "velocity": 115, "channel": 0}, {"type": "note_on", "time": 83, "note": 70, "velocity": 108, "channel": 0}, {"type": "note_off", "time": 0, "note": 68, "velocity": 115, "channel": 0}, {"type": "note_off", "time": 60, "note": 70, "velocity": 108, "channel": 0}, {"type": "note_on", "time": 0, "note": 68, "velocity": 111, "channel": 0}, {"type": "note_off", "time": 53, "note": 68, "velocity": 111, "channel": 0}, {"type": "note_on", "time": 31, "note": 70, "velocity": 115, "channel": 0}, {"type": "note_off", "time": 39, "note": 70, "velocity": 115, "channel": 0}, {"type": "note_on", "time": 5, "note": 68, "velocity": 112, "channel": 0}, {"type": "note_off", "time": 48, "note": 68, "velocity": 112, "channel": 0}, {"type": "note_on", "time": 24, "note": 70, "velocity": 112, "channel": 0}, {"type": "note_off", "time": 67, "note": 70, "velocity": 112, "channel": 0}, {"type": "note_on", "time": 1, "note": 68, "velocity": 112, "channel": 0}, {"type": "note_off", "time": 62, "note": 68, "velocity": 112, "channel": 0}, {"type": "note_on", "time": 48, "note": 70, "velocity": 112, "channel": 0}, {"type": "note_off", "time": 129, "note": 70, "velocity": 112, "channel": 0}, {"type": "note_on", "time": 10, "note": 68, "velocity": 111, "channel": 0}, {"type": "note_off", "time": 84, "note": 68, "velocity": 111, "channel": 0}, {"type": "note_on", "time": 21, "note": 65, "velocity": 109, "channel": 0}, {"type": "note_off", "time": 115, "note": 65, "velocity": 109, "channel": 0}, {"type": "note_on", "time": 1119, "note": 66, "velocity": 104, "channel": 0}, {"type": "note_off", "time": 109, "note": 66, "velocity": 104, "channel": 0}, {"type": "note_on", "time": 10, "note": 68, "velocity": 115, "channel": 0}, {"type": "note_off", "time": 108, "note": 68, "velocity": 115, "channel": 0}, {"type": "note_on", "time": 265, "note": 61, "velocity": 101, "channel": 0}, {"type": "note_off", "time": 59, "note": 61, "velocity": 101, "channel": 0}, {"type": "note_on", "time": 21, "note": 66, "velocity": 116, "channel": 0}, {"type": "note_off", "time": 104, "note": 66, "velocity": 116, "channel": 0}, {"type": "note_on", "time": 3, "note": 68, "velocity": 117, "channel": 0}, {"type": "note_off", "time": 89, "note": 68, "velocity": 117, "channel": 0}, {"type": "note_on", "time": 287, "note": 61, "velocity": 109, "channel": 0}, {"type": "note_off", "time": 77, "note": 61, "velocity": 109, "channel": 0}, {"type": "note_on", "time": 21, "note": 64, "velocity": 122, "channel": 0}, {"type": "note_off", "time": 103, "note": 64, "velocity": 122, "channel": 0}, {"type": "note_on", "time": 4, "note": 66, "velocity": 114, "channel": 0}, {"type": "note_off", "time": 85, "note": 66, "velocity": 114, "channel": 0}, {"type": "note_on", "time": 318, "note": 61, "velocity": 116, "channel": 0}, {"type": "note_off", "time": 43, "note": 61, "velocity": 116, "channel": 0}, {"type": "note_on", "time": 52, "note": 66, "velocity": 113, "channel": 0}, {"type": "note_off", "time": 109, "note": 66, "velocity": 113, "channel": 0}, {"type": "note_on", "time": 1, "note": 68, "velocity": 117, "channel": 0}, {"type": "note_off", "time": 91, "note": 68, "velocity": 117, "channel": 0}, {"type": "note_on", "time": 285, "note": 61, "velocity": 114, "channel": 0}, {"type": "note_off", "time": 61, "note": 61, "velocity": 114, "channel": 0}, {"type": "note_on", "time": 16, "note": 64, "velocity": 114, "channel": 0}, {"type": "note_off", "time": 66, "note": 64, "velocity": 114, "channel": 0}, {"type": "note_on", "time": 2, "note": 66, "velocity": 107, "channel": 0}, {"type": "note_off", "time": 37, "note": 66, "velocity": 107, "channel": 0}, {"type": "note_on", "time": 6, "note": 61, "velocity": 117, "channel": 0}, {"type": "note_off", "time": 52, "note": 61, "velocity": 117, "channel": 0}, {"type": "note_on", "time": 20, "note": 64, "velocity": 114, "channel": 0}, {"type": "note_off", "time": 130, "note": 64, "velocity": 114, "channel": 0}, {"type": "note_on", "time": 8, "note": 66, "velocity": 110, "channel": 0}, {"type": "note_off", "time": 99, "note": 66, "velocity": 110, "channel": 0}, {"type": "note_on", "time": 373, "note": 60, "velocity": 116, "channel": 0}, {"type": "note_off", "time": 16, "note": 60, "velocity": 116, "channel": 0}, {"type": "note_on", "time": 6, "note": 63, "velocity": 107, "channel": 0}, {"type": "note_off", "time": 76, "note": 63, "velocity": 107, "channel": 0}, {"type": "note_on", "time": 8, "note": 65, "velocity": 112, "channel": 0}, {"type": "note_off", "time": 97, "note": 65, "velocity": 112, "channel": 0}, {"type": "note_on", "time": 282, "note": 60, "velocity": 98, "channel": 0}, {"type": "note_off", "time": 37, "note": 60, "velocity": 98, "channel": 0}, {"type": "note_on", "time": 28, "note": 68, "velocity": 118, "channel": 0}, {"type": "note_off", "time": 117, "note": 68, "velocity": 118, "channel": 0}, {"type": "note_on", "time": 4, "note": 70, "velocity": 111, "channel": 0}, {"type": "note_off", "time": 80, "note": 70, "velocity": 111, "channel": 0}, {"type": "note_on", "time": 290, "note": 60, "velocity": 9, "channel": 0}, {"type": "note_off", "time": 56, "note": 60, "velocity": 9, "channel": 0}, {"type": "note_on", "time": 13, "note": 63, "velocity": 119, "channel": 0}, {"type": "note_off", "time": 65, "note": 63, "velocity": 119, "channel": 0}, {"type": "note_on", "time": 7, "note": 65, "velocity": 118, "channel": 0}, {"type": "note_off", "time": 45, "note": 65, "velocity": 118, "channel": 0}, {"type": "note_on", "time": 330, "note": 63, "velocity": 99, "channel": 0}, {"type": "note_off", "time": 42, "note": 63, "velocity": 99, "channel": 0}, {"type": "note_on", "time": 13, "note": 68, "velocity": 125, "channel": 0}, {"type": "note_off", "time": 65, "note": 68, "velocity": 125, "channel": 0}, {"type": "note_on", "time": 1, "note": 70, "velocity": 122, "channel": 0}, {"type": "note_off", "time": 39, "note": 70, "velocity": 122, "channel": 0}, {"type": "note_on", "time": 99, "note": 60, "velocity": 122, "channel": 0}, {"type": "note_off", "time": 41, "note": 60, "velocity": 122, "channel": 0}, {"type": "note_on", "time": 13, "note": 63, "velocity": 120, "channel": 0}, {"type": "note_off", "time": 35, "note": 63, "velocity": 120, "channel": 0}, {"type": "note_on", "time": 4, "note": 65, "velocity": 120, "channel": 0}, {"type": "note_off", "time": 56, "note": 65, "velocity": 120, "channel": 0}, {"type": "note_on", "time": 147, "note": 68, "velocity": 124, "channel": 0}, {"type": "note_off", "time": 60, "note": 68, "velocity": 124, "channel": 0}, {"type": "note_on", "time": 2, "note": 70, "velocity": 120, "channel": 0}, {"type": "note_off", "time": 66, "note": 70, "velocity": 120, "channel": 0}, {"type": "note_on", "time": 71, "note": 60, "velocity": 109, "channel": 0}, {"type": "note_off", "time": 55, "note": 60, "velocity": 109, "channel": 0}, {"type": "note_on", "time": 4, "note": 63, "velocity": 120, "channel": 0}, {"type": "note_off", "time": 69, "note": 63, "velocity": 120, "channel": 0}, {"type": "note_on", "time": 8, "note": 65, "velocity": 117, "channel": 0}, {"type": "note_off", "time": 43, "note": 65, "velocity": 117, "channel": 0}, {"type": "note_on", "time": 534, "note": 69, "velocity": 117, "channel": 0}, {"type": "note_off", "time": 19, "note": 69, "velocity": 117, "channel": 0}, {"type": "note_on", "time": 1, "note": 68, "velocity": 123, "channel": 0}, {"type": "note_off", "time": 40, "note": 68, "velocity": 123, "channel": 0}, {"type": "note_on", "time": 13, "note": 70, "velocity": 119, "channel": 0}, {"type": "note_off", "time": 773, "note": 70, "velocity": 119, "channel": 0}, {"type": "note_on", "time": 6, "note": 68, "velocity": 117, "channel": 0}, {"type": "note_off", "time": 91, "note": 68, "velocity": 117, "channel": 0}, {"type": "note_on", "time": 19, "note": 70, "velocity": 116, "channel": 0}, {"type": "note_off", "time": 93, "note": 70, "velocity": 116, "channel": 0}, {"type": "note_on", "time": 15, "note": 68, "velocity": 119, "channel": 0}, {"type": "note_off", "time": 74, "note": 68, "velocity": 119, "channel": 0}, {"type": "note_on", "time": 13, "note": 70, "velocity": 115, "channel": 0}, {"type": "note_off", "time": 88, "note": 70, "velocity": 115, "channel": 0}, {"type": "note_on", "time": 1, "note": 68, "velocity": 112, "channel": 0}, {"type": "note_off", "time": 82, "note": 68, "velocity": 112, "channel": 0}, {"type": "note_on", "time": 25, "note": 73, "velocity": 121, "channel": 0}, {"type": "note_off", "time": 90, "note": 73, "velocity": 121, "channel": 0}, {"type": "note_on", "time": 857, "note": 63, "velocity": 123, "channel": 0}, {"type": "note_off", "time": 86, "note": 63, "velocity": 123, "channel": 0}, {"type": "note_on", "time": 152, "note": 74, "velocity": 115, "channel": 0}, {"type": "note_off", "time": 66, "note": 74, "velocity": 115, "channel": 0}, {"type": "note_on", "time": 7, "note": 72, "velocity": 121, "channel": 0}, {"type": "note_off", "time": 93, "note": 72, "velocity": 121, "channel": 0}, {"type": "note_on", "time": 60, "note": 71, "velocity": 123, "channel": 0}, {"type": "note_off", "time": 97, "note": 71, "velocity": 123, "channel": 0}, {"type": "note_on", "time": 13, "note": 68, "velocity": 118, "channel": 0}, {"type": "note_off", "time": 99, "note": 68, "velocity": 118, "channel": 0}, {"type": "note_on", "time": 20, "note": 71, "velocity": 117, "channel": 0}, {"type": "note_off", "time": 1249, "note": 71, "velocity": 117, "channel": 0}, {"type": "note_on", "time": 34, "note": 70, "velocity": 110, "channel": 0}, {"type": "note_off", "time": 87, "note": 70, "velocity": 110, "channel": 0}, {"type": "note_on", "time": 13, "note": 71, "velocity": 119, "channel": 0}, {"type": "note_off", "time": 48, "note": 71, "velocity": 119, "channel": 0}, {"type": "note_on", "time": 17, "note": 70, "velocity": 106, "channel": 0}, {"type": "note_off", "time": 953, "note": 70, "velocity": 106, "channel": 0}, {"type": "note_on", "time": 390, "note": 66, "velocity": 126, "channel": 0}, {"type": "note_off", "time": 29, "note": 66, "velocity": 126, "channel": 0}, {"type": "note_on", "time": 8, "note": 68, "velocity": 125, "channel": 0}, {"type": "note_off", "time": 164, "note": 68, "velocity": 125, "channel": 0}, {"type": "note_on", "time": 36, "note": 66, "velocity": 117, "channel": 0}, {"type": "note_off", "time": 116, "note": 66, "velocity": 117, "channel": 0}, {"type": "end_of_track", "time": 0}]]}